0, 0, Header, 1, 2, 384
1, 0, Start_track
1, 0, Tempo, 500000
1, 0, Time_signature, 4, 2, 24, 8
1, 1, End_track
2, 0, Start_track
2, 0, Title_t, "07/02  1~3"
2, 0, Program_c, 0, 0
2, 0, Control_c, 0, 64, 127
2, 0, Control_c, 0, 67, 0
2, 735, Note_on_c, 0, 48, 56
2, 745, Note_on_c, 0, 36, 52
2, 867, Control_c, 0, 64, 89
2, 882, Control_c, 0, 64, 64
2, 898, Control_c, 0, 64, 0
2, 1242, Note_on_c, 0, 72, 61
2, 1475, Note_on_c, 0, 74, 66
2, 1523, Note_on_c, 0, 72, 0
2, 1662, Note_on_c, 0, 76, 71
2, 1709, Note_on_c, 0, 74, 0
2, 1863, Note_on_c, 0, 67, 61
2, 1882, Note_on_c, 0, 76, 0
2, 2059, Note_on_c, 0, 76, 66
2, 2092, Note_on_c, 0, 67, 0
2, 2254, Note_on_c, 0, 65, 63
2, 2272, Note_on_c, 0, 76, 0
2, 2464, Note_on_c, 0, 74, 66
2, 2469, Note_on_c, 0, 65, 0
2, 2509, Control_c, 0, 64, 63
2, 2525, Control_c, 0, 64, 72
2, 2540, Control_c, 0, 64, 103
2, 2555, Control_c, 0, 64, 127
2, 2635, Note_on_c, 0, 74, 0
2, 2683, Note_on_c, 0, 64, 59
2, 2699, Control_c, 0, 64, 90
2, 2714, Control_c, 0, 64, 74
2, 2730, Control_c, 0, 64, 63
2, 2745, Control_c, 0, 64, 0
2, 2775, Note_on_c, 0, 72, 71
2, 2782, Note_on_c, 0, 64, 0
2, 2857, Note_on_c, 0, 72, 0
2, 2870, Note_on_c, 0, 71, 64
2, 2947, Note_on_c, 0, 69, 67
2, 2981, Note_on_c, 0, 71, 0
2, 3071, Note_on_c, 0, 67, 63
2, 3089, Note_on_c, 0, 69, 0
2, 3282, Note_on_c, 0, 70, 64
2, 3298, Note_on_c, 0, 67, 0
2, 3491, Note_on_c, 0, 70, 0
2, 3493, Note_on_c, 0, 64, 58
2, 3697, Note_on_c, 0, 67, 58
2, 3718, Note_on_c, 0, 64, 0
2, 3894, Note_on_c, 0, 67, 0
2, 3904, Note_on_c, 0, 60, 58
2, 4031, Control_c, 0, 64, 64
2, 4047, Control_c, 0, 64, 84
2, 4062, Control_c, 0, 64, 127
2, 4105, Note_on_c, 0, 70, 67
2, 4120, Note_on_c, 0, 60, 0
2, 4193, Note_on_c, 0, 70, 0
2, 4298, Control_c, 0, 64, 92
2, 4312, Control_c, 0, 64, 72
2, 4326, Note_on_c, 0, 69, 63
2, 4328, Control_c, 0, 64, 62
2, 4343, Control_c, 0, 64, 0
2, 4414, Note_on_c, 0, 67, 71
2, 4429, Note_on_c, 0, 69, 0
2, 4512, Note_on_c, 0, 65, 69
2, 4514, Note_on_c, 0, 67, 0
2, 4587, Note_on_c, 0, 65, 0
2, 4592, Note_on_c, 0, 64, 68
2, 4710, Note_on_c, 0, 65, 65
2, 4722, Note_on_c, 0, 64, 0
2, 4927, Note_on_c, 0, 69, 62
2, 4946, Note_on_c, 0, 65, 0
2, 5130, Note_on_c, 0, 62, 65
2, 5146, Note_on_c, 0, 69, 0
2, 5334, Note_on_c, 0, 65, 59
2, 5376, Note_on_c, 0, 62, 0
2, 5539, Note_on_c, 0, 57, 67
2, 5597, Note_on_c, 0, 65, 0
2, 5740, Note_on_c, 0, 60, 60
2, 5798, Note_on_c, 0, 57, 0
2, 5953, Note_on_c, 0, 59, 59
2, 5992, Note_on_c, 0, 60, 0
2, 6155, Note_on_c, 0, 62, 63
2, 6183, Note_on_c, 0, 59, 0
2, 6345, Note_on_c, 0, 64, 64
2, 6357, Note_on_c, 0, 62, 0
2, 6548, Note_on_c, 0, 65, 63
2, 6584, Note_on_c, 0, 64, 0
2, 6753, Note_on_c, 0, 55, 57
2, 6775, Note_on_c, 0, 65, 0
2, 6951, Note_on_c, 0, 65, 64
2, 7036, Note_on_c, 0, 55, 0
2, 7156, Note_on_c, 0, 64, 66
2, 7182, Note_on_c, 0, 65, 0
2, 7373, Note_on_c, 0, 62, 71
2, 7397, Note_on_c, 0, 64, 0
2, 7474, Control_c, 0, 64, 22
2, 7490, Control_c, 0, 64, 64
2, 7505, Control_c, 0, 64, 68
2, 7520, Control_c, 0, 64, 82
2, 7536, Control_c, 0, 64, 109
2, 7550, Control_c, 0, 64, 127
2, 7642, Note_on_c, 0, 64, 62
2, 7673, Control_c, 0, 64, 101
2, 7686, Note_on_c, 0, 62, 0
2, 7689, Control_c, 0, 64, 85
2, 7704, Control_c, 0, 64, 73
2, 7718, Control_c, 0, 64, 64
2, 7734, Control_c, 0, 64, 0
2, 7841, Control_c, 0, 67, 18
2, 7857, Control_c, 0, 67, 34
2, 7871, Control_c, 0, 67, 49
2, 7887, Control_c, 0, 67, 58
2, 7902, Control_c, 0, 67, 65
2, 7903, Note_on_c, 0, 60, 45
2, 7917, Control_c, 0, 67, 70
2, 7933, Control_c, 0, 67, 74
2, 7948, Control_c, 0, 67, 76
2, 8000, Control_c, 0, 67, 76
2, 8016, Control_c, 0, 67, 77
2, 8092, Control_c, 0, 67, 76
2, 8119, Note_on_c, 0, 59, 55
2, 8153, Control_c, 0, 67, 75
2, 8169, Control_c, 0, 67, 75
2, 8184, Control_c, 0, 67, 74
2, 8259, Control_c, 0, 67, 73
2, 8274, Control_c, 0, 67, 72
2, 8310, Note_on_c, 0, 36, 0
2, 8312, Note_on_c, 0, 57, 55
2, 8317, Note_on_c, 0, 48, 0
2, 8354, Note_on_c, 0, 59, 0
2, 8518, Note_on_c, 0, 55, 52
2, 8551, Note_on_c, 0, 57, 0
2, 8576, Control_c, 0, 67, 72
2, 8607, Control_c, 0, 67, 71
2, 8699, Control_c, 0, 67, 71
2, 8716, Note_on_c, 0, 53, 53
2, 8752, Control_c, 0, 67, 70
2, 8768, Control_c, 0, 67, 70
2, 8859, Control_c, 0, 67, 69
2, 8914, Note_on_c, 0, 52, 59
2, 8927, Note_on_c, 0, 53, 0
2, 8965, Control_c, 0, 67, 69
2, 9087, Control_c, 0, 67, 68
2, 9114, Note_on_c, 0, 50, 58
2, 9122, Note_on_c, 0, 52, 0
2, 9316, Note_on_c, 0, 50, 0
2, 9323, Note_on_c, 0, 48, 60
2, 9396, Note_on_c, 0, 48, 0
2, 9406, Control_c, 0, 67, 68
2, 9426, Note_on_c, 0, 50, 66
2, 9498, Control_c, 0, 67, 67
2, 9506, Note_on_c, 0, 50, 0
2, 9511, Note_on_c, 0, 48, 61
2, 9513, Control_c, 0, 67, 67
2, 9535, Control_c, 0, 67, 66
2, 9600, Note_on_c, 0, 48, 0
2, 9609, Note_on_c, 0, 47, 62
2, 9626, Control_c, 0, 67, 67
2, 9657, Control_c, 0, 67, 66
2, 9688, Control_c, 0, 67, 67
2, 9714, Note_on_c, 0, 48, 60
2, 9715, Note_on_c, 0, 47, 0
2, 9718, Control_c, 0, 67, 67
2, 9839, Control_c, 0, 67, 67
2, 9885, Control_c, 0, 67, 66
2, 9926, Note_on_c, 0, 52, 58
2, 9936, Note_on_c, 0, 48, 0
2, 9960, Control_c, 0, 67, 66
2, 9976, Control_c, 0, 67, 65
2, 9991, Control_c, 0, 67, 65
2, 10006, Control_c, 0, 67, 64
2, 10021, Control_c, 0, 67, 64
2, 10036, Control_c, 0, 67, 63
2, 10052, Control_c, 0, 67, 63
2, 10067, Control_c, 0, 67, 62
2, 10082, Control_c, 0, 67, 61
2, 10098, Control_c, 0, 67, 61
2, 10112, Control_c, 0, 67, 60
2, 10116, Note_on_c, 0, 43, 58
2, 10143, Control_c, 0, 67, 60
2, 10143, Note_on_c, 0, 52, 0
2, 10320, Note_on_c, 0, 46, 63
2, 10345, Note_on_c, 0, 43, 0
2, 10470, Control_c, 0, 67, 60
2, 10522, Note_on_c, 0, 45, 61
2, 10538, Note_on_c, 0, 46, 0
2, 10739, Note_on_c, 0, 43, 52
2, 10754, Note_on_c, 0, 45, 0
2, 11009, Note_on_c, 0, 57, 52
2, 11030, Note_on_c, 0, 41, 44
2, 11059, Note_on_c, 0, 55, 0
2, 11096, Note_on_c, 0, 43, 0
2, 11121, Note_on_c, 0, 60, 0
2, 11269, Note_on_c, 0, 48, 46
2, 11467, Note_on_c, 0, 50, 53
2, 11489, Note_on_c, 0, 48, 0
2, 11650, Control_c, 0, 67, 60
2, 11669, Note_on_c, 0, 52, 61
2, 11702, Note_on_c, 0, 50, 0
2, 11710, Control_c, 0, 67, 59
2, 11755, Control_c, 0, 67, 59
2, 11771, Control_c, 0, 67, 58
2, 11786, Control_c, 0, 67, 58
2, 11801, Control_c, 0, 67, 56
2, 11817, Control_c, 0, 67, 52
2, 11839, Control_c, 0, 67, 45
2, 11855, Control_c, 0, 67, 36
2, 11870, Control_c, 0, 67, 27
2, 11885, Control_c, 0, 67, 15
2, 11900, Control_c, 0, 67, 0
2, 11944, Note_on_c, 0, 53, 48
2, 12027, Note_on_c, 0, 52, 0
2, 12170, Note_on_c, 0, 62, 64
2, 12265, Note_on_c, 0, 64, 0
2, 12380, Note_on_c, 0, 52, 52
2, 12395, Note_on_c, 0, 53, 0
2, 12583, Note_on_c, 0, 60, 65
2, 12637, Note_on_c, 0, 57, 0
2, 12637, Note_on_c, 0, 62, 0
2, 12797, Note_on_c, 0, 59, 64
2, 12800, Note_on_c, 0, 55, 53
2, 12808, Note_on_c, 0, 60, 0
2, 12822, Note_on_c, 0, 50, 45
2, 12867, Note_on_c, 0, 52, 0
2, 12999, Note_on_c, 0, 62, 71
2, 13046, Note_on_c, 0, 59, 0
2, 13094, Control_c, 0, 64, 27
2, 13109, Control_c, 0, 64, 58
2, 13124, Control_c, 0, 64, 59
2, 13128, Note_on_c, 0, 62, 0
2, 13154, Control_c, 0, 64, 58
2, 13170, Control_c, 0, 64, 57
2, 13185, Control_c, 0, 64, 56
2, 13200, Control_c, 0, 64, 54
2, 13216, Control_c, 0, 64, 47
2, 13218, Note_on_c, 0, 67, 69
2, 13230, Control_c, 0, 64, 30
2, 13246, Control_c, 0, 64, 0
2, 13384, Note_on_c, 0, 55, 0
2, 13429, Note_on_c, 0, 59, 60
2, 13466, Control_c, 0, 64, 64
2, 13481, Control_c, 0, 64, 79
2, 13490, Note_on_c, 0, 41, 0
2, 13496, Control_c, 0, 64, 127
2, 13526, Note_on_c, 0, 50, 0
2, 13626, Note_on_c, 0, 67, 0
2, 13634, Control_c, 0, 64, 86
2, 13644, Note_on_c, 0, 60, 59
2, 13650, Control_c, 0, 64, 69
2, 13662, Note_on_c, 0, 52, 48
2, 13665, Control_c, 0, 64, 57
2, 13674, Note_on_c, 0, 40, 44
2, 13677, Note_on_c, 0, 59, 0
2, 13679, Control_c, 0, 64, 0
2, 13852, Note_on_c, 0, 67, 67
2, 14060, Note_on_c, 0, 65, 68
2, 14066, Note_on_c, 0, 40, 0
2, 14069, Note_on_c, 0, 45, 57
2, 14091, Note_on_c, 0, 67, 0
2, 14262, Note_on_c, 0, 64, 72
2, 14274, Note_on_c, 0, 65, 0
2, 14355, Note_on_c, 0, 52, 0
2, 14528, Note_on_c, 0, 65, 57
2, 14568, Note_on_c, 0, 50, 38
2, 14571, Note_on_c, 0, 64, 0
2, 14585, Note_on_c, 0, 38, 39
2, 14589, Note_on_c, 0, 60, 0
2, 14704, Note_on_c, 0, 45, 0
2, 14756, Note_on_c, 0, 60, 45
2, 14952, Note_on_c, 0, 62, 59
2, 14958, Note_on_c, 0, 60, 0
2, 15142, Note_on_c, 0, 57, 55
2, 15148, Note_on_c, 0, 62, 0
2, 15374, Note_on_c, 0, 59, 54
2, 15379, Note_on_c, 0, 57, 0
2, 15402, Note_on_c, 0, 43, 44
2, 15416, Note_on_c, 0, 65, 0
2, 15429, Control_c, 0, 67, 11
2, 15444, Control_c, 0, 67, 15
2, 15460, Control_c, 0, 67, 17
2, 15468, Note_on_c, 0, 38, 0
2, 15475, Control_c, 0, 67, 18
2, 15483, Note_on_c, 0, 50, 0
2, 15551, Control_c, 0, 67, 17
2, 15566, Control_c, 0, 67, 17
2, 15576, Note_on_c, 0, 65, 64
2, 15611, Control_c, 0, 67, 16
2, 15626, Control_c, 0, 67, 15
2, 15641, Control_c, 0, 67, 15
2, 15657, Control_c, 0, 67, 14
2, 15741, Control_c, 0, 67, 14
2, 15755, Control_c, 0, 67, 13
2, 15781, Note_on_c, 0, 64, 67
2, 15786, Control_c, 0, 67, 15
2, 15801, Control_c, 0, 67, 15
2, 15817, Control_c, 0, 67, 16
2, 15831, Control_c, 0, 67, 16
2, 15838, Note_on_c, 0, 65, 0
2, 15847, Control_c, 0, 67, 17
2, 15877, Control_c, 0, 67, 17
2, 15893, Control_c, 0, 67, 18
2, 15907, Control_c, 0, 67, 18
2, 15922, Control_c, 0, 67, 19
2, 15938, Control_c, 0, 67, 19
2, 15968, Control_c, 0, 67, 20
2, 15979, Note_on_c, 0, 64, 0
2, 15982, Note_on_c, 0, 62, 68
2, 15983, Control_c, 0, 67, 20
2, 15998, Control_c, 0, 67, 21
2, 16014, Control_c, 0, 67, 21
2, 16030, Control_c, 0, 67, 22
2, 16044, Note_on_c, 0, 59, 0
2, 16046, Control_c, 0, 67, 22
2, 16060, Control_c, 0, 67, 23
2, 16091, Control_c, 0, 67, 23
2, 16136, Control_c, 0, 67, 23
2, 16151, Control_c, 0, 67, 22
2, 16196, Control_c, 0, 67, 21
2, 16212, Control_c, 0, 67, 21
2, 16218, Note_on_c, 0, 64, 49
2, 16221, Note_on_c, 0, 60, 48
2, 16227, Control_c, 0, 67, 20
2, 16242, Control_c, 0, 67, 19
2, 16244, Note_on_c, 0, 36, 38
2, 16246, Note_on_c, 0, 62, 0
2, 16257, Note_on_c, 0, 43, 0
2, 16258, Control_c, 0, 67, 18
2, 16273, Control_c, 0, 67, 17
2, 16289, Control_c, 0, 67, 16
2, 16304, Control_c, 0, 67, 15
2, 16319, Control_c, 0, 67, 14
2, 16334, Control_c, 0, 67, 13
2, 16349, Control_c, 0, 67, 12
2, 16364, Control_c, 0, 67, 11
2, 16379, Control_c, 0, 67, 11
2, 16410, Control_c, 0, 67, 10
2, 16421, Note_on_c, 0, 43, 53
2, 16425, Control_c, 0, 67, 10
2, 16448, Control_c, 0, 67, 9
2, 16469, Note_on_c, 0, 36, 0
2, 16494, Control_c, 0, 67, 9
2, 16539, Control_c, 0, 67, 8
2, 16554, Control_c, 0, 67, 8
2, 16585, Control_c, 0, 67, 0
2, 16634, Note_on_c, 0, 45, 66
2, 16646, Note_on_c, 0, 43, 0
2, 16829, Note_on_c, 0, 47, 64
2, 16863, Note_on_c, 0, 45, 0
2, 17028, Note_on_c, 0, 47, 0
2, 17029, Note_on_c, 0, 48, 70
2, 17180, Note_on_c, 0, 48, 0
2, 17233, Note_on_c, 0, 52, 68
2, 17435, Note_on_c, 0, 45, 66
2, 17444, Note_on_c, 0, 52, 0
2, 17608, Note_on_c, 0, 60, 0
2, 17636, Note_on_c, 0, 48, 63
2, 17646, Note_on_c, 0, 45, 0
2, 17871, Note_on_c, 0, 62, 74
2, 17896, Note_on_c, 0, 42, 51
2, 17943, Note_on_c, 0, 64, 0
2, 17991, Note_on_c, 0, 48, 0
2, 18093, Note_on_c, 0, 60, 59
2, 18150, Control_c, 0, 67, 8
2, 18166, Control_c, 0, 67, 11
2, 18181, Control_c, 0, 67, 13
2, 18194, Note_on_c, 0, 42, 0
2, 18196, Control_c, 0, 67, 15
2, 18212, Control_c, 0, 67, 16
2, 18227, Control_c, 0, 67, 17
2, 18242, Control_c, 0, 67, 18
2, 18258, Control_c, 0, 67, 19
2, 18272, Control_c, 0, 67, 19
2, 18288, Control_c, 0, 67, 20
2, 18296, Note_on_c, 0, 59, 58
2, 18297, Note_on_c, 0, 60, 0
2, 18303, Control_c, 0, 67, 21
2, 18318, Control_c, 0, 67, 22
2, 18320, Note_on_c, 0, 38, 48
2, 18334, Control_c, 0, 67, 23
2, 18349, Control_c, 0, 67, 25
2, 18379, Control_c, 0, 67, 26
2, 18409, Control_c, 0, 67, 27
2, 18424, Control_c, 0, 67, 33
2, 18439, Control_c, 0, 67, 43
2, 18455, Control_c, 0, 67, 56
2, 18470, Control_c, 0, 67, 63
2, 18487, Control_c, 0, 67, 66
2, 18502, Control_c, 0, 67, 67
2, 18502, Note_on_c, 0, 57, 59
2, 18503, Note_on_c, 0, 59, 0
2, 18532, Control_c, 0, 67, 66
2, 18547, Control_c, 0, 67, 65
2, 18562, Control_c, 0, 67, 63
2, 18578, Control_c, 0, 67, 62
2, 18592, Control_c, 0, 67, 61
2, 18608, Control_c, 0, 67, 61
2, 18623, Control_c, 0, 67, 60
2, 18637, Control_c, 0, 67, 59
2, 18653, Control_c, 0, 67, 58
2, 18660, Note_on_c, 0, 38, 0
2, 18668, Control_c, 0, 67, 57
2, 18683, Control_c, 0, 67, 56
2, 18699, Control_c, 0, 67, 55
2, 18713, Control_c, 0, 67, 54
2, 18729, Control_c, 0, 67, 54
2, 18741, Note_on_c, 0, 57, 0
2, 18746, Note_on_c, 0, 59, 52
2, 18752, Control_c, 0, 67, 53
2, 18761, Note_on_c, 0, 43, 47
2, 18783, Control_c, 0, 67, 53
2, 18789, Note_on_c, 0, 62, 0
2, 18813, Control_c, 0, 67, 52
2, 18828, Control_c, 0, 67, 52
2, 18858, Control_c, 0, 67, 51
2, 18873, Control_c, 0, 67, 51
2, 18942, Note_on_c, 0, 62, 65
2, 18980, Control_c, 0, 67, 50
2, 19010, Control_c, 0, 67, 50
2, 19025, Control_c, 0, 67, 49
2, 19040, Control_c, 0, 67, 49
2, 19056, Control_c, 0, 67, 48
2, 19071, Control_c, 0, 67, 46
2, 19086, Control_c, 0, 67, 41
2, 19101, Control_c, 0, 67, 37
2, 19116, Control_c, 0, 67, 32
2, 19132, Control_c, 0, 67, 23
2, 19139, Note_on_c, 0, 64, 71
2, 19147, Control_c, 0, 67, 11
2, 19152, Note_on_c, 0, 62, 0
2, 19162, Control_c, 0, 67, 0
2, 19336, Note_on_c, 0, 67, 71
2, 19364, Note_on_c, 0, 64, 0
2, 19382, Note_on_c, 0, 43, 0
2, 19429, Note_on_c, 0, 43, 15
2, 19432, Note_on_c, 0, 59, 0
2, 19621, Note_on_c, 0, 60, 56
2, 19630, Note_on_c, 0, 57, 54
2, 19642, Note_on_c, 0, 67, 0
2, 19829, Note_on_c, 0, 43, 0
2, 19835, Note_on_c, 0, 45, 57
2, 19923, Note_on_c, 0, 45, 0
2, 19923, Note_on_c, 0, 47, 65
2, 20018, Note_on_c, 0, 47, 0
2, 20019, Note_on_c, 0, 48, 69
2, 20082, Note_on_c, 0, 48, 0
2, 20098, Note_on_c, 0, 50, 62
2, 20211, Note_on_c, 0, 50, 0
2, 20220, Note_on_c, 0, 52, 65
2, 20234, Note_on_c, 0, 57, 0
2, 20456, Note_on_c, 0, 42, 62
2, 20524, Note_on_c, 0, 52, 0
2, 20562, Note_on_c, 0, 60, 0
2, 20663, Note_on_c, 0, 69, 67
2, 20752, Note_on_c, 0, 67, 73
2, 20758, Note_on_c, 0, 69, 0
2, 20861, Note_on_c, 0, 69, 70
2, 20883, Note_on_c, 0, 50, 44
2, 20884, Note_on_c, 0, 67, 0
2, 21069, Note_on_c, 0, 69, 0
2, 21075, Note_on_c, 0, 60, 63
2, 21086, Control_c, 0, 67, 11
2, 21101, Control_c, 0, 64, 58
2, 21101, Control_c, 0, 67, 13
2, 21116, Control_c, 0, 64, 72
2, 21116, Control_c, 0, 67, 15
2, 21132, Control_c, 0, 64, 127
2, 21132, Control_c, 0, 67, 16
2, 21176, Note_on_c, 0, 60, 0
2, 21177, Control_c, 0, 67, 15
2, 21192, Control_c, 0, 67, 14
2, 21208, Control_c, 0, 67, 14
2, 21217, Note_on_c, 0, 42, 0
2, 21223, Control_c, 0, 67, 13
2, 21268, Control_c, 0, 67, 13
2, 21330, Note_on_c, 0, 59, 65
2, 21344, Control_c, 0, 64, 110
2, 21359, Control_c, 0, 64, 79
2, 21359, Control_c, 0, 67, 13
2, 21374, Control_c, 0, 64, 65
2, 21374, Control_c, 0, 67, 14
2, 21378, Note_on_c, 0, 43, 36
2, 21389, Control_c, 0, 64, 36
2, 21389, Control_c, 0, 67, 15
2, 21404, Control_c, 0, 64, 0
2, 21404, Control_c, 0, 67, 16
2, 21420, Control_c, 0, 67, 17
2, 21435, Control_c, 0, 67, 18
2, 21451, Control_c, 0, 67, 18
2, 21465, Control_c, 0, 67, 20
2, 21480, Control_c, 0, 67, 22
2, 21496, Control_c, 0, 67, 25
2, 21510, Control_c, 0, 67, 30
2, 21526, Control_c, 0, 67, 37
2, 21538, Note_on_c, 0, 57, 51
2, 21541, Control_c, 0, 67, 49
2, 21556, Control_c, 0, 67, 59
2, 21572, Control_c, 0, 67, 64
2, 21587, Control_c, 0, 67, 64
2, 21618, Control_c, 0, 67, 65
2, 21632, Control_c, 0, 67, 66
2, 21648, Control_c, 0, 67, 67
2, 21663, Control_c, 0, 67, 68
2, 21678, Control_c, 0, 67, 69
2, 21694, Control_c, 0, 67, 69
2, 21723, Control_c, 0, 67, 68
2, 21739, Control_c, 0, 67, 68
2, 21744, Note_on_c, 0, 55, 51
2, 21744, Note_on_c, 0, 57, 0
2, 21755, Control_c, 0, 67, 67
2, 21771, Control_c, 0, 67, 66
2, 21786, Control_c, 0, 67, 65
2, 21800, Control_c, 0, 67, 65
2, 21854, Control_c, 0, 67, 64
2, 21869, Control_c, 0, 67, 64
2, 21884, Control_c, 0, 67, 63
2, 21914, Control_c, 0, 67, 63
2, 21945, Control_c, 0, 67, 62
2, 21963, Note_on_c, 0, 54, 47
2, 21981, Note_on_c, 0, 55, 0
2, 22097, Control_c, 0, 67, 62
2, 22177, Note_on_c, 0, 54, 0
2, 22196, Note_on_c, 0, 55, 44
2, 22214, Note_on_c, 0, 59, 0
2, 22406, Note_on_c, 0, 62, 53
2, 22552, Control_c, 0, 67, 61
2, 22621, Note_on_c, 0, 64, 59
2, 22632, Note_on_c, 0, 41, 48
2, 22651, Note_on_c, 0, 62, 0
2, 22682, Control_c, 0, 67, 61
2, 22713, Control_c, 0, 67, 60
2, 22715, Note_on_c, 0, 43, 0
2, 22774, Control_c, 0, 67, 60
2, 22816, Note_on_c, 0, 65, 67
2, 22819, Control_c, 0, 67, 59
2, 22838, Note_on_c, 0, 64, 0
2, 22880, Control_c, 0, 67, 59
2, 22916, Note_on_c, 0, 55, 0
2, 22941, Control_c, 0, 67, 58
2, 22972, Control_c, 0, 67, 57
2, 23048, Control_c, 0, 67, 57
2, 23052, Note_on_c, 0, 67, 64
2, 23097, Note_on_c, 0, 65, 0
2, 23099, Note_on_c, 0, 40, 36
2, 23122, Control_c, 0, 67, 56
2, 23154, Note_on_c, 0, 41, 0
2, 23223, Note_on_c, 0, 50, 0
2, 23229, Control_c, 0, 67, 56
2, 23256, Note_on_c, 0, 64, 54
2, 23260, Control_c, 0, 67, 55
2, 23431, Note_on_c, 0, 40, 0
2, 23451, Control_c, 0, 67, 55
2, 23467, Note_on_c, 0, 59, 56
2, 23477, Note_on_c, 0, 64, 0
2, 23479, Note_on_c, 0, 52, 55
2, 23481, Control_c, 0, 67, 54
2, 23513, Note_on_c, 0, 43, 47
2, 23527, Control_c, 0, 67, 54
2, 23542, Control_c, 0, 67, 53
2, 23587, Control_c, 0, 67, 53
2, 23602, Control_c, 0, 67, 52
2, 23618, Control_c, 0, 67, 52
2, 23632, Control_c, 0, 67, 51
2, 23648, Control_c, 0, 67, 48
2, 23663, Control_c, 0, 67, 43
2, 23678, Control_c, 0, 67, 34
2, 23679, Note_on_c, 0, 62, 63
2, 23694, Control_c, 0, 67, 25
2, 23700, Note_on_c, 0, 59, 0
2, 23708, Control_c, 0, 67, 16
2, 23723, Control_c, 0, 67, 10
2, 23739, Control_c, 0, 67, 0
2, 23806, Note_on_c, 0, 43, 0
2, 23877, Note_on_c, 0, 61, 59
2, 23893, Note_on_c, 0, 62, 0
2, 23898, Note_on_c, 0, 45, 49
2, 24094, Note_on_c, 0, 64, 55
2, 24143, Note_on_c, 0, 61, 0
2, 24197, Note_on_c, 0, 45, 0
2, 24313, Note_on_c, 0, 57, 51
2, 24333, Note_on_c, 0, 49, 48
2, 24362, Note_on_c, 0, 64, 0
2, 24375, Note_on_c, 0, 67, 0
2, 24507, Control_c, 0, 64, 40
2, 24514, Note_on_c, 0, 67, 70
2, 24522, Control_c, 0, 64, 56
2, 24537, Note_on_c, 0, 49, 0
2, 24538, Control_c, 0, 64, 60
2, 24552, Control_c, 0, 64, 62
2, 24568, Control_c, 0, 64, 63
2, 24614, Control_c, 0, 64, 62
2, 24629, Control_c, 0, 64, 62
2, 24635, Note_on_c, 0, 52, 0
2, 24644, Control_c, 0, 64, 61
2, 24660, Control_c, 0, 64, 60
2, 24674, Control_c, 0, 64, 58
2, 24690, Control_c, 0, 64, 54
2, 24705, Control_c, 0, 64, 45
2, 24720, Control_c, 0, 64, 15
2, 24736, Control_c, 0, 64, 0
2, 24757, Note_on_c, 0, 65, 68
2, 24797, Note_on_c, 0, 38, 39
2, 24865, Note_on_c, 0, 67, 0
2, 24979, Note_on_c, 0, 45, 61
2, 25083, Note_on_c, 0, 38, 0
2, 25177, Note_on_c, 0, 47, 66
2, 25202, Note_on_c, 0, 45, 0
2, 25378, Note_on_c, 0, 49, 68
2, 25413, Note_on_c, 0, 47, 0
2, 25585, Note_on_c, 0, 50, 67
2, 25586, Note_on_c, 0, 49, 0
2, 25767, Note_on_c, 0, 50, 0
2, 25788, Note_on_c, 0, 53, 65
2, 25828, Note_on_c, 0, 57, 0
2, 26002, Note_on_c, 0, 62, 56
2, 26008, Note_on_c, 0, 47, 53
2, 26011, Note_on_c, 0, 53, 0
2, 26208, Note_on_c, 0, 50, 56
2, 26211, Control_c, 0, 64, 36
2, 26214, Note_on_c, 0, 47, 0
2, 26225, Control_c, 0, 64, 59
2, 26235, Note_on_c, 0, 62, 0
2, 26240, Control_c, 0, 64, 62
2, 26256, Control_c, 0, 64, 63
2, 26316, Control_c, 0, 64, 62
2, 26347, Control_c, 0, 64, 62
2, 26362, Control_c, 0, 64, 61
2, 26378, Control_c, 0, 64, 61
2, 26393, Control_c, 0, 64, 59
2, 26409, Control_c, 0, 64, 55
2, 26430, Control_c, 0, 64, 29
2, 26446, Control_c, 0, 64, 0
2, 26446, Note_on_c, 0, 64, 67
2, 26474, Note_on_c, 0, 44, 51
2, 26497, Note_on_c, 0, 65, 0
2, 26600, Note_on_c, 0, 50, 0
2, 26643, Note_on_c, 0, 62, 65
2, 26801, Note_on_c, 0, 44, 0
2, 26852, Note_on_c, 0, 60, 56
2, 26855, Note_on_c, 0, 62, 0
2, 26863, Note_on_c, 0, 40, 47
2, 27059, Note_on_c, 0, 59, 60
2, 27061, Note_on_c, 0, 60, 0
2, 27254, Note_on_c, 0, 40, 0
2, 27276, Note_on_c, 0, 59, 0
2, 27289, Note_on_c, 0, 60, 47
2, 27303, Note_on_c, 0, 45, 49
2, 27338, Note_on_c, 0, 64, 0
2, 27500, Note_on_c, 0, 64, 60
2, 27708, Note_on_c, 0, 45, 0
2, 27711, Note_on_c, 0, 43, 52
2, 27714, Note_on_c, 0, 65, 65
2, 27724, Note_on_c, 0, 64, 0
2, 27901, Note_on_c, 0, 67, 68
2, 27920, Note_on_c, 0, 65, 0
2, 28130, Note_on_c, 0, 67, 0
2, 28135, Note_on_c, 0, 69, 61
2, 28145, Note_on_c, 0, 43, 0
2, 28154, Note_on_c, 0, 41, 47
2, 28214, Note_on_c, 0, 69, 0
2, 28227, Note_on_c, 0, 67, 68
2, 28318, Note_on_c, 0, 67, 0
2, 28319, Note_on_c, 0, 65, 68
2, 28402, Note_on_c, 0, 65, 0
2, 28405, Note_on_c, 0, 64, 69
2, 28517, Note_on_c, 0, 65, 71
2, 28526, Note_on_c, 0, 64, 0
2, 28537, Note_on_c, 0, 40, 51
2, 28553, Note_on_c, 0, 41, 0
2, 28734, Note_on_c, 0, 69, 72
2, 28737, Note_on_c, 0, 65, 0
2, 28770, Note_on_c, 0, 60, 0
2, 28933, Note_on_c, 0, 62, 68
2, 28933, Note_on_c, 0, 69, 0
2, 28951, Note_on_c, 0, 41, 57
2, 28978, Note_on_c, 0, 40, 0
2, 29123, Note_on_c, 0, 72, 73
2, 29336, Note_on_c, 0, 71, 71
2, 29339, Note_on_c, 0, 41, 0
2, 29353, Note_on_c, 0, 38, 47
2, 29354, Note_on_c, 0, 72, 0
2, 29529, Note_on_c, 0, 69, 74
2, 29535, Note_on_c, 0, 71, 0
2, 29566, Control_c, 0, 64, 50
2, 29581, Control_c, 0, 64, 68
2, 29586, Note_on_c, 0, 62, 0
2, 29596, Control_c, 0, 64, 100
2, 29612, Control_c, 0, 64, 127
2, 29648, Note_on_c, 0, 69, 0
2, 29797, Note_on_c, 0, 68, 69
2, 29844, Note_on_c, 0, 40, 44
2, 29869, Control_c, 0, 64, 101
2, 29885, Control_c, 0, 64, 71
2, 29900, Control_c, 0, 64, 57
2, 29915, Control_c, 0, 64, 0
2, 29981, Note_on_c, 0, 38, 0
2, 30024, Note_on_c, 0, 65, 52
2, 30217, Note_on_c, 0, 65, 0
2, 30230, Note_on_c, 0, 64, 50
2, 30429, Note_on_c, 0, 62, 55
2, 30447, Note_on_c, 0, 64, 0
2, 30640, Note_on_c, 0, 60, 53
2, 30650, Note_on_c, 0, 62, 0
2, 30739, Note_on_c, 0, 68, 0
2, 30837, Note_on_c, 0, 64, 67
2, 30960, Note_on_c, 0, 64, 0
2, 31065, Note_on_c, 0, 69, 66
2, 31119, Note_on_c, 0, 60, 0
2, 31256, Note_on_c, 0, 60, 49
2, 31489, Note_on_c, 0, 59, 52
2, 31520, Note_on_c, 0, 60, 0
2, 31673, Note_on_c, 0, 69, 0
2, 31693, Note_on_c, 0, 47, 59
2, 31780, Note_on_c, 0, 40, 0
2, 31891, Note_on_c, 0, 69, 59
2, 31898, Note_on_c, 0, 48, 61
2, 31900, Note_on_c, 0, 47, 0
2, 32084, Note_on_c, 0, 50, 69
2, 32123, Note_on_c, 0, 48, 0
2, 32278, Note_on_c, 0, 52, 74
2, 32281, Note_on_c, 0, 67, 76
2, 32283, Note_on_c, 0, 50, 0
2, 32318, Note_on_c, 0, 69, 0
2, 32480, Note_on_c, 0, 55, 70
2, 32486, Note_on_c, 0, 52, 0
2, 32697, Note_on_c, 0, 65, 71
2, 32700, Note_on_c, 0, 59, 0
2, 32704, Note_on_c, 0, 47, 60
2, 32709, Note_on_c, 0, 67, 0
2, 32718, Note_on_c, 0, 62, 56
2, 32723, Note_on_c, 0, 55, 0
2, 32898, Note_on_c, 0, 47, 0
2, 32901, Note_on_c, 0, 50, 59
2, 32939, Control_c, 0, 64, 63
2, 32954, Control_c, 0, 64, 81
2, 32970, Control_c, 0, 64, 127
2, 32979, Note_on_c, 0, 65, 0
2, 32989, Note_on_c, 0, 62, 0
2, 33100, Note_on_c, 0, 64, 72
2, 33104, Note_on_c, 0, 50, 0
2, 33117, Note_on_c, 0, 49, 59
2, 33137, Control_c, 0, 64, 85
2, 33151, Control_c, 0, 64, 64
2, 33167, Control_c, 0, 64, 0
2, 33309, Note_on_c, 0, 52, 54
2, 33312, Note_on_c, 0, 62, 59
2, 33354, Note_on_c, 0, 49, 0
2, 33524, Note_on_c, 0, 61, 58
2, 33534, Note_on_c, 0, 45, 52
2, 33540, Note_on_c, 0, 62, 0
2, 33561, Note_on_c, 0, 64, 0
2, 33585, Control_c, 0, 64, 49
2, 33600, Control_c, 0, 64, 65
2, 33616, Control_c, 0, 64, 74
2, 33631, Control_c, 0, 64, 101
2, 33647, Control_c, 0, 64, 127
2, 33722, Control_c, 0, 64, 115
2, 33737, Control_c, 0, 64, 82
2, 33747, Note_on_c, 0, 64, 59
2, 33752, Control_c, 0, 64, 69
2, 33768, Control_c, 0, 64, 61
2, 33773, Note_on_c, 0, 45, 0
2, 33773, Note_on_c, 0, 55, 50
2, 33775, Note_on_c, 0, 61, 0
2, 33783, Control_c, 0, 64, 0
2, 33786, Note_on_c, 0, 52, 0
2, 33813, Control_c, 0, 67, 18
2, 33828, Control_c, 0, 67, 26
2, 33843, Control_c, 0, 67, 32
2, 33859, Control_c, 0, 67, 34
2, 33874, Control_c, 0, 67, 35
2, 33919, Control_c, 0, 67, 34
2, 33935, Control_c, 0, 67, 34
2, 33950, Control_c, 0, 67, 32
2, 33954, Note_on_c, 0, 57, 51
2, 33964, Note_on_c, 0, 50, 47
2, 33966, Control_c, 0, 67, 31
2, 33981, Control_c, 0, 67, 30
2, 33995, Control_c, 0, 67, 29
2, 33997, Note_on_c, 0, 55, 0
2, 34002, Note_on_c, 0, 64, 0
2, 34011, Control_c, 0, 67, 29
2, 34042, Control_c, 0, 67, 28
2, 34058, Control_c, 0, 67, 27
2, 34073, Control_c, 0, 67, 26
2, 34160, Note_on_c, 0, 64, 46
2, 34172, Control_c, 0, 67, 25
2, 34186, Control_c, 0, 67, 24
2, 34192, Note_on_c, 0, 55, 50
2, 34293, Control_c, 0, 67, 23
2, 34308, Control_c, 0, 67, 23
2, 34339, Control_c, 0, 67, 22
2, 34369, Note_on_c, 0, 62, 57
2, 34370, Control_c, 0, 67, 22
2, 34376, Note_on_c, 0, 55, 0
2, 34384, Control_c, 0, 67, 21
2, 34388, Note_on_c, 0, 53, 38
2, 34416, Note_on_c, 0, 64, 0
2, 34505, Control_c, 0, 67, 21
2, 34556, Note_on_c, 0, 53, 0
2, 34559, Note_on_c, 0, 62, 0
2, 34562, Note_on_c, 0, 61, 49
2, 34578, Note_on_c, 0, 52, 44
2, 34612, Control_c, 0, 67, 20
2, 34672, Control_c, 0, 67, 20
2, 34703, Control_c, 0, 67, 19
2, 34718, Control_c, 0, 67, 19
2, 34734, Control_c, 0, 67, 18
2, 34749, Control_c, 0, 67, 17
2, 34760, Note_on_c, 0, 57, 0
2, 34763, Control_c, 0, 67, 17
2, 34779, Control_c, 0, 67, 15
2, 34784, Note_on_c, 0, 61, 0
2, 34791, Note_on_c, 0, 62, 47
2, 34794, Control_c, 0, 67, 12
2, 34810, Control_c, 0, 67, 9
2, 34825, Control_c, 0, 64, 63
2, 34825, Control_c, 0, 67, 0
2, 34827, Note_on_c, 0, 53, 51
2, 34839, Control_c, 0, 64, 73
2, 34847, Note_on_c, 0, 52, 0
2, 34855, Control_c, 0, 64, 127
2, 34855, Note_on_c, 0, 62, 0
2, 35012, Note_on_c, 0, 69, 58
2, 35070, Note_on_c, 0, 50, 0
2, 35106, Control_c, 0, 64, 90
2, 35121, Control_c, 0, 64, 68
2, 35137, Control_c, 0, 64, 42
2, 35152, Control_c, 0, 64, 0
2, 35210, Note_on_c, 0, 71, 72
2, 35231, Note_on_c, 0, 45, 49
2, 35247, Note_on_c, 0, 69, 0
2, 35402, Note_on_c, 0, 73, 75
2, 35421, Note_on_c, 0, 71, 0
2, 35603, Note_on_c, 0, 74, 76
2, 35604, Note_on_c, 0, 45, 0
2, 35612, Note_on_c, 0, 46, 57
2, 35648, Note_on_c, 0, 73, 0
2, 35722, Control_c, 0, 64, 64
2, 35738, Control_c, 0, 64, 76
2, 35752, Note_on_c, 0, 74, 0
2, 35753, Control_c, 0, 64, 127
2, 35825, Note_on_c, 0, 77, 77
2, 35843, Control_c, 0, 64, 76
2, 35859, Control_c, 0, 64, 62
2, 35874, Control_c, 0, 64, 0
2, 36022, Note_on_c, 0, 69, 64
2, 36036, Note_on_c, 0, 50, 52
2, 36046, Note_on_c, 0, 46, 0
2, 36225, Note_on_c, 0, 72, 71
2, 36236, Note_on_c, 0, 69, 0
2, 36254, Control_c, 0, 64, 46
2, 36269, Control_c, 0, 64, 65
2, 36284, Control_c, 0, 64, 73
2, 36300, Control_c, 0, 64, 112
2, 36315, Control_c, 0, 64, 127
2, 36323, Note_on_c, 0, 53, 0
2, 36528, Note_on_c, 0, 70, 64
2, 36556, Note_on_c, 0, 72, 0
2, 36568, Note_on_c, 0, 55, 49
2, 36573, Note_on_c, 0, 77, 0
2, 36582, Control_c, 0, 64, 88
2, 36590, Note_on_c, 0, 43, 39
2, 36597, Control_c, 0, 64, 70
2, 36613, Control_c, 0, 64, 60
2, 36628, Control_c, 0, 64, 0
2, 36783, Note_on_c, 0, 77, 56
2, 36987, Note_on_c, 0, 75, 70
2, 37003, Note_on_c, 0, 77, 0
2, 37180, Note_on_c, 0, 74, 71
2, 37191, Note_on_c, 0, 75, 0
2, 37383, Note_on_c, 0, 75, 77
2, 37417, Note_on_c, 0, 74, 0
2, 37584, Note_on_c, 0, 79, 74
2, 37601, Note_on_c, 0, 75, 0
2, 37737, Note_on_c, 0, 50, 0
2, 37778, Note_on_c, 0, 73, 69
2, 37788, Note_on_c, 0, 79, 0
2, 37879, Control_c, 0, 64, 47
2, 37895, Control_c, 0, 64, 63
2, 37910, Control_c, 0, 64, 65
2, 37925, Control_c, 0, 64, 67
2, 37948, Control_c, 0, 64, 71
2, 37962, Control_c, 0, 64, 75
2, 37978, Control_c, 0, 64, 76
2, 37987, Note_on_c, 0, 74, 68
2, 37988, Note_on_c, 0, 73, 0
2, 37993, Control_c, 0, 64, 75
2, 38008, Control_c, 0, 64, 74
2, 38024, Control_c, 0, 64, 71
2, 38039, Control_c, 0, 64, 67
2, 38055, Control_c, 0, 64, 60
2, 38069, Control_c, 0, 64, 0
2, 38223, Note_on_c, 0, 73, 65
2, 38231, Note_on_c, 0, 70, 0
2, 38241, Note_on_c, 0, 74, 0
2, 38260, Note_on_c, 0, 45, 53
2, 38394, Note_on_c, 0, 43, 0
2, 38447, Note_on_c, 0, 70, 48
2, 38600, Note_on_c, 0, 55, 0
2, 38629, Note_on_c, 0, 70, 0
2, 38638, Note_on_c, 0, 69, 52
2, 38842, Note_on_c, 0, 55, 48
2, 39073, Note_on_c, 0, 69, 0
2, 39074, Note_on_c, 0, 54, 51
2, 39154, Note_on_c, 0, 55, 0
2, 39262, Note_on_c, 0, 69, 45
2, 39294, Control_c, 0, 64, 55
2, 39309, Control_c, 0, 64, 64
2, 39324, Control_c, 0, 64, 66
2, 39339, Control_c, 0, 64, 69
2, 39354, Control_c, 0, 64, 72
2, 39369, Control_c, 0, 64, 74
2, 39385, Control_c, 0, 64, 73
2, 39400, Control_c, 0, 64, 73
2, 39415, Control_c, 0, 64, 71
2, 39430, Control_c, 0, 64, 69
2, 39445, Control_c, 0, 64, 67
2, 39461, Control_c, 0, 64, 64
2, 39468, Note_on_c, 0, 74, 71
2, 39483, Control_c, 0, 64, 58
2, 39499, Control_c, 0, 64, 35
2, 39505, Note_on_c, 0, 53, 45
2, 39514, Control_c, 0, 64, 0
2, 39517, Note_on_c, 0, 73, 0
2, 39523, Note_on_c, 0, 69, 0
2, 39647, Note_on_c, 0, 54, 0
2, 39687, Note_on_c, 0, 68, 51
2, 39901, Note_on_c, 0, 69, 55
2, 39904, Note_on_c, 0, 52, 54
2, 39910, Control_c, 0, 64, 54
2, 39920, Note_on_c, 0, 68, 0
2, 39925, Control_c, 0, 64, 63
2, 39939, Note_on_c, 0, 53, 0
2, 39941, Control_c, 0, 64, 65
2, 39956, Control_c, 0, 64, 69
2, 39971, Control_c, 0, 64, 75
2, 39978, Note_on_c, 0, 74, 0
2, 39986, Control_c, 0, 64, 83
2, 40001, Control_c, 0, 64, 86
2, 40017, Control_c, 0, 64, 84
2, 40032, Control_c, 0, 64, 81
2, 40047, Control_c, 0, 64, 73
2, 40062, Control_c, 0, 64, 65
2, 40077, Control_c, 0, 64, 46
2, 40090, Note_on_c, 0, 74, 69
2, 40092, Control_c, 0, 64, 0
2, 40292, Note_on_c, 0, 73, 73
2, 40307, Note_on_c, 0, 50, 51
2, 40323, Note_on_c, 0, 52, 0
2, 40346, Note_on_c, 0, 74, 0
2, 40480, Note_on_c, 0, 71, 76
2, 40505, Note_on_c, 0, 73, 0
2, 40540, Control_c, 0, 64, 58
2, 40552, Note_on_c, 0, 45, 0
2, 40555, Control_c, 0, 64, 64
2, 40570, Control_c, 0, 64, 67
2, 40586, Control_c, 0, 64, 69
2, 40618, Control_c, 0, 64, 68
2, 40632, Control_c, 0, 64, 66
2, 40647, Control_c, 0, 64, 64
2, 40663, Control_c, 0, 64, 57
2, 40678, Control_c, 0, 64, 0
2, 40681, Note_on_c, 0, 50, 0
2, 40683, Note_on_c, 0, 73, 74
2, 40703, Note_on_c, 0, 45, 41
2, 40704, Note_on_c, 0, 52, 46
2, 40718, Note_on_c, 0, 71, 0
2, 40871, Note_on_c, 0, 74, 76
2, 40895, Note_on_c, 0, 73, 0
2, 41102, Note_on_c, 0, 76, 63
2, 41130, Note_on_c, 0, 57, 49
2, 41130, Note_on_c, 0, 74, 0
2, 41134, Note_on_c, 0, 45, 0
2, 41222, Note_on_c, 0, 52, 0
2, 41280, Note_on_c, 0, 69, 0
2, 41299, Note_on_c, 0, 67, 49
2, 41487, Note_on_c, 0, 67, 0
2, 41506, Note_on_c, 0, 65, 44
2, 41521, Note_on_c, 0, 50, 36
2, 41704, Note_on_c, 0, 69, 66
2, 41717, Note_on_c, 0, 76, 0
2, 41906, Note_on_c, 0, 74, 77
2, 41932, Note_on_c, 0, 58, 46
2, 41936, Note_on_c, 0, 69, 0
2, 42032, Note_on_c, 0, 57, 0
2, 42098, Note_on_c, 0, 73, 79
2, 42143, Note_on_c, 0, 74, 0
2, 42145, Note_on_c, 0, 65, 0
2, 42294, Note_on_c, 0, 74, 81
2, 42322, Note_on_c, 0, 57, 55
2, 42331, Note_on_c, 0, 73, 0
2, 42418, Note_on_c, 0, 58, 0
2, 42490, Note_on_c, 0, 65, 63
2, 42597, Note_on_c, 0, 65, 0
2, 42702, Note_on_c, 0, 70, 70
2, 42707, Note_on_c, 0, 55, 50
2, 42709, Note_on_c, 0, 57, 0
2, 42830, Control_c, 0, 64, 31
2, 42845, Control_c, 0, 64, 64
2, 42858, Note_on_c, 0, 70, 0
2, 42861, Control_c, 0, 64, 71
2, 42876, Control_c, 0, 64, 105
2, 42882, Note_on_c, 0, 76, 84
2, 42890, Control_c, 0, 64, 127
2, 42961, Note_on_c, 0, 74, 0
2, 43010, Note_on_c, 0, 76, 0
2, 43125, Note_on_c, 0, 77, 80
2, 43150, Control_c, 0, 64, 83
2, 43162, Note_on_c, 0, 69, 50
2, 43164, Control_c, 0, 64, 66
2, 43169, Note_on_c, 0, 53, 48
2, 43180, Control_c, 0, 64, 43
2, 43191, Note_on_c, 0, 55, 0
2, 43195, Control_c, 0, 64, 0
2, 43377, Note_on_c, 0, 55, 59
2, 43381, Note_on_c, 0, 53, 0
2, 43554, Note_on_c, 0, 69, 0
2, 43571, Note_on_c, 0, 57, 59
2, 43586, Note_on_c, 0, 55, 0
2, 43597, Control_c, 0, 64, 51
2, 43612, Control_c, 0, 64, 68
2, 43619, Note_on_c, 0, 50, 0
2, 43628, Control_c, 0, 64, 88
2, 43643, Control_c, 0, 64, 127
2, 43719, Control_c, 0, 64, 76
2, 43735, Control_c, 0, 64, 54
2, 43749, Control_c, 0, 64, 0
2, 43756, Note_on_c, 0, 69, 61
2, 43765, Note_on_c, 0, 48, 64
2, 43953, Note_on_c, 0, 74, 79
2, 43958, Note_on_c, 0, 77, 0
2, 43964, Note_on_c, 0, 47, 64
2, 43970, Note_on_c, 0, 48, 0
2, 44143, Note_on_c, 0, 76, 80
2, 44151, Note_on_c, 0, 56, 56
2, 44154, Note_on_c, 0, 74, 0
2, 44164, Note_on_c, 0, 57, 0
2, 44229, Control_c, 0, 64, 64
2, 44237, Note_on_c, 0, 76, 0
2, 44244, Control_c, 0, 64, 76
2, 44260, Control_c, 0, 64, 127
2, 44348, Note_on_c, 0, 77, 86
2, 44350, Control_c, 0, 64, 73
2, 44365, Control_c, 0, 64, 0
2, 44367, Note_on_c, 0, 57, 58
2, 44368, Note_on_c, 0, 56, 0
2, 44432, Note_on_c, 0, 47, 0
2, 44539, Note_on_c, 0, 45, 59
2, 44548, Note_on_c, 0, 74, 67
2, 44556, Note_on_c, 0, 69, 0
2, 44563, Control_c, 0, 64, 48
2, 44579, Control_c, 0, 64, 74
2, 44582, Note_on_c, 0, 57, 0
2, 44593, Control_c, 0, 64, 127
2, 44621, Note_on_c, 0, 74, 0
2, 44628, Note_on_c, 0, 45, 0
2, 44798, Note_on_c, 0, 76, 76
2, 44807, Note_on_c, 0, 44, 54
2, 44837, Control_c, 0, 64, 114
2, 44860, Control_c, 0, 64, 70
2, 44875, Control_c, 0, 64, 29
2, 44890, Control_c, 0, 64, 0
2, 44891, Note_on_c, 0, 77, 0
2, 45019, Note_on_c, 0, 74, 59
2, 45026, Note_on_c, 0, 52, 49
2, 45027, Note_on_c, 0, 44, 0
2, 45215, Note_on_c, 0, 54, 57
2, 45217, Note_on_c, 0, 72, 62
2, 45239, Note_on_c, 0, 52, 0
2, 45242, Note_on_c, 0, 74, 0
2, 45404, Note_on_c, 0, 72, 0
2, 45405, Note_on_c, 0, 71, 62
2, 45416, Note_on_c, 0, 56, 63
2, 45460, Note_on_c, 0, 54, 0
2, 45622, Note_on_c, 0, 71, 0
2, 45627, Note_on_c, 0, 72, 66
2, 45631, Note_on_c, 0, 76, 0
2, 45640, Note_on_c, 0, 57, 59
2, 45661, Note_on_c, 0, 56, 0
2, 45822, Note_on_c, 0, 76, 74
2, 45826, Note_on_c, 0, 48, 56
2, 46010, Note_on_c, 0, 81, 81
2, 46011, Note_on_c, 0, 53, 59
2, 46022, Note_on_c, 0, 48, 0
2, 46044, Note_on_c, 0, 76, 0
2, 46208, Note_on_c, 0, 52, 60
2, 46211, Note_on_c, 0, 80, 81
2, 46232, Note_on_c, 0, 53, 0
2, 46242, Note_on_c, 0, 81, 0
2, 46266, Control_c, 0, 64, 67
2, 46280, Control_c, 0, 64, 91
2, 46285, Note_on_c, 0, 52, 0
2, 46296, Control_c, 0, 64, 127
2, 46441, Note_on_c, 0, 81, 77
2, 46463, Note_on_c, 0, 53, 56
2, 46471, Control_c, 0, 64, 87
2, 46486, Control_c, 0, 64, 65
2, 46496, Note_on_c, 0, 80, 0
2, 46502, Control_c, 0, 64, 0
2, 46546, Note_on_c, 0, 57, 0
2, 46634, Note_on_c, 0, 72, 0
2, 46651, Note_on_c, 0, 73, 52
2, 46665, Note_on_c, 0, 57, 56
2, 46843, Note_on_c, 0, 73, 0
2, 46853, Note_on_c, 0, 74, 65
2, 46856, Note_on_c, 0, 59, 55
2, 46891, Note_on_c, 0, 57, 0
2, 47030, Note_on_c, 0, 74, 0
2, 47036, Note_on_c, 0, 76, 67
2, 47042, Note_on_c, 0, 61, 68
2, 47068, Note_on_c, 0, 59, 0
2, 47248, Note_on_c, 0, 69, 66
2, 47254, Note_on_c, 0, 62, 67
2, 47272, Control_c, 0, 64, 54
2, 47280, Note_on_c, 0, 81, 0
2, 47284, Note_on_c, 0, 76, 0
2, 47287, Control_c, 0, 64, 65
2, 47296, Note_on_c, 0, 61, 0
2, 47299, Note_on_c, 0, 53, 0
2, 47302, Control_c, 0, 64, 69
2, 47317, Control_c, 0, 64, 70
2, 47333, Control_c, 0, 64, 67
2, 47348, Control_c, 0, 64, 64
2, 47363, Control_c, 0, 64, 48
2, 47379, Control_c, 0, 64, 0
2, 47434, Note_on_c, 0, 79, 81
2, 47454, Note_on_c, 0, 52, 63
2, 47627, Note_on_c, 0, 81, 84
2, 47635, Note_on_c, 0, 52, 0
2, 47638, Note_on_c, 0, 53, 65
2, 47661, Note_on_c, 0, 79, 0
2, 47796, Note_on_c, 0, 53, 0
2, 47813, Note_on_c, 0, 81, 0
2, 47819, Control_c, 0, 64, 63
2, 47820, Note_on_c, 0, 50, 66
2, 47825, Note_on_c, 0, 77, 75
2, 47834, Control_c, 0, 64, 75
2, 47850, Control_c, 0, 64, 127
2, 47865, Note_on_c, 0, 50, 0
2, 47891, Note_on_c, 0, 77, 0
2, 48025, Control_c, 0, 64, 109
2, 48040, Control_c, 0, 64, 72
2, 48049, Note_on_c, 0, 74, 73
2, 48056, Control_c, 0, 64, 46
2, 48063, Note_on_c, 0, 58, 56
2, 48071, Control_c, 0, 64, 0
2, 48084, Note_on_c, 0, 69, 0
2, 48113, Note_on_c, 0, 62, 0
2, 48226, Note_on_c, 0, 66, 60
2, 48239, Note_on_c, 0, 62, 50
2, 48415, Note_on_c, 0, 66, 0
2, 48430, Note_on_c, 0, 67, 61
2, 48438, Note_on_c, 0, 64, 61
2, 48492, Note_on_c, 0, 62, 0
2, 48617, Note_on_c, 0, 64, 0
2, 48617, Note_on_c, 0, 69, 65
2, 48622, Note_on_c, 0, 66, 57
2, 48624, Note_on_c, 0, 67, 0
2, 48625, Note_on_c, 0, 74, 0
2, 48649, Control_c, 0, 64, 30
2, 48663, Control_c, 0, 64, 65
2, 48675, Note_on_c, 0, 69, 0
2, 48678, Control_c, 0, 64, 80
2, 48702, Control_c, 0, 64, 127
2, 48810, Control_c, 0, 64, 99
2, 48825, Control_c, 0, 64, 74
2, 48830, Note_on_c, 0, 70, 67
2, 48840, Control_c, 0, 64, 62
2, 48855, Control_c, 0, 64, 0
2, 48857, Note_on_c, 0, 67, 55
2, 48957, Note_on_c, 0, 66, 0
2, 49019, Note_on_c, 0, 77, 71
2, 49215, Note_on_c, 0, 76, 73
2, 49234, Note_on_c, 0, 77, 0
2, 49412, Note_on_c, 0, 79, 76
2, 49419, Note_on_c, 0, 65, 54
2, 49420, Note_on_c, 0, 76, 0
2, 49425, Note_on_c, 0, 67, 0
2, 49641, Note_on_c, 0, 72, 69
2, 49652, Note_on_c, 0, 79, 0
2, 49657, Note_on_c, 0, 64, 49
2, 49659, Note_on_c, 0, 65, 0
2, 49694, Note_on_c, 0, 70, 0
2, 49702, Note_on_c, 0, 58, 0
2, 49840, Note_on_c, 0, 57, 58
2, 50026, Note_on_c, 0, 55, 68
2, 50035, Note_on_c, 0, 70, 68
2, 50073, Note_on_c, 0, 57, 0
2, 50231, Note_on_c, 0, 58, 70
2, 50277, Note_on_c, 0, 55, 0
2, 50391, Note_on_c, 0, 72, 0
2, 50463, Note_on_c, 0, 57, 64
2, 50474, Note_on_c, 0, 70, 0
2, 50499, Note_on_c, 0, 58, 0
2, 50535, Note_on_c, 0, 64, 0
2, 50669, Note_on_c, 0, 60, 63
2, 50671, Note_on_c, 0, 69, 69
2, 50732, Note_on_c, 0, 69, 0
2, 50739, Note_on_c, 0, 60, 0
2, 50745, Note_on_c, 0, 67, 76
2, 50855, Note_on_c, 0, 69, 71
2, 50870, Note_on_c, 0, 65, 52
2, 50882, Note_on_c, 0, 67, 0
2, 51054, Note_on_c, 0, 75, 77
2, 51066, Note_on_c, 0, 69, 0
2, 51078, Note_on_c, 0, 72, 57
2, 51277, Note_on_c, 0, 74, 65
2, 51277, Note_on_c, 0, 75, 0
2, 51298, Note_on_c, 0, 70, 55
2, 51298, Note_on_c, 0, 72, 0
2, 51460, Note_on_c, 0, 55, 68
2, 51484, Note_on_c, 0, 57, 0
2, 51504, Note_on_c, 0, 65, 0
2, 51664, Note_on_c, 0, 53, 65
2, 51703, Note_on_c, 0, 55, 0
2, 51851, Note_on_c, 0, 57, 69
2, 51870, Note_on_c, 0, 53, 0
2, 52011, Note_on_c, 0, 70, 0
2, 52082, Note_on_c, 0, 57, 0
2, 52083, Note_on_c, 0, 58, 62
2, 52096, Note_on_c, 0, 55, 53
2, 52136, Note_on_c, 0, 74, 0
2, 52270, Note_on_c, 0, 77, 78
2, 52292, Control_c, 0, 64, 38
2, 52307, Control_c, 0, 64, 68
2, 52316, Note_on_c, 0, 55, 0
2, 52322, Control_c, 0, 64, 127
2, 52347, Note_on_c, 0, 58, 0
2, 52468, Note_on_c, 0, 70, 71
2, 52470, Note_on_c, 0, 48, 58
2, 52472, Note_on_c, 0, 60, 55
2, 52473, Control_c, 0, 64, 77
2, 52489, Control_c, 0, 64, 63
2, 52504, Control_c, 0, 64, 0
2, 52592, Note_on_c, 0, 70, 0
2, 52665, Note_on_c, 0, 76, 78
2, 52667, Note_on_c, 0, 48, 0
2, 52694, Control_c, 0, 64, 70
2, 52696, Note_on_c, 0, 77, 0
2, 52709, Control_c, 0, 64, 127
2, 52797, Note_on_c, 0, 76, 0
2, 52899, Note_on_c, 0, 77, 78
2, 52908, Control_c, 0, 64, 83
2, 52914, Note_on_c, 0, 53, 50
2, 52922, Control_c, 0, 64, 66
2, 52938, Control_c, 0, 64, 32
2, 52953, Control_c, 0, 64, 0
2, 53098, Note_on_c, 0, 67, 56
2, 53279, Note_on_c, 0, 67, 0
2, 53285, Note_on_c, 0, 69, 64
2, 53479, Note_on_c, 0, 72, 77
2, 53493, Note_on_c, 0, 57, 70
2, 53503, Note_on_c, 0, 60, 0
2, 53508, Note_on_c, 0, 77, 0
2, 53683, Note_on_c, 0, 72, 0
2, 53687, Note_on_c, 0, 77, 82
2, 53692, Note_on_c, 0, 57, 0
2, 53702, Note_on_c, 0, 62, 66
2, 53881, Note_on_c, 0, 69, 0
2, 53884, Note_on_c, 0, 81, 83
2, 53929, Note_on_c, 0, 77, 0
2, 53934, Control_c, 0, 64, 64
2, 53947, Note_on_c, 0, 81, 0
2, 53949, Control_c, 0, 64, 74
2, 53963, Control_c, 0, 64, 101
2, 53979, Control_c, 0, 64, 127
2, 54077, Control_c, 0, 64, 89
2, 54091, Note_on_c, 0, 74, 83
2, 54093, Control_c, 0, 64, 68
2, 54102, Note_on_c, 0, 65, 61
2, 54108, Control_c, 0, 64, 18
2, 54123, Control_c, 0, 64, 0
2, 54280, Note_on_c, 0, 77, 79
2, 54288, Note_on_c, 0, 74, 0
2, 54297, Note_on_c, 0, 65, 0
2, 54477, Note_on_c, 0, 71, 77
2, 54506, Note_on_c, 0, 67, 48
2, 54527, Note_on_c, 0, 77, 0
2, 54530, Note_on_c, 0, 53, 0
2, 54661, Note_on_c, 0, 74, 84
2, 54666, Note_on_c, 0, 53, 63
2, 54697, Note_on_c, 0, 71, 0
2, 54770, Note_on_c, 0, 74, 0
2, 54869, Note_on_c, 0, 79, 86
2, 54872, Note_on_c, 0, 53, 0
2, 54875, Note_on_c, 0, 52, 62
2, 54973, Note_on_c, 0, 67, 0
2, 55054, Note_on_c, 0, 71, 73
2, 55069, Note_on_c, 0, 50, 57
2, 55069, Note_on_c, 0, 52, 0
2, 55104, Control_c, 0, 64, 51
2, 55119, Control_c, 0, 64, 68
2, 55135, Control_c, 0, 64, 84
2, 55149, Control_c, 0, 64, 127
2, 55158, Note_on_c, 0, 71, 0
2, 55245, Note_on_c, 0, 62, 0
2, 55257, Control_c, 0, 64, 103
2, 55271, Control_c, 0, 64, 79
2, 55287, Control_c, 0, 64, 65
2, 55299, Note_on_c, 0, 73, 72
2, 55302, Control_c, 0, 64, 25
2, 55317, Control_c, 0, 64, 0
2, 55329, Note_on_c, 0, 55, 56
2, 55343, Note_on_c, 0, 52, 54
2, 55353, Note_on_c, 0, 50, 0
2, 55354, Note_on_c, 0, 79, 0
2, 55478, Note_on_c, 0, 79, 76
2, 55500, Control_c, 0, 64, 60
2, 55515, Control_c, 0, 64, 74
2, 55523, Note_on_c, 0, 52, 0
2, 55531, Control_c, 0, 64, 127
2, 55543, Note_on_c, 0, 55, 0
2, 55670, Note_on_c, 0, 79, 0
2, 55676, Note_on_c, 0, 73, 0
2, 55689, Note_on_c, 0, 57, 60
2, 55691, Control_c, 0, 64, 112
2, 55691, Note_on_c, 0, 77, 83
2, 55697, Note_on_c, 0, 45, 62
2, 55706, Control_c, 0, 64, 73
2, 55720, Control_c, 0, 64, 57
2, 55736, Control_c, 0, 64, 0
2, 55826, Note_on_c, 0, 45, 0
2, 55883, Note_on_c, 0, 76, 81
2, 55903, Control_c, 0, 64, 46
2, 55903, Note_on_c, 0, 77, 0
2, 55917, Control_c, 0, 64, 65
2, 55933, Control_c, 0, 64, 76
2, 55948, Control_c, 0, 64, 127
2, 55970, Note_on_c, 0, 76, 0
2, 56151, Note_on_c, 0, 77, 81
2, 56178, Control_c, 0, 64, 101
2, 56181, Note_on_c, 0, 50, 47
2, 56181, Note_on_c, 0, 74, 65
2, 56193, Control_c, 0, 64, 74
2, 56209, Control_c, 0, 64, 60
2, 56223, Control_c, 0, 64, 0
2, 56433, Note_on_c, 0, 52, 53
2, 56451, Note_on_c, 0, 57, 0
2, 56618, Note_on_c, 0, 53, 59
2, 56630, Note_on_c, 0, 52, 0
2, 56706, Note_on_c, 0, 72, 71
2, 56792, Note_on_c, 0, 57, 62
2, 56793, Note_on_c, 0, 53, 0
2, 56798, Note_on_c, 0, 72, 0
2, 56801, Note_on_c, 0, 70, 75
2, 56820, Note_on_c, 0, 74, 0
2, 56874, Note_on_c, 0, 70, 0
2, 56879, Note_on_c, 0, 69, 74
2, 57002, Note_on_c, 0, 70, 72
2, 57011, Note_on_c, 0, 62, 58
2, 57025, Note_on_c, 0, 69, 0
2, 57049, Note_on_c, 0, 57, 0
2, 57100, Note_on_c, 0, 77, 0
2, 57201, Note_on_c, 0, 74, 77
2, 57257, Control_c, 0, 64, 12
2, 57272, Control_c, 0, 64, 63
2, 57288, Control_c, 0, 64, 67
2, 57303, Control_c, 0, 64, 73
2, 57315, Note_on_c, 0, 74, 0
2, 57317, Control_c, 0, 64, 77
2, 57333, Control_c, 0, 64, 74
2, 57348, Control_c, 0, 64, 71
2, 57363, Control_c, 0, 64, 66
2, 57379, Control_c, 0, 64, 59
2, 57393, Control_c, 0, 64, 0
2, 57415, Note_on_c, 0, 77, 75
2, 57468, Note_on_c, 0, 70, 0
2, 57529, Control_c, 0, 64, 56
2, 57544, Control_c, 0, 64, 63
2, 57559, Control_c, 0, 64, 58
2, 57575, Control_c, 0, 64, 0
2, 57577, Note_on_c, 0, 62, 0
2, 57599, Note_on_c, 0, 60, 57
2, 57599, Note_on_c, 0, 69, 66
2, 57666, Control_c, 0, 64, 55
2, 57681, Control_c, 0, 64, 69
2, 57697, Control_c, 0, 64, 106
2, 57712, Control_c, 0, 64, 127
2, 57780, Note_on_c, 0, 60, 0
2, 57797, Note_on_c, 0, 69, 0
2, 57804, Control_c, 0, 64, 112
2, 57819, Control_c, 0, 64, 75
2, 57827, Note_on_c, 0, 68, 63
2, 57834, Control_c, 0, 64, 62
2, 57840, Note_on_c, 0, 59, 62
2, 57842, Note_on_c, 0, 77, 0
2, 57850, Control_c, 0, 64, 0
2, 57862, Note_on_c, 0, 50, 0
2, 58018, Note_on_c, 0, 77, 71
2, 58025, Note_on_c, 0, 50, 62
2, 58208, Note_on_c, 0, 48, 72
2, 58208, Note_on_c, 0, 76, 75
2, 58220, Note_on_c, 0, 50, 0
2, 58221, Note_on_c, 0, 68, 0
2, 58223, Note_on_c, 0, 77, 0
2, 58258, Note_on_c, 0, 59, 0
2, 58383, Note_on_c, 0, 47, 71
2, 58395, Note_on_c, 0, 68, 64
2, 58439, Note_on_c, 0, 48, 0
2, 58498, Note_on_c, 0, 68, 0
2, 58598, Note_on_c, 0, 48, 70
2, 58599, Note_on_c, 0, 47, 0
2, 58620, Note_on_c, 0, 69, 60
2, 58804, Note_on_c, 0, 75, 79
2, 58808, Note_on_c, 0, 48, 0
2, 58831, Note_on_c, 0, 76, 0
2, 58995, Note_on_c, 0, 53, 60
2, 59000, Note_on_c, 0, 74, 80
2, 59039, Note_on_c, 0, 75, 0
2, 59182, Note_on_c, 0, 73, 76
2, 59193, Note_on_c, 0, 74, 0
2, 59248, Control_c, 0, 64, 30
2, 59263, Control_c, 0, 64, 70
2, 59278, Control_c, 0, 64, 127
2, 59289, Note_on_c, 0, 73, 0
2, 59409, Note_on_c, 0, 74, 69
2, 59413, Note_on_c, 0, 46, 54
2, 59430, Control_c, 0, 64, 80
2, 59454, Control_c, 0, 64, 64
2, 59457, Note_on_c, 0, 69, 0
2, 59469, Control_c, 0, 64, 0
2, 59473, Note_on_c, 0, 53, 0
2, 59611, Note_on_c, 0, 72, 61
2, 59624, Note_on_c, 0, 50, 49
2, 59799, Note_on_c, 0, 70, 62
2, 59807, Note_on_c, 0, 52, 56
2, 59836, Note_on_c, 0, 72, 0
2, 59850, Note_on_c, 0, 50, 0
2, 59996, Note_on_c, 0, 54, 53
2, 59997, Note_on_c, 0, 69, 59
2, 60000, Note_on_c, 0, 52, 0
2, 60016, Note_on_c, 0, 70, 0
2, 60179, Note_on_c, 0, 54, 0
2, 60190, Note_on_c, 0, 55, 58
2, 60200, Note_on_c, 0, 70, 62
2, 60222, Note_on_c, 0, 69, 0
2, 60381, Note_on_c, 0, 55, 0
2, 60397, Note_on_c, 0, 66, 62
2, 60411, Note_on_c, 0, 57, 52
2, 60497, Note_on_c, 0, 57, 0
2, 60571, Note_on_c, 0, 74, 0
2, 60589, Note_on_c, 0, 67, 64
2, 60601, Note_on_c, 0, 58, 45
2, 60610, Note_on_c, 0, 66, 0
2, 60617, Control_c, 0, 64, 41
2, 60617, Note_on_c, 0, 70, 0
2, 60631, Control_c, 0, 64, 38
2, 60647, Control_c, 0, 64, 27
2, 60662, Control_c, 0, 64, 0
2, 60776, Note_on_c, 0, 74, 74
2, 60781, Note_on_c, 0, 51, 59
2, 60783, Note_on_c, 0, 46, 0
2, 60828, Control_c, 0, 64, 60
2, 60843, Control_c, 0, 64, 65
2, 60852, Note_on_c, 0, 51, 0
2, 60859, Control_c, 0, 64, 70
2, 60874, Control_c, 0, 64, 73
2, 60890, Control_c, 0, 64, 72
2, 60904, Control_c, 0, 64, 70
2, 60919, Control_c, 0, 64, 68
2, 60935, Control_c, 0, 64, 65
2, 60935, Note_on_c, 0, 58, 0
2, 60950, Control_c, 0, 64, 56
2, 60965, Control_c, 0, 64, 0
2, 61009, Note_on_c, 0, 73, 71
2, 61012, Note_on_c, 0, 45, 54
2, 61039, Note_on_c, 0, 74, 0
2, 61141, Control_c, 0, 64, 64
2, 61156, Control_c, 0, 64, 74
2, 61172, Control_c, 0, 64, 127
2, 61199, Note_on_c, 0, 73, 0
2, 61234, Note_on_c, 0, 57, 51
2, 61248, Control_c, 0, 67, 13
2, 61262, Control_c, 0, 67, 25
2, 61277, Control_c, 0, 67, 36
2, 61293, Control_c, 0, 67, 43
2, 61308, Control_c, 0, 67, 46
2, 61323, Control_c, 0, 67, 46
2, 61353, Control_c, 0, 67, 46
2, 61369, Control_c, 0, 67, 45
2, 61384, Control_c, 0, 67, 44
2, 61399, Control_c, 0, 67, 43
2, 61415, Control_c, 0, 67, 43
2, 61430, Control_c, 0, 67, 42
2, 61445, Control_c, 0, 64, 86
2, 61445, Control_c, 0, 67, 42
2, 61451, Note_on_c, 0, 72, 66
2, 61461, Control_c, 0, 64, 69
2, 61461, Control_c, 0, 67, 41
2, 61475, Control_c, 0, 64, 57
2, 61475, Control_c, 0, 67, 41
2, 61479, Note_on_c, 0, 57, 0
2, 61490, Note_on_c, 0, 52, 37
2, 61491, Control_c, 0, 64, 0
2, 61506, Control_c, 0, 67, 40
2, 61513, Note_on_c, 0, 67, 0
2, 61521, Control_c, 0, 67, 40
2, 61537, Control_c, 0, 67, 39
2, 61551, Control_c, 0, 67, 38
2, 61612, Control_c, 0, 67, 39
2, 61629, Note_on_c, 0, 70, 58
2, 61664, Note_on_c, 0, 55, 43
2, 61680, Note_on_c, 0, 52, 0
2, 61822, Note_on_c, 0, 70, 0
2, 61829, Note_on_c, 0, 69, 52
2, 61832, Control_c, 0, 67, 38
2, 61841, Note_on_c, 0, 55, 0
2, 61849, Note_on_c, 0, 54, 52
2, 62000, Control_c, 0, 67, 38
2, 62023, Note_on_c, 0, 69, 0
2, 62025, Note_on_c, 0, 67, 57
2, 62031, Note_on_c, 0, 54, 0
2, 62034, Note_on_c, 0, 55, 52
2, 62061, Control_c, 0, 64, 47
2, 62076, Control_c, 0, 64, 65
2, 62076, Control_c, 0, 67, 37
2, 62083, Note_on_c, 0, 55, 0
2, 62093, Control_c, 0, 64, 75
2, 62107, Control_c, 0, 64, 127
2, 62107, Control_c, 0, 67, 37
2, 62183, Control_c, 0, 64, 85
2, 62198, Control_c, 0, 64, 62
2, 62209, Note_on_c, 0, 67, 0
2, 62214, Control_c, 0, 64, 0
2, 62224, Note_on_c, 0, 66, 60
2, 62243, Note_on_c, 0, 57, 40
2, 62250, Note_on_c, 0, 72, 0
2, 62274, Control_c, 0, 64, 46
2, 62274, Control_c, 0, 67, 37
2, 62290, Control_c, 0, 64, 66
2, 62305, Control_c, 0, 64, 90
2, 62319, Control_c, 0, 64, 127
2, 62319, Note_on_c, 0, 66, 0
2, 62350, Control_c, 0, 67, 37
2, 62364, Note_on_c, 0, 45, 0
2, 62381, Control_c, 0, 64, 83
2, 62381, Control_c, 0, 67, 36
2, 62396, Control_c, 0, 64, 64
2, 62410, Note_on_c, 0, 72, 67
2, 62412, Control_c, 0, 64, 0
2, 62412, Control_c, 0, 67, 36
2, 62420, Note_on_c, 0, 54, 45
2, 62439, Note_on_c, 0, 63, 45
2, 62441, Control_c, 0, 64, 57
2, 62441, Note_on_c, 0, 57, 0
2, 62457, Control_c, 0, 64, 66
2, 62469, Note_on_c, 0, 54, 0
2, 62472, Control_c, 0, 64, 82
2, 62488, Control_c, 0, 64, 127
2, 62503, Note_on_c, 0, 63, 0
2, 62524, Control_c, 0, 67, 35
2, 62540, Control_c, 0, 67, 35
2, 62555, Control_c, 0, 67, 34
2, 62571, Control_c, 0, 64, 88
2, 62571, Control_c, 0, 67, 33
2, 62586, Control_c, 0, 64, 70
2, 62601, Control_c, 0, 64, 58
2, 62608, Note_on_c, 0, 72, 0
2, 62617, Control_c, 0, 64, 0
2, 62617, Control_c, 0, 67, 34
2, 62631, Control_c, 0, 67, 34
2, 62631, Note_on_c, 0, 71, 64
2, 62647, Control_c, 0, 67, 35
2, 62650, Note_on_c, 0, 43, 47
2, 62662, Note_on_c, 0, 62, 58
2, 62677, Control_c, 0, 67, 35
2, 62708, Control_c, 0, 67, 35
2, 62732, Note_on_c, 0, 62, 0
2, 62799, Control_c, 0, 64, 45
2, 62815, Control_c, 0, 64, 65
2, 62815, Control_c, 0, 67, 34
2, 62830, Control_c, 0, 64, 74
2, 62836, Note_on_c, 0, 64, 60
2, 62842, Note_on_c, 0, 55, 51
2, 62845, Control_c, 0, 64, 127
2, 62845, Control_c, 0, 67, 34
2, 62861, Control_c, 0, 67, 33
2, 62893, Note_on_c, 0, 64, 0
2, 62916, Note_on_c, 0, 71, 0
2, 62937, Control_c, 0, 67, 34
2, 62951, Control_c, 0, 67, 34
2, 63013, Control_c, 0, 64, 85
2, 63021, Note_on_c, 0, 55, 0
2, 63027, Control_c, 0, 64, 68
2, 63029, Note_on_c, 0, 70, 64
2, 63042, Control_c, 0, 64, 56
2, 63042, Control_c, 0, 67, 35
2, 63044, Note_on_c, 0, 65, 47
2, 63051, Note_on_c, 0, 50, 45
2, 63058, Control_c, 0, 64, 0
2, 63058, Control_c, 0, 67, 36
2, 63072, Control_c, 0, 67, 36
2, 63088, Control_c, 0, 67, 37
2, 63103, Control_c, 0, 67, 38
2, 63134, Control_c, 0, 67, 39
2, 63179, Control_c, 0, 67, 39
2, 63210, Control_c, 0, 67, 41
2, 63216, Note_on_c, 0, 50, 0
2, 63219, Note_on_c, 0, 65, 0
2, 63225, Control_c, 0, 67, 42
2, 63225, Note_on_c, 0, 69, 53
2, 63232, Note_on_c, 0, 53, 42
2, 63240, Control_c, 0, 67, 43
2, 63256, Control_c, 0, 67, 43
2, 63384, Control_c, 0, 67, 44
2, 63399, Control_c, 0, 67, 45
2, 63415, Control_c, 0, 67, 46
2, 63423, Note_on_c, 0, 53, 0
2, 63435, Note_on_c, 0, 67, 52
2, 63440, Note_on_c, 0, 69, 0
2, 63454, Note_on_c, 0, 52, 40
2, 63552, Control_c, 0, 67, 47
2, 63583, Control_c, 0, 67, 47
2, 63613, Control_c, 0, 67, 46
2, 63628, Control_c, 0, 67, 46
2, 63634, Note_on_c, 0, 65, 53
2, 63638, Note_on_c, 0, 52, 0
2, 63638, Note_on_c, 0, 67, 0
2, 63643, Control_c, 0, 67, 45
2, 63654, Note_on_c, 0, 53, 44
2, 63659, Control_c, 0, 67, 44
2, 63664, Note_on_c, 0, 70, 0
2, 63674, Control_c, 0, 67, 44
2, 63690, Control_c, 0, 64, 63
2, 63690, Control_c, 0, 67, 43
2, 63705, Control_c, 0, 64, 70
2, 63705, Control_c, 0, 67, 42
2, 63717, Note_on_c, 0, 53, 0
2, 63719, Control_c, 0, 64, 83
2, 63719, Control_c, 0, 67, 41
2, 63735, Control_c, 0, 64, 96
2, 63735, Control_c, 0, 67, 41
2, 63750, Control_c, 0, 64, 98
2, 63750, Control_c, 0, 67, 40
2, 63765, Control_c, 0, 64, 95
2, 63765, Control_c, 0, 67, 40
2, 63781, Control_c, 0, 64, 91
2, 63795, Control_c, 0, 64, 87
2, 63811, Control_c, 0, 64, 83
2, 63826, Control_c, 0, 64, 79
2, 63839, Note_on_c, 0, 65, 0
2, 63840, Control_c, 0, 64, 72
2, 63856, Control_c, 0, 64, 63
2, 63856, Control_c, 0, 67, 40
2, 63867, Note_on_c, 0, 64, 51
2, 63871, Control_c, 0, 64, 20
2, 63871, Control_c, 0, 67, 41
2, 63886, Control_c, 0, 64, 0
2, 63890, Note_on_c, 0, 55, 38
2, 63947, Control_c, 0, 67, 41
2, 63962, Control_c, 0, 67, 40
2, 63978, Control_c, 0, 64, 27
2, 63978, Control_c, 0, 67, 40
2, 63992, Control_c, 0, 64, 65
2, 63992, Control_c, 0, 67, 39
2, 64008, Control_c, 0, 64, 86
2, 64023, Control_c, 0, 64, 127
2, 64023, Control_c, 0, 67, 39
2, 64038, Control_c, 0, 67, 38
2, 64061, Control_c, 0, 67, 38
2, 64076, Control_c, 0, 64, 88
2, 64076, Control_c, 0, 67, 37
2, 64092, Control_c, 0, 64, 66
2, 64099, Note_on_c, 0, 70, 53
2, 64100, Note_on_c, 0, 55, 0
2, 64107, Control_c, 0, 64, 0
2, 64120, Note_on_c, 0, 61, 40
2, 64138, Note_on_c, 0, 52, 38
2, 64162, Note_on_c, 0, 64, 0
2, 64168, Control_c, 0, 64, 53
2, 64183, Control_c, 0, 64, 66
2, 64198, Control_c, 0, 64, 80
2, 64213, Control_c, 0, 64, 127
2, 64213, Control_c, 0, 67, 37
2, 64220, Note_on_c, 0, 52, 0
2, 64224, Note_on_c, 0, 43, 0
2, 64228, Control_c, 0, 67, 36
2, 64243, Control_c, 0, 67, 35
2, 64258, Control_c, 0, 67, 35
2, 64265, Note_on_c, 0, 70, 0
2, 64300, Note_on_c, 0, 61, 0
2, 64395, Control_c, 0, 67, 34
2, 64411, Control_c, 0, 67, 34
2, 64457, Note_on_c, 0, 69, 47
2, 64493, Note_on_c, 0, 60, 34
2, 64502, Control_c, 0, 64, 88
2, 64517, Control_c, 0, 64, 72
2, 64533, Control_c, 0, 64, 63
2, 64548, Control_c, 0, 64, 32
2, 64558, Note_on_c, 0, 41, 29
2, 64562, Control_c, 0, 64, 0
2, 64638, Control_c, 0, 67, 34
2, 64752, Note_on_c, 0, 48, 43
2, 64863, Note_on_c, 0, 41, 0
2, 64949, Note_on_c, 0, 48, 0
2, 64951, Note_on_c, 0, 50, 52
2, 65056, Control_c, 0, 67, 34
2, 65155, Note_on_c, 0, 52, 53
2, 65161, Note_on_c, 0, 50, 0
2, 65352, Note_on_c, 0, 53, 62
2, 65357, Note_on_c, 0, 52, 0
2, 65500, Note_on_c, 0, 53, 0
2, 65529, Control_c, 0, 67, 34
2, 65552, Note_on_c, 0, 57, 55
2, 65597, Control_c, 0, 67, 35
2, 65734, Control_c, 0, 67, 35
2, 65756, Note_on_c, 0, 50, 53
2, 65756, Note_on_c, 0, 57, 0
2, 65757, Note_on_c, 0, 65, 45
2, 65780, Note_on_c, 0, 60, 0
2, 65816, Note_on_c, 0, 69, 0
2, 65855, Control_c, 0, 67, 36
2, 65966, Note_on_c, 0, 53, 51
2, 65997, Note_on_c, 0, 50, 0
2, 66195, Note_on_c, 0, 67, 59
2, 66209, Note_on_c, 0, 65, 0
2, 66226, Note_on_c, 0, 47, 47
2, 66370, Note_on_c, 0, 53, 0
2, 66419, Note_on_c, 0, 65, 52
2, 66459, Control_c, 0, 67, 35
2, 66505, Note_on_c, 0, 47, 0
2, 66611, Note_on_c, 0, 65, 0
2, 66612, Note_on_c, 0, 64, 58
2, 66616, Note_on_c, 0, 43, 49
2, 66809, Note_on_c, 0, 62, 62
2, 66809, Note_on_c, 0, 64, 0
2, 66890, Note_on_c, 0, 43, 0
2, 67021, Control_c, 0, 67, 35
2, 67036, Control_c, 0, 67, 34
2, 67036, Note_on_c, 0, 62, 0
2, 67055, Note_on_c, 0, 64, 48
2, 67067, Control_c, 0, 67, 34
2, 67077, Note_on_c, 0, 48, 38
2, 67098, Control_c, 0, 67, 33
2, 67098, Note_on_c, 0, 67, 0
2, 67112, Control_c, 0, 67, 33
2, 67136, Control_c, 0, 67, 32
2, 67151, Control_c, 0, 67, 30
2, 67166, Control_c, 0, 67, 26
2, 67181, Control_c, 0, 67, 17
2, 67196, Control_c, 0, 67, 0
2, 67255, Note_on_c, 0, 67, 62
2, 67452, Note_on_c, 0, 69, 63
2, 67472, Note_on_c, 0, 67, 0
2, 67652, Note_on_c, 0, 72, 66
2, 67678, Note_on_c, 0, 69, 0
2, 67766, Note_on_c, 0, 64, 0
2, 67929, Note_on_c, 0, 65, 60
2, 67941, Note_on_c, 0, 62, 46
2, 67949, Control_c, 0, 67, 19
2, 67965, Control_c, 0, 67, 29
2, 67980, Control_c, 0, 67, 33
2, 67981, Note_on_c, 0, 72, 0
2, 67994, Control_c, 0, 67, 34
2, 68041, Control_c, 0, 67, 34
2, 68056, Control_c, 0, 67, 33
2, 68101, Control_c, 0, 67, 33
2, 68131, Control_c, 0, 67, 32
2, 68140, Note_on_c, 0, 48, 0
2, 68146, Control_c, 0, 67, 32
2, 68146, Note_on_c, 0, 50, 55
2, 68162, Control_c, 0, 67, 31
2, 68192, Control_c, 0, 67, 31
2, 68208, Control_c, 0, 67, 30
2, 68223, Control_c, 0, 67, 30
2, 68225, Note_on_c, 0, 50, 0
2, 68231, Note_on_c, 0, 52, 61
2, 68237, Control_c, 0, 67, 29
2, 68253, Control_c, 0, 67, 29
2, 68268, Control_c, 0, 67, 28
2, 68322, Note_on_c, 0, 52, 0
2, 68326, Note_on_c, 0, 53, 68
2, 68389, Control_c, 0, 67, 28
2, 68399, Note_on_c, 0, 53, 0
2, 68419, Note_on_c, 0, 55, 72
2, 68531, Note_on_c, 0, 57, 70
2, 68538, Note_on_c, 0, 55, 0
2, 68562, Note_on_c, 0, 62, 0
2, 68775, Note_on_c, 0, 47, 61
2, 68801, Note_on_c, 0, 57, 0
2, 68868, Control_c, 0, 67, 28
2, 68926, Note_on_c, 0, 65, 0
2, 68986, Note_on_c, 0, 74, 69
2, 69070, Note_on_c, 0, 74, 0
2, 69071, Note_on_c, 0, 72, 78
2, 69082, Control_c, 0, 67, 29
2, 69128, Control_c, 0, 67, 29
2, 69188, Note_on_c, 0, 74, 74
2, 69219, Control_c, 0, 67, 30
2, 69219, Note_on_c, 0, 55, 40
2, 69219, Note_on_c, 0, 72, 0
2, 69264, Control_c, 0, 67, 31
2, 69281, Control_c, 0, 67, 31
2, 69296, Control_c, 0, 67, 32
2, 69311, Control_c, 0, 67, 33
2, 69356, Control_c, 0, 67, 34
2, 69372, Control_c, 0, 67, 36
2, 69387, Control_c, 0, 67, 37
2, 69402, Control_c, 0, 67, 42
2, 69402, Note_on_c, 0, 65, 59
2, 69408, Note_on_c, 0, 74, 0
2, 69417, Control_c, 0, 67, 53
2, 69439, Control_c, 0, 67, 63
2, 69455, Control_c, 0, 64, 40
2, 69455, Control_c, 0, 67, 71
2, 69470, Control_c, 0, 64, 67
2, 69470, Control_c, 0, 67, 80
2, 69486, Control_c, 0, 64, 86
2, 69486, Control_c, 0, 67, 89
2, 69501, Control_c, 0, 64, 127
2, 69501, Control_c, 0, 67, 96
2, 69513, Note_on_c, 0, 65, 0
2, 69515, Control_c, 0, 67, 99
2, 69516, Note_on_c, 0, 47, 0
2, 69531, Control_c, 0, 67, 100
2, 69577, Control_c, 0, 67, 99
2, 69592, Control_c, 0, 67, 98
2, 69607, Control_c, 0, 67, 97
2, 69622, Control_c, 0, 67, 96
2, 69637, Control_c, 0, 67, 96
2, 69653, Control_c, 0, 67, 95
2, 69668, Control_c, 0, 67, 94
2, 69674, Note_on_c, 0, 64, 60
2, 69683, Control_c, 0, 67, 94
2, 69698, Control_c, 0, 64, 107
2, 69698, Control_c, 0, 67, 93
2, 69713, Control_c, 0, 64, 86
2, 69713, Control_c, 0, 67, 92
2, 69728, Note_on_c, 0, 48, 37
2, 69729, Control_c, 0, 64, 75
2, 69729, Control_c, 0, 67, 92
2, 69744, Control_c, 0, 64, 67
2, 69758, Control_c, 0, 64, 60
2, 69774, Control_c, 0, 64, 0
2, 69789, Control_c, 0, 67, 91
2, 69819, Control_c, 0, 67, 91
2, 69834, Control_c, 0, 67, 90
2, 69850, Control_c, 0, 67, 90
2, 69903, Note_on_c, 0, 62, 48
2, 69941, Control_c, 0, 67, 89
2, 69956, Control_c, 0, 67, 89
2, 69972, Control_c, 0, 67, 88
2, 69986, Control_c, 0, 67, 88
2, 70017, Control_c, 0, 67, 87
2, 70078, Control_c, 0, 67, 88
2, 70092, Note_on_c, 0, 62, 0
2, 70106, Note_on_c, 0, 60, 49
2, 70314, Note_on_c, 0, 59, 49
2, 70336, Note_on_c, 0, 60, 0
2, 70421, Control_c, 0, 67, 87
2, 70522, Note_on_c, 0, 59, 0
2, 70531, Note_on_c, 0, 60, 52
2, 70538, Note_on_c, 0, 64, 0
2, 70617, Control_c, 0, 67, 87
2, 70662, Control_c, 0, 67, 86
2, 70677, Control_c, 0, 67, 86
2, 70693, Control_c, 0, 67, 85
2, 70724, Control_c, 0, 67, 85
2, 70730, Note_on_c, 0, 67, 60
2, 70753, Control_c, 0, 67, 84
2, 70769, Control_c, 0, 67, 84
2, 70783, Control_c, 0, 67, 83
2, 70798, Control_c, 0, 67, 82
2, 70814, Control_c, 0, 67, 81
2, 70829, Control_c, 0, 67, 80
2, 70845, Control_c, 0, 67, 79
2, 70859, Control_c, 0, 67, 77
2, 70874, Control_c, 0, 67, 74
2, 70890, Control_c, 0, 67, 70
2, 70906, Control_c, 0, 67, 66
2, 70922, Control_c, 0, 67, 61
2, 70933, Note_on_c, 0, 69, 66
2, 70934, Note_on_c, 0, 47, 55
2, 70937, Control_c, 0, 67, 55
2, 70950, Note_on_c, 0, 67, 0
2, 70952, Control_c, 0, 67, 51
2, 70974, Control_c, 0, 67, 47
2, 70989, Control_c, 0, 67, 44
2, 71005, Control_c, 0, 67, 42
2, 71020, Control_c, 0, 67, 39
2, 71029, Note_on_c, 0, 48, 0
2, 71035, Control_c, 0, 67, 38
2, 71051, Control_c, 0, 67, 37
2, 71066, Control_c, 0, 67, 36
2, 71082, Control_c, 0, 67, 36
2, 71096, Control_c, 0, 67, 35
2, 71111, Control_c, 0, 67, 35
2, 71124, Note_on_c, 0, 71, 71
2, 71127, Control_c, 0, 67, 34
2, 71142, Control_c, 0, 67, 33
2, 71142, Note_on_c, 0, 69, 0
2, 71157, Control_c, 0, 67, 32
2, 71172, Control_c, 0, 67, 31
2, 71203, Control_c, 0, 67, 31
2, 71203, Note_on_c, 0, 60, 0
2, 71341, Note_on_c, 0, 72, 68
2, 71354, Control_c, 0, 67, 30
2, 71375, Note_on_c, 0, 45, 47
2, 71375, Note_on_c, 0, 71, 0
2, 71409, Note_on_c, 0, 47, 0
2, 71453, Note_on_c, 0, 55, 0
2, 71546, Note_on_c, 0, 69, 56
2, 71651, Note_on_c, 0, 45, 0
2, 71757, Note_on_c, 0, 64, 56
2, 71758, Note_on_c, 0, 57, 60
2, 71764, Note_on_c, 0, 69, 0
2, 71776, Note_on_c, 0, 48, 48
2, 71895, Control_c, 0, 67, 29
2, 71909, Control_c, 0, 67, 26
2, 71925, Control_c, 0, 67, 17
2, 71940, Control_c, 0, 67, 0
2, 71961, Note_on_c, 0, 67, 63
2, 71984, Note_on_c, 0, 64, 0
2, 72037, Note_on_c, 0, 48, 0
2, 72151, Note_on_c, 0, 66, 63
2, 72164, Note_on_c, 0, 67, 0
2, 72176, Note_on_c, 0, 50, 53
2, 72356, Note_on_c, 0, 69, 62
2, 72370, Note_on_c, 0, 66, 0
2, 72401, Note_on_c, 0, 50, 0
2, 72562, Note_on_c, 0, 62, 59
2, 72575, Note_on_c, 0, 54, 54
2, 72582, Note_on_c, 0, 72, 0
2, 72585, Note_on_c, 0, 69, 0
2, 72707, Control_c, 0, 64, 28
2, 72723, Control_c, 0, 64, 56
2, 72732, Note_on_c, 0, 57, 0
2, 72738, Control_c, 0, 64, 60
2, 72753, Control_c, 0, 64, 63
2, 72763, Note_on_c, 0, 72, 77
2, 72769, Control_c, 0, 64, 65
2, 72772, Note_on_c, 0, 54, 0
2, 72784, Control_c, 0, 64, 68
2, 72799, Control_c, 0, 64, 75
2, 72815, Control_c, 0, 64, 84
2, 72830, Control_c, 0, 64, 87
2, 72861, Control_c, 0, 64, 86
2, 72875, Control_c, 0, 64, 85
2, 72891, Control_c, 0, 64, 84
2, 72906, Control_c, 0, 64, 81
2, 72922, Control_c, 0, 64, 79
2, 72937, Control_c, 0, 64, 76
2, 72952, Control_c, 0, 64, 73
2, 72968, Control_c, 0, 64, 68
2, 72983, Control_c, 0, 64, 64
2, 72997, Control_c, 0, 64, 56
2, 73008, Note_on_c, 0, 71, 71
2, 73013, Control_c, 0, 64, 12
2, 73028, Control_c, 0, 64, 0
2, 73031, Note_on_c, 0, 43, 48
2, 73161, Note_on_c, 0, 72, 0
2, 73209, Note_on_c, 0, 50, 61
2, 73235, Note_on_c, 0, 43, 0
2, 73409, Note_on_c, 0, 50, 0
2, 73409, Note_on_c, 0, 52, 66
2, 73594, Note_on_c, 0, 54, 70
2, 73607, Note_on_c, 0, 52, 0
2, 73772, Note_on_c, 0, 62, 0
2, 73791, Note_on_c, 0, 55, 74
2, 73794, Note_on_c, 0, 54, 0
2, 73917, Note_on_c, 0, 71, 0
2, 73941, Note_on_c, 0, 55, 0
2, 73974, Note_on_c, 0, 59, 67
2, 74185, Note_on_c, 0, 73, 71
2, 74187, Note_on_c, 0, 67, 59
2, 74195, Note_on_c, 0, 59, 0
2, 74203, Note_on_c, 0, 52, 54
2, 74269, Note_on_c, 0, 74, 75
2, 74270, Note_on_c, 0, 73, 0
2, 74355, Note_on_c, 0, 52, 0
2, 74373, Note_on_c, 0, 76, 76
2, 74382, Note_on_c, 0, 55, 54
2, 74408, Note_on_c, 0, 74, 0
2, 74443, Control_c, 0, 64, 38
2, 74456, Note_on_c, 0, 76, 0
2, 74458, Control_c, 0, 64, 63
2, 74472, Control_c, 0, 64, 67
2, 74488, Control_c, 0, 64, 73
2, 74503, Control_c, 0, 64, 72
2, 74517, Control_c, 0, 64, 70
2, 74533, Control_c, 0, 64, 67
2, 74548, Control_c, 0, 64, 63
2, 74564, Control_c, 0, 64, 32
2, 74579, Control_c, 0, 64, 0
2, 74595, Note_on_c, 0, 69, 63
2, 74610, Note_on_c, 0, 67, 0
2, 74619, Note_on_c, 0, 49, 48
2, 74714, Note_on_c, 0, 55, 0
2, 74787, Note_on_c, 0, 67, 56
2, 74904, Note_on_c, 0, 49, 0
2, 74988, Note_on_c, 0, 67, 0
2, 74994, Note_on_c, 0, 65, 55
2, 75012, Note_on_c, 0, 45, 46
2, 75193, Note_on_c, 0, 64, 54
2, 75196, Note_on_c, 0, 65, 0
2, 75328, Note_on_c, 0, 45, 0
2, 75405, Note_on_c, 0, 64, 0
2, 75421, Note_on_c, 0, 50, 49
2, 75423, Note_on_c, 0, 65, 54
2, 75467, Note_on_c, 0, 69, 0
2, 75631, Note_on_c, 0, 69, 58
2, 75822, Note_on_c, 0, 70, 67
2, 75823, Note_on_c, 0, 48, 56
2, 75845, Note_on_c, 0, 69, 0
2, 75848, Note_on_c, 0, 50, 0
2, 76008, Note_on_c, 0, 72, 70
2, 76027, Note_on_c, 0, 70, 0
2, 76231, Note_on_c, 0, 72, 0
2, 76245, Note_on_c, 0, 74, 68
2, 76258, Note_on_c, 0, 46, 47
2, 76274, Note_on_c, 0, 48, 0
2, 76315, Note_on_c, 0, 74, 0
2, 76331, Note_on_c, 0, 72, 73
2, 76426, Note_on_c, 0, 70, 72
2, 76428, Note_on_c, 0, 72, 0
2, 76492, Note_on_c, 0, 70, 0
2, 76497, Note_on_c, 0, 69, 68
2, 76603, Note_on_c, 0, 46, 0
2, 76614, Note_on_c, 0, 70, 77
2, 76625, Note_on_c, 0, 69, 0
2, 76627, Note_on_c, 0, 45, 55
2, 76802, Note_on_c, 0, 74, 82
2, 76822, Note_on_c, 0, 70, 0
2, 76862, Note_on_c, 0, 65, 0
2, 77006, Note_on_c, 0, 67, 68
2, 77024, Note_on_c, 0, 46, 51
2, 77025, Note_on_c, 0, 74, 0
2, 77033, Note_on_c, 0, 45, 0
2, 77205, Note_on_c, 0, 77, 70
2, 77385, Note_on_c, 0, 46, 0
2, 77399, Note_on_c, 0, 76, 75
2, 77414, Note_on_c, 0, 43, 51
2, 77429, Note_on_c, 0, 77, 0
2, 77582, Note_on_c, 0, 74, 81
2, 77601, Note_on_c, 0, 76, 0
2, 77650, Control_c, 0, 64, 60
2, 77665, Control_c, 0, 64, 66
2, 77679, Control_c, 0, 64, 78
2, 77683, Note_on_c, 0, 74, 0
2, 77695, Control_c, 0, 64, 127
2, 77833, Note_on_c, 0, 73, 72
2, 77862, Control_c, 0, 64, 109
2, 77876, Note_on_c, 0, 45, 50
2, 77884, Control_c, 0, 64, 78
2, 77900, Control_c, 0, 64, 64
2, 77915, Control_c, 0, 64, 0
2, 77928, Note_on_c, 0, 67, 0
2, 77961, Note_on_c, 0, 43, 0
2, 78069, Note_on_c, 0, 70, 57
2, 78246, Note_on_c, 0, 69, 60
2, 78268, Note_on_c, 0, 70, 0
2, 78439, Note_on_c, 0, 67, 67
2, 78461, Note_on_c, 0, 69, 0
2, 78477, Control_c, 0, 64, 62
2, 78493, Control_c, 0, 64, 70
2, 78505, Note_on_c, 0, 73, 0
2, 78508, Control_c, 0, 64, 92
2, 78523, Control_c, 0, 64, 127
2, 78570, Control_c, 0, 64, 95
2, 78585, Control_c, 0, 64, 77
2, 78599, Control_c, 0, 64, 65
2, 78615, Control_c, 0, 64, 46
2, 78630, Control_c, 0, 64, 0
2, 78656, Note_on_c, 0, 65, 64
2, 78659, Note_on_c, 0, 67, 0
2, 78846, Note_on_c, 0, 69, 67
2, 78954, Note_on_c, 0, 69, 0
2, 79059, Note_on_c, 0, 74, 69
2, 79128, Note_on_c, 0, 65, 0
2, 79248, Note_on_c, 0, 65, 51
2, 79491, Note_on_c, 0, 64, 51
2, 79536, Note_on_c, 0, 65, 0
2, 79658, Note_on_c, 0, 74, 0
2, 79698, Note_on_c, 0, 52, 55
2, 79783, Note_on_c, 0, 45, 0
2, 79879, Note_on_c, 0, 74, 61
2, 79895, Note_on_c, 0, 53, 61
2, 79907, Note_on_c, 0, 52, 0
2, 80083, Note_on_c, 0, 55, 70
2, 80126, Note_on_c, 0, 53, 0
2, 80284, Note_on_c, 0, 57, 72
2, 80284, Note_on_c, 0, 72, 76
2, 80291, Note_on_c, 0, 55, 0
2, 80312, Note_on_c, 0, 74, 0
2, 80480, Note_on_c, 0, 60, 71
2, 80506, Note_on_c, 0, 57, 0
2, 80683, Note_on_c, 0, 70, 75
2, 80685, Note_on_c, 0, 72, 0
2, 80695, Note_on_c, 0, 52, 56
2, 80697, Note_on_c, 0, 64, 0
2, 80709, Note_on_c, 0, 67, 57
2, 80712, Note_on_c, 0, 60, 0
2, 80880, Note_on_c, 0, 55, 68
2, 80881, Note_on_c, 0, 52, 0
2, 80925, Note_on_c, 0, 70, 0
2, 80934, Control_c, 0, 64, 55
2, 80957, Control_c, 0, 64, 65
2, 80973, Control_c, 0, 64, 70
2, 80988, Control_c, 0, 64, 82
2, 81002, Control_c, 0, 64, 127
2, 81089, Note_on_c, 0, 69, 70
2, 81094, Control_c, 0, 64, 90
2, 81098, Note_on_c, 0, 54, 62
2, 81108, Note_on_c, 0, 67, 0
2, 81109, Control_c, 0, 64, 70
2, 81124, Control_c, 0, 64, 45
2, 81137, Note_on_c, 0, 55, 0
2, 81139, Control_c, 0, 64, 0
2, 81281, Note_on_c, 0, 67, 59
2, 81298, Note_on_c, 0, 57, 57
2, 81302, Note_on_c, 0, 54, 0
2, 81489, Note_on_c, 0, 66, 57
2, 81499, Note_on_c, 0, 50, 45
2, 81506, Note_on_c, 0, 67, 0
2, 81519, Note_on_c, 0, 69, 0
2, 81561, Note_on_c, 0, 57, 0
2, 81581, Control_c, 0, 64, 63
2, 81596, Control_c, 0, 64, 65
2, 81627, Control_c, 0, 64, 64
2, 81639, Control_c, 0, 64, 63
2, 81655, Control_c, 0, 64, 61
2, 81670, Control_c, 0, 64, 56
2, 81684, Control_c, 0, 64, 44
2, 81685, Note_on_c, 0, 69, 60
2, 81700, Control_c, 0, 64, 0
2, 81716, Note_on_c, 0, 60, 53
2, 81744, Note_on_c, 0, 50, 0
2, 81757, Note_on_c, 0, 66, 0
2, 81912, Note_on_c, 0, 62, 55
2, 81930, Note_on_c, 0, 55, 48
2, 81962, Note_on_c, 0, 69, 0
2, 81971, Note_on_c, 0, 60, 0
2, 82102, Note_on_c, 0, 69, 48
2, 82120, Note_on_c, 0, 60, 41
2, 82309, Note_on_c, 0, 60, 0
2, 82314, Note_on_c, 0, 67, 50
2, 82322, Note_on_c, 0, 58, 44
2, 82342, Note_on_c, 0, 69, 0
2, 82497, Note_on_c, 0, 58, 0
2, 82509, Note_on_c, 0, 67, 0
2, 82512, Note_on_c, 0, 66, 54
2, 82521, Note_on_c, 0, 57, 52
2, 82709, Note_on_c, 0, 57, 0
2, 82733, Note_on_c, 0, 66, 0
2, 82738, Note_on_c, 0, 62, 0
2, 82748, Note_on_c, 0, 67, 52
2, 82764, Note_on_c, 0, 58, 51
2, 82810, Control_c, 0, 64, 63
2, 82815, Note_on_c, 0, 67, 0
2, 82826, Control_c, 0, 64, 71
2, 82841, Control_c, 0, 64, 101
2, 82857, Control_c, 0, 64, 127
2, 82909, Note_on_c, 0, 55, 0
2, 82958, Note_on_c, 0, 74, 72
2, 83038, Control_c, 0, 64, 105
2, 83053, Control_c, 0, 64, 78
2, 83068, Control_c, 0, 64, 66
2, 83083, Control_c, 0, 64, 43
2, 83099, Control_c, 0, 64, 0
2, 83157, Note_on_c, 0, 76, 74
2, 83165, Note_on_c, 0, 50, 53
2, 83199, Note_on_c, 0, 74, 0
2, 83355, Note_on_c, 0, 78, 81
2, 83373, Note_on_c, 0, 76, 0
2, 83510, Note_on_c, 0, 50, 0
2, 83551, Note_on_c, 0, 79, 84
2, 83557, Note_on_c, 0, 78, 0
2, 83559, Note_on_c, 0, 51, 57
2, 83607, Control_c, 0, 64, 67
2, 83623, Control_c, 0, 64, 114
2, 83638, Control_c, 0, 64, 127
2, 83646, Note_on_c, 0, 79, 0
2, 83744, Control_c, 0, 64, 86
2, 83747, Note_on_c, 0, 82, 84
2, 83759, Control_c, 0, 64, 66
2, 83775, Control_c, 0, 64, 34
2, 83789, Control_c, 0, 64, 0
2, 83957, Note_on_c, 0, 74, 70
2, 83969, Note_on_c, 0, 55, 56
2, 83978, Note_on_c, 0, 51, 0
2, 84162, Note_on_c, 0, 77, 74
2, 84178, Control_c, 0, 64, 47
2, 84181, Note_on_c, 0, 58, 0
2, 84193, Control_c, 0, 64, 65
2, 84200, Note_on_c, 0, 74, 0
2, 84208, Control_c, 0, 64, 77
2, 84224, Control_c, 0, 64, 127
2, 84466, Note_on_c, 0, 75, 72
2, 84488, Note_on_c, 0, 60, 59
2, 84509, Note_on_c, 0, 48, 47
2, 84511, Note_on_c, 0, 77, 0
2, 84530, Note_on_c, 0, 82, 0
2, 84557, Control_c, 0, 64, 84
2, 84572, Control_c, 0, 64, 67
2, 84588, Control_c, 0, 64, 18
2, 84603, Control_c, 0, 64, 0
2, 84677, Note_on_c, 0, 55, 0
2, 84752, Note_on_c, 0, 82, 55
2, 84953, Note_on_c, 0, 80, 64
2, 84990, Note_on_c, 0, 82, 0
2, 85141, Note_on_c, 0, 79, 75
2, 85153, Note_on_c, 0, 80, 0
2, 85335, Note_on_c, 0, 80, 75
2, 85351, Note_on_c, 0, 79, 0
2, 85523, Note_on_c, 0, 84, 72
2, 85531, Note_on_c, 0, 80, 0
2, 85733, Note_on_c, 0, 78, 75
2, 85756, Note_on_c, 0, 84, 0
2, 85907, Note_on_c, 0, 80, 71
2, 85937, Note_on_c, 0, 79, 80
2, 85939, Note_on_c, 0, 78, 0
2, 86058, Note_on_c, 0, 80, 0
2, 86120, Note_on_c, 0, 78, 78
2, 86143, Note_on_c, 0, 79, 0
2, 86147, Note_on_c, 0, 75, 0
2, 86150, Note_on_c, 0, 50, 64
2, 86205, Note_on_c, 0, 48, 0
2, 86345, Note_on_c, 0, 75, 63
2, 86491, Note_on_c, 0, 60, 0
2, 86556, Note_on_c, 0, 74, 58
2, 86562, Note_on_c, 0, 75, 0
2, 86740, Note_on_c, 0, 60, 55
2, 86947, Note_on_c, 0, 60, 0
2, 86956, Note_on_c, 0, 59, 55
2, 87002, Note_on_c, 0, 74, 0
2, 87146, Note_on_c, 0, 74, 60
2, 87355, Note_on_c, 0, 79, 77
2, 87378, Note_on_c, 0, 58, 45
2, 87403, Note_on_c, 0, 74, 0
2, 87406, Note_on_c, 0, 78, 0
2, 87469, Note_on_c, 0, 59, 0
2, 87552, Note_on_c, 0, 73, 57
2, 87757, Note_on_c, 0, 74, 57
2, 87759, Note_on_c, 0, 73, 0
2, 87768, Note_on_c, 0, 57, 47
2, 87828, Note_on_c, 0, 79, 0
2, 87866, Note_on_c, 0, 58, 0
2, 87953, Note_on_c, 0, 79, 75
2, 88152, Note_on_c, 0, 78, 81
2, 88159, Note_on_c, 0, 55, 54
2, 88179, Note_on_c, 0, 57, 0
2, 88210, Note_on_c, 0, 79, 0
2, 88342, Note_on_c, 0, 76, 78
2, 88353, Control_c, 0, 64, 46
2, 88367, Control_c, 0, 64, 63
2, 88368, Note_on_c, 0, 78, 0
2, 88383, Control_c, 0, 64, 65
2, 88398, Control_c, 0, 64, 68
2, 88413, Control_c, 0, 64, 70
2, 88428, Control_c, 0, 64, 70
2, 88432, Note_on_c, 0, 50, 0
2, 88443, Control_c, 0, 64, 68
2, 88459, Control_c, 0, 64, 66
2, 88474, Control_c, 0, 64, 63
2, 88489, Control_c, 0, 64, 46
2, 88504, Control_c, 0, 64, 0
2, 88546, Note_on_c, 0, 78, 83
2, 88569, Note_on_c, 0, 50, 36
2, 88575, Note_on_c, 0, 57, 53
2, 88579, Note_on_c, 0, 55, 0
2, 88589, Note_on_c, 0, 76, 0
2, 88738, Note_on_c, 0, 79, 81
2, 88760, Note_on_c, 0, 78, 0
2, 88954, Note_on_c, 0, 81, 71
2, 88979, Note_on_c, 0, 79, 0
2, 88990, Note_on_c, 0, 62, 46
2, 89065, Note_on_c, 0, 50, 0
2, 89074, Note_on_c, 0, 57, 0
2, 89126, Note_on_c, 0, 74, 0
2, 89149, Note_on_c, 0, 72, 42
2, 89166, Control_c, 0, 64, 33
2, 89182, Control_c, 0, 64, 63
2, 89194, Note_on_c, 0, 72, 0
2, 89197, Control_c, 0, 64, 69
2, 89211, Control_c, 0, 64, 84
2, 89227, Control_c, 0, 64, 127
2, 89287, Control_c, 0, 64, 118
2, 89303, Control_c, 0, 64, 92
2, 89318, Control_c, 0, 64, 77
2, 89333, Control_c, 0, 64, 65
2, 89348, Control_c, 0, 64, 50
2, 89358, Note_on_c, 0, 70, 43
2, 89363, Control_c, 0, 64, 0
2, 89391, Note_on_c, 0, 55, 41
2, 89529, Note_on_c, 0, 70, 0
2, 89555, Note_on_c, 0, 74, 64
2, 89732, Note_on_c, 0, 74, 0
2, 89738, Note_on_c, 0, 79, 75
2, 89751, Note_on_c, 0, 72, 64
2, 89760, Note_on_c, 0, 81, 0
2, 89777, Note_on_c, 0, 63, 51
2, 89885, Note_on_c, 0, 62, 0
2, 89940, Note_on_c, 0, 78, 82
2, 89968, Note_on_c, 0, 79, 0
2, 89973, Note_on_c, 0, 72, 0
2, 90138, Note_on_c, 0, 79, 85
2, 90152, Note_on_c, 0, 62, 56
2, 90176, Note_on_c, 0, 78, 0
2, 90220, Note_on_c, 0, 63, 0
2, 90345, Note_on_c, 0, 70, 62
2, 90433, Note_on_c, 0, 70, 0
2, 90518, Note_on_c, 0, 62, 0
2, 90540, Note_on_c, 0, 75, 70
2, 90541, Note_on_c, 0, 60, 52
2, 90689, Note_on_c, 0, 75, 0
2, 90718, Note_on_c, 0, 81, 82
2, 90732, Control_c, 0, 64, 27
2, 90748, Control_c, 0, 64, 62
2, 90763, Control_c, 0, 64, 67
2, 90766, Note_on_c, 0, 79, 0
2, 90779, Control_c, 0, 64, 80
2, 90794, Control_c, 0, 64, 127
2, 90882, Note_on_c, 0, 60, 0
2, 90967, Control_c, 0, 64, 96
2, 90970, Note_on_c, 0, 82, 83
2, 90983, Control_c, 0, 64, 72
2, 90998, Control_c, 0, 64, 60
2, 91011, Note_on_c, 0, 81, 0
2, 91013, Control_c, 0, 64, 0
2, 91013, Note_on_c, 0, 74, 49
2, 91032, Note_on_c, 0, 58, 40
2, 91221, Note_on_c, 0, 60, 56
2, 91247, Note_on_c, 0, 58, 0
2, 91345, Note_on_c, 0, 74, 0
2, 91416, Note_on_c, 0, 62, 67
2, 91425, Control_c, 0, 64, 63
2, 91438, Note_on_c, 0, 60, 0
2, 91440, Control_c, 0, 64, 73
2, 91456, Control_c, 0, 64, 97
2, 91470, Control_c, 0, 64, 108
2, 91470, Note_on_c, 0, 55, 0
2, 91485, Control_c, 0, 64, 88
2, 91501, Control_c, 0, 64, 73
2, 91515, Control_c, 0, 64, 64
2, 91530, Control_c, 0, 64, 0
2, 91607, Note_on_c, 0, 53, 60
2, 91608, Note_on_c, 0, 74, 73
2, 91808, Note_on_c, 0, 79, 77
2, 91813, Note_on_c, 0, 82, 0
2, 91820, Note_on_c, 0, 52, 61
2, 91842, Note_on_c, 0, 53, 0
2, 91983, Note_on_c, 0, 81, 83
2, 92000, Note_on_c, 0, 79, 0
2, 92001, Note_on_c, 0, 61, 58
2, 92030, Note_on_c, 0, 62, 0
2, 92115, Note_on_c, 0, 81, 0
2, 92188, Note_on_c, 0, 82, 85
2, 92210, Note_on_c, 0, 62, 61
2, 92247, Note_on_c, 0, 61, 0
2, 92268, Note_on_c, 0, 52, 0
2, 92314, Control_c, 0, 64, 64
2, 92329, Control_c, 0, 64, 75
2, 92345, Control_c, 0, 64, 127
2, 92381, Note_on_c, 0, 50, 60
2, 92393, Note_on_c, 0, 79, 73
2, 92441, Note_on_c, 0, 62, 0
2, 92443, Note_on_c, 0, 74, 0
2, 92475, Note_on_c, 0, 50, 0
2, 92477, Note_on_c, 0, 82, 0
2, 92479, Note_on_c, 0, 79, 0
2, 92650, Note_on_c, 0, 81, 84
2, 92657, Note_on_c, 0, 49, 54
2, 92686, Control_c, 0, 64, 82
2, 92702, Control_c, 0, 64, 60
2, 92716, Control_c, 0, 64, 0
2, 92875, Note_on_c, 0, 79, 67
2, 92876, Note_on_c, 0, 57, 55
2, 92909, Note_on_c, 0, 49, 0
2, 93061, Note_on_c, 0, 57, 0
2, 93061, Note_on_c, 0, 59, 62
2, 93066, Note_on_c, 0, 77, 64
2, 93083, Note_on_c, 0, 79, 0
2, 93264, Note_on_c, 0, 76, 66
2, 93271, Note_on_c, 0, 61, 68
2, 93273, Note_on_c, 0, 77, 0
2, 93284, Note_on_c, 0, 59, 0
2, 93458, Note_on_c, 0, 77, 66
2, 93467, Note_on_c, 0, 62, 59
2, 93472, Note_on_c, 0, 61, 0
2, 93486, Note_on_c, 0, 76, 0
2, 93645, Note_on_c, 0, 62, 0
2, 93662, Note_on_c, 0, 57, 61
2, 93857, Note_on_c, 0, 50, 67
2, 93878, Note_on_c, 0, 57, 0
2, 94039, Note_on_c, 0, 81, 0
2, 94049, Note_on_c, 0, 80, 79
2, 94057, Note_on_c, 0, 50, 0
2, 94062, Note_on_c, 0, 53, 59
2, 94071, Control_c, 0, 64, 45
2, 94086, Control_c, 0, 64, 77
2, 94102, Control_c, 0, 64, 127
2, 94168, Note_on_c, 0, 80, 0
2, 94254, Control_c, 0, 64, 103
2, 94269, Control_c, 0, 64, 74
2, 94275, Note_on_c, 0, 79, 80
2, 94284, Control_c, 0, 64, 56
2, 94286, Note_on_c, 0, 47, 51
2, 94300, Control_c, 0, 64, 0
2, 94300, Control_c, 0, 67, 11
2, 94310, Note_on_c, 0, 53, 0
2, 94314, Control_c, 0, 67, 18
2, 94329, Control_c, 0, 67, 22
2, 94333, Note_on_c, 0, 77, 0
2, 94344, Control_c, 0, 67, 25
2, 94359, Control_c, 0, 67, 25
2, 94404, Control_c, 0, 67, 25
2, 94420, Control_c, 0, 67, 23
2, 94435, Control_c, 0, 67, 22
2, 94450, Control_c, 0, 67, 21
2, 94453, Note_on_c, 0, 47, 0
2, 94462, Note_on_c, 0, 77, 62
2, 94463, Note_on_c, 0, 55, 61
2, 94466, Control_c, 0, 67, 20
2, 94480, Control_c, 0, 67, 20
2, 94496, Control_c, 0, 67, 19
2, 94526, Control_c, 0, 67, 19
2, 94542, Control_c, 0, 67, 18
2, 94557, Control_c, 0, 67, 18
2, 94633, Control_c, 0, 67, 17
2, 94650, Note_on_c, 0, 76, 65
2, 94654, Note_on_c, 0, 57, 67
2, 94661, Note_on_c, 0, 55, 0
2, 94672, Note_on_c, 0, 77, 0
2, 94853, Note_on_c, 0, 59, 63
2, 94853, Note_on_c, 0, 74, 68
2, 94858, Note_on_c, 0, 57, 0
2, 94858, Note_on_c, 0, 76, 0
2, 94978, Control_c, 0, 67, 17
2, 95049, Note_on_c, 0, 76, 59
2, 95067, Note_on_c, 0, 60, 50
2, 95069, Control_c, 0, 67, 16
2, 95074, Note_on_c, 0, 59, 0
2, 95082, Note_on_c, 0, 74, 0
2, 95244, Note_on_c, 0, 60, 0
2, 95251, Note_on_c, 0, 55, 67
2, 95311, Control_c, 0, 67, 17
2, 95419, Control_c, 0, 67, 17
2, 95440, Note_on_c, 0, 48, 67
2, 95449, Note_on_c, 0, 55, 0
2, 95479, Control_c, 0, 67, 18
2, 95495, Control_c, 0, 67, 18
2, 95510, Control_c, 0, 67, 19
2, 95541, Note_on_c, 0, 79, 0
2, 95579, Control_c, 0, 67, 19
2, 95593, Control_c, 0, 67, 20
2, 95641, Note_on_c, 0, 79, 83
2, 95642, Note_on_c, 0, 48, 0
2, 95651, Note_on_c, 0, 52, 62
2, 95776, Control_c, 0, 67, 19
2, 95853, Control_c, 0, 67, 19
2, 95897, Control_c, 0, 67, 18
2, 95908, Note_on_c, 0, 78, 80
2, 95925, Note_on_c, 0, 45, 58
2, 95926, Control_c, 0, 67, 18
2, 95942, Control_c, 0, 67, 17
2, 95961, Note_on_c, 0, 79, 0
2, 95984, Note_on_c, 0, 76, 0
2, 95997, Note_on_c, 0, 52, 0
2, 96033, Control_c, 0, 67, 17
2, 96109, Control_c, 0, 67, 16
2, 96149, Note_on_c, 0, 75, 63
2, 96186, Control_c, 0, 67, 16
2, 96231, Control_c, 0, 67, 15
2, 96262, Control_c, 0, 67, 15
2, 96315, Control_c, 0, 67, 14
2, 96331, Control_c, 0, 67, 14
2, 96345, Note_on_c, 0, 74, 75
2, 96348, Note_on_c, 0, 75, 0
2, 96351, Note_on_c, 0, 57, 69
2, 96361, Control_c, 0, 67, 13
2, 96391, Control_c, 0, 67, 13
2, 96422, Control_c, 0, 67, 12
2, 96436, Control_c, 0, 67, 12
2, 96467, Control_c, 0, 67, 11
2, 96482, Control_c, 0, 67, 11
2, 96513, Control_c, 0, 67, 9
2, 96522, Note_on_c, 0, 45, 0
2, 96526, Note_on_c, 0, 72, 78
2, 96529, Control_c, 0, 67, 0
2, 96530, Note_on_c, 0, 74, 0
2, 96589, Control_c, 0, 64, 44
2, 96604, Control_c, 0, 64, 52
2, 96620, Control_c, 0, 64, 47
2, 96635, Control_c, 0, 64, 32
2, 96638, Note_on_c, 0, 78, 0
2, 96650, Control_c, 0, 64, 0
2, 96730, Note_on_c, 0, 74, 83
2, 96737, Note_on_c, 0, 47, 61
2, 96765, Note_on_c, 0, 72, 0
2, 96782, Note_on_c, 0, 57, 0
2, 96914, Note_on_c, 0, 76, 83
2, 96917, Note_on_c, 0, 55, 66
2, 96938, Note_on_c, 0, 74, 0
2, 97161, Note_on_c, 0, 77, 80
2, 97195, Note_on_c, 0, 50, 56
2, 97199, Note_on_c, 0, 67, 59
2, 97219, Note_on_c, 0, 76, 0
2, 97280, Note_on_c, 0, 55, 0
2, 97379, Note_on_c, 0, 47, 0
2, 97390, Note_on_c, 0, 53, 62
2, 97426, Note_on_c, 0, 50, 0
2, 97577, Note_on_c, 0, 52, 60
2, 97581, Note_on_c, 0, 48, 56
2, 97586, Note_on_c, 0, 53, 0
2, 97774, Note_on_c, 0, 53, 73
2, 97812, Note_on_c, 0, 52, 0
2, 97965, Note_on_c, 0, 77, 0
2, 97966, Note_on_c, 0, 76, 80
2, 97973, Note_on_c, 0, 67, 0
2, 97981, Note_on_c, 0, 72, 71
2, 97993, Note_on_c, 0, 55, 48
2, 98024, Note_on_c, 0, 53, 0
2, 98155, Note_on_c, 0, 72, 0
2, 98155, Note_on_c, 0, 74, 83
2, 98183, Note_on_c, 0, 71, 52
2, 98188, Note_on_c, 0, 76, 0
2, 98386, Note_on_c, 0, 76, 73
2, 98400, Note_on_c, 0, 72, 73
2, 98422, Note_on_c, 0, 71, 0
2, 98424, Note_on_c, 0, 74, 0
2, 98635, Note_on_c, 0, 52, 57
2, 98673, Note_on_c, 0, 48, 0
2, 98839, Note_on_c, 0, 70, 73
2, 98854, Note_on_c, 0, 45, 57
2, 98876, Note_on_c, 0, 55, 0
2, 98882, Note_on_c, 0, 72, 0
2, 98931, Note_on_c, 0, 52, 0
2, 99070, Note_on_c, 0, 48, 65
2, 99116, Note_on_c, 0, 45, 0
2, 99151, Control_c, 0, 64, 64
2, 99166, Control_c, 0, 64, 80
2, 99182, Control_c, 0, 64, 127
2, 99364, Control_c, 0, 64, 90
2, 99369, Note_on_c, 0, 69, 67
2, 99387, Control_c, 0, 64, 71
2, 99391, Note_on_c, 0, 41, 57
2, 99402, Control_c, 0, 64, 62
2, 99418, Control_c, 0, 64, 0
2, 99419, Note_on_c, 0, 70, 0
2, 99430, Note_on_c, 0, 76, 0
2, 99437, Note_on_c, 0, 48, 0
2, 99639, Note_on_c, 0, 76, 65
2, 99643, Note_on_c, 0, 48, 59
2, 99727, Note_on_c, 0, 41, 0
2, 99836, Note_on_c, 0, 50, 63
2, 99840, Note_on_c, 0, 74, 76
2, 99883, Note_on_c, 0, 48, 0
2, 99886, Note_on_c, 0, 76, 0
2, 100023, Note_on_c, 0, 72, 82
2, 100026, Note_on_c, 0, 50, 0
2, 100027, Note_on_c, 0, 52, 63
2, 100036, Note_on_c, 0, 74, 0
2, 100226, Note_on_c, 0, 74, 84
2, 100229, Note_on_c, 0, 53, 65
2, 100257, Note_on_c, 0, 72, 0
2, 100262, Note_on_c, 0, 52, 0
2, 100411, Note_on_c, 0, 77, 79
2, 100412, Note_on_c, 0, 57, 68
2, 100414, Note_on_c, 0, 74, 0
2, 100489, Note_on_c, 0, 69, 0
2, 100598, Note_on_c, 0, 57, 0
2, 100621, Note_on_c, 0, 81, 84
2, 100634, Note_on_c, 0, 62, 63
2, 100663, Note_on_c, 0, 77, 0
2, 100816, Note_on_c, 0, 72, 83
2, 100822, Control_c, 0, 64, 63
2, 100831, Note_on_c, 0, 69, 64
2, 100837, Control_c, 0, 64, 72
2, 100843, Note_on_c, 0, 81, 0
2, 100852, Control_c, 0, 64, 115
2, 100868, Control_c, 0, 64, 127
2, 100930, Note_on_c, 0, 72, 0
2, 100978, Note_on_c, 0, 69, 0
2, 101080, Note_on_c, 0, 71, 79
2, 101103, Control_c, 0, 64, 81
2, 101110, Note_on_c, 0, 67, 61
2, 101118, Control_c, 0, 64, 64
2, 101133, Control_c, 0, 64, 0
2, 101180, Note_on_c, 0, 62, 0
2, 101286, Note_on_c, 0, 57, 60
2, 101317, Note_on_c, 0, 53, 0
2, 101442, Note_on_c, 0, 67, 0
2, 101475, Note_on_c, 0, 55, 71
2, 101491, Note_on_c, 0, 57, 0
2, 101666, Note_on_c, 0, 53, 75
2, 101701, Note_on_c, 0, 55, 0
2, 101863, Note_on_c, 0, 72, 88
2, 101888, Note_on_c, 0, 67, 61
2, 101894, Note_on_c, 0, 71, 0
2, 101897, Note_on_c, 0, 52, 66
2, 101901, Note_on_c, 0, 64, 57
2, 101910, Note_on_c, 0, 53, 0
2, 102071, Note_on_c, 0, 52, 0
2, 102072, Note_on_c, 0, 55, 66
2, 102284, Note_on_c, 0, 48, 65
2, 102372, Note_on_c, 0, 55, 0
2, 102515, Note_on_c, 0, 52, 66
2, 102578, Note_on_c, 0, 48, 0
2, 102657, Note_on_c, 0, 67, 0
2, 102809, Note_on_c, 0, 43, 64
2, 102852, Note_on_c, 0, 64, 0
2, 102904, Note_on_c, 0, 52, 0
2, 103033, Note_on_c, 0, 67, 59
2, 103060, Note_on_c, 0, 52, 45
2, 103066, Control_c, 0, 67, 8
2, 103081, Control_c, 0, 67, 15
2, 103097, Control_c, 0, 67, 20
2, 103111, Control_c, 0, 67, 23
2, 103126, Control_c, 0, 67, 25
2, 103142, Control_c, 0, 67, 26
2, 103156, Control_c, 0, 67, 27
2, 103256, Control_c, 0, 67, 26
2, 103268, Note_on_c, 0, 65, 64
2, 103271, Control_c, 0, 67, 26
2, 103275, Note_on_c, 0, 50, 49
2, 103275, Note_on_c, 0, 52, 0
2, 103301, Note_on_c, 0, 67, 0
2, 103347, Control_c, 0, 67, 25
2, 103362, Control_c, 0, 67, 25
2, 103377, Control_c, 0, 67, 24
2, 103452, Control_c, 0, 67, 23
2, 103468, Control_c, 0, 67, 23
2, 103496, Note_on_c, 0, 64, 59
2, 103497, Note_on_c, 0, 48, 52
2, 103498, Control_c, 0, 67, 22
2, 103502, Note_on_c, 0, 65, 0
2, 103526, Note_on_c, 0, 50, 0
2, 103574, Control_c, 0, 67, 22
2, 103650, Control_c, 0, 67, 21
2, 103682, Control_c, 0, 67, 21
2, 103746, Note_on_c, 0, 62, 60
2, 103764, Note_on_c, 0, 55, 49
2, 103769, Note_on_c, 0, 64, 0
2, 103805, Note_on_c, 0, 48, 0
2, 103865, Control_c, 0, 67, 20
2, 103894, Control_c, 0, 67, 20
2, 103940, Control_c, 0, 67, 19
2, 104021, Note_on_c, 0, 64, 52
2, 104047, Note_on_c, 0, 62, 0
2, 104100, Control_c, 0, 67, 19
2, 104145, Control_c, 0, 67, 18
2, 104206, Control_c, 0, 67, 18
2, 104222, Control_c, 0, 67, 17
2, 104237, Control_c, 0, 67, 17
2, 104267, Control_c, 0, 67, 16
2, 104328, Control_c, 0, 67, 16
2, 104334, Note_on_c, 0, 65, 55
2, 104355, Note_on_c, 0, 64, 0
2, 104434, Control_c, 0, 67, 16
2, 104465, Control_c, 0, 67, 17
2, 104480, Control_c, 0, 67, 17
2, 104497, Control_c, 0, 67, 18
2, 104571, Control_c, 0, 67, 18
2, 104643, Note_on_c, 0, 71, 64
2, 104678, Control_c, 0, 64, 39
2, 104684, Note_on_c, 0, 72, 0
2, 104693, Control_c, 0, 64, 66
2, 104709, Control_c, 0, 64, 93
2, 104713, Note_on_c, 0, 43, 0
2, 104724, Control_c, 0, 64, 127
2, 104739, Control_c, 0, 67, 18
2, 104807, Control_c, 0, 67, 17
2, 104883, Control_c, 0, 67, 17
2, 104899, Control_c, 0, 67, 16
2, 105163, Note_on_c, 0, 72, 68
2, 105191, Note_on_c, 0, 48, 51
2, 105217, Control_c, 0, 64, 85
2, 105232, Control_c, 0, 64, 59
2, 105232, Control_c, 0, 67, 17
2, 105247, Control_c, 0, 64, 0
2, 105247, Control_c, 0, 67, 17
2, 105262, Control_c, 0, 67, 18
2, 105267, Note_on_c, 0, 71, 0
2, 105273, Note_on_c, 0, 65, 0
2, 105277, Control_c, 0, 67, 20
2, 105292, Control_c, 0, 67, 20
2, 105308, Control_c, 0, 67, 21
2, 105324, Control_c, 0, 67, 22
2, 105340, Control_c, 0, 67, 24
2, 105355, Control_c, 0, 67, 26
2, 105369, Control_c, 0, 67, 27
2, 105385, Control_c, 0, 67, 28
2, 105400, Control_c, 0, 67, 30
2, 105414, Control_c, 0, 67, 32
2, 105430, Control_c, 0, 67, 42
2, 105445, Control_c, 0, 67, 56
2, 105461, Control_c, 0, 67, 78
2, 105476, Control_c, 0, 67, 99
2, 105491, Control_c, 0, 67, 115
2, 105506, Control_c, 0, 67, 125
2, 105529, Control_c, 0, 67, 127
2, 105647, Note_on_c, 0, 65, 50
2, 105870, Note_on_c, 0, 64, 55
2, 105884, Note_on_c, 0, 65, 0
2, 106081, Note_on_c, 0, 62, 57
2, 106091, Note_on_c, 0, 64, 0
2, 106290, Note_on_c, 0, 62, 0
2, 106299, Note_on_c, 0, 64, 55
2, 106499, Note_on_c, 0, 67, 52
2, 106534, Note_on_c, 0, 64, 0
2, 106718, Note_on_c, 0, 60, 49
2, 106724, Note_on_c, 0, 67, 0
2, 106943, Note_on_c, 0, 64, 50
2, 106968, Note_on_c, 0, 60, 0
2, 107186, Note_on_c, 0, 64, 0
2, 107218, Control_c, 0, 64, 44
2, 107225, Note_on_c, 0, 57, 46
2, 107233, Control_c, 0, 64, 54
2, 107247, Control_c, 0, 64, 59
2, 107262, Note_on_c, 0, 72, 0
2, 107263, Control_c, 0, 64, 62
2, 107278, Control_c, 0, 64, 64
2, 107293, Control_c, 0, 64, 65
2, 107309, Control_c, 0, 64, 66
2, 107323, Control_c, 0, 64, 67
2, 107339, Control_c, 0, 64, 66
2, 107354, Control_c, 0, 64, 65
2, 107364, Note_on_c, 0, 55, 0
2, 107369, Control_c, 0, 64, 64
2, 107385, Control_c, 0, 64, 63
2, 107400, Control_c, 0, 64, 60
2, 107416, Control_c, 0, 64, 53
2, 107431, Control_c, 0, 64, 20
2, 107445, Control_c, 0, 64, 0
2, 107454, Note_on_c, 0, 72, 57
2, 107673, Note_on_c, 0, 74, 65
2, 107682, Note_on_c, 0, 53, 38
2, 107705, Note_on_c, 0, 72, 0
2, 107886, Note_on_c, 0, 76, 63
2, 107902, Note_on_c, 0, 52, 43
2, 107905, Note_on_c, 0, 53, 0
2, 107930, Note_on_c, 0, 74, 0
2, 108080, Note_on_c, 0, 52, 0
2, 108089, Note_on_c, 0, 77, 71
2, 108108, Note_on_c, 0, 50, 45
2, 108111, Note_on_c, 0, 76, 0
2, 108290, Note_on_c, 0, 81, 71
2, 108309, Note_on_c, 0, 52, 45
2, 108310, Note_on_c, 0, 50, 0
2, 108318, Note_on_c, 0, 77, 0
2, 108514, Note_on_c, 0, 74, 68
2, 108532, Note_on_c, 0, 81, 0
2, 108534, Note_on_c, 0, 53, 45
2, 108534, Note_on_c, 0, 57, 0
2, 108573, Note_on_c, 0, 52, 0
2, 108752, Control_c, 0, 64, 57
2, 108752, Note_on_c, 0, 77, 69
2, 108767, Control_c, 0, 64, 64
2, 108771, Note_on_c, 0, 74, 0
2, 108783, Control_c, 0, 64, 68
2, 108798, Control_c, 0, 64, 78
2, 108813, Control_c, 0, 64, 127
2, 108860, Note_on_c, 0, 77, 0
2, 109093, Note_on_c, 0, 55, 41
2, 109157, Note_on_c, 0, 70, 72
2, 109212, Control_c, 0, 64, 86
2, 109227, Control_c, 0, 64, 69
2, 109243, Control_c, 0, 64, 49
2, 109258, Control_c, 0, 64, 0
2, 109482, Note_on_c, 0, 69, 41
2, 109698, Note_on_c, 0, 67, 49
2, 109709, Note_on_c, 0, 69, 0
2, 109722, Note_on_c, 0, 52, 30
2, 109752, Note_on_c, 0, 53, 0
2, 109921, Note_on_c, 0, 65, 47
2, 109925, Note_on_c, 0, 67, 0
2, 109937, Note_on_c, 0, 50, 40
2, 109948, Note_on_c, 0, 52, 0
2, 110160, Note_on_c, 0, 67, 53
2, 110166, Note_on_c, 0, 52, 49
2, 110178, Note_on_c, 0, 50, 0
2, 110212, Note_on_c, 0, 65, 0
2, 110245, Note_on_c, 0, 70, 0
2, 110395, Note_on_c, 0, 70, 58
2, 110405, Note_on_c, 0, 55, 0
2, 110407, Note_on_c, 0, 53, 45
2, 110459, Note_on_c, 0, 67, 0
2, 110672, Note_on_c, 0, 53, 0
2, 110679, Note_on_c, 0, 55, 41
2, 110682, Note_on_c, 0, 64, 47
2, 110971, Note_on_c, 0, 67, 58
2, 111033, Control_c, 0, 64, 62
2, 111037, Note_on_c, 0, 64, 0
2, 111040, Note_on_c, 0, 70, 0
2, 111048, Control_c, 0, 64, 75
2, 111064, Control_c, 0, 64, 127
2, 111122, Note_on_c, 0, 55, 0
2, 111276, Control_c, 0, 64, 115
2, 111291, Control_c, 0, 64, 84
2, 111293, Note_on_c, 0, 60, 51
2, 111306, Control_c, 0, 64, 70
2, 111319, Note_on_c, 0, 57, 36
2, 111321, Control_c, 0, 64, 63
2, 111336, Control_c, 0, 64, 39
2, 111340, Note_on_c, 0, 53, 41
2, 111351, Control_c, 0, 64, 0
2, 111458, Control_c, 0, 64, 46
2, 111473, Control_c, 0, 64, 64
2, 111477, Note_on_c, 0, 67, 0
2, 111489, Control_c, 0, 64, 71
2, 111504, Control_c, 0, 64, 88
2, 111519, Control_c, 0, 64, 115
2, 111534, Control_c, 0, 64, 99
2, 111549, Control_c, 0, 64, 78
2, 111558, Note_on_c, 0, 52, 0
2, 111565, Control_c, 0, 64, 63
2, 111580, Control_c, 0, 64, 0
2, 111601, Note_on_c, 0, 64, 54
2, 111641, Control_c, 0, 64, 57
2, 111656, Control_c, 0, 64, 66
2, 111679, Control_c, 0, 64, 76
2, 111694, Control_c, 0, 64, 127
2, 111710, Note_on_c, 0, 57, 0
2, 111861, Control_c, 0, 64, 86
2, 111872, Note_on_c, 0, 65, 63
2, 111878, Control_c, 0, 64, 68
2, 111887, Note_on_c, 0, 55, 48
2, 111893, Control_c, 0, 64, 58
2, 111898, Note_on_c, 0, 52, 44
2, 111907, Control_c, 0, 64, 0
2, 111912, Note_on_c, 0, 64, 0
2, 111952, Note_on_c, 0, 53, 0
2, 112162, Note_on_c, 0, 67, 68
2, 112192, Note_on_c, 0, 65, 0
2, 112529, Note_on_c, 0, 69, 58
2, 112568, Note_on_c, 0, 50, 35
2, 112578, Note_on_c, 0, 53, 39
2, 112600, Note_on_c, 0, 67, 0
2, 112640, Note_on_c, 0, 52, 0
2, 112650, Note_on_c, 0, 60, 0
2, 112655, Note_on_c, 0, 55, 0
2, 112897, Note_on_c, 0, 65, 50
2, 113331, Note_on_c, 0, 65, 0
2, 113371, Note_on_c, 0, 62, 41
2, 113396, Note_on_c, 0, 56, 45
2, 113906, Note_on_c, 0, 71, 54
2, 113958, Note_on_c, 0, 69, 0
2, 114016, Note_on_c, 0, 62, 0
2, 114084, Control_c, 0, 64, 25
2, 114100, Control_c, 0, 64, 57
2, 114115, Control_c, 0, 64, 64
2, 114130, Control_c, 0, 64, 71
2, 114145, Control_c, 0, 64, 127
2, 114210, Note_on_c, 0, 53, 0
2, 114213, Note_on_c, 0, 48, 0
2, 114270, Note_on_c, 0, 56, 0
2, 114381, Note_on_c, 0, 50, 0
2, 114732, Note_on_c, 0, 71, 0
2, 115162, Note_on_c, 0, 72, 55
2, 115178, Note_on_c, 0, 67, 41
2, 115184, Note_on_c, 0, 48, 38
2, 115184, Note_on_c, 0, 64, 33
2, 115199, Note_on_c, 0, 60, 24
2, 115221, Note_on_c, 0, 52, 27
2, 115224, Note_on_c, 0, 55, 33
2, 115232, Control_c, 0, 64, 110
2, 115246, Control_c, 0, 64, 75
2, 115262, Control_c, 0, 64, 62
2, 115277, Control_c, 0, 64, 0
2, 115711, Control_c, 0, 67, 127
2, 115726, Control_c, 0, 67, 126
2, 115787, Control_c, 0, 67, 126
2, 115801, Control_c, 0, 67, 125
2, 115832, Control_c, 0, 67, 125
2, 115876, Control_c, 0, 67, 124
2, 115891, Control_c, 0, 67, 124
2, 115907, Control_c, 0, 67, 123
2, 115922, Control_c, 0, 67, 121
2, 115937, Control_c, 0, 67, 113
2, 115952, Control_c, 0, 67, 106
2, 115968, Control_c, 0, 67, 98
2, 115984, Control_c, 0, 67, 91
2, 115999, Control_c, 0, 67, 84
2, 116013, Control_c, 0, 67, 77
2, 116029, Control_c, 0, 67, 71
2, 116044, Control_c, 0, 67, 65
2, 116060, Control_c, 0, 67, 60
2, 116075, Control_c, 0, 67, 55
2, 116089, Control_c, 0, 67, 51
2, 116105, Control_c, 0, 67, 47
2, 116120, Control_c, 0, 67, 44
2, 116136, Control_c, 0, 67, 41
2, 116151, Control_c, 0, 67, 38
2, 116166, Control_c, 0, 67, 36
2, 116182, Control_c, 0, 67, 34
2, 116197, Control_c, 0, 67, 33
2, 116212, Control_c, 0, 67, 31
2, 116227, Control_c, 0, 67, 29
2, 116242, Control_c, 0, 67, 26
2, 116258, Control_c, 0, 67, 24
2, 116280, Control_c, 0, 67, 22
2, 116295, Control_c, 0, 67, 20
2, 116310, Control_c, 0, 67, 18
2, 116325, Control_c, 0, 67, 16
2, 116341, Control_c, 0, 67, 15
2, 116356, Control_c, 0, 67, 13
2, 116371, Control_c, 0, 67, 12
2, 116387, Control_c, 0, 67, 11
2, 116402, Control_c, 0, 67, 10
2, 116417, Control_c, 0, 67, 9
2, 116432, Control_c, 0, 67, 8
2, 116447, Control_c, 0, 67, 0
2, 118120, Control_c, 0, 64, 12
2, 118135, Control_c, 0, 64, 29
2, 118151, Control_c, 0, 64, 46
2, 118166, Control_c, 0, 64, 56
2, 118182, Control_c, 0, 64, 61
2, 118196, Control_c, 0, 64, 62
2, 118211, Control_c, 0, 64, 63
2, 118227, Control_c, 0, 64, 63
2, 118242, Control_c, 0, 64, 64
2, 118258, Control_c, 0, 64, 65
2, 118273, Control_c, 0, 64, 67
2, 118288, Control_c, 0, 64, 70
2, 118304, Control_c, 0, 64, 72
2, 118318, Control_c, 0, 64, 75
2, 118333, Control_c, 0, 64, 79
2, 118349, Control_c, 0, 64, 81
2, 118364, Control_c, 0, 64, 84
2, 118380, Control_c, 0, 64, 87
2, 118394, Control_c, 0, 64, 94
2, 118409, Control_c, 0, 64, 109
2, 118426, Control_c, 0, 64, 127
2, 118475, Note_on_c, 0, 60, 0
2, 118545, Note_on_c, 0, 64, 0
2, 118631, Control_c, 0, 64, 118
2, 118632, Note_on_c, 0, 67, 0
2, 118646, Control_c, 0, 64, 110
2, 118661, Control_c, 0, 64, 106
2, 118670, Note_on_c, 0, 72, 0
2, 118676, Control_c, 0, 64, 101
2, 118691, Control_c, 0, 64, 97
2, 118704, Note_on_c, 0, 55, 0
2, 118707, Control_c, 0, 64, 94
2, 118722, Control_c, 0, 64, 90
2, 118738, Control_c, 0, 64, 86
2, 118740, Note_on_c, 0, 52, 0
2, 118748, Note_on_c, 0, 48, 0
2, 118753, Control_c, 0, 64, 82
2, 118767, Control_c, 0, 64, 76
2, 118783, Control_c, 0, 64, 70
2, 118798, Control_c, 0, 64, 64
2, 118813, Control_c, 0, 64, 53
2, 118829, Control_c, 0, 64, 0
2, 119884, Control_c, 0, 64, 38
2, 119900, Control_c, 0, 64, 53
2, 119915, Control_c, 0, 64, 60
2, 119929, Control_c, 0, 64, 62
2, 119945, Control_c, 0, 64, 62
2, 120021, Control_c, 0, 64, 62
2, 120036, Control_c, 0, 64, 61
2, 120051, Control_c, 0, 64, 61
2, 120083, Control_c, 0, 64, 60
2, 120098, Control_c, 0, 64, 58
2, 120120, Control_c, 0, 64, 48
2, 120135, Control_c, 0, 64, 0
2, 120427, Note_on_c, 0, 67, 72
2, 120474, Note_on_c, 0, 67, 0
2, 120505, Note_on_c, 0, 65, 76
2, 120566, Note_on_c, 0, 65, 0
2, 120588, Note_on_c, 0, 67, 77
2, 120614, Note_on_c, 0, 67, 0
2, 120809, Note_on_c, 0, 60, 55
2, 120815, Note_on_c, 0, 62, 55
2, 120835, Note_on_c, 0, 60, 0
2, 120841, Note_on_c, 0, 62, 0
2, 120994, Note_on_c, 0, 69, 73
2, 121041, Note_on_c, 0, 67, 76
2, 121052, Note_on_c, 0, 69, 0
2, 121087, Note_on_c, 0, 67, 0
2, 121412, Note_on_c, 0, 67, 79
2, 121778, Control_c, 0, 64, 52
2, 121793, Control_c, 0, 64, 61
2, 121824, Control_c, 0, 64, 61
2, 121835, Note_on_c, 0, 67, 0
2, 121839, Control_c, 0, 64, 56
2, 121853, Control_c, 0, 64, 0
2, 122024, Note_on_c, 0, 65, 65
2, 122098, Note_on_c, 0, 65, 0
2, 122122, Note_on_c, 0, 64, 66
2, 122210, Note_on_c, 0, 65, 66
2, 122223, Note_on_c, 0, 64, 0
2, 122278, Note_on_c, 0, 65, 0
2, 122301, Note_on_c, 0, 67, 72
2, 122393, Note_on_c, 0, 67, 0
2, 122402, Note_on_c, 0, 64, 69
2, 122491, Note_on_c, 0, 64, 0
2, 122498, Note_on_c, 0, 65, 68
2, 122596, Note_on_c, 0, 65, 0
2, 122602, Note_on_c, 0, 62, 77
2, 122678, Note_on_c, 0, 62, 0
2, 122692, Note_on_c, 0, 65, 74
2, 122767, Note_on_c, 0, 65, 0
2, 122782, Note_on_c, 0, 64, 66
2, 122871, Note_on_c, 0, 64, 0
2, 122873, Note_on_c, 0, 65, 74
2, 122952, Note_on_c, 0, 65, 0
2, 122978, Note_on_c, 0, 67, 74
2, 123054, Note_on_c, 0, 67, 0
2, 123062, Note_on_c, 0, 69, 68
2, 123157, Note_on_c, 0, 69, 0
2, 123170, Note_on_c, 0, 65, 61
2, 123221, Note_on_c, 0, 65, 0
2, 123253, Note_on_c, 0, 67, 66
2, 123328, Note_on_c, 0, 67, 0
2, 123352, Note_on_c, 0, 64, 70
2, 123429, Note_on_c, 0, 64, 0
2, 123440, Note_on_c, 0, 62, 69
2, 123517, Note_on_c, 0, 62, 0
2, 123538, Note_on_c, 0, 64, 64
2, 123551, Note_on_c, 0, 72, 84
2, 123601, Note_on_c, 0, 64, 0
2, 123617, Note_on_c, 0, 71, 79
2, 123618, Note_on_c, 0, 72, 0
2, 123632, Note_on_c, 0, 65, 65
2, 123688, Note_on_c, 0, 71, 0
2, 123705, Note_on_c, 0, 72, 90
2, 123707, Note_on_c, 0, 65, 0
2, 123721, Note_on_c, 0, 64, 60
2, 123730, Note_on_c, 0, 72, 0
2, 123805, Note_on_c, 0, 64, 0
2, 123819, Note_on_c, 0, 65, 62
2, 123900, Note_on_c, 0, 67, 87
2, 123903, Note_on_c, 0, 65, 0
2, 123919, Note_on_c, 0, 62, 67
2, 123938, Note_on_c, 0, 67, 0
2, 123980, Note_on_c, 0, 62, 0
2, 124021, Note_on_c, 0, 64, 64
2, 124095, Note_on_c, 0, 64, 0
2, 124097, Note_on_c, 0, 76, 93
2, 124118, Note_on_c, 0, 60, 55
2, 124131, Note_on_c, 0, 76, 0
2, 124133, Note_on_c, 0, 74, 74
2, 124169, Note_on_c, 0, 76, 70
2, 124194, Note_on_c, 0, 74, 0
2, 124195, Note_on_c, 0, 60, 0
2, 124204, Note_on_c, 0, 59, 61
2, 124285, Note_on_c, 0, 59, 0
2, 124301, Note_on_c, 0, 60, 61
2, 124369, Note_on_c, 0, 60, 0
2, 124392, Note_on_c, 0, 62, 73
2, 124450, Note_on_c, 0, 76, 0
2, 124464, Note_on_c, 0, 62, 0
2, 124485, Note_on_c, 0, 60, 60
2, 124494, Note_on_c, 0, 74, 84
2, 124565, Note_on_c, 0, 60, 0
2, 124573, Note_on_c, 0, 62, 65
2, 124671, Note_on_c, 0, 62, 0
2, 124676, Note_on_c, 0, 59, 66
2, 124766, Note_on_c, 0, 59, 0
2, 124775, Note_on_c, 0, 60, 62
2, 124797, Note_on_c, 0, 74, 0
2, 124840, Note_on_c, 0, 60, 0
2, 124883, Note_on_c, 0, 57, 70
2, 124947, Note_on_c, 0, 57, 0
2, 124971, Note_on_c, 0, 59, 71
2, 125060, Note_on_c, 0, 59, 0
2, 125073, Note_on_c, 0, 60, 68
2, 125081, Note_on_c, 0, 72, 78
2, 125127, Note_on_c, 0, 60, 0
2, 125151, Note_on_c, 0, 72, 0
2, 125161, Note_on_c, 0, 62, 62
2, 125167, Note_on_c, 0, 71, 71
2, 125246, Note_on_c, 0, 71, 0
2, 125252, Note_on_c, 0, 64, 67
2, 125258, Note_on_c, 0, 62, 0
2, 125266, Note_on_c, 0, 72, 77
2, 125340, Note_on_c, 0, 64, 0
2, 125346, Note_on_c, 0, 72, 0
2, 125352, Note_on_c, 0, 66, 72
2, 125353, Note_on_c, 0, 74, 77
2, 125405, Note_on_c, 0, 66, 0
2, 125425, Note_on_c, 0, 74, 0
2, 125442, Note_on_c, 0, 71, 73
2, 125444, Note_on_c, 0, 67, 75
2, 125518, Note_on_c, 0, 71, 0
2, 125538, Note_on_c, 0, 72, 78
2, 125620, Note_on_c, 0, 72, 0
2, 125637, Note_on_c, 0, 69, 72
2, 125706, Note_on_c, 0, 69, 0
2, 125717, Note_on_c, 0, 72, 76
2, 125785, Note_on_c, 0, 72, 0
2, 125807, Note_on_c, 0, 67, 0
2, 125823, Note_on_c, 0, 66, 69
2, 125825, Note_on_c, 0, 71, 70
2, 125891, Note_on_c, 0, 71, 0
2, 125907, Note_on_c, 0, 66, 0
2, 125915, Note_on_c, 0, 64, 69
2, 125918, Note_on_c, 0, 72, 76
2, 125989, Note_on_c, 0, 66, 70
2, 125993, Note_on_c, 0, 64, 0
2, 126001, Note_on_c, 0, 72, 0
2, 126023, Note_on_c, 0, 74, 74
2, 126032, Note_on_c, 0, 66, 0
2, 126050, Note_on_c, 0, 67, 78
2, 126097, Note_on_c, 0, 74, 0
2, 126099, Note_on_c, 0, 76, 71
2, 126120, Note_on_c, 0, 67, 0
2, 126121, Note_on_c, 0, 66, 73
2, 126167, Note_on_c, 0, 76, 0
2, 126171, Note_on_c, 0, 72, 75
2, 126183, Note_on_c, 0, 66, 0
2, 126189, Note_on_c, 0, 64, 76
2, 126239, Note_on_c, 0, 72, 0
2, 126267, Note_on_c, 0, 66, 80
2, 126269, Note_on_c, 0, 64, 0
2, 126269, Note_on_c, 0, 74, 68
2, 126295, Note_on_c, 0, 74, 0
2, 126314, Note_on_c, 0, 66, 0
2, 126374, Note_on_c, 0, 67, 73
2, 126374, Note_on_c, 0, 71, 78
2, 126433, Note_on_c, 0, 71, 0
2, 126452, Note_on_c, 0, 69, 71
2, 126526, Note_on_c, 0, 69, 0
2, 126557, Note_on_c, 0, 55, 80
2, 126563, Note_on_c, 0, 71, 77
2, 126619, Note_on_c, 0, 55, 0
2, 126637, Note_on_c, 0, 71, 0
2, 126645, Note_on_c, 0, 72, 81
2, 126652, Note_on_c, 0, 53, 85
2, 126709, Note_on_c, 0, 53, 0
2, 126741, Note_on_c, 0, 71, 75
2, 126743, Note_on_c, 0, 72, 0
2, 126747, Note_on_c, 0, 55, 90
2, 126787, Note_on_c, 0, 55, 0
2, 126825, Note_on_c, 0, 71, 0
2, 126850, Note_on_c, 0, 72, 73
2, 126943, Note_on_c, 0, 48, 85
2, 126943, Note_on_c, 0, 72, 0
2, 126962, Note_on_c, 0, 69, 75
2, 126977, Note_on_c, 0, 48, 0
2, 126997, Note_on_c, 0, 67, 0
2, 127028, Note_on_c, 0, 69, 0
2, 127053, Note_on_c, 0, 71, 67
2, 127099, Note_on_c, 0, 71, 0
2, 127158, Note_on_c, 0, 57, 83
2, 127167, Note_on_c, 0, 72, 80
2, 127202, Note_on_c, 0, 57, 0
2, 127205, Note_on_c, 0, 55, 75
2, 127238, Note_on_c, 0, 64, 73
2, 127255, Note_on_c, 0, 55, 0
2, 127257, Note_on_c, 0, 57, 80
2, 127318, Note_on_c, 0, 72, 0
2, 127346, Note_on_c, 0, 65, 71
2, 127355, Note_on_c, 0, 64, 0
2, 127423, Note_on_c, 0, 65, 0
2, 127441, Note_on_c, 0, 69, 67
2, 127469, Note_on_c, 0, 69, 0
2, 127488, Note_on_c, 0, 57, 0
2, 127547, Note_on_c, 0, 70, 81
2, 127549, Note_on_c, 0, 55, 76
2, 127629, Note_on_c, 0, 62, 70
2, 127692, Note_on_c, 0, 70, 0
2, 127727, Note_on_c, 0, 64, 70
2, 127737, Note_on_c, 0, 62, 0
2, 127797, Note_on_c, 0, 64, 0
2, 127818, Note_on_c, 0, 67, 72
2, 127860, Note_on_c, 0, 67, 0
2, 127881, Note_on_c, 0, 55, 0
2, 127935, Note_on_c, 0, 69, 79
2, 128127, Note_on_c, 0, 53, 68
2, 128135, Note_on_c, 0, 62, 76
2, 128138, Note_on_c, 0, 69, 0
2, 128160, Note_on_c, 0, 62, 0
2, 128205, Note_on_c, 0, 53, 0
2, 128224, Note_on_c, 0, 52, 72
2, 128300, Note_on_c, 0, 52, 0
2, 128308, Note_on_c, 0, 53, 68
2, 128318, Note_on_c, 0, 71, 82
2, 128325, Note_on_c, 0, 67, 75
2, 128346, Note_on_c, 0, 71, 0
2, 128349, Note_on_c, 0, 67, 0
2, 128382, Note_on_c, 0, 53, 0
2, 128404, Note_on_c, 0, 55, 69
2, 128506, Note_on_c, 0, 55, 0
2, 128511, Note_on_c, 0, 72, 87
2, 128514, Note_on_c, 0, 52, 61
2, 128601, Note_on_c, 0, 52, 0
2, 128613, Note_on_c, 0, 53, 66
2, 128682, Note_on_c, 0, 53, 0
2, 128719, Note_on_c, 0, 50, 70
2, 128722, Note_on_c, 0, 65, 75
2, 128726, Note_on_c, 0, 72, 0
2, 128789, Note_on_c, 0, 65, 0
2, 128792, Note_on_c, 0, 50, 0
2, 128792, Note_on_c, 0, 69, 75
2, 128807, Note_on_c, 0, 53, 65
2, 128838, Note_on_c, 0, 69, 0
2, 128883, Note_on_c, 0, 53, 0
2, 128897, Note_on_c, 0, 72, 81
2, 128899, Note_on_c, 0, 52, 70
2, 128900, Note_on_c, 0, 67, 77
2, 128939, Note_on_c, 0, 67, 0
2, 128975, Note_on_c, 0, 69, 77
2, 128979, Note_on_c, 0, 52, 0
2, 128982, Note_on_c, 0, 53, 69
2, 129058, Note_on_c, 0, 69, 0
2, 129067, Note_on_c, 0, 53, 0
2, 129083, Note_on_c, 0, 62, 87
2, 129091, Note_on_c, 0, 55, 72
2, 129181, Note_on_c, 0, 57, 70
2, 129184, Note_on_c, 0, 55, 0
2, 129260, Note_on_c, 0, 72, 0
2, 129268, Note_on_c, 0, 57, 0
2, 129270, Note_on_c, 0, 71, 80
2, 129278, Note_on_c, 0, 62, 0
2, 129288, Note_on_c, 0, 53, 64
2, 129336, Note_on_c, 0, 53, 0
2, 129364, Note_on_c, 0, 55, 75
2, 129411, Note_on_c, 0, 55, 0
2, 129469, Note_on_c, 0, 71, 0
2, 129472, Note_on_c, 0, 52, 55
2, 129473, Note_on_c, 0, 72, 85
2, 129477, Note_on_c, 0, 60, 67
2, 129505, Note_on_c, 0, 60, 0
2, 129515, Note_on_c, 0, 72, 0
2, 129543, Note_on_c, 0, 52, 0
2, 129563, Note_on_c, 0, 50, 60
2, 129634, Note_on_c, 0, 50, 0
2, 129660, Note_on_c, 0, 52, 61
2, 129674, Note_on_c, 0, 79, 84
2, 129708, Note_on_c, 0, 52, 0
2, 129731, Note_on_c, 0, 79, 0
2, 129750, Note_on_c, 0, 53, 59
2, 129752, Note_on_c, 0, 77, 78
2, 129813, Note_on_c, 0, 53, 0
2, 129823, Note_on_c, 0, 77, 0
2, 129829, Note_on_c, 0, 52, 61
2, 129846, Note_on_c, 0, 79, 80
2, 129876, Note_on_c, 0, 79, 0
2, 129903, Note_on_c, 0, 52, 0
2, 129924, Note_on_c, 0, 53, 56
2, 130021, Note_on_c, 0, 53, 0
2, 130036, Note_on_c, 0, 72, 80
2, 130039, Note_on_c, 0, 50, 55
2, 130059, Note_on_c, 0, 72, 0
2, 130119, Note_on_c, 0, 50, 0
2, 130132, Note_on_c, 0, 52, 56
2, 130193, Note_on_c, 0, 52, 0
2, 130235, Note_on_c, 0, 53, 55
2, 130243, Note_on_c, 0, 81, 76
2, 130324, Note_on_c, 0, 53, 0
2, 130332, Note_on_c, 0, 52, 59
2, 130404, Note_on_c, 0, 81, 0
2, 130424, Note_on_c, 0, 52, 0
2, 130436, Note_on_c, 0, 53, 59
2, 130446, Note_on_c, 0, 72, 77
2, 130487, Note_on_c, 0, 72, 0
2, 130502, Note_on_c, 0, 53, 0
2, 130523, Note_on_c, 0, 71, 75
2, 130532, Note_on_c, 0, 55, 66
2, 130578, Note_on_c, 0, 71, 0
2, 130600, Note_on_c, 0, 55, 0
2, 130609, Note_on_c, 0, 72, 81
2, 130614, Note_on_c, 0, 79, 80
2, 130615, Note_on_c, 0, 53, 61
2, 130638, Note_on_c, 0, 72, 0
2, 130697, Note_on_c, 0, 53, 0
2, 130713, Note_on_c, 0, 55, 59
2, 130789, Note_on_c, 0, 55, 0
2, 130806, Note_on_c, 0, 67, 80
2, 130818, Note_on_c, 0, 52, 65
2, 130832, Note_on_c, 0, 79, 0
2, 130834, Note_on_c, 0, 67, 0
2, 130870, Note_on_c, 0, 52, 0
2, 130917, Note_on_c, 0, 53, 60
2, 130995, Note_on_c, 0, 53, 0
2, 131018, Note_on_c, 0, 78, 86
2, 131022, Note_on_c, 0, 74, 78
2, 131024, Note_on_c, 0, 50, 64
2, 131069, Control_c, 0, 64, 70
2, 131084, Control_c, 0, 64, 127
2, 131108, Note_on_c, 0, 50, 0
2, 131117, Note_on_c, 0, 49, 68
2, 131117, Note_on_c, 0, 74, 0
2, 131135, Note_on_c, 0, 78, 0
2, 131174, Control_c, 0, 64, 68
2, 131190, Control_c, 0, 64, 0
2, 131208, Note_on_c, 0, 49, 0
2, 131211, Note_on_c, 0, 50, 64
2, 131221, Note_on_c, 0, 81, 89
2, 131275, Note_on_c, 0, 50, 0
2, 131292, Note_on_c, 0, 79, 90
2, 131300, Note_on_c, 0, 52, 59
2, 131300, Note_on_c, 0, 81, 0
2, 131349, Note_on_c, 0, 79, 0
2, 131383, Note_on_c, 0, 52, 0
2, 131385, Note_on_c, 0, 81, 93
2, 131390, Note_on_c, 0, 72, 80
2, 131392, Note_on_c, 0, 54, 64
2, 131409, Note_on_c, 0, 72, 0
2, 131432, Note_on_c, 0, 81, 0
2, 131473, Note_on_c, 0, 54, 0
2, 131495, Note_on_c, 0, 55, 61
2, 131575, Note_on_c, 0, 55, 0
2, 131575, Note_on_c, 0, 74, 96
2, 131588, Note_on_c, 0, 52, 57
2, 131597, Note_on_c, 0, 74, 0
2, 131673, Note_on_c, 0, 52, 0
2, 131684, Note_on_c, 0, 54, 62
2, 131753, Note_on_c, 0, 54, 0
2, 131783, Note_on_c, 0, 83, 92
2, 131793, Note_on_c, 0, 55, 56
2, 131795, Note_on_c, 0, 71, 79
2, 131865, Note_on_c, 0, 54, 66
2, 131883, Note_on_c, 0, 55, 0
2, 131928, Note_on_c, 0, 71, 0
2, 131946, Note_on_c, 0, 83, 0
2, 131960, Note_on_c, 0, 54, 0
2, 131974, Note_on_c, 0, 55, 70
2, 131989, Note_on_c, 0, 74, 85
2, 132039, Note_on_c, 0, 55, 0
2, 132046, Note_on_c, 0, 74, 0
2, 132055, Note_on_c, 0, 57, 74
2, 132062, Note_on_c, 0, 72, 85
2, 132112, Note_on_c, 0, 72, 0
2, 132132, Note_on_c, 0, 57, 0
2, 132155, Note_on_c, 0, 55, 68
2, 132162, Note_on_c, 0, 74, 85
2, 132164, Note_on_c, 0, 81, 87
2, 132193, Note_on_c, 0, 74, 0
2, 132230, Note_on_c, 0, 55, 0
2, 132239, Note_on_c, 0, 57, 71
2, 132316, Note_on_c, 0, 57, 0
2, 132343, Note_on_c, 0, 53, 71
2, 132349, Note_on_c, 0, 69, 78
2, 132371, Note_on_c, 0, 69, 0
2, 132377, Note_on_c, 0, 81, 0
2, 132386, Note_on_c, 0, 53, 0
2, 132444, Note_on_c, 0, 55, 67
2, 132523, Note_on_c, 0, 55, 0
2, 132544, Note_on_c, 0, 52, 66
2, 132551, Note_on_c, 0, 80, 87
2, 132569, Note_on_c, 0, 76, 68
2, 132605, Control_c, 0, 64, 60
2, 132621, Control_c, 0, 64, 84
2, 132627, Note_on_c, 0, 76, 0
2, 132636, Control_c, 0, 64, 127
2, 132636, Note_on_c, 0, 52, 0
2, 132642, Note_on_c, 0, 80, 0
2, 132646, Note_on_c, 0, 50, 71
2, 132698, Control_c, 0, 64, 94
2, 132713, Control_c, 0, 64, 64
2, 132728, Control_c, 0, 64, 0
2, 132738, Note_on_c, 0, 50, 0
2, 132740, Note_on_c, 0, 83, 85
2, 132743, Note_on_c, 0, 52, 73
2, 132810, Note_on_c, 0, 52, 0
2, 132813, Note_on_c, 0, 81, 88
2, 132825, Note_on_c, 0, 83, 0
2, 132851, Note_on_c, 0, 54, 63
2, 132873, Note_on_c, 0, 81, 0
2, 132905, Note_on_c, 0, 83, 89
2, 132911, Note_on_c, 0, 74, 81
2, 132930, Note_on_c, 0, 56, 73
2, 132931, Note_on_c, 0, 74, 0
2, 132939, Note_on_c, 0, 54, 0
2, 132945, Note_on_c, 0, 83, 0
2, 133002, Note_on_c, 0, 56, 0
2, 133020, Note_on_c, 0, 57, 76
2, 133099, Note_on_c, 0, 76, 95
2, 133107, Note_on_c, 0, 57, 0
2, 133110, Note_on_c, 0, 54, 70
2, 133126, Note_on_c, 0, 76, 0
2, 133207, Note_on_c, 0, 56, 75
2, 133210, Note_on_c, 0, 54, 0
2, 133282, Note_on_c, 0, 56, 0
2, 133306, Note_on_c, 0, 57, 73
2, 133308, Note_on_c, 0, 84, 95
2, 133334, Note_on_c, 0, 72, 70
2, 133391, Note_on_c, 0, 56, 64
2, 133395, Note_on_c, 0, 57, 0
2, 133422, Note_on_c, 0, 72, 0
2, 133477, Note_on_c, 0, 56, 0
2, 133492, Note_on_c, 0, 57, 65
2, 133507, Note_on_c, 0, 76, 83
2, 133546, Note_on_c, 0, 57, 0
2, 133557, Note_on_c, 0, 76, 0
2, 133572, Note_on_c, 0, 59, 68
2, 133584, Note_on_c, 0, 74, 85
2, 133627, Note_on_c, 0, 74, 0
2, 133649, Note_on_c, 0, 59, 0
2, 133667, Note_on_c, 0, 57, 71
2, 133679, Note_on_c, 0, 76, 87
2, 133714, Note_on_c, 0, 76, 0
2, 133737, Note_on_c, 0, 57, 0
2, 133748, Note_on_c, 0, 59, 67
2, 133849, Note_on_c, 0, 59, 0
2, 133861, Note_on_c, 0, 55, 72
2, 133861, Note_on_c, 0, 81, 87
2, 133892, Note_on_c, 0, 81, 0
2, 133921, Note_on_c, 0, 55, 0
2, 133964, Note_on_c, 0, 57, 70
2, 134061, Note_on_c, 0, 57, 0
2, 134061, Note_on_c, 0, 74, 84
2, 134063, Note_on_c, 0, 54, 65
2, 134097, Note_on_c, 0, 84, 0
2, 134147, Note_on_c, 0, 54, 0
2, 134151, Note_on_c, 0, 55, 70
2, 134242, Note_on_c, 0, 55, 0
2, 134243, Note_on_c, 0, 52, 69
2, 134249, Note_on_c, 0, 84, 87
2, 134294, Note_on_c, 0, 84, 0
2, 134331, Note_on_c, 0, 52, 0
2, 134338, Note_on_c, 0, 54, 71
2, 134434, Note_on_c, 0, 55, 76
2, 134434, Note_on_c, 0, 83, 89
2, 134435, Note_on_c, 0, 54, 0
2, 134472, Note_on_c, 0, 83, 0
2, 134492, Note_on_c, 0, 55, 0
2, 134516, Note_on_c, 0, 57, 74
2, 134603, Note_on_c, 0, 57, 0
2, 134612, Note_on_c, 0, 59, 77
2, 134619, Note_on_c, 0, 79, 89
2, 134660, Note_on_c, 0, 79, 0
2, 134685, Note_on_c, 0, 59, 0
2, 134718, Note_on_c, 0, 55, 71
2, 134806, Note_on_c, 0, 55, 0
2, 134820, Note_on_c, 0, 76, 86
2, 134829, Note_on_c, 0, 60, 74
2, 134846, Note_on_c, 0, 74, 0
2, 134905, Note_on_c, 0, 60, 0
2, 134924, Note_on_c, 0, 59, 74
2, 134981, Note_on_c, 0, 76, 0
2, 134996, Note_on_c, 0, 59, 0
2, 135005, Note_on_c, 0, 60, 68
2, 135009, Note_on_c, 0, 72, 78
2, 135066, Note_on_c, 0, 72, 0
2, 135075, Note_on_c, 0, 60, 0
2, 135093, Note_on_c, 0, 62, 78
2, 135094, Note_on_c, 0, 71, 65
2, 135120, Note_on_c, 0, 71, 0
2, 135161, Note_on_c, 0, 62, 0
2, 135182, Note_on_c, 0, 69, 87
2, 135184, Note_on_c, 0, 78, 85
2, 135188, Note_on_c, 0, 60, 68
2, 135205, Note_on_c, 0, 69, 0
2, 135210, Note_on_c, 0, 78, 0
2, 135246, Note_on_c, 0, 60, 0
2, 135264, Note_on_c, 0, 62, 78
2, 135364, Note_on_c, 0, 62, 0
2, 135369, Note_on_c, 0, 59, 72
2, 135375, Note_on_c, 0, 79, 89
2, 135385, Note_on_c, 0, 71, 72
2, 135448, Note_on_c, 0, 59, 0
2, 135455, Note_on_c, 0, 60, 79
2, 135488, Note_on_c, 0, 60, 0
2, 135555, Control_c, 0, 64, 33
2, 135562, Note_on_c, 0, 71, 0
2, 135570, Control_c, 0, 64, 78
2, 135579, Note_on_c, 0, 62, 88
2, 135586, Control_c, 0, 64, 127
2, 135622, Note_on_c, 0, 62, 0
2, 135676, Note_on_c, 0, 79, 0
2, 135739, Control_c, 0, 64, 89
2, 135753, Control_c, 0, 64, 48
2, 135768, Control_c, 0, 64, 0
2, 135770, Note_on_c, 0, 69, 76
2, 135775, Note_on_c, 0, 78, 87
2, 135821, Note_on_c, 0, 69, 0
2, 135832, Note_on_c, 0, 78, 0
2, 135837, Note_on_c, 0, 76, 82
2, 135847, Note_on_c, 0, 67, 79
2, 135875, Note_on_c, 0, 76, 0
2, 135895, Note_on_c, 0, 67, 0
2, 135947, Note_on_c, 0, 69, 78
2, 135965, Note_on_c, 0, 78, 82
2, 135993, Note_on_c, 0, 69, 0
2, 136000, Note_on_c, 0, 78, 0
2, 136003, Note_on_c, 0, 79, 87
2, 136051, Note_on_c, 0, 78, 81
2, 136073, Note_on_c, 0, 79, 0
2, 136146, Note_on_c, 0, 62, 88
2, 136175, Note_on_c, 0, 62, 0
2, 136202, Note_on_c, 0, 78, 0
2, 136224, Note_on_c, 0, 79, 82
2, 136265, Note_on_c, 0, 79, 0
2, 136341, Note_on_c, 0, 71, 84
2, 136342, Note_on_c, 0, 79, 85
2, 136354, Note_on_c, 0, 55, 63
2, 136373, Note_on_c, 0, 71, 0
2, 136382, Note_on_c, 0, 69, 91
2, 136384, Note_on_c, 0, 55, 0
2, 136437, Note_on_c, 0, 69, 0
2, 136440, Note_on_c, 0, 71, 85
2, 136452, Note_on_c, 0, 79, 0
2, 136534, Note_on_c, 0, 76, 76
2, 136544, Note_on_c, 0, 67, 63
2, 136589, Note_on_c, 0, 76, 0
2, 136596, Note_on_c, 0, 67, 0
2, 136641, Note_on_c, 0, 65, 65
2, 136717, Note_on_c, 0, 65, 0
2, 136728, Note_on_c, 0, 71, 0
2, 136733, Note_on_c, 0, 73, 73
2, 136737, Note_on_c, 0, 67, 58
2, 136741, Note_on_c, 0, 69, 73
2, 136760, Note_on_c, 0, 73, 0
2, 136796, Note_on_c, 0, 67, 0
2, 136919, Note_on_c, 0, 69, 0
2, 136920, Note_on_c, 0, 74, 70
2, 136923, Note_on_c, 0, 65, 67
2, 136945, Note_on_c, 0, 74, 0
2, 136993, Note_on_c, 0, 65, 0
2, 137018, Note_on_c, 0, 67, 61
2, 137058, Note_on_c, 0, 67, 0
2, 137116, Note_on_c, 0, 64, 67
2, 137194, Note_on_c, 0, 79, 66
2, 137288, Note_on_c, 0, 64, 0
2, 137292, Note_on_c, 0, 79, 0
2, 137299, Note_on_c, 0, 82, 77
2, 137304, Note_on_c, 0, 67, 64
2, 137335, Note_on_c, 0, 82, 0
2, 137369, Note_on_c, 0, 67, 0
2, 137383, Note_on_c, 0, 81, 76
2, 137393, Note_on_c, 0, 65, 68
2, 137472, Note_on_c, 0, 65, 0
2, 137472, Note_on_c, 0, 81, 0
2, 137477, Note_on_c, 0, 67, 71
2, 137485, Note_on_c, 0, 79, 84
2, 137539, Note_on_c, 0, 67, 0
2, 137561, Note_on_c, 0, 79, 0
2, 137566, Note_on_c, 0, 69, 70
2, 137567, Note_on_c, 0, 77, 82
2, 137635, Note_on_c, 0, 77, 0
2, 137653, Note_on_c, 0, 76, 80
2, 137658, Note_on_c, 0, 69, 0
2, 137663, Note_on_c, 0, 65, 62
2, 137708, Note_on_c, 0, 76, 0
2, 137730, Note_on_c, 0, 65, 0
2, 137733, Note_on_c, 0, 67, 72
2, 137750, Note_on_c, 0, 74, 63
2, 137758, Note_on_c, 0, 67, 0
2, 137779, Note_on_c, 0, 74, 0
2, 137847, Note_on_c, 0, 73, 82
2, 137852, Note_on_c, 0, 64, 77
2, 137887, Note_on_c, 0, 64, 0
2, 137919, Note_on_c, 0, 73, 0
2, 137937, Note_on_c, 0, 67, 82
2, 137989, Note_on_c, 0, 67, 0
2, 138036, Note_on_c, 0, 65, 82
2, 138043, Note_on_c, 0, 74, 83
2, 138050, Note_on_c, 0, 62, 83
2, 138090, Note_on_c, 0, 65, 0
2, 138126, Note_on_c, 0, 67, 77
2, 138138, Note_on_c, 0, 74, 0
2, 138195, Note_on_c, 0, 67, 0
2, 138223, Note_on_c, 0, 53, 79
2, 138225, Note_on_c, 0, 69, 78
2, 138228, Note_on_c, 0, 62, 0
2, 138252, Note_on_c, 0, 53, 0
2, 138274, Note_on_c, 0, 69, 0
2, 138305, Note_on_c, 0, 70, 74
2, 138369, Note_on_c, 0, 70, 0
2, 138408, Note_on_c, 0, 73, 66
2, 138409, Note_on_c, 0, 57, 75
2, 138411, Note_on_c, 0, 67, 73
2, 138435, Note_on_c, 0, 57, 0
2, 138439, Note_on_c, 0, 67, 0
2, 138472, Note_on_c, 0, 73, 0
2, 138481, Note_on_c, 0, 69, 78
2, 138518, Note_on_c, 0, 69, 0
2, 138613, Note_on_c, 0, 50, 63
2, 138614, Note_on_c, 0, 65, 58
2, 138615, Note_on_c, 0, 74, 72
2, 138625, Control_c, 0, 64, 66
2, 138625, Control_c, 0, 67, 20
2, 138639, Note_on_c, 0, 65, 0
2, 138640, Control_c, 0, 64, 127
2, 138640, Control_c, 0, 67, 47
2, 138648, Note_on_c, 0, 74, 0
2, 138649, Note_on_c, 0, 50, 0
2, 138655, Control_c, 0, 67, 75
2, 138670, Control_c, 0, 67, 99
2, 138685, Control_c, 0, 67, 118
2, 138700, Control_c, 0, 67, 127
2, 138704, Note_on_c, 0, 64, 63
2, 138747, Control_c, 0, 64, 97
2, 138761, Control_c, 0, 64, 65
2, 138776, Control_c, 0, 64, 0
2, 138786, Note_on_c, 0, 64, 0
2, 138807, Control_c, 0, 67, 127
2, 138810, Note_on_c, 0, 65, 46
2, 138818, Note_on_c, 0, 74, 77
2, 138822, Control_c, 0, 67, 126
2, 138837, Control_c, 0, 67, 125
2, 138852, Control_c, 0, 67, 124
2, 138862, Note_on_c, 0, 65, 0
2, 138868, Control_c, 0, 67, 123
2, 138871, Note_on_c, 0, 74, 0
2, 138883, Control_c, 0, 67, 122
2, 138901, Note_on_c, 0, 73, 77
2, 138911, Note_on_c, 0, 67, 57
2, 138915, Control_c, 0, 67, 122
2, 138929, Control_c, 0, 67, 121
2, 138945, Control_c, 0, 67, 120
2, 138948, Note_on_c, 0, 73, 0
2, 138960, Control_c, 0, 67, 119
2, 138961, Note_on_c, 0, 67, 0
2, 138986, Note_on_c, 0, 74, 85
2, 138991, Note_on_c, 0, 65, 59
2, 139014, Note_on_c, 0, 74, 0
2, 139020, Control_c, 0, 67, 119
2, 139051, Control_c, 0, 67, 118
2, 139065, Note_on_c, 0, 65, 0
2, 139097, Note_on_c, 0, 67, 57
2, 139165, Note_on_c, 0, 67, 0
2, 139177, Note_on_c, 0, 69, 76
2, 139190, Note_on_c, 0, 64, 60
2, 139202, Note_on_c, 0, 69, 0
2, 139218, Control_c, 0, 67, 119
2, 139236, Note_on_c, 0, 64, 0
2, 139264, Control_c, 0, 67, 119
2, 139293, Note_on_c, 0, 65, 57
2, 139361, Note_on_c, 0, 65, 0
2, 139378, Note_on_c, 0, 77, 80
2, 139405, Note_on_c, 0, 62, 55
2, 139408, Control_c, 0, 67, 119
2, 139411, Note_on_c, 0, 77, 0
2, 139420, Note_on_c, 0, 76, 75
2, 139439, Control_c, 0, 67, 119
2, 139459, Note_on_c, 0, 77, 78
2, 139469, Note_on_c, 0, 62, 0
2, 139484, Note_on_c, 0, 76, 0
2, 139488, Note_on_c, 0, 60, 58
2, 139529, Control_c, 0, 67, 120
2, 139545, Control_c, 0, 67, 120
2, 139565, Note_on_c, 0, 60, 0
2, 139581, Note_on_c, 0, 62, 63
2, 139636, Control_c, 0, 67, 120
2, 139641, Note_on_c, 0, 62, 0
2, 139668, Note_on_c, 0, 64, 64
2, 139712, Control_c, 0, 67, 119
2, 139727, Note_on_c, 0, 77, 0
2, 139737, Note_on_c, 0, 64, 0
2, 139758, Control_c, 0, 67, 119
2, 139761, Note_on_c, 0, 76, 73
2, 139770, Note_on_c, 0, 62, 57
2, 139837, Note_on_c, 0, 62, 0
2, 139855, Note_on_c, 0, 64, 58
2, 139880, Control_c, 0, 67, 118
2, 139956, Note_on_c, 0, 64, 0
2, 139965, Note_on_c, 0, 60, 56
2, 140036, Note_on_c, 0, 60, 0
2, 140038, Note_on_c, 0, 76, 0
2, 140048, Note_on_c, 0, 62, 67
2, 140085, Control_c, 0, 67, 117
2, 140100, Control_c, 0, 67, 117
2, 140112, Note_on_c, 0, 62, 0
2, 140115, Control_c, 0, 67, 116
2, 140130, Control_c, 0, 67, 115
2, 140158, Note_on_c, 0, 59, 73
2, 140161, Control_c, 0, 67, 114
2, 140176, Control_c, 0, 67, 112
2, 140192, Control_c, 0, 67, 108
2, 140207, Control_c, 0, 67, 105
2, 140222, Control_c, 0, 67, 104
2, 140228, Note_on_c, 0, 59, 0
2, 140247, Note_on_c, 0, 60, 69
2, 140298, Control_c, 0, 67, 103
2, 140313, Control_c, 0, 67, 103
2, 140328, Control_c, 0, 67, 101
2, 140337, Note_on_c, 0, 60, 0
2, 140344, Control_c, 0, 67, 97
2, 140345, Note_on_c, 0, 62, 67
2, 140348, Note_on_c, 0, 74, 72
2, 140358, Control_c, 0, 67, 79
2, 140373, Control_c, 0, 67, 44
2, 140389, Control_c, 0, 67, 0
2, 140400, Note_on_c, 0, 62, 0
2, 140417, Note_on_c, 0, 74, 0
2, 140430, Note_on_c, 0, 72, 75
2, 140436, Note_on_c, 0, 64, 56
2, 140502, Note_on_c, 0, 72, 0
2, 140522, Note_on_c, 0, 74, 76
2, 140532, Note_on_c, 0, 66, 69
2, 140537, Note_on_c, 0, 64, 0
2, 140589, Note_on_c, 0, 74, 0
2, 140613, Note_on_c, 0, 66, 0
2, 140614, Note_on_c, 0, 76, 73
2, 140622, Note_on_c, 0, 68, 68
2, 140684, Note_on_c, 0, 68, 0
2, 140700, Note_on_c, 0, 76, 0
2, 140712, Note_on_c, 0, 69, 76
2, 140717, Note_on_c, 0, 72, 70
2, 140779, Note_on_c, 0, 72, 0
2, 140794, Note_on_c, 0, 74, 73
2, 140901, Note_on_c, 0, 74, 0
2, 140914, Note_on_c, 0, 71, 75
2, 140999, Note_on_c, 0, 71, 0
2, 141000, Note_on_c, 0, 74, 77
2, 141066, Note_on_c, 0, 74, 0
2, 141084, Note_on_c, 0, 69, 0
2, 141093, Note_on_c, 0, 72, 76
2, 141095, Note_on_c, 0, 68, 70
2, 141164, Note_on_c, 0, 72, 0
2, 141182, Note_on_c, 0, 68, 0
2, 141186, Note_on_c, 0, 74, 76
2, 141195, Note_on_c, 0, 66, 68
2, 141261, Note_on_c, 0, 74, 0
2, 141280, Note_on_c, 0, 66, 0
2, 141280, Note_on_c, 0, 68, 76
2, 141285, Note_on_c, 0, 76, 72
2, 141329, Note_on_c, 0, 68, 0
2, 141351, Note_on_c, 0, 69, 68
2, 141365, Note_on_c, 0, 76, 0
2, 141370, Note_on_c, 0, 77, 75
2, 141416, Note_on_c, 0, 69, 0
2, 141420, Note_on_c, 0, 68, 74
2, 141448, Note_on_c, 0, 77, 0
2, 141455, Note_on_c, 0, 74, 71
2, 141488, Note_on_c, 0, 68, 0
2, 141493, Note_on_c, 0, 66, 67
2, 141526, Note_on_c, 0, 74, 0
2, 141542, Note_on_c, 0, 76, 69
2, 141553, Note_on_c, 0, 68, 61
2, 141555, Note_on_c, 0, 66, 0
2, 141622, Note_on_c, 0, 68, 0
2, 141624, Note_on_c, 0, 76, 0
2, 141646, Note_on_c, 0, 72, 80
2, 141649, Note_on_c, 0, 69, 67
2, 141676, Note_on_c, 0, 72, 0
2, 141736, Note_on_c, 0, 69, 0
2, 141741, Note_on_c, 0, 68, 57
2, 141833, Note_on_c, 0, 68, 0
2, 141844, Note_on_c, 0, 69, 59
2, 141864, Note_on_c, 0, 76, 65
2, 141893, Note_on_c, 0, 69, 0
2, 141919, Note_on_c, 0, 76, 0
2, 141927, Note_on_c, 0, 74, 77
2, 141933, Note_on_c, 0, 71, 53
2, 141993, Note_on_c, 0, 74, 0
2, 141996, Note_on_c, 0, 71, 0
2, 142007, Note_on_c, 0, 69, 55
2, 142015, Note_on_c, 0, 76, 85
2, 142044, Note_on_c, 0, 76, 0
2, 142089, Note_on_c, 0, 69, 0
2, 142106, Note_on_c, 0, 71, 64
2, 142191, Note_on_c, 0, 71, 0
2, 142213, Note_on_c, 0, 72, 77
2, 142215, Note_on_c, 0, 67, 61
2, 142239, Note_on_c, 0, 72, 0
2, 142269, Note_on_c, 0, 67, 0
2, 142311, Note_on_c, 0, 69, 60
2, 142397, Note_on_c, 0, 81, 85
2, 142407, Note_on_c, 0, 69, 0
2, 142420, Note_on_c, 0, 66, 62
2, 142430, Note_on_c, 0, 81, 0
2, 142482, Note_on_c, 0, 66, 0
2, 142520, Note_on_c, 0, 64, 55
2, 142595, Note_on_c, 0, 72, 77
2, 142616, Note_on_c, 0, 66, 61
2, 142619, Note_on_c, 0, 64, 0
2, 142671, Note_on_c, 0, 66, 0
2, 142702, Note_on_c, 0, 67, 60
2, 142764, Note_on_c, 0, 72, 0
2, 142778, Note_on_c, 0, 69, 81
2, 142779, Note_on_c, 0, 67, 0
2, 142791, Note_on_c, 0, 66, 70
2, 142805, Note_on_c, 0, 69, 0
2, 142849, Note_on_c, 0, 66, 0
2, 142876, Note_on_c, 0, 67, 71
2, 142955, Note_on_c, 0, 67, 0
2, 142966, Note_on_c, 0, 64, 69
2, 142972, Note_on_c, 0, 74, 83
2, 142993, Note_on_c, 0, 74, 0
2, 143041, Note_on_c, 0, 64, 0
2, 143062, Note_on_c, 0, 66, 69
2, 143157, Note_on_c, 0, 66, 0
2, 143169, Note_on_c, 0, 71, 72
2, 143170, Note_on_c, 0, 67, 60
2, 143193, Note_on_c, 0, 71, 0
2, 143247, Note_on_c, 0, 67, 0
2, 143270, Note_on_c, 0, 66, 60
2, 143294, Control_c, 0, 67, 12
2, 143310, Control_c, 0, 67, 18
2, 143325, Control_c, 0, 67, 23
2, 143339, Control_c, 0, 67, 26
2, 143339, Note_on_c, 0, 66, 0
2, 143355, Control_c, 0, 67, 27
2, 143370, Control_c, 0, 67, 28
2, 143371, Note_on_c, 0, 67, 42
2, 143371, Note_on_c, 0, 74, 78
2, 143386, Control_c, 0, 67, 30
2, 143401, Control_c, 0, 67, 31
2, 143411, Note_on_c, 0, 67, 0
2, 143424, Note_on_c, 0, 74, 0
2, 143431, Control_c, 0, 67, 30
2, 143442, Note_on_c, 0, 72, 77
2, 143446, Control_c, 0, 67, 30
2, 143448, Note_on_c, 0, 69, 57
2, 143460, Control_c, 0, 67, 29
2, 143476, Control_c, 0, 67, 28
2, 143491, Control_c, 0, 67, 28
2, 143507, Control_c, 0, 67, 27
2, 143508, Note_on_c, 0, 69, 0
2, 143518, Note_on_c, 0, 72, 0
2, 143524, Note_on_c, 0, 74, 82
2, 143530, Note_on_c, 0, 67, 56
2, 143547, Note_on_c, 0, 74, 0
2, 143598, Note_on_c, 0, 67, 0
2, 143613, Control_c, 0, 67, 26
2, 143621, Note_on_c, 0, 69, 57
2, 143628, Control_c, 0, 67, 26
2, 143643, Control_c, 0, 67, 25
2, 143658, Control_c, 0, 67, 25
2, 143674, Control_c, 0, 67, 24
2, 143689, Control_c, 0, 67, 23
2, 143694, Note_on_c, 0, 69, 0
2, 143705, Control_c, 0, 67, 23
2, 143718, Note_on_c, 0, 65, 60
2, 143719, Note_on_c, 0, 71, 79
2, 143720, Control_c, 0, 67, 22
2, 143750, Note_on_c, 0, 71, 0
2, 143760, Note_on_c, 0, 65, 0
2, 143802, Note_on_c, 0, 67, 64
2, 143857, Control_c, 0, 67, 22
2, 143873, Control_c, 0, 67, 21
2, 143880, Note_on_c, 0, 67, 0
2, 143901, Note_on_c, 0, 64, 55
2, 143905, Note_on_c, 0, 79, 83
2, 143940, Control_c, 0, 67, 23
2, 143941, Note_on_c, 0, 79, 0
2, 143956, Control_c, 0, 67, 25
2, 143970, Control_c, 0, 67, 26
2, 143986, Control_c, 0, 67, 26
2, 144000, Note_on_c, 0, 64, 0
2, 144001, Control_c, 0, 67, 27
2, 144015, Note_on_c, 0, 62, 62
2, 144016, Control_c, 0, 67, 27
2, 144093, Note_on_c, 0, 62, 0
2, 144099, Note_on_c, 0, 70, 79
2, 144117, Note_on_c, 0, 64, 59
2, 144123, Control_c, 0, 67, 28
2, 144181, Note_on_c, 0, 64, 0
2, 144183, Control_c, 0, 67, 27
2, 144208, Note_on_c, 0, 65, 62
2, 144214, Control_c, 0, 67, 27
2, 144229, Control_c, 0, 67, 26
2, 144244, Control_c, 0, 67, 25
2, 144259, Control_c, 0, 67, 24
2, 144272, Note_on_c, 0, 65, 0
2, 144274, Note_on_c, 0, 70, 0
2, 144275, Control_c, 0, 67, 23
2, 144282, Note_on_c, 0, 67, 79
2, 144290, Control_c, 0, 67, 22
2, 144294, Note_on_c, 0, 64, 63
2, 144305, Control_c, 0, 67, 21
2, 144307, Note_on_c, 0, 67, 0
2, 144320, Control_c, 0, 67, 20
2, 144334, Note_on_c, 0, 76, 16
2, 144335, Control_c, 0, 67, 19
2, 144351, Control_c, 0, 67, 18
2, 144359, Note_on_c, 0, 64, 0
2, 144366, Control_c, 0, 67, 18
2, 144378, Note_on_c, 0, 65, 63
2, 144380, Control_c, 0, 67, 17
2, 144396, Control_c, 0, 67, 16
2, 144411, Control_c, 0, 67, 15
2, 144411, Note_on_c, 0, 76, 0
2, 144427, Control_c, 0, 67, 15
2, 144441, Control_c, 0, 67, 14
2, 144456, Control_c, 0, 67, 13
2, 144465, Note_on_c, 0, 65, 0
2, 144472, Control_c, 0, 67, 12
2, 144473, Note_on_c, 0, 72, 76
2, 144476, Note_on_c, 0, 62, 64
2, 144487, Control_c, 0, 67, 11
2, 144495, Note_on_c, 0, 72, 0
2, 144558, Note_on_c, 0, 62, 0
2, 144563, Note_on_c, 0, 64, 64
2, 144564, Control_c, 0, 67, 10
2, 144579, Control_c, 0, 67, 10
2, 144594, Control_c, 0, 67, 9
2, 144609, Control_c, 0, 67, 8
2, 144625, Control_c, 0, 67, 0
2, 144631, Note_on_c, 0, 64, 0
2, 144663, Note_on_c, 0, 65, 64
2, 144668, Note_on_c, 0, 69, 77
2, 144699, Note_on_c, 0, 69, 0
2, 144741, Note_on_c, 0, 65, 0
2, 144763, Note_on_c, 0, 64, 61
2, 144857, Note_on_c, 0, 64, 0
2, 144873, Note_on_c, 0, 65, 59
2, 144875, Note_on_c, 0, 74, 82
2, 144934, Note_on_c, 0, 65, 0
2, 144947, Note_on_c, 0, 74, 0
2, 144953, Note_on_c, 0, 72, 81
2, 144958, Note_on_c, 0, 67, 64
2, 145029, Note_on_c, 0, 72, 0
2, 145035, Note_on_c, 0, 67, 0
2, 145044, Note_on_c, 0, 74, 87
2, 145046, Note_on_c, 0, 65, 62
2, 145115, Note_on_c, 0, 65, 0
2, 145122, Note_on_c, 0, 74, 0
2, 145129, Note_on_c, 0, 76, 77
2, 145138, Note_on_c, 0, 67, 70
2, 145209, Note_on_c, 0, 67, 0
2, 145209, Note_on_c, 0, 76, 0
2, 145223, Note_on_c, 0, 72, 80
2, 145230, Note_on_c, 0, 64, 59
2, 145288, Note_on_c, 0, 64, 0
2, 145291, Note_on_c, 0, 72, 0
2, 145295, Note_on_c, 0, 65, 65
2, 145305, Note_on_c, 0, 74, 82
2, 145334, Note_on_c, 0, 65, 0
2, 145395, Note_on_c, 0, 74, 0
2, 145407, Note_on_c, 0, 71, 76
2, 145410, Note_on_c, 0, 62, 79
2, 145437, Note_on_c, 0, 62, 0
2, 145473, Note_on_c, 0, 71, 0
2, 145502, Note_on_c, 0, 69, 65
2, 145538, Note_on_c, 0, 69, 0
2, 145605, Note_on_c, 0, 67, 82
2, 145607, Note_on_c, 0, 71, 75
2, 145655, Note_on_c, 0, 71, 0
2, 145667, Note_on_c, 0, 67, 0
2, 145685, Note_on_c, 0, 72, 81
2, 145692, Note_on_c, 0, 65, 82
2, 145750, Note_on_c, 0, 72, 0
2, 145768, Note_on_c, 0, 65, 0
2, 145771, Note_on_c, 0, 71, 77
2, 145780, Note_on_c, 0, 67, 76
2, 145822, Note_on_c, 0, 71, 0
2, 145833, Note_on_c, 0, 67, 0
2, 145848, Note_on_c, 0, 72, 84
2, 145873, Note_on_c, 0, 69, 71
2, 145902, Note_on_c, 0, 69, 0
2, 145902, Note_on_c, 0, 72, 0
2, 145950, Note_on_c, 0, 65, 72
2, 145951, Note_on_c, 0, 69, 69
2, 145983, Note_on_c, 0, 65, 0
2, 145987, Note_on_c, 0, 69, 0
2, 146031, Note_on_c, 0, 71, 76
2, 146041, Note_on_c, 0, 67, 69
2, 146070, Note_on_c, 0, 67, 0
2, 146074, Note_on_c, 0, 71, 0
2, 146125, Note_on_c, 0, 64, 73
2, 146125, Note_on_c, 0, 67, 84
2, 146157, Note_on_c, 0, 67, 0
2, 146196, Note_on_c, 0, 64, 0
2, 146227, Note_on_c, 0, 62, 76
2, 146306, Note_on_c, 0, 62, 0
2, 146325, Note_on_c, 0, 64, 62
2, 146331, Note_on_c, 0, 72, 84
2, 146382, Note_on_c, 0, 64, 0
2, 146395, Note_on_c, 0, 72, 0
2, 146414, Note_on_c, 0, 71, 77
2, 146418, Note_on_c, 0, 65, 62
2, 146472, Note_on_c, 0, 71, 0
2, 146498, Note_on_c, 0, 65, 0
2, 146503, Note_on_c, 0, 64, 65
2, 146503, Note_on_c, 0, 72, 84
2, 146566, Note_on_c, 0, 64, 0
2, 146571, Note_on_c, 0, 72, 0
2, 146591, Note_on_c, 0, 74, 81
2, 146598, Note_on_c, 0, 65, 69
2, 146667, Note_on_c, 0, 65, 0
2, 146667, Note_on_c, 0, 74, 0
2, 146680, Note_on_c, 0, 70, 80
2, 146683, Note_on_c, 0, 62, 63
2, 146744, Note_on_c, 0, 70, 0
2, 146756, Note_on_c, 0, 62, 0
2, 146769, Note_on_c, 0, 72, 71
2, 146780, Note_on_c, 0, 64, 59
2, 146820, Note_on_c, 0, 64, 0
2, 146854, Note_on_c, 0, 72, 0
2, 146869, Note_on_c, 0, 60, 74
2, 146869, Note_on_c, 0, 69, 72
2, 146892, Note_on_c, 0, 60, 0
2, 146924, Note_on_c, 0, 69, 0
2, 146962, Note_on_c, 0, 67, 63
2, 147021, Note_on_c, 0, 67, 0
2, 147060, Note_on_c, 0, 65, 77
2, 147067, Note_on_c, 0, 69, 74
2, 147116, Note_on_c, 0, 69, 0
2, 147133, Note_on_c, 0, 65, 0
2, 147146, Note_on_c, 0, 70, 75
2, 147159, Note_on_c, 0, 64, 68
2, 147212, Note_on_c, 0, 70, 0
2, 147233, Note_on_c, 0, 64, 0
2, 147238, Note_on_c, 0, 65, 75
2, 147238, Note_on_c, 0, 69, 75
2, 147298, Note_on_c, 0, 65, 0
2, 147300, Note_on_c, 0, 69, 0
2, 147317, Note_on_c, 0, 70, 76
2, 147326, Note_on_c, 0, 67, 72
2, 147357, Note_on_c, 0, 67, 0
2, 147387, Note_on_c, 0, 70, 0
2, 147412, Note_on_c, 0, 64, 67
2, 147420, Note_on_c, 0, 67, 76
2, 147444, Note_on_c, 0, 64, 0
2, 147465, Note_on_c, 0, 67, 0
2, 147488, Note_on_c, 0, 69, 72
2, 147505, Note_on_c, 0, 65, 69
2, 147529, Note_on_c, 0, 65, 0
2, 147545, Note_on_c, 0, 69, 0
2, 147590, Note_on_c, 0, 65, 75
2, 147596, Note_on_c, 0, 62, 73
2, 147622, Note_on_c, 0, 65, 0
2, 147635, Note_on_c, 0, 67, 67
2, 147663, Note_on_c, 0, 62, 0
2, 147678, Note_on_c, 0, 67, 0
2, 147691, Note_on_c, 0, 65, 69
2, 147695, Note_on_c, 0, 60, 68
2, 147726, Note_on_c, 0, 65, 0
2, 147736, Note_on_c, 0, 67, 66
2, 147771, Note_on_c, 0, 60, 0
2, 147780, Note_on_c, 0, 62, 71
2, 147780, Note_on_c, 0, 67, 0
2, 147804, Note_on_c, 0, 65, 67
2, 147835, Note_on_c, 0, 65, 0
2, 147837, Note_on_c, 0, 62, 0
2, 147849, Note_on_c, 0, 67, 62
2, 147865, Note_on_c, 0, 64, 67
2, 147883, Note_on_c, 0, 67, 0
2, 147901, Note_on_c, 0, 65, 66
2, 147925, Note_on_c, 0, 64, 0
2, 147930, Note_on_c, 0, 65, 0
2, 147945, Note_on_c, 0, 67, 64
2, 147953, Note_on_c, 0, 62, 64
2, 147976, Note_on_c, 0, 67, 0
2, 147996, Note_on_c, 0, 65, 70
2, 148014, Note_on_c, 0, 62, 0
2, 148032, Note_on_c, 0, 64, 73
2, 148037, Note_on_c, 0, 65, 0
2, 148042, Note_on_c, 0, 67, 79
2, 148074, Note_on_c, 0, 67, 0
2, 148091, Note_on_c, 0, 64, 0
2, 148094, Note_on_c, 0, 65, 73
2, 148119, Note_on_c, 0, 60, 67
2, 148136, Note_on_c, 0, 65, 0
2, 148146, Note_on_c, 0, 67, 75
2, 148168, Note_on_c, 0, 60, 0
2, 148173, Note_on_c, 0, 67, 0
2, 148180, Note_on_c, 0, 65, 71
2, 148207, Note_on_c, 0, 62, 72
2, 148214, Note_on_c, 0, 65, 0
2, 148223, Note_on_c, 0, 67, 68
2, 148244, Note_on_c, 0, 62, 0
2, 148277, Note_on_c, 0, 65, 87
2, 148279, Note_on_c, 0, 67, 0
2, 148282, Note_on_c, 0, 59, 74
2, 148366, Note_on_c, 0, 59, 0
2, 148372, Note_on_c, 0, 57, 70
2, 148453, Note_on_c, 0, 65, 0
2, 148461, Note_on_c, 0, 57, 0
2, 148463, Note_on_c, 0, 59, 76
2, 148479, Note_on_c, 0, 74, 88
2, 148521, Note_on_c, 0, 59, 0
2, 148565, Note_on_c, 0, 60, 69
2, 148571, Note_on_c, 0, 72, 90
2, 148578, Note_on_c, 0, 74, 0
2, 148638, Note_on_c, 0, 60, 0
2, 148639, Note_on_c, 0, 72, 0
2, 148646, Note_on_c, 0, 59, 70
2, 148649, Note_on_c, 0, 74, 92
2, 148684, Note_on_c, 0, 74, 0
2, 148709, Note_on_c, 0, 59, 0
2, 148736, Note_on_c, 0, 60, 71
2, 148819, Note_on_c, 0, 60, 0
2, 148825, Note_on_c, 0, 65, 89
2, 148837, Note_on_c, 0, 57, 69
2, 148846, Note_on_c, 0, 65, 0
2, 148905, Note_on_c, 0, 57, 0
2, 148922, Note_on_c, 0, 59, 83
2, 148973, Note_on_c, 0, 59, 0
2, 149015, Note_on_c, 0, 64, 88
2, 149019, Note_on_c, 0, 60, 80
2, 149084, Note_on_c, 0, 64, 0
2, 149108, Note_on_c, 0, 62, 81
2, 149183, Note_on_c, 0, 62, 0
2, 149205, Note_on_c, 0, 48, 83
2, 149210, Note_on_c, 0, 64, 79
2, 149255, Note_on_c, 0, 48, 0
2, 149283, Note_on_c, 0, 47, 86
2, 149289, Note_on_c, 0, 64, 0
2, 149302, Note_on_c, 0, 65, 79
2, 149351, Note_on_c, 0, 47, 0
2, 149378, Note_on_c, 0, 48, 98
2, 149393, Note_on_c, 0, 64, 81
2, 149396, Note_on_c, 0, 65, 0
2, 149415, Note_on_c, 0, 48, 0
2, 149477, Note_on_c, 0, 64, 0
2, 149479, Note_on_c, 0, 60, 0
2, 149488, Note_on_c, 0, 65, 78
2, 149583, Note_on_c, 0, 45, 82
2, 149593, Note_on_c, 0, 62, 82
2, 149596, Note_on_c, 0, 65, 0
2, 149597, Note_on_c, 0, 43, 72
2, 149600, Note_on_c, 0, 59, 67
2, 149610, Note_on_c, 0, 45, 0
2, 149623, Note_on_c, 0, 43, 0
2, 149673, Note_on_c, 0, 62, 0
2, 149679, Note_on_c, 0, 64, 74
2, 149739, Note_on_c, 0, 64, 0
2, 149785, Note_on_c, 0, 52, 88
2, 149786, Note_on_c, 0, 59, 0
2, 149809, Note_on_c, 0, 60, 82
2, 149837, Note_on_c, 0, 50, 83
2, 149839, Note_on_c, 0, 52, 0
2, 149873, Note_on_c, 0, 59, 72
2, 149885, Note_on_c, 0, 52, 73
2, 149902, Note_on_c, 0, 50, 0
2, 149911, Note_on_c, 0, 60, 0
2, 149962, Note_on_c, 0, 59, 0
2, 149975, Note_on_c, 0, 57, 67
2, 150046, Note_on_c, 0, 57, 0
2, 150086, Note_on_c, 0, 60, 64
2, 150146, Note_on_c, 0, 52, 0
2, 150149, Note_on_c, 0, 60, 0
2, 150189, Note_on_c, 0, 50, 80
2, 150192, Note_on_c, 0, 59, 70
2, 150266, Note_on_c, 0, 59, 0
2, 150273, Note_on_c, 0, 57, 59
2, 150355, Note_on_c, 0, 57, 0
2, 150367, Note_on_c, 0, 55, 67
2, 150418, Note_on_c, 0, 55, 0
2, 150463, Note_on_c, 0, 59, 63
2, 150527, Note_on_c, 0, 59, 0
2, 150552, Note_on_c, 0, 50, 0
2, 150580, Note_on_c, 0, 57, 64
2, 150603, Control_c, 0, 67, 14
2, 150619, Control_c, 0, 67, 22
2, 150633, Control_c, 0, 67, 32
2, 150648, Control_c, 0, 67, 47
2, 150664, Control_c, 0, 67, 65
2, 150679, Control_c, 0, 67, 82
2, 150694, Control_c, 0, 67, 90
2, 150709, Control_c, 0, 67, 93
2, 150724, Control_c, 0, 67, 94
2, 150754, Control_c, 0, 67, 92
2, 150769, Control_c, 0, 67, 90
2, 150769, Note_on_c, 0, 55, 56
2, 150785, Control_c, 0, 67, 89
2, 150785, Note_on_c, 0, 48, 53
2, 150815, Control_c, 0, 67, 89
2, 150853, Control_c, 0, 67, 88
2, 150858, Note_on_c, 0, 48, 0
2, 150869, Control_c, 0, 67, 87
2, 150884, Control_c, 0, 67, 85
2, 150887, Note_on_c, 0, 47, 62
2, 150900, Control_c, 0, 67, 83
2, 150914, Control_c, 0, 67, 81
2, 150929, Control_c, 0, 67, 77
2, 150931, Note_on_c, 0, 57, 0
2, 150945, Control_c, 0, 67, 69
2, 150959, Note_on_c, 0, 47, 0
2, 150960, Control_c, 0, 67, 56
2, 150965, Note_on_c, 0, 48, 64
2, 150965, Note_on_c, 0, 55, 0
2, 150974, Control_c, 0, 67, 38
2, 150974, Note_on_c, 0, 54, 64
2, 150990, Control_c, 0, 67, 29
2, 151005, Control_c, 0, 67, 30
2, 151021, Control_c, 0, 67, 32
2, 151028, Note_on_c, 0, 48, 0
2, 151036, Control_c, 0, 67, 33
2, 151050, Control_c, 0, 67, 33
2, 151060, Note_on_c, 0, 50, 63
2, 151064, Note_on_c, 0, 54, 0
2, 151096, Control_c, 0, 67, 32
2, 151112, Control_c, 0, 67, 28
2, 151127, Control_c, 0, 67, 19
2, 151143, Control_c, 0, 67, 0
2, 151149, Note_on_c, 0, 50, 0
2, 151151, Note_on_c, 0, 47, 66
2, 151157, Note_on_c, 0, 59, 67
2, 151175, Note_on_c, 0, 55, 50
2, 151220, Note_on_c, 0, 47, 0
2, 151233, Note_on_c, 0, 55, 0
2, 151239, Note_on_c, 0, 48, 54
2, 151307, Note_on_c, 0, 48, 0
2, 151336, Note_on_c, 0, 60, 70
2, 151341, Note_on_c, 0, 59, 0
2, 151344, Note_on_c, 0, 45, 65
2, 151408, Note_on_c, 0, 45, 0
2, 151411, Note_on_c, 0, 54, 68
2, 151427, Note_on_c, 0, 48, 60
2, 151445, Note_on_c, 0, 54, 0
2, 151493, Note_on_c, 0, 48, 0
2, 151508, Note_on_c, 0, 55, 70
2, 151513, Note_on_c, 0, 47, 63
2, 151559, Note_on_c, 0, 55, 0
2, 151585, Note_on_c, 0, 47, 0
2, 151590, Note_on_c, 0, 52, 66
2, 151602, Note_on_c, 0, 48, 64
2, 151650, Note_on_c, 0, 52, 0
2, 151660, Note_on_c, 0, 48, 0
2, 151662, Note_on_c, 0, 60, 0
2, 151690, Note_on_c, 0, 50, 69
2, 151695, Note_on_c, 0, 54, 80
2, 151773, Note_on_c, 0, 50, 0
2, 151780, Note_on_c, 0, 52, 66
2, 151860, Note_on_c, 0, 52, 0
2, 151884, Note_on_c, 0, 57, 78
2, 151889, Note_on_c, 0, 48, 70
2, 151918, Note_on_c, 0, 57, 0
2, 151944, Note_on_c, 0, 48, 0
2, 151980, Note_on_c, 0, 50, 66
2, 152060, Note_on_c, 0, 50, 0
2, 152076, Note_on_c, 0, 54, 0
2, 152082, Note_on_c, 0, 62, 88
2, 152085, Note_on_c, 0, 47, 74
2, 152162, Note_on_c, 0, 47, 0
2, 152167, Note_on_c, 0, 50, 64
2, 152241, Note_on_c, 0, 50, 0
2, 152268, Note_on_c, 0, 59, 77
2, 152271, Note_on_c, 0, 48, 55
2, 152294, Note_on_c, 0, 59, 0
2, 152334, Note_on_c, 0, 48, 0
2, 152344, Note_on_c, 0, 50, 72
2, 152449, Note_on_c, 0, 50, 0
2, 152455, Note_on_c, 0, 52, 69
2, 152465, Note_on_c, 0, 55, 82
2, 152481, Note_on_c, 0, 62, 0
2, 152519, Note_on_c, 0, 52, 0
2, 152543, Note_on_c, 0, 53, 72
2, 152634, Note_on_c, 0, 53, 0
2, 152639, Note_on_c, 0, 50, 74
2, 152642, Note_on_c, 0, 59, 88
2, 152680, Note_on_c, 0, 59, 0
2, 152715, Note_on_c, 0, 50, 0
2, 152729, Note_on_c, 0, 52, 71
2, 152822, Note_on_c, 0, 52, 0
2, 152842, Note_on_c, 0, 64, 88
2, 152844, Note_on_c, 0, 48, 69
2, 152877, Note_on_c, 0, 55, 0
2, 152927, Note_on_c, 0, 52, 72
2, 152930, Note_on_c, 0, 48, 0
2, 153023, Note_on_c, 0, 52, 0
2, 153030, Note_on_c, 0, 60, 77
2, 153031, Note_on_c, 0, 50, 71
2, 153055, Note_on_c, 0, 60, 0
2, 153113, Note_on_c, 0, 50, 0
2, 153114, Note_on_c, 0, 52, 74
2, 153209, Note_on_c, 0, 52, 0
2, 153222, Note_on_c, 0, 57, 85
2, 153227, Note_on_c, 0, 53, 78
2, 153228, Note_on_c, 0, 64, 0
2, 153307, Note_on_c, 0, 53, 0
2, 153316, Note_on_c, 0, 55, 74
2, 153395, Note_on_c, 0, 55, 0
2, 153407, Note_on_c, 0, 60, 87
2, 153410, Note_on_c, 0, 52, 80
2, 153438, Note_on_c, 0, 60, 0
2, 153478, Note_on_c, 0, 52, 0
2, 153490, Note_on_c, 0, 53, 74
2, 153583, Note_on_c, 0, 53, 0
2, 153604, Note_on_c, 0, 65, 91
2, 153609, Note_on_c, 0, 50, 76
2, 153640, Note_on_c, 0, 57, 0
2, 153694, Note_on_c, 0, 50, 0
2, 153694, Note_on_c, 0, 53, 73
2, 153768, Note_on_c, 0, 53, 0
2, 153795, Note_on_c, 0, 52, 71
2, 153795, Note_on_c, 0, 62, 73
2, 153821, Note_on_c, 0, 62, 0
2, 153873, Note_on_c, 0, 52, 0
2, 153878, Note_on_c, 0, 53, 78
2, 153972, Note_on_c, 0, 53, 0
2, 153975, Note_on_c, 0, 55, 80
2, 153988, Note_on_c, 0, 59, 83
2, 154013, Note_on_c, 0, 65, 0
2, 154056, Note_on_c, 0, 55, 0
2, 154074, Note_on_c, 0, 57, 76
2, 154142, Note_on_c, 0, 57, 0
2, 154165, Note_on_c, 0, 62, 90
2, 154169, Note_on_c, 0, 53, 81
2, 154201, Note_on_c, 0, 62, 0
2, 154221, Note_on_c, 0, 53, 0
2, 154254, Note_on_c, 0, 55, 80
2, 154326, Note_on_c, 0, 55, 0
2, 154344, Note_on_c, 0, 52, 76
2, 154357, Note_on_c, 0, 67, 90
2, 154392, Note_on_c, 0, 59, 0
2, 154438, Note_on_c, 0, 52, 0
2, 154443, Note_on_c, 0, 50, 80
2, 154534, Note_on_c, 0, 50, 0
2, 154539, Note_on_c, 0, 52, 77
2, 154542, Note_on_c, 0, 59, 83
2, 154600, Note_on_c, 0, 67, 0
2, 154603, Note_on_c, 0, 52, 0
2, 154606, Note_on_c, 0, 59, 0
2, 154625, Note_on_c, 0, 53, 79
2, 154714, Note_on_c, 0, 53, 0
2, 154727, Note_on_c, 0, 52, 74
2, 154728, Note_on_c, 0, 69, 93
2, 154742, Note_on_c, 0, 60, 67
2, 154805, Note_on_c, 0, 60, 0
2, 154808, Note_on_c, 0, 52, 0
2, 154816, Note_on_c, 0, 53, 75
2, 154829, Note_on_c, 0, 69, 0
2, 154896, Note_on_c, 0, 53, 0
2, 154915, Note_on_c, 0, 71, 102
2, 154922, Note_on_c, 0, 50, 77
2, 154928, Note_on_c, 0, 62, 88
2, 155001, Note_on_c, 0, 62, 0
2, 155012, Note_on_c, 0, 52, 76
2, 155013, Note_on_c, 0, 50, 0
2, 155038, Note_on_c, 0, 71, 0
2, 155092, Note_on_c, 0, 52, 0
2, 155121, Note_on_c, 0, 72, 104
2, 155126, Note_on_c, 0, 48, 79
2, 155130, Note_on_c, 0, 64, 88
2, 155171, Note_on_c, 0, 64, 0
2, 155201, Note_on_c, 0, 48, 0
2, 155222, Note_on_c, 0, 50, 70
2, 155291, Note_on_c, 0, 50, 0
2, 155298, Note_on_c, 0, 52, 79
2, 155317, Note_on_c, 0, 67, 90
2, 155367, Note_on_c, 0, 67, 0
2, 155383, Note_on_c, 0, 52, 0
2, 155386, Note_on_c, 0, 50, 78
2, 155392, Note_on_c, 0, 65, 92
2, 155447, Note_on_c, 0, 65, 0
2, 155456, Note_on_c, 0, 50, 0
2, 155489, Note_on_c, 0, 67, 91
2, 155490, Note_on_c, 0, 48, 71
2, 155524, Note_on_c, 0, 69, 27
2, 155526, Note_on_c, 0, 67, 0
2, 155560, Note_on_c, 0, 69, 0
2, 155587, Note_on_c, 0, 46, 75
2, 155593, Note_on_c, 0, 48, 0
2, 155664, Note_on_c, 0, 46, 0
2, 155679, Note_on_c, 0, 60, 89
2, 155688, Note_on_c, 0, 45, 80
2, 155714, Note_on_c, 0, 71, 28
2, 155715, Note_on_c, 0, 71, 0
2, 155723, Note_on_c, 0, 60, 0
2, 155747, Note_on_c, 0, 45, 0
2, 155769, Note_on_c, 0, 43, 77
2, 155850, Note_on_c, 0, 43, 0
2, 155874, Note_on_c, 0, 69, 88
2, 155887, Note_on_c, 0, 41, 83
2, 155898, Note_on_c, 0, 67, 88
2, 155915, Note_on_c, 0, 69, 0
2, 155952, Note_on_c, 0, 69, 87
2, 155968, Note_on_c, 0, 41, 0
2, 155970, Note_on_c, 0, 40, 78
2, 155975, Note_on_c, 0, 67, 0
2, 156059, Note_on_c, 0, 40, 0
2, 156063, Note_on_c, 0, 41, 79
2, 156134, Note_on_c, 0, 41, 0
2, 156161, Note_on_c, 0, 43, 79
2, 156212, Note_on_c, 0, 69, 0
2, 156228, Note_on_c, 0, 43, 0
2, 156255, Note_on_c, 0, 67, 88
2, 156261, Note_on_c, 0, 41, 81
2, 156335, Note_on_c, 0, 41, 0
2, 156341, Note_on_c, 0, 43, 76
2, 156427, Note_on_c, 0, 43, 0
2, 156438, Note_on_c, 0, 40, 82
2, 156512, Note_on_c, 0, 41, 81
2, 156524, Note_on_c, 0, 40, 0
2, 156566, Note_on_c, 0, 41, 0
2, 156576, Note_on_c, 0, 67, 0
2, 156607, Note_on_c, 0, 38, 94
2, 156691, Note_on_c, 0, 45, 79
2, 156699, Note_on_c, 0, 38, 0
2, 156774, Note_on_c, 0, 45, 0
2, 156790, Note_on_c, 0, 47, 74
2, 156805, Note_on_c, 0, 65, 74
2, 156847, Note_on_c, 0, 47, 0
2, 156874, Note_on_c, 0, 65, 0
2, 156883, Note_on_c, 0, 48, 68
2, 156886, Note_on_c, 0, 64, 78
2, 156968, Note_on_c, 0, 48, 0
2, 156979, Note_on_c, 0, 50, 80
2, 156991, Note_on_c, 0, 65, 81
2, 156996, Note_on_c, 0, 64, 0
2, 157041, Note_on_c, 0, 50, 0
2, 157069, Note_on_c, 0, 52, 71
2, 157069, Note_on_c, 0, 67, 81
2, 157072, Note_on_c, 0, 65, 0
2, 157139, Note_on_c, 0, 52, 0
2, 157147, Note_on_c, 0, 53, 83
2, 157155, Note_on_c, 0, 67, 0
2, 157167, Note_on_c, 0, 64, 79
2, 157209, Note_on_c, 0, 53, 0
2, 157228, Note_on_c, 0, 64, 0
2, 157239, Note_on_c, 0, 50, 77
2, 157248, Note_on_c, 0, 65, 77
2, 157334, Note_on_c, 0, 65, 0
2, 157351, Note_on_c, 0, 55, 89
2, 157362, Note_on_c, 0, 62, 75
2, 157403, Note_on_c, 0, 50, 0
2, 157428, Note_on_c, 0, 62, 0
2, 157444, Note_on_c, 0, 65, 68
2, 157512, Control_c, 0, 67, 42
2, 157516, Note_on_c, 0, 65, 0
2, 157527, Control_c, 0, 67, 101
2, 157542, Control_c, 0, 67, 127
2, 157545, Note_on_c, 0, 64, 66
2, 157571, Note_on_c, 0, 72, 0
2, 157629, Note_on_c, 0, 65, 69
2, 157667, Note_on_c, 0, 64, 0
2, 157692, Note_on_c, 0, 65, 0
2, 157734, Note_on_c, 0, 67, 63
2, 157749, Note_on_c, 0, 71, 62
2, 157775, Note_on_c, 0, 67, 0
2, 157845, Note_on_c, 0, 69, 61
2, 157851, Note_on_c, 0, 71, 0
2, 157917, Note_on_c, 0, 69, 0
2, 157943, Note_on_c, 0, 65, 61
2, 158004, Note_on_c, 0, 65, 0
2, 158027, Note_on_c, 0, 67, 57
2, 158055, Note_on_c, 0, 67, 0
2, 158119, Note_on_c, 0, 64, 61
2, 158165, Note_on_c, 0, 64, 0
2, 158205, Note_on_c, 0, 62, 59
2, 158279, Note_on_c, 0, 62, 0
2, 158284, Note_on_c, 0, 64, 59
2, 158312, Note_on_c, 0, 72, 76
2, 158336, Note_on_c, 0, 64, 0
2, 158366, Note_on_c, 0, 72, 0
2, 158379, Note_on_c, 0, 71, 84
2, 158391, Note_on_c, 0, 65, 49
2, 158434, Note_on_c, 0, 71, 0
2, 158455, Note_on_c, 0, 65, 0
2, 158458, Note_on_c, 0, 72, 86
2, 158477, Note_on_c, 0, 64, 60
2, 158479, Note_on_c, 0, 72, 0
2, 158553, Note_on_c, 0, 64, 0
2, 158592, Note_on_c, 0, 65, 58
2, 158642, Note_on_c, 0, 65, 0
2, 158658, Note_on_c, 0, 67, 80
2, 158670, Note_on_c, 0, 62, 72
2, 158681, Note_on_c, 0, 67, 0
2, 158712, Note_on_c, 0, 62, 0
2, 158770, Note_on_c, 0, 64, 58
2, 158829, Note_on_c, 0, 64, 0
2, 158838, Note_on_c, 0, 76, 85
2, 158872, Note_on_c, 0, 76, 0
2, 158874, Note_on_c, 0, 60, 59
2, 158878, Note_on_c, 0, 74, 85
2, 158923, Note_on_c, 0, 76, 78
2, 158931, Note_on_c, 0, 60, 0
2, 158939, Note_on_c, 0, 74, 0
2, 158951, Note_on_c, 0, 59, 62
2, 159021, Note_on_c, 0, 59, 0
2, 159032, Note_on_c, 0, 60, 62
2, 159095, Note_on_c, 0, 60, 0
2, 159130, Note_on_c, 0, 62, 63
2, 159183, Note_on_c, 0, 76, 0
2, 159192, Note_on_c, 0, 62, 0
2, 159216, Note_on_c, 0, 60, 56
2, 159223, Note_on_c, 0, 74, 83
2, 159301, Control_c, 0, 67, 127
2, 159305, Note_on_c, 0, 60, 0
2, 159313, Note_on_c, 0, 62, 68
2, 159316, Control_c, 0, 67, 125
2, 159330, Control_c, 0, 67, 127
2, 159376, Control_c, 0, 67, 120
2, 159393, Control_c, 0, 67, 113
2, 159406, Note_on_c, 0, 62, 0
2, 159407, Control_c, 0, 67, 114
2, 159420, Note_on_c, 0, 59, 68
2, 159423, Control_c, 0, 67, 117
2, 159438, Control_c, 0, 67, 116
2, 159440, Note_on_c, 0, 55, 0
2, 159453, Control_c, 0, 67, 108
2, 159469, Control_c, 0, 67, 90
2, 159483, Control_c, 0, 67, 60
2, 159490, Note_on_c, 0, 60, 74
2, 159491, Note_on_c, 0, 59, 0
2, 159494, Note_on_c, 0, 74, 0
2, 159499, Control_c, 0, 67, 29
2, 159514, Control_c, 0, 67, 0
2, 159546, Note_on_c, 0, 60, 0
2, 159591, Note_on_c, 0, 57, 86
2, 159668, Note_on_c, 0, 57, 0
2, 159679, Note_on_c, 0, 59, 75
2, 159756, Note_on_c, 0, 59, 0
2, 159759, Note_on_c, 0, 60, 69
2, 159789, Note_on_c, 0, 72, 78
2, 159814, Note_on_c, 0, 60, 0
2, 159837, Note_on_c, 0, 72, 0
2, 159849, Note_on_c, 0, 62, 70
2, 159864, Note_on_c, 0, 71, 84
2, 159899, Note_on_c, 0, 62, 0
2, 159928, Note_on_c, 0, 71, 0
2, 159942, Note_on_c, 0, 64, 72
2, 159943, Note_on_c, 0, 72, 79
2, 160008, Note_on_c, 0, 64, 0
2, 160018, Note_on_c, 0, 66, 74
2, 160025, Note_on_c, 0, 72, 0
2, 160026, Note_on_c, 0, 74, 78
2, 160039, Note_on_c, 0, 66, 0
2, 160114, Note_on_c, 0, 74, 0
2, 160116, Note_on_c, 0, 67, 67
2, 160119, Note_on_c, 0, 71, 77
2, 160133, Note_on_c, 0, 59, 76
2, 160134, Note_on_c, 0, 57, 73
2, 160157, Note_on_c, 0, 59, 0
2, 160162, Note_on_c, 0, 57, 0
2, 160183, Note_on_c, 0, 71, 0
2, 160213, Note_on_c, 0, 72, 73
2, 160304, Note_on_c, 0, 72, 0
2, 160305, Note_on_c, 0, 60, 86
2, 160311, Note_on_c, 0, 69, 78
2, 160325, Note_on_c, 0, 60, 0
2, 160335, Note_on_c, 0, 67, 0
2, 160380, Note_on_c, 0, 72, 74
2, 160381, Note_on_c, 0, 69, 0
2, 160445, Note_on_c, 0, 72, 0
2, 160478, Note_on_c, 0, 57, 87
2, 160482, Note_on_c, 0, 67, 74
2, 160490, Note_on_c, 0, 71, 75
2, 160501, Note_on_c, 0, 57, 0
2, 160553, Note_on_c, 0, 71, 0
2, 160573, Note_on_c, 0, 72, 77
2, 160666, Note_on_c, 0, 62, 91
2, 160674, Note_on_c, 0, 74, 81
2, 160676, Note_on_c, 0, 72, 0
2, 160700, Note_on_c, 0, 62, 0
2, 160703, Note_on_c, 0, 67, 0
2, 160747, Note_on_c, 0, 74, 0
2, 160758, Note_on_c, 0, 76, 61
2, 160831, Note_on_c, 0, 76, 0
2, 160853, Note_on_c, 0, 50, 75
2, 160860, Note_on_c, 0, 72, 69
2, 160861, Note_on_c, 0, 66, 71
2, 160880, Note_on_c, 0, 50, 0
2, 160919, Note_on_c, 0, 72, 0
2, 160920, Note_on_c, 0, 66, 0
2, 160931, Note_on_c, 0, 74, 75
2, 160999, Note_on_c, 0, 74, 0
2, 161044, Note_on_c, 0, 71, 63
2, 161045, Note_on_c, 0, 67, 64
2, 161058, Note_on_c, 0, 43, 62
2, 161071, Note_on_c, 0, 71, 0
2, 161074, Note_on_c, 0, 67, 0
2, 161144, Note_on_c, 0, 43, 0
2, 161169, Note_on_c, 0, 42, 52
2, 161249, Note_on_c, 0, 43, 65
2, 161253, Note_on_c, 0, 42, 0
2, 161260, Note_on_c, 0, 74, 75
2, 161293, Note_on_c, 0, 74, 0
2, 161298, Note_on_c, 0, 43, 0
2, 161330, Note_on_c, 0, 72, 82
2, 161333, Note_on_c, 0, 45, 63
2, 161375, Note_on_c, 0, 72, 0
2, 161403, Note_on_c, 0, 45, 0
2, 161415, Note_on_c, 0, 74, 81
2, 161433, Note_on_c, 0, 47, 66
2, 161441, Note_on_c, 0, 74, 0
2, 161488, Note_on_c, 0, 47, 0
2, 161531, Note_on_c, 0, 48, 62
2, 161596, Note_on_c, 0, 48, 0
2, 161616, Note_on_c, 0, 67, 74
2, 161626, Note_on_c, 0, 45, 65
2, 161641, Note_on_c, 0, 67, 0
2, 161692, Note_on_c, 0, 45, 0
2, 161717, Note_on_c, 0, 47, 64
2, 161791, Note_on_c, 0, 47, 0
2, 161796, Note_on_c, 0, 48, 66
2, 161811, Note_on_c, 0, 76, 79
2, 161882, Note_on_c, 0, 48, 0
2, 161900, Note_on_c, 0, 47, 63
2, 161966, Note_on_c, 0, 76, 0
2, 161974, Note_on_c, 0, 47, 0
2, 161987, Note_on_c, 0, 48, 65
2, 162004, Note_on_c, 0, 67, 78
2, 162048, Note_on_c, 0, 67, 0
2, 162052, Note_on_c, 0, 48, 0
2, 162074, Note_on_c, 0, 50, 68
2, 162077, Note_on_c, 0, 65, 82
2, 162126, Note_on_c, 0, 65, 0
2, 162148, Note_on_c, 0, 50, 0
2, 162168, Note_on_c, 0, 48, 68
2, 162171, Note_on_c, 0, 67, 79
2, 162174, Note_on_c, 0, 74, 80
2, 162194, Note_on_c, 0, 67, 0
2, 162244, Note_on_c, 0, 48, 0
2, 162267, Note_on_c, 0, 50, 61
2, 162341, Note_on_c, 0, 50, 0
2, 162368, Note_on_c, 0, 62, 79
2, 162369, Note_on_c, 0, 47, 64
2, 162392, Note_on_c, 0, 74, 0
2, 162394, Note_on_c, 0, 62, 0
2, 162414, Note_on_c, 0, 47, 0
2, 162452, Note_on_c, 0, 48, 64
2, 162525, Note_on_c, 0, 48, 0
2, 162552, Note_on_c, 0, 45, 66
2, 162566, Note_on_c, 0, 69, 71
2, 162566, Note_on_c, 0, 72, 84
2, 162603, Control_c, 0, 64, 46
2, 162619, Control_c, 0, 64, 118
2, 162634, Control_c, 0, 64, 127
2, 162643, Note_on_c, 0, 45, 0
2, 162658, Note_on_c, 0, 44, 69
2, 162671, Note_on_c, 0, 69, 0
2, 162686, Note_on_c, 0, 72, 0
2, 162725, Control_c, 0, 64, 94
2, 162741, Control_c, 0, 64, 63
2, 162745, Note_on_c, 0, 45, 73
2, 162750, Note_on_c, 0, 44, 0
2, 162756, Control_c, 0, 64, 0
2, 162765, Note_on_c, 0, 76, 83
2, 162807, Note_on_c, 0, 45, 0
2, 162833, Note_on_c, 0, 47, 72
2, 162833, Note_on_c, 0, 74, 91
2, 162841, Note_on_c, 0, 76, 0
2, 162898, Note_on_c, 0, 47, 0
2, 162900, Note_on_c, 0, 74, 0
2, 162912, Note_on_c, 0, 76, 89
2, 162920, Note_on_c, 0, 67, 82
2, 162927, Note_on_c, 0, 48, 67
2, 162941, Note_on_c, 0, 67, 0
2, 162955, Note_on_c, 0, 76, 0
2, 163001, Note_on_c, 0, 48, 0
2, 163023, Note_on_c, 0, 50, 68
2, 163089, Note_on_c, 0, 50, 0
2, 163105, Note_on_c, 0, 69, 95
2, 163110, Note_on_c, 0, 47, 74
2, 163133, Note_on_c, 0, 69, 0
2, 163190, Note_on_c, 0, 47, 0
2, 163215, Note_on_c, 0, 48, 71
2, 163303, Note_on_c, 0, 77, 91
2, 163312, Note_on_c, 0, 48, 0
2, 163312, Note_on_c, 0, 65, 80
2, 163313, Note_on_c, 0, 50, 70
2, 163401, Note_on_c, 0, 50, 0
2, 163408, Note_on_c, 0, 48, 71
2, 163459, Note_on_c, 0, 65, 0
2, 163463, Note_on_c, 0, 77, 0
2, 163495, Note_on_c, 0, 48, 0
2, 163495, Note_on_c, 0, 50, 76
2, 163499, Note_on_c, 0, 69, 86
2, 163546, Note_on_c, 0, 69, 0
2, 163557, Note_on_c, 0, 50, 0
2, 163576, Note_on_c, 0, 67, 86
2, 163578, Note_on_c, 0, 52, 75
2, 163619, Note_on_c, 0, 67, 0
2, 163655, Note_on_c, 0, 52, 0
2, 163667, Note_on_c, 0, 69, 88
2, 163669, Note_on_c, 0, 50, 66
2, 163670, Note_on_c, 0, 76, 89
2, 163698, Note_on_c, 0, 69, 0
2, 163755, Note_on_c, 0, 50, 0
2, 163763, Note_on_c, 0, 52, 65
2, 163839, Note_on_c, 0, 52, 0
2, 163857, Note_on_c, 0, 64, 85
2, 163860, Note_on_c, 0, 48, 75
2, 163892, Note_on_c, 0, 64, 0
2, 163908, Note_on_c, 0, 76, 0
2, 163922, Note_on_c, 0, 48, 0
2, 163959, Note_on_c, 0, 50, 70
2, 164041, Note_on_c, 0, 50, 0
2, 164044, Note_on_c, 0, 74, 90
2, 164045, Note_on_c, 0, 47, 75
2, 164048, Note_on_c, 0, 71, 77
2, 164106, Control_c, 0, 64, 59
2, 164112, Note_on_c, 0, 71, 0
2, 164113, Note_on_c, 0, 47, 0
2, 164121, Control_c, 0, 64, 74
2, 164128, Note_on_c, 0, 74, 0
2, 164135, Note_on_c, 0, 45, 74
2, 164136, Control_c, 0, 64, 127
2, 164182, Control_c, 0, 64, 104
2, 164197, Control_c, 0, 64, 65
2, 164212, Control_c, 0, 64, 0
2, 164219, Note_on_c, 0, 47, 78
2, 164226, Note_on_c, 0, 45, 0
2, 164237, Note_on_c, 0, 77, 89
2, 164299, Note_on_c, 0, 76, 90
2, 164319, Note_on_c, 0, 47, 0
2, 164319, Note_on_c, 0, 48, 71
2, 164325, Note_on_c, 0, 77, 0
2, 164364, Note_on_c, 0, 76, 0
2, 164376, Note_on_c, 0, 48, 0
2, 164393, Note_on_c, 0, 77, 96
2, 164397, Note_on_c, 0, 50, 71
2, 164397, Note_on_c, 0, 69, 85
2, 164415, Note_on_c, 0, 69, 0
2, 164433, Note_on_c, 0, 77, 0
2, 164474, Note_on_c, 0, 50, 0
2, 164475, Note_on_c, 0, 52, 76
2, 164558, Note_on_c, 0, 52, 0
2, 164567, Note_on_c, 0, 48, 75
2, 164573, Note_on_c, 0, 71, 103
2, 164598, Note_on_c, 0, 71, 0
2, 164677, Note_on_c, 0, 50, 76
2, 164682, Note_on_c, 0, 48, 0
2, 164776, Note_on_c, 0, 52, 76
2, 164778, Note_on_c, 0, 79, 97
2, 164781, Note_on_c, 0, 50, 0
2, 164791, Note_on_c, 0, 67, 80
2, 164875, Note_on_c, 0, 52, 0
2, 164877, Note_on_c, 0, 50, 77
2, 164916, Note_on_c, 0, 67, 0
2, 164957, Note_on_c, 0, 79, 0
2, 164970, Note_on_c, 0, 71, 87
2, 164973, Note_on_c, 0, 52, 77
2, 164974, Note_on_c, 0, 50, 0
2, 165029, Note_on_c, 0, 71, 0
2, 165032, Note_on_c, 0, 52, 0
2, 165047, Note_on_c, 0, 69, 81
2, 165060, Note_on_c, 0, 53, 76
2, 165089, Note_on_c, 0, 69, 0
2, 165142, Note_on_c, 0, 53, 0
2, 165146, Note_on_c, 0, 52, 69
2, 165146, Note_on_c, 0, 71, 78
2, 165148, Note_on_c, 0, 77, 73
2, 165157, Note_on_c, 0, 76, 76
2, 165169, Note_on_c, 0, 71, 0
2, 165223, Note_on_c, 0, 52, 0
2, 165237, Note_on_c, 0, 53, 74
2, 165306, Note_on_c, 0, 53, 0
2, 165321, Note_on_c, 0, 76, 0
2, 165325, Note_on_c, 0, 52, 77
2, 165331, Note_on_c, 0, 67, 86
2, 165368, Note_on_c, 0, 77, 0
2, 165374, Note_on_c, 0, 52, 0
2, 165378, Note_on_c, 0, 67, 0
2, 165395, Note_on_c, 0, 53, 77
2, 165506, Note_on_c, 0, 53, 0
2, 165509, Note_on_c, 0, 48, 74
2, 165520, Note_on_c, 0, 76, 87
2, 165530, Note_on_c, 0, 72, 71
2, 165614, Note_on_c, 0, 48, 0
2, 165627, Note_on_c, 0, 47, 73
2, 165636, Note_on_c, 0, 72, 0
2, 165711, Note_on_c, 0, 48, 79
2, 165714, Note_on_c, 0, 47, 0
2, 165716, Note_on_c, 0, 77, 87
2, 165720, Note_on_c, 0, 76, 0
2, 165799, Note_on_c, 0, 48, 0
2, 165808, Note_on_c, 0, 50, 76
2, 165881, Note_on_c, 0, 50, 0
2, 165910, Note_on_c, 0, 79, 95
2, 165918, Note_on_c, 0, 52, 64
2, 165927, Note_on_c, 0, 70, 72
2, 165950, Note_on_c, 0, 77, 0
2, 165999, Note_on_c, 0, 53, 71
2, 166023, Note_on_c, 0, 52, 0
2, 166091, Note_on_c, 0, 53, 0
2, 166102, Note_on_c, 0, 50, 62
2, 166154, Note_on_c, 0, 70, 0
2, 166193, Note_on_c, 0, 50, 0
2, 166204, Note_on_c, 0, 52, 61
2, 166290, Note_on_c, 0, 53, 67
2, 166292, Note_on_c, 0, 69, 73
2, 166295, Note_on_c, 0, 52, 0
2, 166362, Note_on_c, 0, 53, 0
2, 166385, Note_on_c, 0, 55, 67
2, 166467, Note_on_c, 0, 53, 70
2, 166472, Note_on_c, 0, 55, 0
2, 166553, Note_on_c, 0, 52, 73
2, 166553, Note_on_c, 0, 53, 0
2, 166622, Note_on_c, 0, 52, 0
2, 166651, Note_on_c, 0, 77, 87
2, 166655, Note_on_c, 0, 50, 71
2, 166677, Note_on_c, 0, 79, 0
2, 166740, Note_on_c, 0, 50, 0
2, 166742, Note_on_c, 0, 48, 62
2, 166838, Note_on_c, 0, 48, 0
2, 166839, Note_on_c, 0, 47, 75
2, 166862, Note_on_c, 0, 69, 0
2, 166928, Note_on_c, 0, 47, 0
2, 166930, Note_on_c, 0, 45, 72
2, 167030, Note_on_c, 0, 45, 0
2, 167044, Note_on_c, 0, 47, 72
2, 167044, Note_on_c, 0, 67, 70
2, 167120, Note_on_c, 0, 47, 0
2, 167136, Note_on_c, 0, 43, 68
2, 167210, Note_on_c, 0, 43, 0
2, 167219, Note_on_c, 0, 45, 69
2, 167295, Note_on_c, 0, 45, 0
2, 167312, Note_on_c, 0, 47, 76
2, 167393, Note_on_c, 0, 47, 0
2, 167402, Note_on_c, 0, 48, 65
2, 167417, Note_on_c, 0, 76, 84
2, 167436, Note_on_c, 0, 77, 0
2, 167473, Note_on_c, 0, 48, 0
2, 167491, Note_on_c, 0, 50, 68
2, 167580, Note_on_c, 0, 50, 0
2, 167582, Note_on_c, 0, 47, 68
2, 167598, Note_on_c, 0, 67, 0
2, 167660, Note_on_c, 0, 47, 0
2, 167671, Note_on_c, 0, 48, 75
2, 167748, Note_on_c, 0, 48, 0
2, 167782, Note_on_c, 0, 65, 76
2, 167785, Note_on_c, 0, 45, 76
2, 167863, Note_on_c, 0, 45, 0
2, 167876, Note_on_c, 0, 48, 71
2, 167959, Note_on_c, 0, 48, 0
2, 167968, Note_on_c, 0, 47, 70
2, 168004, Note_on_c, 0, 76, 0
2, 168045, Note_on_c, 0, 48, 73
2, 168054, Note_on_c, 0, 47, 0
2, 168118, Note_on_c, 0, 48, 0
2, 168141, Note_on_c, 0, 74, 74
2, 168145, Note_on_c, 0, 50, 71
2, 168169, Note_on_c, 0, 74, 0
2, 168208, Note_on_c, 0, 50, 0
2, 168226, Note_on_c, 0, 52, 67
2, 168321, Note_on_c, 0, 72, 87
2, 168324, Note_on_c, 0, 52, 0
2, 168328, Note_on_c, 0, 53, 76
2, 168364, Note_on_c, 0, 72, 0
2, 168404, Note_on_c, 0, 50, 70
2, 168411, Note_on_c, 0, 53, 0
2, 168509, Note_on_c, 0, 71, 88
2, 168514, Note_on_c, 0, 55, 77
2, 168515, Note_on_c, 0, 50, 0
2, 168552, Note_on_c, 0, 71, 0
2, 168586, Note_on_c, 0, 55, 0
2, 168603, Note_on_c, 0, 57, 79
2, 168679, Note_on_c, 0, 57, 0
2, 168695, Note_on_c, 0, 67, 90
2, 168696, Note_on_c, 0, 53, 71
2, 168700, Note_on_c, 0, 65, 0
2, 168723, Note_on_c, 0, 67, 0
2, 168778, Note_on_c, 0, 55, 75
2, 168781, Note_on_c, 0, 53, 0
2, 168848, Note_on_c, 0, 55, 0
2, 168869, Note_on_c, 0, 57, 75
2, 168872, Note_on_c, 0, 72, 96
2, 168885, Note_on_c, 0, 64, 80
2, 168961, Note_on_c, 0, 57, 0
2, 168967, Note_on_c, 0, 59, 72
2, 169062, Note_on_c, 0, 59, 0
2, 169066, Note_on_c, 0, 55, 76
2, 169101, Note_on_c, 0, 64, 0
2, 169137, Note_on_c, 0, 55, 0
2, 169151, Note_on_c, 0, 57, 71
2, 169242, Note_on_c, 0, 57, 0
2, 169248, Note_on_c, 0, 62, 88
2, 169270, Note_on_c, 0, 53, 75
2, 169281, Note_on_c, 0, 70, 18
2, 169325, Note_on_c, 0, 70, 0
2, 169344, Note_on_c, 0, 53, 0
2, 169356, Note_on_c, 0, 55, 72
2, 169413, Note_on_c, 0, 55, 0
2, 169441, Note_on_c, 0, 52, 68
2, 169502, Note_on_c, 0, 72, 0
2, 169526, Note_on_c, 0, 52, 0
2, 169526, Note_on_c, 0, 53, 74
2, 169564, Note_on_c, 0, 62, 0
2, 169603, Note_on_c, 0, 53, 0
2, 169612, Note_on_c, 0, 71, 81
2, 169628, Note_on_c, 0, 55, 70
2, 169695, Note_on_c, 0, 65, 75
2, 169711, Note_on_c, 0, 55, 0
2, 169717, Note_on_c, 0, 57, 74
2, 169748, Note_on_c, 0, 71, 0
2, 169780, Note_on_c, 0, 57, 0
2, 169781, Note_on_c, 0, 53, 71
2, 169783, Note_on_c, 0, 65, 0
2, 169794, Note_on_c, 0, 64, 79
2, 169855, Note_on_c, 0, 55, 79
2, 169860, Note_on_c, 0, 53, 0
2, 169862, Note_on_c, 0, 64, 0
2, 169873, Note_on_c, 0, 62, 82
2, 169908, Note_on_c, 0, 55, 0
2, 169923, Note_on_c, 0, 62, 0
2, 169971, Note_on_c, 0, 67, 86
2, 169972, Note_on_c, 0, 52, 77
2, 169972, Note_on_c, 0, 72, 85
2, 170050, Note_on_c, 0, 67, 0
2, 170067, Note_on_c, 0, 69, 79
2, 170074, Note_on_c, 0, 72, 0
2, 170095, Note_on_c, 0, 52, 0
2, 170098, Note_on_c, 0, 69, 0
2, 170158, Note_on_c, 0, 74, 90
2, 170165, Note_on_c, 0, 65, 78
2, 170166, Note_on_c, 0, 53, 74
2, 170203, Note_on_c, 0, 53, 0
2, 170203, Note_on_c, 0, 65, 0
2, 170242, Note_on_c, 0, 67, 85
2, 170268, Note_on_c, 0, 74, 0
2, 170273, Note_on_c, 0, 67, 0
2, 170330, Note_on_c, 0, 55, 81
2, 170334, Note_on_c, 0, 67, 84
2, 170340, Note_on_c, 0, 64, 81
2, 170365, Note_on_c, 0, 55, 0
2, 170413, Note_on_c, 0, 67, 0
2, 170420, Note_on_c, 0, 72, 88
2, 170423, Note_on_c, 0, 64, 0
2, 170510, Note_on_c, 0, 56, 75
2, 170516, Note_on_c, 0, 62, 90
2, 170548, Note_on_c, 0, 72, 0
2, 170563, Note_on_c, 0, 56, 0
2, 170601, Note_on_c, 0, 71, 85
2, 170618, Note_on_c, 0, 62, 0
2, 170701, Note_on_c, 0, 71, 0
2, 170710, Note_on_c, 0, 72, 70
2, 170722, Note_on_c, 0, 60, 89
2, 170737, Note_on_c, 0, 45, 72
2, 170750, Control_c, 0, 67, 34
2, 170751, Note_on_c, 0, 72, 0
2, 170765, Control_c, 0, 67, 101
2, 170780, Control_c, 0, 67, 127
2, 170838, Note_on_c, 0, 65, 70
2, 170875, Note_on_c, 0, 45, 0
2, 170914, Note_on_c, 0, 65, 0
2, 170928, Note_on_c, 0, 64, 68
2, 170936, Note_on_c, 0, 55, 65
2, 170976, Note_on_c, 0, 55, 0
2, 170982, Note_on_c, 0, 64, 0
2, 171012, Note_on_c, 0, 62, 70
2, 171022, Note_on_c, 0, 53, 72
2, 171055, Note_on_c, 0, 53, 0
2, 171078, Note_on_c, 0, 62, 0
2, 171101, Note_on_c, 0, 55, 80
2, 171108, Note_on_c, 0, 64, 63
2, 171125, Note_on_c, 0, 55, 0
2, 171173, Note_on_c, 0, 64, 0
2, 171209, Note_on_c, 0, 65, 65
2, 171285, Note_on_c, 0, 65, 0
2, 171297, Note_on_c, 0, 48, 79
2, 171312, Note_on_c, 0, 62, 69
2, 171324, Note_on_c, 0, 48, 0
2, 171370, Note_on_c, 0, 62, 0
2, 171408, Note_on_c, 0, 64, 55
2, 171487, Note_on_c, 0, 64, 0
2, 171501, Note_on_c, 0, 65, 65
2, 171508, Note_on_c, 0, 57, 81
2, 171537, Note_on_c, 0, 57, 0
2, 171548, Note_on_c, 0, 55, 72
2, 171554, Note_on_c, 0, 65, 0
2, 171570, Note_on_c, 0, 64, 64
2, 171599, Note_on_c, 0, 55, 0
2, 171599, Note_on_c, 0, 57, 75
2, 171640, Note_on_c, 0, 64, 0
2, 171669, Note_on_c, 0, 65, 64
2, 171759, Note_on_c, 0, 65, 0
2, 171780, Note_on_c, 0, 67, 58
2, 171833, Note_on_c, 0, 57, 0
2, 171851, Note_on_c, 0, 67, 0
2, 171889, Note_on_c, 0, 55, 74
2, 171892, Note_on_c, 0, 65, 59
2, 171972, Note_on_c, 0, 65, 0
2, 171979, Note_on_c, 0, 67, 64
2, 172034, Note_on_c, 0, 67, 0
2, 172077, Note_on_c, 0, 64, 58
2, 172140, Note_on_c, 0, 64, 0
2, 172168, Note_on_c, 0, 65, 63
2, 172179, Control_c, 0, 67, 126
2, 172192, Note_on_c, 0, 60, 0
2, 172195, Control_c, 0, 67, 101
2, 172210, Control_c, 0, 67, 75
2, 172222, Note_on_c, 0, 65, 0
2, 172226, Control_c, 0, 67, 52
2, 172230, Note_on_c, 0, 55, 0
2, 172240, Control_c, 0, 67, 38
2, 172255, Control_c, 0, 67, 31
2, 172259, Note_on_c, 0, 62, 78
2, 172271, Control_c, 0, 67, 27
2, 172286, Control_c, 0, 67, 21
2, 172301, Control_c, 0, 67, 18
2, 172313, Note_on_c, 0, 62, 0
2, 172316, Control_c, 0, 67, 18
2, 172352, Note_on_c, 0, 60, 66
2, 172355, Control_c, 0, 67, 17
2, 172370, Control_c, 0, 67, 16
2, 172386, Control_c, 0, 67, 14
2, 172400, Control_c, 0, 67, 11
2, 172415, Control_c, 0, 67, 8
2, 172431, Control_c, 0, 67, 0
2, 172439, Note_on_c, 0, 53, 77
2, 172447, Note_on_c, 0, 62, 74
2, 172452, Note_on_c, 0, 60, 0
2, 172498, Note_on_c, 0, 53, 0
2, 172501, Note_on_c, 0, 62, 0
2, 172524, Note_on_c, 0, 64, 74
2, 172529, Note_on_c, 0, 52, 76
2, 172590, Note_on_c, 0, 52, 0
2, 172595, Note_on_c, 0, 64, 0
2, 172607, Note_on_c, 0, 53, 92
2, 172619, Note_on_c, 0, 62, 79
2, 172633, Note_on_c, 0, 53, 0
2, 172679, Note_on_c, 0, 62, 0
2, 172706, Note_on_c, 0, 64, 65
2, 172776, Note_on_c, 0, 64, 0
2, 172791, Note_on_c, 0, 50, 89
2, 172799, Note_on_c, 0, 60, 72
2, 172813, Note_on_c, 0, 50, 0
2, 172884, Note_on_c, 0, 60, 0
2, 172884, Note_on_c, 0, 62, 67
2, 172944, Note_on_c, 0, 62, 0
2, 172976, Note_on_c, 0, 55, 85
2, 172993, Note_on_c, 0, 60, 70
2, 172995, Note_on_c, 0, 64, 75
2, 173014, Note_on_c, 0, 55, 0
2, 173017, Note_on_c, 0, 53, 77
2, 173040, Note_on_c, 0, 60, 0
2, 173049, Note_on_c, 0, 64, 0
2, 173054, Note_on_c, 0, 62, 72
2, 173072, Note_on_c, 0, 53, 0
2, 173074, Note_on_c, 0, 55, 79
2, 173116, Note_on_c, 0, 62, 0
2, 173165, Note_on_c, 0, 64, 73
2, 173166, Note_on_c, 0, 60, 62
2, 173228, Note_on_c, 0, 64, 0
2, 173255, Note_on_c, 0, 65, 69
2, 173306, Note_on_c, 0, 65, 0
2, 173321, Note_on_c, 0, 55, 0
2, 173336, Note_on_c, 0, 60, 0
2, 173361, Note_on_c, 0, 53, 77
2, 173361, Note_on_c, 0, 64, 72
2, 173364, Note_on_c, 0, 60, 21
2, 173402, Note_on_c, 0, 60, 0
2, 173423, Note_on_c, 0, 64, 0
2, 173434, Note_on_c, 0, 65, 74
2, 173526, Note_on_c, 0, 59, 60
2, 173527, Note_on_c, 0, 65, 0
2, 173535, Note_on_c, 0, 62, 75
2, 173554, Note_on_c, 0, 53, 0
2, 173582, Note_on_c, 0, 59, 0
2, 173589, Note_on_c, 0, 62, 0
2, 173616, Note_on_c, 0, 64, 78
2, 173650, Note_on_c, 0, 64, 0
2, 173722, Note_on_c, 0, 60, 82
2, 173734, Note_on_c, 0, 52, 63
2, 173810, Note_on_c, 0, 52, 0
2, 173823, Note_on_c, 0, 50, 59
2, 173904, Note_on_c, 0, 50, 0
2, 173917, Note_on_c, 0, 52, 64
2, 173926, Note_on_c, 0, 55, 73
2, 173968, Note_on_c, 0, 55, 0
2, 173972, Note_on_c, 0, 52, 0
2, 173994, Note_on_c, 0, 53, 88
2, 174062, Note_on_c, 0, 53, 0
2, 174085, Note_on_c, 0, 55, 86
2, 174094, Note_on_c, 0, 52, 68
2, 174133, Note_on_c, 0, 55, 0
2, 174135, Note_on_c, 0, 57, 6
2, 174165, Note_on_c, 0, 52, 0
2, 174180, Note_on_c, 0, 53, 63
2, 174195, Note_on_c, 0, 57, 0
2, 174269, Note_on_c, 0, 48, 82
2, 174273, Note_on_c, 0, 53, 0
2, 174278, Note_on_c, 0, 50, 68
2, 174302, Note_on_c, 0, 48, 0
2, 174366, Note_on_c, 0, 50, 0
2, 174371, Note_on_c, 0, 52, 66
2, 174443, Note_on_c, 0, 52, 0
2, 174456, Note_on_c, 0, 57, 81
2, 174457, Note_on_c, 0, 53, 73
2, 174484, Note_on_c, 0, 55, 82
2, 174492, Note_on_c, 0, 57, 0
2, 174511, Note_on_c, 0, 53, 0
2, 174536, Note_on_c, 0, 57, 77
2, 174544, Note_on_c, 0, 55, 0
2, 174550, Note_on_c, 0, 52, 70
2, 174622, Note_on_c, 0, 52, 0
2, 174627, Note_on_c, 0, 53, 70
2, 174696, Note_on_c, 0, 53, 0
2, 174728, Note_on_c, 0, 55, 74
2, 174770, Note_on_c, 0, 57, 0
2, 174786, Note_on_c, 0, 55, 0
2, 174826, Note_on_c, 0, 53, 74
2, 174836, Note_on_c, 0, 55, 75
2, 174871, Note_on_c, 0, 60, 0
2, 174871, Note_on_c, 0, 60, 3
2, 174895, Note_on_c, 0, 53, 0
2, 175008, Note_on_c, 0, 52, 71
2, 175061, Note_on_c, 0, 52, 0
2, 175079, Note_on_c, 0, 55, 0
2, 175097, Note_on_c, 0, 53, 69
2, 175160, Note_on_c, 0, 53, 0
2, 175184, Note_on_c, 0, 50, 81
2, 175279, Note_on_c, 0, 48, 79
2, 175281, Note_on_c, 0, 50, 0
2, 175359, Note_on_c, 0, 48, 0
2, 175375, Note_on_c, 0, 50, 68
2, 175386, Note_on_c, 0, 53, 83
2, 175441, Note_on_c, 0, 50, 0
2, 175443, Note_on_c, 0, 53, 0
2, 175457, Note_on_c, 0, 52, 87
2, 175513, Note_on_c, 0, 52, 0
2, 175546, Note_on_c, 0, 53, 87
2, 175550, Note_on_c, 0, 50, 72
2, 175579, Note_on_c, 0, 53, 0
2, 175624, Note_on_c, 0, 50, 0
2, 175633, Note_on_c, 0, 48, 80
2, 175682, Note_on_c, 0, 48, 0
2, 175722, Note_on_c, 0, 47, 77
2, 175722, Note_on_c, 0, 50, 87
2, 175764, Note_on_c, 0, 50, 0
2, 175810, Note_on_c, 0, 47, 0
2, 175814, Note_on_c, 0, 45, 76
2, 175902, Note_on_c, 0, 55, 86
2, 175920, Note_on_c, 0, 43, 78
2, 175924, Note_on_c, 0, 45, 0
2, 175947, Note_on_c, 0, 60, 0
2, 175978, Note_on_c, 0, 43, 0
2, 175995, Note_on_c, 0, 41, 73
2, 176080, Note_on_c, 0, 41, 0
2, 176091, Note_on_c, 0, 59, 92
2, 176095, Note_on_c, 0, 43, 76
2, 176125, Control_c, 0, 64, 53
2, 176140, Control_c, 0, 64, 71
2, 176156, Control_c, 0, 64, 103
2, 176159, Note_on_c, 0, 55, 0
2, 176177, Control_c, 0, 64, 114
2, 176180, Note_on_c, 0, 43, 0
2, 176180, Note_on_c, 0, 45, 78
2, 176193, Control_c, 0, 64, 73
2, 176208, Control_c, 0, 64, 0
2, 176208, Note_on_c, 0, 59, 0
2, 176258, Note_on_c, 0, 45, 0
2, 176275, Note_on_c, 0, 60, 94
2, 176276, Note_on_c, 0, 43, 81
2, 176280, Note_on_c, 0, 57, 97
2, 176365, Note_on_c, 0, 41, 76
2, 176370, Note_on_c, 0, 43, 0
2, 176404, Note_on_c, 0, 57, 0
2, 176422, Note_on_c, 0, 60, 0
2, 176482, Note_on_c, 0, 62, 99
2, 176483, Note_on_c, 0, 40, 84
2, 176486, Note_on_c, 0, 59, 88
2, 176489, Note_on_c, 0, 41, 0
2, 176581, Note_on_c, 0, 38, 79
2, 176582, Note_on_c, 0, 40, 0
2, 176641, Note_on_c, 0, 59, 0
2, 176649, Note_on_c, 0, 62, 0
2, 176654, Note_on_c, 0, 38, 0
2, 176710, Note_on_c, 0, 36, 86
2, 176717, Note_on_c, 0, 64, 100
2, 176725, Note_on_c, 0, 60, 86
2, 176758, Control_c, 0, 64, 56
2, 176765, Note_on_c, 0, 60, 0
2, 176772, Note_on_c, 0, 64, 0
2, 176773, Control_c, 0, 64, 84
2, 176781, Note_on_c, 0, 36, 0
2, 176789, Control_c, 0, 64, 127
2, 176805, Note_on_c, 0, 48, 77
2, 176895, Control_c, 0, 64, 109
2, 176900, Note_on_c, 0, 52, 77
2, 176902, Note_on_c, 0, 48, 0
2, 176911, Control_c, 0, 64, 58
2, 176919, Note_on_c, 0, 58, 90
2, 176925, Control_c, 0, 64, 0
2, 176931, Note_on_c, 0, 67, 69
2, 176944, Note_on_c, 0, 68, 49
2, 176953, Note_on_c, 0, 58, 0
2, 176953, Note_on_c, 0, 69, 53
2, 176963, Note_on_c, 0, 52, 0
2, 176965, Note_on_c, 0, 67, 0
2, 176971, Note_on_c, 0, 68, 0
2, 176980, Note_on_c, 0, 69, 0
2, 177005, Note_on_c, 0, 48, 75
2, 177005, Note_on_c, 0, 65, 90
2, 177014, Note_on_c, 0, 57, 87
2, 177036, Note_on_c, 0, 57, 0
2, 177059, Note_on_c, 0, 65, 0
2, 177072, Note_on_c, 0, 48, 0
2, 177092, Note_on_c, 0, 67, 82
2, 177099, Note_on_c, 0, 58, 93
2, 177108, Note_on_c, 0, 36, 69
2, 177115, Note_on_c, 0, 38, 73
2, 177123, Note_on_c, 0, 58, 0
2, 177136, Note_on_c, 0, 67, 0
2, 177148, Note_on_c, 0, 36, 0
2, 177153, Note_on_c, 0, 38, 0
2, 177178, Note_on_c, 0, 48, 73
2, 177264, Note_on_c, 0, 48, 0
2, 177280, Note_on_c, 0, 60, 89
2, 177282, Note_on_c, 0, 64, 87
2, 177284, Note_on_c, 0, 55, 63
2, 177308, Note_on_c, 0, 60, 0
2, 177318, Note_on_c, 0, 55, 0
2, 177328, Note_on_c, 0, 64, 0
2, 177366, Note_on_c, 0, 48, 72
2, 177452, Note_on_c, 0, 48, 0
2, 177468, Note_on_c, 0, 69, 87
2, 177472, Note_on_c, 0, 65, 81
2, 177487, Note_on_c, 0, 36, 77
2, 177517, Note_on_c, 0, 67, 85
2, 177518, Note_on_c, 0, 69, 0
2, 177552, Note_on_c, 0, 69, 82
2, 177579, Note_on_c, 0, 67, 0
2, 177582, Note_on_c, 0, 36, 0
2, 177582, Note_on_c, 0, 38, 78
2, 177662, Note_on_c, 0, 38, 0
2, 177675, Note_on_c, 0, 40, 80
2, 177704, Note_on_c, 0, 65, 0
2, 177776, Note_on_c, 0, 41, 78
2, 177783, Note_on_c, 0, 40, 0
2, 177850, Note_on_c, 0, 41, 0
2, 177863, Note_on_c, 0, 67, 89
2, 177873, Note_on_c, 0, 64, 75
2, 177875, Note_on_c, 0, 43, 73
2, 177897, Note_on_c, 0, 69, 0
2, 177937, Note_on_c, 0, 43, 0
2, 177962, Note_on_c, 0, 45, 77
2, 178041, Note_on_c, 0, 47, 77
2, 178042, Note_on_c, 0, 45, 0
2, 178110, Note_on_c, 0, 47, 0
2, 178111, Note_on_c, 0, 67, 0
2, 178120, Note_on_c, 0, 64, 0
2, 178128, Note_on_c, 0, 48, 77
2, 178183, Note_on_c, 0, 48, 0
2, 178221, Note_on_c, 0, 36, 94
2, 178285, Note_on_c, 0, 36, 0
2, 178317, Note_on_c, 0, 48, 75
2, 178384, Note_on_c, 0, 48, 0
2, 178413, Note_on_c, 0, 50, 74
2, 178423, Note_on_c, 0, 65, 83
2, 178475, Note_on_c, 0, 50, 0
2, 178487, Note_on_c, 0, 65, 0
2, 178499, Note_on_c, 0, 64, 85
2, 178511, Note_on_c, 0, 48, 74
2, 178557, Note_on_c, 0, 64, 0
2, 178566, Note_on_c, 0, 48, 0
2, 178584, Note_on_c, 0, 65, 93
2, 178591, Note_on_c, 0, 36, 84
2, 178616, Note_on_c, 0, 65, 0
2, 178646, Note_on_c, 0, 36, 0
2, 178666, Note_on_c, 0, 48, 76
2, 178744, Note_on_c, 0, 48, 0
2, 178766, Note_on_c, 0, 53, 73
2, 178768, Note_on_c, 0, 62, 98
2, 178802, Note_on_c, 0, 62, 0
2, 178814, Note_on_c, 0, 53, 0
2, 178848, Note_on_c, 0, 48, 72
2, 178949, Note_on_c, 0, 48, 0
2, 178962, Note_on_c, 0, 67, 93
2, 178969, Note_on_c, 0, 47, 65
2, 179033, Control_c, 0, 64, 77
2, 179049, Control_c, 0, 64, 127
2, 179051, Note_on_c, 0, 47, 0
2, 179062, Note_on_c, 0, 48, 75
2, 179125, Control_c, 0, 64, 85
2, 179140, Control_c, 0, 64, 49
2, 179142, Note_on_c, 0, 48, 0
2, 179151, Note_on_c, 0, 47, 71
2, 179155, Control_c, 0, 64, 0
2, 179169, Note_on_c, 0, 62, 91
2, 179224, Note_on_c, 0, 62, 0
2, 179230, Note_on_c, 0, 47, 0
2, 179231, Note_on_c, 0, 45, 77
2, 179236, Note_on_c, 0, 60, 85
2, 179286, Note_on_c, 0, 67, 0
2, 179292, Note_on_c, 0, 60, 0
2, 179297, Note_on_c, 0, 45, 0
2, 179323, Note_on_c, 0, 43, 80
2, 179325, Note_on_c, 0, 65, 87
2, 179333, Note_on_c, 0, 62, 84
2, 179380, Note_on_c, 0, 62, 0
2, 179409, Note_on_c, 0, 43, 0
2, 179412, Note_on_c, 0, 41, 77
2, 179512, Note_on_c, 0, 55, 82
2, 179520, Note_on_c, 0, 40, 83
2, 179523, Note_on_c, 0, 41, 0
2, 179569, Note_on_c, 0, 55, 0
2, 179600, Note_on_c, 0, 38, 80
2, 179600, Note_on_c, 0, 65, 0
2, 179616, Note_on_c, 0, 40, 0
2, 179656, Note_on_c, 0, 38, 0
2, 179701, Note_on_c, 0, 60, 82
2, 179702, Note_on_c, 0, 64, 84
2, 179707, Note_on_c, 0, 36, 89
2, 179725, Control_c, 0, 64, 68
2, 179729, Note_on_c, 0, 60, 0
2, 179741, Control_c, 0, 64, 127
2, 179742, Note_on_c, 0, 64, 0
2, 179771, Note_on_c, 0, 36, 0
2, 179787, Control_c, 0, 64, 103
2, 179802, Control_c, 0, 64, 66
2, 179802, Note_on_c, 0, 48, 78
2, 179816, Control_c, 0, 64, 0
2, 179861, Note_on_c, 0, 48, 0
2, 179888, Note_on_c, 0, 68, 80
2, 179891, Note_on_c, 0, 59, 77
2, 179891, Note_on_c, 0, 65, 79
2, 179898, Note_on_c, 0, 50, 68
2, 179912, Note_on_c, 0, 48, 62
2, 179929, Note_on_c, 0, 59, 0
2, 179944, Note_on_c, 0, 48, 0
2, 179947, Note_on_c, 0, 65, 0
2, 179951, Note_on_c, 0, 50, 0
2, 179962, Note_on_c, 0, 68, 0
2, 180017, Note_on_c, 0, 48, 59
2, 180029, Note_on_c, 0, 47, 65
2, 180070, Note_on_c, 0, 47, 0
2, 180073, Note_on_c, 0, 60, 78
2, 180076, Note_on_c, 0, 64, 71
2, 180076, Note_on_c, 0, 67, 83
2, 180091, Note_on_c, 0, 48, 0
2, 180095, Note_on_c, 0, 52, 81
2, 180110, Note_on_c, 0, 60, 0
2, 180115, Note_on_c, 0, 64, 0
2, 180125, Note_on_c, 0, 67, 0
2, 180168, Note_on_c, 0, 52, 0
2, 180188, Note_on_c, 0, 48, 79
2, 180250, Note_on_c, 0, 48, 0
2, 180252, Note_on_c, 0, 71, 92
2, 180255, Note_on_c, 0, 62, 87
2, 180256, Note_on_c, 0, 68, 82
2, 180273, Note_on_c, 0, 53, 80
2, 180316, Note_on_c, 0, 62, 0
2, 180337, Note_on_c, 0, 68, 0
2, 180337, Note_on_c, 0, 71, 0
2, 180362, Note_on_c, 0, 48, 71
2, 180387, Note_on_c, 0, 53, 0
2, 180444, Note_on_c, 0, 48, 0
2, 180444, Note_on_c, 0, 72, 95
2, 180447, Note_on_c, 0, 64, 86
2, 180448, Note_on_c, 0, 67, 85
2, 180459, Note_on_c, 0, 55, 78
2, 180498, Note_on_c, 0, 64, 0
2, 180502, Note_on_c, 0, 67, 0
2, 180509, Note_on_c, 0, 72, 0
2, 180536, Note_on_c, 0, 55, 0
2, 180555, Note_on_c, 0, 48, 73
2, 180624, Note_on_c, 0, 65, 89
2, 180635, Note_on_c, 0, 59, 76
2, 180635, Note_on_c, 0, 62, 86
2, 180643, Note_on_c, 0, 48, 0
2, 180647, Note_on_c, 0, 56, 81
2, 180652, Note_on_c, 0, 60, 65
2, 180668, Note_on_c, 0, 59, 0
2, 180674, Note_on_c, 0, 60, 0
2, 180686, Note_on_c, 0, 62, 0
2, 180701, Note_on_c, 0, 65, 0
2, 180723, Note_on_c, 0, 56, 0
2, 180744, Note_on_c, 0, 48, 76
2, 180820, Note_on_c, 0, 48, 0
2, 180827, Note_on_c, 0, 64, 92
2, 180829, Note_on_c, 0, 60, 75
2, 180841, Note_on_c, 0, 55, 84
2, 180879, Note_on_c, 0, 60, 0
2, 180903, Note_on_c, 0, 64, 0
2, 180925, Note_on_c, 0, 55, 0
2, 180927, Note_on_c, 0, 48, 79
2, 181014, Note_on_c, 0, 48, 0
2, 181021, Note_on_c, 0, 47, 66
2, 181032, Note_on_c, 0, 72, 95
2, 181035, Note_on_c, 0, 64, 90
2, 181092, Note_on_c, 0, 72, 0
2, 181093, Note_on_c, 0, 64, 0
2, 181104, Note_on_c, 0, 48, 84
2, 181120, Note_on_c, 0, 47, 0
2, 181177, Note_on_c, 0, 48, 0
2, 181250, Note_on_c, 0, 62, 95
2, 181251, Note_on_c, 0, 57, 87
2, 181257, Note_on_c, 0, 41, 87
2, 181337, Note_on_c, 0, 57, 0
2, 181358, Note_on_c, 0, 62, 0
2, 181362, Note_on_c, 0, 41, 0
2, 181515, Note_on_c, 0, 72, 99
2, 181642, Note_on_c, 0, 72, 0
2, 181795, Note_on_c, 0, 65, 90
2, 181804, Note_on_c, 0, 62, 78
2, 181817, Note_on_c, 0, 43, 77
2, 181817, Note_on_c, 0, 55, 82
2, 181946, Note_on_c, 0, 62, 0
2, 181968, Note_on_c, 0, 65, 0
2, 181979, Note_on_c, 0, 55, 0
2, 182048, Note_on_c, 0, 43, 0
2, 182128, Note_on_c, 0, 71, 95
2, 182285, Control_c, 0, 64, 70
2, 182297, Note_on_c, 0, 71, 0
2, 182300, Control_c, 0, 64, 127
2, 182446, Control_c, 0, 64, 71
2, 182460, Control_c, 0, 64, 0
2, 182599, Note_on_c, 0, 72, 87
2, 182607, Note_on_c, 0, 60, 73
2, 182610, Note_on_c, 0, 64, 73
2, 182610, Note_on_c, 0, 67, 69
2, 182628, Note_on_c, 0, 36, 70
2, 183777, Control_c, 0, 64, 41
2, 183793, Control_c, 0, 64, 59
2, 183808, Control_c, 0, 64, 62
2, 183824, Control_c, 0, 64, 63
2, 183838, Control_c, 0, 64, 66
2, 183862, Control_c, 0, 64, 73
2, 183877, Control_c, 0, 64, 121
2, 183891, Control_c, 0, 64, 127
2, 184140, Note_on_c, 0, 72, 0
2, 184179, Note_on_c, 0, 67, 0
2, 184185, Note_on_c, 0, 60, 0
2, 184187, Note_on_c, 0, 64, 0
2, 184198, Note_on_c, 0, 36, 0
2, 184210, Control_c, 0, 64, 83
2, 184226, Control_c, 0, 64, 64
2, 184241, Control_c, 0, 64, 0
2, 184242, End_track
0, 0, End_of_file
