0, 0, Header, 1, 2, 384
1, 0, Start_track
1, 0, Tempo, 500000
1, 0, Time_signature, 4, 2, 24, 8
1, 1, End_track
2,0,Start_track
2,0, Note_on_c, 0, 67, 72
2,47, Note_on_c, 0, 67, 0
2,78, Note_on_c, 0, 65, 76
2,139, Note_on_c, 0, 65, 0
2,161, Note_on_c, 0, 67, 77
2,187, Note_on_c, 0, 67, 0
2,382, Note_on_c, 0, 60, 55
2,388, Note_on_c, 0, 62, 55
2,408, Note_on_c, 0, 60, 0
2,414, Note_on_c, 0, 62, 0
2,567, Note_on_c, 0, 69, 73
2,614, Note_on_c, 0, 67, 76
2,625, Note_on_c, 0, 69, 0
2,660, Note_on_c, 0, 67, 0
2,985, Note_on_c, 0, 67, 79
2,1351, Control_c, 0, 64, 52
2,1366, Control_c, 0, 64, 61
2,1397, Control_c, 0, 64, 61
2,1408, Note_on_c, 0, 67, 0
2,1412, Control_c, 0, 64, 56
2,1426, Control_c, 0, 64, 0
2,1597, Note_on_c, 0, 65, 65
2,1671, Note_on_c, 0, 65, 0
2,1695, Note_on_c, 0, 64, 66
2,1783, Note_on_c, 0, 65, 66
2,1796, Note_on_c, 0, 64, 0
2,1851, Note_on_c, 0, 65, 0
2,1874, Note_on_c, 0, 67, 72
2,1966, Note_on_c, 0, 67, 0
2,1975, Note_on_c, 0, 64, 69
2,2064, Note_on_c, 0, 64, 0
2,2071, Note_on_c, 0, 65, 68
2,2169, Note_on_c, 0, 65, 0
2,2175, Note_on_c, 0, 62, 77
2,2251, Note_on_c, 0, 62, 0
2,2265, Note_on_c, 0, 65, 74
2,2340, Note_on_c, 0, 65, 0
2,2355, Note_on_c, 0, 64, 66
2,2444, Note_on_c, 0, 64, 0
2,2446, Note_on_c, 0, 65, 74
2,2525, Note_on_c, 0, 65, 0
2,2551, Note_on_c, 0, 67, 74
2,2627, Note_on_c, 0, 67, 0
2,2635, Note_on_c, 0, 69, 68
2,2730, Note_on_c, 0, 69, 0
2,2743, Note_on_c, 0, 65, 61
2,2794, Note_on_c, 0, 65, 0
2,2826, Note_on_c, 0, 67, 66
2,2901, Note_on_c, 0, 67, 0
2,2925, Note_on_c, 0, 64, 70
2,3002, Note_on_c, 0, 64, 0
2,3013, Note_on_c, 0, 62, 69
2,3090, Note_on_c, 0, 62, 0
2,3111, Note_on_c, 0, 64, 64
2,3124, Note_on_c, 0, 72, 84
2,3174, Note_on_c, 0, 64, 0
2,3190, Note_on_c, 0, 71, 79
2,3191, Note_on_c, 0, 72, 0
2,3205, Note_on_c, 0, 65, 65
2,3261, Note_on_c, 0, 71, 0
2,3278, Note_on_c, 0, 72, 90
2,3280, Note_on_c, 0, 65, 0
2,3294, Note_on_c, 0, 64, 60
2,3303, Note_on_c, 0, 72, 0
2,3378, Note_on_c, 0, 64, 0
2,3392, Note_on_c, 0, 65, 62
2,3473, Note_on_c, 0, 67, 87
2,3476, Note_on_c, 0, 65, 0
2,3492, Note_on_c, 0, 62, 67
2,3511, Note_on_c, 0, 67, 0
2,3553, Note_on_c, 0, 62, 0
2,3594, Note_on_c, 0, 64, 64
2,3668, Note_on_c, 0, 64, 0
2,3670, Note_on_c, 0, 76, 93
2,3691, Note_on_c, 0, 60, 55
2,3704, Note_on_c, 0, 76, 0
2,3706, Note_on_c, 0, 74, 74
2,3742, Note_on_c, 0, 76, 70
2,3767, Note_on_c, 0, 74, 0
2,3768, Note_on_c, 0, 60, 0
2,3777, Note_on_c, 0, 59, 61
2,3858, Note_on_c, 0, 59, 0
2,3874, Note_on_c, 0, 60, 61
2,3942, Note_on_c, 0, 60, 0
2,3965, Note_on_c, 0, 62, 73
2,4023, Note_on_c, 0, 76, 0
2,4037, Note_on_c, 0, 62, 0
2,4058, Note_on_c, 0, 60, 60
2,4067, Note_on_c, 0, 74, 84
2,4138, Note_on_c, 0, 60, 0
2,4146, Note_on_c, 0, 62, 65
2,4244, Note_on_c, 0, 62, 0
2,4249, Note_on_c, 0, 59, 66
2,4339, Note_on_c, 0, 59, 0
2,4348, Note_on_c, 0, 60, 62
2,4370, Note_on_c, 0, 74, 0
2,4413, Note_on_c, 0, 60, 0
2,4456, Note_on_c, 0, 57, 70
2,4520, Note_on_c, 0, 57, 0
2,4544, Note_on_c, 0, 59, 71
2,4633, Note_on_c, 0, 59, 0
2,4646, Note_on_c, 0, 60, 68
2,4654, Note_on_c, 0, 72, 78
2,4700, Note_on_c, 0, 60, 0
2,4724, Note_on_c, 0, 72, 0
2,4734, Note_on_c, 0, 62, 62
2,4740, Note_on_c, 0, 71, 71
2,4819, Note_on_c, 0, 71, 0
2,4825, Note_on_c, 0, 64, 67
2,4831, Note_on_c, 0, 62, 0
2,4839, Note_on_c, 0, 72, 77
2,4913, Note_on_c, 0, 64, 0
2,4919, Note_on_c, 0, 72, 0
2,4925, Note_on_c, 0, 66, 72
2,4926, Note_on_c, 0, 74, 77
2,4978, Note_on_c, 0, 66, 0
2,4998, Note_on_c, 0, 74, 0
2,5015, Note_on_c, 0, 71, 73
2,5017, Note_on_c, 0, 67, 75
2,5091, Note_on_c, 0, 71, 0
2,5111, Note_on_c, 0, 72, 78
2,5193, Note_on_c, 0, 72, 0
2,5210, Note_on_c, 0, 69, 72
2,5279, Note_on_c, 0, 69, 0
2,5290, Note_on_c, 0, 72, 76
2,5358, Note_on_c, 0, 72, 0
2,5380, Note_on_c, 0, 67, 0
2,5396, Note_on_c, 0, 66, 69
2,5398, Note_on_c, 0, 71, 70
2,5464, Note_on_c, 0, 71, 0
2,5480, Note_on_c, 0, 66, 0
2,5488, Note_on_c, 0, 64, 69
2,5491, Note_on_c, 0, 72, 76
2,5562, Note_on_c, 0, 66, 70
2,5566, Note_on_c, 0, 64, 0
2,5574, Note_on_c, 0, 72, 0
2,5596, Note_on_c, 0, 74, 74
2,5605, Note_on_c, 0, 66, 0
2,5623, Note_on_c, 0, 67, 78
2,5670, Note_on_c, 0, 74, 0
2,5672, Note_on_c, 0, 76, 71
2,5693, Note_on_c, 0, 67, 0
2,5694, Note_on_c, 0, 66, 73
2,5740, Note_on_c, 0, 76, 0
2,5744, Note_on_c, 0, 72, 75
2,5756, Note_on_c, 0, 66, 0
2,5762, Note_on_c, 0, 64, 76
2,5812, Note_on_c, 0, 72, 0
2,5840, Note_on_c, 0, 66, 80
2,5842, Note_on_c, 0, 64, 0
2,5842, Note_on_c, 0, 74, 68
2,5868, Note_on_c, 0, 74, 0
2,5887, Note_on_c, 0, 66, 0
2,5947, Note_on_c, 0, 67, 73
2,5947, Note_on_c, 0, 71, 78
2,6006, Note_on_c, 0, 71, 0
2,6025, Note_on_c, 0, 69, 71
2,6099, Note_on_c, 0, 69, 0
2,6130, Note_on_c, 0, 55, 80
2,6136, Note_on_c, 0, 71, 77
2,6192, Note_on_c, 0, 55, 0
2,6210, Note_on_c, 0, 71, 0
2,6218, Note_on_c, 0, 72, 81
2,6225, Note_on_c, 0, 53, 85
2,6282, Note_on_c, 0, 53, 0
2,6314, Note_on_c, 0, 71, 75
2,6316, Note_on_c, 0, 72, 0
2,6320, Note_on_c, 0, 55, 90
2,6360, Note_on_c, 0, 55, 0
2,6398, Note_on_c, 0, 71, 0
2,6423, Note_on_c, 0, 72, 73
2,6516, Note_on_c, 0, 48, 85
2,6516, Note_on_c, 0, 72, 0
2,6535, Note_on_c, 0, 69, 75
2,6550, Note_on_c, 0, 48, 0
2,6570, Note_on_c, 0, 67, 0
2,6601, Note_on_c, 0, 69, 0
2,6626, Note_on_c, 0, 71, 67
2,6672, Note_on_c, 0, 71, 0
2,6731, Note_on_c, 0, 57, 83
2,6740, Note_on_c, 0, 72, 80
2,6775, Note_on_c, 0, 57, 0
2,6778, Note_on_c, 0, 55, 75
2,6811, Note_on_c, 0, 64, 73
2,6828, Note_on_c, 0, 55, 0
2,6830, Note_on_c, 0, 57, 80
2,6891, Note_on_c, 0, 72, 0
2,6919, Note_on_c, 0, 65, 71
2,6928, Note_on_c, 0, 64, 0
2,6996, Note_on_c, 0, 65, 0
2,7014, Note_on_c, 0, 69, 67
2,7042, Note_on_c, 0, 69, 0
2,7061, Note_on_c, 0, 57, 0
2,7120, Note_on_c, 0, 70, 81
2,7122, Note_on_c, 0, 55, 76
2,7202, Note_on_c, 0, 62, 70
2,7265, Note_on_c, 0, 70, 0
2,7300, Note_on_c, 0, 64, 70
2,7310, Note_on_c, 0, 62, 0
2,7370, Note_on_c, 0, 64, 0
2,7391, Note_on_c, 0, 67, 72
2,7433, Note_on_c, 0, 67, 0
2,7454, Note_on_c, 0, 55, 0
2,7508, Note_on_c, 0, 69, 79
2,7700, Note_on_c, 0, 53, 68
2,7708, Note_on_c, 0, 62, 76
2,7711, Note_on_c, 0, 69, 0
2,7733, Note_on_c, 0, 62, 0
2,7778, Note_on_c, 0, 53, 0
2,7797, Note_on_c, 0, 52, 72
2,7873, Note_on_c, 0, 52, 0
2,7881, Note_on_c, 0, 53, 68
2,7891, Note_on_c, 0, 71, 82
2,7898, Note_on_c, 0, 67, 75
2,7919, Note_on_c, 0, 71, 0
2,7922, Note_on_c, 0, 67, 0
2,7955, Note_on_c, 0, 53, 0
2,7977, Note_on_c, 0, 55, 69
2,8079, Note_on_c, 0, 55, 0
2,8084, Note_on_c, 0, 72, 87
2,8087, Note_on_c, 0, 52, 61
2,8174, Note_on_c, 0, 52, 0
2,8186, Note_on_c, 0, 53, 66
2,8255, Note_on_c, 0, 53, 0
2,8292, Note_on_c, 0, 50, 70
2,8295, Note_on_c, 0, 65, 75
2,8299, Note_on_c, 0, 72, 0
2,8362, Note_on_c, 0, 65, 0
2,8365, Note_on_c, 0, 50, 0
2,8365, Note_on_c, 0, 69, 75
2,8380, Note_on_c, 0, 53, 65
2,8411, Note_on_c, 0, 69, 0
2,8456, Note_on_c, 0, 53, 0
2,8470, Note_on_c, 0, 72, 81
2,8472, Note_on_c, 0, 52, 70
2,8473, Note_on_c, 0, 67, 77
2,8512, Note_on_c, 0, 67, 0
2,8548, Note_on_c, 0, 69, 77
2,8552, Note_on_c, 0, 52, 0
2,8555, Note_on_c, 0, 53, 69
2,8631, Note_on_c, 0, 69, 0
2,8640, Note_on_c, 0, 53, 0
2,8656, Note_on_c, 0, 62, 87
2,8664, Note_on_c, 0, 55, 72
2,8754, Note_on_c, 0, 57, 70
2,8757, Note_on_c, 0, 55, 0
2,8833, Note_on_c, 0, 72, 0
2,8841, Note_on_c, 0, 57, 0
2,8843, Note_on_c, 0, 71, 80
2,8851, Note_on_c, 0, 62, 0
2,8861, Note_on_c, 0, 53, 64
2,8909, Note_on_c, 0, 53, 0
2,8937, Note_on_c, 0, 55, 75
2,8984, Note_on_c, 0, 55, 0
2,9042, Note_on_c, 0, 71, 0
2,9045, Note_on_c, 0, 52, 55
2,9046, Note_on_c, 0, 72, 85
2,9050, Note_on_c, 0, 60, 67
2,9078, Note_on_c, 0, 60, 0
2,9088, Note_on_c, 0, 72, 0
2,9116, Note_on_c, 0, 52, 0
2,9136, Note_on_c, 0, 50, 60
2,9207, Note_on_c, 0, 50, 0
2,9233, Note_on_c, 0, 52, 61
2,9247, Note_on_c, 0, 79, 84
2,9281, Note_on_c, 0, 52, 0
2,9304, Note_on_c, 0, 79, 0
2,9323, Note_on_c, 0, 53, 59
2,9325, Note_on_c, 0, 77, 78
2,9386, Note_on_c, 0, 53, 0
2,9396, Note_on_c, 0, 77, 0
2,9402, Note_on_c, 0, 52, 61
2,9419, Note_on_c, 0, 79, 80
2,9449, Note_on_c, 0, 79, 0
2,9476, Note_on_c, 0, 52, 0
2,9497, Note_on_c, 0, 53, 56
2,9594, Note_on_c, 0, 53, 0
2,9609, Note_on_c, 0, 72, 80
2,9612, Note_on_c, 0, 50, 55
2,9632, Note_on_c, 0, 72, 0
2,9692, Note_on_c, 0, 50, 0
2,9705, Note_on_c, 0, 52, 56
2,9766, Note_on_c, 0, 52, 0
2,9808, Note_on_c, 0, 53, 55
2,9816, Note_on_c, 0, 81, 76
2,9897, Note_on_c, 0, 53, 0
2,9905, Note_on_c, 0, 52, 59
2,9977, Note_on_c, 0, 81, 0
2,9997, Note_on_c, 0, 52, 0
2,10009, Note_on_c, 0, 53, 59
2,10019, Note_on_c, 0, 72, 77
2,10060, Note_on_c, 0, 72, 0
2,10075, Note_on_c, 0, 53, 0
2,10096, Note_on_c, 0, 71, 75
2,10105, Note_on_c, 0, 55, 66
2,10151, Note_on_c, 0, 71, 0
2,10173, Note_on_c, 0, 55, 0
2,10182, Note_on_c, 0, 72, 81
2,10187, Note_on_c, 0, 79, 80
2,10188, Note_on_c, 0, 53, 61
2,10211, Note_on_c, 0, 72, 0
2,10270, Note_on_c, 0, 53, 0
2,10286, Note_on_c, 0, 55, 59
2,10362, Note_on_c, 0, 55, 0
2,10379, Note_on_c, 0, 67, 80
2,10391, Note_on_c, 0, 52, 65
2,10405, Note_on_c, 0, 79, 0
2,10407, Note_on_c, 0, 67, 0
2,10443, Note_on_c, 0, 52, 0
2,10490, Note_on_c, 0, 53, 60
2,10568, Note_on_c, 0, 53, 0
2,10591, Note_on_c, 0, 78, 86
2,10595, Note_on_c, 0, 74, 78
2,10597, Note_on_c, 0, 50, 64
2,10642, Control_c, 0, 64, 70
2,10657, Control_c, 0, 64, 127
2,10681, Note_on_c, 0, 50, 0
2,10690, Note_on_c, 0, 49, 68
2,10690, Note_on_c, 0, 74, 0
2,10708, Note_on_c, 0, 78, 0
2,10747, Control_c, 0, 64, 68
2,10763, Control_c, 0, 64, 0
2,10781, Note_on_c, 0, 49, 0
2,10784, Note_on_c, 0, 50, 64
2,10794, Note_on_c, 0, 81, 89
2,10848, Note_on_c, 0, 50, 0
2,10865, Note_on_c, 0, 79, 90
2,10873, Note_on_c, 0, 52, 59
2,10873, Note_on_c, 0, 81, 0
2,10922, Note_on_c, 0, 79, 0
2,10956, Note_on_c, 0, 52, 0
2,10958, Note_on_c, 0, 81, 93
2,10963, Note_on_c, 0, 72, 80
2,10965, Note_on_c, 0, 54, 64
2,10982, Note_on_c, 0, 72, 0
2,11005, Note_on_c, 0, 81, 0
2,11046, Note_on_c, 0, 54, 0
2,11068, Note_on_c, 0, 55, 61
2,11148, Note_on_c, 0, 55, 0
2,11148, Note_on_c, 0, 74, 96
2,11161, Note_on_c, 0, 52, 57
2,11170, Note_on_c, 0, 74, 0
2,11246, Note_on_c, 0, 52, 0
2,11257, Note_on_c, 0, 54, 62
2,11326, Note_on_c, 0, 54, 0
2,11356, Note_on_c, 0, 83, 92
2,11366, Note_on_c, 0, 55, 56
2,11368, Note_on_c, 0, 71, 79
2,11438, Note_on_c, 0, 54, 66
2,11456, Note_on_c, 0, 55, 0
2,11501, Note_on_c, 0, 71, 0
2,11519, Note_on_c, 0, 83, 0
2,11533, Note_on_c, 0, 54, 0
2,11547, Note_on_c, 0, 55, 70
2,11562, Note_on_c, 0, 74, 85
2,11612, Note_on_c, 0, 55, 0
2,11619, Note_on_c, 0, 74, 0
2,11628, Note_on_c, 0, 57, 74
2,11635, Note_on_c, 0, 72, 85
2,11685, Note_on_c, 0, 72, 0
2,11705, Note_on_c, 0, 57, 0
2,11728, Note_on_c, 0, 55, 68
2,11735, Note_on_c, 0, 74, 85
2,11737, Note_on_c, 0, 81, 87
2,11766, Note_on_c, 0, 74, 0
2,11803, Note_on_c, 0, 55, 0
2,11812, Note_on_c, 0, 57, 71
2,11889, Note_on_c, 0, 57, 0
2,11916, Note_on_c, 0, 53, 71
2,11922, Note_on_c, 0, 69, 78
2,11944, Note_on_c, 0, 69, 0
2,11950, Note_on_c, 0, 81, 0
2,11959, Note_on_c, 0, 53, 0
2,12017, Note_on_c, 0, 55, 67
2,12096, Note_on_c, 0, 55, 0
2,12117, Note_on_c, 0, 52, 66
2,12124, Note_on_c, 0, 80, 87
2,12142, Note_on_c, 0, 76, 68
2,12178, Control_c, 0, 64, 60
2,12194, Control_c, 0, 64, 84
2,12200, Note_on_c, 0, 76, 0
2,12209, Control_c, 0, 64, 127
2,12209, Note_on_c, 0, 52, 0
2,12215, Note_on_c, 0, 80, 0
2,12219, Note_on_c, 0, 50, 71
2,12271, Control_c, 0, 64, 94
2,12286, Control_c, 0, 64, 64
2,12301, Control_c, 0, 64, 0
2,12311, Note_on_c, 0, 50, 0
2,12313, Note_on_c, 0, 83, 85
2,12316, Note_on_c, 0, 52, 73
2,12383, Note_on_c, 0, 52, 0
2,12386, Note_on_c, 0, 81, 88
2,12398, Note_on_c, 0, 83, 0
2,12424, Note_on_c, 0, 54, 63
2,12446, Note_on_c, 0, 81, 0
2,12478, Note_on_c, 0, 83, 89
2,12484, Note_on_c, 0, 74, 81
2,12503, Note_on_c, 0, 56, 73
2,12504, Note_on_c, 0, 74, 0
2,12512, Note_on_c, 0, 54, 0
2,12518, Note_on_c, 0, 83, 0
2,12575, Note_on_c, 0, 56, 0
2,12593, Note_on_c, 0, 57, 76
2,12672, Note_on_c, 0, 76, 95
2,12680, Note_on_c, 0, 57, 0
2,12683, Note_on_c, 0, 54, 70
2,12699, Note_on_c, 0, 76, 0
2,12780, Note_on_c, 0, 56, 75
2,12783, Note_on_c, 0, 54, 0
2,12855, Note_on_c, 0, 56, 0
2,12879, Note_on_c, 0, 57, 73
2,12881, Note_on_c, 0, 84, 95
2,12907, Note_on_c, 0, 72, 70
2,12964, Note_on_c, 0, 56, 64
2,12968, Note_on_c, 0, 57, 0
2,12995, Note_on_c, 0, 72, 0
2,13050, Note_on_c, 0, 56, 0
2,13065, Note_on_c, 0, 57, 65
2,13080, Note_on_c, 0, 76, 83
2,13119, Note_on_c, 0, 57, 0
2,13130, Note_on_c, 0, 76, 0
2,13145, Note_on_c, 0, 59, 68
2,13157, Note_on_c, 0, 74, 85
2,13200, Note_on_c, 0, 74, 0
2,13222, Note_on_c, 0, 59, 0
2,13240, Note_on_c, 0, 57, 71
2,13252, Note_on_c, 0, 76, 87
2,13287, Note_on_c, 0, 76, 0
2,13310, Note_on_c, 0, 57, 0
2,13321, Note_on_c, 0, 59, 67
2,13422, Note_on_c, 0, 59, 0
2,13434, Note_on_c, 0, 55, 72
2,13434, Note_on_c, 0, 81, 87
2,13465, Note_on_c, 0, 81, 0
2,13494, Note_on_c, 0, 55, 0
2,13537, Note_on_c, 0, 57, 70
2,13634, Note_on_c, 0, 57, 0
2,13634, Note_on_c, 0, 74, 84
2,13636, Note_on_c, 0, 54, 65
2,13670, Note_on_c, 0, 84, 0
2,13720, Note_on_c, 0, 54, 0
2,13724, Note_on_c, 0, 55, 70
2,13815, Note_on_c, 0, 55, 0
2,13816, Note_on_c, 0, 52, 69
2,13822, Note_on_c, 0, 84, 87
2,13867, Note_on_c, 0, 84, 0
2,13904, Note_on_c, 0, 52, 0
2,13911, Note_on_c, 0, 54, 71
2,14007, Note_on_c, 0, 55, 76
2,14007, Note_on_c, 0, 83, 89
2,14008, Note_on_c, 0, 54, 0
2,14045, Note_on_c, 0, 83, 0
2,14065, Note_on_c, 0, 55, 0
2,14089, Note_on_c, 0, 57, 74
2,14176, Note_on_c, 0, 57, 0
2,14185, Note_on_c, 0, 59, 77
2,14192, Note_on_c, 0, 79, 89
2,14233, Note_on_c, 0, 79, 0
2,14258, Note_on_c, 0, 59, 0
2,14291, Note_on_c, 0, 55, 71
2,14379, Note_on_c, 0, 55, 0
2,14393, Note_on_c, 0, 76, 86
2,14402, Note_on_c, 0, 60, 74
2,14419, Note_on_c, 0, 74, 0
2,14478, Note_on_c, 0, 60, 0
2,14497, Note_on_c, 0, 59, 74
2,14554, Note_on_c, 0, 76, 0
2,14569, Note_on_c, 0, 59, 0
2,14578, Note_on_c, 0, 60, 68
2,14582, Note_on_c, 0, 72, 78
2,14639, Note_on_c, 0, 72, 0
2,14648, Note_on_c, 0, 60, 0
2,14666, Note_on_c, 0, 62, 78
2,14667, Note_on_c, 0, 71, 65
2,14693, Note_on_c, 0, 71, 0
2,14734, Note_on_c, 0, 62, 0
2,14755, Note_on_c, 0, 69, 87
2,14757, Note_on_c, 0, 78, 85
2,14761, Note_on_c, 0, 60, 68
2,14778, Note_on_c, 0, 69, 0
2,14783, Note_on_c, 0, 78, 0
2,14819, Note_on_c, 0, 60, 0
2,14837, Note_on_c, 0, 62, 78
2,14937, Note_on_c, 0, 62, 0
2,14942, Note_on_c, 0, 59, 72
2,14948, Note_on_c, 0, 79, 89
2,14958, Note_on_c, 0, 71, 72
2,15021, Note_on_c, 0, 59, 0
2,15028, Note_on_c, 0, 60, 79
2,15061, Note_on_c, 0, 60, 0
2,15128, Control_c, 0, 64, 33
2,15135, Note_on_c, 0, 71, 0
2,15143, Control_c, 0, 64, 78
2,15152, Note_on_c, 0, 62, 88
2,15159, Control_c, 0, 64, 127
2,15195, Note_on_c, 0, 62, 0
2,15249, Note_on_c, 0, 79, 0
2,15312, Control_c, 0, 64, 89
2,15326, Control_c, 0, 64, 48
2,15341, Control_c, 0, 64, 0
2,15343, Note_on_c, 0, 69, 76
2,15348, Note_on_c, 0, 78, 87
2,15394, Note_on_c, 0, 69, 0
2,15405, Note_on_c, 0, 78, 0
2,15410, Note_on_c, 0, 76, 82
2,15420, Note_on_c, 0, 67, 79
2,15448, Note_on_c, 0, 76, 0
2,15468, Note_on_c, 0, 67, 0
2,15520, Note_on_c, 0, 69, 78
2,15538, Note_on_c, 0, 78, 82
2,15566, Note_on_c, 0, 69, 0
2,15573, Note_on_c, 0, 78, 0
2,15576, Note_on_c, 0, 79, 87
2,15624, Note_on_c, 0, 78, 81
2,15646, Note_on_c, 0, 79, 0
2,15719, Note_on_c, 0, 62, 88
2,15748, Note_on_c, 0, 62, 0
2,15775, Note_on_c, 0, 78, 0
2,15797, Note_on_c, 0, 79, 82
2,15838, Note_on_c, 0, 79, 0
2,15914, Note_on_c, 0, 71, 84
2,15915, Note_on_c, 0, 79, 85
2,15927, Note_on_c, 0, 55, 63
2,15946, Note_on_c, 0, 71, 0
2,15955, Note_on_c, 0, 69, 91
2,15957, Note_on_c, 0, 55, 0
2,16010, Note_on_c, 0, 69, 0
2,16013, Note_on_c, 0, 71, 85
2,16025, Note_on_c, 0, 79, 0
2,16107, Note_on_c, 0, 76, 76
2,16117, Note_on_c, 0, 67, 63
2,16162, Note_on_c, 0, 76, 0
2,16169, Note_on_c, 0, 67, 0
2,16214, Note_on_c, 0, 65, 65
2,16290, Note_on_c, 0, 65, 0
2,16301, Note_on_c, 0, 71, 0
2,16306, Note_on_c, 0, 73, 73
2,16310, Note_on_c, 0, 67, 58
2,16314, Note_on_c, 0, 69, 73
2,16333, Note_on_c, 0, 73, 0
2,16369, Note_on_c, 0, 67, 0
2,16492, Note_on_c, 0, 69, 0
2,16493, Note_on_c, 0, 74, 70
2,16496, Note_on_c, 0, 65, 67
2,16518, Note_on_c, 0, 74, 0
2,16566, Note_on_c, 0, 65, 0
2,16591, Note_on_c, 0, 67, 61
2,16631, Note_on_c, 0, 67, 0
2,16689, Note_on_c, 0, 64, 67
2,16767, Note_on_c, 0, 79, 66
2,16861, Note_on_c, 0, 64, 0
2,16865, Note_on_c, 0, 79, 0
2,16872, Note_on_c, 0, 82, 77
2,16877, Note_on_c, 0, 67, 64
2,16908, Note_on_c, 0, 82, 0
2,16942, Note_on_c, 0, 67, 0
2,16956, Note_on_c, 0, 81, 76
2,16966, Note_on_c, 0, 65, 68
2,17045, Note_on_c, 0, 65, 0
2,17045, Note_on_c, 0, 81, 0
2,17050, Note_on_c, 0, 67, 71
2,17058, Note_on_c, 0, 79, 84
2,17112, Note_on_c, 0, 67, 0
2,17134, Note_on_c, 0, 79, 0
2,17139, Note_on_c, 0, 69, 70
2,17140, Note_on_c, 0, 77, 82
2,17208, Note_on_c, 0, 77, 0
2,17226, Note_on_c, 0, 76, 80
2,17231, Note_on_c, 0, 69, 0
2,17236, Note_on_c, 0, 65, 62
2,17281, Note_on_c, 0, 76, 0
2,17303, Note_on_c, 0, 65, 0
2,17306, Note_on_c, 0, 67, 72
2,17323, Note_on_c, 0, 74, 63
2,17331, Note_on_c, 0, 67, 0
2,17352, Note_on_c, 0, 74, 0
2,17420, Note_on_c, 0, 73, 82
2,17425, Note_on_c, 0, 64, 77
2,17460, Note_on_c, 0, 64, 0
2,17492, Note_on_c, 0, 73, 0
2,17510, Note_on_c, 0, 67, 82
2,17562, Note_on_c, 0, 67, 0
2,17609, Note_on_c, 0, 65, 82
2,17616, Note_on_c, 0, 74, 83
2,17623, Note_on_c, 0, 62, 83
2,17663, Note_on_c, 0, 65, 0
2,17699, Note_on_c, 0, 67, 77
2,17711, Note_on_c, 0, 74, 0
2,17768, Note_on_c, 0, 67, 0
2,17796, Note_on_c, 0, 53, 79
2,17798, Note_on_c, 0, 69, 78
2,17801, Note_on_c, 0, 62, 0
2,17825, Note_on_c, 0, 53, 0
2,17847, Note_on_c, 0, 69, 0
2,17878, Note_on_c, 0, 70, 74
2,17942, Note_on_c, 0, 70, 0
2,17981, Note_on_c, 0, 73, 66
2,17982, Note_on_c, 0, 57, 75
2,17984, Note_on_c, 0, 67, 73
2,18008, Note_on_c, 0, 57, 0
2,18012, Note_on_c, 0, 67, 0
2,18045, Note_on_c, 0, 73, 0
2,18054, Note_on_c, 0, 69, 78
2,18091, Note_on_c, 0, 69, 0
2,18186, Note_on_c, 0, 50, 63
2,18187, Note_on_c, 0, 65, 58
2,18188, Note_on_c, 0, 74, 72
2,18198, Control_c, 0, 64, 66
2,18198, Control_c, 0, 67, 20
2,18212, Note_on_c, 0, 65, 0
2,18213, Control_c, 0, 64, 127
2,18213, Control_c, 0, 67, 47
2,18221, Note_on_c, 0, 74, 0
2,18222, Note_on_c, 0, 50, 0
2,18228, Control_c, 0, 67, 75
2,18243, Control_c, 0, 67, 99
2,18258, Control_c, 0, 67, 118
2,18273, Control_c, 0, 67, 127
2,18277, Note_on_c, 0, 64, 63
2,18320, Control_c, 0, 64, 97
2,18334, Control_c, 0, 64, 65
2,18349, Control_c, 0, 64, 0
2,18359, Note_on_c, 0, 64, 0
2,18380, Control_c, 0, 67, 127
2,18383, Note_on_c, 0, 65, 46
2,18391, Note_on_c, 0, 74, 77
2,18395, Control_c, 0, 67, 126
2,18410, Control_c, 0, 67, 125
2,18425, Control_c, 0, 67, 124
2,18435, Note_on_c, 0, 65, 0
2,18441, Control_c, 0, 67, 123
2,18444, Note_on_c, 0, 74, 0
2,18456, Control_c, 0, 67, 122
2,18474, Note_on_c, 0, 73, 77
2,18484, Note_on_c, 0, 67, 57
2,18488, Control_c, 0, 67, 122
2,18502, Control_c, 0, 67, 121
2,18518, Control_c, 0, 67, 120
2,18521, Note_on_c, 0, 73, 0
2,18533, Control_c, 0, 67, 119
2,18534, Note_on_c, 0, 67, 0
2,18559, Note_on_c, 0, 74, 85
2,18564, Note_on_c, 0, 65, 59
2,18587, Note_on_c, 0, 74, 0
2,18593, Control_c, 0, 67, 119
2,18624, Control_c, 0, 67, 118
2,18638, Note_on_c, 0, 65, 0
2,18670, Note_on_c, 0, 67, 57
2,18738, Note_on_c, 0, 67, 0
2,18750, Note_on_c, 0, 69, 76
2,18763, Note_on_c, 0, 64, 60
2,18775, Note_on_c, 0, 69, 0
2,18791, Control_c, 0, 67, 119
2,18809, Note_on_c, 0, 64, 0
2,18837, Control_c, 0, 67, 119
2,18866, Note_on_c, 0, 65, 57
2,18934, Note_on_c, 0, 65, 0
2,18951, Note_on_c, 0, 77, 80
2,18978, Note_on_c, 0, 62, 55
2,18981, Control_c, 0, 67, 119
2,18984, Note_on_c, 0, 77, 0
2,18993, Note_on_c, 0, 76, 75
2,19012, Control_c, 0, 67, 119
2,19032, Note_on_c, 0, 77, 78
2,19042, Note_on_c, 0, 62, 0
2,19057, Note_on_c, 0, 76, 0
2,19061, Note_on_c, 0, 60, 58
2,19102, Control_c, 0, 67, 120
2,19118, Control_c, 0, 67, 120
2,19138, Note_on_c, 0, 60, 0
2,19154, Note_on_c, 0, 62, 63
2,19209, Control_c, 0, 67, 120
2,19214, Note_on_c, 0, 62, 0
2,19241, Note_on_c, 0, 64, 64
2,19285, Control_c, 0, 67, 119
2,19300, Note_on_c, 0, 77, 0
2,19310, Note_on_c, 0, 64, 0
2,19331, Control_c, 0, 67, 119
2,19334, Note_on_c, 0, 76, 73
2,19343, Note_on_c, 0, 62, 57
2,19410, Note_on_c, 0, 62, 0
2,19428, Note_on_c, 0, 64, 58
2,19453, Control_c, 0, 67, 118
2,19529, Note_on_c, 0, 64, 0
2,19538, Note_on_c, 0, 60, 56
2,19609, Note_on_c, 0, 60, 0
2,19611, Note_on_c, 0, 76, 0
2,19621, Note_on_c, 0, 62, 67
2,19658, Control_c, 0, 67, 117
2,19673, Control_c, 0, 67, 117
2,19685, Note_on_c, 0, 62, 0
2,19688, Control_c, 0, 67, 116
2,19703, Control_c, 0, 67, 115
2,19731, Note_on_c, 0, 59, 73
2,19734, Control_c, 0, 67, 114
2,19749, Control_c, 0, 67, 112
2,19765, Control_c, 0, 67, 108
2,19780, Control_c, 0, 67, 105
2,19795, Control_c, 0, 67, 104
2,19801, Note_on_c, 0, 59, 0
2,19820, Note_on_c, 0, 60, 69
2,19871, Control_c, 0, 67, 103
2,19886, Control_c, 0, 67, 103
2,19901, Control_c, 0, 67, 101
2,19910, Note_on_c, 0, 60, 0
2,19917, Control_c, 0, 67, 97
2,19918, Note_on_c, 0, 62, 67
2,19921, Note_on_c, 0, 74, 72
2,19931, Control_c, 0, 67, 79
2,19946, Control_c, 0, 67, 44
2,19962, Control_c, 0, 67, 0
2,19973, Note_on_c, 0, 62, 0
2,19990, Note_on_c, 0, 74, 0
2,20003, Note_on_c, 0, 72, 75
2,20009, Note_on_c, 0, 64, 56
2,20075, Note_on_c, 0, 72, 0
2,20095, Note_on_c, 0, 74, 76
2,20105, Note_on_c, 0, 66, 69
2,20110, Note_on_c, 0, 64, 0
2,20162, Note_on_c, 0, 74, 0
2,20186, Note_on_c, 0, 66, 0
2,20187, Note_on_c, 0, 76, 73
2,20195, Note_on_c, 0, 68, 68
2,20257, Note_on_c, 0, 68, 0
2,20273, Note_on_c, 0, 76, 0
2,20285, Note_on_c, 0, 69, 76
2,20290, Note_on_c, 0, 72, 70
2,20352, Note_on_c, 0, 72, 0
2,20367, Note_on_c, 0, 74, 73
2,20474, Note_on_c, 0, 74, 0
2,20487, Note_on_c, 0, 71, 75
2,20572, Note_on_c, 0, 71, 0
2,20573, Note_on_c, 0, 74, 77
2,20639, Note_on_c, 0, 74, 0
2,20657, Note_on_c, 0, 69, 0
2,20666, Note_on_c, 0, 72, 76
2,20668, Note_on_c, 0, 68, 70
2,20737, Note_on_c, 0, 72, 0
2,20755, Note_on_c, 0, 68, 0
2,20759, Note_on_c, 0, 74, 76
2,20768, Note_on_c, 0, 66, 68
2,20834, Note_on_c, 0, 74, 0
2,20853, Note_on_c, 0, 66, 0
2,20853, Note_on_c, 0, 68, 76
2,20858, Note_on_c, 0, 76, 72
2,20902, Note_on_c, 0, 68, 0
2,20924, Note_on_c, 0, 69, 68
2,20938, Note_on_c, 0, 76, 0
2,20943, Note_on_c, 0, 77, 75
2,20989, Note_on_c, 0, 69, 0
2,20993, Note_on_c, 0, 68, 74
2,21021, Note_on_c, 0, 77, 0
2,21028, Note_on_c, 0, 74, 71
2,21061, Note_on_c, 0, 68, 0
2,21066, Note_on_c, 0, 66, 67
2,21099, Note_on_c, 0, 74, 0
2,21115, Note_on_c, 0, 76, 69
2,21126, Note_on_c, 0, 68, 61
2,21128, Note_on_c, 0, 66, 0
2,21195, Note_on_c, 0, 68, 0
2,21197, Note_on_c, 0, 76, 0
2,21219, Note_on_c, 0, 72, 80
2,21222, Note_on_c, 0, 69, 67
2,21249, Note_on_c, 0, 72, 0
2,21309, Note_on_c, 0, 69, 0
2,21314, Note_on_c, 0, 68, 57
2,21406, Note_on_c, 0, 68, 0
2,21417, Note_on_c, 0, 69, 59
2,21437, Note_on_c, 0, 76, 65
2,21466, Note_on_c, 0, 69, 0
2,21492, Note_on_c, 0, 76, 0
2,21500, Note_on_c, 0, 74, 77
2,21506, Note_on_c, 0, 71, 53
2,21566, Note_on_c, 0, 74, 0
2,21569, Note_on_c, 0, 71, 0
2,21580, Note_on_c, 0, 69, 55
2,21588, Note_on_c, 0, 76, 85
2,21617, Note_on_c, 0, 76, 0
2,21662, Note_on_c, 0, 69, 0
2,21679, Note_on_c, 0, 71, 64
2,21764, Note_on_c, 0, 71, 0
2,21786, Note_on_c, 0, 72, 77
2,21788, Note_on_c, 0, 67, 61
2,21812, Note_on_c, 0, 72, 0
2,21842, Note_on_c, 0, 67, 0
2,21884, Note_on_c, 0, 69, 60
2,21970, Note_on_c, 0, 81, 85
2,21980, Note_on_c, 0, 69, 0
2,21993, Note_on_c, 0, 66, 62
2,22003, Note_on_c, 0, 81, 0
2,22055, Note_on_c, 0, 66, 0
2,22093, Note_on_c, 0, 64, 55
2,22168, Note_on_c, 0, 72, 77
2,22189, Note_on_c, 0, 66, 61
2,22192, Note_on_c, 0, 64, 0
2,22244, Note_on_c, 0, 66, 0
2,22275, Note_on_c, 0, 67, 60
2,22337, Note_on_c, 0, 72, 0
2,22351, Note_on_c, 0, 69, 81
2,22352, Note_on_c, 0, 67, 0
2,22364, Note_on_c, 0, 66, 70
2,22378, Note_on_c, 0, 69, 0
2,22422, Note_on_c, 0, 66, 0
2,22449, Note_on_c, 0, 67, 71
2,22528, Note_on_c, 0, 67, 0
2,22539, Note_on_c, 0, 64, 69
2,22545, Note_on_c, 0, 74, 83
2,22566, Note_on_c, 0, 74, 0
2,22614, Note_on_c, 0, 64, 0
2,22635, Note_on_c, 0, 66, 69
2,22730, Note_on_c, 0, 66, 0
2,22742, Note_on_c, 0, 71, 72
2,22743, Note_on_c, 0, 67, 60
2,22766, Note_on_c, 0, 71, 0
2,22820, Note_on_c, 0, 67, 0
2,22843, Note_on_c, 0, 66, 60
2,22867, Control_c, 0, 67, 12
2,22883, Control_c, 0, 67, 18
2,22898, Control_c, 0, 67, 23
2,22912, Control_c, 0, 67, 26
2,22912, Note_on_c, 0, 66, 0
2,22928, Control_c, 0, 67, 27
2,22943, Control_c, 0, 67, 28
2,22944, Note_on_c, 0, 67, 42
2,22944, Note_on_c, 0, 74, 78
2,22959, Control_c, 0, 67, 30
2,22974, Control_c, 0, 67, 31
2,22984, Note_on_c, 0, 67, 0
2,22997, Note_on_c, 0, 74, 0
2,23004, Control_c, 0, 67, 30
2,23015, Note_on_c, 0, 72, 77
2,23019, Control_c, 0, 67, 30
2,23021, Note_on_c, 0, 69, 57
2,23033, Control_c, 0, 67, 29
2,23049, Control_c, 0, 67, 28
2,23064, Control_c, 0, 67, 28
2,23080, Control_c, 0, 67, 27
2,23081, Note_on_c, 0, 69, 0
2,23091, Note_on_c, 0, 72, 0
2,23097, Note_on_c, 0, 74, 82
2,23103, Note_on_c, 0, 67, 56
2,23120, Note_on_c, 0, 74, 0
2,23171, Note_on_c, 0, 67, 0
2,23186, Control_c, 0, 67, 26
2,23194, Note_on_c, 0, 69, 57
2,23201, Control_c, 0, 67, 26
2,23216, Control_c, 0, 67, 25
2,23231, Control_c, 0, 67, 25
2,23247, Control_c, 0, 67, 24
2,23262, Control_c, 0, 67, 23
2,23267, Note_on_c, 0, 69, 0
2,23278, Control_c, 0, 67, 23
2,23291, Note_on_c, 0, 65, 60
2,23292, Note_on_c, 0, 71, 79
2,23293, Control_c, 0, 67, 22
2,23323, Note_on_c, 0, 71, 0
2,23333, Note_on_c, 0, 65, 0
2,23375, Note_on_c, 0, 67, 64
2,23430, Control_c, 0, 67, 22
2,23446, Control_c, 0, 67, 21
2,23453, Note_on_c, 0, 67, 0
2,23474, Note_on_c, 0, 64, 55
2,23478, Note_on_c, 0, 79, 83
2,23513, Control_c, 0, 67, 23
2,23514, Note_on_c, 0, 79, 0
2,23529, Control_c, 0, 67, 25
2,23543, Control_c, 0, 67, 26
2,23559, Control_c, 0, 67, 26
2,23573, Note_on_c, 0, 64, 0
2,23574, Control_c, 0, 67, 27
2,23588, Note_on_c, 0, 62, 62
2,23589, Control_c, 0, 67, 27
2,23666, Note_on_c, 0, 62, 0
2,23672, Note_on_c, 0, 70, 79
2,23690, Note_on_c, 0, 64, 59
2,23696, Control_c, 0, 67, 28
2,23754, Note_on_c, 0, 64, 0
2,23756, Control_c, 0, 67, 27
2,23781, Note_on_c, 0, 65, 62
2,23787, Control_c, 0, 67, 27
2,23802, Control_c, 0, 67, 26
2,23817, Control_c, 0, 67, 25
2,23832, Control_c, 0, 67, 24
2,23845, Note_on_c, 0, 65, 0
2,23847, Note_on_c, 0, 70, 0
2,23848, Control_c, 0, 67, 23
2,23855, Note_on_c, 0, 67, 79
2,23863, Control_c, 0, 67, 22
2,23867, Note_on_c, 0, 64, 63
2,23878, Control_c, 0, 67, 21
2,23880, Note_on_c, 0, 67, 0
2,23893, Control_c, 0, 67, 20
2,23907, Note_on_c, 0, 76, 16
2,23908, Control_c, 0, 67, 19
2,23924, Control_c, 0, 67, 18
2,23932, Note_on_c, 0, 64, 0
2,23939, Control_c, 0, 67, 18
2,23951, Note_on_c, 0, 65, 63
2,23953, Control_c, 0, 67, 17
2,23969, Control_c, 0, 67, 16
2,23984, Control_c, 0, 67, 15
2,23984, Note_on_c, 0, 76, 0
2,24000, Control_c, 0, 67, 15
2,24014, Control_c, 0, 67, 14
2,24029, Control_c, 0, 67, 13
2,24038, Note_on_c, 0, 65, 0
2,24045, Control_c, 0, 67, 12
2,24046, Note_on_c, 0, 72, 76
2,24049, Note_on_c, 0, 62, 64
2,24060, Control_c, 0, 67, 11
2,24068, Note_on_c, 0, 72, 0
2,24131, Note_on_c, 0, 62, 0
2,24136, Note_on_c, 0, 64, 64
2,24137, Control_c, 0, 67, 10
2,24152, Control_c, 0, 67, 10
2,24167, Control_c, 0, 67, 9
2,24182, Control_c, 0, 67, 8
2,24198, Control_c, 0, 67, 0
2,24204, Note_on_c, 0, 64, 0
2,24236, Note_on_c, 0, 65, 64
2,24241, Note_on_c, 0, 69, 77
2,24272, Note_on_c, 0, 69, 0
2,24314, Note_on_c, 0, 65, 0
2,24336, Note_on_c, 0, 64, 61
2,24430, Note_on_c, 0, 64, 0
2,24446, Note_on_c, 0, 65, 59
2,24448, Note_on_c, 0, 74, 82
2,24507, Note_on_c, 0, 65, 0
2,24520, Note_on_c, 0, 74, 0
2,24526, Note_on_c, 0, 72, 81
2,24531, Note_on_c, 0, 67, 64
2,24602, Note_on_c, 0, 72, 0
2,24608, Note_on_c, 0, 67, 0
2,24617, Note_on_c, 0, 74, 87
2,24619, Note_on_c, 0, 65, 62
2,24688, Note_on_c, 0, 65, 0
2,24695, Note_on_c, 0, 74, 0
2,24702, Note_on_c, 0, 76, 77
2,24711, Note_on_c, 0, 67, 70
2,24782, Note_on_c, 0, 67, 0
2,24782, Note_on_c, 0, 76, 0
2,24796, Note_on_c, 0, 72, 80
2,24803, Note_on_c, 0, 64, 59
2,24861, Note_on_c, 0, 64, 0
2,24864, Note_on_c, 0, 72, 0
2,24868, Note_on_c, 0, 65, 65
2,24878, Note_on_c, 0, 74, 82
2,24907, Note_on_c, 0, 65, 0
2,24968, Note_on_c, 0, 74, 0
2,24980, Note_on_c, 0, 71, 76
2,24983, Note_on_c, 0, 62, 79
2,25010, Note_on_c, 0, 62, 0
2,25046, Note_on_c, 0, 71, 0
2,25075, Note_on_c, 0, 69, 65
2,25111, Note_on_c, 0, 69, 0
2,25178, Note_on_c, 0, 67, 82
2,25180, Note_on_c, 0, 71, 75
2,25228, Note_on_c, 0, 71, 0
2,25240, Note_on_c, 0, 67, 0
2,25258, Note_on_c, 0, 72, 81
2,25265, Note_on_c, 0, 65, 82
2,25323, Note_on_c, 0, 72, 0
2,25341, Note_on_c, 0, 65, 0
2,25344, Note_on_c, 0, 71, 77
2,25353, Note_on_c, 0, 67, 76
2,25395, Note_on_c, 0, 71, 0
2,25406, Note_on_c, 0, 67, 0
2,25421, Note_on_c, 0, 72, 84
2,25446, Note_on_c, 0, 69, 71
2,25475, Note_on_c, 0, 69, 0
2,25475, Note_on_c, 0, 72, 0
2,25523, Note_on_c, 0, 65, 72
2,25524, Note_on_c, 0, 69, 69
2,25556, Note_on_c, 0, 65, 0
2,25560, Note_on_c, 0, 69, 0
2,25604, Note_on_c, 0, 71, 76
2,25614, Note_on_c, 0, 67, 69
2,25643, Note_on_c, 0, 67, 0
2,25647, Note_on_c, 0, 71, 0
2,25698, Note_on_c, 0, 64, 73
2,25698, Note_on_c, 0, 67, 84
2,25730, Note_on_c, 0, 67, 0
2,25769, Note_on_c, 0, 64, 0
2,25800, Note_on_c, 0, 62, 76
2,25879, Note_on_c, 0, 62, 0
2,25898, Note_on_c, 0, 64, 62
2,25904, Note_on_c, 0, 72, 84
2,25955, Note_on_c, 0, 64, 0
2,25968, Note_on_c, 0, 72, 0
2,25987, Note_on_c, 0, 71, 77
2,25991, Note_on_c, 0, 65, 62
2,26045, Note_on_c, 0, 71, 0
2,26071, Note_on_c, 0, 65, 0
2,26076, Note_on_c, 0, 64, 65
2,26076, Note_on_c, 0, 72, 84
2,26139, Note_on_c, 0, 64, 0
2,26144, Note_on_c, 0, 72, 0
2,26164, Note_on_c, 0, 74, 81
2,26171, Note_on_c, 0, 65, 69
2,26240, Note_on_c, 0, 65, 0
2,26240, Note_on_c, 0, 74, 0
2,26253, Note_on_c, 0, 70, 80
2,26256, Note_on_c, 0, 62, 63
2,26317, Note_on_c, 0, 70, 0
2,26329, Note_on_c, 0, 62, 0
2,26342, Note_on_c, 0, 72, 71
2,26353, Note_on_c, 0, 64, 59
2,26393, Note_on_c, 0, 64, 0
2,26427, Note_on_c, 0, 72, 0
2,26442, Note_on_c, 0, 60, 74
2,26442, Note_on_c, 0, 69, 72
2,26465, Note_on_c, 0, 60, 0
2,26497, Note_on_c, 0, 69, 0
2,26535, Note_on_c, 0, 67, 63
2,26594, Note_on_c, 0, 67, 0
2,26633, Note_on_c, 0, 65, 77
2,26640, Note_on_c, 0, 69, 74
2,26689, Note_on_c, 0, 69, 0
2,26706, Note_on_c, 0, 65, 0
2,26719, Note_on_c, 0, 70, 75
2,26732, Note_on_c, 0, 64, 68
2,26785, Note_on_c, 0, 70, 0
2,26806, Note_on_c, 0, 64, 0
2,26811, Note_on_c, 0, 65, 75
2,26811, Note_on_c, 0, 69, 75
2,26871, Note_on_c, 0, 65, 0
2,26873, Note_on_c, 0, 69, 0
2,26890, Note_on_c, 0, 70, 76
2,26899, Note_on_c, 0, 67, 72
2,26930, Note_on_c, 0, 67, 0
2,26960, Note_on_c, 0, 70, 0
2,26985, Note_on_c, 0, 64, 67
2,26993, Note_on_c, 0, 67, 76
2,27017, Note_on_c, 0, 64, 0
2,27038, Note_on_c, 0, 67, 0
2,27061, Note_on_c, 0, 69, 72
2,27078, Note_on_c, 0, 65, 69
2,27102, Note_on_c, 0, 65, 0
2,27118, Note_on_c, 0, 69, 0
2,27163, Note_on_c, 0, 65, 75
2,27169, Note_on_c, 0, 62, 73
2,27195, Note_on_c, 0, 65, 0
2,27208, Note_on_c, 0, 67, 67
2,27236, Note_on_c, 0, 62, 0
2,27251, Note_on_c, 0, 67, 0
2,27264, Note_on_c, 0, 65, 69
2,27268, Note_on_c, 0, 60, 68
2,27299, Note_on_c, 0, 65, 0
2,27309, Note_on_c, 0, 67, 66
2,27344, Note_on_c, 0, 60, 0
2,27353, Note_on_c, 0, 62, 71
2,27353, Note_on_c, 0, 67, 0
2,27377, Note_on_c, 0, 65, 67
2,27408, Note_on_c, 0, 65, 0
2,27410, Note_on_c, 0, 62, 0
2,27422, Note_on_c, 0, 67, 62
2,27438, Note_on_c, 0, 64, 67
2,27456, Note_on_c, 0, 67, 0
2,27474, Note_on_c, 0, 65, 66
2,27498, Note_on_c, 0, 64, 0
2,27503, Note_on_c, 0, 65, 0
2,27518, Note_on_c, 0, 67, 64
2,27526, Note_on_c, 0, 62, 64
2,27549, Note_on_c, 0, 67, 0
2,27569, Note_on_c, 0, 65, 70
2,27587, Note_on_c, 0, 62, 0
2,27605, Note_on_c, 0, 64, 73
2,27610, Note_on_c, 0, 65, 0
2,27615, Note_on_c, 0, 67, 79
2,27647, Note_on_c, 0, 67, 0
2,27664, Note_on_c, 0, 64, 0
2,27667, Note_on_c, 0, 65, 73
2,27692, Note_on_c, 0, 60, 67
2,27709, Note_on_c, 0, 65, 0
2,27719, Note_on_c, 0, 67, 75
2,27741, Note_on_c, 0, 60, 0
2,27746, Note_on_c, 0, 67, 0
2,27753, Note_on_c, 0, 65, 71
2,27780, Note_on_c, 0, 62, 72
2,27787, Note_on_c, 0, 65, 0
2,27796, Note_on_c, 0, 67, 68
2,27817, Note_on_c, 0, 62, 0
2,27850, Note_on_c, 0, 65, 87
2,27852, Note_on_c, 0, 67, 0
2,27855, Note_on_c, 0, 59, 74
2,27939, Note_on_c, 0, 59, 0
2,27945, Note_on_c, 0, 57, 70
2,28026, Note_on_c, 0, 65, 0
2,28034, Note_on_c, 0, 57, 0
2,28036, Note_on_c, 0, 59, 76
2,28052, Note_on_c, 0, 74, 88
2,28094, Note_on_c, 0, 59, 0
2,28138, Note_on_c, 0, 60, 69
2,28144, Note_on_c, 0, 72, 90
2,28151, Note_on_c, 0, 74, 0
2,28211, Note_on_c, 0, 60, 0
2,28212, Note_on_c, 0, 72, 0
2,28219, Note_on_c, 0, 59, 70
2,28222, Note_on_c, 0, 74, 92
2,28257, Note_on_c, 0, 74, 0
2,28282, Note_on_c, 0, 59, 0
2,28309, Note_on_c, 0, 60, 71
2,28392, Note_on_c, 0, 60, 0
2,28398, Note_on_c, 0, 65, 89
2,28410, Note_on_c, 0, 57, 69
2,28419, Note_on_c, 0, 65, 0
2,28478, Note_on_c, 0, 57, 0
2,28495, Note_on_c, 0, 59, 83
2,28546, Note_on_c, 0, 59, 0
2,28588, Note_on_c, 0, 64, 88
2,28592, Note_on_c, 0, 60, 80
2,28657, Note_on_c, 0, 64, 0
2,28681, Note_on_c, 0, 62, 81
2,28756, Note_on_c, 0, 62, 0
2,28778, Note_on_c, 0, 48, 83
2,28783, Note_on_c, 0, 64, 79
2,28828, Note_on_c, 0, 48, 0
2,28856, Note_on_c, 0, 47, 86
2,28862, Note_on_c, 0, 64, 0
2,28875, Note_on_c, 0, 65, 79
2,28924, Note_on_c, 0, 47, 0
2,28951, Note_on_c, 0, 48, 98
2,28966, Note_on_c, 0, 64, 81
2,28969, Note_on_c, 0, 65, 0
2,28988, Note_on_c, 0, 48, 0
2,29050, Note_on_c, 0, 64, 0
2,29052, Note_on_c, 0, 60, 0
2,29061, Note_on_c, 0, 65, 78
2,29156, Note_on_c, 0, 45, 82
2,29166, Note_on_c, 0, 62, 82
2,29169, Note_on_c, 0, 65, 0
2,29170, Note_on_c, 0, 43, 72
2,29173, Note_on_c, 0, 59, 67
2,29183, Note_on_c, 0, 45, 0
2,29196, Note_on_c, 0, 43, 0
2,29246, Note_on_c, 0, 62, 0
2,29252, Note_on_c, 0, 64, 74
2,29312, Note_on_c, 0, 64, 0
2,29358, Note_on_c, 0, 52, 88
2,29359, Note_on_c, 0, 59, 0
2,29382, Note_on_c, 0, 60, 82
2,29410, Note_on_c, 0, 50, 83
2,29412, Note_on_c, 0, 52, 0
2,29446, Note_on_c, 0, 59, 72
2,29458, Note_on_c, 0, 52, 73
2,29475, Note_on_c, 0, 50, 0
2,29484, Note_on_c, 0, 60, 0
2,29535, Note_on_c, 0, 59, 0
2,29548, Note_on_c, 0, 57, 67
2,29619, Note_on_c, 0, 57, 0
2,29659, Note_on_c, 0, 60, 64
2,29719, Note_on_c, 0, 52, 0
2,29722, Note_on_c, 0, 60, 0
2,29762, Note_on_c, 0, 50, 80
2,29765, Note_on_c, 0, 59, 70
2,29839, Note_on_c, 0, 59, 0
2,29846, Note_on_c, 0, 57, 59
2,29928, Note_on_c, 0, 57, 0
2,29940, Note_on_c, 0, 55, 67
2,29991, Note_on_c, 0, 55, 0
2,30036, Note_on_c, 0, 59, 63
2,30100, Note_on_c, 0, 59, 0
2,30125, Note_on_c, 0, 50, 0
2,30153, Note_on_c, 0, 57, 64
2,30176, Control_c, 0, 67, 14
2,30192, Control_c, 0, 67, 22
2,30206, Control_c, 0, 67, 32
2,30221, Control_c, 0, 67, 47
2,30237, Control_c, 0, 67, 65
2,30252, Control_c, 0, 67, 82
2,30267, Control_c, 0, 67, 90
2,30282, Control_c, 0, 67, 93
2,30297, Control_c, 0, 67, 94
2,30327, Control_c, 0, 67, 92
2,30342, Control_c, 0, 67, 90
2,30342, Note_on_c, 0, 55, 56
2,30358, Control_c, 0, 67, 89
2,30358, Note_on_c, 0, 48, 53
2,30388, Control_c, 0, 67, 89
2,30426, Control_c, 0, 67, 88
2,30431, Note_on_c, 0, 48, 0
2,30442, Control_c, 0, 67, 87
2,30457, Control_c, 0, 67, 85
2,30460, Note_on_c, 0, 47, 62
2,30473, Control_c, 0, 67, 83
2,30487, Control_c, 0, 67, 81
2,30502, Control_c, 0, 67, 77
2,30504, Note_on_c, 0, 57, 0
2,30518, Control_c, 0, 67, 69
2,30532, Note_on_c, 0, 47, 0
2,30533, Control_c, 0, 67, 56
2,30538, Note_on_c, 0, 48, 64
2,30538, Note_on_c, 0, 55, 0
2,30547, Control_c, 0, 67, 38
2,30547, Note_on_c, 0, 54, 64
2,30563, Control_c, 0, 67, 29
2,30578, Control_c, 0, 67, 30
2,30594, Control_c, 0, 67, 32
2,30601, Note_on_c, 0, 48, 0
2,30609, Control_c, 0, 67, 33
2,30623, Control_c, 0, 67, 33
2,30633, Note_on_c, 0, 50, 63
2,30637, Note_on_c, 0, 54, 0
2,30669, Control_c, 0, 67, 32
2,30685, Control_c, 0, 67, 28
2,30700, Control_c, 0, 67, 19
2,30716, Control_c, 0, 67, 0
2,30722, Note_on_c, 0, 50, 0
2,30724, Note_on_c, 0, 47, 66
2,30730, Note_on_c, 0, 59, 67
2,30748, Note_on_c, 0, 55, 50
2,30793, Note_on_c, 0, 47, 0
2,30806, Note_on_c, 0, 55, 0
2,30812, Note_on_c, 0, 48, 54
2,30880, Note_on_c, 0, 48, 0
2,30909, Note_on_c, 0, 60, 70
2,30914, Note_on_c, 0, 59, 0
2,30917, Note_on_c, 0, 45, 65
2,30981, Note_on_c, 0, 45, 0
2,30984, Note_on_c, 0, 54, 68
2,31000, Note_on_c, 0, 48, 60
2,31018, Note_on_c, 0, 54, 0
2,31066, Note_on_c, 0, 48, 0
2,31081, Note_on_c, 0, 55, 70
2,31086, Note_on_c, 0, 47, 63
2,31132, Note_on_c, 0, 55, 0
2,31158, Note_on_c, 0, 47, 0
2,31163, Note_on_c, 0, 52, 66
2,31175, Note_on_c, 0, 48, 64
2,31223, Note_on_c, 0, 52, 0
2,31233, Note_on_c, 0, 48, 0
2,31235, Note_on_c, 0, 60, 0
2,31263, Note_on_c, 0, 50, 69
2,31268, Note_on_c, 0, 54, 80
2,31346, Note_on_c, 0, 50, 0
2,31353, Note_on_c, 0, 52, 66
2,31433, Note_on_c, 0, 52, 0
2,31457, Note_on_c, 0, 57, 78
2,31462, Note_on_c, 0, 48, 70
2,31491, Note_on_c, 0, 57, 0
2,31517, Note_on_c, 0, 48, 0
2,31553, Note_on_c, 0, 50, 66
2,31633, Note_on_c, 0, 50, 0
2,31649, Note_on_c, 0, 54, 0
2,31655, Note_on_c, 0, 62, 88
2,31658, Note_on_c, 0, 47, 74
2,31735, Note_on_c, 0, 47, 0
2,31740, Note_on_c, 0, 50, 64
2,31814, Note_on_c, 0, 50, 0
2,31841, Note_on_c, 0, 59, 77
2,31844, Note_on_c, 0, 48, 55
2,31867, Note_on_c, 0, 59, 0
2,31907, Note_on_c, 0, 48, 0
2,31917, Note_on_c, 0, 50, 72
2,32022, Note_on_c, 0, 50, 0
2,32028, Note_on_c, 0, 52, 69
2,32038, Note_on_c, 0, 55, 82
2,32054, Note_on_c, 0, 62, 0
2,32092, Note_on_c, 0, 52, 0
2,32116, Note_on_c, 0, 53, 72
2,32207, Note_on_c, 0, 53, 0
2,32212, Note_on_c, 0, 50, 74
2,32215, Note_on_c, 0, 59, 88
2,32253, Note_on_c, 0, 59, 0
2,32288, Note_on_c, 0, 50, 0
2,32302, Note_on_c, 0, 52, 71
2,32395, Note_on_c, 0, 52, 0
2,32415, Note_on_c, 0, 64, 88
2,32417, Note_on_c, 0, 48, 69
2,32450, Note_on_c, 0, 55, 0
2,32500, Note_on_c, 0, 52, 72
2,32503, Note_on_c, 0, 48, 0
2,32596, Note_on_c, 0, 52, 0
2,32603, Note_on_c, 0, 60, 77
2,32604, Note_on_c, 0, 50, 71
2,32628, Note_on_c, 0, 60, 0
2,32686, Note_on_c, 0, 50, 0
2,32687, Note_on_c, 0, 52, 74
2,32782, Note_on_c, 0, 52, 0
2,32795, Note_on_c, 0, 57, 85
2,32800, Note_on_c, 0, 53, 78
2,32801, Note_on_c, 0, 64, 0
2,32880, Note_on_c, 0, 53, 0
2,32889, Note_on_c, 0, 55, 74
2,32968, Note_on_c, 0, 55, 0
2,32980, Note_on_c, 0, 60, 87
2,32983, Note_on_c, 0, 52, 80
2,33011, Note_on_c, 0, 60, 0
2,33051, Note_on_c, 0, 52, 0
2,33063, Note_on_c, 0, 53, 74
2,33156, Note_on_c, 0, 53, 0
2,33177, Note_on_c, 0, 65, 91
2,33182, Note_on_c, 0, 50, 76
2,33213, Note_on_c, 0, 57, 0
2,33267, Note_on_c, 0, 50, 0
2,33267, Note_on_c, 0, 53, 73
2,33341, Note_on_c, 0, 53, 0
2,33368, Note_on_c, 0, 52, 71
2,33368, Note_on_c, 0, 62, 73
2,33394, Note_on_c, 0, 62, 0
2,33446, Note_on_c, 0, 52, 0
2,33451, Note_on_c, 0, 53, 78
2,33545, Note_on_c, 0, 53, 0
2,33548, Note_on_c, 0, 55, 80
2,33561, Note_on_c, 0, 59, 83
2,33586, Note_on_c, 0, 65, 0
2,33629, Note_on_c, 0, 55, 0
2,33647, Note_on_c, 0, 57, 76
2,33715, Note_on_c, 0, 57, 0
2,33738, Note_on_c, 0, 62, 90
2,33742, Note_on_c, 0, 53, 81
2,33774, Note_on_c, 0, 62, 0
2,33794, Note_on_c, 0, 53, 0
2,33827, Note_on_c, 0, 55, 80
2,33899, Note_on_c, 0, 55, 0
2,33917, Note_on_c, 0, 52, 76
2,33930, Note_on_c, 0, 67, 90
2,33965, Note_on_c, 0, 59, 0
2,34011, Note_on_c, 0, 52, 0
2,34016, Note_on_c, 0, 50, 80
2,34107, Note_on_c, 0, 50, 0
2,34112, Note_on_c, 0, 52, 77
2,34115, Note_on_c, 0, 59, 83
2,34173, Note_on_c, 0, 67, 0
2,34176, Note_on_c, 0, 52, 0
2,34179, Note_on_c, 0, 59, 0
2,34198, Note_on_c, 0, 53, 79
2,34287, Note_on_c, 0, 53, 0
2,34300, Note_on_c, 0, 52, 74
2,34301, Note_on_c, 0, 69, 93
2,34315, Note_on_c, 0, 60, 67
2,34378, Note_on_c, 0, 60, 0
2,34381, Note_on_c, 0, 52, 0
2,34389, Note_on_c, 0, 53, 75
2,34402, Note_on_c, 0, 69, 0
2,34469, Note_on_c, 0, 53, 0
2,34488, Note_on_c, 0, 71, 102
2,34495, Note_on_c, 0, 50, 77
2,34501, Note_on_c, 0, 62, 88
2,34574, Note_on_c, 0, 62, 0
2,34585, Note_on_c, 0, 52, 76
2,34586, Note_on_c, 0, 50, 0
2,34611, Note_on_c, 0, 71, 0
2,34665, Note_on_c, 0, 52, 0
2,34694, Note_on_c, 0, 72, 104
2,34699, Note_on_c, 0, 48, 79
2,34703, Note_on_c, 0, 64, 88
2,34744, Note_on_c, 0, 64, 0
2,34774, Note_on_c, 0, 48, 0
2,34795, Note_on_c, 0, 50, 70
2,34864, Note_on_c, 0, 50, 0
2,34871, Note_on_c, 0, 52, 79
2,34890, Note_on_c, 0, 67, 90
2,34940, Note_on_c, 0, 67, 0
2,34956, Note_on_c, 0, 52, 0
2,34959, Note_on_c, 0, 50, 78
2,34965, Note_on_c, 0, 65, 92
2,35020, Note_on_c, 0, 65, 0
2,35029, Note_on_c, 0, 50, 0
2,35062, Note_on_c, 0, 67, 91
2,35063, Note_on_c, 0, 48, 71
2,35097, Note_on_c, 0, 69, 27
2,35099, Note_on_c, 0, 67, 0
2,35133, Note_on_c, 0, 69, 0
2,35160, Note_on_c, 0, 46, 75
2,35166, Note_on_c, 0, 48, 0
2,35237, Note_on_c, 0, 46, 0
2,35252, Note_on_c, 0, 60, 89
2,35261, Note_on_c, 0, 45, 80
2,35287, Note_on_c, 0, 71, 28
2,35288, Note_on_c, 0, 71, 0
2,35296, Note_on_c, 0, 60, 0
2,35320, Note_on_c, 0, 45, 0
2,35342, Note_on_c, 0, 43, 77
2,35423, Note_on_c, 0, 43, 0
2,35447, Note_on_c, 0, 69, 88
2,35460, Note_on_c, 0, 41, 83
2,35471, Note_on_c, 0, 67, 88
2,35488, Note_on_c, 0, 69, 0
2,35525, Note_on_c, 0, 69, 87
2,35541, Note_on_c, 0, 41, 0
2,35543, Note_on_c, 0, 40, 78
2,35548, Note_on_c, 0, 67, 0
2,35632, Note_on_c, 0, 40, 0
2,35636, Note_on_c, 0, 41, 79
2,35707, Note_on_c, 0, 41, 0
2,35734, Note_on_c, 0, 43, 79
2,35785, Note_on_c, 0, 69, 0
2,35801, Note_on_c, 0, 43, 0
2,35828, Note_on_c, 0, 67, 88
2,35834, Note_on_c, 0, 41, 81
2,35908, Note_on_c, 0, 41, 0
2,35914, Note_on_c, 0, 43, 76
2,36000, Note_on_c, 0, 43, 0
2,36011, Note_on_c, 0, 40, 82
2,36085, Note_on_c, 0, 41, 81
2,36097, Note_on_c, 0, 40, 0
2,36139, Note_on_c, 0, 41, 0
2,36149, Note_on_c, 0, 67, 0
2,36180, Note_on_c, 0, 38, 94
2,36264, Note_on_c, 0, 45, 79
2,36272, Note_on_c, 0, 38, 0
2,36347, Note_on_c, 0, 45, 0
2,36363, Note_on_c, 0, 47, 74
2,36378, Note_on_c, 0, 65, 74
2,36420, Note_on_c, 0, 47, 0
2,36447, Note_on_c, 0, 65, 0
2,36456, Note_on_c, 0, 48, 68
2,36459, Note_on_c, 0, 64, 78
2,36541, Note_on_c, 0, 48, 0
2,36552, Note_on_c, 0, 50, 80
2,36564, Note_on_c, 0, 65, 81
2,36569, Note_on_c, 0, 64, 0
2,36614, Note_on_c, 0, 50, 0
2,36642, Note_on_c, 0, 52, 71
2,36642, Note_on_c, 0, 67, 81
2,36645, Note_on_c, 0, 65, 0
2,36712, Note_on_c, 0, 52, 0
2,36720, Note_on_c, 0, 53, 83
2,36728, Note_on_c, 0, 67, 0
2,36740, Note_on_c, 0, 64, 79
2,36782, Note_on_c, 0, 53, 0
2,36801, Note_on_c, 0, 64, 0
2,36812, Note_on_c, 0, 50, 77
2,36821, Note_on_c, 0, 65, 77
2,36907, Note_on_c, 0, 65, 0
2,36924, Note_on_c, 0, 55, 89
2,36935, Note_on_c, 0, 62, 75
2,36976, Note_on_c, 0, 50, 0
2,37001, Note_on_c, 0, 62, 0
2,37017, Note_on_c, 0, 65, 68
2,37085, Control_c, 0, 67, 42
2,37089, Note_on_c, 0, 65, 0
2,37100, Control_c, 0, 67, 101
2,37115, Control_c, 0, 67, 127
2,37118, Note_on_c, 0, 64, 66
2,37144, Note_on_c, 0, 72, 0
2,37202, Note_on_c, 0, 65, 69
2,37240, Note_on_c, 0, 64, 0
2,37265, Note_on_c, 0, 65, 0
2,37307, Note_on_c, 0, 67, 63
2,37322, Note_on_c, 0, 71, 62
2,37348, Note_on_c, 0, 67, 0
2,37418, Note_on_c, 0, 69, 61
2,37424, Note_on_c, 0, 71, 0
2,37490, Note_on_c, 0, 69, 0
2,37516, Note_on_c, 0, 65, 61
2,37577, Note_on_c, 0, 65, 0
2,37600, Note_on_c, 0, 67, 57
2,37628, Note_on_c, 0, 67, 0
2,37692, Note_on_c, 0, 64, 61
2,37738, Note_on_c, 0, 64, 0
2,37778, Note_on_c, 0, 62, 59
2,37852, Note_on_c, 0, 62, 0
2,37857, Note_on_c, 0, 64, 59
2,37885, Note_on_c, 0, 72, 76
2,37909, Note_on_c, 0, 64, 0
2,37939, Note_on_c, 0, 72, 0
2,37952, Note_on_c, 0, 71, 84
2,37964, Note_on_c, 0, 65, 49
2,38007, Note_on_c, 0, 71, 0
2,38028, Note_on_c, 0, 65, 0
2,38031, Note_on_c, 0, 72, 86
2,38050, Note_on_c, 0, 64, 60
2,38052, Note_on_c, 0, 72, 0
2,38126, Note_on_c, 0, 64, 0
2,38165, Note_on_c, 0, 65, 58
2,38215, Note_on_c, 0, 65, 0
2,38231, Note_on_c, 0, 67, 80
2,38243, Note_on_c, 0, 62, 72
2,38254, Note_on_c, 0, 67, 0
2,38285, Note_on_c, 0, 62, 0
2,38343, Note_on_c, 0, 64, 58
2,38402, Note_on_c, 0, 64, 0
2,38411, Note_on_c, 0, 76, 85
2,38445, Note_on_c, 0, 76, 0
2,38447, Note_on_c, 0, 60, 59
2,38451, Note_on_c, 0, 74, 85
2,38496, Note_on_c, 0, 76, 78
2,38504, Note_on_c, 0, 60, 0
2,38512, Note_on_c, 0, 74, 0
2,38524, Note_on_c, 0, 59, 62
2,38594, Note_on_c, 0, 59, 0
2,38605, Note_on_c, 0, 60, 62
2,38668, Note_on_c, 0, 60, 0
2,38703, Note_on_c, 0, 62, 63
2,38756, Note_on_c, 0, 76, 0
2,38765, Note_on_c, 0, 62, 0
2,38789, Note_on_c, 0, 60, 56
2,38796, Note_on_c, 0, 74, 83
2,38874, Control_c, 0, 67, 127
2,38878, Note_on_c, 0, 60, 0
2,38886, Note_on_c, 0, 62, 68
2,38889, Control_c, 0, 67, 125
2,38903, Control_c, 0, 67, 127
2,38949, Control_c, 0, 67, 120
2,38966, Control_c, 0, 67, 113
2,38979, Note_on_c, 0, 62, 0
2,38980, Control_c, 0, 67, 114
2,38993, Note_on_c, 0, 59, 68
2,38996, Control_c, 0, 67, 117
2,39011, Control_c, 0, 67, 116
2,39013, Note_on_c, 0, 55, 0
2,39026, Control_c, 0, 67, 108
2,39042, Control_c, 0, 67, 90
2,39056, Control_c, 0, 67, 60
2,39063, Note_on_c, 0, 60, 74
2,39064, Note_on_c, 0, 59, 0
2,39067, Note_on_c, 0, 74, 0
2,39072, Control_c, 0, 67, 29
2,39087, Control_c, 0, 67, 0
2,39119, Note_on_c, 0, 60, 0
2,39164, Note_on_c, 0, 57, 86
2,39241, Note_on_c, 0, 57, 0
2,39252, Note_on_c, 0, 59, 75
2,39329, Note_on_c, 0, 59, 0
2,39332, Note_on_c, 0, 60, 69
2,39362, Note_on_c, 0, 72, 78
2,39387, Note_on_c, 0, 60, 0
2,39410, Note_on_c, 0, 72, 0
2,39422, Note_on_c, 0, 62, 70
2,39437, Note_on_c, 0, 71, 84
2,39472, Note_on_c, 0, 62, 0
2,39501, Note_on_c, 0, 71, 0
2,39515, Note_on_c, 0, 64, 72
2,39516, Note_on_c, 0, 72, 79
2,39581, Note_on_c, 0, 64, 0
2,39591, Note_on_c, 0, 66, 74
2,39598, Note_on_c, 0, 72, 0
2,39599, Note_on_c, 0, 74, 78
2,39612, Note_on_c, 0, 66, 0
2,39687, Note_on_c, 0, 74, 0
2,39689, Note_on_c, 0, 67, 67
2,39692, Note_on_c, 0, 71, 77
2,39706, Note_on_c, 0, 59, 76
2,39707, Note_on_c, 0, 57, 73
2,39730, Note_on_c, 0, 59, 0
2,39735, Note_on_c, 0, 57, 0
2,39756, Note_on_c, 0, 71, 0
2,39786, Note_on_c, 0, 72, 73
2,39877, Note_on_c, 0, 72, 0
2,39878, Note_on_c, 0, 60, 86
2,39884, Note_on_c, 0, 69, 78
2,39898, Note_on_c, 0, 60, 0
2,39908, Note_on_c, 0, 67, 0
2,39953, Note_on_c, 0, 72, 74
2,39954, Note_on_c, 0, 69, 0
2,40018, Note_on_c, 0, 72, 0
2,40051, Note_on_c, 0, 57, 87
2,40055, Note_on_c, 0, 67, 74
2,40063, Note_on_c, 0, 71, 75
2,40074, Note_on_c, 0, 57, 0
2,40126, Note_on_c, 0, 71, 0
2,40146, Note_on_c, 0, 72, 77
2,40239, Note_on_c, 0, 62, 91
2,40247, Note_on_c, 0, 74, 81
2,40249, Note_on_c, 0, 72, 0
2,40273, Note_on_c, 0, 62, 0
2,40276, Note_on_c, 0, 67, 0
2,40320, Note_on_c, 0, 74, 0
2,40331, Note_on_c, 0, 76, 61
2,40404, Note_on_c, 0, 76, 0
2,40426, Note_on_c, 0, 50, 75
2,40433, Note_on_c, 0, 72, 69
2,40434, Note_on_c, 0, 66, 71
2,40453, Note_on_c, 0, 50, 0
2,40492, Note_on_c, 0, 72, 0
2,40493, Note_on_c, 0, 66, 0
2,40504, Note_on_c, 0, 74, 75
2,40572, Note_on_c, 0, 74, 0
2,40617, Note_on_c, 0, 71, 63
2,40618, Note_on_c, 0, 67, 64
2,40631, Note_on_c, 0, 43, 62
2,40644, Note_on_c, 0, 71, 0
2,40647, Note_on_c, 0, 67, 0
2,40717, Note_on_c, 0, 43, 0
2,40742, Note_on_c, 0, 42, 52
2,40822, Note_on_c, 0, 43, 65
2,40826, Note_on_c, 0, 42, 0
2,40833, Note_on_c, 0, 74, 75
2,40866, Note_on_c, 0, 74, 0
2,40871, Note_on_c, 0, 43, 0
2,40903, Note_on_c, 0, 72, 82
2,40906, Note_on_c, 0, 45, 63
2,40948, Note_on_c, 0, 72, 0
2,40976, Note_on_c, 0, 45, 0
2,40988, Note_on_c, 0, 74, 81
2,41006, Note_on_c, 0, 47, 66
2,41014, Note_on_c, 0, 74, 0
2,41061, Note_on_c, 0, 47, 0
2,41104, Note_on_c, 0, 48, 62
2,41169, Note_on_c, 0, 48, 0
2,41189, Note_on_c, 0, 67, 74
2,41199, Note_on_c, 0, 45, 65
2,41214, Note_on_c, 0, 67, 0
2,41265, Note_on_c, 0, 45, 0
2,41290, Note_on_c, 0, 47, 64
2,41364, Note_on_c, 0, 47, 0
2,41369, Note_on_c, 0, 48, 66
2,41384, Note_on_c, 0, 76, 79
2,41455, Note_on_c, 0, 48, 0
2,41473, Note_on_c, 0, 47, 63
2,41539, Note_on_c, 0, 76, 0
2,41547, Note_on_c, 0, 47, 0
2,41560, Note_on_c, 0, 48, 65
2,41577, Note_on_c, 0, 67, 78
2,41621, Note_on_c, 0, 67, 0
2,41625, Note_on_c, 0, 48, 0
2,41647, Note_on_c, 0, 50, 68
2,41650, Note_on_c, 0, 65, 82
2,41699, Note_on_c, 0, 65, 0
2,41721, Note_on_c, 0, 50, 0
2,41741, Note_on_c, 0, 48, 68
2,41744, Note_on_c, 0, 67, 79
2,41747, Note_on_c, 0, 74, 80
2,41767, Note_on_c, 0, 67, 0
2,41817, Note_on_c, 0, 48, 0
2,41840, Note_on_c, 0, 50, 61
2,41914, Note_on_c, 0, 50, 0
2,41941, Note_on_c, 0, 62, 79
2,41942, Note_on_c, 0, 47, 64
2,41965, Note_on_c, 0, 74, 0
2,41967, Note_on_c, 0, 62, 0
2,41987, Note_on_c, 0, 47, 0
2,42025, Note_on_c, 0, 48, 64
2,42098, Note_on_c, 0, 48, 0
2,42125, Note_on_c, 0, 45, 66
2,42139, Note_on_c, 0, 69, 71
2,42139, Note_on_c, 0, 72, 84
2,42176, Control_c, 0, 64, 46
2,42192, Control_c, 0, 64, 118
2,42207, Control_c, 0, 64, 127
2,42216, Note_on_c, 0, 45, 0
2,42231, Note_on_c, 0, 44, 69
2,42244, Note_on_c, 0, 69, 0
2,42259, Note_on_c, 0, 72, 0
2,42298, Control_c, 0, 64, 94
2,42314, Control_c, 0, 64, 63
2,42318, Note_on_c, 0, 45, 73
2,42323, Note_on_c, 0, 44, 0
2,42329, Control_c, 0, 64, 0
2,42338, Note_on_c, 0, 76, 83
2,42380, Note_on_c, 0, 45, 0
2,42406, Note_on_c, 0, 47, 72
2,42406, Note_on_c, 0, 74, 91
2,42414, Note_on_c, 0, 76, 0
2,42471, Note_on_c, 0, 47, 0
2,42473, Note_on_c, 0, 74, 0
2,42485, Note_on_c, 0, 76, 89
2,42493, Note_on_c, 0, 67, 82
2,42500, Note_on_c, 0, 48, 67
2,42514, Note_on_c, 0, 67, 0
2,42528, Note_on_c, 0, 76, 0
2,42574, Note_on_c, 0, 48, 0
2,42596, Note_on_c, 0, 50, 68
2,42662, Note_on_c, 0, 50, 0
2,42678, Note_on_c, 0, 69, 95
2,42683, Note_on_c, 0, 47, 74
2,42706, Note_on_c, 0, 69, 0
2,42763, Note_on_c, 0, 47, 0
2,42788, Note_on_c, 0, 48, 71
2,42876, Note_on_c, 0, 77, 91
2,42885, Note_on_c, 0, 48, 0
2,42885, Note_on_c, 0, 65, 80
2,42886, Note_on_c, 0, 50, 70
2,42974, Note_on_c, 0, 50, 0
2,42981, Note_on_c, 0, 48, 71
2,43032, Note_on_c, 0, 65, 0
2,43036, Note_on_c, 0, 77, 0
2,43068, Note_on_c, 0, 48, 0
2,43068, Note_on_c, 0, 50, 76
2,43072, Note_on_c, 0, 69, 86
2,43119, Note_on_c, 0, 69, 0
2,43130, Note_on_c, 0, 50, 0
2,43149, Note_on_c, 0, 67, 86
2,43151, Note_on_c, 0, 52, 75
2,43192, Note_on_c, 0, 67, 0
2,43228, Note_on_c, 0, 52, 0
2,43240, Note_on_c, 0, 69, 88
2,43242, Note_on_c, 0, 50, 66
2,43243, Note_on_c, 0, 76, 89
2,43271, Note_on_c, 0, 69, 0
2,43328, Note_on_c, 0, 50, 0
2,43336, Note_on_c, 0, 52, 65
2,43412, Note_on_c, 0, 52, 0
2,43430, Note_on_c, 0, 64, 85
2,43433, Note_on_c, 0, 48, 75
2,43465, Note_on_c, 0, 64, 0
2,43481, Note_on_c, 0, 76, 0
2,43495, Note_on_c, 0, 48, 0
2,43532, Note_on_c, 0, 50, 70
2,43614, Note_on_c, 0, 50, 0
2,43617, Note_on_c, 0, 74, 90
2,43618, Note_on_c, 0, 47, 75
2,43621, Note_on_c, 0, 71, 77
2,43679, Control_c, 0, 64, 59
2,43685, Note_on_c, 0, 71, 0
2,43686, Note_on_c, 0, 47, 0
2,43694, Control_c, 0, 64, 74
2,43701, Note_on_c, 0, 74, 0
2,43708, Note_on_c, 0, 45, 74
2,43709, Control_c, 0, 64, 127
2,43755, Control_c, 0, 64, 104
2,43770, Control_c, 0, 64, 65
2,43785, Control_c, 0, 64, 0
2,43792, Note_on_c, 0, 47, 78
2,43799, Note_on_c, 0, 45, 0
2,43810, Note_on_c, 0, 77, 89
2,43872, Note_on_c, 0, 76, 90
2,43892, Note_on_c, 0, 47, 0
2,43892, Note_on_c, 0, 48, 71
2,43898, Note_on_c, 0, 77, 0
2,43937, Note_on_c, 0, 76, 0
2,43949, Note_on_c, 0, 48, 0
2,43966, Note_on_c, 0, 77, 96
2,43970, Note_on_c, 0, 50, 71
2,43970, Note_on_c, 0, 69, 85
2,43988, Note_on_c, 0, 69, 0
2,44006, Note_on_c, 0, 77, 0
2,44047, Note_on_c, 0, 50, 0
2,44048, Note_on_c, 0, 52, 76
2,44131, Note_on_c, 0, 52, 0
2,44140, Note_on_c, 0, 48, 75
2,44146, Note_on_c, 0, 71, 103
2,44171, Note_on_c, 0, 71, 0
2,44250, Note_on_c, 0, 50, 76
2,44255, Note_on_c, 0, 48, 0
2,44349, Note_on_c, 0, 52, 76
2,44351, Note_on_c, 0, 79, 97
2,44354, Note_on_c, 0, 50, 0
2,44364, Note_on_c, 0, 67, 80
2,44448, Note_on_c, 0, 52, 0
2,44450, Note_on_c, 0, 50, 77
2,44489, Note_on_c, 0, 67, 0
2,44530, Note_on_c, 0, 79, 0
2,44543, Note_on_c, 0, 71, 87
2,44546, Note_on_c, 0, 52, 77
2,44547, Note_on_c, 0, 50, 0
2,44602, Note_on_c, 0, 71, 0
2,44605, Note_on_c, 0, 52, 0
2,44620, Note_on_c, 0, 69, 81
2,44633, Note_on_c, 0, 53, 76
2,44662, Note_on_c, 0, 69, 0
2,44715, Note_on_c, 0, 53, 0
2,44719, Note_on_c, 0, 52, 69
2,44719, Note_on_c, 0, 71, 78
2,44721, Note_on_c, 0, 77, 73
2,44730, Note_on_c, 0, 76, 76
2,44742, Note_on_c, 0, 71, 0
2,44796, Note_on_c, 0, 52, 0
2,44810, Note_on_c, 0, 53, 74
2,44879, Note_on_c, 0, 53, 0
2,44894, Note_on_c, 0, 76, 0
2,44898, Note_on_c, 0, 52, 77
2,44904, Note_on_c, 0, 67, 86
2,44941, Note_on_c, 0, 77, 0
2,44947, Note_on_c, 0, 52, 0
2,44951, Note_on_c, 0, 67, 0
2,44968, Note_on_c, 0, 53, 77
2,45079, Note_on_c, 0, 53, 0
2,45082, Note_on_c, 0, 48, 74
2,45093, Note_on_c, 0, 76, 87
2,45103, Note_on_c, 0, 72, 71
2,45187, Note_on_c, 0, 48, 0
2,45200, Note_on_c, 0, 47, 73
2,45209, Note_on_c, 0, 72, 0
2,45284, Note_on_c, 0, 48, 79
2,45287, Note_on_c, 0, 47, 0
2,45289, Note_on_c, 0, 77, 87
2,45293, Note_on_c, 0, 76, 0
2,45372, Note_on_c, 0, 48, 0
2,45381, Note_on_c, 0, 50, 76
2,45454, Note_on_c, 0, 50, 0
2,45483, Note_on_c, 0, 79, 95
2,45491, Note_on_c, 0, 52, 64
2,45500, Note_on_c, 0, 70, 72
2,45523, Note_on_c, 0, 77, 0
2,45572, Note_on_c, 0, 53, 71
2,45596, Note_on_c, 0, 52, 0
2,45664, Note_on_c, 0, 53, 0
2,45675, Note_on_c, 0, 50, 62
2,45727, Note_on_c, 0, 70, 0
2,45766, Note_on_c, 0, 50, 0
2,45777, Note_on_c, 0, 52, 61
2,45863, Note_on_c, 0, 53, 67
2,45865, Note_on_c, 0, 69, 73
2,45868, Note_on_c, 0, 52, 0
2,45935, Note_on_c, 0, 53, 0
2,45958, Note_on_c, 0, 55, 67
2,46040, Note_on_c, 0, 53, 70
2,46045, Note_on_c, 0, 55, 0
2,46126, Note_on_c, 0, 52, 73
2,46126, Note_on_c, 0, 53, 0
2,46195, Note_on_c, 0, 52, 0
2,46224, Note_on_c, 0, 77, 87
2,46228, Note_on_c, 0, 50, 71
2,46250, Note_on_c, 0, 79, 0
2,46313, Note_on_c, 0, 50, 0
2,46315, Note_on_c, 0, 48, 62
2,46411, Note_on_c, 0, 48, 0
2,46412, Note_on_c, 0, 47, 75
2,46435, Note_on_c, 0, 69, 0
2,46501, Note_on_c, 0, 47, 0
2,46503, Note_on_c, 0, 45, 72
2,46603, Note_on_c, 0, 45, 0
2,46617, Note_on_c, 0, 47, 72
2,46617, Note_on_c, 0, 67, 70
2,46693, Note_on_c, 0, 47, 0
2,46709, Note_on_c, 0, 43, 68
2,46783, Note_on_c, 0, 43, 0
2,46792, Note_on_c, 0, 45, 69
2,46868, Note_on_c, 0, 45, 0
2,46885, Note_on_c, 0, 47, 76
2,46966, Note_on_c, 0, 47, 0
2,46975, Note_on_c, 0, 48, 65
2,46990, Note_on_c, 0, 76, 84
2,47009, Note_on_c, 0, 77, 0
2,47046, Note_on_c, 0, 48, 0
2,47064, Note_on_c, 0, 50, 68
2,47153, Note_on_c, 0, 50, 0
2,47155, Note_on_c, 0, 47, 68
2,47171, Note_on_c, 0, 67, 0
2,47233, Note_on_c, 0, 47, 0
2,47244, Note_on_c, 0, 48, 75
2,47321, Note_on_c, 0, 48, 0
2,47355, Note_on_c, 0, 65, 76
2,47358, Note_on_c, 0, 45, 76
2,47436, Note_on_c, 0, 45, 0
2,47449, Note_on_c, 0, 48, 71
2,47532, Note_on_c, 0, 48, 0
2,47541, Note_on_c, 0, 47, 70
2,47577, Note_on_c, 0, 76, 0
2,47618, Note_on_c, 0, 48, 73
2,47627, Note_on_c, 0, 47, 0
2,47691, Note_on_c, 0, 48, 0
2,47714, Note_on_c, 0, 74, 74
2,47718, Note_on_c, 0, 50, 71
2,47742, Note_on_c, 0, 74, 0
2,47781, Note_on_c, 0, 50, 0
2,47799, Note_on_c, 0, 52, 67
2,47894, Note_on_c, 0, 72, 87
2,47897, Note_on_c, 0, 52, 0
2,47901, Note_on_c, 0, 53, 76
2,47937, Note_on_c, 0, 72, 0
2,47977, Note_on_c, 0, 50, 70
2,47984, Note_on_c, 0, 53, 0
2,48082, Note_on_c, 0, 71, 88
2,48087, Note_on_c, 0, 55, 77
2,48088, Note_on_c, 0, 50, 0
2,48125, Note_on_c, 0, 71, 0
2,48159, Note_on_c, 0, 55, 0
2,48176, Note_on_c, 0, 57, 79
2,48252, Note_on_c, 0, 57, 0
2,48268, Note_on_c, 0, 67, 90
2,48269, Note_on_c, 0, 53, 71
2,48273, Note_on_c, 0, 65, 0
2,48296, Note_on_c, 0, 67, 0
2,48351, Note_on_c, 0, 55, 75
2,48354, Note_on_c, 0, 53, 0
2,48421, Note_on_c, 0, 55, 0
2,48442, Note_on_c, 0, 57, 75
2,48445, Note_on_c, 0, 72, 96
2,48458, Note_on_c, 0, 64, 80
2,48534, Note_on_c, 0, 57, 0
2,48540, Note_on_c, 0, 59, 72
2,48635, Note_on_c, 0, 59, 0
2,48639, Note_on_c, 0, 55, 76
2,48674, Note_on_c, 0, 64, 0
2,48710, Note_on_c, 0, 55, 0
2,48724, Note_on_c, 0, 57, 71
2,48815, Note_on_c, 0, 57, 0
2,48821, Note_on_c, 0, 62, 88
2,48843, Note_on_c, 0, 53, 75
2,48854, Note_on_c, 0, 70, 18
2,48898, Note_on_c, 0, 70, 0
2,48917, Note_on_c, 0, 53, 0
2,48929, Note_on_c, 0, 55, 72
2,48986, Note_on_c, 0, 55, 0
2,49014, Note_on_c, 0, 52, 68
2,49075, Note_on_c, 0, 72, 0
2,49099, Note_on_c, 0, 52, 0
2,49099, Note_on_c, 0, 53, 74
2,49137, Note_on_c, 0, 62, 0
2,49176, Note_on_c, 0, 53, 0
2,49185, Note_on_c, 0, 71, 81
2,49201, Note_on_c, 0, 55, 70
2,49268, Note_on_c, 0, 65, 75
2,49284, Note_on_c, 0, 55, 0
2,49290, Note_on_c, 0, 57, 74
2,49321, Note_on_c, 0, 71, 0
2,49353, Note_on_c, 0, 57, 0
2,49354, Note_on_c, 0, 53, 71
2,49356, Note_on_c, 0, 65, 0
2,49367, Note_on_c, 0, 64, 79
2,49428, Note_on_c, 0, 55, 79
2,49433, Note_on_c, 0, 53, 0
2,49435, Note_on_c, 0, 64, 0
2,49446, Note_on_c, 0, 62, 82
2,49481, Note_on_c, 0, 55, 0
2,49496, Note_on_c, 0, 62, 0
2,49544, Note_on_c, 0, 67, 86
2,49545, Note_on_c, 0, 52, 77
2,49545, Note_on_c, 0, 72, 85
2,49623, Note_on_c, 0, 67, 0
2,49640, Note_on_c, 0, 69, 79
2,49647, Note_on_c, 0, 72, 0
2,49668, Note_on_c, 0, 52, 0
2,49671, Note_on_c, 0, 69, 0
2,49731, Note_on_c, 0, 74, 90
2,49738, Note_on_c, 0, 65, 78
2,49739, Note_on_c, 0, 53, 74
2,49776, Note_on_c, 0, 53, 0
2,49776, Note_on_c, 0, 65, 0
2,49815, Note_on_c, 0, 67, 85
2,49841, Note_on_c, 0, 74, 0
2,49846, Note_on_c, 0, 67, 0
2,49903, Note_on_c, 0, 55, 81
2,49907, Note_on_c, 0, 67, 84
2,49913, Note_on_c, 0, 64, 81
2,49938, Note_on_c, 0, 55, 0
2,49986, Note_on_c, 0, 67, 0
2,49993, Note_on_c, 0, 72, 88
2,49996, Note_on_c, 0, 64, 0
2,50083, Note_on_c, 0, 56, 75
2,50089, Note_on_c, 0, 62, 90
2,50121, Note_on_c, 0, 72, 0
2,50136, Note_on_c, 0, 56, 0
2,50174, Note_on_c, 0, 71, 85
2,50191, Note_on_c, 0, 62, 0
2,50274, Note_on_c, 0, 71, 0
2,50283, Note_on_c, 0, 72, 70
2,50295, Note_on_c, 0, 60, 89
2,50310, Note_on_c, 0, 45, 72
2,50323, Control_c, 0, 67, 34
2,50324, Note_on_c, 0, 72, 0
2,50338, Control_c, 0, 67, 101
2,50353, Control_c, 0, 67, 127
2,50411, Note_on_c, 0, 65, 70
2,50448, Note_on_c, 0, 45, 0
2,50487, Note_on_c, 0, 65, 0
2,50501, Note_on_c, 0, 64, 68
2,50509, Note_on_c, 0, 55, 65
2,50549, Note_on_c, 0, 55, 0
2,50555, Note_on_c, 0, 64, 0
2,50585, Note_on_c, 0, 62, 70
2,50595, Note_on_c, 0, 53, 72
2,50628, Note_on_c, 0, 53, 0
2,50651, Note_on_c, 0, 62, 0
2,50674, Note_on_c, 0, 55, 80
2,50681, Note_on_c, 0, 64, 63
2,50698, Note_on_c, 0, 55, 0
2,50746, Note_on_c, 0, 64, 0
2,50782, Note_on_c, 0, 65, 65
2,50858, Note_on_c, 0, 65, 0
2,50870, Note_on_c, 0, 48, 79
2,50885, Note_on_c, 0, 62, 69
2,50897, Note_on_c, 0, 48, 0
2,50943, Note_on_c, 0, 62, 0
2,50981, Note_on_c, 0, 64, 55
2,51060, Note_on_c, 0, 64, 0
2,51074, Note_on_c, 0, 65, 65
2,51081, Note_on_c, 0, 57, 81
2,51110, Note_on_c, 0, 57, 0
2,51121, Note_on_c, 0, 55, 72
2,51127, Note_on_c, 0, 65, 0
2,51143, Note_on_c, 0, 64, 64
2,51172, Note_on_c, 0, 55, 0
2,51172, Note_on_c, 0, 57, 75
2,51213, Note_on_c, 0, 64, 0
2,51242, Note_on_c, 0, 65, 64
2,51332, Note_on_c, 0, 65, 0
2,51353, Note_on_c, 0, 67, 58
2,51406, Note_on_c, 0, 57, 0
2,51424, Note_on_c, 0, 67, 0
2,51462, Note_on_c, 0, 55, 74
2,51465, Note_on_c, 0, 65, 59
2,51545, Note_on_c, 0, 65, 0
2,51552, Note_on_c, 0, 67, 64
2,51607, Note_on_c, 0, 67, 0
2,51650, Note_on_c, 0, 64, 58
2,51713, Note_on_c, 0, 64, 0
2,51741, Note_on_c, 0, 65, 63
2,51752, Control_c, 0, 67, 126
2,51765, Note_on_c, 0, 60, 0
2,51768, Control_c, 0, 67, 101
2,51783, Control_c, 0, 67, 75
2,51795, Note_on_c, 0, 65, 0
2,51799, Control_c, 0, 67, 52
2,51803, Note_on_c, 0, 55, 0
2,51813, Control_c, 0, 67, 38
2,51828, Control_c, 0, 67, 31
2,51832, Note_on_c, 0, 62, 78
2,51844, Control_c, 0, 67, 27
2,51859, Control_c, 0, 67, 21
2,51874, Control_c, 0, 67, 18
2,51886, Note_on_c, 0, 62, 0
2,51889, Control_c, 0, 67, 18
2,51925, Note_on_c, 0, 60, 66
2,51928, Control_c, 0, 67, 17
2,51943, Control_c, 0, 67, 16
2,51959, Control_c, 0, 67, 14
2,51973, Control_c, 0, 67, 11
2,51988, Control_c, 0, 67, 8
2,52004, Control_c, 0, 67, 0
2,52012, Note_on_c, 0, 53, 77
2,52020, Note_on_c, 0, 62, 74
2,52025, Note_on_c, 0, 60, 0
2,52071, Note_on_c, 0, 53, 0
2,52074, Note_on_c, 0, 62, 0
2,52097, Note_on_c, 0, 64, 74
2,52102, Note_on_c, 0, 52, 76
2,52163, Note_on_c, 0, 52, 0
2,52168, Note_on_c, 0, 64, 0
2,52180, Note_on_c, 0, 53, 92
2,52192, Note_on_c, 0, 62, 79
2,52206, Note_on_c, 0, 53, 0
2,52252, Note_on_c, 0, 62, 0
2,52279, Note_on_c, 0, 64, 65
2,52349, Note_on_c, 0, 64, 0
2,52364, Note_on_c, 0, 50, 89
2,52372, Note_on_c, 0, 60, 72
2,52386, Note_on_c, 0, 50, 0
2,52457, Note_on_c, 0, 60, 0
2,52457, Note_on_c, 0, 62, 67
2,52517, Note_on_c, 0, 62, 0
2,52549, Note_on_c, 0, 55, 85
2,52566, Note_on_c, 0, 60, 70
2,52568, Note_on_c, 0, 64, 75
2,52587, Note_on_c, 0, 55, 0
2,52590, Note_on_c, 0, 53, 77
2,52613, Note_on_c, 0, 60, 0
2,52622, Note_on_c, 0, 64, 0
2,52627, Note_on_c, 0, 62, 72
2,52645, Note_on_c, 0, 53, 0
2,52647, Note_on_c, 0, 55, 79
2,52689, Note_on_c, 0, 62, 0
2,52738, Note_on_c, 0, 64, 73
2,52739, Note_on_c, 0, 60, 62
2,52801, Note_on_c, 0, 64, 0
2,52828, Note_on_c, 0, 65, 69
2,52879, Note_on_c, 0, 65, 0
2,52894, Note_on_c, 0, 55, 0
2,52909, Note_on_c, 0, 60, 0
2,52934, Note_on_c, 0, 53, 77
2,52934, Note_on_c, 0, 64, 72
2,52937, Note_on_c, 0, 60, 21
2,52975, Note_on_c, 0, 60, 0
2,52996, Note_on_c, 0, 64, 0
2,53007, Note_on_c, 0, 65, 74
2,53099, Note_on_c, 0, 59, 60
2,53100, Note_on_c, 0, 65, 0
2,53108, Note_on_c, 0, 62, 75
2,53127, Note_on_c, 0, 53, 0
2,53155, Note_on_c, 0, 59, 0
2,53162, Note_on_c, 0, 62, 0
2,53189, Note_on_c, 0, 64, 78
2,53223, Note_on_c, 0, 64, 0
2,53295, Note_on_c, 0, 60, 82
2,53307, Note_on_c, 0, 52, 63
2,53383, Note_on_c, 0, 52, 0
2,53396, Note_on_c, 0, 50, 59
2,53477, Note_on_c, 0, 50, 0
2,53490, Note_on_c, 0, 52, 64
2,53499, Note_on_c, 0, 55, 73
2,53541, Note_on_c, 0, 55, 0
2,53545, Note_on_c, 0, 52, 0
2,53567, Note_on_c, 0, 53, 88
2,53635, Note_on_c, 0, 53, 0
2,53658, Note_on_c, 0, 55, 86
2,53667, Note_on_c, 0, 52, 68
2,53706, Note_on_c, 0, 55, 0
2,53708, Note_on_c, 0, 57, 6
2,53738, Note_on_c, 0, 52, 0
2,53753, Note_on_c, 0, 53, 63
2,53768, Note_on_c, 0, 57, 0
2,53842, Note_on_c, 0, 48, 82
2,53846, Note_on_c, 0, 53, 0
2,53851, Note_on_c, 0, 50, 68
2,53875, Note_on_c, 0, 48, 0
2,53939, Note_on_c, 0, 50, 0
2,53944, Note_on_c, 0, 52, 66
2,54016, Note_on_c, 0, 52, 0
2,54029, Note_on_c, 0, 57, 81
2,54030, Note_on_c, 0, 53, 73
2,54057, Note_on_c, 0, 55, 82
2,54065, Note_on_c, 0, 57, 0
2,54084, Note_on_c, 0, 53, 0
2,54109, Note_on_c, 0, 57, 77
2,54117, Note_on_c, 0, 55, 0
2,54123, Note_on_c, 0, 52, 70
2,54195, Note_on_c, 0, 52, 0
2,54200, Note_on_c, 0, 53, 70
2,54269, Note_on_c, 0, 53, 0
2,54301, Note_on_c, 0, 55, 74
2,54343, Note_on_c, 0, 57, 0
2,54359, Note_on_c, 0, 55, 0
2,54399, Note_on_c, 0, 53, 74
2,54409, Note_on_c, 0, 55, 75
2,54444, Note_on_c, 0, 60, 0
2,54444, Note_on_c, 0, 60, 3
2,54468, Note_on_c, 0, 53, 0
2,54581, Note_on_c, 0, 52, 71
2,54634, Note_on_c, 0, 52, 0
2,54652, Note_on_c, 0, 55, 0
2,54670, Note_on_c, 0, 53, 69
2,54733, Note_on_c, 0, 53, 0
2,54757, Note_on_c, 0, 50, 81
2,54852, Note_on_c, 0, 48, 79
2,54854, Note_on_c, 0, 50, 0
2,54932, Note_on_c, 0, 48, 0
2,54948, Note_on_c, 0, 50, 68
2,54959, Note_on_c, 0, 53, 83
2,55014, Note_on_c, 0, 50, 0
2,55016, Note_on_c, 0, 53, 0
2,55030, Note_on_c, 0, 52, 87
2,55086, Note_on_c, 0, 52, 0
2,55119, Note_on_c, 0, 53, 87
2,55123, Note_on_c, 0, 50, 72
2,55152, Note_on_c, 0, 53, 0
2,55197, Note_on_c, 0, 50, 0
2,55206, Note_on_c, 0, 48, 80
2,55255, Note_on_c, 0, 48, 0
2,55295, Note_on_c, 0, 47, 77
2,55295, Note_on_c, 0, 50, 87
2,55337, Note_on_c, 0, 50, 0
2,55383, Note_on_c, 0, 47, 0
2,55387, Note_on_c, 0, 45, 76
2,55475, Note_on_c, 0, 55, 86
2,55493, Note_on_c, 0, 43, 78
2,55497, Note_on_c, 0, 45, 0
2,55520, Note_on_c, 0, 60, 0
2,55551, Note_on_c, 0, 43, 0
2,55568, Note_on_c, 0, 41, 73
2,55653, Note_on_c, 0, 41, 0
2,55664, Note_on_c, 0, 59, 92
2,55668, Note_on_c, 0, 43, 76
2,55698, Control_c, 0, 64, 53
2,55713, Control_c, 0, 64, 71
2,55729, Control_c, 0, 64, 103
2,55732, Note_on_c, 0, 55, 0
2,55750, Control_c, 0, 64, 114
2,55753, Note_on_c, 0, 43, 0
2,55753, Note_on_c, 0, 45, 78
2,55766, Control_c, 0, 64, 73
2,55781, Control_c, 0, 64, 0
2,55781, Note_on_c, 0, 59, 0
2,55831, Note_on_c, 0, 45, 0
2,55848, Note_on_c, 0, 60, 94
2,55849, Note_on_c, 0, 43, 81
2,55853, Note_on_c, 0, 57, 97
2,55938, Note_on_c, 0, 41, 76
2,55943, Note_on_c, 0, 43, 0
2,55977, Note_on_c, 0, 57, 0
2,55995, Note_on_c, 0, 60, 0
2,56055, Note_on_c, 0, 62, 99
2,56056, Note_on_c, 0, 40, 84
2,56059, Note_on_c, 0, 59, 88
2,56062, Note_on_c, 0, 41, 0
2,56154, Note_on_c, 0, 38, 79
2,56155, Note_on_c, 0, 40, 0
2,56214, Note_on_c, 0, 59, 0
2,56222, Note_on_c, 0, 62, 0
2,56227, Note_on_c, 0, 38, 0
2,56283, Note_on_c, 0, 36, 86
2,56290, Note_on_c, 0, 64, 100
2,56298, Note_on_c, 0, 60, 86
2,56331, Control_c, 0, 64, 56
2,56338, Note_on_c, 0, 60, 0
2,56345, Note_on_c, 0, 64, 0
2,56346, Control_c, 0, 64, 84
2,56354, Note_on_c, 0, 36, 0
2,56362, Control_c, 0, 64, 127
2,56378, Note_on_c, 0, 48, 77
2,56468, Control_c, 0, 64, 109
2,56473, Note_on_c, 0, 52, 77
2,56475, Note_on_c, 0, 48, 0
2,56484, Control_c, 0, 64, 58
2,56492, Note_on_c, 0, 58, 90
2,56498, Control_c, 0, 64, 0
2,56504, Note_on_c, 0, 67, 69
2,56517, Note_on_c, 0, 68, 49
2,56526, Note_on_c, 0, 58, 0
2,56526, Note_on_c, 0, 69, 53
2,56536, Note_on_c, 0, 52, 0
2,56538, Note_on_c, 0, 67, 0
2,56544, Note_on_c, 0, 68, 0
2,56553, Note_on_c, 0, 69, 0
2,56578, Note_on_c, 0, 48, 75
2,56578, Note_on_c, 0, 65, 90
2,56587, Note_on_c, 0, 57, 87
2,56609, Note_on_c, 0, 57, 0
2,56632, Note_on_c, 0, 65, 0
2,56645, Note_on_c, 0, 48, 0
2,56665, Note_on_c, 0, 67, 82
2,56672, Note_on_c, 0, 58, 93
2,56681, Note_on_c, 0, 36, 69
2,56688, Note_on_c, 0, 38, 73
2,56696, Note_on_c, 0, 58, 0
2,56709, Note_on_c, 0, 67, 0
2,56721, Note_on_c, 0, 36, 0
2,56726, Note_on_c, 0, 38, 0
2,56751, Note_on_c, 0, 48, 73
2,56837, Note_on_c, 0, 48, 0
2,56853, Note_on_c, 0, 60, 89
2,56855, Note_on_c, 0, 64, 87
2,56857, Note_on_c, 0, 55, 63
2,56881, Note_on_c, 0, 60, 0
2,56891, Note_on_c, 0, 55, 0
2,56901, Note_on_c, 0, 64, 0
2,56939, Note_on_c, 0, 48, 72
2,57025, Note_on_c, 0, 48, 0
2,57041, Note_on_c, 0, 69, 87
2,57045, Note_on_c, 0, 65, 81
2,57060, Note_on_c, 0, 36, 77
2,57090, Note_on_c, 0, 67, 85
2,57091, Note_on_c, 0, 69, 0
2,57125, Note_on_c, 0, 69, 82
2,57152, Note_on_c, 0, 67, 0
2,57155, Note_on_c, 0, 36, 0
2,57155, Note_on_c, 0, 38, 78
2,57235, Note_on_c, 0, 38, 0
2,57248, Note_on_c, 0, 40, 80
2,57277, Note_on_c, 0, 65, 0
2,57349, Note_on_c, 0, 41, 78
2,57356, Note_on_c, 0, 40, 0
2,57423, Note_on_c, 0, 41, 0
2,57436, Note_on_c, 0, 67, 89
2,57446, Note_on_c, 0, 64, 75
2,57448, Note_on_c, 0, 43, 73
2,57470, Note_on_c, 0, 69, 0
2,57510, Note_on_c, 0, 43, 0
2,57535, Note_on_c, 0, 45, 77
2,57614, Note_on_c, 0, 47, 77
2,57615, Note_on_c, 0, 45, 0
2,57683, Note_on_c, 0, 47, 0
2,57684, Note_on_c, 0, 67, 0
2,57693, Note_on_c, 0, 64, 0
2,57701, Note_on_c, 0, 48, 77
2,57756, Note_on_c, 0, 48, 0
2,57794, Note_on_c, 0, 36, 94
2,57858, Note_on_c, 0, 36, 0
2,57890, Note_on_c, 0, 48, 75
2,57957, Note_on_c, 0, 48, 0
2,57986, Note_on_c, 0, 50, 74
2,57996, Note_on_c, 0, 65, 83
2,58048, Note_on_c, 0, 50, 0
2,58060, Note_on_c, 0, 65, 0
2,58072, Note_on_c, 0, 64, 85
2,58084, Note_on_c, 0, 48, 74
2,58130, Note_on_c, 0, 64, 0
2,58139, Note_on_c, 0, 48, 0
2,58157, Note_on_c, 0, 65, 93
2,58164, Note_on_c, 0, 36, 84
2,58189, Note_on_c, 0, 65, 0
2,58219, Note_on_c, 0, 36, 0
2,58239, Note_on_c, 0, 48, 76
2,58317, Note_on_c, 0, 48, 0
2,58339, Note_on_c, 0, 53, 73
2,58341, Note_on_c, 0, 62, 98
2,58375, Note_on_c, 0, 62, 0
2,58387, Note_on_c, 0, 53, 0
2,58421, Note_on_c, 0, 48, 72
2,58522, Note_on_c, 0, 48, 0
2,58535, Note_on_c, 0, 67, 93
2,58542, Note_on_c, 0, 47, 65
2,58606, Control_c, 0, 64, 77
2,58622, Control_c, 0, 64, 127
2,58624, Note_on_c, 0, 47, 0
2,58635, Note_on_c, 0, 48, 75
2,58698, Control_c, 0, 64, 85
2,58713, Control_c, 0, 64, 49
2,58715, Note_on_c, 0, 48, 0
2,58724, Note_on_c, 0, 47, 71
2,58728, Control_c, 0, 64, 0
2,58742, Note_on_c, 0, 62, 91
2,58797, Note_on_c, 0, 62, 0
2,58803, Note_on_c, 0, 47, 0
2,58804, Note_on_c, 0, 45, 77
2,58809, Note_on_c, 0, 60, 85
2,58859, Note_on_c, 0, 67, 0
2,58865, Note_on_c, 0, 60, 0
2,58870, Note_on_c, 0, 45, 0
2,58896, Note_on_c, 0, 43, 80
2,58898, Note_on_c, 0, 65, 87
2,58906, Note_on_c, 0, 62, 84
2,58953, Note_on_c, 0, 62, 0
2,58982, Note_on_c, 0, 43, 0
2,58985, Note_on_c, 0, 41, 77
2,59085, Note_on_c, 0, 55, 82
2,59093, Note_on_c, 0, 40, 83
2,59096, Note_on_c, 0, 41, 0
2,59142, Note_on_c, 0, 55, 0
2,59173, Note_on_c, 0, 38, 80
2,59173, Note_on_c, 0, 65, 0
2,59189, Note_on_c, 0, 40, 0
2,59229, Note_on_c, 0, 38, 0
2,59274, Note_on_c, 0, 60, 82
2,59275, Note_on_c, 0, 64, 84
2,59280, Note_on_c, 0, 36, 89
2,59298, Control_c, 0, 64, 68
2,59302, Note_on_c, 0, 60, 0
2,59314, Control_c, 0, 64, 127
2,59315, Note_on_c, 0, 64, 0
2,59344, Note_on_c, 0, 36, 0
2,59360, Control_c, 0, 64, 103
2,59375, Control_c, 0, 64, 66
2,59375, Note_on_c, 0, 48, 78
2,59389, Control_c, 0, 64, 0
2,59434, Note_on_c, 0, 48, 0
2,59461, Note_on_c, 0, 68, 80
2,59464, Note_on_c, 0, 59, 77
2,59464, Note_on_c, 0, 65, 79
2,59471, Note_on_c, 0, 50, 68
2,59485, Note_on_c, 0, 48, 62
2,59502, Note_on_c, 0, 59, 0
2,59517, Note_on_c, 0, 48, 0
2,59520, Note_on_c, 0, 65, 0
2,59524, Note_on_c, 0, 50, 0
2,59535, Note_on_c, 0, 68, 0
2,59590, Note_on_c, 0, 48, 59
2,59602, Note_on_c, 0, 47, 65
2,59643, Note_on_c, 0, 47, 0
2,59646, Note_on_c, 0, 60, 78
2,59649, Note_on_c, 0, 64, 71
2,59649, Note_on_c, 0, 67, 83
2,59664, Note_on_c, 0, 48, 0
2,59668, Note_on_c, 0, 52, 81
2,59683, Note_on_c, 0, 60, 0
2,59688, Note_on_c, 0, 64, 0
2,59698, Note_on_c, 0, 67, 0
2,59741, Note_on_c, 0, 52, 0
2,59761, Note_on_c, 0, 48, 79
2,59823, Note_on_c, 0, 48, 0
2,59825, Note_on_c, 0, 71, 92
2,59828, Note_on_c, 0, 62, 87
2,59829, Note_on_c, 0, 68, 82
2,59846, Note_on_c, 0, 53, 80
2,59889, Note_on_c, 0, 62, 0
2,59910, Note_on_c, 0, 68, 0
2,59910, Note_on_c, 0, 71, 0
2,59935, Note_on_c, 0, 48, 71
2,59960, Note_on_c, 0, 53, 0
2,60017, Note_on_c, 0, 48, 0
2,60017, Note_on_c, 0, 72, 95
2,60020, Note_on_c, 0, 64, 86
2,60021, Note_on_c, 0, 67, 85
2,60032, Note_on_c, 0, 55, 78
2,60071, Note_on_c, 0, 64, 0
2,60075, Note_on_c, 0, 67, 0
2,60082, Note_on_c, 0, 72, 0
2,60109, Note_on_c, 0, 55, 0
2,60128, Note_on_c, 0, 48, 73
2,60197, Note_on_c, 0, 65, 89
2,60208, Note_on_c, 0, 59, 76
2,60208, Note_on_c, 0, 62, 86
2,60216, Note_on_c, 0, 48, 0
2,60220, Note_on_c, 0, 56, 81
2,60225, Note_on_c, 0, 60, 65
2,60241, Note_on_c, 0, 59, 0
2,60247, Note_on_c, 0, 60, 0
2,60259, Note_on_c, 0, 62, 0
2,60274, Note_on_c, 0, 65, 0
2,60296, Note_on_c, 0, 56, 0
2,60317, Note_on_c, 0, 48, 76
2,60393, Note_on_c, 0, 48, 0
2,60400, Note_on_c, 0, 64, 92
2,60402, Note_on_c, 0, 60, 75
2,60414, Note_on_c, 0, 55, 84
2,60452, Note_on_c, 0, 60, 0
2,60476, Note_on_c, 0, 64, 0
2,60498, Note_on_c, 0, 55, 0
2,60500, Note_on_c, 0, 48, 79
2,60587, Note_on_c, 0, 48, 0
2,60594, Note_on_c, 0, 47, 66
2,60605, Note_on_c, 0, 72, 95
2,60608, Note_on_c, 0, 64, 90
2,60665, Note_on_c, 0, 72, 0
2,60666, Note_on_c, 0, 64, 0
2,60677, Note_on_c, 0, 48, 84
2,60693, Note_on_c, 0, 47, 0
2,60750, Note_on_c, 0, 48, 0
2,60823, Note_on_c, 0, 62, 95
2,60824, Note_on_c, 0, 57, 87
2,60830, Note_on_c, 0, 41, 87
2,60910, Note_on_c, 0, 57, 0
2,60931, Note_on_c, 0, 62, 0
2,60935, Note_on_c, 0, 41, 0
2,61088, Note_on_c, 0, 72, 99
2,61215, Note_on_c, 0, 72, 0
2,61368, Note_on_c, 0, 65, 90
2,61377, Note_on_c, 0, 62, 78
2,61390, Note_on_c, 0, 43, 77
2,61390, Note_on_c, 0, 55, 82
2,61519, Note_on_c, 0, 62, 0
2,61541, Note_on_c, 0, 65, 0
2,61552, Note_on_c, 0, 55, 0
2,61621, Note_on_c, 0, 43, 0
2,61701, Note_on_c, 0, 71, 95
2,61858, Control_c, 0, 64, 70
2,61870, Note_on_c, 0, 71, 0
2,61873, Control_c, 0, 64, 127
2,62019, Control_c, 0, 64, 71
2,62033, Control_c, 0, 64, 0
2,62172, Note_on_c, 0, 72, 87
2,62180, Note_on_c, 0, 60, 73
2,62183, Note_on_c, 0, 64, 73
2,62183, Note_on_c, 0, 67, 69
2,62201, Note_on_c, 0, 36, 70
2,63350, Control_c, 0, 64, 41
2,63366, Control_c, 0, 64, 59
2,63381, Control_c, 0, 64, 62
2,63397, Control_c, 0, 64, 63
2,63411, Control_c, 0, 64, 66
2,63435, Control_c, 0, 64, 73
2,63450, Control_c, 0, 64, 121
2,63464, Control_c, 0, 64, 127
2,63713, Note_on_c, 0, 72, 0
2,63752, Note_on_c, 0, 67, 0
2,63758, Note_on_c, 0, 60, 0
2,63760, Note_on_c, 0, 64, 0
2,63771, Note_on_c, 0, 36, 0
2,63783, Control_c, 0, 64, 83
2,63799, Control_c, 0, 64, 64
2,63814, Control_c, 0, 64, 0
2,63815, End_track
0, 0, End_of_file
