0, 0, Header, 1, 2, 384
1, 0, Start_track
1, 0, Tempo, 500000
1, 0, Time_signature, 4, 2, 24, 8
1, 1, End_track
2, 0, Start_track
2, 0, Title_t," ""07/02  1~3"""
2, 0, Program_c, 0, 0
2, 0, Control_c, 0, 64, 127
2, 0, Control_c, 0, 67, 0
2, 735, Note_on_c, 0, 48, 56
2, 745, Note_on_c, 0, 36, 52
2, 867, Control_c, 0, 64, 89
2, 882, Control_c, 0, 64, 64
2, 898, Control_c, 0, 64, 0
2, 1242, Note_on_c, 0, 72, 61
2, 1475, Note_on_c, 0, 74, 66
2, 1523, Note_on_c, 0, 72, 0
2, 1662, Note_on_c, 0, 76, 71
2, 1709, Note_on_c, 0, 74, 0
2, 1863, Note_on_c, 0, 67, 61
2, 1882, Note_on_c, 0, 76, 0
2, 2059, Note_on_c, 0, 76, 66
2, 2092, Note_on_c, 0, 67, 0
2, 2254, Note_on_c, 0, 65, 63
2, 2272, Note_on_c, 0, 76, 0
2, 2464, Note_on_c, 0, 74, 66
2, 2469, Note_on_c, 0, 65, 0
2, 2509, Control_c, 0, 64, 63
2, 2525, Control_c, 0, 64, 72
2, 2540, Control_c, 0, 64, 103
2, 2555, Control_c, 0, 64, 127
2, 2635, Note_on_c, 0, 74, 0
2, 2683, Note_on_c, 0, 64, 59
2, 2699, Control_c, 0, 64, 90
2, 2714, Control_c, 0, 64, 74
2, 2730, Control_c, 0, 64, 63
2, 2745, Control_c, 0, 64, 0
2, 2775, Note_on_c, 0, 72, 71
2, 2782, Note_on_c, 0, 64, 0
2, 2857, Note_on_c, 0, 72, 0
2, 2870, Note_on_c, 0, 71, 64
2, 2947, Note_on_c, 0, 69, 67
2, 2981, Note_on_c, 0, 71, 0
2, 3071, Note_on_c, 0, 67, 63
2, 3089, Note_on_c, 0, 69, 0
2, 3282, Note_on_c, 0, 70, 64
2, 3298, Note_on_c, 0, 67, 0
2, 3491, Note_on_c, 0, 70, 0
2, 3493, Note_on_c, 0, 64, 58
2, 3697, Note_on_c, 0, 67, 58
2, 3718, Note_on_c, 0, 64, 0
2, 3894, Note_on_c, 0, 67, 0
2, 3904, Note_on_c, 0, 60, 58
2, 4031, Control_c, 0, 64, 64
2, 4047, Control_c, 0, 64, 84
2, 4062, Control_c, 0, 64, 127
2, 4105, Note_on_c, 0, 70, 67
2, 4120, Note_on_c, 0, 60, 0
2, 4193, Note_on_c, 0, 70, 0
2, 4298, Control_c, 0, 64, 92
2, 4312, Control_c, 0, 64, 72
2, 4326, Note_on_c, 0, 69, 63
2, 4328, Control_c, 0, 64, 62
2, 4343, Control_c, 0, 64, 0
2, 4414, Note_on_c, 0, 67, 71
2, 4429, Note_on_c, 0, 69, 0
2, 4512, Note_on_c, 0, 65, 69
2, 4514, Note_on_c, 0, 67, 0
2, 4587, Note_on_c, 0, 65, 0
2, 4592, Note_on_c, 0, 64, 68
2, 4710, Note_on_c, 0, 65, 65
2, 4722, Note_on_c, 0, 64, 0
2, 4927, Note_on_c, 0, 69, 62
2, 4946, Note_on_c, 0, 65, 0
2, 5130, Note_on_c, 0, 62, 65
2, 5146, Note_on_c, 0, 69, 0
2, 5334, Note_on_c, 0, 65, 59
2, 5376, Note_on_c, 0, 62, 0
2, 5539, Note_on_c, 0, 57, 67
2, 5597, Note_on_c, 0, 65, 0
2, 5740, Note_on_c, 0, 60, 60
2, 5798, Note_on_c, 0, 57, 0
2, 5953, Note_on_c, 0, 59, 59
2, 5992, Note_on_c, 0, 60, 0
2, 6155, Note_on_c, 0, 62, 63
2, 6183, Note_on_c, 0, 59, 0
2, 6345, Note_on_c, 0, 64, 64
2, 6357, Note_on_c, 0, 62, 0
2, 6548, Note_on_c, 0, 65, 63
2, 6584, Note_on_c, 0, 64, 0
2, 6753, Note_on_c, 0, 55, 57
2, 6775, Note_on_c, 0, 65, 0
2, 6951, Note_on_c, 0, 65, 64
2, 7036, Note_on_c, 0, 55, 0
2, 7156, Note_on_c, 0, 64, 66
2, 7182, Note_on_c, 0, 65, 0
2, 7373, Note_on_c, 0, 62, 71
2, 7397, Note_on_c, 0, 64, 0
2, 7474, Control_c, 0, 64, 22
2, 7490, Control_c, 0, 64, 64
2, 7505, Control_c, 0, 64, 68
2, 7520, Control_c, 0, 64, 82
2, 7536, Control_c, 0, 64, 109
2, 7550, Control_c, 0, 64, 127
2, 7642, Note_on_c, 0, 64, 62
2, 7673, Control_c, 0, 64, 101
2, 7686, Note_on_c, 0, 62, 0
2, 7689, Control_c, 0, 64, 85
2, 7704, Control_c, 0, 64, 73
2, 7718, Control_c, 0, 64, 64
2, 7734, Control_c, 0, 64, 0
2, 7841, Control_c, 0, 67, 18
2, 7857, Control_c, 0, 67, 34
2, 7871, Control_c, 0, 67, 49
2, 7887, Control_c, 0, 67, 58
2, 7902, Control_c, 0, 67, 65
2, 7903, Note_on_c, 0, 60, 45
2, 7917, Control_c, 0, 67, 70
2, 7933, Control_c, 0, 67, 74
2, 7948, Control_c, 0, 67, 76
2, 8000, Control_c, 0, 67, 76
2, 8016, Control_c, 0, 67, 77
2, 8092, Control_c, 0, 67, 76
2, 8119, Note_on_c, 0, 59, 55
2, 8153, Control_c, 0, 67, 75
2, 8169, Control_c, 0, 67, 75
2, 8184, Control_c, 0, 67, 74
2, 8259, Control_c, 0, 67, 73
2, 8274, Control_c, 0, 67, 72
2, 8310, Note_on_c, 0, 36, 0
2, 8312, Note_on_c, 0, 57, 55
2, 8317, Note_on_c, 0, 48, 0
2, 8354, Note_on_c, 0, 59, 0
2, 8518, Note_on_c, 0, 55, 52
2, 8551, Note_on_c, 0, 57, 0
2, 8576, Control_c, 0, 67, 72
2, 8607, Control_c, 0, 67, 71
2, 8699, Control_c, 0, 67, 71
2, 8716, Note_on_c, 0, 53, 53
2, 8752, Control_c, 0, 67, 70
2, 8768, Control_c, 0, 67, 70
2, 8859, Control_c, 0, 67, 69
2, 8914, Note_on_c, 0, 52, 59
2, 8927, Note_on_c, 0, 53, 0
2, 8965, Control_c, 0, 67, 69
2, 9087, Control_c, 0, 67, 68
2, 9114, Note_on_c, 0, 50, 58
2, 9122, Note_on_c, 0, 52, 0
2, 9316, Note_on_c, 0, 50, 0
2, 9323, Note_on_c, 0, 48, 60
2, 9396, Note_on_c, 0, 48, 0
2, 9406, Control_c, 0, 67, 68
2, 9426, Note_on_c, 0, 50, 66
2, 9498, Control_c, 0, 67, 67
2, 9506, Note_on_c, 0, 50, 0
2, 9511, Note_on_c, 0, 48, 61
2, 9513, Control_c, 0, 67, 67
2, 9535, Control_c, 0, 67, 66
2, 9600, Note_on_c, 0, 48, 0
2, 9609, Note_on_c, 0, 47, 62
2, 9626, Control_c, 0, 67, 67
2, 9657, Control_c, 0, 67, 66
2, 9688, Control_c, 0, 67, 67
2, 9714, Note_on_c, 0, 48, 60
2, 9715, Note_on_c, 0, 47, 0
2, 9718, Control_c, 0, 67, 67
2, 9839, Control_c, 0, 67, 67
2, 9885, Control_c, 0, 67, 66
2, 9926, Note_on_c, 0, 52, 58
2, 9936, Note_on_c, 0, 48, 0
2, 9960, Control_c, 0, 67, 66
2, 9976, Control_c, 0, 67, 65
2, 9991, Control_c, 0, 67, 65
2, 10006, Control_c, 0, 67, 64
2, 10021, Control_c, 0, 67, 64
2, 10036, Control_c, 0, 67, 63
2, 10052, Control_c, 0, 67, 63
2, 10067, Control_c, 0, 67, 62
2, 10082, Control_c, 0, 67, 61
2, 10098, Control_c, 0, 67, 61
2, 10112, Control_c, 0, 67, 60
2, 10116, Note_on_c, 0, 43, 58
2, 10143, Control_c, 0, 67, 60
2, 10143, Note_on_c, 0, 52, 0
2, 10320, Note_on_c, 0, 46, 63
2, 10345, Note_on_c, 0, 43, 0
2, 10470, Control_c, 0, 67, 60
2, 10522, Note_on_c, 0, 45, 61
2, 10538, Note_on_c, 0, 46, 0
2, 10739, Note_on_c, 0, 43, 52
2, 10754, Note_on_c, 0, 45, 0
2, 11009, Note_on_c, 0, 57, 52
2, 11030, Note_on_c, 0, 41, 44
2, 11059, Note_on_c, 0, 55, 0
2, 11096, Note_on_c, 0, 43, 0
2, 11121, Note_on_c, 0, 60, 0
2, 11269, Note_on_c, 0, 48, 46
2, 11467, Note_on_c, 0, 50, 53
2, 11489, Note_on_c, 0, 48, 0
2, 11650, Control_c, 0, 67, 60
2, 11669, Note_on_c, 0, 52, 61
2, 11702, Note_on_c, 0, 50, 0
2, 11710, Control_c, 0, 67, 59
2, 11755, Control_c, 0, 67, 59
2, 11771, Control_c, 0, 67, 58
2, 11786, Control_c, 0, 67, 58
2, 11801, Control_c, 0, 67, 56
2, 11817, Control_c, 0, 67, 52
2, 11839, Control_c, 0, 67, 45
2, 11855, Control_c, 0, 67, 36
2, 11870, Control_c, 0, 67, 27
2, 11885, Control_c, 0, 67, 15
2, 11900, Control_c, 0, 67, 0
2, 11944, Note_on_c, 0, 53, 48
2, 12027, Note_on_c, 0, 52, 0
2, 12170, Note_on_c, 0, 62, 64
2, 12265, Note_on_c, 0, 64, 0
2, 12380, Note_on_c, 0, 52, 52
2, 12395, Note_on_c, 0, 53, 0
2, 12583, Note_on_c, 0, 60, 65
2, 12637, Note_on_c, 0, 57, 0
2, 12637, Note_on_c, 0, 62, 0
2, 12797, Note_on_c, 0, 59, 64
2, 12800, Note_on_c, 0, 55, 53
2, 12808, Note_on_c, 0, 60, 0
2, 12822, Note_on_c, 0, 50, 45
2, 12867, Note_on_c, 0, 52, 0
2, 12999, Note_on_c, 0, 62, 71
2, 13046, Note_on_c, 0, 59, 0
2, 13094, Control_c, 0, 64, 27
2, 13109, Control_c, 0, 64, 58
2, 13124, Control_c, 0, 64, 59
2, 13128, Note_on_c, 0, 62, 0
2, 13154, Control_c, 0, 64, 58
2, 13170, Control_c, 0, 64, 57
2, 13185, Control_c, 0, 64, 56
2, 13200, Control_c, 0, 64, 54
2, 13216, Control_c, 0, 64, 47
2, 13218, Note_on_c, 0, 67, 69
2, 13230, Control_c, 0, 64, 30
2, 13246, Control_c, 0, 64, 0
2, 13384, Note_on_c, 0, 55, 0
2, 13429, Note_on_c, 0, 59, 60
2, 13466, Control_c, 0, 64, 64
2, 13481, Control_c, 0, 64, 79
2, 13490, Note_on_c, 0, 41, 0
2, 13496, Control_c, 0, 64, 127
2, 13526, Note_on_c, 0, 50, 0
2, 13626, Note_on_c, 0, 67, 0
2, 13634, Control_c, 0, 64, 86
2, 13644, Note_on_c, 0, 60, 59
2, 13650, Control_c, 0, 64, 69
2, 13662, Note_on_c, 0, 52, 48
2, 13665, Control_c, 0, 64, 57
2, 13674, Note_on_c, 0, 40, 44
2, 13677, Note_on_c, 0, 59, 0
2, 13679, Control_c, 0, 64, 0
2, 13852, Note_on_c, 0, 67, 67
2, 14060, Note_on_c, 0, 65, 68
2, 14066, Note_on_c, 0, 40, 0
2, 14069, Note_on_c, 0, 45, 57
2, 14091, Note_on_c, 0, 67, 0
2, 14262, Note_on_c, 0, 64, 72
2, 14274, Note_on_c, 0, 65, 0
2, 14355, Note_on_c, 0, 52, 0
2, 14528, Note_on_c, 0, 65, 57
2, 14568, Note_on_c, 0, 50, 38
2, 14571, Note_on_c, 0, 64, 0
2, 14585, Note_on_c, 0, 38, 39
2, 14589, Note_on_c, 0, 60, 0
2, 14704, Note_on_c, 0, 45, 0
2, 14756, Note_on_c, 0, 60, 45
2, 14952, Note_on_c, 0, 62, 59
2, 14958, Note_on_c, 0, 60, 0
2, 15142, Note_on_c, 0, 57, 55
2, 15148, Note_on_c, 0, 62, 0
2, 15374, Note_on_c, 0, 59, 54
2, 15379, Note_on_c, 0, 57, 0
2, 15402, Note_on_c, 0, 43, 44
2, 15416, Note_on_c, 0, 65, 0
2, 15429, Control_c, 0, 67, 11
2, 15444, Control_c, 0, 67, 15
2, 15460, Control_c, 0, 67, 17
2, 15468, Note_on_c, 0, 38, 0
2, 15475, Control_c, 0, 67, 18
2, 15483, Note_on_c, 0, 50, 0
2, 15551, Control_c, 0, 67, 17
2, 15566, Control_c, 0, 67, 17
2, 15576, Note_on_c, 0, 65, 64
2, 15611, Control_c, 0, 67, 16
2, 15626, Control_c, 0, 67, 15
2, 15641, Control_c, 0, 67, 15
2, 15657, Control_c, 0, 67, 14
2, 15741, Control_c, 0, 67, 14
2, 15755, Control_c, 0, 67, 13
2, 15781, Note_on_c, 0, 64, 67
2, 15786, Control_c, 0, 67, 15
2, 15801, Control_c, 0, 67, 15
2, 15817, Control_c, 0, 67, 16
2, 15831, Control_c, 0, 67, 16
2, 15838, Note_on_c, 0, 65, 0
2, 15847, Control_c, 0, 67, 17
2, 15877, Control_c, 0, 67, 17
2, 15893, Control_c, 0, 67, 18
2, 15907, Control_c, 0, 67, 18
2, 15922, Control_c, 0, 67, 19
2, 15938, Control_c, 0, 67, 19
2, 15968, Control_c, 0, 67, 20
2, 15979, Note_on_c, 0, 64, 0
2, 15982, Note_on_c, 0, 62, 68
2, 15983, Control_c, 0, 67, 20
2, 15998, Control_c, 0, 67, 21
2, 16014, Control_c, 0, 67, 21
2, 16030, Control_c, 0, 67, 22
2, 16044, Note_on_c, 0, 59, 0
2, 16046, Control_c, 0, 67, 22
2, 16060, Control_c, 0, 67, 23
2, 16091, Control_c, 0, 67, 23
2, 16136, Control_c, 0, 67, 23
2, 16151, Control_c, 0, 67, 22
2, 16196, Control_c, 0, 67, 21
2, 16212, Control_c, 0, 67, 21
2, 16218, Note_on_c, 0, 64, 49
2, 16221, Note_on_c, 0, 60, 48
2, 16227, Control_c, 0, 67, 20
2, 16242, Control_c, 0, 67, 19
2, 16244, Note_on_c, 0, 36, 38
2, 16246, Note_on_c, 0, 62, 0
2, 16257, Note_on_c, 0, 43, 0
2, 16258, Control_c, 0, 67, 18
2, 16273, Control_c, 0, 67, 17
2, 16289, Control_c, 0, 67, 16
2, 16304, Control_c, 0, 67, 15
2, 16319, Control_c, 0, 67, 14
2, 16334, Control_c, 0, 67, 13
2, 16349, Control_c, 0, 67, 12
2, 16364, Control_c, 0, 67, 11
2, 16379, Control_c, 0, 67, 11
2, 16410, Control_c, 0, 67, 10
2, 16421, Note_on_c, 0, 43, 53
2, 16425, Control_c, 0, 67, 10
2, 16448, Control_c, 0, 67, 9
2, 16469, Note_on_c, 0, 36, 0
2, 16494, Control_c, 0, 67, 9
2, 16539, Control_c, 0, 67, 8
2, 16554, Control_c, 0, 67, 8
2, 16585, Control_c, 0, 67, 0
2, 16634, Note_on_c, 0, 45, 66
2, 16646, Note_on_c, 0, 43, 0
2, 16829, Note_on_c, 0, 47, 64
2, 16863, Note_on_c, 0, 45, 0
2, 17028, Note_on_c, 0, 47, 0
2, 17029, Note_on_c, 0, 48, 70
2, 17180, Note_on_c, 0, 48, 0
2, 17233, Note_on_c, 0, 52, 68
2, 17435, Note_on_c, 0, 45, 66
2, 17444, Note_on_c, 0, 52, 0
2, 17608, Note_on_c, 0, 60, 0
2, 17636, Note_on_c, 0, 48, 63
2, 17646, Note_on_c, 0, 45, 0
2, 17871, Note_on_c, 0, 62, 74
2, 17896, Note_on_c, 0, 42, 51
2, 17943, Note_on_c, 0, 64, 0
2, 17991, Note_on_c, 0, 48, 0
2, 18093, Note_on_c, 0, 60, 59
2, 18150, Control_c, 0, 67, 8
2, 18166, Control_c, 0, 67, 11
2, 18181, Control_c, 0, 67, 13
2, 18194, Note_on_c, 0, 42, 0
2, 18196, Control_c, 0, 67, 15
2, 18212, Control_c, 0, 67, 16
2, 18227, Control_c, 0, 67, 17
2, 18242, Control_c, 0, 67, 18
2, 18258, Control_c, 0, 67, 19
2, 18272, Control_c, 0, 67, 19
2, 18288, Control_c, 0, 67, 20
2, 18296, Note_on_c, 0, 59, 58
2, 18297, Note_on_c, 0, 60, 0
2, 18303, Control_c, 0, 67, 21
2, 18318, Control_c, 0, 67, 22
2, 18320, Note_on_c, 0, 38, 48
2, 18334, Control_c, 0, 67, 23
2, 18349, Control_c, 0, 67, 25
2, 18379, Control_c, 0, 67, 26
2, 18409, Control_c, 0, 67, 27
2, 18424, Control_c, 0, 67, 33
2, 18439, Control_c, 0, 67, 43
2, 18455, Control_c, 0, 67, 56
2, 18470, Control_c, 0, 67, 63
2, 18487, Control_c, 0, 67, 66
2, 18502, Control_c, 0, 67, 67
2, 18502, Note_on_c, 0, 57, 59
2, 18503, Note_on_c, 0, 59, 0
2, 18532, Control_c, 0, 67, 66
2, 18547, Control_c, 0, 67, 65
2, 18562, Control_c, 0, 67, 63
2, 18578, Control_c, 0, 67, 62
2, 18592, Control_c, 0, 67, 61
2, 18608, Control_c, 0, 67, 61
2, 18623, Control_c, 0, 67, 60
2, 18637, Control_c, 0, 67, 59
2, 18653, Control_c, 0, 67, 58
2, 18660, Note_on_c, 0, 38, 0
2, 18668, Control_c, 0, 67, 57
2, 18683, Control_c, 0, 67, 56
2, 18699, Control_c, 0, 67, 55
2, 18713, Control_c, 0, 67, 54
2, 18729, Control_c, 0, 67, 54
2, 18741, Note_on_c, 0, 57, 0
2, 18746, Note_on_c, 0, 59, 52
2, 18752, Control_c, 0, 67, 53
2, 18761, Note_on_c, 0, 43, 47
2, 18783, Control_c, 0, 67, 53
2, 18789, Note_on_c, 0, 62, 0
2, 18813, Control_c, 0, 67, 52
2, 18828, Control_c, 0, 67, 52
2, 18858, Control_c, 0, 67, 51
2, 18873, Control_c, 0, 67, 51
2, 18942, Note_on_c, 0, 62, 65
2, 18980, Control_c, 0, 67, 50
2, 19010, Control_c, 0, 67, 50
2, 19025, Control_c, 0, 67, 49
2, 19040, Control_c, 0, 67, 49
2, 19056, Control_c, 0, 67, 48
2, 19071, Control_c, 0, 67, 46
2, 19086, Control_c, 0, 67, 41
2, 19101, Control_c, 0, 67, 37
2, 19116, Control_c, 0, 67, 32
2, 19132, Control_c, 0, 67, 23
2, 19139, Note_on_c, 0, 64, 71
2, 19147, Control_c, 0, 67, 11
2, 19152, Note_on_c, 0, 62, 0
2, 19162, Control_c, 0, 67, 0
2, 19336, Note_on_c, 0, 67, 71
2, 19364, Note_on_c, 0, 64, 0
2, 19382, Note_on_c, 0, 43, 0
2, 19429, Note_on_c, 0, 43, 15
2, 19432, Note_on_c, 0, 59, 0
2, 19621, Note_on_c, 0, 60, 56
2, 19630, Note_on_c, 0, 57, 54
2, 19642, Note_on_c, 0, 67, 0
2, 19829, Note_on_c, 0, 43, 0
2, 19835, Note_on_c, 0, 45, 57
2, 19923, Note_on_c, 0, 45, 0
2, 19923, Note_on_c, 0, 47, 65
2, 20018, Note_on_c, 0, 47, 0
2, 20019, Note_on_c, 0, 48, 69
2, 20082, Note_on_c, 0, 48, 0
2, 20098, Note_on_c, 0, 50, 62
2, 20211, Note_on_c, 0, 50, 0
2, 20220, Note_on_c, 0, 52, 65
2, 20234, Note_on_c, 0, 57, 0
2, 20456, Note_on_c, 0, 42, 62
2, 20524, Note_on_c, 0, 52, 0
2, 20562, Note_on_c, 0, 60, 0
2, 20663, Note_on_c, 0, 69, 67
2, 20752, Note_on_c, 0, 67, 73
2, 20758, Note_on_c, 0, 69, 0
2, 20861, Note_on_c, 0, 69, 70
2, 20883, Note_on_c, 0, 50, 44
2, 20884, Note_on_c, 0, 67, 0
2, 21069, Note_on_c, 0, 69, 0
2, 21075, Note_on_c, 0, 60, 63
2, 21086, Control_c, 0, 67, 11
2, 21101, Control_c, 0, 64, 58
2, 21101, Control_c, 0, 67, 13
2, 21116, Control_c, 0, 64, 72
2, 21116, Control_c, 0, 67, 15
2, 21132, Control_c, 0, 64, 127
2, 21132, Control_c, 0, 67, 16
2, 21176, Note_on_c, 0, 60, 0
2, 21177, Control_c, 0, 67, 15
2, 21192, Control_c, 0, 67, 14
2, 21208, Control_c, 0, 67, 14
2, 21217, Note_on_c, 0, 42, 0
2, 21223, Control_c, 0, 67, 13
2, 21268, Control_c, 0, 67, 13
2, 21330, Note_on_c, 0, 59, 65
2, 21344, Control_c, 0, 64, 110
2, 21359, Control_c, 0, 64, 79
2, 21359, Control_c, 0, 67, 13
2, 21374, Control_c, 0, 64, 65
2, 21374, Control_c, 0, 67, 14
2, 21378, Note_on_c, 0, 43, 36
2, 21389, Control_c, 0, 64, 36
2, 21389, Control_c, 0, 67, 15
2, 21404, Control_c, 0, 64, 0
2, 21404, Control_c, 0, 67, 16
2, 21420, Control_c, 0, 67, 17
2, 21435, Control_c, 0, 67, 18
2, 21451, Control_c, 0, 67, 18
2, 21465, Control_c, 0, 67, 20
2, 21480, Control_c, 0, 67, 22
2, 21496, Control_c, 0, 67, 25
2, 21510, Control_c, 0, 67, 30
2, 21526, Control_c, 0, 67, 37
2, 21538, Note_on_c, 0, 57, 51
2, 21541, Control_c, 0, 67, 49
2, 21556, Control_c, 0, 67, 59
2, 21572, Control_c, 0, 67, 64
2, 21587, Control_c, 0, 67, 64
2, 21618, Control_c, 0, 67, 65
2, 21632, Control_c, 0, 67, 66
2, 21648, Control_c, 0, 67, 67
2, 21663, Control_c, 0, 67, 68
2, 21678, Control_c, 0, 67, 69
2, 21694, Control_c, 0, 67, 69
2, 21723, Control_c, 0, 67, 68
2, 21739, Control_c, 0, 67, 68
2, 21744, Note_on_c, 0, 55, 51
2, 21744, Note_on_c, 0, 57, 0
2, 21755, Control_c, 0, 67, 67
2, 21771, Control_c, 0, 67, 66
2, 21786, Control_c, 0, 67, 65
2, 21800, Control_c, 0, 67, 65
2, 21854, Control_c, 0, 67, 64
2, 21869, Control_c, 0, 67, 64
2, 21884, Control_c, 0, 67, 63
2, 21914, Control_c, 0, 67, 63
2, 21945, Control_c, 0, 67, 62
2, 21963, Note_on_c, 0, 54, 47
2, 21981, Note_on_c, 0, 55, 0
2, 22097, Control_c, 0, 67, 62
2, 22177, Note_on_c, 0, 54, 0
2, 22196, Note_on_c, 0, 55, 44
2, 22214, Note_on_c, 0, 59, 0
2, 22406, Note_on_c, 0, 62, 53
2, 22552, Control_c, 0, 67, 61
2, 22621, Note_on_c, 0, 64, 59
2, 22632, Note_on_c, 0, 41, 48
2, 22651, Note_on_c, 0, 62, 0
2, 22682, Control_c, 0, 67, 61
2, 22713, Control_c, 0, 67, 60
2, 22715, Note_on_c, 0, 43, 0
2, 22774, Control_c, 0, 67, 60
2, 22816, Note_on_c, 0, 65, 67
2, 22819, Control_c, 0, 67, 59
2, 22838, Note_on_c, 0, 64, 0
2, 22880, Control_c, 0, 67, 59
2, 22916, Note_on_c, 0, 55, 0
2, 22941, Control_c, 0, 67, 58
2, 22972, Control_c, 0, 67, 57
2, 23048, Control_c, 0, 67, 57
2, 23052, Note_on_c, 0, 67, 64
2, 23097, Note_on_c, 0, 65, 0
2, 23099, Note_on_c, 0, 40, 36
2, 23122, Control_c, 0, 67, 56
2, 23154, Note_on_c, 0, 41, 0
2, 23223, Note_on_c, 0, 50, 0
2, 23229, Control_c, 0, 67, 56
2, 23256, Note_on_c, 0, 64, 54
2, 23260, Control_c, 0, 67, 55
2, 23431, Note_on_c, 0, 40, 0
2, 23451, Control_c, 0, 67, 55
2, 23467, Note_on_c, 0, 59, 56
2, 23477, Note_on_c, 0, 64, 0
2, 23479, Note_on_c, 0, 52, 55
2, 23481, Control_c, 0, 67, 54
2, 23513, Note_on_c, 0, 43, 47
2, 23527, Control_c, 0, 67, 54
2, 23542, Control_c, 0, 67, 53
2, 23587, Control_c, 0, 67, 53
2, 23602, Control_c, 0, 67, 52
2, 23618, Control_c, 0, 67, 52
2, 23632, Control_c, 0, 67, 51
2, 23648, Control_c, 0, 67, 48
2, 23663, Control_c, 0, 67, 43
2, 23678, Control_c, 0, 67, 34
2, 23679, Note_on_c, 0, 62, 63
2, 23694, Control_c, 0, 67, 25
2, 23700, Note_on_c, 0, 59, 0
2, 23708, Control_c, 0, 67, 16
2, 23723, Control_c, 0, 67, 10
2, 23739, Control_c, 0, 67, 0
2, 23806, Note_on_c, 0, 43, 0
2, 23877, Note_on_c, 0, 61, 59
2, 23893, Note_on_c, 0, 62, 0
2, 23898, Note_on_c, 0, 45, 49
2, 24094, Note_on_c, 0, 64, 55
2, 24143, Note_on_c, 0, 61, 0
2, 24197, Note_on_c, 0, 45, 0
2, 24313, Note_on_c, 0, 57, 51
2, 24333, Note_on_c, 0, 49, 48
2, 24362, Note_on_c, 0, 64, 0
2, 24375, Note_on_c, 0, 67, 0
2, 24507, Control_c, 0, 64, 40
2, 24514, Note_on_c, 0, 67, 70
2, 24522, Control_c, 0, 64, 56
2, 24537, Note_on_c, 0, 49, 0
2, 24538, Control_c, 0, 64, 60
2, 24552, Control_c, 0, 64, 62
2, 24568, Control_c, 0, 64, 63
2, 24614, Control_c, 0, 64, 62
2, 24629, Control_c, 0, 64, 62
2, 24635, Note_on_c, 0, 52, 0
2, 24644, Control_c, 0, 64, 61
2, 24660, Control_c, 0, 64, 60
2, 24674, Control_c, 0, 64, 58
2, 24690, Control_c, 0, 64, 54
2, 24705, Control_c, 0, 64, 45
2, 24720, Control_c, 0, 64, 15
2, 24736, Control_c, 0, 64, 0
2, 24757, Note_on_c, 0, 65, 68
2, 24797, Note_on_c, 0, 38, 39
2, 24865, Note_on_c, 0, 67, 0
2, 24979, Note_on_c, 0, 45, 61
2, 25083, Note_on_c, 0, 38, 0
2, 25177, Note_on_c, 0, 47, 66
2, 25202, Note_on_c, 0, 45, 0
2, 25378, Note_on_c, 0, 49, 68
2, 25413, Note_on_c, 0, 47, 0
2, 25585, Note_on_c, 0, 50, 67
2, 25586, Note_on_c, 0, 49, 0
2, 25767, Note_on_c, 0, 50, 0
2, 25788, Note_on_c, 0, 53, 65
2, 25828, Note_on_c, 0, 57, 0
2, 26002, Note_on_c, 0, 62, 56
2, 26008, Note_on_c, 0, 47, 53
2, 26011, Note_on_c, 0, 53, 0
2, 26208, Note_on_c, 0, 50, 56
2, 26211, Control_c, 0, 64, 36
2, 26214, Note_on_c, 0, 47, 0
2, 26225, Control_c, 0, 64, 59
2, 26235, Note_on_c, 0, 62, 0
2, 26240, Control_c, 0, 64, 62
2, 26256, Control_c, 0, 64, 63
2, 26316, Control_c, 0, 64, 62
2, 26347, Control_c, 0, 64, 62
2, 26362, Control_c, 0, 64, 61
2, 26378, Control_c, 0, 64, 61
2, 26393, Control_c, 0, 64, 59
2, 26409, Control_c, 0, 64, 55
2, 26430, Control_c, 0, 64, 29
2, 26446, Control_c, 0, 64, 0
2, 26446, Note_on_c, 0, 64, 67
2, 26474, Note_on_c, 0, 44, 51
2, 26497, Note_on_c, 0, 65, 0
2, 26600, Note_on_c, 0, 50, 0
2, 26643, Note_on_c, 0, 62, 65
2, 26801, Note_on_c, 0, 44, 0
2, 26852, Note_on_c, 0, 60, 56
2, 26855, Note_on_c, 0, 62, 0
2, 26863, Note_on_c, 0, 40, 47
2, 27059, Note_on_c, 0, 59, 60
2, 27061, Note_on_c, 0, 60, 0
2, 27254, Note_on_c, 0, 40, 0
2, 27276, Note_on_c, 0, 59, 0
2, 27289, Note_on_c, 0, 60, 47
2, 27303, Note_on_c, 0, 45, 49
2, 27338, Note_on_c, 0, 64, 0
2, 27500, Note_on_c, 0, 64, 60
2, 27708, Note_on_c, 0, 45, 0
2, 27711, Note_on_c, 0, 43, 52
2, 27714, Note_on_c, 0, 65, 65
2, 27724, Note_on_c, 0, 64, 0
2, 27901, Note_on_c, 0, 67, 68
2, 27920, Note_on_c, 0, 65, 0
2, 28130, Note_on_c, 0, 67, 0
2, 28135, Note_on_c, 0, 69, 61
2, 28145, Note_on_c, 0, 43, 0
2, 28154, Note_on_c, 0, 41, 47
2, 28214, Note_on_c, 0, 69, 0
2, 28227, Note_on_c, 0, 67, 68
2, 28318, Note_on_c, 0, 67, 0
2, 28319, Note_on_c, 0, 65, 68
2, 28402, Note_on_c, 0, 65, 0
2, 28405, Note_on_c, 0, 64, 69
2, 28517, Note_on_c, 0, 65, 71
2, 28526, Note_on_c, 0, 64, 0
2, 28537, Note_on_c, 0, 40, 51
2, 28553, Note_on_c, 0, 41, 0
2, 28734, Note_on_c, 0, 69, 72
2, 28737, Note_on_c, 0, 65, 0
2, 28770, Note_on_c, 0, 60, 0
2, 28933, Note_on_c, 0, 62, 68
2, 28933, Note_on_c, 0, 69, 0
2, 28951, Note_on_c, 0, 41, 57
2, 28978, Note_on_c, 0, 40, 0
2, 29123, Note_on_c, 0, 72, 73
2, 29336, Note_on_c, 0, 71, 71
2, 29339, Note_on_c, 0, 41, 0
2, 29353, Note_on_c, 0, 38, 47
2, 29354, Note_on_c, 0, 72, 0
2, 29529, Note_on_c, 0, 69, 74
2, 29535, Note_on_c, 0, 71, 0
2, 29566, Control_c, 0, 64, 50
2, 29581, Control_c, 0, 64, 68
2, 29586, Note_on_c, 0, 62, 0
2, 29596, Control_c, 0, 64, 100
2, 29612, Control_c, 0, 64, 127
2, 29648, Note_on_c, 0, 69, 0
2, 29797, Note_on_c, 0, 68, 69
2, 29844, Note_on_c, 0, 40, 44
2, 29869, Control_c, 0, 64, 101
2, 29885, Control_c, 0, 64, 71
2, 29900, Control_c, 0, 64, 57
2, 29915, Control_c, 0, 64, 0
2, 29981, Note_on_c, 0, 38, 0
2, 30024, Note_on_c, 0, 65, 52
2, 30217, Note_on_c, 0, 65, 0
2, 30230, Note_on_c, 0, 64, 50
2, 30429, Note_on_c, 0, 62, 55
2, 30447, Note_on_c, 0, 64, 0
2, 30640, Note_on_c, 0, 60, 53
2, 30650, Note_on_c, 0, 62, 0
2, 30739, Note_on_c, 0, 68, 0
2, 30837, Note_on_c, 0, 64, 67
2, 30960, Note_on_c, 0, 64, 0
2, 31065, Note_on_c, 0, 69, 66
2, 31119, Note_on_c, 0, 60, 0
2, 31256, Note_on_c, 0, 60, 49
2, 31489, Note_on_c, 0, 59, 52
2, 31520, Note_on_c, 0, 60, 0
2, 31673, Note_on_c, 0, 69, 0
2, 31693, Note_on_c, 0, 47, 59
2, 31780, Note_on_c, 0, 40, 0
2, 31891, Note_on_c, 0, 69, 59
2, 31898, Note_on_c, 0, 48, 61
2, 31900, Note_on_c, 0, 47, 0
2, 32084, Note_on_c, 0, 50, 69
2, 32123, Note_on_c, 0, 48, 0
2, 32278, Note_on_c, 0, 52, 74
2, 32281, Note_on_c, 0, 67, 76
2, 32283, Note_on_c, 0, 50, 0
2, 32318, Note_on_c, 0, 69, 0
2, 32480, Note_on_c, 0, 55, 70
2, 32486, Note_on_c, 0, 52, 0
2, 32697, Note_on_c, 0, 65, 71
2, 32700, Note_on_c, 0, 59, 0
2, 32704, Note_on_c, 0, 47, 60
2, 32709, Note_on_c, 0, 67, 0
2, 32718, Note_on_c, 0, 62, 56
2, 32723, Note_on_c, 0, 55, 0
2, 32898, Note_on_c, 0, 47, 0
2, 32901, Note_on_c, 0, 50, 59
2, 32939, Control_c, 0, 64, 63
2, 32954, Control_c, 0, 64, 81
2, 32970, Control_c, 0, 64, 127
2, 32979, Note_on_c, 0, 65, 0
2, 32989, Note_on_c, 0, 62, 0
2, 33100, Note_on_c, 0, 64, 72
2, 33104, Note_on_c, 0, 50, 0
2, 33117, Note_on_c, 0, 49, 59
2, 33137, Control_c, 0, 64, 85
2, 33151, Control_c, 0, 64, 64
2, 33167, Control_c, 0, 64, 0
2, 33309, Note_on_c, 0, 52, 54
2, 33312, Note_on_c, 0, 62, 59
2, 33354, Note_on_c, 0, 49, 0
2, 33524, Note_on_c, 0, 61, 58
2, 33534, Note_on_c, 0, 45, 52
2, 33540, Note_on_c, 0, 62, 0
2, 33561, Note_on_c, 0, 64, 0
2, 33585, Control_c, 0, 64, 49
2, 33600, Control_c, 0, 64, 65
2, 33616, Control_c, 0, 64, 74
2, 33631, Control_c, 0, 64, 101
2, 33647, Control_c, 0, 64, 127
2, 33722, Control_c, 0, 64, 115
2, 33737, Control_c, 0, 64, 82
2, 33747, Note_on_c, 0, 64, 59
2, 33752, Control_c, 0, 64, 69
2, 33768, Control_c, 0, 64, 61
2, 33773, Note_on_c, 0, 45, 0
2, 33773, Note_on_c, 0, 55, 50
2, 33775, Note_on_c, 0, 61, 0
2, 33783, Control_c, 0, 64, 0
2, 33786, Note_on_c, 0, 52, 0
2, 33813, Control_c, 0, 67, 18
2, 33828, Control_c, 0, 67, 26
2, 33843, Control_c, 0, 67, 32
2, 33859, Control_c, 0, 67, 34
2, 33874, Control_c, 0, 67, 35
2, 33919, Control_c, 0, 67, 34
2, 33935, Control_c, 0, 67, 34
2, 33950, Control_c, 0, 67, 32
2, 33954, Note_on_c, 0, 57, 51
2, 33964, Note_on_c, 0, 50, 47
2, 33966, Control_c, 0, 67, 31
2, 33981, Control_c, 0, 67, 30
2, 33995, Control_c, 0, 67, 29
2, 33997, Note_on_c, 0, 55, 0
2, 34002, Note_on_c, 0, 64, 0
2, 34011, Control_c, 0, 67, 29
2, 34042, Control_c, 0, 67, 28
2, 34058, Control_c, 0, 67, 27
2, 34073, Control_c, 0, 67, 26
2, 34160, Note_on_c, 0, 64, 46
2, 34172, Control_c, 0, 67, 25
2, 34186, Control_c, 0, 67, 24
2, 34192, Note_on_c, 0, 55, 50
2, 34293, Control_c, 0, 67, 23
2, 34308, Control_c, 0, 67, 23
2, 34339, Control_c, 0, 67, 22
2, 34369, Note_on_c, 0, 62, 57
2, 34370, Control_c, 0, 67, 22
2, 34376, Note_on_c, 0, 55, 0
2, 34384, Control_c, 0, 67, 21
2, 34388, Note_on_c, 0, 53, 38
2, 34416, Note_on_c, 0, 64, 0
2, 34505, Control_c, 0, 67, 21
2, 34556, Note_on_c, 0, 53, 0
2, 34559, Note_on_c, 0, 62, 0
2, 34562, Note_on_c, 0, 61, 49
2, 34578, Note_on_c, 0, 52, 44
2, 34612, Control_c, 0, 67, 20
2, 34672, Control_c, 0, 67, 20
2, 34703, Control_c, 0, 67, 19
2, 34718, Control_c, 0, 67, 19
2, 34734, Control_c, 0, 67, 18
2, 34749, Control_c, 0, 67, 17
2, 34760, Note_on_c, 0, 57, 0
2, 34763, Control_c, 0, 67, 17
2, 34779, Control_c, 0, 67, 15
2, 34784, Note_on_c, 0, 61, 0
2, 34791, Note_on_c, 0, 62, 47
2, 34794, Control_c, 0, 67, 12
2, 34810, Control_c, 0, 67, 9
2, 34825, Control_c, 0, 64, 63
2, 34825, Control_c, 0, 67, 0
2, 34827, Note_on_c, 0, 53, 51
2, 34839, Control_c, 0, 64, 73
2, 34847, Note_on_c, 0, 52, 0
2, 34855, Control_c, 0, 64, 127
2, 34855, Note_on_c, 0, 62, 0
2, 35012, Note_on_c, 0, 69, 58
2, 35070, Note_on_c, 0, 50, 0
2, 35106, Control_c, 0, 64, 90
2, 35121, Control_c, 0, 64, 68
2, 35137, Control_c, 0, 64, 42
2, 35152, Control_c, 0, 64, 0
2, 35210, Note_on_c, 0, 71, 72
2, 35231, Note_on_c, 0, 45, 49
2, 35247, Note_on_c, 0, 69, 0
2, 35402, Note_on_c, 0, 73, 75
2, 35421, Note_on_c, 0, 71, 0
2, 35603, Note_on_c, 0, 74, 76
2, 35604, Note_on_c, 0, 45, 0
2, 35612, Note_on_c, 0, 46, 57
2, 35648, Note_on_c, 0, 73, 0
2, 35722, Control_c, 0, 64, 64
2, 35738, Control_c, 0, 64, 76
2, 35752, Note_on_c, 0, 74, 0
2, 35753, Control_c, 0, 64, 127
2, 35825, Note_on_c, 0, 77, 77
2, 35843, Control_c, 0, 64, 76
2, 35859, Control_c, 0, 64, 62
2, 35874, Control_c, 0, 64, 0
2, 36022, Note_on_c, 0, 69, 64
2, 36036, Note_on_c, 0, 50, 52
2, 36046, Note_on_c, 0, 46, 0
2, 36225, Note_on_c, 0, 72, 71
2, 36236, Note_on_c, 0, 69, 0
2, 36254, Control_c, 0, 64, 46
2, 36269, Control_c, 0, 64, 65
2, 36284, Control_c, 0, 64, 73
2, 36300, Control_c, 0, 64, 112
2, 36315, Control_c, 0, 64, 127
2, 36323, Note_on_c, 0, 53, 0
2, 36528, Note_on_c, 0, 70, 64
2, 36556, Note_on_c, 0, 72, 0
2, 36568, Note_on_c, 0, 55, 49
2, 36573, Note_on_c, 0, 77, 0
2, 36582, Control_c, 0, 64, 88
2, 36590, Note_on_c, 0, 43, 39
2, 36597, Control_c, 0, 64, 70
2, 36613, Control_c, 0, 64, 60
2, 36628, Control_c, 0, 64, 0
2, 36783, Note_on_c, 0, 77, 56
2, 36987, Note_on_c, 0, 75, 70
2, 37003, Note_on_c, 0, 77, 0
2, 37180, Note_on_c, 0, 74, 71
2, 37191, Note_on_c, 0, 75, 0
2, 37383, Note_on_c, 0, 75, 77
2, 37417, Note_on_c, 0, 74, 0
2, 37584, Note_on_c, 0, 79, 74
2, 37601, Note_on_c, 0, 75, 0
2, 37737, Note_on_c, 0, 50, 0
2, 37778, Note_on_c, 0, 73, 69
2, 37788, Note_on_c, 0, 79, 0
2, 37879, Control_c, 0, 64, 47
2, 37895, Control_c, 0, 64, 63
2, 37910, Control_c, 0, 64, 65
2, 37925, Control_c, 0, 64, 67
2, 37948, Control_c, 0, 64, 71
2, 37962, Control_c, 0, 64, 75
2, 37978, Control_c, 0, 64, 76
2, 37987, Note_on_c, 0, 74, 68
2, 37988, Note_on_c, 0, 73, 0
2, 37993, Control_c, 0, 64, 75
2, 38008, Control_c, 0, 64, 74
2, 38024, Control_c, 0, 64, 71
2, 38039, Control_c, 0, 64, 67
2, 38055, Control_c, 0, 64, 60
2, 38069, Control_c, 0, 64, 0
2, 38223, Note_on_c, 0, 73, 65
2, 38231, Note_on_c, 0, 70, 0
2, 38241, Note_on_c, 0, 74, 0
2, 38260, Note_on_c, 0, 45, 53
2, 38394, Note_on_c, 0, 43, 0
2, 38447, Note_on_c, 0, 70, 48
2, 38600, Note_on_c, 0, 55, 0
2, 38629, Note_on_c, 0, 70, 0
2, 38638, Note_on_c, 0, 69, 52
2, 38842, Note_on_c, 0, 55, 48
2, 39073, Note_on_c, 0, 69, 0
2, 39074, Note_on_c, 0, 54, 51
2, 39154, Note_on_c, 0, 55, 0
2, 39262, Note_on_c, 0, 69, 45
2, 39294, Control_c, 0, 64, 55
2, 39309, Control_c, 0, 64, 64
2, 39324, Control_c, 0, 64, 66
2, 39339, Control_c, 0, 64, 69
2, 39354, Control_c, 0, 64, 72
2, 39369, Control_c, 0, 64, 74
2, 39385, Control_c, 0, 64, 73
2, 39400, Control_c, 0, 64, 73
2, 39415, Control_c, 0, 64, 71
2, 39430, Control_c, 0, 64, 69
2, 39445, Control_c, 0, 64, 67
2, 39461, Control_c, 0, 64, 64
2, 39468, Note_on_c, 0, 74, 71
2, 39483, Control_c, 0, 64, 58
2, 39499, Control_c, 0, 64, 35
2, 39505, Note_on_c, 0, 53, 45
2, 39514, Control_c, 0, 64, 0
2, 39517, Note_on_c, 0, 73, 0
2, 39523, Note_on_c, 0, 69, 0
2, 39647, Note_on_c, 0, 54, 0
2, 39687, Note_on_c, 0, 68, 51
2, 39901, Note_on_c, 0, 69, 55
2, 39904, Note_on_c, 0, 52, 54
2, 39910, Control_c, 0, 64, 54
2, 39920, Note_on_c, 0, 68, 0
2, 39925, Control_c, 0, 64, 63
2, 39939, Note_on_c, 0, 53, 0
2, 39941, Control_c, 0, 64, 65
2, 39956, Control_c, 0, 64, 69
2, 39971, Control_c, 0, 64, 75
2, 39978, Note_on_c, 0, 74, 0
2, 39986, Control_c, 0, 64, 83
2, 40001, Control_c, 0, 64, 86
2, 40017, Control_c, 0, 64, 84
2, 40032, Control_c, 0, 64, 81
2, 40047, Control_c, 0, 64, 73
2, 40062, Control_c, 0, 64, 65
2, 40077, Control_c, 0, 64, 46
2, 40090, Note_on_c, 0, 74, 69
2, 40092, Control_c, 0, 64, 0
2, 40292, Note_on_c, 0, 73, 73
2, 40307, Note_on_c, 0, 50, 51
2, 40323, Note_on_c, 0, 52, 0
2, 40346, Note_on_c, 0, 74, 0
2, 40480, Note_on_c, 0, 71, 76
2, 40505, Note_on_c, 0, 73, 0
2, 40540, Control_c, 0, 64, 58
2, 40552, Note_on_c, 0, 45, 0
2, 40555, Control_c, 0, 64, 64
2, 40570, Control_c, 0, 64, 67
2, 40586, Control_c, 0, 64, 69
2, 40618, Control_c, 0, 64, 68
2, 40632, Control_c, 0, 64, 66
2, 40647, Control_c, 0, 64, 64
2, 40663, Control_c, 0, 64, 57
2, 40678, Control_c, 0, 64, 0
2, 40681, Note_on_c, 0, 50, 0
2, 40683, Note_on_c, 0, 73, 74
2, 40703, Note_on_c, 0, 45, 41
2, 40704, Note_on_c, 0, 52, 46
2, 40718, Note_on_c, 0, 71, 0
2, 40871, Note_on_c, 0, 74, 76
2, 40895, Note_on_c, 0, 73, 0
2, 41102, Note_on_c, 0, 76, 63
2, 41130, Note_on_c, 0, 57, 49
2, 41130, Note_on_c, 0, 74, 0
2, 41134, Note_on_c, 0, 45, 0
2, 41222, Note_on_c, 0, 52, 0
2, 41280, Note_on_c, 0, 69, 0
2, 41299, Note_on_c, 0, 67, 49
2, 41487, Note_on_c, 0, 67, 0
2, 41506, Note_on_c, 0, 65, 44
2, 41521, Note_on_c, 0, 50, 36
2, 41704, Note_on_c, 0, 69, 66
2, 41717, Note_on_c, 0, 76, 0
2, 41906, Note_on_c, 0, 74, 77
2, 41932, Note_on_c, 0, 58, 46
2, 41936, Note_on_c, 0, 69, 0
2, 42032, Note_on_c, 0, 57, 0
2, 42098, Note_on_c, 0, 73, 79
2, 42143, Note_on_c, 0, 74, 0
2, 42145, Note_on_c, 0, 65, 0
2, 42294, Note_on_c, 0, 74, 81
2, 42322, Note_on_c, 0, 57, 55
2, 42331, Note_on_c, 0, 73, 0
2, 42418, Note_on_c, 0, 58, 0
2, 42490, Note_on_c, 0, 65, 63
2, 42597, Note_on_c, 0, 65, 0
2, 42702, Note_on_c, 0, 70, 70
2, 42707, Note_on_c, 0, 55, 50
2, 42709, Note_on_c, 0, 57, 0
2, 42830, Control_c, 0, 64, 31
2, 42845, Control_c, 0, 64, 64
2, 42858, Note_on_c, 0, 70, 0
2, 42861, Control_c, 0, 64, 71
2, 42876, Control_c, 0, 64, 105
2, 42882, Note_on_c, 0, 76, 84
2, 42890, Control_c, 0, 64, 127
2, 42961, Note_on_c, 0, 74, 0
2, 43010, Note_on_c, 0, 76, 0
2, 43125, Note_on_c, 0, 77, 80
2, 43150, Control_c, 0, 64, 83
2, 43162, Note_on_c, 0, 69, 50
2, 43164, Control_c, 0, 64, 66
2, 43169, Note_on_c, 0, 53, 48
2, 43180, Control_c, 0, 64, 43
2, 43191, Note_on_c, 0, 55, 0
2, 43195, Control_c, 0, 64, 0
2, 43377, Note_on_c, 0, 55, 59
2, 43381, Note_on_c, 0, 53, 0
2, 43554, Note_on_c, 0, 69, 0
2, 43571, Note_on_c, 0, 57, 59
2, 43586, Note_on_c, 0, 55, 0
2, 43597, Control_c, 0, 64, 51
2, 43612, Control_c, 0, 64, 68
2, 43619, Note_on_c, 0, 50, 0
2, 43628, Control_c, 0, 64, 88
2, 43643, Control_c, 0, 64, 127
2, 43719, Control_c, 0, 64, 76
2, 43735, Control_c, 0, 64, 54
2, 43749, Control_c, 0, 64, 0
2, 43756, Note_on_c, 0, 69, 61
2, 43765, Note_on_c, 0, 48, 64
2, 43953, Note_on_c, 0, 74, 79
2, 43958, Note_on_c, 0, 77, 0
2, 43964, Note_on_c, 0, 47, 64
2, 43970, Note_on_c, 0, 48, 0
2, 44143, Note_on_c, 0, 76, 80
2, 44151, Note_on_c, 0, 56, 56
2, 44154, Note_on_c, 0, 74, 0
2, 44164, Note_on_c, 0, 57, 0
2, 44229, Control_c, 0, 64, 64
2, 44237, Note_on_c, 0, 76, 0
2, 44244, Control_c, 0, 64, 76
2, 44260, Control_c, 0, 64, 127
2, 44348, Note_on_c, 0, 77, 86
2, 44350, Control_c, 0, 64, 73
2, 44365, Control_c, 0, 64, 0
2, 44367, Note_on_c, 0, 57, 58
2, 44368, Note_on_c, 0, 56, 0
2, 44432, Note_on_c, 0, 47, 0
2, 44539, Note_on_c, 0, 45, 59
2, 44548, Note_on_c, 0, 74, 67
2, 44556, Note_on_c, 0, 69, 0
2, 44563, Control_c, 0, 64, 48
2, 44579, Control_c, 0, 64, 74
2, 44582, Note_on_c, 0, 57, 0
2, 44593, Control_c, 0, 64, 127
2, 44621, Note_on_c, 0, 74, 0
2, 44628, Note_on_c, 0, 45, 0
2, 44798, Note_on_c, 0, 76, 76
2, 44807, Note_on_c, 0, 44, 54
2, 44837, Control_c, 0, 64, 114
2, 44860, Control_c, 0, 64, 70
2, 44875, Control_c, 0, 64, 29
2, 44890, Control_c, 0, 64, 0
2, 44891, Note_on_c, 0, 77, 0
2, 45019, Note_on_c, 0, 74, 59
2, 45026, Note_on_c, 0, 52, 49
2, 45027, Note_on_c, 0, 44, 0
2, 45215, Note_on_c, 0, 54, 57
2, 45217, Note_on_c, 0, 72, 62
2, 45239, Note_on_c, 0, 52, 0
2, 45242, Note_on_c, 0, 74, 0
2, 45404, Note_on_c, 0, 72, 0
2, 45405, Note_on_c, 0, 71, 62
2, 45416, Note_on_c, 0, 56, 63
2, 45460, Note_on_c, 0, 54, 0
2, 45622, Note_on_c, 0, 71, 0
2, 45627, Note_on_c, 0, 72, 66
2, 45631, Note_on_c, 0, 76, 0
2, 45640, Note_on_c, 0, 57, 59
2, 45661, Note_on_c, 0, 56, 0
2, 45822, Note_on_c, 0, 76, 74
2, 45826, Note_on_c, 0, 48, 56
2, 46010, Note_on_c, 0, 81, 81
2, 46011, Note_on_c, 0, 53, 59
2, 46022, Note_on_c, 0, 48, 0
2, 46044, Note_on_c, 0, 76, 0
2, 46208, Note_on_c, 0, 52, 60
2, 46211, Note_on_c, 0, 80, 81
2, 46232, Note_on_c, 0, 53, 0
2, 46242, Note_on_c, 0, 81, 0
2, 46266, Control_c, 0, 64, 67
2, 46280, Control_c, 0, 64, 91
2, 46285, Note_on_c, 0, 52, 0
2, 46296, Control_c, 0, 64, 127
2, 46441, Note_on_c, 0, 81, 77
2, 46463, Note_on_c, 0, 53, 56
2, 46471, Control_c, 0, 64, 87
2, 46486, Control_c, 0, 64, 65
2, 46496, Note_on_c, 0, 80, 0
2, 46502, Control_c, 0, 64, 0
2, 46546, Note_on_c, 0, 57, 0
2, 46634, Note_on_c, 0, 72, 0
2, 46651, Note_on_c, 0, 73, 52
2, 46665, Note_on_c, 0, 57, 56
2, 46843, Note_on_c, 0, 73, 0
2, 46853, Note_on_c, 0, 74, 65
2, 46856, Note_on_c, 0, 59, 55
2, 46891, Note_on_c, 0, 57, 0
2, 47030, Note_on_c, 0, 74, 0
2, 47036, Note_on_c, 0, 76, 67
2, 47042, Note_on_c, 0, 61, 68
2, 47068, Note_on_c, 0, 59, 0
2, 47248, Note_on_c, 0, 69, 66
2, 47254, Note_on_c, 0, 62, 67
2, 47272, Control_c, 0, 64, 54
2, 47280, Note_on_c, 0, 81, 0
2, 47284, Note_on_c, 0, 76, 0
2, 47287, Control_c, 0, 64, 65
2, 47296, Note_on_c, 0, 61, 0
2, 47299, Note_on_c, 0, 53, 0
2, 47302, Control_c, 0, 64, 69
2, 47317, Control_c, 0, 64, 70
2, 47333, Control_c, 0, 64, 67
2, 47348, Control_c, 0, 64, 64
2, 47363, Control_c, 0, 64, 48
2, 47379, Control_c, 0, 64, 0
2, 47434, Note_on_c, 0, 79, 81
2, 47454, Note_on_c, 0, 52, 63
2, 47627, Note_on_c, 0, 81, 84
2, 47635, Note_on_c, 0, 52, 0
2, 47638, Note_on_c, 0, 53, 65
2, 47661, Note_on_c, 0, 79, 0
2, 47796, Note_on_c, 0, 53, 0
2, 47813, Note_on_c, 0, 81, 0
2, 47819, Control_c, 0, 64, 63
2, 47820, Note_on_c, 0, 50, 66
2, 47825, Note_on_c, 0, 77, 75
2, 47834, Control_c, 0, 64, 75
2, 47850, Control_c, 0, 64, 127
2, 47865, Note_on_c, 0, 50, 0
2, 47891, Note_on_c, 0, 77, 0
2, 48025, Control_c, 0, 64, 109
2, 48040, Control_c, 0, 64, 72
2, 48049, Note_on_c, 0, 74, 73
2, 48056, Control_c, 0, 64, 46
2, 48063, Note_on_c, 0, 58, 56
2, 48071, Control_c, 0, 64, 0
2, 48084, Note_on_c, 0, 69, 0
2, 48113, Note_on_c, 0, 62, 0
2, 48226, Note_on_c, 0, 66, 60
2, 48239, Note_on_c, 0, 62, 50
2, 48415, Note_on_c, 0, 66, 0
2, 48430, Note_on_c, 0, 67, 61
2, 48438, Note_on_c, 0, 64, 61
2, 48492, Note_on_c, 0, 62, 0
2, 48617, Note_on_c, 0, 64, 0
2, 48617, Note_on_c, 0, 69, 65
2, 48622, Note_on_c, 0, 66, 57
2, 48624, Note_on_c, 0, 67, 0
2, 48625, Note_on_c, 0, 74, 0
2, 48649, Control_c, 0, 64, 30
2, 48663, Control_c, 0, 64, 65
2, 48675, Note_on_c, 0, 69, 0
2, 48678, Control_c, 0, 64, 80
2, 48702, Control_c, 0, 64, 127
2, 48810, Control_c, 0, 64, 99
2, 48825, Control_c, 0, 64, 74
2, 48830, Note_on_c, 0, 70, 67
2, 48840, Control_c, 0, 64, 62
2, 48855, Control_c, 0, 64, 0
2, 48857, Note_on_c, 0, 67, 55
2, 48957, Note_on_c, 0, 66, 0
2, 49019, Note_on_c, 0, 77, 71
2, 49215, Note_on_c, 0, 76, 73
2, 49234, Note_on_c, 0, 77, 0
2, 49412, Note_on_c, 0, 79, 76
2, 49419, Note_on_c, 0, 65, 54
2, 49420, Note_on_c, 0, 76, 0
2, 49425, Note_on_c, 0, 67, 0
2, 49641, Note_on_c, 0, 72, 69
2, 49652, Note_on_c, 0, 79, 0
2, 49657, Note_on_c, 0, 64, 49
2, 49659, Note_on_c, 0, 65, 0
2, 49694, Note_on_c, 0, 70, 0
2, 49702, Note_on_c, 0, 58, 0
2, 49840, Note_on_c, 0, 57, 58
2, 50026, Note_on_c, 0, 55, 68
2, 50035, Note_on_c, 0, 70, 68
2, 50073, Note_on_c, 0, 57, 0
2, 50231, Note_on_c, 0, 58, 70
2, 50277, Note_on_c, 0, 55, 0
2, 50391, Note_on_c, 0, 72, 0
2, 50463, Note_on_c, 0, 57, 64
2, 50474, Note_on_c, 0, 70, 0
2, 50499, Note_on_c, 0, 58, 0
2, 50535, Note_on_c, 0, 64, 0
2, 50669, Note_on_c, 0, 60, 63
2, 50671, Note_on_c, 0, 69, 69
2, 50732, Note_on_c, 0, 69, 0
2, 50739, Note_on_c, 0, 60, 0
2, 50745, Note_on_c, 0, 67, 76
2, 50855, Note_on_c, 0, 69, 71
2, 50870, Note_on_c, 0, 65, 52
2, 50882, Note_on_c, 0, 67, 0
2, 51054, Note_on_c, 0, 75, 77
2, 51066, Note_on_c, 0, 69, 0
2, 51078, Note_on_c, 0, 72, 57
2, 51277, Note_on_c, 0, 74, 65
2, 51277, Note_on_c, 0, 75, 0
2, 51298, Note_on_c, 0, 70, 55
2, 51298, Note_on_c, 0, 72, 0
2, 51460, Note_on_c, 0, 55, 68
2, 51484, Note_on_c, 0, 57, 0
2, 51504, Note_on_c, 0, 65, 0
2, 51664, Note_on_c, 0, 53, 65
2, 51703, Note_on_c, 0, 55, 0
2, 51851, Note_on_c, 0, 57, 69
2, 51870, Note_on_c, 0, 53, 0
2, 52011, Note_on_c, 0, 70, 0
2, 52082, Note_on_c, 0, 57, 0
2, 52083, Note_on_c, 0, 58, 62
2, 52096, Note_on_c, 0, 55, 53
2, 52136, Note_on_c, 0, 74, 0
2, 52270, Note_on_c, 0, 77, 78
2, 52292, Control_c, 0, 64, 38
2, 52307, Control_c, 0, 64, 68
2, 52316, Note_on_c, 0, 55, 0
2, 52322, Control_c, 0, 64, 127
2, 52347, Note_on_c, 0, 58, 0
2, 52468, Note_on_c, 0, 70, 71
2, 52470, Note_on_c, 0, 48, 58
2, 52472, Note_on_c, 0, 60, 55
2, 52473, Control_c, 0, 64, 77
2, 52489, Control_c, 0, 64, 63
2, 52504, Control_c, 0, 64, 0
2, 52592, Note_on_c, 0, 70, 0
2, 52665, Note_on_c, 0, 76, 78
2, 52667, Note_on_c, 0, 48, 0
2, 52694, Control_c, 0, 64, 70
2, 52696, Note_on_c, 0, 77, 0
2, 52709, Control_c, 0, 64, 127
2, 52797, Note_on_c, 0, 76, 0
2, 52899, Note_on_c, 0, 77, 78
2, 52908, Control_c, 0, 64, 83
2, 52914, Note_on_c, 0, 53, 50
2, 52922, Control_c, 0, 64, 66
2, 52938, Control_c, 0, 64, 32
2, 52953, Control_c, 0, 64, 0
2, 53098, Note_on_c, 0, 67, 56
2, 53279, Note_on_c, 0, 67, 0
2, 53285, Note_on_c, 0, 69, 64
2, 53479, Note_on_c, 0, 72, 77
2, 53493, Note_on_c, 0, 57, 70
2, 53503, Note_on_c, 0, 60, 0
2, 53508, Note_on_c, 0, 77, 0
2, 53683, Note_on_c, 0, 72, 0
2, 53687, Note_on_c, 0, 77, 82
2, 53692, Note_on_c, 0, 57, 0
2, 53702, Note_on_c, 0, 62, 66
2, 53881, Note_on_c, 0, 69, 0
2, 53884, Note_on_c, 0, 81, 83
2, 53929, Note_on_c, 0, 77, 0
2, 53934, Control_c, 0, 64, 64
2, 53947, Note_on_c, 0, 81, 0
2, 53949, Control_c, 0, 64, 74
2, 53963, Control_c, 0, 64, 101
2, 53979, Control_c, 0, 64, 127
2, 54077, Control_c, 0, 64, 89
2, 54091, Note_on_c, 0, 74, 83
2, 54093, Control_c, 0, 64, 68
2, 54102, Note_on_c, 0, 65, 61
2, 54108, Control_c, 0, 64, 18
2, 54123, Control_c, 0, 64, 0
2, 54280, Note_on_c, 0, 77, 79
2, 54288, Note_on_c, 0, 74, 0
2, 54297, Note_on_c, 0, 65, 0
2, 54477, Note_on_c, 0, 71, 77
2, 54506, Note_on_c, 0, 67, 48
2, 54527, Note_on_c, 0, 77, 0
2, 54530, Note_on_c, 0, 53, 0
2, 54661, Note_on_c, 0, 74, 84
2, 54666, Note_on_c, 0, 53, 63
2, 54697, Note_on_c, 0, 71, 0
2, 54770, Note_on_c, 0, 74, 0
2, 54869, Note_on_c, 0, 79, 86
2, 54872, Note_on_c, 0, 53, 0
2, 54875, Note_on_c, 0, 52, 62
2, 54973, Note_on_c, 0, 67, 0
2, 55054, Note_on_c, 0, 71, 73
2, 55069, Note_on_c, 0, 50, 57
2, 55069, Note_on_c, 0, 52, 0
2, 55104, Control_c, 0, 64, 51
2, 55119, Control_c, 0, 64, 68
2, 55135, Control_c, 0, 64, 84
2, 55149, Control_c, 0, 64, 127
2, 55158, Note_on_c, 0, 71, 0
2, 55245, Note_on_c, 0, 62, 0
2, 55257, Control_c, 0, 64, 103
2, 55271, Control_c, 0, 64, 79
2, 55287, Control_c, 0, 64, 65
2, 55299, Note_on_c, 0, 73, 72
2, 55302, Control_c, 0, 64, 25
2, 55317, Control_c, 0, 64, 0
2, 55329, Note_on_c, 0, 55, 56
2, 55343, Note_on_c, 0, 52, 54
2, 55353, Note_on_c, 0, 50, 0
2, 55354, Note_on_c, 0, 79, 0
2, 55478, Note_on_c, 0, 79, 76
2, 55500, Control_c, 0, 64, 60
2, 55515, Control_c, 0, 64, 74
2, 55523, Note_on_c, 0, 52, 0
2, 55531, Control_c, 0, 64, 127
2, 55543, Note_on_c, 0, 55, 0
2, 55670, Note_on_c, 0, 79, 0
2, 55676, Note_on_c, 0, 73, 0
2, 55689, Note_on_c, 0, 57, 60
2, 55691, Control_c, 0, 64, 112
2, 55691, Note_on_c, 0, 77, 83
2, 55697, Note_on_c, 0, 45, 62
2, 55706, Control_c, 0, 64, 73
2, 55720, Control_c, 0, 64, 57
2, 55736, Control_c, 0, 64, 0
2, 55826, Note_on_c, 0, 45, 0
2, 55883, Note_on_c, 0, 76, 81
2, 55903, Control_c, 0, 64, 46
2, 55903, Note_on_c, 0, 77, 0
2, 55917, Control_c, 0, 64, 65
2, 55933, Control_c, 0, 64, 76
2, 55948, Control_c, 0, 64, 127
2, 55970, Note_on_c, 0, 76, 0
2, 56151, Note_on_c, 0, 77, 81
2, 56178, Control_c, 0, 64, 101
2, 56181, Note_on_c, 0, 50, 47
2, 56181, Note_on_c, 0, 74, 65
2, 56193, Control_c, 0, 64, 74
2, 56209, Control_c, 0, 64, 60
2, 56223, Control_c, 0, 64, 0
2, 56433, Note_on_c, 0, 52, 53
2, 56451, Note_on_c, 0, 57, 0
2, 56618, Note_on_c, 0, 53, 59
2, 56630, Note_on_c, 0, 52, 0
2, 56706, Note_on_c, 0, 72, 71
2, 56792, Note_on_c, 0, 57, 62
2, 56793, Note_on_c, 0, 53, 0
2, 56798, Note_on_c, 0, 72, 0
2, 56801, Note_on_c, 0, 70, 75
2, 56820, Note_on_c, 0, 74, 0
2, 56874, Note_on_c, 0, 70, 0
2, 56879, Note_on_c, 0, 69, 74
2, 57002, Note_on_c, 0, 70, 72
2, 57011, Note_on_c, 0, 62, 58
2, 57025, Note_on_c, 0, 69, 0
2, 57049, Note_on_c, 0, 57, 0
2, 57100, Note_on_c, 0, 77, 0
2, 57201, Note_on_c, 0, 74, 77
2, 57257, Control_c, 0, 64, 12
2, 57272, Control_c, 0, 64, 63
2, 57288, Control_c, 0, 64, 67
2, 57303, Control_c, 0, 64, 73
2, 57315, Note_on_c, 0, 74, 0
2, 57317, Control_c, 0, 64, 77
2, 57333, Control_c, 0, 64, 74
2, 57348, Control_c, 0, 64, 71
2, 57363, Control_c, 0, 64, 66
2, 57379, Control_c, 0, 64, 59
2, 57393, Control_c, 0, 64, 0
2, 57415, Note_on_c, 0, 77, 75
2, 57468, Note_on_c, 0, 70, 0
2, 57529, Control_c, 0, 64, 56
2, 57544, Control_c, 0, 64, 63
2, 57559, Control_c, 0, 64, 58
2, 57575, Control_c, 0, 64, 0
2, 57577, Note_on_c, 0, 62, 0
2, 57599, Note_on_c, 0, 60, 57
2, 57599, Note_on_c, 0, 69, 66
2, 57666, Control_c, 0, 64, 55
2, 57681, Control_c, 0, 64, 69
2, 57697, Control_c, 0, 64, 106
2, 57712, Control_c, 0, 64, 127
2, 57780, Note_on_c, 0, 60, 0
2, 57797, Note_on_c, 0, 69, 0
2, 57804, Control_c, 0, 64, 112
2, 57819, Control_c, 0, 64, 75
2, 57827, Note_on_c, 0, 68, 63
2, 57834, Control_c, 0, 64, 62
2, 57840, Note_on_c, 0, 59, 62
2, 57842, Note_on_c, 0, 77, 0
2, 57850, Control_c, 0, 64, 0
2, 57862, Note_on_c, 0, 50, 0
2, 58018, Note_on_c, 0, 77, 71
2, 58025, Note_on_c, 0, 50, 62
2, 58208, Note_on_c, 0, 48, 72
2, 58208, Note_on_c, 0, 76, 75
2, 58220, Note_on_c, 0, 50, 0
2, 58221, Note_on_c, 0, 68, 0
2, 58223, Note_on_c, 0, 77, 0
2, 58258, Note_on_c, 0, 59, 0
2, 58383, Note_on_c, 0, 47, 71
2, 58395, Note_on_c, 0, 68, 64
2, 58439, Note_on_c, 0, 48, 0
2, 58498, Note_on_c, 0, 68, 0
2, 58598, Note_on_c, 0, 48, 70
2, 58599, Note_on_c, 0, 47, 0
2, 58620, Note_on_c, 0, 69, 60
2, 58804, Note_on_c, 0, 75, 79
2, 58808, Note_on_c, 0, 48, 0
2, 58831, Note_on_c, 0, 76, 0
2, 58995, Note_on_c, 0, 53, 60
2, 59000, Note_on_c, 0, 74, 80
2, 59039, Note_on_c, 0, 75, 0
2, 59182, Note_on_c, 0, 73, 76
2, 59193, Note_on_c, 0, 74, 0
2, 59248, Control_c, 0, 64, 30
2, 59263, Control_c, 0, 64, 70
2, 59278, Control_c, 0, 64, 127
2, 59289, Note_on_c, 0, 73, 0
2, 59409, Note_on_c, 0, 74, 69
2, 59413, Note_on_c, 0, 46, 54
2, 59430, Control_c, 0, 64, 80
2, 59454, Control_c, 0, 64, 64
2, 59457, Note_on_c, 0, 69, 0
2, 59469, Control_c, 0, 64, 0
2, 59473, Note_on_c, 0, 53, 0
2, 59611, Note_on_c, 0, 72, 61
2, 59624, Note_on_c, 0, 50, 49
2, 59799, Note_on_c, 0, 70, 62
2, 59807, Note_on_c, 0, 52, 56
2, 59836, Note_on_c, 0, 72, 0
2, 59850, Note_on_c, 0, 50, 0
2, 59996, Note_on_c, 0, 54, 53
2, 59997, Note_on_c, 0, 69, 59
2, 60000, Note_on_c, 0, 52, 0
2, 60016, Note_on_c, 0, 70, 0
2, 60179, Note_on_c, 0, 54, 0
2, 60190, Note_on_c, 0, 55, 58
2, 60200, Note_on_c, 0, 70, 62
2, 60222, Note_on_c, 0, 69, 0
2, 60381, Note_on_c, 0, 55, 0
2, 60397, Note_on_c, 0, 66, 62
2, 60411, Note_on_c, 0, 57, 52
2, 60497, Note_on_c, 0, 57, 0
2, 60571, Note_on_c, 0, 74, 0
2, 60589, Note_on_c, 0, 67, 64
2, 60601, Note_on_c, 0, 58, 45
2, 60610, Note_on_c, 0, 66, 0
2, 60617, Control_c, 0, 64, 41
2, 60617, Note_on_c, 0, 70, 0
2, 60631, Control_c, 0, 64, 38
2, 60647, Control_c, 0, 64, 27
2, 60662, Control_c, 0, 64, 0
2, 60776, Note_on_c, 0, 74, 74
2, 60781, Note_on_c, 0, 51, 59
2, 60783, Note_on_c, 0, 46, 0
2, 60828, Control_c, 0, 64, 60
2, 60843, Control_c, 0, 64, 65
2, 60852, Note_on_c, 0, 51, 0
2, 60859, Control_c, 0, 64, 70
2, 60874, Control_c, 0, 64, 73
2, 60890, Control_c, 0, 64, 72
2, 60904, Control_c, 0, 64, 70
2, 60919, Control_c, 0, 64, 68
2, 60935, Control_c, 0, 64, 65
2, 60935, Note_on_c, 0, 58, 0
2, 60950, Control_c, 0, 64, 56
2, 60965, Control_c, 0, 64, 0
2, 61009, Note_on_c, 0, 73, 71
2, 61012, Note_on_c, 0, 45, 54
2, 61039, Note_on_c, 0, 74, 0
2, 61141, Control_c, 0, 64, 64
2, 61156, Control_c, 0, 64, 74
2, 61172, Control_c, 0, 64, 127
2, 61199, Note_on_c, 0, 73, 0
2, 61234, Note_on_c, 0, 57, 51
2, 61248, Control_c, 0, 67, 13
2, 61262, Control_c, 0, 67, 25
2, 61277, Control_c, 0, 67, 36
2, 61293, Control_c, 0, 67, 43
2, 61308, Control_c, 0, 67, 46
2, 61323, Control_c, 0, 67, 46
2, 61353, Control_c, 0, 67, 46
2, 61369, Control_c, 0, 67, 45
2, 61384, Control_c, 0, 67, 44
2, 61399, Control_c, 0, 67, 43
2, 61415, Control_c, 0, 67, 43
2, 61430, Control_c, 0, 67, 42
2, 61445, Control_c, 0, 64, 86
2, 61445, Control_c, 0, 67, 42
2, 61451, Note_on_c, 0, 72, 66
2, 61461, Control_c, 0, 64, 69
2, 61461, Control_c, 0, 67, 41
2, 61475, Control_c, 0, 64, 57
2, 61475, Control_c, 0, 67, 41
2, 61479, Note_on_c, 0, 57, 0
2, 61490, Note_on_c, 0, 52, 37
2, 61491, Control_c, 0, 64, 0
2, 61506, Control_c, 0, 67, 40
2, 61513, Note_on_c, 0, 67, 0
2, 61521, Control_c, 0, 67, 40
2, 61537, Control_c, 0, 67, 39
2, 61551, Control_c, 0, 67, 38
2, 61612, Control_c, 0, 67, 39
2, 61629, Note_on_c, 0, 70, 58
2, 61664, Note_on_c, 0, 55, 43
2, 61680, Note_on_c, 0, 52, 0
2, 61822, Note_on_c, 0, 70, 0
2, 61829, Note_on_c, 0, 69, 52
2, 61832, Control_c, 0, 67, 38
2, 61841, Note_on_c, 0, 55, 0
2, 61849, Note_on_c, 0, 54, 52
2, 62000, Control_c, 0, 67, 38
2, 62023, Note_on_c, 0, 69, 0
2, 62025, Note_on_c, 0, 67, 57
2, 62031, Note_on_c, 0, 54, 0
2, 62034, Note_on_c, 0, 55, 52
2, 62061, Control_c, 0, 64, 47
2, 62076, Control_c, 0, 64, 65
2, 62076, Control_c, 0, 67, 37
2, 62083, Note_on_c, 0, 55, 0
2, 62093, Control_c, 0, 64, 75
2, 62107, Control_c, 0, 64, 127
2, 62107, Control_c, 0, 67, 37
2, 62183, Control_c, 0, 64, 85
2, 62198, Control_c, 0, 64, 62
2, 62209, Note_on_c, 0, 67, 0
2, 62214, Control_c, 0, 64, 0
2, 62224, Note_on_c, 0, 66, 60
2, 62243, Note_on_c, 0, 57, 40
2, 62250, Note_on_c, 0, 72, 0
2, 62274, Control_c, 0, 64, 46
2, 62274, Control_c, 0, 67, 37
2, 62290, Control_c, 0, 64, 66
2, 62305, Control_c, 0, 64, 90
2, 62319, Control_c, 0, 64, 127
2, 62319, Note_on_c, 0, 66, 0
2, 62350, Control_c, 0, 67, 37
2, 62364, Note_on_c, 0, 45, 0
2, 62381, Control_c, 0, 64, 83
2, 62381, Control_c, 0, 67, 36
2, 62396, Control_c, 0, 64, 64
2, 62410, Note_on_c, 0, 72, 67
2, 62412, Control_c, 0, 64, 0
2, 62412, Control_c, 0, 67, 36
2, 62420, Note_on_c, 0, 54, 45
2, 62439, Note_on_c, 0, 63, 45
2, 62441, Control_c, 0, 64, 57
2, 62441, Note_on_c, 0, 57, 0
2, 62457, Control_c, 0, 64, 66
2, 62469, Note_on_c, 0, 54, 0
2, 62472, Control_c, 0, 64, 82
2, 62488, Control_c, 0, 64, 127
2, 62503, Note_on_c, 0, 63, 0
2, 62524, Control_c, 0, 67, 35
2, 62540, Control_c, 0, 67, 35
2, 62555, Control_c, 0, 67, 34
2, 62571, Control_c, 0, 64, 88
2, 62571, Control_c, 0, 67, 33
2, 62586, Control_c, 0, 64, 70
2, 62601, Control_c, 0, 64, 58
2, 62608, Note_on_c, 0, 72, 0
2, 62617, Control_c, 0, 64, 0
2, 62617, Control_c, 0, 67, 34
2, 62631, Control_c, 0, 67, 34
2, 62631, Note_on_c, 0, 71, 64
2, 62647, Control_c, 0, 67, 35
2, 62650, Note_on_c, 0, 43, 47
2, 62662, Note_on_c, 0, 62, 58
2, 62677, Control_c, 0, 67, 35
2, 62708, Control_c, 0, 67, 35
2, 62732, Note_on_c, 0, 62, 0
2, 62799, Control_c, 0, 64, 45
2, 62815, Control_c, 0, 64, 65
2, 62815, Control_c, 0, 67, 34
2, 62830, Control_c, 0, 64, 74
2, 62836, Note_on_c, 0, 64, 60
2, 62842, Note_on_c, 0, 55, 51
2, 62845, Control_c, 0, 64, 127
2, 62845, Control_c, 0, 67, 34
2, 62861, Control_c, 0, 67, 33
2, 62893, Note_on_c, 0, 64, 0
2, 62916, Note_on_c, 0, 71, 0
2, 62937, Control_c, 0, 67, 34
2, 62951, Control_c, 0, 67, 34
2, 63013, Control_c, 0, 64, 85
2, 63021, Note_on_c, 0, 55, 0
2, 63027, Control_c, 0, 64, 68
2, 63029, Note_on_c, 0, 70, 64
2, 63042, Control_c, 0, 64, 56
2, 63042, Control_c, 0, 67, 35
2, 63044, Note_on_c, 0, 65, 47
2, 63051, Note_on_c, 0, 50, 45
2, 63058, Control_c, 0, 64, 0
2, 63058, Control_c, 0, 67, 36
2, 63072, Control_c, 0, 67, 36
2, 63088, Control_c, 0, 67, 37
2, 63103, Control_c, 0, 67, 38
2, 63134, Control_c, 0, 67, 39
2, 63179, Control_c, 0, 67, 39
2, 63210, Control_c, 0, 67, 41
2, 63216, Note_on_c, 0, 50, 0
2, 63219, Note_on_c, 0, 65, 0
2, 63225, Control_c, 0, 67, 42
2, 63225, Note_on_c, 0, 69, 53
2, 63232, Note_on_c, 0, 53, 42
2, 63240, Control_c, 0, 67, 43
2, 63256, Control_c, 0, 67, 43
2, 63384, Control_c, 0, 67, 44
2, 63399, Control_c, 0, 67, 45
2, 63415, Control_c, 0, 67, 46
2, 63423, Note_on_c, 0, 53, 0
2, 63435, Note_on_c, 0, 67, 52
2, 63440, Note_on_c, 0, 69, 0
2, 63454, Note_on_c, 0, 52, 40
2, 63552, Control_c, 0, 67, 47
2, 63583, Control_c, 0, 67, 47
2, 63613, Control_c, 0, 67, 46
2, 63628, Control_c, 0, 67, 46
2, 63634, Note_on_c, 0, 65, 53
2, 63638, Note_on_c, 0, 52, 0
2, 63638, Note_on_c, 0, 67, 0
2, 63643, Control_c, 0, 67, 45
2, 63654, Note_on_c, 0, 53, 44
2, 63659, Control_c, 0, 67, 44
2, 63664, Note_on_c, 0, 70, 0
2, 63674, Control_c, 0, 67, 44
2, 63690, Control_c, 0, 64, 63
2, 63690, Control_c, 0, 67, 43
2, 63705, Control_c, 0, 64, 70
2, 63705, Control_c, 0, 67, 42
2, 63717, Note_on_c, 0, 53, 0
2, 63719, Control_c, 0, 64, 83
2, 63719, Control_c, 0, 67, 41
2, 63735, Control_c, 0, 64, 96
2, 63735, Control_c, 0, 67, 41
2, 63750, Control_c, 0, 64, 98
2, 63750, Control_c, 0, 67, 40
2, 63765, Control_c, 0, 64, 95
2, 63765, Control_c, 0, 67, 40
2, 63781, Control_c, 0, 64, 91
2, 63795, Control_c, 0, 64, 87
2, 63811, Control_c, 0, 64, 83
2, 63826, Control_c, 0, 64, 79
2, 63839, Note_on_c, 0, 65, 0
2, 63840, Control_c, 0, 64, 72
2, 63856, Control_c, 0, 64, 63
2, 63856, Control_c, 0, 67, 40
2, 63867, Note_on_c, 0, 64, 51
2, 63871, Control_c, 0, 64, 20
2, 63871, Control_c, 0, 67, 41
2, 63886, Control_c, 0, 64, 0
2, 63890, Note_on_c, 0, 55, 38
2, 63947, Control_c, 0, 67, 41
2, 63962, Control_c, 0, 67, 40
2, 63978, Control_c, 0, 64, 27
2, 63978, Control_c, 0, 67, 40
2, 63992, Control_c, 0, 64, 65
2, 63992, Control_c, 0, 67, 39
2, 64008, Control_c, 0, 64, 86
2, 64023, Control_c, 0, 64, 127
2, 64023, Control_c, 0, 67, 39
2, 64038, Control_c, 0, 67, 38
2, 64061, Control_c, 0, 67, 38
2, 64076, Control_c, 0, 64, 88
2, 64076, Control_c, 0, 67, 37
2, 64092, Control_c, 0, 64, 66
2, 64099, Note_on_c, 0, 70, 53
2, 64100, Note_on_c, 0, 55, 0
2, 64107, Control_c, 0, 64, 0
2, 64120, Note_on_c, 0, 61, 40
2, 64138, Note_on_c, 0, 52, 38
2, 64162, Note_on_c, 0, 64, 0
2, 64168, Control_c, 0, 64, 53
2, 64183, Control_c, 0, 64, 66
2, 64198, Control_c, 0, 64, 80
2, 64213, Control_c, 0, 64, 127
2, 64213, Control_c, 0, 67, 37
2, 64220, Note_on_c, 0, 52, 0
2, 64224, Note_on_c, 0, 43, 0
2, 64228, Control_c, 0, 67, 36
2, 64243, Control_c, 0, 67, 35
2, 64258, Control_c, 0, 67, 35
2, 64265, Note_on_c, 0, 70, 0
2, 64300, Note_on_c, 0, 61, 0
2, 64395, Control_c, 0, 67, 34
2, 64411, Control_c, 0, 67, 34
2, 64457, Note_on_c, 0, 69, 47
2, 64493, Note_on_c, 0, 60, 34
2, 64502, Control_c, 0, 64, 88
2, 64517, Control_c, 0, 64, 72
2, 64533, Control_c, 0, 64, 63
2, 64548, Control_c, 0, 64, 32
2, 64558, Note_on_c, 0, 41, 29
2, 64562, Control_c, 0, 64, 0
2, 64638, Control_c, 0, 67, 34
2, 64752, Note_on_c, 0, 48, 43
2, 64863, Note_on_c, 0, 41, 0
2, 64949, Note_on_c, 0, 48, 0
2, 64951, Note_on_c, 0, 50, 52
2, 65056, Control_c, 0, 67, 34
2, 65155, Note_on_c, 0, 52, 53
2, 65161, Note_on_c, 0, 50, 0
2, 65352, Note_on_c, 0, 53, 62
2, 65357, Note_on_c, 0, 52, 0
2, 65500, Note_on_c, 0, 53, 0
2, 65529, Control_c, 0, 67, 34
2, 65552, Note_on_c, 0, 57, 55
2, 65597, Control_c, 0, 67, 35
2, 65734, Control_c, 0, 67, 35
2, 65756, Note_on_c, 0, 50, 53
2, 65756, Note_on_c, 0, 57, 0
2, 65757, Note_on_c, 0, 65, 45
2, 65780, Note_on_c, 0, 60, 0
2, 65816, Note_on_c, 0, 69, 0
2, 65855, Control_c, 0, 67, 36
2, 65966, Note_on_c, 0, 53, 51
2, 65997, Note_on_c, 0, 50, 0
2, 66195, Note_on_c, 0, 67, 59
2, 66209, Note_on_c, 0, 65, 0
2, 66226, Note_on_c, 0, 47, 47
2, 66370, Note_on_c, 0, 53, 0
2, 66419, Note_on_c, 0, 65, 52
2, 66459, Control_c, 0, 67, 35
2, 66505, Note_on_c, 0, 47, 0
2, 66611, Note_on_c, 0, 65, 0
2, 66612, Note_on_c, 0, 64, 58
2, 66616, Note_on_c, 0, 43, 49
2, 66809, Note_on_c, 0, 62, 62
2, 66809, Note_on_c, 0, 64, 0
2, 66890, Note_on_c, 0, 43, 0
2, 67021, Control_c, 0, 67, 35
2, 67036, Control_c, 0, 67, 34
2, 67036, Note_on_c, 0, 62, 0
2, 67055, Note_on_c, 0, 64, 48
2, 67067, Control_c, 0, 67, 34
2, 67077, Note_on_c, 0, 48, 38
2, 67098, Control_c, 0, 67, 33
2, 67098, Note_on_c, 0, 67, 0
2, 67112, Control_c, 0, 67, 33
2, 67136, Control_c, 0, 67, 32
2, 67151, Control_c, 0, 67, 30
2, 67166, Control_c, 0, 67, 26
2, 67181, Control_c, 0, 67, 17
2, 67196, Control_c, 0, 67, 0
2, 67255, Note_on_c, 0, 67, 62
2, 67452, Note_on_c, 0, 69, 63
2, 67472, Note_on_c, 0, 67, 0
2, 67652, Note_on_c, 0, 72, 66
2, 67678, Note_on_c, 0, 69, 0
2, 67766, Note_on_c, 0, 64, 0
2, 67929, Note_on_c, 0, 65, 60
2, 67941, Note_on_c, 0, 62, 46
2, 67949, Control_c, 0, 67, 19
2, 67965, Control_c, 0, 67, 29
2, 67980, Control_c, 0, 67, 33
2, 67981, Note_on_c, 0, 72, 0
2, 67994, Control_c, 0, 67, 34
2, 68041, Control_c, 0, 67, 34
2, 68056, Control_c, 0, 67, 33
2, 68101, Control_c, 0, 67, 33
2, 68131, Control_c, 0, 67, 32
2, 68140, Note_on_c, 0, 48, 0
2, 68146, Control_c, 0, 67, 32
2, 68146, Note_on_c, 0, 50, 55
2, 68162, Control_c, 0, 67, 31
2, 68192, Control_c, 0, 67, 31
2, 68208, Control_c, 0, 67, 30
2, 68223, Control_c, 0, 67, 30
2, 68225, Note_on_c, 0, 50, 0
2, 68231, Note_on_c, 0, 52, 61
2, 68237, Control_c, 0, 67, 29
2, 68253, Control_c, 0, 67, 29
2, 68268, Control_c, 0, 67, 28
2, 68322, Note_on_c, 0, 52, 0
2, 68326, Note_on_c, 0, 53, 68
2, 68389, Control_c, 0, 67, 28
2, 68399, Note_on_c, 0, 53, 0
2, 68419, Note_on_c, 0, 55, 72
2, 68531, Note_on_c, 0, 57, 70
2, 68538, Note_on_c, 0, 55, 0
2, 68562, Note_on_c, 0, 62, 0
2, 68775, Note_on_c, 0, 47, 61
2, 68801, Note_on_c, 0, 57, 0
2, 68868, Control_c, 0, 67, 28
2, 68926, Note_on_c, 0, 65, 0
2, 68986, Note_on_c, 0, 74, 69
2, 69070, Note_on_c, 0, 74, 0
2, 69071, Note_on_c, 0, 72, 78
2, 69082, Control_c, 0, 67, 29
2, 69128, Control_c, 0, 67, 29
2, 69188, Note_on_c, 0, 74, 74
2, 69219, Control_c, 0, 67, 30
2, 69219, Note_on_c, 0, 55, 40
2, 69219, Note_on_c, 0, 72, 0
2, 69264, Control_c, 0, 67, 31
2, 69281, Control_c, 0, 67, 31
2, 69296, Control_c, 0, 67, 32
2, 69311, Control_c, 0, 67, 33
2, 69356, Control_c, 0, 67, 34
2, 69372, Control_c, 0, 67, 36
2, 69387, Control_c, 0, 67, 37
2, 69402, Control_c, 0, 67, 42
2, 69402, Note_on_c, 0, 65, 59
2, 69408, Note_on_c, 0, 74, 0
2, 69417, Control_c, 0, 67, 53
2, 69439, Control_c, 0, 67, 63
2, 69455, Control_c, 0, 64, 40
2, 69455, Control_c, 0, 67, 71
2, 69470, Control_c, 0, 64, 67
2, 69470, Control_c, 0, 67, 80
2, 69486, Control_c, 0, 64, 86
2, 69486, Control_c, 0, 67, 89
2, 69501, Control_c, 0, 64, 127
2, 69501, Control_c, 0, 67, 96
2, 69513, Note_on_c, 0, 65, 0
2, 69515, Control_c, 0, 67, 99
2, 69516, Note_on_c, 0, 47, 0
2, 69531, Control_c, 0, 67, 100
2, 69577, Control_c, 0, 67, 99
2, 69592, Control_c, 0, 67, 98
2, 69607, Control_c, 0, 67, 97
2, 69622, Control_c, 0, 67, 96
2, 69637, Control_c, 0, 67, 96
2, 69653, Control_c, 0, 67, 95
2, 69668, Control_c, 0, 67, 94
2, 69674, Note_on_c, 0, 64, 60
2, 69683, Control_c, 0, 67, 94
2, 69698, Control_c, 0, 64, 107
2, 69698, Control_c, 0, 67, 93
2, 69713, Control_c, 0, 64, 86
2, 69713, Control_c, 0, 67, 92
2, 69728, Note_on_c, 0, 48, 37
2, 69729, Control_c, 0, 64, 75
2, 69729, Control_c, 0, 67, 92
2, 69744, Control_c, 0, 64, 67
2, 69758, Control_c, 0, 64, 60
2, 69774, Control_c, 0, 64, 0
2, 69789, Control_c, 0, 67, 91
2, 69819, Control_c, 0, 67, 91
2, 69834, Control_c, 0, 67, 90
2, 69850, Control_c, 0, 67, 90
2, 69903, Note_on_c, 0, 62, 48
2, 69941, Control_c, 0, 67, 89
2, 69956, Control_c, 0, 67, 89
2, 69972, Control_c, 0, 67, 88
2, 69986, Control_c, 0, 67, 88
2, 70017, Control_c, 0, 67, 87
2, 70078, Control_c, 0, 67, 88
2, 70092, Note_on_c, 0, 62, 0
2, 70106, Note_on_c, 0, 60, 49
2, 70314, Note_on_c, 0, 59, 49
2, 70336, Note_on_c, 0, 60, 0
2, 70421, Control_c, 0, 67, 87
2, 70522, Note_on_c, 0, 59, 0
2, 70531, Note_on_c, 0, 60, 52
2, 70538, Note_on_c, 0, 64, 0
2, 70617, Control_c, 0, 67, 87
2, 70662, Control_c, 0, 67, 86
2, 70677, Control_c, 0, 67, 86
2, 70693, Control_c, 0, 67, 85
2, 70724, Control_c, 0, 67, 85
2, 70730, Note_on_c, 0, 67, 60
2, 70753, Control_c, 0, 67, 84
2, 70769, Control_c, 0, 67, 84
2, 70783, Control_c, 0, 67, 83
2, 70798, Control_c, 0, 67, 82
2, 70814, Control_c, 0, 67, 81
2, 70829, Control_c, 0, 67, 80
2, 70845, Control_c, 0, 67, 79
2, 70859, Control_c, 0, 67, 77
2, 70874, Control_c, 0, 67, 74
2, 70890, Control_c, 0, 67, 70
2, 70906, Control_c, 0, 67, 66
2, 70922, Control_c, 0, 67, 61
2, 70933, Note_on_c, 0, 69, 66
2, 70934, Note_on_c, 0, 47, 55
2, 70937, Control_c, 0, 67, 55
2, 70950, Note_on_c, 0, 67, 0
2, 70952, Control_c, 0, 67, 51
2, 70974, Control_c, 0, 67, 47
2, 70989, Control_c, 0, 67, 44
2, 71005, Control_c, 0, 67, 42
2, 71020, Control_c, 0, 67, 39
2, 71029, Note_on_c, 0, 48, 0
2, 71035, Control_c, 0, 67, 38
2, 71051, Control_c, 0, 67, 37
2, 71066, Control_c, 0, 67, 36
2, 71082, Control_c, 0, 67, 36
2, 71096, Control_c, 0, 67, 35
2, 71111, Control_c, 0, 67, 35
2, 71124, Note_on_c, 0, 71, 71
2, 71127, Control_c, 0, 67, 34
2, 71142, Control_c, 0, 67, 33
2, 71142, Note_on_c, 0, 69, 0
2, 71157, Control_c, 0, 67, 32
2, 71172, Control_c, 0, 67, 31
2, 71203, Control_c, 0, 67, 31
2, 71203, Note_on_c, 0, 60, 0
2, 71341, Note_on_c, 0, 72, 68
2, 71354, Control_c, 0, 67, 30
2, 71375, Note_on_c, 0, 45, 47
2, 71375, Note_on_c, 0, 71, 0
2, 71409, Note_on_c, 0, 47, 0
2, 71453, Note_on_c, 0, 55, 0
2, 71546, Note_on_c, 0, 69, 56
2, 71651, Note_on_c, 0, 45, 0
2, 71757, Note_on_c, 0, 64, 56
2, 71758, Note_on_c, 0, 57, 60
2, 71764, Note_on_c, 0, 69, 0
2, 71776, Note_on_c, 0, 48, 48
2, 71895, Control_c, 0, 67, 29
2, 71909, Control_c, 0, 67, 26
2, 71925, Control_c, 0, 67, 17
2, 71940, Control_c, 0, 67, 0
2, 71961, Note_on_c, 0, 67, 63
2, 71984, Note_on_c, 0, 64, 0
2, 72037, Note_on_c, 0, 48, 0
2, 72151, Note_on_c, 0, 66, 63
2, 72164, Note_on_c, 0, 67, 0
2, 72176, Note_on_c, 0, 50, 53
2, 72356, Note_on_c, 0, 69, 62
2, 72370, Note_on_c, 0, 66, 0
2, 72401, Note_on_c, 0, 50, 0
2, 72562, Note_on_c, 0, 62, 59
2, 72575, Note_on_c, 0, 54, 54
2, 72582, Note_on_c, 0, 72, 0
2, 72585, Note_on_c, 0, 69, 0
2, 72707, Control_c, 0, 64, 28
2, 72723, Control_c, 0, 64, 56
2, 72732, Note_on_c, 0, 57, 0
2, 72738, Control_c, 0, 64, 60
2, 72753, Control_c, 0, 64, 63
2, 72763, Note_on_c, 0, 72, 77
2, 72769, Control_c, 0, 64, 65
2, 72772, Note_on_c, 0, 54, 0
2, 72784, Control_c, 0, 64, 68
2, 72799, Control_c, 0, 64, 75
2, 72815, Control_c, 0, 64, 84
2, 72830, Control_c, 0, 64, 87
2, 72861, Control_c, 0, 64, 86
2, 72875, Control_c, 0, 64, 85
2, 72891, Control_c, 0, 64, 84
2, 72906, Control_c, 0, 64, 81
2, 72922, Control_c, 0, 64, 79
2, 72937, Control_c, 0, 64, 76
2, 72952, Control_c, 0, 64, 73
2, 72968, Control_c, 0, 64, 68
2, 72983, Control_c, 0, 64, 64
2, 72997, Control_c, 0, 64, 56
2, 73008, Note_on_c, 0, 71, 71
2, 73013, Control_c, 0, 64, 12
2, 73028, Control_c, 0, 64, 0
2, 73031, Note_on_c, 0, 43, 48
2, 73161, Note_on_c, 0, 72, 0
2, 73209, Note_on_c, 0, 50, 61
2, 73235, Note_on_c, 0, 43, 0
2, 73409, Note_on_c, 0, 50, 0
2, 73409, Note_on_c, 0, 52, 66
2, 73594, Note_on_c, 0, 54, 70
2, 73607, Note_on_c, 0, 52, 0
2, 73772, Note_on_c, 0, 62, 0
2, 73791, Note_on_c, 0, 55, 74
2, 73794, Note_on_c, 0, 54, 0
2, 73917, Note_on_c, 0, 71, 0
2, 73941, Note_on_c, 0, 55, 0
2, 73974, Note_on_c, 0, 59, 67
2, 74185, Note_on_c, 0, 73, 71
2, 74187, Note_on_c, 0, 67, 59
2, 74195, Note_on_c, 0, 59, 0
2, 74203, Note_on_c, 0, 52, 54
2, 74269, Note_on_c, 0, 74, 75
2, 74270, Note_on_c, 0, 73, 0
2, 74355, Note_on_c, 0, 52, 0
2, 74373, Note_on_c, 0, 76, 76
2, 74382, Note_on_c, 0, 55, 54
2, 74408, Note_on_c, 0, 74, 0
2, 74443, Control_c, 0, 64, 38
2, 74456, Note_on_c, 0, 76, 0
2, 74458, Control_c, 0, 64, 63
2, 74472, Control_c, 0, 64, 67
2, 74488, Control_c, 0, 64, 73
2, 74503, Control_c, 0, 64, 72
2, 74517, Control_c, 0, 64, 70
2, 74533, Control_c, 0, 64, 67
2, 74548, Control_c, 0, 64, 63
2, 74564, Control_c, 0, 64, 32
2, 74579, Control_c, 0, 64, 0
2, 74595, Note_on_c, 0, 69, 63
2, 74610, Note_on_c, 0, 67, 0
2, 74619, Note_on_c, 0, 49, 48
2, 74714, Note_on_c, 0, 55, 0
2, 74787, Note_on_c, 0, 67, 56
2, 74904, Note_on_c, 0, 49, 0
2, 74988, Note_on_c, 0, 67, 0
2, 74994, Note_on_c, 0, 65, 55
2, 75012, Note_on_c, 0, 45, 46
2, 75193, Note_on_c, 0, 64, 54
2, 75196, Note_on_c, 0, 65, 0
2, 75328, Note_on_c, 0, 45, 0
2, 75405, Note_on_c, 0, 64, 0
2, 75421, Note_on_c, 0, 50, 49
2, 75423, Note_on_c, 0, 65, 54
2, 75467, Note_on_c, 0, 69, 0
2, 75631, Note_on_c, 0, 69, 58
2, 75822, Note_on_c, 0, 70, 67
2, 75823, Note_on_c, 0, 48, 56
2, 75845, Note_on_c, 0, 69, 0
2, 75848, Note_on_c, 0, 50, 0
2, 76008, Note_on_c, 0, 72, 70
2, 76027, Note_on_c, 0, 70, 0
2, 76231, Note_on_c, 0, 72, 0
2, 76245, Note_on_c, 0, 74, 68
2, 76258, Note_on_c, 0, 46, 47
2, 76274, Note_on_c, 0, 48, 0
2, 76315, Note_on_c, 0, 74, 0
2, 76331, Note_on_c, 0, 72, 73
2, 76426, Note_on_c, 0, 70, 72
2, 76428, Note_on_c, 0, 72, 0
2, 76492, Note_on_c, 0, 70, 0
2, 76497, Note_on_c, 0, 69, 68
2, 76603, Note_on_c, 0, 46, 0
2, 76614, Note_on_c, 0, 70, 77
2, 76625, Note_on_c, 0, 69, 0
2, 76627, Note_on_c, 0, 45, 55
2, 76802, Note_on_c, 0, 74, 82
2, 76822, Note_on_c, 0, 70, 0
2, 76862, Note_on_c, 0, 65, 0
2, 77006, Note_on_c, 0, 67, 68
2, 77024, Note_on_c, 0, 46, 51
2, 77025, Note_on_c, 0, 74, 0
2, 77033, Note_on_c, 0, 45, 0
2, 77205, Note_on_c, 0, 77, 70
2, 77385, Note_on_c, 0, 46, 0
2, 77399, Note_on_c, 0, 76, 75
2, 77414, Note_on_c, 0, 43, 51
2, 77429, Note_on_c, 0, 77, 0
2, 77582, Note_on_c, 0, 74, 81
2, 77601, Note_on_c, 0, 76, 0
2, 77650, Control_c, 0, 64, 60
2, 77665, Control_c, 0, 64, 66
2, 77679, Control_c, 0, 64, 78
2, 77683, Note_on_c, 0, 74, 0
2, 77695, Control_c, 0, 64, 127
2, 77833, Note_on_c, 0, 73, 72
2, 77862, Control_c, 0, 64, 109
2, 77876, Note_on_c, 0, 45, 50
2, 77884, Control_c, 0, 64, 78
2, 77900, Control_c, 0, 64, 64
2, 77915, Control_c, 0, 64, 0
2, 77928, Note_on_c, 0, 67, 0
2, 77961, Note_on_c, 0, 43, 0
2, 78069, Note_on_c, 0, 70, 57
2, 78246, Note_on_c, 0, 69, 60
2, 78268, Note_on_c, 0, 70, 0
2, 78439, Note_on_c, 0, 67, 67
2, 78461, Note_on_c, 0, 69, 0
2, 78477, Control_c, 0, 64, 62
2, 78493, Control_c, 0, 64, 70
2, 78505, Note_on_c, 0, 73, 0
2, 78508, Control_c, 0, 64, 92
2, 78523, Control_c, 0, 64, 127
2, 78570, Control_c, 0, 64, 95
2, 78585, Control_c, 0, 64, 77
2, 78599, Control_c, 0, 64, 65
2, 78615, Control_c, 0, 64, 46
2, 78630, Control_c, 0, 64, 0
2, 78656, Note_on_c, 0, 65, 64
2, 78659, Note_on_c, 0, 67, 0
2, 78846, Note_on_c, 0, 69, 67
2, 78954, Note_on_c, 0, 69, 0
2, 79059, Note_on_c, 0, 74, 69
2, 79128, Note_on_c, 0, 65, 0
2, 79248, Note_on_c, 0, 65, 51
2, 79491, Note_on_c, 0, 64, 51
2, 79536, Note_on_c, 0, 65, 0
2, 79658, Note_on_c, 0, 74, 0
2, 79698, Note_on_c, 0, 52, 55
2, 79783, Note_on_c, 0, 45, 0
2, 79879, Note_on_c, 0, 74, 61
2, 79895, Note_on_c, 0, 53, 61
2, 79907, Note_on_c, 0, 52, 0
2, 80083, Note_on_c, 0, 55, 70
2, 80126, Note_on_c, 0, 53, 0
2, 80284, Note_on_c, 0, 57, 72
2, 80284, Note_on_c, 0, 72, 76
2, 80291, Note_on_c, 0, 55, 0
2, 80312, Note_on_c, 0, 74, 0
2, 80480, Note_on_c, 0, 60, 71
2, 80506, Note_on_c, 0, 57, 0
2, 80683, Note_on_c, 0, 70, 75
2, 80685, Note_on_c, 0, 72, 0
2, 80695, Note_on_c, 0, 52, 56
2, 80697, Note_on_c, 0, 64, 0
2, 80709, Note_on_c, 0, 67, 57
2, 80712, Note_on_c, 0, 60, 0
2, 80880, Note_on_c, 0, 55, 68
2, 80881, Note_on_c, 0, 52, 0
2, 80925, Note_on_c, 0, 70, 0
2, 80934, Control_c, 0, 64, 55
2, 80957, Control_c, 0, 64, 65
2, 80973, Control_c, 0, 64, 70
2, 80988, Control_c, 0, 64, 82
2, 81002, Control_c, 0, 64, 127
2, 81089, Note_on_c, 0, 69, 70
2, 81094, Control_c, 0, 64, 90
2, 81098, Note_on_c, 0, 54, 62
2, 81108, Note_on_c, 0, 67, 0
2, 81109, Control_c, 0, 64, 70
2, 81124, Control_c, 0, 64, 45
2, 81137, Note_on_c, 0, 55, 0
2, 81139, Control_c, 0, 64, 0
2, 81281, Note_on_c, 0, 67, 59
2, 81298, Note_on_c, 0, 57, 57
2, 81302, Note_on_c, 0, 54, 0
2, 81489, Note_on_c, 0, 66, 57
2, 81499, Note_on_c, 0, 50, 45
2, 81506, Note_on_c, 0, 67, 0
2, 81519, Note_on_c, 0, 69, 0
2, 81561, Note_on_c, 0, 57, 0
2, 81581, Control_c, 0, 64, 63
2, 81596, Control_c, 0, 64, 65
2, 81627, Control_c, 0, 64, 64
2, 81639, Control_c, 0, 64, 63
2, 81655, Control_c, 0, 64, 61
2, 81670, Control_c, 0, 64, 56
2, 81684, Control_c, 0, 64, 44
2, 81685, Note_on_c, 0, 69, 60
2, 81700, Control_c, 0, 64, 0
2, 81716, Note_on_c, 0, 60, 53
2, 81744, Note_on_c, 0, 50, 0
2, 81757, Note_on_c, 0, 66, 0
2, 81912, Note_on_c, 0, 62, 55
2, 81930, Note_on_c, 0, 55, 48
2, 81962, Note_on_c, 0, 69, 0
2, 81971, Note_on_c, 0, 60, 0
2, 82102, Note_on_c, 0, 69, 48
2, 82120, Note_on_c, 0, 60, 41
2, 82309, Note_on_c, 0, 60, 0
2, 82314, Note_on_c, 0, 67, 50
2, 82322, Note_on_c, 0, 58, 44
2, 82342, Note_on_c, 0, 69, 0
2, 82497, Note_on_c, 0, 58, 0
2, 82509, Note_on_c, 0, 67, 0
2, 82512, Note_on_c, 0, 66, 54
2, 82521, Note_on_c, 0, 57, 52
2, 82709, Note_on_c, 0, 57, 0
2, 82733, Note_on_c, 0, 66, 0
2, 82738, Note_on_c, 0, 62, 0
2, 82748, Note_on_c, 0, 67, 52
2, 82764, Note_on_c, 0, 58, 51
2, 82810, Control_c, 0, 64, 63
2, 82815, Note_on_c, 0, 67, 0
2, 82826, Control_c, 0, 64, 71
2, 82841, Control_c, 0, 64, 101
2, 82857, Control_c, 0, 64, 127
2, 82909, Note_on_c, 0, 55, 0
2, 82958, Note_on_c, 0, 74, 72
2, 83038, Control_c, 0, 64, 105
2, 83053, Control_c, 0, 64, 78
2, 83068, Control_c, 0, 64, 66
2, 83083, Control_c, 0, 64, 43
2, 83099, Control_c, 0, 64, 0
2, 83157, Note_on_c, 0, 76, 74
2, 83165, Note_on_c, 0, 50, 53
2, 83199, Note_on_c, 0, 74, 0
2, 83355, Note_on_c, 0, 78, 81
2, 83373, Note_on_c, 0, 76, 0
2, 83510, Note_on_c, 0, 50, 0
2, 83551, Note_on_c, 0, 79, 84
2, 83557, Note_on_c, 0, 78, 0
2, 83559, Note_on_c, 0, 51, 57
2, 83607, Control_c, 0, 64, 67
2, 83623, Control_c, 0, 64, 114
2, 83638, Control_c, 0, 64, 127
2, 83646, Note_on_c, 0, 79, 0
2, 83744, Control_c, 0, 64, 86
2, 83747, Note_on_c, 0, 82, 84
2, 83759, Control_c, 0, 64, 66
2, 83775, Control_c, 0, 64, 34
2, 83789, Control_c, 0, 64, 0
2, 83957, Note_on_c, 0, 74, 70
2, 83969, Note_on_c, 0, 55, 56
2, 83978, Note_on_c, 0, 51, 0
2, 84162, Note_on_c, 0, 77, 74
2, 84178, Control_c, 0, 64, 47
2, 84181, Note_on_c, 0, 58, 0
2, 84193, Control_c, 0, 64, 65
2, 84200, Note_on_c, 0, 74, 0
2, 84208, Control_c, 0, 64, 77
2, 84224, Control_c, 0, 64, 127
2, 84466, Note_on_c, 0, 75, 72
2, 84488, Note_on_c, 0, 60, 59
2, 84509, Note_on_c, 0, 48, 47
2, 84511, Note_on_c, 0, 77, 0
2, 84530, Note_on_c, 0, 82, 0
2, 84557, Control_c, 0, 64, 84
2, 84572, Control_c, 0, 64, 67
2, 84588, Control_c, 0, 64, 18
2, 84603, Control_c, 0, 64, 0
2, 84677, Note_on_c, 0, 55, 0
2, 84752, Note_on_c, 0, 82, 55
2, 84953, Note_on_c, 0, 80, 64
2, 84990, Note_on_c, 0, 82, 0
2, 85141, Note_on_c, 0, 79, 75
2, 85153, Note_on_c, 0, 80, 0
2, 85335, Note_on_c, 0, 80, 75
2, 85351, Note_on_c, 0, 79, 0
2, 85523, Note_on_c, 0, 84, 72
2, 85531, Note_on_c, 0, 80, 0
2, 85733, Note_on_c, 0, 78, 75
2, 85756, Note_on_c, 0, 84, 0
2, 85907, Note_on_c, 0, 80, 71
2, 85937, Note_on_c, 0, 79, 80
2, 85939, Note_on_c, 0, 78, 0
2, 86058, Note_on_c, 0, 80, 0
2, 86120, Note_on_c, 0, 78, 78
2, 86143, Note_on_c, 0, 79, 0
2, 86147, Note_on_c, 0, 75, 0
2, 86150, Note_on_c, 0, 50, 64
2, 86205, Note_on_c, 0, 48, 0
2, 86345, Note_on_c, 0, 75, 63
2, 86491, Note_on_c, 0, 60, 0
2, 86556, Note_on_c, 0, 74, 58
2, 86562, Note_on_c, 0, 75, 0
2, 86740, Note_on_c, 0, 60, 55
2, 86947, Note_on_c, 0, 60, 0
2, 86956, Note_on_c, 0, 59, 55
2, 87002, Note_on_c, 0, 74, 0
2, 87146, Note_on_c, 0, 74, 60
2, 87355, Note_on_c, 0, 79, 77
2, 87378, Note_on_c, 0, 58, 45
2, 87403, Note_on_c, 0, 74, 0
2, 87406, Note_on_c, 0, 78, 0
2, 87469, Note_on_c, 0, 59, 0
2, 87552, Note_on_c, 0, 73, 57
2, 87757, Note_on_c, 0, 74, 57
2, 87759, Note_on_c, 0, 73, 0
2, 87768, Note_on_c, 0, 57, 47
2, 87828, Note_on_c, 0, 79, 0
2, 87866, Note_on_c, 0, 58, 0
2, 87953, Note_on_c, 0, 79, 75
2, 88152, Note_on_c, 0, 78, 81
2, 88159, Note_on_c, 0, 55, 54
2, 88179, Note_on_c, 0, 57, 0
2, 88210, Note_on_c, 0, 79, 0
2, 88342, Note_on_c, 0, 76, 78
2, 88353, Control_c, 0, 64, 46
2, 88367, Control_c, 0, 64, 63
2, 88368, Note_on_c, 0, 78, 0
2, 88383, Control_c, 0, 64, 65
2, 88398, Control_c, 0, 64, 68
2, 88413, Control_c, 0, 64, 70
2, 88428, Control_c, 0, 64, 70
2, 88432, Note_on_c, 0, 50, 0
2, 88443, Control_c, 0, 64, 68
2, 88459, Control_c, 0, 64, 66
2, 88474, Control_c, 0, 64, 63
2, 88489, Control_c, 0, 64, 46
2, 88504, Control_c, 0, 64, 0
2, 88546, Note_on_c, 0, 78, 83
2, 88569, Note_on_c, 0, 50, 36
2, 88575, Note_on_c, 0, 57, 53
2, 88579, Note_on_c, 0, 55, 0
2, 88589, Note_on_c, 0, 76, 0
2, 88738, Note_on_c, 0, 79, 81
2, 88760, Note_on_c, 0, 78, 0
2, 88954, Note_on_c, 0, 81, 71
2, 88979, Note_on_c, 0, 79, 0
2, 88990, Note_on_c, 0, 62, 46
2, 89065, Note_on_c, 0, 50, 0
2, 89074, Note_on_c, 0, 57, 0
2, 89126, Note_on_c, 0, 74, 0
2, 89149, Note_on_c, 0, 72, 42
2, 89166, Control_c, 0, 64, 33
2, 89182, Control_c, 0, 64, 63
2, 89194, Note_on_c, 0, 72, 0
2, 89197, Control_c, 0, 64, 69
2, 89211, Control_c, 0, 64, 84
2, 89227, Control_c, 0, 64, 127
2, 89287, Control_c, 0, 64, 118
2, 89303, Control_c, 0, 64, 92
2, 89318, Control_c, 0, 64, 77
2, 89333, Control_c, 0, 64, 65
2, 89348, Control_c, 0, 64, 50
2, 89358, Note_on_c, 0, 70, 43
2, 89363, Control_c, 0, 64, 0
2, 89391, Note_on_c, 0, 55, 41
2, 89529, Note_on_c, 0, 70, 0
2, 89555, Note_on_c, 0, 74, 64
2, 89732, Note_on_c, 0, 74, 0
2, 89738, Note_on_c, 0, 79, 75
2, 89751, Note_on_c, 0, 72, 64
2, 89760, Note_on_c, 0, 81, 0
2, 89777, Note_on_c, 0, 63, 51
2, 89885, Note_on_c, 0, 62, 0
2, 89940, Note_on_c, 0, 78, 82
2, 89968, Note_on_c, 0, 79, 0
2, 89973, Note_on_c, 0, 72, 0
2, 90138, Note_on_c, 0, 79, 85
2, 90152, Note_on_c, 0, 62, 56
2, 90176, Note_on_c, 0, 78, 0
2, 90220, Note_on_c, 0, 63, 0
2, 90345, Note_on_c, 0, 70, 62
2, 90433, Note_on_c, 0, 70, 0
2, 90518, Note_on_c, 0, 62, 0
2, 90540, Note_on_c, 0, 75, 70
2, 90541, Note_on_c, 0, 60, 52
2, 90689, Note_on_c, 0, 75, 0
2, 90718, Note_on_c, 0, 81, 82
2, 90732, Control_c, 0, 64, 27
2, 90748, Control_c, 0, 64, 62
2, 90763, Control_c, 0, 64, 67
2, 90766, Note_on_c, 0, 79, 0
2, 90779, Control_c, 0, 64, 80
2, 90794, Control_c, 0, 64, 127
2, 90882, Note_on_c, 0, 60, 0
2, 90967, Control_c, 0, 64, 96
2, 90970, Note_on_c, 0, 82, 83
2, 90983, Control_c, 0, 64, 72
2, 90998, Control_c, 0, 64, 60
2, 91011, Note_on_c, 0, 81, 0
2, 91013, Control_c, 0, 64, 0
2, 91013, Note_on_c, 0, 74, 49
2, 91032, Note_on_c, 0, 58, 40
2, 91221, Note_on_c, 0, 60, 56
2, 91247, Note_on_c, 0, 58, 0
2, 91345, Note_on_c, 0, 74, 0
2, 91416, Note_on_c, 0, 62, 67
2, 91425, Control_c, 0, 64, 63
2, 91438, Note_on_c, 0, 60, 0
2, 91440, Control_c, 0, 64, 73
2, 91456, Control_c, 0, 64, 97
2, 91470, Control_c, 0, 64, 108
2, 91470, Note_on_c, 0, 55, 0
2, 91485, Control_c, 0, 64, 88
2, 91501, Control_c, 0, 64, 73
2, 91515, Control_c, 0, 64, 64
2, 91530, Control_c, 0, 64, 0
2, 91607, Note_on_c, 0, 53, 60
2, 91608, Note_on_c, 0, 74, 73
2, 91808, Note_on_c, 0, 79, 77
2, 91813, Note_on_c, 0, 82, 0
2, 91820, Note_on_c, 0, 52, 61
2, 91842, Note_on_c, 0, 53, 0
2, 91983, Note_on_c, 0, 81, 83
2, 92000, Note_on_c, 0, 79, 0
2, 92001, Note_on_c, 0, 61, 58
2, 92030, Note_on_c, 0, 62, 0
2, 92115, Note_on_c, 0, 81, 0
2, 92188, Note_on_c, 0, 82, 85
2, 92210, Note_on_c, 0, 62, 61
2, 92247, Note_on_c, 0, 61, 0
2, 92268, Note_on_c, 0, 52, 0
2, 92314, Control_c, 0, 64, 64
2, 92329, Control_c, 0, 64, 75
2, 92345, Control_c, 0, 64, 127
2, 92381, Note_on_c, 0, 50, 60
2, 92393, Note_on_c, 0, 79, 73
2, 92441, Note_on_c, 0, 62, 0
2, 92443, Note_on_c, 0, 74, 0
2, 92475, Note_on_c, 0, 50, 0
2, 92477, Note_on_c, 0, 82, 0
2, 92479, Note_on_c, 0, 79, 0
2, 92650, Note_on_c, 0, 81, 84
2, 92657, Note_on_c, 0, 49, 54
2, 92686, Control_c, 0, 64, 82
2, 92702, Control_c, 0, 64, 60
2, 92716, Control_c, 0, 64, 0
2, 92875, Note_on_c, 0, 79, 67
2, 92876, Note_on_c, 0, 57, 55
2, 92909, Note_on_c, 0, 49, 0
2, 93061, Note_on_c, 0, 57, 0
2, 93061, Note_on_c, 0, 59, 62
2, 93066, Note_on_c, 0, 77, 64
2, 93083, Note_on_c, 0, 79, 0
2, 93264, Note_on_c, 0, 76, 66
2, 93271, Note_on_c, 0, 61, 68
2, 93273, Note_on_c, 0, 77, 0
2, 93284, Note_on_c, 0, 59, 0
2, 93458, Note_on_c, 0, 77, 66
2, 93467, Note_on_c, 0, 62, 59
2, 93472, Note_on_c, 0, 61, 0
2, 93486, Note_on_c, 0, 76, 0
2, 93645, Note_on_c, 0, 62, 0
2, 93662, Note_on_c, 0, 57, 61
2, 93857, Note_on_c, 0, 50, 67
2, 93878, Note_on_c, 0, 57, 0
2, 94039, Note_on_c, 0, 81, 0
2, 94049, Note_on_c, 0, 80, 79
2, 94057, Note_on_c, 0, 50, 0
2, 94062, Note_on_c, 0, 53, 59
2, 94071, Control_c, 0, 64, 45
2, 94086, Control_c, 0, 64, 77
2, 94102, Control_c, 0, 64, 127
2, 94168, Note_on_c, 0, 80, 0
2, 94254, Control_c, 0, 64, 103
2, 94269, Control_c, 0, 64, 74
2, 94275, Note_on_c, 0, 79, 80
2, 94284, Control_c, 0, 64, 56
2, 94286, Note_on_c, 0, 47, 51
2, 94300, Control_c, 0, 64, 0
2, 94300, Control_c, 0, 67, 11
2, 94310, Note_on_c, 0, 53, 0
2, 94314, Control_c, 0, 67, 18
2, 94329, Control_c, 0, 67, 22
2, 94333, Note_on_c, 0, 77, 0
2, 94344, Control_c, 0, 67, 25
2, 94359, Control_c, 0, 67, 25
2, 94404, Control_c, 0, 67, 25
2, 94420, Control_c, 0, 67, 23
2, 94435, Control_c, 0, 67, 22
2, 94450, Control_c, 0, 67, 21
2, 94453, Note_on_c, 0, 47, 0
2, 94462, Note_on_c, 0, 77, 62
2, 94463, Note_on_c, 0, 55, 61
2, 94466, Control_c, 0, 67, 20
2, 94480, Control_c, 0, 67, 20
2, 94496, Control_c, 0, 67, 19
2, 94526, Control_c, 0, 67, 19
2, 94542, Control_c, 0, 67, 18
2, 94557, Control_c, 0, 67, 18
2, 94633, Control_c, 0, 67, 17
2, 94650, Note_on_c, 0, 76, 65
2, 94654, Note_on_c, 0, 57, 67
2, 94661, Note_on_c, 0, 55, 0
2, 94672, Note_on_c, 0, 77, 0
2, 94853, Note_on_c, 0, 59, 63
2, 94853, Note_on_c, 0, 74, 68
2, 94858, Note_on_c, 0, 57, 0
2, 94858, Note_on_c, 0, 76, 0
2, 94978, Control_c, 0, 67, 17
2, 95049, Note_on_c, 0, 76, 59
2, 95067, Note_on_c, 0, 60, 50
2, 95069, Control_c, 0, 67, 16
2, 95074, Note_on_c, 0, 59, 0
2, 95082, Note_on_c, 0, 74, 0
2, 95244, Note_on_c, 0, 60, 0
2, 95251, Note_on_c, 0, 55, 67
2, 95311, Control_c, 0, 67, 17
2, 95419, Control_c, 0, 67, 17
2, 95440, Note_on_c, 0, 48, 67
2, 95449, Note_on_c, 0, 55, 0
2, 95479, Control_c, 0, 67, 18
2, 95495, Control_c, 0, 67, 18
2, 95510, Control_c, 0, 67, 19
2, 95541, Note_on_c, 0, 79, 0
2, 95579, Control_c, 0, 67, 19
2, 95593, Control_c, 0, 67, 20
2, 95641, Note_on_c, 0, 79, 83
2, 95642, Note_on_c, 0, 48, 0
2, 95651, Note_on_c, 0, 52, 62
2, 95776, Control_c, 0, 67, 19
2, 95853, Control_c, 0, 67, 19
2, 95897, Control_c, 0, 67, 18
2, 95908, Note_on_c, 0, 78, 80
2, 95925, Note_on_c, 0, 45, 58
2, 95926, Control_c, 0, 67, 18
2, 95942, Control_c, 0, 67, 17
2, 95961, Note_on_c, 0, 79, 0
2, 95984, Note_on_c, 0, 76, 0
2, 95997, Note_on_c, 0, 52, 0
2, 96033, Control_c, 0, 67, 17
2, 96109, Control_c, 0, 67, 16
2, 96149, Note_on_c, 0, 75, 63
2, 96186, Control_c, 0, 67, 16
2, 96231, Control_c, 0, 67, 15
2, 96262, Control_c, 0, 67, 15
2, 96315, Control_c, 0, 67, 14
2, 96331, Control_c, 0, 67, 14
2, 96345, Note_on_c, 0, 74, 75
2, 96348, Note_on_c, 0, 75, 0
2, 96351, Note_on_c, 0, 57, 69
2, 96361, Control_c, 0, 67, 13
2, 96391, Control_c, 0, 67, 13
2, 96422, Control_c, 0, 67, 12
2, 96436, Control_c, 0, 67, 12
2, 96467, Control_c, 0, 67, 11
2, 96482, Control_c, 0, 67, 11
2, 96513, Control_c, 0, 67, 9
2, 96522, Note_on_c, 0, 45, 0
2, 96526, Note_on_c, 0, 72, 78
2, 96529, Control_c, 0, 67, 0
2, 96530, Note_on_c, 0, 74, 0
2, 96589, Control_c, 0, 64, 44
2, 96604, Control_c, 0, 64, 52
2, 96620, Control_c, 0, 64, 47
2, 96635, Control_c, 0, 64, 32
2, 96638, Note_on_c, 0, 78, 0
2, 96650, Control_c, 0, 64, 0
2, 96730, Note_on_c, 0, 74, 83
2, 96737, Note_on_c, 0, 47, 61
2, 96765, Note_on_c, 0, 72, 0
2, 96782, Note_on_c, 0, 57, 0
2, 96914, Note_on_c, 0, 76, 83
2, 96917, Note_on_c, 0, 55, 66
2, 96938, Note_on_c, 0, 74, 0
2, 97161, Note_on_c, 0, 77, 80
2, 97195, Note_on_c, 0, 50, 56
2, 97199, Note_on_c, 0, 67, 59
2, 97219, Note_on_c, 0, 76, 0
2, 97280, Note_on_c, 0, 55, 0
2, 97379, Note_on_c, 0, 47, 0
2, 97390, Note_on_c, 0, 53, 62
2, 97426, Note_on_c, 0, 50, 0
2, 97577, Note_on_c, 0, 52, 60
2, 97581, Note_on_c, 0, 48, 56
2, 97586, Note_on_c, 0, 53, 0
2, 97774, Note_on_c, 0, 53, 73
2, 97812, Note_on_c, 0, 52, 0
2, 97965, Note_on_c, 0, 77, 0
2, 97966, Note_on_c, 0, 76, 80
2, 97973, Note_on_c, 0, 67, 0
2, 97981, Note_on_c, 0, 72, 71
2, 97993, Note_on_c, 0, 55, 48
2, 98024, Note_on_c, 0, 53, 0
2, 98155, Note_on_c, 0, 72, 0
2, 98155, Note_on_c, 0, 74, 83
2, 98183, Note_on_c, 0, 71, 52
2, 98188, Note_on_c, 0, 76, 0
2, 98386, Note_on_c, 0, 76, 73
2, 98400, Note_on_c, 0, 72, 73
2, 98422, Note_on_c, 0, 71, 0
2, 98424, Note_on_c, 0, 74, 0
2, 98635, Note_on_c, 0, 52, 57
2, 98673, Note_on_c, 0, 48, 0
2, 98839, Note_on_c, 0, 70, 73
2, 98854, Note_on_c, 0, 45, 57
2, 98876, Note_on_c, 0, 55, 0
2, 98882, Note_on_c, 0, 72, 0
2, 98931, Note_on_c, 0, 52, 0
2, 99070, Note_on_c, 0, 48, 65
2, 99116, Note_on_c, 0, 45, 0
2, 99151, Control_c, 0, 64, 64
2, 99166, Control_c, 0, 64, 80
2, 99182, Control_c, 0, 64, 127
2, 99364, Control_c, 0, 64, 90
2, 99369, Note_on_c, 0, 69, 67
2, 99387, Control_c, 0, 64, 71
2, 99391, Note_on_c, 0, 41, 57
2, 99402, Control_c, 0, 64, 62
2, 99418, Control_c, 0, 64, 0
2, 99419, Note_on_c, 0, 70, 0
2, 99430, Note_on_c, 0, 76, 0
2, 99437, Note_on_c, 0, 48, 0
2, 99639, Note_on_c, 0, 76, 65
2, 99643, Note_on_c, 0, 48, 59
2, 99727, Note_on_c, 0, 41, 0
2, 99836, Note_on_c, 0, 50, 63
2, 99840, Note_on_c, 0, 74, 76
2, 99883, Note_on_c, 0, 48, 0
2, 99886, Note_on_c, 0, 76, 0
2, 100023, Note_on_c, 0, 72, 82
2, 100026, Note_on_c, 0, 50, 0
2, 100027, Note_on_c, 0, 52, 63
2, 100036, Note_on_c, 0, 74, 0
2, 100226, Note_on_c, 0, 74, 84
2, 100229, Note_on_c, 0, 53, 65
2, 100257, Note_on_c, 0, 72, 0
2, 100262, Note_on_c, 0, 52, 0
2, 100411, Note_on_c, 0, 77, 79
2, 100412, Note_on_c, 0, 57, 68
2, 100414, Note_on_c, 0, 74, 0
2, 100489, Note_on_c, 0, 69, 0
2, 100598, Note_on_c, 0, 57, 0
2, 100621, Note_on_c, 0, 81, 84
2, 100634, Note_on_c, 0, 62, 63
2, 100663, Note_on_c, 0, 77, 0
2, 100816, Note_on_c, 0, 72, 83
2, 100822, Control_c, 0, 64, 63
2, 100831, Note_on_c, 0, 69, 64
2, 100837, Control_c, 0, 64, 72
2, 100843, Note_on_c, 0, 81, 0
2, 100852, Control_c, 0, 64, 115
2, 100868, Control_c, 0, 64, 127
2, 100930, Note_on_c, 0, 72, 0
2, 100978, Note_on_c, 0, 69, 0
2, 101080, Note_on_c, 0, 71, 79
2, 101103, Control_c, 0, 64, 81
2, 101110, Note_on_c, 0, 67, 61
2, 101118, Control_c, 0, 64, 64
2, 101133, Control_c, 0, 64, 0
2, 101180, Note_on_c, 0, 62, 0
2, 101286, Note_on_c, 0, 57, 60
2, 101317, Note_on_c, 0, 53, 0
2, 101442, Note_on_c, 0, 67, 0
2, 101475, Note_on_c, 0, 55, 71
2, 101491, Note_on_c, 0, 57, 0
2, 101666, Note_on_c, 0, 53, 75
2, 101701, Note_on_c, 0, 55, 0
2, 101863, Note_on_c, 0, 72, 88
2, 101888, Note_on_c, 0, 67, 61
2, 101894, Note_on_c, 0, 71, 0
2, 101897, Note_on_c, 0, 52, 66
2, 101901, Note_on_c, 0, 64, 57
2, 101910, Note_on_c, 0, 53, 0
2, 102071, Note_on_c, 0, 52, 0
2, 102072, Note_on_c, 0, 55, 66
2, 102284, Note_on_c, 0, 48, 65
2, 102372, Note_on_c, 0, 55, 0
2, 102515, Note_on_c, 0, 52, 66
2, 102578, Note_on_c, 0, 48, 0
2, 102657, Note_on_c, 0, 67, 0
2, 102809, Note_on_c, 0, 43, 64
2, 102852, Note_on_c, 0, 64, 0
2, 102904, Note_on_c, 0, 52, 0
2, 103033, Note_on_c, 0, 67, 59
2, 103060, Note_on_c, 0, 52, 45
2, 103066, Control_c, 0, 67, 8
2, 103081, Control_c, 0, 67, 15
2, 103097, Control_c, 0, 67, 20
2, 103111, Control_c, 0, 67, 23
2, 103126, Control_c, 0, 67, 25
2, 103142, Control_c, 0, 67, 26
2, 103156, Control_c, 0, 67, 27
2, 103256, Control_c, 0, 67, 26
2, 103268, Note_on_c, 0, 65, 64
2, 103271, Control_c, 0, 67, 26
2, 103275, Note_on_c, 0, 50, 49
2, 103275, Note_on_c, 0, 52, 0
2, 103301, Note_on_c, 0, 67, 0
2, 103347, Control_c, 0, 67, 25
2, 103362, Control_c, 0, 67, 25
2, 103377, Control_c, 0, 67, 24
2, 103452, Control_c, 0, 67, 23
2, 103468, Control_c, 0, 67, 23
2, 103496, Note_on_c, 0, 64, 59
2, 103497, Note_on_c, 0, 48, 52
2, 103498, Control_c, 0, 67, 22
2, 103502, Note_on_c, 0, 65, 0
2, 103526, Note_on_c, 0, 50, 0
2, 103574, Control_c, 0, 67, 22
2, 103650, Control_c, 0, 67, 21
2, 103682, Control_c, 0, 67, 21
2, 103746, Note_on_c, 0, 62, 60
2, 103764, Note_on_c, 0, 55, 49
2, 103769, Note_on_c, 0, 64, 0
2, 103805, Note_on_c, 0, 48, 0
2, 103865, Control_c, 0, 67, 20
2, 103894, Control_c, 0, 67, 20
2, 103940, Control_c, 0, 67, 19
2, 104021, Note_on_c, 0, 64, 52
2, 104047, Note_on_c, 0, 62, 0
2, 104100, Control_c, 0, 67, 19
2, 104145, Control_c, 0, 67, 18
2, 104206, Control_c, 0, 67, 18
2, 104222, Control_c, 0, 67, 17
2, 104237, Control_c, 0, 67, 17
2, 104267, Control_c, 0, 67, 16
2, 104328, Control_c, 0, 67, 16
2, 104334, Note_on_c, 0, 65, 55
2, 104355, Note_on_c, 0, 64, 0
2, 104434, Control_c, 0, 67, 16
2, 104465, Control_c, 0, 67, 17
2, 104480, Control_c, 0, 67, 17
2, 104497, Control_c, 0, 67, 18
2, 104571, Control_c, 0, 67, 18
2, 104643, Note_on_c, 0, 71, 64
2, 104678, Control_c, 0, 64, 39
2, 104684, Note_on_c, 0, 72, 0
2, 104693, Control_c, 0, 64, 66
2, 104709, Control_c, 0, 64, 93
2, 104713, Note_on_c, 0, 43, 0
2, 104724, Control_c, 0, 64, 127
2, 104739, Control_c, 0, 67, 18
2, 104807, Control_c, 0, 67, 17
2, 104883, Control_c, 0, 67, 17
2, 104899, Control_c, 0, 67, 16
2, 105163, Note_on_c, 0, 72, 68
2, 105191, Note_on_c, 0, 48, 51
2, 105217, Control_c, 0, 64, 85
2, 105232, Control_c, 0, 64, 59
2, 105232, Control_c, 0, 67, 17
2, 105247, Control_c, 0, 64, 0
2, 105247, Control_c, 0, 67, 17
2, 105262, Control_c, 0, 67, 18
2, 105267, Note_on_c, 0, 71, 0
2, 105273, Note_on_c, 0, 65, 0
2, 105277, Control_c, 0, 67, 20
2, 105292, Control_c, 0, 67, 20
2, 105308, Control_c, 0, 67, 21
2, 105324, Control_c, 0, 67, 22
2, 105340, Control_c, 0, 67, 24
2, 105355, Control_c, 0, 67, 26
2, 105369, Control_c, 0, 67, 27
2, 105385, Control_c, 0, 67, 28
2, 105400, Control_c, 0, 67, 30
2, 105414, Control_c, 0, 67, 32
2, 105430, Control_c, 0, 67, 42
2, 105445, Control_c, 0, 67, 56
2, 105461, Control_c, 0, 67, 78
2, 105476, Control_c, 0, 67, 99
2, 105491, Control_c, 0, 67, 115
2, 105506, Control_c, 0, 67, 125
2, 105529, Control_c, 0, 67, 127
2, 105647, Note_on_c, 0, 65, 50
2, 105870, Note_on_c, 0, 64, 55
2, 105884, Note_on_c, 0, 65, 0
2, 106081, Note_on_c, 0, 62, 57
2, 106091, Note_on_c, 0, 64, 0
2, 106290, Note_on_c, 0, 62, 0
2, 106299, Note_on_c, 0, 64, 55
2, 106499, Note_on_c, 0, 67, 52
2, 106534, Note_on_c, 0, 64, 0
2, 106718, Note_on_c, 0, 60, 49
2, 106724, Note_on_c, 0, 67, 0
2, 106943, Note_on_c, 0, 64, 50
2, 106968, Note_on_c, 0, 60, 0
2, 107186, Note_on_c, 0, 64, 0
2, 107218, Control_c, 0, 64, 44
2, 107225, Note_on_c, 0, 57, 46
2, 107233, Control_c, 0, 64, 54
2, 107247, Control_c, 0, 64, 59
2, 107262, Note_on_c, 0, 72, 0
2, 107263, Control_c, 0, 64, 62
2, 107278, Control_c, 0, 64, 64
2, 107293, Control_c, 0, 64, 65
2, 107309, Control_c, 0, 64, 66
2, 107323, Control_c, 0, 64, 67
2, 107339, Control_c, 0, 64, 66
2, 107354, Control_c, 0, 64, 65
2, 107364, Note_on_c, 0, 55, 0
2, 107369, Control_c, 0, 64, 64
2, 107385, Control_c, 0, 64, 63
2, 107400, Control_c, 0, 64, 60
2, 107416, Control_c, 0, 64, 53
2, 107431, Control_c, 0, 64, 20
2, 107445, Control_c, 0, 64, 0
2, 107454, Note_on_c, 0, 72, 57
2, 107673, Note_on_c, 0, 74, 65
2, 107682, Note_on_c, 0, 53, 38
2, 107705, Note_on_c, 0, 72, 0
2, 107886, Note_on_c, 0, 76, 63
2, 107902, Note_on_c, 0, 52, 43
2, 107905, Note_on_c, 0, 53, 0
2, 107930, Note_on_c, 0, 74, 0
2, 108080, Note_on_c, 0, 52, 0
2, 108089, Note_on_c, 0, 77, 71
2, 108108, Note_on_c, 0, 50, 45
2, 108111, Note_on_c, 0, 76, 0
2, 108290, Note_on_c, 0, 81, 71
2, 108309, Note_on_c, 0, 52, 45
2, 108310, Note_on_c, 0, 50, 0
2, 108318, Note_on_c, 0, 77, 0
2, 108514, Note_on_c, 0, 74, 68
2, 108532, Note_on_c, 0, 81, 0
2, 108534, Note_on_c, 0, 53, 45
2, 108534, Note_on_c, 0, 57, 0
2, 108573, Note_on_c, 0, 52, 0
2, 108752, Control_c, 0, 64, 57
2, 108752, Note_on_c, 0, 77, 69
2, 108767, Control_c, 0, 64, 64
2, 108771, Note_on_c, 0, 74, 0
2, 108783, Control_c, 0, 64, 68
2, 108798, Control_c, 0, 64, 78
2, 108813, Control_c, 0, 64, 127
2, 108860, Note_on_c, 0, 77, 0
2, 109093, Note_on_c, 0, 55, 41
2, 109157, Note_on_c, 0, 70, 72
2, 109212, Control_c, 0, 64, 86
2, 109227, Control_c, 0, 64, 69
2, 109243, Control_c, 0, 64, 49
2, 109258, Control_c, 0, 64, 0
2, 109482, Note_on_c, 0, 69, 41
2, 109698, Note_on_c, 0, 67, 49
2, 109709, Note_on_c, 0, 69, 0
2, 109722, Note_on_c, 0, 52, 30
2, 109752, Note_on_c, 0, 53, 0
2, 109921, Note_on_c, 0, 65, 47
2, 109925, Note_on_c, 0, 67, 0
2, 109937, Note_on_c, 0, 50, 40
2, 109948, Note_on_c, 0, 52, 0
2, 110160, Note_on_c, 0, 67, 53
2, 110166, Note_on_c, 0, 52, 49
2, 110178, Note_on_c, 0, 50, 0
2, 110212, Note_on_c, 0, 65, 0
2, 110245, Note_on_c, 0, 70, 0
2, 110395, Note_on_c, 0, 70, 58
2, 110405, Note_on_c, 0, 55, 0
2, 110407, Note_on_c, 0, 53, 45
2, 110459, Note_on_c, 0, 67, 0
2, 110672, Note_on_c, 0, 53, 0
2, 110679, Note_on_c, 0, 55, 41
2, 110682, Note_on_c, 0, 64, 47
2, 110971, Note_on_c, 0, 67, 58
2, 111033, Control_c, 0, 64, 62
2, 111037, Note_on_c, 0, 64, 0
2, 111040, Note_on_c, 0, 70, 0
2, 111048, Control_c, 0, 64, 75
2, 111064, Control_c, 0, 64, 127
2, 111122, Note_on_c, 0, 55, 0
2, 111276, Control_c, 0, 64, 115
2, 111291, Control_c, 0, 64, 84
2, 111293, Note_on_c, 0, 60, 51
2, 111306, Control_c, 0, 64, 70
2, 111319, Note_on_c, 0, 57, 36
2, 111321, Control_c, 0, 64, 63
2, 111336, Control_c, 0, 64, 39
2, 111340, Note_on_c, 0, 53, 41
2, 111351, Control_c, 0, 64, 0
2, 111458, Control_c, 0, 64, 46
2, 111473, Control_c, 0, 64, 64
2, 111477, Note_on_c, 0, 67, 0
2, 111489, Control_c, 0, 64, 71
2, 111504, Control_c, 0, 64, 88
2, 111519, Control_c, 0, 64, 115
2, 111534, Control_c, 0, 64, 99
2, 111549, Control_c, 0, 64, 78
2, 111558, Note_on_c, 0, 52, 0
2, 111565, Control_c, 0, 64, 63
2, 111580, Control_c, 0, 64, 0
2, 111601, Note_on_c, 0, 64, 54
2, 111641, Control_c, 0, 64, 57
2, 111656, Control_c, 0, 64, 66
2, 111679, Control_c, 0, 64, 76
2, 111694, Control_c, 0, 64, 127
2, 111710, Note_on_c, 0, 57, 0
2, 111861, Control_c, 0, 64, 86
2, 111872, Note_on_c, 0, 65, 63
2, 111878, Control_c, 0, 64, 68
2, 111887, Note_on_c, 0, 55, 48
2, 111893, Control_c, 0, 64, 58
2, 111898, Note_on_c, 0, 52, 44
2, 111907, Control_c, 0, 64, 0
2, 111912, Note_on_c, 0, 64, 0
2, 111952, Note_on_c, 0, 53, 0
2, 112162, Note_on_c, 0, 67, 68
2, 112192, Note_on_c, 0, 65, 0
2, 112529, Note_on_c, 0, 69, 58
2, 112568, Note_on_c, 0, 50, 35
2, 112578, Note_on_c, 0, 53, 39
2, 112600, Note_on_c, 0, 67, 0
2, 112640, Note_on_c, 0, 52, 0
2, 112650, Note_on_c, 0, 60, 0
2, 112655, Note_on_c, 0, 55, 0
2, 112897, Note_on_c, 0, 65, 50
2, 113331, Note_on_c, 0, 65, 0
2, 113371, Note_on_c, 0, 62, 41
2, 113396, Note_on_c, 0, 56, 45
2, 113906, Note_on_c, 0, 71, 54
2, 113958, Note_on_c, 0, 69, 0
2, 114016, Note_on_c, 0, 62, 0
2, 114084, Control_c, 0, 64, 25
2, 114100, Control_c, 0, 64, 57
2, 114115, Control_c, 0, 64, 64
2, 114130, Control_c, 0, 64, 71
2, 114145, Control_c, 0, 64, 127
2, 114210, Note_on_c, 0, 53, 0
2, 114213, Note_on_c, 0, 48, 0
2, 114270, Note_on_c, 0, 56, 0
2, 114381, Note_on_c, 0, 50, 0
2, 114732, Note_on_c, 0, 71, 0
2, 115162, Note_on_c, 0, 72, 55
2, 115178, Note_on_c, 0, 67, 41
2, 115184, Note_on_c, 0, 48, 38
2, 115184, Note_on_c, 0, 64, 33
2, 115199, Note_on_c, 0, 60, 24
2, 115221, Note_on_c, 0, 52, 27
2, 115224, Note_on_c, 0, 55, 33
2, 115232, Control_c, 0, 64, 110
2, 115246, Control_c, 0, 64, 75
2, 115262, Control_c, 0, 64, 62
2, 115277, Control_c, 0, 64, 0
2, 115711, Control_c, 0, 67, 127
2, 115726, Control_c, 0, 67, 126
2, 115787, Control_c, 0, 67, 126
2, 115801, Control_c, 0, 67, 125
2, 115832, Control_c, 0, 67, 125
2, 115876, Control_c, 0, 67, 124
2, 115891, Control_c, 0, 67, 124
2, 115907, Control_c, 0, 67, 123
2, 115922, Control_c, 0, 67, 121
2, 115937, Control_c, 0, 67, 113
2, 115952, Control_c, 0, 67, 106
2, 115968, Control_c, 0, 67, 98
2, 115984, Control_c, 0, 67, 91
2, 115999, Control_c, 0, 67, 84
2, 116013, Control_c, 0, 67, 77
2, 116029, Control_c, 0, 67, 71
2, 116044, Control_c, 0, 67, 65
2, 116060, Control_c, 0, 67, 60
2, 116075, Control_c, 0, 67, 55
2, 116089, Control_c, 0, 67, 51
2, 116105, Control_c, 0, 67, 47
2, 116120, Control_c, 0, 67, 44
2, 116136, Control_c, 0, 67, 41
2, 116151, Control_c, 0, 67, 38
2, 116166, Control_c, 0, 67, 36
2, 116182, Control_c, 0, 67, 34
2, 116197, Control_c, 0, 67, 33
2, 116212, Control_c, 0, 67, 31
2, 116227, Control_c, 0, 67, 29
2, 116242, Control_c, 0, 67, 26
2, 116258, Control_c, 0, 67, 24
2, 116280, Control_c, 0, 67, 22
2, 116295, Control_c, 0, 67, 20
2, 116310, Control_c, 0, 67, 18
2, 116325, Control_c, 0, 67, 16
2, 116341, Control_c, 0, 67, 15
2, 116356, Control_c, 0, 67, 13
2, 116371, Control_c, 0, 67, 12
2, 116387, Control_c, 0, 67, 11
2, 116402, Control_c, 0, 67, 10
2, 116417, Control_c, 0, 67, 9
2, 116432, Control_c, 0, 67, 8
2, 116447, Control_c, 0, 67, 0
2, 118120, Control_c, 0, 64, 12
2, 118135, Control_c, 0, 64, 29
2, 118151, Control_c, 0, 64, 46
2, 118166, Control_c, 0, 64, 56
2, 118182, Control_c, 0, 64, 61
2, 118196, Control_c, 0, 64, 62
2, 118211, Control_c, 0, 64, 63
2, 118227, Control_c, 0, 64, 63
2, 118242, Control_c, 0, 64, 64
2, 118258, Control_c, 0, 64, 65
2, 118273, Control_c, 0, 64, 67
2, 118288, Control_c, 0, 64, 70
2, 118304, Control_c, 0, 64, 72
2, 118318, Control_c, 0, 64, 75
2, 118333, Control_c, 0, 64, 79
2, 118349, Control_c, 0, 64, 81
2, 118364, Control_c, 0, 64, 84
2, 118380, Control_c, 0, 64, 87
2, 118394, Control_c, 0, 64, 94
2, 118409, Control_c, 0, 64, 109
2, 118426, Control_c, 0, 64, 127
2, 118475, Note_on_c, 0, 60, 0
2, 118545, Note_on_c, 0, 64, 0
2, 118631, Control_c, 0, 64, 118
2, 118632, Note_on_c, 0, 67, 0
2, 118646, Control_c, 0, 64, 110
2, 118661, Control_c, 0, 64, 106
2, 118670, Note_on_c, 0, 72, 0
2, 118676, Control_c, 0, 64, 101
2, 118691, Control_c, 0, 64, 97
2, 118704, Note_on_c, 0, 55, 0
2, 118707, Control_c, 0, 64, 94
2, 118722, Control_c, 0, 64, 90
2, 118738, Control_c, 0, 64, 86
2, 118740, Note_on_c, 0, 52, 0
2, 118748, Note_on_c, 0, 48, 0
2, 118753, Control_c, 0, 64, 82
2, 118767, Control_c, 0, 64, 76
2, 118783, Control_c, 0, 64, 70
2, 118798, Control_c, 0, 64, 64
2, 118813, Control_c, 0, 64, 53
2, 118829, Control_c, 0, 64, 0
2, 119884, Control_c, 0, 64, 38
2, 119900, Control_c, 0, 64, 53
2, 119915, Control_c, 0, 64, 60
2, 119929, Control_c, 0, 64, 62
2, 119945, Control_c, 0, 64, 62
2, 120021, Control_c, 0, 64, 62
2, 120036, Control_c, 0, 64, 61
2, 120051, Control_c, 0, 64, 61
2, 120083, Control_c, 0, 64, 60
2, 120098, Control_c, 0, 64, 58
2, 120120, Control_c, 0, 64, 48
2, 120135, Control_c, 0, 64, 0
2, 120427,End_track
0, 0, End_of_file
