0, 0, Header, 1, 2, 480
1, 0, Start_track
1, 0, Tempo, 500000
1, 0, Time_signature, 4, 2, 24, 8
1, 1, End_track
2,0,Start_track
2,0, Note_on_c, 0, 67, 86
2,98, Note_on_c, 0, 65, 83
2,109, Note_on_c, 0, 67, 0
2,244, Note_on_c, 0, 67, 90
2,260, Note_on_c, 0, 65, 0
2,294, Note_on_c, 0, 67, 0
2,532, Note_on_c, 0, 60, 79
2,565, Note_on_c, 0, 60, 0
2,772, Note_on_c, 0, 69, 76
2,806, Note_on_c, 0, 69, 0
2,817, Note_on_c, 0, 67, 79
2,850, Note_on_c, 0, 69, 101
2,894, Note_on_c, 0, 67, 0
2,1385, Note_on_c, 0, 67, 63
2,1399, Note_on_c, 0, 69, 0
2,1837, Note_on_c, 0, 67, 0
2,2156, Note_on_c, 0, 65, 68
2,2282, Note_on_c, 0, 64, 79
2,2282, Note_on_c, 0, 65, 0
2,2405, Note_on_c, 0, 65, 78
2,2451, Note_on_c, 0, 64, 0
2,2528, Note_on_c, 0, 67, 79
2,2568, Note_on_c, 0, 65, 0
2,2651, Note_on_c, 0, 64, 81
2,2669, Note_on_c, 0, 67, 0
2,2775, Note_on_c, 0, 65, 75
2,2802, Note_on_c, 0, 64, 0
2,2915, Note_on_c, 0, 62, 81
2,2919, Note_on_c, 0, 65, 0
2,3049, Note_on_c, 0, 65, 78
2,3057, Note_on_c, 0, 62, 0
2,3185, Note_on_c, 0, 64, 87
2,3186, Note_on_c, 0, 65, 0
2,3309, Note_on_c, 0, 65, 82
2,3359, Note_on_c, 0, 64, 0
2,3445, Note_on_c, 0, 67, 85
2,3488, Note_on_c, 0, 65, 0
2,3572, Note_on_c, 0, 69, 85
2,3609, Note_on_c, 0, 67, 0
2,3699, Note_on_c, 0, 65, 78
2,3706, Note_on_c, 0, 69, 0
2,3824, Note_on_c, 0, 65, 0
2,3833, Note_on_c, 0, 67, 74
2,3965, Note_on_c, 0, 64, 75
2,3965, Note_on_c, 0, 67, 0
2,4075, Note_on_c, 0, 64, 0
2,4091, Note_on_c, 0, 62, 63
2,4219, Note_on_c, 0, 62, 0
2,4228, Note_on_c, 0, 64, 68
2,4232, Note_on_c, 0, 72, 100
2,4343, Note_on_c, 0, 64, 0
2,4348, Note_on_c, 0, 71, 92
2,4367, Note_on_c, 0, 65, 55
2,4376, Note_on_c, 0, 72, 0
2,4461, Note_on_c, 0, 65, 0
2,4483, Note_on_c, 0, 72, 93
2,4494, Note_on_c, 0, 64, 63
2,4498, Note_on_c, 0, 71, 0
2,4522, Note_on_c, 0, 72, 0
2,4610, Note_on_c, 0, 64, 0
2,4634, Note_on_c, 0, 65, 51
2,4739, Note_on_c, 0, 65, 0
2,4753, Note_on_c, 0, 67, 92
2,4777, Note_on_c, 0, 62, 63
2,4812, Note_on_c, 0, 67, 0
2,4877, Note_on_c, 0, 62, 0
2,4898, Note_on_c, 0, 64, 57
2,5001, Note_on_c, 0, 76, 86
2,5027, Note_on_c, 0, 64, 0
2,5038, Note_on_c, 0, 60, 63
2,5038, Note_on_c, 0, 74, 83
2,5038, Note_on_c, 0, 76, 0
2,5093, Note_on_c, 0, 76, 98
2,5136, Note_on_c, 0, 60, 0
2,5136, Note_on_c, 0, 74, 0
2,5139, Note_on_c, 0, 59, 69
2,5289, Note_on_c, 0, 60, 63
2,5296, Note_on_c, 0, 59, 0
2,5418, Note_on_c, 0, 60, 0
2,5426, Note_on_c, 0, 62, 63
2,5547, Note_on_c, 0, 62, 0
2,5567, Note_on_c, 0, 60, 65
2,5589, Note_on_c, 0, 74, 70
2,5646, Note_on_c, 0, 76, 0
2,5710, Note_on_c, 0, 62, 59
2,5719, Note_on_c, 0, 60, 0
2,5837, Note_on_c, 0, 59, 62
2,5838, Note_on_c, 0, 62, 0
2,5962, Note_on_c, 0, 60, 66
2,5962, Note_on_c, 0, 74, 0
2,5966, Note_on_c, 0, 59, 0
2,6097, Note_on_c, 0, 60, 0
2,6102, Note_on_c, 0, 57, 72
2,6229, Note_on_c, 0, 57, 0
2,6234, Note_on_c, 0, 59, 68
2,6361, Note_on_c, 0, 72, 90
2,6368, Note_on_c, 0, 60, 71
2,6399, Note_on_c, 0, 59, 0
2,6491, Note_on_c, 0, 71, 88
2,6503, Note_on_c, 0, 62, 83
2,6516, Note_on_c, 0, 72, 0
2,6533, Note_on_c, 0, 60, 0
2,6619, Note_on_c, 0, 72, 95
2,6634, Note_on_c, 0, 64, 85
2,6638, Note_on_c, 0, 62, 0
2,6686, Note_on_c, 0, 71, 0
2,6744, Note_on_c, 0, 74, 86
2,6751, Note_on_c, 0, 66, 81
2,6758, Note_on_c, 0, 64, 0
2,6778, Note_on_c, 0, 72, 0
2,6886, Note_on_c, 0, 67, 93
2,6892, Note_on_c, 0, 71, 88
2,6897, Note_on_c, 0, 66, 0
2,6933, Note_on_c, 0, 74, 0
2,7025, Note_on_c, 0, 72, 88
2,7059, Note_on_c, 0, 71, 0
2,7157, Note_on_c, 0, 69, 91
2,7170, Note_on_c, 0, 72, 0
2,7289, Note_on_c, 0, 72, 89
2,7330, Note_on_c, 0, 69, 0
2,7421, Note_on_c, 0, 71, 93
2,7425, Note_on_c, 0, 66, 65
2,7430, Note_on_c, 0, 67, 0
2,7439, Note_on_c, 0, 72, 0
2,7520, Note_on_c, 0, 66, 0
2,7538, Note_on_c, 0, 64, 73
2,7546, Note_on_c, 0, 72, 98
2,7586, Note_on_c, 0, 71, 0
2,7629, Note_on_c, 0, 66, 64
2,7633, Note_on_c, 0, 64, 0
2,7655, Note_on_c, 0, 74, 84
2,7666, Note_on_c, 0, 66, 0
2,7671, Note_on_c, 0, 67, 69
2,7727, Note_on_c, 0, 72, 0
2,7741, Note_on_c, 0, 66, 75
2,7745, Note_on_c, 0, 67, 0
2,7776, Note_on_c, 0, 76, 84
2,7800, Note_on_c, 0, 74, 0
2,7926, Note_on_c, 0, 72, 79
2,7945, Note_on_c, 0, 76, 0
2,8023, Note_on_c, 0, 66, 0
2,8035, Note_on_c, 0, 72, 0
2,8048, Note_on_c, 0, 74, 77
2,8198, Note_on_c, 0, 71, 65
2,8198, Note_on_c, 0, 74, 0
2,8209, Note_on_c, 0, 67, 53
2,8320, Note_on_c, 0, 71, 0
2,8340, Note_on_c, 0, 69, 51
2,8462, Note_on_c, 0, 55, 82
2,8469, Note_on_c, 0, 71, 64
2,8536, Note_on_c, 0, 69, 0
2,8581, Note_on_c, 0, 53, 82
2,8581, Note_on_c, 0, 71, 0
2,8585, Note_on_c, 0, 55, 0
2,8598, Note_on_c, 0, 72, 63
2,8712, Note_on_c, 0, 53, 0
2,8721, Note_on_c, 0, 55, 98
2,8725, Note_on_c, 0, 71, 71
2,8725, Note_on_c, 0, 72, 0
2,8775, Note_on_c, 0, 55, 0
2,8848, Note_on_c, 0, 71, 0
2,8864, Note_on_c, 0, 72, 64
2,8956, Note_on_c, 0, 72, 0
2,8998, Note_on_c, 0, 48, 87
2,8998, Note_on_c, 0, 69, 58
2,9031, Note_on_c, 0, 48, 0
2,9102, Note_on_c, 0, 67, 0
2,9116, Note_on_c, 0, 71, 64
2,9155, Note_on_c, 0, 69, 0
2,9263, Note_on_c, 0, 57, 92
2,9263, Note_on_c, 0, 72, 78
2,9267, Note_on_c, 0, 71, 0
2,9306, Note_on_c, 0, 55, 80
2,9315, Note_on_c, 0, 57, 0
2,9357, Note_on_c, 0, 57, 93
2,9395, Note_on_c, 0, 64, 64
2,9411, Note_on_c, 0, 55, 0
2,9562, Note_on_c, 0, 65, 60
2,9651, Note_on_c, 0, 72, 0
2,9716, Note_on_c, 0, 69, 56
2,9720, Note_on_c, 0, 64, 0
2,9825, Note_on_c, 0, 55, 79
2,9849, Note_on_c, 0, 57, 0
2,9856, Note_on_c, 0, 70, 69
2,9869, Note_on_c, 0, 69, 0
2,9881, Note_on_c, 0, 65, 0
2,9990, Note_on_c, 0, 62, 56
2,10082, Note_on_c, 0, 70, 0
2,10117, Note_on_c, 0, 64, 59
2,10128, Note_on_c, 0, 62, 0
2,10244, Note_on_c, 0, 67, 59
2,10265, Note_on_c, 0, 55, 0
2,10334, Note_on_c, 0, 64, 0
2,10356, Note_on_c, 0, 67, 0
2,10380, Note_on_c, 0, 69, 57
2,10644, Note_on_c, 0, 53, 80
2,10644, Note_on_c, 0, 69, 0
2,10655, Note_on_c, 0, 62, 61
2,10760, Note_on_c, 0, 52, 86
2,10781, Note_on_c, 0, 53, 0
2,10897, Note_on_c, 0, 53, 92
2,10897, Note_on_c, 0, 67, 72
2,10897, Note_on_c, 0, 71, 79
2,10912, Note_on_c, 0, 62, 0
2,10936, Note_on_c, 0, 52, 0
2,11034, Note_on_c, 0, 55, 85
2,11084, Note_on_c, 0, 53, 0
2,11157, Note_on_c, 0, 72, 80
2,11162, Note_on_c, 0, 71, 0
2,11166, Note_on_c, 0, 52, 84
2,11195, Note_on_c, 0, 55, 0
2,11197, Note_on_c, 0, 67, 0
2,11295, Note_on_c, 0, 53, 76
2,11334, Note_on_c, 0, 52, 0
2,11434, Note_on_c, 0, 65, 80
2,11439, Note_on_c, 0, 50, 83
2,11451, Note_on_c, 0, 53, 0
2,11563, Note_on_c, 0, 69, 69
2,11567, Note_on_c, 0, 72, 0
2,11568, Note_on_c, 0, 53, 83
2,11584, Note_on_c, 0, 50, 0
2,11690, Note_on_c, 0, 69, 0
2,11699, Note_on_c, 0, 67, 74
2,11699, Note_on_c, 0, 72, 79
2,11703, Note_on_c, 0, 52, 88
2,11711, Note_on_c, 0, 53, 0
2,11728, Note_on_c, 0, 65, 0
2,11813, Note_on_c, 0, 69, 69
2,11817, Note_on_c, 0, 67, 0
2,11835, Note_on_c, 0, 53, 81
2,11876, Note_on_c, 0, 52, 0
2,11932, Note_on_c, 0, 69, 0
2,11969, Note_on_c, 0, 62, 72
2,11973, Note_on_c, 0, 55, 85
2,12014, Note_on_c, 0, 53, 0
2,12102, Note_on_c, 0, 57, 85
2,12142, Note_on_c, 0, 55, 0
2,12228, Note_on_c, 0, 72, 0
2,12232, Note_on_c, 0, 57, 0
2,12237, Note_on_c, 0, 53, 72
2,12237, Note_on_c, 0, 71, 64
2,12281, Note_on_c, 0, 62, 0
2,12350, Note_on_c, 0, 53, 0
2,12361, Note_on_c, 0, 55, 59
2,12442, Note_on_c, 0, 71, 0
2,12483, Note_on_c, 0, 55, 0
2,12496, Note_on_c, 0, 52, 61
2,12500, Note_on_c, 0, 60, 56
2,12500, Note_on_c, 0, 72, 68
2,12533, Note_on_c, 0, 60, 0
2,12563, Note_on_c, 0, 72, 0
2,12604, Note_on_c, 0, 52, 0
2,12632, Note_on_c, 0, 50, 48
2,12749, Note_on_c, 0, 50, 0
2,12772, Note_on_c, 0, 52, 54
2,12776, Note_on_c, 0, 79, 80
2,12882, Note_on_c, 0, 52, 0
2,12896, Note_on_c, 0, 77, 81
2,12900, Note_on_c, 0, 53, 55
2,12912, Note_on_c, 0, 79, 0
2,13006, Note_on_c, 0, 53, 0
2,13033, Note_on_c, 0, 79, 86
2,13035, Note_on_c, 0, 77, 0
2,13044, Note_on_c, 0, 52, 57
2,13064, Note_on_c, 0, 79, 0
2,13146, Note_on_c, 0, 52, 0
2,13178, Note_on_c, 0, 53, 52
2,13270, Note_on_c, 0, 53, 0
2,13305, Note_on_c, 0, 50, 49
2,13305, Note_on_c, 0, 72, 67
2,13323, Note_on_c, 0, 72, 0
2,13394, Note_on_c, 0, 50, 0
2,13434, Note_on_c, 0, 52, 51
2,13572, Note_on_c, 0, 52, 0
2,13576, Note_on_c, 0, 81, 68
2,13581, Note_on_c, 0, 53, 50
2,13698, Note_on_c, 0, 53, 0
2,13738, Note_on_c, 0, 52, 53
2,13856, Note_on_c, 0, 72, 62
2,13860, Note_on_c, 0, 53, 53
2,13871, Note_on_c, 0, 52, 0
2,13933, Note_on_c, 0, 81, 0
2,13957, Note_on_c, 0, 72, 0
2,13968, Note_on_c, 0, 71, 66
2,13973, Note_on_c, 0, 53, 0
2,13982, Note_on_c, 0, 55, 55
2,14078, Note_on_c, 0, 55, 0
2,14085, Note_on_c, 0, 71, 0
2,14105, Note_on_c, 0, 72, 69
2,14105, Note_on_c, 0, 79, 74
2,14121, Note_on_c, 0, 53, 56
2,14177, Note_on_c, 0, 72, 0
2,14234, Note_on_c, 0, 55, 57
2,14311, Note_on_c, 0, 53, 0
2,14365, Note_on_c, 0, 55, 0
2,14386, Note_on_c, 0, 52, 49
2,14386, Note_on_c, 0, 67, 64
2,14473, Note_on_c, 0, 67, 0
2,14488, Note_on_c, 0, 52, 0
2,14499, Note_on_c, 0, 53, 54
2,14649, Note_on_c, 0, 79, 0
2,14653, Note_on_c, 0, 78, 77
2,14660, Note_on_c, 0, 50, 63
2,14660, Note_on_c, 0, 53, 0
2,14660, Note_on_c, 0, 74, 65
2,14796, Note_on_c, 0, 50, 0
2,14796, Note_on_c, 0, 78, 0
2,14800, Note_on_c, 0, 74, 0
2,14805, Note_on_c, 0, 49, 60
2,14925, Note_on_c, 0, 81, 76
2,14941, Note_on_c, 0, 50, 69
2,14974, Note_on_c, 0, 49, 0
2,15040, Note_on_c, 0, 79, 84
2,15046, Note_on_c, 0, 50, 0
2,15056, Note_on_c, 0, 52, 71
2,15057, Note_on_c, 0, 81, 0
2,15159, Note_on_c, 0, 52, 0
2,15170, Note_on_c, 0, 54, 73
2,15181, Note_on_c, 0, 72, 86
2,15181, Note_on_c, 0, 79, 0
2,15181, Note_on_c, 0, 81, 88
2,15210, Note_on_c, 0, 72, 0
2,15243, Note_on_c, 0, 81, 0
2,15312, Note_on_c, 0, 55, 61
2,15327, Note_on_c, 0, 54, 0
2,15443, Note_on_c, 0, 74, 96
2,15450, Note_on_c, 0, 55, 0
2,15455, Note_on_c, 0, 52, 63
2,15507, Note_on_c, 0, 74, 0
2,15558, Note_on_c, 0, 54, 61
2,15572, Note_on_c, 0, 52, 0
2,15715, Note_on_c, 0, 83, 91
2,15720, Note_on_c, 0, 71, 91
2,15727, Note_on_c, 0, 55, 58
2,15747, Note_on_c, 0, 54, 0
2,15844, Note_on_c, 0, 55, 0
2,15873, Note_on_c, 0, 54, 56
2,15990, Note_on_c, 0, 74, 74
2,15992, Note_on_c, 0, 71, 0
2,16014, Note_on_c, 0, 55, 60
2,16101, Note_on_c, 0, 54, 0
2,16108, Note_on_c, 0, 72, 77
2,16108, Note_on_c, 0, 74, 0
2,16108, Note_on_c, 0, 83, 0
2,16117, Note_on_c, 0, 57, 72
2,16121, Note_on_c, 0, 55, 0
2,16205, Note_on_c, 0, 72, 0
2,16231, Note_on_c, 0, 57, 0
2,16238, Note_on_c, 0, 81, 82
2,16242, Note_on_c, 0, 74, 80
2,16250, Note_on_c, 0, 55, 69
2,16331, Note_on_c, 0, 74, 0
2,16372, Note_on_c, 0, 57, 70
2,16421, Note_on_c, 0, 55, 0
2,16511, Note_on_c, 0, 69, 80
2,16519, Note_on_c, 0, 53, 68
2,16520, Note_on_c, 0, 57, 0
2,16600, Note_on_c, 0, 69, 0
2,16643, Note_on_c, 0, 55, 73
2,16677, Note_on_c, 0, 53, 0
2,16768, Note_on_c, 0, 76, 79
2,16768, Note_on_c, 0, 80, 82
2,16777, Note_on_c, 0, 52, 76
2,16781, Note_on_c, 0, 81, 0
2,16785, Note_on_c, 0, 55, 0
2,16904, Note_on_c, 0, 76, 0
2,16908, Note_on_c, 0, 80, 0
2,16925, Note_on_c, 0, 50, 75
2,16938, Note_on_c, 0, 52, 0
2,17047, Note_on_c, 0, 83, 85
2,17063, Note_on_c, 0, 52, 83
2,17077, Note_on_c, 0, 50, 0
2,17172, Note_on_c, 0, 81, 80
2,17179, Note_on_c, 0, 54, 81
2,17201, Note_on_c, 0, 83, 0
2,17212, Note_on_c, 0, 52, 0
2,17304, Note_on_c, 0, 74, 92
2,17307, Note_on_c, 0, 83, 92
2,17311, Note_on_c, 0, 56, 87
2,17311, Note_on_c, 0, 81, 0
2,17348, Note_on_c, 0, 74, 0
2,17363, Note_on_c, 0, 54, 0
2,17369, Note_on_c, 0, 83, 0
2,17435, Note_on_c, 0, 57, 87
2,17460, Note_on_c, 0, 56, 0
2,17569, Note_on_c, 0, 76, 101
2,17577, Note_on_c, 0, 54, 81
2,17606, Note_on_c, 0, 57, 0
2,17631, Note_on_c, 0, 76, 0
2,17688, Note_on_c, 0, 56, 79
2,17745, Note_on_c, 0, 54, 0
2,17845, Note_on_c, 0, 72, 104
2,17845, Note_on_c, 0, 84, 95
2,17852, Note_on_c, 0, 57, 81
2,17886, Note_on_c, 0, 56, 0
2,17978, Note_on_c, 0, 56, 75
2,17982, Note_on_c, 0, 57, 0
2,18118, Note_on_c, 0, 57, 80
2,18133, Note_on_c, 0, 72, 0
2,18133, Note_on_c, 0, 76, 82
2,18189, Note_on_c, 0, 56, 0
2,18231, Note_on_c, 0, 76, 0
2,18244, Note_on_c, 0, 59, 77
2,18246, Note_on_c, 0, 74, 80
2,18261, Note_on_c, 0, 57, 0
2,18352, Note_on_c, 0, 74, 0
2,18384, Note_on_c, 0, 59, 0
2,18391, Note_on_c, 0, 57, 86
2,18395, Note_on_c, 0, 76, 84
2,18446, Note_on_c, 0, 76, 0
2,18519, Note_on_c, 0, 59, 78
2,18577, Note_on_c, 0, 57, 0
2,18661, Note_on_c, 0, 55, 77
2,18661, Note_on_c, 0, 81, 85
2,18670, Note_on_c, 0, 59, 0
2,18765, Note_on_c, 0, 81, 0
2,18793, Note_on_c, 0, 57, 81
2,18807, Note_on_c, 0, 55, 0
2,18921, Note_on_c, 0, 57, 0
2,18929, Note_on_c, 0, 54, 82
2,18929, Note_on_c, 0, 74, 90
2,18994, Note_on_c, 0, 84, 0
2,19060, Note_on_c, 0, 55, 81
2,19104, Note_on_c, 0, 54, 0
2,19192, Note_on_c, 0, 84, 92
2,19196, Note_on_c, 0, 52, 87
2,19207, Note_on_c, 0, 55, 0
2,19321, Note_on_c, 0, 54, 82
2,19350, Note_on_c, 0, 84, 0
2,19369, Note_on_c, 0, 52, 0
2,19456, Note_on_c, 0, 55, 83
2,19460, Note_on_c, 0, 83, 90
2,19544, Note_on_c, 0, 54, 0
2,19588, Note_on_c, 0, 83, 0
2,19603, Note_on_c, 0, 57, 85
2,19635, Note_on_c, 0, 55, 0
2,19726, Note_on_c, 0, 79, 88
2,19728, Note_on_c, 0, 59, 87
2,19769, Note_on_c, 0, 57, 0
2,19832, Note_on_c, 0, 79, 0
2,19861, Note_on_c, 0, 55, 77
2,19881, Note_on_c, 0, 59, 0
2,19992, Note_on_c, 0, 76, 89
2,20011, Note_on_c, 0, 60, 86
2,20040, Note_on_c, 0, 55, 0
2,20045, Note_on_c, 0, 74, 0
2,20137, Note_on_c, 0, 59, 81
2,20159, Note_on_c, 0, 60, 0
2,20268, Note_on_c, 0, 60, 91
2,20268, Note_on_c, 0, 72, 83
2,20311, Note_on_c, 0, 59, 0
2,20357, Note_on_c, 0, 72, 0
2,20385, Note_on_c, 0, 71, 81
2,20390, Note_on_c, 0, 62, 91
2,20419, Note_on_c, 0, 60, 0
2,20456, Note_on_c, 0, 71, 0
2,20528, Note_on_c, 0, 60, 98
2,20528, Note_on_c, 0, 78, 96
2,20540, Note_on_c, 0, 62, 0
2,20540, Note_on_c, 0, 69, 80
2,20549, Note_on_c, 0, 76, 0
2,20632, Note_on_c, 0, 69, 0
2,20660, Note_on_c, 0, 62, 94
2,20713, Note_on_c, 0, 60, 0
2,20799, Note_on_c, 0, 59, 97
2,20799, Note_on_c, 0, 78, 0
2,20804, Note_on_c, 0, 71, 101
2,20804, Note_on_c, 0, 79, 94
2,20833, Note_on_c, 0, 62, 0
2,20922, Note_on_c, 0, 60, 90
2,20962, Note_on_c, 0, 59, 0
2,20993, Note_on_c, 0, 71, 0
2,21064, Note_on_c, 0, 62, 98
2,21096, Note_on_c, 0, 60, 0
2,21340, Note_on_c, 0, 78, 85
2,21349, Note_on_c, 0, 69, 91
2,21412, Note_on_c, 0, 79, 0
2,21443, Note_on_c, 0, 78, 0
2,21455, Note_on_c, 0, 76, 79
2,21468, Note_on_c, 0, 67, 82
2,21477, Note_on_c, 0, 62, 0
2,21484, Note_on_c, 0, 69, 0
2,21584, Note_on_c, 0, 78, 82
2,21599, Note_on_c, 0, 69, 101
2,21603, Note_on_c, 0, 76, 0
2,21621, Note_on_c, 0, 67, 0
2,21653, Note_on_c, 0, 79, 80
2,21657, Note_on_c, 0, 78, 0
2,21718, Note_on_c, 0, 79, 0
2,21722, Note_on_c, 0, 78, 69
2,21788, Note_on_c, 0, 78, 0
2,21792, Note_on_c, 0, 79, 58
2,21839, Note_on_c, 0, 79, 0
2,21846, Note_on_c, 0, 78, 66
2,21863, Note_on_c, 0, 62, 58
2,21967, Note_on_c, 0, 79, 70
2,22005, Note_on_c, 0, 78, 0
2,22025, Note_on_c, 0, 79, 0
2,22042, Note_on_c, 0, 69, 0
2,22142, Note_on_c, 0, 55, 48
2,22160, Note_on_c, 0, 79, 64
2,22166, Note_on_c, 0, 71, 47
2,22174, Note_on_c, 0, 62, 0
2,22411, Note_on_c, 0, 55, 0
2,22436, Note_on_c, 0, 67, 51
2,22442, Note_on_c, 0, 76, 59
2,22442, Note_on_c, 0, 79, 0
2,22495, Note_on_c, 0, 71, 0
2,22531, Note_on_c, 0, 67, 0
2,22555, Note_on_c, 0, 65, 55
2,22674, Note_on_c, 0, 65, 0
2,22685, Note_on_c, 0, 67, 59
2,22691, Note_on_c, 0, 76, 0
2,22699, Note_on_c, 0, 73, 66
2,22704, Note_on_c, 0, 69, 40
2,22740, Note_on_c, 0, 69, 0
2,22790, Note_on_c, 0, 67, 0
2,22826, Note_on_c, 0, 69, 54
2,22916, Note_on_c, 0, 69, 0
2,22934, Note_on_c, 0, 73, 0
2,22952, Note_on_c, 0, 65, 51
2,22963, Note_on_c, 0, 74, 60
2,23087, Note_on_c, 0, 67, 58
2,23093, Note_on_c, 0, 65, 0
2,23226, Note_on_c, 0, 67, 0
2,23228, Note_on_c, 0, 64, 53
2,23354, Note_on_c, 0, 79, 64
2,23391, Note_on_c, 0, 74, 0
2,23475, Note_on_c, 0, 82, 68
2,23488, Note_on_c, 0, 79, 0
2,23502, Note_on_c, 0, 64, 0
2,23502, Note_on_c, 0, 67, 55
2,23595, Note_on_c, 0, 67, 0
2,23606, Note_on_c, 0, 81, 76
2,23613, Note_on_c, 0, 65, 60
2,23640, Note_on_c, 0, 82, 0
2,23744, Note_on_c, 0, 67, 67
2,23744, Note_on_c, 0, 79, 81
2,23759, Note_on_c, 0, 65, 0
2,23790, Note_on_c, 0, 81, 0
2,23869, Note_on_c, 0, 77, 81
2,23875, Note_on_c, 0, 79, 0
2,23879, Note_on_c, 0, 69, 62
2,23888, Note_on_c, 0, 67, 0
2,23951, Note_on_c, 0, 77, 0
2,23984, Note_on_c, 0, 69, 0
2,24004, Note_on_c, 0, 65, 62
2,24004, Note_on_c, 0, 76, 79
2,24120, Note_on_c, 0, 74, 74
2,24127, Note_on_c, 0, 76, 0
2,24131, Note_on_c, 0, 67, 60
2,24135, Note_on_c, 0, 65, 0
2,24157, Note_on_c, 0, 74, 0
2,24257, Note_on_c, 0, 64, 70
2,24257, Note_on_c, 0, 67, 0
2,24257, Note_on_c, 0, 73, 81
2,24285, Note_on_c, 0, 64, 0
2,24387, Note_on_c, 0, 67, 71
2,24510, Note_on_c, 0, 67, 0
2,24519, Note_on_c, 0, 73, 0
2,24529, Note_on_c, 0, 65, 81
2,24540, Note_on_c, 0, 62, 75
2,24540, Note_on_c, 0, 74, 77
2,24572, Note_on_c, 0, 62, 0
2,24622, Note_on_c, 0, 65, 0
2,24657, Note_on_c, 0, 67, 68
2,24720, Note_on_c, 0, 74, 0
2,24794, Note_on_c, 0, 53, 56
2,24794, Note_on_c, 0, 69, 76
2,24824, Note_on_c, 0, 67, 0
2,24829, Note_on_c, 0, 53, 0
2,24923, Note_on_c, 0, 70, 70
2,24962, Note_on_c, 0, 69, 0
2,25056, Note_on_c, 0, 70, 0
2,25063, Note_on_c, 0, 67, 68
2,25067, Note_on_c, 0, 57, 69
2,25067, Note_on_c, 0, 73, 73
2,25096, Note_on_c, 0, 57, 0
2,25175, Note_on_c, 0, 69, 69
2,25179, Note_on_c, 0, 67, 0
2,25184, Note_on_c, 0, 73, 0
2,25266, Note_on_c, 0, 69, 0
2,25314, Note_on_c, 0, 74, 89
2,25318, Note_on_c, 0, 50, 75
2,25318, Note_on_c, 0, 65, 79
2,25345, Note_on_c, 0, 65, 0
2,25350, Note_on_c, 0, 50, 0
2,25380, Note_on_c, 0, 74, 0
2,25451, Note_on_c, 0, 64, 96
2,25577, Note_on_c, 0, 65, 84
2,25584, Note_on_c, 0, 74, 90
2,25601, Note_on_c, 0, 64, 0
2,25709, Note_on_c, 0, 73, 94
2,25713, Note_on_c, 0, 65, 0
2,25720, Note_on_c, 0, 67, 79
2,25741, Note_on_c, 0, 74, 0
2,25826, Note_on_c, 0, 67, 0
2,25844, Note_on_c, 0, 74, 97
2,25846, Note_on_c, 0, 65, 80
2,25850, Note_on_c, 0, 73, 0
2,25882, Note_on_c, 0, 74, 0
2,25961, Note_on_c, 0, 67, 74
2,25990, Note_on_c, 0, 65, 0
2,26073, Note_on_c, 0, 67, 0
2,26113, Note_on_c, 0, 64, 75
2,26113, Note_on_c, 0, 69, 88
2,26158, Note_on_c, 0, 69, 0
2,26230, Note_on_c, 0, 64, 0
2,26248, Note_on_c, 0, 65, 60
2,26381, Note_on_c, 0, 77, 76
2,26385, Note_on_c, 0, 65, 0
2,26401, Note_on_c, 0, 62, 61
2,26516, Note_on_c, 0, 62, 0
2,26532, Note_on_c, 0, 60, 63
2,26665, Note_on_c, 0, 62, 68
2,26673, Note_on_c, 0, 60, 0
2,26725, Note_on_c, 0, 77, 0
2,26776, Note_on_c, 0, 62, 0
2,26785, Note_on_c, 0, 64, 67
2,26905, Note_on_c, 0, 64, 0
2,26922, Note_on_c, 0, 62, 70
2,26933, Note_on_c, 0, 76, 71
2,27040, Note_on_c, 0, 62, 0
2,27057, Note_on_c, 0, 64, 65
2,27160, Note_on_c, 0, 64, 0
2,27185, Note_on_c, 0, 60, 69
2,27301, Note_on_c, 0, 62, 77
2,27301, Note_on_c, 0, 76, 0
2,27325, Note_on_c, 0, 60, 0
2,27436, Note_on_c, 0, 59, 84
2,27440, Note_on_c, 0, 62, 0
2,27560, Note_on_c, 0, 60, 81
2,27621, Note_on_c, 0, 59, 0
2,27707, Note_on_c, 0, 62, 88
2,27707, Note_on_c, 0, 74, 92
2,27744, Note_on_c, 0, 60, 0
2,27835, Note_on_c, 0, 64, 86
2,27835, Note_on_c, 0, 72, 91
2,27855, Note_on_c, 0, 62, 0
2,27861, Note_on_c, 0, 74, 0
2,27963, Note_on_c, 0, 64, 0
2,27968, Note_on_c, 0, 66, 86
2,27968, Note_on_c, 0, 74, 92
2,28021, Note_on_c, 0, 72, 0
2,28085, Note_on_c, 0, 76, 86
2,28093, Note_on_c, 0, 68, 93
2,28130, Note_on_c, 0, 74, 0
2,28139, Note_on_c, 0, 66, 0
2,28226, Note_on_c, 0, 72, 96
2,28230, Note_on_c, 0, 69, 107
2,28264, Note_on_c, 0, 68, 0
2,28268, Note_on_c, 0, 76, 0
2,28365, Note_on_c, 0, 74, 88
2,28398, Note_on_c, 0, 72, 0
2,28496, Note_on_c, 0, 71, 98
2,28516, Note_on_c, 0, 74, 0
2,28629, Note_on_c, 0, 74, 92
2,28658, Note_on_c, 0, 71, 0
2,28750, Note_on_c, 0, 72, 91
2,28759, Note_on_c, 0, 68, 81
2,28772, Note_on_c, 0, 74, 0
2,28776, Note_on_c, 0, 69, 0
2,28843, Note_on_c, 0, 68, 0
2,28854, Note_on_c, 0, 66, 79
2,28881, Note_on_c, 0, 74, 86
2,28931, Note_on_c, 0, 72, 0
2,28940, Note_on_c, 0, 68, 78
2,28960, Note_on_c, 0, 66, 0
2,28989, Note_on_c, 0, 68, 0
2,28989, Note_on_c, 0, 76, 85
2,28993, Note_on_c, 0, 69, 78
2,29056, Note_on_c, 0, 74, 0
2,29057, Note_on_c, 0, 68, 68
2,29070, Note_on_c, 0, 69, 0
2,29107, Note_on_c, 0, 77, 85
2,29120, Note_on_c, 0, 76, 0
2,29260, Note_on_c, 0, 74, 70
2,29264, Note_on_c, 0, 77, 0
2,29392, Note_on_c, 0, 76, 74
2,29408, Note_on_c, 0, 74, 0
2,29524, Note_on_c, 0, 72, 86
2,29524, Note_on_c, 0, 76, 0
2,29535, Note_on_c, 0, 69, 66
2,29539, Note_on_c, 0, 68, 0
2,29552, Note_on_c, 0, 72, 0
2,29611, Note_on_c, 0, 69, 0
2,29651, Note_on_c, 0, 68, 68
2,29793, Note_on_c, 0, 76, 96
2,29810, Note_on_c, 0, 69, 58
2,29829, Note_on_c, 0, 68, 0
2,29914, Note_on_c, 0, 69, 0
2,29914, Note_on_c, 0, 74, 90
2,29927, Note_on_c, 0, 71, 62
2,29943, Note_on_c, 0, 76, 0
2,30027, Note_on_c, 0, 71, 0
2,30054, Note_on_c, 0, 69, 66
2,30054, Note_on_c, 0, 76, 94
2,30066, Note_on_c, 0, 74, 0
2,30084, Note_on_c, 0, 76, 0
2,30176, Note_on_c, 0, 71, 61
2,30220, Note_on_c, 0, 69, 0
2,30300, Note_on_c, 0, 71, 0
2,30313, Note_on_c, 0, 72, 84
2,30329, Note_on_c, 0, 67, 58
2,30349, Note_on_c, 0, 72, 0
2,30419, Note_on_c, 0, 67, 0
2,30447, Note_on_c, 0, 69, 54
2,30571, Note_on_c, 0, 69, 0
2,30571, Note_on_c, 0, 81, 84
2,30593, Note_on_c, 0, 66, 63
2,30601, Note_on_c, 0, 81, 0
2,30716, Note_on_c, 0, 66, 0
2,30730, Note_on_c, 0, 64, 53
2,30827, Note_on_c, 0, 64, 0
2,30863, Note_on_c, 0, 72, 77
2,30881, Note_on_c, 0, 66, 58
2,30899, Note_on_c, 0, 72, 0
2,30975, Note_on_c, 0, 66, 0
2,31003, Note_on_c, 0, 67, 53
2,31103, Note_on_c, 0, 67, 0
2,31136, Note_on_c, 0, 69, 61
2,31143, Note_on_c, 0, 66, 57
2,31180, Note_on_c, 0, 69, 0
2,31256, Note_on_c, 0, 66, 0
2,31260, Note_on_c, 0, 67, 54
2,31402, Note_on_c, 0, 67, 0
2,31407, Note_on_c, 0, 74, 72
2,31416, Note_on_c, 0, 64, 45
2,31440, Note_on_c, 0, 74, 0
2,31508, Note_on_c, 0, 64, 0
2,31538, Note_on_c, 0, 66, 53
2,31650, Note_on_c, 0, 66, 0
2,31670, Note_on_c, 0, 67, 54
2,31675, Note_on_c, 0, 71, 70
2,31710, Note_on_c, 0, 71, 0
2,31764, Note_on_c, 0, 67, 0
2,31811, Note_on_c, 0, 66, 61
2,31940, Note_on_c, 0, 74, 93
2,31944, Note_on_c, 0, 67, 60
2,32048, Note_on_c, 0, 66, 0
2,32060, Note_on_c, 0, 72, 97
2,32068, Note_on_c, 0, 69, 66
2,32077, Note_on_c, 0, 67, 0
2,32088, Note_on_c, 0, 74, 0
2,32188, Note_on_c, 0, 69, 0
2,32196, Note_on_c, 0, 74, 100
2,32208, Note_on_c, 0, 67, 74
2,32212, Note_on_c, 0, 72, 0
2,32236, Note_on_c, 0, 74, 0
2,32338, Note_on_c, 0, 69, 58
2,32376, Note_on_c, 0, 67, 0
2,32460, Note_on_c, 0, 69, 0
2,32465, Note_on_c, 0, 71, 79
2,32469, Note_on_c, 0, 65, 58
2,32499, Note_on_c, 0, 71, 0
2,32563, Note_on_c, 0, 65, 0
2,32591, Note_on_c, 0, 67, 56
2,32725, Note_on_c, 0, 67, 0
2,32729, Note_on_c, 0, 79, 78
2,32744, Note_on_c, 0, 64, 59
2,32771, Note_on_c, 0, 79, 0
2,32851, Note_on_c, 0, 64, 0
2,32883, Note_on_c, 0, 62, 51
2,32974, Note_on_c, 0, 62, 0
2,32997, Note_on_c, 0, 70, 67
2,33006, Note_on_c, 0, 64, 54
2,33038, Note_on_c, 0, 70, 0
2,33103, Note_on_c, 0, 64, 0
2,33128, Note_on_c, 0, 65, 47
2,33216, Note_on_c, 0, 65, 0
2,33265, Note_on_c, 0, 67, 64
2,33269, Note_on_c, 0, 64, 55
2,33306, Note_on_c, 0, 67, 0
2,33381, Note_on_c, 0, 65, 49
2,33386, Note_on_c, 0, 64, 0
2,33513, Note_on_c, 0, 65, 0
2,33530, Note_on_c, 0, 72, 78
2,33532, Note_on_c, 0, 62, 52
2,33567, Note_on_c, 0, 72, 0
2,33616, Note_on_c, 0, 62, 0
2,33650, Note_on_c, 0, 64, 51
2,33777, Note_on_c, 0, 64, 0
2,33795, Note_on_c, 0, 69, 62
2,33799, Note_on_c, 0, 65, 48
2,33844, Note_on_c, 0, 69, 0
2,33892, Note_on_c, 0, 65, 0
2,33933, Note_on_c, 0, 64, 59
2,34070, Note_on_c, 0, 65, 60
2,34070, Note_on_c, 0, 74, 85
2,34151, Note_on_c, 0, 64, 0
2,34193, Note_on_c, 0, 67, 71
2,34193, Note_on_c, 0, 72, 91
2,34206, Note_on_c, 0, 65, 0
2,34224, Note_on_c, 0, 74, 0
2,34318, Note_on_c, 0, 67, 0
2,34327, Note_on_c, 0, 65, 76
2,34329, Note_on_c, 0, 74, 94
2,34396, Note_on_c, 0, 72, 0
2,34444, Note_on_c, 0, 67, 78
2,34448, Note_on_c, 0, 76, 89
2,34495, Note_on_c, 0, 74, 0
2,34508, Note_on_c, 0, 65, 0
2,34585, Note_on_c, 0, 64, 73
2,34585, Note_on_c, 0, 72, 84
2,34592, Note_on_c, 0, 67, 0
2,34630, Note_on_c, 0, 76, 0
2,34711, Note_on_c, 0, 65, 57
2,34711, Note_on_c, 0, 74, 77
2,34721, Note_on_c, 0, 64, 0
2,34751, Note_on_c, 0, 72, 0
2,34826, Note_on_c, 0, 74, 0
2,34847, Note_on_c, 0, 71, 70
2,34853, Note_on_c, 0, 65, 0
2,34862, Note_on_c, 0, 62, 56
2,34915, Note_on_c, 0, 62, 0
2,34969, Note_on_c, 0, 71, 0
2,34978, Note_on_c, 0, 69, 67
2,35108, Note_on_c, 0, 69, 0
2,35112, Note_on_c, 0, 67, 96
2,35116, Note_on_c, 0, 71, 87
2,35243, Note_on_c, 0, 65, 85
2,35243, Note_on_c, 0, 72, 94
2,35260, Note_on_c, 0, 67, 0
2,35265, Note_on_c, 0, 71, 0
2,35369, Note_on_c, 0, 67, 95
2,35380, Note_on_c, 0, 71, 94
2,35404, Note_on_c, 0, 72, 0
2,35411, Note_on_c, 0, 65, 0
2,35507, Note_on_c, 0, 72, 93
2,35509, Note_on_c, 0, 69, 86
2,35529, Note_on_c, 0, 67, 0
2,35538, Note_on_c, 0, 71, 0
2,35600, Note_on_c, 0, 69, 0
2,35634, Note_on_c, 0, 65, 78
2,35638, Note_on_c, 0, 69, 70
2,35669, Note_on_c, 0, 72, 0
2,35741, Note_on_c, 0, 65, 0
2,35753, Note_on_c, 0, 71, 80
2,35762, Note_on_c, 0, 69, 0
2,35767, Note_on_c, 0, 67, 69
2,35807, Note_on_c, 0, 67, 0
2,35833, Note_on_c, 0, 71, 0
2,35899, Note_on_c, 0, 64, 69
2,35910, Note_on_c, 0, 67, 72
2,35950, Note_on_c, 0, 67, 0
2,36006, Note_on_c, 0, 64, 0
2,36033, Note_on_c, 0, 62, 60
2,36157, Note_on_c, 0, 72, 85
2,36161, Note_on_c, 0, 64, 65
2,36185, Note_on_c, 0, 62, 0
2,36283, Note_on_c, 0, 71, 84
2,36288, Note_on_c, 0, 65, 70
2,36292, Note_on_c, 0, 64, 0
2,36309, Note_on_c, 0, 72, 0
2,36414, Note_on_c, 0, 65, 0
2,36423, Note_on_c, 0, 64, 83
2,36423, Note_on_c, 0, 72, 92
2,36472, Note_on_c, 0, 71, 0
2,36538, Note_on_c, 0, 74, 85
2,36542, Note_on_c, 0, 65, 79
2,36575, Note_on_c, 0, 64, 0
2,36579, Note_on_c, 0, 72, 0
2,36674, Note_on_c, 0, 62, 77
2,36678, Note_on_c, 0, 65, 0
2,36682, Note_on_c, 0, 70, 87
2,36709, Note_on_c, 0, 74, 0
2,36799, Note_on_c, 0, 64, 80
2,36806, Note_on_c, 0, 72, 85
2,36822, Note_on_c, 0, 62, 0
2,36856, Note_on_c, 0, 70, 0
2,36943, Note_on_c, 0, 69, 83
2,36943, Note_on_c, 0, 72, 0
2,36951, Note_on_c, 0, 60, 82
2,36951, Note_on_c, 0, 64, 0
2,36993, Note_on_c, 0, 60, 0
2,37074, Note_on_c, 0, 67, 85
2,37085, Note_on_c, 0, 69, 0
2,37208, Note_on_c, 0, 65, 93
2,37214, Note_on_c, 0, 69, 88
2,37226, Note_on_c, 0, 67, 0
2,37337, Note_on_c, 0, 64, 91
2,37337, Note_on_c, 0, 70, 90
2,37351, Note_on_c, 0, 69, 0
2,37360, Note_on_c, 0, 65, 0
2,37469, Note_on_c, 0, 65, 94
2,37470, Note_on_c, 0, 69, 90
2,37500, Note_on_c, 0, 64, 0
2,37500, Note_on_c, 0, 70, 0
2,37599, Note_on_c, 0, 70, 91
2,37606, Note_on_c, 0, 67, 89
2,37627, Note_on_c, 0, 65, 0
2,37627, Note_on_c, 0, 69, 0
2,37689, Note_on_c, 0, 67, 0
2,37736, Note_on_c, 0, 64, 86
2,37736, Note_on_c, 0, 67, 71
2,37785, Note_on_c, 0, 70, 0
2,37853, Note_on_c, 0, 69, 77
2,37857, Note_on_c, 0, 67, 0
2,37866, Note_on_c, 0, 65, 79
2,37870, Note_on_c, 0, 64, 0
2,37914, Note_on_c, 0, 65, 0
2,37958, Note_on_c, 0, 69, 0
2,38007, Note_on_c, 0, 62, 93
2,38011, Note_on_c, 0, 65, 75
2,38096, Note_on_c, 0, 65, 0
2,38107, Note_on_c, 0, 67, 70
2,38143, Note_on_c, 0, 60, 83
2,38143, Note_on_c, 0, 62, 0
2,38168, Note_on_c, 0, 67, 0
2,38210, Note_on_c, 0, 65, 65
2,38259, Note_on_c, 0, 65, 0
2,38268, Note_on_c, 0, 62, 85
2,38306, Note_on_c, 0, 67, 62
2,38317, Note_on_c, 0, 60, 0
2,38349, Note_on_c, 0, 67, 0
2,38380, Note_on_c, 0, 65, 59
2,38409, Note_on_c, 0, 64, 89
2,38427, Note_on_c, 0, 62, 0
2,38431, Note_on_c, 0, 65, 0
2,38453, Note_on_c, 0, 67, 55
2,38503, Note_on_c, 0, 67, 0
2,38542, Note_on_c, 0, 62, 89
2,38542, Note_on_c, 0, 65, 58
2,38546, Note_on_c, 0, 64, 0
2,38585, Note_on_c, 0, 65, 0
2,38607, Note_on_c, 0, 67, 58
2,38657, Note_on_c, 0, 67, 0
2,38668, Note_on_c, 0, 64, 89
2,38683, Note_on_c, 0, 65, 56
2,38690, Note_on_c, 0, 62, 0
2,38728, Note_on_c, 0, 65, 0
2,38766, Note_on_c, 0, 64, 0
2,38779, Note_on_c, 0, 67, 47
2,38807, Note_on_c, 0, 60, 85
2,38811, Note_on_c, 0, 67, 0
2,38824, Note_on_c, 0, 65, 59
2,38874, Note_on_c, 0, 65, 0
2,38896, Note_on_c, 0, 67, 69
2,38930, Note_on_c, 0, 62, 78
2,38932, Note_on_c, 0, 67, 0
2,38948, Note_on_c, 0, 60, 0
2,38954, Note_on_c, 0, 65, 71
2,38999, Note_on_c, 0, 65, 0
2,39006, Note_on_c, 0, 67, 77
2,39028, Note_on_c, 0, 62, 0
2,39037, Note_on_c, 0, 67, 0
2,39071, Note_on_c, 0, 59, 88
2,39071, Note_on_c, 0, 65, 91
2,39214, Note_on_c, 0, 59, 0
2,39216, Note_on_c, 0, 57, 74
2,39345, Note_on_c, 0, 59, 81
2,39355, Note_on_c, 0, 74, 91
2,39396, Note_on_c, 0, 57, 0
2,39456, Note_on_c, 0, 65, 0
2,39479, Note_on_c, 0, 60, 78
2,39483, Note_on_c, 0, 59, 0
2,39486, Note_on_c, 0, 72, 92
2,39515, Note_on_c, 0, 74, 0
2,39607, Note_on_c, 0, 60, 0
2,39607, Note_on_c, 0, 72, 0
2,39611, Note_on_c, 0, 59, 87
2,39613, Note_on_c, 0, 74, 98
2,39649, Note_on_c, 0, 74, 0
2,39739, Note_on_c, 0, 60, 81
2,39756, Note_on_c, 0, 59, 0
2,39874, Note_on_c, 0, 65, 90
2,39878, Note_on_c, 0, 57, 84
2,39883, Note_on_c, 0, 60, 0
2,39951, Note_on_c, 0, 65, 0
2,39996, Note_on_c, 0, 59, 89
2,40030, Note_on_c, 0, 57, 0
2,40044, Note_on_c, 0, 59, 0
2,40147, Note_on_c, 0, 60, 90
2,40147, Note_on_c, 0, 64, 97
2,40295, Note_on_c, 0, 62, 85
2,40328, Note_on_c, 0, 64, 0
2,40435, Note_on_c, 0, 48, 101
2,40435, Note_on_c, 0, 64, 90
2,40520, Note_on_c, 0, 62, 0
2,40549, Note_on_c, 0, 65, 76
2,40564, Note_on_c, 0, 47, 89
2,40577, Note_on_c, 0, 64, 0
2,40585, Note_on_c, 0, 48, 0
2,40706, Note_on_c, 0, 48, 106
2,40706, Note_on_c, 0, 64, 88
2,40719, Note_on_c, 0, 65, 0
2,40734, Note_on_c, 0, 47, 0
2,40779, Note_on_c, 0, 48, 0
2,40796, Note_on_c, 0, 60, 0
2,40838, Note_on_c, 0, 65, 75
2,40860, Note_on_c, 0, 64, 0
2,40980, Note_on_c, 0, 43, 93
2,40987, Note_on_c, 0, 62, 85
2,40987, Note_on_c, 0, 65, 0
2,40991, Note_on_c, 0, 59, 80
2,41029, Note_on_c, 0, 43, 0
2,41117, Note_on_c, 0, 64, 80
2,41126, Note_on_c, 0, 62, 0
2,41258, Note_on_c, 0, 52, 90
2,41283, Note_on_c, 0, 60, 82
2,41295, Note_on_c, 0, 50, 81
2,41312, Note_on_c, 0, 52, 0
2,41312, Note_on_c, 0, 59, 0
2,41335, Note_on_c, 0, 64, 0
2,41343, Note_on_c, 0, 52, 88
2,41386, Note_on_c, 0, 59, 87
2,41406, Note_on_c, 0, 50, 0
2,41406, Note_on_c, 0, 60, 0
2,41531, Note_on_c, 0, 57, 79
2,41557, Note_on_c, 0, 59, 0
2,41672, Note_on_c, 0, 60, 74
2,41697, Note_on_c, 0, 57, 0
2,41815, Note_on_c, 0, 59, 75
2,41828, Note_on_c, 0, 50, 69
2,41854, Note_on_c, 0, 60, 0
2,41871, Note_on_c, 0, 52, 0
2,41961, Note_on_c, 0, 57, 71
2,42023, Note_on_c, 0, 59, 0
2,42088, Note_on_c, 0, 55, 68
2,42100, Note_on_c, 0, 57, 0
2,42207, Note_on_c, 0, 59, 64
2,42231, Note_on_c, 0, 55, 0
2,42289, Note_on_c, 0, 50, 0
2,42384, Note_on_c, 0, 59, 0
2,42391, Note_on_c, 0, 57, 60
2,42660, Note_on_c, 0, 48, 71
2,42694, Note_on_c, 0, 55, 46
2,42779, Note_on_c, 0, 47, 79
2,42788, Note_on_c, 0, 48, 0
2,42796, Note_on_c, 0, 55, 0
2,42920, Note_on_c, 0, 48, 87
2,42950, Note_on_c, 0, 54, 66
2,42967, Note_on_c, 0, 47, 0
2,43041, Note_on_c, 0, 54, 0
2,43055, Note_on_c, 0, 50, 87
2,43107, Note_on_c, 0, 48, 0
2,43187, Note_on_c, 0, 47, 82
2,43193, Note_on_c, 0, 59, 80
2,43205, Note_on_c, 0, 55, 61
2,43211, Note_on_c, 0, 50, 0
2,43225, Note_on_c, 0, 57, 0
2,43261, Note_on_c, 0, 55, 0
2,43321, Note_on_c, 0, 48, 79
2,43351, Note_on_c, 0, 47, 0
2,43461, Note_on_c, 0, 59, 0
2,43469, Note_on_c, 0, 60, 72
2,43472, Note_on_c, 0, 45, 76
2,43478, Note_on_c, 0, 48, 0
2,43608, Note_on_c, 0, 45, 0
2,43608, Note_on_c, 0, 48, 71
2,43613, Note_on_c, 0, 54, 50
2,43718, Note_on_c, 0, 48, 0
2,43740, Note_on_c, 0, 47, 63
2,43758, Note_on_c, 0, 55, 48
2,43787, Note_on_c, 0, 54, 0
2,43812, Note_on_c, 0, 55, 0
2,43866, Note_on_c, 0, 47, 0
2,43873, Note_on_c, 0, 48, 63
2,43880, Note_on_c, 0, 52, 50
2,43947, Note_on_c, 0, 52, 0
2,44005, Note_on_c, 0, 50, 64
2,44022, Note_on_c, 0, 54, 47
2,44041, Note_on_c, 0, 48, 0
2,44078, Note_on_c, 0, 54, 0
2,44159, Note_on_c, 0, 52, 59
2,44174, Note_on_c, 0, 50, 0
2,44277, Note_on_c, 0, 57, 70
2,44281, Note_on_c, 0, 52, 0
2,44285, Note_on_c, 0, 60, 0
2,44290, Note_on_c, 0, 48, 47
2,44396, Note_on_c, 0, 48, 0
2,44401, Note_on_c, 0, 50, 56
2,44531, Note_on_c, 0, 50, 0
2,44552, Note_on_c, 0, 47, 52
2,44567, Note_on_c, 0, 62, 77
2,44581, Note_on_c, 0, 57, 0
2,44686, Note_on_c, 0, 47, 0
2,44698, Note_on_c, 0, 50, 53
2,44805, Note_on_c, 0, 50, 0
2,44823, Note_on_c, 0, 59, 45
2,44836, Note_on_c, 0, 48, 47
2,44966, Note_on_c, 0, 48, 0
2,44980, Note_on_c, 0, 50, 52
2,45045, Note_on_c, 0, 59, 0
2,45102, Note_on_c, 0, 52, 62
2,45105, Note_on_c, 0, 55, 50
2,45115, Note_on_c, 0, 50, 0
2,45238, Note_on_c, 0, 53, 62
2,45259, Note_on_c, 0, 52, 0
2,45378, Note_on_c, 0, 53, 0
2,45383, Note_on_c, 0, 50, 60
2,45383, Note_on_c, 0, 59, 81
2,45394, Note_on_c, 0, 55, 0
2,45508, Note_on_c, 0, 52, 67
2,45513, Note_on_c, 0, 50, 0
2,45672, Note_on_c, 0, 48, 61
2,45672, Note_on_c, 0, 52, 0
2,45675, Note_on_c, 0, 64, 90
2,45701, Note_on_c, 0, 62, 0
2,45710, Note_on_c, 0, 59, 0
2,45815, Note_on_c, 0, 52, 68
2,45823, Note_on_c, 0, 48, 0
2,45944, Note_on_c, 0, 52, 0
2,45948, Note_on_c, 0, 60, 57
2,45957, Note_on_c, 0, 50, 62
2,46091, Note_on_c, 0, 52, 64
2,46127, Note_on_c, 0, 50, 0
2,46201, Note_on_c, 0, 60, 0
2,46205, Note_on_c, 0, 57, 72
2,46232, Note_on_c, 0, 53, 72
2,46290, Note_on_c, 0, 52, 0
2,46367, Note_on_c, 0, 55, 67
2,46391, Note_on_c, 0, 53, 0
2,46486, Note_on_c, 0, 52, 68
2,46490, Note_on_c, 0, 60, 86
2,46499, Note_on_c, 0, 55, 0
2,46515, Note_on_c, 0, 57, 0
2,46606, Note_on_c, 0, 53, 69
2,46628, Note_on_c, 0, 52, 0
2,46758, Note_on_c, 0, 50, 70
2,46767, Note_on_c, 0, 65, 92
2,46775, Note_on_c, 0, 53, 0
2,46800, Note_on_c, 0, 60, 0
2,46822, Note_on_c, 0, 64, 0
2,46903, Note_on_c, 0, 53, 77
2,46914, Note_on_c, 0, 50, 0
2,47030, Note_on_c, 0, 53, 0
2,47034, Note_on_c, 0, 52, 79
2,47039, Note_on_c, 0, 62, 64
2,47163, Note_on_c, 0, 53, 77
2,47219, Note_on_c, 0, 52, 0
2,47264, Note_on_c, 0, 62, 0
2,47311, Note_on_c, 0, 55, 85
2,47311, Note_on_c, 0, 59, 72
2,47357, Note_on_c, 0, 53, 0
2,47448, Note_on_c, 0, 57, 81
2,47485, Note_on_c, 0, 55, 0
2,47567, Note_on_c, 0, 62, 89
2,47571, Note_on_c, 0, 53, 86
2,47590, Note_on_c, 0, 59, 0
2,47595, Note_on_c, 0, 57, 0
2,47704, Note_on_c, 0, 55, 82
2,47720, Note_on_c, 0, 53, 0
2,47839, Note_on_c, 0, 52, 88
2,47839, Note_on_c, 0, 67, 97
2,47843, Note_on_c, 0, 65, 0
2,47861, Note_on_c, 0, 62, 0
2,47867, Note_on_c, 0, 55, 0
2,47977, Note_on_c, 0, 50, 81
2,47983, Note_on_c, 0, 52, 0
2,48106, Note_on_c, 0, 52, 82
2,48115, Note_on_c, 0, 59, 71
2,48148, Note_on_c, 0, 50, 0
2,48214, Note_on_c, 0, 59, 0
2,48248, Note_on_c, 0, 53, 80
2,48250, Note_on_c, 0, 52, 0
2,48352, Note_on_c, 0, 67, 0
2,48374, Note_on_c, 0, 52, 86
2,48374, Note_on_c, 0, 60, 88
2,48378, Note_on_c, 0, 69, 85
2,48391, Note_on_c, 0, 53, 0
2,48481, Note_on_c, 0, 60, 0
2,48507, Note_on_c, 0, 53, 84
2,48529, Note_on_c, 0, 52, 0
2,48640, Note_on_c, 0, 50, 85
2,48644, Note_on_c, 0, 53, 0
2,48644, Note_on_c, 0, 71, 95
2,48649, Note_on_c, 0, 62, 90
2,48677, Note_on_c, 0, 69, 0
2,48757, Note_on_c, 0, 62, 0
2,48761, Note_on_c, 0, 52, 86
2,48792, Note_on_c, 0, 50, 0
2,48902, Note_on_c, 0, 71, 0
2,48909, Note_on_c, 0, 52, 0
2,48911, Note_on_c, 0, 48, 90
2,48919, Note_on_c, 0, 64, 96
2,48919, Note_on_c, 0, 72, 94
2,49037, Note_on_c, 0, 50, 81
2,49053, Note_on_c, 0, 64, 0
2,49097, Note_on_c, 0, 48, 0
2,49185, Note_on_c, 0, 52, 86
2,49185, Note_on_c, 0, 67, 86
2,49202, Note_on_c, 0, 50, 0
2,49311, Note_on_c, 0, 50, 79
2,49311, Note_on_c, 0, 65, 82
2,49322, Note_on_c, 0, 67, 0
2,49326, Note_on_c, 0, 52, 0
2,49404, Note_on_c, 0, 50, 0
2,49431, Note_on_c, 0, 48, 97
2,49439, Note_on_c, 0, 67, 89
2,49459, Note_on_c, 0, 65, 0
2,49514, Note_on_c, 0, 67, 0
2,49555, Note_on_c, 0, 46, 81
2,49592, Note_on_c, 0, 48, 0
2,49692, Note_on_c, 0, 45, 79
2,49697, Note_on_c, 0, 60, 93
2,49709, Note_on_c, 0, 46, 0
2,49792, Note_on_c, 0, 60, 0
2,49801, Note_on_c, 0, 45, 0
2,49824, Note_on_c, 0, 43, 87
2,49942, Note_on_c, 0, 69, 76
2,49949, Note_on_c, 0, 41, 92
2,49988, Note_on_c, 0, 67, 85
2,49990, Note_on_c, 0, 69, 0
2,50008, Note_on_c, 0, 43, 0
2,50050, Note_on_c, 0, 69, 78
2,50069, Note_on_c, 0, 40, 86
2,50089, Note_on_c, 0, 67, 0
2,50093, Note_on_c, 0, 41, 0
2,50207, Note_on_c, 0, 41, 94
2,50241, Note_on_c, 0, 40, 0
2,50354, Note_on_c, 0, 43, 92
2,50379, Note_on_c, 0, 41, 0
2,50483, Note_on_c, 0, 41, 97
2,50504, Note_on_c, 0, 67, 95
2,50515, Note_on_c, 0, 43, 0
2,50549, Note_on_c, 0, 69, 0
2,50617, Note_on_c, 0, 43, 91
2,50658, Note_on_c, 0, 41, 0
2,50752, Note_on_c, 0, 40, 82
2,50776, Note_on_c, 0, 43, 0
2,50881, Note_on_c, 0, 41, 87
2,50921, Note_on_c, 0, 40, 0
2,50950, Note_on_c, 0, 67, 0
2,51014, Note_on_c, 0, 38, 86
2,51028, Note_on_c, 0, 41, 0
2,51149, Note_on_c, 0, 45, 77
2,51170, Note_on_c, 0, 38, 0
2,51278, Note_on_c, 0, 47, 87
2,51282, Note_on_c, 0, 65, 91
2,51322, Note_on_c, 0, 45, 0
2,51409, Note_on_c, 0, 48, 84
2,51409, Note_on_c, 0, 64, 93
2,51413, Note_on_c, 0, 65, 0
2,51438, Note_on_c, 0, 47, 0
2,51502, Note_on_c, 0, 48, 0
2,51536, Note_on_c, 0, 50, 92
2,51539, Note_on_c, 0, 65, 84
2,51569, Note_on_c, 0, 64, 0
2,51658, Note_on_c, 0, 52, 84
2,51670, Note_on_c, 0, 67, 86
2,51715, Note_on_c, 0, 65, 0
2,51740, Note_on_c, 0, 50, 0
2,51801, Note_on_c, 0, 53, 88
2,51806, Note_on_c, 0, 64, 91
2,51828, Note_on_c, 0, 52, 0
2,51836, Note_on_c, 0, 67, 0
2,51924, Note_on_c, 0, 50, 82
2,51937, Note_on_c, 0, 65, 85
2,51946, Note_on_c, 0, 53, 0
2,51953, Note_on_c, 0, 64, 0
2,52067, Note_on_c, 0, 55, 99
2,52072, Note_on_c, 0, 50, 0
2,52072, Note_on_c, 0, 62, 94
2,52080, Note_on_c, 0, 65, 0
2,52203, Note_on_c, 0, 65, 85
2,52221, Note_on_c, 0, 62, 0
2,52333, Note_on_c, 0, 64, 90
2,52336, Note_on_c, 0, 65, 0
2,52455, Note_on_c, 0, 65, 85
2,52459, Note_on_c, 0, 72, 0
2,52508, Note_on_c, 0, 64, 0
2,52599, Note_on_c, 0, 67, 81
2,52599, Note_on_c, 0, 71, 90
2,52626, Note_on_c, 0, 65, 0
2,52657, Note_on_c, 0, 67, 0
2,52734, Note_on_c, 0, 69, 79
2,52871, Note_on_c, 0, 65, 82
2,52903, Note_on_c, 0, 69, 0
2,52993, Note_on_c, 0, 67, 88
2,53008, Note_on_c, 0, 71, 0
2,53045, Note_on_c, 0, 65, 0
2,53132, Note_on_c, 0, 64, 100
2,53143, Note_on_c, 0, 67, 0
2,53266, Note_on_c, 0, 62, 84
2,53279, Note_on_c, 0, 64, 0
2,53396, Note_on_c, 0, 72, 104
2,53409, Note_on_c, 0, 64, 88
2,53456, Note_on_c, 0, 62, 0
2,53527, Note_on_c, 0, 71, 95
2,53533, Note_on_c, 0, 64, 0
2,53538, Note_on_c, 0, 65, 68
2,53553, Note_on_c, 0, 72, 0
2,53654, Note_on_c, 0, 72, 101
2,53659, Note_on_c, 0, 65, 0
2,53675, Note_on_c, 0, 64, 77
2,53676, Note_on_c, 0, 71, 0
2,53702, Note_on_c, 0, 72, 0
2,53791, Note_on_c, 0, 64, 0
2,53803, Note_on_c, 0, 65, 65
2,53925, Note_on_c, 0, 65, 0
2,53942, Note_on_c, 0, 62, 66
2,53942, Note_on_c, 0, 67, 94
2,53999, Note_on_c, 0, 67, 0
2,54057, Note_on_c, 0, 62, 0
2,54066, Note_on_c, 0, 64, 65
2,54194, Note_on_c, 0, 76, 85
2,54210, Note_on_c, 0, 64, 0
2,54219, Note_on_c, 0, 60, 69
2,54227, Note_on_c, 0, 76, 0
2,54232, Note_on_c, 0, 74, 89
2,54285, Note_on_c, 0, 76, 90
2,54318, Note_on_c, 0, 60, 0
2,54323, Note_on_c, 0, 59, 66
2,54340, Note_on_c, 0, 74, 0
2,54470, Note_on_c, 0, 60, 68
2,54517, Note_on_c, 0, 59, 0
2,54612, Note_on_c, 0, 62, 75
2,54625, Note_on_c, 0, 60, 0
2,54734, Note_on_c, 0, 62, 0
2,54748, Note_on_c, 0, 74, 86
2,54752, Note_on_c, 0, 60, 74
2,54806, Note_on_c, 0, 76, 0
2,54868, Note_on_c, 0, 62, 80
2,54888, Note_on_c, 0, 55, 0
2,54905, Note_on_c, 0, 60, 0
2,55009, Note_on_c, 0, 59, 88
2,55014, Note_on_c, 0, 62, 0
2,55127, Note_on_c, 0, 60, 86
2,55128, Note_on_c, 0, 74, 0
2,55151, Note_on_c, 0, 59, 0
2,55266, Note_on_c, 0, 57, 99
2,55286, Note_on_c, 0, 60, 0
2,55399, Note_on_c, 0, 59, 84
2,55446, Note_on_c, 0, 57, 0
2,55537, Note_on_c, 0, 72, 100
2,55543, Note_on_c, 0, 60, 92
2,55577, Note_on_c, 0, 59, 0
2,55665, Note_on_c, 0, 71, 90
2,55680, Note_on_c, 0, 62, 86
2,55692, Note_on_c, 0, 60, 0
2,55696, Note_on_c, 0, 72, 0
2,55798, Note_on_c, 0, 64, 85
2,55798, Note_on_c, 0, 72, 95
2,55802, Note_on_c, 0, 62, 0
2,55855, Note_on_c, 0, 71, 0
2,55916, Note_on_c, 0, 66, 81
2,55920, Note_on_c, 0, 74, 87
2,55929, Note_on_c, 0, 64, 0
2,55955, Note_on_c, 0, 72, 0
2,56030, Note_on_c, 0, 66, 0
2,56051, Note_on_c, 0, 71, 85
2,56064, Note_on_c, 0, 67, 74
2,56068, Note_on_c, 0, 59, 72
2,56075, Note_on_c, 0, 74, 0
2,56101, Note_on_c, 0, 67, 0
2,56108, Note_on_c, 0, 59, 0
2,56185, Note_on_c, 0, 72, 78
2,56203, Note_on_c, 0, 71, 0
2,56306, Note_on_c, 0, 72, 0
2,56317, Note_on_c, 0, 69, 69
2,56330, Note_on_c, 0, 60, 62
2,56373, Note_on_c, 0, 60, 0
2,56445, Note_on_c, 0, 72, 69
2,56467, Note_on_c, 0, 69, 0
2,56583, Note_on_c, 0, 72, 0
2,56588, Note_on_c, 0, 57, 63
2,56588, Note_on_c, 0, 67, 64
2,56588, Note_on_c, 0, 71, 71
2,56628, Note_on_c, 0, 57, 0
2,56726, Note_on_c, 0, 72, 74
2,56757, Note_on_c, 0, 71, 0
2,56847, Note_on_c, 0, 62, 71
2,56856, Note_on_c, 0, 74, 72
2,56886, Note_on_c, 0, 62, 0
2,56946, Note_on_c, 0, 67, 0
2,56983, Note_on_c, 0, 72, 0
2,56988, Note_on_c, 0, 74, 0
2,56991, Note_on_c, 0, 76, 73
2,57096, Note_on_c, 0, 50, 63
2,57107, Note_on_c, 0, 76, 0
2,57118, Note_on_c, 0, 72, 75
2,57133, Note_on_c, 0, 66, 75
2,57138, Note_on_c, 0, 50, 0
2,57240, Note_on_c, 0, 74, 73
2,57257, Note_on_c, 0, 72, 0
2,57262, Note_on_c, 0, 66, 0
2,57379, Note_on_c, 0, 43, 63
2,57383, Note_on_c, 0, 67, 59
2,57383, Note_on_c, 0, 71, 72
2,57390, Note_on_c, 0, 74, 0
2,57468, Note_on_c, 0, 67, 0
2,57497, Note_on_c, 0, 71, 0
2,57506, Note_on_c, 0, 42, 71
2,57515, Note_on_c, 0, 43, 0
2,57644, Note_on_c, 0, 43, 79
2,57648, Note_on_c, 0, 74, 84
2,57723, Note_on_c, 0, 42, 0
2,57773, Note_on_c, 0, 45, 81
2,57773, Note_on_c, 0, 72, 86
2,57795, Note_on_c, 0, 74, 0
2,57816, Note_on_c, 0, 43, 0
2,57903, Note_on_c, 0, 47, 88
2,57910, Note_on_c, 0, 74, 93
2,57921, Note_on_c, 0, 72, 0
2,57925, Note_on_c, 0, 45, 0
2,57949, Note_on_c, 0, 74, 0
2,58021, Note_on_c, 0, 48, 81
2,58047, Note_on_c, 0, 47, 0
2,58145, Note_on_c, 0, 48, 0
2,58164, Note_on_c, 0, 45, 67
2,58180, Note_on_c, 0, 67, 79
2,58223, Note_on_c, 0, 67, 0
2,58285, Note_on_c, 0, 47, 59
2,58294, Note_on_c, 0, 45, 0
2,58446, Note_on_c, 0, 48, 57
2,58450, Note_on_c, 0, 47, 0
2,58459, Note_on_c, 0, 76, 86
2,58561, Note_on_c, 0, 48, 0
2,58596, Note_on_c, 0, 47, 54
2,58728, Note_on_c, 0, 48, 57
2,58728, Note_on_c, 0, 67, 62
2,58737, Note_on_c, 0, 47, 0
2,58807, Note_on_c, 0, 76, 0
2,58830, Note_on_c, 0, 67, 0
2,58837, Note_on_c, 0, 65, 63
2,58842, Note_on_c, 0, 48, 0
2,58842, Note_on_c, 0, 50, 63
2,58932, Note_on_c, 0, 50, 0
2,58932, Note_on_c, 0, 65, 0
2,58977, Note_on_c, 0, 48, 57
2,58977, Note_on_c, 0, 67, 59
2,58977, Note_on_c, 0, 74, 68
2,59043, Note_on_c, 0, 67, 0
2,59088, Note_on_c, 0, 50, 60
2,59145, Note_on_c, 0, 48, 0
2,59217, Note_on_c, 0, 50, 0
2,59237, Note_on_c, 0, 47, 56
2,59244, Note_on_c, 0, 62, 62
2,59304, Note_on_c, 0, 62, 0
2,59364, Note_on_c, 0, 47, 0
2,59369, Note_on_c, 0, 48, 53
2,59484, Note_on_c, 0, 74, 0
2,59497, Note_on_c, 0, 72, 71
2,59500, Note_on_c, 0, 69, 60
2,59511, Note_on_c, 0, 45, 61
2,59511, Note_on_c, 0, 48, 0
2,59628, Note_on_c, 0, 44, 73
2,59628, Note_on_c, 0, 45, 0
2,59644, Note_on_c, 0, 72, 0
2,59697, Note_on_c, 0, 69, 0
2,59761, Note_on_c, 0, 45, 81
2,59781, Note_on_c, 0, 76, 84
2,59805, Note_on_c, 0, 44, 0
2,59887, Note_on_c, 0, 47, 85
2,59900, Note_on_c, 0, 74, 84
2,59929, Note_on_c, 0, 76, 0
2,59939, Note_on_c, 0, 45, 0
2,60018, Note_on_c, 0, 48, 89
2,60026, Note_on_c, 0, 67, 86
2,60032, Note_on_c, 0, 76, 92
2,60044, Note_on_c, 0, 74, 0
2,60050, Note_on_c, 0, 47, 0
2,60062, Note_on_c, 0, 67, 0
2,60079, Note_on_c, 0, 76, 0
2,60142, Note_on_c, 0, 50, 80
2,60159, Note_on_c, 0, 48, 0
2,60271, Note_on_c, 0, 50, 0
2,60280, Note_on_c, 0, 47, 73
2,60298, Note_on_c, 0, 69, 93
2,60359, Note_on_c, 0, 69, 0
2,60405, Note_on_c, 0, 48, 68
2,60426, Note_on_c, 0, 47, 0
2,60570, Note_on_c, 0, 50, 66
2,60570, Note_on_c, 0, 65, 86
2,60570, Note_on_c, 0, 77, 98
2,60579, Note_on_c, 0, 48, 0
2,60692, Note_on_c, 0, 50, 0
2,60716, Note_on_c, 0, 48, 61
2,60832, Note_on_c, 0, 65, 0
2,60836, Note_on_c, 0, 69, 72
2,60845, Note_on_c, 0, 50, 65
2,60909, Note_on_c, 0, 48, 0
2,60951, Note_on_c, 0, 77, 0
2,60955, Note_on_c, 0, 67, 72
2,60959, Note_on_c, 0, 69, 0
2,60968, Note_on_c, 0, 52, 75
2,60972, Note_on_c, 0, 50, 0
2,61085, Note_on_c, 0, 67, 0
2,61089, Note_on_c, 0, 76, 86
2,61094, Note_on_c, 0, 69, 78
2,61096, Note_on_c, 0, 52, 0
2,61101, Note_on_c, 0, 50, 80
2,61183, Note_on_c, 0, 69, 0
2,61229, Note_on_c, 0, 52, 75
2,61273, Note_on_c, 0, 50, 0
2,61364, Note_on_c, 0, 64, 80
2,61369, Note_on_c, 0, 48, 76
2,61380, Note_on_c, 0, 52, 0
2,61474, Note_on_c, 0, 64, 0
2,61494, Note_on_c, 0, 50, 79
2,61507, Note_on_c, 0, 48, 0
2,61616, Note_on_c, 0, 71, 82
2,61616, Note_on_c, 0, 74, 83
2,61625, Note_on_c, 0, 47, 86
2,61634, Note_on_c, 0, 76, 0
2,61645, Note_on_c, 0, 50, 0
2,61754, Note_on_c, 0, 45, 84
2,61763, Note_on_c, 0, 47, 0
2,61772, Note_on_c, 0, 74, 0
2,61776, Note_on_c, 0, 71, 0
2,61886, Note_on_c, 0, 47, 88
2,61891, Note_on_c, 0, 77, 96
2,61941, Note_on_c, 0, 45, 0
2,62020, Note_on_c, 0, 48, 88
2,62020, Note_on_c, 0, 76, 86
2,62051, Note_on_c, 0, 77, 0
2,62056, Note_on_c, 0, 47, 0
2,62151, Note_on_c, 0, 50, 95
2,62156, Note_on_c, 0, 69, 88
2,62160, Note_on_c, 0, 77, 97
2,62167, Note_on_c, 0, 76, 0
2,62171, Note_on_c, 0, 48, 0
2,62206, Note_on_c, 0, 69, 0
2,62221, Note_on_c, 0, 77, 0
2,62272, Note_on_c, 0, 52, 93
2,62290, Note_on_c, 0, 50, 0
2,62419, Note_on_c, 0, 48, 86
2,62423, Note_on_c, 0, 52, 0
2,62428, Note_on_c, 0, 71, 101
2,62508, Note_on_c, 0, 71, 0
2,62539, Note_on_c, 0, 50, 82
2,62600, Note_on_c, 0, 48, 0
2,62698, Note_on_c, 0, 52, 90
2,62702, Note_on_c, 0, 67, 99
2,62702, Note_on_c, 0, 79, 101
2,62718, Note_on_c, 0, 50, 0
2,62836, Note_on_c, 0, 50, 84
2,62849, Note_on_c, 0, 52, 0
2,62971, Note_on_c, 0, 52, 88
2,62971, Note_on_c, 0, 67, 0
2,62971, Note_on_c, 0, 71, 84
2,63012, Note_on_c, 0, 50, 0
2,63056, Note_on_c, 0, 79, 0
2,63091, Note_on_c, 0, 53, 86
2,63091, Note_on_c, 0, 69, 76
2,63095, Note_on_c, 0, 71, 0
2,63113, Note_on_c, 0, 52, 0
2,63221, Note_on_c, 0, 71, 90
2,63223, Note_on_c, 0, 77, 89
2,63227, Note_on_c, 0, 52, 93
2,63232, Note_on_c, 0, 69, 0
2,63234, Note_on_c, 0, 53, 0
2,63324, Note_on_c, 0, 71, 0
2,63353, Note_on_c, 0, 53, 88
2,63396, Note_on_c, 0, 52, 0
2,63486, Note_on_c, 0, 50, 86
2,63494, Note_on_c, 0, 67, 81
2,63517, Note_on_c, 0, 53, 0
2,63616, Note_on_c, 0, 52, 85
2,63638, Note_on_c, 0, 50, 0
2,63638, Note_on_c, 0, 67, 0
2,63757, Note_on_c, 0, 48, 80
2,63768, Note_on_c, 0, 76, 87
2,63772, Note_on_c, 0, 72, 84
2,63777, Note_on_c, 0, 52, 0
2,63790, Note_on_c, 0, 77, 0
2,63898, Note_on_c, 0, 47, 79
2,63909, Note_on_c, 0, 48, 0
2,64023, Note_on_c, 0, 72, 0
2,64029, Note_on_c, 0, 48, 81
2,64034, Note_on_c, 0, 77, 94
2,64075, Note_on_c, 0, 76, 0
2,64104, Note_on_c, 0, 47, 0
2,64166, Note_on_c, 0, 50, 81
2,64214, Note_on_c, 0, 48, 0
2,64309, Note_on_c, 0, 52, 75
2,64318, Note_on_c, 0, 79, 102
2,64322, Note_on_c, 0, 70, 84
2,64336, Note_on_c, 0, 50, 0
2,64341, Note_on_c, 0, 77, 0
2,64441, Note_on_c, 0, 53, 78
2,64446, Note_on_c, 0, 52, 0
2,64558, Note_on_c, 0, 53, 0
2,64570, Note_on_c, 0, 50, 72
2,64694, Note_on_c, 0, 52, 69
2,64718, Note_on_c, 0, 50, 0
2,64841, Note_on_c, 0, 53, 69
2,64852, Note_on_c, 0, 69, 63
2,64870, Note_on_c, 0, 70, 0
2,64874, Note_on_c, 0, 52, 0
2,64966, Note_on_c, 0, 53, 0
2,64968, Note_on_c, 0, 55, 63
2,65087, Note_on_c, 0, 55, 0
2,65104, Note_on_c, 0, 53, 64
2,65227, Note_on_c, 0, 53, 0
2,65230, Note_on_c, 0, 52, 61
2,65350, Note_on_c, 0, 52, 0
2,65376, Note_on_c, 0, 50, 57
2,65376, Note_on_c, 0, 77, 85
2,65405, Note_on_c, 0, 79, 0
2,65413, Note_on_c, 0, 69, 0
2,65447, Note_on_c, 0, 78, 8
2,65482, Note_on_c, 0, 50, 0
2,65482, Note_on_c, 0, 78, 0
2,65508, Note_on_c, 0, 48, 56
2,65641, Note_on_c, 0, 48, 0
2,65644, Note_on_c, 0, 47, 55
2,65752, Note_on_c, 0, 47, 0
2,65776, Note_on_c, 0, 45, 55
2,65901, Note_on_c, 0, 45, 0
2,65905, Note_on_c, 0, 47, 58
2,65905, Note_on_c, 0, 67, 59
2,66037, Note_on_c, 0, 47, 0
2,66052, Note_on_c, 0, 43, 56
2,66175, Note_on_c, 0, 43, 0
2,66190, Note_on_c, 0, 45, 54
2,66303, Note_on_c, 0, 45, 0
2,66303, Note_on_c, 0, 47, 57
2,66444, Note_on_c, 0, 48, 59
2,66444, Note_on_c, 0, 76, 83
2,66466, Note_on_c, 0, 47, 0
2,66473, Note_on_c, 0, 77, 0
2,66502, Note_on_c, 0, 67, 0
2,66574, Note_on_c, 0, 50, 60
2,66592, Note_on_c, 0, 48, 0
2,66701, Note_on_c, 0, 50, 0
2,66708, Note_on_c, 0, 47, 53
2,66825, Note_on_c, 0, 48, 53
2,66827, Note_on_c, 0, 47, 0
2,66955, Note_on_c, 0, 48, 0
2,66975, Note_on_c, 0, 65, 60
2,66983, Note_on_c, 0, 45, 48
2,67021, Note_on_c, 0, 76, 0
2,67082, Note_on_c, 0, 45, 0
2,67109, Note_on_c, 0, 48, 55
2,67206, Note_on_c, 0, 48, 0
2,67243, Note_on_c, 0, 47, 52
2,67350, Note_on_c, 0, 47, 0
2,67370, Note_on_c, 0, 48, 48
2,67492, Note_on_c, 0, 50, 60
2,67492, Note_on_c, 0, 74, 80
2,67516, Note_on_c, 0, 74, 0
2,67544, Note_on_c, 0, 48, 0
2,67619, Note_on_c, 0, 52, 56
2,67620, Note_on_c, 0, 50, 0
2,67750, Note_on_c, 0, 52, 0
2,67754, Note_on_c, 0, 72, 82
2,67763, Note_on_c, 0, 53, 57
2,67800, Note_on_c, 0, 72, 0
2,67854, Note_on_c, 0, 53, 0
2,67888, Note_on_c, 0, 50, 50
2,68040, Note_on_c, 0, 50, 0
2,68045, Note_on_c, 0, 71, 88
2,68051, Note_on_c, 0, 55, 58
2,68186, Note_on_c, 0, 57, 58
2,68204, Note_on_c, 0, 55, 0
2,68312, Note_on_c, 0, 53, 51
2,68312, Note_on_c, 0, 57, 0
2,68312, Note_on_c, 0, 67, 51
2,68393, Note_on_c, 0, 65, 0
2,68451, Note_on_c, 0, 55, 58
2,68453, Note_on_c, 0, 53, 0
2,68584, Note_on_c, 0, 72, 94
2,68589, Note_on_c, 0, 57, 63
2,68598, Note_on_c, 0, 64, 83
2,68609, Note_on_c, 0, 71, 0
2,68624, Note_on_c, 0, 55, 0
2,68624, Note_on_c, 0, 67, 0
2,68719, Note_on_c, 0, 59, 59
2,68761, Note_on_c, 0, 57, 0
2,68854, Note_on_c, 0, 59, 0
2,68859, Note_on_c, 0, 55, 62
2,68971, Note_on_c, 0, 57, 75
2,68982, Note_on_c, 0, 55, 0
2,69115, Note_on_c, 0, 53, 77
2,69115, Note_on_c, 0, 57, 0
2,69115, Note_on_c, 0, 62, 91
2,69124, Note_on_c, 0, 72, 0
2,69144, Note_on_c, 0, 64, 0
2,69241, Note_on_c, 0, 55, 82
2,69267, Note_on_c, 0, 53, 0
2,69385, Note_on_c, 0, 52, 89
2,69400, Note_on_c, 0, 55, 0
2,69508, Note_on_c, 0, 53, 85
2,69560, Note_on_c, 0, 52, 0
2,69646, Note_on_c, 0, 71, 93
2,69651, Note_on_c, 0, 55, 90
2,69689, Note_on_c, 0, 53, 0
2,69775, Note_on_c, 0, 65, 74
2,69786, Note_on_c, 0, 57, 83
2,69826, Note_on_c, 0, 55, 0
2,69826, Note_on_c, 0, 62, 0
2,69855, Note_on_c, 0, 71, 0
2,69915, Note_on_c, 0, 57, 0
2,69919, Note_on_c, 0, 53, 75
2,69919, Note_on_c, 0, 64, 83
2,69984, Note_on_c, 0, 65, 0
2,70031, Note_on_c, 0, 64, 0
2,70039, Note_on_c, 0, 62, 74
2,70040, Note_on_c, 0, 53, 0
2,70040, Note_on_c, 0, 55, 66
2,70182, Note_on_c, 0, 55, 0
2,70182, Note_on_c, 0, 67, 71
2,70182, Note_on_c, 0, 72, 76
2,70191, Note_on_c, 0, 52, 60
2,70215, Note_on_c, 0, 62, 0
2,70237, Note_on_c, 0, 52, 0
2,70310, Note_on_c, 0, 69, 72
2,70316, Note_on_c, 0, 72, 0
2,70348, Note_on_c, 0, 67, 0
2,70443, Note_on_c, 0, 74, 80
2,70447, Note_on_c, 0, 53, 82
2,70451, Note_on_c, 0, 65, 79
2,70469, Note_on_c, 0, 69, 0
2,70567, Note_on_c, 0, 53, 0
2,70575, Note_on_c, 0, 67, 80
2,70609, Note_on_c, 0, 65, 0
2,70613, Note_on_c, 0, 74, 0
2,70637, Note_on_c, 0, 67, 0
2,70716, Note_on_c, 0, 55, 93
2,70716, Note_on_c, 0, 64, 90
2,70716, Note_on_c, 0, 67, 83
2,70814, Note_on_c, 0, 55, 0
2,70848, Note_on_c, 0, 72, 85
2,70863, Note_on_c, 0, 64, 0
2,70879, Note_on_c, 0, 67, 0
2,70970, Note_on_c, 0, 56, 101
2,70997, Note_on_c, 0, 62, 82
2,71044, Note_on_c, 0, 56, 0
2,71066, Note_on_c, 0, 72, 0
2,71110, Note_on_c, 0, 71, 79
2,71143, Note_on_c, 0, 62, 0
2,71255, Note_on_c, 0, 45, 106
2,71255, Note_on_c, 0, 71, 0
2,71260, Note_on_c, 0, 60, 92
2,71260, Note_on_c, 0, 72, 86
2,71313, Note_on_c, 0, 45, 0
2,71313, Note_on_c, 0, 72, 0
2,71415, Note_on_c, 0, 65, 66
2,71554, Note_on_c, 0, 55, 101
2,71554, Note_on_c, 0, 64, 82
2,71578, Note_on_c, 0, 65, 0
2,71675, Note_on_c, 0, 53, 95
2,71676, Note_on_c, 0, 62, 81
2,71694, Note_on_c, 0, 64, 0
2,71698, Note_on_c, 0, 55, 0
2,71819, Note_on_c, 0, 55, 103
2,71824, Note_on_c, 0, 64, 83
2,71847, Note_on_c, 0, 53, 0
2,71871, Note_on_c, 0, 62, 0
2,71886, Note_on_c, 0, 55, 0
2,71942, Note_on_c, 0, 65, 69
2,71955, Note_on_c, 0, 64, 0
2,72069, Note_on_c, 0, 65, 0
2,72081, Note_on_c, 0, 62, 68
2,72092, Note_on_c, 0, 48, 83
2,72129, Note_on_c, 0, 48, 0
2,72204, Note_on_c, 0, 64, 67
2,72329, Note_on_c, 0, 64, 0
2,72335, Note_on_c, 0, 62, 0
2,72338, Note_on_c, 0, 65, 58
2,72359, Note_on_c, 0, 57, 89
2,72399, Note_on_c, 0, 55, 80
2,72414, Note_on_c, 0, 57, 0
2,72439, Note_on_c, 0, 65, 0
2,72450, Note_on_c, 0, 57, 90
2,72459, Note_on_c, 0, 64, 73
2,72518, Note_on_c, 0, 55, 0
2,72615, Note_on_c, 0, 65, 43
2,72698, Note_on_c, 0, 64, 0
2,72760, Note_on_c, 0, 65, 0
2,72776, Note_on_c, 0, 67, 61
2,72899, Note_on_c, 0, 67, 0
2,72908, Note_on_c, 0, 65, 62
2,72922, Note_on_c, 0, 55, 70
2,72971, Note_on_c, 0, 57, 0
2,73027, Note_on_c, 0, 65, 0
2,73045, Note_on_c, 0, 67, 65
2,73166, Note_on_c, 0, 67, 0
2,73179, Note_on_c, 0, 64, 61
2,73300, Note_on_c, 0, 65, 63
2,73308, Note_on_c, 0, 55, 0
2,73308, Note_on_c, 0, 64, 0
2,73425, Note_on_c, 0, 60, 0
2,73434, Note_on_c, 0, 62, 69
2,73456, Note_on_c, 0, 65, 0
2,73539, Note_on_c, 0, 62, 0
2,73566, Note_on_c, 0, 60, 69
2,73702, Note_on_c, 0, 53, 97
2,73702, Note_on_c, 0, 62, 78
2,73732, Note_on_c, 0, 60, 0
2,73827, Note_on_c, 0, 52, 92
2,73827, Note_on_c, 0, 64, 82
2,73836, Note_on_c, 0, 62, 0
2,73843, Note_on_c, 0, 53, 0
2,73905, Note_on_c, 0, 52, 0
2,73958, Note_on_c, 0, 53, 99
2,73967, Note_on_c, 0, 62, 80
2,73977, Note_on_c, 0, 64, 0
2,74023, Note_on_c, 0, 53, 0
2,74100, Note_on_c, 0, 64, 71
2,74104, Note_on_c, 0, 62, 0
2,74235, Note_on_c, 0, 60, 68
2,74242, Note_on_c, 0, 50, 95
2,74247, Note_on_c, 0, 64, 0
2,74285, Note_on_c, 0, 50, 0
2,74355, Note_on_c, 0, 62, 68
2,74373, Note_on_c, 0, 60, 0
2,74496, Note_on_c, 0, 62, 0
2,74496, Note_on_c, 0, 64, 72
2,74506, Note_on_c, 0, 55, 91
2,74546, Note_on_c, 0, 53, 83
2,74553, Note_on_c, 0, 55, 0
2,74605, Note_on_c, 0, 55, 92
2,74616, Note_on_c, 0, 62, 74
2,74620, Note_on_c, 0, 64, 0
2,74667, Note_on_c, 0, 53, 0
2,74755, Note_on_c, 0, 60, 68
2,74760, Note_on_c, 0, 62, 0
2,74760, Note_on_c, 0, 64, 76
2,74900, Note_on_c, 0, 65, 68
2,74909, Note_on_c, 0, 64, 0
2,75052, Note_on_c, 0, 53, 79
2,75056, Note_on_c, 0, 64, 77
2,75061, Note_on_c, 0, 65, 0
2,75087, Note_on_c, 0, 55, 0
2,75149, Note_on_c, 0, 60, 0
2,75194, Note_on_c, 0, 65, 68
2,75199, Note_on_c, 0, 64, 0
2,75303, Note_on_c, 0, 65, 0
2,75323, Note_on_c, 0, 62, 66
2,75325, Note_on_c, 0, 59, 56
2,75398, Note_on_c, 0, 59, 0
2,75448, Note_on_c, 0, 62, 0
2,75448, Note_on_c, 0, 64, 68
2,75574, Note_on_c, 0, 64, 0
2,75583, Note_on_c, 0, 60, 66
2,75597, Note_on_c, 0, 52, 62
2,75633, Note_on_c, 0, 53, 0
2,75711, Note_on_c, 0, 52, 0
2,75729, Note_on_c, 0, 50, 63
2,75854, Note_on_c, 0, 50, 0
2,75858, Note_on_c, 0, 52, 67
2,75865, Note_on_c, 0, 55, 80
2,75987, Note_on_c, 0, 53, 88
2,75995, Note_on_c, 0, 52, 0
2,76017, Note_on_c, 0, 55, 0
2,76122, Note_on_c, 0, 55, 87
2,76127, Note_on_c, 0, 53, 0
2,76131, Note_on_c, 0, 52, 62
2,76204, Note_on_c, 0, 55, 0
2,76228, Note_on_c, 0, 53, 63
2,76240, Note_on_c, 0, 52, 0
2,76362, Note_on_c, 0, 53, 0
2,76378, Note_on_c, 0, 48, 85
2,76383, Note_on_c, 0, 50, 67
2,76450, Note_on_c, 0, 48, 0
2,76507, Note_on_c, 0, 52, 74
2,76551, Note_on_c, 0, 50, 0
2,76638, Note_on_c, 0, 57, 82
2,76648, Note_on_c, 0, 53, 84
2,76657, Note_on_c, 0, 52, 0
2,76680, Note_on_c, 0, 57, 0
2,76690, Note_on_c, 0, 55, 80
2,76743, Note_on_c, 0, 57, 83
2,76768, Note_on_c, 0, 52, 94
2,76781, Note_on_c, 0, 55, 0
2,76799, Note_on_c, 0, 53, 0
2,76908, Note_on_c, 0, 53, 94
2,76948, Note_on_c, 0, 52, 0
2,77022, Note_on_c, 0, 57, 0
2,77033, Note_on_c, 0, 55, 85
2,77060, Note_on_c, 0, 53, 0
2,77109, Note_on_c, 0, 55, 0
2,77169, Note_on_c, 0, 53, 86
2,77173, Note_on_c, 0, 55, 71
2,77220, Note_on_c, 0, 55, 0
2,77311, Note_on_c, 0, 55, 74
2,77316, Note_on_c, 0, 53, 0
2,77432, Note_on_c, 0, 55, 0
2,77445, Note_on_c, 0, 52, 76
2,77569, Note_on_c, 0, 53, 80
2,77578, Note_on_c, 0, 52, 0
2,77664, Note_on_c, 0, 53, 0
2,77697, Note_on_c, 0, 50, 78
2,77831, Note_on_c, 0, 50, 0
2,77836, Note_on_c, 0, 48, 78
2,77965, Note_on_c, 0, 50, 77
2,77972, Note_on_c, 0, 53, 80
2,78006, Note_on_c, 0, 48, 0
2,78059, Note_on_c, 0, 53, 0
2,78086, Note_on_c, 0, 52, 86
2,78104, Note_on_c, 0, 50, 0
2,78223, Note_on_c, 0, 50, 81
2,78223, Note_on_c, 0, 53, 80
2,78239, Note_on_c, 0, 52, 0
2,78268, Note_on_c, 0, 53, 0
2,78332, Note_on_c, 0, 50, 0
2,78362, Note_on_c, 0, 48, 65
2,78468, Note_on_c, 0, 48, 0
2,78488, Note_on_c, 0, 50, 69
2,78500, Note_on_c, 0, 47, 66
2,78560, Note_on_c, 0, 50, 0
2,78620, Note_on_c, 0, 45, 64
2,78629, Note_on_c, 0, 47, 0
2,78736, Note_on_c, 0, 45, 0
2,78758, Note_on_c, 0, 55, 71
2,78763, Note_on_c, 0, 60, 0
2,78767, Note_on_c, 0, 43, 73
2,78897, Note_on_c, 0, 41, 80
2,78902, Note_on_c, 0, 43, 0
2,78972, Note_on_c, 0, 55, 0
2,79023, Note_on_c, 0, 59, 89
2,79032, Note_on_c, 0, 43, 82
2,79062, Note_on_c, 0, 41, 0
2,79160, Note_on_c, 0, 45, 91
2,79180, Note_on_c, 0, 43, 0
2,79232, Note_on_c, 0, 59, 0
2,79295, Note_on_c, 0, 60, 80
2,79302, Note_on_c, 0, 43, 93
2,79302, Note_on_c, 0, 57, 92
2,79306, Note_on_c, 0, 45, 0
2,79409, Note_on_c, 0, 41, 93
2,79420, Note_on_c, 0, 57, 0
2,79433, Note_on_c, 0, 43, 0
2,79450, Note_on_c, 0, 60, 0
2,79555, Note_on_c, 0, 40, 86
2,79564, Note_on_c, 0, 59, 84
2,79564, Note_on_c, 0, 62, 92
2,79593, Note_on_c, 0, 41, 0
2,79678, Note_on_c, 0, 59, 0
2,79683, Note_on_c, 0, 38, 84
2,79683, Note_on_c, 0, 40, 0
2,79737, Note_on_c, 0, 62, 0
2,79826, Note_on_c, 0, 60, 80
2,79829, Note_on_c, 0, 36, 81
2,79829, Note_on_c, 0, 64, 83
2,79868, Note_on_c, 0, 38, 0
2,79963, Note_on_c, 0, 60, 0
2,79968, Note_on_c, 0, 36, 0
2,79968, Note_on_c, 0, 64, 0
2,79977, Note_on_c, 0, 48, 69
2,80105, Note_on_c, 0, 48, 0
2,80109, Note_on_c, 0, 52, 89
2,80109, Note_on_c, 0, 67, 88
2,80116, Note_on_c, 0, 58, 85
2,80192, Note_on_c, 0, 58, 0
2,80220, Note_on_c, 0, 52, 0
2,80234, Note_on_c, 0, 48, 88
2,80234, Note_on_c, 0, 65, 80
2,80247, Note_on_c, 0, 57, 84
2,80268, Note_on_c, 0, 67, 0
2,80333, Note_on_c, 0, 65, 0
2,80342, Note_on_c, 0, 48, 0
2,80371, Note_on_c, 0, 36, 99
2,80379, Note_on_c, 0, 58, 85
2,80379, Note_on_c, 0, 67, 87
2,80403, Note_on_c, 0, 57, 0
2,80419, Note_on_c, 0, 58, 0
2,80446, Note_on_c, 0, 67, 0
2,80475, Note_on_c, 0, 36, 0
2,80505, Note_on_c, 0, 48, 78
2,80626, Note_on_c, 0, 48, 0
2,80656, Note_on_c, 0, 55, 88
2,80661, Note_on_c, 0, 60, 85
2,80661, Note_on_c, 0, 64, 87
2,80712, Note_on_c, 0, 64, 0
2,80732, Note_on_c, 0, 60, 0
2,80737, Note_on_c, 0, 55, 0
2,80782, Note_on_c, 0, 48, 77
2,80895, Note_on_c, 0, 48, 0
2,80931, Note_on_c, 0, 36, 88
2,80941, Note_on_c, 0, 65, 95
2,80941, Note_on_c, 0, 69, 90
2,81085, Note_on_c, 0, 38, 79
2,81120, Note_on_c, 0, 36, 0
2,81219, Note_on_c, 0, 40, 79
2,81297, Note_on_c, 0, 38, 0
2,81314, Note_on_c, 0, 69, 0
2,81354, Note_on_c, 0, 41, 90
2,81370, Note_on_c, 0, 65, 0
2,81408, Note_on_c, 0, 40, 0
2,81491, Note_on_c, 0, 64, 97
2,81495, Note_on_c, 0, 67, 89
2,81497, Note_on_c, 0, 43, 91
2,81527, Note_on_c, 0, 41, 0
2,81620, Note_on_c, 0, 45, 93
2,81636, Note_on_c, 0, 43, 0
2,81744, Note_on_c, 0, 47, 92
2,81777, Note_on_c, 0, 45, 0
2,81873, Note_on_c, 0, 48, 88
2,81897, Note_on_c, 0, 47, 0
2,81931, Note_on_c, 0, 67, 0
2,81940, Note_on_c, 0, 64, 0
2,81992, Note_on_c, 0, 48, 0
2,82023, Note_on_c, 0, 36, 97
2,82139, Note_on_c, 0, 36, 0
2,82155, Note_on_c, 0, 48, 75
2,82298, Note_on_c, 0, 48, 0
2,82298, Note_on_c, 0, 50, 88
2,82298, Note_on_c, 0, 65, 94
2,82385, Note_on_c, 0, 50, 0
2,82421, Note_on_c, 0, 64, 93
2,82430, Note_on_c, 0, 48, 78
2,82434, Note_on_c, 0, 65, 0
2,82508, Note_on_c, 0, 64, 0
2,82535, Note_on_c, 0, 48, 0
2,82552, Note_on_c, 0, 65, 89
2,82563, Note_on_c, 0, 36, 86
2,82606, Note_on_c, 0, 65, 0
2,82630, Note_on_c, 0, 36, 0
2,82677, Note_on_c, 0, 48, 71
2,82780, Note_on_c, 0, 48, 0
2,82824, Note_on_c, 0, 53, 80
2,82837, Note_on_c, 0, 62, 87
2,82884, Note_on_c, 0, 62, 0
2,82918, Note_on_c, 0, 53, 0
2,82947, Note_on_c, 0, 48, 69
2,83102, Note_on_c, 0, 48, 0
2,83111, Note_on_c, 0, 67, 92
2,83116, Note_on_c, 0, 47, 77
2,83254, Note_on_c, 0, 47, 0
2,83254, Note_on_c, 0, 48, 76
2,83382, Note_on_c, 0, 47, 77
2,83389, Note_on_c, 0, 48, 0
2,83391, Note_on_c, 0, 62, 81
2,83464, Note_on_c, 0, 67, 0
2,83511, Note_on_c, 0, 45, 76
2,83511, Note_on_c, 0, 60, 76
2,83529, Note_on_c, 0, 62, 0
2,83533, Note_on_c, 0, 47, 0
2,83638, Note_on_c, 0, 45, 0
2,83638, Note_on_c, 0, 65, 85
2,83645, Note_on_c, 0, 62, 81
2,83649, Note_on_c, 0, 43, 88
2,83671, Note_on_c, 0, 60, 0
2,83766, Note_on_c, 0, 41, 79
2,83770, Note_on_c, 0, 43, 0
2,83782, Note_on_c, 0, 62, 0
2,83914, Note_on_c, 0, 55, 76
2,83918, Note_on_c, 0, 40, 73
2,83937, Note_on_c, 0, 41, 0
2,83994, Note_on_c, 0, 55, 0
2,84033, Note_on_c, 0, 38, 79
2,84042, Note_on_c, 0, 40, 0
2,84149, Note_on_c, 0, 65, 0
2,84154, Note_on_c, 0, 60, 84
2,84156, Note_on_c, 0, 64, 82
2,84167, Note_on_c, 0, 36, 77
2,84243, Note_on_c, 0, 60, 0
2,84257, Note_on_c, 0, 38, 0
2,84288, Note_on_c, 0, 64, 0
2,84292, Note_on_c, 0, 36, 0
2,84292, Note_on_c, 0, 48, 81
2,84337, Note_on_c, 0, 48, 0
2,84426, Note_on_c, 0, 65, 91
2,84426, Note_on_c, 0, 68, 99
2,84441, Note_on_c, 0, 50, 82
2,84447, Note_on_c, 0, 59, 96
2,84572, Note_on_c, 0, 48, 79
2,84577, Note_on_c, 0, 50, 0
2,84583, Note_on_c, 0, 59, 0
2,84597, Note_on_c, 0, 65, 0
2,84653, Note_on_c, 0, 68, 0
2,84703, Note_on_c, 0, 48, 0
2,84711, Note_on_c, 0, 60, 96
2,84720, Note_on_c, 0, 52, 81
2,84720, Note_on_c, 0, 64, 96
2,84720, Note_on_c, 0, 67, 90
2,84829, Note_on_c, 0, 64, 0
2,84849, Note_on_c, 0, 48, 78
2,84865, Note_on_c, 0, 60, 0
2,84872, Note_on_c, 0, 52, 0
2,84890, Note_on_c, 0, 67, 0
2,84963, Note_on_c, 0, 48, 0
2,84984, Note_on_c, 0, 71, 95
2,84989, Note_on_c, 0, 53, 80
2,84993, Note_on_c, 0, 62, 93
2,84993, Note_on_c, 0, 68, 97
2,85129, Note_on_c, 0, 62, 0
2,85138, Note_on_c, 0, 48, 73
2,85155, Note_on_c, 0, 53, 0
2,85173, Note_on_c, 0, 68, 0
2,85197, Note_on_c, 0, 71, 0
2,85244, Note_on_c, 0, 48, 0
2,85271, Note_on_c, 0, 64, 101
2,85276, Note_on_c, 0, 67, 101
2,85276, Note_on_c, 0, 72, 96
2,85280, Note_on_c, 0, 55, 76
2,85372, Note_on_c, 0, 64, 0
2,85414, Note_on_c, 0, 48, 70
2,85425, Note_on_c, 0, 67, 0
2,85439, Note_on_c, 0, 55, 0
2,85454, Note_on_c, 0, 72, 0
2,85569, Note_on_c, 0, 48, 0
2,85569, Note_on_c, 0, 59, 98
2,85573, Note_on_c, 0, 56, 83
2,85573, Note_on_c, 0, 62, 94
2,85573, Note_on_c, 0, 65, 96
2,85710, Note_on_c, 0, 62, 0
2,85713, Note_on_c, 0, 48, 67
2,85722, Note_on_c, 0, 59, 0
2,85775, Note_on_c, 0, 56, 0
2,85830, Note_on_c, 0, 65, 0
2,85839, Note_on_c, 0, 48, 0
2,85877, Note_on_c, 0, 60, 98
2,85879, Note_on_c, 0, 55, 77
2,85879, Note_on_c, 0, 64, 100
2,85964, Note_on_c, 0, 60, 0
2,85997, Note_on_c, 0, 48, 72
2,86036, Note_on_c, 0, 55, 0
2,86066, Note_on_c, 0, 64, 0
2,86075, Note_on_c, 0, 48, 0
2,86169, Note_on_c, 0, 47, 85
2,86174, Note_on_c, 0, 64, 101
2,86180, Note_on_c, 0, 72, 92
2,86310, Note_on_c, 0, 48, 68
2,86397, Note_on_c, 0, 47, 0
2,86452, Note_on_c, 0, 64, 0
2,86559, Note_on_c, 0, 57, 86
2,86572, Note_on_c, 0, 41, 78
2,86572, Note_on_c, 0, 62, 104
2,86620, Note_on_c, 0, 48, 0
2,86620, Note_on_c, 0, 72, 0
2,87004, Note_on_c, 0, 72, 110
2,87013, Note_on_c, 0, 62, 0
2,87017, Note_on_c, 0, 57, 0
2,87026, Note_on_c, 0, 41, 0
2,87491, Note_on_c, 0, 65, 93
2,87493, Note_on_c, 0, 55, 92
2,87493, Note_on_c, 0, 62, 96
2,87493, Note_on_c, 0, 72, 0
2,87502, Note_on_c, 0, 43, 83
2,88134, Note_on_c, 0, 62, 0
2,88155, Note_on_c, 0, 71, 105
2,88188, Note_on_c, 0, 65, 0
2,88209, Note_on_c, 0, 55, 0
2,88257, Note_on_c, 0, 43, 0
2,89005, Note_on_c, 0, 72, 104
2,89011, Note_on_c, 0, 36, 84
2,89011, Note_on_c, 0, 60, 99
2,89016, Note_on_c, 0, 64, 90
2,89016, Note_on_c, 0, 67, 85
2,89032, Note_on_c, 0, 71, 0
2,92880, Note_on_c, 0, 60, 0
2,92900, Note_on_c, 0, 72, 0
2,92908, Note_on_c, 0, 64, 0
2,92923, Note_on_c, 0, 67, 0
2,92936, Note_on_c, 0, 36, 0
2,92937, End_track
0, 0, End_of_file
