0, 0, Header, 1, 2, 480
1, 0, Start_track
1, 0, Tempo, 500000
1, 0, Time_signature, 4, 2, 24, 8
1, 1, End_track
2, 0, Start_track
2, 0, Program_c, 0, 0
2, 0, Control_c, 0, 64, 0
2, 0, Control_c, 0, 67, 0
2, 950, Note_on_c, 0, 48, 76
2, 951, Note_on_c, 0, 36, 66
2, 1345, Note_on_c, 0, 72, 77
2, 1633, Note_on_c, 0, 74, 79
2, 1694, Note_on_c, 0, 72, 0
2, 1907, Note_on_c, 0, 76, 82
2, 1950, Note_on_c, 0, 74, 0
2, 2161, Note_on_c, 0, 67, 72
2, 2260, Note_on_c, 0, 76, 0
2, 2410, Note_on_c, 0, 76, 85
2, 2503, Note_on_c, 0, 67, 0
2, 2664, Note_on_c, 0, 65, 69
2, 2734, Note_on_c, 0, 76, 0
2, 2903, Note_on_c, 0, 74, 82
2, 3001, Note_on_c, 0, 65, 0
2, 3150, Note_on_c, 0, 74, 0
2, 3159, Note_on_c, 0, 64, 76
2, 3282, Note_on_c, 0, 72, 80
2, 3401, Note_on_c, 0, 71, 78
2, 3506, Note_on_c, 0, 72, 0
2, 3511, Note_on_c, 0, 69, 77
2, 3636, Note_on_c, 0, 71, 0
2, 3645, Note_on_c, 0, 64, 0
2, 3654, Note_on_c, 0, 67, 79
2, 3754, Note_on_c, 0, 69, 0
2, 3920, Note_on_c, 0, 70, 77
2, 4004, Note_on_c, 0, 67, 0
2, 4187, Note_on_c, 0, 64, 75
2, 4430, Note_on_c, 0, 67, 77
2, 4556, Note_on_c, 0, 70, 0
2, 4565, Note_on_c, 0, 64, 0
2, 4689, Note_on_c, 0, 60, 73
2, 4938, Note_on_c, 0, 70, 76
2, 4978, Note_on_c, 0, 67, 0
2, 5213, Note_on_c, 0, 70, 0
2, 5218, Note_on_c, 0, 69, 70
2, 5347, Note_on_c, 0, 67, 72
2, 5459, Note_on_c, 0, 65, 81
2, 5518, Note_on_c, 0, 69, 0
2, 5569, Note_on_c, 0, 64, 85
2, 5587, Note_on_c, 0, 67, 0
2, 5602, Note_on_c, 0, 65, 0
2, 5704, Note_on_c, 0, 65, 84
2, 5774, Note_on_c, 0, 64, 0
2, 5981, Note_on_c, 0, 69, 77
2, 6019, Note_on_c, 0, 65, 0
2, 6235, Note_on_c, 0, 62, 74
2, 6340, Note_on_c, 0, 60, 0
2, 6349, Note_on_c, 0, 69, 0
2, 6483, Note_on_c, 0, 65, 75
2, 6547, Note_on_c, 0, 62, 0
2, 6734, Note_on_c, 0, 57, 66
2, 6974, Note_on_c, 0, 60, 68
2, 7014, Note_on_c, 0, 65, 0
2, 7027, Note_on_c, 0, 57, 0
2, 7301, Note_on_c, 0, 59, 56
2, 7426, Note_on_c, 0, 60, 0
2, 7580, Note_on_c, 0, 62, 69
2, 7830, Note_on_c, 0, 64, 79
2, 7900, Note_on_c, 0, 62, 0
2, 8087, Note_on_c, 0, 65, 75
2, 8145, Note_on_c, 0, 64, 0
2, 8150, Note_on_c, 0, 59, 0
2, 8352, Note_on_c, 0, 55, 71
2, 8451, Note_on_c, 0, 65, 0
2, 8598, Note_on_c, 0, 65, 72
2, 8854, Note_on_c, 0, 64, 78
2, 9116, Note_on_c, 0, 62, 83
2, 9120, Note_on_c, 0, 65, 0
2, 9193, Note_on_c, 0, 64, 0
2, 9387, Note_on_c, 0, 64, 82
2, 9434, Note_on_c, 0, 62, 0
2, 9687, Note_on_c, 0, 60, 59
2, 9942, Note_on_c, 0, 59, 59
2, 10002, Note_on_c, 0, 55, 0
2, 10209, Note_on_c, 0, 57, 60
2, 10236, Note_on_c, 0, 59, 0
2, 10243, Note_on_c, 0, 36, 0
2, 10452, Note_on_c, 0, 48, 0
2, 10473, Note_on_c, 0, 55, 47
2, 10547, Note_on_c, 0, 57, 0
2, 10728, Note_on_c, 0, 53, 56
2, 10966, Note_on_c, 0, 52, 69
2, 11094, Note_on_c, 0, 53, 0
2, 11222, Note_on_c, 0, 50, 69
2, 11309, Note_on_c, 0, 52, 0
2, 11469, Note_on_c, 0, 48, 67
2, 11509, Note_on_c, 0, 50, 0
2, 11606, Note_on_c, 0, 50, 73
2, 11626, Note_on_c, 0, 48, 0
2, 11721, Note_on_c, 0, 48, 76
2, 11770, Note_on_c, 0, 50, 0
2, 11841, Note_on_c, 0, 47, 80
2, 11853, Note_on_c, 0, 48, 0
2, 11962, Note_on_c, 0, 48, 85
2, 12018, Note_on_c, 0, 47, 0
2, 12245, Note_on_c, 0, 52, 82
2, 12304, Note_on_c, 0, 48, 0
2, 12495, Note_on_c, 0, 43, 76
2, 12752, Note_on_c, 0, 46, 80
2, 12886, Note_on_c, 0, 43, 0
2, 13010, Note_on_c, 0, 45, 80
2, 13060, Note_on_c, 0, 46, 0
2, 13256, Note_on_c, 0, 43, 79
2, 13311, Note_on_c, 0, 45, 0
2, 13584, Note_on_c, 0, 41, 50
2, 13600, Note_on_c, 0, 57, 74
2, 13708, Note_on_c, 0, 60, 0
2, 13719, Note_on_c, 0, 43, 0
2, 13823, Note_on_c, 0, 55, 0
2, 13857, Note_on_c, 0, 52, 0
2, 13890, Note_on_c, 0, 48, 63
2, 14159, Note_on_c, 0, 50, 75
2, 14304, Note_on_c, 0, 48, 0
2, 14422, Note_on_c, 0, 52, 75
2, 14641, Note_on_c, 0, 50, 0
2, 14693, Note_on_c, 0, 53, 65
2, 14812, Note_on_c, 0, 57, 0
2, 14935, Note_on_c, 0, 52, 0
2, 14944, Note_on_c, 0, 62, 77
2, 15047, Note_on_c, 0, 64, 0
2, 15206, Note_on_c, 0, 52, 54
2, 15461, Note_on_c, 0, 60, 66
2, 15473, Note_on_c, 0, 53, 0
2, 15539, Note_on_c, 0, 62, 0
2, 15719, Note_on_c, 0, 59, 60
2, 15723, Note_on_c, 0, 50, 41
2, 15727, Note_on_c, 0, 55, 49
2, 15751, Note_on_c, 0, 60, 0
2, 15955, Note_on_c, 0, 52, 0
2, 15990, Note_on_c, 0, 62, 71
2, 16061, Note_on_c, 0, 59, 0
2, 16072, Note_on_c, 0, 41, 0
2, 16233, Note_on_c, 0, 67, 80
2, 16490, Note_on_c, 0, 59, 84
2, 16506, Note_on_c, 0, 55, 0
2, 16601, Note_on_c, 0, 62, 0
2, 16629, Note_on_c, 0, 67, 0
2, 16743, Note_on_c, 0, 60, 80
2, 16756, Note_on_c, 0, 52, 51
2, 16761, Note_on_c, 0, 40, 41
2, 16806, Note_on_c, 0, 59, 0
2, 16949, Note_on_c, 0, 50, 0
2, 17000, Note_on_c, 0, 67, 86
2, 17256, Note_on_c, 0, 65, 80
2, 17279, Note_on_c, 0, 45, 61
2, 17384, Note_on_c, 0, 40, 0
2, 17439, Note_on_c, 0, 52, 0
2, 17495, Note_on_c, 0, 67, 0
2, 17506, Note_on_c, 0, 64, 95
2, 17551, Note_on_c, 0, 65, 0
2, 17590, Note_on_c, 0, 60, 0
2, 17822, Note_on_c, 0, 65, 83
2, 17826, Note_on_c, 0, 38, 37
2, 17831, Note_on_c, 0, 50, 42
2, 17871, Note_on_c, 0, 64, 0
2, 18127, Note_on_c, 0, 60, 46
2, 18133, Note_on_c, 0, 45, 0
2, 18399, Note_on_c, 0, 62, 50
2, 18569, Note_on_c, 0, 60, 0
2, 18631, Note_on_c, 0, 57, 48
2, 18884, Note_on_c, 0, 43, 34
2, 18892, Note_on_c, 0, 59, 50
2, 18914, Note_on_c, 0, 62, 0
2, 18929, Note_on_c, 0, 65, 0
2, 19158, Note_on_c, 0, 65, 48
2, 19176, Note_on_c, 0, 38, 0
2, 19211, Note_on_c, 0, 57, 0
2, 19240, Note_on_c, 0, 50, 0
2, 19436, Note_on_c, 0, 64, 53
2, 19563, Note_on_c, 0, 65, 0
2, 19668, Note_on_c, 0, 64, 0
2, 19683, Note_on_c, 0, 62, 51
2, 19935, Note_on_c, 0, 48, 34
2, 19944, Note_on_c, 0, 60, 43
2, 19949, Note_on_c, 0, 36, 34
2, 19960, Note_on_c, 0, 64, 53
2, 19991, Note_on_c, 0, 62, 0
2, 20047, Note_on_c, 0, 43, 0
2, 20105, Note_on_c, 0, 59, 0
2, 20189, Note_on_c, 0, 43, 50
2, 20459, Note_on_c, 0, 45, 68
2, 20493, Note_on_c, 0, 48, 0
2, 20613, Note_on_c, 0, 36, 0
2, 20664, Note_on_c, 0, 43, 0
2, 20708, Note_on_c, 0, 47, 82
2, 20811, Note_on_c, 0, 45, 0
2, 20961, Note_on_c, 0, 48, 80
2, 21030, Note_on_c, 0, 47, 0
2, 21225, Note_on_c, 0, 52, 81
2, 21478, Note_on_c, 0, 45, 81
2, 21489, Note_on_c, 0, 48, 0
2, 21729, Note_on_c, 0, 48, 82
2, 21772, Note_on_c, 0, 52, 0
2, 21786, Note_on_c, 0, 45, 0
2, 22023, Note_on_c, 0, 42, 57
2, 22023, Note_on_c, 0, 62, 68
2, 22071, Note_on_c, 0, 60, 0
2, 22128, Note_on_c, 0, 64, 0
2, 22188, Note_on_c, 0, 48, 0
2, 22279, Note_on_c, 0, 60, 59
2, 22519, Note_on_c, 0, 59, 64
2, 22544, Note_on_c, 0, 38, 44
2, 22556, Note_on_c, 0, 60, 0
2, 22630, Note_on_c, 0, 42, 0
2, 22770, Note_on_c, 0, 57, 67
2, 22781, Note_on_c, 0, 59, 0
2, 23042, Note_on_c, 0, 43, 46
2, 23042, Note_on_c, 0, 59, 71
2, 23085, Note_on_c, 0, 62, 0
2, 23120, Note_on_c, 0, 57, 0
2, 23255, Note_on_c, 0, 38, 0
2, 23302, Note_on_c, 0, 62, 84
2, 23562, Note_on_c, 0, 64, 87
2, 23635, Note_on_c, 0, 62, 0
2, 23812, Note_on_c, 0, 67, 87
2, 23861, Note_on_c, 0, 64, 0
2, 23888, Note_on_c, 0, 59, 0
2, 24075, Note_on_c, 0, 57, 70
2, 24075, Note_on_c, 0, 60, 73
2, 24120, Note_on_c, 0, 67, 0
2, 24360, Note_on_c, 0, 45, 80
2, 24410, Note_on_c, 0, 43, 0
2, 24465, Note_on_c, 0, 47, 85
2, 24507, Note_on_c, 0, 45, 0
2, 24577, Note_on_c, 0, 48, 86
2, 24609, Note_on_c, 0, 47, 0
2, 24694, Note_on_c, 0, 50, 90
2, 24746, Note_on_c, 0, 48, 0
2, 24824, Note_on_c, 0, 52, 88
2, 24862, Note_on_c, 0, 50, 0
2, 25102, Note_on_c, 0, 42, 70
2, 25234, Note_on_c, 0, 52, 0
2, 25368, Note_on_c, 0, 69, 76
2, 25381, Note_on_c, 0, 60, 0
2, 25486, Note_on_c, 0, 67, 80
2, 25521, Note_on_c, 0, 69, 0
2, 25606, Note_on_c, 0, 50, 71
2, 25617, Note_on_c, 0, 69, 86
2, 25646, Note_on_c, 0, 67, 0
2, 25869, Note_on_c, 0, 60, 87
2, 25915, Note_on_c, 0, 69, 0
2, 26043, Note_on_c, 0, 60, 0
2, 26133, Note_on_c, 0, 43, 63
2, 26145, Note_on_c, 0, 59, 90
2, 26204, Note_on_c, 0, 57, 0
2, 26284, Note_on_c, 0, 42, 0
2, 26424, Note_on_c, 0, 57, 68
2, 26680, Note_on_c, 0, 55, 50
2, 26749, Note_on_c, 0, 57, 0
2, 26940, Note_on_c, 0, 54, 57
2, 26973, Note_on_c, 0, 55, 0
2, 27181, Note_on_c, 0, 59, 0
2, 27204, Note_on_c, 0, 55, 55
2, 27227, Note_on_c, 0, 54, 0
2, 27463, Note_on_c, 0, 62, 64
2, 27713, Note_on_c, 0, 64, 62
2, 27722, Note_on_c, 0, 41, 44
2, 27753, Note_on_c, 0, 55, 0
2, 27792, Note_on_c, 0, 62, 0
2, 27834, Note_on_c, 0, 43, 0
2, 27981, Note_on_c, 0, 65, 60
2, 28043, Note_on_c, 0, 64, 0
2, 28254, Note_on_c, 0, 67, 57
2, 28260, Note_on_c, 0, 40, 23
2, 28278, Note_on_c, 0, 65, 0
2, 28385, Note_on_c, 0, 41, 0
2, 28487, Note_on_c, 0, 50, 0
2, 28539, Note_on_c, 0, 64, 41
2, 28784, Note_on_c, 0, 59, 37
2, 28788, Note_on_c, 0, 43, 34
2, 28800, Note_on_c, 0, 52, 39
2, 29056, Note_on_c, 0, 62, 52
2, 29133, Note_on_c, 0, 64, 0
2, 29174, Note_on_c, 0, 40, 0
2, 29297, Note_on_c, 0, 61, 54
2, 29310, Note_on_c, 0, 45, 38
2, 29310, Note_on_c, 0, 62, 0
2, 29470, Note_on_c, 0, 43, 0
2, 29479, Note_on_c, 0, 59, 0
2, 29565, Note_on_c, 0, 64, 52
2, 29794, Note_on_c, 0, 67, 0
2, 29819, Note_on_c, 0, 49, 38
2, 29827, Note_on_c, 0, 57, 55
2, 29985, Note_on_c, 0, 52, 0
2, 30065, Note_on_c, 0, 67, 67
2, 30130, Note_on_c, 0, 64, 0
2, 30331, Note_on_c, 0, 38, 38
2, 30370, Note_on_c, 0, 65, 62
2, 30431, Note_on_c, 0, 45, 0
2, 30449, Note_on_c, 0, 67, 0
2, 30509, Note_on_c, 0, 61, 0
2, 30602, Note_on_c, 0, 45, 57
2, 30667, Note_on_c, 0, 49, 0
2, 30879, Note_on_c, 0, 47, 79
2, 30910, Note_on_c, 0, 38, 0
2, 30956, Note_on_c, 0, 45, 0
2, 31124, Note_on_c, 0, 49, 80
2, 31162, Note_on_c, 0, 47, 0
2, 31392, Note_on_c, 0, 50, 83
2, 31466, Note_on_c, 0, 49, 0
2, 31639, Note_on_c, 0, 53, 82
2, 31911, Note_on_c, 0, 47, 69
2, 31911, Note_on_c, 0, 50, 0
2, 31915, Note_on_c, 0, 62, 84
2, 31971, Note_on_c, 0, 65, 0
2, 32158, Note_on_c, 0, 50, 79
2, 32198, Note_on_c, 0, 47, 0
2, 32218, Note_on_c, 0, 53, 0
2, 32430, Note_on_c, 0, 44, 75
2, 32430, Note_on_c, 0, 64, 86
2, 32476, Note_on_c, 0, 62, 0
2, 32556, Note_on_c, 0, 50, 0
2, 32687, Note_on_c, 0, 62, 79
2, 32741, Note_on_c, 0, 57, 0
2, 32942, Note_on_c, 0, 40, 57
2, 32942, Note_on_c, 0, 60, 78
2, 32997, Note_on_c, 0, 62, 0
2, 33051, Note_on_c, 0, 44, 0
2, 33200, Note_on_c, 0, 59, 85
2, 33236, Note_on_c, 0, 64, 0
2, 33258, Note_on_c, 0, 60, 0
2, 33464, Note_on_c, 0, 60, 87
2, 33469, Note_on_c, 0, 45, 67
2, 33473, Note_on_c, 0, 59, 0
2, 33693, Note_on_c, 0, 40, 0
2, 33726, Note_on_c, 0, 64, 89
2, 33963, Note_on_c, 0, 43, 80
2, 33963, Note_on_c, 0, 65, 85
2, 34009, Note_on_c, 0, 45, 0
2, 34009, Note_on_c, 0, 64, 0
2, 34229, Note_on_c, 0, 67, 85
2, 34265, Note_on_c, 0, 65, 0
2, 34479, Note_on_c, 0, 41, 71
2, 34488, Note_on_c, 0, 69, 80
2, 34496, Note_on_c, 0, 67, 0
2, 34563, Note_on_c, 0, 43, 0
2, 34612, Note_on_c, 0, 67, 83
2, 34692, Note_on_c, 0, 69, 0
2, 34719, Note_on_c, 0, 65, 83
2, 34777, Note_on_c, 0, 67, 0
2, 34829, Note_on_c, 0, 64, 91
2, 34847, Note_on_c, 0, 65, 0
2, 34957, Note_on_c, 0, 65, 89
2, 34966, Note_on_c, 0, 40, 56
2, 35004, Note_on_c, 0, 64, 0
2, 35037, Note_on_c, 0, 41, 0
2, 35039, Note_on_c, 0, 60, 0
2, 35216, Note_on_c, 0, 69, 90
2, 35485, Note_on_c, 0, 62, 87
2, 35492, Note_on_c, 0, 41, 66
2, 35536, Note_on_c, 0, 65, 0
2, 35544, Note_on_c, 0, 69, 0
2, 35590, Note_on_c, 0, 40, 0
2, 35744, Note_on_c, 0, 72, 97
2, 36002, Note_on_c, 0, 71, 86
2, 36009, Note_on_c, 0, 38, 62
2, 36100, Note_on_c, 0, 41, 0
2, 36109, Note_on_c, 0, 72, 0
2, 36249, Note_on_c, 0, 69, 85
2, 36300, Note_on_c, 0, 71, 0
2, 36413, Note_on_c, 0, 69, 0
2, 36530, Note_on_c, 0, 40, 51
2, 36530, Note_on_c, 0, 68, 91
2, 36656, Note_on_c, 0, 38, 0
2, 36813, Note_on_c, 0, 65, 52
2, 37068, Note_on_c, 0, 64, 54
2, 37082, Note_on_c, 0, 62, 0
2, 37143, Note_on_c, 0, 65, 0
2, 37334, Note_on_c, 0, 62, 51
2, 37342, Note_on_c, 0, 64, 0
2, 37577, Note_on_c, 0, 60, 48
2, 37829, Note_on_c, 0, 64, 41
2, 37851, Note_on_c, 0, 62, 0
2, 38099, Note_on_c, 0, 69, 51
2, 38139, Note_on_c, 0, 60, 0
2, 38139, Note_on_c, 0, 64, 0
2, 38235, Note_on_c, 0, 68, 0
2, 38360, Note_on_c, 0, 60, 41
2, 38625, Note_on_c, 0, 59, 44
2, 38743, Note_on_c, 0, 60, 0
2, 38879, Note_on_c, 0, 69, 0
2, 38883, Note_on_c, 0, 47, 45
2, 39147, Note_on_c, 0, 69, 65
2, 39159, Note_on_c, 0, 48, 47
2, 39170, Note_on_c, 0, 40, 0
2, 39300, Note_on_c, 0, 47, 0
2, 39407, Note_on_c, 0, 50, 67
2, 39474, Note_on_c, 0, 48, 0
2, 39651, Note_on_c, 0, 52, 70
2, 39656, Note_on_c, 0, 67, 68
2, 39702, Note_on_c, 0, 50, 0
2, 39732, Note_on_c, 0, 69, 0
2, 39926, Note_on_c, 0, 55, 69
2, 40173, Note_on_c, 0, 65, 71
2, 40177, Note_on_c, 0, 47, 59
2, 40186, Note_on_c, 0, 52, 0
2, 40186, Note_on_c, 0, 62, 66
2, 40210, Note_on_c, 0, 67, 0
2, 40429, Note_on_c, 0, 50, 72
2, 40476, Note_on_c, 0, 47, 0
2, 40666, Note_on_c, 0, 49, 71
2, 40681, Note_on_c, 0, 64, 74
2, 40686, Note_on_c, 0, 62, 0
2, 40705, Note_on_c, 0, 65, 0
2, 40731, Note_on_c, 0, 50, 0
2, 40940, Note_on_c, 0, 62, 78
2, 40949, Note_on_c, 0, 52, 68
2, 41019, Note_on_c, 0, 64, 0
2, 41151, Note_on_c, 0, 55, 0
2, 41190, Note_on_c, 0, 61, 77
2, 41194, Note_on_c, 0, 45, 61
2, 41284, Note_on_c, 0, 49, 0
2, 41284, Note_on_c, 0, 62, 0
2, 41289, Note_on_c, 0, 59, 0
2, 41444, Note_on_c, 0, 64, 84
2, 41456, Note_on_c, 0, 55, 73
2, 41470, Note_on_c, 0, 52, 0
2, 41504, Note_on_c, 0, 61, 0
2, 41707, Note_on_c, 0, 57, 79
2, 41712, Note_on_c, 0, 50, 66
2, 41779, Note_on_c, 0, 64, 0
2, 41792, Note_on_c, 0, 55, 0
2, 41834, Note_on_c, 0, 45, 0
2, 41961, Note_on_c, 0, 64, 87
2, 41964, Note_on_c, 0, 55, 68
2, 42205, Note_on_c, 0, 53, 70
2, 42216, Note_on_c, 0, 62, 85
2, 42232, Note_on_c, 0, 57, 0
2, 42280, Note_on_c, 0, 64, 0
2, 42381, Note_on_c, 0, 55, 0
2, 42454, Note_on_c, 0, 52, 65
2, 42466, Note_on_c, 0, 61, 79
2, 42496, Note_on_c, 0, 53, 0
2, 42498, Note_on_c, 0, 62, 0
2, 42731, Note_on_c, 0, 53, 71
2, 42738, Note_on_c, 0, 61, 0
2, 42740, Note_on_c, 0, 62, 81
2, 42841, Note_on_c, 0, 52, 0
2, 42980, Note_on_c, 0, 69, 83
2, 43023, Note_on_c, 0, 62, 0
2, 43252, Note_on_c, 0, 45, 65
2, 43252, Note_on_c, 0, 71, 93
2, 43267, Note_on_c, 0, 50, 0
2, 43289, Note_on_c, 0, 69, 0
2, 43519, Note_on_c, 0, 73, 90
2, 43562, Note_on_c, 0, 71, 0
2, 43769, Note_on_c, 0, 46, 71
2, 43773, Note_on_c, 0, 74, 87
2, 43816, Note_on_c, 0, 73, 0
2, 43827, Note_on_c, 0, 45, 0
2, 44028, Note_on_c, 0, 77, 88
2, 44043, Note_on_c, 0, 74, 0
2, 44282, Note_on_c, 0, 69, 70
2, 44296, Note_on_c, 0, 50, 57
2, 44354, Note_on_c, 0, 53, 0
2, 44531, Note_on_c, 0, 72, 79
2, 44600, Note_on_c, 0, 69, 0
2, 44830, Note_on_c, 0, 43, 37
2, 44844, Note_on_c, 0, 70, 76
2, 44861, Note_on_c, 0, 55, 42
2, 44929, Note_on_c, 0, 72, 0
2, 44944, Note_on_c, 0, 77, 0
2, 45022, Note_on_c, 0, 46, 0
2, 45073, Note_on_c, 0, 50, 0
2, 45129, Note_on_c, 0, 77, 81
2, 45397, Note_on_c, 0, 75, 84
2, 45650, Note_on_c, 0, 74, 87
2, 45655, Note_on_c, 0, 77, 0
2, 45705, Note_on_c, 0, 75, 0
2, 45904, Note_on_c, 0, 75, 88
2, 45981, Note_on_c, 0, 74, 0
2, 46163, Note_on_c, 0, 79, 95
2, 46185, Note_on_c, 0, 75, 0
2, 46420, Note_on_c, 0, 73, 94
2, 46467, Note_on_c, 0, 79, 0
2, 46674, Note_on_c, 0, 74, 87
2, 46733, Note_on_c, 0, 73, 0
2, 46974, Note_on_c, 0, 45, 35
2, 47038, Note_on_c, 0, 73, 80
2, 47095, Note_on_c, 0, 70, 0
2, 47139, Note_on_c, 0, 74, 0
2, 47181, Note_on_c, 0, 43, 0
2, 47379, Note_on_c, 0, 70, 49
2, 47467, Note_on_c, 0, 55, 0
2, 47645, Note_on_c, 0, 69, 40
2, 47907, Note_on_c, 0, 55, 36
2, 48042, Note_on_c, 0, 70, 0
2, 48174, Note_on_c, 0, 54, 38
2, 48205, Note_on_c, 0, 69, 0
2, 48252, Note_on_c, 0, 55, 0
2, 48422, Note_on_c, 0, 69, 42
2, 48687, Note_on_c, 0, 74, 58
2, 48698, Note_on_c, 0, 53, 35
2, 48715, Note_on_c, 0, 73, 0
2, 48859, Note_on_c, 0, 54, 0
2, 48944, Note_on_c, 0, 68, 51
2, 48996, Note_on_c, 0, 69, 0
2, 49199, Note_on_c, 0, 52, 39
2, 49203, Note_on_c, 0, 69, 52
2, 49241, Note_on_c, 0, 74, 0
2, 49247, Note_on_c, 0, 68, 0
2, 49367, Note_on_c, 0, 53, 0
2, 49474, Note_on_c, 0, 74, 72
2, 49714, Note_on_c, 0, 50, 45
2, 49719, Note_on_c, 0, 73, 78
2, 49763, Note_on_c, 0, 74, 0
2, 49834, Note_on_c, 0, 52, 0
2, 49839, Note_on_c, 0, 45, 0
2, 49990, Note_on_c, 0, 71, 75
2, 50050, Note_on_c, 0, 73, 0
2, 50248, Note_on_c, 0, 73, 80
2, 50257, Note_on_c, 0, 45, 40
2, 50261, Note_on_c, 0, 52, 47
2, 50299, Note_on_c, 0, 71, 0
2, 50401, Note_on_c, 0, 50, 0
2, 50492, Note_on_c, 0, 74, 81
2, 50546, Note_on_c, 0, 73, 0
2, 50766, Note_on_c, 0, 76, 82
2, 50773, Note_on_c, 0, 57, 58
2, 50809, Note_on_c, 0, 74, 0
2, 50813, Note_on_c, 0, 69, 0
2, 50899, Note_on_c, 0, 52, 0
2, 51029, Note_on_c, 0, 67, 62
2, 51293, Note_on_c, 0, 50, 45
2, 51311, Note_on_c, 0, 65, 62
2, 51388, Note_on_c, 0, 45, 0
2, 51545, Note_on_c, 0, 76, 0
2, 51558, Note_on_c, 0, 69, 76
2, 51594, Note_on_c, 0, 67, 0
2, 51817, Note_on_c, 0, 74, 78
2, 51819, Note_on_c, 0, 58, 55
2, 51832, Note_on_c, 0, 69, 0
2, 51957, Note_on_c, 0, 57, 0
2, 52086, Note_on_c, 0, 73, 81
2, 52125, Note_on_c, 0, 74, 0
2, 52351, Note_on_c, 0, 74, 83
2, 52355, Note_on_c, 0, 57, 62
2, 52371, Note_on_c, 0, 73, 0
2, 52395, Note_on_c, 0, 65, 0
2, 52455, Note_on_c, 0, 58, 0
2, 52612, Note_on_c, 0, 65, 57
2, 52844, Note_on_c, 0, 70, 71
2, 52855, Note_on_c, 0, 55, 50
2, 52897, Note_on_c, 0, 74, 0
2, 52977, Note_on_c, 0, 57, 0
2, 53070, Note_on_c, 0, 65, 0
2, 53104, Note_on_c, 0, 76, 81
2, 53385, Note_on_c, 0, 77, 82
2, 53387, Note_on_c, 0, 53, 55
2, 53394, Note_on_c, 0, 69, 56
2, 53425, Note_on_c, 0, 76, 0
2, 53454, Note_on_c, 0, 55, 0
2, 53463, Note_on_c, 0, 70, 0
2, 53658, Note_on_c, 0, 55, 73
2, 53717, Note_on_c, 0, 53, 0
2, 53915, Note_on_c, 0, 57, 78
2, 53972, Note_on_c, 0, 55, 0
2, 53972, Note_on_c, 0, 69, 0
2, 54158, Note_on_c, 0, 48, 67
2, 54167, Note_on_c, 0, 69, 75
2, 54195, Note_on_c, 0, 50, 0
2, 54444, Note_on_c, 0, 47, 62
2, 54451, Note_on_c, 0, 74, 82
2, 54483, Note_on_c, 0, 48, 0
2, 54495, Note_on_c, 0, 77, 0
2, 54702, Note_on_c, 0, 76, 89
2, 54707, Note_on_c, 0, 56, 73
2, 54751, Note_on_c, 0, 57, 0
2, 54751, Note_on_c, 0, 74, 0
2, 54959, Note_on_c, 0, 77, 89
2, 54970, Note_on_c, 0, 57, 83
2, 54988, Note_on_c, 0, 76, 0
2, 54995, Note_on_c, 0, 56, 0
2, 55201, Note_on_c, 0, 57, 0
2, 55221, Note_on_c, 0, 74, 87
2, 55226, Note_on_c, 0, 45, 73
2, 55249, Note_on_c, 0, 47, 0
2, 55272, Note_on_c, 0, 77, 0
2, 55484, Note_on_c, 0, 44, 72
2, 55487, Note_on_c, 0, 76, 88
2, 55493, Note_on_c, 0, 45, 0
2, 55520, Note_on_c, 0, 74, 0
2, 55742, Note_on_c, 0, 74, 86
2, 55747, Note_on_c, 0, 52, 81
2, 55812, Note_on_c, 0, 69, 0
2, 55832, Note_on_c, 0, 44, 0
2, 55995, Note_on_c, 0, 72, 89
2, 56000, Note_on_c, 0, 54, 88
2, 56035, Note_on_c, 0, 52, 0
2, 56051, Note_on_c, 0, 74, 0
2, 56101, Note_on_c, 0, 76, 0
2, 56262, Note_on_c, 0, 56, 85
2, 56262, Note_on_c, 0, 71, 89
2, 56302, Note_on_c, 0, 72, 0
2, 56306, Note_on_c, 0, 54, 0
2, 56524, Note_on_c, 0, 57, 85
2, 56530, Note_on_c, 0, 72, 92
2, 56544, Note_on_c, 0, 71, 0
2, 56623, Note_on_c, 0, 56, 0
2, 56773, Note_on_c, 0, 48, 53
2, 56782, Note_on_c, 0, 76, 89
2, 57036, Note_on_c, 0, 81, 91
2, 57045, Note_on_c, 0, 53, 63
2, 57063, Note_on_c, 0, 76, 0
2, 57287, Note_on_c, 0, 52, 67
2, 57294, Note_on_c, 0, 80, 91
2, 57323, Note_on_c, 0, 53, 0
2, 57334, Note_on_c, 0, 81, 0
2, 57475, Note_on_c, 0, 48, 0
2, 57610, Note_on_c, 0, 81, 88
2, 57614, Note_on_c, 0, 53, 53
2, 57648, Note_on_c, 0, 80, 0
2, 57659, Note_on_c, 0, 57, 0
2, 57721, Note_on_c, 0, 52, 0
2, 57893, Note_on_c, 0, 73, 65
2, 57904, Note_on_c, 0, 57, 58
2, 57941, Note_on_c, 0, 72, 0
2, 58158, Note_on_c, 0, 59, 60
2, 58168, Note_on_c, 0, 74, 62
2, 58198, Note_on_c, 0, 57, 0
2, 58253, Note_on_c, 0, 73, 0
2, 58414, Note_on_c, 0, 61, 50
2, 58425, Note_on_c, 0, 76, 63
2, 58432, Note_on_c, 0, 74, 0
2, 58668, Note_on_c, 0, 69, 56
2, 58672, Note_on_c, 0, 76, 0
2, 58677, Note_on_c, 0, 62, 58
2, 58689, Note_on_c, 0, 59, 0
2, 58719, Note_on_c, 0, 53, 0
2, 58770, Note_on_c, 0, 61, 0
2, 58843, Note_on_c, 0, 81, 0
2, 58924, Note_on_c, 0, 79, 67
2, 58953, Note_on_c, 0, 52, 22
2, 59168, Note_on_c, 0, 81, 68
2, 59187, Note_on_c, 0, 53, 59
2, 59198, Note_on_c, 0, 79, 0
2, 59234, Note_on_c, 0, 52, 0
2, 59450, Note_on_c, 0, 50, 45
2, 59450, Note_on_c, 0, 77, 69
2, 59489, Note_on_c, 0, 81, 0
2, 59516, Note_on_c, 0, 53, 0
2, 59571, Note_on_c, 0, 77, 0
2, 59709, Note_on_c, 0, 74, 71
2, 59735, Note_on_c, 0, 58, 56
2, 59757, Note_on_c, 0, 62, 0
2, 59791, Note_on_c, 0, 50, 0
2, 59977, Note_on_c, 0, 66, 59
2, 60005, Note_on_c, 0, 62, 48
2, 60019, Note_on_c, 0, 69, 0
2, 60239, Note_on_c, 0, 67, 64
2, 60244, Note_on_c, 0, 66, 0
2, 60248, Note_on_c, 0, 64, 74
2, 60307, Note_on_c, 0, 62, 0
2, 60485, Note_on_c, 0, 69, 62
2, 60498, Note_on_c, 0, 66, 66
2, 60526, Note_on_c, 0, 67, 0
2, 60591, Note_on_c, 0, 64, 0
2, 60771, Note_on_c, 0, 74, 0
2, 60778, Note_on_c, 0, 70, 61
2, 60787, Note_on_c, 0, 67, 34
2, 60852, Note_on_c, 0, 69, 0
2, 60892, Note_on_c, 0, 66, 0
2, 61045, Note_on_c, 0, 77, 69
2, 61064, Note_on_c, 0, 70, 0
2, 61292, Note_on_c, 0, 76, 59
2, 61323, Note_on_c, 0, 77, 0
2, 61551, Note_on_c, 0, 79, 65
2, 61560, Note_on_c, 0, 76, 0
2, 61564, Note_on_c, 0, 65, 36
2, 61569, Note_on_c, 0, 67, 0
2, 61829, Note_on_c, 0, 72, 54
2, 61829, Note_on_c, 0, 79, 0
2, 61838, Note_on_c, 0, 64, 44
2, 61868, Note_on_c, 0, 65, 0
2, 61872, Note_on_c, 0, 58, 0
2, 62093, Note_on_c, 0, 57, 50
2, 62348, Note_on_c, 0, 70, 57
2, 62353, Note_on_c, 0, 55, 43
2, 62373, Note_on_c, 0, 72, 0
2, 62418, Note_on_c, 0, 57, 0
2, 62593, Note_on_c, 0, 58, 52
2, 62672, Note_on_c, 0, 55, 0
2, 62848, Note_on_c, 0, 57, 55
2, 62937, Note_on_c, 0, 58, 0
2, 63121, Note_on_c, 0, 69, 67
2, 63125, Note_on_c, 0, 64, 0
2, 63143, Note_on_c, 0, 60, 50
2, 63182, Note_on_c, 0, 70, 0
2, 63234, Note_on_c, 0, 67, 70
2, 63255, Note_on_c, 0, 69, 0
2, 63376, Note_on_c, 0, 69, 80
2, 63394, Note_on_c, 0, 65, 51
2, 63441, Note_on_c, 0, 60, 0
2, 63441, Note_on_c, 0, 67, 0
2, 63620, Note_on_c, 0, 75, 84
2, 63626, Note_on_c, 0, 72, 77
2, 63661, Note_on_c, 0, 69, 0
2, 63886, Note_on_c, 0, 74, 76
2, 63892, Note_on_c, 0, 70, 78
2, 63913, Note_on_c, 0, 75, 0
2, 63953, Note_on_c, 0, 72, 0
2, 64141, Note_on_c, 0, 55, 76
2, 64174, Note_on_c, 0, 57, 0
2, 64380, Note_on_c, 0, 53, 77
2, 64435, Note_on_c, 0, 55, 0
2, 64649, Note_on_c, 0, 57, 77
2, 64694, Note_on_c, 0, 53, 0
2, 64870, Note_on_c, 0, 65, 0
2, 64908, Note_on_c, 0, 58, 76
2, 64918, Note_on_c, 0, 55, 67
2, 64963, Note_on_c, 0, 57, 0
2, 65185, Note_on_c, 0, 77, 90
2, 65201, Note_on_c, 0, 70, 0
2, 65219, Note_on_c, 0, 55, 0
2, 65440, Note_on_c, 0, 70, 77
2, 65449, Note_on_c, 0, 48, 53
2, 65455, Note_on_c, 0, 60, 59
2, 65461, Note_on_c, 0, 55, 54
2, 65547, Note_on_c, 0, 74, 0
2, 65554, Note_on_c, 0, 58, 0
2, 65584, Note_on_c, 0, 77, 0
2, 65702, Note_on_c, 0, 76, 89
2, 65998, Note_on_c, 0, 53, 54
2, 66000, Note_on_c, 0, 77, 94
2, 66033, Note_on_c, 0, 76, 0
2, 66044, Note_on_c, 0, 70, 0
2, 66089, Note_on_c, 0, 48, 0
2, 66221, Note_on_c, 0, 55, 0
2, 66245, Note_on_c, 0, 67, 73
2, 66508, Note_on_c, 0, 69, 83
2, 66520, Note_on_c, 0, 67, 0
2, 66736, Note_on_c, 0, 77, 0
2, 66747, Note_on_c, 0, 72, 90
2, 66752, Note_on_c, 0, 57, 65
2, 66792, Note_on_c, 0, 60, 0
2, 67003, Note_on_c, 0, 77, 88
2, 67021, Note_on_c, 0, 62, 81
2, 67271, Note_on_c, 0, 81, 85
2, 67326, Note_on_c, 0, 69, 0
2, 67382, Note_on_c, 0, 57, 0
2, 67443, Note_on_c, 0, 77, 0
2, 67499, Note_on_c, 0, 81, 0
2, 67541, Note_on_c, 0, 65, 74
2, 67541, Note_on_c, 0, 74, 81
2, 67576, Note_on_c, 0, 72, 0
2, 67797, Note_on_c, 0, 77, 89
2, 67844, Note_on_c, 0, 65, 0
2, 67898, Note_on_c, 0, 74, 0
2, 68044, Note_on_c, 0, 53, 0
2, 68062, Note_on_c, 0, 67, 76
2, 68062, Note_on_c, 0, 71, 77
2, 68154, Note_on_c, 0, 77, 0
2, 68316, Note_on_c, 0, 74, 87
2, 68332, Note_on_c, 0, 53, 52
2, 68401, Note_on_c, 0, 67, 0
2, 68578, Note_on_c, 0, 79, 89
2, 68587, Note_on_c, 0, 52, 52
2, 68608, Note_on_c, 0, 71, 0
2, 68619, Note_on_c, 0, 53, 0
2, 68624, Note_on_c, 0, 74, 0
2, 68839, Note_on_c, 0, 71, 64
2, 68855, Note_on_c, 0, 50, 43
2, 68861, Note_on_c, 0, 52, 0
2, 69099, Note_on_c, 0, 73, 69
2, 69114, Note_on_c, 0, 50, 0
2, 69118, Note_on_c, 0, 52, 40
2, 69118, Note_on_c, 0, 55, 48
2, 69166, Note_on_c, 0, 62, 0
2, 69177, Note_on_c, 0, 79, 0
2, 69293, Note_on_c, 0, 71, 0
2, 69375, Note_on_c, 0, 79, 71
2, 69636, Note_on_c, 0, 45, 46
2, 69652, Note_on_c, 0, 57, 41
2, 69652, Note_on_c, 0, 77, 63
2, 69722, Note_on_c, 0, 79, 0
2, 69754, Note_on_c, 0, 55, 0
2, 69763, Note_on_c, 0, 52, 0
2, 69909, Note_on_c, 0, 76, 60
2, 69909, Note_on_c, 0, 77, 0
2, 70140, Note_on_c, 0, 45, 0
2, 70153, Note_on_c, 0, 50, 46
2, 70164, Note_on_c, 0, 74, 52
2, 70173, Note_on_c, 0, 77, 56
2, 70237, Note_on_c, 0, 76, 0
2, 70246, Note_on_c, 0, 73, 0
2, 70418, Note_on_c, 0, 52, 59
2, 70437, Note_on_c, 0, 57, 0
2, 70665, Note_on_c, 0, 53, 69
2, 70736, Note_on_c, 0, 52, 0
2, 70798, Note_on_c, 0, 72, 74
2, 70855, Note_on_c, 0, 74, 0
2, 70906, Note_on_c, 0, 70, 78
2, 70942, Note_on_c, 0, 57, 58
2, 70950, Note_on_c, 0, 72, 0
2, 71026, Note_on_c, 0, 69, 74
2, 71053, Note_on_c, 0, 70, 0
2, 71179, Note_on_c, 0, 62, 49
2, 71179, Note_on_c, 0, 70, 86
2, 71227, Note_on_c, 0, 69, 0
2, 71276, Note_on_c, 0, 53, 0
2, 71280, Note_on_c, 0, 57, 0
2, 71441, Note_on_c, 0, 74, 88
2, 71467, Note_on_c, 0, 77, 0
2, 71715, Note_on_c, 0, 77, 92
2, 71973, Note_on_c, 0, 69, 82
2, 71975, Note_on_c, 0, 60, 54
2, 72023, Note_on_c, 0, 62, 0
2, 72023, Note_on_c, 0, 70, 0
2, 72236, Note_on_c, 0, 68, 89
2, 72245, Note_on_c, 0, 59, 63
2, 72249, Note_on_c, 0, 60, 0
2, 72265, Note_on_c, 0, 50, 0
2, 72274, Note_on_c, 0, 77, 0
2, 72337, Note_on_c, 0, 74, 0
2, 72348, Note_on_c, 0, 69, 0
2, 72491, Note_on_c, 0, 77, 90
2, 72497, Note_on_c, 0, 50, 58
2, 72750, Note_on_c, 0, 48, 75
2, 72753, Note_on_c, 0, 76, 80
2, 72777, Note_on_c, 0, 50, 0
2, 72786, Note_on_c, 0, 68, 0
2, 72997, Note_on_c, 0, 47, 76
2, 73002, Note_on_c, 0, 68, 88
2, 73026, Note_on_c, 0, 48, 0
2, 73059, Note_on_c, 0, 76, 0
2, 73273, Note_on_c, 0, 48, 72
2, 73273, Note_on_c, 0, 69, 87
2, 73311, Note_on_c, 0, 68, 0
2, 73344, Note_on_c, 0, 47, 0
2, 73518, Note_on_c, 0, 75, 87
2, 73556, Note_on_c, 0, 77, 0
2, 73785, Note_on_c, 0, 53, 60
2, 73785, Note_on_c, 0, 74, 87
2, 73795, Note_on_c, 0, 75, 0
2, 73812, Note_on_c, 0, 59, 0
2, 74052, Note_on_c, 0, 73, 91
2, 74095, Note_on_c, 0, 74, 0
2, 74315, Note_on_c, 0, 74, 84
2, 74319, Note_on_c, 0, 46, 49
2, 74369, Note_on_c, 0, 73, 0
2, 74375, Note_on_c, 0, 69, 0
2, 74386, Note_on_c, 0, 48, 0
2, 74573, Note_on_c, 0, 53, 0
2, 74579, Note_on_c, 0, 50, 66
2, 74579, Note_on_c, 0, 72, 81
2, 74829, Note_on_c, 0, 70, 81
2, 74843, Note_on_c, 0, 52, 79
2, 74887, Note_on_c, 0, 50, 0
2, 74903, Note_on_c, 0, 72, 0
2, 75091, Note_on_c, 0, 69, 82
2, 75093, Note_on_c, 0, 54, 78
2, 75148, Note_on_c, 0, 52, 0
2, 75159, Note_on_c, 0, 70, 0
2, 75347, Note_on_c, 0, 55, 82
2, 75347, Note_on_c, 0, 70, 83
2, 75397, Note_on_c, 0, 69, 0
2, 75408, Note_on_c, 0, 54, 0
2, 75591, Note_on_c, 0, 57, 81
2, 75594, Note_on_c, 0, 66, 80
2, 75660, Note_on_c, 0, 55, 0
2, 75714, Note_on_c, 0, 74, 0
2, 75859, Note_on_c, 0, 67, 88
2, 75861, Note_on_c, 0, 58, 66
2, 75937, Note_on_c, 0, 66, 0
2, 76017, Note_on_c, 0, 57, 0
2, 76102, Note_on_c, 0, 74, 86
2, 76109, Note_on_c, 0, 51, 64
2, 76125, Note_on_c, 0, 70, 0
2, 76147, Note_on_c, 0, 58, 0
2, 76152, Note_on_c, 0, 46, 0
2, 76378, Note_on_c, 0, 73, 77
2, 76392, Note_on_c, 0, 45, 48
2, 76429, Note_on_c, 0, 74, 0
2, 76447, Note_on_c, 0, 51, 0
2, 76659, Note_on_c, 0, 57, 55
2, 76879, Note_on_c, 0, 57, 0
2, 76883, Note_on_c, 0, 52, 52
2, 76883, Note_on_c, 0, 72, 72
2, 76915, Note_on_c, 0, 73, 0
2, 77134, Note_on_c, 0, 70, 71
2, 77159, Note_on_c, 0, 55, 47
2, 77185, Note_on_c, 0, 52, 0
2, 77376, Note_on_c, 0, 67, 0
2, 77387, Note_on_c, 0, 69, 67
2, 77391, Note_on_c, 0, 54, 55
2, 77396, Note_on_c, 0, 55, 0
2, 77411, Note_on_c, 0, 70, 0
2, 77635, Note_on_c, 0, 67, 65
2, 77639, Note_on_c, 0, 55, 48
2, 77688, Note_on_c, 0, 54, 0
2, 77898, Note_on_c, 0, 66, 70
2, 77911, Note_on_c, 0, 57, 52
2, 77911, Note_on_c, 0, 67, 0
2, 77924, Note_on_c, 0, 72, 0
2, 77931, Note_on_c, 0, 55, 0
2, 77954, Note_on_c, 0, 69, 0
2, 78159, Note_on_c, 0, 54, 50
2, 78159, Note_on_c, 0, 63, 63
2, 78159, Note_on_c, 0, 72, 72
2, 78183, Note_on_c, 0, 45, 0
2, 78302, Note_on_c, 0, 57, 0
2, 78384, Note_on_c, 0, 63, 0
2, 78418, Note_on_c, 0, 71, 68
2, 78422, Note_on_c, 0, 43, 54
2, 78428, Note_on_c, 0, 62, 60
2, 78467, Note_on_c, 0, 66, 0
2, 78675, Note_on_c, 0, 64, 73
2, 78695, Note_on_c, 0, 55, 51
2, 78723, Note_on_c, 0, 62, 0
2, 78727, Note_on_c, 0, 71, 0
2, 78748, Note_on_c, 0, 72, 0
2, 78869, Note_on_c, 0, 54, 0
2, 78930, Note_on_c, 0, 50, 55
2, 78945, Note_on_c, 0, 65, 61
2, 78945, Note_on_c, 0, 70, 69
2, 78959, Note_on_c, 0, 64, 0
2, 78979, Note_on_c, 0, 55, 0
2, 79193, Note_on_c, 0, 53, 65
2, 79193, Note_on_c, 0, 69, 71
2, 79226, Note_on_c, 0, 50, 0
2, 79459, Note_on_c, 0, 52, 72
2, 79472, Note_on_c, 0, 67, 77
2, 79501, Note_on_c, 0, 65, 0
2, 79510, Note_on_c, 0, 53, 0
2, 79542, Note_on_c, 0, 69, 0
2, 79725, Note_on_c, 0, 53, 77
2, 79729, Note_on_c, 0, 65, 81
2, 79729, Note_on_c, 0, 67, 0
2, 79804, Note_on_c, 0, 52, 0
2, 79976, Note_on_c, 0, 55, 79
2, 79986, Note_on_c, 0, 64, 80
2, 80010, Note_on_c, 0, 65, 0
2, 80033, Note_on_c, 0, 53, 0
2, 80042, Note_on_c, 0, 70, 0
2, 80221, Note_on_c, 0, 70, 79
2, 80225, Note_on_c, 0, 61, 76
2, 80229, Note_on_c, 0, 52, 74
2, 80309, Note_on_c, 0, 43, 0
2, 80335, Note_on_c, 0, 55, 0
2, 80506, Note_on_c, 0, 61, 0
2, 80522, Note_on_c, 0, 64, 0
2, 80531, Note_on_c, 0, 69, 69
2, 80533, Note_on_c, 0, 41, 58
2, 80535, Note_on_c, 0, 60, 62
2, 80558, Note_on_c, 0, 70, 0
2, 80624, Note_on_c, 0, 52, 0
2, 80787, Note_on_c, 0, 48, 73
2, 81037, Note_on_c, 0, 50, 80
2, 81152, Note_on_c, 0, 48, 0
2, 81302, Note_on_c, 0, 52, 84
2, 81331, Note_on_c, 0, 41, 0
2, 81383, Note_on_c, 0, 50, 0
2, 81556, Note_on_c, 0, 53, 87
2, 81605, Note_on_c, 0, 52, 0
2, 81821, Note_on_c, 0, 57, 89
2, 82037, Note_on_c, 0, 53, 0
2, 82062, Note_on_c, 0, 65, 82
2, 82066, Note_on_c, 0, 50, 66
2, 82090, Note_on_c, 0, 69, 0
2, 82297, Note_on_c, 0, 57, 0
2, 82305, Note_on_c, 0, 53, 76
2, 82328, Note_on_c, 0, 50, 0
2, 82579, Note_on_c, 0, 47, 61
2, 82583, Note_on_c, 0, 67, 80
2, 82622, Note_on_c, 0, 65, 0
2, 82666, Note_on_c, 0, 53, 0
2, 82835, Note_on_c, 0, 65, 77
2, 82946, Note_on_c, 0, 60, 0
2, 83088, Note_on_c, 0, 64, 83
2, 83093, Note_on_c, 0, 43, 56
2, 83140, Note_on_c, 0, 65, 0
2, 83179, Note_on_c, 0, 47, 0
2, 83346, Note_on_c, 0, 62, 80
2, 83407, Note_on_c, 0, 64, 0
2, 83473, Note_on_c, 0, 67, 0
2, 83639, Note_on_c, 0, 48, 43
2, 83643, Note_on_c, 0, 62, 0
2, 83643, Note_on_c, 0, 64, 69
2, 83882, Note_on_c, 0, 43, 0
2, 83908, Note_on_c, 0, 67, 70
2, 84182, Note_on_c, 0, 69, 63
2, 84214, Note_on_c, 0, 67, 0
2, 84438, Note_on_c, 0, 72, 65
2, 84481, Note_on_c, 0, 64, 0
2, 84505, Note_on_c, 0, 69, 0
2, 84711, Note_on_c, 0, 62, 42
2, 84711, Note_on_c, 0, 65, 44
2, 84741, Note_on_c, 0, 72, 0
2, 84973, Note_on_c, 0, 50, 55
2, 85023, Note_on_c, 0, 48, 0
2, 85078, Note_on_c, 0, 52, 64
2, 85096, Note_on_c, 0, 50, 0
2, 85203, Note_on_c, 0, 53, 66
2, 85210, Note_on_c, 0, 52, 0
2, 85316, Note_on_c, 0, 55, 63
2, 85328, Note_on_c, 0, 53, 0
2, 85440, Note_on_c, 0, 55, 0
2, 85444, Note_on_c, 0, 57, 48
2, 85725, Note_on_c, 0, 47, 42
2, 85870, Note_on_c, 0, 57, 0
2, 85961, Note_on_c, 0, 65, 0
2, 85972, Note_on_c, 0, 74, 62
2, 86064, Note_on_c, 0, 74, 0
2, 86075, Note_on_c, 0, 72, 66
2, 86219, Note_on_c, 0, 72, 0
2, 86224, Note_on_c, 0, 74, 67
2, 86251, Note_on_c, 0, 55, 38
2, 86478, Note_on_c, 0, 65, 67
2, 86495, Note_on_c, 0, 74, 0
2, 86599, Note_on_c, 0, 62, 0
2, 86599, Note_on_c, 0, 62, 21
2, 86626, Note_on_c, 0, 65, 0
2, 86739, Note_on_c, 0, 48, 39
2, 86739, Note_on_c, 0, 64, 76
2, 86811, Note_on_c, 0, 62, 0
2, 86931, Note_on_c, 0, 47, 0
2, 86991, Note_on_c, 0, 62, 54
2, 87265, Note_on_c, 0, 60, 64
2, 87269, Note_on_c, 0, 62, 0
2, 87510, Note_on_c, 0, 59, 74
2, 87570, Note_on_c, 0, 60, 0
2, 87638, Note_on_c, 0, 64, 0
2, 87790, Note_on_c, 0, 60, 79
2, 87808, Note_on_c, 0, 59, 0
2, 88031, Note_on_c, 0, 67, 83
2, 88292, Note_on_c, 0, 69, 86
2, 88295, Note_on_c, 0, 47, 65
2, 88358, Note_on_c, 0, 67, 0
2, 88363, Note_on_c, 0, 48, 0
2, 88554, Note_on_c, 0, 71, 91
2, 88616, Note_on_c, 0, 69, 0
2, 88640, Note_on_c, 0, 60, 0
2, 88834, Note_on_c, 0, 45, 46
2, 88841, Note_on_c, 0, 72, 85
2, 88894, Note_on_c, 0, 71, 0
2, 88989, Note_on_c, 0, 47, 0
2, 89108, Note_on_c, 0, 69, 54
2, 89146, Note_on_c, 0, 55, 0
2, 89345, Note_on_c, 0, 64, 67
2, 89361, Note_on_c, 0, 48, 54
2, 89361, Note_on_c, 0, 57, 67
2, 89548, Note_on_c, 0, 45, 0
2, 89610, Note_on_c, 0, 67, 78
2, 89688, Note_on_c, 0, 69, 0
2, 89864, Note_on_c, 0, 50, 66
2, 89864, Note_on_c, 0, 66, 82
2, 89931, Note_on_c, 0, 67, 0
2, 89972, Note_on_c, 0, 64, 0
2, 89975, Note_on_c, 0, 48, 0
2, 90133, Note_on_c, 0, 69, 79
2, 90357, Note_on_c, 0, 72, 0
2, 90383, Note_on_c, 0, 54, 63
2, 90392, Note_on_c, 0, 62, 82
2, 90636, Note_on_c, 0, 57, 0
2, 90645, Note_on_c, 0, 72, 90
2, 90715, Note_on_c, 0, 69, 0
2, 90905, Note_on_c, 0, 43, 56
2, 90919, Note_on_c, 0, 71, 80
2, 90951, Note_on_c, 0, 50, 0
2, 91009, Note_on_c, 0, 72, 0
2, 91025, Note_on_c, 0, 66, 0
2, 91160, Note_on_c, 0, 50, 73
2, 91195, Note_on_c, 0, 54, 0
2, 91428, Note_on_c, 0, 52, 86
2, 91464, Note_on_c, 0, 43, 0
2, 91509, Note_on_c, 0, 50, 0
2, 91673, Note_on_c, 0, 54, 89
2, 91717, Note_on_c, 0, 52, 0
2, 91728, Note_on_c, 0, 62, 0
2, 91877, Note_on_c, 0, 71, 0
2, 91937, Note_on_c, 0, 55, 89
2, 91996, Note_on_c, 0, 54, 0
2, 92200, Note_on_c, 0, 59, 91
2, 92464, Note_on_c, 0, 52, 65
2, 92464, Note_on_c, 0, 67, 77
2, 92468, Note_on_c, 0, 55, 0
2, 92468, Note_on_c, 0, 73, 88
2, 92568, Note_on_c, 0, 74, 84
2, 92692, Note_on_c, 0, 76, 92
2, 92696, Note_on_c, 0, 55, 74
2, 92723, Note_on_c, 0, 52, 0
2, 92744, Note_on_c, 0, 74, 0
2, 92755, Note_on_c, 0, 73, 0
2, 92867, Note_on_c, 0, 76, 0
2, 92889, Note_on_c, 0, 59, 0
2, 92971, Note_on_c, 0, 49, 77
2, 92971, Note_on_c, 0, 69, 86
2, 93021, Note_on_c, 0, 67, 0
2, 93074, Note_on_c, 0, 55, 0
2, 93246, Note_on_c, 0, 67, 75
2, 93484, Note_on_c, 0, 45, 70
2, 93484, Note_on_c, 0, 65, 77
2, 93495, Note_on_c, 0, 67, 0
2, 93548, Note_on_c, 0, 49, 0
2, 93749, Note_on_c, 0, 64, 80
2, 93793, Note_on_c, 0, 65, 0
2, 93848, Note_on_c, 0, 69, 0
2, 94008, Note_on_c, 0, 65, 78
2, 94013, Note_on_c, 0, 50, 70
2, 94042, Note_on_c, 0, 64, 0
2, 94169, Note_on_c, 0, 45, 0
2, 94263, Note_on_c, 0, 69, 75
2, 94523, Note_on_c, 0, 48, 58
2, 94526, Note_on_c, 0, 70, 71
2, 94566, Note_on_c, 0, 69, 0
2, 94593, Note_on_c, 0, 50, 0
2, 94787, Note_on_c, 0, 72, 68
2, 94815, Note_on_c, 0, 70, 0
2, 95037, Note_on_c, 0, 72, 0
2, 95057, Note_on_c, 0, 74, 64
2, 95061, Note_on_c, 0, 46, 50
2, 95173, Note_on_c, 0, 48, 0
2, 95177, Note_on_c, 0, 72, 68
2, 95242, Note_on_c, 0, 74, 0
2, 95295, Note_on_c, 0, 70, 66
2, 95319, Note_on_c, 0, 72, 0
2, 95414, Note_on_c, 0, 70, 0
2, 95417, Note_on_c, 0, 69, 61
2, 95542, Note_on_c, 0, 45, 38
2, 95553, Note_on_c, 0, 70, 71
2, 95569, Note_on_c, 0, 69, 0
2, 95638, Note_on_c, 0, 46, 0
2, 95763, Note_on_c, 0, 65, 0
2, 95803, Note_on_c, 0, 74, 75
2, 96057, Note_on_c, 0, 46, 51
2, 96064, Note_on_c, 0, 67, 69
2, 96115, Note_on_c, 0, 70, 0
2, 96135, Note_on_c, 0, 74, 0
2, 96204, Note_on_c, 0, 45, 0
2, 96335, Note_on_c, 0, 77, 92
2, 96605, Note_on_c, 0, 76, 84
2, 96616, Note_on_c, 0, 43, 46
2, 96755, Note_on_c, 0, 46, 0
2, 96832, Note_on_c, 0, 77, 0
2, 96845, Note_on_c, 0, 74, 89
2, 96916, Note_on_c, 0, 76, 0
2, 97018, Note_on_c, 0, 74, 0
2, 97122, Note_on_c, 0, 45, 48
2, 97127, Note_on_c, 0, 73, 89
2, 97307, Note_on_c, 0, 43, 0
2, 97423, Note_on_c, 0, 70, 51
2, 97682, Note_on_c, 0, 69, 48
2, 97708, Note_on_c, 0, 67, 0
2, 97708, Note_on_c, 0, 70, 0
2, 97918, Note_on_c, 0, 69, 0
2, 97929, Note_on_c, 0, 67, 44
2, 98202, Note_on_c, 0, 65, 40
2, 98449, Note_on_c, 0, 69, 37
2, 98453, Note_on_c, 0, 67, 0
2, 98718, Note_on_c, 0, 65, 0
2, 98733, Note_on_c, 0, 74, 57
2, 98769, Note_on_c, 0, 69, 0
2, 99004, Note_on_c, 0, 65, 42
2, 99086, Note_on_c, 0, 73, 0
2, 99262, Note_on_c, 0, 64, 46
2, 99349, Note_on_c, 0, 65, 0
2, 99512, Note_on_c, 0, 52, 38
2, 99527, Note_on_c, 0, 74, 0
2, 99793, Note_on_c, 0, 74, 60
2, 99800, Note_on_c, 0, 53, 42
2, 99839, Note_on_c, 0, 45, 0
2, 99929, Note_on_c, 0, 52, 0
2, 100056, Note_on_c, 0, 55, 48
2, 100087, Note_on_c, 0, 53, 0
2, 100300, Note_on_c, 0, 72, 66
2, 100315, Note_on_c, 0, 57, 57
2, 100343, Note_on_c, 0, 55, 0
2, 100424, Note_on_c, 0, 74, 0
2, 100566, Note_on_c, 0, 60, 61
2, 100811, Note_on_c, 0, 57, 0
2, 100822, Note_on_c, 0, 70, 67
2, 100833, Note_on_c, 0, 52, 53
2, 100833, Note_on_c, 0, 67, 61
2, 100872, Note_on_c, 0, 72, 0
2, 101090, Note_on_c, 0, 55, 63
2, 101134, Note_on_c, 0, 52, 0
2, 101324, Note_on_c, 0, 54, 67
2, 101338, Note_on_c, 0, 69, 72
2, 101364, Note_on_c, 0, 67, 0
2, 101386, Note_on_c, 0, 70, 0
2, 101421, Note_on_c, 0, 55, 0
2, 101590, Note_on_c, 0, 67, 82
2, 101596, Note_on_c, 0, 57, 71
2, 101663, Note_on_c, 0, 69, 0
2, 101845, Note_on_c, 0, 66, 83
2, 101856, Note_on_c, 0, 50, 66
2, 101867, Note_on_c, 0, 60, 0
2, 101891, Note_on_c, 0, 54, 0
2, 101940, Note_on_c, 0, 67, 0
2, 101958, Note_on_c, 0, 64, 0
2, 102101, Note_on_c, 0, 69, 82
2, 102115, Note_on_c, 0, 60, 72
2, 102149, Note_on_c, 0, 66, 0
2, 102359, Note_on_c, 0, 55, 64
2, 102368, Note_on_c, 0, 62, 84
2, 102410, Note_on_c, 0, 57, 0
2, 102457, Note_on_c, 0, 50, 0
2, 102462, Note_on_c, 0, 69, 0
2, 102499, Note_on_c, 0, 60, 0
2, 102626, Note_on_c, 0, 69, 79
2, 102636, Note_on_c, 0, 60, 72
2, 102885, Note_on_c, 0, 58, 71
2, 102885, Note_on_c, 0, 67, 81
2, 102891, Note_on_c, 0, 62, 0
2, 102961, Note_on_c, 0, 69, 0
2, 103014, Note_on_c, 0, 60, 0
2, 103130, Note_on_c, 0, 57, 76
2, 103130, Note_on_c, 0, 66, 82
2, 103160, Note_on_c, 0, 67, 0
2, 103182, Note_on_c, 0, 58, 0
2, 103397, Note_on_c, 0, 58, 70
2, 103404, Note_on_c, 0, 66, 0
2, 103404, Note_on_c, 0, 67, 81
2, 103502, Note_on_c, 0, 57, 0
2, 103661, Note_on_c, 0, 74, 88
2, 103705, Note_on_c, 0, 67, 0
2, 103925, Note_on_c, 0, 76, 92
2, 103941, Note_on_c, 0, 50, 51
2, 103965, Note_on_c, 0, 74, 0
2, 103982, Note_on_c, 0, 55, 0
2, 104193, Note_on_c, 0, 78, 90
2, 104240, Note_on_c, 0, 76, 0
2, 104444, Note_on_c, 0, 51, 61
2, 104444, Note_on_c, 0, 79, 87
2, 104468, Note_on_c, 0, 78, 0
2, 104534, Note_on_c, 0, 50, 0
2, 104684, Note_on_c, 0, 58, 0
2, 104722, Note_on_c, 0, 82, 84
2, 104762, Note_on_c, 0, 79, 0
2, 104980, Note_on_c, 0, 74, 65
2, 104991, Note_on_c, 0, 55, 48
2, 105232, Note_on_c, 0, 77, 73
2, 105248, Note_on_c, 0, 74, 0
2, 105305, Note_on_c, 0, 82, 0
2, 105510, Note_on_c, 0, 75, 51
2, 105514, Note_on_c, 0, 48, 32
2, 105519, Note_on_c, 0, 60, 38
2, 105615, Note_on_c, 0, 77, 0
2, 105665, Note_on_c, 0, 51, 0
2, 105775, Note_on_c, 0, 55, 0
2, 105786, Note_on_c, 0, 82, 67
2, 106036, Note_on_c, 0, 80, 67
2, 106087, Note_on_c, 0, 82, 0
2, 106304, Note_on_c, 0, 79, 70
2, 106331, Note_on_c, 0, 80, 0
2, 106556, Note_on_c, 0, 80, 70
2, 106602, Note_on_c, 0, 79, 0
2, 106818, Note_on_c, 0, 84, 77
2, 106850, Note_on_c, 0, 80, 0
2, 107096, Note_on_c, 0, 78, 72
2, 107147, Note_on_c, 0, 84, 0
2, 107364, Note_on_c, 0, 75, 0
2, 107369, Note_on_c, 0, 79, 79
2, 107417, Note_on_c, 0, 78, 0
2, 107664, Note_on_c, 0, 50, 26
2, 107775, Note_on_c, 0, 78, 75
2, 107865, Note_on_c, 0, 48, 0
2, 107889, Note_on_c, 0, 79, 0
2, 108045, Note_on_c, 0, 60, 0
2, 108139, Note_on_c, 0, 75, 46
2, 108426, Note_on_c, 0, 74, 46
2, 108680, Note_on_c, 0, 60, 37
2, 108728, Note_on_c, 0, 75, 0
2, 108938, Note_on_c, 0, 59, 46
2, 108956, Note_on_c, 0, 60, 0
2, 108963, Note_on_c, 0, 74, 0
2, 109194, Note_on_c, 0, 74, 47
2, 109464, Note_on_c, 0, 79, 67
2, 109479, Note_on_c, 0, 58, 33
2, 109486, Note_on_c, 0, 78, 0
2, 109598, Note_on_c, 0, 59, 0
2, 109721, Note_on_c, 0, 73, 56
2, 109761, Note_on_c, 0, 74, 0
2, 109988, Note_on_c, 0, 74, 69
2, 110013, Note_on_c, 0, 57, 40
2, 110031, Note_on_c, 0, 79, 0
2, 110052, Note_on_c, 0, 73, 0
2, 110156, Note_on_c, 0, 58, 0
2, 110254, Note_on_c, 0, 79, 80
2, 110509, Note_on_c, 0, 78, 83
2, 110520, Note_on_c, 0, 55, 45
2, 110569, Note_on_c, 0, 79, 0
2, 110630, Note_on_c, 0, 50, 0
2, 110630, Note_on_c, 0, 57, 0
2, 110785, Note_on_c, 0, 76, 83
2, 110860, Note_on_c, 0, 78, 0
2, 111042, Note_on_c, 0, 50, 45
2, 111044, Note_on_c, 0, 78, 87
2, 111054, Note_on_c, 0, 57, 54
2, 111096, Note_on_c, 0, 76, 0
2, 111173, Note_on_c, 0, 55, 0
2, 111311, Note_on_c, 0, 79, 88
2, 111376, Note_on_c, 0, 78, 0
2, 111576, Note_on_c, 0, 62, 58
2, 111580, Note_on_c, 0, 81, 82
2, 111613, Note_on_c, 0, 74, 0
2, 111618, Note_on_c, 0, 79, 0
2, 111680, Note_on_c, 0, 57, 0
2, 111827, Note_on_c, 0, 72, 76
2, 112095, Note_on_c, 0, 70, 70
2, 112101, Note_on_c, 0, 55, 50
2, 112141, Note_on_c, 0, 50, 0
2, 112293, Note_on_c, 0, 81, 0
2, 112361, Note_on_c, 0, 74, 77
2, 112386, Note_on_c, 0, 72, 0
2, 112628, Note_on_c, 0, 79, 81
2, 112637, Note_on_c, 0, 63, 61
2, 112637, Note_on_c, 0, 72, 77
2, 112647, Note_on_c, 0, 74, 0
2, 112663, Note_on_c, 0, 70, 0
2, 112697, Note_on_c, 0, 62, 0
2, 112902, Note_on_c, 0, 78, 81
2, 112949, Note_on_c, 0, 79, 0
2, 113172, Note_on_c, 0, 79, 87
2, 113179, Note_on_c, 0, 62, 74
2, 113199, Note_on_c, 0, 78, 0
2, 113275, Note_on_c, 0, 63, 0
2, 113440, Note_on_c, 0, 70, 81
2, 113688, Note_on_c, 0, 60, 76
2, 113688, Note_on_c, 0, 75, 85
2, 113706, Note_on_c, 0, 72, 0
2, 113720, Note_on_c, 0, 79, 0
2, 113742, Note_on_c, 0, 62, 0
2, 113742, Note_on_c, 0, 70, 0
2, 113948, Note_on_c, 0, 81, 84
2, 113961, Note_on_c, 0, 75, 0
2, 114226, Note_on_c, 0, 82, 77
2, 114231, Note_on_c, 0, 58, 66
2, 114231, Note_on_c, 0, 74, 72
2, 114273, Note_on_c, 0, 81, 0
2, 114311, Note_on_c, 0, 60, 0
2, 114501, Note_on_c, 0, 60, 79
2, 114618, Note_on_c, 0, 58, 0
2, 114758, Note_on_c, 0, 62, 86
2, 114773, Note_on_c, 0, 74, 0
2, 114837, Note_on_c, 0, 60, 0
2, 115008, Note_on_c, 0, 74, 81
2, 115024, Note_on_c, 0, 53, 62
2, 115074, Note_on_c, 0, 55, 0
2, 115276, Note_on_c, 0, 79, 87
2, 115300, Note_on_c, 0, 52, 67
2, 115326, Note_on_c, 0, 82, 0
2, 115340, Note_on_c, 0, 53, 0
2, 115539, Note_on_c, 0, 61, 76
2, 115541, Note_on_c, 0, 81, 88
2, 115567, Note_on_c, 0, 62, 0
2, 115594, Note_on_c, 0, 79, 0
2, 115791, Note_on_c, 0, 82, 91
2, 115804, Note_on_c, 0, 62, 85
2, 115824, Note_on_c, 0, 61, 0
2, 115841, Note_on_c, 0, 81, 0
2, 116036, Note_on_c, 0, 62, 0
2, 116052, Note_on_c, 0, 79, 89
2, 116063, Note_on_c, 0, 50, 72
2, 116085, Note_on_c, 0, 52, 0
2, 116099, Note_on_c, 0, 82, 0
2, 116360, Note_on_c, 0, 49, 60
2, 116360, Note_on_c, 0, 81, 76
2, 116397, Note_on_c, 0, 50, 0
2, 116410, Note_on_c, 0, 79, 0
2, 116618, Note_on_c, 0, 79, 83
2, 116626, Note_on_c, 0, 57, 80
2, 116732, Note_on_c, 0, 49, 0
2, 116872, Note_on_c, 0, 77, 90
2, 116881, Note_on_c, 0, 59, 89
2, 116918, Note_on_c, 0, 57, 0
2, 116935, Note_on_c, 0, 79, 0
2, 117129, Note_on_c, 0, 61, 80
2, 117133, Note_on_c, 0, 76, 91
2, 117177, Note_on_c, 0, 59, 0
2, 117203, Note_on_c, 0, 77, 0
2, 117337, Note_on_c, 0, 74, 0
2, 117412, Note_on_c, 0, 77, 86
2, 117435, Note_on_c, 0, 62, 66
2, 117506, Note_on_c, 0, 61, 0
2, 117508, Note_on_c, 0, 76, 0
2, 117512, Note_on_c, 0, 81, 0
2, 117691, Note_on_c, 0, 57, 55
2, 117936, Note_on_c, 0, 50, 45
2, 117987, Note_on_c, 0, 62, 0
2, 118181, Note_on_c, 0, 53, 44
2, 118185, Note_on_c, 0, 50, 0
2, 118194, Note_on_c, 0, 80, 63
2, 118243, Note_on_c, 0, 77, 0
2, 118412, Note_on_c, 0, 57, 0
2, 118466, Note_on_c, 0, 47, 39
2, 118476, Note_on_c, 0, 79, 53
2, 118514, Note_on_c, 0, 80, 0
2, 118537, Note_on_c, 0, 53, 0
2, 118735, Note_on_c, 0, 77, 62
2, 118758, Note_on_c, 0, 55, 46
2, 119018, Note_on_c, 0, 57, 46
2, 119022, Note_on_c, 0, 47, 0
2, 119027, Note_on_c, 0, 76, 57
2, 119031, Note_on_c, 0, 77, 0
2, 119228, Note_on_c, 0, 55, 0
2, 119277, Note_on_c, 0, 59, 48
2, 119277, Note_on_c, 0, 74, 56
2, 119282, Note_on_c, 0, 76, 0
2, 119318, Note_on_c, 0, 57, 0
2, 119534, Note_on_c, 0, 60, 47
2, 119561, Note_on_c, 0, 59, 0
2, 119565, Note_on_c, 0, 76, 56
2, 119610, Note_on_c, 0, 74, 0
2, 119702, Note_on_c, 0, 79, 0
2, 119794, Note_on_c, 0, 55, 47
2, 119849, Note_on_c, 0, 60, 0
2, 120053, Note_on_c, 0, 48, 54
2, 120078, Note_on_c, 0, 55, 0
2, 120304, Note_on_c, 0, 79, 80
2, 120308, Note_on_c, 0, 52, 58
2, 120331, Note_on_c, 0, 76, 0
2, 120362, Note_on_c, 0, 48, 0
2, 120617, Note_on_c, 0, 45, 41
2, 120674, Note_on_c, 0, 78, 86
2, 120784, Note_on_c, 0, 52, 0
2, 120792, Note_on_c, 0, 79, 0
2, 120973, Note_on_c, 0, 75, 67
2, 121222, Note_on_c, 0, 74, 77
2, 121228, Note_on_c, 0, 57, 51
2, 121415, Note_on_c, 0, 75, 0
2, 121491, Note_on_c, 0, 72, 90
2, 121526, Note_on_c, 0, 74, 0
2, 121743, Note_on_c, 0, 47, 55
2, 121743, Note_on_c, 0, 74, 88
2, 121762, Note_on_c, 0, 57, 0
2, 121778, Note_on_c, 0, 78, 0
2, 121792, Note_on_c, 0, 72, 0
2, 121807, Note_on_c, 0, 45, 0
2, 122001, Note_on_c, 0, 76, 89
2, 122008, Note_on_c, 0, 55, 61
2, 122262, Note_on_c, 0, 50, 60
2, 122265, Note_on_c, 0, 67, 76
2, 122265, Note_on_c, 0, 77, 87
2, 122311, Note_on_c, 0, 76, 0
2, 122503, Note_on_c, 0, 47, 0
2, 122526, Note_on_c, 0, 53, 75
2, 122706, Note_on_c, 0, 77, 0
2, 122781, Note_on_c, 0, 52, 76
2, 122783, Note_on_c, 0, 48, 62
2, 122842, Note_on_c, 0, 50, 0
2, 122842, Note_on_c, 0, 53, 0
2, 122844, Note_on_c, 0, 55, 0
2, 123050, Note_on_c, 0, 53, 82
2, 123116, Note_on_c, 0, 52, 0
2, 123311, Note_on_c, 0, 76, 84
2, 123320, Note_on_c, 0, 72, 78
2, 123326, Note_on_c, 0, 55, 70
2, 123352, Note_on_c, 0, 74, 0
2, 123431, Note_on_c, 0, 53, 0
2, 123573, Note_on_c, 0, 71, 80
2, 123573, Note_on_c, 0, 74, 79
2, 123623, Note_on_c, 0, 76, 0
2, 123630, Note_on_c, 0, 72, 0
2, 123837, Note_on_c, 0, 76, 87
2, 123850, Note_on_c, 0, 72, 80
2, 123868, Note_on_c, 0, 74, 0
2, 123890, Note_on_c, 0, 71, 0
2, 124076, Note_on_c, 0, 52, 67
2, 124124, Note_on_c, 0, 48, 0
2, 124344, Note_on_c, 0, 45, 55
2, 124354, Note_on_c, 0, 70, 88
2, 124399, Note_on_c, 0, 67, 0
2, 124409, Note_on_c, 0, 52, 0
2, 124428, Note_on_c, 0, 72, 0
2, 124599, Note_on_c, 0, 48, 67
2, 124649, Note_on_c, 0, 45, 0
2, 124735, Note_on_c, 0, 55, 0
2, 124877, Note_on_c, 0, 69, 76
2, 124881, Note_on_c, 0, 41, 61
2, 124948, Note_on_c, 0, 76, 0
2, 124976, Note_on_c, 0, 48, 0
2, 124984, Note_on_c, 0, 70, 0
2, 125130, Note_on_c, 0, 76, 87
2, 125136, Note_on_c, 0, 48, 68
2, 125389, Note_on_c, 0, 74, 90
2, 125398, Note_on_c, 0, 50, 79
2, 125445, Note_on_c, 0, 76, 0
2, 125472, Note_on_c, 0, 41, 0
2, 125476, Note_on_c, 0, 48, 0
2, 125653, Note_on_c, 0, 52, 83
2, 125657, Note_on_c, 0, 72, 93
2, 125707, Note_on_c, 0, 50, 0
2, 125728, Note_on_c, 0, 74, 0
2, 125884, Note_on_c, 0, 69, 0
2, 125915, Note_on_c, 0, 53, 85
2, 125929, Note_on_c, 0, 52, 0
2, 125929, Note_on_c, 0, 74, 89
2, 125985, Note_on_c, 0, 72, 0
2, 126172, Note_on_c, 0, 77, 92
2, 126184, Note_on_c, 0, 57, 85
2, 126221, Note_on_c, 0, 74, 0
2, 126449, Note_on_c, 0, 81, 88
2, 126453, Note_on_c, 0, 62, 93
2, 126476, Note_on_c, 0, 77, 0
2, 126548, Note_on_c, 0, 57, 0
2, 126696, Note_on_c, 0, 69, 74
2, 126696, Note_on_c, 0, 72, 80
2, 126742, Note_on_c, 0, 81, 0
2, 126835, Note_on_c, 0, 72, 0
2, 126968, Note_on_c, 0, 71, 78
2, 126973, Note_on_c, 0, 67, 79
2, 127007, Note_on_c, 0, 69, 0
2, 127220, Note_on_c, 0, 57, 81
2, 127275, Note_on_c, 0, 53, 0
2, 127493, Note_on_c, 0, 55, 81
2, 127533, Note_on_c, 0, 57, 0
2, 127571, Note_on_c, 0, 67, 0
2, 127739, Note_on_c, 0, 53, 78
2, 127747, Note_on_c, 0, 55, 0
2, 128008, Note_on_c, 0, 72, 76
2, 128012, Note_on_c, 0, 52, 55
2, 128021, Note_on_c, 0, 67, 61
2, 128032, Note_on_c, 0, 64, 63
2, 128041, Note_on_c, 0, 71, 0
2, 128085, Note_on_c, 0, 53, 0
2, 128266, Note_on_c, 0, 55, 74
2, 128310, Note_on_c, 0, 52, 0
2, 128312, Note_on_c, 0, 62, 0
2, 128534, Note_on_c, 0, 48, 72
2, 128794, Note_on_c, 0, 52, 77
2, 128840, Note_on_c, 0, 48, 0
2, 128840, Note_on_c, 0, 55, 0
2, 128893, Note_on_c, 0, 67, 0
2, 129061, Note_on_c, 0, 43, 67
2, 129085, Note_on_c, 0, 52, 0
2, 129345, Note_on_c, 0, 67, 71
2, 129356, Note_on_c, 0, 52, 67
2, 129615, Note_on_c, 0, 50, 58
2, 129615, Note_on_c, 0, 64, 0
2, 129615, Note_on_c, 0, 65, 72
2, 129687, Note_on_c, 0, 52, 0
2, 129687, Note_on_c, 0, 67, 0
2, 129863, Note_on_c, 0, 48, 50
2, 129868, Note_on_c, 0, 64, 71
2, 129879, Note_on_c, 0, 65, 0
2, 129943, Note_on_c, 0, 50, 0
2, 130152, Note_on_c, 0, 62, 61
2, 130170, Note_on_c, 0, 55, 36
2, 130190, Note_on_c, 0, 64, 0
2, 130282, Note_on_c, 0, 48, 0
2, 130415, Note_on_c, 0, 62, 0
2, 130424, Note_on_c, 0, 64, 64
2, 130675, Note_on_c, 0, 65, 57
2, 130740, Note_on_c, 0, 64, 0
2, 130749, Note_on_c, 0, 72, 0
2, 130937, Note_on_c, 0, 71, 64
2, 130994, Note_on_c, 0, 65, 0
2, 131213, Note_on_c, 0, 48, 30
2, 131239, Note_on_c, 0, 72, 64
2, 131254, Note_on_c, 0, 71, 0
2, 131452, Note_on_c, 0, 43, 0
2, 131521, Note_on_c, 0, 65, 40
2, 131742, Note_on_c, 0, 65, 0
2, 131766, Note_on_c, 0, 64, 46
2, 132043, Note_on_c, 0, 62, 42
2, 132072, Note_on_c, 0, 64, 0
2, 132290, Note_on_c, 0, 62, 0
2, 132295, Note_on_c, 0, 64, 51
2, 132560, Note_on_c, 0, 67, 51
2, 132610, Note_on_c, 0, 64, 0
2, 132834, Note_on_c, 0, 60, 51
2, 133093, Note_on_c, 0, 64, 59
2, 133130, Note_on_c, 0, 60, 0
2, 133228, Note_on_c, 0, 67, 0
2, 133347, Note_on_c, 0, 64, 0
2, 133385, Note_on_c, 0, 57, 65
2, 133412, Note_on_c, 0, 72, 0
2, 133621, Note_on_c, 0, 55, 0
2, 133643, Note_on_c, 0, 72, 81
2, 133906, Note_on_c, 0, 74, 81
2, 133917, Note_on_c, 0, 53, 62
2, 133958, Note_on_c, 0, 72, 0
2, 134181, Note_on_c, 0, 52, 63
2, 134181, Note_on_c, 0, 76, 90
2, 134254, Note_on_c, 0, 74, 0
2, 134356, Note_on_c, 0, 53, 0
2, 134457, Note_on_c, 0, 77, 93
2, 134470, Note_on_c, 0, 50, 56
2, 134517, Note_on_c, 0, 76, 0
2, 134540, Note_on_c, 0, 52, 0
2, 134722, Note_on_c, 0, 52, 61
2, 134722, Note_on_c, 0, 81, 86
2, 134756, Note_on_c, 0, 77, 0
2, 134818, Note_on_c, 0, 50, 0
2, 134998, Note_on_c, 0, 74, 88
2, 135016, Note_on_c, 0, 53, 61
2, 135045, Note_on_c, 0, 81, 0
2, 135206, Note_on_c, 0, 57, 0
2, 135226, Note_on_c, 0, 52, 0
2, 135272, Note_on_c, 0, 77, 87
2, 135303, Note_on_c, 0, 74, 0
2, 135570, Note_on_c, 0, 70, 80
2, 135596, Note_on_c, 0, 55, 54
2, 135622, Note_on_c, 0, 77, 0
2, 135789, Note_on_c, 0, 53, 0
2, 135856, Note_on_c, 0, 69, 73
2, 136116, Note_on_c, 0, 67, 66
2, 136129, Note_on_c, 0, 52, 45
2, 136144, Note_on_c, 0, 69, 0
2, 136411, Note_on_c, 0, 65, 62
2, 136426, Note_on_c, 0, 50, 42
2, 136426, Note_on_c, 0, 70, 0
2, 136458, Note_on_c, 0, 52, 0
2, 136471, Note_on_c, 0, 67, 0
2, 136695, Note_on_c, 0, 52, 37
2, 136702, Note_on_c, 0, 67, 55
2, 136724, Note_on_c, 0, 65, 0
2, 136777, Note_on_c, 0, 50, 0
2, 136996, Note_on_c, 0, 70, 48
2, 137003, Note_on_c, 0, 53, 41
2, 137018, Note_on_c, 0, 67, 0
2, 137040, Note_on_c, 0, 55, 0
2, 137073, Note_on_c, 0, 52, 0
2, 137304, Note_on_c, 0, 64, 46
2, 137315, Note_on_c, 0, 55, 40
2, 137395, Note_on_c, 0, 53, 0
2, 137602, Note_on_c, 0, 64, 0
2, 137606, Note_on_c, 0, 67, 49
2, 137724, Note_on_c, 0, 70, 0
2, 137950, Note_on_c, 0, 57, 42
2, 137951, Note_on_c, 0, 53, 34
2, 137956, Note_on_c, 0, 60, 45
2, 138144, Note_on_c, 0, 55, 0
2, 138191, Note_on_c, 0, 48, 0
2, 138258, Note_on_c, 0, 60, 0
2, 138284, Note_on_c, 0, 64, 51
2, 138329, Note_on_c, 0, 67, 0
2, 138642, Note_on_c, 0, 65, 46
2, 138653, Note_on_c, 0, 64, 0
2, 138662, Note_on_c, 0, 52, 30
2, 138662, Note_on_c, 0, 55, 34
2, 138794, Note_on_c, 0, 53, 0
2, 138808, Note_on_c, 0, 57, 0
2, 138987, Note_on_c, 0, 67, 46
2, 139057, Note_on_c, 0, 65, 0
2, 139423, Note_on_c, 0, 53, 38
2, 139428, Note_on_c, 0, 50, 35
2, 139432, Note_on_c, 0, 69, 45
2, 139466, Note_on_c, 0, 67, 0
2, 139503, Note_on_c, 0, 52, 0
2, 139613, Note_on_c, 0, 55, 0
2, 139929, Note_on_c, 0, 65, 35
2, 140469, Note_on_c, 0, 56, 33
2, 140486, Note_on_c, 0, 62, 28
2, 141292, Note_on_c, 0, 71, 51
2, 141416, Note_on_c, 0, 69, 0
2, 141459, Note_on_c, 0, 62, 0
2, 141553, Note_on_c, 0, 65, 0
2, 141595, Note_on_c, 0, 50, 0
2, 142911, Note_on_c, 0, 48, 32
2, 142921, Note_on_c, 0, 72, 53
2, 142925, Note_on_c, 0, 71, 0
2, 142932, Note_on_c, 0, 52, 32
2, 142932, Note_on_c, 0, 64, 46
2, 142937, Note_on_c, 0, 60, 38
2, 142942, Note_on_c, 0, 67, 39
2, 142945, Note_on_c, 0, 55, 39
2, 143066, Note_on_c, 0, 56, 0
2, 143093, Note_on_c, 0, 53, 0
2, 149927, Note_on_c, 0, 72, 0
2, 150009, Note_on_c, 0, 64, 0
2, 150012, Note_on_c, 0, 67, 0
2, 150060, Note_on_c, 0, 60, 0
2, 150093, Note_on_c, 0, 48, 0
2, 150093, Note_on_c, 0, 55, 0
2, 150135, Note_on_c, 0, 52, 0
2, 155246, Note_on_c, 0, 67, 86
2, 155344, Note_on_c, 0, 65, 83
2, 155355, Note_on_c, 0, 67, 0
2, 155490, Note_on_c, 0, 67, 90
2, 155506, Note_on_c, 0, 65, 0
2, 155540, Note_on_c, 0, 67, 0
2, 155778, Note_on_c, 0, 60, 79
2, 155811, Note_on_c, 0, 60, 0
2, 156018, Note_on_c, 0, 69, 76
2, 156052, Note_on_c, 0, 69, 0
2, 156063, Note_on_c, 0, 67, 79
2, 156096, Note_on_c, 0, 69, 101
2, 156140, Note_on_c, 0, 67, 0
2, 156631, Note_on_c, 0, 67, 63
2, 156645, Note_on_c, 0, 69, 0
2, 157083, Note_on_c, 0, 67, 0
2, 157402, Note_on_c, 0, 65, 68
2, 157528, Note_on_c, 0, 64, 79
2, 157528, Note_on_c, 0, 65, 0
2, 157651, Note_on_c, 0, 65, 78
2, 157697, Note_on_c, 0, 64, 0
2, 157774, Note_on_c, 0, 67, 79
2, 157814, Note_on_c, 0, 65, 0
2, 157897, Note_on_c, 0, 64, 81
2, 157915, Note_on_c, 0, 67, 0
2, 158021, Note_on_c, 0, 65, 75
2, 158048, Note_on_c, 0, 64, 0
2, 158161, Note_on_c, 0, 62, 81
2, 158165, Note_on_c, 0, 65, 0
2, 158295, Note_on_c, 0, 65, 78
2, 158303, Note_on_c, 0, 62, 0
2, 158431, Note_on_c, 0, 64, 87
2, 158432, Note_on_c, 0, 65, 0
2, 158555, Note_on_c, 0, 65, 82
2, 158605, Note_on_c, 0, 64, 0
2, 158691, Note_on_c, 0, 67, 85
2, 158734, Note_on_c, 0, 65, 0
2, 158818, Note_on_c, 0, 69, 85
2, 158855, Note_on_c, 0, 67, 0
2, 158945, Note_on_c, 0, 65, 78
2, 158952, Note_on_c, 0, 69, 0
2, 159070, Note_on_c, 0, 65, 0
2, 159079, Note_on_c, 0, 67, 74
2, 159211, Note_on_c, 0, 64, 75
2, 159211, Note_on_c, 0, 67, 0
2, 159321, Note_on_c, 0, 64, 0
2, 159337, Note_on_c, 0, 62, 63
2, 159465, Note_on_c, 0, 62, 0
2, 159474, Note_on_c, 0, 64, 68
2, 159478, Note_on_c, 0, 72, 100
2, 159589, Note_on_c, 0, 64, 0
2, 159594, Note_on_c, 0, 71, 92
2, 159613, Note_on_c, 0, 65, 55
2, 159622, Note_on_c, 0, 72, 0
2, 159707, Note_on_c, 0, 65, 0
2, 159729, Note_on_c, 0, 72, 93
2, 159740, Note_on_c, 0, 64, 63
2, 159744, Note_on_c, 0, 71, 0
2, 159768, Note_on_c, 0, 72, 0
2, 159856, Note_on_c, 0, 64, 0
2, 159880, Note_on_c, 0, 65, 51
2, 159985, Note_on_c, 0, 65, 0
2, 159999, Note_on_c, 0, 67, 92
2, 160023, Note_on_c, 0, 62, 63
2, 160058, Note_on_c, 0, 67, 0
2, 160123, Note_on_c, 0, 62, 0
2, 160144, Note_on_c, 0, 64, 57
2, 160247, Note_on_c, 0, 76, 86
2, 160273, Note_on_c, 0, 64, 0
2, 160284, Note_on_c, 0, 60, 63
2, 160284, Note_on_c, 0, 74, 83
2, 160284, Note_on_c, 0, 76, 0
2, 160339, Note_on_c, 0, 76, 98
2, 160382, Note_on_c, 0, 60, 0
2, 160382, Note_on_c, 0, 74, 0
2, 160385, Note_on_c, 0, 59, 69
2, 160535, Note_on_c, 0, 60, 63
2, 160542, Note_on_c, 0, 59, 0
2, 160664, Note_on_c, 0, 60, 0
2, 160672, Note_on_c, 0, 62, 63
2, 160793, Note_on_c, 0, 62, 0
2, 160813, Note_on_c, 0, 60, 65
2, 160835, Note_on_c, 0, 74, 70
2, 160892, Note_on_c, 0, 76, 0
2, 160956, Note_on_c, 0, 62, 59
2, 160965, Note_on_c, 0, 60, 0
2, 161083, Note_on_c, 0, 59, 62
2, 161084, Note_on_c, 0, 62, 0
2, 161208, Note_on_c, 0, 60, 66
2, 161208, Note_on_c, 0, 74, 0
2, 161212, Note_on_c, 0, 59, 0
2, 161343, Note_on_c, 0, 60, 0
2, 161348, Note_on_c, 0, 57, 72
2, 161475, Note_on_c, 0, 57, 0
2, 161480, Note_on_c, 0, 59, 68
2, 161607, Note_on_c, 0, 72, 90
2, 161614, Note_on_c, 0, 60, 71
2, 161645, Note_on_c, 0, 59, 0
2, 161737, Note_on_c, 0, 71, 88
2, 161749, Note_on_c, 0, 62, 83
2, 161762, Note_on_c, 0, 72, 0
2, 161779, Note_on_c, 0, 60, 0
2, 161865, Note_on_c, 0, 72, 95
2, 161880, Note_on_c, 0, 64, 85
2, 161884, Note_on_c, 0, 62, 0
2, 161932, Note_on_c, 0, 71, 0
2, 161990, Note_on_c, 0, 74, 86
2, 161997, Note_on_c, 0, 66, 81
2, 162004, Note_on_c, 0, 64, 0
2, 162024, Note_on_c, 0, 72, 0
2, 162132, Note_on_c, 0, 67, 93
2, 162138, Note_on_c, 0, 71, 88
2, 162143, Note_on_c, 0, 66, 0
2, 162179, Note_on_c, 0, 74, 0
2, 162271, Note_on_c, 0, 72, 88
2, 162305, Note_on_c, 0, 71, 0
2, 162403, Note_on_c, 0, 69, 91
2, 162416, Note_on_c, 0, 72, 0
2, 162535, Note_on_c, 0, 72, 89
2, 162576, Note_on_c, 0, 69, 0
2, 162667, Note_on_c, 0, 71, 93
2, 162671, Note_on_c, 0, 66, 65
2, 162676, Note_on_c, 0, 67, 0
2, 162685, Note_on_c, 0, 72, 0
2, 162766, Note_on_c, 0, 66, 0
2, 162784, Note_on_c, 0, 64, 73
2, 162792, Note_on_c, 0, 72, 98
2, 162832, Note_on_c, 0, 71, 0
2, 162875, Note_on_c, 0, 66, 64
2, 162879, Note_on_c, 0, 64, 0
2, 162901, Note_on_c, 0, 74, 84
2, 162912, Note_on_c, 0, 66, 0
2, 162917, Note_on_c, 0, 67, 69
2, 162973, Note_on_c, 0, 72, 0
2, 162987, Note_on_c, 0, 66, 75
2, 162991, Note_on_c, 0, 67, 0
2, 163022, Note_on_c, 0, 76, 84
2, 163046, Note_on_c, 0, 74, 0
2, 163172, Note_on_c, 0, 72, 79
2, 163191, Note_on_c, 0, 76, 0
2, 163269, Note_on_c, 0, 66, 0
2, 163281, Note_on_c, 0, 72, 0
2, 163294, Note_on_c, 0, 74, 77
2, 163444, Note_on_c, 0, 71, 65
2, 163444, Note_on_c, 0, 74, 0
2, 163455, Note_on_c, 0, 67, 53
2, 163566, Note_on_c, 0, 71, 0
2, 163586, Note_on_c, 0, 69, 51
2, 163708, Note_on_c, 0, 55, 82
2, 163715, Note_on_c, 0, 71, 64
2, 163782, Note_on_c, 0, 69, 0
2, 163827, Note_on_c, 0, 53, 82
2, 163827, Note_on_c, 0, 71, 0
2, 163831, Note_on_c, 0, 55, 0
2, 163844, Note_on_c, 0, 72, 63
2, 163958, Note_on_c, 0, 53, 0
2, 163967, Note_on_c, 0, 55, 98
2, 163971, Note_on_c, 0, 71, 71
2, 163971, Note_on_c, 0, 72, 0
2, 164021, Note_on_c, 0, 55, 0
2, 164094, Note_on_c, 0, 71, 0
2, 164110, Note_on_c, 0, 72, 64
2, 164202, Note_on_c, 0, 72, 0
2, 164244, Note_on_c, 0, 48, 87
2, 164244, Note_on_c, 0, 69, 58
2, 164277, Note_on_c, 0, 48, 0
2, 164348, Note_on_c, 0, 67, 0
2, 164362, Note_on_c, 0, 71, 64
2, 164401, Note_on_c, 0, 69, 0
2, 164509, Note_on_c, 0, 57, 92
2, 164509, Note_on_c, 0, 72, 78
2, 164513, Note_on_c, 0, 71, 0
2, 164552, Note_on_c, 0, 55, 80
2, 164561, Note_on_c, 0, 57, 0
2, 164603, Note_on_c, 0, 57, 93
2, 164641, Note_on_c, 0, 64, 64
2, 164657, Note_on_c, 0, 55, 0
2, 164808, Note_on_c, 0, 65, 60
2, 164897, Note_on_c, 0, 72, 0
2, 164962, Note_on_c, 0, 69, 56
2, 164966, Note_on_c, 0, 64, 0
2, 165071, Note_on_c, 0, 55, 79
2, 165095, Note_on_c, 0, 57, 0
2, 165102, Note_on_c, 0, 70, 69
2, 165115, Note_on_c, 0, 69, 0
2, 165127, Note_on_c, 0, 65, 0
2, 165236, Note_on_c, 0, 62, 56
2, 165328, Note_on_c, 0, 70, 0
2, 165363, Note_on_c, 0, 64, 59
2, 165374, Note_on_c, 0, 62, 0
2, 165490, Note_on_c, 0, 67, 59
2, 165511, Note_on_c, 0, 55, 0
2, 165580, Note_on_c, 0, 64, 0
2, 165602, Note_on_c, 0, 67, 0
2, 165626, Note_on_c, 0, 69, 57
2, 165890, Note_on_c, 0, 53, 80
2, 165890, Note_on_c, 0, 69, 0
2, 165901, Note_on_c, 0, 62, 61
2, 166006, Note_on_c, 0, 52, 86
2, 166027, Note_on_c, 0, 53, 0
2, 166143, Note_on_c, 0, 53, 92
2, 166143, Note_on_c, 0, 67, 72
2, 166143, Note_on_c, 0, 71, 79
2, 166158, Note_on_c, 0, 62, 0
2, 166182, Note_on_c, 0, 52, 0
2, 166280, Note_on_c, 0, 55, 85
2, 166330, Note_on_c, 0, 53, 0
2, 166403, Note_on_c, 0, 72, 80
2, 166408, Note_on_c, 0, 71, 0
2, 166412, Note_on_c, 0, 52, 84
2, 166441, Note_on_c, 0, 55, 0
2, 166443, Note_on_c, 0, 67, 0
2, 166541, Note_on_c, 0, 53, 76
2, 166580, Note_on_c, 0, 52, 0
2, 166680, Note_on_c, 0, 65, 80
2, 166685, Note_on_c, 0, 50, 83
2, 166697, Note_on_c, 0, 53, 0
2, 166809, Note_on_c, 0, 69, 69
2, 166813, Note_on_c, 0, 72, 0
2, 166814, Note_on_c, 0, 53, 83
2, 166830, Note_on_c, 0, 50, 0
2, 166936, Note_on_c, 0, 69, 0
2, 166945, Note_on_c, 0, 67, 74
2, 166945, Note_on_c, 0, 72, 79
2, 166949, Note_on_c, 0, 52, 88
2, 166957, Note_on_c, 0, 53, 0
2, 166974, Note_on_c, 0, 65, 0
2, 167059, Note_on_c, 0, 69, 69
2, 167063, Note_on_c, 0, 67, 0
2, 167081, Note_on_c, 0, 53, 81
2, 167122, Note_on_c, 0, 52, 0
2, 167178, Note_on_c, 0, 69, 0
2, 167215, Note_on_c, 0, 62, 72
2, 167219, Note_on_c, 0, 55, 85
2, 167260, Note_on_c, 0, 53, 0
2, 167348, Note_on_c, 0, 57, 85
2, 167388, Note_on_c, 0, 55, 0
2, 167474, Note_on_c, 0, 72, 0
2, 167478, Note_on_c, 0, 57, 0
2, 167483, Note_on_c, 0, 53, 72
2, 167483, Note_on_c, 0, 71, 64
2, 167527, Note_on_c, 0, 62, 0
2, 167596, Note_on_c, 0, 53, 0
2, 167607, Note_on_c, 0, 55, 59
2, 167688, Note_on_c, 0, 71, 0
2, 167729, Note_on_c, 0, 55, 0
2, 167742, Note_on_c, 0, 52, 61
2, 167746, Note_on_c, 0, 60, 56
2, 167746, Note_on_c, 0, 72, 68
2, 167779, Note_on_c, 0, 60, 0
2, 167809, Note_on_c, 0, 72, 0
2, 167850, Note_on_c, 0, 52, 0
2, 167878, Note_on_c, 0, 50, 48
2, 167995, Note_on_c, 0, 50, 0
2, 168018, Note_on_c, 0, 52, 54
2, 168022, Note_on_c, 0, 79, 80
2, 168128, Note_on_c, 0, 52, 0
2, 168142, Note_on_c, 0, 77, 81
2, 168146, Note_on_c, 0, 53, 55
2, 168158, Note_on_c, 0, 79, 0
2, 168252, Note_on_c, 0, 53, 0
2, 168279, Note_on_c, 0, 79, 86
2, 168281, Note_on_c, 0, 77, 0
2, 168290, Note_on_c, 0, 52, 57
2, 168310, Note_on_c, 0, 79, 0
2, 168392, Note_on_c, 0, 52, 0
2, 168424, Note_on_c, 0, 53, 52
2, 168516, Note_on_c, 0, 53, 0
2, 168551, Note_on_c, 0, 50, 49
2, 168551, Note_on_c, 0, 72, 67
2, 168569, Note_on_c, 0, 72, 0
2, 168640, Note_on_c, 0, 50, 0
2, 168680, Note_on_c, 0, 52, 51
2, 168818, Note_on_c, 0, 52, 0
2, 168822, Note_on_c, 0, 81, 68
2, 168827, Note_on_c, 0, 53, 50
2, 168944, Note_on_c, 0, 53, 0
2, 168984, Note_on_c, 0, 52, 53
2, 169102, Note_on_c, 0, 72, 62
2, 169106, Note_on_c, 0, 53, 53
2, 169117, Note_on_c, 0, 52, 0
2, 169179, Note_on_c, 0, 81, 0
2, 169203, Note_on_c, 0, 72, 0
2, 169214, Note_on_c, 0, 71, 66
2, 169219, Note_on_c, 0, 53, 0
2, 169228, Note_on_c, 0, 55, 55
2, 169324, Note_on_c, 0, 55, 0
2, 169331, Note_on_c, 0, 71, 0
2, 169351, Note_on_c, 0, 72, 69
2, 169351, Note_on_c, 0, 79, 74
2, 169367, Note_on_c, 0, 53, 56
2, 169423, Note_on_c, 0, 72, 0
2, 169480, Note_on_c, 0, 55, 57
2, 169557, Note_on_c, 0, 53, 0
2, 169611, Note_on_c, 0, 55, 0
2, 169632, Note_on_c, 0, 52, 49
2, 169632, Note_on_c, 0, 67, 64
2, 169719, Note_on_c, 0, 67, 0
2, 169734, Note_on_c, 0, 52, 0
2, 169745, Note_on_c, 0, 53, 54
2, 169895, Note_on_c, 0, 79, 0
2, 169899, Note_on_c, 0, 78, 77
2, 169906, Note_on_c, 0, 50, 63
2, 169906, Note_on_c, 0, 53, 0
2, 169906, Note_on_c, 0, 74, 65
2, 170042, Note_on_c, 0, 50, 0
2, 170042, Note_on_c, 0, 78, 0
2, 170046, Note_on_c, 0, 74, 0
2, 170051, Note_on_c, 0, 49, 60
2, 170171, Note_on_c, 0, 81, 76
2, 170187, Note_on_c, 0, 50, 69
2, 170220, Note_on_c, 0, 49, 0
2, 170286, Note_on_c, 0, 79, 84
2, 170292, Note_on_c, 0, 50, 0
2, 170302, Note_on_c, 0, 52, 71
2, 170303, Note_on_c, 0, 81, 0
2, 170405, Note_on_c, 0, 52, 0
2, 170416, Note_on_c, 0, 54, 73
2, 170427, Note_on_c, 0, 72, 86
2, 170427, Note_on_c, 0, 79, 0
2, 170427, Note_on_c, 0, 81, 88
2, 170456, Note_on_c, 0, 72, 0
2, 170489, Note_on_c, 0, 81, 0
2, 170558, Note_on_c, 0, 55, 61
2, 170573, Note_on_c, 0, 54, 0
2, 170689, Note_on_c, 0, 74, 96
2, 170696, Note_on_c, 0, 55, 0
2, 170701, Note_on_c, 0, 52, 63
2, 170753, Note_on_c, 0, 74, 0
2, 170804, Note_on_c, 0, 54, 61
2, 170818, Note_on_c, 0, 52, 0
2, 170961, Note_on_c, 0, 83, 91
2, 170966, Note_on_c, 0, 71, 91
2, 170973, Note_on_c, 0, 55, 58
2, 170993, Note_on_c, 0, 54, 0
2, 171090, Note_on_c, 0, 55, 0
2, 171119, Note_on_c, 0, 54, 56
2, 171236, Note_on_c, 0, 74, 74
2, 171238, Note_on_c, 0, 71, 0
2, 171260, Note_on_c, 0, 55, 60
2, 171347, Note_on_c, 0, 54, 0
2, 171354, Note_on_c, 0, 72, 77
2, 171354, Note_on_c, 0, 74, 0
2, 171354, Note_on_c, 0, 83, 0
2, 171363, Note_on_c, 0, 57, 72
2, 171367, Note_on_c, 0, 55, 0
2, 171451, Note_on_c, 0, 72, 0
2, 171477, Note_on_c, 0, 57, 0
2, 171484, Note_on_c, 0, 81, 82
2, 171488, Note_on_c, 0, 74, 80
2, 171496, Note_on_c, 0, 55, 69
2, 171577, Note_on_c, 0, 74, 0
2, 171618, Note_on_c, 0, 57, 70
2, 171667, Note_on_c, 0, 55, 0
2, 171757, Note_on_c, 0, 69, 80
2, 171765, Note_on_c, 0, 53, 68
2, 171766, Note_on_c, 0, 57, 0
2, 171846, Note_on_c, 0, 69, 0
2, 171889, Note_on_c, 0, 55, 73
2, 171923, Note_on_c, 0, 53, 0
2, 172014, Note_on_c, 0, 76, 79
2, 172014, Note_on_c, 0, 80, 82
2, 172023, Note_on_c, 0, 52, 76
2, 172027, Note_on_c, 0, 81, 0
2, 172031, Note_on_c, 0, 55, 0
2, 172150, Note_on_c, 0, 76, 0
2, 172154, Note_on_c, 0, 80, 0
2, 172171, Note_on_c, 0, 50, 75
2, 172184, Note_on_c, 0, 52, 0
2, 172293, Note_on_c, 0, 83, 85
2, 172309, Note_on_c, 0, 52, 83
2, 172323, Note_on_c, 0, 50, 0
2, 172418, Note_on_c, 0, 81, 80
2, 172425, Note_on_c, 0, 54, 81
2, 172447, Note_on_c, 0, 83, 0
2, 172458, Note_on_c, 0, 52, 0
2, 172550, Note_on_c, 0, 74, 92
2, 172553, Note_on_c, 0, 83, 92
2, 172557, Note_on_c, 0, 56, 87
2, 172557, Note_on_c, 0, 81, 0
2, 172594, Note_on_c, 0, 74, 0
2, 172609, Note_on_c, 0, 54, 0
2, 172615, Note_on_c, 0, 83, 0
2, 172681, Note_on_c, 0, 57, 87
2, 172706, Note_on_c, 0, 56, 0
2, 172815, Note_on_c, 0, 76, 101
2, 172823, Note_on_c, 0, 54, 81
2, 172852, Note_on_c, 0, 57, 0
2, 172877, Note_on_c, 0, 76, 0
2, 172934, Note_on_c, 0, 56, 79
2, 172991, Note_on_c, 0, 54, 0
2, 173091, Note_on_c, 0, 72, 104
2, 173091, Note_on_c, 0, 84, 95
2, 173098, Note_on_c, 0, 57, 81
2, 173132, Note_on_c, 0, 56, 0
2, 173224, Note_on_c, 0, 56, 75
2, 173228, Note_on_c, 0, 57, 0
2, 173364, Note_on_c, 0, 57, 80
2, 173379, Note_on_c, 0, 72, 0
2, 173379, Note_on_c, 0, 76, 82
2, 173435, Note_on_c, 0, 56, 0
2, 173477, Note_on_c, 0, 76, 0
2, 173490, Note_on_c, 0, 59, 77
2, 173492, Note_on_c, 0, 74, 80
2, 173507, Note_on_c, 0, 57, 0
2, 173598, Note_on_c, 0, 74, 0
2, 173630, Note_on_c, 0, 59, 0
2, 173637, Note_on_c, 0, 57, 86
2, 173641, Note_on_c, 0, 76, 84
2, 173692, Note_on_c, 0, 76, 0
2, 173765, Note_on_c, 0, 59, 78
2, 173823, Note_on_c, 0, 57, 0
2, 173907, Note_on_c, 0, 55, 77
2, 173907, Note_on_c, 0, 81, 85
2, 173916, Note_on_c, 0, 59, 0
2, 174011, Note_on_c, 0, 81, 0
2, 174039, Note_on_c, 0, 57, 81
2, 174053, Note_on_c, 0, 55, 0
2, 174167, Note_on_c, 0, 57, 0
2, 174175, Note_on_c, 0, 54, 82
2, 174175, Note_on_c, 0, 74, 90
2, 174240, Note_on_c, 0, 84, 0
2, 174306, Note_on_c, 0, 55, 81
2, 174350, Note_on_c, 0, 54, 0
2, 174438, Note_on_c, 0, 84, 92
2, 174442, Note_on_c, 0, 52, 87
2, 174453, Note_on_c, 0, 55, 0
2, 174567, Note_on_c, 0, 54, 82
2, 174596, Note_on_c, 0, 84, 0
2, 174615, Note_on_c, 0, 52, 0
2, 174702, Note_on_c, 0, 55, 83
2, 174706, Note_on_c, 0, 83, 90
2, 174790, Note_on_c, 0, 54, 0
2, 174834, Note_on_c, 0, 83, 0
2, 174849, Note_on_c, 0, 57, 85
2, 174881, Note_on_c, 0, 55, 0
2, 174972, Note_on_c, 0, 79, 88
2, 174974, Note_on_c, 0, 59, 87
2, 175015, Note_on_c, 0, 57, 0
2, 175078, Note_on_c, 0, 79, 0
2, 175107, Note_on_c, 0, 55, 77
2, 175127, Note_on_c, 0, 59, 0
2, 175238, Note_on_c, 0, 76, 89
2, 175257, Note_on_c, 0, 60, 86
2, 175286, Note_on_c, 0, 55, 0
2, 175291, Note_on_c, 0, 74, 0
2, 175383, Note_on_c, 0, 59, 81
2, 175405, Note_on_c, 0, 60, 0
2, 175514, Note_on_c, 0, 60, 91
2, 175514, Note_on_c, 0, 72, 83
2, 175557, Note_on_c, 0, 59, 0
2, 175603, Note_on_c, 0, 72, 0
2, 175631, Note_on_c, 0, 71, 81
2, 175636, Note_on_c, 0, 62, 91
2, 175665, Note_on_c, 0, 60, 0
2, 175702, Note_on_c, 0, 71, 0
2, 175774, Note_on_c, 0, 60, 98
2, 175774, Note_on_c, 0, 78, 96
2, 175786, Note_on_c, 0, 62, 0
2, 175786, Note_on_c, 0, 69, 80
2, 175795, Note_on_c, 0, 76, 0
2, 175878, Note_on_c, 0, 69, 0
2, 175906, Note_on_c, 0, 62, 94
2, 175959, Note_on_c, 0, 60, 0
2, 176045, Note_on_c, 0, 59, 97
2, 176045, Note_on_c, 0, 78, 0
2, 176050, Note_on_c, 0, 71, 101
2, 176050, Note_on_c, 0, 79, 94
2, 176079, Note_on_c, 0, 62, 0
2, 176168, Note_on_c, 0, 60, 90
2, 176208, Note_on_c, 0, 59, 0
2, 176239, Note_on_c, 0, 71, 0
2, 176310, Note_on_c, 0, 62, 98
2, 176342, Note_on_c, 0, 60, 0
2, 176586, Note_on_c, 0, 78, 85
2, 176595, Note_on_c, 0, 69, 91
2, 176658, Note_on_c, 0, 79, 0
2, 176689, Note_on_c, 0, 78, 0
2, 176701, Note_on_c, 0, 76, 79
2, 176714, Note_on_c, 0, 67, 82
2, 176723, Note_on_c, 0, 62, 0
2, 176730, Note_on_c, 0, 69, 0
2, 176830, Note_on_c, 0, 78, 82
2, 176845, Note_on_c, 0, 69, 101
2, 176849, Note_on_c, 0, 76, 0
2, 176867, Note_on_c, 0, 67, 0
2, 176899, Note_on_c, 0, 79, 80
2, 176903, Note_on_c, 0, 78, 0
2, 176964, Note_on_c, 0, 79, 0
2, 176968, Note_on_c, 0, 78, 69
2, 177034, Note_on_c, 0, 78, 0
2, 177038, Note_on_c, 0, 79, 58
2, 177085, Note_on_c, 0, 79, 0
2, 177092, Note_on_c, 0, 78, 66
2, 177109, Note_on_c, 0, 62, 58
2, 177213, Note_on_c, 0, 79, 70
2, 177251, Note_on_c, 0, 78, 0
2, 177271, Note_on_c, 0, 79, 0
2, 177288, Note_on_c, 0, 69, 0
2, 177388, Note_on_c, 0, 55, 48
2, 177406, Note_on_c, 0, 79, 64
2, 177412, Note_on_c, 0, 71, 47
2, 177420, Note_on_c, 0, 62, 0
2, 177657, Note_on_c, 0, 55, 0
2, 177682, Note_on_c, 0, 67, 51
2, 177688, Note_on_c, 0, 76, 59
2, 177688, Note_on_c, 0, 79, 0
2, 177741, Note_on_c, 0, 71, 0
2, 177777, Note_on_c, 0, 67, 0
2, 177801, Note_on_c, 0, 65, 55
2, 177920, Note_on_c, 0, 65, 0
2, 177931, Note_on_c, 0, 67, 59
2, 177937, Note_on_c, 0, 76, 0
2, 177945, Note_on_c, 0, 73, 66
2, 177950, Note_on_c, 0, 69, 40
2, 177986, Note_on_c, 0, 69, 0
2, 178036, Note_on_c, 0, 67, 0
2, 178072, Note_on_c, 0, 69, 54
2, 178162, Note_on_c, 0, 69, 0
2, 178180, Note_on_c, 0, 73, 0
2, 178198, Note_on_c, 0, 65, 51
2, 178209, Note_on_c, 0, 74, 60
2, 178333, Note_on_c, 0, 67, 58
2, 178339, Note_on_c, 0, 65, 0
2, 178472, Note_on_c, 0, 67, 0
2, 178474, Note_on_c, 0, 64, 53
2, 178600, Note_on_c, 0, 79, 64
2, 178637, Note_on_c, 0, 74, 0
2, 178721, Note_on_c, 0, 82, 68
2, 178734, Note_on_c, 0, 79, 0
2, 178748, Note_on_c, 0, 64, 0
2, 178748, Note_on_c, 0, 67, 55
2, 178841, Note_on_c, 0, 67, 0
2, 178852, Note_on_c, 0, 81, 76
2, 178859, Note_on_c, 0, 65, 60
2, 178886, Note_on_c, 0, 82, 0
2, 178990, Note_on_c, 0, 67, 67
2, 178990, Note_on_c, 0, 79, 81
2, 179005, Note_on_c, 0, 65, 0
2, 179036, Note_on_c, 0, 81, 0
2, 179115, Note_on_c, 0, 77, 81
2, 179121, Note_on_c, 0, 79, 0
2, 179125, Note_on_c, 0, 69, 62
2, 179134, Note_on_c, 0, 67, 0
2, 179197, Note_on_c, 0, 77, 0
2, 179230, Note_on_c, 0, 69, 0
2, 179250, Note_on_c, 0, 65, 62
2, 179250, Note_on_c, 0, 76, 79
2, 179366, Note_on_c, 0, 74, 74
2, 179373, Note_on_c, 0, 76, 0
2, 179377, Note_on_c, 0, 67, 60
2, 179381, Note_on_c, 0, 65, 0
2, 179403, Note_on_c, 0, 74, 0
2, 179503, Note_on_c, 0, 64, 70
2, 179503, Note_on_c, 0, 67, 0
2, 179503, Note_on_c, 0, 73, 81
2, 179531, Note_on_c, 0, 64, 0
2, 179633, Note_on_c, 0, 67, 71
2, 179756, Note_on_c, 0, 67, 0
2, 179765, Note_on_c, 0, 73, 0
2, 179775, Note_on_c, 0, 65, 81
2, 179786, Note_on_c, 0, 62, 75
2, 179786, Note_on_c, 0, 74, 77
2, 179818, Note_on_c, 0, 62, 0
2, 179868, Note_on_c, 0, 65, 0
2, 179903, Note_on_c, 0, 67, 68
2, 179966, Note_on_c, 0, 74, 0
2, 180040, Note_on_c, 0, 53, 56
2, 180040, Note_on_c, 0, 69, 76
2, 180070, Note_on_c, 0, 67, 0
2, 180075, Note_on_c, 0, 53, 0
2, 180169, Note_on_c, 0, 70, 70
2, 180208, Note_on_c, 0, 69, 0
2, 180302, Note_on_c, 0, 70, 0
2, 180309, Note_on_c, 0, 67, 68
2, 180313, Note_on_c, 0, 57, 69
2, 180313, Note_on_c, 0, 73, 73
2, 180342, Note_on_c, 0, 57, 0
2, 180421, Note_on_c, 0, 69, 69
2, 180425, Note_on_c, 0, 67, 0
2, 180430, Note_on_c, 0, 73, 0
2, 180512, Note_on_c, 0, 69, 0
2, 180560, Note_on_c, 0, 74, 89
2, 180564, Note_on_c, 0, 50, 75
2, 180564, Note_on_c, 0, 65, 79
2, 180591, Note_on_c, 0, 65, 0
2, 180596, Note_on_c, 0, 50, 0
2, 180626, Note_on_c, 0, 74, 0
2, 180697, Note_on_c, 0, 64, 96
2, 180823, Note_on_c, 0, 65, 84
2, 180830, Note_on_c, 0, 74, 90
2, 180847, Note_on_c, 0, 64, 0
2, 180955, Note_on_c, 0, 73, 94
2, 180959, Note_on_c, 0, 65, 0
2, 180966, Note_on_c, 0, 67, 79
2, 180987, Note_on_c, 0, 74, 0
2, 181072, Note_on_c, 0, 67, 0
2, 181090, Note_on_c, 0, 74, 97
2, 181092, Note_on_c, 0, 65, 80
2, 181096, Note_on_c, 0, 73, 0
2, 181128, Note_on_c, 0, 74, 0
2, 181207, Note_on_c, 0, 67, 74
2, 181236, Note_on_c, 0, 65, 0
2, 181319, Note_on_c, 0, 67, 0
2, 181359, Note_on_c, 0, 64, 75
2, 181359, Note_on_c, 0, 69, 88
2, 181404, Note_on_c, 0, 69, 0
2, 181476, Note_on_c, 0, 64, 0
2, 181494, Note_on_c, 0, 65, 60
2, 181627, Note_on_c, 0, 77, 76
2, 181631, Note_on_c, 0, 65, 0
2, 181647, Note_on_c, 0, 62, 61
2, 181762, Note_on_c, 0, 62, 0
2, 181778, Note_on_c, 0, 60, 63
2, 181911, Note_on_c, 0, 62, 68
2, 181919, Note_on_c, 0, 60, 0
2, 181971, Note_on_c, 0, 77, 0
2, 182022, Note_on_c, 0, 62, 0
2, 182031, Note_on_c, 0, 64, 67
2, 182151, Note_on_c, 0, 64, 0
2, 182168, Note_on_c, 0, 62, 70
2, 182179, Note_on_c, 0, 76, 71
2, 182286, Note_on_c, 0, 62, 0
2, 182303, Note_on_c, 0, 64, 65
2, 182406, Note_on_c, 0, 64, 0
2, 182431, Note_on_c, 0, 60, 69
2, 182547, Note_on_c, 0, 62, 77
2, 182547, Note_on_c, 0, 76, 0
2, 182571, Note_on_c, 0, 60, 0
2, 182682, Note_on_c, 0, 59, 84
2, 182686, Note_on_c, 0, 62, 0
2, 182806, Note_on_c, 0, 60, 81
2, 182867, Note_on_c, 0, 59, 0
2, 182953, Note_on_c, 0, 62, 88
2, 182953, Note_on_c, 0, 74, 92
2, 182990, Note_on_c, 0, 60, 0
2, 183081, Note_on_c, 0, 64, 86
2, 183081, Note_on_c, 0, 72, 91
2, 183101, Note_on_c, 0, 62, 0
2, 183107, Note_on_c, 0, 74, 0
2, 183209, Note_on_c, 0, 64, 0
2, 183214, Note_on_c, 0, 66, 86
2, 183214, Note_on_c, 0, 74, 92
2, 183267, Note_on_c, 0, 72, 0
2, 183331, Note_on_c, 0, 76, 86
2, 183339, Note_on_c, 0, 68, 93
2, 183376, Note_on_c, 0, 74, 0
2, 183385, Note_on_c, 0, 66, 0
2, 183472, Note_on_c, 0, 72, 96
2, 183476, Note_on_c, 0, 69, 107
2, 183510, Note_on_c, 0, 68, 0
2, 183514, Note_on_c, 0, 76, 0
2, 183611, Note_on_c, 0, 74, 88
2, 183644, Note_on_c, 0, 72, 0
2, 183742, Note_on_c, 0, 71, 98
2, 183762, Note_on_c, 0, 74, 0
2, 183875, Note_on_c, 0, 74, 92
2, 183904, Note_on_c, 0, 71, 0
2, 183996, Note_on_c, 0, 72, 91
2, 184005, Note_on_c, 0, 68, 81
2, 184018, Note_on_c, 0, 74, 0
2, 184022, Note_on_c, 0, 69, 0
2, 184089, Note_on_c, 0, 68, 0
2, 184100, Note_on_c, 0, 66, 79
2, 184127, Note_on_c, 0, 74, 86
2, 184177, Note_on_c, 0, 72, 0
2, 184186, Note_on_c, 0, 68, 78
2, 184206, Note_on_c, 0, 66, 0
2, 184235, Note_on_c, 0, 68, 0
2, 184235, Note_on_c, 0, 76, 85
2, 184239, Note_on_c, 0, 69, 78
2, 184302, Note_on_c, 0, 74, 0
2, 184303, Note_on_c, 0, 68, 68
2, 184316, Note_on_c, 0, 69, 0
2, 184353, Note_on_c, 0, 77, 85
2, 184366, Note_on_c, 0, 76, 0
2, 184506, Note_on_c, 0, 74, 70
2, 184510, Note_on_c, 0, 77, 0
2, 184638, Note_on_c, 0, 76, 74
2, 184654, Note_on_c, 0, 74, 0
2, 184770, Note_on_c, 0, 72, 86
2, 184770, Note_on_c, 0, 76, 0
2, 184781, Note_on_c, 0, 69, 66
2, 184785, Note_on_c, 0, 68, 0
2, 184798, Note_on_c, 0, 72, 0
2, 184857, Note_on_c, 0, 69, 0
2, 184897, Note_on_c, 0, 68, 68
2, 185039, Note_on_c, 0, 76, 96
2, 185056, Note_on_c, 0, 69, 58
2, 185075, Note_on_c, 0, 68, 0
2, 185160, Note_on_c, 0, 69, 0
2, 185160, Note_on_c, 0, 74, 90
2, 185173, Note_on_c, 0, 71, 62
2, 185189, Note_on_c, 0, 76, 0
2, 185273, Note_on_c, 0, 71, 0
2, 185300, Note_on_c, 0, 69, 66
2, 185300, Note_on_c, 0, 76, 94
2, 185312, Note_on_c, 0, 74, 0
2, 185330, Note_on_c, 0, 76, 0
2, 185422, Note_on_c, 0, 71, 61
2, 185466, Note_on_c, 0, 69, 0
2, 185546, Note_on_c, 0, 71, 0
2, 185559, Note_on_c, 0, 72, 84
2, 185575, Note_on_c, 0, 67, 58
2, 185595, Note_on_c, 0, 72, 0
2, 185665, Note_on_c, 0, 67, 0
2, 185693, Note_on_c, 0, 69, 54
2, 185817, Note_on_c, 0, 69, 0
2, 185817, Note_on_c, 0, 81, 84
2, 185839, Note_on_c, 0, 66, 63
2, 185847, Note_on_c, 0, 81, 0
2, 185962, Note_on_c, 0, 66, 0
2, 185976, Note_on_c, 0, 64, 53
2, 186073, Note_on_c, 0, 64, 0
2, 186109, Note_on_c, 0, 72, 77
2, 186127, Note_on_c, 0, 66, 58
2, 186145, Note_on_c, 0, 72, 0
2, 186221, Note_on_c, 0, 66, 0
2, 186249, Note_on_c, 0, 67, 53
2, 186349, Note_on_c, 0, 67, 0
2, 186382, Note_on_c, 0, 69, 61
2, 186389, Note_on_c, 0, 66, 57
2, 186426, Note_on_c, 0, 69, 0
2, 186502, Note_on_c, 0, 66, 0
2, 186506, Note_on_c, 0, 67, 54
2, 186648, Note_on_c, 0, 67, 0
2, 186653, Note_on_c, 0, 74, 72
2, 186662, Note_on_c, 0, 64, 45
2, 186686, Note_on_c, 0, 74, 0
2, 186754, Note_on_c, 0, 64, 0
2, 186784, Note_on_c, 0, 66, 53
2, 186896, Note_on_c, 0, 66, 0
2, 186916, Note_on_c, 0, 67, 54
2, 186921, Note_on_c, 0, 71, 70
2, 186956, Note_on_c, 0, 71, 0
2, 187010, Note_on_c, 0, 67, 0
2, 187057, Note_on_c, 0, 66, 61
2, 187186, Note_on_c, 0, 74, 93
2, 187190, Note_on_c, 0, 67, 60
2, 187294, Note_on_c, 0, 66, 0
2, 187306, Note_on_c, 0, 72, 97
2, 187314, Note_on_c, 0, 69, 66
2, 187323, Note_on_c, 0, 67, 0
2, 187334, Note_on_c, 0, 74, 0
2, 187434, Note_on_c, 0, 69, 0
2, 187442, Note_on_c, 0, 74, 100
2, 187454, Note_on_c, 0, 67, 74
2, 187458, Note_on_c, 0, 72, 0
2, 187482, Note_on_c, 0, 74, 0
2, 187584, Note_on_c, 0, 69, 58
2, 187622, Note_on_c, 0, 67, 0
2, 187706, Note_on_c, 0, 69, 0
2, 187711, Note_on_c, 0, 71, 79
2, 187715, Note_on_c, 0, 65, 58
2, 187745, Note_on_c, 0, 71, 0
2, 187809, Note_on_c, 0, 65, 0
2, 187837, Note_on_c, 0, 67, 56
2, 187971, Note_on_c, 0, 67, 0
2, 187975, Note_on_c, 0, 79, 78
2, 187990, Note_on_c, 0, 64, 59
2, 188017, Note_on_c, 0, 79, 0
2, 188097, Note_on_c, 0, 64, 0
2, 188129, Note_on_c, 0, 62, 51
2, 188220, Note_on_c, 0, 62, 0
2, 188243, Note_on_c, 0, 70, 67
2, 188252, Note_on_c, 0, 64, 54
2, 188284, Note_on_c, 0, 70, 0
2, 188349, Note_on_c, 0, 64, 0
2, 188374, Note_on_c, 0, 65, 47
2, 188462, Note_on_c, 0, 65, 0
2, 188511, Note_on_c, 0, 67, 64
2, 188515, Note_on_c, 0, 64, 55
2, 188552, Note_on_c, 0, 67, 0
2, 188627, Note_on_c, 0, 65, 49
2, 188632, Note_on_c, 0, 64, 0
2, 188759, Note_on_c, 0, 65, 0
2, 188776, Note_on_c, 0, 72, 78
2, 188778, Note_on_c, 0, 62, 52
2, 188813, Note_on_c, 0, 72, 0
2, 188862, Note_on_c, 0, 62, 0
2, 188896, Note_on_c, 0, 64, 51
2, 189023, Note_on_c, 0, 64, 0
2, 189041, Note_on_c, 0, 69, 62
2, 189045, Note_on_c, 0, 65, 48
2, 189090, Note_on_c, 0, 69, 0
2, 189138, Note_on_c, 0, 65, 0
2, 189179, Note_on_c, 0, 64, 59
2, 189316, Note_on_c, 0, 65, 60
2, 189316, Note_on_c, 0, 74, 85
2, 189397, Note_on_c, 0, 64, 0
2, 189439, Note_on_c, 0, 67, 71
2, 189439, Note_on_c, 0, 72, 91
2, 189452, Note_on_c, 0, 65, 0
2, 189470, Note_on_c, 0, 74, 0
2, 189564, Note_on_c, 0, 67, 0
2, 189573, Note_on_c, 0, 65, 76
2, 189575, Note_on_c, 0, 74, 94
2, 189642, Note_on_c, 0, 72, 0
2, 189690, Note_on_c, 0, 67, 78
2, 189694, Note_on_c, 0, 76, 89
2, 189741, Note_on_c, 0, 74, 0
2, 189754, Note_on_c, 0, 65, 0
2, 189831, Note_on_c, 0, 64, 73
2, 189831, Note_on_c, 0, 72, 84
2, 189838, Note_on_c, 0, 67, 0
2, 189876, Note_on_c, 0, 76, 0
2, 189957, Note_on_c, 0, 65, 57
2, 189957, Note_on_c, 0, 74, 77
2, 189967, Note_on_c, 0, 64, 0
2, 189997, Note_on_c, 0, 72, 0
2, 190072, Note_on_c, 0, 74, 0
2, 190093, Note_on_c, 0, 71, 70
2, 190099, Note_on_c, 0, 65, 0
2, 190108, Note_on_c, 0, 62, 56
2, 190161, Note_on_c, 0, 62, 0
2, 190215, Note_on_c, 0, 71, 0
2, 190224, Note_on_c, 0, 69, 67
2, 190354, Note_on_c, 0, 69, 0
2, 190358, Note_on_c, 0, 67, 96
2, 190362, Note_on_c, 0, 71, 87
2, 190489, Note_on_c, 0, 65, 85
2, 190489, Note_on_c, 0, 72, 94
2, 190506, Note_on_c, 0, 67, 0
2, 190511, Note_on_c, 0, 71, 0
2, 190615, Note_on_c, 0, 67, 95
2, 190626, Note_on_c, 0, 71, 94
2, 190650, Note_on_c, 0, 72, 0
2, 190657, Note_on_c, 0, 65, 0
2, 190753, Note_on_c, 0, 72, 93
2, 190755, Note_on_c, 0, 69, 86
2, 190775, Note_on_c, 0, 67, 0
2, 190784, Note_on_c, 0, 71, 0
2, 190846, Note_on_c, 0, 69, 0
2, 190880, Note_on_c, 0, 65, 78
2, 190884, Note_on_c, 0, 69, 70
2, 190915, Note_on_c, 0, 72, 0
2, 190987, Note_on_c, 0, 65, 0
2, 190999, Note_on_c, 0, 71, 80
2, 191008, Note_on_c, 0, 69, 0
2, 191013, Note_on_c, 0, 67, 69
2, 191053, Note_on_c, 0, 67, 0
2, 191079, Note_on_c, 0, 71, 0
2, 191145, Note_on_c, 0, 64, 69
2, 191156, Note_on_c, 0, 67, 72
2, 191196, Note_on_c, 0, 67, 0
2, 191252, Note_on_c, 0, 64, 0
2, 191279, Note_on_c, 0, 62, 60
2, 191403, Note_on_c, 0, 72, 85
2, 191407, Note_on_c, 0, 64, 65
2, 191431, Note_on_c, 0, 62, 0
2, 191529, Note_on_c, 0, 71, 84
2, 191534, Note_on_c, 0, 65, 70
2, 191538, Note_on_c, 0, 64, 0
2, 191555, Note_on_c, 0, 72, 0
2, 191660, Note_on_c, 0, 65, 0
2, 191669, Note_on_c, 0, 64, 83
2, 191669, Note_on_c, 0, 72, 92
2, 191718, Note_on_c, 0, 71, 0
2, 191784, Note_on_c, 0, 74, 85
2, 191788, Note_on_c, 0, 65, 79
2, 191821, Note_on_c, 0, 64, 0
2, 191825, Note_on_c, 0, 72, 0
2, 191920, Note_on_c, 0, 62, 77
2, 191924, Note_on_c, 0, 65, 0
2, 191928, Note_on_c, 0, 70, 87
2, 191955, Note_on_c, 0, 74, 0
2, 192045, Note_on_c, 0, 64, 80
2, 192052, Note_on_c, 0, 72, 85
2, 192068, Note_on_c, 0, 62, 0
2, 192102, Note_on_c, 0, 70, 0
2, 192189, Note_on_c, 0, 69, 83
2, 192189, Note_on_c, 0, 72, 0
2, 192197, Note_on_c, 0, 60, 82
2, 192197, Note_on_c, 0, 64, 0
2, 192239, Note_on_c, 0, 60, 0
2, 192320, Note_on_c, 0, 67, 85
2, 192331, Note_on_c, 0, 69, 0
2, 192454, Note_on_c, 0, 65, 93
2, 192460, Note_on_c, 0, 69, 88
2, 192472, Note_on_c, 0, 67, 0
2, 192583, Note_on_c, 0, 64, 91
2, 192583, Note_on_c, 0, 70, 90
2, 192597, Note_on_c, 0, 69, 0
2, 192606, Note_on_c, 0, 65, 0
2, 192715, Note_on_c, 0, 65, 94
2, 192716, Note_on_c, 0, 69, 90
2, 192746, Note_on_c, 0, 64, 0
2, 192746, Note_on_c, 0, 70, 0
2, 192845, Note_on_c, 0, 70, 91
2, 192852, Note_on_c, 0, 67, 89
2, 192873, Note_on_c, 0, 65, 0
2, 192873, Note_on_c, 0, 69, 0
2, 192935, Note_on_c, 0, 67, 0
2, 192982, Note_on_c, 0, 64, 86
2, 192982, Note_on_c, 0, 67, 71
2, 193031, Note_on_c, 0, 70, 0
2, 193099, Note_on_c, 0, 69, 77
2, 193103, Note_on_c, 0, 67, 0
2, 193112, Note_on_c, 0, 65, 79
2, 193116, Note_on_c, 0, 64, 0
2, 193160, Note_on_c, 0, 65, 0
2, 193204, Note_on_c, 0, 69, 0
2, 193253, Note_on_c, 0, 62, 93
2, 193257, Note_on_c, 0, 65, 75
2, 193342, Note_on_c, 0, 65, 0
2, 193353, Note_on_c, 0, 67, 70
2, 193389, Note_on_c, 0, 60, 83
2, 193389, Note_on_c, 0, 62, 0
2, 193414, Note_on_c, 0, 67, 0
2, 193456, Note_on_c, 0, 65, 65
2, 193505, Note_on_c, 0, 65, 0
2, 193514, Note_on_c, 0, 62, 85
2, 193552, Note_on_c, 0, 67, 62
2, 193563, Note_on_c, 0, 60, 0
2, 193595, Note_on_c, 0, 67, 0
2, 193626, Note_on_c, 0, 65, 59
2, 193655, Note_on_c, 0, 64, 89
2, 193673, Note_on_c, 0, 62, 0
2, 193677, Note_on_c, 0, 65, 0
2, 193699, Note_on_c, 0, 67, 55
2, 193749, Note_on_c, 0, 67, 0
2, 193788, Note_on_c, 0, 62, 89
2, 193788, Note_on_c, 0, 65, 58
2, 193792, Note_on_c, 0, 64, 0
2, 193831, Note_on_c, 0, 65, 0
2, 193853, Note_on_c, 0, 67, 58
2, 193903, Note_on_c, 0, 67, 0
2, 193914, Note_on_c, 0, 64, 89
2, 193929, Note_on_c, 0, 65, 56
2, 193936, Note_on_c, 0, 62, 0
2, 193974, Note_on_c, 0, 65, 0
2, 194012, Note_on_c, 0, 64, 0
2, 194025, Note_on_c, 0, 67, 47
2, 194053, Note_on_c, 0, 60, 85
2, 194057, Note_on_c, 0, 67, 0
2, 194070, Note_on_c, 0, 65, 59
2, 194120, Note_on_c, 0, 65, 0
2, 194142, Note_on_c, 0, 67, 69
2, 194176, Note_on_c, 0, 62, 78
2, 194178, Note_on_c, 0, 67, 0
2, 194194, Note_on_c, 0, 60, 0
2, 194200, Note_on_c, 0, 65, 71
2, 194245, Note_on_c, 0, 65, 0
2, 194252, Note_on_c, 0, 67, 77
2, 194274, Note_on_c, 0, 62, 0
2, 194283, Note_on_c, 0, 67, 0
2, 194317, Note_on_c, 0, 59, 88
2, 194317, Note_on_c, 0, 65, 91
2, 194460, Note_on_c, 0, 59, 0
2, 194462, Note_on_c, 0, 57, 74
2, 194591, Note_on_c, 0, 59, 81
2, 194601, Note_on_c, 0, 74, 91
2, 194642, Note_on_c, 0, 57, 0
2, 194702, Note_on_c, 0, 65, 0
2, 194725, Note_on_c, 0, 60, 78
2, 194729, Note_on_c, 0, 59, 0
2, 194732, Note_on_c, 0, 72, 92
2, 194761, Note_on_c, 0, 74, 0
2, 194853, Note_on_c, 0, 60, 0
2, 194853, Note_on_c, 0, 72, 0
2, 194857, Note_on_c, 0, 59, 87
2, 194859, Note_on_c, 0, 74, 98
2, 194895, Note_on_c, 0, 74, 0
2, 194985, Note_on_c, 0, 60, 81
2, 195002, Note_on_c, 0, 59, 0
2, 195120, Note_on_c, 0, 65, 90
2, 195124, Note_on_c, 0, 57, 84
2, 195129, Note_on_c, 0, 60, 0
2, 195197, Note_on_c, 0, 65, 0
2, 195242, Note_on_c, 0, 59, 89
2, 195276, Note_on_c, 0, 57, 0
2, 195290, Note_on_c, 0, 59, 0
2, 195393, Note_on_c, 0, 60, 90
2, 195393, Note_on_c, 0, 64, 97
2, 195541, Note_on_c, 0, 62, 85
2, 195574, Note_on_c, 0, 64, 0
2, 195681, Note_on_c, 0, 48, 101
2, 195681, Note_on_c, 0, 64, 90
2, 195766, Note_on_c, 0, 62, 0
2, 195795, Note_on_c, 0, 65, 76
2, 195810, Note_on_c, 0, 47, 89
2, 195823, Note_on_c, 0, 64, 0
2, 195831, Note_on_c, 0, 48, 0
2, 195952, Note_on_c, 0, 48, 106
2, 195952, Note_on_c, 0, 64, 88
2, 195965, Note_on_c, 0, 65, 0
2, 195980, Note_on_c, 0, 47, 0
2, 196025, Note_on_c, 0, 48, 0
2, 196042, Note_on_c, 0, 60, 0
2, 196084, Note_on_c, 0, 65, 75
2, 196106, Note_on_c, 0, 64, 0
2, 196226, Note_on_c, 0, 43, 93
2, 196233, Note_on_c, 0, 62, 85
2, 196233, Note_on_c, 0, 65, 0
2, 196237, Note_on_c, 0, 59, 80
2, 196275, Note_on_c, 0, 43, 0
2, 196363, Note_on_c, 0, 64, 80
2, 196372, Note_on_c, 0, 62, 0
2, 196504, Note_on_c, 0, 52, 90
2, 196529, Note_on_c, 0, 60, 82
2, 196541, Note_on_c, 0, 50, 81
2, 196558, Note_on_c, 0, 52, 0
2, 196558, Note_on_c, 0, 59, 0
2, 196581, Note_on_c, 0, 64, 0
2, 196589, Note_on_c, 0, 52, 88
2, 196632, Note_on_c, 0, 59, 87
2, 196652, Note_on_c, 0, 50, 0
2, 196652, Note_on_c, 0, 60, 0
2, 196777, Note_on_c, 0, 57, 79
2, 196803, Note_on_c, 0, 59, 0
2, 196918, Note_on_c, 0, 60, 74
2, 196943, Note_on_c, 0, 57, 0
2, 197061, Note_on_c, 0, 59, 75
2, 197074, Note_on_c, 0, 50, 69
2, 197100, Note_on_c, 0, 60, 0
2, 197117, Note_on_c, 0, 52, 0
2, 197207, Note_on_c, 0, 57, 71
2, 197269, Note_on_c, 0, 59, 0
2, 197334, Note_on_c, 0, 55, 68
2, 197346, Note_on_c, 0, 57, 0
2, 197453, Note_on_c, 0, 59, 64
2, 197477, Note_on_c, 0, 55, 0
2, 197535, Note_on_c, 0, 50, 0
2, 197630, Note_on_c, 0, 59, 0
2, 197637, Note_on_c, 0, 57, 60
2, 197906, Note_on_c, 0, 48, 71
2, 197940, Note_on_c, 0, 55, 46
2, 198025, Note_on_c, 0, 47, 79
2, 198034, Note_on_c, 0, 48, 0
2, 198042, Note_on_c, 0, 55, 0
2, 198166, Note_on_c, 0, 48, 87
2, 198196, Note_on_c, 0, 54, 66
2, 198213, Note_on_c, 0, 47, 0
2, 198287, Note_on_c, 0, 54, 0
2, 198301, Note_on_c, 0, 50, 87
2, 198353, Note_on_c, 0, 48, 0
2, 198433, Note_on_c, 0, 47, 82
2, 198439, Note_on_c, 0, 59, 80
2, 198451, Note_on_c, 0, 55, 61
2, 198457, Note_on_c, 0, 50, 0
2, 198471, Note_on_c, 0, 57, 0
2, 198507, Note_on_c, 0, 55, 0
2, 198567, Note_on_c, 0, 48, 79
2, 198597, Note_on_c, 0, 47, 0
2, 198707, Note_on_c, 0, 59, 0
2, 198715, Note_on_c, 0, 60, 72
2, 198718, Note_on_c, 0, 45, 76
2, 198724, Note_on_c, 0, 48, 0
2, 198854, Note_on_c, 0, 45, 0
2, 198854, Note_on_c, 0, 48, 71
2, 198859, Note_on_c, 0, 54, 50
2, 198964, Note_on_c, 0, 48, 0
2, 198986, Note_on_c, 0, 47, 63
2, 199004, Note_on_c, 0, 55, 48
2, 199033, Note_on_c, 0, 54, 0
2, 199058, Note_on_c, 0, 55, 0
2, 199112, Note_on_c, 0, 47, 0
2, 199119, Note_on_c, 0, 48, 63
2, 199126, Note_on_c, 0, 52, 50
2, 199193, Note_on_c, 0, 52, 0
2, 199251, Note_on_c, 0, 50, 64
2, 199268, Note_on_c, 0, 54, 47
2, 199287, Note_on_c, 0, 48, 0
2, 199324, Note_on_c, 0, 54, 0
2, 199405, Note_on_c, 0, 52, 59
2, 199420, Note_on_c, 0, 50, 0
2, 199523, Note_on_c, 0, 57, 70
2, 199527, Note_on_c, 0, 52, 0
2, 199531, Note_on_c, 0, 60, 0
2, 199536, Note_on_c, 0, 48, 47
2, 199642, Note_on_c, 0, 48, 0
2, 199647, Note_on_c, 0, 50, 56
2, 199777, Note_on_c, 0, 50, 0
2, 199798, Note_on_c, 0, 47, 52
2, 199813, Note_on_c, 0, 62, 77
2, 199827, Note_on_c, 0, 57, 0
2, 199932, Note_on_c, 0, 47, 0
2, 199944, Note_on_c, 0, 50, 53
2, 200051, Note_on_c, 0, 50, 0
2, 200069, Note_on_c, 0, 59, 45
2, 200082, Note_on_c, 0, 48, 47
2, 200212, Note_on_c, 0, 48, 0
2, 200226, Note_on_c, 0, 50, 52
2, 200291, Note_on_c, 0, 59, 0
2, 200348, Note_on_c, 0, 52, 62
2, 200351, Note_on_c, 0, 55, 50
2, 200361, Note_on_c, 0, 50, 0
2, 200484, Note_on_c, 0, 53, 62
2, 200505, Note_on_c, 0, 52, 0
2, 200624, Note_on_c, 0, 53, 0
2, 200629, Note_on_c, 0, 50, 60
2, 200629, Note_on_c, 0, 59, 81
2, 200640, Note_on_c, 0, 55, 0
2, 200754, Note_on_c, 0, 52, 67
2, 200759, Note_on_c, 0, 50, 0
2, 200918, Note_on_c, 0, 48, 61
2, 200918, Note_on_c, 0, 52, 0
2, 200921, Note_on_c, 0, 64, 90
2, 200947, Note_on_c, 0, 62, 0
2, 200956, Note_on_c, 0, 59, 0
2, 201061, Note_on_c, 0, 52, 68
2, 201069, Note_on_c, 0, 48, 0
2, 201190, Note_on_c, 0, 52, 0
2, 201194, Note_on_c, 0, 60, 57
2, 201203, Note_on_c, 0, 50, 62
2, 201337, Note_on_c, 0, 52, 64
2, 201373, Note_on_c, 0, 50, 0
2, 201447, Note_on_c, 0, 60, 0
2, 201451, Note_on_c, 0, 57, 72
2, 201478, Note_on_c, 0, 53, 72
2, 201536, Note_on_c, 0, 52, 0
2, 201613, Note_on_c, 0, 55, 67
2, 201637, Note_on_c, 0, 53, 0
2, 201732, Note_on_c, 0, 52, 68
2, 201736, Note_on_c, 0, 60, 86
2, 201745, Note_on_c, 0, 55, 0
2, 201761, Note_on_c, 0, 57, 0
2, 201852, Note_on_c, 0, 53, 69
2, 201874, Note_on_c, 0, 52, 0
2, 202004, Note_on_c, 0, 50, 70
2, 202013, Note_on_c, 0, 65, 92
2, 202021, Note_on_c, 0, 53, 0
2, 202046, Note_on_c, 0, 60, 0
2, 202068, Note_on_c, 0, 64, 0
2, 202149, Note_on_c, 0, 53, 77
2, 202160, Note_on_c, 0, 50, 0
2, 202276, Note_on_c, 0, 53, 0
2, 202280, Note_on_c, 0, 52, 79
2, 202285, Note_on_c, 0, 62, 64
2, 202409, Note_on_c, 0, 53, 77
2, 202465, Note_on_c, 0, 52, 0
2, 202510, Note_on_c, 0, 62, 0
2, 202557, Note_on_c, 0, 55, 85
2, 202557, Note_on_c, 0, 59, 72
2, 202603, Note_on_c, 0, 53, 0
2, 202694, Note_on_c, 0, 57, 81
2, 202731, Note_on_c, 0, 55, 0
2, 202813, Note_on_c, 0, 62, 89
2, 202817, Note_on_c, 0, 53, 86
2, 202836, Note_on_c, 0, 59, 0
2, 202841, Note_on_c, 0, 57, 0
2, 202950, Note_on_c, 0, 55, 82
2, 202966, Note_on_c, 0, 53, 0
2, 203085, Note_on_c, 0, 52, 88
2, 203085, Note_on_c, 0, 67, 97
2, 203089, Note_on_c, 0, 65, 0
2, 203107, Note_on_c, 0, 62, 0
2, 203113, Note_on_c, 0, 55, 0
2, 203223, Note_on_c, 0, 50, 81
2, 203229, Note_on_c, 0, 52, 0
2, 203352, Note_on_c, 0, 52, 82
2, 203361, Note_on_c, 0, 59, 71
2, 203394, Note_on_c, 0, 50, 0
2, 203460, Note_on_c, 0, 59, 0
2, 203494, Note_on_c, 0, 53, 80
2, 203496, Note_on_c, 0, 52, 0
2, 203598, Note_on_c, 0, 67, 0
2, 203620, Note_on_c, 0, 52, 86
2, 203620, Note_on_c, 0, 60, 88
2, 203624, Note_on_c, 0, 69, 85
2, 203637, Note_on_c, 0, 53, 0
2, 203727, Note_on_c, 0, 60, 0
2, 203753, Note_on_c, 0, 53, 84
2, 203775, Note_on_c, 0, 52, 0
2, 203886, Note_on_c, 0, 50, 85
2, 203890, Note_on_c, 0, 53, 0
2, 203890, Note_on_c, 0, 71, 95
2, 203895, Note_on_c, 0, 62, 90
2, 203923, Note_on_c, 0, 69, 0
2, 204003, Note_on_c, 0, 62, 0
2, 204007, Note_on_c, 0, 52, 86
2, 204038, Note_on_c, 0, 50, 0
2, 204148, Note_on_c, 0, 71, 0
2, 204155, Note_on_c, 0, 52, 0
2, 204157, Note_on_c, 0, 48, 90
2, 204165, Note_on_c, 0, 64, 96
2, 204165, Note_on_c, 0, 72, 94
2, 204283, Note_on_c, 0, 50, 81
2, 204299, Note_on_c, 0, 64, 0
2, 204343, Note_on_c, 0, 48, 0
2, 204431, Note_on_c, 0, 52, 86
2, 204431, Note_on_c, 0, 67, 86
2, 204448, Note_on_c, 0, 50, 0
2, 204557, Note_on_c, 0, 50, 79
2, 204557, Note_on_c, 0, 65, 82
2, 204568, Note_on_c, 0, 67, 0
2, 204572, Note_on_c, 0, 52, 0
2, 204650, Note_on_c, 0, 50, 0
2, 204677, Note_on_c, 0, 48, 97
2, 204685, Note_on_c, 0, 67, 89
2, 204705, Note_on_c, 0, 65, 0
2, 204760, Note_on_c, 0, 67, 0
2, 204801, Note_on_c, 0, 46, 81
2, 204838, Note_on_c, 0, 48, 0
2, 204938, Note_on_c, 0, 45, 79
2, 204943, Note_on_c, 0, 60, 93
2, 204955, Note_on_c, 0, 46, 0
2, 205038, Note_on_c, 0, 60, 0
2, 205047, Note_on_c, 0, 45, 0
2, 205070, Note_on_c, 0, 43, 87
2, 205188, Note_on_c, 0, 69, 76
2, 205195, Note_on_c, 0, 41, 92
2, 205234, Note_on_c, 0, 67, 85
2, 205236, Note_on_c, 0, 69, 0
2, 205254, Note_on_c, 0, 43, 0
2, 205296, Note_on_c, 0, 69, 78
2, 205315, Note_on_c, 0, 40, 86
2, 205335, Note_on_c, 0, 67, 0
2, 205339, Note_on_c, 0, 41, 0
2, 205453, Note_on_c, 0, 41, 94
2, 205487, Note_on_c, 0, 40, 0
2, 205600, Note_on_c, 0, 43, 92
2, 205625, Note_on_c, 0, 41, 0
2, 205729, Note_on_c, 0, 41, 97
2, 205750, Note_on_c, 0, 67, 95
2, 205761, Note_on_c, 0, 43, 0
2, 205795, Note_on_c, 0, 69, 0
2, 205863, Note_on_c, 0, 43, 91
2, 205904, Note_on_c, 0, 41, 0
2, 205998, Note_on_c, 0, 40, 82
2, 206022, Note_on_c, 0, 43, 0
2, 206127, Note_on_c, 0, 41, 87
2, 206167, Note_on_c, 0, 40, 0
2, 206196, Note_on_c, 0, 67, 0
2, 206260, Note_on_c, 0, 38, 86
2, 206274, Note_on_c, 0, 41, 0
2, 206395, Note_on_c, 0, 45, 77
2, 206416, Note_on_c, 0, 38, 0
2, 206524, Note_on_c, 0, 47, 87
2, 206528, Note_on_c, 0, 65, 91
2, 206568, Note_on_c, 0, 45, 0
2, 206655, Note_on_c, 0, 48, 84
2, 206655, Note_on_c, 0, 64, 93
2, 206659, Note_on_c, 0, 65, 0
2, 206684, Note_on_c, 0, 47, 0
2, 206748, Note_on_c, 0, 48, 0
2, 206782, Note_on_c, 0, 50, 92
2, 206785, Note_on_c, 0, 65, 84
2, 206815, Note_on_c, 0, 64, 0
2, 206904, Note_on_c, 0, 52, 84
2, 206916, Note_on_c, 0, 67, 86
2, 206961, Note_on_c, 0, 65, 0
2, 206986, Note_on_c, 0, 50, 0
2, 207047, Note_on_c, 0, 53, 88
2, 207052, Note_on_c, 0, 64, 91
2, 207074, Note_on_c, 0, 52, 0
2, 207082, Note_on_c, 0, 67, 0
2, 207170, Note_on_c, 0, 50, 82
2, 207183, Note_on_c, 0, 65, 85
2, 207192, Note_on_c, 0, 53, 0
2, 207199, Note_on_c, 0, 64, 0
2, 207313, Note_on_c, 0, 55, 99
2, 207318, Note_on_c, 0, 50, 0
2, 207318, Note_on_c, 0, 62, 94
2, 207326, Note_on_c, 0, 65, 0
2, 207449, Note_on_c, 0, 65, 85
2, 207467, Note_on_c, 0, 62, 0
2, 207579, Note_on_c, 0, 64, 90
2, 207582, Note_on_c, 0, 65, 0
2, 207701, Note_on_c, 0, 65, 85
2, 207705, Note_on_c, 0, 72, 0
2, 207754, Note_on_c, 0, 64, 0
2, 207845, Note_on_c, 0, 67, 81
2, 207845, Note_on_c, 0, 71, 90
2, 207872, Note_on_c, 0, 65, 0
2, 207903, Note_on_c, 0, 67, 0
2, 207980, Note_on_c, 0, 69, 79
2, 208117, Note_on_c, 0, 65, 82
2, 208149, Note_on_c, 0, 69, 0
2, 208239, Note_on_c, 0, 67, 88
2, 208254, Note_on_c, 0, 71, 0
2, 208291, Note_on_c, 0, 65, 0
2, 208378, Note_on_c, 0, 64, 100
2, 208389, Note_on_c, 0, 67, 0
2, 208512, Note_on_c, 0, 62, 84
2, 208525, Note_on_c, 0, 64, 0
2, 208642, Note_on_c, 0, 72, 104
2, 208655, Note_on_c, 0, 64, 88
2, 208702, Note_on_c, 0, 62, 0
2, 208773, Note_on_c, 0, 71, 95
2, 208779, Note_on_c, 0, 64, 0
2, 208784, Note_on_c, 0, 65, 68
2, 208799, Note_on_c, 0, 72, 0
2, 208900, Note_on_c, 0, 72, 101
2, 208905, Note_on_c, 0, 65, 0
2, 208921, Note_on_c, 0, 64, 77
2, 208922, Note_on_c, 0, 71, 0
2, 208948, Note_on_c, 0, 72, 0
2, 209037, Note_on_c, 0, 64, 0
2, 209049, Note_on_c, 0, 65, 65
2, 209171, Note_on_c, 0, 65, 0
2, 209188, Note_on_c, 0, 62, 66
2, 209188, Note_on_c, 0, 67, 94
2, 209245, Note_on_c, 0, 67, 0
2, 209303, Note_on_c, 0, 62, 0
2, 209312, Note_on_c, 0, 64, 65
2, 209440, Note_on_c, 0, 76, 85
2, 209456, Note_on_c, 0, 64, 0
2, 209465, Note_on_c, 0, 60, 69
2, 209473, Note_on_c, 0, 76, 0
2, 209478, Note_on_c, 0, 74, 89
2, 209531, Note_on_c, 0, 76, 90
2, 209564, Note_on_c, 0, 60, 0
2, 209569, Note_on_c, 0, 59, 66
2, 209586, Note_on_c, 0, 74, 0
2, 209716, Note_on_c, 0, 60, 68
2, 209763, Note_on_c, 0, 59, 0
2, 209858, Note_on_c, 0, 62, 75
2, 209871, Note_on_c, 0, 60, 0
2, 209980, Note_on_c, 0, 62, 0
2, 209994, Note_on_c, 0, 74, 86
2, 209998, Note_on_c, 0, 60, 74
2, 210052, Note_on_c, 0, 76, 0
2, 210114, Note_on_c, 0, 62, 80
2, 210134, Note_on_c, 0, 55, 0
2, 210151, Note_on_c, 0, 60, 0
2, 210255, Note_on_c, 0, 59, 88
2, 210260, Note_on_c, 0, 62, 0
2, 210373, Note_on_c, 0, 60, 86
2, 210374, Note_on_c, 0, 74, 0
2, 210397, Note_on_c, 0, 59, 0
2, 210512, Note_on_c, 0, 57, 99
2, 210532, Note_on_c, 0, 60, 0
2, 210645, Note_on_c, 0, 59, 84
2, 210692, Note_on_c, 0, 57, 0
2, 210783, Note_on_c, 0, 72, 100
2, 210789, Note_on_c, 0, 60, 92
2, 210823, Note_on_c, 0, 59, 0
2, 210911, Note_on_c, 0, 71, 90
2, 210926, Note_on_c, 0, 62, 86
2, 210938, Note_on_c, 0, 60, 0
2, 210942, Note_on_c, 0, 72, 0
2, 211044, Note_on_c, 0, 64, 85
2, 211044, Note_on_c, 0, 72, 95
2, 211048, Note_on_c, 0, 62, 0
2, 211101, Note_on_c, 0, 71, 0
2, 211162, Note_on_c, 0, 66, 81
2, 211166, Note_on_c, 0, 74, 87
2, 211175, Note_on_c, 0, 64, 0
2, 211201, Note_on_c, 0, 72, 0
2, 211276, Note_on_c, 0, 66, 0
2, 211297, Note_on_c, 0, 71, 85
2, 211310, Note_on_c, 0, 67, 74
2, 211314, Note_on_c, 0, 59, 72
2, 211321, Note_on_c, 0, 74, 0
2, 211347, Note_on_c, 0, 67, 0
2, 211354, Note_on_c, 0, 59, 0
2, 211431, Note_on_c, 0, 72, 78
2, 211449, Note_on_c, 0, 71, 0
2, 211552, Note_on_c, 0, 72, 0
2, 211563, Note_on_c, 0, 69, 69
2, 211576, Note_on_c, 0, 60, 62
2, 211619, Note_on_c, 0, 60, 0
2, 211691, Note_on_c, 0, 72, 69
2, 211713, Note_on_c, 0, 69, 0
2, 211829, Note_on_c, 0, 72, 0
2, 211834, Note_on_c, 0, 57, 63
2, 211834, Note_on_c, 0, 67, 64
2, 211834, Note_on_c, 0, 71, 71
2, 211874, Note_on_c, 0, 57, 0
2, 211972, Note_on_c, 0, 72, 74
2, 212003, Note_on_c, 0, 71, 0
2, 212093, Note_on_c, 0, 62, 71
2, 212102, Note_on_c, 0, 74, 72
2, 212132, Note_on_c, 0, 62, 0
2, 212192, Note_on_c, 0, 67, 0
2, 212229, Note_on_c, 0, 72, 0
2, 212234, Note_on_c, 0, 74, 0
2, 212237, Note_on_c, 0, 76, 73
2, 212342, Note_on_c, 0, 50, 63
2, 212353, Note_on_c, 0, 76, 0
2, 212364, Note_on_c, 0, 72, 75
2, 212379, Note_on_c, 0, 66, 75
2, 212384, Note_on_c, 0, 50, 0
2, 212486, Note_on_c, 0, 74, 73
2, 212503, Note_on_c, 0, 72, 0
2, 212508, Note_on_c, 0, 66, 0
2, 212625, Note_on_c, 0, 43, 63
2, 212629, Note_on_c, 0, 67, 59
2, 212629, Note_on_c, 0, 71, 72
2, 212636, Note_on_c, 0, 74, 0
2, 212714, Note_on_c, 0, 67, 0
2, 212743, Note_on_c, 0, 71, 0
2, 212752, Note_on_c, 0, 42, 71
2, 212761, Note_on_c, 0, 43, 0
2, 212890, Note_on_c, 0, 43, 79
2, 212894, Note_on_c, 0, 74, 84
2, 212969, Note_on_c, 0, 42, 0
2, 213019, Note_on_c, 0, 45, 81
2, 213019, Note_on_c, 0, 72, 86
2, 213041, Note_on_c, 0, 74, 0
2, 213062, Note_on_c, 0, 43, 0
2, 213149, Note_on_c, 0, 47, 88
2, 213156, Note_on_c, 0, 74, 93
2, 213167, Note_on_c, 0, 72, 0
2, 213171, Note_on_c, 0, 45, 0
2, 213195, Note_on_c, 0, 74, 0
2, 213267, Note_on_c, 0, 48, 81
2, 213293, Note_on_c, 0, 47, 0
2, 213391, Note_on_c, 0, 48, 0
2, 213410, Note_on_c, 0, 45, 67
2, 213426, Note_on_c, 0, 67, 79
2, 213469, Note_on_c, 0, 67, 0
2, 213531, Note_on_c, 0, 47, 59
2, 213540, Note_on_c, 0, 45, 0
2, 213692, Note_on_c, 0, 48, 57
2, 213696, Note_on_c, 0, 47, 0
2, 213705, Note_on_c, 0, 76, 86
2, 213807, Note_on_c, 0, 48, 0
2, 213842, Note_on_c, 0, 47, 54
2, 213974, Note_on_c, 0, 48, 57
2, 213974, Note_on_c, 0, 67, 62
2, 213983, Note_on_c, 0, 47, 0
2, 214053, Note_on_c, 0, 76, 0
2, 214076, Note_on_c, 0, 67, 0
2, 214083, Note_on_c, 0, 65, 63
2, 214088, Note_on_c, 0, 48, 0
2, 214088, Note_on_c, 0, 50, 63
2, 214178, Note_on_c, 0, 50, 0
2, 214178, Note_on_c, 0, 65, 0
2, 214223, Note_on_c, 0, 48, 57
2, 214223, Note_on_c, 0, 67, 59
2, 214223, Note_on_c, 0, 74, 68
2, 214289, Note_on_c, 0, 67, 0
2, 214334, Note_on_c, 0, 50, 60
2, 214391, Note_on_c, 0, 48, 0
2, 214463, Note_on_c, 0, 50, 0
2, 214483, Note_on_c, 0, 47, 56
2, 214490, Note_on_c, 0, 62, 62
2, 214550, Note_on_c, 0, 62, 0
2, 214610, Note_on_c, 0, 47, 0
2, 214615, Note_on_c, 0, 48, 53
2, 214730, Note_on_c, 0, 74, 0
2, 214743, Note_on_c, 0, 72, 71
2, 214746, Note_on_c, 0, 69, 60
2, 214757, Note_on_c, 0, 45, 61
2, 214757, Note_on_c, 0, 48, 0
2, 214874, Note_on_c, 0, 44, 73
2, 214874, Note_on_c, 0, 45, 0
2, 214890, Note_on_c, 0, 72, 0
2, 214943, Note_on_c, 0, 69, 0
2, 215007, Note_on_c, 0, 45, 81
2, 215027, Note_on_c, 0, 76, 84
2, 215051, Note_on_c, 0, 44, 0
2, 215133, Note_on_c, 0, 47, 85
2, 215146, Note_on_c, 0, 74, 84
2, 215175, Note_on_c, 0, 76, 0
2, 215185, Note_on_c, 0, 45, 0
2, 215264, Note_on_c, 0, 48, 89
2, 215272, Note_on_c, 0, 67, 86
2, 215278, Note_on_c, 0, 76, 92
2, 215290, Note_on_c, 0, 74, 0
2, 215296, Note_on_c, 0, 47, 0
2, 215308, Note_on_c, 0, 67, 0
2, 215325, Note_on_c, 0, 76, 0
2, 215388, Note_on_c, 0, 50, 80
2, 215405, Note_on_c, 0, 48, 0
2, 215517, Note_on_c, 0, 50, 0
2, 215526, Note_on_c, 0, 47, 73
2, 215544, Note_on_c, 0, 69, 93
2, 215605, Note_on_c, 0, 69, 0
2, 215651, Note_on_c, 0, 48, 68
2, 215672, Note_on_c, 0, 47, 0
2, 215816, Note_on_c, 0, 50, 66
2, 215816, Note_on_c, 0, 65, 86
2, 215816, Note_on_c, 0, 77, 98
2, 215825, Note_on_c, 0, 48, 0
2, 215938, Note_on_c, 0, 50, 0
2, 215962, Note_on_c, 0, 48, 61
2, 216078, Note_on_c, 0, 65, 0
2, 216082, Note_on_c, 0, 69, 72
2, 216091, Note_on_c, 0, 50, 65
2, 216155, Note_on_c, 0, 48, 0
2, 216197, Note_on_c, 0, 77, 0
2, 216201, Note_on_c, 0, 67, 72
2, 216205, Note_on_c, 0, 69, 0
2, 216214, Note_on_c, 0, 52, 75
2, 216218, Note_on_c, 0, 50, 0
2, 216331, Note_on_c, 0, 67, 0
2, 216335, Note_on_c, 0, 76, 86
2, 216340, Note_on_c, 0, 69, 78
2, 216342, Note_on_c, 0, 52, 0
2, 216347, Note_on_c, 0, 50, 80
2, 216429, Note_on_c, 0, 69, 0
2, 216475, Note_on_c, 0, 52, 75
2, 216519, Note_on_c, 0, 50, 0
2, 216610, Note_on_c, 0, 64, 80
2, 216615, Note_on_c, 0, 48, 76
2, 216626, Note_on_c, 0, 52, 0
2, 216720, Note_on_c, 0, 64, 0
2, 216740, Note_on_c, 0, 50, 79
2, 216753, Note_on_c, 0, 48, 0
2, 216862, Note_on_c, 0, 71, 82
2, 216862, Note_on_c, 0, 74, 83
2, 216871, Note_on_c, 0, 47, 86
2, 216880, Note_on_c, 0, 76, 0
2, 216891, Note_on_c, 0, 50, 0
2, 217000, Note_on_c, 0, 45, 84
2, 217009, Note_on_c, 0, 47, 0
2, 217018, Note_on_c, 0, 74, 0
2, 217022, Note_on_c, 0, 71, 0
2, 217132, Note_on_c, 0, 47, 88
2, 217137, Note_on_c, 0, 77, 96
2, 217187, Note_on_c, 0, 45, 0
2, 217266, Note_on_c, 0, 48, 88
2, 217266, Note_on_c, 0, 76, 86
2, 217297, Note_on_c, 0, 77, 0
2, 217302, Note_on_c, 0, 47, 0
2, 217397, Note_on_c, 0, 50, 95
2, 217402, Note_on_c, 0, 69, 88
2, 217406, Note_on_c, 0, 77, 97
2, 217413, Note_on_c, 0, 76, 0
2, 217417, Note_on_c, 0, 48, 0
2, 217452, Note_on_c, 0, 69, 0
2, 217467, Note_on_c, 0, 77, 0
2, 217518, Note_on_c, 0, 52, 93
2, 217536, Note_on_c, 0, 50, 0
2, 217665, Note_on_c, 0, 48, 86
2, 217669, Note_on_c, 0, 52, 0
2, 217674, Note_on_c, 0, 71, 101
2, 217754, Note_on_c, 0, 71, 0
2, 217785, Note_on_c, 0, 50, 82
2, 217846, Note_on_c, 0, 48, 0
2, 217944, Note_on_c, 0, 52, 90
2, 217948, Note_on_c, 0, 67, 99
2, 217948, Note_on_c, 0, 79, 101
2, 217964, Note_on_c, 0, 50, 0
2, 218082, Note_on_c, 0, 50, 84
2, 218095, Note_on_c, 0, 52, 0
2, 218217, Note_on_c, 0, 52, 88
2, 218217, Note_on_c, 0, 67, 0
2, 218217, Note_on_c, 0, 71, 84
2, 218258, Note_on_c, 0, 50, 0
2, 218302, Note_on_c, 0, 79, 0
2, 218337, Note_on_c, 0, 53, 86
2, 218337, Note_on_c, 0, 69, 76
2, 218341, Note_on_c, 0, 71, 0
2, 218359, Note_on_c, 0, 52, 0
2, 218467, Note_on_c, 0, 71, 90
2, 218469, Note_on_c, 0, 77, 89
2, 218473, Note_on_c, 0, 52, 93
2, 218478, Note_on_c, 0, 69, 0
2, 218480, Note_on_c, 0, 53, 0
2, 218570, Note_on_c, 0, 71, 0
2, 218599, Note_on_c, 0, 53, 88
2, 218642, Note_on_c, 0, 52, 0
2, 218732, Note_on_c, 0, 50, 86
2, 218740, Note_on_c, 0, 67, 81
2, 218763, Note_on_c, 0, 53, 0
2, 218862, Note_on_c, 0, 52, 85
2, 218884, Note_on_c, 0, 50, 0
2, 218884, Note_on_c, 0, 67, 0
2, 219003, Note_on_c, 0, 48, 80
2, 219014, Note_on_c, 0, 76, 87
2, 219018, Note_on_c, 0, 72, 84
2, 219023, Note_on_c, 0, 52, 0
2, 219036, Note_on_c, 0, 77, 0
2, 219144, Note_on_c, 0, 47, 79
2, 219155, Note_on_c, 0, 48, 0
2, 219269, Note_on_c, 0, 72, 0
2, 219275, Note_on_c, 0, 48, 81
2, 219280, Note_on_c, 0, 77, 94
2, 219321, Note_on_c, 0, 76, 0
2, 219350, Note_on_c, 0, 47, 0
2, 219412, Note_on_c, 0, 50, 81
2, 219460, Note_on_c, 0, 48, 0
2, 219555, Note_on_c, 0, 52, 75
2, 219564, Note_on_c, 0, 79, 102
2, 219568, Note_on_c, 0, 70, 84
2, 219582, Note_on_c, 0, 50, 0
2, 219587, Note_on_c, 0, 77, 0
2, 219687, Note_on_c, 0, 53, 78
2, 219692, Note_on_c, 0, 52, 0
2, 219804, Note_on_c, 0, 53, 0
2, 219816, Note_on_c, 0, 50, 72
2, 219940, Note_on_c, 0, 52, 69
2, 219964, Note_on_c, 0, 50, 0
2, 220087, Note_on_c, 0, 53, 69
2, 220098, Note_on_c, 0, 69, 63
2, 220116, Note_on_c, 0, 70, 0
2, 220120, Note_on_c, 0, 52, 0
2, 220212, Note_on_c, 0, 53, 0
2, 220214, Note_on_c, 0, 55, 63
2, 220333, Note_on_c, 0, 55, 0
2, 220350, Note_on_c, 0, 53, 64
2, 220473, Note_on_c, 0, 53, 0
2, 220476, Note_on_c, 0, 52, 61
2, 220596, Note_on_c, 0, 52, 0
2, 220622, Note_on_c, 0, 50, 57
2, 220622, Note_on_c, 0, 77, 85
2, 220651, Note_on_c, 0, 79, 0
2, 220659, Note_on_c, 0, 69, 0
2, 220693, Note_on_c, 0, 78, 8
2, 220728, Note_on_c, 0, 50, 0
2, 220728, Note_on_c, 0, 78, 0
2, 220754, Note_on_c, 0, 48, 56
2, 220887, Note_on_c, 0, 48, 0
2, 220890, Note_on_c, 0, 47, 55
2, 220998, Note_on_c, 0, 47, 0
2, 221022, Note_on_c, 0, 45, 55
2, 221147, Note_on_c, 0, 45, 0
2, 221151, Note_on_c, 0, 47, 58
2, 221151, Note_on_c, 0, 67, 59
2, 221283, Note_on_c, 0, 47, 0
2, 221298, Note_on_c, 0, 43, 56
2, 221421, Note_on_c, 0, 43, 0
2, 221436, Note_on_c, 0, 45, 54
2, 221549, Note_on_c, 0, 45, 0
2, 221549, Note_on_c, 0, 47, 57
2, 221690, Note_on_c, 0, 48, 59
2, 221690, Note_on_c, 0, 76, 83
2, 221712, Note_on_c, 0, 47, 0
2, 221719, Note_on_c, 0, 77, 0
2, 221748, Note_on_c, 0, 67, 0
2, 221820, Note_on_c, 0, 50, 60
2, 221838, Note_on_c, 0, 48, 0
2, 221947, Note_on_c, 0, 50, 0
2, 221954, Note_on_c, 0, 47, 53
2, 222071, Note_on_c, 0, 48, 53
2, 222073, Note_on_c, 0, 47, 0
2, 222201, Note_on_c, 0, 48, 0
2, 222221, Note_on_c, 0, 65, 60
2, 222229, Note_on_c, 0, 45, 48
2, 222267, Note_on_c, 0, 76, 0
2, 222328, Note_on_c, 0, 45, 0
2, 222355, Note_on_c, 0, 48, 55
2, 222452, Note_on_c, 0, 48, 0
2, 222489, Note_on_c, 0, 47, 52
2, 222596, Note_on_c, 0, 47, 0
2, 222616, Note_on_c, 0, 48, 48
2, 222738, Note_on_c, 0, 50, 60
2, 222738, Note_on_c, 0, 74, 80
2, 222762, Note_on_c, 0, 74, 0
2, 222790, Note_on_c, 0, 48, 0
2, 222865, Note_on_c, 0, 52, 56
2, 222866, Note_on_c, 0, 50, 0
2, 222996, Note_on_c, 0, 52, 0
2, 223000, Note_on_c, 0, 72, 82
2, 223009, Note_on_c, 0, 53, 57
2, 223046, Note_on_c, 0, 72, 0
2, 223100, Note_on_c, 0, 53, 0
2, 223134, Note_on_c, 0, 50, 50
2, 223286, Note_on_c, 0, 50, 0
2, 223291, Note_on_c, 0, 71, 88
2, 223297, Note_on_c, 0, 55, 58
2, 223432, Note_on_c, 0, 57, 58
2, 223450, Note_on_c, 0, 55, 0
2, 223558, Note_on_c, 0, 53, 51
2, 223558, Note_on_c, 0, 57, 0
2, 223558, Note_on_c, 0, 67, 51
2, 223639, Note_on_c, 0, 65, 0
2, 223697, Note_on_c, 0, 55, 58
2, 223699, Note_on_c, 0, 53, 0
2, 223830, Note_on_c, 0, 72, 94
2, 223835, Note_on_c, 0, 57, 63
2, 223844, Note_on_c, 0, 64, 83
2, 223855, Note_on_c, 0, 71, 0
2, 223870, Note_on_c, 0, 55, 0
2, 223870, Note_on_c, 0, 67, 0
2, 223965, Note_on_c, 0, 59, 59
2, 224007, Note_on_c, 0, 57, 0
2, 224100, Note_on_c, 0, 59, 0
2, 224105, Note_on_c, 0, 55, 62
2, 224217, Note_on_c, 0, 57, 75
2, 224228, Note_on_c, 0, 55, 0
2, 224361, Note_on_c, 0, 53, 77
2, 224361, Note_on_c, 0, 57, 0
2, 224361, Note_on_c, 0, 62, 91
2, 224370, Note_on_c, 0, 72, 0
2, 224390, Note_on_c, 0, 64, 0
2, 224487, Note_on_c, 0, 55, 82
2, 224513, Note_on_c, 0, 53, 0
2, 224631, Note_on_c, 0, 52, 89
2, 224646, Note_on_c, 0, 55, 0
2, 224754, Note_on_c, 0, 53, 85
2, 224806, Note_on_c, 0, 52, 0
2, 224892, Note_on_c, 0, 71, 93
2, 224897, Note_on_c, 0, 55, 90
2, 224935, Note_on_c, 0, 53, 0
2, 225021, Note_on_c, 0, 65, 74
2, 225032, Note_on_c, 0, 57, 83
2, 225072, Note_on_c, 0, 55, 0
2, 225072, Note_on_c, 0, 62, 0
2, 225101, Note_on_c, 0, 71, 0
2, 225161, Note_on_c, 0, 57, 0
2, 225165, Note_on_c, 0, 53, 75
2, 225165, Note_on_c, 0, 64, 83
2, 225230, Note_on_c, 0, 65, 0
2, 225277, Note_on_c, 0, 64, 0
2, 225285, Note_on_c, 0, 62, 74
2, 225286, Note_on_c, 0, 53, 0
2, 225286, Note_on_c, 0, 55, 66
2, 225428, Note_on_c, 0, 55, 0
2, 225428, Note_on_c, 0, 67, 71
2, 225428, Note_on_c, 0, 72, 76
2, 225437, Note_on_c, 0, 52, 60
2, 225461, Note_on_c, 0, 62, 0
2, 225483, Note_on_c, 0, 52, 0
2, 225556, Note_on_c, 0, 69, 72
2, 225562, Note_on_c, 0, 72, 0
2, 225594, Note_on_c, 0, 67, 0
2, 225689, Note_on_c, 0, 74, 80
2, 225693, Note_on_c, 0, 53, 82
2, 225697, Note_on_c, 0, 65, 79
2, 225715, Note_on_c, 0, 69, 0
2, 225813, Note_on_c, 0, 53, 0
2, 225821, Note_on_c, 0, 67, 80
2, 225855, Note_on_c, 0, 65, 0
2, 225859, Note_on_c, 0, 74, 0
2, 225883, Note_on_c, 0, 67, 0
2, 225962, Note_on_c, 0, 55, 93
2, 225962, Note_on_c, 0, 64, 90
2, 225962, Note_on_c, 0, 67, 83
2, 226060, Note_on_c, 0, 55, 0
2, 226094, Note_on_c, 0, 72, 85
2, 226109, Note_on_c, 0, 64, 0
2, 226125, Note_on_c, 0, 67, 0
2, 226216, Note_on_c, 0, 56, 101
2, 226243, Note_on_c, 0, 62, 82
2, 226290, Note_on_c, 0, 56, 0
2, 226312, Note_on_c, 0, 72, 0
2, 226356, Note_on_c, 0, 71, 79
2, 226389, Note_on_c, 0, 62, 0
2, 226501, Note_on_c, 0, 45, 106
2, 226501, Note_on_c, 0, 71, 0
2, 226506, Note_on_c, 0, 60, 92
2, 226506, Note_on_c, 0, 72, 86
2, 226559, Note_on_c, 0, 45, 0
2, 226559, Note_on_c, 0, 72, 0
2, 226661, Note_on_c, 0, 65, 66
2, 226800, Note_on_c, 0, 55, 101
2, 226800, Note_on_c, 0, 64, 82
2, 226824, Note_on_c, 0, 65, 0
2, 226921, Note_on_c, 0, 53, 95
2, 226922, Note_on_c, 0, 62, 81
2, 226940, Note_on_c, 0, 64, 0
2, 226944, Note_on_c, 0, 55, 0
2, 227065, Note_on_c, 0, 55, 103
2, 227070, Note_on_c, 0, 64, 83
2, 227093, Note_on_c, 0, 53, 0
2, 227117, Note_on_c, 0, 62, 0
2, 227132, Note_on_c, 0, 55, 0
2, 227188, Note_on_c, 0, 65, 69
2, 227201, Note_on_c, 0, 64, 0
2, 227315, Note_on_c, 0, 65, 0
2, 227327, Note_on_c, 0, 62, 68
2, 227338, Note_on_c, 0, 48, 83
2, 227375, Note_on_c, 0, 48, 0
2, 227450, Note_on_c, 0, 64, 67
2, 227575, Note_on_c, 0, 64, 0
2, 227581, Note_on_c, 0, 62, 0
2, 227584, Note_on_c, 0, 65, 58
2, 227605, Note_on_c, 0, 57, 89
2, 227645, Note_on_c, 0, 55, 80
2, 227660, Note_on_c, 0, 57, 0
2, 227685, Note_on_c, 0, 65, 0
2, 227696, Note_on_c, 0, 57, 90
2, 227705, Note_on_c, 0, 64, 73
2, 227764, Note_on_c, 0, 55, 0
2, 227861, Note_on_c, 0, 65, 43
2, 227944, Note_on_c, 0, 64, 0
2, 228006, Note_on_c, 0, 65, 0
2, 228022, Note_on_c, 0, 67, 61
2, 228145, Note_on_c, 0, 67, 0
2, 228154, Note_on_c, 0, 65, 62
2, 228168, Note_on_c, 0, 55, 70
2, 228217, Note_on_c, 0, 57, 0
2, 228273, Note_on_c, 0, 65, 0
2, 228291, Note_on_c, 0, 67, 65
2, 228412, Note_on_c, 0, 67, 0
2, 228425, Note_on_c, 0, 64, 61
2, 228546, Note_on_c, 0, 65, 63
2, 228554, Note_on_c, 0, 55, 0
2, 228554, Note_on_c, 0, 64, 0
2, 228671, Note_on_c, 0, 60, 0
2, 228680, Note_on_c, 0, 62, 69
2, 228702, Note_on_c, 0, 65, 0
2, 228785, Note_on_c, 0, 62, 0
2, 228812, Note_on_c, 0, 60, 69
2, 228948, Note_on_c, 0, 53, 97
2, 228948, Note_on_c, 0, 62, 78
2, 228978, Note_on_c, 0, 60, 0
2, 229073, Note_on_c, 0, 52, 92
2, 229073, Note_on_c, 0, 64, 82
2, 229082, Note_on_c, 0, 62, 0
2, 229089, Note_on_c, 0, 53, 0
2, 229151, Note_on_c, 0, 52, 0
2, 229204, Note_on_c, 0, 53, 99
2, 229213, Note_on_c, 0, 62, 80
2, 229223, Note_on_c, 0, 64, 0
2, 229269, Note_on_c, 0, 53, 0
2, 229346, Note_on_c, 0, 64, 71
2, 229350, Note_on_c, 0, 62, 0
2, 229481, Note_on_c, 0, 60, 68
2, 229488, Note_on_c, 0, 50, 95
2, 229493, Note_on_c, 0, 64, 0
2, 229531, Note_on_c, 0, 50, 0
2, 229601, Note_on_c, 0, 62, 68
2, 229619, Note_on_c, 0, 60, 0
2, 229742, Note_on_c, 0, 62, 0
2, 229742, Note_on_c, 0, 64, 72
2, 229752, Note_on_c, 0, 55, 91
2, 229792, Note_on_c, 0, 53, 83
2, 229799, Note_on_c, 0, 55, 0
2, 229851, Note_on_c, 0, 55, 92
2, 229862, Note_on_c, 0, 62, 74
2, 229866, Note_on_c, 0, 64, 0
2, 229913, Note_on_c, 0, 53, 0
2, 230001, Note_on_c, 0, 60, 68
2, 230006, Note_on_c, 0, 62, 0
2, 230006, Note_on_c, 0, 64, 76
2, 230146, Note_on_c, 0, 65, 68
2, 230155, Note_on_c, 0, 64, 0
2, 230298, Note_on_c, 0, 53, 79
2, 230302, Note_on_c, 0, 64, 77
2, 230307, Note_on_c, 0, 65, 0
2, 230333, Note_on_c, 0, 55, 0
2, 230395, Note_on_c, 0, 60, 0
2, 230440, Note_on_c, 0, 65, 68
2, 230445, Note_on_c, 0, 64, 0
2, 230549, Note_on_c, 0, 65, 0
2, 230569, Note_on_c, 0, 62, 66
2, 230571, Note_on_c, 0, 59, 56
2, 230644, Note_on_c, 0, 59, 0
2, 230694, Note_on_c, 0, 62, 0
2, 230694, Note_on_c, 0, 64, 68
2, 230820, Note_on_c, 0, 64, 0
2, 230829, Note_on_c, 0, 60, 66
2, 230843, Note_on_c, 0, 52, 62
2, 230879, Note_on_c, 0, 53, 0
2, 230957, Note_on_c, 0, 52, 0
2, 230975, Note_on_c, 0, 50, 63
2, 231100, Note_on_c, 0, 50, 0
2, 231104, Note_on_c, 0, 52, 67
2, 231111, Note_on_c, 0, 55, 80
2, 231233, Note_on_c, 0, 53, 88
2, 231241, Note_on_c, 0, 52, 0
2, 231263, Note_on_c, 0, 55, 0
2, 231368, Note_on_c, 0, 55, 87
2, 231373, Note_on_c, 0, 53, 0
2, 231377, Note_on_c, 0, 52, 62
2, 231450, Note_on_c, 0, 55, 0
2, 231474, Note_on_c, 0, 53, 63
2, 231486, Note_on_c, 0, 52, 0
2, 231608, Note_on_c, 0, 53, 0
2, 231624, Note_on_c, 0, 48, 85
2, 231629, Note_on_c, 0, 50, 67
2, 231696, Note_on_c, 0, 48, 0
2, 231753, Note_on_c, 0, 52, 74
2, 231797, Note_on_c, 0, 50, 0
2, 231884, Note_on_c, 0, 57, 82
2, 231894, Note_on_c, 0, 53, 84
2, 231903, Note_on_c, 0, 52, 0
2, 231926, Note_on_c, 0, 57, 0
2, 231936, Note_on_c, 0, 55, 80
2, 231989, Note_on_c, 0, 57, 83
2, 232014, Note_on_c, 0, 52, 94
2, 232027, Note_on_c, 0, 55, 0
2, 232045, Note_on_c, 0, 53, 0
2, 232154, Note_on_c, 0, 53, 94
2, 232194, Note_on_c, 0, 52, 0
2, 232268, Note_on_c, 0, 57, 0
2, 232279, Note_on_c, 0, 55, 85
2, 232306, Note_on_c, 0, 53, 0
2, 232355, Note_on_c, 0, 55, 0
2, 232415, Note_on_c, 0, 53, 86
2, 232419, Note_on_c, 0, 55, 71
2, 232466, Note_on_c, 0, 55, 0
2, 232557, Note_on_c, 0, 55, 74
2, 232562, Note_on_c, 0, 53, 0
2, 232678, Note_on_c, 0, 55, 0
2, 232691, Note_on_c, 0, 52, 76
2, 232815, Note_on_c, 0, 53, 80
2, 232824, Note_on_c, 0, 52, 0
2, 232910, Note_on_c, 0, 53, 0
2, 232943, Note_on_c, 0, 50, 78
2, 233077, Note_on_c, 0, 50, 0
2, 233082, Note_on_c, 0, 48, 78
2, 233211, Note_on_c, 0, 50, 77
2, 233218, Note_on_c, 0, 53, 80
2, 233252, Note_on_c, 0, 48, 0
2, 233305, Note_on_c, 0, 53, 0
2, 233332, Note_on_c, 0, 52, 86
2, 233350, Note_on_c, 0, 50, 0
2, 233469, Note_on_c, 0, 50, 81
2, 233469, Note_on_c, 0, 53, 80
2, 233485, Note_on_c, 0, 52, 0
2, 233514, Note_on_c, 0, 53, 0
2, 233578, Note_on_c, 0, 50, 0
2, 233608, Note_on_c, 0, 48, 65
2, 233714, Note_on_c, 0, 48, 0
2, 233734, Note_on_c, 0, 50, 69
2, 233746, Note_on_c, 0, 47, 66
2, 233806, Note_on_c, 0, 50, 0
2, 233866, Note_on_c, 0, 45, 64
2, 233875, Note_on_c, 0, 47, 0
2, 233982, Note_on_c, 0, 45, 0
2, 234004, Note_on_c, 0, 55, 71
2, 234009, Note_on_c, 0, 60, 0
2, 234013, Note_on_c, 0, 43, 73
2, 234143, Note_on_c, 0, 41, 80
2, 234148, Note_on_c, 0, 43, 0
2, 234218, Note_on_c, 0, 55, 0
2, 234269, Note_on_c, 0, 59, 89
2, 234278, Note_on_c, 0, 43, 82
2, 234308, Note_on_c, 0, 41, 0
2, 234406, Note_on_c, 0, 45, 91
2, 234426, Note_on_c, 0, 43, 0
2, 234478, Note_on_c, 0, 59, 0
2, 234541, Note_on_c, 0, 60, 80
2, 234548, Note_on_c, 0, 43, 93
2, 234548, Note_on_c, 0, 57, 92
2, 234552, Note_on_c, 0, 45, 0
2, 234655, Note_on_c, 0, 41, 93
2, 234666, Note_on_c, 0, 57, 0
2, 234679, Note_on_c, 0, 43, 0
2, 234696, Note_on_c, 0, 60, 0
2, 234801, Note_on_c, 0, 40, 86
2, 234810, Note_on_c, 0, 59, 84
2, 234810, Note_on_c, 0, 62, 92
2, 234839, Note_on_c, 0, 41, 0
2, 234924, Note_on_c, 0, 59, 0
2, 234929, Note_on_c, 0, 38, 84
2, 234929, Note_on_c, 0, 40, 0
2, 234983, Note_on_c, 0, 62, 0
2, 235072, Note_on_c, 0, 60, 80
2, 235075, Note_on_c, 0, 36, 81
2, 235075, Note_on_c, 0, 64, 83
2, 235114, Note_on_c, 0, 38, 0
2, 235209, Note_on_c, 0, 60, 0
2, 235214, Note_on_c, 0, 36, 0
2, 235214, Note_on_c, 0, 64, 0
2, 235223, Note_on_c, 0, 48, 69
2, 235351, Note_on_c, 0, 48, 0
2, 235355, Note_on_c, 0, 52, 89
2, 235355, Note_on_c, 0, 67, 88
2, 235362, Note_on_c, 0, 58, 85
2, 235438, Note_on_c, 0, 58, 0
2, 235466, Note_on_c, 0, 52, 0
2, 235480, Note_on_c, 0, 48, 88
2, 235480, Note_on_c, 0, 65, 80
2, 235493, Note_on_c, 0, 57, 84
2, 235514, Note_on_c, 0, 67, 0
2, 235579, Note_on_c, 0, 65, 0
2, 235588, Note_on_c, 0, 48, 0
2, 235617, Note_on_c, 0, 36, 99
2, 235625, Note_on_c, 0, 58, 85
2, 235625, Note_on_c, 0, 67, 87
2, 235649, Note_on_c, 0, 57, 0
2, 235665, Note_on_c, 0, 58, 0
2, 235692, Note_on_c, 0, 67, 0
2, 235721, Note_on_c, 0, 36, 0
2, 235751, Note_on_c, 0, 48, 78
2, 235872, Note_on_c, 0, 48, 0
2, 235902, Note_on_c, 0, 55, 88
2, 235907, Note_on_c, 0, 60, 85
2, 235907, Note_on_c, 0, 64, 87
2, 235958, Note_on_c, 0, 64, 0
2, 235978, Note_on_c, 0, 60, 0
2, 235983, Note_on_c, 0, 55, 0
2, 236028, Note_on_c, 0, 48, 77
2, 236141, Note_on_c, 0, 48, 0
2, 236177, Note_on_c, 0, 36, 88
2, 236187, Note_on_c, 0, 65, 95
2, 236187, Note_on_c, 0, 69, 90
2, 236331, Note_on_c, 0, 38, 79
2, 236366, Note_on_c, 0, 36, 0
2, 236465, Note_on_c, 0, 40, 79
2, 236543, Note_on_c, 0, 38, 0
2, 236560, Note_on_c, 0, 69, 0
2, 236600, Note_on_c, 0, 41, 90
2, 236616, Note_on_c, 0, 65, 0
2, 236654, Note_on_c, 0, 40, 0
2, 236737, Note_on_c, 0, 64, 97
2, 236741, Note_on_c, 0, 67, 89
2, 236743, Note_on_c, 0, 43, 91
2, 236773, Note_on_c, 0, 41, 0
2, 236866, Note_on_c, 0, 45, 93
2, 236882, Note_on_c, 0, 43, 0
2, 236990, Note_on_c, 0, 47, 92
2, 237023, Note_on_c, 0, 45, 0
2, 237119, Note_on_c, 0, 48, 88
2, 237143, Note_on_c, 0, 47, 0
2, 237177, Note_on_c, 0, 67, 0
2, 237186, Note_on_c, 0, 64, 0
2, 237238, Note_on_c, 0, 48, 0
2, 237269, Note_on_c, 0, 36, 97
2, 237385, Note_on_c, 0, 36, 0
2, 237401, Note_on_c, 0, 48, 75
2, 237544, Note_on_c, 0, 48, 0
2, 237544, Note_on_c, 0, 50, 88
2, 237544, Note_on_c, 0, 65, 94
2, 237631, Note_on_c, 0, 50, 0
2, 237667, Note_on_c, 0, 64, 93
2, 237676, Note_on_c, 0, 48, 78
2, 237680, Note_on_c, 0, 65, 0
2, 237754, Note_on_c, 0, 64, 0
2, 237781, Note_on_c, 0, 48, 0
2, 237798, Note_on_c, 0, 65, 89
2, 237809, Note_on_c, 0, 36, 86
2, 237852, Note_on_c, 0, 65, 0
2, 237876, Note_on_c, 0, 36, 0
2, 237923, Note_on_c, 0, 48, 71
2, 238026, Note_on_c, 0, 48, 0
2, 238070, Note_on_c, 0, 53, 80
2, 238083, Note_on_c, 0, 62, 87
2, 238130, Note_on_c, 0, 62, 0
2, 238164, Note_on_c, 0, 53, 0
2, 238193, Note_on_c, 0, 48, 69
2, 238348, Note_on_c, 0, 48, 0
2, 238357, Note_on_c, 0, 67, 92
2, 238362, Note_on_c, 0, 47, 77
2, 238500, Note_on_c, 0, 47, 0
2, 238500, Note_on_c, 0, 48, 76
2, 238628, Note_on_c, 0, 47, 77
2, 238635, Note_on_c, 0, 48, 0
2, 238637, Note_on_c, 0, 62, 81
2, 238710, Note_on_c, 0, 67, 0
2, 238757, Note_on_c, 0, 45, 76
2, 238757, Note_on_c, 0, 60, 76
2, 238775, Note_on_c, 0, 62, 0
2, 238779, Note_on_c, 0, 47, 0
2, 238884, Note_on_c, 0, 45, 0
2, 238884, Note_on_c, 0, 65, 85
2, 238891, Note_on_c, 0, 62, 81
2, 238895, Note_on_c, 0, 43, 88
2, 238917, Note_on_c, 0, 60, 0
2, 239012, Note_on_c, 0, 41, 79
2, 239016, Note_on_c, 0, 43, 0
2, 239028, Note_on_c, 0, 62, 0
2, 239160, Note_on_c, 0, 55, 76
2, 239164, Note_on_c, 0, 40, 73
2, 239183, Note_on_c, 0, 41, 0
2, 239240, Note_on_c, 0, 55, 0
2, 239279, Note_on_c, 0, 38, 79
2, 239288, Note_on_c, 0, 40, 0
2, 239395, Note_on_c, 0, 65, 0
2, 239400, Note_on_c, 0, 60, 84
2, 239402, Note_on_c, 0, 64, 82
2, 239413, Note_on_c, 0, 36, 77
2, 239489, Note_on_c, 0, 60, 0
2, 239503, Note_on_c, 0, 38, 0
2, 239534, Note_on_c, 0, 64, 0
2, 239538, Note_on_c, 0, 36, 0
2, 239538, Note_on_c, 0, 48, 81
2, 239583, Note_on_c, 0, 48, 0
2, 239672, Note_on_c, 0, 65, 91
2, 239672, Note_on_c, 0, 68, 99
2, 239687, Note_on_c, 0, 50, 82
2, 239693, Note_on_c, 0, 59, 96
2, 239818, Note_on_c, 0, 48, 79
2, 239823, Note_on_c, 0, 50, 0
2, 239829, Note_on_c, 0, 59, 0
2, 239843, Note_on_c, 0, 65, 0
2, 239899, Note_on_c, 0, 68, 0
2, 239949, Note_on_c, 0, 48, 0
2, 239957, Note_on_c, 0, 60, 96
2, 239966, Note_on_c, 0, 52, 81
2, 239966, Note_on_c, 0, 64, 96
2, 239966, Note_on_c, 0, 67, 90
2, 240075, Note_on_c, 0, 64, 0
2, 240095, Note_on_c, 0, 48, 78
2, 240111, Note_on_c, 0, 60, 0
2, 240118, Note_on_c, 0, 52, 0
2, 240136, Note_on_c, 0, 67, 0
2, 240209, Note_on_c, 0, 48, 0
2, 240230, Note_on_c, 0, 71, 95
2, 240235, Note_on_c, 0, 53, 80
2, 240239, Note_on_c, 0, 62, 93
2, 240239, Note_on_c, 0, 68, 97
2, 240375, Note_on_c, 0, 62, 0
2, 240384, Note_on_c, 0, 48, 73
2, 240401, Note_on_c, 0, 53, 0
2, 240419, Note_on_c, 0, 68, 0
2, 240443, Note_on_c, 0, 71, 0
2, 240490, Note_on_c, 0, 48, 0
2, 240517, Note_on_c, 0, 64, 101
2, 240522, Note_on_c, 0, 67, 101
2, 240522, Note_on_c, 0, 72, 96
2, 240526, Note_on_c, 0, 55, 76
2, 240618, Note_on_c, 0, 64, 0
2, 240660, Note_on_c, 0, 48, 70
2, 240671, Note_on_c, 0, 67, 0
2, 240685, Note_on_c, 0, 55, 0
2, 240700, Note_on_c, 0, 72, 0
2, 240815, Note_on_c, 0, 48, 0
2, 240815, Note_on_c, 0, 59, 98
2, 240819, Note_on_c, 0, 56, 83
2, 240819, Note_on_c, 0, 62, 94
2, 240819, Note_on_c, 0, 65, 96
2, 240956, Note_on_c, 0, 62, 0
2, 240959, Note_on_c, 0, 48, 67
2, 240968, Note_on_c, 0, 59, 0
2, 241021, Note_on_c, 0, 56, 0
2, 241076, Note_on_c, 0, 65, 0
2, 241085, Note_on_c, 0, 48, 0
2, 241123, Note_on_c, 0, 60, 98
2, 241125, Note_on_c, 0, 55, 77
2, 241125, Note_on_c, 0, 64, 100
2, 241210, Note_on_c, 0, 60, 0
2, 241243, Note_on_c, 0, 48, 72
2, 241282, Note_on_c, 0, 55, 0
2, 241312, Note_on_c, 0, 64, 0
2, 241321, Note_on_c, 0, 48, 0
2, 241415, Note_on_c, 0, 47, 85
2, 241420, Note_on_c, 0, 64, 101
2, 241426, Note_on_c, 0, 72, 92
2, 241556, Note_on_c, 0, 48, 68
2, 241643, Note_on_c, 0, 47, 0
2, 241698, Note_on_c, 0, 64, 0
2, 241805, Note_on_c, 0, 57, 86
2, 241818, Note_on_c, 0, 41, 78
2, 241818, Note_on_c, 0, 62, 104
2, 241866, Note_on_c, 0, 48, 0
2, 241866, Note_on_c, 0, 72, 0
2, 242250, Note_on_c, 0, 72, 110
2, 242259, Note_on_c, 0, 62, 0
2, 242263, Note_on_c, 0, 57, 0
2, 242272, Note_on_c, 0, 41, 0
2, 242737, Note_on_c, 0, 65, 93
2, 242739, Note_on_c, 0, 55, 92
2, 242739, Note_on_c, 0, 62, 96
2, 242739, Note_on_c, 0, 72, 0
2, 242748, Note_on_c, 0, 43, 83
2, 243380, Note_on_c, 0, 62, 0
2, 243401, Note_on_c, 0, 71, 105
2, 243434, Note_on_c, 0, 65, 0
2, 243455, Note_on_c, 0, 55, 0
2, 243503, Note_on_c, 0, 43, 0
2, 244251, Note_on_c, 0, 72, 104
2, 244257, Note_on_c, 0, 36, 84
2, 244257, Note_on_c, 0, 60, 99
2, 244262, Note_on_c, 0, 64, 90
2, 244262, Note_on_c, 0, 67, 85
2, 244278, Note_on_c, 0, 71, 0
2, 248126, Note_on_c, 0, 60, 0
2, 248146, Note_on_c, 0, 72, 0
2, 248154, Note_on_c, 0, 64, 0
2, 248169, Note_on_c, 0, 67, 0
2, 248182, Note_on_c, 0, 36, 0
2, 248183, End_track
0, 0, End_of_file
