0, 0, Header, 1, 2, 384
1, 0, Start_track
1, 0, Tempo, 500000
1, 0, Time_signature, 4, 2, 24, 8
1, 1, End_track
2, 0, Start_track
2, 0, Program_c, 0, 0
2, 753, Note_on_c, 0, 48, 55
2, 805, Note_on_c, 0, 48, 0
2, 867, Note_on_c, 0, 67, 59
2, 1003, Note_on_c, 0, 60, 64
2, 1003, Note_on_c, 0, 67, 0
2, 1009, Note_on_c, 0, 65, 63
2, 1072, Note_on_c, 0, 60, 0
2, 1123, Note_on_c, 0, 67, 75
2, 1137, Note_on_c, 0, 65, 0
2, 1243, Note_on_c, 0, 53, 64
2, 1251, Note_on_c, 0, 68, 76
2, 1257, Note_on_c, 0, 67, 0
2, 1322, Note_on_c, 0, 53, 0
2, 1343, Note_on_c, 0, 68, 0
2, 1366, Note_on_c, 0, 65, 67
2, 1487, Note_on_c, 0, 63, 66
2, 1487, Note_on_c, 0, 65, 0
2, 1488, Note_on_c, 0, 60, 66
2, 1582, Note_on_c, 0, 60, 0
2, 1605, Note_on_c, 0, 65, 71
2, 1610, Note_on_c, 0, 63, 0
2, 1719, Note_on_c, 0, 51, 64
2, 1725, Note_on_c, 0, 65, 0
2, 1729, Note_on_c, 0, 67, 69
2, 1788, Note_on_c, 0, 51, 0
2, 1825, Note_on_c, 0, 67, 0
2, 1848, Note_on_c, 0, 63, 58
2, 1959, Note_on_c, 0, 63, 0
2, 1973, Note_on_c, 0, 60, 62
2, 1973, Note_on_c, 0, 62, 57
2, 2064, Note_on_c, 0, 60, 0
2, 2078, Note_on_c, 0, 62, 0
2, 2083, Note_on_c, 0, 63, 63
2, 2199, Note_on_c, 0, 63, 0
2, 2211, Note_on_c, 0, 65, 58
2, 2214, Note_on_c, 0, 50, 41
2, 2277, Note_on_c, 0, 50, 0
2, 2292, Note_on_c, 0, 65, 0
2, 2319, Note_on_c, 0, 62, 64
2, 2426, Note_on_c, 0, 59, 58
2, 2426, Note_on_c, 0, 62, 0
2, 2437, Note_on_c, 0, 60, 63
2, 2499, Note_on_c, 0, 59, 0
2, 2514, Note_on_c, 0, 60, 0
2, 2554, Note_on_c, 0, 62, 63
2, 2669, Note_on_c, 0, 63, 68
2, 2682, Note_on_c, 0, 48, 51
2, 2683, Note_on_c, 0, 62, 0
2, 2732, Note_on_c, 0, 63, 0
2, 2763, Note_on_c, 0, 48, 0
2, 2788, Note_on_c, 0, 55, 58
2, 2900, Note_on_c, 0, 72, 69
2, 2903, Note_on_c, 0, 53, 67
2, 2903, Note_on_c, 0, 55, 0
2, 2985, Note_on_c, 0, 72, 0
2, 3008, Note_on_c, 0, 55, 76
2, 3018, Note_on_c, 0, 53, 0
2, 3114, Note_on_c, 0, 55, 0
2, 3124, Note_on_c, 0, 56, 69
2, 3134, Note_on_c, 0, 65, 74
2, 3202, Note_on_c, 0, 65, 0
2, 3238, Note_on_c, 0, 56, 0
2, 3240, Note_on_c, 0, 53, 68
2, 3358, Note_on_c, 0, 53, 0
2, 3361, Note_on_c, 0, 51, 70
2, 3369, Note_on_c, 0, 72, 70
2, 3453, Note_on_c, 0, 72, 0
2, 3468, Note_on_c, 0, 53, 73
2, 3481, Note_on_c, 0, 51, 0
2, 3588, Note_on_c, 0, 53, 0
2, 3598, Note_on_c, 0, 55, 66
2, 3599, Note_on_c, 0, 63, 68
2, 3679, Note_on_c, 0, 63, 0
2, 3703, Note_on_c, 0, 51, 67
2, 3704, Note_on_c, 0, 55, 0
2, 3812, Note_on_c, 0, 51, 0
2, 3824, Note_on_c, 0, 72, 65
2, 3829, Note_on_c, 0, 50, 60
2, 3909, Note_on_c, 0, 72, 0
2, 3929, Note_on_c, 0, 50, 0
2, 3935, Note_on_c, 0, 51, 69
2, 4042, Note_on_c, 0, 51, 0
2, 4054, Note_on_c, 0, 53, 59
2, 4057, Note_on_c, 0, 62, 63
2, 4129, Note_on_c, 0, 62, 0
2, 4150, Note_on_c, 0, 53, 0
2, 4174, Note_on_c, 0, 50, 56
2, 4277, Note_on_c, 0, 50, 0
2, 4290, Note_on_c, 0, 71, 61
2, 4303, Note_on_c, 0, 48, 52
2, 4362, Note_on_c, 0, 71, 0
2, 4410, Note_on_c, 0, 48, 0
2, 4420, Note_on_c, 0, 50, 54
2, 4527, Note_on_c, 0, 50, 0
2, 4530, Note_on_c, 0, 60, 51
2, 4536, Note_on_c, 0, 51, 62
2, 4582, Note_on_c, 0, 51, 0
2, 4624, Note_on_c, 0, 60, 0
2, 4648, Note_on_c, 0, 63, 54
2, 4768, Note_on_c, 0, 63, 0
2, 4778, Note_on_c, 0, 48, 45
2, 4787, Note_on_c, 0, 67, 53
2, 4858, Note_on_c, 0, 48, 0
2, 4910, Note_on_c, 0, 67, 0
2, 4922, Note_on_c, 0, 72, 51
2, 5023, Note_on_c, 0, 53, 51
2, 5027, Note_on_c, 0, 62, 51
2, 5034, Note_on_c, 0, 72, 0
2, 5101, Note_on_c, 0, 53, 0
2, 5147, Note_on_c, 0, 62, 0
2, 5157, Note_on_c, 0, 72, 64
2, 5266, Note_on_c, 0, 72, 0
2, 5269, Note_on_c, 0, 50, 53
2, 5287, Note_on_c, 0, 71, 61
2, 5366, Note_on_c, 0, 50, 0
2, 5401, Note_on_c, 0, 71, 0
2, 5406, Note_on_c, 0, 69, 62
2, 5501, Note_on_c, 0, 69, 0
2, 5508, Note_on_c, 0, 55, 59
2, 5525, Note_on_c, 0, 62, 61
2, 5576, Note_on_c, 0, 55, 0
2, 5632, Note_on_c, 0, 62, 0
2, 5647, Note_on_c, 0, 67, 65
2, 5760, Note_on_c, 0, 53, 61
2, 5772, Note_on_c, 0, 71, 64
2, 5775, Note_on_c, 0, 67, 0
2, 5857, Note_on_c, 0, 53, 0
2, 5891, Note_on_c, 0, 71, 0
2, 5892, Note_on_c, 0, 74, 68
2, 6006, Note_on_c, 0, 74, 0
2, 6012, Note_on_c, 0, 55, 64
2, 6015, Note_on_c, 0, 63, 66
2, 6106, Note_on_c, 0, 55, 0
2, 6127, Note_on_c, 0, 74, 68
2, 6135, Note_on_c, 0, 63, 0
2, 6257, Note_on_c, 0, 72, 78
2, 6258, Note_on_c, 0, 51, 66
2, 6288, Note_on_c, 0, 74, 0
2, 6346, Note_on_c, 0, 51, 0
2, 6373, Note_on_c, 0, 71, 72
2, 6378, Note_on_c, 0, 72, 0
2, 6498, Note_on_c, 0, 56, 72
2, 6503, Note_on_c, 0, 71, 0
2, 6505, Note_on_c, 0, 63, 72
2, 6553, Note_on_c, 0, 56, 0
2, 6623, Note_on_c, 0, 68, 75
2, 6627, Note_on_c, 0, 63, 0
2, 6750, Note_on_c, 0, 55, 70
2, 6752, Note_on_c, 0, 72, 74
2, 6776, Note_on_c, 0, 68, 0
2, 6859, Note_on_c, 0, 75, 77
2, 6865, Note_on_c, 0, 55, 0
2, 6877, Note_on_c, 0, 72, 0
2, 6986, Note_on_c, 0, 65, 76
2, 6994, Note_on_c, 0, 57, 72
2, 6999, Note_on_c, 0, 75, 0
2, 7084, Note_on_c, 0, 57, 0
2, 7101, Note_on_c, 0, 65, 0
2, 7104, Note_on_c, 0, 75, 82
2, 7232, Note_on_c, 0, 53, 71
2, 7235, Note_on_c, 0, 74, 76
2, 7279, Note_on_c, 0, 75, 0
2, 7321, Note_on_c, 0, 53, 0
2, 7345, Note_on_c, 0, 72, 76
2, 7376, Note_on_c, 0, 74, 0
2, 7464, Note_on_c, 0, 58, 74
2, 7467, Note_on_c, 0, 65, 77
2, 7470, Note_on_c, 0, 72, 0
2, 7537, Note_on_c, 0, 58, 0
2, 7585, Note_on_c, 0, 70, 79
2, 7601, Note_on_c, 0, 65, 0
2, 7697, Note_on_c, 0, 57, 75
2, 7708, Note_on_c, 0, 74, 74
2, 7738, Note_on_c, 0, 70, 0
2, 7788, Note_on_c, 0, 57, 0
2, 7825, Note_on_c, 0, 77, 84
2, 7840, Note_on_c, 0, 74, 0
2, 7951, Note_on_c, 0, 59, 77
2, 7957, Note_on_c, 0, 67, 77
2, 7969, Note_on_c, 0, 77, 0
2, 8070, Note_on_c, 0, 77, 87
2, 8071, Note_on_c, 0, 67, 0
2, 8073, Note_on_c, 0, 59, 0
2, 8188, Note_on_c, 0, 75, 84
2, 8192, Note_on_c, 0, 55, 72
2, 8196, Note_on_c, 0, 77, 0
2, 8293, Note_on_c, 0, 55, 0
2, 8302, Note_on_c, 0, 74, 83
2, 8335, Note_on_c, 0, 75, 0
2, 8441, Note_on_c, 0, 60, 70
2, 8443, Note_on_c, 0, 75, 81
2, 8466, Note_on_c, 0, 74, 0
2, 8570, Note_on_c, 0, 60, 0
2, 8581, Note_on_c, 0, 72, 77
2, 8584, Note_on_c, 0, 75, 0
2, 8585, Note_on_c, 0, 68, 67
2, 8696, Note_on_c, 0, 68, 0
2, 8700, Note_on_c, 0, 67, 68
2, 8711, Note_on_c, 0, 70, 73
2, 8730, Note_on_c, 0, 72, 0
2, 8793, Note_on_c, 0, 67, 0
2, 8815, Note_on_c, 0, 72, 77
2, 8821, Note_on_c, 0, 70, 0
2, 8825, Note_on_c, 0, 68, 65
2, 8923, Note_on_c, 0, 58, 65
2, 8927, Note_on_c, 0, 68, 0
2, 8929, Note_on_c, 0, 74, 73
2, 8937, Note_on_c, 0, 72, 0
2, 9013, Note_on_c, 0, 58, 0
2, 9042, Note_on_c, 0, 70, 75
2, 9046, Note_on_c, 0, 67, 55
2, 9050, Note_on_c, 0, 74, 0
2, 9125, Note_on_c, 0, 67, 0
2, 9151, Note_on_c, 0, 65, 54
2, 9151, Note_on_c, 0, 70, 0
2, 9153, Note_on_c, 0, 68, 69
2, 9246, Note_on_c, 0, 65, 0
2, 9264, Note_on_c, 0, 70, 71
2, 9265, Note_on_c, 0, 67, 57
2, 9268, Note_on_c, 0, 68, 0
2, 9386, Note_on_c, 0, 56, 58
2, 9393, Note_on_c, 0, 70, 0
2, 9393, Note_on_c, 0, 72, 69
2, 9399, Note_on_c, 0, 67, 0
2, 9525, Note_on_c, 0, 70, 67
2, 9557, Note_on_c, 0, 72, 0
2, 9620, Note_on_c, 0, 56, 0
2, 9650, Note_on_c, 0, 68, 67
2, 9680, Note_on_c, 0, 70, 0
2, 9756, Note_on_c, 0, 68, 0
2, 9765, Note_on_c, 0, 67, 64
2, 9886, Note_on_c, 0, 65, 68
2, 9892, Note_on_c, 0, 67, 0
2, 9997, Note_on_c, 0, 65, 0
2, 9999, Note_on_c, 0, 63, 61
2, 10112, Note_on_c, 0, 63, 0
2, 10131, Note_on_c, 0, 62, 53
2, 10225, Note_on_c, 0, 62, 0
2, 10253, Note_on_c, 0, 60, 50
2, 10352, Note_on_c, 0, 60, 0
2, 10370, Note_on_c, 0, 58, 55
2, 10376, Note_on_c, 0, 74, 65
2, 10461, Note_on_c, 0, 58, 0
2, 10473, Note_on_c, 0, 74, 0
2, 10493, Note_on_c, 0, 70, 61
2, 10496, Note_on_c, 0, 67, 51
2, 10583, Note_on_c, 0, 67, 0
2, 10607, Note_on_c, 0, 70, 0
2, 10612, Note_on_c, 0, 68, 66
2, 10617, Note_on_c, 0, 65, 45
2, 10713, Note_on_c, 0, 65, 0
2, 10717, Note_on_c, 0, 68, 0
2, 10720, Note_on_c, 0, 70, 66
2, 10732, Note_on_c, 0, 67, 53
2, 10799, Note_on_c, 0, 67, 0
2, 10834, Note_on_c, 0, 70, 0
2, 10839, Note_on_c, 0, 72, 69
2, 10845, Note_on_c, 0, 56, 52
2, 10925, Note_on_c, 0, 72, 0
2, 10934, Note_on_c, 0, 56, 0
2, 10962, Note_on_c, 0, 68, 59
2, 10964, Note_on_c, 0, 65, 49
2, 11038, Note_on_c, 0, 65, 0
2, 11062, Note_on_c, 0, 63, 46
2, 11064, Note_on_c, 0, 68, 0
2, 11076, Note_on_c, 0, 67, 59
2, 11166, Note_on_c, 0, 63, 0
2, 11178, Note_on_c, 0, 65, 44
2, 11184, Note_on_c, 0, 67, 0
2, 11202, Note_on_c, 0, 68, 64
2, 11327, Note_on_c, 0, 55, 39
2, 11329, Note_on_c, 0, 65, 0
2, 11329, Note_on_c, 0, 68, 0
2, 11335, Note_on_c, 0, 70, 63
2, 11463, Note_on_c, 0, 70, 0
2, 11464, Note_on_c, 0, 68, 56
2, 11575, Note_on_c, 0, 67, 59
2, 11579, Note_on_c, 0, 68, 0
2, 11588, Note_on_c, 0, 55, 0
2, 11675, Note_on_c, 0, 67, 0
2, 11699, Note_on_c, 0, 65, 54
2, 11815, Note_on_c, 0, 65, 0
2, 11824, Note_on_c, 0, 63, 55
2, 11932, Note_on_c, 0, 61, 50
2, 11941, Note_on_c, 0, 63, 0
2, 12028, Note_on_c, 0, 61, 0
2, 12057, Note_on_c, 0, 60, 49
2, 12146, Note_on_c, 0, 60, 0
2, 12178, Note_on_c, 0, 58, 49
2, 12269, Note_on_c, 0, 58, 0
2, 12295, Note_on_c, 0, 56, 49
2, 12301, Note_on_c, 0, 72, 58
2, 12382, Note_on_c, 0, 72, 0
2, 12394, Note_on_c, 0, 56, 0
2, 12422, Note_on_c, 0, 68, 52
2, 12424, Note_on_c, 0, 65, 48
2, 12494, Note_on_c, 0, 65, 0
2, 12531, Note_on_c, 0, 68, 0
2, 12535, Note_on_c, 0, 63, 46
2, 12561, Note_on_c, 0, 67, 55
2, 12615, Note_on_c, 0, 63, 0
2, 12644, Note_on_c, 0, 65, 42
2, 12646, Note_on_c, 0, 67, 0
2, 12666, Note_on_c, 0, 68, 58
2, 12723, Note_on_c, 0, 65, 0
2, 12762, Note_on_c, 0, 68, 0
2, 12775, Note_on_c, 0, 70, 62
2, 12776, Note_on_c, 0, 55, 49
2, 12867, Note_on_c, 0, 55, 0
2, 12887, Note_on_c, 0, 70, 0
2, 12897, Note_on_c, 0, 67, 58
2, 12900, Note_on_c, 0, 63, 43
2, 12977, Note_on_c, 0, 63, 0
2, 12988, Note_on_c, 0, 67, 0
2, 13014, Note_on_c, 0, 62, 47
2, 13019, Note_on_c, 0, 65, 56
2, 13082, Note_on_c, 0, 62, 0
2, 13121, Note_on_c, 0, 63, 45
2, 13126, Note_on_c, 0, 67, 57
2, 13161, Note_on_c, 0, 65, 0
2, 13231, Note_on_c, 0, 63, 0
2, 13240, Note_on_c, 0, 53, 53
2, 13245, Note_on_c, 0, 67, 0
2, 13252, Note_on_c, 0, 68, 66
2, 13354, Note_on_c, 0, 68, 0
2, 13366, Note_on_c, 0, 53, 0
2, 13374, Note_on_c, 0, 65, 60
2, 13391, Note_on_c, 0, 62, 48
2, 13488, Note_on_c, 0, 62, 0
2, 13489, Note_on_c, 0, 65, 0
2, 13500, Note_on_c, 0, 63, 62
2, 13509, Note_on_c, 0, 60, 50
2, 13578, Note_on_c, 0, 63, 0
2, 13588, Note_on_c, 0, 60, 0
2, 13607, Note_on_c, 0, 65, 59
2, 13624, Note_on_c, 0, 62, 51
2, 13678, Note_on_c, 0, 62, 0
2, 13687, Note_on_c, 0, 65, 0
2, 13722, Note_on_c, 0, 68, 68
2, 13728, Note_on_c, 0, 51, 59
2, 13778, Note_on_c, 0, 68, 0
2, 13785, Note_on_c, 0, 51, 0
2, 13786, Note_on_c, 0, 67, 66
2, 13830, Note_on_c, 0, 60, 54
2, 13830, Note_on_c, 0, 67, 0
2, 13840, Note_on_c, 0, 68, 68
2, 13898, Note_on_c, 0, 68, 0
2, 13949, Note_on_c, 0, 60, 0
2, 13959, Note_on_c, 0, 68, 73
2, 13972, Note_on_c, 0, 58, 58
2, 14020, Note_on_c, 0, 68, 0
2, 14081, Note_on_c, 0, 58, 0
2, 14088, Note_on_c, 0, 60, 54
2, 14178, Note_on_c, 0, 60, 0
2, 14208, Note_on_c, 0, 68, 81
2, 14215, Note_on_c, 0, 50, 59
2, 14321, Note_on_c, 0, 67, 76
2, 14327, Note_on_c, 0, 50, 0
2, 14339, Note_on_c, 0, 58, 58
2, 14344, Note_on_c, 0, 68, 0
2, 14429, Note_on_c, 0, 67, 0
2, 14433, Note_on_c, 0, 58, 0
2, 14439, Note_on_c, 0, 65, 72
2, 14452, Note_on_c, 0, 56, 61
2, 14531, Note_on_c, 0, 56, 0
2, 14539, Note_on_c, 0, 65, 0
2, 14539, Note_on_c, 0, 67, 73
2, 14549, Note_on_c, 0, 58, 65
2, 14601, Note_on_c, 0, 67, 0
2, 14638, Note_on_c, 0, 58, 0
2, 14654, Note_on_c, 0, 48, 61
2, 14654, Note_on_c, 0, 68, 72
2, 14711, Note_on_c, 0, 68, 0
2, 14713, Note_on_c, 0, 67, 70
2, 14733, Note_on_c, 0, 48, 0
2, 14757, Note_on_c, 0, 56, 61
2, 14773, Note_on_c, 0, 68, 74
2, 14775, Note_on_c, 0, 67, 0
2, 14848, Note_on_c, 0, 68, 0
2, 14882, Note_on_c, 0, 56, 0
2, 14896, Note_on_c, 0, 55, 64
2, 14901, Note_on_c, 0, 68, 78
2, 14971, Note_on_c, 0, 68, 0
2, 14998, Note_on_c, 0, 55, 0
2, 15019, Note_on_c, 0, 56, 63
2, 15151, Note_on_c, 0, 46, 57
2, 15155, Note_on_c, 0, 56, 0
2, 15158, Note_on_c, 0, 68, 69
2, 15267, Note_on_c, 0, 74, 74
2, 15273, Note_on_c, 0, 46, 0
2, 15300, Note_on_c, 0, 68, 0
2, 15388, Note_on_c, 0, 77, 75
2, 15403, Note_on_c, 0, 58, 57
2, 15411, Note_on_c, 0, 74, 0
2, 15518, Note_on_c, 0, 58, 0
2, 15518, Note_on_c, 0, 75, 76
2, 15528, Note_on_c, 0, 77, 0
2, 15645, Note_on_c, 0, 74, 76
2, 15671, Note_on_c, 0, 75, 0
2, 15747, Note_on_c, 0, 74, 0
2, 15761, Note_on_c, 0, 72, 75
2, 15878, Note_on_c, 0, 50, 73
2, 15882, Note_on_c, 0, 70, 75
2, 15891, Note_on_c, 0, 72, 0
2, 15994, Note_on_c, 0, 68, 73
2, 16012, Note_on_c, 0, 70, 0
2, 16053, Note_on_c, 0, 50, 0
2, 16117, Note_on_c, 0, 51, 76
2, 16118, Note_on_c, 0, 68, 0
2, 16120, Note_on_c, 0, 67, 75
2, 16191, Note_on_c, 0, 51, 0
2, 16233, Note_on_c, 0, 70, 77
2, 16241, Note_on_c, 0, 67, 0
2, 16366, Note_on_c, 0, 75, 81
2, 16368, Note_on_c, 0, 48, 70
2, 16377, Note_on_c, 0, 70, 0
2, 16437, Note_on_c, 0, 48, 0
2, 16479, Note_on_c, 0, 67, 67
2, 16508, Note_on_c, 0, 75, 0
2, 16596, Note_on_c, 0, 44, 71
2, 16597, Note_on_c, 0, 67, 0
2, 16598, Note_on_c, 0, 65, 80
2, 16663, Note_on_c, 0, 44, 0
2, 16698, Note_on_c, 0, 65, 0
2, 16715, Note_on_c, 0, 75, 81
2, 16831, Note_on_c, 0, 46, 78
2, 16833, Note_on_c, 0, 65, 79
2, 16855, Note_on_c, 0, 75, 0
2, 16947, Note_on_c, 0, 74, 77
2, 16971, Note_on_c, 0, 65, 0
2, 17071, Note_on_c, 0, 46, 0
2, 17085, Note_on_c, 0, 75, 82
2, 17086, Note_on_c, 0, 74, 0
2, 17094, Note_on_c, 0, 39, 68
2, 17219, Note_on_c, 0, 75, 0
2, 17223, Note_on_c, 0, 70, 67
2, 17225, Note_on_c, 0, 39, 0
2, 17342, Note_on_c, 0, 70, 0
2, 17357, Note_on_c, 0, 68, 64
2, 17370, Note_on_c, 0, 51, 59
2, 17415, Note_on_c, 0, 51, 0
2, 17474, Note_on_c, 0, 70, 64
2, 17484, Note_on_c, 0, 68, 0
2, 17579, Note_on_c, 0, 70, 0
2, 17582, Note_on_c, 0, 44, 53
2, 17593, Note_on_c, 0, 72, 67
2, 17651, Note_on_c, 0, 44, 0
2, 17695, Note_on_c, 0, 72, 0
2, 17700, Note_on_c, 0, 68, 65
2, 17795, Note_on_c, 0, 68, 0
2, 17812, Note_on_c, 0, 51, 56
2, 17823, Note_on_c, 0, 67, 59
2, 17887, Note_on_c, 0, 51, 0
2, 17941, Note_on_c, 0, 67, 0
2, 17945, Note_on_c, 0, 68, 63
2, 18053, Note_on_c, 0, 68, 0
2, 18065, Note_on_c, 0, 70, 66
2, 18072, Note_on_c, 0, 43, 53
2, 18134, Note_on_c, 0, 43, 0
2, 18166, Note_on_c, 0, 70, 0
2, 18181, Note_on_c, 0, 67, 54
2, 18282, Note_on_c, 0, 67, 0
2, 18300, Note_on_c, 0, 51, 51
2, 18311, Note_on_c, 0, 65, 55
2, 18395, Note_on_c, 0, 51, 0
2, 18415, Note_on_c, 0, 65, 0
2, 18417, Note_on_c, 0, 67, 58
2, 18542, Note_on_c, 0, 67, 0
2, 18545, Note_on_c, 0, 41, 52
2, 18546, Note_on_c, 0, 68, 64
2, 18630, Note_on_c, 0, 41, 0
2, 18638, Note_on_c, 0, 68, 0
2, 18675, Note_on_c, 0, 65, 56
2, 18787, Note_on_c, 0, 50, 47
2, 18792, Note_on_c, 0, 65, 0
2, 18795, Note_on_c, 0, 63, 58
2, 18870, Note_on_c, 0, 50, 0
2, 18886, Note_on_c, 0, 63, 0
2, 18904, Note_on_c, 0, 65, 57
2, 19030, Note_on_c, 0, 51, 59
2, 19033, Note_on_c, 0, 67, 64
2, 19038, Note_on_c, 0, 65, 0
2, 19142, Note_on_c, 0, 51, 0
2, 19153, Note_on_c, 0, 55, 61
2, 19158, Note_on_c, 0, 63, 62
2, 19173, Note_on_c, 0, 67, 0
2, 19268, Note_on_c, 0, 63, 0
2, 19272, Note_on_c, 0, 55, 0
2, 19275, Note_on_c, 0, 62, 63
2, 19277, Note_on_c, 0, 53, 67
2, 19387, Note_on_c, 0, 55, 67
2, 19390, Note_on_c, 0, 53, 0
2, 19392, Note_on_c, 0, 63, 68
2, 19398, Note_on_c, 0, 62, 0
2, 19505, Note_on_c, 0, 55, 0
2, 19525, Note_on_c, 0, 56, 67
2, 19531, Note_on_c, 0, 60, 72
2, 19546, Note_on_c, 0, 63, 0
2, 19608, Note_on_c, 0, 60, 0
2, 19652, Note_on_c, 0, 53, 59
2, 19655, Note_on_c, 0, 56, 0
2, 19758, Note_on_c, 0, 53, 0
2, 19764, Note_on_c, 0, 51, 59
2, 19767, Note_on_c, 0, 68, 66
2, 19854, Note_on_c, 0, 68, 0
2, 19881, Note_on_c, 0, 51, 0
2, 19883, Note_on_c, 0, 53, 63
2, 19996, Note_on_c, 0, 53, 0
2, 20011, Note_on_c, 0, 58, 66
2, 20017, Note_on_c, 0, 55, 62
2, 20076, Note_on_c, 0, 58, 0
2, 20119, Note_on_c, 0, 55, 0
2, 20126, Note_on_c, 0, 51, 58
2, 20248, Note_on_c, 0, 51, 0
2, 20264, Note_on_c, 0, 50, 54
2, 20277, Note_on_c, 0, 67, 58
2, 20380, Note_on_c, 0, 50, 0
2, 20380, Note_on_c, 0, 51, 59
2, 20394, Note_on_c, 0, 67, 0
2, 20488, Note_on_c, 0, 51, 0
2, 20500, Note_on_c, 0, 56, 62
2, 20503, Note_on_c, 0, 53, 57
2, 20592, Note_on_c, 0, 56, 0
2, 20598, Note_on_c, 0, 53, 0
2, 20613, Note_on_c, 0, 50, 52
2, 20718, Note_on_c, 0, 50, 0
2, 20745, Note_on_c, 0, 48, 53
2, 20746, Note_on_c, 0, 65, 57
2, 20787, Note_on_c, 0, 65, 0
2, 20837, Note_on_c, 0, 48, 0
2, 20859, Note_on_c, 0, 50, 51
2, 20984, Note_on_c, 0, 51, 51
2, 20987, Note_on_c, 0, 55, 57
2, 20994, Note_on_c, 0, 50, 0
2, 21102, Note_on_c, 0, 55, 0
2, 21103, Note_on_c, 0, 58, 70
2, 21132, Note_on_c, 0, 51, 0
2, 21227, Note_on_c, 0, 63, 68
2, 21233, Note_on_c, 0, 55, 62
2, 21246, Note_on_c, 0, 58, 0
2, 21345, Note_on_c, 0, 67, 80
2, 21359, Note_on_c, 0, 63, 0
2, 21362, Note_on_c, 0, 55, 0
2, 21463, Note_on_c, 0, 56, 75
2, 21588, Note_on_c, 0, 65, 71
2, 21600, Note_on_c, 0, 56, 0
2, 21609, Note_on_c, 0, 67, 0
2, 21702, Note_on_c, 0, 63, 72
2, 21710, Note_on_c, 0, 58, 76
2, 21731, Note_on_c, 0, 65, 0
2, 21805, Note_on_c, 0, 58, 0
2, 21820, Note_on_c, 0, 63, 0
2, 21823, Note_on_c, 0, 62, 73
2, 21953, Note_on_c, 0, 62, 0
2, 21955, Note_on_c, 0, 60, 72
2, 21960, Note_on_c, 0, 63, 72
2, 22073, Note_on_c, 0, 67, 70
2, 22087, Control_c, 0, 64, 21
2, 22101, Control_c, 0, 64, 37
2, 22117, Control_c, 0, 64, 45
2, 22132, Control_c, 0, 64, 50
2, 22147, Control_c, 0, 64, 54
2, 22163, Control_c, 0, 64, 56
2, 22167, Note_on_c, 0, 60, 0
2, 22177, Control_c, 0, 64, 57
2, 22192, Control_c, 0, 64, 55
2, 22200, Note_on_c, 0, 72, 79
2, 22208, Control_c, 0, 64, 51
2, 22215, Note_on_c, 0, 56, 65
2, 22222, Control_c, 0, 64, 42
2, 22222, Note_on_c, 0, 67, 0
2, 22238, Control_c, 0, 64, 25
2, 22253, Control_c, 0, 64, 15
2, 22284, Control_c, 0, 64, 28
2, 22299, Control_c, 0, 64, 42
2, 22314, Control_c, 0, 64, 49
2, 22330, Control_c, 0, 64, 54
2, 22336, Note_on_c, 0, 65, 63
2, 22345, Control_c, 0, 64, 57
2, 22348, Note_on_c, 0, 56, 0
2, 22361, Control_c, 0, 64, 59
2, 22376, Control_c, 0, 64, 61
2, 22383, Note_on_c, 0, 72, 0
2, 22390, Control_c, 0, 64, 62
2, 22406, Control_c, 0, 64, 63
2, 22418, Note_on_c, 0, 63, 0
2, 22421, Control_c, 0, 64, 62
2, 22437, Control_c, 0, 64, 60
2, 22452, Control_c, 0, 64, 56
2, 22463, Note_on_c, 0, 70, 74
2, 22467, Control_c, 0, 64, 46
2, 22470, Note_on_c, 0, 67, 62
2, 22480, Note_on_c, 0, 58, 53
2, 22483, Control_c, 0, 64, 0
2, 22521, Note_on_c, 0, 67, 0
2, 22537, Note_on_c, 0, 65, 0
2, 22600, Note_on_c, 0, 63, 42
2, 22690, Note_on_c, 0, 58, 0
2, 22714, Note_on_c, 0, 63, 0
2, 22733, Note_on_c, 0, 68, 72
2, 22740, Note_on_c, 0, 65, 52
2, 22748, Note_on_c, 0, 46, 33
2, 22791, Note_on_c, 0, 70, 0
2, 22809, Control_c, 0, 64, 16
2, 22824, Control_c, 0, 64, 41
2, 22840, Control_c, 0, 64, 51
2, 22843, Note_on_c, 0, 65, 0
2, 22854, Control_c, 0, 64, 56
2, 22862, Note_on_c, 0, 68, 0
2, 22869, Control_c, 0, 64, 60
2, 22870, Note_on_c, 0, 62, 46
2, 22885, Control_c, 0, 64, 62
2, 22900, Control_c, 0, 64, 63
2, 22908, Note_on_c, 0, 46, 0
2, 22915, Control_c, 0, 64, 64
2, 22930, Control_c, 0, 64, 66
2, 22945, Control_c, 0, 64, 67
2, 22961, Control_c, 0, 64, 68
2, 22976, Control_c, 0, 64, 69
2, 23006, Control_c, 0, 64, 68
2, 23021, Control_c, 0, 64, 67
2, 23026, Note_on_c, 0, 67, 58
2, 23037, Control_c, 0, 64, 65
2, 23045, Note_on_c, 0, 58, 48
2, 23051, Note_on_c, 0, 63, 54
2, 23052, Control_c, 0, 64, 61
2, 23056, Note_on_c, 0, 62, 0
2, 23066, Control_c, 0, 64, 56
2, 23082, Control_c, 0, 64, 46
2, 23087, Note_on_c, 0, 58, 0
2, 23097, Control_c, 0, 64, 22
2, 23112, Control_c, 0, 64, 0
2, 23153, Note_on_c, 0, 51, 57
2, 23162, Note_on_c, 0, 63, 0
2, 23218, Note_on_c, 0, 51, 0
2, 23285, Note_on_c, 0, 46, 46
2, 23376, Note_on_c, 0, 46, 0
2, 23400, Note_on_c, 0, 43, 50
2, 23501, Note_on_c, 0, 43, 0
2, 23554, Note_on_c, 0, 39, 49
2, 23606, Control_c, 0, 64, 12
2, 23620, Control_c, 0, 64, 36
2, 23635, Control_c, 0, 64, 50
2, 23651, Control_c, 0, 64, 57
2, 23666, Control_c, 0, 64, 62
2, 23681, Control_c, 0, 64, 65
2, 23696, Control_c, 0, 64, 67
2, 23711, Control_c, 0, 64, 70
2, 23721, Note_on_c, 0, 39, 0
2, 23727, Control_c, 0, 64, 74
2, 23742, Control_c, 0, 64, 76
2, 23748, Note_on_c, 0, 67, 0
2, 23757, Control_c, 0, 64, 77
2, 23772, Control_c, 0, 64, 78
2, 23848, Control_c, 0, 64, 77
2, 23878, Control_c, 0, 64, 77
2, 23908, Control_c, 0, 64, 76
2, 23939, Control_c, 0, 64, 76
2, 23954, Control_c, 0, 64, 75
2, 23970, Control_c, 0, 64, 74
2, 23986, Control_c, 0, 64, 73
2, 24000, Control_c, 0, 64, 72
2, 24016, Control_c, 0, 64, 71
2, 24039, Control_c, 0, 64, 70
2, 24055, Control_c, 0, 64, 69
2, 24069, Control_c, 0, 64, 67
2, 24085, Control_c, 0, 64, 65
2, 24100, Control_c, 0, 64, 62
2, 24115, Control_c, 0, 64, 59
2, 24131, Control_c, 0, 64, 55
2, 24145, Control_c, 0, 64, 52
2, 24160, Control_c, 0, 64, 48
2, 24176, Control_c, 0, 64, 43
2, 24191, Control_c, 0, 64, 36
2, 24207, Control_c, 0, 64, 28
2, 24221, Control_c, 0, 64, 24
2, 24223, Note_on_c, 0, 51, 54
2, 24236, Control_c, 0, 64, 21
2, 24252, Control_c, 0, 64, 17
2, 24266, Control_c, 0, 64, 11
2, 24281, Control_c, 0, 64, 0
2, 24313, Note_on_c, 0, 51, 0
2, 24338, Note_on_c, 0, 70, 58
2, 24452, Note_on_c, 0, 70, 0
2, 24461, Note_on_c, 0, 69, 67
2, 24465, Note_on_c, 0, 53, 63
2, 24537, Note_on_c, 0, 53, 0
2, 24572, Note_on_c, 0, 70, 73
2, 24607, Note_on_c, 0, 69, 0
2, 24692, Note_on_c, 0, 75, 76
2, 24694, Note_on_c, 0, 55, 69
2, 24696, Note_on_c, 0, 70, 0
2, 24772, Note_on_c, 0, 55, 0
2, 24817, Note_on_c, 0, 70, 69
2, 24856, Note_on_c, 0, 75, 0
2, 24928, Note_on_c, 0, 70, 0
2, 24934, Note_on_c, 0, 69, 68
2, 24935, Note_on_c, 0, 51, 73
2, 25020, Note_on_c, 0, 51, 0
2, 25053, Note_on_c, 0, 70, 72
2, 25094, Note_on_c, 0, 69, 0
2, 25180, Note_on_c, 0, 77, 79
2, 25181, Note_on_c, 0, 50, 71
2, 25189, Note_on_c, 0, 70, 0
2, 25253, Note_on_c, 0, 50, 0
2, 25308, Note_on_c, 0, 70, 73
2, 25320, Note_on_c, 0, 77, 0
2, 25421, Note_on_c, 0, 48, 68
2, 25424, Note_on_c, 0, 70, 0
2, 25425, Note_on_c, 0, 69, 72
2, 25505, Note_on_c, 0, 48, 0
2, 25542, Note_on_c, 0, 70, 77
2, 25588, Note_on_c, 0, 69, 0
2, 25674, Note_on_c, 0, 80, 80
2, 25677, Note_on_c, 0, 50, 63
2, 25706, Note_on_c, 0, 70, 0
2, 25747, Note_on_c, 0, 50, 0
2, 25794, Note_on_c, 0, 70, 75
2, 25827, Note_on_c, 0, 80, 0
2, 25903, Note_on_c, 0, 46, 67
2, 25907, Note_on_c, 0, 69, 77
2, 25908, Note_on_c, 0, 70, 0
2, 25970, Note_on_c, 0, 46, 0
2, 26030, Note_on_c, 0, 70, 75
2, 26069, Note_on_c, 0, 69, 0
2, 26144, Note_on_c, 0, 51, 72
2, 26145, Note_on_c, 0, 79, 79
2, 26181, Note_on_c, 0, 70, 0
2, 26220, Note_on_c, 0, 79, 0
2, 26261, Note_on_c, 0, 51, 0
2, 26271, Note_on_c, 0, 55, 65
2, 26383, Note_on_c, 0, 75, 76
2, 26387, Note_on_c, 0, 56, 81
2, 26391, Note_on_c, 0, 55, 0
2, 26457, Note_on_c, 0, 75, 0
2, 26478, Note_on_c, 0, 56, 0
2, 26500, Note_on_c, 0, 55, 67
2, 26622, Note_on_c, 0, 44, 70
2, 26622, Note_on_c, 0, 72, 75
2, 26624, Note_on_c, 0, 55, 0
2, 26656, Note_on_c, 0, 72, 0
2, 26656, Note_on_c, 0, 74, 61
2, 26711, Note_on_c, 0, 44, 0
2, 26713, Note_on_c, 0, 74, 0
2, 26718, Note_on_c, 0, 72, 68
2, 26740, Note_on_c, 0, 55, 61
2, 26780, Note_on_c, 0, 72, 0
2, 26784, Note_on_c, 0, 71, 65
2, 26841, Note_on_c, 0, 55, 0
2, 26857, Note_on_c, 0, 56, 67
2, 26858, Note_on_c, 0, 71, 0
2, 26861, Note_on_c, 0, 72, 66
2, 26941, Note_on_c, 0, 56, 0
2, 26965, Note_on_c, 0, 55, 59
2, 27076, Note_on_c, 0, 55, 0
2, 27095, Note_on_c, 0, 77, 70
2, 27097, Note_on_c, 0, 50, 54
2, 27112, Note_on_c, 0, 72, 0
2, 27147, Note_on_c, 0, 77, 0
2, 27196, Note_on_c, 0, 50, 0
2, 27228, Note_on_c, 0, 53, 53
2, 27322, Note_on_c, 0, 53, 0
2, 27356, Note_on_c, 0, 55, 53
2, 27359, Note_on_c, 0, 74, 68
2, 27398, Note_on_c, 0, 74, 0
2, 27434, Note_on_c, 0, 55, 0
2, 27471, Note_on_c, 0, 53, 52
2, 27569, Note_on_c, 0, 71, 64
2, 27575, Note_on_c, 0, 53, 0
2, 27591, Note_on_c, 0, 43, 47
2, 27612, Note_on_c, 0, 71, 0
2, 27625, Note_on_c, 0, 72, 49
2, 27653, Note_on_c, 0, 72, 0
2, 27661, Note_on_c, 0, 43, 0
2, 27663, Note_on_c, 0, 71, 51
2, 27704, Note_on_c, 0, 53, 52
2, 27724, Note_on_c, 0, 71, 0
2, 27748, Note_on_c, 0, 69, 56
2, 27781, Note_on_c, 0, 53, 0
2, 27781, Note_on_c, 0, 69, 0
2, 27811, Note_on_c, 0, 71, 45
2, 27822, Note_on_c, 0, 55, 51
2, 27933, Note_on_c, 0, 55, 0
2, 27958, Note_on_c, 0, 53, 39
2, 28076, Note_on_c, 0, 53, 0
2, 28083, Note_on_c, 0, 48, 48
2, 28090, Note_on_c, 0, 75, 59
2, 28129, Note_on_c, 0, 48, 0
2, 28141, Note_on_c, 0, 71, 0
2, 28175, Note_on_c, 0, 75, 0
2, 28209, Note_on_c, 0, 63, 54
2, 28318, Note_on_c, 0, 60, 59
2, 28336, Note_on_c, 0, 63, 0
2, 28346, Note_on_c, 0, 62, 48
2, 28402, Note_on_c, 0, 60, 0
2, 28439, Note_on_c, 0, 62, 0
2, 28447, Note_on_c, 0, 63, 43
2, 28546, Note_on_c, 0, 63, 0
2, 28562, Note_on_c, 0, 58, 64
2, 28564, Note_on_c, 0, 67, 60
2, 28630, Note_on_c, 0, 58, 0
2, 28676, Note_on_c, 0, 67, 0
2, 28682, Note_on_c, 0, 63, 59
2, 28791, Note_on_c, 0, 63, 0
2, 28800, Note_on_c, 0, 56, 63
2, 28800, Note_on_c, 0, 62, 58
2, 28881, Note_on_c, 0, 56, 0
2, 28916, Note_on_c, 0, 63, 58
2, 28991, Note_on_c, 0, 62, 0
2, 29040, Note_on_c, 0, 55, 60
2, 29042, Note_on_c, 0, 70, 70
2, 29050, Note_on_c, 0, 63, 0
2, 29107, Note_on_c, 0, 55, 0
2, 29154, Note_on_c, 0, 70, 0
2, 29160, Note_on_c, 0, 63, 59
2, 29268, Note_on_c, 0, 53, 65
2, 29268, Note_on_c, 0, 63, 0
2, 29275, Note_on_c, 0, 62, 67
2, 29374, Note_on_c, 0, 53, 0
2, 29391, Note_on_c, 0, 63, 66
2, 29439, Note_on_c, 0, 62, 0
2, 29523, Note_on_c, 0, 73, 69
2, 29525, Note_on_c, 0, 55, 63
2, 29543, Note_on_c, 0, 63, 0
2, 29620, Note_on_c, 0, 55, 0
2, 29630, Note_on_c, 0, 73, 0
2, 29645, Note_on_c, 0, 63, 62
2, 29749, Note_on_c, 0, 63, 0
2, 29759, Note_on_c, 0, 51, 65
2, 29759, Note_on_c, 0, 62, 65
2, 29813, Note_on_c, 0, 51, 0
2, 29868, Note_on_c, 0, 62, 0
2, 29874, Note_on_c, 0, 63, 71
2, 30001, Note_on_c, 0, 56, 57
2, 30011, Note_on_c, 0, 72, 73
2, 30034, Note_on_c, 0, 63, 0
2, 30058, Note_on_c, 0, 72, 0
2, 30104, Note_on_c, 0, 56, 0
2, 30137, Note_on_c, 0, 60, 60
2, 30252, Note_on_c, 0, 60, 0
2, 30265, Note_on_c, 0, 68, 69
2, 30270, Note_on_c, 0, 61, 58
2, 30312, Note_on_c, 0, 68, 0
2, 30350, Note_on_c, 0, 61, 0
2, 30391, Note_on_c, 0, 60, 47
2, 30456, Note_on_c, 0, 60, 0
2, 30490, Note_on_c, 0, 65, 61
2, 30500, Note_on_c, 0, 49, 51
2, 30529, Note_on_c, 0, 65, 0
2, 30552, Note_on_c, 0, 67, 44
2, 30560, Note_on_c, 0, 49, 0
2, 30583, Note_on_c, 0, 67, 0
2, 30593, Note_on_c, 0, 65, 54
2, 30601, Note_on_c, 0, 60, 53
2, 30639, Note_on_c, 0, 65, 0
2, 30669, Note_on_c, 0, 64, 50
2, 30708, Note_on_c, 0, 60, 0
2, 30725, Note_on_c, 0, 64, 0
2, 30734, Note_on_c, 0, 61, 54
2, 30735, Note_on_c, 0, 65, 59
2, 30827, Note_on_c, 0, 61, 0
2, 30845, Note_on_c, 0, 60, 51
2, 30953, Note_on_c, 0, 60, 0
2, 30982, Note_on_c, 0, 65, 0
2, 30985, Note_on_c, 0, 55, 39
2, 30991, Note_on_c, 0, 70, 55
2, 31067, Note_on_c, 0, 70, 0
2, 31069, Note_on_c, 0, 55, 0
2, 31107, Note_on_c, 0, 58, 52
2, 31202, Note_on_c, 0, 58, 0
2, 31231, Note_on_c, 0, 67, 53
2, 31245, Note_on_c, 0, 60, 47
2, 31274, Note_on_c, 0, 67, 0
2, 31328, Note_on_c, 0, 60, 0
2, 31369, Note_on_c, 0, 58, 49
2, 31462, Note_on_c, 0, 64, 49
2, 31467, Note_on_c, 0, 58, 0
2, 31485, Note_on_c, 0, 48, 41
2, 31489, Note_on_c, 0, 64, 0
2, 31510, Note_on_c, 0, 65, 48
2, 31546, Note_on_c, 0, 65, 0
2, 31549, Note_on_c, 0, 48, 0
2, 31572, Note_on_c, 0, 64, 58
2, 31606, Note_on_c, 0, 58, 48
2, 31612, Note_on_c, 0, 64, 0
2, 31626, Note_on_c, 0, 62, 50
2, 31694, Note_on_c, 0, 58, 0
2, 31713, Note_on_c, 0, 62, 0
2, 31733, Note_on_c, 0, 64, 61
2, 31738, Note_on_c, 0, 60, 43
2, 31802, Note_on_c, 0, 64, 0
2, 31825, Note_on_c, 0, 60, 0
2, 31853, Note_on_c, 0, 58, 45
2, 31972, Note_on_c, 0, 53, 44
2, 31980, Note_on_c, 0, 58, 0
2, 31990, Note_on_c, 0, 68, 54
2, 32024, Note_on_c, 0, 53, 0
2, 32097, Note_on_c, 0, 68, 0
2, 32112, Note_on_c, 0, 72, 55
2, 32186, Note_on_c, 0, 72, 0
2, 32233, Note_on_c, 0, 56, 48
2, 32239, Note_on_c, 0, 71, 44
2, 32308, Note_on_c, 0, 56, 0
2, 32321, Note_on_c, 0, 71, 0
2, 32344, Note_on_c, 0, 72, 55
2, 32463, Note_on_c, 0, 72, 0
2, 32489, Note_on_c, 0, 73, 51
2, 32492, Note_on_c, 0, 53, 37
2, 32536, Note_on_c, 0, 53, 0
2, 32585, Note_on_c, 0, 73, 0
2, 32606, Note_on_c, 0, 72, 56
2, 32713, Note_on_c, 0, 72, 0
2, 32730, Note_on_c, 0, 61, 44
2, 32738, Note_on_c, 0, 71, 54
2, 32788, Note_on_c, 0, 61, 0
2, 32829, Note_on_c, 0, 71, 0
2, 32855, Note_on_c, 0, 72, 56
2, 32964, Note_on_c, 0, 52, 49
2, 32969, Note_on_c, 0, 72, 0
2, 32986, Note_on_c, 0, 67, 53
2, 33055, Note_on_c, 0, 52, 0
2, 33068, Note_on_c, 0, 67, 0
2, 33097, Note_on_c, 0, 72, 64
2, 33205, Note_on_c, 0, 72, 0
2, 33225, Note_on_c, 0, 71, 59
2, 33228, Note_on_c, 0, 55, 51
2, 33308, Note_on_c, 0, 55, 0
2, 33351, Note_on_c, 0, 72, 67
2, 33353, Note_on_c, 0, 71, 0
2, 33469, Note_on_c, 0, 51, 63
2, 33480, Note_on_c, 0, 72, 0
2, 33480, Note_on_c, 0, 73, 65
2, 33541, Note_on_c, 0, 51, 0
2, 33586, Note_on_c, 0, 73, 0
2, 33595, Note_on_c, 0, 72, 71
2, 33694, Note_on_c, 0, 72, 0
2, 33697, Note_on_c, 0, 60, 65
2, 33703, Note_on_c, 0, 71, 65
2, 33783, Note_on_c, 0, 60, 0
2, 33798, Note_on_c, 0, 71, 0
2, 33822, Note_on_c, 0, 72, 65
2, 33938, Note_on_c, 0, 72, 0
2, 33941, Note_on_c, 0, 50, 56
2, 33952, Note_on_c, 0, 65, 71
2, 34021, Note_on_c, 0, 50, 0
2, 34060, Note_on_c, 0, 65, 0
2, 34066, Note_on_c, 0, 72, 76
2, 34186, Note_on_c, 0, 74, 76
2, 34187, Note_on_c, 0, 72, 0
2, 34201, Note_on_c, 0, 53, 58
2, 34262, Note_on_c, 0, 53, 0
2, 34305, Note_on_c, 0, 76, 78
2, 34320, Note_on_c, 0, 74, 0
2, 34421, Note_on_c, 0, 77, 84
2, 34427, Note_on_c, 0, 49, 57
2, 34438, Note_on_c, 0, 76, 0
2, 34484, Note_on_c, 0, 49, 0
2, 34551, Note_on_c, 0, 70, 78
2, 34551, Note_on_c, 0, 77, 0
2, 34649, Note_on_c, 0, 70, 0
2, 34660, Note_on_c, 0, 58, 61
2, 34660, Note_on_c, 0, 69, 72
2, 34751, Note_on_c, 0, 58, 0
2, 34759, Note_on_c, 0, 70, 79
2, 34794, Note_on_c, 0, 69, 0
2, 34904, Note_on_c, 0, 79, 79
2, 34911, Note_on_c, 0, 48, 60
2, 34914, Note_on_c, 0, 70, 0
2, 35000, Note_on_c, 0, 48, 0
2, 35026, Note_on_c, 0, 77, 81
2, 35036, Note_on_c, 0, 79, 0
2, 35158, Note_on_c, 0, 50, 63
2, 35158, Note_on_c, 0, 76, 76
2, 35163, Note_on_c, 0, 77, 0
2, 35230, Note_on_c, 0, 50, 0
2, 35268, Note_on_c, 0, 74, 69
2, 35278, Note_on_c, 0, 76, 0
2, 35351, Note_on_c, 0, 74, 0
2, 35377, Note_on_c, 0, 52, 63
2, 35384, Note_on_c, 0, 72, 68
2, 35452, Note_on_c, 0, 52, 0
2, 35474, Note_on_c, 0, 72, 0
2, 35487, Note_on_c, 0, 70, 65
2, 35602, Note_on_c, 0, 70, 0
2, 35612, Note_on_c, 0, 68, 67
2, 35627, Note_on_c, 0, 48, 58
2, 35671, Note_on_c, 0, 48, 0
2, 35694, Note_on_c, 0, 68, 0
2, 35728, Note_on_c, 0, 67, 59
2, 35838, Note_on_c, 0, 67, 0
2, 35842, Note_on_c, 0, 53, 62
2, 35843, Note_on_c, 0, 68, 62
2, 35932, Note_on_c, 0, 53, 0
2, 35952, Note_on_c, 0, 68, 0
2, 35959, Note_on_c, 0, 56, 55
2, 35973, Note_on_c, 0, 65, 61
2, 36041, Note_on_c, 0, 56, 0
2, 36068, Note_on_c, 0, 65, 0
2, 36072, Note_on_c, 0, 55, 51
2, 36085, Note_on_c, 0, 64, 60
2, 36179, Note_on_c, 0, 55, 0
2, 36196, Note_on_c, 0, 56, 45
2, 36204, Note_on_c, 0, 64, 0
2, 36210, Note_on_c, 0, 65, 61
2, 36288, Note_on_c, 0, 56, 0
2, 36307, Note_on_c, 0, 65, 0
2, 36310, Note_on_c, 0, 51, 53
2, 36330, Note_on_c, 0, 72, 63
2, 36407, Note_on_c, 0, 51, 0
2, 36427, Note_on_c, 0, 72, 0
2, 36444, Note_on_c, 0, 68, 63
2, 36468, Note_on_c, 0, 60, 26
2, 36515, Note_on_c, 0, 60, 0
2, 36548, Note_on_c, 0, 68, 0
2, 36565, Note_on_c, 0, 58, 44
2, 36570, Note_on_c, 0, 67, 60
2, 36645, Note_on_c, 0, 58, 0
2, 36671, Note_on_c, 0, 60, 42
2, 36676, Note_on_c, 0, 67, 0
2, 36681, Note_on_c, 0, 68, 65
2, 36775, Note_on_c, 0, 68, 0
2, 36787, Note_on_c, 0, 60, 0
2, 36808, Note_on_c, 0, 77, 62
2, 36809, Note_on_c, 0, 49, 58
2, 36849, Note_on_c, 0, 49, 0
2, 36895, Note_on_c, 0, 77, 0
2, 36909, Note_on_c, 0, 75, 60
2, 37029, Note_on_c, 0, 73, 62
2, 37033, Note_on_c, 0, 53, 73
2, 37034, Note_on_c, 0, 75, 0
2, 37089, Note_on_c, 0, 53, 0
2, 37108, Note_on_c, 0, 73, 0
2, 37151, Note_on_c, 0, 72, 58
2, 37235, Note_on_c, 0, 72, 0
2, 37280, Note_on_c, 0, 58, 61
2, 37286, Note_on_c, 0, 70, 54
2, 37309, Note_on_c, 0, 58, 0
2, 37391, Note_on_c, 0, 68, 55
2, 37413, Note_on_c, 0, 70, 0
2, 37500, Note_on_c, 0, 68, 0
2, 37508, Note_on_c, 0, 67, 64
2, 37510, Note_on_c, 0, 61, 57
2, 37558, Note_on_c, 0, 61, 0
2, 37576, Note_on_c, 0, 67, 0
2, 37628, Note_on_c, 0, 65, 53
2, 37734, Note_on_c, 0, 65, 0
2, 37741, Note_on_c, 0, 51, 57
2, 37746, Note_on_c, 0, 67, 50
2, 37833, Note_on_c, 0, 51, 0
2, 37840, Note_on_c, 0, 67, 0
2, 37868, Note_on_c, 0, 63, 56
2, 37871, Note_on_c, 0, 55, 50
2, 37959, Note_on_c, 0, 63, 0
2, 37960, Note_on_c, 0, 55, 0
2, 37983, Note_on_c, 0, 62, 56
2, 37999, Note_on_c, 0, 53, 45
2, 38068, Note_on_c, 0, 53, 0
2, 38075, Note_on_c, 0, 62, 0
2, 38086, Note_on_c, 0, 63, 57
2, 38093, Note_on_c, 0, 55, 51
2, 38182, Note_on_c, 0, 55, 0
2, 38188, Note_on_c, 0, 63, 0
2, 38196, Note_on_c, 0, 49, 45
2, 38203, Note_on_c, 0, 70, 58
2, 38279, Note_on_c, 0, 49, 0
2, 38294, Note_on_c, 0, 70, 0
2, 38307, Note_on_c, 0, 58, 42
2, 38319, Note_on_c, 0, 67, 54
2, 38380, Note_on_c, 0, 58, 0
2, 38395, Note_on_c, 0, 67, 0
2, 38409, Note_on_c, 0, 56, 43
2, 38421, Note_on_c, 0, 65, 56
2, 38491, Note_on_c, 0, 65, 0
2, 38501, Note_on_c, 0, 56, 0
2, 38527, Note_on_c, 0, 58, 51
2, 38534, Note_on_c, 0, 67, 52
2, 38668, Note_on_c, 0, 48, 47
2, 38676, Note_on_c, 0, 67, 0
2, 38684, Note_on_c, 0, 58, 0
2, 38686, Note_on_c, 0, 75, 58
2, 38739, Note_on_c, 0, 48, 0
2, 38804, Note_on_c, 0, 75, 0
2, 38812, Note_on_c, 0, 73, 55
2, 38891, Note_on_c, 0, 73, 0
2, 38912, Note_on_c, 0, 51, 60
2, 38920, Note_on_c, 0, 72, 62
2, 38983, Note_on_c, 0, 51, 0
2, 39013, Note_on_c, 0, 72, 0
2, 39047, Note_on_c, 0, 70, 51
2, 39153, Note_on_c, 0, 56, 61
2, 39153, Note_on_c, 0, 70, 0
2, 39163, Note_on_c, 0, 68, 55
2, 39190, Note_on_c, 0, 56, 0
2, 39267, Note_on_c, 0, 68, 0
2, 39273, Note_on_c, 0, 67, 59
2, 39362, Note_on_c, 0, 67, 0
2, 39376, Note_on_c, 0, 60, 55
2, 39398, Note_on_c, 0, 65, 55
2, 39429, Note_on_c, 0, 60, 0
2, 39483, Note_on_c, 0, 65, 0
2, 39501, Note_on_c, 0, 64, 56
2, 39595, Note_on_c, 0, 64, 0
2, 39622, Note_on_c, 0, 49, 42
2, 39623, Note_on_c, 0, 65, 61
2, 39714, Note_on_c, 0, 49, 0
2, 39741, Note_on_c, 0, 53, 53
2, 39750, Note_on_c, 0, 65, 0
2, 39856, Note_on_c, 0, 53, 0
2, 39868, Note_on_c, 0, 69, 62
2, 39880, Note_on_c, 0, 51, 54
2, 39974, Note_on_c, 0, 51, 0
2, 39989, Note_on_c, 0, 53, 52
2, 40001, Note_on_c, 0, 69, 0
2, 40088, Note_on_c, 0, 53, 0
2, 40099, Note_on_c, 0, 70, 71
2, 40110, Note_on_c, 0, 54, 56
2, 40225, Note_on_c, 0, 54, 0
2, 40231, Note_on_c, 0, 70, 0
2, 40232, Note_on_c, 0, 53, 62
2, 40328, Note_on_c, 0, 53, 0
2, 40349, Note_on_c, 0, 51, 63
2, 40356, Note_on_c, 0, 72, 70
2, 40463, Note_on_c, 0, 51, 0
2, 40464, Note_on_c, 0, 53, 64
2, 40498, Note_on_c, 0, 72, 0
2, 40578, Note_on_c, 0, 53, 0
2, 40588, Note_on_c, 0, 46, 65
2, 40591, Note_on_c, 0, 73, 80
2, 40706, Note_on_c, 0, 53, 69
2, 40713, Note_on_c, 0, 46, 0
2, 40761, Note_on_c, 0, 73, 0
2, 40811, Note_on_c, 0, 53, 0
2, 40826, Note_on_c, 0, 76, 81
2, 40834, Note_on_c, 0, 55, 68
2, 40944, Note_on_c, 0, 55, 0
2, 40951, Note_on_c, 0, 56, 70
2, 40981, Note_on_c, 0, 76, 0
2, 41061, Note_on_c, 0, 56, 0
2, 41073, Note_on_c, 0, 77, 84
2, 41080, Note_on_c, 0, 55, 63
2, 41192, Note_on_c, 0, 55, 0
2, 41196, Note_on_c, 0, 53, 65
2, 41196, Note_on_c, 0, 77, 0
2, 41293, Note_on_c, 0, 53, 0
2, 41308, Note_on_c, 0, 52, 67
2, 41327, Note_on_c, 0, 79, 76
2, 41403, Note_on_c, 0, 79, 0
2, 41405, Note_on_c, 0, 52, 0
2, 41430, Note_on_c, 0, 53, 66
2, 41544, Note_on_c, 0, 53, 0
2, 41557, Note_on_c, 0, 44, 75
2, 41570, Note_on_c, 0, 72, 72
2, 41631, Note_on_c, 0, 44, 0
2, 41671, Note_on_c, 0, 72, 0
2, 41673, Note_on_c, 0, 76, 71
2, 41800, Note_on_c, 0, 41, 72
2, 41806, Note_on_c, 0, 76, 0
2, 41809, Note_on_c, 0, 77, 71
2, 41863, Note_on_c, 0, 41, 0
2, 41919, Note_on_c, 0, 80, 76
2, 41940, Note_on_c, 0, 77, 0
2, 42032, Note_on_c, 0, 80, 0
2, 42033, Note_on_c, 0, 48, 74
2, 42042, Note_on_c, 0, 70, 75
2, 42101, Note_on_c, 0, 48, 0
2, 42154, Note_on_c, 0, 70, 0
2, 42154, Note_on_c, 0, 79, 76
2, 42270, Note_on_c, 0, 77, 81
2, 42270, Note_on_c, 0, 79, 0
2, 42276, Note_on_c, 0, 36, 63
2, 42350, Note_on_c, 0, 36, 0
2, 42379, Note_on_c, 0, 76, 77
2, 42396, Note_on_c, 0, 77, 0
2, 42508, Note_on_c, 0, 76, 0
2, 42520, Note_on_c, 0, 41, 74
2, 42520, Note_on_c, 0, 68, 73
2, 42607, Note_on_c, 0, 41, 0
2, 42631, Note_on_c, 0, 72, 73
2, 42638, Note_on_c, 0, 68, 0
2, 42762, Note_on_c, 0, 44, 75
2, 42767, Note_on_c, 0, 76, 71
2, 42805, Note_on_c, 0, 72, 0
2, 42830, Note_on_c, 0, 44, 0
2, 42892, Note_on_c, 0, 77, 67
2, 42895, Note_on_c, 0, 76, 0
2, 43000, Note_on_c, 0, 77, 0
2, 43001, Note_on_c, 0, 46, 67
2, 43003, Note_on_c, 0, 67, 62
2, 43073, Note_on_c, 0, 67, 0
2, 43086, Note_on_c, 0, 46, 0
2, 43114, Note_on_c, 0, 73, 64
2, 43239, Note_on_c, 0, 73, 0
2, 43242, Note_on_c, 0, 48, 60
2, 43242, Note_on_c, 0, 72, 66
2, 43307, Note_on_c, 0, 48, 0
2, 43343, Note_on_c, 0, 72, 0
2, 43356, Note_on_c, 0, 70, 66
2, 43475, Note_on_c, 0, 53, 57
2, 43477, Note_on_c, 0, 68, 73
2, 43504, Note_on_c, 0, 70, 0
2, 43582, Note_on_c, 0, 68, 0
2, 43588, Note_on_c, 0, 67, 66
2, 43605, Note_on_c, 0, 53, 0
2, 43707, Note_on_c, 0, 67, 0
2, 43708, Note_on_c, 0, 55, 60
2, 43709, Note_on_c, 0, 65, 69
2, 43816, Note_on_c, 0, 64, 66
2, 43820, Note_on_c, 0, 65, 0
2, 43831, Note_on_c, 0, 55, 0
2, 43933, Note_on_c, 0, 64, 0
2, 43947, Note_on_c, 0, 56, 64
2, 43948, Note_on_c, 0, 65, 59
2, 44030, Note_on_c, 0, 56, 0
2, 44075, Note_on_c, 0, 65, 0
2, 44084, Note_on_c, 0, 68, 58
2, 44192, Note_on_c, 0, 68, 0
2, 44193, Note_on_c, 0, 53, 56
2, 44196, Note_on_c, 0, 60, 56
2, 44239, Note_on_c, 0, 53, 0
2, 44293, Note_on_c, 0, 60, 0
2, 44318, Note_on_c, 0, 63, 52
2, 44446, Note_on_c, 0, 63, 0
2, 44465, Note_on_c, 0, 62, 52
2, 44468, Note_on_c, 0, 58, 44
2, 44523, Note_on_c, 0, 58, 0
2, 44570, Note_on_c, 0, 62, 0
2, 44584, Note_on_c, 0, 68, 53
2, 44679, Note_on_c, 0, 68, 0
2, 44703, Note_on_c, 0, 65, 52
2, 44721, Note_on_c, 0, 46, 44
2, 44790, Note_on_c, 0, 46, 0
2, 44811, Note_on_c, 0, 65, 0
2, 44832, Note_on_c, 0, 62, 52
2, 44953, Note_on_c, 0, 62, 0
2, 44959, Note_on_c, 0, 58, 43
2, 45074, Note_on_c, 0, 56, 57
2, 45091, Note_on_c, 0, 58, 0
2, 45161, Note_on_c, 0, 56, 0
2, 45190, Note_on_c, 0, 55, 56
2, 45291, Note_on_c, 0, 55, 0
2, 45311, Note_on_c, 0, 53, 63
2, 45421, Note_on_c, 0, 53, 0
2, 45431, Note_on_c, 0, 51, 61
2, 45443, Note_on_c, 0, 67, 63
2, 45501, Note_on_c, 0, 51, 0
2, 45544, Note_on_c, 0, 67, 0
2, 45564, Note_on_c, 0, 65, 60
2, 45679, Note_on_c, 0, 63, 59
2, 45682, Note_on_c, 0, 53, 61
2, 45682, Note_on_c, 0, 65, 0
2, 45733, Note_on_c, 0, 53, 0
2, 45782, Note_on_c, 0, 63, 0
2, 45799, Note_on_c, 0, 62, 55
2, 45907, Note_on_c, 0, 62, 0
2, 45915, Note_on_c, 0, 55, 55
2, 45920, Note_on_c, 0, 63, 59
2, 45968, Note_on_c, 0, 55, 0
2, 46023, Note_on_c, 0, 63, 0
2, 46040, Note_on_c, 0, 67, 54
2, 46145, Note_on_c, 0, 51, 55
2, 46153, Note_on_c, 0, 59, 48
2, 46174, Note_on_c, 0, 67, 0
2, 46207, Note_on_c, 0, 51, 0
2, 46231, Note_on_c, 0, 59, 0
2, 46256, Note_on_c, 0, 62, 50
2, 46366, Note_on_c, 0, 62, 0
2, 46401, Note_on_c, 0, 60, 51
2, 46404, Note_on_c, 0, 56, 54
2, 46455, Note_on_c, 0, 56, 0
2, 46505, Note_on_c, 0, 60, 0
2, 46514, Note_on_c, 0, 67, 52
2, 46612, Note_on_c, 0, 67, 0
2, 46643, Note_on_c, 0, 63, 49
2, 46654, Note_on_c, 0, 44, 52
2, 46728, Note_on_c, 0, 44, 0
2, 46742, Note_on_c, 0, 63, 0
2, 46759, Note_on_c, 0, 60, 52
2, 46890, Note_on_c, 0, 60, 0
2, 46896, Note_on_c, 0, 56, 55
2, 46994, Note_on_c, 0, 55, 53
2, 47030, Note_on_c, 0, 56, 0
2, 47113, Note_on_c, 0, 55, 0
2, 47143, Note_on_c, 0, 53, 45
2, 47225, Note_on_c, 0, 53, 0
2, 47247, Note_on_c, 0, 51, 56
2, 47370, Note_on_c, 0, 50, 52
2, 47375, Note_on_c, 0, 51, 0
2, 47396, Note_on_c, 0, 65, 49
2, 47438, Note_on_c, 0, 50, 0
2, 47505, Note_on_c, 0, 65, 0
2, 47512, Note_on_c, 0, 63, 53
2, 47611, Note_on_c, 0, 63, 0
2, 47612, Note_on_c, 0, 51, 59
2, 47636, Note_on_c, 0, 62, 55
2, 47656, Note_on_c, 0, 51, 0
2, 47721, Note_on_c, 0, 62, 0
2, 47745, Note_on_c, 0, 60, 54
2, 47863, Note_on_c, 0, 60, 0
2, 47864, Note_on_c, 0, 53, 47
2, 47873, Note_on_c, 0, 62, 54
2, 47916, Note_on_c, 0, 53, 0
2, 47973, Note_on_c, 0, 62, 0
2, 47991, Note_on_c, 0, 65, 52
2, 48098, Note_on_c, 0, 50, 49
2, 48118, Note_on_c, 0, 65, 0
2, 48121, Note_on_c, 0, 68, 57
2, 48147, Note_on_c, 0, 50, 0
2, 48201, Note_on_c, 0, 68, 0
2, 48226, Note_on_c, 0, 60, 56
2, 48340, Note_on_c, 0, 60, 0
2, 48347, Note_on_c, 0, 55, 55
2, 48353, Note_on_c, 0, 59, 58
2, 48400, Note_on_c, 0, 55, 0
2, 48453, Note_on_c, 0, 59, 0
2, 48464, Note_on_c, 0, 65, 53
2, 48570, Note_on_c, 0, 65, 0
2, 48600, Note_on_c, 0, 43, 53
2, 48612, Note_on_c, 0, 62, 59
2, 48677, Note_on_c, 0, 43, 0
2, 48700, Note_on_c, 0, 62, 0
2, 48725, Note_on_c, 0, 59, 55
2, 48823, Note_on_c, 0, 59, 0
2, 48851, Note_on_c, 0, 55, 61
2, 48946, Note_on_c, 0, 55, 0
2, 48961, Note_on_c, 0, 59, 59
2, 48964, Note_on_c, 0, 53, 51
2, 49038, Note_on_c, 0, 53, 0
2, 49082, Note_on_c, 0, 51, 51
2, 49083, Note_on_c, 0, 60, 66
2, 49085, Note_on_c, 0, 59, 0
2, 49156, Note_on_c, 0, 51, 0
2, 49175, Note_on_c, 0, 60, 0
2, 49201, Note_on_c, 0, 62, 67
2, 49211, Note_on_c, 0, 50, 46
2, 49313, Note_on_c, 0, 50, 0
2, 49334, Note_on_c, 0, 63, 78
2, 49335, Note_on_c, 0, 48, 51
2, 49346, Note_on_c, 0, 62, 0
2, 49455, Note_on_c, 0, 48, 0
2, 49464, Note_on_c, 0, 50, 55
2, 49560, Note_on_c, 0, 50, 0
2, 49582, Note_on_c, 0, 67, 66
2, 49583, Note_on_c, 0, 51, 54
2, 49637, Note_on_c, 0, 67, 0
2, 49680, Note_on_c, 0, 51, 0
2, 49714, Note_on_c, 0, 48, 46
2, 49841, Note_on_c, 0, 48, 0
2, 49861, Note_on_c, 0, 44, 45
2, 49885, Note_on_c, 0, 72, 74
2, 49949, Note_on_c, 0, 63, 0
2, 49984, Note_on_c, 0, 44, 0
2, 50014, Note_on_c, 0, 55, 54
2, 50034, Note_on_c, 0, 70, 62
2, 50136, Note_on_c, 0, 55, 0
2, 50161, Note_on_c, 0, 53, 48
2, 50169, Note_on_c, 0, 68, 68
2, 50174, Note_on_c, 0, 70, 0
2, 50246, Note_on_c, 0, 68, 0
2, 50256, Note_on_c, 0, 53, 0
2, 50273, Note_on_c, 0, 51, 59
2, 50273, Note_on_c, 0, 67, 61
2, 50375, Note_on_c, 0, 67, 0
2, 50382, Note_on_c, 0, 51, 0
2, 50390, Note_on_c, 0, 65, 63
2, 50401, Note_on_c, 0, 50, 54
2, 50475, Note_on_c, 0, 65, 0
2, 50484, Note_on_c, 0, 50, 0
2, 50496, Note_on_c, 0, 67, 64
2, 50508, Note_on_c, 0, 51, 62
2, 50594, Note_on_c, 0, 67, 0
2, 50603, Note_on_c, 0, 51, 0
2, 50622, Note_on_c, 0, 68, 62
2, 50636, Note_on_c, 0, 53, 53
2, 50719, Note_on_c, 0, 53, 0
2, 50721, Note_on_c, 0, 68, 0
2, 50725, Note_on_c, 0, 65, 58
2, 50749, Note_on_c, 0, 50, 48
2, 50799, Note_on_c, 0, 72, 0
2, 50839, Note_on_c, 0, 50, 0
2, 50839, Note_on_c, 0, 65, 0
2, 50862, Note_on_c, 0, 62, 56
2, 50869, Note_on_c, 0, 46, 53
2, 50988, Note_on_c, 0, 72, 68
2, 51006, Note_on_c, 0, 46, 0
2, 51012, Note_on_c, 0, 56, 58
2, 51106, Note_on_c, 0, 72, 0
2, 51114, Note_on_c, 0, 56, 0
2, 51115, Note_on_c, 0, 70, 71
2, 51127, Note_on_c, 0, 55, 61
2, 51129, Note_on_c, 0, 62, 0
2, 51219, Note_on_c, 0, 68, 76
2, 51223, Note_on_c, 0, 55, 0
2, 51233, Note_on_c, 0, 70, 0
2, 51239, Note_on_c, 0, 53, 63
2, 51324, Note_on_c, 0, 53, 0
2, 51333, Note_on_c, 0, 68, 0
2, 51344, Note_on_c, 0, 51, 65
2, 51344, Note_on_c, 0, 67, 69
2, 51405, Note_on_c, 0, 51, 0
2, 51456, Note_on_c, 0, 68, 71
2, 51460, Note_on_c, 0, 67, 0
2, 51575, Note_on_c, 0, 68, 0
2, 51577, Note_on_c, 0, 50, 56
2, 51577, Note_on_c, 0, 70, 72
2, 51640, Note_on_c, 0, 50, 0
2, 51691, Note_on_c, 0, 70, 0
2, 51694, Note_on_c, 0, 67, 69
2, 51823, Note_on_c, 0, 51, 59
2, 51825, Note_on_c, 0, 60, 77
2, 51857, Note_on_c, 0, 67, 0
2, 51912, Note_on_c, 0, 51, 0
2, 51938, Note_on_c, 0, 60, 0
2, 51966, Note_on_c, 0, 73, 77
2, 52086, Note_on_c, 0, 72, 80
2, 52100, Note_on_c, 0, 52, 63
2, 52105, Note_on_c, 0, 73, 0
2, 52194, Note_on_c, 0, 70, 79
2, 52200, Note_on_c, 0, 52, 0
2, 52205, Note_on_c, 0, 72, 0
2, 52314, Note_on_c, 0, 68, 76
2, 52325, Note_on_c, 0, 53, 66
2, 52331, Note_on_c, 0, 70, 0
2, 52389, Note_on_c, 0, 53, 0
2, 52426, Note_on_c, 0, 70, 76
2, 52454, Note_on_c, 0, 68, 0
2, 52552, Note_on_c, 0, 72, 81
2, 52564, Note_on_c, 0, 70, 0
2, 52567, Note_on_c, 0, 52, 69
2, 52632, Note_on_c, 0, 52, 0
2, 52664, Note_on_c, 0, 68, 77
2, 52672, Note_on_c, 0, 72, 0
2, 52809, Note_on_c, 0, 62, 78
2, 52811, Note_on_c, 0, 53, 68
2, 52822, Note_on_c, 0, 68, 0
2, 52919, Note_on_c, 0, 62, 0
2, 52934, Note_on_c, 0, 53, 0
2, 52945, Note_on_c, 0, 75, 85
2, 53074, Note_on_c, 0, 74, 79
2, 53086, Note_on_c, 0, 75, 0
2, 53094, Note_on_c, 0, 54, 73
2, 53191, Note_on_c, 0, 54, 0
2, 53195, Note_on_c, 0, 72, 83
2, 53226, Note_on_c, 0, 74, 0
2, 53352, Note_on_c, 0, 71, 82
2, 53367, Note_on_c, 0, 55, 66
2, 53388, Note_on_c, 0, 72, 0
2, 53530, Note_on_c, 0, 67, 75
2, 53534, Note_on_c, 0, 55, 0
2, 53542, Note_on_c, 0, 53, 69
2, 53645, Note_on_c, 0, 71, 0
2, 53660, Note_on_c, 0, 72, 80
2, 53665, Note_on_c, 0, 53, 0
2, 53667, Note_on_c, 0, 51, 74
2, 53683, Note_on_c, 0, 67, 0
2, 53766, Note_on_c, 0, 51, 0
2, 53781, Note_on_c, 0, 74, 87
2, 53788, Note_on_c, 0, 53, 67
2, 53805, Note_on_c, 0, 72, 0
2, 53916, Note_on_c, 0, 53, 0
2, 53930, Note_on_c, 0, 75, 85
2, 53931, Note_on_c, 0, 72, 73
2, 53948, Note_on_c, 0, 55, 61
2, 53954, Note_on_c, 0, 74, 0
2, 54017, Note_on_c, 0, 72, 0
2, 54021, Control_c, 0, 64, 32
2, 54036, Control_c, 0, 64, 42
2, 54052, Control_c, 0, 64, 47
2, 54066, Control_c, 0, 64, 51
2, 54082, Control_c, 0, 64, 54
2, 54097, Control_c, 0, 64, 56
2, 54102, Note_on_c, 0, 67, 57
2, 54112, Control_c, 0, 64, 58
2, 54128, Control_c, 0, 64, 58
2, 54157, Control_c, 0, 64, 55
2, 54173, Control_c, 0, 64, 46
2, 54187, Control_c, 0, 64, 0
2, 54239, Note_on_c, 0, 74, 78
2, 54247, Note_on_c, 0, 71, 71
2, 54248, Note_on_c, 0, 43, 63
2, 54253, Note_on_c, 0, 67, 0
2, 54260, Note_on_c, 0, 55, 0
2, 54276, Note_on_c, 0, 75, 0
2, 54279, Control_c, 0, 64, 11
2, 54295, Control_c, 0, 64, 45
2, 54310, Control_c, 0, 64, 54
2, 54326, Control_c, 0, 64, 59
2, 54334, Note_on_c, 0, 71, 0
2, 54341, Control_c, 0, 64, 62
2, 54356, Control_c, 0, 64, 64
2, 54371, Control_c, 0, 64, 65
2, 54374, Note_on_c, 0, 43, 0
2, 54386, Control_c, 0, 64, 68
2, 54387, Note_on_c, 0, 74, 0
2, 54402, Control_c, 0, 64, 71
2, 54407, Note_on_c, 0, 65, 63
2, 54417, Control_c, 0, 64, 73
2, 54432, Control_c, 0, 64, 74
2, 54447, Control_c, 0, 64, 74
2, 54553, Control_c, 0, 64, 74
2, 54562, Note_on_c, 0, 65, 0
2, 54583, Control_c, 0, 64, 73
2, 54599, Control_c, 0, 64, 72
2, 54612, Note_on_c, 0, 67, 49
2, 54614, Control_c, 0, 64, 68
2, 54617, Note_on_c, 0, 72, 72
2, 54618, Note_on_c, 0, 36, 66
2, 54619, Note_on_c, 0, 63, 57
2, 54628, Control_c, 0, 64, 64
2, 54644, Control_c, 0, 64, 59
2, 54659, Control_c, 0, 64, 51
2, 54674, Control_c, 0, 64, 42
2, 54690, Control_c, 0, 64, 37
2, 54704, Control_c, 0, 64, 34
2, 54772, Note_on_c, 0, 36, 0
2, 54800, Note_on_c, 0, 48, 69
2, 54851, Note_on_c, 0, 48, 0
2, 54895, Control_c, 0, 64, 34
2, 54925, Control_c, 0, 64, 33
2, 54933, Note_on_c, 0, 51, 68
2, 54995, Note_on_c, 0, 51, 0
2, 55016, Control_c, 0, 64, 33
2, 55031, Control_c, 0, 64, 32
2, 55046, Control_c, 0, 64, 32
2, 55074, Note_on_c, 0, 55, 70
2, 55108, Control_c, 0, 64, 31
2, 55130, Note_on_c, 0, 55, 0
2, 55153, Control_c, 0, 64, 30
2, 55169, Control_c, 0, 64, 30
2, 55184, Control_c, 0, 64, 29
2, 55200, Control_c, 0, 64, 28
2, 55214, Control_c, 0, 64, 27
2, 55229, Control_c, 0, 64, 26
2, 55285, Note_on_c, 0, 60, 65
2, 55321, Control_c, 0, 64, 26
2, 55367, Control_c, 0, 64, 25
2, 55397, Control_c, 0, 64, 25
2, 55427, Control_c, 0, 64, 24
2, 55443, Control_c, 0, 64, 24
2, 55458, Control_c, 0, 64, 23
2, 55488, Control_c, 0, 64, 23
2, 55503, Control_c, 0, 64, 21
2, 55526, Control_c, 0, 64, 16
2, 55541, Control_c, 0, 64, 0
2, 55937, Control_c, 0, 64, 22
2, 55952, Control_c, 0, 64, 33
2, 55968, Control_c, 0, 64, 41
2, 55982, Control_c, 0, 64, 46
2, 55997, Control_c, 0, 64, 51
2, 56013, Control_c, 0, 64, 54
2, 56028, Control_c, 0, 64, 57
2, 56044, Control_c, 0, 64, 60
2, 56058, Control_c, 0, 64, 62
2, 56073, Control_c, 0, 64, 63
2, 56089, Control_c, 0, 64, 64
2, 56104, Control_c, 0, 64, 64
2, 56120, Control_c, 0, 64, 65
2, 56149, Control_c, 0, 64, 65
2, 56180, Control_c, 0, 64, 66
2, 56211, Control_c, 0, 64, 66
2, 56242, Control_c, 0, 64, 67
2, 56271, Control_c, 0, 64, 67
2, 56339, Control_c, 0, 64, 68
2, 56401, Control_c, 0, 64, 68
2, 56461, Control_c, 0, 64, 69
2, 56568, Control_c, 0, 64, 68
2, 56613, Control_c, 0, 64, 68
2, 56658, Control_c, 0, 64, 67
2, 56671, Note_on_c, 0, 63, 0
2, 56673, Control_c, 0, 64, 67
2, 56685, Note_on_c, 0, 72, 0
2, 56689, Control_c, 0, 64, 66
2, 56699, Note_on_c, 0, 67, 0
2, 56704, Control_c, 0, 64, 66
2, 56720, Control_c, 0, 64, 65
2, 56730, Note_on_c, 0, 60, 0
2, 56734, Control_c, 0, 64, 65
2, 56750, Control_c, 0, 64, 64
2, 56766, Control_c, 0, 64, 63
2, 56781, Control_c, 0, 64, 62
2, 56796, Control_c, 0, 64, 62
2, 56812, Control_c, 0, 64, 60
2, 56826, Control_c, 0, 64, 59
2, 56842, Control_c, 0, 64, 58
2, 56857, Control_c, 0, 64, 57
2, 56873, Control_c, 0, 64, 56
2, 56889, Control_c, 0, 64, 55
2, 56903, Control_c, 0, 64, 54
2, 56919, Control_c, 0, 64, 53
2, 56934, Control_c, 0, 64, 52
2, 56948, Control_c, 0, 64, 50
2, 56964, Control_c, 0, 64, 46
2, 56979, Control_c, 0, 64, 44
2, 56994, Control_c, 0, 64, 41
2, 57010, Control_c, 0, 64, 39
2, 57024, Control_c, 0, 64, 36
2, 57040, Control_c, 0, 64, 33
2, 57063, Control_c, 0, 64, 30
2, 57079, Control_c, 0, 64, 28
2, 57094, Control_c, 0, 64, 26
2, 57108, Control_c, 0, 64, 23
2, 57124, Control_c, 0, 64, 21
2, 57139, Control_c, 0, 64, 18
2, 57154, Control_c, 0, 64, 16
2, 57169, Control_c, 0, 64, 12
2, 57184, Control_c, 0, 64, 0
2, 57245, Control_c, 0, 67, 14
2, 57260, Control_c, 0, 67, 43
2, 57275, Control_c, 0, 67, 72
2, 57290, Control_c, 0, 67, 103
2, 57305, Control_c, 0, 67, 127
2, 58808, Note_on_c, 0, 67, 40
2, 59375, Note_on_c, 0, 63, 41
2, 59464, Note_on_c, 0, 67, 0
2, 59931, Note_on_c, 0, 65, 48
2, 60063, Note_on_c, 0, 63, 0
2, 60498, Note_on_c, 0, 67, 43
2, 60562, Note_on_c, 0, 65, 0
2, 61048, Note_on_c, 0, 60, 45
2, 61191, Note_on_c, 0, 67, 0
2, 61624, Note_on_c, 0, 65, 43
2, 61734, Note_on_c, 0, 60, 0
2, 62157, Note_on_c, 0, 63, 40
2, 62330, Note_on_c, 0, 65, 0
2, 62454, Note_on_c, 0, 62, 40
2, 62472, Note_on_c, 0, 63, 0
2, 62775, Note_on_c, 0, 63, 32
2, 62818, Note_on_c, 0, 62, 0
2, 63396, Note_on_c, 0, 72, 48
2, 63940, Note_on_c, 0, 70, 56
2, 63977, Note_on_c, 0, 62, 35
2, 64047, Note_on_c, 0, 63, 0
2, 64048, Note_on_c, 0, 72, 0
2, 64539, Note_on_c, 0, 60, 37
2, 64539, Note_on_c, 0, 72, 61
2, 64615, Note_on_c, 0, 70, 0
2, 64623, Note_on_c, 0, 62, 0
2, 65135, Note_on_c, 0, 74, 59
2, 65146, Note_on_c, 0, 58, 37
2, 65211, Note_on_c, 0, 72, 0
2, 65224, Note_on_c, 0, 60, 0
2, 65723, Note_on_c, 0, 67, 52
2, 65820, Note_on_c, 0, 74, 0
2, 66319, Note_on_c, 0, 72, 56
2, 66323, Note_on_c, 0, 57, 22
2, 66408, Note_on_c, 0, 58, 0
2, 66439, Note_on_c, 0, 67, 0
2, 66868, Note_on_c, 0, 70, 48
2, 66930, Note_on_c, 0, 72, 0
2, 67135, Note_on_c, 0, 69, 44
2, 67139, Note_on_c, 0, 70, 0
2, 67445, Note_on_c, 0, 70, 45
2, 67466, Note_on_c, 0, 55, 26
2, 67502, Note_on_c, 0, 57, 0
2, 67573, Note_on_c, 0, 69, 0
2, 67853, Note_on_c, 0, 55, 0
2, 68127, Note_on_c, 0, 67, 40
2, 68759, Note_on_c, 0, 68, 46
2, 68859, Note_on_c, 0, 70, 0
2, 69379, Note_on_c, 0, 65, 33
2, 69483, Note_on_c, 0, 67, 0
2, 69966, Note_on_c, 0, 67, 48
2, 70046, Note_on_c, 0, 68, 0
2, 70572, Note_on_c, 0, 72, 53
2, 70573, Note_on_c, 0, 63, 40
2, 70662, Note_on_c, 0, 67, 0
2, 70675, Note_on_c, 0, 65, 0
2, 71204, Note_on_c, 0, 65, 48
2, 71294, Note_on_c, 0, 72, 0
2, 71810, Note_on_c, 0, 62, 38
2, 71814, Note_on_c, 0, 63, 0
2, 72097, Note_on_c, 0, 60, 41
2, 72146, Note_on_c, 0, 62, 0
2, 72401, Note_on_c, 0, 59, 34
2, 72445, Note_on_c, 0, 60, 0
2, 72990, Note_on_c, 0, 63, 45
2, 73003, Note_on_c, 0, 55, 42
2, 73025, Note_on_c, 0, 65, 0
2, 73269, Note_on_c, 0, 62, 46
2, 73282, Note_on_c, 0, 63, 0
2, 73396, Note_on_c, 0, 59, 0
2, 73580, Note_on_c, 0, 51, 52
2, 73581, Note_on_c, 0, 60, 38
2, 73581, Note_on_c, 0, 67, 48
2, 73640, Note_on_c, 0, 62, 0
2, 73660, Note_on_c, 0, 55, 0
2, 74163, Note_on_c, 0, 53, 52
2, 74179, Note_on_c, 0, 65, 46
2, 74183, Note_on_c, 0, 67, 0
2, 74229, Note_on_c, 0, 51, 0
2, 74766, Note_on_c, 0, 55, 47
2, 74769, Note_on_c, 0, 63, 51
2, 74854, Note_on_c, 0, 53, 0
2, 74870, Note_on_c, 0, 65, 0
2, 75340, Note_on_c, 0, 48, 46
2, 75416, Note_on_c, 0, 55, 0
2, 75924, Note_on_c, 0, 53, 48
2, 75930, Note_on_c, 0, 59, 31
2, 75930, Note_on_c, 0, 62, 41
2, 75979, Note_on_c, 0, 60, 0
2, 76068, Note_on_c, 0, 63, 0
2, 76069, Note_on_c, 0, 48, 0
2, 76517, Note_on_c, 0, 51, 42
2, 76541, Note_on_c, 0, 53, 0
2, 76769, Note_on_c, 0, 51, 0
2, 76798, Note_on_c, 0, 50, 37
2, 77080, Note_on_c, 0, 51, 43
2, 77080, Note_on_c, 0, 60, 46
2, 77092, Note_on_c, 0, 50, 0
2, 77144, Note_on_c, 0, 59, 0
2, 77194, Note_on_c, 0, 62, 0
2, 77336, Note_on_c, 0, 51, 0
2, 77361, Note_on_c, 0, 55, 40
2, 77612, Note_on_c, 0, 55, 0
2, 77622, Note_on_c, 0, 48, 33
2, 77623, Note_on_c, 0, 67, 52
2, 77881, Note_on_c, 0, 48, 0
2, 77893, Note_on_c, 0, 50, 31
2, 77927, Note_on_c, 0, 67, 0
2, 78146, Note_on_c, 0, 72, 62
2, 78160, Note_on_c, 0, 50, 0
2, 78167, Note_on_c, 0, 51, 43
2, 78388, Note_on_c, 0, 60, 0
2, 78398, Note_on_c, 0, 51, 0
2, 78440, Note_on_c, 0, 53, 34
2, 78669, Note_on_c, 0, 53, 0
2, 78678, Note_on_c, 0, 63, 42
2, 78691, Note_on_c, 0, 55, 33
2, 78938, Note_on_c, 0, 55, 0
2, 78948, Note_on_c, 0, 57, 44
2, 79094, Note_on_c, 0, 63, 0
2, 79188, Note_on_c, 0, 57, 0
2, 79216, Note_on_c, 0, 62, 42
2, 79220, Note_on_c, 0, 58, 38
2, 79400, Note_on_c, 0, 58, 0
2, 79450, Note_on_c, 0, 62, 0
2, 79468, Note_on_c, 0, 62, 26
2, 79490, Note_on_c, 0, 66, 45
2, 79747, Note_on_c, 0, 62, 0
2, 79749, Note_on_c, 0, 55, 40
2, 79749, Note_on_c, 0, 70, 45
2, 79755, Note_on_c, 0, 72, 0
2, 79758, Note_on_c, 0, 67, 38
2, 79791, Note_on_c, 0, 66, 0
2, 79965, Note_on_c, 0, 55, 0
2, 80000, Note_on_c, 0, 72, 59
2, 80012, Note_on_c, 0, 57, 46
2, 80016, Note_on_c, 0, 70, 0
2, 80090, Note_on_c, 0, 67, 0
2, 80247, Note_on_c, 0, 57, 0
2, 80259, Note_on_c, 0, 58, 51
2, 80264, Note_on_c, 0, 72, 0
2, 80268, Note_on_c, 0, 74, 53
2, 80511, Note_on_c, 0, 76, 57
2, 80516, Note_on_c, 0, 58, 0
2, 80519, Note_on_c, 0, 60, 51
2, 80550, Note_on_c, 0, 74, 0
2, 80755, Note_on_c, 0, 60, 0
2, 80764, Note_on_c, 0, 77, 57
2, 80784, Note_on_c, 0, 62, 41
2, 80803, Note_on_c, 0, 76, 0
2, 81005, Note_on_c, 0, 62, 0
2, 81031, Note_on_c, 0, 79, 56
2, 81035, Note_on_c, 0, 64, 46
2, 81092, Note_on_c, 0, 77, 0
2, 81251, Note_on_c, 0, 64, 0
2, 81293, Note_on_c, 0, 65, 46
2, 81294, Note_on_c, 0, 80, 56
2, 81302, Note_on_c, 0, 79, 0
2, 81518, Note_on_c, 0, 65, 0
2, 81537, Note_on_c, 0, 80, 0
2, 81549, Note_on_c, 0, 77, 60
2, 81823, Note_on_c, 0, 56, 40
2, 81827, Note_on_c, 0, 77, 0
2, 81835, Note_on_c, 0, 84, 49
2, 82094, Note_on_c, 0, 82, 54
2, 82141, Note_on_c, 0, 84, 0
2, 82164, Note_on_c, 0, 56, 0
2, 82337, Note_on_c, 0, 80, 52
2, 82346, Note_on_c, 0, 53, 36
2, 82373, Note_on_c, 0, 82, 0
2, 82602, Note_on_c, 0, 79, 49
2, 82620, Note_on_c, 0, 80, 0
2, 82666, Note_on_c, 0, 53, 0
2, 82826, Note_on_c, 0, 79, 0
2, 82851, Note_on_c, 0, 77, 50
2, 82866, Note_on_c, 0, 56, 33
2, 83074, Note_on_c, 0, 56, 0
2, 83127, Note_on_c, 0, 75, 49
2, 83183, Note_on_c, 0, 77, 0
2, 83410, Note_on_c, 0, 58, 32
2, 83414, Note_on_c, 0, 74, 44
2, 83430, Note_on_c, 0, 75, 0
2, 83668, Note_on_c, 0, 70, 41
2, 83714, Note_on_c, 0, 74, 0
2, 83914, Note_on_c, 0, 77, 52
2, 83950, Note_on_c, 0, 62, 38
2, 83963, Note_on_c, 0, 58, 0
2, 83980, Note_on_c, 0, 70, 0
2, 84202, Note_on_c, 0, 75, 53
2, 84244, Note_on_c, 0, 77, 0
2, 84449, Note_on_c, 0, 58, 43
2, 84465, Note_on_c, 0, 74, 46
2, 84501, Note_on_c, 0, 62, 0
2, 84525, Note_on_c, 0, 75, 0
2, 84685, Note_on_c, 0, 74, 0
2, 84717, Note_on_c, 0, 72, 50
2, 84964, Note_on_c, 0, 72, 0
2, 84973, Note_on_c, 0, 70, 50
2, 84979, Note_on_c, 0, 62, 42
2, 85020, Note_on_c, 0, 58, 0
2, 85233, Note_on_c, 0, 68, 53
2, 85249, Note_on_c, 0, 70, 0
2, 85364, Control_c, 0, 67, 124
2, 85379, Control_c, 0, 67, 120
2, 85394, Control_c, 0, 67, 115
2, 85409, Control_c, 0, 67, 111
2, 85425, Control_c, 0, 67, 107
2, 85441, Control_c, 0, 67, 103
2, 85456, Control_c, 0, 67, 99
2, 85479, Control_c, 0, 67, 95
2, 85494, Control_c, 0, 67, 90
2, 85500, Note_on_c, 0, 68, 0
2, 85508, Control_c, 0, 67, 86
2, 85514, Note_on_c, 0, 67, 43
2, 85521, Note_on_c, 0, 63, 38
2, 85524, Control_c, 0, 67, 82
2, 85531, Note_on_c, 0, 62, 0
2, 85539, Control_c, 0, 67, 79
2, 85555, Control_c, 0, 67, 75
2, 85570, Control_c, 0, 67, 70
2, 85584, Control_c, 0, 67, 65
2, 85600, Control_c, 0, 67, 59
2, 85615, Control_c, 0, 67, 53
2, 85630, Control_c, 0, 64, 17
2, 85630, Control_c, 0, 67, 46
2, 85646, Control_c, 0, 64, 43
2, 85646, Control_c, 0, 67, 38
2, 85661, Control_c, 0, 64, 54
2, 85661, Control_c, 0, 67, 29
2, 85677, Control_c, 0, 64, 61
2, 85677, Control_c, 0, 67, 20
2, 85692, Control_c, 0, 64, 64
2, 85692, Control_c, 0, 67, 11
2, 85707, Control_c, 0, 64, 67
2, 85707, Control_c, 0, 67, 0
2, 85722, Control_c, 0, 64, 72
2, 85731, Note_on_c, 0, 63, 0
2, 85737, Control_c, 0, 64, 75
2, 85753, Control_c, 0, 64, 78
2, 85768, Control_c, 0, 64, 80
2, 85782, Control_c, 0, 64, 81
2, 85843, Control_c, 0, 64, 80
2, 85851, Note_on_c, 0, 60, 50
2, 85876, Control_c, 0, 64, 80
2, 85891, Control_c, 0, 64, 79
2, 85893, Note_on_c, 0, 67, 0
2, 85907, Control_c, 0, 64, 79
2, 85921, Control_c, 0, 64, 78
2, 85936, Control_c, 0, 64, 78
2, 85952, Control_c, 0, 64, 77
2, 85967, Control_c, 0, 64, 77
2, 85982, Control_c, 0, 64, 76
2, 86012, Control_c, 0, 64, 76
2, 86028, Control_c, 0, 64, 75
2, 86043, Control_c, 0, 64, 75
2, 86058, Control_c, 0, 64, 74
2, 86073, Control_c, 0, 64, 73
2, 86088, Control_c, 0, 64, 73
2, 86103, Control_c, 0, 64, 72
2, 86119, Control_c, 0, 64, 71
2, 86130, Note_on_c, 0, 60, 0
2, 86134, Control_c, 0, 64, 71
2, 86149, Note_on_c, 0, 48, 58
2, 86150, Control_c, 0, 64, 70
2, 86165, Control_c, 0, 64, 70
2, 86165, Note_on_c, 0, 68, 53
2, 86180, Control_c, 0, 64, 69
2, 86195, Control_c, 0, 64, 68
2, 86210, Control_c, 0, 64, 67
2, 86226, Control_c, 0, 64, 66
2, 86249, Control_c, 0, 64, 65
2, 86264, Control_c, 0, 64, 64
2, 86279, Control_c, 0, 64, 64
2, 86294, Control_c, 0, 64, 63
2, 86310, Control_c, 0, 64, 62
2, 86325, Control_c, 0, 64, 61
2, 86340, Control_c, 0, 64, 60
2, 86355, Control_c, 0, 64, 60
2, 86370, Control_c, 0, 64, 59
2, 86386, Control_c, 0, 64, 58
2, 86401, Control_c, 0, 64, 58
2, 86416, Control_c, 0, 64, 57
2, 86424, Note_on_c, 0, 67, 58
2, 86431, Control_c, 0, 64, 56
2, 86446, Control_c, 0, 64, 56
2, 86461, Control_c, 0, 64, 55
2, 86469, Note_on_c, 0, 68, 0
2, 86477, Control_c, 0, 64, 55
2, 86492, Control_c, 0, 64, 54
2, 86508, Control_c, 0, 64, 54
2, 86583, Control_c, 0, 64, 53
2, 86629, Control_c, 0, 64, 53
2, 86663, Note_on_c, 0, 67, 0
2, 86695, Note_on_c, 0, 47, 63
2, 86695, Note_on_c, 0, 65, 52
2, 86735, Control_c, 0, 64, 52
2, 86760, Note_on_c, 0, 48, 0
2, 86811, Control_c, 0, 64, 52
2, 86917, Control_c, 0, 64, 51
2, 86938, Note_on_c, 0, 65, 0
2, 86951, Note_on_c, 0, 63, 54
2, 87155, Control_c, 0, 64, 51
2, 87215, Control_c, 0, 64, 50
2, 87228, Note_on_c, 0, 63, 0
2, 87233, Note_on_c, 0, 48, 63
2, 87235, Note_on_c, 0, 62, 53
2, 87262, Control_c, 0, 64, 50
2, 87275, Note_on_c, 0, 47, 0
2, 87292, Control_c, 0, 64, 49
2, 87322, Control_c, 0, 64, 49
2, 87368, Control_c, 0, 64, 48
2, 87398, Control_c, 0, 64, 48
2, 87444, Control_c, 0, 64, 47
2, 87474, Control_c, 0, 64, 47
2, 87476, Note_on_c, 0, 62, 0
2, 87493, Note_on_c, 0, 60, 55
2, 87520, Control_c, 0, 64, 46
2, 87550, Control_c, 0, 64, 46
2, 87581, Control_c, 0, 64, 45
2, 87611, Control_c, 0, 64, 45
2, 87627, Control_c, 0, 64, 44
2, 87642, Control_c, 0, 64, 44
2, 87656, Control_c, 0, 64, 43
2, 87687, Control_c, 0, 64, 43
2, 87732, Control_c, 0, 64, 42
2, 87756, Note_on_c, 0, 60, 0
2, 87759, Note_on_c, 0, 59, 56
2, 87764, Note_on_c, 0, 50, 62
2, 87779, Control_c, 0, 64, 42
2, 87809, Note_on_c, 0, 48, 0
2, 87832, Control_c, 0, 64, 41
2, 87863, Control_c, 0, 64, 41
2, 87924, Control_c, 0, 64, 40
2, 88000, Control_c, 0, 64, 40
2, 88017, Note_on_c, 0, 59, 0
2, 88027, Note_on_c, 0, 65, 53
2, 88302, Note_on_c, 0, 43, 64
2, 88316, Note_on_c, 0, 63, 54
2, 88328, Note_on_c, 0, 65, 0
2, 88335, Note_on_c, 0, 50, 0
2, 88365, Control_c, 0, 64, 40
2, 88441, Control_c, 0, 64, 41
2, 88540, Note_on_c, 0, 63, 0
2, 88574, Note_on_c, 0, 62, 61
2, 88613, Control_c, 0, 64, 41
2, 88689, Control_c, 0, 64, 42
2, 88840, Note_on_c, 0, 48, 63
2, 88841, Note_on_c, 0, 63, 59
2, 88871, Note_on_c, 0, 62, 0
2, 88883, Note_on_c, 0, 43, 0
2, 89080, Note_on_c, 0, 68, 69
2, 89132, Note_on_c, 0, 63, 0
2, 89351, Note_on_c, 0, 67, 69
2, 89356, Note_on_c, 0, 47, 66
2, 89368, Note_on_c, 0, 48, 0
2, 89371, Note_on_c, 0, 68, 0
2, 89584, Note_on_c, 0, 67, 0
2, 89589, Note_on_c, 0, 45, 68
2, 89597, Note_on_c, 0, 65, 62
2, 89611, Note_on_c, 0, 47, 0
2, 89838, Control_c, 0, 64, 41
2, 89859, Note_on_c, 0, 74, 71
2, 89861, Note_on_c, 0, 47, 69
2, 89868, Control_c, 0, 64, 41
2, 89873, Note_on_c, 0, 45, 0
2, 89883, Note_on_c, 0, 65, 0
2, 89959, Control_c, 0, 64, 40
2, 90118, Note_on_c, 0, 74, 0
2, 90129, Note_on_c, 0, 72, 71
2, 90331, Control_c, 0, 64, 38
2, 90348, Control_c, 0, 64, 32
2, 90363, Control_c, 0, 64, 12
2, 90378, Control_c, 0, 64, 0
2, 90394, Note_on_c, 0, 43, 62
2, 90404, Note_on_c, 0, 74, 72
2, 90430, Note_on_c, 0, 47, 0
2, 90466, Note_on_c, 0, 72, 0
2, 90696, Note_on_c, 0, 79, 82
2, 90726, Control_c, 0, 64, 21
2, 90741, Control_c, 0, 64, 38
2, 90757, Control_c, 0, 64, 47
2, 90772, Control_c, 0, 64, 52
2, 90788, Control_c, 0, 64, 57
2, 90803, Control_c, 0, 64, 60
2, 90818, Control_c, 0, 64, 63
2, 90833, Control_c, 0, 64, 65
2, 90855, Control_c, 0, 64, 66
2, 90857, Note_on_c, 0, 79, 0
2, 90871, Control_c, 0, 64, 68
2, 90886, Control_c, 0, 64, 71
2, 90901, Control_c, 0, 64, 73
2, 90916, Control_c, 0, 64, 75
2, 90931, Control_c, 0, 64, 77
2, 90944, Control_c, 0, 64, 78
2, 90960, Control_c, 0, 64, 80
2, 90975, Control_c, 0, 64, 81
2, 90990, Control_c, 0, 64, 82
2, 91036, Control_c, 0, 64, 81
2, 91051, Control_c, 0, 64, 80
2, 91066, Control_c, 0, 64, 78
2, 91082, Control_c, 0, 64, 75
2, 91087, Note_on_c, 0, 75, 77
2, 91097, Control_c, 0, 64, 72
2, 91103, Note_on_c, 0, 48, 55
2, 91111, Control_c, 0, 64, 69
2, 91125, Note_on_c, 0, 43, 0
2, 91127, Control_c, 0, 64, 65
2, 91142, Control_c, 0, 64, 63
2, 91159, Control_c, 0, 64, 59
2, 91174, Control_c, 0, 64, 56
2, 91188, Control_c, 0, 64, 54
2, 91204, Control_c, 0, 64, 52
2, 91219, Control_c, 0, 64, 52
2, 91235, Control_c, 0, 64, 51
2, 91295, Control_c, 0, 64, 51
2, 91310, Control_c, 0, 64, 50
2, 91326, Control_c, 0, 64, 50
2, 91340, Control_c, 0, 64, 49
2, 91403, Note_on_c, 0, 74, 0
2, 91408, Note_on_c, 0, 71, 68
2, 91463, Control_c, 0, 64, 50
2, 91508, Control_c, 0, 64, 50
2, 91569, Control_c, 0, 64, 51
2, 91675, Note_on_c, 0, 44, 63
2, 91681, Note_on_c, 0, 72, 73
2, 91746, Note_on_c, 0, 48, 0
2, 91836, Note_on_c, 0, 71, 0
2, 91920, Note_on_c, 0, 77, 80
2, 91959, Note_on_c, 0, 75, 0
2, 91987, Control_c, 0, 64, 50
2, 92003, Control_c, 0, 64, 50
2, 92079, Control_c, 0, 64, 49
2, 92109, Control_c, 0, 64, 49
2, 92125, Control_c, 0, 64, 48
2, 92140, Control_c, 0, 64, 47
2, 92155, Control_c, 0, 64, 45
2, 92170, Control_c, 0, 64, 41
2, 92185, Control_c, 0, 64, 29
2, 92201, Control_c, 0, 64, 0
2, 92202, Note_on_c, 0, 79, 79
2, 92204, Note_on_c, 0, 39, 57
2, 92244, Note_on_c, 0, 44, 0
2, 92256, Note_on_c, 0, 77, 0
2, 92451, Control_c, 0, 64, 33
2, 92466, Control_c, 0, 64, 44
2, 92473, Note_on_c, 0, 72, 0
2, 92479, Note_on_c, 0, 71, 52
2, 92482, Control_c, 0, 64, 50
2, 92497, Control_c, 0, 64, 54
2, 92513, Control_c, 0, 64, 58
2, 92527, Control_c, 0, 64, 60
2, 92542, Control_c, 0, 64, 62
2, 92558, Control_c, 0, 64, 63
2, 92573, Control_c, 0, 64, 64
2, 92588, Control_c, 0, 64, 65
2, 92593, Note_on_c, 0, 39, 0
2, 92603, Control_c, 0, 64, 66
2, 92618, Control_c, 0, 64, 66
2, 92634, Control_c, 0, 64, 67
2, 92648, Control_c, 0, 64, 68
2, 92663, Control_c, 0, 64, 69
2, 92679, Control_c, 0, 64, 70
2, 92694, Control_c, 0, 64, 70
2, 92724, Control_c, 0, 64, 71
2, 92737, Note_on_c, 0, 72, 79
2, 92785, Control_c, 0, 64, 70
2, 92803, Note_on_c, 0, 71, 0
2, 92804, Note_on_c, 0, 79, 0
2, 92847, Control_c, 0, 64, 70
2, 92907, Control_c, 0, 64, 69
2, 92938, Control_c, 0, 64, 69
2, 92998, Control_c, 0, 64, 68
2, 93000, Note_on_c, 0, 56, 57
2, 93027, Control_c, 0, 64, 68
2, 93058, Control_c, 0, 64, 67
2, 93073, Control_c, 0, 64, 67
2, 93103, Control_c, 0, 64, 66
2, 93119, Control_c, 0, 64, 66
2, 93157, Control_c, 0, 64, 65
2, 93172, Control_c, 0, 64, 65
2, 93187, Control_c, 0, 64, 64
2, 93218, Control_c, 0, 64, 64
2, 93248, Control_c, 0, 64, 63
2, 93279, Control_c, 0, 64, 63
2, 93293, Control_c, 0, 64, 62
2, 93296, Note_on_c, 0, 77, 76
2, 93298, Note_on_c, 0, 50, 47
2, 93308, Control_c, 0, 64, 61
2, 93324, Control_c, 0, 64, 61
2, 93332, Note_on_c, 0, 56, 0
2, 93339, Control_c, 0, 64, 60
2, 93355, Control_c, 0, 64, 59
2, 93369, Control_c, 0, 64, 58
2, 93384, Control_c, 0, 64, 58
2, 93400, Control_c, 0, 64, 57
2, 93415, Control_c, 0, 64, 57
2, 93430, Control_c, 0, 64, 56
2, 93445, Control_c, 0, 64, 56
2, 93476, Control_c, 0, 64, 55
2, 93506, Control_c, 0, 64, 55
2, 93553, Control_c, 0, 64, 54
2, 93599, Note_on_c, 0, 71, 50
2, 93633, Note_on_c, 0, 72, 0
2, 93828, Note_on_c, 0, 75, 70
2, 93837, Note_on_c, 0, 55, 39
2, 93847, Note_on_c, 0, 50, 0
2, 93857, Control_c, 0, 64, 54
2, 93898, Note_on_c, 0, 77, 0
2, 94085, Note_on_c, 0, 74, 65
2, 94116, Note_on_c, 0, 75, 0
2, 94213, Control_c, 0, 64, 53
2, 94228, Control_c, 0, 64, 53
2, 94244, Control_c, 0, 64, 52
2, 94259, Control_c, 0, 64, 52
2, 94275, Control_c, 0, 64, 51
2, 94289, Control_c, 0, 64, 51
2, 94304, Control_c, 0, 64, 49
2, 94320, Control_c, 0, 64, 46
2, 94335, Control_c, 0, 64, 42
2, 94348, Note_on_c, 0, 72, 43
2, 94348, Note_on_c, 0, 75, 63
2, 94350, Control_c, 0, 64, 36
2, 94354, Note_on_c, 0, 48, 40
2, 94366, Control_c, 0, 64, 29
2, 94373, Note_on_c, 0, 71, 0
2, 94381, Control_c, 0, 64, 16
2, 94388, Note_on_c, 0, 74, 0
2, 94396, Control_c, 0, 64, 0
2, 94442, Note_on_c, 0, 55, 0
2, 94473, Control_c, 0, 64, 23
2, 94488, Control_c, 0, 64, 37
2, 94503, Control_c, 0, 64, 45
2, 94519, Control_c, 0, 64, 49
2, 94534, Control_c, 0, 64, 52
2, 94548, Control_c, 0, 64, 55
2, 94564, Control_c, 0, 64, 58
2, 94579, Control_c, 0, 64, 60
2, 94595, Control_c, 0, 64, 62
2, 94610, Control_c, 0, 64, 63
2, 94622, Note_on_c, 0, 67, 45
2, 94625, Control_c, 0, 64, 64
2, 94628, Note_on_c, 0, 72, 0
2, 94640, Control_c, 0, 64, 65
2, 94655, Control_c, 0, 64, 66
2, 94670, Control_c, 0, 64, 67
2, 94693, Control_c, 0, 64, 68
2, 94708, Control_c, 0, 64, 70
2, 94723, Control_c, 0, 64, 70
2, 94784, Control_c, 0, 64, 70
2, 94800, Control_c, 0, 64, 69
2, 94815, Control_c, 0, 64, 69
2, 94830, Control_c, 0, 64, 68
2, 94845, Control_c, 0, 64, 67
2, 94860, Control_c, 0, 64, 67
2, 94876, Control_c, 0, 64, 66
2, 94891, Control_c, 0, 64, 65
2, 94905, Control_c, 0, 64, 65
2, 94921, Control_c, 0, 64, 64
2, 94936, Control_c, 0, 64, 64
2, 94938, Note_on_c, 0, 68, 64
2, 94951, Control_c, 0, 64, 63
2, 94967, Control_c, 0, 64, 63
2, 94981, Control_c, 0, 64, 62
2, 94988, Note_on_c, 0, 67, 0
2, 94997, Control_c, 0, 64, 61
2, 95012, Control_c, 0, 64, 60
2, 95027, Control_c, 0, 64, 60
2, 95043, Control_c, 0, 64, 59
2, 95057, Control_c, 0, 64, 58
2, 95073, Control_c, 0, 64, 58
2, 95084, Note_on_c, 0, 75, 0
2, 95088, Control_c, 0, 64, 57
2, 95118, Control_c, 0, 64, 57
2, 95133, Control_c, 0, 64, 56
2, 95155, Note_on_c, 0, 48, 0
2, 95164, Control_c, 0, 64, 56
2, 95179, Control_c, 0, 64, 55
2, 95194, Control_c, 0, 64, 55
2, 95204, Note_on_c, 0, 53, 42
2, 95209, Control_c, 0, 64, 54
2, 95224, Control_c, 0, 64, 53
2, 95240, Control_c, 0, 64, 52
2, 95273, Control_c, 0, 64, 52
2, 95302, Control_c, 0, 64, 51
2, 95378, Control_c, 0, 64, 51
2, 95394, Control_c, 0, 64, 50
2, 95408, Control_c, 0, 64, 50
2, 95423, Control_c, 0, 64, 49
2, 95439, Control_c, 0, 64, 49
2, 95454, Control_c, 0, 64, 48
2, 95476, Note_on_c, 0, 53, 0
2, 95478, Control_c, 0, 64, 47
2, 95491, Note_on_c, 0, 73, 57
2, 95493, Note_on_c, 0, 46, 38
2, 95507, Control_c, 0, 64, 46
2, 95538, Control_c, 0, 64, 46
2, 95553, Control_c, 0, 64, 45
2, 95614, Control_c, 0, 67, 18
2, 95628, Control_c, 0, 67, 31
2, 95644, Control_c, 0, 64, 46
2, 95644, Control_c, 0, 67, 42
2, 95659, Control_c, 0, 64, 47
2, 95659, Control_c, 0, 67, 50
2, 95675, Control_c, 0, 64, 49
2, 95675, Control_c, 0, 67, 53
2, 95689, Control_c, 0, 64, 51
2, 95689, Control_c, 0, 67, 54
2, 95704, Control_c, 0, 64, 53
2, 95704, Control_c, 0, 67, 55
2, 95720, Control_c, 0, 64, 55
2, 95720, Control_c, 0, 67, 56
2, 95735, Control_c, 0, 64, 56
2, 95735, Control_c, 0, 67, 57
2, 95743, Note_on_c, 0, 67, 42
2, 95750, Control_c, 0, 64, 57
2, 95750, Control_c, 0, 67, 59
2, 95766, Control_c, 0, 64, 59
2, 95766, Control_c, 0, 67, 60
2, 95781, Control_c, 0, 64, 59
2, 95781, Control_c, 0, 67, 61
2, 95781, Note_on_c, 0, 68, 0
2, 95797, Control_c, 0, 64, 60
2, 95797, Control_c, 0, 67, 63
2, 95812, Control_c, 0, 64, 61
2, 95812, Control_c, 0, 67, 66
2, 95826, Control_c, 0, 64, 63
2, 95826, Control_c, 0, 67, 70
2, 95842, Control_c, 0, 64, 64
2, 95842, Control_c, 0, 67, 73
2, 95857, Control_c, 0, 64, 65
2, 95857, Control_c, 0, 67, 73
2, 95873, Control_c, 0, 67, 75
2, 95888, Control_c, 0, 67, 78
2, 95902, Control_c, 0, 67, 84
2, 95918, Control_c, 0, 67, 90
2, 95933, Control_c, 0, 64, 64
2, 95933, Control_c, 0, 67, 94
2, 95946, Note_on_c, 0, 73, 0
2, 95947, Control_c, 0, 67, 97
2, 95963, Control_c, 0, 67, 101
2, 95978, Control_c, 0, 67, 107
2, 95991, Note_on_c, 0, 46, 0
2, 95994, Control_c, 0, 64, 64
2, 95994, Control_c, 0, 67, 114
2, 96009, Control_c, 0, 67, 120
2, 96013, Note_on_c, 0, 72, 53
2, 96014, Note_on_c, 0, 51, 37
2, 96023, Control_c, 0, 64, 63
2, 96023, Control_c, 0, 67, 125
2, 96039, Control_c, 0, 64, 63
2, 96039, Control_c, 0, 67, 127
2, 96070, Control_c, 0, 64, 62
2, 96086, Control_c, 0, 64, 62
2, 96101, Control_c, 0, 64, 61
2, 96117, Control_c, 0, 64, 60
2, 96131, Control_c, 0, 64, 59
2, 96146, Control_c, 0, 64, 59
2, 96162, Control_c, 0, 64, 58
2, 96176, Control_c, 0, 64, 56
2, 96191, Control_c, 0, 64, 55
2, 96207, Control_c, 0, 64, 54
2, 96222, Control_c, 0, 64, 53
2, 96246, Control_c, 0, 64, 52
2, 96256, Note_on_c, 0, 72, 0
2, 96258, Note_on_c, 0, 70, 58
2, 96260, Control_c, 0, 64, 52
2, 96291, Control_c, 0, 64, 51
2, 96397, Control_c, 0, 64, 51
2, 96503, Control_c, 0, 64, 50
2, 96519, Control_c, 0, 64, 50
2, 96533, Control_c, 0, 64, 49
2, 96545, Note_on_c, 0, 44, 32
2, 96548, Control_c, 0, 64, 49
2, 96548, Note_on_c, 0, 72, 56
2, 96564, Control_c, 0, 64, 48
2, 96574, Note_on_c, 0, 70, 0
2, 96579, Control_c, 0, 64, 47
2, 96579, Note_on_c, 0, 51, 0
2, 96595, Control_c, 0, 64, 45
2, 96610, Control_c, 0, 64, 43
2, 96625, Control_c, 0, 64, 40
2, 96640, Control_c, 0, 64, 38
2, 96655, Control_c, 0, 64, 35
2, 96670, Control_c, 0, 64, 32
2, 96686, Control_c, 0, 64, 30
2, 96701, Control_c, 0, 64, 28
2, 96717, Control_c, 0, 64, 25
2, 96732, Control_c, 0, 64, 23
2, 96746, Control_c, 0, 64, 20
2, 96762, Control_c, 0, 64, 18
2, 96777, Control_c, 0, 64, 17
2, 96791, Control_c, 0, 64, 17
2, 96802, Note_on_c, 0, 64, 43
2, 96807, Control_c, 0, 64, 16
2, 96810, Note_on_c, 0, 67, 0
2, 96838, Control_c, 0, 64, 17
2, 96853, Control_c, 0, 64, 21
2, 96867, Control_c, 0, 64, 29
2, 96883, Control_c, 0, 64, 35
2, 96899, Control_c, 0, 64, 41
2, 96915, Control_c, 0, 64, 45
2, 96930, Control_c, 0, 64, 48
2, 96945, Control_c, 0, 64, 50
2, 96961, Control_c, 0, 64, 52
2, 96975, Control_c, 0, 64, 54
2, 96998, Control_c, 0, 64, 55
2, 97013, Control_c, 0, 64, 56
2, 97028, Control_c, 0, 64, 56
2, 97044, Control_c, 0, 64, 57
2, 97075, Control_c, 0, 64, 57
2, 97090, Note_on_c, 0, 65, 48
2, 97149, Note_on_c, 0, 64, 0
2, 97150, Control_c, 0, 64, 57
2, 97151, Note_on_c, 0, 72, 0
2, 97166, Control_c, 0, 64, 56
2, 97180, Control_c, 0, 64, 55
2, 97196, Control_c, 0, 64, 54
2, 97211, Control_c, 0, 64, 53
2, 97226, Control_c, 0, 64, 52
2, 97241, Control_c, 0, 64, 51
2, 97256, Control_c, 0, 64, 50
2, 97271, Control_c, 0, 64, 49
2, 97287, Control_c, 0, 64, 49
2, 97302, Control_c, 0, 64, 48
2, 97317, Control_c, 0, 64, 47
2, 97332, Control_c, 0, 64, 45
2, 97347, Control_c, 0, 64, 44
2, 97363, Control_c, 0, 64, 43
2, 97369, Note_on_c, 0, 49, 30
2, 97378, Control_c, 0, 64, 41
2, 97393, Control_c, 0, 64, 39
2, 97404, Note_on_c, 0, 44, 0
2, 97408, Control_c, 0, 64, 38
2, 97423, Control_c, 0, 64, 37
2, 97438, Control_c, 0, 64, 36
2, 97453, Control_c, 0, 64, 35
2, 97468, Control_c, 0, 64, 34
2, 97499, Control_c, 0, 64, 34
2, 97515, Control_c, 0, 64, 33
2, 97574, Control_c, 0, 64, 33
2, 97620, Control_c, 0, 64, 32
2, 97634, Note_on_c, 0, 70, 50
2, 97661, Note_on_c, 0, 43, 35
2, 97669, Note_on_c, 0, 49, 0
2, 97713, Control_c, 0, 64, 32
2, 97913, Note_on_c, 0, 64, 40
2, 97918, Control_c, 0, 64, 31
2, 97945, Note_on_c, 0, 65, 0
2, 98163, Note_on_c, 0, 48, 32
2, 98176, Note_on_c, 0, 68, 48
2, 98184, Note_on_c, 0, 70, 0
2, 98194, Note_on_c, 0, 43, 0
2, 98426, Note_on_c, 0, 67, 48
2, 98443, Note_on_c, 0, 68, 0
2, 98494, Control_c, 0, 64, 31
2, 98655, Control_c, 0, 64, 30
2, 98709, Note_on_c, 0, 67, 0
2, 98717, Note_on_c, 0, 41, 29
2, 98721, Note_on_c, 0, 68, 37
2, 98726, Note_on_c, 0, 65, 33
2, 98730, Note_on_c, 0, 64, 0
2, 98734, Note_on_c, 0, 48, 0
2, 98746, Control_c, 0, 64, 30
2, 98762, Control_c, 0, 64, 29
2, 98777, Control_c, 0, 64, 29
2, 98791, Control_c, 0, 64, 28
2, 98807, Control_c, 0, 64, 28
2, 98898, Control_c, 0, 64, 32
2, 98913, Control_c, 0, 64, 35
2, 98928, Control_c, 0, 64, 38
2, 98943, Control_c, 0, 64, 41
2, 98959, Control_c, 0, 64, 46
2, 98974, Control_c, 0, 64, 50
2, 98989, Control_c, 0, 64, 53
2, 99004, Control_c, 0, 64, 57
2, 99019, Control_c, 0, 64, 60
2, 99033, Note_on_c, 0, 48, 32
2, 99035, Control_c, 0, 64, 64
2, 99049, Control_c, 0, 64, 66
2, 99064, Control_c, 0, 64, 69
2, 99066, Note_on_c, 0, 41, 0
2, 99080, Control_c, 0, 64, 72
2, 99095, Control_c, 0, 64, 76
2, 99111, Control_c, 0, 64, 78
2, 99126, Control_c, 0, 64, 79
2, 99217, Control_c, 0, 64, 79
2, 99248, Control_c, 0, 64, 78
2, 99263, Control_c, 0, 64, 78
2, 99279, Control_c, 0, 64, 77
2, 99317, Control_c, 0, 64, 77
2, 99331, Control_c, 0, 64, 76
2, 99346, Control_c, 0, 64, 76
2, 99363, Control_c, 0, 64, 75
2, 99377, Note_on_c, 0, 60, 58
2, 99378, Control_c, 0, 64, 75
2, 99387, Note_on_c, 0, 53, 38
2, 99394, Control_c, 0, 64, 74
2, 99409, Control_c, 0, 64, 73
2, 99424, Control_c, 0, 64, 73
2, 99439, Control_c, 0, 64, 72
2, 99447, Note_on_c, 0, 65, 0
2, 99454, Control_c, 0, 64, 71
2, 99469, Control_c, 0, 64, 70
2, 99484, Control_c, 0, 64, 68
2, 99488, Note_on_c, 0, 48, 0
2, 99499, Control_c, 0, 64, 66
2, 99502, Note_on_c, 0, 68, 0
2, 99515, Control_c, 0, 64, 64
2, 99530, Control_c, 0, 64, 63
2, 99545, Control_c, 0, 64, 62
2, 99560, Control_c, 0, 64, 61
2, 99575, Control_c, 0, 64, 60
2, 99590, Control_c, 0, 64, 59
2, 99606, Control_c, 0, 64, 58
2, 99621, Control_c, 0, 64, 56
2, 99637, Control_c, 0, 64, 55
2, 99652, Control_c, 0, 64, 54
2, 99664, Note_on_c, 0, 68, 44
2, 99667, Control_c, 0, 64, 53
2, 99682, Control_c, 0, 64, 53
2, 99697, Control_c, 0, 64, 52
2, 99713, Control_c, 0, 64, 51
2, 99728, Control_c, 0, 64, 49
2, 99743, Control_c, 0, 64, 48
2, 99758, Control_c, 0, 64, 48
2, 99773, Control_c, 0, 64, 47
2, 99788, Control_c, 0, 64, 46
2, 99804, Control_c, 0, 64, 46
2, 99819, Control_c, 0, 64, 45
2, 99834, Control_c, 0, 64, 44
2, 99849, Control_c, 0, 64, 44
2, 99864, Control_c, 0, 64, 43
2, 99880, Control_c, 0, 64, 42
2, 99893, Note_on_c, 0, 68, 0
2, 99894, Control_c, 0, 64, 42
2, 99924, Note_on_c, 0, 59, 53
2, 99925, Control_c, 0, 64, 41
2, 99932, Note_on_c, 0, 62, 52
2, 99940, Control_c, 0, 64, 40
2, 99956, Control_c, 0, 64, 40
2, 99970, Control_c, 0, 64, 39
2, 100023, Note_on_c, 0, 60, 0
2, 100031, Control_c, 0, 64, 39
2, 100191, Note_on_c, 0, 51, 49
2, 100208, Note_on_c, 0, 53, 0
2, 100441, Note_on_c, 0, 51, 0
2, 100445, Note_on_c, 0, 60, 57
2, 100452, Note_on_c, 0, 63, 56
2, 100462, Note_on_c, 0, 50, 51
2, 100490, Note_on_c, 0, 62, 0
2, 100508, Note_on_c, 0, 59, 0
2, 100694, Note_on_c, 0, 50, 0
2, 100711, Note_on_c, 0, 48, 54
2, 100950, Note_on_c, 0, 63, 0
2, 100982, Note_on_c, 0, 62, 62
2, 100986, Note_on_c, 0, 65, 64
2, 100989, Note_on_c, 0, 47, 56
2, 100990, Note_on_c, 0, 48, 0
2, 101045, Note_on_c, 0, 60, 0
2, 101241, Note_on_c, 0, 47, 0
2, 101245, Note_on_c, 0, 43, 48
2, 101496, Note_on_c, 0, 43, 0
2, 101504, Note_on_c, 0, 55, 62
2, 101507, Note_on_c, 0, 63, 63
2, 101510, Note_on_c, 0, 65, 0
2, 101515, Note_on_c, 0, 48, 50
2, 101551, Note_on_c, 0, 62, 0
2, 101768, Note_on_c, 0, 48, 0
2, 101773, Note_on_c, 0, 46, 65
2, 102058, Note_on_c, 0, 46, 0
2, 102058, Note_on_c, 0, 60, 72
2, 102061, Note_on_c, 0, 44, 57
2, 102117, Note_on_c, 0, 55, 0
2, 102318, Note_on_c, 0, 44, 0
2, 102336, Note_on_c, 0, 48, 54
2, 102592, Note_on_c, 0, 59, 56
2, 102594, Note_on_c, 0, 48, 0
2, 102601, Note_on_c, 0, 38, 43
2, 102601, Note_on_c, 0, 65, 58
2, 102615, Note_on_c, 0, 60, 0
2, 102657, Note_on_c, 0, 63, 0
2, 102854, Note_on_c, 0, 57, 56
2, 102881, Note_on_c, 0, 59, 0
2, 103119, Note_on_c, 0, 57, 0
2, 103126, Note_on_c, 0, 55, 51
2, 103127, Note_on_c, 0, 39, 46
2, 103163, Note_on_c, 0, 38, 0
2, 103324, Control_c, 0, 64, 38
2, 103382, Note_on_c, 0, 59, 55
2, 103394, Note_on_c, 0, 55, 0
2, 103654, Note_on_c, 0, 60, 48
2, 103665, Note_on_c, 0, 63, 46
2, 103684, Note_on_c, 0, 65, 0
2, 103690, Note_on_c, 0, 59, 0
2, 103947, Note_on_c, 0, 36, 33
2, 103952, Note_on_c, 0, 39, 0
2, 104260, Note_on_c, 0, 68, 48
2, 104273, Note_on_c, 0, 41, 38
2, 104295, Note_on_c, 0, 36, 0
2, 104303, Note_on_c, 0, 60, 0
2, 104333, Note_on_c, 0, 63, 0
2, 104570, Note_on_c, 0, 60, 38
2, 104852, Note_on_c, 0, 46, 31
2, 104857, Note_on_c, 0, 62, 42
2, 104877, Note_on_c, 0, 41, 0
2, 104910, Note_on_c, 0, 68, 0
2, 104964, Note_on_c, 0, 60, 0
2, 105101, Note_on_c, 0, 68, 56
2, 105120, Control_c, 0, 67, 122
2, 105135, Control_c, 0, 67, 115
2, 105151, Control_c, 0, 67, 107
2, 105166, Control_c, 0, 67, 100
2, 105181, Control_c, 0, 67, 95
2, 105196, Control_c, 0, 64, 39
2, 105196, Control_c, 0, 67, 89
2, 105211, Control_c, 0, 67, 84
2, 105227, Control_c, 0, 67, 79
2, 105241, Control_c, 0, 67, 74
2, 105256, Control_c, 0, 67, 71
2, 105272, Control_c, 0, 67, 68
2, 105287, Control_c, 0, 67, 65
2, 105302, Control_c, 0, 67, 63
2, 105317, Control_c, 0, 67, 61
2, 105332, Control_c, 0, 67, 58
2, 105348, Control_c, 0, 67, 56
2, 105363, Control_c, 0, 67, 55
2, 105370, Note_on_c, 0, 67, 54
2, 105371, Note_on_c, 0, 47, 48
2, 105378, Control_c, 0, 67, 53
2, 105393, Control_c, 0, 67, 51
2, 105402, Note_on_c, 0, 68, 0
2, 105408, Control_c, 0, 67, 50
2, 105418, Note_on_c, 0, 46, 0
2, 105418, Note_on_c, 0, 62, 0
2, 105423, Control_c, 0, 67, 48
2, 105446, Control_c, 0, 67, 46
2, 105461, Control_c, 0, 64, 39
2, 105461, Control_c, 0, 67, 45
2, 105477, Control_c, 0, 67, 43
2, 105492, Control_c, 0, 67, 42
2, 105508, Control_c, 0, 67, 40
2, 105522, Control_c, 0, 67, 38
2, 105537, Control_c, 0, 67, 36
2, 105553, Control_c, 0, 67, 35
2, 105568, Control_c, 0, 67, 33
2, 105583, Control_c, 0, 67, 31
2, 105598, Control_c, 0, 67, 30
2, 105613, Control_c, 0, 67, 29
2, 105629, Control_c, 0, 67, 28
2, 105630, Note_on_c, 0, 62, 49
2, 105644, Control_c, 0, 67, 26
2, 105658, Control_c, 0, 67, 25
2, 105674, Control_c, 0, 67, 24
2, 105689, Control_c, 0, 67, 23
2, 105704, Control_c, 0, 67, 21
2, 105720, Control_c, 0, 67, 20
2, 105735, Control_c, 0, 67, 19
2, 105751, Control_c, 0, 67, 17
2, 105765, Control_c, 0, 67, 16
2, 105780, Control_c, 0, 67, 14
2, 105796, Control_c, 0, 67, 12
2, 105811, Control_c, 0, 67, 11
2, 105827, Control_c, 0, 67, 9
2, 105838, Note_on_c, 0, 67, 0
2, 105842, Control_c, 0, 67, 8
2, 105856, Control_c, 0, 67, 0
2, 105888, Note_on_c, 0, 48, 54
2, 105903, Note_on_c, 0, 63, 51
2, 105925, Note_on_c, 0, 47, 0
2, 105979, Note_on_c, 0, 62, 0
2, 106166, Note_on_c, 0, 67, 58
2, 106452, Note_on_c, 0, 44, 59
2, 106454, Note_on_c, 0, 72, 62
2, 106518, Note_on_c, 0, 48, 0
2, 106686, Note_on_c, 0, 63, 0
2, 106708, Note_on_c, 0, 65, 52
2, 106731, Control_c, 0, 64, 40
2, 106731, Note_on_c, 0, 67, 0
2, 106944, Control_c, 0, 64, 40
2, 106972, Note_on_c, 0, 46, 59
2, 106996, Note_on_c, 0, 66, 56
2, 107015, Note_on_c, 0, 65, 0
2, 107029, Control_c, 0, 64, 41
2, 107040, Note_on_c, 0, 44, 0
2, 107120, Control_c, 0, 64, 41
2, 107196, Control_c, 0, 64, 42
2, 107231, Note_on_c, 0, 70, 61
2, 107294, Note_on_c, 0, 72, 0
2, 107438, Control_c, 0, 64, 42
2, 107469, Control_c, 0, 64, 43
2, 107515, Control_c, 0, 64, 43
2, 107520, Note_on_c, 0, 66, 0
2, 107522, Note_on_c, 0, 48, 63
2, 107530, Note_on_c, 0, 64, 58
2, 107530, Note_on_c, 0, 70, 0
2, 107545, Control_c, 0, 64, 44
2, 107562, Control_c, 0, 64, 44
2, 107592, Control_c, 0, 64, 45
2, 107596, Note_on_c, 0, 46, 0
2, 107638, Control_c, 0, 64, 45
2, 107777, Control_c, 0, 64, 46
2, 107807, Note_on_c, 0, 70, 64
2, 107868, Control_c, 0, 64, 46
2, 107929, Control_c, 0, 64, 47
2, 108005, Control_c, 0, 64, 47
2, 108045, Note_on_c, 0, 41, 58
2, 108056, Note_on_c, 0, 68, 67
2, 108066, Control_c, 0, 64, 48
2, 108082, Note_on_c, 0, 48, 0
2, 108103, Note_on_c, 0, 70, 0
2, 108142, Control_c, 0, 64, 48
2, 108218, Note_on_c, 0, 64, 0
2, 108308, Note_on_c, 0, 65, 52
2, 108605, Note_on_c, 0, 61, 55
2, 108606, Note_on_c, 0, 46, 60
2, 108651, Control_c, 0, 64, 49
2, 108667, Note_on_c, 0, 41, 0
2, 108863, Note_on_c, 0, 67, 60
2, 108889, Note_on_c, 0, 68, 0
2, 108891, Note_on_c, 0, 65, 0
2, 109120, Note_on_c, 0, 44, 46
2, 109130, Note_on_c, 0, 68, 69
2, 109144, Note_on_c, 0, 67, 0
2, 109150, Note_on_c, 0, 46, 0
2, 109365, Note_on_c, 0, 44, 0
2, 109380, Note_on_c, 0, 43, 48
2, 109380, Note_on_c, 0, 70, 67
2, 109409, Note_on_c, 0, 68, 0
2, 109482, Control_c, 0, 64, 48
2, 109512, Control_c, 0, 64, 48
2, 109542, Control_c, 0, 64, 47
2, 109558, Control_c, 0, 64, 47
2, 109573, Control_c, 0, 64, 46
2, 109588, Control_c, 0, 64, 44
2, 109603, Control_c, 0, 64, 39
2, 109618, Control_c, 0, 64, 26
2, 109634, Control_c, 0, 64, 0
2, 109660, Note_on_c, 0, 64, 64
2, 109674, Note_on_c, 0, 44, 53
2, 109701, Note_on_c, 0, 70, 0
2, 109717, Note_on_c, 0, 43, 0
2, 109729, Note_on_c, 0, 61, 0
2, 109801, Control_c, 0, 64, 33
2, 109816, Control_c, 0, 64, 49
2, 109831, Control_c, 0, 64, 56
2, 109847, Control_c, 0, 64, 60
2, 109862, Control_c, 0, 64, 63
2, 109877, Control_c, 0, 64, 66
2, 109892, Control_c, 0, 64, 70
2, 109907, Control_c, 0, 64, 76
2, 109909, Note_on_c, 0, 44, 0
2, 109923, Control_c, 0, 64, 83
2, 109924, Note_on_c, 0, 60, 60
2, 109932, Note_on_c, 0, 64, 0
2, 109938, Control_c, 0, 64, 90
2, 109952, Control_c, 0, 64, 95
2, 109968, Control_c, 0, 64, 99
2, 109983, Control_c, 0, 64, 101
2, 110083, Control_c, 0, 64, 100
2, 110098, Control_c, 0, 64, 99
2, 110114, Control_c, 0, 64, 98
2, 110129, Control_c, 0, 64, 96
2, 110144, Control_c, 0, 64, 94
2, 110160, Control_c, 0, 64, 91
2, 110175, Control_c, 0, 64, 86
2, 110185, Note_on_c, 0, 56, 48
2, 110187, Note_on_c, 0, 65, 65
2, 110189, Control_c, 0, 64, 82
2, 110205, Control_c, 0, 64, 79
2, 110220, Control_c, 0, 64, 76
2, 110235, Control_c, 0, 64, 73
2, 110250, Control_c, 0, 64, 70
2, 110265, Control_c, 0, 64, 66
2, 110266, Note_on_c, 0, 60, 0
2, 110281, Control_c, 0, 64, 63
2, 110296, Control_c, 0, 64, 61
2, 110310, Control_c, 0, 64, 60
2, 110326, Control_c, 0, 64, 59
2, 110341, Control_c, 0, 64, 58
2, 110357, Control_c, 0, 64, 57
2, 110372, Control_c, 0, 64, 56
2, 110386, Control_c, 0, 64, 55
2, 110402, Control_c, 0, 64, 54
2, 110416, Note_on_c, 0, 56, 0
2, 110417, Control_c, 0, 64, 53
2, 110432, Control_c, 0, 64, 52
2, 110441, Note_on_c, 0, 53, 45
2, 110447, Control_c, 0, 64, 51
2, 110449, Note_on_c, 0, 68, 71
2, 110478, Control_c, 0, 64, 51
2, 110508, Control_c, 0, 64, 50
2, 110524, Control_c, 0, 64, 50
2, 110555, Control_c, 0, 64, 49
2, 110569, Control_c, 0, 64, 49
2, 110600, Control_c, 0, 64, 48
2, 110691, Control_c, 0, 64, 48
2, 110706, Control_c, 0, 64, 46
2, 110721, Control_c, 0, 64, 43
2, 110736, Control_c, 0, 64, 37
2, 110751, Control_c, 0, 64, 29
2, 110766, Control_c, 0, 64, 25
2, 110781, Control_c, 0, 64, 24
2, 110799, Note_on_c, 0, 73, 73
2, 110801, Note_on_c, 0, 58, 47
2, 110852, Note_on_c, 0, 53, 0
2, 110866, Control_c, 0, 64, 25
2, 110896, Control_c, 0, 64, 26
2, 110911, Control_c, 0, 64, 28
2, 110911, Note_on_c, 0, 65, 0
2, 110927, Control_c, 0, 64, 30
2, 110942, Control_c, 0, 64, 31
2, 110958, Control_c, 0, 64, 32
2, 110988, Control_c, 0, 64, 33
2, 111004, Control_c, 0, 64, 34
2, 111019, Control_c, 0, 64, 36
2, 111034, Control_c, 0, 64, 38
2, 111049, Control_c, 0, 64, 38
2, 111064, Control_c, 0, 64, 39
2, 111075, Note_on_c, 0, 67, 63
2, 111079, Control_c, 0, 64, 40
2, 111094, Control_c, 0, 64, 41
2, 111109, Control_c, 0, 64, 42
2, 111123, Note_on_c, 0, 68, 0
2, 111125, Control_c, 0, 64, 43
2, 111331, Note_on_c, 0, 60, 52
2, 111334, Note_on_c, 0, 68, 58
2, 111360, Note_on_c, 0, 58, 0
2, 111374, Note_on_c, 0, 67, 0
2, 111590, Note_on_c, 0, 72, 67
2, 111670, Note_on_c, 0, 73, 0
2, 111787, Control_c, 0, 64, 43
2, 111817, Control_c, 0, 64, 44
2, 111832, Control_c, 0, 64, 44
2, 111853, Note_on_c, 0, 50, 60
2, 111859, Note_on_c, 0, 66, 60
2, 111862, Note_on_c, 0, 72, 0
2, 111863, Control_c, 0, 64, 45
2, 111892, Note_on_c, 0, 60, 0
2, 111893, Control_c, 0, 64, 45
2, 111912, Note_on_c, 0, 68, 0
2, 111924, Control_c, 0, 64, 46
2, 112000, Control_c, 0, 64, 46
2, 112101, Note_on_c, 0, 72, 70
2, 112151, Control_c, 0, 64, 47
2, 112358, Note_on_c, 0, 70, 75
2, 112372, Note_on_c, 0, 55, 55
2, 112411, Note_on_c, 0, 50, 0
2, 112416, Note_on_c, 0, 72, 0
2, 112585, Note_on_c, 0, 66, 0
2, 112606, Note_on_c, 0, 67, 58
2, 112878, Note_on_c, 0, 63, 64
2, 112886, Note_on_c, 0, 48, 59
2, 112935, Note_on_c, 0, 55, 0
2, 113171, Note_on_c, 0, 69, 76
2, 113208, Note_on_c, 0, 67, 0
2, 113221, Note_on_c, 0, 70, 0
2, 113425, Note_on_c, 0, 70, 75
2, 113440, Note_on_c, 0, 46, 58
2, 113467, Note_on_c, 0, 48, 0
2, 113470, Note_on_c, 0, 69, 0
2, 113654, Note_on_c, 0, 72, 75
2, 113667, Note_on_c, 0, 45, 57
2, 113672, Note_on_c, 0, 46, 0
2, 113689, Note_on_c, 0, 70, 0
2, 113718, Control_c, 0, 64, 46
2, 113794, Control_c, 0, 64, 46
2, 113839, Control_c, 0, 64, 45
2, 113869, Control_c, 0, 64, 45
2, 113885, Control_c, 0, 64, 44
2, 113907, Control_c, 0, 64, 44
2, 113923, Control_c, 0, 64, 43
2, 113938, Control_c, 0, 64, 43
2, 113947, Note_on_c, 0, 46, 63
2, 113947, Note_on_c, 0, 66, 77
2, 113952, Note_on_c, 0, 72, 0
2, 113978, Note_on_c, 0, 45, 0
2, 113978, Note_on_c, 0, 68, 39
2, 114019, Note_on_c, 0, 68, 0
2, 114121, Control_c, 0, 64, 43
2, 114136, Control_c, 0, 64, 44
2, 114151, Control_c, 0, 64, 47
2, 114167, Control_c, 0, 64, 51
2, 114181, Control_c, 0, 64, 55
2, 114197, Control_c, 0, 64, 58
2, 114212, Control_c, 0, 64, 61
2, 114227, Control_c, 0, 64, 63
2, 114229, Note_on_c, 0, 62, 59
2, 114243, Control_c, 0, 64, 66
2, 114257, Control_c, 0, 64, 69
2, 114272, Control_c, 0, 64, 73
2, 114288, Control_c, 0, 64, 78
2, 114302, Note_on_c, 0, 63, 0
2, 114303, Control_c, 0, 64, 83
2, 114303, Note_on_c, 0, 66, 0
2, 114319, Control_c, 0, 64, 88
2, 114333, Control_c, 0, 64, 95
2, 114348, Control_c, 0, 64, 101
2, 114364, Control_c, 0, 64, 106
2, 114379, Control_c, 0, 64, 107
2, 114409, Control_c, 0, 64, 106
2, 114424, Control_c, 0, 64, 104
2, 114440, Control_c, 0, 64, 102
2, 114455, Control_c, 0, 64, 96
2, 114462, Note_on_c, 0, 67, 81
2, 114468, Control_c, 0, 64, 86
2, 114474, Note_on_c, 0, 51, 63
2, 114484, Control_c, 0, 64, 77
2, 114499, Control_c, 0, 64, 70
2, 114515, Control_c, 0, 64, 64
2, 114520, Note_on_c, 0, 46, 0
2, 114529, Control_c, 0, 64, 59
2, 114544, Control_c, 0, 64, 54
2, 114560, Control_c, 0, 64, 51
2, 114575, Control_c, 0, 64, 49
2, 114589, Control_c, 0, 64, 48
2, 114605, Control_c, 0, 64, 47
2, 114651, Control_c, 0, 64, 46
2, 114704, Note_on_c, 0, 62, 0
2, 114722, Note_on_c, 0, 60, 68
2, 114989, Note_on_c, 0, 58, 81
2, 115000, Note_on_c, 0, 48, 64
2, 115035, Note_on_c, 0, 51, 0
2, 115035, Note_on_c, 0, 60, 0
2, 115050, Note_on_c, 0, 67, 0
2, 115100, Control_c, 0, 64, 47
2, 115256, Note_on_c, 0, 67, 77
2, 115511, Note_on_c, 0, 57, 73
2, 115519, Control_c, 0, 64, 47
2, 115520, Note_on_c, 0, 50, 68
2, 115540, Note_on_c, 0, 58, 0
2, 115577, Note_on_c, 0, 48, 0
2, 115747, Control_c, 0, 64, 48
2, 115790, Note_on_c, 0, 66, 76
2, 115827, Note_on_c, 0, 67, 0
2, 116128, Control_c, 0, 64, 46
2, 116142, Control_c, 0, 64, 44
2, 116143, Note_on_c, 0, 67, 74
2, 116147, Note_on_c, 0, 55, 62
2, 116158, Control_c, 0, 64, 40
2, 116159, Note_on_c, 0, 43, 56
2, 116161, Note_on_c, 0, 57, 0
2, 116173, Control_c, 0, 64, 29
2, 116178, Note_on_c, 0, 66, 0
2, 116185, Note_on_c, 0, 50, 0
2, 116188, Control_c, 0, 64, 0
2, 116378, Control_c, 0, 64, 44
2, 116394, Control_c, 0, 64, 56
2, 116408, Control_c, 0, 64, 62
2, 116423, Control_c, 0, 64, 66
2, 116439, Control_c, 0, 64, 71
2, 116454, Control_c, 0, 64, 79
2, 116469, Control_c, 0, 64, 90
2, 116484, Control_c, 0, 64, 117
2, 116499, Control_c, 0, 64, 127
2, 116567, Note_on_c, 0, 67, 0
2, 116643, Note_on_c, 0, 43, 0
2, 116733, Note_on_c, 0, 55, 0
2, 116908, Control_c, 0, 64, 118
2, 116924, Control_c, 0, 64, 105
2, 116939, Control_c, 0, 64, 98
2, 116962, Control_c, 0, 64, 92
2, 116977, Control_c, 0, 64, 88
2, 116991, Control_c, 0, 64, 82
2, 117007, Control_c, 0, 64, 77
2, 117022, Control_c, 0, 64, 72
2, 117033, Note_on_c, 0, 79, 50
2, 117037, Control_c, 0, 64, 68
2, 117052, Control_c, 0, 64, 65
2, 117067, Control_c, 0, 64, 63
2, 117083, Control_c, 0, 64, 61
2, 117098, Control_c, 0, 64, 60
2, 117113, Control_c, 0, 64, 59
2, 117128, Control_c, 0, 64, 57
2, 117143, Control_c, 0, 64, 56
2, 117158, Control_c, 0, 64, 55
2, 117174, Control_c, 0, 64, 55
2, 117189, Control_c, 0, 64, 54
2, 117205, Control_c, 0, 64, 53
2, 117220, Control_c, 0, 64, 52
2, 117235, Control_c, 0, 64, 51
2, 117250, Control_c, 0, 64, 50
2, 117265, Control_c, 0, 67, 13
2, 117281, Control_c, 0, 64, 50
2, 117281, Control_c, 0, 67, 23
2, 117296, Control_c, 0, 67, 33
2, 117311, Control_c, 0, 67, 37
2, 117326, Control_c, 0, 67, 39
2, 117341, Control_c, 0, 64, 49
2, 117341, Control_c, 0, 67, 41
2, 117356, Control_c, 0, 67, 45
2, 117373, Control_c, 0, 64, 49
2, 117373, Control_c, 0, 67, 50
2, 117388, Control_c, 0, 67, 55
2, 117404, Control_c, 0, 67, 59
2, 117419, Control_c, 0, 64, 48
2, 117419, Control_c, 0, 67, 61
2, 117433, Control_c, 0, 67, 64
2, 117449, Control_c, 0, 67, 67
2, 117464, Control_c, 0, 67, 71
2, 117478, Control_c, 0, 67, 73
2, 117494, Control_c, 0, 64, 48
2, 117570, Control_c, 0, 67, 73
2, 117585, Control_c, 0, 67, 72
2, 117601, Control_c, 0, 67, 71
2, 117630, Control_c, 0, 67, 70
2, 117632, Note_on_c, 0, 75, 53
2, 117646, Note_on_c, 0, 67, 44
2, 117661, Control_c, 0, 67, 70
2, 117675, Control_c, 0, 67, 68
2, 117691, Control_c, 0, 67, 67
2, 117706, Control_c, 0, 67, 66
2, 117745, Control_c, 0, 64, 48
2, 117745, Control_c, 0, 67, 66
2, 117759, Control_c, 0, 67, 65
2, 117775, Control_c, 0, 67, 61
2, 117776, Note_on_c, 0, 79, 0
2, 117790, Control_c, 0, 67, 60
2, 117821, Control_c, 0, 64, 49
2, 117851, Control_c, 0, 67, 58
2, 117866, Control_c, 0, 64, 49
2, 117866, Control_c, 0, 67, 57
2, 117881, Control_c, 0, 67, 56
2, 117896, Control_c, 0, 67, 55
2, 117911, Control_c, 0, 64, 50
2, 117927, Control_c, 0, 67, 55
2, 117942, Control_c, 0, 67, 54
2, 117956, Control_c, 0, 67, 52
2, 118003, Control_c, 0, 64, 50
2, 118018, Control_c, 0, 67, 51
2, 118033, Control_c, 0, 67, 51
2, 118049, Control_c, 0, 67, 50
2, 118064, Control_c, 0, 67, 50
2, 118109, Control_c, 0, 67, 49
2, 118140, Control_c, 0, 67, 48
2, 118155, Control_c, 0, 67, 47
2, 118170, Control_c, 0, 64, 51
2, 118170, Control_c, 0, 67, 46
2, 118185, Control_c, 0, 67, 45
2, 118202, Control_c, 0, 67, 43
2, 118216, Note_on_c, 0, 77, 52
2, 118217, Control_c, 0, 67, 41
2, 118232, Control_c, 0, 64, 51
2, 118232, Control_c, 0, 67, 35
2, 118247, Control_c, 0, 67, 27
2, 118262, Control_c, 0, 67, 22
2, 118274, Note_on_c, 0, 75, 0
2, 118277, Control_c, 0, 67, 18
2, 118293, Control_c, 0, 67, 14
2, 118308, Control_c, 0, 67, 10
2, 118323, Control_c, 0, 67, 0
2, 118474, Control_c, 0, 64, 52
2, 118773, Note_on_c, 0, 63, 49
2, 118773, Note_on_c, 0, 79, 51
2, 118818, Note_on_c, 0, 77, 0
2, 118896, Note_on_c, 0, 67, 0
2, 119354, Note_on_c, 0, 72, 56
2, 119437, Note_on_c, 0, 79, 0
2, 119767, Control_c, 0, 64, 52
2, 119934, Note_on_c, 0, 65, 54
2, 119935, Note_on_c, 0, 77, 62
2, 119992, Note_on_c, 0, 63, 0
2, 120017, Note_on_c, 0, 72, 0
2, 120247, Control_c, 0, 64, 53
2, 120504, Note_on_c, 0, 75, 51
2, 120549, Control_c, 0, 64, 53
2, 120562, Note_on_c, 0, 77, 0
2, 120717, Control_c, 0, 64, 54
2, 120751, Note_on_c, 0, 74, 50
2, 120790, Note_on_c, 0, 75, 0
2, 121027, Note_on_c, 0, 75, 56
2, 121031, Note_on_c, 0, 67, 53
2, 121057, Note_on_c, 0, 74, 0
2, 121072, Note_on_c, 0, 65, 0
2, 121286, Note_on_c, 0, 74, 50
2, 121303, Control_c, 0, 64, 54
2, 121333, Note_on_c, 0, 75, 0
2, 121348, Control_c, 0, 64, 55
2, 121543, Note_on_c, 0, 55, 39
2, 121551, Note_on_c, 0, 74, 0
2, 121573, Note_on_c, 0, 72, 48
2, 121820, Note_on_c, 0, 71, 50
2, 121856, Note_on_c, 0, 72, 0
2, 121949, Control_c, 0, 64, 54
2, 122070, Note_on_c, 0, 60, 57
2, 122082, Note_on_c, 0, 71, 0
2, 122088, Note_on_c, 0, 72, 52
2, 122090, Note_on_c, 0, 56, 58
2, 122096, Note_on_c, 0, 55, 0
2, 122130, Note_on_c, 0, 67, 0
2, 122132, Control_c, 0, 64, 54
2, 122253, Control_c, 0, 64, 53
2, 122363, Note_on_c, 0, 75, 56
2, 122383, Note_on_c, 0, 72, 0
2, 122567, Note_on_c, 0, 56, 0
2, 122591, Note_on_c, 0, 55, 43
2, 122597, Note_on_c, 0, 77, 58
2, 122604, Note_on_c, 0, 75, 0
2, 122642, Control_c, 0, 64, 54
2, 122717, Control_c, 0, 64, 54
2, 122763, Control_c, 0, 64, 55
2, 122824, Control_c, 0, 64, 55
2, 122850, Note_on_c, 0, 79, 57
2, 122881, Note_on_c, 0, 77, 0
2, 122900, Control_c, 0, 64, 56
2, 123098, Note_on_c, 0, 55, 0
2, 123125, Note_on_c, 0, 80, 63
2, 123130, Note_on_c, 0, 65, 59
2, 123149, Note_on_c, 0, 53, 33
2, 123173, Note_on_c, 0, 79, 0
2, 123182, Note_on_c, 0, 60, 0
2, 123393, Note_on_c, 0, 72, 51
2, 123425, Control_c, 0, 64, 55
2, 123455, Control_c, 0, 64, 55
2, 123470, Control_c, 0, 64, 54
2, 123486, Control_c, 0, 64, 54
2, 123501, Control_c, 0, 64, 53
2, 123515, Control_c, 0, 64, 52
2, 123546, Control_c, 0, 64, 52
2, 123577, Control_c, 0, 64, 51
2, 123611, Note_on_c, 0, 80, 0
2, 123634, Note_on_c, 0, 62, 45
2, 123636, Note_on_c, 0, 71, 49
2, 123637, Control_c, 0, 64, 53
2, 123653, Control_c, 0, 64, 56
2, 123664, Note_on_c, 0, 72, 0
2, 123668, Control_c, 0, 64, 58
2, 123683, Control_c, 0, 64, 60
2, 123698, Control_c, 0, 64, 62
2, 123713, Control_c, 0, 64, 65
2, 123729, Control_c, 0, 64, 69
2, 123744, Control_c, 0, 64, 74
2, 123759, Control_c, 0, 64, 82
2, 123775, Control_c, 0, 64, 92
2, 123790, Control_c, 0, 64, 104
2, 123790, Note_on_c, 0, 53, 0
2, 123805, Control_c, 0, 64, 127
2, 123843, Note_on_c, 0, 62, 0
2, 123883, Note_on_c, 0, 69, 57
2, 123889, Note_on_c, 0, 71, 0
2, 124071, Control_c, 0, 64, 117
2, 124087, Control_c, 0, 64, 107
2, 124102, Control_c, 0, 64, 97
2, 124117, Control_c, 0, 64, 85
2, 124127, Note_on_c, 0, 63, 53
2, 124133, Control_c, 0, 64, 75
2, 124139, Note_on_c, 0, 71, 45
2, 124144, Note_on_c, 0, 55, 40
2, 124148, Control_c, 0, 64, 66
2, 124153, Note_on_c, 0, 69, 0
2, 124163, Control_c, 0, 64, 58
2, 124175, Note_on_c, 0, 65, 0
2, 124178, Control_c, 0, 64, 48
2, 124193, Control_c, 0, 64, 45
2, 124224, Control_c, 0, 64, 46
2, 124238, Control_c, 0, 64, 49
2, 124254, Control_c, 0, 64, 53
2, 124269, Control_c, 0, 64, 56
2, 124284, Control_c, 0, 64, 59
2, 124299, Control_c, 0, 64, 61
2, 124314, Control_c, 0, 64, 63
2, 124330, Control_c, 0, 64, 64
2, 124345, Control_c, 0, 64, 66
2, 124359, Control_c, 0, 64, 68
2, 124375, Control_c, 0, 64, 71
2, 124390, Control_c, 0, 64, 75
2, 124392, Note_on_c, 0, 79, 51
2, 124406, Control_c, 0, 64, 79
2, 124421, Control_c, 0, 64, 82
2, 124431, Note_on_c, 0, 71, 0
2, 124435, Control_c, 0, 64, 84
2, 124436, Note_on_c, 0, 55, 0
2, 124451, Control_c, 0, 64, 85
2, 124466, Control_c, 0, 64, 86
2, 124557, Control_c, 0, 64, 85
2, 124573, Control_c, 0, 64, 85
2, 124588, Control_c, 0, 64, 83
2, 124604, Control_c, 0, 64, 78
2, 124618, Control_c, 0, 64, 71
2, 124631, Note_on_c, 0, 79, 0
2, 124633, Control_c, 0, 64, 65
2, 124634, Note_on_c, 0, 57, 42
2, 124634, Note_on_c, 0, 77, 51
2, 124649, Note_on_c, 0, 62, 45
2, 124656, Control_c, 0, 64, 61
2, 124671, Control_c, 0, 64, 56
2, 124677, Note_on_c, 0, 63, 0
2, 124687, Control_c, 0, 64, 54
2, 124701, Control_c, 0, 64, 53
2, 124779, Control_c, 0, 64, 53
2, 124794, Control_c, 0, 64, 52
2, 124856, Note_on_c, 0, 57, 0
2, 124879, Note_on_c, 0, 59, 42
2, 124894, Note_on_c, 0, 79, 51
2, 124915, Control_c, 0, 64, 52
2, 124922, Note_on_c, 0, 77, 0
2, 124946, Control_c, 0, 64, 51
2, 124991, Control_c, 0, 64, 51
2, 125007, Control_c, 0, 64, 50
2, 125022, Control_c, 0, 64, 50
2, 125037, Control_c, 0, 64, 49
2, 125053, Control_c, 0, 64, 47
2, 125068, Control_c, 0, 64, 45
2, 125083, Control_c, 0, 64, 43
2, 125098, Control_c, 0, 64, 42
2, 125113, Control_c, 0, 64, 41
2, 125118, Note_on_c, 0, 59, 0
2, 125128, Control_c, 0, 64, 39
2, 125143, Control_c, 0, 64, 37
2, 125144, Note_on_c, 0, 79, 0
2, 125150, Note_on_c, 0, 60, 40
2, 125158, Control_c, 0, 64, 34
2, 125159, Note_on_c, 0, 62, 0
2, 125172, Note_on_c, 0, 75, 45
2, 125174, Control_c, 0, 64, 32
2, 125179, Note_on_c, 0, 63, 32
2, 125234, Control_c, 0, 64, 37
2, 125250, Control_c, 0, 64, 45
2, 125264, Control_c, 0, 64, 52
2, 125279, Control_c, 0, 64, 56
2, 125295, Control_c, 0, 64, 59
2, 125310, Control_c, 0, 64, 61
2, 125326, Control_c, 0, 64, 63
2, 125340, Control_c, 0, 64, 65
2, 125355, Control_c, 0, 64, 67
2, 125371, Control_c, 0, 64, 70
2, 125383, Note_on_c, 0, 60, 0
2, 125386, Control_c, 0, 64, 73
2, 125402, Control_c, 0, 64, 77
2, 125424, Control_c, 0, 64, 81
2, 125429, Note_on_c, 0, 62, 41
2, 125439, Control_c, 0, 64, 84
2, 125442, Note_on_c, 0, 63, 0
2, 125445, Note_on_c, 0, 75, 0
2, 125455, Control_c, 0, 64, 86
2, 125469, Control_c, 0, 64, 87
2, 125545, Control_c, 0, 64, 86
2, 125561, Control_c, 0, 64, 86
2, 125577, Control_c, 0, 64, 85
2, 125592, Control_c, 0, 64, 83
2, 125608, Control_c, 0, 64, 82
2, 125623, Control_c, 0, 64, 80
2, 125638, Control_c, 0, 64, 78
2, 125653, Control_c, 0, 64, 76
2, 125668, Control_c, 0, 64, 74
2, 125684, Control_c, 0, 64, 73
2, 125699, Control_c, 0, 64, 72
2, 125714, Control_c, 0, 64, 71
2, 125715, Note_on_c, 0, 72, 53
2, 125727, Note_on_c, 0, 63, 28
2, 125729, Control_c, 0, 64, 69
2, 125744, Control_c, 0, 64, 68
2, 125757, Note_on_c, 0, 62, 0
2, 125759, Control_c, 0, 64, 66
2, 125774, Control_c, 0, 64, 65
2, 125789, Control_c, 0, 64, 64
2, 125805, Control_c, 0, 64, 62
2, 125820, Control_c, 0, 64, 61
2, 125835, Control_c, 0, 64, 59
2, 125851, Control_c, 0, 64, 58
2, 125866, Control_c, 0, 64, 56
2, 125882, Control_c, 0, 64, 55
2, 125896, Control_c, 0, 64, 54
2, 125911, Control_c, 0, 64, 52
2, 125927, Control_c, 0, 64, 51
2, 125942, Control_c, 0, 64, 50
2, 125957, Control_c, 0, 64, 49
2, 125962, Note_on_c, 0, 65, 35
2, 125972, Control_c, 0, 64, 47
2, 125976, Note_on_c, 0, 63, 0
2, 125985, Control_c, 0, 64, 46
2, 126001, Control_c, 0, 64, 45
2, 126016, Control_c, 0, 64, 44
2, 126031, Control_c, 0, 64, 44
2, 126047, Control_c, 0, 64, 43
2, 126062, Control_c, 0, 64, 42
2, 126077, Control_c, 0, 64, 42
2, 126107, Control_c, 0, 64, 41
2, 126123, Control_c, 0, 64, 40
2, 126138, Control_c, 0, 64, 39
2, 126153, Control_c, 0, 64, 38
2, 126190, Control_c, 0, 64, 38
2, 126206, Control_c, 0, 64, 37
2, 126214, Note_on_c, 0, 70, 59
2, 126221, Control_c, 0, 64, 36
2, 126223, Note_on_c, 0, 65, 0
2, 126233, Note_on_c, 0, 67, 43
2, 126252, Control_c, 0, 64, 36
2, 126266, Control_c, 0, 64, 35
2, 126297, Control_c, 0, 64, 35
2, 126315, Note_on_c, 0, 72, 0
2, 126343, Control_c, 0, 64, 34
2, 126434, Control_c, 0, 64, 34
2, 126464, Note_on_c, 0, 67, 0
2, 126481, Control_c, 0, 64, 33
2, 126486, Note_on_c, 0, 63, 43
2, 126723, Note_on_c, 0, 63, 0
2, 126728, Note_on_c, 0, 72, 64
2, 126762, Note_on_c, 0, 62, 43
2, 126856, Note_on_c, 0, 70, 0
2, 126981, Note_on_c, 0, 62, 0
2, 126995, Note_on_c, 0, 60, 48
2, 127234, Control_c, 0, 64, 31
2, 127249, Control_c, 0, 64, 24
2, 127251, Note_on_c, 0, 74, 67
2, 127257, Note_on_c, 0, 60, 0
2, 127264, Control_c, 0, 64, 0
2, 127282, Note_on_c, 0, 58, 35
2, 127342, Note_on_c, 0, 72, 0
2, 127371, Control_c, 0, 64, 9
2, 127385, Control_c, 0, 64, 34
2, 127401, Control_c, 0, 64, 46
2, 127416, Control_c, 0, 64, 53
2, 127431, Control_c, 0, 64, 58
2, 127447, Control_c, 0, 64, 61
2, 127462, Control_c, 0, 64, 65
2, 127477, Control_c, 0, 64, 68
2, 127493, Control_c, 0, 64, 72
2, 127498, Note_on_c, 0, 58, 0
2, 127508, Control_c, 0, 64, 77
2, 127514, Note_on_c, 0, 57, 44
2, 127514, Note_on_c, 0, 74, 0
2, 127524, Control_c, 0, 64, 82
2, 127538, Control_c, 0, 64, 87
2, 127553, Control_c, 0, 64, 95
2, 127569, Control_c, 0, 64, 102
2, 127583, Control_c, 0, 64, 109
2, 127598, Control_c, 0, 64, 112
2, 127614, Control_c, 0, 64, 113
2, 127629, Control_c, 0, 64, 115
2, 127645, Control_c, 0, 64, 121
2, 127659, Control_c, 0, 64, 127
2, 127743, Control_c, 0, 64, 123
2, 127758, Control_c, 0, 64, 118
2, 127774, Control_c, 0, 64, 114
2, 127776, Note_on_c, 0, 57, 0
2, 127779, Note_on_c, 0, 67, 67
2, 127780, Note_on_c, 0, 58, 52
2, 127784, Note_on_c, 0, 79, 68
2, 127789, Control_c, 0, 64, 106
2, 127804, Control_c, 0, 64, 93
2, 127819, Control_c, 0, 64, 79
2, 127834, Control_c, 0, 64, 68
2, 127850, Control_c, 0, 64, 58
2, 127865, Control_c, 0, 64, 46
2, 127879, Control_c, 0, 64, 39
2, 127895, Control_c, 0, 64, 38
2, 127926, Control_c, 0, 64, 41
2, 127941, Control_c, 0, 64, 49
2, 127955, Control_c, 0, 64, 56
2, 127971, Control_c, 0, 64, 60
2, 127986, Control_c, 0, 64, 62
2, 128002, Control_c, 0, 64, 64
2, 128016, Control_c, 0, 64, 66
2, 128032, Control_c, 0, 64, 70
2, 128048, Control_c, 0, 64, 74
2, 128063, Control_c, 0, 64, 81
2, 128078, Control_c, 0, 64, 90
2, 128082, Note_on_c, 0, 79, 0
2, 128093, Control_c, 0, 64, 103
2, 128108, Control_c, 0, 64, 127
2, 128290, Note_on_c, 0, 67, 0
2, 128306, Control_c, 0, 64, 118
2, 128315, Note_on_c, 0, 76, 69
2, 128322, Control_c, 0, 64, 105
2, 128322, Note_on_c, 0, 72, 60
2, 128336, Control_c, 0, 64, 95
2, 128351, Control_c, 0, 64, 88
2, 128367, Control_c, 0, 64, 82
2, 128382, Control_c, 0, 64, 77
2, 128397, Control_c, 0, 64, 72
2, 128413, Control_c, 0, 64, 67
2, 128427, Control_c, 0, 64, 64
2, 128443, Control_c, 0, 64, 61
2, 128458, Control_c, 0, 64, 59
2, 128473, Control_c, 0, 64, 57
2, 128496, Control_c, 0, 64, 55
2, 128510, Control_c, 0, 64, 54
2, 128526, Control_c, 0, 64, 53
2, 128541, Control_c, 0, 64, 52
2, 128556, Control_c, 0, 64, 51
2, 128566, Note_on_c, 0, 58, 0
2, 128571, Note_on_c, 0, 57, 48
2, 128572, Control_c, 0, 64, 51
2, 128587, Control_c, 0, 64, 50
2, 128603, Control_c, 0, 64, 49
2, 128618, Control_c, 0, 64, 49
2, 128633, Control_c, 0, 64, 48
2, 128648, Control_c, 0, 64, 48
2, 128663, Control_c, 0, 64, 47
2, 128678, Control_c, 0, 64, 47
2, 128694, Control_c, 0, 64, 46
2, 128709, Control_c, 0, 64, 44
2, 128724, Control_c, 0, 64, 42
2, 128739, Control_c, 0, 64, 36
2, 128754, Control_c, 0, 64, 26
2, 128769, Control_c, 0, 64, 0
2, 128808, Note_on_c, 0, 57, 0
2, 128813, Note_on_c, 0, 78, 71
2, 128835, Note_on_c, 0, 62, 39
2, 128835, Note_on_c, 0, 70, 40
2, 128869, Note_on_c, 0, 72, 0
2, 128875, Note_on_c, 0, 76, 0
2, 128876, Control_c, 0, 64, 29
2, 128892, Control_c, 0, 64, 44
2, 128907, Control_c, 0, 64, 51
2, 128923, Control_c, 0, 64, 56
2, 128938, Control_c, 0, 64, 59
2, 128952, Control_c, 0, 64, 62
2, 128968, Control_c, 0, 64, 64
2, 128985, Control_c, 0, 64, 66
2, 128996, Note_on_c, 0, 70, 0
2, 129001, Control_c, 0, 64, 69
2, 129016, Control_c, 0, 64, 72
2, 129030, Control_c, 0, 64, 75
2, 129046, Control_c, 0, 64, 78
2, 129061, Control_c, 0, 64, 80
2, 129063, Note_on_c, 0, 78, 0
2, 129064, Note_on_c, 0, 69, 57
2, 129065, Note_on_c, 0, 60, 44
2, 129076, Control_c, 0, 64, 83
2, 129080, Note_on_c, 0, 62, 0
2, 129091, Control_c, 0, 64, 84
2, 129106, Control_c, 0, 64, 85
2, 129281, Control_c, 0, 64, 84
2, 129296, Control_c, 0, 64, 84
2, 129311, Control_c, 0, 64, 83
2, 129320, Note_on_c, 0, 70, 60
2, 129323, Note_on_c, 0, 79, 67
2, 129327, Control_c, 0, 64, 80
2, 129342, Control_c, 0, 64, 75
2, 129351, Note_on_c, 0, 58, 40
2, 129357, Control_c, 0, 64, 67
2, 129364, Note_on_c, 0, 69, 0
2, 129372, Control_c, 0, 64, 58
2, 129376, Note_on_c, 0, 60, 0
2, 129387, Control_c, 0, 64, 47
2, 129403, Control_c, 0, 64, 37
2, 129418, Control_c, 0, 64, 30
2, 129433, Control_c, 0, 64, 29
2, 129463, Control_c, 0, 64, 33
2, 129479, Control_c, 0, 64, 43
2, 129494, Control_c, 0, 64, 51
2, 129509, Control_c, 0, 64, 56
2, 129525, Control_c, 0, 64, 59
2, 129540, Control_c, 0, 64, 62
2, 129552, Note_on_c, 0, 79, 0
2, 129556, Control_c, 0, 64, 64
2, 129570, Control_c, 0, 64, 67
2, 129577, Note_on_c, 0, 70, 0
2, 129582, Note_on_c, 0, 58, 0
2, 129585, Control_c, 0, 64, 69
2, 129587, Note_on_c, 0, 55, 44
2, 129601, Control_c, 0, 64, 73
2, 129615, Control_c, 0, 64, 77
2, 129630, Control_c, 0, 64, 81
2, 129646, Control_c, 0, 64, 85
2, 129662, Control_c, 0, 64, 88
2, 129678, Control_c, 0, 64, 90
2, 129693, Control_c, 0, 64, 91
2, 129708, Control_c, 0, 64, 92
2, 129723, Control_c, 0, 64, 92
2, 129784, Control_c, 0, 64, 92
2, 129843, Control_c, 0, 64, 91
2, 129858, Control_c, 0, 64, 91
2, 129869, Note_on_c, 0, 72, 63
2, 129871, Note_on_c, 0, 60, 68
2, 129873, Control_c, 0, 64, 88
2, 129876, Note_on_c, 0, 68, 52
2, 129886, Note_on_c, 0, 55, 0
2, 129889, Control_c, 0, 64, 83
2, 129904, Control_c, 0, 64, 74
2, 129920, Control_c, 0, 64, 65
2, 129934, Control_c, 0, 64, 55
2, 129949, Control_c, 0, 64, 41
2, 129965, Control_c, 0, 64, 39
2, 129980, Control_c, 0, 64, 39
2, 129996, Control_c, 0, 64, 42
2, 130011, Control_c, 0, 64, 47
2, 130033, Control_c, 0, 64, 52
2, 130048, Control_c, 0, 64, 56
2, 130063, Control_c, 0, 64, 59
2, 130079, Control_c, 0, 64, 61
2, 130094, Control_c, 0, 64, 62
2, 130109, Control_c, 0, 64, 64
2, 130124, Control_c, 0, 64, 65
2, 130139, Control_c, 0, 64, 68
2, 130139, Note_on_c, 0, 72, 0
2, 130142, Note_on_c, 0, 67, 57
2, 130155, Control_c, 0, 64, 71
2, 130162, Note_on_c, 0, 68, 0
2, 130170, Control_c, 0, 64, 75
2, 130185, Control_c, 0, 64, 79
2, 130201, Control_c, 0, 64, 84
2, 130216, Control_c, 0, 64, 89
2, 130231, Control_c, 0, 64, 95
2, 130246, Control_c, 0, 64, 101
2, 130261, Control_c, 0, 64, 108
2, 130277, Control_c, 0, 64, 121
2, 130292, Control_c, 0, 64, 127
2, 130368, Control_c, 0, 64, 102
2, 130383, Control_c, 0, 64, 80
2, 130393, Note_on_c, 0, 77, 74
2, 130395, Note_on_c, 0, 72, 66
2, 130397, Note_on_c, 0, 67, 0
2, 130399, Control_c, 0, 64, 66
2, 130400, Note_on_c, 0, 57, 66
2, 130413, Control_c, 0, 64, 54
2, 130420, Note_on_c, 0, 60, 0
2, 130428, Control_c, 0, 64, 47
2, 130444, Control_c, 0, 64, 49
2, 130458, Control_c, 0, 64, 52
2, 130473, Control_c, 0, 64, 58
2, 130484, Note_on_c, 0, 72, 0
2, 130490, Control_c, 0, 64, 61
2, 130505, Control_c, 0, 64, 63
2, 130519, Note_on_c, 0, 77, 0
2, 130521, Control_c, 0, 64, 65
2, 130536, Control_c, 0, 64, 67
2, 130551, Control_c, 0, 64, 69
2, 130566, Control_c, 0, 64, 71
2, 130581, Control_c, 0, 64, 74
2, 130598, Control_c, 0, 64, 78
2, 130613, Control_c, 0, 64, 83
2, 130628, Control_c, 0, 64, 89
2, 130643, Control_c, 0, 64, 95
2, 130658, Control_c, 0, 64, 101
2, 130664, Note_on_c, 0, 60, 55
2, 130673, Control_c, 0, 64, 107
2, 130688, Control_c, 0, 64, 113
2, 130703, Control_c, 0, 64, 127
2, 130780, Note_on_c, 0, 60, 0
2, 130893, Control_c, 0, 64, 116
2, 130908, Control_c, 0, 64, 107
2, 130912, Note_on_c, 0, 67, 57
2, 130919, Note_on_c, 0, 59, 67
2, 130919, Note_on_c, 0, 75, 62
2, 130924, Control_c, 0, 64, 97
2, 130939, Control_c, 0, 64, 87
2, 130955, Control_c, 0, 64, 80
2, 130969, Control_c, 0, 64, 75
2, 130972, Note_on_c, 0, 57, 0
2, 130984, Control_c, 0, 64, 71
2, 131000, Control_c, 0, 64, 68
2, 131015, Control_c, 0, 64, 65
2, 131030, Control_c, 0, 64, 62
2, 131045, Control_c, 0, 64, 61
2, 131060, Control_c, 0, 64, 60
2, 131091, Control_c, 0, 64, 60
2, 131105, Control_c, 0, 64, 59
2, 131121, Control_c, 0, 64, 59
2, 131136, Control_c, 0, 64, 58
2, 131158, Note_on_c, 0, 75, 0
2, 131165, Note_on_c, 0, 74, 61
2, 131167, Control_c, 0, 64, 58
2, 131182, Control_c, 0, 64, 57
2, 131198, Control_c, 0, 64, 56
2, 131212, Control_c, 0, 64, 56
2, 131227, Control_c, 0, 64, 55
2, 131243, Control_c, 0, 64, 54
2, 131258, Control_c, 0, 64, 53
2, 131273, Control_c, 0, 64, 53
2, 131289, Control_c, 0, 64, 52
2, 131304, Control_c, 0, 64, 52
2, 131350, Control_c, 0, 64, 51
2, 131435, Note_on_c, 0, 67, 0
2, 131435, Note_on_c, 0, 75, 66
2, 131436, Note_on_c, 0, 60, 65
2, 131475, Note_on_c, 0, 59, 0
2, 131476, Note_on_c, 0, 74, 0
2, 131671, Note_on_c, 0, 67, 60
2, 131678, Control_c, 0, 64, 52
2, 131707, Control_c, 0, 64, 52
2, 131737, Control_c, 0, 64, 53
2, 131768, Control_c, 0, 64, 53
2, 131799, Control_c, 0, 64, 54
2, 131828, Control_c, 0, 64, 54
2, 131850, Note_on_c, 0, 75, 0
2, 131873, Control_c, 0, 64, 55
2, 131920, Control_c, 0, 64, 55
2, 131947, Note_on_c, 0, 69, 57
2, 131948, Note_on_c, 0, 53, 75
2, 131949, Note_on_c, 0, 67, 0
2, 131980, Control_c, 0, 64, 56
2, 132012, Note_on_c, 0, 60, 0
2, 132193, Control_c, 0, 64, 56
2, 132197, Note_on_c, 0, 75, 67
2, 132270, Control_c, 0, 64, 57
2, 132457, Note_on_c, 0, 70, 66
2, 132460, Note_on_c, 0, 74, 72
2, 132461, Note_on_c, 0, 69, 0
2, 132468, Note_on_c, 0, 75, 0
2, 132477, Note_on_c, 0, 58, 61
2, 132505, Control_c, 0, 64, 56
2, 132522, Note_on_c, 0, 53, 0
2, 132567, Control_c, 0, 64, 56
2, 132706, Note_on_c, 0, 72, 42
2, 132712, Note_on_c, 0, 70, 0
2, 132949, Note_on_c, 0, 76, 69
2, 132952, Note_on_c, 0, 73, 59
2, 132964, Note_on_c, 0, 56, 52
2, 132972, Note_on_c, 0, 72, 0
2, 132998, Note_on_c, 0, 74, 0
2, 133001, Note_on_c, 0, 58, 0
2, 133007, Control_c, 0, 64, 55
2, 133167, Control_c, 0, 64, 55
2, 133198, Note_on_c, 0, 56, 0
2, 133207, Note_on_c, 0, 55, 58
2, 133448, Note_on_c, 0, 55, 0
2, 133461, Note_on_c, 0, 77, 74
2, 133466, Note_on_c, 0, 57, 54
2, 133511, Note_on_c, 0, 76, 0
2, 133522, Note_on_c, 0, 73, 0
2, 133532, Control_c, 0, 64, 54
2, 133744, Control_c, 0, 64, 55
2, 133747, Note_on_c, 0, 72, 45
2, 133760, Control_c, 0, 64, 56
2, 133775, Control_c, 0, 64, 58
2, 133789, Control_c, 0, 64, 60
2, 133805, Control_c, 0, 64, 62
2, 133820, Control_c, 0, 64, 63
2, 133836, Control_c, 0, 64, 64
2, 133851, Control_c, 0, 64, 66
2, 133873, Control_c, 0, 64, 68
2, 133889, Control_c, 0, 64, 70
2, 133904, Control_c, 0, 64, 72
2, 133920, Control_c, 0, 64, 73
2, 133935, Control_c, 0, 64, 75
2, 133949, Control_c, 0, 64, 76
2, 133980, Control_c, 0, 64, 74
2, 133981, Note_on_c, 0, 57, 0
2, 133993, Note_on_c, 0, 77, 0
2, 133995, Control_c, 0, 64, 71
2, 133995, Note_on_c, 0, 70, 68
2, 134010, Control_c, 0, 64, 66
2, 134016, Note_on_c, 0, 62, 43
2, 134025, Control_c, 0, 64, 63
2, 134041, Control_c, 0, 64, 59
2, 134056, Control_c, 0, 64, 55
2, 134071, Control_c, 0, 64, 54
2, 134101, Control_c, 0, 64, 55
2, 134117, Control_c, 0, 64, 57
2, 134132, Control_c, 0, 64, 58
2, 134147, Control_c, 0, 64, 60
2, 134163, Control_c, 0, 64, 61
2, 134178, Control_c, 0, 64, 61
2, 134192, Control_c, 0, 64, 62
2, 134208, Control_c, 0, 64, 63
2, 134223, Control_c, 0, 64, 64
2, 134228, Note_on_c, 0, 72, 0
2, 134239, Control_c, 0, 64, 65
2, 134240, Note_on_c, 0, 68, 58
2, 134254, Control_c, 0, 64, 65
2, 134268, Control_c, 0, 64, 66
2, 134284, Control_c, 0, 64, 67
2, 134299, Control_c, 0, 64, 68
2, 134315, Control_c, 0, 64, 68
2, 134330, Control_c, 0, 64, 69
2, 134344, Control_c, 0, 64, 70
2, 134360, Control_c, 0, 64, 70
2, 134420, Control_c, 0, 64, 71
2, 134452, Control_c, 0, 64, 70
2, 134467, Control_c, 0, 64, 68
2, 134482, Control_c, 0, 64, 64
2, 134488, Note_on_c, 0, 75, 66
2, 134490, Note_on_c, 0, 70, 0
2, 134492, Note_on_c, 0, 67, 51
2, 134497, Control_c, 0, 64, 57
2, 134512, Control_c, 0, 64, 42
2, 134528, Control_c, 0, 64, 23
2, 134535, Note_on_c, 0, 68, 0
2, 134543, Control_c, 0, 64, 20
2, 134574, Control_c, 0, 64, 28
2, 134589, Control_c, 0, 64, 42
2, 134605, Control_c, 0, 64, 51
2, 134620, Control_c, 0, 64, 55
2, 134643, Control_c, 0, 64, 57
2, 134658, Control_c, 0, 64, 59
2, 134673, Control_c, 0, 64, 60
2, 134689, Control_c, 0, 64, 62
2, 134704, Control_c, 0, 64, 63
2, 134717, Note_on_c, 0, 62, 0
2, 134719, Control_c, 0, 64, 64
2, 134734, Control_c, 0, 64, 66
2, 134743, Note_on_c, 0, 60, 40
2, 134749, Control_c, 0, 64, 67
2, 134765, Control_c, 0, 64, 68
2, 134780, Control_c, 0, 64, 69
2, 134795, Control_c, 0, 64, 70
2, 134810, Control_c, 0, 64, 71
2, 134825, Control_c, 0, 64, 72
2, 134840, Control_c, 0, 64, 72
2, 134855, Control_c, 0, 64, 73
2, 134886, Control_c, 0, 64, 73
2, 134931, Control_c, 0, 64, 72
2, 134946, Control_c, 0, 64, 71
2, 134962, Control_c, 0, 64, 67
2, 134973, Note_on_c, 0, 74, 57
2, 134977, Control_c, 0, 64, 62
2, 134979, Note_on_c, 0, 65, 45
2, 134980, Note_on_c, 0, 60, 0
2, 134983, Note_on_c, 0, 69, 48
2, 134985, Note_on_c, 0, 75, 0
2, 134991, Control_c, 0, 64, 54
2, 135007, Control_c, 0, 64, 42
2, 135019, Note_on_c, 0, 67, 0
2, 135022, Control_c, 0, 64, 36
2, 135067, Control_c, 0, 64, 40
2, 135083, Control_c, 0, 64, 48
2, 135098, Control_c, 0, 64, 54
2, 135113, Control_c, 0, 64, 58
2, 135129, Control_c, 0, 64, 60
2, 135144, Control_c, 0, 64, 62
2, 135160, Control_c, 0, 64, 64
2, 135174, Control_c, 0, 64, 65
2, 135189, Control_c, 0, 64, 67
2, 135205, Control_c, 0, 64, 71
2, 135220, Control_c, 0, 64, 74
2, 135226, Note_on_c, 0, 63, 38
2, 135232, Note_on_c, 0, 74, 0
2, 135235, Note_on_c, 0, 72, 58
2, 135236, Control_c, 0, 64, 77
2, 135242, Note_on_c, 0, 69, 0
2, 135250, Control_c, 0, 64, 81
2, 135265, Control_c, 0, 64, 84
2, 135268, Note_on_c, 0, 65, 0
2, 135281, Control_c, 0, 64, 86
2, 135296, Control_c, 0, 64, 88
2, 135311, Control_c, 0, 64, 89
2, 135326, Control_c, 0, 64, 90
2, 135341, Control_c, 0, 64, 91
2, 135357, Control_c, 0, 64, 92
2, 135375, Note_on_c, 0, 72, 0
2, 135441, Control_c, 0, 64, 91
2, 135456, Control_c, 0, 64, 91
2, 135471, Control_c, 0, 64, 88
2, 135487, Control_c, 0, 64, 81
2, 135502, Control_c, 0, 64, 73
2, 135502, Note_on_c, 0, 62, 36
2, 135504, Note_on_c, 0, 74, 52
2, 135508, Note_on_c, 0, 70, 49
2, 135518, Control_c, 0, 64, 65
2, 135524, Note_on_c, 0, 63, 0
2, 135533, Control_c, 0, 64, 56
2, 135547, Control_c, 0, 64, 42
2, 135563, Control_c, 0, 64, 30
2, 135578, Control_c, 0, 64, 24
2, 135593, Control_c, 0, 64, 23
2, 135609, Control_c, 0, 64, 24
2, 135624, Control_c, 0, 64, 32
2, 135639, Control_c, 0, 64, 43
2, 135654, Control_c, 0, 64, 51
2, 135669, Control_c, 0, 64, 55
2, 135684, Control_c, 0, 64, 58
2, 135699, Control_c, 0, 64, 60
2, 135715, Control_c, 0, 64, 62
2, 135730, Control_c, 0, 64, 63
2, 135745, Control_c, 0, 64, 65
2, 135749, Note_on_c, 0, 62, 0
2, 135760, Control_c, 0, 64, 66
2, 135775, Control_c, 0, 64, 68
2, 135782, Note_on_c, 0, 60, 35
2, 135790, Control_c, 0, 64, 69
2, 135805, Control_c, 0, 64, 70
2, 135820, Control_c, 0, 64, 71
2, 135836, Control_c, 0, 64, 71
2, 135851, Control_c, 0, 64, 72
2, 135881, Control_c, 0, 64, 73
2, 135973, Control_c, 0, 64, 72
2, 136004, Control_c, 0, 64, 72
2, 136018, Control_c, 0, 64, 71
2, 136025, Note_on_c, 0, 67, 51
2, 136033, Control_c, 0, 64, 71
2, 136036, Note_on_c, 0, 63, 48
2, 136040, Note_on_c, 0, 61, 34
2, 136049, Control_c, 0, 64, 70
2, 136049, Note_on_c, 0, 60, 0
2, 136064, Control_c, 0, 64, 68
2, 136080, Control_c, 0, 64, 67
2, 136094, Control_c, 0, 64, 65
2, 136104, Note_on_c, 0, 74, 0
2, 136109, Control_c, 0, 64, 64
2, 136125, Control_c, 0, 64, 62
2, 136140, Control_c, 0, 64, 61
2, 136156, Control_c, 0, 64, 59
2, 136177, Control_c, 0, 64, 57
2, 136192, Control_c, 0, 64, 56
2, 136203, Note_on_c, 0, 70, 0
2, 136208, Control_c, 0, 64, 55
2, 136224, Control_c, 0, 64, 54
2, 136240, Control_c, 0, 64, 53
2, 136255, Control_c, 0, 64, 52
2, 136269, Control_c, 0, 64, 52
2, 136285, Control_c, 0, 64, 51
2, 136300, Control_c, 0, 64, 51
2, 136316, Control_c, 0, 64, 50
2, 136345, Control_c, 0, 64, 50
2, 136627, Note_on_c, 0, 75, 50
2, 136640, Note_on_c, 0, 68, 43
2, 136737, Note_on_c, 0, 67, 0
2, 136844, Note_on_c, 0, 63, 0
2, 136876, Control_c, 0, 64, 50
2, 136919, Note_on_c, 0, 60, 30
2, 136950, Note_on_c, 0, 61, 0
2, 137006, Control_c, 0, 64, 51
2, 137161, Note_on_c, 0, 67, 38
2, 137183, Note_on_c, 0, 58, 41
2, 137196, Note_on_c, 0, 60, 0
2, 137208, Note_on_c, 0, 68, 0
2, 137408, Note_on_c, 0, 56, 41
2, 137416, Note_on_c, 0, 58, 0
2, 137417, Note_on_c, 0, 65, 44
2, 137467, Note_on_c, 0, 67, 0
2, 137602, Note_on_c, 0, 75, 0
2, 137678, Note_on_c, 0, 58, 40
2, 137693, Note_on_c, 0, 56, 0
2, 137706, Note_on_c, 0, 67, 40
2, 137774, Note_on_c, 0, 65, 0
2, 137804, Control_c, 0, 64, 50
2, 137819, Control_c, 0, 64, 50
2, 137833, Control_c, 0, 64, 49
2, 137850, Control_c, 0, 64, 48
2, 137865, Control_c, 0, 64, 46
2, 137881, Control_c, 0, 64, 42
2, 137896, Control_c, 0, 64, 36
2, 137911, Control_c, 0, 64, 28
2, 137927, Control_c, 0, 64, 17
2, 137941, Control_c, 0, 64, 0
2, 137946, Note_on_c, 0, 75, 60
2, 138153, Control_c, 0, 64, 30
2, 138169, Control_c, 0, 64, 45
2, 138184, Control_c, 0, 64, 53
2, 138198, Note_on_c, 0, 59, 44
2, 138200, Control_c, 0, 64, 57
2, 138200, Note_on_c, 0, 74, 60
2, 138214, Control_c, 0, 64, 60
2, 138229, Control_c, 0, 64, 63
2, 138231, Note_on_c, 0, 58, 0
2, 138245, Control_c, 0, 64, 65
2, 138259, Note_on_c, 0, 67, 0
2, 138260, Control_c, 0, 64, 69
2, 138277, Control_c, 0, 64, 73
2, 138286, Note_on_c, 0, 59, 0
2, 138291, Control_c, 0, 64, 78
2, 138306, Control_c, 0, 64, 85
2, 138322, Control_c, 0, 64, 94
2, 138336, Control_c, 0, 64, 111
2, 138351, Control_c, 0, 64, 127
2, 138391, Note_on_c, 0, 74, 0
2, 138393, Note_on_c, 0, 75, 0
2, 138438, Note_on_c, 0, 65, 67
2, 138719, Note_on_c, 0, 55, 70
2, 138732, Note_on_c, 0, 63, 68
2, 138737, Note_on_c, 0, 60, 64
2, 138768, Note_on_c, 0, 65, 0
2, 138783, Control_c, 0, 64, 87
2, 138798, Control_c, 0, 64, 69
2, 138814, Control_c, 0, 64, 54
2, 138829, Control_c, 0, 64, 0
2, 139004, Note_on_c, 0, 72, 64
2, 139193, Control_c, 0, 64, 18
2, 139209, Control_c, 0, 64, 40
2, 139224, Control_c, 0, 64, 48
2, 139248, Control_c, 0, 64, 54
2, 139262, Control_c, 0, 64, 58
2, 139271, Note_on_c, 0, 62, 69
2, 139272, Note_on_c, 0, 60, 0
2, 139277, Control_c, 0, 64, 62
2, 139279, Note_on_c, 0, 63, 0
2, 139293, Control_c, 0, 64, 65
2, 139308, Control_c, 0, 64, 68
2, 139323, Control_c, 0, 64, 73
2, 139338, Control_c, 0, 64, 79
2, 139340, Note_on_c, 0, 55, 0
2, 139353, Control_c, 0, 64, 88
2, 139369, Control_c, 0, 64, 104
2, 139384, Control_c, 0, 64, 127
2, 139484, Note_on_c, 0, 72, 0
2, 139491, Note_on_c, 0, 71, 71
2, 139560, Note_on_c, 0, 62, 0
2, 139755, Note_on_c, 0, 72, 76
2, 139762, Note_on_c, 0, 51, 73
2, 139764, Note_on_c, 0, 60, 68
2, 139768, Note_on_c, 0, 71, 0
2, 139780, Control_c, 0, 64, 100
2, 139791, Note_on_c, 0, 55, 56
2, 139795, Control_c, 0, 64, 71
2, 139811, Control_c, 0, 64, 50
2, 139825, Control_c, 0, 64, 0
2, 139887, Control_c, 0, 64, 28
2, 139892, Note_on_c, 0, 60, 0
2, 139901, Control_c, 0, 64, 47
2, 139916, Control_c, 0, 64, 55
2, 139932, Control_c, 0, 64, 59
2, 139946, Control_c, 0, 64, 61
2, 139962, Control_c, 0, 64, 64
2, 139969, Note_on_c, 0, 72, 0
2, 139977, Control_c, 0, 64, 67
2, 139992, Control_c, 0, 64, 71
2, 140003, Note_on_c, 0, 55, 0
2, 140015, Control_c, 0, 64, 77
2, 140028, Note_on_c, 0, 60, 61
2, 140030, Control_c, 0, 64, 85
2, 140046, Control_c, 0, 64, 98
2, 140061, Control_c, 0, 64, 127
2, 140275, Note_on_c, 0, 75, 78
2, 140276, Note_on_c, 0, 79, 78
2, 140289, Note_on_c, 0, 59, 54
2, 140296, Note_on_c, 0, 60, 0
2, 140496, Note_on_c, 0, 59, 0
2, 140519, Note_on_c, 0, 60, 61
2, 140786, Note_on_c, 0, 75, 0
2, 140794, Note_on_c, 0, 68, 72
2, 140798, Note_on_c, 0, 74, 75
2, 140810, Note_on_c, 0, 53, 76
2, 140828, Control_c, 0, 64, 105
2, 140844, Control_c, 0, 64, 87
2, 140859, Control_c, 0, 64, 76
2, 140865, Note_on_c, 0, 79, 0
2, 140871, Note_on_c, 0, 51, 0
2, 140874, Control_c, 0, 64, 67
2, 140889, Control_c, 0, 64, 60
2, 140904, Control_c, 0, 64, 51
2, 140919, Control_c, 0, 64, 45
2, 140935, Control_c, 0, 64, 39
2, 140950, Control_c, 0, 64, 34
2, 140965, Control_c, 0, 64, 24
2, 140980, Control_c, 0, 64, 0
2, 141038, Note_on_c, 0, 59, 57
2, 141070, Note_on_c, 0, 60, 0
2, 141299, Note_on_c, 0, 59, 0
2, 141302, Note_on_c, 0, 60, 63
2, 141313, Note_on_c, 0, 75, 77
2, 141314, Control_c, 0, 64, 23
2, 141330, Control_c, 0, 64, 33
2, 141345, Control_c, 0, 64, 39
2, 141360, Control_c, 0, 64, 43
2, 141376, Control_c, 0, 64, 46
2, 141391, Control_c, 0, 64, 47
2, 141407, Control_c, 0, 64, 48
2, 141422, Control_c, 0, 64, 48
2, 141427, Note_on_c, 0, 74, 0
2, 141436, Control_c, 0, 64, 49
2, 141452, Control_c, 0, 64, 50
2, 141467, Control_c, 0, 64, 51
2, 141512, Control_c, 0, 64, 52
2, 141550, Control_c, 0, 64, 52
2, 141552, Note_on_c, 0, 77, 80
2, 141572, Note_on_c, 0, 75, 0
2, 141596, Control_c, 0, 64, 53
2, 141781, Control_c, 0, 64, 52
2, 141796, Control_c, 0, 64, 51
2, 141811, Control_c, 0, 64, 49
2, 141826, Control_c, 0, 64, 45
2, 141830, Note_on_c, 0, 75, 77
2, 141837, Note_on_c, 0, 55, 69
2, 141842, Control_c, 0, 64, 36
2, 141856, Control_c, 0, 64, 16
2, 141871, Control_c, 0, 64, 0
2, 141898, Note_on_c, 0, 77, 0
2, 141908, Note_on_c, 0, 53, 0
2, 141925, Note_on_c, 0, 68, 0
2, 142010, Control_c, 0, 64, 15
2, 142024, Control_c, 0, 64, 29
2, 142040, Control_c, 0, 64, 36
2, 142055, Control_c, 0, 64, 42
2, 142070, Control_c, 0, 64, 49
2, 142085, Control_c, 0, 64, 53
2, 142090, Note_on_c, 0, 67, 56
2, 142100, Control_c, 0, 64, 56
2, 142117, Control_c, 0, 64, 59
2, 142132, Control_c, 0, 64, 61
2, 142147, Control_c, 0, 64, 63
2, 142152, Note_on_c, 0, 75, 0
2, 142162, Control_c, 0, 64, 65
2, 142177, Control_c, 0, 64, 68
2, 142192, Control_c, 0, 64, 72
2, 142208, Control_c, 0, 64, 75
2, 142223, Control_c, 0, 64, 79
2, 142238, Control_c, 0, 64, 84
2, 142253, Control_c, 0, 64, 90
2, 142268, Control_c, 0, 64, 100
2, 142283, Control_c, 0, 64, 123
2, 142298, Control_c, 0, 64, 127
2, 142348, Note_on_c, 0, 74, 73
2, 142350, Note_on_c, 0, 59, 50
2, 142399, Note_on_c, 0, 67, 0
2, 142450, Note_on_c, 0, 60, 0
2, 142461, Note_on_c, 0, 55, 0
2, 142472, Note_on_c, 0, 59, 0
2, 142582, Note_on_c, 0, 65, 57
2, 142582, Note_on_c, 0, 74, 0
2, 142840, Note_on_c, 0, 48, 72
2, 142848, Note_on_c, 0, 63, 74
2, 142852, Note_on_c, 0, 60, 62
2, 142877, Note_on_c, 0, 65, 0
2, 142900, Control_c, 0, 64, 92
2, 142916, Control_c, 0, 64, 78
2, 142930, Control_c, 0, 64, 67
2, 142945, Control_c, 0, 64, 60
2, 142961, Control_c, 0, 64, 52
2, 142976, Control_c, 0, 64, 46
2, 142991, Control_c, 0, 64, 38
2, 143006, Control_c, 0, 64, 23
2, 143021, Control_c, 0, 64, 0
2, 143115, Note_on_c, 0, 72, 70
2, 143211, Control_c, 0, 64, 9
2, 143226, Control_c, 0, 64, 17
2, 143242, Control_c, 0, 64, 23
2, 143256, Control_c, 0, 64, 24
2, 143271, Control_c, 0, 64, 24
2, 143302, Control_c, 0, 64, 26
2, 143318, Control_c, 0, 64, 28
2, 143332, Control_c, 0, 64, 30
2, 143347, Control_c, 0, 64, 30
2, 143359, Note_on_c, 0, 63, 0
2, 143363, Note_on_c, 0, 64, 66
2, 143393, Control_c, 0, 64, 31
2, 143423, Control_c, 0, 64, 32
2, 143516, Control_c, 0, 64, 33
2, 143587, Note_on_c, 0, 70, 75
2, 143607, Control_c, 0, 64, 33
2, 143628, Note_on_c, 0, 72, 0
2, 143653, Control_c, 0, 64, 34
2, 143684, Control_c, 0, 64, 34
2, 143871, Note_on_c, 0, 53, 73
2, 143876, Note_on_c, 0, 68, 70
2, 143894, Note_on_c, 0, 48, 0
2, 143925, Note_on_c, 0, 70, 0
2, 143949, Control_c, 0, 64, 34
2, 144107, Note_on_c, 0, 64, 0
2, 144131, Control_c, 0, 64, 34
2, 144132, Note_on_c, 0, 65, 52
2, 144313, Control_c, 0, 64, 33
2, 144329, Control_c, 0, 64, 32
2, 144343, Control_c, 0, 64, 31
2, 144383, Note_on_c, 0, 59, 52
2, 144383, Note_on_c, 0, 68, 0
2, 144386, Note_on_c, 0, 62, 52
2, 144405, Control_c, 0, 64, 32
2, 144420, Control_c, 0, 64, 34
2, 144436, Control_c, 0, 64, 39
2, 144442, Note_on_c, 0, 60, 0
2, 144451, Control_c, 0, 64, 43
2, 144466, Control_c, 0, 64, 48
2, 144481, Control_c, 0, 64, 52
2, 144496, Control_c, 0, 64, 56
2, 144511, Control_c, 0, 64, 59
2, 144527, Control_c, 0, 64, 61
2, 144541, Control_c, 0, 64, 63
2, 144557, Control_c, 0, 64, 65
2, 144572, Control_c, 0, 64, 67
2, 144587, Control_c, 0, 64, 70
2, 144603, Control_c, 0, 64, 73
2, 144625, Control_c, 0, 64, 77
2, 144625, Note_on_c, 0, 68, 57
2, 144641, Control_c, 0, 64, 81
2, 144656, Control_c, 0, 64, 84
2, 144670, Control_c, 0, 64, 86
2, 144684, Note_on_c, 0, 62, 0
2, 144686, Control_c, 0, 64, 87
2, 144695, Note_on_c, 0, 65, 0
2, 144701, Control_c, 0, 64, 88
2, 144732, Control_c, 0, 64, 89
2, 144808, Control_c, 0, 64, 88
2, 144838, Control_c, 0, 64, 87
2, 144853, Control_c, 0, 64, 86
2, 144866, Note_on_c, 0, 51, 61
2, 144868, Control_c, 0, 64, 83
2, 144884, Control_c, 0, 64, 77
2, 144885, Note_on_c, 0, 60, 41
2, 144885, Note_on_c, 0, 67, 60
2, 144898, Control_c, 0, 64, 69
2, 144913, Control_c, 0, 64, 63
2, 144919, Note_on_c, 0, 59, 0
2, 144929, Control_c, 0, 64, 52
2, 144943, Control_c, 0, 64, 39
2, 144946, Note_on_c, 0, 53, 0
2, 144956, Note_on_c, 0, 68, 0
2, 144959, Control_c, 0, 64, 35
2, 144974, Control_c, 0, 64, 35
2, 144989, Control_c, 0, 64, 35
2, 145005, Control_c, 0, 64, 39
2, 145019, Control_c, 0, 64, 46
2, 145035, Control_c, 0, 64, 52
2, 145050, Control_c, 0, 64, 56
2, 145065, Control_c, 0, 64, 59
2, 145081, Control_c, 0, 64, 61
2, 145096, Control_c, 0, 64, 63
2, 145111, Control_c, 0, 64, 65
2, 145127, Control_c, 0, 64, 67
2, 145136, Note_on_c, 0, 63, 49
2, 145141, Control_c, 0, 64, 69
2, 145157, Control_c, 0, 64, 72
2, 145172, Control_c, 0, 64, 75
2, 145187, Control_c, 0, 64, 78
2, 145203, Control_c, 0, 64, 81
2, 145218, Control_c, 0, 64, 84
2, 145233, Control_c, 0, 64, 86
2, 145249, Control_c, 0, 64, 87
2, 145249, Note_on_c, 0, 51, 0
2, 145264, Control_c, 0, 64, 88
2, 145280, Control_c, 0, 64, 88
2, 145295, Control_c, 0, 64, 89
2, 145356, Control_c, 0, 64, 88
2, 145368, Note_on_c, 0, 50, 59
2, 145371, Control_c, 0, 64, 83
2, 145386, Note_on_c, 0, 65, 56
2, 145392, Control_c, 0, 64, 75
2, 145408, Control_c, 0, 64, 67
2, 145423, Control_c, 0, 64, 60
2, 145436, Note_on_c, 0, 63, 0
2, 145439, Control_c, 0, 64, 54
2, 145454, Control_c, 0, 64, 52
2, 145468, Control_c, 0, 64, 53
2, 145484, Control_c, 0, 64, 56
2, 145499, Control_c, 0, 64, 59
2, 145515, Control_c, 0, 64, 62
2, 145530, Control_c, 0, 64, 63
2, 145545, Control_c, 0, 64, 65
2, 145561, Control_c, 0, 64, 66
2, 145576, Control_c, 0, 64, 68
2, 145590, Control_c, 0, 64, 70
2, 145606, Control_c, 0, 64, 73
2, 145610, Note_on_c, 0, 50, 0
2, 145621, Control_c, 0, 64, 75
2, 145630, Note_on_c, 0, 59, 44
2, 145637, Control_c, 0, 64, 78
2, 145652, Control_c, 0, 64, 81
2, 145666, Control_c, 0, 64, 84
2, 145682, Control_c, 0, 64, 86
2, 145697, Control_c, 0, 64, 88
2, 145711, Control_c, 0, 64, 89
2, 145727, Control_c, 0, 64, 90
2, 145741, Note_on_c, 0, 60, 0
2, 145742, Control_c, 0, 64, 91
2, 145773, Control_c, 0, 64, 91
2, 145818, Control_c, 0, 64, 91
2, 145833, Control_c, 0, 64, 90
2, 145849, Control_c, 0, 64, 88
2, 145863, Control_c, 0, 64, 84
2, 145873, Note_on_c, 0, 51, 50
2, 145879, Control_c, 0, 64, 78
2, 145894, Control_c, 0, 64, 72
2, 145896, Note_on_c, 0, 59, 0
2, 145909, Control_c, 0, 64, 67
2, 145925, Control_c, 0, 64, 64
2, 145939, Control_c, 0, 64, 60
2, 145956, Control_c, 0, 64, 57
2, 145971, Control_c, 0, 64, 53
2, 145986, Control_c, 0, 64, 51
2, 146001, Control_c, 0, 64, 50
2, 146016, Control_c, 0, 64, 49
2, 146031, Control_c, 0, 64, 47
2, 146048, Control_c, 0, 64, 45
2, 146063, Control_c, 0, 64, 43
2, 146117, Note_on_c, 0, 55, 46
2, 146177, Control_c, 0, 64, 44
2, 146192, Control_c, 0, 64, 45
2, 146208, Control_c, 0, 64, 45
2, 146223, Control_c, 0, 64, 46
2, 146238, Control_c, 0, 64, 46
2, 146268, Control_c, 0, 64, 47
2, 146329, Control_c, 0, 64, 47
2, 146352, Note_on_c, 0, 55, 0
2, 146359, Control_c, 0, 64, 48
2, 146400, Note_on_c, 0, 63, 37
2, 146401, Note_on_c, 0, 60, 31
2, 146420, Control_c, 0, 64, 48
2, 146427, Note_on_c, 0, 65, 0
2, 146450, Control_c, 0, 64, 49
2, 146643, Note_on_c, 0, 55, 38
2, 146930, Control_c, 0, 64, 48
2, 146945, Control_c, 0, 64, 48
2, 146991, Control_c, 0, 64, 47
2, 146992, Note_on_c, 0, 56, 34
2, 146996, Note_on_c, 0, 72, 45
2, 147006, Control_c, 0, 64, 47
2, 147037, Control_c, 0, 64, 46
2, 147047, Note_on_c, 0, 55, 0
2, 147052, Note_on_c, 0, 51, 0
2, 147077, Note_on_c, 0, 63, 0
2, 147082, Control_c, 0, 64, 46
2, 147112, Control_c, 0, 64, 45
2, 147279, Control_c, 0, 64, 45
2, 147290, Note_on_c, 0, 64, 33
2, 147371, Control_c, 0, 64, 44
2, 147462, Control_c, 0, 64, 44
2, 147511, Note_on_c, 0, 60, 0
2, 147521, Control_c, 0, 64, 43
2, 147525, Note_on_c, 0, 65, 38
2, 147526, Note_on_c, 0, 58, 33
2, 147533, Note_on_c, 0, 56, 0
2, 147536, Control_c, 0, 64, 43
2, 147538, Note_on_c, 0, 64, 0
2, 147539, Note_on_c, 0, 55, 25
2, 147566, Control_c, 0, 64, 42
2, 147597, Control_c, 0, 64, 42
2, 147612, Control_c, 0, 64, 41
2, 147627, Control_c, 0, 64, 41
2, 147673, Control_c, 0, 64, 40
2, 147697, Control_c, 0, 64, 40
2, 147697, Note_on_c, 0, 67, 0
2, 147770, Note_on_c, 0, 67, 39
2, 147775, Note_on_c, 0, 65, 0
2, 147894, Control_c, 0, 64, 39
2, 147939, Control_c, 0, 64, 39
2, 147955, Control_c, 0, 64, 38
2, 147970, Control_c, 0, 64, 38
2, 147985, Control_c, 0, 64, 37
2, 148001, Control_c, 0, 64, 35
2, 148011, Note_on_c, 0, 55, 0
2, 148016, Control_c, 0, 64, 33
2, 148030, Control_c, 0, 64, 31
2, 148042, Note_on_c, 0, 56, 37
2, 148046, Control_c, 0, 64, 29
2, 148060, Note_on_c, 0, 68, 46
2, 148061, Control_c, 0, 64, 25
2, 148061, Note_on_c, 0, 53, 22
2, 148067, Note_on_c, 0, 58, 0
2, 148077, Control_c, 0, 64, 23
2, 148092, Control_c, 0, 64, 22
2, 148105, Note_on_c, 0, 67, 0
2, 148137, Control_c, 0, 64, 28
2, 148152, Control_c, 0, 64, 38
2, 148152, Control_c, 0, 67, 16
2, 148168, Control_c, 0, 64, 46
2, 148168, Control_c, 0, 67, 23
2, 148178, Note_on_c, 0, 56, 0
2, 148183, Control_c, 0, 64, 52
2, 148183, Control_c, 0, 67, 26
2, 148198, Control_c, 0, 64, 58
2, 148213, Control_c, 0, 64, 64
2, 148228, Control_c, 0, 64, 68
2, 148243, Control_c, 0, 64, 72
2, 148258, Control_c, 0, 64, 77
2, 148258, Control_c, 0, 67, 26
2, 148259, Note_on_c, 0, 53, 0
2, 148273, Control_c, 0, 64, 81
2, 148273, Control_c, 0, 67, 25
2, 148289, Control_c, 0, 64, 83
2, 148289, Control_c, 0, 67, 24
2, 148319, Control_c, 0, 67, 25
2, 148348, Note_on_c, 0, 67, 47
2, 148410, Control_c, 0, 64, 83
2, 148441, Control_c, 0, 64, 82
2, 148494, Control_c, 0, 64, 82
2, 148510, Control_c, 0, 64, 81
2, 148541, Control_c, 0, 64, 81
2, 148556, Control_c, 0, 64, 80
2, 148571, Control_c, 0, 64, 77
2, 148571, Control_c, 0, 67, 26
2, 148575, Note_on_c, 0, 67, 0
2, 148586, Control_c, 0, 64, 72
2, 148587, Note_on_c, 0, 62, 38
2, 148595, Note_on_c, 0, 65, 36
2, 148602, Control_c, 0, 64, 66
2, 148617, Control_c, 0, 64, 60
2, 148631, Control_c, 0, 64, 52
2, 148647, Control_c, 0, 64, 50
2, 148662, Control_c, 0, 64, 52
2, 148678, Control_c, 0, 64, 55
2, 148692, Control_c, 0, 64, 59
2, 148707, Control_c, 0, 64, 61
2, 148723, Control_c, 0, 64, 63
2, 148723, Control_c, 0, 67, 25
2, 148738, Control_c, 0, 64, 64
2, 148738, Control_c, 0, 67, 24
2, 148753, Control_c, 0, 64, 66
2, 148753, Control_c, 0, 67, 24
2, 148768, Control_c, 0, 64, 68
2, 148783, Control_c, 0, 64, 71
2, 148783, Control_c, 0, 67, 23
2, 148785, Note_on_c, 0, 62, 0
2, 148799, Control_c, 0, 64, 74
2, 148799, Control_c, 0, 67, 23
2, 148805, Note_on_c, 0, 65, 0
2, 148814, Control_c, 0, 64, 78
2, 148814, Control_c, 0, 67, 22
2, 148826, Note_on_c, 0, 63, 48
2, 148829, Control_c, 0, 64, 81
2, 148844, Control_c, 0, 64, 84
2, 148859, Control_c, 0, 64, 87
2, 148875, Control_c, 0, 64, 88
2, 148890, Control_c, 0, 64, 89
2, 148890, Control_c, 0, 67, 21
2, 148905, Control_c, 0, 67, 21
2, 148942, Note_on_c, 0, 63, 0
2, 148981, Control_c, 0, 64, 88
2, 148981, Control_c, 0, 67, 20
2, 148997, Control_c, 0, 64, 87
2, 148997, Control_c, 0, 67, 19
2, 149011, Control_c, 0, 64, 86
2, 149011, Control_c, 0, 67, 18
2, 149026, Control_c, 0, 64, 85
2, 149026, Control_c, 0, 67, 18
2, 149042, Control_c, 0, 64, 83
2, 149057, Control_c, 0, 64, 81
2, 149072, Control_c, 0, 64, 78
2, 149072, Control_c, 0, 67, 17
2, 149087, Control_c, 0, 64, 76
2, 149087, Control_c, 0, 67, 16
2, 149089, Note_on_c, 0, 67, 42
2, 149102, Control_c, 0, 64, 73
2, 149102, Control_c, 0, 67, 16
2, 149108, Note_on_c, 0, 62, 33
2, 149111, Note_on_c, 0, 55, 30
2, 149118, Control_c, 0, 64, 71
2, 149118, Control_c, 0, 67, 15
2, 149133, Control_c, 0, 64, 69
2, 149148, Control_c, 0, 64, 66
2, 149148, Control_c, 0, 67, 14
2, 149163, Control_c, 0, 64, 63
2, 149178, Control_c, 0, 64, 62
2, 149178, Control_c, 0, 67, 13
2, 149193, Control_c, 0, 64, 60
2, 149193, Control_c, 0, 67, 12
2, 149209, Control_c, 0, 64, 60
2, 149209, Control_c, 0, 67, 11
2, 149229, Note_on_c, 0, 68, 0
2, 149231, Control_c, 0, 64, 59
2, 149231, Control_c, 0, 67, 10
2, 149247, Control_c, 0, 64, 59
2, 149247, Control_c, 0, 67, 9
2, 149262, Control_c, 0, 67, 0
2, 149278, Control_c, 0, 64, 58
2, 149293, Control_c, 0, 64, 58
2, 149307, Control_c, 0, 64, 57
2, 149324, Control_c, 0, 64, 57
2, 149339, Control_c, 0, 64, 56
2, 149348, Note_on_c, 0, 71, 51
2, 149388, Note_on_c, 0, 72, 0
2, 149452, Note_on_c, 0, 67, 0
2, 149588, Note_on_c, 0, 57, 38
2, 149597, Note_on_c, 0, 72, 56
2, 149604, Note_on_c, 0, 65, 44
2, 149611, Note_on_c, 0, 55, 0
2, 149615, Note_on_c, 0, 71, 0
2, 149795, Note_on_c, 0, 57, 0
2, 149814, Note_on_c, 0, 72, 0
2, 149825, Note_on_c, 0, 74, 56
2, 149827, Note_on_c, 0, 59, 42
2, 149947, Control_c, 0, 64, 56
2, 150001, Control_c, 0, 64, 55
2, 150030, Control_c, 0, 64, 55
2, 150061, Note_on_c, 0, 74, 0
2, 150115, Note_on_c, 0, 59, 0
2, 150119, Note_on_c, 0, 67, 54
2, 150120, Note_on_c, 0, 60, 35
2, 150122, Control_c, 0, 64, 56
2, 150137, Control_c, 0, 64, 57
2, 150153, Control_c, 0, 64, 59
2, 150158, Note_on_c, 0, 62, 0
2, 150168, Control_c, 0, 64, 61
2, 150183, Control_c, 0, 64, 62
2, 150199, Control_c, 0, 64, 64
2, 150214, Control_c, 0, 64, 66
2, 150229, Control_c, 0, 64, 68
2, 150245, Control_c, 0, 64, 71
2, 150260, Control_c, 0, 64, 76
2, 150275, Control_c, 0, 64, 81
2, 150290, Control_c, 0, 64, 88
2, 150305, Control_c, 0, 64, 95
2, 150321, Control_c, 0, 64, 105
2, 150336, Control_c, 0, 64, 119
2, 150351, Control_c, 0, 64, 127
2, 150430, Note_on_c, 0, 63, 64
2, 150446, Note_on_c, 0, 60, 0
2, 150456, Note_on_c, 0, 67, 0
2, 150471, Note_on_c, 0, 65, 0
2, 150723, Note_on_c, 0, 68, 83
2, 150730, Note_on_c, 0, 60, 71
2, 150731, Control_c, 0, 64, 121
2, 150731, Note_on_c, 0, 48, 74
2, 150745, Control_c, 0, 64, 94
2, 150769, Control_c, 0, 64, 75
2, 150783, Control_c, 0, 64, 65
2, 150799, Control_c, 0, 64, 54
2, 150805, Note_on_c, 0, 63, 0
2, 150814, Control_c, 0, 64, 44
2, 150829, Control_c, 0, 64, 43
2, 150859, Control_c, 0, 64, 45
2, 150875, Control_c, 0, 64, 48
2, 150890, Control_c, 0, 64, 52
2, 150905, Control_c, 0, 64, 56
2, 150920, Control_c, 0, 64, 60
2, 150935, Control_c, 0, 64, 62
2, 150950, Control_c, 0, 64, 64
2, 150965, Note_on_c, 0, 48, 0
2, 150967, Control_c, 0, 64, 66
2, 150982, Control_c, 0, 64, 70
2, 150985, Note_on_c, 0, 65, 69
2, 150998, Control_c, 0, 64, 74
2, 151012, Control_c, 0, 64, 80
2, 151027, Control_c, 0, 64, 88
2, 151029, Note_on_c, 0, 60, 0
2, 151043, Control_c, 0, 64, 98
2, 151058, Control_c, 0, 64, 117
2, 151073, Control_c, 0, 64, 127
2, 151103, Note_on_c, 0, 68, 0
2, 151244, Note_on_c, 0, 47, 77
2, 151245, Note_on_c, 0, 67, 77
2, 151253, Note_on_c, 0, 62, 62
2, 151256, Control_c, 0, 64, 104
2, 151271, Control_c, 0, 64, 82
2, 151287, Control_c, 0, 64, 68
2, 151292, Note_on_c, 0, 65, 0
2, 151301, Control_c, 0, 64, 56
2, 151317, Control_c, 0, 64, 30
2, 151331, Control_c, 0, 64, 0
2, 151407, Control_c, 0, 64, 19
2, 151421, Control_c, 0, 64, 35
2, 151437, Control_c, 0, 64, 47
2, 151452, Control_c, 0, 64, 53
2, 151467, Control_c, 0, 64, 57
2, 151483, Control_c, 0, 64, 61
2, 151491, Note_on_c, 0, 65, 71
2, 151493, Note_on_c, 0, 47, 0
2, 151498, Control_c, 0, 64, 63
2, 151513, Control_c, 0, 64, 65
2, 151536, Control_c, 0, 64, 68
2, 151541, Note_on_c, 0, 67, 0
2, 151550, Control_c, 0, 64, 71
2, 151566, Control_c, 0, 64, 75
2, 151581, Control_c, 0, 64, 80
2, 151597, Control_c, 0, 64, 85
2, 151612, Control_c, 0, 64, 92
2, 151626, Control_c, 0, 64, 101
2, 151642, Control_c, 0, 64, 110
2, 151657, Control_c, 0, 64, 127
2, 151737, Note_on_c, 0, 48, 76
2, 151745, Note_on_c, 0, 60, 70
2, 151748, Control_c, 0, 64, 119
2, 151751, Note_on_c, 0, 63, 74
2, 151764, Control_c, 0, 64, 89
2, 151779, Control_c, 0, 64, 71
2, 151785, Note_on_c, 0, 62, 0
2, 151795, Control_c, 0, 64, 60
2, 151810, Control_c, 0, 64, 44
2, 151825, Control_c, 0, 64, 42
2, 151841, Control_c, 0, 64, 42
2, 151856, Control_c, 0, 64, 46
2, 151870, Control_c, 0, 64, 52
2, 151886, Control_c, 0, 64, 56
2, 151901, Control_c, 0, 64, 59
2, 151917, Control_c, 0, 64, 61
2, 151932, Control_c, 0, 64, 63
2, 151947, Control_c, 0, 64, 64
2, 151961, Note_on_c, 0, 65, 0
2, 151963, Control_c, 0, 64, 66
2, 151975, Note_on_c, 0, 60, 0
2, 151978, Control_c, 0, 64, 69
2, 151978, Note_on_c, 0, 69, 73
2, 151992, Control_c, 0, 64, 73
2, 152008, Control_c, 0, 64, 79
2, 152011, Note_on_c, 0, 63, 0
2, 152023, Control_c, 0, 64, 85
2, 152039, Control_c, 0, 64, 91
2, 152054, Control_c, 0, 64, 97
2, 152068, Control_c, 0, 64, 100
2, 152084, Control_c, 0, 64, 100
2, 152175, Control_c, 0, 64, 99
2, 152189, Control_c, 0, 64, 93
2, 152205, Control_c, 0, 64, 83
2, 152220, Control_c, 0, 64, 73
2, 152236, Control_c, 0, 64, 64
2, 152247, Note_on_c, 0, 70, 81
2, 152251, Control_c, 0, 64, 51
2, 152253, Note_on_c, 0, 50, 70
2, 152259, Note_on_c, 0, 53, 71
2, 152265, Control_c, 0, 64, 24
2, 152265, Note_on_c, 0, 48, 0
2, 152276, Note_on_c, 0, 69, 0
2, 152281, Control_c, 0, 64, 0
2, 152334, Control_c, 0, 64, 18
2, 152349, Control_c, 0, 64, 36
2, 152365, Control_c, 0, 64, 47
2, 152380, Control_c, 0, 64, 52
2, 152396, Control_c, 0, 64, 56
2, 152410, Control_c, 0, 64, 59
2, 152425, Control_c, 0, 64, 61
2, 152441, Control_c, 0, 64, 63
2, 152456, Control_c, 0, 64, 65
2, 152471, Control_c, 0, 64, 68
2, 152475, Note_on_c, 0, 50, 0
2, 152486, Control_c, 0, 64, 71
2, 152488, Note_on_c, 0, 65, 72
2, 152491, Note_on_c, 0, 70, 0
2, 152495, Note_on_c, 0, 53, 0
2, 152501, Control_c, 0, 64, 75
2, 152517, Control_c, 0, 64, 80
2, 152531, Control_c, 0, 64, 85
2, 152546, Control_c, 0, 64, 90
2, 152562, Control_c, 0, 64, 94
2, 152577, Control_c, 0, 64, 98
2, 152592, Control_c, 0, 64, 100
2, 152609, Control_c, 0, 64, 102
2, 152623, Control_c, 0, 64, 104
2, 152639, Control_c, 0, 64, 106
2, 152654, Control_c, 0, 64, 107
2, 152685, Control_c, 0, 64, 107
2, 152699, Control_c, 0, 64, 107
2, 152714, Control_c, 0, 64, 97
2, 152724, Note_on_c, 0, 43, 72
2, 152724, Note_on_c, 0, 55, 75
2, 152724, Note_on_c, 0, 63, 73
2, 152724, Note_on_c, 0, 71, 79
2, 152730, Control_c, 0, 64, 82
2, 152745, Control_c, 0, 64, 67
2, 152758, Note_on_c, 0, 65, 0
2, 152761, Control_c, 0, 64, 52
2, 152776, Control_c, 0, 64, 24
2, 152791, Control_c, 0, 64, 22
2, 152807, Control_c, 0, 64, 23
2, 152820, Control_c, 0, 64, 33
2, 152834, Control_c, 0, 64, 45
2, 152850, Control_c, 0, 64, 52
2, 152865, Control_c, 0, 64, 56
2, 152880, Control_c, 0, 64, 59
2, 152896, Control_c, 0, 64, 60
2, 152910, Control_c, 0, 64, 62
2, 152926, Control_c, 0, 64, 64
2, 152941, Control_c, 0, 64, 66
2, 152955, Control_c, 0, 64, 68
2, 152964, Note_on_c, 0, 62, 74
2, 152965, Note_on_c, 0, 63, 0
2, 152971, Control_c, 0, 64, 71
2, 152981, Note_on_c, 0, 43, 0
2, 152986, Control_c, 0, 64, 74
2, 153002, Control_c, 0, 64, 77
2, 153017, Control_c, 0, 64, 79
2, 153031, Control_c, 0, 64, 80
2, 153047, Control_c, 0, 64, 82
2, 153070, Control_c, 0, 64, 85
2, 153086, Control_c, 0, 64, 87
2, 153101, Control_c, 0, 64, 88
2, 153115, Control_c, 0, 64, 88
2, 153176, Control_c, 0, 64, 88
2, 153191, Control_c, 0, 64, 86
2, 153207, Control_c, 0, 64, 79
2, 153222, Control_c, 0, 64, 68
2, 153226, Note_on_c, 0, 71, 0
2, 153227, Note_on_c, 0, 63, 79
2, 153229, Note_on_c, 0, 48, 77
2, 153237, Control_c, 0, 64, 55
2, 153252, Control_c, 0, 64, 21
2, 153267, Control_c, 0, 64, 0
2, 153278, Note_on_c, 0, 62, 0
2, 153313, Control_c, 0, 64, 24
2, 153328, Control_c, 0, 64, 41
2, 153343, Control_c, 0, 64, 51
2, 153358, Control_c, 0, 64, 54
2, 153373, Control_c, 0, 64, 57
2, 153388, Control_c, 0, 64, 59
2, 153404, Control_c, 0, 64, 60
2, 153420, Control_c, 0, 64, 62
2, 153435, Control_c, 0, 64, 63
2, 153451, Control_c, 0, 64, 65
2, 153465, Control_c, 0, 64, 66
2, 153470, Note_on_c, 0, 67, 80
2, 153480, Control_c, 0, 64, 68
2, 153496, Control_c, 0, 64, 70
2, 153499, Note_on_c, 0, 55, 0
2, 153511, Control_c, 0, 64, 72
2, 153511, Note_on_c, 0, 63, 0
2, 153527, Control_c, 0, 64, 75
2, 153541, Control_c, 0, 64, 77
2, 153556, Control_c, 0, 64, 78
2, 153572, Control_c, 0, 64, 79
2, 153587, Control_c, 0, 64, 80
2, 153603, Control_c, 0, 64, 82
2, 153618, Control_c, 0, 64, 85
2, 153633, Control_c, 0, 64, 88
2, 153649, Control_c, 0, 64, 90
2, 153694, Note_on_c, 0, 48, 0
2, 153709, Control_c, 0, 64, 86
2, 153713, Note_on_c, 0, 72, 85
2, 153718, Note_on_c, 0, 67, 0
2, 153723, Note_on_c, 0, 47, 61
2, 153725, Control_c, 0, 64, 74
2, 153725, Note_on_c, 0, 57, 67
2, 153740, Control_c, 0, 64, 62
2, 153755, Control_c, 0, 64, 39
2, 153771, Control_c, 0, 64, 0
2, 153816, Control_c, 0, 64, 24
2, 153838, Control_c, 0, 64, 41
2, 153854, Control_c, 0, 64, 50
2, 153869, Control_c, 0, 64, 54
2, 153884, Control_c, 0, 64, 57
2, 153899, Control_c, 0, 64, 59
2, 153914, Control_c, 0, 64, 61
2, 153930, Control_c, 0, 64, 62
2, 153945, Control_c, 0, 64, 64
2, 153953, Note_on_c, 0, 66, 81
2, 153959, Control_c, 0, 64, 66
2, 153969, Note_on_c, 0, 47, 0
2, 153969, Note_on_c, 0, 72, 0
2, 153975, Control_c, 0, 64, 68
2, 153978, Note_on_c, 0, 45, 63
2, 153978, Note_on_c, 0, 57, 0
2, 153990, Control_c, 0, 64, 71
2, 154006, Control_c, 0, 64, 73
2, 154021, Control_c, 0, 64, 75
2, 154036, Control_c, 0, 64, 76
2, 154052, Control_c, 0, 64, 77
2, 154061, Note_on_c, 0, 66, 0
2, 154067, Control_c, 0, 64, 77
2, 154082, Control_c, 0, 64, 78
2, 154097, Control_c, 0, 64, 78
2, 154173, Control_c, 0, 64, 78
2, 154188, Control_c, 0, 64, 76
2, 154204, Control_c, 0, 64, 71
2, 154217, Note_on_c, 0, 67, 89
2, 154218, Control_c, 0, 64, 65
2, 154222, Note_on_c, 0, 55, 66
2, 154232, Note_on_c, 0, 47, 65
2, 154233, Control_c, 0, 64, 61
2, 154250, Control_c, 0, 64, 55
2, 154251, Note_on_c, 0, 45, 0
2, 154265, Control_c, 0, 64, 51
2, 154280, Control_c, 0, 64, 49
2, 154298, Control_c, 0, 64, 48
2, 154343, Control_c, 0, 64, 48
2, 154374, Control_c, 0, 64, 48
2, 154388, Control_c, 0, 64, 49
2, 154404, Control_c, 0, 64, 49
2, 154419, Control_c, 0, 64, 50
2, 154434, Control_c, 0, 64, 50
2, 154449, Control_c, 0, 64, 52
2, 154464, Control_c, 0, 64, 53
2, 154480, Control_c, 0, 64, 55
2, 154491, Note_on_c, 0, 62, 78
2, 154495, Control_c, 0, 64, 56
2, 154510, Control_c, 0, 64, 56
2, 154525, Control_c, 0, 64, 57
2, 154540, Control_c, 0, 64, 58
2, 154549, Note_on_c, 0, 55, 0
2, 154556, Control_c, 0, 64, 58
2, 154571, Control_c, 0, 64, 59
2, 154586, Control_c, 0, 64, 59
2, 154609, Control_c, 0, 64, 60
2, 154624, Control_c, 0, 64, 60
2, 154654, Control_c, 0, 64, 61
2, 154685, Control_c, 0, 64, 61
2, 154730, Control_c, 0, 64, 59
2, 154745, Control_c, 0, 64, 54
2, 154748, Note_on_c, 0, 63, 80
2, 154748, Note_on_c, 0, 67, 0
2, 154761, Control_c, 0, 64, 47
2, 154763, Note_on_c, 0, 47, 0
2, 154768, Note_on_c, 0, 48, 65
2, 154776, Control_c, 0, 64, 35
2, 154791, Control_c, 0, 64, 23
2, 154806, Control_c, 0, 64, 23
2, 154821, Control_c, 0, 64, 25
2, 154837, Control_c, 0, 64, 37
2, 154852, Control_c, 0, 64, 47
2, 154867, Control_c, 0, 64, 52
2, 154883, Control_c, 0, 64, 55
2, 154898, Control_c, 0, 64, 57
2, 154912, Control_c, 0, 64, 59
2, 154928, Control_c, 0, 64, 61
2, 154943, Control_c, 0, 64, 63
2, 154959, Control_c, 0, 64, 64
2, 154974, Control_c, 0, 64, 66
2, 154989, Control_c, 0, 64, 67
2, 155003, Note_on_c, 0, 62, 0
2, 155005, Control_c, 0, 64, 70
2, 155005, Note_on_c, 0, 63, 0
2, 155007, Note_on_c, 0, 60, 77
2, 155019, Control_c, 0, 64, 73
2, 155034, Control_c, 0, 64, 76
2, 155050, Control_c, 0, 64, 81
2, 155065, Control_c, 0, 64, 88
2, 155081, Control_c, 0, 64, 96
2, 155096, Control_c, 0, 64, 111
2, 155111, Control_c, 0, 64, 127
2, 155262, Control_c, 0, 64, 116
2, 155269, Note_on_c, 0, 62, 81
2, 155270, Note_on_c, 0, 41, 68
2, 155277, Note_on_c, 0, 48, 0
2, 155278, Control_c, 0, 64, 92
2, 155292, Control_c, 0, 64, 80
2, 155307, Control_c, 0, 64, 72
2, 155310, Note_on_c, 0, 57, 30
2, 155323, Control_c, 0, 64, 67
2, 155323, Note_on_c, 0, 60, 0
2, 155338, Control_c, 0, 64, 63
2, 155347, Note_on_c, 0, 57, 0
2, 155353, Control_c, 0, 64, 58
2, 155376, Control_c, 0, 64, 56
2, 155391, Control_c, 0, 64, 54
2, 155407, Control_c, 0, 64, 54
2, 155422, Control_c, 0, 64, 53
2, 155438, Control_c, 0, 64, 52
2, 155452, Control_c, 0, 64, 52
2, 155483, Control_c, 0, 64, 51
2, 155512, Control_c, 0, 64, 50
2, 155528, Control_c, 0, 64, 49
2, 155534, Note_on_c, 0, 57, 77
2, 155543, Control_c, 0, 64, 48
2, 155559, Control_c, 0, 64, 47
2, 155573, Control_c, 0, 64, 46
2, 155588, Control_c, 0, 64, 46
2, 155604, Control_c, 0, 64, 45
2, 155619, Control_c, 0, 64, 44
2, 155634, Control_c, 0, 64, 42
2, 155665, Control_c, 0, 64, 42
2, 155695, Control_c, 0, 64, 41
2, 155710, Control_c, 0, 64, 39
2, 155726, Control_c, 0, 64, 38
2, 155741, Control_c, 0, 64, 36
2, 155757, Control_c, 0, 64, 34
2, 155771, Control_c, 0, 64, 29
2, 155786, Control_c, 0, 64, 16
2, 155802, Control_c, 0, 64, 0
2, 155812, Note_on_c, 0, 59, 73
2, 155814, Note_on_c, 0, 43, 74
2, 155840, Note_on_c, 0, 57, 0
2, 155850, Note_on_c, 0, 41, 0
2, 156120, Note_on_c, 0, 53, 74
2, 156122, Control_c, 0, 64, 21
2, 156144, Control_c, 0, 64, 43
2, 156160, Control_c, 0, 64, 52
2, 156175, Control_c, 0, 64, 57
2, 156190, Control_c, 0, 64, 60
2, 156203, Note_on_c, 0, 53, 0
2, 156206, Control_c, 0, 64, 63
2, 156220, Control_c, 0, 64, 65
2, 156236, Control_c, 0, 64, 68
2, 156250, Note_on_c, 0, 43, 0
2, 156251, Control_c, 0, 64, 72
2, 156265, Control_c, 0, 64, 76
2, 156281, Control_c, 0, 64, 81
2, 156296, Control_c, 0, 64, 86
2, 156311, Control_c, 0, 64, 92
2, 156327, Control_c, 0, 64, 96
2, 156341, Control_c, 0, 64, 100
2, 156357, Control_c, 0, 64, 103
2, 156372, Control_c, 0, 64, 105
2, 156387, Control_c, 0, 64, 108
2, 156403, Control_c, 0, 64, 114
2, 156417, Control_c, 0, 64, 123
2, 156432, Control_c, 0, 64, 127
2, 156508, Control_c, 0, 64, 108
2, 156524, Control_c, 0, 64, 92
2, 156534, Note_on_c, 0, 60, 72
2, 156538, Note_on_c, 0, 51, 72
2, 156539, Control_c, 0, 64, 79
2, 156539, Note_on_c, 0, 36, 74
2, 156554, Control_c, 0, 64, 69
2, 156570, Control_c, 0, 64, 62
2, 156585, Control_c, 0, 64, 54
2, 156591, Note_on_c, 0, 59, 0
2, 156601, Control_c, 0, 64, 47
2, 156613, Note_on_c, 0, 62, 0
2, 156615, Control_c, 0, 64, 43
2, 156630, Control_c, 0, 64, 38
2, 156646, Control_c, 0, 64, 27
2, 156661, Control_c, 0, 64, 0
2, 156814, Control_c, 0, 64, 35
2, 156829, Control_c, 0, 64, 49
2, 156844, Control_c, 0, 64, 55
2, 156859, Control_c, 0, 64, 59
2, 156874, Control_c, 0, 64, 63
2, 156890, Control_c, 0, 64, 65
2, 156912, Control_c, 0, 64, 69
2, 156919, Note_on_c, 0, 36, 0
2, 156928, Control_c, 0, 64, 74
2, 156943, Control_c, 0, 64, 81
2, 156959, Control_c, 0, 64, 91
2, 156974, Control_c, 0, 64, 107
2, 156988, Control_c, 0, 64, 127
2, 157140, Note_on_c, 0, 51, 0
2, 157178, Note_on_c, 0, 60, 0
2, 157459, Control_c, 0, 64, 108
2, 157474, Control_c, 0, 64, 99
2, 157490, Control_c, 0, 64, 95
2, 157505, Control_c, 0, 64, 92
2, 157522, Control_c, 0, 64, 88
2, 157536, Control_c, 0, 64, 83
2, 157551, Control_c, 0, 64, 79
2, 157567, Control_c, 0, 64, 75
2, 157582, Control_c, 0, 64, 72
2, 157598, Control_c, 0, 64, 68
2, 157613, Control_c, 0, 64, 64
2, 157627, Control_c, 0, 64, 61
2, 157643, Control_c, 0, 64, 59
2, 157643, Note_on_c, 0, 67, 44
2, 157658, Control_c, 0, 64, 58
2, 157682, Control_c, 0, 64, 56
2, 157696, Control_c, 0, 64, 54
2, 157711, Control_c, 0, 64, 52
2, 157727, Control_c, 0, 64, 50
2, 157742, Control_c, 0, 64, 50
2, 157757, Control_c, 0, 64, 48
2, 157772, Control_c, 0, 64, 45
2, 157787, Control_c, 0, 64, 43
2, 157803, Control_c, 0, 64, 41
2, 157832, Control_c, 0, 64, 41
2, 157848, Control_c, 0, 64, 40
2, 157863, Control_c, 0, 64, 40
2, 157909, Control_c, 0, 64, 39
2, 158178, Note_on_c, 0, 63, 43
2, 158243, Note_on_c, 0, 67, 0
2, 158630, Control_c, 0, 64, 39
2, 158763, Note_on_c, 0, 72, 47
2, 158767, Control_c, 0, 64, 38
2, 158769, Note_on_c, 0, 65, 40
2, 158841, Note_on_c, 0, 63, 0
2, 158994, Control_c, 0, 64, 38
2, 159326, Note_on_c, 0, 71, 43
2, 159328, Note_on_c, 0, 67, 41
2, 159363, Note_on_c, 0, 72, 0
2, 159378, Note_on_c, 0, 65, 0
2, 159885, Note_on_c, 0, 72, 61
2, 159893, Note_on_c, 0, 63, 44
2, 159901, Note_on_c, 0, 60, 43
2, 159918, Note_on_c, 0, 67, 0
2, 159973, Note_on_c, 0, 71, 0
2, 159984, Control_c, 0, 64, 38
2, 160000, Control_c, 0, 64, 42
2, 160014, Control_c, 0, 64, 48
2, 160029, Control_c, 0, 64, 53
2, 160045, Control_c, 0, 64, 57
2, 160060, Control_c, 0, 64, 60
2, 160074, Control_c, 0, 64, 62
2, 160090, Control_c, 0, 64, 65
2, 160105, Control_c, 0, 64, 68
2, 160121, Control_c, 0, 64, 72
2, 160136, Control_c, 0, 64, 80
2, 160150, Control_c, 0, 64, 89
2, 160166, Control_c, 0, 64, 105
2, 160181, Control_c, 0, 64, 127
2, 160197, Note_on_c, 0, 72, 0
2, 160464, Note_on_c, 0, 74, 63
2, 160470, Control_c, 0, 64, 123
2, 160476, Note_on_c, 0, 60, 0
2, 160478, Note_on_c, 0, 65, 51
2, 160484, Note_on_c, 0, 59, 49
2, 160485, Control_c, 0, 64, 90
2, 160500, Control_c, 0, 64, 73
2, 160513, Note_on_c, 0, 63, 0
2, 160516, Control_c, 0, 64, 59
2, 160531, Control_c, 0, 64, 33
2, 160546, Control_c, 0, 64, 0
2, 160606, Control_c, 0, 64, 33
2, 160621, Control_c, 0, 64, 47
2, 160637, Control_c, 0, 64, 55
2, 160652, Control_c, 0, 64, 59
2, 160667, Control_c, 0, 64, 62
2, 160682, Control_c, 0, 64, 64
2, 160697, Control_c, 0, 64, 68
2, 160712, Control_c, 0, 64, 73
2, 160728, Control_c, 0, 64, 82
2, 160751, Control_c, 0, 64, 97
2, 160767, Control_c, 0, 64, 127
2, 160827, Note_on_c, 0, 74, 0
2, 160996, Control_c, 0, 64, 96
2, 161010, Control_c, 0, 64, 77
2, 161012, Note_on_c, 0, 59, 0
2, 161012, Note_on_c, 0, 67, 65
2, 161015, Note_on_c, 0, 65, 0
2, 161023, Note_on_c, 0, 60, 48
2, 161025, Control_c, 0, 64, 66
2, 161040, Note_on_c, 0, 63, 41
2, 161041, Control_c, 0, 64, 55
2, 161055, Control_c, 0, 64, 40
2, 161070, Control_c, 0, 64, 26
2, 161086, Control_c, 0, 64, 0
2, 161109, Note_on_c, 0, 63, 0
2, 161109, Note_on_c, 0, 63, 3
2, 161192, Control_c, 0, 64, 28
2, 161208, Control_c, 0, 64, 39
2, 161223, Control_c, 0, 64, 47
2, 161239, Control_c, 0, 64, 53
2, 161253, Control_c, 0, 64, 57
2, 161259, Note_on_c, 0, 62, 56
2, 161268, Control_c, 0, 64, 62
2, 161277, Note_on_c, 0, 63, 0
2, 161282, Note_on_c, 0, 67, 0
2, 161284, Control_c, 0, 64, 64
2, 161299, Control_c, 0, 64, 68
2, 161314, Control_c, 0, 64, 74
2, 161330, Control_c, 0, 64, 85
2, 161345, Control_c, 0, 64, 111
2, 161361, Control_c, 0, 64, 127
2, 161404, Note_on_c, 0, 62, 0
2, 161573, Note_on_c, 0, 72, 66
2, 161581, Control_c, 0, 64, 103
2, 161590, Note_on_c, 0, 48, 45
2, 161593, Note_on_c, 0, 55, 45
2, 161597, Control_c, 0, 64, 81
2, 161600, Note_on_c, 0, 64, 48
2, 161603, Note_on_c, 0, 60, 0
2, 161612, Control_c, 0, 64, 67
2, 161627, Control_c, 0, 64, 54
2, 161642, Control_c, 0, 64, 19
2, 161657, Control_c, 0, 64, 0
2, 161779, Control_c, 0, 64, 11
2, 161794, Control_c, 0, 64, 28
2, 161810, Control_c, 0, 64, 38
2, 161825, Control_c, 0, 64, 44
2, 161841, Control_c, 0, 64, 49
2, 161855, Control_c, 0, 64, 52
2, 161870, Control_c, 0, 64, 55
2, 161886, Control_c, 0, 64, 57
2, 161900, Control_c, 0, 64, 59
2, 161916, Control_c, 0, 64, 62
2, 161931, Control_c, 0, 64, 63
2, 161946, Control_c, 0, 64, 65
2, 161962, Control_c, 0, 64, 68
2, 161968, Note_on_c, 0, 64, 0
2, 161976, Control_c, 0, 64, 70
2, 161991, Control_c, 0, 64, 73
2, 162007, Control_c, 0, 64, 76
2, 162022, Control_c, 0, 64, 78
2, 162038, Control_c, 0, 64, 79
2, 162083, Control_c, 0, 64, 78
2, 162097, Control_c, 0, 64, 77
2, 162109, Note_on_c, 0, 70, 56
2, 162112, Control_c, 0, 64, 75
2, 162128, Control_c, 0, 64, 73
2, 162137, Note_on_c, 0, 65, 34
2, 162143, Control_c, 0, 64, 70
2, 162146, Note_on_c, 0, 72, 0
2, 162159, Control_c, 0, 64, 68
2, 162173, Control_c, 0, 64, 67
2, 162188, Control_c, 0, 64, 65
2, 162204, Control_c, 0, 64, 64
2, 162219, Control_c, 0, 64, 63
2, 162234, Control_c, 0, 64, 61
2, 162249, Control_c, 0, 64, 59
2, 162264, Control_c, 0, 64, 57
2, 162287, Control_c, 0, 64, 55
2, 162302, Control_c, 0, 64, 52
2, 162318, Control_c, 0, 64, 49
2, 162333, Control_c, 0, 64, 46
2, 162348, Control_c, 0, 64, 43
2, 162364, Control_c, 0, 64, 40
2, 162367, Note_on_c, 0, 68, 54
2, 162378, Control_c, 0, 64, 39
2, 162379, Note_on_c, 0, 70, 0
2, 162393, Control_c, 0, 64, 37
2, 162409, Control_c, 0, 64, 34
2, 162409, Note_on_c, 0, 55, 0
2, 162422, Note_on_c, 0, 48, 0
2, 162424, Control_c, 0, 64, 31
2, 162440, Control_c, 0, 64, 30
2, 162455, Control_c, 0, 64, 29
2, 162486, Control_c, 0, 64, 28
2, 162501, Control_c, 0, 64, 27
2, 162517, Control_c, 0, 64, 26
2, 162531, Control_c, 0, 64, 26
2, 162546, Control_c, 0, 64, 24
2, 162562, Control_c, 0, 64, 21
2, 162577, Control_c, 0, 64, 17
2, 162592, Control_c, 0, 64, 9
2, 162607, Control_c, 0, 64, 0
2, 162651, Note_on_c, 0, 67, 38
2, 162651, Note_on_c, 0, 70, 49
2, 162674, Note_on_c, 0, 65, 0
2, 162683, Note_on_c, 0, 68, 0
2, 162743, Control_c, 0, 64, 17
2, 162759, Control_c, 0, 64, 38
2, 162774, Control_c, 0, 64, 48
2, 162789, Control_c, 0, 64, 54
2, 162805, Control_c, 0, 64, 58
2, 162819, Control_c, 0, 64, 60
2, 162834, Control_c, 0, 64, 63
2, 162850, Control_c, 0, 64, 65
2, 162865, Control_c, 0, 64, 68
2, 162881, Control_c, 0, 64, 72
2, 162889, Note_on_c, 0, 67, 0
2, 162896, Control_c, 0, 64, 78
2, 162910, Control_c, 0, 64, 85
2, 162926, Control_c, 0, 64, 94
2, 162930, Note_on_c, 0, 70, 0
2, 162941, Control_c, 0, 64, 104
2, 162957, Control_c, 0, 64, 110
2, 162987, Control_c, 0, 64, 108
2, 163003, Control_c, 0, 64, 108
2, 163085, Control_c, 0, 64, 106
2, 163100, Control_c, 0, 64, 103
2, 163116, Control_c, 0, 64, 100
2, 163131, Control_c, 0, 64, 98
2, 163146, Control_c, 0, 64, 97
2, 163162, Control_c, 0, 64, 96
2, 163177, Control_c, 0, 64, 95
2, 163192, Control_c, 0, 64, 92
2, 163208, Control_c, 0, 64, 87
2, 163222, Control_c, 0, 64, 83
2, 163223, Note_on_c, 0, 72, 50
2, 163229, Note_on_c, 0, 65, 34
2, 163238, Control_c, 0, 64, 79
2, 163253, Control_c, 0, 64, 75
2, 163268, Control_c, 0, 64, 72
2, 163284, Control_c, 0, 64, 68
2, 163299, Control_c, 0, 64, 65
2, 163314, Control_c, 0, 64, 63
2, 163330, Control_c, 0, 64, 62
2, 163345, Control_c, 0, 64, 60
2, 163361, Control_c, 0, 64, 59
2, 163375, Control_c, 0, 64, 58
2, 163390, Control_c, 0, 64, 57
2, 163406, Control_c, 0, 64, 56
2, 163421, Control_c, 0, 64, 55
2, 163437, Control_c, 0, 64, 55
2, 163451, Control_c, 0, 64, 54
2, 163466, Control_c, 0, 64, 53
2, 163477, Note_on_c, 0, 64, 44
2, 163482, Control_c, 0, 64, 52
2, 163497, Control_c, 0, 64, 51
2, 163520, Note_on_c, 0, 65, 0
2, 163527, Control_c, 0, 64, 51
2, 163542, Control_c, 0, 64, 50
2, 163558, Control_c, 0, 64, 49
2, 163573, Control_c, 0, 64, 49
2, 163618, Control_c, 0, 64, 48
2, 163633, Control_c, 0, 64, 48
2, 163679, Control_c, 0, 64, 47
2, 163744, Note_on_c, 0, 68, 50
2, 163761, Note_on_c, 0, 65, 32
2, 163771, Note_on_c, 0, 72, 0
2, 163800, Note_on_c, 0, 64, 0
2, 164083, Control_c, 0, 64, 48
2, 164292, Note_on_c, 0, 70, 46
2, 164293, Note_on_c, 0, 61, 42
2, 164311, Note_on_c, 0, 67, 34
2, 164344, Note_on_c, 0, 68, 0
2, 164352, Note_on_c, 0, 65, 0
2, 164848, Note_on_c, 0, 64, 42
2, 164864, Note_on_c, 0, 72, 48
2, 164873, Note_on_c, 0, 55, 39
2, 164905, Note_on_c, 0, 61, 0
2, 164909, Note_on_c, 0, 67, 0
2, 164943, Note_on_c, 0, 70, 0
2, 165201, Control_c, 0, 64, 47
2, 165277, Control_c, 0, 64, 47
2, 165401, Note_on_c, 0, 65, 57
2, 165411, Note_on_c, 0, 56, 49
2, 165423, Note_on_c, 0, 55, 0
2, 165529, Note_on_c, 0, 72, 0
2, 165562, Note_on_c, 0, 64, 0
2, 165832, Control_c, 0, 64, 47
2, 165923, Control_c, 0, 64, 48
2, 165952, Note_on_c, 0, 70, 60
2, 165959, Note_on_c, 0, 56, 0
2, 165965, Note_on_c, 0, 67, 54
2, 165969, Note_on_c, 0, 48, 38
2, 165969, Note_on_c, 0, 52, 43
2, 166025, Note_on_c, 0, 65, 0
2, 166485, Note_on_c, 0, 60, 65
2, 166486, Note_on_c, 0, 68, 59
2, 166488, Note_on_c, 0, 67, 0
2, 166540, Note_on_c, 0, 70, 0
2, 166598, Note_on_c, 0, 52, 0
2, 166609, Note_on_c, 0, 48, 0
2, 166645, Control_c, 0, 64, 48
2, 166747, Note_on_c, 0, 67, 67
2, 166773, Note_on_c, 0, 68, 0
2, 167017, Control_c, 0, 64, 48
2, 167044, Note_on_c, 0, 65, 64
2, 167051, Note_on_c, 0, 56, 64
2, 167052, Note_on_c, 0, 68, 65
2, 167063, Note_on_c, 0, 67, 0
2, 167130, Note_on_c, 0, 60, 0
2, 167444, Control_c, 0, 64, 47
2, 167570, Note_on_c, 0, 65, 0
2, 167577, Note_on_c, 0, 67, 60
2, 167580, Control_c, 0, 64, 47
2, 167580, Note_on_c, 0, 58, 64
2, 167580, Note_on_c, 0, 64, 53
2, 167610, Control_c, 0, 64, 46
2, 167631, Note_on_c, 0, 56, 0
2, 167633, Note_on_c, 0, 68, 0
2, 167641, Control_c, 0, 64, 46
2, 167663, Control_c, 0, 64, 45
2, 167679, Control_c, 0, 64, 45
2, 167707, Control_c, 0, 64, 44
2, 167737, Control_c, 0, 64, 43
2, 167752, Control_c, 0, 64, 42
2, 167768, Control_c, 0, 64, 41
2, 167783, Control_c, 0, 64, 41
2, 167798, Control_c, 0, 64, 40
2, 167813, Control_c, 0, 64, 38
2, 167828, Control_c, 0, 64, 35
2, 167834, Note_on_c, 0, 62, 58
2, 167844, Control_c, 0, 64, 32
2, 167859, Control_c, 0, 64, 27
2, 167873, Control_c, 0, 64, 22
2, 167876, Note_on_c, 0, 64, 0
2, 167889, Control_c, 0, 64, 11
2, 167904, Control_c, 0, 64, 0
2, 168115, Note_on_c, 0, 64, 63
2, 168118, Note_on_c, 0, 60, 70
2, 168131, Note_on_c, 0, 62, 0
2, 168157, Note_on_c, 0, 58, 0
2, 168210, Control_c, 0, 64, 36
2, 168225, Control_c, 0, 64, 50
2, 168239, Control_c, 0, 64, 58
2, 168255, Control_c, 0, 64, 63
2, 168270, Control_c, 0, 64, 67
2, 168285, Control_c, 0, 64, 75
2, 168300, Control_c, 0, 64, 88
2, 168315, Control_c, 0, 64, 127
2, 168333, Note_on_c, 0, 64, 0
2, 168360, Note_on_c, 0, 60, 0
2, 168367, Note_on_c, 0, 67, 0
2, 168689, Note_on_c, 0, 53, 75
2, 168691, Note_on_c, 0, 69, 75
2, 168697, Note_on_c, 0, 48, 69
2, 168701, Note_on_c, 0, 63, 62
2, 168702, Control_c, 0, 64, 123
2, 168717, Control_c, 0, 64, 87
2, 168733, Control_c, 0, 64, 73
2, 168748, Control_c, 0, 64, 65
2, 168764, Control_c, 0, 64, 59
2, 168779, Control_c, 0, 64, 56
2, 168794, Control_c, 0, 64, 54
2, 168810, Control_c, 0, 64, 52
2, 168825, Control_c, 0, 64, 51
2, 168946, Control_c, 0, 64, 51
2, 168993, Control_c, 0, 64, 52
2, 169008, Control_c, 0, 64, 52
2, 169038, Control_c, 0, 64, 53
2, 169048, Note_on_c, 0, 70, 71
2, 169113, Note_on_c, 0, 69, 0
2, 169145, Note_on_c, 0, 63, 0
2, 169156, Note_on_c, 0, 72, 78
2, 169259, Control_c, 0, 64, 52
2, 169269, Note_on_c, 0, 70, 0
2, 169274, Control_c, 0, 64, 50
2, 169290, Control_c, 0, 64, 43
2, 169290, Note_on_c, 0, 65, 74
2, 169293, Note_on_c, 0, 49, 75
2, 169299, Note_on_c, 0, 58, 72
2, 169299, Note_on_c, 0, 72, 0
2, 169302, Note_on_c, 0, 61, 66
2, 169305, Control_c, 0, 64, 23
2, 169313, Note_on_c, 0, 53, 0
2, 169319, Control_c, 0, 64, 0
2, 169334, Note_on_c, 0, 48, 0
2, 169381, Control_c, 0, 64, 12
2, 169396, Control_c, 0, 64, 43
2, 169412, Control_c, 0, 64, 54
2, 169426, Control_c, 0, 64, 60
2, 169441, Control_c, 0, 64, 63
2, 169457, Control_c, 0, 64, 67
2, 169471, Control_c, 0, 64, 72
2, 169487, Control_c, 0, 64, 82
2, 169502, Control_c, 0, 64, 98
2, 169517, Control_c, 0, 64, 127
2, 169574, Note_on_c, 0, 61, 0
2, 169597, Note_on_c, 0, 58, 0
2, 169815, Note_on_c, 0, 48, 70
2, 169815, Note_on_c, 0, 72, 78
2, 169816, Note_on_c, 0, 63, 64
2, 169826, Note_on_c, 0, 56, 73
2, 169831, Note_on_c, 0, 49, 0
2, 169851, Control_c, 0, 64, 86
2, 169852, Note_on_c, 0, 65, 0
2, 169866, Control_c, 0, 64, 62
2, 169881, Control_c, 0, 64, 0
2, 169965, Control_c, 0, 64, 43
2, 169980, Control_c, 0, 64, 53
2, 169995, Control_c, 0, 64, 59
2, 170011, Control_c, 0, 64, 62
2, 170026, Control_c, 0, 64, 64
2, 170041, Control_c, 0, 64, 67
2, 170056, Control_c, 0, 64, 72
2, 170061, Note_on_c, 0, 55, 77
2, 170071, Control_c, 0, 64, 83
2, 170075, Note_on_c, 0, 72, 0
2, 170087, Control_c, 0, 64, 100
2, 170093, Note_on_c, 0, 63, 0
2, 170096, Note_on_c, 0, 48, 0
2, 170100, Note_on_c, 0, 56, 0
2, 170102, Control_c, 0, 64, 127
2, 170358, Note_on_c, 0, 74, 82
2, 170359, Note_on_c, 0, 47, 68
2, 170361, Note_on_c, 0, 56, 78
2, 170363, Note_on_c, 0, 55, 0
2, 170363, Note_on_c, 0, 65, 76
2, 170375, Control_c, 0, 64, 107
2, 170390, Control_c, 0, 64, 73
2, 170406, Control_c, 0, 64, 50
2, 170421, Control_c, 0, 64, 0
2, 170497, Control_c, 0, 64, 37
2, 170512, Control_c, 0, 64, 49
2, 170527, Control_c, 0, 64, 54
2, 170542, Control_c, 0, 64, 57
2, 170557, Control_c, 0, 64, 60
2, 170573, Control_c, 0, 64, 62
2, 170577, Note_on_c, 0, 65, 0
2, 170588, Control_c, 0, 64, 64
2, 170603, Control_c, 0, 64, 67
2, 170619, Control_c, 0, 64, 72
2, 170634, Control_c, 0, 64, 80
2, 170650, Control_c, 0, 64, 90
2, 170665, Control_c, 0, 64, 111
2, 170680, Control_c, 0, 64, 127
2, 170748, Note_on_c, 0, 56, 0
2, 170904, Note_on_c, 0, 74, 0
2, 170915, Control_c, 0, 64, 75
2, 170921, Note_on_c, 0, 55, 72
2, 170925, Note_on_c, 0, 53, 73
2, 170925, Note_on_c, 0, 63, 73
2, 170926, Note_on_c, 0, 72, 74
2, 170931, Control_c, 0, 64, 47
2, 170946, Control_c, 0, 64, 0
2, 170970, Note_on_c, 0, 47, 0
2, 171007, Control_c, 0, 64, 17
2, 171022, Control_c, 0, 64, 40
2, 171036, Control_c, 0, 64, 47
2, 171052, Control_c, 0, 64, 51
2, 171067, Control_c, 0, 64, 53
2, 171083, Control_c, 0, 64, 56
2, 171084, Note_on_c, 0, 63, 0
2, 171098, Control_c, 0, 64, 58
2, 171112, Control_c, 0, 64, 61
2, 171114, Note_on_c, 0, 72, 0
2, 171128, Control_c, 0, 64, 63
2, 171143, Control_c, 0, 64, 65
2, 171157, Control_c, 0, 64, 67
2, 171173, Control_c, 0, 64, 70
2, 171188, Control_c, 0, 64, 74
2, 171191, Note_on_c, 0, 71, 78
2, 171198, Note_on_c, 0, 62, 67
2, 171204, Control_c, 0, 64, 83
2, 171219, Control_c, 0, 64, 96
2, 171233, Control_c, 0, 64, 127
2, 171257, Note_on_c, 0, 62, 0
2, 171287, Note_on_c, 0, 53, 0
2, 171305, Note_on_c, 0, 55, 0
2, 171305, Note_on_c, 0, 71, 0
2, 171478, Note_on_c, 0, 72, 87
2, 171496, Note_on_c, 0, 51, 77
2, 171497, Note_on_c, 0, 63, 75
2, 171500, Note_on_c, 0, 55, 75
2, 171516, Control_c, 0, 64, 101
2, 171532, Control_c, 0, 64, 83
2, 171546, Control_c, 0, 64, 73
2, 171561, Control_c, 0, 64, 67
2, 171577, Control_c, 0, 64, 63
2, 171591, Control_c, 0, 64, 58
2, 171607, Control_c, 0, 64, 53
2, 171622, Control_c, 0, 64, 50
2, 171637, Control_c, 0, 64, 48
2, 171653, Control_c, 0, 64, 47
2, 171668, Control_c, 0, 64, 46
2, 171684, Control_c, 0, 64, 45
2, 171699, Control_c, 0, 64, 42
2, 171713, Control_c, 0, 64, 40
2, 171729, Control_c, 0, 64, 38
2, 171744, Control_c, 0, 64, 35
2, 171759, Control_c, 0, 64, 31
2, 171775, Control_c, 0, 64, 24
2, 171790, Control_c, 0, 64, 17
2, 171805, Control_c, 0, 64, 0
2, 171809, Note_on_c, 0, 50, 78
2, 171854, Note_on_c, 0, 51, 0
2, 171972, Note_on_c, 0, 63, 0
2, 172120, Note_on_c, 0, 48, 80
2, 172120, Note_on_c, 0, 63, 73
2, 172122, Note_on_c, 0, 67, 82
2, 172122, Note_on_c, 0, 72, 0
2, 172125, Note_on_c, 0, 50, 0
2, 172484, Note_on_c, 0, 50, 81
2, 172512, Note_on_c, 0, 48, 0
2, 172562, Control_c, 0, 64, 41
2, 172577, Control_c, 0, 64, 53
2, 172593, Control_c, 0, 64, 59
2, 172608, Control_c, 0, 64, 63
2, 172623, Control_c, 0, 64, 66
2, 172639, Control_c, 0, 64, 71
2, 172653, Control_c, 0, 64, 84
2, 172657, Note_on_c, 0, 51, 93
2, 172669, Control_c, 0, 64, 115
2, 172679, Note_on_c, 0, 50, 0
2, 172679, Note_on_c, 0, 55, 0
2, 172684, Control_c, 0, 64, 127
2, 172713, Note_on_c, 0, 51, 0
2, 172846, Note_on_c, 0, 63, 0
2, 172911, Note_on_c, 0, 67, 0
2, 172978, Note_on_c, 0, 42, 88
2, 173056, Control_c, 0, 64, 99
2, 173071, Control_c, 0, 64, 84
2, 173087, Control_c, 0, 64, 74
2, 173102, Control_c, 0, 64, 67
2, 173118, Control_c, 0, 64, 59
2, 173133, Control_c, 0, 64, 52
2, 173149, Control_c, 0, 64, 48
2, 173163, Control_c, 0, 64, 45
2, 173178, Control_c, 0, 64, 42
2, 173194, Control_c, 0, 64, 40
2, 173209, Control_c, 0, 64, 39
2, 173224, Control_c, 0, 64, 39
2, 173270, Control_c, 0, 64, 38
2, 173285, Control_c, 0, 64, 36
2, 173299, Control_c, 0, 64, 35
2, 173479, Note_on_c, 0, 74, 87
2, 173513, Control_c, 0, 64, 36
2, 173616, Control_c, 0, 64, 35
2, 173723, Control_c, 0, 64, 33
2, 173738, Control_c, 0, 64, 32
2, 173753, Control_c, 0, 64, 30
2, 173768, Control_c, 0, 64, 26
2, 173783, Control_c, 0, 64, 21
2, 173807, Control_c, 0, 64, 11
2, 173815, Note_on_c, 0, 75, 86
2, 173821, Control_c, 0, 64, 0
2, 173862, Note_on_c, 0, 74, 0
2, 174036, Control_c, 0, 64, 25
2, 174051, Control_c, 0, 64, 47
2, 174059, Note_on_c, 0, 71, 81
2, 174065, Control_c, 0, 64, 56
2, 174081, Control_c, 0, 64, 61
2, 174086, Note_on_c, 0, 75, 0
2, 174096, Control_c, 0, 64, 64
2, 174111, Control_c, 0, 64, 68
2, 174127, Control_c, 0, 64, 73
2, 174137, Note_on_c, 0, 71, 0
2, 174141, Control_c, 0, 64, 80
2, 174157, Control_c, 0, 64, 91
2, 174172, Control_c, 0, 64, 123
2, 174187, Control_c, 0, 64, 127
2, 174342, Note_on_c, 0, 72, 82
2, 174430, Control_c, 0, 64, 109
2, 174431, Note_on_c, 0, 42, 0
2, 174446, Control_c, 0, 64, 98
2, 174460, Control_c, 0, 64, 90
2, 174476, Control_c, 0, 64, 86
2, 174491, Control_c, 0, 64, 83
2, 174506, Control_c, 0, 64, 82
2, 174522, Control_c, 0, 64, 80
2, 174536, Control_c, 0, 64, 78
2, 174551, Control_c, 0, 64, 76
2, 174575, Control_c, 0, 64, 74
2, 174590, Control_c, 0, 64, 73
2, 174604, Note_on_c, 0, 69, 75
2, 174605, Control_c, 0, 64, 72
2, 174620, Control_c, 0, 64, 71
2, 174636, Control_c, 0, 64, 69
2, 174651, Control_c, 0, 64, 67
2, 174666, Control_c, 0, 64, 65
2, 174681, Control_c, 0, 64, 64
2, 174696, Control_c, 0, 64, 64
2, 174711, Control_c, 0, 64, 63
2, 174728, Control_c, 0, 64, 62
2, 174743, Control_c, 0, 64, 62
2, 174758, Control_c, 0, 64, 61
2, 174773, Control_c, 0, 64, 61
2, 174788, Control_c, 0, 64, 60
2, 174804, Control_c, 0, 64, 60
2, 174819, Control_c, 0, 64, 59
2, 174834, Control_c, 0, 64, 59
2, 174857, Note_on_c, 0, 66, 69
2, 174864, Control_c, 0, 64, 58
2, 174909, Control_c, 0, 64, 58
2, 174925, Control_c, 0, 64, 57
2, 174940, Control_c, 0, 64, 57
2, 174956, Control_c, 0, 64, 56
2, 174985, Control_c, 0, 64, 56
2, 175001, Control_c, 0, 64, 55
2, 175016, Control_c, 0, 64, 55
2, 175061, Control_c, 0, 64, 54
2, 175092, Control_c, 0, 64, 54
2, 175093, Note_on_c, 0, 62, 77
2, 175137, Control_c, 0, 64, 53
2, 175152, Control_c, 0, 64, 53
2, 175168, Control_c, 0, 64, 52
2, 175183, Control_c, 0, 64, 52
2, 175214, Control_c, 0, 64, 51
2, 175229, Control_c, 0, 64, 51
2, 175244, Control_c, 0, 64, 50
2, 175304, Control_c, 0, 64, 50
2, 175320, Control_c, 0, 64, 49
2, 175373, Control_c, 0, 64, 49
2, 175376, Note_on_c, 0, 63, 75
2, 175388, Control_c, 0, 64, 48
2, 175403, Control_c, 0, 64, 48
2, 175418, Control_c, 0, 64, 47
2, 175433, Control_c, 0, 64, 46
2, 175441, Note_on_c, 0, 62, 0
2, 175449, Control_c, 0, 64, 45
2, 175464, Control_c, 0, 64, 43
2, 175480, Control_c, 0, 64, 40
2, 175495, Control_c, 0, 64, 38
2, 175510, Control_c, 0, 64, 37
2, 175525, Control_c, 0, 64, 35
2, 175541, Control_c, 0, 64, 33
2, 175557, Control_c, 0, 64, 30
2, 175571, Control_c, 0, 64, 28
2, 175586, Control_c, 0, 64, 28
2, 175602, Control_c, 0, 64, 27
2, 175617, Control_c, 0, 64, 26
2, 175632, Control_c, 0, 64, 26
2, 175640, Note_on_c, 0, 59, 73
2, 175890, Control_c, 0, 64, 27
2, 175904, Note_on_c, 0, 60, 70
2, 175905, Control_c, 0, 64, 27
2, 175923, Note_on_c, 0, 59, 0
2, 175936, Control_c, 0, 64, 28
2, 175950, Control_c, 0, 64, 29
2, 175966, Control_c, 0, 64, 30
2, 175981, Control_c, 0, 64, 31
2, 175997, Control_c, 0, 64, 32
2, 176012, Control_c, 0, 64, 32
2, 176027, Control_c, 0, 64, 33
2, 176057, Control_c, 0, 64, 34
2, 176126, Control_c, 0, 64, 35
2, 176156, Control_c, 0, 64, 35
2, 176177, Note_on_c, 0, 54, 78
2, 176216, Note_on_c, 0, 60, 0
2, 176278, Control_c, 0, 64, 36
2, 176492, Control_c, 0, 64, 36
2, 176529, Note_on_c, 0, 55, 71
2, 176534, Note_on_c, 0, 54, 0
2, 176544, Note_on_c, 0, 72, 0
2, 176575, Note_on_c, 0, 69, 0
2, 176586, Note_on_c, 0, 63, 0
2, 176594, Note_on_c, 0, 66, 0
2, 176673, Control_c, 0, 64, 36
2, 176689, Control_c, 0, 64, 34
2, 176704, Control_c, 0, 64, 31
2, 176719, Control_c, 0, 64, 26
2, 176734, Control_c, 0, 64, 17
2, 176749, Control_c, 0, 64, 0
2, 176794, Control_c, 0, 64, 12
2, 176810, Control_c, 0, 64, 31
2, 176825, Control_c, 0, 64, 44
2, 176841, Control_c, 0, 64, 52
2, 176856, Control_c, 0, 64, 57
2, 176879, Control_c, 0, 64, 60
2, 176894, Control_c, 0, 64, 62
2, 176909, Control_c, 0, 64, 64
2, 176924, Control_c, 0, 64, 66
2, 176939, Control_c, 0, 64, 69
2, 176954, Control_c, 0, 64, 73
2, 176970, Control_c, 0, 64, 78
2, 176985, Control_c, 0, 64, 85
2, 177000, Control_c, 0, 64, 95
2, 177015, Control_c, 0, 64, 113
2, 177030, Control_c, 0, 64, 127
2, 177067, Note_on_c, 0, 55, 0
2, 177290, Control_c, 0, 64, 92
2, 177305, Control_c, 0, 64, 73
2, 177311, Note_on_c, 0, 71, 78
2, 177314, Note_on_c, 0, 65, 71
2, 177317, Note_on_c, 0, 67, 69
2, 177318, Note_on_c, 0, 62, 65
2, 177320, Control_c, 0, 64, 59
2, 177323, Note_on_c, 0, 43, 66
2, 177335, Control_c, 0, 64, 42
2, 177350, Control_c, 0, 64, 30
2, 177366, Control_c, 0, 64, 15
2, 177381, Control_c, 0, 64, 0
2, 177533, Control_c, 0, 64, 33
2, 177548, Control_c, 0, 64, 44
2, 177563, Control_c, 0, 64, 50
2, 177578, Control_c, 0, 64, 55
2, 177593, Control_c, 0, 64, 58
2, 177609, Control_c, 0, 64, 61
2, 177624, Control_c, 0, 64, 64
2, 177647, Control_c, 0, 64, 66
2, 177662, Control_c, 0, 64, 71
2, 177678, Control_c, 0, 64, 80
2, 177693, Control_c, 0, 64, 96
2, 177708, Control_c, 0, 64, 127
2, 177796, Note_on_c, 0, 43, 0
2, 177915, Note_on_c, 0, 71, 0
2, 177951, Note_on_c, 0, 62, 0
2, 178022, Note_on_c, 0, 67, 0
2, 178035, Note_on_c, 0, 65, 0
2, 178302, Note_on_c, 0, 36, 53
2, 178357, Note_on_c, 0, 48, 64
2, 178426, Note_on_c, 0, 60, 61
2, 178508, Note_on_c, 0, 63, 68
2, 178524, Control_c, 0, 64, 111
2, 178539, Control_c, 0, 64, 101
2, 178555, Control_c, 0, 64, 95
2, 178567, Note_on_c, 0, 67, 72
2, 178569, Control_c, 0, 64, 90
2, 178587, Control_c, 0, 64, 88
2, 178602, Control_c, 0, 64, 85
2, 178616, Control_c, 0, 64, 82
2, 178632, Control_c, 0, 64, 78
2, 178647, Control_c, 0, 64, 75
2, 178663, Control_c, 0, 64, 71
2, 178665, Note_on_c, 0, 72, 77
2, 178678, Control_c, 0, 64, 68
2, 178692, Control_c, 0, 64, 64
2, 178708, Control_c, 0, 64, 61
2, 178723, Control_c, 0, 64, 58
2, 178738, Control_c, 0, 64, 55
2, 178754, Control_c, 0, 64, 53
2, 178768, Control_c, 0, 64, 51
2, 178784, Control_c, 0, 64, 50
2, 178803, Control_c, 0, 64, 50
2, 178880, Control_c, 0, 64, 49
2, 178896, Control_c, 0, 64, 49
2, 179019, Control_c, 0, 64, 49
2, 179095, Control_c, 0, 64, 50
2, 179516, Control_c, 0, 64, 50
2, 180481, Control_c, 0, 64, 51
2, 180541, Control_c, 0, 64, 51
2, 180663, Control_c, 0, 64, 52
2, 181956, Control_c, 0, 64, 52
2, 182450, Control_c, 0, 64, 53
2, 182635, Control_c, 0, 64, 53
2, 183111, Note_on_c, 0, 48, 0
2, 183118, Note_on_c, 0, 60, 0
2, 183136, Note_on_c, 0, 67, 0
2, 183162, Note_on_c, 0, 72, 0
2, 183259, Note_on_c, 0, 63, 0
2, 183344, Note_on_c, 0, 36, 0
2, 183345, End_track
0, 0, End_of_file
