0, 0, Header, 1, 2, 384
1, 0, Start_track
1, 0, Tempo, 500000
1, 0, Time_signature, 4, 2, 24, 8
1, 1, End_track
2, 0, Start_track
2, 0, Program_c, 0, 0
2, 753, Note_on_c, 0, 48, 55
2, 805, Note_on_c, 0, 48, 0
2, 867, Note_on_c, 0, 67, 59
2, 1003, Note_on_c, 0, 60, 64
2, 1003, Note_on_c, 0, 67, 0
2, 1009, Note_on_c, 0, 65, 63
2, 1072, Note_on_c, 0, 60, 0
2, 1123, Note_on_c, 0, 67, 75
2, 1137, Note_on_c, 0, 65, 0
2, 1243, Note_on_c, 0, 53, 64
2, 1251, Note_on_c, 0, 68, 76
2, 1257, Note_on_c, 0, 67, 0
2, 1322, Note_on_c, 0, 53, 0
2, 1343, Note_on_c, 0, 68, 0
2, 1366, Note_on_c, 0, 65, 67
2, 1487, Note_on_c, 0, 63, 66
2, 1487, Note_on_c, 0, 65, 0
2, 1488, Note_on_c, 0, 60, 66
2, 1582, Note_on_c, 0, 60, 0
2, 1605, Note_on_c, 0, 65, 71
2, 1610, Note_on_c, 0, 63, 0
2, 1719, Note_on_c, 0, 51, 64
2, 1725, Note_on_c, 0, 65, 0
2, 1729, Note_on_c, 0, 67, 69
2, 1788, Note_on_c, 0, 51, 0
2, 1825, Note_on_c, 0, 67, 0
2, 1848, Note_on_c, 0, 63, 58
2, 1959, Note_on_c, 0, 63, 0
2, 1973, Note_on_c, 0, 60, 62
2, 1973, Note_on_c, 0, 62, 57
2, 2064, Note_on_c, 0, 60, 0
2, 2078, Note_on_c, 0, 62, 0
2, 2083, Note_on_c, 0, 63, 63
2, 2199, Note_on_c, 0, 63, 0
2, 2211, Note_on_c, 0, 65, 58
2, 2214, Note_on_c, 0, 50, 41
2, 2277, Note_on_c, 0, 50, 0
2, 2292, Note_on_c, 0, 65, 0
2, 2319, Note_on_c, 0, 62, 64
2, 2426, Note_on_c, 0, 59, 58
2, 2426, Note_on_c, 0, 62, 0
2, 2437, Note_on_c, 0, 60, 63
2, 2499, Note_on_c, 0, 59, 0
2, 2514, Note_on_c, 0, 60, 0
2, 2554, Note_on_c, 0, 62, 63
2, 2669, Note_on_c, 0, 63, 68
2, 2682, Note_on_c, 0, 48, 51
2, 2683, Note_on_c, 0, 62, 0
2, 2732, Note_on_c, 0, 63, 0
2, 2763, Note_on_c, 0, 48, 0
2, 2788, Note_on_c, 0, 55, 58
2, 2900, Note_on_c, 0, 72, 69
2, 2903, Note_on_c, 0, 53, 67
2, 2903, Note_on_c, 0, 55, 0
2, 2985, Note_on_c, 0, 72, 0
2, 3008, Note_on_c, 0, 55, 76
2, 3018, Note_on_c, 0, 53, 0
2, 3114, Note_on_c, 0, 55, 0
2, 3124, Note_on_c, 0, 56, 69
2, 3134, Note_on_c, 0, 65, 74
2, 3202, Note_on_c, 0, 65, 0
2, 3238, Note_on_c, 0, 56, 0
2, 3240, Note_on_c, 0, 53, 68
2, 3358, Note_on_c, 0, 53, 0
2, 3361, Note_on_c, 0, 51, 70
2, 3369, Note_on_c, 0, 72, 70
2, 3453, Note_on_c, 0, 72, 0
2, 3468, Note_on_c, 0, 53, 73
2, 3481, Note_on_c, 0, 51, 0
2, 3588, Note_on_c, 0, 53, 0
2, 3598, Note_on_c, 0, 55, 66
2, 3599, Note_on_c, 0, 63, 68
2, 3679, Note_on_c, 0, 63, 0
2, 3703, Note_on_c, 0, 51, 67
2, 3704, Note_on_c, 0, 55, 0
2, 3812, Note_on_c, 0, 51, 0
2, 3824, Note_on_c, 0, 72, 65
2, 3829, Note_on_c, 0, 50, 60
2, 3909, Note_on_c, 0, 72, 0
2, 3929, Note_on_c, 0, 50, 0
2, 3935, Note_on_c, 0, 51, 69
2, 4042, Note_on_c, 0, 51, 0
2, 4054, Note_on_c, 0, 53, 59
2, 4057, Note_on_c, 0, 62, 63
2, 4129, Note_on_c, 0, 62, 0
2, 4150, Note_on_c, 0, 53, 0
2, 4174, Note_on_c, 0, 50, 56
2, 4277, Note_on_c, 0, 50, 0
2, 4290, Note_on_c, 0, 71, 61
2, 4303, Note_on_c, 0, 48, 52
2, 4362, Note_on_c, 0, 71, 0
2, 4410, Note_on_c, 0, 48, 0
2, 4420, Note_on_c, 0, 50, 54
2, 4527, Note_on_c, 0, 50, 0
2, 4530, Note_on_c, 0, 60, 51
2, 4536, Note_on_c, 0, 51, 62
2, 4582, Note_on_c, 0, 51, 0
2, 4624, Note_on_c, 0, 60, 0
2, 4648, Note_on_c, 0, 63, 54
2, 4768, Note_on_c, 0, 63, 0
2, 4778, Note_on_c, 0, 48, 45
2, 4787, Note_on_c, 0, 67, 53
2, 4858, Note_on_c, 0, 48, 0
2, 4910, Note_on_c, 0, 67, 0
2, 4922, Note_on_c, 0, 72, 51
2, 5023, Note_on_c, 0, 53, 51
2, 5027, Note_on_c, 0, 62, 51
2, 5034, Note_on_c, 0, 72, 0
2, 5101, Note_on_c, 0, 53, 0
2, 5147, Note_on_c, 0, 62, 0
2, 5157, Note_on_c, 0, 72, 64
2, 5266, Note_on_c, 0, 72, 0
2, 5269, Note_on_c, 0, 50, 53
2, 5287, Note_on_c, 0, 71, 61
2, 5366, Note_on_c, 0, 50, 0
2, 5401, Note_on_c, 0, 71, 0
2, 5406, Note_on_c, 0, 69, 62
2, 5501, Note_on_c, 0, 69, 0
2, 5508, Note_on_c, 0, 55, 59
2, 5525, Note_on_c, 0, 62, 61
2, 5576, Note_on_c, 0, 55, 0
2, 5632, Note_on_c, 0, 62, 0
2, 5647, Note_on_c, 0, 67, 65
2, 5760, Note_on_c, 0, 53, 61
2, 5772, Note_on_c, 0, 71, 64
2, 5775, Note_on_c, 0, 67, 0
2, 5857, Note_on_c, 0, 53, 0
2, 5891, Note_on_c, 0, 71, 0
2, 5892, Note_on_c, 0, 74, 68
2, 6006, Note_on_c, 0, 74, 0
2, 6012, Note_on_c, 0, 55, 64
2, 6015, Note_on_c, 0, 63, 66
2, 6106, Note_on_c, 0, 55, 0
2, 6127, Note_on_c, 0, 74, 68
2, 6135, Note_on_c, 0, 63, 0
2, 6257, Note_on_c, 0, 72, 78
2, 6258, Note_on_c, 0, 51, 66
2, 6288, Note_on_c, 0, 74, 0
2, 6346, Note_on_c, 0, 51, 0
2, 6373, Note_on_c, 0, 71, 72
2, 6378, Note_on_c, 0, 72, 0
2, 6498, Note_on_c, 0, 56, 72
2, 6503, Note_on_c, 0, 71, 0
2, 6505, Note_on_c, 0, 63, 72
2, 6553, Note_on_c, 0, 56, 0
2, 6623, Note_on_c, 0, 68, 75
2, 6627, Note_on_c, 0, 63, 0
2, 6750, Note_on_c, 0, 55, 70
2, 6752, Note_on_c, 0, 72, 74
2, 6776, Note_on_c, 0, 68, 0
2, 6859, Note_on_c, 0, 75, 77
2, 6865, Note_on_c, 0, 55, 0
2, 6877, Note_on_c, 0, 72, 0
2, 6986, Note_on_c, 0, 65, 76
2, 6994, Note_on_c, 0, 57, 72
2, 6999, Note_on_c, 0, 75, 0
2, 7084, Note_on_c, 0, 57, 0
2, 7101, Note_on_c, 0, 65, 0
2, 7104, Note_on_c, 0, 75, 82
2, 7232, Note_on_c, 0, 53, 71
2, 7235, Note_on_c, 0, 74, 76
2, 7279, Note_on_c, 0, 75, 0
2, 7321, Note_on_c, 0, 53, 0
2, 7345, Note_on_c, 0, 72, 76
2, 7376, Note_on_c, 0, 74, 0
2, 7464, Note_on_c, 0, 58, 74
2, 7467, Note_on_c, 0, 65, 77
2, 7470, Note_on_c, 0, 72, 0
2, 7537, Note_on_c, 0, 58, 0
2, 7585, Note_on_c, 0, 70, 79
2, 7601, Note_on_c, 0, 65, 0
2, 7697, Note_on_c, 0, 57, 75
2, 7708, Note_on_c, 0, 74, 74
2, 7738, Note_on_c, 0, 70, 0
2, 7788, Note_on_c, 0, 57, 0
2, 7825, Note_on_c, 0, 77, 84
2, 7840, Note_on_c, 0, 74, 0
2, 7951, Note_on_c, 0, 59, 77
2, 7957, Note_on_c, 0, 67, 77
2, 7969, Note_on_c, 0, 77, 0
2, 8070, Note_on_c, 0, 77, 87
2, 8071, Note_on_c, 0, 67, 0
2, 8073, Note_on_c, 0, 59, 0
2, 8188, Note_on_c, 0, 75, 84
2, 8192, Note_on_c, 0, 55, 72
2, 8196, Note_on_c, 0, 77, 0
2, 8293, Note_on_c, 0, 55, 0
2, 8302, Note_on_c, 0, 74, 83
2, 8335, Note_on_c, 0, 75, 0
2, 8441, Note_on_c, 0, 60, 70
2, 8443, Note_on_c, 0, 75, 81
2, 8466, Note_on_c, 0, 74, 0
2, 8570, Note_on_c, 0, 60, 0
2, 8581, Note_on_c, 0, 72, 77
2, 8584, Note_on_c, 0, 75, 0
2, 8585, Note_on_c, 0, 68, 67
2, 8696, Note_on_c, 0, 68, 0
2, 8700, Note_on_c, 0, 67, 68
2, 8711, Note_on_c, 0, 70, 73
2, 8730, Note_on_c, 0, 72, 0
2, 8793, Note_on_c, 0, 67, 0
2, 8815, Note_on_c, 0, 72, 77
2, 8821, Note_on_c, 0, 70, 0
2, 8825, Note_on_c, 0, 68, 65
2, 8923, Note_on_c, 0, 58, 65
2, 8927, Note_on_c, 0, 68, 0
2, 8929, Note_on_c, 0, 74, 73
2, 8937, Note_on_c, 0, 72, 0
2, 9013, Note_on_c, 0, 58, 0
2, 9042, Note_on_c, 0, 70, 75
2, 9046, Note_on_c, 0, 67, 55
2, 9050, Note_on_c, 0, 74, 0
2, 9125, Note_on_c, 0, 67, 0
2, 9151, Note_on_c, 0, 65, 54
2, 9151, Note_on_c, 0, 70, 0
2, 9153, Note_on_c, 0, 68, 69
2, 9246, Note_on_c, 0, 65, 0
2, 9264, Note_on_c, 0, 70, 71
2, 9265, Note_on_c, 0, 67, 57
2, 9268, Note_on_c, 0, 68, 0
2, 9386, Note_on_c, 0, 56, 58
2, 9393, Note_on_c, 0, 70, 0
2, 9393, Note_on_c, 0, 72, 69
2, 9399, Note_on_c, 0, 67, 0
2, 9525, Note_on_c, 0, 70, 67
2, 9557, Note_on_c, 0, 72, 0
2, 9620, Note_on_c, 0, 56, 0
2, 9650, Note_on_c, 0, 68, 67
2, 9680, Note_on_c, 0, 70, 0
2, 9756, Note_on_c, 0, 68, 0
2, 9765, Note_on_c, 0, 67, 64
2, 9886, Note_on_c, 0, 65, 68
2, 9892, Note_on_c, 0, 67, 0
2, 9997, Note_on_c, 0, 65, 0
2, 9999, Note_on_c, 0, 63, 61
2, 10112, Note_on_c, 0, 63, 0
2, 10131, Note_on_c, 0, 62, 53
2, 10225, Note_on_c, 0, 62, 0
2, 10253, Note_on_c, 0, 60, 50
2, 10352, Note_on_c, 0, 60, 0
2, 10370, Note_on_c, 0, 58, 55
2, 10376, Note_on_c, 0, 74, 65
2, 10461, Note_on_c, 0, 58, 0
2, 10473, Note_on_c, 0, 74, 0
2, 10493, Note_on_c, 0, 70, 61
2, 10496, Note_on_c, 0, 67, 51
2, 10583, Note_on_c, 0, 67, 0
2, 10607, Note_on_c, 0, 70, 0
2, 10612, Note_on_c, 0, 68, 66
2, 10617, Note_on_c, 0, 65, 45
2, 10713, Note_on_c, 0, 65, 0
2, 10717, Note_on_c, 0, 68, 0
2, 10720, Note_on_c, 0, 70, 66
2, 10732, Note_on_c, 0, 67, 53
2, 10799, Note_on_c, 0, 67, 0
2, 10834, Note_on_c, 0, 70, 0
2, 10839, Note_on_c, 0, 72, 69
2, 10845, Note_on_c, 0, 56, 52
2, 10925, Note_on_c, 0, 72, 0
2, 10934, Note_on_c, 0, 56, 0
2, 10962, Note_on_c, 0, 68, 59
2, 10964, Note_on_c, 0, 65, 49
2, 11038, Note_on_c, 0, 65, 0
2, 11062, Note_on_c, 0, 63, 46
2, 11064, Note_on_c, 0, 68, 0
2, 11076, Note_on_c, 0, 67, 59
2, 11166, Note_on_c, 0, 63, 0
2, 11178, Note_on_c, 0, 65, 44
2, 11184, Note_on_c, 0, 67, 0
2, 11202, Note_on_c, 0, 68, 64
2, 11327, Note_on_c, 0, 55, 39
2, 11329, Note_on_c, 0, 65, 0
2, 11329, Note_on_c, 0, 68, 0
2, 11335, Note_on_c, 0, 70, 63
2, 11463, Note_on_c, 0, 70, 0
2, 11464, Note_on_c, 0, 68, 56
2, 11575, Note_on_c, 0, 67, 59
2, 11579, Note_on_c, 0, 68, 0
2, 11588, Note_on_c, 0, 55, 0
2, 11675, Note_on_c, 0, 67, 0
2, 11699, Note_on_c, 0, 65, 54
2, 11815, Note_on_c, 0, 65, 0
2, 11824, Note_on_c, 0, 63, 55
2, 11932, Note_on_c, 0, 61, 50
2, 11941, Note_on_c, 0, 63, 0
2, 12028, Note_on_c, 0, 61, 0
2, 12057, Note_on_c, 0, 60, 49
2, 12146, Note_on_c, 0, 60, 0
2, 12178, Note_on_c, 0, 58, 49
2, 12269, Note_on_c, 0, 58, 0
2, 12295, Note_on_c, 0, 56, 49
2, 12301, Note_on_c, 0, 72, 58
2, 12382, Note_on_c, 0, 72, 0
2, 12394, Note_on_c, 0, 56, 0
2, 12422, Note_on_c, 0, 68, 52
2, 12424, Note_on_c, 0, 65, 48
2, 12494, Note_on_c, 0, 65, 0
2, 12531, Note_on_c, 0, 68, 0
2, 12535, Note_on_c, 0, 63, 46
2, 12561, Note_on_c, 0, 67, 55
2, 12615, Note_on_c, 0, 63, 0
2, 12644, Note_on_c, 0, 65, 42
2, 12646, Note_on_c, 0, 67, 0
2, 12666, Note_on_c, 0, 68, 58
2, 12723, Note_on_c, 0, 65, 0
2, 12762, Note_on_c, 0, 68, 0
2, 12775, Note_on_c, 0, 70, 62
2, 12776, Note_on_c, 0, 55, 49
2, 12867, Note_on_c, 0, 55, 0
2, 12887, Note_on_c, 0, 70, 0
2, 12897, Note_on_c, 0, 67, 58
2, 12900, Note_on_c, 0, 63, 43
2, 12977, Note_on_c, 0, 63, 0
2, 12988, Note_on_c, 0, 67, 0
2, 13014, Note_on_c, 0, 62, 47
2, 13019, Note_on_c, 0, 65, 56
2, 13082, Note_on_c, 0, 62, 0
2, 13121, Note_on_c, 0, 63, 45
2, 13126, Note_on_c, 0, 67, 57
2, 13161, Note_on_c, 0, 65, 0
2, 13231, Note_on_c, 0, 63, 0
2, 13240, Note_on_c, 0, 53, 53
2, 13245, Note_on_c, 0, 67, 0
2, 13252, Note_on_c, 0, 68, 66
2, 13354, Note_on_c, 0, 68, 0
2, 13366, Note_on_c, 0, 53, 0
2, 13374, Note_on_c, 0, 65, 60
2, 13391, Note_on_c, 0, 62, 48
2, 13488, Note_on_c, 0, 62, 0
2, 13489, Note_on_c, 0, 65, 0
2, 13500, Note_on_c, 0, 63, 62
2, 13509, Note_on_c, 0, 60, 50
2, 13578, Note_on_c, 0, 63, 0
2, 13588, Note_on_c, 0, 60, 0
2, 13607, Note_on_c, 0, 65, 59
2, 13624, Note_on_c, 0, 62, 51
2, 13678, Note_on_c, 0, 62, 0
2, 13687, Note_on_c, 0, 65, 0
2, 13722, Note_on_c, 0, 68, 68
2, 13728, Note_on_c, 0, 51, 59
2, 13778, Note_on_c, 0, 68, 0
2, 13785, Note_on_c, 0, 51, 0
2, 13786, Note_on_c, 0, 67, 66
2, 13830, Note_on_c, 0, 60, 54
2, 13830, Note_on_c, 0, 67, 0
2, 13840, Note_on_c, 0, 68, 68
2, 13898, Note_on_c, 0, 68, 0
2, 13949, Note_on_c, 0, 60, 0
2, 13959, Note_on_c, 0, 68, 73
2, 13972, Note_on_c, 0, 58, 58
2, 14020, Note_on_c, 0, 68, 0
2, 14081, Note_on_c, 0, 58, 0
2, 14088, Note_on_c, 0, 60, 54
2, 14178, Note_on_c, 0, 60, 0
2, 14208, Note_on_c, 0, 68, 81
2, 14215, Note_on_c, 0, 50, 59
2, 14321, Note_on_c, 0, 67, 76
2, 14327, Note_on_c, 0, 50, 0
2, 14339, Note_on_c, 0, 58, 58
2, 14344, Note_on_c, 0, 68, 0
2, 14429, Note_on_c, 0, 67, 0
2, 14433, Note_on_c, 0, 58, 0
2, 14439, Note_on_c, 0, 65, 72
2, 14452, Note_on_c, 0, 56, 61
2, 14531, Note_on_c, 0, 56, 0
2, 14539, Note_on_c, 0, 65, 0
2, 14539, Note_on_c, 0, 67, 73
2, 14549, Note_on_c, 0, 58, 65
2, 14601, Note_on_c, 0, 67, 0
2, 14638, Note_on_c, 0, 58, 0
2, 14654, Note_on_c, 0, 48, 61
2, 14654, Note_on_c, 0, 68, 72
2, 14711, Note_on_c, 0, 68, 0
2, 14713, Note_on_c, 0, 67, 70
2, 14733, Note_on_c, 0, 48, 0
2, 14757, Note_on_c, 0, 56, 61
2, 14773, Note_on_c, 0, 68, 74
2, 14775, Note_on_c, 0, 67, 0
2, 14848, Note_on_c, 0, 68, 0
2, 14882, Note_on_c, 0, 56, 0
2, 14896, Note_on_c, 0, 55, 64
2, 14901, Note_on_c, 0, 68, 78
2, 14971, Note_on_c, 0, 68, 0
2, 14998, Note_on_c, 0, 55, 0
2, 15019, Note_on_c, 0, 56, 63
2, 15151, Note_on_c, 0, 46, 57
2, 15155, Note_on_c, 0, 56, 0
2, 15158, Note_on_c, 0, 68, 69
2, 15267, Note_on_c, 0, 74, 74
2, 15273, Note_on_c, 0, 46, 0
2, 15300, Note_on_c, 0, 68, 0
2, 15388, Note_on_c, 0, 77, 75
2, 15403, Note_on_c, 0, 58, 57
2, 15411, Note_on_c, 0, 74, 0
2, 15518, Note_on_c, 0, 58, 0
2, 15518, Note_on_c, 0, 75, 76
2, 15528, Note_on_c, 0, 77, 0
2, 15645, Note_on_c, 0, 74, 76
2, 15671, Note_on_c, 0, 75, 0
2, 15747, Note_on_c, 0, 74, 0
2, 15761, Note_on_c, 0, 72, 75
2, 15878, Note_on_c, 0, 50, 73
2, 15882, Note_on_c, 0, 70, 75
2, 15891, Note_on_c, 0, 72, 0
2, 15994, Note_on_c, 0, 68, 73
2, 16012, Note_on_c, 0, 70, 0
2, 16053, Note_on_c, 0, 50, 0
2, 16117, Note_on_c, 0, 51, 76
2, 16118, Note_on_c, 0, 68, 0
2, 16120, Note_on_c, 0, 67, 75
2, 16191, Note_on_c, 0, 51, 0
2, 16233, Note_on_c, 0, 70, 77
2, 16241, Note_on_c, 0, 67, 0
2, 16366, Note_on_c, 0, 75, 81
2, 16368, Note_on_c, 0, 48, 70
2, 16377, Note_on_c, 0, 70, 0
2, 16437, Note_on_c, 0, 48, 0
2, 16479, Note_on_c, 0, 67, 67
2, 16508, Note_on_c, 0, 75, 0
2, 16596, Note_on_c, 0, 44, 71
2, 16597, Note_on_c, 0, 67, 0
2, 16598, Note_on_c, 0, 65, 80
2, 16663, Note_on_c, 0, 44, 0
2, 16698, Note_on_c, 0, 65, 0
2, 16715, Note_on_c, 0, 75, 81
2, 16831, Note_on_c, 0, 46, 78
2, 16833, Note_on_c, 0, 65, 79
2, 16855, Note_on_c, 0, 75, 0
2, 16947, Note_on_c, 0, 74, 77
2, 16971, Note_on_c, 0, 65, 0
2, 17071, Note_on_c, 0, 46, 0
2, 17085, Note_on_c, 0, 75, 82
2, 17086, Note_on_c, 0, 74, 0
2, 17094, Note_on_c, 0, 39, 68
2, 17219, Note_on_c, 0, 75, 0
2, 17223, Note_on_c, 0, 70, 67
2, 17225, Note_on_c, 0, 39, 0
2, 17342, Note_on_c, 0, 70, 0
2, 17357, Note_on_c, 0, 68, 64
2, 17370, Note_on_c, 0, 51, 59
2, 17415, Note_on_c, 0, 51, 0
2, 17474, Note_on_c, 0, 70, 64
2, 17484, Note_on_c, 0, 68, 0
2, 17579, Note_on_c, 0, 70, 0
2, 17582, Note_on_c, 0, 44, 53
2, 17593, Note_on_c, 0, 72, 67
2, 17651, Note_on_c, 0, 44, 0
2, 17695, Note_on_c, 0, 72, 0
2, 17700, Note_on_c, 0, 68, 65
2, 17795, Note_on_c, 0, 68, 0
2, 17812, Note_on_c, 0, 51, 56
2, 17823, Note_on_c, 0, 67, 59
2, 17887, Note_on_c, 0, 51, 0
2, 17941, Note_on_c, 0, 67, 0
2, 17945, Note_on_c, 0, 68, 63
2, 18053, Note_on_c, 0, 68, 0
2, 18065, Note_on_c, 0, 70, 66
2, 18072, Note_on_c, 0, 43, 53
2, 18134, Note_on_c, 0, 43, 0
2, 18166, Note_on_c, 0, 70, 0
2, 18181, Note_on_c, 0, 67, 54
2, 18282, Note_on_c, 0, 67, 0
2, 18300, Note_on_c, 0, 51, 51
2, 18311, Note_on_c, 0, 65, 55
2, 18395, Note_on_c, 0, 51, 0
2, 18415, Note_on_c, 0, 65, 0
2, 18417, Note_on_c, 0, 67, 58
2, 18542, Note_on_c, 0, 67, 0
2, 18545, Note_on_c, 0, 41, 52
2, 18546, Note_on_c, 0, 68, 64
2, 18630, Note_on_c, 0, 41, 0
2, 18638, Note_on_c, 0, 68, 0
2, 18675, Note_on_c, 0, 65, 56
2, 18787, Note_on_c, 0, 50, 47
2, 18792, Note_on_c, 0, 65, 0
2, 18795, Note_on_c, 0, 63, 58
2, 18870, Note_on_c, 0, 50, 0
2, 18886, Note_on_c, 0, 63, 0
2, 18904, Note_on_c, 0, 65, 57
2, 19030, Note_on_c, 0, 51, 59
2, 19033, Note_on_c, 0, 67, 64
2, 19038, Note_on_c, 0, 65, 0
2, 19142, Note_on_c, 0, 51, 0
2, 19153, Note_on_c, 0, 55, 61
2, 19158, Note_on_c, 0, 63, 62
2, 19173, Note_on_c, 0, 67, 0
2, 19268, Note_on_c, 0, 63, 0
2, 19272, Note_on_c, 0, 55, 0
2, 19275, Note_on_c, 0, 62, 63
2, 19277, Note_on_c, 0, 53, 67
2, 19387, Note_on_c, 0, 55, 67
2, 19390, Note_on_c, 0, 53, 0
2, 19392, Note_on_c, 0, 63, 68
2, 19398, Note_on_c, 0, 62, 0
2, 19505, Note_on_c, 0, 55, 0
2, 19525, Note_on_c, 0, 56, 67
2, 19531, Note_on_c, 0, 60, 72
2, 19546, Note_on_c, 0, 63, 0
2, 19608, Note_on_c, 0, 60, 0
2, 19652, Note_on_c, 0, 53, 59
2, 19655, Note_on_c, 0, 56, 0
2, 19758, Note_on_c, 0, 53, 0
2, 19764, Note_on_c, 0, 51, 59
2, 19767, Note_on_c, 0, 68, 66
2, 19854, Note_on_c, 0, 68, 0
2, 19881, Note_on_c, 0, 51, 0
2, 19883, Note_on_c, 0, 53, 63
2, 19996, Note_on_c, 0, 53, 0
2, 20011, Note_on_c, 0, 58, 66
2, 20017, Note_on_c, 0, 55, 62
2, 20076, Note_on_c, 0, 58, 0
2, 20119, Note_on_c, 0, 55, 0
2, 20126, Note_on_c, 0, 51, 58
2, 20248, Note_on_c, 0, 51, 0
2, 20264, Note_on_c, 0, 50, 54
2, 20277, Note_on_c, 0, 67, 58
2, 20380, Note_on_c, 0, 50, 0
2, 20380, Note_on_c, 0, 51, 59
2, 20394, Note_on_c, 0, 67, 0
2, 20488, Note_on_c, 0, 51, 0
2, 20500, Note_on_c, 0, 56, 62
2, 20503, Note_on_c, 0, 53, 57
2, 20592, Note_on_c, 0, 56, 0
2, 20598, Note_on_c, 0, 53, 0
2, 20613, Note_on_c, 0, 50, 52
2, 20718, Note_on_c, 0, 50, 0
2, 20745, Note_on_c, 0, 48, 53
2, 20746, Note_on_c, 0, 65, 57
2, 20787, Note_on_c, 0, 65, 0
2, 20837, Note_on_c, 0, 48, 0
2, 20859, Note_on_c, 0, 50, 51
2, 20984, Note_on_c, 0, 51, 51
2, 20987, Note_on_c, 0, 55, 57
2, 20994, Note_on_c, 0, 50, 0
2, 21102, Note_on_c, 0, 55, 0
2, 21103, Note_on_c, 0, 58, 70
2, 21132, Note_on_c, 0, 51, 0
2, 21227, Note_on_c, 0, 63, 68
2, 21233, Note_on_c, 0, 55, 62
2, 21246, Note_on_c, 0, 58, 0
2, 21345, Note_on_c, 0, 67, 80
2, 21359, Note_on_c, 0, 63, 0
2, 21362, Note_on_c, 0, 55, 0
2, 21463, Note_on_c, 0, 56, 75
2, 21588, Note_on_c, 0, 65, 71
2, 21600, Note_on_c, 0, 56, 0
2, 21609, Note_on_c, 0, 67, 0
2, 21702, Note_on_c, 0, 63, 72
2, 21710, Note_on_c, 0, 58, 76
2, 21731, Note_on_c, 0, 65, 0
2, 21805, Note_on_c, 0, 58, 0
2, 21820, Note_on_c, 0, 63, 0
2, 21823, Note_on_c, 0, 62, 73
2, 21953, Note_on_c, 0, 62, 0
2, 21955, Note_on_c, 0, 60, 72
2, 21960, Note_on_c, 0, 63, 72
2, 22073, Note_on_c, 0, 67, 70
2, 22087, Control_c, 0, 64, 21
2, 22101, Control_c, 0, 64, 37
2, 22117, Control_c, 0, 64, 45
2, 22132, Control_c, 0, 64, 50
2, 22147, Control_c, 0, 64, 54
2, 22163, Control_c, 0, 64, 56
2, 22167, Note_on_c, 0, 60, 0
2, 22177, Control_c, 0, 64, 57
2, 22192, Control_c, 0, 64, 55
2, 22200, Note_on_c, 0, 72, 79
2, 22208, Control_c, 0, 64, 51
2, 22215, Note_on_c, 0, 56, 65
2, 22222, Control_c, 0, 64, 42
2, 22222, Note_on_c, 0, 67, 0
2, 22238, Control_c, 0, 64, 25
2, 22253, Control_c, 0, 64, 15
2, 22284, Control_c, 0, 64, 28
2, 22299, Control_c, 0, 64, 42
2, 22314, Control_c, 0, 64, 49
2, 22330, Control_c, 0, 64, 54
2, 22336, Note_on_c, 0, 65, 63
2, 22345, Control_c, 0, 64, 57
2, 22348, Note_on_c, 0, 56, 0
2, 22361, Control_c, 0, 64, 59
2, 22376, Control_c, 0, 64, 61
2, 22383, Note_on_c, 0, 72, 0
2, 22390, Control_c, 0, 64, 62
2, 22406, Control_c, 0, 64, 63
2, 22418, Note_on_c, 0, 63, 0
2, 22421, Control_c, 0, 64, 62
2, 22437, Control_c, 0, 64, 60
2, 22452, Control_c, 0, 64, 56
2, 22463, Note_on_c, 0, 70, 74
2, 22467, Control_c, 0, 64, 46
2, 22470, Note_on_c, 0, 67, 62
2, 22480, Note_on_c, 0, 58, 53
2, 22483, Control_c, 0, 64, 0
2, 22521, Note_on_c, 0, 67, 0
2, 22537, Note_on_c, 0, 65, 0
2, 22600, Note_on_c, 0, 63, 42
2, 22690, Note_on_c, 0, 58, 0
2, 22714, Note_on_c, 0, 63, 0
2, 22733, Note_on_c, 0, 68, 72
2, 22740, Note_on_c, 0, 65, 52
2, 22748, Note_on_c, 0, 46, 33
2, 22791, Note_on_c, 0, 70, 0
2, 22809, Control_c, 0, 64, 16
2, 22824, Control_c, 0, 64, 41
2, 22840, Control_c, 0, 64, 51
2, 22843, Note_on_c, 0, 65, 0
2, 22854, Control_c, 0, 64, 56
2, 22862, Note_on_c, 0, 68, 0
2, 22869, Control_c, 0, 64, 60
2, 22870, Note_on_c, 0, 62, 46
2, 22885, Control_c, 0, 64, 62
2, 22900, Control_c, 0, 64, 63
2, 22908, Note_on_c, 0, 46, 0
2, 22915, Control_c, 0, 64, 64
2, 22930, Control_c, 0, 64, 66
2, 22945, Control_c, 0, 64, 67
2, 22961, Control_c, 0, 64, 68
2, 22976, Control_c, 0, 64, 69
2, 23006, Control_c, 0, 64, 68
2, 23021, Control_c, 0, 64, 67
2, 23026, Note_on_c, 0, 67, 58
2, 23037, Control_c, 0, 64, 65
2, 23045, Note_on_c, 0, 58, 48
2, 23051, Note_on_c, 0, 63, 54
2, 23052, Control_c, 0, 64, 61
2, 23056, Note_on_c, 0, 62, 0
2, 23066, Control_c, 0, 64, 56
2, 23082, Control_c, 0, 64, 46
2, 23087, Note_on_c, 0, 58, 0
2, 23097, Control_c, 0, 64, 22
2, 23112, Control_c, 0, 64, 0
2, 23153, Note_on_c, 0, 51, 57
2, 23162, Note_on_c, 0, 63, 0
2, 23218, Note_on_c, 0, 51, 0
2, 23285, Note_on_c, 0, 46, 46
2, 23376, Note_on_c, 0, 46, 0
2, 23400, Note_on_c, 0, 43, 50
2, 23501, Note_on_c, 0, 43, 0
2, 23554, Note_on_c, 0, 39, 49
2, 23606, Control_c, 0, 64, 12
2, 23620, Control_c, 0, 64, 36
2, 23635, Control_c, 0, 64, 50
2, 23651, Control_c, 0, 64, 57
2, 23666, Control_c, 0, 64, 62
2, 23681, Control_c, 0, 64, 65
2, 23696, Control_c, 0, 64, 67
2, 23711, Control_c, 0, 64, 70
2, 23721, Note_on_c, 0, 39, 0
2, 23727, Control_c, 0, 64, 74
2, 23742, Control_c, 0, 64, 76
2, 23748, Note_on_c, 0, 67, 0
2, 23757, Control_c, 0, 64, 77
2, 23772, Control_c, 0, 64, 78
2, 23848, Control_c, 0, 64, 77
2, 23878, Control_c, 0, 64, 77
2, 23908, Control_c, 0, 64, 76
2, 23939, Control_c, 0, 64, 76
2, 23954, Control_c, 0, 64, 75
2, 23970, Control_c, 0, 64, 74
2, 23986, Control_c, 0, 64, 73
2, 24000, Control_c, 0, 64, 72
2, 24016, Control_c, 0, 64, 71
2, 24039, Control_c, 0, 64, 70
2, 24055, Control_c, 0, 64, 69
2, 24069, Control_c, 0, 64, 67
2, 24085, Control_c, 0, 64, 65
2, 24100, Control_c, 0, 64, 62
2, 24115, Control_c, 0, 64, 59
2, 24131, Control_c, 0, 64, 55
2, 24145, Control_c, 0, 64, 52
2, 24160, Control_c, 0, 64, 48
2, 24176, Control_c, 0, 64, 43
2, 24191, Control_c, 0, 64, 36
2, 24207, Control_c, 0, 64, 28
2, 24221, Control_c, 0, 64, 24
2, 24223, Note_on_c, 0, 51, 54
2, 24236, Control_c, 0, 64, 21
2, 24252, Control_c, 0, 64, 17
2, 24266, Control_c, 0, 64, 11
2, 24281, Control_c, 0, 64, 0
2, 24313, Note_on_c, 0, 51, 0
2, 24338, Note_on_c, 0, 70, 58
2, 24452, Note_on_c, 0, 70, 0
2, 24461, Note_on_c, 0, 69, 67
2, 24465, Note_on_c, 0, 53, 63
2, 24537, Note_on_c, 0, 53, 0
2, 24572, Note_on_c, 0, 70, 73
2, 24607, Note_on_c, 0, 69, 0
2, 24692, Note_on_c, 0, 75, 76
2, 24694, Note_on_c, 0, 55, 69
2, 24696, Note_on_c, 0, 70, 0
2, 24772, Note_on_c, 0, 55, 0
2, 24817, Note_on_c, 0, 70, 69
2, 24856, Note_on_c, 0, 75, 0
2, 24928, Note_on_c, 0, 70, 0
2, 24934, Note_on_c, 0, 69, 68
2, 24935, Note_on_c, 0, 51, 73
2, 25020, Note_on_c, 0, 51, 0
2, 25053, Note_on_c, 0, 70, 72
2, 25094, Note_on_c, 0, 69, 0
2, 25180, Note_on_c, 0, 77, 79
2, 25181, Note_on_c, 0, 50, 71
2, 25189, Note_on_c, 0, 70, 0
2, 25253, Note_on_c, 0, 50, 0
2, 25308, Note_on_c, 0, 70, 73
2, 25320, Note_on_c, 0, 77, 0
2, 25421, Note_on_c, 0, 48, 68
2, 25424, Note_on_c, 0, 70, 0
2, 25425, Note_on_c, 0, 69, 72
2, 25505, Note_on_c, 0, 48, 0
2, 25542, Note_on_c, 0, 70, 77
2, 25588, Note_on_c, 0, 69, 0
2, 25674, Note_on_c, 0, 80, 80
2, 25677, Note_on_c, 0, 50, 63
2, 25706, Note_on_c, 0, 70, 0
2, 25747, Note_on_c, 0, 50, 0
2, 25794, Note_on_c, 0, 70, 75
2, 25827, Note_on_c, 0, 80, 0
2, 25903, Note_on_c, 0, 46, 67
2, 25907, Note_on_c, 0, 69, 77
2, 25908, Note_on_c, 0, 70, 0
2, 25970, Note_on_c, 0, 46, 0
2, 26030, Note_on_c, 0, 70, 75
2, 26069, Note_on_c, 0, 69, 0
2, 26144, Note_on_c, 0, 51, 72
2, 26145, Note_on_c, 0, 79, 79
2, 26181, Note_on_c, 0, 70, 0
2, 26220, Note_on_c, 0, 79, 0
2, 26261, Note_on_c, 0, 51, 0
2, 26271, Note_on_c, 0, 55, 65
2, 26383, Note_on_c, 0, 75, 76
2, 26387, Note_on_c, 0, 56, 81
2, 26391, Note_on_c, 0, 55, 0
2, 26457, Note_on_c, 0, 75, 0
2, 26478, Note_on_c, 0, 56, 0
2, 26500, Note_on_c, 0, 55, 67
2, 26622, Note_on_c, 0, 44, 70
2, 26622, Note_on_c, 0, 72, 75
2, 26624, Note_on_c, 0, 55, 0
2, 26656, Note_on_c, 0, 72, 0
2, 26656, Note_on_c, 0, 74, 61
2, 26711, Note_on_c, 0, 44, 0
2, 26713, Note_on_c, 0, 74, 0
2, 26718, Note_on_c, 0, 72, 68
2, 26740, Note_on_c, 0, 55, 61
2, 26780, Note_on_c, 0, 72, 0
2, 26784, Note_on_c, 0, 71, 65
2, 26841, Note_on_c, 0, 55, 0
2, 26857, Note_on_c, 0, 56, 67
2, 26858, Note_on_c, 0, 71, 0
2, 26861, Note_on_c, 0, 72, 66
2, 26941, Note_on_c, 0, 56, 0
2, 26965, Note_on_c, 0, 55, 59
2, 27076, Note_on_c, 0, 55, 0
2, 27095, Note_on_c, 0, 77, 70
2, 27097, Note_on_c, 0, 50, 54
2, 27112, Note_on_c, 0, 72, 0
2, 27147, Note_on_c, 0, 77, 0
2, 27196, Note_on_c, 0, 50, 0
2, 27228, Note_on_c, 0, 53, 53
2, 27322, Note_on_c, 0, 53, 0
2, 27356, Note_on_c, 0, 55, 53
2, 27359, Note_on_c, 0, 74, 68
2, 27398, Note_on_c, 0, 74, 0
2, 27434, Note_on_c, 0, 55, 0
2, 27471, Note_on_c, 0, 53, 52
2, 27569, Note_on_c, 0, 71, 64
2, 27575, Note_on_c, 0, 53, 0
2, 27591, Note_on_c, 0, 43, 47
2, 27612, Note_on_c, 0, 71, 0
2, 27625, Note_on_c, 0, 72, 49
2, 27653, Note_on_c, 0, 72, 0
2, 27661, Note_on_c, 0, 43, 0
2, 27663, Note_on_c, 0, 71, 51
2, 27704, Note_on_c, 0, 53, 52
2, 27724, Note_on_c, 0, 71, 0
2, 27748, Note_on_c, 0, 69, 56
2, 27781, Note_on_c, 0, 53, 0
2, 27781, Note_on_c, 0, 69, 0
2, 27811, Note_on_c, 0, 71, 45
2, 27822, Note_on_c, 0, 55, 51
2, 27933, Note_on_c, 0, 55, 0
2, 27958, Note_on_c, 0, 53, 39
2, 28076, Note_on_c, 0, 53, 0
2, 28083, Note_on_c, 0, 48, 48
2, 28090, Note_on_c, 0, 75, 59
2, 28129, Note_on_c, 0, 48, 0
2, 28141, Note_on_c, 0, 71, 0
2, 28175, Note_on_c, 0, 75, 0
2, 28209, Note_on_c, 0, 63, 54
2, 28318, Note_on_c, 0, 60, 59
2, 28336, Note_on_c, 0, 63, 0
2, 28346, Note_on_c, 0, 62, 48
2, 28402, Note_on_c, 0, 60, 0
2, 28439, Note_on_c, 0, 62, 0
2, 28447, Note_on_c, 0, 63, 43
2, 28546, Note_on_c, 0, 63, 0
2, 28562, Note_on_c, 0, 58, 64
2, 28564, Note_on_c, 0, 67, 60
2, 28630, Note_on_c, 0, 58, 0
2, 28676, Note_on_c, 0, 67, 0
2, 28682, Note_on_c, 0, 63, 59
2, 28791, Note_on_c, 0, 63, 0
2, 28800, Note_on_c, 0, 56, 63
2, 28800, Note_on_c, 0, 62, 58
2, 28881, Note_on_c, 0, 56, 0
2, 28916, Note_on_c, 0, 63, 58
2, 28991, Note_on_c, 0, 62, 0
2, 29040, Note_on_c, 0, 55, 60
2, 29042, Note_on_c, 0, 70, 70
2, 29050, Note_on_c, 0, 63, 0
2, 29107, Note_on_c, 0, 55, 0
2, 29154, Note_on_c, 0, 70, 0
2, 29160, Note_on_c, 0, 63, 59
2, 29268, Note_on_c, 0, 53, 65
2, 29268, Note_on_c, 0, 63, 0
2, 29275, Note_on_c, 0, 62, 67
2, 29374, Note_on_c, 0, 53, 0
2, 29391, Note_on_c, 0, 63, 66
2, 29439, Note_on_c, 0, 62, 0
2, 29523, Note_on_c, 0, 73, 69
2, 29525, Note_on_c, 0, 55, 63
2, 29543, Note_on_c, 0, 63, 0
2, 29620, Note_on_c, 0, 55, 0
2, 29630, Note_on_c, 0, 73, 0
2, 29645, Note_on_c, 0, 63, 62
2, 29749, Note_on_c, 0, 63, 0
2, 29759, Note_on_c, 0, 51, 65
2, 29759, Note_on_c, 0, 62, 65
2, 29813, Note_on_c, 0, 51, 0
2, 29868, Note_on_c, 0, 62, 0
2, 29874, Note_on_c, 0, 63, 71
2, 30001, Note_on_c, 0, 56, 57
2, 30011, Note_on_c, 0, 72, 73
2, 30034, Note_on_c, 0, 63, 0
2, 30058, Note_on_c, 0, 72, 0
2, 30104, Note_on_c, 0, 56, 0
2, 30137, Note_on_c, 0, 60, 60
2, 30252, Note_on_c, 0, 60, 0
2, 30265, Note_on_c, 0, 68, 69
2, 30270, Note_on_c, 0, 61, 58
2, 30312, Note_on_c, 0, 68, 0
2, 30350, Note_on_c, 0, 61, 0
2, 30391, Note_on_c, 0, 60, 47
2, 30456, Note_on_c, 0, 60, 0
2, 30490, Note_on_c, 0, 65, 61
2, 30500, Note_on_c, 0, 49, 51
2, 30529, Note_on_c, 0, 65, 0
2, 30552, Note_on_c, 0, 67, 44
2, 30560, Note_on_c, 0, 49, 0
2, 30583, Note_on_c, 0, 67, 0
2, 30593, Note_on_c, 0, 65, 54
2, 30601, Note_on_c, 0, 60, 53
2, 30639, Note_on_c, 0, 65, 0
2, 30669, Note_on_c, 0, 64, 50
2, 30708, Note_on_c, 0, 60, 0
2, 30725, Note_on_c, 0, 64, 0
2, 30734, Note_on_c, 0, 61, 54
2, 30735, Note_on_c, 0, 65, 59
2, 30827, Note_on_c, 0, 61, 0
2, 30845, Note_on_c, 0, 60, 51
2, 30953, Note_on_c, 0, 60, 0
2, 30982, Note_on_c, 0, 65, 0
2, 30985, Note_on_c, 0, 55, 39
2, 30991, Note_on_c, 0, 70, 55
2, 31067, Note_on_c, 0, 70, 0
2, 31069, Note_on_c, 0, 55, 0
2, 31107, Note_on_c, 0, 58, 52
2, 31202, Note_on_c, 0, 58, 0
2, 31231, Note_on_c, 0, 67, 53
2, 31245, Note_on_c, 0, 60, 47
2, 31274, Note_on_c, 0, 67, 0
2, 31328, Note_on_c, 0, 60, 0
2, 31369, Note_on_c, 0, 58, 49
2, 31462, Note_on_c, 0, 64, 49
2, 31467, Note_on_c, 0, 58, 0
2, 31485, Note_on_c, 0, 48, 41
2, 31489, Note_on_c, 0, 64, 0
2, 31510, Note_on_c, 0, 65, 48
2, 31546, Note_on_c, 0, 65, 0
2, 31549, Note_on_c, 0, 48, 0
2, 31572, Note_on_c, 0, 64, 58
2, 31606, Note_on_c, 0, 58, 48
2, 31612, Note_on_c, 0, 64, 0
2, 31626, Note_on_c, 0, 62, 50
2, 31694, Note_on_c, 0, 58, 0
2, 31713, Note_on_c, 0, 62, 0
2, 31733, Note_on_c, 0, 64, 61
2, 31738, Note_on_c, 0, 60, 43
2, 31802, Note_on_c, 0, 64, 0
2, 31825, Note_on_c, 0, 60, 0
2, 31853, Note_on_c, 0, 58, 45
2, 31972, Note_on_c, 0, 53, 44
2, 31980, Note_on_c, 0, 58, 0
2, 31990, Note_on_c, 0, 68, 54
2, 32024, Note_on_c, 0, 53, 0
2, 32097, Note_on_c, 0, 68, 0
2, 32112, Note_on_c, 0, 72, 55
2, 32186, Note_on_c, 0, 72, 0
2, 32233, Note_on_c, 0, 56, 48
2, 32239, Note_on_c, 0, 71, 44
2, 32308, Note_on_c, 0, 56, 0
2, 32321, Note_on_c, 0, 71, 0
2, 32344, Note_on_c, 0, 72, 55
2, 32463, Note_on_c, 0, 72, 0
2, 32489, Note_on_c, 0, 73, 51
2, 32492, Note_on_c, 0, 53, 37
2, 32536, Note_on_c, 0, 53, 0
2, 32585, Note_on_c, 0, 73, 0
2, 32606, Note_on_c, 0, 72, 56
2, 32713, Note_on_c, 0, 72, 0
2, 32730, Note_on_c, 0, 61, 44
2, 32738, Note_on_c, 0, 71, 54
2, 32788, Note_on_c, 0, 61, 0
2, 32829, Note_on_c, 0, 71, 0
2, 32855, Note_on_c, 0, 72, 56
2, 32964, Note_on_c, 0, 52, 49
2, 32969, Note_on_c, 0, 72, 0
2, 32986, Note_on_c, 0, 67, 53
2, 33055, Note_on_c, 0, 52, 0
2, 33068, Note_on_c, 0, 67, 0
2, 33097, Note_on_c, 0, 72, 64
2, 33205, Note_on_c, 0, 72, 0
2, 33225, Note_on_c, 0, 71, 59
2, 33228, Note_on_c, 0, 55, 51
2, 33308, Note_on_c, 0, 55, 0
2, 33351, Note_on_c, 0, 72, 67
2, 33353, Note_on_c, 0, 71, 0
2, 33469, Note_on_c, 0, 51, 63
2, 33480, Note_on_c, 0, 72, 0
2, 33480, Note_on_c, 0, 73, 65
2, 33541, Note_on_c, 0, 51, 0
2, 33586, Note_on_c, 0, 73, 0
2, 33595, Note_on_c, 0, 72, 71
2, 33694, Note_on_c, 0, 72, 0
2, 33697, Note_on_c, 0, 60, 65
2, 33703, Note_on_c, 0, 71, 65
2, 33783, Note_on_c, 0, 60, 0
2, 33798, Note_on_c, 0, 71, 0
2, 33822, Note_on_c, 0, 72, 65
2, 33938, Note_on_c, 0, 72, 0
2, 33941, Note_on_c, 0, 50, 56
2, 33952, Note_on_c, 0, 65, 71
2, 34021, Note_on_c, 0, 50, 0
2, 34060, Note_on_c, 0, 65, 0
2, 34066, Note_on_c, 0, 72, 76
2, 34186, Note_on_c, 0, 74, 76
2, 34187, Note_on_c, 0, 72, 0
2, 34201, Note_on_c, 0, 53, 58
2, 34262, Note_on_c, 0, 53, 0
2, 34305, Note_on_c, 0, 76, 78
2, 34320, Note_on_c, 0, 74, 0
2, 34421, Note_on_c, 0, 77, 84
2, 34427, Note_on_c, 0, 49, 57
2, 34438, Note_on_c, 0, 76, 0
2, 34484, Note_on_c, 0, 49, 0
2, 34551, Note_on_c, 0, 70, 78
2, 34551, Note_on_c, 0, 77, 0
2, 34649, Note_on_c, 0, 70, 0
2, 34660, Note_on_c, 0, 58, 61
2, 34660, Note_on_c, 0, 69, 72
2, 34751, Note_on_c, 0, 58, 0
2, 34759, Note_on_c, 0, 70, 79
2, 34794, Note_on_c, 0, 69, 0
2, 34904, Note_on_c, 0, 79, 79
2, 34911, Note_on_c, 0, 48, 60
2, 34914, Note_on_c, 0, 70, 0
2, 35000, Note_on_c, 0, 48, 0
2, 35026, Note_on_c, 0, 77, 81
2, 35036, Note_on_c, 0, 79, 0
2, 35158, Note_on_c, 0, 50, 63
2, 35158, Note_on_c, 0, 76, 76
2, 35163, Note_on_c, 0, 77, 0
2, 35230, Note_on_c, 0, 50, 0
2, 35268, Note_on_c, 0, 74, 69
2, 35278, Note_on_c, 0, 76, 0
2, 35351, Note_on_c, 0, 74, 0
2, 35377, Note_on_c, 0, 52, 63
2, 35384, Note_on_c, 0, 72, 68
2, 35452, Note_on_c, 0, 52, 0
2, 35474, Note_on_c, 0, 72, 0
2, 35487, Note_on_c, 0, 70, 65
2, 35602, Note_on_c, 0, 70, 0
2, 35612, Note_on_c, 0, 68, 67
2, 35627, Note_on_c, 0, 48, 58
2, 35671, Note_on_c, 0, 48, 0
2, 35694, Note_on_c, 0, 68, 0
2, 35728, Note_on_c, 0, 67, 59
2, 35838, Note_on_c, 0, 67, 0
2, 35842, Note_on_c, 0, 53, 62
2, 35843, Note_on_c, 0, 68, 62
2, 35932, Note_on_c, 0, 53, 0
2, 35952, Note_on_c, 0, 68, 0
2, 35959, Note_on_c, 0, 56, 55
2, 35973, Note_on_c, 0, 65, 61
2, 36041, Note_on_c, 0, 56, 0
2, 36068, Note_on_c, 0, 65, 0
2, 36072, Note_on_c, 0, 55, 51
2, 36085, Note_on_c, 0, 64, 60
2, 36179, Note_on_c, 0, 55, 0
2, 36196, Note_on_c, 0, 56, 45
2, 36204, Note_on_c, 0, 64, 0
2, 36210, Note_on_c, 0, 65, 61
2, 36288, Note_on_c, 0, 56, 0
2, 36307, Note_on_c, 0, 65, 0
2, 36310, Note_on_c, 0, 51, 53
2, 36330, Note_on_c, 0, 72, 63
2, 36407, Note_on_c, 0, 51, 0
2, 36427, Note_on_c, 0, 72, 0
2, 36444, Note_on_c, 0, 68, 63
2, 36468, Note_on_c, 0, 60, 26
2, 36515, Note_on_c, 0, 60, 0
2, 36548, Note_on_c, 0, 68, 0
2, 36565, Note_on_c, 0, 58, 44
2, 36570, Note_on_c, 0, 67, 60
2, 36645, Note_on_c, 0, 58, 0
2, 36671, Note_on_c, 0, 60, 42
2, 36676, Note_on_c, 0, 67, 0
2, 36681, Note_on_c, 0, 68, 65
2, 36775, Note_on_c, 0, 68, 0
2, 36787, Note_on_c, 0, 60, 0
2, 36808, Note_on_c, 0, 77, 62
2, 36809, Note_on_c, 0, 49, 58
2, 36849, Note_on_c, 0, 49, 0
2, 36895, Note_on_c, 0, 77, 0
2, 36909, Note_on_c, 0, 75, 60
2, 37029, Note_on_c, 0, 73, 62
2, 37033, Note_on_c, 0, 53, 73
2, 37034, Note_on_c, 0, 75, 0
2, 37089, Note_on_c, 0, 53, 0
2, 37108, Note_on_c, 0, 73, 0
2, 37151, Note_on_c, 0, 72, 58
2, 37235, Note_on_c, 0, 72, 0
2, 37280, Note_on_c, 0, 58, 61
2, 37286, Note_on_c, 0, 70, 54
2, 37309, Note_on_c, 0, 58, 0
2, 37391, Note_on_c, 0, 68, 55
2, 37413, Note_on_c, 0, 70, 0
2, 37500, Note_on_c, 0, 68, 0
2, 37508, Note_on_c, 0, 67, 64
2, 37510, Note_on_c, 0, 61, 57
2, 37558, Note_on_c, 0, 61, 0
2, 37576, Note_on_c, 0, 67, 0
2, 37628, Note_on_c, 0, 65, 53
2, 37734, Note_on_c, 0, 65, 0
2, 37741, Note_on_c, 0, 51, 57
2, 37746, Note_on_c, 0, 67, 50
2, 37833, Note_on_c, 0, 51, 0
2, 37840, Note_on_c, 0, 67, 0
2, 37868, Note_on_c, 0, 63, 56
2, 37871, Note_on_c, 0, 55, 50
2, 37959, Note_on_c, 0, 63, 0
2, 37960, Note_on_c, 0, 55, 0
2, 37983, Note_on_c, 0, 62, 56
2, 37999, Note_on_c, 0, 53, 45
2, 38068, Note_on_c, 0, 53, 0
2, 38075, Note_on_c, 0, 62, 0
2, 38086, Note_on_c, 0, 63, 57
2, 38093, Note_on_c, 0, 55, 51
2, 38182, Note_on_c, 0, 55, 0
2, 38188, Note_on_c, 0, 63, 0
2, 38196, Note_on_c, 0, 49, 45
2, 38203, Note_on_c, 0, 70, 58
2, 38279, Note_on_c, 0, 49, 0
2, 38294, Note_on_c, 0, 70, 0
2, 38307, Note_on_c, 0, 58, 42
2, 38319, Note_on_c, 0, 67, 54
2, 38380, Note_on_c, 0, 58, 0
2, 38395, Note_on_c, 0, 67, 0
2, 38409, Note_on_c, 0, 56, 43
2, 38421, Note_on_c, 0, 65, 56
2, 38491, Note_on_c, 0, 65, 0
2, 38501, Note_on_c, 0, 56, 0
2, 38527, Note_on_c, 0, 58, 51
2, 38534, Note_on_c, 0, 67, 52
2, 38668, Note_on_c, 0, 48, 47
2, 38676, Note_on_c, 0, 67, 0
2, 38684, Note_on_c, 0, 58, 0
2, 38686, Note_on_c, 0, 75, 58
2, 38739, Note_on_c, 0, 48, 0
2, 38804, Note_on_c, 0, 75, 0
2, 38812, Note_on_c, 0, 73, 55
2, 38891, Note_on_c, 0, 73, 0
2, 38912, Note_on_c, 0, 51, 60
2, 38920, Note_on_c, 0, 72, 62
2, 38983, Note_on_c, 0, 51, 0
2, 39013, Note_on_c, 0, 72, 0
2, 39047, Note_on_c, 0, 70, 51
2, 39153, Note_on_c, 0, 56, 61
2, 39153, Note_on_c, 0, 70, 0
2, 39163, Note_on_c, 0, 68, 55
2, 39190, Note_on_c, 0, 56, 0
2, 39267, Note_on_c, 0, 68, 0
2, 39273, Note_on_c, 0, 67, 59
2, 39362, Note_on_c, 0, 67, 0
2, 39376, Note_on_c, 0, 60, 55
2, 39398, Note_on_c, 0, 65, 55
2, 39429, Note_on_c, 0, 60, 0
2, 39483, Note_on_c, 0, 65, 0
2, 39501, Note_on_c, 0, 64, 56
2, 39595, Note_on_c, 0, 64, 0
2, 39622, Note_on_c, 0, 49, 42
2, 39623, Note_on_c, 0, 65, 61
2, 39714, Note_on_c, 0, 49, 0
2, 39741, Note_on_c, 0, 53, 53
2, 39750, Note_on_c, 0, 65, 0
2, 39856, Note_on_c, 0, 53, 0
2, 39868, Note_on_c, 0, 69, 62
2, 39880, Note_on_c, 0, 51, 54
2, 39974, Note_on_c, 0, 51, 0
2, 39989, Note_on_c, 0, 53, 52
2, 40001, Note_on_c, 0, 69, 0
2, 40088, Note_on_c, 0, 53, 0
2, 40099, Note_on_c, 0, 70, 71
2, 40110, Note_on_c, 0, 54, 56
2, 40225, Note_on_c, 0, 54, 0
2, 40231, Note_on_c, 0, 70, 0
2, 40232, Note_on_c, 0, 53, 62
2, 40328, Note_on_c, 0, 53, 0
2, 40349, Note_on_c, 0, 51, 63
2, 40356, Note_on_c, 0, 72, 70
2, 40463, Note_on_c, 0, 51, 0
2, 40464, Note_on_c, 0, 53, 64
2, 40498, Note_on_c, 0, 72, 0
2, 40578, Note_on_c, 0, 53, 0
2, 40588, Note_on_c, 0, 46, 65
2, 40591, Note_on_c, 0, 73, 80
2, 40706, Note_on_c, 0, 53, 69
2, 40713, Note_on_c, 0, 46, 0
2, 40761, Note_on_c, 0, 73, 0
2, 40811, Note_on_c, 0, 53, 0
2, 40826, Note_on_c, 0, 76, 81
2, 40834, Note_on_c, 0, 55, 68
2, 40944, Note_on_c, 0, 55, 0
2, 40951, Note_on_c, 0, 56, 70
2, 40981, Note_on_c, 0, 76, 0
2, 41061, Note_on_c, 0, 56, 0
2, 41073, Note_on_c, 0, 77, 84
2, 41080, Note_on_c, 0, 55, 63
2, 41192, Note_on_c, 0, 55, 0
2, 41196, Note_on_c, 0, 53, 65
2, 41196, Note_on_c, 0, 77, 0
2, 41293, Note_on_c, 0, 53, 0
2, 41308, Note_on_c, 0, 52, 67
2, 41327, Note_on_c, 0, 79, 76
2, 41403, Note_on_c, 0, 79, 0
2, 41405, Note_on_c, 0, 52, 0
2, 41430, Note_on_c, 0, 53, 66
2, 41544, Note_on_c, 0, 53, 0
2, 41557, Note_on_c, 0, 44, 75
2, 41570, Note_on_c, 0, 72, 72
2, 41631, Note_on_c, 0, 44, 0
2, 41671, Note_on_c, 0, 72, 0
2, 41673, Note_on_c, 0, 76, 71
2, 41800, Note_on_c, 0, 41, 72
2, 41806, Note_on_c, 0, 76, 0
2, 41809, Note_on_c, 0, 77, 71
2, 41863, Note_on_c, 0, 41, 0
2, 41919, Note_on_c, 0, 80, 76
2, 41940, Note_on_c, 0, 77, 0
2, 42032, Note_on_c, 0, 80, 0
2, 42033, Note_on_c, 0, 48, 74
2, 42042, Note_on_c, 0, 70, 75
2, 42101, Note_on_c, 0, 48, 0
2, 42154, Note_on_c, 0, 70, 0
2, 42154, Note_on_c, 0, 79, 76
2, 42270, Note_on_c, 0, 77, 81
2, 42270, Note_on_c, 0, 79, 0
2, 42276, Note_on_c, 0, 36, 63
2, 42350, Note_on_c, 0, 36, 0
2, 42379, Note_on_c, 0, 76, 77
2, 42396, Note_on_c, 0, 77, 0
2, 42508, Note_on_c, 0, 76, 0
2, 42520, Note_on_c, 0, 41, 74
2, 42520, Note_on_c, 0, 68, 73
2, 42607, Note_on_c, 0, 41, 0
2, 42631, Note_on_c, 0, 72, 73
2, 42638, Note_on_c, 0, 68, 0
2, 42762, Note_on_c, 0, 44, 75
2, 42767, Note_on_c, 0, 76, 71
2, 42805, Note_on_c, 0, 72, 0
2, 42830, Note_on_c, 0, 44, 0
2, 42892, Note_on_c, 0, 77, 67
2, 42895, Note_on_c, 0, 76, 0
2, 43000, Note_on_c, 0, 77, 0
2, 43001, Note_on_c, 0, 46, 67
2, 43003, Note_on_c, 0, 67, 62
2, 43073, Note_on_c, 0, 67, 0
2, 43086, Note_on_c, 0, 46, 0
2, 43114, Note_on_c, 0, 73, 64
2, 43239, Note_on_c, 0, 73, 0
2, 43242, Note_on_c, 0, 48, 60
2, 43242, Note_on_c, 0, 72, 66
2, 43307, Note_on_c, 0, 48, 0
2, 43343, Note_on_c, 0, 72, 0
2, 43356, Note_on_c, 0, 70, 66
2, 43475, Note_on_c, 0, 53, 57
2, 43477, Note_on_c, 0, 68, 73
2, 43504, Note_on_c, 0, 70, 0
2, 43582, Note_on_c, 0, 68, 0
2, 43588, Note_on_c, 0, 67, 66
2, 43605, Note_on_c, 0, 53, 0
2, 43707, Note_on_c, 0, 67, 0
2, 43708, Note_on_c, 0, 55, 60
2, 43709, Note_on_c, 0, 65, 69
2, 43816, Note_on_c, 0, 64, 66
2, 43820, Note_on_c, 0, 65, 0
2, 43831, Note_on_c, 0, 55, 0
2, 43933, Note_on_c, 0, 64, 0
2, 43947, Note_on_c, 0, 56, 64
2, 43948, Note_on_c, 0, 65, 59
2, 44030, Note_on_c, 0, 56, 0
2, 44075, Note_on_c, 0, 65, 0
2, 44084, Note_on_c, 0, 68, 58
2, 44192, Note_on_c, 0, 68, 0
2, 44193, Note_on_c, 0, 53, 56
2, 44196, Note_on_c, 0, 60, 56
2, 44239, Note_on_c, 0, 53, 0
2, 44293, Note_on_c, 0, 60, 0
2, 44318, Note_on_c, 0, 63, 52
2, 44446, Note_on_c, 0, 63, 0
2, 44465, Note_on_c, 0, 62, 52
2, 44468, Note_on_c, 0, 58, 44
2, 44523, Note_on_c, 0, 58, 0
2, 44570, Note_on_c, 0, 62, 0
2, 44584, Note_on_c, 0, 68, 53
2, 44679, Note_on_c, 0, 68, 0
2, 44703, Note_on_c, 0, 65, 52
2, 44721, Note_on_c, 0, 46, 44
2, 44790, Note_on_c, 0, 46, 0
2, 44811, Note_on_c, 0, 65, 0
2, 44832, Note_on_c, 0, 62, 52
2, 44953, Note_on_c, 0, 62, 0
2, 44959, Note_on_c, 0, 58, 43
2, 45074, Note_on_c, 0, 56, 57
2, 45091, Note_on_c, 0, 58, 0
2, 45161, Note_on_c, 0, 56, 0
2, 45190, Note_on_c, 0, 55, 56
2, 45291, Note_on_c, 0, 55, 0
2, 45311, Note_on_c, 0, 53, 63
2, 45421, Note_on_c, 0, 53, 0
2, 45431, Note_on_c, 0, 51, 61
2, 45443, Note_on_c, 0, 67, 63
2, 45501, Note_on_c, 0, 51, 0
2, 45544, Note_on_c, 0, 67, 0
2, 45564, Note_on_c, 0, 65, 60
2, 45679, Note_on_c, 0, 63, 59
2, 45682, Note_on_c, 0, 53, 61
2, 45682, Note_on_c, 0, 65, 0
2, 45733, Note_on_c, 0, 53, 0
2, 45782, Note_on_c, 0, 63, 0
2, 45799, Note_on_c, 0, 62, 55
2, 45907, Note_on_c, 0, 62, 0
2, 45915, Note_on_c, 0, 55, 55
2, 45920, Note_on_c, 0, 63, 59
2, 45968, Note_on_c, 0, 55, 0
2, 46023, Note_on_c, 0, 63, 0
2, 46040, Note_on_c, 0, 67, 54
2, 46145, Note_on_c, 0, 51, 55
2, 46153, Note_on_c, 0, 59, 48
2, 46174, Note_on_c, 0, 67, 0
2, 46207, Note_on_c, 0, 51, 0
2, 46231, Note_on_c, 0, 59, 0
2, 46256, Note_on_c, 0, 62, 50
2, 46366, Note_on_c, 0, 62, 0
2, 46401, Note_on_c, 0, 60, 51
2, 46404, Note_on_c, 0, 56, 54
2, 46455, Note_on_c, 0, 56, 0
2, 46505, Note_on_c, 0, 60, 0
2, 46514, Note_on_c, 0, 67, 52
2, 46612, Note_on_c, 0, 67, 0
2, 46643, Note_on_c, 0, 63, 49
2, 46654, Note_on_c, 0, 44, 52
2, 46728, Note_on_c, 0, 44, 0
2, 46742, Note_on_c, 0, 63, 0
2, 46759, Note_on_c, 0, 60, 52
2, 46890, Note_on_c, 0, 60, 0
2, 46896, Note_on_c, 0, 56, 55
2, 46994, Note_on_c, 0, 55, 53
2, 47030, Note_on_c, 0, 56, 0
2, 47113, Note_on_c, 0, 55, 0
2, 47143, Note_on_c, 0, 53, 45
2, 47225, Note_on_c, 0, 53, 0
2, 47247, Note_on_c, 0, 51, 56
2, 47370, Note_on_c, 0, 50, 52
2, 47375, Note_on_c, 0, 51, 0
2, 47396, Note_on_c, 0, 65, 49
2, 47438, Note_on_c, 0, 50, 0
2, 47505, Note_on_c, 0, 65, 0
2, 47512, Note_on_c, 0, 63, 53
2, 47611, Note_on_c, 0, 63, 0
2, 47612, Note_on_c, 0, 51, 59
2, 47636, Note_on_c, 0, 62, 55
2, 47656, Note_on_c, 0, 51, 0
2, 47721, Note_on_c, 0, 62, 0
2, 47745, Note_on_c, 0, 60, 54
2, 47863, Note_on_c, 0, 60, 0
2, 47864, Note_on_c, 0, 53, 47
2, 47873, Note_on_c, 0, 62, 54
2, 47916, Note_on_c, 0, 53, 0
2, 47973, Note_on_c, 0, 62, 0
2, 47991, Note_on_c, 0, 65, 52
2, 48098, Note_on_c, 0, 50, 49
2, 48118, Note_on_c, 0, 65, 0
2, 48121, Note_on_c, 0, 68, 57
2, 48147, Note_on_c, 0, 50, 0
2, 48201, Note_on_c, 0, 68, 0
2, 48226, Note_on_c, 0, 60, 56
2, 48340, Note_on_c, 0, 60, 0
2, 48347, Note_on_c, 0, 55, 55
2, 48353, Note_on_c, 0, 59, 58
2, 48400, Note_on_c, 0, 55, 0
2, 48453, Note_on_c, 0, 59, 0
2, 48464, Note_on_c, 0, 65, 53
2, 48570, Note_on_c, 0, 65, 0
2, 48600, Note_on_c, 0, 43, 53
2, 48612, Note_on_c, 0, 62, 59
2, 48677, Note_on_c, 0, 43, 0
2, 48700, Note_on_c, 0, 62, 0
2, 48725, Note_on_c, 0, 59, 55
2, 48823, Note_on_c, 0, 59, 0
2, 48851, Note_on_c, 0, 55, 61
2, 48946, Note_on_c, 0, 55, 0
2, 48961, Note_on_c, 0, 59, 59
2, 48964, Note_on_c, 0, 53, 51
2, 49038, Note_on_c, 0, 53, 0
2, 49082, Note_on_c, 0, 51, 51
2, 49083, Note_on_c, 0, 60, 66
2, 49085, Note_on_c, 0, 59, 0
2, 49156, Note_on_c, 0, 51, 0
2, 49175, Note_on_c, 0, 60, 0
2, 49201, Note_on_c, 0, 62, 67
2, 49211, Note_on_c, 0, 50, 46
2, 49313, Note_on_c, 0, 50, 0
2, 49334, Note_on_c, 0, 63, 78
2, 49335, Note_on_c, 0, 48, 51
2, 49346, Note_on_c, 0, 62, 0
2, 49455, Note_on_c, 0, 48, 0
2, 49464, Note_on_c, 0, 50, 55
2, 49560, Note_on_c, 0, 50, 0
2, 49582, Note_on_c, 0, 67, 66
2, 49583, Note_on_c, 0, 51, 54
2, 49637, Note_on_c, 0, 67, 0
2, 49680, Note_on_c, 0, 51, 0
2, 49714, Note_on_c, 0, 48, 46
2, 49841, Note_on_c, 0, 48, 0
2, 49861, Note_on_c, 0, 44, 45
2, 49885, Note_on_c, 0, 72, 74
2, 49949, Note_on_c, 0, 63, 0
2, 49984, Note_on_c, 0, 44, 0
2, 50014, Note_on_c, 0, 55, 54
2, 50034, Note_on_c, 0, 70, 62
2, 50136, Note_on_c, 0, 55, 0
2, 50161, Note_on_c, 0, 53, 48
2, 50169, Note_on_c, 0, 68, 68
2, 50174, Note_on_c, 0, 70, 0
2, 50246, Note_on_c, 0, 68, 0
2, 50256, Note_on_c, 0, 53, 0
2, 50273, Note_on_c, 0, 51, 59
2, 50273, Note_on_c, 0, 67, 61
2, 50375, Note_on_c, 0, 67, 0
2, 50382, Note_on_c, 0, 51, 0
2, 50390, Note_on_c, 0, 65, 63
2, 50401, Note_on_c, 0, 50, 54
2, 50475, Note_on_c, 0, 65, 0
2, 50484, Note_on_c, 0, 50, 0
2, 50496, Note_on_c, 0, 67, 64
2, 50508, Note_on_c, 0, 51, 62
2, 50594, Note_on_c, 0, 67, 0
2, 50603, Note_on_c, 0, 51, 0
2, 50622, Note_on_c, 0, 68, 62
2, 50636, Note_on_c, 0, 53, 53
2, 50719, Note_on_c, 0, 53, 0
2, 50721, Note_on_c, 0, 68, 0
2, 50725, Note_on_c, 0, 65, 58
2, 50749, Note_on_c, 0, 50, 48
2, 50799, Note_on_c, 0, 72, 0
2, 50839, Note_on_c, 0, 50, 0
2, 50839, Note_on_c, 0, 65, 0
2, 50862, Note_on_c, 0, 62, 56
2, 50869, Note_on_c, 0, 46, 53
2, 50988, Note_on_c, 0, 72, 68
2, 51006, Note_on_c, 0, 46, 0
2, 51012, Note_on_c, 0, 56, 58
2, 51106, Note_on_c, 0, 72, 0
2, 51114, Note_on_c, 0, 56, 0
2, 51115, Note_on_c, 0, 70, 71
2, 51127, Note_on_c, 0, 55, 61
2, 51129, Note_on_c, 0, 62, 0
2, 51219, Note_on_c, 0, 68, 76
2, 51223, Note_on_c, 0, 55, 0
2, 51233, Note_on_c, 0, 70, 0
2, 51239, Note_on_c, 0, 53, 63
2, 51324, Note_on_c, 0, 53, 0
2, 51333, Note_on_c, 0, 68, 0
2, 51344, Note_on_c, 0, 51, 65
2, 51344, Note_on_c, 0, 67, 69
2, 51405, Note_on_c, 0, 51, 0
2, 51456, Note_on_c, 0, 68, 71
2, 51460, Note_on_c, 0, 67, 0
2, 51575, Note_on_c, 0, 68, 0
2, 51577, Note_on_c, 0, 50, 56
2, 51577, Note_on_c, 0, 70, 72
2, 51640, Note_on_c, 0, 50, 0
2, 51691, Note_on_c, 0, 70, 0
2, 51694, Note_on_c, 0, 67, 69
2, 51823, Note_on_c, 0, 51, 59
2, 51825, Note_on_c, 0, 60, 77
2, 51857, Note_on_c, 0, 67, 0
2, 51912, Note_on_c, 0, 51, 0
2, 51938, Note_on_c, 0, 60, 0
2, 51966, Note_on_c, 0, 73, 77
2, 52086, Note_on_c, 0, 72, 80
2, 52100, Note_on_c, 0, 52, 63
2, 52105, Note_on_c, 0, 73, 0
2, 52194, Note_on_c, 0, 70, 79
2, 52200, Note_on_c, 0, 52, 0
2, 52205, Note_on_c, 0, 72, 0
2, 52314, Note_on_c, 0, 68, 76
2, 52325, Note_on_c, 0, 53, 66
2, 52331, Note_on_c, 0, 70, 0
2, 52389, Note_on_c, 0, 53, 0
2, 52426, Note_on_c, 0, 70, 76
2, 52454, Note_on_c, 0, 68, 0
2, 52552, Note_on_c, 0, 72, 81
2, 52564, Note_on_c, 0, 70, 0
2, 52567, Note_on_c, 0, 52, 69
2, 52632, Note_on_c, 0, 52, 0
2, 52664, Note_on_c, 0, 68, 77
2, 52672, Note_on_c, 0, 72, 0
2, 52809, Note_on_c, 0, 62, 78
2, 52811, Note_on_c, 0, 53, 68
2, 52822, Note_on_c, 0, 68, 0
2, 52919, Note_on_c, 0, 62, 0
2, 52934, Note_on_c, 0, 53, 0
2, 52945, Note_on_c, 0, 75, 85
2, 53074, Note_on_c, 0, 74, 79
2, 53086, Note_on_c, 0, 75, 0
2, 53094, Note_on_c, 0, 54, 73
2, 53191, Note_on_c, 0, 54, 0
2, 53195, Note_on_c, 0, 72, 83
2, 53226, Note_on_c, 0, 74, 0
2, 53352, Note_on_c, 0, 71, 82
2, 53367, Note_on_c, 0, 55, 66
2, 53388, Note_on_c, 0, 72, 0
2, 53530, Note_on_c, 0, 67, 75
2, 53534, Note_on_c, 0, 55, 0
2, 53542, Note_on_c, 0, 53, 69
2, 53645, Note_on_c, 0, 71, 0
2, 53660, Note_on_c, 0, 72, 80
2, 53665, Note_on_c, 0, 53, 0
2, 53667, Note_on_c, 0, 51, 74
2, 53683, Note_on_c, 0, 67, 0
2, 53766, Note_on_c, 0, 51, 0
2, 53781, Note_on_c, 0, 74, 87
2, 53788, Note_on_c, 0, 53, 67
2, 53805, Note_on_c, 0, 72, 0
2, 53916, Note_on_c, 0, 53, 0
2, 53930, Note_on_c, 0, 75, 85
2, 53931, Note_on_c, 0, 72, 73
2, 53948, Note_on_c, 0, 55, 61
2, 53954, Note_on_c, 0, 74, 0
2, 54017, Note_on_c, 0, 72, 0
2, 54021, Control_c, 0, 64, 32
2, 54036, Control_c, 0, 64, 42
2, 54052, Control_c, 0, 64, 47
2, 54066, Control_c, 0, 64, 51
2, 54082, Control_c, 0, 64, 54
2, 54097, Control_c, 0, 64, 56
2, 54102, Note_on_c, 0, 67, 57
2, 54112, Control_c, 0, 64, 58
2, 54128, Control_c, 0, 64, 58
2, 54157, Control_c, 0, 64, 55
2, 54173, Control_c, 0, 64, 46
2, 54187, Control_c, 0, 64, 0
2, 54239, Note_on_c, 0, 74, 78
2, 54247, Note_on_c, 0, 71, 71
2, 54248, Note_on_c, 0, 43, 63
2, 54253, Note_on_c, 0, 67, 0
2, 54260, Note_on_c, 0, 55, 0
2, 54276, Note_on_c, 0, 75, 0
2, 54279, Control_c, 0, 64, 11
2, 54295, Control_c, 0, 64, 45
2, 54310, Control_c, 0, 64, 54
2, 54326, Control_c, 0, 64, 59
2, 54334, Note_on_c, 0, 71, 0
2, 54341, Control_c, 0, 64, 62
2, 54356, Control_c, 0, 64, 64
2, 54371, Control_c, 0, 64, 65
2, 54374, Note_on_c, 0, 43, 0
2, 54386, Control_c, 0, 64, 68
2, 54387, Note_on_c, 0, 74, 0
2, 54402, Control_c, 0, 64, 71
2, 54407, Note_on_c, 0, 65, 63
2, 54417, Control_c, 0, 64, 73
2, 54432, Control_c, 0, 64, 74
2, 54447, Control_c, 0, 64, 74
2, 54553, Control_c, 0, 64, 74
2, 54562, Note_on_c, 0, 65, 0
2, 54583, Control_c, 0, 64, 73
2, 54599, Control_c, 0, 64, 72
2, 54612, Note_on_c, 0, 67, 49
2, 54614, Control_c, 0, 64, 68
2, 54617, Note_on_c, 0, 72, 72
2, 54618, Note_on_c, 0, 36, 66
2, 54619, Note_on_c, 0, 63, 57
2, 54628, Control_c, 0, 64, 64
2, 54644, Control_c, 0, 64, 59
2, 54659, Control_c, 0, 64, 51
2, 54674, Control_c, 0, 64, 42
2, 54690, Control_c, 0, 64, 37
2, 54704, Control_c, 0, 64, 34
2, 54772, Note_on_c, 0, 36, 0
2, 54800, Note_on_c, 0, 48, 69
2, 54851, Note_on_c, 0, 48, 0
2, 54895, Control_c, 0, 64, 34
2, 54925, Control_c, 0, 64, 33
2, 54933, Note_on_c, 0, 51, 68
2, 54995, Note_on_c, 0, 51, 0
2, 55016, Control_c, 0, 64, 33
2, 55031, Control_c, 0, 64, 32
2, 55046, Control_c, 0, 64, 32
2, 55074, Note_on_c, 0, 55, 70
2, 55108, Control_c, 0, 64, 31
2, 55130, Note_on_c, 0, 55, 0
2, 55153, Control_c, 0, 64, 30
2, 55169, Control_c, 0, 64, 30
2, 55184, Control_c, 0, 64, 29
2, 55200, Control_c, 0, 64, 28
2, 55214, Control_c, 0, 64, 27
2, 55229, Control_c, 0, 64, 26
2, 55285, Note_on_c, 0, 60, 65
2, 55321, Control_c, 0, 64, 26
2, 55367, Control_c, 0, 64, 25
2, 55397, Control_c, 0, 64, 25
2, 55427, Control_c, 0, 64, 24
2, 55443, Control_c, 0, 64, 24
2, 55458, Control_c, 0, 64, 23
2, 55488, Control_c, 0, 64, 23
2, 55503, Control_c, 0, 64, 21
2, 55526, Control_c, 0, 64, 16
2, 55541, Control_c, 0, 64, 0
2, 55937, Control_c, 0, 64, 22
2, 55952, Control_c, 0, 64, 33
2, 55968, Control_c, 0, 64, 41
2, 55982, Control_c, 0, 64, 46
2, 55997, Control_c, 0, 64, 51
2, 56013, Control_c, 0, 64, 54
2, 56028, Control_c, 0, 64, 57
2, 56044, Control_c, 0, 64, 60
2, 56058, Control_c, 0, 64, 62
2, 56073, Control_c, 0, 64, 63
2, 56089, Control_c, 0, 64, 64
2, 56104, Control_c, 0, 64, 64
2, 56120, Control_c, 0, 64, 65
2, 56149, Control_c, 0, 64, 65
2, 56180, Control_c, 0, 64, 66
2, 56211, Control_c, 0, 64, 66
2, 56242, Control_c, 0, 64, 67
2, 56271, Control_c, 0, 64, 67
2, 56339, Control_c, 0, 64, 68
2, 56401, Control_c, 0, 64, 68
2, 56461, Control_c, 0, 64, 69
2, 56568, Control_c, 0, 64, 68
2, 56613, Control_c, 0, 64, 68
2, 56658, Control_c, 0, 64, 67
2, 56671, Note_on_c, 0, 63, 0
2, 56673, Control_c, 0, 64, 67
2, 56685, Note_on_c, 0, 72, 0
2, 56689, Control_c, 0, 64, 66
2, 56699, Note_on_c, 0, 67, 0
2, 56704, Control_c, 0, 64, 66
2, 56720, Control_c, 0, 64, 65
2, 56730, Note_on_c, 0, 60, 0
2, 56734, Control_c, 0, 64, 65
2, 56750, Control_c, 0, 64, 64
2, 56766, Control_c, 0, 64, 63
2, 56781, Control_c, 0, 64, 62
2, 56796, Control_c, 0, 64, 62
2, 56812, Control_c, 0, 64, 60
2, 56826, Control_c, 0, 64, 59
2, 56842, Control_c, 0, 64, 58
2, 56857, Control_c, 0, 64, 57
2, 56873, Control_c, 0, 64, 56
2, 56889, Control_c, 0, 64, 55
2, 56903, Control_c, 0, 64, 54
2, 56919, Control_c, 0, 64, 53
2, 56934, Control_c, 0, 64, 52
2, 56948, Control_c, 0, 64, 50
2, 56964, Control_c, 0, 64, 46
2, 56979, Control_c, 0, 64, 44
2, 56994, Control_c, 0, 64, 41
2, 57010, Control_c, 0, 64, 39
2, 57024, Control_c, 0, 64, 36
2, 57040, Control_c, 0, 64, 33
2, 57063, Control_c, 0, 64, 30
2, 57079, Control_c, 0, 64, 28
2, 57094, Control_c, 0, 64, 26
2, 57108, Control_c, 0, 64, 23
2, 57124, Control_c, 0, 64, 21
2, 57139, Control_c, 0, 64, 18
2, 57154, Control_c, 0, 64, 16
2, 57169, Control_c, 0, 64, 12
2, 57184, Control_c, 0, 64, 0
2, 57245, Control_c, 0, 67, 14
2, 57260, Control_c, 0, 67, 43
2, 57275, Control_c, 0, 67, 72
2, 57290, Control_c, 0, 67, 103
2, 57305, Control_c, 0, 67, 127
2, 58808,End_track
0, 0, End_of_file
