0, 0, Header, 1, 2, 384
1, 0, Start_track
1, 0, Tempo, 500000
1, 0, Time_signature, 4, 2, 24, 8
1, 1, End_track
2,0,Start_track
2,0, Note_on_c, 0, 67, 40
2,567, Note_on_c, 0, 63, 41
2,656, Note_on_c, 0, 67, 0
2,1123, Note_on_c, 0, 65, 48
2,1255, Note_on_c, 0, 63, 0
2,1690, Note_on_c, 0, 67, 43
2,1754, Note_on_c, 0, 65, 0
2,2240, Note_on_c, 0, 60, 45
2,2383, Note_on_c, 0, 67, 0
2,2816, Note_on_c, 0, 65, 43
2,2926, Note_on_c, 0, 60, 0
2,3349, Note_on_c, 0, 63, 40
2,3522, Note_on_c, 0, 65, 0
2,3646, Note_on_c, 0, 62, 40
2,3664, Note_on_c, 0, 63, 0
2,3967, Note_on_c, 0, 63, 32
2,4010, Note_on_c, 0, 62, 0
2,4588, Note_on_c, 0, 72, 48
2,5132, Note_on_c, 0, 70, 56
2,5169, Note_on_c, 0, 62, 35
2,5239, Note_on_c, 0, 63, 0
2,5240, Note_on_c, 0, 72, 0
2,5731, Note_on_c, 0, 60, 37
2,5731, Note_on_c, 0, 72, 61
2,5807, Note_on_c, 0, 70, 0
2,5815, Note_on_c, 0, 62, 0
2,6327, Note_on_c, 0, 74, 59
2,6338, Note_on_c, 0, 58, 37
2,6403, Note_on_c, 0, 72, 0
2,6416, Note_on_c, 0, 60, 0
2,6915, Note_on_c, 0, 67, 52
2,7012, Note_on_c, 0, 74, 0
2,7511, Note_on_c, 0, 72, 56
2,7515, Note_on_c, 0, 57, 22
2,7600, Note_on_c, 0, 58, 0
2,7631, Note_on_c, 0, 67, 0
2,8060, Note_on_c, 0, 70, 48
2,8122, Note_on_c, 0, 72, 0
2,8327, Note_on_c, 0, 69, 44
2,8331, Note_on_c, 0, 70, 0
2,8637, Note_on_c, 0, 70, 45
2,8658, Note_on_c, 0, 55, 26
2,8694, Note_on_c, 0, 57, 0
2,8765, Note_on_c, 0, 69, 0
2,9045, Note_on_c, 0, 55, 0
2,9319, Note_on_c, 0, 67, 40
2,9951, Note_on_c, 0, 68, 46
2,10051, Note_on_c, 0, 70, 0
2,10571, Note_on_c, 0, 65, 33
2,10675, Note_on_c, 0, 67, 0
2,11158, Note_on_c, 0, 67, 48
2,11238, Note_on_c, 0, 68, 0
2,11764, Note_on_c, 0, 72, 53
2,11765, Note_on_c, 0, 63, 40
2,11854, Note_on_c, 0, 67, 0
2,11867, Note_on_c, 0, 65, 0
2,12396, Note_on_c, 0, 65, 48
2,12486, Note_on_c, 0, 72, 0
2,13002, Note_on_c, 0, 62, 38
2,13006, Note_on_c, 0, 63, 0
2,13289, Note_on_c, 0, 60, 41
2,13338, Note_on_c, 0, 62, 0
2,13593, Note_on_c, 0, 59, 34
2,13637, Note_on_c, 0, 60, 0
2,14182, Note_on_c, 0, 63, 45
2,14195, Note_on_c, 0, 55, 42
2,14217, Note_on_c, 0, 65, 0
2,14461, Note_on_c, 0, 62, 46
2,14474, Note_on_c, 0, 63, 0
2,14588, Note_on_c, 0, 59, 0
2,14772, Note_on_c, 0, 51, 52
2,14773, Note_on_c, 0, 60, 38
2,14773, Note_on_c, 0, 67, 48
2,14832, Note_on_c, 0, 62, 0
2,14852, Note_on_c, 0, 55, 0
2,15355, Note_on_c, 0, 53, 52
2,15371, Note_on_c, 0, 65, 46
2,15375, Note_on_c, 0, 67, 0
2,15421, Note_on_c, 0, 51, 0
2,15958, Note_on_c, 0, 55, 47
2,15961, Note_on_c, 0, 63, 51
2,16046, Note_on_c, 0, 53, 0
2,16062, Note_on_c, 0, 65, 0
2,16532, Note_on_c, 0, 48, 46
2,16608, Note_on_c, 0, 55, 0
2,17116, Note_on_c, 0, 53, 48
2,17122, Note_on_c, 0, 59, 31
2,17122, Note_on_c, 0, 62, 41
2,17171, Note_on_c, 0, 60, 0
2,17260, Note_on_c, 0, 63, 0
2,17261, Note_on_c, 0, 48, 0
2,17709, Note_on_c, 0, 51, 42
2,17733, Note_on_c, 0, 53, 0
2,17961, Note_on_c, 0, 51, 0
2,17990, Note_on_c, 0, 50, 37
2,18272, Note_on_c, 0, 51, 43
2,18272, Note_on_c, 0, 60, 46
2,18284, Note_on_c, 0, 50, 0
2,18336, Note_on_c, 0, 59, 0
2,18386, Note_on_c, 0, 62, 0
2,18528, Note_on_c, 0, 51, 0
2,18553, Note_on_c, 0, 55, 40
2,18804, Note_on_c, 0, 55, 0
2,18814, Note_on_c, 0, 48, 33
2,18815, Note_on_c, 0, 67, 52
2,19073, Note_on_c, 0, 48, 0
2,19085, Note_on_c, 0, 50, 31
2,19119, Note_on_c, 0, 67, 0
2,19338, Note_on_c, 0, 72, 62
2,19352, Note_on_c, 0, 50, 0
2,19359, Note_on_c, 0, 51, 43
2,19580, Note_on_c, 0, 60, 0
2,19590, Note_on_c, 0, 51, 0
2,19632, Note_on_c, 0, 53, 34
2,19861, Note_on_c, 0, 53, 0
2,19870, Note_on_c, 0, 63, 42
2,19883, Note_on_c, 0, 55, 33
2,20130, Note_on_c, 0, 55, 0
2,20140, Note_on_c, 0, 57, 44
2,20286, Note_on_c, 0, 63, 0
2,20380, Note_on_c, 0, 57, 0
2,20408, Note_on_c, 0, 62, 42
2,20412, Note_on_c, 0, 58, 38
2,20592, Note_on_c, 0, 58, 0
2,20642, Note_on_c, 0, 62, 0
2,20660, Note_on_c, 0, 62, 26
2,20682, Note_on_c, 0, 66, 45
2,20939, Note_on_c, 0, 62, 0
2,20941, Note_on_c, 0, 55, 40
2,20941, Note_on_c, 0, 70, 45
2,20947, Note_on_c, 0, 72, 0
2,20950, Note_on_c, 0, 67, 38
2,20983, Note_on_c, 0, 66, 0
2,21157, Note_on_c, 0, 55, 0
2,21192, Note_on_c, 0, 72, 59
2,21204, Note_on_c, 0, 57, 46
2,21208, Note_on_c, 0, 70, 0
2,21282, Note_on_c, 0, 67, 0
2,21439, Note_on_c, 0, 57, 0
2,21451, Note_on_c, 0, 58, 51
2,21456, Note_on_c, 0, 72, 0
2,21460, Note_on_c, 0, 74, 53
2,21703, Note_on_c, 0, 76, 57
2,21708, Note_on_c, 0, 58, 0
2,21711, Note_on_c, 0, 60, 51
2,21742, Note_on_c, 0, 74, 0
2,21947, Note_on_c, 0, 60, 0
2,21956, Note_on_c, 0, 77, 57
2,21976, Note_on_c, 0, 62, 41
2,21995, Note_on_c, 0, 76, 0
2,22197, Note_on_c, 0, 62, 0
2,22223, Note_on_c, 0, 79, 56
2,22227, Note_on_c, 0, 64, 46
2,22284, Note_on_c, 0, 77, 0
2,22443, Note_on_c, 0, 64, 0
2,22485, Note_on_c, 0, 65, 46
2,22486, Note_on_c, 0, 80, 56
2,22494, Note_on_c, 0, 79, 0
2,22710, Note_on_c, 0, 65, 0
2,22729, Note_on_c, 0, 80, 0
2,22741, Note_on_c, 0, 77, 60
2,23015, Note_on_c, 0, 56, 40
2,23019, Note_on_c, 0, 77, 0
2,23027, Note_on_c, 0, 84, 49
2,23286, Note_on_c, 0, 82, 54
2,23333, Note_on_c, 0, 84, 0
2,23356, Note_on_c, 0, 56, 0
2,23529, Note_on_c, 0, 80, 52
2,23538, Note_on_c, 0, 53, 36
2,23565, Note_on_c, 0, 82, 0
2,23794, Note_on_c, 0, 79, 49
2,23812, Note_on_c, 0, 80, 0
2,23858, Note_on_c, 0, 53, 0
2,24018, Note_on_c, 0, 79, 0
2,24043, Note_on_c, 0, 77, 50
2,24058, Note_on_c, 0, 56, 33
2,24266, Note_on_c, 0, 56, 0
2,24319, Note_on_c, 0, 75, 49
2,24375, Note_on_c, 0, 77, 0
2,24602, Note_on_c, 0, 58, 32
2,24606, Note_on_c, 0, 74, 44
2,24622, Note_on_c, 0, 75, 0
2,24860, Note_on_c, 0, 70, 41
2,24906, Note_on_c, 0, 74, 0
2,25106, Note_on_c, 0, 77, 52
2,25142, Note_on_c, 0, 62, 38
2,25155, Note_on_c, 0, 58, 0
2,25172, Note_on_c, 0, 70, 0
2,25394, Note_on_c, 0, 75, 53
2,25436, Note_on_c, 0, 77, 0
2,25641, Note_on_c, 0, 58, 43
2,25657, Note_on_c, 0, 74, 46
2,25693, Note_on_c, 0, 62, 0
2,25717, Note_on_c, 0, 75, 0
2,25877, Note_on_c, 0, 74, 0
2,25909, Note_on_c, 0, 72, 50
2,26156, Note_on_c, 0, 72, 0
2,26165, Note_on_c, 0, 70, 50
2,26171, Note_on_c, 0, 62, 42
2,26212, Note_on_c, 0, 58, 0
2,26425, Note_on_c, 0, 68, 53
2,26441, Note_on_c, 0, 70, 0
2,26556, Control_c, 0, 67, 124
2,26571, Control_c, 0, 67, 120
2,26586, Control_c, 0, 67, 115
2,26601, Control_c, 0, 67, 111
2,26617, Control_c, 0, 67, 107
2,26633, Control_c, 0, 67, 103
2,26648, Control_c, 0, 67, 99
2,26671, Control_c, 0, 67, 95
2,26686, Control_c, 0, 67, 90
2,26692, Note_on_c, 0, 68, 0
2,26700, Control_c, 0, 67, 86
2,26706, Note_on_c, 0, 67, 43
2,26713, Note_on_c, 0, 63, 38
2,26716, Control_c, 0, 67, 82
2,26723, Note_on_c, 0, 62, 0
2,26731, Control_c, 0, 67, 79
2,26747, Control_c, 0, 67, 75
2,26762, Control_c, 0, 67, 70
2,26776, Control_c, 0, 67, 65
2,26792, Control_c, 0, 67, 59
2,26807, Control_c, 0, 67, 53
2,26822, Control_c, 0, 64, 17
2,26822, Control_c, 0, 67, 46
2,26838, Control_c, 0, 64, 43
2,26838, Control_c, 0, 67, 38
2,26853, Control_c, 0, 64, 54
2,26853, Control_c, 0, 67, 29
2,26869, Control_c, 0, 64, 61
2,26869, Control_c, 0, 67, 20
2,26884, Control_c, 0, 64, 64
2,26884, Control_c, 0, 67, 11
2,26899, Control_c, 0, 64, 67
2,26899, Control_c, 0, 67, 0
2,26914, Control_c, 0, 64, 72
2,26923, Note_on_c, 0, 63, 0
2,26929, Control_c, 0, 64, 75
2,26945, Control_c, 0, 64, 78
2,26960, Control_c, 0, 64, 80
2,26974, Control_c, 0, 64, 81
2,27035, Control_c, 0, 64, 80
2,27043, Note_on_c, 0, 60, 50
2,27068, Control_c, 0, 64, 80
2,27083, Control_c, 0, 64, 79
2,27085, Note_on_c, 0, 67, 0
2,27099, Control_c, 0, 64, 79
2,27113, Control_c, 0, 64, 78
2,27128, Control_c, 0, 64, 78
2,27144, Control_c, 0, 64, 77
2,27159, Control_c, 0, 64, 77
2,27174, Control_c, 0, 64, 76
2,27204, Control_c, 0, 64, 76
2,27220, Control_c, 0, 64, 75
2,27235, Control_c, 0, 64, 75
2,27250, Control_c, 0, 64, 74
2,27265, Control_c, 0, 64, 73
2,27280, Control_c, 0, 64, 73
2,27295, Control_c, 0, 64, 72
2,27311, Control_c, 0, 64, 71
2,27322, Note_on_c, 0, 60, 0
2,27326, Control_c, 0, 64, 71
2,27341, Note_on_c, 0, 48, 58
2,27342, Control_c, 0, 64, 70
2,27357, Control_c, 0, 64, 70
2,27357, Note_on_c, 0, 68, 53
2,27372, Control_c, 0, 64, 69
2,27387, Control_c, 0, 64, 68
2,27402, Control_c, 0, 64, 67
2,27418, Control_c, 0, 64, 66
2,27441, Control_c, 0, 64, 65
2,27456, Control_c, 0, 64, 64
2,27471, Control_c, 0, 64, 64
2,27486, Control_c, 0, 64, 63
2,27502, Control_c, 0, 64, 62
2,27517, Control_c, 0, 64, 61
2,27532, Control_c, 0, 64, 60
2,27547, Control_c, 0, 64, 60
2,27562, Control_c, 0, 64, 59
2,27578, Control_c, 0, 64, 58
2,27593, Control_c, 0, 64, 58
2,27608, Control_c, 0, 64, 57
2,27616, Note_on_c, 0, 67, 58
2,27623, Control_c, 0, 64, 56
2,27638, Control_c, 0, 64, 56
2,27653, Control_c, 0, 64, 55
2,27661, Note_on_c, 0, 68, 0
2,27669, Control_c, 0, 64, 55
2,27684, Control_c, 0, 64, 54
2,27700, Control_c, 0, 64, 54
2,27775, Control_c, 0, 64, 53
2,27821, Control_c, 0, 64, 53
2,27855, Note_on_c, 0, 67, 0
2,27887, Note_on_c, 0, 47, 63
2,27887, Note_on_c, 0, 65, 52
2,27927, Control_c, 0, 64, 52
2,27952, Note_on_c, 0, 48, 0
2,28003, Control_c, 0, 64, 52
2,28109, Control_c, 0, 64, 51
2,28130, Note_on_c, 0, 65, 0
2,28143, Note_on_c, 0, 63, 54
2,28347, Control_c, 0, 64, 51
2,28407, Control_c, 0, 64, 50
2,28420, Note_on_c, 0, 63, 0
2,28425, Note_on_c, 0, 48, 63
2,28427, Note_on_c, 0, 62, 53
2,28454, Control_c, 0, 64, 50
2,28467, Note_on_c, 0, 47, 0
2,28484, Control_c, 0, 64, 49
2,28514, Control_c, 0, 64, 49
2,28560, Control_c, 0, 64, 48
2,28590, Control_c, 0, 64, 48
2,28636, Control_c, 0, 64, 47
2,28666, Control_c, 0, 64, 47
2,28668, Note_on_c, 0, 62, 0
2,28685, Note_on_c, 0, 60, 55
2,28712, Control_c, 0, 64, 46
2,28742, Control_c, 0, 64, 46
2,28773, Control_c, 0, 64, 45
2,28803, Control_c, 0, 64, 45
2,28819, Control_c, 0, 64, 44
2,28834, Control_c, 0, 64, 44
2,28848, Control_c, 0, 64, 43
2,28879, Control_c, 0, 64, 43
2,28924, Control_c, 0, 64, 42
2,28948, Note_on_c, 0, 60, 0
2,28951, Note_on_c, 0, 59, 56
2,28956, Note_on_c, 0, 50, 62
2,28971, Control_c, 0, 64, 42
2,29001, Note_on_c, 0, 48, 0
2,29024, Control_c, 0, 64, 41
2,29055, Control_c, 0, 64, 41
2,29116, Control_c, 0, 64, 40
2,29192, Control_c, 0, 64, 40
2,29209, Note_on_c, 0, 59, 0
2,29219, Note_on_c, 0, 65, 53
2,29494, Note_on_c, 0, 43, 64
2,29508, Note_on_c, 0, 63, 54
2,29520, Note_on_c, 0, 65, 0
2,29527, Note_on_c, 0, 50, 0
2,29557, Control_c, 0, 64, 40
2,29633, Control_c, 0, 64, 41
2,29732, Note_on_c, 0, 63, 0
2,29766, Note_on_c, 0, 62, 61
2,29805, Control_c, 0, 64, 41
2,29881, Control_c, 0, 64, 42
2,30032, Note_on_c, 0, 48, 63
2,30033, Note_on_c, 0, 63, 59
2,30063, Note_on_c, 0, 62, 0
2,30075, Note_on_c, 0, 43, 0
2,30272, Note_on_c, 0, 68, 69
2,30324, Note_on_c, 0, 63, 0
2,30543, Note_on_c, 0, 67, 69
2,30548, Note_on_c, 0, 47, 66
2,30560, Note_on_c, 0, 48, 0
2,30563, Note_on_c, 0, 68, 0
2,30776, Note_on_c, 0, 67, 0
2,30781, Note_on_c, 0, 45, 68
2,30789, Note_on_c, 0, 65, 62
2,30803, Note_on_c, 0, 47, 0
2,31030, Control_c, 0, 64, 41
2,31051, Note_on_c, 0, 74, 71
2,31053, Note_on_c, 0, 47, 69
2,31060, Control_c, 0, 64, 41
2,31065, Note_on_c, 0, 45, 0
2,31075, Note_on_c, 0, 65, 0
2,31151, Control_c, 0, 64, 40
2,31310, Note_on_c, 0, 74, 0
2,31321, Note_on_c, 0, 72, 71
2,31523, Control_c, 0, 64, 38
2,31540, Control_c, 0, 64, 32
2,31555, Control_c, 0, 64, 12
2,31570, Control_c, 0, 64, 0
2,31586, Note_on_c, 0, 43, 62
2,31596, Note_on_c, 0, 74, 72
2,31622, Note_on_c, 0, 47, 0
2,31658, Note_on_c, 0, 72, 0
2,31888, Note_on_c, 0, 79, 82
2,31918, Control_c, 0, 64, 21
2,31933, Control_c, 0, 64, 38
2,31949, Control_c, 0, 64, 47
2,31964, Control_c, 0, 64, 52
2,31980, Control_c, 0, 64, 57
2,31995, Control_c, 0, 64, 60
2,32010, Control_c, 0, 64, 63
2,32025, Control_c, 0, 64, 65
2,32047, Control_c, 0, 64, 66
2,32049, Note_on_c, 0, 79, 0
2,32063, Control_c, 0, 64, 68
2,32078, Control_c, 0, 64, 71
2,32093, Control_c, 0, 64, 73
2,32108, Control_c, 0, 64, 75
2,32123, Control_c, 0, 64, 77
2,32136, Control_c, 0, 64, 78
2,32152, Control_c, 0, 64, 80
2,32167, Control_c, 0, 64, 81
2,32182, Control_c, 0, 64, 82
2,32228, Control_c, 0, 64, 81
2,32243, Control_c, 0, 64, 80
2,32258, Control_c, 0, 64, 78
2,32274, Control_c, 0, 64, 75
2,32279, Note_on_c, 0, 75, 77
2,32289, Control_c, 0, 64, 72
2,32295, Note_on_c, 0, 48, 55
2,32303, Control_c, 0, 64, 69
2,32317, Note_on_c, 0, 43, 0
2,32319, Control_c, 0, 64, 65
2,32334, Control_c, 0, 64, 63
2,32351, Control_c, 0, 64, 59
2,32366, Control_c, 0, 64, 56
2,32380, Control_c, 0, 64, 54
2,32396, Control_c, 0, 64, 52
2,32411, Control_c, 0, 64, 52
2,32427, Control_c, 0, 64, 51
2,32487, Control_c, 0, 64, 51
2,32502, Control_c, 0, 64, 50
2,32518, Control_c, 0, 64, 50
2,32532, Control_c, 0, 64, 49
2,32595, Note_on_c, 0, 74, 0
2,32600, Note_on_c, 0, 71, 68
2,32655, Control_c, 0, 64, 50
2,32700, Control_c, 0, 64, 50
2,32761, Control_c, 0, 64, 51
2,32867, Note_on_c, 0, 44, 63
2,32873, Note_on_c, 0, 72, 73
2,32938, Note_on_c, 0, 48, 0
2,33028, Note_on_c, 0, 71, 0
2,33112, Note_on_c, 0, 77, 80
2,33151, Note_on_c, 0, 75, 0
2,33179, Control_c, 0, 64, 50
2,33195, Control_c, 0, 64, 50
2,33271, Control_c, 0, 64, 49
2,33301, Control_c, 0, 64, 49
2,33317, Control_c, 0, 64, 48
2,33332, Control_c, 0, 64, 47
2,33347, Control_c, 0, 64, 45
2,33362, Control_c, 0, 64, 41
2,33377, Control_c, 0, 64, 29
2,33393, Control_c, 0, 64, 0
2,33394, Note_on_c, 0, 79, 79
2,33396, Note_on_c, 0, 39, 57
2,33436, Note_on_c, 0, 44, 0
2,33448, Note_on_c, 0, 77, 0
2,33643, Control_c, 0, 64, 33
2,33658, Control_c, 0, 64, 44
2,33665, Note_on_c, 0, 72, 0
2,33671, Note_on_c, 0, 71, 52
2,33674, Control_c, 0, 64, 50
2,33689, Control_c, 0, 64, 54
2,33705, Control_c, 0, 64, 58
2,33719, Control_c, 0, 64, 60
2,33734, Control_c, 0, 64, 62
2,33750, Control_c, 0, 64, 63
2,33765, Control_c, 0, 64, 64
2,33780, Control_c, 0, 64, 65
2,33785, Note_on_c, 0, 39, 0
2,33795, Control_c, 0, 64, 66
2,33810, Control_c, 0, 64, 66
2,33826, Control_c, 0, 64, 67
2,33840, Control_c, 0, 64, 68
2,33855, Control_c, 0, 64, 69
2,33871, Control_c, 0, 64, 70
2,33886, Control_c, 0, 64, 70
2,33916, Control_c, 0, 64, 71
2,33929, Note_on_c, 0, 72, 79
2,33977, Control_c, 0, 64, 70
2,33995, Note_on_c, 0, 71, 0
2,33996, Note_on_c, 0, 79, 0
2,34039, Control_c, 0, 64, 70
2,34099, Control_c, 0, 64, 69
2,34130, Control_c, 0, 64, 69
2,34190, Control_c, 0, 64, 68
2,34192, Note_on_c, 0, 56, 57
2,34219, Control_c, 0, 64, 68
2,34250, Control_c, 0, 64, 67
2,34265, Control_c, 0, 64, 67
2,34295, Control_c, 0, 64, 66
2,34311, Control_c, 0, 64, 66
2,34349, Control_c, 0, 64, 65
2,34364, Control_c, 0, 64, 65
2,34379, Control_c, 0, 64, 64
2,34410, Control_c, 0, 64, 64
2,34440, Control_c, 0, 64, 63
2,34471, Control_c, 0, 64, 63
2,34485, Control_c, 0, 64, 62
2,34488, Note_on_c, 0, 77, 76
2,34490, Note_on_c, 0, 50, 47
2,34500, Control_c, 0, 64, 61
2,34516, Control_c, 0, 64, 61
2,34524, Note_on_c, 0, 56, 0
2,34531, Control_c, 0, 64, 60
2,34547, Control_c, 0, 64, 59
2,34561, Control_c, 0, 64, 58
2,34576, Control_c, 0, 64, 58
2,34592, Control_c, 0, 64, 57
2,34607, Control_c, 0, 64, 57
2,34622, Control_c, 0, 64, 56
2,34637, Control_c, 0, 64, 56
2,34668, Control_c, 0, 64, 55
2,34698, Control_c, 0, 64, 55
2,34745, Control_c, 0, 64, 54
2,34791, Note_on_c, 0, 71, 50
2,34825, Note_on_c, 0, 72, 0
2,35020, Note_on_c, 0, 75, 70
2,35029, Note_on_c, 0, 55, 39
2,35039, Note_on_c, 0, 50, 0
2,35049, Control_c, 0, 64, 54
2,35090, Note_on_c, 0, 77, 0
2,35277, Note_on_c, 0, 74, 65
2,35308, Note_on_c, 0, 75, 0
2,35405, Control_c, 0, 64, 53
2,35420, Control_c, 0, 64, 53
2,35436, Control_c, 0, 64, 52
2,35451, Control_c, 0, 64, 52
2,35467, Control_c, 0, 64, 51
2,35481, Control_c, 0, 64, 51
2,35496, Control_c, 0, 64, 49
2,35512, Control_c, 0, 64, 46
2,35527, Control_c, 0, 64, 42
2,35540, Note_on_c, 0, 72, 43
2,35540, Note_on_c, 0, 75, 63
2,35542, Control_c, 0, 64, 36
2,35546, Note_on_c, 0, 48, 40
2,35558, Control_c, 0, 64, 29
2,35565, Note_on_c, 0, 71, 0
2,35573, Control_c, 0, 64, 16
2,35580, Note_on_c, 0, 74, 0
2,35588, Control_c, 0, 64, 0
2,35634, Note_on_c, 0, 55, 0
2,35665, Control_c, 0, 64, 23
2,35680, Control_c, 0, 64, 37
2,35695, Control_c, 0, 64, 45
2,35711, Control_c, 0, 64, 49
2,35726, Control_c, 0, 64, 52
2,35740, Control_c, 0, 64, 55
2,35756, Control_c, 0, 64, 58
2,35771, Control_c, 0, 64, 60
2,35787, Control_c, 0, 64, 62
2,35802, Control_c, 0, 64, 63
2,35814, Note_on_c, 0, 67, 45
2,35817, Control_c, 0, 64, 64
2,35820, Note_on_c, 0, 72, 0
2,35832, Control_c, 0, 64, 65
2,35847, Control_c, 0, 64, 66
2,35862, Control_c, 0, 64, 67
2,35885, Control_c, 0, 64, 68
2,35900, Control_c, 0, 64, 70
2,35915, Control_c, 0, 64, 70
2,35976, Control_c, 0, 64, 70
2,35992, Control_c, 0, 64, 69
2,36007, Control_c, 0, 64, 69
2,36022, Control_c, 0, 64, 68
2,36037, Control_c, 0, 64, 67
2,36052, Control_c, 0, 64, 67
2,36068, Control_c, 0, 64, 66
2,36083, Control_c, 0, 64, 65
2,36097, Control_c, 0, 64, 65
2,36113, Control_c, 0, 64, 64
2,36128, Control_c, 0, 64, 64
2,36130, Note_on_c, 0, 68, 64
2,36143, Control_c, 0, 64, 63
2,36159, Control_c, 0, 64, 63
2,36173, Control_c, 0, 64, 62
2,36180, Note_on_c, 0, 67, 0
2,36189, Control_c, 0, 64, 61
2,36204, Control_c, 0, 64, 60
2,36219, Control_c, 0, 64, 60
2,36235, Control_c, 0, 64, 59
2,36249, Control_c, 0, 64, 58
2,36265, Control_c, 0, 64, 58
2,36276, Note_on_c, 0, 75, 0
2,36280, Control_c, 0, 64, 57
2,36310, Control_c, 0, 64, 57
2,36325, Control_c, 0, 64, 56
2,36347, Note_on_c, 0, 48, 0
2,36356, Control_c, 0, 64, 56
2,36371, Control_c, 0, 64, 55
2,36386, Control_c, 0, 64, 55
2,36396, Note_on_c, 0, 53, 42
2,36401, Control_c, 0, 64, 54
2,36416, Control_c, 0, 64, 53
2,36432, Control_c, 0, 64, 52
2,36465, Control_c, 0, 64, 52
2,36494, Control_c, 0, 64, 51
2,36570, Control_c, 0, 64, 51
2,36586, Control_c, 0, 64, 50
2,36600, Control_c, 0, 64, 50
2,36615, Control_c, 0, 64, 49
2,36631, Control_c, 0, 64, 49
2,36646, Control_c, 0, 64, 48
2,36668, Note_on_c, 0, 53, 0
2,36670, Control_c, 0, 64, 47
2,36683, Note_on_c, 0, 73, 57
2,36685, Note_on_c, 0, 46, 38
2,36699, Control_c, 0, 64, 46
2,36730, Control_c, 0, 64, 46
2,36745, Control_c, 0, 64, 45
2,36806, Control_c, 0, 67, 18
2,36820, Control_c, 0, 67, 31
2,36836, Control_c, 0, 64, 46
2,36836, Control_c, 0, 67, 42
2,36851, Control_c, 0, 64, 47
2,36851, Control_c, 0, 67, 50
2,36867, Control_c, 0, 64, 49
2,36867, Control_c, 0, 67, 53
2,36881, Control_c, 0, 64, 51
2,36881, Control_c, 0, 67, 54
2,36896, Control_c, 0, 64, 53
2,36896, Control_c, 0, 67, 55
2,36912, Control_c, 0, 64, 55
2,36912, Control_c, 0, 67, 56
2,36927, Control_c, 0, 64, 56
2,36927, Control_c, 0, 67, 57
2,36935, Note_on_c, 0, 67, 42
2,36942, Control_c, 0, 64, 57
2,36942, Control_c, 0, 67, 59
2,36958, Control_c, 0, 64, 59
2,36958, Control_c, 0, 67, 60
2,36973, Control_c, 0, 64, 59
2,36973, Control_c, 0, 67, 61
2,36973, Note_on_c, 0, 68, 0
2,36989, Control_c, 0, 64, 60
2,36989, Control_c, 0, 67, 63
2,37004, Control_c, 0, 64, 61
2,37004, Control_c, 0, 67, 66
2,37018, Control_c, 0, 64, 63
2,37018, Control_c, 0, 67, 70
2,37034, Control_c, 0, 64, 64
2,37034, Control_c, 0, 67, 73
2,37049, Control_c, 0, 64, 65
2,37049, Control_c, 0, 67, 73
2,37065, Control_c, 0, 67, 75
2,37080, Control_c, 0, 67, 78
2,37094, Control_c, 0, 67, 84
2,37110, Control_c, 0, 67, 90
2,37125, Control_c, 0, 64, 64
2,37125, Control_c, 0, 67, 94
2,37138, Note_on_c, 0, 73, 0
2,37139, Control_c, 0, 67, 97
2,37155, Control_c, 0, 67, 101
2,37170, Control_c, 0, 67, 107
2,37183, Note_on_c, 0, 46, 0
2,37186, Control_c, 0, 64, 64
2,37186, Control_c, 0, 67, 114
2,37201, Control_c, 0, 67, 120
2,37205, Note_on_c, 0, 72, 53
2,37206, Note_on_c, 0, 51, 37
2,37215, Control_c, 0, 64, 63
2,37215, Control_c, 0, 67, 125
2,37231, Control_c, 0, 64, 63
2,37231, Control_c, 0, 67, 127
2,37262, Control_c, 0, 64, 62
2,37278, Control_c, 0, 64, 62
2,37293, Control_c, 0, 64, 61
2,37309, Control_c, 0, 64, 60
2,37323, Control_c, 0, 64, 59
2,37338, Control_c, 0, 64, 59
2,37354, Control_c, 0, 64, 58
2,37368, Control_c, 0, 64, 56
2,37383, Control_c, 0, 64, 55
2,37399, Control_c, 0, 64, 54
2,37414, Control_c, 0, 64, 53
2,37438, Control_c, 0, 64, 52
2,37448, Note_on_c, 0, 72, 0
2,37450, Note_on_c, 0, 70, 58
2,37452, Control_c, 0, 64, 52
2,37483, Control_c, 0, 64, 51
2,37589, Control_c, 0, 64, 51
2,37695, Control_c, 0, 64, 50
2,37711, Control_c, 0, 64, 50
2,37725, Control_c, 0, 64, 49
2,37737, Note_on_c, 0, 44, 32
2,37740, Control_c, 0, 64, 49
2,37740, Note_on_c, 0, 72, 56
2,37756, Control_c, 0, 64, 48
2,37766, Note_on_c, 0, 70, 0
2,37771, Control_c, 0, 64, 47
2,37771, Note_on_c, 0, 51, 0
2,37787, Control_c, 0, 64, 45
2,37802, Control_c, 0, 64, 43
2,37817, Control_c, 0, 64, 40
2,37832, Control_c, 0, 64, 38
2,37847, Control_c, 0, 64, 35
2,37862, Control_c, 0, 64, 32
2,37878, Control_c, 0, 64, 30
2,37893, Control_c, 0, 64, 28
2,37909, Control_c, 0, 64, 25
2,37924, Control_c, 0, 64, 23
2,37938, Control_c, 0, 64, 20
2,37954, Control_c, 0, 64, 18
2,37969, Control_c, 0, 64, 17
2,37983, Control_c, 0, 64, 17
2,37994, Note_on_c, 0, 64, 43
2,37999, Control_c, 0, 64, 16
2,38002, Note_on_c, 0, 67, 0
2,38030, Control_c, 0, 64, 17
2,38045, Control_c, 0, 64, 21
2,38059, Control_c, 0, 64, 29
2,38075, Control_c, 0, 64, 35
2,38091, Control_c, 0, 64, 41
2,38107, Control_c, 0, 64, 45
2,38122, Control_c, 0, 64, 48
2,38137, Control_c, 0, 64, 50
2,38153, Control_c, 0, 64, 52
2,38167, Control_c, 0, 64, 54
2,38190, Control_c, 0, 64, 55
2,38205, Control_c, 0, 64, 56
2,38220, Control_c, 0, 64, 56
2,38236, Control_c, 0, 64, 57
2,38267, Control_c, 0, 64, 57
2,38282, Note_on_c, 0, 65, 48
2,38341, Note_on_c, 0, 64, 0
2,38342, Control_c, 0, 64, 57
2,38343, Note_on_c, 0, 72, 0
2,38358, Control_c, 0, 64, 56
2,38372, Control_c, 0, 64, 55
2,38388, Control_c, 0, 64, 54
2,38403, Control_c, 0, 64, 53
2,38418, Control_c, 0, 64, 52
2,38433, Control_c, 0, 64, 51
2,38448, Control_c, 0, 64, 50
2,38463, Control_c, 0, 64, 49
2,38479, Control_c, 0, 64, 49
2,38494, Control_c, 0, 64, 48
2,38509, Control_c, 0, 64, 47
2,38524, Control_c, 0, 64, 45
2,38539, Control_c, 0, 64, 44
2,38555, Control_c, 0, 64, 43
2,38561, Note_on_c, 0, 49, 30
2,38570, Control_c, 0, 64, 41
2,38585, Control_c, 0, 64, 39
2,38596, Note_on_c, 0, 44, 0
2,38600, Control_c, 0, 64, 38
2,38615, Control_c, 0, 64, 37
2,38630, Control_c, 0, 64, 36
2,38645, Control_c, 0, 64, 35
2,38660, Control_c, 0, 64, 34
2,38691, Control_c, 0, 64, 34
2,38707, Control_c, 0, 64, 33
2,38766, Control_c, 0, 64, 33
2,38812, Control_c, 0, 64, 32
2,38826, Note_on_c, 0, 70, 50
2,38853, Note_on_c, 0, 43, 35
2,38861, Note_on_c, 0, 49, 0
2,38905, Control_c, 0, 64, 32
2,39105, Note_on_c, 0, 64, 40
2,39110, Control_c, 0, 64, 31
2,39137, Note_on_c, 0, 65, 0
2,39355, Note_on_c, 0, 48, 32
2,39368, Note_on_c, 0, 68, 48
2,39376, Note_on_c, 0, 70, 0
2,39386, Note_on_c, 0, 43, 0
2,39618, Note_on_c, 0, 67, 48
2,39635, Note_on_c, 0, 68, 0
2,39686, Control_c, 0, 64, 31
2,39847, Control_c, 0, 64, 30
2,39901, Note_on_c, 0, 67, 0
2,39909, Note_on_c, 0, 41, 29
2,39913, Note_on_c, 0, 68, 37
2,39918, Note_on_c, 0, 65, 33
2,39922, Note_on_c, 0, 64, 0
2,39926, Note_on_c, 0, 48, 0
2,39938, Control_c, 0, 64, 30
2,39954, Control_c, 0, 64, 29
2,39969, Control_c, 0, 64, 29
2,39983, Control_c, 0, 64, 28
2,39999, Control_c, 0, 64, 28
2,40090, Control_c, 0, 64, 32
2,40105, Control_c, 0, 64, 35
2,40120, Control_c, 0, 64, 38
2,40135, Control_c, 0, 64, 41
2,40151, Control_c, 0, 64, 46
2,40166, Control_c, 0, 64, 50
2,40181, Control_c, 0, 64, 53
2,40196, Control_c, 0, 64, 57
2,40211, Control_c, 0, 64, 60
2,40225, Note_on_c, 0, 48, 32
2,40227, Control_c, 0, 64, 64
2,40241, Control_c, 0, 64, 66
2,40256, Control_c, 0, 64, 69
2,40258, Note_on_c, 0, 41, 0
2,40272, Control_c, 0, 64, 72
2,40287, Control_c, 0, 64, 76
2,40303, Control_c, 0, 64, 78
2,40318, Control_c, 0, 64, 79
2,40409, Control_c, 0, 64, 79
2,40440, Control_c, 0, 64, 78
2,40455, Control_c, 0, 64, 78
2,40471, Control_c, 0, 64, 77
2,40509, Control_c, 0, 64, 77
2,40523, Control_c, 0, 64, 76
2,40538, Control_c, 0, 64, 76
2,40555, Control_c, 0, 64, 75
2,40569, Note_on_c, 0, 60, 58
2,40570, Control_c, 0, 64, 75
2,40579, Note_on_c, 0, 53, 38
2,40586, Control_c, 0, 64, 74
2,40601, Control_c, 0, 64, 73
2,40616, Control_c, 0, 64, 73
2,40631, Control_c, 0, 64, 72
2,40639, Note_on_c, 0, 65, 0
2,40646, Control_c, 0, 64, 71
2,40661, Control_c, 0, 64, 70
2,40676, Control_c, 0, 64, 68
2,40680, Note_on_c, 0, 48, 0
2,40691, Control_c, 0, 64, 66
2,40694, Note_on_c, 0, 68, 0
2,40707, Control_c, 0, 64, 64
2,40722, Control_c, 0, 64, 63
2,40737, Control_c, 0, 64, 62
2,40752, Control_c, 0, 64, 61
2,40767, Control_c, 0, 64, 60
2,40782, Control_c, 0, 64, 59
2,40798, Control_c, 0, 64, 58
2,40813, Control_c, 0, 64, 56
2,40829, Control_c, 0, 64, 55
2,40844, Control_c, 0, 64, 54
2,40856, Note_on_c, 0, 68, 44
2,40859, Control_c, 0, 64, 53
2,40874, Control_c, 0, 64, 53
2,40889, Control_c, 0, 64, 52
2,40905, Control_c, 0, 64, 51
2,40920, Control_c, 0, 64, 49
2,40935, Control_c, 0, 64, 48
2,40950, Control_c, 0, 64, 48
2,40965, Control_c, 0, 64, 47
2,40980, Control_c, 0, 64, 46
2,40996, Control_c, 0, 64, 46
2,41011, Control_c, 0, 64, 45
2,41026, Control_c, 0, 64, 44
2,41041, Control_c, 0, 64, 44
2,41056, Control_c, 0, 64, 43
2,41072, Control_c, 0, 64, 42
2,41085, Note_on_c, 0, 68, 0
2,41086, Control_c, 0, 64, 42
2,41116, Note_on_c, 0, 59, 53
2,41117, Control_c, 0, 64, 41
2,41124, Note_on_c, 0, 62, 52
2,41132, Control_c, 0, 64, 40
2,41148, Control_c, 0, 64, 40
2,41162, Control_c, 0, 64, 39
2,41215, Note_on_c, 0, 60, 0
2,41223, Control_c, 0, 64, 39
2,41383, Note_on_c, 0, 51, 49
2,41400, Note_on_c, 0, 53, 0
2,41633, Note_on_c, 0, 51, 0
2,41637, Note_on_c, 0, 60, 57
2,41644, Note_on_c, 0, 63, 56
2,41654, Note_on_c, 0, 50, 51
2,41682, Note_on_c, 0, 62, 0
2,41700, Note_on_c, 0, 59, 0
2,41886, Note_on_c, 0, 50, 0
2,41903, Note_on_c, 0, 48, 54
2,42142, Note_on_c, 0, 63, 0
2,42174, Note_on_c, 0, 62, 62
2,42178, Note_on_c, 0, 65, 64
2,42181, Note_on_c, 0, 47, 56
2,42182, Note_on_c, 0, 48, 0
2,42237, Note_on_c, 0, 60, 0
2,42433, Note_on_c, 0, 47, 0
2,42437, Note_on_c, 0, 43, 48
2,42688, Note_on_c, 0, 43, 0
2,42696, Note_on_c, 0, 55, 62
2,42699, Note_on_c, 0, 63, 63
2,42702, Note_on_c, 0, 65, 0
2,42707, Note_on_c, 0, 48, 50
2,42743, Note_on_c, 0, 62, 0
2,42960, Note_on_c, 0, 48, 0
2,42965, Note_on_c, 0, 46, 65
2,43250, Note_on_c, 0, 46, 0
2,43250, Note_on_c, 0, 60, 72
2,43253, Note_on_c, 0, 44, 57
2,43309, Note_on_c, 0, 55, 0
2,43510, Note_on_c, 0, 44, 0
2,43528, Note_on_c, 0, 48, 54
2,43784, Note_on_c, 0, 59, 56
2,43786, Note_on_c, 0, 48, 0
2,43793, Note_on_c, 0, 38, 43
2,43793, Note_on_c, 0, 65, 58
2,43807, Note_on_c, 0, 60, 0
2,43849, Note_on_c, 0, 63, 0
2,44046, Note_on_c, 0, 57, 56
2,44073, Note_on_c, 0, 59, 0
2,44311, Note_on_c, 0, 57, 0
2,44318, Note_on_c, 0, 55, 51
2,44319, Note_on_c, 0, 39, 46
2,44355, Note_on_c, 0, 38, 0
2,44516, Control_c, 0, 64, 38
2,44574, Note_on_c, 0, 59, 55
2,44586, Note_on_c, 0, 55, 0
2,44846, Note_on_c, 0, 60, 48
2,44857, Note_on_c, 0, 63, 46
2,44876, Note_on_c, 0, 65, 0
2,44882, Note_on_c, 0, 59, 0
2,45139, Note_on_c, 0, 36, 33
2,45144, Note_on_c, 0, 39, 0
2,45452, Note_on_c, 0, 68, 48
2,45465, Note_on_c, 0, 41, 38
2,45487, Note_on_c, 0, 36, 0
2,45495, Note_on_c, 0, 60, 0
2,45525, Note_on_c, 0, 63, 0
2,45762, Note_on_c, 0, 60, 38
2,46044, Note_on_c, 0, 46, 31
2,46049, Note_on_c, 0, 62, 42
2,46069, Note_on_c, 0, 41, 0
2,46102, Note_on_c, 0, 68, 0
2,46156, Note_on_c, 0, 60, 0
2,46293, Note_on_c, 0, 68, 56
2,46312, Control_c, 0, 67, 122
2,46327, Control_c, 0, 67, 115
2,46343, Control_c, 0, 67, 107
2,46358, Control_c, 0, 67, 100
2,46373, Control_c, 0, 67, 95
2,46388, Control_c, 0, 64, 39
2,46388, Control_c, 0, 67, 89
2,46403, Control_c, 0, 67, 84
2,46419, Control_c, 0, 67, 79
2,46433, Control_c, 0, 67, 74
2,46448, Control_c, 0, 67, 71
2,46464, Control_c, 0, 67, 68
2,46479, Control_c, 0, 67, 65
2,46494, Control_c, 0, 67, 63
2,46509, Control_c, 0, 67, 61
2,46524, Control_c, 0, 67, 58
2,46540, Control_c, 0, 67, 56
2,46555, Control_c, 0, 67, 55
2,46562, Note_on_c, 0, 67, 54
2,46563, Note_on_c, 0, 47, 48
2,46570, Control_c, 0, 67, 53
2,46585, Control_c, 0, 67, 51
2,46594, Note_on_c, 0, 68, 0
2,46600, Control_c, 0, 67, 50
2,46610, Note_on_c, 0, 46, 0
2,46610, Note_on_c, 0, 62, 0
2,46615, Control_c, 0, 67, 48
2,46638, Control_c, 0, 67, 46
2,46653, Control_c, 0, 64, 39
2,46653, Control_c, 0, 67, 45
2,46669, Control_c, 0, 67, 43
2,46684, Control_c, 0, 67, 42
2,46700, Control_c, 0, 67, 40
2,46714, Control_c, 0, 67, 38
2,46729, Control_c, 0, 67, 36
2,46745, Control_c, 0, 67, 35
2,46760, Control_c, 0, 67, 33
2,46775, Control_c, 0, 67, 31
2,46790, Control_c, 0, 67, 30
2,46805, Control_c, 0, 67, 29
2,46821, Control_c, 0, 67, 28
2,46822, Note_on_c, 0, 62, 49
2,46836, Control_c, 0, 67, 26
2,46850, Control_c, 0, 67, 25
2,46866, Control_c, 0, 67, 24
2,46881, Control_c, 0, 67, 23
2,46896, Control_c, 0, 67, 21
2,46912, Control_c, 0, 67, 20
2,46927, Control_c, 0, 67, 19
2,46943, Control_c, 0, 67, 17
2,46957, Control_c, 0, 67, 16
2,46972, Control_c, 0, 67, 14
2,46988, Control_c, 0, 67, 12
2,47003, Control_c, 0, 67, 11
2,47019, Control_c, 0, 67, 9
2,47030, Note_on_c, 0, 67, 0
2,47034, Control_c, 0, 67, 8
2,47048, Control_c, 0, 67, 0
2,47080, Note_on_c, 0, 48, 54
2,47095, Note_on_c, 0, 63, 51
2,47117, Note_on_c, 0, 47, 0
2,47171, Note_on_c, 0, 62, 0
2,47358, Note_on_c, 0, 67, 58
2,47644, Note_on_c, 0, 44, 59
2,47646, Note_on_c, 0, 72, 62
2,47710, Note_on_c, 0, 48, 0
2,47878, Note_on_c, 0, 63, 0
2,47900, Note_on_c, 0, 65, 52
2,47923, Control_c, 0, 64, 40
2,47923, Note_on_c, 0, 67, 0
2,48136, Control_c, 0, 64, 40
2,48164, Note_on_c, 0, 46, 59
2,48188, Note_on_c, 0, 66, 56
2,48207, Note_on_c, 0, 65, 0
2,48221, Control_c, 0, 64, 41
2,48232, Note_on_c, 0, 44, 0
2,48312, Control_c, 0, 64, 41
2,48388, Control_c, 0, 64, 42
2,48423, Note_on_c, 0, 70, 61
2,48486, Note_on_c, 0, 72, 0
2,48630, Control_c, 0, 64, 42
2,48661, Control_c, 0, 64, 43
2,48707, Control_c, 0, 64, 43
2,48712, Note_on_c, 0, 66, 0
2,48714, Note_on_c, 0, 48, 63
2,48722, Note_on_c, 0, 64, 58
2,48722, Note_on_c, 0, 70, 0
2,48737, Control_c, 0, 64, 44
2,48754, Control_c, 0, 64, 44
2,48784, Control_c, 0, 64, 45
2,48788, Note_on_c, 0, 46, 0
2,48830, Control_c, 0, 64, 45
2,48969, Control_c, 0, 64, 46
2,48999, Note_on_c, 0, 70, 64
2,49060, Control_c, 0, 64, 46
2,49121, Control_c, 0, 64, 47
2,49197, Control_c, 0, 64, 47
2,49237, Note_on_c, 0, 41, 58
2,49248, Note_on_c, 0, 68, 67
2,49258, Control_c, 0, 64, 48
2,49274, Note_on_c, 0, 48, 0
2,49295, Note_on_c, 0, 70, 0
2,49334, Control_c, 0, 64, 48
2,49410, Note_on_c, 0, 64, 0
2,49500, Note_on_c, 0, 65, 52
2,49797, Note_on_c, 0, 61, 55
2,49798, Note_on_c, 0, 46, 60
2,49843, Control_c, 0, 64, 49
2,49859, Note_on_c, 0, 41, 0
2,50055, Note_on_c, 0, 67, 60
2,50081, Note_on_c, 0, 68, 0
2,50083, Note_on_c, 0, 65, 0
2,50312, Note_on_c, 0, 44, 46
2,50322, Note_on_c, 0, 68, 69
2,50336, Note_on_c, 0, 67, 0
2,50342, Note_on_c, 0, 46, 0
2,50557, Note_on_c, 0, 44, 0
2,50572, Note_on_c, 0, 43, 48
2,50572, Note_on_c, 0, 70, 67
2,50601, Note_on_c, 0, 68, 0
2,50674, Control_c, 0, 64, 48
2,50704, Control_c, 0, 64, 48
2,50734, Control_c, 0, 64, 47
2,50750, Control_c, 0, 64, 47
2,50765, Control_c, 0, 64, 46
2,50780, Control_c, 0, 64, 44
2,50795, Control_c, 0, 64, 39
2,50810, Control_c, 0, 64, 26
2,50826, Control_c, 0, 64, 0
2,50852, Note_on_c, 0, 64, 64
2,50866, Note_on_c, 0, 44, 53
2,50893, Note_on_c, 0, 70, 0
2,50909, Note_on_c, 0, 43, 0
2,50921, Note_on_c, 0, 61, 0
2,50993, Control_c, 0, 64, 33
2,51008, Control_c, 0, 64, 49
2,51023, Control_c, 0, 64, 56
2,51039, Control_c, 0, 64, 60
2,51054, Control_c, 0, 64, 63
2,51069, Control_c, 0, 64, 66
2,51084, Control_c, 0, 64, 70
2,51099, Control_c, 0, 64, 76
2,51101, Note_on_c, 0, 44, 0
2,51115, Control_c, 0, 64, 83
2,51116, Note_on_c, 0, 60, 60
2,51124, Note_on_c, 0, 64, 0
2,51130, Control_c, 0, 64, 90
2,51144, Control_c, 0, 64, 95
2,51160, Control_c, 0, 64, 99
2,51175, Control_c, 0, 64, 101
2,51275, Control_c, 0, 64, 100
2,51290, Control_c, 0, 64, 99
2,51306, Control_c, 0, 64, 98
2,51321, Control_c, 0, 64, 96
2,51336, Control_c, 0, 64, 94
2,51352, Control_c, 0, 64, 91
2,51367, Control_c, 0, 64, 86
2,51377, Note_on_c, 0, 56, 48
2,51379, Note_on_c, 0, 65, 65
2,51381, Control_c, 0, 64, 82
2,51397, Control_c, 0, 64, 79
2,51412, Control_c, 0, 64, 76
2,51427, Control_c, 0, 64, 73
2,51442, Control_c, 0, 64, 70
2,51457, Control_c, 0, 64, 66
2,51458, Note_on_c, 0, 60, 0
2,51473, Control_c, 0, 64, 63
2,51488, Control_c, 0, 64, 61
2,51502, Control_c, 0, 64, 60
2,51518, Control_c, 0, 64, 59
2,51533, Control_c, 0, 64, 58
2,51549, Control_c, 0, 64, 57
2,51564, Control_c, 0, 64, 56
2,51578, Control_c, 0, 64, 55
2,51594, Control_c, 0, 64, 54
2,51608, Note_on_c, 0, 56, 0
2,51609, Control_c, 0, 64, 53
2,51624, Control_c, 0, 64, 52
2,51633, Note_on_c, 0, 53, 45
2,51639, Control_c, 0, 64, 51
2,51641, Note_on_c, 0, 68, 71
2,51670, Control_c, 0, 64, 51
2,51700, Control_c, 0, 64, 50
2,51716, Control_c, 0, 64, 50
2,51747, Control_c, 0, 64, 49
2,51761, Control_c, 0, 64, 49
2,51792, Control_c, 0, 64, 48
2,51883, Control_c, 0, 64, 48
2,51898, Control_c, 0, 64, 46
2,51913, Control_c, 0, 64, 43
2,51928, Control_c, 0, 64, 37
2,51943, Control_c, 0, 64, 29
2,51958, Control_c, 0, 64, 25
2,51973, Control_c, 0, 64, 24
2,51991, Note_on_c, 0, 73, 73
2,51993, Note_on_c, 0, 58, 47
2,52044, Note_on_c, 0, 53, 0
2,52058, Control_c, 0, 64, 25
2,52088, Control_c, 0, 64, 26
2,52103, Control_c, 0, 64, 28
2,52103, Note_on_c, 0, 65, 0
2,52119, Control_c, 0, 64, 30
2,52134, Control_c, 0, 64, 31
2,52150, Control_c, 0, 64, 32
2,52180, Control_c, 0, 64, 33
2,52196, Control_c, 0, 64, 34
2,52211, Control_c, 0, 64, 36
2,52226, Control_c, 0, 64, 38
2,52241, Control_c, 0, 64, 38
2,52256, Control_c, 0, 64, 39
2,52267, Note_on_c, 0, 67, 63
2,52271, Control_c, 0, 64, 40
2,52286, Control_c, 0, 64, 41
2,52301, Control_c, 0, 64, 42
2,52315, Note_on_c, 0, 68, 0
2,52317, Control_c, 0, 64, 43
2,52523, Note_on_c, 0, 60, 52
2,52526, Note_on_c, 0, 68, 58
2,52552, Note_on_c, 0, 58, 0
2,52566, Note_on_c, 0, 67, 0
2,52782, Note_on_c, 0, 72, 67
2,52862, Note_on_c, 0, 73, 0
2,52979, Control_c, 0, 64, 43
2,53009, Control_c, 0, 64, 44
2,53024, Control_c, 0, 64, 44
2,53045, Note_on_c, 0, 50, 60
2,53051, Note_on_c, 0, 66, 60
2,53054, Note_on_c, 0, 72, 0
2,53055, Control_c, 0, 64, 45
2,53084, Note_on_c, 0, 60, 0
2,53085, Control_c, 0, 64, 45
2,53104, Note_on_c, 0, 68, 0
2,53116, Control_c, 0, 64, 46
2,53192, Control_c, 0, 64, 46
2,53293, Note_on_c, 0, 72, 70
2,53343, Control_c, 0, 64, 47
2,53550, Note_on_c, 0, 70, 75
2,53564, Note_on_c, 0, 55, 55
2,53603, Note_on_c, 0, 50, 0
2,53608, Note_on_c, 0, 72, 0
2,53777, Note_on_c, 0, 66, 0
2,53798, Note_on_c, 0, 67, 58
2,54070, Note_on_c, 0, 63, 64
2,54078, Note_on_c, 0, 48, 59
2,54127, Note_on_c, 0, 55, 0
2,54363, Note_on_c, 0, 69, 76
2,54400, Note_on_c, 0, 67, 0
2,54413, Note_on_c, 0, 70, 0
2,54617, Note_on_c, 0, 70, 75
2,54632, Note_on_c, 0, 46, 58
2,54659, Note_on_c, 0, 48, 0
2,54662, Note_on_c, 0, 69, 0
2,54846, Note_on_c, 0, 72, 75
2,54859, Note_on_c, 0, 45, 57
2,54864, Note_on_c, 0, 46, 0
2,54881, Note_on_c, 0, 70, 0
2,54910, Control_c, 0, 64, 46
2,54986, Control_c, 0, 64, 46
2,55031, Control_c, 0, 64, 45
2,55061, Control_c, 0, 64, 45
2,55077, Control_c, 0, 64, 44
2,55099, Control_c, 0, 64, 44
2,55115, Control_c, 0, 64, 43
2,55130, Control_c, 0, 64, 43
2,55139, Note_on_c, 0, 46, 63
2,55139, Note_on_c, 0, 66, 77
2,55144, Note_on_c, 0, 72, 0
2,55170, Note_on_c, 0, 45, 0
2,55170, Note_on_c, 0, 68, 39
2,55211, Note_on_c, 0, 68, 0
2,55313, Control_c, 0, 64, 43
2,55328, Control_c, 0, 64, 44
2,55343, Control_c, 0, 64, 47
2,55359, Control_c, 0, 64, 51
2,55373, Control_c, 0, 64, 55
2,55389, Control_c, 0, 64, 58
2,55404, Control_c, 0, 64, 61
2,55419, Control_c, 0, 64, 63
2,55421, Note_on_c, 0, 62, 59
2,55435, Control_c, 0, 64, 66
2,55449, Control_c, 0, 64, 69
2,55464, Control_c, 0, 64, 73
2,55480, Control_c, 0, 64, 78
2,55494, Note_on_c, 0, 63, 0
2,55495, Control_c, 0, 64, 83
2,55495, Note_on_c, 0, 66, 0
2,55511, Control_c, 0, 64, 88
2,55525, Control_c, 0, 64, 95
2,55540, Control_c, 0, 64, 101
2,55556, Control_c, 0, 64, 106
2,55571, Control_c, 0, 64, 107
2,55601, Control_c, 0, 64, 106
2,55616, Control_c, 0, 64, 104
2,55632, Control_c, 0, 64, 102
2,55647, Control_c, 0, 64, 96
2,55654, Note_on_c, 0, 67, 81
2,55660, Control_c, 0, 64, 86
2,55666, Note_on_c, 0, 51, 63
2,55676, Control_c, 0, 64, 77
2,55691, Control_c, 0, 64, 70
2,55707, Control_c, 0, 64, 64
2,55712, Note_on_c, 0, 46, 0
2,55721, Control_c, 0, 64, 59
2,55736, Control_c, 0, 64, 54
2,55752, Control_c, 0, 64, 51
2,55767, Control_c, 0, 64, 49
2,55781, Control_c, 0, 64, 48
2,55797, Control_c, 0, 64, 47
2,55843, Control_c, 0, 64, 46
2,55896, Note_on_c, 0, 62, 0
2,55914, Note_on_c, 0, 60, 68
2,56181, Note_on_c, 0, 58, 81
2,56192, Note_on_c, 0, 48, 64
2,56227, Note_on_c, 0, 51, 0
2,56227, Note_on_c, 0, 60, 0
2,56242, Note_on_c, 0, 67, 0
2,56292, Control_c, 0, 64, 47
2,56448, Note_on_c, 0, 67, 77
2,56703, Note_on_c, 0, 57, 73
2,56711, Control_c, 0, 64, 47
2,56712, Note_on_c, 0, 50, 68
2,56732, Note_on_c, 0, 58, 0
2,56769, Note_on_c, 0, 48, 0
2,56939, Control_c, 0, 64, 48
2,56982, Note_on_c, 0, 66, 76
2,57019, Note_on_c, 0, 67, 0
2,57320, Control_c, 0, 64, 46
2,57334, Control_c, 0, 64, 44
2,57335, Note_on_c, 0, 67, 74
2,57339, Note_on_c, 0, 55, 62
2,57350, Control_c, 0, 64, 40
2,57351, Note_on_c, 0, 43, 56
2,57353, Note_on_c, 0, 57, 0
2,57365, Control_c, 0, 64, 29
2,57370, Note_on_c, 0, 66, 0
2,57377, Note_on_c, 0, 50, 0
2,57380, Control_c, 0, 64, 0
2,57570, Control_c, 0, 64, 44
2,57586, Control_c, 0, 64, 56
2,57600, Control_c, 0, 64, 62
2,57615, Control_c, 0, 64, 66
2,57631, Control_c, 0, 64, 71
2,57646, Control_c, 0, 64, 79
2,57661, Control_c, 0, 64, 90
2,57676, Control_c, 0, 64, 117
2,57691, Control_c, 0, 64, 127
2,57759, Note_on_c, 0, 67, 0
2,57835, Note_on_c, 0, 43, 0
2,57925, Note_on_c, 0, 55, 0
2,58100, Control_c, 0, 64, 118
2,58116, Control_c, 0, 64, 105
2,58131, Control_c, 0, 64, 98
2,58154, Control_c, 0, 64, 92
2,58169, Control_c, 0, 64, 88
2,58183, Control_c, 0, 64, 82
2,58199, Control_c, 0, 64, 77
2,58214, Control_c, 0, 64, 72
2,58225, Note_on_c, 0, 79, 50
2,58229, Control_c, 0, 64, 68
2,58244, Control_c, 0, 64, 65
2,58259, Control_c, 0, 64, 63
2,58275, Control_c, 0, 64, 61
2,58290, Control_c, 0, 64, 60
2,58305, Control_c, 0, 64, 59
2,58320, Control_c, 0, 64, 57
2,58335, Control_c, 0, 64, 56
2,58350, Control_c, 0, 64, 55
2,58366, Control_c, 0, 64, 55
2,58381, Control_c, 0, 64, 54
2,58397, Control_c, 0, 64, 53
2,58412, Control_c, 0, 64, 52
2,58427, Control_c, 0, 64, 51
2,58442, Control_c, 0, 64, 50
2,58457, Control_c, 0, 67, 13
2,58473, Control_c, 0, 64, 50
2,58473, Control_c, 0, 67, 23
2,58488, Control_c, 0, 67, 33
2,58503, Control_c, 0, 67, 37
2,58518, Control_c, 0, 67, 39
2,58533, Control_c, 0, 64, 49
2,58533, Control_c, 0, 67, 41
2,58548, Control_c, 0, 67, 45
2,58565, Control_c, 0, 64, 49
2,58565, Control_c, 0, 67, 50
2,58580, Control_c, 0, 67, 55
2,58596, Control_c, 0, 67, 59
2,58611, Control_c, 0, 64, 48
2,58611, Control_c, 0, 67, 61
2,58625, Control_c, 0, 67, 64
2,58641, Control_c, 0, 67, 67
2,58656, Control_c, 0, 67, 71
2,58670, Control_c, 0, 67, 73
2,58686, Control_c, 0, 64, 48
2,58762, Control_c, 0, 67, 73
2,58777, Control_c, 0, 67, 72
2,58793, Control_c, 0, 67, 71
2,58822, Control_c, 0, 67, 70
2,58824, Note_on_c, 0, 75, 53
2,58838, Note_on_c, 0, 67, 44
2,58853, Control_c, 0, 67, 70
2,58867, Control_c, 0, 67, 68
2,58883, Control_c, 0, 67, 67
2,58898, Control_c, 0, 67, 66
2,58937, Control_c, 0, 64, 48
2,58937, Control_c, 0, 67, 66
2,58951, Control_c, 0, 67, 65
2,58967, Control_c, 0, 67, 61
2,58968, Note_on_c, 0, 79, 0
2,58982, Control_c, 0, 67, 60
2,59013, Control_c, 0, 64, 49
2,59043, Control_c, 0, 67, 58
2,59058, Control_c, 0, 64, 49
2,59058, Control_c, 0, 67, 57
2,59073, Control_c, 0, 67, 56
2,59088, Control_c, 0, 67, 55
2,59103, Control_c, 0, 64, 50
2,59119, Control_c, 0, 67, 55
2,59134, Control_c, 0, 67, 54
2,59148, Control_c, 0, 67, 52
2,59195, Control_c, 0, 64, 50
2,59210, Control_c, 0, 67, 51
2,59225, Control_c, 0, 67, 51
2,59241, Control_c, 0, 67, 50
2,59256, Control_c, 0, 67, 50
2,59301, Control_c, 0, 67, 49
2,59332, Control_c, 0, 67, 48
2,59347, Control_c, 0, 67, 47
2,59362, Control_c, 0, 64, 51
2,59362, Control_c, 0, 67, 46
2,59377, Control_c, 0, 67, 45
2,59394, Control_c, 0, 67, 43
2,59408, Note_on_c, 0, 77, 52
2,59409, Control_c, 0, 67, 41
2,59424, Control_c, 0, 64, 51
2,59424, Control_c, 0, 67, 35
2,59439, Control_c, 0, 67, 27
2,59454, Control_c, 0, 67, 22
2,59466, Note_on_c, 0, 75, 0
2,59469, Control_c, 0, 67, 18
2,59485, Control_c, 0, 67, 14
2,59500, Control_c, 0, 67, 10
2,59515, Control_c, 0, 67, 0
2,59666, Control_c, 0, 64, 52
2,59965, Note_on_c, 0, 63, 49
2,59965, Note_on_c, 0, 79, 51
2,60010, Note_on_c, 0, 77, 0
2,60088, Note_on_c, 0, 67, 0
2,60546, Note_on_c, 0, 72, 56
2,60629, Note_on_c, 0, 79, 0
2,60959, Control_c, 0, 64, 52
2,61126, Note_on_c, 0, 65, 54
2,61127, Note_on_c, 0, 77, 62
2,61184, Note_on_c, 0, 63, 0
2,61209, Note_on_c, 0, 72, 0
2,61439, Control_c, 0, 64, 53
2,61696, Note_on_c, 0, 75, 51
2,61741, Control_c, 0, 64, 53
2,61754, Note_on_c, 0, 77, 0
2,61909, Control_c, 0, 64, 54
2,61943, Note_on_c, 0, 74, 50
2,61982, Note_on_c, 0, 75, 0
2,62219, Note_on_c, 0, 75, 56
2,62223, Note_on_c, 0, 67, 53
2,62249, Note_on_c, 0, 74, 0
2,62264, Note_on_c, 0, 65, 0
2,62478, Note_on_c, 0, 74, 50
2,62495, Control_c, 0, 64, 54
2,62525, Note_on_c, 0, 75, 0
2,62540, Control_c, 0, 64, 55
2,62735, Note_on_c, 0, 55, 39
2,62743, Note_on_c, 0, 74, 0
2,62765, Note_on_c, 0, 72, 48
2,63012, Note_on_c, 0, 71, 50
2,63048, Note_on_c, 0, 72, 0
2,63141, Control_c, 0, 64, 54
2,63262, Note_on_c, 0, 60, 57
2,63274, Note_on_c, 0, 71, 0
2,63280, Note_on_c, 0, 72, 52
2,63282, Note_on_c, 0, 56, 58
2,63288, Note_on_c, 0, 55, 0
2,63322, Note_on_c, 0, 67, 0
2,63324, Control_c, 0, 64, 54
2,63445, Control_c, 0, 64, 53
2,63555, Note_on_c, 0, 75, 56
2,63575, Note_on_c, 0, 72, 0
2,63759, Note_on_c, 0, 56, 0
2,63783, Note_on_c, 0, 55, 43
2,63789, Note_on_c, 0, 77, 58
2,63796, Note_on_c, 0, 75, 0
2,63834, Control_c, 0, 64, 54
2,63909, Control_c, 0, 64, 54
2,63955, Control_c, 0, 64, 55
2,64016, Control_c, 0, 64, 55
2,64042, Note_on_c, 0, 79, 57
2,64073, Note_on_c, 0, 77, 0
2,64092, Control_c, 0, 64, 56
2,64290, Note_on_c, 0, 55, 0
2,64317, Note_on_c, 0, 80, 63
2,64322, Note_on_c, 0, 65, 59
2,64341, Note_on_c, 0, 53, 33
2,64365, Note_on_c, 0, 79, 0
2,64374, Note_on_c, 0, 60, 0
2,64585, Note_on_c, 0, 72, 51
2,64617, Control_c, 0, 64, 55
2,64647, Control_c, 0, 64, 55
2,64662, Control_c, 0, 64, 54
2,64678, Control_c, 0, 64, 54
2,64693, Control_c, 0, 64, 53
2,64707, Control_c, 0, 64, 52
2,64738, Control_c, 0, 64, 52
2,64769, Control_c, 0, 64, 51
2,64803, Note_on_c, 0, 80, 0
2,64826, Note_on_c, 0, 62, 45
2,64828, Note_on_c, 0, 71, 49
2,64829, Control_c, 0, 64, 53
2,64845, Control_c, 0, 64, 56
2,64856, Note_on_c, 0, 72, 0
2,64860, Control_c, 0, 64, 58
2,64875, Control_c, 0, 64, 60
2,64890, Control_c, 0, 64, 62
2,64905, Control_c, 0, 64, 65
2,64921, Control_c, 0, 64, 69
2,64936, Control_c, 0, 64, 74
2,64951, Control_c, 0, 64, 82
2,64967, Control_c, 0, 64, 92
2,64982, Control_c, 0, 64, 104
2,64982, Note_on_c, 0, 53, 0
2,64997, Control_c, 0, 64, 127
2,65035, Note_on_c, 0, 62, 0
2,65075, Note_on_c, 0, 69, 57
2,65081, Note_on_c, 0, 71, 0
2,65263, Control_c, 0, 64, 117
2,65279, Control_c, 0, 64, 107
2,65294, Control_c, 0, 64, 97
2,65309, Control_c, 0, 64, 85
2,65319, Note_on_c, 0, 63, 53
2,65325, Control_c, 0, 64, 75
2,65331, Note_on_c, 0, 71, 45
2,65336, Note_on_c, 0, 55, 40
2,65340, Control_c, 0, 64, 66
2,65345, Note_on_c, 0, 69, 0
2,65355, Control_c, 0, 64, 58
2,65367, Note_on_c, 0, 65, 0
2,65370, Control_c, 0, 64, 48
2,65385, Control_c, 0, 64, 45
2,65416, Control_c, 0, 64, 46
2,65430, Control_c, 0, 64, 49
2,65446, Control_c, 0, 64, 53
2,65461, Control_c, 0, 64, 56
2,65476, Control_c, 0, 64, 59
2,65491, Control_c, 0, 64, 61
2,65506, Control_c, 0, 64, 63
2,65522, Control_c, 0, 64, 64
2,65537, Control_c, 0, 64, 66
2,65551, Control_c, 0, 64, 68
2,65567, Control_c, 0, 64, 71
2,65582, Control_c, 0, 64, 75
2,65584, Note_on_c, 0, 79, 51
2,65598, Control_c, 0, 64, 79
2,65613, Control_c, 0, 64, 82
2,65623, Note_on_c, 0, 71, 0
2,65627, Control_c, 0, 64, 84
2,65628, Note_on_c, 0, 55, 0
2,65643, Control_c, 0, 64, 85
2,65658, Control_c, 0, 64, 86
2,65749, Control_c, 0, 64, 85
2,65765, Control_c, 0, 64, 85
2,65780, Control_c, 0, 64, 83
2,65796, Control_c, 0, 64, 78
2,65810, Control_c, 0, 64, 71
2,65823, Note_on_c, 0, 79, 0
2,65825, Control_c, 0, 64, 65
2,65826, Note_on_c, 0, 57, 42
2,65826, Note_on_c, 0, 77, 51
2,65841, Note_on_c, 0, 62, 45
2,65848, Control_c, 0, 64, 61
2,65863, Control_c, 0, 64, 56
2,65869, Note_on_c, 0, 63, 0
2,65879, Control_c, 0, 64, 54
2,65893, Control_c, 0, 64, 53
2,65971, Control_c, 0, 64, 53
2,65986, Control_c, 0, 64, 52
2,66048, Note_on_c, 0, 57, 0
2,66071, Note_on_c, 0, 59, 42
2,66086, Note_on_c, 0, 79, 51
2,66107, Control_c, 0, 64, 52
2,66114, Note_on_c, 0, 77, 0
2,66138, Control_c, 0, 64, 51
2,66183, Control_c, 0, 64, 51
2,66199, Control_c, 0, 64, 50
2,66214, Control_c, 0, 64, 50
2,66229, Control_c, 0, 64, 49
2,66245, Control_c, 0, 64, 47
2,66260, Control_c, 0, 64, 45
2,66275, Control_c, 0, 64, 43
2,66290, Control_c, 0, 64, 42
2,66305, Control_c, 0, 64, 41
2,66310, Note_on_c, 0, 59, 0
2,66320, Control_c, 0, 64, 39
2,66335, Control_c, 0, 64, 37
2,66336, Note_on_c, 0, 79, 0
2,66342, Note_on_c, 0, 60, 40
2,66350, Control_c, 0, 64, 34
2,66351, Note_on_c, 0, 62, 0
2,66364, Note_on_c, 0, 75, 45
2,66366, Control_c, 0, 64, 32
2,66371, Note_on_c, 0, 63, 32
2,66426, Control_c, 0, 64, 37
2,66442, Control_c, 0, 64, 45
2,66456, Control_c, 0, 64, 52
2,66471, Control_c, 0, 64, 56
2,66487, Control_c, 0, 64, 59
2,66502, Control_c, 0, 64, 61
2,66518, Control_c, 0, 64, 63
2,66532, Control_c, 0, 64, 65
2,66547, Control_c, 0, 64, 67
2,66563, Control_c, 0, 64, 70
2,66575, Note_on_c, 0, 60, 0
2,66578, Control_c, 0, 64, 73
2,66594, Control_c, 0, 64, 77
2,66616, Control_c, 0, 64, 81
2,66621, Note_on_c, 0, 62, 41
2,66631, Control_c, 0, 64, 84
2,66634, Note_on_c, 0, 63, 0
2,66637, Note_on_c, 0, 75, 0
2,66647, Control_c, 0, 64, 86
2,66661, Control_c, 0, 64, 87
2,66737, Control_c, 0, 64, 86
2,66753, Control_c, 0, 64, 86
2,66769, Control_c, 0, 64, 85
2,66784, Control_c, 0, 64, 83
2,66800, Control_c, 0, 64, 82
2,66815, Control_c, 0, 64, 80
2,66830, Control_c, 0, 64, 78
2,66845, Control_c, 0, 64, 76
2,66860, Control_c, 0, 64, 74
2,66876, Control_c, 0, 64, 73
2,66891, Control_c, 0, 64, 72
2,66906, Control_c, 0, 64, 71
2,66907, Note_on_c, 0, 72, 53
2,66919, Note_on_c, 0, 63, 28
2,66921, Control_c, 0, 64, 69
2,66936, Control_c, 0, 64, 68
2,66949, Note_on_c, 0, 62, 0
2,66951, Control_c, 0, 64, 66
2,66966, Control_c, 0, 64, 65
2,66981, Control_c, 0, 64, 64
2,66997, Control_c, 0, 64, 62
2,67012, Control_c, 0, 64, 61
2,67027, Control_c, 0, 64, 59
2,67043, Control_c, 0, 64, 58
2,67058, Control_c, 0, 64, 56
2,67074, Control_c, 0, 64, 55
2,67088, Control_c, 0, 64, 54
2,67103, Control_c, 0, 64, 52
2,67119, Control_c, 0, 64, 51
2,67134, Control_c, 0, 64, 50
2,67149, Control_c, 0, 64, 49
2,67154, Note_on_c, 0, 65, 35
2,67164, Control_c, 0, 64, 47
2,67168, Note_on_c, 0, 63, 0
2,67177, Control_c, 0, 64, 46
2,67193, Control_c, 0, 64, 45
2,67208, Control_c, 0, 64, 44
2,67223, Control_c, 0, 64, 44
2,67239, Control_c, 0, 64, 43
2,67254, Control_c, 0, 64, 42
2,67269, Control_c, 0, 64, 42
2,67299, Control_c, 0, 64, 41
2,67315, Control_c, 0, 64, 40
2,67330, Control_c, 0, 64, 39
2,67345, Control_c, 0, 64, 38
2,67382, Control_c, 0, 64, 38
2,67398, Control_c, 0, 64, 37
2,67406, Note_on_c, 0, 70, 59
2,67413, Control_c, 0, 64, 36
2,67415, Note_on_c, 0, 65, 0
2,67425, Note_on_c, 0, 67, 43
2,67444, Control_c, 0, 64, 36
2,67458, Control_c, 0, 64, 35
2,67489, Control_c, 0, 64, 35
2,67507, Note_on_c, 0, 72, 0
2,67535, Control_c, 0, 64, 34
2,67626, Control_c, 0, 64, 34
2,67656, Note_on_c, 0, 67, 0
2,67673, Control_c, 0, 64, 33
2,67678, Note_on_c, 0, 63, 43
2,67915, Note_on_c, 0, 63, 0
2,67920, Note_on_c, 0, 72, 64
2,67954, Note_on_c, 0, 62, 43
2,68048, Note_on_c, 0, 70, 0
2,68173, Note_on_c, 0, 62, 0
2,68187, Note_on_c, 0, 60, 48
2,68426, Control_c, 0, 64, 31
2,68441, Control_c, 0, 64, 24
2,68443, Note_on_c, 0, 74, 67
2,68449, Note_on_c, 0, 60, 0
2,68456, Control_c, 0, 64, 0
2,68474, Note_on_c, 0, 58, 35
2,68534, Note_on_c, 0, 72, 0
2,68563, Control_c, 0, 64, 9
2,68577, Control_c, 0, 64, 34
2,68593, Control_c, 0, 64, 46
2,68608, Control_c, 0, 64, 53
2,68623, Control_c, 0, 64, 58
2,68639, Control_c, 0, 64, 61
2,68654, Control_c, 0, 64, 65
2,68669, Control_c, 0, 64, 68
2,68685, Control_c, 0, 64, 72
2,68690, Note_on_c, 0, 58, 0
2,68700, Control_c, 0, 64, 77
2,68706, Note_on_c, 0, 57, 44
2,68706, Note_on_c, 0, 74, 0
2,68716, Control_c, 0, 64, 82
2,68730, Control_c, 0, 64, 87
2,68745, Control_c, 0, 64, 95
2,68761, Control_c, 0, 64, 102
2,68775, Control_c, 0, 64, 109
2,68790, Control_c, 0, 64, 112
2,68806, Control_c, 0, 64, 113
2,68821, Control_c, 0, 64, 115
2,68837, Control_c, 0, 64, 121
2,68851, Control_c, 0, 64, 127
2,68935, Control_c, 0, 64, 123
2,68950, Control_c, 0, 64, 118
2,68966, Control_c, 0, 64, 114
2,68968, Note_on_c, 0, 57, 0
2,68971, Note_on_c, 0, 67, 67
2,68972, Note_on_c, 0, 58, 52
2,68976, Note_on_c, 0, 79, 68
2,68981, Control_c, 0, 64, 106
2,68996, Control_c, 0, 64, 93
2,69011, Control_c, 0, 64, 79
2,69026, Control_c, 0, 64, 68
2,69042, Control_c, 0, 64, 58
2,69057, Control_c, 0, 64, 46
2,69071, Control_c, 0, 64, 39
2,69087, Control_c, 0, 64, 38
2,69118, Control_c, 0, 64, 41
2,69133, Control_c, 0, 64, 49
2,69147, Control_c, 0, 64, 56
2,69163, Control_c, 0, 64, 60
2,69178, Control_c, 0, 64, 62
2,69194, Control_c, 0, 64, 64
2,69208, Control_c, 0, 64, 66
2,69224, Control_c, 0, 64, 70
2,69240, Control_c, 0, 64, 74
2,69255, Control_c, 0, 64, 81
2,69270, Control_c, 0, 64, 90
2,69274, Note_on_c, 0, 79, 0
2,69285, Control_c, 0, 64, 103
2,69300, Control_c, 0, 64, 127
2,69482, Note_on_c, 0, 67, 0
2,69498, Control_c, 0, 64, 118
2,69507, Note_on_c, 0, 76, 69
2,69514, Control_c, 0, 64, 105
2,69514, Note_on_c, 0, 72, 60
2,69528, Control_c, 0, 64, 95
2,69543, Control_c, 0, 64, 88
2,69559, Control_c, 0, 64, 82
2,69574, Control_c, 0, 64, 77
2,69589, Control_c, 0, 64, 72
2,69605, Control_c, 0, 64, 67
2,69619, Control_c, 0, 64, 64
2,69635, Control_c, 0, 64, 61
2,69650, Control_c, 0, 64, 59
2,69665, Control_c, 0, 64, 57
2,69688, Control_c, 0, 64, 55
2,69702, Control_c, 0, 64, 54
2,69718, Control_c, 0, 64, 53
2,69733, Control_c, 0, 64, 52
2,69748, Control_c, 0, 64, 51
2,69758, Note_on_c, 0, 58, 0
2,69763, Note_on_c, 0, 57, 48
2,69764, Control_c, 0, 64, 51
2,69779, Control_c, 0, 64, 50
2,69795, Control_c, 0, 64, 49
2,69810, Control_c, 0, 64, 49
2,69825, Control_c, 0, 64, 48
2,69840, Control_c, 0, 64, 48
2,69855, Control_c, 0, 64, 47
2,69870, Control_c, 0, 64, 47
2,69886, Control_c, 0, 64, 46
2,69901, Control_c, 0, 64, 44
2,69916, Control_c, 0, 64, 42
2,69931, Control_c, 0, 64, 36
2,69946, Control_c, 0, 64, 26
2,69961, Control_c, 0, 64, 0
2,70000, Note_on_c, 0, 57, 0
2,70005, Note_on_c, 0, 78, 71
2,70027, Note_on_c, 0, 62, 39
2,70027, Note_on_c, 0, 70, 40
2,70061, Note_on_c, 0, 72, 0
2,70067, Note_on_c, 0, 76, 0
2,70068, Control_c, 0, 64, 29
2,70084, Control_c, 0, 64, 44
2,70099, Control_c, 0, 64, 51
2,70115, Control_c, 0, 64, 56
2,70130, Control_c, 0, 64, 59
2,70144, Control_c, 0, 64, 62
2,70160, Control_c, 0, 64, 64
2,70177, Control_c, 0, 64, 66
2,70188, Note_on_c, 0, 70, 0
2,70193, Control_c, 0, 64, 69
2,70208, Control_c, 0, 64, 72
2,70222, Control_c, 0, 64, 75
2,70238, Control_c, 0, 64, 78
2,70253, Control_c, 0, 64, 80
2,70255, Note_on_c, 0, 78, 0
2,70256, Note_on_c, 0, 69, 57
2,70257, Note_on_c, 0, 60, 44
2,70268, Control_c, 0, 64, 83
2,70272, Note_on_c, 0, 62, 0
2,70283, Control_c, 0, 64, 84
2,70298, Control_c, 0, 64, 85
2,70473, Control_c, 0, 64, 84
2,70488, Control_c, 0, 64, 84
2,70503, Control_c, 0, 64, 83
2,70512, Note_on_c, 0, 70, 60
2,70515, Note_on_c, 0, 79, 67
2,70519, Control_c, 0, 64, 80
2,70534, Control_c, 0, 64, 75
2,70543, Note_on_c, 0, 58, 40
2,70549, Control_c, 0, 64, 67
2,70556, Note_on_c, 0, 69, 0
2,70564, Control_c, 0, 64, 58
2,70568, Note_on_c, 0, 60, 0
2,70579, Control_c, 0, 64, 47
2,70595, Control_c, 0, 64, 37
2,70610, Control_c, 0, 64, 30
2,70625, Control_c, 0, 64, 29
2,70655, Control_c, 0, 64, 33
2,70671, Control_c, 0, 64, 43
2,70686, Control_c, 0, 64, 51
2,70701, Control_c, 0, 64, 56
2,70717, Control_c, 0, 64, 59
2,70732, Control_c, 0, 64, 62
2,70744, Note_on_c, 0, 79, 0
2,70748, Control_c, 0, 64, 64
2,70762, Control_c, 0, 64, 67
2,70769, Note_on_c, 0, 70, 0
2,70774, Note_on_c, 0, 58, 0
2,70777, Control_c, 0, 64, 69
2,70779, Note_on_c, 0, 55, 44
2,70793, Control_c, 0, 64, 73
2,70807, Control_c, 0, 64, 77
2,70822, Control_c, 0, 64, 81
2,70838, Control_c, 0, 64, 85
2,70854, Control_c, 0, 64, 88
2,70870, Control_c, 0, 64, 90
2,70885, Control_c, 0, 64, 91
2,70900, Control_c, 0, 64, 92
2,70915, Control_c, 0, 64, 92
2,70976, Control_c, 0, 64, 92
2,71035, Control_c, 0, 64, 91
2,71050, Control_c, 0, 64, 91
2,71061, Note_on_c, 0, 72, 63
2,71063, Note_on_c, 0, 60, 68
2,71065, Control_c, 0, 64, 88
2,71068, Note_on_c, 0, 68, 52
2,71078, Note_on_c, 0, 55, 0
2,71081, Control_c, 0, 64, 83
2,71096, Control_c, 0, 64, 74
2,71112, Control_c, 0, 64, 65
2,71126, Control_c, 0, 64, 55
2,71141, Control_c, 0, 64, 41
2,71157, Control_c, 0, 64, 39
2,71172, Control_c, 0, 64, 39
2,71188, Control_c, 0, 64, 42
2,71203, Control_c, 0, 64, 47
2,71225, Control_c, 0, 64, 52
2,71240, Control_c, 0, 64, 56
2,71255, Control_c, 0, 64, 59
2,71271, Control_c, 0, 64, 61
2,71286, Control_c, 0, 64, 62
2,71301, Control_c, 0, 64, 64
2,71316, Control_c, 0, 64, 65
2,71331, Control_c, 0, 64, 68
2,71331, Note_on_c, 0, 72, 0
2,71334, Note_on_c, 0, 67, 57
2,71347, Control_c, 0, 64, 71
2,71354, Note_on_c, 0, 68, 0
2,71362, Control_c, 0, 64, 75
2,71377, Control_c, 0, 64, 79
2,71393, Control_c, 0, 64, 84
2,71408, Control_c, 0, 64, 89
2,71423, Control_c, 0, 64, 95
2,71438, Control_c, 0, 64, 101
2,71453, Control_c, 0, 64, 108
2,71469, Control_c, 0, 64, 121
2,71484, Control_c, 0, 64, 127
2,71560, Control_c, 0, 64, 102
2,71575, Control_c, 0, 64, 80
2,71585, Note_on_c, 0, 77, 74
2,71587, Note_on_c, 0, 72, 66
2,71589, Note_on_c, 0, 67, 0
2,71591, Control_c, 0, 64, 66
2,71592, Note_on_c, 0, 57, 66
2,71605, Control_c, 0, 64, 54
2,71612, Note_on_c, 0, 60, 0
2,71620, Control_c, 0, 64, 47
2,71636, Control_c, 0, 64, 49
2,71650, Control_c, 0, 64, 52
2,71665, Control_c, 0, 64, 58
2,71676, Note_on_c, 0, 72, 0
2,71682, Control_c, 0, 64, 61
2,71697, Control_c, 0, 64, 63
2,71711, Note_on_c, 0, 77, 0
2,71713, Control_c, 0, 64, 65
2,71728, Control_c, 0, 64, 67
2,71743, Control_c, 0, 64, 69
2,71758, Control_c, 0, 64, 71
2,71773, Control_c, 0, 64, 74
2,71790, Control_c, 0, 64, 78
2,71805, Control_c, 0, 64, 83
2,71820, Control_c, 0, 64, 89
2,71835, Control_c, 0, 64, 95
2,71850, Control_c, 0, 64, 101
2,71856, Note_on_c, 0, 60, 55
2,71865, Control_c, 0, 64, 107
2,71880, Control_c, 0, 64, 113
2,71895, Control_c, 0, 64, 127
2,71972, Note_on_c, 0, 60, 0
2,72085, Control_c, 0, 64, 116
2,72100, Control_c, 0, 64, 107
2,72104, Note_on_c, 0, 67, 57
2,72111, Note_on_c, 0, 59, 67
2,72111, Note_on_c, 0, 75, 62
2,72116, Control_c, 0, 64, 97
2,72131, Control_c, 0, 64, 87
2,72147, Control_c, 0, 64, 80
2,72161, Control_c, 0, 64, 75
2,72164, Note_on_c, 0, 57, 0
2,72176, Control_c, 0, 64, 71
2,72192, Control_c, 0, 64, 68
2,72207, Control_c, 0, 64, 65
2,72222, Control_c, 0, 64, 62
2,72237, Control_c, 0, 64, 61
2,72252, Control_c, 0, 64, 60
2,72283, Control_c, 0, 64, 60
2,72297, Control_c, 0, 64, 59
2,72313, Control_c, 0, 64, 59
2,72328, Control_c, 0, 64, 58
2,72350, Note_on_c, 0, 75, 0
2,72357, Note_on_c, 0, 74, 61
2,72359, Control_c, 0, 64, 58
2,72374, Control_c, 0, 64, 57
2,72390, Control_c, 0, 64, 56
2,72404, Control_c, 0, 64, 56
2,72419, Control_c, 0, 64, 55
2,72435, Control_c, 0, 64, 54
2,72450, Control_c, 0, 64, 53
2,72465, Control_c, 0, 64, 53
2,72481, Control_c, 0, 64, 52
2,72496, Control_c, 0, 64, 52
2,72542, Control_c, 0, 64, 51
2,72627, Note_on_c, 0, 67, 0
2,72627, Note_on_c, 0, 75, 66
2,72628, Note_on_c, 0, 60, 65
2,72667, Note_on_c, 0, 59, 0
2,72668, Note_on_c, 0, 74, 0
2,72863, Note_on_c, 0, 67, 60
2,72870, Control_c, 0, 64, 52
2,72899, Control_c, 0, 64, 52
2,72929, Control_c, 0, 64, 53
2,72960, Control_c, 0, 64, 53
2,72991, Control_c, 0, 64, 54
2,73020, Control_c, 0, 64, 54
2,73042, Note_on_c, 0, 75, 0
2,73065, Control_c, 0, 64, 55
2,73112, Control_c, 0, 64, 55
2,73139, Note_on_c, 0, 69, 57
2,73140, Note_on_c, 0, 53, 75
2,73141, Note_on_c, 0, 67, 0
2,73172, Control_c, 0, 64, 56
2,73204, Note_on_c, 0, 60, 0
2,73385, Control_c, 0, 64, 56
2,73389, Note_on_c, 0, 75, 67
2,73462, Control_c, 0, 64, 57
2,73649, Note_on_c, 0, 70, 66
2,73652, Note_on_c, 0, 74, 72
2,73653, Note_on_c, 0, 69, 0
2,73660, Note_on_c, 0, 75, 0
2,73669, Note_on_c, 0, 58, 61
2,73697, Control_c, 0, 64, 56
2,73714, Note_on_c, 0, 53, 0
2,73759, Control_c, 0, 64, 56
2,73898, Note_on_c, 0, 72, 42
2,73904, Note_on_c, 0, 70, 0
2,74141, Note_on_c, 0, 76, 69
2,74144, Note_on_c, 0, 73, 59
2,74156, Note_on_c, 0, 56, 52
2,74164, Note_on_c, 0, 72, 0
2,74190, Note_on_c, 0, 74, 0
2,74193, Note_on_c, 0, 58, 0
2,74199, Control_c, 0, 64, 55
2,74359, Control_c, 0, 64, 55
2,74390, Note_on_c, 0, 56, 0
2,74399, Note_on_c, 0, 55, 58
2,74640, Note_on_c, 0, 55, 0
2,74653, Note_on_c, 0, 77, 74
2,74658, Note_on_c, 0, 57, 54
2,74703, Note_on_c, 0, 76, 0
2,74714, Note_on_c, 0, 73, 0
2,74724, Control_c, 0, 64, 54
2,74936, Control_c, 0, 64, 55
2,74939, Note_on_c, 0, 72, 45
2,74952, Control_c, 0, 64, 56
2,74967, Control_c, 0, 64, 58
2,74981, Control_c, 0, 64, 60
2,74997, Control_c, 0, 64, 62
2,75012, Control_c, 0, 64, 63
2,75028, Control_c, 0, 64, 64
2,75043, Control_c, 0, 64, 66
2,75065, Control_c, 0, 64, 68
2,75081, Control_c, 0, 64, 70
2,75096, Control_c, 0, 64, 72
2,75112, Control_c, 0, 64, 73
2,75127, Control_c, 0, 64, 75
2,75141, Control_c, 0, 64, 76
2,75172, Control_c, 0, 64, 74
2,75173, Note_on_c, 0, 57, 0
2,75185, Note_on_c, 0, 77, 0
2,75187, Control_c, 0, 64, 71
2,75187, Note_on_c, 0, 70, 68
2,75202, Control_c, 0, 64, 66
2,75208, Note_on_c, 0, 62, 43
2,75217, Control_c, 0, 64, 63
2,75233, Control_c, 0, 64, 59
2,75248, Control_c, 0, 64, 55
2,75263, Control_c, 0, 64, 54
2,75293, Control_c, 0, 64, 55
2,75309, Control_c, 0, 64, 57
2,75324, Control_c, 0, 64, 58
2,75339, Control_c, 0, 64, 60
2,75355, Control_c, 0, 64, 61
2,75370, Control_c, 0, 64, 61
2,75384, Control_c, 0, 64, 62
2,75400, Control_c, 0, 64, 63
2,75415, Control_c, 0, 64, 64
2,75420, Note_on_c, 0, 72, 0
2,75431, Control_c, 0, 64, 65
2,75432, Note_on_c, 0, 68, 58
2,75446, Control_c, 0, 64, 65
2,75460, Control_c, 0, 64, 66
2,75476, Control_c, 0, 64, 67
2,75491, Control_c, 0, 64, 68
2,75507, Control_c, 0, 64, 68
2,75522, Control_c, 0, 64, 69
2,75536, Control_c, 0, 64, 70
2,75552, Control_c, 0, 64, 70
2,75612, Control_c, 0, 64, 71
2,75644, Control_c, 0, 64, 70
2,75659, Control_c, 0, 64, 68
2,75674, Control_c, 0, 64, 64
2,75680, Note_on_c, 0, 75, 66
2,75682, Note_on_c, 0, 70, 0
2,75684, Note_on_c, 0, 67, 51
2,75689, Control_c, 0, 64, 57
2,75704, Control_c, 0, 64, 42
2,75720, Control_c, 0, 64, 23
2,75727, Note_on_c, 0, 68, 0
2,75735, Control_c, 0, 64, 20
2,75766, Control_c, 0, 64, 28
2,75781, Control_c, 0, 64, 42
2,75797, Control_c, 0, 64, 51
2,75812, Control_c, 0, 64, 55
2,75835, Control_c, 0, 64, 57
2,75850, Control_c, 0, 64, 59
2,75865, Control_c, 0, 64, 60
2,75881, Control_c, 0, 64, 62
2,75896, Control_c, 0, 64, 63
2,75909, Note_on_c, 0, 62, 0
2,75911, Control_c, 0, 64, 64
2,75926, Control_c, 0, 64, 66
2,75935, Note_on_c, 0, 60, 40
2,75941, Control_c, 0, 64, 67
2,75957, Control_c, 0, 64, 68
2,75972, Control_c, 0, 64, 69
2,75987, Control_c, 0, 64, 70
2,76002, Control_c, 0, 64, 71
2,76017, Control_c, 0, 64, 72
2,76032, Control_c, 0, 64, 72
2,76047, Control_c, 0, 64, 73
2,76078, Control_c, 0, 64, 73
2,76123, Control_c, 0, 64, 72
2,76138, Control_c, 0, 64, 71
2,76154, Control_c, 0, 64, 67
2,76165, Note_on_c, 0, 74, 57
2,76169, Control_c, 0, 64, 62
2,76171, Note_on_c, 0, 65, 45
2,76172, Note_on_c, 0, 60, 0
2,76175, Note_on_c, 0, 69, 48
2,76177, Note_on_c, 0, 75, 0
2,76183, Control_c, 0, 64, 54
2,76199, Control_c, 0, 64, 42
2,76211, Note_on_c, 0, 67, 0
2,76214, Control_c, 0, 64, 36
2,76259, Control_c, 0, 64, 40
2,76275, Control_c, 0, 64, 48
2,76290, Control_c, 0, 64, 54
2,76305, Control_c, 0, 64, 58
2,76321, Control_c, 0, 64, 60
2,76336, Control_c, 0, 64, 62
2,76352, Control_c, 0, 64, 64
2,76366, Control_c, 0, 64, 65
2,76381, Control_c, 0, 64, 67
2,76397, Control_c, 0, 64, 71
2,76412, Control_c, 0, 64, 74
2,76418, Note_on_c, 0, 63, 38
2,76424, Note_on_c, 0, 74, 0
2,76427, Note_on_c, 0, 72, 58
2,76428, Control_c, 0, 64, 77
2,76434, Note_on_c, 0, 69, 0
2,76442, Control_c, 0, 64, 81
2,76457, Control_c, 0, 64, 84
2,76460, Note_on_c, 0, 65, 0
2,76473, Control_c, 0, 64, 86
2,76488, Control_c, 0, 64, 88
2,76503, Control_c, 0, 64, 89
2,76518, Control_c, 0, 64, 90
2,76533, Control_c, 0, 64, 91
2,76549, Control_c, 0, 64, 92
2,76567, Note_on_c, 0, 72, 0
2,76633, Control_c, 0, 64, 91
2,76648, Control_c, 0, 64, 91
2,76663, Control_c, 0, 64, 88
2,76679, Control_c, 0, 64, 81
2,76694, Control_c, 0, 64, 73
2,76694, Note_on_c, 0, 62, 36
2,76696, Note_on_c, 0, 74, 52
2,76700, Note_on_c, 0, 70, 49
2,76710, Control_c, 0, 64, 65
2,76716, Note_on_c, 0, 63, 0
2,76725, Control_c, 0, 64, 56
2,76739, Control_c, 0, 64, 42
2,76755, Control_c, 0, 64, 30
2,76770, Control_c, 0, 64, 24
2,76785, Control_c, 0, 64, 23
2,76801, Control_c, 0, 64, 24
2,76816, Control_c, 0, 64, 32
2,76831, Control_c, 0, 64, 43
2,76846, Control_c, 0, 64, 51
2,76861, Control_c, 0, 64, 55
2,76876, Control_c, 0, 64, 58
2,76891, Control_c, 0, 64, 60
2,76907, Control_c, 0, 64, 62
2,76922, Control_c, 0, 64, 63
2,76937, Control_c, 0, 64, 65
2,76941, Note_on_c, 0, 62, 0
2,76952, Control_c, 0, 64, 66
2,76967, Control_c, 0, 64, 68
2,76974, Note_on_c, 0, 60, 35
2,76982, Control_c, 0, 64, 69
2,76997, Control_c, 0, 64, 70
2,77012, Control_c, 0, 64, 71
2,77028, Control_c, 0, 64, 71
2,77043, Control_c, 0, 64, 72
2,77073, Control_c, 0, 64, 73
2,77165, Control_c, 0, 64, 72
2,77196, Control_c, 0, 64, 72
2,77210, Control_c, 0, 64, 71
2,77217, Note_on_c, 0, 67, 51
2,77225, Control_c, 0, 64, 71
2,77228, Note_on_c, 0, 63, 48
2,77232, Note_on_c, 0, 61, 34
2,77241, Control_c, 0, 64, 70
2,77241, Note_on_c, 0, 60, 0
2,77256, Control_c, 0, 64, 68
2,77272, Control_c, 0, 64, 67
2,77286, Control_c, 0, 64, 65
2,77296, Note_on_c, 0, 74, 0
2,77301, Control_c, 0, 64, 64
2,77317, Control_c, 0, 64, 62
2,77332, Control_c, 0, 64, 61
2,77348, Control_c, 0, 64, 59
2,77369, Control_c, 0, 64, 57
2,77384, Control_c, 0, 64, 56
2,77395, Note_on_c, 0, 70, 0
2,77400, Control_c, 0, 64, 55
2,77416, Control_c, 0, 64, 54
2,77432, Control_c, 0, 64, 53
2,77447, Control_c, 0, 64, 52
2,77461, Control_c, 0, 64, 52
2,77477, Control_c, 0, 64, 51
2,77492, Control_c, 0, 64, 51
2,77508, Control_c, 0, 64, 50
2,77537, Control_c, 0, 64, 50
2,77819, Note_on_c, 0, 75, 50
2,77832, Note_on_c, 0, 68, 43
2,77929, Note_on_c, 0, 67, 0
2,78036, Note_on_c, 0, 63, 0
2,78068, Control_c, 0, 64, 50
2,78111, Note_on_c, 0, 60, 30
2,78142, Note_on_c, 0, 61, 0
2,78198, Control_c, 0, 64, 51
2,78353, Note_on_c, 0, 67, 38
2,78375, Note_on_c, 0, 58, 41
2,78388, Note_on_c, 0, 60, 0
2,78400, Note_on_c, 0, 68, 0
2,78600, Note_on_c, 0, 56, 41
2,78608, Note_on_c, 0, 58, 0
2,78609, Note_on_c, 0, 65, 44
2,78659, Note_on_c, 0, 67, 0
2,78794, Note_on_c, 0, 75, 0
2,78870, Note_on_c, 0, 58, 40
2,78885, Note_on_c, 0, 56, 0
2,78898, Note_on_c, 0, 67, 40
2,78966, Note_on_c, 0, 65, 0
2,78996, Control_c, 0, 64, 50
2,79011, Control_c, 0, 64, 50
2,79025, Control_c, 0, 64, 49
2,79042, Control_c, 0, 64, 48
2,79057, Control_c, 0, 64, 46
2,79073, Control_c, 0, 64, 42
2,79088, Control_c, 0, 64, 36
2,79103, Control_c, 0, 64, 28
2,79119, Control_c, 0, 64, 17
2,79133, Control_c, 0, 64, 0
2,79138, Note_on_c, 0, 75, 60
2,79345, Control_c, 0, 64, 30
2,79361, Control_c, 0, 64, 45
2,79376, Control_c, 0, 64, 53
2,79390, Note_on_c, 0, 59, 44
2,79392, Control_c, 0, 64, 57
2,79392, Note_on_c, 0, 74, 60
2,79406, Control_c, 0, 64, 60
2,79421, Control_c, 0, 64, 63
2,79423, Note_on_c, 0, 58, 0
2,79437, Control_c, 0, 64, 65
2,79451, Note_on_c, 0, 67, 0
2,79452, Control_c, 0, 64, 69
2,79469, Control_c, 0, 64, 73
2,79478, Note_on_c, 0, 59, 0
2,79483, Control_c, 0, 64, 78
2,79498, Control_c, 0, 64, 85
2,79514, Control_c, 0, 64, 94
2,79528, Control_c, 0, 64, 111
2,79543, Control_c, 0, 64, 127
2,79583, Note_on_c, 0, 74, 0
2,79585, Note_on_c, 0, 75, 0
2,79630, Note_on_c, 0, 65, 67
2,79911, Note_on_c, 0, 55, 70
2,79924, Note_on_c, 0, 63, 68
2,79929, Note_on_c, 0, 60, 64
2,79960, Note_on_c, 0, 65, 0
2,79975, Control_c, 0, 64, 87
2,79990, Control_c, 0, 64, 69
2,80006, Control_c, 0, 64, 54
2,80021, Control_c, 0, 64, 0
2,80196, Note_on_c, 0, 72, 64
2,80385, Control_c, 0, 64, 18
2,80401, Control_c, 0, 64, 40
2,80416, Control_c, 0, 64, 48
2,80440, Control_c, 0, 64, 54
2,80454, Control_c, 0, 64, 58
2,80463, Note_on_c, 0, 62, 69
2,80464, Note_on_c, 0, 60, 0
2,80469, Control_c, 0, 64, 62
2,80471, Note_on_c, 0, 63, 0
2,80485, Control_c, 0, 64, 65
2,80500, Control_c, 0, 64, 68
2,80515, Control_c, 0, 64, 73
2,80530, Control_c, 0, 64, 79
2,80532, Note_on_c, 0, 55, 0
2,80545, Control_c, 0, 64, 88
2,80561, Control_c, 0, 64, 104
2,80576, Control_c, 0, 64, 127
2,80676, Note_on_c, 0, 72, 0
2,80683, Note_on_c, 0, 71, 71
2,80752, Note_on_c, 0, 62, 0
2,80947, Note_on_c, 0, 72, 76
2,80954, Note_on_c, 0, 51, 73
2,80956, Note_on_c, 0, 60, 68
2,80960, Note_on_c, 0, 71, 0
2,80972, Control_c, 0, 64, 100
2,80983, Note_on_c, 0, 55, 56
2,80987, Control_c, 0, 64, 71
2,81003, Control_c, 0, 64, 50
2,81017, Control_c, 0, 64, 0
2,81079, Control_c, 0, 64, 28
2,81084, Note_on_c, 0, 60, 0
2,81093, Control_c, 0, 64, 47
2,81108, Control_c, 0, 64, 55
2,81124, Control_c, 0, 64, 59
2,81138, Control_c, 0, 64, 61
2,81154, Control_c, 0, 64, 64
2,81161, Note_on_c, 0, 72, 0
2,81169, Control_c, 0, 64, 67
2,81184, Control_c, 0, 64, 71
2,81195, Note_on_c, 0, 55, 0
2,81207, Control_c, 0, 64, 77
2,81220, Note_on_c, 0, 60, 61
2,81222, Control_c, 0, 64, 85
2,81238, Control_c, 0, 64, 98
2,81253, Control_c, 0, 64, 127
2,81467, Note_on_c, 0, 75, 78
2,81468, Note_on_c, 0, 79, 78
2,81481, Note_on_c, 0, 59, 54
2,81488, Note_on_c, 0, 60, 0
2,81688, Note_on_c, 0, 59, 0
2,81711, Note_on_c, 0, 60, 61
2,81978, Note_on_c, 0, 75, 0
2,81986, Note_on_c, 0, 68, 72
2,81990, Note_on_c, 0, 74, 75
2,82002, Note_on_c, 0, 53, 76
2,82020, Control_c, 0, 64, 105
2,82036, Control_c, 0, 64, 87
2,82051, Control_c, 0, 64, 76
2,82057, Note_on_c, 0, 79, 0
2,82063, Note_on_c, 0, 51, 0
2,82066, Control_c, 0, 64, 67
2,82081, Control_c, 0, 64, 60
2,82096, Control_c, 0, 64, 51
2,82111, Control_c, 0, 64, 45
2,82127, Control_c, 0, 64, 39
2,82142, Control_c, 0, 64, 34
2,82157, Control_c, 0, 64, 24
2,82172, Control_c, 0, 64, 0
2,82230, Note_on_c, 0, 59, 57
2,82262, Note_on_c, 0, 60, 0
2,82491, Note_on_c, 0, 59, 0
2,82494, Note_on_c, 0, 60, 63
2,82505, Note_on_c, 0, 75, 77
2,82506, Control_c, 0, 64, 23
2,82522, Control_c, 0, 64, 33
2,82537, Control_c, 0, 64, 39
2,82552, Control_c, 0, 64, 43
2,82568, Control_c, 0, 64, 46
2,82583, Control_c, 0, 64, 47
2,82599, Control_c, 0, 64, 48
2,82614, Control_c, 0, 64, 48
2,82619, Note_on_c, 0, 74, 0
2,82628, Control_c, 0, 64, 49
2,82644, Control_c, 0, 64, 50
2,82659, Control_c, 0, 64, 51
2,82704, Control_c, 0, 64, 52
2,82742, Control_c, 0, 64, 52
2,82744, Note_on_c, 0, 77, 80
2,82764, Note_on_c, 0, 75, 0
2,82788, Control_c, 0, 64, 53
2,82973, Control_c, 0, 64, 52
2,82988, Control_c, 0, 64, 51
2,83003, Control_c, 0, 64, 49
2,83018, Control_c, 0, 64, 45
2,83022, Note_on_c, 0, 75, 77
2,83029, Note_on_c, 0, 55, 69
2,83034, Control_c, 0, 64, 36
2,83048, Control_c, 0, 64, 16
2,83063, Control_c, 0, 64, 0
2,83090, Note_on_c, 0, 77, 0
2,83100, Note_on_c, 0, 53, 0
2,83117, Note_on_c, 0, 68, 0
2,83202, Control_c, 0, 64, 15
2,83216, Control_c, 0, 64, 29
2,83232, Control_c, 0, 64, 36
2,83247, Control_c, 0, 64, 42
2,83262, Control_c, 0, 64, 49
2,83277, Control_c, 0, 64, 53
2,83282, Note_on_c, 0, 67, 56
2,83292, Control_c, 0, 64, 56
2,83309, Control_c, 0, 64, 59
2,83324, Control_c, 0, 64, 61
2,83339, Control_c, 0, 64, 63
2,83344, Note_on_c, 0, 75, 0
2,83354, Control_c, 0, 64, 65
2,83369, Control_c, 0, 64, 68
2,83384, Control_c, 0, 64, 72
2,83400, Control_c, 0, 64, 75
2,83415, Control_c, 0, 64, 79
2,83430, Control_c, 0, 64, 84
2,83445, Control_c, 0, 64, 90
2,83460, Control_c, 0, 64, 100
2,83475, Control_c, 0, 64, 123
2,83490, Control_c, 0, 64, 127
2,83540, Note_on_c, 0, 74, 73
2,83542, Note_on_c, 0, 59, 50
2,83591, Note_on_c, 0, 67, 0
2,83642, Note_on_c, 0, 60, 0
2,83653, Note_on_c, 0, 55, 0
2,83664, Note_on_c, 0, 59, 0
2,83774, Note_on_c, 0, 65, 57
2,83774, Note_on_c, 0, 74, 0
2,84032, Note_on_c, 0, 48, 72
2,84040, Note_on_c, 0, 63, 74
2,84044, Note_on_c, 0, 60, 62
2,84069, Note_on_c, 0, 65, 0
2,84092, Control_c, 0, 64, 92
2,84108, Control_c, 0, 64, 78
2,84122, Control_c, 0, 64, 67
2,84137, Control_c, 0, 64, 60
2,84153, Control_c, 0, 64, 52
2,84168, Control_c, 0, 64, 46
2,84183, Control_c, 0, 64, 38
2,84198, Control_c, 0, 64, 23
2,84213, Control_c, 0, 64, 0
2,84307, Note_on_c, 0, 72, 70
2,84403, Control_c, 0, 64, 9
2,84418, Control_c, 0, 64, 17
2,84434, Control_c, 0, 64, 23
2,84448, Control_c, 0, 64, 24
2,84463, Control_c, 0, 64, 24
2,84494, Control_c, 0, 64, 26
2,84510, Control_c, 0, 64, 28
2,84524, Control_c, 0, 64, 30
2,84539, Control_c, 0, 64, 30
2,84551, Note_on_c, 0, 63, 0
2,84555, Note_on_c, 0, 64, 66
2,84585, Control_c, 0, 64, 31
2,84615, Control_c, 0, 64, 32
2,84708, Control_c, 0, 64, 33
2,84779, Note_on_c, 0, 70, 75
2,84799, Control_c, 0, 64, 33
2,84820, Note_on_c, 0, 72, 0
2,84845, Control_c, 0, 64, 34
2,84876, Control_c, 0, 64, 34
2,85063, Note_on_c, 0, 53, 73
2,85068, Note_on_c, 0, 68, 70
2,85086, Note_on_c, 0, 48, 0
2,85117, Note_on_c, 0, 70, 0
2,85141, Control_c, 0, 64, 34
2,85299, Note_on_c, 0, 64, 0
2,85323, Control_c, 0, 64, 34
2,85324, Note_on_c, 0, 65, 52
2,85505, Control_c, 0, 64, 33
2,85521, Control_c, 0, 64, 32
2,85535, Control_c, 0, 64, 31
2,85575, Note_on_c, 0, 59, 52
2,85575, Note_on_c, 0, 68, 0
2,85578, Note_on_c, 0, 62, 52
2,85597, Control_c, 0, 64, 32
2,85612, Control_c, 0, 64, 34
2,85628, Control_c, 0, 64, 39
2,85634, Note_on_c, 0, 60, 0
2,85643, Control_c, 0, 64, 43
2,85658, Control_c, 0, 64, 48
2,85673, Control_c, 0, 64, 52
2,85688, Control_c, 0, 64, 56
2,85703, Control_c, 0, 64, 59
2,85719, Control_c, 0, 64, 61
2,85733, Control_c, 0, 64, 63
2,85749, Control_c, 0, 64, 65
2,85764, Control_c, 0, 64, 67
2,85779, Control_c, 0, 64, 70
2,85795, Control_c, 0, 64, 73
2,85817, Control_c, 0, 64, 77
2,85817, Note_on_c, 0, 68, 57
2,85833, Control_c, 0, 64, 81
2,85848, Control_c, 0, 64, 84
2,85862, Control_c, 0, 64, 86
2,85876, Note_on_c, 0, 62, 0
2,85878, Control_c, 0, 64, 87
2,85887, Note_on_c, 0, 65, 0
2,85893, Control_c, 0, 64, 88
2,85924, Control_c, 0, 64, 89
2,86000, Control_c, 0, 64, 88
2,86030, Control_c, 0, 64, 87
2,86045, Control_c, 0, 64, 86
2,86058, Note_on_c, 0, 51, 61
2,86060, Control_c, 0, 64, 83
2,86076, Control_c, 0, 64, 77
2,86077, Note_on_c, 0, 60, 41
2,86077, Note_on_c, 0, 67, 60
2,86090, Control_c, 0, 64, 69
2,86105, Control_c, 0, 64, 63
2,86111, Note_on_c, 0, 59, 0
2,86121, Control_c, 0, 64, 52
2,86135, Control_c, 0, 64, 39
2,86138, Note_on_c, 0, 53, 0
2,86148, Note_on_c, 0, 68, 0
2,86151, Control_c, 0, 64, 35
2,86166, Control_c, 0, 64, 35
2,86181, Control_c, 0, 64, 35
2,86197, Control_c, 0, 64, 39
2,86211, Control_c, 0, 64, 46
2,86227, Control_c, 0, 64, 52
2,86242, Control_c, 0, 64, 56
2,86257, Control_c, 0, 64, 59
2,86273, Control_c, 0, 64, 61
2,86288, Control_c, 0, 64, 63
2,86303, Control_c, 0, 64, 65
2,86319, Control_c, 0, 64, 67
2,86328, Note_on_c, 0, 63, 49
2,86333, Control_c, 0, 64, 69
2,86349, Control_c, 0, 64, 72
2,86364, Control_c, 0, 64, 75
2,86379, Control_c, 0, 64, 78
2,86395, Control_c, 0, 64, 81
2,86410, Control_c, 0, 64, 84
2,86425, Control_c, 0, 64, 86
2,86441, Control_c, 0, 64, 87
2,86441, Note_on_c, 0, 51, 0
2,86456, Control_c, 0, 64, 88
2,86472, Control_c, 0, 64, 88
2,86487, Control_c, 0, 64, 89
2,86548, Control_c, 0, 64, 88
2,86560, Note_on_c, 0, 50, 59
2,86563, Control_c, 0, 64, 83
2,86578, Note_on_c, 0, 65, 56
2,86584, Control_c, 0, 64, 75
2,86600, Control_c, 0, 64, 67
2,86615, Control_c, 0, 64, 60
2,86628, Note_on_c, 0, 63, 0
2,86631, Control_c, 0, 64, 54
2,86646, Control_c, 0, 64, 52
2,86660, Control_c, 0, 64, 53
2,86676, Control_c, 0, 64, 56
2,86691, Control_c, 0, 64, 59
2,86707, Control_c, 0, 64, 62
2,86722, Control_c, 0, 64, 63
2,86737, Control_c, 0, 64, 65
2,86753, Control_c, 0, 64, 66
2,86768, Control_c, 0, 64, 68
2,86782, Control_c, 0, 64, 70
2,86798, Control_c, 0, 64, 73
2,86802, Note_on_c, 0, 50, 0
2,86813, Control_c, 0, 64, 75
2,86822, Note_on_c, 0, 59, 44
2,86829, Control_c, 0, 64, 78
2,86844, Control_c, 0, 64, 81
2,86858, Control_c, 0, 64, 84
2,86874, Control_c, 0, 64, 86
2,86889, Control_c, 0, 64, 88
2,86903, Control_c, 0, 64, 89
2,86919, Control_c, 0, 64, 90
2,86933, Note_on_c, 0, 60, 0
2,86934, Control_c, 0, 64, 91
2,86965, Control_c, 0, 64, 91
2,87010, Control_c, 0, 64, 91
2,87025, Control_c, 0, 64, 90
2,87041, Control_c, 0, 64, 88
2,87055, Control_c, 0, 64, 84
2,87065, Note_on_c, 0, 51, 50
2,87071, Control_c, 0, 64, 78
2,87086, Control_c, 0, 64, 72
2,87088, Note_on_c, 0, 59, 0
2,87101, Control_c, 0, 64, 67
2,87117, Control_c, 0, 64, 64
2,87131, Control_c, 0, 64, 60
2,87148, Control_c, 0, 64, 57
2,87163, Control_c, 0, 64, 53
2,87178, Control_c, 0, 64, 51
2,87193, Control_c, 0, 64, 50
2,87208, Control_c, 0, 64, 49
2,87223, Control_c, 0, 64, 47
2,87240, Control_c, 0, 64, 45
2,87255, Control_c, 0, 64, 43
2,87309, Note_on_c, 0, 55, 46
2,87369, Control_c, 0, 64, 44
2,87384, Control_c, 0, 64, 45
2,87400, Control_c, 0, 64, 45
2,87415, Control_c, 0, 64, 46
2,87430, Control_c, 0, 64, 46
2,87460, Control_c, 0, 64, 47
2,87521, Control_c, 0, 64, 47
2,87544, Note_on_c, 0, 55, 0
2,87551, Control_c, 0, 64, 48
2,87592, Note_on_c, 0, 63, 37
2,87593, Note_on_c, 0, 60, 31
2,87612, Control_c, 0, 64, 48
2,87619, Note_on_c, 0, 65, 0
2,87642, Control_c, 0, 64, 49
2,87835, Note_on_c, 0, 55, 38
2,88122, Control_c, 0, 64, 48
2,88137, Control_c, 0, 64, 48
2,88183, Control_c, 0, 64, 47
2,88184, Note_on_c, 0, 56, 34
2,88188, Note_on_c, 0, 72, 45
2,88198, Control_c, 0, 64, 47
2,88229, Control_c, 0, 64, 46
2,88239, Note_on_c, 0, 55, 0
2,88244, Note_on_c, 0, 51, 0
2,88269, Note_on_c, 0, 63, 0
2,88274, Control_c, 0, 64, 46
2,88304, Control_c, 0, 64, 45
2,88471, Control_c, 0, 64, 45
2,88482, Note_on_c, 0, 64, 33
2,88563, Control_c, 0, 64, 44
2,88654, Control_c, 0, 64, 44
2,88703, Note_on_c, 0, 60, 0
2,88713, Control_c, 0, 64, 43
2,88717, Note_on_c, 0, 65, 38
2,88718, Note_on_c, 0, 58, 33
2,88725, Note_on_c, 0, 56, 0
2,88728, Control_c, 0, 64, 43
2,88730, Note_on_c, 0, 64, 0
2,88731, Note_on_c, 0, 55, 25
2,88758, Control_c, 0, 64, 42
2,88789, Control_c, 0, 64, 42
2,88804, Control_c, 0, 64, 41
2,88819, Control_c, 0, 64, 41
2,88865, Control_c, 0, 64, 40
2,88889, Control_c, 0, 64, 40
2,88889, Note_on_c, 0, 67, 0
2,88962, Note_on_c, 0, 67, 39
2,88967, Note_on_c, 0, 65, 0
2,89086, Control_c, 0, 64, 39
2,89131, Control_c, 0, 64, 39
2,89147, Control_c, 0, 64, 38
2,89162, Control_c, 0, 64, 38
2,89177, Control_c, 0, 64, 37
2,89193, Control_c, 0, 64, 35
2,89203, Note_on_c, 0, 55, 0
2,89208, Control_c, 0, 64, 33
2,89222, Control_c, 0, 64, 31
2,89234, Note_on_c, 0, 56, 37
2,89238, Control_c, 0, 64, 29
2,89252, Note_on_c, 0, 68, 46
2,89253, Control_c, 0, 64, 25
2,89253, Note_on_c, 0, 53, 22
2,89259, Note_on_c, 0, 58, 0
2,89269, Control_c, 0, 64, 23
2,89284, Control_c, 0, 64, 22
2,89297, Note_on_c, 0, 67, 0
2,89329, Control_c, 0, 64, 28
2,89344, Control_c, 0, 64, 38
2,89344, Control_c, 0, 67, 16
2,89360, Control_c, 0, 64, 46
2,89360, Control_c, 0, 67, 23
2,89370, Note_on_c, 0, 56, 0
2,89375, Control_c, 0, 64, 52
2,89375, Control_c, 0, 67, 26
2,89390, Control_c, 0, 64, 58
2,89405, Control_c, 0, 64, 64
2,89420, Control_c, 0, 64, 68
2,89435, Control_c, 0, 64, 72
2,89450, Control_c, 0, 64, 77
2,89450, Control_c, 0, 67, 26
2,89451, Note_on_c, 0, 53, 0
2,89465, Control_c, 0, 64, 81
2,89465, Control_c, 0, 67, 25
2,89481, Control_c, 0, 64, 83
2,89481, Control_c, 0, 67, 24
2,89511, Control_c, 0, 67, 25
2,89540, Note_on_c, 0, 67, 47
2,89602, Control_c, 0, 64, 83
2,89633, Control_c, 0, 64, 82
2,89686, Control_c, 0, 64, 82
2,89702, Control_c, 0, 64, 81
2,89733, Control_c, 0, 64, 81
2,89748, Control_c, 0, 64, 80
2,89763, Control_c, 0, 64, 77
2,89763, Control_c, 0, 67, 26
2,89767, Note_on_c, 0, 67, 0
2,89778, Control_c, 0, 64, 72
2,89779, Note_on_c, 0, 62, 38
2,89787, Note_on_c, 0, 65, 36
2,89794, Control_c, 0, 64, 66
2,89809, Control_c, 0, 64, 60
2,89823, Control_c, 0, 64, 52
2,89839, Control_c, 0, 64, 50
2,89854, Control_c, 0, 64, 52
2,89870, Control_c, 0, 64, 55
2,89884, Control_c, 0, 64, 59
2,89899, Control_c, 0, 64, 61
2,89915, Control_c, 0, 64, 63
2,89915, Control_c, 0, 67, 25
2,89930, Control_c, 0, 64, 64
2,89930, Control_c, 0, 67, 24
2,89945, Control_c, 0, 64, 66
2,89945, Control_c, 0, 67, 24
2,89960, Control_c, 0, 64, 68
2,89975, Control_c, 0, 64, 71
2,89975, Control_c, 0, 67, 23
2,89977, Note_on_c, 0, 62, 0
2,89991, Control_c, 0, 64, 74
2,89991, Control_c, 0, 67, 23
2,89997, Note_on_c, 0, 65, 0
2,90006, Control_c, 0, 64, 78
2,90006, Control_c, 0, 67, 22
2,90018, Note_on_c, 0, 63, 48
2,90021, Control_c, 0, 64, 81
2,90036, Control_c, 0, 64, 84
2,90051, Control_c, 0, 64, 87
2,90067, Control_c, 0, 64, 88
2,90082, Control_c, 0, 64, 89
2,90082, Control_c, 0, 67, 21
2,90097, Control_c, 0, 67, 21
2,90134, Note_on_c, 0, 63, 0
2,90173, Control_c, 0, 64, 88
2,90173, Control_c, 0, 67, 20
2,90189, Control_c, 0, 64, 87
2,90189, Control_c, 0, 67, 19
2,90203, Control_c, 0, 64, 86
2,90203, Control_c, 0, 67, 18
2,90218, Control_c, 0, 64, 85
2,90218, Control_c, 0, 67, 18
2,90234, Control_c, 0, 64, 83
2,90249, Control_c, 0, 64, 81
2,90264, Control_c, 0, 64, 78
2,90264, Control_c, 0, 67, 17
2,90279, Control_c, 0, 64, 76
2,90279, Control_c, 0, 67, 16
2,90281, Note_on_c, 0, 67, 42
2,90294, Control_c, 0, 64, 73
2,90294, Control_c, 0, 67, 16
2,90300, Note_on_c, 0, 62, 33
2,90303, Note_on_c, 0, 55, 30
2,90310, Control_c, 0, 64, 71
2,90310, Control_c, 0, 67, 15
2,90325, Control_c, 0, 64, 69
2,90340, Control_c, 0, 64, 66
2,90340, Control_c, 0, 67, 14
2,90355, Control_c, 0, 64, 63
2,90370, Control_c, 0, 64, 62
2,90370, Control_c, 0, 67, 13
2,90385, Control_c, 0, 64, 60
2,90385, Control_c, 0, 67, 12
2,90401, Control_c, 0, 64, 60
2,90401, Control_c, 0, 67, 11
2,90421, Note_on_c, 0, 68, 0
2,90423, Control_c, 0, 64, 59
2,90423, Control_c, 0, 67, 10
2,90439, Control_c, 0, 64, 59
2,90439, Control_c, 0, 67, 9
2,90454, Control_c, 0, 67, 0
2,90470, Control_c, 0, 64, 58
2,90485, Control_c, 0, 64, 58
2,90499, Control_c, 0, 64, 57
2,90516, Control_c, 0, 64, 57
2,90531, Control_c, 0, 64, 56
2,90540, Note_on_c, 0, 71, 51
2,90580, Note_on_c, 0, 72, 0
2,90644, Note_on_c, 0, 67, 0
2,90780, Note_on_c, 0, 57, 38
2,90789, Note_on_c, 0, 72, 56
2,90796, Note_on_c, 0, 65, 44
2,90803, Note_on_c, 0, 55, 0
2,90807, Note_on_c, 0, 71, 0
2,90987, Note_on_c, 0, 57, 0
2,91006, Note_on_c, 0, 72, 0
2,91017, Note_on_c, 0, 74, 56
2,91019, Note_on_c, 0, 59, 42
2,91139, Control_c, 0, 64, 56
2,91193, Control_c, 0, 64, 55
2,91222, Control_c, 0, 64, 55
2,91253, Note_on_c, 0, 74, 0
2,91307, Note_on_c, 0, 59, 0
2,91311, Note_on_c, 0, 67, 54
2,91312, Note_on_c, 0, 60, 35
2,91314, Control_c, 0, 64, 56
2,91329, Control_c, 0, 64, 57
2,91345, Control_c, 0, 64, 59
2,91350, Note_on_c, 0, 62, 0
2,91360, Control_c, 0, 64, 61
2,91375, Control_c, 0, 64, 62
2,91391, Control_c, 0, 64, 64
2,91406, Control_c, 0, 64, 66
2,91421, Control_c, 0, 64, 68
2,91437, Control_c, 0, 64, 71
2,91452, Control_c, 0, 64, 76
2,91467, Control_c, 0, 64, 81
2,91482, Control_c, 0, 64, 88
2,91497, Control_c, 0, 64, 95
2,91513, Control_c, 0, 64, 105
2,91528, Control_c, 0, 64, 119
2,91543, Control_c, 0, 64, 127
2,91622, Note_on_c, 0, 63, 64
2,91638, Note_on_c, 0, 60, 0
2,91648, Note_on_c, 0, 67, 0
2,91663, Note_on_c, 0, 65, 0
2,91915, Note_on_c, 0, 68, 83
2,91922, Note_on_c, 0, 60, 71
2,91923, Control_c, 0, 64, 121
2,91923, Note_on_c, 0, 48, 74
2,91937, Control_c, 0, 64, 94
2,91961, Control_c, 0, 64, 75
2,91975, Control_c, 0, 64, 65
2,91991, Control_c, 0, 64, 54
2,91997, Note_on_c, 0, 63, 0
2,92006, Control_c, 0, 64, 44
2,92021, Control_c, 0, 64, 43
2,92051, Control_c, 0, 64, 45
2,92067, Control_c, 0, 64, 48
2,92082, Control_c, 0, 64, 52
2,92097, Control_c, 0, 64, 56
2,92112, Control_c, 0, 64, 60
2,92127, Control_c, 0, 64, 62
2,92142, Control_c, 0, 64, 64
2,92157, Note_on_c, 0, 48, 0
2,92159, Control_c, 0, 64, 66
2,92174, Control_c, 0, 64, 70
2,92177, Note_on_c, 0, 65, 69
2,92190, Control_c, 0, 64, 74
2,92204, Control_c, 0, 64, 80
2,92219, Control_c, 0, 64, 88
2,92221, Note_on_c, 0, 60, 0
2,92235, Control_c, 0, 64, 98
2,92250, Control_c, 0, 64, 117
2,92265, Control_c, 0, 64, 127
2,92295, Note_on_c, 0, 68, 0
2,92436, Note_on_c, 0, 47, 77
2,92437, Note_on_c, 0, 67, 77
2,92445, Note_on_c, 0, 62, 62
2,92448, Control_c, 0, 64, 104
2,92463, Control_c, 0, 64, 82
2,92479, Control_c, 0, 64, 68
2,92484, Note_on_c, 0, 65, 0
2,92493, Control_c, 0, 64, 56
2,92509, Control_c, 0, 64, 30
2,92523, Control_c, 0, 64, 0
2,92599, Control_c, 0, 64, 19
2,92613, Control_c, 0, 64, 35
2,92629, Control_c, 0, 64, 47
2,92644, Control_c, 0, 64, 53
2,92659, Control_c, 0, 64, 57
2,92675, Control_c, 0, 64, 61
2,92683, Note_on_c, 0, 65, 71
2,92685, Note_on_c, 0, 47, 0
2,92690, Control_c, 0, 64, 63
2,92705, Control_c, 0, 64, 65
2,92728, Control_c, 0, 64, 68
2,92733, Note_on_c, 0, 67, 0
2,92742, Control_c, 0, 64, 71
2,92758, Control_c, 0, 64, 75
2,92773, Control_c, 0, 64, 80
2,92789, Control_c, 0, 64, 85
2,92804, Control_c, 0, 64, 92
2,92818, Control_c, 0, 64, 101
2,92834, Control_c, 0, 64, 110
2,92849, Control_c, 0, 64, 127
2,92929, Note_on_c, 0, 48, 76
2,92937, Note_on_c, 0, 60, 70
2,92940, Control_c, 0, 64, 119
2,92943, Note_on_c, 0, 63, 74
2,92956, Control_c, 0, 64, 89
2,92971, Control_c, 0, 64, 71
2,92977, Note_on_c, 0, 62, 0
2,92987, Control_c, 0, 64, 60
2,93002, Control_c, 0, 64, 44
2,93017, Control_c, 0, 64, 42
2,93033, Control_c, 0, 64, 42
2,93048, Control_c, 0, 64, 46
2,93062, Control_c, 0, 64, 52
2,93078, Control_c, 0, 64, 56
2,93093, Control_c, 0, 64, 59
2,93109, Control_c, 0, 64, 61
2,93124, Control_c, 0, 64, 63
2,93139, Control_c, 0, 64, 64
2,93153, Note_on_c, 0, 65, 0
2,93155, Control_c, 0, 64, 66
2,93167, Note_on_c, 0, 60, 0
2,93170, Control_c, 0, 64, 69
2,93170, Note_on_c, 0, 69, 73
2,93184, Control_c, 0, 64, 73
2,93200, Control_c, 0, 64, 79
2,93203, Note_on_c, 0, 63, 0
2,93215, Control_c, 0, 64, 85
2,93231, Control_c, 0, 64, 91
2,93246, Control_c, 0, 64, 97
2,93260, Control_c, 0, 64, 100
2,93276, Control_c, 0, 64, 100
2,93367, Control_c, 0, 64, 99
2,93381, Control_c, 0, 64, 93
2,93397, Control_c, 0, 64, 83
2,93412, Control_c, 0, 64, 73
2,93428, Control_c, 0, 64, 64
2,93439, Note_on_c, 0, 70, 81
2,93443, Control_c, 0, 64, 51
2,93445, Note_on_c, 0, 50, 70
2,93451, Note_on_c, 0, 53, 71
2,93457, Control_c, 0, 64, 24
2,93457, Note_on_c, 0, 48, 0
2,93468, Note_on_c, 0, 69, 0
2,93473, Control_c, 0, 64, 0
2,93526, Control_c, 0, 64, 18
2,93541, Control_c, 0, 64, 36
2,93557, Control_c, 0, 64, 47
2,93572, Control_c, 0, 64, 52
2,93588, Control_c, 0, 64, 56
2,93602, Control_c, 0, 64, 59
2,93617, Control_c, 0, 64, 61
2,93633, Control_c, 0, 64, 63
2,93648, Control_c, 0, 64, 65
2,93663, Control_c, 0, 64, 68
2,93667, Note_on_c, 0, 50, 0
2,93678, Control_c, 0, 64, 71
2,93680, Note_on_c, 0, 65, 72
2,93683, Note_on_c, 0, 70, 0
2,93687, Note_on_c, 0, 53, 0
2,93693, Control_c, 0, 64, 75
2,93709, Control_c, 0, 64, 80
2,93723, Control_c, 0, 64, 85
2,93738, Control_c, 0, 64, 90
2,93754, Control_c, 0, 64, 94
2,93769, Control_c, 0, 64, 98
2,93784, Control_c, 0, 64, 100
2,93801, Control_c, 0, 64, 102
2,93815, Control_c, 0, 64, 104
2,93831, Control_c, 0, 64, 106
2,93846, Control_c, 0, 64, 107
2,93877, Control_c, 0, 64, 107
2,93891, Control_c, 0, 64, 107
2,93906, Control_c, 0, 64, 97
2,93916, Note_on_c, 0, 43, 72
2,93916, Note_on_c, 0, 55, 75
2,93916, Note_on_c, 0, 63, 73
2,93916, Note_on_c, 0, 71, 79
2,93922, Control_c, 0, 64, 82
2,93937, Control_c, 0, 64, 67
2,93950, Note_on_c, 0, 65, 0
2,93953, Control_c, 0, 64, 52
2,93968, Control_c, 0, 64, 24
2,93983, Control_c, 0, 64, 22
2,93999, Control_c, 0, 64, 23
2,94012, Control_c, 0, 64, 33
2,94026, Control_c, 0, 64, 45
2,94042, Control_c, 0, 64, 52
2,94057, Control_c, 0, 64, 56
2,94072, Control_c, 0, 64, 59
2,94088, Control_c, 0, 64, 60
2,94102, Control_c, 0, 64, 62
2,94118, Control_c, 0, 64, 64
2,94133, Control_c, 0, 64, 66
2,94147, Control_c, 0, 64, 68
2,94156, Note_on_c, 0, 62, 74
2,94157, Note_on_c, 0, 63, 0
2,94163, Control_c, 0, 64, 71
2,94173, Note_on_c, 0, 43, 0
2,94178, Control_c, 0, 64, 74
2,94194, Control_c, 0, 64, 77
2,94209, Control_c, 0, 64, 79
2,94223, Control_c, 0, 64, 80
2,94239, Control_c, 0, 64, 82
2,94262, Control_c, 0, 64, 85
2,94278, Control_c, 0, 64, 87
2,94293, Control_c, 0, 64, 88
2,94307, Control_c, 0, 64, 88
2,94368, Control_c, 0, 64, 88
2,94383, Control_c, 0, 64, 86
2,94399, Control_c, 0, 64, 79
2,94414, Control_c, 0, 64, 68
2,94418, Note_on_c, 0, 71, 0
2,94419, Note_on_c, 0, 63, 79
2,94421, Note_on_c, 0, 48, 77
2,94429, Control_c, 0, 64, 55
2,94444, Control_c, 0, 64, 21
2,94459, Control_c, 0, 64, 0
2,94470, Note_on_c, 0, 62, 0
2,94505, Control_c, 0, 64, 24
2,94520, Control_c, 0, 64, 41
2,94535, Control_c, 0, 64, 51
2,94550, Control_c, 0, 64, 54
2,94565, Control_c, 0, 64, 57
2,94580, Control_c, 0, 64, 59
2,94596, Control_c, 0, 64, 60
2,94612, Control_c, 0, 64, 62
2,94627, Control_c, 0, 64, 63
2,94643, Control_c, 0, 64, 65
2,94657, Control_c, 0, 64, 66
2,94662, Note_on_c, 0, 67, 80
2,94672, Control_c, 0, 64, 68
2,94688, Control_c, 0, 64, 70
2,94691, Note_on_c, 0, 55, 0
2,94703, Control_c, 0, 64, 72
2,94703, Note_on_c, 0, 63, 0
2,94719, Control_c, 0, 64, 75
2,94733, Control_c, 0, 64, 77
2,94748, Control_c, 0, 64, 78
2,94764, Control_c, 0, 64, 79
2,94779, Control_c, 0, 64, 80
2,94795, Control_c, 0, 64, 82
2,94810, Control_c, 0, 64, 85
2,94825, Control_c, 0, 64, 88
2,94841, Control_c, 0, 64, 90
2,94886, Note_on_c, 0, 48, 0
2,94901, Control_c, 0, 64, 86
2,94905, Note_on_c, 0, 72, 85
2,94910, Note_on_c, 0, 67, 0
2,94915, Note_on_c, 0, 47, 61
2,94917, Control_c, 0, 64, 74
2,94917, Note_on_c, 0, 57, 67
2,94932, Control_c, 0, 64, 62
2,94947, Control_c, 0, 64, 39
2,94963, Control_c, 0, 64, 0
2,95008, Control_c, 0, 64, 24
2,95030, Control_c, 0, 64, 41
2,95046, Control_c, 0, 64, 50
2,95061, Control_c, 0, 64, 54
2,95076, Control_c, 0, 64, 57
2,95091, Control_c, 0, 64, 59
2,95106, Control_c, 0, 64, 61
2,95122, Control_c, 0, 64, 62
2,95137, Control_c, 0, 64, 64
2,95145, Note_on_c, 0, 66, 81
2,95151, Control_c, 0, 64, 66
2,95161, Note_on_c, 0, 47, 0
2,95161, Note_on_c, 0, 72, 0
2,95167, Control_c, 0, 64, 68
2,95170, Note_on_c, 0, 45, 63
2,95170, Note_on_c, 0, 57, 0
2,95182, Control_c, 0, 64, 71
2,95198, Control_c, 0, 64, 73
2,95213, Control_c, 0, 64, 75
2,95228, Control_c, 0, 64, 76
2,95244, Control_c, 0, 64, 77
2,95253, Note_on_c, 0, 66, 0
2,95259, Control_c, 0, 64, 77
2,95274, Control_c, 0, 64, 78
2,95289, Control_c, 0, 64, 78
2,95365, Control_c, 0, 64, 78
2,95380, Control_c, 0, 64, 76
2,95396, Control_c, 0, 64, 71
2,95409, Note_on_c, 0, 67, 89
2,95410, Control_c, 0, 64, 65
2,95414, Note_on_c, 0, 55, 66
2,95424, Note_on_c, 0, 47, 65
2,95425, Control_c, 0, 64, 61
2,95442, Control_c, 0, 64, 55
2,95443, Note_on_c, 0, 45, 0
2,95457, Control_c, 0, 64, 51
2,95472, Control_c, 0, 64, 49
2,95490, Control_c, 0, 64, 48
2,95535, Control_c, 0, 64, 48
2,95566, Control_c, 0, 64, 48
2,95580, Control_c, 0, 64, 49
2,95596, Control_c, 0, 64, 49
2,95611, Control_c, 0, 64, 50
2,95626, Control_c, 0, 64, 50
2,95641, Control_c, 0, 64, 52
2,95656, Control_c, 0, 64, 53
2,95672, Control_c, 0, 64, 55
2,95683, Note_on_c, 0, 62, 78
2,95687, Control_c, 0, 64, 56
2,95702, Control_c, 0, 64, 56
2,95717, Control_c, 0, 64, 57
2,95732, Control_c, 0, 64, 58
2,95741, Note_on_c, 0, 55, 0
2,95748, Control_c, 0, 64, 58
2,95763, Control_c, 0, 64, 59
2,95778, Control_c, 0, 64, 59
2,95801, Control_c, 0, 64, 60
2,95816, Control_c, 0, 64, 60
2,95846, Control_c, 0, 64, 61
2,95877, Control_c, 0, 64, 61
2,95922, Control_c, 0, 64, 59
2,95937, Control_c, 0, 64, 54
2,95940, Note_on_c, 0, 63, 80
2,95940, Note_on_c, 0, 67, 0
2,95953, Control_c, 0, 64, 47
2,95955, Note_on_c, 0, 47, 0
2,95960, Note_on_c, 0, 48, 65
2,95968, Control_c, 0, 64, 35
2,95983, Control_c, 0, 64, 23
2,95998, Control_c, 0, 64, 23
2,96013, Control_c, 0, 64, 25
2,96029, Control_c, 0, 64, 37
2,96044, Control_c, 0, 64, 47
2,96059, Control_c, 0, 64, 52
2,96075, Control_c, 0, 64, 55
2,96090, Control_c, 0, 64, 57
2,96104, Control_c, 0, 64, 59
2,96120, Control_c, 0, 64, 61
2,96135, Control_c, 0, 64, 63
2,96151, Control_c, 0, 64, 64
2,96166, Control_c, 0, 64, 66
2,96181, Control_c, 0, 64, 67
2,96195, Note_on_c, 0, 62, 0
2,96197, Control_c, 0, 64, 70
2,96197, Note_on_c, 0, 63, 0
2,96199, Note_on_c, 0, 60, 77
2,96211, Control_c, 0, 64, 73
2,96226, Control_c, 0, 64, 76
2,96242, Control_c, 0, 64, 81
2,96257, Control_c, 0, 64, 88
2,96273, Control_c, 0, 64, 96
2,96288, Control_c, 0, 64, 111
2,96303, Control_c, 0, 64, 127
2,96454, Control_c, 0, 64, 116
2,96461, Note_on_c, 0, 62, 81
2,96462, Note_on_c, 0, 41, 68
2,96469, Note_on_c, 0, 48, 0
2,96470, Control_c, 0, 64, 92
2,96484, Control_c, 0, 64, 80
2,96499, Control_c, 0, 64, 72
2,96502, Note_on_c, 0, 57, 30
2,96515, Control_c, 0, 64, 67
2,96515, Note_on_c, 0, 60, 0
2,96530, Control_c, 0, 64, 63
2,96539, Note_on_c, 0, 57, 0
2,96545, Control_c, 0, 64, 58
2,96568, Control_c, 0, 64, 56
2,96583, Control_c, 0, 64, 54
2,96599, Control_c, 0, 64, 54
2,96614, Control_c, 0, 64, 53
2,96630, Control_c, 0, 64, 52
2,96644, Control_c, 0, 64, 52
2,96675, Control_c, 0, 64, 51
2,96704, Control_c, 0, 64, 50
2,96720, Control_c, 0, 64, 49
2,96726, Note_on_c, 0, 57, 77
2,96735, Control_c, 0, 64, 48
2,96751, Control_c, 0, 64, 47
2,96765, Control_c, 0, 64, 46
2,96780, Control_c, 0, 64, 46
2,96796, Control_c, 0, 64, 45
2,96811, Control_c, 0, 64, 44
2,96826, Control_c, 0, 64, 42
2,96857, Control_c, 0, 64, 42
2,96887, Control_c, 0, 64, 41
2,96902, Control_c, 0, 64, 39
2,96918, Control_c, 0, 64, 38
2,96933, Control_c, 0, 64, 36
2,96949, Control_c, 0, 64, 34
2,96963, Control_c, 0, 64, 29
2,96978, Control_c, 0, 64, 16
2,96994, Control_c, 0, 64, 0
2,97004, Note_on_c, 0, 59, 73
2,97006, Note_on_c, 0, 43, 74
2,97032, Note_on_c, 0, 57, 0
2,97042, Note_on_c, 0, 41, 0
2,97312, Note_on_c, 0, 53, 74
2,97314, Control_c, 0, 64, 21
2,97336, Control_c, 0, 64, 43
2,97352, Control_c, 0, 64, 52
2,97367, Control_c, 0, 64, 57
2,97382, Control_c, 0, 64, 60
2,97395, Note_on_c, 0, 53, 0
2,97398, Control_c, 0, 64, 63
2,97412, Control_c, 0, 64, 65
2,97428, Control_c, 0, 64, 68
2,97442, Note_on_c, 0, 43, 0
2,97443, Control_c, 0, 64, 72
2,97457, Control_c, 0, 64, 76
2,97473, Control_c, 0, 64, 81
2,97488, Control_c, 0, 64, 86
2,97503, Control_c, 0, 64, 92
2,97519, Control_c, 0, 64, 96
2,97533, Control_c, 0, 64, 100
2,97549, Control_c, 0, 64, 103
2,97564, Control_c, 0, 64, 105
2,97579, Control_c, 0, 64, 108
2,97595, Control_c, 0, 64, 114
2,97609, Control_c, 0, 64, 123
2,97624, Control_c, 0, 64, 127
2,97700, Control_c, 0, 64, 108
2,97716, Control_c, 0, 64, 92
2,97726, Note_on_c, 0, 60, 72
2,97730, Note_on_c, 0, 51, 72
2,97731, Control_c, 0, 64, 79
2,97731, Note_on_c, 0, 36, 74
2,97746, Control_c, 0, 64, 69
2,97762, Control_c, 0, 64, 62
2,97777, Control_c, 0, 64, 54
2,97783, Note_on_c, 0, 59, 0
2,97793, Control_c, 0, 64, 47
2,97805, Note_on_c, 0, 62, 0
2,97807, Control_c, 0, 64, 43
2,97822, Control_c, 0, 64, 38
2,97838, Control_c, 0, 64, 27
2,97853, Control_c, 0, 64, 0
2,98006, Control_c, 0, 64, 35
2,98021, Control_c, 0, 64, 49
2,98036, Control_c, 0, 64, 55
2,98051, Control_c, 0, 64, 59
2,98066, Control_c, 0, 64, 63
2,98082, Control_c, 0, 64, 65
2,98104, Control_c, 0, 64, 69
2,98111, Note_on_c, 0, 36, 0
2,98120, Control_c, 0, 64, 74
2,98135, Control_c, 0, 64, 81
2,98151, Control_c, 0, 64, 91
2,98166, Control_c, 0, 64, 107
2,98180, Control_c, 0, 64, 127
2,98332, Note_on_c, 0, 51, 0
2,98370, Note_on_c, 0, 60, 0
2,98651, Control_c, 0, 64, 108
2,98666, Control_c, 0, 64, 99
2,98682, Control_c, 0, 64, 95
2,98697, Control_c, 0, 64, 92
2,98714, Control_c, 0, 64, 88
2,98728, Control_c, 0, 64, 83
2,98743, Control_c, 0, 64, 79
2,98759, Control_c, 0, 64, 75
2,98774, Control_c, 0, 64, 72
2,98790, Control_c, 0, 64, 68
2,98805, Control_c, 0, 64, 64
2,98819, Control_c, 0, 64, 61
2,98835, Control_c, 0, 64, 59
2,98835, Note_on_c, 0, 67, 44
2,98850, Control_c, 0, 64, 58
2,98874, Control_c, 0, 64, 56
2,98888, Control_c, 0, 64, 54
2,98903, Control_c, 0, 64, 52
2,98919, Control_c, 0, 64, 50
2,98934, Control_c, 0, 64, 50
2,98949, Control_c, 0, 64, 48
2,98964, Control_c, 0, 64, 45
2,98979, Control_c, 0, 64, 43
2,98995, Control_c, 0, 64, 41
2,99024, Control_c, 0, 64, 41
2,99040, Control_c, 0, 64, 40
2,99055, Control_c, 0, 64, 40
2,99101, Control_c, 0, 64, 39
2,99370, Note_on_c, 0, 63, 43
2,99435, Note_on_c, 0, 67, 0
2,99822, Control_c, 0, 64, 39
2,99955, Note_on_c, 0, 72, 47
2,99959, Control_c, 0, 64, 38
2,99961, Note_on_c, 0, 65, 40
2,100033, Note_on_c, 0, 63, 0
2,100186, Control_c, 0, 64, 38
2,100518, Note_on_c, 0, 71, 43
2,100520, Note_on_c, 0, 67, 41
2,100555, Note_on_c, 0, 72, 0
2,100570, Note_on_c, 0, 65, 0
2,101077, Note_on_c, 0, 72, 61
2,101085, Note_on_c, 0, 63, 44
2,101093, Note_on_c, 0, 60, 43
2,101110, Note_on_c, 0, 67, 0
2,101165, Note_on_c, 0, 71, 0
2,101176, Control_c, 0, 64, 38
2,101192, Control_c, 0, 64, 42
2,101206, Control_c, 0, 64, 48
2,101221, Control_c, 0, 64, 53
2,101237, Control_c, 0, 64, 57
2,101252, Control_c, 0, 64, 60
2,101266, Control_c, 0, 64, 62
2,101282, Control_c, 0, 64, 65
2,101297, Control_c, 0, 64, 68
2,101313, Control_c, 0, 64, 72
2,101328, Control_c, 0, 64, 80
2,101342, Control_c, 0, 64, 89
2,101358, Control_c, 0, 64, 105
2,101373, Control_c, 0, 64, 127
2,101389, Note_on_c, 0, 72, 0
2,101656, Note_on_c, 0, 74, 63
2,101662, Control_c, 0, 64, 123
2,101668, Note_on_c, 0, 60, 0
2,101670, Note_on_c, 0, 65, 51
2,101676, Note_on_c, 0, 59, 49
2,101677, Control_c, 0, 64, 90
2,101692, Control_c, 0, 64, 73
2,101705, Note_on_c, 0, 63, 0
2,101708, Control_c, 0, 64, 59
2,101723, Control_c, 0, 64, 33
2,101738, Control_c, 0, 64, 0
2,101798, Control_c, 0, 64, 33
2,101813, Control_c, 0, 64, 47
2,101829, Control_c, 0, 64, 55
2,101844, Control_c, 0, 64, 59
2,101859, Control_c, 0, 64, 62
2,101874, Control_c, 0, 64, 64
2,101889, Control_c, 0, 64, 68
2,101904, Control_c, 0, 64, 73
2,101920, Control_c, 0, 64, 82
2,101943, Control_c, 0, 64, 97
2,101959, Control_c, 0, 64, 127
2,102019, Note_on_c, 0, 74, 0
2,102188, Control_c, 0, 64, 96
2,102202, Control_c, 0, 64, 77
2,102204, Note_on_c, 0, 59, 0
2,102204, Note_on_c, 0, 67, 65
2,102207, Note_on_c, 0, 65, 0
2,102215, Note_on_c, 0, 60, 48
2,102217, Control_c, 0, 64, 66
2,102232, Note_on_c, 0, 63, 41
2,102233, Control_c, 0, 64, 55
2,102247, Control_c, 0, 64, 40
2,102262, Control_c, 0, 64, 26
2,102278, Control_c, 0, 64, 0
2,102301, Note_on_c, 0, 63, 0
2,102301, Note_on_c, 0, 63, 3
2,102384, Control_c, 0, 64, 28
2,102400, Control_c, 0, 64, 39
2,102415, Control_c, 0, 64, 47
2,102431, Control_c, 0, 64, 53
2,102445, Control_c, 0, 64, 57
2,102451, Note_on_c, 0, 62, 56
2,102460, Control_c, 0, 64, 62
2,102469, Note_on_c, 0, 63, 0
2,102474, Note_on_c, 0, 67, 0
2,102476, Control_c, 0, 64, 64
2,102491, Control_c, 0, 64, 68
2,102506, Control_c, 0, 64, 74
2,102522, Control_c, 0, 64, 85
2,102537, Control_c, 0, 64, 111
2,102553, Control_c, 0, 64, 127
2,102596, Note_on_c, 0, 62, 0
2,102765, Note_on_c, 0, 72, 66
2,102773, Control_c, 0, 64, 103
2,102782, Note_on_c, 0, 48, 45
2,102785, Note_on_c, 0, 55, 45
2,102789, Control_c, 0, 64, 81
2,102792, Note_on_c, 0, 64, 48
2,102795, Note_on_c, 0, 60, 0
2,102804, Control_c, 0, 64, 67
2,102819, Control_c, 0, 64, 54
2,102834, Control_c, 0, 64, 19
2,102849, Control_c, 0, 64, 0
2,102971, Control_c, 0, 64, 11
2,102986, Control_c, 0, 64, 28
2,103002, Control_c, 0, 64, 38
2,103017, Control_c, 0, 64, 44
2,103033, Control_c, 0, 64, 49
2,103047, Control_c, 0, 64, 52
2,103062, Control_c, 0, 64, 55
2,103078, Control_c, 0, 64, 57
2,103092, Control_c, 0, 64, 59
2,103108, Control_c, 0, 64, 62
2,103123, Control_c, 0, 64, 63
2,103138, Control_c, 0, 64, 65
2,103154, Control_c, 0, 64, 68
2,103160, Note_on_c, 0, 64, 0
2,103168, Control_c, 0, 64, 70
2,103183, Control_c, 0, 64, 73
2,103199, Control_c, 0, 64, 76
2,103214, Control_c, 0, 64, 78
2,103230, Control_c, 0, 64, 79
2,103275, Control_c, 0, 64, 78
2,103289, Control_c, 0, 64, 77
2,103301, Note_on_c, 0, 70, 56
2,103304, Control_c, 0, 64, 75
2,103320, Control_c, 0, 64, 73
2,103329, Note_on_c, 0, 65, 34
2,103335, Control_c, 0, 64, 70
2,103338, Note_on_c, 0, 72, 0
2,103351, Control_c, 0, 64, 68
2,103365, Control_c, 0, 64, 67
2,103380, Control_c, 0, 64, 65
2,103396, Control_c, 0, 64, 64
2,103411, Control_c, 0, 64, 63
2,103426, Control_c, 0, 64, 61
2,103441, Control_c, 0, 64, 59
2,103456, Control_c, 0, 64, 57
2,103479, Control_c, 0, 64, 55
2,103494, Control_c, 0, 64, 52
2,103510, Control_c, 0, 64, 49
2,103525, Control_c, 0, 64, 46
2,103540, Control_c, 0, 64, 43
2,103556, Control_c, 0, 64, 40
2,103559, Note_on_c, 0, 68, 54
2,103570, Control_c, 0, 64, 39
2,103571, Note_on_c, 0, 70, 0
2,103585, Control_c, 0, 64, 37
2,103601, Control_c, 0, 64, 34
2,103601, Note_on_c, 0, 55, 0
2,103614, Note_on_c, 0, 48, 0
2,103616, Control_c, 0, 64, 31
2,103632, Control_c, 0, 64, 30
2,103647, Control_c, 0, 64, 29
2,103678, Control_c, 0, 64, 28
2,103693, Control_c, 0, 64, 27
2,103709, Control_c, 0, 64, 26
2,103723, Control_c, 0, 64, 26
2,103738, Control_c, 0, 64, 24
2,103754, Control_c, 0, 64, 21
2,103769, Control_c, 0, 64, 17
2,103784, Control_c, 0, 64, 9
2,103799, Control_c, 0, 64, 0
2,103843, Note_on_c, 0, 67, 38
2,103843, Note_on_c, 0, 70, 49
2,103866, Note_on_c, 0, 65, 0
2,103875, Note_on_c, 0, 68, 0
2,103935, Control_c, 0, 64, 17
2,103951, Control_c, 0, 64, 38
2,103966, Control_c, 0, 64, 48
2,103981, Control_c, 0, 64, 54
2,103997, Control_c, 0, 64, 58
2,104011, Control_c, 0, 64, 60
2,104026, Control_c, 0, 64, 63
2,104042, Control_c, 0, 64, 65
2,104057, Control_c, 0, 64, 68
2,104073, Control_c, 0, 64, 72
2,104081, Note_on_c, 0, 67, 0
2,104088, Control_c, 0, 64, 78
2,104102, Control_c, 0, 64, 85
2,104118, Control_c, 0, 64, 94
2,104122, Note_on_c, 0, 70, 0
2,104133, Control_c, 0, 64, 104
2,104149, Control_c, 0, 64, 110
2,104179, Control_c, 0, 64, 108
2,104195, Control_c, 0, 64, 108
2,104277, Control_c, 0, 64, 106
2,104292, Control_c, 0, 64, 103
2,104308, Control_c, 0, 64, 100
2,104323, Control_c, 0, 64, 98
2,104338, Control_c, 0, 64, 97
2,104354, Control_c, 0, 64, 96
2,104369, Control_c, 0, 64, 95
2,104384, Control_c, 0, 64, 92
2,104400, Control_c, 0, 64, 87
2,104414, Control_c, 0, 64, 83
2,104415, Note_on_c, 0, 72, 50
2,104421, Note_on_c, 0, 65, 34
2,104430, Control_c, 0, 64, 79
2,104445, Control_c, 0, 64, 75
2,104460, Control_c, 0, 64, 72
2,104476, Control_c, 0, 64, 68
2,104491, Control_c, 0, 64, 65
2,104506, Control_c, 0, 64, 63
2,104522, Control_c, 0, 64, 62
2,104537, Control_c, 0, 64, 60
2,104553, Control_c, 0, 64, 59
2,104567, Control_c, 0, 64, 58
2,104582, Control_c, 0, 64, 57
2,104598, Control_c, 0, 64, 56
2,104613, Control_c, 0, 64, 55
2,104629, Control_c, 0, 64, 55
2,104643, Control_c, 0, 64, 54
2,104658, Control_c, 0, 64, 53
2,104669, Note_on_c, 0, 64, 44
2,104674, Control_c, 0, 64, 52
2,104689, Control_c, 0, 64, 51
2,104712, Note_on_c, 0, 65, 0
2,104719, Control_c, 0, 64, 51
2,104734, Control_c, 0, 64, 50
2,104750, Control_c, 0, 64, 49
2,104765, Control_c, 0, 64, 49
2,104810, Control_c, 0, 64, 48
2,104825, Control_c, 0, 64, 48
2,104871, Control_c, 0, 64, 47
2,104936, Note_on_c, 0, 68, 50
2,104953, Note_on_c, 0, 65, 32
2,104963, Note_on_c, 0, 72, 0
2,104992, Note_on_c, 0, 64, 0
2,105275, Control_c, 0, 64, 48
2,105484, Note_on_c, 0, 70, 46
2,105485, Note_on_c, 0, 61, 42
2,105503, Note_on_c, 0, 67, 34
2,105536, Note_on_c, 0, 68, 0
2,105544, Note_on_c, 0, 65, 0
2,106040, Note_on_c, 0, 64, 42
2,106056, Note_on_c, 0, 72, 48
2,106065, Note_on_c, 0, 55, 39
2,106097, Note_on_c, 0, 61, 0
2,106101, Note_on_c, 0, 67, 0
2,106135, Note_on_c, 0, 70, 0
2,106393, Control_c, 0, 64, 47
2,106469, Control_c, 0, 64, 47
2,106593, Note_on_c, 0, 65, 57
2,106603, Note_on_c, 0, 56, 49
2,106615, Note_on_c, 0, 55, 0
2,106721, Note_on_c, 0, 72, 0
2,106754, Note_on_c, 0, 64, 0
2,107024, Control_c, 0, 64, 47
2,107115, Control_c, 0, 64, 48
2,107144, Note_on_c, 0, 70, 60
2,107151, Note_on_c, 0, 56, 0
2,107157, Note_on_c, 0, 67, 54
2,107161, Note_on_c, 0, 48, 38
2,107161, Note_on_c, 0, 52, 43
2,107217, Note_on_c, 0, 65, 0
2,107677, Note_on_c, 0, 60, 65
2,107678, Note_on_c, 0, 68, 59
2,107680, Note_on_c, 0, 67, 0
2,107732, Note_on_c, 0, 70, 0
2,107790, Note_on_c, 0, 52, 0
2,107801, Note_on_c, 0, 48, 0
2,107837, Control_c, 0, 64, 48
2,107939, Note_on_c, 0, 67, 67
2,107965, Note_on_c, 0, 68, 0
2,108209, Control_c, 0, 64, 48
2,108236, Note_on_c, 0, 65, 64
2,108243, Note_on_c, 0, 56, 64
2,108244, Note_on_c, 0, 68, 65
2,108255, Note_on_c, 0, 67, 0
2,108322, Note_on_c, 0, 60, 0
2,108636, Control_c, 0, 64, 47
2,108762, Note_on_c, 0, 65, 0
2,108769, Note_on_c, 0, 67, 60
2,108772, Control_c, 0, 64, 47
2,108772, Note_on_c, 0, 58, 64
2,108772, Note_on_c, 0, 64, 53
2,108802, Control_c, 0, 64, 46
2,108823, Note_on_c, 0, 56, 0
2,108825, Note_on_c, 0, 68, 0
2,108833, Control_c, 0, 64, 46
2,108855, Control_c, 0, 64, 45
2,108871, Control_c, 0, 64, 45
2,108899, Control_c, 0, 64, 44
2,108929, Control_c, 0, 64, 43
2,108944, Control_c, 0, 64, 42
2,108960, Control_c, 0, 64, 41
2,108975, Control_c, 0, 64, 41
2,108990, Control_c, 0, 64, 40
2,109005, Control_c, 0, 64, 38
2,109020, Control_c, 0, 64, 35
2,109026, Note_on_c, 0, 62, 58
2,109036, Control_c, 0, 64, 32
2,109051, Control_c, 0, 64, 27
2,109065, Control_c, 0, 64, 22
2,109068, Note_on_c, 0, 64, 0
2,109081, Control_c, 0, 64, 11
2,109096, Control_c, 0, 64, 0
2,109307, Note_on_c, 0, 64, 63
2,109310, Note_on_c, 0, 60, 70
2,109323, Note_on_c, 0, 62, 0
2,109349, Note_on_c, 0, 58, 0
2,109402, Control_c, 0, 64, 36
2,109417, Control_c, 0, 64, 50
2,109431, Control_c, 0, 64, 58
2,109447, Control_c, 0, 64, 63
2,109462, Control_c, 0, 64, 67
2,109477, Control_c, 0, 64, 75
2,109492, Control_c, 0, 64, 88
2,109507, Control_c, 0, 64, 127
2,109525, Note_on_c, 0, 64, 0
2,109552, Note_on_c, 0, 60, 0
2,109559, Note_on_c, 0, 67, 0
2,109881, Note_on_c, 0, 53, 75
2,109883, Note_on_c, 0, 69, 75
2,109889, Note_on_c, 0, 48, 69
2,109893, Note_on_c, 0, 63, 62
2,109894, Control_c, 0, 64, 123
2,109909, Control_c, 0, 64, 87
2,109925, Control_c, 0, 64, 73
2,109940, Control_c, 0, 64, 65
2,109956, Control_c, 0, 64, 59
2,109971, Control_c, 0, 64, 56
2,109986, Control_c, 0, 64, 54
2,110002, Control_c, 0, 64, 52
2,110017, Control_c, 0, 64, 51
2,110138, Control_c, 0, 64, 51
2,110185, Control_c, 0, 64, 52
2,110200, Control_c, 0, 64, 52
2,110230, Control_c, 0, 64, 53
2,110240, Note_on_c, 0, 70, 71
2,110305, Note_on_c, 0, 69, 0
2,110337, Note_on_c, 0, 63, 0
2,110348, Note_on_c, 0, 72, 78
2,110451, Control_c, 0, 64, 52
2,110461, Note_on_c, 0, 70, 0
2,110466, Control_c, 0, 64, 50
2,110482, Control_c, 0, 64, 43
2,110482, Note_on_c, 0, 65, 74
2,110485, Note_on_c, 0, 49, 75
2,110491, Note_on_c, 0, 58, 72
2,110491, Note_on_c, 0, 72, 0
2,110494, Note_on_c, 0, 61, 66
2,110497, Control_c, 0, 64, 23
2,110505, Note_on_c, 0, 53, 0
2,110511, Control_c, 0, 64, 0
2,110526, Note_on_c, 0, 48, 0
2,110573, Control_c, 0, 64, 12
2,110588, Control_c, 0, 64, 43
2,110604, Control_c, 0, 64, 54
2,110618, Control_c, 0, 64, 60
2,110633, Control_c, 0, 64, 63
2,110649, Control_c, 0, 64, 67
2,110663, Control_c, 0, 64, 72
2,110679, Control_c, 0, 64, 82
2,110694, Control_c, 0, 64, 98
2,110709, Control_c, 0, 64, 127
2,110766, Note_on_c, 0, 61, 0
2,110789, Note_on_c, 0, 58, 0
2,111007, Note_on_c, 0, 48, 70
2,111007, Note_on_c, 0, 72, 78
2,111008, Note_on_c, 0, 63, 64
2,111018, Note_on_c, 0, 56, 73
2,111023, Note_on_c, 0, 49, 0
2,111043, Control_c, 0, 64, 86
2,111044, Note_on_c, 0, 65, 0
2,111058, Control_c, 0, 64, 62
2,111073, Control_c, 0, 64, 0
2,111157, Control_c, 0, 64, 43
2,111172, Control_c, 0, 64, 53
2,111187, Control_c, 0, 64, 59
2,111203, Control_c, 0, 64, 62
2,111218, Control_c, 0, 64, 64
2,111233, Control_c, 0, 64, 67
2,111248, Control_c, 0, 64, 72
2,111253, Note_on_c, 0, 55, 77
2,111263, Control_c, 0, 64, 83
2,111267, Note_on_c, 0, 72, 0
2,111279, Control_c, 0, 64, 100
2,111285, Note_on_c, 0, 63, 0
2,111288, Note_on_c, 0, 48, 0
2,111292, Note_on_c, 0, 56, 0
2,111294, Control_c, 0, 64, 127
2,111550, Note_on_c, 0, 74, 82
2,111551, Note_on_c, 0, 47, 68
2,111553, Note_on_c, 0, 56, 78
2,111555, Note_on_c, 0, 55, 0
2,111555, Note_on_c, 0, 65, 76
2,111567, Control_c, 0, 64, 107
2,111582, Control_c, 0, 64, 73
2,111598, Control_c, 0, 64, 50
2,111613, Control_c, 0, 64, 0
2,111689, Control_c, 0, 64, 37
2,111704, Control_c, 0, 64, 49
2,111719, Control_c, 0, 64, 54
2,111734, Control_c, 0, 64, 57
2,111749, Control_c, 0, 64, 60
2,111765, Control_c, 0, 64, 62
2,111769, Note_on_c, 0, 65, 0
2,111780, Control_c, 0, 64, 64
2,111795, Control_c, 0, 64, 67
2,111811, Control_c, 0, 64, 72
2,111826, Control_c, 0, 64, 80
2,111842, Control_c, 0, 64, 90
2,111857, Control_c, 0, 64, 111
2,111872, Control_c, 0, 64, 127
2,111940, Note_on_c, 0, 56, 0
2,112096, Note_on_c, 0, 74, 0
2,112107, Control_c, 0, 64, 75
2,112113, Note_on_c, 0, 55, 72
2,112117, Note_on_c, 0, 53, 73
2,112117, Note_on_c, 0, 63, 73
2,112118, Note_on_c, 0, 72, 74
2,112123, Control_c, 0, 64, 47
2,112138, Control_c, 0, 64, 0
2,112162, Note_on_c, 0, 47, 0
2,112199, Control_c, 0, 64, 17
2,112214, Control_c, 0, 64, 40
2,112228, Control_c, 0, 64, 47
2,112244, Control_c, 0, 64, 51
2,112259, Control_c, 0, 64, 53
2,112275, Control_c, 0, 64, 56
2,112276, Note_on_c, 0, 63, 0
2,112290, Control_c, 0, 64, 58
2,112304, Control_c, 0, 64, 61
2,112306, Note_on_c, 0, 72, 0
2,112320, Control_c, 0, 64, 63
2,112335, Control_c, 0, 64, 65
2,112349, Control_c, 0, 64, 67
2,112365, Control_c, 0, 64, 70
2,112380, Control_c, 0, 64, 74
2,112383, Note_on_c, 0, 71, 78
2,112390, Note_on_c, 0, 62, 67
2,112396, Control_c, 0, 64, 83
2,112411, Control_c, 0, 64, 96
2,112425, Control_c, 0, 64, 127
2,112449, Note_on_c, 0, 62, 0
2,112479, Note_on_c, 0, 53, 0
2,112497, Note_on_c, 0, 55, 0
2,112497, Note_on_c, 0, 71, 0
2,112670, Note_on_c, 0, 72, 87
2,112688, Note_on_c, 0, 51, 77
2,112689, Note_on_c, 0, 63, 75
2,112692, Note_on_c, 0, 55, 75
2,112708, Control_c, 0, 64, 101
2,112724, Control_c, 0, 64, 83
2,112738, Control_c, 0, 64, 73
2,112753, Control_c, 0, 64, 67
2,112769, Control_c, 0, 64, 63
2,112783, Control_c, 0, 64, 58
2,112799, Control_c, 0, 64, 53
2,112814, Control_c, 0, 64, 50
2,112829, Control_c, 0, 64, 48
2,112845, Control_c, 0, 64, 47
2,112860, Control_c, 0, 64, 46
2,112876, Control_c, 0, 64, 45
2,112891, Control_c, 0, 64, 42
2,112905, Control_c, 0, 64, 40
2,112921, Control_c, 0, 64, 38
2,112936, Control_c, 0, 64, 35
2,112951, Control_c, 0, 64, 31
2,112967, Control_c, 0, 64, 24
2,112982, Control_c, 0, 64, 17
2,112997, Control_c, 0, 64, 0
2,113001, Note_on_c, 0, 50, 78
2,113046, Note_on_c, 0, 51, 0
2,113164, Note_on_c, 0, 63, 0
2,113312, Note_on_c, 0, 48, 80
2,113312, Note_on_c, 0, 63, 73
2,113314, Note_on_c, 0, 67, 82
2,113314, Note_on_c, 0, 72, 0
2,113317, Note_on_c, 0, 50, 0
2,113676, Note_on_c, 0, 50, 81
2,113704, Note_on_c, 0, 48, 0
2,113754, Control_c, 0, 64, 41
2,113769, Control_c, 0, 64, 53
2,113785, Control_c, 0, 64, 59
2,113800, Control_c, 0, 64, 63
2,113815, Control_c, 0, 64, 66
2,113831, Control_c, 0, 64, 71
2,113845, Control_c, 0, 64, 84
2,113849, Note_on_c, 0, 51, 93
2,113861, Control_c, 0, 64, 115
2,113871, Note_on_c, 0, 50, 0
2,113871, Note_on_c, 0, 55, 0
2,113876, Control_c, 0, 64, 127
2,113905, Note_on_c, 0, 51, 0
2,114038, Note_on_c, 0, 63, 0
2,114103, Note_on_c, 0, 67, 0
2,114170, Note_on_c, 0, 42, 88
2,114248, Control_c, 0, 64, 99
2,114263, Control_c, 0, 64, 84
2,114279, Control_c, 0, 64, 74
2,114294, Control_c, 0, 64, 67
2,114310, Control_c, 0, 64, 59
2,114325, Control_c, 0, 64, 52
2,114341, Control_c, 0, 64, 48
2,114355, Control_c, 0, 64, 45
2,114370, Control_c, 0, 64, 42
2,114386, Control_c, 0, 64, 40
2,114401, Control_c, 0, 64, 39
2,114416, Control_c, 0, 64, 39
2,114462, Control_c, 0, 64, 38
2,114477, Control_c, 0, 64, 36
2,114491, Control_c, 0, 64, 35
2,114671, Note_on_c, 0, 74, 87
2,114705, Control_c, 0, 64, 36
2,114808, Control_c, 0, 64, 35
2,114915, Control_c, 0, 64, 33
2,114930, Control_c, 0, 64, 32
2,114945, Control_c, 0, 64, 30
2,114960, Control_c, 0, 64, 26
2,114975, Control_c, 0, 64, 21
2,114999, Control_c, 0, 64, 11
2,115007, Note_on_c, 0, 75, 86
2,115013, Control_c, 0, 64, 0
2,115054, Note_on_c, 0, 74, 0
2,115228, Control_c, 0, 64, 25
2,115243, Control_c, 0, 64, 47
2,115251, Note_on_c, 0, 71, 81
2,115257, Control_c, 0, 64, 56
2,115273, Control_c, 0, 64, 61
2,115278, Note_on_c, 0, 75, 0
2,115288, Control_c, 0, 64, 64
2,115303, Control_c, 0, 64, 68
2,115319, Control_c, 0, 64, 73
2,115329, Note_on_c, 0, 71, 0
2,115333, Control_c, 0, 64, 80
2,115349, Control_c, 0, 64, 91
2,115364, Control_c, 0, 64, 123
2,115379, Control_c, 0, 64, 127
2,115534, Note_on_c, 0, 72, 82
2,115622, Control_c, 0, 64, 109
2,115623, Note_on_c, 0, 42, 0
2,115638, Control_c, 0, 64, 98
2,115652, Control_c, 0, 64, 90
2,115668, Control_c, 0, 64, 86
2,115683, Control_c, 0, 64, 83
2,115698, Control_c, 0, 64, 82
2,115714, Control_c, 0, 64, 80
2,115728, Control_c, 0, 64, 78
2,115743, Control_c, 0, 64, 76
2,115767, Control_c, 0, 64, 74
2,115782, Control_c, 0, 64, 73
2,115796, Note_on_c, 0, 69, 75
2,115797, Control_c, 0, 64, 72
2,115812, Control_c, 0, 64, 71
2,115828, Control_c, 0, 64, 69
2,115843, Control_c, 0, 64, 67
2,115858, Control_c, 0, 64, 65
2,115873, Control_c, 0, 64, 64
2,115888, Control_c, 0, 64, 64
2,115903, Control_c, 0, 64, 63
2,115920, Control_c, 0, 64, 62
2,115935, Control_c, 0, 64, 62
2,115950, Control_c, 0, 64, 61
2,115965, Control_c, 0, 64, 61
2,115980, Control_c, 0, 64, 60
2,115996, Control_c, 0, 64, 60
2,116011, Control_c, 0, 64, 59
2,116026, Control_c, 0, 64, 59
2,116049, Note_on_c, 0, 66, 69
2,116056, Control_c, 0, 64, 58
2,116101, Control_c, 0, 64, 58
2,116117, Control_c, 0, 64, 57
2,116132, Control_c, 0, 64, 57
2,116148, Control_c, 0, 64, 56
2,116177, Control_c, 0, 64, 56
2,116193, Control_c, 0, 64, 55
2,116208, Control_c, 0, 64, 55
2,116253, Control_c, 0, 64, 54
2,116284, Control_c, 0, 64, 54
2,116285, Note_on_c, 0, 62, 77
2,116329, Control_c, 0, 64, 53
2,116344, Control_c, 0, 64, 53
2,116360, Control_c, 0, 64, 52
2,116375, Control_c, 0, 64, 52
2,116406, Control_c, 0, 64, 51
2,116421, Control_c, 0, 64, 51
2,116436, Control_c, 0, 64, 50
2,116496, Control_c, 0, 64, 50
2,116512, Control_c, 0, 64, 49
2,116565, Control_c, 0, 64, 49
2,116568, Note_on_c, 0, 63, 75
2,116580, Control_c, 0, 64, 48
2,116595, Control_c, 0, 64, 48
2,116610, Control_c, 0, 64, 47
2,116625, Control_c, 0, 64, 46
2,116633, Note_on_c, 0, 62, 0
2,116641, Control_c, 0, 64, 45
2,116656, Control_c, 0, 64, 43
2,116672, Control_c, 0, 64, 40
2,116687, Control_c, 0, 64, 38
2,116702, Control_c, 0, 64, 37
2,116717, Control_c, 0, 64, 35
2,116733, Control_c, 0, 64, 33
2,116749, Control_c, 0, 64, 30
2,116763, Control_c, 0, 64, 28
2,116778, Control_c, 0, 64, 28
2,116794, Control_c, 0, 64, 27
2,116809, Control_c, 0, 64, 26
2,116824, Control_c, 0, 64, 26
2,116832, Note_on_c, 0, 59, 73
2,117082, Control_c, 0, 64, 27
2,117096, Note_on_c, 0, 60, 70
2,117097, Control_c, 0, 64, 27
2,117115, Note_on_c, 0, 59, 0
2,117128, Control_c, 0, 64, 28
2,117142, Control_c, 0, 64, 29
2,117158, Control_c, 0, 64, 30
2,117173, Control_c, 0, 64, 31
2,117189, Control_c, 0, 64, 32
2,117204, Control_c, 0, 64, 32
2,117219, Control_c, 0, 64, 33
2,117249, Control_c, 0, 64, 34
2,117318, Control_c, 0, 64, 35
2,117348, Control_c, 0, 64, 35
2,117369, Note_on_c, 0, 54, 78
2,117408, Note_on_c, 0, 60, 0
2,117470, Control_c, 0, 64, 36
2,117684, Control_c, 0, 64, 36
2,117721, Note_on_c, 0, 55, 71
2,117726, Note_on_c, 0, 54, 0
2,117736, Note_on_c, 0, 72, 0
2,117767, Note_on_c, 0, 69, 0
2,117778, Note_on_c, 0, 63, 0
2,117786, Note_on_c, 0, 66, 0
2,117865, Control_c, 0, 64, 36
2,117881, Control_c, 0, 64, 34
2,117896, Control_c, 0, 64, 31
2,117911, Control_c, 0, 64, 26
2,117926, Control_c, 0, 64, 17
2,117941, Control_c, 0, 64, 0
2,117986, Control_c, 0, 64, 12
2,118002, Control_c, 0, 64, 31
2,118017, Control_c, 0, 64, 44
2,118033, Control_c, 0, 64, 52
2,118048, Control_c, 0, 64, 57
2,118071, Control_c, 0, 64, 60
2,118086, Control_c, 0, 64, 62
2,118101, Control_c, 0, 64, 64
2,118116, Control_c, 0, 64, 66
2,118131, Control_c, 0, 64, 69
2,118146, Control_c, 0, 64, 73
2,118162, Control_c, 0, 64, 78
2,118177, Control_c, 0, 64, 85
2,118192, Control_c, 0, 64, 95
2,118207, Control_c, 0, 64, 113
2,118222, Control_c, 0, 64, 127
2,118259, Note_on_c, 0, 55, 0
2,118482, Control_c, 0, 64, 92
2,118497, Control_c, 0, 64, 73
2,118503, Note_on_c, 0, 71, 78
2,118506, Note_on_c, 0, 65, 71
2,118509, Note_on_c, 0, 67, 69
2,118510, Note_on_c, 0, 62, 65
2,118512, Control_c, 0, 64, 59
2,118515, Note_on_c, 0, 43, 66
2,118527, Control_c, 0, 64, 42
2,118542, Control_c, 0, 64, 30
2,118558, Control_c, 0, 64, 15
2,118573, Control_c, 0, 64, 0
2,118725, Control_c, 0, 64, 33
2,118740, Control_c, 0, 64, 44
2,118755, Control_c, 0, 64, 50
2,118770, Control_c, 0, 64, 55
2,118785, Control_c, 0, 64, 58
2,118801, Control_c, 0, 64, 61
2,118816, Control_c, 0, 64, 64
2,118839, Control_c, 0, 64, 66
2,118854, Control_c, 0, 64, 71
2,118870, Control_c, 0, 64, 80
2,118885, Control_c, 0, 64, 96
2,118900, Control_c, 0, 64, 127
2,118988, Note_on_c, 0, 43, 0
2,119107, Note_on_c, 0, 71, 0
2,119143, Note_on_c, 0, 62, 0
2,119214, Note_on_c, 0, 67, 0
2,119227, Note_on_c, 0, 65, 0
2,119494, Note_on_c, 0, 36, 53
2,119549, Note_on_c, 0, 48, 64
2,119618, Note_on_c, 0, 60, 61
2,119700, Note_on_c, 0, 63, 68
2,119716, Control_c, 0, 64, 111
2,119731, Control_c, 0, 64, 101
2,119747, Control_c, 0, 64, 95
2,119759, Note_on_c, 0, 67, 72
2,119761, Control_c, 0, 64, 90
2,119779, Control_c, 0, 64, 88
2,119794, Control_c, 0, 64, 85
2,119808, Control_c, 0, 64, 82
2,119824, Control_c, 0, 64, 78
2,119839, Control_c, 0, 64, 75
2,119855, Control_c, 0, 64, 71
2,119857, Note_on_c, 0, 72, 77
2,119870, Control_c, 0, 64, 68
2,119884, Control_c, 0, 64, 64
2,119900, Control_c, 0, 64, 61
2,119915, Control_c, 0, 64, 58
2,119930, Control_c, 0, 64, 55
2,119946, Control_c, 0, 64, 53
2,119960, Control_c, 0, 64, 51
2,119976, Control_c, 0, 64, 50
2,119995, Control_c, 0, 64, 50
2,120072, Control_c, 0, 64, 49
2,120088, Control_c, 0, 64, 49
2,120211, Control_c, 0, 64, 49
2,120287, Control_c, 0, 64, 50
2,120708, Control_c, 0, 64, 50
2,121673, Control_c, 0, 64, 51
2,121733, Control_c, 0, 64, 51
2,121855, Control_c, 0, 64, 52
2,123148, Control_c, 0, 64, 52
2,123642, Control_c, 0, 64, 53
2,123827, Control_c, 0, 64, 53
2,124303, Note_on_c, 0, 48, 0
2,124310, Note_on_c, 0, 60, 0
2,124328, Note_on_c, 0, 67, 0
2,124354, Note_on_c, 0, 72, 0
2,124451, Note_on_c, 0, 63, 0
2,124536, Note_on_c, 0, 36, 0
2,124537, End_track
0, 0, End_of_file
