0, 0, Header, 1, 2, 384
1, 0, Start_track
1, 0, Tempo, 500000
1, 0, Time_signature, 4, 2, 24, 8
1, 1, End_track
2,0,Start_track
2,0, Note_on_c, 0, 68, 54
2,28, Control_c, 0, 64, 39
2,34, Note_on_c, 0, 68, 0
2,42, Control_c, 0, 64, 39
2,73, Control_c, 0, 64, 38
2,88, Control_c, 0, 64, 38
2,104, Control_c, 0, 64, 37
2,119, Control_c, 0, 64, 36
2,134, Control_c, 0, 64, 34
2,150, Control_c, 0, 64, 32
2,164, Control_c, 0, 64, 29
2,180, Control_c, 0, 64, 26
2,195, Control_c, 0, 64, 22
2,210, Control_c, 0, 64, 17
2,226, Control_c, 0, 64, 0
2,241, Note_on_c, 0, 70, 61
2,340, Note_on_c, 0, 68, 69
2,342, Note_on_c, 0, 70, 0
2,419, Note_on_c, 0, 68, 0
2,434, Note_on_c, 0, 66, 70
2,507, Note_on_c, 0, 66, 0
2,520, Note_on_c, 0, 68, 81
2,631, Note_on_c, 0, 77, 81
2,639, Note_on_c, 0, 68, 0
2,672, Note_on_c, 0, 77, 0
2,879, Note_on_c, 0, 73, 74
2,908, Note_on_c, 0, 73, 0
2,1131, Note_on_c, 0, 68, 72
2,1395, Note_on_c, 0, 66, 64
2,1410, Note_on_c, 0, 68, 0
2,1476, Note_on_c, 0, 66, 0
2,1480, Note_on_c, 0, 65, 71
2,1565, Note_on_c, 0, 65, 0
2,1568, Note_on_c, 0, 66, 73
2,1597, Note_on_c, 0, 66, 0
2,1795, Note_on_c, 0, 75, 76
2,1824, Note_on_c, 0, 75, 0
2,2039, Note_on_c, 0, 65, 63
2,2069, Note_on_c, 0, 65, 0
2,2271, Note_on_c, 0, 73, 67
2,2300, Note_on_c, 0, 73, 0
2,2482, Note_on_c, 0, 63, 67
2,2515, Note_on_c, 0, 63, 0
2,2715, Note_on_c, 0, 72, 65
2,2751, Note_on_c, 0, 72, 0
2,2923, Control_c, 0, 64, 23
2,2939, Control_c, 0, 64, 47
2,2962, Control_c, 0, 64, 58
2,2974, Note_on_c, 0, 61, 58
2,2978, Control_c, 0, 64, 64
2,2992, Control_c, 0, 64, 74
2,3007, Control_c, 0, 64, 96
2,3007, Note_on_c, 0, 61, 0
2,3023, Control_c, 0, 64, 127
2,3221, Control_c, 0, 64, 111
2,3236, Control_c, 0, 64, 94
2,3240, Note_on_c, 0, 73, 52
2,3251, Control_c, 0, 64, 83
2,3266, Control_c, 0, 64, 73
2,3281, Control_c, 0, 64, 65
2,3284, Note_on_c, 0, 73, 0
2,3296, Control_c, 0, 64, 53
2,3312, Control_c, 0, 64, 25
2,3326, Note_on_c, 0, 72, 60
2,3327, Control_c, 0, 64, 0
2,3386, Note_on_c, 0, 72, 0
2,3422, Note_on_c, 0, 73, 53
2,3511, Note_on_c, 0, 73, 0
2,3516, Note_on_c, 0, 75, 57
2,3570, Note_on_c, 0, 75, 0
2,3621, Note_on_c, 0, 61, 62
2,3625, Note_on_c, 0, 77, 64
2,3652, Note_on_c, 0, 61, 0
2,3702, Note_on_c, 0, 77, 0
2,3729, Note_on_c, 0, 78, 59
2,3834, Note_on_c, 0, 78, 0
2,3850, Note_on_c, 0, 65, 58
2,3850, Note_on_c, 0, 80, 53
2,3924, Note_on_c, 0, 65, 0
2,3939, Note_on_c, 0, 63, 66
2,3944, Note_on_c, 0, 79, 66
2,3945, Note_on_c, 0, 80, 0
2,4015, Note_on_c, 0, 79, 0
2,4026, Note_on_c, 0, 63, 0
2,4037, Note_on_c, 0, 61, 72
2,4042, Note_on_c, 0, 77, 68
2,4109, Note_on_c, 0, 77, 0
2,4124, Note_on_c, 0, 79, 69
2,4125, Note_on_c, 0, 63, 74
2,4130, Note_on_c, 0, 61, 0
2,4205, Note_on_c, 0, 63, 0
2,4220, Note_on_c, 0, 79, 0
2,4228, Note_on_c, 0, 72, 77
2,4228, Note_on_c, 0, 80, 66
2,4258, Note_on_c, 0, 72, 0
2,4334, Note_on_c, 0, 78, 61
2,4336, Note_on_c, 0, 80, 0
2,4422, Note_on_c, 0, 78, 0
2,4449, Note_on_c, 0, 68, 79
2,4451, Note_on_c, 0, 77, 68
2,4479, Note_on_c, 0, 68, 0
2,4555, Note_on_c, 0, 77, 0
2,4561, Note_on_c, 0, 75, 68
2,4696, Note_on_c, 0, 63, 72
2,4700, Note_on_c, 0, 77, 73
2,4711, Note_on_c, 0, 75, 0
2,4968, Note_on_c, 0, 63, 0
2,4976, Note_on_c, 0, 61, 63
2,5059, Note_on_c, 0, 61, 0
2,5066, Note_on_c, 0, 60, 73
2,5160, Note_on_c, 0, 60, 0
2,5166, Note_on_c, 0, 61, 74
2,5201, Note_on_c, 0, 61, 0
2,5300, Note_on_c, 0, 75, 57
2,5323, Note_on_c, 0, 77, 0
2,5398, Note_on_c, 0, 73, 63
2,5399, Note_on_c, 0, 70, 79
2,5416, Note_on_c, 0, 75, 0
2,5423, Note_on_c, 0, 70, 0
2,5481, Note_on_c, 0, 73, 0
2,5499, Note_on_c, 0, 77, 67
2,5603, Note_on_c, 0, 60, 77
2,5607, Note_on_c, 0, 75, 63
2,5613, Note_on_c, 0, 77, 0
2,5637, Note_on_c, 0, 60, 0
2,5699, Note_on_c, 0, 73, 62
2,5702, Note_on_c, 0, 75, 0
2,5779, Note_on_c, 0, 73, 0
2,5815, Note_on_c, 0, 72, 63
2,5828, Note_on_c, 0, 68, 74
2,5854, Note_on_c, 0, 68, 0
2,5898, Note_on_c, 0, 72, 0
2,5911, Note_on_c, 0, 75, 65
2,6021, Note_on_c, 0, 73, 62
2,6032, Note_on_c, 0, 58, 71
2,6044, Note_on_c, 0, 75, 0
2,6069, Note_on_c, 0, 58, 0
2,6121, Note_on_c, 0, 72, 65
2,6125, Note_on_c, 0, 73, 0
2,6224, Note_on_c, 0, 72, 0
2,6243, Note_on_c, 0, 67, 68
2,6249, Note_on_c, 0, 73, 53
2,6273, Note_on_c, 0, 67, 0
2,6291, Note_on_c, 0, 73, 0
2,6338, Note_on_c, 0, 70, 62
2,6371, Note_on_c, 0, 70, 0
2,6459, Note_on_c, 0, 56, 59
2,6475, Note_on_c, 0, 70, 57
2,6502, Note_on_c, 0, 56, 0
2,6514, Note_on_c, 0, 70, 0
2,6559, Note_on_c, 0, 72, 67
2,6597, Note_on_c, 0, 72, 0
2,6676, Note_on_c, 0, 75, 73
2,6683, Note_on_c, 0, 68, 54
2,6711, Note_on_c, 0, 75, 0
2,6740, Note_on_c, 0, 68, 0
2,6771, Note_on_c, 0, 67, 59
2,6848, Control_c, 0, 64, 9
2,6894, Note_on_c, 0, 67, 0
2,6917, Note_on_c, 0, 68, 61
2,6929, Note_on_c, 0, 78, 78
2,6970, Note_on_c, 0, 68, 0
2,7053, Note_on_c, 0, 70, 53
2,7161, Note_on_c, 0, 56, 64
2,7167, Note_on_c, 0, 72, 58
2,7182, Note_on_c, 0, 70, 0
2,7194, Note_on_c, 0, 56, 0
2,7214, Note_on_c, 0, 72, 0
2,7270, Note_on_c, 0, 68, 52
2,7371, Note_on_c, 0, 58, 65
2,7374, Note_on_c, 0, 68, 0
2,7378, Note_on_c, 0, 73, 57
2,7459, Note_on_c, 0, 58, 0
2,7463, Note_on_c, 0, 56, 68
2,7469, Note_on_c, 0, 72, 66
2,7493, Note_on_c, 0, 73, 0
2,7554, Note_on_c, 0, 72, 0
2,7564, Note_on_c, 0, 56, 0
2,7574, Note_on_c, 0, 54, 75
2,7584, Note_on_c, 0, 70, 65
2,7654, Note_on_c, 0, 70, 0
2,7655, Note_on_c, 0, 78, 0
2,7665, Note_on_c, 0, 56, 83
2,7668, Note_on_c, 0, 72, 74
2,7676, Note_on_c, 0, 54, 0
2,7759, Note_on_c, 0, 56, 0
2,7765, Note_on_c, 0, 72, 0
2,7783, Note_on_c, 0, 65, 77
2,7787, Note_on_c, 0, 73, 65
2,7788, Note_on_c, 0, 77, 78
2,7818, Note_on_c, 0, 65, 0
2,7830, Note_on_c, 0, 73, 0
2,7900, Note_on_c, 0, 72, 69
2,7961, Note_on_c, 0, 72, 0
2,8013, Note_on_c, 0, 61, 79
2,8016, Note_on_c, 0, 70, 57
2,8048, Note_on_c, 0, 61, 0
2,8091, Note_on_c, 0, 70, 0
2,8123, Note_on_c, 0, 68, 68
2,8250, Note_on_c, 0, 68, 0
2,8256, Note_on_c, 0, 56, 77
2,8267, Note_on_c, 0, 70, 67
2,8525, Note_on_c, 0, 56, 0
2,8527, Note_on_c, 0, 54, 70
2,8619, Note_on_c, 0, 53, 71
2,8625, Note_on_c, 0, 54, 0
2,8702, Note_on_c, 0, 77, 0
2,8717, Note_on_c, 0, 53, 0
2,8717, Note_on_c, 0, 54, 77
2,8722, Note_on_c, 0, 75, 75
2,8743, Note_on_c, 0, 70, 0
2,8750, Note_on_c, 0, 54, 0
2,8864, Note_on_c, 0, 68, 53
2,8946, Note_on_c, 0, 68, 0
2,8947, Note_on_c, 0, 63, 76
2,8964, Note_on_c, 0, 66, 57
2,8972, Note_on_c, 0, 63, 0
2,9063, Note_on_c, 0, 70, 61
2,9082, Note_on_c, 0, 66, 0
2,9165, Note_on_c, 0, 53, 79
2,9173, Note_on_c, 0, 68, 69
2,9174, Note_on_c, 0, 75, 0
2,9202, Note_on_c, 0, 53, 0
2,9219, Note_on_c, 0, 70, 0
2,9245, Note_on_c, 0, 68, 0
2,9273, Note_on_c, 0, 66, 70
2,9333, Note_on_c, 0, 66, 0
2,9381, Note_on_c, 0, 61, 75
2,9383, Note_on_c, 0, 73, 75
2,9388, Note_on_c, 0, 65, 64
2,9407, Note_on_c, 0, 61, 0
2,9422, Note_on_c, 0, 65, 0
2,9461, Note_on_c, 0, 73, 0
2,9471, Note_on_c, 0, 68, 70
2,9514, Note_on_c, 0, 68, 0
2,9580, Note_on_c, 0, 51, 69
2,9582, Note_on_c, 0, 72, 71
2,9591, Note_on_c, 0, 66, 56
2,9618, Note_on_c, 0, 51, 0
2,9627, Note_on_c, 0, 66, 0
2,9640, Note_on_c, 0, 72, 0
2,9688, Note_on_c, 0, 65, 58
2,9772, Note_on_c, 0, 65, 0
2,9810, Note_on_c, 0, 75, 65
2,9813, Note_on_c, 0, 60, 57
2,9818, Note_on_c, 0, 66, 53
2,9845, Note_on_c, 0, 60, 0
2,9900, Note_on_c, 0, 66, 0
2,9916, Note_on_c, 0, 63, 59
2,9989, Note_on_c, 0, 63, 0
2,10065, Note_on_c, 0, 65, 57
2,10068, Note_on_c, 0, 49, 57
2,10109, Note_on_c, 0, 49, 0
2,10286, Note_on_c, 0, 68, 75
2,10299, Note_on_c, 0, 61, 59
2,10301, Note_on_c, 0, 75, 0
2,10325, Note_on_c, 0, 68, 0
2,10396, Note_on_c, 0, 60, 71
2,10398, Note_on_c, 0, 61, 0
2,10525, Note_on_c, 0, 77, 85
2,10527, Control_c, 0, 64, 11
2,10531, Note_on_c, 0, 61, 69
2,10538, Note_on_c, 0, 65, 0
2,10543, Control_c, 0, 64, 12
2,10544, Note_on_c, 0, 60, 0
2,10619, Control_c, 0, 64, 13
2,10650, Note_on_c, 0, 63, 71
2,10667, Note_on_c, 0, 61, 0
2,10753, Note_on_c, 0, 65, 72
2,10762, Note_on_c, 0, 68, 72
2,10763, Note_on_c, 0, 63, 0
2,10792, Note_on_c, 0, 68, 0
2,10853, Note_on_c, 0, 61, 67
2,10869, Note_on_c, 0, 65, 0
2,10954, Note_on_c, 0, 73, 80
2,10960, Note_on_c, 0, 58, 71
2,10964, Note_on_c, 0, 61, 0
2,10971, Note_on_c, 0, 77, 0
2,11058, Note_on_c, 0, 58, 0
2,11065, Note_on_c, 0, 60, 75
2,11180, Note_on_c, 0, 73, 0
2,11183, Note_on_c, 0, 61, 65
2,11183, Note_on_c, 0, 77, 82
2,11188, Note_on_c, 0, 60, 0
2,11205, Control_c, 0, 64, 12
2,11235, Control_c, 0, 64, 11
2,11278, Note_on_c, 0, 73, 80
2,11281, Control_c, 0, 64, 9
2,11286, Note_on_c, 0, 58, 64
2,11293, Note_on_c, 0, 61, 0
2,11310, Note_on_c, 0, 77, 0
2,11372, Note_on_c, 0, 58, 0
2,11383, Note_on_c, 0, 70, 76
2,11384, Note_on_c, 0, 55, 62
2,11394, Note_on_c, 0, 73, 0
2,11440, Control_c, 0, 64, 0
2,11487, Note_on_c, 0, 55, 0
2,11489, Note_on_c, 0, 56, 64
2,11593, Note_on_c, 0, 56, 0
2,11593, Note_on_c, 0, 70, 0
2,11602, Note_on_c, 0, 73, 75
2,11606, Note_on_c, 0, 58, 58
2,11698, Note_on_c, 0, 70, 74
2,11703, Note_on_c, 0, 58, 0
2,11703, Note_on_c, 0, 73, 0
2,11709, Note_on_c, 0, 55, 59
2,11795, Note_on_c, 0, 70, 0
2,11801, Note_on_c, 0, 55, 0
2,11821, Note_on_c, 0, 48, 51
2,11822, Note_on_c, 0, 63, 62
2,11858, Note_on_c, 0, 48, 0
2,12046, Note_on_c, 0, 70, 62
2,12049, Note_on_c, 0, 60, 57
2,12079, Note_on_c, 0, 70, 0
2,12108, Note_on_c, 0, 60, 0
2,12116, Note_on_c, 0, 63, 0
2,12147, Note_on_c, 0, 58, 56
2,12278, Note_on_c, 0, 58, 0
2,12281, Note_on_c, 0, 75, 70
2,12303, Note_on_c, 0, 60, 53
2,12375, Control_c, 0, 64, 9
2,12392, Note_on_c, 0, 60, 0
2,12407, Note_on_c, 0, 61, 55
2,12499, Note_on_c, 0, 67, 64
2,12506, Note_on_c, 0, 63, 63
2,12522, Note_on_c, 0, 61, 0
2,12528, Control_c, 0, 64, 11
2,12543, Note_on_c, 0, 67, 0
2,12595, Note_on_c, 0, 63, 0
2,12618, Note_on_c, 0, 60, 60
2,12717, Note_on_c, 0, 72, 69
2,12721, Note_on_c, 0, 60, 0
2,12724, Note_on_c, 0, 75, 0
2,12727, Note_on_c, 0, 56, 58
2,12816, Note_on_c, 0, 58, 63
2,12821, Note_on_c, 0, 56, 0
2,12907, Note_on_c, 0, 72, 0
2,12929, Note_on_c, 0, 60, 55
2,12939, Note_on_c, 0, 58, 0
2,12939, Note_on_c, 0, 75, 65
2,13030, Note_on_c, 0, 60, 0
2,13030, Note_on_c, 0, 72, 68
2,13030, Note_on_c, 0, 75, 0
2,13038, Note_on_c, 0, 56, 54
2,13098, Control_c, 0, 64, 9
2,13112, Note_on_c, 0, 56, 0
2,13136, Note_on_c, 0, 72, 0
2,13141, Note_on_c, 0, 53, 53
2,13144, Note_on_c, 0, 68, 60
2,13189, Control_c, 0, 64, 0
2,13229, Note_on_c, 0, 53, 0
2,13239, Note_on_c, 0, 55, 52
2,13326, Note_on_c, 0, 55, 0
2,13341, Note_on_c, 0, 56, 53
2,13357, Note_on_c, 0, 68, 0
2,13362, Note_on_c, 0, 72, 61
2,13440, Note_on_c, 0, 56, 0
2,13446, Note_on_c, 0, 53, 52
2,13452, Note_on_c, 0, 72, 0
2,13459, Note_on_c, 0, 68, 56
2,13544, Note_on_c, 0, 53, 0
2,13562, Note_on_c, 0, 68, 0
2,13570, Note_on_c, 0, 46, 51
2,13587, Note_on_c, 0, 61, 54
2,13622, Note_on_c, 0, 46, 0
2,13813, Note_on_c, 0, 68, 58
2,13855, Note_on_c, 0, 68, 0
2,13915, Note_on_c, 0, 56, 46
2,14033, Note_on_c, 0, 73, 68
2,14034, Note_on_c, 0, 56, 0
2,14034, Note_on_c, 0, 61, 0
2,14038, Note_on_c, 0, 58, 54
2,14121, Note_on_c, 0, 58, 0
2,14144, Note_on_c, 0, 60, 55
2,14234, Note_on_c, 0, 60, 0
2,14244, Note_on_c, 0, 61, 55
2,14244, Note_on_c, 0, 65, 53
2,14279, Note_on_c, 0, 65, 0
2,14348, Note_on_c, 0, 61, 0
2,14357, Note_on_c, 0, 58, 56
2,14449, Note_on_c, 0, 58, 0
2,14468, Note_on_c, 0, 55, 53
2,14483, Note_on_c, 0, 70, 56
2,14530, Note_on_c, 0, 73, 0
2,14572, Note_on_c, 0, 55, 0
2,14575, Note_on_c, 0, 72, 72
2,14581, Note_on_c, 0, 56, 57
2,14588, Note_on_c, 0, 70, 0
2,14670, Note_on_c, 0, 56, 0
2,14688, Note_on_c, 0, 72, 0
2,14689, Note_on_c, 0, 58, 52
2,14691, Note_on_c, 0, 73, 66
2,14757, Note_on_c, 0, 73, 0
2,14794, Note_on_c, 0, 58, 0
2,14794, Note_on_c, 0, 70, 65
2,14799, Note_on_c, 0, 55, 52
2,14889, Note_on_c, 0, 55, 0
2,14925, Note_on_c, 0, 51, 54
2,14935, Note_on_c, 0, 82, 71
2,14954, Note_on_c, 0, 70, 0
2,15049, Note_on_c, 0, 51, 0
2,15054, Note_on_c, 0, 73, 65
2,15058, Note_on_c, 0, 53, 58
2,15147, Note_on_c, 0, 53, 0
2,15160, Note_on_c, 0, 55, 59
2,15160, Note_on_c, 0, 75, 68
2,15164, Note_on_c, 0, 73, 0
2,15223, Note_on_c, 0, 75, 0
2,15243, Note_on_c, 0, 55, 0
2,15252, Note_on_c, 0, 51, 58
2,15254, Note_on_c, 0, 70, 72
2,15320, Note_on_c, 0, 70, 0
2,15362, Note_on_c, 0, 51, 0
2,15368, Note_on_c, 0, 44, 56
2,15382, Note_on_c, 0, 72, 71
2,15422, Note_on_c, 0, 44, 0
2,15475, Note_on_c, 0, 80, 73
2,15504, Note_on_c, 0, 82, 0
2,15558, Note_on_c, 0, 72, 0
2,15573, Note_on_c, 0, 56, 63
2,15580, Note_on_c, 0, 79, 77
2,15592, Note_on_c, 0, 80, 0
2,15672, Note_on_c, 0, 56, 0
2,15674, Note_on_c, 0, 82, 81
2,15679, Note_on_c, 0, 79, 0
2,15680, Note_on_c, 0, 58, 67
2,15763, Note_on_c, 0, 58, 0
2,15779, Note_on_c, 0, 80, 79
2,15786, Note_on_c, 0, 60, 66
2,15803, Note_on_c, 0, 82, 0
2,15819, Note_on_c, 0, 60, 0
2,15842, Note_on_c, 0, 80, 0
2,15882, Note_on_c, 0, 75, 78
2,15980, Note_on_c, 0, 77, 81
2,15984, Note_on_c, 0, 75, 0
2,15991, Note_on_c, 0, 56, 70
2,15999, Note_on_c, 0, 68, 78
2,16050, Note_on_c, 0, 56, 0
2,16070, Note_on_c, 0, 77, 0
2,16091, Note_on_c, 0, 78, 82
2,16197, Note_on_c, 0, 77, 87
2,16203, Note_on_c, 0, 61, 68
2,16245, Note_on_c, 0, 78, 0
2,16265, Note_on_c, 0, 68, 0
2,16287, Note_on_c, 0, 77, 0
2,16294, Note_on_c, 0, 75, 84
2,16309, Note_on_c, 0, 67, 67
2,16366, Control_c, 0, 64, 9
2,16378, Note_on_c, 0, 75, 0
2,16381, Note_on_c, 0, 67, 0
2,16390, Note_on_c, 0, 65, 65
2,16398, Note_on_c, 0, 73, 83
2,16461, Note_on_c, 0, 61, 0
2,16473, Control_c, 0, 64, 11
2,16483, Note_on_c, 0, 75, 86
2,16491, Note_on_c, 0, 67, 76
2,16491, Note_on_c, 0, 73, 0
2,16504, Control_c, 0, 64, 12
2,16505, Note_on_c, 0, 65, 0
2,16518, Control_c, 0, 64, 13
2,16549, Control_c, 0, 64, 15
2,16587, Note_on_c, 0, 67, 0
2,16592, Note_on_c, 0, 68, 78
2,16595, Control_c, 0, 64, 16
2,16600, Note_on_c, 0, 84, 86
2,16607, Note_on_c, 0, 75, 0
2,16612, Note_on_c, 0, 60, 55
2,16626, Control_c, 0, 64, 17
2,16637, Note_on_c, 0, 84, 0
2,16689, Note_on_c, 0, 68, 0
2,16709, Note_on_c, 0, 66, 68
2,16717, Control_c, 0, 64, 17
2,16829, Note_on_c, 0, 80, 86
2,16830, Control_c, 0, 64, 18
2,16830, Note_on_c, 0, 65, 69
2,16854, Note_on_c, 0, 66, 0
2,16867, Note_on_c, 0, 80, 0
2,16895, Note_on_c, 0, 60, 0
2,16925, Note_on_c, 0, 63, 66
2,16953, Note_on_c, 0, 65, 0
2,17066, Note_on_c, 0, 58, 61
2,17066, Note_on_c, 0, 75, 83
2,17073, Note_on_c, 0, 65, 66
2,17074, Note_on_c, 0, 63, 0
2,17134, Note_on_c, 0, 58, 0
2,17150, Control_c, 0, 64, 19
2,17334, Note_on_c, 0, 56, 61
2,17339, Note_on_c, 0, 73, 75
2,17349, Note_on_c, 0, 75, 0
2,17374, Note_on_c, 0, 56, 0
2,17414, Note_on_c, 0, 73, 0
2,17425, Note_on_c, 0, 72, 80
2,17518, Note_on_c, 0, 72, 0
2,17521, Note_on_c, 0, 73, 79
2,17533, Note_on_c, 0, 55, 62
2,17540, Note_on_c, 0, 65, 0
2,17563, Note_on_c, 0, 73, 0
2,17630, Note_on_c, 0, 63, 70
2,17674, Control_c, 0, 64, 20
2,17720, Control_c, 0, 64, 21
2,17743, Note_on_c, 0, 82, 80
2,17745, Note_on_c, 0, 63, 0
2,17747, Note_on_c, 0, 61, 64
2,17774, Note_on_c, 0, 82, 0
2,17826, Note_on_c, 0, 55, 0
2,17837, Note_on_c, 0, 65, 68
2,17949, Note_on_c, 0, 61, 0
2,17952, Note_on_c, 0, 65, 0
2,17955, Note_on_c, 0, 72, 79
2,17958, Note_on_c, 0, 63, 66
2,17967, Note_on_c, 0, 56, 55
2,17989, Note_on_c, 0, 72, 0
2,18056, Note_on_c, 0, 63, 0
2,18063, Note_on_c, 0, 61, 72
2,18161, Note_on_c, 0, 60, 70
2,18168, Note_on_c, 0, 80, 77
2,18171, Note_on_c, 0, 61, 0
2,18215, Note_on_c, 0, 80, 0
2,18231, Note_on_c, 0, 60, 0
2,18261, Note_on_c, 0, 56, 0
2,18267, Note_on_c, 0, 63, 67
2,18373, Note_on_c, 0, 63, 0
2,18395, Note_on_c, 0, 70, 71
2,18402, Note_on_c, 0, 61, 61
2,18405, Note_on_c, 0, 51, 51
2,18430, Note_on_c, 0, 70, 0
2,18490, Note_on_c, 0, 61, 0
2,18504, Control_c, 0, 64, 18
2,18515, Note_on_c, 0, 60, 56
2,18518, Control_c, 0, 64, 16
2,18533, Control_c, 0, 64, 13
2,18549, Control_c, 0, 64, 0
2,18615, Note_on_c, 0, 60, 0
2,18622, Note_on_c, 0, 79, 68
2,18634, Note_on_c, 0, 61, 55
2,18664, Note_on_c, 0, 79, 0
2,18719, Note_on_c, 0, 61, 0
2,18746, Note_on_c, 0, 58, 47
2,18858, Note_on_c, 0, 58, 0
2,18861, Note_on_c, 0, 51, 0
2,18880, Note_on_c, 0, 60, 46
2,18884, Note_on_c, 0, 56, 41
2,18893, Note_on_c, 0, 68, 49
2,18926, Note_on_c, 0, 60, 0
2,18957, Note_on_c, 0, 68, 0
2,18998, Note_on_c, 0, 70, 51
2,19083, Note_on_c, 0, 70, 0
2,19112, Note_on_c, 0, 72, 52
2,19115, Note_on_c, 0, 63, 48
2,19148, Note_on_c, 0, 63, 0
2,19162, Note_on_c, 0, 72, 0
2,19209, Note_on_c, 0, 73, 55
2,19298, Note_on_c, 0, 73, 0
2,19326, Note_on_c, 0, 68, 56
2,19327, Note_on_c, 0, 72, 53
2,19379, Control_c, 0, 64, 32
2,19394, Control_c, 0, 64, 49
2,19408, Note_on_c, 0, 72, 0
2,19409, Control_c, 0, 64, 61
2,19425, Control_c, 0, 64, 65
2,19427, Note_on_c, 0, 68, 0
2,19434, Note_on_c, 0, 70, 58
2,19439, Control_c, 0, 64, 67
2,19453, Note_on_c, 0, 56, 0
2,19454, Control_c, 0, 64, 69
2,19470, Control_c, 0, 64, 70
2,19485, Note_on_c, 0, 70, 0
2,19515, Control_c, 0, 64, 70
2,19530, Control_c, 0, 64, 69
2,19546, Control_c, 0, 64, 69
2,19548, Note_on_c, 0, 68, 61
2,19549, Note_on_c, 0, 63, 49
2,19561, Control_c, 0, 64, 68
2,19575, Control_c, 0, 64, 67
2,19591, Control_c, 0, 64, 65
2,19606, Control_c, 0, 64, 64
2,19618, Note_on_c, 0, 68, 0
2,19622, Control_c, 0, 64, 62
2,19623, Note_on_c, 0, 63, 0
2,19631, Note_on_c, 0, 72, 64
2,19637, Control_c, 0, 64, 59
2,19649, Note_on_c, 0, 60, 55
2,19652, Control_c, 0, 64, 54
2,19668, Control_c, 0, 64, 44
2,19683, Control_c, 0, 64, 24
2,19698, Control_c, 0, 64, 0
2,19729, Note_on_c, 0, 72, 0
2,19736, Note_on_c, 0, 60, 0
2,19750, Note_on_c, 0, 56, 49
2,19756, Note_on_c, 0, 77, 63
2,19804, Control_c, 0, 64, 28
2,19820, Control_c, 0, 64, 49
2,19835, Control_c, 0, 64, 57
2,19859, Control_c, 0, 64, 64
2,19864, Note_on_c, 0, 75, 62
2,19873, Control_c, 0, 64, 70
2,19888, Control_c, 0, 64, 78
2,19904, Control_c, 0, 64, 87
2,19909, Note_on_c, 0, 56, 0
2,19919, Control_c, 0, 64, 89
2,19924, Note_on_c, 0, 75, 0
2,19925, Note_on_c, 0, 77, 0
2,19934, Control_c, 0, 64, 88
2,19949, Control_c, 0, 64, 87
2,19964, Control_c, 0, 64, 84
2,19971, Note_on_c, 0, 74, 64
2,19973, Note_on_c, 0, 59, 62
2,19980, Control_c, 0, 64, 81
2,19995, Control_c, 0, 64, 76
2,20009, Control_c, 0, 64, 72
2,20025, Control_c, 0, 64, 68
2,20040, Control_c, 0, 64, 65
2,20055, Control_c, 0, 64, 61
2,20064, Note_on_c, 0, 74, 0
2,20067, Note_on_c, 0, 59, 0
2,20067, Note_on_c, 0, 77, 72
2,20071, Control_c, 0, 64, 55
2,20074, Note_on_c, 0, 56, 59
2,20085, Control_c, 0, 64, 45
2,20101, Control_c, 0, 64, 33
2,20116, Control_c, 0, 64, 13
2,20131, Control_c, 0, 64, 0
2,20169, Note_on_c, 0, 56, 0
2,20181, Note_on_c, 0, 53, 63
2,20186, Note_on_c, 0, 80, 69
2,20189, Note_on_c, 0, 77, 0
2,20279, Note_on_c, 0, 78, 73
2,20283, Control_c, 0, 64, 30
2,20298, Control_c, 0, 64, 49
2,20308, Note_on_c, 0, 80, 0
2,20313, Control_c, 0, 64, 58
2,20328, Control_c, 0, 64, 63
2,20336, Note_on_c, 0, 53, 0
2,20344, Control_c, 0, 64, 69
2,20344, Note_on_c, 0, 78, 0
2,20358, Control_c, 0, 64, 77
2,20372, Note_on_c, 0, 77, 78
2,20373, Control_c, 0, 64, 86
2,20380, Note_on_c, 0, 56, 61
2,20389, Control_c, 0, 64, 89
2,20420, Control_c, 0, 64, 88
2,20435, Control_c, 0, 64, 86
2,20450, Control_c, 0, 64, 84
2,20451, Note_on_c, 0, 80, 73
2,20464, Note_on_c, 0, 77, 0
2,20466, Control_c, 0, 64, 83
2,20481, Control_c, 0, 64, 81
2,20484, Note_on_c, 0, 56, 0
2,20485, Note_on_c, 0, 53, 57
2,20485, Note_on_c, 0, 80, 0
2,20495, Control_c, 0, 64, 79
2,20511, Control_c, 0, 64, 77
2,20526, Control_c, 0, 64, 73
2,20541, Control_c, 0, 64, 69
2,20556, Control_c, 0, 64, 66
2,20567, Note_on_c, 0, 80, 72
2,20571, Control_c, 0, 64, 64
2,20587, Control_c, 0, 64, 62
2,20602, Control_c, 0, 64, 59
2,20613, Note_on_c, 0, 82, 78
2,20625, Control_c, 0, 64, 55
2,20627, Note_on_c, 0, 53, 0
2,20630, Note_on_c, 0, 50, 50
2,20640, Control_c, 0, 64, 50
2,20655, Control_c, 0, 64, 43
2,20668, Note_on_c, 0, 80, 0
2,20671, Control_c, 0, 64, 33
2,20686, Control_c, 0, 64, 19
2,20691, Note_on_c, 0, 83, 81
2,20702, Control_c, 0, 64, 0
2,20703, Note_on_c, 0, 82, 0
2,20906, Note_on_c, 0, 82, 69
2,20908, Note_on_c, 0, 53, 54
2,20921, Note_on_c, 0, 50, 0
2,20937, Note_on_c, 0, 83, 0
2,20998, Note_on_c, 0, 56, 68
2,21004, Note_on_c, 0, 80, 69
2,21015, Note_on_c, 0, 53, 0
2,21062, Note_on_c, 0, 82, 0
2,21102, Note_on_c, 0, 78, 71
2,21119, Note_on_c, 0, 56, 0
2,21123, Note_on_c, 0, 80, 0
2,21124, Note_on_c, 0, 59, 58
2,21182, Note_on_c, 0, 78, 0
2,21200, Note_on_c, 0, 77, 75
2,21306, Note_on_c, 0, 77, 0
2,21311, Note_on_c, 0, 75, 72
2,21323, Note_on_c, 0, 53, 65
2,21360, Note_on_c, 0, 53, 0
2,21422, Note_on_c, 0, 74, 70
2,21430, Note_on_c, 0, 75, 0
2,21541, Note_on_c, 0, 74, 0
2,21546, Note_on_c, 0, 75, 72
2,21548, Note_on_c, 0, 59, 0
2,21553, Note_on_c, 0, 58, 61
2,21555, Note_on_c, 0, 54, 54
2,21641, Note_on_c, 0, 75, 0
2,21645, Note_on_c, 0, 78, 75
2,21718, Note_on_c, 0, 54, 0
2,21728, Note_on_c, 0, 78, 0
2,21741, Note_on_c, 0, 58, 0
2,21753, Note_on_c, 0, 77, 75
2,21764, Note_on_c, 0, 56, 66
2,21764, Note_on_c, 0, 59, 68
2,21795, Note_on_c, 0, 59, 0
2,21801, Note_on_c, 0, 56, 0
2,21853, Note_on_c, 0, 75, 77
2,21883, Note_on_c, 0, 77, 0
2,21962, Note_on_c, 0, 74, 66
2,21970, Note_on_c, 0, 58, 75
2,21975, Note_on_c, 0, 75, 0
2,21998, Note_on_c, 0, 58, 0
2,22031, Note_on_c, 0, 74, 0
2,22059, Note_on_c, 0, 77, 68
2,22173, Note_on_c, 0, 77, 0
2,22177, Note_on_c, 0, 46, 55
2,22181, Note_on_c, 0, 50, 45
2,22209, Note_on_c, 0, 50, 0
2,22214, Note_on_c, 0, 46, 0
2,22290, Note_on_c, 0, 68, 60
2,22398, Note_on_c, 0, 51, 54
2,22407, Note_on_c, 0, 39, 50
2,22433, Note_on_c, 0, 66, 59
2,22435, Control_c, 0, 67, 8
2,22450, Control_c, 0, 67, 9
2,22465, Control_c, 0, 67, 9
2,22477, Note_on_c, 0, 68, 0
2,22480, Control_c, 0, 67, 10
2,22495, Control_c, 0, 67, 11
2,22545, Note_on_c, 0, 65, 58
2,22588, Control_c, 0, 67, 10
2,22602, Control_c, 0, 67, 9
2,22617, Control_c, 0, 67, 8
2,22630, Note_on_c, 0, 66, 0
2,22633, Control_c, 0, 67, 8
2,22655, Note_on_c, 0, 65, 0
2,22661, Note_on_c, 0, 63, 66
2,22663, Control_c, 0, 67, 0
2,22715, Note_on_c, 0, 51, 0
2,22719, Note_on_c, 0, 39, 0
2,22735, Note_on_c, 0, 63, 0
2,22754, Note_on_c, 0, 62, 60
2,22841, Note_on_c, 0, 62, 0
2,22868, Note_on_c, 0, 63, 54
2,22950, Note_on_c, 0, 63, 0
2,22980, Note_on_c, 0, 65, 57
2,23073, Note_on_c, 0, 65, 0
2,23088, Note_on_c, 0, 66, 51
2,23089, Note_on_c, 0, 51, 64
2,23120, Note_on_c, 0, 51, 0
2,23171, Note_on_c, 0, 66, 0
2,23185, Note_on_c, 0, 68, 58
2,23272, Note_on_c, 0, 68, 0
2,23302, Note_on_c, 0, 70, 49
2,23306, Note_on_c, 0, 54, 63
2,23381, Note_on_c, 0, 70, 0
2,23391, Note_on_c, 0, 54, 0
2,23402, Note_on_c, 0, 68, 58
2,23408, Note_on_c, 0, 53, 61
2,23493, Note_on_c, 0, 53, 0
2,23495, Note_on_c, 0, 68, 0
2,23503, Note_on_c, 0, 66, 53
2,23507, Note_on_c, 0, 51, 72
2,23593, Note_on_c, 0, 66, 0
2,23597, Note_on_c, 0, 51, 0
2,23602, Note_on_c, 0, 53, 74
2,23608, Note_on_c, 0, 68, 55
2,23664, Note_on_c, 0, 53, 0
2,23697, Note_on_c, 0, 68, 0
2,23715, Note_on_c, 0, 61, 72
2,23724, Note_on_c, 0, 70, 58
2,23745, Note_on_c, 0, 61, 0
2,23810, Note_on_c, 0, 70, 0
2,23829, Note_on_c, 0, 68, 58
2,23926, Note_on_c, 0, 68, 0
2,23930, Note_on_c, 0, 58, 69
2,23933, Note_on_c, 0, 66, 50
2,23962, Note_on_c, 0, 58, 0
2,24004, Note_on_c, 0, 66, 0
2,24042, Note_on_c, 0, 65, 53
2,24174, Note_on_c, 0, 65, 0
2,24182, Note_on_c, 0, 66, 60
2,24186, Note_on_c, 0, 53, 66
2,24443, Note_on_c, 0, 53, 0
2,24452, Note_on_c, 0, 51, 58
2,24535, Note_on_c, 0, 51, 0
2,24547, Note_on_c, 0, 49, 63
2,24625, Note_on_c, 0, 49, 0
2,24642, Note_on_c, 0, 51, 77
2,24675, Note_on_c, 0, 51, 0
2,24749, Note_on_c, 0, 66, 0
2,24761, Note_on_c, 0, 65, 51
2,24832, Note_on_c, 0, 65, 0
2,24866, Note_on_c, 0, 60, 62
2,24866, Note_on_c, 0, 63, 58
2,24892, Note_on_c, 0, 60, 0
2,24928, Note_on_c, 0, 63, 0
2,24965, Note_on_c, 0, 66, 50
2,25073, Note_on_c, 0, 65, 50
2,25076, Note_on_c, 0, 49, 68
2,25091, Note_on_c, 0, 66, 0
2,25107, Note_on_c, 0, 49, 0
2,25156, Note_on_c, 0, 65, 0
2,25173, Note_on_c, 0, 63, 55
2,25269, Note_on_c, 0, 63, 0
2,25291, Note_on_c, 0, 61, 52
2,25296, Note_on_c, 0, 58, 72
2,25326, Note_on_c, 0, 58, 0
2,25357, Note_on_c, 0, 61, 0
2,25383, Note_on_c, 0, 65, 55
2,25496, Note_on_c, 0, 63, 52
2,25500, Note_on_c, 0, 65, 0
2,25505, Note_on_c, 0, 48, 71
2,25537, Note_on_c, 0, 48, 0
2,25595, Note_on_c, 0, 61, 59
2,25601, Note_on_c, 0, 63, 0
2,25707, Note_on_c, 0, 61, 0
2,25722, Note_on_c, 0, 57, 67
2,25730, Note_on_c, 0, 63, 47
2,25758, Note_on_c, 0, 57, 0
2,25776, Note_on_c, 0, 63, 0
2,25822, Note_on_c, 0, 60, 50
2,25918, Note_on_c, 0, 60, 0
2,25951, Note_on_c, 0, 61, 52
2,25953, Note_on_c, 0, 46, 58
2,26005, Note_on_c, 0, 46, 0
2,26048, Note_on_c, 0, 61, 0
2,26096, Note_on_c, 0, 65, 60
2,26205, Note_on_c, 0, 65, 0
2,26206, Note_on_c, 0, 66, 66
2,26208, Note_on_c, 0, 58, 56
2,26270, Note_on_c, 0, 66, 0
2,26306, Note_on_c, 0, 58, 0
2,26309, Note_on_c, 0, 65, 68
2,26313, Note_on_c, 0, 57, 61
2,26409, Note_on_c, 0, 57, 0
2,26409, Note_on_c, 0, 65, 0
2,26415, Note_on_c, 0, 58, 64
2,26419, Note_on_c, 0, 73, 79
2,26497, Note_on_c, 0, 58, 0
2,26504, Note_on_c, 0, 60, 67
2,26616, Note_on_c, 0, 61, 70
2,26626, Note_on_c, 0, 60, 0
2,26631, Note_on_c, 0, 65, 66
2,26665, Note_on_c, 0, 65, 0
2,26721, Note_on_c, 0, 58, 68
2,26727, Note_on_c, 0, 61, 0
2,26824, Note_on_c, 0, 58, 0
2,26834, Note_on_c, 0, 55, 65
2,26843, Note_on_c, 0, 70, 72
2,26871, Note_on_c, 0, 73, 0
2,26936, Note_on_c, 0, 72, 79
2,26937, Note_on_c, 0, 55, 0
2,26937, Note_on_c, 0, 56, 68
2,26952, Note_on_c, 0, 70, 0
2,27032, Note_on_c, 0, 56, 0
2,27041, Note_on_c, 0, 58, 63
2,27042, Note_on_c, 0, 73, 81
2,27057, Note_on_c, 0, 72, 0
2,27113, Note_on_c, 0, 73, 0
2,27139, Note_on_c, 0, 70, 79
2,27146, Note_on_c, 0, 58, 0
2,27147, Note_on_c, 0, 55, 61
2,27243, Note_on_c, 0, 55, 0
2,27271, Note_on_c, 0, 51, 60
2,27273, Note_on_c, 0, 82, 86
2,27333, Note_on_c, 0, 70, 0
2,27387, Note_on_c, 0, 53, 61
2,27391, Note_on_c, 0, 51, 0
2,27393, Note_on_c, 0, 73, 75
2,27496, Note_on_c, 0, 53, 0
2,27497, Note_on_c, 0, 55, 65
2,27497, Note_on_c, 0, 75, 77
2,27504, Note_on_c, 0, 73, 0
2,27564, Note_on_c, 0, 82, 0
2,27595, Note_on_c, 0, 55, 0
2,27595, Note_on_c, 0, 70, 75
2,27603, Note_on_c, 0, 51, 63
2,27642, Note_on_c, 0, 75, 0
2,27677, Note_on_c, 0, 51, 0
2,27692, Note_on_c, 0, 44, 57
2,27692, Note_on_c, 0, 70, 0
2,27702, Note_on_c, 0, 72, 74
2,27732, Note_on_c, 0, 44, 0
2,27751, Note_on_c, 0, 72, 0
2,27823, Note_on_c, 0, 63, 61
2,27905, Note_on_c, 0, 63, 0
2,27910, Note_on_c, 0, 56, 56
2,27925, Note_on_c, 0, 65, 56
2,27995, Note_on_c, 0, 56, 0
2,28003, Note_on_c, 0, 65, 0
2,28013, Note_on_c, 0, 55, 49
2,28022, Note_on_c, 0, 63, 61
2,28119, Note_on_c, 0, 55, 0
2,28131, Note_on_c, 0, 56, 57
2,28133, Note_on_c, 0, 72, 73
2,28139, Note_on_c, 0, 63, 0
2,28216, Note_on_c, 0, 56, 0
2,28225, Note_on_c, 0, 58, 64
2,28349, Note_on_c, 0, 60, 63
2,28352, Note_on_c, 0, 58, 0
2,28359, Note_on_c, 0, 63, 64
2,28402, Note_on_c, 0, 63, 0
2,28460, Note_on_c, 0, 56, 59
2,28465, Note_on_c, 0, 60, 0
2,28552, Note_on_c, 0, 56, 0
2,28566, Note_on_c, 0, 68, 65
2,28572, Note_on_c, 0, 53, 56
2,28594, Note_on_c, 0, 72, 0
2,28660, Note_on_c, 0, 70, 72
2,28663, Note_on_c, 0, 53, 0
2,28671, Note_on_c, 0, 55, 61
2,28672, Note_on_c, 0, 68, 0
2,28763, Note_on_c, 0, 72, 70
2,28775, Note_on_c, 0, 70, 0
2,28781, Note_on_c, 0, 56, 58
2,28784, Note_on_c, 0, 55, 0
2,28827, Note_on_c, 0, 72, 0
2,28863, Note_on_c, 0, 68, 75
2,28877, Note_on_c, 0, 53, 55
2,28877, Note_on_c, 0, 56, 0
2,28967, Note_on_c, 0, 53, 0
2,28981, Note_on_c, 0, 80, 77
2,28991, Note_on_c, 0, 49, 47
2,29089, Note_on_c, 0, 72, 70
2,29093, Note_on_c, 0, 68, 0
2,29107, Note_on_c, 0, 51, 64
2,29124, Note_on_c, 0, 49, 0
2,29186, Note_on_c, 0, 72, 0
2,29197, Note_on_c, 0, 73, 70
2,29200, Note_on_c, 0, 51, 0
2,29203, Note_on_c, 0, 53, 59
2,29248, Note_on_c, 0, 80, 0
2,29289, Note_on_c, 0, 68, 69
2,29305, Note_on_c, 0, 53, 0
2,29309, Note_on_c, 0, 49, 48
2,29369, Note_on_c, 0, 68, 0
2,29381, Note_on_c, 0, 49, 0
2,29396, Note_on_c, 0, 70, 62
2,29400, Note_on_c, 0, 43, 51
2,29448, Note_on_c, 0, 73, 0
2,29457, Note_on_c, 0, 70, 0
2,29493, Note_on_c, 0, 43, 0
2,29518, Note_on_c, 0, 61, 61
2,29595, Note_on_c, 0, 61, 0
2,29615, Note_on_c, 0, 63, 57
2,29632, Note_on_c, 0, 55, 50
2,29701, Note_on_c, 0, 63, 0
2,29706, Note_on_c, 0, 55, 0
2,29712, Note_on_c, 0, 61, 64
2,29744, Note_on_c, 0, 53, 54
2,29810, Note_on_c, 0, 53, 0
2,29824, Note_on_c, 0, 61, 0
2,29842, Note_on_c, 0, 70, 66
2,29845, Note_on_c, 0, 55, 57
2,29955, Note_on_c, 0, 55, 0
2,29965, Note_on_c, 0, 56, 58
2,30063, Note_on_c, 0, 61, 56
2,30065, Note_on_c, 0, 58, 60
2,30074, Note_on_c, 0, 56, 0
2,30105, Note_on_c, 0, 61, 0
2,30150, Note_on_c, 0, 58, 0
2,30168, Note_on_c, 0, 55, 56
2,30276, Note_on_c, 0, 55, 0
2,30277, Note_on_c, 0, 67, 54
2,30279, Note_on_c, 0, 52, 51
2,30319, Note_on_c, 0, 70, 0
2,30368, Note_on_c, 0, 52, 0
2,30374, Note_on_c, 0, 67, 0
2,30375, Note_on_c, 0, 68, 62
2,30387, Note_on_c, 0, 53, 54
2,30472, Note_on_c, 0, 53, 0
2,30488, Note_on_c, 0, 55, 51
2,30489, Note_on_c, 0, 70, 59
2,30511, Note_on_c, 0, 68, 0
2,30545, Note_on_c, 0, 70, 0
2,30582, Note_on_c, 0, 55, 0
2,30588, Note_on_c, 0, 67, 63
2,30611, Note_on_c, 0, 52, 46
2,30703, Note_on_c, 0, 52, 0
2,30730, Note_on_c, 0, 79, 72
2,30736, Note_on_c, 0, 48, 39
2,30771, Note_on_c, 0, 67, 0
2,30840, Note_on_c, 0, 48, 0
2,30851, Note_on_c, 0, 50, 49
2,30857, Note_on_c, 0, 70, 56
2,30952, Note_on_c, 0, 50, 0
2,30970, Note_on_c, 0, 52, 47
2,30973, Note_on_c, 0, 72, 57
2,30989, Note_on_c, 0, 70, 0
2,31024, Note_on_c, 0, 72, 0
2,31076, Note_on_c, 0, 52, 0
2,31084, Note_on_c, 0, 67, 49
2,31089, Note_on_c, 0, 48, 38
2,31150, Note_on_c, 0, 48, 0
2,31195, Note_on_c, 0, 41, 46
2,31212, Note_on_c, 0, 68, 53
2,31247, Note_on_c, 0, 79, 0
2,31322, Note_on_c, 0, 76, 55
2,31325, Note_on_c, 0, 67, 0
2,31330, Note_on_c, 0, 41, 0
2,31332, Note_on_c, 0, 43, 51
2,31436, Note_on_c, 0, 77, 72
2,31441, Note_on_c, 0, 68, 0
2,31448, Note_on_c, 0, 44, 54
2,31463, Note_on_c, 0, 43, 0
2,31469, Note_on_c, 0, 76, 0
2,31531, Note_on_c, 0, 46, 63
2,31533, Note_on_c, 0, 73, 73
2,31537, Note_on_c, 0, 44, 0
2,31556, Note_on_c, 0, 77, 0
2,31623, Note_on_c, 0, 46, 0
2,31637, Note_on_c, 0, 48, 63
2,31640, Note_on_c, 0, 70, 76
2,31653, Note_on_c, 0, 73, 0
2,31739, Note_on_c, 0, 50, 65
2,31742, Note_on_c, 0, 48, 0
2,31843, Note_on_c, 0, 50, 0
2,31854, Note_on_c, 0, 52, 68
2,31854, Note_on_c, 0, 60, 74
2,31899, Note_on_c, 0, 60, 0
2,31927, Note_on_c, 0, 52, 0
2,31949, Note_on_c, 0, 48, 67
2,32062, Note_on_c, 0, 48, 0
2,32069, Note_on_c, 0, 53, 62
2,32077, Note_on_c, 0, 61, 71
2,32140, Note_on_c, 0, 70, 0
2,32172, Note_on_c, 0, 61, 0
2,32173, Note_on_c, 0, 60, 81
2,32179, Note_on_c, 0, 51, 67
2,32182, Note_on_c, 0, 53, 0
2,32263, Note_on_c, 0, 60, 0
2,32273, Note_on_c, 0, 51, 0
2,32273, Note_on_c, 0, 58, 81
2,32276, Note_on_c, 0, 49, 64
2,32369, Note_on_c, 0, 60, 82
2,32370, Note_on_c, 0, 58, 0
2,32389, Note_on_c, 0, 49, 0
2,32389, Note_on_c, 0, 51, 72
2,32444, Note_on_c, 0, 60, 0
2,32482, Note_on_c, 0, 51, 0
2,32482, Note_on_c, 0, 68, 81
2,32494, Note_on_c, 0, 53, 67
2,32540, Note_on_c, 0, 69, 16
2,32567, Note_on_c, 0, 69, 0
2,32585, Note_on_c, 0, 53, 0
2,32597, Note_on_c, 0, 51, 64
2,32696, Note_on_c, 0, 51, 0
2,32703, Note_on_c, 0, 49, 62
2,32710, Note_on_c, 0, 65, 75
2,32776, Note_on_c, 0, 65, 0
2,32799, Note_on_c, 0, 49, 0
2,32806, Note_on_c, 0, 48, 66
2,32965, Note_on_c, 0, 49, 62
2,32969, Note_on_c, 0, 60, 79
2,32973, Note_on_c, 0, 48, 0
2,33172, Note_on_c, 0, 60, 0
2,33212, Note_on_c, 0, 58, 70
2,33238, Note_on_c, 0, 68, 0
2,33283, Note_on_c, 0, 58, 0
2,33302, Note_on_c, 0, 56, 78
2,33391, Note_on_c, 0, 56, 0
2,33397, Note_on_c, 0, 67, 66
2,33398, Note_on_c, 0, 58, 75
2,33448, Note_on_c, 0, 67, 0
2,33497, Note_on_c, 0, 49, 0
2,33511, Note_on_c, 0, 48, 63
2,33592, Note_on_c, 0, 48, 0
2,33609, Note_on_c, 0, 46, 57
2,33629, Note_on_c, 0, 67, 78
2,33652, Note_on_c, 0, 58, 0
2,33733, Note_on_c, 0, 49, 62
2,33748, Note_on_c, 0, 46, 0
2,33837, Note_on_c, 0, 49, 0
2,33848, Note_on_c, 0, 48, 62
2,33854, Note_on_c, 0, 56, 79
2,33892, Note_on_c, 0, 56, 0
2,33943, Note_on_c, 0, 48, 0
2,33957, Note_on_c, 0, 46, 59
2,34038, Note_on_c, 0, 67, 0
2,34068, Note_on_c, 0, 44, 57
2,34071, Note_on_c, 0, 65, 74
2,34072, Note_on_c, 0, 46, 0
2,34126, Note_on_c, 0, 65, 0
2,34150, Note_on_c, 0, 48, 62
2,34154, Note_on_c, 0, 44, 0
2,34258, Note_on_c, 0, 48, 0
2,34279, Note_on_c, 0, 46, 58
2,34282, Note_on_c, 0, 55, 62
2,34282, Note_on_c, 0, 64, 67
2,34319, Note_on_c, 0, 55, 0
2,34327, Note_on_c, 0, 64, 0
2,34370, Note_on_c, 0, 46, 0
2,34380, Note_on_c, 0, 44, 57
2,34490, Note_on_c, 0, 44, 0
2,34512, Note_on_c, 0, 46, 56
2,34512, Note_on_c, 0, 67, 67
2,34515, Note_on_c, 0, 64, 53
2,34546, Note_on_c, 0, 64, 0
2,34555, Note_on_c, 0, 67, 0
2,34587, Note_on_c, 0, 46, 0
2,34617, Note_on_c, 0, 43, 50
2,34731, Note_on_c, 0, 43, 0
2,34753, Note_on_c, 0, 44, 47
2,34759, Note_on_c, 0, 53, 56
2,34766, Note_on_c, 0, 72, 56
2,34796, Note_on_c, 0, 44, 0
2,34836, Note_on_c, 0, 72, 0
2,34854, Note_on_c, 0, 70, 54
2,34964, Note_on_c, 0, 70, 0
2,34967, Note_on_c, 0, 68, 51
2,34973, Note_on_c, 0, 49, 54
2,35004, Note_on_c, 0, 49, 0
2,35050, Note_on_c, 0, 68, 0
2,35063, Note_on_c, 0, 72, 58
2,35164, Note_on_c, 0, 72, 0
2,35176, Note_on_c, 0, 43, 57
2,35178, Note_on_c, 0, 70, 56
2,35197, Note_on_c, 0, 53, 0
2,35227, Note_on_c, 0, 43, 0
2,35288, Note_on_c, 0, 68, 55
2,35331, Note_on_c, 0, 70, 0
2,35383, Note_on_c, 0, 67, 58
2,35393, Note_on_c, 0, 68, 0
2,35394, Note_on_c, 0, 48, 61
2,35398, Note_on_c, 0, 52, 59
2,35442, Note_on_c, 0, 48, 0
2,35475, Note_on_c, 0, 52, 0
2,35486, Note_on_c, 0, 67, 0
2,35489, Note_on_c, 0, 70, 59
2,35605, Note_on_c, 0, 68, 65
2,35609, Note_on_c, 0, 53, 68
2,35612, Note_on_c, 0, 41, 63
2,35618, Note_on_c, 0, 70, 0
2,35659, Note_on_c, 0, 41, 0
2,35675, Note_on_c, 0, 53, 0
2,35675, Note_on_c, 0, 68, 0
2,35707, Note_on_c, 0, 65, 66
2,35810, Note_on_c, 0, 52, 74
2,35810, Note_on_c, 0, 65, 0
2,35817, Note_on_c, 0, 73, 74
2,35820, Note_on_c, 0, 46, 63
2,35871, Note_on_c, 0, 52, 0
2,35883, Note_on_c, 0, 46, 0
2,35918, Note_on_c, 0, 73, 0
2,35920, Note_on_c, 0, 70, 76
2,36036, Note_on_c, 0, 53, 80
2,36037, Note_on_c, 0, 44, 76
2,36040, Note_on_c, 0, 70, 0
2,36041, Note_on_c, 0, 72, 76
2,36103, Note_on_c, 0, 44, 0
2,36110, Note_on_c, 0, 72, 0
2,36111, Note_on_c, 0, 53, 0
2,36148, Note_on_c, 0, 68, 79
2,36250, Note_on_c, 0, 68, 0
2,36256, Note_on_c, 0, 49, 74
2,36260, Note_on_c, 0, 58, 86
2,36264, Note_on_c, 0, 78, 82
2,36327, Note_on_c, 0, 58, 0
2,36331, Note_on_c, 0, 49, 0
2,36373, Note_on_c, 0, 78, 0
2,36377, Note_on_c, 0, 76, 79
2,36443, Note_on_c, 0, 76, 0
2,36496, Note_on_c, 0, 56, 80
2,36502, Note_on_c, 0, 48, 64
2,36520, Note_on_c, 0, 76, 74
2,36623, Note_on_c, 0, 77, 86
2,36631, Note_on_c, 0, 76, 0
2,36725, Note_on_c, 0, 56, 0
2,36728, Note_on_c, 0, 55, 68
2,36747, Note_on_c, 0, 83, 83
2,36755, Note_on_c, 0, 77, 0
2,36812, Note_on_c, 0, 55, 0
2,36814, Note_on_c, 0, 53, 64
2,36823, Note_on_c, 0, 83, 0
2,36834, Note_on_c, 0, 84, 79
2,36930, Note_on_c, 0, 77, 72
2,36932, Note_on_c, 0, 84, 0
2,36938, Note_on_c, 0, 55, 70
2,36956, Note_on_c, 0, 53, 0
2,36965, Note_on_c, 0, 77, 0
2,36971, Note_on_c, 0, 76, 74
2,36994, Note_on_c, 0, 55, 0
2,37018, Note_on_c, 0, 76, 0
2,37028, Note_on_c, 0, 77, 74
2,37077, Note_on_c, 0, 76, 76
2,37078, Note_on_c, 0, 77, 0
2,37207, Note_on_c, 0, 48, 0
2,37210, Note_on_c, 0, 58, 65
2,37250, Note_on_c, 0, 58, 0
2,37316, Note_on_c, 0, 77, 73
2,37340, Note_on_c, 0, 76, 0
2,37365, Note_on_c, 0, 77, 0
2,37446, Note_on_c, 0, 53, 41
2,37459, Note_on_c, 0, 77, 69
2,37468, Note_on_c, 0, 56, 51
2,37583, Note_on_c, 0, 58, 58
2,37619, Note_on_c, 0, 56, 0
2,37687, Note_on_c, 0, 60, 60
2,37694, Note_on_c, 0, 58, 0
2,37721, Note_on_c, 0, 53, 0
2,37788, Note_on_c, 0, 56, 58
2,37798, Note_on_c, 0, 60, 0
2,37874, Note_on_c, 0, 56, 0
2,37894, Note_on_c, 0, 53, 65
2,37905, Note_on_c, 0, 77, 0
2,37982, Note_on_c, 0, 53, 0
2,37987, Note_on_c, 0, 54, 67
2,38080, Note_on_c, 0, 54, 0
2,38084, Note_on_c, 0, 56, 64
2,38099, Note_on_c, 0, 77, 79
2,38136, Note_on_c, 0, 77, 0
2,38189, Note_on_c, 0, 53, 64
2,38197, Note_on_c, 0, 56, 0
2,38313, Note_on_c, 0, 53, 0
2,38322, Note_on_c, 0, 50, 56
2,38337, Note_on_c, 0, 71, 73
2,38425, Note_on_c, 0, 71, 0
2,38434, Note_on_c, 0, 70, 77
2,38441, Note_on_c, 0, 51, 65
2,38459, Note_on_c, 0, 50, 0
2,38519, Note_on_c, 0, 70, 0
2,38531, Note_on_c, 0, 51, 0
2,38533, Note_on_c, 0, 68, 80
2,38537, Note_on_c, 0, 53, 67
2,38616, Note_on_c, 0, 68, 0
2,38616, Note_on_c, 0, 70, 81
2,38625, Note_on_c, 0, 50, 54
2,38629, Note_on_c, 0, 53, 0
2,38714, Note_on_c, 0, 50, 0
2,38721, Note_on_c, 0, 77, 85
2,38723, Note_on_c, 0, 70, 0
2,38729, Note_on_c, 0, 46, 57
2,38752, Note_on_c, 0, 77, 0
2,38836, Note_on_c, 0, 46, 0
2,38840, Note_on_c, 0, 50, 56
2,38934, Note_on_c, 0, 74, 78
2,38942, Note_on_c, 0, 53, 64
2,38947, Note_on_c, 0, 50, 0
2,38968, Note_on_c, 0, 74, 0
2,39033, Note_on_c, 0, 53, 0
2,39049, Note_on_c, 0, 58, 59
2,39154, Note_on_c, 0, 68, 77
2,39160, Note_on_c, 0, 58, 0
2,39166, Note_on_c, 0, 51, 59
2,39280, Note_on_c, 0, 54, 62
2,39283, Note_on_c, 0, 51, 0
2,39397, Note_on_c, 0, 58, 64
2,39408, Note_on_c, 0, 54, 0
2,39408, Note_on_c, 0, 68, 0
2,39409, Note_on_c, 0, 66, 75
2,39468, Note_on_c, 0, 58, 0
2,39481, Note_on_c, 0, 66, 0
2,39493, Note_on_c, 0, 65, 77
2,39499, Note_on_c, 0, 62, 64
2,39581, Note_on_c, 0, 65, 0
2,39587, Note_on_c, 0, 62, 0
2,39587, Note_on_c, 0, 66, 78
2,39606, Note_on_c, 0, 63, 57
2,39617, Note_on_c, 0, 66, 0
2,39690, Note_on_c, 0, 63, 0
2,39708, Note_on_c, 0, 65, 65
2,39817, Note_on_c, 0, 75, 71
2,39819, Note_on_c, 0, 66, 58
2,39822, Note_on_c, 0, 65, 0
2,39849, Note_on_c, 0, 75, 0
2,39928, Note_on_c, 0, 63, 51
2,39928, Note_on_c, 0, 66, 0
2,40017, Note_on_c, 0, 63, 0
2,40044, Note_on_c, 0, 69, 62
2,40049, Note_on_c, 0, 60, 47
2,40118, Note_on_c, 0, 60, 0
2,40121, Note_on_c, 0, 69, 0
2,40142, Note_on_c, 0, 68, 69
2,40143, Note_on_c, 0, 61, 54
2,40206, Note_on_c, 0, 61, 0
2,40207, Note_on_c, 0, 68, 0
2,40236, Note_on_c, 0, 63, 52
2,40246, Note_on_c, 0, 66, 68
2,40320, Note_on_c, 0, 66, 0
2,40323, Note_on_c, 0, 63, 0
2,40332, Note_on_c, 0, 68, 73
2,40336, Note_on_c, 0, 60, 58
2,40374, Note_on_c, 0, 60, 0
2,40387, Note_on_c, 0, 68, 0
2,40438, Note_on_c, 0, 75, 75
2,40453, Note_on_c, 0, 56, 59
2,40469, Note_on_c, 0, 75, 0
2,40565, Note_on_c, 0, 44, 46
2,40663, Note_on_c, 0, 72, 69
2,40674, Note_on_c, 0, 46, 53
2,40683, Note_on_c, 0, 44, 0
2,40692, Note_on_c, 0, 72, 0
2,40777, Note_on_c, 0, 48, 54
2,40782, Note_on_c, 0, 46, 0
2,40827, Note_on_c, 0, 56, 0
2,40897, Note_on_c, 0, 49, 48
2,40902, Note_on_c, 0, 48, 0
2,40907, Note_on_c, 0, 66, 62
2,41020, Note_on_c, 0, 56, 54
2,41076, Note_on_c, 0, 56, 0
2,41124, Note_on_c, 0, 65, 57
2,41140, Note_on_c, 0, 58, 52
2,41144, Note_on_c, 0, 66, 0
2,41214, Note_on_c, 0, 58, 0
2,41225, Note_on_c, 0, 63, 64
2,41237, Note_on_c, 0, 65, 0
2,41248, Note_on_c, 0, 60, 46
2,41313, Note_on_c, 0, 60, 0
2,41337, Note_on_c, 0, 61, 58
2,41341, Note_on_c, 0, 63, 0
2,41358, Note_on_c, 0, 65, 58
2,41375, Control_c, 0, 64, 43
2,41379, Note_on_c, 0, 61, 0
2,41390, Control_c, 0, 64, 59
2,41396, Note_on_c, 0, 65, 0
2,41405, Control_c, 0, 64, 65
2,41421, Control_c, 0, 64, 72
2,41436, Control_c, 0, 64, 85
2,41450, Control_c, 0, 64, 107
2,41466, Control_c, 0, 64, 127
2,41490, Note_on_c, 0, 68, 65
2,41492, Note_on_c, 0, 51, 63
2,41511, Control_c, 0, 64, 118
2,41526, Control_c, 0, 64, 95
2,41535, Note_on_c, 0, 49, 0
2,41542, Control_c, 0, 64, 81
2,41557, Control_c, 0, 64, 70
2,41566, Note_on_c, 0, 51, 0
2,41572, Control_c, 0, 64, 62
2,41585, Note_on_c, 0, 73, 76
2,41586, Note_on_c, 0, 53, 58
2,41587, Control_c, 0, 64, 52
2,41592, Note_on_c, 0, 68, 0
2,41602, Control_c, 0, 64, 42
2,41617, Control_c, 0, 64, 36
2,41632, Control_c, 0, 64, 32
2,41647, Control_c, 0, 64, 31
2,41663, Control_c, 0, 64, 30
2,41677, Note_on_c, 0, 53, 0
2,41680, Note_on_c, 0, 55, 65
2,41680, Note_on_c, 0, 75, 81
2,41702, Note_on_c, 0, 73, 0
2,41739, Control_c, 0, 64, 31
2,41754, Control_c, 0, 64, 31
2,41769, Control_c, 0, 64, 32
2,41772, Note_on_c, 0, 75, 0
2,41777, Note_on_c, 0, 55, 0
2,41781, Note_on_c, 0, 77, 84
2,41785, Control_c, 0, 64, 32
2,41785, Note_on_c, 0, 56, 67
2,41835, Note_on_c, 0, 57, 36
2,41869, Note_on_c, 0, 56, 0
2,41870, Note_on_c, 0, 57, 0
2,41870, Note_on_c, 0, 75, 86
2,41876, Control_c, 0, 64, 33
2,41885, Note_on_c, 0, 55, 65
2,41903, Note_on_c, 0, 77, 0
2,41969, Note_on_c, 0, 73, 81
2,41970, Note_on_c, 0, 55, 0
2,41976, Note_on_c, 0, 75, 0
2,41982, Note_on_c, 0, 53, 66
2,41983, Control_c, 0, 64, 33
2,42060, Note_on_c, 0, 75, 83
2,42075, Note_on_c, 0, 73, 0
2,42076, Note_on_c, 0, 55, 67
2,42078, Note_on_c, 0, 53, 0
2,42110, Note_on_c, 0, 75, 0
2,42157, Control_c, 0, 64, 34
2,42162, Note_on_c, 0, 55, 0
2,42165, Note_on_c, 0, 56, 71
2,42175, Note_on_c, 0, 84, 86
2,42194, Note_on_c, 0, 72, 70
2,42220, Note_on_c, 0, 84, 0
2,42234, Control_c, 0, 64, 34
2,42264, Note_on_c, 0, 56, 0
2,42280, Note_on_c, 0, 55, 65
2,42393, Note_on_c, 0, 55, 0
2,42399, Note_on_c, 0, 80, 81
2,42402, Note_on_c, 0, 53, 64
2,42434, Note_on_c, 0, 80, 0
2,42444, Note_on_c, 0, 72, 0
2,42502, Note_on_c, 0, 53, 0
2,42505, Note_on_c, 0, 51, 68
2,42527, Note_on_c, 0, 72, 30
2,42614, Note_on_c, 0, 51, 0
2,42621, Note_on_c, 0, 53, 69
2,42625, Note_on_c, 0, 75, 81
2,42861, Note_on_c, 0, 72, 0
2,42899, Note_on_c, 0, 73, 76
2,42940, Note_on_c, 0, 75, 0
2,42988, Control_c, 0, 64, 35
2,42989, Note_on_c, 0, 72, 77
2,42998, Note_on_c, 0, 73, 0
2,43087, Note_on_c, 0, 73, 84
2,43089, Note_on_c, 0, 72, 0
2,43095, Note_on_c, 0, 70, 69
2,43127, Note_on_c, 0, 73, 0
2,43149, Note_on_c, 0, 70, 0
2,43192, Note_on_c, 0, 53, 0
2,43194, Note_on_c, 0, 51, 65
2,43294, Note_on_c, 0, 51, 0
2,43302, Note_on_c, 0, 49, 58
2,43303, Note_on_c, 0, 82, 81
2,43347, Note_on_c, 0, 82, 0
2,43390, Note_on_c, 0, 49, 0
2,43391, Note_on_c, 0, 53, 67
2,43490, Note_on_c, 0, 53, 0
2,43500, Note_on_c, 0, 51, 65
2,43511, Note_on_c, 0, 72, 81
2,43551, Note_on_c, 0, 72, 0
2,43586, Note_on_c, 0, 51, 0
2,43599, Note_on_c, 0, 49, 59
2,43702, Note_on_c, 0, 49, 0
2,43721, Note_on_c, 0, 48, 59
2,43722, Note_on_c, 0, 80, 78
2,43733, Note_on_c, 0, 68, 64
2,43766, Note_on_c, 0, 68, 0
2,43779, Note_on_c, 0, 80, 0
2,43797, Note_on_c, 0, 48, 0
2,43818, Note_on_c, 0, 51, 65
2,43859, Control_c, 0, 64, 35
2,43940, Note_on_c, 0, 51, 0
2,43947, Note_on_c, 0, 70, 72
2,43952, Note_on_c, 0, 49, 56
2,43953, Note_on_c, 0, 67, 61
2,43980, Note_on_c, 0, 70, 0
2,43983, Note_on_c, 0, 67, 0
2,44036, Note_on_c, 0, 49, 0
2,44052, Note_on_c, 0, 48, 52
2,44147, Note_on_c, 0, 48, 0
2,44166, Note_on_c, 0, 46, 47
2,44174, Note_on_c, 0, 79, 73
2,44187, Note_on_c, 0, 70, 56
2,44222, Note_on_c, 0, 70, 0
2,44230, Note_on_c, 0, 79, 0
2,44251, Note_on_c, 0, 46, 0
2,44280, Note_on_c, 0, 49, 45
2,44414, Note_on_c, 0, 49, 0
2,44433, Note_on_c, 0, 48, 54
2,44434, Note_on_c, 0, 68, 64
2,44445, Note_on_c, 0, 63, 47
2,44464, Note_on_c, 0, 48, 0
2,44472, Note_on_c, 0, 63, 0
2,44529, Note_on_c, 0, 68, 0
2,44552, Note_on_c, 0, 63, 57
2,44595, Note_on_c, 0, 63, 0
2,44656, Note_on_c, 0, 65, 48
2,44659, Note_on_c, 0, 51, 62
2,44684, Note_on_c, 0, 51, 0
2,44737, Note_on_c, 0, 65, 0
2,44749, Note_on_c, 0, 67, 49
2,44837, Note_on_c, 0, 67, 0
2,44868, Note_on_c, 0, 54, 56
2,44876, Note_on_c, 0, 68, 49
2,44947, Note_on_c, 0, 68, 0
2,44980, Note_on_c, 0, 70, 46
2,45074, Note_on_c, 0, 70, 0
2,45098, Note_on_c, 0, 56, 63
2,45112, Note_on_c, 0, 72, 50
2,45136, Note_on_c, 0, 56, 0
2,45167, Note_on_c, 0, 72, 0
2,45217, Note_on_c, 0, 68, 49
2,45311, Note_on_c, 0, 68, 0
2,45323, Note_on_c, 0, 58, 65
2,45337, Note_on_c, 0, 73, 50
2,45405, Note_on_c, 0, 73, 0
2,45410, Note_on_c, 0, 58, 0
2,45416, Note_on_c, 0, 54, 0
2,45419, Note_on_c, 0, 56, 66
2,45430, Note_on_c, 0, 72, 54
2,45517, Note_on_c, 0, 56, 0
2,45517, Note_on_c, 0, 72, 0
2,45521, Note_on_c, 0, 54, 68
2,45534, Note_on_c, 0, 70, 53
2,45610, Note_on_c, 0, 56, 71
2,45610, Note_on_c, 0, 70, 0
2,45612, Note_on_c, 0, 54, 0
2,45641, Note_on_c, 0, 72, 49
2,45697, Note_on_c, 0, 56, 0
2,45710, Note_on_c, 0, 72, 0
2,45726, Note_on_c, 0, 65, 73
2,45735, Note_on_c, 0, 53, 60
2,45744, Note_on_c, 0, 73, 49
2,45754, Note_on_c, 0, 65, 0
2,45835, Note_on_c, 0, 73, 0
2,45860, Note_on_c, 0, 72, 48
2,45953, Note_on_c, 0, 72, 0
2,45963, Note_on_c, 0, 61, 72
2,45979, Note_on_c, 0, 70, 52
2,45991, Note_on_c, 0, 61, 0
2,46036, Note_on_c, 0, 70, 0
2,46081, Note_on_c, 0, 68, 59
2,46207, Note_on_c, 0, 56, 68
2,46214, Note_on_c, 0, 68, 0
2,46216, Note_on_c, 0, 70, 62
2,46298, Note_on_c, 0, 53, 0
2,46478, Note_on_c, 0, 56, 0
2,46484, Note_on_c, 0, 54, 67
2,46560, Note_on_c, 0, 54, 0
2,46570, Note_on_c, 0, 53, 70
2,46635, Control_c, 0, 64, 35
2,46650, Control_c, 0, 64, 35
2,46676, Note_on_c, 0, 54, 74
2,46677, Note_on_c, 0, 53, 0
2,46681, Control_c, 0, 64, 35
2,46681, Note_on_c, 0, 51, 58
2,46711, Control_c, 0, 64, 35
2,46729, Note_on_c, 0, 54, 0
2,46807, Note_on_c, 0, 68, 53
2,46845, Note_on_c, 0, 70, 0
2,46897, Note_on_c, 0, 66, 60
2,46911, Note_on_c, 0, 63, 74
2,46918, Note_on_c, 0, 68, 0
2,46937, Note_on_c, 0, 63, 0
2,46996, Note_on_c, 0, 66, 0
2,47009, Note_on_c, 0, 70, 59
2,47104, Note_on_c, 0, 70, 0
2,47119, Note_on_c, 0, 53, 76
2,47119, Note_on_c, 0, 68, 57
2,47144, Note_on_c, 0, 51, 0
2,47157, Note_on_c, 0, 53, 0
2,47213, Note_on_c, 0, 66, 59
2,47213, Note_on_c, 0, 68, 0
2,47296, Note_on_c, 0, 66, 0
2,47337, Note_on_c, 0, 61, 71
2,47337, Note_on_c, 0, 65, 60
2,47343, Note_on_c, 0, 49, 60
2,47364, Note_on_c, 0, 61, 0
2,47382, Note_on_c, 0, 49, 0
2,47402, Note_on_c, 0, 65, 0
2,47429, Note_on_c, 0, 68, 66
2,47543, Note_on_c, 0, 66, 65
2,47557, Note_on_c, 0, 68, 0
2,47559, Note_on_c, 0, 51, 62
2,47596, Note_on_c, 0, 51, 0
2,47633, Note_on_c, 0, 66, 0
2,47638, Note_on_c, 0, 65, 62
2,47710, Note_on_c, 0, 65, 0
2,47747, Note_on_c, 0, 63, 56
2,47760, Note_on_c, 0, 44, 53
2,47761, Note_on_c, 0, 60, 53
2,47793, Control_c, 0, 64, 35
2,47798, Note_on_c, 0, 44, 0
2,47805, Note_on_c, 0, 60, 0
2,47805, Note_on_c, 0, 63, 0
2,47824, Control_c, 0, 64, 34
2,47848, Note_on_c, 0, 66, 52
2,47926, Note_on_c, 0, 66, 0
2,47963, Note_on_c, 0, 49, 46
2,47967, Note_on_c, 0, 65, 54
2,47974, Note_on_c, 0, 61, 46
2,48018, Note_on_c, 0, 65, 0
2,48061, Note_on_c, 0, 49, 0
2,48073, Note_on_c, 0, 51, 59
2,48165, Note_on_c, 0, 61, 0
2,48169, Note_on_c, 0, 51, 0
2,48175, Note_on_c, 0, 68, 61
2,48196, Note_on_c, 0, 53, 56
2,48211, Note_on_c, 0, 68, 0
2,48291, Note_on_c, 0, 53, 0
2,48305, Note_on_c, 0, 54, 55
2,48407, Note_on_c, 0, 54, 0
2,48426, Note_on_c, 0, 53, 56
2,48432, Note_on_c, 0, 73, 59
2,48548, Note_on_c, 0, 53, 0
2,48557, Note_on_c, 0, 51, 52
2,48654, Note_on_c, 0, 49, 46
2,48654, Note_on_c, 0, 51, 0
2,48663, Note_on_c, 0, 80, 63
2,48690, Note_on_c, 0, 73, 0
2,48760, Note_on_c, 0, 53, 58
2,48764, Note_on_c, 0, 49, 0
2,48765, Note_on_c, 0, 77, 72
2,48787, Note_on_c, 0, 80, 0
2,48852, Note_on_c, 0, 53, 0
2,48868, Note_on_c, 0, 58, 69
2,48870, Note_on_c, 0, 73, 67
2,48871, Note_on_c, 0, 77, 0
2,48974, Note_on_c, 0, 56, 72
2,48978, Note_on_c, 0, 58, 0
2,49068, Note_on_c, 0, 73, 0
2,49080, Note_on_c, 0, 55, 67
2,49089, Note_on_c, 0, 56, 0
2,49094, Note_on_c, 0, 76, 70
2,49188, Note_on_c, 0, 58, 79
2,49190, Note_on_c, 0, 73, 70
2,49193, Note_on_c, 0, 55, 0
2,49209, Note_on_c, 0, 76, 0
2,49280, Note_on_c, 0, 58, 0
2,49292, Note_on_c, 0, 61, 78
2,49303, Note_on_c, 0, 70, 70
2,49303, Note_on_c, 0, 73, 0
2,49390, Note_on_c, 0, 59, 78
2,49400, Note_on_c, 0, 61, 0
2,49506, Note_on_c, 0, 58, 76
2,49513, Note_on_c, 0, 59, 0
2,49519, Note_on_c, 0, 70, 0
2,49519, Note_on_c, 0, 73, 74
2,49603, Note_on_c, 0, 61, 74
2,49617, Note_on_c, 0, 58, 0
2,49630, Note_on_c, 0, 70, 70
2,49645, Note_on_c, 0, 73, 0
2,49646, Note_on_c, 0, 61, 0
2,49701, Note_on_c, 0, 61, 69
2,49729, Note_on_c, 0, 70, 0
2,49736, Note_on_c, 0, 63, 78
2,49751, Note_on_c, 0, 67, 75
2,49766, Note_on_c, 0, 61, 0
2,49780, Note_on_c, 0, 64, 72
2,49808, Note_on_c, 0, 63, 0
2,49991, Note_on_c, 0, 63, 68
2,49998, Note_on_c, 0, 64, 0
2,50002, Note_on_c, 0, 70, 64
2,50004, Note_on_c, 0, 67, 0
2,50084, Note_on_c, 0, 61, 71
2,50093, Note_on_c, 0, 73, 71
2,50103, Note_on_c, 0, 63, 0
2,50104, Note_on_c, 0, 70, 0
2,50169, Note_on_c, 0, 61, 0
2,50191, Note_on_c, 0, 59, 69
2,50197, Note_on_c, 0, 73, 0
2,50204, Note_on_c, 0, 76, 69
2,50288, Note_on_c, 0, 59, 0
2,50292, Note_on_c, 0, 58, 64
2,50388, Note_on_c, 0, 58, 0
2,50400, Note_on_c, 0, 56, 60
2,50415, Note_on_c, 0, 73, 66
2,50446, Note_on_c, 0, 73, 0
2,50504, Note_on_c, 0, 56, 0
2,50513, Note_on_c, 0, 55, 58
2,50633, Note_on_c, 0, 55, 0
2,50639, Note_on_c, 0, 71, 55
2,50639, Note_on_c, 0, 75, 63
2,50642, Note_on_c, 0, 56, 54
2,50652, Note_on_c, 0, 76, 0
2,50686, Note_on_c, 0, 75, 0
2,50700, Note_on_c, 0, 56, 0
2,50725, Note_on_c, 0, 59, 58
2,50834, Note_on_c, 0, 59, 0
2,50846, Note_on_c, 0, 58, 60
2,50861, Note_on_c, 0, 80, 77
2,50919, Note_on_c, 0, 80, 0
2,50941, Control_c, 0, 64, 35
2,50946, Note_on_c, 0, 56, 69
2,50956, Note_on_c, 0, 58, 0
2,51047, Note_on_c, 0, 56, 0
2,51054, Note_on_c, 0, 55, 71
2,51054, Note_on_c, 0, 73, 76
2,51057, Note_on_c, 0, 70, 72
2,51069, Note_on_c, 0, 71, 0
2,51116, Note_on_c, 0, 73, 0
2,51162, Note_on_c, 0, 55, 0
2,51163, Note_on_c, 0, 53, 74
2,51189, Control_c, 0, 64, 35
2,51263, Note_on_c, 0, 51, 75
2,51272, Note_on_c, 0, 53, 0
2,51273, Note_on_c, 0, 79, 77
2,51331, Note_on_c, 0, 79, 0
2,51369, Note_on_c, 0, 49, 69
2,51383, Note_on_c, 0, 51, 0
2,51410, Control_c, 0, 64, 36
2,51470, Control_c, 0, 64, 36
2,51474, Note_on_c, 0, 70, 0
2,51481, Note_on_c, 0, 47, 73
2,51482, Note_on_c, 0, 49, 0
2,51486, Note_on_c, 0, 68, 82
2,51534, Note_on_c, 0, 68, 0
2,51585, Note_on_c, 0, 47, 0
2,51591, Note_on_c, 0, 49, 75
2,51698, Note_on_c, 0, 51, 72
2,51709, Note_on_c, 0, 80, 83
2,51710, Note_on_c, 0, 49, 0
2,51816, Note_on_c, 0, 47, 66
2,51817, Note_on_c, 0, 79, 80
2,51826, Note_on_c, 0, 80, 0
2,51831, Note_on_c, 0, 51, 0
2,51930, Note_on_c, 0, 44, 60
2,51939, Note_on_c, 0, 80, 83
2,51945, Note_on_c, 0, 47, 0
2,51955, Note_on_c, 0, 79, 0
2,51957, Control_c, 0, 64, 37
2,52025, Note_on_c, 0, 44, 0
2,52051, Note_on_c, 0, 82, 84
2,52078, Note_on_c, 0, 80, 0
2,52163, Note_on_c, 0, 83, 80
2,52164, Note_on_c, 0, 56, 72
2,52201, Note_on_c, 0, 82, 0
2,52256, Note_on_c, 0, 80, 81
2,52260, Note_on_c, 0, 53, 75
2,52263, Note_on_c, 0, 56, 0
2,52277, Note_on_c, 0, 83, 0
2,52278, Control_c, 0, 64, 36
2,52354, Note_on_c, 0, 53, 0
2,52357, Note_on_c, 0, 49, 74
2,52358, Note_on_c, 0, 77, 81
2,52363, Note_on_c, 0, 80, 0
2,52408, Note_on_c, 0, 49, 0
2,52414, Control_c, 0, 64, 36
2,52445, Control_c, 0, 64, 35
2,52461, Note_on_c, 0, 78, 84
2,52472, Note_on_c, 0, 77, 0
2,52491, Control_c, 0, 64, 35
2,52507, Control_c, 0, 64, 34
2,52562, Note_on_c, 0, 59, 75
2,52567, Note_on_c, 0, 80, 80
2,52584, Note_on_c, 0, 78, 0
2,52653, Note_on_c, 0, 56, 75
2,52656, Note_on_c, 0, 77, 80
2,52673, Note_on_c, 0, 59, 0
2,52686, Note_on_c, 0, 80, 0
2,52737, Note_on_c, 0, 77, 0
2,52763, Note_on_c, 0, 73, 77
2,52766, Note_on_c, 0, 53, 73
2,52772, Note_on_c, 0, 56, 0
2,52824, Note_on_c, 0, 53, 0
2,52849, Note_on_c, 0, 75, 79
2,52856, Note_on_c, 0, 73, 0
2,52965, Note_on_c, 0, 77, 78
2,52974, Note_on_c, 0, 49, 61
2,52988, Note_on_c, 0, 75, 0
2,53057, Note_on_c, 0, 46, 65
2,53061, Note_on_c, 0, 73, 75
2,53063, Note_on_c, 0, 49, 0
2,53066, Note_on_c, 0, 77, 0
2,53151, Note_on_c, 0, 73, 0
2,53164, Note_on_c, 0, 42, 67
2,53164, Note_on_c, 0, 46, 0
2,53168, Note_on_c, 0, 70, 72
2,53231, Note_on_c, 0, 42, 0
2,53246, Note_on_c, 0, 70, 0
2,53264, Note_on_c, 0, 72, 73
2,53374, Note_on_c, 0, 72, 0
2,53375, Note_on_c, 0, 58, 60
2,53381, Note_on_c, 0, 73, 66
2,53433, Note_on_c, 0, 73, 0
2,53467, Note_on_c, 0, 54, 57
2,53471, Note_on_c, 0, 58, 0
2,53476, Note_on_c, 0, 70, 64
2,53549, Control_c, 0, 64, 35
2,53577, Note_on_c, 0, 51, 51
2,53580, Note_on_c, 0, 54, 0
2,53582, Note_on_c, 0, 70, 0
2,53597, Note_on_c, 0, 78, 65
2,53610, Control_c, 0, 64, 35
2,53680, Note_on_c, 0, 51, 0
2,53702, Note_on_c, 0, 80, 72
2,53728, Note_on_c, 0, 78, 0
2,53740, Control_c, 0, 64, 36
2,53800, Control_c, 0, 64, 36
2,53803, Note_on_c, 0, 82, 74
2,53812, Note_on_c, 0, 80, 0
2,53814, Note_on_c, 0, 54, 58
2,53845, Control_c, 0, 64, 37
2,53876, Control_c, 0, 64, 37
2,53892, Note_on_c, 0, 78, 76
2,53901, Note_on_c, 0, 51, 66
2,53908, Note_on_c, 0, 54, 0
2,53916, Note_on_c, 0, 82, 0
2,53981, Note_on_c, 0, 78, 0
2,53997, Control_c, 0, 64, 38
2,54002, Note_on_c, 0, 75, 72
2,54004, Note_on_c, 0, 48, 66
2,54004, Note_on_c, 0, 51, 0
2,54051, Note_on_c, 0, 48, 0
2,54097, Note_on_c, 0, 77, 76
2,54106, Note_on_c, 0, 75, 0
2,54206, Note_on_c, 0, 77, 0
2,54206, Note_on_c, 0, 78, 75
2,54213, Note_on_c, 0, 58, 62
2,54225, Control_c, 0, 64, 37
2,54301, Note_on_c, 0, 75, 73
2,54309, Note_on_c, 0, 78, 0
2,54310, Note_on_c, 0, 54, 68
2,54322, Note_on_c, 0, 58, 0
2,54403, Note_on_c, 0, 72, 74
2,54415, Note_on_c, 0, 51, 73
2,54422, Note_on_c, 0, 75, 0
2,54427, Note_on_c, 0, 54, 0
2,54478, Note_on_c, 0, 51, 0
2,54508, Control_c, 0, 64, 37
2,54508, Note_on_c, 0, 73, 74
2,54515, Note_on_c, 0, 72, 0
2,54568, Control_c, 0, 64, 36
2,54601, Note_on_c, 0, 73, 0
2,54615, Note_on_c, 0, 75, 70
2,54625, Note_on_c, 0, 48, 46
2,54658, Control_c, 0, 64, 36
2,54674, Control_c, 0, 64, 35
2,54694, Note_on_c, 0, 48, 0
2,54715, Note_on_c, 0, 72, 66
2,54716, Note_on_c, 0, 44, 51
2,54718, Note_on_c, 0, 75, 0
2,54751, Control_c, 0, 64, 35
2,54781, Control_c, 0, 64, 34
2,54794, Note_on_c, 0, 72, 0
2,54806, Note_on_c, 0, 44, 0
2,54808, Note_on_c, 0, 41, 51
2,54834, Note_on_c, 0, 68, 59
2,54856, Control_c, 0, 64, 34
2,54887, Control_c, 0, 64, 33
2,54893, Note_on_c, 0, 41, 0
2,54916, Note_on_c, 0, 68, 0
2,54928, Note_on_c, 0, 70, 59
2,54948, Control_c, 0, 64, 33
2,55032, Note_on_c, 0, 70, 0
2,55035, Note_on_c, 0, 72, 61
2,55037, Note_on_c, 0, 56, 47
2,55084, Note_on_c, 0, 72, 0
2,55129, Note_on_c, 0, 56, 0
2,55134, Note_on_c, 0, 53, 56
2,55143, Note_on_c, 0, 68, 58
2,55239, Note_on_c, 0, 68, 0
2,55241, Note_on_c, 0, 50, 50
2,55246, Note_on_c, 0, 53, 0
2,55251, Note_on_c, 0, 77, 71
2,55315, Note_on_c, 0, 50, 0
2,55352, Note_on_c, 0, 78, 69
2,55365, Note_on_c, 0, 77, 0
2,55450, Note_on_c, 0, 80, 74
2,55457, Note_on_c, 0, 78, 0
2,55458, Note_on_c, 0, 53, 62
2,55518, Control_c, 0, 64, 33
2,55543, Note_on_c, 0, 53, 0
2,55543, Note_on_c, 0, 77, 74
2,55546, Note_on_c, 0, 50, 56
2,55552, Note_on_c, 0, 80, 0
2,55609, Control_c, 0, 64, 34
2,55644, Note_on_c, 0, 77, 0
2,55646, Note_on_c, 0, 50, 0
2,55650, Note_on_c, 0, 74, 67
2,55657, Note_on_c, 0, 46, 52
2,55708, Note_on_c, 0, 46, 0
2,55744, Note_on_c, 0, 75, 72
2,55747, Control_c, 0, 64, 34
2,55747, Note_on_c, 0, 74, 0
2,55847, Note_on_c, 0, 75, 0
2,55851, Note_on_c, 0, 77, 68
2,55865, Note_on_c, 0, 56, 63
2,55900, Control_c, 0, 64, 35
2,55943, Note_on_c, 0, 77, 0
2,55958, Note_on_c, 0, 74, 64
2,55967, Note_on_c, 0, 56, 0
2,55974, Note_on_c, 0, 53, 53
2,55983, Control_c, 0, 64, 35
2,56003, Note_on_c, 0, 74, 0
2,56061, Note_on_c, 0, 70, 56
2,56076, Note_on_c, 0, 53, 0
2,56086, Note_on_c, 0, 50, 50
2,56132, Note_on_c, 0, 50, 0
2,56135, Note_on_c, 0, 70, 0
2,56154, Note_on_c, 0, 72, 60
2,56257, Note_on_c, 0, 72, 0
2,56268, Note_on_c, 0, 74, 58
2,56285, Note_on_c, 0, 46, 53
2,56357, Note_on_c, 0, 74, 0
2,56366, Note_on_c, 0, 46, 0
2,56368, Note_on_c, 0, 70, 55
2,56376, Note_on_c, 0, 42, 53
2,56393, Control_c, 0, 64, 35
2,56444, Note_on_c, 0, 70, 0
2,56463, Note_on_c, 0, 42, 0
2,56475, Note_on_c, 0, 66, 59
2,56478, Note_on_c, 0, 39, 54
2,56500, Control_c, 0, 64, 34
2,56529, Note_on_c, 0, 39, 0
2,56559, Note_on_c, 0, 66, 0
2,56571, Note_on_c, 0, 68, 59
2,56679, Note_on_c, 0, 68, 0
2,56681, Control_c, 0, 64, 34
2,56684, Note_on_c, 0, 70, 56
2,56686, Note_on_c, 0, 54, 49
2,56742, Note_on_c, 0, 70, 0
2,56781, Control_c, 0, 64, 33
2,56782, Note_on_c, 0, 54, 0
2,56786, Note_on_c, 0, 51, 51
2,56796, Note_on_c, 0, 66, 50
2,56890, Note_on_c, 0, 51, 0
2,56896, Note_on_c, 0, 48, 46
2,56901, Note_on_c, 0, 66, 0
2,56912, Note_on_c, 0, 75, 58
2,56972, Note_on_c, 0, 48, 0
2,57016, Note_on_c, 0, 77, 63
2,57030, Note_on_c, 0, 75, 0
2,57106, Note_on_c, 0, 77, 0
2,57123, Note_on_c, 0, 78, 63
2,57127, Note_on_c, 0, 51, 53
2,57209, Note_on_c, 0, 78, 0
2,57211, Note_on_c, 0, 51, 0
2,57215, Note_on_c, 0, 75, 62
2,57224, Note_on_c, 0, 48, 44
2,57304, Note_on_c, 0, 48, 0
2,57318, Note_on_c, 0, 75, 0
2,57326, Note_on_c, 0, 72, 58
2,57328, Note_on_c, 0, 44, 49
2,57382, Note_on_c, 0, 44, 0
2,57430, Note_on_c, 0, 72, 0
2,57432, Note_on_c, 0, 73, 59
2,57523, Note_on_c, 0, 73, 0
2,57549, Note_on_c, 0, 75, 54
2,57555, Note_on_c, 0, 54, 51
2,57614, Note_on_c, 0, 54, 0
2,57635, Note_on_c, 0, 75, 0
2,57642, Note_on_c, 0, 51, 51
2,57643, Note_on_c, 0, 72, 57
2,57694, Note_on_c, 0, 72, 0
2,57741, Note_on_c, 0, 51, 0
2,57749, Note_on_c, 0, 48, 42
2,57759, Note_on_c, 0, 68, 49
2,57792, Note_on_c, 0, 48, 0
2,57813, Note_on_c, 0, 68, 0
2,57867, Note_on_c, 0, 70, 45
2,57967, Note_on_c, 0, 70, 0
2,57972, Note_on_c, 0, 44, 40
2,57984, Note_on_c, 0, 72, 47
2,58063, Note_on_c, 0, 72, 0
2,58065, Control_c, 0, 67, 8
2,58077, Note_on_c, 0, 41, 44
2,58080, Control_c, 0, 67, 8
2,58085, Note_on_c, 0, 68, 49
2,58089, Note_on_c, 0, 44, 0
2,58111, Control_c, 0, 67, 9
2,58141, Control_c, 0, 67, 9
2,58171, Control_c, 0, 67, 10
2,58174, Note_on_c, 0, 68, 0
2,58205, Note_on_c, 0, 41, 0
2,58212, Note_on_c, 0, 65, 44
2,58221, Note_on_c, 0, 37, 40
2,58285, Control_c, 0, 67, 9
2,58301, Control_c, 0, 67, 9
2,58312, Note_on_c, 0, 65, 0
2,58315, Control_c, 0, 67, 8
2,58330, Control_c, 0, 67, 8
2,58336, Note_on_c, 0, 66, 45
2,58346, Control_c, 0, 67, 0
2,58441, Note_on_c, 0, 66, 0
2,58444, Note_on_c, 0, 68, 54
2,58477, Note_on_c, 0, 37, 0
2,58508, Note_on_c, 0, 68, 0
2,58534, Note_on_c, 0, 65, 58
2,58617, Note_on_c, 0, 65, 0
2,58637, Note_on_c, 0, 61, 54
2,58728, Note_on_c, 0, 61, 0
2,58747, Note_on_c, 0, 65, 57
2,58829, Note_on_c, 0, 65, 0
2,58835, Note_on_c, 0, 68, 67
2,58927, Note_on_c, 0, 70, 66
2,58943, Note_on_c, 0, 68, 0
2,59031, Note_on_c, 0, 70, 0
2,59041, Note_on_c, 0, 71, 71
2,59128, Note_on_c, 0, 71, 0
2,59138, Note_on_c, 0, 70, 73
2,59221, Note_on_c, 0, 70, 0
2,59244, Note_on_c, 0, 68, 78
2,59253, Note_on_c, 0, 59, 65
2,59340, Note_on_c, 0, 70, 78
2,59342, Note_on_c, 0, 59, 0
2,59347, Note_on_c, 0, 68, 0
2,59348, Note_on_c, 0, 49, 65
2,59390, Control_c, 0, 64, 34
2,59433, Note_on_c, 0, 49, 0
2,59441, Note_on_c, 0, 78, 86
2,59443, Note_on_c, 0, 70, 0
2,59446, Note_on_c, 0, 58, 72
2,59464, Note_on_c, 0, 78, 0
2,59497, Control_c, 0, 64, 34
2,59519, Note_on_c, 0, 58, 0
2,59547, Note_on_c, 0, 49, 56
2,59654, Note_on_c, 0, 49, 0
2,59654, Note_on_c, 0, 73, 79
2,59656, Note_on_c, 0, 56, 69
2,59681, Note_on_c, 0, 73, 0
2,59709, Control_c, 0, 64, 34
2,59730, Note_on_c, 0, 56, 0
2,59757, Note_on_c, 0, 49, 54
2,59878, Note_on_c, 0, 49, 0
2,59881, Note_on_c, 0, 54, 60
2,59884, Note_on_c, 0, 70, 79
2,60009, Note_on_c, 0, 49, 53
2,60015, Note_on_c, 0, 54, 0
2,60133, Note_on_c, 0, 53, 62
2,60136, Note_on_c, 0, 68, 70
2,60158, Control_c, 0, 64, 33
2,60164, Note_on_c, 0, 49, 0
2,60177, Note_on_c, 0, 70, 0
2,60221, Note_on_c, 0, 66, 73
2,60224, Note_on_c, 0, 51, 72
2,60230, Note_on_c, 0, 53, 0
2,60230, Note_on_c, 0, 68, 0
2,60265, Control_c, 0, 64, 33
2,60291, Note_on_c, 0, 51, 0
2,60325, Note_on_c, 0, 53, 67
2,60329, Note_on_c, 0, 66, 0
2,60336, Note_on_c, 0, 68, 67
2,60341, Control_c, 0, 64, 32
2,60358, Note_on_c, 0, 53, 0
2,60385, Note_on_c, 0, 68, 0
2,60426, Note_on_c, 0, 61, 63
2,60513, Note_on_c, 0, 61, 0
2,60523, Note_on_c, 0, 44, 62
2,60528, Note_on_c, 0, 65, 56
2,60565, Note_on_c, 0, 44, 0
2,60601, Note_on_c, 0, 65, 0
2,60606, Control_c, 0, 64, 32
2,60623, Note_on_c, 0, 68, 63
2,60728, Note_on_c, 0, 68, 0
2,60736, Note_on_c, 0, 70, 61
2,60819, Note_on_c, 0, 70, 0
2,60834, Note_on_c, 0, 68, 69
2,60902, Note_on_c, 0, 68, 0
2,60945, Note_on_c, 0, 66, 66
2,60950, Note_on_c, 0, 58, 73
2,61013, Note_on_c, 0, 58, 0
2,61021, Note_on_c, 0, 66, 0
2,61028, Note_on_c, 0, 49, 60
2,61038, Note_on_c, 0, 68, 74
2,61078, Control_c, 0, 64, 32
2,61123, Control_c, 0, 64, 33
2,61139, Note_on_c, 0, 56, 71
2,61142, Note_on_c, 0, 77, 74
2,61146, Note_on_c, 0, 49, 0
2,61148, Note_on_c, 0, 68, 0
2,61173, Note_on_c, 0, 77, 0
2,61249, Note_on_c, 0, 56, 0
2,61250, Note_on_c, 0, 49, 50
2,61358, Note_on_c, 0, 49, 0
2,61362, Note_on_c, 0, 54, 63
2,61365, Note_on_c, 0, 73, 69
2,61390, Control_c, 0, 64, 33
2,61395, Note_on_c, 0, 73, 0
2,61478, Note_on_c, 0, 49, 46
2,61480, Note_on_c, 0, 54, 0
2,61564, Note_on_c, 0, 49, 0
2,61584, Note_on_c, 0, 68, 65
2,61585, Note_on_c, 0, 53, 52
2,61649, Control_c, 0, 64, 33
2,61679, Note_on_c, 0, 53, 0
2,61697, Note_on_c, 0, 49, 49
2,61794, Note_on_c, 0, 49, 0
2,61806, Note_on_c, 0, 66, 58
2,61809, Note_on_c, 0, 51, 58
2,61874, Note_on_c, 0, 68, 0
2,61882, Note_on_c, 0, 51, 0
2,61895, Note_on_c, 0, 65, 64
2,61895, Note_on_c, 0, 66, 0
2,61905, Note_on_c, 0, 49, 49
2,61978, Note_on_c, 0, 49, 0
2,62000, Note_on_c, 0, 65, 0
2,62014, Note_on_c, 0, 66, 60
2,62018, Note_on_c, 0, 51, 54
2,62049, Note_on_c, 0, 51, 0
2,62058, Note_on_c, 0, 66, 0
2,62124, Note_on_c, 0, 60, 52
2,62203, Control_c, 0, 64, 32
2,62217, Note_on_c, 0, 60, 0
2,62234, Note_on_c, 0, 63, 52
2,62249, Note_on_c, 0, 44, 45
2,62265, Control_c, 0, 67, 8
2,62280, Control_c, 0, 67, 9
2,62280, Note_on_c, 0, 44, 0
2,62296, Control_c, 0, 67, 10
2,62313, Note_on_c, 0, 63, 0
2,62325, Control_c, 0, 67, 11
2,62340, Note_on_c, 0, 66, 48
2,62341, Control_c, 0, 67, 11
2,62356, Control_c, 0, 67, 12
2,62386, Control_c, 0, 67, 13
2,62417, Control_c, 0, 67, 14
2,62431, Control_c, 0, 67, 14
2,62437, Note_on_c, 0, 66, 0
2,62444, Note_on_c, 0, 68, 53
2,62448, Control_c, 0, 67, 18
2,62463, Control_c, 0, 67, 37
2,62478, Control_c, 0, 67, 51
2,62494, Control_c, 0, 67, 57
2,62509, Control_c, 0, 67, 58
2,62543, Note_on_c, 0, 68, 0
2,62554, Note_on_c, 0, 66, 48
2,62611, Note_on_c, 0, 66, 0
2,62630, Control_c, 0, 67, 57
2,62657, Note_on_c, 0, 65, 57
2,62661, Control_c, 0, 67, 56
2,62662, Note_on_c, 0, 56, 47
2,62676, Control_c, 0, 67, 56
2,62733, Note_on_c, 0, 56, 0
2,62736, Note_on_c, 0, 65, 0
2,62745, Note_on_c, 0, 44, 49
2,62751, Note_on_c, 0, 66, 57
2,62838, Note_on_c, 0, 44, 0
2,62862, Note_on_c, 0, 66, 0
2,62864, Note_on_c, 0, 75, 68
2,62879, Note_on_c, 0, 54, 49
2,62900, Note_on_c, 0, 75, 0
2,62911, Control_c, 0, 67, 55
2,62941, Control_c, 0, 67, 55
2,62956, Control_c, 0, 67, 54
2,62957, Note_on_c, 0, 54, 0
2,62963, Note_on_c, 0, 44, 50
2,63001, Control_c, 0, 67, 53
2,63017, Control_c, 0, 67, 53
2,63032, Control_c, 0, 67, 52
2,63063, Control_c, 0, 67, 51
2,63079, Note_on_c, 0, 44, 0
2,63082, Note_on_c, 0, 53, 54
2,63094, Note_on_c, 0, 72, 64
2,63123, Control_c, 0, 67, 51
2,63123, Note_on_c, 0, 72, 0
2,63177, Note_on_c, 0, 53, 0
2,63184, Control_c, 0, 67, 50
2,63200, Note_on_c, 0, 44, 50
2,63215, Control_c, 0, 67, 50
2,63244, Control_c, 0, 67, 49
2,63276, Control_c, 0, 67, 48
2,63291, Control_c, 0, 67, 48
2,63328, Note_on_c, 0, 51, 57
2,63329, Note_on_c, 0, 44, 0
2,63335, Note_on_c, 0, 66, 56
2,63337, Control_c, 0, 67, 46
2,63352, Control_c, 0, 67, 45
2,63367, Control_c, 0, 67, 45
2,63382, Control_c, 0, 67, 44
2,63397, Control_c, 0, 67, 42
2,63413, Control_c, 0, 67, 40
2,63428, Control_c, 0, 67, 38
2,63432, Note_on_c, 0, 51, 0
2,63442, Control_c, 0, 67, 35
2,63458, Control_c, 0, 67, 32
2,63467, Note_on_c, 0, 44, 44
2,63473, Control_c, 0, 67, 30
2,63488, Control_c, 0, 67, 29
2,63503, Control_c, 0, 67, 27
2,63518, Control_c, 0, 67, 24
2,63534, Control_c, 0, 67, 20
2,63549, Control_c, 0, 67, 16
2,63564, Control_c, 0, 67, 11
2,63570, Note_on_c, 0, 66, 0
2,63579, Control_c, 0, 67, 0
2,63584, Note_on_c, 0, 65, 55
2,63586, Note_on_c, 0, 49, 47
2,63587, Note_on_c, 0, 44, 0
2,63678, Note_on_c, 0, 65, 0
2,63683, Note_on_c, 0, 49, 0
2,63697, Note_on_c, 0, 63, 55
2,63709, Note_on_c, 0, 48, 43
2,63787, Note_on_c, 0, 63, 0
2,63810, Note_on_c, 0, 48, 0
2,63818, Note_on_c, 0, 65, 58
2,63819, Note_on_c, 0, 49, 45
2,63919, Note_on_c, 0, 65, 0
2,63930, Note_on_c, 0, 68, 63
2,63942, Note_on_c, 0, 49, 0
2,63948, Note_on_c, 0, 44, 44
2,64032, Note_on_c, 0, 70, 66
2,64045, Note_on_c, 0, 53, 50
2,64047, Note_on_c, 0, 68, 0
2,64050, Note_on_c, 0, 44, 0
2,64100, Note_on_c, 0, 70, 0
2,64129, Note_on_c, 0, 72, 74
2,64136, Control_c, 0, 64, 32
2,64136, Note_on_c, 0, 53, 0
2,64142, Note_on_c, 0, 51, 62
2,64151, Control_c, 0, 64, 30
2,64165, Control_c, 0, 64, 28
2,64181, Control_c, 0, 64, 21
2,64196, Control_c, 0, 64, 0
2,64227, Note_on_c, 0, 73, 76
2,64229, Note_on_c, 0, 72, 0
2,64249, Note_on_c, 0, 53, 60
2,64255, Note_on_c, 0, 51, 0
2,64320, Note_on_c, 0, 75, 80
2,64325, Note_on_c, 0, 53, 0
2,64340, Note_on_c, 0, 73, 0
2,64341, Note_on_c, 0, 44, 58
2,64429, Note_on_c, 0, 77, 82
2,64440, Note_on_c, 0, 75, 0
2,64447, Note_on_c, 0, 56, 67
2,64476, Note_on_c, 0, 44, 0
2,64524, Note_on_c, 0, 56, 0
2,64525, Note_on_c, 0, 75, 79
2,64531, Note_on_c, 0, 54, 69
2,64535, Note_on_c, 0, 77, 0
2,64616, Note_on_c, 0, 75, 0
2,64625, Note_on_c, 0, 78, 80
2,64629, Note_on_c, 0, 54, 0
2,64629, Note_on_c, 0, 56, 75
2,64716, Note_on_c, 0, 56, 0
2,64720, Note_on_c, 0, 78, 0
2,64723, Note_on_c, 0, 77, 82
2,64742, Note_on_c, 0, 44, 66
2,64806, Note_on_c, 0, 44, 0
2,64827, Note_on_c, 0, 75, 84
2,64828, Note_on_c, 0, 77, 0
2,64838, Note_on_c, 0, 58, 75
2,64854, Control_c, 0, 64, 13
2,64870, Control_c, 0, 64, 30
2,64885, Control_c, 0, 64, 38
2,64901, Control_c, 0, 64, 41
2,64902, Note_on_c, 0, 75, 0
2,64907, Note_on_c, 0, 58, 0
2,64916, Control_c, 0, 64, 42
2,64937, Note_on_c, 0, 73, 81
2,64938, Note_on_c, 0, 44, 69
2,64962, Control_c, 0, 64, 44
2,64977, Control_c, 0, 64, 49
2,64984, Note_on_c, 0, 44, 0
2,64992, Control_c, 0, 64, 53
2,65007, Control_c, 0, 64, 56
2,65023, Control_c, 0, 64, 58
2,65038, Control_c, 0, 64, 59
2,65052, Note_on_c, 0, 60, 73
2,65055, Note_on_c, 0, 73, 0
2,65067, Note_on_c, 0, 82, 78
2,65068, Control_c, 0, 64, 58
2,65083, Control_c, 0, 64, 55
2,65098, Control_c, 0, 64, 51
2,65114, Control_c, 0, 64, 46
2,65129, Control_c, 0, 64, 42
2,65144, Control_c, 0, 64, 40
2,65167, Control_c, 0, 64, 42
2,65175, Note_on_c, 0, 80, 79
2,65175, Note_on_c, 0, 82, 0
2,65182, Control_c, 0, 64, 48
2,65197, Control_c, 0, 64, 53
2,65212, Control_c, 0, 64, 56
2,65225, Control_c, 0, 64, 58
2,65230, Note_on_c, 0, 80, 0
2,65231, Note_on_c, 0, 61, 68
2,65232, Note_on_c, 0, 60, 0
2,65241, Control_c, 0, 64, 58
2,65241, Note_on_c, 0, 79, 79
2,65287, Control_c, 0, 64, 57
2,65302, Control_c, 0, 64, 56
2,65305, Note_on_c, 0, 79, 0
2,65307, Note_on_c, 0, 80, 80
2,65318, Control_c, 0, 64, 54
2,65333, Control_c, 0, 64, 52
2,65348, Control_c, 0, 64, 51
2,65363, Control_c, 0, 64, 50
2,65363, Note_on_c, 0, 80, 0
2,65370, Note_on_c, 0, 63, 72
2,65377, Note_on_c, 0, 82, 76
2,65378, Control_c, 0, 64, 48
2,65380, Note_on_c, 0, 61, 0
2,65393, Control_c, 0, 64, 46
2,65408, Control_c, 0, 64, 45
2,65432, Note_on_c, 0, 80, 77
2,65434, Note_on_c, 0, 82, 0
2,65483, Note_on_c, 0, 80, 0
2,65491, Note_on_c, 0, 82, 69
2,65492, Note_on_c, 0, 63, 0
2,65497, Note_on_c, 0, 60, 72
2,65499, Control_c, 0, 64, 46
2,65530, Control_c, 0, 64, 46
2,65535, Note_on_c, 0, 82, 0
2,65547, Note_on_c, 0, 80, 66
2,65560, Control_c, 0, 64, 47
2,65582, Note_on_c, 0, 80, 0
2,65595, Note_on_c, 0, 82, 68
2,65612, Note_on_c, 0, 56, 71
2,65612, Note_on_c, 0, 60, 0
2,65636, Note_on_c, 0, 82, 0
2,65650, Note_on_c, 0, 80, 68
2,65684, Note_on_c, 0, 80, 0
2,65694, Note_on_c, 0, 82, 64
2,65712, Control_c, 0, 64, 47
2,65727, Note_on_c, 0, 60, 74
2,65730, Note_on_c, 0, 82, 0
2,65744, Note_on_c, 0, 80, 69
2,65749, Note_on_c, 0, 56, 0
2,65779, Note_on_c, 0, 80, 0
2,65790, Note_on_c, 0, 82, 73
2,65828, Note_on_c, 0, 63, 69
2,65832, Note_on_c, 0, 82, 0
2,65846, Note_on_c, 0, 80, 70
2,65864, Control_c, 0, 64, 48
2,65879, Note_on_c, 0, 80, 0
2,65880, Control_c, 0, 64, 48
2,65886, Note_on_c, 0, 60, 0
2,65889, Note_on_c, 0, 82, 67
2,65895, Control_c, 0, 64, 50
2,65911, Control_c, 0, 64, 54
2,65933, Control_c, 0, 64, 58
2,65934, Note_on_c, 0, 82, 0
2,65938, Note_on_c, 0, 65, 75
2,65944, Note_on_c, 0, 63, 0
2,65949, Control_c, 0, 64, 61
2,65951, Note_on_c, 0, 80, 64
2,65964, Control_c, 0, 64, 63
2,65979, Control_c, 0, 64, 65
2,65983, Note_on_c, 0, 80, 0
2,65994, Control_c, 0, 64, 67
2,65995, Note_on_c, 0, 82, 70
2,66009, Control_c, 0, 64, 69
2,66024, Control_c, 0, 64, 70
2,66035, Note_on_c, 0, 82, 0
2,66045, Note_on_c, 0, 66, 81
2,66045, Note_on_c, 0, 80, 67
2,66054, Control_c, 0, 64, 69
2,66057, Note_on_c, 0, 65, 0
2,66070, Control_c, 0, 64, 67
2,66073, Note_on_c, 0, 80, 0
2,66085, Control_c, 0, 64, 66
2,66100, Control_c, 0, 64, 63
2,66116, Control_c, 0, 64, 61
2,66131, Control_c, 0, 64, 57
2,66145, Control_c, 0, 64, 51
2,66152, Note_on_c, 0, 66, 0
2,66158, Note_on_c, 0, 80, 75
2,66161, Control_c, 0, 64, 42
2,66165, Note_on_c, 0, 65, 82
2,66176, Control_c, 0, 64, 31
2,66192, Control_c, 0, 64, 22
2,66207, Control_c, 0, 64, 17
2,66222, Control_c, 0, 64, 15
2,66265, Note_on_c, 0, 65, 0
2,66268, Note_on_c, 0, 63, 78
2,66268, Note_on_c, 0, 78, 80
2,66280, Note_on_c, 0, 80, 0
2,66343, Control_c, 0, 64, 16
2,66347, Note_on_c, 0, 63, 0
2,66359, Control_c, 0, 64, 17
2,66360, Note_on_c, 0, 65, 84
2,66366, Note_on_c, 0, 80, 84
2,66373, Control_c, 0, 64, 19
2,66389, Control_c, 0, 64, 20
2,66393, Note_on_c, 0, 78, 0
2,66404, Control_c, 0, 64, 21
2,66419, Control_c, 0, 64, 21
2,66442, Note_on_c, 0, 65, 0
2,66449, Control_c, 0, 64, 22
2,66480, Control_c, 0, 64, 23
2,66481, Note_on_c, 0, 77, 73
2,66485, Note_on_c, 0, 73, 83
2,66485, Note_on_c, 0, 80, 0
2,66516, Note_on_c, 0, 73, 0
2,66541, Note_on_c, 0, 77, 0
2,66557, Control_c, 0, 64, 23
2,66587, Note_on_c, 0, 80, 67
2,66702, Note_on_c, 0, 80, 0
2,66705, Note_on_c, 0, 75, 71
2,66709, Note_on_c, 0, 68, 83
2,66742, Note_on_c, 0, 68, 0
2,66803, Note_on_c, 0, 75, 0
2,66815, Note_on_c, 0, 80, 70
2,66898, Control_c, 0, 64, 24
2,66914, Control_c, 0, 64, 32
2,66929, Control_c, 0, 64, 47
2,66929, Note_on_c, 0, 73, 66
2,66933, Note_on_c, 0, 65, 81
2,66933, Note_on_c, 0, 80, 0
2,66944, Control_c, 0, 64, 58
2,66959, Control_c, 0, 64, 63
2,66974, Control_c, 0, 64, 70
2,66989, Note_on_c, 0, 65, 0
2,66990, Control_c, 0, 64, 81
2,67005, Control_c, 0, 64, 100
2,67020, Control_c, 0, 64, 127
2,67057, Note_on_c, 0, 80, 63
2,67067, Control_c, 0, 64, 119
2,67072, Note_on_c, 0, 73, 0
2,67081, Control_c, 0, 64, 110
2,67096, Control_c, 0, 64, 109
2,67127, Control_c, 0, 64, 107
2,67142, Control_c, 0, 64, 103
2,67148, Note_on_c, 0, 80, 0
2,67157, Control_c, 0, 64, 95
2,67172, Control_c, 0, 64, 85
2,67179, Note_on_c, 0, 63, 69
2,67179, Note_on_c, 0, 72, 68
2,67188, Control_c, 0, 64, 77
2,67203, Control_c, 0, 64, 70
2,67217, Control_c, 0, 64, 64
2,67233, Control_c, 0, 64, 59
2,67248, Control_c, 0, 64, 51
2,67263, Control_c, 0, 64, 43
2,67271, Note_on_c, 0, 72, 0
2,67277, Note_on_c, 0, 63, 0
2,67279, Control_c, 0, 64, 40
2,67279, Note_on_c, 0, 61, 68
2,67280, Note_on_c, 0, 70, 67
2,67294, Control_c, 0, 64, 37
2,67310, Control_c, 0, 64, 35
2,67325, Control_c, 0, 64, 34
2,67340, Control_c, 0, 64, 33
2,67357, Control_c, 0, 64, 32
2,67367, Note_on_c, 0, 70, 0
2,67396, Note_on_c, 0, 63, 66
2,67396, Note_on_c, 0, 72, 69
2,67397, Note_on_c, 0, 61, 0
2,67495, Note_on_c, 0, 56, 67
2,67500, Control_c, 0, 64, 33
2,67500, Note_on_c, 0, 72, 0
2,67504, Note_on_c, 0, 63, 0
2,67510, Note_on_c, 0, 75, 73
2,67547, Control_c, 0, 64, 33
2,67599, Note_on_c, 0, 60, 70
2,67602, Note_on_c, 0, 56, 0
2,67610, Note_on_c, 0, 77, 76
2,67625, Note_on_c, 0, 75, 0
2,67702, Note_on_c, 0, 63, 73
2,67702, Note_on_c, 0, 78, 78
2,67705, Note_on_c, 0, 77, 0
2,67708, Note_on_c, 0, 60, 0
2,67742, Control_c, 0, 64, 34
2,67794, Note_on_c, 0, 78, 0
2,67802, Note_on_c, 0, 63, 0
2,67812, Note_on_c, 0, 80, 68
2,67814, Note_on_c, 0, 65, 70
2,67834, Control_c, 0, 64, 34
2,67910, Note_on_c, 0, 78, 71
2,67916, Note_on_c, 0, 63, 72
2,67919, Note_on_c, 0, 65, 0
2,67925, Control_c, 0, 64, 35
2,67940, Note_on_c, 0, 80, 0
2,68002, Note_on_c, 0, 78, 0
2,68008, Note_on_c, 0, 77, 68
2,68016, Note_on_c, 0, 63, 0
2,68029, Note_on_c, 0, 61, 68
2,68081, Note_on_c, 0, 77, 0
2,68108, Note_on_c, 0, 80, 59
2,68118, Note_on_c, 0, 61, 0
2,68127, Note_on_c, 0, 63, 65
2,68199, Note_on_c, 0, 80, 0
2,68204, Note_on_c, 0, 63, 0
2,68228, Note_on_c, 0, 72, 71
2,68237, Note_on_c, 0, 75, 51
2,68267, Note_on_c, 0, 72, 0
2,68273, Note_on_c, 0, 75, 0
2,68335, Note_on_c, 0, 80, 57
2,68446, Note_on_c, 0, 80, 0
2,68458, Note_on_c, 0, 68, 75
2,68467, Note_on_c, 0, 73, 55
2,68486, Note_on_c, 0, 68, 0
2,68550, Note_on_c, 0, 73, 0
2,68570, Note_on_c, 0, 80, 59
2,68676, Note_on_c, 0, 80, 0
2,68685, Note_on_c, 0, 63, 66
2,68688, Note_on_c, 0, 72, 56
2,68692, Control_c, 0, 64, 41
2,68708, Control_c, 0, 64, 53
2,68723, Control_c, 0, 64, 60
2,68735, Note_on_c, 0, 63, 0
2,68738, Control_c, 0, 64, 64
2,68754, Control_c, 0, 64, 68
2,68768, Control_c, 0, 64, 74
2,68778, Note_on_c, 0, 72, 0
2,68783, Control_c, 0, 64, 81
2,68796, Note_on_c, 0, 80, 62
2,68799, Control_c, 0, 64, 87
2,68814, Control_c, 0, 64, 89
2,68859, Control_c, 0, 64, 89
2,68875, Control_c, 0, 64, 87
2,68890, Control_c, 0, 64, 85
2,68904, Control_c, 0, 64, 80
2,68920, Control_c, 0, 64, 74
2,68926, Note_on_c, 0, 61, 60
2,68932, Note_on_c, 0, 70, 60
2,68935, Control_c, 0, 64, 68
2,68951, Control_c, 0, 64, 63
2,68951, Note_on_c, 0, 80, 0
2,68966, Control_c, 0, 64, 58
2,68980, Control_c, 0, 64, 52
2,69005, Control_c, 0, 64, 48
2,69013, Note_on_c, 0, 61, 0
2,69019, Control_c, 0, 64, 46
2,69020, Note_on_c, 0, 70, 0
2,69035, Control_c, 0, 64, 45
2,69035, Note_on_c, 0, 68, 62
2,69040, Note_on_c, 0, 60, 62
2,69126, Note_on_c, 0, 60, 0
2,69133, Note_on_c, 0, 68, 0
2,69142, Note_on_c, 0, 70, 63
2,69144, Note_on_c, 0, 61, 56
2,69212, Note_on_c, 0, 61, 0
2,69234, Control_c, 0, 64, 45
2,69243, Note_on_c, 0, 56, 51
2,69243, Note_on_c, 0, 73, 65
2,69246, Note_on_c, 0, 70, 0
2,69339, Control_c, 0, 64, 44
2,69348, Note_on_c, 0, 75, 67
2,69353, Note_on_c, 0, 56, 0
2,69354, Note_on_c, 0, 60, 58
2,69373, Note_on_c, 0, 73, 0
2,69422, Note_on_c, 0, 75, 0
2,69435, Note_on_c, 0, 60, 0
2,69451, Note_on_c, 0, 77, 67
2,69476, Note_on_c, 0, 61, 48
2,69477, Control_c, 0, 64, 44
2,69545, Note_on_c, 0, 77, 0
2,69551, Note_on_c, 0, 61, 0
2,69558, Note_on_c, 0, 78, 66
2,69566, Note_on_c, 0, 63, 53
2,69628, Note_on_c, 0, 78, 0
2,69645, Note_on_c, 0, 63, 0
2,69667, Note_on_c, 0, 77, 63
2,69671, Note_on_c, 0, 61, 61
2,69748, Note_on_c, 0, 61, 0
2,69750, Note_on_c, 0, 77, 0
2,69778, Note_on_c, 0, 75, 63
2,69780, Note_on_c, 0, 60, 62
2,69844, Note_on_c, 0, 75, 0
2,69875, Note_on_c, 0, 60, 0
2,69883, Note_on_c, 0, 77, 64
2,69891, Note_on_c, 0, 61, 59
2,69940, Note_on_c, 0, 61, 0
2,69977, Note_on_c, 0, 77, 0
2,70001, Note_on_c, 0, 73, 51
2,70007, Note_on_c, 0, 70, 66
2,70038, Note_on_c, 0, 70, 0
2,70096, Note_on_c, 0, 73, 0
2,70101, Note_on_c, 0, 75, 55
2,70188, Note_on_c, 0, 75, 0
2,70228, Note_on_c, 0, 67, 66
2,70231, Note_on_c, 0, 72, 56
2,70255, Note_on_c, 0, 67, 0
2,70258, Control_c, 0, 64, 43
2,70313, Note_on_c, 0, 72, 0
2,70334, Note_on_c, 0, 75, 56
2,70380, Control_c, 0, 64, 43
2,70411, Control_c, 0, 64, 42
2,70442, Control_c, 0, 64, 43
2,70450, Note_on_c, 0, 75, 0
2,70454, Note_on_c, 0, 61, 52
2,70456, Control_c, 0, 64, 49
2,70472, Control_c, 0, 64, 58
2,70474, Note_on_c, 0, 70, 52
2,70487, Control_c, 0, 64, 63
2,70502, Control_c, 0, 64, 67
2,70517, Control_c, 0, 64, 75
2,70537, Note_on_c, 0, 61, 0
2,70539, Control_c, 0, 64, 87
2,70555, Control_c, 0, 64, 102
2,70570, Control_c, 0, 64, 110
2,70578, Note_on_c, 0, 70, 0
2,70585, Control_c, 0, 64, 110
2,70587, Note_on_c, 0, 75, 62
2,70601, Control_c, 0, 64, 107
2,70616, Control_c, 0, 64, 102
2,70631, Control_c, 0, 64, 98
2,70646, Control_c, 0, 64, 94
2,70662, Control_c, 0, 64, 88
2,70678, Control_c, 0, 64, 79
2,70692, Control_c, 0, 64, 68
2,70708, Control_c, 0, 64, 58
2,70708, Note_on_c, 0, 68, 56
2,70723, Control_c, 0, 64, 46
2,70723, Note_on_c, 0, 60, 54
2,70726, Note_on_c, 0, 75, 0
2,70738, Control_c, 0, 64, 38
2,70769, Control_c, 0, 64, 41
2,70769, Note_on_c, 0, 60, 0
2,70777, Note_on_c, 0, 68, 0
2,70783, Control_c, 0, 64, 48
2,70799, Control_c, 0, 64, 55
2,70805, Note_on_c, 0, 67, 64
2,70814, Control_c, 0, 64, 58
2,70823, Note_on_c, 0, 58, 54
2,70830, Control_c, 0, 64, 61
2,70845, Control_c, 0, 64, 64
2,70860, Control_c, 0, 64, 65
2,70875, Note_on_c, 0, 58, 0
2,70876, Control_c, 0, 64, 66
2,70885, Note_on_c, 0, 67, 0
2,70908, Note_on_c, 0, 68, 65
2,70921, Control_c, 0, 64, 66
2,70929, Note_on_c, 0, 60, 55
2,70936, Control_c, 0, 64, 65
2,70951, Control_c, 0, 64, 64
2,70966, Control_c, 0, 64, 63
2,70981, Control_c, 0, 64, 62
2,70987, Note_on_c, 0, 60, 0
2,70987, Note_on_c, 0, 68, 0
2,70997, Control_c, 0, 64, 60
2,71012, Control_c, 0, 64, 58
2,71022, Note_on_c, 0, 72, 73
2,71027, Control_c, 0, 64, 56
2,71029, Note_on_c, 0, 56, 53
2,71042, Control_c, 0, 64, 54
2,71057, Control_c, 0, 64, 50
2,71073, Control_c, 0, 64, 46
2,71088, Control_c, 0, 64, 42
2,71102, Control_c, 0, 64, 39
2,71118, Control_c, 0, 64, 38
2,71125, Note_on_c, 0, 72, 0
2,71128, Note_on_c, 0, 73, 72
2,71133, Control_c, 0, 64, 37
2,71141, Note_on_c, 0, 58, 62
2,71148, Control_c, 0, 64, 36
2,71162, Note_on_c, 0, 56, 0
2,71211, Note_on_c, 0, 58, 0
2,71222, Note_on_c, 0, 75, 75
2,71240, Note_on_c, 0, 60, 60
2,71243, Note_on_c, 0, 73, 0
2,71310, Note_on_c, 0, 75, 0
2,71324, Note_on_c, 0, 60, 0
2,71340, Note_on_c, 0, 61, 57
2,71340, Note_on_c, 0, 77, 76
2,71428, Note_on_c, 0, 61, 0
2,71438, Note_on_c, 0, 77, 0
2,71443, Note_on_c, 0, 78, 79
2,71446, Note_on_c, 0, 63, 58
2,71533, Note_on_c, 0, 63, 0
2,71542, Note_on_c, 0, 80, 79
2,71548, Note_on_c, 0, 65, 65
2,71549, Note_on_c, 0, 78, 0
2,71632, Note_on_c, 0, 65, 0
2,71646, Note_on_c, 0, 82, 79
2,71653, Note_on_c, 0, 63, 56
2,71675, Note_on_c, 0, 80, 0
2,71725, Note_on_c, 0, 82, 0
2,71738, Note_on_c, 0, 63, 0
2,71747, Note_on_c, 0, 72, 76
2,71766, Note_on_c, 0, 66, 57
2,71771, Note_on_c, 0, 72, 0
2,71836, Note_on_c, 0, 66, 0
2,71854, Note_on_c, 0, 65, 59
2,71935, Note_on_c, 0, 65, 0
2,71952, Note_on_c, 0, 63, 58
2,71968, Note_on_c, 0, 68, 75
2,71999, Note_on_c, 0, 68, 0
2,72044, Note_on_c, 0, 63, 0
2,72059, Note_on_c, 0, 61, 56
2,72157, Note_on_c, 0, 61, 0
2,72162, Note_on_c, 0, 66, 56
2,72194, Note_on_c, 0, 70, 73
2,72234, Note_on_c, 0, 66, 0
2,72294, Note_on_c, 0, 70, 0
2,72295, Note_on_c, 0, 68, 80
2,72382, Note_on_c, 0, 68, 0
2,72406, Note_on_c, 0, 66, 74
2,72409, Note_on_c, 0, 58, 61
2,72490, Note_on_c, 0, 66, 0
2,72494, Note_on_c, 0, 68, 82
2,72495, Note_on_c, 0, 58, 0
2,72498, Note_on_c, 0, 60, 71
2,72590, Note_on_c, 0, 60, 0
2,72600, Note_on_c, 0, 77, 83
2,72601, Note_on_c, 0, 61, 69
2,72606, Note_on_c, 0, 68, 0
2,72631, Note_on_c, 0, 77, 0
2,72687, Note_on_c, 0, 61, 0
2,72704, Note_on_c, 0, 60, 66
2,72730, Control_c, 0, 64, 37
2,72796, Note_on_c, 0, 60, 0
2,72807, Note_on_c, 0, 58, 64
2,72812, Note_on_c, 0, 73, 82
2,72850, Note_on_c, 0, 73, 0
2,72918, Note_on_c, 0, 58, 0
2,72924, Note_on_c, 0, 56, 60
2,72935, Control_c, 0, 64, 37
2,73028, Note_on_c, 0, 56, 0
2,73045, Note_on_c, 0, 58, 66
2,73048, Note_on_c, 0, 68, 79
2,73088, Control_c, 0, 64, 38
2,73180, Control_c, 0, 64, 38
2,73316, Note_on_c, 0, 66, 70
2,73319, Note_on_c, 0, 68, 0
2,73395, Note_on_c, 0, 66, 0
2,73405, Note_on_c, 0, 65, 76
2,73499, Note_on_c, 0, 65, 0
2,73504, Note_on_c, 0, 66, 74
2,73532, Note_on_c, 0, 66, 0
2,73544, Control_c, 0, 64, 38
2,73620, Note_on_c, 0, 58, 0
2,73628, Note_on_c, 0, 56, 60
2,73712, Note_on_c, 0, 56, 0
2,73721, Note_on_c, 0, 54, 61
2,73730, Note_on_c, 0, 75, 80
2,73760, Note_on_c, 0, 75, 0
2,73804, Note_on_c, 0, 54, 0
2,73822, Note_on_c, 0, 58, 63
2,73912, Note_on_c, 0, 58, 0
2,73922, Note_on_c, 0, 56, 62
2,73938, Note_on_c, 0, 65, 77
2,73969, Note_on_c, 0, 65, 0
2,74021, Note_on_c, 0, 56, 0
2,74038, Note_on_c, 0, 54, 56
2,74135, Note_on_c, 0, 54, 0
2,74152, Note_on_c, 0, 73, 75
2,74156, Note_on_c, 0, 53, 55
2,74193, Note_on_c, 0, 73, 0
2,74214, Note_on_c, 0, 53, 0
2,74254, Note_on_c, 0, 56, 56
2,74362, Note_on_c, 0, 56, 0
2,74379, Note_on_c, 0, 63, 68
2,74383, Note_on_c, 0, 54, 55
2,74416, Note_on_c, 0, 63, 0
2,74461, Note_on_c, 0, 54, 0
2,74483, Note_on_c, 0, 53, 52
2,74579, Note_on_c, 0, 53, 0
2,74600, Note_on_c, 0, 72, 66
2,74601, Note_on_c, 0, 54, 53
2,74645, Note_on_c, 0, 72, 0
2,74694, Note_on_c, 0, 54, 0
2,74713, Note_on_c, 0, 51, 53
2,74819, Note_on_c, 0, 51, 0
2,74868, Control_c, 0, 64, 42
2,74869, Note_on_c, 0, 53, 43
2,74874, Note_on_c, 0, 61, 55
2,74882, Control_c, 0, 64, 49
2,74897, Control_c, 0, 64, 57
2,74913, Control_c, 0, 64, 63
2,74920, Note_on_c, 0, 61, 0
2,74928, Control_c, 0, 64, 67
2,74943, Control_c, 0, 64, 72
2,74958, Control_c, 0, 64, 83
2,74973, Control_c, 0, 64, 95
2,74989, Control_c, 0, 64, 101
2,75004, Control_c, 0, 64, 100
2,75019, Control_c, 0, 64, 97
2,75035, Control_c, 0, 64, 93
2,75049, Control_c, 0, 64, 91
2,75064, Control_c, 0, 64, 91
2,75095, Control_c, 0, 64, 88
2,75110, Control_c, 0, 64, 84
2,75125, Control_c, 0, 64, 79
2,75132, Note_on_c, 0, 73, 59
2,75149, Control_c, 0, 64, 75
2,75164, Control_c, 0, 64, 71
2,75178, Control_c, 0, 64, 67
2,75183, Note_on_c, 0, 73, 0
2,75194, Control_c, 0, 64, 64
2,75209, Control_c, 0, 64, 62
2,75213, Note_on_c, 0, 53, 0
2,75224, Control_c, 0, 64, 59
2,75230, Note_on_c, 0, 72, 62
2,75240, Control_c, 0, 64, 56
2,75246, Note_on_c, 0, 56, 51
2,75254, Control_c, 0, 64, 52
2,75270, Control_c, 0, 64, 47
2,75285, Control_c, 0, 64, 43
2,75299, Control_c, 0, 64, 39
2,75315, Control_c, 0, 64, 38
2,75321, Note_on_c, 0, 72, 0
2,75330, Control_c, 0, 64, 38
2,75340, Note_on_c, 0, 73, 56
2,75345, Control_c, 0, 64, 37
2,75345, Note_on_c, 0, 56, 0
2,75349, Note_on_c, 0, 58, 56
2,75421, Note_on_c, 0, 58, 0
2,75440, Note_on_c, 0, 73, 0
2,75440, Note_on_c, 0, 75, 60
2,75447, Note_on_c, 0, 60, 61
2,75493, Note_on_c, 0, 75, 0
2,75528, Control_c, 0, 64, 37
2,75531, Note_on_c, 0, 60, 0
2,75545, Note_on_c, 0, 61, 60
2,75549, Note_on_c, 0, 77, 64
2,75575, Control_c, 0, 64, 38
2,75623, Note_on_c, 0, 77, 0
2,75646, Note_on_c, 0, 63, 65
2,75648, Note_on_c, 0, 78, 63
2,75651, Control_c, 0, 64, 38
2,75712, Control_c, 0, 64, 39
2,75746, Note_on_c, 0, 78, 0
2,75750, Note_on_c, 0, 65, 71
2,75752, Note_on_c, 0, 63, 0
2,75754, Note_on_c, 0, 61, 0
2,75757, Note_on_c, 0, 80, 61
2,75832, Note_on_c, 0, 80, 0
2,75843, Note_on_c, 0, 65, 0
2,75854, Note_on_c, 0, 63, 72
2,75854, Note_on_c, 0, 78, 69
2,75941, Note_on_c, 0, 78, 0
2,75946, Note_on_c, 0, 63, 0
2,75957, Note_on_c, 0, 61, 75
2,75961, Note_on_c, 0, 77, 65
2,76034, Note_on_c, 0, 77, 0
2,76046, Note_on_c, 0, 61, 0
2,76050, Note_on_c, 0, 63, 74
2,76052, Note_on_c, 0, 78, 69
2,76098, Control_c, 0, 64, 39
2,76134, Note_on_c, 0, 63, 0
2,76146, Note_on_c, 0, 78, 0
2,76156, Note_on_c, 0, 72, 80
2,76157, Note_on_c, 0, 80, 63
2,76167, Note_on_c, 0, 60, 62
2,76186, Note_on_c, 0, 72, 0
2,76220, Control_c, 0, 64, 39
2,76235, Control_c, 0, 64, 38
2,76250, Control_c, 0, 64, 36
2,76254, Note_on_c, 0, 80, 0
2,76265, Control_c, 0, 64, 32
2,76271, Note_on_c, 0, 78, 64
2,76281, Control_c, 0, 64, 26
2,76296, Control_c, 0, 64, 13
2,76312, Control_c, 0, 64, 0
2,76353, Note_on_c, 0, 78, 0
2,76383, Note_on_c, 0, 68, 76
2,76384, Note_on_c, 0, 77, 65
2,76418, Note_on_c, 0, 68, 0
2,76477, Note_on_c, 0, 77, 0
2,76489, Note_on_c, 0, 75, 63
2,76615, Note_on_c, 0, 77, 72
2,76620, Note_on_c, 0, 75, 0
2,76621, Note_on_c, 0, 63, 72
2,76743, Note_on_c, 0, 60, 0
2,76898, Note_on_c, 0, 63, 0
2,76905, Note_on_c, 0, 61, 65
2,76984, Note_on_c, 0, 61, 0
2,76994, Note_on_c, 0, 60, 70
2,77095, Note_on_c, 0, 58, 55
2,77096, Note_on_c, 0, 61, 74
2,77098, Note_on_c, 0, 60, 0
2,77150, Note_on_c, 0, 61, 0
2,77217, Note_on_c, 0, 75, 57
2,77217, Note_on_c, 0, 77, 0
2,77314, Note_on_c, 0, 70, 74
2,77315, Note_on_c, 0, 73, 63
2,77336, Note_on_c, 0, 75, 0
2,77339, Note_on_c, 0, 70, 0
2,77398, Note_on_c, 0, 73, 0
2,77417, Note_on_c, 0, 77, 63
2,77516, Note_on_c, 0, 58, 0
2,77537, Note_on_c, 0, 77, 0
2,77539, Note_on_c, 0, 60, 71
2,77544, Note_on_c, 0, 75, 61
2,77577, Note_on_c, 0, 60, 0
2,77631, Note_on_c, 0, 73, 64
2,77633, Note_on_c, 0, 75, 0
2,77717, Note_on_c, 0, 73, 0
2,77749, Note_on_c, 0, 72, 63
2,77750, Note_on_c, 0, 68, 77
2,77757, Note_on_c, 0, 56, 62
2,77777, Note_on_c, 0, 68, 0
2,77801, Note_on_c, 0, 56, 0
2,77835, Note_on_c, 0, 72, 0
2,77851, Note_on_c, 0, 75, 67
2,77948, Note_on_c, 0, 75, 0
2,77957, Note_on_c, 0, 73, 67
2,77970, Note_on_c, 0, 58, 66
2,78005, Note_on_c, 0, 58, 0
2,78053, Note_on_c, 0, 72, 71
2,78064, Note_on_c, 0, 73, 0
2,78122, Note_on_c, 0, 72, 0
2,78168, Note_on_c, 0, 67, 58
2,78171, Note_on_c, 0, 73, 65
2,78179, Note_on_c, 0, 51, 63
2,78216, Note_on_c, 0, 67, 0
2,78223, Note_on_c, 0, 51, 0
2,78261, Note_on_c, 0, 73, 0
2,78274, Note_on_c, 0, 70, 62
2,78388, Note_on_c, 0, 70, 0
2,78399, Note_on_c, 0, 72, 65
2,78412, Note_on_c, 0, 56, 49
2,78429, Note_on_c, 0, 72, 0
2,78625, Note_on_c, 0, 68, 44
2,78628, Note_on_c, 0, 75, 69
2,78662, Note_on_c, 0, 75, 0
2,78684, Note_on_c, 0, 68, 0
2,78714, Note_on_c, 0, 66, 55
2,78823, Note_on_c, 0, 66, 0
2,78847, Note_on_c, 0, 78, 72
2,78849, Note_on_c, 0, 68, 55
2,78885, Note_on_c, 0, 68, 0
2,78904, Note_on_c, 0, 56, 0
2,78953, Note_on_c, 0, 70, 48
2,79070, Note_on_c, 0, 56, 67
2,79070, Note_on_c, 0, 70, 0
2,79073, Note_on_c, 0, 72, 60
2,79098, Note_on_c, 0, 56, 0
2,79127, Note_on_c, 0, 72, 0
2,79174, Note_on_c, 0, 68, 57
2,79281, Note_on_c, 0, 68, 0
2,79285, Note_on_c, 0, 58, 67
2,79289, Note_on_c, 0, 73, 58
2,79372, Note_on_c, 0, 58, 0
2,79375, Note_on_c, 0, 56, 71
2,79376, Note_on_c, 0, 72, 66
2,79381, Note_on_c, 0, 73, 0
2,79464, Note_on_c, 0, 72, 0
2,79473, Note_on_c, 0, 56, 0
2,79477, Note_on_c, 0, 54, 77
2,79490, Note_on_c, 0, 70, 61
2,79546, Note_on_c, 0, 70, 0
2,79558, Note_on_c, 0, 78, 0
2,79568, Note_on_c, 0, 72, 74
2,79570, Note_on_c, 0, 56, 78
2,79574, Note_on_c, 0, 54, 0
2,79635, Note_on_c, 0, 56, 0
2,79652, Note_on_c, 0, 72, 0
2,79687, Note_on_c, 0, 65, 73
2,79690, Note_on_c, 0, 73, 62
2,79690, Note_on_c, 0, 77, 74
2,79718, Note_on_c, 0, 65, 0
2,79737, Note_on_c, 0, 73, 0
2,79795, Note_on_c, 0, 72, 64
2,79868, Note_on_c, 0, 72, 0
2,79906, Note_on_c, 0, 61, 79
2,79925, Note_on_c, 0, 70, 63
2,79936, Note_on_c, 0, 61, 0
2,80007, Note_on_c, 0, 70, 0
2,80026, Note_on_c, 0, 68, 66
2,80151, Note_on_c, 0, 68, 0
2,80153, Note_on_c, 0, 56, 75
2,80158, Note_on_c, 0, 70, 67
2,80415, Note_on_c, 0, 56, 0
2,80419, Note_on_c, 0, 54, 67
2,80509, Note_on_c, 0, 54, 0
2,80512, Note_on_c, 0, 53, 75
2,80602, Note_on_c, 0, 77, 0
2,80618, Note_on_c, 0, 53, 0
2,80618, Note_on_c, 0, 54, 78
2,80629, Note_on_c, 0, 75, 71
2,80649, Note_on_c, 0, 54, 0
2,80649, Note_on_c, 0, 70, 0
2,80747, Note_on_c, 0, 68, 55
2,80831, Note_on_c, 0, 63, 75
2,80833, Note_on_c, 0, 68, 0
2,80840, Note_on_c, 0, 66, 64
2,80856, Note_on_c, 0, 63, 0
2,80937, Note_on_c, 0, 70, 61
2,80949, Note_on_c, 0, 66, 0
2,81044, Note_on_c, 0, 53, 76
2,81052, Note_on_c, 0, 68, 66
2,81065, Note_on_c, 0, 75, 0
2,81078, Note_on_c, 0, 53, 0
2,81114, Note_on_c, 0, 70, 0
2,81135, Note_on_c, 0, 68, 0
2,81152, Note_on_c, 0, 66, 62
2,81213, Note_on_c, 0, 66, 0
2,81249, Note_on_c, 0, 61, 76
2,81252, Note_on_c, 0, 73, 77
2,81258, Note_on_c, 0, 65, 62
2,81275, Note_on_c, 0, 61, 0
2,81301, Note_on_c, 0, 65, 0
2,81325, Note_on_c, 0, 73, 0
2,81356, Note_on_c, 0, 68, 65
2,81399, Note_on_c, 0, 68, 0
2,81463, Note_on_c, 0, 51, 61
2,81469, Note_on_c, 0, 72, 68
2,81478, Note_on_c, 0, 66, 51
2,81503, Note_on_c, 0, 51, 0
2,81516, Note_on_c, 0, 66, 0
2,81535, Note_on_c, 0, 72, 0
2,81563, Note_on_c, 0, 65, 57
2,81651, Note_on_c, 0, 65, 0
2,81681, Note_on_c, 0, 60, 52
2,81684, Note_on_c, 0, 75, 70
2,81702, Note_on_c, 0, 66, 49
2,81716, Note_on_c, 0, 60, 0
2,81785, Note_on_c, 0, 66, 0
2,81797, Note_on_c, 0, 63, 54
2,81853, Note_on_c, 0, 63, 0
2,81951, Note_on_c, 0, 65, 56
2,81964, Note_on_c, 0, 49, 42
2,82077, Note_on_c, 0, 49, 0
2,82084, Note_on_c, 0, 44, 51
2,82202, Note_on_c, 0, 68, 72
2,82213, Note_on_c, 0, 75, 0
2,82214, Note_on_c, 0, 49, 54
2,82216, Note_on_c, 0, 44, 0
2,82272, Note_on_c, 0, 68, 0
2,82321, Note_on_c, 0, 51, 70
2,82354, Note_on_c, 0, 49, 0
2,82428, Note_on_c, 0, 51, 0
2,82436, Note_on_c, 0, 73, 78
2,82447, Note_on_c, 0, 53, 63
2,82563, Note_on_c, 0, 53, 0
2,82563, Note_on_c, 0, 54, 65
2,82646, Note_on_c, 0, 71, 77
2,82665, Note_on_c, 0, 73, 0
2,82677, Note_on_c, 0, 56, 63
2,82685, Note_on_c, 0, 54, 0
2,82703, Note_on_c, 0, 71, 0
2,82750, Note_on_c, 0, 56, 0
2,82759, Note_on_c, 0, 53, 64
2,82838, Note_on_c, 0, 53, 0
2,82869, Note_on_c, 0, 70, 75
2,82871, Note_on_c, 0, 65, 0
2,82886, Note_on_c, 0, 54, 57
2,82982, Note_on_c, 0, 54, 0
2,82991, Note_on_c, 0, 42, 58
2,83050, Note_on_c, 0, 42, 0
2,83101, Note_on_c, 0, 61, 62
2,83109, Note_on_c, 0, 54, 53
2,83144, Note_on_c, 0, 61, 0
2,83209, Note_on_c, 0, 54, 0
2,83212, Note_on_c, 0, 53, 54
2,83290, Note_on_c, 0, 53, 0
2,83321, Note_on_c, 0, 66, 64
2,83333, Note_on_c, 0, 54, 59
2,83422, Note_on_c, 0, 54, 0
2,83434, Note_on_c, 0, 56, 57
2,83538, Note_on_c, 0, 56, 0
2,83539, Note_on_c, 0, 58, 64
2,83539, Note_on_c, 0, 65, 66
2,83560, Note_on_c, 0, 66, 0
2,83616, Note_on_c, 0, 65, 0
2,83654, Note_on_c, 0, 58, 0
2,83656, Note_on_c, 0, 54, 62
2,83767, Note_on_c, 0, 54, 0
2,83768, Note_on_c, 0, 51, 55
2,83786, Note_on_c, 0, 66, 71
2,83825, Note_on_c, 0, 70, 0
2,83901, Note_on_c, 0, 53, 67
2,83921, Note_on_c, 0, 51, 0
2,84015, Note_on_c, 0, 70, 76
2,84017, Note_on_c, 0, 54, 63
2,84021, Note_on_c, 0, 66, 0
2,84022, Note_on_c, 0, 53, 0
2,84108, Note_on_c, 0, 66, 75
2,84125, Note_on_c, 0, 51, 67
2,84132, Note_on_c, 0, 54, 0
2,84157, Note_on_c, 0, 70, 0
2,84211, Note_on_c, 0, 51, 0
2,84216, Note_on_c, 0, 63, 76
2,84227, Note_on_c, 0, 48, 61
2,84232, Note_on_c, 0, 66, 0
2,84318, Note_on_c, 0, 49, 67
2,84323, Note_on_c, 0, 48, 0
2,84431, Note_on_c, 0, 51, 69
2,84433, Note_on_c, 0, 63, 0
2,84437, Note_on_c, 0, 49, 0
2,84438, Note_on_c, 0, 66, 76
2,84525, Note_on_c, 0, 63, 81
2,84536, Note_on_c, 0, 48, 63
2,84542, Note_on_c, 0, 51, 0
2,84558, Note_on_c, 0, 66, 0
2,84619, Note_on_c, 0, 48, 0
2,84633, Note_on_c, 0, 41, 65
2,84633, Note_on_c, 0, 63, 0
2,84643, Note_on_c, 0, 56, 77
2,84680, Note_on_c, 0, 41, 0
2,84871, Note_on_c, 0, 63, 71
2,84874, Note_on_c, 0, 53, 61
2,84907, Note_on_c, 0, 63, 0
2,84932, Note_on_c, 0, 53, 0
2,84960, Note_on_c, 0, 51, 70
2,85070, Note_on_c, 0, 56, 0
2,85079, Note_on_c, 0, 51, 0
2,85090, Note_on_c, 0, 68, 78
2,85112, Note_on_c, 0, 53, 53
2,85188, Note_on_c, 0, 53, 0
2,85206, Note_on_c, 0, 54, 58
2,85324, Note_on_c, 0, 60, 67
2,85326, Note_on_c, 0, 56, 57
2,85327, Note_on_c, 0, 54, 0
2,85362, Note_on_c, 0, 60, 0
2,85400, Note_on_c, 0, 56, 0
2,85426, Note_on_c, 0, 53, 51
2,85554, Note_on_c, 0, 50, 48
2,85557, Note_on_c, 0, 53, 0
2,85572, Note_on_c, 0, 65, 61
2,85591, Note_on_c, 0, 68, 0
2,85661, Note_on_c, 0, 51, 57
2,85674, Note_on_c, 0, 50, 0
2,85767, Note_on_c, 0, 51, 0
2,85775, Note_on_c, 0, 65, 0
2,85792, Note_on_c, 0, 53, 51
2,85792, Note_on_c, 0, 68, 63
2,85874, Note_on_c, 0, 65, 69
2,85877, Note_on_c, 0, 68, 0
2,85883, Note_on_c, 0, 53, 0
2,85915, Note_on_c, 0, 50, 41
2,85973, Note_on_c, 0, 50, 0
2,85990, Note_on_c, 0, 62, 65
2,85990, Note_on_c, 0, 65, 0
2,85997, Note_on_c, 0, 46, 57
2,86086, Note_on_c, 0, 46, 0
2,86097, Note_on_c, 0, 48, 52
2,86164, Note_on_c, 0, 62, 0
2,86182, Note_on_c, 0, 48, 0
2,86195, Note_on_c, 0, 50, 55
2,86205, Note_on_c, 0, 65, 63
2,86278, Note_on_c, 0, 50, 0
2,86291, Note_on_c, 0, 62, 66
2,86293, Note_on_c, 0, 46, 49
2,86293, Note_on_c, 0, 65, 0
2,86382, Note_on_c, 0, 46, 0
2,86388, Note_on_c, 0, 62, 0
2,86412, Note_on_c, 0, 39, 49
2,86414, Note_on_c, 0, 54, 65
2,86449, Note_on_c, 0, 39, 0
2,86635, Note_on_c, 0, 58, 60
2,86638, Note_on_c, 0, 51, 55
2,86683, Note_on_c, 0, 58, 0
2,86734, Note_on_c, 0, 51, 0
2,86745, Note_on_c, 0, 50, 60
2,86852, Note_on_c, 0, 50, 0
2,86858, Note_on_c, 0, 54, 0
2,86863, Note_on_c, 0, 51, 61
2,86871, Note_on_c, 0, 66, 65
2,86953, Note_on_c, 0, 51, 0
2,86959, Note_on_c, 0, 53, 66
2,87072, Note_on_c, 0, 54, 67
2,87076, Note_on_c, 0, 53, 0
2,87086, Note_on_c, 0, 58, 63
2,87135, Note_on_c, 0, 58, 0
2,87176, Note_on_c, 0, 51, 67
2,87195, Note_on_c, 0, 54, 0
2,87278, Note_on_c, 0, 51, 0
2,87281, Note_on_c, 0, 63, 68
2,87283, Note_on_c, 0, 48, 62
2,87323, Note_on_c, 0, 66, 0
2,87383, Note_on_c, 0, 65, 76
2,87391, Note_on_c, 0, 49, 66
2,87394, Note_on_c, 0, 48, 0
2,87400, Note_on_c, 0, 63, 0
2,87494, Note_on_c, 0, 49, 0
2,87497, Note_on_c, 0, 51, 68
2,87502, Note_on_c, 0, 66, 76
2,87511, Note_on_c, 0, 65, 0
2,87573, Note_on_c, 0, 66, 0
2,87600, Note_on_c, 0, 63, 75
2,87612, Note_on_c, 0, 48, 61
2,87614, Note_on_c, 0, 51, 0
2,87727, Note_on_c, 0, 48, 0
2,87730, Note_on_c, 0, 75, 86
2,87735, Note_on_c, 0, 44, 61
2,87773, Note_on_c, 0, 63, 0
2,87854, Note_on_c, 0, 66, 74
2,87859, Note_on_c, 0, 46, 64
2,87872, Note_on_c, 0, 44, 0
2,87962, Note_on_c, 0, 48, 62
2,87965, Note_on_c, 0, 66, 0
2,87965, Note_on_c, 0, 68, 76
2,87967, Note_on_c, 0, 46, 0
2,88049, Note_on_c, 0, 68, 0
2,88050, Note_on_c, 0, 44, 65
2,88055, Note_on_c, 0, 48, 0
2,88064, Note_on_c, 0, 63, 76
2,88148, Note_on_c, 0, 63, 0
2,88192, Note_on_c, 0, 44, 0
2,88195, Note_on_c, 0, 37, 59
2,88217, Note_on_c, 0, 65, 76
2,88286, Note_on_c, 0, 37, 0
2,88317, Note_on_c, 0, 73, 77
2,88346, Note_on_c, 0, 75, 0
2,88419, Note_on_c, 0, 72, 80
2,88437, Note_on_c, 0, 49, 67
2,88442, Note_on_c, 0, 73, 0
2,88506, Note_on_c, 0, 65, 0
2,88521, Note_on_c, 0, 75, 89
2,88535, Note_on_c, 0, 72, 0
2,88536, Note_on_c, 0, 51, 71
2,88548, Note_on_c, 0, 49, 0
2,88621, Note_on_c, 0, 51, 0
2,88629, Note_on_c, 0, 73, 79
2,88632, Note_on_c, 0, 53, 73
2,88650, Note_on_c, 0, 75, 0
2,88666, Note_on_c, 0, 53, 0
2,88705, Note_on_c, 0, 73, 0
2,88729, Note_on_c, 0, 68, 80
2,88837, Note_on_c, 0, 70, 78
2,88840, Note_on_c, 0, 49, 59
2,88841, Note_on_c, 0, 61, 76
2,88846, Note_on_c, 0, 68, 0
2,88882, Note_on_c, 0, 49, 0
2,88913, Note_on_c, 0, 70, 0
2,88939, Note_on_c, 0, 71, 81
2,89048, Note_on_c, 0, 70, 80
2,89057, Note_on_c, 0, 54, 59
2,89084, Note_on_c, 0, 71, 0
2,89095, Note_on_c, 0, 61, 0
2,89155, Note_on_c, 0, 68, 80
2,89158, Note_on_c, 0, 60, 62
2,89162, Note_on_c, 0, 70, 0
2,89238, Note_on_c, 0, 58, 71
2,89240, Note_on_c, 0, 60, 0
2,89246, Note_on_c, 0, 68, 0
2,89255, Note_on_c, 0, 66, 78
2,89317, Note_on_c, 0, 58, 0
2,89331, Note_on_c, 0, 60, 71
2,89346, Note_on_c, 0, 68, 88
2,89347, Note_on_c, 0, 66, 0
2,89438, Note_on_c, 0, 61, 70
2,89443, Note_on_c, 0, 60, 0
2,89449, Note_on_c, 0, 77, 87
2,89453, Note_on_c, 0, 54, 0
2,89462, Note_on_c, 0, 53, 58
2,89464, Note_on_c, 0, 68, 0
2,89495, Note_on_c, 0, 77, 0
2,89512, Note_on_c, 0, 61, 0
2,89552, Note_on_c, 0, 60, 74
2,89657, Note_on_c, 0, 60, 0
2,89665, Note_on_c, 0, 73, 86
2,89666, Note_on_c, 0, 58, 64
2,89713, Note_on_c, 0, 73, 0
2,89726, Note_on_c, 0, 53, 0
2,89785, Note_on_c, 0, 56, 72
2,89795, Note_on_c, 0, 58, 0
2,89894, Note_on_c, 0, 56, 0
2,89905, Note_on_c, 0, 68, 87
2,89909, Note_on_c, 0, 58, 73
2,89917, Note_on_c, 0, 51, 69
2,89965, Note_on_c, 0, 51, 0
2,90163, Note_on_c, 0, 49, 60
2,90163, Note_on_c, 0, 66, 76
2,90175, Note_on_c, 0, 68, 0
2,90211, Note_on_c, 0, 49, 0
2,90253, Note_on_c, 0, 66, 0
2,90255, Note_on_c, 0, 65, 77
2,90359, Note_on_c, 0, 65, 0
2,90361, Note_on_c, 0, 66, 74
2,90374, Note_on_c, 0, 48, 61
2,90387, Note_on_c, 0, 66, 0
2,90459, Note_on_c, 0, 58, 0
2,90472, Note_on_c, 0, 56, 62
2,90583, Note_on_c, 0, 75, 77
2,90589, Note_on_c, 0, 56, 0
2,90594, Note_on_c, 0, 54, 62
2,90619, Note_on_c, 0, 75, 0
2,90646, Note_on_c, 0, 48, 0
2,90709, Note_on_c, 0, 56, 59
2,90799, Note_on_c, 0, 49, 61
2,90802, Note_on_c, 0, 54, 0
2,90806, Note_on_c, 0, 65, 76
2,90817, Note_on_c, 0, 56, 0
2,90833, Note_on_c, 0, 55, 47
2,90842, Note_on_c, 0, 65, 0
2,90883, Note_on_c, 0, 55, 0
2,90961, Note_on_c, 0, 53, 53
2,91026, Control_c, 0, 64, 9
2,91040, Note_on_c, 0, 73, 81
2,91041, Control_c, 0, 64, 33
2,91056, Control_c, 0, 64, 41
2,91072, Control_c, 0, 64, 46
2,91078, Note_on_c, 0, 53, 0
2,91087, Control_c, 0, 64, 50
2,91089, Note_on_c, 0, 73, 0
2,91094, Note_on_c, 0, 49, 0
2,91103, Control_c, 0, 64, 54
2,91118, Control_c, 0, 64, 57
2,91133, Control_c, 0, 64, 59
2,91148, Control_c, 0, 64, 60
2,91163, Control_c, 0, 64, 62
2,91178, Control_c, 0, 64, 63
2,91225, Control_c, 0, 64, 61
2,91240, Control_c, 0, 64, 58
2,91255, Control_c, 0, 64, 53
2,91257, Note_on_c, 0, 63, 74
2,91258, Note_on_c, 0, 44, 43
2,91262, Note_on_c, 0, 54, 47
2,91277, Control_c, 0, 64, 48
2,91292, Control_c, 0, 64, 42
2,91301, Note_on_c, 0, 63, 0
2,91308, Control_c, 0, 64, 35
2,91323, Control_c, 0, 64, 29
2,91325, Note_on_c, 0, 54, 0
2,91338, Control_c, 0, 64, 28
2,91368, Note_on_c, 0, 54, 44
2,91384, Control_c, 0, 64, 27
2,91399, Control_c, 0, 64, 25
2,91413, Control_c, 0, 64, 24
2,91444, Control_c, 0, 64, 30
2,91456, Note_on_c, 0, 54, 0
2,91459, Control_c, 0, 64, 42
2,91466, Note_on_c, 0, 53, 60
2,91475, Control_c, 0, 64, 51
2,91487, Control_c, 0, 64, 55
2,91491, Note_on_c, 0, 72, 77
2,91502, Control_c, 0, 64, 59
2,91518, Control_c, 0, 64, 61
2,91526, Note_on_c, 0, 72, 0
2,91533, Control_c, 0, 64, 63
2,91549, Control_c, 0, 64, 63
2,91563, Control_c, 0, 64, 64
2,91568, Note_on_c, 0, 51, 61
2,91576, Note_on_c, 0, 53, 0
2,91578, Control_c, 0, 64, 65
2,91583, Note_on_c, 0, 44, 0
2,91608, Control_c, 0, 64, 65
2,91654, Control_c, 0, 64, 65
2,91670, Control_c, 0, 64, 64
2,91684, Control_c, 0, 64, 62
2,91699, Control_c, 0, 64, 58
2,91709, Note_on_c, 0, 51, 0
2,91715, Control_c, 0, 64, 51
2,91730, Control_c, 0, 64, 42
2,91731, Note_on_c, 0, 53, 66
2,91731, Note_on_c, 0, 61, 72
2,91733, Note_on_c, 0, 46, 63
2,91745, Control_c, 0, 64, 31
2,91760, Control_c, 0, 64, 30
2,91775, Control_c, 0, 64, 41
2,91791, Control_c, 0, 64, 54
2,91806, Control_c, 0, 64, 60
2,91811, Note_on_c, 0, 46, 0
2,91821, Control_c, 0, 64, 63
2,91837, Control_c, 0, 64, 65
2,91851, Note_on_c, 0, 61, 0
2,91852, Control_c, 0, 64, 67
2,91866, Note_on_c, 0, 53, 0
2,91868, Control_c, 0, 64, 68
2,91882, Control_c, 0, 64, 68
2,91897, Control_c, 0, 64, 68
2,91908, Note_on_c, 0, 65, 70
2,91912, Note_on_c, 0, 56, 65
2,91913, Control_c, 0, 64, 67
2,91928, Control_c, 0, 64, 66
2,91943, Control_c, 0, 64, 65
2,91959, Control_c, 0, 64, 65
2,91974, Control_c, 0, 64, 64
2,91990, Control_c, 0, 64, 62
2,92005, Control_c, 0, 64, 61
2,92017, Note_on_c, 0, 58, 72
2,92019, Note_on_c, 0, 66, 73
2,92020, Control_c, 0, 64, 59
2,92025, Note_on_c, 0, 65, 0
2,92042, Control_c, 0, 64, 58
2,92057, Control_c, 0, 64, 58
2,92057, Note_on_c, 0, 56, 0
2,92088, Control_c, 0, 64, 57
2,92103, Control_c, 0, 64, 56
2,92118, Control_c, 0, 64, 56
2,92126, Note_on_c, 0, 58, 0
2,92126, Note_on_c, 0, 68, 82
2,92133, Control_c, 0, 64, 55
2,92133, Note_on_c, 0, 60, 73
2,92150, Control_c, 0, 64, 54
2,92152, Note_on_c, 0, 66, 0
2,92165, Control_c, 0, 64, 53
2,92180, Control_c, 0, 64, 52
2,92195, Control_c, 0, 64, 51
2,92210, Control_c, 0, 64, 51
2,92236, Note_on_c, 0, 70, 74
2,92239, Note_on_c, 0, 61, 71
2,92248, Note_on_c, 0, 60, 0
2,92273, Note_on_c, 0, 68, 0
2,92286, Control_c, 0, 64, 50
2,92302, Note_on_c, 0, 70, 0
2,92333, Note_on_c, 0, 72, 79
2,92334, Note_on_c, 0, 61, 0
2,92348, Note_on_c, 0, 60, 72
2,92439, Note_on_c, 0, 73, 79
2,92440, Note_on_c, 0, 58, 74
2,92444, Note_on_c, 0, 60, 0
2,92469, Note_on_c, 0, 72, 0
2,92529, Control_c, 0, 64, 51
2,92543, Note_on_c, 0, 75, 81
2,92550, Note_on_c, 0, 56, 70
2,92553, Note_on_c, 0, 58, 0
2,92559, Note_on_c, 0, 73, 0
2,92575, Control_c, 0, 64, 50
2,92605, Control_c, 0, 64, 50
2,92620, Control_c, 0, 64, 48
2,92636, Control_c, 0, 64, 46
2,92650, Control_c, 0, 64, 43
2,92651, Note_on_c, 0, 75, 0
2,92660, Note_on_c, 0, 76, 77
2,92665, Control_c, 0, 64, 38
2,92677, Note_on_c, 0, 55, 70
2,92681, Control_c, 0, 64, 30
2,92685, Note_on_c, 0, 56, 0
2,92696, Control_c, 0, 64, 19
2,92712, Control_c, 0, 64, 9
2,92726, Control_c, 0, 64, 0
2,92771, Note_on_c, 0, 75, 78
2,92789, Control_c, 0, 64, 12
2,92798, Note_on_c, 0, 55, 0
2,92801, Note_on_c, 0, 56, 69
2,92812, Control_c, 0, 64, 24
2,92823, Note_on_c, 0, 76, 0
2,92828, Control_c, 0, 64, 37
2,92842, Control_c, 0, 64, 49
2,92857, Control_c, 0, 64, 57
2,92873, Control_c, 0, 64, 63
2,92887, Control_c, 0, 64, 67
2,92887, Note_on_c, 0, 73, 82
2,92897, Note_on_c, 0, 56, 0
2,92900, Note_on_c, 0, 75, 0
2,92902, Control_c, 0, 64, 73
2,92903, Note_on_c, 0, 58, 69
2,92918, Control_c, 0, 64, 78
2,92933, Control_c, 0, 64, 79
2,92949, Control_c, 0, 64, 78
2,92963, Control_c, 0, 64, 77
2,92978, Control_c, 0, 64, 76
2,92980, Note_on_c, 0, 55, 73
2,92980, Note_on_c, 0, 58, 0
2,92989, Note_on_c, 0, 75, 89
2,92994, Control_c, 0, 64, 76
2,93008, Note_on_c, 0, 73, 0
2,93015, Note_on_c, 0, 55, 0
2,93024, Control_c, 0, 64, 75
2,93039, Control_c, 0, 64, 74
2,93054, Control_c, 0, 64, 72
2,93062, Note_on_c, 0, 75, 0
2,93070, Control_c, 0, 64, 70
2,93085, Control_c, 0, 64, 67
2,93096, Note_on_c, 0, 76, 81
2,93099, Control_c, 0, 64, 64
2,93102, Note_on_c, 0, 51, 70
2,93115, Control_c, 0, 64, 62
2,93130, Control_c, 0, 64, 59
2,93145, Control_c, 0, 64, 52
2,93161, Control_c, 0, 64, 44
2,93176, Control_c, 0, 64, 35
2,93192, Control_c, 0, 64, 29
2,93200, Note_on_c, 0, 79, 84
2,93206, Control_c, 0, 64, 27
2,93208, Note_on_c, 0, 49, 63
2,93221, Control_c, 0, 64, 26
2,93283, Control_c, 0, 64, 27
2,93297, Control_c, 0, 64, 27
2,93309, Note_on_c, 0, 80, 85
2,93313, Control_c, 0, 64, 28
2,93317, Note_on_c, 0, 48, 70
2,93329, Note_on_c, 0, 79, 0
2,93367, Note_on_c, 0, 76, 0
2,93409, Note_on_c, 0, 49, 0
2,93413, Note_on_c, 0, 82, 84
2,93431, Note_on_c, 0, 46, 69
2,93431, Note_on_c, 0, 80, 0
2,93441, Note_on_c, 0, 48, 0
2,93557, Note_on_c, 0, 51, 0
2,93560, Note_on_c, 0, 73, 79
2,93577, Note_on_c, 0, 44, 66
2,93586, Note_on_c, 0, 46, 0
2,93597, Note_on_c, 0, 82, 0
2,93701, Note_on_c, 0, 72, 80
2,93703, Note_on_c, 0, 51, 68
2,93705, Note_on_c, 0, 73, 0
2,93731, Control_c, 0, 64, 28
2,93789, Note_on_c, 0, 44, 0
2,93809, Note_on_c, 0, 51, 0
2,93809, Note_on_c, 0, 53, 71
2,93822, Control_c, 0, 64, 29
2,93822, Note_on_c, 0, 70, 84
2,93842, Note_on_c, 0, 72, 0
2,93913, Note_on_c, 0, 54, 80
2,93914, Note_on_c, 0, 68, 85
2,93920, Note_on_c, 0, 53, 0
2,93953, Note_on_c, 0, 70, 0
2,94018, Note_on_c, 0, 56, 75
2,94019, Note_on_c, 0, 54, 0
2,94022, Note_on_c, 0, 75, 88
2,94026, Note_on_c, 0, 68, 0
2,94070, Note_on_c, 0, 75, 0
2,94125, Note_on_c, 0, 58, 76
2,94145, Note_on_c, 0, 56, 0
2,94236, Note_on_c, 0, 60, 72
2,94249, Note_on_c, 0, 58, 0
2,94256, Note_on_c, 0, 66, 83
2,94312, Note_on_c, 0, 66, 0
2,94352, Note_on_c, 0, 56, 72
2,94359, Note_on_c, 0, 60, 0
2,94408, Control_c, 0, 64, 29
2,94454, Control_c, 0, 64, 30
2,94499, Control_c, 0, 64, 30
2,94502, Note_on_c, 0, 65, 85
2,94515, Note_on_c, 0, 61, 73
2,94529, Note_on_c, 0, 56, 0
2,94649, Note_on_c, 0, 61, 0
2,94793, Note_on_c, 0, 73, 87
2,94795, Note_on_c, 0, 41, 74
2,94798, Note_on_c, 0, 61, 72
2,94799, Note_on_c, 0, 68, 77
2,94815, Note_on_c, 0, 65, 0
2,94835, Note_on_c, 0, 61, 0
2,94845, Note_on_c, 0, 68, 0
2,94854, Note_on_c, 0, 41, 0
2,94868, Note_on_c, 0, 73, 0
2,94894, Control_c, 0, 64, 28
2,94910, Control_c, 0, 64, 25
2,94925, Control_c, 0, 64, 21
2,94940, Control_c, 0, 64, 13
2,94955, Control_c, 0, 64, 0
2,95097, Note_on_c, 0, 42, 76
2,95100, Note_on_c, 0, 70, 89
2,95104, Note_on_c, 0, 63, 72
2,95108, Note_on_c, 0, 66, 72
2,95163, Note_on_c, 0, 66, 0
2,95190, Note_on_c, 0, 42, 0
2,95198, Note_on_c, 0, 70, 0
2,95268, Control_c, 0, 64, 9
2,95282, Control_c, 0, 64, 11
2,95297, Control_c, 0, 64, 12
2,95328, Control_c, 0, 64, 13
2,95358, Control_c, 0, 64, 15
2,95373, Control_c, 0, 64, 16
2,95389, Control_c, 0, 64, 17
2,95418, Control_c, 0, 64, 17
2,95459, Note_on_c, 0, 63, 0
2,95459, Note_on_c, 0, 63, 41
2,95462, Note_on_c, 0, 72, 90
2,95472, Note_on_c, 0, 66, 72
2,95475, Note_on_c, 0, 44, 78
2,95476, Note_on_c, 0, 68, 74
2,95480, Control_c, 0, 64, 18
2,95568, Note_on_c, 0, 66, 0
2,95570, Note_on_c, 0, 44, 0
2,95570, Note_on_c, 0, 72, 0
2,95577, Note_on_c, 0, 68, 0
2,95677, Control_c, 0, 64, 19
2,95723, Control_c, 0, 64, 20
2,95738, Control_c, 0, 64, 21
2,95753, Control_c, 0, 64, 21
2,95768, Control_c, 0, 64, 22
2,95814, Control_c, 0, 64, 23
2,95826, Note_on_c, 0, 63, 0
2,95913, Control_c, 0, 64, 23
2,95927, Control_c, 0, 64, 24
2,95942, Control_c, 0, 64, 25
2,95965, Note_on_c, 0, 73, 89
2,95969, Note_on_c, 0, 37, 73
2,95971, Note_on_c, 0, 61, 82
2,95973, Control_c, 0, 64, 25
2,95980, Note_on_c, 0, 65, 72
2,95981, Note_on_c, 0, 68, 73
2,95989, Control_c, 0, 64, 26
2,96019, Control_c, 0, 64, 26
2,96036, Control_c, 0, 64, 27
2,96065, Control_c, 0, 64, 27
2,96263, Control_c, 0, 64, 28
2,96279, Control_c, 0, 64, 28
2,96294, Control_c, 0, 64, 29
2,96310, Control_c, 0, 64, 29
2,96340, Control_c, 0, 64, 30
2,96370, Control_c, 0, 64, 30
2,96415, Control_c, 0, 64, 31
2,96446, Control_c, 0, 64, 31
2,96552, Control_c, 0, 64, 32
2,96880, Control_c, 0, 64, 32
2,96910, Control_c, 0, 64, 33
2,96925, Control_c, 0, 64, 33
2,96956, Control_c, 0, 64, 34
2,96973, Control_c, 0, 64, 34
2,97003, Control_c, 0, 64, 35
2,97018, Control_c, 0, 64, 35
2,97034, Control_c, 0, 64, 36
2,97048, Control_c, 0, 64, 36
2,97081, Control_c, 0, 64, 37
2,97097, Control_c, 0, 64, 38
2,97112, Control_c, 0, 64, 40
2,97127, Control_c, 0, 64, 41
2,97143, Control_c, 0, 64, 43
2,97158, Control_c, 0, 64, 44
2,97173, Control_c, 0, 64, 46
2,97189, Control_c, 0, 64, 49
2,97203, Control_c, 0, 64, 51
2,97219, Control_c, 0, 64, 54
2,97234, Control_c, 0, 64, 56
2,97248, Control_c, 0, 64, 59
2,97264, Control_c, 0, 64, 62
2,97279, Control_c, 0, 64, 65
2,97295, Control_c, 0, 64, 69
2,97310, Control_c, 0, 64, 76
2,97324, Control_c, 0, 64, 88
2,97340, Control_c, 0, 64, 107
2,97355, Control_c, 0, 64, 127
2,97430, Note_on_c, 0, 61, 0
2,97469, Note_on_c, 0, 73, 0
2,97471, Note_on_c, 0, 65, 0
2,97495, Note_on_c, 0, 68, 0
2,97512, Note_on_c, 0, 37, 0
2,97819, Control_c, 0, 64, 119
2,97834, Control_c, 0, 64, 116
2,97849, Control_c, 0, 64, 113
2,97865, Control_c, 0, 64, 113
2,97879, Control_c, 0, 64, 111
2,97895, Control_c, 0, 64, 110
2,97910, Control_c, 0, 64, 108
2,97925, Control_c, 0, 64, 106
2,97941, Control_c, 0, 64, 104
2,97956, Control_c, 0, 64, 103
2,97971, Control_c, 0, 64, 101
2,97987, Control_c, 0, 64, 100
2,98001, Control_c, 0, 64, 99
2,98032, Control_c, 0, 64, 98
2,98047, Control_c, 0, 64, 97
2,98063, Control_c, 0, 64, 96
2,98078, Control_c, 0, 64, 94
2,98092, Control_c, 0, 64, 92
2,98108, Control_c, 0, 64, 91
2,98123, Control_c, 0, 64, 90
2,98139, Control_c, 0, 64, 88
2,98154, Control_c, 0, 64, 86
2,98168, Control_c, 0, 64, 82
2,98184, Control_c, 0, 64, 77
2,98206, Control_c, 0, 64, 72
2,98222, Control_c, 0, 64, 67
2,98237, Control_c, 0, 64, 64
2,98252, Control_c, 0, 64, 60
2,98268, Control_c, 0, 64, 58
2,98283, Control_c, 0, 64, 57
2,98298, Control_c, 0, 64, 54
2,98313, Control_c, 0, 64, 51
2,98328, Control_c, 0, 64, 47
2,98344, Control_c, 0, 64, 43
2,98359, Control_c, 0, 64, 39
2,98373, Control_c, 0, 64, 36
2,98389, Control_c, 0, 64, 35
2,98419, Control_c, 0, 64, 35
2,98588, Control_c, 0, 64, 35
2,98633, Control_c, 0, 64, 36
2,98647, Control_c, 0, 64, 36
2,98693, Control_c, 0, 64, 37
2,98754, Control_c, 0, 64, 37
2,98815, Control_c, 0, 64, 38
2,98816, End_track
0, 0, End_of_file
