0, 0, Header, 1, 2, 384
1, 0, Start_track
1, 0, Tempo, 500000
1, 0, Time_signature, 4, 2, 24, 8
1, 1, End_track
2, 0, Start_track
2, 0, Program_c, 0, 0
2, 0, Control_c, 0, 64, 33
2, 134, Control_c, 0, 64, 34
2, 476, Control_c, 0, 64, 34
2, 750, Note_on_c, 0, 77, 62
2, 755, Note_on_c, 0, 49, 40
2, 847, Note_on_c, 0, 77, 0
2, 852, Note_on_c, 0, 73, 57
2, 928, Note_on_c, 0, 73, 0
2, 938, Note_on_c, 0, 49, 0
2, 940, Note_on_c, 0, 68, 55
2, 1007, Note_on_c, 0, 73, 51
2, 1015, Note_on_c, 0, 68, 0
2, 1025, Control_c, 0, 64, 33
2, 1041, Control_c, 0, 64, 33
2, 1056, Control_c, 0, 64, 31
2, 1071, Control_c, 0, 64, 28
2, 1093, Control_c, 0, 64, 22
2, 1103, Note_on_c, 0, 73, 0
2, 1108, Control_c, 0, 64, 0
2, 1111, Note_on_c, 0, 77, 66
2, 1118, Note_on_c, 0, 61, 61
2, 1151, Note_on_c, 0, 61, 0
2, 1187, Note_on_c, 0, 77, 0
2, 1189, Note_on_c, 0, 73, 55
2, 1273, Note_on_c, 0, 73, 0
2, 1281, Note_on_c, 0, 51, 59
2, 1282, Note_on_c, 0, 78, 59
2, 1362, Note_on_c, 0, 78, 0
2, 1366, Note_on_c, 0, 73, 51
2, 1423, Note_on_c, 0, 51, 0
2, 1439, Note_on_c, 0, 73, 0
2, 1445, Note_on_c, 0, 78, 64
2, 1514, Note_on_c, 0, 78, 0
2, 1525, Note_on_c, 0, 73, 62
2, 1601, Note_on_c, 0, 73, 0
2, 1609, Note_on_c, 0, 78, 70
2, 1615, Note_on_c, 0, 61, 62
2, 1648, Note_on_c, 0, 61, 0
2, 1666, Note_on_c, 0, 78, 0
2, 1690, Note_on_c, 0, 73, 65
2, 1757, Note_on_c, 0, 73, 0
2, 1767, Note_on_c, 0, 80, 75
2, 1779, Note_on_c, 0, 53, 66
2, 1836, Note_on_c, 0, 80, 0
2, 1861, Note_on_c, 0, 73, 67
2, 1926, Note_on_c, 0, 73, 0
2, 1938, Note_on_c, 0, 80, 76
2, 1949, Note_on_c, 0, 53, 0
2, 1995, Note_on_c, 0, 80, 0
2, 2009, Note_on_c, 0, 73, 72
2, 2085, Note_on_c, 0, 73, 0
2, 2096, Note_on_c, 0, 80, 81
2, 2118, Note_on_c, 0, 61, 69
2, 2149, Note_on_c, 0, 61, 0
2, 2153, Note_on_c, 0, 80, 0
2, 2175, Note_on_c, 0, 73, 75
2, 2242, Note_on_c, 0, 73, 0
2, 2262, Note_on_c, 0, 82, 81
2, 2274, Note_on_c, 0, 54, 66
2, 2329, Note_on_c, 0, 82, 0
2, 2348, Note_on_c, 0, 73, 73
2, 2411, Note_on_c, 0, 73, 0
2, 2430, Note_on_c, 0, 82, 83
2, 2449, Note_on_c, 0, 54, 0
2, 2489, Note_on_c, 0, 82, 0
2, 2514, Note_on_c, 0, 73, 74
2, 2572, Note_on_c, 0, 73, 0
2, 2595, Note_on_c, 0, 82, 81
2, 2625, Note_on_c, 0, 61, 68
2, 2656, Note_on_c, 0, 61, 0
2, 2666, Note_on_c, 0, 82, 0
2, 2684, Note_on_c, 0, 73, 73
2, 2741, Note_on_c, 0, 73, 0
2, 2773, Note_on_c, 0, 80, 71
2, 2777, Note_on_c, 0, 53, 62
2, 2841, Note_on_c, 0, 80, 0
2, 2853, Note_on_c, 0, 73, 67
2, 2924, Note_on_c, 0, 73, 0
2, 2933, Note_on_c, 0, 53, 0
2, 2943, Note_on_c, 0, 80, 70
2, 3011, Note_on_c, 0, 80, 0
2, 3021, Note_on_c, 0, 73, 69
2, 3082, Note_on_c, 0, 73, 0
2, 3114, Note_on_c, 0, 80, 71
2, 3119, Note_on_c, 0, 61, 62
2, 3151, Note_on_c, 0, 61, 0
2, 3175, Note_on_c, 0, 80, 0
2, 3190, Note_on_c, 0, 73, 65
2, 3255, Note_on_c, 0, 73, 0
2, 3272, Note_on_c, 0, 78, 65
2, 3281, Note_on_c, 0, 51, 58
2, 3358, Note_on_c, 0, 77, 62
2, 3367, Note_on_c, 0, 78, 0
2, 3432, Note_on_c, 0, 51, 0
2, 3448, Note_on_c, 0, 77, 0
2, 3449, Note_on_c, 0, 75, 62
2, 3523, Note_on_c, 0, 77, 61
2, 3526, Note_on_c, 0, 75, 0
2, 3612, Note_on_c, 0, 78, 65
2, 3618, Note_on_c, 0, 77, 0
2, 3629, Note_on_c, 0, 60, 53
2, 3658, Note_on_c, 0, 60, 0
2, 3684, Note_on_c, 0, 78, 0
2, 3695, Note_on_c, 0, 75, 58
2, 3752, Note_on_c, 0, 75, 0
2, 3777, Note_on_c, 0, 77, 63
2, 3782, Note_on_c, 0, 49, 54
2, 3857, Note_on_c, 0, 77, 0
2, 3872, Note_on_c, 0, 75, 64
2, 3919, Note_on_c, 0, 49, 0
2, 3944, Note_on_c, 0, 75, 0
2, 3949, Note_on_c, 0, 73, 64
2, 4031, Note_on_c, 0, 73, 0
2, 4031, Note_on_c, 0, 75, 66
2, 4115, Note_on_c, 0, 75, 0
2, 4127, Note_on_c, 0, 77, 66
2, 4132, Note_on_c, 0, 61, 66
2, 4218, Note_on_c, 0, 77, 0
2, 4223, Note_on_c, 0, 73, 63
2, 4309, Note_on_c, 0, 75, 67
2, 4313, Note_on_c, 0, 73, 0
2, 4385, Note_on_c, 0, 75, 0
2, 4387, Note_on_c, 0, 77, 70
2, 4464, Note_on_c, 0, 61, 0
2, 4471, Note_on_c, 0, 75, 61
2, 4478, Note_on_c, 0, 77, 0
2, 4490, Note_on_c, 0, 60, 58
2, 4553, Note_on_c, 0, 73, 65
2, 4562, Note_on_c, 0, 75, 0
2, 4570, Note_on_c, 0, 60, 0
2, 4576, Note_on_c, 0, 58, 59
2, 4609, Note_on_c, 0, 73, 0
2, 4635, Note_on_c, 0, 72, 60
2, 4642, Note_on_c, 0, 58, 0
2, 4652, Note_on_c, 0, 56, 60
2, 4694, Note_on_c, 0, 72, 0
2, 4713, Note_on_c, 0, 70, 65
2, 4723, Note_on_c, 0, 56, 0
2, 4734, Note_on_c, 0, 58, 57
2, 4785, Note_on_c, 0, 58, 0
2, 4799, Note_on_c, 0, 70, 0
2, 4806, Note_on_c, 0, 68, 65
2, 4813, Note_on_c, 0, 60, 59
2, 4884, Note_on_c, 0, 60, 0
2, 4888, Note_on_c, 0, 56, 56
2, 4966, Note_on_c, 0, 56, 0
2, 4980, Note_on_c, 0, 51, 57
2, 4997, Note_on_c, 0, 68, 0
2, 5039, Note_on_c, 0, 51, 0
2, 5050, Note_on_c, 0, 56, 53
2, 5121, Note_on_c, 0, 56, 0
2, 5136, Note_on_c, 0, 80, 70
2, 5144, Note_on_c, 0, 60, 61
2, 5164, Note_on_c, 0, 80, 0
2, 5190, Note_on_c, 0, 60, 0
2, 5217, Note_on_c, 0, 56, 50
2, 5282, Note_on_c, 0, 56, 0
2, 5301, Note_on_c, 0, 70, 73
2, 5309, Note_on_c, 0, 61, 59
2, 5371, Note_on_c, 0, 61, 0
2, 5394, Note_on_c, 0, 56, 60
2, 5458, Note_on_c, 0, 56, 0
2, 5481, Note_on_c, 0, 61, 63
2, 5498, Note_on_c, 0, 70, 0
2, 5534, Note_on_c, 0, 61, 0
2, 5554, Note_on_c, 0, 56, 66
2, 5625, Note_on_c, 0, 56, 0
2, 5642, Note_on_c, 0, 61, 66
2, 5647, Note_on_c, 0, 80, 72
2, 5671, Note_on_c, 0, 80, 0
2, 5696, Note_on_c, 0, 61, 0
2, 5722, Note_on_c, 0, 56, 57
2, 5797, Note_on_c, 0, 56, 0
2, 5817, Note_on_c, 0, 63, 65
2, 5825, Note_on_c, 0, 72, 74
2, 5881, Note_on_c, 0, 63, 0
2, 5903, Note_on_c, 0, 56, 66
2, 5973, Note_on_c, 0, 56, 0
2, 5989, Note_on_c, 0, 63, 67
2, 5989, Note_on_c, 0, 72, 0
2, 6051, Note_on_c, 0, 63, 0
2, 6068, Note_on_c, 0, 56, 69
2, 6142, Note_on_c, 0, 56, 0
2, 6156, Note_on_c, 0, 63, 70
2, 6156, Note_on_c, 0, 80, 75
2, 6192, Note_on_c, 0, 80, 0
2, 6224, Note_on_c, 0, 63, 0
2, 6232, Note_on_c, 0, 56, 67
2, 6319, Note_on_c, 0, 56, 0
2, 6329, Note_on_c, 0, 73, 76
2, 6333, Note_on_c, 0, 65, 68
2, 6420, Note_on_c, 0, 65, 0
2, 6422, Note_on_c, 0, 56, 70
2, 6496, Note_on_c, 0, 56, 0
2, 6510, Note_on_c, 0, 65, 73
2, 6545, Note_on_c, 0, 73, 0
2, 6584, Note_on_c, 0, 65, 0
2, 6588, Note_on_c, 0, 56, 73
2, 6662, Note_on_c, 0, 56, 0
2, 6666, Note_on_c, 0, 65, 74
2, 6686, Note_on_c, 0, 80, 75
2, 6710, Note_on_c, 0, 80, 0
2, 6731, Note_on_c, 0, 65, 0
2, 6745, Note_on_c, 0, 56, 70
2, 6831, Note_on_c, 0, 56, 0
2, 6838, Note_on_c, 0, 63, 69
2, 6849, Note_on_c, 0, 72, 74
2, 6916, Note_on_c, 0, 56, 65
2, 6916, Note_on_c, 0, 63, 0
2, 6997, Note_on_c, 0, 56, 0
2, 7004, Note_on_c, 0, 72, 0
2, 7005, Note_on_c, 0, 63, 65
2, 7077, Note_on_c, 0, 63, 0
2, 7084, Note_on_c, 0, 56, 65
2, 7157, Note_on_c, 0, 56, 0
2, 7170, Note_on_c, 0, 80, 70
2, 7172, Note_on_c, 0, 63, 63
2, 7198, Note_on_c, 0, 80, 0
2, 7236, Note_on_c, 0, 63, 0
2, 7246, Note_on_c, 0, 56, 59
2, 7342, Note_on_c, 0, 61, 64
2, 7352, Note_on_c, 0, 70, 68
2, 7361, Note_on_c, 0, 56, 0
2, 7408, Note_on_c, 0, 61, 0
2, 7432, Note_on_c, 0, 60, 63
2, 7509, Note_on_c, 0, 60, 0
2, 7513, Note_on_c, 0, 58, 62
2, 7530, Note_on_c, 0, 70, 0
2, 7576, Note_on_c, 0, 58, 0
2, 7594, Note_on_c, 0, 60, 58
2, 7655, Note_on_c, 0, 60, 0
2, 7670, Note_on_c, 0, 61, 63
2, 7673, Note_on_c, 0, 79, 70
2, 7699, Note_on_c, 0, 79, 0
2, 7751, Note_on_c, 0, 61, 0
2, 7760, Note_on_c, 0, 58, 63
2, 7809, Note_on_c, 0, 58, 0
2, 7845, Note_on_c, 0, 68, 65
2, 7854, Note_on_c, 0, 60, 61
2, 7922, Note_on_c, 0, 60, 0
2, 7937, Note_on_c, 0, 58, 60
2, 8015, Note_on_c, 0, 58, 0
2, 8025, Note_on_c, 0, 68, 0
2, 8026, Note_on_c, 0, 56, 62
2, 8111, Note_on_c, 0, 56, 0
2, 8119, Note_on_c, 0, 58, 62
2, 8181, Note_on_c, 0, 58, 0
2, 8193, Note_on_c, 0, 80, 76
2, 8197, Note_on_c, 0, 60, 61
2, 8271, Note_on_c, 0, 60, 0
2, 8278, Note_on_c, 0, 56, 53
2, 8366, Note_on_c, 0, 56, 0
2, 8369, Note_on_c, 0, 58, 58
2, 8440, Note_on_c, 0, 58, 0
2, 8462, Note_on_c, 0, 59, 53
2, 8474, Control_c, 0, 67, 15
2, 8490, Control_c, 0, 67, 29
2, 8505, Control_c, 0, 67, 43
2, 8520, Control_c, 0, 67, 53
2, 8524, Note_on_c, 0, 59, 0
2, 8535, Control_c, 0, 67, 62
2, 8548, Note_on_c, 0, 78, 64
2, 8550, Control_c, 0, 67, 69
2, 8566, Control_c, 0, 67, 75
2, 8567, Note_on_c, 0, 58, 51
2, 8573, Note_on_c, 0, 80, 0
2, 8580, Control_c, 0, 67, 83
2, 8595, Control_c, 0, 67, 93
2, 8611, Control_c, 0, 67, 102
2, 8614, Note_on_c, 0, 58, 0
2, 8626, Control_c, 0, 67, 116
2, 8633, Note_on_c, 0, 77, 66
2, 8636, Note_on_c, 0, 56, 52
2, 8641, Control_c, 0, 67, 127
2, 8649, Note_on_c, 0, 78, 0
2, 8706, Note_on_c, 0, 77, 0
2, 8720, Note_on_c, 0, 75, 62
2, 8729, Note_on_c, 0, 54, 44
2, 8729, Note_on_c, 0, 56, 0
2, 8770, Note_on_c, 0, 54, 0
2, 8795, Note_on_c, 0, 75, 0
2, 8801, Note_on_c, 0, 77, 62
2, 8808, Note_on_c, 0, 53, 48
2, 8880, Note_on_c, 0, 77, 0
2, 8888, Note_on_c, 0, 53, 0
2, 8904, Note_on_c, 0, 78, 60
2, 8911, Note_on_c, 0, 51, 52
2, 8976, Note_on_c, 0, 78, 0
2, 8997, Note_on_c, 0, 75, 56
2, 9050, Note_on_c, 0, 75, 0
2, 9060, Note_on_c, 0, 51, 0
2, 9079, Note_on_c, 0, 70, 53
2, 9146, Note_on_c, 0, 70, 0
2, 9174, Note_on_c, 0, 75, 49
2, 9226, Note_on_c, 0, 75, 0
2, 9247, Note_on_c, 0, 78, 53
2, 9251, Note_on_c, 0, 63, 53
2, 9276, Note_on_c, 0, 63, 0
2, 9296, Note_on_c, 0, 78, 0
2, 9330, Note_on_c, 0, 75, 53
2, 9382, Note_on_c, 0, 75, 0
2, 9410, Note_on_c, 0, 80, 58
2, 9419, Note_on_c, 0, 53, 53
2, 9478, Note_on_c, 0, 80, 0
2, 9496, Note_on_c, 0, 75, 60
2, 9560, Note_on_c, 0, 53, 0
2, 9566, Note_on_c, 0, 75, 0
2, 9597, Note_on_c, 0, 80, 64
2, 9648, Note_on_c, 0, 80, 0
2, 9679, Note_on_c, 0, 75, 55
2, 9734, Note_on_c, 0, 75, 0
2, 9752, Note_on_c, 0, 80, 66
2, 9768, Note_on_c, 0, 63, 53
2, 9792, Note_on_c, 0, 63, 0
2, 9795, Note_on_c, 0, 80, 0
2, 9844, Note_on_c, 0, 75, 58
2, 9896, Note_on_c, 0, 75, 0
2, 9925, Note_on_c, 0, 82, 65
2, 9932, Note_on_c, 0, 54, 57
2, 9987, Note_on_c, 0, 82, 0
2, 10013, Note_on_c, 0, 75, 60
2, 10078, Note_on_c, 0, 75, 0
2, 10081, Note_on_c, 0, 54, 0
2, 10098, Note_on_c, 0, 82, 68
2, 10147, Note_on_c, 0, 82, 0
2, 10176, Note_on_c, 0, 75, 62
2, 10230, Note_on_c, 0, 75, 0
2, 10259, Note_on_c, 0, 82, 69
2, 10268, Note_on_c, 0, 63, 59
2, 10305, Note_on_c, 0, 63, 0
2, 10322, Note_on_c, 0, 82, 0
2, 10346, Note_on_c, 0, 75, 64
2, 10407, Note_on_c, 0, 75, 0
2, 10433, Note_on_c, 0, 83, 64
2, 10434, Note_on_c, 0, 56, 58
2, 10488, Note_on_c, 0, 83, 0
2, 10513, Note_on_c, 0, 75, 65
2, 10570, Note_on_c, 0, 75, 0
2, 10598, Note_on_c, 0, 56, 0
2, 10599, Note_on_c, 0, 83, 70
2, 10657, Note_on_c, 0, 83, 0
2, 10676, Note_on_c, 0, 75, 67
2, 10734, Note_on_c, 0, 75, 0
2, 10771, Note_on_c, 0, 83, 65
2, 10783, Note_on_c, 0, 63, 54
2, 10801, Note_on_c, 0, 83, 0
2, 10806, Note_on_c, 0, 63, 0
2, 10841, Note_on_c, 0, 75, 67
2, 10905, Note_on_c, 0, 75, 0
2, 10935, Note_on_c, 0, 82, 64
2, 10950, Note_on_c, 0, 54, 51
2, 10985, Note_on_c, 0, 82, 0
2, 11019, Note_on_c, 0, 75, 62
2, 11075, Note_on_c, 0, 54, 0
2, 11089, Note_on_c, 0, 75, 0
2, 11109, Note_on_c, 0, 82, 64
2, 11165, Note_on_c, 0, 82, 0
2, 11198, Note_on_c, 0, 75, 61
2, 11245, Note_on_c, 0, 75, 0
2, 11277, Note_on_c, 0, 63, 59
2, 11281, Note_on_c, 0, 82, 62
2, 11315, Note_on_c, 0, 63, 0
2, 11347, Note_on_c, 0, 82, 0
2, 11354, Note_on_c, 0, 75, 62
2, 11415, Note_on_c, 0, 75, 0
2, 11437, Note_on_c, 0, 80, 59
2, 11460, Note_on_c, 0, 53, 53
2, 11527, Note_on_c, 0, 78, 59
2, 11547, Note_on_c, 0, 80, 0
2, 11579, Note_on_c, 0, 53, 0
2, 11594, Note_on_c, 0, 78, 0
2, 11602, Note_on_c, 0, 77, 61
2, 11688, Note_on_c, 0, 77, 0
2, 11697, Note_on_c, 0, 78, 59
2, 11761, Note_on_c, 0, 78, 0
2, 11775, Note_on_c, 0, 80, 61
2, 11788, Note_on_c, 0, 62, 54
2, 11821, Note_on_c, 0, 62, 0
2, 11853, Note_on_c, 0, 80, 0
2, 11864, Note_on_c, 0, 77, 67
2, 11950, Note_on_c, 0, 77, 0
2, 11959, Note_on_c, 0, 51, 63
2, 11961, Note_on_c, 0, 78, 58
2, 12046, Note_on_c, 0, 77, 58
2, 12046, Note_on_c, 0, 78, 0
2, 12087, Note_on_c, 0, 51, 0
2, 12102, Note_on_c, 0, 77, 0
2, 12128, Note_on_c, 0, 75, 63
2, 12188, Note_on_c, 0, 75, 0
2, 12208, Note_on_c, 0, 77, 67
2, 12293, Note_on_c, 0, 77, 0
2, 12300, Note_on_c, 0, 78, 58
2, 12308, Note_on_c, 0, 63, 65
2, 12345, Note_on_c, 0, 78, 0
2, 12382, Note_on_c, 0, 75, 59
2, 12456, Note_on_c, 0, 75, 0
2, 12480, Note_on_c, 0, 77, 62
2, 12549, Note_on_c, 0, 77, 0
2, 12556, Note_on_c, 0, 78, 68
2, 12632, Note_on_c, 0, 63, 0
2, 12644, Note_on_c, 0, 61, 57
2, 12650, Note_on_c, 0, 78, 0
2, 12655, Note_on_c, 0, 77, 63
2, 12725, Note_on_c, 0, 61, 0
2, 12733, Note_on_c, 0, 75, 69
2, 12743, Note_on_c, 0, 60, 55
2, 12755, Note_on_c, 0, 77, 0
2, 12793, Note_on_c, 0, 60, 0
2, 12809, Note_on_c, 0, 73, 67
2, 12819, Note_on_c, 0, 58, 59
2, 12822, Note_on_c, 0, 75, 0
2, 12865, Note_on_c, 0, 58, 0
2, 12867, Note_on_c, 0, 73, 0
2, 12895, Note_on_c, 0, 72, 63
2, 12907, Note_on_c, 0, 60, 58
2, 12946, Note_on_c, 0, 60, 0
2, 12956, Note_on_c, 0, 72, 0
2, 12977, Note_on_c, 0, 70, 62
2, 12981, Note_on_c, 0, 61, 54
2, 13035, Note_on_c, 0, 61, 0
2, 13061, Note_on_c, 0, 58, 56
2, 13110, Note_on_c, 0, 58, 0
2, 13146, Note_on_c, 0, 53, 52
2, 13152, Note_on_c, 0, 70, 0
2, 13207, Note_on_c, 0, 53, 0
2, 13237, Note_on_c, 0, 58, 50
2, 13281, Note_on_c, 0, 58, 0
2, 13308, Note_on_c, 0, 61, 54
2, 13310, Note_on_c, 0, 82, 63
2, 13342, Note_on_c, 0, 82, 0
2, 13357, Note_on_c, 0, 61, 0
2, 13385, Note_on_c, 0, 58, 56
2, 13448, Note_on_c, 0, 58, 0
2, 13488, Note_on_c, 0, 72, 58
2, 13489, Note_on_c, 0, 63, 54
2, 13553, Note_on_c, 0, 63, 0
2, 13572, Note_on_c, 0, 58, 53
2, 13632, Note_on_c, 0, 58, 0
2, 13677, Note_on_c, 0, 72, 0
2, 13679, Note_on_c, 0, 63, 50
2, 13725, Note_on_c, 0, 63, 0
2, 13751, Note_on_c, 0, 58, 57
2, 13793, Note_on_c, 0, 58, 0
2, 13819, Note_on_c, 0, 63, 58
2, 13831, Note_on_c, 0, 82, 68
2, 13861, Note_on_c, 0, 82, 0
2, 13879, Note_on_c, 0, 63, 0
2, 13894, Note_on_c, 0, 58, 57
2, 13966, Note_on_c, 0, 58, 0
2, 13992, Note_on_c, 0, 73, 66
2, 13995, Note_on_c, 0, 65, 60
2, 14067, Note_on_c, 0, 65, 0
2, 14081, Note_on_c, 0, 58, 61
2, 14160, Note_on_c, 0, 58, 0
2, 14180, Note_on_c, 0, 65, 64
2, 14195, Note_on_c, 0, 73, 0
2, 14248, Note_on_c, 0, 65, 0
2, 14269, Note_on_c, 0, 58, 63
2, 14328, Note_on_c, 0, 58, 0
2, 14347, Note_on_c, 0, 82, 75
2, 14351, Note_on_c, 0, 65, 63
2, 14372, Note_on_c, 0, 82, 0
2, 14405, Note_on_c, 0, 65, 0
2, 14438, Note_on_c, 0, 58, 63
2, 14509, Note_on_c, 0, 58, 0
2, 14517, Note_on_c, 0, 75, 73
2, 14518, Note_on_c, 0, 66, 64
2, 14602, Note_on_c, 0, 66, 0
2, 14614, Note_on_c, 0, 58, 61
2, 14682, Note_on_c, 0, 58, 0
2, 14684, Note_on_c, 0, 66, 65
2, 14727, Note_on_c, 0, 75, 0
2, 14758, Note_on_c, 0, 66, 0
2, 14767, Note_on_c, 0, 58, 63
2, 14844, Note_on_c, 0, 58, 0
2, 14855, Note_on_c, 0, 66, 65
2, 14860, Note_on_c, 0, 82, 76
2, 14886, Note_on_c, 0, 82, 0
2, 14946, Note_on_c, 0, 66, 0
2, 14947, Note_on_c, 0, 58, 61
2, 15025, Note_on_c, 0, 58, 0
2, 15029, Note_on_c, 0, 73, 78
2, 15032, Note_on_c, 0, 65, 67
2, 15128, Note_on_c, 0, 65, 0
2, 15134, Note_on_c, 0, 58, 62
2, 15197, Note_on_c, 0, 58, 0
2, 15213, Note_on_c, 0, 65, 57
2, 15230, Note_on_c, 0, 73, 0
2, 15280, Note_on_c, 0, 65, 0
2, 15301, Note_on_c, 0, 58, 67
2, 15352, Note_on_c, 0, 58, 0
2, 15381, Note_on_c, 0, 82, 79
2, 15389, Note_on_c, 0, 65, 64
2, 15407, Note_on_c, 0, 82, 0
2, 15455, Note_on_c, 0, 65, 0
2, 15471, Note_on_c, 0, 58, 61
2, 15536, Note_on_c, 0, 63, 61
2, 15548, Note_on_c, 0, 72, 73
2, 15552, Note_on_c, 0, 58, 0
2, 15614, Control_c, 0, 67, 120
2, 15615, Note_on_c, 0, 61, 66
2, 15622, Note_on_c, 0, 63, 0
2, 15629, Control_c, 0, 67, 110
2, 15645, Control_c, 0, 67, 100
2, 15660, Control_c, 0, 67, 88
2, 15684, Control_c, 0, 67, 79
2, 15698, Control_c, 0, 67, 69
2, 15702, Note_on_c, 0, 61, 0
2, 15708, Note_on_c, 0, 72, 0
2, 15709, Note_on_c, 0, 60, 68
2, 15713, Control_c, 0, 67, 56
2, 15729, Control_c, 0, 67, 41
2, 15744, Control_c, 0, 67, 23
2, 15759, Control_c, 0, 67, 0
2, 15797, Note_on_c, 0, 60, 0
2, 15802, Note_on_c, 0, 61, 69
2, 15879, Note_on_c, 0, 61, 0
2, 15884, Note_on_c, 0, 81, 68
2, 15886, Note_on_c, 0, 63, 63
2, 15926, Note_on_c, 0, 81, 0
2, 15955, Note_on_c, 0, 63, 0
2, 15961, Note_on_c, 0, 60, 62
2, 16031, Note_on_c, 0, 60, 0
2, 16059, Note_on_c, 0, 61, 67
2, 16066, Note_on_c, 0, 70, 76
2, 16138, Note_on_c, 0, 61, 0
2, 16148, Note_on_c, 0, 60, 73
2, 16231, Note_on_c, 0, 58, 70
2, 16236, Note_on_c, 0, 60, 0
2, 16248, Note_on_c, 0, 70, 0
2, 16308, Note_on_c, 0, 60, 70
2, 16312, Note_on_c, 0, 58, 0
2, 16399, Note_on_c, 0, 61, 71
2, 16409, Note_on_c, 0, 60, 0
2, 16423, Note_on_c, 0, 82, 86
2, 16510, Note_on_c, 0, 58, 70
2, 16513, Note_on_c, 0, 61, 0
2, 16613, Note_on_c, 0, 64, 73
2, 16617, Note_on_c, 0, 58, 0
2, 16700, Note_on_c, 0, 64, 0
2, 16702, Note_on_c, 0, 62, 71
2, 16780, Note_on_c, 0, 60, 76
2, 16781, Note_on_c, 0, 62, 0
2, 16782, Note_on_c, 0, 80, 81
2, 16818, Note_on_c, 0, 82, 0
2, 16861, Note_on_c, 0, 60, 0
2, 16865, Note_on_c, 0, 62, 76
2, 16935, Note_on_c, 0, 62, 0
2, 16943, Note_on_c, 0, 79, 82
2, 16948, Note_on_c, 0, 64, 73
2, 16974, Note_on_c, 0, 80, 0
2, 16987, Note_on_c, 0, 79, 0
2, 17006, Note_on_c, 0, 64, 0
2, 17026, Note_on_c, 0, 60, 74
2, 17090, Note_on_c, 0, 60, 0
2, 17111, Note_on_c, 0, 80, 85
2, 17114, Note_on_c, 0, 65, 76
2, 17154, Note_on_c, 0, 80, 0
2, 17173, Note_on_c, 0, 65, 0
2, 17191, Note_on_c, 0, 64, 76
2, 17270, Note_on_c, 0, 64, 0
2, 17290, Note_on_c, 0, 65, 75
2, 17295, Note_on_c, 0, 68, 77
2, 17327, Note_on_c, 0, 68, 0
2, 17371, Note_on_c, 0, 65, 0
2, 17380, Note_on_c, 0, 67, 74
2, 17462, Note_on_c, 0, 80, 85
2, 17465, Note_on_c, 0, 67, 0
2, 17471, Note_on_c, 0, 65, 71
2, 17554, Note_on_c, 0, 63, 76
2, 17573, Note_on_c, 0, 65, 0
2, 17622, Note_on_c, 0, 63, 0
2, 17644, Note_on_c, 0, 62, 75
2, 17725, Note_on_c, 0, 62, 0
2, 17735, Note_on_c, 0, 60, 72
2, 17800, Note_on_c, 0, 60, 0
2, 17800, Note_on_c, 0, 78, 79
2, 17806, Note_on_c, 0, 58, 74
2, 17842, Note_on_c, 0, 80, 0
2, 17881, Note_on_c, 0, 58, 0
2, 17888, Note_on_c, 0, 60, 71
2, 17956, Note_on_c, 0, 60, 0
2, 17986, Note_on_c, 0, 62, 68
2, 17996, Note_on_c, 0, 77, 76
2, 18028, Note_on_c, 0, 78, 0
2, 18037, Note_on_c, 0, 77, 0
2, 18060, Note_on_c, 0, 62, 0
2, 18075, Note_on_c, 0, 58, 66
2, 18151, Note_on_c, 0, 58, 0
2, 18177, Note_on_c, 0, 78, 61
2, 18180, Note_on_c, 0, 63, 67
2, 18210, Note_on_c, 0, 63, 0
2, 18254, Note_on_c, 0, 78, 0
2, 18262, Note_on_c, 0, 77, 64
2, 18335, Note_on_c, 0, 77, 0
2, 18340, Note_on_c, 0, 51, 76
2, 18346, Note_on_c, 0, 75, 70
2, 18371, Note_on_c, 0, 51, 0
2, 18420, Note_on_c, 0, 75, 0
2, 18424, Note_on_c, 0, 77, 68
2, 18495, Note_on_c, 0, 77, 0
2, 18511, Note_on_c, 0, 78, 67
2, 18519, Note_on_c, 0, 63, 72
2, 18585, Note_on_c, 0, 78, 0
2, 18599, Note_on_c, 0, 75, 67
2, 18687, Note_on_c, 0, 75, 0
2, 18688, Note_on_c, 0, 81, 64
2, 18769, Note_on_c, 0, 79, 70
2, 18779, Note_on_c, 0, 81, 0
2, 18829, Note_on_c, 0, 79, 0
2, 18856, Note_on_c, 0, 77, 76
2, 18866, Note_on_c, 0, 61, 72
2, 18869, Note_on_c, 0, 63, 0
2, 18931, Note_on_c, 0, 77, 0
2, 18938, Note_on_c, 0, 79, 77
2, 19010, Note_on_c, 0, 79, 0
2, 19021, Note_on_c, 0, 81, 68
2, 19025, Note_on_c, 0, 61, 0
2, 19028, Note_on_c, 0, 60, 72
2, 19056, Note_on_c, 0, 81, 0
2, 19059, Note_on_c, 0, 60, 0
2, 19099, Note_on_c, 0, 77, 75
2, 19171, Note_on_c, 0, 77, 0
2, 19184, Note_on_c, 0, 82, 72
2, 19197, Note_on_c, 0, 61, 77
2, 19224, Note_on_c, 0, 61, 0
2, 19262, Note_on_c, 0, 81, 68
2, 19264, Note_on_c, 0, 82, 0
2, 19352, Note_on_c, 0, 81, 0
2, 19354, Note_on_c, 0, 82, 75
2, 19360, Note_on_c, 0, 49, 67
2, 19395, Note_on_c, 0, 49, 0
2, 19419, Note_on_c, 0, 82, 0
2, 19442, Note_on_c, 0, 84, 71
2, 19533, Note_on_c, 0, 82, 70
2, 19533, Note_on_c, 0, 84, 0
2, 19545, Note_on_c, 0, 61, 66
2, 19610, Note_on_c, 0, 80, 70
2, 19621, Note_on_c, 0, 82, 0
2, 19666, Note_on_c, 0, 80, 0
2, 19692, Note_on_c, 0, 79, 66
2, 19773, Note_on_c, 0, 77, 68
2, 19778, Note_on_c, 0, 79, 0
2, 19847, Note_on_c, 0, 77, 0
2, 19852, Note_on_c, 0, 61, 0
2, 19863, Note_on_c, 0, 75, 63
2, 19882, Note_on_c, 0, 60, 56
2, 19951, Note_on_c, 0, 77, 69
2, 19960, Note_on_c, 0, 75, 0
2, 19995, Note_on_c, 0, 77, 0
2, 20022, Note_on_c, 0, 60, 0
2, 20032, Note_on_c, 0, 79, 66
2, 20037, Note_on_c, 0, 58, 51
2, 20075, Note_on_c, 0, 58, 0
2, 20097, Note_on_c, 0, 79, 0
2, 20105, Note_on_c, 0, 75, 67
2, 20141, Note_on_c, 0, 75, 0
2, 20197, Note_on_c, 0, 80, 71
2, 20206, Note_on_c, 0, 60, 60
2, 20224, Note_on_c, 0, 80, 0
2, 20248, Note_on_c, 0, 60, 0
2, 20305, Note_on_c, 0, 58, 54
2, 20351, Note_on_c, 0, 58, 0
2, 20369, Note_on_c, 0, 68, 70
2, 20377, Note_on_c, 0, 56, 57
2, 20398, Note_on_c, 0, 68, 0
2, 20454, Note_on_c, 0, 56, 0
2, 20470, Note_on_c, 0, 58, 59
2, 20515, Note_on_c, 0, 58, 0
2, 20549, Note_on_c, 0, 60, 61
2, 20550, Note_on_c, 0, 80, 73
2, 20613, Note_on_c, 0, 60, 0
2, 20639, Note_on_c, 0, 56, 61
2, 20700, Note_on_c, 0, 56, 0
2, 20735, Note_on_c, 0, 62, 60
2, 20786, Note_on_c, 0, 62, 0
2, 20810, Note_on_c, 0, 60, 64
2, 20880, Note_on_c, 0, 60, 0
2, 20896, Note_on_c, 0, 58, 61
2, 20906, Note_on_c, 0, 78, 71
2, 20922, Note_on_c, 0, 80, 0
2, 20973, Note_on_c, 0, 58, 0
2, 20987, Note_on_c, 0, 60, 63
2, 21059, Note_on_c, 0, 60, 0
2, 21078, Note_on_c, 0, 77, 78
2, 21086, Note_on_c, 0, 62, 64
2, 21104, Note_on_c, 0, 78, 0
2, 21121, Note_on_c, 0, 77, 0
2, 21159, Note_on_c, 0, 62, 0
2, 21169, Note_on_c, 0, 58, 57
2, 21251, Note_on_c, 0, 63, 59
2, 21253, Note_on_c, 0, 78, 79
2, 21265, Note_on_c, 0, 58, 0
2, 21281, Note_on_c, 0, 78, 0
2, 21315, Note_on_c, 0, 63, 0
2, 21340, Note_on_c, 0, 62, 57
2, 21415, Note_on_c, 0, 62, 0
2, 21422, Note_on_c, 0, 66, 69
2, 21423, Note_on_c, 0, 63, 59
2, 21452, Note_on_c, 0, 66, 0
2, 21477, Note_on_c, 0, 63, 0
2, 21507, Note_on_c, 0, 65, 58
2, 21576, Note_on_c, 0, 65, 0
2, 21597, Note_on_c, 0, 63, 58
2, 21606, Note_on_c, 0, 78, 75
2, 21681, Note_on_c, 0, 61, 60
2, 21682, Note_on_c, 0, 63, 0
2, 21727, Control_c, 0, 67, 9
2, 21741, Control_c, 0, 67, 14
2, 21746, Note_on_c, 0, 61, 0
2, 21756, Control_c, 0, 67, 20
2, 21772, Control_c, 0, 67, 23
2, 21778, Note_on_c, 0, 60, 52
2, 21786, Control_c, 0, 67, 24
2, 21860, Note_on_c, 0, 60, 0
2, 21889, Note_on_c, 0, 58, 54
2, 21916, Control_c, 0, 67, 25
2, 21946, Note_on_c, 0, 58, 0
2, 21957, Note_on_c, 0, 78, 0
2, 21972, Note_on_c, 0, 56, 53
2, 21977, Note_on_c, 0, 77, 60
2, 22045, Note_on_c, 0, 56, 0
2, 22070, Note_on_c, 0, 58, 56
2, 22110, Note_on_c, 0, 58, 0
2, 22145, Note_on_c, 0, 77, 0
2, 22147, Note_on_c, 0, 60, 55
2, 22149, Note_on_c, 0, 75, 62
2, 22189, Note_on_c, 0, 75, 0
2, 22190, Control_c, 0, 67, 26
2, 22205, Note_on_c, 0, 60, 0
2, 22221, Control_c, 0, 67, 26
2, 22236, Note_on_c, 0, 56, 45
2, 22285, Note_on_c, 0, 56, 0
2, 22297, Control_c, 0, 67, 26
2, 22330, Note_on_c, 0, 77, 60
2, 22331, Note_on_c, 0, 61, 55
2, 22358, Note_on_c, 0, 61, 0
2, 22389, Note_on_c, 0, 77, 0
2, 22409, Note_on_c, 0, 75, 55
2, 22464, Control_c, 0, 67, 25
2, 22472, Note_on_c, 0, 75, 0
2, 22490, Note_on_c, 0, 73, 56
2, 22491, Note_on_c, 0, 49, 55
2, 22509, Control_c, 0, 67, 24
2, 22522, Note_on_c, 0, 49, 0
2, 22555, Control_c, 0, 67, 24
2, 22560, Note_on_c, 0, 73, 0
2, 22575, Note_on_c, 0, 75, 58
2, 22629, Note_on_c, 0, 75, 0
2, 22638, Control_c, 0, 67, 24
2, 22654, Control_c, 0, 67, 25
2, 22669, Control_c, 0, 67, 26
2, 22670, Note_on_c, 0, 77, 61
2, 22678, Note_on_c, 0, 61, 64
2, 22685, Control_c, 0, 67, 26
2, 22715, Control_c, 0, 67, 27
2, 22732, Note_on_c, 0, 77, 0
2, 22746, Control_c, 0, 67, 28
2, 22764, Note_on_c, 0, 73, 53
2, 22807, Control_c, 0, 67, 27
2, 22822, Control_c, 0, 67, 26
2, 22834, Note_on_c, 0, 73, 0
2, 22837, Control_c, 0, 67, 26
2, 22852, Control_c, 0, 67, 24
2, 22861, Note_on_c, 0, 79, 52
2, 22867, Control_c, 0, 67, 24
2, 22882, Control_c, 0, 67, 23
2, 22898, Control_c, 0, 67, 22
2, 22912, Control_c, 0, 67, 21
2, 22927, Note_on_c, 0, 79, 0
2, 22931, Note_on_c, 0, 77, 64
2, 22943, Control_c, 0, 67, 21
2, 23004, Note_on_c, 0, 77, 0
2, 23013, Note_on_c, 0, 61, 0
2, 23019, Note_on_c, 0, 59, 61
2, 23020, Note_on_c, 0, 75, 62
2, 23091, Note_on_c, 0, 75, 0
2, 23099, Note_on_c, 0, 77, 60
2, 23111, Control_c, 0, 67, 20
2, 23127, Control_c, 0, 67, 19
2, 23142, Control_c, 0, 67, 19
2, 23152, Note_on_c, 0, 77, 0
2, 23178, Note_on_c, 0, 79, 68
2, 23180, Note_on_c, 0, 58, 70
2, 23180, Note_on_c, 0, 59, 0
2, 23211, Note_on_c, 0, 58, 0
2, 23234, Note_on_c, 0, 79, 0
2, 23266, Note_on_c, 0, 75, 63
2, 23278, Control_c, 0, 67, 19
2, 23339, Control_c, 0, 67, 20
2, 23342, Note_on_c, 0, 75, 0
2, 23343, Note_on_c, 0, 59, 69
2, 23352, Note_on_c, 0, 80, 66
2, 23380, Note_on_c, 0, 59, 0
2, 23406, Note_on_c, 0, 80, 0
2, 23437, Control_c, 0, 67, 21
2, 23446, Note_on_c, 0, 79, 65
2, 23498, Control_c, 0, 67, 21
2, 23519, Note_on_c, 0, 47, 67
2, 23526, Note_on_c, 0, 80, 66
2, 23534, Note_on_c, 0, 79, 0
2, 23547, Note_on_c, 0, 47, 0
2, 23590, Control_c, 0, 67, 22
2, 23597, Note_on_c, 0, 80, 0
2, 23605, Control_c, 0, 67, 23
2, 23613, Note_on_c, 0, 82, 66
2, 23635, Control_c, 0, 67, 23
2, 23651, Control_c, 0, 67, 24
2, 23666, Control_c, 0, 67, 24
2, 23680, Control_c, 0, 67, 25
2, 23711, Control_c, 0, 67, 26
2, 23712, Note_on_c, 0, 59, 59
2, 23716, Note_on_c, 0, 80, 62
2, 23727, Control_c, 0, 67, 27
2, 23747, Note_on_c, 0, 82, 0
2, 23756, Control_c, 0, 67, 28
2, 23772, Control_c, 0, 67, 28
2, 23791, Note_on_c, 0, 80, 0
2, 23792, Note_on_c, 0, 78, 62
2, 23802, Control_c, 0, 67, 29
2, 23833, Control_c, 0, 67, 29
2, 23844, Note_on_c, 0, 78, 0
2, 23872, Note_on_c, 0, 77, 63
2, 23895, Control_c, 0, 67, 29
2, 23925, Control_c, 0, 67, 28
2, 23942, Note_on_c, 0, 77, 0
2, 23955, Control_c, 0, 67, 28
2, 23958, Note_on_c, 0, 75, 61
2, 24031, Control_c, 0, 67, 29
2, 24033, Note_on_c, 0, 75, 0
2, 24046, Control_c, 0, 67, 29
2, 24046, Note_on_c, 0, 73, 58
2, 24047, Note_on_c, 0, 59, 0
2, 24052, Note_on_c, 0, 58, 50
2, 24061, Control_c, 0, 67, 31
2, 24076, Control_c, 0, 67, 32
2, 24092, Control_c, 0, 67, 38
2, 24107, Control_c, 0, 67, 58
2, 24110, Note_on_c, 0, 73, 0
2, 24127, Note_on_c, 0, 75, 57
2, 24130, Control_c, 0, 67, 77
2, 24145, Control_c, 0, 67, 93
2, 24160, Control_c, 0, 67, 100
2, 24176, Control_c, 0, 67, 103
2, 24191, Control_c, 0, 67, 104
2, 24206, Control_c, 0, 67, 105
2, 24215, Note_on_c, 0, 58, 0
2, 24218, Note_on_c, 0, 77, 64
2, 24221, Note_on_c, 0, 75, 0
2, 24226, Note_on_c, 0, 56, 48
2, 24263, Note_on_c, 0, 56, 0
2, 24277, Note_on_c, 0, 77, 0
2, 24290, Note_on_c, 0, 73, 61
2, 24364, Note_on_c, 0, 73, 0
2, 24405, Note_on_c, 0, 66, 56
2, 24411, Note_on_c, 0, 58, 42
2, 24465, Note_on_c, 0, 58, 0
2, 24498, Note_on_c, 0, 54, 44
2, 24540, Note_on_c, 0, 54, 0
2, 24554, Control_c, 0, 67, 104
2, 24560, Note_on_c, 0, 49, 40
2, 24570, Control_c, 0, 67, 103
2, 24585, Control_c, 0, 67, 103
2, 24599, Control_c, 0, 67, 102
2, 24607, Note_on_c, 0, 66, 0
2, 24634, Note_on_c, 0, 49, 0
2, 24645, Note_on_c, 0, 54, 53
2, 24676, Control_c, 0, 67, 102
2, 24692, Control_c, 0, 67, 101
2, 24696, Note_on_c, 0, 54, 0
2, 24725, Note_on_c, 0, 58, 57
2, 24746, Note_on_c, 0, 78, 67
2, 24776, Note_on_c, 0, 78, 0
2, 24807, Note_on_c, 0, 58, 0
2, 24825, Note_on_c, 0, 54, 50
2, 24902, Note_on_c, 0, 54, 0
2, 24919, Note_on_c, 0, 68, 70
2, 24925, Note_on_c, 0, 59, 57
2, 24976, Note_on_c, 0, 59, 0
2, 25025, Note_on_c, 0, 54, 62
2, 25079, Control_c, 0, 67, 102
2, 25081, Note_on_c, 0, 54, 0
2, 25104, Note_on_c, 0, 59, 61
2, 25131, Note_on_c, 0, 68, 0
2, 25179, Note_on_c, 0, 59, 0
2, 25186, Control_c, 0, 67, 101
2, 25196, Note_on_c, 0, 54, 62
2, 25201, Control_c, 0, 67, 100
2, 25217, Control_c, 0, 67, 100
2, 25242, Note_on_c, 0, 54, 0
2, 25269, Note_on_c, 0, 78, 71
2, 25277, Control_c, 0, 67, 99
2, 25277, Note_on_c, 0, 59, 55
2, 25293, Control_c, 0, 67, 98
2, 25296, Note_on_c, 0, 78, 0
2, 25314, Note_on_c, 0, 59, 0
2, 25360, Note_on_c, 0, 54, 56
2, 25412, Note_on_c, 0, 54, 0
2, 25414, Control_c, 0, 67, 99
2, 25432, Note_on_c, 0, 70, 71
2, 25439, Note_on_c, 0, 61, 65
2, 25516, Note_on_c, 0, 61, 0
2, 25532, Note_on_c, 0, 54, 61
2, 25604, Note_on_c, 0, 61, 56
2, 25608, Note_on_c, 0, 54, 0
2, 25667, Note_on_c, 0, 70, 0
2, 25700, Note_on_c, 0, 54, 58
2, 25700, Note_on_c, 0, 61, 0
2, 25774, Note_on_c, 0, 54, 0
2, 25785, Note_on_c, 0, 61, 65
2, 25799, Note_on_c, 0, 78, 74
2, 25825, Note_on_c, 0, 78, 0
2, 25845, Note_on_c, 0, 61, 0
2, 25862, Note_on_c, 0, 54, 61
2, 25908, Control_c, 0, 67, 100
2, 25938, Note_on_c, 0, 54, 0
2, 25959, Note_on_c, 0, 63, 65
2, 25971, Note_on_c, 0, 71, 71
2, 25999, Control_c, 0, 67, 100
2, 26036, Note_on_c, 0, 63, 0
2, 26041, Note_on_c, 0, 54, 63
2, 26075, Control_c, 0, 67, 101
2, 26117, Note_on_c, 0, 54, 0
2, 26141, Note_on_c, 0, 63, 65
2, 26168, Note_on_c, 0, 71, 0
2, 26207, Note_on_c, 0, 63, 0
2, 26215, Note_on_c, 0, 54, 61
2, 26291, Note_on_c, 0, 54, 0
2, 26306, Note_on_c, 0, 78, 74
2, 26311, Note_on_c, 0, 63, 68
2, 26332, Note_on_c, 0, 78, 0
2, 26353, Note_on_c, 0, 63, 0
2, 26365, Control_c, 0, 67, 102
2, 26386, Note_on_c, 0, 54, 57
2, 26411, Control_c, 0, 67, 102
2, 26449, Control_c, 0, 67, 103
2, 26464, Control_c, 0, 67, 103
2, 26475, Note_on_c, 0, 54, 0
2, 26479, Control_c, 0, 67, 104
2, 26479, Note_on_c, 0, 70, 72
2, 26487, Note_on_c, 0, 61, 66
2, 26525, Control_c, 0, 67, 105
2, 26555, Control_c, 0, 67, 105
2, 26565, Note_on_c, 0, 61, 0
2, 26571, Note_on_c, 0, 54, 59
2, 26651, Note_on_c, 0, 54, 0
2, 26660, Note_on_c, 0, 61, 58
2, 26678, Note_on_c, 0, 70, 0
2, 26722, Control_c, 0, 67, 105
2, 26724, Note_on_c, 0, 61, 0
2, 26738, Control_c, 0, 67, 104
2, 26746, Note_on_c, 0, 54, 56
2, 26769, Control_c, 0, 67, 103
2, 26798, Control_c, 0, 67, 103
2, 26801, Note_on_c, 0, 54, 0
2, 26814, Control_c, 0, 67, 102
2, 26821, Note_on_c, 0, 78, 75
2, 26837, Note_on_c, 0, 61, 61
2, 26848, Note_on_c, 0, 78, 0
2, 26885, Note_on_c, 0, 61, 0
2, 26913, Note_on_c, 0, 54, 61
2, 26998, Note_on_c, 0, 68, 64
2, 27007, Note_on_c, 0, 59, 60
2, 27014, Note_on_c, 0, 54, 0
2, 27057, Control_c, 0, 67, 103
2, 27085, Note_on_c, 0, 59, 0
2, 27098, Note_on_c, 0, 58, 61
2, 27103, Control_c, 0, 67, 103
2, 27134, Control_c, 0, 67, 104
2, 27174, Note_on_c, 0, 58, 0
2, 27174, Note_on_c, 0, 68, 0
2, 27193, Note_on_c, 0, 56, 65
2, 27232, Control_c, 0, 67, 103
2, 27248, Control_c, 0, 67, 103
2, 27263, Control_c, 0, 67, 102
2, 27280, Note_on_c, 0, 56, 0
2, 27281, Note_on_c, 0, 58, 59
2, 27307, Control_c, 0, 67, 102
2, 27329, Note_on_c, 0, 58, 0
2, 27338, Note_on_c, 0, 77, 72
2, 27354, Note_on_c, 0, 59, 58
2, 27372, Note_on_c, 0, 77, 0
2, 27419, Note_on_c, 0, 59, 0
2, 27434, Note_on_c, 0, 56, 54
2, 27459, Control_c, 0, 67, 102
2, 27490, Note_on_c, 0, 56, 0
2, 27522, Note_on_c, 0, 58, 56
2, 27526, Note_on_c, 0, 66, 56
2, 27605, Note_on_c, 0, 58, 0
2, 27618, Note_on_c, 0, 56, 63
2, 27690, Note_on_c, 0, 56, 0
2, 27703, Note_on_c, 0, 54, 60
2, 27708, Note_on_c, 0, 66, 0
2, 27733, Control_c, 0, 67, 102
2, 27762, Control_c, 0, 67, 101
2, 27793, Note_on_c, 0, 54, 0
2, 27805, Note_on_c, 0, 56, 55
2, 27854, Control_c, 0, 67, 100
2, 27861, Note_on_c, 0, 78, 80
2, 27870, Note_on_c, 0, 56, 0
2, 27886, Note_on_c, 0, 58, 60
2, 27900, Control_c, 0, 67, 100
2, 27916, Control_c, 0, 67, 99
2, 27931, Control_c, 0, 67, 98
2, 27946, Control_c, 0, 67, 95
2, 27969, Control_c, 0, 67, 91
2, 27975, Note_on_c, 0, 58, 0
2, 27981, Note_on_c, 0, 54, 56
2, 27983, Control_c, 0, 67, 85
2, 27998, Control_c, 0, 67, 78
2, 28014, Control_c, 0, 67, 73
2, 28029, Control_c, 0, 67, 60
2, 28045, Control_c, 0, 67, 45
2, 28060, Control_c, 0, 67, 34
2, 28068, Note_on_c, 0, 54, 0
2, 28070, Note_on_c, 0, 56, 59
2, 28075, Control_c, 0, 67, 25
2, 28091, Control_c, 0, 67, 14
2, 28105, Control_c, 0, 67, 0
2, 28127, Note_on_c, 0, 56, 0
2, 28153, Note_on_c, 0, 58, 62
2, 28237, Note_on_c, 0, 58, 0
2, 28253, Note_on_c, 0, 56, 61
2, 28260, Note_on_c, 0, 78, 0
2, 28262, Note_on_c, 0, 77, 66
2, 28338, Note_on_c, 0, 54, 62
2, 28341, Note_on_c, 0, 56, 0
2, 28352, Note_on_c, 0, 75, 73
2, 28391, Note_on_c, 0, 77, 0
2, 28399, Note_on_c, 0, 54, 0
2, 28432, Note_on_c, 0, 53, 56
2, 28441, Note_on_c, 0, 73, 74
2, 28446, Note_on_c, 0, 75, 0
2, 28515, Note_on_c, 0, 53, 0
2, 28522, Note_on_c, 0, 73, 0
2, 28525, Note_on_c, 0, 75, 71
2, 28527, Note_on_c, 0, 51, 62
2, 28619, Note_on_c, 0, 51, 0
2, 28619, Note_on_c, 0, 75, 0
2, 28630, Note_on_c, 0, 49, 55
2, 28632, Note_on_c, 0, 77, 69
2, 28726, Note_on_c, 0, 77, 0
2, 28732, Note_on_c, 0, 73, 68
2, 28802, Note_on_c, 0, 73, 0
2, 28819, Note_on_c, 0, 49, 0
2, 28819, Note_on_c, 0, 68, 69
2, 28886, Note_on_c, 0, 73, 70
2, 28888, Note_on_c, 0, 68, 0
2, 28967, Note_on_c, 0, 73, 0
2, 28984, Note_on_c, 0, 77, 72
2, 28986, Note_on_c, 0, 61, 67
2, 29017, Note_on_c, 0, 61, 0
2, 29051, Note_on_c, 0, 77, 0
2, 29071, Note_on_c, 0, 73, 63
2, 29130, Note_on_c, 0, 73, 0
2, 29153, Note_on_c, 0, 51, 59
2, 29156, Note_on_c, 0, 78, 63
2, 29212, Note_on_c, 0, 78, 0
2, 29236, Note_on_c, 0, 73, 67
2, 29309, Note_on_c, 0, 73, 0
2, 29321, Note_on_c, 0, 51, 0
2, 29325, Note_on_c, 0, 78, 71
2, 29392, Note_on_c, 0, 78, 0
2, 29403, Note_on_c, 0, 73, 68
2, 29457, Note_on_c, 0, 73, 0
2, 29497, Note_on_c, 0, 61, 72
2, 29501, Note_on_c, 0, 78, 77
2, 29525, Note_on_c, 0, 61, 0
2, 29554, Note_on_c, 0, 78, 0
2, 29585, Note_on_c, 0, 73, 67
2, 29652, Note_on_c, 0, 73, 0
2, 29662, Note_on_c, 0, 53, 70
2, 29662, Note_on_c, 0, 80, 76
2, 29725, Note_on_c, 0, 80, 0
2, 29753, Note_on_c, 0, 73, 69
2, 29821, Note_on_c, 0, 73, 0
2, 29822, Note_on_c, 0, 53, 0
2, 29828, Note_on_c, 0, 80, 81
2, 29891, Note_on_c, 0, 80, 0
2, 29911, Note_on_c, 0, 73, 76
2, 29982, Note_on_c, 0, 73, 0
2, 29992, Note_on_c, 0, 80, 81
2, 30000, Note_on_c, 0, 61, 72
2, 30031, Note_on_c, 0, 61, 0
2, 30050, Note_on_c, 0, 80, 0
2, 30080, Note_on_c, 0, 73, 74
2, 30153, Note_on_c, 0, 73, 0
2, 30166, Note_on_c, 0, 82, 82
2, 30176, Note_on_c, 0, 54, 64
2, 30236, Note_on_c, 0, 82, 0
2, 30267, Note_on_c, 0, 73, 73
2, 30337, Note_on_c, 0, 73, 0
2, 30352, Note_on_c, 0, 82, 83
2, 30373, Note_on_c, 0, 54, 0
2, 30412, Note_on_c, 0, 82, 0
2, 30436, Note_on_c, 0, 73, 73
2, 30489, Note_on_c, 0, 73, 0
2, 30517, Note_on_c, 0, 82, 83
2, 30528, Note_on_c, 0, 61, 72
2, 30554, Note_on_c, 0, 61, 0
2, 30574, Note_on_c, 0, 82, 0
2, 30596, Note_on_c, 0, 73, 72
2, 30665, Note_on_c, 0, 73, 0
2, 30688, Note_on_c, 0, 80, 76
2, 30693, Note_on_c, 0, 53, 67
2, 30751, Note_on_c, 0, 80, 0
2, 30775, Note_on_c, 0, 73, 70
2, 30819, Note_on_c, 0, 53, 0
2, 30832, Note_on_c, 0, 73, 0
2, 30856, Note_on_c, 0, 80, 78
2, 30915, Note_on_c, 0, 80, 0
2, 30935, Note_on_c, 0, 73, 69
2, 30985, Note_on_c, 0, 73, 0
2, 31022, Note_on_c, 0, 80, 74
2, 31034, Note_on_c, 0, 61, 67
2, 31063, Note_on_c, 0, 61, 0
2, 31099, Note_on_c, 0, 80, 0
2, 31102, Note_on_c, 0, 73, 71
2, 31172, Note_on_c, 0, 73, 0
2, 31202, Note_on_c, 0, 78, 66
2, 31205, Note_on_c, 0, 51, 60
2, 31285, Note_on_c, 0, 77, 70
2, 31286, Note_on_c, 0, 78, 0
2, 31365, Note_on_c, 0, 77, 0
2, 31368, Note_on_c, 0, 51, 0
2, 31375, Note_on_c, 0, 75, 67
2, 31447, Note_on_c, 0, 75, 0
2, 31453, Note_on_c, 0, 77, 70
2, 31523, Note_on_c, 0, 77, 0
2, 31540, Note_on_c, 0, 78, 67
2, 31551, Note_on_c, 0, 60, 64
2, 31582, Note_on_c, 0, 60, 0
2, 31619, Note_on_c, 0, 78, 0
2, 31631, Note_on_c, 0, 75, 62
2, 31676, Note_on_c, 0, 75, 0
2, 31716, Note_on_c, 0, 77, 56
2, 31727, Note_on_c, 0, 49, 57
2, 31797, Note_on_c, 0, 77, 0
2, 31805, Note_on_c, 0, 75, 64
2, 31881, Note_on_c, 0, 75, 0
2, 31890, Note_on_c, 0, 73, 62
2, 31907, Note_on_c, 0, 49, 0
2, 31974, Note_on_c, 0, 73, 0
2, 31977, Note_on_c, 0, 75, 63
2, 32048, Note_on_c, 0, 75, 0
2, 32066, Note_on_c, 0, 61, 68
2, 32073, Note_on_c, 0, 77, 63
2, 32099, Note_on_c, 0, 61, 0
2, 32151, Note_on_c, 0, 77, 0
2, 32158, Note_on_c, 0, 73, 64
2, 32241, Note_on_c, 0, 73, 0
2, 32249, Note_on_c, 0, 54, 67
2, 32249, Note_on_c, 0, 75, 63
2, 32282, Note_on_c, 0, 54, 0
2, 32298, Note_on_c, 0, 75, 0
2, 32334, Note_on_c, 0, 77, 65
2, 32409, Note_on_c, 0, 53, 68
2, 32411, Note_on_c, 0, 77, 0
2, 32417, Note_on_c, 0, 75, 66
2, 32438, Note_on_c, 0, 53, 0
2, 32494, Note_on_c, 0, 73, 64
2, 32498, Note_on_c, 0, 75, 0
2, 32540, Note_on_c, 0, 73, 0
2, 32580, Note_on_c, 0, 51, 64
2, 32591, Note_on_c, 0, 72, 61
2, 32612, Note_on_c, 0, 51, 0
2, 32634, Note_on_c, 0, 72, 0
2, 32667, Note_on_c, 0, 70, 53
2, 32708, Note_on_c, 0, 70, 0
2, 32742, Note_on_c, 0, 56, 63
2, 32760, Note_on_c, 0, 72, 54
2, 32777, Note_on_c, 0, 56, 0
2, 32811, Note_on_c, 0, 72, 0
2, 32840, Note_on_c, 0, 68, 53
2, 32878, Note_on_c, 0, 68, 0
2, 32920, Note_on_c, 0, 66, 53
2, 32943, Note_on_c, 0, 66, 0
2, 32994, Note_on_c, 0, 68, 58
2, 33029, Note_on_c, 0, 68, 0
2, 33073, Note_on_c, 0, 63, 51
2, 33107, Note_on_c, 0, 63, 0
2, 33150, Note_on_c, 0, 68, 52
2, 33196, Note_on_c, 0, 68, 0
2, 33221, Note_on_c, 0, 56, 62
2, 33239, Note_on_c, 0, 72, 62
2, 33256, Note_on_c, 0, 56, 0
2, 33290, Note_on_c, 0, 72, 0
2, 33315, Note_on_c, 0, 68, 58
2, 33361, Note_on_c, 0, 68, 0
2, 33399, Note_on_c, 0, 66, 57
2, 33434, Note_on_c, 0, 66, 0
2, 33476, Note_on_c, 0, 68, 52
2, 33511, Note_on_c, 0, 68, 0
2, 33556, Note_on_c, 0, 63, 50
2, 33592, Note_on_c, 0, 63, 0
2, 33641, Note_on_c, 0, 68, 48
2, 33692, Note_on_c, 0, 68, 0
2, 33714, Note_on_c, 0, 56, 49
2, 33731, Note_on_c, 0, 73, 59
2, 33765, Note_on_c, 0, 56, 0
2, 33798, Note_on_c, 0, 73, 0
2, 33817, Note_on_c, 0, 68, 54
2, 33860, Note_on_c, 0, 68, 0
2, 33897, Note_on_c, 0, 65, 49
2, 33933, Note_on_c, 0, 65, 0
2, 33987, Note_on_c, 0, 68, 46
2, 34017, Note_on_c, 0, 68, 0
2, 34047, Note_on_c, 0, 61, 49
2, 34083, Note_on_c, 0, 61, 0
2, 34142, Note_on_c, 0, 68, 51
2, 34191, Note_on_c, 0, 68, 0
2, 34220, Note_on_c, 0, 56, 52
2, 34229, Note_on_c, 0, 73, 66
2, 34258, Note_on_c, 0, 56, 0
2, 34299, Note_on_c, 0, 73, 0
2, 34317, Note_on_c, 0, 68, 64
2, 34351, Note_on_c, 0, 68, 0
2, 34391, Note_on_c, 0, 65, 58
2, 34425, Note_on_c, 0, 65, 0
2, 34472, Note_on_c, 0, 68, 62
2, 34508, Note_on_c, 0, 68, 0
2, 34543, Note_on_c, 0, 61, 58
2, 34578, Note_on_c, 0, 61, 0
2, 34627, Note_on_c, 0, 68, 61
2, 34677, Note_on_c, 0, 68, 0
2, 34712, Note_on_c, 0, 78, 80
2, 34716, Note_on_c, 0, 56, 57
2, 34757, Note_on_c, 0, 56, 0
2, 34786, Note_on_c, 0, 78, 0
2, 34808, Note_on_c, 0, 68, 60
2, 34837, Note_on_c, 0, 68, 0
2, 34900, Note_on_c, 0, 63, 58
2, 34933, Note_on_c, 0, 63, 0
2, 34969, Note_on_c, 0, 68, 54
2, 34999, Note_on_c, 0, 68, 0
2, 35047, Note_on_c, 0, 60, 64
2, 35077, Note_on_c, 0, 60, 0
2, 35129, Note_on_c, 0, 68, 61
2, 35176, Note_on_c, 0, 68, 0
2, 35208, Note_on_c, 0, 56, 62
2, 35218, Note_on_c, 0, 78, 73
2, 35254, Note_on_c, 0, 56, 0
2, 35303, Note_on_c, 0, 78, 0
2, 35306, Note_on_c, 0, 68, 62
2, 35348, Note_on_c, 0, 68, 0
2, 35383, Note_on_c, 0, 63, 60
2, 35422, Note_on_c, 0, 63, 0
2, 35467, Note_on_c, 0, 68, 58
2, 35503, Note_on_c, 0, 68, 0
2, 35545, Note_on_c, 0, 60, 53
2, 35587, Note_on_c, 0, 60, 0
2, 35627, Note_on_c, 0, 68, 51
2, 35690, Note_on_c, 0, 68, 0
2, 35718, Note_on_c, 0, 56, 55
2, 35720, Note_on_c, 0, 77, 67
2, 35761, Note_on_c, 0, 56, 0
2, 35807, Note_on_c, 0, 77, 0
2, 35813, Note_on_c, 0, 68, 56
2, 35860, Note_on_c, 0, 68, 0
2, 35893, Note_on_c, 0, 65, 55
2, 35929, Note_on_c, 0, 65, 0
2, 35988, Note_on_c, 0, 68, 52
2, 36020, Note_on_c, 0, 68, 0
2, 36053, Note_on_c, 0, 61, 61
2, 36092, Note_on_c, 0, 61, 0
2, 36128, Note_on_c, 0, 68, 59
2, 36183, Note_on_c, 0, 68, 0
2, 36214, Note_on_c, 0, 77, 77
2, 36221, Note_on_c, 0, 56, 62
2, 36268, Note_on_c, 0, 56, 0
2, 36305, Note_on_c, 0, 77, 0
2, 36307, Note_on_c, 0, 68, 64
2, 36345, Note_on_c, 0, 68, 0
2, 36388, Note_on_c, 0, 65, 62
2, 36430, Note_on_c, 0, 65, 0
2, 36467, Note_on_c, 0, 68, 66
2, 36503, Note_on_c, 0, 68, 0
2, 36551, Note_on_c, 0, 61, 64
2, 36584, Note_on_c, 0, 61, 0
2, 36622, Note_on_c, 0, 68, 64
2, 36701, Note_on_c, 0, 68, 0
2, 36715, Note_on_c, 0, 56, 56
2, 36719, Note_on_c, 0, 79, 78
2, 36763, Note_on_c, 0, 56, 0
2, 36799, Note_on_c, 0, 79, 0
2, 36816, Note_on_c, 0, 70, 67
2, 36848, Note_on_c, 0, 70, 0
2, 36892, Note_on_c, 0, 64, 66
2, 36925, Note_on_c, 0, 64, 0
2, 36975, Note_on_c, 0, 70, 68
2, 37002, Note_on_c, 0, 70, 0
2, 37055, Note_on_c, 0, 61, 66
2, 37085, Note_on_c, 0, 61, 0
2, 37133, Note_on_c, 0, 70, 64
2, 37195, Note_on_c, 0, 70, 0
2, 37221, Note_on_c, 0, 79, 79
2, 37222, Note_on_c, 0, 56, 65
2, 37261, Note_on_c, 0, 56, 0
2, 37309, Note_on_c, 0, 79, 0
2, 37314, Note_on_c, 0, 70, 62
2, 37357, Note_on_c, 0, 70, 0
2, 37393, Note_on_c, 0, 64, 67
2, 37424, Note_on_c, 0, 64, 0
2, 37486, Note_on_c, 0, 70, 58
2, 37523, Note_on_c, 0, 70, 0
2, 37561, Note_on_c, 0, 61, 58
2, 37595, Note_on_c, 0, 61, 0
2, 37643, Note_on_c, 0, 70, 59
2, 37685, Note_on_c, 0, 70, 0
2, 37717, Note_on_c, 0, 56, 62
2, 37736, Note_on_c, 0, 80, 74
2, 37763, Note_on_c, 0, 56, 0
2, 37816, Note_on_c, 0, 80, 0
2, 37822, Note_on_c, 0, 72, 58
2, 37858, Note_on_c, 0, 72, 0
2, 37893, Note_on_c, 0, 63, 58
2, 37932, Note_on_c, 0, 63, 0
2, 37984, Note_on_c, 0, 72, 53
2, 38009, Note_on_c, 0, 72, 0
2, 38069, Note_on_c, 0, 60, 63
2, 38098, Note_on_c, 0, 60, 0
2, 38151, Note_on_c, 0, 72, 56
2, 38209, Note_on_c, 0, 72, 0
2, 38231, Note_on_c, 0, 54, 67
2, 38237, Note_on_c, 0, 80, 76
2, 38274, Note_on_c, 0, 54, 0
2, 38330, Note_on_c, 0, 80, 0
2, 38333, Note_on_c, 0, 72, 65
2, 38369, Note_on_c, 0, 72, 0
2, 38418, Note_on_c, 0, 63, 67
2, 38451, Note_on_c, 0, 63, 0
2, 38499, Note_on_c, 0, 72, 61
2, 38531, Note_on_c, 0, 72, 0
2, 38584, Note_on_c, 0, 60, 66
2, 38620, Note_on_c, 0, 60, 0
2, 38681, Note_on_c, 0, 72, 61
2, 38727, Note_on_c, 0, 72, 0
2, 38782, Note_on_c, 0, 53, 53
2, 38799, Note_on_c, 0, 80, 67
2, 38872, Note_on_c, 0, 53, 0
2, 38887, Note_on_c, 0, 73, 56
2, 38892, Note_on_c, 0, 80, 0
2, 38938, Note_on_c, 0, 73, 0
2, 38975, Note_on_c, 0, 65, 57
2, 39008, Note_on_c, 0, 65, 0
2, 39052, Note_on_c, 0, 68, 69
2, 39089, Note_on_c, 0, 68, 0
2, 39137, Note_on_c, 0, 61, 66
2, 39170, Note_on_c, 0, 61, 0
2, 39216, Note_on_c, 0, 73, 64
2, 39252, Note_on_c, 0, 73, 0
2, 39289, Note_on_c, 0, 56, 72
2, 39347, Note_on_c, 0, 56, 0
2, 39377, Note_on_c, 0, 77, 74
2, 39412, Note_on_c, 0, 77, 0
2, 39458, Note_on_c, 0, 53, 71
2, 39506, Note_on_c, 0, 53, 0
2, 39537, Note_on_c, 0, 80, 76
2, 39593, Note_on_c, 0, 80, 0
2, 39624, Note_on_c, 0, 51, 73
2, 39697, Note_on_c, 0, 51, 0
2, 39709, Note_on_c, 0, 82, 74
2, 39805, Note_on_c, 0, 50, 59
2, 39815, Note_on_c, 0, 82, 0
2, 39820, Note_on_c, 0, 83, 76
2, 39882, Note_on_c, 0, 50, 0
2, 39914, Note_on_c, 0, 82, 81
2, 39983, Note_on_c, 0, 83, 0
2, 39992, Note_on_c, 0, 53, 62
2, 40000, Note_on_c, 0, 80, 79
2, 40030, Note_on_c, 0, 53, 0
2, 40056, Note_on_c, 0, 82, 0
2, 40075, Note_on_c, 0, 78, 79
2, 40097, Note_on_c, 0, 80, 0
2, 40142, Note_on_c, 0, 78, 0
2, 40147, Note_on_c, 0, 58, 68
2, 40154, Note_on_c, 0, 77, 81
2, 40197, Note_on_c, 0, 58, 0
2, 40228, Note_on_c, 0, 77, 0
2, 40229, Note_on_c, 0, 75, 81
2, 40311, Note_on_c, 0, 75, 0
2, 40322, Note_on_c, 0, 62, 73
2, 40331, Note_on_c, 0, 77, 83
2, 40374, Note_on_c, 0, 62, 0
2, 40411, Note_on_c, 0, 78, 81
2, 40416, Note_on_c, 0, 77, 0
2, 40492, Note_on_c, 0, 65, 69
2, 40497, Note_on_c, 0, 80, 81
2, 40515, Note_on_c, 0, 78, 0
2, 40561, Note_on_c, 0, 65, 0
2, 40582, Note_on_c, 0, 83, 79
2, 40584, Note_on_c, 0, 80, 0
2, 40658, Note_on_c, 0, 68, 78
2, 40662, Note_on_c, 0, 82, 76
2, 40690, Note_on_c, 0, 83, 0
2, 40700, Note_on_c, 0, 68, 0
2, 40738, Note_on_c, 0, 80, 74
2, 40751, Note_on_c, 0, 82, 0
2, 40802, Note_on_c, 0, 80, 0
2, 40831, Note_on_c, 0, 66, 63
2, 40833, Note_on_c, 0, 82, 73
2, 40873, Note_on_c, 0, 66, 0
2, 40919, Note_on_c, 0, 75, 68
2, 40931, Note_on_c, 0, 82, 0
2, 40961, Note_on_c, 0, 75, 0
2, 40995, Note_on_c, 0, 63, 64
2, 41038, Note_on_c, 0, 63, 0
2, 41088, Note_on_c, 0, 66, 60
2, 41127, Note_on_c, 0, 66, 0
2, 41158, Note_on_c, 0, 58, 65
2, 41195, Note_on_c, 0, 58, 0
2, 41228, Note_on_c, 0, 70, 63
2, 41263, Note_on_c, 0, 70, 0
2, 41315, Note_on_c, 0, 54, 62
2, 41352, Note_on_c, 0, 54, 0
2, 41387, Note_on_c, 0, 75, 73
2, 41422, Note_on_c, 0, 75, 0
2, 41478, Note_on_c, 0, 51, 70
2, 41518, Note_on_c, 0, 51, 0
2, 41540, Note_on_c, 0, 78, 72
2, 41592, Note_on_c, 0, 78, 0
2, 41640, Note_on_c, 0, 49, 63
2, 41693, Note_on_c, 0, 49, 0
2, 41730, Note_on_c, 0, 80, 62
2, 41809, Note_on_c, 0, 80, 0
2, 41838, Note_on_c, 0, 48, 48
2, 41849, Note_on_c, 0, 81, 55
2, 41902, Note_on_c, 0, 48, 0
2, 41934, Note_on_c, 0, 80, 65
2, 41980, Note_on_c, 0, 81, 0
2, 42014, Note_on_c, 0, 51, 54
2, 42028, Note_on_c, 0, 78, 65
2, 42045, Note_on_c, 0, 80, 0
2, 42056, Note_on_c, 0, 51, 0
2, 42083, Note_on_c, 0, 78, 0
2, 42101, Note_on_c, 0, 76, 63
2, 42173, Note_on_c, 0, 56, 60
2, 42173, Note_on_c, 0, 76, 0
2, 42179, Note_on_c, 0, 75, 68
2, 42221, Note_on_c, 0, 56, 0
2, 42257, Note_on_c, 0, 73, 68
2, 42261, Note_on_c, 0, 75, 0
2, 42335, Note_on_c, 0, 60, 68
2, 42348, Note_on_c, 0, 75, 65
2, 42361, Note_on_c, 0, 73, 0
2, 42388, Note_on_c, 0, 60, 0
2, 42392, Note_on_c, 0, 75, 0
2, 42426, Note_on_c, 0, 76, 70
2, 42506, Note_on_c, 0, 63, 67
2, 42516, Note_on_c, 0, 76, 0
2, 42519, Note_on_c, 0, 78, 65
2, 42557, Note_on_c, 0, 63, 0
2, 42587, Note_on_c, 0, 78, 0
2, 42615, Note_on_c, 0, 81, 56
2, 42688, Note_on_c, 0, 66, 64
2, 42689, Note_on_c, 0, 81, 0
2, 42698, Note_on_c, 0, 80, 60
2, 42741, Note_on_c, 0, 66, 0
2, 42782, Note_on_c, 0, 78, 60
2, 42783, Note_on_c, 0, 80, 0
2, 42839, Note_on_c, 0, 78, 0
2, 42887, Note_on_c, 0, 80, 62
2, 42891, Note_on_c, 0, 64, 42
2, 42940, Note_on_c, 0, 64, 0
2, 42968, Note_on_c, 0, 73, 61
2, 42971, Note_on_c, 0, 80, 0
2, 43000, Note_on_c, 0, 73, 0
2, 43058, Note_on_c, 0, 61, 56
2, 43097, Note_on_c, 0, 61, 0
2, 43136, Note_on_c, 0, 76, 62
2, 43175, Note_on_c, 0, 76, 0
2, 43218, Note_on_c, 0, 57, 65
2, 43258, Note_on_c, 0, 57, 0
2, 43286, Note_on_c, 0, 73, 65
2, 43330, Note_on_c, 0, 73, 0
2, 43384, Note_on_c, 0, 54, 69
2, 43421, Note_on_c, 0, 54, 0
2, 43460, Note_on_c, 0, 69, 68
2, 43493, Note_on_c, 0, 69, 0
2, 43549, Note_on_c, 0, 63, 70
2, 43582, Note_on_c, 0, 63, 0
2, 43612, Note_on_c, 0, 66, 69
2, 43647, Note_on_c, 0, 66, 0
2, 43704, Note_on_c, 0, 60, 73
2, 43738, Note_on_c, 0, 60, 0
2, 43778, Note_on_c, 0, 75, 69
2, 43812, Note_on_c, 0, 75, 0
2, 43854, Note_on_c, 0, 52, 70
2, 43913, Note_on_c, 0, 52, 0
2, 43945, Note_on_c, 0, 68, 63
2, 43981, Note_on_c, 0, 68, 0
2, 44021, Note_on_c, 0, 61, 73
2, 44052, Note_on_c, 0, 61, 0
2, 44108, Note_on_c, 0, 64, 61
2, 44139, Note_on_c, 0, 64, 0
2, 44181, Note_on_c, 0, 57, 70
2, 44215, Note_on_c, 0, 57, 0
2, 44261, Note_on_c, 0, 73, 63
2, 44303, Note_on_c, 0, 73, 0
2, 44354, Note_on_c, 0, 54, 62
2, 44395, Note_on_c, 0, 54, 0
2, 44417, Note_on_c, 0, 69, 58
2, 44455, Note_on_c, 0, 69, 0
2, 44506, Note_on_c, 0, 51, 67
2, 44545, Note_on_c, 0, 51, 0
2, 44582, Note_on_c, 0, 66, 50
2, 44617, Note_on_c, 0, 66, 0
2, 44674, Note_on_c, 0, 48, 51
2, 44713, Note_on_c, 0, 48, 0
2, 44735, Control_c, 0, 67, 12
2, 44750, Control_c, 0, 67, 16
2, 44751, Note_on_c, 0, 63, 52
2, 44765, Control_c, 0, 67, 19
2, 44780, Control_c, 0, 67, 25
2, 44795, Control_c, 0, 67, 31
2, 44799, Note_on_c, 0, 63, 0
2, 44811, Control_c, 0, 67, 38
2, 44826, Control_c, 0, 67, 43
2, 44841, Control_c, 0, 67, 45
2, 44860, Note_on_c, 0, 44, 50
2, 44863, Control_c, 0, 67, 48
2, 44873, Note_on_c, 0, 60, 54
2, 44878, Control_c, 0, 67, 50
2, 44894, Control_c, 0, 67, 51
2, 44909, Control_c, 0, 67, 52
2, 44909, Note_on_c, 0, 44, 0
2, 44933, Note_on_c, 0, 60, 0
2, 44970, Note_on_c, 0, 56, 51
2, 44985, Control_c, 0, 67, 51
2, 45000, Control_c, 0, 67, 50
2, 45003, Note_on_c, 0, 56, 0
2, 45016, Control_c, 0, 67, 49
2, 45031, Control_c, 0, 67, 48
2, 45034, Note_on_c, 0, 54, 53
2, 45047, Control_c, 0, 67, 48
2, 45061, Control_c, 0, 67, 46
2, 45062, Note_on_c, 0, 54, 0
2, 45076, Control_c, 0, 67, 45
2, 45092, Control_c, 0, 67, 43
2, 45131, Note_on_c, 0, 56, 46
2, 45162, Note_on_c, 0, 56, 0
2, 45187, Note_on_c, 0, 51, 65
2, 45216, Note_on_c, 0, 51, 0
2, 45271, Note_on_c, 0, 56, 45
2, 45317, Note_on_c, 0, 56, 0
2, 45345, Note_on_c, 0, 44, 59
2, 45358, Note_on_c, 0, 60, 59
2, 45379, Note_on_c, 0, 44, 0
2, 45396, Control_c, 0, 67, 43
2, 45412, Note_on_c, 0, 60, 0
2, 45442, Note_on_c, 0, 56, 49
2, 45472, Control_c, 0, 67, 43
2, 45483, Note_on_c, 0, 56, 0
2, 45506, Note_on_c, 0, 54, 61
2, 45539, Note_on_c, 0, 54, 0
2, 45595, Note_on_c, 0, 56, 53
2, 45639, Note_on_c, 0, 56, 0
2, 45665, Note_on_c, 0, 51, 60
2, 45701, Note_on_c, 0, 51, 0
2, 45755, Note_on_c, 0, 56, 48
2, 45798, Control_c, 0, 67, 44
2, 45800, Note_on_c, 0, 56, 0
2, 45829, Control_c, 0, 67, 45
2, 45829, Note_on_c, 0, 44, 62
2, 45839, Note_on_c, 0, 61, 59
2, 45869, Note_on_c, 0, 44, 0
2, 45890, Note_on_c, 0, 61, 0
2, 45926, Note_on_c, 0, 56, 52
2, 45967, Note_on_c, 0, 56, 0
2, 45997, Note_on_c, 0, 53, 63
2, 46041, Note_on_c, 0, 53, 0
2, 46080, Note_on_c, 0, 56, 52
2, 46119, Note_on_c, 0, 56, 0
2, 46149, Control_c, 0, 67, 44
2, 46162, Note_on_c, 0, 49, 58
2, 46197, Note_on_c, 0, 49, 0
2, 46238, Note_on_c, 0, 56, 48
2, 46294, Note_on_c, 0, 56, 0
2, 46318, Note_on_c, 0, 44, 63
2, 46334, Note_on_c, 0, 61, 59
2, 46359, Note_on_c, 0, 44, 0
2, 46422, Note_on_c, 0, 56, 62
2, 46425, Note_on_c, 0, 61, 0
2, 46462, Note_on_c, 0, 56, 0
2, 46496, Note_on_c, 0, 53, 65
2, 46532, Note_on_c, 0, 53, 0
2, 46574, Note_on_c, 0, 56, 60
2, 46607, Note_on_c, 0, 56, 0
2, 46658, Note_on_c, 0, 49, 64
2, 46695, Note_on_c, 0, 49, 0
2, 46735, Note_on_c, 0, 56, 57
2, 46781, Note_on_c, 0, 56, 0
2, 46820, Note_on_c, 0, 66, 75
2, 46821, Note_on_c, 0, 44, 71
2, 46865, Note_on_c, 0, 44, 0
2, 46891, Note_on_c, 0, 66, 0
2, 46907, Note_on_c, 0, 56, 58
2, 46944, Note_on_c, 0, 56, 0
2, 46986, Note_on_c, 0, 51, 72
2, 47021, Note_on_c, 0, 51, 0
2, 47052, Note_on_c, 0, 56, 57
2, 47054, Control_c, 0, 67, 43
2, 47069, Control_c, 0, 67, 43
2, 47093, Note_on_c, 0, 56, 0
2, 47141, Note_on_c, 0, 48, 70
2, 47145, Control_c, 0, 67, 42
2, 47186, Note_on_c, 0, 48, 0
2, 47217, Note_on_c, 0, 56, 60
2, 47266, Note_on_c, 0, 56, 0
2, 47308, Note_on_c, 0, 66, 71
2, 47309, Note_on_c, 0, 44, 71
2, 47349, Note_on_c, 0, 44, 0
2, 47350, Control_c, 0, 67, 43
2, 47390, Note_on_c, 0, 66, 0
2, 47392, Note_on_c, 0, 56, 63
2, 47434, Note_on_c, 0, 56, 0
2, 47464, Note_on_c, 0, 51, 74
2, 47487, Control_c, 0, 67, 43
2, 47498, Note_on_c, 0, 51, 0
2, 47532, Control_c, 0, 67, 44
2, 47549, Note_on_c, 0, 56, 56
2, 47588, Note_on_c, 0, 56, 0
2, 47618, Note_on_c, 0, 48, 64
2, 47655, Control_c, 0, 67, 45
2, 47658, Note_on_c, 0, 48, 0
2, 47701, Note_on_c, 0, 56, 53
2, 47763, Note_on_c, 0, 56, 0
2, 47782, Note_on_c, 0, 44, 63
2, 47796, Note_on_c, 0, 65, 61
2, 47828, Note_on_c, 0, 44, 0
2, 47871, Note_on_c, 0, 65, 0
2, 47882, Control_c, 0, 67, 44
2, 47889, Note_on_c, 0, 56, 55
2, 47898, Control_c, 0, 67, 43
2, 47939, Note_on_c, 0, 56, 0
2, 47951, Control_c, 0, 67, 43
2, 47957, Note_on_c, 0, 53, 63
2, 47966, Control_c, 0, 67, 42
2, 47981, Control_c, 0, 67, 41
2, 47996, Control_c, 0, 67, 41
2, 47996, Note_on_c, 0, 53, 0
2, 48012, Control_c, 0, 67, 40
2, 48027, Control_c, 0, 67, 40
2, 48042, Control_c, 0, 67, 38
2, 48045, Note_on_c, 0, 56, 59
2, 48058, Control_c, 0, 67, 36
2, 48073, Control_c, 0, 67, 33
2, 48083, Note_on_c, 0, 56, 0
2, 48088, Control_c, 0, 67, 29
2, 48103, Control_c, 0, 67, 26
2, 48118, Control_c, 0, 67, 24
2, 48125, Note_on_c, 0, 49, 60
2, 48134, Control_c, 0, 67, 19
2, 48149, Control_c, 0, 67, 11
2, 48163, Control_c, 0, 67, 0
2, 48163, Note_on_c, 0, 49, 0
2, 48187, Note_on_c, 0, 56, 57
2, 48248, Note_on_c, 0, 56, 0
2, 48272, Note_on_c, 0, 65, 73
2, 48278, Note_on_c, 0, 44, 64
2, 48323, Note_on_c, 0, 44, 0
2, 48361, Note_on_c, 0, 65, 0
2, 48363, Note_on_c, 0, 56, 65
2, 48407, Note_on_c, 0, 56, 0
2, 48439, Note_on_c, 0, 53, 69
2, 48475, Note_on_c, 0, 53, 0
2, 48519, Note_on_c, 0, 56, 65
2, 48562, Note_on_c, 0, 56, 0
2, 48589, Note_on_c, 0, 49, 67
2, 48626, Note_on_c, 0, 49, 0
2, 48663, Note_on_c, 0, 56, 73
2, 48736, Note_on_c, 0, 56, 0
2, 48757, Note_on_c, 0, 44, 71
2, 48760, Note_on_c, 0, 67, 81
2, 48810, Note_on_c, 0, 44, 0
2, 48847, Note_on_c, 0, 58, 70
2, 48849, Note_on_c, 0, 67, 0
2, 48890, Note_on_c, 0, 58, 0
2, 48928, Note_on_c, 0, 52, 75
2, 48967, Note_on_c, 0, 52, 0
2, 48996, Note_on_c, 0, 58, 69
2, 49033, Note_on_c, 0, 58, 0
2, 49078, Note_on_c, 0, 49, 76
2, 49117, Note_on_c, 0, 49, 0
2, 49146, Note_on_c, 0, 58, 71
2, 49226, Note_on_c, 0, 58, 0
2, 49238, Note_on_c, 0, 44, 76
2, 49238, Note_on_c, 0, 67, 82
2, 49282, Note_on_c, 0, 44, 0
2, 49335, Note_on_c, 0, 58, 66
2, 49336, Note_on_c, 0, 67, 0
2, 49393, Note_on_c, 0, 58, 0
2, 49418, Note_on_c, 0, 52, 79
2, 49466, Note_on_c, 0, 52, 0
2, 49507, Note_on_c, 0, 58, 72
2, 49561, Note_on_c, 0, 58, 0
2, 49598, Note_on_c, 0, 49, 73
2, 49660, Note_on_c, 0, 49, 0
2, 49685, Note_on_c, 0, 58, 68
2, 49748, Note_on_c, 0, 58, 0
2, 49786, Note_on_c, 0, 44, 69
2, 49905, Note_on_c, 0, 48, 70
2, 49947, Note_on_c, 0, 44, 0
2, 49997, Note_on_c, 0, 51, 74
2, 50010, Note_on_c, 0, 48, 0
2, 50061, Note_on_c, 0, 51, 0
2, 50094, Note_on_c, 0, 54, 73
2, 50172, Note_on_c, 0, 57, 73
2, 50198, Note_on_c, 0, 54, 0
2, 50260, Note_on_c, 0, 60, 75
2, 50276, Note_on_c, 0, 57, 0
2, 50332, Note_on_c, 0, 61, 68
2, 50338, Note_on_c, 0, 60, 0
2, 50419, Note_on_c, 0, 64, 70
2, 50434, Note_on_c, 0, 61, 0
2, 50497, Note_on_c, 0, 67, 72
2, 50501, Note_on_c, 0, 64, 0
2, 50570, Note_on_c, 0, 70, 73
2, 50571, Note_on_c, 0, 67, 0
2, 50659, Note_on_c, 0, 73, 78
2, 50681, Note_on_c, 0, 70, 0
2, 50738, Note_on_c, 0, 76, 79
2, 50748, Note_on_c, 0, 73, 0
2, 50832, Note_on_c, 0, 72, 75
2, 50838, Note_on_c, 0, 44, 58
2, 50868, Note_on_c, 0, 76, 0
2, 50934, Note_on_c, 0, 75, 83
2, 50957, Note_on_c, 0, 72, 0
2, 51018, Note_on_c, 0, 75, 0
2, 51023, Note_on_c, 0, 78, 82
2, 51073, Note_on_c, 0, 44, 0
2, 51098, Note_on_c, 0, 75, 75
2, 51122, Note_on_c, 0, 78, 0
2, 51180, Note_on_c, 0, 72, 73
2, 51211, Note_on_c, 0, 75, 0
2, 51271, Note_on_c, 0, 68, 68
2, 51283, Note_on_c, 0, 72, 0
2, 51340, Note_on_c, 0, 66, 70
2, 51341, Note_on_c, 0, 68, 0
2, 51422, Note_on_c, 0, 66, 0
2, 51425, Note_on_c, 0, 63, 67
2, 51499, Note_on_c, 0, 63, 0
2, 51500, Note_on_c, 0, 60, 68
2, 51573, Note_on_c, 0, 60, 0
2, 51581, Note_on_c, 0, 56, 66
2, 51662, Note_on_c, 0, 56, 0
2, 51664, Note_on_c, 0, 60, 69
2, 51721, Note_on_c, 0, 60, 0
2, 51744, Note_on_c, 0, 63, 61
2, 51852, Note_on_c, 0, 56, 52
2, 51855, Note_on_c, 0, 65, 55
2, 51860, Note_on_c, 0, 63, 0
2, 51927, Note_on_c, 0, 68, 69
2, 51931, Note_on_c, 0, 65, 0
2, 52009, Note_on_c, 0, 68, 0
2, 52017, Note_on_c, 0, 73, 70
2, 52099, Note_on_c, 0, 68, 72
2, 52109, Note_on_c, 0, 73, 0
2, 52160, Note_on_c, 0, 68, 0
2, 52182, Note_on_c, 0, 56, 0
2, 52186, Note_on_c, 0, 65, 68
2, 52245, Note_on_c, 0, 65, 0
2, 52261, Note_on_c, 0, 61, 72
2, 52353, Note_on_c, 0, 58, 68
2, 52358, Note_on_c, 0, 61, 0
2, 52439, Note_on_c, 0, 58, 0
2, 52442, Note_on_c, 0, 55, 69
2, 52528, Note_on_c, 0, 52, 70
2, 52541, Note_on_c, 0, 55, 0
2, 52622, Note_on_c, 0, 49, 69
2, 52622, Note_on_c, 0, 52, 0
2, 52705, Note_on_c, 0, 49, 0
2, 52711, Note_on_c, 0, 52, 69
2, 52809, Note_on_c, 0, 52, 0
2, 52812, Note_on_c, 0, 55, 66
2, 52922, Note_on_c, 0, 55, 0
2, 52923, Note_on_c, 0, 44, 67
2, 53241, Note_on_c, 0, 73, 76
2, 53250, Note_on_c, 0, 49, 46
2, 53250, Note_on_c, 0, 65, 63
2, 53251, Note_on_c, 0, 53, 57
2, 53251, Note_on_c, 0, 56, 54
2, 53255, Note_on_c, 0, 68, 60
2, 53279, Note_on_c, 0, 65, 0
2, 53288, Note_on_c, 0, 56, 0
2, 53292, Note_on_c, 0, 68, 0
2, 53294, Note_on_c, 0, 53, 0
2, 53310, Note_on_c, 0, 73, 0
2, 53319, Note_on_c, 0, 49, 0
2, 53558, Note_on_c, 0, 72, 71
2, 53564, Note_on_c, 0, 63, 65
2, 53572, Note_on_c, 0, 54, 55
2, 53573, Note_on_c, 0, 51, 53
2, 53579, Note_on_c, 0, 56, 48
2, 53581, Note_on_c, 0, 68, 53
2, 53598, Note_on_c, 0, 63, 0
2, 53619, Note_on_c, 0, 68, 0
2, 53622, Note_on_c, 0, 56, 0
2, 53623, Note_on_c, 0, 51, 0
2, 53624, Note_on_c, 0, 72, 0
2, 53627, Note_on_c, 0, 54, 0
2, 54030, Note_on_c, 0, 73, 62
2, 54035, Note_on_c, 0, 56, 44
2, 54039, Note_on_c, 0, 49, 36
2, 54043, Note_on_c, 0, 61, 44
2, 54043, Note_on_c, 0, 68, 40
2, 54048, Note_on_c, 0, 53, 38
2, 54052, Note_on_c, 0, 44, 0
2, 54626, Control_c, 0, 64, 15
2, 54641, Control_c, 0, 64, 21
2, 54657, Control_c, 0, 64, 25
2, 54672, Control_c, 0, 64, 28
2, 54687, Control_c, 0, 64, 31
2, 54702, Control_c, 0, 64, 34
2, 54717, Control_c, 0, 64, 37
2, 54733, Control_c, 0, 64, 40
2, 54748, Control_c, 0, 64, 43
2, 54762, Control_c, 0, 64, 45
2, 54778, Control_c, 0, 64, 47
2, 54793, Control_c, 0, 64, 49
2, 54809, Control_c, 0, 64, 51
2, 54824, Control_c, 0, 64, 53
2, 54847, Control_c, 0, 64, 55
2, 54862, Control_c, 0, 64, 57
2, 54877, Control_c, 0, 64, 60
2, 54892, Control_c, 0, 64, 63
2, 54907, Control_c, 0, 64, 65
2, 54922, Control_c, 0, 64, 67
2, 54939, Control_c, 0, 64, 69
2, 54954, Control_c, 0, 64, 72
2, 54970, Control_c, 0, 64, 75
2, 54985, Control_c, 0, 64, 78
2, 54999, Control_c, 0, 64, 84
2, 55015, Control_c, 0, 64, 92
2, 55030, Control_c, 0, 64, 102
2, 55044, Control_c, 0, 64, 127
2, 55163, Note_on_c, 0, 61, 0
2, 55171, Note_on_c, 0, 73, 0
2, 55193, Note_on_c, 0, 56, 0
2, 55236, Note_on_c, 0, 49, 0
2, 55243, Note_on_c, 0, 53, 0
2, 55276, Note_on_c, 0, 68, 0
2, 55380, Control_c, 0, 64, 119
2, 55395, Control_c, 0, 64, 116
2, 55410, Control_c, 0, 64, 115
2, 55455, Control_c, 0, 64, 114
2, 55470, Control_c, 0, 64, 113
2, 55486, Control_c, 0, 64, 111
2, 55501, Control_c, 0, 64, 109
2, 55516, Control_c, 0, 64, 107
2, 55531, Control_c, 0, 64, 106
2, 55546, Control_c, 0, 64, 104
2, 55561, Control_c, 0, 64, 102
2, 55592, Control_c, 0, 64, 102
2, 55630, Control_c, 0, 64, 101
2, 55675, Control_c, 0, 64, 100
2, 55691, Control_c, 0, 64, 100
2, 55706, Control_c, 0, 64, 99
2, 55721, Control_c, 0, 64, 98
2, 55736, Control_c, 0, 64, 96
2, 55751, Control_c, 0, 64, 95
2, 55768, Control_c, 0, 64, 94
2, 55783, Control_c, 0, 64, 93
2, 55798, Control_c, 0, 64, 91
2, 55814, Control_c, 0, 64, 88
2, 55829, Control_c, 0, 64, 86
2, 55843, Control_c, 0, 64, 85
2, 55859, Control_c, 0, 64, 83
2, 55874, Control_c, 0, 64, 81
2, 55889, Control_c, 0, 64, 78
2, 55904, Control_c, 0, 64, 74
2, 55919, Control_c, 0, 64, 70
2, 55935, Control_c, 0, 64, 67
2, 55950, Control_c, 0, 64, 65
2, 55964, Control_c, 0, 64, 63
2, 55980, Control_c, 0, 64, 62
2, 55995, Control_c, 0, 64, 61
2, 56011, Control_c, 0, 64, 60
2, 56026, Control_c, 0, 64, 59
2, 56040, Control_c, 0, 64, 57
2, 56056, Control_c, 0, 64, 55
2, 56071, Control_c, 0, 64, 53
2, 56087, Control_c, 0, 64, 52
2, 56102, Control_c, 0, 64, 51
2, 56117, Control_c, 0, 64, 50
2, 56132, Control_c, 0, 64, 49
2, 56147, Control_c, 0, 64, 47
2, 56162, Control_c, 0, 64, 46
2, 56178, Control_c, 0, 64, 45
2, 56193, Control_c, 0, 64, 44
2, 56209, Control_c, 0, 64, 43
2, 56224, Control_c, 0, 64, 42
2, 56239, Control_c, 0, 64, 41
2, 56254, Control_c, 0, 64, 40
2, 56269, Control_c, 0, 64, 39
2, 56284, Control_c, 0, 64, 38
2, 56299, Control_c, 0, 64, 38
2, 56345, Control_c, 0, 64, 37
2, 56991, Control_c, 0, 64, 38
2, 57066, Control_c, 0, 64, 38
2, 57112, Control_c, 0, 64, 39
2, 57181, Control_c, 0, 64, 39
2, 57257, Control_c, 0, 64, 40
2, 57562, Control_c, 0, 64, 40
2, 58025, Control_c, 0, 64, 40
2, 58028, Note_on_c, 0, 68, 54
2, 58056, Control_c, 0, 64, 39
2, 58062, Note_on_c, 0, 68, 0
2, 58070, Control_c, 0, 64, 39
2, 58101, Control_c, 0, 64, 38
2, 58116, Control_c, 0, 64, 38
2, 58132, Control_c, 0, 64, 37
2, 58147, Control_c, 0, 64, 36
2, 58162, Control_c, 0, 64, 34
2, 58178, Control_c, 0, 64, 32
2, 58192, Control_c, 0, 64, 29
2, 58208, Control_c, 0, 64, 26
2, 58223, Control_c, 0, 64, 22
2, 58238, Control_c, 0, 64, 17
2, 58254, Control_c, 0, 64, 0
2, 58269, Note_on_c, 0, 70, 61
2, 58368, Note_on_c, 0, 68, 69
2, 58370, Note_on_c, 0, 70, 0
2, 58447, Note_on_c, 0, 68, 0
2, 58462, Note_on_c, 0, 66, 70
2, 58535, Note_on_c, 0, 66, 0
2, 58548, Note_on_c, 0, 68, 81
2, 58659, Note_on_c, 0, 77, 81
2, 58667, Note_on_c, 0, 68, 0
2, 58700, Note_on_c, 0, 77, 0
2, 58907, Note_on_c, 0, 73, 74
2, 58936, Note_on_c, 0, 73, 0
2, 59159, Note_on_c, 0, 68, 72
2, 59423, Note_on_c, 0, 66, 64
2, 59438, Note_on_c, 0, 68, 0
2, 59504, Note_on_c, 0, 66, 0
2, 59508, Note_on_c, 0, 65, 71
2, 59593, Note_on_c, 0, 65, 0
2, 59596, Note_on_c, 0, 66, 73
2, 59625, Note_on_c, 0, 66, 0
2, 59823, Note_on_c, 0, 75, 76
2, 59852, Note_on_c, 0, 75, 0
2, 60067, Note_on_c, 0, 65, 63
2, 60097, Note_on_c, 0, 65, 0
2, 60299, Note_on_c, 0, 73, 67
2, 60328, Note_on_c, 0, 73, 0
2, 60510, Note_on_c, 0, 63, 67
2, 60543, Note_on_c, 0, 63, 0
2, 60743, Note_on_c, 0, 72, 65
2, 60779, Note_on_c, 0, 72, 0
2, 60951, Control_c, 0, 64, 23
2, 60967, Control_c, 0, 64, 47
2, 60990, Control_c, 0, 64, 58
2, 61002, Note_on_c, 0, 61, 58
2, 61006, Control_c, 0, 64, 64
2, 61020, Control_c, 0, 64, 74
2, 61035, Control_c, 0, 64, 96
2, 61035, Note_on_c, 0, 61, 0
2, 61051, Control_c, 0, 64, 127
2, 61249, Control_c, 0, 64, 111
2, 61264, Control_c, 0, 64, 94
2, 61268, Note_on_c, 0, 73, 52
2, 61279, Control_c, 0, 64, 83
2, 61294, Control_c, 0, 64, 73
2, 61309, Control_c, 0, 64, 65
2, 61312, Note_on_c, 0, 73, 0
2, 61324, Control_c, 0, 64, 53
2, 61340, Control_c, 0, 64, 25
2, 61354, Note_on_c, 0, 72, 60
2, 61355, Control_c, 0, 64, 0
2, 61414, Note_on_c, 0, 72, 0
2, 61450, Note_on_c, 0, 73, 53
2, 61539, Note_on_c, 0, 73, 0
2, 61544, Note_on_c, 0, 75, 57
2, 61598, Note_on_c, 0, 75, 0
2, 61649, Note_on_c, 0, 61, 62
2, 61653, Note_on_c, 0, 77, 64
2, 61680, Note_on_c, 0, 61, 0
2, 61730, Note_on_c, 0, 77, 0
2, 61757, Note_on_c, 0, 78, 59
2, 61862, Note_on_c, 0, 78, 0
2, 61878, Note_on_c, 0, 65, 58
2, 61878, Note_on_c, 0, 80, 53
2, 61952, Note_on_c, 0, 65, 0
2, 61967, Note_on_c, 0, 63, 66
2, 61972, Note_on_c, 0, 79, 66
2, 61973, Note_on_c, 0, 80, 0
2, 62043, Note_on_c, 0, 79, 0
2, 62054, Note_on_c, 0, 63, 0
2, 62065, Note_on_c, 0, 61, 72
2, 62070, Note_on_c, 0, 77, 68
2, 62137, Note_on_c, 0, 77, 0
2, 62152, Note_on_c, 0, 79, 69
2, 62153, Note_on_c, 0, 63, 74
2, 62158, Note_on_c, 0, 61, 0
2, 62233, Note_on_c, 0, 63, 0
2, 62248, Note_on_c, 0, 79, 0
2, 62256, Note_on_c, 0, 72, 77
2, 62256, Note_on_c, 0, 80, 66
2, 62286, Note_on_c, 0, 72, 0
2, 62362, Note_on_c, 0, 78, 61
2, 62364, Note_on_c, 0, 80, 0
2, 62450, Note_on_c, 0, 78, 0
2, 62477, Note_on_c, 0, 68, 79
2, 62479, Note_on_c, 0, 77, 68
2, 62507, Note_on_c, 0, 68, 0
2, 62583, Note_on_c, 0, 77, 0
2, 62589, Note_on_c, 0, 75, 68
2, 62724, Note_on_c, 0, 63, 72
2, 62728, Note_on_c, 0, 77, 73
2, 62739, Note_on_c, 0, 75, 0
2, 62996, Note_on_c, 0, 63, 0
2, 63004, Note_on_c, 0, 61, 63
2, 63087, Note_on_c, 0, 61, 0
2, 63094, Note_on_c, 0, 60, 73
2, 63188, Note_on_c, 0, 60, 0
2, 63194, Note_on_c, 0, 61, 74
2, 63229, Note_on_c, 0, 61, 0
2, 63328, Note_on_c, 0, 75, 57
2, 63351, Note_on_c, 0, 77, 0
2, 63426, Note_on_c, 0, 73, 63
2, 63427, Note_on_c, 0, 70, 79
2, 63444, Note_on_c, 0, 75, 0
2, 63451, Note_on_c, 0, 70, 0
2, 63509, Note_on_c, 0, 73, 0
2, 63527, Note_on_c, 0, 77, 67
2, 63631, Note_on_c, 0, 60, 77
2, 63635, Note_on_c, 0, 75, 63
2, 63641, Note_on_c, 0, 77, 0
2, 63665, Note_on_c, 0, 60, 0
2, 63727, Note_on_c, 0, 73, 62
2, 63730, Note_on_c, 0, 75, 0
2, 63807, Note_on_c, 0, 73, 0
2, 63843, Note_on_c, 0, 72, 63
2, 63856, Note_on_c, 0, 68, 74
2, 63882, Note_on_c, 0, 68, 0
2, 63926, Note_on_c, 0, 72, 0
2, 63939, Note_on_c, 0, 75, 65
2, 64049, Note_on_c, 0, 73, 62
2, 64060, Note_on_c, 0, 58, 71
2, 64072, Note_on_c, 0, 75, 0
2, 64097, Note_on_c, 0, 58, 0
2, 64149, Note_on_c, 0, 72, 65
2, 64153, Note_on_c, 0, 73, 0
2, 64252, Note_on_c, 0, 72, 0
2, 64271, Note_on_c, 0, 67, 68
2, 64277, Note_on_c, 0, 73, 53
2, 64301, Note_on_c, 0, 67, 0
2, 64319, Note_on_c, 0, 73, 0
2, 64366, Note_on_c, 0, 70, 62
2, 64399, Note_on_c, 0, 70, 0
2, 64487, Note_on_c, 0, 56, 59
2, 64503, Note_on_c, 0, 70, 57
2, 64530, Note_on_c, 0, 56, 0
2, 64542, Note_on_c, 0, 70, 0
2, 64587, Note_on_c, 0, 72, 67
2, 64625, Note_on_c, 0, 72, 0
2, 64704, Note_on_c, 0, 75, 73
2, 64711, Note_on_c, 0, 68, 54
2, 64739, Note_on_c, 0, 75, 0
2, 64768, Note_on_c, 0, 68, 0
2, 64799, Note_on_c, 0, 67, 59
2, 64876, Control_c, 0, 64, 9
2, 64922, Note_on_c, 0, 67, 0
2, 64945, Note_on_c, 0, 68, 61
2, 64957, Note_on_c, 0, 78, 78
2, 64998, Note_on_c, 0, 68, 0
2, 65081, Note_on_c, 0, 70, 53
2, 65189, Note_on_c, 0, 56, 64
2, 65195, Note_on_c, 0, 72, 58
2, 65210, Note_on_c, 0, 70, 0
2, 65222, Note_on_c, 0, 56, 0
2, 65242, Note_on_c, 0, 72, 0
2, 65298, Note_on_c, 0, 68, 52
2, 65399, Note_on_c, 0, 58, 65
2, 65402, Note_on_c, 0, 68, 0
2, 65406, Note_on_c, 0, 73, 57
2, 65487, Note_on_c, 0, 58, 0
2, 65491, Note_on_c, 0, 56, 68
2, 65497, Note_on_c, 0, 72, 66
2, 65521, Note_on_c, 0, 73, 0
2, 65582, Note_on_c, 0, 72, 0
2, 65592, Note_on_c, 0, 56, 0
2, 65602, Note_on_c, 0, 54, 75
2, 65612, Note_on_c, 0, 70, 65
2, 65682, Note_on_c, 0, 70, 0
2, 65683, Note_on_c, 0, 78, 0
2, 65693, Note_on_c, 0, 56, 83
2, 65696, Note_on_c, 0, 72, 74
2, 65704, Note_on_c, 0, 54, 0
2, 65787, Note_on_c, 0, 56, 0
2, 65793, Note_on_c, 0, 72, 0
2, 65811, Note_on_c, 0, 65, 77
2, 65815, Note_on_c, 0, 73, 65
2, 65816, Note_on_c, 0, 77, 78
2, 65846, Note_on_c, 0, 65, 0
2, 65858, Note_on_c, 0, 73, 0
2, 65928, Note_on_c, 0, 72, 69
2, 65989, Note_on_c, 0, 72, 0
2, 66041, Note_on_c, 0, 61, 79
2, 66044, Note_on_c, 0, 70, 57
2, 66076, Note_on_c, 0, 61, 0
2, 66119, Note_on_c, 0, 70, 0
2, 66151, Note_on_c, 0, 68, 68
2, 66278, Note_on_c, 0, 68, 0
2, 66284, Note_on_c, 0, 56, 77
2, 66295, Note_on_c, 0, 70, 67
2, 66553, Note_on_c, 0, 56, 0
2, 66555, Note_on_c, 0, 54, 70
2, 66647, Note_on_c, 0, 53, 71
2, 66653, Note_on_c, 0, 54, 0
2, 66730, Note_on_c, 0, 77, 0
2, 66745, Note_on_c, 0, 53, 0
2, 66745, Note_on_c, 0, 54, 77
2, 66750, Note_on_c, 0, 75, 75
2, 66771, Note_on_c, 0, 70, 0
2, 66778, Note_on_c, 0, 54, 0
2, 66892, Note_on_c, 0, 68, 53
2, 66974, Note_on_c, 0, 68, 0
2, 66975, Note_on_c, 0, 63, 76
2, 66992, Note_on_c, 0, 66, 57
2, 67000, Note_on_c, 0, 63, 0
2, 67091, Note_on_c, 0, 70, 61
2, 67110, Note_on_c, 0, 66, 0
2, 67193, Note_on_c, 0, 53, 79
2, 67201, Note_on_c, 0, 68, 69
2, 67202, Note_on_c, 0, 75, 0
2, 67230, Note_on_c, 0, 53, 0
2, 67247, Note_on_c, 0, 70, 0
2, 67273, Note_on_c, 0, 68, 0
2, 67301, Note_on_c, 0, 66, 70
2, 67361, Note_on_c, 0, 66, 0
2, 67409, Note_on_c, 0, 61, 75
2, 67411, Note_on_c, 0, 73, 75
2, 67416, Note_on_c, 0, 65, 64
2, 67435, Note_on_c, 0, 61, 0
2, 67450, Note_on_c, 0, 65, 0
2, 67489, Note_on_c, 0, 73, 0
2, 67499, Note_on_c, 0, 68, 70
2, 67542, Note_on_c, 0, 68, 0
2, 67608, Note_on_c, 0, 51, 69
2, 67610, Note_on_c, 0, 72, 71
2, 67619, Note_on_c, 0, 66, 56
2, 67646, Note_on_c, 0, 51, 0
2, 67655, Note_on_c, 0, 66, 0
2, 67668, Note_on_c, 0, 72, 0
2, 67716, Note_on_c, 0, 65, 58
2, 67800, Note_on_c, 0, 65, 0
2, 67838, Note_on_c, 0, 75, 65
2, 67841, Note_on_c, 0, 60, 57
2, 67846, Note_on_c, 0, 66, 53
2, 67873, Note_on_c, 0, 60, 0
2, 67928, Note_on_c, 0, 66, 0
2, 67944, Note_on_c, 0, 63, 59
2, 68017, Note_on_c, 0, 63, 0
2, 68093, Note_on_c, 0, 65, 57
2, 68096, Note_on_c, 0, 49, 57
2, 68137, Note_on_c, 0, 49, 0
2, 68314, Note_on_c, 0, 68, 75
2, 68327, Note_on_c, 0, 61, 59
2, 68329, Note_on_c, 0, 75, 0
2, 68353, Note_on_c, 0, 68, 0
2, 68424, Note_on_c, 0, 60, 71
2, 68426, Note_on_c, 0, 61, 0
2, 68553, Note_on_c, 0, 77, 85
2, 68555, Control_c, 0, 64, 11
2, 68559, Note_on_c, 0, 61, 69
2, 68566, Note_on_c, 0, 65, 0
2, 68571, Control_c, 0, 64, 12
2, 68572, Note_on_c, 0, 60, 0
2, 68647, Control_c, 0, 64, 13
2, 68678, Note_on_c, 0, 63, 71
2, 68695, Note_on_c, 0, 61, 0
2, 68781, Note_on_c, 0, 65, 72
2, 68790, Note_on_c, 0, 68, 72
2, 68791, Note_on_c, 0, 63, 0
2, 68820, Note_on_c, 0, 68, 0
2, 68881, Note_on_c, 0, 61, 67
2, 68897, Note_on_c, 0, 65, 0
2, 68982, Note_on_c, 0, 73, 80
2, 68988, Note_on_c, 0, 58, 71
2, 68992, Note_on_c, 0, 61, 0
2, 68999, Note_on_c, 0, 77, 0
2, 69086, Note_on_c, 0, 58, 0
2, 69093, Note_on_c, 0, 60, 75
2, 69208, Note_on_c, 0, 73, 0
2, 69211, Note_on_c, 0, 61, 65
2, 69211, Note_on_c, 0, 77, 82
2, 69216, Note_on_c, 0, 60, 0
2, 69233, Control_c, 0, 64, 12
2, 69263, Control_c, 0, 64, 11
2, 69306, Note_on_c, 0, 73, 80
2, 69309, Control_c, 0, 64, 9
2, 69314, Note_on_c, 0, 58, 64
2, 69321, Note_on_c, 0, 61, 0
2, 69338, Note_on_c, 0, 77, 0
2, 69400, Note_on_c, 0, 58, 0
2, 69411, Note_on_c, 0, 70, 76
2, 69412, Note_on_c, 0, 55, 62
2, 69422, Note_on_c, 0, 73, 0
2, 69468, Control_c, 0, 64, 0
2, 69515, Note_on_c, 0, 55, 0
2, 69517, Note_on_c, 0, 56, 64
2, 69621, Note_on_c, 0, 56, 0
2, 69621, Note_on_c, 0, 70, 0
2, 69630, Note_on_c, 0, 73, 75
2, 69634, Note_on_c, 0, 58, 58
2, 69726, Note_on_c, 0, 70, 74
2, 69731, Note_on_c, 0, 58, 0
2, 69731, Note_on_c, 0, 73, 0
2, 69737, Note_on_c, 0, 55, 59
2, 69823, Note_on_c, 0, 70, 0
2, 69829, Note_on_c, 0, 55, 0
2, 69849, Note_on_c, 0, 48, 51
2, 69850, Note_on_c, 0, 63, 62
2, 69886, Note_on_c, 0, 48, 0
2, 70074, Note_on_c, 0, 70, 62
2, 70077, Note_on_c, 0, 60, 57
2, 70107, Note_on_c, 0, 70, 0
2, 70136, Note_on_c, 0, 60, 0
2, 70144, Note_on_c, 0, 63, 0
2, 70175, Note_on_c, 0, 58, 56
2, 70306, Note_on_c, 0, 58, 0
2, 70309, Note_on_c, 0, 75, 70
2, 70331, Note_on_c, 0, 60, 53
2, 70403, Control_c, 0, 64, 9
2, 70420, Note_on_c, 0, 60, 0
2, 70435, Note_on_c, 0, 61, 55
2, 70527, Note_on_c, 0, 67, 64
2, 70534, Note_on_c, 0, 63, 63
2, 70550, Note_on_c, 0, 61, 0
2, 70556, Control_c, 0, 64, 11
2, 70571, Note_on_c, 0, 67, 0
2, 70623, Note_on_c, 0, 63, 0
2, 70646, Note_on_c, 0, 60, 60
2, 70745, Note_on_c, 0, 72, 69
2, 70749, Note_on_c, 0, 60, 0
2, 70752, Note_on_c, 0, 75, 0
2, 70755, Note_on_c, 0, 56, 58
2, 70844, Note_on_c, 0, 58, 63
2, 70849, Note_on_c, 0, 56, 0
2, 70935, Note_on_c, 0, 72, 0
2, 70957, Note_on_c, 0, 60, 55
2, 70967, Note_on_c, 0, 58, 0
2, 70967, Note_on_c, 0, 75, 65
2, 71058, Note_on_c, 0, 60, 0
2, 71058, Note_on_c, 0, 72, 68
2, 71058, Note_on_c, 0, 75, 0
2, 71066, Note_on_c, 0, 56, 54
2, 71126, Control_c, 0, 64, 9
2, 71140, Note_on_c, 0, 56, 0
2, 71164, Note_on_c, 0, 72, 0
2, 71169, Note_on_c, 0, 53, 53
2, 71172, Note_on_c, 0, 68, 60
2, 71217, Control_c, 0, 64, 0
2, 71257, Note_on_c, 0, 53, 0
2, 71267, Note_on_c, 0, 55, 52
2, 71354, Note_on_c, 0, 55, 0
2, 71369, Note_on_c, 0, 56, 53
2, 71385, Note_on_c, 0, 68, 0
2, 71390, Note_on_c, 0, 72, 61
2, 71468, Note_on_c, 0, 56, 0
2, 71474, Note_on_c, 0, 53, 52
2, 71480, Note_on_c, 0, 72, 0
2, 71487, Note_on_c, 0, 68, 56
2, 71572, Note_on_c, 0, 53, 0
2, 71590, Note_on_c, 0, 68, 0
2, 71598, Note_on_c, 0, 46, 51
2, 71615, Note_on_c, 0, 61, 54
2, 71650, Note_on_c, 0, 46, 0
2, 71841, Note_on_c, 0, 68, 58
2, 71883, Note_on_c, 0, 68, 0
2, 71943, Note_on_c, 0, 56, 46
2, 72061, Note_on_c, 0, 73, 68
2, 72062, Note_on_c, 0, 56, 0
2, 72062, Note_on_c, 0, 61, 0
2, 72066, Note_on_c, 0, 58, 54
2, 72149, Note_on_c, 0, 58, 0
2, 72172, Note_on_c, 0, 60, 55
2, 72262, Note_on_c, 0, 60, 0
2, 72272, Note_on_c, 0, 61, 55
2, 72272, Note_on_c, 0, 65, 53
2, 72307, Note_on_c, 0, 65, 0
2, 72376, Note_on_c, 0, 61, 0
2, 72385, Note_on_c, 0, 58, 56
2, 72477, Note_on_c, 0, 58, 0
2, 72496, Note_on_c, 0, 55, 53
2, 72511, Note_on_c, 0, 70, 56
2, 72558, Note_on_c, 0, 73, 0
2, 72600, Note_on_c, 0, 55, 0
2, 72603, Note_on_c, 0, 72, 72
2, 72609, Note_on_c, 0, 56, 57
2, 72616, Note_on_c, 0, 70, 0
2, 72698, Note_on_c, 0, 56, 0
2, 72716, Note_on_c, 0, 72, 0
2, 72717, Note_on_c, 0, 58, 52
2, 72719, Note_on_c, 0, 73, 66
2, 72785, Note_on_c, 0, 73, 0
2, 72822, Note_on_c, 0, 58, 0
2, 72822, Note_on_c, 0, 70, 65
2, 72827, Note_on_c, 0, 55, 52
2, 72917, Note_on_c, 0, 55, 0
2, 72953, Note_on_c, 0, 51, 54
2, 72963, Note_on_c, 0, 82, 71
2, 72982, Note_on_c, 0, 70, 0
2, 73077, Note_on_c, 0, 51, 0
2, 73082, Note_on_c, 0, 73, 65
2, 73086, Note_on_c, 0, 53, 58
2, 73175, Note_on_c, 0, 53, 0
2, 73188, Note_on_c, 0, 55, 59
2, 73188, Note_on_c, 0, 75, 68
2, 73192, Note_on_c, 0, 73, 0
2, 73251, Note_on_c, 0, 75, 0
2, 73271, Note_on_c, 0, 55, 0
2, 73280, Note_on_c, 0, 51, 58
2, 73282, Note_on_c, 0, 70, 72
2, 73348, Note_on_c, 0, 70, 0
2, 73390, Note_on_c, 0, 51, 0
2, 73396, Note_on_c, 0, 44, 56
2, 73410, Note_on_c, 0, 72, 71
2, 73450, Note_on_c, 0, 44, 0
2, 73503, Note_on_c, 0, 80, 73
2, 73532, Note_on_c, 0, 82, 0
2, 73586, Note_on_c, 0, 72, 0
2, 73601, Note_on_c, 0, 56, 63
2, 73608, Note_on_c, 0, 79, 77
2, 73620, Note_on_c, 0, 80, 0
2, 73700, Note_on_c, 0, 56, 0
2, 73702, Note_on_c, 0, 82, 81
2, 73707, Note_on_c, 0, 79, 0
2, 73708, Note_on_c, 0, 58, 67
2, 73791, Note_on_c, 0, 58, 0
2, 73807, Note_on_c, 0, 80, 79
2, 73814, Note_on_c, 0, 60, 66
2, 73831, Note_on_c, 0, 82, 0
2, 73847, Note_on_c, 0, 60, 0
2, 73870, Note_on_c, 0, 80, 0
2, 73910, Note_on_c, 0, 75, 78
2, 74008, Note_on_c, 0, 77, 81
2, 74012, Note_on_c, 0, 75, 0
2, 74019, Note_on_c, 0, 56, 70
2, 74027, Note_on_c, 0, 68, 78
2, 74078, Note_on_c, 0, 56, 0
2, 74098, Note_on_c, 0, 77, 0
2, 74119, Note_on_c, 0, 78, 82
2, 74225, Note_on_c, 0, 77, 87
2, 74231, Note_on_c, 0, 61, 68
2, 74273, Note_on_c, 0, 78, 0
2, 74293, Note_on_c, 0, 68, 0
2, 74315, Note_on_c, 0, 77, 0
2, 74322, Note_on_c, 0, 75, 84
2, 74337, Note_on_c, 0, 67, 67
2, 74394, Control_c, 0, 64, 9
2, 74406, Note_on_c, 0, 75, 0
2, 74409, Note_on_c, 0, 67, 0
2, 74418, Note_on_c, 0, 65, 65
2, 74426, Note_on_c, 0, 73, 83
2, 74489, Note_on_c, 0, 61, 0
2, 74501, Control_c, 0, 64, 11
2, 74511, Note_on_c, 0, 75, 86
2, 74519, Note_on_c, 0, 67, 76
2, 74519, Note_on_c, 0, 73, 0
2, 74532, Control_c, 0, 64, 12
2, 74533, Note_on_c, 0, 65, 0
2, 74546, Control_c, 0, 64, 13
2, 74577, Control_c, 0, 64, 15
2, 74615, Note_on_c, 0, 67, 0
2, 74620, Note_on_c, 0, 68, 78
2, 74623, Control_c, 0, 64, 16
2, 74628, Note_on_c, 0, 84, 86
2, 74635, Note_on_c, 0, 75, 0
2, 74640, Note_on_c, 0, 60, 55
2, 74654, Control_c, 0, 64, 17
2, 74665, Note_on_c, 0, 84, 0
2, 74717, Note_on_c, 0, 68, 0
2, 74737, Note_on_c, 0, 66, 68
2, 74745, Control_c, 0, 64, 17
2, 74857, Note_on_c, 0, 80, 86
2, 74858, Control_c, 0, 64, 18
2, 74858, Note_on_c, 0, 65, 69
2, 74882, Note_on_c, 0, 66, 0
2, 74895, Note_on_c, 0, 80, 0
2, 74923, Note_on_c, 0, 60, 0
2, 74953, Note_on_c, 0, 63, 66
2, 74981, Note_on_c, 0, 65, 0
2, 75094, Note_on_c, 0, 58, 61
2, 75094, Note_on_c, 0, 75, 83
2, 75101, Note_on_c, 0, 65, 66
2, 75102, Note_on_c, 0, 63, 0
2, 75162, Note_on_c, 0, 58, 0
2, 75178, Control_c, 0, 64, 19
2, 75362, Note_on_c, 0, 56, 61
2, 75367, Note_on_c, 0, 73, 75
2, 75377, Note_on_c, 0, 75, 0
2, 75402, Note_on_c, 0, 56, 0
2, 75442, Note_on_c, 0, 73, 0
2, 75453, Note_on_c, 0, 72, 80
2, 75546, Note_on_c, 0, 72, 0
2, 75549, Note_on_c, 0, 73, 79
2, 75561, Note_on_c, 0, 55, 62
2, 75568, Note_on_c, 0, 65, 0
2, 75591, Note_on_c, 0, 73, 0
2, 75658, Note_on_c, 0, 63, 70
2, 75702, Control_c, 0, 64, 20
2, 75748, Control_c, 0, 64, 21
2, 75771, Note_on_c, 0, 82, 80
2, 75773, Note_on_c, 0, 63, 0
2, 75775, Note_on_c, 0, 61, 64
2, 75802, Note_on_c, 0, 82, 0
2, 75854, Note_on_c, 0, 55, 0
2, 75865, Note_on_c, 0, 65, 68
2, 75977, Note_on_c, 0, 61, 0
2, 75980, Note_on_c, 0, 65, 0
2, 75983, Note_on_c, 0, 72, 79
2, 75986, Note_on_c, 0, 63, 66
2, 75995, Note_on_c, 0, 56, 55
2, 76017, Note_on_c, 0, 72, 0
2, 76084, Note_on_c, 0, 63, 0
2, 76091, Note_on_c, 0, 61, 72
2, 76189, Note_on_c, 0, 60, 70
2, 76196, Note_on_c, 0, 80, 77
2, 76199, Note_on_c, 0, 61, 0
2, 76243, Note_on_c, 0, 80, 0
2, 76259, Note_on_c, 0, 60, 0
2, 76289, Note_on_c, 0, 56, 0
2, 76295, Note_on_c, 0, 63, 67
2, 76401, Note_on_c, 0, 63, 0
2, 76423, Note_on_c, 0, 70, 71
2, 76430, Note_on_c, 0, 61, 61
2, 76433, Note_on_c, 0, 51, 51
2, 76458, Note_on_c, 0, 70, 0
2, 76518, Note_on_c, 0, 61, 0
2, 76532, Control_c, 0, 64, 18
2, 76543, Note_on_c, 0, 60, 56
2, 76546, Control_c, 0, 64, 16
2, 76561, Control_c, 0, 64, 13
2, 76577, Control_c, 0, 64, 0
2, 76643, Note_on_c, 0, 60, 0
2, 76650, Note_on_c, 0, 79, 68
2, 76662, Note_on_c, 0, 61, 55
2, 76692, Note_on_c, 0, 79, 0
2, 76747, Note_on_c, 0, 61, 0
2, 76774, Note_on_c, 0, 58, 47
2, 76886, Note_on_c, 0, 58, 0
2, 76889, Note_on_c, 0, 51, 0
2, 76908, Note_on_c, 0, 60, 46
2, 76912, Note_on_c, 0, 56, 41
2, 76921, Note_on_c, 0, 68, 49
2, 76954, Note_on_c, 0, 60, 0
2, 76985, Note_on_c, 0, 68, 0
2, 77026, Note_on_c, 0, 70, 51
2, 77111, Note_on_c, 0, 70, 0
2, 77140, Note_on_c, 0, 72, 52
2, 77143, Note_on_c, 0, 63, 48
2, 77176, Note_on_c, 0, 63, 0
2, 77190, Note_on_c, 0, 72, 0
2, 77237, Note_on_c, 0, 73, 55
2, 77326, Note_on_c, 0, 73, 0
2, 77354, Note_on_c, 0, 68, 56
2, 77355, Note_on_c, 0, 72, 53
2, 77407, Control_c, 0, 64, 32
2, 77422, Control_c, 0, 64, 49
2, 77436, Note_on_c, 0, 72, 0
2, 77437, Control_c, 0, 64, 61
2, 77453, Control_c, 0, 64, 65
2, 77455, Note_on_c, 0, 68, 0
2, 77462, Note_on_c, 0, 70, 58
2, 77467, Control_c, 0, 64, 67
2, 77481, Note_on_c, 0, 56, 0
2, 77482, Control_c, 0, 64, 69
2, 77498, Control_c, 0, 64, 70
2, 77513, Note_on_c, 0, 70, 0
2, 77543, Control_c, 0, 64, 70
2, 77558, Control_c, 0, 64, 69
2, 77574, Control_c, 0, 64, 69
2, 77576, Note_on_c, 0, 68, 61
2, 77577, Note_on_c, 0, 63, 49
2, 77589, Control_c, 0, 64, 68
2, 77603, Control_c, 0, 64, 67
2, 77619, Control_c, 0, 64, 65
2, 77634, Control_c, 0, 64, 64
2, 77646, Note_on_c, 0, 68, 0
2, 77650, Control_c, 0, 64, 62
2, 77651, Note_on_c, 0, 63, 0
2, 77659, Note_on_c, 0, 72, 64
2, 77665, Control_c, 0, 64, 59
2, 77677, Note_on_c, 0, 60, 55
2, 77680, Control_c, 0, 64, 54
2, 77696, Control_c, 0, 64, 44
2, 77711, Control_c, 0, 64, 24
2, 77726, Control_c, 0, 64, 0
2, 77757, Note_on_c, 0, 72, 0
2, 77764, Note_on_c, 0, 60, 0
2, 77778, Note_on_c, 0, 56, 49
2, 77784, Note_on_c, 0, 77, 63
2, 77832, Control_c, 0, 64, 28
2, 77848, Control_c, 0, 64, 49
2, 77863, Control_c, 0, 64, 57
2, 77887, Control_c, 0, 64, 64
2, 77892, Note_on_c, 0, 75, 62
2, 77901, Control_c, 0, 64, 70
2, 77916, Control_c, 0, 64, 78
2, 77932, Control_c, 0, 64, 87
2, 77937, Note_on_c, 0, 56, 0
2, 77947, Control_c, 0, 64, 89
2, 77952, Note_on_c, 0, 75, 0
2, 77953, Note_on_c, 0, 77, 0
2, 77962, Control_c, 0, 64, 88
2, 77977, Control_c, 0, 64, 87
2, 77992, Control_c, 0, 64, 84
2, 77999, Note_on_c, 0, 74, 64
2, 78001, Note_on_c, 0, 59, 62
2, 78008, Control_c, 0, 64, 81
2, 78023, Control_c, 0, 64, 76
2, 78037, Control_c, 0, 64, 72
2, 78053, Control_c, 0, 64, 68
2, 78068, Control_c, 0, 64, 65
2, 78083, Control_c, 0, 64, 61
2, 78092, Note_on_c, 0, 74, 0
2, 78095, Note_on_c, 0, 59, 0
2, 78095, Note_on_c, 0, 77, 72
2, 78099, Control_c, 0, 64, 55
2, 78102, Note_on_c, 0, 56, 59
2, 78113, Control_c, 0, 64, 45
2, 78129, Control_c, 0, 64, 33
2, 78144, Control_c, 0, 64, 13
2, 78159, Control_c, 0, 64, 0
2, 78197, Note_on_c, 0, 56, 0
2, 78209, Note_on_c, 0, 53, 63
2, 78214, Note_on_c, 0, 80, 69
2, 78217, Note_on_c, 0, 77, 0
2, 78307, Note_on_c, 0, 78, 73
2, 78311, Control_c, 0, 64, 30
2, 78326, Control_c, 0, 64, 49
2, 78336, Note_on_c, 0, 80, 0
2, 78341, Control_c, 0, 64, 58
2, 78356, Control_c, 0, 64, 63
2, 78364, Note_on_c, 0, 53, 0
2, 78372, Control_c, 0, 64, 69
2, 78372, Note_on_c, 0, 78, 0
2, 78386, Control_c, 0, 64, 77
2, 78400, Note_on_c, 0, 77, 78
2, 78401, Control_c, 0, 64, 86
2, 78408, Note_on_c, 0, 56, 61
2, 78417, Control_c, 0, 64, 89
2, 78448, Control_c, 0, 64, 88
2, 78463, Control_c, 0, 64, 86
2, 78478, Control_c, 0, 64, 84
2, 78479, Note_on_c, 0, 80, 73
2, 78492, Note_on_c, 0, 77, 0
2, 78494, Control_c, 0, 64, 83
2, 78509, Control_c, 0, 64, 81
2, 78512, Note_on_c, 0, 56, 0
2, 78513, Note_on_c, 0, 53, 57
2, 78513, Note_on_c, 0, 80, 0
2, 78523, Control_c, 0, 64, 79
2, 78539, Control_c, 0, 64, 77
2, 78554, Control_c, 0, 64, 73
2, 78569, Control_c, 0, 64, 69
2, 78584, Control_c, 0, 64, 66
2, 78595, Note_on_c, 0, 80, 72
2, 78599, Control_c, 0, 64, 64
2, 78615, Control_c, 0, 64, 62
2, 78630, Control_c, 0, 64, 59
2, 78641, Note_on_c, 0, 82, 78
2, 78653, Control_c, 0, 64, 55
2, 78655, Note_on_c, 0, 53, 0
2, 78658, Note_on_c, 0, 50, 50
2, 78668, Control_c, 0, 64, 50
2, 78683, Control_c, 0, 64, 43
2, 78696, Note_on_c, 0, 80, 0
2, 78699, Control_c, 0, 64, 33
2, 78714, Control_c, 0, 64, 19
2, 78719, Note_on_c, 0, 83, 81
2, 78730, Control_c, 0, 64, 0
2, 78731, Note_on_c, 0, 82, 0
2, 78934, Note_on_c, 0, 82, 69
2, 78936, Note_on_c, 0, 53, 54
2, 78949, Note_on_c, 0, 50, 0
2, 78965, Note_on_c, 0, 83, 0
2, 79026, Note_on_c, 0, 56, 68
2, 79032, Note_on_c, 0, 80, 69
2, 79043, Note_on_c, 0, 53, 0
2, 79090, Note_on_c, 0, 82, 0
2, 79130, Note_on_c, 0, 78, 71
2, 79147, Note_on_c, 0, 56, 0
2, 79151, Note_on_c, 0, 80, 0
2, 79152, Note_on_c, 0, 59, 58
2, 79210, Note_on_c, 0, 78, 0
2, 79228, Note_on_c, 0, 77, 75
2, 79334, Note_on_c, 0, 77, 0
2, 79339, Note_on_c, 0, 75, 72
2, 79351, Note_on_c, 0, 53, 65
2, 79388, Note_on_c, 0, 53, 0
2, 79450, Note_on_c, 0, 74, 70
2, 79458, Note_on_c, 0, 75, 0
2, 79569, Note_on_c, 0, 74, 0
2, 79574, Note_on_c, 0, 75, 72
2, 79576, Note_on_c, 0, 59, 0
2, 79581, Note_on_c, 0, 58, 61
2, 79583, Note_on_c, 0, 54, 54
2, 79669, Note_on_c, 0, 75, 0
2, 79673, Note_on_c, 0, 78, 75
2, 79746, Note_on_c, 0, 54, 0
2, 79756, Note_on_c, 0, 78, 0
2, 79769, Note_on_c, 0, 58, 0
2, 79781, Note_on_c, 0, 77, 75
2, 79792, Note_on_c, 0, 56, 66
2, 79792, Note_on_c, 0, 59, 68
2, 79823, Note_on_c, 0, 59, 0
2, 79829, Note_on_c, 0, 56, 0
2, 79881, Note_on_c, 0, 75, 77
2, 79911, Note_on_c, 0, 77, 0
2, 79990, Note_on_c, 0, 74, 66
2, 79998, Note_on_c, 0, 58, 75
2, 80003, Note_on_c, 0, 75, 0
2, 80026, Note_on_c, 0, 58, 0
2, 80059, Note_on_c, 0, 74, 0
2, 80087, Note_on_c, 0, 77, 68
2, 80201, Note_on_c, 0, 77, 0
2, 80205, Note_on_c, 0, 46, 55
2, 80209, Note_on_c, 0, 50, 45
2, 80237, Note_on_c, 0, 50, 0
2, 80242, Note_on_c, 0, 46, 0
2, 80318, Note_on_c, 0, 68, 60
2, 80426, Note_on_c, 0, 51, 54
2, 80435, Note_on_c, 0, 39, 50
2, 80461, Note_on_c, 0, 66, 59
2, 80463, Control_c, 0, 67, 8
2, 80478, Control_c, 0, 67, 9
2, 80493, Control_c, 0, 67, 9
2, 80505, Note_on_c, 0, 68, 0
2, 80508, Control_c, 0, 67, 10
2, 80523, Control_c, 0, 67, 11
2, 80573, Note_on_c, 0, 65, 58
2, 80616, Control_c, 0, 67, 10
2, 80630, Control_c, 0, 67, 9
2, 80645, Control_c, 0, 67, 8
2, 80658, Note_on_c, 0, 66, 0
2, 80661, Control_c, 0, 67, 8
2, 80683, Note_on_c, 0, 65, 0
2, 80689, Note_on_c, 0, 63, 66
2, 80691, Control_c, 0, 67, 0
2, 80743, Note_on_c, 0, 51, 0
2, 80747, Note_on_c, 0, 39, 0
2, 80763, Note_on_c, 0, 63, 0
2, 80782, Note_on_c, 0, 62, 60
2, 80869, Note_on_c, 0, 62, 0
2, 80896, Note_on_c, 0, 63, 54
2, 80978, Note_on_c, 0, 63, 0
2, 81008, Note_on_c, 0, 65, 57
2, 81101, Note_on_c, 0, 65, 0
2, 81116, Note_on_c, 0, 66, 51
2, 81117, Note_on_c, 0, 51, 64
2, 81148, Note_on_c, 0, 51, 0
2, 81199, Note_on_c, 0, 66, 0
2, 81213, Note_on_c, 0, 68, 58
2, 81300, Note_on_c, 0, 68, 0
2, 81330, Note_on_c, 0, 70, 49
2, 81334, Note_on_c, 0, 54, 63
2, 81409, Note_on_c, 0, 70, 0
2, 81419, Note_on_c, 0, 54, 0
2, 81430, Note_on_c, 0, 68, 58
2, 81436, Note_on_c, 0, 53, 61
2, 81521, Note_on_c, 0, 53, 0
2, 81523, Note_on_c, 0, 68, 0
2, 81531, Note_on_c, 0, 66, 53
2, 81535, Note_on_c, 0, 51, 72
2, 81621, Note_on_c, 0, 66, 0
2, 81625, Note_on_c, 0, 51, 0
2, 81630, Note_on_c, 0, 53, 74
2, 81636, Note_on_c, 0, 68, 55
2, 81692, Note_on_c, 0, 53, 0
2, 81725, Note_on_c, 0, 68, 0
2, 81743, Note_on_c, 0, 61, 72
2, 81752, Note_on_c, 0, 70, 58
2, 81773, Note_on_c, 0, 61, 0
2, 81838, Note_on_c, 0, 70, 0
2, 81857, Note_on_c, 0, 68, 58
2, 81954, Note_on_c, 0, 68, 0
2, 81958, Note_on_c, 0, 58, 69
2, 81961, Note_on_c, 0, 66, 50
2, 81990, Note_on_c, 0, 58, 0
2, 82032, Note_on_c, 0, 66, 0
2, 82070, Note_on_c, 0, 65, 53
2, 82202, Note_on_c, 0, 65, 0
2, 82210, Note_on_c, 0, 66, 60
2, 82214, Note_on_c, 0, 53, 66
2, 82471, Note_on_c, 0, 53, 0
2, 82480, Note_on_c, 0, 51, 58
2, 82563, Note_on_c, 0, 51, 0
2, 82575, Note_on_c, 0, 49, 63
2, 82653, Note_on_c, 0, 49, 0
2, 82670, Note_on_c, 0, 51, 77
2, 82703, Note_on_c, 0, 51, 0
2, 82777, Note_on_c, 0, 66, 0
2, 82789, Note_on_c, 0, 65, 51
2, 82860, Note_on_c, 0, 65, 0
2, 82894, Note_on_c, 0, 60, 62
2, 82894, Note_on_c, 0, 63, 58
2, 82920, Note_on_c, 0, 60, 0
2, 82956, Note_on_c, 0, 63, 0
2, 82993, Note_on_c, 0, 66, 50
2, 83101, Note_on_c, 0, 65, 50
2, 83104, Note_on_c, 0, 49, 68
2, 83119, Note_on_c, 0, 66, 0
2, 83135, Note_on_c, 0, 49, 0
2, 83184, Note_on_c, 0, 65, 0
2, 83201, Note_on_c, 0, 63, 55
2, 83297, Note_on_c, 0, 63, 0
2, 83319, Note_on_c, 0, 61, 52
2, 83324, Note_on_c, 0, 58, 72
2, 83354, Note_on_c, 0, 58, 0
2, 83385, Note_on_c, 0, 61, 0
2, 83411, Note_on_c, 0, 65, 55
2, 83524, Note_on_c, 0, 63, 52
2, 83528, Note_on_c, 0, 65, 0
2, 83533, Note_on_c, 0, 48, 71
2, 83565, Note_on_c, 0, 48, 0
2, 83623, Note_on_c, 0, 61, 59
2, 83629, Note_on_c, 0, 63, 0
2, 83735, Note_on_c, 0, 61, 0
2, 83750, Note_on_c, 0, 57, 67
2, 83758, Note_on_c, 0, 63, 47
2, 83786, Note_on_c, 0, 57, 0
2, 83804, Note_on_c, 0, 63, 0
2, 83850, Note_on_c, 0, 60, 50
2, 83946, Note_on_c, 0, 60, 0
2, 83979, Note_on_c, 0, 61, 52
2, 83981, Note_on_c, 0, 46, 58
2, 84033, Note_on_c, 0, 46, 0
2, 84076, Note_on_c, 0, 61, 0
2, 84124, Note_on_c, 0, 65, 60
2, 84233, Note_on_c, 0, 65, 0
2, 84234, Note_on_c, 0, 66, 66
2, 84236, Note_on_c, 0, 58, 56
2, 84298, Note_on_c, 0, 66, 0
2, 84334, Note_on_c, 0, 58, 0
2, 84337, Note_on_c, 0, 65, 68
2, 84341, Note_on_c, 0, 57, 61
2, 84437, Note_on_c, 0, 57, 0
2, 84437, Note_on_c, 0, 65, 0
2, 84443, Note_on_c, 0, 58, 64
2, 84447, Note_on_c, 0, 73, 79
2, 84525, Note_on_c, 0, 58, 0
2, 84532, Note_on_c, 0, 60, 67
2, 84644, Note_on_c, 0, 61, 70
2, 84654, Note_on_c, 0, 60, 0
2, 84659, Note_on_c, 0, 65, 66
2, 84693, Note_on_c, 0, 65, 0
2, 84749, Note_on_c, 0, 58, 68
2, 84755, Note_on_c, 0, 61, 0
2, 84852, Note_on_c, 0, 58, 0
2, 84862, Note_on_c, 0, 55, 65
2, 84871, Note_on_c, 0, 70, 72
2, 84899, Note_on_c, 0, 73, 0
2, 84964, Note_on_c, 0, 72, 79
2, 84965, Note_on_c, 0, 55, 0
2, 84965, Note_on_c, 0, 56, 68
2, 84980, Note_on_c, 0, 70, 0
2, 85060, Note_on_c, 0, 56, 0
2, 85069, Note_on_c, 0, 58, 63
2, 85070, Note_on_c, 0, 73, 81
2, 85085, Note_on_c, 0, 72, 0
2, 85141, Note_on_c, 0, 73, 0
2, 85167, Note_on_c, 0, 70, 79
2, 85174, Note_on_c, 0, 58, 0
2, 85175, Note_on_c, 0, 55, 61
2, 85271, Note_on_c, 0, 55, 0
2, 85299, Note_on_c, 0, 51, 60
2, 85301, Note_on_c, 0, 82, 86
2, 85361, Note_on_c, 0, 70, 0
2, 85415, Note_on_c, 0, 53, 61
2, 85419, Note_on_c, 0, 51, 0
2, 85421, Note_on_c, 0, 73, 75
2, 85524, Note_on_c, 0, 53, 0
2, 85525, Note_on_c, 0, 55, 65
2, 85525, Note_on_c, 0, 75, 77
2, 85532, Note_on_c, 0, 73, 0
2, 85592, Note_on_c, 0, 82, 0
2, 85623, Note_on_c, 0, 55, 0
2, 85623, Note_on_c, 0, 70, 75
2, 85631, Note_on_c, 0, 51, 63
2, 85670, Note_on_c, 0, 75, 0
2, 85705, Note_on_c, 0, 51, 0
2, 85720, Note_on_c, 0, 44, 57
2, 85720, Note_on_c, 0, 70, 0
2, 85730, Note_on_c, 0, 72, 74
2, 85760, Note_on_c, 0, 44, 0
2, 85779, Note_on_c, 0, 72, 0
2, 85851, Note_on_c, 0, 63, 61
2, 85933, Note_on_c, 0, 63, 0
2, 85938, Note_on_c, 0, 56, 56
2, 85953, Note_on_c, 0, 65, 56
2, 86023, Note_on_c, 0, 56, 0
2, 86031, Note_on_c, 0, 65, 0
2, 86041, Note_on_c, 0, 55, 49
2, 86050, Note_on_c, 0, 63, 61
2, 86147, Note_on_c, 0, 55, 0
2, 86159, Note_on_c, 0, 56, 57
2, 86161, Note_on_c, 0, 72, 73
2, 86167, Note_on_c, 0, 63, 0
2, 86244, Note_on_c, 0, 56, 0
2, 86253, Note_on_c, 0, 58, 64
2, 86377, Note_on_c, 0, 60, 63
2, 86380, Note_on_c, 0, 58, 0
2, 86387, Note_on_c, 0, 63, 64
2, 86430, Note_on_c, 0, 63, 0
2, 86488, Note_on_c, 0, 56, 59
2, 86493, Note_on_c, 0, 60, 0
2, 86580, Note_on_c, 0, 56, 0
2, 86594, Note_on_c, 0, 68, 65
2, 86600, Note_on_c, 0, 53, 56
2, 86622, Note_on_c, 0, 72, 0
2, 86688, Note_on_c, 0, 70, 72
2, 86691, Note_on_c, 0, 53, 0
2, 86699, Note_on_c, 0, 55, 61
2, 86700, Note_on_c, 0, 68, 0
2, 86791, Note_on_c, 0, 72, 70
2, 86803, Note_on_c, 0, 70, 0
2, 86809, Note_on_c, 0, 56, 58
2, 86812, Note_on_c, 0, 55, 0
2, 86855, Note_on_c, 0, 72, 0
2, 86891, Note_on_c, 0, 68, 75
2, 86905, Note_on_c, 0, 53, 55
2, 86905, Note_on_c, 0, 56, 0
2, 86995, Note_on_c, 0, 53, 0
2, 87009, Note_on_c, 0, 80, 77
2, 87019, Note_on_c, 0, 49, 47
2, 87117, Note_on_c, 0, 72, 70
2, 87121, Note_on_c, 0, 68, 0
2, 87135, Note_on_c, 0, 51, 64
2, 87152, Note_on_c, 0, 49, 0
2, 87214, Note_on_c, 0, 72, 0
2, 87225, Note_on_c, 0, 73, 70
2, 87228, Note_on_c, 0, 51, 0
2, 87231, Note_on_c, 0, 53, 59
2, 87276, Note_on_c, 0, 80, 0
2, 87317, Note_on_c, 0, 68, 69
2, 87333, Note_on_c, 0, 53, 0
2, 87337, Note_on_c, 0, 49, 48
2, 87397, Note_on_c, 0, 68, 0
2, 87409, Note_on_c, 0, 49, 0
2, 87424, Note_on_c, 0, 70, 62
2, 87428, Note_on_c, 0, 43, 51
2, 87476, Note_on_c, 0, 73, 0
2, 87485, Note_on_c, 0, 70, 0
2, 87521, Note_on_c, 0, 43, 0
2, 87546, Note_on_c, 0, 61, 61
2, 87623, Note_on_c, 0, 61, 0
2, 87643, Note_on_c, 0, 63, 57
2, 87660, Note_on_c, 0, 55, 50
2, 87729, Note_on_c, 0, 63, 0
2, 87734, Note_on_c, 0, 55, 0
2, 87740, Note_on_c, 0, 61, 64
2, 87772, Note_on_c, 0, 53, 54
2, 87838, Note_on_c, 0, 53, 0
2, 87852, Note_on_c, 0, 61, 0
2, 87870, Note_on_c, 0, 70, 66
2, 87873, Note_on_c, 0, 55, 57
2, 87983, Note_on_c, 0, 55, 0
2, 87993, Note_on_c, 0, 56, 58
2, 88091, Note_on_c, 0, 61, 56
2, 88093, Note_on_c, 0, 58, 60
2, 88102, Note_on_c, 0, 56, 0
2, 88133, Note_on_c, 0, 61, 0
2, 88178, Note_on_c, 0, 58, 0
2, 88196, Note_on_c, 0, 55, 56
2, 88304, Note_on_c, 0, 55, 0
2, 88305, Note_on_c, 0, 67, 54
2, 88307, Note_on_c, 0, 52, 51
2, 88347, Note_on_c, 0, 70, 0
2, 88396, Note_on_c, 0, 52, 0
2, 88402, Note_on_c, 0, 67, 0
2, 88403, Note_on_c, 0, 68, 62
2, 88415, Note_on_c, 0, 53, 54
2, 88500, Note_on_c, 0, 53, 0
2, 88516, Note_on_c, 0, 55, 51
2, 88517, Note_on_c, 0, 70, 59
2, 88539, Note_on_c, 0, 68, 0
2, 88573, Note_on_c, 0, 70, 0
2, 88610, Note_on_c, 0, 55, 0
2, 88616, Note_on_c, 0, 67, 63
2, 88639, Note_on_c, 0, 52, 46
2, 88731, Note_on_c, 0, 52, 0
2, 88758, Note_on_c, 0, 79, 72
2, 88764, Note_on_c, 0, 48, 39
2, 88799, Note_on_c, 0, 67, 0
2, 88868, Note_on_c, 0, 48, 0
2, 88879, Note_on_c, 0, 50, 49
2, 88885, Note_on_c, 0, 70, 56
2, 88980, Note_on_c, 0, 50, 0
2, 88998, Note_on_c, 0, 52, 47
2, 89001, Note_on_c, 0, 72, 57
2, 89017, Note_on_c, 0, 70, 0
2, 89052, Note_on_c, 0, 72, 0
2, 89104, Note_on_c, 0, 52, 0
2, 89112, Note_on_c, 0, 67, 49
2, 89117, Note_on_c, 0, 48, 38
2, 89178, Note_on_c, 0, 48, 0
2, 89223, Note_on_c, 0, 41, 46
2, 89240, Note_on_c, 0, 68, 53
2, 89275, Note_on_c, 0, 79, 0
2, 89350, Note_on_c, 0, 76, 55
2, 89353, Note_on_c, 0, 67, 0
2, 89358, Note_on_c, 0, 41, 0
2, 89360, Note_on_c, 0, 43, 51
2, 89464, Note_on_c, 0, 77, 72
2, 89469, Note_on_c, 0, 68, 0
2, 89476, Note_on_c, 0, 44, 54
2, 89491, Note_on_c, 0, 43, 0
2, 89497, Note_on_c, 0, 76, 0
2, 89559, Note_on_c, 0, 46, 63
2, 89561, Note_on_c, 0, 73, 73
2, 89565, Note_on_c, 0, 44, 0
2, 89584, Note_on_c, 0, 77, 0
2, 89651, Note_on_c, 0, 46, 0
2, 89665, Note_on_c, 0, 48, 63
2, 89668, Note_on_c, 0, 70, 76
2, 89681, Note_on_c, 0, 73, 0
2, 89767, Note_on_c, 0, 50, 65
2, 89770, Note_on_c, 0, 48, 0
2, 89871, Note_on_c, 0, 50, 0
2, 89882, Note_on_c, 0, 52, 68
2, 89882, Note_on_c, 0, 60, 74
2, 89927, Note_on_c, 0, 60, 0
2, 89955, Note_on_c, 0, 52, 0
2, 89977, Note_on_c, 0, 48, 67
2, 90090, Note_on_c, 0, 48, 0
2, 90097, Note_on_c, 0, 53, 62
2, 90105, Note_on_c, 0, 61, 71
2, 90168, Note_on_c, 0, 70, 0
2, 90200, Note_on_c, 0, 61, 0
2, 90201, Note_on_c, 0, 60, 81
2, 90207, Note_on_c, 0, 51, 67
2, 90210, Note_on_c, 0, 53, 0
2, 90291, Note_on_c, 0, 60, 0
2, 90301, Note_on_c, 0, 51, 0
2, 90301, Note_on_c, 0, 58, 81
2, 90304, Note_on_c, 0, 49, 64
2, 90397, Note_on_c, 0, 60, 82
2, 90398, Note_on_c, 0, 58, 0
2, 90417, Note_on_c, 0, 49, 0
2, 90417, Note_on_c, 0, 51, 72
2, 90472, Note_on_c, 0, 60, 0
2, 90510, Note_on_c, 0, 51, 0
2, 90510, Note_on_c, 0, 68, 81
2, 90522, Note_on_c, 0, 53, 67
2, 90568, Note_on_c, 0, 69, 16
2, 90595, Note_on_c, 0, 69, 0
2, 90613, Note_on_c, 0, 53, 0
2, 90625, Note_on_c, 0, 51, 64
2, 90724, Note_on_c, 0, 51, 0
2, 90731, Note_on_c, 0, 49, 62
2, 90738, Note_on_c, 0, 65, 75
2, 90804, Note_on_c, 0, 65, 0
2, 90827, Note_on_c, 0, 49, 0
2, 90834, Note_on_c, 0, 48, 66
2, 90993, Note_on_c, 0, 49, 62
2, 90997, Note_on_c, 0, 60, 79
2, 91001, Note_on_c, 0, 48, 0
2, 91200, Note_on_c, 0, 60, 0
2, 91240, Note_on_c, 0, 58, 70
2, 91266, Note_on_c, 0, 68, 0
2, 91311, Note_on_c, 0, 58, 0
2, 91330, Note_on_c, 0, 56, 78
2, 91419, Note_on_c, 0, 56, 0
2, 91425, Note_on_c, 0, 67, 66
2, 91426, Note_on_c, 0, 58, 75
2, 91476, Note_on_c, 0, 67, 0
2, 91525, Note_on_c, 0, 49, 0
2, 91539, Note_on_c, 0, 48, 63
2, 91620, Note_on_c, 0, 48, 0
2, 91637, Note_on_c, 0, 46, 57
2, 91657, Note_on_c, 0, 67, 78
2, 91680, Note_on_c, 0, 58, 0
2, 91761, Note_on_c, 0, 49, 62
2, 91776, Note_on_c, 0, 46, 0
2, 91865, Note_on_c, 0, 49, 0
2, 91876, Note_on_c, 0, 48, 62
2, 91882, Note_on_c, 0, 56, 79
2, 91920, Note_on_c, 0, 56, 0
2, 91971, Note_on_c, 0, 48, 0
2, 91985, Note_on_c, 0, 46, 59
2, 92066, Note_on_c, 0, 67, 0
2, 92096, Note_on_c, 0, 44, 57
2, 92099, Note_on_c, 0, 65, 74
2, 92100, Note_on_c, 0, 46, 0
2, 92154, Note_on_c, 0, 65, 0
2, 92178, Note_on_c, 0, 48, 62
2, 92182, Note_on_c, 0, 44, 0
2, 92286, Note_on_c, 0, 48, 0
2, 92307, Note_on_c, 0, 46, 58
2, 92310, Note_on_c, 0, 55, 62
2, 92310, Note_on_c, 0, 64, 67
2, 92347, Note_on_c, 0, 55, 0
2, 92355, Note_on_c, 0, 64, 0
2, 92398, Note_on_c, 0, 46, 0
2, 92408, Note_on_c, 0, 44, 57
2, 92518, Note_on_c, 0, 44, 0
2, 92540, Note_on_c, 0, 46, 56
2, 92540, Note_on_c, 0, 67, 67
2, 92543, Note_on_c, 0, 64, 53
2, 92574, Note_on_c, 0, 64, 0
2, 92583, Note_on_c, 0, 67, 0
2, 92615, Note_on_c, 0, 46, 0
2, 92645, Note_on_c, 0, 43, 50
2, 92759, Note_on_c, 0, 43, 0
2, 92781, Note_on_c, 0, 44, 47
2, 92787, Note_on_c, 0, 53, 56
2, 92794, Note_on_c, 0, 72, 56
2, 92824, Note_on_c, 0, 44, 0
2, 92864, Note_on_c, 0, 72, 0
2, 92882, Note_on_c, 0, 70, 54
2, 92992, Note_on_c, 0, 70, 0
2, 92995, Note_on_c, 0, 68, 51
2, 93001, Note_on_c, 0, 49, 54
2, 93032, Note_on_c, 0, 49, 0
2, 93078, Note_on_c, 0, 68, 0
2, 93091, Note_on_c, 0, 72, 58
2, 93192, Note_on_c, 0, 72, 0
2, 93204, Note_on_c, 0, 43, 57
2, 93206, Note_on_c, 0, 70, 56
2, 93225, Note_on_c, 0, 53, 0
2, 93255, Note_on_c, 0, 43, 0
2, 93316, Note_on_c, 0, 68, 55
2, 93359, Note_on_c, 0, 70, 0
2, 93411, Note_on_c, 0, 67, 58
2, 93421, Note_on_c, 0, 68, 0
2, 93422, Note_on_c, 0, 48, 61
2, 93426, Note_on_c, 0, 52, 59
2, 93470, Note_on_c, 0, 48, 0
2, 93503, Note_on_c, 0, 52, 0
2, 93514, Note_on_c, 0, 67, 0
2, 93517, Note_on_c, 0, 70, 59
2, 93633, Note_on_c, 0, 68, 65
2, 93637, Note_on_c, 0, 53, 68
2, 93640, Note_on_c, 0, 41, 63
2, 93646, Note_on_c, 0, 70, 0
2, 93687, Note_on_c, 0, 41, 0
2, 93703, Note_on_c, 0, 53, 0
2, 93703, Note_on_c, 0, 68, 0
2, 93735, Note_on_c, 0, 65, 66
2, 93838, Note_on_c, 0, 52, 74
2, 93838, Note_on_c, 0, 65, 0
2, 93845, Note_on_c, 0, 73, 74
2, 93848, Note_on_c, 0, 46, 63
2, 93899, Note_on_c, 0, 52, 0
2, 93911, Note_on_c, 0, 46, 0
2, 93946, Note_on_c, 0, 73, 0
2, 93948, Note_on_c, 0, 70, 76
2, 94064, Note_on_c, 0, 53, 80
2, 94065, Note_on_c, 0, 44, 76
2, 94068, Note_on_c, 0, 70, 0
2, 94069, Note_on_c, 0, 72, 76
2, 94131, Note_on_c, 0, 44, 0
2, 94138, Note_on_c, 0, 72, 0
2, 94139, Note_on_c, 0, 53, 0
2, 94176, Note_on_c, 0, 68, 79
2, 94278, Note_on_c, 0, 68, 0
2, 94284, Note_on_c, 0, 49, 74
2, 94288, Note_on_c, 0, 58, 86
2, 94292, Note_on_c, 0, 78, 82
2, 94355, Note_on_c, 0, 58, 0
2, 94359, Note_on_c, 0, 49, 0
2, 94401, Note_on_c, 0, 78, 0
2, 94405, Note_on_c, 0, 76, 79
2, 94471, Note_on_c, 0, 76, 0
2, 94524, Note_on_c, 0, 56, 80
2, 94530, Note_on_c, 0, 48, 64
2, 94548, Note_on_c, 0, 76, 74
2, 94651, Note_on_c, 0, 77, 86
2, 94659, Note_on_c, 0, 76, 0
2, 94753, Note_on_c, 0, 56, 0
2, 94756, Note_on_c, 0, 55, 68
2, 94775, Note_on_c, 0, 83, 83
2, 94783, Note_on_c, 0, 77, 0
2, 94840, Note_on_c, 0, 55, 0
2, 94842, Note_on_c, 0, 53, 64
2, 94851, Note_on_c, 0, 83, 0
2, 94862, Note_on_c, 0, 84, 79
2, 94958, Note_on_c, 0, 77, 72
2, 94960, Note_on_c, 0, 84, 0
2, 94966, Note_on_c, 0, 55, 70
2, 94984, Note_on_c, 0, 53, 0
2, 94993, Note_on_c, 0, 77, 0
2, 94999, Note_on_c, 0, 76, 74
2, 95022, Note_on_c, 0, 55, 0
2, 95046, Note_on_c, 0, 76, 0
2, 95056, Note_on_c, 0, 77, 74
2, 95105, Note_on_c, 0, 76, 76
2, 95106, Note_on_c, 0, 77, 0
2, 95235, Note_on_c, 0, 48, 0
2, 95238, Note_on_c, 0, 58, 65
2, 95278, Note_on_c, 0, 58, 0
2, 95344, Note_on_c, 0, 77, 73
2, 95368, Note_on_c, 0, 76, 0
2, 95393, Note_on_c, 0, 77, 0
2, 95474, Note_on_c, 0, 53, 41
2, 95487, Note_on_c, 0, 77, 69
2, 95496, Note_on_c, 0, 56, 51
2, 95611, Note_on_c, 0, 58, 58
2, 95647, Note_on_c, 0, 56, 0
2, 95715, Note_on_c, 0, 60, 60
2, 95722, Note_on_c, 0, 58, 0
2, 95749, Note_on_c, 0, 53, 0
2, 95816, Note_on_c, 0, 56, 58
2, 95826, Note_on_c, 0, 60, 0
2, 95902, Note_on_c, 0, 56, 0
2, 95922, Note_on_c, 0, 53, 65
2, 95933, Note_on_c, 0, 77, 0
2, 96010, Note_on_c, 0, 53, 0
2, 96015, Note_on_c, 0, 54, 67
2, 96108, Note_on_c, 0, 54, 0
2, 96112, Note_on_c, 0, 56, 64
2, 96127, Note_on_c, 0, 77, 79
2, 96164, Note_on_c, 0, 77, 0
2, 96217, Note_on_c, 0, 53, 64
2, 96225, Note_on_c, 0, 56, 0
2, 96341, Note_on_c, 0, 53, 0
2, 96350, Note_on_c, 0, 50, 56
2, 96365, Note_on_c, 0, 71, 73
2, 96453, Note_on_c, 0, 71, 0
2, 96462, Note_on_c, 0, 70, 77
2, 96469, Note_on_c, 0, 51, 65
2, 96487, Note_on_c, 0, 50, 0
2, 96547, Note_on_c, 0, 70, 0
2, 96559, Note_on_c, 0, 51, 0
2, 96561, Note_on_c, 0, 68, 80
2, 96565, Note_on_c, 0, 53, 67
2, 96644, Note_on_c, 0, 68, 0
2, 96644, Note_on_c, 0, 70, 81
2, 96653, Note_on_c, 0, 50, 54
2, 96657, Note_on_c, 0, 53, 0
2, 96742, Note_on_c, 0, 50, 0
2, 96749, Note_on_c, 0, 77, 85
2, 96751, Note_on_c, 0, 70, 0
2, 96757, Note_on_c, 0, 46, 57
2, 96780, Note_on_c, 0, 77, 0
2, 96864, Note_on_c, 0, 46, 0
2, 96868, Note_on_c, 0, 50, 56
2, 96962, Note_on_c, 0, 74, 78
2, 96970, Note_on_c, 0, 53, 64
2, 96975, Note_on_c, 0, 50, 0
2, 96996, Note_on_c, 0, 74, 0
2, 97061, Note_on_c, 0, 53, 0
2, 97077, Note_on_c, 0, 58, 59
2, 97182, Note_on_c, 0, 68, 77
2, 97188, Note_on_c, 0, 58, 0
2, 97194, Note_on_c, 0, 51, 59
2, 97308, Note_on_c, 0, 54, 62
2, 97311, Note_on_c, 0, 51, 0
2, 97425, Note_on_c, 0, 58, 64
2, 97436, Note_on_c, 0, 54, 0
2, 97436, Note_on_c, 0, 68, 0
2, 97437, Note_on_c, 0, 66, 75
2, 97496, Note_on_c, 0, 58, 0
2, 97509, Note_on_c, 0, 66, 0
2, 97521, Note_on_c, 0, 65, 77
2, 97527, Note_on_c, 0, 62, 64
2, 97609, Note_on_c, 0, 65, 0
2, 97615, Note_on_c, 0, 62, 0
2, 97615, Note_on_c, 0, 66, 78
2, 97634, Note_on_c, 0, 63, 57
2, 97645, Note_on_c, 0, 66, 0
2, 97718, Note_on_c, 0, 63, 0
2, 97736, Note_on_c, 0, 65, 65
2, 97845, Note_on_c, 0, 75, 71
2, 97847, Note_on_c, 0, 66, 58
2, 97850, Note_on_c, 0, 65, 0
2, 97877, Note_on_c, 0, 75, 0
2, 97956, Note_on_c, 0, 63, 51
2, 97956, Note_on_c, 0, 66, 0
2, 98045, Note_on_c, 0, 63, 0
2, 98072, Note_on_c, 0, 69, 62
2, 98077, Note_on_c, 0, 60, 47
2, 98146, Note_on_c, 0, 60, 0
2, 98149, Note_on_c, 0, 69, 0
2, 98170, Note_on_c, 0, 68, 69
2, 98171, Note_on_c, 0, 61, 54
2, 98234, Note_on_c, 0, 61, 0
2, 98235, Note_on_c, 0, 68, 0
2, 98264, Note_on_c, 0, 63, 52
2, 98274, Note_on_c, 0, 66, 68
2, 98348, Note_on_c, 0, 66, 0
2, 98351, Note_on_c, 0, 63, 0
2, 98360, Note_on_c, 0, 68, 73
2, 98364, Note_on_c, 0, 60, 58
2, 98402, Note_on_c, 0, 60, 0
2, 98415, Note_on_c, 0, 68, 0
2, 98466, Note_on_c, 0, 75, 75
2, 98481, Note_on_c, 0, 56, 59
2, 98497, Note_on_c, 0, 75, 0
2, 98593, Note_on_c, 0, 44, 46
2, 98691, Note_on_c, 0, 72, 69
2, 98702, Note_on_c, 0, 46, 53
2, 98711, Note_on_c, 0, 44, 0
2, 98720, Note_on_c, 0, 72, 0
2, 98805, Note_on_c, 0, 48, 54
2, 98810, Note_on_c, 0, 46, 0
2, 98855, Note_on_c, 0, 56, 0
2, 98925, Note_on_c, 0, 49, 48
2, 98930, Note_on_c, 0, 48, 0
2, 98935, Note_on_c, 0, 66, 62
2, 99048, Note_on_c, 0, 56, 54
2, 99104, Note_on_c, 0, 56, 0
2, 99152, Note_on_c, 0, 65, 57
2, 99168, Note_on_c, 0, 58, 52
2, 99172, Note_on_c, 0, 66, 0
2, 99242, Note_on_c, 0, 58, 0
2, 99253, Note_on_c, 0, 63, 64
2, 99265, Note_on_c, 0, 65, 0
2, 99276, Note_on_c, 0, 60, 46
2, 99341, Note_on_c, 0, 60, 0
2, 99365, Note_on_c, 0, 61, 58
2, 99369, Note_on_c, 0, 63, 0
2, 99386, Note_on_c, 0, 65, 58
2, 99403, Control_c, 0, 64, 43
2, 99407, Note_on_c, 0, 61, 0
2, 99418, Control_c, 0, 64, 59
2, 99424, Note_on_c, 0, 65, 0
2, 99433, Control_c, 0, 64, 65
2, 99449, Control_c, 0, 64, 72
2, 99464, Control_c, 0, 64, 85
2, 99478, Control_c, 0, 64, 107
2, 99494, Control_c, 0, 64, 127
2, 99518, Note_on_c, 0, 68, 65
2, 99520, Note_on_c, 0, 51, 63
2, 99539, Control_c, 0, 64, 118
2, 99554, Control_c, 0, 64, 95
2, 99563, Note_on_c, 0, 49, 0
2, 99570, Control_c, 0, 64, 81
2, 99585, Control_c, 0, 64, 70
2, 99594, Note_on_c, 0, 51, 0
2, 99600, Control_c, 0, 64, 62
2, 99613, Note_on_c, 0, 73, 76
2, 99614, Note_on_c, 0, 53, 58
2, 99615, Control_c, 0, 64, 52
2, 99620, Note_on_c, 0, 68, 0
2, 99630, Control_c, 0, 64, 42
2, 99645, Control_c, 0, 64, 36
2, 99660, Control_c, 0, 64, 32
2, 99675, Control_c, 0, 64, 31
2, 99691, Control_c, 0, 64, 30
2, 99705, Note_on_c, 0, 53, 0
2, 99708, Note_on_c, 0, 55, 65
2, 99708, Note_on_c, 0, 75, 81
2, 99730, Note_on_c, 0, 73, 0
2, 99767, Control_c, 0, 64, 31
2, 99782, Control_c, 0, 64, 31
2, 99797, Control_c, 0, 64, 32
2, 99800, Note_on_c, 0, 75, 0
2, 99805, Note_on_c, 0, 55, 0
2, 99809, Note_on_c, 0, 77, 84
2, 99813, Control_c, 0, 64, 32
2, 99813, Note_on_c, 0, 56, 67
2, 99863, Note_on_c, 0, 57, 36
2, 99897, Note_on_c, 0, 56, 0
2, 99898, Note_on_c, 0, 57, 0
2, 99898, Note_on_c, 0, 75, 86
2, 99904, Control_c, 0, 64, 33
2, 99913, Note_on_c, 0, 55, 65
2, 99931, Note_on_c, 0, 77, 0
2, 99997, Note_on_c, 0, 73, 81
2, 99998, Note_on_c, 0, 55, 0
2, 100004, Note_on_c, 0, 75, 0
2, 100010, Note_on_c, 0, 53, 66
2, 100011, Control_c, 0, 64, 33
2, 100088, Note_on_c, 0, 75, 83
2, 100103, Note_on_c, 0, 73, 0
2, 100104, Note_on_c, 0, 55, 67
2, 100106, Note_on_c, 0, 53, 0
2, 100138, Note_on_c, 0, 75, 0
2, 100185, Control_c, 0, 64, 34
2, 100190, Note_on_c, 0, 55, 0
2, 100193, Note_on_c, 0, 56, 71
2, 100203, Note_on_c, 0, 84, 86
2, 100222, Note_on_c, 0, 72, 70
2, 100248, Note_on_c, 0, 84, 0
2, 100262, Control_c, 0, 64, 34
2, 100292, Note_on_c, 0, 56, 0
2, 100308, Note_on_c, 0, 55, 65
2, 100421, Note_on_c, 0, 55, 0
2, 100427, Note_on_c, 0, 80, 81
2, 100430, Note_on_c, 0, 53, 64
2, 100462, Note_on_c, 0, 80, 0
2, 100472, Note_on_c, 0, 72, 0
2, 100530, Note_on_c, 0, 53, 0
2, 100533, Note_on_c, 0, 51, 68
2, 100555, Note_on_c, 0, 72, 30
2, 100642, Note_on_c, 0, 51, 0
2, 100649, Note_on_c, 0, 53, 69
2, 100653, Note_on_c, 0, 75, 81
2, 100889, Note_on_c, 0, 72, 0
2, 100927, Note_on_c, 0, 73, 76
2, 100968, Note_on_c, 0, 75, 0
2, 101016, Control_c, 0, 64, 35
2, 101017, Note_on_c, 0, 72, 77
2, 101026, Note_on_c, 0, 73, 0
2, 101115, Note_on_c, 0, 73, 84
2, 101117, Note_on_c, 0, 72, 0
2, 101123, Note_on_c, 0, 70, 69
2, 101155, Note_on_c, 0, 73, 0
2, 101177, Note_on_c, 0, 70, 0
2, 101220, Note_on_c, 0, 53, 0
2, 101222, Note_on_c, 0, 51, 65
2, 101322, Note_on_c, 0, 51, 0
2, 101330, Note_on_c, 0, 49, 58
2, 101331, Note_on_c, 0, 82, 81
2, 101375, Note_on_c, 0, 82, 0
2, 101418, Note_on_c, 0, 49, 0
2, 101419, Note_on_c, 0, 53, 67
2, 101518, Note_on_c, 0, 53, 0
2, 101528, Note_on_c, 0, 51, 65
2, 101539, Note_on_c, 0, 72, 81
2, 101579, Note_on_c, 0, 72, 0
2, 101614, Note_on_c, 0, 51, 0
2, 101627, Note_on_c, 0, 49, 59
2, 101730, Note_on_c, 0, 49, 0
2, 101749, Note_on_c, 0, 48, 59
2, 101750, Note_on_c, 0, 80, 78
2, 101761, Note_on_c, 0, 68, 64
2, 101794, Note_on_c, 0, 68, 0
2, 101807, Note_on_c, 0, 80, 0
2, 101825, Note_on_c, 0, 48, 0
2, 101846, Note_on_c, 0, 51, 65
2, 101887, Control_c, 0, 64, 35
2, 101968, Note_on_c, 0, 51, 0
2, 101975, Note_on_c, 0, 70, 72
2, 101980, Note_on_c, 0, 49, 56
2, 101981, Note_on_c, 0, 67, 61
2, 102008, Note_on_c, 0, 70, 0
2, 102011, Note_on_c, 0, 67, 0
2, 102064, Note_on_c, 0, 49, 0
2, 102080, Note_on_c, 0, 48, 52
2, 102175, Note_on_c, 0, 48, 0
2, 102194, Note_on_c, 0, 46, 47
2, 102202, Note_on_c, 0, 79, 73
2, 102215, Note_on_c, 0, 70, 56
2, 102250, Note_on_c, 0, 70, 0
2, 102258, Note_on_c, 0, 79, 0
2, 102279, Note_on_c, 0, 46, 0
2, 102308, Note_on_c, 0, 49, 45
2, 102442, Note_on_c, 0, 49, 0
2, 102461, Note_on_c, 0, 48, 54
2, 102462, Note_on_c, 0, 68, 64
2, 102473, Note_on_c, 0, 63, 47
2, 102492, Note_on_c, 0, 48, 0
2, 102500, Note_on_c, 0, 63, 0
2, 102557, Note_on_c, 0, 68, 0
2, 102580, Note_on_c, 0, 63, 57
2, 102623, Note_on_c, 0, 63, 0
2, 102684, Note_on_c, 0, 65, 48
2, 102687, Note_on_c, 0, 51, 62
2, 102712, Note_on_c, 0, 51, 0
2, 102765, Note_on_c, 0, 65, 0
2, 102777, Note_on_c, 0, 67, 49
2, 102865, Note_on_c, 0, 67, 0
2, 102896, Note_on_c, 0, 54, 56
2, 102904, Note_on_c, 0, 68, 49
2, 102975, Note_on_c, 0, 68, 0
2, 103008, Note_on_c, 0, 70, 46
2, 103102, Note_on_c, 0, 70, 0
2, 103126, Note_on_c, 0, 56, 63
2, 103140, Note_on_c, 0, 72, 50
2, 103164, Note_on_c, 0, 56, 0
2, 103195, Note_on_c, 0, 72, 0
2, 103245, Note_on_c, 0, 68, 49
2, 103339, Note_on_c, 0, 68, 0
2, 103351, Note_on_c, 0, 58, 65
2, 103365, Note_on_c, 0, 73, 50
2, 103433, Note_on_c, 0, 73, 0
2, 103438, Note_on_c, 0, 58, 0
2, 103444, Note_on_c, 0, 54, 0
2, 103447, Note_on_c, 0, 56, 66
2, 103458, Note_on_c, 0, 72, 54
2, 103545, Note_on_c, 0, 56, 0
2, 103545, Note_on_c, 0, 72, 0
2, 103549, Note_on_c, 0, 54, 68
2, 103562, Note_on_c, 0, 70, 53
2, 103638, Note_on_c, 0, 56, 71
2, 103638, Note_on_c, 0, 70, 0
2, 103640, Note_on_c, 0, 54, 0
2, 103669, Note_on_c, 0, 72, 49
2, 103725, Note_on_c, 0, 56, 0
2, 103738, Note_on_c, 0, 72, 0
2, 103754, Note_on_c, 0, 65, 73
2, 103763, Note_on_c, 0, 53, 60
2, 103772, Note_on_c, 0, 73, 49
2, 103782, Note_on_c, 0, 65, 0
2, 103863, Note_on_c, 0, 73, 0
2, 103888, Note_on_c, 0, 72, 48
2, 103981, Note_on_c, 0, 72, 0
2, 103991, Note_on_c, 0, 61, 72
2, 104007, Note_on_c, 0, 70, 52
2, 104019, Note_on_c, 0, 61, 0
2, 104064, Note_on_c, 0, 70, 0
2, 104109, Note_on_c, 0, 68, 59
2, 104235, Note_on_c, 0, 56, 68
2, 104242, Note_on_c, 0, 68, 0
2, 104244, Note_on_c, 0, 70, 62
2, 104326, Note_on_c, 0, 53, 0
2, 104506, Note_on_c, 0, 56, 0
2, 104512, Note_on_c, 0, 54, 67
2, 104588, Note_on_c, 0, 54, 0
2, 104598, Note_on_c, 0, 53, 70
2, 104663, Control_c, 0, 64, 35
2, 104678, Control_c, 0, 64, 35
2, 104704, Note_on_c, 0, 54, 74
2, 104705, Note_on_c, 0, 53, 0
2, 104709, Control_c, 0, 64, 35
2, 104709, Note_on_c, 0, 51, 58
2, 104739, Control_c, 0, 64, 35
2, 104757, Note_on_c, 0, 54, 0
2, 104835, Note_on_c, 0, 68, 53
2, 104873, Note_on_c, 0, 70, 0
2, 104925, Note_on_c, 0, 66, 60
2, 104939, Note_on_c, 0, 63, 74
2, 104946, Note_on_c, 0, 68, 0
2, 104965, Note_on_c, 0, 63, 0
2, 105024, Note_on_c, 0, 66, 0
2, 105037, Note_on_c, 0, 70, 59
2, 105132, Note_on_c, 0, 70, 0
2, 105147, Note_on_c, 0, 53, 76
2, 105147, Note_on_c, 0, 68, 57
2, 105172, Note_on_c, 0, 51, 0
2, 105185, Note_on_c, 0, 53, 0
2, 105241, Note_on_c, 0, 66, 59
2, 105241, Note_on_c, 0, 68, 0
2, 105324, Note_on_c, 0, 66, 0
2, 105365, Note_on_c, 0, 61, 71
2, 105365, Note_on_c, 0, 65, 60
2, 105371, Note_on_c, 0, 49, 60
2, 105392, Note_on_c, 0, 61, 0
2, 105410, Note_on_c, 0, 49, 0
2, 105430, Note_on_c, 0, 65, 0
2, 105457, Note_on_c, 0, 68, 66
2, 105571, Note_on_c, 0, 66, 65
2, 105585, Note_on_c, 0, 68, 0
2, 105587, Note_on_c, 0, 51, 62
2, 105624, Note_on_c, 0, 51, 0
2, 105661, Note_on_c, 0, 66, 0
2, 105666, Note_on_c, 0, 65, 62
2, 105738, Note_on_c, 0, 65, 0
2, 105775, Note_on_c, 0, 63, 56
2, 105788, Note_on_c, 0, 44, 53
2, 105789, Note_on_c, 0, 60, 53
2, 105821, Control_c, 0, 64, 35
2, 105826, Note_on_c, 0, 44, 0
2, 105833, Note_on_c, 0, 60, 0
2, 105833, Note_on_c, 0, 63, 0
2, 105852, Control_c, 0, 64, 34
2, 105876, Note_on_c, 0, 66, 52
2, 105954, Note_on_c, 0, 66, 0
2, 105991, Note_on_c, 0, 49, 46
2, 105995, Note_on_c, 0, 65, 54
2, 106002, Note_on_c, 0, 61, 46
2, 106046, Note_on_c, 0, 65, 0
2, 106089, Note_on_c, 0, 49, 0
2, 106101, Note_on_c, 0, 51, 59
2, 106193, Note_on_c, 0, 61, 0
2, 106197, Note_on_c, 0, 51, 0
2, 106203, Note_on_c, 0, 68, 61
2, 106224, Note_on_c, 0, 53, 56
2, 106239, Note_on_c, 0, 68, 0
2, 106319, Note_on_c, 0, 53, 0
2, 106333, Note_on_c, 0, 54, 55
2, 106435, Note_on_c, 0, 54, 0
2, 106454, Note_on_c, 0, 53, 56
2, 106460, Note_on_c, 0, 73, 59
2, 106576, Note_on_c, 0, 53, 0
2, 106585, Note_on_c, 0, 51, 52
2, 106682, Note_on_c, 0, 49, 46
2, 106682, Note_on_c, 0, 51, 0
2, 106691, Note_on_c, 0, 80, 63
2, 106718, Note_on_c, 0, 73, 0
2, 106788, Note_on_c, 0, 53, 58
2, 106792, Note_on_c, 0, 49, 0
2, 106793, Note_on_c, 0, 77, 72
2, 106815, Note_on_c, 0, 80, 0
2, 106880, Note_on_c, 0, 53, 0
2, 106896, Note_on_c, 0, 58, 69
2, 106898, Note_on_c, 0, 73, 67
2, 106899, Note_on_c, 0, 77, 0
2, 107002, Note_on_c, 0, 56, 72
2, 107006, Note_on_c, 0, 58, 0
2, 107096, Note_on_c, 0, 73, 0
2, 107108, Note_on_c, 0, 55, 67
2, 107117, Note_on_c, 0, 56, 0
2, 107122, Note_on_c, 0, 76, 70
2, 107216, Note_on_c, 0, 58, 79
2, 107218, Note_on_c, 0, 73, 70
2, 107221, Note_on_c, 0, 55, 0
2, 107237, Note_on_c, 0, 76, 0
2, 107308, Note_on_c, 0, 58, 0
2, 107320, Note_on_c, 0, 61, 78
2, 107331, Note_on_c, 0, 70, 70
2, 107331, Note_on_c, 0, 73, 0
2, 107418, Note_on_c, 0, 59, 78
2, 107428, Note_on_c, 0, 61, 0
2, 107534, Note_on_c, 0, 58, 76
2, 107541, Note_on_c, 0, 59, 0
2, 107547, Note_on_c, 0, 70, 0
2, 107547, Note_on_c, 0, 73, 74
2, 107631, Note_on_c, 0, 61, 74
2, 107645, Note_on_c, 0, 58, 0
2, 107658, Note_on_c, 0, 70, 70
2, 107673, Note_on_c, 0, 73, 0
2, 107674, Note_on_c, 0, 61, 0
2, 107729, Note_on_c, 0, 61, 69
2, 107757, Note_on_c, 0, 70, 0
2, 107764, Note_on_c, 0, 63, 78
2, 107779, Note_on_c, 0, 67, 75
2, 107794, Note_on_c, 0, 61, 0
2, 107808, Note_on_c, 0, 64, 72
2, 107836, Note_on_c, 0, 63, 0
2, 108019, Note_on_c, 0, 63, 68
2, 108026, Note_on_c, 0, 64, 0
2, 108030, Note_on_c, 0, 70, 64
2, 108032, Note_on_c, 0, 67, 0
2, 108112, Note_on_c, 0, 61, 71
2, 108121, Note_on_c, 0, 73, 71
2, 108131, Note_on_c, 0, 63, 0
2, 108132, Note_on_c, 0, 70, 0
2, 108197, Note_on_c, 0, 61, 0
2, 108219, Note_on_c, 0, 59, 69
2, 108225, Note_on_c, 0, 73, 0
2, 108232, Note_on_c, 0, 76, 69
2, 108316, Note_on_c, 0, 59, 0
2, 108320, Note_on_c, 0, 58, 64
2, 108416, Note_on_c, 0, 58, 0
2, 108428, Note_on_c, 0, 56, 60
2, 108443, Note_on_c, 0, 73, 66
2, 108474, Note_on_c, 0, 73, 0
2, 108532, Note_on_c, 0, 56, 0
2, 108541, Note_on_c, 0, 55, 58
2, 108661, Note_on_c, 0, 55, 0
2, 108667, Note_on_c, 0, 71, 55
2, 108667, Note_on_c, 0, 75, 63
2, 108670, Note_on_c, 0, 56, 54
2, 108680, Note_on_c, 0, 76, 0
2, 108714, Note_on_c, 0, 75, 0
2, 108728, Note_on_c, 0, 56, 0
2, 108753, Note_on_c, 0, 59, 58
2, 108862, Note_on_c, 0, 59, 0
2, 108874, Note_on_c, 0, 58, 60
2, 108889, Note_on_c, 0, 80, 77
2, 108947, Note_on_c, 0, 80, 0
2, 108969, Control_c, 0, 64, 35
2, 108974, Note_on_c, 0, 56, 69
2, 108984, Note_on_c, 0, 58, 0
2, 109075, Note_on_c, 0, 56, 0
2, 109082, Note_on_c, 0, 55, 71
2, 109082, Note_on_c, 0, 73, 76
2, 109085, Note_on_c, 0, 70, 72
2, 109097, Note_on_c, 0, 71, 0
2, 109144, Note_on_c, 0, 73, 0
2, 109190, Note_on_c, 0, 55, 0
2, 109191, Note_on_c, 0, 53, 74
2, 109217, Control_c, 0, 64, 35
2, 109291, Note_on_c, 0, 51, 75
2, 109300, Note_on_c, 0, 53, 0
2, 109301, Note_on_c, 0, 79, 77
2, 109359, Note_on_c, 0, 79, 0
2, 109397, Note_on_c, 0, 49, 69
2, 109411, Note_on_c, 0, 51, 0
2, 109438, Control_c, 0, 64, 36
2, 109498, Control_c, 0, 64, 36
2, 109502, Note_on_c, 0, 70, 0
2, 109509, Note_on_c, 0, 47, 73
2, 109510, Note_on_c, 0, 49, 0
2, 109514, Note_on_c, 0, 68, 82
2, 109562, Note_on_c, 0, 68, 0
2, 109613, Note_on_c, 0, 47, 0
2, 109619, Note_on_c, 0, 49, 75
2, 109726, Note_on_c, 0, 51, 72
2, 109737, Note_on_c, 0, 80, 83
2, 109738, Note_on_c, 0, 49, 0
2, 109844, Note_on_c, 0, 47, 66
2, 109845, Note_on_c, 0, 79, 80
2, 109854, Note_on_c, 0, 80, 0
2, 109859, Note_on_c, 0, 51, 0
2, 109958, Note_on_c, 0, 44, 60
2, 109967, Note_on_c, 0, 80, 83
2, 109973, Note_on_c, 0, 47, 0
2, 109983, Note_on_c, 0, 79, 0
2, 109985, Control_c, 0, 64, 37
2, 110053, Note_on_c, 0, 44, 0
2, 110079, Note_on_c, 0, 82, 84
2, 110106, Note_on_c, 0, 80, 0
2, 110191, Note_on_c, 0, 83, 80
2, 110192, Note_on_c, 0, 56, 72
2, 110229, Note_on_c, 0, 82, 0
2, 110284, Note_on_c, 0, 80, 81
2, 110288, Note_on_c, 0, 53, 75
2, 110291, Note_on_c, 0, 56, 0
2, 110305, Note_on_c, 0, 83, 0
2, 110306, Control_c, 0, 64, 36
2, 110382, Note_on_c, 0, 53, 0
2, 110385, Note_on_c, 0, 49, 74
2, 110386, Note_on_c, 0, 77, 81
2, 110391, Note_on_c, 0, 80, 0
2, 110436, Note_on_c, 0, 49, 0
2, 110442, Control_c, 0, 64, 36
2, 110473, Control_c, 0, 64, 35
2, 110489, Note_on_c, 0, 78, 84
2, 110500, Note_on_c, 0, 77, 0
2, 110519, Control_c, 0, 64, 35
2, 110535, Control_c, 0, 64, 34
2, 110590, Note_on_c, 0, 59, 75
2, 110595, Note_on_c, 0, 80, 80
2, 110612, Note_on_c, 0, 78, 0
2, 110681, Note_on_c, 0, 56, 75
2, 110684, Note_on_c, 0, 77, 80
2, 110701, Note_on_c, 0, 59, 0
2, 110714, Note_on_c, 0, 80, 0
2, 110765, Note_on_c, 0, 77, 0
2, 110791, Note_on_c, 0, 73, 77
2, 110794, Note_on_c, 0, 53, 73
2, 110800, Note_on_c, 0, 56, 0
2, 110852, Note_on_c, 0, 53, 0
2, 110877, Note_on_c, 0, 75, 79
2, 110884, Note_on_c, 0, 73, 0
2, 110993, Note_on_c, 0, 77, 78
2, 111002, Note_on_c, 0, 49, 61
2, 111016, Note_on_c, 0, 75, 0
2, 111085, Note_on_c, 0, 46, 65
2, 111089, Note_on_c, 0, 73, 75
2, 111091, Note_on_c, 0, 49, 0
2, 111094, Note_on_c, 0, 77, 0
2, 111179, Note_on_c, 0, 73, 0
2, 111192, Note_on_c, 0, 42, 67
2, 111192, Note_on_c, 0, 46, 0
2, 111196, Note_on_c, 0, 70, 72
2, 111259, Note_on_c, 0, 42, 0
2, 111274, Note_on_c, 0, 70, 0
2, 111292, Note_on_c, 0, 72, 73
2, 111402, Note_on_c, 0, 72, 0
2, 111403, Note_on_c, 0, 58, 60
2, 111409, Note_on_c, 0, 73, 66
2, 111461, Note_on_c, 0, 73, 0
2, 111495, Note_on_c, 0, 54, 57
2, 111499, Note_on_c, 0, 58, 0
2, 111504, Note_on_c, 0, 70, 64
2, 111577, Control_c, 0, 64, 35
2, 111605, Note_on_c, 0, 51, 51
2, 111608, Note_on_c, 0, 54, 0
2, 111610, Note_on_c, 0, 70, 0
2, 111625, Note_on_c, 0, 78, 65
2, 111638, Control_c, 0, 64, 35
2, 111708, Note_on_c, 0, 51, 0
2, 111730, Note_on_c, 0, 80, 72
2, 111756, Note_on_c, 0, 78, 0
2, 111768, Control_c, 0, 64, 36
2, 111828, Control_c, 0, 64, 36
2, 111831, Note_on_c, 0, 82, 74
2, 111840, Note_on_c, 0, 80, 0
2, 111842, Note_on_c, 0, 54, 58
2, 111873, Control_c, 0, 64, 37
2, 111904, Control_c, 0, 64, 37
2, 111920, Note_on_c, 0, 78, 76
2, 111929, Note_on_c, 0, 51, 66
2, 111936, Note_on_c, 0, 54, 0
2, 111944, Note_on_c, 0, 82, 0
2, 112009, Note_on_c, 0, 78, 0
2, 112025, Control_c, 0, 64, 38
2, 112030, Note_on_c, 0, 75, 72
2, 112032, Note_on_c, 0, 48, 66
2, 112032, Note_on_c, 0, 51, 0
2, 112079, Note_on_c, 0, 48, 0
2, 112125, Note_on_c, 0, 77, 76
2, 112134, Note_on_c, 0, 75, 0
2, 112234, Note_on_c, 0, 77, 0
2, 112234, Note_on_c, 0, 78, 75
2, 112241, Note_on_c, 0, 58, 62
2, 112253, Control_c, 0, 64, 37
2, 112329, Note_on_c, 0, 75, 73
2, 112337, Note_on_c, 0, 78, 0
2, 112338, Note_on_c, 0, 54, 68
2, 112350, Note_on_c, 0, 58, 0
2, 112431, Note_on_c, 0, 72, 74
2, 112443, Note_on_c, 0, 51, 73
2, 112450, Note_on_c, 0, 75, 0
2, 112455, Note_on_c, 0, 54, 0
2, 112506, Note_on_c, 0, 51, 0
2, 112536, Control_c, 0, 64, 37
2, 112536, Note_on_c, 0, 73, 74
2, 112543, Note_on_c, 0, 72, 0
2, 112596, Control_c, 0, 64, 36
2, 112629, Note_on_c, 0, 73, 0
2, 112643, Note_on_c, 0, 75, 70
2, 112653, Note_on_c, 0, 48, 46
2, 112686, Control_c, 0, 64, 36
2, 112702, Control_c, 0, 64, 35
2, 112722, Note_on_c, 0, 48, 0
2, 112743, Note_on_c, 0, 72, 66
2, 112744, Note_on_c, 0, 44, 51
2, 112746, Note_on_c, 0, 75, 0
2, 112779, Control_c, 0, 64, 35
2, 112809, Control_c, 0, 64, 34
2, 112822, Note_on_c, 0, 72, 0
2, 112834, Note_on_c, 0, 44, 0
2, 112836, Note_on_c, 0, 41, 51
2, 112862, Note_on_c, 0, 68, 59
2, 112884, Control_c, 0, 64, 34
2, 112915, Control_c, 0, 64, 33
2, 112921, Note_on_c, 0, 41, 0
2, 112944, Note_on_c, 0, 68, 0
2, 112956, Note_on_c, 0, 70, 59
2, 112976, Control_c, 0, 64, 33
2, 113060, Note_on_c, 0, 70, 0
2, 113063, Note_on_c, 0, 72, 61
2, 113065, Note_on_c, 0, 56, 47
2, 113112, Note_on_c, 0, 72, 0
2, 113157, Note_on_c, 0, 56, 0
2, 113162, Note_on_c, 0, 53, 56
2, 113171, Note_on_c, 0, 68, 58
2, 113267, Note_on_c, 0, 68, 0
2, 113269, Note_on_c, 0, 50, 50
2, 113274, Note_on_c, 0, 53, 0
2, 113279, Note_on_c, 0, 77, 71
2, 113343, Note_on_c, 0, 50, 0
2, 113380, Note_on_c, 0, 78, 69
2, 113393, Note_on_c, 0, 77, 0
2, 113478, Note_on_c, 0, 80, 74
2, 113485, Note_on_c, 0, 78, 0
2, 113486, Note_on_c, 0, 53, 62
2, 113546, Control_c, 0, 64, 33
2, 113571, Note_on_c, 0, 53, 0
2, 113571, Note_on_c, 0, 77, 74
2, 113574, Note_on_c, 0, 50, 56
2, 113580, Note_on_c, 0, 80, 0
2, 113637, Control_c, 0, 64, 34
2, 113672, Note_on_c, 0, 77, 0
2, 113674, Note_on_c, 0, 50, 0
2, 113678, Note_on_c, 0, 74, 67
2, 113685, Note_on_c, 0, 46, 52
2, 113736, Note_on_c, 0, 46, 0
2, 113772, Note_on_c, 0, 75, 72
2, 113775, Control_c, 0, 64, 34
2, 113775, Note_on_c, 0, 74, 0
2, 113875, Note_on_c, 0, 75, 0
2, 113879, Note_on_c, 0, 77, 68
2, 113893, Note_on_c, 0, 56, 63
2, 113928, Control_c, 0, 64, 35
2, 113971, Note_on_c, 0, 77, 0
2, 113986, Note_on_c, 0, 74, 64
2, 113995, Note_on_c, 0, 56, 0
2, 114002, Note_on_c, 0, 53, 53
2, 114011, Control_c, 0, 64, 35
2, 114031, Note_on_c, 0, 74, 0
2, 114089, Note_on_c, 0, 70, 56
2, 114104, Note_on_c, 0, 53, 0
2, 114114, Note_on_c, 0, 50, 50
2, 114160, Note_on_c, 0, 50, 0
2, 114163, Note_on_c, 0, 70, 0
2, 114182, Note_on_c, 0, 72, 60
2, 114285, Note_on_c, 0, 72, 0
2, 114296, Note_on_c, 0, 74, 58
2, 114313, Note_on_c, 0, 46, 53
2, 114385, Note_on_c, 0, 74, 0
2, 114394, Note_on_c, 0, 46, 0
2, 114396, Note_on_c, 0, 70, 55
2, 114404, Note_on_c, 0, 42, 53
2, 114421, Control_c, 0, 64, 35
2, 114472, Note_on_c, 0, 70, 0
2, 114491, Note_on_c, 0, 42, 0
2, 114503, Note_on_c, 0, 66, 59
2, 114506, Note_on_c, 0, 39, 54
2, 114528, Control_c, 0, 64, 34
2, 114557, Note_on_c, 0, 39, 0
2, 114587, Note_on_c, 0, 66, 0
2, 114599, Note_on_c, 0, 68, 59
2, 114707, Note_on_c, 0, 68, 0
2, 114709, Control_c, 0, 64, 34
2, 114712, Note_on_c, 0, 70, 56
2, 114714, Note_on_c, 0, 54, 49
2, 114770, Note_on_c, 0, 70, 0
2, 114809, Control_c, 0, 64, 33
2, 114810, Note_on_c, 0, 54, 0
2, 114814, Note_on_c, 0, 51, 51
2, 114824, Note_on_c, 0, 66, 50
2, 114918, Note_on_c, 0, 51, 0
2, 114924, Note_on_c, 0, 48, 46
2, 114929, Note_on_c, 0, 66, 0
2, 114940, Note_on_c, 0, 75, 58
2, 115000, Note_on_c, 0, 48, 0
2, 115044, Note_on_c, 0, 77, 63
2, 115058, Note_on_c, 0, 75, 0
2, 115134, Note_on_c, 0, 77, 0
2, 115151, Note_on_c, 0, 78, 63
2, 115155, Note_on_c, 0, 51, 53
2, 115237, Note_on_c, 0, 78, 0
2, 115239, Note_on_c, 0, 51, 0
2, 115243, Note_on_c, 0, 75, 62
2, 115252, Note_on_c, 0, 48, 44
2, 115332, Note_on_c, 0, 48, 0
2, 115346, Note_on_c, 0, 75, 0
2, 115354, Note_on_c, 0, 72, 58
2, 115356, Note_on_c, 0, 44, 49
2, 115410, Note_on_c, 0, 44, 0
2, 115458, Note_on_c, 0, 72, 0
2, 115460, Note_on_c, 0, 73, 59
2, 115551, Note_on_c, 0, 73, 0
2, 115577, Note_on_c, 0, 75, 54
2, 115583, Note_on_c, 0, 54, 51
2, 115642, Note_on_c, 0, 54, 0
2, 115663, Note_on_c, 0, 75, 0
2, 115670, Note_on_c, 0, 51, 51
2, 115671, Note_on_c, 0, 72, 57
2, 115722, Note_on_c, 0, 72, 0
2, 115769, Note_on_c, 0, 51, 0
2, 115777, Note_on_c, 0, 48, 42
2, 115787, Note_on_c, 0, 68, 49
2, 115820, Note_on_c, 0, 48, 0
2, 115841, Note_on_c, 0, 68, 0
2, 115895, Note_on_c, 0, 70, 45
2, 115995, Note_on_c, 0, 70, 0
2, 116000, Note_on_c, 0, 44, 40
2, 116012, Note_on_c, 0, 72, 47
2, 116091, Note_on_c, 0, 72, 0
2, 116093, Control_c, 0, 67, 8
2, 116105, Note_on_c, 0, 41, 44
2, 116108, Control_c, 0, 67, 8
2, 116113, Note_on_c, 0, 68, 49
2, 116117, Note_on_c, 0, 44, 0
2, 116139, Control_c, 0, 67, 9
2, 116169, Control_c, 0, 67, 9
2, 116199, Control_c, 0, 67, 10
2, 116202, Note_on_c, 0, 68, 0
2, 116233, Note_on_c, 0, 41, 0
2, 116240, Note_on_c, 0, 65, 44
2, 116249, Note_on_c, 0, 37, 40
2, 116313, Control_c, 0, 67, 9
2, 116329, Control_c, 0, 67, 9
2, 116340, Note_on_c, 0, 65, 0
2, 116343, Control_c, 0, 67, 8
2, 116358, Control_c, 0, 67, 8
2, 116364, Note_on_c, 0, 66, 45
2, 116374, Control_c, 0, 67, 0
2, 116469, Note_on_c, 0, 66, 0
2, 116472, Note_on_c, 0, 68, 54
2, 116505, Note_on_c, 0, 37, 0
2, 116536, Note_on_c, 0, 68, 0
2, 116562, Note_on_c, 0, 65, 58
2, 116645, Note_on_c, 0, 65, 0
2, 116665, Note_on_c, 0, 61, 54
2, 116756, Note_on_c, 0, 61, 0
2, 116775, Note_on_c, 0, 65, 57
2, 116857, Note_on_c, 0, 65, 0
2, 116863, Note_on_c, 0, 68, 67
2, 116955, Note_on_c, 0, 70, 66
2, 116971, Note_on_c, 0, 68, 0
2, 117059, Note_on_c, 0, 70, 0
2, 117069, Note_on_c, 0, 71, 71
2, 117156, Note_on_c, 0, 71, 0
2, 117166, Note_on_c, 0, 70, 73
2, 117249, Note_on_c, 0, 70, 0
2, 117272, Note_on_c, 0, 68, 78
2, 117281, Note_on_c, 0, 59, 65
2, 117368, Note_on_c, 0, 70, 78
2, 117370, Note_on_c, 0, 59, 0
2, 117375, Note_on_c, 0, 68, 0
2, 117376, Note_on_c, 0, 49, 65
2, 117418, Control_c, 0, 64, 34
2, 117461, Note_on_c, 0, 49, 0
2, 117469, Note_on_c, 0, 78, 86
2, 117471, Note_on_c, 0, 70, 0
2, 117474, Note_on_c, 0, 58, 72
2, 117492, Note_on_c, 0, 78, 0
2, 117525, Control_c, 0, 64, 34
2, 117547, Note_on_c, 0, 58, 0
2, 117575, Note_on_c, 0, 49, 56
2, 117682, Note_on_c, 0, 49, 0
2, 117682, Note_on_c, 0, 73, 79
2, 117684, Note_on_c, 0, 56, 69
2, 117709, Note_on_c, 0, 73, 0
2, 117737, Control_c, 0, 64, 34
2, 117758, Note_on_c, 0, 56, 0
2, 117785, Note_on_c, 0, 49, 54
2, 117906, Note_on_c, 0, 49, 0
2, 117909, Note_on_c, 0, 54, 60
2, 117912, Note_on_c, 0, 70, 79
2, 118037, Note_on_c, 0, 49, 53
2, 118043, Note_on_c, 0, 54, 0
2, 118161, Note_on_c, 0, 53, 62
2, 118164, Note_on_c, 0, 68, 70
2, 118186, Control_c, 0, 64, 33
2, 118192, Note_on_c, 0, 49, 0
2, 118205, Note_on_c, 0, 70, 0
2, 118249, Note_on_c, 0, 66, 73
2, 118252, Note_on_c, 0, 51, 72
2, 118258, Note_on_c, 0, 53, 0
2, 118258, Note_on_c, 0, 68, 0
2, 118293, Control_c, 0, 64, 33
2, 118319, Note_on_c, 0, 51, 0
2, 118353, Note_on_c, 0, 53, 67
2, 118357, Note_on_c, 0, 66, 0
2, 118364, Note_on_c, 0, 68, 67
2, 118369, Control_c, 0, 64, 32
2, 118386, Note_on_c, 0, 53, 0
2, 118413, Note_on_c, 0, 68, 0
2, 118454, Note_on_c, 0, 61, 63
2, 118541, Note_on_c, 0, 61, 0
2, 118551, Note_on_c, 0, 44, 62
2, 118556, Note_on_c, 0, 65, 56
2, 118593, Note_on_c, 0, 44, 0
2, 118629, Note_on_c, 0, 65, 0
2, 118634, Control_c, 0, 64, 32
2, 118651, Note_on_c, 0, 68, 63
2, 118756, Note_on_c, 0, 68, 0
2, 118764, Note_on_c, 0, 70, 61
2, 118847, Note_on_c, 0, 70, 0
2, 118862, Note_on_c, 0, 68, 69
2, 118930, Note_on_c, 0, 68, 0
2, 118973, Note_on_c, 0, 66, 66
2, 118978, Note_on_c, 0, 58, 73
2, 119041, Note_on_c, 0, 58, 0
2, 119049, Note_on_c, 0, 66, 0
2, 119056, Note_on_c, 0, 49, 60
2, 119066, Note_on_c, 0, 68, 74
2, 119106, Control_c, 0, 64, 32
2, 119151, Control_c, 0, 64, 33
2, 119167, Note_on_c, 0, 56, 71
2, 119170, Note_on_c, 0, 77, 74
2, 119174, Note_on_c, 0, 49, 0
2, 119176, Note_on_c, 0, 68, 0
2, 119201, Note_on_c, 0, 77, 0
2, 119277, Note_on_c, 0, 56, 0
2, 119278, Note_on_c, 0, 49, 50
2, 119386, Note_on_c, 0, 49, 0
2, 119390, Note_on_c, 0, 54, 63
2, 119393, Note_on_c, 0, 73, 69
2, 119418, Control_c, 0, 64, 33
2, 119423, Note_on_c, 0, 73, 0
2, 119506, Note_on_c, 0, 49, 46
2, 119508, Note_on_c, 0, 54, 0
2, 119592, Note_on_c, 0, 49, 0
2, 119612, Note_on_c, 0, 68, 65
2, 119613, Note_on_c, 0, 53, 52
2, 119677, Control_c, 0, 64, 33
2, 119707, Note_on_c, 0, 53, 0
2, 119725, Note_on_c, 0, 49, 49
2, 119822, Note_on_c, 0, 49, 0
2, 119834, Note_on_c, 0, 66, 58
2, 119837, Note_on_c, 0, 51, 58
2, 119902, Note_on_c, 0, 68, 0
2, 119910, Note_on_c, 0, 51, 0
2, 119923, Note_on_c, 0, 65, 64
2, 119923, Note_on_c, 0, 66, 0
2, 119933, Note_on_c, 0, 49, 49
2, 120006, Note_on_c, 0, 49, 0
2, 120028, Note_on_c, 0, 65, 0
2, 120042, Note_on_c, 0, 66, 60
2, 120046, Note_on_c, 0, 51, 54
2, 120077, Note_on_c, 0, 51, 0
2, 120086, Note_on_c, 0, 66, 0
2, 120152, Note_on_c, 0, 60, 52
2, 120231, Control_c, 0, 64, 32
2, 120245, Note_on_c, 0, 60, 0
2, 120262, Note_on_c, 0, 63, 52
2, 120277, Note_on_c, 0, 44, 45
2, 120293, Control_c, 0, 67, 8
2, 120308, Control_c, 0, 67, 9
2, 120308, Note_on_c, 0, 44, 0
2, 120324, Control_c, 0, 67, 10
2, 120341, Note_on_c, 0, 63, 0
2, 120353, Control_c, 0, 67, 11
2, 120368, Note_on_c, 0, 66, 48
2, 120369, Control_c, 0, 67, 11
2, 120384, Control_c, 0, 67, 12
2, 120414, Control_c, 0, 67, 13
2, 120445, Control_c, 0, 67, 14
2, 120459, Control_c, 0, 67, 14
2, 120465, Note_on_c, 0, 66, 0
2, 120472, Note_on_c, 0, 68, 53
2, 120476, Control_c, 0, 67, 18
2, 120491, Control_c, 0, 67, 37
2, 120506, Control_c, 0, 67, 51
2, 120522, Control_c, 0, 67, 57
2, 120537, Control_c, 0, 67, 58
2, 120571, Note_on_c, 0, 68, 0
2, 120582, Note_on_c, 0, 66, 48
2, 120639, Note_on_c, 0, 66, 0
2, 120658, Control_c, 0, 67, 57
2, 120685, Note_on_c, 0, 65, 57
2, 120689, Control_c, 0, 67, 56
2, 120690, Note_on_c, 0, 56, 47
2, 120704, Control_c, 0, 67, 56
2, 120761, Note_on_c, 0, 56, 0
2, 120764, Note_on_c, 0, 65, 0
2, 120773, Note_on_c, 0, 44, 49
2, 120779, Note_on_c, 0, 66, 57
2, 120866, Note_on_c, 0, 44, 0
2, 120890, Note_on_c, 0, 66, 0
2, 120892, Note_on_c, 0, 75, 68
2, 120907, Note_on_c, 0, 54, 49
2, 120928, Note_on_c, 0, 75, 0
2, 120939, Control_c, 0, 67, 55
2, 120969, Control_c, 0, 67, 55
2, 120984, Control_c, 0, 67, 54
2, 120985, Note_on_c, 0, 54, 0
2, 120991, Note_on_c, 0, 44, 50
2, 121029, Control_c, 0, 67, 53
2, 121045, Control_c, 0, 67, 53
2, 121060, Control_c, 0, 67, 52
2, 121091, Control_c, 0, 67, 51
2, 121107, Note_on_c, 0, 44, 0
2, 121110, Note_on_c, 0, 53, 54
2, 121122, Note_on_c, 0, 72, 64
2, 121151, Control_c, 0, 67, 51
2, 121151, Note_on_c, 0, 72, 0
2, 121205, Note_on_c, 0, 53, 0
2, 121212, Control_c, 0, 67, 50
2, 121228, Note_on_c, 0, 44, 50
2, 121243, Control_c, 0, 67, 50
2, 121272, Control_c, 0, 67, 49
2, 121304, Control_c, 0, 67, 48
2, 121319, Control_c, 0, 67, 48
2, 121356, Note_on_c, 0, 51, 57
2, 121357, Note_on_c, 0, 44, 0
2, 121363, Note_on_c, 0, 66, 56
2, 121365, Control_c, 0, 67, 46
2, 121380, Control_c, 0, 67, 45
2, 121395, Control_c, 0, 67, 45
2, 121410, Control_c, 0, 67, 44
2, 121425, Control_c, 0, 67, 42
2, 121441, Control_c, 0, 67, 40
2, 121456, Control_c, 0, 67, 38
2, 121460, Note_on_c, 0, 51, 0
2, 121470, Control_c, 0, 67, 35
2, 121486, Control_c, 0, 67, 32
2, 121495, Note_on_c, 0, 44, 44
2, 121501, Control_c, 0, 67, 30
2, 121516, Control_c, 0, 67, 29
2, 121531, Control_c, 0, 67, 27
2, 121546, Control_c, 0, 67, 24
2, 121562, Control_c, 0, 67, 20
2, 121577, Control_c, 0, 67, 16
2, 121592, Control_c, 0, 67, 11
2, 121598, Note_on_c, 0, 66, 0
2, 121607, Control_c, 0, 67, 0
2, 121612, Note_on_c, 0, 65, 55
2, 121614, Note_on_c, 0, 49, 47
2, 121615, Note_on_c, 0, 44, 0
2, 121706, Note_on_c, 0, 65, 0
2, 121711, Note_on_c, 0, 49, 0
2, 121725, Note_on_c, 0, 63, 55
2, 121737, Note_on_c, 0, 48, 43
2, 121815, Note_on_c, 0, 63, 0
2, 121838, Note_on_c, 0, 48, 0
2, 121846, Note_on_c, 0, 65, 58
2, 121847, Note_on_c, 0, 49, 45
2, 121947, Note_on_c, 0, 65, 0
2, 121958, Note_on_c, 0, 68, 63
2, 121970, Note_on_c, 0, 49, 0
2, 121976, Note_on_c, 0, 44, 44
2, 122060, Note_on_c, 0, 70, 66
2, 122073, Note_on_c, 0, 53, 50
2, 122075, Note_on_c, 0, 68, 0
2, 122078, Note_on_c, 0, 44, 0
2, 122128, Note_on_c, 0, 70, 0
2, 122157, Note_on_c, 0, 72, 74
2, 122164, Control_c, 0, 64, 32
2, 122164, Note_on_c, 0, 53, 0
2, 122170, Note_on_c, 0, 51, 62
2, 122179, Control_c, 0, 64, 30
2, 122193, Control_c, 0, 64, 28
2, 122209, Control_c, 0, 64, 21
2, 122224, Control_c, 0, 64, 0
2, 122255, Note_on_c, 0, 73, 76
2, 122257, Note_on_c, 0, 72, 0
2, 122277, Note_on_c, 0, 53, 60
2, 122283, Note_on_c, 0, 51, 0
2, 122348, Note_on_c, 0, 75, 80
2, 122353, Note_on_c, 0, 53, 0
2, 122368, Note_on_c, 0, 73, 0
2, 122369, Note_on_c, 0, 44, 58
2, 122457, Note_on_c, 0, 77, 82
2, 122468, Note_on_c, 0, 75, 0
2, 122475, Note_on_c, 0, 56, 67
2, 122504, Note_on_c, 0, 44, 0
2, 122552, Note_on_c, 0, 56, 0
2, 122553, Note_on_c, 0, 75, 79
2, 122559, Note_on_c, 0, 54, 69
2, 122563, Note_on_c, 0, 77, 0
2, 122644, Note_on_c, 0, 75, 0
2, 122653, Note_on_c, 0, 78, 80
2, 122657, Note_on_c, 0, 54, 0
2, 122657, Note_on_c, 0, 56, 75
2, 122744, Note_on_c, 0, 56, 0
2, 122748, Note_on_c, 0, 78, 0
2, 122751, Note_on_c, 0, 77, 82
2, 122770, Note_on_c, 0, 44, 66
2, 122834, Note_on_c, 0, 44, 0
2, 122855, Note_on_c, 0, 75, 84
2, 122856, Note_on_c, 0, 77, 0
2, 122866, Note_on_c, 0, 58, 75
2, 122882, Control_c, 0, 64, 13
2, 122898, Control_c, 0, 64, 30
2, 122913, Control_c, 0, 64, 38
2, 122929, Control_c, 0, 64, 41
2, 122930, Note_on_c, 0, 75, 0
2, 122935, Note_on_c, 0, 58, 0
2, 122944, Control_c, 0, 64, 42
2, 122965, Note_on_c, 0, 73, 81
2, 122966, Note_on_c, 0, 44, 69
2, 122990, Control_c, 0, 64, 44
2, 123005, Control_c, 0, 64, 49
2, 123012, Note_on_c, 0, 44, 0
2, 123020, Control_c, 0, 64, 53
2, 123035, Control_c, 0, 64, 56
2, 123051, Control_c, 0, 64, 58
2, 123066, Control_c, 0, 64, 59
2, 123080, Note_on_c, 0, 60, 73
2, 123083, Note_on_c, 0, 73, 0
2, 123095, Note_on_c, 0, 82, 78
2, 123096, Control_c, 0, 64, 58
2, 123111, Control_c, 0, 64, 55
2, 123126, Control_c, 0, 64, 51
2, 123142, Control_c, 0, 64, 46
2, 123157, Control_c, 0, 64, 42
2, 123172, Control_c, 0, 64, 40
2, 123195, Control_c, 0, 64, 42
2, 123203, Note_on_c, 0, 80, 79
2, 123203, Note_on_c, 0, 82, 0
2, 123210, Control_c, 0, 64, 48
2, 123225, Control_c, 0, 64, 53
2, 123240, Control_c, 0, 64, 56
2, 123253, Control_c, 0, 64, 58
2, 123258, Note_on_c, 0, 80, 0
2, 123259, Note_on_c, 0, 61, 68
2, 123260, Note_on_c, 0, 60, 0
2, 123269, Control_c, 0, 64, 58
2, 123269, Note_on_c, 0, 79, 79
2, 123315, Control_c, 0, 64, 57
2, 123330, Control_c, 0, 64, 56
2, 123333, Note_on_c, 0, 79, 0
2, 123335, Note_on_c, 0, 80, 80
2, 123346, Control_c, 0, 64, 54
2, 123361, Control_c, 0, 64, 52
2, 123376, Control_c, 0, 64, 51
2, 123391, Control_c, 0, 64, 50
2, 123391, Note_on_c, 0, 80, 0
2, 123398, Note_on_c, 0, 63, 72
2, 123405, Note_on_c, 0, 82, 76
2, 123406, Control_c, 0, 64, 48
2, 123408, Note_on_c, 0, 61, 0
2, 123421, Control_c, 0, 64, 46
2, 123436, Control_c, 0, 64, 45
2, 123460, Note_on_c, 0, 80, 77
2, 123462, Note_on_c, 0, 82, 0
2, 123511, Note_on_c, 0, 80, 0
2, 123519, Note_on_c, 0, 82, 69
2, 123520, Note_on_c, 0, 63, 0
2, 123525, Note_on_c, 0, 60, 72
2, 123527, Control_c, 0, 64, 46
2, 123558, Control_c, 0, 64, 46
2, 123563, Note_on_c, 0, 82, 0
2, 123575, Note_on_c, 0, 80, 66
2, 123588, Control_c, 0, 64, 47
2, 123610, Note_on_c, 0, 80, 0
2, 123623, Note_on_c, 0, 82, 68
2, 123640, Note_on_c, 0, 56, 71
2, 123640, Note_on_c, 0, 60, 0
2, 123664, Note_on_c, 0, 82, 0
2, 123678, Note_on_c, 0, 80, 68
2, 123712, Note_on_c, 0, 80, 0
2, 123722, Note_on_c, 0, 82, 64
2, 123740, Control_c, 0, 64, 47
2, 123755, Note_on_c, 0, 60, 74
2, 123758, Note_on_c, 0, 82, 0
2, 123772, Note_on_c, 0, 80, 69
2, 123777, Note_on_c, 0, 56, 0
2, 123807, Note_on_c, 0, 80, 0
2, 123818, Note_on_c, 0, 82, 73
2, 123856, Note_on_c, 0, 63, 69
2, 123860, Note_on_c, 0, 82, 0
2, 123874, Note_on_c, 0, 80, 70
2, 123892, Control_c, 0, 64, 48
2, 123907, Note_on_c, 0, 80, 0
2, 123908, Control_c, 0, 64, 48
2, 123914, Note_on_c, 0, 60, 0
2, 123917, Note_on_c, 0, 82, 67
2, 123923, Control_c, 0, 64, 50
2, 123939, Control_c, 0, 64, 54
2, 123961, Control_c, 0, 64, 58
2, 123962, Note_on_c, 0, 82, 0
2, 123966, Note_on_c, 0, 65, 75
2, 123972, Note_on_c, 0, 63, 0
2, 123977, Control_c, 0, 64, 61
2, 123979, Note_on_c, 0, 80, 64
2, 123992, Control_c, 0, 64, 63
2, 124007, Control_c, 0, 64, 65
2, 124011, Note_on_c, 0, 80, 0
2, 124022, Control_c, 0, 64, 67
2, 124023, Note_on_c, 0, 82, 70
2, 124037, Control_c, 0, 64, 69
2, 124052, Control_c, 0, 64, 70
2, 124063, Note_on_c, 0, 82, 0
2, 124073, Note_on_c, 0, 66, 81
2, 124073, Note_on_c, 0, 80, 67
2, 124082, Control_c, 0, 64, 69
2, 124085, Note_on_c, 0, 65, 0
2, 124098, Control_c, 0, 64, 67
2, 124101, Note_on_c, 0, 80, 0
2, 124113, Control_c, 0, 64, 66
2, 124128, Control_c, 0, 64, 63
2, 124144, Control_c, 0, 64, 61
2, 124159, Control_c, 0, 64, 57
2, 124173, Control_c, 0, 64, 51
2, 124180, Note_on_c, 0, 66, 0
2, 124186, Note_on_c, 0, 80, 75
2, 124189, Control_c, 0, 64, 42
2, 124193, Note_on_c, 0, 65, 82
2, 124204, Control_c, 0, 64, 31
2, 124220, Control_c, 0, 64, 22
2, 124235, Control_c, 0, 64, 17
2, 124250, Control_c, 0, 64, 15
2, 124293, Note_on_c, 0, 65, 0
2, 124296, Note_on_c, 0, 63, 78
2, 124296, Note_on_c, 0, 78, 80
2, 124308, Note_on_c, 0, 80, 0
2, 124371, Control_c, 0, 64, 16
2, 124375, Note_on_c, 0, 63, 0
2, 124387, Control_c, 0, 64, 17
2, 124388, Note_on_c, 0, 65, 84
2, 124394, Note_on_c, 0, 80, 84
2, 124401, Control_c, 0, 64, 19
2, 124417, Control_c, 0, 64, 20
2, 124421, Note_on_c, 0, 78, 0
2, 124432, Control_c, 0, 64, 21
2, 124447, Control_c, 0, 64, 21
2, 124470, Note_on_c, 0, 65, 0
2, 124477, Control_c, 0, 64, 22
2, 124508, Control_c, 0, 64, 23
2, 124509, Note_on_c, 0, 77, 73
2, 124513, Note_on_c, 0, 73, 83
2, 124513, Note_on_c, 0, 80, 0
2, 124544, Note_on_c, 0, 73, 0
2, 124569, Note_on_c, 0, 77, 0
2, 124585, Control_c, 0, 64, 23
2, 124615, Note_on_c, 0, 80, 67
2, 124730, Note_on_c, 0, 80, 0
2, 124733, Note_on_c, 0, 75, 71
2, 124737, Note_on_c, 0, 68, 83
2, 124770, Note_on_c, 0, 68, 0
2, 124831, Note_on_c, 0, 75, 0
2, 124843, Note_on_c, 0, 80, 70
2, 124926, Control_c, 0, 64, 24
2, 124942, Control_c, 0, 64, 32
2, 124957, Control_c, 0, 64, 47
2, 124957, Note_on_c, 0, 73, 66
2, 124961, Note_on_c, 0, 65, 81
2, 124961, Note_on_c, 0, 80, 0
2, 124972, Control_c, 0, 64, 58
2, 124987, Control_c, 0, 64, 63
2, 125002, Control_c, 0, 64, 70
2, 125017, Note_on_c, 0, 65, 0
2, 125018, Control_c, 0, 64, 81
2, 125033, Control_c, 0, 64, 100
2, 125048, Control_c, 0, 64, 127
2, 125085, Note_on_c, 0, 80, 63
2, 125095, Control_c, 0, 64, 119
2, 125100, Note_on_c, 0, 73, 0
2, 125109, Control_c, 0, 64, 110
2, 125124, Control_c, 0, 64, 109
2, 125155, Control_c, 0, 64, 107
2, 125170, Control_c, 0, 64, 103
2, 125176, Note_on_c, 0, 80, 0
2, 125185, Control_c, 0, 64, 95
2, 125200, Control_c, 0, 64, 85
2, 125207, Note_on_c, 0, 63, 69
2, 125207, Note_on_c, 0, 72, 68
2, 125216, Control_c, 0, 64, 77
2, 125231, Control_c, 0, 64, 70
2, 125245, Control_c, 0, 64, 64
2, 125261, Control_c, 0, 64, 59
2, 125276, Control_c, 0, 64, 51
2, 125291, Control_c, 0, 64, 43
2, 125299, Note_on_c, 0, 72, 0
2, 125305, Note_on_c, 0, 63, 0
2, 125307, Control_c, 0, 64, 40
2, 125307, Note_on_c, 0, 61, 68
2, 125308, Note_on_c, 0, 70, 67
2, 125322, Control_c, 0, 64, 37
2, 125338, Control_c, 0, 64, 35
2, 125353, Control_c, 0, 64, 34
2, 125368, Control_c, 0, 64, 33
2, 125385, Control_c, 0, 64, 32
2, 125395, Note_on_c, 0, 70, 0
2, 125424, Note_on_c, 0, 63, 66
2, 125424, Note_on_c, 0, 72, 69
2, 125425, Note_on_c, 0, 61, 0
2, 125523, Note_on_c, 0, 56, 67
2, 125528, Control_c, 0, 64, 33
2, 125528, Note_on_c, 0, 72, 0
2, 125532, Note_on_c, 0, 63, 0
2, 125538, Note_on_c, 0, 75, 73
2, 125575, Control_c, 0, 64, 33
2, 125627, Note_on_c, 0, 60, 70
2, 125630, Note_on_c, 0, 56, 0
2, 125638, Note_on_c, 0, 77, 76
2, 125653, Note_on_c, 0, 75, 0
2, 125730, Note_on_c, 0, 63, 73
2, 125730, Note_on_c, 0, 78, 78
2, 125733, Note_on_c, 0, 77, 0
2, 125736, Note_on_c, 0, 60, 0
2, 125770, Control_c, 0, 64, 34
2, 125822, Note_on_c, 0, 78, 0
2, 125830, Note_on_c, 0, 63, 0
2, 125840, Note_on_c, 0, 80, 68
2, 125842, Note_on_c, 0, 65, 70
2, 125862, Control_c, 0, 64, 34
2, 125938, Note_on_c, 0, 78, 71
2, 125944, Note_on_c, 0, 63, 72
2, 125947, Note_on_c, 0, 65, 0
2, 125953, Control_c, 0, 64, 35
2, 125968, Note_on_c, 0, 80, 0
2, 126030, Note_on_c, 0, 78, 0
2, 126036, Note_on_c, 0, 77, 68
2, 126044, Note_on_c, 0, 63, 0
2, 126057, Note_on_c, 0, 61, 68
2, 126109, Note_on_c, 0, 77, 0
2, 126136, Note_on_c, 0, 80, 59
2, 126146, Note_on_c, 0, 61, 0
2, 126155, Note_on_c, 0, 63, 65
2, 126227, Note_on_c, 0, 80, 0
2, 126232, Note_on_c, 0, 63, 0
2, 126256, Note_on_c, 0, 72, 71
2, 126265, Note_on_c, 0, 75, 51
2, 126295, Note_on_c, 0, 72, 0
2, 126301, Note_on_c, 0, 75, 0
2, 126363, Note_on_c, 0, 80, 57
2, 126474, Note_on_c, 0, 80, 0
2, 126486, Note_on_c, 0, 68, 75
2, 126495, Note_on_c, 0, 73, 55
2, 126514, Note_on_c, 0, 68, 0
2, 126578, Note_on_c, 0, 73, 0
2, 126598, Note_on_c, 0, 80, 59
2, 126704, Note_on_c, 0, 80, 0
2, 126713, Note_on_c, 0, 63, 66
2, 126716, Note_on_c, 0, 72, 56
2, 126720, Control_c, 0, 64, 41
2, 126736, Control_c, 0, 64, 53
2, 126751, Control_c, 0, 64, 60
2, 126763, Note_on_c, 0, 63, 0
2, 126766, Control_c, 0, 64, 64
2, 126782, Control_c, 0, 64, 68
2, 126796, Control_c, 0, 64, 74
2, 126806, Note_on_c, 0, 72, 0
2, 126811, Control_c, 0, 64, 81
2, 126824, Note_on_c, 0, 80, 62
2, 126827, Control_c, 0, 64, 87
2, 126842, Control_c, 0, 64, 89
2, 126887, Control_c, 0, 64, 89
2, 126903, Control_c, 0, 64, 87
2, 126918, Control_c, 0, 64, 85
2, 126932, Control_c, 0, 64, 80
2, 126948, Control_c, 0, 64, 74
2, 126954, Note_on_c, 0, 61, 60
2, 126960, Note_on_c, 0, 70, 60
2, 126963, Control_c, 0, 64, 68
2, 126979, Control_c, 0, 64, 63
2, 126979, Note_on_c, 0, 80, 0
2, 126994, Control_c, 0, 64, 58
2, 127008, Control_c, 0, 64, 52
2, 127033, Control_c, 0, 64, 48
2, 127041, Note_on_c, 0, 61, 0
2, 127047, Control_c, 0, 64, 46
2, 127048, Note_on_c, 0, 70, 0
2, 127063, Control_c, 0, 64, 45
2, 127063, Note_on_c, 0, 68, 62
2, 127068, Note_on_c, 0, 60, 62
2, 127154, Note_on_c, 0, 60, 0
2, 127161, Note_on_c, 0, 68, 0
2, 127170, Note_on_c, 0, 70, 63
2, 127172, Note_on_c, 0, 61, 56
2, 127240, Note_on_c, 0, 61, 0
2, 127262, Control_c, 0, 64, 45
2, 127271, Note_on_c, 0, 56, 51
2, 127271, Note_on_c, 0, 73, 65
2, 127274, Note_on_c, 0, 70, 0
2, 127367, Control_c, 0, 64, 44
2, 127376, Note_on_c, 0, 75, 67
2, 127381, Note_on_c, 0, 56, 0
2, 127382, Note_on_c, 0, 60, 58
2, 127401, Note_on_c, 0, 73, 0
2, 127450, Note_on_c, 0, 75, 0
2, 127463, Note_on_c, 0, 60, 0
2, 127479, Note_on_c, 0, 77, 67
2, 127504, Note_on_c, 0, 61, 48
2, 127505, Control_c, 0, 64, 44
2, 127573, Note_on_c, 0, 77, 0
2, 127579, Note_on_c, 0, 61, 0
2, 127586, Note_on_c, 0, 78, 66
2, 127594, Note_on_c, 0, 63, 53
2, 127656, Note_on_c, 0, 78, 0
2, 127673, Note_on_c, 0, 63, 0
2, 127695, Note_on_c, 0, 77, 63
2, 127699, Note_on_c, 0, 61, 61
2, 127776, Note_on_c, 0, 61, 0
2, 127778, Note_on_c, 0, 77, 0
2, 127806, Note_on_c, 0, 75, 63
2, 127808, Note_on_c, 0, 60, 62
2, 127872, Note_on_c, 0, 75, 0
2, 127903, Note_on_c, 0, 60, 0
2, 127911, Note_on_c, 0, 77, 64
2, 127919, Note_on_c, 0, 61, 59
2, 127968, Note_on_c, 0, 61, 0
2, 128005, Note_on_c, 0, 77, 0
2, 128029, Note_on_c, 0, 73, 51
2, 128035, Note_on_c, 0, 70, 66
2, 128066, Note_on_c, 0, 70, 0
2, 128124, Note_on_c, 0, 73, 0
2, 128129, Note_on_c, 0, 75, 55
2, 128216, Note_on_c, 0, 75, 0
2, 128256, Note_on_c, 0, 67, 66
2, 128259, Note_on_c, 0, 72, 56
2, 128283, Note_on_c, 0, 67, 0
2, 128286, Control_c, 0, 64, 43
2, 128341, Note_on_c, 0, 72, 0
2, 128362, Note_on_c, 0, 75, 56
2, 128408, Control_c, 0, 64, 43
2, 128439, Control_c, 0, 64, 42
2, 128470, Control_c, 0, 64, 43
2, 128478, Note_on_c, 0, 75, 0
2, 128482, Note_on_c, 0, 61, 52
2, 128484, Control_c, 0, 64, 49
2, 128500, Control_c, 0, 64, 58
2, 128502, Note_on_c, 0, 70, 52
2, 128515, Control_c, 0, 64, 63
2, 128530, Control_c, 0, 64, 67
2, 128545, Control_c, 0, 64, 75
2, 128565, Note_on_c, 0, 61, 0
2, 128567, Control_c, 0, 64, 87
2, 128583, Control_c, 0, 64, 102
2, 128598, Control_c, 0, 64, 110
2, 128606, Note_on_c, 0, 70, 0
2, 128613, Control_c, 0, 64, 110
2, 128615, Note_on_c, 0, 75, 62
2, 128629, Control_c, 0, 64, 107
2, 128644, Control_c, 0, 64, 102
2, 128659, Control_c, 0, 64, 98
2, 128674, Control_c, 0, 64, 94
2, 128690, Control_c, 0, 64, 88
2, 128706, Control_c, 0, 64, 79
2, 128720, Control_c, 0, 64, 68
2, 128736, Control_c, 0, 64, 58
2, 128736, Note_on_c, 0, 68, 56
2, 128751, Control_c, 0, 64, 46
2, 128751, Note_on_c, 0, 60, 54
2, 128754, Note_on_c, 0, 75, 0
2, 128766, Control_c, 0, 64, 38
2, 128797, Control_c, 0, 64, 41
2, 128797, Note_on_c, 0, 60, 0
2, 128805, Note_on_c, 0, 68, 0
2, 128811, Control_c, 0, 64, 48
2, 128827, Control_c, 0, 64, 55
2, 128833, Note_on_c, 0, 67, 64
2, 128842, Control_c, 0, 64, 58
2, 128851, Note_on_c, 0, 58, 54
2, 128858, Control_c, 0, 64, 61
2, 128873, Control_c, 0, 64, 64
2, 128888, Control_c, 0, 64, 65
2, 128903, Note_on_c, 0, 58, 0
2, 128904, Control_c, 0, 64, 66
2, 128913, Note_on_c, 0, 67, 0
2, 128936, Note_on_c, 0, 68, 65
2, 128949, Control_c, 0, 64, 66
2, 128957, Note_on_c, 0, 60, 55
2, 128964, Control_c, 0, 64, 65
2, 128979, Control_c, 0, 64, 64
2, 128994, Control_c, 0, 64, 63
2, 129009, Control_c, 0, 64, 62
2, 129015, Note_on_c, 0, 60, 0
2, 129015, Note_on_c, 0, 68, 0
2, 129025, Control_c, 0, 64, 60
2, 129040, Control_c, 0, 64, 58
2, 129050, Note_on_c, 0, 72, 73
2, 129055, Control_c, 0, 64, 56
2, 129057, Note_on_c, 0, 56, 53
2, 129070, Control_c, 0, 64, 54
2, 129085, Control_c, 0, 64, 50
2, 129101, Control_c, 0, 64, 46
2, 129116, Control_c, 0, 64, 42
2, 129130, Control_c, 0, 64, 39
2, 129146, Control_c, 0, 64, 38
2, 129153, Note_on_c, 0, 72, 0
2, 129156, Note_on_c, 0, 73, 72
2, 129161, Control_c, 0, 64, 37
2, 129169, Note_on_c, 0, 58, 62
2, 129176, Control_c, 0, 64, 36
2, 129190, Note_on_c, 0, 56, 0
2, 129239, Note_on_c, 0, 58, 0
2, 129250, Note_on_c, 0, 75, 75
2, 129268, Note_on_c, 0, 60, 60
2, 129271, Note_on_c, 0, 73, 0
2, 129338, Note_on_c, 0, 75, 0
2, 129352, Note_on_c, 0, 60, 0
2, 129368, Note_on_c, 0, 61, 57
2, 129368, Note_on_c, 0, 77, 76
2, 129456, Note_on_c, 0, 61, 0
2, 129466, Note_on_c, 0, 77, 0
2, 129471, Note_on_c, 0, 78, 79
2, 129474, Note_on_c, 0, 63, 58
2, 129561, Note_on_c, 0, 63, 0
2, 129570, Note_on_c, 0, 80, 79
2, 129576, Note_on_c, 0, 65, 65
2, 129577, Note_on_c, 0, 78, 0
2, 129660, Note_on_c, 0, 65, 0
2, 129674, Note_on_c, 0, 82, 79
2, 129681, Note_on_c, 0, 63, 56
2, 129703, Note_on_c, 0, 80, 0
2, 129753, Note_on_c, 0, 82, 0
2, 129766, Note_on_c, 0, 63, 0
2, 129775, Note_on_c, 0, 72, 76
2, 129794, Note_on_c, 0, 66, 57
2, 129799, Note_on_c, 0, 72, 0
2, 129864, Note_on_c, 0, 66, 0
2, 129882, Note_on_c, 0, 65, 59
2, 129963, Note_on_c, 0, 65, 0
2, 129980, Note_on_c, 0, 63, 58
2, 129996, Note_on_c, 0, 68, 75
2, 130027, Note_on_c, 0, 68, 0
2, 130072, Note_on_c, 0, 63, 0
2, 130087, Note_on_c, 0, 61, 56
2, 130185, Note_on_c, 0, 61, 0
2, 130190, Note_on_c, 0, 66, 56
2, 130222, Note_on_c, 0, 70, 73
2, 130262, Note_on_c, 0, 66, 0
2, 130322, Note_on_c, 0, 70, 0
2, 130323, Note_on_c, 0, 68, 80
2, 130410, Note_on_c, 0, 68, 0
2, 130434, Note_on_c, 0, 66, 74
2, 130437, Note_on_c, 0, 58, 61
2, 130518, Note_on_c, 0, 66, 0
2, 130522, Note_on_c, 0, 68, 82
2, 130523, Note_on_c, 0, 58, 0
2, 130526, Note_on_c, 0, 60, 71
2, 130618, Note_on_c, 0, 60, 0
2, 130628, Note_on_c, 0, 77, 83
2, 130629, Note_on_c, 0, 61, 69
2, 130634, Note_on_c, 0, 68, 0
2, 130659, Note_on_c, 0, 77, 0
2, 130715, Note_on_c, 0, 61, 0
2, 130732, Note_on_c, 0, 60, 66
2, 130758, Control_c, 0, 64, 37
2, 130824, Note_on_c, 0, 60, 0
2, 130835, Note_on_c, 0, 58, 64
2, 130840, Note_on_c, 0, 73, 82
2, 130878, Note_on_c, 0, 73, 0
2, 130946, Note_on_c, 0, 58, 0
2, 130952, Note_on_c, 0, 56, 60
2, 130963, Control_c, 0, 64, 37
2, 131056, Note_on_c, 0, 56, 0
2, 131073, Note_on_c, 0, 58, 66
2, 131076, Note_on_c, 0, 68, 79
2, 131116, Control_c, 0, 64, 38
2, 131208, Control_c, 0, 64, 38
2, 131344, Note_on_c, 0, 66, 70
2, 131347, Note_on_c, 0, 68, 0
2, 131423, Note_on_c, 0, 66, 0
2, 131433, Note_on_c, 0, 65, 76
2, 131527, Note_on_c, 0, 65, 0
2, 131532, Note_on_c, 0, 66, 74
2, 131560, Note_on_c, 0, 66, 0
2, 131572, Control_c, 0, 64, 38
2, 131648, Note_on_c, 0, 58, 0
2, 131656, Note_on_c, 0, 56, 60
2, 131740, Note_on_c, 0, 56, 0
2, 131749, Note_on_c, 0, 54, 61
2, 131758, Note_on_c, 0, 75, 80
2, 131788, Note_on_c, 0, 75, 0
2, 131832, Note_on_c, 0, 54, 0
2, 131850, Note_on_c, 0, 58, 63
2, 131940, Note_on_c, 0, 58, 0
2, 131950, Note_on_c, 0, 56, 62
2, 131966, Note_on_c, 0, 65, 77
2, 131997, Note_on_c, 0, 65, 0
2, 132049, Note_on_c, 0, 56, 0
2, 132066, Note_on_c, 0, 54, 56
2, 132163, Note_on_c, 0, 54, 0
2, 132180, Note_on_c, 0, 73, 75
2, 132184, Note_on_c, 0, 53, 55
2, 132221, Note_on_c, 0, 73, 0
2, 132242, Note_on_c, 0, 53, 0
2, 132282, Note_on_c, 0, 56, 56
2, 132390, Note_on_c, 0, 56, 0
2, 132407, Note_on_c, 0, 63, 68
2, 132411, Note_on_c, 0, 54, 55
2, 132444, Note_on_c, 0, 63, 0
2, 132489, Note_on_c, 0, 54, 0
2, 132511, Note_on_c, 0, 53, 52
2, 132607, Note_on_c, 0, 53, 0
2, 132628, Note_on_c, 0, 72, 66
2, 132629, Note_on_c, 0, 54, 53
2, 132673, Note_on_c, 0, 72, 0
2, 132722, Note_on_c, 0, 54, 0
2, 132741, Note_on_c, 0, 51, 53
2, 132847, Note_on_c, 0, 51, 0
2, 132896, Control_c, 0, 64, 42
2, 132897, Note_on_c, 0, 53, 43
2, 132902, Note_on_c, 0, 61, 55
2, 132910, Control_c, 0, 64, 49
2, 132925, Control_c, 0, 64, 57
2, 132941, Control_c, 0, 64, 63
2, 132948, Note_on_c, 0, 61, 0
2, 132956, Control_c, 0, 64, 67
2, 132971, Control_c, 0, 64, 72
2, 132986, Control_c, 0, 64, 83
2, 133001, Control_c, 0, 64, 95
2, 133017, Control_c, 0, 64, 101
2, 133032, Control_c, 0, 64, 100
2, 133047, Control_c, 0, 64, 97
2, 133063, Control_c, 0, 64, 93
2, 133077, Control_c, 0, 64, 91
2, 133092, Control_c, 0, 64, 91
2, 133123, Control_c, 0, 64, 88
2, 133138, Control_c, 0, 64, 84
2, 133153, Control_c, 0, 64, 79
2, 133160, Note_on_c, 0, 73, 59
2, 133177, Control_c, 0, 64, 75
2, 133192, Control_c, 0, 64, 71
2, 133206, Control_c, 0, 64, 67
2, 133211, Note_on_c, 0, 73, 0
2, 133222, Control_c, 0, 64, 64
2, 133237, Control_c, 0, 64, 62
2, 133241, Note_on_c, 0, 53, 0
2, 133252, Control_c, 0, 64, 59
2, 133258, Note_on_c, 0, 72, 62
2, 133268, Control_c, 0, 64, 56
2, 133274, Note_on_c, 0, 56, 51
2, 133282, Control_c, 0, 64, 52
2, 133298, Control_c, 0, 64, 47
2, 133313, Control_c, 0, 64, 43
2, 133327, Control_c, 0, 64, 39
2, 133343, Control_c, 0, 64, 38
2, 133349, Note_on_c, 0, 72, 0
2, 133358, Control_c, 0, 64, 38
2, 133368, Note_on_c, 0, 73, 56
2, 133373, Control_c, 0, 64, 37
2, 133373, Note_on_c, 0, 56, 0
2, 133377, Note_on_c, 0, 58, 56
2, 133449, Note_on_c, 0, 58, 0
2, 133468, Note_on_c, 0, 73, 0
2, 133468, Note_on_c, 0, 75, 60
2, 133475, Note_on_c, 0, 60, 61
2, 133521, Note_on_c, 0, 75, 0
2, 133556, Control_c, 0, 64, 37
2, 133559, Note_on_c, 0, 60, 0
2, 133573, Note_on_c, 0, 61, 60
2, 133577, Note_on_c, 0, 77, 64
2, 133603, Control_c, 0, 64, 38
2, 133651, Note_on_c, 0, 77, 0
2, 133674, Note_on_c, 0, 63, 65
2, 133676, Note_on_c, 0, 78, 63
2, 133679, Control_c, 0, 64, 38
2, 133740, Control_c, 0, 64, 39
2, 133774, Note_on_c, 0, 78, 0
2, 133778, Note_on_c, 0, 65, 71
2, 133780, Note_on_c, 0, 63, 0
2, 133782, Note_on_c, 0, 61, 0
2, 133785, Note_on_c, 0, 80, 61
2, 133860, Note_on_c, 0, 80, 0
2, 133871, Note_on_c, 0, 65, 0
2, 133882, Note_on_c, 0, 63, 72
2, 133882, Note_on_c, 0, 78, 69
2, 133969, Note_on_c, 0, 78, 0
2, 133974, Note_on_c, 0, 63, 0
2, 133985, Note_on_c, 0, 61, 75
2, 133989, Note_on_c, 0, 77, 65
2, 134062, Note_on_c, 0, 77, 0
2, 134074, Note_on_c, 0, 61, 0
2, 134078, Note_on_c, 0, 63, 74
2, 134080, Note_on_c, 0, 78, 69
2, 134126, Control_c, 0, 64, 39
2, 134162, Note_on_c, 0, 63, 0
2, 134174, Note_on_c, 0, 78, 0
2, 134184, Note_on_c, 0, 72, 80
2, 134185, Note_on_c, 0, 80, 63
2, 134195, Note_on_c, 0, 60, 62
2, 134214, Note_on_c, 0, 72, 0
2, 134248, Control_c, 0, 64, 39
2, 134263, Control_c, 0, 64, 38
2, 134278, Control_c, 0, 64, 36
2, 134282, Note_on_c, 0, 80, 0
2, 134293, Control_c, 0, 64, 32
2, 134299, Note_on_c, 0, 78, 64
2, 134309, Control_c, 0, 64, 26
2, 134324, Control_c, 0, 64, 13
2, 134340, Control_c, 0, 64, 0
2, 134381, Note_on_c, 0, 78, 0
2, 134411, Note_on_c, 0, 68, 76
2, 134412, Note_on_c, 0, 77, 65
2, 134446, Note_on_c, 0, 68, 0
2, 134505, Note_on_c, 0, 77, 0
2, 134517, Note_on_c, 0, 75, 63
2, 134643, Note_on_c, 0, 77, 72
2, 134648, Note_on_c, 0, 75, 0
2, 134649, Note_on_c, 0, 63, 72
2, 134771, Note_on_c, 0, 60, 0
2, 134926, Note_on_c, 0, 63, 0
2, 134933, Note_on_c, 0, 61, 65
2, 135012, Note_on_c, 0, 61, 0
2, 135022, Note_on_c, 0, 60, 70
2, 135123, Note_on_c, 0, 58, 55
2, 135124, Note_on_c, 0, 61, 74
2, 135126, Note_on_c, 0, 60, 0
2, 135178, Note_on_c, 0, 61, 0
2, 135245, Note_on_c, 0, 75, 57
2, 135245, Note_on_c, 0, 77, 0
2, 135342, Note_on_c, 0, 70, 74
2, 135343, Note_on_c, 0, 73, 63
2, 135364, Note_on_c, 0, 75, 0
2, 135367, Note_on_c, 0, 70, 0
2, 135426, Note_on_c, 0, 73, 0
2, 135445, Note_on_c, 0, 77, 63
2, 135544, Note_on_c, 0, 58, 0
2, 135565, Note_on_c, 0, 77, 0
2, 135567, Note_on_c, 0, 60, 71
2, 135572, Note_on_c, 0, 75, 61
2, 135605, Note_on_c, 0, 60, 0
2, 135659, Note_on_c, 0, 73, 64
2, 135661, Note_on_c, 0, 75, 0
2, 135745, Note_on_c, 0, 73, 0
2, 135777, Note_on_c, 0, 72, 63
2, 135778, Note_on_c, 0, 68, 77
2, 135785, Note_on_c, 0, 56, 62
2, 135805, Note_on_c, 0, 68, 0
2, 135829, Note_on_c, 0, 56, 0
2, 135863, Note_on_c, 0, 72, 0
2, 135879, Note_on_c, 0, 75, 67
2, 135976, Note_on_c, 0, 75, 0
2, 135985, Note_on_c, 0, 73, 67
2, 135998, Note_on_c, 0, 58, 66
2, 136033, Note_on_c, 0, 58, 0
2, 136081, Note_on_c, 0, 72, 71
2, 136092, Note_on_c, 0, 73, 0
2, 136150, Note_on_c, 0, 72, 0
2, 136196, Note_on_c, 0, 67, 58
2, 136199, Note_on_c, 0, 73, 65
2, 136207, Note_on_c, 0, 51, 63
2, 136244, Note_on_c, 0, 67, 0
2, 136251, Note_on_c, 0, 51, 0
2, 136289, Note_on_c, 0, 73, 0
2, 136302, Note_on_c, 0, 70, 62
2, 136416, Note_on_c, 0, 70, 0
2, 136427, Note_on_c, 0, 72, 65
2, 136440, Note_on_c, 0, 56, 49
2, 136457, Note_on_c, 0, 72, 0
2, 136653, Note_on_c, 0, 68, 44
2, 136656, Note_on_c, 0, 75, 69
2, 136690, Note_on_c, 0, 75, 0
2, 136712, Note_on_c, 0, 68, 0
2, 136742, Note_on_c, 0, 66, 55
2, 136851, Note_on_c, 0, 66, 0
2, 136875, Note_on_c, 0, 78, 72
2, 136877, Note_on_c, 0, 68, 55
2, 136913, Note_on_c, 0, 68, 0
2, 136932, Note_on_c, 0, 56, 0
2, 136981, Note_on_c, 0, 70, 48
2, 137098, Note_on_c, 0, 56, 67
2, 137098, Note_on_c, 0, 70, 0
2, 137101, Note_on_c, 0, 72, 60
2, 137126, Note_on_c, 0, 56, 0
2, 137155, Note_on_c, 0, 72, 0
2, 137202, Note_on_c, 0, 68, 57
2, 137309, Note_on_c, 0, 68, 0
2, 137313, Note_on_c, 0, 58, 67
2, 137317, Note_on_c, 0, 73, 58
2, 137400, Note_on_c, 0, 58, 0
2, 137403, Note_on_c, 0, 56, 71
2, 137404, Note_on_c, 0, 72, 66
2, 137409, Note_on_c, 0, 73, 0
2, 137492, Note_on_c, 0, 72, 0
2, 137501, Note_on_c, 0, 56, 0
2, 137505, Note_on_c, 0, 54, 77
2, 137518, Note_on_c, 0, 70, 61
2, 137574, Note_on_c, 0, 70, 0
2, 137586, Note_on_c, 0, 78, 0
2, 137596, Note_on_c, 0, 72, 74
2, 137598, Note_on_c, 0, 56, 78
2, 137602, Note_on_c, 0, 54, 0
2, 137663, Note_on_c, 0, 56, 0
2, 137680, Note_on_c, 0, 72, 0
2, 137715, Note_on_c, 0, 65, 73
2, 137718, Note_on_c, 0, 73, 62
2, 137718, Note_on_c, 0, 77, 74
2, 137746, Note_on_c, 0, 65, 0
2, 137765, Note_on_c, 0, 73, 0
2, 137823, Note_on_c, 0, 72, 64
2, 137896, Note_on_c, 0, 72, 0
2, 137934, Note_on_c, 0, 61, 79
2, 137953, Note_on_c, 0, 70, 63
2, 137964, Note_on_c, 0, 61, 0
2, 138035, Note_on_c, 0, 70, 0
2, 138054, Note_on_c, 0, 68, 66
2, 138179, Note_on_c, 0, 68, 0
2, 138181, Note_on_c, 0, 56, 75
2, 138186, Note_on_c, 0, 70, 67
2, 138443, Note_on_c, 0, 56, 0
2, 138447, Note_on_c, 0, 54, 67
2, 138537, Note_on_c, 0, 54, 0
2, 138540, Note_on_c, 0, 53, 75
2, 138630, Note_on_c, 0, 77, 0
2, 138646, Note_on_c, 0, 53, 0
2, 138646, Note_on_c, 0, 54, 78
2, 138657, Note_on_c, 0, 75, 71
2, 138677, Note_on_c, 0, 54, 0
2, 138677, Note_on_c, 0, 70, 0
2, 138775, Note_on_c, 0, 68, 55
2, 138859, Note_on_c, 0, 63, 75
2, 138861, Note_on_c, 0, 68, 0
2, 138868, Note_on_c, 0, 66, 64
2, 138884, Note_on_c, 0, 63, 0
2, 138965, Note_on_c, 0, 70, 61
2, 138977, Note_on_c, 0, 66, 0
2, 139072, Note_on_c, 0, 53, 76
2, 139080, Note_on_c, 0, 68, 66
2, 139093, Note_on_c, 0, 75, 0
2, 139106, Note_on_c, 0, 53, 0
2, 139142, Note_on_c, 0, 70, 0
2, 139163, Note_on_c, 0, 68, 0
2, 139180, Note_on_c, 0, 66, 62
2, 139241, Note_on_c, 0, 66, 0
2, 139277, Note_on_c, 0, 61, 76
2, 139280, Note_on_c, 0, 73, 77
2, 139286, Note_on_c, 0, 65, 62
2, 139303, Note_on_c, 0, 61, 0
2, 139329, Note_on_c, 0, 65, 0
2, 139353, Note_on_c, 0, 73, 0
2, 139384, Note_on_c, 0, 68, 65
2, 139427, Note_on_c, 0, 68, 0
2, 139491, Note_on_c, 0, 51, 61
2, 139497, Note_on_c, 0, 72, 68
2, 139506, Note_on_c, 0, 66, 51
2, 139531, Note_on_c, 0, 51, 0
2, 139544, Note_on_c, 0, 66, 0
2, 139563, Note_on_c, 0, 72, 0
2, 139591, Note_on_c, 0, 65, 57
2, 139679, Note_on_c, 0, 65, 0
2, 139709, Note_on_c, 0, 60, 52
2, 139712, Note_on_c, 0, 75, 70
2, 139730, Note_on_c, 0, 66, 49
2, 139744, Note_on_c, 0, 60, 0
2, 139813, Note_on_c, 0, 66, 0
2, 139825, Note_on_c, 0, 63, 54
2, 139881, Note_on_c, 0, 63, 0
2, 139979, Note_on_c, 0, 65, 56
2, 139992, Note_on_c, 0, 49, 42
2, 140105, Note_on_c, 0, 49, 0
2, 140112, Note_on_c, 0, 44, 51
2, 140230, Note_on_c, 0, 68, 72
2, 140241, Note_on_c, 0, 75, 0
2, 140242, Note_on_c, 0, 49, 54
2, 140244, Note_on_c, 0, 44, 0
2, 140300, Note_on_c, 0, 68, 0
2, 140349, Note_on_c, 0, 51, 70
2, 140382, Note_on_c, 0, 49, 0
2, 140456, Note_on_c, 0, 51, 0
2, 140464, Note_on_c, 0, 73, 78
2, 140475, Note_on_c, 0, 53, 63
2, 140591, Note_on_c, 0, 53, 0
2, 140591, Note_on_c, 0, 54, 65
2, 140674, Note_on_c, 0, 71, 77
2, 140693, Note_on_c, 0, 73, 0
2, 140705, Note_on_c, 0, 56, 63
2, 140713, Note_on_c, 0, 54, 0
2, 140731, Note_on_c, 0, 71, 0
2, 140778, Note_on_c, 0, 56, 0
2, 140787, Note_on_c, 0, 53, 64
2, 140866, Note_on_c, 0, 53, 0
2, 140897, Note_on_c, 0, 70, 75
2, 140899, Note_on_c, 0, 65, 0
2, 140914, Note_on_c, 0, 54, 57
2, 141010, Note_on_c, 0, 54, 0
2, 141019, Note_on_c, 0, 42, 58
2, 141078, Note_on_c, 0, 42, 0
2, 141129, Note_on_c, 0, 61, 62
2, 141137, Note_on_c, 0, 54, 53
2, 141172, Note_on_c, 0, 61, 0
2, 141237, Note_on_c, 0, 54, 0
2, 141240, Note_on_c, 0, 53, 54
2, 141318, Note_on_c, 0, 53, 0
2, 141349, Note_on_c, 0, 66, 64
2, 141361, Note_on_c, 0, 54, 59
2, 141450, Note_on_c, 0, 54, 0
2, 141462, Note_on_c, 0, 56, 57
2, 141566, Note_on_c, 0, 56, 0
2, 141567, Note_on_c, 0, 58, 64
2, 141567, Note_on_c, 0, 65, 66
2, 141588, Note_on_c, 0, 66, 0
2, 141644, Note_on_c, 0, 65, 0
2, 141682, Note_on_c, 0, 58, 0
2, 141684, Note_on_c, 0, 54, 62
2, 141795, Note_on_c, 0, 54, 0
2, 141796, Note_on_c, 0, 51, 55
2, 141814, Note_on_c, 0, 66, 71
2, 141853, Note_on_c, 0, 70, 0
2, 141929, Note_on_c, 0, 53, 67
2, 141949, Note_on_c, 0, 51, 0
2, 142043, Note_on_c, 0, 70, 76
2, 142045, Note_on_c, 0, 54, 63
2, 142049, Note_on_c, 0, 66, 0
2, 142050, Note_on_c, 0, 53, 0
2, 142136, Note_on_c, 0, 66, 75
2, 142153, Note_on_c, 0, 51, 67
2, 142160, Note_on_c, 0, 54, 0
2, 142185, Note_on_c, 0, 70, 0
2, 142239, Note_on_c, 0, 51, 0
2, 142244, Note_on_c, 0, 63, 76
2, 142255, Note_on_c, 0, 48, 61
2, 142260, Note_on_c, 0, 66, 0
2, 142346, Note_on_c, 0, 49, 67
2, 142351, Note_on_c, 0, 48, 0
2, 142459, Note_on_c, 0, 51, 69
2, 142461, Note_on_c, 0, 63, 0
2, 142465, Note_on_c, 0, 49, 0
2, 142466, Note_on_c, 0, 66, 76
2, 142553, Note_on_c, 0, 63, 81
2, 142564, Note_on_c, 0, 48, 63
2, 142570, Note_on_c, 0, 51, 0
2, 142586, Note_on_c, 0, 66, 0
2, 142647, Note_on_c, 0, 48, 0
2, 142661, Note_on_c, 0, 41, 65
2, 142661, Note_on_c, 0, 63, 0
2, 142671, Note_on_c, 0, 56, 77
2, 142708, Note_on_c, 0, 41, 0
2, 142899, Note_on_c, 0, 63, 71
2, 142902, Note_on_c, 0, 53, 61
2, 142935, Note_on_c, 0, 63, 0
2, 142960, Note_on_c, 0, 53, 0
2, 142988, Note_on_c, 0, 51, 70
2, 143098, Note_on_c, 0, 56, 0
2, 143107, Note_on_c, 0, 51, 0
2, 143118, Note_on_c, 0, 68, 78
2, 143140, Note_on_c, 0, 53, 53
2, 143216, Note_on_c, 0, 53, 0
2, 143234, Note_on_c, 0, 54, 58
2, 143352, Note_on_c, 0, 60, 67
2, 143354, Note_on_c, 0, 56, 57
2, 143355, Note_on_c, 0, 54, 0
2, 143390, Note_on_c, 0, 60, 0
2, 143428, Note_on_c, 0, 56, 0
2, 143454, Note_on_c, 0, 53, 51
2, 143582, Note_on_c, 0, 50, 48
2, 143585, Note_on_c, 0, 53, 0
2, 143600, Note_on_c, 0, 65, 61
2, 143619, Note_on_c, 0, 68, 0
2, 143689, Note_on_c, 0, 51, 57
2, 143702, Note_on_c, 0, 50, 0
2, 143795, Note_on_c, 0, 51, 0
2, 143803, Note_on_c, 0, 65, 0
2, 143820, Note_on_c, 0, 53, 51
2, 143820, Note_on_c, 0, 68, 63
2, 143902, Note_on_c, 0, 65, 69
2, 143905, Note_on_c, 0, 68, 0
2, 143911, Note_on_c, 0, 53, 0
2, 143943, Note_on_c, 0, 50, 41
2, 144001, Note_on_c, 0, 50, 0
2, 144018, Note_on_c, 0, 62, 65
2, 144018, Note_on_c, 0, 65, 0
2, 144025, Note_on_c, 0, 46, 57
2, 144114, Note_on_c, 0, 46, 0
2, 144125, Note_on_c, 0, 48, 52
2, 144192, Note_on_c, 0, 62, 0
2, 144210, Note_on_c, 0, 48, 0
2, 144223, Note_on_c, 0, 50, 55
2, 144233, Note_on_c, 0, 65, 63
2, 144306, Note_on_c, 0, 50, 0
2, 144319, Note_on_c, 0, 62, 66
2, 144321, Note_on_c, 0, 46, 49
2, 144321, Note_on_c, 0, 65, 0
2, 144410, Note_on_c, 0, 46, 0
2, 144416, Note_on_c, 0, 62, 0
2, 144440, Note_on_c, 0, 39, 49
2, 144442, Note_on_c, 0, 54, 65
2, 144477, Note_on_c, 0, 39, 0
2, 144663, Note_on_c, 0, 58, 60
2, 144666, Note_on_c, 0, 51, 55
2, 144711, Note_on_c, 0, 58, 0
2, 144762, Note_on_c, 0, 51, 0
2, 144773, Note_on_c, 0, 50, 60
2, 144880, Note_on_c, 0, 50, 0
2, 144886, Note_on_c, 0, 54, 0
2, 144891, Note_on_c, 0, 51, 61
2, 144899, Note_on_c, 0, 66, 65
2, 144981, Note_on_c, 0, 51, 0
2, 144987, Note_on_c, 0, 53, 66
2, 145100, Note_on_c, 0, 54, 67
2, 145104, Note_on_c, 0, 53, 0
2, 145114, Note_on_c, 0, 58, 63
2, 145163, Note_on_c, 0, 58, 0
2, 145204, Note_on_c, 0, 51, 67
2, 145223, Note_on_c, 0, 54, 0
2, 145306, Note_on_c, 0, 51, 0
2, 145309, Note_on_c, 0, 63, 68
2, 145311, Note_on_c, 0, 48, 62
2, 145351, Note_on_c, 0, 66, 0
2, 145411, Note_on_c, 0, 65, 76
2, 145419, Note_on_c, 0, 49, 66
2, 145422, Note_on_c, 0, 48, 0
2, 145428, Note_on_c, 0, 63, 0
2, 145522, Note_on_c, 0, 49, 0
2, 145525, Note_on_c, 0, 51, 68
2, 145530, Note_on_c, 0, 66, 76
2, 145539, Note_on_c, 0, 65, 0
2, 145601, Note_on_c, 0, 66, 0
2, 145628, Note_on_c, 0, 63, 75
2, 145640, Note_on_c, 0, 48, 61
2, 145642, Note_on_c, 0, 51, 0
2, 145755, Note_on_c, 0, 48, 0
2, 145758, Note_on_c, 0, 75, 86
2, 145763, Note_on_c, 0, 44, 61
2, 145801, Note_on_c, 0, 63, 0
2, 145882, Note_on_c, 0, 66, 74
2, 145887, Note_on_c, 0, 46, 64
2, 145900, Note_on_c, 0, 44, 0
2, 145990, Note_on_c, 0, 48, 62
2, 145993, Note_on_c, 0, 66, 0
2, 145993, Note_on_c, 0, 68, 76
2, 145995, Note_on_c, 0, 46, 0
2, 146077, Note_on_c, 0, 68, 0
2, 146078, Note_on_c, 0, 44, 65
2, 146083, Note_on_c, 0, 48, 0
2, 146092, Note_on_c, 0, 63, 76
2, 146176, Note_on_c, 0, 63, 0
2, 146220, Note_on_c, 0, 44, 0
2, 146223, Note_on_c, 0, 37, 59
2, 146245, Note_on_c, 0, 65, 76
2, 146314, Note_on_c, 0, 37, 0
2, 146345, Note_on_c, 0, 73, 77
2, 146374, Note_on_c, 0, 75, 0
2, 146447, Note_on_c, 0, 72, 80
2, 146465, Note_on_c, 0, 49, 67
2, 146470, Note_on_c, 0, 73, 0
2, 146534, Note_on_c, 0, 65, 0
2, 146549, Note_on_c, 0, 75, 89
2, 146563, Note_on_c, 0, 72, 0
2, 146564, Note_on_c, 0, 51, 71
2, 146576, Note_on_c, 0, 49, 0
2, 146649, Note_on_c, 0, 51, 0
2, 146657, Note_on_c, 0, 73, 79
2, 146660, Note_on_c, 0, 53, 73
2, 146678, Note_on_c, 0, 75, 0
2, 146694, Note_on_c, 0, 53, 0
2, 146733, Note_on_c, 0, 73, 0
2, 146757, Note_on_c, 0, 68, 80
2, 146865, Note_on_c, 0, 70, 78
2, 146868, Note_on_c, 0, 49, 59
2, 146869, Note_on_c, 0, 61, 76
2, 146874, Note_on_c, 0, 68, 0
2, 146910, Note_on_c, 0, 49, 0
2, 146941, Note_on_c, 0, 70, 0
2, 146967, Note_on_c, 0, 71, 81
2, 147076, Note_on_c, 0, 70, 80
2, 147085, Note_on_c, 0, 54, 59
2, 147112, Note_on_c, 0, 71, 0
2, 147123, Note_on_c, 0, 61, 0
2, 147183, Note_on_c, 0, 68, 80
2, 147186, Note_on_c, 0, 60, 62
2, 147190, Note_on_c, 0, 70, 0
2, 147266, Note_on_c, 0, 58, 71
2, 147268, Note_on_c, 0, 60, 0
2, 147274, Note_on_c, 0, 68, 0
2, 147283, Note_on_c, 0, 66, 78
2, 147345, Note_on_c, 0, 58, 0
2, 147359, Note_on_c, 0, 60, 71
2, 147374, Note_on_c, 0, 68, 88
2, 147375, Note_on_c, 0, 66, 0
2, 147466, Note_on_c, 0, 61, 70
2, 147471, Note_on_c, 0, 60, 0
2, 147477, Note_on_c, 0, 77, 87
2, 147481, Note_on_c, 0, 54, 0
2, 147490, Note_on_c, 0, 53, 58
2, 147492, Note_on_c, 0, 68, 0
2, 147523, Note_on_c, 0, 77, 0
2, 147540, Note_on_c, 0, 61, 0
2, 147580, Note_on_c, 0, 60, 74
2, 147685, Note_on_c, 0, 60, 0
2, 147693, Note_on_c, 0, 73, 86
2, 147694, Note_on_c, 0, 58, 64
2, 147741, Note_on_c, 0, 73, 0
2, 147754, Note_on_c, 0, 53, 0
2, 147813, Note_on_c, 0, 56, 72
2, 147823, Note_on_c, 0, 58, 0
2, 147922, Note_on_c, 0, 56, 0
2, 147933, Note_on_c, 0, 68, 87
2, 147937, Note_on_c, 0, 58, 73
2, 147945, Note_on_c, 0, 51, 69
2, 147993, Note_on_c, 0, 51, 0
2, 148191, Note_on_c, 0, 49, 60
2, 148191, Note_on_c, 0, 66, 76
2, 148203, Note_on_c, 0, 68, 0
2, 148239, Note_on_c, 0, 49, 0
2, 148281, Note_on_c, 0, 66, 0
2, 148283, Note_on_c, 0, 65, 77
2, 148387, Note_on_c, 0, 65, 0
2, 148389, Note_on_c, 0, 66, 74
2, 148402, Note_on_c, 0, 48, 61
2, 148415, Note_on_c, 0, 66, 0
2, 148487, Note_on_c, 0, 58, 0
2, 148500, Note_on_c, 0, 56, 62
2, 148611, Note_on_c, 0, 75, 77
2, 148617, Note_on_c, 0, 56, 0
2, 148622, Note_on_c, 0, 54, 62
2, 148647, Note_on_c, 0, 75, 0
2, 148674, Note_on_c, 0, 48, 0
2, 148737, Note_on_c, 0, 56, 59
2, 148827, Note_on_c, 0, 49, 61
2, 148830, Note_on_c, 0, 54, 0
2, 148834, Note_on_c, 0, 65, 76
2, 148845, Note_on_c, 0, 56, 0
2, 148861, Note_on_c, 0, 55, 47
2, 148870, Note_on_c, 0, 65, 0
2, 148911, Note_on_c, 0, 55, 0
2, 148989, Note_on_c, 0, 53, 53
2, 149054, Control_c, 0, 64, 9
2, 149068, Note_on_c, 0, 73, 81
2, 149069, Control_c, 0, 64, 33
2, 149084, Control_c, 0, 64, 41
2, 149100, Control_c, 0, 64, 46
2, 149106, Note_on_c, 0, 53, 0
2, 149115, Control_c, 0, 64, 50
2, 149117, Note_on_c, 0, 73, 0
2, 149122, Note_on_c, 0, 49, 0
2, 149131, Control_c, 0, 64, 54
2, 149146, Control_c, 0, 64, 57
2, 149161, Control_c, 0, 64, 59
2, 149176, Control_c, 0, 64, 60
2, 149191, Control_c, 0, 64, 62
2, 149206, Control_c, 0, 64, 63
2, 149253, Control_c, 0, 64, 61
2, 149268, Control_c, 0, 64, 58
2, 149283, Control_c, 0, 64, 53
2, 149285, Note_on_c, 0, 63, 74
2, 149286, Note_on_c, 0, 44, 43
2, 149290, Note_on_c, 0, 54, 47
2, 149305, Control_c, 0, 64, 48
2, 149320, Control_c, 0, 64, 42
2, 149329, Note_on_c, 0, 63, 0
2, 149336, Control_c, 0, 64, 35
2, 149351, Control_c, 0, 64, 29
2, 149353, Note_on_c, 0, 54, 0
2, 149366, Control_c, 0, 64, 28
2, 149396, Note_on_c, 0, 54, 44
2, 149412, Control_c, 0, 64, 27
2, 149427, Control_c, 0, 64, 25
2, 149441, Control_c, 0, 64, 24
2, 149472, Control_c, 0, 64, 30
2, 149484, Note_on_c, 0, 54, 0
2, 149487, Control_c, 0, 64, 42
2, 149494, Note_on_c, 0, 53, 60
2, 149503, Control_c, 0, 64, 51
2, 149515, Control_c, 0, 64, 55
2, 149519, Note_on_c, 0, 72, 77
2, 149530, Control_c, 0, 64, 59
2, 149546, Control_c, 0, 64, 61
2, 149554, Note_on_c, 0, 72, 0
2, 149561, Control_c, 0, 64, 63
2, 149577, Control_c, 0, 64, 63
2, 149591, Control_c, 0, 64, 64
2, 149596, Note_on_c, 0, 51, 61
2, 149604, Note_on_c, 0, 53, 0
2, 149606, Control_c, 0, 64, 65
2, 149611, Note_on_c, 0, 44, 0
2, 149636, Control_c, 0, 64, 65
2, 149682, Control_c, 0, 64, 65
2, 149698, Control_c, 0, 64, 64
2, 149712, Control_c, 0, 64, 62
2, 149727, Control_c, 0, 64, 58
2, 149737, Note_on_c, 0, 51, 0
2, 149743, Control_c, 0, 64, 51
2, 149758, Control_c, 0, 64, 42
2, 149759, Note_on_c, 0, 53, 66
2, 149759, Note_on_c, 0, 61, 72
2, 149761, Note_on_c, 0, 46, 63
2, 149773, Control_c, 0, 64, 31
2, 149788, Control_c, 0, 64, 30
2, 149803, Control_c, 0, 64, 41
2, 149819, Control_c, 0, 64, 54
2, 149834, Control_c, 0, 64, 60
2, 149839, Note_on_c, 0, 46, 0
2, 149849, Control_c, 0, 64, 63
2, 149865, Control_c, 0, 64, 65
2, 149879, Note_on_c, 0, 61, 0
2, 149880, Control_c, 0, 64, 67
2, 149894, Note_on_c, 0, 53, 0
2, 149896, Control_c, 0, 64, 68
2, 149910, Control_c, 0, 64, 68
2, 149925, Control_c, 0, 64, 68
2, 149936, Note_on_c, 0, 65, 70
2, 149940, Note_on_c, 0, 56, 65
2, 149941, Control_c, 0, 64, 67
2, 149956, Control_c, 0, 64, 66
2, 149971, Control_c, 0, 64, 65
2, 149987, Control_c, 0, 64, 65
2, 150002, Control_c, 0, 64, 64
2, 150018, Control_c, 0, 64, 62
2, 150033, Control_c, 0, 64, 61
2, 150045, Note_on_c, 0, 58, 72
2, 150047, Note_on_c, 0, 66, 73
2, 150048, Control_c, 0, 64, 59
2, 150053, Note_on_c, 0, 65, 0
2, 150070, Control_c, 0, 64, 58
2, 150085, Control_c, 0, 64, 58
2, 150085, Note_on_c, 0, 56, 0
2, 150116, Control_c, 0, 64, 57
2, 150131, Control_c, 0, 64, 56
2, 150146, Control_c, 0, 64, 56
2, 150154, Note_on_c, 0, 58, 0
2, 150154, Note_on_c, 0, 68, 82
2, 150161, Control_c, 0, 64, 55
2, 150161, Note_on_c, 0, 60, 73
2, 150178, Control_c, 0, 64, 54
2, 150180, Note_on_c, 0, 66, 0
2, 150193, Control_c, 0, 64, 53
2, 150208, Control_c, 0, 64, 52
2, 150223, Control_c, 0, 64, 51
2, 150238, Control_c, 0, 64, 51
2, 150264, Note_on_c, 0, 70, 74
2, 150267, Note_on_c, 0, 61, 71
2, 150276, Note_on_c, 0, 60, 0
2, 150301, Note_on_c, 0, 68, 0
2, 150314, Control_c, 0, 64, 50
2, 150330, Note_on_c, 0, 70, 0
2, 150361, Note_on_c, 0, 72, 79
2, 150362, Note_on_c, 0, 61, 0
2, 150376, Note_on_c, 0, 60, 72
2, 150467, Note_on_c, 0, 73, 79
2, 150468, Note_on_c, 0, 58, 74
2, 150472, Note_on_c, 0, 60, 0
2, 150497, Note_on_c, 0, 72, 0
2, 150557, Control_c, 0, 64, 51
2, 150571, Note_on_c, 0, 75, 81
2, 150578, Note_on_c, 0, 56, 70
2, 150581, Note_on_c, 0, 58, 0
2, 150587, Note_on_c, 0, 73, 0
2, 150603, Control_c, 0, 64, 50
2, 150633, Control_c, 0, 64, 50
2, 150648, Control_c, 0, 64, 48
2, 150664, Control_c, 0, 64, 46
2, 150678, Control_c, 0, 64, 43
2, 150679, Note_on_c, 0, 75, 0
2, 150688, Note_on_c, 0, 76, 77
2, 150693, Control_c, 0, 64, 38
2, 150705, Note_on_c, 0, 55, 70
2, 150709, Control_c, 0, 64, 30
2, 150713, Note_on_c, 0, 56, 0
2, 150724, Control_c, 0, 64, 19
2, 150740, Control_c, 0, 64, 9
2, 150754, Control_c, 0, 64, 0
2, 150799, Note_on_c, 0, 75, 78
2, 150817, Control_c, 0, 64, 12
2, 150826, Note_on_c, 0, 55, 0
2, 150829, Note_on_c, 0, 56, 69
2, 150840, Control_c, 0, 64, 24
2, 150851, Note_on_c, 0, 76, 0
2, 150856, Control_c, 0, 64, 37
2, 150870, Control_c, 0, 64, 49
2, 150885, Control_c, 0, 64, 57
2, 150901, Control_c, 0, 64, 63
2, 150915, Control_c, 0, 64, 67
2, 150915, Note_on_c, 0, 73, 82
2, 150925, Note_on_c, 0, 56, 0
2, 150928, Note_on_c, 0, 75, 0
2, 150930, Control_c, 0, 64, 73
2, 150931, Note_on_c, 0, 58, 69
2, 150946, Control_c, 0, 64, 78
2, 150961, Control_c, 0, 64, 79
2, 150977, Control_c, 0, 64, 78
2, 150991, Control_c, 0, 64, 77
2, 151006, Control_c, 0, 64, 76
2, 151008, Note_on_c, 0, 55, 73
2, 151008, Note_on_c, 0, 58, 0
2, 151017, Note_on_c, 0, 75, 89
2, 151022, Control_c, 0, 64, 76
2, 151036, Note_on_c, 0, 73, 0
2, 151043, Note_on_c, 0, 55, 0
2, 151052, Control_c, 0, 64, 75
2, 151067, Control_c, 0, 64, 74
2, 151082, Control_c, 0, 64, 72
2, 151090, Note_on_c, 0, 75, 0
2, 151098, Control_c, 0, 64, 70
2, 151113, Control_c, 0, 64, 67
2, 151124, Note_on_c, 0, 76, 81
2, 151127, Control_c, 0, 64, 64
2, 151130, Note_on_c, 0, 51, 70
2, 151143, Control_c, 0, 64, 62
2, 151158, Control_c, 0, 64, 59
2, 151173, Control_c, 0, 64, 52
2, 151189, Control_c, 0, 64, 44
2, 151204, Control_c, 0, 64, 35
2, 151220, Control_c, 0, 64, 29
2, 151228, Note_on_c, 0, 79, 84
2, 151234, Control_c, 0, 64, 27
2, 151236, Note_on_c, 0, 49, 63
2, 151249, Control_c, 0, 64, 26
2, 151311, Control_c, 0, 64, 27
2, 151325, Control_c, 0, 64, 27
2, 151337, Note_on_c, 0, 80, 85
2, 151341, Control_c, 0, 64, 28
2, 151345, Note_on_c, 0, 48, 70
2, 151357, Note_on_c, 0, 79, 0
2, 151395, Note_on_c, 0, 76, 0
2, 151437, Note_on_c, 0, 49, 0
2, 151441, Note_on_c, 0, 82, 84
2, 151459, Note_on_c, 0, 46, 69
2, 151459, Note_on_c, 0, 80, 0
2, 151469, Note_on_c, 0, 48, 0
2, 151585, Note_on_c, 0, 51, 0
2, 151588, Note_on_c, 0, 73, 79
2, 151605, Note_on_c, 0, 44, 66
2, 151614, Note_on_c, 0, 46, 0
2, 151625, Note_on_c, 0, 82, 0
2, 151729, Note_on_c, 0, 72, 80
2, 151731, Note_on_c, 0, 51, 68
2, 151733, Note_on_c, 0, 73, 0
2, 151759, Control_c, 0, 64, 28
2, 151817, Note_on_c, 0, 44, 0
2, 151837, Note_on_c, 0, 51, 0
2, 151837, Note_on_c, 0, 53, 71
2, 151850, Control_c, 0, 64, 29
2, 151850, Note_on_c, 0, 70, 84
2, 151870, Note_on_c, 0, 72, 0
2, 151941, Note_on_c, 0, 54, 80
2, 151942, Note_on_c, 0, 68, 85
2, 151948, Note_on_c, 0, 53, 0
2, 151981, Note_on_c, 0, 70, 0
2, 152046, Note_on_c, 0, 56, 75
2, 152047, Note_on_c, 0, 54, 0
2, 152050, Note_on_c, 0, 75, 88
2, 152054, Note_on_c, 0, 68, 0
2, 152098, Note_on_c, 0, 75, 0
2, 152153, Note_on_c, 0, 58, 76
2, 152173, Note_on_c, 0, 56, 0
2, 152264, Note_on_c, 0, 60, 72
2, 152277, Note_on_c, 0, 58, 0
2, 152284, Note_on_c, 0, 66, 83
2, 152340, Note_on_c, 0, 66, 0
2, 152380, Note_on_c, 0, 56, 72
2, 152387, Note_on_c, 0, 60, 0
2, 152436, Control_c, 0, 64, 29
2, 152482, Control_c, 0, 64, 30
2, 152527, Control_c, 0, 64, 30
2, 152530, Note_on_c, 0, 65, 85
2, 152543, Note_on_c, 0, 61, 73
2, 152557, Note_on_c, 0, 56, 0
2, 152677, Note_on_c, 0, 61, 0
2, 152821, Note_on_c, 0, 73, 87
2, 152823, Note_on_c, 0, 41, 74
2, 152826, Note_on_c, 0, 61, 72
2, 152827, Note_on_c, 0, 68, 77
2, 152843, Note_on_c, 0, 65, 0
2, 152863, Note_on_c, 0, 61, 0
2, 152873, Note_on_c, 0, 68, 0
2, 152882, Note_on_c, 0, 41, 0
2, 152896, Note_on_c, 0, 73, 0
2, 152922, Control_c, 0, 64, 28
2, 152938, Control_c, 0, 64, 25
2, 152953, Control_c, 0, 64, 21
2, 152968, Control_c, 0, 64, 13
2, 152983, Control_c, 0, 64, 0
2, 153125, Note_on_c, 0, 42, 76
2, 153128, Note_on_c, 0, 70, 89
2, 153132, Note_on_c, 0, 63, 72
2, 153136, Note_on_c, 0, 66, 72
2, 153191, Note_on_c, 0, 66, 0
2, 153218, Note_on_c, 0, 42, 0
2, 153226, Note_on_c, 0, 70, 0
2, 153296, Control_c, 0, 64, 9
2, 153310, Control_c, 0, 64, 11
2, 153325, Control_c, 0, 64, 12
2, 153356, Control_c, 0, 64, 13
2, 153386, Control_c, 0, 64, 15
2, 153401, Control_c, 0, 64, 16
2, 153417, Control_c, 0, 64, 17
2, 153446, Control_c, 0, 64, 17
2, 153487, Note_on_c, 0, 63, 0
2, 153487, Note_on_c, 0, 63, 41
2, 153490, Note_on_c, 0, 72, 90
2, 153500, Note_on_c, 0, 66, 72
2, 153503, Note_on_c, 0, 44, 78
2, 153504, Note_on_c, 0, 68, 74
2, 153508, Control_c, 0, 64, 18
2, 153596, Note_on_c, 0, 66, 0
2, 153598, Note_on_c, 0, 44, 0
2, 153598, Note_on_c, 0, 72, 0
2, 153605, Note_on_c, 0, 68, 0
2, 153705, Control_c, 0, 64, 19
2, 153751, Control_c, 0, 64, 20
2, 153766, Control_c, 0, 64, 21
2, 153781, Control_c, 0, 64, 21
2, 153796, Control_c, 0, 64, 22
2, 153842, Control_c, 0, 64, 23
2, 153854, Note_on_c, 0, 63, 0
2, 153941, Control_c, 0, 64, 23
2, 153955, Control_c, 0, 64, 24
2, 153970, Control_c, 0, 64, 25
2, 153993, Note_on_c, 0, 73, 89
2, 153997, Note_on_c, 0, 37, 73
2, 153999, Note_on_c, 0, 61, 82
2, 154001, Control_c, 0, 64, 25
2, 154008, Note_on_c, 0, 65, 72
2, 154009, Note_on_c, 0, 68, 73
2, 154017, Control_c, 0, 64, 26
2, 154047, Control_c, 0, 64, 26
2, 154064, Control_c, 0, 64, 27
2, 154093, Control_c, 0, 64, 27
2, 154291, Control_c, 0, 64, 28
2, 154307, Control_c, 0, 64, 28
2, 154322, Control_c, 0, 64, 29
2, 154338, Control_c, 0, 64, 29
2, 154368, Control_c, 0, 64, 30
2, 154398, Control_c, 0, 64, 30
2, 154443, Control_c, 0, 64, 31
2, 154474, Control_c, 0, 64, 31
2, 154580, Control_c, 0, 64, 32
2, 154908, Control_c, 0, 64, 32
2, 154938, Control_c, 0, 64, 33
2, 154953, Control_c, 0, 64, 33
2, 154984, Control_c, 0, 64, 34
2, 155001, Control_c, 0, 64, 34
2, 155031, Control_c, 0, 64, 35
2, 155046, Control_c, 0, 64, 35
2, 155062, Control_c, 0, 64, 36
2, 155076, Control_c, 0, 64, 36
2, 155109, Control_c, 0, 64, 37
2, 155125, Control_c, 0, 64, 38
2, 155140, Control_c, 0, 64, 40
2, 155155, Control_c, 0, 64, 41
2, 155171, Control_c, 0, 64, 43
2, 155186, Control_c, 0, 64, 44
2, 155201, Control_c, 0, 64, 46
2, 155217, Control_c, 0, 64, 49
2, 155231, Control_c, 0, 64, 51
2, 155247, Control_c, 0, 64, 54
2, 155262, Control_c, 0, 64, 56
2, 155276, Control_c, 0, 64, 59
2, 155292, Control_c, 0, 64, 62
2, 155307, Control_c, 0, 64, 65
2, 155323, Control_c, 0, 64, 69
2, 155338, Control_c, 0, 64, 76
2, 155352, Control_c, 0, 64, 88
2, 155368, Control_c, 0, 64, 107
2, 155383, Control_c, 0, 64, 127
2, 155458, Note_on_c, 0, 61, 0
2, 155497, Note_on_c, 0, 73, 0
2, 155499, Note_on_c, 0, 65, 0
2, 155523, Note_on_c, 0, 68, 0
2, 155540, Note_on_c, 0, 37, 0
2, 155847, Control_c, 0, 64, 119
2, 155862, Control_c, 0, 64, 116
2, 155877, Control_c, 0, 64, 113
2, 155893, Control_c, 0, 64, 113
2, 155907, Control_c, 0, 64, 111
2, 155923, Control_c, 0, 64, 110
2, 155938, Control_c, 0, 64, 108
2, 155953, Control_c, 0, 64, 106
2, 155969, Control_c, 0, 64, 104
2, 155984, Control_c, 0, 64, 103
2, 155999, Control_c, 0, 64, 101
2, 156015, Control_c, 0, 64, 100
2, 156029, Control_c, 0, 64, 99
2, 156060, Control_c, 0, 64, 98
2, 156075, Control_c, 0, 64, 97
2, 156091, Control_c, 0, 64, 96
2, 156106, Control_c, 0, 64, 94
2, 156120, Control_c, 0, 64, 92
2, 156136, Control_c, 0, 64, 91
2, 156151, Control_c, 0, 64, 90
2, 156167, Control_c, 0, 64, 88
2, 156182, Control_c, 0, 64, 86
2, 156196, Control_c, 0, 64, 82
2, 156212, Control_c, 0, 64, 77
2, 156234, Control_c, 0, 64, 72
2, 156250, Control_c, 0, 64, 67
2, 156265, Control_c, 0, 64, 64
2, 156280, Control_c, 0, 64, 60
2, 156296, Control_c, 0, 64, 58
2, 156311, Control_c, 0, 64, 57
2, 156326, Control_c, 0, 64, 54
2, 156341, Control_c, 0, 64, 51
2, 156356, Control_c, 0, 64, 47
2, 156372, Control_c, 0, 64, 43
2, 156387, Control_c, 0, 64, 39
2, 156401, Control_c, 0, 64, 36
2, 156417, Control_c, 0, 64, 35
2, 156447, Control_c, 0, 64, 35
2, 156616, Control_c, 0, 64, 35
2, 156661, Control_c, 0, 64, 36
2, 156675, Control_c, 0, 64, 36
2, 156721, Control_c, 0, 64, 37
2, 156782, Control_c, 0, 64, 37
2, 156843, Control_c, 0, 64, 38
2, 156844, End_track
0, 0, End_of_file
