0, 0, Header, 1, 2, 384
1, 0, Start_track
1, 0, Tempo, 500000
1, 0, Time_signature, 4, 2, 24, 8
1, 1, End_track
2, 0, Start_track
2, 0, Program_c, 0, 0
2, 0, Control_c, 0, 64, 33
2, 134, Control_c, 0, 64, 34
2, 476, Control_c, 0, 64, 34
2, 750, Note_on_c, 0, 77, 62
2, 755, Note_on_c, 0, 49, 40
2, 847, Note_on_c, 0, 77, 0
2, 852, Note_on_c, 0, 73, 57
2, 928, Note_on_c, 0, 73, 0
2, 938, Note_on_c, 0, 49, 0
2, 940, Note_on_c, 0, 68, 55
2, 1007, Note_on_c, 0, 73, 51
2, 1015, Note_on_c, 0, 68, 0
2, 1025, Control_c, 0, 64, 33
2, 1041, Control_c, 0, 64, 33
2, 1056, Control_c, 0, 64, 31
2, 1071, Control_c, 0, 64, 28
2, 1093, Control_c, 0, 64, 22
2, 1103, Note_on_c, 0, 73, 0
2, 1108, Control_c, 0, 64, 0
2, 1111, Note_on_c, 0, 77, 66
2, 1118, Note_on_c, 0, 61, 61
2, 1151, Note_on_c, 0, 61, 0
2, 1187, Note_on_c, 0, 77, 0
2, 1189, Note_on_c, 0, 73, 55
2, 1273, Note_on_c, 0, 73, 0
2, 1281, Note_on_c, 0, 51, 59
2, 1282, Note_on_c, 0, 78, 59
2, 1362, Note_on_c, 0, 78, 0
2, 1366, Note_on_c, 0, 73, 51
2, 1423, Note_on_c, 0, 51, 0
2, 1439, Note_on_c, 0, 73, 0
2, 1445, Note_on_c, 0, 78, 64
2, 1514, Note_on_c, 0, 78, 0
2, 1525, Note_on_c, 0, 73, 62
2, 1601, Note_on_c, 0, 73, 0
2, 1609, Note_on_c, 0, 78, 70
2, 1615, Note_on_c, 0, 61, 62
2, 1648, Note_on_c, 0, 61, 0
2, 1666, Note_on_c, 0, 78, 0
2, 1690, Note_on_c, 0, 73, 65
2, 1757, Note_on_c, 0, 73, 0
2, 1767, Note_on_c, 0, 80, 75
2, 1779, Note_on_c, 0, 53, 66
2, 1836, Note_on_c, 0, 80, 0
2, 1861, Note_on_c, 0, 73, 67
2, 1926, Note_on_c, 0, 73, 0
2, 1938, Note_on_c, 0, 80, 76
2, 1949, Note_on_c, 0, 53, 0
2, 1995, Note_on_c, 0, 80, 0
2, 2009, Note_on_c, 0, 73, 72
2, 2085, Note_on_c, 0, 73, 0
2, 2096, Note_on_c, 0, 80, 81
2, 2118, Note_on_c, 0, 61, 69
2, 2149, Note_on_c, 0, 61, 0
2, 2153, Note_on_c, 0, 80, 0
2, 2175, Note_on_c, 0, 73, 75
2, 2242, Note_on_c, 0, 73, 0
2, 2262, Note_on_c, 0, 82, 81
2, 2274, Note_on_c, 0, 54, 66
2, 2329, Note_on_c, 0, 82, 0
2, 2348, Note_on_c, 0, 73, 73
2, 2411, Note_on_c, 0, 73, 0
2, 2430, Note_on_c, 0, 82, 83
2, 2449, Note_on_c, 0, 54, 0
2, 2489, Note_on_c, 0, 82, 0
2, 2514, Note_on_c, 0, 73, 74
2, 2572, Note_on_c, 0, 73, 0
2, 2595, Note_on_c, 0, 82, 81
2, 2625, Note_on_c, 0, 61, 68
2, 2656, Note_on_c, 0, 61, 0
2, 2666, Note_on_c, 0, 82, 0
2, 2684, Note_on_c, 0, 73, 73
2, 2741, Note_on_c, 0, 73, 0
2, 2773, Note_on_c, 0, 80, 71
2, 2777, Note_on_c, 0, 53, 62
2, 2841, Note_on_c, 0, 80, 0
2, 2853, Note_on_c, 0, 73, 67
2, 2924, Note_on_c, 0, 73, 0
2, 2933, Note_on_c, 0, 53, 0
2, 2943, Note_on_c, 0, 80, 70
2, 3011, Note_on_c, 0, 80, 0
2, 3021, Note_on_c, 0, 73, 69
2, 3082, Note_on_c, 0, 73, 0
2, 3114, Note_on_c, 0, 80, 71
2, 3119, Note_on_c, 0, 61, 62
2, 3151, Note_on_c, 0, 61, 0
2, 3175, Note_on_c, 0, 80, 0
2, 3190, Note_on_c, 0, 73, 65
2, 3255, Note_on_c, 0, 73, 0
2, 3272, Note_on_c, 0, 78, 65
2, 3281, Note_on_c, 0, 51, 58
2, 3358, Note_on_c, 0, 77, 62
2, 3367, Note_on_c, 0, 78, 0
2, 3432, Note_on_c, 0, 51, 0
2, 3448, Note_on_c, 0, 77, 0
2, 3449, Note_on_c, 0, 75, 62
2, 3523, Note_on_c, 0, 77, 61
2, 3526, Note_on_c, 0, 75, 0
2, 3612, Note_on_c, 0, 78, 65
2, 3618, Note_on_c, 0, 77, 0
2, 3629, Note_on_c, 0, 60, 53
2, 3658, Note_on_c, 0, 60, 0
2, 3684, Note_on_c, 0, 78, 0
2, 3695, Note_on_c, 0, 75, 58
2, 3752, Note_on_c, 0, 75, 0
2, 3777, Note_on_c, 0, 77, 63
2, 3782, Note_on_c, 0, 49, 54
2, 3857, Note_on_c, 0, 77, 0
2, 3872, Note_on_c, 0, 75, 64
2, 3919, Note_on_c, 0, 49, 0
2, 3944, Note_on_c, 0, 75, 0
2, 3949, Note_on_c, 0, 73, 64
2, 4031, Note_on_c, 0, 73, 0
2, 4031, Note_on_c, 0, 75, 66
2, 4115, Note_on_c, 0, 75, 0
2, 4127, Note_on_c, 0, 77, 66
2, 4132, Note_on_c, 0, 61, 66
2, 4218, Note_on_c, 0, 77, 0
2, 4223, Note_on_c, 0, 73, 63
2, 4309, Note_on_c, 0, 75, 67
2, 4313, Note_on_c, 0, 73, 0
2, 4385, Note_on_c, 0, 75, 0
2, 4387, Note_on_c, 0, 77, 70
2, 4464, Note_on_c, 0, 61, 0
2, 4471, Note_on_c, 0, 75, 61
2, 4478, Note_on_c, 0, 77, 0
2, 4490, Note_on_c, 0, 60, 58
2, 4553, Note_on_c, 0, 73, 65
2, 4562, Note_on_c, 0, 75, 0
2, 4570, Note_on_c, 0, 60, 0
2, 4576, Note_on_c, 0, 58, 59
2, 4609, Note_on_c, 0, 73, 0
2, 4635, Note_on_c, 0, 72, 60
2, 4642, Note_on_c, 0, 58, 0
2, 4652, Note_on_c, 0, 56, 60
2, 4694, Note_on_c, 0, 72, 0
2, 4713, Note_on_c, 0, 70, 65
2, 4723, Note_on_c, 0, 56, 0
2, 4734, Note_on_c, 0, 58, 57
2, 4785, Note_on_c, 0, 58, 0
2, 4799, Note_on_c, 0, 70, 0
2, 4806, Note_on_c, 0, 68, 65
2, 4813, Note_on_c, 0, 60, 59
2, 4884, Note_on_c, 0, 60, 0
2, 4888, Note_on_c, 0, 56, 56
2, 4966, Note_on_c, 0, 56, 0
2, 4980, Note_on_c, 0, 51, 57
2, 4997, Note_on_c, 0, 68, 0
2, 5039, Note_on_c, 0, 51, 0
2, 5050, Note_on_c, 0, 56, 53
2, 5121, Note_on_c, 0, 56, 0
2, 5136, Note_on_c, 0, 80, 70
2, 5144, Note_on_c, 0, 60, 61
2, 5164, Note_on_c, 0, 80, 0
2, 5190, Note_on_c, 0, 60, 0
2, 5217, Note_on_c, 0, 56, 50
2, 5282, Note_on_c, 0, 56, 0
2, 5301, Note_on_c, 0, 70, 73
2, 5309, Note_on_c, 0, 61, 59
2, 5371, Note_on_c, 0, 61, 0
2, 5394, Note_on_c, 0, 56, 60
2, 5458, Note_on_c, 0, 56, 0
2, 5481, Note_on_c, 0, 61, 63
2, 5498, Note_on_c, 0, 70, 0
2, 5534, Note_on_c, 0, 61, 0
2, 5554, Note_on_c, 0, 56, 66
2, 5625, Note_on_c, 0, 56, 0
2, 5642, Note_on_c, 0, 61, 66
2, 5647, Note_on_c, 0, 80, 72
2, 5671, Note_on_c, 0, 80, 0
2, 5696, Note_on_c, 0, 61, 0
2, 5722, Note_on_c, 0, 56, 57
2, 5797, Note_on_c, 0, 56, 0
2, 5817, Note_on_c, 0, 63, 65
2, 5825, Note_on_c, 0, 72, 74
2, 5881, Note_on_c, 0, 63, 0
2, 5903, Note_on_c, 0, 56, 66
2, 5973, Note_on_c, 0, 56, 0
2, 5989, Note_on_c, 0, 63, 67
2, 5989, Note_on_c, 0, 72, 0
2, 6051, Note_on_c, 0, 63, 0
2, 6068, Note_on_c, 0, 56, 69
2, 6142, Note_on_c, 0, 56, 0
2, 6156, Note_on_c, 0, 63, 70
2, 6156, Note_on_c, 0, 80, 75
2, 6192, Note_on_c, 0, 80, 0
2, 6224, Note_on_c, 0, 63, 0
2, 6232, Note_on_c, 0, 56, 67
2, 6319, Note_on_c, 0, 56, 0
2, 6329, Note_on_c, 0, 73, 76
2, 6333, Note_on_c, 0, 65, 68
2, 6420, Note_on_c, 0, 65, 0
2, 6422, Note_on_c, 0, 56, 70
2, 6496, Note_on_c, 0, 56, 0
2, 6510, Note_on_c, 0, 65, 73
2, 6545, Note_on_c, 0, 73, 0
2, 6584, Note_on_c, 0, 65, 0
2, 6588, Note_on_c, 0, 56, 73
2, 6662, Note_on_c, 0, 56, 0
2, 6666, Note_on_c, 0, 65, 74
2, 6686, Note_on_c, 0, 80, 75
2, 6710, Note_on_c, 0, 80, 0
2, 6731, Note_on_c, 0, 65, 0
2, 6745, Note_on_c, 0, 56, 70
2, 6831, Note_on_c, 0, 56, 0
2, 6838, Note_on_c, 0, 63, 69
2, 6849, Note_on_c, 0, 72, 74
2, 6916, Note_on_c, 0, 56, 65
2, 6916, Note_on_c, 0, 63, 0
2, 6997, Note_on_c, 0, 56, 0
2, 7004, Note_on_c, 0, 72, 0
2, 7005, Note_on_c, 0, 63, 65
2, 7077, Note_on_c, 0, 63, 0
2, 7084, Note_on_c, 0, 56, 65
2, 7157, Note_on_c, 0, 56, 0
2, 7170, Note_on_c, 0, 80, 70
2, 7172, Note_on_c, 0, 63, 63
2, 7198, Note_on_c, 0, 80, 0
2, 7236, Note_on_c, 0, 63, 0
2, 7246, Note_on_c, 0, 56, 59
2, 7342, Note_on_c, 0, 61, 64
2, 7352, Note_on_c, 0, 70, 68
2, 7361, Note_on_c, 0, 56, 0
2, 7408, Note_on_c, 0, 61, 0
2, 7432, Note_on_c, 0, 60, 63
2, 7509, Note_on_c, 0, 60, 0
2, 7513, Note_on_c, 0, 58, 62
2, 7530, Note_on_c, 0, 70, 0
2, 7576, Note_on_c, 0, 58, 0
2, 7594, Note_on_c, 0, 60, 58
2, 7655, Note_on_c, 0, 60, 0
2, 7670, Note_on_c, 0, 61, 63
2, 7673, Note_on_c, 0, 79, 70
2, 7699, Note_on_c, 0, 79, 0
2, 7751, Note_on_c, 0, 61, 0
2, 7760, Note_on_c, 0, 58, 63
2, 7809, Note_on_c, 0, 58, 0
2, 7845, Note_on_c, 0, 68, 65
2, 7854, Note_on_c, 0, 60, 61
2, 7922, Note_on_c, 0, 60, 0
2, 7937, Note_on_c, 0, 58, 60
2, 8015, Note_on_c, 0, 58, 0
2, 8025, Note_on_c, 0, 68, 0
2, 8026, Note_on_c, 0, 56, 62
2, 8111, Note_on_c, 0, 56, 0
2, 8119, Note_on_c, 0, 58, 62
2, 8181, Note_on_c, 0, 58, 0
2, 8193, Note_on_c, 0, 80, 76
2, 8197, Note_on_c, 0, 60, 61
2, 8271, Note_on_c, 0, 60, 0
2, 8278, Note_on_c, 0, 56, 53
2, 8366, Note_on_c, 0, 56, 0
2, 8369, Note_on_c, 0, 58, 58
2, 8440, Note_on_c, 0, 58, 0
2, 8462, Note_on_c, 0, 59, 53
2, 8474, Control_c, 0, 67, 15
2, 8490, Control_c, 0, 67, 29
2, 8505, Control_c, 0, 67, 43
2, 8520, Control_c, 0, 67, 53
2, 8524, Note_on_c, 0, 59, 0
2, 8535, Control_c, 0, 67, 62
2, 8548, Note_on_c, 0, 78, 64
2, 8550, Control_c, 0, 67, 69
2, 8566, Control_c, 0, 67, 75
2, 8567, Note_on_c, 0, 58, 51
2, 8573, Note_on_c, 0, 80, 0
2, 8580, Control_c, 0, 67, 83
2, 8595, Control_c, 0, 67, 93
2, 8611, Control_c, 0, 67, 102
2, 8614, Note_on_c, 0, 58, 0
2, 8626, Control_c, 0, 67, 116
2, 8633, Note_on_c, 0, 77, 66
2, 8636, Note_on_c, 0, 56, 52
2, 8641, Control_c, 0, 67, 127
2, 8649, Note_on_c, 0, 78, 0
2, 8706, Note_on_c, 0, 77, 0
2, 8720, Note_on_c, 0, 75, 62
2, 8729, Note_on_c, 0, 54, 44
2, 8729, Note_on_c, 0, 56, 0
2, 8770, Note_on_c, 0, 54, 0
2, 8795, Note_on_c, 0, 75, 0
2, 8801, Note_on_c, 0, 77, 62
2, 8808, Note_on_c, 0, 53, 48
2, 8880, Note_on_c, 0, 77, 0
2, 8888, Note_on_c, 0, 53, 0
2, 8904, Note_on_c, 0, 78, 60
2, 8911, Note_on_c, 0, 51, 52
2, 8976, Note_on_c, 0, 78, 0
2, 8997, Note_on_c, 0, 75, 56
2, 9050, Note_on_c, 0, 75, 0
2, 9060, Note_on_c, 0, 51, 0
2, 9079, Note_on_c, 0, 70, 53
2, 9146, Note_on_c, 0, 70, 0
2, 9174, Note_on_c, 0, 75, 49
2, 9226, Note_on_c, 0, 75, 0
2, 9247, Note_on_c, 0, 78, 53
2, 9251, Note_on_c, 0, 63, 53
2, 9276, Note_on_c, 0, 63, 0
2, 9296, Note_on_c, 0, 78, 0
2, 9330, Note_on_c, 0, 75, 53
2, 9382, Note_on_c, 0, 75, 0
2, 9410, Note_on_c, 0, 80, 58
2, 9419, Note_on_c, 0, 53, 53
2, 9478, Note_on_c, 0, 80, 0
2, 9496, Note_on_c, 0, 75, 60
2, 9560, Note_on_c, 0, 53, 0
2, 9566, Note_on_c, 0, 75, 0
2, 9597, Note_on_c, 0, 80, 64
2, 9648, Note_on_c, 0, 80, 0
2, 9679, Note_on_c, 0, 75, 55
2, 9734, Note_on_c, 0, 75, 0
2, 9752, Note_on_c, 0, 80, 66
2, 9768, Note_on_c, 0, 63, 53
2, 9792, Note_on_c, 0, 63, 0
2, 9795, Note_on_c, 0, 80, 0
2, 9844, Note_on_c, 0, 75, 58
2, 9896, Note_on_c, 0, 75, 0
2, 9925, Note_on_c, 0, 82, 65
2, 9932, Note_on_c, 0, 54, 57
2, 9987, Note_on_c, 0, 82, 0
2, 10013, Note_on_c, 0, 75, 60
2, 10078, Note_on_c, 0, 75, 0
2, 10081, Note_on_c, 0, 54, 0
2, 10098, Note_on_c, 0, 82, 68
2, 10147, Note_on_c, 0, 82, 0
2, 10176, Note_on_c, 0, 75, 62
2, 10230, Note_on_c, 0, 75, 0
2, 10259, Note_on_c, 0, 82, 69
2, 10268, Note_on_c, 0, 63, 59
2, 10305, Note_on_c, 0, 63, 0
2, 10322, Note_on_c, 0, 82, 0
2, 10346, Note_on_c, 0, 75, 64
2, 10407, Note_on_c, 0, 75, 0
2, 10433, Note_on_c, 0, 83, 64
2, 10434, Note_on_c, 0, 56, 58
2, 10488, Note_on_c, 0, 83, 0
2, 10513, Note_on_c, 0, 75, 65
2, 10570, Note_on_c, 0, 75, 0
2, 10598, Note_on_c, 0, 56, 0
2, 10599, Note_on_c, 0, 83, 70
2, 10657, Note_on_c, 0, 83, 0
2, 10676, Note_on_c, 0, 75, 67
2, 10734, Note_on_c, 0, 75, 0
2, 10771, Note_on_c, 0, 83, 65
2, 10783, Note_on_c, 0, 63, 54
2, 10801, Note_on_c, 0, 83, 0
2, 10806, Note_on_c, 0, 63, 0
2, 10841, Note_on_c, 0, 75, 67
2, 10905, Note_on_c, 0, 75, 0
2, 10935, Note_on_c, 0, 82, 64
2, 10950, Note_on_c, 0, 54, 51
2, 10985, Note_on_c, 0, 82, 0
2, 11019, Note_on_c, 0, 75, 62
2, 11075, Note_on_c, 0, 54, 0
2, 11089, Note_on_c, 0, 75, 0
2, 11109, Note_on_c, 0, 82, 64
2, 11165, Note_on_c, 0, 82, 0
2, 11198, Note_on_c, 0, 75, 61
2, 11245, Note_on_c, 0, 75, 0
2, 11277, Note_on_c, 0, 63, 59
2, 11281, Note_on_c, 0, 82, 62
2, 11315, Note_on_c, 0, 63, 0
2, 11347, Note_on_c, 0, 82, 0
2, 11354, Note_on_c, 0, 75, 62
2, 11415, Note_on_c, 0, 75, 0
2, 11437, Note_on_c, 0, 80, 59
2, 11460, Note_on_c, 0, 53, 53
2, 11527, Note_on_c, 0, 78, 59
2, 11547, Note_on_c, 0, 80, 0
2, 11579, Note_on_c, 0, 53, 0
2, 11594, Note_on_c, 0, 78, 0
2, 11602, Note_on_c, 0, 77, 61
2, 11688, Note_on_c, 0, 77, 0
2, 11697, Note_on_c, 0, 78, 59
2, 11761, Note_on_c, 0, 78, 0
2, 11775, Note_on_c, 0, 80, 61
2, 11788, Note_on_c, 0, 62, 54
2, 11821, Note_on_c, 0, 62, 0
2, 11853, Note_on_c, 0, 80, 0
2, 11864, Note_on_c, 0, 77, 67
2, 11950, Note_on_c, 0, 77, 0
2, 11959, Note_on_c, 0, 51, 63
2, 11961, Note_on_c, 0, 78, 58
2, 12046, Note_on_c, 0, 77, 58
2, 12046, Note_on_c, 0, 78, 0
2, 12087, Note_on_c, 0, 51, 0
2, 12102, Note_on_c, 0, 77, 0
2, 12128, Note_on_c, 0, 75, 63
2, 12188, Note_on_c, 0, 75, 0
2, 12208, Note_on_c, 0, 77, 67
2, 12293, Note_on_c, 0, 77, 0
2, 12300, Note_on_c, 0, 78, 58
2, 12308, Note_on_c, 0, 63, 65
2, 12345, Note_on_c, 0, 78, 0
2, 12382, Note_on_c, 0, 75, 59
2, 12456, Note_on_c, 0, 75, 0
2, 12480, Note_on_c, 0, 77, 62
2, 12549, Note_on_c, 0, 77, 0
2, 12556, Note_on_c, 0, 78, 68
2, 12632, Note_on_c, 0, 63, 0
2, 12644, Note_on_c, 0, 61, 57
2, 12650, Note_on_c, 0, 78, 0
2, 12655, Note_on_c, 0, 77, 63
2, 12725, Note_on_c, 0, 61, 0
2, 12733, Note_on_c, 0, 75, 69
2, 12743, Note_on_c, 0, 60, 55
2, 12755, Note_on_c, 0, 77, 0
2, 12793, Note_on_c, 0, 60, 0
2, 12809, Note_on_c, 0, 73, 67
2, 12819, Note_on_c, 0, 58, 59
2, 12822, Note_on_c, 0, 75, 0
2, 12865, Note_on_c, 0, 58, 0
2, 12867, Note_on_c, 0, 73, 0
2, 12895, Note_on_c, 0, 72, 63
2, 12907, Note_on_c, 0, 60, 58
2, 12946, Note_on_c, 0, 60, 0
2, 12956, Note_on_c, 0, 72, 0
2, 12977, Note_on_c, 0, 70, 62
2, 12981, Note_on_c, 0, 61, 54
2, 13035, Note_on_c, 0, 61, 0
2, 13061, Note_on_c, 0, 58, 56
2, 13110, Note_on_c, 0, 58, 0
2, 13146, Note_on_c, 0, 53, 52
2, 13152, Note_on_c, 0, 70, 0
2, 13207, Note_on_c, 0, 53, 0
2, 13237, Note_on_c, 0, 58, 50
2, 13281, Note_on_c, 0, 58, 0
2, 13308, Note_on_c, 0, 61, 54
2, 13310, Note_on_c, 0, 82, 63
2, 13342, Note_on_c, 0, 82, 0
2, 13357, Note_on_c, 0, 61, 0
2, 13385, Note_on_c, 0, 58, 56
2, 13448, Note_on_c, 0, 58, 0
2, 13488, Note_on_c, 0, 72, 58
2, 13489, Note_on_c, 0, 63, 54
2, 13553, Note_on_c, 0, 63, 0
2, 13572, Note_on_c, 0, 58, 53
2, 13632, Note_on_c, 0, 58, 0
2, 13677, Note_on_c, 0, 72, 0
2, 13679, Note_on_c, 0, 63, 50
2, 13725, Note_on_c, 0, 63, 0
2, 13751, Note_on_c, 0, 58, 57
2, 13793, Note_on_c, 0, 58, 0
2, 13819, Note_on_c, 0, 63, 58
2, 13831, Note_on_c, 0, 82, 68
2, 13861, Note_on_c, 0, 82, 0
2, 13879, Note_on_c, 0, 63, 0
2, 13894, Note_on_c, 0, 58, 57
2, 13966, Note_on_c, 0, 58, 0
2, 13992, Note_on_c, 0, 73, 66
2, 13995, Note_on_c, 0, 65, 60
2, 14067, Note_on_c, 0, 65, 0
2, 14081, Note_on_c, 0, 58, 61
2, 14160, Note_on_c, 0, 58, 0
2, 14180, Note_on_c, 0, 65, 64
2, 14195, Note_on_c, 0, 73, 0
2, 14248, Note_on_c, 0, 65, 0
2, 14269, Note_on_c, 0, 58, 63
2, 14328, Note_on_c, 0, 58, 0
2, 14347, Note_on_c, 0, 82, 75
2, 14351, Note_on_c, 0, 65, 63
2, 14372, Note_on_c, 0, 82, 0
2, 14405, Note_on_c, 0, 65, 0
2, 14438, Note_on_c, 0, 58, 63
2, 14509, Note_on_c, 0, 58, 0
2, 14517, Note_on_c, 0, 75, 73
2, 14518, Note_on_c, 0, 66, 64
2, 14602, Note_on_c, 0, 66, 0
2, 14614, Note_on_c, 0, 58, 61
2, 14682, Note_on_c, 0, 58, 0
2, 14684, Note_on_c, 0, 66, 65
2, 14727, Note_on_c, 0, 75, 0
2, 14758, Note_on_c, 0, 66, 0
2, 14767, Note_on_c, 0, 58, 63
2, 14844, Note_on_c, 0, 58, 0
2, 14855, Note_on_c, 0, 66, 65
2, 14860, Note_on_c, 0, 82, 76
2, 14886, Note_on_c, 0, 82, 0
2, 14946, Note_on_c, 0, 66, 0
2, 14947, Note_on_c, 0, 58, 61
2, 15025, Note_on_c, 0, 58, 0
2, 15029, Note_on_c, 0, 73, 78
2, 15032, Note_on_c, 0, 65, 67
2, 15128, Note_on_c, 0, 65, 0
2, 15134, Note_on_c, 0, 58, 62
2, 15197, Note_on_c, 0, 58, 0
2, 15213, Note_on_c, 0, 65, 57
2, 15230, Note_on_c, 0, 73, 0
2, 15280, Note_on_c, 0, 65, 0
2, 15301, Note_on_c, 0, 58, 67
2, 15352, Note_on_c, 0, 58, 0
2, 15381, Note_on_c, 0, 82, 79
2, 15389, Note_on_c, 0, 65, 64
2, 15407, Note_on_c, 0, 82, 0
2, 15455, Note_on_c, 0, 65, 0
2, 15471, Note_on_c, 0, 58, 61
2, 15536, Note_on_c, 0, 63, 61
2, 15548, Note_on_c, 0, 72, 73
2, 15552, Note_on_c, 0, 58, 0
2, 15614, Control_c, 0, 67, 120
2, 15615, Note_on_c, 0, 61, 66
2, 15622, Note_on_c, 0, 63, 0
2, 15629, Control_c, 0, 67, 110
2, 15645, Control_c, 0, 67, 100
2, 15660, Control_c, 0, 67, 88
2, 15684, Control_c, 0, 67, 79
2, 15698, Control_c, 0, 67, 69
2, 15702, Note_on_c, 0, 61, 0
2, 15708, Note_on_c, 0, 72, 0
2, 15709, Note_on_c, 0, 60, 68
2, 15713, Control_c, 0, 67, 56
2, 15729, Control_c, 0, 67, 41
2, 15744, Control_c, 0, 67, 23
2, 15759, Control_c, 0, 67, 0
2, 15797, Note_on_c, 0, 60, 0
2, 15802, Note_on_c, 0, 61, 69
2, 15879, Note_on_c, 0, 61, 0
2, 15884, Note_on_c, 0, 81, 68
2, 15886, Note_on_c, 0, 63, 63
2, 15926, Note_on_c, 0, 81, 0
2, 15955, Note_on_c, 0, 63, 0
2, 15961, Note_on_c, 0, 60, 62
2, 16031, Note_on_c, 0, 60, 0
2, 16059, Note_on_c, 0, 61, 67
2, 16066, Note_on_c, 0, 70, 76
2, 16138, Note_on_c, 0, 61, 0
2, 16148, Note_on_c, 0, 60, 73
2, 16231, Note_on_c, 0, 58, 70
2, 16236, Note_on_c, 0, 60, 0
2, 16248, Note_on_c, 0, 70, 0
2, 16308, Note_on_c, 0, 60, 70
2, 16312, Note_on_c, 0, 58, 0
2, 16399, Note_on_c, 0, 61, 71
2, 16409, Note_on_c, 0, 60, 0
2, 16423, Note_on_c, 0, 82, 86
2, 16510, Note_on_c, 0, 58, 70
2, 16513, Note_on_c, 0, 61, 0
2, 16613, Note_on_c, 0, 64, 73
2, 16617, Note_on_c, 0, 58, 0
2, 16700, Note_on_c, 0, 64, 0
2, 16702, Note_on_c, 0, 62, 71
2, 16780, Note_on_c, 0, 60, 76
2, 16781, Note_on_c, 0, 62, 0
2, 16782, Note_on_c, 0, 80, 81
2, 16818, Note_on_c, 0, 82, 0
2, 16861, Note_on_c, 0, 60, 0
2, 16865, Note_on_c, 0, 62, 76
2, 16935, Note_on_c, 0, 62, 0
2, 16943, Note_on_c, 0, 79, 82
2, 16948, Note_on_c, 0, 64, 73
2, 16974, Note_on_c, 0, 80, 0
2, 16987, Note_on_c, 0, 79, 0
2, 17006, Note_on_c, 0, 64, 0
2, 17026, Note_on_c, 0, 60, 74
2, 17090, Note_on_c, 0, 60, 0
2, 17111, Note_on_c, 0, 80, 85
2, 17114, Note_on_c, 0, 65, 76
2, 17154, Note_on_c, 0, 80, 0
2, 17173, Note_on_c, 0, 65, 0
2, 17191, Note_on_c, 0, 64, 76
2, 17270, Note_on_c, 0, 64, 0
2, 17290, Note_on_c, 0, 65, 75
2, 17295, Note_on_c, 0, 68, 77
2, 17327, Note_on_c, 0, 68, 0
2, 17371, Note_on_c, 0, 65, 0
2, 17380, Note_on_c, 0, 67, 74
2, 17462, Note_on_c, 0, 80, 85
2, 17465, Note_on_c, 0, 67, 0
2, 17471, Note_on_c, 0, 65, 71
2, 17554, Note_on_c, 0, 63, 76
2, 17573, Note_on_c, 0, 65, 0
2, 17622, Note_on_c, 0, 63, 0
2, 17644, Note_on_c, 0, 62, 75
2, 17725, Note_on_c, 0, 62, 0
2, 17735, Note_on_c, 0, 60, 72
2, 17800, Note_on_c, 0, 60, 0
2, 17800, Note_on_c, 0, 78, 79
2, 17806, Note_on_c, 0, 58, 74
2, 17842, Note_on_c, 0, 80, 0
2, 17881, Note_on_c, 0, 58, 0
2, 17888, Note_on_c, 0, 60, 71
2, 17956, Note_on_c, 0, 60, 0
2, 17986, Note_on_c, 0, 62, 68
2, 17996, Note_on_c, 0, 77, 76
2, 18028, Note_on_c, 0, 78, 0
2, 18037, Note_on_c, 0, 77, 0
2, 18060, Note_on_c, 0, 62, 0
2, 18075, Note_on_c, 0, 58, 66
2, 18151, Note_on_c, 0, 58, 0
2, 18177, Note_on_c, 0, 78, 61
2, 18180, Note_on_c, 0, 63, 67
2, 18210, Note_on_c, 0, 63, 0
2, 18254, Note_on_c, 0, 78, 0
2, 18262, Note_on_c, 0, 77, 64
2, 18335, Note_on_c, 0, 77, 0
2, 18340, Note_on_c, 0, 51, 76
2, 18346, Note_on_c, 0, 75, 70
2, 18371, Note_on_c, 0, 51, 0
2, 18420, Note_on_c, 0, 75, 0
2, 18424, Note_on_c, 0, 77, 68
2, 18495, Note_on_c, 0, 77, 0
2, 18511, Note_on_c, 0, 78, 67
2, 18519, Note_on_c, 0, 63, 72
2, 18585, Note_on_c, 0, 78, 0
2, 18599, Note_on_c, 0, 75, 67
2, 18687, Note_on_c, 0, 75, 0
2, 18688, Note_on_c, 0, 81, 64
2, 18769, Note_on_c, 0, 79, 70
2, 18779, Note_on_c, 0, 81, 0
2, 18829, Note_on_c, 0, 79, 0
2, 18856, Note_on_c, 0, 77, 76
2, 18866, Note_on_c, 0, 61, 72
2, 18869, Note_on_c, 0, 63, 0
2, 18931, Note_on_c, 0, 77, 0
2, 18938, Note_on_c, 0, 79, 77
2, 19010, Note_on_c, 0, 79, 0
2, 19021, Note_on_c, 0, 81, 68
2, 19025, Note_on_c, 0, 61, 0
2, 19028, Note_on_c, 0, 60, 72
2, 19056, Note_on_c, 0, 81, 0
2, 19059, Note_on_c, 0, 60, 0
2, 19099, Note_on_c, 0, 77, 75
2, 19171, Note_on_c, 0, 77, 0
2, 19184, Note_on_c, 0, 82, 72
2, 19197, Note_on_c, 0, 61, 77
2, 19224, Note_on_c, 0, 61, 0
2, 19262, Note_on_c, 0, 81, 68
2, 19264, Note_on_c, 0, 82, 0
2, 19352, Note_on_c, 0, 81, 0
2, 19354, Note_on_c, 0, 82, 75
2, 19360, Note_on_c, 0, 49, 67
2, 19395, Note_on_c, 0, 49, 0
2, 19419, Note_on_c, 0, 82, 0
2, 19442, Note_on_c, 0, 84, 71
2, 19533, Note_on_c, 0, 82, 70
2, 19533, Note_on_c, 0, 84, 0
2, 19545, Note_on_c, 0, 61, 66
2, 19610, Note_on_c, 0, 80, 70
2, 19621, Note_on_c, 0, 82, 0
2, 19666, Note_on_c, 0, 80, 0
2, 19692, Note_on_c, 0, 79, 66
2, 19773, Note_on_c, 0, 77, 68
2, 19778, Note_on_c, 0, 79, 0
2, 19847, Note_on_c, 0, 77, 0
2, 19852, Note_on_c, 0, 61, 0
2, 19863, Note_on_c, 0, 75, 63
2, 19882, Note_on_c, 0, 60, 56
2, 19951, Note_on_c, 0, 77, 69
2, 19960, Note_on_c, 0, 75, 0
2, 19995, Note_on_c, 0, 77, 0
2, 20022, Note_on_c, 0, 60, 0
2, 20032, Note_on_c, 0, 79, 66
2, 20037, Note_on_c, 0, 58, 51
2, 20075, Note_on_c, 0, 58, 0
2, 20097, Note_on_c, 0, 79, 0
2, 20105, Note_on_c, 0, 75, 67
2, 20141, Note_on_c, 0, 75, 0
2, 20197, Note_on_c, 0, 80, 71
2, 20206, Note_on_c, 0, 60, 60
2, 20224, Note_on_c, 0, 80, 0
2, 20248, Note_on_c, 0, 60, 0
2, 20305, Note_on_c, 0, 58, 54
2, 20351, Note_on_c, 0, 58, 0
2, 20369, Note_on_c, 0, 68, 70
2, 20377, Note_on_c, 0, 56, 57
2, 20398, Note_on_c, 0, 68, 0
2, 20454, Note_on_c, 0, 56, 0
2, 20470, Note_on_c, 0, 58, 59
2, 20515, Note_on_c, 0, 58, 0
2, 20549, Note_on_c, 0, 60, 61
2, 20550, Note_on_c, 0, 80, 73
2, 20613, Note_on_c, 0, 60, 0
2, 20639, Note_on_c, 0, 56, 61
2, 20700, Note_on_c, 0, 56, 0
2, 20735, Note_on_c, 0, 62, 60
2, 20786, Note_on_c, 0, 62, 0
2, 20810, Note_on_c, 0, 60, 64
2, 20880, Note_on_c, 0, 60, 0
2, 20896, Note_on_c, 0, 58, 61
2, 20906, Note_on_c, 0, 78, 71
2, 20922, Note_on_c, 0, 80, 0
2, 20973, Note_on_c, 0, 58, 0
2, 20987, Note_on_c, 0, 60, 63
2, 21059, Note_on_c, 0, 60, 0
2, 21078, Note_on_c, 0, 77, 78
2, 21086, Note_on_c, 0, 62, 64
2, 21104, Note_on_c, 0, 78, 0
2, 21121, Note_on_c, 0, 77, 0
2, 21159, Note_on_c, 0, 62, 0
2, 21169, Note_on_c, 0, 58, 57
2, 21251, Note_on_c, 0, 63, 59
2, 21253, Note_on_c, 0, 78, 79
2, 21265, Note_on_c, 0, 58, 0
2, 21281, Note_on_c, 0, 78, 0
2, 21315, Note_on_c, 0, 63, 0
2, 21340, Note_on_c, 0, 62, 57
2, 21415, Note_on_c, 0, 62, 0
2, 21422, Note_on_c, 0, 66, 69
2, 21423, Note_on_c, 0, 63, 59
2, 21452, Note_on_c, 0, 66, 0
2, 21477, Note_on_c, 0, 63, 0
2, 21507, Note_on_c, 0, 65, 58
2, 21576, Note_on_c, 0, 65, 0
2, 21597, Note_on_c, 0, 63, 58
2, 21606, Note_on_c, 0, 78, 75
2, 21681, Note_on_c, 0, 61, 60
2, 21682, Note_on_c, 0, 63, 0
2, 21727, Control_c, 0, 67, 9
2, 21741, Control_c, 0, 67, 14
2, 21746, Note_on_c, 0, 61, 0
2, 21756, Control_c, 0, 67, 20
2, 21772, Control_c, 0, 67, 23
2, 21778, Note_on_c, 0, 60, 52
2, 21786, Control_c, 0, 67, 24
2, 21860, Note_on_c, 0, 60, 0
2, 21889, Note_on_c, 0, 58, 54
2, 21916, Control_c, 0, 67, 25
2, 21946, Note_on_c, 0, 58, 0
2, 21957, Note_on_c, 0, 78, 0
2, 21972, Note_on_c, 0, 56, 53
2, 21977, Note_on_c, 0, 77, 60
2, 22045, Note_on_c, 0, 56, 0
2, 22070, Note_on_c, 0, 58, 56
2, 22110, Note_on_c, 0, 58, 0
2, 22145, Note_on_c, 0, 77, 0
2, 22147, Note_on_c, 0, 60, 55
2, 22149, Note_on_c, 0, 75, 62
2, 22189, Note_on_c, 0, 75, 0
2, 22190, Control_c, 0, 67, 26
2, 22205, Note_on_c, 0, 60, 0
2, 22221, Control_c, 0, 67, 26
2, 22236, Note_on_c, 0, 56, 45
2, 22285, Note_on_c, 0, 56, 0
2, 22297, Control_c, 0, 67, 26
2, 22330, Note_on_c, 0, 77, 60
2, 22331, Note_on_c, 0, 61, 55
2, 22358, Note_on_c, 0, 61, 0
2, 22389, Note_on_c, 0, 77, 0
2, 22409, Note_on_c, 0, 75, 55
2, 22464, Control_c, 0, 67, 25
2, 22472, Note_on_c, 0, 75, 0
2, 22490, Note_on_c, 0, 73, 56
2, 22491, Note_on_c, 0, 49, 55
2, 22509, Control_c, 0, 67, 24
2, 22522, Note_on_c, 0, 49, 0
2, 22555, Control_c, 0, 67, 24
2, 22560, Note_on_c, 0, 73, 0
2, 22575, Note_on_c, 0, 75, 58
2, 22629, Note_on_c, 0, 75, 0
2, 22638, Control_c, 0, 67, 24
2, 22654, Control_c, 0, 67, 25
2, 22669, Control_c, 0, 67, 26
2, 22670, Note_on_c, 0, 77, 61
2, 22678, Note_on_c, 0, 61, 64
2, 22685, Control_c, 0, 67, 26
2, 22715, Control_c, 0, 67, 27
2, 22732, Note_on_c, 0, 77, 0
2, 22746, Control_c, 0, 67, 28
2, 22764, Note_on_c, 0, 73, 53
2, 22807, Control_c, 0, 67, 27
2, 22822, Control_c, 0, 67, 26
2, 22834, Note_on_c, 0, 73, 0
2, 22837, Control_c, 0, 67, 26
2, 22852, Control_c, 0, 67, 24
2, 22861, Note_on_c, 0, 79, 52
2, 22867, Control_c, 0, 67, 24
2, 22882, Control_c, 0, 67, 23
2, 22898, Control_c, 0, 67, 22
2, 22912, Control_c, 0, 67, 21
2, 22927, Note_on_c, 0, 79, 0
2, 22931, Note_on_c, 0, 77, 64
2, 22943, Control_c, 0, 67, 21
2, 23004, Note_on_c, 0, 77, 0
2, 23013, Note_on_c, 0, 61, 0
2, 23019, Note_on_c, 0, 59, 61
2, 23020, Note_on_c, 0, 75, 62
2, 23091, Note_on_c, 0, 75, 0
2, 23099, Note_on_c, 0, 77, 60
2, 23111, Control_c, 0, 67, 20
2, 23127, Control_c, 0, 67, 19
2, 23142, Control_c, 0, 67, 19
2, 23152, Note_on_c, 0, 77, 0
2, 23178, Note_on_c, 0, 79, 68
2, 23180, Note_on_c, 0, 58, 70
2, 23180, Note_on_c, 0, 59, 0
2, 23211, Note_on_c, 0, 58, 0
2, 23234, Note_on_c, 0, 79, 0
2, 23266, Note_on_c, 0, 75, 63
2, 23278, Control_c, 0, 67, 19
2, 23339, Control_c, 0, 67, 20
2, 23342, Note_on_c, 0, 75, 0
2, 23343, Note_on_c, 0, 59, 69
2, 23352, Note_on_c, 0, 80, 66
2, 23380, Note_on_c, 0, 59, 0
2, 23406, Note_on_c, 0, 80, 0
2, 23437, Control_c, 0, 67, 21
2, 23446, Note_on_c, 0, 79, 65
2, 23498, Control_c, 0, 67, 21
2, 23519, Note_on_c, 0, 47, 67
2, 23526, Note_on_c, 0, 80, 66
2, 23534, Note_on_c, 0, 79, 0
2, 23547, Note_on_c, 0, 47, 0
2, 23590, Control_c, 0, 67, 22
2, 23597, Note_on_c, 0, 80, 0
2, 23605, Control_c, 0, 67, 23
2, 23613, Note_on_c, 0, 82, 66
2, 23635, Control_c, 0, 67, 23
2, 23651, Control_c, 0, 67, 24
2, 23666, Control_c, 0, 67, 24
2, 23680, Control_c, 0, 67, 25
2, 23711, Control_c, 0, 67, 26
2, 23712, Note_on_c, 0, 59, 59
2, 23716, Note_on_c, 0, 80, 62
2, 23727, Control_c, 0, 67, 27
2, 23747, Note_on_c, 0, 82, 0
2, 23756, Control_c, 0, 67, 28
2, 23772, Control_c, 0, 67, 28
2, 23791, Note_on_c, 0, 80, 0
2, 23792, Note_on_c, 0, 78, 62
2, 23802, Control_c, 0, 67, 29
2, 23833, Control_c, 0, 67, 29
2, 23844, Note_on_c, 0, 78, 0
2, 23872, Note_on_c, 0, 77, 63
2, 23895, Control_c, 0, 67, 29
2, 23925, Control_c, 0, 67, 28
2, 23942, Note_on_c, 0, 77, 0
2, 23955, Control_c, 0, 67, 28
2, 23958, Note_on_c, 0, 75, 61
2, 24031, Control_c, 0, 67, 29
2, 24033, Note_on_c, 0, 75, 0
2, 24046, Control_c, 0, 67, 29
2, 24046, Note_on_c, 0, 73, 58
2, 24047, Note_on_c, 0, 59, 0
2, 24052, Note_on_c, 0, 58, 50
2, 24061, Control_c, 0, 67, 31
2, 24076, Control_c, 0, 67, 32
2, 24092, Control_c, 0, 67, 38
2, 24107, Control_c, 0, 67, 58
2, 24110, Note_on_c, 0, 73, 0
2, 24127, Note_on_c, 0, 75, 57
2, 24130, Control_c, 0, 67, 77
2, 24145, Control_c, 0, 67, 93
2, 24160, Control_c, 0, 67, 100
2, 24176, Control_c, 0, 67, 103
2, 24191, Control_c, 0, 67, 104
2, 24206, Control_c, 0, 67, 105
2, 24215, Note_on_c, 0, 58, 0
2, 24218, Note_on_c, 0, 77, 64
2, 24221, Note_on_c, 0, 75, 0
2, 24226, Note_on_c, 0, 56, 48
2, 24263, Note_on_c, 0, 56, 0
2, 24277, Note_on_c, 0, 77, 0
2, 24290, Note_on_c, 0, 73, 61
2, 24364, Note_on_c, 0, 73, 0
2, 24405, Note_on_c, 0, 66, 56
2, 24411, Note_on_c, 0, 58, 42
2, 24465, Note_on_c, 0, 58, 0
2, 24498, Note_on_c, 0, 54, 44
2, 24540, Note_on_c, 0, 54, 0
2, 24554, Control_c, 0, 67, 104
2, 24560, Note_on_c, 0, 49, 40
2, 24570, Control_c, 0, 67, 103
2, 24585, Control_c, 0, 67, 103
2, 24599, Control_c, 0, 67, 102
2, 24607, Note_on_c, 0, 66, 0
2, 24634, Note_on_c, 0, 49, 0
2, 24645, Note_on_c, 0, 54, 53
2, 24676, Control_c, 0, 67, 102
2, 24692, Control_c, 0, 67, 101
2, 24696, Note_on_c, 0, 54, 0
2, 24725, Note_on_c, 0, 58, 57
2, 24746, Note_on_c, 0, 78, 67
2, 24776, Note_on_c, 0, 78, 0
2, 24807, Note_on_c, 0, 58, 0
2, 24825, Note_on_c, 0, 54, 50
2, 24902, Note_on_c, 0, 54, 0
2, 24919, Note_on_c, 0, 68, 70
2, 24925, Note_on_c, 0, 59, 57
2, 24976, Note_on_c, 0, 59, 0
2, 25025, Note_on_c, 0, 54, 62
2, 25079, Control_c, 0, 67, 102
2, 25081, Note_on_c, 0, 54, 0
2, 25104, Note_on_c, 0, 59, 61
2, 25131, Note_on_c, 0, 68, 0
2, 25179, Note_on_c, 0, 59, 0
2, 25186, Control_c, 0, 67, 101
2, 25196, Note_on_c, 0, 54, 62
2, 25201, Control_c, 0, 67, 100
2, 25217, Control_c, 0, 67, 100
2, 25242, Note_on_c, 0, 54, 0
2, 25269, Note_on_c, 0, 78, 71
2, 25277, Control_c, 0, 67, 99
2, 25277, Note_on_c, 0, 59, 55
2, 25293, Control_c, 0, 67, 98
2, 25296, Note_on_c, 0, 78, 0
2, 25314, Note_on_c, 0, 59, 0
2, 25360, Note_on_c, 0, 54, 56
2, 25412, Note_on_c, 0, 54, 0
2, 25414, Control_c, 0, 67, 99
2, 25432, Note_on_c, 0, 70, 71
2, 25439, Note_on_c, 0, 61, 65
2, 25516, Note_on_c, 0, 61, 0
2, 25532, Note_on_c, 0, 54, 61
2, 25604, Note_on_c, 0, 61, 56
2, 25608, Note_on_c, 0, 54, 0
2, 25667, Note_on_c, 0, 70, 0
2, 25700, Note_on_c, 0, 54, 58
2, 25700, Note_on_c, 0, 61, 0
2, 25774, Note_on_c, 0, 54, 0
2, 25785, Note_on_c, 0, 61, 65
2, 25799, Note_on_c, 0, 78, 74
2, 25825, Note_on_c, 0, 78, 0
2, 25845, Note_on_c, 0, 61, 0
2, 25862, Note_on_c, 0, 54, 61
2, 25908, Control_c, 0, 67, 100
2, 25938, Note_on_c, 0, 54, 0
2, 25959, Note_on_c, 0, 63, 65
2, 25971, Note_on_c, 0, 71, 71
2, 25999, Control_c, 0, 67, 100
2, 26036, Note_on_c, 0, 63, 0
2, 26041, Note_on_c, 0, 54, 63
2, 26075, Control_c, 0, 67, 101
2, 26117, Note_on_c, 0, 54, 0
2, 26141, Note_on_c, 0, 63, 65
2, 26168, Note_on_c, 0, 71, 0
2, 26207, Note_on_c, 0, 63, 0
2, 26215, Note_on_c, 0, 54, 61
2, 26291, Note_on_c, 0, 54, 0
2, 26306, Note_on_c, 0, 78, 74
2, 26311, Note_on_c, 0, 63, 68
2, 26332, Note_on_c, 0, 78, 0
2, 26353, Note_on_c, 0, 63, 0
2, 26365, Control_c, 0, 67, 102
2, 26386, Note_on_c, 0, 54, 57
2, 26411, Control_c, 0, 67, 102
2, 26449, Control_c, 0, 67, 103
2, 26464, Control_c, 0, 67, 103
2, 26475, Note_on_c, 0, 54, 0
2, 26479, Control_c, 0, 67, 104
2, 26479, Note_on_c, 0, 70, 72
2, 26487, Note_on_c, 0, 61, 66
2, 26525, Control_c, 0, 67, 105
2, 26555, Control_c, 0, 67, 105
2, 26565, Note_on_c, 0, 61, 0
2, 26571, Note_on_c, 0, 54, 59
2, 26651, Note_on_c, 0, 54, 0
2, 26660, Note_on_c, 0, 61, 58
2, 26678, Note_on_c, 0, 70, 0
2, 26722, Control_c, 0, 67, 105
2, 26724, Note_on_c, 0, 61, 0
2, 26738, Control_c, 0, 67, 104
2, 26746, Note_on_c, 0, 54, 56
2, 26769, Control_c, 0, 67, 103
2, 26798, Control_c, 0, 67, 103
2, 26801, Note_on_c, 0, 54, 0
2, 26814, Control_c, 0, 67, 102
2, 26821, Note_on_c, 0, 78, 75
2, 26837, Note_on_c, 0, 61, 61
2, 26848, Note_on_c, 0, 78, 0
2, 26885, Note_on_c, 0, 61, 0
2, 26913, Note_on_c, 0, 54, 61
2, 26998, Note_on_c, 0, 68, 64
2, 27007, Note_on_c, 0, 59, 60
2, 27014, Note_on_c, 0, 54, 0
2, 27057, Control_c, 0, 67, 103
2, 27085, Note_on_c, 0, 59, 0
2, 27098, Note_on_c, 0, 58, 61
2, 27103, Control_c, 0, 67, 103
2, 27134, Control_c, 0, 67, 104
2, 27174, Note_on_c, 0, 58, 0
2, 27174, Note_on_c, 0, 68, 0
2, 27193, Note_on_c, 0, 56, 65
2, 27232, Control_c, 0, 67, 103
2, 27248, Control_c, 0, 67, 103
2, 27263, Control_c, 0, 67, 102
2, 27280, Note_on_c, 0, 56, 0
2, 27281, Note_on_c, 0, 58, 59
2, 27307, Control_c, 0, 67, 102
2, 27329, Note_on_c, 0, 58, 0
2, 27338, Note_on_c, 0, 77, 72
2, 27354, Note_on_c, 0, 59, 58
2, 27372, Note_on_c, 0, 77, 0
2, 27419, Note_on_c, 0, 59, 0
2, 27434, Note_on_c, 0, 56, 54
2, 27459, Control_c, 0, 67, 102
2, 27490, Note_on_c, 0, 56, 0
2, 27522, Note_on_c, 0, 58, 56
2, 27526, Note_on_c, 0, 66, 56
2, 27605, Note_on_c, 0, 58, 0
2, 27618, Note_on_c, 0, 56, 63
2, 27690, Note_on_c, 0, 56, 0
2, 27703, Note_on_c, 0, 54, 60
2, 27708, Note_on_c, 0, 66, 0
2, 27733, Control_c, 0, 67, 102
2, 27762, Control_c, 0, 67, 101
2, 27793, Note_on_c, 0, 54, 0
2, 27805, Note_on_c, 0, 56, 55
2, 27854, Control_c, 0, 67, 100
2, 27861, Note_on_c, 0, 78, 80
2, 27870, Note_on_c, 0, 56, 0
2, 27886, Note_on_c, 0, 58, 60
2, 27900, Control_c, 0, 67, 100
2, 27916, Control_c, 0, 67, 99
2, 27931, Control_c, 0, 67, 98
2, 27946, Control_c, 0, 67, 95
2, 27969, Control_c, 0, 67, 91
2, 27975, Note_on_c, 0, 58, 0
2, 27981, Note_on_c, 0, 54, 56
2, 27983, Control_c, 0, 67, 85
2, 27998, Control_c, 0, 67, 78
2, 28014, Control_c, 0, 67, 73
2, 28029, Control_c, 0, 67, 60
2, 28045, Control_c, 0, 67, 45
2, 28060, Control_c, 0, 67, 34
2, 28068, Note_on_c, 0, 54, 0
2, 28070, Note_on_c, 0, 56, 59
2, 28075, Control_c, 0, 67, 25
2, 28091, Control_c, 0, 67, 14
2, 28105, Control_c, 0, 67, 0
2, 28127, Note_on_c, 0, 56, 0
2, 28153, Note_on_c, 0, 58, 62
2, 28237, Note_on_c, 0, 58, 0
2, 28253, Note_on_c, 0, 56, 61
2, 28260, Note_on_c, 0, 78, 0
2, 28262, Note_on_c, 0, 77, 66
2, 28338, Note_on_c, 0, 54, 62
2, 28341, Note_on_c, 0, 56, 0
2, 28352, Note_on_c, 0, 75, 73
2, 28391, Note_on_c, 0, 77, 0
2, 28399, Note_on_c, 0, 54, 0
2, 28432, Note_on_c, 0, 53, 56
2, 28441, Note_on_c, 0, 73, 74
2, 28446, Note_on_c, 0, 75, 0
2, 28515, Note_on_c, 0, 53, 0
2, 28522, Note_on_c, 0, 73, 0
2, 28525, Note_on_c, 0, 75, 71
2, 28527, Note_on_c, 0, 51, 62
2, 28619, Note_on_c, 0, 51, 0
2, 28619, Note_on_c, 0, 75, 0
2, 28630, Note_on_c, 0, 49, 55
2, 28632, Note_on_c, 0, 77, 69
2, 28726, Note_on_c, 0, 77, 0
2, 28732, Note_on_c, 0, 73, 68
2, 28802, Note_on_c, 0, 73, 0
2, 28819, Note_on_c, 0, 49, 0
2, 28819, Note_on_c, 0, 68, 69
2, 28886, Note_on_c, 0, 73, 70
2, 28888, Note_on_c, 0, 68, 0
2, 28967, Note_on_c, 0, 73, 0
2, 28984, Note_on_c, 0, 77, 72
2, 28986, Note_on_c, 0, 61, 67
2, 29017, Note_on_c, 0, 61, 0
2, 29051, Note_on_c, 0, 77, 0
2, 29071, Note_on_c, 0, 73, 63
2, 29130, Note_on_c, 0, 73, 0
2, 29153, Note_on_c, 0, 51, 59
2, 29156, Note_on_c, 0, 78, 63
2, 29212, Note_on_c, 0, 78, 0
2, 29236, Note_on_c, 0, 73, 67
2, 29309, Note_on_c, 0, 73, 0
2, 29321, Note_on_c, 0, 51, 0
2, 29325, Note_on_c, 0, 78, 71
2, 29392, Note_on_c, 0, 78, 0
2, 29403, Note_on_c, 0, 73, 68
2, 29457, Note_on_c, 0, 73, 0
2, 29497, Note_on_c, 0, 61, 72
2, 29501, Note_on_c, 0, 78, 77
2, 29525, Note_on_c, 0, 61, 0
2, 29554, Note_on_c, 0, 78, 0
2, 29585, Note_on_c, 0, 73, 67
2, 29652, Note_on_c, 0, 73, 0
2, 29662, Note_on_c, 0, 53, 70
2, 29662, Note_on_c, 0, 80, 76
2, 29725, Note_on_c, 0, 80, 0
2, 29753, Note_on_c, 0, 73, 69
2, 29821, Note_on_c, 0, 73, 0
2, 29822, Note_on_c, 0, 53, 0
2, 29828, Note_on_c, 0, 80, 81
2, 29891, Note_on_c, 0, 80, 0
2, 29911, Note_on_c, 0, 73, 76
2, 29982, Note_on_c, 0, 73, 0
2, 29992, Note_on_c, 0, 80, 81
2, 30000, Note_on_c, 0, 61, 72
2, 30031, Note_on_c, 0, 61, 0
2, 30050, Note_on_c, 0, 80, 0
2, 30080, Note_on_c, 0, 73, 74
2, 30153, Note_on_c, 0, 73, 0
2, 30166, Note_on_c, 0, 82, 82
2, 30176, Note_on_c, 0, 54, 64
2, 30236, Note_on_c, 0, 82, 0
2, 30267, Note_on_c, 0, 73, 73
2, 30337, Note_on_c, 0, 73, 0
2, 30352, Note_on_c, 0, 82, 83
2, 30373, Note_on_c, 0, 54, 0
2, 30412, Note_on_c, 0, 82, 0
2, 30436, Note_on_c, 0, 73, 73
2, 30489, Note_on_c, 0, 73, 0
2, 30517, Note_on_c, 0, 82, 83
2, 30528, Note_on_c, 0, 61, 72
2, 30554, Note_on_c, 0, 61, 0
2, 30574, Note_on_c, 0, 82, 0
2, 30596, Note_on_c, 0, 73, 72
2, 30665, Note_on_c, 0, 73, 0
2, 30688, Note_on_c, 0, 80, 76
2, 30693, Note_on_c, 0, 53, 67
2, 30751, Note_on_c, 0, 80, 0
2, 30775, Note_on_c, 0, 73, 70
2, 30819, Note_on_c, 0, 53, 0
2, 30832, Note_on_c, 0, 73, 0
2, 30856, Note_on_c, 0, 80, 78
2, 30915, Note_on_c, 0, 80, 0
2, 30935, Note_on_c, 0, 73, 69
2, 30985, Note_on_c, 0, 73, 0
2, 31022, Note_on_c, 0, 80, 74
2, 31034, Note_on_c, 0, 61, 67
2, 31063, Note_on_c, 0, 61, 0
2, 31099, Note_on_c, 0, 80, 0
2, 31102, Note_on_c, 0, 73, 71
2, 31172, Note_on_c, 0, 73, 0
2, 31202, Note_on_c, 0, 78, 66
2, 31205, Note_on_c, 0, 51, 60
2, 31285, Note_on_c, 0, 77, 70
2, 31286, Note_on_c, 0, 78, 0
2, 31365, Note_on_c, 0, 77, 0
2, 31368, Note_on_c, 0, 51, 0
2, 31375, Note_on_c, 0, 75, 67
2, 31447, Note_on_c, 0, 75, 0
2, 31453, Note_on_c, 0, 77, 70
2, 31523, Note_on_c, 0, 77, 0
2, 31540, Note_on_c, 0, 78, 67
2, 31551, Note_on_c, 0, 60, 64
2, 31582, Note_on_c, 0, 60, 0
2, 31619, Note_on_c, 0, 78, 0
2, 31631, Note_on_c, 0, 75, 62
2, 31676, Note_on_c, 0, 75, 0
2, 31716, Note_on_c, 0, 77, 56
2, 31727, Note_on_c, 0, 49, 57
2, 31797, Note_on_c, 0, 77, 0
2, 31805, Note_on_c, 0, 75, 64
2, 31881, Note_on_c, 0, 75, 0
2, 31890, Note_on_c, 0, 73, 62
2, 31907, Note_on_c, 0, 49, 0
2, 31974, Note_on_c, 0, 73, 0
2, 31977, Note_on_c, 0, 75, 63
2, 32048, Note_on_c, 0, 75, 0
2, 32066, Note_on_c, 0, 61, 68
2, 32073, Note_on_c, 0, 77, 63
2, 32099, Note_on_c, 0, 61, 0
2, 32151, Note_on_c, 0, 77, 0
2, 32158, Note_on_c, 0, 73, 64
2, 32241, Note_on_c, 0, 73, 0
2, 32249, Note_on_c, 0, 54, 67
2, 32249, Note_on_c, 0, 75, 63
2, 32282, Note_on_c, 0, 54, 0
2, 32298, Note_on_c, 0, 75, 0
2, 32334, Note_on_c, 0, 77, 65
2, 32409, Note_on_c, 0, 53, 68
2, 32411, Note_on_c, 0, 77, 0
2, 32417, Note_on_c, 0, 75, 66
2, 32438, Note_on_c, 0, 53, 0
2, 32494, Note_on_c, 0, 73, 64
2, 32498, Note_on_c, 0, 75, 0
2, 32540, Note_on_c, 0, 73, 0
2, 32580, Note_on_c, 0, 51, 64
2, 32591, Note_on_c, 0, 72, 61
2, 32612, Note_on_c, 0, 51, 0
2, 32634, Note_on_c, 0, 72, 0
2, 32667, Note_on_c, 0, 70, 53
2, 32708, Note_on_c, 0, 70, 0
2, 32742, Note_on_c, 0, 56, 63
2, 32760, Note_on_c, 0, 72, 54
2, 32777, Note_on_c, 0, 56, 0
2, 32811, Note_on_c, 0, 72, 0
2, 32840, Note_on_c, 0, 68, 53
2, 32878, Note_on_c, 0, 68, 0
2, 32920, Note_on_c, 0, 66, 53
2, 32943, Note_on_c, 0, 66, 0
2, 32994, Note_on_c, 0, 68, 58
2, 33029, Note_on_c, 0, 68, 0
2, 33073, Note_on_c, 0, 63, 51
2, 33107, Note_on_c, 0, 63, 0
2, 33150, Note_on_c, 0, 68, 52
2, 33196, Note_on_c, 0, 68, 0
2, 33221, Note_on_c, 0, 56, 62
2, 33239, Note_on_c, 0, 72, 62
2, 33256, Note_on_c, 0, 56, 0
2, 33290, Note_on_c, 0, 72, 0
2, 33315, Note_on_c, 0, 68, 58
2, 33361, Note_on_c, 0, 68, 0
2, 33399, Note_on_c, 0, 66, 57
2, 33434, Note_on_c, 0, 66, 0
2, 33476, Note_on_c, 0, 68, 52
2, 33511, Note_on_c, 0, 68, 0
2, 33556, Note_on_c, 0, 63, 50
2, 33592, Note_on_c, 0, 63, 0
2, 33641, Note_on_c, 0, 68, 48
2, 33692, Note_on_c, 0, 68, 0
2, 33714, Note_on_c, 0, 56, 49
2, 33731, Note_on_c, 0, 73, 59
2, 33765, Note_on_c, 0, 56, 0
2, 33798, Note_on_c, 0, 73, 0
2, 33817, Note_on_c, 0, 68, 54
2, 33860, Note_on_c, 0, 68, 0
2, 33897, Note_on_c, 0, 65, 49
2, 33933, Note_on_c, 0, 65, 0
2, 33987, Note_on_c, 0, 68, 46
2, 34017, Note_on_c, 0, 68, 0
2, 34047, Note_on_c, 0, 61, 49
2, 34083, Note_on_c, 0, 61, 0
2, 34142, Note_on_c, 0, 68, 51
2, 34191, Note_on_c, 0, 68, 0
2, 34220, Note_on_c, 0, 56, 52
2, 34229, Note_on_c, 0, 73, 66
2, 34258, Note_on_c, 0, 56, 0
2, 34299, Note_on_c, 0, 73, 0
2, 34317, Note_on_c, 0, 68, 64
2, 34351, Note_on_c, 0, 68, 0
2, 34391, Note_on_c, 0, 65, 58
2, 34425, Note_on_c, 0, 65, 0
2, 34472, Note_on_c, 0, 68, 62
2, 34508, Note_on_c, 0, 68, 0
2, 34543, Note_on_c, 0, 61, 58
2, 34578, Note_on_c, 0, 61, 0
2, 34627, Note_on_c, 0, 68, 61
2, 34677, Note_on_c, 0, 68, 0
2, 34712, Note_on_c, 0, 78, 80
2, 34716, Note_on_c, 0, 56, 57
2, 34757, Note_on_c, 0, 56, 0
2, 34786, Note_on_c, 0, 78, 0
2, 34808, Note_on_c, 0, 68, 60
2, 34837, Note_on_c, 0, 68, 0
2, 34900, Note_on_c, 0, 63, 58
2, 34933, Note_on_c, 0, 63, 0
2, 34969, Note_on_c, 0, 68, 54
2, 34999, Note_on_c, 0, 68, 0
2, 35047, Note_on_c, 0, 60, 64
2, 35077, Note_on_c, 0, 60, 0
2, 35129, Note_on_c, 0, 68, 61
2, 35176, Note_on_c, 0, 68, 0
2, 35208, Note_on_c, 0, 56, 62
2, 35218, Note_on_c, 0, 78, 73
2, 35254, Note_on_c, 0, 56, 0
2, 35303, Note_on_c, 0, 78, 0
2, 35306, Note_on_c, 0, 68, 62
2, 35348, Note_on_c, 0, 68, 0
2, 35383, Note_on_c, 0, 63, 60
2, 35422, Note_on_c, 0, 63, 0
2, 35467, Note_on_c, 0, 68, 58
2, 35503, Note_on_c, 0, 68, 0
2, 35545, Note_on_c, 0, 60, 53
2, 35587, Note_on_c, 0, 60, 0
2, 35627, Note_on_c, 0, 68, 51
2, 35690, Note_on_c, 0, 68, 0
2, 35718, Note_on_c, 0, 56, 55
2, 35720, Note_on_c, 0, 77, 67
2, 35761, Note_on_c, 0, 56, 0
2, 35807, Note_on_c, 0, 77, 0
2, 35813, Note_on_c, 0, 68, 56
2, 35860, Note_on_c, 0, 68, 0
2, 35893, Note_on_c, 0, 65, 55
2, 35929, Note_on_c, 0, 65, 0
2, 35988, Note_on_c, 0, 68, 52
2, 36020, Note_on_c, 0, 68, 0
2, 36053, Note_on_c, 0, 61, 61
2, 36092, Note_on_c, 0, 61, 0
2, 36128, Note_on_c, 0, 68, 59
2, 36183, Note_on_c, 0, 68, 0
2, 36214, Note_on_c, 0, 77, 77
2, 36221, Note_on_c, 0, 56, 62
2, 36268, Note_on_c, 0, 56, 0
2, 36305, Note_on_c, 0, 77, 0
2, 36307, Note_on_c, 0, 68, 64
2, 36345, Note_on_c, 0, 68, 0
2, 36388, Note_on_c, 0, 65, 62
2, 36430, Note_on_c, 0, 65, 0
2, 36467, Note_on_c, 0, 68, 66
2, 36503, Note_on_c, 0, 68, 0
2, 36551, Note_on_c, 0, 61, 64
2, 36584, Note_on_c, 0, 61, 0
2, 36622, Note_on_c, 0, 68, 64
2, 36701, Note_on_c, 0, 68, 0
2, 36715, Note_on_c, 0, 56, 56
2, 36719, Note_on_c, 0, 79, 78
2, 36763, Note_on_c, 0, 56, 0
2, 36799, Note_on_c, 0, 79, 0
2, 36816, Note_on_c, 0, 70, 67
2, 36848, Note_on_c, 0, 70, 0
2, 36892, Note_on_c, 0, 64, 66
2, 36925, Note_on_c, 0, 64, 0
2, 36975, Note_on_c, 0, 70, 68
2, 37002, Note_on_c, 0, 70, 0
2, 37055, Note_on_c, 0, 61, 66
2, 37085, Note_on_c, 0, 61, 0
2, 37133, Note_on_c, 0, 70, 64
2, 37195, Note_on_c, 0, 70, 0
2, 37221, Note_on_c, 0, 79, 79
2, 37222, Note_on_c, 0, 56, 65
2, 37261, Note_on_c, 0, 56, 0
2, 37309, Note_on_c, 0, 79, 0
2, 37314, Note_on_c, 0, 70, 62
2, 37357, Note_on_c, 0, 70, 0
2, 37393, Note_on_c, 0, 64, 67
2, 37424, Note_on_c, 0, 64, 0
2, 37486, Note_on_c, 0, 70, 58
2, 37523, Note_on_c, 0, 70, 0
2, 37561, Note_on_c, 0, 61, 58
2, 37595, Note_on_c, 0, 61, 0
2, 37643, Note_on_c, 0, 70, 59
2, 37685, Note_on_c, 0, 70, 0
2, 37717, Note_on_c, 0, 56, 62
2, 37736, Note_on_c, 0, 80, 74
2, 37763, Note_on_c, 0, 56, 0
2, 37816, Note_on_c, 0, 80, 0
2, 37822, Note_on_c, 0, 72, 58
2, 37858, Note_on_c, 0, 72, 0
2, 37893, Note_on_c, 0, 63, 58
2, 37932, Note_on_c, 0, 63, 0
2, 37984, Note_on_c, 0, 72, 53
2, 38009, Note_on_c, 0, 72, 0
2, 38069, Note_on_c, 0, 60, 63
2, 38098, Note_on_c, 0, 60, 0
2, 38151, Note_on_c, 0, 72, 56
2, 38209, Note_on_c, 0, 72, 0
2, 38231, Note_on_c, 0, 54, 67
2, 38237, Note_on_c, 0, 80, 76
2, 38274, Note_on_c, 0, 54, 0
2, 38330, Note_on_c, 0, 80, 0
2, 38333, Note_on_c, 0, 72, 65
2, 38369, Note_on_c, 0, 72, 0
2, 38418, Note_on_c, 0, 63, 67
2, 38451, Note_on_c, 0, 63, 0
2, 38499, Note_on_c, 0, 72, 61
2, 38531, Note_on_c, 0, 72, 0
2, 38584, Note_on_c, 0, 60, 66
2, 38620, Note_on_c, 0, 60, 0
2, 38681, Note_on_c, 0, 72, 61
2, 38727, Note_on_c, 0, 72, 0
2, 38782, Note_on_c, 0, 53, 53
2, 38799, Note_on_c, 0, 80, 67
2, 38872, Note_on_c, 0, 53, 0
2, 38887, Note_on_c, 0, 73, 56
2, 38892, Note_on_c, 0, 80, 0
2, 38938, Note_on_c, 0, 73, 0
2, 38975, Note_on_c, 0, 65, 57
2, 39008, Note_on_c, 0, 65, 0
2, 39052, Note_on_c, 0, 68, 69
2, 39089, Note_on_c, 0, 68, 0
2, 39137, Note_on_c, 0, 61, 66
2, 39170, Note_on_c, 0, 61, 0
2, 39216, Note_on_c, 0, 73, 64
2, 39252, Note_on_c, 0, 73, 0
2, 39289, Note_on_c, 0, 56, 72
2, 39347, Note_on_c, 0, 56, 0
2, 39377, Note_on_c, 0, 77, 74
2, 39412, Note_on_c, 0, 77, 0
2, 39458, Note_on_c, 0, 53, 71
2, 39506, Note_on_c, 0, 53, 0
2, 39537, Note_on_c, 0, 80, 76
2, 39593, Note_on_c, 0, 80, 0
2, 39624, Note_on_c, 0, 51, 73
2, 39697, Note_on_c, 0, 51, 0
2, 39709, Note_on_c, 0, 82, 74
2, 39805, Note_on_c, 0, 50, 59
2, 39815, Note_on_c, 0, 82, 0
2, 39820, Note_on_c, 0, 83, 76
2, 39882, Note_on_c, 0, 50, 0
2, 39914, Note_on_c, 0, 82, 81
2, 39983, Note_on_c, 0, 83, 0
2, 39992, Note_on_c, 0, 53, 62
2, 40000, Note_on_c, 0, 80, 79
2, 40030, Note_on_c, 0, 53, 0
2, 40056, Note_on_c, 0, 82, 0
2, 40075, Note_on_c, 0, 78, 79
2, 40097, Note_on_c, 0, 80, 0
2, 40142, Note_on_c, 0, 78, 0
2, 40147, Note_on_c, 0, 58, 68
2, 40154, Note_on_c, 0, 77, 81
2, 40197, Note_on_c, 0, 58, 0
2, 40228, Note_on_c, 0, 77, 0
2, 40229, Note_on_c, 0, 75, 81
2, 40311, Note_on_c, 0, 75, 0
2, 40322, Note_on_c, 0, 62, 73
2, 40331, Note_on_c, 0, 77, 83
2, 40374, Note_on_c, 0, 62, 0
2, 40411, Note_on_c, 0, 78, 81
2, 40416, Note_on_c, 0, 77, 0
2, 40492, Note_on_c, 0, 65, 69
2, 40497, Note_on_c, 0, 80, 81
2, 40515, Note_on_c, 0, 78, 0
2, 40561, Note_on_c, 0, 65, 0
2, 40582, Note_on_c, 0, 83, 79
2, 40584, Note_on_c, 0, 80, 0
2, 40658, Note_on_c, 0, 68, 78
2, 40662, Note_on_c, 0, 82, 76
2, 40690, Note_on_c, 0, 83, 0
2, 40700, Note_on_c, 0, 68, 0
2, 40738, Note_on_c, 0, 80, 74
2, 40751, Note_on_c, 0, 82, 0
2, 40802, Note_on_c, 0, 80, 0
2, 40831, Note_on_c, 0, 66, 63
2, 40833, Note_on_c, 0, 82, 73
2, 40873, Note_on_c, 0, 66, 0
2, 40919, Note_on_c, 0, 75, 68
2, 40931, Note_on_c, 0, 82, 0
2, 40961, Note_on_c, 0, 75, 0
2, 40995, Note_on_c, 0, 63, 64
2, 41038, Note_on_c, 0, 63, 0
2, 41088, Note_on_c, 0, 66, 60
2, 41127, Note_on_c, 0, 66, 0
2, 41158, Note_on_c, 0, 58, 65
2, 41195, Note_on_c, 0, 58, 0
2, 41228, Note_on_c, 0, 70, 63
2, 41263, Note_on_c, 0, 70, 0
2, 41315, Note_on_c, 0, 54, 62
2, 41352, Note_on_c, 0, 54, 0
2, 41387, Note_on_c, 0, 75, 73
2, 41422, Note_on_c, 0, 75, 0
2, 41478, Note_on_c, 0, 51, 70
2, 41518, Note_on_c, 0, 51, 0
2, 41540, Note_on_c, 0, 78, 72
2, 41592, Note_on_c, 0, 78, 0
2, 41640, Note_on_c, 0, 49, 63
2, 41693, Note_on_c, 0, 49, 0
2, 41730, Note_on_c, 0, 80, 62
2, 41809, Note_on_c, 0, 80, 0
2, 41838, Note_on_c, 0, 48, 48
2, 41849, Note_on_c, 0, 81, 55
2, 41902, Note_on_c, 0, 48, 0
2, 41934, Note_on_c, 0, 80, 65
2, 41980, Note_on_c, 0, 81, 0
2, 42014, Note_on_c, 0, 51, 54
2, 42028, Note_on_c, 0, 78, 65
2, 42045, Note_on_c, 0, 80, 0
2, 42056, Note_on_c, 0, 51, 0
2, 42083, Note_on_c, 0, 78, 0
2, 42101, Note_on_c, 0, 76, 63
2, 42173, Note_on_c, 0, 56, 60
2, 42173, Note_on_c, 0, 76, 0
2, 42179, Note_on_c, 0, 75, 68
2, 42221, Note_on_c, 0, 56, 0
2, 42257, Note_on_c, 0, 73, 68
2, 42261, Note_on_c, 0, 75, 0
2, 42335, Note_on_c, 0, 60, 68
2, 42348, Note_on_c, 0, 75, 65
2, 42361, Note_on_c, 0, 73, 0
2, 42388, Note_on_c, 0, 60, 0
2, 42392, Note_on_c, 0, 75, 0
2, 42426, Note_on_c, 0, 76, 70
2, 42506, Note_on_c, 0, 63, 67
2, 42516, Note_on_c, 0, 76, 0
2, 42519, Note_on_c, 0, 78, 65
2, 42557, Note_on_c, 0, 63, 0
2, 42587, Note_on_c, 0, 78, 0
2, 42615, Note_on_c, 0, 81, 56
2, 42688, Note_on_c, 0, 66, 64
2, 42689, Note_on_c, 0, 81, 0
2, 42698, Note_on_c, 0, 80, 60
2, 42741, Note_on_c, 0, 66, 0
2, 42782, Note_on_c, 0, 78, 60
2, 42783, Note_on_c, 0, 80, 0
2, 42839, Note_on_c, 0, 78, 0
2, 42887, Note_on_c, 0, 80, 62
2, 42891, Note_on_c, 0, 64, 42
2, 42940, Note_on_c, 0, 64, 0
2, 42968, Note_on_c, 0, 73, 61
2, 42971, Note_on_c, 0, 80, 0
2, 43000, Note_on_c, 0, 73, 0
2, 43058, Note_on_c, 0, 61, 56
2, 43097, Note_on_c, 0, 61, 0
2, 43136, Note_on_c, 0, 76, 62
2, 43175, Note_on_c, 0, 76, 0
2, 43218, Note_on_c, 0, 57, 65
2, 43258, Note_on_c, 0, 57, 0
2, 43286, Note_on_c, 0, 73, 65
2, 43330, Note_on_c, 0, 73, 0
2, 43384, Note_on_c, 0, 54, 69
2, 43421, Note_on_c, 0, 54, 0
2, 43460, Note_on_c, 0, 69, 68
2, 43493, Note_on_c, 0, 69, 0
2, 43549, Note_on_c, 0, 63, 70
2, 43582, Note_on_c, 0, 63, 0
2, 43612, Note_on_c, 0, 66, 69
2, 43647, Note_on_c, 0, 66, 0
2, 43704, Note_on_c, 0, 60, 73
2, 43738, Note_on_c, 0, 60, 0
2, 43778, Note_on_c, 0, 75, 69
2, 43812, Note_on_c, 0, 75, 0
2, 43854, Note_on_c, 0, 52, 70
2, 43913, Note_on_c, 0, 52, 0
2, 43945, Note_on_c, 0, 68, 63
2, 43981, Note_on_c, 0, 68, 0
2, 44021, Note_on_c, 0, 61, 73
2, 44052, Note_on_c, 0, 61, 0
2, 44108, Note_on_c, 0, 64, 61
2, 44139, Note_on_c, 0, 64, 0
2, 44181, Note_on_c, 0, 57, 70
2, 44215, Note_on_c, 0, 57, 0
2, 44261, Note_on_c, 0, 73, 63
2, 44303, Note_on_c, 0, 73, 0
2, 44354, Note_on_c, 0, 54, 62
2, 44395, Note_on_c, 0, 54, 0
2, 44417, Note_on_c, 0, 69, 58
2, 44455, Note_on_c, 0, 69, 0
2, 44506, Note_on_c, 0, 51, 67
2, 44545, Note_on_c, 0, 51, 0
2, 44582, Note_on_c, 0, 66, 50
2, 44617, Note_on_c, 0, 66, 0
2, 44674, Note_on_c, 0, 48, 51
2, 44713, Note_on_c, 0, 48, 0
2, 44735, Control_c, 0, 67, 12
2, 44750, Control_c, 0, 67, 16
2, 44751, Note_on_c, 0, 63, 52
2, 44765, Control_c, 0, 67, 19
2, 44780, Control_c, 0, 67, 25
2, 44795, Control_c, 0, 67, 31
2, 44799, Note_on_c, 0, 63, 0
2, 44811, Control_c, 0, 67, 38
2, 44826, Control_c, 0, 67, 43
2, 44841, Control_c, 0, 67, 45
2, 44860, Note_on_c, 0, 44, 50
2, 44863, Control_c, 0, 67, 48
2, 44873, Note_on_c, 0, 60, 54
2, 44878, Control_c, 0, 67, 50
2, 44894, Control_c, 0, 67, 51
2, 44909, Control_c, 0, 67, 52
2, 44909, Note_on_c, 0, 44, 0
2, 44933, Note_on_c, 0, 60, 0
2, 44970, Note_on_c, 0, 56, 51
2, 44985, Control_c, 0, 67, 51
2, 45000, Control_c, 0, 67, 50
2, 45003, Note_on_c, 0, 56, 0
2, 45016, Control_c, 0, 67, 49
2, 45031, Control_c, 0, 67, 48
2, 45034, Note_on_c, 0, 54, 53
2, 45047, Control_c, 0, 67, 48
2, 45061, Control_c, 0, 67, 46
2, 45062, Note_on_c, 0, 54, 0
2, 45076, Control_c, 0, 67, 45
2, 45092, Control_c, 0, 67, 43
2, 45131, Note_on_c, 0, 56, 46
2, 45162, Note_on_c, 0, 56, 0
2, 45187, Note_on_c, 0, 51, 65
2, 45216, Note_on_c, 0, 51, 0
2, 45271, Note_on_c, 0, 56, 45
2, 45317, Note_on_c, 0, 56, 0
2, 45345, Note_on_c, 0, 44, 59
2, 45358, Note_on_c, 0, 60, 59
2, 45379, Note_on_c, 0, 44, 0
2, 45396, Control_c, 0, 67, 43
2, 45412, Note_on_c, 0, 60, 0
2, 45442, Note_on_c, 0, 56, 49
2, 45472, Control_c, 0, 67, 43
2, 45483, Note_on_c, 0, 56, 0
2, 45506, Note_on_c, 0, 54, 61
2, 45539, Note_on_c, 0, 54, 0
2, 45595, Note_on_c, 0, 56, 53
2, 45639, Note_on_c, 0, 56, 0
2, 45665, Note_on_c, 0, 51, 60
2, 45701, Note_on_c, 0, 51, 0
2, 45755, Note_on_c, 0, 56, 48
2, 45798, Control_c, 0, 67, 44
2, 45800, Note_on_c, 0, 56, 0
2, 45829, Control_c, 0, 67, 45
2, 45829, Note_on_c, 0, 44, 62
2, 45839, Note_on_c, 0, 61, 59
2, 45869, Note_on_c, 0, 44, 0
2, 45890, Note_on_c, 0, 61, 0
2, 45926, Note_on_c, 0, 56, 52
2, 45967, Note_on_c, 0, 56, 0
2, 45997, Note_on_c, 0, 53, 63
2, 46041, Note_on_c, 0, 53, 0
2, 46080, Note_on_c, 0, 56, 52
2, 46119, Note_on_c, 0, 56, 0
2, 46149, Control_c, 0, 67, 44
2, 46162, Note_on_c, 0, 49, 58
2, 46197, Note_on_c, 0, 49, 0
2, 46238, Note_on_c, 0, 56, 48
2, 46294, Note_on_c, 0, 56, 0
2, 46318, Note_on_c, 0, 44, 63
2, 46334, Note_on_c, 0, 61, 59
2, 46359, Note_on_c, 0, 44, 0
2, 46422, Note_on_c, 0, 56, 62
2, 46425, Note_on_c, 0, 61, 0
2, 46462, Note_on_c, 0, 56, 0
2, 46496, Note_on_c, 0, 53, 65
2, 46532, Note_on_c, 0, 53, 0
2, 46574, Note_on_c, 0, 56, 60
2, 46607, Note_on_c, 0, 56, 0
2, 46658, Note_on_c, 0, 49, 64
2, 46695, Note_on_c, 0, 49, 0
2, 46735, Note_on_c, 0, 56, 57
2, 46781, Note_on_c, 0, 56, 0
2, 46820, Note_on_c, 0, 66, 75
2, 46821, Note_on_c, 0, 44, 71
2, 46865, Note_on_c, 0, 44, 0
2, 46891, Note_on_c, 0, 66, 0
2, 46907, Note_on_c, 0, 56, 58
2, 46944, Note_on_c, 0, 56, 0
2, 46986, Note_on_c, 0, 51, 72
2, 47021, Note_on_c, 0, 51, 0
2, 47052, Note_on_c, 0, 56, 57
2, 47054, Control_c, 0, 67, 43
2, 47069, Control_c, 0, 67, 43
2, 47093, Note_on_c, 0, 56, 0
2, 47141, Note_on_c, 0, 48, 70
2, 47145, Control_c, 0, 67, 42
2, 47186, Note_on_c, 0, 48, 0
2, 47217, Note_on_c, 0, 56, 60
2, 47266, Note_on_c, 0, 56, 0
2, 47308, Note_on_c, 0, 66, 71
2, 47309, Note_on_c, 0, 44, 71
2, 47349, Note_on_c, 0, 44, 0
2, 47350, Control_c, 0, 67, 43
2, 47390, Note_on_c, 0, 66, 0
2, 47392, Note_on_c, 0, 56, 63
2, 47434, Note_on_c, 0, 56, 0
2, 47464, Note_on_c, 0, 51, 74
2, 47487, Control_c, 0, 67, 43
2, 47498, Note_on_c, 0, 51, 0
2, 47532, Control_c, 0, 67, 44
2, 47549, Note_on_c, 0, 56, 56
2, 47588, Note_on_c, 0, 56, 0
2, 47618, Note_on_c, 0, 48, 64
2, 47655, Control_c, 0, 67, 45
2, 47658, Note_on_c, 0, 48, 0
2, 47701, Note_on_c, 0, 56, 53
2, 47763, Note_on_c, 0, 56, 0
2, 47782, Note_on_c, 0, 44, 63
2, 47796, Note_on_c, 0, 65, 61
2, 47828, Note_on_c, 0, 44, 0
2, 47871, Note_on_c, 0, 65, 0
2, 47882, Control_c, 0, 67, 44
2, 47889, Note_on_c, 0, 56, 55
2, 47898, Control_c, 0, 67, 43
2, 47939, Note_on_c, 0, 56, 0
2, 47951, Control_c, 0, 67, 43
2, 47957, Note_on_c, 0, 53, 63
2, 47966, Control_c, 0, 67, 42
2, 47981, Control_c, 0, 67, 41
2, 47996, Control_c, 0, 67, 41
2, 47996, Note_on_c, 0, 53, 0
2, 48012, Control_c, 0, 67, 40
2, 48027, Control_c, 0, 67, 40
2, 48042, Control_c, 0, 67, 38
2, 48045, Note_on_c, 0, 56, 59
2, 48058, Control_c, 0, 67, 36
2, 48073, Control_c, 0, 67, 33
2, 48083, Note_on_c, 0, 56, 0
2, 48088, Control_c, 0, 67, 29
2, 48103, Control_c, 0, 67, 26
2, 48118, Control_c, 0, 67, 24
2, 48125, Note_on_c, 0, 49, 60
2, 48134, Control_c, 0, 67, 19
2, 48149, Control_c, 0, 67, 11
2, 48163, Control_c, 0, 67, 0
2, 48163, Note_on_c, 0, 49, 0
2, 48187, Note_on_c, 0, 56, 57
2, 48248, Note_on_c, 0, 56, 0
2, 48272, Note_on_c, 0, 65, 73
2, 48278, Note_on_c, 0, 44, 64
2, 48323, Note_on_c, 0, 44, 0
2, 48361, Note_on_c, 0, 65, 0
2, 48363, Note_on_c, 0, 56, 65
2, 48407, Note_on_c, 0, 56, 0
2, 48439, Note_on_c, 0, 53, 69
2, 48475, Note_on_c, 0, 53, 0
2, 48519, Note_on_c, 0, 56, 65
2, 48562, Note_on_c, 0, 56, 0
2, 48589, Note_on_c, 0, 49, 67
2, 48626, Note_on_c, 0, 49, 0
2, 48663, Note_on_c, 0, 56, 73
2, 48736, Note_on_c, 0, 56, 0
2, 48757, Note_on_c, 0, 44, 71
2, 48760, Note_on_c, 0, 67, 81
2, 48810, Note_on_c, 0, 44, 0
2, 48847, Note_on_c, 0, 58, 70
2, 48849, Note_on_c, 0, 67, 0
2, 48890, Note_on_c, 0, 58, 0
2, 48928, Note_on_c, 0, 52, 75
2, 48967, Note_on_c, 0, 52, 0
2, 48996, Note_on_c, 0, 58, 69
2, 49033, Note_on_c, 0, 58, 0
2, 49078, Note_on_c, 0, 49, 76
2, 49117, Note_on_c, 0, 49, 0
2, 49146, Note_on_c, 0, 58, 71
2, 49226, Note_on_c, 0, 58, 0
2, 49238, Note_on_c, 0, 44, 76
2, 49238, Note_on_c, 0, 67, 82
2, 49282, Note_on_c, 0, 44, 0
2, 49335, Note_on_c, 0, 58, 66
2, 49336, Note_on_c, 0, 67, 0
2, 49393, Note_on_c, 0, 58, 0
2, 49418, Note_on_c, 0, 52, 79
2, 49466, Note_on_c, 0, 52, 0
2, 49507, Note_on_c, 0, 58, 72
2, 49561, Note_on_c, 0, 58, 0
2, 49598, Note_on_c, 0, 49, 73
2, 49660, Note_on_c, 0, 49, 0
2, 49685, Note_on_c, 0, 58, 68
2, 49748, Note_on_c, 0, 58, 0
2, 49786, Note_on_c, 0, 44, 69
2, 49905, Note_on_c, 0, 48, 70
2, 49947, Note_on_c, 0, 44, 0
2, 49997, Note_on_c, 0, 51, 74
2, 50010, Note_on_c, 0, 48, 0
2, 50061, Note_on_c, 0, 51, 0
2, 50094, Note_on_c, 0, 54, 73
2, 50172, Note_on_c, 0, 57, 73
2, 50198, Note_on_c, 0, 54, 0
2, 50260, Note_on_c, 0, 60, 75
2, 50276, Note_on_c, 0, 57, 0
2, 50332, Note_on_c, 0, 61, 68
2, 50338, Note_on_c, 0, 60, 0
2, 50419, Note_on_c, 0, 64, 70
2, 50434, Note_on_c, 0, 61, 0
2, 50497, Note_on_c, 0, 67, 72
2, 50501, Note_on_c, 0, 64, 0
2, 50570, Note_on_c, 0, 70, 73
2, 50571, Note_on_c, 0, 67, 0
2, 50659, Note_on_c, 0, 73, 78
2, 50681, Note_on_c, 0, 70, 0
2, 50738, Note_on_c, 0, 76, 79
2, 50748, Note_on_c, 0, 73, 0
2, 50832, Note_on_c, 0, 72, 75
2, 50838, Note_on_c, 0, 44, 58
2, 50868, Note_on_c, 0, 76, 0
2, 50934, Note_on_c, 0, 75, 83
2, 50957, Note_on_c, 0, 72, 0
2, 51018, Note_on_c, 0, 75, 0
2, 51023, Note_on_c, 0, 78, 82
2, 51073, Note_on_c, 0, 44, 0
2, 51098, Note_on_c, 0, 75, 75
2, 51122, Note_on_c, 0, 78, 0
2, 51180, Note_on_c, 0, 72, 73
2, 51211, Note_on_c, 0, 75, 0
2, 51271, Note_on_c, 0, 68, 68
2, 51283, Note_on_c, 0, 72, 0
2, 51340, Note_on_c, 0, 66, 70
2, 51341, Note_on_c, 0, 68, 0
2, 51422, Note_on_c, 0, 66, 0
2, 51425, Note_on_c, 0, 63, 67
2, 51499, Note_on_c, 0, 63, 0
2, 51500, Note_on_c, 0, 60, 68
2, 51573, Note_on_c, 0, 60, 0
2, 51581, Note_on_c, 0, 56, 66
2, 51662, Note_on_c, 0, 56, 0
2, 51664, Note_on_c, 0, 60, 69
2, 51721, Note_on_c, 0, 60, 0
2, 51744, Note_on_c, 0, 63, 61
2, 51852, Note_on_c, 0, 56, 52
2, 51855, Note_on_c, 0, 65, 55
2, 51860, Note_on_c, 0, 63, 0
2, 51927, Note_on_c, 0, 68, 69
2, 51931, Note_on_c, 0, 65, 0
2, 52009, Note_on_c, 0, 68, 0
2, 52017, Note_on_c, 0, 73, 70
2, 52099, Note_on_c, 0, 68, 72
2, 52109, Note_on_c, 0, 73, 0
2, 52160, Note_on_c, 0, 68, 0
2, 52182, Note_on_c, 0, 56, 0
2, 52186, Note_on_c, 0, 65, 68
2, 52245, Note_on_c, 0, 65, 0
2, 52261, Note_on_c, 0, 61, 72
2, 52353, Note_on_c, 0, 58, 68
2, 52358, Note_on_c, 0, 61, 0
2, 52439, Note_on_c, 0, 58, 0
2, 52442, Note_on_c, 0, 55, 69
2, 52528, Note_on_c, 0, 52, 70
2, 52541, Note_on_c, 0, 55, 0
2, 52622, Note_on_c, 0, 49, 69
2, 52622, Note_on_c, 0, 52, 0
2, 52705, Note_on_c, 0, 49, 0
2, 52711, Note_on_c, 0, 52, 69
2, 52809, Note_on_c, 0, 52, 0
2, 52812, Note_on_c, 0, 55, 66
2, 52922, Note_on_c, 0, 55, 0
2, 52923, Note_on_c, 0, 44, 67
2, 53241, Note_on_c, 0, 73, 76
2, 53250, Note_on_c, 0, 49, 46
2, 53250, Note_on_c, 0, 65, 63
2, 53251, Note_on_c, 0, 53, 57
2, 53251, Note_on_c, 0, 56, 54
2, 53255, Note_on_c, 0, 68, 60
2, 53279, Note_on_c, 0, 65, 0
2, 53288, Note_on_c, 0, 56, 0
2, 53292, Note_on_c, 0, 68, 0
2, 53294, Note_on_c, 0, 53, 0
2, 53310, Note_on_c, 0, 73, 0
2, 53319, Note_on_c, 0, 49, 0
2, 53558, Note_on_c, 0, 72, 71
2, 53564, Note_on_c, 0, 63, 65
2, 53572, Note_on_c, 0, 54, 55
2, 53573, Note_on_c, 0, 51, 53
2, 53579, Note_on_c, 0, 56, 48
2, 53581, Note_on_c, 0, 68, 53
2, 53598, Note_on_c, 0, 63, 0
2, 53619, Note_on_c, 0, 68, 0
2, 53622, Note_on_c, 0, 56, 0
2, 53623, Note_on_c, 0, 51, 0
2, 53624, Note_on_c, 0, 72, 0
2, 53627, Note_on_c, 0, 54, 0
2, 54030, Note_on_c, 0, 73, 62
2, 54035, Note_on_c, 0, 56, 44
2, 54039, Note_on_c, 0, 49, 36
2, 54043, Note_on_c, 0, 61, 44
2, 54043, Note_on_c, 0, 68, 40
2, 54048, Note_on_c, 0, 53, 38
2, 54052, Note_on_c, 0, 44, 0
2, 54626, Control_c, 0, 64, 15
2, 54641, Control_c, 0, 64, 21
2, 54657, Control_c, 0, 64, 25
2, 54672, Control_c, 0, 64, 28
2, 54687, Control_c, 0, 64, 31
2, 54702, Control_c, 0, 64, 34
2, 54717, Control_c, 0, 64, 37
2, 54733, Control_c, 0, 64, 40
2, 54748, Control_c, 0, 64, 43
2, 54762, Control_c, 0, 64, 45
2, 54778, Control_c, 0, 64, 47
2, 54793, Control_c, 0, 64, 49
2, 54809, Control_c, 0, 64, 51
2, 54824, Control_c, 0, 64, 53
2, 54847, Control_c, 0, 64, 55
2, 54862, Control_c, 0, 64, 57
2, 54877, Control_c, 0, 64, 60
2, 54892, Control_c, 0, 64, 63
2, 54907, Control_c, 0, 64, 65
2, 54922, Control_c, 0, 64, 67
2, 54939, Control_c, 0, 64, 69
2, 54954, Control_c, 0, 64, 72
2, 54970, Control_c, 0, 64, 75
2, 54985, Control_c, 0, 64, 78
2, 54999, Control_c, 0, 64, 84
2, 55015, Control_c, 0, 64, 92
2, 55030, Control_c, 0, 64, 102
2, 55044, Control_c, 0, 64, 127
2, 55163, Note_on_c, 0, 61, 0
2, 55171, Note_on_c, 0, 73, 0
2, 55193, Note_on_c, 0, 56, 0
2, 55236, Note_on_c, 0, 49, 0
2, 55243, Note_on_c, 0, 53, 0
2, 55276, Note_on_c, 0, 68, 0
2, 55380, Control_c, 0, 64, 119
2, 55395, Control_c, 0, 64, 116
2, 55410, Control_c, 0, 64, 115
2, 55455, Control_c, 0, 64, 114
2, 55470, Control_c, 0, 64, 113
2, 55486, Control_c, 0, 64, 111
2, 55501, Control_c, 0, 64, 109
2, 55516, Control_c, 0, 64, 107
2, 55531, Control_c, 0, 64, 106
2, 55546, Control_c, 0, 64, 104
2, 55561, Control_c, 0, 64, 102
2, 55592, Control_c, 0, 64, 102
2, 55630, Control_c, 0, 64, 101
2, 55675, Control_c, 0, 64, 100
2, 55691, Control_c, 0, 64, 100
2, 55706, Control_c, 0, 64, 99
2, 55721, Control_c, 0, 64, 98
2, 55736, Control_c, 0, 64, 96
2, 55751, Control_c, 0, 64, 95
2, 55768, Control_c, 0, 64, 94
2, 55783, Control_c, 0, 64, 93
2, 55798, Control_c, 0, 64, 91
2, 55814, Control_c, 0, 64, 88
2, 55829, Control_c, 0, 64, 86
2, 55843, Control_c, 0, 64, 85
2, 55859, Control_c, 0, 64, 83
2, 55874, Control_c, 0, 64, 81
2, 55889, Control_c, 0, 64, 78
2, 55904, Control_c, 0, 64, 74
2, 55919, Control_c, 0, 64, 70
2, 55935, Control_c, 0, 64, 67
2, 55950, Control_c, 0, 64, 65
2, 55964, Control_c, 0, 64, 63
2, 55980, Control_c, 0, 64, 62
2, 55995, Control_c, 0, 64, 61
2, 56011, Control_c, 0, 64, 60
2, 56026, Control_c, 0, 64, 59
2, 56040, Control_c, 0, 64, 57
2, 56056, Control_c, 0, 64, 55
2, 56071, Control_c, 0, 64, 53
2, 56087, Control_c, 0, 64, 52
2, 56102, Control_c, 0, 64, 51
2, 56117, Control_c, 0, 64, 50
2, 56132, Control_c, 0, 64, 49
2, 56147, Control_c, 0, 64, 47
2, 56162, Control_c, 0, 64, 46
2, 56178, Control_c, 0, 64, 45
2, 56193, Control_c, 0, 64, 44
2, 56209, Control_c, 0, 64, 43
2, 56224, Control_c, 0, 64, 42
2, 56239, Control_c, 0, 64, 41
2, 56254, Control_c, 0, 64, 40
2, 56269, Control_c, 0, 64, 39
2, 56284, Control_c, 0, 64, 38
2, 56299, Control_c, 0, 64, 38
2, 56345, Control_c, 0, 64, 37
2, 56991, Control_c, 0, 64, 38
2, 57066, Control_c, 0, 64, 38
2, 57112, Control_c, 0, 64, 39
2, 57181, Control_c, 0, 64, 39
2, 57257, Control_c, 0, 64, 40
2, 57562, Control_c, 0, 64, 40
2, 58025, Control_c, 0, 64, 40
2, 58028,End_track
0, 0, End_of_file
