0, 0, Header, 1, 2, 384
1, 0, Start_track
1, 0, Tempo, 500000
1, 0, Time_signature, 4, 2, 24, 8
1, 1, End_track
2,0,Start_track
2,0, Note_on_c, 0, 68, 55
2,66, Note_on_c, 0, 68, 0
2,287, Note_on_c, 0, 70, 52
2,392, Note_on_c, 0, 70, 0
2,400, Note_on_c, 0, 68, 65
2,506, Note_on_c, 0, 68, 0
2,523, Note_on_c, 0, 66, 66
2,613, Note_on_c, 0, 66, 0
2,648, Note_on_c, 0, 68, 74
2,720, Note_on_c, 0, 68, 0
2,779, Note_on_c, 0, 77, 82
2,821, Note_on_c, 0, 77, 0
2,1043, Note_on_c, 0, 73, 79
2,1100, Note_on_c, 0, 73, 0
2,1329, Note_on_c, 0, 68, 72
2,1602, Note_on_c, 0, 68, 0
2,1605, Note_on_c, 0, 66, 65
2,1700, Note_on_c, 0, 66, 0
2,1709, Note_on_c, 0, 65, 71
2,1783, Note_on_c, 0, 65, 0
2,1832, Note_on_c, 0, 66, 75
2,1886, Note_on_c, 0, 66, 0
2,2091, Note_on_c, 0, 75, 70
2,2162, Note_on_c, 0, 75, 0
2,2348, Note_on_c, 0, 65, 68
2,2407, Note_on_c, 0, 65, 0
2,2597, Note_on_c, 0, 73, 56
2,2638, Note_on_c, 0, 73, 0
2,2834, Note_on_c, 0, 63, 62
2,2909, Note_on_c, 0, 63, 0
2,3103, Note_on_c, 0, 72, 61
2,3157, Note_on_c, 0, 72, 0
2,3357, Note_on_c, 0, 61, 58
2,3422, Note_on_c, 0, 61, 0
2,3614, Note_on_c, 0, 73, 63
2,3721, Note_on_c, 0, 73, 0
2,3734, Note_on_c, 0, 72, 64
2,3835, Note_on_c, 0, 72, 0
2,3856, Note_on_c, 0, 73, 65
2,3965, Note_on_c, 0, 73, 0
2,3969, Note_on_c, 0, 75, 70
2,4060, Note_on_c, 0, 75, 0
2,4096, Note_on_c, 0, 61, 59
2,4097, Note_on_c, 0, 77, 60
2,4127, Note_on_c, 0, 61, 0
2,4213, Note_on_c, 0, 77, 0
2,4222, Note_on_c, 0, 78, 62
2,4343, Note_on_c, 0, 78, 0
2,4348, Note_on_c, 0, 80, 67
2,4356, Note_on_c, 0, 65, 58
2,4456, Note_on_c, 0, 65, 0
2,4472, Note_on_c, 0, 63, 67
2,4474, Note_on_c, 0, 79, 70
2,4479, Note_on_c, 0, 80, 0
2,4586, Note_on_c, 0, 79, 0
2,4587, Note_on_c, 0, 63, 0
2,4595, Note_on_c, 0, 77, 74
2,4597, Note_on_c, 0, 61, 71
2,4702, Note_on_c, 0, 63, 76
2,4704, Note_on_c, 0, 61, 0
2,4704, Note_on_c, 0, 77, 0
2,4706, Note_on_c, 0, 79, 73
2,4777, Note_on_c, 0, 63, 0
2,4830, Note_on_c, 0, 72, 80
2,4831, Note_on_c, 0, 79, 0
2,4835, Note_on_c, 0, 80, 78
2,4881, Note_on_c, 0, 72, 0
2,4951, Note_on_c, 0, 78, 81
2,4956, Note_on_c, 0, 80, 0
2,5061, Note_on_c, 0, 78, 0
2,5074, Note_on_c, 0, 68, 80
2,5076, Note_on_c, 0, 77, 72
2,5106, Note_on_c, 0, 68, 0
2,5198, Note_on_c, 0, 77, 0
2,5202, Note_on_c, 0, 75, 69
2,5333, Note_on_c, 0, 77, 78
2,5334, Note_on_c, 0, 63, 72
2,5336, Note_on_c, 0, 75, 0
2,5590, Note_on_c, 0, 63, 0
2,5601, Note_on_c, 0, 61, 66
2,5699, Note_on_c, 0, 61, 0
2,5716, Note_on_c, 0, 60, 70
2,5809, Note_on_c, 0, 60, 0
2,5840, Note_on_c, 0, 61, 77
2,5874, Note_on_c, 0, 61, 0
2,5966, Note_on_c, 0, 75, 73
2,5989, Note_on_c, 0, 77, 0
2,6091, Note_on_c, 0, 73, 71
2,6092, Note_on_c, 0, 75, 0
2,6093, Note_on_c, 0, 70, 73
2,6129, Note_on_c, 0, 70, 0
2,6205, Note_on_c, 0, 73, 0
2,6208, Note_on_c, 0, 77, 75
2,6330, Note_on_c, 0, 75, 74
2,6331, Note_on_c, 0, 77, 0
2,6335, Note_on_c, 0, 60, 65
2,6374, Note_on_c, 0, 60, 0
2,6439, Note_on_c, 0, 73, 74
2,6443, Note_on_c, 0, 75, 0
2,6559, Note_on_c, 0, 73, 0
2,6572, Note_on_c, 0, 72, 67
2,6578, Note_on_c, 0, 68, 64
2,6614, Note_on_c, 0, 68, 0
2,6669, Note_on_c, 0, 72, 0
2,6683, Note_on_c, 0, 75, 70
2,6805, Note_on_c, 0, 75, 0
2,6806, Note_on_c, 0, 58, 58
2,6813, Note_on_c, 0, 73, 65
2,6851, Note_on_c, 0, 58, 0
2,6907, Note_on_c, 0, 73, 0
2,6931, Note_on_c, 0, 72, 62
2,7039, Note_on_c, 0, 72, 0
2,7043, Note_on_c, 0, 73, 65
2,7049, Note_on_c, 0, 67, 56
2,7086, Note_on_c, 0, 67, 0
2,7149, Note_on_c, 0, 73, 0
2,7162, Note_on_c, 0, 70, 59
2,7200, Note_on_c, 0, 70, 0
2,7264, Note_on_c, 0, 56, 44
2,7286, Note_on_c, 0, 70, 61
2,7343, Note_on_c, 0, 70, 0
2,7393, Note_on_c, 0, 72, 68
2,7404, Note_on_c, 0, 56, 0
2,7441, Note_on_c, 0, 72, 0
2,7525, Note_on_c, 0, 68, 65
2,7525, Note_on_c, 0, 75, 73
2,7558, Note_on_c, 0, 68, 0
2,7619, Note_on_c, 0, 75, 0
2,7640, Note_on_c, 0, 67, 71
2,7725, Note_on_c, 0, 67, 0
2,7752, Note_on_c, 0, 78, 81
2,7759, Note_on_c, 0, 68, 68
2,7790, Note_on_c, 0, 68, 0
2,7875, Note_on_c, 0, 70, 64
2,7955, Note_on_c, 0, 70, 0
2,7993, Note_on_c, 0, 56, 73
2,7995, Note_on_c, 0, 72, 69
2,8033, Note_on_c, 0, 56, 0
2,8096, Note_on_c, 0, 72, 0
2,8117, Note_on_c, 0, 68, 69
2,8208, Note_on_c, 0, 68, 0
2,8240, Note_on_c, 0, 58, 78
2,8252, Note_on_c, 0, 73, 67
2,8349, Note_on_c, 0, 73, 0
2,8359, Note_on_c, 0, 58, 0
2,8367, Note_on_c, 0, 56, 73
2,8367, Note_on_c, 0, 72, 69
2,8471, Note_on_c, 0, 72, 0
2,8475, Note_on_c, 0, 56, 0
2,8487, Note_on_c, 0, 54, 78
2,8493, Note_on_c, 0, 70, 73
2,8553, Note_on_c, 0, 78, 0
2,8570, Note_on_c, 0, 70, 0
2,8579, Note_on_c, 0, 54, 0
2,8591, Note_on_c, 0, 56, 77
2,8592, Note_on_c, 0, 72, 79
2,8653, Note_on_c, 0, 56, 0
2,8704, Note_on_c, 0, 72, 0
2,8715, Note_on_c, 0, 73, 73
2,8718, Note_on_c, 0, 77, 84
2,8720, Note_on_c, 0, 65, 74
2,8769, Note_on_c, 0, 73, 0
2,8773, Note_on_c, 0, 65, 0
2,8828, Note_on_c, 0, 72, 76
2,8900, Note_on_c, 0, 72, 0
2,8957, Note_on_c, 0, 61, 75
2,8960, Note_on_c, 0, 70, 73
2,8984, Note_on_c, 0, 61, 0
2,9047, Note_on_c, 0, 70, 0
2,9073, Note_on_c, 0, 68, 73
2,9183, Note_on_c, 0, 68, 0
2,9203, Note_on_c, 0, 56, 76
2,9209, Note_on_c, 0, 70, 73
2,9254, Note_on_c, 0, 77, 0
2,9451, Note_on_c, 0, 56, 0
2,9464, Note_on_c, 0, 54, 66
2,9559, Note_on_c, 0, 54, 0
2,9572, Note_on_c, 0, 53, 73
2,9656, Note_on_c, 0, 53, 0
2,9690, Note_on_c, 0, 54, 79
2,9699, Note_on_c, 0, 75, 75
2,9701, Note_on_c, 0, 70, 0
2,9741, Note_on_c, 0, 54, 0
2,9824, Note_on_c, 0, 68, 64
2,9922, Note_on_c, 0, 68, 0
2,9945, Note_on_c, 0, 63, 69
2,9946, Note_on_c, 0, 66, 59
2,9984, Note_on_c, 0, 63, 0
2,10014, Note_on_c, 0, 66, 0
2,10060, Note_on_c, 0, 70, 60
2,10158, Note_on_c, 0, 70, 0
2,10176, Note_on_c, 0, 68, 64
2,10179, Note_on_c, 0, 53, 60
2,10220, Note_on_c, 0, 53, 0
2,10254, Note_on_c, 0, 68, 0
2,10294, Note_on_c, 0, 66, 60
2,10314, Note_on_c, 0, 75, 0
2,10409, Note_on_c, 0, 73, 66
2,10414, Note_on_c, 0, 61, 55
2,10422, Note_on_c, 0, 65, 60
2,10423, Note_on_c, 0, 66, 0
2,10451, Note_on_c, 0, 61, 0
2,10466, Note_on_c, 0, 65, 0
2,10515, Note_on_c, 0, 73, 0
2,10521, Note_on_c, 0, 68, 67
2,10628, Note_on_c, 0, 51, 57
2,10641, Note_on_c, 0, 68, 0
2,10651, Note_on_c, 0, 72, 62
2,10668, Note_on_c, 0, 51, 0
2,10713, Note_on_c, 0, 72, 0
2,10776, Note_on_c, 0, 65, 52
2,10802, Note_on_c, 0, 65, 0
2,10856, Note_on_c, 0, 75, 77
2,10885, Note_on_c, 0, 66, 53
2,10886, Note_on_c, 0, 60, 53
2,10909, Note_on_c, 0, 60, 0
2,10916, Note_on_c, 0, 66, 0
2,10993, Note_on_c, 0, 63, 53
2,11024, Note_on_c, 0, 63, 0
2,11111, Note_on_c, 0, 49, 56
2,11119, Note_on_c, 0, 65, 67
2,11136, Note_on_c, 0, 75, 0
2,11154, Note_on_c, 0, 49, 0
2,11380, Note_on_c, 0, 61, 53
2,11381, Note_on_c, 0, 68, 68
2,11420, Note_on_c, 0, 68, 0
2,11463, Note_on_c, 0, 61, 0
2,11493, Note_on_c, 0, 60, 56
2,11601, Note_on_c, 0, 60, 0
2,11614, Note_on_c, 0, 77, 74
2,11620, Note_on_c, 0, 65, 0
2,11622, Note_on_c, 0, 61, 54
2,11718, Note_on_c, 0, 61, 0
2,11735, Note_on_c, 0, 63, 57
2,11822, Note_on_c, 0, 63, 0
2,11857, Note_on_c, 0, 65, 51
2,11867, Note_on_c, 0, 68, 61
2,11913, Note_on_c, 0, 68, 0
2,11951, Note_on_c, 0, 65, 0
2,11969, Note_on_c, 0, 61, 53
2,12066, Note_on_c, 0, 61, 0
2,12096, Note_on_c, 0, 77, 0
2,12108, Note_on_c, 0, 73, 64
2,12117, Note_on_c, 0, 58, 51
2,12174, Note_on_c, 0, 58, 0
2,12215, Note_on_c, 0, 60, 57
2,12276, Note_on_c, 0, 60, 0
2,12337, Note_on_c, 0, 73, 0
2,12340, Note_on_c, 0, 61, 54
2,12347, Note_on_c, 0, 77, 67
2,12425, Note_on_c, 0, 61, 0
2,12445, Note_on_c, 0, 77, 0
2,12456, Note_on_c, 0, 58, 56
2,12461, Note_on_c, 0, 73, 67
2,12549, Note_on_c, 0, 58, 0
2,12551, Note_on_c, 0, 73, 0
2,12580, Note_on_c, 0, 55, 54
2,12585, Note_on_c, 0, 70, 64
2,12651, Note_on_c, 0, 55, 0
2,12682, Note_on_c, 0, 56, 60
2,12772, Note_on_c, 0, 56, 0
2,12791, Note_on_c, 0, 70, 0
2,12812, Note_on_c, 0, 73, 66
2,12818, Note_on_c, 0, 58, 59
2,12881, Note_on_c, 0, 58, 0
2,12928, Note_on_c, 0, 73, 0
2,12934, Note_on_c, 0, 70, 65
2,12938, Note_on_c, 0, 55, 51
2,13009, Note_on_c, 0, 55, 0
2,13028, Note_on_c, 0, 70, 0
2,13067, Note_on_c, 0, 63, 58
2,13071, Note_on_c, 0, 48, 49
2,13119, Note_on_c, 0, 48, 0
2,13320, Note_on_c, 0, 70, 58
2,13327, Note_on_c, 0, 60, 48
2,13365, Note_on_c, 0, 70, 0
2,13390, Note_on_c, 0, 60, 0
2,13439, Note_on_c, 0, 58, 46
2,13550, Note_on_c, 0, 58, 0
2,13563, Note_on_c, 0, 63, 0
2,13572, Note_on_c, 0, 60, 53
2,13573, Note_on_c, 0, 75, 67
2,13668, Note_on_c, 0, 60, 0
2,13700, Note_on_c, 0, 61, 54
2,13780, Note_on_c, 0, 61, 0
2,13817, Note_on_c, 0, 63, 52
2,13826, Note_on_c, 0, 67, 59
2,13886, Note_on_c, 0, 67, 0
2,13896, Note_on_c, 0, 63, 0
2,13935, Note_on_c, 0, 60, 50
2,14027, Note_on_c, 0, 60, 0
2,14063, Note_on_c, 0, 56, 50
2,14077, Note_on_c, 0, 75, 0
2,14079, Note_on_c, 0, 72, 62
2,14161, Note_on_c, 0, 56, 0
2,14185, Note_on_c, 0, 58, 54
2,14259, Note_on_c, 0, 58, 0
2,14302, Note_on_c, 0, 72, 0
2,14313, Note_on_c, 0, 75, 65
2,14316, Note_on_c, 0, 60, 52
2,14408, Note_on_c, 0, 60, 0
2,14417, Note_on_c, 0, 75, 0
2,14430, Note_on_c, 0, 72, 70
2,14431, Note_on_c, 0, 56, 54
2,14505, Note_on_c, 0, 72, 0
2,14523, Note_on_c, 0, 56, 0
2,14551, Note_on_c, 0, 68, 60
2,14563, Note_on_c, 0, 53, 50
2,14615, Note_on_c, 0, 53, 0
2,14658, Note_on_c, 0, 55, 55
2,14721, Note_on_c, 0, 68, 0
2,14725, Note_on_c, 0, 55, 0
2,14782, Note_on_c, 0, 56, 55
2,14784, Note_on_c, 0, 72, 59
2,14854, Note_on_c, 0, 56, 0
2,14890, Note_on_c, 0, 72, 0
2,14893, Note_on_c, 0, 53, 44
2,14902, Note_on_c, 0, 68, 64
2,14982, Note_on_c, 0, 53, 0
2,14982, Note_on_c, 0, 68, 0
2,15034, Note_on_c, 0, 46, 45
2,15034, Note_on_c, 0, 61, 55
2,15075, Note_on_c, 0, 46, 0
2,15286, Note_on_c, 0, 68, 58
2,15291, Note_on_c, 0, 58, 52
2,15332, Note_on_c, 0, 68, 0
2,15355, Note_on_c, 0, 58, 0
2,15407, Note_on_c, 0, 56, 47
2,15509, Note_on_c, 0, 56, 0
2,15526, Note_on_c, 0, 61, 0
2,15538, Note_on_c, 0, 58, 42
2,15546, Note_on_c, 0, 73, 61
2,15626, Note_on_c, 0, 58, 0
2,15660, Note_on_c, 0, 60, 48
2,15748, Note_on_c, 0, 60, 0
2,15781, Note_on_c, 0, 61, 53
2,15791, Note_on_c, 0, 65, 56
2,15832, Note_on_c, 0, 65, 0
2,15847, Note_on_c, 0, 61, 0
2,15906, Note_on_c, 0, 58, 52
2,16003, Note_on_c, 0, 58, 0
2,16037, Note_on_c, 0, 55, 40
2,16037, Note_on_c, 0, 70, 62
2,16051, Note_on_c, 0, 73, 0
2,16125, Note_on_c, 0, 55, 0
2,16147, Note_on_c, 0, 70, 0
2,16149, Note_on_c, 0, 56, 59
2,16155, Note_on_c, 0, 72, 71
2,16209, Note_on_c, 0, 56, 0
2,16268, Note_on_c, 0, 58, 56
2,16273, Note_on_c, 0, 73, 73
2,16280, Note_on_c, 0, 72, 0
2,16332, Note_on_c, 0, 73, 0
2,16344, Note_on_c, 0, 58, 0
2,16370, Note_on_c, 0, 55, 59
2,16381, Note_on_c, 0, 70, 75
2,16473, Note_on_c, 0, 70, 0
2,16488, Note_on_c, 0, 55, 0
2,16500, Note_on_c, 0, 82, 84
2,16501, Note_on_c, 0, 51, 71
2,16587, Note_on_c, 0, 51, 0
2,16615, Note_on_c, 0, 73, 78
2,16618, Note_on_c, 0, 53, 70
2,16679, Note_on_c, 0, 53, 0
2,16717, Note_on_c, 0, 73, 0
2,16739, Note_on_c, 0, 75, 76
2,16742, Note_on_c, 0, 55, 64
2,16828, Note_on_c, 0, 75, 0
2,16838, Note_on_c, 0, 55, 0
2,16854, Note_on_c, 0, 51, 68
2,16854, Note_on_c, 0, 70, 76
2,16913, Note_on_c, 0, 70, 0
2,16929, Note_on_c, 0, 51, 0
2,16968, Note_on_c, 0, 44, 79
2,16987, Note_on_c, 0, 72, 81
2,17003, Note_on_c, 0, 44, 0
2,17102, Note_on_c, 0, 80, 76
2,17109, Note_on_c, 0, 82, 0
2,17205, Note_on_c, 0, 80, 0
2,17215, Note_on_c, 0, 72, 0
2,17218, Note_on_c, 0, 79, 76
2,17222, Note_on_c, 0, 56, 74
2,17312, Note_on_c, 0, 56, 0
2,17327, Note_on_c, 0, 79, 0
2,17332, Note_on_c, 0, 82, 83
2,17341, Note_on_c, 0, 58, 83
2,17405, Note_on_c, 0, 58, 0
2,17451, Note_on_c, 0, 80, 82
2,17453, Note_on_c, 0, 60, 91
2,17454, Note_on_c, 0, 82, 0
2,17494, Note_on_c, 0, 60, 0
2,17566, Note_on_c, 0, 80, 0
2,17576, Note_on_c, 0, 75, 83
2,17696, Note_on_c, 0, 75, 0
2,17710, Note_on_c, 0, 77, 81
2,17713, Note_on_c, 0, 68, 85
2,17719, Note_on_c, 0, 56, 67
2,17755, Note_on_c, 0, 56, 0
2,17827, Note_on_c, 0, 77, 0
2,17829, Note_on_c, 0, 78, 82
2,17920, Note_on_c, 0, 68, 0
2,17922, Note_on_c, 0, 61, 69
2,17940, Note_on_c, 0, 78, 0
2,17942, Note_on_c, 0, 77, 83
2,18047, Note_on_c, 0, 67, 71
2,18050, Note_on_c, 0, 77, 0
2,18053, Note_on_c, 0, 75, 85
2,18088, Note_on_c, 0, 61, 0
2,18131, Note_on_c, 0, 67, 0
2,18139, Note_on_c, 0, 75, 0
2,18166, Note_on_c, 0, 65, 62
2,18172, Note_on_c, 0, 73, 82
2,18243, Note_on_c, 0, 73, 0
2,18246, Note_on_c, 0, 65, 0
2,18280, Note_on_c, 0, 67, 64
2,18289, Note_on_c, 0, 75, 86
2,18376, Note_on_c, 0, 75, 0
2,18377, Note_on_c, 0, 67, 0
2,18404, Note_on_c, 0, 84, 94
2,18414, Note_on_c, 0, 68, 75
2,18416, Note_on_c, 0, 60, 56
2,18444, Note_on_c, 0, 84, 0
2,18456, Note_on_c, 0, 60, 0
2,18528, Note_on_c, 0, 66, 73
2,18532, Note_on_c, 0, 68, 0
2,18611, Note_on_c, 0, 66, 0
2,18650, Note_on_c, 0, 65, 70
2,18653, Note_on_c, 0, 80, 88
2,18703, Note_on_c, 0, 80, 0
2,18753, Note_on_c, 0, 65, 0
2,18761, Note_on_c, 0, 63, 69
2,18923, Note_on_c, 0, 63, 0
2,18927, Note_on_c, 0, 75, 82
2,18937, Note_on_c, 0, 58, 65
2,18937, Note_on_c, 0, 65, 67
2,18983, Note_on_c, 0, 58, 0
2,19201, Note_on_c, 0, 73, 72
2,19203, Note_on_c, 0, 56, 59
2,19204, Note_on_c, 0, 75, 0
2,19246, Note_on_c, 0, 56, 0
2,19288, Note_on_c, 0, 73, 0
2,19308, Note_on_c, 0, 72, 73
2,19395, Note_on_c, 0, 72, 0
2,19424, Note_on_c, 0, 55, 61
2,19429, Note_on_c, 0, 65, 0
2,19429, Note_on_c, 0, 73, 77
2,19470, Note_on_c, 0, 73, 0
2,19542, Note_on_c, 0, 55, 0
2,19544, Note_on_c, 0, 63, 67
2,19649, Note_on_c, 0, 63, 0
2,19660, Note_on_c, 0, 82, 78
2,19667, Note_on_c, 0, 61, 64
2,19722, Note_on_c, 0, 82, 0
2,19739, Note_on_c, 0, 61, 0
2,19788, Note_on_c, 0, 65, 63
2,19818, Note_on_c, 0, 65, 0
2,19913, Note_on_c, 0, 63, 67
2,19914, Note_on_c, 0, 72, 74
2,19916, Note_on_c, 0, 56, 58
2,19956, Note_on_c, 0, 72, 0
2,19958, Note_on_c, 0, 56, 0
2,19960, Note_on_c, 0, 63, 0
2,20026, Note_on_c, 0, 61, 67
2,20122, Note_on_c, 0, 61, 0
2,20150, Note_on_c, 0, 60, 69
2,20150, Note_on_c, 0, 80, 71
2,20196, Note_on_c, 0, 60, 0
2,20197, Note_on_c, 0, 80, 0
2,20252, Note_on_c, 0, 63, 68
2,20283, Note_on_c, 0, 63, 0
2,20382, Note_on_c, 0, 70, 70
2,20386, Note_on_c, 0, 61, 65
2,20390, Note_on_c, 0, 51, 62
2,20422, Note_on_c, 0, 70, 0
2,20436, Note_on_c, 0, 61, 0
2,20439, Note_on_c, 0, 51, 0
2,20501, Note_on_c, 0, 60, 68
2,20604, Note_on_c, 0, 60, 0
2,20642, Note_on_c, 0, 61, 62
2,20649, Note_on_c, 0, 79, 62
2,20685, Note_on_c, 0, 79, 0
2,20712, Note_on_c, 0, 61, 0
2,20750, Note_on_c, 0, 58, 57
2,20852, Note_on_c, 0, 58, 0
2,20878, Note_on_c, 0, 56, 49
2,20885, Note_on_c, 0, 68, 53
2,20890, Note_on_c, 0, 60, 50
2,20930, Note_on_c, 0, 60, 0
2,20965, Note_on_c, 0, 68, 0
2,21001, Note_on_c, 0, 70, 60
2,21081, Note_on_c, 0, 70, 0
2,21117, Note_on_c, 0, 72, 64
2,21129, Note_on_c, 0, 63, 54
2,21172, Note_on_c, 0, 63, 0
2,21215, Note_on_c, 0, 72, 0
2,21235, Note_on_c, 0, 73, 66
2,21325, Note_on_c, 0, 73, 0
2,21331, Note_on_c, 0, 56, 0
2,21363, Note_on_c, 0, 72, 64
2,21374, Note_on_c, 0, 68, 63
2,21413, Note_on_c, 0, 68, 0
2,21459, Note_on_c, 0, 72, 0
2,21481, Note_on_c, 0, 70, 65
2,21557, Note_on_c, 0, 70, 0
2,21600, Note_on_c, 0, 68, 62
2,21602, Note_on_c, 0, 63, 62
2,21686, Note_on_c, 0, 63, 0
2,21701, Note_on_c, 0, 68, 0
2,21714, Note_on_c, 0, 72, 67
2,21734, Note_on_c, 0, 60, 56
2,21797, Note_on_c, 0, 60, 0
2,21834, Note_on_c, 0, 72, 0
2,21839, Note_on_c, 0, 56, 63
2,21839, Note_on_c, 0, 77, 75
2,21876, Note_on_c, 0, 56, 0
2,21954, Note_on_c, 0, 75, 74
2,21967, Note_on_c, 0, 77, 0
2,22043, Note_on_c, 0, 75, 0
2,22068, Note_on_c, 0, 74, 70
2,22069, Note_on_c, 0, 59, 65
2,22164, Note_on_c, 0, 59, 0
2,22190, Note_on_c, 0, 77, 77
2,22191, Note_on_c, 0, 74, 0
2,22205, Note_on_c, 0, 56, 57
2,22295, Note_on_c, 0, 56, 0
2,22308, Note_on_c, 0, 77, 0
2,22311, Note_on_c, 0, 80, 80
2,22316, Note_on_c, 0, 53, 72
2,22347, Note_on_c, 0, 53, 0
2,22429, Note_on_c, 0, 78, 84
2,22438, Note_on_c, 0, 80, 0
2,22537, Note_on_c, 0, 78, 0
2,22540, Note_on_c, 0, 56, 68
2,22542, Note_on_c, 0, 77, 82
2,22641, Note_on_c, 0, 56, 0
2,22649, Note_on_c, 0, 77, 0
2,22649, Note_on_c, 0, 80, 78
2,22652, Note_on_c, 0, 53, 71
2,22684, Note_on_c, 0, 80, 0
2,22756, Note_on_c, 0, 53, 0
2,22773, Note_on_c, 0, 50, 63
2,22779, Note_on_c, 0, 80, 77
2,22836, Note_on_c, 0, 80, 0
2,22845, Note_on_c, 0, 82, 75
2,22902, Note_on_c, 0, 82, 0
2,22907, Note_on_c, 0, 83, 85
2,23043, Note_on_c, 0, 53, 61
2,23046, Note_on_c, 0, 50, 0
2,23048, Note_on_c, 0, 82, 73
2,23062, Note_on_c, 0, 83, 0
2,23159, Note_on_c, 0, 80, 69
2,23163, Note_on_c, 0, 53, 0
2,23167, Note_on_c, 0, 56, 63
2,23173, Note_on_c, 0, 82, 0
2,23229, Note_on_c, 0, 56, 0
2,23282, Note_on_c, 0, 80, 0
2,23284, Note_on_c, 0, 78, 67
2,23287, Note_on_c, 0, 59, 66
2,23317, Note_on_c, 0, 59, 0
2,23370, Note_on_c, 0, 78, 0
2,23393, Note_on_c, 0, 77, 66
2,23480, Note_on_c, 0, 77, 0
2,23518, Note_on_c, 0, 75, 62
2,23519, Note_on_c, 0, 53, 55
2,23558, Note_on_c, 0, 53, 0
2,23624, Note_on_c, 0, 75, 0
2,23633, Note_on_c, 0, 74, 63
2,23736, Note_on_c, 0, 74, 0
2,23762, Note_on_c, 0, 75, 64
2,23765, Note_on_c, 0, 58, 57
2,23770, Note_on_c, 0, 54, 52
2,23806, Note_on_c, 0, 58, 0
2,23810, Note_on_c, 0, 54, 0
2,23858, Note_on_c, 0, 75, 0
2,23876, Note_on_c, 0, 78, 68
2,23975, Note_on_c, 0, 78, 0
2,23997, Note_on_c, 0, 77, 69
2,24007, Note_on_c, 0, 56, 63
2,24007, Note_on_c, 0, 59, 58
2,24038, Note_on_c, 0, 56, 0
2,24042, Note_on_c, 0, 59, 0
2,24109, Note_on_c, 0, 75, 70
2,24117, Note_on_c, 0, 77, 0
2,24220, Note_on_c, 0, 75, 0
2,24223, Note_on_c, 0, 74, 60
2,24243, Note_on_c, 0, 58, 74
2,24287, Note_on_c, 0, 58, 0
2,24296, Note_on_c, 0, 74, 0
2,24346, Note_on_c, 0, 77, 66
2,24461, Note_on_c, 0, 77, 0
2,24476, Note_on_c, 0, 50, 59
2,24481, Note_on_c, 0, 46, 56
2,24486, Note_on_c, 0, 70, 68
2,24508, Note_on_c, 0, 50, 0
2,24512, Note_on_c, 0, 46, 0
2,24595, Note_on_c, 0, 70, 0
2,24603, Note_on_c, 0, 68, 69
2,24718, Note_on_c, 0, 51, 70
2,24721, Note_on_c, 0, 39, 57
2,24728, Note_on_c, 0, 68, 0
2,24730, Note_on_c, 0, 66, 66
2,24828, Note_on_c, 0, 66, 0
2,24847, Note_on_c, 0, 65, 68
2,24963, Note_on_c, 0, 65, 0
2,24971, Note_on_c, 0, 63, 67
2,24997, Note_on_c, 0, 39, 0
2,25049, Note_on_c, 0, 51, 0
2,25077, Note_on_c, 0, 63, 0
2,25085, Note_on_c, 0, 62, 71
2,25197, Note_on_c, 0, 62, 0
2,25218, Note_on_c, 0, 63, 70
2,25309, Note_on_c, 0, 63, 0
2,25336, Note_on_c, 0, 65, 57
2,25448, Note_on_c, 0, 65, 0
2,25449, Note_on_c, 0, 51, 71
2,25451, Note_on_c, 0, 66, 66
2,25483, Note_on_c, 0, 51, 0
2,25567, Note_on_c, 0, 66, 0
2,25568, Note_on_c, 0, 68, 71
2,25684, Note_on_c, 0, 54, 77
2,25685, Note_on_c, 0, 68, 0
2,25691, Note_on_c, 0, 70, 67
2,25792, Note_on_c, 0, 54, 0
2,25800, Note_on_c, 0, 53, 76
2,25804, Note_on_c, 0, 70, 0
2,25807, Note_on_c, 0, 68, 72
2,25889, Note_on_c, 0, 53, 0
2,25911, Note_on_c, 0, 68, 0
2,25925, Note_on_c, 0, 66, 71
2,25929, Note_on_c, 0, 51, 73
2,25999, Note_on_c, 0, 51, 0
2,26037, Note_on_c, 0, 53, 78
2,26037, Note_on_c, 0, 68, 78
2,26043, Note_on_c, 0, 66, 0
2,26097, Note_on_c, 0, 53, 0
2,26166, Note_on_c, 0, 70, 76
2,26167, Note_on_c, 0, 68, 0
2,26171, Note_on_c, 0, 61, 78
2,26216, Note_on_c, 0, 61, 0
2,26284, Note_on_c, 0, 68, 80
2,26287, Note_on_c, 0, 70, 0
2,26410, Note_on_c, 0, 58, 78
2,26414, Note_on_c, 0, 66, 75
2,26420, Note_on_c, 0, 68, 0
2,26441, Note_on_c, 0, 58, 0
2,26516, Note_on_c, 0, 66, 0
2,26529, Note_on_c, 0, 65, 76
2,26658, Note_on_c, 0, 65, 0
2,26667, Note_on_c, 0, 53, 71
2,26667, Note_on_c, 0, 66, 71
2,26902, Note_on_c, 0, 53, 0
2,26914, Note_on_c, 0, 51, 69
2,27014, Note_on_c, 0, 51, 0
2,27036, Note_on_c, 0, 49, 62
2,27137, Note_on_c, 0, 49, 0
2,27154, Note_on_c, 0, 51, 73
2,27195, Note_on_c, 0, 51, 0
2,27248, Note_on_c, 0, 66, 0
2,27268, Note_on_c, 0, 65, 66
2,27374, Note_on_c, 0, 65, 0
2,27388, Note_on_c, 0, 63, 65
2,27390, Note_on_c, 0, 60, 63
2,27421, Note_on_c, 0, 60, 0
2,27496, Note_on_c, 0, 63, 0
2,27510, Note_on_c, 0, 66, 64
2,27623, Note_on_c, 0, 49, 58
2,27632, Note_on_c, 0, 65, 62
2,27633, Note_on_c, 0, 66, 0
2,27664, Note_on_c, 0, 49, 0
2,27745, Note_on_c, 0, 65, 0
2,27749, Note_on_c, 0, 63, 66
2,27840, Note_on_c, 0, 63, 0
2,27861, Note_on_c, 0, 61, 60
2,27872, Note_on_c, 0, 58, 62
2,27911, Note_on_c, 0, 58, 0
2,27976, Note_on_c, 0, 61, 0
2,27990, Note_on_c, 0, 65, 58
2,28107, Note_on_c, 0, 48, 52
2,28109, Note_on_c, 0, 65, 0
2,28110, Note_on_c, 0, 63, 59
2,28145, Note_on_c, 0, 48, 0
2,28207, Note_on_c, 0, 63, 0
2,28230, Note_on_c, 0, 61, 59
2,28340, Note_on_c, 0, 61, 0
2,28349, Note_on_c, 0, 63, 57
2,28363, Note_on_c, 0, 57, 49
2,28398, Note_on_c, 0, 57, 0
2,28428, Note_on_c, 0, 63, 0
2,28464, Note_on_c, 0, 60, 58
2,28540, Note_on_c, 0, 60, 0
2,28583, Note_on_c, 0, 61, 59
2,28590, Note_on_c, 0, 46, 41
2,28634, Note_on_c, 0, 46, 0
2,28644, Note_on_c, 0, 61, 0
2,28705, Note_on_c, 0, 65, 63
2,28808, Note_on_c, 0, 65, 0
2,28814, Note_on_c, 0, 58, 53
2,28819, Note_on_c, 0, 66, 63
2,28904, Note_on_c, 0, 66, 0
2,28913, Note_on_c, 0, 58, 0
2,28934, Note_on_c, 0, 65, 63
2,28938, Note_on_c, 0, 57, 57
2,29060, Note_on_c, 0, 65, 0
2,29064, Note_on_c, 0, 57, 0
2,29081, Note_on_c, 0, 73, 63
2,29082, Note_on_c, 0, 58, 53
2,29175, Note_on_c, 0, 58, 0
2,29203, Note_on_c, 0, 60, 56
2,29270, Note_on_c, 0, 60, 0
2,29320, Note_on_c, 0, 61, 50
2,29326, Note_on_c, 0, 65, 55
2,29384, Note_on_c, 0, 65, 0
2,29387, Note_on_c, 0, 61, 0
2,29430, Note_on_c, 0, 58, 54
2,29520, Note_on_c, 0, 58, 0
2,29556, Note_on_c, 0, 70, 63
2,29559, Note_on_c, 0, 55, 47
2,29577, Note_on_c, 0, 73, 0
2,29630, Note_on_c, 0, 55, 0
2,29672, Note_on_c, 0, 56, 57
2,29672, Note_on_c, 0, 70, 0
2,29678, Note_on_c, 0, 72, 72
2,29733, Note_on_c, 0, 56, 0
2,29796, Note_on_c, 0, 72, 0
2,29800, Note_on_c, 0, 73, 68
2,29801, Note_on_c, 0, 58, 56
2,29851, Note_on_c, 0, 73, 0
2,29870, Note_on_c, 0, 58, 0
2,29903, Note_on_c, 0, 70, 69
2,29905, Note_on_c, 0, 55, 54
2,29999, Note_on_c, 0, 55, 0
2,30001, Note_on_c, 0, 70, 0
2,30025, Note_on_c, 0, 51, 61
2,30033, Note_on_c, 0, 82, 73
2,30108, Note_on_c, 0, 51, 0
2,30147, Note_on_c, 0, 53, 55
2,30164, Note_on_c, 0, 73, 58
2,30192, Note_on_c, 0, 53, 0
2,30252, Note_on_c, 0, 73, 0
2,30258, Note_on_c, 0, 55, 56
2,30272, Note_on_c, 0, 75, 65
2,30304, Note_on_c, 0, 82, 0
2,30332, Note_on_c, 0, 55, 0
2,30345, Note_on_c, 0, 75, 0
2,30355, Note_on_c, 0, 51, 57
2,30380, Note_on_c, 0, 70, 64
2,30439, Note_on_c, 0, 51, 0
2,30439, Note_on_c, 0, 70, 0
2,30494, Note_on_c, 0, 72, 69
2,30499, Note_on_c, 0, 44, 54
2,30531, Note_on_c, 0, 72, 0
2,30554, Note_on_c, 0, 44, 0
2,30616, Note_on_c, 0, 63, 65
2,30698, Note_on_c, 0, 63, 0
2,30732, Note_on_c, 0, 65, 62
2,30740, Note_on_c, 0, 56, 57
2,30834, Note_on_c, 0, 65, 0
2,30836, Note_on_c, 0, 56, 0
2,30848, Note_on_c, 0, 63, 61
2,30864, Note_on_c, 0, 55, 52
2,30959, Note_on_c, 0, 55, 0
2,30964, Note_on_c, 0, 63, 0
2,30979, Note_on_c, 0, 72, 65
2,30983, Note_on_c, 0, 56, 56
2,31069, Note_on_c, 0, 56, 0
2,31099, Note_on_c, 0, 58, 52
2,31172, Note_on_c, 0, 58, 0
2,31216, Note_on_c, 0, 60, 50
2,31245, Note_on_c, 0, 63, 45
2,31308, Note_on_c, 0, 60, 0
2,31320, Note_on_c, 0, 63, 0
2,31343, Note_on_c, 0, 56, 50
2,31428, Note_on_c, 0, 56, 0
2,31468, Note_on_c, 0, 53, 46
2,31468, Note_on_c, 0, 68, 58
2,31487, Note_on_c, 0, 72, 0
2,31548, Note_on_c, 0, 53, 0
2,31584, Note_on_c, 0, 55, 54
2,31587, Note_on_c, 0, 70, 66
2,31646, Note_on_c, 0, 55, 0
2,31701, Note_on_c, 0, 72, 67
2,31708, Note_on_c, 0, 56, 54
2,31723, Note_on_c, 0, 70, 0
2,31726, Note_on_c, 0, 68, 0
2,31757, Note_on_c, 0, 72, 0
2,31780, Note_on_c, 0, 56, 0
2,31814, Note_on_c, 0, 53, 54
2,31817, Note_on_c, 0, 68, 69
2,31910, Note_on_c, 0, 53, 0
2,31916, Note_on_c, 0, 68, 0
2,31937, Note_on_c, 0, 49, 55
2,31939, Note_on_c, 0, 80, 71
2,32036, Note_on_c, 0, 49, 0
2,32060, Note_on_c, 0, 51, 54
2,32080, Note_on_c, 0, 72, 59
2,32121, Note_on_c, 0, 51, 0
2,32173, Note_on_c, 0, 72, 0
2,32176, Note_on_c, 0, 53, 58
2,32191, Note_on_c, 0, 73, 64
2,32217, Note_on_c, 0, 80, 0
2,32268, Note_on_c, 0, 53, 0
2,32271, Note_on_c, 0, 73, 0
2,32283, Note_on_c, 0, 49, 54
2,32301, Note_on_c, 0, 68, 62
2,32355, Note_on_c, 0, 68, 0
2,32369, Note_on_c, 0, 49, 0
2,32408, Note_on_c, 0, 43, 58
2,32416, Note_on_c, 0, 70, 63
2,32448, Note_on_c, 0, 70, 0
2,32453, Note_on_c, 0, 43, 0
2,32524, Note_on_c, 0, 61, 66
2,32591, Note_on_c, 0, 61, 0
2,32646, Note_on_c, 0, 55, 47
2,32655, Note_on_c, 0, 63, 65
2,32724, Note_on_c, 0, 55, 0
2,32754, Note_on_c, 0, 63, 0
2,32765, Note_on_c, 0, 53, 50
2,32771, Note_on_c, 0, 61, 55
2,32867, Note_on_c, 0, 53, 0
2,32880, Note_on_c, 0, 61, 0
2,32900, Note_on_c, 0, 55, 54
2,32908, Note_on_c, 0, 70, 53
2,32996, Note_on_c, 0, 55, 0
2,33028, Note_on_c, 0, 56, 49
2,33111, Note_on_c, 0, 56, 0
2,33152, Note_on_c, 0, 58, 52
2,33159, Note_on_c, 0, 61, 54
2,33217, Note_on_c, 0, 61, 0
2,33223, Note_on_c, 0, 58, 0
2,33272, Note_on_c, 0, 55, 42
2,33353, Note_on_c, 0, 55, 0
2,33385, Note_on_c, 0, 52, 51
2,33388, Note_on_c, 0, 67, 56
2,33451, Note_on_c, 0, 70, 0
2,33464, Note_on_c, 0, 52, 0
2,33503, Note_on_c, 0, 68, 62
2,33505, Note_on_c, 0, 53, 53
2,33547, Note_on_c, 0, 67, 0
2,33571, Note_on_c, 0, 53, 0
2,33628, Note_on_c, 0, 55, 53
2,33629, Note_on_c, 0, 70, 63
2,33671, Note_on_c, 0, 68, 0
2,33695, Note_on_c, 0, 70, 0
2,33720, Note_on_c, 0, 55, 0
2,33740, Note_on_c, 0, 52, 54
2,33743, Note_on_c, 0, 67, 65
2,33843, Note_on_c, 0, 67, 0
2,33845, Note_on_c, 0, 52, 0
2,33870, Note_on_c, 0, 79, 73
2,33872, Note_on_c, 0, 48, 57
2,33949, Note_on_c, 0, 48, 0
2,33984, Note_on_c, 0, 50, 59
2,33991, Note_on_c, 0, 70, 63
2,34054, Note_on_c, 0, 50, 0
2,34070, Note_on_c, 0, 70, 0
2,34101, Note_on_c, 0, 52, 58
2,34105, Note_on_c, 0, 72, 70
2,34168, Note_on_c, 0, 72, 0
2,34197, Note_on_c, 0, 52, 0
2,34205, Note_on_c, 0, 67, 71
2,34211, Note_on_c, 0, 48, 58
2,34234, Note_on_c, 0, 67, 0
2,34304, Note_on_c, 0, 48, 0
2,34328, Note_on_c, 0, 41, 62
2,34332, Note_on_c, 0, 68, 79
2,34376, Note_on_c, 0, 79, 0
2,34441, Note_on_c, 0, 41, 0
2,34449, Note_on_c, 0, 76, 74
2,34451, Note_on_c, 0, 43, 61
2,34572, Note_on_c, 0, 43, 0
2,34575, Note_on_c, 0, 44, 69
2,34575, Note_on_c, 0, 77, 87
2,34584, Note_on_c, 0, 76, 0
2,34597, Note_on_c, 0, 68, 0
2,34679, Note_on_c, 0, 77, 0
2,34684, Note_on_c, 0, 44, 0
2,34685, Note_on_c, 0, 46, 72
2,34685, Note_on_c, 0, 73, 84
2,34773, Note_on_c, 0, 46, 0
2,34785, Note_on_c, 0, 73, 0
2,34797, Note_on_c, 0, 48, 63
2,34811, Note_on_c, 0, 70, 74
2,34897, Note_on_c, 0, 48, 0
2,34907, Note_on_c, 0, 50, 65
2,35034, Note_on_c, 0, 50, 0
2,35046, Note_on_c, 0, 52, 69
2,35052, Note_on_c, 0, 60, 77
2,35088, Note_on_c, 0, 60, 0
2,35145, Note_on_c, 0, 52, 0
2,35161, Note_on_c, 0, 48, 69
2,35271, Note_on_c, 0, 48, 0
2,35304, Note_on_c, 0, 61, 80
2,35310, Note_on_c, 0, 53, 65
2,35381, Note_on_c, 0, 70, 0
2,35412, Note_on_c, 0, 61, 0
2,35419, Note_on_c, 0, 53, 0
2,35423, Note_on_c, 0, 60, 81
2,35428, Note_on_c, 0, 51, 71
2,35530, Note_on_c, 0, 51, 0
2,35543, Note_on_c, 0, 49, 64
2,35544, Note_on_c, 0, 58, 83
2,35547, Note_on_c, 0, 60, 0
2,35630, Note_on_c, 0, 58, 0
2,35646, Note_on_c, 0, 49, 0
2,35648, Note_on_c, 0, 60, 84
2,35653, Note_on_c, 0, 51, 75
2,35749, Note_on_c, 0, 60, 0
2,35757, Note_on_c, 0, 51, 0
2,35781, Note_on_c, 0, 68, 86
2,35783, Note_on_c, 0, 53, 66
2,35905, Note_on_c, 0, 51, 72
2,35905, Note_on_c, 0, 53, 0
2,36031, Note_on_c, 0, 65, 76
2,36037, Note_on_c, 0, 51, 0
2,36046, Note_on_c, 0, 49, 66
2,36085, Note_on_c, 0, 65, 0
2,36169, Note_on_c, 0, 49, 0
2,36176, Note_on_c, 0, 48, 77
2,36315, Note_on_c, 0, 60, 77
2,36321, Note_on_c, 0, 48, 0
2,36322, Note_on_c, 0, 49, 73
2,36334, Note_on_c, 0, 68, 0
2,36576, Note_on_c, 0, 60, 0
2,36588, Note_on_c, 0, 58, 70
2,36684, Note_on_c, 0, 58, 0
2,36704, Note_on_c, 0, 56, 77
2,36775, Note_on_c, 0, 56, 0
2,36837, Note_on_c, 0, 58, 67
2,36841, Note_on_c, 0, 67, 77
2,36903, Note_on_c, 0, 67, 0
2,36941, Note_on_c, 0, 48, 66
2,36967, Note_on_c, 0, 49, 0
2,37056, Note_on_c, 0, 48, 0
2,37071, Note_on_c, 0, 46, 66
2,37075, Note_on_c, 0, 67, 80
2,37097, Note_on_c, 0, 58, 0
2,37178, Note_on_c, 0, 46, 0
2,37184, Note_on_c, 0, 49, 66
2,37279, Note_on_c, 0, 49, 0
2,37305, Note_on_c, 0, 67, 0
2,37308, Note_on_c, 0, 48, 66
2,37319, Note_on_c, 0, 56, 75
2,37373, Note_on_c, 0, 56, 0
2,37417, Note_on_c, 0, 48, 0
2,37420, Note_on_c, 0, 46, 68
2,37560, Note_on_c, 0, 46, 0
2,37560, Note_on_c, 0, 65, 81
2,37564, Note_on_c, 0, 44, 69
2,37614, Note_on_c, 0, 65, 0
2,37651, Note_on_c, 0, 44, 0
2,37668, Note_on_c, 0, 48, 70
2,37789, Note_on_c, 0, 48, 0
2,37795, Note_on_c, 0, 46, 71
2,37796, Note_on_c, 0, 64, 78
2,37797, Note_on_c, 0, 55, 61
2,37830, Note_on_c, 0, 55, 0
2,37836, Note_on_c, 0, 64, 0
2,37894, Note_on_c, 0, 46, 0
2,37900, Note_on_c, 0, 44, 70
2,38023, Note_on_c, 0, 46, 73
2,38025, Note_on_c, 0, 44, 0
2,38031, Note_on_c, 0, 67, 80
2,38035, Note_on_c, 0, 64, 74
2,38065, Note_on_c, 0, 64, 0
2,38080, Note_on_c, 0, 67, 0
2,38137, Note_on_c, 0, 46, 0
2,38144, Note_on_c, 0, 43, 77
2,38274, Note_on_c, 0, 43, 0
2,38294, Note_on_c, 0, 72, 86
2,38295, Note_on_c, 0, 44, 75
2,38296, Note_on_c, 0, 53, 74
2,38360, Note_on_c, 0, 44, 0
2,38412, Note_on_c, 0, 70, 76
2,38414, Note_on_c, 0, 72, 0
2,38527, Note_on_c, 0, 70, 0
2,38537, Note_on_c, 0, 68, 74
2,38539, Note_on_c, 0, 49, 64
2,38580, Note_on_c, 0, 49, 0
2,38634, Note_on_c, 0, 68, 0
2,38652, Note_on_c, 0, 72, 76
2,38747, Note_on_c, 0, 72, 0
2,38762, Note_on_c, 0, 43, 63
2,38769, Note_on_c, 0, 70, 73
2,38770, Note_on_c, 0, 53, 0
2,38799, Note_on_c, 0, 43, 0
2,38878, Note_on_c, 0, 70, 0
2,38883, Note_on_c, 0, 68, 75
2,39003, Note_on_c, 0, 68, 0
2,39011, Note_on_c, 0, 67, 66
2,39014, Note_on_c, 0, 48, 42
2,39014, Note_on_c, 0, 52, 55
2,39044, Note_on_c, 0, 48, 0
2,39055, Note_on_c, 0, 52, 0
2,39123, Note_on_c, 0, 67, 0
2,39130, Note_on_c, 0, 70, 70
2,39249, Note_on_c, 0, 41, 50
2,39259, Note_on_c, 0, 68, 64
2,39262, Note_on_c, 0, 70, 0
2,39281, Note_on_c, 0, 41, 0
2,39304, Note_on_c, 0, 53, 3
2,39334, Note_on_c, 0, 68, 0
2,39348, Note_on_c, 0, 53, 0
2,39375, Note_on_c, 0, 65, 60
2,39464, Note_on_c, 0, 65, 0
2,39473, Note_on_c, 0, 52, 53
2,39488, Note_on_c, 0, 46, 38
2,39494, Note_on_c, 0, 73, 61
2,39522, Note_on_c, 0, 52, 0
2,39537, Note_on_c, 0, 46, 0
2,39591, Note_on_c, 0, 73, 0
2,39596, Note_on_c, 0, 70, 66
2,39697, Note_on_c, 0, 70, 0
2,39727, Note_on_c, 0, 72, 69
2,39739, Note_on_c, 0, 44, 51
2,39741, Note_on_c, 0, 53, 57
2,39778, Note_on_c, 0, 53, 0
2,39792, Note_on_c, 0, 44, 0
2,39794, Note_on_c, 0, 72, 0
2,39838, Note_on_c, 0, 68, 78
2,39957, Note_on_c, 0, 68, 0
2,39958, Note_on_c, 0, 78, 85
2,39966, Note_on_c, 0, 49, 61
2,39973, Note_on_c, 0, 58, 63
2,40014, Note_on_c, 0, 49, 0
2,40038, Note_on_c, 0, 58, 0
2,40053, Note_on_c, 0, 78, 0
2,40077, Note_on_c, 0, 76, 86
2,40133, Note_on_c, 0, 76, 0
2,40195, Note_on_c, 0, 76, 88
2,40205, Note_on_c, 0, 56, 65
2,40206, Note_on_c, 0, 48, 59
2,40309, Note_on_c, 0, 77, 93
2,40317, Note_on_c, 0, 76, 0
2,40421, Note_on_c, 0, 56, 0
2,40424, Note_on_c, 0, 77, 0
2,40429, Note_on_c, 0, 55, 68
2,40437, Note_on_c, 0, 83, 89
2,40518, Note_on_c, 0, 55, 0
2,40539, Note_on_c, 0, 83, 0
2,40553, Note_on_c, 0, 84, 87
2,40557, Note_on_c, 0, 53, 63
2,40625, Note_on_c, 0, 84, 0
2,40650, Note_on_c, 0, 53, 0
2,40679, Note_on_c, 0, 55, 64
2,40680, Note_on_c, 0, 77, 71
2,40712, Note_on_c, 0, 77, 0
2,40723, Note_on_c, 0, 55, 0
2,40750, Note_on_c, 0, 76, 65
2,40781, Note_on_c, 0, 76, 0
2,40798, Note_on_c, 0, 77, 65
2,40830, Note_on_c, 0, 77, 0
2,40858, Note_on_c, 0, 76, 62
2,40883, Note_on_c, 0, 76, 0
2,40889, Note_on_c, 0, 77, 74
2,40917, Note_on_c, 0, 77, 0
2,40923, Note_on_c, 0, 58, 62
2,40931, Note_on_c, 0, 48, 0
2,40941, Note_on_c, 0, 76, 75
2,40953, Note_on_c, 0, 58, 0
2,41108, Note_on_c, 0, 76, 0
2,41121, Note_on_c, 0, 77, 65
2,41180, Note_on_c, 0, 77, 0
2,41263, Note_on_c, 0, 56, 39
2,41281, Note_on_c, 0, 53, 35
2,41298, Note_on_c, 0, 77, 68
2,41383, Note_on_c, 0, 56, 0
2,41390, Note_on_c, 0, 53, 0
2,41423, Note_on_c, 0, 58, 48
2,41481, Note_on_c, 0, 58, 0
2,41536, Note_on_c, 0, 60, 46
2,41616, Note_on_c, 0, 60, 0
2,41650, Note_on_c, 0, 56, 49
2,41696, Note_on_c, 0, 77, 0
2,41762, Note_on_c, 0, 56, 0
2,41787, Note_on_c, 0, 53, 55
2,41855, Note_on_c, 0, 53, 0
2,41889, Note_on_c, 0, 54, 58
2,41971, Note_on_c, 0, 54, 0
2,42015, Note_on_c, 0, 56, 54
2,42027, Note_on_c, 0, 77, 68
2,42084, Note_on_c, 0, 77, 0
2,42112, Note_on_c, 0, 56, 0
2,42145, Note_on_c, 0, 53, 49
2,42244, Note_on_c, 0, 53, 0
2,42277, Note_on_c, 0, 50, 51
2,42284, Note_on_c, 0, 71, 61
2,42368, Note_on_c, 0, 50, 0
2,42390, Note_on_c, 0, 51, 60
2,42396, Note_on_c, 0, 71, 0
2,42403, Note_on_c, 0, 70, 67
2,42457, Note_on_c, 0, 51, 0
2,42490, Note_on_c, 0, 70, 0
2,42518, Note_on_c, 0, 68, 72
2,42522, Note_on_c, 0, 53, 53
2,42601, Note_on_c, 0, 68, 0
2,42602, Note_on_c, 0, 53, 0
2,42636, Note_on_c, 0, 70, 71
2,42638, Note_on_c, 0, 50, 49
2,42720, Note_on_c, 0, 70, 0
2,42728, Note_on_c, 0, 50, 0
2,42762, Note_on_c, 0, 46, 51
2,42763, Note_on_c, 0, 77, 75
2,42800, Note_on_c, 0, 77, 0
2,42884, Note_on_c, 0, 46, 0
2,42887, Note_on_c, 0, 50, 49
2,43002, Note_on_c, 0, 50, 0
2,43012, Note_on_c, 0, 74, 64
2,43025, Note_on_c, 0, 53, 51
2,43057, Note_on_c, 0, 74, 0
2,43090, Note_on_c, 0, 53, 0
2,43139, Note_on_c, 0, 58, 55
2,43234, Note_on_c, 0, 58, 0
2,43263, Note_on_c, 0, 68, 67
2,43267, Note_on_c, 0, 51, 56
2,43375, Note_on_c, 0, 51, 0
2,43388, Note_on_c, 0, 54, 56
2,43502, Note_on_c, 0, 68, 0
2,43507, Note_on_c, 0, 54, 0
2,43515, Note_on_c, 0, 66, 64
2,43521, Note_on_c, 0, 58, 54
2,43582, Note_on_c, 0, 58, 0
2,43613, Note_on_c, 0, 66, 0
2,43632, Note_on_c, 0, 65, 68
2,43636, Note_on_c, 0, 62, 50
2,43726, Note_on_c, 0, 65, 0
2,43737, Note_on_c, 0, 62, 0
2,43757, Note_on_c, 0, 66, 66
2,43761, Note_on_c, 0, 63, 55
2,43797, Note_on_c, 0, 66, 0
2,43848, Note_on_c, 0, 63, 0
2,43873, Note_on_c, 0, 65, 57
2,43962, Note_on_c, 0, 65, 0
2,43989, Note_on_c, 0, 66, 59
2,43995, Note_on_c, 0, 75, 75
2,44035, Note_on_c, 0, 75, 0
2,44077, Note_on_c, 0, 66, 0
2,44104, Note_on_c, 0, 63, 60
2,44202, Note_on_c, 0, 63, 0
2,44230, Note_on_c, 0, 69, 65
2,44231, Note_on_c, 0, 60, 55
2,44293, Note_on_c, 0, 60, 0
2,44353, Note_on_c, 0, 69, 0
2,44356, Note_on_c, 0, 61, 54
2,44358, Note_on_c, 0, 68, 75
2,44413, Note_on_c, 0, 61, 0
2,44447, Note_on_c, 0, 68, 0
2,44472, Note_on_c, 0, 66, 75
2,44477, Note_on_c, 0, 63, 54
2,44533, Note_on_c, 0, 63, 0
2,44560, Note_on_c, 0, 66, 0
2,44585, Note_on_c, 0, 68, 79
2,44594, Note_on_c, 0, 60, 64
2,44625, Note_on_c, 0, 60, 0
2,44714, Note_on_c, 0, 68, 0
2,44714, Note_on_c, 0, 75, 84
2,44726, Note_on_c, 0, 56, 68
2,44772, Note_on_c, 0, 75, 0
2,44796, Note_on_c, 0, 56, 0
2,44819, Note_on_c, 0, 44, 66
2,44936, Note_on_c, 0, 44, 0
2,44949, Note_on_c, 0, 46, 65
2,44960, Note_on_c, 0, 72, 76
2,44983, Note_on_c, 0, 72, 0
2,45049, Note_on_c, 0, 46, 0
2,45056, Note_on_c, 0, 48, 73
2,45197, Note_on_c, 0, 48, 0
2,45206, Note_on_c, 0, 49, 65
2,45216, Note_on_c, 0, 66, 60
2,45339, Note_on_c, 0, 56, 58
2,45409, Note_on_c, 0, 66, 0
2,45425, Note_on_c, 0, 56, 0
2,45461, Note_on_c, 0, 65, 65
2,45470, Note_on_c, 0, 58, 59
2,45515, Note_on_c, 0, 58, 0
2,45542, Note_on_c, 0, 65, 0
2,45572, Note_on_c, 0, 63, 67
2,45587, Note_on_c, 0, 60, 63
2,45631, Note_on_c, 0, 60, 0
2,45658, Note_on_c, 0, 63, 0
2,45711, Note_on_c, 0, 65, 60
2,45714, Note_on_c, 0, 61, 51
2,45797, Note_on_c, 0, 49, 0
2,45808, Note_on_c, 0, 61, 0
2,45814, Note_on_c, 0, 51, 57
2,45817, Note_on_c, 0, 68, 65
2,45820, Note_on_c, 0, 65, 0
2,45848, Note_on_c, 0, 68, 0
2,45923, Note_on_c, 0, 51, 0
2,45944, Note_on_c, 0, 53, 57
2,45949, Note_on_c, 0, 73, 71
2,46015, Note_on_c, 0, 53, 0
2,46057, Note_on_c, 0, 75, 80
2,46058, Note_on_c, 0, 73, 0
2,46062, Note_on_c, 0, 55, 58
2,46157, Note_on_c, 0, 75, 0
2,46167, Note_on_c, 0, 55, 0
2,46183, Note_on_c, 0, 56, 68
2,46185, Note_on_c, 0, 77, 86
2,46293, Note_on_c, 0, 77, 0
2,46297, Note_on_c, 0, 75, 84
2,46299, Note_on_c, 0, 56, 0
2,46308, Note_on_c, 0, 55, 66
2,46404, Note_on_c, 0, 55, 0
2,46410, Note_on_c, 0, 73, 79
2,46410, Note_on_c, 0, 75, 0
2,46416, Note_on_c, 0, 53, 68
2,46521, Note_on_c, 0, 75, 84
2,46525, Note_on_c, 0, 55, 71
2,46525, Note_on_c, 0, 73, 0
2,46530, Note_on_c, 0, 53, 0
2,46572, Note_on_c, 0, 75, 0
2,46641, Note_on_c, 0, 84, 91
2,46642, Note_on_c, 0, 72, 72
2,46658, Note_on_c, 0, 55, 0
2,46667, Note_on_c, 0, 56, 69
2,46701, Note_on_c, 0, 84, 0
2,46774, Note_on_c, 0, 56, 0
2,46793, Note_on_c, 0, 55, 67
2,46899, Note_on_c, 0, 80, 85
2,46908, Note_on_c, 0, 55, 0
2,46913, Note_on_c, 0, 53, 74
2,46957, Note_on_c, 0, 80, 0
2,47018, Note_on_c, 0, 53, 0
2,47021, Note_on_c, 0, 51, 79
2,47158, Note_on_c, 0, 51, 0
2,47173, Note_on_c, 0, 75, 84
2,47176, Note_on_c, 0, 53, 74
2,47188, Note_on_c, 0, 72, 0
2,47447, Note_on_c, 0, 73, 76
2,47468, Note_on_c, 0, 75, 0
2,47557, Note_on_c, 0, 73, 0
2,47563, Note_on_c, 0, 72, 80
2,47681, Note_on_c, 0, 72, 0
2,47685, Note_on_c, 0, 73, 78
2,47688, Note_on_c, 0, 70, 67
2,47726, Note_on_c, 0, 73, 0
2,47787, Note_on_c, 0, 53, 0
2,47798, Note_on_c, 0, 51, 69
2,47900, Note_on_c, 0, 51, 0
2,47911, Note_on_c, 0, 49, 67
2,47915, Note_on_c, 0, 82, 78
2,47948, Note_on_c, 0, 70, 0
2,47969, Note_on_c, 0, 82, 0
2,47997, Note_on_c, 0, 49, 0
2,48034, Note_on_c, 0, 53, 67
2,48153, Note_on_c, 0, 53, 0
2,48159, Note_on_c, 0, 51, 69
2,48159, Note_on_c, 0, 72, 72
2,48202, Note_on_c, 0, 72, 0
2,48257, Note_on_c, 0, 51, 0
2,48274, Note_on_c, 0, 49, 60
2,48389, Note_on_c, 0, 49, 0
2,48404, Note_on_c, 0, 80, 70
2,48408, Note_on_c, 0, 48, 62
2,48409, Note_on_c, 0, 68, 64
2,48441, Note_on_c, 0, 68, 0
2,48448, Note_on_c, 0, 80, 0
2,48477, Note_on_c, 0, 48, 0
2,48518, Note_on_c, 0, 51, 67
2,48630, Note_on_c, 0, 51, 0
2,48642, Note_on_c, 0, 70, 67
2,48644, Note_on_c, 0, 49, 62
2,48650, Note_on_c, 0, 67, 58
2,48679, Note_on_c, 0, 70, 0
2,48687, Note_on_c, 0, 67, 0
2,48748, Note_on_c, 0, 49, 0
2,48764, Note_on_c, 0, 48, 61
2,48854, Note_on_c, 0, 48, 0
2,48876, Note_on_c, 0, 46, 56
2,48899, Note_on_c, 0, 79, 66
2,48902, Note_on_c, 0, 70, 62
2,48929, Note_on_c, 0, 79, 0
2,48931, Note_on_c, 0, 70, 0
2,48979, Note_on_c, 0, 46, 0
2,49003, Note_on_c, 0, 49, 58
2,49099, Note_on_c, 0, 49, 0
2,49145, Note_on_c, 0, 48, 63
2,49149, Note_on_c, 0, 63, 56
2,49150, Note_on_c, 0, 68, 61
2,49175, Note_on_c, 0, 48, 0
2,49185, Note_on_c, 0, 63, 0
2,49269, Note_on_c, 0, 63, 62
2,49360, Note_on_c, 0, 63, 0
2,49385, Note_on_c, 0, 68, 0
2,49395, Note_on_c, 0, 65, 66
2,49397, Note_on_c, 0, 51, 80
2,49424, Note_on_c, 0, 51, 0
2,49509, Note_on_c, 0, 65, 0
2,49510, Note_on_c, 0, 67, 66
2,49628, Note_on_c, 0, 68, 76
2,49630, Note_on_c, 0, 67, 0
2,49632, Note_on_c, 0, 54, 78
2,49749, Note_on_c, 0, 68, 0
2,49766, Note_on_c, 0, 70, 67
2,49890, Note_on_c, 0, 70, 0
2,49894, Note_on_c, 0, 72, 74
2,49898, Note_on_c, 0, 56, 71
2,49957, Note_on_c, 0, 56, 0
2,49971, Note_on_c, 0, 72, 0
2,50013, Note_on_c, 0, 68, 74
2,50110, Note_on_c, 0, 68, 0
2,50138, Note_on_c, 0, 73, 67
2,50141, Note_on_c, 0, 58, 80
2,50161, Note_on_c, 0, 54, 0
2,50244, Note_on_c, 0, 73, 0
2,50253, Note_on_c, 0, 58, 0
2,50253, Note_on_c, 0, 72, 72
2,50261, Note_on_c, 0, 56, 73
2,50366, Note_on_c, 0, 56, 0
2,50383, Note_on_c, 0, 54, 74
2,50389, Note_on_c, 0, 70, 75
2,50390, Note_on_c, 0, 72, 0
2,50495, Note_on_c, 0, 56, 73
2,50505, Note_on_c, 0, 54, 0
2,50505, Note_on_c, 0, 70, 0
2,50508, Note_on_c, 0, 72, 84
2,50582, Note_on_c, 0, 56, 0
2,50614, Note_on_c, 0, 72, 0
2,50630, Note_on_c, 0, 65, 76
2,50630, Note_on_c, 0, 73, 79
2,50633, Note_on_c, 0, 53, 72
2,50688, Note_on_c, 0, 65, 0
2,50721, Note_on_c, 0, 73, 0
2,50739, Note_on_c, 0, 72, 80
2,50842, Note_on_c, 0, 72, 0
2,50867, Note_on_c, 0, 70, 69
2,50873, Note_on_c, 0, 61, 74
2,50902, Note_on_c, 0, 61, 0
2,50949, Note_on_c, 0, 70, 0
2,50977, Note_on_c, 0, 68, 69
2,51099, Note_on_c, 0, 68, 0
2,51113, Note_on_c, 0, 70, 68
2,51120, Note_on_c, 0, 56, 69
2,51123, Note_on_c, 0, 53, 0
2,51369, Note_on_c, 0, 56, 0
2,51382, Note_on_c, 0, 54, 66
2,51461, Note_on_c, 0, 54, 0
2,51486, Note_on_c, 0, 53, 62
2,51602, Note_on_c, 0, 53, 0
2,51602, Note_on_c, 0, 54, 64
2,51612, Note_on_c, 0, 51, 72
2,51642, Note_on_c, 0, 54, 0
2,51742, Note_on_c, 0, 68, 60
2,51742, Note_on_c, 0, 70, 0
2,51856, Note_on_c, 0, 68, 0
2,51862, Note_on_c, 0, 63, 69
2,51867, Note_on_c, 0, 66, 58
2,51899, Note_on_c, 0, 63, 0
2,51972, Note_on_c, 0, 66, 0
2,51980, Note_on_c, 0, 70, 64
2,52098, Note_on_c, 0, 51, 0
2,52100, Note_on_c, 0, 53, 70
2,52107, Note_on_c, 0, 68, 72
2,52108, Note_on_c, 0, 70, 0
2,52134, Note_on_c, 0, 53, 0
2,52213, Note_on_c, 0, 68, 0
2,52219, Note_on_c, 0, 66, 65
2,52320, Note_on_c, 0, 66, 0
2,52337, Note_on_c, 0, 65, 63
2,52340, Note_on_c, 0, 61, 61
2,52343, Note_on_c, 0, 49, 55
2,52370, Note_on_c, 0, 61, 0
2,52372, Note_on_c, 0, 49, 0
2,52419, Note_on_c, 0, 65, 0
2,52452, Note_on_c, 0, 68, 65
2,52572, Note_on_c, 0, 51, 60
2,52574, Note_on_c, 0, 68, 0
2,52577, Note_on_c, 0, 66, 67
2,52613, Note_on_c, 0, 51, 0
2,52683, Note_on_c, 0, 66, 0
2,52690, Note_on_c, 0, 65, 63
2,52809, Note_on_c, 0, 44, 52
2,52822, Note_on_c, 0, 65, 0
2,52830, Note_on_c, 0, 63, 54
2,52834, Note_on_c, 0, 60, 48
2,52852, Note_on_c, 0, 44, 0
2,52890, Note_on_c, 0, 60, 0
2,52934, Note_on_c, 0, 66, 60
2,52935, Note_on_c, 0, 63, 0
2,52999, Note_on_c, 0, 66, 0
2,53062, Note_on_c, 0, 65, 60
2,53068, Note_on_c, 0, 61, 46
2,53076, Note_on_c, 0, 49, 52
2,53114, Note_on_c, 0, 65, 0
2,53115, Note_on_c, 0, 61, 0
2,53161, Note_on_c, 0, 49, 0
2,53190, Note_on_c, 0, 51, 58
2,53271, Note_on_c, 0, 51, 0
2,53314, Note_on_c, 0, 53, 55
2,53314, Note_on_c, 0, 68, 64
2,53357, Note_on_c, 0, 68, 0
2,53412, Note_on_c, 0, 53, 0
2,53425, Note_on_c, 0, 54, 60
2,53527, Note_on_c, 0, 54, 0
2,53555, Note_on_c, 0, 53, 54
2,53568, Note_on_c, 0, 73, 60
2,53626, Note_on_c, 0, 53, 0
2,53679, Note_on_c, 0, 51, 57
2,53766, Note_on_c, 0, 51, 0
2,53794, Note_on_c, 0, 73, 0
2,53799, Note_on_c, 0, 49, 47
2,53812, Note_on_c, 0, 80, 61
2,53875, Note_on_c, 0, 49, 0
2,53904, Note_on_c, 0, 80, 0
2,53911, Note_on_c, 0, 53, 55
2,53919, Note_on_c, 0, 77, 68
2,53992, Note_on_c, 0, 53, 0
2,53999, Note_on_c, 0, 77, 0
2,54040, Note_on_c, 0, 73, 59
2,54048, Note_on_c, 0, 58, 56
2,54137, Note_on_c, 0, 58, 0
2,54154, Note_on_c, 0, 56, 55
2,54243, Note_on_c, 0, 56, 0
2,54259, Note_on_c, 0, 73, 0
2,54283, Note_on_c, 0, 76, 62
2,54286, Note_on_c, 0, 55, 49
2,54362, Note_on_c, 0, 55, 0
2,54393, Note_on_c, 0, 76, 0
2,54398, Note_on_c, 0, 73, 64
2,54401, Note_on_c, 0, 58, 56
2,54479, Note_on_c, 0, 58, 0
2,54489, Note_on_c, 0, 73, 0
2,54522, Note_on_c, 0, 70, 61
2,54525, Note_on_c, 0, 61, 53
2,54623, Note_on_c, 0, 61, 0
2,54647, Note_on_c, 0, 59, 56
2,54738, Note_on_c, 0, 70, 0
2,54742, Note_on_c, 0, 59, 0
2,54760, Note_on_c, 0, 73, 61
2,54767, Note_on_c, 0, 58, 55
2,54837, Note_on_c, 0, 58, 0
2,54865, Note_on_c, 0, 70, 66
2,54868, Note_on_c, 0, 73, 0
2,54876, Note_on_c, 0, 61, 57
2,54975, Note_on_c, 0, 61, 0
2,54986, Note_on_c, 0, 70, 0
2,55005, Note_on_c, 0, 67, 64
2,55015, Note_on_c, 0, 64, 54
2,55252, Note_on_c, 0, 64, 0
2,55255, Note_on_c, 0, 67, 0
2,55269, Note_on_c, 0, 70, 66
2,55271, Note_on_c, 0, 63, 56
2,55365, Note_on_c, 0, 63, 0
2,55372, Note_on_c, 0, 73, 78
2,55380, Note_on_c, 0, 61, 62
2,55385, Note_on_c, 0, 70, 0
2,55461, Note_on_c, 0, 61, 0
2,55488, Note_on_c, 0, 73, 0
2,55497, Note_on_c, 0, 59, 64
2,55502, Note_on_c, 0, 76, 78
2,55568, Note_on_c, 0, 76, 0
2,55598, Note_on_c, 0, 59, 0
2,55616, Note_on_c, 0, 58, 67
2,55723, Note_on_c, 0, 58, 0
2,55735, Note_on_c, 0, 56, 66
2,55738, Note_on_c, 0, 73, 78
2,55797, Note_on_c, 0, 73, 0
2,55820, Note_on_c, 0, 56, 0
2,55846, Note_on_c, 0, 55, 64
2,55969, Note_on_c, 0, 55, 0
2,55984, Note_on_c, 0, 56, 58
2,55996, Note_on_c, 0, 71, 61
2,55997, Note_on_c, 0, 75, 67
2,56052, Note_on_c, 0, 75, 0
2,56059, Note_on_c, 0, 56, 0
2,56093, Note_on_c, 0, 59, 60
2,56207, Note_on_c, 0, 59, 0
2,56223, Note_on_c, 0, 58, 64
2,56224, Note_on_c, 0, 80, 68
2,56231, Note_on_c, 0, 71, 0
2,56278, Note_on_c, 0, 80, 0
2,56313, Note_on_c, 0, 58, 0
2,56336, Note_on_c, 0, 56, 60
2,56417, Note_on_c, 0, 56, 0
2,56455, Note_on_c, 0, 73, 63
2,56462, Note_on_c, 0, 55, 56
2,56462, Note_on_c, 0, 70, 56
2,56518, Note_on_c, 0, 73, 0
2,56553, Note_on_c, 0, 55, 0
2,56570, Note_on_c, 0, 53, 61
2,56683, Note_on_c, 0, 53, 0
2,56704, Note_on_c, 0, 51, 63
2,56711, Note_on_c, 0, 79, 66
2,56723, Note_on_c, 0, 70, 0
2,56767, Note_on_c, 0, 79, 0
2,56791, Note_on_c, 0, 51, 0
2,56814, Note_on_c, 0, 49, 60
2,56916, Note_on_c, 0, 49, 0
2,56950, Note_on_c, 0, 68, 63
2,56955, Note_on_c, 0, 47, 52
2,56993, Note_on_c, 0, 68, 0
2,57049, Note_on_c, 0, 47, 0
2,57052, Note_on_c, 0, 49, 57
2,57163, Note_on_c, 0, 49, 0
2,57178, Note_on_c, 0, 51, 67
2,57193, Note_on_c, 0, 80, 62
2,57232, Note_on_c, 0, 51, 0
2,57279, Note_on_c, 0, 80, 0
2,57291, Note_on_c, 0, 79, 64
2,57310, Note_on_c, 0, 47, 53
2,57368, Note_on_c, 0, 47, 0
2,57415, Note_on_c, 0, 79, 0
2,57424, Note_on_c, 0, 80, 66
2,57426, Note_on_c, 0, 44, 57
2,57459, Note_on_c, 0, 44, 0
2,57519, Note_on_c, 0, 80, 0
2,57540, Note_on_c, 0, 82, 75
2,57624, Note_on_c, 0, 82, 0
2,57669, Note_on_c, 0, 56, 63
2,57669, Note_on_c, 0, 83, 76
2,57759, Note_on_c, 0, 56, 0
2,57771, Note_on_c, 0, 83, 0
2,57779, Note_on_c, 0, 80, 77
2,57784, Note_on_c, 0, 53, 62
2,57873, Note_on_c, 0, 53, 0
2,57879, Note_on_c, 0, 80, 0
2,57894, Note_on_c, 0, 49, 70
2,57897, Note_on_c, 0, 77, 76
2,57925, Note_on_c, 0, 49, 0
2,57982, Note_on_c, 0, 77, 0
2,58006, Note_on_c, 0, 78, 78
2,58105, Note_on_c, 0, 78, 0
2,58126, Note_on_c, 0, 80, 78
2,58130, Note_on_c, 0, 59, 71
2,58220, Note_on_c, 0, 59, 0
2,58232, Note_on_c, 0, 80, 0
2,58244, Note_on_c, 0, 77, 79
2,58248, Note_on_c, 0, 56, 61
2,58326, Note_on_c, 0, 56, 0
2,58327, Note_on_c, 0, 77, 0
2,58366, Note_on_c, 0, 53, 69
2,58374, Note_on_c, 0, 73, 66
2,58396, Note_on_c, 0, 53, 0
2,58471, Note_on_c, 0, 73, 0
2,58479, Note_on_c, 0, 75, 68
2,58574, Note_on_c, 0, 75, 0
2,58602, Note_on_c, 0, 77, 62
2,58611, Note_on_c, 0, 49, 51
2,58671, Note_on_c, 0, 49, 0
2,58705, Note_on_c, 0, 46, 51
2,58710, Note_on_c, 0, 77, 0
2,58716, Note_on_c, 0, 73, 61
2,58784, Note_on_c, 0, 73, 0
2,58789, Note_on_c, 0, 46, 0
2,58828, Note_on_c, 0, 42, 60
2,58836, Note_on_c, 0, 70, 51
2,58868, Note_on_c, 0, 42, 0
2,58922, Note_on_c, 0, 70, 0
2,58973, Note_on_c, 0, 72, 32
2,59059, Note_on_c, 0, 72, 0
2,59075, Note_on_c, 0, 73, 63
2,59091, Note_on_c, 0, 58, 59
2,59135, Note_on_c, 0, 58, 0
2,59145, Note_on_c, 0, 73, 0
2,59197, Note_on_c, 0, 70, 68
2,59206, Note_on_c, 0, 54, 56
2,59278, Note_on_c, 0, 54, 0
2,59301, Note_on_c, 0, 70, 0
2,59303, Note_on_c, 0, 51, 68
2,59317, Note_on_c, 0, 78, 67
2,59338, Note_on_c, 0, 51, 0
2,59414, Note_on_c, 0, 78, 0
2,59433, Note_on_c, 0, 80, 73
2,59527, Note_on_c, 0, 80, 0
2,59542, Note_on_c, 0, 82, 71
2,59548, Note_on_c, 0, 54, 59
2,59616, Note_on_c, 0, 54, 0
2,59643, Note_on_c, 0, 51, 55
2,59651, Note_on_c, 0, 82, 0
2,59659, Note_on_c, 0, 78, 69
2,59732, Note_on_c, 0, 51, 0
2,59733, Note_on_c, 0, 78, 0
2,59775, Note_on_c, 0, 75, 59
2,59776, Note_on_c, 0, 48, 56
2,59808, Note_on_c, 0, 48, 0
2,59855, Note_on_c, 0, 75, 0
2,59884, Note_on_c, 0, 77, 67
2,59971, Note_on_c, 0, 77, 0
2,60004, Note_on_c, 0, 78, 67
2,60024, Note_on_c, 0, 58, 56
2,60077, Note_on_c, 0, 58, 0
2,60110, Note_on_c, 0, 78, 0
2,60114, Note_on_c, 0, 75, 68
2,60126, Note_on_c, 0, 54, 53
2,60199, Note_on_c, 0, 75, 0
2,60211, Note_on_c, 0, 54, 0
2,60236, Note_on_c, 0, 72, 61
2,60237, Note_on_c, 0, 51, 62
2,60266, Note_on_c, 0, 51, 0
2,60309, Note_on_c, 0, 72, 0
2,60339, Note_on_c, 0, 73, 59
2,60422, Note_on_c, 0, 73, 0
2,60454, Note_on_c, 0, 75, 58
2,60483, Note_on_c, 0, 48, 46
2,60542, Note_on_c, 0, 48, 0
2,60564, Note_on_c, 0, 75, 0
2,60570, Note_on_c, 0, 72, 61
2,60576, Note_on_c, 0, 44, 46
2,60648, Note_on_c, 0, 72, 0
2,60655, Note_on_c, 0, 44, 0
2,60687, Note_on_c, 0, 41, 58
2,60689, Note_on_c, 0, 68, 57
2,60723, Note_on_c, 0, 41, 0
2,60787, Note_on_c, 0, 68, 0
2,60802, Note_on_c, 0, 70, 57
2,60884, Note_on_c, 0, 70, 0
2,60909, Note_on_c, 0, 72, 62
2,60945, Note_on_c, 0, 56, 48
2,60972, Note_on_c, 0, 72, 0
2,60996, Note_on_c, 0, 56, 0
2,61028, Note_on_c, 0, 68, 66
2,61031, Note_on_c, 0, 53, 50
2,61110, Note_on_c, 0, 53, 0
2,61126, Note_on_c, 0, 68, 0
2,61143, Note_on_c, 0, 50, 55
2,61147, Note_on_c, 0, 77, 65
2,61176, Note_on_c, 0, 50, 0
2,61253, Note_on_c, 0, 77, 0
2,61272, Note_on_c, 0, 78, 73
2,61367, Note_on_c, 0, 78, 0
2,61383, Note_on_c, 0, 80, 67
2,61398, Note_on_c, 0, 53, 50
2,61456, Note_on_c, 0, 53, 0
2,61494, Note_on_c, 0, 77, 69
2,61495, Note_on_c, 0, 80, 0
2,61503, Note_on_c, 0, 50, 47
2,61584, Note_on_c, 0, 50, 0
2,61584, Note_on_c, 0, 77, 0
2,61615, Note_on_c, 0, 46, 53
2,61624, Note_on_c, 0, 74, 57
2,61649, Note_on_c, 0, 46, 0
2,61686, Note_on_c, 0, 74, 0
2,61728, Note_on_c, 0, 75, 61
2,61817, Note_on_c, 0, 75, 0
2,61848, Note_on_c, 0, 56, 54
2,61856, Note_on_c, 0, 77, 53
2,61902, Note_on_c, 0, 56, 0
2,61947, Note_on_c, 0, 77, 0
2,61958, Note_on_c, 0, 74, 61
2,61966, Note_on_c, 0, 53, 45
2,62027, Note_on_c, 0, 74, 0
2,62044, Note_on_c, 0, 53, 0
2,62080, Note_on_c, 0, 70, 53
2,62082, Note_on_c, 0, 50, 53
2,62113, Note_on_c, 0, 50, 0
2,62150, Note_on_c, 0, 70, 0
2,62181, Note_on_c, 0, 72, 62
2,62278, Note_on_c, 0, 72, 0
2,62311, Note_on_c, 0, 74, 57
2,62315, Note_on_c, 0, 46, 40
2,62374, Note_on_c, 0, 46, 0
2,62409, Note_on_c, 0, 42, 52
2,62419, Note_on_c, 0, 74, 0
2,62421, Note_on_c, 0, 70, 57
2,62499, Note_on_c, 0, 42, 0
2,62499, Note_on_c, 0, 70, 0
2,62531, Note_on_c, 0, 39, 50
2,62534, Note_on_c, 0, 66, 54
2,62569, Note_on_c, 0, 39, 0
2,62629, Note_on_c, 0, 66, 0
2,62649, Note_on_c, 0, 68, 62
2,62752, Note_on_c, 0, 68, 0
2,62762, Note_on_c, 0, 54, 52
2,62769, Note_on_c, 0, 70, 59
2,62827, Note_on_c, 0, 70, 0
2,62833, Note_on_c, 0, 54, 0
2,62871, Note_on_c, 0, 51, 58
2,62880, Note_on_c, 0, 66, 64
2,62958, Note_on_c, 0, 51, 0
2,62991, Note_on_c, 0, 66, 0
2,62996, Note_on_c, 0, 48, 57
2,63000, Note_on_c, 0, 75, 66
2,63033, Note_on_c, 0, 48, 0
2,63104, Note_on_c, 0, 75, 0
2,63111, Note_on_c, 0, 77, 75
2,63217, Note_on_c, 0, 77, 0
2,63231, Note_on_c, 0, 78, 78
2,63232, Note_on_c, 0, 51, 70
2,63305, Note_on_c, 0, 51, 0
2,63343, Note_on_c, 0, 48, 54
2,63346, Note_on_c, 0, 75, 76
2,63361, Note_on_c, 0, 78, 0
2,63431, Note_on_c, 0, 48, 0
2,63442, Note_on_c, 0, 75, 0
2,63461, Note_on_c, 0, 44, 67
2,63465, Note_on_c, 0, 72, 72
2,63494, Note_on_c, 0, 44, 0
2,63569, Note_on_c, 0, 72, 0
2,63584, Note_on_c, 0, 73, 71
2,63676, Note_on_c, 0, 73, 0
2,63703, Note_on_c, 0, 75, 70
2,63710, Note_on_c, 0, 54, 67
2,63781, Note_on_c, 0, 54, 0
2,63797, Note_on_c, 0, 75, 0
2,63806, Note_on_c, 0, 51, 68
2,63815, Note_on_c, 0, 72, 67
2,63897, Note_on_c, 0, 51, 0
2,63909, Note_on_c, 0, 72, 0
2,63933, Note_on_c, 0, 48, 67
2,63936, Note_on_c, 0, 68, 66
2,63963, Note_on_c, 0, 48, 0
2,64036, Note_on_c, 0, 68, 0
2,64042, Note_on_c, 0, 70, 69
2,64145, Note_on_c, 0, 70, 0
2,64167, Note_on_c, 0, 72, 73
2,64177, Note_on_c, 0, 44, 63
2,64251, Note_on_c, 0, 44, 0
2,64262, Note_on_c, 0, 41, 68
2,64280, Note_on_c, 0, 68, 71
2,64282, Note_on_c, 0, 72, 0
2,64379, Note_on_c, 0, 68, 0
2,64382, Note_on_c, 0, 41, 0
2,64404, Note_on_c, 0, 37, 71
2,64408, Note_on_c, 0, 65, 69
2,64492, Note_on_c, 0, 65, 0
2,64519, Note_on_c, 0, 66, 68
2,64633, Note_on_c, 0, 66, 0
2,64641, Note_on_c, 0, 68, 73
2,64728, Note_on_c, 0, 37, 0
2,64729, Note_on_c, 0, 68, 0
2,64753, Note_on_c, 0, 65, 74
2,64842, Note_on_c, 0, 65, 0
2,64865, Note_on_c, 0, 61, 71
2,64964, Note_on_c, 0, 61, 0
2,64969, Note_on_c, 0, 65, 75
2,65090, Note_on_c, 0, 68, 77
2,65092, Note_on_c, 0, 65, 0
2,65188, Note_on_c, 0, 68, 0
2,65198, Note_on_c, 0, 70, 81
2,65292, Note_on_c, 0, 70, 0
2,65311, Note_on_c, 0, 71, 84
2,65406, Note_on_c, 0, 71, 0
2,65420, Note_on_c, 0, 70, 79
2,65517, Note_on_c, 0, 70, 0
2,65538, Note_on_c, 0, 68, 82
2,65541, Note_on_c, 0, 59, 68
2,65591, Note_on_c, 0, 59, 0
2,65632, Note_on_c, 0, 68, 0
2,65636, Note_on_c, 0, 49, 62
2,65658, Note_on_c, 0, 70, 78
2,65751, Note_on_c, 0, 49, 0
2,65767, Note_on_c, 0, 70, 0
2,65779, Note_on_c, 0, 78, 84
2,65791, Note_on_c, 0, 58, 69
2,65813, Note_on_c, 0, 78, 0
2,65855, Note_on_c, 0, 58, 0
2,65896, Note_on_c, 0, 49, 61
2,66004, Note_on_c, 0, 49, 0
2,66025, Note_on_c, 0, 73, 82
2,66037, Note_on_c, 0, 56, 66
2,66069, Note_on_c, 0, 73, 0
2,66103, Note_on_c, 0, 56, 0
2,66134, Note_on_c, 0, 49, 61
2,66256, Note_on_c, 0, 49, 0
2,66278, Note_on_c, 0, 70, 79
2,66282, Note_on_c, 0, 54, 66
2,66356, Note_on_c, 0, 54, 0
2,66382, Note_on_c, 0, 49, 57
2,66508, Note_on_c, 0, 68, 71
2,66510, Note_on_c, 0, 49, 0
2,66511, Note_on_c, 0, 70, 0
2,66522, Note_on_c, 0, 53, 61
2,66602, Note_on_c, 0, 53, 0
2,66620, Note_on_c, 0, 68, 0
2,66626, Note_on_c, 0, 66, 72
2,66627, Note_on_c, 0, 51, 63
2,66713, Note_on_c, 0, 51, 0
2,66729, Note_on_c, 0, 66, 0
2,66748, Note_on_c, 0, 68, 72
2,66757, Note_on_c, 0, 53, 69
2,66788, Note_on_c, 0, 53, 0
2,66821, Note_on_c, 0, 68, 0
2,66865, Note_on_c, 0, 61, 60
2,66963, Note_on_c, 0, 61, 0
2,66987, Note_on_c, 0, 65, 64
2,66996, Note_on_c, 0, 44, 53
2,67032, Note_on_c, 0, 44, 0
2,67073, Note_on_c, 0, 65, 0
2,67100, Note_on_c, 0, 68, 71
2,67198, Note_on_c, 0, 68, 0
2,67225, Note_on_c, 0, 70, 73
2,67311, Note_on_c, 0, 70, 0
2,67331, Note_on_c, 0, 68, 74
2,67430, Note_on_c, 0, 68, 0
2,67457, Note_on_c, 0, 66, 73
2,67465, Note_on_c, 0, 58, 70
2,67517, Note_on_c, 0, 58, 0
2,67520, Note_on_c, 0, 66, 0
2,67568, Note_on_c, 0, 49, 60
2,67571, Note_on_c, 0, 68, 75
2,67668, Note_on_c, 0, 49, 0
2,67677, Note_on_c, 0, 68, 0
2,67691, Note_on_c, 0, 77, 84
2,67706, Note_on_c, 0, 56, 70
2,67728, Note_on_c, 0, 77, 0
2,67770, Note_on_c, 0, 56, 0
2,67806, Note_on_c, 0, 49, 62
2,67917, Note_on_c, 0, 49, 0
2,67934, Note_on_c, 0, 73, 82
2,67944, Note_on_c, 0, 54, 69
2,67975, Note_on_c, 0, 73, 0
2,68023, Note_on_c, 0, 54, 0
2,68049, Note_on_c, 0, 49, 62
2,68159, Note_on_c, 0, 49, 0
2,68181, Note_on_c, 0, 68, 81
2,68185, Note_on_c, 0, 53, 67
2,68282, Note_on_c, 0, 53, 0
2,68298, Note_on_c, 0, 49, 56
2,68411, Note_on_c, 0, 49, 0
2,68418, Note_on_c, 0, 51, 68
2,68421, Note_on_c, 0, 66, 65
2,68435, Note_on_c, 0, 68, 0
2,68502, Note_on_c, 0, 51, 0
2,68519, Note_on_c, 0, 66, 0
2,68527, Note_on_c, 0, 65, 68
2,68528, Note_on_c, 0, 49, 61
2,68616, Note_on_c, 0, 49, 0
2,68639, Note_on_c, 0, 65, 0
2,68640, Note_on_c, 0, 51, 68
2,68647, Note_on_c, 0, 66, 66
2,68677, Note_on_c, 0, 51, 0
2,68727, Note_on_c, 0, 66, 0
2,68757, Note_on_c, 0, 60, 61
2,68857, Note_on_c, 0, 60, 0
2,68871, Note_on_c, 0, 44, 57
2,68880, Note_on_c, 0, 63, 61
2,68927, Note_on_c, 0, 44, 0
2,68981, Note_on_c, 0, 63, 0
2,68997, Note_on_c, 0, 66, 59
2,69103, Note_on_c, 0, 66, 0
2,69124, Note_on_c, 0, 68, 66
2,69216, Note_on_c, 0, 68, 0
2,69230, Note_on_c, 0, 66, 70
2,69317, Note_on_c, 0, 66, 0
2,69346, Note_on_c, 0, 65, 74
2,69355, Note_on_c, 0, 56, 66
2,69404, Note_on_c, 0, 56, 0
2,69427, Note_on_c, 0, 65, 0
2,69447, Note_on_c, 0, 44, 64
2,69449, Note_on_c, 0, 66, 74
2,69540, Note_on_c, 0, 44, 0
2,69579, Note_on_c, 0, 75, 84
2,69580, Note_on_c, 0, 66, 0
2,69585, Note_on_c, 0, 54, 73
2,69633, Note_on_c, 0, 75, 0
2,69651, Note_on_c, 0, 54, 0
2,69697, Note_on_c, 0, 44, 68
2,69798, Note_on_c, 0, 44, 0
2,69835, Note_on_c, 0, 72, 78
2,69839, Note_on_c, 0, 53, 69
2,69885, Note_on_c, 0, 72, 0
2,69910, Note_on_c, 0, 53, 0
2,69945, Note_on_c, 0, 44, 67
2,70051, Note_on_c, 0, 44, 0
2,70081, Note_on_c, 0, 51, 66
2,70088, Note_on_c, 0, 66, 65
2,70152, Note_on_c, 0, 51, 0
2,70188, Note_on_c, 0, 44, 62
2,70301, Note_on_c, 0, 66, 0
2,70312, Note_on_c, 0, 44, 0
2,70315, Note_on_c, 0, 49, 55
2,70317, Note_on_c, 0, 65, 58
2,70400, Note_on_c, 0, 49, 0
2,70402, Note_on_c, 0, 65, 0
2,70422, Note_on_c, 0, 48, 56
2,70437, Note_on_c, 0, 63, 62
2,70530, Note_on_c, 0, 63, 0
2,70534, Note_on_c, 0, 48, 0
2,70548, Note_on_c, 0, 49, 57
2,70563, Note_on_c, 0, 65, 61
2,70636, Note_on_c, 0, 49, 0
2,70659, Note_on_c, 0, 65, 0
2,70664, Note_on_c, 0, 44, 56
2,70673, Note_on_c, 0, 68, 68
2,70750, Note_on_c, 0, 44, 0
2,70781, Note_on_c, 0, 68, 0
2,70781, Note_on_c, 0, 70, 68
2,70795, Note_on_c, 0, 53, 61
2,70879, Note_on_c, 0, 53, 0
2,70880, Note_on_c, 0, 70, 0
2,70894, Note_on_c, 0, 51, 69
2,70897, Note_on_c, 0, 72, 77
2,70985, Note_on_c, 0, 51, 0
2,70986, Note_on_c, 0, 72, 0
2,71015, Note_on_c, 0, 53, 63
2,71015, Note_on_c, 0, 73, 79
2,71101, Note_on_c, 0, 53, 0
2,71125, Note_on_c, 0, 73, 0
2,71130, Note_on_c, 0, 75, 84
2,71134, Note_on_c, 0, 44, 66
2,71223, Note_on_c, 0, 44, 0
2,71248, Note_on_c, 0, 75, 0
2,71252, Note_on_c, 0, 77, 86
2,71262, Note_on_c, 0, 56, 69
2,71358, Note_on_c, 0, 77, 0
2,71363, Note_on_c, 0, 56, 0
2,71364, Note_on_c, 0, 75, 86
2,71373, Note_on_c, 0, 54, 70
2,71447, Note_on_c, 0, 54, 0
2,71474, Note_on_c, 0, 75, 0
2,71482, Note_on_c, 0, 78, 90
2,71485, Note_on_c, 0, 56, 78
2,71560, Note_on_c, 0, 56, 0
2,71578, Note_on_c, 0, 78, 0
2,71591, Note_on_c, 0, 77, 87
2,71596, Note_on_c, 0, 44, 69
2,71673, Note_on_c, 0, 44, 0
2,71694, Note_on_c, 0, 77, 0
2,71699, Note_on_c, 0, 75, 87
2,71707, Note_on_c, 0, 58, 78
2,71760, Note_on_c, 0, 75, 0
2,71779, Note_on_c, 0, 58, 0
2,71804, Note_on_c, 0, 73, 77
2,71815, Note_on_c, 0, 44, 79
2,71876, Note_on_c, 0, 44, 0
2,71917, Note_on_c, 0, 73, 0
2,71945, Note_on_c, 0, 79, 79
2,71952, Note_on_c, 0, 60, 80
2,72053, Note_on_c, 0, 79, 0
2,72062, Note_on_c, 0, 80, 76
2,72120, Note_on_c, 0, 60, 0
2,72127, Note_on_c, 0, 61, 67
2,72133, Note_on_c, 0, 80, 0
2,72145, Note_on_c, 0, 82, 69
2,72172, Note_on_c, 0, 82, 0
2,72212, Note_on_c, 0, 80, 70
2,72230, Note_on_c, 0, 61, 0
2,72247, Note_on_c, 0, 63, 68
2,72249, Note_on_c, 0, 80, 0
2,72267, Note_on_c, 0, 82, 66
2,72315, Note_on_c, 0, 82, 0
2,72318, Note_on_c, 0, 63, 0
2,72345, Note_on_c, 0, 80, 69
2,72347, Note_on_c, 0, 60, 59
2,72375, Note_on_c, 0, 80, 0
2,72401, Note_on_c, 0, 82, 72
2,72426, Note_on_c, 0, 82, 0
2,72429, Note_on_c, 0, 60, 0
2,72440, Note_on_c, 0, 56, 72
2,72459, Note_on_c, 0, 80, 67
2,72493, Note_on_c, 0, 80, 0
2,72510, Note_on_c, 0, 82, 75
2,72537, Note_on_c, 0, 56, 0
2,72544, Note_on_c, 0, 82, 0
2,72548, Note_on_c, 0, 60, 69
2,72583, Note_on_c, 0, 80, 65
2,72616, Note_on_c, 0, 80, 0
2,72635, Note_on_c, 0, 82, 70
2,72640, Note_on_c, 0, 60, 0
2,72649, Note_on_c, 0, 63, 67
2,72664, Note_on_c, 0, 82, 0
2,72697, Note_on_c, 0, 80, 61
2,72722, Note_on_c, 0, 63, 0
2,72726, Note_on_c, 0, 80, 0
2,72739, Note_on_c, 0, 82, 70
2,72756, Note_on_c, 0, 65, 66
2,72789, Note_on_c, 0, 82, 0
2,72799, Note_on_c, 0, 80, 76
2,72828, Note_on_c, 0, 80, 0
2,72877, Note_on_c, 0, 65, 0
2,72886, Note_on_c, 0, 66, 64
2,72984, Note_on_c, 0, 66, 0
2,73004, Note_on_c, 0, 80, 67
2,73010, Note_on_c, 0, 65, 60
2,73078, Note_on_c, 0, 65, 0
2,73090, Note_on_c, 0, 80, 0
2,73123, Note_on_c, 0, 78, 69
2,73130, Note_on_c, 0, 63, 58
2,73221, Note_on_c, 0, 78, 0
2,73227, Note_on_c, 0, 63, 0
2,73237, Note_on_c, 0, 80, 64
2,73246, Note_on_c, 0, 65, 55
2,73299, Note_on_c, 0, 65, 0
2,73337, Note_on_c, 0, 80, 0
2,73361, Note_on_c, 0, 77, 66
2,73371, Note_on_c, 0, 73, 67
2,73400, Note_on_c, 0, 73, 0
2,73452, Note_on_c, 0, 77, 0
2,73481, Note_on_c, 0, 80, 59
2,73592, Note_on_c, 0, 80, 0
2,73618, Note_on_c, 0, 68, 65
2,73625, Note_on_c, 0, 75, 62
2,73651, Note_on_c, 0, 68, 0
2,73722, Note_on_c, 0, 75, 0
2,73735, Note_on_c, 0, 80, 56
2,73852, Note_on_c, 0, 80, 0
2,73858, Note_on_c, 0, 65, 63
2,73864, Note_on_c, 0, 73, 64
2,73967, Note_on_c, 0, 73, 0
2,73976, Note_on_c, 0, 80, 58
2,74073, Note_on_c, 0, 80, 0
2,74105, Note_on_c, 0, 72, 62
2,74107, Note_on_c, 0, 63, 59
2,74107, Note_on_c, 0, 65, 0
2,74184, Note_on_c, 0, 72, 0
2,74204, Note_on_c, 0, 63, 0
2,74217, Note_on_c, 0, 61, 59
2,74218, Note_on_c, 0, 70, 62
2,74305, Note_on_c, 0, 70, 0
2,74325, Note_on_c, 0, 61, 0
2,74342, Note_on_c, 0, 63, 62
2,74346, Note_on_c, 0, 72, 57
2,74420, Note_on_c, 0, 63, 0
2,74435, Note_on_c, 0, 72, 0
2,74452, Note_on_c, 0, 56, 59
2,74459, Note_on_c, 0, 75, 62
2,74542, Note_on_c, 0, 75, 0
2,74560, Note_on_c, 0, 56, 0
2,74575, Note_on_c, 0, 77, 62
2,74576, Note_on_c, 0, 60, 59
2,74664, Note_on_c, 0, 77, 0
2,74676, Note_on_c, 0, 60, 0
2,74696, Note_on_c, 0, 63, 59
2,74698, Note_on_c, 0, 78, 65
2,74775, Note_on_c, 0, 63, 0
2,74796, Note_on_c, 0, 78, 0
2,74821, Note_on_c, 0, 65, 59
2,74822, Note_on_c, 0, 80, 59
2,74927, Note_on_c, 0, 80, 0
2,74930, Note_on_c, 0, 65, 0
2,74933, Note_on_c, 0, 78, 63
2,74935, Note_on_c, 0, 63, 51
2,75019, Note_on_c, 0, 78, 0
2,75030, Note_on_c, 0, 63, 0
2,75054, Note_on_c, 0, 77, 61
2,75069, Note_on_c, 0, 61, 55
2,75157, Note_on_c, 0, 77, 0
2,75163, Note_on_c, 0, 61, 0
2,75173, Note_on_c, 0, 63, 58
2,75187, Note_on_c, 0, 80, 54
2,75231, Note_on_c, 0, 63, 0
2,75297, Note_on_c, 0, 80, 0
2,75309, Note_on_c, 0, 72, 64
2,75311, Note_on_c, 0, 75, 65
2,75348, Note_on_c, 0, 72, 0
2,75370, Note_on_c, 0, 75, 0
2,75427, Note_on_c, 0, 80, 55
2,75528, Note_on_c, 0, 80, 0
2,75547, Note_on_c, 0, 68, 65
2,75559, Note_on_c, 0, 73, 61
2,75590, Note_on_c, 0, 68, 0
2,75661, Note_on_c, 0, 73, 0
2,75672, Note_on_c, 0, 80, 59
2,75777, Note_on_c, 0, 80, 0
2,75802, Note_on_c, 0, 63, 61
2,75809, Note_on_c, 0, 72, 60
2,75896, Note_on_c, 0, 72, 0
2,75948, Note_on_c, 0, 80, 54
2,76027, Note_on_c, 0, 80, 0
2,76038, Note_on_c, 0, 63, 0
2,76050, Note_on_c, 0, 61, 56
2,76058, Note_on_c, 0, 70, 62
2,76146, Note_on_c, 0, 70, 0
2,76149, Note_on_c, 0, 61, 0
2,76167, Note_on_c, 0, 60, 62
2,76168, Note_on_c, 0, 68, 59
2,76263, Note_on_c, 0, 60, 0
2,76268, Note_on_c, 0, 68, 0
2,76281, Note_on_c, 0, 70, 66
2,76282, Note_on_c, 0, 61, 59
2,76358, Note_on_c, 0, 61, 0
2,76388, Note_on_c, 0, 56, 53
2,76389, Note_on_c, 0, 70, 0
2,76395, Note_on_c, 0, 73, 66
2,76482, Note_on_c, 0, 73, 0
2,76489, Note_on_c, 0, 56, 0
2,76507, Note_on_c, 0, 60, 63
2,76510, Note_on_c, 0, 75, 72
2,76609, Note_on_c, 0, 75, 0
2,76619, Note_on_c, 0, 60, 0
2,76631, Note_on_c, 0, 77, 70
2,76632, Note_on_c, 0, 61, 62
2,76737, Note_on_c, 0, 61, 0
2,76759, Note_on_c, 0, 63, 58
2,76762, Note_on_c, 0, 77, 0
2,76763, Note_on_c, 0, 78, 62
2,76844, Note_on_c, 0, 78, 0
2,76848, Note_on_c, 0, 63, 0
2,76871, Note_on_c, 0, 61, 58
2,76881, Note_on_c, 0, 77, 63
2,76966, Note_on_c, 0, 77, 0
2,76975, Note_on_c, 0, 61, 0
2,77000, Note_on_c, 0, 75, 60
2,77011, Note_on_c, 0, 60, 52
2,77083, Note_on_c, 0, 60, 0
2,77083, Note_on_c, 0, 75, 0
2,77112, Note_on_c, 0, 61, 60
2,77118, Note_on_c, 0, 77, 62
2,77169, Note_on_c, 0, 61, 0
2,77180, Note_on_c, 0, 77, 0
2,77243, Note_on_c, 0, 70, 62
2,77244, Note_on_c, 0, 73, 57
2,77276, Note_on_c, 0, 70, 0
2,77281, Note_on_c, 0, 73, 0
2,77355, Note_on_c, 0, 75, 61
2,77457, Note_on_c, 0, 75, 0
2,77491, Note_on_c, 0, 67, 64
2,77492, Note_on_c, 0, 72, 58
2,77523, Note_on_c, 0, 67, 0
2,77583, Note_on_c, 0, 72, 0
2,77617, Note_on_c, 0, 75, 57
2,77713, Note_on_c, 0, 75, 0
2,77739, Note_on_c, 0, 61, 54
2,77746, Note_on_c, 0, 70, 56
2,77835, Note_on_c, 0, 70, 0
2,77858, Note_on_c, 0, 75, 56
2,77968, Note_on_c, 0, 61, 0
2,77978, Note_on_c, 0, 75, 0
2,77990, Note_on_c, 0, 68, 60
2,77993, Note_on_c, 0, 60, 60
2,78067, Note_on_c, 0, 60, 0
2,78085, Note_on_c, 0, 68, 0
2,78104, Note_on_c, 0, 67, 64
2,78108, Note_on_c, 0, 58, 61
2,78190, Note_on_c, 0, 67, 0
2,78200, Note_on_c, 0, 58, 0
2,78224, Note_on_c, 0, 68, 67
2,78233, Note_on_c, 0, 60, 61
2,78304, Note_on_c, 0, 68, 0
2,78333, Note_on_c, 0, 60, 0
2,78341, Note_on_c, 0, 56, 60
2,78345, Note_on_c, 0, 72, 72
2,78461, Note_on_c, 0, 72, 0
2,78464, Note_on_c, 0, 73, 74
2,78467, Note_on_c, 0, 56, 0
2,78470, Note_on_c, 0, 58, 64
2,78537, Note_on_c, 0, 58, 0
2,78568, Note_on_c, 0, 60, 61
2,78577, Note_on_c, 0, 75, 80
2,78591, Note_on_c, 0, 73, 0
2,78691, Note_on_c, 0, 60, 0
2,78696, Note_on_c, 0, 77, 85
2,78701, Note_on_c, 0, 75, 0
2,78702, Note_on_c, 0, 61, 65
2,78795, Note_on_c, 0, 77, 0
2,78816, Note_on_c, 0, 61, 0
2,78817, Note_on_c, 0, 63, 68
2,78817, Note_on_c, 0, 77, 74
2,78905, Note_on_c, 0, 63, 0
2,78906, Note_on_c, 0, 77, 0
2,78939, Note_on_c, 0, 65, 68
2,78948, Note_on_c, 0, 80, 85
2,78973, Note_on_c, 0, 80, 0
2,79029, Note_on_c, 0, 65, 0
2,79050, Note_on_c, 0, 63, 61
2,79079, Note_on_c, 0, 82, 87
2,79134, Note_on_c, 0, 82, 0
2,79168, Note_on_c, 0, 63, 0
2,79187, Note_on_c, 0, 66, 61
2,79196, Note_on_c, 0, 72, 79
2,79217, Note_on_c, 0, 72, 0
2,79318, Note_on_c, 0, 65, 62
2,79359, Note_on_c, 0, 66, 0
2,79406, Note_on_c, 0, 65, 0
2,79430, Note_on_c, 0, 68, 74
2,79443, Note_on_c, 0, 63, 66
2,79461, Note_on_c, 0, 68, 0
2,79535, Note_on_c, 0, 63, 0
2,79552, Note_on_c, 0, 61, 64
2,79645, Note_on_c, 0, 61, 0
2,79680, Note_on_c, 0, 66, 71
2,79683, Note_on_c, 0, 70, 73
2,79712, Note_on_c, 0, 66, 0
2,79776, Note_on_c, 0, 70, 0
2,79792, Note_on_c, 0, 68, 72
2,79880, Note_on_c, 0, 68, 0
2,79910, Note_on_c, 0, 58, 58
2,79917, Note_on_c, 0, 66, 67
2,79978, Note_on_c, 0, 66, 0
2,80016, Note_on_c, 0, 58, 0
2,80029, Note_on_c, 0, 68, 76
2,80032, Note_on_c, 0, 60, 70
2,80104, Note_on_c, 0, 68, 0
2,80137, Note_on_c, 0, 60, 0
2,80161, Note_on_c, 0, 77, 84
2,80164, Note_on_c, 0, 61, 66
2,80200, Note_on_c, 0, 77, 0
2,80231, Note_on_c, 0, 61, 0
2,80259, Note_on_c, 0, 60, 66
2,80390, Note_on_c, 0, 60, 0
2,80408, Note_on_c, 0, 58, 68
2,80410, Note_on_c, 0, 73, 86
2,80456, Note_on_c, 0, 73, 0
2,80534, Note_on_c, 0, 58, 0
2,80538, Note_on_c, 0, 56, 75
2,80673, Note_on_c, 0, 56, 0
2,80683, Note_on_c, 0, 68, 78
2,80689, Note_on_c, 0, 58, 68
2,80941, Note_on_c, 0, 68, 0
2,80950, Note_on_c, 0, 66, 66
2,81050, Note_on_c, 0, 66, 0
2,81065, Note_on_c, 0, 65, 70
2,81176, Note_on_c, 0, 65, 0
2,81185, Note_on_c, 0, 66, 76
2,81249, Note_on_c, 0, 66, 0
2,81306, Note_on_c, 0, 58, 0
2,81307, Note_on_c, 0, 56, 73
2,81427, Note_on_c, 0, 56, 0
2,81443, Note_on_c, 0, 75, 82
2,81444, Note_on_c, 0, 54, 72
2,81500, Note_on_c, 0, 75, 0
2,81545, Note_on_c, 0, 54, 0
2,81567, Note_on_c, 0, 58, 72
2,81684, Note_on_c, 0, 58, 0
2,81691, Note_on_c, 0, 56, 67
2,81693, Note_on_c, 0, 65, 71
2,81739, Note_on_c, 0, 65, 0
2,81793, Note_on_c, 0, 56, 0
2,81804, Note_on_c, 0, 54, 70
2,81912, Note_on_c, 0, 54, 0
2,81931, Note_on_c, 0, 53, 67
2,81940, Note_on_c, 0, 73, 71
2,81986, Note_on_c, 0, 73, 0
2,82027, Note_on_c, 0, 53, 0
2,82054, Note_on_c, 0, 56, 63
2,82174, Note_on_c, 0, 56, 0
2,82186, Note_on_c, 0, 54, 63
2,82189, Note_on_c, 0, 63, 62
2,82233, Note_on_c, 0, 63, 0
2,82264, Note_on_c, 0, 54, 0
2,82293, Note_on_c, 0, 53, 58
2,82402, Note_on_c, 0, 53, 0
2,82411, Note_on_c, 0, 54, 61
2,82433, Note_on_c, 0, 72, 64
2,82490, Note_on_c, 0, 72, 0
2,82494, Note_on_c, 0, 54, 0
2,82539, Note_on_c, 0, 51, 58
2,82650, Note_on_c, 0, 51, 0
2,82696, Note_on_c, 0, 53, 50
2,82696, Note_on_c, 0, 61, 50
2,82741, Note_on_c, 0, 61, 0
2,82965, Note_on_c, 0, 73, 61
2,83064, Note_on_c, 0, 73, 0
2,83065, Note_on_c, 0, 56, 57
2,83067, Note_on_c, 0, 53, 0
2,83078, Note_on_c, 0, 72, 61
2,83179, Note_on_c, 0, 72, 0
2,83193, Note_on_c, 0, 73, 66
2,83196, Note_on_c, 0, 56, 0
2,83200, Note_on_c, 0, 58, 66
2,83280, Note_on_c, 0, 58, 0
2,83307, Note_on_c, 0, 73, 0
2,83308, Note_on_c, 0, 75, 67
2,83313, Note_on_c, 0, 60, 59
2,83383, Note_on_c, 0, 75, 0
2,83413, Note_on_c, 0, 60, 0
2,83430, Note_on_c, 0, 61, 61
2,83431, Note_on_c, 0, 77, 62
2,83553, Note_on_c, 0, 77, 0
2,83564, Note_on_c, 0, 63, 58
2,83564, Note_on_c, 0, 78, 65
2,83683, Note_on_c, 0, 63, 0
2,83683, Note_on_c, 0, 78, 0
2,83685, Note_on_c, 0, 80, 70
2,83686, Note_on_c, 0, 65, 62
2,83688, Note_on_c, 0, 61, 0
2,83798, Note_on_c, 0, 65, 0
2,83801, Note_on_c, 0, 78, 76
2,83803, Note_on_c, 0, 63, 68
2,83804, Note_on_c, 0, 80, 0
2,83904, Note_on_c, 0, 63, 0
2,83911, Note_on_c, 0, 78, 0
2,83922, Note_on_c, 0, 77, 77
2,83926, Note_on_c, 0, 61, 69
2,84034, Note_on_c, 0, 63, 69
2,84037, Note_on_c, 0, 78, 83
2,84041, Note_on_c, 0, 77, 0
2,84046, Note_on_c, 0, 61, 0
2,84116, Note_on_c, 0, 63, 0
2,84164, Note_on_c, 0, 80, 84
2,84168, Note_on_c, 0, 72, 83
2,84172, Note_on_c, 0, 60, 73
2,84172, Note_on_c, 0, 78, 0
2,84221, Note_on_c, 0, 72, 0
2,84288, Note_on_c, 0, 78, 87
2,84301, Note_on_c, 0, 80, 0
2,84398, Note_on_c, 0, 78, 0
2,84417, Note_on_c, 0, 77, 78
2,84418, Note_on_c, 0, 68, 76
2,84447, Note_on_c, 0, 68, 0
2,84533, Note_on_c, 0, 77, 0
2,84538, Note_on_c, 0, 60, 0
2,84538, Note_on_c, 0, 60, 15
2,84540, Note_on_c, 0, 75, 74
2,84664, Note_on_c, 0, 63, 71
2,84672, Note_on_c, 0, 60, 0
2,84677, Note_on_c, 0, 77, 76
2,84680, Note_on_c, 0, 75, 0
2,84930, Note_on_c, 0, 61, 68
2,84930, Note_on_c, 0, 63, 0
2,85013, Note_on_c, 0, 61, 0
2,85034, Note_on_c, 0, 60, 64
2,85140, Note_on_c, 0, 60, 0
2,85166, Note_on_c, 0, 61, 63
2,85172, Note_on_c, 0, 58, 67
2,85207, Note_on_c, 0, 61, 0
2,85296, Note_on_c, 0, 75, 68
2,85321, Note_on_c, 0, 77, 0
2,85414, Note_on_c, 0, 73, 69
2,85415, Note_on_c, 0, 75, 0
2,85417, Note_on_c, 0, 70, 75
2,85458, Note_on_c, 0, 70, 0
2,85531, Note_on_c, 0, 73, 0
2,85533, Note_on_c, 0, 77, 76
2,85652, Note_on_c, 0, 60, 79
2,85655, Note_on_c, 0, 77, 0
2,85656, Note_on_c, 0, 75, 74
2,85659, Note_on_c, 0, 58, 0
2,85689, Note_on_c, 0, 60, 0
2,85767, Note_on_c, 0, 73, 67
2,85773, Note_on_c, 0, 75, 0
2,85879, Note_on_c, 0, 73, 0
2,85900, Note_on_c, 0, 72, 68
2,85903, Note_on_c, 0, 68, 68
2,85920, Note_on_c, 0, 56, 45
2,85934, Note_on_c, 0, 68, 0
2,85947, Note_on_c, 0, 56, 0
2,85984, Note_on_c, 0, 72, 0
2,86016, Note_on_c, 0, 75, 69
2,86140, Note_on_c, 0, 58, 59
2,86144, Note_on_c, 0, 73, 70
2,86144, Note_on_c, 0, 75, 0
2,86178, Note_on_c, 0, 58, 0
2,86245, Note_on_c, 0, 73, 0
2,86251, Note_on_c, 0, 72, 70
2,86368, Note_on_c, 0, 72, 0
2,86369, Note_on_c, 0, 51, 59
2,86374, Note_on_c, 0, 73, 65
2,86382, Note_on_c, 0, 67, 51
2,86415, Note_on_c, 0, 51, 0
2,86433, Note_on_c, 0, 67, 0
2,86487, Note_on_c, 0, 73, 0
2,86493, Note_on_c, 0, 70, 63
2,86619, Note_on_c, 0, 70, 0
2,86629, Note_on_c, 0, 56, 46
2,86638, Note_on_c, 0, 72, 61
2,86713, Note_on_c, 0, 72, 0
2,86885, Note_on_c, 0, 75, 70
2,86890, Note_on_c, 0, 68, 59
2,86925, Note_on_c, 0, 56, 0
2,86925, Note_on_c, 0, 68, 0
2,86998, Note_on_c, 0, 66, 73
2,87004, Note_on_c, 0, 75, 0
2,87083, Note_on_c, 0, 66, 0
2,87120, Note_on_c, 0, 78, 81
2,87125, Note_on_c, 0, 68, 74
2,87165, Note_on_c, 0, 68, 0
2,87245, Note_on_c, 0, 70, 67
2,87309, Note_on_c, 0, 70, 0
2,87363, Note_on_c, 0, 56, 75
2,87378, Note_on_c, 0, 72, 73
2,87418, Note_on_c, 0, 56, 0
2,87456, Note_on_c, 0, 72, 0
2,87493, Note_on_c, 0, 68, 73
2,87569, Note_on_c, 0, 68, 0
2,87610, Note_on_c, 0, 58, 82
2,87616, Note_on_c, 0, 73, 68
2,87717, Note_on_c, 0, 73, 0
2,87724, Note_on_c, 0, 58, 0
2,87725, Note_on_c, 0, 72, 74
2,87728, Note_on_c, 0, 56, 77
2,87817, Note_on_c, 0, 56, 0
2,87833, Note_on_c, 0, 72, 0
2,87844, Note_on_c, 0, 54, 77
2,87852, Note_on_c, 0, 70, 76
2,87905, Note_on_c, 0, 78, 0
2,87927, Note_on_c, 0, 70, 0
2,87928, Note_on_c, 0, 54, 0
2,87945, Note_on_c, 0, 56, 79
2,87950, Note_on_c, 0, 72, 83
2,88006, Note_on_c, 0, 56, 0
2,88052, Note_on_c, 0, 72, 0
2,88069, Note_on_c, 0, 73, 76
2,88069, Note_on_c, 0, 77, 91
2,88074, Note_on_c, 0, 65, 82
2,88116, Note_on_c, 0, 73, 0
2,88141, Note_on_c, 0, 65, 0
2,88185, Note_on_c, 0, 72, 76
2,88254, Note_on_c, 0, 72, 0
2,88312, Note_on_c, 0, 61, 80
2,88324, Note_on_c, 0, 70, 78
2,88345, Note_on_c, 0, 61, 0
2,88397, Note_on_c, 0, 70, 0
2,88428, Note_on_c, 0, 68, 75
2,88530, Note_on_c, 0, 68, 0
2,88573, Note_on_c, 0, 56, 78
2,88578, Note_on_c, 0, 70, 79
2,88608, Note_on_c, 0, 77, 0
2,88824, Note_on_c, 0, 56, 0
2,88832, Note_on_c, 0, 54, 69
2,88936, Note_on_c, 0, 54, 0
2,88948, Note_on_c, 0, 53, 73
2,89029, Note_on_c, 0, 53, 0
2,89061, Note_on_c, 0, 70, 0
2,89063, Note_on_c, 0, 75, 76
2,89070, Note_on_c, 0, 54, 78
2,89108, Note_on_c, 0, 54, 0
2,89179, Note_on_c, 0, 68, 71
2,89284, Note_on_c, 0, 68, 0
2,89311, Note_on_c, 0, 63, 69
2,89311, Note_on_c, 0, 66, 65
2,89353, Note_on_c, 0, 63, 0
2,89388, Note_on_c, 0, 66, 0
2,89417, Note_on_c, 0, 70, 66
2,89523, Note_on_c, 0, 70, 0
2,89541, Note_on_c, 0, 68, 70
2,89543, Note_on_c, 0, 53, 70
2,89578, Note_on_c, 0, 53, 0
2,89618, Note_on_c, 0, 68, 0
2,89660, Note_on_c, 0, 66, 61
2,89678, Note_on_c, 0, 75, 0
2,89761, Note_on_c, 0, 66, 0
2,89776, Note_on_c, 0, 65, 63
2,89777, Note_on_c, 0, 73, 64
2,89786, Note_on_c, 0, 61, 62
2,89819, Note_on_c, 0, 65, 0
2,89825, Note_on_c, 0, 61, 0
2,89884, Note_on_c, 0, 68, 70
2,89893, Note_on_c, 0, 73, 0
2,89999, Note_on_c, 0, 51, 59
2,89999, Note_on_c, 0, 68, 0
2,90003, Note_on_c, 0, 66, 60
2,90006, Note_on_c, 0, 72, 67
2,90038, Note_on_c, 0, 51, 0
2,90046, Note_on_c, 0, 66, 0
2,90064, Note_on_c, 0, 72, 0
2,90106, Note_on_c, 0, 65, 66
2,90164, Note_on_c, 0, 65, 0
2,90236, Note_on_c, 0, 66, 63
2,90244, Note_on_c, 0, 75, 70
2,90248, Note_on_c, 0, 60, 56
2,90269, Note_on_c, 0, 66, 0
2,90283, Note_on_c, 0, 60, 0
2,90366, Note_on_c, 0, 63, 54
2,90409, Note_on_c, 0, 63, 0
2,90513, Note_on_c, 0, 49, 44
2,90513, Note_on_c, 0, 65, 65
2,90531, Note_on_c, 0, 75, 0
2,90596, Note_on_c, 0, 49, 0
2,90626, Note_on_c, 0, 44, 52
2,90750, Note_on_c, 0, 44, 0
2,90760, Note_on_c, 0, 68, 64
2,90766, Note_on_c, 0, 49, 49
2,90878, Note_on_c, 0, 49, 0
2,90889, Note_on_c, 0, 51, 58
2,90963, Note_on_c, 0, 51, 0
2,91006, Note_on_c, 0, 73, 69
2,91022, Note_on_c, 0, 53, 52
2,91106, Note_on_c, 0, 53, 0
2,91127, Note_on_c, 0, 54, 51
2,91247, Note_on_c, 0, 54, 0
2,91248, Note_on_c, 0, 65, 0
2,91253, Note_on_c, 0, 71, 69
2,91262, Note_on_c, 0, 56, 52
2,91266, Note_on_c, 0, 73, 0
2,91314, Note_on_c, 0, 68, 0
2,91338, Note_on_c, 0, 56, 0
2,91376, Note_on_c, 0, 53, 57
2,91423, Note_on_c, 0, 53, 0
2,91502, Note_on_c, 0, 54, 52
2,91502, Note_on_c, 0, 70, 68
2,91530, Note_on_c, 0, 71, 0
2,91580, Note_on_c, 0, 54, 0
2,91617, Note_on_c, 0, 42, 59
2,91698, Note_on_c, 0, 42, 0
2,91756, Note_on_c, 0, 61, 64
2,91758, Note_on_c, 0, 54, 56
2,91823, Note_on_c, 0, 54, 0
2,91872, Note_on_c, 0, 53, 59
2,91993, Note_on_c, 0, 53, 0
2,92011, Note_on_c, 0, 54, 60
2,92014, Note_on_c, 0, 66, 59
2,92108, Note_on_c, 0, 54, 0
2,92131, Note_on_c, 0, 56, 57
2,92216, Note_on_c, 0, 56, 0
2,92246, Note_on_c, 0, 66, 0
2,92250, Note_on_c, 0, 65, 65
2,92257, Note_on_c, 0, 58, 52
2,92347, Note_on_c, 0, 58, 0
2,92366, Note_on_c, 0, 54, 53
2,92465, Note_on_c, 0, 54, 0
2,92481, Note_on_c, 0, 70, 0
2,92484, Note_on_c, 0, 65, 0
2,92485, Note_on_c, 0, 66, 63
2,92488, Note_on_c, 0, 51, 57
2,92562, Note_on_c, 0, 51, 0
2,92586, Note_on_c, 0, 61, 0
2,92612, Note_on_c, 0, 53, 47
2,92671, Note_on_c, 0, 53, 0
2,92724, Note_on_c, 0, 54, 53
2,92745, Note_on_c, 0, 66, 0
2,92748, Note_on_c, 0, 70, 69
2,92819, Note_on_c, 0, 54, 0
2,92847, Note_on_c, 0, 51, 57
2,92858, Note_on_c, 0, 70, 0
2,92863, Note_on_c, 0, 66, 68
2,92941, Note_on_c, 0, 51, 0
2,92954, Note_on_c, 0, 66, 0
2,92975, Note_on_c, 0, 48, 53
2,92978, Note_on_c, 0, 63, 64
2,93040, Note_on_c, 0, 48, 0
2,93080, Note_on_c, 0, 49, 55
2,93167, Note_on_c, 0, 49, 0
2,93174, Note_on_c, 0, 63, 0
2,93211, Note_on_c, 0, 51, 58
2,93213, Note_on_c, 0, 66, 58
2,93263, Note_on_c, 0, 51, 0
2,93316, Note_on_c, 0, 48, 49
2,93323, Note_on_c, 0, 66, 0
2,93329, Note_on_c, 0, 63, 59
2,93410, Note_on_c, 0, 48, 0
2,93432, Note_on_c, 0, 63, 0
2,93457, Note_on_c, 0, 41, 51
2,93460, Note_on_c, 0, 56, 59
2,93516, Note_on_c, 0, 41, 0
2,93716, Note_on_c, 0, 53, 42
2,93728, Note_on_c, 0, 63, 60
2,93778, Note_on_c, 0, 63, 0
2,93806, Note_on_c, 0, 53, 0
2,93830, Note_on_c, 0, 51, 54
2,93946, Note_on_c, 0, 51, 0
2,93958, Note_on_c, 0, 56, 0
2,93970, Note_on_c, 0, 68, 69
2,93971, Note_on_c, 0, 53, 54
2,94064, Note_on_c, 0, 53, 0
2,94088, Note_on_c, 0, 54, 59
2,94191, Note_on_c, 0, 54, 0
2,94223, Note_on_c, 0, 56, 51
2,94231, Note_on_c, 0, 60, 62
2,94298, Note_on_c, 0, 60, 0
2,94317, Note_on_c, 0, 56, 0
2,94348, Note_on_c, 0, 53, 48
2,94448, Note_on_c, 0, 53, 0
2,94481, Note_on_c, 0, 50, 49
2,94507, Note_on_c, 0, 65, 58
2,94516, Note_on_c, 0, 68, 0
2,94574, Note_on_c, 0, 50, 0
2,94601, Note_on_c, 0, 51, 57
2,94679, Note_on_c, 0, 51, 0
2,94742, Note_on_c, 0, 53, 52
2,94746, Note_on_c, 0, 65, 0
2,94748, Note_on_c, 0, 68, 67
2,94832, Note_on_c, 0, 53, 0
2,94850, Note_on_c, 0, 68, 0
2,94858, Note_on_c, 0, 65, 73
2,94861, Note_on_c, 0, 50, 46
2,94946, Note_on_c, 0, 65, 0
2,94957, Note_on_c, 0, 50, 0
2,94973, Note_on_c, 0, 62, 68
2,94981, Note_on_c, 0, 46, 57
2,95068, Note_on_c, 0, 46, 0
2,95100, Note_on_c, 0, 48, 58
2,95159, Note_on_c, 0, 48, 0
2,95217, Note_on_c, 0, 50, 56
2,95224, Note_on_c, 0, 65, 66
2,95229, Note_on_c, 0, 62, 0
2,95299, Note_on_c, 0, 50, 0
2,95329, Note_on_c, 0, 46, 53
2,95332, Note_on_c, 0, 65, 0
2,95336, Note_on_c, 0, 62, 70
2,95418, Note_on_c, 0, 62, 0
2,95425, Note_on_c, 0, 46, 0
2,95465, Note_on_c, 0, 39, 55
2,95465, Note_on_c, 0, 54, 68
2,95516, Note_on_c, 0, 39, 0
2,95716, Note_on_c, 0, 58, 67
2,95719, Note_on_c, 0, 51, 60
2,95774, Note_on_c, 0, 58, 0
2,95810, Note_on_c, 0, 51, 0
2,95843, Note_on_c, 0, 50, 54
2,95957, Note_on_c, 0, 50, 0
2,95974, Note_on_c, 0, 51, 56
2,95978, Note_on_c, 0, 54, 0
2,95992, Note_on_c, 0, 66, 66
2,96071, Note_on_c, 0, 51, 0
2,96109, Note_on_c, 0, 53, 55
2,96197, Note_on_c, 0, 53, 0
2,96241, Note_on_c, 0, 54, 48
2,96243, Note_on_c, 0, 58, 58
2,96291, Note_on_c, 0, 58, 0
2,96321, Note_on_c, 0, 54, 0
2,96353, Note_on_c, 0, 51, 54
2,96451, Note_on_c, 0, 51, 0
2,96484, Note_on_c, 0, 63, 55
2,96489, Note_on_c, 0, 48, 37
2,96499, Note_on_c, 0, 66, 0
2,96561, Note_on_c, 0, 48, 0
2,96614, Note_on_c, 0, 49, 51
2,96615, Note_on_c, 0, 65, 64
2,96695, Note_on_c, 0, 49, 0
2,96735, Note_on_c, 0, 51, 65
2,96735, Note_on_c, 0, 63, 0
2,96735, Note_on_c, 0, 66, 72
2,96760, Note_on_c, 0, 65, 0
2,96810, Note_on_c, 0, 66, 0
2,96815, Note_on_c, 0, 51, 0
2,96838, Note_on_c, 0, 48, 61
2,96847, Note_on_c, 0, 63, 81
2,96952, Note_on_c, 0, 48, 0
2,96959, Note_on_c, 0, 63, 0
2,96966, Note_on_c, 0, 44, 67
2,96976, Note_on_c, 0, 75, 87
2,97087, Note_on_c, 0, 66, 79
2,97088, Note_on_c, 0, 44, 0
2,97096, Note_on_c, 0, 46, 67
2,97153, Note_on_c, 0, 46, 0
2,97187, Note_on_c, 0, 66, 0
2,97204, Note_on_c, 0, 68, 76
2,97205, Note_on_c, 0, 48, 63
2,97282, Note_on_c, 0, 68, 0
2,97305, Note_on_c, 0, 48, 0
2,97320, Note_on_c, 0, 63, 76
2,97323, Note_on_c, 0, 44, 66
2,97392, Note_on_c, 0, 63, 0
2,97410, Note_on_c, 0, 44, 0
2,97455, Note_on_c, 0, 37, 76
2,97459, Note_on_c, 0, 65, 77
2,97492, Note_on_c, 0, 37, 0
2,97579, Note_on_c, 0, 73, 73
2,97585, Note_on_c, 0, 75, 0
2,97692, Note_on_c, 0, 73, 0
2,97701, Note_on_c, 0, 72, 77
2,97707, Note_on_c, 0, 49, 70
2,97793, Note_on_c, 0, 65, 0
2,97801, Note_on_c, 0, 49, 0
2,97805, Note_on_c, 0, 72, 0
2,97814, Note_on_c, 0, 75, 86
2,97815, Note_on_c, 0, 51, 81
2,97891, Note_on_c, 0, 51, 0
2,97931, Note_on_c, 0, 73, 78
2,97931, Note_on_c, 0, 75, 0
2,97933, Note_on_c, 0, 53, 86
2,97964, Note_on_c, 0, 53, 0
2,98051, Note_on_c, 0, 73, 0
2,98055, Note_on_c, 0, 68, 78
2,98193, Note_on_c, 0, 68, 0
2,98194, Note_on_c, 0, 61, 80
2,98194, Note_on_c, 0, 70, 74
2,98200, Note_on_c, 0, 49, 70
2,98243, Note_on_c, 0, 49, 0
2,98304, Note_on_c, 0, 70, 0
2,98316, Note_on_c, 0, 71, 78
2,98425, Note_on_c, 0, 61, 0
2,98431, Note_on_c, 0, 54, 70
2,98434, Note_on_c, 0, 71, 0
2,98436, Note_on_c, 0, 70, 71
2,98546, Note_on_c, 0, 70, 0
2,98551, Note_on_c, 0, 68, 79
2,98559, Note_on_c, 0, 60, 65
2,98572, Note_on_c, 0, 54, 0
2,98654, Note_on_c, 0, 68, 0
2,98658, Note_on_c, 0, 60, 0
2,98671, Note_on_c, 0, 58, 71
2,98674, Note_on_c, 0, 66, 74
2,98741, Note_on_c, 0, 66, 0
2,98746, Note_on_c, 0, 58, 0
2,98789, Note_on_c, 0, 60, 73
2,98789, Note_on_c, 0, 68, 79
2,98866, Note_on_c, 0, 60, 0
2,98896, Note_on_c, 0, 68, 0
2,98918, Note_on_c, 0, 77, 90
2,98926, Note_on_c, 0, 61, 72
2,98947, Note_on_c, 0, 53, 36
2,98964, Note_on_c, 0, 77, 0
2,98991, Note_on_c, 0, 53, 0
2,99003, Note_on_c, 0, 61, 0
2,99025, Note_on_c, 0, 60, 74
2,99146, Note_on_c, 0, 60, 0
2,99164, Note_on_c, 0, 73, 84
2,99165, Note_on_c, 0, 58, 72
2,99217, Note_on_c, 0, 73, 0
2,99276, Note_on_c, 0, 58, 0
2,99282, Note_on_c, 0, 56, 79
2,99414, Note_on_c, 0, 56, 0
2,99438, Note_on_c, 0, 68, 81
2,99441, Note_on_c, 0, 51, 62
2,99441, Note_on_c, 0, 58, 60
2,99516, Note_on_c, 0, 51, 0
2,99703, Note_on_c, 0, 66, 72
2,99705, Note_on_c, 0, 49, 61
2,99709, Note_on_c, 0, 68, 0
2,99753, Note_on_c, 0, 49, 0
2,99799, Note_on_c, 0, 66, 0
2,99816, Note_on_c, 0, 65, 72
2,99923, Note_on_c, 0, 65, 0
2,99927, Note_on_c, 0, 58, 0
2,99935, Note_on_c, 0, 48, 63
2,99939, Note_on_c, 0, 66, 72
2,99985, Note_on_c, 0, 66, 0
2,100048, Note_on_c, 0, 56, 76
2,100052, Note_on_c, 0, 48, 0
2,100166, Note_on_c, 0, 56, 0
2,100175, Note_on_c, 0, 75, 81
2,100176, Note_on_c, 0, 54, 69
2,100240, Note_on_c, 0, 54, 0
2,100241, Note_on_c, 0, 75, 0
2,100285, Note_on_c, 0, 58, 78
2,100316, Note_on_c, 0, 58, 0
2,100416, Note_on_c, 0, 56, 75
2,100422, Note_on_c, 0, 65, 75
2,100431, Note_on_c, 0, 49, 54
2,100466, Note_on_c, 0, 65, 0
2,100472, Note_on_c, 0, 56, 0
2,100479, Note_on_c, 0, 49, 0
2,100535, Note_on_c, 0, 54, 72
2,100627, Note_on_c, 0, 54, 0
2,100656, Note_on_c, 0, 53, 76
2,100659, Note_on_c, 0, 73, 75
2,100712, Note_on_c, 0, 53, 0
2,100713, Note_on_c, 0, 73, 0
2,100784, Note_on_c, 0, 56, 59
2,100820, Note_on_c, 0, 56, 0
2,100844, Note_on_c, 0, 54, 3
2,100898, Note_on_c, 0, 54, 0
2,100911, Note_on_c, 0, 54, 55
2,100914, Note_on_c, 0, 63, 72
2,100919, Note_on_c, 0, 44, 61
2,100950, Note_on_c, 0, 63, 0
2,100954, Note_on_c, 0, 54, 0
2,101046, Note_on_c, 0, 53, 55
2,101057, Note_on_c, 0, 44, 0
2,101154, Note_on_c, 0, 53, 0
2,101165, Note_on_c, 0, 51, 68
2,101189, Note_on_c, 0, 72, 70
2,101238, Note_on_c, 0, 72, 0
2,101302, Note_on_c, 0, 51, 0
2,101311, Note_on_c, 0, 54, 75
2,101446, Note_on_c, 0, 54, 0
2,101474, Note_on_c, 0, 61, 70
2,101478, Note_on_c, 0, 46, 48
2,101479, Note_on_c, 0, 53, 59
2,101570, Note_on_c, 0, 46, 0
2,101584, Note_on_c, 0, 61, 0
2,101598, Note_on_c, 0, 53, 0
2,101610, Note_on_c, 0, 65, 69
2,101614, Note_on_c, 0, 56, 67
2,101727, Note_on_c, 0, 58, 67
2,101727, Note_on_c, 0, 65, 0
2,101728, Note_on_c, 0, 56, 0
2,101731, Note_on_c, 0, 66, 74
2,101822, Note_on_c, 0, 58, 0
2,101834, Note_on_c, 0, 68, 82
2,101842, Note_on_c, 0, 66, 0
2,101843, Note_on_c, 0, 60, 71
2,101960, Note_on_c, 0, 70, 76
2,101964, Note_on_c, 0, 60, 0
2,101966, Note_on_c, 0, 61, 66
2,101967, Note_on_c, 0, 68, 0
2,102017, Note_on_c, 0, 70, 0
2,102057, Note_on_c, 0, 61, 0
2,102073, Note_on_c, 0, 72, 71
2,102076, Note_on_c, 0, 60, 66
2,102198, Note_on_c, 0, 60, 0
2,102200, Note_on_c, 0, 73, 77
2,102205, Note_on_c, 0, 58, 67
2,102205, Note_on_c, 0, 72, 0
2,102305, Note_on_c, 0, 58, 0
2,102309, Note_on_c, 0, 75, 79
2,102316, Note_on_c, 0, 56, 64
2,102321, Note_on_c, 0, 73, 0
2,102428, Note_on_c, 0, 56, 0
2,102441, Note_on_c, 0, 75, 0
2,102443, Note_on_c, 0, 76, 79
2,102444, Note_on_c, 0, 55, 67
2,102551, Note_on_c, 0, 55, 0
2,102558, Note_on_c, 0, 75, 79
2,102560, Note_on_c, 0, 56, 68
2,102568, Note_on_c, 0, 76, 0
2,102633, Note_on_c, 0, 56, 0
2,102682, Note_on_c, 0, 73, 77
2,102692, Note_on_c, 0, 75, 0
2,102798, Note_on_c, 0, 56, 67
2,102809, Note_on_c, 0, 75, 84
2,102821, Note_on_c, 0, 73, 0
2,102833, Note_on_c, 0, 56, 0
2,102868, Note_on_c, 0, 75, 0
2,102916, Note_on_c, 0, 76, 76
2,102935, Note_on_c, 0, 51, 76
2,103025, Note_on_c, 0, 76, 0
2,103033, Note_on_c, 0, 79, 78
2,103040, Note_on_c, 0, 49, 70
2,103129, Note_on_c, 0, 51, 0
2,103152, Note_on_c, 0, 49, 0
2,103159, Note_on_c, 0, 48, 72
2,103167, Note_on_c, 0, 80, 83
2,103171, Note_on_c, 0, 79, 0
2,103247, Note_on_c, 0, 48, 0
2,103267, Note_on_c, 0, 51, 3
2,103270, Note_on_c, 0, 46, 66
2,103285, Note_on_c, 0, 82, 85
2,103299, Note_on_c, 0, 80, 0
2,103373, Note_on_c, 0, 51, 0
2,103374, Note_on_c, 0, 46, 0
2,103389, Note_on_c, 0, 44, 59
2,103412, Note_on_c, 0, 73, 77
2,103422, Note_on_c, 0, 82, 0
2,103516, Note_on_c, 0, 73, 0
2,103521, Note_on_c, 0, 51, 63
2,103540, Note_on_c, 0, 72, 75
2,103557, Note_on_c, 0, 44, 0
2,103626, Note_on_c, 0, 51, 0
2,103654, Note_on_c, 0, 53, 69
2,103654, Note_on_c, 0, 70, 76
2,103662, Note_on_c, 0, 72, 0
2,103765, Note_on_c, 0, 53, 0
2,103766, Note_on_c, 0, 54, 69
2,103770, Note_on_c, 0, 68, 80
2,103794, Note_on_c, 0, 70, 0
2,103894, Note_on_c, 0, 56, 69
2,103898, Note_on_c, 0, 54, 0
2,103898, Note_on_c, 0, 75, 78
2,103907, Note_on_c, 0, 68, 0
2,103959, Note_on_c, 0, 75, 0
2,104014, Note_on_c, 0, 56, 0
2,104015, Note_on_c, 0, 58, 72
2,104118, Note_on_c, 0, 58, 0
2,104149, Note_on_c, 0, 60, 64
2,104149, Note_on_c, 0, 66, 73
2,104207, Note_on_c, 0, 66, 0
2,104245, Note_on_c, 0, 60, 0
2,104267, Note_on_c, 0, 56, 67
2,104384, Note_on_c, 0, 56, 0
2,104413, Note_on_c, 0, 61, 63
2,104413, Note_on_c, 0, 65, 68
2,104458, Control_c, 0, 64, 40
2,104473, Control_c, 0, 64, 57
2,104488, Control_c, 0, 64, 63
2,104503, Control_c, 0, 64, 68
2,104519, Control_c, 0, 64, 74
2,104533, Note_on_c, 0, 61, 0
2,104534, Control_c, 0, 64, 85
2,104549, Control_c, 0, 64, 100
2,104565, Control_c, 0, 64, 127
2,104593, Note_on_c, 0, 65, 0
2,104656, Control_c, 0, 64, 93
2,104670, Control_c, 0, 64, 72
2,104686, Control_c, 0, 64, 57
2,104699, Note_on_c, 0, 41, 58
2,104701, Control_c, 0, 64, 0
2,104706, Note_on_c, 0, 73, 82
2,104710, Note_on_c, 0, 68, 72
2,104714, Note_on_c, 0, 61, 68
2,104762, Control_c, 0, 64, 40
2,104777, Control_c, 0, 64, 59
2,104788, Note_on_c, 0, 68, 0
2,104791, Control_c, 0, 64, 64
2,104807, Control_c, 0, 64, 69
2,104810, Note_on_c, 0, 61, 0
2,104822, Control_c, 0, 64, 77
2,104837, Control_c, 0, 64, 92
2,104852, Control_c, 0, 64, 127
2,104895, Note_on_c, 0, 73, 0
2,104919, Note_on_c, 0, 41, 0
2,104990, Control_c, 0, 64, 115
2,105006, Control_c, 0, 64, 81
2,105028, Control_c, 0, 64, 65
2,105036, Note_on_c, 0, 42, 56
2,105042, Note_on_c, 0, 70, 74
2,105044, Control_c, 0, 64, 32
2,105044, Note_on_c, 0, 66, 64
2,105046, Note_on_c, 0, 63, 64
2,105059, Control_c, 0, 64, 0
2,105090, Control_c, 0, 64, 16
2,105104, Control_c, 0, 64, 49
2,105120, Control_c, 0, 64, 62
2,105135, Control_c, 0, 64, 67
2,105149, Control_c, 0, 64, 73
2,105165, Control_c, 0, 64, 86
2,105176, Note_on_c, 0, 42, 0
2,105180, Control_c, 0, 64, 127
2,105193, Note_on_c, 0, 66, 0
2,105223, Note_on_c, 0, 70, 0
2,105238, Note_on_c, 0, 63, 0
2,105363, Control_c, 0, 64, 100
2,105378, Control_c, 0, 64, 77
2,105393, Control_c, 0, 64, 63
2,105397, Note_on_c, 0, 72, 82
2,105400, Note_on_c, 0, 68, 71
2,105401, Note_on_c, 0, 66, 63
2,105403, Note_on_c, 0, 44, 55
2,105409, Control_c, 0, 64, 33
2,105424, Control_c, 0, 64, 0
2,105467, Control_c, 0, 64, 46
2,105482, Control_c, 0, 64, 61
2,105497, Control_c, 0, 64, 66
2,105512, Control_c, 0, 64, 73
2,105513, Note_on_c, 0, 72, 0
2,105528, Control_c, 0, 64, 86
2,105537, Note_on_c, 0, 66, 0
2,105537, Note_on_c, 0, 68, 0
2,105543, Control_c, 0, 64, 127
2,105546, Note_on_c, 0, 44, 0
2,105866, Note_on_c, 0, 37, 47
2,105877, Note_on_c, 0, 61, 69
2,105884, Control_c, 0, 64, 103
2,105899, Control_c, 0, 64, 86
2,105914, Control_c, 0, 64, 75
2,105930, Control_c, 0, 64, 67
2,105944, Control_c, 0, 64, 60
2,105950, Note_on_c, 0, 65, 71
2,105959, Control_c, 0, 64, 48
2,105975, Control_c, 0, 64, 37
2,105990, Control_c, 0, 64, 23
2,106006, Control_c, 0, 64, 0
2,106015, Note_on_c, 0, 68, 80
2,106091, Note_on_c, 0, 73, 81
2,106692, Control_c, 0, 64, 18
2,106707, Control_c, 0, 64, 26
2,106722, Control_c, 0, 64, 32
2,106737, Control_c, 0, 64, 38
2,106752, Control_c, 0, 64, 45
2,106767, Control_c, 0, 64, 50
2,106782, Control_c, 0, 64, 54
2,106798, Control_c, 0, 64, 58
2,106813, Control_c, 0, 64, 61
2,106828, Control_c, 0, 64, 63
2,106843, Control_c, 0, 64, 66
2,106858, Control_c, 0, 64, 70
2,106874, Control_c, 0, 64, 76
2,106889, Control_c, 0, 64, 85
2,106904, Control_c, 0, 64, 100
2,106919, Control_c, 0, 64, 127
2,107004, Note_on_c, 0, 73, 0
2,107024, Note_on_c, 0, 61, 0
2,107058, Note_on_c, 0, 65, 0
2,107112, Note_on_c, 0, 68, 0
2,107201, Note_on_c, 0, 37, 0
2,107914, Control_c, 0, 64, 121
2,107929, Control_c, 0, 64, 110
2,107944, Control_c, 0, 64, 104
2,107959, Control_c, 0, 64, 99
2,107974, Control_c, 0, 64, 96
2,107989, Control_c, 0, 64, 92
2,108004, Control_c, 0, 64, 89
2,108019, Control_c, 0, 64, 87
2,108035, Control_c, 0, 64, 85
2,108050, Control_c, 0, 64, 83
2,108065, Control_c, 0, 64, 82
2,108088, Control_c, 0, 64, 80
2,108103, Control_c, 0, 64, 78
2,108119, Control_c, 0, 64, 77
2,108133, Control_c, 0, 64, 76
2,108148, Control_c, 0, 64, 74
2,108164, Control_c, 0, 64, 72
2,108179, Control_c, 0, 64, 70
2,108195, Control_c, 0, 64, 69
2,108210, Control_c, 0, 64, 68
2,108225, Control_c, 0, 64, 67
2,108241, Control_c, 0, 64, 67
2,108256, Control_c, 0, 64, 66
2,108272, Control_c, 0, 64, 65
2,108287, Control_c, 0, 64, 65
2,108302, Control_c, 0, 64, 64
2,108317, Control_c, 0, 64, 63
2,108332, Control_c, 0, 64, 62
2,108347, Control_c, 0, 64, 60
2,108363, Control_c, 0, 64, 56
2,108378, Control_c, 0, 64, 49
2,108393, Control_c, 0, 64, 40
2,108408, Control_c, 0, 64, 30
2,108423, Control_c, 0, 64, 12
2,108438, Control_c, 0, 64, 0
2,108439, End_track
0, 0, End_of_file
