0, 0, Header, 1, 2, 384
1, 0, Start_track
1, 0, Tempo, 500000
1, 0, Time_signature, 4, 2, 24, 8
1, 1, End_track
2, 0, Start_track
2, 0, Program_c, 0, 0
2, 782, Note_on_c, 0, 49, 37
2, 790, Note_on_c, 0, 77, 55
2, 852, Note_on_c, 0, 77, 0
2, 881, Note_on_c, 0, 73, 51
2, 919, Note_on_c, 0, 73, 0
2, 948, Note_on_c, 0, 68, 54
2, 1011, Note_on_c, 0, 68, 0
2, 1023, Note_on_c, 0, 73, 58
2, 1090, Note_on_c, 0, 73, 0
2, 1111, Note_on_c, 0, 77, 62
2, 1121, Note_on_c, 0, 61, 50
2, 1140, Note_on_c, 0, 49, 0
2, 1149, Note_on_c, 0, 77, 0
2, 1152, Note_on_c, 0, 61, 0
2, 1202, Note_on_c, 0, 73, 61
2, 1246, Note_on_c, 0, 73, 0
2, 1276, Note_on_c, 0, 51, 52
2, 1358, Note_on_c, 0, 73, 64
2, 1393, Note_on_c, 0, 73, 0
2, 1428, Note_on_c, 0, 78, 67
2, 1472, Note_on_c, 0, 78, 0
2, 1503, Note_on_c, 0, 73, 67
2, 1552, Note_on_c, 0, 73, 0
2, 1572, Note_on_c, 0, 51, 0
2, 1588, Note_on_c, 0, 61, 55
2, 1590, Note_on_c, 0, 78, 66
2, 1620, Note_on_c, 0, 61, 0
2, 1624, Note_on_c, 0, 78, 0
2, 1664, Note_on_c, 0, 73, 62
2, 1697, Note_on_c, 0, 73, 0
2, 1741, Note_on_c, 0, 80, 65
2, 1742, Note_on_c, 0, 53, 54
2, 1775, Note_on_c, 0, 80, 0
2, 1811, Note_on_c, 0, 73, 63
2, 1869, Note_on_c, 0, 73, 0
2, 1896, Note_on_c, 0, 80, 74
2, 1932, Note_on_c, 0, 80, 0
2, 1982, Note_on_c, 0, 73, 64
2, 2012, Note_on_c, 0, 53, 0
2, 2030, Note_on_c, 0, 73, 0
2, 2057, Note_on_c, 0, 80, 79
2, 2069, Note_on_c, 0, 61, 56
2, 2093, Note_on_c, 0, 80, 0
2, 2095, Note_on_c, 0, 61, 0
2, 2134, Note_on_c, 0, 73, 70
2, 2196, Note_on_c, 0, 73, 0
2, 2221, Note_on_c, 0, 82, 84
2, 2227, Note_on_c, 0, 54, 55
2, 2255, Note_on_c, 0, 82, 0
2, 2302, Note_on_c, 0, 73, 69
2, 2358, Note_on_c, 0, 73, 0
2, 2384, Note_on_c, 0, 82, 75
2, 2427, Note_on_c, 0, 82, 0
2, 2462, Note_on_c, 0, 73, 70
2, 2475, Note_on_c, 0, 54, 0
2, 2521, Note_on_c, 0, 73, 0
2, 2534, Note_on_c, 0, 82, 78
2, 2537, Note_on_c, 0, 61, 56
2, 2570, Note_on_c, 0, 61, 0
2, 2580, Note_on_c, 0, 82, 0
2, 2612, Note_on_c, 0, 73, 70
2, 2671, Note_on_c, 0, 73, 0
2, 2694, Note_on_c, 0, 80, 70
2, 2699, Note_on_c, 0, 53, 50
2, 2737, Note_on_c, 0, 80, 0
2, 2777, Note_on_c, 0, 73, 68
2, 2834, Note_on_c, 0, 73, 0
2, 2854, Note_on_c, 0, 80, 70
2, 2888, Note_on_c, 0, 80, 0
2, 2933, Note_on_c, 0, 73, 63
2, 2957, Note_on_c, 0, 53, 0
2, 2986, Note_on_c, 0, 73, 0
2, 3009, Note_on_c, 0, 80, 73
2, 3020, Note_on_c, 0, 61, 46
2, 3045, Note_on_c, 0, 61, 0
2, 3047, Note_on_c, 0, 80, 0
2, 3093, Note_on_c, 0, 73, 65
2, 3145, Note_on_c, 0, 73, 0
2, 3170, Note_on_c, 0, 51, 47
2, 3177, Note_on_c, 0, 78, 70
2, 3244, Note_on_c, 0, 78, 0
2, 3258, Note_on_c, 0, 77, 72
2, 3322, Note_on_c, 0, 77, 0
2, 3335, Note_on_c, 0, 75, 72
2, 3394, Note_on_c, 0, 75, 0
2, 3407, Note_on_c, 0, 77, 75
2, 3408, Note_on_c, 0, 51, 0
2, 3491, Note_on_c, 0, 77, 0
2, 3492, Note_on_c, 0, 60, 58
2, 3494, Note_on_c, 0, 78, 78
2, 3524, Note_on_c, 0, 60, 0
2, 3555, Note_on_c, 0, 78, 0
2, 3569, Note_on_c, 0, 75, 72
2, 3642, Note_on_c, 0, 75, 0
2, 3652, Note_on_c, 0, 49, 47
2, 3652, Note_on_c, 0, 77, 77
2, 3711, Note_on_c, 0, 49, 0
2, 3726, Note_on_c, 0, 77, 0
2, 3738, Note_on_c, 0, 75, 75
2, 3803, Note_on_c, 0, 75, 0
2, 3813, Note_on_c, 0, 73, 76
2, 3885, Note_on_c, 0, 73, 0
2, 3895, Note_on_c, 0, 75, 74
2, 3960, Note_on_c, 0, 75, 0
2, 3967, Note_on_c, 0, 61, 73
2, 3967, Note_on_c, 0, 77, 77
2, 4036, Note_on_c, 0, 77, 0
2, 4047, Note_on_c, 0, 73, 72
2, 4127, Note_on_c, 0, 73, 0
2, 4130, Note_on_c, 0, 75, 75
2, 4195, Note_on_c, 0, 75, 0
2, 4202, Note_on_c, 0, 77, 77
2, 4241, Note_on_c, 0, 61, 0
2, 4279, Note_on_c, 0, 77, 0
2, 4287, Note_on_c, 0, 60, 57
2, 4293, Note_on_c, 0, 75, 74
2, 4347, Note_on_c, 0, 60, 0
2, 4358, Note_on_c, 0, 75, 0
2, 4361, Note_on_c, 0, 73, 76
2, 4365, Note_on_c, 0, 58, 66
2, 4414, Note_on_c, 0, 73, 0
2, 4422, Note_on_c, 0, 58, 0
2, 4438, Note_on_c, 0, 56, 68
2, 4438, Note_on_c, 0, 72, 70
2, 4479, Note_on_c, 0, 72, 0
2, 4502, Note_on_c, 0, 56, 0
2, 4514, Note_on_c, 0, 70, 75
2, 4517, Note_on_c, 0, 58, 65
2, 4556, Note_on_c, 0, 58, 0
2, 4561, Note_on_c, 0, 70, 0
2, 4597, Note_on_c, 0, 60, 65
2, 4601, Note_on_c, 0, 68, 76
2, 4652, Note_on_c, 0, 60, 0
2, 4681, Note_on_c, 0, 56, 58
2, 4721, Note_on_c, 0, 56, 0
2, 4748, Note_on_c, 0, 51, 64
2, 4821, Note_on_c, 0, 51, 0
2, 4833, Note_on_c, 0, 56, 60
2, 4880, Note_on_c, 0, 56, 0
2, 4902, Note_on_c, 0, 68, 0
2, 4915, Note_on_c, 0, 80, 69
2, 4921, Note_on_c, 0, 60, 54
2, 4943, Note_on_c, 0, 80, 0
2, 4962, Note_on_c, 0, 60, 0
2, 5000, Note_on_c, 0, 56, 57
2, 5076, Note_on_c, 0, 56, 0
2, 5080, Note_on_c, 0, 70, 68
2, 5093, Note_on_c, 0, 61, 58
2, 5142, Note_on_c, 0, 61, 0
2, 5180, Note_on_c, 0, 56, 55
2, 5230, Note_on_c, 0, 56, 0
2, 5262, Note_on_c, 0, 61, 57
2, 5304, Note_on_c, 0, 61, 0
2, 5344, Note_on_c, 0, 56, 59
2, 5387, Note_on_c, 0, 70, 0
2, 5392, Note_on_c, 0, 56, 0
2, 5407, Note_on_c, 0, 80, 69
2, 5422, Note_on_c, 0, 61, 62
2, 5435, Note_on_c, 0, 80, 0
2, 5457, Note_on_c, 0, 61, 0
2, 5500, Note_on_c, 0, 56, 60
2, 5536, Note_on_c, 0, 56, 0
2, 5565, Note_on_c, 0, 72, 70
2, 5572, Note_on_c, 0, 63, 62
2, 5615, Note_on_c, 0, 63, 0
2, 5643, Note_on_c, 0, 56, 61
2, 5698, Note_on_c, 0, 56, 0
2, 5726, Note_on_c, 0, 63, 68
2, 5781, Note_on_c, 0, 63, 0
2, 5824, Note_on_c, 0, 56, 65
2, 5871, Note_on_c, 0, 56, 0
2, 5872, Note_on_c, 0, 72, 0
2, 5886, Note_on_c, 0, 80, 74
2, 5904, Note_on_c, 0, 63, 68
2, 5910, Note_on_c, 0, 80, 0
2, 5937, Note_on_c, 0, 63, 0
2, 5973, Note_on_c, 0, 56, 66
2, 6028, Note_on_c, 0, 56, 0
2, 6049, Note_on_c, 0, 73, 80
2, 6065, Note_on_c, 0, 65, 69
2, 6102, Note_on_c, 0, 65, 0
2, 6141, Note_on_c, 0, 56, 71
2, 6185, Note_on_c, 0, 56, 0
2, 6223, Note_on_c, 0, 65, 65
2, 6264, Note_on_c, 0, 65, 0
2, 6297, Note_on_c, 0, 56, 68
2, 6340, Note_on_c, 0, 73, 0
2, 6344, Note_on_c, 0, 56, 0
2, 6384, Note_on_c, 0, 80, 73
2, 6390, Note_on_c, 0, 65, 65
2, 6409, Note_on_c, 0, 80, 0
2, 6421, Note_on_c, 0, 65, 0
2, 6463, Note_on_c, 0, 56, 65
2, 6518, Note_on_c, 0, 56, 0
2, 6544, Note_on_c, 0, 72, 66
2, 6560, Note_on_c, 0, 63, 66
2, 6600, Note_on_c, 0, 63, 0
2, 6636, Note_on_c, 0, 56, 66
2, 6679, Note_on_c, 0, 56, 0
2, 6719, Note_on_c, 0, 63, 62
2, 6761, Note_on_c, 0, 63, 0
2, 6797, Note_on_c, 0, 56, 65
2, 6839, Note_on_c, 0, 56, 0
2, 6849, Note_on_c, 0, 72, 0
2, 6869, Note_on_c, 0, 80, 60
2, 6882, Note_on_c, 0, 63, 65
2, 6900, Note_on_c, 0, 80, 0
2, 6918, Note_on_c, 0, 63, 0
2, 6960, Note_on_c, 0, 56, 60
2, 7009, Note_on_c, 0, 56, 0
2, 7023, Note_on_c, 0, 70, 62
2, 7025, Note_on_c, 0, 61, 66
2, 7095, Note_on_c, 0, 61, 0
2, 7108, Note_on_c, 0, 60, 67
2, 7174, Note_on_c, 0, 60, 0
2, 7193, Note_on_c, 0, 58, 62
2, 7260, Note_on_c, 0, 58, 0
2, 7260, Note_on_c, 0, 60, 62
2, 7311, Note_on_c, 0, 70, 0
2, 7337, Note_on_c, 0, 60, 0
2, 7353, Note_on_c, 0, 79, 62
2, 7355, Note_on_c, 0, 61, 65
2, 7374, Note_on_c, 0, 79, 0
2, 7411, Note_on_c, 0, 61, 0
2, 7427, Note_on_c, 0, 58, 62
2, 7469, Note_on_c, 0, 58, 0
2, 7513, Note_on_c, 0, 60, 62
2, 7514, Note_on_c, 0, 68, 61
2, 7580, Note_on_c, 0, 60, 0
2, 7597, Note_on_c, 0, 58, 65
2, 7670, Note_on_c, 0, 58, 0
2, 7676, Note_on_c, 0, 68, 0
2, 7684, Note_on_c, 0, 56, 66
2, 7752, Note_on_c, 0, 56, 0
2, 7758, Note_on_c, 0, 58, 77
2, 7807, Note_on_c, 0, 58, 0
2, 7834, Note_on_c, 0, 80, 88
2, 7851, Note_on_c, 0, 60, 70
2, 7912, Note_on_c, 0, 60, 0
2, 7922, Note_on_c, 0, 56, 69
2, 7997, Note_on_c, 0, 56, 0
2, 8010, Note_on_c, 0, 58, 70
2, 8052, Note_on_c, 0, 58, 0
2, 8095, Note_on_c, 0, 59, 65
2, 8168, Note_on_c, 0, 59, 0
2, 8178, Note_on_c, 0, 58, 66
2, 8194, Note_on_c, 0, 78, 70
2, 8202, Note_on_c, 0, 80, 0
2, 8243, Note_on_c, 0, 58, 0
2, 8254, Note_on_c, 0, 56, 70
2, 8263, Note_on_c, 0, 78, 0
2, 8269, Note_on_c, 0, 77, 71
2, 8329, Note_on_c, 0, 77, 0
2, 8330, Note_on_c, 0, 56, 0
2, 8337, Note_on_c, 0, 54, 59
2, 8344, Note_on_c, 0, 75, 68
2, 8368, Note_on_c, 0, 54, 0
2, 8394, Note_on_c, 0, 75, 0
2, 8407, Note_on_c, 0, 77, 72
2, 8416, Note_on_c, 0, 53, 56
2, 8464, Note_on_c, 0, 53, 0
2, 8481, Note_on_c, 0, 51, 64
2, 8486, Note_on_c, 0, 77, 0
2, 8494, Note_on_c, 0, 78, 71
2, 8549, Note_on_c, 0, 78, 0
2, 8566, Note_on_c, 0, 75, 65
2, 8606, Note_on_c, 0, 75, 0
2, 8641, Note_on_c, 0, 70, 66
2, 8717, Note_on_c, 0, 70, 0
2, 8733, Note_on_c, 0, 75, 60
2, 8749, Note_on_c, 0, 51, 0
2, 8789, Note_on_c, 0, 75, 0
2, 8801, Note_on_c, 0, 63, 58
2, 8804, Note_on_c, 0, 78, 66
2, 8832, Note_on_c, 0, 63, 0
2, 8834, Note_on_c, 0, 78, 0
2, 8900, Note_on_c, 0, 75, 58
2, 8941, Note_on_c, 0, 75, 0
2, 8960, Note_on_c, 0, 53, 48
2, 8966, Note_on_c, 0, 80, 68
2, 9009, Note_on_c, 0, 80, 0
2, 9054, Note_on_c, 0, 75, 63
2, 9094, Note_on_c, 0, 75, 0
2, 9122, Note_on_c, 0, 80, 69
2, 9169, Note_on_c, 0, 80, 0
2, 9205, Note_on_c, 0, 75, 66
2, 9235, Note_on_c, 0, 53, 0
2, 9244, Note_on_c, 0, 75, 0
2, 9274, Note_on_c, 0, 63, 49
2, 9275, Note_on_c, 0, 80, 76
2, 9302, Note_on_c, 0, 63, 0
2, 9308, Note_on_c, 0, 80, 0
2, 9350, Note_on_c, 0, 75, 72
2, 9404, Note_on_c, 0, 75, 0
2, 9431, Note_on_c, 0, 82, 75
2, 9434, Note_on_c, 0, 54, 47
2, 9468, Note_on_c, 0, 82, 0
2, 9513, Note_on_c, 0, 75, 69
2, 9573, Note_on_c, 0, 75, 0
2, 9590, Note_on_c, 0, 82, 78
2, 9640, Note_on_c, 0, 82, 0
2, 9676, Note_on_c, 0, 75, 73
2, 9714, Note_on_c, 0, 54, 0
2, 9738, Note_on_c, 0, 75, 0
2, 9752, Note_on_c, 0, 82, 89
2, 9762, Note_on_c, 0, 63, 51
2, 9787, Note_on_c, 0, 63, 0
2, 9809, Note_on_c, 0, 82, 0
2, 9838, Note_on_c, 0, 75, 77
2, 9919, Note_on_c, 0, 83, 91
2, 9921, Note_on_c, 0, 56, 63
2, 9923, Note_on_c, 0, 75, 0
2, 9964, Note_on_c, 0, 83, 0
2, 10006, Note_on_c, 0, 75, 76
2, 10075, Note_on_c, 0, 75, 0
2, 10086, Note_on_c, 0, 83, 78
2, 10131, Note_on_c, 0, 83, 0
2, 10168, Note_on_c, 0, 75, 72
2, 10213, Note_on_c, 0, 56, 0
2, 10233, Note_on_c, 0, 75, 0
2, 10236, Note_on_c, 0, 83, 80
2, 10252, Note_on_c, 0, 63, 54
2, 10278, Note_on_c, 0, 63, 0
2, 10290, Note_on_c, 0, 83, 0
2, 10329, Note_on_c, 0, 75, 68
2, 10401, Note_on_c, 0, 75, 0
2, 10408, Note_on_c, 0, 82, 76
2, 10413, Note_on_c, 0, 54, 55
2, 10458, Note_on_c, 0, 82, 0
2, 10498, Note_on_c, 0, 75, 71
2, 10558, Note_on_c, 0, 75, 0
2, 10571, Note_on_c, 0, 82, 77
2, 10615, Note_on_c, 0, 82, 0
2, 10654, Note_on_c, 0, 75, 68
2, 10711, Note_on_c, 0, 54, 0
2, 10721, Note_on_c, 0, 75, 0
2, 10730, Note_on_c, 0, 82, 78
2, 10742, Note_on_c, 0, 63, 53
2, 10765, Note_on_c, 0, 63, 0
2, 10782, Note_on_c, 0, 82, 0
2, 10813, Note_on_c, 0, 75, 70
2, 10866, Note_on_c, 0, 75, 0
2, 10889, Note_on_c, 0, 80, 77
2, 10904, Note_on_c, 0, 53, 44
2, 10960, Note_on_c, 0, 80, 0
2, 10976, Note_on_c, 0, 78, 74
2, 11038, Note_on_c, 0, 78, 0
2, 11051, Note_on_c, 0, 77, 74
2, 11112, Note_on_c, 0, 77, 0
2, 11138, Note_on_c, 0, 53, 0
2, 11138, Note_on_c, 0, 78, 71
2, 11220, Note_on_c, 0, 62, 49
2, 11222, Note_on_c, 0, 78, 0
2, 11222, Note_on_c, 0, 80, 74
2, 11245, Note_on_c, 0, 62, 0
2, 11262, Note_on_c, 0, 80, 0
2, 11295, Note_on_c, 0, 77, 71
2, 11357, Note_on_c, 0, 77, 0
2, 11377, Note_on_c, 0, 78, 75
2, 11388, Note_on_c, 0, 51, 53
2, 11455, Note_on_c, 0, 51, 0
2, 11461, Note_on_c, 0, 78, 0
2, 11464, Note_on_c, 0, 77, 76
2, 11531, Note_on_c, 0, 77, 0
2, 11543, Note_on_c, 0, 75, 75
2, 11611, Note_on_c, 0, 75, 0
2, 11623, Note_on_c, 0, 77, 77
2, 11703, Note_on_c, 0, 77, 0
2, 11709, Note_on_c, 0, 63, 80
2, 11709, Note_on_c, 0, 78, 78
2, 11780, Note_on_c, 0, 78, 0
2, 11792, Note_on_c, 0, 75, 71
2, 11865, Note_on_c, 0, 75, 0
2, 11880, Note_on_c, 0, 77, 73
2, 11968, Note_on_c, 0, 77, 0
2, 11974, Note_on_c, 0, 78, 73
2, 12025, Note_on_c, 0, 63, 0
2, 12051, Note_on_c, 0, 61, 61
2, 12051, Note_on_c, 0, 78, 0
2, 12060, Note_on_c, 0, 77, 71
2, 12117, Note_on_c, 0, 61, 0
2, 12121, Note_on_c, 0, 77, 0
2, 12131, Note_on_c, 0, 75, 74
2, 12136, Note_on_c, 0, 60, 62
2, 12181, Note_on_c, 0, 75, 0
2, 12182, Note_on_c, 0, 60, 0
2, 12198, Note_on_c, 0, 58, 64
2, 12204, Note_on_c, 0, 73, 68
2, 12265, Note_on_c, 0, 73, 0
2, 12272, Note_on_c, 0, 58, 0
2, 12281, Note_on_c, 0, 72, 74
2, 12286, Note_on_c, 0, 60, 60
2, 12316, Note_on_c, 0, 60, 0
2, 12357, Note_on_c, 0, 72, 0
2, 12366, Note_on_c, 0, 61, 63
2, 12371, Note_on_c, 0, 70, 75
2, 12421, Note_on_c, 0, 61, 0
2, 12451, Note_on_c, 0, 58, 66
2, 12503, Note_on_c, 0, 58, 0
2, 12528, Note_on_c, 0, 53, 61
2, 12601, Note_on_c, 0, 53, 0
2, 12617, Note_on_c, 0, 58, 64
2, 12655, Note_on_c, 0, 58, 0
2, 12671, Note_on_c, 0, 70, 0
2, 12687, Note_on_c, 0, 82, 73
2, 12693, Note_on_c, 0, 61, 55
2, 12722, Note_on_c, 0, 82, 0
2, 12732, Note_on_c, 0, 61, 0
2, 12773, Note_on_c, 0, 58, 68
2, 12836, Note_on_c, 0, 58, 0
2, 12858, Note_on_c, 0, 63, 62
2, 12865, Note_on_c, 0, 72, 66
2, 12914, Note_on_c, 0, 63, 0
2, 12949, Note_on_c, 0, 58, 61
2, 12990, Note_on_c, 0, 58, 0
2, 13024, Note_on_c, 0, 63, 60
2, 13064, Note_on_c, 0, 63, 0
2, 13105, Note_on_c, 0, 58, 60
2, 13161, Note_on_c, 0, 72, 0
2, 13180, Note_on_c, 0, 82, 69
2, 13188, Note_on_c, 0, 58, 0
2, 13198, Note_on_c, 0, 63, 53
2, 13206, Note_on_c, 0, 82, 0
2, 13233, Note_on_c, 0, 63, 0
2, 13349, Note_on_c, 0, 73, 65
2, 13359, Note_on_c, 0, 65, 58
2, 13395, Note_on_c, 0, 65, 0
2, 13447, Note_on_c, 0, 58, 51
2, 13494, Note_on_c, 0, 58, 0
2, 13531, Note_on_c, 0, 65, 54
2, 13570, Note_on_c, 0, 65, 0
2, 13601, Note_on_c, 0, 58, 58
2, 13656, Note_on_c, 0, 58, 0
2, 13660, Note_on_c, 0, 73, 0
2, 13684, Note_on_c, 0, 82, 75
2, 13698, Note_on_c, 0, 65, 59
2, 13709, Note_on_c, 0, 82, 0
2, 13735, Note_on_c, 0, 65, 0
2, 13771, Note_on_c, 0, 58, 68
2, 13835, Note_on_c, 0, 58, 0
2, 13850, Note_on_c, 0, 75, 79
2, 13852, Note_on_c, 0, 66, 66
2, 13894, Note_on_c, 0, 66, 0
2, 13932, Note_on_c, 0, 58, 68
2, 13988, Note_on_c, 0, 58, 0
2, 14013, Note_on_c, 0, 66, 67
2, 14050, Note_on_c, 0, 66, 0
2, 14097, Note_on_c, 0, 58, 67
2, 14152, Note_on_c, 0, 58, 0
2, 14164, Note_on_c, 0, 75, 0
2, 14171, Note_on_c, 0, 82, 74
2, 14186, Note_on_c, 0, 66, 56
2, 14196, Note_on_c, 0, 82, 0
2, 14222, Note_on_c, 0, 66, 0
2, 14265, Note_on_c, 0, 58, 57
2, 14298, Note_on_c, 0, 58, 0
2, 14343, Note_on_c, 0, 65, 60
2, 14353, Note_on_c, 0, 73, 58
2, 14381, Note_on_c, 0, 65, 0
2, 14408, Note_on_c, 0, 58, 55
2, 14460, Note_on_c, 0, 58, 0
2, 14501, Note_on_c, 0, 65, 58
2, 14538, Note_on_c, 0, 65, 0
2, 14580, Note_on_c, 0, 58, 65
2, 14631, Note_on_c, 0, 58, 0
2, 14645, Note_on_c, 0, 73, 0
2, 14666, Note_on_c, 0, 82, 54
2, 14682, Note_on_c, 0, 65, 57
2, 14698, Note_on_c, 0, 82, 0
2, 14717, Note_on_c, 0, 65, 0
2, 14743, Note_on_c, 0, 58, 64
2, 14825, Note_on_c, 0, 58, 0
2, 14834, Note_on_c, 0, 72, 62
2, 14836, Note_on_c, 0, 63, 62
2, 14903, Note_on_c, 0, 63, 0
2, 14916, Note_on_c, 0, 61, 63
2, 14982, Note_on_c, 0, 61, 0
2, 14996, Note_on_c, 0, 60, 69
2, 15073, Note_on_c, 0, 60, 0
2, 15085, Note_on_c, 0, 61, 62
2, 15140, Note_on_c, 0, 61, 0
2, 15143, Note_on_c, 0, 72, 0
2, 15154, Note_on_c, 0, 63, 71
2, 15166, Note_on_c, 0, 81, 65
2, 15194, Note_on_c, 0, 81, 0
2, 15214, Note_on_c, 0, 63, 0
2, 15234, Note_on_c, 0, 60, 66
2, 15293, Note_on_c, 0, 60, 0
2, 15314, Note_on_c, 0, 61, 69
2, 15319, Note_on_c, 0, 70, 70
2, 15384, Note_on_c, 0, 61, 0
2, 15414, Note_on_c, 0, 60, 61
2, 15443, Note_on_c, 0, 70, 0
2, 15476, Note_on_c, 0, 60, 0
2, 15487, Note_on_c, 0, 58, 74
2, 15561, Note_on_c, 0, 58, 0
2, 15570, Note_on_c, 0, 60, 71
2, 15637, Note_on_c, 0, 60, 0
2, 15652, Note_on_c, 0, 82, 84
2, 15654, Note_on_c, 0, 61, 70
2, 15719, Note_on_c, 0, 61, 0
2, 15730, Note_on_c, 0, 58, 70
2, 15812, Note_on_c, 0, 58, 0
2, 15839, Note_on_c, 0, 64, 63
2, 15901, Note_on_c, 0, 64, 0
2, 15917, Note_on_c, 0, 62, 65
2, 15981, Note_on_c, 0, 62, 0
2, 15987, Note_on_c, 0, 82, 0
2, 15994, Note_on_c, 0, 60, 68
2, 16004, Note_on_c, 0, 80, 73
2, 16041, Note_on_c, 0, 80, 0
2, 16069, Note_on_c, 0, 60, 0
2, 16087, Note_on_c, 0, 62, 62
2, 16132, Note_on_c, 0, 62, 0
2, 16164, Note_on_c, 0, 64, 64
2, 16172, Note_on_c, 0, 79, 65
2, 16198, Note_on_c, 0, 64, 0
2, 16202, Note_on_c, 0, 79, 0
2, 16240, Note_on_c, 0, 60, 65
2, 16316, Note_on_c, 0, 60, 0
2, 16325, Note_on_c, 0, 80, 76
2, 16329, Note_on_c, 0, 65, 67
2, 16359, Note_on_c, 0, 80, 0
2, 16387, Note_on_c, 0, 65, 0
2, 16403, Note_on_c, 0, 64, 69
2, 16472, Note_on_c, 0, 64, 0
2, 16487, Note_on_c, 0, 68, 77
2, 16489, Note_on_c, 0, 65, 73
2, 16519, Note_on_c, 0, 68, 0
2, 16548, Note_on_c, 0, 65, 0
2, 16576, Note_on_c, 0, 67, 65
2, 16643, Note_on_c, 0, 67, 0
2, 16662, Note_on_c, 0, 80, 85
2, 16665, Note_on_c, 0, 65, 63
2, 16727, Note_on_c, 0, 65, 0
2, 16737, Note_on_c, 0, 63, 71
2, 16787, Note_on_c, 0, 63, 0
2, 16825, Note_on_c, 0, 62, 64
2, 16874, Note_on_c, 0, 62, 0
2, 16898, Note_on_c, 0, 60, 70
2, 16964, Note_on_c, 0, 60, 0
2, 16983, Note_on_c, 0, 58, 68
2, 16999, Note_on_c, 0, 80, 0
2, 17000, Note_on_c, 0, 78, 70
2, 17044, Note_on_c, 0, 78, 0
2, 17047, Note_on_c, 0, 58, 0
2, 17069, Note_on_c, 0, 60, 63
2, 17109, Note_on_c, 0, 60, 0
2, 17145, Note_on_c, 0, 62, 63
2, 17169, Note_on_c, 0, 77, 69
2, 17182, Note_on_c, 0, 62, 0
2, 17200, Note_on_c, 0, 77, 0
2, 17214, Note_on_c, 0, 58, 62
2, 17257, Note_on_c, 0, 58, 0
2, 17324, Note_on_c, 0, 63, 64
2, 17326, Note_on_c, 0, 78, 69
2, 17352, Note_on_c, 0, 63, 0
2, 17399, Note_on_c, 0, 78, 0
2, 17412, Note_on_c, 0, 77, 74
2, 17478, Note_on_c, 0, 77, 0
2, 17489, Note_on_c, 0, 51, 70
2, 17491, Note_on_c, 0, 75, 69
2, 17515, Note_on_c, 0, 51, 0
2, 17555, Note_on_c, 0, 75, 0
2, 17578, Note_on_c, 0, 77, 69
2, 17631, Note_on_c, 0, 77, 0
2, 17652, Note_on_c, 0, 78, 73
2, 17662, Note_on_c, 0, 63, 65
2, 17695, Note_on_c, 0, 78, 0
2, 17746, Note_on_c, 0, 75, 67
2, 17802, Note_on_c, 0, 75, 0
2, 17817, Note_on_c, 0, 81, 72
2, 17901, Note_on_c, 0, 79, 79
2, 17903, Note_on_c, 0, 81, 0
2, 17938, Note_on_c, 0, 63, 0
2, 17963, Note_on_c, 0, 79, 0
2, 17974, Note_on_c, 0, 77, 79
2, 17978, Note_on_c, 0, 61, 66
2, 18009, Note_on_c, 0, 61, 0
2, 18040, Note_on_c, 0, 77, 0
2, 18051, Note_on_c, 0, 79, 81
2, 18132, Note_on_c, 0, 79, 0
2, 18143, Note_on_c, 0, 81, 80
2, 18150, Note_on_c, 0, 60, 68
2, 18178, Note_on_c, 0, 60, 0
2, 18184, Note_on_c, 0, 81, 0
2, 18218, Note_on_c, 0, 77, 80
2, 18295, Note_on_c, 0, 77, 0
2, 18303, Note_on_c, 0, 82, 82
2, 18304, Note_on_c, 0, 61, 69
2, 18330, Note_on_c, 0, 61, 0
2, 18364, Note_on_c, 0, 82, 0
2, 18380, Note_on_c, 0, 81, 79
2, 18461, Note_on_c, 0, 49, 68
2, 18467, Note_on_c, 0, 81, 0
2, 18468, Note_on_c, 0, 82, 83
2, 18494, Note_on_c, 0, 49, 0
2, 18540, Note_on_c, 0, 82, 0
2, 18549, Note_on_c, 0, 84, 86
2, 18633, Note_on_c, 0, 84, 0
2, 18637, Note_on_c, 0, 82, 80
2, 18653, Note_on_c, 0, 61, 61
2, 18713, Note_on_c, 0, 80, 73
2, 18722, Note_on_c, 0, 82, 0
2, 18784, Note_on_c, 0, 80, 0
2, 18792, Note_on_c, 0, 79, 71
2, 18847, Note_on_c, 0, 79, 0
2, 18880, Note_on_c, 0, 77, 71
2, 18909, Note_on_c, 0, 61, 0
2, 18952, Note_on_c, 0, 77, 0
2, 18958, Note_on_c, 0, 60, 56
2, 18962, Note_on_c, 0, 75, 69
2, 18992, Note_on_c, 0, 60, 0
2, 19021, Note_on_c, 0, 75, 0
2, 19042, Note_on_c, 0, 77, 75
2, 19111, Note_on_c, 0, 77, 0
2, 19118, Note_on_c, 0, 79, 73
2, 19124, Note_on_c, 0, 58, 63
2, 19154, Note_on_c, 0, 58, 0
2, 19184, Note_on_c, 0, 79, 0
2, 19196, Note_on_c, 0, 75, 75
2, 19244, Note_on_c, 0, 75, 0
2, 19277, Note_on_c, 0, 80, 81
2, 19282, Note_on_c, 0, 60, 59
2, 19308, Note_on_c, 0, 80, 0
2, 19340, Note_on_c, 0, 60, 0
2, 19366, Note_on_c, 0, 58, 64
2, 19431, Note_on_c, 0, 58, 0
2, 19442, Note_on_c, 0, 56, 69
2, 19444, Note_on_c, 0, 68, 80
2, 19470, Note_on_c, 0, 68, 0
2, 19514, Note_on_c, 0, 56, 0
2, 19523, Note_on_c, 0, 58, 77
2, 19582, Note_on_c, 0, 58, 0
2, 19625, Note_on_c, 0, 60, 66
2, 19632, Note_on_c, 0, 80, 82
2, 19683, Note_on_c, 0, 60, 0
2, 19701, Note_on_c, 0, 56, 70
2, 19763, Note_on_c, 0, 56, 0
2, 19799, Note_on_c, 0, 62, 65
2, 19862, Note_on_c, 0, 62, 0
2, 19876, Note_on_c, 0, 60, 70
2, 19941, Note_on_c, 0, 60, 0
2, 19952, Note_on_c, 0, 78, 72
2, 19952, Note_on_c, 0, 80, 0
2, 19960, Note_on_c, 0, 58, 68
2, 19986, Note_on_c, 0, 78, 0
2, 20023, Note_on_c, 0, 58, 0
2, 20044, Note_on_c, 0, 60, 69
2, 20080, Note_on_c, 0, 60, 0
2, 20115, Note_on_c, 0, 77, 76
2, 20122, Note_on_c, 0, 62, 68
2, 20146, Note_on_c, 0, 77, 0
2, 20174, Note_on_c, 0, 62, 0
2, 20199, Note_on_c, 0, 58, 69
2, 20261, Note_on_c, 0, 58, 0
2, 20284, Note_on_c, 0, 78, 76
2, 20285, Note_on_c, 0, 63, 70
2, 20314, Note_on_c, 0, 78, 0
2, 20348, Note_on_c, 0, 63, 0
2, 20363, Note_on_c, 0, 62, 67
2, 20441, Note_on_c, 0, 62, 0
2, 20455, Note_on_c, 0, 66, 74
2, 20457, Note_on_c, 0, 63, 70
2, 20484, Note_on_c, 0, 66, 0
2, 20495, Note_on_c, 0, 63, 0
2, 20531, Note_on_c, 0, 65, 69
2, 20603, Note_on_c, 0, 65, 0
2, 20617, Note_on_c, 0, 63, 67
2, 20627, Note_on_c, 0, 78, 81
2, 20691, Note_on_c, 0, 63, 0
2, 20706, Note_on_c, 0, 61, 64
2, 20750, Note_on_c, 0, 61, 0
2, 20797, Note_on_c, 0, 60, 63
2, 20866, Note_on_c, 0, 60, 0
2, 20875, Note_on_c, 0, 58, 67
2, 20942, Note_on_c, 0, 78, 0
2, 20944, Note_on_c, 0, 58, 0
2, 20963, Note_on_c, 0, 56, 66
2, 20965, Note_on_c, 0, 77, 66
2, 20997, Note_on_c, 0, 77, 0
2, 21017, Note_on_c, 0, 56, 0
2, 21044, Note_on_c, 0, 58, 66
2, 21081, Note_on_c, 0, 58, 0
2, 21131, Note_on_c, 0, 60, 60
2, 21144, Note_on_c, 0, 75, 68
2, 21177, Note_on_c, 0, 60, 0
2, 21192, Note_on_c, 0, 75, 0
2, 21200, Note_on_c, 0, 56, 66
2, 21246, Note_on_c, 0, 56, 0
2, 21301, Note_on_c, 0, 77, 71
2, 21312, Note_on_c, 0, 61, 67
2, 21342, Note_on_c, 0, 61, 0
2, 21381, Note_on_c, 0, 77, 0
2, 21389, Note_on_c, 0, 75, 72
2, 21453, Note_on_c, 0, 75, 0
2, 21468, Note_on_c, 0, 73, 65
2, 21471, Note_on_c, 0, 49, 58
2, 21495, Note_on_c, 0, 49, 0
2, 21538, Note_on_c, 0, 73, 0
2, 21557, Note_on_c, 0, 75, 63
2, 21611, Note_on_c, 0, 75, 0
2, 21633, Note_on_c, 0, 77, 72
2, 21649, Note_on_c, 0, 61, 62
2, 21673, Note_on_c, 0, 77, 0
2, 21717, Note_on_c, 0, 73, 70
2, 21771, Note_on_c, 0, 73, 0
2, 21802, Note_on_c, 0, 79, 70
2, 21881, Note_on_c, 0, 79, 0
2, 21885, Note_on_c, 0, 77, 75
2, 21886, Note_on_c, 0, 61, 0
2, 21957, Note_on_c, 0, 77, 0
2, 21963, Note_on_c, 0, 75, 76
2, 21964, Note_on_c, 0, 59, 57
2, 21992, Note_on_c, 0, 59, 0
2, 22022, Note_on_c, 0, 75, 0
2, 22041, Note_on_c, 0, 77, 80
2, 22112, Note_on_c, 0, 77, 0
2, 22117, Note_on_c, 0, 79, 79
2, 22124, Note_on_c, 0, 58, 68
2, 22153, Note_on_c, 0, 79, 0
2, 22156, Note_on_c, 0, 58, 0
2, 22199, Note_on_c, 0, 75, 78
2, 22268, Note_on_c, 0, 75, 0
2, 22276, Note_on_c, 0, 59, 70
2, 22276, Note_on_c, 0, 80, 81
2, 22304, Note_on_c, 0, 59, 0
2, 22350, Note_on_c, 0, 80, 0
2, 22356, Note_on_c, 0, 79, 75
2, 22436, Note_on_c, 0, 47, 61
2, 22440, Note_on_c, 0, 79, 0
2, 22443, Note_on_c, 0, 80, 77
2, 22465, Note_on_c, 0, 47, 0
2, 22508, Note_on_c, 0, 80, 0
2, 22520, Note_on_c, 0, 82, 81
2, 22613, Note_on_c, 0, 80, 74
2, 22614, Note_on_c, 0, 82, 0
2, 22621, Note_on_c, 0, 59, 62
2, 22690, Note_on_c, 0, 80, 0
2, 22693, Note_on_c, 0, 78, 65
2, 22780, Note_on_c, 0, 78, 0
2, 22783, Note_on_c, 0, 77, 78
2, 22855, Note_on_c, 0, 59, 0
2, 22857, Note_on_c, 0, 77, 0
2, 22871, Note_on_c, 0, 75, 76
2, 22932, Note_on_c, 0, 75, 0
2, 22945, Note_on_c, 0, 73, 74
2, 22955, Note_on_c, 0, 58, 63
2, 22984, Note_on_c, 0, 58, 0
2, 23020, Note_on_c, 0, 73, 0
2, 23030, Note_on_c, 0, 75, 74
2, 23094, Note_on_c, 0, 75, 0
2, 23106, Note_on_c, 0, 77, 73
2, 23110, Note_on_c, 0, 56, 60
2, 23150, Note_on_c, 0, 56, 0
2, 23161, Note_on_c, 0, 77, 0
2, 23189, Note_on_c, 0, 73, 64
2, 23255, Note_on_c, 0, 73, 0
2, 23273, Note_on_c, 0, 66, 61
2, 23276, Note_on_c, 0, 58, 53
2, 23323, Note_on_c, 0, 58, 0
2, 23370, Note_on_c, 0, 54, 56
2, 23422, Note_on_c, 0, 54, 0
2, 23446, Note_on_c, 0, 49, 59
2, 23528, Note_on_c, 0, 49, 0
2, 23547, Note_on_c, 0, 54, 57
2, 23571, Note_on_c, 0, 66, 0
2, 23586, Note_on_c, 0, 54, 0
2, 23605, Note_on_c, 0, 78, 59
2, 23616, Note_on_c, 0, 58, 56
2, 23636, Note_on_c, 0, 78, 0
2, 23649, Note_on_c, 0, 58, 0
2, 23687, Note_on_c, 0, 54, 51
2, 23748, Note_on_c, 0, 54, 0
2, 23770, Note_on_c, 0, 59, 60
2, 23777, Note_on_c, 0, 68, 63
2, 23818, Note_on_c, 0, 59, 0
2, 23869, Note_on_c, 0, 54, 55
2, 23909, Note_on_c, 0, 54, 0
2, 23932, Note_on_c, 0, 59, 65
2, 23973, Note_on_c, 0, 59, 0
2, 24016, Note_on_c, 0, 54, 57
2, 24075, Note_on_c, 0, 54, 0
2, 24094, Note_on_c, 0, 59, 66
2, 24097, Note_on_c, 0, 68, 0
2, 24101, Note_on_c, 0, 78, 69
2, 24130, Note_on_c, 0, 78, 0
2, 24134, Note_on_c, 0, 59, 0
2, 24192, Note_on_c, 0, 54, 58
2, 24242, Note_on_c, 0, 54, 0
2, 24275, Note_on_c, 0, 61, 67
2, 24278, Note_on_c, 0, 70, 68
2, 24327, Note_on_c, 0, 61, 0
2, 24357, Note_on_c, 0, 54, 59
2, 24429, Note_on_c, 0, 54, 0
2, 24443, Note_on_c, 0, 61, 65
2, 24492, Note_on_c, 0, 61, 0
2, 24531, Note_on_c, 0, 54, 63
2, 24591, Note_on_c, 0, 54, 0
2, 24603, Note_on_c, 0, 70, 0
2, 24612, Note_on_c, 0, 61, 72
2, 24617, Note_on_c, 0, 78, 77
2, 24646, Note_on_c, 0, 78, 0
2, 24654, Note_on_c, 0, 61, 0
2, 24694, Note_on_c, 0, 54, 71
2, 24761, Note_on_c, 0, 54, 0
2, 24785, Note_on_c, 0, 71, 78
2, 24792, Note_on_c, 0, 63, 66
2, 24833, Note_on_c, 0, 63, 0
2, 24865, Note_on_c, 0, 54, 71
2, 24929, Note_on_c, 0, 54, 0
2, 24954, Note_on_c, 0, 63, 67
2, 25011, Note_on_c, 0, 63, 0
2, 25053, Note_on_c, 0, 54, 65
2, 25094, Note_on_c, 0, 54, 0
2, 25127, Note_on_c, 0, 71, 0
2, 25133, Note_on_c, 0, 63, 65
2, 25142, Note_on_c, 0, 78, 67
2, 25170, Note_on_c, 0, 63, 0
2, 25171, Note_on_c, 0, 78, 0
2, 25213, Note_on_c, 0, 54, 64
2, 25272, Note_on_c, 0, 54, 0
2, 25301, Note_on_c, 0, 70, 65
2, 25304, Note_on_c, 0, 61, 66
2, 25345, Note_on_c, 0, 61, 0
2, 25389, Note_on_c, 0, 54, 63
2, 25434, Note_on_c, 0, 54, 0
2, 25470, Note_on_c, 0, 61, 63
2, 25519, Note_on_c, 0, 61, 0
2, 25554, Note_on_c, 0, 54, 62
2, 25600, Note_on_c, 0, 54, 0
2, 25620, Note_on_c, 0, 70, 0
2, 25638, Note_on_c, 0, 61, 65
2, 25643, Note_on_c, 0, 78, 69
2, 25676, Note_on_c, 0, 78, 0
2, 25692, Note_on_c, 0, 61, 0
2, 25713, Note_on_c, 0, 54, 65
2, 25766, Note_on_c, 0, 54, 0
2, 25813, Note_on_c, 0, 59, 63
2, 25815, Note_on_c, 0, 68, 66
2, 25887, Note_on_c, 0, 59, 0
2, 25906, Note_on_c, 0, 58, 65
2, 25973, Note_on_c, 0, 58, 0
2, 25987, Note_on_c, 0, 56, 67
2, 26050, Note_on_c, 0, 56, 0
2, 26066, Note_on_c, 0, 58, 71
2, 26098, Note_on_c, 0, 68, 0
2, 26103, Note_on_c, 0, 58, 0
2, 26146, Note_on_c, 0, 59, 68
2, 26148, Note_on_c, 0, 77, 69
2, 26177, Note_on_c, 0, 77, 0
2, 26190, Note_on_c, 0, 59, 0
2, 26222, Note_on_c, 0, 56, 62
2, 26280, Note_on_c, 0, 56, 0
2, 26302, Note_on_c, 0, 66, 57
2, 26308, Note_on_c, 0, 58, 60
2, 26368, Note_on_c, 0, 58, 0
2, 26397, Note_on_c, 0, 56, 69
2, 26446, Note_on_c, 0, 56, 0
2, 26471, Note_on_c, 0, 54, 62
2, 26493, Note_on_c, 0, 66, 0
2, 26552, Note_on_c, 0, 54, 0
2, 26562, Note_on_c, 0, 56, 68
2, 26629, Note_on_c, 0, 56, 0
2, 26647, Note_on_c, 0, 58, 68
2, 26650, Note_on_c, 0, 78, 84
2, 26712, Note_on_c, 0, 58, 0
2, 26740, Note_on_c, 0, 54, 67
2, 26815, Note_on_c, 0, 54, 0
2, 26834, Note_on_c, 0, 56, 66
2, 26888, Note_on_c, 0, 56, 0
2, 26910, Note_on_c, 0, 58, 65
2, 26984, Note_on_c, 0, 58, 0
2, 26984, Note_on_c, 0, 78, 0
2, 26989, Note_on_c, 0, 77, 67
2, 26999, Note_on_c, 0, 56, 63
2, 27046, Note_on_c, 0, 56, 0
2, 27062, Note_on_c, 0, 77, 0
2, 27069, Note_on_c, 0, 54, 64
2, 27075, Note_on_c, 0, 75, 70
2, 27113, Note_on_c, 0, 54, 0
2, 27134, Note_on_c, 0, 75, 0
2, 27149, Note_on_c, 0, 73, 69
2, 27161, Note_on_c, 0, 53, 60
2, 27200, Note_on_c, 0, 53, 0
2, 27221, Note_on_c, 0, 73, 0
2, 27223, Note_on_c, 0, 51, 66
2, 27231, Note_on_c, 0, 75, 71
2, 27302, Note_on_c, 0, 51, 0
2, 27305, Note_on_c, 0, 75, 0
2, 27323, Note_on_c, 0, 49, 57
2, 27325, Note_on_c, 0, 77, 70
2, 27387, Note_on_c, 0, 77, 0
2, 27401, Note_on_c, 0, 73, 71
2, 27453, Note_on_c, 0, 73, 0
2, 27481, Note_on_c, 0, 68, 65
2, 27552, Note_on_c, 0, 68, 0
2, 27570, Note_on_c, 0, 73, 65
2, 27604, Note_on_c, 0, 49, 0
2, 27612, Note_on_c, 0, 73, 0
2, 27641, Note_on_c, 0, 77, 68
2, 27648, Note_on_c, 0, 61, 49
2, 27673, Note_on_c, 0, 77, 0
2, 27682, Note_on_c, 0, 61, 0
2, 27727, Note_on_c, 0, 73, 67
2, 27768, Note_on_c, 0, 73, 0
2, 27790, Note_on_c, 0, 51, 47
2, 27805, Note_on_c, 0, 78, 67
2, 27841, Note_on_c, 0, 78, 0
2, 27885, Note_on_c, 0, 73, 60
2, 27937, Note_on_c, 0, 73, 0
2, 27965, Note_on_c, 0, 78, 69
2, 28003, Note_on_c, 0, 78, 0
2, 28048, Note_on_c, 0, 73, 63
2, 28096, Note_on_c, 0, 73, 0
2, 28118, Note_on_c, 0, 51, 0
2, 28132, Note_on_c, 0, 78, 69
2, 28135, Note_on_c, 0, 61, 39
2, 28163, Note_on_c, 0, 78, 0
2, 28169, Note_on_c, 0, 61, 0
2, 28213, Note_on_c, 0, 73, 60
2, 28264, Note_on_c, 0, 73, 0
2, 28294, Note_on_c, 0, 80, 68
2, 28296, Note_on_c, 0, 53, 44
2, 28328, Note_on_c, 0, 80, 0
2, 28380, Note_on_c, 0, 73, 62
2, 28431, Note_on_c, 0, 73, 0
2, 28456, Note_on_c, 0, 80, 73
2, 28491, Note_on_c, 0, 80, 0
2, 28533, Note_on_c, 0, 73, 70
2, 28569, Note_on_c, 0, 53, 0
2, 28595, Note_on_c, 0, 73, 0
2, 28611, Note_on_c, 0, 80, 85
2, 28626, Note_on_c, 0, 61, 50
2, 28654, Note_on_c, 0, 61, 0
2, 28666, Note_on_c, 0, 80, 0
2, 28699, Note_on_c, 0, 73, 78
2, 28759, Note_on_c, 0, 73, 0
2, 28785, Note_on_c, 0, 82, 90
2, 28791, Note_on_c, 0, 54, 54
2, 28839, Note_on_c, 0, 82, 0
2, 28876, Note_on_c, 0, 73, 73
2, 28933, Note_on_c, 0, 73, 0
2, 28953, Note_on_c, 0, 82, 84
2, 29005, Note_on_c, 0, 82, 0
2, 29044, Note_on_c, 0, 73, 72
2, 29078, Note_on_c, 0, 54, 0
2, 29097, Note_on_c, 0, 73, 0
2, 29109, Note_on_c, 0, 82, 80
2, 29123, Note_on_c, 0, 61, 52
2, 29154, Note_on_c, 0, 82, 0
2, 29157, Note_on_c, 0, 61, 0
2, 29200, Note_on_c, 0, 73, 64
2, 29248, Note_on_c, 0, 73, 0
2, 29273, Note_on_c, 0, 80, 72
2, 29285, Note_on_c, 0, 53, 48
2, 29312, Note_on_c, 0, 80, 0
2, 29358, Note_on_c, 0, 73, 67
2, 29408, Note_on_c, 0, 73, 0
2, 29428, Note_on_c, 0, 80, 72
2, 29469, Note_on_c, 0, 80, 0
2, 29516, Note_on_c, 0, 73, 62
2, 29539, Note_on_c, 0, 53, 0
2, 29576, Note_on_c, 0, 73, 0
2, 29589, Note_on_c, 0, 80, 71
2, 29602, Note_on_c, 0, 61, 48
2, 29631, Note_on_c, 0, 61, 0
2, 29641, Note_on_c, 0, 80, 0
2, 29688, Note_on_c, 0, 73, 62
2, 29735, Note_on_c, 0, 73, 0
2, 29765, Note_on_c, 0, 78, 67
2, 29766, Note_on_c, 0, 51, 49
2, 29827, Note_on_c, 0, 78, 0
2, 29846, Note_on_c, 0, 77, 69
2, 29912, Note_on_c, 0, 77, 0
2, 29927, Note_on_c, 0, 75, 69
2, 29984, Note_on_c, 0, 75, 0
2, 30008, Note_on_c, 0, 77, 71
2, 30013, Note_on_c, 0, 51, 0
2, 30073, Note_on_c, 0, 77, 0
2, 30083, Note_on_c, 0, 78, 76
2, 30088, Note_on_c, 0, 60, 47
2, 30114, Note_on_c, 0, 60, 0
2, 30145, Note_on_c, 0, 78, 0
2, 30163, Note_on_c, 0, 75, 70
2, 30234, Note_on_c, 0, 75, 0
2, 30247, Note_on_c, 0, 77, 80
2, 30254, Note_on_c, 0, 49, 37
2, 30316, Note_on_c, 0, 77, 0
2, 30335, Note_on_c, 0, 75, 75
2, 30383, Note_on_c, 0, 49, 0
2, 30407, Note_on_c, 0, 75, 0
2, 30423, Note_on_c, 0, 73, 74
2, 30494, Note_on_c, 0, 73, 0
2, 30498, Note_on_c, 0, 75, 77
2, 30568, Note_on_c, 0, 75, 0
2, 30577, Note_on_c, 0, 77, 83
2, 30598, Note_on_c, 0, 61, 59
2, 30631, Note_on_c, 0, 61, 0
2, 30649, Note_on_c, 0, 77, 0
2, 30665, Note_on_c, 0, 73, 72
2, 30737, Note_on_c, 0, 73, 0
2, 30744, Note_on_c, 0, 75, 73
2, 30745, Note_on_c, 0, 54, 54
2, 30789, Note_on_c, 0, 54, 0
2, 30811, Note_on_c, 0, 75, 0
2, 30824, Note_on_c, 0, 77, 75
2, 30883, Note_on_c, 0, 77, 0
2, 30902, Note_on_c, 0, 53, 42
2, 30903, Note_on_c, 0, 75, 73
2, 30935, Note_on_c, 0, 53, 0
2, 30973, Note_on_c, 0, 75, 0
2, 30989, Note_on_c, 0, 73, 62
2, 31033, Note_on_c, 0, 73, 0
2, 31051, Note_on_c, 0, 51, 58
2, 31054, Note_on_c, 0, 72, 66
2, 31080, Note_on_c, 0, 51, 0
2, 31142, Note_on_c, 0, 72, 0
2, 31153, Note_on_c, 0, 70, 60
2, 31189, Note_on_c, 0, 70, 0
2, 31217, Note_on_c, 0, 56, 56
2, 31225, Note_on_c, 0, 72, 65
2, 31253, Note_on_c, 0, 56, 0
2, 31268, Note_on_c, 0, 72, 0
2, 31319, Note_on_c, 0, 68, 50
2, 31345, Note_on_c, 0, 68, 0
2, 31384, Note_on_c, 0, 66, 54
2, 31419, Note_on_c, 0, 66, 0
2, 31467, Note_on_c, 0, 68, 58
2, 31508, Note_on_c, 0, 68, 0
2, 31533, Note_on_c, 0, 63, 47
2, 31581, Note_on_c, 0, 63, 0
2, 31622, Note_on_c, 0, 68, 53
2, 31667, Note_on_c, 0, 68, 0
2, 31679, Note_on_c, 0, 56, 48
2, 31691, Note_on_c, 0, 72, 65
2, 31719, Note_on_c, 0, 56, 0
2, 31734, Note_on_c, 0, 72, 0
2, 31772, Note_on_c, 0, 68, 59
2, 31806, Note_on_c, 0, 68, 0
2, 31858, Note_on_c, 0, 66, 46
2, 31891, Note_on_c, 0, 66, 0
2, 31932, Note_on_c, 0, 68, 54
2, 31968, Note_on_c, 0, 68, 0
2, 32012, Note_on_c, 0, 63, 52
2, 32056, Note_on_c, 0, 63, 0
2, 32081, Note_on_c, 0, 68, 53
2, 32126, Note_on_c, 0, 68, 0
2, 32154, Note_on_c, 0, 73, 64
2, 32166, Note_on_c, 0, 56, 41
2, 32197, Note_on_c, 0, 73, 0
2, 32212, Note_on_c, 0, 56, 0
2, 32250, Note_on_c, 0, 68, 47
2, 32277, Note_on_c, 0, 68, 0
2, 32328, Note_on_c, 0, 65, 42
2, 32358, Note_on_c, 0, 65, 0
2, 32379, Note_on_c, 0, 68, 48
2, 32426, Note_on_c, 0, 68, 0
2, 32476, Note_on_c, 0, 61, 44
2, 32513, Note_on_c, 0, 61, 0
2, 32542, Note_on_c, 0, 68, 55
2, 32583, Note_on_c, 0, 68, 0
2, 32613, Note_on_c, 0, 56, 42
2, 32624, Note_on_c, 0, 73, 57
2, 32664, Note_on_c, 0, 56, 0
2, 32674, Note_on_c, 0, 73, 0
2, 32716, Note_on_c, 0, 68, 52
2, 32744, Note_on_c, 0, 68, 0
2, 32803, Note_on_c, 0, 65, 41
2, 32834, Note_on_c, 0, 65, 0
2, 32866, Note_on_c, 0, 68, 48
2, 32898, Note_on_c, 0, 68, 0
2, 32953, Note_on_c, 0, 61, 52
2, 32989, Note_on_c, 0, 61, 0
2, 33022, Note_on_c, 0, 68, 60
2, 33069, Note_on_c, 0, 68, 0
2, 33098, Note_on_c, 0, 56, 44
2, 33101, Note_on_c, 0, 78, 79
2, 33135, Note_on_c, 0, 56, 0
2, 33162, Note_on_c, 0, 78, 0
2, 33181, Note_on_c, 0, 68, 66
2, 33213, Note_on_c, 0, 68, 0
2, 33254, Note_on_c, 0, 63, 51
2, 33294, Note_on_c, 0, 63, 0
2, 33338, Note_on_c, 0, 68, 58
2, 33373, Note_on_c, 0, 68, 0
2, 33409, Note_on_c, 0, 60, 44
2, 33463, Note_on_c, 0, 60, 0
2, 33493, Note_on_c, 0, 68, 57
2, 33534, Note_on_c, 0, 68, 0
2, 33573, Note_on_c, 0, 56, 47
2, 33579, Note_on_c, 0, 78, 61
2, 33615, Note_on_c, 0, 78, 0
2, 33619, Note_on_c, 0, 56, 0
2, 33656, Note_on_c, 0, 68, 58
2, 33686, Note_on_c, 0, 68, 0
2, 33733, Note_on_c, 0, 63, 51
2, 33768, Note_on_c, 0, 63, 0
2, 33813, Note_on_c, 0, 68, 54
2, 33843, Note_on_c, 0, 68, 0
2, 33879, Note_on_c, 0, 60, 54
2, 33920, Note_on_c, 0, 60, 0
2, 33956, Note_on_c, 0, 68, 57
2, 34001, Note_on_c, 0, 68, 0
2, 34035, Note_on_c, 0, 56, 42
2, 34040, Note_on_c, 0, 77, 66
2, 34074, Note_on_c, 0, 77, 0
2, 34077, Note_on_c, 0, 56, 0
2, 34128, Note_on_c, 0, 68, 43
2, 34155, Note_on_c, 0, 68, 0
2, 34206, Note_on_c, 0, 65, 44
2, 34246, Note_on_c, 0, 65, 0
2, 34281, Note_on_c, 0, 68, 50
2, 34318, Note_on_c, 0, 68, 0
2, 34357, Note_on_c, 0, 61, 39
2, 34395, Note_on_c, 0, 61, 0
2, 34444, Note_on_c, 0, 68, 54
2, 34487, Note_on_c, 0, 68, 0
2, 34496, Note_on_c, 0, 56, 44
2, 34516, Note_on_c, 0, 77, 64
2, 34542, Note_on_c, 0, 56, 0
2, 34551, Note_on_c, 0, 77, 0
2, 34610, Note_on_c, 0, 68, 43
2, 34640, Note_on_c, 0, 68, 0
2, 34664, Note_on_c, 0, 65, 46
2, 34698, Note_on_c, 0, 65, 0
2, 34750, Note_on_c, 0, 68, 58
2, 34791, Note_on_c, 0, 68, 0
2, 34821, Note_on_c, 0, 61, 48
2, 34856, Note_on_c, 0, 61, 0
2, 34897, Note_on_c, 0, 68, 65
2, 34946, Note_on_c, 0, 68, 0
2, 34978, Note_on_c, 0, 56, 44
2, 34984, Note_on_c, 0, 79, 76
2, 35021, Note_on_c, 0, 56, 0
2, 35024, Note_on_c, 0, 79, 0
2, 35071, Note_on_c, 0, 70, 49
2, 35094, Note_on_c, 0, 70, 0
2, 35141, Note_on_c, 0, 64, 55
2, 35175, Note_on_c, 0, 64, 0
2, 35203, Note_on_c, 0, 70, 61
2, 35242, Note_on_c, 0, 70, 0
2, 35295, Note_on_c, 0, 61, 56
2, 35329, Note_on_c, 0, 61, 0
2, 35360, Note_on_c, 0, 70, 68
2, 35400, Note_on_c, 0, 70, 0
2, 35439, Note_on_c, 0, 56, 49
2, 35442, Note_on_c, 0, 79, 77
2, 35475, Note_on_c, 0, 79, 0
2, 35483, Note_on_c, 0, 56, 0
2, 35520, Note_on_c, 0, 70, 64
2, 35550, Note_on_c, 0, 70, 0
2, 35600, Note_on_c, 0, 64, 56
2, 35637, Note_on_c, 0, 64, 0
2, 35664, Note_on_c, 0, 70, 63
2, 35695, Note_on_c, 0, 70, 0
2, 35768, Note_on_c, 0, 61, 62
2, 35802, Note_on_c, 0, 61, 0
2, 35816, Note_on_c, 0, 70, 66
2, 35862, Note_on_c, 0, 70, 0
2, 35905, Note_on_c, 0, 80, 73
2, 35906, Note_on_c, 0, 56, 68
2, 35940, Note_on_c, 0, 80, 0
2, 35945, Note_on_c, 0, 56, 0
2, 35996, Note_on_c, 0, 72, 60
2, 36025, Note_on_c, 0, 72, 0
2, 36074, Note_on_c, 0, 63, 60
2, 36105, Note_on_c, 0, 63, 0
2, 36146, Note_on_c, 0, 72, 60
2, 36180, Note_on_c, 0, 72, 0
2, 36211, Note_on_c, 0, 60, 63
2, 36253, Note_on_c, 0, 60, 0
2, 36294, Note_on_c, 0, 72, 67
2, 36332, Note_on_c, 0, 72, 0
2, 36365, Note_on_c, 0, 54, 74
2, 36370, Note_on_c, 0, 80, 78
2, 36401, Note_on_c, 0, 54, 0
2, 36414, Note_on_c, 0, 80, 0
2, 36443, Note_on_c, 0, 72, 72
2, 36477, Note_on_c, 0, 72, 0
2, 36535, Note_on_c, 0, 63, 67
2, 36568, Note_on_c, 0, 63, 0
2, 36612, Note_on_c, 0, 72, 67
2, 36642, Note_on_c, 0, 72, 0
2, 36670, Note_on_c, 0, 60, 71
2, 36708, Note_on_c, 0, 60, 0
2, 36749, Note_on_c, 0, 72, 73
2, 36790, Note_on_c, 0, 72, 0
2, 36825, Note_on_c, 0, 80, 85
2, 36839, Note_on_c, 0, 53, 73
2, 36874, Note_on_c, 0, 53, 0
2, 36911, Note_on_c, 0, 73, 78
2, 36915, Note_on_c, 0, 80, 0
2, 36946, Note_on_c, 0, 73, 0
2, 36991, Note_on_c, 0, 65, 63
2, 37025, Note_on_c, 0, 65, 0
2, 37064, Note_on_c, 0, 68, 73
2, 37098, Note_on_c, 0, 68, 0
2, 37140, Note_on_c, 0, 61, 71
2, 37183, Note_on_c, 0, 61, 0
2, 37218, Note_on_c, 0, 73, 71
2, 37254, Note_on_c, 0, 73, 0
2, 37303, Note_on_c, 0, 56, 73
2, 37350, Note_on_c, 0, 56, 0
2, 37385, Note_on_c, 0, 77, 65
2, 37415, Note_on_c, 0, 77, 0
2, 37460, Note_on_c, 0, 53, 72
2, 37494, Note_on_c, 0, 53, 0
2, 37542, Note_on_c, 0, 80, 64
2, 37574, Note_on_c, 0, 80, 0
2, 37623, Note_on_c, 0, 51, 74
2, 37661, Note_on_c, 0, 51, 0
2, 37706, Note_on_c, 0, 82, 73
2, 37762, Note_on_c, 0, 82, 0
2, 37785, Note_on_c, 0, 50, 72
2, 37793, Note_on_c, 0, 83, 80
2, 37819, Note_on_c, 0, 50, 0
2, 37870, Note_on_c, 0, 82, 82
2, 37873, Note_on_c, 0, 83, 0
2, 37936, Note_on_c, 0, 53, 56
2, 37954, Note_on_c, 0, 82, 0
2, 37959, Note_on_c, 0, 80, 71
2, 37973, Note_on_c, 0, 53, 0
2, 38029, Note_on_c, 0, 80, 0
2, 38032, Note_on_c, 0, 78, 70
2, 38106, Note_on_c, 0, 78, 0
2, 38114, Note_on_c, 0, 58, 69
2, 38119, Note_on_c, 0, 77, 74
2, 38140, Note_on_c, 0, 58, 0
2, 38165, Note_on_c, 0, 77, 0
2, 38203, Note_on_c, 0, 75, 74
2, 38259, Note_on_c, 0, 75, 0
2, 38265, Note_on_c, 0, 62, 68
2, 38278, Note_on_c, 0, 77, 78
2, 38301, Note_on_c, 0, 62, 0
2, 38344, Note_on_c, 0, 77, 0
2, 38355, Note_on_c, 0, 78, 77
2, 38429, Note_on_c, 0, 78, 0
2, 38430, Note_on_c, 0, 65, 68
2, 38430, Note_on_c, 0, 80, 81
2, 38456, Note_on_c, 0, 65, 0
2, 38503, Note_on_c, 0, 80, 0
2, 38515, Note_on_c, 0, 83, 80
2, 38583, Note_on_c, 0, 82, 81
2, 38585, Note_on_c, 0, 68, 73
2, 38586, Note_on_c, 0, 83, 0
2, 38612, Note_on_c, 0, 68, 0
2, 38663, Note_on_c, 0, 80, 80
2, 38672, Note_on_c, 0, 82, 0
2, 38736, Note_on_c, 0, 66, 75
2, 38742, Note_on_c, 0, 80, 0
2, 38754, Note_on_c, 0, 82, 84
2, 38761, Note_on_c, 0, 66, 0
2, 38829, Note_on_c, 0, 82, 0
2, 38837, Note_on_c, 0, 75, 81
2, 38861, Note_on_c, 0, 75, 0
2, 38914, Note_on_c, 0, 63, 70
2, 38952, Note_on_c, 0, 63, 0
2, 39004, Note_on_c, 0, 66, 56
2, 39037, Note_on_c, 0, 66, 0
2, 39073, Note_on_c, 0, 58, 70
2, 39112, Note_on_c, 0, 58, 0
2, 39155, Note_on_c, 0, 70, 59
2, 39185, Note_on_c, 0, 70, 0
2, 39228, Note_on_c, 0, 54, 71
2, 39266, Note_on_c, 0, 54, 0
2, 39302, Note_on_c, 0, 75, 63
2, 39334, Note_on_c, 0, 75, 0
2, 39396, Note_on_c, 0, 51, 73
2, 39430, Note_on_c, 0, 51, 0
2, 39453, Note_on_c, 0, 78, 73
2, 39484, Note_on_c, 0, 78, 0
2, 39552, Note_on_c, 0, 49, 71
2, 39599, Note_on_c, 0, 49, 0
2, 39647, Note_on_c, 0, 80, 75
2, 39708, Note_on_c, 0, 80, 0
2, 39729, Note_on_c, 0, 81, 75
2, 39733, Note_on_c, 0, 48, 60
2, 39777, Note_on_c, 0, 48, 0
2, 39813, Note_on_c, 0, 80, 77
2, 39813, Note_on_c, 0, 81, 0
2, 39892, Note_on_c, 0, 51, 67
2, 39894, Note_on_c, 0, 78, 68
2, 39902, Note_on_c, 0, 80, 0
2, 39931, Note_on_c, 0, 51, 0
2, 39950, Note_on_c, 0, 78, 0
2, 39971, Note_on_c, 0, 76, 67
2, 40019, Note_on_c, 0, 76, 0
2, 40052, Note_on_c, 0, 75, 72
2, 40054, Note_on_c, 0, 56, 66
2, 40083, Note_on_c, 0, 56, 0
2, 40103, Note_on_c, 0, 75, 0
2, 40127, Note_on_c, 0, 73, 71
2, 40206, Note_on_c, 0, 73, 0
2, 40208, Note_on_c, 0, 60, 65
2, 40208, Note_on_c, 0, 75, 80
2, 40245, Note_on_c, 0, 60, 0
2, 40251, Note_on_c, 0, 75, 0
2, 40279, Note_on_c, 0, 76, 75
2, 40359, Note_on_c, 0, 76, 0
2, 40361, Note_on_c, 0, 63, 67
2, 40365, Note_on_c, 0, 78, 82
2, 40394, Note_on_c, 0, 63, 0
2, 40437, Note_on_c, 0, 78, 0
2, 40448, Note_on_c, 0, 81, 81
2, 40518, Note_on_c, 0, 66, 65
2, 40527, Note_on_c, 0, 80, 81
2, 40530, Note_on_c, 0, 81, 0
2, 40548, Note_on_c, 0, 66, 0
2, 40601, Note_on_c, 0, 78, 79
2, 40618, Note_on_c, 0, 80, 0
2, 40678, Note_on_c, 0, 78, 0
2, 40684, Note_on_c, 0, 80, 84
2, 40685, Note_on_c, 0, 64, 66
2, 40714, Note_on_c, 0, 64, 0
2, 40760, Note_on_c, 0, 80, 0
2, 40770, Note_on_c, 0, 73, 72
2, 40801, Note_on_c, 0, 73, 0
2, 40853, Note_on_c, 0, 61, 64
2, 40883, Note_on_c, 0, 61, 0
2, 40926, Note_on_c, 0, 76, 72
2, 40961, Note_on_c, 0, 76, 0
2, 41002, Note_on_c, 0, 57, 66
2, 41037, Note_on_c, 0, 57, 0
2, 41080, Note_on_c, 0, 73, 68
2, 41120, Note_on_c, 0, 73, 0
2, 41167, Note_on_c, 0, 54, 74
2, 41199, Note_on_c, 0, 54, 0
2, 41236, Note_on_c, 0, 69, 61
2, 41266, Note_on_c, 0, 69, 0
2, 41338, Note_on_c, 0, 63, 68
2, 41366, Note_on_c, 0, 63, 0
2, 41408, Note_on_c, 0, 66, 57
2, 41441, Note_on_c, 0, 66, 0
2, 41496, Note_on_c, 0, 60, 65
2, 41527, Note_on_c, 0, 60, 0
2, 41572, Note_on_c, 0, 75, 66
2, 41604, Note_on_c, 0, 75, 0
2, 41654, Note_on_c, 0, 52, 59
2, 41685, Note_on_c, 0, 52, 0
2, 41727, Note_on_c, 0, 68, 61
2, 41762, Note_on_c, 0, 68, 0
2, 41826, Note_on_c, 0, 61, 58
2, 41856, Note_on_c, 0, 61, 0
2, 41869, Note_on_c, 0, 64, 60
2, 41909, Note_on_c, 0, 64, 0
2, 41985, Note_on_c, 0, 57, 67
2, 42009, Note_on_c, 0, 57, 0
2, 42029, Note_on_c, 0, 73, 63
2, 42069, Note_on_c, 0, 73, 0
2, 42138, Note_on_c, 0, 54, 59
2, 42168, Note_on_c, 0, 54, 0
2, 42191, Note_on_c, 0, 69, 62
2, 42232, Note_on_c, 0, 69, 0
2, 42292, Note_on_c, 0, 51, 64
2, 42324, Note_on_c, 0, 51, 0
2, 42365, Note_on_c, 0, 66, 58
2, 42409, Note_on_c, 0, 66, 0
2, 42451, Note_on_c, 0, 48, 57
2, 42484, Note_on_c, 0, 48, 0
2, 42529, Note_on_c, 0, 63, 58
2, 42569, Note_on_c, 0, 63, 0
2, 42614, Note_on_c, 0, 44, 55
2, 42624, Note_on_c, 0, 60, 68
2, 42644, Note_on_c, 0, 44, 0
2, 42669, Note_on_c, 0, 60, 0
2, 42708, Note_on_c, 0, 56, 62
2, 42741, Note_on_c, 0, 56, 0
2, 42793, Note_on_c, 0, 54, 58
2, 42829, Note_on_c, 0, 54, 0
2, 42875, Note_on_c, 0, 56, 53
2, 42909, Note_on_c, 0, 56, 0
2, 42939, Note_on_c, 0, 51, 60
2, 42979, Note_on_c, 0, 51, 0
2, 43011, Note_on_c, 0, 56, 50
2, 43062, Note_on_c, 0, 56, 0
2, 43093, Note_on_c, 0, 60, 60
2, 43097, Note_on_c, 0, 44, 41
2, 43135, Note_on_c, 0, 44, 0
2, 43135, Note_on_c, 0, 60, 0
2, 43172, Note_on_c, 0, 56, 56
2, 43207, Note_on_c, 0, 56, 0
2, 43257, Note_on_c, 0, 54, 54
2, 43295, Note_on_c, 0, 54, 0
2, 43332, Note_on_c, 0, 56, 48
2, 43364, Note_on_c, 0, 56, 0
2, 43404, Note_on_c, 0, 51, 58
2, 43446, Note_on_c, 0, 51, 0
2, 43485, Note_on_c, 0, 56, 45
2, 43528, Note_on_c, 0, 56, 0
2, 43558, Note_on_c, 0, 44, 44
2, 43574, Note_on_c, 0, 61, 52
2, 43604, Note_on_c, 0, 44, 0
2, 43616, Note_on_c, 0, 61, 0
2, 43647, Note_on_c, 0, 56, 49
2, 43680, Note_on_c, 0, 56, 0
2, 43735, Note_on_c, 0, 53, 44
2, 43766, Note_on_c, 0, 53, 0
2, 43812, Note_on_c, 0, 56, 45
2, 43841, Note_on_c, 0, 56, 0
2, 43883, Note_on_c, 0, 49, 49
2, 43922, Note_on_c, 0, 49, 0
2, 43966, Note_on_c, 0, 56, 46
2, 44008, Note_on_c, 0, 56, 0
2, 44043, Note_on_c, 0, 44, 40
2, 44054, Note_on_c, 0, 61, 57
2, 44090, Note_on_c, 0, 44, 0
2, 44092, Note_on_c, 0, 61, 0
2, 44132, Note_on_c, 0, 56, 54
2, 44176, Note_on_c, 0, 56, 0
2, 44219, Note_on_c, 0, 53, 46
2, 44253, Note_on_c, 0, 53, 0
2, 44315, Note_on_c, 0, 56, 48
2, 44340, Note_on_c, 0, 56, 0
2, 44367, Note_on_c, 0, 49, 52
2, 44400, Note_on_c, 0, 49, 0
2, 44451, Note_on_c, 0, 56, 65
2, 44498, Note_on_c, 0, 56, 0
2, 44519, Note_on_c, 0, 44, 49
2, 44537, Note_on_c, 0, 66, 70
2, 44553, Note_on_c, 0, 44, 0
2, 44570, Note_on_c, 0, 66, 0
2, 44616, Note_on_c, 0, 56, 61
2, 44649, Note_on_c, 0, 56, 0
2, 44689, Note_on_c, 0, 51, 58
2, 44723, Note_on_c, 0, 51, 0
2, 44772, Note_on_c, 0, 56, 54
2, 44810, Note_on_c, 0, 56, 0
2, 44847, Note_on_c, 0, 48, 51
2, 44882, Note_on_c, 0, 48, 0
2, 44932, Note_on_c, 0, 56, 55
2, 44983, Note_on_c, 0, 56, 0
2, 45023, Note_on_c, 0, 44, 46
2, 45024, Note_on_c, 0, 66, 59
2, 45054, Note_on_c, 0, 44, 0
2, 45060, Note_on_c, 0, 66, 0
2, 45101, Note_on_c, 0, 56, 53
2, 45136, Note_on_c, 0, 56, 0
2, 45192, Note_on_c, 0, 51, 51
2, 45229, Note_on_c, 0, 51, 0
2, 45258, Note_on_c, 0, 56, 55
2, 45293, Note_on_c, 0, 56, 0
2, 45340, Note_on_c, 0, 48, 49
2, 45377, Note_on_c, 0, 48, 0
2, 45409, Note_on_c, 0, 56, 57
2, 45463, Note_on_c, 0, 56, 0
2, 45500, Note_on_c, 0, 44, 42
2, 45501, Note_on_c, 0, 65, 60
2, 45539, Note_on_c, 0, 44, 0
2, 45545, Note_on_c, 0, 65, 0
2, 45597, Note_on_c, 0, 56, 43
2, 45626, Note_on_c, 0, 56, 0
2, 45665, Note_on_c, 0, 53, 52
2, 45704, Note_on_c, 0, 53, 0
2, 45742, Note_on_c, 0, 56, 52
2, 45785, Note_on_c, 0, 56, 0
2, 45828, Note_on_c, 0, 49, 43
2, 45860, Note_on_c, 0, 49, 0
2, 45906, Note_on_c, 0, 56, 52
2, 45954, Note_on_c, 0, 56, 0
2, 45971, Note_on_c, 0, 44, 39
2, 45992, Note_on_c, 0, 65, 60
2, 46010, Note_on_c, 0, 44, 0
2, 46029, Note_on_c, 0, 65, 0
2, 46069, Note_on_c, 0, 56, 49
2, 46104, Note_on_c, 0, 56, 0
2, 46154, Note_on_c, 0, 53, 49
2, 46189, Note_on_c, 0, 53, 0
2, 46217, Note_on_c, 0, 56, 58
2, 46261, Note_on_c, 0, 56, 0
2, 46306, Note_on_c, 0, 49, 49
2, 46341, Note_on_c, 0, 49, 0
2, 46362, Note_on_c, 0, 56, 67
2, 46416, Note_on_c, 0, 56, 0
2, 46448, Note_on_c, 0, 67, 72
2, 46450, Note_on_c, 0, 44, 50
2, 46499, Note_on_c, 0, 44, 0
2, 46499, Note_on_c, 0, 67, 0
2, 46548, Note_on_c, 0, 58, 52
2, 46573, Note_on_c, 0, 58, 0
2, 46625, Note_on_c, 0, 52, 54
2, 46658, Note_on_c, 0, 52, 0
2, 46686, Note_on_c, 0, 58, 59
2, 46722, Note_on_c, 0, 58, 0
2, 46777, Note_on_c, 0, 49, 61
2, 46811, Note_on_c, 0, 49, 0
2, 46842, Note_on_c, 0, 58, 67
2, 46888, Note_on_c, 0, 58, 0
2, 46928, Note_on_c, 0, 67, 76
2, 46931, Note_on_c, 0, 44, 56
2, 46961, Note_on_c, 0, 67, 0
2, 46969, Note_on_c, 0, 44, 0
2, 47008, Note_on_c, 0, 58, 69
2, 47042, Note_on_c, 0, 58, 0
2, 47090, Note_on_c, 0, 52, 63
2, 47126, Note_on_c, 0, 52, 0
2, 47168, Note_on_c, 0, 58, 68
2, 47202, Note_on_c, 0, 58, 0
2, 47244, Note_on_c, 0, 49, 64
2, 47288, Note_on_c, 0, 49, 0
2, 47338, Note_on_c, 0, 58, 75
2, 47379, Note_on_c, 0, 58, 0
2, 47428, Note_on_c, 0, 44, 69
2, 47504, Note_on_c, 0, 44, 0
2, 47515, Note_on_c, 0, 48, 67
2, 47597, Note_on_c, 0, 48, 0
2, 47603, Note_on_c, 0, 51, 77
2, 47638, Note_on_c, 0, 51, 0
2, 47677, Note_on_c, 0, 54, 76
2, 47760, Note_on_c, 0, 54, 0
2, 47766, Note_on_c, 0, 57, 69
2, 47848, Note_on_c, 0, 60, 65
2, 47851, Note_on_c, 0, 57, 0
2, 47892, Note_on_c, 0, 60, 0
2, 47927, Note_on_c, 0, 61, 70
2, 48013, Note_on_c, 0, 61, 0
2, 48019, Note_on_c, 0, 64, 71
2, 48097, Note_on_c, 0, 64, 0
2, 48114, Note_on_c, 0, 67, 76
2, 48150, Note_on_c, 0, 67, 0
2, 48189, Note_on_c, 0, 70, 74
2, 48271, Note_on_c, 0, 73, 77
2, 48274, Note_on_c, 0, 70, 0
2, 48343, Note_on_c, 0, 73, 0
2, 48345, Note_on_c, 0, 76, 78
2, 48425, Note_on_c, 0, 76, 0
2, 48431, Note_on_c, 0, 72, 78
2, 48441, Note_on_c, 0, 44, 60
2, 48509, Note_on_c, 0, 72, 0
2, 48521, Note_on_c, 0, 75, 82
2, 48590, Note_on_c, 0, 75, 0
2, 48600, Note_on_c, 0, 78, 80
2, 48632, Note_on_c, 0, 44, 0
2, 48684, Note_on_c, 0, 75, 82
2, 48687, Note_on_c, 0, 78, 0
2, 48762, Note_on_c, 0, 75, 0
2, 48763, Note_on_c, 0, 72, 79
2, 48844, Note_on_c, 0, 72, 0
2, 48855, Note_on_c, 0, 68, 75
2, 48923, Note_on_c, 0, 68, 0
2, 48938, Note_on_c, 0, 66, 67
2, 49010, Note_on_c, 0, 66, 0
2, 49021, Note_on_c, 0, 63, 73
2, 49095, Note_on_c, 0, 63, 0
2, 49104, Note_on_c, 0, 60, 68
2, 49172, Note_on_c, 0, 60, 0
2, 49185, Note_on_c, 0, 56, 69
2, 49262, Note_on_c, 0, 56, 0
2, 49280, Note_on_c, 0, 60, 64
2, 49326, Note_on_c, 0, 60, 0
2, 49345, Note_on_c, 0, 63, 67
2, 49424, Note_on_c, 0, 63, 0
2, 49434, Note_on_c, 0, 65, 69
2, 49436, Note_on_c, 0, 56, 67
2, 49514, Note_on_c, 0, 65, 0
2, 49522, Note_on_c, 0, 68, 74
2, 49577, Note_on_c, 0, 56, 0
2, 49607, Note_on_c, 0, 68, 0
2, 49614, Note_on_c, 0, 73, 76
2, 49693, Note_on_c, 0, 73, 0
2, 49701, Note_on_c, 0, 68, 76
2, 49773, Note_on_c, 0, 68, 0
2, 49775, Note_on_c, 0, 65, 76
2, 49844, Note_on_c, 0, 65, 0
2, 49857, Note_on_c, 0, 61, 74
2, 49918, Note_on_c, 0, 61, 0
2, 49934, Note_on_c, 0, 58, 69
2, 49990, Note_on_c, 0, 58, 0
2, 50015, Note_on_c, 0, 55, 66
2, 50090, Note_on_c, 0, 55, 0
2, 50104, Note_on_c, 0, 52, 68
2, 50164, Note_on_c, 0, 52, 0
2, 50176, Note_on_c, 0, 49, 67
2, 50255, Note_on_c, 0, 49, 0
2, 50265, Note_on_c, 0, 52, 75
2, 50333, Note_on_c, 0, 52, 0
2, 50363, Note_on_c, 0, 55, 68
2, 50465, Note_on_c, 0, 55, 0
2, 50480, Note_on_c, 0, 44, 75
2, 50728, Note_on_c, 0, 73, 76
2, 50735, Note_on_c, 0, 56, 58
2, 50736, Note_on_c, 0, 68, 59
2, 50738, Note_on_c, 0, 49, 53
2, 50738, Note_on_c, 0, 53, 61
2, 50741, Note_on_c, 0, 65, 63
2, 50776, Note_on_c, 0, 65, 0
2, 50779, Note_on_c, 0, 68, 0
2, 50782, Note_on_c, 0, 53, 0
2, 50795, Note_on_c, 0, 73, 0
2, 50802, Note_on_c, 0, 56, 0
2, 50812, Note_on_c, 0, 49, 0
2, 51010, Note_on_c, 0, 68, 69
2, 51010, Note_on_c, 0, 72, 75
2, 51013, Note_on_c, 0, 63, 62
2, 51016, Note_on_c, 0, 51, 61
2, 51017, Note_on_c, 0, 56, 60
2, 51023, Note_on_c, 0, 54, 63
2, 51082, Note_on_c, 0, 63, 0
2, 51086, Note_on_c, 0, 68, 0
2, 51086, Note_on_c, 0, 72, 0
2, 51089, Note_on_c, 0, 54, 0
2, 51093, Note_on_c, 0, 51, 0
2, 51102, Note_on_c, 0, 56, 0
2, 51427, Note_on_c, 0, 73, 73
2, 51432, Note_on_c, 0, 61, 63
2, 51433, Note_on_c, 0, 68, 61
2, 51435, Note_on_c, 0, 49, 48
2, 51436, Note_on_c, 0, 56, 53
2, 51442, Note_on_c, 0, 53, 55
2, 51506, Note_on_c, 0, 44, 0
2, 52194, Note_on_c, 0, 73, 0
2, 52218, Note_on_c, 0, 61, 0
2, 52259, Note_on_c, 0, 68, 0
2, 52294, Note_on_c, 0, 56, 0
2, 52301, Note_on_c, 0, 53, 0
2, 52316, Note_on_c, 0, 49, 0
2, 52836, Note_on_c, 0, 68, 55
2, 52902, Note_on_c, 0, 68, 0
2, 53123, Note_on_c, 0, 70, 52
2, 53228, Note_on_c, 0, 70, 0
2, 53236, Note_on_c, 0, 68, 65
2, 53342, Note_on_c, 0, 68, 0
2, 53359, Note_on_c, 0, 66, 66
2, 53449, Note_on_c, 0, 66, 0
2, 53484, Note_on_c, 0, 68, 74
2, 53556, Note_on_c, 0, 68, 0
2, 53615, Note_on_c, 0, 77, 82
2, 53657, Note_on_c, 0, 77, 0
2, 53879, Note_on_c, 0, 73, 79
2, 53936, Note_on_c, 0, 73, 0
2, 54165, Note_on_c, 0, 68, 72
2, 54438, Note_on_c, 0, 68, 0
2, 54441, Note_on_c, 0, 66, 65
2, 54536, Note_on_c, 0, 66, 0
2, 54545, Note_on_c, 0, 65, 71
2, 54619, Note_on_c, 0, 65, 0
2, 54668, Note_on_c, 0, 66, 75
2, 54722, Note_on_c, 0, 66, 0
2, 54927, Note_on_c, 0, 75, 70
2, 54998, Note_on_c, 0, 75, 0
2, 55184, Note_on_c, 0, 65, 68
2, 55243, Note_on_c, 0, 65, 0
2, 55433, Note_on_c, 0, 73, 56
2, 55474, Note_on_c, 0, 73, 0
2, 55670, Note_on_c, 0, 63, 62
2, 55745, Note_on_c, 0, 63, 0
2, 55939, Note_on_c, 0, 72, 61
2, 55993, Note_on_c, 0, 72, 0
2, 56193, Note_on_c, 0, 61, 58
2, 56258, Note_on_c, 0, 61, 0
2, 56450, Note_on_c, 0, 73, 63
2, 56557, Note_on_c, 0, 73, 0
2, 56570, Note_on_c, 0, 72, 64
2, 56671, Note_on_c, 0, 72, 0
2, 56692, Note_on_c, 0, 73, 65
2, 56801, Note_on_c, 0, 73, 0
2, 56805, Note_on_c, 0, 75, 70
2, 56896, Note_on_c, 0, 75, 0
2, 56932, Note_on_c, 0, 61, 59
2, 56933, Note_on_c, 0, 77, 60
2, 56963, Note_on_c, 0, 61, 0
2, 57049, Note_on_c, 0, 77, 0
2, 57058, Note_on_c, 0, 78, 62
2, 57179, Note_on_c, 0, 78, 0
2, 57184, Note_on_c, 0, 80, 67
2, 57192, Note_on_c, 0, 65, 58
2, 57292, Note_on_c, 0, 65, 0
2, 57308, Note_on_c, 0, 63, 67
2, 57310, Note_on_c, 0, 79, 70
2, 57315, Note_on_c, 0, 80, 0
2, 57422, Note_on_c, 0, 79, 0
2, 57423, Note_on_c, 0, 63, 0
2, 57431, Note_on_c, 0, 77, 74
2, 57433, Note_on_c, 0, 61, 71
2, 57538, Note_on_c, 0, 63, 76
2, 57540, Note_on_c, 0, 61, 0
2, 57540, Note_on_c, 0, 77, 0
2, 57542, Note_on_c, 0, 79, 73
2, 57613, Note_on_c, 0, 63, 0
2, 57666, Note_on_c, 0, 72, 80
2, 57667, Note_on_c, 0, 79, 0
2, 57671, Note_on_c, 0, 80, 78
2, 57717, Note_on_c, 0, 72, 0
2, 57787, Note_on_c, 0, 78, 81
2, 57792, Note_on_c, 0, 80, 0
2, 57897, Note_on_c, 0, 78, 0
2, 57910, Note_on_c, 0, 68, 80
2, 57912, Note_on_c, 0, 77, 72
2, 57942, Note_on_c, 0, 68, 0
2, 58034, Note_on_c, 0, 77, 0
2, 58038, Note_on_c, 0, 75, 69
2, 58169, Note_on_c, 0, 77, 78
2, 58170, Note_on_c, 0, 63, 72
2, 58172, Note_on_c, 0, 75, 0
2, 58426, Note_on_c, 0, 63, 0
2, 58437, Note_on_c, 0, 61, 66
2, 58535, Note_on_c, 0, 61, 0
2, 58552, Note_on_c, 0, 60, 70
2, 58645, Note_on_c, 0, 60, 0
2, 58676, Note_on_c, 0, 61, 77
2, 58710, Note_on_c, 0, 61, 0
2, 58802, Note_on_c, 0, 75, 73
2, 58825, Note_on_c, 0, 77, 0
2, 58927, Note_on_c, 0, 73, 71
2, 58928, Note_on_c, 0, 75, 0
2, 58929, Note_on_c, 0, 70, 73
2, 58965, Note_on_c, 0, 70, 0
2, 59041, Note_on_c, 0, 73, 0
2, 59044, Note_on_c, 0, 77, 75
2, 59166, Note_on_c, 0, 75, 74
2, 59167, Note_on_c, 0, 77, 0
2, 59171, Note_on_c, 0, 60, 65
2, 59210, Note_on_c, 0, 60, 0
2, 59275, Note_on_c, 0, 73, 74
2, 59279, Note_on_c, 0, 75, 0
2, 59395, Note_on_c, 0, 73, 0
2, 59408, Note_on_c, 0, 72, 67
2, 59414, Note_on_c, 0, 68, 64
2, 59450, Note_on_c, 0, 68, 0
2, 59505, Note_on_c, 0, 72, 0
2, 59519, Note_on_c, 0, 75, 70
2, 59641, Note_on_c, 0, 75, 0
2, 59642, Note_on_c, 0, 58, 58
2, 59649, Note_on_c, 0, 73, 65
2, 59687, Note_on_c, 0, 58, 0
2, 59743, Note_on_c, 0, 73, 0
2, 59767, Note_on_c, 0, 72, 62
2, 59875, Note_on_c, 0, 72, 0
2, 59879, Note_on_c, 0, 73, 65
2, 59885, Note_on_c, 0, 67, 56
2, 59922, Note_on_c, 0, 67, 0
2, 59985, Note_on_c, 0, 73, 0
2, 59998, Note_on_c, 0, 70, 59
2, 60036, Note_on_c, 0, 70, 0
2, 60100, Note_on_c, 0, 56, 44
2, 60122, Note_on_c, 0, 70, 61
2, 60179, Note_on_c, 0, 70, 0
2, 60229, Note_on_c, 0, 72, 68
2, 60240, Note_on_c, 0, 56, 0
2, 60277, Note_on_c, 0, 72, 0
2, 60361, Note_on_c, 0, 68, 65
2, 60361, Note_on_c, 0, 75, 73
2, 60394, Note_on_c, 0, 68, 0
2, 60455, Note_on_c, 0, 75, 0
2, 60476, Note_on_c, 0, 67, 71
2, 60561, Note_on_c, 0, 67, 0
2, 60588, Note_on_c, 0, 78, 81
2, 60595, Note_on_c, 0, 68, 68
2, 60626, Note_on_c, 0, 68, 0
2, 60711, Note_on_c, 0, 70, 64
2, 60791, Note_on_c, 0, 70, 0
2, 60829, Note_on_c, 0, 56, 73
2, 60831, Note_on_c, 0, 72, 69
2, 60869, Note_on_c, 0, 56, 0
2, 60932, Note_on_c, 0, 72, 0
2, 60953, Note_on_c, 0, 68, 69
2, 61044, Note_on_c, 0, 68, 0
2, 61076, Note_on_c, 0, 58, 78
2, 61088, Note_on_c, 0, 73, 67
2, 61185, Note_on_c, 0, 73, 0
2, 61195, Note_on_c, 0, 58, 0
2, 61203, Note_on_c, 0, 56, 73
2, 61203, Note_on_c, 0, 72, 69
2, 61307, Note_on_c, 0, 72, 0
2, 61311, Note_on_c, 0, 56, 0
2, 61323, Note_on_c, 0, 54, 78
2, 61329, Note_on_c, 0, 70, 73
2, 61389, Note_on_c, 0, 78, 0
2, 61406, Note_on_c, 0, 70, 0
2, 61415, Note_on_c, 0, 54, 0
2, 61427, Note_on_c, 0, 56, 77
2, 61428, Note_on_c, 0, 72, 79
2, 61489, Note_on_c, 0, 56, 0
2, 61540, Note_on_c, 0, 72, 0
2, 61551, Note_on_c, 0, 73, 73
2, 61554, Note_on_c, 0, 77, 84
2, 61556, Note_on_c, 0, 65, 74
2, 61605, Note_on_c, 0, 73, 0
2, 61609, Note_on_c, 0, 65, 0
2, 61664, Note_on_c, 0, 72, 76
2, 61736, Note_on_c, 0, 72, 0
2, 61793, Note_on_c, 0, 61, 75
2, 61796, Note_on_c, 0, 70, 73
2, 61820, Note_on_c, 0, 61, 0
2, 61883, Note_on_c, 0, 70, 0
2, 61909, Note_on_c, 0, 68, 73
2, 62019, Note_on_c, 0, 68, 0
2, 62039, Note_on_c, 0, 56, 76
2, 62045, Note_on_c, 0, 70, 73
2, 62090, Note_on_c, 0, 77, 0
2, 62287, Note_on_c, 0, 56, 0
2, 62300, Note_on_c, 0, 54, 66
2, 62395, Note_on_c, 0, 54, 0
2, 62408, Note_on_c, 0, 53, 73
2, 62492, Note_on_c, 0, 53, 0
2, 62526, Note_on_c, 0, 54, 79
2, 62535, Note_on_c, 0, 75, 75
2, 62537, Note_on_c, 0, 70, 0
2, 62577, Note_on_c, 0, 54, 0
2, 62660, Note_on_c, 0, 68, 64
2, 62758, Note_on_c, 0, 68, 0
2, 62781, Note_on_c, 0, 63, 69
2, 62782, Note_on_c, 0, 66, 59
2, 62820, Note_on_c, 0, 63, 0
2, 62850, Note_on_c, 0, 66, 0
2, 62896, Note_on_c, 0, 70, 60
2, 62994, Note_on_c, 0, 70, 0
2, 63012, Note_on_c, 0, 68, 64
2, 63015, Note_on_c, 0, 53, 60
2, 63056, Note_on_c, 0, 53, 0
2, 63090, Note_on_c, 0, 68, 0
2, 63130, Note_on_c, 0, 66, 60
2, 63150, Note_on_c, 0, 75, 0
2, 63245, Note_on_c, 0, 73, 66
2, 63250, Note_on_c, 0, 61, 55
2, 63258, Note_on_c, 0, 65, 60
2, 63259, Note_on_c, 0, 66, 0
2, 63287, Note_on_c, 0, 61, 0
2, 63302, Note_on_c, 0, 65, 0
2, 63351, Note_on_c, 0, 73, 0
2, 63357, Note_on_c, 0, 68, 67
2, 63464, Note_on_c, 0, 51, 57
2, 63477, Note_on_c, 0, 68, 0
2, 63487, Note_on_c, 0, 72, 62
2, 63504, Note_on_c, 0, 51, 0
2, 63549, Note_on_c, 0, 72, 0
2, 63612, Note_on_c, 0, 65, 52
2, 63638, Note_on_c, 0, 65, 0
2, 63692, Note_on_c, 0, 75, 77
2, 63721, Note_on_c, 0, 66, 53
2, 63722, Note_on_c, 0, 60, 53
2, 63745, Note_on_c, 0, 60, 0
2, 63752, Note_on_c, 0, 66, 0
2, 63829, Note_on_c, 0, 63, 53
2, 63860, Note_on_c, 0, 63, 0
2, 63947, Note_on_c, 0, 49, 56
2, 63955, Note_on_c, 0, 65, 67
2, 63972, Note_on_c, 0, 75, 0
2, 63990, Note_on_c, 0, 49, 0
2, 64216, Note_on_c, 0, 61, 53
2, 64217, Note_on_c, 0, 68, 68
2, 64256, Note_on_c, 0, 68, 0
2, 64299, Note_on_c, 0, 61, 0
2, 64329, Note_on_c, 0, 60, 56
2, 64437, Note_on_c, 0, 60, 0
2, 64450, Note_on_c, 0, 77, 74
2, 64456, Note_on_c, 0, 65, 0
2, 64458, Note_on_c, 0, 61, 54
2, 64554, Note_on_c, 0, 61, 0
2, 64571, Note_on_c, 0, 63, 57
2, 64658, Note_on_c, 0, 63, 0
2, 64693, Note_on_c, 0, 65, 51
2, 64703, Note_on_c, 0, 68, 61
2, 64749, Note_on_c, 0, 68, 0
2, 64787, Note_on_c, 0, 65, 0
2, 64805, Note_on_c, 0, 61, 53
2, 64902, Note_on_c, 0, 61, 0
2, 64932, Note_on_c, 0, 77, 0
2, 64944, Note_on_c, 0, 73, 64
2, 64953, Note_on_c, 0, 58, 51
2, 65010, Note_on_c, 0, 58, 0
2, 65051, Note_on_c, 0, 60, 57
2, 65112, Note_on_c, 0, 60, 0
2, 65173, Note_on_c, 0, 73, 0
2, 65176, Note_on_c, 0, 61, 54
2, 65183, Note_on_c, 0, 77, 67
2, 65261, Note_on_c, 0, 61, 0
2, 65281, Note_on_c, 0, 77, 0
2, 65292, Note_on_c, 0, 58, 56
2, 65297, Note_on_c, 0, 73, 67
2, 65385, Note_on_c, 0, 58, 0
2, 65387, Note_on_c, 0, 73, 0
2, 65416, Note_on_c, 0, 55, 54
2, 65421, Note_on_c, 0, 70, 64
2, 65487, Note_on_c, 0, 55, 0
2, 65518, Note_on_c, 0, 56, 60
2, 65608, Note_on_c, 0, 56, 0
2, 65627, Note_on_c, 0, 70, 0
2, 65648, Note_on_c, 0, 73, 66
2, 65654, Note_on_c, 0, 58, 59
2, 65717, Note_on_c, 0, 58, 0
2, 65764, Note_on_c, 0, 73, 0
2, 65770, Note_on_c, 0, 70, 65
2, 65774, Note_on_c, 0, 55, 51
2, 65845, Note_on_c, 0, 55, 0
2, 65864, Note_on_c, 0, 70, 0
2, 65903, Note_on_c, 0, 63, 58
2, 65907, Note_on_c, 0, 48, 49
2, 65955, Note_on_c, 0, 48, 0
2, 66156, Note_on_c, 0, 70, 58
2, 66163, Note_on_c, 0, 60, 48
2, 66201, Note_on_c, 0, 70, 0
2, 66226, Note_on_c, 0, 60, 0
2, 66275, Note_on_c, 0, 58, 46
2, 66386, Note_on_c, 0, 58, 0
2, 66399, Note_on_c, 0, 63, 0
2, 66408, Note_on_c, 0, 60, 53
2, 66409, Note_on_c, 0, 75, 67
2, 66504, Note_on_c, 0, 60, 0
2, 66536, Note_on_c, 0, 61, 54
2, 66616, Note_on_c, 0, 61, 0
2, 66653, Note_on_c, 0, 63, 52
2, 66662, Note_on_c, 0, 67, 59
2, 66722, Note_on_c, 0, 67, 0
2, 66732, Note_on_c, 0, 63, 0
2, 66771, Note_on_c, 0, 60, 50
2, 66863, Note_on_c, 0, 60, 0
2, 66899, Note_on_c, 0, 56, 50
2, 66913, Note_on_c, 0, 75, 0
2, 66915, Note_on_c, 0, 72, 62
2, 66997, Note_on_c, 0, 56, 0
2, 67021, Note_on_c, 0, 58, 54
2, 67095, Note_on_c, 0, 58, 0
2, 67138, Note_on_c, 0, 72, 0
2, 67149, Note_on_c, 0, 75, 65
2, 67152, Note_on_c, 0, 60, 52
2, 67244, Note_on_c, 0, 60, 0
2, 67253, Note_on_c, 0, 75, 0
2, 67266, Note_on_c, 0, 72, 70
2, 67267, Note_on_c, 0, 56, 54
2, 67341, Note_on_c, 0, 72, 0
2, 67359, Note_on_c, 0, 56, 0
2, 67387, Note_on_c, 0, 68, 60
2, 67399, Note_on_c, 0, 53, 50
2, 67451, Note_on_c, 0, 53, 0
2, 67494, Note_on_c, 0, 55, 55
2, 67557, Note_on_c, 0, 68, 0
2, 67561, Note_on_c, 0, 55, 0
2, 67618, Note_on_c, 0, 56, 55
2, 67620, Note_on_c, 0, 72, 59
2, 67690, Note_on_c, 0, 56, 0
2, 67726, Note_on_c, 0, 72, 0
2, 67729, Note_on_c, 0, 53, 44
2, 67738, Note_on_c, 0, 68, 64
2, 67818, Note_on_c, 0, 53, 0
2, 67818, Note_on_c, 0, 68, 0
2, 67870, Note_on_c, 0, 46, 45
2, 67870, Note_on_c, 0, 61, 55
2, 67911, Note_on_c, 0, 46, 0
2, 68122, Note_on_c, 0, 68, 58
2, 68127, Note_on_c, 0, 58, 52
2, 68168, Note_on_c, 0, 68, 0
2, 68191, Note_on_c, 0, 58, 0
2, 68243, Note_on_c, 0, 56, 47
2, 68345, Note_on_c, 0, 56, 0
2, 68362, Note_on_c, 0, 61, 0
2, 68374, Note_on_c, 0, 58, 42
2, 68382, Note_on_c, 0, 73, 61
2, 68462, Note_on_c, 0, 58, 0
2, 68496, Note_on_c, 0, 60, 48
2, 68584, Note_on_c, 0, 60, 0
2, 68617, Note_on_c, 0, 61, 53
2, 68627, Note_on_c, 0, 65, 56
2, 68668, Note_on_c, 0, 65, 0
2, 68683, Note_on_c, 0, 61, 0
2, 68742, Note_on_c, 0, 58, 52
2, 68839, Note_on_c, 0, 58, 0
2, 68873, Note_on_c, 0, 55, 40
2, 68873, Note_on_c, 0, 70, 62
2, 68887, Note_on_c, 0, 73, 0
2, 68961, Note_on_c, 0, 55, 0
2, 68983, Note_on_c, 0, 70, 0
2, 68985, Note_on_c, 0, 56, 59
2, 68991, Note_on_c, 0, 72, 71
2, 69045, Note_on_c, 0, 56, 0
2, 69104, Note_on_c, 0, 58, 56
2, 69109, Note_on_c, 0, 73, 73
2, 69116, Note_on_c, 0, 72, 0
2, 69168, Note_on_c, 0, 73, 0
2, 69180, Note_on_c, 0, 58, 0
2, 69206, Note_on_c, 0, 55, 59
2, 69217, Note_on_c, 0, 70, 75
2, 69309, Note_on_c, 0, 70, 0
2, 69324, Note_on_c, 0, 55, 0
2, 69336, Note_on_c, 0, 82, 84
2, 69337, Note_on_c, 0, 51, 71
2, 69423, Note_on_c, 0, 51, 0
2, 69451, Note_on_c, 0, 73, 78
2, 69454, Note_on_c, 0, 53, 70
2, 69515, Note_on_c, 0, 53, 0
2, 69553, Note_on_c, 0, 73, 0
2, 69575, Note_on_c, 0, 75, 76
2, 69578, Note_on_c, 0, 55, 64
2, 69664, Note_on_c, 0, 75, 0
2, 69674, Note_on_c, 0, 55, 0
2, 69690, Note_on_c, 0, 51, 68
2, 69690, Note_on_c, 0, 70, 76
2, 69749, Note_on_c, 0, 70, 0
2, 69765, Note_on_c, 0, 51, 0
2, 69804, Note_on_c, 0, 44, 79
2, 69823, Note_on_c, 0, 72, 81
2, 69839, Note_on_c, 0, 44, 0
2, 69938, Note_on_c, 0, 80, 76
2, 69945, Note_on_c, 0, 82, 0
2, 70041, Note_on_c, 0, 80, 0
2, 70051, Note_on_c, 0, 72, 0
2, 70054, Note_on_c, 0, 79, 76
2, 70058, Note_on_c, 0, 56, 74
2, 70148, Note_on_c, 0, 56, 0
2, 70163, Note_on_c, 0, 79, 0
2, 70168, Note_on_c, 0, 82, 83
2, 70177, Note_on_c, 0, 58, 83
2, 70241, Note_on_c, 0, 58, 0
2, 70287, Note_on_c, 0, 80, 82
2, 70289, Note_on_c, 0, 60, 91
2, 70290, Note_on_c, 0, 82, 0
2, 70330, Note_on_c, 0, 60, 0
2, 70402, Note_on_c, 0, 80, 0
2, 70412, Note_on_c, 0, 75, 83
2, 70532, Note_on_c, 0, 75, 0
2, 70546, Note_on_c, 0, 77, 81
2, 70549, Note_on_c, 0, 68, 85
2, 70555, Note_on_c, 0, 56, 67
2, 70591, Note_on_c, 0, 56, 0
2, 70663, Note_on_c, 0, 77, 0
2, 70665, Note_on_c, 0, 78, 82
2, 70756, Note_on_c, 0, 68, 0
2, 70758, Note_on_c, 0, 61, 69
2, 70776, Note_on_c, 0, 78, 0
2, 70778, Note_on_c, 0, 77, 83
2, 70883, Note_on_c, 0, 67, 71
2, 70886, Note_on_c, 0, 77, 0
2, 70889, Note_on_c, 0, 75, 85
2, 70924, Note_on_c, 0, 61, 0
2, 70967, Note_on_c, 0, 67, 0
2, 70975, Note_on_c, 0, 75, 0
2, 71002, Note_on_c, 0, 65, 62
2, 71008, Note_on_c, 0, 73, 82
2, 71079, Note_on_c, 0, 73, 0
2, 71082, Note_on_c, 0, 65, 0
2, 71116, Note_on_c, 0, 67, 64
2, 71125, Note_on_c, 0, 75, 86
2, 71212, Note_on_c, 0, 75, 0
2, 71213, Note_on_c, 0, 67, 0
2, 71240, Note_on_c, 0, 84, 94
2, 71250, Note_on_c, 0, 68, 75
2, 71252, Note_on_c, 0, 60, 56
2, 71280, Note_on_c, 0, 84, 0
2, 71292, Note_on_c, 0, 60, 0
2, 71364, Note_on_c, 0, 66, 73
2, 71368, Note_on_c, 0, 68, 0
2, 71447, Note_on_c, 0, 66, 0
2, 71486, Note_on_c, 0, 65, 70
2, 71489, Note_on_c, 0, 80, 88
2, 71539, Note_on_c, 0, 80, 0
2, 71589, Note_on_c, 0, 65, 0
2, 71597, Note_on_c, 0, 63, 69
2, 71759, Note_on_c, 0, 63, 0
2, 71763, Note_on_c, 0, 75, 82
2, 71773, Note_on_c, 0, 58, 65
2, 71773, Note_on_c, 0, 65, 67
2, 71819, Note_on_c, 0, 58, 0
2, 72037, Note_on_c, 0, 73, 72
2, 72039, Note_on_c, 0, 56, 59
2, 72040, Note_on_c, 0, 75, 0
2, 72082, Note_on_c, 0, 56, 0
2, 72124, Note_on_c, 0, 73, 0
2, 72144, Note_on_c, 0, 72, 73
2, 72231, Note_on_c, 0, 72, 0
2, 72260, Note_on_c, 0, 55, 61
2, 72265, Note_on_c, 0, 65, 0
2, 72265, Note_on_c, 0, 73, 77
2, 72306, Note_on_c, 0, 73, 0
2, 72378, Note_on_c, 0, 55, 0
2, 72380, Note_on_c, 0, 63, 67
2, 72485, Note_on_c, 0, 63, 0
2, 72496, Note_on_c, 0, 82, 78
2, 72503, Note_on_c, 0, 61, 64
2, 72558, Note_on_c, 0, 82, 0
2, 72575, Note_on_c, 0, 61, 0
2, 72624, Note_on_c, 0, 65, 63
2, 72654, Note_on_c, 0, 65, 0
2, 72749, Note_on_c, 0, 63, 67
2, 72750, Note_on_c, 0, 72, 74
2, 72752, Note_on_c, 0, 56, 58
2, 72792, Note_on_c, 0, 72, 0
2, 72794, Note_on_c, 0, 56, 0
2, 72796, Note_on_c, 0, 63, 0
2, 72862, Note_on_c, 0, 61, 67
2, 72958, Note_on_c, 0, 61, 0
2, 72986, Note_on_c, 0, 60, 69
2, 72986, Note_on_c, 0, 80, 71
2, 73032, Note_on_c, 0, 60, 0
2, 73033, Note_on_c, 0, 80, 0
2, 73088, Note_on_c, 0, 63, 68
2, 73119, Note_on_c, 0, 63, 0
2, 73218, Note_on_c, 0, 70, 70
2, 73222, Note_on_c, 0, 61, 65
2, 73226, Note_on_c, 0, 51, 62
2, 73258, Note_on_c, 0, 70, 0
2, 73272, Note_on_c, 0, 61, 0
2, 73275, Note_on_c, 0, 51, 0
2, 73337, Note_on_c, 0, 60, 68
2, 73440, Note_on_c, 0, 60, 0
2, 73478, Note_on_c, 0, 61, 62
2, 73485, Note_on_c, 0, 79, 62
2, 73521, Note_on_c, 0, 79, 0
2, 73548, Note_on_c, 0, 61, 0
2, 73586, Note_on_c, 0, 58, 57
2, 73688, Note_on_c, 0, 58, 0
2, 73714, Note_on_c, 0, 56, 49
2, 73721, Note_on_c, 0, 68, 53
2, 73726, Note_on_c, 0, 60, 50
2, 73766, Note_on_c, 0, 60, 0
2, 73801, Note_on_c, 0, 68, 0
2, 73837, Note_on_c, 0, 70, 60
2, 73917, Note_on_c, 0, 70, 0
2, 73953, Note_on_c, 0, 72, 64
2, 73965, Note_on_c, 0, 63, 54
2, 74008, Note_on_c, 0, 63, 0
2, 74051, Note_on_c, 0, 72, 0
2, 74071, Note_on_c, 0, 73, 66
2, 74161, Note_on_c, 0, 73, 0
2, 74167, Note_on_c, 0, 56, 0
2, 74199, Note_on_c, 0, 72, 64
2, 74210, Note_on_c, 0, 68, 63
2, 74249, Note_on_c, 0, 68, 0
2, 74295, Note_on_c, 0, 72, 0
2, 74317, Note_on_c, 0, 70, 65
2, 74393, Note_on_c, 0, 70, 0
2, 74436, Note_on_c, 0, 68, 62
2, 74438, Note_on_c, 0, 63, 62
2, 74522, Note_on_c, 0, 63, 0
2, 74537, Note_on_c, 0, 68, 0
2, 74550, Note_on_c, 0, 72, 67
2, 74570, Note_on_c, 0, 60, 56
2, 74633, Note_on_c, 0, 60, 0
2, 74670, Note_on_c, 0, 72, 0
2, 74675, Note_on_c, 0, 56, 63
2, 74675, Note_on_c, 0, 77, 75
2, 74712, Note_on_c, 0, 56, 0
2, 74790, Note_on_c, 0, 75, 74
2, 74803, Note_on_c, 0, 77, 0
2, 74879, Note_on_c, 0, 75, 0
2, 74904, Note_on_c, 0, 74, 70
2, 74905, Note_on_c, 0, 59, 65
2, 75000, Note_on_c, 0, 59, 0
2, 75026, Note_on_c, 0, 77, 77
2, 75027, Note_on_c, 0, 74, 0
2, 75041, Note_on_c, 0, 56, 57
2, 75131, Note_on_c, 0, 56, 0
2, 75144, Note_on_c, 0, 77, 0
2, 75147, Note_on_c, 0, 80, 80
2, 75152, Note_on_c, 0, 53, 72
2, 75183, Note_on_c, 0, 53, 0
2, 75265, Note_on_c, 0, 78, 84
2, 75274, Note_on_c, 0, 80, 0
2, 75373, Note_on_c, 0, 78, 0
2, 75376, Note_on_c, 0, 56, 68
2, 75378, Note_on_c, 0, 77, 82
2, 75477, Note_on_c, 0, 56, 0
2, 75485, Note_on_c, 0, 77, 0
2, 75485, Note_on_c, 0, 80, 78
2, 75488, Note_on_c, 0, 53, 71
2, 75520, Note_on_c, 0, 80, 0
2, 75592, Note_on_c, 0, 53, 0
2, 75609, Note_on_c, 0, 50, 63
2, 75615, Note_on_c, 0, 80, 77
2, 75672, Note_on_c, 0, 80, 0
2, 75681, Note_on_c, 0, 82, 75
2, 75738, Note_on_c, 0, 82, 0
2, 75743, Note_on_c, 0, 83, 85
2, 75879, Note_on_c, 0, 53, 61
2, 75882, Note_on_c, 0, 50, 0
2, 75884, Note_on_c, 0, 82, 73
2, 75898, Note_on_c, 0, 83, 0
2, 75995, Note_on_c, 0, 80, 69
2, 75999, Note_on_c, 0, 53, 0
2, 76003, Note_on_c, 0, 56, 63
2, 76009, Note_on_c, 0, 82, 0
2, 76065, Note_on_c, 0, 56, 0
2, 76118, Note_on_c, 0, 80, 0
2, 76120, Note_on_c, 0, 78, 67
2, 76123, Note_on_c, 0, 59, 66
2, 76153, Note_on_c, 0, 59, 0
2, 76206, Note_on_c, 0, 78, 0
2, 76229, Note_on_c, 0, 77, 66
2, 76316, Note_on_c, 0, 77, 0
2, 76354, Note_on_c, 0, 75, 62
2, 76355, Note_on_c, 0, 53, 55
2, 76394, Note_on_c, 0, 53, 0
2, 76460, Note_on_c, 0, 75, 0
2, 76469, Note_on_c, 0, 74, 63
2, 76572, Note_on_c, 0, 74, 0
2, 76598, Note_on_c, 0, 75, 64
2, 76601, Note_on_c, 0, 58, 57
2, 76606, Note_on_c, 0, 54, 52
2, 76642, Note_on_c, 0, 58, 0
2, 76646, Note_on_c, 0, 54, 0
2, 76694, Note_on_c, 0, 75, 0
2, 76712, Note_on_c, 0, 78, 68
2, 76811, Note_on_c, 0, 78, 0
2, 76833, Note_on_c, 0, 77, 69
2, 76843, Note_on_c, 0, 56, 63
2, 76843, Note_on_c, 0, 59, 58
2, 76874, Note_on_c, 0, 56, 0
2, 76878, Note_on_c, 0, 59, 0
2, 76945, Note_on_c, 0, 75, 70
2, 76953, Note_on_c, 0, 77, 0
2, 77056, Note_on_c, 0, 75, 0
2, 77059, Note_on_c, 0, 74, 60
2, 77079, Note_on_c, 0, 58, 74
2, 77123, Note_on_c, 0, 58, 0
2, 77132, Note_on_c, 0, 74, 0
2, 77182, Note_on_c, 0, 77, 66
2, 77297, Note_on_c, 0, 77, 0
2, 77312, Note_on_c, 0, 50, 59
2, 77317, Note_on_c, 0, 46, 56
2, 77322, Note_on_c, 0, 70, 68
2, 77344, Note_on_c, 0, 50, 0
2, 77348, Note_on_c, 0, 46, 0
2, 77431, Note_on_c, 0, 70, 0
2, 77439, Note_on_c, 0, 68, 69
2, 77554, Note_on_c, 0, 51, 70
2, 77557, Note_on_c, 0, 39, 57
2, 77564, Note_on_c, 0, 68, 0
2, 77566, Note_on_c, 0, 66, 66
2, 77664, Note_on_c, 0, 66, 0
2, 77683, Note_on_c, 0, 65, 68
2, 77799, Note_on_c, 0, 65, 0
2, 77807, Note_on_c, 0, 63, 67
2, 77833, Note_on_c, 0, 39, 0
2, 77885, Note_on_c, 0, 51, 0
2, 77913, Note_on_c, 0, 63, 0
2, 77921, Note_on_c, 0, 62, 71
2, 78033, Note_on_c, 0, 62, 0
2, 78054, Note_on_c, 0, 63, 70
2, 78145, Note_on_c, 0, 63, 0
2, 78172, Note_on_c, 0, 65, 57
2, 78284, Note_on_c, 0, 65, 0
2, 78285, Note_on_c, 0, 51, 71
2, 78287, Note_on_c, 0, 66, 66
2, 78319, Note_on_c, 0, 51, 0
2, 78403, Note_on_c, 0, 66, 0
2, 78404, Note_on_c, 0, 68, 71
2, 78520, Note_on_c, 0, 54, 77
2, 78521, Note_on_c, 0, 68, 0
2, 78527, Note_on_c, 0, 70, 67
2, 78628, Note_on_c, 0, 54, 0
2, 78636, Note_on_c, 0, 53, 76
2, 78640, Note_on_c, 0, 70, 0
2, 78643, Note_on_c, 0, 68, 72
2, 78725, Note_on_c, 0, 53, 0
2, 78747, Note_on_c, 0, 68, 0
2, 78761, Note_on_c, 0, 66, 71
2, 78765, Note_on_c, 0, 51, 73
2, 78835, Note_on_c, 0, 51, 0
2, 78873, Note_on_c, 0, 53, 78
2, 78873, Note_on_c, 0, 68, 78
2, 78879, Note_on_c, 0, 66, 0
2, 78933, Note_on_c, 0, 53, 0
2, 79002, Note_on_c, 0, 70, 76
2, 79003, Note_on_c, 0, 68, 0
2, 79007, Note_on_c, 0, 61, 78
2, 79052, Note_on_c, 0, 61, 0
2, 79120, Note_on_c, 0, 68, 80
2, 79123, Note_on_c, 0, 70, 0
2, 79246, Note_on_c, 0, 58, 78
2, 79250, Note_on_c, 0, 66, 75
2, 79256, Note_on_c, 0, 68, 0
2, 79277, Note_on_c, 0, 58, 0
2, 79352, Note_on_c, 0, 66, 0
2, 79365, Note_on_c, 0, 65, 76
2, 79494, Note_on_c, 0, 65, 0
2, 79503, Note_on_c, 0, 53, 71
2, 79503, Note_on_c, 0, 66, 71
2, 79738, Note_on_c, 0, 53, 0
2, 79750, Note_on_c, 0, 51, 69
2, 79850, Note_on_c, 0, 51, 0
2, 79872, Note_on_c, 0, 49, 62
2, 79973, Note_on_c, 0, 49, 0
2, 79990, Note_on_c, 0, 51, 73
2, 80031, Note_on_c, 0, 51, 0
2, 80084, Note_on_c, 0, 66, 0
2, 80104, Note_on_c, 0, 65, 66
2, 80210, Note_on_c, 0, 65, 0
2, 80224, Note_on_c, 0, 63, 65
2, 80226, Note_on_c, 0, 60, 63
2, 80257, Note_on_c, 0, 60, 0
2, 80332, Note_on_c, 0, 63, 0
2, 80346, Note_on_c, 0, 66, 64
2, 80459, Note_on_c, 0, 49, 58
2, 80468, Note_on_c, 0, 65, 62
2, 80469, Note_on_c, 0, 66, 0
2, 80500, Note_on_c, 0, 49, 0
2, 80581, Note_on_c, 0, 65, 0
2, 80585, Note_on_c, 0, 63, 66
2, 80676, Note_on_c, 0, 63, 0
2, 80697, Note_on_c, 0, 61, 60
2, 80708, Note_on_c, 0, 58, 62
2, 80747, Note_on_c, 0, 58, 0
2, 80812, Note_on_c, 0, 61, 0
2, 80826, Note_on_c, 0, 65, 58
2, 80943, Note_on_c, 0, 48, 52
2, 80945, Note_on_c, 0, 65, 0
2, 80946, Note_on_c, 0, 63, 59
2, 80981, Note_on_c, 0, 48, 0
2, 81043, Note_on_c, 0, 63, 0
2, 81066, Note_on_c, 0, 61, 59
2, 81176, Note_on_c, 0, 61, 0
2, 81185, Note_on_c, 0, 63, 57
2, 81199, Note_on_c, 0, 57, 49
2, 81234, Note_on_c, 0, 57, 0
2, 81264, Note_on_c, 0, 63, 0
2, 81300, Note_on_c, 0, 60, 58
2, 81376, Note_on_c, 0, 60, 0
2, 81419, Note_on_c, 0, 61, 59
2, 81426, Note_on_c, 0, 46, 41
2, 81470, Note_on_c, 0, 46, 0
2, 81480, Note_on_c, 0, 61, 0
2, 81541, Note_on_c, 0, 65, 63
2, 81644, Note_on_c, 0, 65, 0
2, 81650, Note_on_c, 0, 58, 53
2, 81655, Note_on_c, 0, 66, 63
2, 81740, Note_on_c, 0, 66, 0
2, 81749, Note_on_c, 0, 58, 0
2, 81770, Note_on_c, 0, 65, 63
2, 81774, Note_on_c, 0, 57, 57
2, 81896, Note_on_c, 0, 65, 0
2, 81900, Note_on_c, 0, 57, 0
2, 81917, Note_on_c, 0, 73, 63
2, 81918, Note_on_c, 0, 58, 53
2, 82011, Note_on_c, 0, 58, 0
2, 82039, Note_on_c, 0, 60, 56
2, 82106, Note_on_c, 0, 60, 0
2, 82156, Note_on_c, 0, 61, 50
2, 82162, Note_on_c, 0, 65, 55
2, 82220, Note_on_c, 0, 65, 0
2, 82223, Note_on_c, 0, 61, 0
2, 82266, Note_on_c, 0, 58, 54
2, 82356, Note_on_c, 0, 58, 0
2, 82392, Note_on_c, 0, 70, 63
2, 82395, Note_on_c, 0, 55, 47
2, 82413, Note_on_c, 0, 73, 0
2, 82466, Note_on_c, 0, 55, 0
2, 82508, Note_on_c, 0, 56, 57
2, 82508, Note_on_c, 0, 70, 0
2, 82514, Note_on_c, 0, 72, 72
2, 82569, Note_on_c, 0, 56, 0
2, 82632, Note_on_c, 0, 72, 0
2, 82636, Note_on_c, 0, 73, 68
2, 82637, Note_on_c, 0, 58, 56
2, 82687, Note_on_c, 0, 73, 0
2, 82706, Note_on_c, 0, 58, 0
2, 82739, Note_on_c, 0, 70, 69
2, 82741, Note_on_c, 0, 55, 54
2, 82835, Note_on_c, 0, 55, 0
2, 82837, Note_on_c, 0, 70, 0
2, 82861, Note_on_c, 0, 51, 61
2, 82869, Note_on_c, 0, 82, 73
2, 82944, Note_on_c, 0, 51, 0
2, 82983, Note_on_c, 0, 53, 55
2, 83000, Note_on_c, 0, 73, 58
2, 83028, Note_on_c, 0, 53, 0
2, 83088, Note_on_c, 0, 73, 0
2, 83094, Note_on_c, 0, 55, 56
2, 83108, Note_on_c, 0, 75, 65
2, 83140, Note_on_c, 0, 82, 0
2, 83168, Note_on_c, 0, 55, 0
2, 83181, Note_on_c, 0, 75, 0
2, 83191, Note_on_c, 0, 51, 57
2, 83216, Note_on_c, 0, 70, 64
2, 83275, Note_on_c, 0, 51, 0
2, 83275, Note_on_c, 0, 70, 0
2, 83330, Note_on_c, 0, 72, 69
2, 83335, Note_on_c, 0, 44, 54
2, 83367, Note_on_c, 0, 72, 0
2, 83390, Note_on_c, 0, 44, 0
2, 83452, Note_on_c, 0, 63, 65
2, 83534, Note_on_c, 0, 63, 0
2, 83568, Note_on_c, 0, 65, 62
2, 83576, Note_on_c, 0, 56, 57
2, 83670, Note_on_c, 0, 65, 0
2, 83672, Note_on_c, 0, 56, 0
2, 83684, Note_on_c, 0, 63, 61
2, 83700, Note_on_c, 0, 55, 52
2, 83795, Note_on_c, 0, 55, 0
2, 83800, Note_on_c, 0, 63, 0
2, 83815, Note_on_c, 0, 72, 65
2, 83819, Note_on_c, 0, 56, 56
2, 83905, Note_on_c, 0, 56, 0
2, 83935, Note_on_c, 0, 58, 52
2, 84008, Note_on_c, 0, 58, 0
2, 84052, Note_on_c, 0, 60, 50
2, 84081, Note_on_c, 0, 63, 45
2, 84144, Note_on_c, 0, 60, 0
2, 84156, Note_on_c, 0, 63, 0
2, 84179, Note_on_c, 0, 56, 50
2, 84264, Note_on_c, 0, 56, 0
2, 84304, Note_on_c, 0, 53, 46
2, 84304, Note_on_c, 0, 68, 58
2, 84323, Note_on_c, 0, 72, 0
2, 84384, Note_on_c, 0, 53, 0
2, 84420, Note_on_c, 0, 55, 54
2, 84423, Note_on_c, 0, 70, 66
2, 84482, Note_on_c, 0, 55, 0
2, 84537, Note_on_c, 0, 72, 67
2, 84544, Note_on_c, 0, 56, 54
2, 84559, Note_on_c, 0, 70, 0
2, 84562, Note_on_c, 0, 68, 0
2, 84593, Note_on_c, 0, 72, 0
2, 84616, Note_on_c, 0, 56, 0
2, 84650, Note_on_c, 0, 53, 54
2, 84653, Note_on_c, 0, 68, 69
2, 84746, Note_on_c, 0, 53, 0
2, 84752, Note_on_c, 0, 68, 0
2, 84773, Note_on_c, 0, 49, 55
2, 84775, Note_on_c, 0, 80, 71
2, 84872, Note_on_c, 0, 49, 0
2, 84896, Note_on_c, 0, 51, 54
2, 84916, Note_on_c, 0, 72, 59
2, 84957, Note_on_c, 0, 51, 0
2, 85009, Note_on_c, 0, 72, 0
2, 85012, Note_on_c, 0, 53, 58
2, 85027, Note_on_c, 0, 73, 64
2, 85053, Note_on_c, 0, 80, 0
2, 85104, Note_on_c, 0, 53, 0
2, 85107, Note_on_c, 0, 73, 0
2, 85119, Note_on_c, 0, 49, 54
2, 85137, Note_on_c, 0, 68, 62
2, 85191, Note_on_c, 0, 68, 0
2, 85205, Note_on_c, 0, 49, 0
2, 85244, Note_on_c, 0, 43, 58
2, 85252, Note_on_c, 0, 70, 63
2, 85284, Note_on_c, 0, 70, 0
2, 85289, Note_on_c, 0, 43, 0
2, 85360, Note_on_c, 0, 61, 66
2, 85427, Note_on_c, 0, 61, 0
2, 85482, Note_on_c, 0, 55, 47
2, 85491, Note_on_c, 0, 63, 65
2, 85560, Note_on_c, 0, 55, 0
2, 85590, Note_on_c, 0, 63, 0
2, 85601, Note_on_c, 0, 53, 50
2, 85607, Note_on_c, 0, 61, 55
2, 85703, Note_on_c, 0, 53, 0
2, 85716, Note_on_c, 0, 61, 0
2, 85736, Note_on_c, 0, 55, 54
2, 85744, Note_on_c, 0, 70, 53
2, 85832, Note_on_c, 0, 55, 0
2, 85864, Note_on_c, 0, 56, 49
2, 85947, Note_on_c, 0, 56, 0
2, 85988, Note_on_c, 0, 58, 52
2, 85995, Note_on_c, 0, 61, 54
2, 86053, Note_on_c, 0, 61, 0
2, 86059, Note_on_c, 0, 58, 0
2, 86108, Note_on_c, 0, 55, 42
2, 86189, Note_on_c, 0, 55, 0
2, 86221, Note_on_c, 0, 52, 51
2, 86224, Note_on_c, 0, 67, 56
2, 86287, Note_on_c, 0, 70, 0
2, 86300, Note_on_c, 0, 52, 0
2, 86339, Note_on_c, 0, 68, 62
2, 86341, Note_on_c, 0, 53, 53
2, 86383, Note_on_c, 0, 67, 0
2, 86407, Note_on_c, 0, 53, 0
2, 86464, Note_on_c, 0, 55, 53
2, 86465, Note_on_c, 0, 70, 63
2, 86507, Note_on_c, 0, 68, 0
2, 86531, Note_on_c, 0, 70, 0
2, 86556, Note_on_c, 0, 55, 0
2, 86576, Note_on_c, 0, 52, 54
2, 86579, Note_on_c, 0, 67, 65
2, 86679, Note_on_c, 0, 67, 0
2, 86681, Note_on_c, 0, 52, 0
2, 86706, Note_on_c, 0, 79, 73
2, 86708, Note_on_c, 0, 48, 57
2, 86785, Note_on_c, 0, 48, 0
2, 86820, Note_on_c, 0, 50, 59
2, 86827, Note_on_c, 0, 70, 63
2, 86890, Note_on_c, 0, 50, 0
2, 86906, Note_on_c, 0, 70, 0
2, 86937, Note_on_c, 0, 52, 58
2, 86941, Note_on_c, 0, 72, 70
2, 87004, Note_on_c, 0, 72, 0
2, 87033, Note_on_c, 0, 52, 0
2, 87041, Note_on_c, 0, 67, 71
2, 87047, Note_on_c, 0, 48, 58
2, 87070, Note_on_c, 0, 67, 0
2, 87140, Note_on_c, 0, 48, 0
2, 87164, Note_on_c, 0, 41, 62
2, 87168, Note_on_c, 0, 68, 79
2, 87212, Note_on_c, 0, 79, 0
2, 87277, Note_on_c, 0, 41, 0
2, 87285, Note_on_c, 0, 76, 74
2, 87287, Note_on_c, 0, 43, 61
2, 87408, Note_on_c, 0, 43, 0
2, 87411, Note_on_c, 0, 44, 69
2, 87411, Note_on_c, 0, 77, 87
2, 87420, Note_on_c, 0, 76, 0
2, 87433, Note_on_c, 0, 68, 0
2, 87515, Note_on_c, 0, 77, 0
2, 87520, Note_on_c, 0, 44, 0
2, 87521, Note_on_c, 0, 46, 72
2, 87521, Note_on_c, 0, 73, 84
2, 87609, Note_on_c, 0, 46, 0
2, 87621, Note_on_c, 0, 73, 0
2, 87633, Note_on_c, 0, 48, 63
2, 87647, Note_on_c, 0, 70, 74
2, 87733, Note_on_c, 0, 48, 0
2, 87743, Note_on_c, 0, 50, 65
2, 87870, Note_on_c, 0, 50, 0
2, 87882, Note_on_c, 0, 52, 69
2, 87888, Note_on_c, 0, 60, 77
2, 87924, Note_on_c, 0, 60, 0
2, 87981, Note_on_c, 0, 52, 0
2, 87997, Note_on_c, 0, 48, 69
2, 88107, Note_on_c, 0, 48, 0
2, 88140, Note_on_c, 0, 61, 80
2, 88146, Note_on_c, 0, 53, 65
2, 88217, Note_on_c, 0, 70, 0
2, 88248, Note_on_c, 0, 61, 0
2, 88255, Note_on_c, 0, 53, 0
2, 88259, Note_on_c, 0, 60, 81
2, 88264, Note_on_c, 0, 51, 71
2, 88366, Note_on_c, 0, 51, 0
2, 88379, Note_on_c, 0, 49, 64
2, 88380, Note_on_c, 0, 58, 83
2, 88383, Note_on_c, 0, 60, 0
2, 88466, Note_on_c, 0, 58, 0
2, 88482, Note_on_c, 0, 49, 0
2, 88484, Note_on_c, 0, 60, 84
2, 88489, Note_on_c, 0, 51, 75
2, 88585, Note_on_c, 0, 60, 0
2, 88593, Note_on_c, 0, 51, 0
2, 88617, Note_on_c, 0, 68, 86
2, 88619, Note_on_c, 0, 53, 66
2, 88741, Note_on_c, 0, 51, 72
2, 88741, Note_on_c, 0, 53, 0
2, 88867, Note_on_c, 0, 65, 76
2, 88873, Note_on_c, 0, 51, 0
2, 88882, Note_on_c, 0, 49, 66
2, 88921, Note_on_c, 0, 65, 0
2, 89005, Note_on_c, 0, 49, 0
2, 89012, Note_on_c, 0, 48, 77
2, 89151, Note_on_c, 0, 60, 77
2, 89157, Note_on_c, 0, 48, 0
2, 89158, Note_on_c, 0, 49, 73
2, 89170, Note_on_c, 0, 68, 0
2, 89412, Note_on_c, 0, 60, 0
2, 89424, Note_on_c, 0, 58, 70
2, 89520, Note_on_c, 0, 58, 0
2, 89540, Note_on_c, 0, 56, 77
2, 89611, Note_on_c, 0, 56, 0
2, 89673, Note_on_c, 0, 58, 67
2, 89677, Note_on_c, 0, 67, 77
2, 89739, Note_on_c, 0, 67, 0
2, 89777, Note_on_c, 0, 48, 66
2, 89803, Note_on_c, 0, 49, 0
2, 89892, Note_on_c, 0, 48, 0
2, 89907, Note_on_c, 0, 46, 66
2, 89911, Note_on_c, 0, 67, 80
2, 89933, Note_on_c, 0, 58, 0
2, 90014, Note_on_c, 0, 46, 0
2, 90020, Note_on_c, 0, 49, 66
2, 90115, Note_on_c, 0, 49, 0
2, 90141, Note_on_c, 0, 67, 0
2, 90144, Note_on_c, 0, 48, 66
2, 90155, Note_on_c, 0, 56, 75
2, 90209, Note_on_c, 0, 56, 0
2, 90253, Note_on_c, 0, 48, 0
2, 90256, Note_on_c, 0, 46, 68
2, 90396, Note_on_c, 0, 46, 0
2, 90396, Note_on_c, 0, 65, 81
2, 90400, Note_on_c, 0, 44, 69
2, 90450, Note_on_c, 0, 65, 0
2, 90487, Note_on_c, 0, 44, 0
2, 90504, Note_on_c, 0, 48, 70
2, 90625, Note_on_c, 0, 48, 0
2, 90631, Note_on_c, 0, 46, 71
2, 90632, Note_on_c, 0, 64, 78
2, 90633, Note_on_c, 0, 55, 61
2, 90666, Note_on_c, 0, 55, 0
2, 90672, Note_on_c, 0, 64, 0
2, 90730, Note_on_c, 0, 46, 0
2, 90736, Note_on_c, 0, 44, 70
2, 90859, Note_on_c, 0, 46, 73
2, 90861, Note_on_c, 0, 44, 0
2, 90867, Note_on_c, 0, 67, 80
2, 90871, Note_on_c, 0, 64, 74
2, 90901, Note_on_c, 0, 64, 0
2, 90916, Note_on_c, 0, 67, 0
2, 90973, Note_on_c, 0, 46, 0
2, 90980, Note_on_c, 0, 43, 77
2, 91110, Note_on_c, 0, 43, 0
2, 91130, Note_on_c, 0, 72, 86
2, 91131, Note_on_c, 0, 44, 75
2, 91132, Note_on_c, 0, 53, 74
2, 91196, Note_on_c, 0, 44, 0
2, 91248, Note_on_c, 0, 70, 76
2, 91250, Note_on_c, 0, 72, 0
2, 91363, Note_on_c, 0, 70, 0
2, 91373, Note_on_c, 0, 68, 74
2, 91375, Note_on_c, 0, 49, 64
2, 91416, Note_on_c, 0, 49, 0
2, 91470, Note_on_c, 0, 68, 0
2, 91488, Note_on_c, 0, 72, 76
2, 91583, Note_on_c, 0, 72, 0
2, 91598, Note_on_c, 0, 43, 63
2, 91605, Note_on_c, 0, 70, 73
2, 91606, Note_on_c, 0, 53, 0
2, 91635, Note_on_c, 0, 43, 0
2, 91714, Note_on_c, 0, 70, 0
2, 91719, Note_on_c, 0, 68, 75
2, 91839, Note_on_c, 0, 68, 0
2, 91847, Note_on_c, 0, 67, 66
2, 91850, Note_on_c, 0, 48, 42
2, 91850, Note_on_c, 0, 52, 55
2, 91880, Note_on_c, 0, 48, 0
2, 91891, Note_on_c, 0, 52, 0
2, 91959, Note_on_c, 0, 67, 0
2, 91966, Note_on_c, 0, 70, 70
2, 92085, Note_on_c, 0, 41, 50
2, 92095, Note_on_c, 0, 68, 64
2, 92098, Note_on_c, 0, 70, 0
2, 92117, Note_on_c, 0, 41, 0
2, 92140, Note_on_c, 0, 53, 3
2, 92170, Note_on_c, 0, 68, 0
2, 92184, Note_on_c, 0, 53, 0
2, 92211, Note_on_c, 0, 65, 60
2, 92300, Note_on_c, 0, 65, 0
2, 92309, Note_on_c, 0, 52, 53
2, 92324, Note_on_c, 0, 46, 38
2, 92330, Note_on_c, 0, 73, 61
2, 92358, Note_on_c, 0, 52, 0
2, 92373, Note_on_c, 0, 46, 0
2, 92427, Note_on_c, 0, 73, 0
2, 92432, Note_on_c, 0, 70, 66
2, 92533, Note_on_c, 0, 70, 0
2, 92563, Note_on_c, 0, 72, 69
2, 92575, Note_on_c, 0, 44, 51
2, 92577, Note_on_c, 0, 53, 57
2, 92614, Note_on_c, 0, 53, 0
2, 92628, Note_on_c, 0, 44, 0
2, 92630, Note_on_c, 0, 72, 0
2, 92674, Note_on_c, 0, 68, 78
2, 92793, Note_on_c, 0, 68, 0
2, 92794, Note_on_c, 0, 78, 85
2, 92802, Note_on_c, 0, 49, 61
2, 92809, Note_on_c, 0, 58, 63
2, 92850, Note_on_c, 0, 49, 0
2, 92874, Note_on_c, 0, 58, 0
2, 92889, Note_on_c, 0, 78, 0
2, 92913, Note_on_c, 0, 76, 86
2, 92969, Note_on_c, 0, 76, 0
2, 93031, Note_on_c, 0, 76, 88
2, 93041, Note_on_c, 0, 56, 65
2, 93042, Note_on_c, 0, 48, 59
2, 93145, Note_on_c, 0, 77, 93
2, 93153, Note_on_c, 0, 76, 0
2, 93257, Note_on_c, 0, 56, 0
2, 93260, Note_on_c, 0, 77, 0
2, 93265, Note_on_c, 0, 55, 68
2, 93273, Note_on_c, 0, 83, 89
2, 93354, Note_on_c, 0, 55, 0
2, 93375, Note_on_c, 0, 83, 0
2, 93389, Note_on_c, 0, 84, 87
2, 93393, Note_on_c, 0, 53, 63
2, 93461, Note_on_c, 0, 84, 0
2, 93486, Note_on_c, 0, 53, 0
2, 93515, Note_on_c, 0, 55, 64
2, 93516, Note_on_c, 0, 77, 71
2, 93548, Note_on_c, 0, 77, 0
2, 93559, Note_on_c, 0, 55, 0
2, 93586, Note_on_c, 0, 76, 65
2, 93617, Note_on_c, 0, 76, 0
2, 93634, Note_on_c, 0, 77, 65
2, 93666, Note_on_c, 0, 77, 0
2, 93694, Note_on_c, 0, 76, 62
2, 93719, Note_on_c, 0, 76, 0
2, 93725, Note_on_c, 0, 77, 74
2, 93753, Note_on_c, 0, 77, 0
2, 93759, Note_on_c, 0, 58, 62
2, 93767, Note_on_c, 0, 48, 0
2, 93777, Note_on_c, 0, 76, 75
2, 93789, Note_on_c, 0, 58, 0
2, 93944, Note_on_c, 0, 76, 0
2, 93957, Note_on_c, 0, 77, 65
2, 94016, Note_on_c, 0, 77, 0
2, 94099, Note_on_c, 0, 56, 39
2, 94117, Note_on_c, 0, 53, 35
2, 94134, Note_on_c, 0, 77, 68
2, 94219, Note_on_c, 0, 56, 0
2, 94226, Note_on_c, 0, 53, 0
2, 94259, Note_on_c, 0, 58, 48
2, 94317, Note_on_c, 0, 58, 0
2, 94372, Note_on_c, 0, 60, 46
2, 94452, Note_on_c, 0, 60, 0
2, 94486, Note_on_c, 0, 56, 49
2, 94532, Note_on_c, 0, 77, 0
2, 94598, Note_on_c, 0, 56, 0
2, 94623, Note_on_c, 0, 53, 55
2, 94691, Note_on_c, 0, 53, 0
2, 94725, Note_on_c, 0, 54, 58
2, 94807, Note_on_c, 0, 54, 0
2, 94851, Note_on_c, 0, 56, 54
2, 94863, Note_on_c, 0, 77, 68
2, 94920, Note_on_c, 0, 77, 0
2, 94948, Note_on_c, 0, 56, 0
2, 94981, Note_on_c, 0, 53, 49
2, 95080, Note_on_c, 0, 53, 0
2, 95113, Note_on_c, 0, 50, 51
2, 95120, Note_on_c, 0, 71, 61
2, 95204, Note_on_c, 0, 50, 0
2, 95226, Note_on_c, 0, 51, 60
2, 95232, Note_on_c, 0, 71, 0
2, 95239, Note_on_c, 0, 70, 67
2, 95293, Note_on_c, 0, 51, 0
2, 95326, Note_on_c, 0, 70, 0
2, 95354, Note_on_c, 0, 68, 72
2, 95358, Note_on_c, 0, 53, 53
2, 95437, Note_on_c, 0, 68, 0
2, 95438, Note_on_c, 0, 53, 0
2, 95472, Note_on_c, 0, 70, 71
2, 95474, Note_on_c, 0, 50, 49
2, 95556, Note_on_c, 0, 70, 0
2, 95564, Note_on_c, 0, 50, 0
2, 95598, Note_on_c, 0, 46, 51
2, 95599, Note_on_c, 0, 77, 75
2, 95636, Note_on_c, 0, 77, 0
2, 95720, Note_on_c, 0, 46, 0
2, 95723, Note_on_c, 0, 50, 49
2, 95838, Note_on_c, 0, 50, 0
2, 95848, Note_on_c, 0, 74, 64
2, 95861, Note_on_c, 0, 53, 51
2, 95893, Note_on_c, 0, 74, 0
2, 95926, Note_on_c, 0, 53, 0
2, 95975, Note_on_c, 0, 58, 55
2, 96070, Note_on_c, 0, 58, 0
2, 96099, Note_on_c, 0, 68, 67
2, 96103, Note_on_c, 0, 51, 56
2, 96211, Note_on_c, 0, 51, 0
2, 96224, Note_on_c, 0, 54, 56
2, 96338, Note_on_c, 0, 68, 0
2, 96343, Note_on_c, 0, 54, 0
2, 96351, Note_on_c, 0, 66, 64
2, 96357, Note_on_c, 0, 58, 54
2, 96418, Note_on_c, 0, 58, 0
2, 96449, Note_on_c, 0, 66, 0
2, 96468, Note_on_c, 0, 65, 68
2, 96472, Note_on_c, 0, 62, 50
2, 96562, Note_on_c, 0, 65, 0
2, 96573, Note_on_c, 0, 62, 0
2, 96593, Note_on_c, 0, 66, 66
2, 96597, Note_on_c, 0, 63, 55
2, 96633, Note_on_c, 0, 66, 0
2, 96684, Note_on_c, 0, 63, 0
2, 96709, Note_on_c, 0, 65, 57
2, 96798, Note_on_c, 0, 65, 0
2, 96825, Note_on_c, 0, 66, 59
2, 96831, Note_on_c, 0, 75, 75
2, 96871, Note_on_c, 0, 75, 0
2, 96913, Note_on_c, 0, 66, 0
2, 96940, Note_on_c, 0, 63, 60
2, 97038, Note_on_c, 0, 63, 0
2, 97066, Note_on_c, 0, 69, 65
2, 97067, Note_on_c, 0, 60, 55
2, 97129, Note_on_c, 0, 60, 0
2, 97189, Note_on_c, 0, 69, 0
2, 97192, Note_on_c, 0, 61, 54
2, 97194, Note_on_c, 0, 68, 75
2, 97249, Note_on_c, 0, 61, 0
2, 97283, Note_on_c, 0, 68, 0
2, 97308, Note_on_c, 0, 66, 75
2, 97313, Note_on_c, 0, 63, 54
2, 97369, Note_on_c, 0, 63, 0
2, 97396, Note_on_c, 0, 66, 0
2, 97421, Note_on_c, 0, 68, 79
2, 97430, Note_on_c, 0, 60, 64
2, 97461, Note_on_c, 0, 60, 0
2, 97550, Note_on_c, 0, 68, 0
2, 97550, Note_on_c, 0, 75, 84
2, 97562, Note_on_c, 0, 56, 68
2, 97608, Note_on_c, 0, 75, 0
2, 97632, Note_on_c, 0, 56, 0
2, 97655, Note_on_c, 0, 44, 66
2, 97772, Note_on_c, 0, 44, 0
2, 97785, Note_on_c, 0, 46, 65
2, 97796, Note_on_c, 0, 72, 76
2, 97819, Note_on_c, 0, 72, 0
2, 97885, Note_on_c, 0, 46, 0
2, 97892, Note_on_c, 0, 48, 73
2, 98033, Note_on_c, 0, 48, 0
2, 98042, Note_on_c, 0, 49, 65
2, 98052, Note_on_c, 0, 66, 60
2, 98175, Note_on_c, 0, 56, 58
2, 98245, Note_on_c, 0, 66, 0
2, 98261, Note_on_c, 0, 56, 0
2, 98297, Note_on_c, 0, 65, 65
2, 98306, Note_on_c, 0, 58, 59
2, 98351, Note_on_c, 0, 58, 0
2, 98378, Note_on_c, 0, 65, 0
2, 98408, Note_on_c, 0, 63, 67
2, 98423, Note_on_c, 0, 60, 63
2, 98467, Note_on_c, 0, 60, 0
2, 98494, Note_on_c, 0, 63, 0
2, 98547, Note_on_c, 0, 65, 60
2, 98550, Note_on_c, 0, 61, 51
2, 98633, Note_on_c, 0, 49, 0
2, 98644, Note_on_c, 0, 61, 0
2, 98650, Note_on_c, 0, 51, 57
2, 98653, Note_on_c, 0, 68, 65
2, 98656, Note_on_c, 0, 65, 0
2, 98684, Note_on_c, 0, 68, 0
2, 98759, Note_on_c, 0, 51, 0
2, 98780, Note_on_c, 0, 53, 57
2, 98785, Note_on_c, 0, 73, 71
2, 98851, Note_on_c, 0, 53, 0
2, 98893, Note_on_c, 0, 75, 80
2, 98894, Note_on_c, 0, 73, 0
2, 98898, Note_on_c, 0, 55, 58
2, 98993, Note_on_c, 0, 75, 0
2, 99003, Note_on_c, 0, 55, 0
2, 99019, Note_on_c, 0, 56, 68
2, 99021, Note_on_c, 0, 77, 86
2, 99129, Note_on_c, 0, 77, 0
2, 99133, Note_on_c, 0, 75, 84
2, 99135, Note_on_c, 0, 56, 0
2, 99144, Note_on_c, 0, 55, 66
2, 99240, Note_on_c, 0, 55, 0
2, 99246, Note_on_c, 0, 73, 79
2, 99246, Note_on_c, 0, 75, 0
2, 99252, Note_on_c, 0, 53, 68
2, 99357, Note_on_c, 0, 75, 84
2, 99361, Note_on_c, 0, 55, 71
2, 99361, Note_on_c, 0, 73, 0
2, 99366, Note_on_c, 0, 53, 0
2, 99408, Note_on_c, 0, 75, 0
2, 99477, Note_on_c, 0, 84, 91
2, 99478, Note_on_c, 0, 72, 72
2, 99494, Note_on_c, 0, 55, 0
2, 99503, Note_on_c, 0, 56, 69
2, 99537, Note_on_c, 0, 84, 0
2, 99610, Note_on_c, 0, 56, 0
2, 99629, Note_on_c, 0, 55, 67
2, 99735, Note_on_c, 0, 80, 85
2, 99744, Note_on_c, 0, 55, 0
2, 99749, Note_on_c, 0, 53, 74
2, 99793, Note_on_c, 0, 80, 0
2, 99854, Note_on_c, 0, 53, 0
2, 99857, Note_on_c, 0, 51, 79
2, 99994, Note_on_c, 0, 51, 0
2, 100009, Note_on_c, 0, 75, 84
2, 100012, Note_on_c, 0, 53, 74
2, 100024, Note_on_c, 0, 72, 0
2, 100283, Note_on_c, 0, 73, 76
2, 100304, Note_on_c, 0, 75, 0
2, 100393, Note_on_c, 0, 73, 0
2, 100399, Note_on_c, 0, 72, 80
2, 100517, Note_on_c, 0, 72, 0
2, 100521, Note_on_c, 0, 73, 78
2, 100524, Note_on_c, 0, 70, 67
2, 100562, Note_on_c, 0, 73, 0
2, 100623, Note_on_c, 0, 53, 0
2, 100634, Note_on_c, 0, 51, 69
2, 100736, Note_on_c, 0, 51, 0
2, 100747, Note_on_c, 0, 49, 67
2, 100751, Note_on_c, 0, 82, 78
2, 100784, Note_on_c, 0, 70, 0
2, 100805, Note_on_c, 0, 82, 0
2, 100833, Note_on_c, 0, 49, 0
2, 100870, Note_on_c, 0, 53, 67
2, 100989, Note_on_c, 0, 53, 0
2, 100995, Note_on_c, 0, 51, 69
2, 100995, Note_on_c, 0, 72, 72
2, 101038, Note_on_c, 0, 72, 0
2, 101093, Note_on_c, 0, 51, 0
2, 101110, Note_on_c, 0, 49, 60
2, 101225, Note_on_c, 0, 49, 0
2, 101240, Note_on_c, 0, 80, 70
2, 101244, Note_on_c, 0, 48, 62
2, 101245, Note_on_c, 0, 68, 64
2, 101277, Note_on_c, 0, 68, 0
2, 101284, Note_on_c, 0, 80, 0
2, 101313, Note_on_c, 0, 48, 0
2, 101354, Note_on_c, 0, 51, 67
2, 101466, Note_on_c, 0, 51, 0
2, 101478, Note_on_c, 0, 70, 67
2, 101480, Note_on_c, 0, 49, 62
2, 101486, Note_on_c, 0, 67, 58
2, 101515, Note_on_c, 0, 70, 0
2, 101523, Note_on_c, 0, 67, 0
2, 101584, Note_on_c, 0, 49, 0
2, 101600, Note_on_c, 0, 48, 61
2, 101690, Note_on_c, 0, 48, 0
2, 101712, Note_on_c, 0, 46, 56
2, 101735, Note_on_c, 0, 79, 66
2, 101738, Note_on_c, 0, 70, 62
2, 101765, Note_on_c, 0, 79, 0
2, 101767, Note_on_c, 0, 70, 0
2, 101815, Note_on_c, 0, 46, 0
2, 101839, Note_on_c, 0, 49, 58
2, 101935, Note_on_c, 0, 49, 0
2, 101981, Note_on_c, 0, 48, 63
2, 101985, Note_on_c, 0, 63, 56
2, 101986, Note_on_c, 0, 68, 61
2, 102011, Note_on_c, 0, 48, 0
2, 102021, Note_on_c, 0, 63, 0
2, 102105, Note_on_c, 0, 63, 62
2, 102196, Note_on_c, 0, 63, 0
2, 102221, Note_on_c, 0, 68, 0
2, 102231, Note_on_c, 0, 65, 66
2, 102233, Note_on_c, 0, 51, 80
2, 102260, Note_on_c, 0, 51, 0
2, 102345, Note_on_c, 0, 65, 0
2, 102346, Note_on_c, 0, 67, 66
2, 102464, Note_on_c, 0, 68, 76
2, 102466, Note_on_c, 0, 67, 0
2, 102468, Note_on_c, 0, 54, 78
2, 102585, Note_on_c, 0, 68, 0
2, 102602, Note_on_c, 0, 70, 67
2, 102726, Note_on_c, 0, 70, 0
2, 102730, Note_on_c, 0, 72, 74
2, 102734, Note_on_c, 0, 56, 71
2, 102793, Note_on_c, 0, 56, 0
2, 102807, Note_on_c, 0, 72, 0
2, 102849, Note_on_c, 0, 68, 74
2, 102946, Note_on_c, 0, 68, 0
2, 102974, Note_on_c, 0, 73, 67
2, 102977, Note_on_c, 0, 58, 80
2, 102997, Note_on_c, 0, 54, 0
2, 103080, Note_on_c, 0, 73, 0
2, 103089, Note_on_c, 0, 58, 0
2, 103089, Note_on_c, 0, 72, 72
2, 103097, Note_on_c, 0, 56, 73
2, 103202, Note_on_c, 0, 56, 0
2, 103219, Note_on_c, 0, 54, 74
2, 103225, Note_on_c, 0, 70, 75
2, 103226, Note_on_c, 0, 72, 0
2, 103331, Note_on_c, 0, 56, 73
2, 103341, Note_on_c, 0, 54, 0
2, 103341, Note_on_c, 0, 70, 0
2, 103344, Note_on_c, 0, 72, 84
2, 103418, Note_on_c, 0, 56, 0
2, 103450, Note_on_c, 0, 72, 0
2, 103466, Note_on_c, 0, 65, 76
2, 103466, Note_on_c, 0, 73, 79
2, 103469, Note_on_c, 0, 53, 72
2, 103524, Note_on_c, 0, 65, 0
2, 103557, Note_on_c, 0, 73, 0
2, 103575, Note_on_c, 0, 72, 80
2, 103678, Note_on_c, 0, 72, 0
2, 103703, Note_on_c, 0, 70, 69
2, 103709, Note_on_c, 0, 61, 74
2, 103738, Note_on_c, 0, 61, 0
2, 103785, Note_on_c, 0, 70, 0
2, 103813, Note_on_c, 0, 68, 69
2, 103935, Note_on_c, 0, 68, 0
2, 103949, Note_on_c, 0, 70, 68
2, 103956, Note_on_c, 0, 56, 69
2, 103959, Note_on_c, 0, 53, 0
2, 104205, Note_on_c, 0, 56, 0
2, 104218, Note_on_c, 0, 54, 66
2, 104297, Note_on_c, 0, 54, 0
2, 104322, Note_on_c, 0, 53, 62
2, 104438, Note_on_c, 0, 53, 0
2, 104438, Note_on_c, 0, 54, 64
2, 104448, Note_on_c, 0, 51, 72
2, 104478, Note_on_c, 0, 54, 0
2, 104578, Note_on_c, 0, 68, 60
2, 104578, Note_on_c, 0, 70, 0
2, 104692, Note_on_c, 0, 68, 0
2, 104698, Note_on_c, 0, 63, 69
2, 104703, Note_on_c, 0, 66, 58
2, 104735, Note_on_c, 0, 63, 0
2, 104808, Note_on_c, 0, 66, 0
2, 104816, Note_on_c, 0, 70, 64
2, 104934, Note_on_c, 0, 51, 0
2, 104936, Note_on_c, 0, 53, 70
2, 104943, Note_on_c, 0, 68, 72
2, 104944, Note_on_c, 0, 70, 0
2, 104970, Note_on_c, 0, 53, 0
2, 105049, Note_on_c, 0, 68, 0
2, 105055, Note_on_c, 0, 66, 65
2, 105156, Note_on_c, 0, 66, 0
2, 105173, Note_on_c, 0, 65, 63
2, 105176, Note_on_c, 0, 61, 61
2, 105179, Note_on_c, 0, 49, 55
2, 105206, Note_on_c, 0, 61, 0
2, 105208, Note_on_c, 0, 49, 0
2, 105255, Note_on_c, 0, 65, 0
2, 105288, Note_on_c, 0, 68, 65
2, 105408, Note_on_c, 0, 51, 60
2, 105410, Note_on_c, 0, 68, 0
2, 105413, Note_on_c, 0, 66, 67
2, 105449, Note_on_c, 0, 51, 0
2, 105519, Note_on_c, 0, 66, 0
2, 105526, Note_on_c, 0, 65, 63
2, 105645, Note_on_c, 0, 44, 52
2, 105658, Note_on_c, 0, 65, 0
2, 105666, Note_on_c, 0, 63, 54
2, 105670, Note_on_c, 0, 60, 48
2, 105688, Note_on_c, 0, 44, 0
2, 105726, Note_on_c, 0, 60, 0
2, 105770, Note_on_c, 0, 66, 60
2, 105771, Note_on_c, 0, 63, 0
2, 105835, Note_on_c, 0, 66, 0
2, 105898, Note_on_c, 0, 65, 60
2, 105904, Note_on_c, 0, 61, 46
2, 105912, Note_on_c, 0, 49, 52
2, 105950, Note_on_c, 0, 65, 0
2, 105951, Note_on_c, 0, 61, 0
2, 105997, Note_on_c, 0, 49, 0
2, 106026, Note_on_c, 0, 51, 58
2, 106107, Note_on_c, 0, 51, 0
2, 106150, Note_on_c, 0, 53, 55
2, 106150, Note_on_c, 0, 68, 64
2, 106193, Note_on_c, 0, 68, 0
2, 106248, Note_on_c, 0, 53, 0
2, 106261, Note_on_c, 0, 54, 60
2, 106363, Note_on_c, 0, 54, 0
2, 106391, Note_on_c, 0, 53, 54
2, 106404, Note_on_c, 0, 73, 60
2, 106462, Note_on_c, 0, 53, 0
2, 106515, Note_on_c, 0, 51, 57
2, 106602, Note_on_c, 0, 51, 0
2, 106630, Note_on_c, 0, 73, 0
2, 106635, Note_on_c, 0, 49, 47
2, 106648, Note_on_c, 0, 80, 61
2, 106711, Note_on_c, 0, 49, 0
2, 106740, Note_on_c, 0, 80, 0
2, 106747, Note_on_c, 0, 53, 55
2, 106755, Note_on_c, 0, 77, 68
2, 106828, Note_on_c, 0, 53, 0
2, 106835, Note_on_c, 0, 77, 0
2, 106876, Note_on_c, 0, 73, 59
2, 106884, Note_on_c, 0, 58, 56
2, 106973, Note_on_c, 0, 58, 0
2, 106990, Note_on_c, 0, 56, 55
2, 107079, Note_on_c, 0, 56, 0
2, 107095, Note_on_c, 0, 73, 0
2, 107119, Note_on_c, 0, 76, 62
2, 107122, Note_on_c, 0, 55, 49
2, 107198, Note_on_c, 0, 55, 0
2, 107229, Note_on_c, 0, 76, 0
2, 107234, Note_on_c, 0, 73, 64
2, 107237, Note_on_c, 0, 58, 56
2, 107315, Note_on_c, 0, 58, 0
2, 107325, Note_on_c, 0, 73, 0
2, 107358, Note_on_c, 0, 70, 61
2, 107361, Note_on_c, 0, 61, 53
2, 107459, Note_on_c, 0, 61, 0
2, 107483, Note_on_c, 0, 59, 56
2, 107574, Note_on_c, 0, 70, 0
2, 107578, Note_on_c, 0, 59, 0
2, 107596, Note_on_c, 0, 73, 61
2, 107603, Note_on_c, 0, 58, 55
2, 107673, Note_on_c, 0, 58, 0
2, 107701, Note_on_c, 0, 70, 66
2, 107704, Note_on_c, 0, 73, 0
2, 107712, Note_on_c, 0, 61, 57
2, 107811, Note_on_c, 0, 61, 0
2, 107822, Note_on_c, 0, 70, 0
2, 107841, Note_on_c, 0, 67, 64
2, 107851, Note_on_c, 0, 64, 54
2, 108088, Note_on_c, 0, 64, 0
2, 108091, Note_on_c, 0, 67, 0
2, 108105, Note_on_c, 0, 70, 66
2, 108107, Note_on_c, 0, 63, 56
2, 108201, Note_on_c, 0, 63, 0
2, 108208, Note_on_c, 0, 73, 78
2, 108216, Note_on_c, 0, 61, 62
2, 108221, Note_on_c, 0, 70, 0
2, 108297, Note_on_c, 0, 61, 0
2, 108324, Note_on_c, 0, 73, 0
2, 108333, Note_on_c, 0, 59, 64
2, 108338, Note_on_c, 0, 76, 78
2, 108404, Note_on_c, 0, 76, 0
2, 108434, Note_on_c, 0, 59, 0
2, 108452, Note_on_c, 0, 58, 67
2, 108559, Note_on_c, 0, 58, 0
2, 108571, Note_on_c, 0, 56, 66
2, 108574, Note_on_c, 0, 73, 78
2, 108633, Note_on_c, 0, 73, 0
2, 108656, Note_on_c, 0, 56, 0
2, 108682, Note_on_c, 0, 55, 64
2, 108805, Note_on_c, 0, 55, 0
2, 108820, Note_on_c, 0, 56, 58
2, 108832, Note_on_c, 0, 71, 61
2, 108833, Note_on_c, 0, 75, 67
2, 108888, Note_on_c, 0, 75, 0
2, 108895, Note_on_c, 0, 56, 0
2, 108929, Note_on_c, 0, 59, 60
2, 109043, Note_on_c, 0, 59, 0
2, 109059, Note_on_c, 0, 58, 64
2, 109060, Note_on_c, 0, 80, 68
2, 109067, Note_on_c, 0, 71, 0
2, 109114, Note_on_c, 0, 80, 0
2, 109149, Note_on_c, 0, 58, 0
2, 109172, Note_on_c, 0, 56, 60
2, 109253, Note_on_c, 0, 56, 0
2, 109291, Note_on_c, 0, 73, 63
2, 109298, Note_on_c, 0, 55, 56
2, 109298, Note_on_c, 0, 70, 56
2, 109354, Note_on_c, 0, 73, 0
2, 109389, Note_on_c, 0, 55, 0
2, 109406, Note_on_c, 0, 53, 61
2, 109519, Note_on_c, 0, 53, 0
2, 109540, Note_on_c, 0, 51, 63
2, 109547, Note_on_c, 0, 79, 66
2, 109559, Note_on_c, 0, 70, 0
2, 109603, Note_on_c, 0, 79, 0
2, 109627, Note_on_c, 0, 51, 0
2, 109650, Note_on_c, 0, 49, 60
2, 109752, Note_on_c, 0, 49, 0
2, 109786, Note_on_c, 0, 68, 63
2, 109791, Note_on_c, 0, 47, 52
2, 109829, Note_on_c, 0, 68, 0
2, 109885, Note_on_c, 0, 47, 0
2, 109888, Note_on_c, 0, 49, 57
2, 109999, Note_on_c, 0, 49, 0
2, 110014, Note_on_c, 0, 51, 67
2, 110029, Note_on_c, 0, 80, 62
2, 110068, Note_on_c, 0, 51, 0
2, 110115, Note_on_c, 0, 80, 0
2, 110127, Note_on_c, 0, 79, 64
2, 110146, Note_on_c, 0, 47, 53
2, 110204, Note_on_c, 0, 47, 0
2, 110251, Note_on_c, 0, 79, 0
2, 110260, Note_on_c, 0, 80, 66
2, 110262, Note_on_c, 0, 44, 57
2, 110295, Note_on_c, 0, 44, 0
2, 110355, Note_on_c, 0, 80, 0
2, 110376, Note_on_c, 0, 82, 75
2, 110460, Note_on_c, 0, 82, 0
2, 110505, Note_on_c, 0, 56, 63
2, 110505, Note_on_c, 0, 83, 76
2, 110595, Note_on_c, 0, 56, 0
2, 110607, Note_on_c, 0, 83, 0
2, 110615, Note_on_c, 0, 80, 77
2, 110620, Note_on_c, 0, 53, 62
2, 110709, Note_on_c, 0, 53, 0
2, 110715, Note_on_c, 0, 80, 0
2, 110730, Note_on_c, 0, 49, 70
2, 110733, Note_on_c, 0, 77, 76
2, 110761, Note_on_c, 0, 49, 0
2, 110818, Note_on_c, 0, 77, 0
2, 110842, Note_on_c, 0, 78, 78
2, 110941, Note_on_c, 0, 78, 0
2, 110962, Note_on_c, 0, 80, 78
2, 110966, Note_on_c, 0, 59, 71
2, 111056, Note_on_c, 0, 59, 0
2, 111068, Note_on_c, 0, 80, 0
2, 111080, Note_on_c, 0, 77, 79
2, 111084, Note_on_c, 0, 56, 61
2, 111162, Note_on_c, 0, 56, 0
2, 111163, Note_on_c, 0, 77, 0
2, 111202, Note_on_c, 0, 53, 69
2, 111210, Note_on_c, 0, 73, 66
2, 111232, Note_on_c, 0, 53, 0
2, 111307, Note_on_c, 0, 73, 0
2, 111315, Note_on_c, 0, 75, 68
2, 111410, Note_on_c, 0, 75, 0
2, 111438, Note_on_c, 0, 77, 62
2, 111447, Note_on_c, 0, 49, 51
2, 111507, Note_on_c, 0, 49, 0
2, 111541, Note_on_c, 0, 46, 51
2, 111546, Note_on_c, 0, 77, 0
2, 111552, Note_on_c, 0, 73, 61
2, 111620, Note_on_c, 0, 73, 0
2, 111625, Note_on_c, 0, 46, 0
2, 111664, Note_on_c, 0, 42, 60
2, 111672, Note_on_c, 0, 70, 51
2, 111704, Note_on_c, 0, 42, 0
2, 111758, Note_on_c, 0, 70, 0
2, 111809, Note_on_c, 0, 72, 32
2, 111895, Note_on_c, 0, 72, 0
2, 111911, Note_on_c, 0, 73, 63
2, 111927, Note_on_c, 0, 58, 59
2, 111971, Note_on_c, 0, 58, 0
2, 111981, Note_on_c, 0, 73, 0
2, 112033, Note_on_c, 0, 70, 68
2, 112042, Note_on_c, 0, 54, 56
2, 112114, Note_on_c, 0, 54, 0
2, 112137, Note_on_c, 0, 70, 0
2, 112139, Note_on_c, 0, 51, 68
2, 112153, Note_on_c, 0, 78, 67
2, 112174, Note_on_c, 0, 51, 0
2, 112250, Note_on_c, 0, 78, 0
2, 112269, Note_on_c, 0, 80, 73
2, 112363, Note_on_c, 0, 80, 0
2, 112378, Note_on_c, 0, 82, 71
2, 112384, Note_on_c, 0, 54, 59
2, 112452, Note_on_c, 0, 54, 0
2, 112479, Note_on_c, 0, 51, 55
2, 112487, Note_on_c, 0, 82, 0
2, 112495, Note_on_c, 0, 78, 69
2, 112568, Note_on_c, 0, 51, 0
2, 112569, Note_on_c, 0, 78, 0
2, 112611, Note_on_c, 0, 75, 59
2, 112612, Note_on_c, 0, 48, 56
2, 112644, Note_on_c, 0, 48, 0
2, 112691, Note_on_c, 0, 75, 0
2, 112720, Note_on_c, 0, 77, 67
2, 112807, Note_on_c, 0, 77, 0
2, 112840, Note_on_c, 0, 78, 67
2, 112860, Note_on_c, 0, 58, 56
2, 112913, Note_on_c, 0, 58, 0
2, 112946, Note_on_c, 0, 78, 0
2, 112950, Note_on_c, 0, 75, 68
2, 112962, Note_on_c, 0, 54, 53
2, 113035, Note_on_c, 0, 75, 0
2, 113047, Note_on_c, 0, 54, 0
2, 113072, Note_on_c, 0, 72, 61
2, 113073, Note_on_c, 0, 51, 62
2, 113102, Note_on_c, 0, 51, 0
2, 113145, Note_on_c, 0, 72, 0
2, 113175, Note_on_c, 0, 73, 59
2, 113258, Note_on_c, 0, 73, 0
2, 113290, Note_on_c, 0, 75, 58
2, 113319, Note_on_c, 0, 48, 46
2, 113378, Note_on_c, 0, 48, 0
2, 113400, Note_on_c, 0, 75, 0
2, 113406, Note_on_c, 0, 72, 61
2, 113412, Note_on_c, 0, 44, 46
2, 113484, Note_on_c, 0, 72, 0
2, 113491, Note_on_c, 0, 44, 0
2, 113523, Note_on_c, 0, 41, 58
2, 113525, Note_on_c, 0, 68, 57
2, 113559, Note_on_c, 0, 41, 0
2, 113623, Note_on_c, 0, 68, 0
2, 113638, Note_on_c, 0, 70, 57
2, 113720, Note_on_c, 0, 70, 0
2, 113745, Note_on_c, 0, 72, 62
2, 113781, Note_on_c, 0, 56, 48
2, 113808, Note_on_c, 0, 72, 0
2, 113832, Note_on_c, 0, 56, 0
2, 113864, Note_on_c, 0, 68, 66
2, 113867, Note_on_c, 0, 53, 50
2, 113946, Note_on_c, 0, 53, 0
2, 113962, Note_on_c, 0, 68, 0
2, 113979, Note_on_c, 0, 50, 55
2, 113983, Note_on_c, 0, 77, 65
2, 114012, Note_on_c, 0, 50, 0
2, 114089, Note_on_c, 0, 77, 0
2, 114108, Note_on_c, 0, 78, 73
2, 114203, Note_on_c, 0, 78, 0
2, 114219, Note_on_c, 0, 80, 67
2, 114234, Note_on_c, 0, 53, 50
2, 114292, Note_on_c, 0, 53, 0
2, 114330, Note_on_c, 0, 77, 69
2, 114331, Note_on_c, 0, 80, 0
2, 114339, Note_on_c, 0, 50, 47
2, 114420, Note_on_c, 0, 50, 0
2, 114420, Note_on_c, 0, 77, 0
2, 114451, Note_on_c, 0, 46, 53
2, 114460, Note_on_c, 0, 74, 57
2, 114485, Note_on_c, 0, 46, 0
2, 114522, Note_on_c, 0, 74, 0
2, 114564, Note_on_c, 0, 75, 61
2, 114653, Note_on_c, 0, 75, 0
2, 114684, Note_on_c, 0, 56, 54
2, 114692, Note_on_c, 0, 77, 53
2, 114738, Note_on_c, 0, 56, 0
2, 114783, Note_on_c, 0, 77, 0
2, 114794, Note_on_c, 0, 74, 61
2, 114802, Note_on_c, 0, 53, 45
2, 114863, Note_on_c, 0, 74, 0
2, 114880, Note_on_c, 0, 53, 0
2, 114916, Note_on_c, 0, 70, 53
2, 114918, Note_on_c, 0, 50, 53
2, 114949, Note_on_c, 0, 50, 0
2, 114986, Note_on_c, 0, 70, 0
2, 115017, Note_on_c, 0, 72, 62
2, 115114, Note_on_c, 0, 72, 0
2, 115147, Note_on_c, 0, 74, 57
2, 115151, Note_on_c, 0, 46, 40
2, 115210, Note_on_c, 0, 46, 0
2, 115245, Note_on_c, 0, 42, 52
2, 115255, Note_on_c, 0, 74, 0
2, 115257, Note_on_c, 0, 70, 57
2, 115335, Note_on_c, 0, 42, 0
2, 115335, Note_on_c, 0, 70, 0
2, 115367, Note_on_c, 0, 39, 50
2, 115370, Note_on_c, 0, 66, 54
2, 115405, Note_on_c, 0, 39, 0
2, 115465, Note_on_c, 0, 66, 0
2, 115485, Note_on_c, 0, 68, 62
2, 115588, Note_on_c, 0, 68, 0
2, 115598, Note_on_c, 0, 54, 52
2, 115605, Note_on_c, 0, 70, 59
2, 115663, Note_on_c, 0, 70, 0
2, 115669, Note_on_c, 0, 54, 0
2, 115707, Note_on_c, 0, 51, 58
2, 115716, Note_on_c, 0, 66, 64
2, 115794, Note_on_c, 0, 51, 0
2, 115827, Note_on_c, 0, 66, 0
2, 115832, Note_on_c, 0, 48, 57
2, 115836, Note_on_c, 0, 75, 66
2, 115869, Note_on_c, 0, 48, 0
2, 115940, Note_on_c, 0, 75, 0
2, 115947, Note_on_c, 0, 77, 75
2, 116053, Note_on_c, 0, 77, 0
2, 116067, Note_on_c, 0, 78, 78
2, 116068, Note_on_c, 0, 51, 70
2, 116141, Note_on_c, 0, 51, 0
2, 116179, Note_on_c, 0, 48, 54
2, 116182, Note_on_c, 0, 75, 76
2, 116197, Note_on_c, 0, 78, 0
2, 116267, Note_on_c, 0, 48, 0
2, 116278, Note_on_c, 0, 75, 0
2, 116297, Note_on_c, 0, 44, 67
2, 116301, Note_on_c, 0, 72, 72
2, 116330, Note_on_c, 0, 44, 0
2, 116405, Note_on_c, 0, 72, 0
2, 116420, Note_on_c, 0, 73, 71
2, 116512, Note_on_c, 0, 73, 0
2, 116539, Note_on_c, 0, 75, 70
2, 116546, Note_on_c, 0, 54, 67
2, 116617, Note_on_c, 0, 54, 0
2, 116633, Note_on_c, 0, 75, 0
2, 116642, Note_on_c, 0, 51, 68
2, 116651, Note_on_c, 0, 72, 67
2, 116733, Note_on_c, 0, 51, 0
2, 116745, Note_on_c, 0, 72, 0
2, 116769, Note_on_c, 0, 48, 67
2, 116772, Note_on_c, 0, 68, 66
2, 116799, Note_on_c, 0, 48, 0
2, 116872, Note_on_c, 0, 68, 0
2, 116878, Note_on_c, 0, 70, 69
2, 116981, Note_on_c, 0, 70, 0
2, 117003, Note_on_c, 0, 72, 73
2, 117013, Note_on_c, 0, 44, 63
2, 117087, Note_on_c, 0, 44, 0
2, 117098, Note_on_c, 0, 41, 68
2, 117116, Note_on_c, 0, 68, 71
2, 117118, Note_on_c, 0, 72, 0
2, 117215, Note_on_c, 0, 68, 0
2, 117218, Note_on_c, 0, 41, 0
2, 117240, Note_on_c, 0, 37, 71
2, 117244, Note_on_c, 0, 65, 69
2, 117328, Note_on_c, 0, 65, 0
2, 117355, Note_on_c, 0, 66, 68
2, 117469, Note_on_c, 0, 66, 0
2, 117477, Note_on_c, 0, 68, 73
2, 117564, Note_on_c, 0, 37, 0
2, 117565, Note_on_c, 0, 68, 0
2, 117589, Note_on_c, 0, 65, 74
2, 117678, Note_on_c, 0, 65, 0
2, 117701, Note_on_c, 0, 61, 71
2, 117800, Note_on_c, 0, 61, 0
2, 117805, Note_on_c, 0, 65, 75
2, 117926, Note_on_c, 0, 68, 77
2, 117928, Note_on_c, 0, 65, 0
2, 118024, Note_on_c, 0, 68, 0
2, 118034, Note_on_c, 0, 70, 81
2, 118128, Note_on_c, 0, 70, 0
2, 118147, Note_on_c, 0, 71, 84
2, 118242, Note_on_c, 0, 71, 0
2, 118256, Note_on_c, 0, 70, 79
2, 118353, Note_on_c, 0, 70, 0
2, 118374, Note_on_c, 0, 68, 82
2, 118377, Note_on_c, 0, 59, 68
2, 118427, Note_on_c, 0, 59, 0
2, 118468, Note_on_c, 0, 68, 0
2, 118472, Note_on_c, 0, 49, 62
2, 118494, Note_on_c, 0, 70, 78
2, 118587, Note_on_c, 0, 49, 0
2, 118603, Note_on_c, 0, 70, 0
2, 118615, Note_on_c, 0, 78, 84
2, 118627, Note_on_c, 0, 58, 69
2, 118649, Note_on_c, 0, 78, 0
2, 118691, Note_on_c, 0, 58, 0
2, 118732, Note_on_c, 0, 49, 61
2, 118840, Note_on_c, 0, 49, 0
2, 118861, Note_on_c, 0, 73, 82
2, 118873, Note_on_c, 0, 56, 66
2, 118905, Note_on_c, 0, 73, 0
2, 118939, Note_on_c, 0, 56, 0
2, 118970, Note_on_c, 0, 49, 61
2, 119092, Note_on_c, 0, 49, 0
2, 119114, Note_on_c, 0, 70, 79
2, 119118, Note_on_c, 0, 54, 66
2, 119192, Note_on_c, 0, 54, 0
2, 119218, Note_on_c, 0, 49, 57
2, 119344, Note_on_c, 0, 68, 71
2, 119346, Note_on_c, 0, 49, 0
2, 119347, Note_on_c, 0, 70, 0
2, 119358, Note_on_c, 0, 53, 61
2, 119438, Note_on_c, 0, 53, 0
2, 119456, Note_on_c, 0, 68, 0
2, 119462, Note_on_c, 0, 66, 72
2, 119463, Note_on_c, 0, 51, 63
2, 119549, Note_on_c, 0, 51, 0
2, 119565, Note_on_c, 0, 66, 0
2, 119584, Note_on_c, 0, 68, 72
2, 119593, Note_on_c, 0, 53, 69
2, 119624, Note_on_c, 0, 53, 0
2, 119657, Note_on_c, 0, 68, 0
2, 119701, Note_on_c, 0, 61, 60
2, 119799, Note_on_c, 0, 61, 0
2, 119823, Note_on_c, 0, 65, 64
2, 119832, Note_on_c, 0, 44, 53
2, 119868, Note_on_c, 0, 44, 0
2, 119909, Note_on_c, 0, 65, 0
2, 119936, Note_on_c, 0, 68, 71
2, 120034, Note_on_c, 0, 68, 0
2, 120061, Note_on_c, 0, 70, 73
2, 120147, Note_on_c, 0, 70, 0
2, 120167, Note_on_c, 0, 68, 74
2, 120266, Note_on_c, 0, 68, 0
2, 120293, Note_on_c, 0, 66, 73
2, 120301, Note_on_c, 0, 58, 70
2, 120353, Note_on_c, 0, 58, 0
2, 120356, Note_on_c, 0, 66, 0
2, 120404, Note_on_c, 0, 49, 60
2, 120407, Note_on_c, 0, 68, 75
2, 120504, Note_on_c, 0, 49, 0
2, 120513, Note_on_c, 0, 68, 0
2, 120527, Note_on_c, 0, 77, 84
2, 120542, Note_on_c, 0, 56, 70
2, 120564, Note_on_c, 0, 77, 0
2, 120606, Note_on_c, 0, 56, 0
2, 120642, Note_on_c, 0, 49, 62
2, 120753, Note_on_c, 0, 49, 0
2, 120770, Note_on_c, 0, 73, 82
2, 120780, Note_on_c, 0, 54, 69
2, 120811, Note_on_c, 0, 73, 0
2, 120859, Note_on_c, 0, 54, 0
2, 120885, Note_on_c, 0, 49, 62
2, 120995, Note_on_c, 0, 49, 0
2, 121017, Note_on_c, 0, 68, 81
2, 121021, Note_on_c, 0, 53, 67
2, 121118, Note_on_c, 0, 53, 0
2, 121134, Note_on_c, 0, 49, 56
2, 121247, Note_on_c, 0, 49, 0
2, 121254, Note_on_c, 0, 51, 68
2, 121257, Note_on_c, 0, 66, 65
2, 121271, Note_on_c, 0, 68, 0
2, 121338, Note_on_c, 0, 51, 0
2, 121355, Note_on_c, 0, 66, 0
2, 121363, Note_on_c, 0, 65, 68
2, 121364, Note_on_c, 0, 49, 61
2, 121452, Note_on_c, 0, 49, 0
2, 121475, Note_on_c, 0, 65, 0
2, 121476, Note_on_c, 0, 51, 68
2, 121483, Note_on_c, 0, 66, 66
2, 121513, Note_on_c, 0, 51, 0
2, 121563, Note_on_c, 0, 66, 0
2, 121593, Note_on_c, 0, 60, 61
2, 121693, Note_on_c, 0, 60, 0
2, 121707, Note_on_c, 0, 44, 57
2, 121716, Note_on_c, 0, 63, 61
2, 121763, Note_on_c, 0, 44, 0
2, 121817, Note_on_c, 0, 63, 0
2, 121833, Note_on_c, 0, 66, 59
2, 121939, Note_on_c, 0, 66, 0
2, 121960, Note_on_c, 0, 68, 66
2, 122052, Note_on_c, 0, 68, 0
2, 122066, Note_on_c, 0, 66, 70
2, 122153, Note_on_c, 0, 66, 0
2, 122182, Note_on_c, 0, 65, 74
2, 122191, Note_on_c, 0, 56, 66
2, 122240, Note_on_c, 0, 56, 0
2, 122263, Note_on_c, 0, 65, 0
2, 122283, Note_on_c, 0, 44, 64
2, 122285, Note_on_c, 0, 66, 74
2, 122376, Note_on_c, 0, 44, 0
2, 122415, Note_on_c, 0, 75, 84
2, 122416, Note_on_c, 0, 66, 0
2, 122421, Note_on_c, 0, 54, 73
2, 122469, Note_on_c, 0, 75, 0
2, 122487, Note_on_c, 0, 54, 0
2, 122533, Note_on_c, 0, 44, 68
2, 122634, Note_on_c, 0, 44, 0
2, 122671, Note_on_c, 0, 72, 78
2, 122675, Note_on_c, 0, 53, 69
2, 122721, Note_on_c, 0, 72, 0
2, 122746, Note_on_c, 0, 53, 0
2, 122781, Note_on_c, 0, 44, 67
2, 122887, Note_on_c, 0, 44, 0
2, 122917, Note_on_c, 0, 51, 66
2, 122924, Note_on_c, 0, 66, 65
2, 122988, Note_on_c, 0, 51, 0
2, 123024, Note_on_c, 0, 44, 62
2, 123137, Note_on_c, 0, 66, 0
2, 123148, Note_on_c, 0, 44, 0
2, 123151, Note_on_c, 0, 49, 55
2, 123153, Note_on_c, 0, 65, 58
2, 123236, Note_on_c, 0, 49, 0
2, 123238, Note_on_c, 0, 65, 0
2, 123258, Note_on_c, 0, 48, 56
2, 123273, Note_on_c, 0, 63, 62
2, 123366, Note_on_c, 0, 63, 0
2, 123370, Note_on_c, 0, 48, 0
2, 123384, Note_on_c, 0, 49, 57
2, 123399, Note_on_c, 0, 65, 61
2, 123472, Note_on_c, 0, 49, 0
2, 123495, Note_on_c, 0, 65, 0
2, 123500, Note_on_c, 0, 44, 56
2, 123509, Note_on_c, 0, 68, 68
2, 123586, Note_on_c, 0, 44, 0
2, 123617, Note_on_c, 0, 68, 0
2, 123617, Note_on_c, 0, 70, 68
2, 123631, Note_on_c, 0, 53, 61
2, 123715, Note_on_c, 0, 53, 0
2, 123716, Note_on_c, 0, 70, 0
2, 123730, Note_on_c, 0, 51, 69
2, 123733, Note_on_c, 0, 72, 77
2, 123821, Note_on_c, 0, 51, 0
2, 123822, Note_on_c, 0, 72, 0
2, 123851, Note_on_c, 0, 53, 63
2, 123851, Note_on_c, 0, 73, 79
2, 123937, Note_on_c, 0, 53, 0
2, 123961, Note_on_c, 0, 73, 0
2, 123966, Note_on_c, 0, 75, 84
2, 123970, Note_on_c, 0, 44, 66
2, 124059, Note_on_c, 0, 44, 0
2, 124084, Note_on_c, 0, 75, 0
2, 124088, Note_on_c, 0, 77, 86
2, 124098, Note_on_c, 0, 56, 69
2, 124194, Note_on_c, 0, 77, 0
2, 124199, Note_on_c, 0, 56, 0
2, 124200, Note_on_c, 0, 75, 86
2, 124209, Note_on_c, 0, 54, 70
2, 124283, Note_on_c, 0, 54, 0
2, 124310, Note_on_c, 0, 75, 0
2, 124318, Note_on_c, 0, 78, 90
2, 124321, Note_on_c, 0, 56, 78
2, 124396, Note_on_c, 0, 56, 0
2, 124414, Note_on_c, 0, 78, 0
2, 124427, Note_on_c, 0, 77, 87
2, 124432, Note_on_c, 0, 44, 69
2, 124509, Note_on_c, 0, 44, 0
2, 124530, Note_on_c, 0, 77, 0
2, 124535, Note_on_c, 0, 75, 87
2, 124543, Note_on_c, 0, 58, 78
2, 124596, Note_on_c, 0, 75, 0
2, 124615, Note_on_c, 0, 58, 0
2, 124640, Note_on_c, 0, 73, 77
2, 124651, Note_on_c, 0, 44, 79
2, 124712, Note_on_c, 0, 44, 0
2, 124753, Note_on_c, 0, 73, 0
2, 124781, Note_on_c, 0, 79, 79
2, 124788, Note_on_c, 0, 60, 80
2, 124889, Note_on_c, 0, 79, 0
2, 124898, Note_on_c, 0, 80, 76
2, 124956, Note_on_c, 0, 60, 0
2, 124963, Note_on_c, 0, 61, 67
2, 124969, Note_on_c, 0, 80, 0
2, 124981, Note_on_c, 0, 82, 69
2, 125008, Note_on_c, 0, 82, 0
2, 125048, Note_on_c, 0, 80, 70
2, 125066, Note_on_c, 0, 61, 0
2, 125083, Note_on_c, 0, 63, 68
2, 125085, Note_on_c, 0, 80, 0
2, 125103, Note_on_c, 0, 82, 66
2, 125151, Note_on_c, 0, 82, 0
2, 125154, Note_on_c, 0, 63, 0
2, 125181, Note_on_c, 0, 80, 69
2, 125183, Note_on_c, 0, 60, 59
2, 125211, Note_on_c, 0, 80, 0
2, 125237, Note_on_c, 0, 82, 72
2, 125262, Note_on_c, 0, 82, 0
2, 125265, Note_on_c, 0, 60, 0
2, 125276, Note_on_c, 0, 56, 72
2, 125295, Note_on_c, 0, 80, 67
2, 125329, Note_on_c, 0, 80, 0
2, 125346, Note_on_c, 0, 82, 75
2, 125373, Note_on_c, 0, 56, 0
2, 125380, Note_on_c, 0, 82, 0
2, 125384, Note_on_c, 0, 60, 69
2, 125419, Note_on_c, 0, 80, 65
2, 125452, Note_on_c, 0, 80, 0
2, 125471, Note_on_c, 0, 82, 70
2, 125476, Note_on_c, 0, 60, 0
2, 125485, Note_on_c, 0, 63, 67
2, 125500, Note_on_c, 0, 82, 0
2, 125533, Note_on_c, 0, 80, 61
2, 125558, Note_on_c, 0, 63, 0
2, 125562, Note_on_c, 0, 80, 0
2, 125575, Note_on_c, 0, 82, 70
2, 125592, Note_on_c, 0, 65, 66
2, 125625, Note_on_c, 0, 82, 0
2, 125635, Note_on_c, 0, 80, 76
2, 125664, Note_on_c, 0, 80, 0
2, 125713, Note_on_c, 0, 65, 0
2, 125722, Note_on_c, 0, 66, 64
2, 125820, Note_on_c, 0, 66, 0
2, 125840, Note_on_c, 0, 80, 67
2, 125846, Note_on_c, 0, 65, 60
2, 125914, Note_on_c, 0, 65, 0
2, 125926, Note_on_c, 0, 80, 0
2, 125959, Note_on_c, 0, 78, 69
2, 125966, Note_on_c, 0, 63, 58
2, 126057, Note_on_c, 0, 78, 0
2, 126063, Note_on_c, 0, 63, 0
2, 126073, Note_on_c, 0, 80, 64
2, 126082, Note_on_c, 0, 65, 55
2, 126135, Note_on_c, 0, 65, 0
2, 126173, Note_on_c, 0, 80, 0
2, 126197, Note_on_c, 0, 77, 66
2, 126207, Note_on_c, 0, 73, 67
2, 126236, Note_on_c, 0, 73, 0
2, 126288, Note_on_c, 0, 77, 0
2, 126317, Note_on_c, 0, 80, 59
2, 126428, Note_on_c, 0, 80, 0
2, 126454, Note_on_c, 0, 68, 65
2, 126461, Note_on_c, 0, 75, 62
2, 126487, Note_on_c, 0, 68, 0
2, 126558, Note_on_c, 0, 75, 0
2, 126571, Note_on_c, 0, 80, 56
2, 126688, Note_on_c, 0, 80, 0
2, 126694, Note_on_c, 0, 65, 63
2, 126700, Note_on_c, 0, 73, 64
2, 126803, Note_on_c, 0, 73, 0
2, 126812, Note_on_c, 0, 80, 58
2, 126909, Note_on_c, 0, 80, 0
2, 126941, Note_on_c, 0, 72, 62
2, 126943, Note_on_c, 0, 63, 59
2, 126943, Note_on_c, 0, 65, 0
2, 127020, Note_on_c, 0, 72, 0
2, 127040, Note_on_c, 0, 63, 0
2, 127053, Note_on_c, 0, 61, 59
2, 127054, Note_on_c, 0, 70, 62
2, 127141, Note_on_c, 0, 70, 0
2, 127161, Note_on_c, 0, 61, 0
2, 127178, Note_on_c, 0, 63, 62
2, 127182, Note_on_c, 0, 72, 57
2, 127256, Note_on_c, 0, 63, 0
2, 127271, Note_on_c, 0, 72, 0
2, 127288, Note_on_c, 0, 56, 59
2, 127295, Note_on_c, 0, 75, 62
2, 127378, Note_on_c, 0, 75, 0
2, 127396, Note_on_c, 0, 56, 0
2, 127411, Note_on_c, 0, 77, 62
2, 127412, Note_on_c, 0, 60, 59
2, 127500, Note_on_c, 0, 77, 0
2, 127512, Note_on_c, 0, 60, 0
2, 127532, Note_on_c, 0, 63, 59
2, 127534, Note_on_c, 0, 78, 65
2, 127611, Note_on_c, 0, 63, 0
2, 127632, Note_on_c, 0, 78, 0
2, 127657, Note_on_c, 0, 65, 59
2, 127658, Note_on_c, 0, 80, 59
2, 127763, Note_on_c, 0, 80, 0
2, 127766, Note_on_c, 0, 65, 0
2, 127769, Note_on_c, 0, 78, 63
2, 127771, Note_on_c, 0, 63, 51
2, 127855, Note_on_c, 0, 78, 0
2, 127866, Note_on_c, 0, 63, 0
2, 127890, Note_on_c, 0, 77, 61
2, 127905, Note_on_c, 0, 61, 55
2, 127993, Note_on_c, 0, 77, 0
2, 127999, Note_on_c, 0, 61, 0
2, 128009, Note_on_c, 0, 63, 58
2, 128023, Note_on_c, 0, 80, 54
2, 128067, Note_on_c, 0, 63, 0
2, 128133, Note_on_c, 0, 80, 0
2, 128145, Note_on_c, 0, 72, 64
2, 128147, Note_on_c, 0, 75, 65
2, 128184, Note_on_c, 0, 72, 0
2, 128206, Note_on_c, 0, 75, 0
2, 128263, Note_on_c, 0, 80, 55
2, 128364, Note_on_c, 0, 80, 0
2, 128383, Note_on_c, 0, 68, 65
2, 128395, Note_on_c, 0, 73, 61
2, 128426, Note_on_c, 0, 68, 0
2, 128497, Note_on_c, 0, 73, 0
2, 128508, Note_on_c, 0, 80, 59
2, 128613, Note_on_c, 0, 80, 0
2, 128638, Note_on_c, 0, 63, 61
2, 128645, Note_on_c, 0, 72, 60
2, 128732, Note_on_c, 0, 72, 0
2, 128784, Note_on_c, 0, 80, 54
2, 128863, Note_on_c, 0, 80, 0
2, 128874, Note_on_c, 0, 63, 0
2, 128886, Note_on_c, 0, 61, 56
2, 128894, Note_on_c, 0, 70, 62
2, 128982, Note_on_c, 0, 70, 0
2, 128985, Note_on_c, 0, 61, 0
2, 129003, Note_on_c, 0, 60, 62
2, 129004, Note_on_c, 0, 68, 59
2, 129099, Note_on_c, 0, 60, 0
2, 129104, Note_on_c, 0, 68, 0
2, 129117, Note_on_c, 0, 70, 66
2, 129118, Note_on_c, 0, 61, 59
2, 129194, Note_on_c, 0, 61, 0
2, 129224, Note_on_c, 0, 56, 53
2, 129225, Note_on_c, 0, 70, 0
2, 129231, Note_on_c, 0, 73, 66
2, 129318, Note_on_c, 0, 73, 0
2, 129325, Note_on_c, 0, 56, 0
2, 129343, Note_on_c, 0, 60, 63
2, 129346, Note_on_c, 0, 75, 72
2, 129445, Note_on_c, 0, 75, 0
2, 129455, Note_on_c, 0, 60, 0
2, 129467, Note_on_c, 0, 77, 70
2, 129468, Note_on_c, 0, 61, 62
2, 129573, Note_on_c, 0, 61, 0
2, 129595, Note_on_c, 0, 63, 58
2, 129598, Note_on_c, 0, 77, 0
2, 129599, Note_on_c, 0, 78, 62
2, 129680, Note_on_c, 0, 78, 0
2, 129684, Note_on_c, 0, 63, 0
2, 129707, Note_on_c, 0, 61, 58
2, 129717, Note_on_c, 0, 77, 63
2, 129802, Note_on_c, 0, 77, 0
2, 129811, Note_on_c, 0, 61, 0
2, 129836, Note_on_c, 0, 75, 60
2, 129847, Note_on_c, 0, 60, 52
2, 129919, Note_on_c, 0, 60, 0
2, 129919, Note_on_c, 0, 75, 0
2, 129948, Note_on_c, 0, 61, 60
2, 129954, Note_on_c, 0, 77, 62
2, 130005, Note_on_c, 0, 61, 0
2, 130016, Note_on_c, 0, 77, 0
2, 130079, Note_on_c, 0, 70, 62
2, 130080, Note_on_c, 0, 73, 57
2, 130112, Note_on_c, 0, 70, 0
2, 130117, Note_on_c, 0, 73, 0
2, 130191, Note_on_c, 0, 75, 61
2, 130293, Note_on_c, 0, 75, 0
2, 130327, Note_on_c, 0, 67, 64
2, 130328, Note_on_c, 0, 72, 58
2, 130359, Note_on_c, 0, 67, 0
2, 130419, Note_on_c, 0, 72, 0
2, 130453, Note_on_c, 0, 75, 57
2, 130549, Note_on_c, 0, 75, 0
2, 130575, Note_on_c, 0, 61, 54
2, 130582, Note_on_c, 0, 70, 56
2, 130671, Note_on_c, 0, 70, 0
2, 130694, Note_on_c, 0, 75, 56
2, 130804, Note_on_c, 0, 61, 0
2, 130814, Note_on_c, 0, 75, 0
2, 130826, Note_on_c, 0, 68, 60
2, 130829, Note_on_c, 0, 60, 60
2, 130903, Note_on_c, 0, 60, 0
2, 130921, Note_on_c, 0, 68, 0
2, 130940, Note_on_c, 0, 67, 64
2, 130944, Note_on_c, 0, 58, 61
2, 131026, Note_on_c, 0, 67, 0
2, 131036, Note_on_c, 0, 58, 0
2, 131060, Note_on_c, 0, 68, 67
2, 131069, Note_on_c, 0, 60, 61
2, 131140, Note_on_c, 0, 68, 0
2, 131169, Note_on_c, 0, 60, 0
2, 131177, Note_on_c, 0, 56, 60
2, 131181, Note_on_c, 0, 72, 72
2, 131297, Note_on_c, 0, 72, 0
2, 131300, Note_on_c, 0, 73, 74
2, 131303, Note_on_c, 0, 56, 0
2, 131306, Note_on_c, 0, 58, 64
2, 131373, Note_on_c, 0, 58, 0
2, 131404, Note_on_c, 0, 60, 61
2, 131413, Note_on_c, 0, 75, 80
2, 131427, Note_on_c, 0, 73, 0
2, 131527, Note_on_c, 0, 60, 0
2, 131532, Note_on_c, 0, 77, 85
2, 131537, Note_on_c, 0, 75, 0
2, 131538, Note_on_c, 0, 61, 65
2, 131631, Note_on_c, 0, 77, 0
2, 131652, Note_on_c, 0, 61, 0
2, 131653, Note_on_c, 0, 63, 68
2, 131653, Note_on_c, 0, 77, 74
2, 131741, Note_on_c, 0, 63, 0
2, 131742, Note_on_c, 0, 77, 0
2, 131775, Note_on_c, 0, 65, 68
2, 131784, Note_on_c, 0, 80, 85
2, 131809, Note_on_c, 0, 80, 0
2, 131865, Note_on_c, 0, 65, 0
2, 131886, Note_on_c, 0, 63, 61
2, 131915, Note_on_c, 0, 82, 87
2, 131970, Note_on_c, 0, 82, 0
2, 132004, Note_on_c, 0, 63, 0
2, 132023, Note_on_c, 0, 66, 61
2, 132032, Note_on_c, 0, 72, 79
2, 132053, Note_on_c, 0, 72, 0
2, 132154, Note_on_c, 0, 65, 62
2, 132195, Note_on_c, 0, 66, 0
2, 132242, Note_on_c, 0, 65, 0
2, 132266, Note_on_c, 0, 68, 74
2, 132279, Note_on_c, 0, 63, 66
2, 132297, Note_on_c, 0, 68, 0
2, 132371, Note_on_c, 0, 63, 0
2, 132388, Note_on_c, 0, 61, 64
2, 132481, Note_on_c, 0, 61, 0
2, 132516, Note_on_c, 0, 66, 71
2, 132519, Note_on_c, 0, 70, 73
2, 132548, Note_on_c, 0, 66, 0
2, 132612, Note_on_c, 0, 70, 0
2, 132628, Note_on_c, 0, 68, 72
2, 132716, Note_on_c, 0, 68, 0
2, 132746, Note_on_c, 0, 58, 58
2, 132753, Note_on_c, 0, 66, 67
2, 132814, Note_on_c, 0, 66, 0
2, 132852, Note_on_c, 0, 58, 0
2, 132865, Note_on_c, 0, 68, 76
2, 132868, Note_on_c, 0, 60, 70
2, 132940, Note_on_c, 0, 68, 0
2, 132973, Note_on_c, 0, 60, 0
2, 132997, Note_on_c, 0, 77, 84
2, 133000, Note_on_c, 0, 61, 66
2, 133036, Note_on_c, 0, 77, 0
2, 133067, Note_on_c, 0, 61, 0
2, 133095, Note_on_c, 0, 60, 66
2, 133226, Note_on_c, 0, 60, 0
2, 133244, Note_on_c, 0, 58, 68
2, 133246, Note_on_c, 0, 73, 86
2, 133292, Note_on_c, 0, 73, 0
2, 133370, Note_on_c, 0, 58, 0
2, 133374, Note_on_c, 0, 56, 75
2, 133509, Note_on_c, 0, 56, 0
2, 133519, Note_on_c, 0, 68, 78
2, 133525, Note_on_c, 0, 58, 68
2, 133777, Note_on_c, 0, 68, 0
2, 133786, Note_on_c, 0, 66, 66
2, 133886, Note_on_c, 0, 66, 0
2, 133901, Note_on_c, 0, 65, 70
2, 134012, Note_on_c, 0, 65, 0
2, 134021, Note_on_c, 0, 66, 76
2, 134085, Note_on_c, 0, 66, 0
2, 134142, Note_on_c, 0, 58, 0
2, 134143, Note_on_c, 0, 56, 73
2, 134263, Note_on_c, 0, 56, 0
2, 134279, Note_on_c, 0, 75, 82
2, 134280, Note_on_c, 0, 54, 72
2, 134336, Note_on_c, 0, 75, 0
2, 134381, Note_on_c, 0, 54, 0
2, 134403, Note_on_c, 0, 58, 72
2, 134520, Note_on_c, 0, 58, 0
2, 134527, Note_on_c, 0, 56, 67
2, 134529, Note_on_c, 0, 65, 71
2, 134575, Note_on_c, 0, 65, 0
2, 134629, Note_on_c, 0, 56, 0
2, 134640, Note_on_c, 0, 54, 70
2, 134748, Note_on_c, 0, 54, 0
2, 134767, Note_on_c, 0, 53, 67
2, 134776, Note_on_c, 0, 73, 71
2, 134822, Note_on_c, 0, 73, 0
2, 134863, Note_on_c, 0, 53, 0
2, 134890, Note_on_c, 0, 56, 63
2, 135010, Note_on_c, 0, 56, 0
2, 135022, Note_on_c, 0, 54, 63
2, 135025, Note_on_c, 0, 63, 62
2, 135069, Note_on_c, 0, 63, 0
2, 135100, Note_on_c, 0, 54, 0
2, 135129, Note_on_c, 0, 53, 58
2, 135238, Note_on_c, 0, 53, 0
2, 135247, Note_on_c, 0, 54, 61
2, 135269, Note_on_c, 0, 72, 64
2, 135326, Note_on_c, 0, 72, 0
2, 135330, Note_on_c, 0, 54, 0
2, 135375, Note_on_c, 0, 51, 58
2, 135486, Note_on_c, 0, 51, 0
2, 135532, Note_on_c, 0, 53, 50
2, 135532, Note_on_c, 0, 61, 50
2, 135577, Note_on_c, 0, 61, 0
2, 135801, Note_on_c, 0, 73, 61
2, 135900, Note_on_c, 0, 73, 0
2, 135901, Note_on_c, 0, 56, 57
2, 135903, Note_on_c, 0, 53, 0
2, 135914, Note_on_c, 0, 72, 61
2, 136015, Note_on_c, 0, 72, 0
2, 136029, Note_on_c, 0, 73, 66
2, 136032, Note_on_c, 0, 56, 0
2, 136036, Note_on_c, 0, 58, 66
2, 136116, Note_on_c, 0, 58, 0
2, 136143, Note_on_c, 0, 73, 0
2, 136144, Note_on_c, 0, 75, 67
2, 136149, Note_on_c, 0, 60, 59
2, 136219, Note_on_c, 0, 75, 0
2, 136249, Note_on_c, 0, 60, 0
2, 136266, Note_on_c, 0, 61, 61
2, 136267, Note_on_c, 0, 77, 62
2, 136389, Note_on_c, 0, 77, 0
2, 136400, Note_on_c, 0, 63, 58
2, 136400, Note_on_c, 0, 78, 65
2, 136519, Note_on_c, 0, 63, 0
2, 136519, Note_on_c, 0, 78, 0
2, 136521, Note_on_c, 0, 80, 70
2, 136522, Note_on_c, 0, 65, 62
2, 136524, Note_on_c, 0, 61, 0
2, 136634, Note_on_c, 0, 65, 0
2, 136637, Note_on_c, 0, 78, 76
2, 136639, Note_on_c, 0, 63, 68
2, 136640, Note_on_c, 0, 80, 0
2, 136740, Note_on_c, 0, 63, 0
2, 136747, Note_on_c, 0, 78, 0
2, 136758, Note_on_c, 0, 77, 77
2, 136762, Note_on_c, 0, 61, 69
2, 136870, Note_on_c, 0, 63, 69
2, 136873, Note_on_c, 0, 78, 83
2, 136877, Note_on_c, 0, 77, 0
2, 136882, Note_on_c, 0, 61, 0
2, 136952, Note_on_c, 0, 63, 0
2, 137000, Note_on_c, 0, 80, 84
2, 137004, Note_on_c, 0, 72, 83
2, 137008, Note_on_c, 0, 60, 73
2, 137008, Note_on_c, 0, 78, 0
2, 137057, Note_on_c, 0, 72, 0
2, 137124, Note_on_c, 0, 78, 87
2, 137137, Note_on_c, 0, 80, 0
2, 137234, Note_on_c, 0, 78, 0
2, 137253, Note_on_c, 0, 77, 78
2, 137254, Note_on_c, 0, 68, 76
2, 137283, Note_on_c, 0, 68, 0
2, 137369, Note_on_c, 0, 77, 0
2, 137374, Note_on_c, 0, 60, 0
2, 137374, Note_on_c, 0, 60, 15
2, 137376, Note_on_c, 0, 75, 74
2, 137500, Note_on_c, 0, 63, 71
2, 137508, Note_on_c, 0, 60, 0
2, 137513, Note_on_c, 0, 77, 76
2, 137516, Note_on_c, 0, 75, 0
2, 137766, Note_on_c, 0, 61, 68
2, 137766, Note_on_c, 0, 63, 0
2, 137849, Note_on_c, 0, 61, 0
2, 137870, Note_on_c, 0, 60, 64
2, 137976, Note_on_c, 0, 60, 0
2, 138002, Note_on_c, 0, 61, 63
2, 138008, Note_on_c, 0, 58, 67
2, 138043, Note_on_c, 0, 61, 0
2, 138132, Note_on_c, 0, 75, 68
2, 138157, Note_on_c, 0, 77, 0
2, 138250, Note_on_c, 0, 73, 69
2, 138251, Note_on_c, 0, 75, 0
2, 138253, Note_on_c, 0, 70, 75
2, 138294, Note_on_c, 0, 70, 0
2, 138367, Note_on_c, 0, 73, 0
2, 138369, Note_on_c, 0, 77, 76
2, 138488, Note_on_c, 0, 60, 79
2, 138491, Note_on_c, 0, 77, 0
2, 138492, Note_on_c, 0, 75, 74
2, 138495, Note_on_c, 0, 58, 0
2, 138525, Note_on_c, 0, 60, 0
2, 138603, Note_on_c, 0, 73, 67
2, 138609, Note_on_c, 0, 75, 0
2, 138715, Note_on_c, 0, 73, 0
2, 138736, Note_on_c, 0, 72, 68
2, 138739, Note_on_c, 0, 68, 68
2, 138756, Note_on_c, 0, 56, 45
2, 138770, Note_on_c, 0, 68, 0
2, 138783, Note_on_c, 0, 56, 0
2, 138820, Note_on_c, 0, 72, 0
2, 138852, Note_on_c, 0, 75, 69
2, 138976, Note_on_c, 0, 58, 59
2, 138980, Note_on_c, 0, 73, 70
2, 138980, Note_on_c, 0, 75, 0
2, 139014, Note_on_c, 0, 58, 0
2, 139081, Note_on_c, 0, 73, 0
2, 139087, Note_on_c, 0, 72, 70
2, 139204, Note_on_c, 0, 72, 0
2, 139205, Note_on_c, 0, 51, 59
2, 139210, Note_on_c, 0, 73, 65
2, 139218, Note_on_c, 0, 67, 51
2, 139251, Note_on_c, 0, 51, 0
2, 139269, Note_on_c, 0, 67, 0
2, 139323, Note_on_c, 0, 73, 0
2, 139329, Note_on_c, 0, 70, 63
2, 139455, Note_on_c, 0, 70, 0
2, 139465, Note_on_c, 0, 56, 46
2, 139474, Note_on_c, 0, 72, 61
2, 139549, Note_on_c, 0, 72, 0
2, 139721, Note_on_c, 0, 75, 70
2, 139726, Note_on_c, 0, 68, 59
2, 139761, Note_on_c, 0, 56, 0
2, 139761, Note_on_c, 0, 68, 0
2, 139834, Note_on_c, 0, 66, 73
2, 139840, Note_on_c, 0, 75, 0
2, 139919, Note_on_c, 0, 66, 0
2, 139956, Note_on_c, 0, 78, 81
2, 139961, Note_on_c, 0, 68, 74
2, 140001, Note_on_c, 0, 68, 0
2, 140081, Note_on_c, 0, 70, 67
2, 140145, Note_on_c, 0, 70, 0
2, 140199, Note_on_c, 0, 56, 75
2, 140214, Note_on_c, 0, 72, 73
2, 140254, Note_on_c, 0, 56, 0
2, 140292, Note_on_c, 0, 72, 0
2, 140329, Note_on_c, 0, 68, 73
2, 140405, Note_on_c, 0, 68, 0
2, 140446, Note_on_c, 0, 58, 82
2, 140452, Note_on_c, 0, 73, 68
2, 140553, Note_on_c, 0, 73, 0
2, 140560, Note_on_c, 0, 58, 0
2, 140561, Note_on_c, 0, 72, 74
2, 140564, Note_on_c, 0, 56, 77
2, 140653, Note_on_c, 0, 56, 0
2, 140669, Note_on_c, 0, 72, 0
2, 140680, Note_on_c, 0, 54, 77
2, 140688, Note_on_c, 0, 70, 76
2, 140741, Note_on_c, 0, 78, 0
2, 140763, Note_on_c, 0, 70, 0
2, 140764, Note_on_c, 0, 54, 0
2, 140781, Note_on_c, 0, 56, 79
2, 140786, Note_on_c, 0, 72, 83
2, 140842, Note_on_c, 0, 56, 0
2, 140888, Note_on_c, 0, 72, 0
2, 140905, Note_on_c, 0, 73, 76
2, 140905, Note_on_c, 0, 77, 91
2, 140910, Note_on_c, 0, 65, 82
2, 140952, Note_on_c, 0, 73, 0
2, 140977, Note_on_c, 0, 65, 0
2, 141021, Note_on_c, 0, 72, 76
2, 141090, Note_on_c, 0, 72, 0
2, 141148, Note_on_c, 0, 61, 80
2, 141160, Note_on_c, 0, 70, 78
2, 141181, Note_on_c, 0, 61, 0
2, 141233, Note_on_c, 0, 70, 0
2, 141264, Note_on_c, 0, 68, 75
2, 141366, Note_on_c, 0, 68, 0
2, 141409, Note_on_c, 0, 56, 78
2, 141414, Note_on_c, 0, 70, 79
2, 141444, Note_on_c, 0, 77, 0
2, 141660, Note_on_c, 0, 56, 0
2, 141668, Note_on_c, 0, 54, 69
2, 141772, Note_on_c, 0, 54, 0
2, 141784, Note_on_c, 0, 53, 73
2, 141865, Note_on_c, 0, 53, 0
2, 141897, Note_on_c, 0, 70, 0
2, 141899, Note_on_c, 0, 75, 76
2, 141906, Note_on_c, 0, 54, 78
2, 141944, Note_on_c, 0, 54, 0
2, 142015, Note_on_c, 0, 68, 71
2, 142120, Note_on_c, 0, 68, 0
2, 142147, Note_on_c, 0, 63, 69
2, 142147, Note_on_c, 0, 66, 65
2, 142189, Note_on_c, 0, 63, 0
2, 142224, Note_on_c, 0, 66, 0
2, 142253, Note_on_c, 0, 70, 66
2, 142359, Note_on_c, 0, 70, 0
2, 142377, Note_on_c, 0, 68, 70
2, 142379, Note_on_c, 0, 53, 70
2, 142414, Note_on_c, 0, 53, 0
2, 142454, Note_on_c, 0, 68, 0
2, 142496, Note_on_c, 0, 66, 61
2, 142514, Note_on_c, 0, 75, 0
2, 142597, Note_on_c, 0, 66, 0
2, 142612, Note_on_c, 0, 65, 63
2, 142613, Note_on_c, 0, 73, 64
2, 142622, Note_on_c, 0, 61, 62
2, 142655, Note_on_c, 0, 65, 0
2, 142661, Note_on_c, 0, 61, 0
2, 142720, Note_on_c, 0, 68, 70
2, 142729, Note_on_c, 0, 73, 0
2, 142835, Note_on_c, 0, 51, 59
2, 142835, Note_on_c, 0, 68, 0
2, 142839, Note_on_c, 0, 66, 60
2, 142842, Note_on_c, 0, 72, 67
2, 142874, Note_on_c, 0, 51, 0
2, 142882, Note_on_c, 0, 66, 0
2, 142900, Note_on_c, 0, 72, 0
2, 142942, Note_on_c, 0, 65, 66
2, 143000, Note_on_c, 0, 65, 0
2, 143072, Note_on_c, 0, 66, 63
2, 143080, Note_on_c, 0, 75, 70
2, 143084, Note_on_c, 0, 60, 56
2, 143105, Note_on_c, 0, 66, 0
2, 143119, Note_on_c, 0, 60, 0
2, 143202, Note_on_c, 0, 63, 54
2, 143245, Note_on_c, 0, 63, 0
2, 143349, Note_on_c, 0, 49, 44
2, 143349, Note_on_c, 0, 65, 65
2, 143367, Note_on_c, 0, 75, 0
2, 143432, Note_on_c, 0, 49, 0
2, 143462, Note_on_c, 0, 44, 52
2, 143586, Note_on_c, 0, 44, 0
2, 143596, Note_on_c, 0, 68, 64
2, 143602, Note_on_c, 0, 49, 49
2, 143714, Note_on_c, 0, 49, 0
2, 143725, Note_on_c, 0, 51, 58
2, 143799, Note_on_c, 0, 51, 0
2, 143842, Note_on_c, 0, 73, 69
2, 143858, Note_on_c, 0, 53, 52
2, 143942, Note_on_c, 0, 53, 0
2, 143963, Note_on_c, 0, 54, 51
2, 144083, Note_on_c, 0, 54, 0
2, 144084, Note_on_c, 0, 65, 0
2, 144089, Note_on_c, 0, 71, 69
2, 144098, Note_on_c, 0, 56, 52
2, 144102, Note_on_c, 0, 73, 0
2, 144150, Note_on_c, 0, 68, 0
2, 144174, Note_on_c, 0, 56, 0
2, 144212, Note_on_c, 0, 53, 57
2, 144259, Note_on_c, 0, 53, 0
2, 144338, Note_on_c, 0, 54, 52
2, 144338, Note_on_c, 0, 70, 68
2, 144366, Note_on_c, 0, 71, 0
2, 144416, Note_on_c, 0, 54, 0
2, 144453, Note_on_c, 0, 42, 59
2, 144534, Note_on_c, 0, 42, 0
2, 144592, Note_on_c, 0, 61, 64
2, 144594, Note_on_c, 0, 54, 56
2, 144659, Note_on_c, 0, 54, 0
2, 144708, Note_on_c, 0, 53, 59
2, 144829, Note_on_c, 0, 53, 0
2, 144847, Note_on_c, 0, 54, 60
2, 144850, Note_on_c, 0, 66, 59
2, 144944, Note_on_c, 0, 54, 0
2, 144967, Note_on_c, 0, 56, 57
2, 145052, Note_on_c, 0, 56, 0
2, 145082, Note_on_c, 0, 66, 0
2, 145086, Note_on_c, 0, 65, 65
2, 145093, Note_on_c, 0, 58, 52
2, 145183, Note_on_c, 0, 58, 0
2, 145202, Note_on_c, 0, 54, 53
2, 145301, Note_on_c, 0, 54, 0
2, 145317, Note_on_c, 0, 70, 0
2, 145320, Note_on_c, 0, 65, 0
2, 145321, Note_on_c, 0, 66, 63
2, 145324, Note_on_c, 0, 51, 57
2, 145398, Note_on_c, 0, 51, 0
2, 145422, Note_on_c, 0, 61, 0
2, 145448, Note_on_c, 0, 53, 47
2, 145507, Note_on_c, 0, 53, 0
2, 145560, Note_on_c, 0, 54, 53
2, 145581, Note_on_c, 0, 66, 0
2, 145584, Note_on_c, 0, 70, 69
2, 145655, Note_on_c, 0, 54, 0
2, 145683, Note_on_c, 0, 51, 57
2, 145694, Note_on_c, 0, 70, 0
2, 145699, Note_on_c, 0, 66, 68
2, 145777, Note_on_c, 0, 51, 0
2, 145790, Note_on_c, 0, 66, 0
2, 145811, Note_on_c, 0, 48, 53
2, 145814, Note_on_c, 0, 63, 64
2, 145876, Note_on_c, 0, 48, 0
2, 145916, Note_on_c, 0, 49, 55
2, 146003, Note_on_c, 0, 49, 0
2, 146010, Note_on_c, 0, 63, 0
2, 146047, Note_on_c, 0, 51, 58
2, 146049, Note_on_c, 0, 66, 58
2, 146099, Note_on_c, 0, 51, 0
2, 146152, Note_on_c, 0, 48, 49
2, 146159, Note_on_c, 0, 66, 0
2, 146165, Note_on_c, 0, 63, 59
2, 146246, Note_on_c, 0, 48, 0
2, 146268, Note_on_c, 0, 63, 0
2, 146293, Note_on_c, 0, 41, 51
2, 146296, Note_on_c, 0, 56, 59
2, 146352, Note_on_c, 0, 41, 0
2, 146552, Note_on_c, 0, 53, 42
2, 146564, Note_on_c, 0, 63, 60
2, 146614, Note_on_c, 0, 63, 0
2, 146642, Note_on_c, 0, 53, 0
2, 146666, Note_on_c, 0, 51, 54
2, 146782, Note_on_c, 0, 51, 0
2, 146794, Note_on_c, 0, 56, 0
2, 146806, Note_on_c, 0, 68, 69
2, 146807, Note_on_c, 0, 53, 54
2, 146900, Note_on_c, 0, 53, 0
2, 146924, Note_on_c, 0, 54, 59
2, 147027, Note_on_c, 0, 54, 0
2, 147059, Note_on_c, 0, 56, 51
2, 147067, Note_on_c, 0, 60, 62
2, 147134, Note_on_c, 0, 60, 0
2, 147153, Note_on_c, 0, 56, 0
2, 147184, Note_on_c, 0, 53, 48
2, 147284, Note_on_c, 0, 53, 0
2, 147317, Note_on_c, 0, 50, 49
2, 147343, Note_on_c, 0, 65, 58
2, 147352, Note_on_c, 0, 68, 0
2, 147410, Note_on_c, 0, 50, 0
2, 147437, Note_on_c, 0, 51, 57
2, 147515, Note_on_c, 0, 51, 0
2, 147578, Note_on_c, 0, 53, 52
2, 147582, Note_on_c, 0, 65, 0
2, 147584, Note_on_c, 0, 68, 67
2, 147668, Note_on_c, 0, 53, 0
2, 147686, Note_on_c, 0, 68, 0
2, 147694, Note_on_c, 0, 65, 73
2, 147697, Note_on_c, 0, 50, 46
2, 147782, Note_on_c, 0, 65, 0
2, 147793, Note_on_c, 0, 50, 0
2, 147809, Note_on_c, 0, 62, 68
2, 147817, Note_on_c, 0, 46, 57
2, 147904, Note_on_c, 0, 46, 0
2, 147936, Note_on_c, 0, 48, 58
2, 147995, Note_on_c, 0, 48, 0
2, 148053, Note_on_c, 0, 50, 56
2, 148060, Note_on_c, 0, 65, 66
2, 148065, Note_on_c, 0, 62, 0
2, 148135, Note_on_c, 0, 50, 0
2, 148165, Note_on_c, 0, 46, 53
2, 148168, Note_on_c, 0, 65, 0
2, 148172, Note_on_c, 0, 62, 70
2, 148254, Note_on_c, 0, 62, 0
2, 148261, Note_on_c, 0, 46, 0
2, 148301, Note_on_c, 0, 39, 55
2, 148301, Note_on_c, 0, 54, 68
2, 148352, Note_on_c, 0, 39, 0
2, 148552, Note_on_c, 0, 58, 67
2, 148555, Note_on_c, 0, 51, 60
2, 148610, Note_on_c, 0, 58, 0
2, 148646, Note_on_c, 0, 51, 0
2, 148679, Note_on_c, 0, 50, 54
2, 148793, Note_on_c, 0, 50, 0
2, 148810, Note_on_c, 0, 51, 56
2, 148814, Note_on_c, 0, 54, 0
2, 148828, Note_on_c, 0, 66, 66
2, 148907, Note_on_c, 0, 51, 0
2, 148945, Note_on_c, 0, 53, 55
2, 149033, Note_on_c, 0, 53, 0
2, 149077, Note_on_c, 0, 54, 48
2, 149079, Note_on_c, 0, 58, 58
2, 149127, Note_on_c, 0, 58, 0
2, 149157, Note_on_c, 0, 54, 0
2, 149189, Note_on_c, 0, 51, 54
2, 149287, Note_on_c, 0, 51, 0
2, 149320, Note_on_c, 0, 63, 55
2, 149325, Note_on_c, 0, 48, 37
2, 149335, Note_on_c, 0, 66, 0
2, 149397, Note_on_c, 0, 48, 0
2, 149450, Note_on_c, 0, 49, 51
2, 149451, Note_on_c, 0, 65, 64
2, 149531, Note_on_c, 0, 49, 0
2, 149571, Note_on_c, 0, 51, 65
2, 149571, Note_on_c, 0, 63, 0
2, 149571, Note_on_c, 0, 66, 72
2, 149596, Note_on_c, 0, 65, 0
2, 149646, Note_on_c, 0, 66, 0
2, 149651, Note_on_c, 0, 51, 0
2, 149674, Note_on_c, 0, 48, 61
2, 149683, Note_on_c, 0, 63, 81
2, 149788, Note_on_c, 0, 48, 0
2, 149795, Note_on_c, 0, 63, 0
2, 149802, Note_on_c, 0, 44, 67
2, 149812, Note_on_c, 0, 75, 87
2, 149923, Note_on_c, 0, 66, 79
2, 149924, Note_on_c, 0, 44, 0
2, 149932, Note_on_c, 0, 46, 67
2, 149989, Note_on_c, 0, 46, 0
2, 150023, Note_on_c, 0, 66, 0
2, 150040, Note_on_c, 0, 68, 76
2, 150041, Note_on_c, 0, 48, 63
2, 150118, Note_on_c, 0, 68, 0
2, 150141, Note_on_c, 0, 48, 0
2, 150156, Note_on_c, 0, 63, 76
2, 150159, Note_on_c, 0, 44, 66
2, 150228, Note_on_c, 0, 63, 0
2, 150246, Note_on_c, 0, 44, 0
2, 150291, Note_on_c, 0, 37, 76
2, 150295, Note_on_c, 0, 65, 77
2, 150328, Note_on_c, 0, 37, 0
2, 150415, Note_on_c, 0, 73, 73
2, 150421, Note_on_c, 0, 75, 0
2, 150528, Note_on_c, 0, 73, 0
2, 150537, Note_on_c, 0, 72, 77
2, 150543, Note_on_c, 0, 49, 70
2, 150629, Note_on_c, 0, 65, 0
2, 150637, Note_on_c, 0, 49, 0
2, 150641, Note_on_c, 0, 72, 0
2, 150650, Note_on_c, 0, 75, 86
2, 150651, Note_on_c, 0, 51, 81
2, 150727, Note_on_c, 0, 51, 0
2, 150767, Note_on_c, 0, 73, 78
2, 150767, Note_on_c, 0, 75, 0
2, 150769, Note_on_c, 0, 53, 86
2, 150800, Note_on_c, 0, 53, 0
2, 150887, Note_on_c, 0, 73, 0
2, 150891, Note_on_c, 0, 68, 78
2, 151029, Note_on_c, 0, 68, 0
2, 151030, Note_on_c, 0, 61, 80
2, 151030, Note_on_c, 0, 70, 74
2, 151036, Note_on_c, 0, 49, 70
2, 151079, Note_on_c, 0, 49, 0
2, 151140, Note_on_c, 0, 70, 0
2, 151152, Note_on_c, 0, 71, 78
2, 151261, Note_on_c, 0, 61, 0
2, 151267, Note_on_c, 0, 54, 70
2, 151270, Note_on_c, 0, 71, 0
2, 151272, Note_on_c, 0, 70, 71
2, 151382, Note_on_c, 0, 70, 0
2, 151387, Note_on_c, 0, 68, 79
2, 151395, Note_on_c, 0, 60, 65
2, 151408, Note_on_c, 0, 54, 0
2, 151490, Note_on_c, 0, 68, 0
2, 151494, Note_on_c, 0, 60, 0
2, 151507, Note_on_c, 0, 58, 71
2, 151510, Note_on_c, 0, 66, 74
2, 151577, Note_on_c, 0, 66, 0
2, 151582, Note_on_c, 0, 58, 0
2, 151625, Note_on_c, 0, 60, 73
2, 151625, Note_on_c, 0, 68, 79
2, 151702, Note_on_c, 0, 60, 0
2, 151732, Note_on_c, 0, 68, 0
2, 151754, Note_on_c, 0, 77, 90
2, 151762, Note_on_c, 0, 61, 72
2, 151783, Note_on_c, 0, 53, 36
2, 151800, Note_on_c, 0, 77, 0
2, 151827, Note_on_c, 0, 53, 0
2, 151839, Note_on_c, 0, 61, 0
2, 151861, Note_on_c, 0, 60, 74
2, 151982, Note_on_c, 0, 60, 0
2, 152000, Note_on_c, 0, 73, 84
2, 152001, Note_on_c, 0, 58, 72
2, 152053, Note_on_c, 0, 73, 0
2, 152112, Note_on_c, 0, 58, 0
2, 152118, Note_on_c, 0, 56, 79
2, 152250, Note_on_c, 0, 56, 0
2, 152274, Note_on_c, 0, 68, 81
2, 152277, Note_on_c, 0, 51, 62
2, 152277, Note_on_c, 0, 58, 60
2, 152352, Note_on_c, 0, 51, 0
2, 152539, Note_on_c, 0, 66, 72
2, 152541, Note_on_c, 0, 49, 61
2, 152545, Note_on_c, 0, 68, 0
2, 152589, Note_on_c, 0, 49, 0
2, 152635, Note_on_c, 0, 66, 0
2, 152652, Note_on_c, 0, 65, 72
2, 152759, Note_on_c, 0, 65, 0
2, 152763, Note_on_c, 0, 58, 0
2, 152771, Note_on_c, 0, 48, 63
2, 152775, Note_on_c, 0, 66, 72
2, 152821, Note_on_c, 0, 66, 0
2, 152884, Note_on_c, 0, 56, 76
2, 152888, Note_on_c, 0, 48, 0
2, 153002, Note_on_c, 0, 56, 0
2, 153011, Note_on_c, 0, 75, 81
2, 153012, Note_on_c, 0, 54, 69
2, 153076, Note_on_c, 0, 54, 0
2, 153077, Note_on_c, 0, 75, 0
2, 153121, Note_on_c, 0, 58, 78
2, 153152, Note_on_c, 0, 58, 0
2, 153252, Note_on_c, 0, 56, 75
2, 153258, Note_on_c, 0, 65, 75
2, 153267, Note_on_c, 0, 49, 54
2, 153302, Note_on_c, 0, 65, 0
2, 153308, Note_on_c, 0, 56, 0
2, 153315, Note_on_c, 0, 49, 0
2, 153371, Note_on_c, 0, 54, 72
2, 153463, Note_on_c, 0, 54, 0
2, 153492, Note_on_c, 0, 53, 76
2, 153495, Note_on_c, 0, 73, 75
2, 153548, Note_on_c, 0, 53, 0
2, 153549, Note_on_c, 0, 73, 0
2, 153620, Note_on_c, 0, 56, 59
2, 153656, Note_on_c, 0, 56, 0
2, 153680, Note_on_c, 0, 54, 3
2, 153734, Note_on_c, 0, 54, 0
2, 153747, Note_on_c, 0, 54, 55
2, 153750, Note_on_c, 0, 63, 72
2, 153755, Note_on_c, 0, 44, 61
2, 153786, Note_on_c, 0, 63, 0
2, 153790, Note_on_c, 0, 54, 0
2, 153882, Note_on_c, 0, 53, 55
2, 153893, Note_on_c, 0, 44, 0
2, 153990, Note_on_c, 0, 53, 0
2, 154001, Note_on_c, 0, 51, 68
2, 154025, Note_on_c, 0, 72, 70
2, 154074, Note_on_c, 0, 72, 0
2, 154138, Note_on_c, 0, 51, 0
2, 154147, Note_on_c, 0, 54, 75
2, 154282, Note_on_c, 0, 54, 0
2, 154310, Note_on_c, 0, 61, 70
2, 154314, Note_on_c, 0, 46, 48
2, 154315, Note_on_c, 0, 53, 59
2, 154406, Note_on_c, 0, 46, 0
2, 154420, Note_on_c, 0, 61, 0
2, 154434, Note_on_c, 0, 53, 0
2, 154446, Note_on_c, 0, 65, 69
2, 154450, Note_on_c, 0, 56, 67
2, 154563, Note_on_c, 0, 58, 67
2, 154563, Note_on_c, 0, 65, 0
2, 154564, Note_on_c, 0, 56, 0
2, 154567, Note_on_c, 0, 66, 74
2, 154658, Note_on_c, 0, 58, 0
2, 154670, Note_on_c, 0, 68, 82
2, 154678, Note_on_c, 0, 66, 0
2, 154679, Note_on_c, 0, 60, 71
2, 154796, Note_on_c, 0, 70, 76
2, 154800, Note_on_c, 0, 60, 0
2, 154802, Note_on_c, 0, 61, 66
2, 154803, Note_on_c, 0, 68, 0
2, 154853, Note_on_c, 0, 70, 0
2, 154893, Note_on_c, 0, 61, 0
2, 154909, Note_on_c, 0, 72, 71
2, 154912, Note_on_c, 0, 60, 66
2, 155034, Note_on_c, 0, 60, 0
2, 155036, Note_on_c, 0, 73, 77
2, 155041, Note_on_c, 0, 58, 67
2, 155041, Note_on_c, 0, 72, 0
2, 155141, Note_on_c, 0, 58, 0
2, 155145, Note_on_c, 0, 75, 79
2, 155152, Note_on_c, 0, 56, 64
2, 155157, Note_on_c, 0, 73, 0
2, 155264, Note_on_c, 0, 56, 0
2, 155277, Note_on_c, 0, 75, 0
2, 155279, Note_on_c, 0, 76, 79
2, 155280, Note_on_c, 0, 55, 67
2, 155387, Note_on_c, 0, 55, 0
2, 155394, Note_on_c, 0, 75, 79
2, 155396, Note_on_c, 0, 56, 68
2, 155404, Note_on_c, 0, 76, 0
2, 155469, Note_on_c, 0, 56, 0
2, 155518, Note_on_c, 0, 73, 77
2, 155528, Note_on_c, 0, 75, 0
2, 155634, Note_on_c, 0, 56, 67
2, 155645, Note_on_c, 0, 75, 84
2, 155657, Note_on_c, 0, 73, 0
2, 155669, Note_on_c, 0, 56, 0
2, 155704, Note_on_c, 0, 75, 0
2, 155752, Note_on_c, 0, 76, 76
2, 155771, Note_on_c, 0, 51, 76
2, 155861, Note_on_c, 0, 76, 0
2, 155869, Note_on_c, 0, 79, 78
2, 155876, Note_on_c, 0, 49, 70
2, 155965, Note_on_c, 0, 51, 0
2, 155988, Note_on_c, 0, 49, 0
2, 155995, Note_on_c, 0, 48, 72
2, 156003, Note_on_c, 0, 80, 83
2, 156007, Note_on_c, 0, 79, 0
2, 156083, Note_on_c, 0, 48, 0
2, 156103, Note_on_c, 0, 51, 3
2, 156106, Note_on_c, 0, 46, 66
2, 156121, Note_on_c, 0, 82, 85
2, 156135, Note_on_c, 0, 80, 0
2, 156209, Note_on_c, 0, 51, 0
2, 156210, Note_on_c, 0, 46, 0
2, 156225, Note_on_c, 0, 44, 59
2, 156248, Note_on_c, 0, 73, 77
2, 156258, Note_on_c, 0, 82, 0
2, 156352, Note_on_c, 0, 73, 0
2, 156357, Note_on_c, 0, 51, 63
2, 156376, Note_on_c, 0, 72, 75
2, 156393, Note_on_c, 0, 44, 0
2, 156462, Note_on_c, 0, 51, 0
2, 156490, Note_on_c, 0, 53, 69
2, 156490, Note_on_c, 0, 70, 76
2, 156498, Note_on_c, 0, 72, 0
2, 156601, Note_on_c, 0, 53, 0
2, 156602, Note_on_c, 0, 54, 69
2, 156606, Note_on_c, 0, 68, 80
2, 156630, Note_on_c, 0, 70, 0
2, 156730, Note_on_c, 0, 56, 69
2, 156734, Note_on_c, 0, 54, 0
2, 156734, Note_on_c, 0, 75, 78
2, 156743, Note_on_c, 0, 68, 0
2, 156795, Note_on_c, 0, 75, 0
2, 156850, Note_on_c, 0, 56, 0
2, 156851, Note_on_c, 0, 58, 72
2, 156954, Note_on_c, 0, 58, 0
2, 156985, Note_on_c, 0, 60, 64
2, 156985, Note_on_c, 0, 66, 73
2, 157043, Note_on_c, 0, 66, 0
2, 157081, Note_on_c, 0, 60, 0
2, 157103, Note_on_c, 0, 56, 67
2, 157220, Note_on_c, 0, 56, 0
2, 157249, Note_on_c, 0, 61, 63
2, 157249, Note_on_c, 0, 65, 68
2, 157294, Control_c, 0, 64, 40
2, 157309, Control_c, 0, 64, 57
2, 157324, Control_c, 0, 64, 63
2, 157339, Control_c, 0, 64, 68
2, 157355, Control_c, 0, 64, 74
2, 157369, Note_on_c, 0, 61, 0
2, 157370, Control_c, 0, 64, 85
2, 157385, Control_c, 0, 64, 100
2, 157401, Control_c, 0, 64, 127
2, 157429, Note_on_c, 0, 65, 0
2, 157492, Control_c, 0, 64, 93
2, 157506, Control_c, 0, 64, 72
2, 157522, Control_c, 0, 64, 57
2, 157535, Note_on_c, 0, 41, 58
2, 157537, Control_c, 0, 64, 0
2, 157542, Note_on_c, 0, 73, 82
2, 157546, Note_on_c, 0, 68, 72
2, 157550, Note_on_c, 0, 61, 68
2, 157598, Control_c, 0, 64, 40
2, 157613, Control_c, 0, 64, 59
2, 157624, Note_on_c, 0, 68, 0
2, 157627, Control_c, 0, 64, 64
2, 157643, Control_c, 0, 64, 69
2, 157646, Note_on_c, 0, 61, 0
2, 157658, Control_c, 0, 64, 77
2, 157673, Control_c, 0, 64, 92
2, 157688, Control_c, 0, 64, 127
2, 157731, Note_on_c, 0, 73, 0
2, 157755, Note_on_c, 0, 41, 0
2, 157826, Control_c, 0, 64, 115
2, 157842, Control_c, 0, 64, 81
2, 157864, Control_c, 0, 64, 65
2, 157872, Note_on_c, 0, 42, 56
2, 157878, Note_on_c, 0, 70, 74
2, 157880, Control_c, 0, 64, 32
2, 157880, Note_on_c, 0, 66, 64
2, 157882, Note_on_c, 0, 63, 64
2, 157895, Control_c, 0, 64, 0
2, 157926, Control_c, 0, 64, 16
2, 157940, Control_c, 0, 64, 49
2, 157956, Control_c, 0, 64, 62
2, 157971, Control_c, 0, 64, 67
2, 157985, Control_c, 0, 64, 73
2, 158001, Control_c, 0, 64, 86
2, 158012, Note_on_c, 0, 42, 0
2, 158016, Control_c, 0, 64, 127
2, 158029, Note_on_c, 0, 66, 0
2, 158059, Note_on_c, 0, 70, 0
2, 158074, Note_on_c, 0, 63, 0
2, 158199, Control_c, 0, 64, 100
2, 158214, Control_c, 0, 64, 77
2, 158229, Control_c, 0, 64, 63
2, 158233, Note_on_c, 0, 72, 82
2, 158236, Note_on_c, 0, 68, 71
2, 158237, Note_on_c, 0, 66, 63
2, 158239, Note_on_c, 0, 44, 55
2, 158245, Control_c, 0, 64, 33
2, 158260, Control_c, 0, 64, 0
2, 158303, Control_c, 0, 64, 46
2, 158318, Control_c, 0, 64, 61
2, 158333, Control_c, 0, 64, 66
2, 158348, Control_c, 0, 64, 73
2, 158349, Note_on_c, 0, 72, 0
2, 158364, Control_c, 0, 64, 86
2, 158373, Note_on_c, 0, 66, 0
2, 158373, Note_on_c, 0, 68, 0
2, 158379, Control_c, 0, 64, 127
2, 158382, Note_on_c, 0, 44, 0
2, 158702, Note_on_c, 0, 37, 47
2, 158713, Note_on_c, 0, 61, 69
2, 158720, Control_c, 0, 64, 103
2, 158735, Control_c, 0, 64, 86
2, 158750, Control_c, 0, 64, 75
2, 158766, Control_c, 0, 64, 67
2, 158780, Control_c, 0, 64, 60
2, 158786, Note_on_c, 0, 65, 71
2, 158795, Control_c, 0, 64, 48
2, 158811, Control_c, 0, 64, 37
2, 158826, Control_c, 0, 64, 23
2, 158842, Control_c, 0, 64, 0
2, 158851, Note_on_c, 0, 68, 80
2, 158927, Note_on_c, 0, 73, 81
2, 159528, Control_c, 0, 64, 18
2, 159543, Control_c, 0, 64, 26
2, 159558, Control_c, 0, 64, 32
2, 159573, Control_c, 0, 64, 38
2, 159588, Control_c, 0, 64, 45
2, 159603, Control_c, 0, 64, 50
2, 159618, Control_c, 0, 64, 54
2, 159634, Control_c, 0, 64, 58
2, 159649, Control_c, 0, 64, 61
2, 159664, Control_c, 0, 64, 63
2, 159679, Control_c, 0, 64, 66
2, 159694, Control_c, 0, 64, 70
2, 159710, Control_c, 0, 64, 76
2, 159725, Control_c, 0, 64, 85
2, 159740, Control_c, 0, 64, 100
2, 159755, Control_c, 0, 64, 127
2, 159840, Note_on_c, 0, 73, 0
2, 159860, Note_on_c, 0, 61, 0
2, 159894, Note_on_c, 0, 65, 0
2, 159948, Note_on_c, 0, 68, 0
2, 160037, Note_on_c, 0, 37, 0
2, 160750, Control_c, 0, 64, 121
2, 160765, Control_c, 0, 64, 110
2, 160780, Control_c, 0, 64, 104
2, 160795, Control_c, 0, 64, 99
2, 160810, Control_c, 0, 64, 96
2, 160825, Control_c, 0, 64, 92
2, 160840, Control_c, 0, 64, 89
2, 160855, Control_c, 0, 64, 87
2, 160871, Control_c, 0, 64, 85
2, 160886, Control_c, 0, 64, 83
2, 160901, Control_c, 0, 64, 82
2, 160924, Control_c, 0, 64, 80
2, 160939, Control_c, 0, 64, 78
2, 160955, Control_c, 0, 64, 77
2, 160969, Control_c, 0, 64, 76
2, 160984, Control_c, 0, 64, 74
2, 161000, Control_c, 0, 64, 72
2, 161015, Control_c, 0, 64, 70
2, 161031, Control_c, 0, 64, 69
2, 161046, Control_c, 0, 64, 68
2, 161061, Control_c, 0, 64, 67
2, 161077, Control_c, 0, 64, 67
2, 161092, Control_c, 0, 64, 66
2, 161108, Control_c, 0, 64, 65
2, 161123, Control_c, 0, 64, 65
2, 161138, Control_c, 0, 64, 64
2, 161153, Control_c, 0, 64, 63
2, 161168, Control_c, 0, 64, 62
2, 161183, Control_c, 0, 64, 60
2, 161199, Control_c, 0, 64, 56
2, 161214, Control_c, 0, 64, 49
2, 161229, Control_c, 0, 64, 40
2, 161244, Control_c, 0, 64, 30
2, 161259, Control_c, 0, 64, 12
2, 161274, Control_c, 0, 64, 0
2, 161275, End_track
0, 0, End_of_file
