0, 0, Header, 1, 2, 384
1, 0, Start_track
1, 0, Tempo, 500000
1, 0, Time_signature, 4, 2, 24, 8
1, 1, End_track
2, 0, Start_track
2, 0, Program_c, 0, 0
2, 782, Note_on_c, 0, 49, 37
2, 790, Note_on_c, 0, 77, 55
2, 852, Note_on_c, 0, 77, 0
2, 881, Note_on_c, 0, 73, 51
2, 919, Note_on_c, 0, 73, 0
2, 948, Note_on_c, 0, 68, 54
2, 1011, Note_on_c, 0, 68, 0
2, 1023, Note_on_c, 0, 73, 58
2, 1090, Note_on_c, 0, 73, 0
2, 1111, Note_on_c, 0, 77, 62
2, 1121, Note_on_c, 0, 61, 50
2, 1140, Note_on_c, 0, 49, 0
2, 1149, Note_on_c, 0, 77, 0
2, 1152, Note_on_c, 0, 61, 0
2, 1202, Note_on_c, 0, 73, 61
2, 1246, Note_on_c, 0, 73, 0
2, 1276, Note_on_c, 0, 51, 52
2, 1358, Note_on_c, 0, 73, 64
2, 1393, Note_on_c, 0, 73, 0
2, 1428, Note_on_c, 0, 78, 67
2, 1472, Note_on_c, 0, 78, 0
2, 1503, Note_on_c, 0, 73, 67
2, 1552, Note_on_c, 0, 73, 0
2, 1572, Note_on_c, 0, 51, 0
2, 1588, Note_on_c, 0, 61, 55
2, 1590, Note_on_c, 0, 78, 66
2, 1620, Note_on_c, 0, 61, 0
2, 1624, Note_on_c, 0, 78, 0
2, 1664, Note_on_c, 0, 73, 62
2, 1697, Note_on_c, 0, 73, 0
2, 1741, Note_on_c, 0, 80, 65
2, 1742, Note_on_c, 0, 53, 54
2, 1775, Note_on_c, 0, 80, 0
2, 1811, Note_on_c, 0, 73, 63
2, 1869, Note_on_c, 0, 73, 0
2, 1896, Note_on_c, 0, 80, 74
2, 1932, Note_on_c, 0, 80, 0
2, 1982, Note_on_c, 0, 73, 64
2, 2012, Note_on_c, 0, 53, 0
2, 2030, Note_on_c, 0, 73, 0
2, 2057, Note_on_c, 0, 80, 79
2, 2069, Note_on_c, 0, 61, 56
2, 2093, Note_on_c, 0, 80, 0
2, 2095, Note_on_c, 0, 61, 0
2, 2134, Note_on_c, 0, 73, 70
2, 2196, Note_on_c, 0, 73, 0
2, 2221, Note_on_c, 0, 82, 84
2, 2227, Note_on_c, 0, 54, 55
2, 2255, Note_on_c, 0, 82, 0
2, 2302, Note_on_c, 0, 73, 69
2, 2358, Note_on_c, 0, 73, 0
2, 2384, Note_on_c, 0, 82, 75
2, 2427, Note_on_c, 0, 82, 0
2, 2462, Note_on_c, 0, 73, 70
2, 2475, Note_on_c, 0, 54, 0
2, 2521, Note_on_c, 0, 73, 0
2, 2534, Note_on_c, 0, 82, 78
2, 2537, Note_on_c, 0, 61, 56
2, 2570, Note_on_c, 0, 61, 0
2, 2580, Note_on_c, 0, 82, 0
2, 2612, Note_on_c, 0, 73, 70
2, 2671, Note_on_c, 0, 73, 0
2, 2694, Note_on_c, 0, 80, 70
2, 2699, Note_on_c, 0, 53, 50
2, 2737, Note_on_c, 0, 80, 0
2, 2777, Note_on_c, 0, 73, 68
2, 2834, Note_on_c, 0, 73, 0
2, 2854, Note_on_c, 0, 80, 70
2, 2888, Note_on_c, 0, 80, 0
2, 2933, Note_on_c, 0, 73, 63
2, 2957, Note_on_c, 0, 53, 0
2, 2986, Note_on_c, 0, 73, 0
2, 3009, Note_on_c, 0, 80, 73
2, 3020, Note_on_c, 0, 61, 46
2, 3045, Note_on_c, 0, 61, 0
2, 3047, Note_on_c, 0, 80, 0
2, 3093, Note_on_c, 0, 73, 65
2, 3145, Note_on_c, 0, 73, 0
2, 3170, Note_on_c, 0, 51, 47
2, 3177, Note_on_c, 0, 78, 70
2, 3244, Note_on_c, 0, 78, 0
2, 3258, Note_on_c, 0, 77, 72
2, 3322, Note_on_c, 0, 77, 0
2, 3335, Note_on_c, 0, 75, 72
2, 3394, Note_on_c, 0, 75, 0
2, 3407, Note_on_c, 0, 77, 75
2, 3408, Note_on_c, 0, 51, 0
2, 3491, Note_on_c, 0, 77, 0
2, 3492, Note_on_c, 0, 60, 58
2, 3494, Note_on_c, 0, 78, 78
2, 3524, Note_on_c, 0, 60, 0
2, 3555, Note_on_c, 0, 78, 0
2, 3569, Note_on_c, 0, 75, 72
2, 3642, Note_on_c, 0, 75, 0
2, 3652, Note_on_c, 0, 49, 47
2, 3652, Note_on_c, 0, 77, 77
2, 3711, Note_on_c, 0, 49, 0
2, 3726, Note_on_c, 0, 77, 0
2, 3738, Note_on_c, 0, 75, 75
2, 3803, Note_on_c, 0, 75, 0
2, 3813, Note_on_c, 0, 73, 76
2, 3885, Note_on_c, 0, 73, 0
2, 3895, Note_on_c, 0, 75, 74
2, 3960, Note_on_c, 0, 75, 0
2, 3967, Note_on_c, 0, 61, 73
2, 3967, Note_on_c, 0, 77, 77
2, 4036, Note_on_c, 0, 77, 0
2, 4047, Note_on_c, 0, 73, 72
2, 4127, Note_on_c, 0, 73, 0
2, 4130, Note_on_c, 0, 75, 75
2, 4195, Note_on_c, 0, 75, 0
2, 4202, Note_on_c, 0, 77, 77
2, 4241, Note_on_c, 0, 61, 0
2, 4279, Note_on_c, 0, 77, 0
2, 4287, Note_on_c, 0, 60, 57
2, 4293, Note_on_c, 0, 75, 74
2, 4347, Note_on_c, 0, 60, 0
2, 4358, Note_on_c, 0, 75, 0
2, 4361, Note_on_c, 0, 73, 76
2, 4365, Note_on_c, 0, 58, 66
2, 4414, Note_on_c, 0, 73, 0
2, 4422, Note_on_c, 0, 58, 0
2, 4438, Note_on_c, 0, 56, 68
2, 4438, Note_on_c, 0, 72, 70
2, 4479, Note_on_c, 0, 72, 0
2, 4502, Note_on_c, 0, 56, 0
2, 4514, Note_on_c, 0, 70, 75
2, 4517, Note_on_c, 0, 58, 65
2, 4556, Note_on_c, 0, 58, 0
2, 4561, Note_on_c, 0, 70, 0
2, 4597, Note_on_c, 0, 60, 65
2, 4601, Note_on_c, 0, 68, 76
2, 4652, Note_on_c, 0, 60, 0
2, 4681, Note_on_c, 0, 56, 58
2, 4721, Note_on_c, 0, 56, 0
2, 4748, Note_on_c, 0, 51, 64
2, 4821, Note_on_c, 0, 51, 0
2, 4833, Note_on_c, 0, 56, 60
2, 4880, Note_on_c, 0, 56, 0
2, 4902, Note_on_c, 0, 68, 0
2, 4915, Note_on_c, 0, 80, 69
2, 4921, Note_on_c, 0, 60, 54
2, 4943, Note_on_c, 0, 80, 0
2, 4962, Note_on_c, 0, 60, 0
2, 5000, Note_on_c, 0, 56, 57
2, 5076, Note_on_c, 0, 56, 0
2, 5080, Note_on_c, 0, 70, 68
2, 5093, Note_on_c, 0, 61, 58
2, 5142, Note_on_c, 0, 61, 0
2, 5180, Note_on_c, 0, 56, 55
2, 5230, Note_on_c, 0, 56, 0
2, 5262, Note_on_c, 0, 61, 57
2, 5304, Note_on_c, 0, 61, 0
2, 5344, Note_on_c, 0, 56, 59
2, 5387, Note_on_c, 0, 70, 0
2, 5392, Note_on_c, 0, 56, 0
2, 5407, Note_on_c, 0, 80, 69
2, 5422, Note_on_c, 0, 61, 62
2, 5435, Note_on_c, 0, 80, 0
2, 5457, Note_on_c, 0, 61, 0
2, 5500, Note_on_c, 0, 56, 60
2, 5536, Note_on_c, 0, 56, 0
2, 5565, Note_on_c, 0, 72, 70
2, 5572, Note_on_c, 0, 63, 62
2, 5615, Note_on_c, 0, 63, 0
2, 5643, Note_on_c, 0, 56, 61
2, 5698, Note_on_c, 0, 56, 0
2, 5726, Note_on_c, 0, 63, 68
2, 5781, Note_on_c, 0, 63, 0
2, 5824, Note_on_c, 0, 56, 65
2, 5871, Note_on_c, 0, 56, 0
2, 5872, Note_on_c, 0, 72, 0
2, 5886, Note_on_c, 0, 80, 74
2, 5904, Note_on_c, 0, 63, 68
2, 5910, Note_on_c, 0, 80, 0
2, 5937, Note_on_c, 0, 63, 0
2, 5973, Note_on_c, 0, 56, 66
2, 6028, Note_on_c, 0, 56, 0
2, 6049, Note_on_c, 0, 73, 80
2, 6065, Note_on_c, 0, 65, 69
2, 6102, Note_on_c, 0, 65, 0
2, 6141, Note_on_c, 0, 56, 71
2, 6185, Note_on_c, 0, 56, 0
2, 6223, Note_on_c, 0, 65, 65
2, 6264, Note_on_c, 0, 65, 0
2, 6297, Note_on_c, 0, 56, 68
2, 6340, Note_on_c, 0, 73, 0
2, 6344, Note_on_c, 0, 56, 0
2, 6384, Note_on_c, 0, 80, 73
2, 6390, Note_on_c, 0, 65, 65
2, 6409, Note_on_c, 0, 80, 0
2, 6421, Note_on_c, 0, 65, 0
2, 6463, Note_on_c, 0, 56, 65
2, 6518, Note_on_c, 0, 56, 0
2, 6544, Note_on_c, 0, 72, 66
2, 6560, Note_on_c, 0, 63, 66
2, 6600, Note_on_c, 0, 63, 0
2, 6636, Note_on_c, 0, 56, 66
2, 6679, Note_on_c, 0, 56, 0
2, 6719, Note_on_c, 0, 63, 62
2, 6761, Note_on_c, 0, 63, 0
2, 6797, Note_on_c, 0, 56, 65
2, 6839, Note_on_c, 0, 56, 0
2, 6849, Note_on_c, 0, 72, 0
2, 6869, Note_on_c, 0, 80, 60
2, 6882, Note_on_c, 0, 63, 65
2, 6900, Note_on_c, 0, 80, 0
2, 6918, Note_on_c, 0, 63, 0
2, 6960, Note_on_c, 0, 56, 60
2, 7009, Note_on_c, 0, 56, 0
2, 7023, Note_on_c, 0, 70, 62
2, 7025, Note_on_c, 0, 61, 66
2, 7095, Note_on_c, 0, 61, 0
2, 7108, Note_on_c, 0, 60, 67
2, 7174, Note_on_c, 0, 60, 0
2, 7193, Note_on_c, 0, 58, 62
2, 7260, Note_on_c, 0, 58, 0
2, 7260, Note_on_c, 0, 60, 62
2, 7311, Note_on_c, 0, 70, 0
2, 7337, Note_on_c, 0, 60, 0
2, 7353, Note_on_c, 0, 79, 62
2, 7355, Note_on_c, 0, 61, 65
2, 7374, Note_on_c, 0, 79, 0
2, 7411, Note_on_c, 0, 61, 0
2, 7427, Note_on_c, 0, 58, 62
2, 7469, Note_on_c, 0, 58, 0
2, 7513, Note_on_c, 0, 60, 62
2, 7514, Note_on_c, 0, 68, 61
2, 7580, Note_on_c, 0, 60, 0
2, 7597, Note_on_c, 0, 58, 65
2, 7670, Note_on_c, 0, 58, 0
2, 7676, Note_on_c, 0, 68, 0
2, 7684, Note_on_c, 0, 56, 66
2, 7752, Note_on_c, 0, 56, 0
2, 7758, Note_on_c, 0, 58, 77
2, 7807, Note_on_c, 0, 58, 0
2, 7834, Note_on_c, 0, 80, 88
2, 7851, Note_on_c, 0, 60, 70
2, 7912, Note_on_c, 0, 60, 0
2, 7922, Note_on_c, 0, 56, 69
2, 7997, Note_on_c, 0, 56, 0
2, 8010, Note_on_c, 0, 58, 70
2, 8052, Note_on_c, 0, 58, 0
2, 8095, Note_on_c, 0, 59, 65
2, 8168, Note_on_c, 0, 59, 0
2, 8178, Note_on_c, 0, 58, 66
2, 8194, Note_on_c, 0, 78, 70
2, 8202, Note_on_c, 0, 80, 0
2, 8243, Note_on_c, 0, 58, 0
2, 8254, Note_on_c, 0, 56, 70
2, 8263, Note_on_c, 0, 78, 0
2, 8269, Note_on_c, 0, 77, 71
2, 8329, Note_on_c, 0, 77, 0
2, 8330, Note_on_c, 0, 56, 0
2, 8337, Note_on_c, 0, 54, 59
2, 8344, Note_on_c, 0, 75, 68
2, 8368, Note_on_c, 0, 54, 0
2, 8394, Note_on_c, 0, 75, 0
2, 8407, Note_on_c, 0, 77, 72
2, 8416, Note_on_c, 0, 53, 56
2, 8464, Note_on_c, 0, 53, 0
2, 8481, Note_on_c, 0, 51, 64
2, 8486, Note_on_c, 0, 77, 0
2, 8494, Note_on_c, 0, 78, 71
2, 8549, Note_on_c, 0, 78, 0
2, 8566, Note_on_c, 0, 75, 65
2, 8606, Note_on_c, 0, 75, 0
2, 8641, Note_on_c, 0, 70, 66
2, 8717, Note_on_c, 0, 70, 0
2, 8733, Note_on_c, 0, 75, 60
2, 8749, Note_on_c, 0, 51, 0
2, 8789, Note_on_c, 0, 75, 0
2, 8801, Note_on_c, 0, 63, 58
2, 8804, Note_on_c, 0, 78, 66
2, 8832, Note_on_c, 0, 63, 0
2, 8834, Note_on_c, 0, 78, 0
2, 8900, Note_on_c, 0, 75, 58
2, 8941, Note_on_c, 0, 75, 0
2, 8960, Note_on_c, 0, 53, 48
2, 8966, Note_on_c, 0, 80, 68
2, 9009, Note_on_c, 0, 80, 0
2, 9054, Note_on_c, 0, 75, 63
2, 9094, Note_on_c, 0, 75, 0
2, 9122, Note_on_c, 0, 80, 69
2, 9169, Note_on_c, 0, 80, 0
2, 9205, Note_on_c, 0, 75, 66
2, 9235, Note_on_c, 0, 53, 0
2, 9244, Note_on_c, 0, 75, 0
2, 9274, Note_on_c, 0, 63, 49
2, 9275, Note_on_c, 0, 80, 76
2, 9302, Note_on_c, 0, 63, 0
2, 9308, Note_on_c, 0, 80, 0
2, 9350, Note_on_c, 0, 75, 72
2, 9404, Note_on_c, 0, 75, 0
2, 9431, Note_on_c, 0, 82, 75
2, 9434, Note_on_c, 0, 54, 47
2, 9468, Note_on_c, 0, 82, 0
2, 9513, Note_on_c, 0, 75, 69
2, 9573, Note_on_c, 0, 75, 0
2, 9590, Note_on_c, 0, 82, 78
2, 9640, Note_on_c, 0, 82, 0
2, 9676, Note_on_c, 0, 75, 73
2, 9714, Note_on_c, 0, 54, 0
2, 9738, Note_on_c, 0, 75, 0
2, 9752, Note_on_c, 0, 82, 89
2, 9762, Note_on_c, 0, 63, 51
2, 9787, Note_on_c, 0, 63, 0
2, 9809, Note_on_c, 0, 82, 0
2, 9838, Note_on_c, 0, 75, 77
2, 9919, Note_on_c, 0, 83, 91
2, 9921, Note_on_c, 0, 56, 63
2, 9923, Note_on_c, 0, 75, 0
2, 9964, Note_on_c, 0, 83, 0
2, 10006, Note_on_c, 0, 75, 76
2, 10075, Note_on_c, 0, 75, 0
2, 10086, Note_on_c, 0, 83, 78
2, 10131, Note_on_c, 0, 83, 0
2, 10168, Note_on_c, 0, 75, 72
2, 10213, Note_on_c, 0, 56, 0
2, 10233, Note_on_c, 0, 75, 0
2, 10236, Note_on_c, 0, 83, 80
2, 10252, Note_on_c, 0, 63, 54
2, 10278, Note_on_c, 0, 63, 0
2, 10290, Note_on_c, 0, 83, 0
2, 10329, Note_on_c, 0, 75, 68
2, 10401, Note_on_c, 0, 75, 0
2, 10408, Note_on_c, 0, 82, 76
2, 10413, Note_on_c, 0, 54, 55
2, 10458, Note_on_c, 0, 82, 0
2, 10498, Note_on_c, 0, 75, 71
2, 10558, Note_on_c, 0, 75, 0
2, 10571, Note_on_c, 0, 82, 77
2, 10615, Note_on_c, 0, 82, 0
2, 10654, Note_on_c, 0, 75, 68
2, 10711, Note_on_c, 0, 54, 0
2, 10721, Note_on_c, 0, 75, 0
2, 10730, Note_on_c, 0, 82, 78
2, 10742, Note_on_c, 0, 63, 53
2, 10765, Note_on_c, 0, 63, 0
2, 10782, Note_on_c, 0, 82, 0
2, 10813, Note_on_c, 0, 75, 70
2, 10866, Note_on_c, 0, 75, 0
2, 10889, Note_on_c, 0, 80, 77
2, 10904, Note_on_c, 0, 53, 44
2, 10960, Note_on_c, 0, 80, 0
2, 10976, Note_on_c, 0, 78, 74
2, 11038, Note_on_c, 0, 78, 0
2, 11051, Note_on_c, 0, 77, 74
2, 11112, Note_on_c, 0, 77, 0
2, 11138, Note_on_c, 0, 53, 0
2, 11138, Note_on_c, 0, 78, 71
2, 11220, Note_on_c, 0, 62, 49
2, 11222, Note_on_c, 0, 78, 0
2, 11222, Note_on_c, 0, 80, 74
2, 11245, Note_on_c, 0, 62, 0
2, 11262, Note_on_c, 0, 80, 0
2, 11295, Note_on_c, 0, 77, 71
2, 11357, Note_on_c, 0, 77, 0
2, 11377, Note_on_c, 0, 78, 75
2, 11388, Note_on_c, 0, 51, 53
2, 11455, Note_on_c, 0, 51, 0
2, 11461, Note_on_c, 0, 78, 0
2, 11464, Note_on_c, 0, 77, 76
2, 11531, Note_on_c, 0, 77, 0
2, 11543, Note_on_c, 0, 75, 75
2, 11611, Note_on_c, 0, 75, 0
2, 11623, Note_on_c, 0, 77, 77
2, 11703, Note_on_c, 0, 77, 0
2, 11709, Note_on_c, 0, 63, 80
2, 11709, Note_on_c, 0, 78, 78
2, 11780, Note_on_c, 0, 78, 0
2, 11792, Note_on_c, 0, 75, 71
2, 11865, Note_on_c, 0, 75, 0
2, 11880, Note_on_c, 0, 77, 73
2, 11968, Note_on_c, 0, 77, 0
2, 11974, Note_on_c, 0, 78, 73
2, 12025, Note_on_c, 0, 63, 0
2, 12051, Note_on_c, 0, 61, 61
2, 12051, Note_on_c, 0, 78, 0
2, 12060, Note_on_c, 0, 77, 71
2, 12117, Note_on_c, 0, 61, 0
2, 12121, Note_on_c, 0, 77, 0
2, 12131, Note_on_c, 0, 75, 74
2, 12136, Note_on_c, 0, 60, 62
2, 12181, Note_on_c, 0, 75, 0
2, 12182, Note_on_c, 0, 60, 0
2, 12198, Note_on_c, 0, 58, 64
2, 12204, Note_on_c, 0, 73, 68
2, 12265, Note_on_c, 0, 73, 0
2, 12272, Note_on_c, 0, 58, 0
2, 12281, Note_on_c, 0, 72, 74
2, 12286, Note_on_c, 0, 60, 60
2, 12316, Note_on_c, 0, 60, 0
2, 12357, Note_on_c, 0, 72, 0
2, 12366, Note_on_c, 0, 61, 63
2, 12371, Note_on_c, 0, 70, 75
2, 12421, Note_on_c, 0, 61, 0
2, 12451, Note_on_c, 0, 58, 66
2, 12503, Note_on_c, 0, 58, 0
2, 12528, Note_on_c, 0, 53, 61
2, 12601, Note_on_c, 0, 53, 0
2, 12617, Note_on_c, 0, 58, 64
2, 12655, Note_on_c, 0, 58, 0
2, 12671, Note_on_c, 0, 70, 0
2, 12687, Note_on_c, 0, 82, 73
2, 12693, Note_on_c, 0, 61, 55
2, 12722, Note_on_c, 0, 82, 0
2, 12732, Note_on_c, 0, 61, 0
2, 12773, Note_on_c, 0, 58, 68
2, 12836, Note_on_c, 0, 58, 0
2, 12858, Note_on_c, 0, 63, 62
2, 12865, Note_on_c, 0, 72, 66
2, 12914, Note_on_c, 0, 63, 0
2, 12949, Note_on_c, 0, 58, 61
2, 12990, Note_on_c, 0, 58, 0
2, 13024, Note_on_c, 0, 63, 60
2, 13064, Note_on_c, 0, 63, 0
2, 13105, Note_on_c, 0, 58, 60
2, 13161, Note_on_c, 0, 72, 0
2, 13180, Note_on_c, 0, 82, 69
2, 13188, Note_on_c, 0, 58, 0
2, 13198, Note_on_c, 0, 63, 53
2, 13206, Note_on_c, 0, 82, 0
2, 13233, Note_on_c, 0, 63, 0
2, 13349, Note_on_c, 0, 73, 65
2, 13359, Note_on_c, 0, 65, 58
2, 13395, Note_on_c, 0, 65, 0
2, 13447, Note_on_c, 0, 58, 51
2, 13494, Note_on_c, 0, 58, 0
2, 13531, Note_on_c, 0, 65, 54
2, 13570, Note_on_c, 0, 65, 0
2, 13601, Note_on_c, 0, 58, 58
2, 13656, Note_on_c, 0, 58, 0
2, 13660, Note_on_c, 0, 73, 0
2, 13684, Note_on_c, 0, 82, 75
2, 13698, Note_on_c, 0, 65, 59
2, 13709, Note_on_c, 0, 82, 0
2, 13735, Note_on_c, 0, 65, 0
2, 13771, Note_on_c, 0, 58, 68
2, 13835, Note_on_c, 0, 58, 0
2, 13850, Note_on_c, 0, 75, 79
2, 13852, Note_on_c, 0, 66, 66
2, 13894, Note_on_c, 0, 66, 0
2, 13932, Note_on_c, 0, 58, 68
2, 13988, Note_on_c, 0, 58, 0
2, 14013, Note_on_c, 0, 66, 67
2, 14050, Note_on_c, 0, 66, 0
2, 14097, Note_on_c, 0, 58, 67
2, 14152, Note_on_c, 0, 58, 0
2, 14164, Note_on_c, 0, 75, 0
2, 14171, Note_on_c, 0, 82, 74
2, 14186, Note_on_c, 0, 66, 56
2, 14196, Note_on_c, 0, 82, 0
2, 14222, Note_on_c, 0, 66, 0
2, 14265, Note_on_c, 0, 58, 57
2, 14298, Note_on_c, 0, 58, 0
2, 14343, Note_on_c, 0, 65, 60
2, 14353, Note_on_c, 0, 73, 58
2, 14381, Note_on_c, 0, 65, 0
2, 14408, Note_on_c, 0, 58, 55
2, 14460, Note_on_c, 0, 58, 0
2, 14501, Note_on_c, 0, 65, 58
2, 14538, Note_on_c, 0, 65, 0
2, 14580, Note_on_c, 0, 58, 65
2, 14631, Note_on_c, 0, 58, 0
2, 14645, Note_on_c, 0, 73, 0
2, 14666, Note_on_c, 0, 82, 54
2, 14682, Note_on_c, 0, 65, 57
2, 14698, Note_on_c, 0, 82, 0
2, 14717, Note_on_c, 0, 65, 0
2, 14743, Note_on_c, 0, 58, 64
2, 14825, Note_on_c, 0, 58, 0
2, 14834, Note_on_c, 0, 72, 62
2, 14836, Note_on_c, 0, 63, 62
2, 14903, Note_on_c, 0, 63, 0
2, 14916, Note_on_c, 0, 61, 63
2, 14982, Note_on_c, 0, 61, 0
2, 14996, Note_on_c, 0, 60, 69
2, 15073, Note_on_c, 0, 60, 0
2, 15085, Note_on_c, 0, 61, 62
2, 15140, Note_on_c, 0, 61, 0
2, 15143, Note_on_c, 0, 72, 0
2, 15154, Note_on_c, 0, 63, 71
2, 15166, Note_on_c, 0, 81, 65
2, 15194, Note_on_c, 0, 81, 0
2, 15214, Note_on_c, 0, 63, 0
2, 15234, Note_on_c, 0, 60, 66
2, 15293, Note_on_c, 0, 60, 0
2, 15314, Note_on_c, 0, 61, 69
2, 15319, Note_on_c, 0, 70, 70
2, 15384, Note_on_c, 0, 61, 0
2, 15414, Note_on_c, 0, 60, 61
2, 15443, Note_on_c, 0, 70, 0
2, 15476, Note_on_c, 0, 60, 0
2, 15487, Note_on_c, 0, 58, 74
2, 15561, Note_on_c, 0, 58, 0
2, 15570, Note_on_c, 0, 60, 71
2, 15637, Note_on_c, 0, 60, 0
2, 15652, Note_on_c, 0, 82, 84
2, 15654, Note_on_c, 0, 61, 70
2, 15719, Note_on_c, 0, 61, 0
2, 15730, Note_on_c, 0, 58, 70
2, 15812, Note_on_c, 0, 58, 0
2, 15839, Note_on_c, 0, 64, 63
2, 15901, Note_on_c, 0, 64, 0
2, 15917, Note_on_c, 0, 62, 65
2, 15981, Note_on_c, 0, 62, 0
2, 15987, Note_on_c, 0, 82, 0
2, 15994, Note_on_c, 0, 60, 68
2, 16004, Note_on_c, 0, 80, 73
2, 16041, Note_on_c, 0, 80, 0
2, 16069, Note_on_c, 0, 60, 0
2, 16087, Note_on_c, 0, 62, 62
2, 16132, Note_on_c, 0, 62, 0
2, 16164, Note_on_c, 0, 64, 64
2, 16172, Note_on_c, 0, 79, 65
2, 16198, Note_on_c, 0, 64, 0
2, 16202, Note_on_c, 0, 79, 0
2, 16240, Note_on_c, 0, 60, 65
2, 16316, Note_on_c, 0, 60, 0
2, 16325, Note_on_c, 0, 80, 76
2, 16329, Note_on_c, 0, 65, 67
2, 16359, Note_on_c, 0, 80, 0
2, 16387, Note_on_c, 0, 65, 0
2, 16403, Note_on_c, 0, 64, 69
2, 16472, Note_on_c, 0, 64, 0
2, 16487, Note_on_c, 0, 68, 77
2, 16489, Note_on_c, 0, 65, 73
2, 16519, Note_on_c, 0, 68, 0
2, 16548, Note_on_c, 0, 65, 0
2, 16576, Note_on_c, 0, 67, 65
2, 16643, Note_on_c, 0, 67, 0
2, 16662, Note_on_c, 0, 80, 85
2, 16665, Note_on_c, 0, 65, 63
2, 16727, Note_on_c, 0, 65, 0
2, 16737, Note_on_c, 0, 63, 71
2, 16787, Note_on_c, 0, 63, 0
2, 16825, Note_on_c, 0, 62, 64
2, 16874, Note_on_c, 0, 62, 0
2, 16898, Note_on_c, 0, 60, 70
2, 16964, Note_on_c, 0, 60, 0
2, 16983, Note_on_c, 0, 58, 68
2, 16999, Note_on_c, 0, 80, 0
2, 17000, Note_on_c, 0, 78, 70
2, 17044, Note_on_c, 0, 78, 0
2, 17047, Note_on_c, 0, 58, 0
2, 17069, Note_on_c, 0, 60, 63
2, 17109, Note_on_c, 0, 60, 0
2, 17145, Note_on_c, 0, 62, 63
2, 17169, Note_on_c, 0, 77, 69
2, 17182, Note_on_c, 0, 62, 0
2, 17200, Note_on_c, 0, 77, 0
2, 17214, Note_on_c, 0, 58, 62
2, 17257, Note_on_c, 0, 58, 0
2, 17324, Note_on_c, 0, 63, 64
2, 17326, Note_on_c, 0, 78, 69
2, 17352, Note_on_c, 0, 63, 0
2, 17399, Note_on_c, 0, 78, 0
2, 17412, Note_on_c, 0, 77, 74
2, 17478, Note_on_c, 0, 77, 0
2, 17489, Note_on_c, 0, 51, 70
2, 17491, Note_on_c, 0, 75, 69
2, 17515, Note_on_c, 0, 51, 0
2, 17555, Note_on_c, 0, 75, 0
2, 17578, Note_on_c, 0, 77, 69
2, 17631, Note_on_c, 0, 77, 0
2, 17652, Note_on_c, 0, 78, 73
2, 17662, Note_on_c, 0, 63, 65
2, 17695, Note_on_c, 0, 78, 0
2, 17746, Note_on_c, 0, 75, 67
2, 17802, Note_on_c, 0, 75, 0
2, 17817, Note_on_c, 0, 81, 72
2, 17901, Note_on_c, 0, 79, 79
2, 17903, Note_on_c, 0, 81, 0
2, 17938, Note_on_c, 0, 63, 0
2, 17963, Note_on_c, 0, 79, 0
2, 17974, Note_on_c, 0, 77, 79
2, 17978, Note_on_c, 0, 61, 66
2, 18009, Note_on_c, 0, 61, 0
2, 18040, Note_on_c, 0, 77, 0
2, 18051, Note_on_c, 0, 79, 81
2, 18132, Note_on_c, 0, 79, 0
2, 18143, Note_on_c, 0, 81, 80
2, 18150, Note_on_c, 0, 60, 68
2, 18178, Note_on_c, 0, 60, 0
2, 18184, Note_on_c, 0, 81, 0
2, 18218, Note_on_c, 0, 77, 80
2, 18295, Note_on_c, 0, 77, 0
2, 18303, Note_on_c, 0, 82, 82
2, 18304, Note_on_c, 0, 61, 69
2, 18330, Note_on_c, 0, 61, 0
2, 18364, Note_on_c, 0, 82, 0
2, 18380, Note_on_c, 0, 81, 79
2, 18461, Note_on_c, 0, 49, 68
2, 18467, Note_on_c, 0, 81, 0
2, 18468, Note_on_c, 0, 82, 83
2, 18494, Note_on_c, 0, 49, 0
2, 18540, Note_on_c, 0, 82, 0
2, 18549, Note_on_c, 0, 84, 86
2, 18633, Note_on_c, 0, 84, 0
2, 18637, Note_on_c, 0, 82, 80
2, 18653, Note_on_c, 0, 61, 61
2, 18713, Note_on_c, 0, 80, 73
2, 18722, Note_on_c, 0, 82, 0
2, 18784, Note_on_c, 0, 80, 0
2, 18792, Note_on_c, 0, 79, 71
2, 18847, Note_on_c, 0, 79, 0
2, 18880, Note_on_c, 0, 77, 71
2, 18909, Note_on_c, 0, 61, 0
2, 18952, Note_on_c, 0, 77, 0
2, 18958, Note_on_c, 0, 60, 56
2, 18962, Note_on_c, 0, 75, 69
2, 18992, Note_on_c, 0, 60, 0
2, 19021, Note_on_c, 0, 75, 0
2, 19042, Note_on_c, 0, 77, 75
2, 19111, Note_on_c, 0, 77, 0
2, 19118, Note_on_c, 0, 79, 73
2, 19124, Note_on_c, 0, 58, 63
2, 19154, Note_on_c, 0, 58, 0
2, 19184, Note_on_c, 0, 79, 0
2, 19196, Note_on_c, 0, 75, 75
2, 19244, Note_on_c, 0, 75, 0
2, 19277, Note_on_c, 0, 80, 81
2, 19282, Note_on_c, 0, 60, 59
2, 19308, Note_on_c, 0, 80, 0
2, 19340, Note_on_c, 0, 60, 0
2, 19366, Note_on_c, 0, 58, 64
2, 19431, Note_on_c, 0, 58, 0
2, 19442, Note_on_c, 0, 56, 69
2, 19444, Note_on_c, 0, 68, 80
2, 19470, Note_on_c, 0, 68, 0
2, 19514, Note_on_c, 0, 56, 0
2, 19523, Note_on_c, 0, 58, 77
2, 19582, Note_on_c, 0, 58, 0
2, 19625, Note_on_c, 0, 60, 66
2, 19632, Note_on_c, 0, 80, 82
2, 19683, Note_on_c, 0, 60, 0
2, 19701, Note_on_c, 0, 56, 70
2, 19763, Note_on_c, 0, 56, 0
2, 19799, Note_on_c, 0, 62, 65
2, 19862, Note_on_c, 0, 62, 0
2, 19876, Note_on_c, 0, 60, 70
2, 19941, Note_on_c, 0, 60, 0
2, 19952, Note_on_c, 0, 78, 72
2, 19952, Note_on_c, 0, 80, 0
2, 19960, Note_on_c, 0, 58, 68
2, 19986, Note_on_c, 0, 78, 0
2, 20023, Note_on_c, 0, 58, 0
2, 20044, Note_on_c, 0, 60, 69
2, 20080, Note_on_c, 0, 60, 0
2, 20115, Note_on_c, 0, 77, 76
2, 20122, Note_on_c, 0, 62, 68
2, 20146, Note_on_c, 0, 77, 0
2, 20174, Note_on_c, 0, 62, 0
2, 20199, Note_on_c, 0, 58, 69
2, 20261, Note_on_c, 0, 58, 0
2, 20284, Note_on_c, 0, 78, 76
2, 20285, Note_on_c, 0, 63, 70
2, 20314, Note_on_c, 0, 78, 0
2, 20348, Note_on_c, 0, 63, 0
2, 20363, Note_on_c, 0, 62, 67
2, 20441, Note_on_c, 0, 62, 0
2, 20455, Note_on_c, 0, 66, 74
2, 20457, Note_on_c, 0, 63, 70
2, 20484, Note_on_c, 0, 66, 0
2, 20495, Note_on_c, 0, 63, 0
2, 20531, Note_on_c, 0, 65, 69
2, 20603, Note_on_c, 0, 65, 0
2, 20617, Note_on_c, 0, 63, 67
2, 20627, Note_on_c, 0, 78, 81
2, 20691, Note_on_c, 0, 63, 0
2, 20706, Note_on_c, 0, 61, 64
2, 20750, Note_on_c, 0, 61, 0
2, 20797, Note_on_c, 0, 60, 63
2, 20866, Note_on_c, 0, 60, 0
2, 20875, Note_on_c, 0, 58, 67
2, 20942, Note_on_c, 0, 78, 0
2, 20944, Note_on_c, 0, 58, 0
2, 20963, Note_on_c, 0, 56, 66
2, 20965, Note_on_c, 0, 77, 66
2, 20997, Note_on_c, 0, 77, 0
2, 21017, Note_on_c, 0, 56, 0
2, 21044, Note_on_c, 0, 58, 66
2, 21081, Note_on_c, 0, 58, 0
2, 21131, Note_on_c, 0, 60, 60
2, 21144, Note_on_c, 0, 75, 68
2, 21177, Note_on_c, 0, 60, 0
2, 21192, Note_on_c, 0, 75, 0
2, 21200, Note_on_c, 0, 56, 66
2, 21246, Note_on_c, 0, 56, 0
2, 21301, Note_on_c, 0, 77, 71
2, 21312, Note_on_c, 0, 61, 67
2, 21342, Note_on_c, 0, 61, 0
2, 21381, Note_on_c, 0, 77, 0
2, 21389, Note_on_c, 0, 75, 72
2, 21453, Note_on_c, 0, 75, 0
2, 21468, Note_on_c, 0, 73, 65
2, 21471, Note_on_c, 0, 49, 58
2, 21495, Note_on_c, 0, 49, 0
2, 21538, Note_on_c, 0, 73, 0
2, 21557, Note_on_c, 0, 75, 63
2, 21611, Note_on_c, 0, 75, 0
2, 21633, Note_on_c, 0, 77, 72
2, 21649, Note_on_c, 0, 61, 62
2, 21673, Note_on_c, 0, 77, 0
2, 21717, Note_on_c, 0, 73, 70
2, 21771, Note_on_c, 0, 73, 0
2, 21802, Note_on_c, 0, 79, 70
2, 21881, Note_on_c, 0, 79, 0
2, 21885, Note_on_c, 0, 77, 75
2, 21886, Note_on_c, 0, 61, 0
2, 21957, Note_on_c, 0, 77, 0
2, 21963, Note_on_c, 0, 75, 76
2, 21964, Note_on_c, 0, 59, 57
2, 21992, Note_on_c, 0, 59, 0
2, 22022, Note_on_c, 0, 75, 0
2, 22041, Note_on_c, 0, 77, 80
2, 22112, Note_on_c, 0, 77, 0
2, 22117, Note_on_c, 0, 79, 79
2, 22124, Note_on_c, 0, 58, 68
2, 22153, Note_on_c, 0, 79, 0
2, 22156, Note_on_c, 0, 58, 0
2, 22199, Note_on_c, 0, 75, 78
2, 22268, Note_on_c, 0, 75, 0
2, 22276, Note_on_c, 0, 59, 70
2, 22276, Note_on_c, 0, 80, 81
2, 22304, Note_on_c, 0, 59, 0
2, 22350, Note_on_c, 0, 80, 0
2, 22356, Note_on_c, 0, 79, 75
2, 22436, Note_on_c, 0, 47, 61
2, 22440, Note_on_c, 0, 79, 0
2, 22443, Note_on_c, 0, 80, 77
2, 22465, Note_on_c, 0, 47, 0
2, 22508, Note_on_c, 0, 80, 0
2, 22520, Note_on_c, 0, 82, 81
2, 22613, Note_on_c, 0, 80, 74
2, 22614, Note_on_c, 0, 82, 0
2, 22621, Note_on_c, 0, 59, 62
2, 22690, Note_on_c, 0, 80, 0
2, 22693, Note_on_c, 0, 78, 65
2, 22780, Note_on_c, 0, 78, 0
2, 22783, Note_on_c, 0, 77, 78
2, 22855, Note_on_c, 0, 59, 0
2, 22857, Note_on_c, 0, 77, 0
2, 22871, Note_on_c, 0, 75, 76
2, 22932, Note_on_c, 0, 75, 0
2, 22945, Note_on_c, 0, 73, 74
2, 22955, Note_on_c, 0, 58, 63
2, 22984, Note_on_c, 0, 58, 0
2, 23020, Note_on_c, 0, 73, 0
2, 23030, Note_on_c, 0, 75, 74
2, 23094, Note_on_c, 0, 75, 0
2, 23106, Note_on_c, 0, 77, 73
2, 23110, Note_on_c, 0, 56, 60
2, 23150, Note_on_c, 0, 56, 0
2, 23161, Note_on_c, 0, 77, 0
2, 23189, Note_on_c, 0, 73, 64
2, 23255, Note_on_c, 0, 73, 0
2, 23273, Note_on_c, 0, 66, 61
2, 23276, Note_on_c, 0, 58, 53
2, 23323, Note_on_c, 0, 58, 0
2, 23370, Note_on_c, 0, 54, 56
2, 23422, Note_on_c, 0, 54, 0
2, 23446, Note_on_c, 0, 49, 59
2, 23528, Note_on_c, 0, 49, 0
2, 23547, Note_on_c, 0, 54, 57
2, 23571, Note_on_c, 0, 66, 0
2, 23586, Note_on_c, 0, 54, 0
2, 23605, Note_on_c, 0, 78, 59
2, 23616, Note_on_c, 0, 58, 56
2, 23636, Note_on_c, 0, 78, 0
2, 23649, Note_on_c, 0, 58, 0
2, 23687, Note_on_c, 0, 54, 51
2, 23748, Note_on_c, 0, 54, 0
2, 23770, Note_on_c, 0, 59, 60
2, 23777, Note_on_c, 0, 68, 63
2, 23818, Note_on_c, 0, 59, 0
2, 23869, Note_on_c, 0, 54, 55
2, 23909, Note_on_c, 0, 54, 0
2, 23932, Note_on_c, 0, 59, 65
2, 23973, Note_on_c, 0, 59, 0
2, 24016, Note_on_c, 0, 54, 57
2, 24075, Note_on_c, 0, 54, 0
2, 24094, Note_on_c, 0, 59, 66
2, 24097, Note_on_c, 0, 68, 0
2, 24101, Note_on_c, 0, 78, 69
2, 24130, Note_on_c, 0, 78, 0
2, 24134, Note_on_c, 0, 59, 0
2, 24192, Note_on_c, 0, 54, 58
2, 24242, Note_on_c, 0, 54, 0
2, 24275, Note_on_c, 0, 61, 67
2, 24278, Note_on_c, 0, 70, 68
2, 24327, Note_on_c, 0, 61, 0
2, 24357, Note_on_c, 0, 54, 59
2, 24429, Note_on_c, 0, 54, 0
2, 24443, Note_on_c, 0, 61, 65
2, 24492, Note_on_c, 0, 61, 0
2, 24531, Note_on_c, 0, 54, 63
2, 24591, Note_on_c, 0, 54, 0
2, 24603, Note_on_c, 0, 70, 0
2, 24612, Note_on_c, 0, 61, 72
2, 24617, Note_on_c, 0, 78, 77
2, 24646, Note_on_c, 0, 78, 0
2, 24654, Note_on_c, 0, 61, 0
2, 24694, Note_on_c, 0, 54, 71
2, 24761, Note_on_c, 0, 54, 0
2, 24785, Note_on_c, 0, 71, 78
2, 24792, Note_on_c, 0, 63, 66
2, 24833, Note_on_c, 0, 63, 0
2, 24865, Note_on_c, 0, 54, 71
2, 24929, Note_on_c, 0, 54, 0
2, 24954, Note_on_c, 0, 63, 67
2, 25011, Note_on_c, 0, 63, 0
2, 25053, Note_on_c, 0, 54, 65
2, 25094, Note_on_c, 0, 54, 0
2, 25127, Note_on_c, 0, 71, 0
2, 25133, Note_on_c, 0, 63, 65
2, 25142, Note_on_c, 0, 78, 67
2, 25170, Note_on_c, 0, 63, 0
2, 25171, Note_on_c, 0, 78, 0
2, 25213, Note_on_c, 0, 54, 64
2, 25272, Note_on_c, 0, 54, 0
2, 25301, Note_on_c, 0, 70, 65
2, 25304, Note_on_c, 0, 61, 66
2, 25345, Note_on_c, 0, 61, 0
2, 25389, Note_on_c, 0, 54, 63
2, 25434, Note_on_c, 0, 54, 0
2, 25470, Note_on_c, 0, 61, 63
2, 25519, Note_on_c, 0, 61, 0
2, 25554, Note_on_c, 0, 54, 62
2, 25600, Note_on_c, 0, 54, 0
2, 25620, Note_on_c, 0, 70, 0
2, 25638, Note_on_c, 0, 61, 65
2, 25643, Note_on_c, 0, 78, 69
2, 25676, Note_on_c, 0, 78, 0
2, 25692, Note_on_c, 0, 61, 0
2, 25713, Note_on_c, 0, 54, 65
2, 25766, Note_on_c, 0, 54, 0
2, 25813, Note_on_c, 0, 59, 63
2, 25815, Note_on_c, 0, 68, 66
2, 25887, Note_on_c, 0, 59, 0
2, 25906, Note_on_c, 0, 58, 65
2, 25973, Note_on_c, 0, 58, 0
2, 25987, Note_on_c, 0, 56, 67
2, 26050, Note_on_c, 0, 56, 0
2, 26066, Note_on_c, 0, 58, 71
2, 26098, Note_on_c, 0, 68, 0
2, 26103, Note_on_c, 0, 58, 0
2, 26146, Note_on_c, 0, 59, 68
2, 26148, Note_on_c, 0, 77, 69
2, 26177, Note_on_c, 0, 77, 0
2, 26190, Note_on_c, 0, 59, 0
2, 26222, Note_on_c, 0, 56, 62
2, 26280, Note_on_c, 0, 56, 0
2, 26302, Note_on_c, 0, 66, 57
2, 26308, Note_on_c, 0, 58, 60
2, 26368, Note_on_c, 0, 58, 0
2, 26397, Note_on_c, 0, 56, 69
2, 26446, Note_on_c, 0, 56, 0
2, 26471, Note_on_c, 0, 54, 62
2, 26493, Note_on_c, 0, 66, 0
2, 26552, Note_on_c, 0, 54, 0
2, 26562, Note_on_c, 0, 56, 68
2, 26629, Note_on_c, 0, 56, 0
2, 26647, Note_on_c, 0, 58, 68
2, 26650, Note_on_c, 0, 78, 84
2, 26712, Note_on_c, 0, 58, 0
2, 26740, Note_on_c, 0, 54, 67
2, 26815, Note_on_c, 0, 54, 0
2, 26834, Note_on_c, 0, 56, 66
2, 26888, Note_on_c, 0, 56, 0
2, 26910, Note_on_c, 0, 58, 65
2, 26984, Note_on_c, 0, 58, 0
2, 26984, Note_on_c, 0, 78, 0
2, 26989, Note_on_c, 0, 77, 67
2, 26999, Note_on_c, 0, 56, 63
2, 27046, Note_on_c, 0, 56, 0
2, 27062, Note_on_c, 0, 77, 0
2, 27069, Note_on_c, 0, 54, 64
2, 27075, Note_on_c, 0, 75, 70
2, 27113, Note_on_c, 0, 54, 0
2, 27134, Note_on_c, 0, 75, 0
2, 27149, Note_on_c, 0, 73, 69
2, 27161, Note_on_c, 0, 53, 60
2, 27200, Note_on_c, 0, 53, 0
2, 27221, Note_on_c, 0, 73, 0
2, 27223, Note_on_c, 0, 51, 66
2, 27231, Note_on_c, 0, 75, 71
2, 27302, Note_on_c, 0, 51, 0
2, 27305, Note_on_c, 0, 75, 0
2, 27323, Note_on_c, 0, 49, 57
2, 27325, Note_on_c, 0, 77, 70
2, 27387, Note_on_c, 0, 77, 0
2, 27401, Note_on_c, 0, 73, 71
2, 27453, Note_on_c, 0, 73, 0
2, 27481, Note_on_c, 0, 68, 65
2, 27552, Note_on_c, 0, 68, 0
2, 27570, Note_on_c, 0, 73, 65
2, 27604, Note_on_c, 0, 49, 0
2, 27612, Note_on_c, 0, 73, 0
2, 27641, Note_on_c, 0, 77, 68
2, 27648, Note_on_c, 0, 61, 49
2, 27673, Note_on_c, 0, 77, 0
2, 27682, Note_on_c, 0, 61, 0
2, 27727, Note_on_c, 0, 73, 67
2, 27768, Note_on_c, 0, 73, 0
2, 27790, Note_on_c, 0, 51, 47
2, 27805, Note_on_c, 0, 78, 67
2, 27841, Note_on_c, 0, 78, 0
2, 27885, Note_on_c, 0, 73, 60
2, 27937, Note_on_c, 0, 73, 0
2, 27965, Note_on_c, 0, 78, 69
2, 28003, Note_on_c, 0, 78, 0
2, 28048, Note_on_c, 0, 73, 63
2, 28096, Note_on_c, 0, 73, 0
2, 28118, Note_on_c, 0, 51, 0
2, 28132, Note_on_c, 0, 78, 69
2, 28135, Note_on_c, 0, 61, 39
2, 28163, Note_on_c, 0, 78, 0
2, 28169, Note_on_c, 0, 61, 0
2, 28213, Note_on_c, 0, 73, 60
2, 28264, Note_on_c, 0, 73, 0
2, 28294, Note_on_c, 0, 80, 68
2, 28296, Note_on_c, 0, 53, 44
2, 28328, Note_on_c, 0, 80, 0
2, 28380, Note_on_c, 0, 73, 62
2, 28431, Note_on_c, 0, 73, 0
2, 28456, Note_on_c, 0, 80, 73
2, 28491, Note_on_c, 0, 80, 0
2, 28533, Note_on_c, 0, 73, 70
2, 28569, Note_on_c, 0, 53, 0
2, 28595, Note_on_c, 0, 73, 0
2, 28611, Note_on_c, 0, 80, 85
2, 28626, Note_on_c, 0, 61, 50
2, 28654, Note_on_c, 0, 61, 0
2, 28666, Note_on_c, 0, 80, 0
2, 28699, Note_on_c, 0, 73, 78
2, 28759, Note_on_c, 0, 73, 0
2, 28785, Note_on_c, 0, 82, 90
2, 28791, Note_on_c, 0, 54, 54
2, 28839, Note_on_c, 0, 82, 0
2, 28876, Note_on_c, 0, 73, 73
2, 28933, Note_on_c, 0, 73, 0
2, 28953, Note_on_c, 0, 82, 84
2, 29005, Note_on_c, 0, 82, 0
2, 29044, Note_on_c, 0, 73, 72
2, 29078, Note_on_c, 0, 54, 0
2, 29097, Note_on_c, 0, 73, 0
2, 29109, Note_on_c, 0, 82, 80
2, 29123, Note_on_c, 0, 61, 52
2, 29154, Note_on_c, 0, 82, 0
2, 29157, Note_on_c, 0, 61, 0
2, 29200, Note_on_c, 0, 73, 64
2, 29248, Note_on_c, 0, 73, 0
2, 29273, Note_on_c, 0, 80, 72
2, 29285, Note_on_c, 0, 53, 48
2, 29312, Note_on_c, 0, 80, 0
2, 29358, Note_on_c, 0, 73, 67
2, 29408, Note_on_c, 0, 73, 0
2, 29428, Note_on_c, 0, 80, 72
2, 29469, Note_on_c, 0, 80, 0
2, 29516, Note_on_c, 0, 73, 62
2, 29539, Note_on_c, 0, 53, 0
2, 29576, Note_on_c, 0, 73, 0
2, 29589, Note_on_c, 0, 80, 71
2, 29602, Note_on_c, 0, 61, 48
2, 29631, Note_on_c, 0, 61, 0
2, 29641, Note_on_c, 0, 80, 0
2, 29688, Note_on_c, 0, 73, 62
2, 29735, Note_on_c, 0, 73, 0
2, 29765, Note_on_c, 0, 78, 67
2, 29766, Note_on_c, 0, 51, 49
2, 29827, Note_on_c, 0, 78, 0
2, 29846, Note_on_c, 0, 77, 69
2, 29912, Note_on_c, 0, 77, 0
2, 29927, Note_on_c, 0, 75, 69
2, 29984, Note_on_c, 0, 75, 0
2, 30008, Note_on_c, 0, 77, 71
2, 30013, Note_on_c, 0, 51, 0
2, 30073, Note_on_c, 0, 77, 0
2, 30083, Note_on_c, 0, 78, 76
2, 30088, Note_on_c, 0, 60, 47
2, 30114, Note_on_c, 0, 60, 0
2, 30145, Note_on_c, 0, 78, 0
2, 30163, Note_on_c, 0, 75, 70
2, 30234, Note_on_c, 0, 75, 0
2, 30247, Note_on_c, 0, 77, 80
2, 30254, Note_on_c, 0, 49, 37
2, 30316, Note_on_c, 0, 77, 0
2, 30335, Note_on_c, 0, 75, 75
2, 30383, Note_on_c, 0, 49, 0
2, 30407, Note_on_c, 0, 75, 0
2, 30423, Note_on_c, 0, 73, 74
2, 30494, Note_on_c, 0, 73, 0
2, 30498, Note_on_c, 0, 75, 77
2, 30568, Note_on_c, 0, 75, 0
2, 30577, Note_on_c, 0, 77, 83
2, 30598, Note_on_c, 0, 61, 59
2, 30631, Note_on_c, 0, 61, 0
2, 30649, Note_on_c, 0, 77, 0
2, 30665, Note_on_c, 0, 73, 72
2, 30737, Note_on_c, 0, 73, 0
2, 30744, Note_on_c, 0, 75, 73
2, 30745, Note_on_c, 0, 54, 54
2, 30789, Note_on_c, 0, 54, 0
2, 30811, Note_on_c, 0, 75, 0
2, 30824, Note_on_c, 0, 77, 75
2, 30883, Note_on_c, 0, 77, 0
2, 30902, Note_on_c, 0, 53, 42
2, 30903, Note_on_c, 0, 75, 73
2, 30935, Note_on_c, 0, 53, 0
2, 30973, Note_on_c, 0, 75, 0
2, 30989, Note_on_c, 0, 73, 62
2, 31033, Note_on_c, 0, 73, 0
2, 31051, Note_on_c, 0, 51, 58
2, 31054, Note_on_c, 0, 72, 66
2, 31080, Note_on_c, 0, 51, 0
2, 31142, Note_on_c, 0, 72, 0
2, 31153, Note_on_c, 0, 70, 60
2, 31189, Note_on_c, 0, 70, 0
2, 31217, Note_on_c, 0, 56, 56
2, 31225, Note_on_c, 0, 72, 65
2, 31253, Note_on_c, 0, 56, 0
2, 31268, Note_on_c, 0, 72, 0
2, 31319, Note_on_c, 0, 68, 50
2, 31345, Note_on_c, 0, 68, 0
2, 31384, Note_on_c, 0, 66, 54
2, 31419, Note_on_c, 0, 66, 0
2, 31467, Note_on_c, 0, 68, 58
2, 31508, Note_on_c, 0, 68, 0
2, 31533, Note_on_c, 0, 63, 47
2, 31581, Note_on_c, 0, 63, 0
2, 31622, Note_on_c, 0, 68, 53
2, 31667, Note_on_c, 0, 68, 0
2, 31679, Note_on_c, 0, 56, 48
2, 31691, Note_on_c, 0, 72, 65
2, 31719, Note_on_c, 0, 56, 0
2, 31734, Note_on_c, 0, 72, 0
2, 31772, Note_on_c, 0, 68, 59
2, 31806, Note_on_c, 0, 68, 0
2, 31858, Note_on_c, 0, 66, 46
2, 31891, Note_on_c, 0, 66, 0
2, 31932, Note_on_c, 0, 68, 54
2, 31968, Note_on_c, 0, 68, 0
2, 32012, Note_on_c, 0, 63, 52
2, 32056, Note_on_c, 0, 63, 0
2, 32081, Note_on_c, 0, 68, 53
2, 32126, Note_on_c, 0, 68, 0
2, 32154, Note_on_c, 0, 73, 64
2, 32166, Note_on_c, 0, 56, 41
2, 32197, Note_on_c, 0, 73, 0
2, 32212, Note_on_c, 0, 56, 0
2, 32250, Note_on_c, 0, 68, 47
2, 32277, Note_on_c, 0, 68, 0
2, 32328, Note_on_c, 0, 65, 42
2, 32358, Note_on_c, 0, 65, 0
2, 32379, Note_on_c, 0, 68, 48
2, 32426, Note_on_c, 0, 68, 0
2, 32476, Note_on_c, 0, 61, 44
2, 32513, Note_on_c, 0, 61, 0
2, 32542, Note_on_c, 0, 68, 55
2, 32583, Note_on_c, 0, 68, 0
2, 32613, Note_on_c, 0, 56, 42
2, 32624, Note_on_c, 0, 73, 57
2, 32664, Note_on_c, 0, 56, 0
2, 32674, Note_on_c, 0, 73, 0
2, 32716, Note_on_c, 0, 68, 52
2, 32744, Note_on_c, 0, 68, 0
2, 32803, Note_on_c, 0, 65, 41
2, 32834, Note_on_c, 0, 65, 0
2, 32866, Note_on_c, 0, 68, 48
2, 32898, Note_on_c, 0, 68, 0
2, 32953, Note_on_c, 0, 61, 52
2, 32989, Note_on_c, 0, 61, 0
2, 33022, Note_on_c, 0, 68, 60
2, 33069, Note_on_c, 0, 68, 0
2, 33098, Note_on_c, 0, 56, 44
2, 33101, Note_on_c, 0, 78, 79
2, 33135, Note_on_c, 0, 56, 0
2, 33162, Note_on_c, 0, 78, 0
2, 33181, Note_on_c, 0, 68, 66
2, 33213, Note_on_c, 0, 68, 0
2, 33254, Note_on_c, 0, 63, 51
2, 33294, Note_on_c, 0, 63, 0
2, 33338, Note_on_c, 0, 68, 58
2, 33373, Note_on_c, 0, 68, 0
2, 33409, Note_on_c, 0, 60, 44
2, 33463, Note_on_c, 0, 60, 0
2, 33493, Note_on_c, 0, 68, 57
2, 33534, Note_on_c, 0, 68, 0
2, 33573, Note_on_c, 0, 56, 47
2, 33579, Note_on_c, 0, 78, 61
2, 33615, Note_on_c, 0, 78, 0
2, 33619, Note_on_c, 0, 56, 0
2, 33656, Note_on_c, 0, 68, 58
2, 33686, Note_on_c, 0, 68, 0
2, 33733, Note_on_c, 0, 63, 51
2, 33768, Note_on_c, 0, 63, 0
2, 33813, Note_on_c, 0, 68, 54
2, 33843, Note_on_c, 0, 68, 0
2, 33879, Note_on_c, 0, 60, 54
2, 33920, Note_on_c, 0, 60, 0
2, 33956, Note_on_c, 0, 68, 57
2, 34001, Note_on_c, 0, 68, 0
2, 34035, Note_on_c, 0, 56, 42
2, 34040, Note_on_c, 0, 77, 66
2, 34074, Note_on_c, 0, 77, 0
2, 34077, Note_on_c, 0, 56, 0
2, 34128, Note_on_c, 0, 68, 43
2, 34155, Note_on_c, 0, 68, 0
2, 34206, Note_on_c, 0, 65, 44
2, 34246, Note_on_c, 0, 65, 0
2, 34281, Note_on_c, 0, 68, 50
2, 34318, Note_on_c, 0, 68, 0
2, 34357, Note_on_c, 0, 61, 39
2, 34395, Note_on_c, 0, 61, 0
2, 34444, Note_on_c, 0, 68, 54
2, 34487, Note_on_c, 0, 68, 0
2, 34496, Note_on_c, 0, 56, 44
2, 34516, Note_on_c, 0, 77, 64
2, 34542, Note_on_c, 0, 56, 0
2, 34551, Note_on_c, 0, 77, 0
2, 34610, Note_on_c, 0, 68, 43
2, 34640, Note_on_c, 0, 68, 0
2, 34664, Note_on_c, 0, 65, 46
2, 34698, Note_on_c, 0, 65, 0
2, 34750, Note_on_c, 0, 68, 58
2, 34791, Note_on_c, 0, 68, 0
2, 34821, Note_on_c, 0, 61, 48
2, 34856, Note_on_c, 0, 61, 0
2, 34897, Note_on_c, 0, 68, 65
2, 34946, Note_on_c, 0, 68, 0
2, 34978, Note_on_c, 0, 56, 44
2, 34984, Note_on_c, 0, 79, 76
2, 35021, Note_on_c, 0, 56, 0
2, 35024, Note_on_c, 0, 79, 0
2, 35071, Note_on_c, 0, 70, 49
2, 35094, Note_on_c, 0, 70, 0
2, 35141, Note_on_c, 0, 64, 55
2, 35175, Note_on_c, 0, 64, 0
2, 35203, Note_on_c, 0, 70, 61
2, 35242, Note_on_c, 0, 70, 0
2, 35295, Note_on_c, 0, 61, 56
2, 35329, Note_on_c, 0, 61, 0
2, 35360, Note_on_c, 0, 70, 68
2, 35400, Note_on_c, 0, 70, 0
2, 35439, Note_on_c, 0, 56, 49
2, 35442, Note_on_c, 0, 79, 77
2, 35475, Note_on_c, 0, 79, 0
2, 35483, Note_on_c, 0, 56, 0
2, 35520, Note_on_c, 0, 70, 64
2, 35550, Note_on_c, 0, 70, 0
2, 35600, Note_on_c, 0, 64, 56
2, 35637, Note_on_c, 0, 64, 0
2, 35664, Note_on_c, 0, 70, 63
2, 35695, Note_on_c, 0, 70, 0
2, 35768, Note_on_c, 0, 61, 62
2, 35802, Note_on_c, 0, 61, 0
2, 35816, Note_on_c, 0, 70, 66
2, 35862, Note_on_c, 0, 70, 0
2, 35905, Note_on_c, 0, 80, 73
2, 35906, Note_on_c, 0, 56, 68
2, 35940, Note_on_c, 0, 80, 0
2, 35945, Note_on_c, 0, 56, 0
2, 35996, Note_on_c, 0, 72, 60
2, 36025, Note_on_c, 0, 72, 0
2, 36074, Note_on_c, 0, 63, 60
2, 36105, Note_on_c, 0, 63, 0
2, 36146, Note_on_c, 0, 72, 60
2, 36180, Note_on_c, 0, 72, 0
2, 36211, Note_on_c, 0, 60, 63
2, 36253, Note_on_c, 0, 60, 0
2, 36294, Note_on_c, 0, 72, 67
2, 36332, Note_on_c, 0, 72, 0
2, 36365, Note_on_c, 0, 54, 74
2, 36370, Note_on_c, 0, 80, 78
2, 36401, Note_on_c, 0, 54, 0
2, 36414, Note_on_c, 0, 80, 0
2, 36443, Note_on_c, 0, 72, 72
2, 36477, Note_on_c, 0, 72, 0
2, 36535, Note_on_c, 0, 63, 67
2, 36568, Note_on_c, 0, 63, 0
2, 36612, Note_on_c, 0, 72, 67
2, 36642, Note_on_c, 0, 72, 0
2, 36670, Note_on_c, 0, 60, 71
2, 36708, Note_on_c, 0, 60, 0
2, 36749, Note_on_c, 0, 72, 73
2, 36790, Note_on_c, 0, 72, 0
2, 36825, Note_on_c, 0, 80, 85
2, 36839, Note_on_c, 0, 53, 73
2, 36874, Note_on_c, 0, 53, 0
2, 36911, Note_on_c, 0, 73, 78
2, 36915, Note_on_c, 0, 80, 0
2, 36946, Note_on_c, 0, 73, 0
2, 36991, Note_on_c, 0, 65, 63
2, 37025, Note_on_c, 0, 65, 0
2, 37064, Note_on_c, 0, 68, 73
2, 37098, Note_on_c, 0, 68, 0
2, 37140, Note_on_c, 0, 61, 71
2, 37183, Note_on_c, 0, 61, 0
2, 37218, Note_on_c, 0, 73, 71
2, 37254, Note_on_c, 0, 73, 0
2, 37303, Note_on_c, 0, 56, 73
2, 37350, Note_on_c, 0, 56, 0
2, 37385, Note_on_c, 0, 77, 65
2, 37415, Note_on_c, 0, 77, 0
2, 37460, Note_on_c, 0, 53, 72
2, 37494, Note_on_c, 0, 53, 0
2, 37542, Note_on_c, 0, 80, 64
2, 37574, Note_on_c, 0, 80, 0
2, 37623, Note_on_c, 0, 51, 74
2, 37661, Note_on_c, 0, 51, 0
2, 37706, Note_on_c, 0, 82, 73
2, 37762, Note_on_c, 0, 82, 0
2, 37785, Note_on_c, 0, 50, 72
2, 37793, Note_on_c, 0, 83, 80
2, 37819, Note_on_c, 0, 50, 0
2, 37870, Note_on_c, 0, 82, 82
2, 37873, Note_on_c, 0, 83, 0
2, 37936, Note_on_c, 0, 53, 56
2, 37954, Note_on_c, 0, 82, 0
2, 37959, Note_on_c, 0, 80, 71
2, 37973, Note_on_c, 0, 53, 0
2, 38029, Note_on_c, 0, 80, 0
2, 38032, Note_on_c, 0, 78, 70
2, 38106, Note_on_c, 0, 78, 0
2, 38114, Note_on_c, 0, 58, 69
2, 38119, Note_on_c, 0, 77, 74
2, 38140, Note_on_c, 0, 58, 0
2, 38165, Note_on_c, 0, 77, 0
2, 38203, Note_on_c, 0, 75, 74
2, 38259, Note_on_c, 0, 75, 0
2, 38265, Note_on_c, 0, 62, 68
2, 38278, Note_on_c, 0, 77, 78
2, 38301, Note_on_c, 0, 62, 0
2, 38344, Note_on_c, 0, 77, 0
2, 38355, Note_on_c, 0, 78, 77
2, 38429, Note_on_c, 0, 78, 0
2, 38430, Note_on_c, 0, 65, 68
2, 38430, Note_on_c, 0, 80, 81
2, 38456, Note_on_c, 0, 65, 0
2, 38503, Note_on_c, 0, 80, 0
2, 38515, Note_on_c, 0, 83, 80
2, 38583, Note_on_c, 0, 82, 81
2, 38585, Note_on_c, 0, 68, 73
2, 38586, Note_on_c, 0, 83, 0
2, 38612, Note_on_c, 0, 68, 0
2, 38663, Note_on_c, 0, 80, 80
2, 38672, Note_on_c, 0, 82, 0
2, 38736, Note_on_c, 0, 66, 75
2, 38742, Note_on_c, 0, 80, 0
2, 38754, Note_on_c, 0, 82, 84
2, 38761, Note_on_c, 0, 66, 0
2, 38829, Note_on_c, 0, 82, 0
2, 38837, Note_on_c, 0, 75, 81
2, 38861, Note_on_c, 0, 75, 0
2, 38914, Note_on_c, 0, 63, 70
2, 38952, Note_on_c, 0, 63, 0
2, 39004, Note_on_c, 0, 66, 56
2, 39037, Note_on_c, 0, 66, 0
2, 39073, Note_on_c, 0, 58, 70
2, 39112, Note_on_c, 0, 58, 0
2, 39155, Note_on_c, 0, 70, 59
2, 39185, Note_on_c, 0, 70, 0
2, 39228, Note_on_c, 0, 54, 71
2, 39266, Note_on_c, 0, 54, 0
2, 39302, Note_on_c, 0, 75, 63
2, 39334, Note_on_c, 0, 75, 0
2, 39396, Note_on_c, 0, 51, 73
2, 39430, Note_on_c, 0, 51, 0
2, 39453, Note_on_c, 0, 78, 73
2, 39484, Note_on_c, 0, 78, 0
2, 39552, Note_on_c, 0, 49, 71
2, 39599, Note_on_c, 0, 49, 0
2, 39647, Note_on_c, 0, 80, 75
2, 39708, Note_on_c, 0, 80, 0
2, 39729, Note_on_c, 0, 81, 75
2, 39733, Note_on_c, 0, 48, 60
2, 39777, Note_on_c, 0, 48, 0
2, 39813, Note_on_c, 0, 80, 77
2, 39813, Note_on_c, 0, 81, 0
2, 39892, Note_on_c, 0, 51, 67
2, 39894, Note_on_c, 0, 78, 68
2, 39902, Note_on_c, 0, 80, 0
2, 39931, Note_on_c, 0, 51, 0
2, 39950, Note_on_c, 0, 78, 0
2, 39971, Note_on_c, 0, 76, 67
2, 40019, Note_on_c, 0, 76, 0
2, 40052, Note_on_c, 0, 75, 72
2, 40054, Note_on_c, 0, 56, 66
2, 40083, Note_on_c, 0, 56, 0
2, 40103, Note_on_c, 0, 75, 0
2, 40127, Note_on_c, 0, 73, 71
2, 40206, Note_on_c, 0, 73, 0
2, 40208, Note_on_c, 0, 60, 65
2, 40208, Note_on_c, 0, 75, 80
2, 40245, Note_on_c, 0, 60, 0
2, 40251, Note_on_c, 0, 75, 0
2, 40279, Note_on_c, 0, 76, 75
2, 40359, Note_on_c, 0, 76, 0
2, 40361, Note_on_c, 0, 63, 67
2, 40365, Note_on_c, 0, 78, 82
2, 40394, Note_on_c, 0, 63, 0
2, 40437, Note_on_c, 0, 78, 0
2, 40448, Note_on_c, 0, 81, 81
2, 40518, Note_on_c, 0, 66, 65
2, 40527, Note_on_c, 0, 80, 81
2, 40530, Note_on_c, 0, 81, 0
2, 40548, Note_on_c, 0, 66, 0
2, 40601, Note_on_c, 0, 78, 79
2, 40618, Note_on_c, 0, 80, 0
2, 40678, Note_on_c, 0, 78, 0
2, 40684, Note_on_c, 0, 80, 84
2, 40685, Note_on_c, 0, 64, 66
2, 40714, Note_on_c, 0, 64, 0
2, 40760, Note_on_c, 0, 80, 0
2, 40770, Note_on_c, 0, 73, 72
2, 40801, Note_on_c, 0, 73, 0
2, 40853, Note_on_c, 0, 61, 64
2, 40883, Note_on_c, 0, 61, 0
2, 40926, Note_on_c, 0, 76, 72
2, 40961, Note_on_c, 0, 76, 0
2, 41002, Note_on_c, 0, 57, 66
2, 41037, Note_on_c, 0, 57, 0
2, 41080, Note_on_c, 0, 73, 68
2, 41120, Note_on_c, 0, 73, 0
2, 41167, Note_on_c, 0, 54, 74
2, 41199, Note_on_c, 0, 54, 0
2, 41236, Note_on_c, 0, 69, 61
2, 41266, Note_on_c, 0, 69, 0
2, 41338, Note_on_c, 0, 63, 68
2, 41366, Note_on_c, 0, 63, 0
2, 41408, Note_on_c, 0, 66, 57
2, 41441, Note_on_c, 0, 66, 0
2, 41496, Note_on_c, 0, 60, 65
2, 41527, Note_on_c, 0, 60, 0
2, 41572, Note_on_c, 0, 75, 66
2, 41604, Note_on_c, 0, 75, 0
2, 41654, Note_on_c, 0, 52, 59
2, 41685, Note_on_c, 0, 52, 0
2, 41727, Note_on_c, 0, 68, 61
2, 41762, Note_on_c, 0, 68, 0
2, 41826, Note_on_c, 0, 61, 58
2, 41856, Note_on_c, 0, 61, 0
2, 41869, Note_on_c, 0, 64, 60
2, 41909, Note_on_c, 0, 64, 0
2, 41985, Note_on_c, 0, 57, 67
2, 42009, Note_on_c, 0, 57, 0
2, 42029, Note_on_c, 0, 73, 63
2, 42069, Note_on_c, 0, 73, 0
2, 42138, Note_on_c, 0, 54, 59
2, 42168, Note_on_c, 0, 54, 0
2, 42191, Note_on_c, 0, 69, 62
2, 42232, Note_on_c, 0, 69, 0
2, 42292, Note_on_c, 0, 51, 64
2, 42324, Note_on_c, 0, 51, 0
2, 42365, Note_on_c, 0, 66, 58
2, 42409, Note_on_c, 0, 66, 0
2, 42451, Note_on_c, 0, 48, 57
2, 42484, Note_on_c, 0, 48, 0
2, 42529, Note_on_c, 0, 63, 58
2, 42569, Note_on_c, 0, 63, 0
2, 42614, Note_on_c, 0, 44, 55
2, 42624, Note_on_c, 0, 60, 68
2, 42644, Note_on_c, 0, 44, 0
2, 42669, Note_on_c, 0, 60, 0
2, 42708, Note_on_c, 0, 56, 62
2, 42741, Note_on_c, 0, 56, 0
2, 42793, Note_on_c, 0, 54, 58
2, 42829, Note_on_c, 0, 54, 0
2, 42875, Note_on_c, 0, 56, 53
2, 42909, Note_on_c, 0, 56, 0
2, 42939, Note_on_c, 0, 51, 60
2, 42979, Note_on_c, 0, 51, 0
2, 43011, Note_on_c, 0, 56, 50
2, 43062, Note_on_c, 0, 56, 0
2, 43093, Note_on_c, 0, 60, 60
2, 43097, Note_on_c, 0, 44, 41
2, 43135, Note_on_c, 0, 44, 0
2, 43135, Note_on_c, 0, 60, 0
2, 43172, Note_on_c, 0, 56, 56
2, 43207, Note_on_c, 0, 56, 0
2, 43257, Note_on_c, 0, 54, 54
2, 43295, Note_on_c, 0, 54, 0
2, 43332, Note_on_c, 0, 56, 48
2, 43364, Note_on_c, 0, 56, 0
2, 43404, Note_on_c, 0, 51, 58
2, 43446, Note_on_c, 0, 51, 0
2, 43485, Note_on_c, 0, 56, 45
2, 43528, Note_on_c, 0, 56, 0
2, 43558, Note_on_c, 0, 44, 44
2, 43574, Note_on_c, 0, 61, 52
2, 43604, Note_on_c, 0, 44, 0
2, 43616, Note_on_c, 0, 61, 0
2, 43647, Note_on_c, 0, 56, 49
2, 43680, Note_on_c, 0, 56, 0
2, 43735, Note_on_c, 0, 53, 44
2, 43766, Note_on_c, 0, 53, 0
2, 43812, Note_on_c, 0, 56, 45
2, 43841, Note_on_c, 0, 56, 0
2, 43883, Note_on_c, 0, 49, 49
2, 43922, Note_on_c, 0, 49, 0
2, 43966, Note_on_c, 0, 56, 46
2, 44008, Note_on_c, 0, 56, 0
2, 44043, Note_on_c, 0, 44, 40
2, 44054, Note_on_c, 0, 61, 57
2, 44090, Note_on_c, 0, 44, 0
2, 44092, Note_on_c, 0, 61, 0
2, 44132, Note_on_c, 0, 56, 54
2, 44176, Note_on_c, 0, 56, 0
2, 44219, Note_on_c, 0, 53, 46
2, 44253, Note_on_c, 0, 53, 0
2, 44315, Note_on_c, 0, 56, 48
2, 44340, Note_on_c, 0, 56, 0
2, 44367, Note_on_c, 0, 49, 52
2, 44400, Note_on_c, 0, 49, 0
2, 44451, Note_on_c, 0, 56, 65
2, 44498, Note_on_c, 0, 56, 0
2, 44519, Note_on_c, 0, 44, 49
2, 44537, Note_on_c, 0, 66, 70
2, 44553, Note_on_c, 0, 44, 0
2, 44570, Note_on_c, 0, 66, 0
2, 44616, Note_on_c, 0, 56, 61
2, 44649, Note_on_c, 0, 56, 0
2, 44689, Note_on_c, 0, 51, 58
2, 44723, Note_on_c, 0, 51, 0
2, 44772, Note_on_c, 0, 56, 54
2, 44810, Note_on_c, 0, 56, 0
2, 44847, Note_on_c, 0, 48, 51
2, 44882, Note_on_c, 0, 48, 0
2, 44932, Note_on_c, 0, 56, 55
2, 44983, Note_on_c, 0, 56, 0
2, 45023, Note_on_c, 0, 44, 46
2, 45024, Note_on_c, 0, 66, 59
2, 45054, Note_on_c, 0, 44, 0
2, 45060, Note_on_c, 0, 66, 0
2, 45101, Note_on_c, 0, 56, 53
2, 45136, Note_on_c, 0, 56, 0
2, 45192, Note_on_c, 0, 51, 51
2, 45229, Note_on_c, 0, 51, 0
2, 45258, Note_on_c, 0, 56, 55
2, 45293, Note_on_c, 0, 56, 0
2, 45340, Note_on_c, 0, 48, 49
2, 45377, Note_on_c, 0, 48, 0
2, 45409, Note_on_c, 0, 56, 57
2, 45463, Note_on_c, 0, 56, 0
2, 45500, Note_on_c, 0, 44, 42
2, 45501, Note_on_c, 0, 65, 60
2, 45539, Note_on_c, 0, 44, 0
2, 45545, Note_on_c, 0, 65, 0
2, 45597, Note_on_c, 0, 56, 43
2, 45626, Note_on_c, 0, 56, 0
2, 45665, Note_on_c, 0, 53, 52
2, 45704, Note_on_c, 0, 53, 0
2, 45742, Note_on_c, 0, 56, 52
2, 45785, Note_on_c, 0, 56, 0
2, 45828, Note_on_c, 0, 49, 43
2, 45860, Note_on_c, 0, 49, 0
2, 45906, Note_on_c, 0, 56, 52
2, 45954, Note_on_c, 0, 56, 0
2, 45971, Note_on_c, 0, 44, 39
2, 45992, Note_on_c, 0, 65, 60
2, 46010, Note_on_c, 0, 44, 0
2, 46029, Note_on_c, 0, 65, 0
2, 46069, Note_on_c, 0, 56, 49
2, 46104, Note_on_c, 0, 56, 0
2, 46154, Note_on_c, 0, 53, 49
2, 46189, Note_on_c, 0, 53, 0
2, 46217, Note_on_c, 0, 56, 58
2, 46261, Note_on_c, 0, 56, 0
2, 46306, Note_on_c, 0, 49, 49
2, 46341, Note_on_c, 0, 49, 0
2, 46362, Note_on_c, 0, 56, 67
2, 46416, Note_on_c, 0, 56, 0
2, 46448, Note_on_c, 0, 67, 72
2, 46450, Note_on_c, 0, 44, 50
2, 46499, Note_on_c, 0, 44, 0
2, 46499, Note_on_c, 0, 67, 0
2, 46548, Note_on_c, 0, 58, 52
2, 46573, Note_on_c, 0, 58, 0
2, 46625, Note_on_c, 0, 52, 54
2, 46658, Note_on_c, 0, 52, 0
2, 46686, Note_on_c, 0, 58, 59
2, 46722, Note_on_c, 0, 58, 0
2, 46777, Note_on_c, 0, 49, 61
2, 46811, Note_on_c, 0, 49, 0
2, 46842, Note_on_c, 0, 58, 67
2, 46888, Note_on_c, 0, 58, 0
2, 46928, Note_on_c, 0, 67, 76
2, 46931, Note_on_c, 0, 44, 56
2, 46961, Note_on_c, 0, 67, 0
2, 46969, Note_on_c, 0, 44, 0
2, 47008, Note_on_c, 0, 58, 69
2, 47042, Note_on_c, 0, 58, 0
2, 47090, Note_on_c, 0, 52, 63
2, 47126, Note_on_c, 0, 52, 0
2, 47168, Note_on_c, 0, 58, 68
2, 47202, Note_on_c, 0, 58, 0
2, 47244, Note_on_c, 0, 49, 64
2, 47288, Note_on_c, 0, 49, 0
2, 47338, Note_on_c, 0, 58, 75
2, 47379, Note_on_c, 0, 58, 0
2, 47428, Note_on_c, 0, 44, 69
2, 47504, Note_on_c, 0, 44, 0
2, 47515, Note_on_c, 0, 48, 67
2, 47597, Note_on_c, 0, 48, 0
2, 47603, Note_on_c, 0, 51, 77
2, 47638, Note_on_c, 0, 51, 0
2, 47677, Note_on_c, 0, 54, 76
2, 47760, Note_on_c, 0, 54, 0
2, 47766, Note_on_c, 0, 57, 69
2, 47848, Note_on_c, 0, 60, 65
2, 47851, Note_on_c, 0, 57, 0
2, 47892, Note_on_c, 0, 60, 0
2, 47927, Note_on_c, 0, 61, 70
2, 48013, Note_on_c, 0, 61, 0
2, 48019, Note_on_c, 0, 64, 71
2, 48097, Note_on_c, 0, 64, 0
2, 48114, Note_on_c, 0, 67, 76
2, 48150, Note_on_c, 0, 67, 0
2, 48189, Note_on_c, 0, 70, 74
2, 48271, Note_on_c, 0, 73, 77
2, 48274, Note_on_c, 0, 70, 0
2, 48343, Note_on_c, 0, 73, 0
2, 48345, Note_on_c, 0, 76, 78
2, 48425, Note_on_c, 0, 76, 0
2, 48431, Note_on_c, 0, 72, 78
2, 48441, Note_on_c, 0, 44, 60
2, 48509, Note_on_c, 0, 72, 0
2, 48521, Note_on_c, 0, 75, 82
2, 48590, Note_on_c, 0, 75, 0
2, 48600, Note_on_c, 0, 78, 80
2, 48632, Note_on_c, 0, 44, 0
2, 48684, Note_on_c, 0, 75, 82
2, 48687, Note_on_c, 0, 78, 0
2, 48762, Note_on_c, 0, 75, 0
2, 48763, Note_on_c, 0, 72, 79
2, 48844, Note_on_c, 0, 72, 0
2, 48855, Note_on_c, 0, 68, 75
2, 48923, Note_on_c, 0, 68, 0
2, 48938, Note_on_c, 0, 66, 67
2, 49010, Note_on_c, 0, 66, 0
2, 49021, Note_on_c, 0, 63, 73
2, 49095, Note_on_c, 0, 63, 0
2, 49104, Note_on_c, 0, 60, 68
2, 49172, Note_on_c, 0, 60, 0
2, 49185, Note_on_c, 0, 56, 69
2, 49262, Note_on_c, 0, 56, 0
2, 49280, Note_on_c, 0, 60, 64
2, 49326, Note_on_c, 0, 60, 0
2, 49345, Note_on_c, 0, 63, 67
2, 49424, Note_on_c, 0, 63, 0
2, 49434, Note_on_c, 0, 65, 69
2, 49436, Note_on_c, 0, 56, 67
2, 49514, Note_on_c, 0, 65, 0
2, 49522, Note_on_c, 0, 68, 74
2, 49577, Note_on_c, 0, 56, 0
2, 49607, Note_on_c, 0, 68, 0
2, 49614, Note_on_c, 0, 73, 76
2, 49693, Note_on_c, 0, 73, 0
2, 49701, Note_on_c, 0, 68, 76
2, 49773, Note_on_c, 0, 68, 0
2, 49775, Note_on_c, 0, 65, 76
2, 49844, Note_on_c, 0, 65, 0
2, 49857, Note_on_c, 0, 61, 74
2, 49918, Note_on_c, 0, 61, 0
2, 49934, Note_on_c, 0, 58, 69
2, 49990, Note_on_c, 0, 58, 0
2, 50015, Note_on_c, 0, 55, 66
2, 50090, Note_on_c, 0, 55, 0
2, 50104, Note_on_c, 0, 52, 68
2, 50164, Note_on_c, 0, 52, 0
2, 50176, Note_on_c, 0, 49, 67
2, 50255, Note_on_c, 0, 49, 0
2, 50265, Note_on_c, 0, 52, 75
2, 50333, Note_on_c, 0, 52, 0
2, 50363, Note_on_c, 0, 55, 68
2, 50465, Note_on_c, 0, 55, 0
2, 50480, Note_on_c, 0, 44, 75
2, 50728, Note_on_c, 0, 73, 76
2, 50735, Note_on_c, 0, 56, 58
2, 50736, Note_on_c, 0, 68, 59
2, 50738, Note_on_c, 0, 49, 53
2, 50738, Note_on_c, 0, 53, 61
2, 50741, Note_on_c, 0, 65, 63
2, 50776, Note_on_c, 0, 65, 0
2, 50779, Note_on_c, 0, 68, 0
2, 50782, Note_on_c, 0, 53, 0
2, 50795, Note_on_c, 0, 73, 0
2, 50802, Note_on_c, 0, 56, 0
2, 50812, Note_on_c, 0, 49, 0
2, 51010, Note_on_c, 0, 68, 69
2, 51010, Note_on_c, 0, 72, 75
2, 51013, Note_on_c, 0, 63, 62
2, 51016, Note_on_c, 0, 51, 61
2, 51017, Note_on_c, 0, 56, 60
2, 51023, Note_on_c, 0, 54, 63
2, 51082, Note_on_c, 0, 63, 0
2, 51086, Note_on_c, 0, 68, 0
2, 51086, Note_on_c, 0, 72, 0
2, 51089, Note_on_c, 0, 54, 0
2, 51093, Note_on_c, 0, 51, 0
2, 51102, Note_on_c, 0, 56, 0
2, 51427, Note_on_c, 0, 73, 73
2, 51432, Note_on_c, 0, 61, 63
2, 51433, Note_on_c, 0, 68, 61
2, 51435, Note_on_c, 0, 49, 48
2, 51436, Note_on_c, 0, 56, 53
2, 51442, Note_on_c, 0, 53, 55
2, 51506, Note_on_c, 0, 44, 0
2, 52194, Note_on_c, 0, 73, 0
2, 52218, Note_on_c, 0, 61, 0
2, 52259, Note_on_c, 0, 68, 0
2, 52294, Note_on_c, 0, 56, 0
2, 52301, Note_on_c, 0, 53, 0
2, 52316, Note_on_c, 0, 49, 0
2, 52836,End_track
0, 0, End_of_file
