0, 0, Header, 1, 2, 384
1, 0, Start_track
1, 0, Tempo, 500000
1, 0, Time_signature, 4, 2, 24, 8
1, 1, End_track
2,0,Start_track
2,0, Note_on_c, 0, 68, 66
2,31, Note_on_c, 0, 68, 0
2,293, Note_on_c, 0, 70, 68
2,392, Note_on_c, 0, 70, 0
2,396, Note_on_c, 0, 68, 72
2,503, Note_on_c, 0, 66, 70
2,504, Note_on_c, 0, 68, 0
2,563, Note_on_c, 0, 66, 0
2,609, Note_on_c, 0, 68, 72
2,694, Note_on_c, 0, 68, 0
2,737, Note_on_c, 0, 77, 79
2,772, Note_on_c, 0, 77, 0
2,990, Note_on_c, 0, 73, 73
2,1023, Note_on_c, 0, 73, 0
2,1250, Note_on_c, 0, 68, 77
2,1490, Note_on_c, 0, 68, 0
2,1496, Note_on_c, 0, 66, 61
2,1550, Note_on_c, 0, 66, 0
2,1584, Note_on_c, 0, 65, 61
2,1661, Note_on_c, 0, 65, 0
2,1712, Note_on_c, 0, 66, 75
2,1745, Note_on_c, 0, 66, 0
2,1953, Note_on_c, 0, 75, 79
2,2007, Note_on_c, 0, 75, 0
2,2198, Note_on_c, 0, 65, 75
2,2250, Note_on_c, 0, 65, 0
2,2468, Note_on_c, 0, 73, 74
2,2513, Note_on_c, 0, 73, 0
2,2721, Note_on_c, 0, 63, 70
2,2767, Note_on_c, 0, 63, 0
2,2978, Note_on_c, 0, 72, 67
2,3016, Note_on_c, 0, 72, 0
2,3181, Control_c, 0, 64, 45
2,3196, Control_c, 0, 64, 60
2,3211, Control_c, 0, 64, 67
2,3234, Control_c, 0, 64, 76
2,3240, Note_on_c, 0, 61, 58
2,3249, Control_c, 0, 64, 96
2,3265, Control_c, 0, 64, 127
2,3272, Note_on_c, 0, 61, 0
2,3478, Control_c, 0, 64, 78
2,3489, Note_on_c, 0, 73, 70
2,3493, Control_c, 0, 64, 47
2,3509, Control_c, 0, 64, 0
2,3590, Note_on_c, 0, 73, 0
2,3597, Note_on_c, 0, 72, 71
2,3675, Note_on_c, 0, 72, 0
2,3707, Note_on_c, 0, 73, 78
2,3805, Note_on_c, 0, 73, 0
2,3813, Note_on_c, 0, 75, 76
2,3888, Note_on_c, 0, 75, 0
2,3926, Note_on_c, 0, 77, 80
2,3930, Note_on_c, 0, 61, 66
2,3959, Note_on_c, 0, 61, 0
2,4004, Note_on_c, 0, 77, 0
2,4030, Note_on_c, 0, 78, 76
2,4157, Note_on_c, 0, 65, 71
2,4158, Note_on_c, 0, 80, 80
2,4174, Note_on_c, 0, 78, 0
2,4229, Note_on_c, 0, 65, 0
2,4250, Note_on_c, 0, 63, 71
2,4257, Note_on_c, 0, 79, 80
2,4284, Note_on_c, 0, 80, 0
2,4356, Note_on_c, 0, 63, 0
2,4361, Note_on_c, 0, 61, 71
2,4365, Note_on_c, 0, 79, 0
2,4368, Note_on_c, 0, 77, 83
2,4439, Note_on_c, 0, 77, 0
2,4450, Note_on_c, 0, 61, 0
2,4464, Note_on_c, 0, 63, 77
2,4472, Note_on_c, 0, 79, 80
2,4533, Note_on_c, 0, 63, 0
2,4574, Note_on_c, 0, 79, 0
2,4591, Note_on_c, 0, 80, 76
2,4597, Note_on_c, 0, 72, 74
2,4625, Note_on_c, 0, 72, 0
2,4661, Note_on_c, 0, 80, 0
2,4695, Note_on_c, 0, 78, 73
2,4798, Note_on_c, 0, 78, 0
2,4819, Note_on_c, 0, 77, 76
2,4829, Note_on_c, 0, 68, 64
2,4853, Note_on_c, 0, 68, 0
2,4908, Note_on_c, 0, 77, 0
2,4917, Note_on_c, 0, 75, 70
2,5049, Note_on_c, 0, 77, 72
2,5050, Note_on_c, 0, 75, 0
2,5054, Note_on_c, 0, 63, 63
2,5279, Note_on_c, 0, 63, 0
2,5292, Note_on_c, 0, 61, 67
2,5373, Note_on_c, 0, 61, 0
2,5383, Note_on_c, 0, 60, 63
2,5510, Note_on_c, 0, 61, 75
2,5514, Note_on_c, 0, 60, 0
2,5550, Note_on_c, 0, 61, 0
2,5622, Note_on_c, 0, 77, 0
2,5636, Note_on_c, 0, 75, 63
2,5721, Note_on_c, 0, 75, 0
2,5753, Note_on_c, 0, 70, 72
2,5753, Note_on_c, 0, 73, 65
2,5794, Note_on_c, 0, 70, 0
2,5854, Note_on_c, 0, 73, 0
2,5861, Note_on_c, 0, 77, 68
2,5990, Note_on_c, 0, 77, 0
2,5995, Note_on_c, 0, 60, 73
2,6004, Note_on_c, 0, 75, 65
2,6023, Note_on_c, 0, 60, 0
2,6080, Note_on_c, 0, 75, 0
2,6108, Note_on_c, 0, 73, 63
2,6196, Note_on_c, 0, 73, 0
2,6224, Note_on_c, 0, 68, 77
2,6227, Note_on_c, 0, 72, 65
2,6283, Note_on_c, 0, 68, 0
2,6306, Note_on_c, 0, 72, 0
2,6337, Note_on_c, 0, 75, 66
2,6471, Note_on_c, 0, 75, 0
2,6476, Note_on_c, 0, 58, 74
2,6484, Note_on_c, 0, 73, 58
2,6531, Note_on_c, 0, 58, 0
2,6570, Note_on_c, 0, 73, 0
2,6575, Note_on_c, 0, 72, 64
2,6678, Note_on_c, 0, 72, 0
2,6699, Note_on_c, 0, 73, 63
2,6707, Note_on_c, 0, 67, 72
2,6733, Note_on_c, 0, 67, 0
2,6817, Note_on_c, 0, 70, 63
2,6853, Note_on_c, 0, 70, 0
2,6915, Note_on_c, 0, 73, 0
2,6941, Note_on_c, 0, 56, 69
2,6955, Note_on_c, 0, 70, 62
2,7031, Note_on_c, 0, 70, 0
2,7050, Note_on_c, 0, 56, 0
2,7052, Note_on_c, 0, 72, 66
2,7165, Note_on_c, 0, 72, 0
2,7171, Note_on_c, 0, 75, 70
2,7183, Note_on_c, 0, 68, 66
2,7198, Note_on_c, 0, 75, 0
2,7227, Note_on_c, 0, 68, 0
2,7270, Note_on_c, 0, 67, 62
2,7378, Note_on_c, 0, 67, 0
2,7387, Note_on_c, 0, 68, 75
2,7398, Note_on_c, 0, 78, 81
2,7423, Note_on_c, 0, 68, 0
2,7506, Note_on_c, 0, 70, 69
2,7599, Note_on_c, 0, 70, 0
2,7622, Note_on_c, 0, 56, 68
2,7626, Note_on_c, 0, 72, 69
2,7648, Note_on_c, 0, 56, 0
2,7675, Note_on_c, 0, 72, 0
2,7715, Note_on_c, 0, 68, 70
2,7850, Note_on_c, 0, 58, 80
2,7859, Note_on_c, 0, 73, 69
2,7872, Note_on_c, 0, 68, 0
2,7946, Note_on_c, 0, 58, 0
2,7949, Note_on_c, 0, 56, 76
2,7951, Note_on_c, 0, 73, 0
2,7957, Note_on_c, 0, 72, 69
2,8062, Note_on_c, 0, 54, 78
2,8062, Note_on_c, 0, 56, 0
2,8070, Note_on_c, 0, 70, 69
2,8087, Note_on_c, 0, 72, 0
2,8153, Note_on_c, 0, 70, 0
2,8159, Note_on_c, 0, 54, 0
2,8159, Note_on_c, 0, 72, 73
2,8160, Note_on_c, 0, 56, 77
2,8160, Note_on_c, 0, 78, 0
2,8248, Note_on_c, 0, 56, 0
2,8278, Note_on_c, 0, 73, 80
2,8279, Note_on_c, 0, 65, 82
2,8281, Note_on_c, 0, 72, 0
2,8283, Note_on_c, 0, 77, 76
2,8305, Note_on_c, 0, 65, 0
2,8350, Note_on_c, 0, 73, 0
2,8388, Note_on_c, 0, 72, 75
2,8454, Note_on_c, 0, 72, 0
2,8506, Note_on_c, 0, 61, 70
2,8514, Note_on_c, 0, 70, 69
2,8533, Note_on_c, 0, 61, 0
2,8586, Note_on_c, 0, 70, 0
2,8615, Note_on_c, 0, 68, 75
2,8748, Note_on_c, 0, 68, 0
2,8764, Note_on_c, 0, 56, 65
2,8764, Note_on_c, 0, 70, 70
2,8838, Note_on_c, 0, 77, 0
2,9002, Note_on_c, 0, 56, 0
2,9003, Note_on_c, 0, 54, 63
2,9089, Note_on_c, 0, 54, 0
2,9097, Note_on_c, 0, 53, 63
2,9229, Note_on_c, 0, 54, 67
2,9232, Note_on_c, 0, 53, 0
2,9233, Note_on_c, 0, 75, 72
2,9250, Note_on_c, 0, 70, 0
2,9263, Note_on_c, 0, 54, 0
2,9339, Note_on_c, 0, 68, 62
2,9435, Note_on_c, 0, 68, 0
2,9471, Note_on_c, 0, 66, 63
2,9477, Note_on_c, 0, 63, 66
2,9529, Note_on_c, 0, 63, 0
2,9551, Note_on_c, 0, 66, 0
2,9562, Note_on_c, 0, 70, 68
2,9599, Note_on_c, 0, 75, 0
2,9638, Note_on_c, 0, 70, 0
2,9681, Note_on_c, 0, 68, 68
2,9699, Note_on_c, 0, 53, 63
2,9736, Note_on_c, 0, 53, 0
2,9768, Note_on_c, 0, 66, 72
2,9781, Note_on_c, 0, 68, 0
2,9892, Note_on_c, 0, 73, 69
2,9896, Note_on_c, 0, 66, 0
2,9905, Note_on_c, 0, 65, 68
2,9906, Note_on_c, 0, 61, 67
2,9946, Note_on_c, 0, 61, 0
2,9963, Note_on_c, 0, 65, 0
2,9991, Note_on_c, 0, 73, 0
2,10000, Note_on_c, 0, 68, 70
2,10080, Note_on_c, 0, 68, 0
2,10115, Note_on_c, 0, 52, 65
2,10117, Note_on_c, 0, 72, 74
2,10144, Note_on_c, 0, 66, 59
2,10166, Note_on_c, 0, 52, 0
2,10174, Note_on_c, 0, 72, 0
2,10209, Note_on_c, 0, 66, 0
2,10229, Note_on_c, 0, 65, 72
2,10283, Note_on_c, 0, 65, 0
2,10339, Note_on_c, 0, 75, 76
2,10343, Note_on_c, 0, 60, 59
2,10354, Note_on_c, 0, 66, 60
2,10363, Note_on_c, 0, 60, 0
2,10445, Note_on_c, 0, 63, 58
2,10483, Note_on_c, 0, 63, 0
2,10497, Note_on_c, 0, 66, 0
2,10536, Note_on_c, 0, 75, 0
2,10590, Note_on_c, 0, 49, 53
2,10598, Note_on_c, 0, 65, 58
2,10617, Note_on_c, 0, 49, 0
2,10832, Note_on_c, 0, 61, 54
2,10858, Note_on_c, 0, 68, 47
2,10885, Note_on_c, 0, 68, 0
2,10915, Note_on_c, 0, 61, 0
2,10942, Note_on_c, 0, 60, 57
2,11036, Note_on_c, 0, 60, 0
2,11068, Note_on_c, 0, 61, 51
2,11078, Note_on_c, 0, 77, 83
2,11102, Note_on_c, 0, 65, 0
2,11167, Note_on_c, 0, 61, 0
2,11175, Note_on_c, 0, 63, 64
2,11275, Note_on_c, 0, 63, 0
2,11303, Note_on_c, 0, 65, 63
2,11311, Note_on_c, 0, 68, 65
2,11349, Note_on_c, 0, 68, 0
2,11375, Note_on_c, 0, 65, 0
2,11415, Note_on_c, 0, 61, 60
2,11520, Note_on_c, 0, 58, 61
2,11524, Note_on_c, 0, 61, 0
2,11524, Note_on_c, 0, 73, 71
2,11625, Note_on_c, 0, 58, 0
2,11626, Note_on_c, 0, 77, 0
2,11641, Note_on_c, 0, 60, 62
2,11729, Note_on_c, 0, 60, 0
2,11756, Note_on_c, 0, 77, 76
2,11758, Note_on_c, 0, 61, 70
2,11776, Note_on_c, 0, 73, 0
2,11828, Note_on_c, 0, 61, 0
2,11865, Note_on_c, 0, 58, 63
2,11870, Note_on_c, 0, 73, 72
2,11913, Note_on_c, 0, 77, 0
2,11963, Note_on_c, 0, 58, 0
2,11964, Note_on_c, 0, 73, 0
2,11971, Note_on_c, 0, 55, 63
2,11979, Note_on_c, 0, 70, 77
2,12064, Note_on_c, 0, 55, 0
2,12088, Note_on_c, 0, 56, 62
2,12167, Note_on_c, 0, 56, 0
2,12194, Note_on_c, 0, 70, 0
2,12196, Note_on_c, 0, 58, 63
2,12204, Note_on_c, 0, 73, 61
2,12234, Note_on_c, 0, 58, 0
2,12264, Note_on_c, 0, 73, 0
2,12299, Note_on_c, 0, 55, 54
2,12306, Note_on_c, 0, 70, 58
2,12391, Note_on_c, 0, 70, 0
2,12434, Note_on_c, 0, 63, 61
2,12436, Note_on_c, 0, 55, 0
2,12445, Note_on_c, 0, 48, 55
2,12471, Note_on_c, 0, 48, 0
2,12673, Note_on_c, 0, 70, 63
2,12680, Note_on_c, 0, 60, 54
2,12702, Note_on_c, 0, 70, 0
2,12766, Note_on_c, 0, 60, 0
2,12795, Note_on_c, 0, 58, 55
2,12905, Note_on_c, 0, 58, 0
2,12907, Note_on_c, 0, 75, 82
2,12913, Note_on_c, 0, 60, 50
2,12958, Note_on_c, 0, 63, 0
2,12978, Note_on_c, 0, 60, 0
2,12996, Note_on_c, 0, 61, 64
2,13094, Note_on_c, 0, 61, 0
2,13130, Note_on_c, 0, 63, 62
2,13138, Note_on_c, 0, 67, 72
2,13173, Note_on_c, 0, 67, 0
2,13178, Note_on_c, 0, 63, 0
2,13245, Note_on_c, 0, 60, 58
2,13352, Note_on_c, 0, 56, 66
2,13359, Note_on_c, 0, 72, 79
2,13362, Note_on_c, 0, 60, 0
2,13395, Note_on_c, 0, 75, 0
2,13459, Note_on_c, 0, 56, 0
2,13467, Note_on_c, 0, 58, 64
2,13544, Note_on_c, 0, 58, 0
2,13570, Note_on_c, 0, 60, 67
2,13592, Note_on_c, 0, 75, 74
2,13598, Note_on_c, 0, 72, 0
2,13671, Note_on_c, 0, 60, 0
2,13684, Note_on_c, 0, 56, 64
2,13689, Note_on_c, 0, 75, 0
2,13692, Note_on_c, 0, 72, 72
2,13782, Note_on_c, 0, 72, 0
2,13807, Note_on_c, 0, 53, 58
2,13809, Note_on_c, 0, 68, 74
2,13812, Note_on_c, 0, 56, 0
2,13888, Note_on_c, 0, 53, 0
2,13917, Note_on_c, 0, 55, 54
2,14007, Note_on_c, 0, 55, 0
2,14029, Note_on_c, 0, 56, 73
2,14038, Note_on_c, 0, 72, 60
2,14051, Note_on_c, 0, 68, 0
2,14106, Note_on_c, 0, 56, 0
2,14109, Note_on_c, 0, 72, 0
2,14149, Note_on_c, 0, 68, 53
2,14161, Note_on_c, 0, 53, 34
2,14236, Note_on_c, 0, 68, 0
2,14267, Note_on_c, 0, 46, 56
2,14268, Note_on_c, 0, 61, 55
2,14284, Note_on_c, 0, 53, 0
2,14302, Note_on_c, 0, 46, 0
2,14503, Note_on_c, 0, 68, 62
2,14528, Note_on_c, 0, 58, 47
2,14536, Note_on_c, 0, 68, 0
2,14585, Note_on_c, 0, 58, 0
2,14625, Note_on_c, 0, 56, 52
2,14697, Note_on_c, 0, 56, 0
2,14726, Note_on_c, 0, 58, 45
2,14754, Note_on_c, 0, 73, 67
2,14772, Note_on_c, 0, 61, 0
2,14818, Note_on_c, 0, 58, 0
2,14839, Note_on_c, 0, 60, 55
2,14913, Note_on_c, 0, 60, 0
2,14956, Note_on_c, 0, 61, 59
2,14976, Note_on_c, 0, 65, 66
2,15009, Note_on_c, 0, 65, 0
2,15026, Note_on_c, 0, 61, 0
2,15064, Note_on_c, 0, 58, 64
2,15178, Note_on_c, 0, 55, 64
2,15188, Note_on_c, 0, 70, 74
2,15200, Note_on_c, 0, 58, 0
2,15254, Note_on_c, 0, 73, 0
2,15286, Note_on_c, 0, 72, 83
2,15294, Note_on_c, 0, 70, 0
2,15297, Note_on_c, 0, 55, 0
2,15303, Note_on_c, 0, 56, 71
2,15377, Note_on_c, 0, 56, 0
2,15397, Note_on_c, 0, 58, 80
2,15401, Note_on_c, 0, 73, 82
2,15407, Note_on_c, 0, 72, 0
2,15470, Note_on_c, 0, 73, 0
2,15480, Note_on_c, 0, 58, 0
2,15499, Note_on_c, 0, 70, 87
2,15503, Note_on_c, 0, 55, 70
2,15626, Note_on_c, 0, 51, 69
2,15631, Note_on_c, 0, 82, 89
2,15682, Note_on_c, 0, 55, 0
2,15729, Note_on_c, 0, 51, 0
2,15735, Note_on_c, 0, 73, 83
2,15738, Note_on_c, 0, 53, 68
2,15742, Note_on_c, 0, 70, 0
2,15811, Note_on_c, 0, 53, 0
2,15844, Note_on_c, 0, 55, 78
2,15846, Note_on_c, 0, 75, 88
2,15849, Note_on_c, 0, 73, 0
2,15929, Note_on_c, 0, 75, 0
2,15951, Note_on_c, 0, 70, 87
2,15952, Note_on_c, 0, 51, 71
2,15954, Note_on_c, 0, 55, 0
2,16010, Note_on_c, 0, 70, 0
2,16074, Note_on_c, 0, 44, 80
2,16084, Note_on_c, 0, 72, 88
2,16093, Note_on_c, 0, 51, 0
2,16104, Note_on_c, 0, 44, 0
2,16149, Note_on_c, 0, 82, 0
2,16218, Note_on_c, 0, 80, 74
2,16326, Note_on_c, 0, 79, 80
2,16329, Note_on_c, 0, 80, 0
2,16332, Note_on_c, 0, 56, 80
2,16441, Note_on_c, 0, 82, 87
2,16444, Note_on_c, 0, 56, 0
2,16456, Note_on_c, 0, 79, 0
2,16469, Note_on_c, 0, 58, 59
2,16545, Note_on_c, 0, 60, 80
2,16549, Note_on_c, 0, 80, 85
2,16571, Note_on_c, 0, 58, 0
2,16579, Note_on_c, 0, 60, 0
2,16654, Note_on_c, 0, 75, 85
2,16679, Note_on_c, 0, 72, 0
2,16689, Note_on_c, 0, 80, 0
2,16692, Note_on_c, 0, 82, 0
2,16772, Note_on_c, 0, 77, 86
2,16774, Note_on_c, 0, 56, 64
2,16774, Note_on_c, 0, 68, 74
2,16783, Note_on_c, 0, 75, 0
2,16836, Note_on_c, 0, 56, 0
2,16882, Note_on_c, 0, 78, 82
2,16903, Note_on_c, 0, 77, 0
2,16968, Note_on_c, 0, 78, 0
2,16986, Note_on_c, 0, 61, 74
2,16994, Note_on_c, 0, 68, 0
2,17001, Note_on_c, 0, 77, 85
2,17078, Note_on_c, 0, 77, 0
2,17105, Note_on_c, 0, 75, 84
2,17111, Note_on_c, 0, 67, 65
2,17191, Note_on_c, 0, 67, 0
2,17213, Note_on_c, 0, 65, 56
2,17216, Note_on_c, 0, 73, 84
2,17219, Note_on_c, 0, 75, 0
2,17255, Note_on_c, 0, 61, 0
2,17288, Note_on_c, 0, 65, 0
2,17289, Note_on_c, 0, 73, 0
2,17302, Note_on_c, 0, 67, 71
2,17316, Note_on_c, 0, 75, 83
2,17412, Note_on_c, 0, 67, 0
2,17428, Note_on_c, 0, 68, 76
2,17435, Note_on_c, 0, 84, 91
2,17443, Note_on_c, 0, 60, 56
2,17449, Note_on_c, 0, 75, 0
2,17481, Note_on_c, 0, 84, 0
2,17502, Note_on_c, 0, 68, 0
2,17533, Note_on_c, 0, 67, 67
2,17659, Note_on_c, 0, 80, 87
2,17663, Note_on_c, 0, 67, 0
2,17671, Note_on_c, 0, 65, 65
2,17695, Note_on_c, 0, 80, 0
2,17705, Note_on_c, 0, 60, 0
2,17768, Note_on_c, 0, 65, 0
2,17790, Note_on_c, 0, 63, 59
2,17904, Note_on_c, 0, 75, 84
2,17923, Note_on_c, 0, 58, 65
2,17925, Note_on_c, 0, 65, 57
2,17958, Note_on_c, 0, 63, 0
2,17997, Note_on_c, 0, 58, 0
2,18025, Note_on_c, 0, 75, 0
2,18036, Note_on_c, 0, 73, 75
2,18073, Note_on_c, 0, 73, 0
2,18092, Note_on_c, 0, 75, 62
2,18123, Note_on_c, 0, 75, 0
2,18129, Note_on_c, 0, 73, 74
2,18132, Note_on_c, 0, 56, 71
2,18199, Note_on_c, 0, 56, 0
2,18218, Note_on_c, 0, 73, 0
2,18224, Note_on_c, 0, 72, 69
2,18343, Note_on_c, 0, 73, 79
2,18344, Note_on_c, 0, 55, 66
2,18355, Note_on_c, 0, 72, 0
2,18379, Note_on_c, 0, 73, 0
2,18384, Note_on_c, 0, 65, 0
2,18450, Note_on_c, 0, 63, 58
2,18574, Note_on_c, 0, 63, 0
2,18575, Note_on_c, 0, 82, 76
2,18606, Note_on_c, 0, 61, 52
2,18637, Note_on_c, 0, 82, 0
2,18645, Note_on_c, 0, 55, 0
2,18672, Note_on_c, 0, 61, 0
2,18685, Note_on_c, 0, 65, 56
2,18774, Note_on_c, 0, 65, 0
2,18801, Note_on_c, 0, 72, 72
2,18806, Note_on_c, 0, 63, 70
2,18832, Note_on_c, 0, 56, 53
2,18841, Note_on_c, 0, 72, 0
2,18903, Note_on_c, 0, 63, 0
2,18913, Note_on_c, 0, 61, 67
2,18938, Note_on_c, 0, 56, 0
2,19028, Note_on_c, 0, 80, 72
2,19030, Note_on_c, 0, 61, 0
2,19034, Note_on_c, 0, 60, 61
2,19078, Note_on_c, 0, 80, 0
2,19123, Note_on_c, 0, 60, 0
2,19148, Note_on_c, 0, 63, 62
2,19222, Note_on_c, 0, 63, 0
2,19251, Note_on_c, 0, 61, 63
2,19257, Note_on_c, 0, 70, 68
2,19298, Note_on_c, 0, 70, 0
2,19305, Note_on_c, 0, 51, 51
2,19331, Note_on_c, 0, 61, 0
2,19366, Note_on_c, 0, 60, 54
2,19456, Note_on_c, 0, 60, 0
2,19483, Note_on_c, 0, 61, 58
2,19489, Note_on_c, 0, 79, 65
2,19518, Note_on_c, 0, 79, 0
2,19551, Note_on_c, 0, 61, 0
2,19601, Note_on_c, 0, 58, 57
2,19669, Note_on_c, 0, 51, 0
2,19711, Note_on_c, 0, 58, 0
2,19733, Note_on_c, 0, 60, 57
2,19734, Note_on_c, 0, 68, 51
2,19756, Note_on_c, 0, 56, 48
2,19766, Note_on_c, 0, 60, 0
2,19780, Note_on_c, 0, 68, 0
2,19834, Note_on_c, 0, 70, 56
2,19912, Note_on_c, 0, 70, 0
2,19960, Note_on_c, 0, 72, 59
2,19963, Note_on_c, 0, 63, 48
2,19992, Note_on_c, 0, 63, 0
2,20050, Note_on_c, 0, 72, 0
2,20075, Note_on_c, 0, 73, 46
2,20127, Note_on_c, 0, 73, 0
2,20194, Note_on_c, 0, 68, 55
2,20196, Note_on_c, 0, 72, 54
2,20271, Note_on_c, 0, 72, 0
2,20289, Note_on_c, 0, 70, 59
2,20323, Note_on_c, 0, 56, 0
2,20368, Note_on_c, 0, 68, 0
2,20385, Note_on_c, 0, 70, 0
2,20404, Note_on_c, 0, 63, 50
2,20408, Note_on_c, 0, 68, 51
2,20468, Note_on_c, 0, 63, 0
2,20484, Note_on_c, 0, 68, 0
2,20495, Note_on_c, 0, 60, 55
2,20509, Note_on_c, 0, 72, 69
2,20614, Note_on_c, 0, 72, 0
2,20617, Note_on_c, 0, 60, 0
2,20629, Note_on_c, 0, 77, 76
2,20633, Note_on_c, 0, 56, 54
2,20668, Note_on_c, 0, 56, 0
2,20725, Note_on_c, 0, 77, 0
2,20728, Note_on_c, 0, 75, 80
2,20830, Note_on_c, 0, 75, 0
2,20836, Note_on_c, 0, 74, 82
2,20845, Note_on_c, 0, 57, 53
2,20904, Note_on_c, 0, 57, 0
2,20929, Note_on_c, 0, 56, 68
2,20946, Note_on_c, 0, 77, 85
2,20949, Note_on_c, 0, 74, 0
2,21052, Note_on_c, 0, 53, 79
2,21058, Note_on_c, 0, 80, 89
2,21063, Note_on_c, 0, 77, 0
2,21068, Note_on_c, 0, 56, 0
2,21076, Note_on_c, 0, 53, 0
2,21165, Note_on_c, 0, 78, 86
2,21179, Note_on_c, 0, 80, 0
2,21272, Note_on_c, 0, 77, 86
2,21287, Note_on_c, 0, 78, 0
2,21296, Note_on_c, 0, 56, 63
2,21377, Note_on_c, 0, 80, 77
2,21393, Note_on_c, 0, 77, 0
2,21408, Note_on_c, 0, 80, 0
2,21430, Note_on_c, 0, 53, 64
2,21467, Note_on_c, 0, 80, 78
2,21469, Note_on_c, 0, 56, 0
2,21510, Note_on_c, 0, 82, 81
2,21544, Note_on_c, 0, 80, 0
2,21554, Note_on_c, 0, 83, 90
2,21574, Note_on_c, 0, 50, 72
2,21592, Note_on_c, 0, 82, 0
2,21610, Note_on_c, 0, 53, 0
2,21776, Note_on_c, 0, 82, 84
2,21779, Note_on_c, 0, 53, 60
2,21823, Note_on_c, 0, 83, 0
2,21877, Note_on_c, 0, 80, 84
2,21880, Note_on_c, 0, 56, 74
2,21886, Note_on_c, 0, 53, 0
2,21935, Note_on_c, 0, 82, 0
2,21985, Note_on_c, 0, 56, 0
2,21986, Note_on_c, 0, 50, 0
2,21991, Note_on_c, 0, 59, 81
2,21996, Note_on_c, 0, 78, 87
2,22019, Note_on_c, 0, 80, 0
2,22026, Note_on_c, 0, 59, 0
2,22091, Note_on_c, 0, 78, 0
2,22097, Note_on_c, 0, 77, 82
2,22209, Note_on_c, 0, 53, 80
2,22213, Note_on_c, 0, 75, 83
2,22216, Note_on_c, 0, 77, 0
2,22256, Note_on_c, 0, 53, 0
2,22306, Note_on_c, 0, 75, 0
2,22315, Note_on_c, 0, 74, 83
2,22437, Note_on_c, 0, 75, 87
2,22440, Note_on_c, 0, 58, 81
2,22443, Note_on_c, 0, 54, 78
2,22474, Note_on_c, 0, 74, 0
2,22492, Note_on_c, 0, 54, 0
2,22497, Note_on_c, 0, 58, 0
2,22540, Note_on_c, 0, 78, 85
2,22564, Note_on_c, 0, 75, 0
2,22633, Note_on_c, 0, 78, 0
2,22654, Note_on_c, 0, 77, 87
2,22660, Note_on_c, 0, 59, 84
2,22665, Note_on_c, 0, 56, 79
2,22696, Note_on_c, 0, 56, 0
2,22721, Note_on_c, 0, 59, 0
2,22734, Note_on_c, 0, 77, 0
2,22757, Note_on_c, 0, 75, 88
2,22864, Note_on_c, 0, 75, 0
2,22879, Note_on_c, 0, 74, 77
2,22882, Note_on_c, 0, 58, 80
2,22915, Note_on_c, 0, 58, 0
2,22975, Note_on_c, 0, 77, 80
2,23066, Note_on_c, 0, 77, 0
2,23100, Note_on_c, 0, 74, 0
2,23102, Note_on_c, 0, 70, 83
2,23117, Note_on_c, 0, 50, 69
2,23121, Note_on_c, 0, 46, 71
2,23139, Note_on_c, 0, 50, 0
2,23151, Note_on_c, 0, 46, 0
2,23204, Note_on_c, 0, 70, 0
2,23220, Note_on_c, 0, 68, 81
2,23351, Note_on_c, 0, 51, 74
2,23351, Note_on_c, 0, 66, 78
2,23355, Note_on_c, 0, 68, 0
2,23362, Note_on_c, 0, 39, 68
2,23462, Note_on_c, 0, 65, 76
2,23468, Note_on_c, 0, 66, 0
2,23546, Note_on_c, 0, 65, 0
2,23578, Note_on_c, 0, 63, 75
2,23662, Note_on_c, 0, 63, 0
2,23677, Note_on_c, 0, 62, 65
2,23766, Note_on_c, 0, 62, 0
2,23796, Note_on_c, 0, 39, 0
2,23797, Note_on_c, 0, 63, 68
2,23813, Note_on_c, 0, 51, 0
2,23857, Note_on_c, 0, 63, 0
2,23895, Note_on_c, 0, 65, 68
2,23987, Note_on_c, 0, 65, 0
2,24018, Note_on_c, 0, 66, 65
2,24020, Note_on_c, 0, 51, 68
2,24047, Note_on_c, 0, 51, 0
2,24084, Note_on_c, 0, 66, 0
2,24118, Note_on_c, 0, 68, 63
2,24243, Note_on_c, 0, 68, 0
2,24249, Note_on_c, 0, 70, 64
2,24256, Note_on_c, 0, 54, 66
2,24335, Note_on_c, 0, 54, 0
2,24355, Note_on_c, 0, 68, 70
2,24361, Note_on_c, 0, 70, 0
2,24365, Note_on_c, 0, 53, 59
2,24436, Note_on_c, 0, 68, 0
2,24447, Note_on_c, 0, 53, 0
2,24463, Note_on_c, 0, 51, 70
2,24463, Note_on_c, 0, 66, 69
2,24530, Note_on_c, 0, 66, 0
2,24538, Note_on_c, 0, 51, 0
2,24562, Note_on_c, 0, 68, 72
2,24563, Note_on_c, 0, 53, 67
2,24622, Note_on_c, 0, 53, 0
2,24680, Note_on_c, 0, 68, 0
2,24683, Note_on_c, 0, 70, 70
2,24686, Note_on_c, 0, 61, 74
2,24716, Note_on_c, 0, 61, 0
2,24771, Note_on_c, 0, 70, 0
2,24802, Note_on_c, 0, 68, 70
2,24886, Note_on_c, 0, 68, 0
2,24918, Note_on_c, 0, 58, 73
2,24918, Note_on_c, 0, 66, 61
2,24946, Note_on_c, 0, 58, 0
2,24997, Note_on_c, 0, 66, 0
2,25018, Note_on_c, 0, 65, 54
2,25163, Note_on_c, 0, 53, 61
2,25169, Note_on_c, 0, 65, 0
2,25173, Note_on_c, 0, 66, 64
2,25399, Note_on_c, 0, 53, 0
2,25420, Note_on_c, 0, 51, 64
2,25486, Note_on_c, 0, 51, 0
2,25526, Note_on_c, 0, 49, 58
2,25640, Note_on_c, 0, 49, 0
2,25656, Note_on_c, 0, 51, 74
2,25692, Note_on_c, 0, 51, 0
2,25741, Note_on_c, 0, 66, 0
2,25753, Note_on_c, 0, 65, 56
2,25877, Note_on_c, 0, 65, 0
2,25879, Note_on_c, 0, 60, 69
2,25888, Note_on_c, 0, 63, 63
2,25911, Note_on_c, 0, 60, 0
2,25986, Note_on_c, 0, 63, 0
2,25994, Note_on_c, 0, 66, 63
2,26068, Note_on_c, 0, 66, 0
2,26110, Note_on_c, 0, 49, 71
2,26121, Note_on_c, 0, 65, 63
2,26164, Note_on_c, 0, 49, 0
2,26194, Note_on_c, 0, 65, 0
2,26243, Note_on_c, 0, 63, 51
2,26317, Note_on_c, 0, 63, 0
2,26355, Note_on_c, 0, 58, 71
2,26366, Note_on_c, 0, 61, 58
2,26410, Note_on_c, 0, 58, 0
2,26421, Note_on_c, 0, 61, 0
2,26467, Note_on_c, 0, 65, 55
2,26568, Note_on_c, 0, 65, 0
2,26600, Note_on_c, 0, 48, 67
2,26604, Note_on_c, 0, 63, 62
2,26636, Note_on_c, 0, 48, 0
2,26700, Note_on_c, 0, 63, 0
2,26702, Note_on_c, 0, 61, 61
2,26804, Note_on_c, 0, 61, 0
2,26821, Note_on_c, 0, 63, 67
2,26823, Note_on_c, 0, 57, 65
2,26853, Note_on_c, 0, 57, 0
2,26871, Note_on_c, 0, 63, 0
2,26919, Note_on_c, 0, 60, 60
2,27000, Note_on_c, 0, 60, 0
2,27045, Note_on_c, 0, 46, 59
2,27047, Note_on_c, 0, 61, 63
2,27078, Note_on_c, 0, 46, 0
2,27117, Note_on_c, 0, 61, 0
2,27151, Note_on_c, 0, 65, 62
2,27268, Note_on_c, 0, 65, 0
2,27270, Note_on_c, 0, 66, 64
2,27276, Note_on_c, 0, 58, 60
2,27313, Note_on_c, 0, 66, 0
2,27340, Note_on_c, 0, 58, 0
2,27365, Note_on_c, 0, 57, 57
2,27365, Note_on_c, 0, 65, 64
2,27447, Note_on_c, 0, 57, 0
2,27484, Note_on_c, 0, 58, 56
2,27492, Note_on_c, 0, 73, 80
2,27496, Note_on_c, 0, 65, 0
2,27557, Note_on_c, 0, 58, 0
2,27568, Note_on_c, 0, 60, 63
2,27655, Note_on_c, 0, 60, 0
2,27702, Note_on_c, 0, 61, 68
2,27724, Note_on_c, 0, 65, 67
2,27768, Note_on_c, 0, 65, 0
2,27771, Note_on_c, 0, 61, 0
2,27817, Note_on_c, 0, 58, 58
2,27926, Note_on_c, 0, 70, 70
2,27932, Note_on_c, 0, 58, 0
2,27935, Note_on_c, 0, 55, 61
2,27993, Note_on_c, 0, 73, 0
2,28021, Note_on_c, 0, 72, 78
2,28025, Note_on_c, 0, 70, 0
2,28042, Note_on_c, 0, 55, 0
2,28052, Note_on_c, 0, 56, 68
2,28117, Note_on_c, 0, 56, 0
2,28135, Note_on_c, 0, 73, 77
2,28136, Note_on_c, 0, 58, 77
2,28147, Note_on_c, 0, 72, 0
2,28199, Note_on_c, 0, 73, 0
2,28211, Note_on_c, 0, 58, 0
2,28235, Note_on_c, 0, 70, 82
2,28246, Note_on_c, 0, 55, 65
2,28364, Note_on_c, 0, 82, 82
2,28369, Note_on_c, 0, 51, 60
2,28373, Note_on_c, 0, 55, 0
2,28437, Note_on_c, 0, 51, 0
2,28446, Note_on_c, 0, 70, 0
2,28458, Note_on_c, 0, 53, 58
2,28465, Note_on_c, 0, 73, 74
2,28486, Note_on_c, 0, 82, 0
2,28511, Note_on_c, 0, 53, 0
2,28553, Note_on_c, 0, 55, 76
2,28581, Note_on_c, 0, 73, 0
2,28592, Note_on_c, 0, 75, 73
2,28661, Note_on_c, 0, 55, 0
2,28684, Note_on_c, 0, 51, 62
2,28688, Note_on_c, 0, 70, 67
2,28693, Note_on_c, 0, 75, 0
2,28782, Note_on_c, 0, 70, 0
2,28790, Note_on_c, 0, 51, 0
2,28791, Note_on_c, 0, 44, 63
2,28796, Note_on_c, 0, 72, 72
2,28824, Note_on_c, 0, 44, 0
2,28845, Note_on_c, 0, 72, 0
2,28907, Note_on_c, 0, 63, 69
2,28987, Note_on_c, 0, 63, 0
2,29013, Note_on_c, 0, 65, 61
2,29019, Note_on_c, 0, 56, 52
2,29067, Note_on_c, 0, 65, 0
2,29094, Note_on_c, 0, 56, 0
2,29106, Note_on_c, 0, 63, 66
2,29134, Note_on_c, 0, 55, 38
2,29201, Note_on_c, 0, 55, 0
2,29234, Note_on_c, 0, 56, 49
2,29241, Note_on_c, 0, 72, 75
2,29254, Note_on_c, 0, 63, 0
2,29339, Note_on_c, 0, 56, 0
2,29360, Note_on_c, 0, 58, 61
2,29439, Note_on_c, 0, 58, 0
2,29475, Note_on_c, 0, 63, 63
2,29480, Note_on_c, 0, 60, 60
2,29540, Note_on_c, 0, 63, 0
2,29563, Note_on_c, 0, 60, 0
2,29585, Note_on_c, 0, 56, 56
2,29687, Note_on_c, 0, 53, 60
2,29695, Note_on_c, 0, 68, 69
2,29705, Note_on_c, 0, 56, 0
2,29761, Note_on_c, 0, 72, 0
2,29796, Note_on_c, 0, 53, 0
2,29802, Note_on_c, 0, 70, 76
2,29815, Note_on_c, 0, 55, 68
2,29867, Note_on_c, 0, 68, 0
2,29880, Note_on_c, 0, 55, 0
2,29905, Note_on_c, 0, 72, 76
2,29911, Note_on_c, 0, 56, 73
2,29912, Note_on_c, 0, 70, 0
2,29963, Note_on_c, 0, 72, 0
2,29993, Note_on_c, 0, 56, 0
2,29998, Note_on_c, 0, 68, 80
2,30014, Note_on_c, 0, 54, 55
2,30045, Note_on_c, 0, 53, 66
2,30068, Note_on_c, 0, 54, 0
2,30139, Note_on_c, 0, 80, 82
2,30148, Note_on_c, 0, 49, 61
2,30169, Note_on_c, 0, 53, 0
2,30238, Note_on_c, 0, 49, 0
2,30239, Note_on_c, 0, 72, 71
2,30248, Note_on_c, 0, 51, 68
2,30251, Note_on_c, 0, 80, 0
2,30267, Note_on_c, 0, 68, 0
2,30318, Note_on_c, 0, 51, 0
2,30347, Note_on_c, 0, 53, 74
2,30350, Note_on_c, 0, 72, 0
2,30359, Note_on_c, 0, 73, 72
2,30422, Note_on_c, 0, 53, 0
2,30428, Note_on_c, 0, 73, 0
2,30451, Note_on_c, 0, 68, 72
2,30452, Note_on_c, 0, 49, 56
2,30530, Note_on_c, 0, 68, 0
2,30557, Note_on_c, 0, 43, 70
2,30568, Note_on_c, 0, 49, 0
2,30572, Note_on_c, 0, 70, 70
2,30589, Note_on_c, 0, 43, 0
2,30614, Note_on_c, 0, 70, 0
2,30671, Note_on_c, 0, 61, 74
2,30747, Note_on_c, 0, 61, 0
2,30784, Note_on_c, 0, 55, 57
2,30797, Note_on_c, 0, 63, 72
2,30866, Note_on_c, 0, 63, 0
2,30882, Note_on_c, 0, 61, 75
2,30883, Note_on_c, 0, 55, 0
2,30906, Note_on_c, 0, 53, 59
2,31009, Note_on_c, 0, 70, 86
2,31014, Note_on_c, 0, 53, 0
2,31024, Note_on_c, 0, 55, 63
2,31030, Note_on_c, 0, 61, 0
2,31117, Note_on_c, 0, 55, 0
2,31124, Note_on_c, 0, 56, 71
2,31235, Note_on_c, 0, 61, 76
2,31236, Note_on_c, 0, 58, 79
2,31237, Note_on_c, 0, 56, 0
2,31293, Note_on_c, 0, 61, 0
2,31297, Note_on_c, 0, 58, 0
2,31334, Note_on_c, 0, 55, 70
2,31449, Note_on_c, 0, 67, 76
2,31454, Note_on_c, 0, 52, 74
2,31463, Note_on_c, 0, 55, 0
2,31505, Note_on_c, 0, 70, 0
2,31550, Note_on_c, 0, 68, 83
2,31556, Note_on_c, 0, 52, 0
2,31560, Note_on_c, 0, 53, 78
2,31646, Note_on_c, 0, 53, 0
2,31662, Note_on_c, 0, 67, 0
2,31663, Note_on_c, 0, 55, 84
2,31670, Note_on_c, 0, 70, 85
2,31691, Note_on_c, 0, 68, 0
2,31731, Note_on_c, 0, 70, 0
2,31765, Note_on_c, 0, 52, 76
2,31768, Note_on_c, 0, 55, 0
2,31768, Note_on_c, 0, 67, 84
2,31872, Note_on_c, 0, 48, 76
2,31884, Note_on_c, 0, 52, 0
2,31885, Note_on_c, 0, 79, 90
2,31975, Note_on_c, 0, 79, 0
2,31976, Note_on_c, 0, 48, 0
2,31982, Note_on_c, 0, 50, 77
2,31988, Note_on_c, 0, 70, 80
2,32037, Note_on_c, 0, 67, 0
2,32058, Note_on_c, 0, 50, 0
2,32080, Note_on_c, 0, 70, 0
2,32086, Note_on_c, 0, 52, 82
2,32095, Note_on_c, 0, 72, 89
2,32161, Note_on_c, 0, 72, 0
2,32190, Note_on_c, 0, 48, 77
2,32202, Note_on_c, 0, 67, 84
2,32217, Note_on_c, 0, 52, 0
2,32299, Note_on_c, 0, 48, 0
2,32311, Note_on_c, 0, 41, 82
2,32324, Note_on_c, 0, 68, 89
2,32370, Note_on_c, 0, 67, 0
2,32460, Note_on_c, 0, 43, 73
2,32468, Note_on_c, 0, 76, 85
2,32473, Note_on_c, 0, 68, 0
2,32562, Note_on_c, 0, 41, 0
2,32563, Note_on_c, 0, 76, 0
2,32563, Note_on_c, 0, 77, 88
2,32566, Note_on_c, 0, 44, 78
2,32567, Note_on_c, 0, 43, 0
2,32663, Note_on_c, 0, 46, 80
2,32666, Note_on_c, 0, 73, 81
2,32702, Note_on_c, 0, 44, 0
2,32711, Note_on_c, 0, 77, 0
2,32762, Note_on_c, 0, 46, 0
2,32765, Note_on_c, 0, 48, 80
2,32778, Note_on_c, 0, 70, 87
2,32792, Note_on_c, 0, 73, 0
2,32881, Note_on_c, 0, 50, 76
2,32895, Note_on_c, 0, 48, 0
2,32997, Note_on_c, 0, 50, 0
2,33003, Note_on_c, 0, 52, 77
2,33006, Note_on_c, 0, 60, 81
2,33039, Note_on_c, 0, 60, 0
2,33074, Note_on_c, 0, 52, 0
2,33091, Note_on_c, 0, 48, 67
2,33207, Note_on_c, 0, 48, 0
2,33217, Note_on_c, 0, 53, 76
2,33234, Note_on_c, 0, 61, 78
2,33240, Note_on_c, 0, 70, 0
2,33311, Note_on_c, 0, 53, 0
2,33311, Note_on_c, 0, 61, 0
2,33315, Note_on_c, 0, 51, 75
2,33320, Note_on_c, 0, 60, 78
2,33425, Note_on_c, 0, 49, 72
2,33426, Note_on_c, 0, 51, 0
2,33430, Note_on_c, 0, 58, 83
2,33441, Note_on_c, 0, 60, 0
2,33506, Note_on_c, 0, 58, 0
2,33524, Note_on_c, 0, 49, 0
2,33527, Note_on_c, 0, 51, 80
2,33542, Note_on_c, 0, 60, 76
2,33647, Note_on_c, 0, 51, 0
2,33658, Note_on_c, 0, 53, 71
2,33665, Note_on_c, 0, 68, 86
2,33687, Note_on_c, 0, 60, 0
2,33762, Note_on_c, 0, 51, 76
2,33764, Note_on_c, 0, 53, 0
2,33881, Note_on_c, 0, 49, 73
2,33883, Note_on_c, 0, 51, 0
2,33894, Note_on_c, 0, 65, 79
2,33933, Note_on_c, 0, 66, 7
2,33934, Note_on_c, 0, 66, 0
2,33948, Note_on_c, 0, 65, 0
2,33991, Note_on_c, 0, 48, 72
2,33991, Note_on_c, 0, 49, 0
2,34134, Note_on_c, 0, 48, 0
2,34139, Note_on_c, 0, 49, 78
2,34147, Note_on_c, 0, 60, 82
2,34324, Note_on_c, 0, 60, 0
2,34377, Note_on_c, 0, 58, 73
2,34380, Note_on_c, 0, 68, 0
2,34470, Note_on_c, 0, 56, 81
2,34471, Note_on_c, 0, 58, 0
2,34551, Note_on_c, 0, 56, 0
2,34594, Note_on_c, 0, 58, 83
2,34603, Note_on_c, 0, 67, 65
2,34657, Note_on_c, 0, 67, 0
2,34660, Note_on_c, 0, 58, 0
2,34694, Note_on_c, 0, 49, 0
2,34712, Note_on_c, 0, 48, 76
2,34830, Note_on_c, 0, 46, 75
2,34831, Note_on_c, 0, 48, 0
2,34833, Note_on_c, 0, 67, 77
2,34879, Note_on_c, 0, 67, 0
2,34935, Note_on_c, 0, 46, 0
2,34940, Note_on_c, 0, 49, 76
2,35052, Note_on_c, 0, 49, 0
2,35056, Note_on_c, 0, 56, 85
2,35057, Note_on_c, 0, 48, 79
2,35113, Note_on_c, 0, 56, 0
2,35159, Note_on_c, 0, 48, 0
2,35162, Note_on_c, 0, 46, 73
2,35279, Note_on_c, 0, 65, 79
2,35285, Note_on_c, 0, 44, 73
2,35287, Note_on_c, 0, 56, 80
2,35296, Note_on_c, 0, 46, 0
2,35340, Note_on_c, 0, 56, 0
2,35352, Note_on_c, 0, 65, 0
2,35396, Note_on_c, 0, 44, 0
2,35410, Note_on_c, 0, 48, 68
2,35519, Note_on_c, 0, 64, 73
2,35520, Note_on_c, 0, 55, 76
2,35522, Note_on_c, 0, 48, 0
2,35525, Note_on_c, 0, 46, 72
2,35550, Note_on_c, 0, 55, 0
2,35558, Note_on_c, 0, 64, 0
2,35637, Note_on_c, 0, 44, 76
2,35644, Note_on_c, 0, 46, 0
2,35762, Note_on_c, 0, 64, 63
2,35763, Note_on_c, 0, 67, 60
2,35764, Note_on_c, 0, 69, 70
2,35767, Note_on_c, 0, 65, 67
2,35770, Note_on_c, 0, 46, 76
2,35776, Note_on_c, 0, 44, 0
2,35791, Note_on_c, 0, 65, 0
2,35792, Note_on_c, 0, 64, 0
2,35792, Note_on_c, 0, 67, 0
2,35792, Note_on_c, 0, 69, 0
2,35863, Note_on_c, 0, 46, 0
2,35871, Note_on_c, 0, 43, 67
2,35987, Note_on_c, 0, 44, 82
2,35988, Note_on_c, 0, 43, 0
2,35996, Note_on_c, 0, 72, 88
2,36010, Note_on_c, 0, 53, 76
2,36062, Note_on_c, 0, 44, 0
2,36102, Note_on_c, 0, 72, 0
2,36104, Note_on_c, 0, 70, 80
2,36219, Note_on_c, 0, 70, 0
2,36224, Note_on_c, 0, 68, 81
2,36229, Note_on_c, 0, 49, 74
2,36278, Note_on_c, 0, 49, 0
2,36338, Note_on_c, 0, 72, 84
2,36360, Note_on_c, 0, 68, 0
2,36448, Note_on_c, 0, 43, 75
2,36460, Note_on_c, 0, 70, 84
2,36464, Note_on_c, 0, 53, 0
2,36485, Note_on_c, 0, 72, 0
2,36513, Note_on_c, 0, 43, 0
2,36556, Note_on_c, 0, 70, 0
2,36557, Note_on_c, 0, 68, 81
2,36664, Note_on_c, 0, 68, 0
2,36678, Note_on_c, 0, 48, 64
2,36681, Note_on_c, 0, 52, 77
2,36681, Note_on_c, 0, 67, 79
2,36724, Note_on_c, 0, 48, 0
2,36775, Note_on_c, 0, 67, 0
2,36786, Note_on_c, 0, 70, 77
2,36811, Note_on_c, 0, 52, 0
2,36883, Note_on_c, 0, 70, 0
2,36893, Note_on_c, 0, 68, 82
2,36904, Note_on_c, 0, 41, 71
2,36912, Note_on_c, 0, 53, 76
2,36950, Note_on_c, 0, 41, 0
2,36956, Note_on_c, 0, 53, 0
2,36994, Note_on_c, 0, 68, 0
2,37024, Note_on_c, 0, 65, 78
2,37124, Note_on_c, 0, 65, 0
2,37136, Note_on_c, 0, 73, 81
2,37137, Note_on_c, 0, 52, 81
2,37146, Note_on_c, 0, 46, 77
2,37172, Note_on_c, 0, 52, 0
2,37201, Note_on_c, 0, 46, 0
2,37232, Note_on_c, 0, 70, 86
2,37232, Note_on_c, 0, 73, 0
2,37323, Note_on_c, 0, 70, 0
2,37348, Note_on_c, 0, 72, 84
2,37357, Note_on_c, 0, 53, 83
2,37363, Note_on_c, 0, 44, 74
2,37397, Note_on_c, 0, 44, 0
2,37403, Note_on_c, 0, 53, 0
2,37409, Note_on_c, 0, 72, 0
2,37455, Note_on_c, 0, 68, 89
2,37547, Note_on_c, 0, 68, 0
2,37572, Note_on_c, 0, 58, 85
2,37576, Note_on_c, 0, 49, 67
2,37577, Note_on_c, 0, 78, 82
2,37604, Note_on_c, 0, 58, 0
2,37615, Note_on_c, 0, 49, 0
2,37637, Note_on_c, 0, 78, 0
2,37675, Note_on_c, 0, 76, 84
2,37732, Note_on_c, 0, 76, 0
2,37806, Note_on_c, 0, 76, 92
2,37812, Note_on_c, 0, 56, 87
2,37815, Note_on_c, 0, 48, 71
2,37919, Note_on_c, 0, 77, 92
2,37934, Note_on_c, 0, 56, 0
2,37947, Note_on_c, 0, 76, 0
2,38033, Note_on_c, 0, 83, 92
2,38045, Note_on_c, 0, 55, 75
2,38052, Note_on_c, 0, 77, 0
2,38130, Note_on_c, 0, 55, 0
2,38130, Note_on_c, 0, 83, 0
2,38135, Note_on_c, 0, 84, 87
2,38149, Note_on_c, 0, 53, 69
2,38209, Note_on_c, 0, 84, 0
2,38269, Note_on_c, 0, 53, 0
2,38270, Note_on_c, 0, 77, 82
2,38274, Note_on_c, 0, 55, 73
2,38321, Note_on_c, 0, 77, 0
2,38338, Note_on_c, 0, 76, 77
2,38384, Note_on_c, 0, 76, 0
2,38395, Note_on_c, 0, 77, 79
2,38435, Note_on_c, 0, 77, 0
2,38454, Note_on_c, 0, 76, 66
2,38484, Note_on_c, 0, 58, 73
2,38485, Note_on_c, 0, 48, 0
2,38485, Note_on_c, 0, 76, 0
2,38500, Note_on_c, 0, 77, 74
2,38518, Note_on_c, 0, 55, 0
2,38531, Note_on_c, 0, 77, 0
2,38539, Note_on_c, 0, 76, 78
2,38607, Note_on_c, 0, 76, 0
2,38636, Note_on_c, 0, 77, 79
2,38692, Note_on_c, 0, 77, 0
2,38713, Note_on_c, 0, 53, 42
2,38715, Note_on_c, 0, 58, 0
2,38732, Note_on_c, 0, 56, 55
2,38761, Note_on_c, 0, 77, 85
2,38875, Note_on_c, 0, 58, 66
2,38879, Note_on_c, 0, 56, 0
2,38947, Note_on_c, 0, 58, 0
2,38974, Note_on_c, 0, 60, 68
2,39016, Note_on_c, 0, 60, 0
2,39065, Note_on_c, 0, 77, 0
2,39077, Note_on_c, 0, 56, 57
2,39118, Note_on_c, 0, 53, 0
2,39153, Note_on_c, 0, 56, 0
2,39167, Note_on_c, 0, 53, 53
2,39265, Note_on_c, 0, 53, 0
2,39285, Note_on_c, 0, 54, 60
2,39393, Note_on_c, 0, 54, 0
2,39407, Note_on_c, 0, 56, 63
2,39408, Note_on_c, 0, 77, 68
2,39442, Note_on_c, 0, 77, 0
2,39481, Note_on_c, 0, 56, 0
2,39504, Note_on_c, 0, 53, 61
2,39594, Note_on_c, 0, 53, 0
2,39619, Note_on_c, 0, 50, 60
2,39628, Note_on_c, 0, 71, 67
2,39698, Note_on_c, 0, 71, 0
2,39708, Note_on_c, 0, 50, 0
2,39723, Note_on_c, 0, 70, 69
2,39728, Note_on_c, 0, 51, 64
2,39803, Note_on_c, 0, 51, 0
2,39820, Note_on_c, 0, 70, 0
2,39830, Note_on_c, 0, 68, 69
2,39836, Note_on_c, 0, 53, 63
2,39879, Note_on_c, 0, 68, 0
2,39916, Note_on_c, 0, 53, 0
2,39932, Note_on_c, 0, 70, 65
2,39943, Note_on_c, 0, 50, 51
2,40044, Note_on_c, 0, 50, 0
2,40060, Note_on_c, 0, 77, 73
2,40068, Note_on_c, 0, 46, 66
2,40079, Note_on_c, 0, 70, 0
2,40099, Note_on_c, 0, 77, 0
2,40168, Note_on_c, 0, 46, 0
2,40188, Note_on_c, 0, 50, 51
2,40290, Note_on_c, 0, 50, 0
2,40297, Note_on_c, 0, 74, 69
2,40308, Note_on_c, 0, 53, 59
2,40327, Note_on_c, 0, 74, 0
2,40383, Note_on_c, 0, 53, 0
2,40415, Note_on_c, 0, 58, 62
2,40486, Note_on_c, 0, 58, 0
2,40518, Note_on_c, 0, 51, 66
2,40520, Note_on_c, 0, 68, 69
2,40608, Note_on_c, 0, 51, 0
2,40628, Note_on_c, 0, 54, 56
2,40725, Note_on_c, 0, 54, 0
2,40735, Note_on_c, 0, 58, 63
2,40735, Note_on_c, 0, 66, 66
2,40751, Note_on_c, 0, 68, 0
2,40817, Note_on_c, 0, 58, 0
2,40826, Note_on_c, 0, 66, 0
2,40834, Note_on_c, 0, 65, 69
2,40844, Note_on_c, 0, 62, 64
2,40930, Note_on_c, 0, 65, 0
2,40941, Note_on_c, 0, 62, 0
2,40958, Note_on_c, 0, 66, 72
2,40989, Note_on_c, 0, 66, 0
2,41075, Note_on_c, 0, 65, 63
2,41150, Note_on_c, 0, 65, 0
2,41172, Note_on_c, 0, 66, 60
2,41175, Note_on_c, 0, 75, 69
2,41238, Note_on_c, 0, 75, 0
2,41241, Note_on_c, 0, 66, 0
2,41293, Note_on_c, 0, 63, 56
2,41390, Note_on_c, 0, 69, 68
2,41395, Note_on_c, 0, 63, 0
2,41399, Note_on_c, 0, 60, 63
2,41450, Note_on_c, 0, 69, 0
2,41492, Note_on_c, 0, 60, 0
2,41492, Note_on_c, 0, 68, 73
2,41509, Note_on_c, 0, 61, 64
2,41575, Note_on_c, 0, 61, 0
2,41586, Note_on_c, 0, 68, 0
2,41602, Note_on_c, 0, 66, 73
2,41611, Note_on_c, 0, 63, 67
2,41677, Note_on_c, 0, 66, 0
2,41681, Note_on_c, 0, 63, 0
2,41714, Note_on_c, 0, 68, 73
2,41732, Note_on_c, 0, 59, 50
2,41758, Note_on_c, 0, 59, 0
2,41819, Note_on_c, 0, 56, 73
2,41820, Note_on_c, 0, 75, 78
2,41830, Note_on_c, 0, 68, 0
2,41873, Note_on_c, 0, 56, 0
2,41884, Note_on_c, 0, 75, 0
2,41915, Note_on_c, 0, 44, 58
2,42007, Note_on_c, 0, 44, 0
2,42015, Note_on_c, 0, 46, 52
2,42044, Note_on_c, 0, 72, 69
2,42075, Note_on_c, 0, 72, 0
2,42105, Note_on_c, 0, 46, 0
2,42117, Note_on_c, 0, 48, 62
2,42178, Note_on_c, 0, 48, 0
2,42239, Note_on_c, 0, 49, 58
2,42258, Note_on_c, 0, 66, 63
2,42341, Note_on_c, 0, 49, 0
2,42355, Note_on_c, 0, 56, 61
2,42445, Note_on_c, 0, 56, 0
2,42463, Note_on_c, 0, 66, 0
2,42475, Note_on_c, 0, 65, 55
2,42480, Note_on_c, 0, 58, 64
2,42548, Note_on_c, 0, 58, 0
2,42575, Note_on_c, 0, 65, 0
2,42579, Note_on_c, 0, 63, 63
2,42592, Note_on_c, 0, 60, 61
2,42645, Note_on_c, 0, 63, 0
2,42689, Note_on_c, 0, 65, 71
2,42735, Note_on_c, 0, 61, 58
2,42744, Note_on_c, 0, 60, 0
2,42784, Note_on_c, 0, 51, 65
2,42794, Note_on_c, 0, 61, 0
2,42795, Note_on_c, 0, 68, 75
2,42875, Note_on_c, 0, 51, 0
2,42876, Note_on_c, 0, 68, 0
2,42885, Note_on_c, 0, 53, 56
2,42900, Note_on_c, 0, 73, 80
2,42921, Note_on_c, 0, 65, 0
2,42993, Note_on_c, 0, 53, 0
2,43007, Note_on_c, 0, 75, 85
2,43015, Note_on_c, 0, 55, 51
2,43038, Note_on_c, 0, 73, 0
2,43072, Note_on_c, 0, 75, 0
2,43110, Note_on_c, 0, 77, 89
2,43113, Note_on_c, 0, 56, 73
2,43117, Note_on_c, 0, 55, 0
2,43196, Note_on_c, 0, 77, 0
2,43221, Note_on_c, 0, 56, 0
2,43229, Note_on_c, 0, 75, 85
2,43237, Note_on_c, 0, 55, 68
2,43334, Note_on_c, 0, 55, 0
2,43339, Note_on_c, 0, 53, 69
2,43339, Note_on_c, 0, 73, 86
2,43349, Note_on_c, 0, 75, 0
2,43440, Note_on_c, 0, 73, 0
2,43440, Note_on_c, 0, 75, 84
2,43443, Note_on_c, 0, 53, 0
2,43448, Note_on_c, 0, 55, 67
2,43557, Note_on_c, 0, 55, 0
2,43560, Note_on_c, 0, 56, 75
2,43563, Note_on_c, 0, 84, 96
2,43571, Note_on_c, 0, 75, 0
2,43572, Note_on_c, 0, 72, 90
2,43615, Note_on_c, 0, 84, 0
2,43644, Note_on_c, 0, 56, 0
2,43668, Note_on_c, 0, 55, 73
2,43795, Note_on_c, 0, 55, 0
2,43800, Note_on_c, 0, 80, 86
2,43806, Note_on_c, 0, 53, 69
2,43835, Note_on_c, 0, 80, 0
2,43910, Note_on_c, 0, 53, 0
2,43921, Note_on_c, 0, 51, 67
2,44054, Note_on_c, 0, 75, 89
2,44055, Note_on_c, 0, 53, 79
2,44058, Note_on_c, 0, 51, 0
2,44279, Note_on_c, 0, 72, 0
2,44299, Note_on_c, 0, 73, 76
2,44334, Note_on_c, 0, 75, 0
2,44368, Note_on_c, 0, 73, 0
2,44390, Note_on_c, 0, 72, 81
2,44465, Note_on_c, 0, 72, 0
2,44513, Note_on_c, 0, 70, 74
2,44514, Note_on_c, 0, 73, 77
2,44547, Note_on_c, 0, 73, 0
2,44603, Note_on_c, 0, 51, 59
2,44650, Note_on_c, 0, 53, 0
2,44734, Note_on_c, 0, 49, 52
2,44738, Note_on_c, 0, 51, 0
2,44738, Note_on_c, 0, 82, 79
2,44817, Note_on_c, 0, 49, 0
2,44819, Note_on_c, 0, 82, 0
2,44854, Note_on_c, 0, 53, 59
2,44957, Note_on_c, 0, 53, 0
2,44969, Note_on_c, 0, 51, 67
2,44970, Note_on_c, 0, 72, 80
2,44985, Note_on_c, 0, 70, 0
2,45019, Note_on_c, 0, 72, 0
2,45070, Note_on_c, 0, 51, 0
2,45071, Note_on_c, 0, 49, 60
2,45171, Note_on_c, 0, 49, 0
2,45202, Note_on_c, 0, 48, 22
2,45210, Note_on_c, 0, 80, 65
2,45213, Note_on_c, 0, 68, 76
2,45275, Note_on_c, 0, 68, 0
2,45287, Note_on_c, 0, 48, 0
2,45294, Note_on_c, 0, 51, 61
2,45317, Note_on_c, 0, 80, 0
2,45394, Note_on_c, 0, 51, 0
2,45415, Note_on_c, 0, 49, 63
2,45426, Note_on_c, 0, 70, 71
2,45465, Note_on_c, 0, 67, 14
2,45486, Note_on_c, 0, 70, 0
2,45509, Note_on_c, 0, 67, 0
2,45517, Note_on_c, 0, 49, 0
2,45561, Note_on_c, 0, 48, 27
2,45637, Note_on_c, 0, 48, 0
2,45651, Note_on_c, 0, 46, 62
2,45667, Note_on_c, 0, 79, 68
2,45673, Note_on_c, 0, 70, 65
2,45694, Note_on_c, 0, 79, 0
2,45701, Note_on_c, 0, 70, 0
2,45783, Note_on_c, 0, 46, 0
2,45784, Note_on_c, 0, 49, 51
2,45891, Note_on_c, 0, 48, 56
2,45901, Note_on_c, 0, 49, 0
2,45905, Note_on_c, 0, 68, 66
2,45917, Note_on_c, 0, 48, 0
2,45949, Note_on_c, 0, 68, 0
2,45994, Note_on_c, 0, 63, 59
2,46068, Note_on_c, 0, 63, 0
2,46114, Note_on_c, 0, 51, 73
2,46120, Note_on_c, 0, 65, 54
2,46144, Note_on_c, 0, 51, 0
2,46194, Note_on_c, 0, 65, 0
2,46214, Note_on_c, 0, 67, 56
2,46297, Note_on_c, 0, 67, 0
2,46335, Note_on_c, 0, 68, 60
2,46345, Note_on_c, 0, 54, 84
2,46431, Note_on_c, 0, 68, 0
2,46453, Note_on_c, 0, 70, 58
2,46564, Note_on_c, 0, 70, 0
2,46571, Note_on_c, 0, 56, 71
2,46574, Note_on_c, 0, 72, 60
2,46617, Note_on_c, 0, 72, 0
2,46631, Note_on_c, 0, 56, 0
2,46682, Note_on_c, 0, 68, 53
2,46800, Note_on_c, 0, 58, 73
2,46811, Note_on_c, 0, 68, 0
2,46814, Note_on_c, 0, 73, 65
2,46866, Note_on_c, 0, 58, 0
2,46884, Note_on_c, 0, 56, 74
2,46884, Note_on_c, 0, 73, 0
2,46892, Note_on_c, 0, 54, 0
2,46914, Note_on_c, 0, 72, 64
2,46994, Note_on_c, 0, 56, 0
2,47009, Note_on_c, 0, 54, 77
2,47012, Note_on_c, 0, 72, 0
2,47023, Note_on_c, 0, 70, 72
2,47097, Note_on_c, 0, 70, 0
2,47110, Note_on_c, 0, 56, 78
2,47111, Note_on_c, 0, 54, 0
2,47127, Note_on_c, 0, 72, 75
2,47216, Note_on_c, 0, 56, 0
2,47233, Note_on_c, 0, 53, 75
2,47241, Note_on_c, 0, 72, 0
2,47243, Note_on_c, 0, 65, 77
2,47250, Note_on_c, 0, 73, 75
2,47278, Note_on_c, 0, 65, 0
2,47309, Note_on_c, 0, 73, 0
2,47349, Note_on_c, 0, 72, 75
2,47449, Note_on_c, 0, 72, 0
2,47468, Note_on_c, 0, 70, 66
2,47482, Note_on_c, 0, 61, 73
2,47509, Note_on_c, 0, 61, 0
2,47534, Note_on_c, 0, 70, 0
2,47571, Note_on_c, 0, 68, 72
2,47701, Note_on_c, 0, 70, 70
2,47703, Note_on_c, 0, 68, 0
2,47708, Note_on_c, 0, 56, 74
2,47939, Note_on_c, 0, 53, 0
2,47965, Note_on_c, 0, 54, 65
2,48018, Note_on_c, 0, 56, 0
2,48054, Note_on_c, 0, 54, 0
2,48072, Note_on_c, 0, 53, 61
2,48178, Note_on_c, 0, 53, 0
2,48190, Note_on_c, 0, 51, 74
2,48192, Note_on_c, 0, 54, 68
2,48230, Note_on_c, 0, 54, 0
2,48295, Note_on_c, 0, 68, 61
2,48392, Note_on_c, 0, 70, 0
2,48415, Note_on_c, 0, 66, 69
2,48419, Note_on_c, 0, 68, 0
2,48420, Note_on_c, 0, 63, 69
2,48452, Note_on_c, 0, 63, 0
2,48540, Note_on_c, 0, 66, 0
2,48540, Note_on_c, 0, 70, 68
2,48594, Note_on_c, 0, 51, 0
2,48620, Note_on_c, 0, 70, 0
2,48660, Note_on_c, 0, 53, 71
2,48661, Note_on_c, 0, 68, 70
2,48696, Note_on_c, 0, 53, 0
2,48754, Note_on_c, 0, 68, 0
2,48761, Note_on_c, 0, 66, 68
2,48840, Note_on_c, 0, 66, 0
2,48874, Note_on_c, 0, 65, 68
2,48883, Note_on_c, 0, 49, 63
2,48889, Note_on_c, 0, 61, 56
2,48937, Note_on_c, 0, 61, 0
2,48977, Note_on_c, 0, 68, 68
2,48987, Note_on_c, 0, 65, 0
2,49049, Note_on_c, 0, 49, 0
2,49060, Note_on_c, 0, 68, 0
2,49091, Note_on_c, 0, 66, 66
2,49096, Note_on_c, 0, 51, 69
2,49132, Note_on_c, 0, 51, 0
2,49169, Note_on_c, 0, 66, 0
2,49189, Note_on_c, 0, 65, 67
2,49267, Note_on_c, 0, 65, 0
2,49326, Note_on_c, 0, 63, 60
2,49328, Note_on_c, 0, 44, 55
2,49338, Note_on_c, 0, 60, 48
2,49372, Note_on_c, 0, 60, 0
2,49413, Note_on_c, 0, 63, 0
2,49424, Note_on_c, 0, 66, 63
2,49476, Note_on_c, 0, 44, 0
2,49496, Note_on_c, 0, 66, 0
2,49545, Note_on_c, 0, 65, 69
2,49550, Note_on_c, 0, 49, 47
2,49553, Note_on_c, 0, 61, 59
2,49595, Note_on_c, 0, 65, 0
2,49648, Note_on_c, 0, 49, 0
2,49671, Note_on_c, 0, 51, 62
2,49747, Note_on_c, 0, 51, 0
2,49772, Note_on_c, 0, 53, 60
2,49776, Note_on_c, 0, 68, 63
2,49809, Note_on_c, 0, 68, 0
2,49865, Note_on_c, 0, 53, 0
2,49889, Note_on_c, 0, 54, 59
2,49961, Note_on_c, 0, 54, 0
2,50001, Note_on_c, 0, 73, 71
2,50005, Note_on_c, 0, 53, 51
2,50039, Note_on_c, 0, 61, 0
2,50106, Note_on_c, 0, 53, 0
2,50112, Note_on_c, 0, 51, 63
2,50118, Note_on_c, 0, 73, 0
2,50218, Note_on_c, 0, 49, 52
2,50243, Note_on_c, 0, 80, 69
2,50252, Note_on_c, 0, 51, 0
2,50301, Note_on_c, 0, 49, 0
2,50323, Note_on_c, 0, 80, 0
2,50325, Note_on_c, 0, 53, 58
2,50349, Note_on_c, 0, 77, 69
2,50414, Note_on_c, 0, 53, 0
2,50423, Note_on_c, 0, 77, 0
2,50454, Note_on_c, 0, 73, 75
2,50455, Note_on_c, 0, 58, 72
2,50548, Note_on_c, 0, 58, 0
2,50554, Note_on_c, 0, 56, 64
2,50668, Note_on_c, 0, 55, 63
2,50671, Note_on_c, 0, 56, 0
2,50676, Note_on_c, 0, 76, 78
2,50684, Note_on_c, 0, 73, 0
2,50773, Note_on_c, 0, 55, 0
2,50774, Note_on_c, 0, 73, 82
2,50778, Note_on_c, 0, 58, 74
2,50785, Note_on_c, 0, 76, 0
2,50886, Note_on_c, 0, 58, 0
2,50894, Note_on_c, 0, 61, 85
2,50894, Note_on_c, 0, 73, 0
2,50895, Note_on_c, 0, 70, 88
2,50978, Note_on_c, 0, 61, 0
2,50994, Note_on_c, 0, 59, 64
2,51077, Note_on_c, 0, 59, 0
2,51079, Note_on_c, 0, 58, 69
2,51111, Note_on_c, 0, 58, 0
2,51152, Note_on_c, 0, 73, 77
2,51158, Note_on_c, 0, 70, 0
2,51192, Note_on_c, 0, 61, 72
2,51253, Note_on_c, 0, 70, 80
2,51255, Note_on_c, 0, 73, 0
2,51259, Note_on_c, 0, 63, 75
2,51261, Note_on_c, 0, 61, 0
2,51344, Note_on_c, 0, 64, 90
2,51347, Note_on_c, 0, 67, 81
2,51353, Note_on_c, 0, 63, 0
2,51356, Note_on_c, 0, 70, 0
2,51575, Note_on_c, 0, 63, 71
2,51579, Note_on_c, 0, 64, 0
2,51581, Note_on_c, 0, 70, 81
2,51655, Note_on_c, 0, 70, 0
2,51681, Note_on_c, 0, 61, 74
2,51682, Note_on_c, 0, 73, 82
2,51689, Note_on_c, 0, 63, 0
2,51754, Note_on_c, 0, 73, 0
2,51760, Note_on_c, 0, 61, 0
2,51791, Note_on_c, 0, 59, 81
2,51803, Note_on_c, 0, 76, 87
2,51840, Note_on_c, 0, 76, 0
2,51890, Note_on_c, 0, 59, 0
2,51899, Note_on_c, 0, 58, 77
2,52004, Note_on_c, 0, 58, 0
2,52019, Note_on_c, 0, 56, 76
2,52026, Note_on_c, 0, 73, 83
2,52035, Note_on_c, 0, 67, 0
2,52067, Note_on_c, 0, 73, 0
2,52123, Note_on_c, 0, 55, 72
2,52129, Note_on_c, 0, 56, 0
2,52249, Note_on_c, 0, 56, 79
2,52253, Note_on_c, 0, 71, 91
2,52255, Note_on_c, 0, 55, 0
2,52255, Note_on_c, 0, 75, 86
2,52307, Note_on_c, 0, 75, 0
2,52334, Note_on_c, 0, 56, 0
2,52351, Note_on_c, 0, 59, 70
2,52478, Note_on_c, 0, 59, 0
2,52479, Note_on_c, 0, 58, 78
2,52492, Note_on_c, 0, 80, 85
2,52508, Note_on_c, 0, 71, 0
2,52549, Note_on_c, 0, 80, 0
2,52580, Note_on_c, 0, 56, 80
2,52598, Note_on_c, 0, 58, 0
2,52664, Note_on_c, 0, 56, 0
2,52696, Note_on_c, 0, 55, 83
2,52713, Note_on_c, 0, 73, 84
2,52716, Note_on_c, 0, 70, 83
2,52751, Note_on_c, 0, 70, 0
2,52762, Note_on_c, 0, 73, 0
2,52802, Note_on_c, 0, 52, 73
2,52811, Note_on_c, 0, 55, 0
2,52916, Note_on_c, 0, 51, 82
2,52931, Note_on_c, 0, 79, 90
2,52936, Note_on_c, 0, 52, 0
2,52972, Note_on_c, 0, 79, 0
2,53021, Note_on_c, 0, 49, 75
2,53040, Note_on_c, 0, 51, 0
2,53146, Note_on_c, 0, 47, 85
2,53148, Note_on_c, 0, 49, 0
2,53150, Note_on_c, 0, 68, 93
2,53208, Note_on_c, 0, 68, 0
2,53246, Note_on_c, 0, 49, 82
2,53252, Note_on_c, 0, 47, 0
2,53333, Note_on_c, 0, 49, 0
2,53359, Note_on_c, 0, 51, 94
2,53368, Note_on_c, 0, 80, 84
2,53441, Note_on_c, 0, 51, 0
2,53445, Note_on_c, 0, 80, 0
2,53449, Note_on_c, 0, 47, 73
2,53460, Note_on_c, 0, 79, 89
2,53557, Note_on_c, 0, 79, 0
2,53565, Note_on_c, 0, 47, 0
2,53570, Note_on_c, 0, 44, 88
2,53581, Note_on_c, 0, 80, 92
2,53598, Note_on_c, 0, 44, 0
2,53693, Note_on_c, 0, 82, 80
2,53735, Note_on_c, 0, 80, 0
2,53804, Note_on_c, 0, 83, 81
2,53805, Note_on_c, 0, 56, 69
2,53811, Note_on_c, 0, 82, 0
2,53876, Note_on_c, 0, 56, 0
2,53894, Note_on_c, 0, 53, 69
2,53897, Note_on_c, 0, 80, 74
2,53900, Note_on_c, 0, 83, 0
2,53990, Note_on_c, 0, 80, 0
2,54007, Note_on_c, 0, 49, 72
2,54012, Note_on_c, 0, 53, 0
2,54018, Note_on_c, 0, 77, 78
2,54032, Note_on_c, 0, 49, 0
2,54090, Note_on_c, 0, 77, 0
2,54123, Note_on_c, 0, 78, 73
2,54236, Note_on_c, 0, 59, 75
2,54238, Note_on_c, 0, 80, 74
2,54252, Note_on_c, 0, 78, 0
2,54322, Note_on_c, 0, 80, 0
2,54326, Note_on_c, 0, 77, 74
2,54327, Note_on_c, 0, 56, 73
2,54340, Note_on_c, 0, 59, 0
2,54417, Note_on_c, 0, 77, 0
2,54441, Note_on_c, 0, 53, 77
2,54447, Note_on_c, 0, 73, 72
2,54452, Note_on_c, 0, 56, 0
2,54469, Note_on_c, 0, 53, 0
2,54533, Note_on_c, 0, 73, 0
2,54555, Note_on_c, 0, 75, 71
2,54669, Note_on_c, 0, 49, 58
2,54673, Note_on_c, 0, 75, 0
2,54693, Note_on_c, 0, 77, 68
2,54746, Note_on_c, 0, 49, 0
2,54766, Note_on_c, 0, 46, 59
2,54785, Note_on_c, 0, 77, 0
2,54794, Note_on_c, 0, 73, 64
2,54864, Note_on_c, 0, 73, 0
2,54881, Note_on_c, 0, 42, 69
2,54890, Note_on_c, 0, 46, 0
2,54903, Note_on_c, 0, 70, 58
2,54911, Note_on_c, 0, 42, 0
2,54949, Note_on_c, 0, 70, 0
2,55003, Note_on_c, 0, 72, 67
2,55120, Note_on_c, 0, 58, 79
2,55121, Note_on_c, 0, 72, 0
2,55122, Note_on_c, 0, 73, 70
2,55188, Note_on_c, 0, 73, 0
2,55208, Note_on_c, 0, 54, 72
2,55223, Note_on_c, 0, 70, 77
2,55282, Note_on_c, 0, 58, 0
2,55315, Note_on_c, 0, 51, 76
2,55327, Note_on_c, 0, 70, 0
2,55339, Note_on_c, 0, 54, 0
2,55340, Note_on_c, 0, 78, 76
2,55350, Note_on_c, 0, 51, 0
2,55415, Note_on_c, 0, 78, 0
2,55457, Note_on_c, 0, 80, 69
2,55565, Note_on_c, 0, 54, 55
2,55581, Note_on_c, 0, 82, 69
2,55583, Note_on_c, 0, 80, 0
2,55613, Note_on_c, 0, 54, 0
2,55638, Note_on_c, 0, 51, 60
2,55670, Note_on_c, 0, 82, 0
2,55675, Note_on_c, 0, 78, 68
2,55756, Note_on_c, 0, 78, 0
2,55760, Note_on_c, 0, 48, 56
2,55765, Note_on_c, 0, 51, 0
2,55784, Note_on_c, 0, 75, 68
2,55787, Note_on_c, 0, 48, 0
2,55869, Note_on_c, 0, 75, 0
2,55891, Note_on_c, 0, 77, 66
2,55994, Note_on_c, 0, 58, 78
2,56009, Note_on_c, 0, 78, 71
2,56018, Note_on_c, 0, 77, 0
2,56089, Note_on_c, 0, 54, 73
2,56105, Note_on_c, 0, 75, 73
2,56113, Note_on_c, 0, 78, 0
2,56144, Note_on_c, 0, 58, 0
2,56199, Note_on_c, 0, 75, 0
2,56202, Note_on_c, 0, 51, 72
2,56230, Note_on_c, 0, 54, 0
2,56233, Note_on_c, 0, 72, 63
2,56237, Note_on_c, 0, 51, 0
2,56275, Note_on_c, 0, 72, 0
2,56318, Note_on_c, 0, 73, 63
2,56433, Note_on_c, 0, 73, 0
2,56447, Note_on_c, 0, 75, 60
2,56458, Note_on_c, 0, 48, 45
2,56517, Note_on_c, 0, 75, 0
2,56520, Note_on_c, 0, 48, 0
2,56535, Note_on_c, 0, 44, 53
2,56550, Note_on_c, 0, 72, 51
2,56617, Note_on_c, 0, 72, 0
2,56648, Note_on_c, 0, 41, 65
2,56656, Note_on_c, 0, 44, 0
2,56656, Note_on_c, 0, 68, 56
2,56679, Note_on_c, 0, 41, 0
2,56734, Note_on_c, 0, 68, 0
2,56764, Note_on_c, 0, 70, 55
2,56860, Note_on_c, 0, 70, 0
2,56878, Note_on_c, 0, 72, 62
2,56879, Note_on_c, 0, 56, 70
2,56941, Note_on_c, 0, 72, 0
2,56969, Note_on_c, 0, 53, 69
2,56994, Note_on_c, 0, 68, 77
2,57014, Note_on_c, 0, 56, 0
2,57089, Note_on_c, 0, 50, 74
2,57092, Note_on_c, 0, 68, 0
2,57107, Note_on_c, 0, 53, 0
2,57116, Note_on_c, 0, 77, 68
2,57118, Note_on_c, 0, 50, 0
2,57196, Note_on_c, 0, 77, 0
2,57218, Note_on_c, 0, 78, 70
2,57324, Note_on_c, 0, 53, 64
2,57336, Note_on_c, 0, 80, 66
2,57339, Note_on_c, 0, 78, 0
2,57409, Note_on_c, 0, 53, 0
2,57425, Note_on_c, 0, 80, 0
2,57431, Note_on_c, 0, 50, 53
2,57434, Note_on_c, 0, 77, 70
2,57537, Note_on_c, 0, 77, 0
2,57547, Note_on_c, 0, 46, 57
2,57549, Note_on_c, 0, 50, 0
2,57560, Note_on_c, 0, 74, 68
2,57572, Note_on_c, 0, 46, 0
2,57612, Note_on_c, 0, 74, 0
2,57653, Note_on_c, 0, 75, 70
2,57777, Note_on_c, 0, 56, 67
2,57784, Note_on_c, 0, 77, 71
2,57786, Note_on_c, 0, 75, 0
2,57866, Note_on_c, 0, 53, 64
2,57874, Note_on_c, 0, 56, 0
2,57879, Note_on_c, 0, 74, 68
2,57884, Note_on_c, 0, 77, 0
2,57962, Note_on_c, 0, 74, 0
2,57986, Note_on_c, 0, 50, 67
2,57997, Note_on_c, 0, 70, 66
2,57999, Note_on_c, 0, 53, 0
2,58013, Note_on_c, 0, 50, 0
2,58054, Note_on_c, 0, 70, 0
2,58094, Note_on_c, 0, 72, 67
2,58198, Note_on_c, 0, 72, 0
2,58210, Note_on_c, 0, 74, 64
2,58220, Note_on_c, 0, 46, 56
2,58266, Note_on_c, 0, 46, 0
2,58286, Note_on_c, 0, 74, 0
2,58297, Note_on_c, 0, 42, 56
2,58316, Note_on_c, 0, 70, 58
2,58397, Note_on_c, 0, 70, 0
2,58421, Note_on_c, 0, 42, 0
2,58424, Note_on_c, 0, 39, 59
2,58428, Note_on_c, 0, 66, 55
2,58455, Note_on_c, 0, 39, 0
2,58473, Note_on_c, 0, 66, 0
2,58531, Note_on_c, 0, 68, 60
2,58616, Note_on_c, 0, 68, 0
2,58642, Note_on_c, 0, 70, 55
2,58652, Note_on_c, 0, 54, 70
2,58688, Note_on_c, 0, 70, 0
2,58733, Note_on_c, 0, 66, 63
2,58746, Note_on_c, 0, 51, 72
2,58833, Note_on_c, 0, 54, 0
2,58835, Note_on_c, 0, 66, 0
2,58849, Note_on_c, 0, 48, 71
2,58855, Note_on_c, 0, 75, 62
2,58864, Note_on_c, 0, 51, 0
2,58876, Note_on_c, 0, 48, 0
2,58941, Note_on_c, 0, 75, 0
2,58948, Note_on_c, 0, 77, 68
2,59066, Note_on_c, 0, 51, 65
2,59072, Note_on_c, 0, 77, 0
2,59073, Note_on_c, 0, 78, 66
2,59156, Note_on_c, 0, 51, 0
2,59163, Note_on_c, 0, 48, 56
2,59169, Note_on_c, 0, 75, 66
2,59187, Note_on_c, 0, 78, 0
2,59256, Note_on_c, 0, 75, 0
2,59273, Note_on_c, 0, 72, 59
2,59290, Note_on_c, 0, 44, 63
2,59294, Note_on_c, 0, 48, 0
2,59319, Note_on_c, 0, 44, 0
2,59337, Note_on_c, 0, 72, 0
2,59378, Note_on_c, 0, 73, 64
2,59512, Note_on_c, 0, 54, 66
2,59513, Note_on_c, 0, 73, 0
2,59516, Note_on_c, 0, 75, 64
2,59603, Note_on_c, 0, 75, 0
2,59606, Note_on_c, 0, 51, 64
2,59609, Note_on_c, 0, 72, 60
2,59611, Note_on_c, 0, 54, 0
2,59686, Note_on_c, 0, 72, 0
2,59719, Note_on_c, 0, 68, 64
2,59720, Note_on_c, 0, 48, 65
2,59726, Note_on_c, 0, 51, 0
2,59752, Note_on_c, 0, 48, 0
2,59789, Note_on_c, 0, 68, 0
2,59821, Note_on_c, 0, 70, 58
2,59922, Note_on_c, 0, 70, 0
2,59956, Note_on_c, 0, 44, 53
2,59958, Note_on_c, 0, 72, 52
2,60008, Note_on_c, 0, 44, 0
2,60025, Note_on_c, 0, 41, 51
2,60036, Note_on_c, 0, 72, 0
2,60066, Note_on_c, 0, 68, 53
2,60129, Note_on_c, 0, 41, 0
2,60161, Note_on_c, 0, 68, 0
2,60173, Note_on_c, 0, 37, 42
2,60193, Note_on_c, 0, 65, 45
2,60270, Note_on_c, 0, 65, 0
2,60297, Note_on_c, 0, 66, 46
2,60355, Note_on_c, 0, 66, 0
2,60396, Note_on_c, 0, 68, 57
2,60457, Note_on_c, 0, 68, 0
2,60494, Note_on_c, 0, 65, 56
2,60593, Note_on_c, 0, 37, 0
2,60605, Note_on_c, 0, 65, 0
2,60611, Note_on_c, 0, 61, 56
2,60695, Note_on_c, 0, 61, 0
2,60721, Note_on_c, 0, 65, 52
2,60767, Note_on_c, 0, 65, 0
2,60831, Note_on_c, 0, 68, 61
2,60888, Note_on_c, 0, 68, 0
2,60934, Note_on_c, 0, 70, 65
2,61008, Note_on_c, 0, 70, 0
2,61051, Note_on_c, 0, 71, 68
2,61107, Note_on_c, 0, 71, 0
2,61148, Note_on_c, 0, 70, 68
2,61234, Note_on_c, 0, 70, 0
2,61257, Note_on_c, 0, 68, 67
2,61260, Note_on_c, 0, 59, 45
2,61295, Note_on_c, 0, 59, 0
2,61310, Note_on_c, 0, 68, 0
2,61353, Note_on_c, 0, 49, 45
2,61361, Note_on_c, 0, 70, 56
2,61451, Note_on_c, 0, 49, 0
2,61477, Note_on_c, 0, 70, 0
2,61479, Note_on_c, 0, 78, 70
2,61481, Note_on_c, 0, 58, 60
2,61516, Note_on_c, 0, 78, 0
2,61518, Note_on_c, 0, 58, 0
2,61579, Note_on_c, 0, 49, 50
2,61679, Note_on_c, 0, 49, 0
2,61715, Note_on_c, 0, 73, 63
2,61719, Note_on_c, 0, 56, 58
2,61745, Note_on_c, 0, 73, 0
2,61800, Note_on_c, 0, 56, 0
2,61818, Note_on_c, 0, 49, 50
2,61922, Note_on_c, 0, 49, 0
2,61934, Note_on_c, 0, 70, 75
2,61947, Note_on_c, 0, 54, 59
2,62044, Note_on_c, 0, 54, 0
2,62051, Note_on_c, 0, 49, 56
2,62127, Note_on_c, 0, 49, 0
2,62149, Note_on_c, 0, 68, 63
2,62150, Note_on_c, 0, 53, 72
2,62204, Note_on_c, 0, 70, 0
2,62216, Note_on_c, 0, 53, 0
2,62240, Note_on_c, 0, 66, 64
2,62241, Note_on_c, 0, 68, 0
2,62275, Note_on_c, 0, 51, 52
2,62333, Note_on_c, 0, 51, 0
2,62340, Note_on_c, 0, 66, 0
2,62366, Note_on_c, 0, 53, 68
2,62368, Note_on_c, 0, 68, 75
2,62396, Note_on_c, 0, 53, 0
2,62445, Note_on_c, 0, 68, 0
2,62479, Note_on_c, 0, 61, 64
2,62552, Note_on_c, 0, 61, 0
2,62588, Note_on_c, 0, 44, 64
2,62588, Note_on_c, 0, 65, 59
2,62616, Note_on_c, 0, 44, 0
2,62638, Note_on_c, 0, 65, 0
2,62684, Note_on_c, 0, 68, 68
2,62757, Note_on_c, 0, 68, 0
2,62791, Note_on_c, 0, 70, 76
2,62872, Note_on_c, 0, 70, 0
2,62892, Note_on_c, 0, 68, 75
2,62996, Note_on_c, 0, 58, 58
2,62999, Note_on_c, 0, 66, 71
2,63000, Note_on_c, 0, 68, 0
2,63044, Note_on_c, 0, 58, 0
2,63060, Note_on_c, 0, 66, 0
2,63097, Note_on_c, 0, 49, 52
2,63099, Note_on_c, 0, 68, 72
2,63199, Note_on_c, 0, 49, 0
2,63224, Note_on_c, 0, 56, 66
2,63225, Note_on_c, 0, 68, 0
2,63228, Note_on_c, 0, 77, 73
2,63260, Note_on_c, 0, 77, 0
2,63288, Note_on_c, 0, 56, 0
2,63322, Note_on_c, 0, 49, 58
2,63426, Note_on_c, 0, 49, 0
2,63451, Note_on_c, 0, 73, 69
2,63453, Note_on_c, 0, 54, 60
2,63478, Note_on_c, 0, 73, 0
2,63540, Note_on_c, 0, 49, 62
2,63572, Note_on_c, 0, 54, 0
2,63646, Note_on_c, 0, 49, 0
2,63664, Note_on_c, 0, 53, 54
2,63671, Note_on_c, 0, 68, 73
2,63713, Note_on_c, 0, 53, 0
2,63765, Note_on_c, 0, 49, 60
2,63850, Note_on_c, 0, 49, 0
2,63872, Note_on_c, 0, 51, 71
2,63883, Note_on_c, 0, 66, 70
2,63914, Note_on_c, 0, 68, 0
2,63959, Note_on_c, 0, 51, 0
2,63967, Note_on_c, 0, 66, 0
2,63983, Note_on_c, 0, 65, 69
2,63996, Note_on_c, 0, 49, 56
2,64057, Note_on_c, 0, 65, 0
2,64089, Note_on_c, 0, 49, 0
2,64093, Note_on_c, 0, 66, 71
2,64106, Note_on_c, 0, 51, 72
2,64133, Note_on_c, 0, 51, 0
2,64160, Note_on_c, 0, 66, 0
2,64190, Note_on_c, 0, 60, 69
2,64270, Note_on_c, 0, 60, 0
2,64309, Note_on_c, 0, 63, 73
2,64322, Note_on_c, 0, 44, 67
2,64353, Note_on_c, 0, 44, 0
2,64375, Note_on_c, 0, 63, 0
2,64413, Note_on_c, 0, 66, 75
2,64478, Note_on_c, 0, 66, 0
2,64520, Note_on_c, 0, 68, 78
2,64586, Note_on_c, 0, 68, 0
2,64621, Note_on_c, 0, 66, 72
2,64726, Note_on_c, 0, 66, 0
2,64741, Note_on_c, 0, 65, 74
2,64752, Note_on_c, 0, 56, 67
2,64802, Note_on_c, 0, 65, 0
2,64818, Note_on_c, 0, 56, 0
2,64840, Note_on_c, 0, 66, 75
2,64855, Note_on_c, 0, 44, 65
2,64944, Note_on_c, 0, 44, 0
2,64955, Note_on_c, 0, 75, 88
2,64964, Note_on_c, 0, 66, 0
2,64968, Note_on_c, 0, 54, 68
2,65011, Note_on_c, 0, 75, 0
2,65045, Note_on_c, 0, 54, 0
2,65061, Note_on_c, 0, 44, 67
2,65167, Note_on_c, 0, 44, 0
2,65178, Note_on_c, 0, 53, 69
2,65188, Note_on_c, 0, 72, 79
2,65210, Note_on_c, 0, 72, 0
2,65276, Note_on_c, 0, 53, 0
2,65297, Note_on_c, 0, 44, 69
2,65391, Note_on_c, 0, 51, 72
2,65394, Note_on_c, 0, 44, 0
2,65405, Note_on_c, 0, 66, 80
2,65507, Note_on_c, 0, 51, 0
2,65514, Note_on_c, 0, 44, 67
2,65632, Note_on_c, 0, 65, 74
2,65632, Note_on_c, 0, 66, 0
2,65640, Note_on_c, 0, 49, 65
2,65652, Note_on_c, 0, 44, 0
2,65737, Note_on_c, 0, 49, 0
2,65738, Note_on_c, 0, 63, 75
2,65741, Note_on_c, 0, 65, 0
2,65754, Note_on_c, 0, 48, 55
2,65820, Note_on_c, 0, 63, 0
2,65841, Note_on_c, 0, 48, 0
2,65847, Note_on_c, 0, 49, 70
2,65851, Note_on_c, 0, 65, 77
2,65937, Note_on_c, 0, 49, 0
2,65946, Note_on_c, 0, 65, 0
2,65951, Note_on_c, 0, 67, 65
2,65953, Note_on_c, 0, 44, 69
2,66038, Note_on_c, 0, 67, 0
2,66053, Note_on_c, 0, 70, 76
2,66062, Note_on_c, 0, 53, 73
2,66115, Note_on_c, 0, 70, 0
2,66116, Note_on_c, 0, 44, 0
2,66141, Note_on_c, 0, 53, 0
2,66150, Note_on_c, 0, 72, 82
2,66165, Note_on_c, 0, 51, 75
2,66265, Note_on_c, 0, 73, 81
2,66276, Note_on_c, 0, 53, 74
2,66282, Note_on_c, 0, 51, 0
2,66292, Note_on_c, 0, 72, 0
2,66341, Note_on_c, 0, 73, 0
2,66355, Note_on_c, 0, 53, 0
2,66365, Note_on_c, 0, 75, 84
2,66370, Note_on_c, 0, 44, 80
2,66456, Note_on_c, 0, 75, 0
2,66469, Note_on_c, 0, 77, 85
2,66473, Note_on_c, 0, 44, 0
2,66493, Note_on_c, 0, 56, 77
2,66536, Note_on_c, 0, 77, 0
2,66570, Note_on_c, 0, 56, 0
2,66574, Note_on_c, 0, 54, 71
2,66578, Note_on_c, 0, 75, 83
2,66664, Note_on_c, 0, 54, 0
2,66679, Note_on_c, 0, 56, 90
2,66683, Note_on_c, 0, 75, 0
2,66683, Note_on_c, 0, 78, 84
2,66750, Note_on_c, 0, 78, 0
2,66768, Note_on_c, 0, 56, 0
2,66784, Note_on_c, 0, 77, 89
2,66787, Note_on_c, 0, 44, 80
2,66869, Note_on_c, 0, 77, 0
2,66889, Note_on_c, 0, 75, 87
2,66890, Note_on_c, 0, 44, 0
2,66892, Control_c, 0, 64, 56
2,66893, Note_on_c, 0, 58, 81
2,66908, Control_c, 0, 64, 66
2,66922, Control_c, 0, 64, 75
2,66937, Control_c, 0, 64, 96
2,66953, Control_c, 0, 64, 127
2,66975, Note_on_c, 0, 75, 0
2,66995, Note_on_c, 0, 73, 84
2,66998, Note_on_c, 0, 44, 82
2,67001, Note_on_c, 0, 58, 0
2,67032, Note_on_c, 0, 44, 0
2,67035, Note_on_c, 0, 73, 0
2,67125, Note_on_c, 0, 79, 80
2,67126, Control_c, 0, 64, 104
2,67133, Note_on_c, 0, 60, 72
2,67141, Control_c, 0, 64, 84
2,67157, Control_c, 0, 64, 72
2,67172, Control_c, 0, 64, 63
2,67188, Control_c, 0, 64, 56
2,67202, Control_c, 0, 64, 52
2,67217, Control_c, 0, 64, 50
2,67220, Note_on_c, 0, 79, 0
2,67224, Note_on_c, 0, 80, 75
2,67239, Note_on_c, 0, 60, 0
2,67240, Note_on_c, 0, 61, 76
2,67248, Control_c, 0, 64, 50
2,67264, Control_c, 0, 64, 48
2,67279, Control_c, 0, 64, 43
2,67282, Note_on_c, 0, 80, 0
2,67293, Note_on_c, 0, 82, 73
2,67294, Control_c, 0, 64, 34
2,67310, Control_c, 0, 64, 15
2,67325, Control_c, 0, 64, 0
2,67334, Note_on_c, 0, 61, 0
2,67339, Note_on_c, 0, 63, 79
2,67346, Note_on_c, 0, 82, 0
2,67348, Note_on_c, 0, 80, 68
2,67381, Note_on_c, 0, 80, 0
2,67410, Note_on_c, 0, 82, 60
2,67412, Note_on_c, 0, 63, 0
2,67433, Note_on_c, 0, 60, 71
2,67441, Note_on_c, 0, 82, 0
2,67442, Note_on_c, 0, 80, 70
2,67473, Note_on_c, 0, 80, 0
2,67499, Note_on_c, 0, 82, 75
2,67524, Note_on_c, 0, 82, 0
2,67544, Note_on_c, 0, 56, 80
2,67545, Note_on_c, 0, 80, 71
2,67555, Note_on_c, 0, 60, 0
2,67571, Note_on_c, 0, 80, 0
2,67602, Note_on_c, 0, 82, 75
2,67631, Note_on_c, 0, 82, 0
2,67637, Note_on_c, 0, 80, 78
2,67648, Note_on_c, 0, 60, 75
2,67660, Note_on_c, 0, 56, 0
2,67670, Note_on_c, 0, 80, 0
2,67691, Note_on_c, 0, 82, 74
2,67740, Note_on_c, 0, 82, 0
2,67742, Note_on_c, 0, 80, 75
2,67744, Control_c, 0, 64, 33
2,67759, Control_c, 0, 64, 49
2,67759, Note_on_c, 0, 63, 81
2,67762, Note_on_c, 0, 60, 0
2,67774, Control_c, 0, 64, 56
2,67777, Note_on_c, 0, 80, 0
2,67790, Control_c, 0, 64, 59
2,67805, Control_c, 0, 64, 61
2,67812, Note_on_c, 0, 82, 65
2,67820, Control_c, 0, 64, 62
2,67845, Note_on_c, 0, 80, 74
2,67851, Note_on_c, 0, 65, 82
2,67856, Note_on_c, 0, 63, 0
2,67862, Note_on_c, 0, 82, 0
2,67866, Control_c, 0, 64, 62
2,67908, Note_on_c, 0, 80, 0
2,67912, Control_c, 0, 64, 63
2,67964, Note_on_c, 0, 66, 83
2,67971, Control_c, 0, 64, 62
2,67985, Note_on_c, 0, 65, 0
2,67987, Control_c, 0, 64, 61
2,68002, Control_c, 0, 64, 56
2,68017, Control_c, 0, 64, 46
2,68033, Control_c, 0, 64, 0
2,68055, Note_on_c, 0, 66, 0
2,68071, Note_on_c, 0, 65, 78
2,68091, Note_on_c, 0, 80, 80
2,68160, Note_on_c, 0, 65, 0
2,68178, Note_on_c, 0, 80, 0
2,68181, Note_on_c, 0, 78, 81
2,68185, Note_on_c, 0, 63, 78
2,68261, Note_on_c, 0, 63, 0
2,68280, Note_on_c, 0, 65, 68
2,68282, Note_on_c, 0, 80, 83
2,68288, Note_on_c, 0, 78, 0
2,68369, Note_on_c, 0, 65, 0
2,68369, Note_on_c, 0, 80, 0
2,68395, Note_on_c, 0, 77, 84
2,68401, Note_on_c, 0, 73, 91
2,68432, Note_on_c, 0, 73, 0
2,68465, Note_on_c, 0, 77, 0
2,68514, Note_on_c, 0, 80, 77
2,68625, Note_on_c, 0, 80, 0
2,68636, Note_on_c, 0, 68, 84
2,68636, Note_on_c, 0, 75, 79
2,68660, Note_on_c, 0, 68, 0
2,68732, Note_on_c, 0, 80, 77
2,68741, Note_on_c, 0, 75, 0
2,68867, Note_on_c, 0, 73, 68
2,68869, Note_on_c, 0, 65, 85
2,68877, Note_on_c, 0, 80, 0
2,68985, Note_on_c, 0, 80, 74
2,69067, Note_on_c, 0, 73, 0
2,69087, Note_on_c, 0, 80, 0
2,69103, Note_on_c, 0, 72, 75
2,69104, Note_on_c, 0, 63, 73
2,69129, Note_on_c, 0, 65, 0
2,69202, Note_on_c, 0, 70, 73
2,69203, Note_on_c, 0, 72, 0
2,69214, Note_on_c, 0, 61, 73
2,69214, Note_on_c, 0, 63, 0
2,69296, Note_on_c, 0, 70, 0
2,69318, Note_on_c, 0, 61, 0
2,69323, Note_on_c, 0, 63, 79
2,69323, Note_on_c, 0, 72, 77
2,69418, Note_on_c, 0, 56, 75
2,69425, Note_on_c, 0, 72, 0
2,69425, Note_on_c, 0, 75, 77
2,69466, Note_on_c, 0, 63, 0
2,69513, Note_on_c, 0, 75, 0
2,69523, Note_on_c, 0, 56, 0
2,69524, Note_on_c, 0, 60, 72
2,69533, Note_on_c, 0, 77, 78
2,69631, Note_on_c, 0, 63, 77
2,69637, Note_on_c, 0, 60, 0
2,69637, Note_on_c, 0, 78, 81
2,69658, Note_on_c, 0, 77, 0
2,69738, Note_on_c, 0, 63, 0
2,69741, Note_on_c, 0, 65, 76
2,69749, Note_on_c, 0, 80, 79
2,69763, Note_on_c, 0, 78, 0
2,69815, Note_on_c, 0, 65, 0
2,69851, Note_on_c, 0, 78, 78
2,69853, Note_on_c, 0, 80, 0
2,69854, Note_on_c, 0, 63, 76
2,69930, Note_on_c, 0, 78, 0
2,69946, Note_on_c, 0, 63, 0
2,69958, Note_on_c, 0, 61, 77
2,69961, Note_on_c, 0, 77, 82
2,70055, Note_on_c, 0, 61, 0
2,70056, Note_on_c, 0, 77, 0
2,70059, Note_on_c, 0, 63, 81
2,70068, Note_on_c, 0, 80, 82
2,70157, Note_on_c, 0, 63, 0
2,70181, Note_on_c, 0, 80, 0
2,70191, Note_on_c, 0, 72, 91
2,70191, Note_on_c, 0, 75, 81
2,70232, Note_on_c, 0, 72, 0
2,70271, Note_on_c, 0, 75, 0
2,70282, Note_on_c, 0, 80, 79
2,70402, Note_on_c, 0, 80, 0
2,70416, Note_on_c, 0, 68, 82
2,70419, Note_on_c, 0, 73, 76
2,70447, Note_on_c, 0, 68, 0
2,70521, Note_on_c, 0, 80, 72
2,70538, Note_on_c, 0, 73, 0
2,70643, Note_on_c, 0, 80, 0
2,70651, Note_on_c, 0, 63, 84
2,70661, Note_on_c, 0, 72, 74
2,70746, Note_on_c, 0, 72, 0
2,70757, Note_on_c, 0, 80, 71
2,70864, Note_on_c, 0, 80, 0
2,70879, Note_on_c, 0, 61, 77
2,70896, Note_on_c, 0, 70, 68
2,70905, Note_on_c, 0, 63, 0
2,70986, Note_on_c, 0, 68, 72
2,70986, Note_on_c, 0, 70, 0
2,70989, Note_on_c, 0, 60, 73
2,71027, Note_on_c, 0, 61, 0
2,71063, Note_on_c, 0, 68, 0
2,71094, Note_on_c, 0, 61, 63
2,71095, Note_on_c, 0, 70, 82
2,71098, Note_on_c, 0, 60, 0
2,71172, Note_on_c, 0, 70, 0
2,71191, Note_on_c, 0, 73, 75
2,71203, Note_on_c, 0, 56, 70
2,71222, Note_on_c, 0, 61, 0
2,71291, Note_on_c, 0, 73, 0
2,71292, Note_on_c, 0, 56, 0
2,71297, Note_on_c, 0, 60, 73
2,71299, Note_on_c, 0, 75, 82
2,71402, Note_on_c, 0, 60, 0
2,71402, Note_on_c, 0, 77, 80
2,71403, Note_on_c, 0, 61, 77
2,71432, Note_on_c, 0, 75, 0
2,71503, Note_on_c, 0, 78, 81
2,71504, Note_on_c, 0, 61, 0
2,71506, Note_on_c, 0, 63, 84
2,71519, Note_on_c, 0, 77, 0
2,71589, Note_on_c, 0, 63, 0
2,71610, Note_on_c, 0, 77, 74
2,71626, Note_on_c, 0, 61, 72
2,71637, Note_on_c, 0, 78, 0
2,71687, Note_on_c, 0, 77, 0
2,71719, Note_on_c, 0, 61, 0
2,71725, Note_on_c, 0, 75, 83
2,71728, Note_on_c, 0, 60, 72
2,71823, Note_on_c, 0, 60, 0
2,71829, Note_on_c, 0, 75, 0
2,71832, Note_on_c, 0, 61, 72
2,71832, Note_on_c, 0, 77, 79
2,71921, Note_on_c, 0, 61, 0
2,71946, Note_on_c, 0, 70, 81
2,71952, Note_on_c, 0, 73, 79
2,71952, Note_on_c, 0, 77, 0
2,71987, Note_on_c, 0, 70, 0
2,72027, Note_on_c, 0, 73, 0
2,72055, Note_on_c, 0, 75, 73
2,72153, Note_on_c, 0, 75, 0
2,72174, Note_on_c, 0, 67, 75
2,72176, Note_on_c, 0, 72, 77
2,72197, Note_on_c, 0, 67, 0
2,72264, Note_on_c, 0, 72, 0
2,72281, Note_on_c, 0, 75, 79
2,72406, Note_on_c, 0, 61, 78
2,72406, Note_on_c, 0, 70, 77
2,72413, Note_on_c, 0, 75, 0
2,72507, Note_on_c, 0, 70, 0
2,72513, Note_on_c, 0, 75, 78
2,72584, Note_on_c, 0, 61, 0
2,72604, Note_on_c, 0, 60, 70
2,72618, Note_on_c, 0, 68, 76
2,72618, Note_on_c, 0, 75, 0
2,72694, Note_on_c, 0, 60, 0
2,72703, Note_on_c, 0, 68, 0
2,72707, Note_on_c, 0, 58, 68
2,72708, Note_on_c, 0, 67, 71
2,72788, Note_on_c, 0, 58, 0
2,72798, Note_on_c, 0, 67, 0
2,72803, Note_on_c, 0, 60, 76
2,72816, Note_on_c, 0, 68, 76
2,72871, Note_on_c, 0, 68, 0
2,72875, Note_on_c, 0, 60, 0
2,72904, Note_on_c, 0, 56, 69
2,72921, Note_on_c, 0, 72, 79
2,73012, Note_on_c, 0, 58, 70
2,73014, Note_on_c, 0, 72, 0
2,73015, Note_on_c, 0, 56, 0
2,73023, Note_on_c, 0, 73, 80
2,73086, Note_on_c, 0, 58, 0
2,73109, Note_on_c, 0, 73, 0
2,73111, Note_on_c, 0, 60, 73
2,73134, Note_on_c, 0, 75, 83
2,73197, Note_on_c, 0, 75, 0
2,73214, Note_on_c, 0, 60, 0
2,73229, Note_on_c, 0, 61, 68
2,73239, Note_on_c, 0, 77, 87
2,73302, Note_on_c, 0, 77, 0
2,73323, Note_on_c, 0, 61, 0
2,73324, Note_on_c, 0, 63, 70
2,73335, Note_on_c, 0, 78, 85
2,73401, Note_on_c, 0, 78, 0
2,73404, Note_on_c, 0, 63, 0
2,73429, Note_on_c, 0, 65, 71
2,73436, Note_on_c, 0, 80, 81
2,73501, Note_on_c, 0, 65, 0
2,73501, Note_on_c, 0, 80, 0
2,73534, Note_on_c, 0, 82, 81
2,73541, Note_on_c, 0, 63, 72
2,73584, Note_on_c, 0, 82, 0
2,73633, Note_on_c, 0, 63, 0
2,73647, Note_on_c, 0, 66, 81
2,73654, Note_on_c, 0, 72, 86
2,73682, Note_on_c, 0, 72, 0
2,73741, Note_on_c, 0, 65, 69
2,73743, Note_on_c, 0, 66, 0
2,73822, Note_on_c, 0, 65, 0
2,73841, Note_on_c, 0, 63, 68
2,73853, Note_on_c, 0, 68, 84
2,73886, Note_on_c, 0, 68, 0
2,73944, Note_on_c, 0, 63, 0
2,73971, Note_on_c, 0, 61, 62
2,74058, Note_on_c, 0, 61, 0
2,74072, Note_on_c, 0, 66, 75
2,74077, Note_on_c, 0, 70, 85
2,74104, Note_on_c, 0, 66, 0
2,74154, Note_on_c, 0, 70, 0
2,74183, Note_on_c, 0, 68, 89
2,74266, Note_on_c, 0, 68, 0
2,74290, Note_on_c, 0, 66, 86
2,74293, Note_on_c, 0, 58, 71
2,74347, Note_on_c, 0, 66, 0
2,74361, Note_on_c, 0, 58, 0
2,74379, Note_on_c, 0, 60, 69
2,74391, Note_on_c, 0, 68, 80
2,74500, Note_on_c, 0, 60, 0
2,74501, Note_on_c, 0, 68, 0
2,74505, Note_on_c, 0, 61, 78
2,74511, Note_on_c, 0, 77, 90
2,74549, Note_on_c, 0, 77, 0
2,74574, Note_on_c, 0, 61, 0
2,74598, Note_on_c, 0, 60, 74
2,74724, Note_on_c, 0, 73, 83
2,74727, Note_on_c, 0, 60, 0
2,74730, Note_on_c, 0, 58, 72
2,74751, Note_on_c, 0, 73, 0
2,74842, Note_on_c, 0, 56, 74
2,74850, Note_on_c, 0, 58, 0
2,74997, Note_on_c, 0, 58, 76
2,75000, Note_on_c, 0, 68, 79
2,75036, Note_on_c, 0, 56, 0
2,75245, Note_on_c, 0, 66, 80
2,75263, Note_on_c, 0, 68, 0
2,75338, Note_on_c, 0, 65, 77
2,75343, Note_on_c, 0, 66, 0
2,75460, Note_on_c, 0, 66, 82
2,75469, Note_on_c, 0, 65, 0
2,75505, Note_on_c, 0, 66, 0
2,75565, Note_on_c, 0, 56, 75
2,75570, Note_on_c, 0, 58, 0
2,75682, Note_on_c, 0, 75, 81
2,75683, Note_on_c, 0, 54, 67
2,75684, Note_on_c, 0, 56, 0
2,75734, Note_on_c, 0, 75, 0
2,75775, Note_on_c, 0, 54, 0
2,75787, Note_on_c, 0, 58, 74
2,75889, Note_on_c, 0, 58, 0
2,75895, Note_on_c, 0, 56, 72
2,75902, Note_on_c, 0, 65, 82
2,75944, Note_on_c, 0, 65, 0
2,76006, Note_on_c, 0, 54, 69
2,76009, Note_on_c, 0, 56, 0
2,76113, Note_on_c, 0, 54, 0
2,76122, Note_on_c, 0, 53, 67
2,76127, Note_on_c, 0, 73, 78
2,76173, Note_on_c, 0, 73, 0
2,76223, Note_on_c, 0, 53, 0
2,76226, Note_on_c, 0, 56, 66
2,76332, Note_on_c, 0, 56, 0
2,76354, Note_on_c, 0, 54, 67
2,76356, Note_on_c, 0, 63, 71
2,76391, Note_on_c, 0, 63, 0
2,76440, Note_on_c, 0, 54, 0
2,76453, Note_on_c, 0, 53, 61
2,76577, Note_on_c, 0, 53, 0
2,76577, Note_on_c, 0, 72, 72
2,76578, Note_on_c, 0, 54, 66
2,76611, Note_on_c, 0, 72, 0
2,76659, Note_on_c, 0, 54, 0
2,76686, Note_on_c, 0, 51, 58
2,76807, Note_on_c, 0, 51, 0
2,76814, Note_on_c, 0, 61, 65
2,76826, Note_on_c, 0, 53, 47
2,76843, Control_c, 0, 64, 55
2,76858, Control_c, 0, 64, 74
2,76862, Note_on_c, 0, 61, 0
2,76874, Control_c, 0, 64, 112
2,76889, Control_c, 0, 64, 127
2,77063, Control_c, 0, 64, 106
2,77066, Note_on_c, 0, 73, 69
2,77079, Control_c, 0, 64, 63
2,77094, Control_c, 0, 64, 0
2,77135, Note_on_c, 0, 73, 0
2,77163, Note_on_c, 0, 72, 70
2,77196, Note_on_c, 0, 53, 0
2,77205, Note_on_c, 0, 56, 64
2,77251, Note_on_c, 0, 72, 0
2,77272, Note_on_c, 0, 73, 77
2,77307, Note_on_c, 0, 58, 74
2,77309, Note_on_c, 0, 56, 0
2,77379, Note_on_c, 0, 75, 82
2,77386, Note_on_c, 0, 73, 0
2,77387, Note_on_c, 0, 58, 0
2,77404, Note_on_c, 0, 60, 74
2,77453, Note_on_c, 0, 75, 0
2,77487, Note_on_c, 0, 77, 87
2,77494, Note_on_c, 0, 60, 0
2,77500, Note_on_c, 0, 61, 71
2,77573, Note_on_c, 0, 63, 73
2,77576, Note_on_c, 0, 61, 0
2,77581, Note_on_c, 0, 78, 82
2,77595, Note_on_c, 0, 77, 0
2,77673, Note_on_c, 0, 63, 0
2,77680, Note_on_c, 0, 65, 80
2,77690, Note_on_c, 0, 78, 0
2,77690, Note_on_c, 0, 80, 86
2,77759, Note_on_c, 0, 65, 0
2,77785, Note_on_c, 0, 63, 76
2,77788, Note_on_c, 0, 79, 84
2,77802, Note_on_c, 0, 80, 0
2,77882, Note_on_c, 0, 63, 0
2,77895, Note_on_c, 0, 61, 72
2,77902, Note_on_c, 0, 77, 86
2,77904, Note_on_c, 0, 79, 0
2,77947, Note_on_c, 0, 84, 35
2,77987, Note_on_c, 0, 84, 0
2,77989, Note_on_c, 0, 61, 0
2,77993, Note_on_c, 0, 63, 80
2,78005, Note_on_c, 0, 79, 84
2,78013, Note_on_c, 0, 77, 0
2,78095, Note_on_c, 0, 63, 0
2,78109, Note_on_c, 0, 79, 0
2,78117, Note_on_c, 0, 80, 85
2,78123, Note_on_c, 0, 60, 69
2,78125, Note_on_c, 0, 72, 77
2,78160, Note_on_c, 0, 72, 0
2,78196, Note_on_c, 0, 80, 0
2,78224, Note_on_c, 0, 78, 79
2,78314, Note_on_c, 0, 78, 0
2,78340, Note_on_c, 0, 68, 73
2,78342, Note_on_c, 0, 77, 79
2,78367, Note_on_c, 0, 68, 0
2,78432, Note_on_c, 0, 75, 77
2,78434, Note_on_c, 0, 77, 0
2,78572, Note_on_c, 0, 63, 73
2,78573, Note_on_c, 0, 77, 78
2,78575, Note_on_c, 0, 75, 0
2,78786, Note_on_c, 0, 60, 0
2,78810, Note_on_c, 0, 63, 0
2,78811, Note_on_c, 0, 61, 68
2,78892, Note_on_c, 0, 61, 0
2,78907, Note_on_c, 0, 60, 68
2,79019, Note_on_c, 0, 60, 0
2,79030, Note_on_c, 0, 61, 71
2,79034, Note_on_c, 0, 58, 76
2,79066, Note_on_c, 0, 61, 0
2,79147, Note_on_c, 0, 77, 0
2,79151, Note_on_c, 0, 75, 75
2,79229, Note_on_c, 0, 75, 0
2,79268, Note_on_c, 0, 70, 79
2,79268, Note_on_c, 0, 73, 75
2,79328, Note_on_c, 0, 70, 0
2,79364, Note_on_c, 0, 73, 0
2,79369, Note_on_c, 0, 77, 80
2,79453, Note_on_c, 0, 58, 0
2,79475, Note_on_c, 0, 77, 0
2,79488, Note_on_c, 0, 75, 80
2,79491, Note_on_c, 0, 60, 73
2,79527, Note_on_c, 0, 60, 0
2,79561, Note_on_c, 0, 75, 0
2,79584, Note_on_c, 0, 73, 74
2,79694, Note_on_c, 0, 73, 0
2,79706, Note_on_c, 0, 56, 71
2,79711, Note_on_c, 0, 68, 73
2,79713, Note_on_c, 0, 72, 77
2,79799, Note_on_c, 0, 72, 0
2,79807, Note_on_c, 0, 75, 78
2,79812, Note_on_c, 0, 68, 0
2,79883, Note_on_c, 0, 75, 0
2,79911, Note_on_c, 0, 56, 0
2,79926, Note_on_c, 0, 73, 77
2,79932, Note_on_c, 0, 58, 63
2,79961, Note_on_c, 0, 58, 0
2,79994, Note_on_c, 0, 73, 0
2,80031, Note_on_c, 0, 72, 77
2,80126, Note_on_c, 0, 72, 0
2,80145, Note_on_c, 0, 73, 75
2,80150, Note_on_c, 0, 51, 69
2,80177, Note_on_c, 0, 51, 0
2,80251, Note_on_c, 0, 70, 76
2,80292, Note_on_c, 0, 70, 0
2,80319, Note_on_c, 0, 73, 0
2,80368, Note_on_c, 0, 70, 76
2,80369, Note_on_c, 0, 56, 73
2,80433, Note_on_c, 0, 70, 0
2,80459, Note_on_c, 0, 72, 77
2,80557, Note_on_c, 0, 72, 0
2,80571, Note_on_c, 0, 68, 63
2,80572, Note_on_c, 0, 75, 70
2,80598, Note_on_c, 0, 75, 0
2,80683, Note_on_c, 0, 66, 63
2,80685, Note_on_c, 0, 68, 0
2,80780, Note_on_c, 0, 56, 0
2,80800, Note_on_c, 0, 66, 0
2,80800, Note_on_c, 0, 68, 79
2,80801, Note_on_c, 0, 78, 83
2,80829, Note_on_c, 0, 68, 0
2,80916, Note_on_c, 0, 70, 69
2,80994, Note_on_c, 0, 70, 0
2,81021, Note_on_c, 0, 72, 73
2,81027, Note_on_c, 0, 56, 70
2,81055, Note_on_c, 0, 56, 0
2,81080, Note_on_c, 0, 72, 0
2,81125, Note_on_c, 0, 68, 69
2,81228, Note_on_c, 0, 58, 76
2,81231, Note_on_c, 0, 68, 0
2,81244, Note_on_c, 0, 73, 71
2,81305, Note_on_c, 0, 58, 0
2,81327, Note_on_c, 0, 56, 70
2,81332, Note_on_c, 0, 72, 75
2,81333, Note_on_c, 0, 73, 0
2,81432, Note_on_c, 0, 56, 0
2,81442, Note_on_c, 0, 70, 78
2,81443, Note_on_c, 0, 54, 73
2,81451, Note_on_c, 0, 72, 0
2,81511, Note_on_c, 0, 78, 0
2,81518, Note_on_c, 0, 70, 0
2,81530, Note_on_c, 0, 54, 0
2,81542, Note_on_c, 0, 56, 72
2,81547, Note_on_c, 0, 72, 82
2,81622, Note_on_c, 0, 56, 0
2,81661, Note_on_c, 0, 73, 81
2,81670, Note_on_c, 0, 65, 70
2,81670, Note_on_c, 0, 72, 0
2,81673, Note_on_c, 0, 77, 72
2,81697, Note_on_c, 0, 65, 0
2,81731, Note_on_c, 0, 73, 0
2,81771, Note_on_c, 0, 72, 73
2,81833, Note_on_c, 0, 72, 0
2,81884, Note_on_c, 0, 61, 67
2,81893, Note_on_c, 0, 70, 70
2,81911, Note_on_c, 0, 61, 0
2,81954, Note_on_c, 0, 70, 0
2,81980, Note_on_c, 0, 68, 75
2,82128, Note_on_c, 0, 56, 65
2,82137, Note_on_c, 0, 70, 67
2,82166, Note_on_c, 0, 68, 0
2,82208, Note_on_c, 0, 77, 0
2,82378, Note_on_c, 0, 56, 0
2,82380, Note_on_c, 0, 54, 64
2,82474, Note_on_c, 0, 54, 0
2,82483, Note_on_c, 0, 53, 58
2,82593, Note_on_c, 0, 75, 73
2,82602, Note_on_c, 0, 53, 0
2,82605, Note_on_c, 0, 54, 64
2,82615, Note_on_c, 0, 70, 0
2,82639, Note_on_c, 0, 54, 0
2,82713, Note_on_c, 0, 68, 62
2,82796, Note_on_c, 0, 68, 0
2,82826, Note_on_c, 0, 63, 65
2,82829, Note_on_c, 0, 66, 65
2,82880, Note_on_c, 0, 63, 0
2,82918, Note_on_c, 0, 70, 69
2,82935, Note_on_c, 0, 66, 0
2,82972, Note_on_c, 0, 75, 0
2,82988, Note_on_c, 0, 70, 0
2,83034, Note_on_c, 0, 68, 75
2,83046, Note_on_c, 0, 53, 59
2,83079, Note_on_c, 0, 53, 0
2,83134, Note_on_c, 0, 68, 0
2,83140, Note_on_c, 0, 66, 75
2,83250, Note_on_c, 0, 73, 76
2,83255, Note_on_c, 0, 61, 72
2,83264, Note_on_c, 0, 65, 70
2,83271, Note_on_c, 0, 66, 0
2,83317, Note_on_c, 0, 65, 0
2,83318, Note_on_c, 0, 61, 0
2,83338, Note_on_c, 0, 73, 0
2,83355, Note_on_c, 0, 68, 75
2,83432, Note_on_c, 0, 68, 0
2,83466, Note_on_c, 0, 72, 75
2,83473, Note_on_c, 0, 51, 69
2,83477, Note_on_c, 0, 66, 70
2,83513, Note_on_c, 0, 72, 0
2,83519, Note_on_c, 0, 51, 0
2,83547, Note_on_c, 0, 66, 0
2,83568, Note_on_c, 0, 65, 76
2,83629, Note_on_c, 0, 65, 0
2,83686, Note_on_c, 0, 60, 57
2,83690, Note_on_c, 0, 66, 65
2,83693, Note_on_c, 0, 75, 64
2,83709, Note_on_c, 0, 60, 0
2,83789, Note_on_c, 0, 63, 58
2,83844, Note_on_c, 0, 63, 0
2,83956, Note_on_c, 0, 49, 23
2,83957, Note_on_c, 0, 65, 49
2,84001, Note_on_c, 0, 49, 0
2,84004, Note_on_c, 0, 66, 0
2,84051, Note_on_c, 0, 44, 40
2,84093, Note_on_c, 0, 75, 0
2,84164, Note_on_c, 0, 68, 71
2,84174, Note_on_c, 0, 49, 48
2,84208, Note_on_c, 0, 44, 0
2,84272, Note_on_c, 0, 51, 68
2,84275, Note_on_c, 0, 49, 0
2,84378, Note_on_c, 0, 51, 0
2,84388, Note_on_c, 0, 73, 81
2,84394, Note_on_c, 0, 53, 65
2,84468, Note_on_c, 0, 53, 0
2,84509, Note_on_c, 0, 54, 70
2,84611, Note_on_c, 0, 71, 76
2,84617, Note_on_c, 0, 54, 0
2,84640, Note_on_c, 0, 56, 64
2,84640, Note_on_c, 0, 68, 0
2,84659, Note_on_c, 0, 65, 0
2,84671, Note_on_c, 0, 73, 0
2,84712, Note_on_c, 0, 56, 0
2,84737, Note_on_c, 0, 53, 63
2,84819, Note_on_c, 0, 53, 0
2,84830, Note_on_c, 0, 71, 0
2,84848, Note_on_c, 0, 70, 67
2,84871, Note_on_c, 0, 54, 64
2,84941, Note_on_c, 0, 54, 0
2,84984, Note_on_c, 0, 42, 53
2,85073, Note_on_c, 0, 42, 0
2,85091, Note_on_c, 0, 61, 55
2,85097, Note_on_c, 0, 54, 62
2,85137, Note_on_c, 0, 54, 0
2,85202, Note_on_c, 0, 53, 53
2,85250, Note_on_c, 0, 61, 0
2,85291, Note_on_c, 0, 53, 0
2,85297, Note_on_c, 0, 54, 50
2,85321, Note_on_c, 0, 66, 70
2,85421, Note_on_c, 0, 54, 0
2,85425, Note_on_c, 0, 56, 69
2,85521, Note_on_c, 0, 56, 0
2,85545, Note_on_c, 0, 58, 72
2,85547, Note_on_c, 0, 65, 64
2,85622, Note_on_c, 0, 66, 0
2,85636, Note_on_c, 0, 58, 0
2,85656, Note_on_c, 0, 54, 65
2,85757, Note_on_c, 0, 65, 0
2,85763, Note_on_c, 0, 51, 67
2,85764, Note_on_c, 0, 70, 0
2,85765, Note_on_c, 0, 54, 0
2,85769, Note_on_c, 0, 66, 71
2,85856, Note_on_c, 0, 51, 0
2,85886, Note_on_c, 0, 53, 58
2,85952, Note_on_c, 0, 53, 0
2,85990, Note_on_c, 0, 54, 67
2,85993, Note_on_c, 0, 70, 71
2,85995, Note_on_c, 0, 66, 0
2,86040, Note_on_c, 0, 54, 0
2,86090, Note_on_c, 0, 51, 67
2,86090, Note_on_c, 0, 70, 0
2,86091, Note_on_c, 0, 66, 65
2,86184, Note_on_c, 0, 66, 0
2,86205, Note_on_c, 0, 51, 0
2,86213, Note_on_c, 0, 48, 63
2,86220, Note_on_c, 0, 63, 67
2,86311, Note_on_c, 0, 48, 0
2,86332, Note_on_c, 0, 49, 64
2,86411, Note_on_c, 0, 49, 0
2,86433, Note_on_c, 0, 63, 0
2,86442, Note_on_c, 0, 66, 61
2,86446, Note_on_c, 0, 51, 63
2,86488, Note_on_c, 0, 51, 0
2,86507, Note_on_c, 0, 66, 0
2,86541, Note_on_c, 0, 48, 53
2,86550, Note_on_c, 0, 63, 60
2,86633, Note_on_c, 0, 63, 0
2,86662, Note_on_c, 0, 48, 0
2,86666, Note_on_c, 0, 41, 61
2,86667, Note_on_c, 0, 56, 62
2,86696, Note_on_c, 0, 41, 0
2,86908, Note_on_c, 0, 53, 54
2,86909, Note_on_c, 0, 63, 62
2,86947, Note_on_c, 0, 63, 0
2,86990, Note_on_c, 0, 53, 0
2,87020, Note_on_c, 0, 51, 59
2,87133, Note_on_c, 0, 51, 0
2,87138, Note_on_c, 0, 53, 60
2,87142, Note_on_c, 0, 68, 83
2,87158, Note_on_c, 0, 56, 0
2,87208, Note_on_c, 0, 53, 0
2,87228, Note_on_c, 0, 54, 63
2,87341, Note_on_c, 0, 54, 0
2,87365, Note_on_c, 0, 56, 67
2,87368, Note_on_c, 0, 60, 79
2,87411, Note_on_c, 0, 60, 0
2,87430, Note_on_c, 0, 56, 0
2,87476, Note_on_c, 0, 53, 61
2,87598, Note_on_c, 0, 65, 80
2,87610, Note_on_c, 0, 50, 61
2,87626, Note_on_c, 0, 68, 0
2,87627, Note_on_c, 0, 53, 0
2,87729, Note_on_c, 0, 50, 0
2,87732, Note_on_c, 0, 51, 73
2,87809, Note_on_c, 0, 51, 0
2,87835, Note_on_c, 0, 53, 73
2,87836, Note_on_c, 0, 68, 78
2,87848, Note_on_c, 0, 65, 0
2,87924, Note_on_c, 0, 53, 0
2,87937, Note_on_c, 0, 65, 77
2,87939, Note_on_c, 0, 50, 69
2,87949, Note_on_c, 0, 68, 0
2,88033, Note_on_c, 0, 65, 0
2,88050, Note_on_c, 0, 46, 61
2,88050, Note_on_c, 0, 62, 76
2,88054, Note_on_c, 0, 50, 0
2,88126, Note_on_c, 0, 46, 0
2,88142, Note_on_c, 0, 48, 63
2,88212, Note_on_c, 0, 48, 0
2,88258, Note_on_c, 0, 50, 66
2,88293, Note_on_c, 0, 65, 63
2,88294, Note_on_c, 0, 62, 0
2,88330, Note_on_c, 0, 50, 0
2,88356, Note_on_c, 0, 65, 0
2,88374, Note_on_c, 0, 46, 44
2,88399, Note_on_c, 0, 62, 63
2,88466, Note_on_c, 0, 62, 0
2,88520, Note_on_c, 0, 46, 0
2,88525, Note_on_c, 0, 54, 58
2,88540, Note_on_c, 0, 39, 25
2,88588, Note_on_c, 0, 39, 0
2,88753, Note_on_c, 0, 58, 65
2,88758, Note_on_c, 0, 51, 50
2,88778, Note_on_c, 0, 58, 0
2,88817, Note_on_c, 0, 51, 0
2,88857, Note_on_c, 0, 50, 43
2,88976, Note_on_c, 0, 50, 0
2,89002, Note_on_c, 0, 51, 51
2,89021, Note_on_c, 0, 54, 0
2,89021, Note_on_c, 0, 66, 60
2,89093, Note_on_c, 0, 51, 0
2,89117, Note_on_c, 0, 53, 55
2,89190, Note_on_c, 0, 53, 0
2,89230, Note_on_c, 0, 58, 66
2,89232, Note_on_c, 0, 54, 57
2,89277, Note_on_c, 0, 58, 0
2,89300, Note_on_c, 0, 54, 0
2,89340, Note_on_c, 0, 51, 61
2,89445, Note_on_c, 0, 48, 65
2,89455, Note_on_c, 0, 63, 72
2,89459, Note_on_c, 0, 51, 0
2,89527, Note_on_c, 0, 66, 0
2,89550, Note_on_c, 0, 63, 0
2,89553, Note_on_c, 0, 65, 80
2,89557, Note_on_c, 0, 48, 0
2,89565, Note_on_c, 0, 49, 68
2,89642, Note_on_c, 0, 49, 0
2,89658, Note_on_c, 0, 51, 81
2,89666, Note_on_c, 0, 65, 0
2,89667, Note_on_c, 0, 66, 80
2,89728, Note_on_c, 0, 66, 0
2,89733, Note_on_c, 0, 51, 0
2,89759, Note_on_c, 0, 63, 85
2,89763, Note_on_c, 0, 48, 70
2,89873, Note_on_c, 0, 44, 71
2,89885, Note_on_c, 0, 75, 92
2,89912, Note_on_c, 0, 48, 0
2,89972, Note_on_c, 0, 63, 0
2,89979, Note_on_c, 0, 44, 0
2,89979, Note_on_c, 0, 46, 76
2,89988, Note_on_c, 0, 66, 85
2,90086, Note_on_c, 0, 46, 0
2,90108, Note_on_c, 0, 66, 0
2,90108, Note_on_c, 0, 68, 89
2,90110, Note_on_c, 0, 48, 82
2,90190, Note_on_c, 0, 68, 0
2,90208, Note_on_c, 0, 63, 95
2,90231, Note_on_c, 0, 44, 72
2,90237, Note_on_c, 0, 73, 42
2,90240, Note_on_c, 0, 48, 0
2,90266, Note_on_c, 0, 73, 0
2,90273, Note_on_c, 0, 63, 0
2,90366, Note_on_c, 0, 37, 84
2,90367, Note_on_c, 0, 65, 91
2,90379, Note_on_c, 0, 44, 0
2,90398, Note_on_c, 0, 37, 0
2,90444, Note_on_c, 0, 75, 0
2,90521, Note_on_c, 0, 73, 77
2,90609, Note_on_c, 0, 73, 0
2,90621, Note_on_c, 0, 49, 75
2,90623, Note_on_c, 0, 72, 83
2,90731, Note_on_c, 0, 75, 92
2,90738, Note_on_c, 0, 72, 0
2,90750, Note_on_c, 0, 49, 0
2,90755, Note_on_c, 0, 51, 75
2,90842, Note_on_c, 0, 73, 83
2,90845, Note_on_c, 0, 53, 86
2,90863, Note_on_c, 0, 51, 0
2,90876, Note_on_c, 0, 75, 0
2,90882, Note_on_c, 0, 53, 0
2,90890, Note_on_c, 0, 65, 0
2,90949, Note_on_c, 0, 68, 85
2,90973, Note_on_c, 0, 73, 0
2,91060, Note_on_c, 0, 49, 69
2,91062, Note_on_c, 0, 70, 88
2,91066, Note_on_c, 0, 61, 80
2,91084, Note_on_c, 0, 68, 0
2,91129, Note_on_c, 0, 49, 0
2,91158, Note_on_c, 0, 70, 0
2,91168, Note_on_c, 0, 71, 86
2,91245, Note_on_c, 0, 71, 0
2,91279, Note_on_c, 0, 54, 79
2,91288, Note_on_c, 0, 70, 87
2,91297, Note_on_c, 0, 61, 0
2,91372, Note_on_c, 0, 70, 0
2,91385, Note_on_c, 0, 68, 82
2,91393, Note_on_c, 0, 60, 71
2,91499, Note_on_c, 0, 66, 82
2,91508, Note_on_c, 0, 60, 0
2,91508, Note_on_c, 0, 68, 0
2,91515, Note_on_c, 0, 58, 68
2,91535, Note_on_c, 0, 54, 0
2,91577, Note_on_c, 0, 66, 0
2,91617, Note_on_c, 0, 68, 86
2,91627, Note_on_c, 0, 58, 0
2,91637, Note_on_c, 0, 60, 64
2,91731, Note_on_c, 0, 60, 0
2,91737, Note_on_c, 0, 77, 92
2,91747, Note_on_c, 0, 53, 62
2,91747, Note_on_c, 0, 61, 78
2,91750, Note_on_c, 0, 68, 0
2,91787, Note_on_c, 0, 77, 0
2,91832, Note_on_c, 0, 61, 0
2,91844, Note_on_c, 0, 60, 70
2,91956, Note_on_c, 0, 60, 0
2,91961, Note_on_c, 0, 73, 87
2,91963, Note_on_c, 0, 58, 73
2,91990, Note_on_c, 0, 53, 0
2,91998, Note_on_c, 0, 73, 0
2,92061, Note_on_c, 0, 58, 0
2,92075, Note_on_c, 0, 56, 65
2,92202, Note_on_c, 0, 68, 83
2,92208, Note_on_c, 0, 58, 74
2,92209, Note_on_c, 0, 51, 75
2,92227, Note_on_c, 0, 56, 0
2,92306, Note_on_c, 0, 51, 0
2,92307, Note_on_c, 0, 68, 0
2,92321, Note_on_c, 0, 66, 77
2,92371, Note_on_c, 0, 66, 0
2,92388, Note_on_c, 0, 68, 65
2,92427, Note_on_c, 0, 66, 74
2,92429, Note_on_c, 0, 68, 0
2,92442, Note_on_c, 0, 49, 66
2,92500, Note_on_c, 0, 49, 0
2,92535, Note_on_c, 0, 65, 79
2,92555, Note_on_c, 0, 66, 0
2,92661, Note_on_c, 0, 66, 83
2,92665, Note_on_c, 0, 48, 72
2,92673, Note_on_c, 0, 65, 0
2,92676, Note_on_c, 0, 58, 0
2,92699, Note_on_c, 0, 66, 0
2,92765, Note_on_c, 0, 56, 72
2,92887, Note_on_c, 0, 56, 0
2,92891, Note_on_c, 0, 54, 71
2,92895, Note_on_c, 0, 75, 86
2,92934, Note_on_c, 0, 48, 0
2,92947, Note_on_c, 0, 75, 0
2,92996, Note_on_c, 0, 58, 75
2,93003, Note_on_c, 0, 54, 0
2,93105, Note_on_c, 0, 58, 0
2,93108, Note_on_c, 0, 49, 74
2,93115, Note_on_c, 0, 65, 84
2,93117, Note_on_c, 0, 56, 77
2,93165, Note_on_c, 0, 65, 0
2,93227, Note_on_c, 0, 54, 80
2,93243, Note_on_c, 0, 49, 0
2,93272, Note_on_c, 0, 56, 0
2,93341, Note_on_c, 0, 53, 78
2,93349, Note_on_c, 0, 73, 82
2,93357, Note_on_c, 0, 54, 0
2,93402, Note_on_c, 0, 73, 0
2,93449, Note_on_c, 0, 53, 0
2,93451, Note_on_c, 0, 56, 78
2,93557, Note_on_c, 0, 56, 0
2,93566, Note_on_c, 0, 54, 84
2,93577, Note_on_c, 0, 63, 75
2,93602, Note_on_c, 0, 44, 63
2,93628, Note_on_c, 0, 63, 0
2,93670, Note_on_c, 0, 54, 0
2,93685, Note_on_c, 0, 53, 69
2,93806, Note_on_c, 0, 51, 71
2,93806, Note_on_c, 0, 72, 73
2,93808, Note_on_c, 0, 53, 0
2,93829, Note_on_c, 0, 44, 0
2,93837, Note_on_c, 0, 72, 0
2,93941, Note_on_c, 0, 51, 0
2,93948, Note_on_c, 0, 54, 70
2,94071, Note_on_c, 0, 54, 0
2,94073, Note_on_c, 0, 61, 67
2,94082, Note_on_c, 0, 46, 44
2,94088, Note_on_c, 0, 53, 64
2,94154, Note_on_c, 0, 46, 0
2,94192, Note_on_c, 0, 61, 0
2,94196, Note_on_c, 0, 53, 0
2,94197, Note_on_c, 0, 65, 71
2,94201, Note_on_c, 0, 56, 72
2,94285, Note_on_c, 0, 56, 0
2,94297, Note_on_c, 0, 66, 77
2,94317, Note_on_c, 0, 58, 73
2,94318, Note_on_c, 0, 65, 0
2,94397, Note_on_c, 0, 58, 0
2,94402, Note_on_c, 0, 68, 82
2,94419, Note_on_c, 0, 60, 74
2,94422, Note_on_c, 0, 66, 0
2,94511, Note_on_c, 0, 70, 77
2,94512, Note_on_c, 0, 61, 82
2,94517, Note_on_c, 0, 60, 0
2,94534, Note_on_c, 0, 68, 0
2,94545, Note_on_c, 0, 70, 0
2,94606, Note_on_c, 0, 72, 85
2,94608, Note_on_c, 0, 61, 0
2,94620, Note_on_c, 0, 60, 81
2,94690, Note_on_c, 0, 72, 0
2,94722, Note_on_c, 0, 73, 83
2,94726, Note_on_c, 0, 58, 81
2,94730, Note_on_c, 0, 60, 0
2,94802, Note_on_c, 0, 73, 0
2,94823, Note_on_c, 0, 75, 86
2,94835, Note_on_c, 0, 56, 79
2,94857, Note_on_c, 0, 58, 0
2,94897, Note_on_c, 0, 75, 0
2,94934, Note_on_c, 0, 55, 78
2,94935, Note_on_c, 0, 76, 83
2,94945, Note_on_c, 0, 56, 0
2,95022, Note_on_c, 0, 76, 0
2,95034, Note_on_c, 0, 75, 88
2,95040, Note_on_c, 0, 55, 0
2,95046, Note_on_c, 0, 56, 80
2,95127, Note_on_c, 0, 56, 0
2,95131, Note_on_c, 0, 58, 79
2,95136, Note_on_c, 0, 75, 0
2,95142, Note_on_c, 0, 73, 83
2,95198, Note_on_c, 0, 58, 0
2,95229, Note_on_c, 0, 55, 77
2,95243, Note_on_c, 0, 75, 85
2,95248, Note_on_c, 0, 73, 0
2,95309, Note_on_c, 0, 75, 0
2,95322, Note_on_c, 0, 55, 0
2,95333, Note_on_c, 0, 51, 77
2,95345, Note_on_c, 0, 76, 87
2,95437, Note_on_c, 0, 51, 0
2,95449, Note_on_c, 0, 49, 72
2,95455, Note_on_c, 0, 79, 79
2,95460, Note_on_c, 0, 76, 0
2,95463, Note_on_c, 0, 78, 44
2,95492, Note_on_c, 0, 78, 0
2,95537, Note_on_c, 0, 79, 0
2,95550, Note_on_c, 0, 80, 84
2,95553, Note_on_c, 0, 48, 71
2,95553, Note_on_c, 0, 49, 0
2,95626, Note_on_c, 0, 80, 0
2,95652, Note_on_c, 0, 46, 70
2,95653, Note_on_c, 0, 82, 88
2,95657, Note_on_c, 0, 48, 0
2,95682, Note_on_c, 0, 82, 0
2,95756, Note_on_c, 0, 44, 76
2,95777, Note_on_c, 0, 73, 86
2,95812, Note_on_c, 0, 46, 0
2,95839, Note_on_c, 0, 73, 0
2,95868, Note_on_c, 0, 51, 76
2,95876, Note_on_c, 0, 72, 87
2,95907, Note_on_c, 0, 44, 0
2,95952, Note_on_c, 0, 51, 0
2,95966, Note_on_c, 0, 53, 75
2,95968, Note_on_c, 0, 72, 0
2,95976, Note_on_c, 0, 70, 84
2,96063, Note_on_c, 0, 54, 78
2,96067, Note_on_c, 0, 68, 85
2,96070, Note_on_c, 0, 53, 0
2,96070, Note_on_c, 0, 70, 0
2,96181, Note_on_c, 0, 68, 0
2,96203, Note_on_c, 0, 54, 0
2,96203, Note_on_c, 0, 75, 91
2,96204, Note_on_c, 0, 56, 79
2,96248, Note_on_c, 0, 75, 0
2,96303, Note_on_c, 0, 58, 82
2,96312, Note_on_c, 0, 56, 0
2,96425, Note_on_c, 0, 58, 0
2,96425, Note_on_c, 0, 60, 83
2,96438, Note_on_c, 0, 66, 86
2,96481, Note_on_c, 0, 66, 0
2,96548, Note_on_c, 0, 56, 83
2,96596, Note_on_c, 0, 60, 0
2,96678, Note_on_c, 0, 56, 0
2,96702, Note_on_c, 0, 65, 80
2,96706, Control_c, 0, 64, 47
2,96707, Note_on_c, 0, 61, 92
2,96720, Control_c, 0, 64, 63
2,96735, Control_c, 0, 64, 69
2,96751, Control_c, 0, 64, 77
2,96766, Control_c, 0, 64, 93
2,96781, Control_c, 0, 64, 127
2,96901, Note_on_c, 0, 61, 0
2,96941, Note_on_c, 0, 65, 0
2,96983, Control_c, 0, 64, 73
2,96991, Note_on_c, 0, 41, 75
2,96994, Note_on_c, 0, 73, 91
2,96997, Control_c, 0, 64, 17
2,97001, Note_on_c, 0, 61, 88
2,97001, Note_on_c, 0, 68, 81
2,97013, Control_c, 0, 64, 0
2,97074, Control_c, 0, 64, 25
2,97090, Control_c, 0, 64, 63
2,97104, Control_c, 0, 64, 70
2,97120, Control_c, 0, 64, 76
2,97132, Note_on_c, 0, 61, 0
2,97135, Control_c, 0, 64, 81
2,97135, Note_on_c, 0, 73, 0
2,97149, Control_c, 0, 64, 85
2,97164, Note_on_c, 0, 68, 0
2,97165, Control_c, 0, 64, 90
2,97180, Control_c, 0, 64, 99
2,97195, Control_c, 0, 64, 127
2,97298, Note_on_c, 0, 41, 0
2,97301, Control_c, 0, 64, 110
2,97316, Control_c, 0, 64, 70
2,97331, Note_on_c, 0, 70, 88
2,97332, Control_c, 0, 64, 0
2,97339, Note_on_c, 0, 42, 71
2,97339, Note_on_c, 0, 63, 87
2,97346, Note_on_c, 0, 66, 80
2,97408, Control_c, 0, 64, 41
2,97423, Control_c, 0, 64, 63
2,97437, Control_c, 0, 64, 68
2,97447, Note_on_c, 0, 70, 0
2,97453, Control_c, 0, 64, 71
2,97467, Note_on_c, 0, 66, 0
2,97468, Control_c, 0, 64, 73
2,97484, Control_c, 0, 64, 73
2,97499, Control_c, 0, 64, 75
2,97514, Control_c, 0, 64, 77
2,97530, Control_c, 0, 64, 80
2,97545, Control_c, 0, 64, 83
2,97560, Control_c, 0, 64, 82
2,97575, Control_c, 0, 64, 82
2,97590, Control_c, 0, 64, 81
2,97606, Control_c, 0, 64, 81
2,97621, Control_c, 0, 64, 80
2,97636, Control_c, 0, 64, 79
2,97652, Control_c, 0, 64, 78
2,97667, Control_c, 0, 64, 77
2,97690, Control_c, 0, 64, 75
2,97705, Control_c, 0, 64, 69
2,97720, Control_c, 0, 64, 56
2,97721, Note_on_c, 0, 42, 0
2,97735, Control_c, 0, 64, 0
2,97739, Note_on_c, 0, 72, 92
2,97741, Note_on_c, 0, 44, 71
2,97752, Note_on_c, 0, 66, 72
2,97752, Note_on_c, 0, 68, 79
2,97872, Control_c, 0, 64, 47
2,97888, Control_c, 0, 64, 58
2,97901, Note_on_c, 0, 72, 0
2,97903, Control_c, 0, 64, 61
2,97917, Control_c, 0, 64, 64
2,97933, Control_c, 0, 64, 68
2,97933, Note_on_c, 0, 63, 0
2,97948, Control_c, 0, 64, 74
2,97961, Note_on_c, 0, 66, 0
2,97964, Control_c, 0, 64, 86
2,97966, Note_on_c, 0, 68, 0
2,97979, Control_c, 0, 64, 121
2,97993, Control_c, 0, 64, 127
2,98161, Control_c, 0, 64, 104
2,98176, Control_c, 0, 64, 93
2,98191, Control_c, 0, 64, 85
2,98194, Note_on_c, 0, 37, 79
2,98206, Control_c, 0, 64, 78
2,98221, Control_c, 0, 64, 74
2,98236, Control_c, 0, 64, 71
2,98241, Note_on_c, 0, 44, 0
2,98252, Control_c, 0, 64, 68
2,98267, Control_c, 0, 64, 66
2,98280, Note_on_c, 0, 61, 76
2,98282, Control_c, 0, 64, 64
2,98290, Control_c, 0, 64, 62
2,98306, Control_c, 0, 64, 59
2,98321, Control_c, 0, 64, 56
2,98336, Control_c, 0, 64, 55
2,98348, Note_on_c, 0, 65, 76
2,98352, Control_c, 0, 64, 53
2,98367, Control_c, 0, 64, 52
2,98383, Control_c, 0, 64, 50
2,98397, Control_c, 0, 64, 49
2,98412, Control_c, 0, 64, 48
2,98414, Note_on_c, 0, 68, 83
2,98428, Control_c, 0, 64, 47
2,98451, Control_c, 0, 64, 45
2,98467, Control_c, 0, 64, 42
2,98482, Control_c, 0, 64, 40
2,98497, Control_c, 0, 64, 36
2,98508, Note_on_c, 0, 73, 89
2,98512, Control_c, 0, 64, 28
2,98527, Control_c, 0, 64, 0
2,99866, Note_on_c, 0, 37, 0
2,99869, Note_on_c, 0, 61, 0
2,99875, Note_on_c, 0, 65, 0
2,99876, Note_on_c, 0, 73, 0
2,99881, Note_on_c, 0, 68, 0
2,99882, End_track
0, 0, End_of_file
