0, 0, Header, 1, 2, 384
1, 0, Start_track
1, 0, Tempo, 500000
1, 0, Time_signature, 4, 2, 24, 8
1, 1, End_track
2, 0, Start_track
2, 0, Program_c, 0, 0
2, 0, Control_c, 0, 64, 0
2, 0, Control_c, 0, 67, 0
2, 799, Note_on_c, 0, 77, 51
2, 822, Note_on_c, 0, 49, 33
2, 881, Note_on_c, 0, 77, 0
2, 894, Note_on_c, 0, 73, 50
2, 946, Note_on_c, 0, 73, 0
2, 997, Note_on_c, 0, 68, 40
2, 1038, Note_on_c, 0, 68, 0
2, 1045, Note_on_c, 0, 73, 51
2, 1068, Note_on_c, 0, 49, 0
2, 1107, Note_on_c, 0, 73, 0
2, 1120, Note_on_c, 0, 61, 40
2, 1124, Note_on_c, 0, 77, 62
2, 1158, Note_on_c, 0, 77, 0
2, 1191, Note_on_c, 0, 61, 0
2, 1219, Note_on_c, 0, 73, 55
2, 1262, Note_on_c, 0, 73, 0
2, 1278, Note_on_c, 0, 51, 52
2, 1301, Note_on_c, 0, 78, 65
2, 1365, Note_on_c, 0, 78, 0
2, 1384, Note_on_c, 0, 73, 56
2, 1442, Note_on_c, 0, 73, 0
2, 1474, Note_on_c, 0, 78, 66
2, 1527, Note_on_c, 0, 78, 0
2, 1560, Note_on_c, 0, 73, 55
2, 1619, Note_on_c, 0, 73, 0
2, 1625, Note_on_c, 0, 51, 0
2, 1637, Note_on_c, 0, 61, 54
2, 1653, Note_on_c, 0, 78, 66
2, 1671, Note_on_c, 0, 61, 0
2, 1701, Note_on_c, 0, 78, 0
2, 1739, Note_on_c, 0, 73, 58
2, 1802, Note_on_c, 0, 73, 0
2, 1823, Note_on_c, 0, 80, 71
2, 1824, Note_on_c, 0, 53, 60
2, 1906, Note_on_c, 0, 80, 0
2, 1912, Note_on_c, 0, 73, 62
2, 1974, Note_on_c, 0, 73, 0
2, 2004, Note_on_c, 0, 80, 72
2, 2067, Note_on_c, 0, 80, 0
2, 2081, Note_on_c, 0, 73, 67
2, 2145, Note_on_c, 0, 73, 0
2, 2147, Note_on_c, 0, 53, 0
2, 2169, Note_on_c, 0, 61, 64
2, 2175, Note_on_c, 0, 80, 71
2, 2206, Note_on_c, 0, 61, 0
2, 2219, Note_on_c, 0, 80, 0
2, 2244, Note_on_c, 0, 73, 65
2, 2313, Note_on_c, 0, 73, 0
2, 2347, Note_on_c, 0, 82, 72
2, 2359, Note_on_c, 0, 54, 67
2, 2437, Note_on_c, 0, 82, 0
2, 2441, Note_on_c, 0, 73, 66
2, 2508, Note_on_c, 0, 73, 0
2, 2529, Note_on_c, 0, 82, 73
2, 2595, Note_on_c, 0, 82, 0
2, 2614, Note_on_c, 0, 73, 63
2, 2667, Note_on_c, 0, 54, 0
2, 2675, Note_on_c, 0, 73, 0
2, 2702, Note_on_c, 0, 61, 52
2, 2703, Note_on_c, 0, 82, 71
2, 2746, Note_on_c, 0, 61, 0
2, 2760, Note_on_c, 0, 82, 0
2, 2792, Note_on_c, 0, 73, 55
2, 2838, Note_on_c, 0, 73, 0
2, 2863, Note_on_c, 0, 53, 56
2, 2871, Note_on_c, 0, 80, 62
2, 2925, Note_on_c, 0, 80, 0
2, 2954, Note_on_c, 0, 73, 57
2, 3012, Note_on_c, 0, 73, 0
2, 3044, Note_on_c, 0, 80, 55
2, 3090, Note_on_c, 0, 80, 0
2, 3122, Note_on_c, 0, 73, 54
2, 3169, Note_on_c, 0, 53, 0
2, 3181, Note_on_c, 0, 73, 0
2, 3205, Note_on_c, 0, 61, 51
2, 3209, Note_on_c, 0, 80, 58
2, 3258, Note_on_c, 0, 61, 0
2, 3269, Note_on_c, 0, 80, 0
2, 3291, Note_on_c, 0, 73, 55
2, 3334, Note_on_c, 0, 73, 0
2, 3374, Note_on_c, 0, 51, 57
2, 3382, Note_on_c, 0, 78, 63
2, 3465, Note_on_c, 0, 77, 62
2, 3490, Note_on_c, 0, 78, 0
2, 3531, Note_on_c, 0, 77, 0
2, 3533, Note_on_c, 0, 75, 67
2, 3587, Note_on_c, 0, 75, 0
2, 3616, Note_on_c, 0, 77, 64
2, 3655, Note_on_c, 0, 51, 0
2, 3686, Note_on_c, 0, 77, 0
2, 3692, Note_on_c, 0, 60, 59
2, 3703, Note_on_c, 0, 78, 70
2, 3738, Note_on_c, 0, 60, 0
2, 3774, Note_on_c, 0, 78, 0
2, 3779, Note_on_c, 0, 75, 69
2, 3857, Note_on_c, 0, 75, 0
2, 3863, Note_on_c, 0, 49, 59
2, 3875, Note_on_c, 0, 77, 68
2, 3892, Note_on_c, 0, 49, 0
2, 3927, Note_on_c, 0, 77, 0
2, 3967, Note_on_c, 0, 75, 66
2, 4032, Note_on_c, 0, 75, 0
2, 4048, Note_on_c, 0, 73, 63
2, 4117, Note_on_c, 0, 73, 0
2, 4120, Note_on_c, 0, 75, 59
2, 4192, Note_on_c, 0, 75, 0
2, 4204, Note_on_c, 0, 61, 69
2, 4209, Note_on_c, 0, 77, 64
2, 4261, Note_on_c, 0, 77, 0
2, 4287, Note_on_c, 0, 73, 66
2, 4340, Note_on_c, 0, 73, 0
2, 4371, Note_on_c, 0, 75, 76
2, 4451, Note_on_c, 0, 75, 0
2, 4460, Note_on_c, 0, 77, 68
2, 4508, Note_on_c, 0, 61, 0
2, 4530, Note_on_c, 0, 60, 67
2, 4543, Note_on_c, 0, 77, 0
2, 4554, Note_on_c, 0, 75, 69
2, 4589, Note_on_c, 0, 75, 0
2, 4593, Note_on_c, 0, 60, 0
2, 4621, Note_on_c, 0, 58, 60
2, 4624, Note_on_c, 0, 73, 63
2, 4695, Note_on_c, 0, 73, 0
2, 4701, Note_on_c, 0, 58, 0
2, 4709, Note_on_c, 0, 72, 63
2, 4714, Note_on_c, 0, 56, 62
2, 4752, Note_on_c, 0, 72, 0
2, 4786, Note_on_c, 0, 56, 0
2, 4791, Note_on_c, 0, 70, 55
2, 4795, Note_on_c, 0, 58, 60
2, 4839, Note_on_c, 0, 58, 0
2, 4867, Note_on_c, 0, 70, 0
2, 4884, Note_on_c, 0, 60, 61
2, 4884, Note_on_c, 0, 68, 63
2, 4942, Note_on_c, 0, 60, 0
2, 4982, Note_on_c, 0, 56, 55
2, 5030, Note_on_c, 0, 56, 0
2, 5057, Note_on_c, 0, 51, 59
2, 5142, Note_on_c, 0, 51, 0
2, 5153, Note_on_c, 0, 56, 52
2, 5213, Note_on_c, 0, 56, 0
2, 5229, Note_on_c, 0, 80, 62
2, 5233, Note_on_c, 0, 60, 53
2, 5244, Note_on_c, 0, 68, 0
2, 5270, Note_on_c, 0, 60, 0
2, 5277, Note_on_c, 0, 80, 0
2, 5345, Note_on_c, 0, 56, 44
2, 5386, Note_on_c, 0, 56, 0
2, 5403, Note_on_c, 0, 70, 66
2, 5411, Note_on_c, 0, 61, 62
2, 5488, Note_on_c, 0, 61, 0
2, 5506, Note_on_c, 0, 56, 62
2, 5583, Note_on_c, 0, 56, 0
2, 5605, Note_on_c, 0, 61, 65
2, 5655, Note_on_c, 0, 61, 0
2, 5691, Note_on_c, 0, 56, 63
2, 5753, Note_on_c, 0, 56, 0
2, 5771, Note_on_c, 0, 61, 71
2, 5775, Note_on_c, 0, 80, 71
2, 5793, Note_on_c, 0, 70, 0
2, 5838, Note_on_c, 0, 61, 0
2, 5841, Note_on_c, 0, 80, 0
2, 5878, Note_on_c, 0, 56, 66
2, 5924, Note_on_c, 0, 56, 0
2, 5951, Note_on_c, 0, 72, 76
2, 5952, Note_on_c, 0, 63, 70
2, 6018, Note_on_c, 0, 63, 0
2, 6043, Note_on_c, 0, 56, 66
2, 6109, Note_on_c, 0, 56, 0
2, 6133, Note_on_c, 0, 63, 70
2, 6193, Note_on_c, 0, 63, 0
2, 6214, Note_on_c, 0, 56, 65
2, 6298, Note_on_c, 0, 56, 0
2, 6307, Note_on_c, 0, 80, 71
2, 6311, Note_on_c, 0, 63, 66
2, 6319, Note_on_c, 0, 72, 0
2, 6363, Note_on_c, 0, 80, 0
2, 6367, Note_on_c, 0, 63, 0
2, 6403, Note_on_c, 0, 56, 64
2, 6454, Note_on_c, 0, 56, 0
2, 6482, Note_on_c, 0, 73, 79
2, 6483, Note_on_c, 0, 65, 66
2, 6550, Note_on_c, 0, 65, 0
2, 6573, Note_on_c, 0, 56, 71
2, 6644, Note_on_c, 0, 56, 0
2, 6664, Note_on_c, 0, 65, 69
2, 6732, Note_on_c, 0, 65, 0
2, 6753, Note_on_c, 0, 56, 63
2, 6811, Note_on_c, 0, 56, 0
2, 6841, Note_on_c, 0, 65, 64
2, 6845, Note_on_c, 0, 80, 69
2, 6857, Note_on_c, 0, 73, 0
2, 6885, Note_on_c, 0, 65, 0
2, 6909, Note_on_c, 0, 80, 0
2, 6940, Note_on_c, 0, 56, 61
2, 7001, Note_on_c, 0, 56, 0
2, 7025, Note_on_c, 0, 72, 70
2, 7031, Note_on_c, 0, 63, 69
2, 7085, Note_on_c, 0, 63, 0
2, 7117, Note_on_c, 0, 56, 66
2, 7165, Note_on_c, 0, 56, 0
2, 7209, Note_on_c, 0, 63, 64
2, 7264, Note_on_c, 0, 63, 0
2, 7294, Note_on_c, 0, 56, 63
2, 7357, Note_on_c, 0, 56, 0
2, 7366, Note_on_c, 0, 80, 63
2, 7378, Note_on_c, 0, 63, 70
2, 7380, Note_on_c, 0, 72, 0
2, 7412, Note_on_c, 0, 80, 0
2, 7443, Note_on_c, 0, 63, 0
2, 7474, Note_on_c, 0, 56, 41
2, 7516, Note_on_c, 0, 61, 60
2, 7517, Note_on_c, 0, 56, 0
2, 7542, Note_on_c, 0, 70, 64
2, 7573, Note_on_c, 0, 61, 0
2, 7614, Note_on_c, 0, 60, 56
2, 7656, Note_on_c, 0, 60, 0
2, 7692, Note_on_c, 0, 58, 59
2, 7763, Note_on_c, 0, 58, 0
2, 7780, Note_on_c, 0, 60, 54
2, 7826, Note_on_c, 0, 60, 0
2, 7856, Note_on_c, 0, 79, 68
2, 7859, Note_on_c, 0, 61, 48
2, 7861, Note_on_c, 0, 70, 0
2, 7902, Note_on_c, 0, 79, 0
2, 7914, Note_on_c, 0, 61, 0
2, 7952, Note_on_c, 0, 58, 50
2, 7991, Note_on_c, 0, 58, 0
2, 8031, Note_on_c, 0, 60, 57
2, 8038, Note_on_c, 0, 68, 69
2, 8113, Note_on_c, 0, 60, 0
2, 8128, Note_on_c, 0, 68, 0
2, 8129, Note_on_c, 0, 58, 55
2, 8193, Note_on_c, 0, 58, 0
2, 8209, Note_on_c, 0, 56, 62
2, 8276, Note_on_c, 0, 56, 0
2, 8297, Note_on_c, 0, 58, 61
2, 8349, Note_on_c, 0, 58, 0
2, 8375, Note_on_c, 0, 80, 76
2, 8385, Note_on_c, 0, 60, 60
2, 8463, Note_on_c, 0, 60, 0
2, 8472, Note_on_c, 0, 56, 61
2, 8553, Note_on_c, 0, 56, 0
2, 8556, Note_on_c, 0, 58, 71
2, 8634, Note_on_c, 0, 58, 0
2, 8649, Note_on_c, 0, 59, 62
2, 8719, Note_on_c, 0, 78, 70
2, 8727, Note_on_c, 0, 59, 0
2, 8743, Note_on_c, 0, 58, 62
2, 8756, Note_on_c, 0, 80, 0
2, 8793, Note_on_c, 0, 78, 0
2, 8798, Note_on_c, 0, 58, 0
2, 8803, Note_on_c, 0, 77, 69
2, 8824, Note_on_c, 0, 56, 61
2, 8882, Note_on_c, 0, 77, 0
2, 8883, Note_on_c, 0, 75, 65
2, 8893, Note_on_c, 0, 56, 0
2, 8902, Note_on_c, 0, 54, 37
2, 8926, Note_on_c, 0, 75, 0
2, 8929, Note_on_c, 0, 54, 0
2, 8962, Note_on_c, 0, 77, 64
2, 9042, Note_on_c, 0, 77, 0
2, 9066, Note_on_c, 0, 51, 57
2, 9066, Note_on_c, 0, 78, 65
2, 9150, Note_on_c, 0, 78, 0
2, 9154, Note_on_c, 0, 75, 59
2, 9207, Note_on_c, 0, 75, 0
2, 9222, Note_on_c, 0, 70, 60
2, 9292, Note_on_c, 0, 70, 0
2, 9315, Note_on_c, 0, 75, 47
2, 9353, Note_on_c, 0, 51, 0
2, 9391, Note_on_c, 0, 75, 0
2, 9393, Note_on_c, 0, 78, 58
2, 9403, Note_on_c, 0, 63, 52
2, 9431, Note_on_c, 0, 78, 0
2, 9453, Note_on_c, 0, 63, 0
2, 9473, Note_on_c, 0, 75, 45
2, 9547, Note_on_c, 0, 75, 0
2, 9569, Note_on_c, 0, 80, 60
2, 9574, Note_on_c, 0, 53, 55
2, 9636, Note_on_c, 0, 80, 0
2, 9656, Note_on_c, 0, 75, 59
2, 9713, Note_on_c, 0, 75, 0
2, 9746, Note_on_c, 0, 80, 67
2, 9792, Note_on_c, 0, 80, 0
2, 9824, Note_on_c, 0, 75, 63
2, 9881, Note_on_c, 0, 75, 0
2, 9907, Note_on_c, 0, 80, 70
2, 9908, Note_on_c, 0, 53, 0
2, 9911, Note_on_c, 0, 63, 70
2, 9948, Note_on_c, 0, 63, 0
2, 9972, Note_on_c, 0, 80, 0
2, 9986, Note_on_c, 0, 75, 64
2, 10052, Note_on_c, 0, 75, 0
2, 10085, Note_on_c, 0, 82, 73
2, 10100, Note_on_c, 0, 54, 74
2, 10161, Note_on_c, 0, 82, 0
2, 10163, Note_on_c, 0, 75, 73
2, 10230, Note_on_c, 0, 75, 0
2, 10259, Note_on_c, 0, 82, 76
2, 10321, Note_on_c, 0, 82, 0
2, 10323, Note_on_c, 0, 75, 74
2, 10405, Note_on_c, 0, 75, 0
2, 10421, Note_on_c, 0, 54, 0
2, 10425, Note_on_c, 0, 82, 79
2, 10440, Note_on_c, 0, 63, 68
2, 10473, Note_on_c, 0, 63, 0
2, 10485, Note_on_c, 0, 82, 0
2, 10495, Note_on_c, 0, 75, 69
2, 10567, Note_on_c, 0, 75, 0
2, 10587, Note_on_c, 0, 83, 76
2, 10596, Note_on_c, 0, 56, 71
2, 10659, Note_on_c, 0, 83, 0
2, 10663, Note_on_c, 0, 75, 72
2, 10736, Note_on_c, 0, 75, 0
2, 10758, Note_on_c, 0, 83, 73
2, 10822, Note_on_c, 0, 83, 0
2, 10824, Note_on_c, 0, 75, 66
2, 10908, Note_on_c, 0, 75, 0
2, 10919, Note_on_c, 0, 56, 0
2, 10933, Note_on_c, 0, 63, 63
2, 10935, Note_on_c, 0, 83, 69
2, 10969, Note_on_c, 0, 63, 0
2, 10984, Note_on_c, 0, 83, 0
2, 11007, Note_on_c, 0, 75, 62
2, 11073, Note_on_c, 0, 75, 0
2, 11103, Note_on_c, 0, 82, 65
2, 11112, Note_on_c, 0, 54, 60
2, 11160, Note_on_c, 0, 82, 0
2, 11174, Note_on_c, 0, 75, 63
2, 11239, Note_on_c, 0, 75, 0
2, 11272, Note_on_c, 0, 82, 62
2, 11317, Note_on_c, 0, 82, 0
2, 11364, Note_on_c, 0, 75, 55
2, 11403, Note_on_c, 0, 54, 0
2, 11406, Note_on_c, 0, 75, 0
2, 11419, Note_on_c, 0, 63, 54
2, 11433, Note_on_c, 0, 82, 65
2, 11507, Note_on_c, 0, 82, 0
2, 11511, Note_on_c, 0, 63, 0
2, 11524, Note_on_c, 0, 75, 59
2, 11568, Note_on_c, 0, 75, 0
2, 11602, Note_on_c, 0, 53, 52
2, 11613, Note_on_c, 0, 80, 65
2, 11689, Note_on_c, 0, 78, 71
2, 11697, Note_on_c, 0, 80, 0
2, 11754, Note_on_c, 0, 78, 0
2, 11769, Note_on_c, 0, 77, 70
2, 11846, Note_on_c, 0, 77, 0
2, 11849, Note_on_c, 0, 78, 68
2, 11854, Note_on_c, 0, 53, 0
2, 11914, Note_on_c, 0, 78, 0
2, 11919, Note_on_c, 0, 62, 54
2, 11923, Note_on_c, 0, 80, 70
2, 11977, Note_on_c, 0, 62, 0
2, 11989, Note_on_c, 0, 80, 0
2, 11996, Note_on_c, 0, 77, 65
2, 12046, Note_on_c, 0, 77, 0
2, 12082, Note_on_c, 0, 78, 72
2, 12091, Note_on_c, 0, 51, 63
2, 12119, Note_on_c, 0, 51, 0
2, 12149, Note_on_c, 0, 78, 0
2, 12159, Note_on_c, 0, 77, 66
2, 12242, Note_on_c, 0, 77, 0
2, 12253, Note_on_c, 0, 75, 66
2, 12308, Note_on_c, 0, 75, 0
2, 12338, Note_on_c, 0, 77, 58
2, 12414, Note_on_c, 0, 77, 0
2, 12421, Note_on_c, 0, 63, 67
2, 12427, Note_on_c, 0, 78, 71
2, 12513, Note_on_c, 0, 78, 0
2, 12516, Note_on_c, 0, 75, 66
2, 12594, Note_on_c, 0, 75, 0
2, 12601, Note_on_c, 0, 77, 65
2, 12681, Note_on_c, 0, 77, 0
2, 12693, Note_on_c, 0, 78, 64
2, 12729, Note_on_c, 0, 63, 0
2, 12732, Note_on_c, 0, 78, 0
2, 12754, Note_on_c, 0, 61, 64
2, 12781, Note_on_c, 0, 77, 59
2, 12793, Note_on_c, 0, 61, 0
2, 12826, Note_on_c, 0, 77, 0
2, 12846, Note_on_c, 0, 75, 70
2, 12848, Note_on_c, 0, 60, 50
2, 12899, Note_on_c, 0, 75, 0
2, 12904, Note_on_c, 0, 60, 0
2, 12917, Note_on_c, 0, 58, 65
2, 12932, Note_on_c, 0, 73, 62
2, 12975, Note_on_c, 0, 73, 0
2, 12977, Note_on_c, 0, 58, 0
2, 12991, Note_on_c, 0, 72, 67
2, 12998, Note_on_c, 0, 60, 53
2, 13044, Note_on_c, 0, 60, 0
2, 13054, Note_on_c, 0, 72, 0
2, 13079, Note_on_c, 0, 61, 58
2, 13084, Note_on_c, 0, 70, 63
2, 13127, Note_on_c, 0, 61, 0
2, 13177, Note_on_c, 0, 58, 53
2, 13219, Note_on_c, 0, 58, 0
2, 13246, Note_on_c, 0, 53, 48
2, 13309, Note_on_c, 0, 53, 0
2, 13323, Note_on_c, 0, 58, 52
2, 13374, Note_on_c, 0, 58, 0
2, 13402, Note_on_c, 0, 61, 55
2, 13417, Note_on_c, 0, 70, 0
2, 13421, Note_on_c, 0, 82, 60
2, 13448, Note_on_c, 0, 61, 0
2, 13474, Note_on_c, 0, 82, 0
2, 13495, Note_on_c, 0, 58, 56
2, 13542, Note_on_c, 0, 58, 0
2, 13579, Note_on_c, 0, 63, 62
2, 13596, Note_on_c, 0, 72, 68
2, 13630, Note_on_c, 0, 63, 0
2, 13662, Note_on_c, 0, 58, 63
2, 13727, Note_on_c, 0, 58, 0
2, 13751, Note_on_c, 0, 63, 65
2, 13803, Note_on_c, 0, 63, 0
2, 13845, Note_on_c, 0, 58, 60
2, 13895, Note_on_c, 0, 58, 0
2, 13924, Note_on_c, 0, 82, 71
2, 13932, Note_on_c, 0, 63, 68
2, 13941, Note_on_c, 0, 72, 0
2, 13981, Note_on_c, 0, 82, 0
2, 13995, Note_on_c, 0, 63, 0
2, 14027, Note_on_c, 0, 58, 62
2, 14097, Note_on_c, 0, 58, 0
2, 14106, Note_on_c, 0, 73, 79
2, 14109, Note_on_c, 0, 65, 68
2, 14182, Note_on_c, 0, 65, 0
2, 14196, Note_on_c, 0, 58, 68
2, 14268, Note_on_c, 0, 58, 0
2, 14289, Note_on_c, 0, 65, 73
2, 14359, Note_on_c, 0, 65, 0
2, 14381, Note_on_c, 0, 58, 69
2, 14443, Note_on_c, 0, 58, 0
2, 14443, Note_on_c, 0, 82, 73
2, 14456, Note_on_c, 0, 73, 0
2, 14462, Note_on_c, 0, 65, 72
2, 14511, Note_on_c, 0, 82, 0
2, 14519, Note_on_c, 0, 65, 0
2, 14561, Note_on_c, 0, 58, 68
2, 14626, Note_on_c, 0, 58, 0
2, 14643, Note_on_c, 0, 66, 74
2, 14643, Note_on_c, 0, 75, 79
2, 14705, Note_on_c, 0, 66, 0
2, 14739, Note_on_c, 0, 58, 69
2, 14805, Note_on_c, 0, 58, 0
2, 14823, Note_on_c, 0, 66, 68
2, 14873, Note_on_c, 0, 66, 0
2, 14917, Note_on_c, 0, 58, 64
2, 14967, Note_on_c, 0, 58, 0
2, 15002, Note_on_c, 0, 66, 62
2, 15014, Note_on_c, 0, 75, 0
2, 15014, Note_on_c, 0, 82, 61
2, 15047, Note_on_c, 0, 66, 0
2, 15060, Note_on_c, 0, 82, 0
2, 15091, Note_on_c, 0, 58, 61
2, 15139, Note_on_c, 0, 58, 0
2, 15168, Note_on_c, 0, 65, 66
2, 15182, Note_on_c, 0, 73, 68
2, 15235, Note_on_c, 0, 65, 0
2, 15258, Note_on_c, 0, 58, 63
2, 15312, Note_on_c, 0, 58, 0
2, 15341, Note_on_c, 0, 65, 69
2, 15390, Note_on_c, 0, 65, 0
2, 15432, Note_on_c, 0, 58, 65
2, 15475, Note_on_c, 0, 58, 0
2, 15509, Note_on_c, 0, 65, 68
2, 15521, Note_on_c, 0, 82, 66
2, 15543, Note_on_c, 0, 73, 0
2, 15555, Note_on_c, 0, 65, 0
2, 15578, Note_on_c, 0, 58, 51
2, 15586, Note_on_c, 0, 82, 0
2, 15642, Note_on_c, 0, 58, 0
2, 15670, Note_on_c, 0, 63, 59
2, 15705, Note_on_c, 0, 72, 66
2, 15733, Note_on_c, 0, 63, 0
2, 15756, Note_on_c, 0, 61, 59
2, 15828, Note_on_c, 0, 61, 0
2, 15842, Note_on_c, 0, 60, 60
2, 15893, Note_on_c, 0, 60, 0
2, 15924, Note_on_c, 0, 61, 53
2, 15968, Note_on_c, 0, 61, 0
2, 15980, Note_on_c, 0, 63, 54
2, 16026, Note_on_c, 0, 81, 62
2, 16037, Note_on_c, 0, 63, 0
2, 16038, Note_on_c, 0, 72, 0
2, 16063, Note_on_c, 0, 81, 0
2, 16066, Note_on_c, 0, 60, 57
2, 16116, Note_on_c, 0, 60, 0
2, 16169, Note_on_c, 0, 61, 57
2, 16194, Note_on_c, 0, 70, 68
2, 16325, Note_on_c, 0, 61, 0
2, 16352, Note_on_c, 0, 58, 60
2, 16411, Note_on_c, 0, 58, 0
2, 16481, Note_on_c, 0, 70, 0
2, 16483, Note_on_c, 0, 61, 59
2, 16503, Note_on_c, 0, 82, 75
2, 16580, Note_on_c, 0, 61, 0
2, 16587, Note_on_c, 0, 58, 59
2, 16648, Note_on_c, 0, 58, 0
2, 16681, Note_on_c, 0, 64, 67
2, 16708, Note_on_c, 0, 64, 0
2, 16784, Note_on_c, 0, 62, 57
2, 16841, Note_on_c, 0, 80, 71
2, 16844, Note_on_c, 0, 62, 0
2, 16864, Note_on_c, 0, 82, 0
2, 16869, Note_on_c, 0, 60, 64
2, 16903, Note_on_c, 0, 80, 0
2, 16918, Note_on_c, 0, 60, 0
2, 16946, Note_on_c, 0, 62, 59
2, 16994, Note_on_c, 0, 62, 0
2, 17031, Note_on_c, 0, 79, 74
2, 17036, Note_on_c, 0, 64, 63
2, 17068, Note_on_c, 0, 64, 0
2, 17074, Note_on_c, 0, 79, 0
2, 17117, Note_on_c, 0, 60, 57
2, 17176, Note_on_c, 0, 60, 0
2, 17204, Note_on_c, 0, 65, 64
2, 17212, Note_on_c, 0, 80, 76
2, 17262, Note_on_c, 0, 80, 0
2, 17281, Note_on_c, 0, 65, 0
2, 17313, Note_on_c, 0, 64, 60
2, 17362, Note_on_c, 0, 64, 0
2, 17387, Note_on_c, 0, 68, 69
2, 17391, Note_on_c, 0, 65, 56
2, 17421, Note_on_c, 0, 68, 0
2, 17432, Note_on_c, 0, 65, 0
2, 17479, Note_on_c, 0, 67, 56
2, 17538, Note_on_c, 0, 67, 0
2, 17557, Note_on_c, 0, 80, 76
2, 17563, Note_on_c, 0, 65, 56
2, 17630, Note_on_c, 0, 65, 0
2, 17650, Note_on_c, 0, 63, 63
2, 17700, Note_on_c, 0, 63, 0
2, 17734, Note_on_c, 0, 62, 66
2, 17791, Note_on_c, 0, 62, 0
2, 17821, Note_on_c, 0, 60, 59
2, 17884, Note_on_c, 0, 60, 0
2, 17920, Note_on_c, 0, 58, 60
2, 17928, Note_on_c, 0, 78, 71
2, 17952, Note_on_c, 0, 80, 0
2, 17984, Note_on_c, 0, 58, 0
2, 17991, Note_on_c, 0, 78, 0
2, 18017, Note_on_c, 0, 60, 32
2, 18052, Note_on_c, 0, 60, 0
2, 18099, Note_on_c, 0, 77, 65
2, 18101, Note_on_c, 0, 62, 51
2, 18133, Note_on_c, 0, 77, 0
2, 18144, Note_on_c, 0, 62, 0
2, 18178, Note_on_c, 0, 58, 58
2, 18230, Note_on_c, 0, 58, 0
2, 18279, Note_on_c, 0, 63, 65
2, 18280, Note_on_c, 0, 78, 68
2, 18319, Note_on_c, 0, 63, 0
2, 18337, Note_on_c, 0, 78, 0
2, 18362, Note_on_c, 0, 77, 66
2, 18433, Note_on_c, 0, 77, 0
2, 18443, Note_on_c, 0, 75, 65
2, 18471, Note_on_c, 0, 51, 47
2, 18493, Note_on_c, 0, 75, 0
2, 18502, Note_on_c, 0, 51, 0
2, 18554, Note_on_c, 0, 77, 57
2, 18635, Note_on_c, 0, 63, 70
2, 18653, Note_on_c, 0, 78, 62
2, 18655, Note_on_c, 0, 77, 0
2, 18698, Note_on_c, 0, 78, 0
2, 18707, Note_on_c, 0, 75, 69
2, 18750, Note_on_c, 0, 75, 0
2, 18801, Note_on_c, 0, 81, 71
2, 18878, Note_on_c, 0, 79, 79
2, 18885, Note_on_c, 0, 81, 0
2, 18951, Note_on_c, 0, 79, 0
2, 18973, Note_on_c, 0, 77, 71
2, 18985, Note_on_c, 0, 61, 69
2, 18988, Note_on_c, 0, 63, 0
2, 19024, Note_on_c, 0, 61, 0
2, 19034, Note_on_c, 0, 77, 0
2, 19055, Note_on_c, 0, 79, 75
2, 19153, Note_on_c, 0, 81, 73
2, 19156, Note_on_c, 0, 79, 0
2, 19168, Note_on_c, 0, 60, 65
2, 19188, Note_on_c, 0, 60, 0
2, 19215, Note_on_c, 0, 81, 0
2, 19236, Note_on_c, 0, 77, 79
2, 19324, Note_on_c, 0, 77, 0
2, 19328, Note_on_c, 0, 61, 73
2, 19334, Note_on_c, 0, 82, 78
2, 19364, Note_on_c, 0, 61, 0
2, 19395, Note_on_c, 0, 82, 0
2, 19412, Note_on_c, 0, 81, 75
2, 19506, Note_on_c, 0, 82, 82
2, 19509, Note_on_c, 0, 49, 64
2, 19541, Note_on_c, 0, 81, 0
2, 19553, Note_on_c, 0, 49, 0
2, 19590, Note_on_c, 0, 82, 0
2, 19596, Note_on_c, 0, 84, 78
2, 19679, Note_on_c, 0, 82, 79
2, 19683, Note_on_c, 0, 61, 76
2, 19686, Note_on_c, 0, 84, 0
2, 19765, Note_on_c, 0, 80, 75
2, 19786, Note_on_c, 0, 82, 0
2, 19840, Note_on_c, 0, 80, 0
2, 19850, Note_on_c, 0, 79, 78
2, 19897, Note_on_c, 0, 79, 0
2, 19935, Note_on_c, 0, 77, 70
2, 19973, Note_on_c, 0, 61, 0
2, 19991, Note_on_c, 0, 77, 0
2, 20013, Note_on_c, 0, 75, 68
2, 20049, Note_on_c, 0, 60, 67
2, 20078, Note_on_c, 0, 60, 0
2, 20088, Note_on_c, 0, 75, 0
2, 20116, Note_on_c, 0, 77, 66
2, 20180, Note_on_c, 0, 79, 71
2, 20181, Note_on_c, 0, 77, 0
2, 20218, Note_on_c, 0, 58, 58
2, 20245, Note_on_c, 0, 58, 0
2, 20272, Note_on_c, 0, 79, 0
2, 20288, Note_on_c, 0, 75, 67
2, 20367, Note_on_c, 0, 75, 0
2, 20373, Note_on_c, 0, 60, 66
2, 20382, Note_on_c, 0, 80, 75
2, 20408, Note_on_c, 0, 80, 0
2, 20416, Note_on_c, 0, 60, 0
2, 20455, Note_on_c, 0, 58, 54
2, 20520, Note_on_c, 0, 58, 0
2, 20555, Note_on_c, 0, 56, 55
2, 20560, Note_on_c, 0, 68, 68
2, 20593, Note_on_c, 0, 68, 0
2, 20618, Note_on_c, 0, 56, 0
2, 20640, Note_on_c, 0, 58, 56
2, 20683, Note_on_c, 0, 58, 0
2, 20734, Note_on_c, 0, 80, 79
2, 20746, Note_on_c, 0, 60, 53
2, 20797, Note_on_c, 0, 60, 0
2, 20849, Note_on_c, 0, 56, 62
2, 20896, Note_on_c, 0, 56, 0
2, 20932, Note_on_c, 0, 62, 69
2, 20967, Note_on_c, 0, 62, 0
2, 21013, Note_on_c, 0, 60, 62
2, 21088, Note_on_c, 0, 60, 0
2, 21102, Note_on_c, 0, 78, 74
2, 21116, Note_on_c, 0, 58, 62
2, 21125, Note_on_c, 0, 80, 0
2, 21168, Note_on_c, 0, 78, 0
2, 21193, Note_on_c, 0, 58, 0
2, 21207, Note_on_c, 0, 60, 62
2, 21237, Note_on_c, 0, 60, 0
2, 21290, Note_on_c, 0, 77, 74
2, 21301, Note_on_c, 0, 62, 47
2, 21338, Note_on_c, 0, 77, 0
2, 21340, Note_on_c, 0, 62, 0
2, 21369, Note_on_c, 0, 58, 46
2, 21406, Note_on_c, 0, 58, 0
2, 21460, Note_on_c, 0, 78, 74
2, 21464, Note_on_c, 0, 63, 63
2, 21505, Note_on_c, 0, 78, 0
2, 21536, Note_on_c, 0, 63, 0
2, 21559, Note_on_c, 0, 62, 54
2, 21620, Note_on_c, 0, 62, 0
2, 21648, Note_on_c, 0, 63, 58
2, 21648, Note_on_c, 0, 66, 64
2, 21688, Note_on_c, 0, 66, 0
2, 21690, Note_on_c, 0, 63, 0
2, 21730, Note_on_c, 0, 65, 57
2, 21785, Note_on_c, 0, 65, 0
2, 21819, Note_on_c, 0, 63, 55
2, 21843, Note_on_c, 0, 78, 67
2, 21905, Note_on_c, 0, 63, 0
2, 21908, Note_on_c, 0, 61, 55
2, 21951, Note_on_c, 0, 61, 0
2, 21994, Note_on_c, 0, 60, 64
2, 22063, Note_on_c, 0, 60, 0
2, 22087, Note_on_c, 0, 58, 59
2, 22147, Note_on_c, 0, 78, 0
2, 22161, Note_on_c, 0, 58, 0
2, 22181, Note_on_c, 0, 56, 59
2, 22189, Note_on_c, 0, 77, 72
2, 22238, Note_on_c, 0, 56, 0
2, 22246, Note_on_c, 0, 77, 0
2, 22274, Note_on_c, 0, 58, 44
2, 22306, Note_on_c, 0, 58, 0
2, 22362, Note_on_c, 0, 60, 57
2, 22378, Note_on_c, 0, 75, 66
2, 22412, Note_on_c, 0, 75, 0
2, 22416, Note_on_c, 0, 60, 0
2, 22474, Note_on_c, 0, 56, 48
2, 22523, Note_on_c, 0, 56, 0
2, 22553, Note_on_c, 0, 77, 66
2, 22560, Note_on_c, 0, 61, 70
2, 22592, Note_on_c, 0, 61, 0
2, 22626, Note_on_c, 0, 77, 0
2, 22640, Note_on_c, 0, 75, 63
2, 22680, Note_on_c, 0, 75, 0
2, 22712, Note_on_c, 0, 73, 57
2, 22730, Note_on_c, 0, 49, 59
2, 22776, Note_on_c, 0, 49, 0
2, 22786, Note_on_c, 0, 73, 0
2, 22805, Note_on_c, 0, 75, 59
2, 22867, Note_on_c, 0, 75, 0
2, 22898, Note_on_c, 0, 77, 63
2, 22906, Note_on_c, 0, 61, 75
2, 22941, Note_on_c, 0, 77, 0
2, 22987, Note_on_c, 0, 73, 77
2, 23037, Note_on_c, 0, 73, 0
2, 23086, Note_on_c, 0, 79, 68
2, 23166, Note_on_c, 0, 77, 76
2, 23167, Note_on_c, 0, 79, 0
2, 23230, Note_on_c, 0, 61, 0
2, 23234, Note_on_c, 0, 77, 0
2, 23260, Note_on_c, 0, 75, 77
2, 23269, Note_on_c, 0, 59, 71
2, 23298, Note_on_c, 0, 59, 0
2, 23336, Note_on_c, 0, 75, 0
2, 23347, Note_on_c, 0, 77, 71
2, 23433, Note_on_c, 0, 77, 0
2, 23442, Note_on_c, 0, 79, 71
2, 23448, Note_on_c, 0, 58, 75
2, 23477, Note_on_c, 0, 58, 0
2, 23503, Note_on_c, 0, 79, 0
2, 23525, Note_on_c, 0, 75, 73
2, 23617, Note_on_c, 0, 80, 72
2, 23618, Note_on_c, 0, 59, 79
2, 23623, Note_on_c, 0, 75, 0
2, 23653, Note_on_c, 0, 59, 0
2, 23711, Note_on_c, 0, 79, 68
2, 23795, Note_on_c, 0, 47, 69
2, 23828, Note_on_c, 0, 79, 0
2, 23835, Note_on_c, 0, 47, 0
2, 23862, Note_on_c, 0, 82, 72
2, 23871, Note_on_c, 0, 80, 0
2, 23962, Note_on_c, 0, 80, 76
2, 23972, Note_on_c, 0, 59, 80
2, 23978, Note_on_c, 0, 82, 0
2, 24052, Note_on_c, 0, 78, 71
2, 24065, Note_on_c, 0, 80, 0
2, 24134, Note_on_c, 0, 78, 0
2, 24143, Note_on_c, 0, 77, 79
2, 24215, Note_on_c, 0, 77, 0
2, 24227, Note_on_c, 0, 75, 72
2, 24296, Note_on_c, 0, 75, 0
2, 24317, Note_on_c, 0, 59, 0
2, 24319, Note_on_c, 0, 73, 71
2, 24320, Note_on_c, 0, 58, 68
2, 24353, Note_on_c, 0, 58, 0
2, 24382, Note_on_c, 0, 73, 0
2, 24402, Note_on_c, 0, 75, 67
2, 24452, Note_on_c, 0, 75, 0
2, 24495, Note_on_c, 0, 77, 59
2, 24504, Note_on_c, 0, 56, 54
2, 24528, Note_on_c, 0, 56, 0
2, 24540, Note_on_c, 0, 77, 0
2, 24577, Note_on_c, 0, 73, 50
2, 24663, Note_on_c, 0, 73, 0
2, 24676, Note_on_c, 0, 58, 50
2, 24688, Note_on_c, 0, 66, 44
2, 24729, Note_on_c, 0, 58, 0
2, 24768, Note_on_c, 0, 54, 42
2, 24829, Note_on_c, 0, 54, 0
2, 24854, Note_on_c, 0, 49, 42
2, 24911, Note_on_c, 0, 49, 0
2, 24963, Note_on_c, 0, 54, 47
2, 25008, Note_on_c, 0, 54, 0
2, 25027, Note_on_c, 0, 78, 62
2, 25037, Note_on_c, 0, 66, 0
2, 25041, Note_on_c, 0, 58, 53
2, 25073, Note_on_c, 0, 78, 0
2, 25085, Note_on_c, 0, 58, 0
2, 25128, Note_on_c, 0, 54, 50
2, 25174, Note_on_c, 0, 54, 0
2, 25203, Note_on_c, 0, 59, 66
2, 25217, Note_on_c, 0, 68, 66
2, 25282, Note_on_c, 0, 59, 0
2, 25295, Note_on_c, 0, 54, 60
2, 25372, Note_on_c, 0, 54, 0
2, 25396, Note_on_c, 0, 59, 64
2, 25456, Note_on_c, 0, 59, 0
2, 25485, Note_on_c, 0, 54, 65
2, 25546, Note_on_c, 0, 54, 0
2, 25560, Note_on_c, 0, 59, 72
2, 25566, Note_on_c, 0, 78, 69
2, 25582, Note_on_c, 0, 68, 0
2, 25609, Note_on_c, 0, 59, 0
2, 25629, Note_on_c, 0, 78, 0
2, 25658, Note_on_c, 0, 54, 66
2, 25722, Note_on_c, 0, 54, 0
2, 25744, Note_on_c, 0, 61, 71
2, 25751, Note_on_c, 0, 70, 82
2, 25803, Note_on_c, 0, 61, 0
2, 25835, Note_on_c, 0, 54, 70
2, 25898, Note_on_c, 0, 54, 0
2, 25915, Note_on_c, 0, 61, 73
2, 25967, Note_on_c, 0, 61, 0
2, 25988, Note_on_c, 0, 54, 69
2, 26060, Note_on_c, 0, 54, 0
2, 26081, Note_on_c, 0, 61, 70
2, 26100, Note_on_c, 0, 78, 75
2, 26111, Note_on_c, 0, 70, 0
2, 26140, Note_on_c, 0, 61, 0
2, 26157, Note_on_c, 0, 78, 0
2, 26166, Note_on_c, 0, 54, 67
2, 26250, Note_on_c, 0, 54, 0
2, 26280, Note_on_c, 0, 63, 69
2, 26284, Note_on_c, 0, 71, 82
2, 26345, Note_on_c, 0, 63, 0
2, 26372, Note_on_c, 0, 54, 69
2, 26438, Note_on_c, 0, 54, 0
2, 26460, Note_on_c, 0, 63, 69
2, 26519, Note_on_c, 0, 63, 0
2, 26546, Note_on_c, 0, 54, 61
2, 26606, Note_on_c, 0, 54, 0
2, 26632, Note_on_c, 0, 63, 64
2, 26649, Note_on_c, 0, 71, 0
2, 26653, Note_on_c, 0, 78, 65
2, 26689, Note_on_c, 0, 63, 0
2, 26699, Note_on_c, 0, 78, 0
2, 26735, Note_on_c, 0, 54, 57
2, 26781, Note_on_c, 0, 54, 0
2, 26826, Note_on_c, 0, 61, 59
2, 26827, Note_on_c, 0, 70, 70
2, 26865, Note_on_c, 0, 61, 0
2, 26906, Note_on_c, 0, 54, 60
2, 26967, Note_on_c, 0, 54, 0
2, 26998, Note_on_c, 0, 61, 60
2, 27050, Note_on_c, 0, 61, 0
2, 27090, Note_on_c, 0, 54, 57
2, 27126, Note_on_c, 0, 54, 0
2, 27170, Note_on_c, 0, 61, 55
2, 27186, Note_on_c, 0, 78, 60
2, 27188, Note_on_c, 0, 70, 0
2, 27213, Note_on_c, 0, 61, 0
2, 27228, Note_on_c, 0, 54, 51
2, 27237, Note_on_c, 0, 78, 0
2, 27329, Note_on_c, 0, 54, 0
2, 27338, Note_on_c, 0, 59, 58
2, 27365, Note_on_c, 0, 68, 62
2, 27421, Note_on_c, 0, 59, 0
2, 27438, Note_on_c, 0, 58, 54
2, 27481, Note_on_c, 0, 58, 0
2, 27506, Note_on_c, 0, 56, 60
2, 27562, Note_on_c, 0, 56, 0
2, 27613, Note_on_c, 0, 58, 33
2, 27646, Note_on_c, 0, 58, 0
2, 27659, Note_on_c, 0, 59, 53
2, 27683, Note_on_c, 0, 77, 64
2, 27693, Note_on_c, 0, 68, 0
2, 27708, Note_on_c, 0, 59, 0
2, 27732, Note_on_c, 0, 77, 0
2, 27759, Note_on_c, 0, 56, 54
2, 27817, Note_on_c, 0, 56, 0
2, 27864, Note_on_c, 0, 66, 62
2, 27865, Note_on_c, 0, 58, 57
2, 27924, Note_on_c, 0, 58, 0
2, 27947, Note_on_c, 0, 56, 60
2, 27989, Note_on_c, 0, 66, 0
2, 27994, Note_on_c, 0, 56, 0
2, 28023, Note_on_c, 0, 54, 63
2, 28082, Note_on_c, 0, 54, 0
2, 28117, Note_on_c, 0, 56, 60
2, 28168, Note_on_c, 0, 56, 0
2, 28187, Note_on_c, 0, 58, 59
2, 28206, Note_on_c, 0, 78, 76
2, 28239, Note_on_c, 0, 58, 0
2, 28266, Note_on_c, 0, 54, 57
2, 28329, Note_on_c, 0, 54, 0
2, 28358, Note_on_c, 0, 56, 56
2, 28400, Note_on_c, 0, 56, 0
2, 28425, Note_on_c, 0, 58, 67
2, 28509, Note_on_c, 0, 58, 0
2, 28525, Note_on_c, 0, 56, 58
2, 28542, Note_on_c, 0, 77, 70
2, 28599, Note_on_c, 0, 78, 0
2, 28603, Note_on_c, 0, 54, 63
2, 28610, Note_on_c, 0, 56, 0
2, 28626, Note_on_c, 0, 75, 71
2, 28632, Note_on_c, 0, 54, 0
2, 28638, Note_on_c, 0, 77, 0
2, 28686, Note_on_c, 0, 53, 61
2, 28702, Note_on_c, 0, 75, 0
2, 28708, Note_on_c, 0, 73, 69
2, 28732, Note_on_c, 0, 53, 0
2, 28776, Note_on_c, 0, 73, 0
2, 28796, Note_on_c, 0, 51, 51
2, 28798, Note_on_c, 0, 75, 61
2, 28853, Note_on_c, 0, 75, 0
2, 28855, Note_on_c, 0, 51, 0
2, 28912, Note_on_c, 0, 49, 41
2, 28921, Note_on_c, 0, 77, 49
2, 28975, Note_on_c, 0, 77, 0
2, 29004, Note_on_c, 0, 73, 48
2, 29069, Note_on_c, 0, 73, 0
2, 29104, Note_on_c, 0, 68, 43
2, 29153, Note_on_c, 0, 68, 0
2, 29176, Note_on_c, 0, 73, 47
2, 29195, Note_on_c, 0, 49, 0
2, 29230, Note_on_c, 0, 73, 0
2, 29245, Note_on_c, 0, 61, 46
2, 29268, Note_on_c, 0, 77, 45
2, 29295, Note_on_c, 0, 77, 0
2, 29314, Note_on_c, 0, 61, 0
2, 29342, Note_on_c, 0, 73, 54
2, 29388, Note_on_c, 0, 73, 0
2, 29423, Note_on_c, 0, 51, 49
2, 29436, Note_on_c, 0, 78, 59
2, 29487, Note_on_c, 0, 78, 0
2, 29515, Note_on_c, 0, 73, 58
2, 29581, Note_on_c, 0, 73, 0
2, 29614, Note_on_c, 0, 78, 64
2, 29667, Note_on_c, 0, 78, 0
2, 29685, Note_on_c, 0, 73, 61
2, 29744, Note_on_c, 0, 73, 0
2, 29750, Note_on_c, 0, 51, 0
2, 29768, Note_on_c, 0, 61, 60
2, 29784, Note_on_c, 0, 78, 67
2, 29818, Note_on_c, 0, 61, 0
2, 29825, Note_on_c, 0, 78, 0
2, 29849, Note_on_c, 0, 73, 64
2, 29912, Note_on_c, 0, 73, 0
2, 29941, Note_on_c, 0, 53, 68
2, 29943, Note_on_c, 0, 80, 76
2, 30014, Note_on_c, 0, 80, 0
2, 30015, Note_on_c, 0, 73, 70
2, 30099, Note_on_c, 0, 73, 0
2, 30119, Note_on_c, 0, 80, 76
2, 30184, Note_on_c, 0, 80, 0
2, 30189, Note_on_c, 0, 73, 69
2, 30266, Note_on_c, 0, 73, 0
2, 30294, Note_on_c, 0, 53, 0
2, 30294, Note_on_c, 0, 80, 75
2, 30307, Note_on_c, 0, 61, 68
2, 30340, Note_on_c, 0, 61, 0
2, 30352, Note_on_c, 0, 80, 0
2, 30364, Note_on_c, 0, 73, 69
2, 30438, Note_on_c, 0, 73, 0
2, 30468, Note_on_c, 0, 82, 80
2, 30472, Note_on_c, 0, 54, 78
2, 30540, Note_on_c, 0, 73, 73
2, 30542, Note_on_c, 0, 82, 0
2, 30628, Note_on_c, 0, 73, 0
2, 30639, Note_on_c, 0, 82, 82
2, 30710, Note_on_c, 0, 82, 0
2, 30713, Note_on_c, 0, 73, 72
2, 30792, Note_on_c, 0, 73, 0
2, 30815, Note_on_c, 0, 54, 0
2, 30822, Note_on_c, 0, 82, 76
2, 30832, Note_on_c, 0, 61, 60
2, 30865, Note_on_c, 0, 61, 0
2, 30874, Note_on_c, 0, 82, 0
2, 30899, Note_on_c, 0, 73, 64
2, 30962, Note_on_c, 0, 73, 0
2, 30988, Note_on_c, 0, 80, 70
2, 31007, Note_on_c, 0, 53, 58
2, 31063, Note_on_c, 0, 80, 0
2, 31079, Note_on_c, 0, 73, 63
2, 31146, Note_on_c, 0, 73, 0
2, 31178, Note_on_c, 0, 80, 60
2, 31215, Note_on_c, 0, 80, 0
2, 31248, Note_on_c, 0, 73, 58
2, 31292, Note_on_c, 0, 73, 0
2, 31304, Note_on_c, 0, 53, 0
2, 31324, Note_on_c, 0, 61, 46
2, 31327, Note_on_c, 0, 80, 58
2, 31356, Note_on_c, 0, 61, 0
2, 31386, Note_on_c, 0, 80, 0
2, 31404, Note_on_c, 0, 73, 63
2, 31460, Note_on_c, 0, 73, 0
2, 31498, Note_on_c, 0, 51, 56
2, 31502, Note_on_c, 0, 78, 63
2, 31590, Note_on_c, 0, 77, 63
2, 31658, Note_on_c, 0, 78, 0
2, 31666, Note_on_c, 0, 75, 70
2, 31666, Note_on_c, 0, 77, 0
2, 31715, Note_on_c, 0, 75, 0
2, 31755, Note_on_c, 0, 77, 63
2, 31804, Note_on_c, 0, 51, 0
2, 31812, Note_on_c, 0, 77, 0
2, 31829, Note_on_c, 0, 78, 71
2, 31831, Note_on_c, 0, 60, 51
2, 31858, Note_on_c, 0, 60, 0
2, 31890, Note_on_c, 0, 78, 0
2, 31908, Note_on_c, 0, 75, 66
2, 31974, Note_on_c, 0, 75, 0
2, 31996, Note_on_c, 0, 77, 71
2, 32002, Note_on_c, 0, 49, 61
2, 32064, Note_on_c, 0, 77, 0
2, 32081, Note_on_c, 0, 75, 65
2, 32150, Note_on_c, 0, 75, 0
2, 32159, Note_on_c, 0, 73, 66
2, 32230, Note_on_c, 0, 73, 0
2, 32231, Note_on_c, 0, 75, 64
2, 32300, Note_on_c, 0, 75, 0
2, 32322, Note_on_c, 0, 77, 65
2, 32326, Note_on_c, 0, 61, 68
2, 32357, Note_on_c, 0, 49, 0
2, 32370, Note_on_c, 0, 61, 0
2, 32379, Note_on_c, 0, 77, 0
2, 32408, Note_on_c, 0, 73, 66
2, 32462, Note_on_c, 0, 73, 0
2, 32503, Note_on_c, 0, 75, 70
2, 32514, Note_on_c, 0, 54, 70
2, 32556, Note_on_c, 0, 54, 0
2, 32556, Note_on_c, 0, 75, 0
2, 32578, Note_on_c, 0, 77, 75
2, 32664, Note_on_c, 0, 77, 0
2, 32674, Note_on_c, 0, 75, 66
2, 32675, Note_on_c, 0, 53, 63
2, 32716, Note_on_c, 0, 53, 0
2, 32716, Note_on_c, 0, 75, 0
2, 32741, Note_on_c, 0, 73, 62
2, 32791, Note_on_c, 0, 73, 0
2, 32829, Note_on_c, 0, 72, 63
2, 32834, Note_on_c, 0, 51, 65
2, 32866, Note_on_c, 0, 51, 0
2, 32873, Note_on_c, 0, 72, 0
2, 32908, Note_on_c, 0, 70, 59
2, 32962, Note_on_c, 0, 70, 0
2, 32993, Note_on_c, 0, 72, 65
2, 33001, Note_on_c, 0, 56, 57
2, 33039, Note_on_c, 0, 56, 0
2, 33043, Note_on_c, 0, 72, 0
2, 33081, Note_on_c, 0, 68, 50
2, 33116, Note_on_c, 0, 68, 0
2, 33205, Note_on_c, 0, 66, 13
2, 33252, Note_on_c, 0, 66, 0
2, 33256, Note_on_c, 0, 68, 47
2, 33308, Note_on_c, 0, 68, 0
2, 33346, Note_on_c, 0, 63, 54
2, 33387, Note_on_c, 0, 63, 0
2, 33434, Note_on_c, 0, 68, 48
2, 33477, Note_on_c, 0, 68, 0
2, 33511, Note_on_c, 0, 56, 61
2, 33517, Note_on_c, 0, 72, 54
2, 33555, Note_on_c, 0, 56, 0
2, 33559, Note_on_c, 0, 72, 0
2, 33620, Note_on_c, 0, 68, 39
2, 33658, Note_on_c, 0, 68, 0
2, 33692, Note_on_c, 0, 66, 43
2, 33727, Note_on_c, 0, 66, 0
2, 33770, Note_on_c, 0, 68, 45
2, 33820, Note_on_c, 0, 68, 0
2, 33843, Note_on_c, 0, 63, 49
2, 33885, Note_on_c, 0, 63, 0
2, 33951, Note_on_c, 0, 68, 47
2, 33994, Note_on_c, 0, 68, 0
2, 34024, Note_on_c, 0, 56, 56
2, 34040, Note_on_c, 0, 73, 49
2, 34074, Note_on_c, 0, 56, 0
2, 34082, Note_on_c, 0, 73, 0
2, 34120, Note_on_c, 0, 68, 49
2, 34157, Note_on_c, 0, 68, 0
2, 34202, Note_on_c, 0, 65, 60
2, 34244, Note_on_c, 0, 65, 0
2, 34278, Note_on_c, 0, 68, 52
2, 34324, Note_on_c, 0, 68, 0
2, 34374, Note_on_c, 0, 61, 48
2, 34409, Note_on_c, 0, 61, 0
2, 34446, Note_on_c, 0, 68, 47
2, 34492, Note_on_c, 0, 68, 0
2, 34525, Note_on_c, 0, 73, 58
2, 34532, Note_on_c, 0, 56, 52
2, 34570, Note_on_c, 0, 73, 0
2, 34578, Note_on_c, 0, 56, 0
2, 34618, Note_on_c, 0, 68, 47
2, 34663, Note_on_c, 0, 68, 0
2, 34703, Note_on_c, 0, 65, 51
2, 34739, Note_on_c, 0, 65, 0
2, 34770, Note_on_c, 0, 68, 55
2, 34816, Note_on_c, 0, 68, 0
2, 34881, Note_on_c, 0, 61, 44
2, 34914, Note_on_c, 0, 61, 0
2, 34954, Note_on_c, 0, 68, 46
2, 34994, Note_on_c, 0, 68, 0
2, 35030, Note_on_c, 0, 78, 69
2, 35052, Note_on_c, 0, 56, 50
2, 35095, Note_on_c, 0, 56, 0
2, 35099, Note_on_c, 0, 78, 0
2, 35113, Note_on_c, 0, 68, 51
2, 35146, Note_on_c, 0, 68, 0
2, 35200, Note_on_c, 0, 63, 59
2, 35245, Note_on_c, 0, 63, 0
2, 35272, Note_on_c, 0, 68, 48
2, 35311, Note_on_c, 0, 68, 0
2, 35363, Note_on_c, 0, 60, 54
2, 35415, Note_on_c, 0, 60, 0
2, 35435, Note_on_c, 0, 68, 52
2, 35496, Note_on_c, 0, 68, 0
2, 35532, Note_on_c, 0, 78, 67
2, 35541, Note_on_c, 0, 56, 57
2, 35588, Note_on_c, 0, 56, 0
2, 35607, Note_on_c, 0, 78, 0
2, 35627, Note_on_c, 0, 68, 50
2, 35660, Note_on_c, 0, 68, 0
2, 35702, Note_on_c, 0, 63, 61
2, 35750, Note_on_c, 0, 63, 0
2, 35782, Note_on_c, 0, 68, 54
2, 35825, Note_on_c, 0, 68, 0
2, 35864, Note_on_c, 0, 60, 55
2, 35900, Note_on_c, 0, 60, 0
2, 35940, Note_on_c, 0, 68, 58
2, 35998, Note_on_c, 0, 68, 0
2, 36030, Note_on_c, 0, 77, 75
2, 36033, Note_on_c, 0, 56, 66
2, 36081, Note_on_c, 0, 56, 0
2, 36115, Note_on_c, 0, 77, 0
2, 36119, Note_on_c, 0, 68, 62
2, 36153, Note_on_c, 0, 68, 0
2, 36226, Note_on_c, 0, 65, 64
2, 36260, Note_on_c, 0, 65, 0
2, 36277, Note_on_c, 0, 68, 64
2, 36336, Note_on_c, 0, 68, 0
2, 36370, Note_on_c, 0, 61, 71
2, 36412, Note_on_c, 0, 61, 0
2, 36449, Note_on_c, 0, 68, 65
2, 36506, Note_on_c, 0, 68, 0
2, 36533, Note_on_c, 0, 77, 81
2, 36543, Note_on_c, 0, 56, 66
2, 36578, Note_on_c, 0, 56, 0
2, 36610, Note_on_c, 0, 77, 0
2, 36622, Note_on_c, 0, 68, 71
2, 36669, Note_on_c, 0, 68, 0
2, 36700, Note_on_c, 0, 65, 67
2, 36734, Note_on_c, 0, 65, 0
2, 36775, Note_on_c, 0, 68, 75
2, 36824, Note_on_c, 0, 68, 0
2, 36862, Note_on_c, 0, 61, 77
2, 36926, Note_on_c, 0, 61, 0
2, 36928, Note_on_c, 0, 68, 74
2, 36996, Note_on_c, 0, 68, 0
2, 37021, Note_on_c, 0, 79, 82
2, 37034, Note_on_c, 0, 56, 75
2, 37072, Note_on_c, 0, 56, 0
2, 37102, Note_on_c, 0, 70, 72
2, 37109, Note_on_c, 0, 79, 0
2, 37141, Note_on_c, 0, 70, 0
2, 37188, Note_on_c, 0, 64, 73
2, 37225, Note_on_c, 0, 64, 0
2, 37274, Note_on_c, 0, 70, 72
2, 37326, Note_on_c, 0, 70, 0
2, 37345, Note_on_c, 0, 61, 75
2, 37378, Note_on_c, 0, 61, 0
2, 37433, Note_on_c, 0, 70, 74
2, 37495, Note_on_c, 0, 70, 0
2, 37510, Note_on_c, 0, 56, 78
2, 37515, Note_on_c, 0, 79, 86
2, 37577, Note_on_c, 0, 56, 0
2, 37601, Note_on_c, 0, 70, 78
2, 37604, Note_on_c, 0, 79, 0
2, 37653, Note_on_c, 0, 70, 0
2, 37666, Note_on_c, 0, 64, 80
2, 37730, Note_on_c, 0, 64, 0
2, 37759, Note_on_c, 0, 70, 79
2, 37813, Note_on_c, 0, 70, 0
2, 37831, Note_on_c, 0, 61, 82
2, 37883, Note_on_c, 0, 61, 0
2, 37918, Note_on_c, 0, 70, 72
2, 37991, Note_on_c, 0, 80, 80
2, 37995, Note_on_c, 0, 70, 0
2, 37997, Note_on_c, 0, 56, 81
2, 38060, Note_on_c, 0, 56, 0
2, 38076, Note_on_c, 0, 72, 82
2, 38120, Note_on_c, 0, 80, 0
2, 38142, Note_on_c, 0, 72, 0
2, 38160, Note_on_c, 0, 63, 69
2, 38192, Note_on_c, 0, 63, 0
2, 38236, Note_on_c, 0, 72, 72
2, 38293, Note_on_c, 0, 72, 0
2, 38313, Note_on_c, 0, 60, 73
2, 38348, Note_on_c, 0, 60, 0
2, 38390, Note_on_c, 0, 72, 68
2, 38487, Note_on_c, 0, 72, 0
2, 38487, Note_on_c, 0, 80, 76
2, 38489, Note_on_c, 0, 54, 72
2, 38549, Note_on_c, 0, 54, 0
2, 38575, Note_on_c, 0, 80, 0
2, 38576, Note_on_c, 0, 72, 66
2, 38618, Note_on_c, 0, 72, 0
2, 38675, Note_on_c, 0, 63, 58
2, 38710, Note_on_c, 0, 63, 0
2, 38728, Note_on_c, 0, 72, 67
2, 38776, Note_on_c, 0, 72, 0
2, 38794, Note_on_c, 0, 60, 63
2, 38831, Note_on_c, 0, 60, 0
2, 38892, Note_on_c, 0, 72, 58
2, 38933, Note_on_c, 0, 72, 0
2, 38964, Note_on_c, 0, 53, 48
2, 38964, Note_on_c, 0, 80, 56
2, 39008, Note_on_c, 0, 53, 0
2, 39049, Note_on_c, 0, 80, 0
2, 39056, Note_on_c, 0, 73, 57
2, 39095, Note_on_c, 0, 73, 0
2, 39128, Note_on_c, 0, 65, 59
2, 39169, Note_on_c, 0, 65, 0
2, 39203, Note_on_c, 0, 68, 67
2, 39259, Note_on_c, 0, 68, 0
2, 39301, Note_on_c, 0, 61, 71
2, 39368, Note_on_c, 0, 61, 0
2, 39378, Note_on_c, 0, 73, 68
2, 39414, Note_on_c, 0, 73, 0
2, 39454, Note_on_c, 0, 56, 72
2, 39513, Note_on_c, 0, 56, 0
2, 39532, Note_on_c, 0, 77, 82
2, 39582, Note_on_c, 0, 77, 0
2, 39613, Note_on_c, 0, 53, 66
2, 39653, Note_on_c, 0, 53, 0
2, 39692, Note_on_c, 0, 80, 77
2, 39733, Note_on_c, 0, 80, 0
2, 39775, Note_on_c, 0, 51, 81
2, 39842, Note_on_c, 0, 51, 0
2, 39849, Note_on_c, 0, 82, 75
2, 39927, Note_on_c, 0, 82, 0
2, 39930, Note_on_c, 0, 83, 79
2, 39934, Note_on_c, 0, 50, 70
2, 40018, Note_on_c, 0, 50, 0
2, 40018, Note_on_c, 0, 82, 78
2, 40026, Note_on_c, 0, 83, 0
2, 40100, Note_on_c, 0, 53, 68
2, 40100, Note_on_c, 0, 80, 78
2, 40117, Note_on_c, 0, 82, 0
2, 40150, Note_on_c, 0, 53, 0
2, 40179, Note_on_c, 0, 78, 78
2, 40182, Note_on_c, 0, 80, 0
2, 40250, Note_on_c, 0, 78, 0
2, 40256, Note_on_c, 0, 58, 66
2, 40257, Note_on_c, 0, 77, 83
2, 40295, Note_on_c, 0, 58, 0
2, 40335, Note_on_c, 0, 75, 78
2, 40335, Note_on_c, 0, 77, 0
2, 40404, Note_on_c, 0, 75, 0
2, 40417, Note_on_c, 0, 77, 84
2, 40430, Note_on_c, 0, 62, 66
2, 40481, Note_on_c, 0, 62, 0
2, 40494, Note_on_c, 0, 77, 0
2, 40496, Note_on_c, 0, 78, 76
2, 40557, Note_on_c, 0, 78, 0
2, 40577, Note_on_c, 0, 80, 81
2, 40590, Note_on_c, 0, 65, 62
2, 40656, Note_on_c, 0, 83, 83
2, 40665, Note_on_c, 0, 80, 0
2, 40683, Note_on_c, 0, 65, 0
2, 40739, Note_on_c, 0, 82, 82
2, 40746, Note_on_c, 0, 83, 0
2, 40749, Note_on_c, 0, 68, 67
2, 40779, Note_on_c, 0, 68, 0
2, 40822, Note_on_c, 0, 80, 72
2, 40834, Note_on_c, 0, 82, 0
2, 40919, Note_on_c, 0, 66, 71
2, 40924, Note_on_c, 0, 80, 0
2, 40924, Note_on_c, 0, 82, 77
2, 40964, Note_on_c, 0, 66, 0
2, 41007, Note_on_c, 0, 75, 78
2, 41014, Note_on_c, 0, 82, 0
2, 41054, Note_on_c, 0, 75, 0
2, 41099, Note_on_c, 0, 63, 65
2, 41138, Note_on_c, 0, 63, 0
2, 41164, Note_on_c, 0, 66, 69
2, 41208, Note_on_c, 0, 66, 0
2, 41267, Note_on_c, 0, 58, 65
2, 41300, Note_on_c, 0, 58, 0
2, 41339, Note_on_c, 0, 70, 70
2, 41383, Note_on_c, 0, 70, 0
2, 41429, Note_on_c, 0, 54, 57
2, 41466, Note_on_c, 0, 54, 0
2, 41500, Note_on_c, 0, 75, 73
2, 41535, Note_on_c, 0, 75, 0
2, 41603, Note_on_c, 0, 51, 66
2, 41645, Note_on_c, 0, 51, 0
2, 41662, Note_on_c, 0, 78, 65
2, 41699, Note_on_c, 0, 78, 0
2, 41762, Note_on_c, 0, 49, 64
2, 41821, Note_on_c, 0, 80, 59
2, 41823, Note_on_c, 0, 49, 0
2, 41906, Note_on_c, 0, 80, 0
2, 41912, Note_on_c, 0, 81, 62
2, 41927, Note_on_c, 0, 48, 53
2, 41970, Note_on_c, 0, 48, 0
2, 41997, Note_on_c, 0, 81, 0
2, 42000, Note_on_c, 0, 80, 68
2, 42076, Note_on_c, 0, 51, 63
2, 42077, Note_on_c, 0, 78, 67
2, 42093, Note_on_c, 0, 80, 0
2, 42124, Note_on_c, 0, 51, 0
2, 42145, Note_on_c, 0, 78, 0
2, 42149, Note_on_c, 0, 76, 67
2, 42218, Note_on_c, 0, 76, 0
2, 42237, Note_on_c, 0, 56, 58
2, 42237, Note_on_c, 0, 75, 66
2, 42279, Note_on_c, 0, 56, 0
2, 42285, Note_on_c, 0, 75, 0
2, 42304, Note_on_c, 0, 73, 71
2, 42374, Note_on_c, 0, 73, 0
2, 42404, Note_on_c, 0, 75, 68
2, 42420, Note_on_c, 0, 60, 60
2, 42445, Note_on_c, 0, 75, 0
2, 42483, Note_on_c, 0, 60, 0
2, 42483, Note_on_c, 0, 76, 69
2, 42539, Note_on_c, 0, 76, 0
2, 42572, Note_on_c, 0, 63, 52
2, 42575, Note_on_c, 0, 78, 72
2, 42651, Note_on_c, 0, 81, 67
2, 42654, Note_on_c, 0, 63, 0
2, 42654, Note_on_c, 0, 78, 0
2, 42735, Note_on_c, 0, 66, 60
2, 42743, Note_on_c, 0, 81, 0
2, 42745, Note_on_c, 0, 80, 67
2, 42773, Note_on_c, 0, 66, 0
2, 42824, Note_on_c, 0, 78, 68
2, 42828, Note_on_c, 0, 80, 0
2, 42901, Note_on_c, 0, 64, 54
2, 42912, Note_on_c, 0, 78, 0
2, 42928, Note_on_c, 0, 80, 68
2, 42937, Note_on_c, 0, 64, 0
2, 42998, Note_on_c, 0, 80, 0
2, 43007, Note_on_c, 0, 73, 58
2, 43042, Note_on_c, 0, 73, 0
2, 43077, Note_on_c, 0, 61, 59
2, 43123, Note_on_c, 0, 61, 0
2, 43163, Note_on_c, 0, 76, 65
2, 43221, Note_on_c, 0, 76, 0
2, 43257, Note_on_c, 0, 57, 66
2, 43303, Note_on_c, 0, 57, 0
2, 43320, Note_on_c, 0, 73, 61
2, 43370, Note_on_c, 0, 73, 0
2, 43427, Note_on_c, 0, 54, 61
2, 43473, Note_on_c, 0, 54, 0
2, 43500, Note_on_c, 0, 69, 53
2, 43539, Note_on_c, 0, 69, 0
2, 43599, Note_on_c, 0, 63, 61
2, 43640, Note_on_c, 0, 63, 0
2, 43669, Note_on_c, 0, 66, 51
2, 43707, Note_on_c, 0, 66, 0
2, 43748, Note_on_c, 0, 60, 66
2, 43804, Note_on_c, 0, 60, 0
2, 43823, Note_on_c, 0, 75, 63
2, 43885, Note_on_c, 0, 75, 0
2, 43920, Note_on_c, 0, 52, 64
2, 43966, Note_on_c, 0, 52, 0
2, 43992, Note_on_c, 0, 68, 60
2, 44031, Note_on_c, 0, 68, 0
2, 44076, Note_on_c, 0, 61, 70
2, 44127, Note_on_c, 0, 61, 0
2, 44162, Note_on_c, 0, 64, 59
2, 44201, Note_on_c, 0, 64, 0
2, 44243, Note_on_c, 0, 57, 68
2, 44278, Note_on_c, 0, 57, 0
2, 44313, Note_on_c, 0, 73, 69
2, 44371, Note_on_c, 0, 73, 0
2, 44398, Note_on_c, 0, 54, 73
2, 44434, Note_on_c, 0, 54, 0
2, 44475, Note_on_c, 0, 69, 67
2, 44526, Note_on_c, 0, 69, 0
2, 44557, Note_on_c, 0, 51, 73
2, 44599, Note_on_c, 0, 51, 0
2, 44648, Note_on_c, 0, 66, 65
2, 44711, Note_on_c, 0, 66, 0
2, 44716, Note_on_c, 0, 48, 62
2, 44755, Note_on_c, 0, 48, 0
2, 44797, Note_on_c, 0, 63, 55
2, 44850, Note_on_c, 0, 63, 0
2, 44882, Note_on_c, 0, 44, 58
2, 44888, Note_on_c, 0, 60, 56
2, 44925, Note_on_c, 0, 44, 0
2, 44925, Note_on_c, 0, 60, 0
2, 44992, Note_on_c, 0, 56, 47
2, 45031, Note_on_c, 0, 56, 0
2, 45064, Note_on_c, 0, 54, 52
2, 45105, Note_on_c, 0, 54, 0
2, 45142, Note_on_c, 0, 56, 51
2, 45190, Note_on_c, 0, 56, 0
2, 45229, Note_on_c, 0, 51, 49
2, 45271, Note_on_c, 0, 51, 0
2, 45314, Note_on_c, 0, 56, 39
2, 45357, Note_on_c, 0, 56, 0
2, 45386, Note_on_c, 0, 60, 53
2, 45410, Note_on_c, 0, 44, 43
2, 45433, Note_on_c, 0, 60, 0
2, 45445, Note_on_c, 0, 44, 0
2, 45473, Note_on_c, 0, 56, 52
2, 45522, Note_on_c, 0, 56, 0
2, 45591, Note_on_c, 0, 54, 19
2, 45632, Note_on_c, 0, 54, 0
2, 45652, Note_on_c, 0, 56, 48
2, 45694, Note_on_c, 0, 56, 0
2, 45723, Note_on_c, 0, 51, 56
2, 45760, Note_on_c, 0, 51, 0
2, 45798, Note_on_c, 0, 56, 52
2, 45848, Note_on_c, 0, 56, 0
2, 45895, Note_on_c, 0, 61, 56
2, 45912, Note_on_c, 0, 44, 44
2, 45940, Note_on_c, 0, 61, 0
2, 45945, Note_on_c, 0, 44, 0
2, 45987, Note_on_c, 0, 56, 50
2, 46026, Note_on_c, 0, 56, 0
2, 46083, Note_on_c, 0, 53, 46
2, 46113, Note_on_c, 0, 53, 0
2, 46165, Note_on_c, 0, 56, 50
2, 46210, Note_on_c, 0, 56, 0
2, 46263, Note_on_c, 0, 49, 45
2, 46292, Note_on_c, 0, 49, 0
2, 46358, Note_on_c, 0, 56, 38
2, 46395, Note_on_c, 0, 56, 0
2, 46429, Note_on_c, 0, 61, 60
2, 46431, Note_on_c, 0, 44, 53
2, 46469, Note_on_c, 0, 44, 0
2, 46479, Note_on_c, 0, 61, 0
2, 46519, Note_on_c, 0, 56, 50
2, 46569, Note_on_c, 0, 56, 0
2, 46597, Note_on_c, 0, 53, 47
2, 46628, Note_on_c, 0, 53, 0
2, 46685, Note_on_c, 0, 56, 56
2, 46725, Note_on_c, 0, 56, 0
2, 46764, Note_on_c, 0, 49, 41
2, 46799, Note_on_c, 0, 49, 0
2, 46844, Note_on_c, 0, 56, 51
2, 46896, Note_on_c, 0, 56, 0
2, 46941, Note_on_c, 0, 44, 61
2, 46942, Note_on_c, 0, 66, 69
2, 46982, Note_on_c, 0, 44, 0
2, 47022, Note_on_c, 0, 66, 0
2, 47025, Note_on_c, 0, 56, 60
2, 47061, Note_on_c, 0, 56, 0
2, 47108, Note_on_c, 0, 51, 71
2, 47149, Note_on_c, 0, 51, 0
2, 47202, Note_on_c, 0, 56, 60
2, 47242, Note_on_c, 0, 56, 0
2, 47280, Note_on_c, 0, 48, 55
2, 47322, Note_on_c, 0, 48, 0
2, 47358, Note_on_c, 0, 56, 60
2, 47414, Note_on_c, 0, 56, 0
2, 47451, Note_on_c, 0, 66, 73
2, 47453, Note_on_c, 0, 44, 66
2, 47498, Note_on_c, 0, 44, 0
2, 47529, Note_on_c, 0, 56, 73
2, 47533, Note_on_c, 0, 66, 0
2, 47575, Note_on_c, 0, 56, 0
2, 47609, Note_on_c, 0, 51, 77
2, 47661, Note_on_c, 0, 51, 0
2, 47709, Note_on_c, 0, 56, 73
2, 47751, Note_on_c, 0, 56, 0
2, 47787, Note_on_c, 0, 48, 65
2, 47825, Note_on_c, 0, 48, 0
2, 47868, Note_on_c, 0, 56, 70
2, 47926, Note_on_c, 0, 56, 0
2, 47949, Note_on_c, 0, 65, 80
2, 47956, Note_on_c, 0, 44, 68
2, 47997, Note_on_c, 0, 44, 0
2, 48034, Note_on_c, 0, 56, 73
2, 48043, Note_on_c, 0, 65, 0
2, 48076, Note_on_c, 0, 56, 0
2, 48116, Note_on_c, 0, 53, 75
2, 48159, Note_on_c, 0, 53, 0
2, 48190, Note_on_c, 0, 56, 75
2, 48245, Note_on_c, 0, 56, 0
2, 48273, Note_on_c, 0, 49, 75
2, 48317, Note_on_c, 0, 49, 0
2, 48360, Note_on_c, 0, 56, 73
2, 48418, Note_on_c, 0, 56, 0
2, 48440, Note_on_c, 0, 44, 76
2, 48442, Note_on_c, 0, 65, 86
2, 48513, Note_on_c, 0, 44, 0
2, 48536, Note_on_c, 0, 56, 79
2, 48538, Note_on_c, 0, 65, 0
2, 48585, Note_on_c, 0, 56, 0
2, 48615, Note_on_c, 0, 53, 81
2, 48672, Note_on_c, 0, 53, 0
2, 48689, Note_on_c, 0, 56, 77
2, 48733, Note_on_c, 0, 56, 0
2, 48772, Note_on_c, 0, 49, 79
2, 48831, Note_on_c, 0, 49, 0
2, 48847, Note_on_c, 0, 56, 75
2, 48910, Note_on_c, 0, 56, 0
2, 48933, Note_on_c, 0, 67, 84
2, 48936, Note_on_c, 0, 44, 84
2, 48999, Note_on_c, 0, 44, 0
2, 49018, Note_on_c, 0, 58, 83
2, 49036, Note_on_c, 0, 67, 0
2, 49070, Note_on_c, 0, 58, 0
2, 49098, Note_on_c, 0, 52, 86
2, 49150, Note_on_c, 0, 52, 0
2, 49184, Note_on_c, 0, 58, 76
2, 49225, Note_on_c, 0, 58, 0
2, 49262, Note_on_c, 0, 49, 79
2, 49316, Note_on_c, 0, 49, 0
2, 49354, Note_on_c, 0, 58, 75
2, 49414, Note_on_c, 0, 58, 0
2, 49418, Note_on_c, 0, 44, 88
2, 49432, Note_on_c, 0, 67, 86
2, 49488, Note_on_c, 0, 44, 0
2, 49518, Note_on_c, 0, 58, 84
2, 49532, Note_on_c, 0, 67, 0
2, 49569, Note_on_c, 0, 58, 0
2, 49582, Note_on_c, 0, 52, 87
2, 49630, Note_on_c, 0, 52, 0
2, 49668, Note_on_c, 0, 58, 87
2, 49719, Note_on_c, 0, 58, 0
2, 49737, Note_on_c, 0, 49, 81
2, 49789, Note_on_c, 0, 49, 0
2, 49827, Note_on_c, 0, 58, 83
2, 49883, Note_on_c, 0, 58, 0
2, 49913, Note_on_c, 0, 44, 81
2, 49991, Note_on_c, 0, 48, 78
2, 50002, Note_on_c, 0, 44, 0
2, 50092, Note_on_c, 0, 51, 89
2, 50129, Note_on_c, 0, 48, 0
2, 50152, Note_on_c, 0, 51, 0
2, 50170, Note_on_c, 0, 54, 78
2, 50235, Note_on_c, 0, 54, 0
2, 50257, Note_on_c, 0, 57, 79
2, 50345, Note_on_c, 0, 60, 81
2, 50375, Note_on_c, 0, 57, 0
2, 50412, Note_on_c, 0, 61, 77
2, 50417, Note_on_c, 0, 60, 0
2, 50500, Note_on_c, 0, 64, 80
2, 50508, Note_on_c, 0, 61, 0
2, 50583, Note_on_c, 0, 67, 81
2, 50632, Note_on_c, 0, 64, 0
2, 50645, Note_on_c, 0, 67, 0
2, 50661, Note_on_c, 0, 70, 81
2, 50733, Note_on_c, 0, 73, 83
2, 50758, Note_on_c, 0, 70, 0
2, 50822, Note_on_c, 0, 76, 79
2, 50836, Note_on_c, 0, 73, 0
2, 50907, Note_on_c, 0, 44, 61
2, 50908, Note_on_c, 0, 72, 80
2, 50912, Note_on_c, 0, 76, 0
2, 50995, Note_on_c, 0, 75, 79
2, 51038, Note_on_c, 0, 72, 0
2, 51071, Note_on_c, 0, 75, 0
2, 51071, Note_on_c, 0, 78, 84
2, 51075, Note_on_c, 0, 44, 0
2, 51156, Note_on_c, 0, 75, 78
2, 51219, Note_on_c, 0, 78, 0
2, 51228, Note_on_c, 0, 72, 74
2, 51274, Note_on_c, 0, 75, 0
2, 51317, Note_on_c, 0, 68, 78
2, 51368, Note_on_c, 0, 72, 0
2, 51408, Note_on_c, 0, 66, 80
2, 51427, Note_on_c, 0, 68, 0
2, 51486, Note_on_c, 0, 63, 77
2, 51493, Note_on_c, 0, 66, 0
2, 51577, Note_on_c, 0, 60, 76
2, 51589, Note_on_c, 0, 63, 0
2, 51656, Note_on_c, 0, 60, 0
2, 51662, Note_on_c, 0, 56, 72
2, 51743, Note_on_c, 0, 56, 0
2, 51752, Note_on_c, 0, 60, 78
2, 51824, Note_on_c, 0, 60, 0
2, 51826, Note_on_c, 0, 63, 79
2, 51902, Note_on_c, 0, 65, 76
2, 51922, Note_on_c, 0, 56, 75
2, 51943, Note_on_c, 0, 63, 0
2, 51998, Note_on_c, 0, 68, 71
2, 52054, Note_on_c, 0, 56, 0
2, 52072, Note_on_c, 0, 73, 81
2, 52081, Note_on_c, 0, 68, 0
2, 52108, Note_on_c, 0, 65, 0
2, 52160, Note_on_c, 0, 68, 73
2, 52197, Note_on_c, 0, 73, 0
2, 52243, Note_on_c, 0, 65, 73
2, 52255, Note_on_c, 0, 68, 0
2, 52317, Note_on_c, 0, 61, 78
2, 52397, Note_on_c, 0, 65, 0
2, 52406, Note_on_c, 0, 58, 83
2, 52412, Note_on_c, 0, 61, 0
2, 52488, Note_on_c, 0, 55, 72
2, 52501, Note_on_c, 0, 58, 0
2, 52577, Note_on_c, 0, 52, 74
2, 52602, Note_on_c, 0, 55, 0
2, 52663, Note_on_c, 0, 49, 75
2, 52668, Note_on_c, 0, 52, 0
2, 52745, Note_on_c, 0, 52, 64
2, 52756, Note_on_c, 0, 49, 0
2, 52831, Note_on_c, 0, 55, 78
2, 52836, Note_on_c, 0, 52, 0
2, 52924, Note_on_c, 0, 55, 0
2, 52952, Note_on_c, 0, 44, 80
2, 53199, Note_on_c, 0, 73, 85
2, 53206, Note_on_c, 0, 68, 68
2, 53209, Note_on_c, 0, 65, 68
2, 53212, Note_on_c, 0, 56, 66
2, 53216, Note_on_c, 0, 49, 62
2, 53216, Note_on_c, 0, 53, 70
2, 53239, Note_on_c, 0, 65, 0
2, 53255, Note_on_c, 0, 56, 0
2, 53255, Note_on_c, 0, 68, 0
2, 53256, Note_on_c, 0, 73, 0
2, 53264, Note_on_c, 0, 53, 0
2, 53272, Note_on_c, 0, 49, 0
2, 53543, Note_on_c, 0, 54, 68
2, 53546, Note_on_c, 0, 51, 63
2, 53546, Note_on_c, 0, 56, 60
2, 53549, Note_on_c, 0, 72, 84
2, 53555, Note_on_c, 0, 68, 74
2, 53561, Note_on_c, 0, 63, 72
2, 53614, Note_on_c, 0, 56, 0
2, 53614, Note_on_c, 0, 63, 0
2, 53615, Note_on_c, 0, 51, 0
2, 53620, Note_on_c, 0, 72, 0
2, 53629, Note_on_c, 0, 54, 0
2, 53629, Note_on_c, 0, 68, 0
2, 54090, Note_on_c, 0, 73, 80
2, 54101, Note_on_c, 0, 61, 61
2, 54106, Note_on_c, 0, 68, 62
2, 54109, Note_on_c, 0, 49, 47
2, 54109, Note_on_c, 0, 56, 49
2, 54117, Note_on_c, 0, 53, 50
2, 54193, Note_on_c, 0, 44, 0
2, 54692, Control_c, 0, 64, 26
2, 54708, Control_c, 0, 64, 44
2, 54723, Control_c, 0, 64, 56
2, 54738, Control_c, 0, 64, 63
2, 54754, Control_c, 0, 64, 69
2, 54769, Control_c, 0, 64, 82
2, 54785, Control_c, 0, 64, 127
2, 54901, Note_on_c, 0, 61, 0
2, 54909, Note_on_c, 0, 53, 0
2, 54909, Note_on_c, 0, 56, 0
2, 54919, Note_on_c, 0, 49, 0
2, 55054, Note_on_c, 0, 73, 0
2, 55056, Note_on_c, 0, 68, 0
2, 55088, Control_c, 0, 64, 78
2, 55103, Control_c, 0, 64, 57
2, 55118, Control_c, 0, 64, 0
2, 55992, Note_on_c, 0, 68, 66
2, 56023, Note_on_c, 0, 68, 0
2, 56285, Note_on_c, 0, 70, 68
2, 56384, Note_on_c, 0, 70, 0
2, 56388, Note_on_c, 0, 68, 72
2, 56495, Note_on_c, 0, 66, 70
2, 56496, Note_on_c, 0, 68, 0
2, 56555, Note_on_c, 0, 66, 0
2, 56601, Note_on_c, 0, 68, 72
2, 56686, Note_on_c, 0, 68, 0
2, 56729, Note_on_c, 0, 77, 79
2, 56764, Note_on_c, 0, 77, 0
2, 56982, Note_on_c, 0, 73, 73
2, 57015, Note_on_c, 0, 73, 0
2, 57242, Note_on_c, 0, 68, 77
2, 57482, Note_on_c, 0, 68, 0
2, 57488, Note_on_c, 0, 66, 61
2, 57542, Note_on_c, 0, 66, 0
2, 57576, Note_on_c, 0, 65, 61
2, 57653, Note_on_c, 0, 65, 0
2, 57704, Note_on_c, 0, 66, 75
2, 57737, Note_on_c, 0, 66, 0
2, 57945, Note_on_c, 0, 75, 79
2, 57999, Note_on_c, 0, 75, 0
2, 58190, Note_on_c, 0, 65, 75
2, 58242, Note_on_c, 0, 65, 0
2, 58460, Note_on_c, 0, 73, 74
2, 58505, Note_on_c, 0, 73, 0
2, 58713, Note_on_c, 0, 63, 70
2, 58759, Note_on_c, 0, 63, 0
2, 58970, Note_on_c, 0, 72, 67
2, 59008, Note_on_c, 0, 72, 0
2, 59173, Control_c, 0, 64, 45
2, 59188, Control_c, 0, 64, 60
2, 59203, Control_c, 0, 64, 67
2, 59226, Control_c, 0, 64, 76
2, 59232, Note_on_c, 0, 61, 58
2, 59241, Control_c, 0, 64, 96
2, 59257, Control_c, 0, 64, 127
2, 59264, Note_on_c, 0, 61, 0
2, 59470, Control_c, 0, 64, 78
2, 59481, Note_on_c, 0, 73, 70
2, 59485, Control_c, 0, 64, 47
2, 59501, Control_c, 0, 64, 0
2, 59582, Note_on_c, 0, 73, 0
2, 59589, Note_on_c, 0, 72, 71
2, 59667, Note_on_c, 0, 72, 0
2, 59699, Note_on_c, 0, 73, 78
2, 59797, Note_on_c, 0, 73, 0
2, 59805, Note_on_c, 0, 75, 76
2, 59880, Note_on_c, 0, 75, 0
2, 59918, Note_on_c, 0, 77, 80
2, 59922, Note_on_c, 0, 61, 66
2, 59951, Note_on_c, 0, 61, 0
2, 59996, Note_on_c, 0, 77, 0
2, 60022, Note_on_c, 0, 78, 76
2, 60149, Note_on_c, 0, 65, 71
2, 60150, Note_on_c, 0, 80, 80
2, 60166, Note_on_c, 0, 78, 0
2, 60221, Note_on_c, 0, 65, 0
2, 60242, Note_on_c, 0, 63, 71
2, 60249, Note_on_c, 0, 79, 80
2, 60276, Note_on_c, 0, 80, 0
2, 60348, Note_on_c, 0, 63, 0
2, 60353, Note_on_c, 0, 61, 71
2, 60357, Note_on_c, 0, 79, 0
2, 60360, Note_on_c, 0, 77, 83
2, 60431, Note_on_c, 0, 77, 0
2, 60442, Note_on_c, 0, 61, 0
2, 60456, Note_on_c, 0, 63, 77
2, 60464, Note_on_c, 0, 79, 80
2, 60525, Note_on_c, 0, 63, 0
2, 60566, Note_on_c, 0, 79, 0
2, 60583, Note_on_c, 0, 80, 76
2, 60589, Note_on_c, 0, 72, 74
2, 60617, Note_on_c, 0, 72, 0
2, 60653, Note_on_c, 0, 80, 0
2, 60687, Note_on_c, 0, 78, 73
2, 60790, Note_on_c, 0, 78, 0
2, 60811, Note_on_c, 0, 77, 76
2, 60821, Note_on_c, 0, 68, 64
2, 60845, Note_on_c, 0, 68, 0
2, 60900, Note_on_c, 0, 77, 0
2, 60909, Note_on_c, 0, 75, 70
2, 61041, Note_on_c, 0, 77, 72
2, 61042, Note_on_c, 0, 75, 0
2, 61046, Note_on_c, 0, 63, 63
2, 61271, Note_on_c, 0, 63, 0
2, 61284, Note_on_c, 0, 61, 67
2, 61365, Note_on_c, 0, 61, 0
2, 61375, Note_on_c, 0, 60, 63
2, 61502, Note_on_c, 0, 61, 75
2, 61506, Note_on_c, 0, 60, 0
2, 61542, Note_on_c, 0, 61, 0
2, 61614, Note_on_c, 0, 77, 0
2, 61628, Note_on_c, 0, 75, 63
2, 61713, Note_on_c, 0, 75, 0
2, 61745, Note_on_c, 0, 70, 72
2, 61745, Note_on_c, 0, 73, 65
2, 61786, Note_on_c, 0, 70, 0
2, 61846, Note_on_c, 0, 73, 0
2, 61853, Note_on_c, 0, 77, 68
2, 61982, Note_on_c, 0, 77, 0
2, 61987, Note_on_c, 0, 60, 73
2, 61996, Note_on_c, 0, 75, 65
2, 62015, Note_on_c, 0, 60, 0
2, 62072, Note_on_c, 0, 75, 0
2, 62100, Note_on_c, 0, 73, 63
2, 62188, Note_on_c, 0, 73, 0
2, 62216, Note_on_c, 0, 68, 77
2, 62219, Note_on_c, 0, 72, 65
2, 62275, Note_on_c, 0, 68, 0
2, 62298, Note_on_c, 0, 72, 0
2, 62329, Note_on_c, 0, 75, 66
2, 62463, Note_on_c, 0, 75, 0
2, 62468, Note_on_c, 0, 58, 74
2, 62476, Note_on_c, 0, 73, 58
2, 62523, Note_on_c, 0, 58, 0
2, 62562, Note_on_c, 0, 73, 0
2, 62567, Note_on_c, 0, 72, 64
2, 62670, Note_on_c, 0, 72, 0
2, 62691, Note_on_c, 0, 73, 63
2, 62699, Note_on_c, 0, 67, 72
2, 62725, Note_on_c, 0, 67, 0
2, 62809, Note_on_c, 0, 70, 63
2, 62845, Note_on_c, 0, 70, 0
2, 62907, Note_on_c, 0, 73, 0
2, 62933, Note_on_c, 0, 56, 69
2, 62947, Note_on_c, 0, 70, 62
2, 63023, Note_on_c, 0, 70, 0
2, 63042, Note_on_c, 0, 56, 0
2, 63044, Note_on_c, 0, 72, 66
2, 63157, Note_on_c, 0, 72, 0
2, 63163, Note_on_c, 0, 75, 70
2, 63175, Note_on_c, 0, 68, 66
2, 63190, Note_on_c, 0, 75, 0
2, 63219, Note_on_c, 0, 68, 0
2, 63262, Note_on_c, 0, 67, 62
2, 63370, Note_on_c, 0, 67, 0
2, 63379, Note_on_c, 0, 68, 75
2, 63390, Note_on_c, 0, 78, 81
2, 63415, Note_on_c, 0, 68, 0
2, 63498, Note_on_c, 0, 70, 69
2, 63591, Note_on_c, 0, 70, 0
2, 63614, Note_on_c, 0, 56, 68
2, 63618, Note_on_c, 0, 72, 69
2, 63640, Note_on_c, 0, 56, 0
2, 63667, Note_on_c, 0, 72, 0
2, 63707, Note_on_c, 0, 68, 70
2, 63842, Note_on_c, 0, 58, 80
2, 63851, Note_on_c, 0, 73, 69
2, 63864, Note_on_c, 0, 68, 0
2, 63938, Note_on_c, 0, 58, 0
2, 63941, Note_on_c, 0, 56, 76
2, 63943, Note_on_c, 0, 73, 0
2, 63949, Note_on_c, 0, 72, 69
2, 64054, Note_on_c, 0, 54, 78
2, 64054, Note_on_c, 0, 56, 0
2, 64062, Note_on_c, 0, 70, 69
2, 64079, Note_on_c, 0, 72, 0
2, 64145, Note_on_c, 0, 70, 0
2, 64151, Note_on_c, 0, 54, 0
2, 64151, Note_on_c, 0, 72, 73
2, 64152, Note_on_c, 0, 56, 77
2, 64152, Note_on_c, 0, 78, 0
2, 64240, Note_on_c, 0, 56, 0
2, 64270, Note_on_c, 0, 73, 80
2, 64271, Note_on_c, 0, 65, 82
2, 64273, Note_on_c, 0, 72, 0
2, 64275, Note_on_c, 0, 77, 76
2, 64297, Note_on_c, 0, 65, 0
2, 64342, Note_on_c, 0, 73, 0
2, 64380, Note_on_c, 0, 72, 75
2, 64446, Note_on_c, 0, 72, 0
2, 64498, Note_on_c, 0, 61, 70
2, 64506, Note_on_c, 0, 70, 69
2, 64525, Note_on_c, 0, 61, 0
2, 64578, Note_on_c, 0, 70, 0
2, 64607, Note_on_c, 0, 68, 75
2, 64740, Note_on_c, 0, 68, 0
2, 64756, Note_on_c, 0, 56, 65
2, 64756, Note_on_c, 0, 70, 70
2, 64830, Note_on_c, 0, 77, 0
2, 64994, Note_on_c, 0, 56, 0
2, 64995, Note_on_c, 0, 54, 63
2, 65081, Note_on_c, 0, 54, 0
2, 65089, Note_on_c, 0, 53, 63
2, 65221, Note_on_c, 0, 54, 67
2, 65224, Note_on_c, 0, 53, 0
2, 65225, Note_on_c, 0, 75, 72
2, 65242, Note_on_c, 0, 70, 0
2, 65255, Note_on_c, 0, 54, 0
2, 65331, Note_on_c, 0, 68, 62
2, 65427, Note_on_c, 0, 68, 0
2, 65463, Note_on_c, 0, 66, 63
2, 65469, Note_on_c, 0, 63, 66
2, 65521, Note_on_c, 0, 63, 0
2, 65543, Note_on_c, 0, 66, 0
2, 65554, Note_on_c, 0, 70, 68
2, 65591, Note_on_c, 0, 75, 0
2, 65630, Note_on_c, 0, 70, 0
2, 65673, Note_on_c, 0, 68, 68
2, 65691, Note_on_c, 0, 53, 63
2, 65728, Note_on_c, 0, 53, 0
2, 65760, Note_on_c, 0, 66, 72
2, 65773, Note_on_c, 0, 68, 0
2, 65884, Note_on_c, 0, 73, 69
2, 65888, Note_on_c, 0, 66, 0
2, 65897, Note_on_c, 0, 65, 68
2, 65898, Note_on_c, 0, 61, 67
2, 65938, Note_on_c, 0, 61, 0
2, 65955, Note_on_c, 0, 65, 0
2, 65983, Note_on_c, 0, 73, 0
2, 65992, Note_on_c, 0, 68, 70
2, 66072, Note_on_c, 0, 68, 0
2, 66107, Note_on_c, 0, 52, 65
2, 66109, Note_on_c, 0, 72, 74
2, 66136, Note_on_c, 0, 66, 59
2, 66158, Note_on_c, 0, 52, 0
2, 66166, Note_on_c, 0, 72, 0
2, 66201, Note_on_c, 0, 66, 0
2, 66221, Note_on_c, 0, 65, 72
2, 66275, Note_on_c, 0, 65, 0
2, 66331, Note_on_c, 0, 75, 76
2, 66335, Note_on_c, 0, 60, 59
2, 66346, Note_on_c, 0, 66, 60
2, 66355, Note_on_c, 0, 60, 0
2, 66437, Note_on_c, 0, 63, 58
2, 66475, Note_on_c, 0, 63, 0
2, 66489, Note_on_c, 0, 66, 0
2, 66528, Note_on_c, 0, 75, 0
2, 66582, Note_on_c, 0, 49, 53
2, 66590, Note_on_c, 0, 65, 58
2, 66609, Note_on_c, 0, 49, 0
2, 66824, Note_on_c, 0, 61, 54
2, 66850, Note_on_c, 0, 68, 47
2, 66877, Note_on_c, 0, 68, 0
2, 66907, Note_on_c, 0, 61, 0
2, 66934, Note_on_c, 0, 60, 57
2, 67028, Note_on_c, 0, 60, 0
2, 67060, Note_on_c, 0, 61, 51
2, 67070, Note_on_c, 0, 77, 83
2, 67094, Note_on_c, 0, 65, 0
2, 67159, Note_on_c, 0, 61, 0
2, 67167, Note_on_c, 0, 63, 64
2, 67267, Note_on_c, 0, 63, 0
2, 67295, Note_on_c, 0, 65, 63
2, 67303, Note_on_c, 0, 68, 65
2, 67341, Note_on_c, 0, 68, 0
2, 67367, Note_on_c, 0, 65, 0
2, 67407, Note_on_c, 0, 61, 60
2, 67512, Note_on_c, 0, 58, 61
2, 67516, Note_on_c, 0, 61, 0
2, 67516, Note_on_c, 0, 73, 71
2, 67617, Note_on_c, 0, 58, 0
2, 67618, Note_on_c, 0, 77, 0
2, 67633, Note_on_c, 0, 60, 62
2, 67721, Note_on_c, 0, 60, 0
2, 67748, Note_on_c, 0, 77, 76
2, 67750, Note_on_c, 0, 61, 70
2, 67768, Note_on_c, 0, 73, 0
2, 67820, Note_on_c, 0, 61, 0
2, 67857, Note_on_c, 0, 58, 63
2, 67862, Note_on_c, 0, 73, 72
2, 67905, Note_on_c, 0, 77, 0
2, 67955, Note_on_c, 0, 58, 0
2, 67956, Note_on_c, 0, 73, 0
2, 67963, Note_on_c, 0, 55, 63
2, 67971, Note_on_c, 0, 70, 77
2, 68056, Note_on_c, 0, 55, 0
2, 68080, Note_on_c, 0, 56, 62
2, 68159, Note_on_c, 0, 56, 0
2, 68186, Note_on_c, 0, 70, 0
2, 68188, Note_on_c, 0, 58, 63
2, 68196, Note_on_c, 0, 73, 61
2, 68226, Note_on_c, 0, 58, 0
2, 68256, Note_on_c, 0, 73, 0
2, 68291, Note_on_c, 0, 55, 54
2, 68298, Note_on_c, 0, 70, 58
2, 68383, Note_on_c, 0, 70, 0
2, 68426, Note_on_c, 0, 63, 61
2, 68428, Note_on_c, 0, 55, 0
2, 68437, Note_on_c, 0, 48, 55
2, 68463, Note_on_c, 0, 48, 0
2, 68665, Note_on_c, 0, 70, 63
2, 68672, Note_on_c, 0, 60, 54
2, 68694, Note_on_c, 0, 70, 0
2, 68758, Note_on_c, 0, 60, 0
2, 68787, Note_on_c, 0, 58, 55
2, 68897, Note_on_c, 0, 58, 0
2, 68899, Note_on_c, 0, 75, 82
2, 68905, Note_on_c, 0, 60, 50
2, 68950, Note_on_c, 0, 63, 0
2, 68970, Note_on_c, 0, 60, 0
2, 68988, Note_on_c, 0, 61, 64
2, 69086, Note_on_c, 0, 61, 0
2, 69122, Note_on_c, 0, 63, 62
2, 69130, Note_on_c, 0, 67, 72
2, 69165, Note_on_c, 0, 67, 0
2, 69170, Note_on_c, 0, 63, 0
2, 69237, Note_on_c, 0, 60, 58
2, 69344, Note_on_c, 0, 56, 66
2, 69351, Note_on_c, 0, 72, 79
2, 69354, Note_on_c, 0, 60, 0
2, 69387, Note_on_c, 0, 75, 0
2, 69451, Note_on_c, 0, 56, 0
2, 69459, Note_on_c, 0, 58, 64
2, 69536, Note_on_c, 0, 58, 0
2, 69562, Note_on_c, 0, 60, 67
2, 69584, Note_on_c, 0, 75, 74
2, 69590, Note_on_c, 0, 72, 0
2, 69663, Note_on_c, 0, 60, 0
2, 69676, Note_on_c, 0, 56, 64
2, 69681, Note_on_c, 0, 75, 0
2, 69684, Note_on_c, 0, 72, 72
2, 69774, Note_on_c, 0, 72, 0
2, 69799, Note_on_c, 0, 53, 58
2, 69801, Note_on_c, 0, 68, 74
2, 69804, Note_on_c, 0, 56, 0
2, 69880, Note_on_c, 0, 53, 0
2, 69909, Note_on_c, 0, 55, 54
2, 69999, Note_on_c, 0, 55, 0
2, 70021, Note_on_c, 0, 56, 73
2, 70030, Note_on_c, 0, 72, 60
2, 70043, Note_on_c, 0, 68, 0
2, 70098, Note_on_c, 0, 56, 0
2, 70101, Note_on_c, 0, 72, 0
2, 70141, Note_on_c, 0, 68, 53
2, 70153, Note_on_c, 0, 53, 34
2, 70228, Note_on_c, 0, 68, 0
2, 70259, Note_on_c, 0, 46, 56
2, 70260, Note_on_c, 0, 61, 55
2, 70276, Note_on_c, 0, 53, 0
2, 70294, Note_on_c, 0, 46, 0
2, 70495, Note_on_c, 0, 68, 62
2, 70520, Note_on_c, 0, 58, 47
2, 70528, Note_on_c, 0, 68, 0
2, 70577, Note_on_c, 0, 58, 0
2, 70617, Note_on_c, 0, 56, 52
2, 70689, Note_on_c, 0, 56, 0
2, 70718, Note_on_c, 0, 58, 45
2, 70746, Note_on_c, 0, 73, 67
2, 70764, Note_on_c, 0, 61, 0
2, 70810, Note_on_c, 0, 58, 0
2, 70831, Note_on_c, 0, 60, 55
2, 70905, Note_on_c, 0, 60, 0
2, 70948, Note_on_c, 0, 61, 59
2, 70968, Note_on_c, 0, 65, 66
2, 71001, Note_on_c, 0, 65, 0
2, 71018, Note_on_c, 0, 61, 0
2, 71056, Note_on_c, 0, 58, 64
2, 71170, Note_on_c, 0, 55, 64
2, 71180, Note_on_c, 0, 70, 74
2, 71192, Note_on_c, 0, 58, 0
2, 71246, Note_on_c, 0, 73, 0
2, 71278, Note_on_c, 0, 72, 83
2, 71286, Note_on_c, 0, 70, 0
2, 71289, Note_on_c, 0, 55, 0
2, 71295, Note_on_c, 0, 56, 71
2, 71369, Note_on_c, 0, 56, 0
2, 71389, Note_on_c, 0, 58, 80
2, 71393, Note_on_c, 0, 73, 82
2, 71399, Note_on_c, 0, 72, 0
2, 71462, Note_on_c, 0, 73, 0
2, 71472, Note_on_c, 0, 58, 0
2, 71491, Note_on_c, 0, 70, 87
2, 71495, Note_on_c, 0, 55, 70
2, 71618, Note_on_c, 0, 51, 69
2, 71623, Note_on_c, 0, 82, 89
2, 71674, Note_on_c, 0, 55, 0
2, 71721, Note_on_c, 0, 51, 0
2, 71727, Note_on_c, 0, 73, 83
2, 71730, Note_on_c, 0, 53, 68
2, 71734, Note_on_c, 0, 70, 0
2, 71803, Note_on_c, 0, 53, 0
2, 71836, Note_on_c, 0, 55, 78
2, 71838, Note_on_c, 0, 75, 88
2, 71841, Note_on_c, 0, 73, 0
2, 71921, Note_on_c, 0, 75, 0
2, 71943, Note_on_c, 0, 70, 87
2, 71944, Note_on_c, 0, 51, 71
2, 71946, Note_on_c, 0, 55, 0
2, 72002, Note_on_c, 0, 70, 0
2, 72066, Note_on_c, 0, 44, 80
2, 72076, Note_on_c, 0, 72, 88
2, 72085, Note_on_c, 0, 51, 0
2, 72096, Note_on_c, 0, 44, 0
2, 72141, Note_on_c, 0, 82, 0
2, 72210, Note_on_c, 0, 80, 74
2, 72318, Note_on_c, 0, 79, 80
2, 72321, Note_on_c, 0, 80, 0
2, 72324, Note_on_c, 0, 56, 80
2, 72433, Note_on_c, 0, 82, 87
2, 72436, Note_on_c, 0, 56, 0
2, 72448, Note_on_c, 0, 79, 0
2, 72461, Note_on_c, 0, 58, 59
2, 72537, Note_on_c, 0, 60, 80
2, 72541, Note_on_c, 0, 80, 85
2, 72563, Note_on_c, 0, 58, 0
2, 72571, Note_on_c, 0, 60, 0
2, 72646, Note_on_c, 0, 75, 85
2, 72671, Note_on_c, 0, 72, 0
2, 72681, Note_on_c, 0, 80, 0
2, 72684, Note_on_c, 0, 82, 0
2, 72764, Note_on_c, 0, 77, 86
2, 72766, Note_on_c, 0, 56, 64
2, 72766, Note_on_c, 0, 68, 74
2, 72775, Note_on_c, 0, 75, 0
2, 72828, Note_on_c, 0, 56, 0
2, 72874, Note_on_c, 0, 78, 82
2, 72895, Note_on_c, 0, 77, 0
2, 72960, Note_on_c, 0, 78, 0
2, 72978, Note_on_c, 0, 61, 74
2, 72986, Note_on_c, 0, 68, 0
2, 72993, Note_on_c, 0, 77, 85
2, 73070, Note_on_c, 0, 77, 0
2, 73097, Note_on_c, 0, 75, 84
2, 73103, Note_on_c, 0, 67, 65
2, 73183, Note_on_c, 0, 67, 0
2, 73205, Note_on_c, 0, 65, 56
2, 73208, Note_on_c, 0, 73, 84
2, 73211, Note_on_c, 0, 75, 0
2, 73247, Note_on_c, 0, 61, 0
2, 73280, Note_on_c, 0, 65, 0
2, 73281, Note_on_c, 0, 73, 0
2, 73294, Note_on_c, 0, 67, 71
2, 73308, Note_on_c, 0, 75, 83
2, 73404, Note_on_c, 0, 67, 0
2, 73420, Note_on_c, 0, 68, 76
2, 73427, Note_on_c, 0, 84, 91
2, 73435, Note_on_c, 0, 60, 56
2, 73441, Note_on_c, 0, 75, 0
2, 73473, Note_on_c, 0, 84, 0
2, 73494, Note_on_c, 0, 68, 0
2, 73525, Note_on_c, 0, 67, 67
2, 73651, Note_on_c, 0, 80, 87
2, 73655, Note_on_c, 0, 67, 0
2, 73663, Note_on_c, 0, 65, 65
2, 73687, Note_on_c, 0, 80, 0
2, 73697, Note_on_c, 0, 60, 0
2, 73760, Note_on_c, 0, 65, 0
2, 73782, Note_on_c, 0, 63, 59
2, 73896, Note_on_c, 0, 75, 84
2, 73915, Note_on_c, 0, 58, 65
2, 73917, Note_on_c, 0, 65, 57
2, 73950, Note_on_c, 0, 63, 0
2, 73989, Note_on_c, 0, 58, 0
2, 74017, Note_on_c, 0, 75, 0
2, 74028, Note_on_c, 0, 73, 75
2, 74065, Note_on_c, 0, 73, 0
2, 74084, Note_on_c, 0, 75, 62
2, 74115, Note_on_c, 0, 75, 0
2, 74121, Note_on_c, 0, 73, 74
2, 74124, Note_on_c, 0, 56, 71
2, 74191, Note_on_c, 0, 56, 0
2, 74210, Note_on_c, 0, 73, 0
2, 74216, Note_on_c, 0, 72, 69
2, 74335, Note_on_c, 0, 73, 79
2, 74336, Note_on_c, 0, 55, 66
2, 74347, Note_on_c, 0, 72, 0
2, 74371, Note_on_c, 0, 73, 0
2, 74376, Note_on_c, 0, 65, 0
2, 74442, Note_on_c, 0, 63, 58
2, 74566, Note_on_c, 0, 63, 0
2, 74567, Note_on_c, 0, 82, 76
2, 74598, Note_on_c, 0, 61, 52
2, 74629, Note_on_c, 0, 82, 0
2, 74637, Note_on_c, 0, 55, 0
2, 74664, Note_on_c, 0, 61, 0
2, 74677, Note_on_c, 0, 65, 56
2, 74766, Note_on_c, 0, 65, 0
2, 74793, Note_on_c, 0, 72, 72
2, 74798, Note_on_c, 0, 63, 70
2, 74824, Note_on_c, 0, 56, 53
2, 74833, Note_on_c, 0, 72, 0
2, 74895, Note_on_c, 0, 63, 0
2, 74905, Note_on_c, 0, 61, 67
2, 74930, Note_on_c, 0, 56, 0
2, 75020, Note_on_c, 0, 80, 72
2, 75022, Note_on_c, 0, 61, 0
2, 75026, Note_on_c, 0, 60, 61
2, 75070, Note_on_c, 0, 80, 0
2, 75115, Note_on_c, 0, 60, 0
2, 75140, Note_on_c, 0, 63, 62
2, 75214, Note_on_c, 0, 63, 0
2, 75243, Note_on_c, 0, 61, 63
2, 75249, Note_on_c, 0, 70, 68
2, 75290, Note_on_c, 0, 70, 0
2, 75297, Note_on_c, 0, 51, 51
2, 75323, Note_on_c, 0, 61, 0
2, 75358, Note_on_c, 0, 60, 54
2, 75448, Note_on_c, 0, 60, 0
2, 75475, Note_on_c, 0, 61, 58
2, 75481, Note_on_c, 0, 79, 65
2, 75510, Note_on_c, 0, 79, 0
2, 75543, Note_on_c, 0, 61, 0
2, 75593, Note_on_c, 0, 58, 57
2, 75661, Note_on_c, 0, 51, 0
2, 75703, Note_on_c, 0, 58, 0
2, 75725, Note_on_c, 0, 60, 57
2, 75726, Note_on_c, 0, 68, 51
2, 75748, Note_on_c, 0, 56, 48
2, 75758, Note_on_c, 0, 60, 0
2, 75772, Note_on_c, 0, 68, 0
2, 75826, Note_on_c, 0, 70, 56
2, 75904, Note_on_c, 0, 70, 0
2, 75952, Note_on_c, 0, 72, 59
2, 75955, Note_on_c, 0, 63, 48
2, 75984, Note_on_c, 0, 63, 0
2, 76042, Note_on_c, 0, 72, 0
2, 76067, Note_on_c, 0, 73, 46
2, 76119, Note_on_c, 0, 73, 0
2, 76186, Note_on_c, 0, 68, 55
2, 76188, Note_on_c, 0, 72, 54
2, 76263, Note_on_c, 0, 72, 0
2, 76281, Note_on_c, 0, 70, 59
2, 76315, Note_on_c, 0, 56, 0
2, 76360, Note_on_c, 0, 68, 0
2, 76377, Note_on_c, 0, 70, 0
2, 76396, Note_on_c, 0, 63, 50
2, 76400, Note_on_c, 0, 68, 51
2, 76460, Note_on_c, 0, 63, 0
2, 76476, Note_on_c, 0, 68, 0
2, 76487, Note_on_c, 0, 60, 55
2, 76501, Note_on_c, 0, 72, 69
2, 76606, Note_on_c, 0, 72, 0
2, 76609, Note_on_c, 0, 60, 0
2, 76621, Note_on_c, 0, 77, 76
2, 76625, Note_on_c, 0, 56, 54
2, 76660, Note_on_c, 0, 56, 0
2, 76717, Note_on_c, 0, 77, 0
2, 76720, Note_on_c, 0, 75, 80
2, 76822, Note_on_c, 0, 75, 0
2, 76828, Note_on_c, 0, 74, 82
2, 76837, Note_on_c, 0, 57, 53
2, 76896, Note_on_c, 0, 57, 0
2, 76921, Note_on_c, 0, 56, 68
2, 76938, Note_on_c, 0, 77, 85
2, 76941, Note_on_c, 0, 74, 0
2, 77044, Note_on_c, 0, 53, 79
2, 77050, Note_on_c, 0, 80, 89
2, 77055, Note_on_c, 0, 77, 0
2, 77060, Note_on_c, 0, 56, 0
2, 77068, Note_on_c, 0, 53, 0
2, 77157, Note_on_c, 0, 78, 86
2, 77171, Note_on_c, 0, 80, 0
2, 77264, Note_on_c, 0, 77, 86
2, 77279, Note_on_c, 0, 78, 0
2, 77288, Note_on_c, 0, 56, 63
2, 77369, Note_on_c, 0, 80, 77
2, 77385, Note_on_c, 0, 77, 0
2, 77400, Note_on_c, 0, 80, 0
2, 77422, Note_on_c, 0, 53, 64
2, 77459, Note_on_c, 0, 80, 78
2, 77461, Note_on_c, 0, 56, 0
2, 77502, Note_on_c, 0, 82, 81
2, 77536, Note_on_c, 0, 80, 0
2, 77546, Note_on_c, 0, 83, 90
2, 77566, Note_on_c, 0, 50, 72
2, 77584, Note_on_c, 0, 82, 0
2, 77602, Note_on_c, 0, 53, 0
2, 77768, Note_on_c, 0, 82, 84
2, 77771, Note_on_c, 0, 53, 60
2, 77815, Note_on_c, 0, 83, 0
2, 77869, Note_on_c, 0, 80, 84
2, 77872, Note_on_c, 0, 56, 74
2, 77878, Note_on_c, 0, 53, 0
2, 77927, Note_on_c, 0, 82, 0
2, 77977, Note_on_c, 0, 56, 0
2, 77978, Note_on_c, 0, 50, 0
2, 77983, Note_on_c, 0, 59, 81
2, 77988, Note_on_c, 0, 78, 87
2, 78011, Note_on_c, 0, 80, 0
2, 78018, Note_on_c, 0, 59, 0
2, 78083, Note_on_c, 0, 78, 0
2, 78089, Note_on_c, 0, 77, 82
2, 78201, Note_on_c, 0, 53, 80
2, 78205, Note_on_c, 0, 75, 83
2, 78208, Note_on_c, 0, 77, 0
2, 78248, Note_on_c, 0, 53, 0
2, 78298, Note_on_c, 0, 75, 0
2, 78307, Note_on_c, 0, 74, 83
2, 78429, Note_on_c, 0, 75, 87
2, 78432, Note_on_c, 0, 58, 81
2, 78435, Note_on_c, 0, 54, 78
2, 78466, Note_on_c, 0, 74, 0
2, 78484, Note_on_c, 0, 54, 0
2, 78489, Note_on_c, 0, 58, 0
2, 78532, Note_on_c, 0, 78, 85
2, 78556, Note_on_c, 0, 75, 0
2, 78625, Note_on_c, 0, 78, 0
2, 78646, Note_on_c, 0, 77, 87
2, 78652, Note_on_c, 0, 59, 84
2, 78657, Note_on_c, 0, 56, 79
2, 78688, Note_on_c, 0, 56, 0
2, 78713, Note_on_c, 0, 59, 0
2, 78726, Note_on_c, 0, 77, 0
2, 78749, Note_on_c, 0, 75, 88
2, 78856, Note_on_c, 0, 75, 0
2, 78871, Note_on_c, 0, 74, 77
2, 78874, Note_on_c, 0, 58, 80
2, 78907, Note_on_c, 0, 58, 0
2, 78967, Note_on_c, 0, 77, 80
2, 79058, Note_on_c, 0, 77, 0
2, 79092, Note_on_c, 0, 74, 0
2, 79094, Note_on_c, 0, 70, 83
2, 79109, Note_on_c, 0, 50, 69
2, 79113, Note_on_c, 0, 46, 71
2, 79131, Note_on_c, 0, 50, 0
2, 79143, Note_on_c, 0, 46, 0
2, 79196, Note_on_c, 0, 70, 0
2, 79212, Note_on_c, 0, 68, 81
2, 79343, Note_on_c, 0, 51, 74
2, 79343, Note_on_c, 0, 66, 78
2, 79347, Note_on_c, 0, 68, 0
2, 79354, Note_on_c, 0, 39, 68
2, 79454, Note_on_c, 0, 65, 76
2, 79460, Note_on_c, 0, 66, 0
2, 79538, Note_on_c, 0, 65, 0
2, 79570, Note_on_c, 0, 63, 75
2, 79654, Note_on_c, 0, 63, 0
2, 79669, Note_on_c, 0, 62, 65
2, 79758, Note_on_c, 0, 62, 0
2, 79788, Note_on_c, 0, 39, 0
2, 79789, Note_on_c, 0, 63, 68
2, 79805, Note_on_c, 0, 51, 0
2, 79849, Note_on_c, 0, 63, 0
2, 79887, Note_on_c, 0, 65, 68
2, 79979, Note_on_c, 0, 65, 0
2, 80010, Note_on_c, 0, 66, 65
2, 80012, Note_on_c, 0, 51, 68
2, 80039, Note_on_c, 0, 51, 0
2, 80076, Note_on_c, 0, 66, 0
2, 80110, Note_on_c, 0, 68, 63
2, 80235, Note_on_c, 0, 68, 0
2, 80241, Note_on_c, 0, 70, 64
2, 80248, Note_on_c, 0, 54, 66
2, 80327, Note_on_c, 0, 54, 0
2, 80347, Note_on_c, 0, 68, 70
2, 80353, Note_on_c, 0, 70, 0
2, 80357, Note_on_c, 0, 53, 59
2, 80428, Note_on_c, 0, 68, 0
2, 80439, Note_on_c, 0, 53, 0
2, 80455, Note_on_c, 0, 51, 70
2, 80455, Note_on_c, 0, 66, 69
2, 80522, Note_on_c, 0, 66, 0
2, 80530, Note_on_c, 0, 51, 0
2, 80554, Note_on_c, 0, 68, 72
2, 80555, Note_on_c, 0, 53, 67
2, 80614, Note_on_c, 0, 53, 0
2, 80672, Note_on_c, 0, 68, 0
2, 80675, Note_on_c, 0, 70, 70
2, 80678, Note_on_c, 0, 61, 74
2, 80708, Note_on_c, 0, 61, 0
2, 80763, Note_on_c, 0, 70, 0
2, 80794, Note_on_c, 0, 68, 70
2, 80878, Note_on_c, 0, 68, 0
2, 80910, Note_on_c, 0, 58, 73
2, 80910, Note_on_c, 0, 66, 61
2, 80938, Note_on_c, 0, 58, 0
2, 80989, Note_on_c, 0, 66, 0
2, 81010, Note_on_c, 0, 65, 54
2, 81155, Note_on_c, 0, 53, 61
2, 81161, Note_on_c, 0, 65, 0
2, 81165, Note_on_c, 0, 66, 64
2, 81391, Note_on_c, 0, 53, 0
2, 81412, Note_on_c, 0, 51, 64
2, 81478, Note_on_c, 0, 51, 0
2, 81518, Note_on_c, 0, 49, 58
2, 81632, Note_on_c, 0, 49, 0
2, 81648, Note_on_c, 0, 51, 74
2, 81684, Note_on_c, 0, 51, 0
2, 81733, Note_on_c, 0, 66, 0
2, 81745, Note_on_c, 0, 65, 56
2, 81869, Note_on_c, 0, 65, 0
2, 81871, Note_on_c, 0, 60, 69
2, 81880, Note_on_c, 0, 63, 63
2, 81903, Note_on_c, 0, 60, 0
2, 81978, Note_on_c, 0, 63, 0
2, 81986, Note_on_c, 0, 66, 63
2, 82060, Note_on_c, 0, 66, 0
2, 82102, Note_on_c, 0, 49, 71
2, 82113, Note_on_c, 0, 65, 63
2, 82156, Note_on_c, 0, 49, 0
2, 82186, Note_on_c, 0, 65, 0
2, 82235, Note_on_c, 0, 63, 51
2, 82309, Note_on_c, 0, 63, 0
2, 82347, Note_on_c, 0, 58, 71
2, 82358, Note_on_c, 0, 61, 58
2, 82402, Note_on_c, 0, 58, 0
2, 82413, Note_on_c, 0, 61, 0
2, 82459, Note_on_c, 0, 65, 55
2, 82560, Note_on_c, 0, 65, 0
2, 82592, Note_on_c, 0, 48, 67
2, 82596, Note_on_c, 0, 63, 62
2, 82628, Note_on_c, 0, 48, 0
2, 82692, Note_on_c, 0, 63, 0
2, 82694, Note_on_c, 0, 61, 61
2, 82796, Note_on_c, 0, 61, 0
2, 82813, Note_on_c, 0, 63, 67
2, 82815, Note_on_c, 0, 57, 65
2, 82845, Note_on_c, 0, 57, 0
2, 82863, Note_on_c, 0, 63, 0
2, 82911, Note_on_c, 0, 60, 60
2, 82992, Note_on_c, 0, 60, 0
2, 83037, Note_on_c, 0, 46, 59
2, 83039, Note_on_c, 0, 61, 63
2, 83070, Note_on_c, 0, 46, 0
2, 83109, Note_on_c, 0, 61, 0
2, 83143, Note_on_c, 0, 65, 62
2, 83260, Note_on_c, 0, 65, 0
2, 83262, Note_on_c, 0, 66, 64
2, 83268, Note_on_c, 0, 58, 60
2, 83305, Note_on_c, 0, 66, 0
2, 83332, Note_on_c, 0, 58, 0
2, 83357, Note_on_c, 0, 57, 57
2, 83357, Note_on_c, 0, 65, 64
2, 83439, Note_on_c, 0, 57, 0
2, 83476, Note_on_c, 0, 58, 56
2, 83484, Note_on_c, 0, 73, 80
2, 83488, Note_on_c, 0, 65, 0
2, 83549, Note_on_c, 0, 58, 0
2, 83560, Note_on_c, 0, 60, 63
2, 83647, Note_on_c, 0, 60, 0
2, 83694, Note_on_c, 0, 61, 68
2, 83716, Note_on_c, 0, 65, 67
2, 83760, Note_on_c, 0, 65, 0
2, 83763, Note_on_c, 0, 61, 0
2, 83809, Note_on_c, 0, 58, 58
2, 83918, Note_on_c, 0, 70, 70
2, 83924, Note_on_c, 0, 58, 0
2, 83927, Note_on_c, 0, 55, 61
2, 83985, Note_on_c, 0, 73, 0
2, 84013, Note_on_c, 0, 72, 78
2, 84017, Note_on_c, 0, 70, 0
2, 84034, Note_on_c, 0, 55, 0
2, 84044, Note_on_c, 0, 56, 68
2, 84109, Note_on_c, 0, 56, 0
2, 84127, Note_on_c, 0, 73, 77
2, 84128, Note_on_c, 0, 58, 77
2, 84139, Note_on_c, 0, 72, 0
2, 84191, Note_on_c, 0, 73, 0
2, 84203, Note_on_c, 0, 58, 0
2, 84227, Note_on_c, 0, 70, 82
2, 84238, Note_on_c, 0, 55, 65
2, 84356, Note_on_c, 0, 82, 82
2, 84361, Note_on_c, 0, 51, 60
2, 84365, Note_on_c, 0, 55, 0
2, 84429, Note_on_c, 0, 51, 0
2, 84438, Note_on_c, 0, 70, 0
2, 84450, Note_on_c, 0, 53, 58
2, 84457, Note_on_c, 0, 73, 74
2, 84478, Note_on_c, 0, 82, 0
2, 84503, Note_on_c, 0, 53, 0
2, 84545, Note_on_c, 0, 55, 76
2, 84573, Note_on_c, 0, 73, 0
2, 84584, Note_on_c, 0, 75, 73
2, 84653, Note_on_c, 0, 55, 0
2, 84676, Note_on_c, 0, 51, 62
2, 84680, Note_on_c, 0, 70, 67
2, 84685, Note_on_c, 0, 75, 0
2, 84774, Note_on_c, 0, 70, 0
2, 84782, Note_on_c, 0, 51, 0
2, 84783, Note_on_c, 0, 44, 63
2, 84788, Note_on_c, 0, 72, 72
2, 84816, Note_on_c, 0, 44, 0
2, 84837, Note_on_c, 0, 72, 0
2, 84899, Note_on_c, 0, 63, 69
2, 84979, Note_on_c, 0, 63, 0
2, 85005, Note_on_c, 0, 65, 61
2, 85011, Note_on_c, 0, 56, 52
2, 85059, Note_on_c, 0, 65, 0
2, 85086, Note_on_c, 0, 56, 0
2, 85098, Note_on_c, 0, 63, 66
2, 85126, Note_on_c, 0, 55, 38
2, 85193, Note_on_c, 0, 55, 0
2, 85226, Note_on_c, 0, 56, 49
2, 85233, Note_on_c, 0, 72, 75
2, 85246, Note_on_c, 0, 63, 0
2, 85331, Note_on_c, 0, 56, 0
2, 85352, Note_on_c, 0, 58, 61
2, 85431, Note_on_c, 0, 58, 0
2, 85467, Note_on_c, 0, 63, 63
2, 85472, Note_on_c, 0, 60, 60
2, 85532, Note_on_c, 0, 63, 0
2, 85555, Note_on_c, 0, 60, 0
2, 85577, Note_on_c, 0, 56, 56
2, 85679, Note_on_c, 0, 53, 60
2, 85687, Note_on_c, 0, 68, 69
2, 85697, Note_on_c, 0, 56, 0
2, 85753, Note_on_c, 0, 72, 0
2, 85788, Note_on_c, 0, 53, 0
2, 85794, Note_on_c, 0, 70, 76
2, 85807, Note_on_c, 0, 55, 68
2, 85859, Note_on_c, 0, 68, 0
2, 85872, Note_on_c, 0, 55, 0
2, 85897, Note_on_c, 0, 72, 76
2, 85903, Note_on_c, 0, 56, 73
2, 85904, Note_on_c, 0, 70, 0
2, 85955, Note_on_c, 0, 72, 0
2, 85985, Note_on_c, 0, 56, 0
2, 85990, Note_on_c, 0, 68, 80
2, 86006, Note_on_c, 0, 54, 55
2, 86037, Note_on_c, 0, 53, 66
2, 86060, Note_on_c, 0, 54, 0
2, 86131, Note_on_c, 0, 80, 82
2, 86140, Note_on_c, 0, 49, 61
2, 86161, Note_on_c, 0, 53, 0
2, 86230, Note_on_c, 0, 49, 0
2, 86231, Note_on_c, 0, 72, 71
2, 86240, Note_on_c, 0, 51, 68
2, 86243, Note_on_c, 0, 80, 0
2, 86259, Note_on_c, 0, 68, 0
2, 86310, Note_on_c, 0, 51, 0
2, 86339, Note_on_c, 0, 53, 74
2, 86342, Note_on_c, 0, 72, 0
2, 86351, Note_on_c, 0, 73, 72
2, 86414, Note_on_c, 0, 53, 0
2, 86420, Note_on_c, 0, 73, 0
2, 86443, Note_on_c, 0, 68, 72
2, 86444, Note_on_c, 0, 49, 56
2, 86522, Note_on_c, 0, 68, 0
2, 86549, Note_on_c, 0, 43, 70
2, 86560, Note_on_c, 0, 49, 0
2, 86564, Note_on_c, 0, 70, 70
2, 86581, Note_on_c, 0, 43, 0
2, 86606, Note_on_c, 0, 70, 0
2, 86663, Note_on_c, 0, 61, 74
2, 86739, Note_on_c, 0, 61, 0
2, 86776, Note_on_c, 0, 55, 57
2, 86789, Note_on_c, 0, 63, 72
2, 86858, Note_on_c, 0, 63, 0
2, 86874, Note_on_c, 0, 61, 75
2, 86875, Note_on_c, 0, 55, 0
2, 86898, Note_on_c, 0, 53, 59
2, 87001, Note_on_c, 0, 70, 86
2, 87006, Note_on_c, 0, 53, 0
2, 87016, Note_on_c, 0, 55, 63
2, 87022, Note_on_c, 0, 61, 0
2, 87109, Note_on_c, 0, 55, 0
2, 87116, Note_on_c, 0, 56, 71
2, 87227, Note_on_c, 0, 61, 76
2, 87228, Note_on_c, 0, 58, 79
2, 87229, Note_on_c, 0, 56, 0
2, 87285, Note_on_c, 0, 61, 0
2, 87289, Note_on_c, 0, 58, 0
2, 87326, Note_on_c, 0, 55, 70
2, 87441, Note_on_c, 0, 67, 76
2, 87446, Note_on_c, 0, 52, 74
2, 87455, Note_on_c, 0, 55, 0
2, 87497, Note_on_c, 0, 70, 0
2, 87542, Note_on_c, 0, 68, 83
2, 87548, Note_on_c, 0, 52, 0
2, 87552, Note_on_c, 0, 53, 78
2, 87638, Note_on_c, 0, 53, 0
2, 87654, Note_on_c, 0, 67, 0
2, 87655, Note_on_c, 0, 55, 84
2, 87662, Note_on_c, 0, 70, 85
2, 87683, Note_on_c, 0, 68, 0
2, 87723, Note_on_c, 0, 70, 0
2, 87757, Note_on_c, 0, 52, 76
2, 87760, Note_on_c, 0, 55, 0
2, 87760, Note_on_c, 0, 67, 84
2, 87864, Note_on_c, 0, 48, 76
2, 87876, Note_on_c, 0, 52, 0
2, 87877, Note_on_c, 0, 79, 90
2, 87967, Note_on_c, 0, 79, 0
2, 87968, Note_on_c, 0, 48, 0
2, 87974, Note_on_c, 0, 50, 77
2, 87980, Note_on_c, 0, 70, 80
2, 88029, Note_on_c, 0, 67, 0
2, 88050, Note_on_c, 0, 50, 0
2, 88072, Note_on_c, 0, 70, 0
2, 88078, Note_on_c, 0, 52, 82
2, 88087, Note_on_c, 0, 72, 89
2, 88153, Note_on_c, 0, 72, 0
2, 88182, Note_on_c, 0, 48, 77
2, 88194, Note_on_c, 0, 67, 84
2, 88209, Note_on_c, 0, 52, 0
2, 88291, Note_on_c, 0, 48, 0
2, 88303, Note_on_c, 0, 41, 82
2, 88316, Note_on_c, 0, 68, 89
2, 88362, Note_on_c, 0, 67, 0
2, 88452, Note_on_c, 0, 43, 73
2, 88460, Note_on_c, 0, 76, 85
2, 88465, Note_on_c, 0, 68, 0
2, 88554, Note_on_c, 0, 41, 0
2, 88555, Note_on_c, 0, 76, 0
2, 88555, Note_on_c, 0, 77, 88
2, 88558, Note_on_c, 0, 44, 78
2, 88559, Note_on_c, 0, 43, 0
2, 88655, Note_on_c, 0, 46, 80
2, 88658, Note_on_c, 0, 73, 81
2, 88694, Note_on_c, 0, 44, 0
2, 88703, Note_on_c, 0, 77, 0
2, 88754, Note_on_c, 0, 46, 0
2, 88757, Note_on_c, 0, 48, 80
2, 88770, Note_on_c, 0, 70, 87
2, 88784, Note_on_c, 0, 73, 0
2, 88873, Note_on_c, 0, 50, 76
2, 88887, Note_on_c, 0, 48, 0
2, 88989, Note_on_c, 0, 50, 0
2, 88995, Note_on_c, 0, 52, 77
2, 88998, Note_on_c, 0, 60, 81
2, 89031, Note_on_c, 0, 60, 0
2, 89066, Note_on_c, 0, 52, 0
2, 89083, Note_on_c, 0, 48, 67
2, 89199, Note_on_c, 0, 48, 0
2, 89209, Note_on_c, 0, 53, 76
2, 89226, Note_on_c, 0, 61, 78
2, 89232, Note_on_c, 0, 70, 0
2, 89303, Note_on_c, 0, 53, 0
2, 89303, Note_on_c, 0, 61, 0
2, 89307, Note_on_c, 0, 51, 75
2, 89312, Note_on_c, 0, 60, 78
2, 89417, Note_on_c, 0, 49, 72
2, 89418, Note_on_c, 0, 51, 0
2, 89422, Note_on_c, 0, 58, 83
2, 89433, Note_on_c, 0, 60, 0
2, 89498, Note_on_c, 0, 58, 0
2, 89516, Note_on_c, 0, 49, 0
2, 89519, Note_on_c, 0, 51, 80
2, 89534, Note_on_c, 0, 60, 76
2, 89639, Note_on_c, 0, 51, 0
2, 89650, Note_on_c, 0, 53, 71
2, 89657, Note_on_c, 0, 68, 86
2, 89679, Note_on_c, 0, 60, 0
2, 89754, Note_on_c, 0, 51, 76
2, 89756, Note_on_c, 0, 53, 0
2, 89873, Note_on_c, 0, 49, 73
2, 89875, Note_on_c, 0, 51, 0
2, 89886, Note_on_c, 0, 65, 79
2, 89925, Note_on_c, 0, 66, 7
2, 89926, Note_on_c, 0, 66, 0
2, 89940, Note_on_c, 0, 65, 0
2, 89983, Note_on_c, 0, 48, 72
2, 89983, Note_on_c, 0, 49, 0
2, 90126, Note_on_c, 0, 48, 0
2, 90131, Note_on_c, 0, 49, 78
2, 90139, Note_on_c, 0, 60, 82
2, 90316, Note_on_c, 0, 60, 0
2, 90369, Note_on_c, 0, 58, 73
2, 90372, Note_on_c, 0, 68, 0
2, 90462, Note_on_c, 0, 56, 81
2, 90463, Note_on_c, 0, 58, 0
2, 90543, Note_on_c, 0, 56, 0
2, 90586, Note_on_c, 0, 58, 83
2, 90595, Note_on_c, 0, 67, 65
2, 90649, Note_on_c, 0, 67, 0
2, 90652, Note_on_c, 0, 58, 0
2, 90686, Note_on_c, 0, 49, 0
2, 90704, Note_on_c, 0, 48, 76
2, 90822, Note_on_c, 0, 46, 75
2, 90823, Note_on_c, 0, 48, 0
2, 90825, Note_on_c, 0, 67, 77
2, 90871, Note_on_c, 0, 67, 0
2, 90927, Note_on_c, 0, 46, 0
2, 90932, Note_on_c, 0, 49, 76
2, 91044, Note_on_c, 0, 49, 0
2, 91048, Note_on_c, 0, 56, 85
2, 91049, Note_on_c, 0, 48, 79
2, 91105, Note_on_c, 0, 56, 0
2, 91151, Note_on_c, 0, 48, 0
2, 91154, Note_on_c, 0, 46, 73
2, 91271, Note_on_c, 0, 65, 79
2, 91277, Note_on_c, 0, 44, 73
2, 91279, Note_on_c, 0, 56, 80
2, 91288, Note_on_c, 0, 46, 0
2, 91332, Note_on_c, 0, 56, 0
2, 91344, Note_on_c, 0, 65, 0
2, 91388, Note_on_c, 0, 44, 0
2, 91402, Note_on_c, 0, 48, 68
2, 91511, Note_on_c, 0, 64, 73
2, 91512, Note_on_c, 0, 55, 76
2, 91514, Note_on_c, 0, 48, 0
2, 91517, Note_on_c, 0, 46, 72
2, 91542, Note_on_c, 0, 55, 0
2, 91550, Note_on_c, 0, 64, 0
2, 91629, Note_on_c, 0, 44, 76
2, 91636, Note_on_c, 0, 46, 0
2, 91754, Note_on_c, 0, 64, 63
2, 91755, Note_on_c, 0, 67, 60
2, 91756, Note_on_c, 0, 69, 70
2, 91759, Note_on_c, 0, 65, 67
2, 91762, Note_on_c, 0, 46, 76
2, 91768, Note_on_c, 0, 44, 0
2, 91783, Note_on_c, 0, 65, 0
2, 91784, Note_on_c, 0, 64, 0
2, 91784, Note_on_c, 0, 67, 0
2, 91784, Note_on_c, 0, 69, 0
2, 91855, Note_on_c, 0, 46, 0
2, 91863, Note_on_c, 0, 43, 67
2, 91979, Note_on_c, 0, 44, 82
2, 91980, Note_on_c, 0, 43, 0
2, 91988, Note_on_c, 0, 72, 88
2, 92002, Note_on_c, 0, 53, 76
2, 92054, Note_on_c, 0, 44, 0
2, 92094, Note_on_c, 0, 72, 0
2, 92096, Note_on_c, 0, 70, 80
2, 92211, Note_on_c, 0, 70, 0
2, 92216, Note_on_c, 0, 68, 81
2, 92221, Note_on_c, 0, 49, 74
2, 92270, Note_on_c, 0, 49, 0
2, 92330, Note_on_c, 0, 72, 84
2, 92352, Note_on_c, 0, 68, 0
2, 92440, Note_on_c, 0, 43, 75
2, 92452, Note_on_c, 0, 70, 84
2, 92456, Note_on_c, 0, 53, 0
2, 92477, Note_on_c, 0, 72, 0
2, 92505, Note_on_c, 0, 43, 0
2, 92548, Note_on_c, 0, 70, 0
2, 92549, Note_on_c, 0, 68, 81
2, 92656, Note_on_c, 0, 68, 0
2, 92670, Note_on_c, 0, 48, 64
2, 92673, Note_on_c, 0, 52, 77
2, 92673, Note_on_c, 0, 67, 79
2, 92716, Note_on_c, 0, 48, 0
2, 92767, Note_on_c, 0, 67, 0
2, 92778, Note_on_c, 0, 70, 77
2, 92803, Note_on_c, 0, 52, 0
2, 92875, Note_on_c, 0, 70, 0
2, 92885, Note_on_c, 0, 68, 82
2, 92896, Note_on_c, 0, 41, 71
2, 92904, Note_on_c, 0, 53, 76
2, 92942, Note_on_c, 0, 41, 0
2, 92948, Note_on_c, 0, 53, 0
2, 92986, Note_on_c, 0, 68, 0
2, 93016, Note_on_c, 0, 65, 78
2, 93116, Note_on_c, 0, 65, 0
2, 93128, Note_on_c, 0, 73, 81
2, 93129, Note_on_c, 0, 52, 81
2, 93138, Note_on_c, 0, 46, 77
2, 93164, Note_on_c, 0, 52, 0
2, 93193, Note_on_c, 0, 46, 0
2, 93224, Note_on_c, 0, 70, 86
2, 93224, Note_on_c, 0, 73, 0
2, 93315, Note_on_c, 0, 70, 0
2, 93340, Note_on_c, 0, 72, 84
2, 93349, Note_on_c, 0, 53, 83
2, 93355, Note_on_c, 0, 44, 74
2, 93389, Note_on_c, 0, 44, 0
2, 93395, Note_on_c, 0, 53, 0
2, 93401, Note_on_c, 0, 72, 0
2, 93447, Note_on_c, 0, 68, 89
2, 93539, Note_on_c, 0, 68, 0
2, 93564, Note_on_c, 0, 58, 85
2, 93568, Note_on_c, 0, 49, 67
2, 93569, Note_on_c, 0, 78, 82
2, 93596, Note_on_c, 0, 58, 0
2, 93607, Note_on_c, 0, 49, 0
2, 93629, Note_on_c, 0, 78, 0
2, 93667, Note_on_c, 0, 76, 84
2, 93724, Note_on_c, 0, 76, 0
2, 93798, Note_on_c, 0, 76, 92
2, 93804, Note_on_c, 0, 56, 87
2, 93807, Note_on_c, 0, 48, 71
2, 93911, Note_on_c, 0, 77, 92
2, 93926, Note_on_c, 0, 56, 0
2, 93939, Note_on_c, 0, 76, 0
2, 94025, Note_on_c, 0, 83, 92
2, 94037, Note_on_c, 0, 55, 75
2, 94044, Note_on_c, 0, 77, 0
2, 94122, Note_on_c, 0, 55, 0
2, 94122, Note_on_c, 0, 83, 0
2, 94127, Note_on_c, 0, 84, 87
2, 94141, Note_on_c, 0, 53, 69
2, 94201, Note_on_c, 0, 84, 0
2, 94261, Note_on_c, 0, 53, 0
2, 94262, Note_on_c, 0, 77, 82
2, 94266, Note_on_c, 0, 55, 73
2, 94313, Note_on_c, 0, 77, 0
2, 94330, Note_on_c, 0, 76, 77
2, 94376, Note_on_c, 0, 76, 0
2, 94387, Note_on_c, 0, 77, 79
2, 94427, Note_on_c, 0, 77, 0
2, 94446, Note_on_c, 0, 76, 66
2, 94476, Note_on_c, 0, 58, 73
2, 94477, Note_on_c, 0, 48, 0
2, 94477, Note_on_c, 0, 76, 0
2, 94492, Note_on_c, 0, 77, 74
2, 94510, Note_on_c, 0, 55, 0
2, 94523, Note_on_c, 0, 77, 0
2, 94531, Note_on_c, 0, 76, 78
2, 94599, Note_on_c, 0, 76, 0
2, 94628, Note_on_c, 0, 77, 79
2, 94684, Note_on_c, 0, 77, 0
2, 94705, Note_on_c, 0, 53, 42
2, 94707, Note_on_c, 0, 58, 0
2, 94724, Note_on_c, 0, 56, 55
2, 94753, Note_on_c, 0, 77, 85
2, 94867, Note_on_c, 0, 58, 66
2, 94871, Note_on_c, 0, 56, 0
2, 94939, Note_on_c, 0, 58, 0
2, 94966, Note_on_c, 0, 60, 68
2, 95008, Note_on_c, 0, 60, 0
2, 95057, Note_on_c, 0, 77, 0
2, 95069, Note_on_c, 0, 56, 57
2, 95110, Note_on_c, 0, 53, 0
2, 95145, Note_on_c, 0, 56, 0
2, 95159, Note_on_c, 0, 53, 53
2, 95257, Note_on_c, 0, 53, 0
2, 95277, Note_on_c, 0, 54, 60
2, 95385, Note_on_c, 0, 54, 0
2, 95399, Note_on_c, 0, 56, 63
2, 95400, Note_on_c, 0, 77, 68
2, 95434, Note_on_c, 0, 77, 0
2, 95473, Note_on_c, 0, 56, 0
2, 95496, Note_on_c, 0, 53, 61
2, 95586, Note_on_c, 0, 53, 0
2, 95611, Note_on_c, 0, 50, 60
2, 95620, Note_on_c, 0, 71, 67
2, 95690, Note_on_c, 0, 71, 0
2, 95700, Note_on_c, 0, 50, 0
2, 95715, Note_on_c, 0, 70, 69
2, 95720, Note_on_c, 0, 51, 64
2, 95795, Note_on_c, 0, 51, 0
2, 95812, Note_on_c, 0, 70, 0
2, 95822, Note_on_c, 0, 68, 69
2, 95828, Note_on_c, 0, 53, 63
2, 95871, Note_on_c, 0, 68, 0
2, 95908, Note_on_c, 0, 53, 0
2, 95924, Note_on_c, 0, 70, 65
2, 95935, Note_on_c, 0, 50, 51
2, 96036, Note_on_c, 0, 50, 0
2, 96052, Note_on_c, 0, 77, 73
2, 96060, Note_on_c, 0, 46, 66
2, 96071, Note_on_c, 0, 70, 0
2, 96091, Note_on_c, 0, 77, 0
2, 96160, Note_on_c, 0, 46, 0
2, 96180, Note_on_c, 0, 50, 51
2, 96282, Note_on_c, 0, 50, 0
2, 96289, Note_on_c, 0, 74, 69
2, 96300, Note_on_c, 0, 53, 59
2, 96319, Note_on_c, 0, 74, 0
2, 96375, Note_on_c, 0, 53, 0
2, 96407, Note_on_c, 0, 58, 62
2, 96478, Note_on_c, 0, 58, 0
2, 96510, Note_on_c, 0, 51, 66
2, 96512, Note_on_c, 0, 68, 69
2, 96600, Note_on_c, 0, 51, 0
2, 96620, Note_on_c, 0, 54, 56
2, 96717, Note_on_c, 0, 54, 0
2, 96727, Note_on_c, 0, 58, 63
2, 96727, Note_on_c, 0, 66, 66
2, 96743, Note_on_c, 0, 68, 0
2, 96809, Note_on_c, 0, 58, 0
2, 96818, Note_on_c, 0, 66, 0
2, 96826, Note_on_c, 0, 65, 69
2, 96836, Note_on_c, 0, 62, 64
2, 96922, Note_on_c, 0, 65, 0
2, 96933, Note_on_c, 0, 62, 0
2, 96950, Note_on_c, 0, 66, 72
2, 96981, Note_on_c, 0, 66, 0
2, 97067, Note_on_c, 0, 65, 63
2, 97142, Note_on_c, 0, 65, 0
2, 97164, Note_on_c, 0, 66, 60
2, 97167, Note_on_c, 0, 75, 69
2, 97230, Note_on_c, 0, 75, 0
2, 97233, Note_on_c, 0, 66, 0
2, 97285, Note_on_c, 0, 63, 56
2, 97382, Note_on_c, 0, 69, 68
2, 97387, Note_on_c, 0, 63, 0
2, 97391, Note_on_c, 0, 60, 63
2, 97442, Note_on_c, 0, 69, 0
2, 97484, Note_on_c, 0, 60, 0
2, 97484, Note_on_c, 0, 68, 73
2, 97501, Note_on_c, 0, 61, 64
2, 97567, Note_on_c, 0, 61, 0
2, 97578, Note_on_c, 0, 68, 0
2, 97594, Note_on_c, 0, 66, 73
2, 97603, Note_on_c, 0, 63, 67
2, 97669, Note_on_c, 0, 66, 0
2, 97673, Note_on_c, 0, 63, 0
2, 97706, Note_on_c, 0, 68, 73
2, 97724, Note_on_c, 0, 59, 50
2, 97750, Note_on_c, 0, 59, 0
2, 97811, Note_on_c, 0, 56, 73
2, 97812, Note_on_c, 0, 75, 78
2, 97822, Note_on_c, 0, 68, 0
2, 97865, Note_on_c, 0, 56, 0
2, 97876, Note_on_c, 0, 75, 0
2, 97907, Note_on_c, 0, 44, 58
2, 97999, Note_on_c, 0, 44, 0
2, 98007, Note_on_c, 0, 46, 52
2, 98036, Note_on_c, 0, 72, 69
2, 98067, Note_on_c, 0, 72, 0
2, 98097, Note_on_c, 0, 46, 0
2, 98109, Note_on_c, 0, 48, 62
2, 98170, Note_on_c, 0, 48, 0
2, 98231, Note_on_c, 0, 49, 58
2, 98250, Note_on_c, 0, 66, 63
2, 98333, Note_on_c, 0, 49, 0
2, 98347, Note_on_c, 0, 56, 61
2, 98437, Note_on_c, 0, 56, 0
2, 98455, Note_on_c, 0, 66, 0
2, 98467, Note_on_c, 0, 65, 55
2, 98472, Note_on_c, 0, 58, 64
2, 98540, Note_on_c, 0, 58, 0
2, 98567, Note_on_c, 0, 65, 0
2, 98571, Note_on_c, 0, 63, 63
2, 98584, Note_on_c, 0, 60, 61
2, 98637, Note_on_c, 0, 63, 0
2, 98681, Note_on_c, 0, 65, 71
2, 98727, Note_on_c, 0, 61, 58
2, 98736, Note_on_c, 0, 60, 0
2, 98776, Note_on_c, 0, 51, 65
2, 98786, Note_on_c, 0, 61, 0
2, 98787, Note_on_c, 0, 68, 75
2, 98867, Note_on_c, 0, 51, 0
2, 98868, Note_on_c, 0, 68, 0
2, 98877, Note_on_c, 0, 53, 56
2, 98892, Note_on_c, 0, 73, 80
2, 98913, Note_on_c, 0, 65, 0
2, 98985, Note_on_c, 0, 53, 0
2, 98999, Note_on_c, 0, 75, 85
2, 99007, Note_on_c, 0, 55, 51
2, 99030, Note_on_c, 0, 73, 0
2, 99064, Note_on_c, 0, 75, 0
2, 99102, Note_on_c, 0, 77, 89
2, 99105, Note_on_c, 0, 56, 73
2, 99109, Note_on_c, 0, 55, 0
2, 99188, Note_on_c, 0, 77, 0
2, 99213, Note_on_c, 0, 56, 0
2, 99221, Note_on_c, 0, 75, 85
2, 99229, Note_on_c, 0, 55, 68
2, 99326, Note_on_c, 0, 55, 0
2, 99331, Note_on_c, 0, 53, 69
2, 99331, Note_on_c, 0, 73, 86
2, 99341, Note_on_c, 0, 75, 0
2, 99432, Note_on_c, 0, 73, 0
2, 99432, Note_on_c, 0, 75, 84
2, 99435, Note_on_c, 0, 53, 0
2, 99440, Note_on_c, 0, 55, 67
2, 99549, Note_on_c, 0, 55, 0
2, 99552, Note_on_c, 0, 56, 75
2, 99555, Note_on_c, 0, 84, 96
2, 99563, Note_on_c, 0, 75, 0
2, 99564, Note_on_c, 0, 72, 90
2, 99607, Note_on_c, 0, 84, 0
2, 99636, Note_on_c, 0, 56, 0
2, 99660, Note_on_c, 0, 55, 73
2, 99787, Note_on_c, 0, 55, 0
2, 99792, Note_on_c, 0, 80, 86
2, 99798, Note_on_c, 0, 53, 69
2, 99827, Note_on_c, 0, 80, 0
2, 99902, Note_on_c, 0, 53, 0
2, 99913, Note_on_c, 0, 51, 67
2, 100046, Note_on_c, 0, 75, 89
2, 100047, Note_on_c, 0, 53, 79
2, 100050, Note_on_c, 0, 51, 0
2, 100271, Note_on_c, 0, 72, 0
2, 100291, Note_on_c, 0, 73, 76
2, 100326, Note_on_c, 0, 75, 0
2, 100360, Note_on_c, 0, 73, 0
2, 100382, Note_on_c, 0, 72, 81
2, 100457, Note_on_c, 0, 72, 0
2, 100505, Note_on_c, 0, 70, 74
2, 100506, Note_on_c, 0, 73, 77
2, 100539, Note_on_c, 0, 73, 0
2, 100595, Note_on_c, 0, 51, 59
2, 100642, Note_on_c, 0, 53, 0
2, 100726, Note_on_c, 0, 49, 52
2, 100730, Note_on_c, 0, 51, 0
2, 100730, Note_on_c, 0, 82, 79
2, 100809, Note_on_c, 0, 49, 0
2, 100811, Note_on_c, 0, 82, 0
2, 100846, Note_on_c, 0, 53, 59
2, 100949, Note_on_c, 0, 53, 0
2, 100961, Note_on_c, 0, 51, 67
2, 100962, Note_on_c, 0, 72, 80
2, 100977, Note_on_c, 0, 70, 0
2, 101011, Note_on_c, 0, 72, 0
2, 101062, Note_on_c, 0, 51, 0
2, 101063, Note_on_c, 0, 49, 60
2, 101163, Note_on_c, 0, 49, 0
2, 101194, Note_on_c, 0, 48, 22
2, 101202, Note_on_c, 0, 80, 65
2, 101205, Note_on_c, 0, 68, 76
2, 101267, Note_on_c, 0, 68, 0
2, 101279, Note_on_c, 0, 48, 0
2, 101286, Note_on_c, 0, 51, 61
2, 101309, Note_on_c, 0, 80, 0
2, 101386, Note_on_c, 0, 51, 0
2, 101407, Note_on_c, 0, 49, 63
2, 101418, Note_on_c, 0, 70, 71
2, 101457, Note_on_c, 0, 67, 14
2, 101478, Note_on_c, 0, 70, 0
2, 101501, Note_on_c, 0, 67, 0
2, 101509, Note_on_c, 0, 49, 0
2, 101553, Note_on_c, 0, 48, 27
2, 101629, Note_on_c, 0, 48, 0
2, 101643, Note_on_c, 0, 46, 62
2, 101659, Note_on_c, 0, 79, 68
2, 101665, Note_on_c, 0, 70, 65
2, 101686, Note_on_c, 0, 79, 0
2, 101693, Note_on_c, 0, 70, 0
2, 101775, Note_on_c, 0, 46, 0
2, 101776, Note_on_c, 0, 49, 51
2, 101883, Note_on_c, 0, 48, 56
2, 101893, Note_on_c, 0, 49, 0
2, 101897, Note_on_c, 0, 68, 66
2, 101909, Note_on_c, 0, 48, 0
2, 101941, Note_on_c, 0, 68, 0
2, 101986, Note_on_c, 0, 63, 59
2, 102060, Note_on_c, 0, 63, 0
2, 102106, Note_on_c, 0, 51, 73
2, 102112, Note_on_c, 0, 65, 54
2, 102136, Note_on_c, 0, 51, 0
2, 102186, Note_on_c, 0, 65, 0
2, 102206, Note_on_c, 0, 67, 56
2, 102289, Note_on_c, 0, 67, 0
2, 102327, Note_on_c, 0, 68, 60
2, 102337, Note_on_c, 0, 54, 84
2, 102423, Note_on_c, 0, 68, 0
2, 102445, Note_on_c, 0, 70, 58
2, 102556, Note_on_c, 0, 70, 0
2, 102563, Note_on_c, 0, 56, 71
2, 102566, Note_on_c, 0, 72, 60
2, 102609, Note_on_c, 0, 72, 0
2, 102623, Note_on_c, 0, 56, 0
2, 102674, Note_on_c, 0, 68, 53
2, 102792, Note_on_c, 0, 58, 73
2, 102803, Note_on_c, 0, 68, 0
2, 102806, Note_on_c, 0, 73, 65
2, 102858, Note_on_c, 0, 58, 0
2, 102876, Note_on_c, 0, 56, 74
2, 102876, Note_on_c, 0, 73, 0
2, 102884, Note_on_c, 0, 54, 0
2, 102906, Note_on_c, 0, 72, 64
2, 102986, Note_on_c, 0, 56, 0
2, 103001, Note_on_c, 0, 54, 77
2, 103004, Note_on_c, 0, 72, 0
2, 103015, Note_on_c, 0, 70, 72
2, 103089, Note_on_c, 0, 70, 0
2, 103102, Note_on_c, 0, 56, 78
2, 103103, Note_on_c, 0, 54, 0
2, 103119, Note_on_c, 0, 72, 75
2, 103208, Note_on_c, 0, 56, 0
2, 103225, Note_on_c, 0, 53, 75
2, 103233, Note_on_c, 0, 72, 0
2, 103235, Note_on_c, 0, 65, 77
2, 103242, Note_on_c, 0, 73, 75
2, 103270, Note_on_c, 0, 65, 0
2, 103301, Note_on_c, 0, 73, 0
2, 103341, Note_on_c, 0, 72, 75
2, 103441, Note_on_c, 0, 72, 0
2, 103460, Note_on_c, 0, 70, 66
2, 103474, Note_on_c, 0, 61, 73
2, 103501, Note_on_c, 0, 61, 0
2, 103526, Note_on_c, 0, 70, 0
2, 103563, Note_on_c, 0, 68, 72
2, 103693, Note_on_c, 0, 70, 70
2, 103695, Note_on_c, 0, 68, 0
2, 103700, Note_on_c, 0, 56, 74
2, 103931, Note_on_c, 0, 53, 0
2, 103957, Note_on_c, 0, 54, 65
2, 104010, Note_on_c, 0, 56, 0
2, 104046, Note_on_c, 0, 54, 0
2, 104064, Note_on_c, 0, 53, 61
2, 104170, Note_on_c, 0, 53, 0
2, 104182, Note_on_c, 0, 51, 74
2, 104184, Note_on_c, 0, 54, 68
2, 104222, Note_on_c, 0, 54, 0
2, 104287, Note_on_c, 0, 68, 61
2, 104384, Note_on_c, 0, 70, 0
2, 104407, Note_on_c, 0, 66, 69
2, 104411, Note_on_c, 0, 68, 0
2, 104412, Note_on_c, 0, 63, 69
2, 104444, Note_on_c, 0, 63, 0
2, 104532, Note_on_c, 0, 66, 0
2, 104532, Note_on_c, 0, 70, 68
2, 104586, Note_on_c, 0, 51, 0
2, 104612, Note_on_c, 0, 70, 0
2, 104652, Note_on_c, 0, 53, 71
2, 104653, Note_on_c, 0, 68, 70
2, 104688, Note_on_c, 0, 53, 0
2, 104746, Note_on_c, 0, 68, 0
2, 104753, Note_on_c, 0, 66, 68
2, 104832, Note_on_c, 0, 66, 0
2, 104866, Note_on_c, 0, 65, 68
2, 104875, Note_on_c, 0, 49, 63
2, 104881, Note_on_c, 0, 61, 56
2, 104929, Note_on_c, 0, 61, 0
2, 104969, Note_on_c, 0, 68, 68
2, 104979, Note_on_c, 0, 65, 0
2, 105041, Note_on_c, 0, 49, 0
2, 105052, Note_on_c, 0, 68, 0
2, 105083, Note_on_c, 0, 66, 66
2, 105088, Note_on_c, 0, 51, 69
2, 105124, Note_on_c, 0, 51, 0
2, 105161, Note_on_c, 0, 66, 0
2, 105181, Note_on_c, 0, 65, 67
2, 105259, Note_on_c, 0, 65, 0
2, 105318, Note_on_c, 0, 63, 60
2, 105320, Note_on_c, 0, 44, 55
2, 105330, Note_on_c, 0, 60, 48
2, 105364, Note_on_c, 0, 60, 0
2, 105405, Note_on_c, 0, 63, 0
2, 105416, Note_on_c, 0, 66, 63
2, 105468, Note_on_c, 0, 44, 0
2, 105488, Note_on_c, 0, 66, 0
2, 105537, Note_on_c, 0, 65, 69
2, 105542, Note_on_c, 0, 49, 47
2, 105545, Note_on_c, 0, 61, 59
2, 105587, Note_on_c, 0, 65, 0
2, 105640, Note_on_c, 0, 49, 0
2, 105663, Note_on_c, 0, 51, 62
2, 105739, Note_on_c, 0, 51, 0
2, 105764, Note_on_c, 0, 53, 60
2, 105768, Note_on_c, 0, 68, 63
2, 105801, Note_on_c, 0, 68, 0
2, 105857, Note_on_c, 0, 53, 0
2, 105881, Note_on_c, 0, 54, 59
2, 105953, Note_on_c, 0, 54, 0
2, 105993, Note_on_c, 0, 73, 71
2, 105997, Note_on_c, 0, 53, 51
2, 106031, Note_on_c, 0, 61, 0
2, 106098, Note_on_c, 0, 53, 0
2, 106104, Note_on_c, 0, 51, 63
2, 106110, Note_on_c, 0, 73, 0
2, 106210, Note_on_c, 0, 49, 52
2, 106235, Note_on_c, 0, 80, 69
2, 106244, Note_on_c, 0, 51, 0
2, 106293, Note_on_c, 0, 49, 0
2, 106315, Note_on_c, 0, 80, 0
2, 106317, Note_on_c, 0, 53, 58
2, 106341, Note_on_c, 0, 77, 69
2, 106406, Note_on_c, 0, 53, 0
2, 106415, Note_on_c, 0, 77, 0
2, 106446, Note_on_c, 0, 73, 75
2, 106447, Note_on_c, 0, 58, 72
2, 106540, Note_on_c, 0, 58, 0
2, 106546, Note_on_c, 0, 56, 64
2, 106660, Note_on_c, 0, 55, 63
2, 106663, Note_on_c, 0, 56, 0
2, 106668, Note_on_c, 0, 76, 78
2, 106676, Note_on_c, 0, 73, 0
2, 106765, Note_on_c, 0, 55, 0
2, 106766, Note_on_c, 0, 73, 82
2, 106770, Note_on_c, 0, 58, 74
2, 106777, Note_on_c, 0, 76, 0
2, 106878, Note_on_c, 0, 58, 0
2, 106886, Note_on_c, 0, 61, 85
2, 106886, Note_on_c, 0, 73, 0
2, 106887, Note_on_c, 0, 70, 88
2, 106970, Note_on_c, 0, 61, 0
2, 106986, Note_on_c, 0, 59, 64
2, 107069, Note_on_c, 0, 59, 0
2, 107071, Note_on_c, 0, 58, 69
2, 107103, Note_on_c, 0, 58, 0
2, 107144, Note_on_c, 0, 73, 77
2, 107150, Note_on_c, 0, 70, 0
2, 107184, Note_on_c, 0, 61, 72
2, 107245, Note_on_c, 0, 70, 80
2, 107247, Note_on_c, 0, 73, 0
2, 107251, Note_on_c, 0, 63, 75
2, 107253, Note_on_c, 0, 61, 0
2, 107336, Note_on_c, 0, 64, 90
2, 107339, Note_on_c, 0, 67, 81
2, 107345, Note_on_c, 0, 63, 0
2, 107348, Note_on_c, 0, 70, 0
2, 107567, Note_on_c, 0, 63, 71
2, 107571, Note_on_c, 0, 64, 0
2, 107573, Note_on_c, 0, 70, 81
2, 107647, Note_on_c, 0, 70, 0
2, 107673, Note_on_c, 0, 61, 74
2, 107674, Note_on_c, 0, 73, 82
2, 107681, Note_on_c, 0, 63, 0
2, 107746, Note_on_c, 0, 73, 0
2, 107752, Note_on_c, 0, 61, 0
2, 107783, Note_on_c, 0, 59, 81
2, 107795, Note_on_c, 0, 76, 87
2, 107832, Note_on_c, 0, 76, 0
2, 107882, Note_on_c, 0, 59, 0
2, 107891, Note_on_c, 0, 58, 77
2, 107996, Note_on_c, 0, 58, 0
2, 108011, Note_on_c, 0, 56, 76
2, 108018, Note_on_c, 0, 73, 83
2, 108027, Note_on_c, 0, 67, 0
2, 108059, Note_on_c, 0, 73, 0
2, 108115, Note_on_c, 0, 55, 72
2, 108121, Note_on_c, 0, 56, 0
2, 108241, Note_on_c, 0, 56, 79
2, 108245, Note_on_c, 0, 71, 91
2, 108247, Note_on_c, 0, 55, 0
2, 108247, Note_on_c, 0, 75, 86
2, 108299, Note_on_c, 0, 75, 0
2, 108326, Note_on_c, 0, 56, 0
2, 108343, Note_on_c, 0, 59, 70
2, 108470, Note_on_c, 0, 59, 0
2, 108471, Note_on_c, 0, 58, 78
2, 108484, Note_on_c, 0, 80, 85
2, 108500, Note_on_c, 0, 71, 0
2, 108541, Note_on_c, 0, 80, 0
2, 108572, Note_on_c, 0, 56, 80
2, 108590, Note_on_c, 0, 58, 0
2, 108656, Note_on_c, 0, 56, 0
2, 108688, Note_on_c, 0, 55, 83
2, 108705, Note_on_c, 0, 73, 84
2, 108708, Note_on_c, 0, 70, 83
2, 108743, Note_on_c, 0, 70, 0
2, 108754, Note_on_c, 0, 73, 0
2, 108794, Note_on_c, 0, 52, 73
2, 108803, Note_on_c, 0, 55, 0
2, 108908, Note_on_c, 0, 51, 82
2, 108923, Note_on_c, 0, 79, 90
2, 108928, Note_on_c, 0, 52, 0
2, 108964, Note_on_c, 0, 79, 0
2, 109013, Note_on_c, 0, 49, 75
2, 109032, Note_on_c, 0, 51, 0
2, 109138, Note_on_c, 0, 47, 85
2, 109140, Note_on_c, 0, 49, 0
2, 109142, Note_on_c, 0, 68, 93
2, 109200, Note_on_c, 0, 68, 0
2, 109238, Note_on_c, 0, 49, 82
2, 109244, Note_on_c, 0, 47, 0
2, 109325, Note_on_c, 0, 49, 0
2, 109351, Note_on_c, 0, 51, 94
2, 109360, Note_on_c, 0, 80, 84
2, 109433, Note_on_c, 0, 51, 0
2, 109437, Note_on_c, 0, 80, 0
2, 109441, Note_on_c, 0, 47, 73
2, 109452, Note_on_c, 0, 79, 89
2, 109549, Note_on_c, 0, 79, 0
2, 109557, Note_on_c, 0, 47, 0
2, 109562, Note_on_c, 0, 44, 88
2, 109573, Note_on_c, 0, 80, 92
2, 109590, Note_on_c, 0, 44, 0
2, 109685, Note_on_c, 0, 82, 80
2, 109727, Note_on_c, 0, 80, 0
2, 109796, Note_on_c, 0, 83, 81
2, 109797, Note_on_c, 0, 56, 69
2, 109803, Note_on_c, 0, 82, 0
2, 109868, Note_on_c, 0, 56, 0
2, 109886, Note_on_c, 0, 53, 69
2, 109889, Note_on_c, 0, 80, 74
2, 109892, Note_on_c, 0, 83, 0
2, 109982, Note_on_c, 0, 80, 0
2, 109999, Note_on_c, 0, 49, 72
2, 110004, Note_on_c, 0, 53, 0
2, 110010, Note_on_c, 0, 77, 78
2, 110024, Note_on_c, 0, 49, 0
2, 110082, Note_on_c, 0, 77, 0
2, 110115, Note_on_c, 0, 78, 73
2, 110228, Note_on_c, 0, 59, 75
2, 110230, Note_on_c, 0, 80, 74
2, 110244, Note_on_c, 0, 78, 0
2, 110314, Note_on_c, 0, 80, 0
2, 110318, Note_on_c, 0, 77, 74
2, 110319, Note_on_c, 0, 56, 73
2, 110332, Note_on_c, 0, 59, 0
2, 110409, Note_on_c, 0, 77, 0
2, 110433, Note_on_c, 0, 53, 77
2, 110439, Note_on_c, 0, 73, 72
2, 110444, Note_on_c, 0, 56, 0
2, 110461, Note_on_c, 0, 53, 0
2, 110525, Note_on_c, 0, 73, 0
2, 110547, Note_on_c, 0, 75, 71
2, 110661, Note_on_c, 0, 49, 58
2, 110665, Note_on_c, 0, 75, 0
2, 110685, Note_on_c, 0, 77, 68
2, 110738, Note_on_c, 0, 49, 0
2, 110758, Note_on_c, 0, 46, 59
2, 110777, Note_on_c, 0, 77, 0
2, 110786, Note_on_c, 0, 73, 64
2, 110856, Note_on_c, 0, 73, 0
2, 110873, Note_on_c, 0, 42, 69
2, 110882, Note_on_c, 0, 46, 0
2, 110895, Note_on_c, 0, 70, 58
2, 110903, Note_on_c, 0, 42, 0
2, 110941, Note_on_c, 0, 70, 0
2, 110995, Note_on_c, 0, 72, 67
2, 111112, Note_on_c, 0, 58, 79
2, 111113, Note_on_c, 0, 72, 0
2, 111114, Note_on_c, 0, 73, 70
2, 111180, Note_on_c, 0, 73, 0
2, 111200, Note_on_c, 0, 54, 72
2, 111215, Note_on_c, 0, 70, 77
2, 111274, Note_on_c, 0, 58, 0
2, 111307, Note_on_c, 0, 51, 76
2, 111319, Note_on_c, 0, 70, 0
2, 111331, Note_on_c, 0, 54, 0
2, 111332, Note_on_c, 0, 78, 76
2, 111342, Note_on_c, 0, 51, 0
2, 111407, Note_on_c, 0, 78, 0
2, 111449, Note_on_c, 0, 80, 69
2, 111557, Note_on_c, 0, 54, 55
2, 111573, Note_on_c, 0, 82, 69
2, 111575, Note_on_c, 0, 80, 0
2, 111605, Note_on_c, 0, 54, 0
2, 111630, Note_on_c, 0, 51, 60
2, 111662, Note_on_c, 0, 82, 0
2, 111667, Note_on_c, 0, 78, 68
2, 111748, Note_on_c, 0, 78, 0
2, 111752, Note_on_c, 0, 48, 56
2, 111757, Note_on_c, 0, 51, 0
2, 111776, Note_on_c, 0, 75, 68
2, 111779, Note_on_c, 0, 48, 0
2, 111861, Note_on_c, 0, 75, 0
2, 111883, Note_on_c, 0, 77, 66
2, 111986, Note_on_c, 0, 58, 78
2, 112001, Note_on_c, 0, 78, 71
2, 112010, Note_on_c, 0, 77, 0
2, 112081, Note_on_c, 0, 54, 73
2, 112097, Note_on_c, 0, 75, 73
2, 112105, Note_on_c, 0, 78, 0
2, 112136, Note_on_c, 0, 58, 0
2, 112191, Note_on_c, 0, 75, 0
2, 112194, Note_on_c, 0, 51, 72
2, 112222, Note_on_c, 0, 54, 0
2, 112225, Note_on_c, 0, 72, 63
2, 112229, Note_on_c, 0, 51, 0
2, 112267, Note_on_c, 0, 72, 0
2, 112310, Note_on_c, 0, 73, 63
2, 112425, Note_on_c, 0, 73, 0
2, 112439, Note_on_c, 0, 75, 60
2, 112450, Note_on_c, 0, 48, 45
2, 112509, Note_on_c, 0, 75, 0
2, 112512, Note_on_c, 0, 48, 0
2, 112527, Note_on_c, 0, 44, 53
2, 112542, Note_on_c, 0, 72, 51
2, 112609, Note_on_c, 0, 72, 0
2, 112640, Note_on_c, 0, 41, 65
2, 112648, Note_on_c, 0, 44, 0
2, 112648, Note_on_c, 0, 68, 56
2, 112671, Note_on_c, 0, 41, 0
2, 112726, Note_on_c, 0, 68, 0
2, 112756, Note_on_c, 0, 70, 55
2, 112852, Note_on_c, 0, 70, 0
2, 112870, Note_on_c, 0, 72, 62
2, 112871, Note_on_c, 0, 56, 70
2, 112933, Note_on_c, 0, 72, 0
2, 112961, Note_on_c, 0, 53, 69
2, 112986, Note_on_c, 0, 68, 77
2, 113006, Note_on_c, 0, 56, 0
2, 113081, Note_on_c, 0, 50, 74
2, 113084, Note_on_c, 0, 68, 0
2, 113099, Note_on_c, 0, 53, 0
2, 113108, Note_on_c, 0, 77, 68
2, 113110, Note_on_c, 0, 50, 0
2, 113188, Note_on_c, 0, 77, 0
2, 113210, Note_on_c, 0, 78, 70
2, 113316, Note_on_c, 0, 53, 64
2, 113328, Note_on_c, 0, 80, 66
2, 113331, Note_on_c, 0, 78, 0
2, 113401, Note_on_c, 0, 53, 0
2, 113417, Note_on_c, 0, 80, 0
2, 113423, Note_on_c, 0, 50, 53
2, 113426, Note_on_c, 0, 77, 70
2, 113529, Note_on_c, 0, 77, 0
2, 113539, Note_on_c, 0, 46, 57
2, 113541, Note_on_c, 0, 50, 0
2, 113552, Note_on_c, 0, 74, 68
2, 113564, Note_on_c, 0, 46, 0
2, 113604, Note_on_c, 0, 74, 0
2, 113645, Note_on_c, 0, 75, 70
2, 113769, Note_on_c, 0, 56, 67
2, 113776, Note_on_c, 0, 77, 71
2, 113778, Note_on_c, 0, 75, 0
2, 113858, Note_on_c, 0, 53, 64
2, 113866, Note_on_c, 0, 56, 0
2, 113871, Note_on_c, 0, 74, 68
2, 113876, Note_on_c, 0, 77, 0
2, 113954, Note_on_c, 0, 74, 0
2, 113978, Note_on_c, 0, 50, 67
2, 113989, Note_on_c, 0, 70, 66
2, 113991, Note_on_c, 0, 53, 0
2, 114005, Note_on_c, 0, 50, 0
2, 114046, Note_on_c, 0, 70, 0
2, 114086, Note_on_c, 0, 72, 67
2, 114190, Note_on_c, 0, 72, 0
2, 114202, Note_on_c, 0, 74, 64
2, 114212, Note_on_c, 0, 46, 56
2, 114258, Note_on_c, 0, 46, 0
2, 114278, Note_on_c, 0, 74, 0
2, 114289, Note_on_c, 0, 42, 56
2, 114308, Note_on_c, 0, 70, 58
2, 114389, Note_on_c, 0, 70, 0
2, 114413, Note_on_c, 0, 42, 0
2, 114416, Note_on_c, 0, 39, 59
2, 114420, Note_on_c, 0, 66, 55
2, 114447, Note_on_c, 0, 39, 0
2, 114465, Note_on_c, 0, 66, 0
2, 114523, Note_on_c, 0, 68, 60
2, 114608, Note_on_c, 0, 68, 0
2, 114634, Note_on_c, 0, 70, 55
2, 114644, Note_on_c, 0, 54, 70
2, 114680, Note_on_c, 0, 70, 0
2, 114725, Note_on_c, 0, 66, 63
2, 114738, Note_on_c, 0, 51, 72
2, 114825, Note_on_c, 0, 54, 0
2, 114827, Note_on_c, 0, 66, 0
2, 114841, Note_on_c, 0, 48, 71
2, 114847, Note_on_c, 0, 75, 62
2, 114856, Note_on_c, 0, 51, 0
2, 114868, Note_on_c, 0, 48, 0
2, 114933, Note_on_c, 0, 75, 0
2, 114940, Note_on_c, 0, 77, 68
2, 115058, Note_on_c, 0, 51, 65
2, 115064, Note_on_c, 0, 77, 0
2, 115065, Note_on_c, 0, 78, 66
2, 115148, Note_on_c, 0, 51, 0
2, 115155, Note_on_c, 0, 48, 56
2, 115161, Note_on_c, 0, 75, 66
2, 115179, Note_on_c, 0, 78, 0
2, 115248, Note_on_c, 0, 75, 0
2, 115265, Note_on_c, 0, 72, 59
2, 115282, Note_on_c, 0, 44, 63
2, 115286, Note_on_c, 0, 48, 0
2, 115311, Note_on_c, 0, 44, 0
2, 115329, Note_on_c, 0, 72, 0
2, 115370, Note_on_c, 0, 73, 64
2, 115504, Note_on_c, 0, 54, 66
2, 115505, Note_on_c, 0, 73, 0
2, 115508, Note_on_c, 0, 75, 64
2, 115595, Note_on_c, 0, 75, 0
2, 115598, Note_on_c, 0, 51, 64
2, 115601, Note_on_c, 0, 72, 60
2, 115603, Note_on_c, 0, 54, 0
2, 115678, Note_on_c, 0, 72, 0
2, 115711, Note_on_c, 0, 68, 64
2, 115712, Note_on_c, 0, 48, 65
2, 115718, Note_on_c, 0, 51, 0
2, 115744, Note_on_c, 0, 48, 0
2, 115781, Note_on_c, 0, 68, 0
2, 115813, Note_on_c, 0, 70, 58
2, 115914, Note_on_c, 0, 70, 0
2, 115948, Note_on_c, 0, 44, 53
2, 115950, Note_on_c, 0, 72, 52
2, 116000, Note_on_c, 0, 44, 0
2, 116017, Note_on_c, 0, 41, 51
2, 116028, Note_on_c, 0, 72, 0
2, 116058, Note_on_c, 0, 68, 53
2, 116121, Note_on_c, 0, 41, 0
2, 116153, Note_on_c, 0, 68, 0
2, 116165, Note_on_c, 0, 37, 42
2, 116185, Note_on_c, 0, 65, 45
2, 116262, Note_on_c, 0, 65, 0
2, 116289, Note_on_c, 0, 66, 46
2, 116347, Note_on_c, 0, 66, 0
2, 116388, Note_on_c, 0, 68, 57
2, 116449, Note_on_c, 0, 68, 0
2, 116486, Note_on_c, 0, 65, 56
2, 116585, Note_on_c, 0, 37, 0
2, 116597, Note_on_c, 0, 65, 0
2, 116603, Note_on_c, 0, 61, 56
2, 116687, Note_on_c, 0, 61, 0
2, 116713, Note_on_c, 0, 65, 52
2, 116759, Note_on_c, 0, 65, 0
2, 116823, Note_on_c, 0, 68, 61
2, 116880, Note_on_c, 0, 68, 0
2, 116926, Note_on_c, 0, 70, 65
2, 117000, Note_on_c, 0, 70, 0
2, 117043, Note_on_c, 0, 71, 68
2, 117099, Note_on_c, 0, 71, 0
2, 117140, Note_on_c, 0, 70, 68
2, 117226, Note_on_c, 0, 70, 0
2, 117249, Note_on_c, 0, 68, 67
2, 117252, Note_on_c, 0, 59, 45
2, 117287, Note_on_c, 0, 59, 0
2, 117302, Note_on_c, 0, 68, 0
2, 117345, Note_on_c, 0, 49, 45
2, 117353, Note_on_c, 0, 70, 56
2, 117443, Note_on_c, 0, 49, 0
2, 117469, Note_on_c, 0, 70, 0
2, 117471, Note_on_c, 0, 78, 70
2, 117473, Note_on_c, 0, 58, 60
2, 117508, Note_on_c, 0, 78, 0
2, 117510, Note_on_c, 0, 58, 0
2, 117571, Note_on_c, 0, 49, 50
2, 117671, Note_on_c, 0, 49, 0
2, 117707, Note_on_c, 0, 73, 63
2, 117711, Note_on_c, 0, 56, 58
2, 117737, Note_on_c, 0, 73, 0
2, 117792, Note_on_c, 0, 56, 0
2, 117810, Note_on_c, 0, 49, 50
2, 117914, Note_on_c, 0, 49, 0
2, 117926, Note_on_c, 0, 70, 75
2, 117939, Note_on_c, 0, 54, 59
2, 118036, Note_on_c, 0, 54, 0
2, 118043, Note_on_c, 0, 49, 56
2, 118119, Note_on_c, 0, 49, 0
2, 118141, Note_on_c, 0, 68, 63
2, 118142, Note_on_c, 0, 53, 72
2, 118196, Note_on_c, 0, 70, 0
2, 118208, Note_on_c, 0, 53, 0
2, 118232, Note_on_c, 0, 66, 64
2, 118233, Note_on_c, 0, 68, 0
2, 118267, Note_on_c, 0, 51, 52
2, 118325, Note_on_c, 0, 51, 0
2, 118332, Note_on_c, 0, 66, 0
2, 118358, Note_on_c, 0, 53, 68
2, 118360, Note_on_c, 0, 68, 75
2, 118388, Note_on_c, 0, 53, 0
2, 118437, Note_on_c, 0, 68, 0
2, 118471, Note_on_c, 0, 61, 64
2, 118544, Note_on_c, 0, 61, 0
2, 118580, Note_on_c, 0, 44, 64
2, 118580, Note_on_c, 0, 65, 59
2, 118608, Note_on_c, 0, 44, 0
2, 118630, Note_on_c, 0, 65, 0
2, 118676, Note_on_c, 0, 68, 68
2, 118749, Note_on_c, 0, 68, 0
2, 118783, Note_on_c, 0, 70, 76
2, 118864, Note_on_c, 0, 70, 0
2, 118884, Note_on_c, 0, 68, 75
2, 118988, Note_on_c, 0, 58, 58
2, 118991, Note_on_c, 0, 66, 71
2, 118992, Note_on_c, 0, 68, 0
2, 119036, Note_on_c, 0, 58, 0
2, 119052, Note_on_c, 0, 66, 0
2, 119089, Note_on_c, 0, 49, 52
2, 119091, Note_on_c, 0, 68, 72
2, 119191, Note_on_c, 0, 49, 0
2, 119216, Note_on_c, 0, 56, 66
2, 119217, Note_on_c, 0, 68, 0
2, 119220, Note_on_c, 0, 77, 73
2, 119252, Note_on_c, 0, 77, 0
2, 119280, Note_on_c, 0, 56, 0
2, 119314, Note_on_c, 0, 49, 58
2, 119418, Note_on_c, 0, 49, 0
2, 119443, Note_on_c, 0, 73, 69
2, 119445, Note_on_c, 0, 54, 60
2, 119470, Note_on_c, 0, 73, 0
2, 119532, Note_on_c, 0, 49, 62
2, 119564, Note_on_c, 0, 54, 0
2, 119638, Note_on_c, 0, 49, 0
2, 119656, Note_on_c, 0, 53, 54
2, 119663, Note_on_c, 0, 68, 73
2, 119705, Note_on_c, 0, 53, 0
2, 119757, Note_on_c, 0, 49, 60
2, 119842, Note_on_c, 0, 49, 0
2, 119864, Note_on_c, 0, 51, 71
2, 119875, Note_on_c, 0, 66, 70
2, 119906, Note_on_c, 0, 68, 0
2, 119951, Note_on_c, 0, 51, 0
2, 119959, Note_on_c, 0, 66, 0
2, 119975, Note_on_c, 0, 65, 69
2, 119988, Note_on_c, 0, 49, 56
2, 120049, Note_on_c, 0, 65, 0
2, 120081, Note_on_c, 0, 49, 0
2, 120085, Note_on_c, 0, 66, 71
2, 120098, Note_on_c, 0, 51, 72
2, 120125, Note_on_c, 0, 51, 0
2, 120152, Note_on_c, 0, 66, 0
2, 120182, Note_on_c, 0, 60, 69
2, 120262, Note_on_c, 0, 60, 0
2, 120301, Note_on_c, 0, 63, 73
2, 120314, Note_on_c, 0, 44, 67
2, 120345, Note_on_c, 0, 44, 0
2, 120367, Note_on_c, 0, 63, 0
2, 120405, Note_on_c, 0, 66, 75
2, 120470, Note_on_c, 0, 66, 0
2, 120512, Note_on_c, 0, 68, 78
2, 120578, Note_on_c, 0, 68, 0
2, 120613, Note_on_c, 0, 66, 72
2, 120718, Note_on_c, 0, 66, 0
2, 120733, Note_on_c, 0, 65, 74
2, 120744, Note_on_c, 0, 56, 67
2, 120794, Note_on_c, 0, 65, 0
2, 120810, Note_on_c, 0, 56, 0
2, 120832, Note_on_c, 0, 66, 75
2, 120847, Note_on_c, 0, 44, 65
2, 120936, Note_on_c, 0, 44, 0
2, 120947, Note_on_c, 0, 75, 88
2, 120956, Note_on_c, 0, 66, 0
2, 120960, Note_on_c, 0, 54, 68
2, 121003, Note_on_c, 0, 75, 0
2, 121037, Note_on_c, 0, 54, 0
2, 121053, Note_on_c, 0, 44, 67
2, 121159, Note_on_c, 0, 44, 0
2, 121170, Note_on_c, 0, 53, 69
2, 121180, Note_on_c, 0, 72, 79
2, 121202, Note_on_c, 0, 72, 0
2, 121268, Note_on_c, 0, 53, 0
2, 121289, Note_on_c, 0, 44, 69
2, 121383, Note_on_c, 0, 51, 72
2, 121386, Note_on_c, 0, 44, 0
2, 121397, Note_on_c, 0, 66, 80
2, 121499, Note_on_c, 0, 51, 0
2, 121506, Note_on_c, 0, 44, 67
2, 121624, Note_on_c, 0, 65, 74
2, 121624, Note_on_c, 0, 66, 0
2, 121632, Note_on_c, 0, 49, 65
2, 121644, Note_on_c, 0, 44, 0
2, 121729, Note_on_c, 0, 49, 0
2, 121730, Note_on_c, 0, 63, 75
2, 121733, Note_on_c, 0, 65, 0
2, 121746, Note_on_c, 0, 48, 55
2, 121812, Note_on_c, 0, 63, 0
2, 121833, Note_on_c, 0, 48, 0
2, 121839, Note_on_c, 0, 49, 70
2, 121843, Note_on_c, 0, 65, 77
2, 121929, Note_on_c, 0, 49, 0
2, 121938, Note_on_c, 0, 65, 0
2, 121943, Note_on_c, 0, 67, 65
2, 121945, Note_on_c, 0, 44, 69
2, 122030, Note_on_c, 0, 67, 0
2, 122045, Note_on_c, 0, 70, 76
2, 122054, Note_on_c, 0, 53, 73
2, 122107, Note_on_c, 0, 70, 0
2, 122108, Note_on_c, 0, 44, 0
2, 122133, Note_on_c, 0, 53, 0
2, 122142, Note_on_c, 0, 72, 82
2, 122157, Note_on_c, 0, 51, 75
2, 122257, Note_on_c, 0, 73, 81
2, 122268, Note_on_c, 0, 53, 74
2, 122274, Note_on_c, 0, 51, 0
2, 122284, Note_on_c, 0, 72, 0
2, 122333, Note_on_c, 0, 73, 0
2, 122347, Note_on_c, 0, 53, 0
2, 122357, Note_on_c, 0, 75, 84
2, 122362, Note_on_c, 0, 44, 80
2, 122448, Note_on_c, 0, 75, 0
2, 122461, Note_on_c, 0, 77, 85
2, 122465, Note_on_c, 0, 44, 0
2, 122485, Note_on_c, 0, 56, 77
2, 122528, Note_on_c, 0, 77, 0
2, 122562, Note_on_c, 0, 56, 0
2, 122566, Note_on_c, 0, 54, 71
2, 122570, Note_on_c, 0, 75, 83
2, 122656, Note_on_c, 0, 54, 0
2, 122671, Note_on_c, 0, 56, 90
2, 122675, Note_on_c, 0, 75, 0
2, 122675, Note_on_c, 0, 78, 84
2, 122742, Note_on_c, 0, 78, 0
2, 122760, Note_on_c, 0, 56, 0
2, 122776, Note_on_c, 0, 77, 89
2, 122779, Note_on_c, 0, 44, 80
2, 122861, Note_on_c, 0, 77, 0
2, 122881, Note_on_c, 0, 75, 87
2, 122882, Note_on_c, 0, 44, 0
2, 122884, Control_c, 0, 64, 56
2, 122885, Note_on_c, 0, 58, 81
2, 122900, Control_c, 0, 64, 66
2, 122914, Control_c, 0, 64, 75
2, 122929, Control_c, 0, 64, 96
2, 122945, Control_c, 0, 64, 127
2, 122967, Note_on_c, 0, 75, 0
2, 122987, Note_on_c, 0, 73, 84
2, 122990, Note_on_c, 0, 44, 82
2, 122993, Note_on_c, 0, 58, 0
2, 123024, Note_on_c, 0, 44, 0
2, 123027, Note_on_c, 0, 73, 0
2, 123117, Note_on_c, 0, 79, 80
2, 123118, Control_c, 0, 64, 104
2, 123125, Note_on_c, 0, 60, 72
2, 123133, Control_c, 0, 64, 84
2, 123149, Control_c, 0, 64, 72
2, 123164, Control_c, 0, 64, 63
2, 123180, Control_c, 0, 64, 56
2, 123194, Control_c, 0, 64, 52
2, 123209, Control_c, 0, 64, 50
2, 123212, Note_on_c, 0, 79, 0
2, 123216, Note_on_c, 0, 80, 75
2, 123231, Note_on_c, 0, 60, 0
2, 123232, Note_on_c, 0, 61, 76
2, 123240, Control_c, 0, 64, 50
2, 123256, Control_c, 0, 64, 48
2, 123271, Control_c, 0, 64, 43
2, 123274, Note_on_c, 0, 80, 0
2, 123285, Note_on_c, 0, 82, 73
2, 123286, Control_c, 0, 64, 34
2, 123302, Control_c, 0, 64, 15
2, 123317, Control_c, 0, 64, 0
2, 123326, Note_on_c, 0, 61, 0
2, 123331, Note_on_c, 0, 63, 79
2, 123338, Note_on_c, 0, 82, 0
2, 123340, Note_on_c, 0, 80, 68
2, 123373, Note_on_c, 0, 80, 0
2, 123402, Note_on_c, 0, 82, 60
2, 123404, Note_on_c, 0, 63, 0
2, 123425, Note_on_c, 0, 60, 71
2, 123433, Note_on_c, 0, 82, 0
2, 123434, Note_on_c, 0, 80, 70
2, 123465, Note_on_c, 0, 80, 0
2, 123491, Note_on_c, 0, 82, 75
2, 123516, Note_on_c, 0, 82, 0
2, 123536, Note_on_c, 0, 56, 80
2, 123537, Note_on_c, 0, 80, 71
2, 123547, Note_on_c, 0, 60, 0
2, 123563, Note_on_c, 0, 80, 0
2, 123594, Note_on_c, 0, 82, 75
2, 123623, Note_on_c, 0, 82, 0
2, 123629, Note_on_c, 0, 80, 78
2, 123640, Note_on_c, 0, 60, 75
2, 123652, Note_on_c, 0, 56, 0
2, 123662, Note_on_c, 0, 80, 0
2, 123683, Note_on_c, 0, 82, 74
2, 123732, Note_on_c, 0, 82, 0
2, 123734, Note_on_c, 0, 80, 75
2, 123736, Control_c, 0, 64, 33
2, 123751, Control_c, 0, 64, 49
2, 123751, Note_on_c, 0, 63, 81
2, 123754, Note_on_c, 0, 60, 0
2, 123766, Control_c, 0, 64, 56
2, 123769, Note_on_c, 0, 80, 0
2, 123782, Control_c, 0, 64, 59
2, 123797, Control_c, 0, 64, 61
2, 123804, Note_on_c, 0, 82, 65
2, 123812, Control_c, 0, 64, 62
2, 123837, Note_on_c, 0, 80, 74
2, 123843, Note_on_c, 0, 65, 82
2, 123848, Note_on_c, 0, 63, 0
2, 123854, Note_on_c, 0, 82, 0
2, 123858, Control_c, 0, 64, 62
2, 123900, Note_on_c, 0, 80, 0
2, 123904, Control_c, 0, 64, 63
2, 123956, Note_on_c, 0, 66, 83
2, 123963, Control_c, 0, 64, 62
2, 123977, Note_on_c, 0, 65, 0
2, 123979, Control_c, 0, 64, 61
2, 123994, Control_c, 0, 64, 56
2, 124009, Control_c, 0, 64, 46
2, 124025, Control_c, 0, 64, 0
2, 124047, Note_on_c, 0, 66, 0
2, 124063, Note_on_c, 0, 65, 78
2, 124083, Note_on_c, 0, 80, 80
2, 124152, Note_on_c, 0, 65, 0
2, 124170, Note_on_c, 0, 80, 0
2, 124173, Note_on_c, 0, 78, 81
2, 124177, Note_on_c, 0, 63, 78
2, 124253, Note_on_c, 0, 63, 0
2, 124272, Note_on_c, 0, 65, 68
2, 124274, Note_on_c, 0, 80, 83
2, 124280, Note_on_c, 0, 78, 0
2, 124361, Note_on_c, 0, 65, 0
2, 124361, Note_on_c, 0, 80, 0
2, 124387, Note_on_c, 0, 77, 84
2, 124393, Note_on_c, 0, 73, 91
2, 124424, Note_on_c, 0, 73, 0
2, 124457, Note_on_c, 0, 77, 0
2, 124506, Note_on_c, 0, 80, 77
2, 124617, Note_on_c, 0, 80, 0
2, 124628, Note_on_c, 0, 68, 84
2, 124628, Note_on_c, 0, 75, 79
2, 124652, Note_on_c, 0, 68, 0
2, 124724, Note_on_c, 0, 80, 77
2, 124733, Note_on_c, 0, 75, 0
2, 124859, Note_on_c, 0, 73, 68
2, 124861, Note_on_c, 0, 65, 85
2, 124869, Note_on_c, 0, 80, 0
2, 124977, Note_on_c, 0, 80, 74
2, 125059, Note_on_c, 0, 73, 0
2, 125079, Note_on_c, 0, 80, 0
2, 125095, Note_on_c, 0, 72, 75
2, 125096, Note_on_c, 0, 63, 73
2, 125121, Note_on_c, 0, 65, 0
2, 125194, Note_on_c, 0, 70, 73
2, 125195, Note_on_c, 0, 72, 0
2, 125206, Note_on_c, 0, 61, 73
2, 125206, Note_on_c, 0, 63, 0
2, 125288, Note_on_c, 0, 70, 0
2, 125310, Note_on_c, 0, 61, 0
2, 125315, Note_on_c, 0, 63, 79
2, 125315, Note_on_c, 0, 72, 77
2, 125410, Note_on_c, 0, 56, 75
2, 125417, Note_on_c, 0, 72, 0
2, 125417, Note_on_c, 0, 75, 77
2, 125458, Note_on_c, 0, 63, 0
2, 125505, Note_on_c, 0, 75, 0
2, 125515, Note_on_c, 0, 56, 0
2, 125516, Note_on_c, 0, 60, 72
2, 125525, Note_on_c, 0, 77, 78
2, 125623, Note_on_c, 0, 63, 77
2, 125629, Note_on_c, 0, 60, 0
2, 125629, Note_on_c, 0, 78, 81
2, 125650, Note_on_c, 0, 77, 0
2, 125730, Note_on_c, 0, 63, 0
2, 125733, Note_on_c, 0, 65, 76
2, 125741, Note_on_c, 0, 80, 79
2, 125755, Note_on_c, 0, 78, 0
2, 125807, Note_on_c, 0, 65, 0
2, 125843, Note_on_c, 0, 78, 78
2, 125845, Note_on_c, 0, 80, 0
2, 125846, Note_on_c, 0, 63, 76
2, 125922, Note_on_c, 0, 78, 0
2, 125938, Note_on_c, 0, 63, 0
2, 125950, Note_on_c, 0, 61, 77
2, 125953, Note_on_c, 0, 77, 82
2, 126047, Note_on_c, 0, 61, 0
2, 126048, Note_on_c, 0, 77, 0
2, 126051, Note_on_c, 0, 63, 81
2, 126060, Note_on_c, 0, 80, 82
2, 126149, Note_on_c, 0, 63, 0
2, 126173, Note_on_c, 0, 80, 0
2, 126183, Note_on_c, 0, 72, 91
2, 126183, Note_on_c, 0, 75, 81
2, 126224, Note_on_c, 0, 72, 0
2, 126263, Note_on_c, 0, 75, 0
2, 126274, Note_on_c, 0, 80, 79
2, 126394, Note_on_c, 0, 80, 0
2, 126408, Note_on_c, 0, 68, 82
2, 126411, Note_on_c, 0, 73, 76
2, 126439, Note_on_c, 0, 68, 0
2, 126513, Note_on_c, 0, 80, 72
2, 126530, Note_on_c, 0, 73, 0
2, 126635, Note_on_c, 0, 80, 0
2, 126643, Note_on_c, 0, 63, 84
2, 126653, Note_on_c, 0, 72, 74
2, 126738, Note_on_c, 0, 72, 0
2, 126749, Note_on_c, 0, 80, 71
2, 126856, Note_on_c, 0, 80, 0
2, 126871, Note_on_c, 0, 61, 77
2, 126888, Note_on_c, 0, 70, 68
2, 126897, Note_on_c, 0, 63, 0
2, 126978, Note_on_c, 0, 68, 72
2, 126978, Note_on_c, 0, 70, 0
2, 126981, Note_on_c, 0, 60, 73
2, 127019, Note_on_c, 0, 61, 0
2, 127055, Note_on_c, 0, 68, 0
2, 127086, Note_on_c, 0, 61, 63
2, 127087, Note_on_c, 0, 70, 82
2, 127090, Note_on_c, 0, 60, 0
2, 127164, Note_on_c, 0, 70, 0
2, 127183, Note_on_c, 0, 73, 75
2, 127195, Note_on_c, 0, 56, 70
2, 127214, Note_on_c, 0, 61, 0
2, 127283, Note_on_c, 0, 73, 0
2, 127284, Note_on_c, 0, 56, 0
2, 127289, Note_on_c, 0, 60, 73
2, 127291, Note_on_c, 0, 75, 82
2, 127394, Note_on_c, 0, 60, 0
2, 127394, Note_on_c, 0, 77, 80
2, 127395, Note_on_c, 0, 61, 77
2, 127424, Note_on_c, 0, 75, 0
2, 127495, Note_on_c, 0, 78, 81
2, 127496, Note_on_c, 0, 61, 0
2, 127498, Note_on_c, 0, 63, 84
2, 127511, Note_on_c, 0, 77, 0
2, 127581, Note_on_c, 0, 63, 0
2, 127602, Note_on_c, 0, 77, 74
2, 127618, Note_on_c, 0, 61, 72
2, 127629, Note_on_c, 0, 78, 0
2, 127679, Note_on_c, 0, 77, 0
2, 127711, Note_on_c, 0, 61, 0
2, 127717, Note_on_c, 0, 75, 83
2, 127720, Note_on_c, 0, 60, 72
2, 127815, Note_on_c, 0, 60, 0
2, 127821, Note_on_c, 0, 75, 0
2, 127824, Note_on_c, 0, 61, 72
2, 127824, Note_on_c, 0, 77, 79
2, 127913, Note_on_c, 0, 61, 0
2, 127938, Note_on_c, 0, 70, 81
2, 127944, Note_on_c, 0, 73, 79
2, 127944, Note_on_c, 0, 77, 0
2, 127979, Note_on_c, 0, 70, 0
2, 128019, Note_on_c, 0, 73, 0
2, 128047, Note_on_c, 0, 75, 73
2, 128145, Note_on_c, 0, 75, 0
2, 128166, Note_on_c, 0, 67, 75
2, 128168, Note_on_c, 0, 72, 77
2, 128189, Note_on_c, 0, 67, 0
2, 128256, Note_on_c, 0, 72, 0
2, 128273, Note_on_c, 0, 75, 79
2, 128398, Note_on_c, 0, 61, 78
2, 128398, Note_on_c, 0, 70, 77
2, 128405, Note_on_c, 0, 75, 0
2, 128499, Note_on_c, 0, 70, 0
2, 128505, Note_on_c, 0, 75, 78
2, 128576, Note_on_c, 0, 61, 0
2, 128596, Note_on_c, 0, 60, 70
2, 128610, Note_on_c, 0, 68, 76
2, 128610, Note_on_c, 0, 75, 0
2, 128686, Note_on_c, 0, 60, 0
2, 128695, Note_on_c, 0, 68, 0
2, 128699, Note_on_c, 0, 58, 68
2, 128700, Note_on_c, 0, 67, 71
2, 128780, Note_on_c, 0, 58, 0
2, 128790, Note_on_c, 0, 67, 0
2, 128795, Note_on_c, 0, 60, 76
2, 128808, Note_on_c, 0, 68, 76
2, 128863, Note_on_c, 0, 68, 0
2, 128867, Note_on_c, 0, 60, 0
2, 128896, Note_on_c, 0, 56, 69
2, 128913, Note_on_c, 0, 72, 79
2, 129004, Note_on_c, 0, 58, 70
2, 129006, Note_on_c, 0, 72, 0
2, 129007, Note_on_c, 0, 56, 0
2, 129015, Note_on_c, 0, 73, 80
2, 129078, Note_on_c, 0, 58, 0
2, 129101, Note_on_c, 0, 73, 0
2, 129103, Note_on_c, 0, 60, 73
2, 129126, Note_on_c, 0, 75, 83
2, 129189, Note_on_c, 0, 75, 0
2, 129206, Note_on_c, 0, 60, 0
2, 129221, Note_on_c, 0, 61, 68
2, 129231, Note_on_c, 0, 77, 87
2, 129294, Note_on_c, 0, 77, 0
2, 129315, Note_on_c, 0, 61, 0
2, 129316, Note_on_c, 0, 63, 70
2, 129327, Note_on_c, 0, 78, 85
2, 129393, Note_on_c, 0, 78, 0
2, 129396, Note_on_c, 0, 63, 0
2, 129421, Note_on_c, 0, 65, 71
2, 129428, Note_on_c, 0, 80, 81
2, 129493, Note_on_c, 0, 65, 0
2, 129493, Note_on_c, 0, 80, 0
2, 129526, Note_on_c, 0, 82, 81
2, 129533, Note_on_c, 0, 63, 72
2, 129576, Note_on_c, 0, 82, 0
2, 129625, Note_on_c, 0, 63, 0
2, 129639, Note_on_c, 0, 66, 81
2, 129646, Note_on_c, 0, 72, 86
2, 129674, Note_on_c, 0, 72, 0
2, 129733, Note_on_c, 0, 65, 69
2, 129735, Note_on_c, 0, 66, 0
2, 129814, Note_on_c, 0, 65, 0
2, 129833, Note_on_c, 0, 63, 68
2, 129845, Note_on_c, 0, 68, 84
2, 129878, Note_on_c, 0, 68, 0
2, 129936, Note_on_c, 0, 63, 0
2, 129963, Note_on_c, 0, 61, 62
2, 130050, Note_on_c, 0, 61, 0
2, 130064, Note_on_c, 0, 66, 75
2, 130069, Note_on_c, 0, 70, 85
2, 130096, Note_on_c, 0, 66, 0
2, 130146, Note_on_c, 0, 70, 0
2, 130175, Note_on_c, 0, 68, 89
2, 130258, Note_on_c, 0, 68, 0
2, 130282, Note_on_c, 0, 66, 86
2, 130285, Note_on_c, 0, 58, 71
2, 130339, Note_on_c, 0, 66, 0
2, 130353, Note_on_c, 0, 58, 0
2, 130371, Note_on_c, 0, 60, 69
2, 130383, Note_on_c, 0, 68, 80
2, 130492, Note_on_c, 0, 60, 0
2, 130493, Note_on_c, 0, 68, 0
2, 130497, Note_on_c, 0, 61, 78
2, 130503, Note_on_c, 0, 77, 90
2, 130541, Note_on_c, 0, 77, 0
2, 130566, Note_on_c, 0, 61, 0
2, 130590, Note_on_c, 0, 60, 74
2, 130716, Note_on_c, 0, 73, 83
2, 130719, Note_on_c, 0, 60, 0
2, 130722, Note_on_c, 0, 58, 72
2, 130743, Note_on_c, 0, 73, 0
2, 130834, Note_on_c, 0, 56, 74
2, 130842, Note_on_c, 0, 58, 0
2, 130989, Note_on_c, 0, 58, 76
2, 130992, Note_on_c, 0, 68, 79
2, 131028, Note_on_c, 0, 56, 0
2, 131237, Note_on_c, 0, 66, 80
2, 131255, Note_on_c, 0, 68, 0
2, 131330, Note_on_c, 0, 65, 77
2, 131335, Note_on_c, 0, 66, 0
2, 131452, Note_on_c, 0, 66, 82
2, 131461, Note_on_c, 0, 65, 0
2, 131497, Note_on_c, 0, 66, 0
2, 131557, Note_on_c, 0, 56, 75
2, 131562, Note_on_c, 0, 58, 0
2, 131674, Note_on_c, 0, 75, 81
2, 131675, Note_on_c, 0, 54, 67
2, 131676, Note_on_c, 0, 56, 0
2, 131726, Note_on_c, 0, 75, 0
2, 131767, Note_on_c, 0, 54, 0
2, 131779, Note_on_c, 0, 58, 74
2, 131881, Note_on_c, 0, 58, 0
2, 131887, Note_on_c, 0, 56, 72
2, 131894, Note_on_c, 0, 65, 82
2, 131936, Note_on_c, 0, 65, 0
2, 131998, Note_on_c, 0, 54, 69
2, 132001, Note_on_c, 0, 56, 0
2, 132105, Note_on_c, 0, 54, 0
2, 132114, Note_on_c, 0, 53, 67
2, 132119, Note_on_c, 0, 73, 78
2, 132165, Note_on_c, 0, 73, 0
2, 132215, Note_on_c, 0, 53, 0
2, 132218, Note_on_c, 0, 56, 66
2, 132324, Note_on_c, 0, 56, 0
2, 132346, Note_on_c, 0, 54, 67
2, 132348, Note_on_c, 0, 63, 71
2, 132383, Note_on_c, 0, 63, 0
2, 132432, Note_on_c, 0, 54, 0
2, 132445, Note_on_c, 0, 53, 61
2, 132569, Note_on_c, 0, 53, 0
2, 132569, Note_on_c, 0, 72, 72
2, 132570, Note_on_c, 0, 54, 66
2, 132603, Note_on_c, 0, 72, 0
2, 132651, Note_on_c, 0, 54, 0
2, 132678, Note_on_c, 0, 51, 58
2, 132799, Note_on_c, 0, 51, 0
2, 132806, Note_on_c, 0, 61, 65
2, 132818, Note_on_c, 0, 53, 47
2, 132835, Control_c, 0, 64, 55
2, 132850, Control_c, 0, 64, 74
2, 132854, Note_on_c, 0, 61, 0
2, 132866, Control_c, 0, 64, 112
2, 132881, Control_c, 0, 64, 127
2, 133055, Control_c, 0, 64, 106
2, 133058, Note_on_c, 0, 73, 69
2, 133071, Control_c, 0, 64, 63
2, 133086, Control_c, 0, 64, 0
2, 133127, Note_on_c, 0, 73, 0
2, 133155, Note_on_c, 0, 72, 70
2, 133188, Note_on_c, 0, 53, 0
2, 133197, Note_on_c, 0, 56, 64
2, 133243, Note_on_c, 0, 72, 0
2, 133264, Note_on_c, 0, 73, 77
2, 133299, Note_on_c, 0, 58, 74
2, 133301, Note_on_c, 0, 56, 0
2, 133371, Note_on_c, 0, 75, 82
2, 133378, Note_on_c, 0, 73, 0
2, 133379, Note_on_c, 0, 58, 0
2, 133396, Note_on_c, 0, 60, 74
2, 133445, Note_on_c, 0, 75, 0
2, 133479, Note_on_c, 0, 77, 87
2, 133486, Note_on_c, 0, 60, 0
2, 133492, Note_on_c, 0, 61, 71
2, 133565, Note_on_c, 0, 63, 73
2, 133568, Note_on_c, 0, 61, 0
2, 133573, Note_on_c, 0, 78, 82
2, 133587, Note_on_c, 0, 77, 0
2, 133665, Note_on_c, 0, 63, 0
2, 133672, Note_on_c, 0, 65, 80
2, 133682, Note_on_c, 0, 78, 0
2, 133682, Note_on_c, 0, 80, 86
2, 133751, Note_on_c, 0, 65, 0
2, 133777, Note_on_c, 0, 63, 76
2, 133780, Note_on_c, 0, 79, 84
2, 133794, Note_on_c, 0, 80, 0
2, 133874, Note_on_c, 0, 63, 0
2, 133887, Note_on_c, 0, 61, 72
2, 133894, Note_on_c, 0, 77, 86
2, 133896, Note_on_c, 0, 79, 0
2, 133939, Note_on_c, 0, 84, 35
2, 133979, Note_on_c, 0, 84, 0
2, 133981, Note_on_c, 0, 61, 0
2, 133985, Note_on_c, 0, 63, 80
2, 133997, Note_on_c, 0, 79, 84
2, 134005, Note_on_c, 0, 77, 0
2, 134087, Note_on_c, 0, 63, 0
2, 134101, Note_on_c, 0, 79, 0
2, 134109, Note_on_c, 0, 80, 85
2, 134115, Note_on_c, 0, 60, 69
2, 134117, Note_on_c, 0, 72, 77
2, 134152, Note_on_c, 0, 72, 0
2, 134188, Note_on_c, 0, 80, 0
2, 134216, Note_on_c, 0, 78, 79
2, 134306, Note_on_c, 0, 78, 0
2, 134332, Note_on_c, 0, 68, 73
2, 134334, Note_on_c, 0, 77, 79
2, 134359, Note_on_c, 0, 68, 0
2, 134424, Note_on_c, 0, 75, 77
2, 134426, Note_on_c, 0, 77, 0
2, 134564, Note_on_c, 0, 63, 73
2, 134565, Note_on_c, 0, 77, 78
2, 134567, Note_on_c, 0, 75, 0
2, 134778, Note_on_c, 0, 60, 0
2, 134802, Note_on_c, 0, 63, 0
2, 134803, Note_on_c, 0, 61, 68
2, 134884, Note_on_c, 0, 61, 0
2, 134899, Note_on_c, 0, 60, 68
2, 135011, Note_on_c, 0, 60, 0
2, 135022, Note_on_c, 0, 61, 71
2, 135026, Note_on_c, 0, 58, 76
2, 135058, Note_on_c, 0, 61, 0
2, 135139, Note_on_c, 0, 77, 0
2, 135143, Note_on_c, 0, 75, 75
2, 135221, Note_on_c, 0, 75, 0
2, 135260, Note_on_c, 0, 70, 79
2, 135260, Note_on_c, 0, 73, 75
2, 135320, Note_on_c, 0, 70, 0
2, 135356, Note_on_c, 0, 73, 0
2, 135361, Note_on_c, 0, 77, 80
2, 135445, Note_on_c, 0, 58, 0
2, 135467, Note_on_c, 0, 77, 0
2, 135480, Note_on_c, 0, 75, 80
2, 135483, Note_on_c, 0, 60, 73
2, 135519, Note_on_c, 0, 60, 0
2, 135553, Note_on_c, 0, 75, 0
2, 135576, Note_on_c, 0, 73, 74
2, 135686, Note_on_c, 0, 73, 0
2, 135698, Note_on_c, 0, 56, 71
2, 135703, Note_on_c, 0, 68, 73
2, 135705, Note_on_c, 0, 72, 77
2, 135791, Note_on_c, 0, 72, 0
2, 135799, Note_on_c, 0, 75, 78
2, 135804, Note_on_c, 0, 68, 0
2, 135875, Note_on_c, 0, 75, 0
2, 135903, Note_on_c, 0, 56, 0
2, 135918, Note_on_c, 0, 73, 77
2, 135924, Note_on_c, 0, 58, 63
2, 135953, Note_on_c, 0, 58, 0
2, 135986, Note_on_c, 0, 73, 0
2, 136023, Note_on_c, 0, 72, 77
2, 136118, Note_on_c, 0, 72, 0
2, 136137, Note_on_c, 0, 73, 75
2, 136142, Note_on_c, 0, 51, 69
2, 136169, Note_on_c, 0, 51, 0
2, 136243, Note_on_c, 0, 70, 76
2, 136284, Note_on_c, 0, 70, 0
2, 136311, Note_on_c, 0, 73, 0
2, 136360, Note_on_c, 0, 70, 76
2, 136361, Note_on_c, 0, 56, 73
2, 136425, Note_on_c, 0, 70, 0
2, 136451, Note_on_c, 0, 72, 77
2, 136549, Note_on_c, 0, 72, 0
2, 136563, Note_on_c, 0, 68, 63
2, 136564, Note_on_c, 0, 75, 70
2, 136590, Note_on_c, 0, 75, 0
2, 136675, Note_on_c, 0, 66, 63
2, 136677, Note_on_c, 0, 68, 0
2, 136772, Note_on_c, 0, 56, 0
2, 136792, Note_on_c, 0, 66, 0
2, 136792, Note_on_c, 0, 68, 79
2, 136793, Note_on_c, 0, 78, 83
2, 136821, Note_on_c, 0, 68, 0
2, 136908, Note_on_c, 0, 70, 69
2, 136986, Note_on_c, 0, 70, 0
2, 137013, Note_on_c, 0, 72, 73
2, 137019, Note_on_c, 0, 56, 70
2, 137047, Note_on_c, 0, 56, 0
2, 137072, Note_on_c, 0, 72, 0
2, 137117, Note_on_c, 0, 68, 69
2, 137220, Note_on_c, 0, 58, 76
2, 137223, Note_on_c, 0, 68, 0
2, 137236, Note_on_c, 0, 73, 71
2, 137297, Note_on_c, 0, 58, 0
2, 137319, Note_on_c, 0, 56, 70
2, 137324, Note_on_c, 0, 72, 75
2, 137325, Note_on_c, 0, 73, 0
2, 137424, Note_on_c, 0, 56, 0
2, 137434, Note_on_c, 0, 70, 78
2, 137435, Note_on_c, 0, 54, 73
2, 137443, Note_on_c, 0, 72, 0
2, 137503, Note_on_c, 0, 78, 0
2, 137510, Note_on_c, 0, 70, 0
2, 137522, Note_on_c, 0, 54, 0
2, 137534, Note_on_c, 0, 56, 72
2, 137539, Note_on_c, 0, 72, 82
2, 137614, Note_on_c, 0, 56, 0
2, 137653, Note_on_c, 0, 73, 81
2, 137662, Note_on_c, 0, 65, 70
2, 137662, Note_on_c, 0, 72, 0
2, 137665, Note_on_c, 0, 77, 72
2, 137689, Note_on_c, 0, 65, 0
2, 137723, Note_on_c, 0, 73, 0
2, 137763, Note_on_c, 0, 72, 73
2, 137825, Note_on_c, 0, 72, 0
2, 137876, Note_on_c, 0, 61, 67
2, 137885, Note_on_c, 0, 70, 70
2, 137903, Note_on_c, 0, 61, 0
2, 137946, Note_on_c, 0, 70, 0
2, 137972, Note_on_c, 0, 68, 75
2, 138120, Note_on_c, 0, 56, 65
2, 138129, Note_on_c, 0, 70, 67
2, 138158, Note_on_c, 0, 68, 0
2, 138200, Note_on_c, 0, 77, 0
2, 138370, Note_on_c, 0, 56, 0
2, 138372, Note_on_c, 0, 54, 64
2, 138466, Note_on_c, 0, 54, 0
2, 138475, Note_on_c, 0, 53, 58
2, 138585, Note_on_c, 0, 75, 73
2, 138594, Note_on_c, 0, 53, 0
2, 138597, Note_on_c, 0, 54, 64
2, 138607, Note_on_c, 0, 70, 0
2, 138631, Note_on_c, 0, 54, 0
2, 138705, Note_on_c, 0, 68, 62
2, 138788, Note_on_c, 0, 68, 0
2, 138818, Note_on_c, 0, 63, 65
2, 138821, Note_on_c, 0, 66, 65
2, 138872, Note_on_c, 0, 63, 0
2, 138910, Note_on_c, 0, 70, 69
2, 138927, Note_on_c, 0, 66, 0
2, 138964, Note_on_c, 0, 75, 0
2, 138980, Note_on_c, 0, 70, 0
2, 139026, Note_on_c, 0, 68, 75
2, 139038, Note_on_c, 0, 53, 59
2, 139071, Note_on_c, 0, 53, 0
2, 139126, Note_on_c, 0, 68, 0
2, 139132, Note_on_c, 0, 66, 75
2, 139242, Note_on_c, 0, 73, 76
2, 139247, Note_on_c, 0, 61, 72
2, 139256, Note_on_c, 0, 65, 70
2, 139263, Note_on_c, 0, 66, 0
2, 139309, Note_on_c, 0, 65, 0
2, 139310, Note_on_c, 0, 61, 0
2, 139330, Note_on_c, 0, 73, 0
2, 139347, Note_on_c, 0, 68, 75
2, 139424, Note_on_c, 0, 68, 0
2, 139458, Note_on_c, 0, 72, 75
2, 139465, Note_on_c, 0, 51, 69
2, 139469, Note_on_c, 0, 66, 70
2, 139505, Note_on_c, 0, 72, 0
2, 139511, Note_on_c, 0, 51, 0
2, 139539, Note_on_c, 0, 66, 0
2, 139560, Note_on_c, 0, 65, 76
2, 139621, Note_on_c, 0, 65, 0
2, 139678, Note_on_c, 0, 60, 57
2, 139682, Note_on_c, 0, 66, 65
2, 139685, Note_on_c, 0, 75, 64
2, 139701, Note_on_c, 0, 60, 0
2, 139781, Note_on_c, 0, 63, 58
2, 139836, Note_on_c, 0, 63, 0
2, 139948, Note_on_c, 0, 49, 23
2, 139949, Note_on_c, 0, 65, 49
2, 139993, Note_on_c, 0, 49, 0
2, 139996, Note_on_c, 0, 66, 0
2, 140043, Note_on_c, 0, 44, 40
2, 140085, Note_on_c, 0, 75, 0
2, 140156, Note_on_c, 0, 68, 71
2, 140166, Note_on_c, 0, 49, 48
2, 140200, Note_on_c, 0, 44, 0
2, 140264, Note_on_c, 0, 51, 68
2, 140267, Note_on_c, 0, 49, 0
2, 140370, Note_on_c, 0, 51, 0
2, 140380, Note_on_c, 0, 73, 81
2, 140386, Note_on_c, 0, 53, 65
2, 140460, Note_on_c, 0, 53, 0
2, 140501, Note_on_c, 0, 54, 70
2, 140603, Note_on_c, 0, 71, 76
2, 140609, Note_on_c, 0, 54, 0
2, 140632, Note_on_c, 0, 56, 64
2, 140632, Note_on_c, 0, 68, 0
2, 140651, Note_on_c, 0, 65, 0
2, 140663, Note_on_c, 0, 73, 0
2, 140704, Note_on_c, 0, 56, 0
2, 140729, Note_on_c, 0, 53, 63
2, 140811, Note_on_c, 0, 53, 0
2, 140822, Note_on_c, 0, 71, 0
2, 140840, Note_on_c, 0, 70, 67
2, 140863, Note_on_c, 0, 54, 64
2, 140933, Note_on_c, 0, 54, 0
2, 140976, Note_on_c, 0, 42, 53
2, 141065, Note_on_c, 0, 42, 0
2, 141083, Note_on_c, 0, 61, 55
2, 141089, Note_on_c, 0, 54, 62
2, 141129, Note_on_c, 0, 54, 0
2, 141194, Note_on_c, 0, 53, 53
2, 141242, Note_on_c, 0, 61, 0
2, 141283, Note_on_c, 0, 53, 0
2, 141289, Note_on_c, 0, 54, 50
2, 141313, Note_on_c, 0, 66, 70
2, 141413, Note_on_c, 0, 54, 0
2, 141417, Note_on_c, 0, 56, 69
2, 141513, Note_on_c, 0, 56, 0
2, 141537, Note_on_c, 0, 58, 72
2, 141539, Note_on_c, 0, 65, 64
2, 141614, Note_on_c, 0, 66, 0
2, 141628, Note_on_c, 0, 58, 0
2, 141648, Note_on_c, 0, 54, 65
2, 141749, Note_on_c, 0, 65, 0
2, 141755, Note_on_c, 0, 51, 67
2, 141756, Note_on_c, 0, 70, 0
2, 141757, Note_on_c, 0, 54, 0
2, 141761, Note_on_c, 0, 66, 71
2, 141848, Note_on_c, 0, 51, 0
2, 141878, Note_on_c, 0, 53, 58
2, 141944, Note_on_c, 0, 53, 0
2, 141982, Note_on_c, 0, 54, 67
2, 141985, Note_on_c, 0, 70, 71
2, 141987, Note_on_c, 0, 66, 0
2, 142032, Note_on_c, 0, 54, 0
2, 142082, Note_on_c, 0, 51, 67
2, 142082, Note_on_c, 0, 70, 0
2, 142083, Note_on_c, 0, 66, 65
2, 142176, Note_on_c, 0, 66, 0
2, 142197, Note_on_c, 0, 51, 0
2, 142205, Note_on_c, 0, 48, 63
2, 142212, Note_on_c, 0, 63, 67
2, 142303, Note_on_c, 0, 48, 0
2, 142324, Note_on_c, 0, 49, 64
2, 142403, Note_on_c, 0, 49, 0
2, 142425, Note_on_c, 0, 63, 0
2, 142434, Note_on_c, 0, 66, 61
2, 142438, Note_on_c, 0, 51, 63
2, 142480, Note_on_c, 0, 51, 0
2, 142499, Note_on_c, 0, 66, 0
2, 142533, Note_on_c, 0, 48, 53
2, 142542, Note_on_c, 0, 63, 60
2, 142625, Note_on_c, 0, 63, 0
2, 142654, Note_on_c, 0, 48, 0
2, 142658, Note_on_c, 0, 41, 61
2, 142659, Note_on_c, 0, 56, 62
2, 142688, Note_on_c, 0, 41, 0
2, 142900, Note_on_c, 0, 53, 54
2, 142901, Note_on_c, 0, 63, 62
2, 142939, Note_on_c, 0, 63, 0
2, 142982, Note_on_c, 0, 53, 0
2, 143012, Note_on_c, 0, 51, 59
2, 143125, Note_on_c, 0, 51, 0
2, 143130, Note_on_c, 0, 53, 60
2, 143134, Note_on_c, 0, 68, 83
2, 143150, Note_on_c, 0, 56, 0
2, 143200, Note_on_c, 0, 53, 0
2, 143220, Note_on_c, 0, 54, 63
2, 143333, Note_on_c, 0, 54, 0
2, 143357, Note_on_c, 0, 56, 67
2, 143360, Note_on_c, 0, 60, 79
2, 143403, Note_on_c, 0, 60, 0
2, 143422, Note_on_c, 0, 56, 0
2, 143468, Note_on_c, 0, 53, 61
2, 143590, Note_on_c, 0, 65, 80
2, 143602, Note_on_c, 0, 50, 61
2, 143618, Note_on_c, 0, 68, 0
2, 143619, Note_on_c, 0, 53, 0
2, 143721, Note_on_c, 0, 50, 0
2, 143724, Note_on_c, 0, 51, 73
2, 143801, Note_on_c, 0, 51, 0
2, 143827, Note_on_c, 0, 53, 73
2, 143828, Note_on_c, 0, 68, 78
2, 143840, Note_on_c, 0, 65, 0
2, 143916, Note_on_c, 0, 53, 0
2, 143929, Note_on_c, 0, 65, 77
2, 143931, Note_on_c, 0, 50, 69
2, 143941, Note_on_c, 0, 68, 0
2, 144025, Note_on_c, 0, 65, 0
2, 144042, Note_on_c, 0, 46, 61
2, 144042, Note_on_c, 0, 62, 76
2, 144046, Note_on_c, 0, 50, 0
2, 144118, Note_on_c, 0, 46, 0
2, 144134, Note_on_c, 0, 48, 63
2, 144204, Note_on_c, 0, 48, 0
2, 144250, Note_on_c, 0, 50, 66
2, 144285, Note_on_c, 0, 65, 63
2, 144286, Note_on_c, 0, 62, 0
2, 144322, Note_on_c, 0, 50, 0
2, 144348, Note_on_c, 0, 65, 0
2, 144366, Note_on_c, 0, 46, 44
2, 144391, Note_on_c, 0, 62, 63
2, 144458, Note_on_c, 0, 62, 0
2, 144512, Note_on_c, 0, 46, 0
2, 144517, Note_on_c, 0, 54, 58
2, 144532, Note_on_c, 0, 39, 25
2, 144580, Note_on_c, 0, 39, 0
2, 144745, Note_on_c, 0, 58, 65
2, 144750, Note_on_c, 0, 51, 50
2, 144770, Note_on_c, 0, 58, 0
2, 144809, Note_on_c, 0, 51, 0
2, 144849, Note_on_c, 0, 50, 43
2, 144968, Note_on_c, 0, 50, 0
2, 144994, Note_on_c, 0, 51, 51
2, 145013, Note_on_c, 0, 54, 0
2, 145013, Note_on_c, 0, 66, 60
2, 145085, Note_on_c, 0, 51, 0
2, 145109, Note_on_c, 0, 53, 55
2, 145182, Note_on_c, 0, 53, 0
2, 145222, Note_on_c, 0, 58, 66
2, 145224, Note_on_c, 0, 54, 57
2, 145269, Note_on_c, 0, 58, 0
2, 145292, Note_on_c, 0, 54, 0
2, 145332, Note_on_c, 0, 51, 61
2, 145437, Note_on_c, 0, 48, 65
2, 145447, Note_on_c, 0, 63, 72
2, 145451, Note_on_c, 0, 51, 0
2, 145519, Note_on_c, 0, 66, 0
2, 145542, Note_on_c, 0, 63, 0
2, 145545, Note_on_c, 0, 65, 80
2, 145549, Note_on_c, 0, 48, 0
2, 145557, Note_on_c, 0, 49, 68
2, 145634, Note_on_c, 0, 49, 0
2, 145650, Note_on_c, 0, 51, 81
2, 145658, Note_on_c, 0, 65, 0
2, 145659, Note_on_c, 0, 66, 80
2, 145720, Note_on_c, 0, 66, 0
2, 145725, Note_on_c, 0, 51, 0
2, 145751, Note_on_c, 0, 63, 85
2, 145755, Note_on_c, 0, 48, 70
2, 145865, Note_on_c, 0, 44, 71
2, 145877, Note_on_c, 0, 75, 92
2, 145904, Note_on_c, 0, 48, 0
2, 145964, Note_on_c, 0, 63, 0
2, 145971, Note_on_c, 0, 44, 0
2, 145971, Note_on_c, 0, 46, 76
2, 145980, Note_on_c, 0, 66, 85
2, 146078, Note_on_c, 0, 46, 0
2, 146100, Note_on_c, 0, 66, 0
2, 146100, Note_on_c, 0, 68, 89
2, 146102, Note_on_c, 0, 48, 82
2, 146182, Note_on_c, 0, 68, 0
2, 146200, Note_on_c, 0, 63, 95
2, 146223, Note_on_c, 0, 44, 72
2, 146229, Note_on_c, 0, 73, 42
2, 146232, Note_on_c, 0, 48, 0
2, 146258, Note_on_c, 0, 73, 0
2, 146265, Note_on_c, 0, 63, 0
2, 146358, Note_on_c, 0, 37, 84
2, 146359, Note_on_c, 0, 65, 91
2, 146371, Note_on_c, 0, 44, 0
2, 146390, Note_on_c, 0, 37, 0
2, 146436, Note_on_c, 0, 75, 0
2, 146513, Note_on_c, 0, 73, 77
2, 146601, Note_on_c, 0, 73, 0
2, 146613, Note_on_c, 0, 49, 75
2, 146615, Note_on_c, 0, 72, 83
2, 146723, Note_on_c, 0, 75, 92
2, 146730, Note_on_c, 0, 72, 0
2, 146742, Note_on_c, 0, 49, 0
2, 146747, Note_on_c, 0, 51, 75
2, 146834, Note_on_c, 0, 73, 83
2, 146837, Note_on_c, 0, 53, 86
2, 146855, Note_on_c, 0, 51, 0
2, 146868, Note_on_c, 0, 75, 0
2, 146874, Note_on_c, 0, 53, 0
2, 146882, Note_on_c, 0, 65, 0
2, 146941, Note_on_c, 0, 68, 85
2, 146965, Note_on_c, 0, 73, 0
2, 147052, Note_on_c, 0, 49, 69
2, 147054, Note_on_c, 0, 70, 88
2, 147058, Note_on_c, 0, 61, 80
2, 147076, Note_on_c, 0, 68, 0
2, 147121, Note_on_c, 0, 49, 0
2, 147150, Note_on_c, 0, 70, 0
2, 147160, Note_on_c, 0, 71, 86
2, 147237, Note_on_c, 0, 71, 0
2, 147271, Note_on_c, 0, 54, 79
2, 147280, Note_on_c, 0, 70, 87
2, 147289, Note_on_c, 0, 61, 0
2, 147364, Note_on_c, 0, 70, 0
2, 147377, Note_on_c, 0, 68, 82
2, 147385, Note_on_c, 0, 60, 71
2, 147491, Note_on_c, 0, 66, 82
2, 147500, Note_on_c, 0, 60, 0
2, 147500, Note_on_c, 0, 68, 0
2, 147507, Note_on_c, 0, 58, 68
2, 147527, Note_on_c, 0, 54, 0
2, 147569, Note_on_c, 0, 66, 0
2, 147609, Note_on_c, 0, 68, 86
2, 147619, Note_on_c, 0, 58, 0
2, 147629, Note_on_c, 0, 60, 64
2, 147723, Note_on_c, 0, 60, 0
2, 147729, Note_on_c, 0, 77, 92
2, 147739, Note_on_c, 0, 53, 62
2, 147739, Note_on_c, 0, 61, 78
2, 147742, Note_on_c, 0, 68, 0
2, 147779, Note_on_c, 0, 77, 0
2, 147824, Note_on_c, 0, 61, 0
2, 147836, Note_on_c, 0, 60, 70
2, 147948, Note_on_c, 0, 60, 0
2, 147953, Note_on_c, 0, 73, 87
2, 147955, Note_on_c, 0, 58, 73
2, 147982, Note_on_c, 0, 53, 0
2, 147990, Note_on_c, 0, 73, 0
2, 148053, Note_on_c, 0, 58, 0
2, 148067, Note_on_c, 0, 56, 65
2, 148194, Note_on_c, 0, 68, 83
2, 148200, Note_on_c, 0, 58, 74
2, 148201, Note_on_c, 0, 51, 75
2, 148219, Note_on_c, 0, 56, 0
2, 148298, Note_on_c, 0, 51, 0
2, 148299, Note_on_c, 0, 68, 0
2, 148313, Note_on_c, 0, 66, 77
2, 148363, Note_on_c, 0, 66, 0
2, 148380, Note_on_c, 0, 68, 65
2, 148419, Note_on_c, 0, 66, 74
2, 148421, Note_on_c, 0, 68, 0
2, 148434, Note_on_c, 0, 49, 66
2, 148492, Note_on_c, 0, 49, 0
2, 148527, Note_on_c, 0, 65, 79
2, 148547, Note_on_c, 0, 66, 0
2, 148653, Note_on_c, 0, 66, 83
2, 148657, Note_on_c, 0, 48, 72
2, 148665, Note_on_c, 0, 65, 0
2, 148668, Note_on_c, 0, 58, 0
2, 148691, Note_on_c, 0, 66, 0
2, 148757, Note_on_c, 0, 56, 72
2, 148879, Note_on_c, 0, 56, 0
2, 148883, Note_on_c, 0, 54, 71
2, 148887, Note_on_c, 0, 75, 86
2, 148926, Note_on_c, 0, 48, 0
2, 148939, Note_on_c, 0, 75, 0
2, 148988, Note_on_c, 0, 58, 75
2, 148995, Note_on_c, 0, 54, 0
2, 149097, Note_on_c, 0, 58, 0
2, 149100, Note_on_c, 0, 49, 74
2, 149107, Note_on_c, 0, 65, 84
2, 149109, Note_on_c, 0, 56, 77
2, 149157, Note_on_c, 0, 65, 0
2, 149219, Note_on_c, 0, 54, 80
2, 149235, Note_on_c, 0, 49, 0
2, 149264, Note_on_c, 0, 56, 0
2, 149333, Note_on_c, 0, 53, 78
2, 149341, Note_on_c, 0, 73, 82
2, 149349, Note_on_c, 0, 54, 0
2, 149394, Note_on_c, 0, 73, 0
2, 149441, Note_on_c, 0, 53, 0
2, 149443, Note_on_c, 0, 56, 78
2, 149549, Note_on_c, 0, 56, 0
2, 149558, Note_on_c, 0, 54, 84
2, 149569, Note_on_c, 0, 63, 75
2, 149594, Note_on_c, 0, 44, 63
2, 149620, Note_on_c, 0, 63, 0
2, 149662, Note_on_c, 0, 54, 0
2, 149677, Note_on_c, 0, 53, 69
2, 149798, Note_on_c, 0, 51, 71
2, 149798, Note_on_c, 0, 72, 73
2, 149800, Note_on_c, 0, 53, 0
2, 149821, Note_on_c, 0, 44, 0
2, 149829, Note_on_c, 0, 72, 0
2, 149933, Note_on_c, 0, 51, 0
2, 149940, Note_on_c, 0, 54, 70
2, 150063, Note_on_c, 0, 54, 0
2, 150065, Note_on_c, 0, 61, 67
2, 150074, Note_on_c, 0, 46, 44
2, 150080, Note_on_c, 0, 53, 64
2, 150146, Note_on_c, 0, 46, 0
2, 150184, Note_on_c, 0, 61, 0
2, 150188, Note_on_c, 0, 53, 0
2, 150189, Note_on_c, 0, 65, 71
2, 150193, Note_on_c, 0, 56, 72
2, 150277, Note_on_c, 0, 56, 0
2, 150289, Note_on_c, 0, 66, 77
2, 150309, Note_on_c, 0, 58, 73
2, 150310, Note_on_c, 0, 65, 0
2, 150389, Note_on_c, 0, 58, 0
2, 150394, Note_on_c, 0, 68, 82
2, 150411, Note_on_c, 0, 60, 74
2, 150414, Note_on_c, 0, 66, 0
2, 150503, Note_on_c, 0, 70, 77
2, 150504, Note_on_c, 0, 61, 82
2, 150509, Note_on_c, 0, 60, 0
2, 150526, Note_on_c, 0, 68, 0
2, 150537, Note_on_c, 0, 70, 0
2, 150598, Note_on_c, 0, 72, 85
2, 150600, Note_on_c, 0, 61, 0
2, 150612, Note_on_c, 0, 60, 81
2, 150682, Note_on_c, 0, 72, 0
2, 150714, Note_on_c, 0, 73, 83
2, 150718, Note_on_c, 0, 58, 81
2, 150722, Note_on_c, 0, 60, 0
2, 150794, Note_on_c, 0, 73, 0
2, 150815, Note_on_c, 0, 75, 86
2, 150827, Note_on_c, 0, 56, 79
2, 150849, Note_on_c, 0, 58, 0
2, 150889, Note_on_c, 0, 75, 0
2, 150926, Note_on_c, 0, 55, 78
2, 150927, Note_on_c, 0, 76, 83
2, 150937, Note_on_c, 0, 56, 0
2, 151014, Note_on_c, 0, 76, 0
2, 151026, Note_on_c, 0, 75, 88
2, 151032, Note_on_c, 0, 55, 0
2, 151038, Note_on_c, 0, 56, 80
2, 151119, Note_on_c, 0, 56, 0
2, 151123, Note_on_c, 0, 58, 79
2, 151128, Note_on_c, 0, 75, 0
2, 151134, Note_on_c, 0, 73, 83
2, 151190, Note_on_c, 0, 58, 0
2, 151221, Note_on_c, 0, 55, 77
2, 151235, Note_on_c, 0, 75, 85
2, 151240, Note_on_c, 0, 73, 0
2, 151301, Note_on_c, 0, 75, 0
2, 151314, Note_on_c, 0, 55, 0
2, 151325, Note_on_c, 0, 51, 77
2, 151337, Note_on_c, 0, 76, 87
2, 151429, Note_on_c, 0, 51, 0
2, 151441, Note_on_c, 0, 49, 72
2, 151447, Note_on_c, 0, 79, 79
2, 151452, Note_on_c, 0, 76, 0
2, 151455, Note_on_c, 0, 78, 44
2, 151484, Note_on_c, 0, 78, 0
2, 151529, Note_on_c, 0, 79, 0
2, 151542, Note_on_c, 0, 80, 84
2, 151545, Note_on_c, 0, 48, 71
2, 151545, Note_on_c, 0, 49, 0
2, 151618, Note_on_c, 0, 80, 0
2, 151644, Note_on_c, 0, 46, 70
2, 151645, Note_on_c, 0, 82, 88
2, 151649, Note_on_c, 0, 48, 0
2, 151674, Note_on_c, 0, 82, 0
2, 151748, Note_on_c, 0, 44, 76
2, 151769, Note_on_c, 0, 73, 86
2, 151804, Note_on_c, 0, 46, 0
2, 151831, Note_on_c, 0, 73, 0
2, 151860, Note_on_c, 0, 51, 76
2, 151868, Note_on_c, 0, 72, 87
2, 151899, Note_on_c, 0, 44, 0
2, 151944, Note_on_c, 0, 51, 0
2, 151958, Note_on_c, 0, 53, 75
2, 151960, Note_on_c, 0, 72, 0
2, 151968, Note_on_c, 0, 70, 84
2, 152055, Note_on_c, 0, 54, 78
2, 152059, Note_on_c, 0, 68, 85
2, 152062, Note_on_c, 0, 53, 0
2, 152062, Note_on_c, 0, 70, 0
2, 152173, Note_on_c, 0, 68, 0
2, 152195, Note_on_c, 0, 54, 0
2, 152195, Note_on_c, 0, 75, 91
2, 152196, Note_on_c, 0, 56, 79
2, 152240, Note_on_c, 0, 75, 0
2, 152295, Note_on_c, 0, 58, 82
2, 152304, Note_on_c, 0, 56, 0
2, 152417, Note_on_c, 0, 58, 0
2, 152417, Note_on_c, 0, 60, 83
2, 152430, Note_on_c, 0, 66, 86
2, 152473, Note_on_c, 0, 66, 0
2, 152540, Note_on_c, 0, 56, 83
2, 152588, Note_on_c, 0, 60, 0
2, 152670, Note_on_c, 0, 56, 0
2, 152694, Note_on_c, 0, 65, 80
2, 152698, Control_c, 0, 64, 47
2, 152699, Note_on_c, 0, 61, 92
2, 152712, Control_c, 0, 64, 63
2, 152727, Control_c, 0, 64, 69
2, 152743, Control_c, 0, 64, 77
2, 152758, Control_c, 0, 64, 93
2, 152773, Control_c, 0, 64, 127
2, 152893, Note_on_c, 0, 61, 0
2, 152933, Note_on_c, 0, 65, 0
2, 152975, Control_c, 0, 64, 73
2, 152983, Note_on_c, 0, 41, 75
2, 152986, Note_on_c, 0, 73, 91
2, 152989, Control_c, 0, 64, 17
2, 152993, Note_on_c, 0, 61, 88
2, 152993, Note_on_c, 0, 68, 81
2, 153005, Control_c, 0, 64, 0
2, 153066, Control_c, 0, 64, 25
2, 153082, Control_c, 0, 64, 63
2, 153096, Control_c, 0, 64, 70
2, 153112, Control_c, 0, 64, 76
2, 153124, Note_on_c, 0, 61, 0
2, 153127, Control_c, 0, 64, 81
2, 153127, Note_on_c, 0, 73, 0
2, 153141, Control_c, 0, 64, 85
2, 153156, Note_on_c, 0, 68, 0
2, 153157, Control_c, 0, 64, 90
2, 153172, Control_c, 0, 64, 99
2, 153187, Control_c, 0, 64, 127
2, 153290, Note_on_c, 0, 41, 0
2, 153293, Control_c, 0, 64, 110
2, 153308, Control_c, 0, 64, 70
2, 153323, Note_on_c, 0, 70, 88
2, 153324, Control_c, 0, 64, 0
2, 153331, Note_on_c, 0, 42, 71
2, 153331, Note_on_c, 0, 63, 87
2, 153338, Note_on_c, 0, 66, 80
2, 153400, Control_c, 0, 64, 41
2, 153415, Control_c, 0, 64, 63
2, 153429, Control_c, 0, 64, 68
2, 153439, Note_on_c, 0, 70, 0
2, 153445, Control_c, 0, 64, 71
2, 153459, Note_on_c, 0, 66, 0
2, 153460, Control_c, 0, 64, 73
2, 153476, Control_c, 0, 64, 73
2, 153491, Control_c, 0, 64, 75
2, 153506, Control_c, 0, 64, 77
2, 153522, Control_c, 0, 64, 80
2, 153537, Control_c, 0, 64, 83
2, 153552, Control_c, 0, 64, 82
2, 153567, Control_c, 0, 64, 82
2, 153582, Control_c, 0, 64, 81
2, 153598, Control_c, 0, 64, 81
2, 153613, Control_c, 0, 64, 80
2, 153628, Control_c, 0, 64, 79
2, 153644, Control_c, 0, 64, 78
2, 153659, Control_c, 0, 64, 77
2, 153682, Control_c, 0, 64, 75
2, 153697, Control_c, 0, 64, 69
2, 153712, Control_c, 0, 64, 56
2, 153713, Note_on_c, 0, 42, 0
2, 153727, Control_c, 0, 64, 0
2, 153731, Note_on_c, 0, 72, 92
2, 153733, Note_on_c, 0, 44, 71
2, 153744, Note_on_c, 0, 66, 72
2, 153744, Note_on_c, 0, 68, 79
2, 153864, Control_c, 0, 64, 47
2, 153880, Control_c, 0, 64, 58
2, 153893, Note_on_c, 0, 72, 0
2, 153895, Control_c, 0, 64, 61
2, 153909, Control_c, 0, 64, 64
2, 153925, Control_c, 0, 64, 68
2, 153925, Note_on_c, 0, 63, 0
2, 153940, Control_c, 0, 64, 74
2, 153953, Note_on_c, 0, 66, 0
2, 153956, Control_c, 0, 64, 86
2, 153958, Note_on_c, 0, 68, 0
2, 153971, Control_c, 0, 64, 121
2, 153985, Control_c, 0, 64, 127
2, 154153, Control_c, 0, 64, 104
2, 154168, Control_c, 0, 64, 93
2, 154183, Control_c, 0, 64, 85
2, 154186, Note_on_c, 0, 37, 79
2, 154198, Control_c, 0, 64, 78
2, 154213, Control_c, 0, 64, 74
2, 154228, Control_c, 0, 64, 71
2, 154233, Note_on_c, 0, 44, 0
2, 154244, Control_c, 0, 64, 68
2, 154259, Control_c, 0, 64, 66
2, 154272, Note_on_c, 0, 61, 76
2, 154274, Control_c, 0, 64, 64
2, 154282, Control_c, 0, 64, 62
2, 154298, Control_c, 0, 64, 59
2, 154313, Control_c, 0, 64, 56
2, 154328, Control_c, 0, 64, 55
2, 154340, Note_on_c, 0, 65, 76
2, 154344, Control_c, 0, 64, 53
2, 154359, Control_c, 0, 64, 52
2, 154375, Control_c, 0, 64, 50
2, 154389, Control_c, 0, 64, 49
2, 154404, Control_c, 0, 64, 48
2, 154406, Note_on_c, 0, 68, 83
2, 154420, Control_c, 0, 64, 47
2, 154443, Control_c, 0, 64, 45
2, 154459, Control_c, 0, 64, 42
2, 154474, Control_c, 0, 64, 40
2, 154489, Control_c, 0, 64, 36
2, 154500, Note_on_c, 0, 73, 89
2, 154504, Control_c, 0, 64, 28
2, 154519, Control_c, 0, 64, 0
2, 155858, Note_on_c, 0, 37, 0
2, 155861, Note_on_c, 0, 61, 0
2, 155867, Note_on_c, 0, 65, 0
2, 155868, Note_on_c, 0, 73, 0
2, 155873, Note_on_c, 0, 68, 0
2, 155874, End_track
0, 0, End_of_file
