0, 0, Header, 1, 2, 384
1, 0, Start_track
1, 0, Tempo, 500000
1, 0, Time_signature, 4, 2, 24, 8
1, 1, End_track
2, 0, Start_track
2, 0, Program_c, 0, 0
2, 0, Control_c, 0, 64, 0
2, 0, Control_c, 0, 67, 0
2, 799, Note_on_c, 0, 77, 51
2, 822, Note_on_c, 0, 49, 33
2, 881, Note_on_c, 0, 77, 0
2, 894, Note_on_c, 0, 73, 50
2, 946, Note_on_c, 0, 73, 0
2, 997, Note_on_c, 0, 68, 40
2, 1038, Note_on_c, 0, 68, 0
2, 1045, Note_on_c, 0, 73, 51
2, 1068, Note_on_c, 0, 49, 0
2, 1107, Note_on_c, 0, 73, 0
2, 1120, Note_on_c, 0, 61, 40
2, 1124, Note_on_c, 0, 77, 62
2, 1158, Note_on_c, 0, 77, 0
2, 1191, Note_on_c, 0, 61, 0
2, 1219, Note_on_c, 0, 73, 55
2, 1262, Note_on_c, 0, 73, 0
2, 1278, Note_on_c, 0, 51, 52
2, 1301, Note_on_c, 0, 78, 65
2, 1365, Note_on_c, 0, 78, 0
2, 1384, Note_on_c, 0, 73, 56
2, 1442, Note_on_c, 0, 73, 0
2, 1474, Note_on_c, 0, 78, 66
2, 1527, Note_on_c, 0, 78, 0
2, 1560, Note_on_c, 0, 73, 55
2, 1619, Note_on_c, 0, 73, 0
2, 1625, Note_on_c, 0, 51, 0
2, 1637, Note_on_c, 0, 61, 54
2, 1653, Note_on_c, 0, 78, 66
2, 1671, Note_on_c, 0, 61, 0
2, 1701, Note_on_c, 0, 78, 0
2, 1739, Note_on_c, 0, 73, 58
2, 1802, Note_on_c, 0, 73, 0
2, 1823, Note_on_c, 0, 80, 71
2, 1824, Note_on_c, 0, 53, 60
2, 1906, Note_on_c, 0, 80, 0
2, 1912, Note_on_c, 0, 73, 62
2, 1974, Note_on_c, 0, 73, 0
2, 2004, Note_on_c, 0, 80, 72
2, 2067, Note_on_c, 0, 80, 0
2, 2081, Note_on_c, 0, 73, 67
2, 2145, Note_on_c, 0, 73, 0
2, 2147, Note_on_c, 0, 53, 0
2, 2169, Note_on_c, 0, 61, 64
2, 2175, Note_on_c, 0, 80, 71
2, 2206, Note_on_c, 0, 61, 0
2, 2219, Note_on_c, 0, 80, 0
2, 2244, Note_on_c, 0, 73, 65
2, 2313, Note_on_c, 0, 73, 0
2, 2347, Note_on_c, 0, 82, 72
2, 2359, Note_on_c, 0, 54, 67
2, 2437, Note_on_c, 0, 82, 0
2, 2441, Note_on_c, 0, 73, 66
2, 2508, Note_on_c, 0, 73, 0
2, 2529, Note_on_c, 0, 82, 73
2, 2595, Note_on_c, 0, 82, 0
2, 2614, Note_on_c, 0, 73, 63
2, 2667, Note_on_c, 0, 54, 0
2, 2675, Note_on_c, 0, 73, 0
2, 2702, Note_on_c, 0, 61, 52
2, 2703, Note_on_c, 0, 82, 71
2, 2746, Note_on_c, 0, 61, 0
2, 2760, Note_on_c, 0, 82, 0
2, 2792, Note_on_c, 0, 73, 55
2, 2838, Note_on_c, 0, 73, 0
2, 2863, Note_on_c, 0, 53, 56
2, 2871, Note_on_c, 0, 80, 62
2, 2925, Note_on_c, 0, 80, 0
2, 2954, Note_on_c, 0, 73, 57
2, 3012, Note_on_c, 0, 73, 0
2, 3044, Note_on_c, 0, 80, 55
2, 3090, Note_on_c, 0, 80, 0
2, 3122, Note_on_c, 0, 73, 54
2, 3169, Note_on_c, 0, 53, 0
2, 3181, Note_on_c, 0, 73, 0
2, 3205, Note_on_c, 0, 61, 51
2, 3209, Note_on_c, 0, 80, 58
2, 3258, Note_on_c, 0, 61, 0
2, 3269, Note_on_c, 0, 80, 0
2, 3291, Note_on_c, 0, 73, 55
2, 3334, Note_on_c, 0, 73, 0
2, 3374, Note_on_c, 0, 51, 57
2, 3382, Note_on_c, 0, 78, 63
2, 3465, Note_on_c, 0, 77, 62
2, 3490, Note_on_c, 0, 78, 0
2, 3531, Note_on_c, 0, 77, 0
2, 3533, Note_on_c, 0, 75, 67
2, 3587, Note_on_c, 0, 75, 0
2, 3616, Note_on_c, 0, 77, 64
2, 3655, Note_on_c, 0, 51, 0
2, 3686, Note_on_c, 0, 77, 0
2, 3692, Note_on_c, 0, 60, 59
2, 3703, Note_on_c, 0, 78, 70
2, 3738, Note_on_c, 0, 60, 0
2, 3774, Note_on_c, 0, 78, 0
2, 3779, Note_on_c, 0, 75, 69
2, 3857, Note_on_c, 0, 75, 0
2, 3863, Note_on_c, 0, 49, 59
2, 3875, Note_on_c, 0, 77, 68
2, 3892, Note_on_c, 0, 49, 0
2, 3927, Note_on_c, 0, 77, 0
2, 3967, Note_on_c, 0, 75, 66
2, 4032, Note_on_c, 0, 75, 0
2, 4048, Note_on_c, 0, 73, 63
2, 4117, Note_on_c, 0, 73, 0
2, 4120, Note_on_c, 0, 75, 59
2, 4192, Note_on_c, 0, 75, 0
2, 4204, Note_on_c, 0, 61, 69
2, 4209, Note_on_c, 0, 77, 64
2, 4261, Note_on_c, 0, 77, 0
2, 4287, Note_on_c, 0, 73, 66
2, 4340, Note_on_c, 0, 73, 0
2, 4371, Note_on_c, 0, 75, 76
2, 4451, Note_on_c, 0, 75, 0
2, 4460, Note_on_c, 0, 77, 68
2, 4508, Note_on_c, 0, 61, 0
2, 4530, Note_on_c, 0, 60, 67
2, 4543, Note_on_c, 0, 77, 0
2, 4554, Note_on_c, 0, 75, 69
2, 4589, Note_on_c, 0, 75, 0
2, 4593, Note_on_c, 0, 60, 0
2, 4621, Note_on_c, 0, 58, 60
2, 4624, Note_on_c, 0, 73, 63
2, 4695, Note_on_c, 0, 73, 0
2, 4701, Note_on_c, 0, 58, 0
2, 4709, Note_on_c, 0, 72, 63
2, 4714, Note_on_c, 0, 56, 62
2, 4752, Note_on_c, 0, 72, 0
2, 4786, Note_on_c, 0, 56, 0
2, 4791, Note_on_c, 0, 70, 55
2, 4795, Note_on_c, 0, 58, 60
2, 4839, Note_on_c, 0, 58, 0
2, 4867, Note_on_c, 0, 70, 0
2, 4884, Note_on_c, 0, 60, 61
2, 4884, Note_on_c, 0, 68, 63
2, 4942, Note_on_c, 0, 60, 0
2, 4982, Note_on_c, 0, 56, 55
2, 5030, Note_on_c, 0, 56, 0
2, 5057, Note_on_c, 0, 51, 59
2, 5142, Note_on_c, 0, 51, 0
2, 5153, Note_on_c, 0, 56, 52
2, 5213, Note_on_c, 0, 56, 0
2, 5229, Note_on_c, 0, 80, 62
2, 5233, Note_on_c, 0, 60, 53
2, 5244, Note_on_c, 0, 68, 0
2, 5270, Note_on_c, 0, 60, 0
2, 5277, Note_on_c, 0, 80, 0
2, 5345, Note_on_c, 0, 56, 44
2, 5386, Note_on_c, 0, 56, 0
2, 5403, Note_on_c, 0, 70, 66
2, 5411, Note_on_c, 0, 61, 62
2, 5488, Note_on_c, 0, 61, 0
2, 5506, Note_on_c, 0, 56, 62
2, 5583, Note_on_c, 0, 56, 0
2, 5605, Note_on_c, 0, 61, 65
2, 5655, Note_on_c, 0, 61, 0
2, 5691, Note_on_c, 0, 56, 63
2, 5753, Note_on_c, 0, 56, 0
2, 5771, Note_on_c, 0, 61, 71
2, 5775, Note_on_c, 0, 80, 71
2, 5793, Note_on_c, 0, 70, 0
2, 5838, Note_on_c, 0, 61, 0
2, 5841, Note_on_c, 0, 80, 0
2, 5878, Note_on_c, 0, 56, 66
2, 5924, Note_on_c, 0, 56, 0
2, 5951, Note_on_c, 0, 72, 76
2, 5952, Note_on_c, 0, 63, 70
2, 6018, Note_on_c, 0, 63, 0
2, 6043, Note_on_c, 0, 56, 66
2, 6109, Note_on_c, 0, 56, 0
2, 6133, Note_on_c, 0, 63, 70
2, 6193, Note_on_c, 0, 63, 0
2, 6214, Note_on_c, 0, 56, 65
2, 6298, Note_on_c, 0, 56, 0
2, 6307, Note_on_c, 0, 80, 71
2, 6311, Note_on_c, 0, 63, 66
2, 6319, Note_on_c, 0, 72, 0
2, 6363, Note_on_c, 0, 80, 0
2, 6367, Note_on_c, 0, 63, 0
2, 6403, Note_on_c, 0, 56, 64
2, 6454, Note_on_c, 0, 56, 0
2, 6482, Note_on_c, 0, 73, 79
2, 6483, Note_on_c, 0, 65, 66
2, 6550, Note_on_c, 0, 65, 0
2, 6573, Note_on_c, 0, 56, 71
2, 6644, Note_on_c, 0, 56, 0
2, 6664, Note_on_c, 0, 65, 69
2, 6732, Note_on_c, 0, 65, 0
2, 6753, Note_on_c, 0, 56, 63
2, 6811, Note_on_c, 0, 56, 0
2, 6841, Note_on_c, 0, 65, 64
2, 6845, Note_on_c, 0, 80, 69
2, 6857, Note_on_c, 0, 73, 0
2, 6885, Note_on_c, 0, 65, 0
2, 6909, Note_on_c, 0, 80, 0
2, 6940, Note_on_c, 0, 56, 61
2, 7001, Note_on_c, 0, 56, 0
2, 7025, Note_on_c, 0, 72, 70
2, 7031, Note_on_c, 0, 63, 69
2, 7085, Note_on_c, 0, 63, 0
2, 7117, Note_on_c, 0, 56, 66
2, 7165, Note_on_c, 0, 56, 0
2, 7209, Note_on_c, 0, 63, 64
2, 7264, Note_on_c, 0, 63, 0
2, 7294, Note_on_c, 0, 56, 63
2, 7357, Note_on_c, 0, 56, 0
2, 7366, Note_on_c, 0, 80, 63
2, 7378, Note_on_c, 0, 63, 70
2, 7380, Note_on_c, 0, 72, 0
2, 7412, Note_on_c, 0, 80, 0
2, 7443, Note_on_c, 0, 63, 0
2, 7474, Note_on_c, 0, 56, 41
2, 7516, Note_on_c, 0, 61, 60
2, 7517, Note_on_c, 0, 56, 0
2, 7542, Note_on_c, 0, 70, 64
2, 7573, Note_on_c, 0, 61, 0
2, 7614, Note_on_c, 0, 60, 56
2, 7656, Note_on_c, 0, 60, 0
2, 7692, Note_on_c, 0, 58, 59
2, 7763, Note_on_c, 0, 58, 0
2, 7780, Note_on_c, 0, 60, 54
2, 7826, Note_on_c, 0, 60, 0
2, 7856, Note_on_c, 0, 79, 68
2, 7859, Note_on_c, 0, 61, 48
2, 7861, Note_on_c, 0, 70, 0
2, 7902, Note_on_c, 0, 79, 0
2, 7914, Note_on_c, 0, 61, 0
2, 7952, Note_on_c, 0, 58, 50
2, 7991, Note_on_c, 0, 58, 0
2, 8031, Note_on_c, 0, 60, 57
2, 8038, Note_on_c, 0, 68, 69
2, 8113, Note_on_c, 0, 60, 0
2, 8128, Note_on_c, 0, 68, 0
2, 8129, Note_on_c, 0, 58, 55
2, 8193, Note_on_c, 0, 58, 0
2, 8209, Note_on_c, 0, 56, 62
2, 8276, Note_on_c, 0, 56, 0
2, 8297, Note_on_c, 0, 58, 61
2, 8349, Note_on_c, 0, 58, 0
2, 8375, Note_on_c, 0, 80, 76
2, 8385, Note_on_c, 0, 60, 60
2, 8463, Note_on_c, 0, 60, 0
2, 8472, Note_on_c, 0, 56, 61
2, 8553, Note_on_c, 0, 56, 0
2, 8556, Note_on_c, 0, 58, 71
2, 8634, Note_on_c, 0, 58, 0
2, 8649, Note_on_c, 0, 59, 62
2, 8719, Note_on_c, 0, 78, 70
2, 8727, Note_on_c, 0, 59, 0
2, 8743, Note_on_c, 0, 58, 62
2, 8756, Note_on_c, 0, 80, 0
2, 8793, Note_on_c, 0, 78, 0
2, 8798, Note_on_c, 0, 58, 0
2, 8803, Note_on_c, 0, 77, 69
2, 8824, Note_on_c, 0, 56, 61
2, 8882, Note_on_c, 0, 77, 0
2, 8883, Note_on_c, 0, 75, 65
2, 8893, Note_on_c, 0, 56, 0
2, 8902, Note_on_c, 0, 54, 37
2, 8926, Note_on_c, 0, 75, 0
2, 8929, Note_on_c, 0, 54, 0
2, 8962, Note_on_c, 0, 77, 64
2, 9042, Note_on_c, 0, 77, 0
2, 9066, Note_on_c, 0, 51, 57
2, 9066, Note_on_c, 0, 78, 65
2, 9150, Note_on_c, 0, 78, 0
2, 9154, Note_on_c, 0, 75, 59
2, 9207, Note_on_c, 0, 75, 0
2, 9222, Note_on_c, 0, 70, 60
2, 9292, Note_on_c, 0, 70, 0
2, 9315, Note_on_c, 0, 75, 47
2, 9353, Note_on_c, 0, 51, 0
2, 9391, Note_on_c, 0, 75, 0
2, 9393, Note_on_c, 0, 78, 58
2, 9403, Note_on_c, 0, 63, 52
2, 9431, Note_on_c, 0, 78, 0
2, 9453, Note_on_c, 0, 63, 0
2, 9473, Note_on_c, 0, 75, 45
2, 9547, Note_on_c, 0, 75, 0
2, 9569, Note_on_c, 0, 80, 60
2, 9574, Note_on_c, 0, 53, 55
2, 9636, Note_on_c, 0, 80, 0
2, 9656, Note_on_c, 0, 75, 59
2, 9713, Note_on_c, 0, 75, 0
2, 9746, Note_on_c, 0, 80, 67
2, 9792, Note_on_c, 0, 80, 0
2, 9824, Note_on_c, 0, 75, 63
2, 9881, Note_on_c, 0, 75, 0
2, 9907, Note_on_c, 0, 80, 70
2, 9908, Note_on_c, 0, 53, 0
2, 9911, Note_on_c, 0, 63, 70
2, 9948, Note_on_c, 0, 63, 0
2, 9972, Note_on_c, 0, 80, 0
2, 9986, Note_on_c, 0, 75, 64
2, 10052, Note_on_c, 0, 75, 0
2, 10085, Note_on_c, 0, 82, 73
2, 10100, Note_on_c, 0, 54, 74
2, 10161, Note_on_c, 0, 82, 0
2, 10163, Note_on_c, 0, 75, 73
2, 10230, Note_on_c, 0, 75, 0
2, 10259, Note_on_c, 0, 82, 76
2, 10321, Note_on_c, 0, 82, 0
2, 10323, Note_on_c, 0, 75, 74
2, 10405, Note_on_c, 0, 75, 0
2, 10421, Note_on_c, 0, 54, 0
2, 10425, Note_on_c, 0, 82, 79
2, 10440, Note_on_c, 0, 63, 68
2, 10473, Note_on_c, 0, 63, 0
2, 10485, Note_on_c, 0, 82, 0
2, 10495, Note_on_c, 0, 75, 69
2, 10567, Note_on_c, 0, 75, 0
2, 10587, Note_on_c, 0, 83, 76
2, 10596, Note_on_c, 0, 56, 71
2, 10659, Note_on_c, 0, 83, 0
2, 10663, Note_on_c, 0, 75, 72
2, 10736, Note_on_c, 0, 75, 0
2, 10758, Note_on_c, 0, 83, 73
2, 10822, Note_on_c, 0, 83, 0
2, 10824, Note_on_c, 0, 75, 66
2, 10908, Note_on_c, 0, 75, 0
2, 10919, Note_on_c, 0, 56, 0
2, 10933, Note_on_c, 0, 63, 63
2, 10935, Note_on_c, 0, 83, 69
2, 10969, Note_on_c, 0, 63, 0
2, 10984, Note_on_c, 0, 83, 0
2, 11007, Note_on_c, 0, 75, 62
2, 11073, Note_on_c, 0, 75, 0
2, 11103, Note_on_c, 0, 82, 65
2, 11112, Note_on_c, 0, 54, 60
2, 11160, Note_on_c, 0, 82, 0
2, 11174, Note_on_c, 0, 75, 63
2, 11239, Note_on_c, 0, 75, 0
2, 11272, Note_on_c, 0, 82, 62
2, 11317, Note_on_c, 0, 82, 0
2, 11364, Note_on_c, 0, 75, 55
2, 11403, Note_on_c, 0, 54, 0
2, 11406, Note_on_c, 0, 75, 0
2, 11419, Note_on_c, 0, 63, 54
2, 11433, Note_on_c, 0, 82, 65
2, 11507, Note_on_c, 0, 82, 0
2, 11511, Note_on_c, 0, 63, 0
2, 11524, Note_on_c, 0, 75, 59
2, 11568, Note_on_c, 0, 75, 0
2, 11602, Note_on_c, 0, 53, 52
2, 11613, Note_on_c, 0, 80, 65
2, 11689, Note_on_c, 0, 78, 71
2, 11697, Note_on_c, 0, 80, 0
2, 11754, Note_on_c, 0, 78, 0
2, 11769, Note_on_c, 0, 77, 70
2, 11846, Note_on_c, 0, 77, 0
2, 11849, Note_on_c, 0, 78, 68
2, 11854, Note_on_c, 0, 53, 0
2, 11914, Note_on_c, 0, 78, 0
2, 11919, Note_on_c, 0, 62, 54
2, 11923, Note_on_c, 0, 80, 70
2, 11977, Note_on_c, 0, 62, 0
2, 11989, Note_on_c, 0, 80, 0
2, 11996, Note_on_c, 0, 77, 65
2, 12046, Note_on_c, 0, 77, 0
2, 12082, Note_on_c, 0, 78, 72
2, 12091, Note_on_c, 0, 51, 63
2, 12119, Note_on_c, 0, 51, 0
2, 12149, Note_on_c, 0, 78, 0
2, 12159, Note_on_c, 0, 77, 66
2, 12242, Note_on_c, 0, 77, 0
2, 12253, Note_on_c, 0, 75, 66
2, 12308, Note_on_c, 0, 75, 0
2, 12338, Note_on_c, 0, 77, 58
2, 12414, Note_on_c, 0, 77, 0
2, 12421, Note_on_c, 0, 63, 67
2, 12427, Note_on_c, 0, 78, 71
2, 12513, Note_on_c, 0, 78, 0
2, 12516, Note_on_c, 0, 75, 66
2, 12594, Note_on_c, 0, 75, 0
2, 12601, Note_on_c, 0, 77, 65
2, 12681, Note_on_c, 0, 77, 0
2, 12693, Note_on_c, 0, 78, 64
2, 12729, Note_on_c, 0, 63, 0
2, 12732, Note_on_c, 0, 78, 0
2, 12754, Note_on_c, 0, 61, 64
2, 12781, Note_on_c, 0, 77, 59
2, 12793, Note_on_c, 0, 61, 0
2, 12826, Note_on_c, 0, 77, 0
2, 12846, Note_on_c, 0, 75, 70
2, 12848, Note_on_c, 0, 60, 50
2, 12899, Note_on_c, 0, 75, 0
2, 12904, Note_on_c, 0, 60, 0
2, 12917, Note_on_c, 0, 58, 65
2, 12932, Note_on_c, 0, 73, 62
2, 12975, Note_on_c, 0, 73, 0
2, 12977, Note_on_c, 0, 58, 0
2, 12991, Note_on_c, 0, 72, 67
2, 12998, Note_on_c, 0, 60, 53
2, 13044, Note_on_c, 0, 60, 0
2, 13054, Note_on_c, 0, 72, 0
2, 13079, Note_on_c, 0, 61, 58
2, 13084, Note_on_c, 0, 70, 63
2, 13127, Note_on_c, 0, 61, 0
2, 13177, Note_on_c, 0, 58, 53
2, 13219, Note_on_c, 0, 58, 0
2, 13246, Note_on_c, 0, 53, 48
2, 13309, Note_on_c, 0, 53, 0
2, 13323, Note_on_c, 0, 58, 52
2, 13374, Note_on_c, 0, 58, 0
2, 13402, Note_on_c, 0, 61, 55
2, 13417, Note_on_c, 0, 70, 0
2, 13421, Note_on_c, 0, 82, 60
2, 13448, Note_on_c, 0, 61, 0
2, 13474, Note_on_c, 0, 82, 0
2, 13495, Note_on_c, 0, 58, 56
2, 13542, Note_on_c, 0, 58, 0
2, 13579, Note_on_c, 0, 63, 62
2, 13596, Note_on_c, 0, 72, 68
2, 13630, Note_on_c, 0, 63, 0
2, 13662, Note_on_c, 0, 58, 63
2, 13727, Note_on_c, 0, 58, 0
2, 13751, Note_on_c, 0, 63, 65
2, 13803, Note_on_c, 0, 63, 0
2, 13845, Note_on_c, 0, 58, 60
2, 13895, Note_on_c, 0, 58, 0
2, 13924, Note_on_c, 0, 82, 71
2, 13932, Note_on_c, 0, 63, 68
2, 13941, Note_on_c, 0, 72, 0
2, 13981, Note_on_c, 0, 82, 0
2, 13995, Note_on_c, 0, 63, 0
2, 14027, Note_on_c, 0, 58, 62
2, 14097, Note_on_c, 0, 58, 0
2, 14106, Note_on_c, 0, 73, 79
2, 14109, Note_on_c, 0, 65, 68
2, 14182, Note_on_c, 0, 65, 0
2, 14196, Note_on_c, 0, 58, 68
2, 14268, Note_on_c, 0, 58, 0
2, 14289, Note_on_c, 0, 65, 73
2, 14359, Note_on_c, 0, 65, 0
2, 14381, Note_on_c, 0, 58, 69
2, 14443, Note_on_c, 0, 58, 0
2, 14443, Note_on_c, 0, 82, 73
2, 14456, Note_on_c, 0, 73, 0
2, 14462, Note_on_c, 0, 65, 72
2, 14511, Note_on_c, 0, 82, 0
2, 14519, Note_on_c, 0, 65, 0
2, 14561, Note_on_c, 0, 58, 68
2, 14626, Note_on_c, 0, 58, 0
2, 14643, Note_on_c, 0, 66, 74
2, 14643, Note_on_c, 0, 75, 79
2, 14705, Note_on_c, 0, 66, 0
2, 14739, Note_on_c, 0, 58, 69
2, 14805, Note_on_c, 0, 58, 0
2, 14823, Note_on_c, 0, 66, 68
2, 14873, Note_on_c, 0, 66, 0
2, 14917, Note_on_c, 0, 58, 64
2, 14967, Note_on_c, 0, 58, 0
2, 15002, Note_on_c, 0, 66, 62
2, 15014, Note_on_c, 0, 75, 0
2, 15014, Note_on_c, 0, 82, 61
2, 15047, Note_on_c, 0, 66, 0
2, 15060, Note_on_c, 0, 82, 0
2, 15091, Note_on_c, 0, 58, 61
2, 15139, Note_on_c, 0, 58, 0
2, 15168, Note_on_c, 0, 65, 66
2, 15182, Note_on_c, 0, 73, 68
2, 15235, Note_on_c, 0, 65, 0
2, 15258, Note_on_c, 0, 58, 63
2, 15312, Note_on_c, 0, 58, 0
2, 15341, Note_on_c, 0, 65, 69
2, 15390, Note_on_c, 0, 65, 0
2, 15432, Note_on_c, 0, 58, 65
2, 15475, Note_on_c, 0, 58, 0
2, 15509, Note_on_c, 0, 65, 68
2, 15521, Note_on_c, 0, 82, 66
2, 15543, Note_on_c, 0, 73, 0
2, 15555, Note_on_c, 0, 65, 0
2, 15578, Note_on_c, 0, 58, 51
2, 15586, Note_on_c, 0, 82, 0
2, 15642, Note_on_c, 0, 58, 0
2, 15670, Note_on_c, 0, 63, 59
2, 15705, Note_on_c, 0, 72, 66
2, 15733, Note_on_c, 0, 63, 0
2, 15756, Note_on_c, 0, 61, 59
2, 15828, Note_on_c, 0, 61, 0
2, 15842, Note_on_c, 0, 60, 60
2, 15893, Note_on_c, 0, 60, 0
2, 15924, Note_on_c, 0, 61, 53
2, 15968, Note_on_c, 0, 61, 0
2, 15980, Note_on_c, 0, 63, 54
2, 16026, Note_on_c, 0, 81, 62
2, 16037, Note_on_c, 0, 63, 0
2, 16038, Note_on_c, 0, 72, 0
2, 16063, Note_on_c, 0, 81, 0
2, 16066, Note_on_c, 0, 60, 57
2, 16116, Note_on_c, 0, 60, 0
2, 16169, Note_on_c, 0, 61, 57
2, 16194, Note_on_c, 0, 70, 68
2, 16325, Note_on_c, 0, 61, 0
2, 16352, Note_on_c, 0, 58, 60
2, 16411, Note_on_c, 0, 58, 0
2, 16481, Note_on_c, 0, 70, 0
2, 16483, Note_on_c, 0, 61, 59
2, 16503, Note_on_c, 0, 82, 75
2, 16580, Note_on_c, 0, 61, 0
2, 16587, Note_on_c, 0, 58, 59
2, 16648, Note_on_c, 0, 58, 0
2, 16681, Note_on_c, 0, 64, 67
2, 16708, Note_on_c, 0, 64, 0
2, 16784, Note_on_c, 0, 62, 57
2, 16841, Note_on_c, 0, 80, 71
2, 16844, Note_on_c, 0, 62, 0
2, 16864, Note_on_c, 0, 82, 0
2, 16869, Note_on_c, 0, 60, 64
2, 16903, Note_on_c, 0, 80, 0
2, 16918, Note_on_c, 0, 60, 0
2, 16946, Note_on_c, 0, 62, 59
2, 16994, Note_on_c, 0, 62, 0
2, 17031, Note_on_c, 0, 79, 74
2, 17036, Note_on_c, 0, 64, 63
2, 17068, Note_on_c, 0, 64, 0
2, 17074, Note_on_c, 0, 79, 0
2, 17117, Note_on_c, 0, 60, 57
2, 17176, Note_on_c, 0, 60, 0
2, 17204, Note_on_c, 0, 65, 64
2, 17212, Note_on_c, 0, 80, 76
2, 17262, Note_on_c, 0, 80, 0
2, 17281, Note_on_c, 0, 65, 0
2, 17313, Note_on_c, 0, 64, 60
2, 17362, Note_on_c, 0, 64, 0
2, 17387, Note_on_c, 0, 68, 69
2, 17391, Note_on_c, 0, 65, 56
2, 17421, Note_on_c, 0, 68, 0
2, 17432, Note_on_c, 0, 65, 0
2, 17479, Note_on_c, 0, 67, 56
2, 17538, Note_on_c, 0, 67, 0
2, 17557, Note_on_c, 0, 80, 76
2, 17563, Note_on_c, 0, 65, 56
2, 17630, Note_on_c, 0, 65, 0
2, 17650, Note_on_c, 0, 63, 63
2, 17700, Note_on_c, 0, 63, 0
2, 17734, Note_on_c, 0, 62, 66
2, 17791, Note_on_c, 0, 62, 0
2, 17821, Note_on_c, 0, 60, 59
2, 17884, Note_on_c, 0, 60, 0
2, 17920, Note_on_c, 0, 58, 60
2, 17928, Note_on_c, 0, 78, 71
2, 17952, Note_on_c, 0, 80, 0
2, 17984, Note_on_c, 0, 58, 0
2, 17991, Note_on_c, 0, 78, 0
2, 18017, Note_on_c, 0, 60, 32
2, 18052, Note_on_c, 0, 60, 0
2, 18099, Note_on_c, 0, 77, 65
2, 18101, Note_on_c, 0, 62, 51
2, 18133, Note_on_c, 0, 77, 0
2, 18144, Note_on_c, 0, 62, 0
2, 18178, Note_on_c, 0, 58, 58
2, 18230, Note_on_c, 0, 58, 0
2, 18279, Note_on_c, 0, 63, 65
2, 18280, Note_on_c, 0, 78, 68
2, 18319, Note_on_c, 0, 63, 0
2, 18337, Note_on_c, 0, 78, 0
2, 18362, Note_on_c, 0, 77, 66
2, 18433, Note_on_c, 0, 77, 0
2, 18443, Note_on_c, 0, 75, 65
2, 18471, Note_on_c, 0, 51, 47
2, 18493, Note_on_c, 0, 75, 0
2, 18502, Note_on_c, 0, 51, 0
2, 18554, Note_on_c, 0, 77, 57
2, 18635, Note_on_c, 0, 63, 70
2, 18653, Note_on_c, 0, 78, 62
2, 18655, Note_on_c, 0, 77, 0
2, 18698, Note_on_c, 0, 78, 0
2, 18707, Note_on_c, 0, 75, 69
2, 18750, Note_on_c, 0, 75, 0
2, 18801, Note_on_c, 0, 81, 71
2, 18878, Note_on_c, 0, 79, 79
2, 18885, Note_on_c, 0, 81, 0
2, 18951, Note_on_c, 0, 79, 0
2, 18973, Note_on_c, 0, 77, 71
2, 18985, Note_on_c, 0, 61, 69
2, 18988, Note_on_c, 0, 63, 0
2, 19024, Note_on_c, 0, 61, 0
2, 19034, Note_on_c, 0, 77, 0
2, 19055, Note_on_c, 0, 79, 75
2, 19153, Note_on_c, 0, 81, 73
2, 19156, Note_on_c, 0, 79, 0
2, 19168, Note_on_c, 0, 60, 65
2, 19188, Note_on_c, 0, 60, 0
2, 19215, Note_on_c, 0, 81, 0
2, 19236, Note_on_c, 0, 77, 79
2, 19324, Note_on_c, 0, 77, 0
2, 19328, Note_on_c, 0, 61, 73
2, 19334, Note_on_c, 0, 82, 78
2, 19364, Note_on_c, 0, 61, 0
2, 19395, Note_on_c, 0, 82, 0
2, 19412, Note_on_c, 0, 81, 75
2, 19506, Note_on_c, 0, 82, 82
2, 19509, Note_on_c, 0, 49, 64
2, 19541, Note_on_c, 0, 81, 0
2, 19553, Note_on_c, 0, 49, 0
2, 19590, Note_on_c, 0, 82, 0
2, 19596, Note_on_c, 0, 84, 78
2, 19679, Note_on_c, 0, 82, 79
2, 19683, Note_on_c, 0, 61, 76
2, 19686, Note_on_c, 0, 84, 0
2, 19765, Note_on_c, 0, 80, 75
2, 19786, Note_on_c, 0, 82, 0
2, 19840, Note_on_c, 0, 80, 0
2, 19850, Note_on_c, 0, 79, 78
2, 19897, Note_on_c, 0, 79, 0
2, 19935, Note_on_c, 0, 77, 70
2, 19973, Note_on_c, 0, 61, 0
2, 19991, Note_on_c, 0, 77, 0
2, 20013, Note_on_c, 0, 75, 68
2, 20049, Note_on_c, 0, 60, 67
2, 20078, Note_on_c, 0, 60, 0
2, 20088, Note_on_c, 0, 75, 0
2, 20116, Note_on_c, 0, 77, 66
2, 20180, Note_on_c, 0, 79, 71
2, 20181, Note_on_c, 0, 77, 0
2, 20218, Note_on_c, 0, 58, 58
2, 20245, Note_on_c, 0, 58, 0
2, 20272, Note_on_c, 0, 79, 0
2, 20288, Note_on_c, 0, 75, 67
2, 20367, Note_on_c, 0, 75, 0
2, 20373, Note_on_c, 0, 60, 66
2, 20382, Note_on_c, 0, 80, 75
2, 20408, Note_on_c, 0, 80, 0
2, 20416, Note_on_c, 0, 60, 0
2, 20455, Note_on_c, 0, 58, 54
2, 20520, Note_on_c, 0, 58, 0
2, 20555, Note_on_c, 0, 56, 55
2, 20560, Note_on_c, 0, 68, 68
2, 20593, Note_on_c, 0, 68, 0
2, 20618, Note_on_c, 0, 56, 0
2, 20640, Note_on_c, 0, 58, 56
2, 20683, Note_on_c, 0, 58, 0
2, 20734, Note_on_c, 0, 80, 79
2, 20746, Note_on_c, 0, 60, 53
2, 20797, Note_on_c, 0, 60, 0
2, 20849, Note_on_c, 0, 56, 62
2, 20896, Note_on_c, 0, 56, 0
2, 20932, Note_on_c, 0, 62, 69
2, 20967, Note_on_c, 0, 62, 0
2, 21013, Note_on_c, 0, 60, 62
2, 21088, Note_on_c, 0, 60, 0
2, 21102, Note_on_c, 0, 78, 74
2, 21116, Note_on_c, 0, 58, 62
2, 21125, Note_on_c, 0, 80, 0
2, 21168, Note_on_c, 0, 78, 0
2, 21193, Note_on_c, 0, 58, 0
2, 21207, Note_on_c, 0, 60, 62
2, 21237, Note_on_c, 0, 60, 0
2, 21290, Note_on_c, 0, 77, 74
2, 21301, Note_on_c, 0, 62, 47
2, 21338, Note_on_c, 0, 77, 0
2, 21340, Note_on_c, 0, 62, 0
2, 21369, Note_on_c, 0, 58, 46
2, 21406, Note_on_c, 0, 58, 0
2, 21460, Note_on_c, 0, 78, 74
2, 21464, Note_on_c, 0, 63, 63
2, 21505, Note_on_c, 0, 78, 0
2, 21536, Note_on_c, 0, 63, 0
2, 21559, Note_on_c, 0, 62, 54
2, 21620, Note_on_c, 0, 62, 0
2, 21648, Note_on_c, 0, 63, 58
2, 21648, Note_on_c, 0, 66, 64
2, 21688, Note_on_c, 0, 66, 0
2, 21690, Note_on_c, 0, 63, 0
2, 21730, Note_on_c, 0, 65, 57
2, 21785, Note_on_c, 0, 65, 0
2, 21819, Note_on_c, 0, 63, 55
2, 21843, Note_on_c, 0, 78, 67
2, 21905, Note_on_c, 0, 63, 0
2, 21908, Note_on_c, 0, 61, 55
2, 21951, Note_on_c, 0, 61, 0
2, 21994, Note_on_c, 0, 60, 64
2, 22063, Note_on_c, 0, 60, 0
2, 22087, Note_on_c, 0, 58, 59
2, 22147, Note_on_c, 0, 78, 0
2, 22161, Note_on_c, 0, 58, 0
2, 22181, Note_on_c, 0, 56, 59
2, 22189, Note_on_c, 0, 77, 72
2, 22238, Note_on_c, 0, 56, 0
2, 22246, Note_on_c, 0, 77, 0
2, 22274, Note_on_c, 0, 58, 44
2, 22306, Note_on_c, 0, 58, 0
2, 22362, Note_on_c, 0, 60, 57
2, 22378, Note_on_c, 0, 75, 66
2, 22412, Note_on_c, 0, 75, 0
2, 22416, Note_on_c, 0, 60, 0
2, 22474, Note_on_c, 0, 56, 48
2, 22523, Note_on_c, 0, 56, 0
2, 22553, Note_on_c, 0, 77, 66
2, 22560, Note_on_c, 0, 61, 70
2, 22592, Note_on_c, 0, 61, 0
2, 22626, Note_on_c, 0, 77, 0
2, 22640, Note_on_c, 0, 75, 63
2, 22680, Note_on_c, 0, 75, 0
2, 22712, Note_on_c, 0, 73, 57
2, 22730, Note_on_c, 0, 49, 59
2, 22776, Note_on_c, 0, 49, 0
2, 22786, Note_on_c, 0, 73, 0
2, 22805, Note_on_c, 0, 75, 59
2, 22867, Note_on_c, 0, 75, 0
2, 22898, Note_on_c, 0, 77, 63
2, 22906, Note_on_c, 0, 61, 75
2, 22941, Note_on_c, 0, 77, 0
2, 22987, Note_on_c, 0, 73, 77
2, 23037, Note_on_c, 0, 73, 0
2, 23086, Note_on_c, 0, 79, 68
2, 23166, Note_on_c, 0, 77, 76
2, 23167, Note_on_c, 0, 79, 0
2, 23230, Note_on_c, 0, 61, 0
2, 23234, Note_on_c, 0, 77, 0
2, 23260, Note_on_c, 0, 75, 77
2, 23269, Note_on_c, 0, 59, 71
2, 23298, Note_on_c, 0, 59, 0
2, 23336, Note_on_c, 0, 75, 0
2, 23347, Note_on_c, 0, 77, 71
2, 23433, Note_on_c, 0, 77, 0
2, 23442, Note_on_c, 0, 79, 71
2, 23448, Note_on_c, 0, 58, 75
2, 23477, Note_on_c, 0, 58, 0
2, 23503, Note_on_c, 0, 79, 0
2, 23525, Note_on_c, 0, 75, 73
2, 23617, Note_on_c, 0, 80, 72
2, 23618, Note_on_c, 0, 59, 79
2, 23623, Note_on_c, 0, 75, 0
2, 23653, Note_on_c, 0, 59, 0
2, 23711, Note_on_c, 0, 79, 68
2, 23795, Note_on_c, 0, 47, 69
2, 23828, Note_on_c, 0, 79, 0
2, 23835, Note_on_c, 0, 47, 0
2, 23862, Note_on_c, 0, 82, 72
2, 23871, Note_on_c, 0, 80, 0
2, 23962, Note_on_c, 0, 80, 76
2, 23972, Note_on_c, 0, 59, 80
2, 23978, Note_on_c, 0, 82, 0
2, 24052, Note_on_c, 0, 78, 71
2, 24065, Note_on_c, 0, 80, 0
2, 24134, Note_on_c, 0, 78, 0
2, 24143, Note_on_c, 0, 77, 79
2, 24215, Note_on_c, 0, 77, 0
2, 24227, Note_on_c, 0, 75, 72
2, 24296, Note_on_c, 0, 75, 0
2, 24317, Note_on_c, 0, 59, 0
2, 24319, Note_on_c, 0, 73, 71
2, 24320, Note_on_c, 0, 58, 68
2, 24353, Note_on_c, 0, 58, 0
2, 24382, Note_on_c, 0, 73, 0
2, 24402, Note_on_c, 0, 75, 67
2, 24452, Note_on_c, 0, 75, 0
2, 24495, Note_on_c, 0, 77, 59
2, 24504, Note_on_c, 0, 56, 54
2, 24528, Note_on_c, 0, 56, 0
2, 24540, Note_on_c, 0, 77, 0
2, 24577, Note_on_c, 0, 73, 50
2, 24663, Note_on_c, 0, 73, 0
2, 24676, Note_on_c, 0, 58, 50
2, 24688, Note_on_c, 0, 66, 44
2, 24729, Note_on_c, 0, 58, 0
2, 24768, Note_on_c, 0, 54, 42
2, 24829, Note_on_c, 0, 54, 0
2, 24854, Note_on_c, 0, 49, 42
2, 24911, Note_on_c, 0, 49, 0
2, 24963, Note_on_c, 0, 54, 47
2, 25008, Note_on_c, 0, 54, 0
2, 25027, Note_on_c, 0, 78, 62
2, 25037, Note_on_c, 0, 66, 0
2, 25041, Note_on_c, 0, 58, 53
2, 25073, Note_on_c, 0, 78, 0
2, 25085, Note_on_c, 0, 58, 0
2, 25128, Note_on_c, 0, 54, 50
2, 25174, Note_on_c, 0, 54, 0
2, 25203, Note_on_c, 0, 59, 66
2, 25217, Note_on_c, 0, 68, 66
2, 25282, Note_on_c, 0, 59, 0
2, 25295, Note_on_c, 0, 54, 60
2, 25372, Note_on_c, 0, 54, 0
2, 25396, Note_on_c, 0, 59, 64
2, 25456, Note_on_c, 0, 59, 0
2, 25485, Note_on_c, 0, 54, 65
2, 25546, Note_on_c, 0, 54, 0
2, 25560, Note_on_c, 0, 59, 72
2, 25566, Note_on_c, 0, 78, 69
2, 25582, Note_on_c, 0, 68, 0
2, 25609, Note_on_c, 0, 59, 0
2, 25629, Note_on_c, 0, 78, 0
2, 25658, Note_on_c, 0, 54, 66
2, 25722, Note_on_c, 0, 54, 0
2, 25744, Note_on_c, 0, 61, 71
2, 25751, Note_on_c, 0, 70, 82
2, 25803, Note_on_c, 0, 61, 0
2, 25835, Note_on_c, 0, 54, 70
2, 25898, Note_on_c, 0, 54, 0
2, 25915, Note_on_c, 0, 61, 73
2, 25967, Note_on_c, 0, 61, 0
2, 25988, Note_on_c, 0, 54, 69
2, 26060, Note_on_c, 0, 54, 0
2, 26081, Note_on_c, 0, 61, 70
2, 26100, Note_on_c, 0, 78, 75
2, 26111, Note_on_c, 0, 70, 0
2, 26140, Note_on_c, 0, 61, 0
2, 26157, Note_on_c, 0, 78, 0
2, 26166, Note_on_c, 0, 54, 67
2, 26250, Note_on_c, 0, 54, 0
2, 26280, Note_on_c, 0, 63, 69
2, 26284, Note_on_c, 0, 71, 82
2, 26345, Note_on_c, 0, 63, 0
2, 26372, Note_on_c, 0, 54, 69
2, 26438, Note_on_c, 0, 54, 0
2, 26460, Note_on_c, 0, 63, 69
2, 26519, Note_on_c, 0, 63, 0
2, 26546, Note_on_c, 0, 54, 61
2, 26606, Note_on_c, 0, 54, 0
2, 26632, Note_on_c, 0, 63, 64
2, 26649, Note_on_c, 0, 71, 0
2, 26653, Note_on_c, 0, 78, 65
2, 26689, Note_on_c, 0, 63, 0
2, 26699, Note_on_c, 0, 78, 0
2, 26735, Note_on_c, 0, 54, 57
2, 26781, Note_on_c, 0, 54, 0
2, 26826, Note_on_c, 0, 61, 59
2, 26827, Note_on_c, 0, 70, 70
2, 26865, Note_on_c, 0, 61, 0
2, 26906, Note_on_c, 0, 54, 60
2, 26967, Note_on_c, 0, 54, 0
2, 26998, Note_on_c, 0, 61, 60
2, 27050, Note_on_c, 0, 61, 0
2, 27090, Note_on_c, 0, 54, 57
2, 27126, Note_on_c, 0, 54, 0
2, 27170, Note_on_c, 0, 61, 55
2, 27186, Note_on_c, 0, 78, 60
2, 27188, Note_on_c, 0, 70, 0
2, 27213, Note_on_c, 0, 61, 0
2, 27228, Note_on_c, 0, 54, 51
2, 27237, Note_on_c, 0, 78, 0
2, 27329, Note_on_c, 0, 54, 0
2, 27338, Note_on_c, 0, 59, 58
2, 27365, Note_on_c, 0, 68, 62
2, 27421, Note_on_c, 0, 59, 0
2, 27438, Note_on_c, 0, 58, 54
2, 27481, Note_on_c, 0, 58, 0
2, 27506, Note_on_c, 0, 56, 60
2, 27562, Note_on_c, 0, 56, 0
2, 27613, Note_on_c, 0, 58, 33
2, 27646, Note_on_c, 0, 58, 0
2, 27659, Note_on_c, 0, 59, 53
2, 27683, Note_on_c, 0, 77, 64
2, 27693, Note_on_c, 0, 68, 0
2, 27708, Note_on_c, 0, 59, 0
2, 27732, Note_on_c, 0, 77, 0
2, 27759, Note_on_c, 0, 56, 54
2, 27817, Note_on_c, 0, 56, 0
2, 27864, Note_on_c, 0, 66, 62
2, 27865, Note_on_c, 0, 58, 57
2, 27924, Note_on_c, 0, 58, 0
2, 27947, Note_on_c, 0, 56, 60
2, 27989, Note_on_c, 0, 66, 0
2, 27994, Note_on_c, 0, 56, 0
2, 28023, Note_on_c, 0, 54, 63
2, 28082, Note_on_c, 0, 54, 0
2, 28117, Note_on_c, 0, 56, 60
2, 28168, Note_on_c, 0, 56, 0
2, 28187, Note_on_c, 0, 58, 59
2, 28206, Note_on_c, 0, 78, 76
2, 28239, Note_on_c, 0, 58, 0
2, 28266, Note_on_c, 0, 54, 57
2, 28329, Note_on_c, 0, 54, 0
2, 28358, Note_on_c, 0, 56, 56
2, 28400, Note_on_c, 0, 56, 0
2, 28425, Note_on_c, 0, 58, 67
2, 28509, Note_on_c, 0, 58, 0
2, 28525, Note_on_c, 0, 56, 58
2, 28542, Note_on_c, 0, 77, 70
2, 28599, Note_on_c, 0, 78, 0
2, 28603, Note_on_c, 0, 54, 63
2, 28610, Note_on_c, 0, 56, 0
2, 28626, Note_on_c, 0, 75, 71
2, 28632, Note_on_c, 0, 54, 0
2, 28638, Note_on_c, 0, 77, 0
2, 28686, Note_on_c, 0, 53, 61
2, 28702, Note_on_c, 0, 75, 0
2, 28708, Note_on_c, 0, 73, 69
2, 28732, Note_on_c, 0, 53, 0
2, 28776, Note_on_c, 0, 73, 0
2, 28796, Note_on_c, 0, 51, 51
2, 28798, Note_on_c, 0, 75, 61
2, 28853, Note_on_c, 0, 75, 0
2, 28855, Note_on_c, 0, 51, 0
2, 28912, Note_on_c, 0, 49, 41
2, 28921, Note_on_c, 0, 77, 49
2, 28975, Note_on_c, 0, 77, 0
2, 29004, Note_on_c, 0, 73, 48
2, 29069, Note_on_c, 0, 73, 0
2, 29104, Note_on_c, 0, 68, 43
2, 29153, Note_on_c, 0, 68, 0
2, 29176, Note_on_c, 0, 73, 47
2, 29195, Note_on_c, 0, 49, 0
2, 29230, Note_on_c, 0, 73, 0
2, 29245, Note_on_c, 0, 61, 46
2, 29268, Note_on_c, 0, 77, 45
2, 29295, Note_on_c, 0, 77, 0
2, 29314, Note_on_c, 0, 61, 0
2, 29342, Note_on_c, 0, 73, 54
2, 29388, Note_on_c, 0, 73, 0
2, 29423, Note_on_c, 0, 51, 49
2, 29436, Note_on_c, 0, 78, 59
2, 29487, Note_on_c, 0, 78, 0
2, 29515, Note_on_c, 0, 73, 58
2, 29581, Note_on_c, 0, 73, 0
2, 29614, Note_on_c, 0, 78, 64
2, 29667, Note_on_c, 0, 78, 0
2, 29685, Note_on_c, 0, 73, 61
2, 29744, Note_on_c, 0, 73, 0
2, 29750, Note_on_c, 0, 51, 0
2, 29768, Note_on_c, 0, 61, 60
2, 29784, Note_on_c, 0, 78, 67
2, 29818, Note_on_c, 0, 61, 0
2, 29825, Note_on_c, 0, 78, 0
2, 29849, Note_on_c, 0, 73, 64
2, 29912, Note_on_c, 0, 73, 0
2, 29941, Note_on_c, 0, 53, 68
2, 29943, Note_on_c, 0, 80, 76
2, 30014, Note_on_c, 0, 80, 0
2, 30015, Note_on_c, 0, 73, 70
2, 30099, Note_on_c, 0, 73, 0
2, 30119, Note_on_c, 0, 80, 76
2, 30184, Note_on_c, 0, 80, 0
2, 30189, Note_on_c, 0, 73, 69
2, 30266, Note_on_c, 0, 73, 0
2, 30294, Note_on_c, 0, 53, 0
2, 30294, Note_on_c, 0, 80, 75
2, 30307, Note_on_c, 0, 61, 68
2, 30340, Note_on_c, 0, 61, 0
2, 30352, Note_on_c, 0, 80, 0
2, 30364, Note_on_c, 0, 73, 69
2, 30438, Note_on_c, 0, 73, 0
2, 30468, Note_on_c, 0, 82, 80
2, 30472, Note_on_c, 0, 54, 78
2, 30540, Note_on_c, 0, 73, 73
2, 30542, Note_on_c, 0, 82, 0
2, 30628, Note_on_c, 0, 73, 0
2, 30639, Note_on_c, 0, 82, 82
2, 30710, Note_on_c, 0, 82, 0
2, 30713, Note_on_c, 0, 73, 72
2, 30792, Note_on_c, 0, 73, 0
2, 30815, Note_on_c, 0, 54, 0
2, 30822, Note_on_c, 0, 82, 76
2, 30832, Note_on_c, 0, 61, 60
2, 30865, Note_on_c, 0, 61, 0
2, 30874, Note_on_c, 0, 82, 0
2, 30899, Note_on_c, 0, 73, 64
2, 30962, Note_on_c, 0, 73, 0
2, 30988, Note_on_c, 0, 80, 70
2, 31007, Note_on_c, 0, 53, 58
2, 31063, Note_on_c, 0, 80, 0
2, 31079, Note_on_c, 0, 73, 63
2, 31146, Note_on_c, 0, 73, 0
2, 31178, Note_on_c, 0, 80, 60
2, 31215, Note_on_c, 0, 80, 0
2, 31248, Note_on_c, 0, 73, 58
2, 31292, Note_on_c, 0, 73, 0
2, 31304, Note_on_c, 0, 53, 0
2, 31324, Note_on_c, 0, 61, 46
2, 31327, Note_on_c, 0, 80, 58
2, 31356, Note_on_c, 0, 61, 0
2, 31386, Note_on_c, 0, 80, 0
2, 31404, Note_on_c, 0, 73, 63
2, 31460, Note_on_c, 0, 73, 0
2, 31498, Note_on_c, 0, 51, 56
2, 31502, Note_on_c, 0, 78, 63
2, 31590, Note_on_c, 0, 77, 63
2, 31658, Note_on_c, 0, 78, 0
2, 31666, Note_on_c, 0, 75, 70
2, 31666, Note_on_c, 0, 77, 0
2, 31715, Note_on_c, 0, 75, 0
2, 31755, Note_on_c, 0, 77, 63
2, 31804, Note_on_c, 0, 51, 0
2, 31812, Note_on_c, 0, 77, 0
2, 31829, Note_on_c, 0, 78, 71
2, 31831, Note_on_c, 0, 60, 51
2, 31858, Note_on_c, 0, 60, 0
2, 31890, Note_on_c, 0, 78, 0
2, 31908, Note_on_c, 0, 75, 66
2, 31974, Note_on_c, 0, 75, 0
2, 31996, Note_on_c, 0, 77, 71
2, 32002, Note_on_c, 0, 49, 61
2, 32064, Note_on_c, 0, 77, 0
2, 32081, Note_on_c, 0, 75, 65
2, 32150, Note_on_c, 0, 75, 0
2, 32159, Note_on_c, 0, 73, 66
2, 32230, Note_on_c, 0, 73, 0
2, 32231, Note_on_c, 0, 75, 64
2, 32300, Note_on_c, 0, 75, 0
2, 32322, Note_on_c, 0, 77, 65
2, 32326, Note_on_c, 0, 61, 68
2, 32357, Note_on_c, 0, 49, 0
2, 32370, Note_on_c, 0, 61, 0
2, 32379, Note_on_c, 0, 77, 0
2, 32408, Note_on_c, 0, 73, 66
2, 32462, Note_on_c, 0, 73, 0
2, 32503, Note_on_c, 0, 75, 70
2, 32514, Note_on_c, 0, 54, 70
2, 32556, Note_on_c, 0, 54, 0
2, 32556, Note_on_c, 0, 75, 0
2, 32578, Note_on_c, 0, 77, 75
2, 32664, Note_on_c, 0, 77, 0
2, 32674, Note_on_c, 0, 75, 66
2, 32675, Note_on_c, 0, 53, 63
2, 32716, Note_on_c, 0, 53, 0
2, 32716, Note_on_c, 0, 75, 0
2, 32741, Note_on_c, 0, 73, 62
2, 32791, Note_on_c, 0, 73, 0
2, 32829, Note_on_c, 0, 72, 63
2, 32834, Note_on_c, 0, 51, 65
2, 32866, Note_on_c, 0, 51, 0
2, 32873, Note_on_c, 0, 72, 0
2, 32908, Note_on_c, 0, 70, 59
2, 32962, Note_on_c, 0, 70, 0
2, 32993, Note_on_c, 0, 72, 65
2, 33001, Note_on_c, 0, 56, 57
2, 33039, Note_on_c, 0, 56, 0
2, 33043, Note_on_c, 0, 72, 0
2, 33081, Note_on_c, 0, 68, 50
2, 33116, Note_on_c, 0, 68, 0
2, 33205, Note_on_c, 0, 66, 13
2, 33252, Note_on_c, 0, 66, 0
2, 33256, Note_on_c, 0, 68, 47
2, 33308, Note_on_c, 0, 68, 0
2, 33346, Note_on_c, 0, 63, 54
2, 33387, Note_on_c, 0, 63, 0
2, 33434, Note_on_c, 0, 68, 48
2, 33477, Note_on_c, 0, 68, 0
2, 33511, Note_on_c, 0, 56, 61
2, 33517, Note_on_c, 0, 72, 54
2, 33555, Note_on_c, 0, 56, 0
2, 33559, Note_on_c, 0, 72, 0
2, 33620, Note_on_c, 0, 68, 39
2, 33658, Note_on_c, 0, 68, 0
2, 33692, Note_on_c, 0, 66, 43
2, 33727, Note_on_c, 0, 66, 0
2, 33770, Note_on_c, 0, 68, 45
2, 33820, Note_on_c, 0, 68, 0
2, 33843, Note_on_c, 0, 63, 49
2, 33885, Note_on_c, 0, 63, 0
2, 33951, Note_on_c, 0, 68, 47
2, 33994, Note_on_c, 0, 68, 0
2, 34024, Note_on_c, 0, 56, 56
2, 34040, Note_on_c, 0, 73, 49
2, 34074, Note_on_c, 0, 56, 0
2, 34082, Note_on_c, 0, 73, 0
2, 34120, Note_on_c, 0, 68, 49
2, 34157, Note_on_c, 0, 68, 0
2, 34202, Note_on_c, 0, 65, 60
2, 34244, Note_on_c, 0, 65, 0
2, 34278, Note_on_c, 0, 68, 52
2, 34324, Note_on_c, 0, 68, 0
2, 34374, Note_on_c, 0, 61, 48
2, 34409, Note_on_c, 0, 61, 0
2, 34446, Note_on_c, 0, 68, 47
2, 34492, Note_on_c, 0, 68, 0
2, 34525, Note_on_c, 0, 73, 58
2, 34532, Note_on_c, 0, 56, 52
2, 34570, Note_on_c, 0, 73, 0
2, 34578, Note_on_c, 0, 56, 0
2, 34618, Note_on_c, 0, 68, 47
2, 34663, Note_on_c, 0, 68, 0
2, 34703, Note_on_c, 0, 65, 51
2, 34739, Note_on_c, 0, 65, 0
2, 34770, Note_on_c, 0, 68, 55
2, 34816, Note_on_c, 0, 68, 0
2, 34881, Note_on_c, 0, 61, 44
2, 34914, Note_on_c, 0, 61, 0
2, 34954, Note_on_c, 0, 68, 46
2, 34994, Note_on_c, 0, 68, 0
2, 35030, Note_on_c, 0, 78, 69
2, 35052, Note_on_c, 0, 56, 50
2, 35095, Note_on_c, 0, 56, 0
2, 35099, Note_on_c, 0, 78, 0
2, 35113, Note_on_c, 0, 68, 51
2, 35146, Note_on_c, 0, 68, 0
2, 35200, Note_on_c, 0, 63, 59
2, 35245, Note_on_c, 0, 63, 0
2, 35272, Note_on_c, 0, 68, 48
2, 35311, Note_on_c, 0, 68, 0
2, 35363, Note_on_c, 0, 60, 54
2, 35415, Note_on_c, 0, 60, 0
2, 35435, Note_on_c, 0, 68, 52
2, 35496, Note_on_c, 0, 68, 0
2, 35532, Note_on_c, 0, 78, 67
2, 35541, Note_on_c, 0, 56, 57
2, 35588, Note_on_c, 0, 56, 0
2, 35607, Note_on_c, 0, 78, 0
2, 35627, Note_on_c, 0, 68, 50
2, 35660, Note_on_c, 0, 68, 0
2, 35702, Note_on_c, 0, 63, 61
2, 35750, Note_on_c, 0, 63, 0
2, 35782, Note_on_c, 0, 68, 54
2, 35825, Note_on_c, 0, 68, 0
2, 35864, Note_on_c, 0, 60, 55
2, 35900, Note_on_c, 0, 60, 0
2, 35940, Note_on_c, 0, 68, 58
2, 35998, Note_on_c, 0, 68, 0
2, 36030, Note_on_c, 0, 77, 75
2, 36033, Note_on_c, 0, 56, 66
2, 36081, Note_on_c, 0, 56, 0
2, 36115, Note_on_c, 0, 77, 0
2, 36119, Note_on_c, 0, 68, 62
2, 36153, Note_on_c, 0, 68, 0
2, 36226, Note_on_c, 0, 65, 64
2, 36260, Note_on_c, 0, 65, 0
2, 36277, Note_on_c, 0, 68, 64
2, 36336, Note_on_c, 0, 68, 0
2, 36370, Note_on_c, 0, 61, 71
2, 36412, Note_on_c, 0, 61, 0
2, 36449, Note_on_c, 0, 68, 65
2, 36506, Note_on_c, 0, 68, 0
2, 36533, Note_on_c, 0, 77, 81
2, 36543, Note_on_c, 0, 56, 66
2, 36578, Note_on_c, 0, 56, 0
2, 36610, Note_on_c, 0, 77, 0
2, 36622, Note_on_c, 0, 68, 71
2, 36669, Note_on_c, 0, 68, 0
2, 36700, Note_on_c, 0, 65, 67
2, 36734, Note_on_c, 0, 65, 0
2, 36775, Note_on_c, 0, 68, 75
2, 36824, Note_on_c, 0, 68, 0
2, 36862, Note_on_c, 0, 61, 77
2, 36926, Note_on_c, 0, 61, 0
2, 36928, Note_on_c, 0, 68, 74
2, 36996, Note_on_c, 0, 68, 0
2, 37021, Note_on_c, 0, 79, 82
2, 37034, Note_on_c, 0, 56, 75
2, 37072, Note_on_c, 0, 56, 0
2, 37102, Note_on_c, 0, 70, 72
2, 37109, Note_on_c, 0, 79, 0
2, 37141, Note_on_c, 0, 70, 0
2, 37188, Note_on_c, 0, 64, 73
2, 37225, Note_on_c, 0, 64, 0
2, 37274, Note_on_c, 0, 70, 72
2, 37326, Note_on_c, 0, 70, 0
2, 37345, Note_on_c, 0, 61, 75
2, 37378, Note_on_c, 0, 61, 0
2, 37433, Note_on_c, 0, 70, 74
2, 37495, Note_on_c, 0, 70, 0
2, 37510, Note_on_c, 0, 56, 78
2, 37515, Note_on_c, 0, 79, 86
2, 37577, Note_on_c, 0, 56, 0
2, 37601, Note_on_c, 0, 70, 78
2, 37604, Note_on_c, 0, 79, 0
2, 37653, Note_on_c, 0, 70, 0
2, 37666, Note_on_c, 0, 64, 80
2, 37730, Note_on_c, 0, 64, 0
2, 37759, Note_on_c, 0, 70, 79
2, 37813, Note_on_c, 0, 70, 0
2, 37831, Note_on_c, 0, 61, 82
2, 37883, Note_on_c, 0, 61, 0
2, 37918, Note_on_c, 0, 70, 72
2, 37991, Note_on_c, 0, 80, 80
2, 37995, Note_on_c, 0, 70, 0
2, 37997, Note_on_c, 0, 56, 81
2, 38060, Note_on_c, 0, 56, 0
2, 38076, Note_on_c, 0, 72, 82
2, 38120, Note_on_c, 0, 80, 0
2, 38142, Note_on_c, 0, 72, 0
2, 38160, Note_on_c, 0, 63, 69
2, 38192, Note_on_c, 0, 63, 0
2, 38236, Note_on_c, 0, 72, 72
2, 38293, Note_on_c, 0, 72, 0
2, 38313, Note_on_c, 0, 60, 73
2, 38348, Note_on_c, 0, 60, 0
2, 38390, Note_on_c, 0, 72, 68
2, 38487, Note_on_c, 0, 72, 0
2, 38487, Note_on_c, 0, 80, 76
2, 38489, Note_on_c, 0, 54, 72
2, 38549, Note_on_c, 0, 54, 0
2, 38575, Note_on_c, 0, 80, 0
2, 38576, Note_on_c, 0, 72, 66
2, 38618, Note_on_c, 0, 72, 0
2, 38675, Note_on_c, 0, 63, 58
2, 38710, Note_on_c, 0, 63, 0
2, 38728, Note_on_c, 0, 72, 67
2, 38776, Note_on_c, 0, 72, 0
2, 38794, Note_on_c, 0, 60, 63
2, 38831, Note_on_c, 0, 60, 0
2, 38892, Note_on_c, 0, 72, 58
2, 38933, Note_on_c, 0, 72, 0
2, 38964, Note_on_c, 0, 53, 48
2, 38964, Note_on_c, 0, 80, 56
2, 39008, Note_on_c, 0, 53, 0
2, 39049, Note_on_c, 0, 80, 0
2, 39056, Note_on_c, 0, 73, 57
2, 39095, Note_on_c, 0, 73, 0
2, 39128, Note_on_c, 0, 65, 59
2, 39169, Note_on_c, 0, 65, 0
2, 39203, Note_on_c, 0, 68, 67
2, 39259, Note_on_c, 0, 68, 0
2, 39301, Note_on_c, 0, 61, 71
2, 39368, Note_on_c, 0, 61, 0
2, 39378, Note_on_c, 0, 73, 68
2, 39414, Note_on_c, 0, 73, 0
2, 39454, Note_on_c, 0, 56, 72
2, 39513, Note_on_c, 0, 56, 0
2, 39532, Note_on_c, 0, 77, 82
2, 39582, Note_on_c, 0, 77, 0
2, 39613, Note_on_c, 0, 53, 66
2, 39653, Note_on_c, 0, 53, 0
2, 39692, Note_on_c, 0, 80, 77
2, 39733, Note_on_c, 0, 80, 0
2, 39775, Note_on_c, 0, 51, 81
2, 39842, Note_on_c, 0, 51, 0
2, 39849, Note_on_c, 0, 82, 75
2, 39927, Note_on_c, 0, 82, 0
2, 39930, Note_on_c, 0, 83, 79
2, 39934, Note_on_c, 0, 50, 70
2, 40018, Note_on_c, 0, 50, 0
2, 40018, Note_on_c, 0, 82, 78
2, 40026, Note_on_c, 0, 83, 0
2, 40100, Note_on_c, 0, 53, 68
2, 40100, Note_on_c, 0, 80, 78
2, 40117, Note_on_c, 0, 82, 0
2, 40150, Note_on_c, 0, 53, 0
2, 40179, Note_on_c, 0, 78, 78
2, 40182, Note_on_c, 0, 80, 0
2, 40250, Note_on_c, 0, 78, 0
2, 40256, Note_on_c, 0, 58, 66
2, 40257, Note_on_c, 0, 77, 83
2, 40295, Note_on_c, 0, 58, 0
2, 40335, Note_on_c, 0, 75, 78
2, 40335, Note_on_c, 0, 77, 0
2, 40404, Note_on_c, 0, 75, 0
2, 40417, Note_on_c, 0, 77, 84
2, 40430, Note_on_c, 0, 62, 66
2, 40481, Note_on_c, 0, 62, 0
2, 40494, Note_on_c, 0, 77, 0
2, 40496, Note_on_c, 0, 78, 76
2, 40557, Note_on_c, 0, 78, 0
2, 40577, Note_on_c, 0, 80, 81
2, 40590, Note_on_c, 0, 65, 62
2, 40656, Note_on_c, 0, 83, 83
2, 40665, Note_on_c, 0, 80, 0
2, 40683, Note_on_c, 0, 65, 0
2, 40739, Note_on_c, 0, 82, 82
2, 40746, Note_on_c, 0, 83, 0
2, 40749, Note_on_c, 0, 68, 67
2, 40779, Note_on_c, 0, 68, 0
2, 40822, Note_on_c, 0, 80, 72
2, 40834, Note_on_c, 0, 82, 0
2, 40919, Note_on_c, 0, 66, 71
2, 40924, Note_on_c, 0, 80, 0
2, 40924, Note_on_c, 0, 82, 77
2, 40964, Note_on_c, 0, 66, 0
2, 41007, Note_on_c, 0, 75, 78
2, 41014, Note_on_c, 0, 82, 0
2, 41054, Note_on_c, 0, 75, 0
2, 41099, Note_on_c, 0, 63, 65
2, 41138, Note_on_c, 0, 63, 0
2, 41164, Note_on_c, 0, 66, 69
2, 41208, Note_on_c, 0, 66, 0
2, 41267, Note_on_c, 0, 58, 65
2, 41300, Note_on_c, 0, 58, 0
2, 41339, Note_on_c, 0, 70, 70
2, 41383, Note_on_c, 0, 70, 0
2, 41429, Note_on_c, 0, 54, 57
2, 41466, Note_on_c, 0, 54, 0
2, 41500, Note_on_c, 0, 75, 73
2, 41535, Note_on_c, 0, 75, 0
2, 41603, Note_on_c, 0, 51, 66
2, 41645, Note_on_c, 0, 51, 0
2, 41662, Note_on_c, 0, 78, 65
2, 41699, Note_on_c, 0, 78, 0
2, 41762, Note_on_c, 0, 49, 64
2, 41821, Note_on_c, 0, 80, 59
2, 41823, Note_on_c, 0, 49, 0
2, 41906, Note_on_c, 0, 80, 0
2, 41912, Note_on_c, 0, 81, 62
2, 41927, Note_on_c, 0, 48, 53
2, 41970, Note_on_c, 0, 48, 0
2, 41997, Note_on_c, 0, 81, 0
2, 42000, Note_on_c, 0, 80, 68
2, 42076, Note_on_c, 0, 51, 63
2, 42077, Note_on_c, 0, 78, 67
2, 42093, Note_on_c, 0, 80, 0
2, 42124, Note_on_c, 0, 51, 0
2, 42145, Note_on_c, 0, 78, 0
2, 42149, Note_on_c, 0, 76, 67
2, 42218, Note_on_c, 0, 76, 0
2, 42237, Note_on_c, 0, 56, 58
2, 42237, Note_on_c, 0, 75, 66
2, 42279, Note_on_c, 0, 56, 0
2, 42285, Note_on_c, 0, 75, 0
2, 42304, Note_on_c, 0, 73, 71
2, 42374, Note_on_c, 0, 73, 0
2, 42404, Note_on_c, 0, 75, 68
2, 42420, Note_on_c, 0, 60, 60
2, 42445, Note_on_c, 0, 75, 0
2, 42483, Note_on_c, 0, 60, 0
2, 42483, Note_on_c, 0, 76, 69
2, 42539, Note_on_c, 0, 76, 0
2, 42572, Note_on_c, 0, 63, 52
2, 42575, Note_on_c, 0, 78, 72
2, 42651, Note_on_c, 0, 81, 67
2, 42654, Note_on_c, 0, 63, 0
2, 42654, Note_on_c, 0, 78, 0
2, 42735, Note_on_c, 0, 66, 60
2, 42743, Note_on_c, 0, 81, 0
2, 42745, Note_on_c, 0, 80, 67
2, 42773, Note_on_c, 0, 66, 0
2, 42824, Note_on_c, 0, 78, 68
2, 42828, Note_on_c, 0, 80, 0
2, 42901, Note_on_c, 0, 64, 54
2, 42912, Note_on_c, 0, 78, 0
2, 42928, Note_on_c, 0, 80, 68
2, 42937, Note_on_c, 0, 64, 0
2, 42998, Note_on_c, 0, 80, 0
2, 43007, Note_on_c, 0, 73, 58
2, 43042, Note_on_c, 0, 73, 0
2, 43077, Note_on_c, 0, 61, 59
2, 43123, Note_on_c, 0, 61, 0
2, 43163, Note_on_c, 0, 76, 65
2, 43221, Note_on_c, 0, 76, 0
2, 43257, Note_on_c, 0, 57, 66
2, 43303, Note_on_c, 0, 57, 0
2, 43320, Note_on_c, 0, 73, 61
2, 43370, Note_on_c, 0, 73, 0
2, 43427, Note_on_c, 0, 54, 61
2, 43473, Note_on_c, 0, 54, 0
2, 43500, Note_on_c, 0, 69, 53
2, 43539, Note_on_c, 0, 69, 0
2, 43599, Note_on_c, 0, 63, 61
2, 43640, Note_on_c, 0, 63, 0
2, 43669, Note_on_c, 0, 66, 51
2, 43707, Note_on_c, 0, 66, 0
2, 43748, Note_on_c, 0, 60, 66
2, 43804, Note_on_c, 0, 60, 0
2, 43823, Note_on_c, 0, 75, 63
2, 43885, Note_on_c, 0, 75, 0
2, 43920, Note_on_c, 0, 52, 64
2, 43966, Note_on_c, 0, 52, 0
2, 43992, Note_on_c, 0, 68, 60
2, 44031, Note_on_c, 0, 68, 0
2, 44076, Note_on_c, 0, 61, 70
2, 44127, Note_on_c, 0, 61, 0
2, 44162, Note_on_c, 0, 64, 59
2, 44201, Note_on_c, 0, 64, 0
2, 44243, Note_on_c, 0, 57, 68
2, 44278, Note_on_c, 0, 57, 0
2, 44313, Note_on_c, 0, 73, 69
2, 44371, Note_on_c, 0, 73, 0
2, 44398, Note_on_c, 0, 54, 73
2, 44434, Note_on_c, 0, 54, 0
2, 44475, Note_on_c, 0, 69, 67
2, 44526, Note_on_c, 0, 69, 0
2, 44557, Note_on_c, 0, 51, 73
2, 44599, Note_on_c, 0, 51, 0
2, 44648, Note_on_c, 0, 66, 65
2, 44711, Note_on_c, 0, 66, 0
2, 44716, Note_on_c, 0, 48, 62
2, 44755, Note_on_c, 0, 48, 0
2, 44797, Note_on_c, 0, 63, 55
2, 44850, Note_on_c, 0, 63, 0
2, 44882, Note_on_c, 0, 44, 58
2, 44888, Note_on_c, 0, 60, 56
2, 44925, Note_on_c, 0, 44, 0
2, 44925, Note_on_c, 0, 60, 0
2, 44992, Note_on_c, 0, 56, 47
2, 45031, Note_on_c, 0, 56, 0
2, 45064, Note_on_c, 0, 54, 52
2, 45105, Note_on_c, 0, 54, 0
2, 45142, Note_on_c, 0, 56, 51
2, 45190, Note_on_c, 0, 56, 0
2, 45229, Note_on_c, 0, 51, 49
2, 45271, Note_on_c, 0, 51, 0
2, 45314, Note_on_c, 0, 56, 39
2, 45357, Note_on_c, 0, 56, 0
2, 45386, Note_on_c, 0, 60, 53
2, 45410, Note_on_c, 0, 44, 43
2, 45433, Note_on_c, 0, 60, 0
2, 45445, Note_on_c, 0, 44, 0
2, 45473, Note_on_c, 0, 56, 52
2, 45522, Note_on_c, 0, 56, 0
2, 45591, Note_on_c, 0, 54, 19
2, 45632, Note_on_c, 0, 54, 0
2, 45652, Note_on_c, 0, 56, 48
2, 45694, Note_on_c, 0, 56, 0
2, 45723, Note_on_c, 0, 51, 56
2, 45760, Note_on_c, 0, 51, 0
2, 45798, Note_on_c, 0, 56, 52
2, 45848, Note_on_c, 0, 56, 0
2, 45895, Note_on_c, 0, 61, 56
2, 45912, Note_on_c, 0, 44, 44
2, 45940, Note_on_c, 0, 61, 0
2, 45945, Note_on_c, 0, 44, 0
2, 45987, Note_on_c, 0, 56, 50
2, 46026, Note_on_c, 0, 56, 0
2, 46083, Note_on_c, 0, 53, 46
2, 46113, Note_on_c, 0, 53, 0
2, 46165, Note_on_c, 0, 56, 50
2, 46210, Note_on_c, 0, 56, 0
2, 46263, Note_on_c, 0, 49, 45
2, 46292, Note_on_c, 0, 49, 0
2, 46358, Note_on_c, 0, 56, 38
2, 46395, Note_on_c, 0, 56, 0
2, 46429, Note_on_c, 0, 61, 60
2, 46431, Note_on_c, 0, 44, 53
2, 46469, Note_on_c, 0, 44, 0
2, 46479, Note_on_c, 0, 61, 0
2, 46519, Note_on_c, 0, 56, 50
2, 46569, Note_on_c, 0, 56, 0
2, 46597, Note_on_c, 0, 53, 47
2, 46628, Note_on_c, 0, 53, 0
2, 46685, Note_on_c, 0, 56, 56
2, 46725, Note_on_c, 0, 56, 0
2, 46764, Note_on_c, 0, 49, 41
2, 46799, Note_on_c, 0, 49, 0
2, 46844, Note_on_c, 0, 56, 51
2, 46896, Note_on_c, 0, 56, 0
2, 46941, Note_on_c, 0, 44, 61
2, 46942, Note_on_c, 0, 66, 69
2, 46982, Note_on_c, 0, 44, 0
2, 47022, Note_on_c, 0, 66, 0
2, 47025, Note_on_c, 0, 56, 60
2, 47061, Note_on_c, 0, 56, 0
2, 47108, Note_on_c, 0, 51, 71
2, 47149, Note_on_c, 0, 51, 0
2, 47202, Note_on_c, 0, 56, 60
2, 47242, Note_on_c, 0, 56, 0
2, 47280, Note_on_c, 0, 48, 55
2, 47322, Note_on_c, 0, 48, 0
2, 47358, Note_on_c, 0, 56, 60
2, 47414, Note_on_c, 0, 56, 0
2, 47451, Note_on_c, 0, 66, 73
2, 47453, Note_on_c, 0, 44, 66
2, 47498, Note_on_c, 0, 44, 0
2, 47529, Note_on_c, 0, 56, 73
2, 47533, Note_on_c, 0, 66, 0
2, 47575, Note_on_c, 0, 56, 0
2, 47609, Note_on_c, 0, 51, 77
2, 47661, Note_on_c, 0, 51, 0
2, 47709, Note_on_c, 0, 56, 73
2, 47751, Note_on_c, 0, 56, 0
2, 47787, Note_on_c, 0, 48, 65
2, 47825, Note_on_c, 0, 48, 0
2, 47868, Note_on_c, 0, 56, 70
2, 47926, Note_on_c, 0, 56, 0
2, 47949, Note_on_c, 0, 65, 80
2, 47956, Note_on_c, 0, 44, 68
2, 47997, Note_on_c, 0, 44, 0
2, 48034, Note_on_c, 0, 56, 73
2, 48043, Note_on_c, 0, 65, 0
2, 48076, Note_on_c, 0, 56, 0
2, 48116, Note_on_c, 0, 53, 75
2, 48159, Note_on_c, 0, 53, 0
2, 48190, Note_on_c, 0, 56, 75
2, 48245, Note_on_c, 0, 56, 0
2, 48273, Note_on_c, 0, 49, 75
2, 48317, Note_on_c, 0, 49, 0
2, 48360, Note_on_c, 0, 56, 73
2, 48418, Note_on_c, 0, 56, 0
2, 48440, Note_on_c, 0, 44, 76
2, 48442, Note_on_c, 0, 65, 86
2, 48513, Note_on_c, 0, 44, 0
2, 48536, Note_on_c, 0, 56, 79
2, 48538, Note_on_c, 0, 65, 0
2, 48585, Note_on_c, 0, 56, 0
2, 48615, Note_on_c, 0, 53, 81
2, 48672, Note_on_c, 0, 53, 0
2, 48689, Note_on_c, 0, 56, 77
2, 48733, Note_on_c, 0, 56, 0
2, 48772, Note_on_c, 0, 49, 79
2, 48831, Note_on_c, 0, 49, 0
2, 48847, Note_on_c, 0, 56, 75
2, 48910, Note_on_c, 0, 56, 0
2, 48933, Note_on_c, 0, 67, 84
2, 48936, Note_on_c, 0, 44, 84
2, 48999, Note_on_c, 0, 44, 0
2, 49018, Note_on_c, 0, 58, 83
2, 49036, Note_on_c, 0, 67, 0
2, 49070, Note_on_c, 0, 58, 0
2, 49098, Note_on_c, 0, 52, 86
2, 49150, Note_on_c, 0, 52, 0
2, 49184, Note_on_c, 0, 58, 76
2, 49225, Note_on_c, 0, 58, 0
2, 49262, Note_on_c, 0, 49, 79
2, 49316, Note_on_c, 0, 49, 0
2, 49354, Note_on_c, 0, 58, 75
2, 49414, Note_on_c, 0, 58, 0
2, 49418, Note_on_c, 0, 44, 88
2, 49432, Note_on_c, 0, 67, 86
2, 49488, Note_on_c, 0, 44, 0
2, 49518, Note_on_c, 0, 58, 84
2, 49532, Note_on_c, 0, 67, 0
2, 49569, Note_on_c, 0, 58, 0
2, 49582, Note_on_c, 0, 52, 87
2, 49630, Note_on_c, 0, 52, 0
2, 49668, Note_on_c, 0, 58, 87
2, 49719, Note_on_c, 0, 58, 0
2, 49737, Note_on_c, 0, 49, 81
2, 49789, Note_on_c, 0, 49, 0
2, 49827, Note_on_c, 0, 58, 83
2, 49883, Note_on_c, 0, 58, 0
2, 49913, Note_on_c, 0, 44, 81
2, 49991, Note_on_c, 0, 48, 78
2, 50002, Note_on_c, 0, 44, 0
2, 50092, Note_on_c, 0, 51, 89
2, 50129, Note_on_c, 0, 48, 0
2, 50152, Note_on_c, 0, 51, 0
2, 50170, Note_on_c, 0, 54, 78
2, 50235, Note_on_c, 0, 54, 0
2, 50257, Note_on_c, 0, 57, 79
2, 50345, Note_on_c, 0, 60, 81
2, 50375, Note_on_c, 0, 57, 0
2, 50412, Note_on_c, 0, 61, 77
2, 50417, Note_on_c, 0, 60, 0
2, 50500, Note_on_c, 0, 64, 80
2, 50508, Note_on_c, 0, 61, 0
2, 50583, Note_on_c, 0, 67, 81
2, 50632, Note_on_c, 0, 64, 0
2, 50645, Note_on_c, 0, 67, 0
2, 50661, Note_on_c, 0, 70, 81
2, 50733, Note_on_c, 0, 73, 83
2, 50758, Note_on_c, 0, 70, 0
2, 50822, Note_on_c, 0, 76, 79
2, 50836, Note_on_c, 0, 73, 0
2, 50907, Note_on_c, 0, 44, 61
2, 50908, Note_on_c, 0, 72, 80
2, 50912, Note_on_c, 0, 76, 0
2, 50995, Note_on_c, 0, 75, 79
2, 51038, Note_on_c, 0, 72, 0
2, 51071, Note_on_c, 0, 75, 0
2, 51071, Note_on_c, 0, 78, 84
2, 51075, Note_on_c, 0, 44, 0
2, 51156, Note_on_c, 0, 75, 78
2, 51219, Note_on_c, 0, 78, 0
2, 51228, Note_on_c, 0, 72, 74
2, 51274, Note_on_c, 0, 75, 0
2, 51317, Note_on_c, 0, 68, 78
2, 51368, Note_on_c, 0, 72, 0
2, 51408, Note_on_c, 0, 66, 80
2, 51427, Note_on_c, 0, 68, 0
2, 51486, Note_on_c, 0, 63, 77
2, 51493, Note_on_c, 0, 66, 0
2, 51577, Note_on_c, 0, 60, 76
2, 51589, Note_on_c, 0, 63, 0
2, 51656, Note_on_c, 0, 60, 0
2, 51662, Note_on_c, 0, 56, 72
2, 51743, Note_on_c, 0, 56, 0
2, 51752, Note_on_c, 0, 60, 78
2, 51824, Note_on_c, 0, 60, 0
2, 51826, Note_on_c, 0, 63, 79
2, 51902, Note_on_c, 0, 65, 76
2, 51922, Note_on_c, 0, 56, 75
2, 51943, Note_on_c, 0, 63, 0
2, 51998, Note_on_c, 0, 68, 71
2, 52054, Note_on_c, 0, 56, 0
2, 52072, Note_on_c, 0, 73, 81
2, 52081, Note_on_c, 0, 68, 0
2, 52108, Note_on_c, 0, 65, 0
2, 52160, Note_on_c, 0, 68, 73
2, 52197, Note_on_c, 0, 73, 0
2, 52243, Note_on_c, 0, 65, 73
2, 52255, Note_on_c, 0, 68, 0
2, 52317, Note_on_c, 0, 61, 78
2, 52397, Note_on_c, 0, 65, 0
2, 52406, Note_on_c, 0, 58, 83
2, 52412, Note_on_c, 0, 61, 0
2, 52488, Note_on_c, 0, 55, 72
2, 52501, Note_on_c, 0, 58, 0
2, 52577, Note_on_c, 0, 52, 74
2, 52602, Note_on_c, 0, 55, 0
2, 52663, Note_on_c, 0, 49, 75
2, 52668, Note_on_c, 0, 52, 0
2, 52745, Note_on_c, 0, 52, 64
2, 52756, Note_on_c, 0, 49, 0
2, 52831, Note_on_c, 0, 55, 78
2, 52836, Note_on_c, 0, 52, 0
2, 52924, Note_on_c, 0, 55, 0
2, 52952, Note_on_c, 0, 44, 80
2, 53199, Note_on_c, 0, 73, 85
2, 53206, Note_on_c, 0, 68, 68
2, 53209, Note_on_c, 0, 65, 68
2, 53212, Note_on_c, 0, 56, 66
2, 53216, Note_on_c, 0, 49, 62
2, 53216, Note_on_c, 0, 53, 70
2, 53239, Note_on_c, 0, 65, 0
2, 53255, Note_on_c, 0, 56, 0
2, 53255, Note_on_c, 0, 68, 0
2, 53256, Note_on_c, 0, 73, 0
2, 53264, Note_on_c, 0, 53, 0
2, 53272, Note_on_c, 0, 49, 0
2, 53543, Note_on_c, 0, 54, 68
2, 53546, Note_on_c, 0, 51, 63
2, 53546, Note_on_c, 0, 56, 60
2, 53549, Note_on_c, 0, 72, 84
2, 53555, Note_on_c, 0, 68, 74
2, 53561, Note_on_c, 0, 63, 72
2, 53614, Note_on_c, 0, 56, 0
2, 53614, Note_on_c, 0, 63, 0
2, 53615, Note_on_c, 0, 51, 0
2, 53620, Note_on_c, 0, 72, 0
2, 53629, Note_on_c, 0, 54, 0
2, 53629, Note_on_c, 0, 68, 0
2, 54090, Note_on_c, 0, 73, 80
2, 54101, Note_on_c, 0, 61, 61
2, 54106, Note_on_c, 0, 68, 62
2, 54109, Note_on_c, 0, 49, 47
2, 54109, Note_on_c, 0, 56, 49
2, 54117, Note_on_c, 0, 53, 50
2, 54193, Note_on_c, 0, 44, 0
2, 54692, Control_c, 0, 64, 26
2, 54708, Control_c, 0, 64, 44
2, 54723, Control_c, 0, 64, 56
2, 54738, Control_c, 0, 64, 63
2, 54754, Control_c, 0, 64, 69
2, 54769, Control_c, 0, 64, 82
2, 54785, Control_c, 0, 64, 127
2, 54901, Note_on_c, 0, 61, 0
2, 54909, Note_on_c, 0, 53, 0
2, 54909, Note_on_c, 0, 56, 0
2, 54919, Note_on_c, 0, 49, 0
2, 55054, Note_on_c, 0, 73, 0
2, 55056, Note_on_c, 0, 68, 0
2, 55088, Control_c, 0, 64, 78
2, 55103, Control_c, 0, 64, 57
2, 55118, Control_c, 0, 64, 0
2, 55992,End_track
0, 0, End_of_file
