0, 0, Header, 1, 2, 384
1, 0, Start_track
1, 0, Tempo, 500000
1, 0, Time_signature, 4, 2, 24, 8
1, 1, End_track
2, 0, Start_track
2, 0, Title_t, "6/29 1 ~ 3  e-Comp"
2, 0, Program_c, 0, 0
2, 0, Control_c, 0, 64, 0
2, 0, Control_c, 0, 67, 104
2, 753, Note_on_c, 0, 68, 47
2, 779, Note_on_c, 0, 49, 34
2, 1058, Note_on_c, 0, 66, 56
2, 1133, Control_c, 0, 67, 105
2, 1155, Note_on_c, 0, 68, 0
2, 1260, Note_on_c, 0, 64, 62
2, 1270, Note_on_c, 0, 66, 0
2, 1442, Note_on_c, 0, 63, 65
2, 1442, Note_on_c, 0, 64, 0
2, 1484, Control_c, 0, 67, 105
2, 1621, Note_on_c, 0, 63, 0
2, 1627, Note_on_c, 0, 64, 66
2, 1773, Note_on_c, 0, 64, 0
2, 1788, Note_on_c, 0, 61, 64
2, 1935, Note_on_c, 0, 64, 56
2, 1961, Control_c, 0, 67, 106
2, 1964, Note_on_c, 0, 61, 0
2, 1999, Note_on_c, 0, 68, 55
2, 2049, Note_on_c, 0, 73, 64
2, 2114, Control_c, 0, 67, 105
2, 2494, Control_c, 0, 67, 106
2, 2532, Control_c, 0, 64, 26
2, 2547, Control_c, 0, 64, 45
2, 2562, Control_c, 0, 64, 57
2, 2577, Control_c, 0, 64, 62
2, 2593, Control_c, 0, 64, 64
2, 2608, Control_c, 0, 64, 66
2, 2610, Note_on_c, 0, 73, 0
2, 2623, Control_c, 0, 64, 70
2, 2638, Control_c, 0, 64, 77
2, 2653, Control_c, 0, 64, 91
2, 2668, Control_c, 0, 64, 127
2, 2723, Note_on_c, 0, 71, 49
2, 2730, Note_on_c, 0, 68, 0
2, 2942, Control_c, 0, 64, 116
2, 2958, Control_c, 0, 64, 89
2, 2959, Note_on_c, 0, 69, 56
2, 2964, Note_on_c, 0, 71, 0
2, 2973, Control_c, 0, 64, 76
2, 2975, Note_on_c, 0, 66, 48
2, 2987, Control_c, 0, 64, 67
2, 2995, Note_on_c, 0, 64, 0
2, 3003, Control_c, 0, 64, 55
2, 3018, Control_c, 0, 64, 0
2, 3171, Control_c, 0, 64, 47
2, 3186, Control_c, 0, 64, 63
2, 3201, Control_c, 0, 64, 67
2, 3216, Control_c, 0, 64, 76
2, 3232, Control_c, 0, 64, 104
2, 3247, Control_c, 0, 64, 127
2, 3248, Note_on_c, 0, 69, 0
2, 3277, Control_c, 0, 67, 105
2, 3420, Note_on_c, 0, 66, 0
2, 3433, Note_on_c, 0, 69, 59
2, 3449, Note_on_c, 0, 56, 42
2, 3452, Control_c, 0, 64, 111
2, 3452, Note_on_c, 0, 64, 51
2, 3467, Control_c, 0, 64, 96
2, 3482, Control_c, 0, 64, 89
2, 3497, Control_c, 0, 64, 84
2, 3513, Control_c, 0, 64, 79
2, 3527, Control_c, 0, 64, 75
2, 3527, Control_c, 0, 67, 106
2, 3542, Control_c, 0, 64, 72
2, 3558, Control_c, 0, 64, 70
2, 3573, Control_c, 0, 64, 68
2, 3588, Control_c, 0, 64, 66
2, 3603, Control_c, 0, 64, 66
2, 3664, Control_c, 0, 64, 65
2, 3677, Note_on_c, 0, 69, 0
2, 3706, Note_on_c, 0, 68, 59
2, 3711, Control_c, 0, 67, 105
2, 3711, Note_on_c, 0, 54, 42
2, 3725, Note_on_c, 0, 56, 0
2, 3726, Control_c, 0, 64, 65
2, 3741, Control_c, 0, 64, 64
2, 3745, Note_on_c, 0, 68, 0
2, 3769, Note_on_c, 0, 69, 58
2, 3771, Control_c, 0, 64, 64
2, 3802, Control_c, 0, 64, 63
2, 3804, Note_on_c, 0, 69, 0
2, 3817, Control_c, 0, 67, 105
2, 3821, Note_on_c, 0, 68, 59
2, 3832, Control_c, 0, 64, 63
2, 3847, Control_c, 0, 64, 62
2, 3856, Note_on_c, 0, 68, 0
2, 3862, Control_c, 0, 64, 61
2, 3863, Note_on_c, 0, 69, 61
2, 3878, Control_c, 0, 64, 58
2, 3888, Note_on_c, 0, 54, 0
2, 3893, Control_c, 0, 64, 56
2, 3902, Note_on_c, 0, 52, 46
2, 3907, Control_c, 0, 64, 54
2, 3923, Control_c, 0, 64, 51
2, 3923, Note_on_c, 0, 68, 70
2, 3926, Note_on_c, 0, 69, 0
2, 3938, Control_c, 0, 64, 43
2, 3954, Control_c, 0, 64, 20
2, 3968, Control_c, 0, 64, 0
2, 4076, Note_on_c, 0, 52, 0
2, 4077, Note_on_c, 0, 51, 60
2, 4245, Note_on_c, 0, 52, 63
2, 4256, Note_on_c, 0, 49, 0
2, 4276, Note_on_c, 0, 51, 0
2, 4407, Note_on_c, 0, 52, 0
2, 4411, Note_on_c, 0, 49, 60
2, 4446, Control_c, 0, 67, 104
2, 4528, Note_on_c, 0, 52, 59
2, 4588, Note_on_c, 0, 56, 68
2, 4670, Note_on_c, 0, 61, 70
2, 4672, Note_on_c, 0, 52, 0
2, 4722, Note_on_c, 0, 56, 0
2, 5184, Control_c, 0, 64, 28
2, 5200, Control_c, 0, 64, 32
2, 5214, Control_c, 0, 64, 37
2, 5230, Control_c, 0, 64, 41
2, 5230, Control_c, 0, 67, 104
2, 5245, Control_c, 0, 64, 52
2, 5260, Control_c, 0, 64, 57
2, 5276, Control_c, 0, 64, 57
2, 5305, Control_c, 0, 64, 58
2, 5321, Control_c, 0, 64, 58
2, 5336, Control_c, 0, 64, 59
2, 5378, Note_on_c, 0, 61, 0
2, 5383, Note_on_c, 0, 59, 54
2, 5443, Control_c, 0, 64, 58
2, 5458, Control_c, 0, 64, 58
2, 5474, Control_c, 0, 64, 57
2, 5489, Control_c, 0, 64, 56
2, 5504, Control_c, 0, 64, 56
2, 5520, Control_c, 0, 64, 55
2, 5534, Control_c, 0, 64, 53
2, 5550, Control_c, 0, 64, 50
2, 5565, Control_c, 0, 64, 46
2, 5580, Control_c, 0, 64, 39
2, 5603, Control_c, 0, 64, 22
2, 5618, Control_c, 0, 64, 0
2, 5628, Note_on_c, 0, 57, 47
2, 5637, Note_on_c, 0, 64, 0
2, 5639, Note_on_c, 0, 66, 56
2, 5677, Note_on_c, 0, 59, 0
2, 5782, Note_on_c, 0, 68, 0
2, 5861, Control_c, 0, 64, 56
2, 5877, Control_c, 0, 64, 64
2, 5892, Control_c, 0, 64, 67
2, 5907, Control_c, 0, 64, 70
2, 5923, Control_c, 0, 64, 75
2, 5923, Control_c, 0, 67, 103
2, 5937, Control_c, 0, 64, 85
2, 5953, Control_c, 0, 64, 101
2, 5968, Control_c, 0, 64, 127
2, 6000, Note_on_c, 0, 49, 0
2, 6274, Control_c, 0, 64, 107
2, 6278, Note_on_c, 0, 75, 61
2, 6288, Control_c, 0, 64, 93
2, 6303, Control_c, 0, 64, 85
2, 6311, Note_on_c, 0, 56, 40
2, 6315, Note_on_c, 0, 48, 43
2, 6319, Control_c, 0, 64, 80
2, 6334, Control_c, 0, 64, 76
2, 6350, Control_c, 0, 64, 72
2, 6350, Control_c, 0, 67, 103
2, 6372, Control_c, 0, 64, 68
2, 6387, Control_c, 0, 64, 64
2, 6403, Control_c, 0, 64, 55
2, 6406, Note_on_c, 0, 57, 0
2, 6417, Control_c, 0, 64, 46
2, 6433, Control_c, 0, 64, 41
2, 6448, Control_c, 0, 64, 28
2, 6463, Control_c, 0, 64, 0
2, 6479, Control_c, 0, 67, 103
2, 6565, Note_on_c, 0, 73, 62
2, 6659, Note_on_c, 0, 75, 0
2, 6758, Note_on_c, 0, 72, 69
2, 6778, Note_on_c, 0, 73, 0
2, 6827, Control_c, 0, 67, 104
2, 6889, Control_c, 0, 64, 44
2, 6903, Control_c, 0, 64, 54
2, 6919, Control_c, 0, 64, 55
2, 6926, Note_on_c, 0, 70, 74
2, 6930, Note_on_c, 0, 72, 0
2, 6965, Control_c, 0, 64, 56
2, 6980, Control_c, 0, 64, 57
2, 7042, Control_c, 0, 67, 104
2, 7087, Control_c, 0, 64, 56
2, 7094, Note_on_c, 0, 72, 71
2, 7102, Control_c, 0, 64, 55
2, 7118, Control_c, 0, 64, 54
2, 7118, Note_on_c, 0, 70, 0
2, 7139, Control_c, 0, 64, 51
2, 7155, Control_c, 0, 64, 49
2, 7170, Control_c, 0, 64, 47
2, 7185, Control_c, 0, 64, 42
2, 7201, Control_c, 0, 64, 39
2, 7216, Control_c, 0, 64, 42
2, 7232, Control_c, 0, 64, 50
2, 7247, Control_c, 0, 64, 56
2, 7262, Control_c, 0, 64, 59
2, 7271, Note_on_c, 0, 68, 78
2, 7277, Control_c, 0, 64, 62
2, 7292, Control_c, 0, 64, 64
2, 7295, Note_on_c, 0, 66, 0
2, 7295, Note_on_c, 0, 72, 0
2, 7307, Control_c, 0, 64, 66
2, 7323, Control_c, 0, 64, 68
2, 7324, Note_on_c, 0, 68, 0
2, 7338, Control_c, 0, 64, 70
2, 7353, Control_c, 0, 64, 73
2, 7368, Control_c, 0, 64, 76
2, 7383, Control_c, 0, 64, 76
2, 7426, Note_on_c, 0, 68, 66
2, 7474, Control_c, 0, 64, 75
2, 7489, Control_c, 0, 64, 74
2, 7491, Note_on_c, 0, 75, 68
2, 7504, Control_c, 0, 64, 73
2, 7520, Control_c, 0, 64, 72
2, 7535, Control_c, 0, 64, 70
2, 7550, Control_c, 0, 64, 68
2, 7565, Control_c, 0, 64, 65
2, 7565, Note_on_c, 0, 80, 79
2, 7580, Control_c, 0, 64, 62
2, 7596, Control_c, 0, 64, 53
2, 7610, Control_c, 0, 64, 17
2, 7625, Control_c, 0, 64, 0
2, 7641, Control_c, 0, 67, 105
2, 7672, Control_c, 0, 67, 105
2, 7686, Control_c, 0, 67, 106
2, 7701, Control_c, 0, 67, 106
2, 7777, Control_c, 0, 67, 106
2, 7923, Control_c, 0, 64, 35
2, 7923, Control_c, 0, 67, 105
2, 7937, Control_c, 0, 64, 57
2, 7943, Note_on_c, 0, 68, 0
2, 7951, Note_on_c, 0, 48, 0
2, 7953, Control_c, 0, 64, 64
2, 7953, Control_c, 0, 67, 105
2, 7968, Control_c, 0, 64, 69
2, 7983, Control_c, 0, 64, 81
2, 7999, Control_c, 0, 64, 122
2, 8014, Control_c, 0, 64, 127
2, 8045, Note_on_c, 0, 75, 0
2, 8063, Note_on_c, 0, 56, 0
2, 8150, Note_on_c, 0, 78, 70
2, 8161, Note_on_c, 0, 80, 0
2, 8387, Note_on_c, 0, 76, 64
2, 8391, Note_on_c, 0, 68, 36
2, 8394, Control_c, 0, 64, 105
2, 8398, Note_on_c, 0, 78, 0
2, 8406, Note_on_c, 0, 61, 40
2, 8408, Control_c, 0, 64, 73
2, 8408, Note_on_c, 0, 49, 39
2, 8411, Note_on_c, 0, 73, 53
2, 8423, Control_c, 0, 64, 47
2, 8439, Control_c, 0, 64, 0
2, 8500, Control_c, 0, 67, 105
2, 8515, Control_c, 0, 64, 34
2, 8515, Control_c, 0, 67, 106
2, 8530, Control_c, 0, 64, 61
2, 8530, Control_c, 0, 67, 106
2, 8545, Control_c, 0, 64, 67
2, 8561, Control_c, 0, 64, 96
2, 8570, Note_on_c, 0, 49, 0
2, 8576, Control_c, 0, 64, 127
2, 8586, Note_on_c, 0, 73, 0
2, 8588, Note_on_c, 0, 68, 0
2, 8593, Note_on_c, 0, 61, 0
2, 8610, Note_on_c, 0, 76, 0
2, 8622, Control_c, 0, 67, 106
2, 8653, Control_c, 0, 67, 106
2, 8676, Control_c, 0, 67, 107
2, 8691, Control_c, 0, 67, 108
2, 8705, Control_c, 0, 67, 109
2, 8812, Control_c, 0, 67, 109
2, 8858, Control_c, 0, 67, 110
2, 8858, Note_on_c, 0, 76, 69
2, 8865, Note_on_c, 0, 72, 68
2, 8876, Note_on_c, 0, 63, 52
2, 8895, Note_on_c, 0, 68, 38
2, 8900, Note_on_c, 0, 56, 38
2, 8903, Control_c, 0, 64, 93
2, 8919, Control_c, 0, 64, 70
2, 8919, Control_c, 0, 67, 109
2, 8934, Control_c, 0, 64, 0
2, 8964, Control_c, 0, 67, 109
2, 8995, Control_c, 0, 67, 109
2, 9010, Control_c, 0, 67, 110
2, 9025, Control_c, 0, 64, 22
2, 9025, Control_c, 0, 67, 110
2, 9040, Control_c, 0, 64, 49
2, 9040, Control_c, 0, 67, 111
2, 9055, Control_c, 0, 64, 56
2, 9071, Control_c, 0, 64, 61
2, 9085, Control_c, 0, 64, 64
2, 9100, Control_c, 0, 64, 65
2, 9100, Control_c, 0, 67, 110
2, 9101, Note_on_c, 0, 76, 0
2, 9116, Control_c, 0, 64, 66
2, 9124, Note_on_c, 0, 75, 68
2, 9131, Control_c, 0, 64, 67
2, 9151, Note_on_c, 0, 61, 53
2, 9161, Control_c, 0, 64, 67
2, 9163, Note_on_c, 0, 75, 0
2, 9169, Note_on_c, 0, 63, 0
2, 9176, Control_c, 0, 64, 68
2, 9177, Note_on_c, 0, 76, 65
2, 9207, Control_c, 0, 64, 68
2, 9223, Note_on_c, 0, 76, 0
2, 9227, Note_on_c, 0, 75, 74
2, 9238, Control_c, 0, 67, 110
2, 9268, Control_c, 0, 67, 109
2, 9275, Note_on_c, 0, 76, 72
2, 9282, Note_on_c, 0, 75, 0
2, 9283, Control_c, 0, 64, 68
2, 9314, Control_c, 0, 64, 67
2, 9329, Control_c, 0, 64, 67
2, 9335, Note_on_c, 0, 75, 73
2, 9344, Control_c, 0, 64, 66
2, 9345, Note_on_c, 0, 76, 0
2, 9352, Note_on_c, 0, 60, 40
2, 9360, Control_c, 0, 64, 66
2, 9374, Control_c, 0, 64, 65
2, 9374, Control_c, 0, 67, 109
2, 9380, Note_on_c, 0, 61, 0
2, 9390, Control_c, 0, 64, 64
2, 9405, Control_c, 0, 67, 108
2, 9420, Control_c, 0, 64, 64
2, 9445, Control_c, 0, 64, 63
2, 9460, Control_c, 0, 64, 62
2, 9475, Control_c, 0, 64, 61
2, 9490, Control_c, 0, 64, 61
2, 9505, Control_c, 0, 64, 60
2, 9520, Control_c, 0, 64, 58
2, 9528, Note_on_c, 0, 60, 0
2, 9535, Control_c, 0, 64, 54
2, 9536, Note_on_c, 0, 58, 65
2, 9551, Control_c, 0, 64, 49
2, 9551, Control_c, 0, 67, 108
2, 9566, Control_c, 0, 64, 43
2, 9581, Control_c, 0, 64, 38
2, 9596, Control_c, 0, 64, 34
2, 9611, Control_c, 0, 64, 24
2, 9611, Control_c, 0, 67, 107
2, 9626, Control_c, 0, 64, 0
2, 9642, Control_c, 0, 67, 108
2, 9707, Note_on_c, 0, 56, 0
2, 9712, Note_on_c, 0, 60, 72
2, 9742, Note_on_c, 0, 58, 0
2, 9824, Control_c, 0, 67, 108
2, 9851, Note_on_c, 0, 60, 0
2, 9874, Note_on_c, 0, 56, 65
2, 9885, Control_c, 0, 67, 108
2, 9906, Note_on_c, 0, 68, 0
2, 9963, Note_on_c, 0, 60, 56
2, 10027, Note_on_c, 0, 63, 65
2, 10051, Control_c, 0, 67, 107
2, 10076, Note_on_c, 0, 60, 0
2, 10085, Note_on_c, 0, 66, 67
2, 10125, Note_on_c, 0, 63, 0
2, 10158, Control_c, 0, 67, 107
2, 10188, Control_c, 0, 67, 106
2, 10242, Control_c, 0, 67, 106
2, 10319, Control_c, 0, 67, 105
2, 10425, Control_c, 0, 64, 42
2, 10425, Control_c, 0, 67, 106
2, 10440, Control_c, 0, 64, 55
2, 10455, Control_c, 0, 64, 61
2, 10471, Control_c, 0, 64, 64
2, 10486, Control_c, 0, 64, 66
2, 10491, Note_on_c, 0, 72, 0
2, 10501, Control_c, 0, 64, 72
2, 10512, Note_on_c, 0, 75, 0
2, 10516, Control_c, 0, 64, 86
2, 10531, Control_c, 0, 64, 127
2, 10607, Control_c, 0, 67, 106
2, 10646, Note_on_c, 0, 66, 0
2, 10648, Note_on_c, 0, 64, 62
2, 10820, Control_c, 0, 64, 94
2, 10820, Control_c, 0, 67, 106
2, 10836, Control_c, 0, 64, 77
2, 10845, Note_on_c, 0, 80, 72
2, 10850, Control_c, 0, 64, 66
2, 10850, Control_c, 0, 67, 105
2, 10853, Note_on_c, 0, 64, 0
2, 10861, Note_on_c, 0, 63, 41
2, 10865, Control_c, 0, 64, 0
2, 10873, Note_on_c, 0, 72, 40
2, 10876, Note_on_c, 0, 68, 47
2, 10979, Control_c, 0, 67, 106
2, 10995, Control_c, 0, 64, 13
2, 11010, Control_c, 0, 64, 56
2, 11025, Control_c, 0, 64, 64
2, 11041, Control_c, 0, 64, 74
2, 11041, Control_c, 0, 67, 106
2, 11055, Control_c, 0, 64, 127
2, 11071, Control_c, 0, 67, 107
2, 11081, Note_on_c, 0, 80, 0
2, 11114, Note_on_c, 0, 68, 0
2, 11305, Note_on_c, 0, 75, 59
2, 11310, Note_on_c, 0, 72, 0
2, 11315, Control_c, 0, 64, 103
2, 11326, Note_on_c, 0, 69, 45
2, 11330, Control_c, 0, 64, 92
2, 11335, Note_on_c, 0, 64, 41
2, 11344, Control_c, 0, 64, 84
2, 11360, Control_c, 0, 64, 78
2, 11368, Note_on_c, 0, 63, 0
2, 11375, Control_c, 0, 64, 74
2, 11391, Control_c, 0, 64, 69
2, 11406, Control_c, 0, 64, 66
2, 11420, Control_c, 0, 64, 63
2, 11428, Note_on_c, 0, 73, 61
2, 11436, Control_c, 0, 64, 56
2, 11445, Note_on_c, 0, 75, 0
2, 11451, Control_c, 0, 64, 17
2, 11466, Control_c, 0, 64, 0
2, 11524, Note_on_c, 0, 73, 0
2, 11525, Note_on_c, 0, 72, 71
2, 11717, Note_on_c, 0, 73, 71
2, 11744, Note_on_c, 0, 72, 0
2, 11786, Note_on_c, 0, 69, 0
2, 11941, Note_on_c, 0, 76, 69
2, 11955, Note_on_c, 0, 73, 0
2, 12188, Control_c, 0, 67, 106
2, 12247, Note_on_c, 0, 81, 63
2, 12292, Note_on_c, 0, 76, 0
2, 12416, Control_c, 0, 64, 46
2, 12416, Control_c, 0, 67, 107
2, 12432, Control_c, 0, 64, 58
2, 12447, Control_c, 0, 64, 63
2, 12461, Control_c, 0, 64, 65
2, 12476, Note_on_c, 0, 64, 0
2, 12477, Control_c, 0, 64, 68
2, 12492, Control_c, 0, 64, 73
2, 12492, Control_c, 0, 67, 106
2, 12515, Control_c, 0, 64, 80
2, 12530, Control_c, 0, 64, 84
2, 12545, Control_c, 0, 64, 87
2, 12561, Control_c, 0, 64, 94
2, 12575, Control_c, 0, 64, 103
2, 12591, Control_c, 0, 64, 107
2, 12606, Control_c, 0, 64, 107
2, 12637, Control_c, 0, 64, 108
2, 12637, Control_c, 0, 67, 106
2, 12697, Control_c, 0, 64, 107
2, 12713, Control_c, 0, 64, 103
2, 12729, Control_c, 0, 64, 99
2, 12743, Control_c, 0, 64, 92
2, 12756, Note_on_c, 0, 69, 46
2, 12759, Control_c, 0, 64, 86
2, 12760, Note_on_c, 0, 63, 35
2, 12773, Note_on_c, 0, 54, 43
2, 12774, Control_c, 0, 64, 81
2, 12790, Control_c, 0, 64, 77
2, 12805, Control_c, 0, 64, 74
2, 12819, Control_c, 0, 64, 71
2, 12835, Control_c, 0, 64, 69
2, 12850, Control_c, 0, 64, 68
2, 12865, Control_c, 0, 64, 66
2, 12881, Control_c, 0, 64, 65
2, 12888, Note_on_c, 0, 56, 0
2, 12895, Control_c, 0, 64, 64
2, 12911, Control_c, 0, 64, 63
2, 12911, Control_c, 0, 67, 105
2, 12926, Control_c, 0, 64, 61
2, 12941, Control_c, 0, 64, 60
2, 12957, Control_c, 0, 64, 58
2, 12960, Note_on_c, 0, 80, 60
2, 12971, Control_c, 0, 64, 57
2, 12986, Control_c, 0, 64, 55
2, 13002, Control_c, 0, 64, 51
2, 13008, Note_on_c, 0, 81, 0
2, 13016, Control_c, 0, 64, 47
2, 13032, Control_c, 0, 64, 46
2, 13047, Control_c, 0, 64, 42
2, 13063, Control_c, 0, 64, 33
2, 13079, Control_c, 0, 64, 0
2, 13160, Note_on_c, 0, 78, 66
2, 13175, Note_on_c, 0, 80, 0
2, 13347, Note_on_c, 0, 78, 0
2, 13351, Note_on_c, 0, 76, 68
2, 13527, Note_on_c, 0, 75, 68
2, 13581, Note_on_c, 0, 76, 0
2, 13664, Control_c, 0, 67, 105
2, 13699, Note_on_c, 0, 73, 73
2, 13737, Note_on_c, 0, 69, 0
2, 13738, Note_on_c, 0, 75, 0
2, 13740, Control_c, 0, 64, 38
2, 13756, Control_c, 0, 64, 54
2, 13771, Control_c, 0, 64, 61
2, 13776, Note_on_c, 0, 73, 0
2, 13786, Control_c, 0, 64, 64
2, 13786, Control_c, 0, 67, 105
2, 13801, Control_c, 0, 64, 69
2, 13816, Control_c, 0, 64, 81
2, 13832, Control_c, 0, 64, 127
2, 13832, Control_c, 0, 67, 105
2, 13862, Control_c, 0, 67, 104
2, 13890, Note_on_c, 0, 73, 60
2, 13900, Note_on_c, 0, 68, 57
2, 13938, Control_c, 0, 67, 105
2, 13983, Control_c, 0, 64, 105
2, 13998, Control_c, 0, 64, 89
2, 14001, Note_on_c, 0, 71, 62
2, 14013, Control_c, 0, 64, 79
2, 14013, Control_c, 0, 67, 104
2, 14028, Control_c, 0, 64, 73
2, 14030, Note_on_c, 0, 73, 0
2, 14052, Control_c, 0, 64, 68
2, 14067, Control_c, 0, 64, 65
2, 14082, Control_c, 0, 64, 63
2, 14087, Note_on_c, 0, 69, 60
2, 14097, Control_c, 0, 64, 60
2, 14113, Control_c, 0, 64, 58
2, 14127, Note_on_c, 0, 71, 0
2, 14128, Control_c, 0, 64, 54
2, 14143, Control_c, 0, 64, 46
2, 14158, Control_c, 0, 64, 32
2, 14173, Control_c, 0, 64, 0
2, 14190, Note_on_c, 0, 68, 0
2, 14264, Note_on_c, 0, 69, 0
2, 14285, Note_on_c, 0, 71, 63
2, 14417, Control_c, 0, 67, 105
2, 14492, Note_on_c, 0, 75, 68
2, 14510, Note_on_c, 0, 71, 0
2, 14554, Control_c, 0, 67, 105
2, 14689, Control_c, 0, 67, 106
2, 14719, Control_c, 0, 67, 106
2, 14750, Control_c, 0, 67, 107
2, 14784, Note_on_c, 0, 80, 60
2, 14834, Control_c, 0, 67, 107
2, 14852, Note_on_c, 0, 75, 0
2, 14984, Control_c, 0, 64, 52
2, 14984, Control_c, 0, 67, 107
2, 14984, Note_on_c, 0, 63, 0
2, 15000, Control_c, 0, 64, 61
2, 15015, Control_c, 0, 64, 62
2, 15015, Control_c, 0, 67, 106
2, 15031, Control_c, 0, 64, 64
2, 15031, Control_c, 0, 67, 106
2, 15046, Control_c, 0, 64, 65
2, 15046, Control_c, 0, 67, 105
2, 15061, Control_c, 0, 64, 66
2, 15061, Control_c, 0, 67, 105
2, 15077, Control_c, 0, 64, 69
2, 15092, Control_c, 0, 64, 73
2, 15092, Control_c, 0, 67, 104
2, 15107, Control_c, 0, 64, 76
2, 15153, Control_c, 0, 64, 75
2, 15183, Control_c, 0, 64, 75
2, 15199, Control_c, 0, 64, 74
2, 15214, Control_c, 0, 64, 72
2, 15230, Control_c, 0, 64, 70
2, 15230, Control_c, 0, 67, 104
2, 15239, Note_on_c, 0, 68, 49
2, 15245, Control_c, 0, 64, 68
2, 15245, Control_c, 0, 67, 103
2, 15259, Note_on_c, 0, 61, 31
2, 15260, Control_c, 0, 64, 67
2, 15260, Control_c, 0, 67, 103
2, 15274, Note_on_c, 0, 52, 32
2, 15275, Control_c, 0, 64, 66
2, 15305, Control_c, 0, 64, 66
2, 15321, Control_c, 0, 64, 65
2, 15336, Control_c, 0, 64, 64
2, 15336, Control_c, 0, 67, 102
2, 15351, Control_c, 0, 67, 102
2, 15356, Note_on_c, 0, 54, 0
2, 15366, Control_c, 0, 67, 101
2, 15381, Control_c, 0, 64, 64
2, 15397, Control_c, 0, 67, 101
2, 15426, Control_c, 0, 64, 63
2, 15441, Note_on_c, 0, 78, 62
2, 15459, Note_on_c, 0, 80, 0
2, 15533, Control_c, 0, 64, 63
2, 15548, Control_c, 0, 64, 61
2, 15548, Control_c, 0, 67, 101
2, 15563, Control_c, 0, 64, 59
2, 15586, Control_c, 0, 64, 58
2, 15601, Note_on_c, 0, 78, 0
2, 15602, Control_c, 0, 64, 56
2, 15616, Control_c, 0, 64, 53
2, 15632, Control_c, 0, 64, 49
2, 15632, Control_c, 0, 67, 102
2, 15647, Control_c, 0, 64, 40
2, 15648, Note_on_c, 0, 76, 64
2, 15662, Control_c, 0, 64, 13
2, 15678, Control_c, 0, 64, 0
2, 15820, Note_on_c, 0, 75, 72
2, 15854, Note_on_c, 0, 76, 0
2, 15890, Control_c, 0, 67, 102
2, 16003, Note_on_c, 0, 73, 72
2, 16040, Note_on_c, 0, 75, 0
2, 16103, Control_c, 0, 67, 102
2, 16165, Control_c, 0, 64, 49
2, 16170, Note_on_c, 0, 71, 71
2, 16180, Control_c, 0, 64, 64
2, 16180, Control_c, 0, 67, 102
2, 16196, Control_c, 0, 64, 69
2, 16203, Note_on_c, 0, 73, 0
2, 16211, Control_c, 0, 64, 83
2, 16211, Note_on_c, 0, 68, 0
2, 16212, Note_on_c, 0, 71, 0
2, 16226, Control_c, 0, 64, 127
2, 16374, Note_on_c, 0, 66, 49
2, 16382, Note_on_c, 0, 71, 65
2, 16401, Control_c, 0, 64, 104
2, 16415, Control_c, 0, 64, 87
2, 16431, Control_c, 0, 64, 77
2, 16446, Control_c, 0, 64, 71
2, 16461, Control_c, 0, 64, 66
2, 16477, Control_c, 0, 64, 62
2, 16489, Note_on_c, 0, 69, 64
2, 16492, Control_c, 0, 64, 53
2, 16507, Control_c, 0, 64, 38
2, 16507, Control_c, 0, 67, 103
2, 16521, Note_on_c, 0, 71, 0
2, 16523, Control_c, 0, 64, 0
2, 16554, Note_on_c, 0, 66, 0
2, 16584, Note_on_c, 0, 68, 71
2, 16603, Note_on_c, 0, 69, 0
2, 16755, Note_on_c, 0, 68, 0
2, 16773, Note_on_c, 0, 69, 66
2, 16969, Note_on_c, 0, 73, 65
2, 16978, Note_on_c, 0, 69, 0
2, 17262, Note_on_c, 0, 78, 55
2, 17299, Note_on_c, 0, 73, 0
2, 17336, Control_c, 0, 67, 102
2, 17426, Control_c, 0, 67, 103
2, 17442, Control_c, 0, 64, 52
2, 17444, Note_on_c, 0, 61, 0
2, 17457, Control_c, 0, 64, 62
2, 17473, Control_c, 0, 64, 65
2, 17488, Control_c, 0, 64, 68
2, 17502, Control_c, 0, 64, 71
2, 17518, Control_c, 0, 64, 78
2, 17533, Control_c, 0, 64, 85
2, 17548, Control_c, 0, 64, 90
2, 17564, Control_c, 0, 64, 91
2, 17641, Control_c, 0, 64, 90
2, 17656, Control_c, 0, 64, 88
2, 17672, Control_c, 0, 64, 84
2, 17686, Control_c, 0, 64, 81
2, 17701, Control_c, 0, 64, 78
2, 17717, Control_c, 0, 64, 75
2, 17721, Note_on_c, 0, 66, 40
2, 17728, Note_on_c, 0, 78, 0
2, 17731, Control_c, 0, 64, 73
2, 17731, Note_on_c, 0, 59, 33
2, 17746, Control_c, 0, 64, 71
2, 17751, Note_on_c, 0, 51, 41
2, 17762, Control_c, 0, 64, 69
2, 17777, Control_c, 0, 64, 67
2, 17778, Note_on_c, 0, 52, 0
2, 17793, Control_c, 0, 64, 66
2, 17807, Control_c, 0, 64, 66
2, 17822, Control_c, 0, 64, 65
2, 17838, Control_c, 0, 64, 64
2, 17853, Control_c, 0, 64, 64
2, 17867, Control_c, 0, 64, 63
2, 17891, Control_c, 0, 64, 63
2, 17906, Control_c, 0, 64, 62
2, 17922, Control_c, 0, 64, 61
2, 17936, Control_c, 0, 64, 59
2, 17936, Control_c, 0, 67, 102
2, 17936, Note_on_c, 0, 76, 52
2, 17952, Control_c, 0, 64, 58
2, 17967, Control_c, 0, 64, 56
2, 17982, Control_c, 0, 64, 55
2, 17998, Control_c, 0, 64, 53
2, 18012, Control_c, 0, 64, 49
2, 18027, Control_c, 0, 64, 44
2, 18043, Control_c, 0, 64, 42
2, 18058, Control_c, 0, 64, 40
2, 18073, Control_c, 0, 64, 32
2, 18088, Control_c, 0, 64, 0
2, 18110, Note_on_c, 0, 76, 0
2, 18125, Note_on_c, 0, 75, 70
2, 18303, Note_on_c, 0, 73, 70
2, 18332, Control_c, 0, 67, 103
2, 18337, Note_on_c, 0, 75, 0
2, 18487, Note_on_c, 0, 71, 74
2, 18492, Note_on_c, 0, 73, 0
2, 18636, Control_c, 0, 64, 42
2, 18645, Note_on_c, 0, 66, 0
2, 18658, Control_c, 0, 64, 58
2, 18668, Note_on_c, 0, 71, 0
2, 18670, Note_on_c, 0, 69, 74
2, 18674, Control_c, 0, 64, 64
2, 18689, Control_c, 0, 64, 68
2, 18704, Control_c, 0, 64, 77
2, 18719, Control_c, 0, 64, 101
2, 18719, Control_c, 0, 67, 102
2, 18734, Control_c, 0, 64, 127
2, 18774, Note_on_c, 0, 69, 0
2, 18856, Control_c, 0, 67, 102
2, 18892, Note_on_c, 0, 69, 64
2, 18902, Note_on_c, 0, 64, 59
2, 18917, Control_c, 0, 64, 107
2, 18917, Note_on_c, 0, 52, 50
2, 18932, Control_c, 0, 64, 93
2, 18936, Note_on_c, 0, 51, 0
2, 18947, Control_c, 0, 64, 85
2, 18963, Control_c, 0, 64, 79
2, 18977, Control_c, 0, 64, 74
2, 18993, Control_c, 0, 64, 71
2, 19008, Control_c, 0, 64, 69
2, 19023, Control_c, 0, 64, 67
2, 19038, Control_c, 0, 64, 65
2, 19053, Control_c, 0, 64, 63
2, 19068, Control_c, 0, 64, 60
2, 19084, Control_c, 0, 64, 58
2, 19129, Control_c, 0, 64, 57
2, 19132, Note_on_c, 0, 69, 0
2, 19144, Control_c, 0, 64, 56
2, 19158, Note_on_c, 0, 68, 63
2, 19160, Control_c, 0, 64, 55
2, 19170, Note_on_c, 0, 57, 52
2, 19190, Control_c, 0, 64, 54
2, 19199, Note_on_c, 0, 59, 0
2, 19205, Control_c, 0, 64, 52
2, 19207, Note_on_c, 0, 68, 0
2, 19220, Control_c, 0, 64, 49
2, 19222, Note_on_c, 0, 69, 60
2, 19236, Control_c, 0, 64, 44
2, 19251, Control_c, 0, 64, 40
2, 19253, Note_on_c, 0, 68, 67
2, 19253, Note_on_c, 0, 69, 0
2, 19267, Control_c, 0, 64, 29
2, 19283, Control_c, 0, 64, 0
2, 19307, Note_on_c, 0, 69, 72
2, 19312, Note_on_c, 0, 68, 0
2, 19366, Note_on_c, 0, 68, 72
2, 19375, Note_on_c, 0, 69, 0
2, 19381, Note_on_c, 0, 56, 61
2, 19401, Note_on_c, 0, 57, 0
2, 19554, Note_on_c, 0, 54, 62
2, 19565, Note_on_c, 0, 56, 0
2, 19727, Note_on_c, 0, 56, 69
2, 19736, Note_on_c, 0, 52, 0
2, 19756, Note_on_c, 0, 54, 0
2, 19880, Note_on_c, 0, 56, 0
2, 19881, Note_on_c, 0, 52, 66
2, 19950, Note_on_c, 0, 64, 0
2, 19985, Note_on_c, 0, 56, 66
2, 20005, Control_c, 0, 67, 101
2, 20020, Control_c, 0, 67, 101
2, 20042, Note_on_c, 0, 59, 71
2, 20050, Control_c, 0, 67, 100
2, 20065, Control_c, 0, 67, 100
2, 20076, Note_on_c, 0, 56, 0
2, 20096, Control_c, 0, 67, 99
2, 20112, Control_c, 0, 67, 98
2, 20115, Note_on_c, 0, 64, 68
2, 20123, Note_on_c, 0, 59, 0
2, 20127, Control_c, 0, 67, 98
2, 20142, Control_c, 0, 67, 97
2, 20158, Control_c, 0, 67, 95
2, 20173, Control_c, 0, 67, 92
2, 20195, Control_c, 0, 67, 86
2, 20210, Control_c, 0, 67, 76
2, 20225, Control_c, 0, 67, 61
2, 20241, Control_c, 0, 67, 51
2, 20256, Control_c, 0, 67, 44
2, 20271, Control_c, 0, 67, 38
2, 20286, Control_c, 0, 67, 34
2, 20301, Control_c, 0, 67, 28
2, 20317, Control_c, 0, 67, 22
2, 20332, Control_c, 0, 67, 14
2, 20347, Control_c, 0, 67, 10
2, 20363, Control_c, 0, 67, 8
2, 20378, Control_c, 0, 67, 0
2, 20423, Control_c, 0, 64, 42
2, 20439, Control_c, 0, 64, 57
2, 20454, Control_c, 0, 64, 63
2, 20470, Control_c, 0, 64, 67
2, 20484, Control_c, 0, 64, 74
2, 20499, Control_c, 0, 64, 105
2, 20515, Control_c, 0, 64, 127
2, 20681, Note_on_c, 0, 68, 0
2, 20712, Control_c, 0, 64, 96
2, 20724, Note_on_c, 0, 64, 0
2, 20727, Control_c, 0, 64, 72
2, 20734, Note_on_c, 0, 66, 70
2, 20735, Note_on_c, 0, 63, 58
2, 20741, Control_c, 0, 64, 49
2, 20757, Control_c, 0, 64, 0
2, 20818, Control_c, 0, 64, 52
2, 20834, Control_c, 0, 64, 64
2, 20849, Control_c, 0, 64, 67
2, 20864, Control_c, 0, 64, 75
2, 20879, Control_c, 0, 64, 119
2, 20892, Note_on_c, 0, 66, 0
2, 20894, Control_c, 0, 64, 127
2, 21051, Note_on_c, 0, 63, 0
2, 21053, Note_on_c, 0, 61, 50
2, 21056, Note_on_c, 0, 69, 64
2, 21070, Control_c, 0, 64, 88
2, 21085, Control_c, 0, 64, 72
2, 21100, Control_c, 0, 64, 63
2, 21112, Note_on_c, 0, 69, 0
2, 21115, Control_c, 0, 64, 0
2, 21118, Note_on_c, 0, 68, 72
2, 21188, Note_on_c, 0, 69, 70
2, 21195, Note_on_c, 0, 68, 0
2, 21283, Control_c, 0, 64, 54
2, 21298, Control_c, 0, 64, 62
2, 21314, Control_c, 0, 64, 64
2, 21328, Control_c, 0, 64, 68
2, 21342, Note_on_c, 0, 52, 0
2, 21343, Control_c, 0, 64, 82
2, 21359, Control_c, 0, 64, 127
2, 21715, Note_on_c, 0, 51, 35
2, 21732, Control_c, 0, 64, 99
2, 21734, Note_on_c, 0, 60, 56
2, 21747, Control_c, 0, 64, 90
2, 21762, Control_c, 0, 64, 85
2, 21777, Control_c, 0, 64, 81
2, 21793, Control_c, 0, 64, 78
2, 21807, Control_c, 0, 64, 73
2, 21822, Control_c, 0, 64, 67
2, 21838, Control_c, 0, 64, 63
2, 21853, Control_c, 0, 64, 54
2, 21868, Control_c, 0, 64, 36
2, 21883, Control_c, 0, 64, 0
2, 21894, Note_on_c, 0, 61, 0
2, 22004, Note_on_c, 0, 68, 59
2, 22048, Note_on_c, 0, 69, 0
2, 22193, Note_on_c, 0, 66, 67
2, 22236, Note_on_c, 0, 68, 0
2, 22371, Note_on_c, 0, 64, 65
2, 22408, Note_on_c, 0, 66, 0
2, 22562, Note_on_c, 0, 66, 67
2, 22582, Note_on_c, 0, 64, 0
2, 22738, Note_on_c, 0, 66, 0
2, 22740, Note_on_c, 0, 63, 70
2, 22954, Note_on_c, 0, 75, 69
2, 22971, Note_on_c, 0, 56, 50
2, 22982, Note_on_c, 0, 63, 0
2, 23104, Note_on_c, 0, 51, 0
2, 23150, Note_on_c, 0, 73, 72
2, 23197, Note_on_c, 0, 75, 0
2, 23327, Note_on_c, 0, 72, 78
2, 23401, Note_on_c, 0, 73, 0
2, 23499, Note_on_c, 0, 54, 64
2, 23500, Note_on_c, 0, 70, 77
2, 23535, Note_on_c, 0, 72, 0
2, 23539, Note_on_c, 0, 56, 0
2, 23689, Note_on_c, 0, 72, 75
2, 23695, Note_on_c, 0, 56, 66
2, 23706, Note_on_c, 0, 54, 0
2, 23718, Note_on_c, 0, 70, 0
2, 23858, Note_on_c, 0, 72, 0
2, 23871, Note_on_c, 0, 68, 73
2, 24144, Note_on_c, 0, 81, 75
2, 24153, Note_on_c, 0, 49, 61
2, 24212, Note_on_c, 0, 68, 0
2, 24263, Note_on_c, 0, 56, 0
2, 24385, Note_on_c, 0, 80, 76
2, 24424, Note_on_c, 0, 81, 0
2, 24561, Note_on_c, 0, 78, 77
2, 24598, Note_on_c, 0, 80, 0
2, 24734, Note_on_c, 0, 76, 71
2, 24752, Note_on_c, 0, 61, 58
2, 24753, Note_on_c, 0, 78, 0
2, 24757, Note_on_c, 0, 60, 0
2, 24935, Note_on_c, 0, 78, 76
2, 24936, Note_on_c, 0, 76, 0
2, 24943, Note_on_c, 0, 63, 49
2, 24991, Note_on_c, 0, 61, 0
2, 25123, Note_on_c, 0, 75, 79
2, 25159, Note_on_c, 0, 78, 0
2, 25315, Note_on_c, 0, 63, 0
2, 25320, Note_on_c, 0, 61, 57
2, 25330, Note_on_c, 0, 76, 71
2, 25410, Note_on_c, 0, 75, 0
2, 25523, Note_on_c, 0, 75, 72
2, 25707, Note_on_c, 0, 73, 65
2, 25876, Note_on_c, 0, 75, 0
2, 25880, Note_on_c, 0, 71, 67
2, 25884, Note_on_c, 0, 51, 53
2, 25911, Note_on_c, 0, 73, 0
2, 25922, Note_on_c, 0, 49, 0
2, 26075, Note_on_c, 0, 51, 0
2, 26077, Note_on_c, 0, 52, 54
2, 26077, Note_on_c, 0, 73, 68
2, 26101, Note_on_c, 0, 71, 0
2, 26276, Note_on_c, 0, 70, 73
2, 26298, Note_on_c, 0, 73, 0
2, 26481, Note_on_c, 0, 61, 0
2, 26539, Note_on_c, 0, 46, 51
2, 26542, Note_on_c, 0, 68, 66
2, 26557, Note_on_c, 0, 52, 0
2, 26557, Note_on_c, 0, 70, 0
2, 26805, Note_on_c, 0, 51, 56
2, 26812, Note_on_c, 0, 67, 67
2, 26822, Note_on_c, 0, 68, 0
2, 26873, Note_on_c, 0, 46, 0
2, 26962, Note_on_c, 0, 49, 68
2, 26983, Note_on_c, 0, 76, 0
2, 26989, Note_on_c, 0, 51, 0
2, 27113, Note_on_c, 0, 75, 71
2, 27118, Note_on_c, 0, 68, 66
2, 27121, Note_on_c, 0, 47, 60
2, 27159, Note_on_c, 0, 67, 0
2, 27174, Note_on_c, 0, 49, 0
2, 27200, Note_on_c, 0, 68, 0
2, 27268, Note_on_c, 0, 73, 60
2, 27273, Note_on_c, 0, 70, 73
2, 27307, Note_on_c, 0, 75, 0
2, 27326, Note_on_c, 0, 49, 49
2, 27329, Note_on_c, 0, 70, 0
2, 27335, Note_on_c, 0, 68, 73
2, 27388, Note_on_c, 0, 47, 0
2, 27406, Note_on_c, 0, 70, 75
2, 27429, Note_on_c, 0, 50, 8
2, 27435, Note_on_c, 0, 68, 0
2, 27462, Note_on_c, 0, 73, 0
2, 27483, Note_on_c, 0, 50, 0
2, 27697, Control_c, 0, 64, 28
2, 27701, Note_on_c, 0, 73, 73
2, 27711, Note_on_c, 0, 63, 57
2, 27712, Control_c, 0, 64, 44
2, 27713, Note_on_c, 0, 49, 0
2, 27713, Note_on_c, 0, 70, 0
2, 27721, Note_on_c, 0, 43, 58
2, 27728, Control_c, 0, 64, 56
2, 27743, Control_c, 0, 64, 59
2, 27759, Control_c, 0, 64, 62
2, 27773, Control_c, 0, 64, 63
2, 27788, Control_c, 0, 64, 64
2, 27819, Control_c, 0, 64, 64
2, 27834, Control_c, 0, 64, 66
2, 27849, Control_c, 0, 64, 69
2, 27851, Note_on_c, 0, 43, 0
2, 27872, Control_c, 0, 64, 76
2, 27888, Control_c, 0, 64, 81
2, 27900, Note_on_c, 0, 47, 58
2, 27902, Control_c, 0, 64, 84
2, 27918, Control_c, 0, 64, 89
2, 27933, Control_c, 0, 64, 94
2, 27948, Control_c, 0, 64, 95
2, 28024, Control_c, 0, 64, 94
2, 28040, Control_c, 0, 64, 88
2, 28054, Control_c, 0, 64, 82
2, 28069, Control_c, 0, 64, 78
2, 28080, Note_on_c, 0, 46, 66
2, 28085, Control_c, 0, 64, 76
2, 28097, Note_on_c, 0, 47, 0
2, 28099, Control_c, 0, 64, 76
2, 28101, Note_on_c, 0, 63, 0
2, 28103, Note_on_c, 0, 73, 0
2, 28114, Control_c, 0, 64, 73
2, 28130, Control_c, 0, 64, 71
2, 28145, Control_c, 0, 64, 69
2, 28161, Control_c, 0, 64, 67
2, 28175, Control_c, 0, 64, 66
2, 28190, Control_c, 0, 64, 65
2, 28206, Control_c, 0, 64, 64
2, 28221, Control_c, 0, 64, 62
2, 28236, Control_c, 0, 64, 60
2, 28241, Note_on_c, 0, 65, 69
2, 28242, Note_on_c, 0, 71, 68
2, 28247, Note_on_c, 0, 44, 55
2, 28252, Control_c, 0, 64, 59
2, 28269, Note_on_c, 0, 46, 0
2, 28283, Control_c, 0, 64, 58
2, 28298, Control_c, 0, 64, 56
2, 28313, Control_c, 0, 64, 54
2, 28328, Control_c, 0, 64, 53
2, 28359, Control_c, 0, 64, 52
2, 28374, Control_c, 0, 64, 50
2, 28389, Control_c, 0, 64, 46
2, 28400, Note_on_c, 0, 44, 0
2, 28402, Note_on_c, 0, 65, 0
2, 28405, Control_c, 0, 64, 44
2, 28413, Note_on_c, 0, 67, 67
2, 28419, Control_c, 0, 64, 40
2, 28425, Note_on_c, 0, 46, 53
2, 28427, Note_on_c, 0, 70, 59
2, 28434, Control_c, 0, 64, 35
2, 28450, Control_c, 0, 64, 31
2, 28465, Control_c, 0, 64, 17
2, 28469, Note_on_c, 0, 67, 0
2, 28478, Note_on_c, 0, 65, 65
2, 28481, Control_c, 0, 64, 0
2, 28488, Note_on_c, 0, 71, 0
2, 28546, Note_on_c, 0, 67, 66
2, 28558, Note_on_c, 0, 65, 0
2, 28670, Note_on_c, 0, 43, 66
2, 28732, Note_on_c, 0, 46, 0
2, 28953, Note_on_c, 0, 67, 0
2, 28956, Note_on_c, 0, 37, 63
2, 29073, Note_on_c, 0, 43, 0
2, 29175, Note_on_c, 0, 68, 60
2, 29242, Note_on_c, 0, 70, 0
2, 29354, Note_on_c, 0, 67, 72
2, 29368, Note_on_c, 0, 68, 0
2, 29541, Note_on_c, 0, 65, 72
2, 29569, Note_on_c, 0, 67, 0
2, 29711, Note_on_c, 0, 67, 68
2, 29730, Note_on_c, 0, 65, 0
2, 29851, Note_on_c, 0, 67, 0
2, 29875, Note_on_c, 0, 63, 74
2, 29982, Note_on_c, 0, 67, 66
2, 30016, Note_on_c, 0, 63, 0
2, 30046, Note_on_c, 0, 70, 66
2, 30111, Note_on_c, 0, 75, 76
2, 30140, Note_on_c, 0, 37, 0
2, 30296, Note_on_c, 0, 49, 64
2, 30476, Note_on_c, 0, 47, 71
2, 30509, Note_on_c, 0, 49, 0
2, 30652, Note_on_c, 0, 46, 74
2, 30672, Note_on_c, 0, 47, 0
2, 30833, Note_on_c, 0, 46, 0
2, 30837, Note_on_c, 0, 47, 59
2, 30840, Note_on_c, 0, 68, 65
2, 30869, Note_on_c, 0, 67, 0
2, 30896, Note_on_c, 0, 70, 0
2, 31001, Note_on_c, 0, 47, 0
2, 31014, Note_on_c, 0, 44, 70
2, 31197, Note_on_c, 0, 52, 63
2, 31261, Note_on_c, 0, 52, 0
2, 31265, Note_on_c, 0, 51, 67
2, 31333, Note_on_c, 0, 52, 72
2, 31356, Note_on_c, 0, 51, 0
2, 31387, Note_on_c, 0, 44, 0
2, 31543, Note_on_c, 0, 72, 72
2, 31586, Note_on_c, 0, 75, 0
2, 31737, Note_on_c, 0, 73, 75
2, 31789, Note_on_c, 0, 72, 0
2, 31926, Note_on_c, 0, 51, 57
2, 31926, Note_on_c, 0, 75, 75
2, 31989, Note_on_c, 0, 73, 0
2, 32006, Note_on_c, 0, 52, 0
2, 32136, Note_on_c, 0, 76, 68
2, 32151, Note_on_c, 0, 49, 42
2, 32198, Note_on_c, 0, 75, 0
2, 32210, Note_on_c, 0, 51, 0
2, 32366, Note_on_c, 0, 75, 78
2, 32420, Note_on_c, 0, 76, 0
2, 32620, Note_on_c, 0, 73, 62
2, 32622, Note_on_c, 0, 51, 31
2, 32664, Note_on_c, 0, 75, 0
2, 32711, Note_on_c, 0, 49, 0
2, 32976, Note_on_c, 0, 71, 52
2, 33021, Note_on_c, 0, 73, 0
2, 33557, Control_c, 0, 64, 24
2, 33572, Control_c, 0, 64, 53
2, 33588, Control_c, 0, 64, 62
2, 33603, Control_c, 0, 64, 64
2, 33617, Control_c, 0, 64, 65
2, 33633, Control_c, 0, 64, 66
2, 33648, Control_c, 0, 64, 69
2, 33658, Note_on_c, 0, 71, 0
2, 33662, Control_c, 0, 64, 76
2, 33678, Control_c, 0, 64, 90
2, 33681, Note_on_c, 0, 73, 51
2, 33693, Control_c, 0, 64, 108
2, 33709, Control_c, 0, 64, 127
2, 33841, Note_on_c, 0, 68, 0
2, 33958, Note_on_c, 0, 71, 49
2, 33986, Note_on_c, 0, 67, 44
2, 34006, Note_on_c, 0, 39, 38
2, 34044, Note_on_c, 0, 73, 0
2, 34051, Control_c, 0, 64, 108
2, 34067, Control_c, 0, 64, 91
2, 34082, Control_c, 0, 64, 78
2, 34085, Note_on_c, 0, 70, 59
2, 34096, Control_c, 0, 64, 69
2, 34097, Note_on_c, 0, 71, 0
2, 34112, Control_c, 0, 64, 63
2, 34127, Control_c, 0, 64, 47
2, 34142, Control_c, 0, 64, 0
2, 34157, Note_on_c, 0, 70, 0
2, 34170, Note_on_c, 0, 68, 56
2, 34265, Note_on_c, 0, 68, 0
2, 34282, Note_on_c, 0, 70, 55
2, 34461, Control_c, 0, 64, 24
2, 34477, Control_c, 0, 64, 33
2, 34492, Control_c, 0, 64, 38
2, 34507, Control_c, 0, 64, 54
2, 34522, Control_c, 0, 64, 64
2, 34537, Control_c, 0, 64, 68
2, 34541, Note_on_c, 0, 67, 0
2, 34553, Control_c, 0, 64, 72
2, 34568, Control_c, 0, 64, 81
2, 34582, Control_c, 0, 64, 104
2, 34598, Control_c, 0, 64, 127
2, 34829, Note_on_c, 0, 59, 49
2, 34884, Note_on_c, 0, 63, 48
2, 34940, Control_c, 0, 64, 96
2, 34956, Control_c, 0, 64, 83
2, 34971, Control_c, 0, 64, 75
2, 34987, Control_c, 0, 64, 69
2, 34997, Note_on_c, 0, 68, 47
2, 35002, Control_c, 0, 64, 64
2, 35016, Control_c, 0, 64, 56
2, 35022, Note_on_c, 0, 39, 0
2, 35028, Note_on_c, 0, 44, 47
2, 35032, Control_c, 0, 64, 0
2, 35049, Note_on_c, 0, 70, 0
2, 35330, Note_on_c, 0, 49, 46
2, 35474, Note_on_c, 0, 51, 0
2, 35527, Note_on_c, 0, 47, 49
2, 35548, Note_on_c, 0, 49, 0
2, 35722, Note_on_c, 0, 47, 0
2, 35725, Note_on_c, 0, 46, 58
2, 35889, Note_on_c, 0, 44, 0
2, 35891, Note_on_c, 0, 47, 60
2, 35913, Note_on_c, 0, 46, 0
2, 36071, Note_on_c, 0, 47, 0
2, 36080, Note_on_c, 0, 44, 62
2, 36253, Note_on_c, 0, 47, 61
2, 36330, Note_on_c, 0, 59, 0
2, 36431, Note_on_c, 0, 51, 63
2, 36441, Note_on_c, 0, 47, 0
2, 36495, Note_on_c, 0, 63, 0
2, 36575, Note_on_c, 0, 68, 0
2, 36611, Note_on_c, 0, 56, 58
2, 36618, Note_on_c, 0, 51, 0
2, 36771, Note_on_c, 0, 52, 65
2, 36779, Note_on_c, 0, 56, 0
2, 36932, Note_on_c, 0, 71, 68
2, 36946, Note_on_c, 0, 52, 0
2, 36951, Note_on_c, 0, 54, 54
2, 37001, Note_on_c, 0, 71, 0
2, 37006, Note_on_c, 0, 70, 77
2, 37068, Note_on_c, 0, 71, 68
2, 37071, Note_on_c, 0, 70, 0
2, 37154, Note_on_c, 0, 51, 57
2, 37164, Note_on_c, 0, 54, 0
2, 37330, Note_on_c, 0, 52, 50
2, 37336, Note_on_c, 0, 49, 53
2, 37336, Note_on_c, 0, 51, 0
2, 37406, Note_on_c, 0, 44, 0
2, 37525, Note_on_c, 0, 68, 68
2, 37529, Note_on_c, 0, 51, 49
2, 37532, Note_on_c, 0, 71, 0
2, 37541, Note_on_c, 0, 49, 0
2, 37700, Note_on_c, 0, 70, 73
2, 37704, Note_on_c, 0, 51, 0
2, 37707, Note_on_c, 0, 49, 55
2, 37748, Note_on_c, 0, 68, 0
2, 37880, Note_on_c, 0, 73, 79
2, 37882, Note_on_c, 0, 47, 55
2, 37889, Note_on_c, 0, 49, 0
2, 37929, Note_on_c, 0, 70, 0
2, 38056, Note_on_c, 0, 47, 0
2, 38059, Note_on_c, 0, 49, 60
2, 38070, Note_on_c, 0, 76, 75
2, 38128, Note_on_c, 0, 73, 0
2, 38213, Note_on_c, 0, 49, 0
2, 38224, Note_on_c, 0, 46, 63
2, 38224, Note_on_c, 0, 52, 0
2, 38397, Note_on_c, 0, 54, 65
2, 38457, Note_on_c, 0, 52, 60
2, 38460, Note_on_c, 0, 54, 0
2, 38537, Note_on_c, 0, 54, 66
2, 38545, Note_on_c, 0, 52, 0
2, 38715, Note_on_c, 0, 75, 73
2, 38740, Note_on_c, 0, 76, 0
2, 38908, Note_on_c, 0, 76, 76
2, 39074, Note_on_c, 0, 75, 0
2, 39091, Note_on_c, 0, 80, 72
2, 39108, Note_on_c, 0, 56, 52
2, 39118, Note_on_c, 0, 54, 0
2, 39136, Note_on_c, 0, 76, 0
2, 39341, Note_on_c, 0, 78, 67
2, 39345, Note_on_c, 0, 58, 46
2, 39359, Note_on_c, 0, 56, 0
2, 39378, Note_on_c, 0, 80, 0
2, 39553, Note_on_c, 0, 46, 0
2, 39577, Control_c, 0, 64, 42
2, 39593, Control_c, 0, 64, 66
2, 39608, Control_c, 0, 64, 78
2, 39619, Note_on_c, 0, 58, 0
2, 39624, Control_c, 0, 64, 122
2, 39638, Control_c, 0, 64, 127
2, 39819, Note_on_c, 0, 59, 52
2, 39828, Note_on_c, 0, 75, 68
2, 39859, Note_on_c, 0, 78, 0
2, 39868, Note_on_c, 0, 59, 0
2, 39895, Note_on_c, 0, 58, 59
2, 39928, Control_c, 0, 64, 101
2, 39942, Control_c, 0, 64, 88
2, 39958, Control_c, 0, 64, 79
2, 39973, Control_c, 0, 64, 71
2, 39974, Note_on_c, 0, 58, 0
2, 39977, Note_on_c, 0, 59, 61
2, 39988, Control_c, 0, 64, 64
2, 40003, Control_c, 0, 64, 50
2, 40018, Control_c, 0, 64, 0
2, 40149, Note_on_c, 0, 73, 55
2, 40327, Note_on_c, 0, 71, 60
2, 40369, Note_on_c, 0, 73, 0
2, 40477, Note_on_c, 0, 71, 0
2, 40483, Note_on_c, 0, 70, 66
2, 40668, Note_on_c, 0, 71, 62
2, 40686, Note_on_c, 0, 70, 0
2, 40855, Note_on_c, 0, 66, 53
2, 41043, Note_on_c, 0, 63, 66
2, 41052, Note_on_c, 0, 59, 0
2, 41221, Note_on_c, 0, 59, 51
2, 41400, Note_on_c, 0, 57, 60
2, 41410, Note_on_c, 0, 59, 0
2, 41577, Note_on_c, 0, 56, 59
2, 41605, Note_on_c, 0, 57, 0
2, 41752, Note_on_c, 0, 56, 0
2, 41773, Note_on_c, 0, 73, 78
2, 41785, Note_on_c, 0, 57, 43
2, 41802, Note_on_c, 0, 75, 0
2, 42005, Note_on_c, 0, 54, 41
2, 42053, Note_on_c, 0, 57, 0
2, 42066, Note_on_c, 0, 71, 0
2, 42216, Note_on_c, 0, 54, 0
2, 42224, Note_on_c, 0, 51, 48
2, 42262, Note_on_c, 0, 63, 0
2, 42363, Note_on_c, 0, 51, 0
2, 42400, Note_on_c, 0, 70, 65
2, 42409, Note_on_c, 0, 52, 48
2, 42422, Note_on_c, 0, 66, 0
2, 42546, Note_on_c, 0, 73, 0
2, 42588, Note_on_c, 0, 70, 0
2, 42589, Note_on_c, 0, 51, 53
2, 42594, Note_on_c, 0, 72, 75
2, 42609, Note_on_c, 0, 52, 0
2, 42765, Note_on_c, 0, 75, 83
2, 42767, Note_on_c, 0, 49, 57
2, 42789, Note_on_c, 0, 72, 0
2, 42795, Note_on_c, 0, 51, 0
2, 42930, Note_on_c, 0, 51, 60
2, 42935, Note_on_c, 0, 78, 79
2, 42941, Note_on_c, 0, 49, 0
2, 42963, Note_on_c, 0, 75, 0
2, 43125, Note_on_c, 0, 80, 83
2, 43127, Note_on_c, 0, 48, 52
2, 43167, Note_on_c, 0, 78, 0
2, 43342, Note_on_c, 0, 81, 74
2, 43364, Note_on_c, 0, 44, 51
2, 43387, Note_on_c, 0, 48, 0
2, 43416, Note_on_c, 0, 80, 0
2, 43540, Note_on_c, 0, 80, 75
2, 43601, Note_on_c, 0, 81, 0
2, 43721, Note_on_c, 0, 78, 73
2, 43782, Note_on_c, 0, 80, 0
2, 43898, Note_on_c, 0, 46, 42
2, 43902, Note_on_c, 0, 76, 75
2, 43925, Note_on_c, 0, 78, 0
2, 43961, Note_on_c, 0, 44, 0
2, 44088, Note_on_c, 0, 46, 0
2, 44088, Note_on_c, 0, 48, 44
2, 44094, Note_on_c, 0, 78, 70
2, 44096, Note_on_c, 0, 76, 0
2, 44284, Note_on_c, 0, 75, 71
2, 44323, Note_on_c, 0, 78, 0
2, 44479, Note_on_c, 0, 76, 61
2, 44495, Note_on_c, 0, 49, 47
2, 44506, Note_on_c, 0, 48, 0
2, 44527, Note_on_c, 0, 75, 0
2, 44538, Note_on_c, 0, 51, 0
2, 44681, Note_on_c, 0, 75, 61
2, 44861, Note_on_c, 0, 73, 61
2, 44943, Note_on_c, 0, 75, 0
2, 45029, Note_on_c, 0, 72, 61
2, 45045, Note_on_c, 0, 73, 0
2, 45221, Note_on_c, 0, 73, 61
2, 45225, Note_on_c, 0, 72, 0
2, 45399, Note_on_c, 0, 68, 50
2, 45585, Note_on_c, 0, 64, 55
2, 45772, Note_on_c, 0, 51, 57
2, 45817, Note_on_c, 0, 49, 0
2, 45959, Note_on_c, 0, 52, 61
2, 45987, Note_on_c, 0, 51, 0
2, 46126, Note_on_c, 0, 54, 74
2, 46133, Note_on_c, 0, 52, 0
2, 46305, Note_on_c, 0, 54, 0
2, 46320, Note_on_c, 0, 56, 71
2, 46494, Note_on_c, 0, 57, 72
2, 46500, Note_on_c, 0, 56, 0
2, 46652, Note_on_c, 0, 64, 0
2, 46698, Note_on_c, 0, 68, 0
2, 46708, Note_on_c, 0, 59, 68
2, 46734, Note_on_c, 0, 76, 0
2, 46740, Note_on_c, 0, 73, 0
2, 46757, Note_on_c, 0, 57, 0
2, 46883, Note_on_c, 0, 74, 75
2, 47077, Note_on_c, 0, 77, 80
2, 47133, Note_on_c, 0, 74, 0
2, 47258, Note_on_c, 0, 80, 83
2, 47284, Note_on_c, 0, 61, 53
2, 47292, Note_on_c, 0, 77, 0
2, 47511, Note_on_c, 0, 83, 75
2, 47533, Note_on_c, 0, 61, 0
2, 47535, Note_on_c, 0, 62, 53
2, 47588, Note_on_c, 0, 80, 0
2, 47591, Note_on_c, 0, 59, 0
2, 47729, Note_on_c, 0, 59, 43
2, 47857, Control_c, 0, 64, 59
2, 47873, Control_c, 0, 64, 64
2, 47888, Control_c, 0, 64, 65
2, 47902, Control_c, 0, 64, 68
2, 47918, Control_c, 0, 64, 74
2, 47919, Note_on_c, 0, 53, 50
2, 47933, Control_c, 0, 64, 93
2, 47949, Control_c, 0, 64, 127
2, 47952, Note_on_c, 0, 59, 0
2, 48032, Note_on_c, 0, 83, 0
2, 48076, Note_on_c, 0, 74, 69
2, 48132, Control_c, 0, 64, 105
2, 48146, Control_c, 0, 64, 92
2, 48162, Control_c, 0, 64, 87
2, 48177, Control_c, 0, 64, 83
2, 48193, Control_c, 0, 64, 78
2, 48207, Control_c, 0, 64, 73
2, 48222, Control_c, 0, 64, 67
2, 48238, Control_c, 0, 64, 64
2, 48253, Control_c, 0, 64, 59
2, 48264, Note_on_c, 0, 56, 57
2, 48264, Note_on_c, 0, 73, 64
2, 48268, Control_c, 0, 64, 53
2, 48272, Note_on_c, 0, 74, 0
2, 48283, Control_c, 0, 64, 38
2, 48298, Control_c, 0, 64, 0
2, 48319, Note_on_c, 0, 62, 0
2, 48432, Note_on_c, 0, 71, 72
2, 48463, Note_on_c, 0, 73, 0
2, 48588, Note_on_c, 0, 71, 0
2, 48615, Note_on_c, 0, 69, 67
2, 48616, Note_on_c, 0, 61, 66
2, 48707, Note_on_c, 0, 56, 0
2, 48775, Note_on_c, 0, 69, 0
2, 48783, Note_on_c, 0, 68, 71
2, 48965, Note_on_c, 0, 68, 0
2, 48974, Note_on_c, 0, 69, 60
2, 49002, Note_on_c, 0, 53, 0
2, 49005, Note_on_c, 0, 54, 55
2, 49035, Note_on_c, 0, 69, 0
2, 49045, Note_on_c, 0, 68, 70
2, 49108, Note_on_c, 0, 69, 70
2, 49133, Note_on_c, 0, 68, 0
2, 49265, Note_on_c, 0, 59, 68
2, 49298, Note_on_c, 0, 61, 0
2, 49444, Note_on_c, 0, 57, 68
2, 49473, Note_on_c, 0, 59, 0
2, 49621, Note_on_c, 0, 56, 66
2, 49626, Note_on_c, 0, 57, 0
2, 49735, Note_on_c, 0, 54, 0
2, 49802, Note_on_c, 0, 57, 76
2, 49818, Note_on_c, 0, 56, 0
2, 49996, Note_on_c, 0, 54, 72
2, 49997, Note_on_c, 0, 57, 0
2, 50245, Note_on_c, 0, 66, 73
2, 50454, Note_on_c, 0, 68, 70
2, 50464, Note_on_c, 0, 69, 0
2, 50611, Note_on_c, 0, 68, 0
2, 50629, Note_on_c, 0, 69, 74
2, 50799, Note_on_c, 0, 64, 62
2, 50801, Note_on_c, 0, 73, 78
2, 50811, Note_on_c, 0, 66, 0
2, 50833, Note_on_c, 0, 69, 0
2, 50994, Note_on_c, 0, 64, 0
2, 51021, Note_on_c, 0, 78, 81
2, 51027, Note_on_c, 0, 63, 55
2, 51149, Note_on_c, 0, 73, 0
2, 51195, Note_on_c, 0, 63, 0
2, 51207, Note_on_c, 0, 61, 55
2, 51384, Note_on_c, 0, 61, 0
2, 51407, Note_on_c, 0, 59, 50
2, 51410, Note_on_c, 0, 56, 49
2, 51452, Note_on_c, 0, 54, 0
2, 51576, Note_on_c, 0, 76, 68
2, 51644, Note_on_c, 0, 78, 0
2, 51747, Note_on_c, 0, 75, 79
2, 51778, Note_on_c, 0, 76, 0
2, 51912, Note_on_c, 0, 59, 0
2, 51921, Note_on_c, 0, 61, 56
2, 51921, Note_on_c, 0, 73, 72
2, 51925, Note_on_c, 0, 57, 50
2, 51959, Note_on_c, 0, 75, 0
2, 51960, Note_on_c, 0, 56, 0
2, 52102, Note_on_c, 0, 71, 69
2, 52108, Note_on_c, 0, 57, 0
2, 52109, Note_on_c, 0, 63, 48
2, 52114, Note_on_c, 0, 73, 0
2, 52117, Note_on_c, 0, 59, 59
2, 52124, Note_on_c, 0, 61, 0
2, 52256, Note_on_c, 0, 69, 63
2, 52259, Control_c, 0, 64, 26
2, 52274, Control_c, 0, 64, 62
2, 52289, Control_c, 0, 64, 66
2, 52304, Control_c, 0, 64, 71
2, 52308, Note_on_c, 0, 71, 0
2, 52320, Control_c, 0, 64, 80
2, 52335, Control_c, 0, 64, 87
2, 52349, Control_c, 0, 64, 87
2, 52373, Note_on_c, 0, 69, 0
2, 52380, Control_c, 0, 64, 88
2, 52396, Control_c, 0, 64, 94
2, 52411, Control_c, 0, 64, 100
2, 52425, Control_c, 0, 64, 103
2, 52449, Control_c, 0, 64, 103
2, 52466, Note_on_c, 0, 69, 54
2, 52472, Note_on_c, 0, 52, 52
2, 52479, Control_c, 0, 64, 101
2, 52494, Control_c, 0, 64, 93
2, 52509, Control_c, 0, 64, 83
2, 52525, Control_c, 0, 64, 76
2, 52540, Control_c, 0, 64, 71
2, 52544, Note_on_c, 0, 68, 69
2, 52555, Control_c, 0, 64, 66
2, 52557, Note_on_c, 0, 69, 0
2, 52570, Control_c, 0, 64, 61
2, 52585, Control_c, 0, 64, 0
2, 52627, Note_on_c, 0, 68, 0
2, 52633, Note_on_c, 0, 66, 76
2, 52808, Note_on_c, 0, 68, 74
2, 52837, Note_on_c, 0, 66, 0
2, 52983, Note_on_c, 0, 71, 68
2, 52990, Note_on_c, 0, 56, 53
2, 53011, Note_on_c, 0, 68, 0
2, 53013, Note_on_c, 0, 63, 0
2, 53024, Note_on_c, 0, 59, 0
2, 53182, Note_on_c, 0, 76, 69
2, 53198, Note_on_c, 0, 56, 0
2, 53206, Note_on_c, 0, 61, 49
2, 53243, Note_on_c, 0, 71, 0
2, 53342, Note_on_c, 0, 61, 0
2, 53380, Note_on_c, 0, 60, 49
2, 53516, Note_on_c, 0, 60, 0
2, 53538, Note_on_c, 0, 61, 59
2, 53583, Note_on_c, 0, 61, 0
2, 53602, Note_on_c, 0, 60, 54
2, 53672, Note_on_c, 0, 60, 0
2, 53676, Note_on_c, 0, 61, 57
2, 53868, Note_on_c, 0, 75, 63
2, 53910, Note_on_c, 0, 76, 0
2, 54048, Note_on_c, 0, 73, 63
2, 54095, Note_on_c, 0, 75, 0
2, 54180, Note_on_c, 0, 52, 0
2, 54209, Note_on_c, 0, 71, 67
2, 54212, Note_on_c, 0, 51, 53
2, 54248, Note_on_c, 0, 73, 0
2, 54372, Note_on_c, 0, 71, 0
2, 54378, Note_on_c, 0, 51, 0
2, 54383, Note_on_c, 0, 69, 70
2, 54405, Note_on_c, 0, 49, 49
2, 54544, Note_on_c, 0, 68, 69
2, 54589, Note_on_c, 0, 69, 0
2, 54667, Note_on_c, 0, 68, 0
2, 54732, Note_on_c, 0, 49, 0
2, 54732, Note_on_c, 0, 51, 54
2, 54735, Note_on_c, 0, 68, 66
2, 54825, Note_on_c, 0, 66, 75
2, 54865, Note_on_c, 0, 68, 0
2, 54913, Note_on_c, 0, 64, 74
2, 54926, Note_on_c, 0, 66, 0
2, 55092, Note_on_c, 0, 66, 77
2, 55143, Note_on_c, 0, 64, 0
2, 55268, Note_on_c, 0, 69, 68
2, 55282, Note_on_c, 0, 60, 51
2, 55285, Note_on_c, 0, 61, 0
2, 55314, Note_on_c, 0, 66, 0
2, 55495, Note_on_c, 0, 75, 73
2, 55503, Note_on_c, 0, 60, 0
2, 55525, Note_on_c, 0, 61, 44
2, 55576, Note_on_c, 0, 69, 0
2, 55705, Note_on_c, 0, 58, 63
2, 55718, Note_on_c, 0, 61, 0
2, 55830, Note_on_c, 0, 58, 0
2, 55859, Note_on_c, 0, 60, 54
2, 55879, Note_on_c, 0, 56, 50
2, 55917, Note_on_c, 0, 60, 0
2, 55929, Note_on_c, 0, 51, 0
2, 55934, Note_on_c, 0, 58, 59
2, 55989, Note_on_c, 0, 60, 45
2, 56042, Note_on_c, 0, 58, 0
2, 56197, Note_on_c, 0, 73, 64
2, 56315, Note_on_c, 0, 75, 0
2, 56387, Note_on_c, 0, 72, 76
2, 56434, Note_on_c, 0, 73, 0
2, 56537, Note_on_c, 0, 60, 0
2, 56538, Note_on_c, 0, 58, 53
2, 56542, Note_on_c, 0, 70, 74
2, 56544, Note_on_c, 0, 61, 56
2, 56562, Note_on_c, 0, 56, 0
2, 56587, Note_on_c, 0, 72, 0
2, 56696, Note_on_c, 0, 58, 0
2, 56709, Note_on_c, 0, 61, 0
2, 56716, Note_on_c, 0, 60, 58
2, 56720, Note_on_c, 0, 68, 73
2, 56721, Note_on_c, 0, 70, 0
2, 56730, Note_on_c, 0, 63, 54
2, 56883, Note_on_c, 0, 66, 79
2, 56916, Note_on_c, 0, 68, 0
2, 57013, Note_on_c, 0, 66, 0
2, 57076, Note_on_c, 0, 66, 69
2, 57086, Note_on_c, 0, 61, 59
2, 57086, Note_on_c, 0, 63, 0
2, 57114, Note_on_c, 0, 60, 0
2, 57154, Note_on_c, 0, 66, 0
2, 57161, Note_on_c, 0, 64, 69
2, 57252, Note_on_c, 0, 63, 70
2, 57280, Note_on_c, 0, 64, 0
2, 57410, Note_on_c, 0, 63, 0
2, 57422, Note_on_c, 0, 64, 68
2, 57608, Note_on_c, 0, 68, 69
2, 57625, Note_on_c, 0, 59, 54
2, 57637, Note_on_c, 0, 64, 0
2, 57812, Note_on_c, 0, 59, 0
2, 57815, Note_on_c, 0, 73, 68
2, 57848, Note_on_c, 0, 68, 0
2, 57855, Note_on_c, 0, 57, 42
2, 58011, Note_on_c, 0, 56, 58
2, 58019, Note_on_c, 0, 57, 0
2, 58223, Note_on_c, 0, 56, 0
2, 58257, Note_on_c, 0, 57, 45
2, 58267, Note_on_c, 0, 54, 35
2, 58477, Note_on_c, 0, 71, 56
2, 58531, Note_on_c, 0, 73, 0
2, 58654, Note_on_c, 0, 69, 66
2, 58724, Note_on_c, 0, 71, 0
2, 58812, Note_on_c, 0, 61, 0
2, 58815, Note_on_c, 0, 57, 0
2, 58818, Note_on_c, 0, 68, 69
2, 58820, Note_on_c, 0, 59, 61
2, 58839, Note_on_c, 0, 69, 0
2, 58989, Note_on_c, 0, 69, 72
2, 58996, Note_on_c, 0, 59, 0
2, 58999, Note_on_c, 0, 61, 70
2, 59087, Note_on_c, 0, 68, 0
2, 59096, Note_on_c, 0, 69, 0
2, 59124, Note_on_c, 0, 66, 74
2, 59287, Note_on_c, 0, 61, 0
2, 59307, Note_on_c, 0, 62, 63
2, 59332, Note_on_c, 0, 78, 75
2, 59334, Note_on_c, 0, 66, 0
2, 59380, Note_on_c, 0, 62, 0
2, 59384, Note_on_c, 0, 61, 77
2, 59451, Note_on_c, 0, 62, 77
2, 59456, Note_on_c, 0, 61, 0
2, 59629, Note_on_c, 0, 76, 70
2, 59678, Note_on_c, 0, 78, 0
2, 59792, Note_on_c, 0, 74, 79
2, 59828, Note_on_c, 0, 76, 0
2, 59954, Note_on_c, 0, 73, 73
2, 59956, Note_on_c, 0, 52, 71
2, 59956, Note_on_c, 0, 54, 0
2, 59983, Note_on_c, 0, 74, 0
2, 60141, Note_on_c, 0, 74, 81
2, 60148, Note_on_c, 0, 54, 68
2, 60169, Note_on_c, 0, 52, 0
2, 60176, Note_on_c, 0, 73, 0
2, 60298, Note_on_c, 0, 74, 0
2, 60316, Note_on_c, 0, 69, 80
2, 60378, Note_on_c, 0, 62, 0
2, 60552, Note_on_c, 0, 81, 83
2, 60561, Note_on_c, 0, 60, 64
2, 60569, Note_on_c, 0, 51, 69
2, 60598, Note_on_c, 0, 54, 0
2, 60740, Note_on_c, 0, 69, 0
2, 60811, Note_on_c, 0, 80, 76
2, 60863, Note_on_c, 0, 81, 0
2, 61001, Note_on_c, 0, 78, 81
2, 61063, Note_on_c, 0, 80, 0
2, 61168, Note_on_c, 0, 76, 81
2, 61172, Note_on_c, 0, 54, 72
2, 61190, Note_on_c, 0, 51, 0
2, 61193, Note_on_c, 0, 78, 0
2, 61350, Note_on_c, 0, 78, 85
2, 61357, Note_on_c, 0, 54, 0
2, 61361, Note_on_c, 0, 57, 71
2, 61371, Note_on_c, 0, 76, 0
2, 61533, Note_on_c, 0, 75, 89
2, 61537, Note_on_c, 0, 60, 0
2, 61548, Note_on_c, 0, 78, 0
2, 61581, Control_c, 0, 64, 44
2, 61597, Control_c, 0, 64, 58
2, 61612, Control_c, 0, 64, 61
2, 61627, Control_c, 0, 64, 63
2, 61643, Control_c, 0, 64, 64
2, 61664, Control_c, 0, 64, 65
2, 61680, Control_c, 0, 64, 66
2, 61695, Control_c, 0, 64, 66
2, 61710, Control_c, 0, 64, 65
2, 61726, Control_c, 0, 64, 65
2, 61740, Control_c, 0, 64, 64
2, 61771, Control_c, 0, 64, 64
2, 61786, Control_c, 0, 64, 63
2, 61802, Control_c, 0, 64, 61
2, 61817, Control_c, 0, 64, 56
2, 61833, Control_c, 0, 64, 48
2, 61839, Note_on_c, 0, 84, 85
2, 61848, Control_c, 0, 64, 17
2, 61863, Control_c, 0, 64, 0
2, 61865, Note_on_c, 0, 66, 66
2, 61942, Note_on_c, 0, 57, 0
2, 62093, Note_on_c, 0, 66, 0
2, 62098, Note_on_c, 0, 56, 62
2, 62265, Note_on_c, 0, 54, 60
2, 62323, Note_on_c, 0, 56, 0
2, 62433, Note_on_c, 0, 52, 53
2, 62449, Note_on_c, 0, 54, 0
2, 62588, Note_on_c, 0, 52, 0
2, 62598, Note_on_c, 0, 54, 53
2, 62600, Note_on_c, 0, 80, 80
2, 62638, Note_on_c, 0, 84, 0
2, 62771, Note_on_c, 0, 51, 54
2, 62887, Note_on_c, 0, 80, 0
2, 62896, Note_on_c, 0, 54, 0
2, 62936, Note_on_c, 0, 51, 0
2, 62942, Note_on_c, 0, 80, 74
2, 62963, Note_on_c, 0, 52, 62
2, 63130, Note_on_c, 0, 51, 64
2, 63161, Note_on_c, 0, 52, 0
2, 63316, Note_on_c, 0, 49, 62
2, 63369, Note_on_c, 0, 51, 0
2, 63468, Note_on_c, 0, 76, 76
2, 63475, Note_on_c, 0, 47, 59
2, 63495, Note_on_c, 0, 75, 0
2, 63499, Note_on_c, 0, 49, 0
2, 63650, Note_on_c, 0, 49, 60
2, 63653, Note_on_c, 0, 76, 0
2, 63654, Note_on_c, 0, 47, 0
2, 63655, Note_on_c, 0, 72, 77
2, 63796, Note_on_c, 0, 49, 0
2, 63797, Note_on_c, 0, 45, 63
2, 63928, Note_on_c, 0, 45, 0
2, 63946, Note_on_c, 0, 57, 69
2, 63955, Note_on_c, 0, 73, 67
2, 63994, Note_on_c, 0, 72, 0
2, 64028, Note_on_c, 0, 57, 0
2, 64034, Note_on_c, 0, 56, 68
2, 64040, Note_on_c, 0, 80, 0
2, 64092, Note_on_c, 0, 57, 64
2, 64097, Note_on_c, 0, 56, 0
2, 64293, Note_on_c, 0, 78, 70
2, 64512, Note_on_c, 0, 76, 72
2, 64542, Note_on_c, 0, 78, 0
2, 64693, Note_on_c, 0, 75, 78
2, 64712, Note_on_c, 0, 76, 0
2, 64875, Note_on_c, 0, 76, 71
2, 64915, Note_on_c, 0, 75, 0
2, 64918, Note_on_c, 0, 73, 0
2, 65046, Note_on_c, 0, 73, 74
2, 65109, Note_on_c, 0, 76, 0
2, 65288, Note_on_c, 0, 78, 76
2, 65477, Note_on_c, 0, 56, 52
2, 65523, Note_on_c, 0, 57, 0
2, 65654, Note_on_c, 0, 54, 57
2, 65672, Note_on_c, 0, 56, 0
2, 65819, Note_on_c, 0, 72, 76
2, 65820, Note_on_c, 0, 52, 53
2, 65835, Note_on_c, 0, 54, 0
2, 65853, Note_on_c, 0, 73, 0
2, 66006, Note_on_c, 0, 52, 0
2, 66007, Note_on_c, 0, 75, 79
2, 66012, Note_on_c, 0, 54, 55
2, 66021, Note_on_c, 0, 72, 0
2, 66182, Note_on_c, 0, 51, 63
2, 66182, Note_on_c, 0, 54, 0
2, 66385, Note_on_c, 0, 60, 61
2, 66387, Note_on_c, 0, 68, 68
2, 66425, Note_on_c, 0, 75, 0
2, 66448, Note_on_c, 0, 60, 0
2, 66452, Note_on_c, 0, 58, 67
2, 66520, Note_on_c, 0, 60, 71
2, 66535, Note_on_c, 0, 58, 0
2, 66546, Note_on_c, 0, 78, 0
2, 66556, Note_on_c, 0, 51, 0
2, 66718, Note_on_c, 0, 76, 70
2, 66913, Note_on_c, 0, 75, 79
2, 66939, Note_on_c, 0, 76, 0
2, 67085, Note_on_c, 0, 73, 79
2, 67112, Note_on_c, 0, 75, 0
2, 67260, Note_on_c, 0, 75, 75
2, 67302, Note_on_c, 0, 73, 0
2, 67330, Note_on_c, 0, 68, 0
2, 67446, Note_on_c, 0, 68, 72
2, 67646, Note_on_c, 0, 60, 0
2, 67655, Note_on_c, 0, 76, 72
2, 67659, Note_on_c, 0, 61, 48
2, 67709, Note_on_c, 0, 75, 0
2, 67818, Note_on_c, 0, 61, 0
2, 67834, Note_on_c, 0, 59, 60
2, 68019, Note_on_c, 0, 57, 63
2, 68020, Note_on_c, 0, 59, 0
2, 68175, Note_on_c, 0, 57, 0
2, 68176, Note_on_c, 0, 56, 55
2, 68179, Note_on_c, 0, 68, 0
2, 68180, Note_on_c, 0, 73, 69
2, 68375, Note_on_c, 0, 66, 64
2, 68378, Note_on_c, 0, 57, 53
2, 68385, Note_on_c, 0, 56, 0
2, 68427, Note_on_c, 0, 73, 0
2, 68559, Note_on_c, 0, 57, 0
2, 68580, Note_on_c, 0, 54, 59
2, 68588, Note_on_c, 0, 68, 68
2, 68607, Note_on_c, 0, 66, 0
2, 68875, Note_on_c, 0, 66, 49
2, 68876, Note_on_c, 0, 69, 62
2, 68878, Note_on_c, 0, 68, 0
2, 69033, Note_on_c, 0, 54, 0
2, 69089, Note_on_c, 0, 76, 0
2, 69090, Note_on_c, 0, 75, 74
2, 69280, Note_on_c, 0, 76, 74
2, 69289, Note_on_c, 0, 75, 0
2, 69474, Note_on_c, 0, 78, 85
2, 69499, Note_on_c, 0, 76, 0
2, 69651, Note_on_c, 0, 80, 83
2, 69675, Note_on_c, 0, 78, 0
2, 69858, Note_on_c, 0, 81, 90
2, 69886, Note_on_c, 0, 69, 0
2, 69887, Note_on_c, 0, 80, 0
2, 69983, Control_c, 0, 64, 44
2, 69999, Control_c, 0, 64, 60
2, 70013, Control_c, 0, 64, 63
2, 70028, Control_c, 0, 64, 63
2, 70075, Control_c, 0, 64, 64
2, 70114, Note_on_c, 0, 81, 0
2, 70132, Note_on_c, 0, 73, 78
2, 70139, Note_on_c, 0, 68, 78
2, 70143, Control_c, 0, 64, 63
2, 70159, Control_c, 0, 64, 63
2, 70174, Control_c, 0, 64, 62
2, 70188, Control_c, 0, 64, 60
2, 70204, Control_c, 0, 64, 56
2, 70219, Control_c, 0, 64, 49
2, 70235, Control_c, 0, 64, 17
2, 70249, Control_c, 0, 64, 0
2, 70472, Note_on_c, 0, 73, 0
2, 70490, Note_on_c, 0, 72, 66
2, 70491, Note_on_c, 0, 64, 50
2, 70536, Note_on_c, 0, 66, 0
2, 70546, Note_on_c, 0, 73, 75
2, 70550, Note_on_c, 0, 72, 0
2, 70598, Note_on_c, 0, 73, 0
2, 70605, Note_on_c, 0, 72, 67
2, 70641, Note_on_c, 0, 73, 76
2, 70645, Note_on_c, 0, 72, 0
2, 70698, Note_on_c, 0, 72, 75
2, 70710, Note_on_c, 0, 73, 0
2, 70735, Note_on_c, 0, 63, 54
2, 70755, Note_on_c, 0, 64, 0
2, 70907, Note_on_c, 0, 73, 81
2, 70925, Note_on_c, 0, 72, 0
2, 70949, Note_on_c, 0, 61, 59
2, 71016, Note_on_c, 0, 63, 0
2, 71062, Note_on_c, 0, 61, 0
2, 71075, Note_on_c, 0, 75, 83
2, 71093, Note_on_c, 0, 60, 60
2, 71112, Note_on_c, 0, 73, 0
2, 71226, Note_on_c, 0, 68, 0
2, 71239, Note_on_c, 0, 60, 0
2, 71240, Note_on_c, 0, 58, 64
2, 71274, Note_on_c, 0, 75, 0
2, 71345, Note_on_c, 0, 60, 69
2, 71386, Note_on_c, 0, 63, 76
2, 71445, Note_on_c, 0, 56, 59
2, 71447, Note_on_c, 0, 66, 79
2, 71462, Note_on_c, 0, 58, 0
2, 71625, Note_on_c, 0, 54, 56
2, 71691, Note_on_c, 0, 56, 0
2, 71781, Note_on_c, 0, 54, 0
2, 71800, Note_on_c, 0, 52, 63
2, 71975, Note_on_c, 0, 51, 71
2, 72007, Note_on_c, 0, 52, 0
2, 72168, Note_on_c, 0, 49, 68
2, 72212, Note_on_c, 0, 51, 0
2, 72362, Note_on_c, 0, 47, 70
2, 72385, Note_on_c, 0, 49, 0
2, 72564, Note_on_c, 0, 45, 70
2, 72570, Note_on_c, 0, 47, 0
2, 72758, Note_on_c, 0, 63, 0
2, 72759, Note_on_c, 0, 64, 60
2, 72808, Note_on_c, 0, 60, 0
2, 72811, Note_on_c, 0, 66, 0
2, 72930, Note_on_c, 0, 63, 72
2, 72954, Note_on_c, 0, 64, 0
2, 73059, Note_on_c, 0, 45, 0
2, 73072, Note_on_c, 0, 47, 66
2, 73083, Note_on_c, 0, 61, 74
2, 73099, Note_on_c, 0, 63, 0
2, 73264, Note_on_c, 0, 44, 75
2, 73268, Note_on_c, 0, 63, 70
2, 73293, Note_on_c, 0, 47, 0
2, 73301, Note_on_c, 0, 61, 0
2, 73452, Note_on_c, 0, 60, 73
2, 73486, Note_on_c, 0, 63, 0
2, 73648, Note_on_c, 0, 69, 71
2, 73661, Note_on_c, 0, 42, 70
2, 73691, Note_on_c, 0, 44, 0
2, 73694, Note_on_c, 0, 60, 0
2, 73844, Note_on_c, 0, 68, 73
2, 73889, Note_on_c, 0, 69, 0
2, 74011, Note_on_c, 0, 66, 77
2, 74079, Note_on_c, 0, 68, 0
2, 74162, Note_on_c, 0, 42, 0
2, 74170, Note_on_c, 0, 44, 70
2, 74178, Note_on_c, 0, 64, 77
2, 74201, Note_on_c, 0, 66, 0
2, 74353, Note_on_c, 0, 40, 77
2, 74366, Note_on_c, 0, 66, 80
2, 74384, Note_on_c, 0, 64, 0
2, 74393, Note_on_c, 0, 44, 0
2, 74526, Note_on_c, 0, 66, 0
2, 74534, Note_on_c, 0, 63, 79
2, 74746, Note_on_c, 0, 39, 73
2, 74747, Note_on_c, 0, 72, 77
2, 74748, Note_on_c, 0, 63, 0
2, 74789, Note_on_c, 0, 40, 0
2, 74945, Note_on_c, 0, 69, 78
2, 75001, Note_on_c, 0, 72, 0
2, 75101, Note_on_c, 0, 68, 74
2, 75143, Note_on_c, 0, 69, 0
2, 75270, Note_on_c, 0, 66, 80
2, 75274, Note_on_c, 0, 40, 68
2, 75302, Note_on_c, 0, 68, 0
2, 75370, Note_on_c, 0, 39, 0
2, 75448, Note_on_c, 0, 68, 76
2, 75458, Note_on_c, 0, 42, 76
2, 75468, Note_on_c, 0, 40, 0
2, 75474, Note_on_c, 0, 66, 0
2, 75643, Note_on_c, 0, 63, 78
2, 75646, Note_on_c, 0, 68, 0
2, 75890, Note_on_c, 0, 75, 85
2, 75893, Note_on_c, 0, 36, 73
2, 75937, Note_on_c, 0, 63, 0
2, 75946, Note_on_c, 0, 42, 0
2, 76127, Note_on_c, 0, 73, 79
2, 76186, Note_on_c, 0, 75, 0
2, 76321, Note_on_c, 0, 72, 79
2, 76367, Note_on_c, 0, 73, 0
2, 76489, Note_on_c, 0, 70, 77
2, 76514, Note_on_c, 0, 39, 67
2, 76528, Note_on_c, 0, 72, 0
2, 76671, Note_on_c, 0, 36, 0
2, 76697, Note_on_c, 0, 42, 69
2, 76697, Note_on_c, 0, 72, 85
2, 76711, Note_on_c, 0, 39, 0
2, 76729, Note_on_c, 0, 70, 0
2, 76859, Note_on_c, 0, 72, 0
2, 76874, Note_on_c, 0, 68, 82
2, 77120, Note_on_c, 0, 80, 81
2, 77131, Note_on_c, 0, 40, 63
2, 77162, Note_on_c, 0, 42, 0
2, 77169, Note_on_c, 0, 68, 0
2, 77357, Note_on_c, 0, 52, 70
2, 77363, Note_on_c, 0, 40, 0
2, 77537, Note_on_c, 0, 54, 68
2, 77538, Note_on_c, 0, 78, 77
2, 77558, Note_on_c, 0, 52, 0
2, 77636, Note_on_c, 0, 80, 0
2, 77702, Note_on_c, 0, 76, 75
2, 77704, Note_on_c, 0, 56, 67
2, 77720, Note_on_c, 0, 78, 0
2, 77746, Note_on_c, 0, 54, 0
2, 77881, Note_on_c, 0, 56, 0
2, 77887, Note_on_c, 0, 75, 77
2, 77890, Note_on_c, 0, 57, 76
2, 77914, Note_on_c, 0, 76, 0
2, 78052, Note_on_c, 0, 54, 68
2, 78054, Note_on_c, 0, 73, 77
2, 78076, Note_on_c, 0, 57, 0
2, 78108, Note_on_c, 0, 75, 0
2, 78222, Note_on_c, 0, 72, 79
2, 78233, Note_on_c, 0, 51, 64
2, 78256, Note_on_c, 0, 54, 0
2, 78257, Note_on_c, 0, 73, 0
2, 78400, Note_on_c, 0, 73, 75
2, 78406, Note_on_c, 0, 52, 70
2, 78429, Note_on_c, 0, 51, 0
2, 78439, Note_on_c, 0, 72, 0
2, 78553, Note_on_c, 0, 52, 0
2, 78578, Note_on_c, 0, 75, 79
2, 78585, Note_on_c, 0, 54, 67
2, 78621, Note_on_c, 0, 73, 0
2, 78751, Note_on_c, 0, 51, 61
2, 78761, Note_on_c, 0, 78, 78
2, 78788, Note_on_c, 0, 54, 0
2, 78830, Note_on_c, 0, 75, 0
2, 78971, Note_on_c, 0, 48, 47
2, 78975, Note_on_c, 0, 69, 66
2, 79002, Note_on_c, 0, 51, 0
2, 79036, Note_on_c, 0, 78, 0
2, 79139, Note_on_c, 0, 49, 67
2, 79149, Note_on_c, 0, 48, 0
2, 79319, Note_on_c, 0, 49, 0
2, 79336, Note_on_c, 0, 51, 66
2, 79491, Note_on_c, 0, 48, 61
2, 79494, Note_on_c, 0, 69, 0
2, 79500, Note_on_c, 0, 68, 67
2, 79510, Note_on_c, 0, 51, 0
2, 79676, Note_on_c, 0, 44, 59
2, 79679, Note_on_c, 0, 69, 73
2, 79680, Note_on_c, 0, 68, 0
2, 79681, Note_on_c, 0, 48, 0
2, 79841, Note_on_c, 0, 46, 66
2, 79847, Note_on_c, 0, 69, 0
2, 79852, Note_on_c, 0, 66, 78
2, 79876, Control_c, 0, 64, 58
2, 79892, Control_c, 0, 64, 69
2, 79898, Note_on_c, 0, 44, 0
2, 79907, Control_c, 0, 64, 83
2, 79917, Note_on_c, 0, 66, 0
2, 79923, Control_c, 0, 64, 127
2, 80069, Note_on_c, 0, 81, 92
2, 80082, Note_on_c, 0, 48, 51
2, 80113, Control_c, 0, 64, 86
2, 80128, Control_c, 0, 64, 65
2, 80140, Note_on_c, 0, 46, 0
2, 80142, Control_c, 0, 64, 0
2, 80259, Note_on_c, 0, 48, 0
2, 80266, Note_on_c, 0, 49, 63
2, 80466, Note_on_c, 0, 51, 63
2, 80560, Note_on_c, 0, 49, 0
2, 80643, Note_on_c, 0, 51, 0
2, 80652, Note_on_c, 0, 52, 63
2, 80820, Note_on_c, 0, 54, 59
2, 80821, Note_on_c, 0, 80, 79
2, 80824, Note_on_c, 0, 52, 0
2, 80865, Note_on_c, 0, 81, 0
2, 81017, Note_on_c, 0, 78, 78
2, 81023, Note_on_c, 0, 56, 69
2, 81047, Note_on_c, 0, 54, 0
2, 81088, Note_on_c, 0, 80, 0
2, 81193, Note_on_c, 0, 58, 69
2, 81201, Note_on_c, 0, 76, 78
2, 81211, Note_on_c, 0, 78, 0
2, 81226, Note_on_c, 0, 56, 0
2, 81358, Note_on_c, 0, 58, 0
2, 81366, Note_on_c, 0, 60, 64
2, 81368, Note_on_c, 0, 75, 85
2, 81386, Note_on_c, 0, 76, 0
2, 81553, Note_on_c, 0, 76, 73
2, 81568, Note_on_c, 0, 60, 0
2, 81570, Note_on_c, 0, 61, 64
2, 81596, Note_on_c, 0, 75, 0
2, 81747, Note_on_c, 0, 61, 0
2, 81747, Note_on_c, 0, 75, 66
2, 81760, Note_on_c, 0, 59, 67
2, 81925, Note_on_c, 0, 57, 73
2, 81927, Note_on_c, 0, 73, 76
2, 81937, Note_on_c, 0, 59, 0
2, 81947, Note_on_c, 0, 75, 0
2, 82097, Note_on_c, 0, 56, 69
2, 82097, Note_on_c, 0, 57, 0
2, 82103, Note_on_c, 0, 72, 79
2, 82111, Note_on_c, 0, 73, 0
2, 82278, Note_on_c, 0, 57, 67
2, 82281, Note_on_c, 0, 73, 79
2, 82283, Note_on_c, 0, 56, 0
2, 82291, Note_on_c, 0, 76, 0
2, 82323, Note_on_c, 0, 72, 0
2, 82475, Note_on_c, 0, 54, 61
2, 82476, Note_on_c, 0, 57, 0
2, 82476, Note_on_c, 0, 81, 82
2, 82507, Note_on_c, 0, 73, 0
2, 82610, Note_on_c, 0, 73, 65
2, 82793, Note_on_c, 0, 76, 79
2, 82797, Note_on_c, 0, 56, 57
2, 82799, Note_on_c, 0, 81, 0
2, 82802, Note_on_c, 0, 54, 0
2, 83488, Control_c, 0, 64, 39
2, 83503, Control_c, 0, 64, 51
2, 83548, Control_c, 0, 64, 52
2, 83564, Control_c, 0, 64, 54
2, 83579, Control_c, 0, 64, 55
2, 83585, Note_on_c, 0, 78, 73
2, 83608, Note_on_c, 0, 76, 0
2, 83641, Control_c, 0, 64, 56
2, 83655, Control_c, 0, 64, 59
2, 83670, Control_c, 0, 64, 62
2, 83686, Control_c, 0, 64, 63
2, 83700, Control_c, 0, 64, 64
2, 83716, Control_c, 0, 64, 64
2, 83746, Control_c, 0, 64, 65
2, 83762, Control_c, 0, 64, 67
2, 83776, Control_c, 0, 64, 71
2, 83787, Note_on_c, 0, 73, 0
2, 83791, Control_c, 0, 64, 79
2, 83807, Control_c, 0, 64, 88
2, 83822, Control_c, 0, 64, 91
2, 83867, Control_c, 0, 64, 90
2, 83878, Note_on_c, 0, 76, 59
2, 83883, Control_c, 0, 64, 89
2, 83883, Note_on_c, 0, 72, 62
2, 83898, Control_c, 0, 64, 86
2, 83900, Note_on_c, 0, 44, 52
2, 83913, Control_c, 0, 64, 82
2, 83928, Control_c, 0, 64, 76
2, 83937, Note_on_c, 0, 78, 0
2, 83951, Control_c, 0, 64, 71
2, 83967, Control_c, 0, 64, 65
2, 83982, Control_c, 0, 64, 40
2, 83984, Note_on_c, 0, 75, 67
2, 83998, Control_c, 0, 64, 0
2, 84013, Note_on_c, 0, 76, 0
2, 84069, Note_on_c, 0, 75, 0
2, 84075, Note_on_c, 0, 73, 66
2, 84163, Note_on_c, 0, 75, 73
2, 84208, Note_on_c, 0, 73, 0
2, 84916, Note_on_c, 0, 73, 69
2, 84917, Note_on_c, 0, 72, 0
2, 84926, Note_on_c, 0, 46, 54
2, 84934, Note_on_c, 0, 75, 0
2, 84935, Note_on_c, 0, 44, 0
2, 85066, Note_on_c, 0, 56, 0
2, 85210, Note_on_c, 0, 56, 47
2, 85212, Note_on_c, 0, 71, 56
2, 85393, Note_on_c, 0, 56, 0
2, 85414, Note_on_c, 0, 70, 69
2, 85422, Note_on_c, 0, 55, 56
2, 85447, Note_on_c, 0, 71, 0
2, 85575, Note_on_c, 0, 55, 0
2, 85582, Note_on_c, 0, 56, 62
2, 85600, Note_on_c, 0, 68, 76
2, 85633, Note_on_c, 0, 70, 0
2, 85764, Note_on_c, 0, 58, 54
2, 85771, Note_on_c, 0, 56, 0
2, 85780, Note_on_c, 0, 67, 73
2, 85787, Note_on_c, 0, 68, 0
2, 85927, Note_on_c, 0, 68, 69
2, 85934, Note_on_c, 0, 51, 59
2, 85951, Note_on_c, 0, 67, 0
2, 86022, Note_on_c, 0, 58, 0
2, 86061, Note_on_c, 0, 68, 0
2, 86136, Note_on_c, 0, 68, 62
2, 86138, Note_on_c, 0, 51, 0
2, 86148, Note_on_c, 0, 52, 47
2, 86365, Note_on_c, 0, 67, 54
2, 86381, Note_on_c, 0, 68, 0
2, 86755, Note_on_c, 0, 76, 63
2, 86774, Note_on_c, 0, 47, 49
2, 86797, Note_on_c, 0, 73, 0
2, 86809, Note_on_c, 0, 46, 0
2, 86947, Note_on_c, 0, 75, 73
2, 86958, Note_on_c, 0, 47, 0
2, 86964, Note_on_c, 0, 49, 54
2, 86996, Note_on_c, 0, 76, 0
2, 87383, Note_on_c, 0, 76, 59
2, 87384, Note_on_c, 0, 43, 48
2, 87387, Note_on_c, 0, 67, 0
2, 87414, Note_on_c, 0, 49, 0
2, 87424, Note_on_c, 0, 75, 0
2, 87575, Note_on_c, 0, 52, 0
2, 87585, Note_on_c, 0, 51, 39
2, 87590, Note_on_c, 0, 68, 55
2, 87628, Note_on_c, 0, 68, 0
2, 87737, Note_on_c, 0, 51, 0
2, 87751, Note_on_c, 0, 70, 60
2, 87755, Note_on_c, 0, 49, 52
2, 87924, Note_on_c, 0, 49, 0
2, 87926, Note_on_c, 0, 47, 60
2, 87930, Note_on_c, 0, 68, 64
2, 87965, Note_on_c, 0, 70, 0
2, 87966, Note_on_c, 0, 68, 0
2, 88110, Note_on_c, 0, 71, 65
2, 88117, Note_on_c, 0, 49, 61
2, 88126, Note_on_c, 0, 47, 0
2, 88296, Note_on_c, 0, 70, 66
2, 88314, Note_on_c, 0, 52, 55
2, 88315, Note_on_c, 0, 71, 0
2, 88321, Note_on_c, 0, 49, 0
2, 88360, Note_on_c, 0, 70, 0
2, 88568, Note_on_c, 0, 70, 55
2, 88584, Note_on_c, 0, 55, 48
2, 88597, Note_on_c, 0, 52, 0
2, 89241, Note_on_c, 0, 44, 57
2, 89244, Note_on_c, 0, 72, 73
2, 89260, Note_on_c, 0, 43, 0
2, 89482, Note_on_c, 0, 73, 80
2, 89486, Note_on_c, 0, 44, 0
2, 89487, Note_on_c, 0, 46, 68
2, 89496, Note_on_c, 0, 72, 0
2, 89651, Note_on_c, 0, 55, 0
2, 89661, Control_c, 0, 64, 55
2, 89676, Control_c, 0, 64, 70
2, 89677, Note_on_c, 0, 76, 0
2, 89691, Control_c, 0, 64, 119
2, 89706, Control_c, 0, 64, 127
2, 89978, Note_on_c, 0, 79, 87
2, 89982, Note_on_c, 0, 39, 69
2, 90057, Control_c, 0, 64, 81
2, 90066, Note_on_c, 0, 46, 0
2, 90073, Control_c, 0, 64, 64
2, 90095, Control_c, 0, 64, 0
2, 90244, Note_on_c, 0, 75, 68
2, 90421, Note_on_c, 0, 76, 62
2, 90435, Note_on_c, 0, 73, 0
2, 90440, Note_on_c, 0, 75, 0
2, 90503, Note_on_c, 0, 70, 0
2, 90605, Note_on_c, 0, 75, 74
2, 90663, Note_on_c, 0, 76, 0
2, 90778, Note_on_c, 0, 73, 68
2, 90883, Note_on_c, 0, 75, 0
2, 90957, Note_on_c, 0, 71, 73
2, 90973, Note_on_c, 0, 73, 0
2, 91007, Note_on_c, 0, 39, 0
2, 91131, Note_on_c, 0, 70, 74
2, 91156, Note_on_c, 0, 71, 0
2, 91311, Note_on_c, 0, 68, 64
2, 91473, Note_on_c, 0, 70, 0
2, 91478, Note_on_c, 0, 67, 69
2, 91501, Note_on_c, 0, 68, 0
2, 91663, Note_on_c, 0, 65, 69
2, 91674, Note_on_c, 0, 67, 0
2, 91829, Note_on_c, 0, 65, 0
2, 91855, Note_on_c, 0, 72, 69
2, 91855, Note_on_c, 0, 80, 84
2, 91858, Note_on_c, 0, 66, 54
2, 91905, Note_on_c, 0, 79, 0
2, 92025, Control_c, 0, 64, 65
2, 92041, Control_c, 0, 64, 79
2, 92046, Note_on_c, 0, 80, 0
2, 92052, Note_on_c, 0, 72, 0
2, 92056, Control_c, 0, 64, 127
2, 92056, Note_on_c, 0, 63, 67
2, 92079, Note_on_c, 0, 66, 0
2, 92295, Note_on_c, 0, 63, 0
2, 92295, Note_on_c, 0, 73, 77
2, 92300, Note_on_c, 0, 64, 66
2, 92331, Control_c, 0, 64, 119
2, 92346, Control_c, 0, 64, 77
2, 92361, Control_c, 0, 64, 63
2, 92384, Control_c, 0, 64, 0
2, 92492, Note_on_c, 0, 63, 65
2, 92502, Note_on_c, 0, 71, 66
2, 92669, Note_on_c, 0, 61, 71
2, 92669, Note_on_c, 0, 69, 67
2, 92686, Note_on_c, 0, 63, 0
2, 92711, Note_on_c, 0, 64, 0
2, 92711, Note_on_c, 0, 71, 0
2, 92842, Note_on_c, 0, 61, 0
2, 92845, Note_on_c, 0, 68, 74
2, 92851, Note_on_c, 0, 59, 69
2, 92866, Note_on_c, 0, 69, 0
2, 93031, Note_on_c, 0, 66, 76
2, 93033, Note_on_c, 0, 57, 61
2, 93049, Note_on_c, 0, 68, 0
2, 93059, Note_on_c, 0, 59, 0
2, 93222, Note_on_c, 0, 69, 71
2, 93231, Note_on_c, 0, 54, 66
2, 93240, Note_on_c, 0, 57, 0
2, 93242, Note_on_c, 0, 66, 0
2, 93423, Note_on_c, 0, 54, 0
2, 93429, Note_on_c, 0, 64, 63
2, 93439, Note_on_c, 0, 56, 62
2, 93448, Note_on_c, 0, 69, 0
2, 93620, Note_on_c, 0, 51, 59
2, 93657, Note_on_c, 0, 56, 0
2, 93821, Note_on_c, 0, 51, 0
2, 93829, Note_on_c, 0, 52, 60
2, 94051, Note_on_c, 0, 75, 75
2, 94058, Note_on_c, 0, 66, 61
2, 94071, Note_on_c, 0, 52, 0
2, 94076, Note_on_c, 0, 49, 47
2, 94082, Note_on_c, 0, 64, 0
2, 94095, Note_on_c, 0, 73, 0
2, 94354, Note_on_c, 0, 72, 70
2, 94369, Note_on_c, 0, 63, 36
2, 94371, Note_on_c, 0, 66, 0
2, 94376, Note_on_c, 0, 44, 45
2, 94395, Note_on_c, 0, 75, 0
2, 94397, Note_on_c, 0, 49, 0
2, 94670, Note_on_c, 0, 66, 65
2, 94671, Note_on_c, 0, 56, 45
2, 94767, Control_c, 0, 64, 44
2, 94781, Control_c, 0, 64, 62
2, 94797, Control_c, 0, 64, 64
2, 94812, Control_c, 0, 64, 67
2, 94827, Control_c, 0, 64, 81
2, 94840, Note_on_c, 0, 63, 0
2, 94842, Control_c, 0, 64, 127
2, 95016, Note_on_c, 0, 73, 73
2, 95028, Note_on_c, 0, 61, 51
2, 95037, Note_on_c, 0, 49, 48
2, 95040, Control_c, 0, 64, 96
2, 95049, Note_on_c, 0, 72, 0
2, 95055, Control_c, 0, 64, 74
2, 95071, Control_c, 0, 64, 64
2, 95086, Control_c, 0, 64, 0
2, 95092, Note_on_c, 0, 44, 0
2, 95286, Note_on_c, 0, 68, 68
2, 95354, Note_on_c, 0, 66, 0
2, 95559, Note_on_c, 0, 69, 57
2, 95577, Note_on_c, 0, 54, 44
2, 95580, Note_on_c, 0, 68, 0
2, 95598, Note_on_c, 0, 56, 0
2, 95845, Note_on_c, 0, 66, 53
2, 95902, Note_on_c, 0, 69, 0
2, 95915, Control_c, 0, 64, 42
2, 95930, Control_c, 0, 64, 62
2, 95944, Control_c, 0, 64, 65
2, 95960, Control_c, 0, 64, 69
2, 95973, Note_on_c, 0, 61, 0
2, 95975, Control_c, 0, 64, 75
2, 95990, Control_c, 0, 64, 79
2, 96005, Control_c, 0, 64, 82
2, 96020, Control_c, 0, 64, 86
2, 96036, Control_c, 0, 64, 94
2, 96051, Control_c, 0, 64, 112
2, 96066, Control_c, 0, 64, 127
2, 96141, Control_c, 0, 64, 122
2, 96157, Control_c, 0, 64, 107
2, 96171, Note_on_c, 0, 63, 49
2, 96172, Control_c, 0, 64, 96
2, 96188, Control_c, 0, 64, 86
2, 96197, Note_on_c, 0, 57, 40
2, 96202, Control_c, 0, 64, 78
2, 96226, Control_c, 0, 64, 70
2, 96241, Control_c, 0, 64, 63
2, 96256, Control_c, 0, 64, 0
2, 96282, Note_on_c, 0, 54, 0
2, 96562, Note_on_c, 0, 72, 64
2, 96621, Note_on_c, 0, 73, 0
2, 96713, Control_c, 0, 64, 33
2, 96728, Control_c, 0, 64, 57
2, 96743, Control_c, 0, 64, 62
2, 96759, Control_c, 0, 64, 65
2, 96774, Control_c, 0, 64, 69
2, 96789, Control_c, 0, 64, 77
2, 96804, Control_c, 0, 64, 96
2, 96819, Control_c, 0, 64, 127
2, 96828, Note_on_c, 0, 63, 0
2, 96973, Note_on_c, 0, 72, 0
2, 97193, Control_c, 0, 64, 113
2, 97195, Note_on_c, 0, 73, 47
2, 97202, Note_on_c, 0, 65, 40
2, 97208, Control_c, 0, 64, 93
2, 97208, Note_on_c, 0, 68, 49
2, 97212, Note_on_c, 0, 66, 0
2, 97222, Control_c, 0, 64, 83
2, 97226, Note_on_c, 0, 56, 35
2, 97238, Control_c, 0, 64, 75
2, 97253, Control_c, 0, 64, 69
2, 97269, Control_c, 0, 64, 64
2, 97283, Control_c, 0, 64, 56
2, 97298, Control_c, 0, 64, 26
2, 97314, Control_c, 0, 64, 0
2, 97399, Note_on_c, 0, 57, 0
2, 99999, Note_on_c, 0, 56, 0
2, 100011, Note_on_c, 0, 65, 0
2, 100023, Note_on_c, 0, 73, 0
2, 100033, Note_on_c, 0, 68, 0
2, 100038, Note_on_c, 0, 49, 0
2, 100948, Note_on_c, 0, 49, 70
2, 102356, Note_on_c, 0, 48, 63
2, 102416, Note_on_c, 0, 49, 0
2, 103078, Note_on_c, 0, 52, 80
2, 103148, Note_on_c, 0, 48, 0
2, 103794, Note_on_c, 0, 51, 67
2, 103841, Note_on_c, 0, 52, 0
2, 105141, Note_on_c, 0, 56, 78
2, 105149, Note_on_c, 0, 49, 51
2, 105224, Note_on_c, 0, 51, 0
2, 105485, Note_on_c, 0, 51, 61
2, 105517, Note_on_c, 0, 49, 0
2, 105830, Note_on_c, 0, 51, 0
2, 105836, Note_on_c, 0, 52, 54
2, 106470, Note_on_c, 0, 55, 77
2, 106552, Note_on_c, 0, 56, 0
2, 106581, Note_on_c, 0, 52, 0
2, 106770, Note_on_c, 0, 51, 62
2, 106922, Note_on_c, 0, 49, 66
2, 106931, Note_on_c, 0, 51, 0
2, 107105, Note_on_c, 0, 59, 85
2, 107117, Note_on_c, 0, 51, 57
2, 107130, Note_on_c, 0, 49, 0
2, 107156, Note_on_c, 0, 55, 0
2, 107259, Note_on_c, 0, 51, 0
2, 107453, Note_on_c, 0, 56, 60
2, 107618, Note_on_c, 0, 56, 0
2, 107783, Note_on_c, 0, 58, 77
2, 107796, Note_on_c, 0, 49, 52
2, 107839, Note_on_c, 0, 59, 0
2, 108108, Note_on_c, 0, 51, 52
2, 108174, Note_on_c, 0, 49, 0
2, 108261, Note_on_c, 0, 51, 0
2, 108278, Note_on_c, 0, 52, 51
2, 108452, Note_on_c, 0, 54, 49
2, 108455, Note_on_c, 0, 52, 0
2, 109060, Note_on_c, 0, 56, 61
2, 109114, Note_on_c, 0, 58, 0
2, 109376, Note_on_c, 0, 52, 56
2, 109402, Note_on_c, 0, 54, 0
2, 109679, Note_on_c, 0, 61, 83
2, 109683, Note_on_c, 0, 57, 70
2, 109699, Note_on_c, 0, 51, 51
2, 109706, Note_on_c, 0, 52, 0
2, 109712, Note_on_c, 0, 56, 0
2, 110005, Note_on_c, 0, 49, 59
2, 110011, Note_on_c, 0, 51, 0
2, 110297, Note_on_c, 0, 60, 76
2, 110319, Note_on_c, 0, 51, 57
2, 110324, Note_on_c, 0, 61, 0
2, 110359, Note_on_c, 0, 49, 0
2, 110600, Note_on_c, 0, 57, 0
2, 110615, Note_on_c, 0, 56, 55
2, 110728, Note_on_c, 0, 56, 0
2, 110776, Note_on_c, 0, 54, 49
2, 110940, Note_on_c, 0, 64, 81
2, 110945, Note_on_c, 0, 54, 0
2, 110952, Note_on_c, 0, 56, 54
2, 110968, Note_on_c, 0, 49, 52
2, 110973, Note_on_c, 0, 51, 0
2, 110995, Note_on_c, 0, 60, 0
2, 111115, Note_on_c, 0, 56, 0
2, 111309, Note_on_c, 0, 61, 57
2, 111430, Note_on_c, 0, 61, 0
2, 111624, Note_on_c, 0, 63, 75
2, 111627, Note_on_c, 0, 54, 51
2, 111641, Note_on_c, 0, 64, 0
2, 111924, Note_on_c, 0, 56, 54
2, 111933, Note_on_c, 0, 47, 53
2, 111990, Note_on_c, 0, 49, 0
2, 111994, Note_on_c, 0, 54, 0
2, 112087, Note_on_c, 0, 57, 66
2, 112116, Note_on_c, 0, 56, 0
2, 112249, Note_on_c, 0, 45, 50
2, 112253, Note_on_c, 0, 47, 0
2, 112265, Note_on_c, 0, 59, 65
2, 112277, Note_on_c, 0, 57, 0
2, 112581, Note_on_c, 0, 44, 57
2, 112600, Note_on_c, 0, 45, 0
2, 112883, Note_on_c, 0, 61, 67
2, 112887, Note_on_c, 0, 45, 44
2, 112893, Note_on_c, 0, 44, 0
2, 112927, Note_on_c, 0, 63, 0
2, 113214, Note_on_c, 0, 57, 73
2, 113246, Note_on_c, 0, 59, 0
2, 113530, Note_on_c, 0, 66, 83
2, 113550, Note_on_c, 0, 56, 62
2, 113552, Note_on_c, 0, 46, 56
2, 113566, Note_on_c, 0, 61, 0
2, 113570, Note_on_c, 0, 57, 0
2, 113579, Note_on_c, 0, 45, 0
2, 113839, Note_on_c, 0, 54, 72
2, 113850, Note_on_c, 0, 56, 0
2, 114173, Note_on_c, 0, 54, 0
2, 114176, Note_on_c, 0, 48, 62
2, 114177, Note_on_c, 0, 56, 48
2, 114197, Note_on_c, 0, 46, 0
2, 114458, Note_on_c, 0, 64, 71
2, 114503, Note_on_c, 0, 66, 0
2, 114766, Note_on_c, 0, 63, 73
2, 114776, Note_on_c, 0, 48, 0
2, 114776, Note_on_c, 0, 54, 51
2, 114778, Note_on_c, 0, 49, 51
2, 114811, Note_on_c, 0, 64, 0
2, 114815, Note_on_c, 0, 56, 0
2, 115076, Note_on_c, 0, 61, 77
2, 115082, Note_on_c, 0, 52, 59
2, 115095, Note_on_c, 0, 54, 0
2, 115124, Note_on_c, 0, 63, 0
2, 115186, Control_c, 0, 64, 60
2, 115202, Control_c, 0, 64, 64
2, 115217, Control_c, 0, 64, 70
2, 115231, Note_on_c, 0, 52, 0
2, 115232, Control_c, 0, 64, 99
2, 115247, Control_c, 0, 64, 127
2, 115321, Note_on_c, 0, 61, 0
2, 115397, Note_on_c, 0, 61, 75
2, 115434, Note_on_c, 0, 51, 59
2, 115435, Note_on_c, 0, 44, 51
2, 115438, Control_c, 0, 64, 82
2, 115441, Note_on_c, 0, 49, 0
2, 115452, Control_c, 0, 64, 66
2, 115467, Control_c, 0, 64, 39
2, 115483, Control_c, 0, 64, 0
2, 115744, Note_on_c, 0, 45, 57
2, 115765, Note_on_c, 0, 44, 0
2, 116031, Note_on_c, 0, 68, 83
2, 116045, Note_on_c, 0, 45, 0
2, 116054, Note_on_c, 0, 47, 56
2, 116061, Note_on_c, 0, 59, 56
2, 116091, Note_on_c, 0, 61, 0
2, 116332, Note_on_c, 0, 51, 0
2, 116370, Note_on_c, 0, 50, 47
2, 116480, Control_c, 0, 64, 62
2, 116495, Control_c, 0, 64, 65
2, 116500, Note_on_c, 0, 59, 0
2, 116509, Control_c, 0, 64, 68
2, 116525, Control_c, 0, 64, 79
2, 116540, Control_c, 0, 64, 127
2, 116665, Note_on_c, 0, 65, 83
2, 116672, Note_on_c, 0, 50, 0
2, 116689, Note_on_c, 0, 61, 58
2, 116693, Control_c, 0, 64, 107
2, 116693, Note_on_c, 0, 49, 60
2, 116707, Control_c, 0, 64, 81
2, 116721, Note_on_c, 0, 68, 0
2, 116723, Control_c, 0, 64, 68
2, 116738, Control_c, 0, 64, 57
2, 116755, Control_c, 0, 64, 0
2, 116767, Note_on_c, 0, 47, 0
2, 117005, Note_on_c, 0, 45, 52
2, 117111, Control_c, 0, 64, 46
2, 117127, Control_c, 0, 64, 63
2, 117137, Note_on_c, 0, 61, 0
2, 117141, Control_c, 0, 64, 66
2, 117157, Control_c, 0, 64, 73
2, 117172, Control_c, 0, 64, 87
2, 117187, Control_c, 0, 64, 111
2, 117203, Control_c, 0, 64, 127
2, 117290, Note_on_c, 0, 69, 80
2, 117302, Note_on_c, 0, 66, 69
2, 117309, Note_on_c, 0, 44, 56
2, 117311, Note_on_c, 0, 45, 0
2, 117321, Note_on_c, 0, 65, 0
2, 117324, Control_c, 0, 64, 96
2, 117339, Control_c, 0, 64, 84
2, 117354, Control_c, 0, 64, 75
2, 117369, Control_c, 0, 64, 68
2, 117384, Control_c, 0, 64, 64
2, 117400, Control_c, 0, 64, 59
2, 117415, Control_c, 0, 64, 50
2, 117430, Control_c, 0, 64, 36
2, 117445, Control_c, 0, 64, 0
2, 117592, Note_on_c, 0, 44, 0
2, 117613, Note_on_c, 0, 42, 61
2, 117653, Note_on_c, 0, 49, 0
2, 117907, Note_on_c, 0, 68, 69
2, 117925, Note_on_c, 0, 49, 64
2, 117943, Note_on_c, 0, 69, 0
2, 117947, Note_on_c, 0, 42, 0
2, 118223, Note_on_c, 0, 64, 68
2, 118254, Note_on_c, 0, 66, 0
2, 118349, Control_c, 0, 64, 33
2, 118365, Control_c, 0, 64, 52
2, 118380, Control_c, 0, 64, 54
2, 118411, Control_c, 0, 64, 53
2, 118442, Control_c, 0, 64, 53
2, 118457, Control_c, 0, 64, 50
2, 118472, Control_c, 0, 64, 47
2, 118488, Control_c, 0, 64, 42
2, 118509, Control_c, 0, 64, 26
2, 118520, Note_on_c, 0, 68, 0
2, 118525, Control_c, 0, 64, 0
2, 118537, Note_on_c, 0, 63, 63
2, 118537, Note_on_c, 0, 66, 69
2, 118537, Note_on_c, 0, 73, 76
2, 118538, Note_on_c, 0, 45, 64
2, 118556, Note_on_c, 0, 64, 0
2, 118861, Note_on_c, 0, 61, 83
2, 118879, Note_on_c, 0, 63, 0
2, 118890, Control_c, 0, 64, 56
2, 118904, Control_c, 0, 64, 64
2, 118920, Control_c, 0, 64, 70
2, 118935, Control_c, 0, 64, 81
2, 118950, Control_c, 0, 64, 127
2, 118964, Note_on_c, 0, 61, 0
2, 118986, Note_on_c, 0, 73, 0
2, 119133, Control_c, 0, 64, 97
2, 119133, Note_on_c, 0, 49, 0
2, 119148, Control_c, 0, 64, 80
2, 119148, Note_on_c, 0, 72, 87
2, 119163, Control_c, 0, 64, 68
2, 119165, Note_on_c, 0, 63, 63
2, 119178, Control_c, 0, 64, 55
2, 119194, Control_c, 0, 64, 0
2, 119469, Note_on_c, 0, 63, 0
2, 119470, Note_on_c, 0, 44, 70
2, 119491, Control_c, 0, 64, 26
2, 119503, Note_on_c, 0, 72, 0
2, 119506, Control_c, 0, 64, 59
2, 119507, Note_on_c, 0, 66, 0
2, 119521, Control_c, 0, 64, 66
2, 119523, Note_on_c, 0, 45, 0
2, 119536, Control_c, 0, 64, 72
2, 119551, Control_c, 0, 64, 90
2, 119567, Control_c, 0, 64, 127
2, 119658, Control_c, 0, 64, 119
2, 119672, Control_c, 0, 64, 106
2, 119688, Control_c, 0, 64, 98
2, 119703, Control_c, 0, 64, 91
2, 119719, Control_c, 0, 64, 85
2, 119733, Control_c, 0, 64, 78
2, 119748, Control_c, 0, 64, 70
2, 119764, Control_c, 0, 64, 65
2, 119776, Note_on_c, 0, 76, 84
2, 119779, Control_c, 0, 64, 58
2, 119783, Note_on_c, 0, 68, 71
2, 119786, Note_on_c, 0, 73, 75
2, 119795, Control_c, 0, 64, 0
2, 119804, Note_on_c, 0, 42, 59
2, 119845, Note_on_c, 0, 44, 0
2, 120093, Note_on_c, 0, 40, 67
2, 120108, Control_c, 0, 64, 43
2, 120123, Control_c, 0, 64, 61
2, 120123, Note_on_c, 0, 76, 0
2, 120129, Note_on_c, 0, 42, 0
2, 120138, Control_c, 0, 64, 66
2, 120154, Control_c, 0, 64, 72
2, 120168, Control_c, 0, 64, 87
2, 120183, Control_c, 0, 64, 127
2, 120380, Control_c, 0, 64, 98
2, 120396, Control_c, 0, 64, 85
2, 120411, Control_c, 0, 64, 74
2, 120413, Note_on_c, 0, 75, 82
2, 120426, Control_c, 0, 64, 66
2, 120435, Note_on_c, 0, 42, 61
2, 120442, Control_c, 0, 64, 56
2, 120457, Control_c, 0, 64, 0
2, 120465, Note_on_c, 0, 68, 0
2, 120467, Note_on_c, 0, 40, 0
2, 120740, Note_on_c, 0, 69, 63
2, 120750, Note_on_c, 0, 73, 0
2, 121039, Note_on_c, 0, 71, 55
2, 121046, Note_on_c, 0, 68, 53
2, 121052, Note_on_c, 0, 44, 54
2, 121060, Note_on_c, 0, 69, 0
2, 121079, Note_on_c, 0, 42, 0
2, 121335, Note_on_c, 0, 66, 68
2, 121403, Note_on_c, 0, 75, 0
2, 121620, Note_on_c, 0, 73, 71
2, 121625, Note_on_c, 0, 65, 64
2, 121630, Note_on_c, 0, 66, 0
2, 121631, Note_on_c, 0, 44, 0
2, 121636, Note_on_c, 0, 45, 48
2, 121710, Note_on_c, 0, 68, 0
2, 121945, Note_on_c, 0, 44, 49
2, 121948, Note_on_c, 0, 65, 0
2, 121949, Note_on_c, 0, 61, 63
2, 121951, Note_on_c, 0, 45, 0
2, 122227, Note_on_c, 0, 69, 55
2, 122239, Note_on_c, 0, 44, 0
2, 122242, Note_on_c, 0, 66, 58
2, 122242, Note_on_c, 0, 71, 0
2, 122243, Note_on_c, 0, 45, 49
2, 122287, Note_on_c, 0, 61, 0
2, 122324, Note_on_c, 0, 73, 0
2, 122349, Control_c, 0, 64, 26
2, 122365, Control_c, 0, 64, 58
2, 122380, Control_c, 0, 64, 64
2, 122395, Control_c, 0, 64, 69
2, 122410, Control_c, 0, 64, 80
2, 122425, Control_c, 0, 64, 101
2, 122441, Control_c, 0, 64, 127
2, 122500, Control_c, 0, 64, 92
2, 122515, Control_c, 0, 64, 73
2, 122518, Note_on_c, 0, 75, 85
2, 122531, Control_c, 0, 64, 60
2, 122531, Note_on_c, 0, 45, 0
2, 122546, Control_c, 0, 64, 0
2, 122552, Note_on_c, 0, 47, 59
2, 122552, Note_on_c, 0, 66, 0
2, 122567, Note_on_c, 0, 69, 0
2, 122621, Control_c, 0, 64, 64
2, 122636, Control_c, 0, 64, 71
2, 122652, Control_c, 0, 64, 93
2, 122667, Control_c, 0, 64, 127
2, 122757, Note_on_c, 0, 75, 0
2, 122881, Control_c, 0, 64, 90
2, 122895, Control_c, 0, 64, 76
2, 122897, Note_on_c, 0, 76, 70
2, 122910, Control_c, 0, 64, 66
2, 122914, Note_on_c, 0, 64, 50
2, 122923, Note_on_c, 0, 49, 41
2, 122926, Control_c, 0, 64, 49
2, 122931, Note_on_c, 0, 47, 0
2, 122936, Note_on_c, 0, 68, 40
2, 122941, Control_c, 0, 64, 0
2, 123238, Note_on_c, 0, 76, 0
2, 123239, Note_on_c, 0, 75, 71
2, 123253, Note_on_c, 0, 47, 48
2, 123283, Note_on_c, 0, 49, 0
2, 123346, Note_on_c, 0, 68, 0
2, 123514, Note_on_c, 0, 47, 0
2, 123530, Note_on_c, 0, 73, 65
2, 123538, Note_on_c, 0, 69, 54
2, 123539, Note_on_c, 0, 49, 41
2, 123564, Note_on_c, 0, 75, 0
2, 123822, Note_on_c, 0, 51, 55
2, 123827, Note_on_c, 0, 49, 0
2, 124146, Note_on_c, 0, 71, 60
2, 124165, Note_on_c, 0, 52, 46
2, 124168, Note_on_c, 0, 51, 0
2, 124202, Note_on_c, 0, 73, 0
2, 124297, Note_on_c, 0, 69, 0
2, 124371, Control_c, 0, 64, 53
2, 124386, Control_c, 0, 64, 63
2, 124417, Control_c, 0, 64, 64
2, 124431, Control_c, 0, 64, 65
2, 124447, Control_c, 0, 64, 69
2, 124460, Note_on_c, 0, 68, 46
2, 124462, Control_c, 0, 64, 78
2, 124477, Control_c, 0, 64, 94
2, 124493, Control_c, 0, 64, 127
2, 124514, Note_on_c, 0, 68, 0
2, 124743, Control_c, 0, 64, 116
2, 124751, Note_on_c, 0, 56, 81
2, 124758, Control_c, 0, 64, 87
2, 124762, Note_on_c, 0, 52, 0
2, 124774, Control_c, 0, 64, 73
2, 124782, Note_on_c, 0, 49, 48
2, 124784, Note_on_c, 0, 73, 52
2, 124786, Note_on_c, 0, 71, 0
2, 124789, Control_c, 0, 64, 64
2, 124790, Note_on_c, 0, 68, 49
2, 124794, Note_on_c, 0, 64, 0
2, 124795, Note_on_c, 0, 66, 42
2, 124804, Control_c, 0, 64, 0
2, 125090, Note_on_c, 0, 68, 0
2, 125117, Note_on_c, 0, 64, 50
2, 125117, Note_on_c, 0, 66, 0
2, 125124, Control_c, 0, 64, 63
2, 125139, Control_c, 0, 64, 68
2, 125153, Control_c, 0, 64, 79
2, 125169, Control_c, 0, 64, 127
2, 125199, Note_on_c, 0, 64, 0
2, 125450, Control_c, 0, 64, 88
2, 125450, Note_on_c, 0, 73, 0
2, 125455, Note_on_c, 0, 55, 83
2, 125456, Note_on_c, 0, 75, 66
2, 125465, Control_c, 0, 64, 70
2, 125468, Note_on_c, 0, 56, 0
2, 125481, Control_c, 0, 64, 48
2, 125481, Note_on_c, 0, 70, 53
2, 125484, Note_on_c, 0, 63, 44
2, 125496, Control_c, 0, 64, 0
2, 125784, Note_on_c, 0, 47, 63
2, 125786, Control_c, 0, 64, 58
2, 125799, Note_on_c, 0, 75, 0
2, 125801, Control_c, 0, 64, 67
2, 125803, Note_on_c, 0, 70, 0
2, 125814, Note_on_c, 0, 49, 0
2, 125816, Control_c, 0, 64, 79
2, 125831, Control_c, 0, 64, 127
2, 125843, Note_on_c, 0, 63, 0
2, 126082, Note_on_c, 0, 59, 84
2, 126086, Note_on_c, 0, 68, 74
2, 126089, Control_c, 0, 64, 96
2, 126095, Note_on_c, 0, 46, 63
2, 126104, Control_c, 0, 64, 71
2, 126110, Note_on_c, 0, 47, 0
2, 126118, Control_c, 0, 64, 50
2, 126126, Note_on_c, 0, 55, 0
2, 126134, Control_c, 0, 64, 0
2, 126389, Note_on_c, 0, 46, 0
2, 126393, Note_on_c, 0, 44, 64
2, 126684, Note_on_c, 0, 59, 0
2, 126700, Note_on_c, 0, 58, 79
2, 126719, Note_on_c, 0, 49, 55
2, 126758, Note_on_c, 0, 44, 0
2, 127007, Note_on_c, 0, 76, 65
2, 127300, Note_on_c, 0, 75, 66
2, 127311, Note_on_c, 0, 51, 49
2, 127312, Note_on_c, 0, 49, 0
2, 127312, Note_on_c, 0, 67, 53
2, 127329, Note_on_c, 0, 68, 0
2, 127349, Note_on_c, 0, 76, 0
2, 127614, Note_on_c, 0, 73, 68
2, 127657, Note_on_c, 0, 75, 0
2, 127670, Control_c, 0, 64, 33
2, 127682, Note_on_c, 0, 58, 0
2, 127685, Control_c, 0, 64, 57
2, 127685, Note_on_c, 0, 67, 0
2, 127708, Control_c, 0, 64, 64
2, 127724, Control_c, 0, 64, 71
2, 127738, Control_c, 0, 64, 97
2, 127753, Control_c, 0, 64, 127
2, 127914, Note_on_c, 0, 71, 65
2, 127916, Note_on_c, 0, 73, 0
2, 127918, Note_on_c, 0, 68, 51
2, 127921, Control_c, 0, 64, 88
2, 127921, Note_on_c, 0, 56, 41
2, 127930, Note_on_c, 0, 44, 50
2, 127936, Control_c, 0, 64, 65
2, 127951, Control_c, 0, 64, 0
2, 127964, Note_on_c, 0, 51, 0
2, 128073, Control_c, 0, 64, 59
2, 128089, Control_c, 0, 64, 65
2, 128103, Control_c, 0, 64, 70
2, 128118, Control_c, 0, 64, 85
2, 128134, Control_c, 0, 64, 127
2, 128183, Note_on_c, 0, 44, 0
2, 128214, Note_on_c, 0, 75, 75
2, 128217, Note_on_c, 0, 57, 63
2, 128230, Note_on_c, 0, 56, 0
2, 128238, Note_on_c, 0, 71, 0
2, 128346, Control_c, 0, 64, 104
2, 128362, Control_c, 0, 64, 90
2, 128376, Control_c, 0, 64, 81
2, 128391, Control_c, 0, 64, 77
2, 128407, Control_c, 0, 64, 76
2, 128422, Control_c, 0, 64, 75
2, 128437, Control_c, 0, 64, 74
2, 128453, Control_c, 0, 64, 71
2, 128468, Control_c, 0, 64, 68
2, 128491, Control_c, 0, 64, 64
2, 128506, Control_c, 0, 64, 62
2, 128510, Note_on_c, 0, 57, 0
2, 128522, Control_c, 0, 64, 56
2, 128526, Note_on_c, 0, 80, 64
2, 128528, Note_on_c, 0, 59, 43
2, 128529, Note_on_c, 0, 56, 46
2, 128536, Control_c, 0, 64, 42
2, 128551, Control_c, 0, 64, 0
2, 128558, Note_on_c, 0, 68, 0
2, 128578, Note_on_c, 0, 75, 0
2, 128812, Note_on_c, 0, 54, 69
2, 128843, Note_on_c, 0, 56, 0
2, 129133, Note_on_c, 0, 54, 0
2, 129137, Note_on_c, 0, 61, 56
2, 129149, Note_on_c, 0, 53, 66
2, 129185, Note_on_c, 0, 59, 0
2, 129427, Note_on_c, 0, 78, 74
2, 129463, Note_on_c, 0, 80, 0
2, 129731, Note_on_c, 0, 80, 78
2, 129738, Note_on_c, 0, 57, 63
2, 129760, Note_on_c, 0, 53, 0
2, 129761, Note_on_c, 0, 61, 0
2, 129784, Note_on_c, 0, 78, 0
2, 130027, Note_on_c, 0, 81, 84
2, 130036, Note_on_c, 0, 61, 57
2, 130099, Note_on_c, 0, 80, 0
2, 130404, Note_on_c, 0, 83, 74
2, 130419, Note_on_c, 0, 63, 51
2, 130420, Note_on_c, 0, 56, 51
2, 130441, Note_on_c, 0, 57, 0
2, 130460, Note_on_c, 0, 61, 0
2, 130482, Note_on_c, 0, 81, 0
2, 130758, Note_on_c, 0, 61, 60
2, 130784, Note_on_c, 0, 63, 0
2, 131048, Note_on_c, 0, 63, 64
2, 131064, Note_on_c, 0, 61, 0
2, 131313, Note_on_c, 0, 65, 68
2, 131320, Note_on_c, 0, 63, 0
2, 131405, Control_c, 0, 64, 60
2, 131420, Control_c, 0, 64, 66
2, 131436, Control_c, 0, 64, 76
2, 131448, Note_on_c, 0, 65, 0
2, 131451, Control_c, 0, 64, 98
2, 131466, Control_c, 0, 64, 127
2, 131631, Note_on_c, 0, 66, 71
2, 131642, Control_c, 0, 64, 96
2, 131649, Note_on_c, 0, 54, 57
2, 131657, Control_c, 0, 64, 76
2, 131672, Control_c, 0, 64, 67
2, 131673, Note_on_c, 0, 56, 0
2, 131687, Control_c, 0, 64, 56
2, 131702, Control_c, 0, 64, 0
2, 131905, Note_on_c, 0, 81, 74
2, 131915, Note_on_c, 0, 83, 0
2, 131961, Control_c, 0, 64, 40
2, 131976, Control_c, 0, 64, 55
2, 131991, Control_c, 0, 64, 62
2, 132007, Control_c, 0, 64, 65
2, 132021, Control_c, 0, 64, 67
2, 132037, Control_c, 0, 64, 69
2, 132052, Control_c, 0, 64, 73
2, 132067, Control_c, 0, 64, 79
2, 132083, Control_c, 0, 64, 82
2, 132127, Control_c, 0, 64, 81
2, 132142, Control_c, 0, 64, 81
2, 132158, Control_c, 0, 64, 79
2, 132172, Control_c, 0, 64, 77
2, 132187, Control_c, 0, 64, 74
2, 132203, Control_c, 0, 64, 70
2, 132218, Control_c, 0, 64, 65
2, 132232, Note_on_c, 0, 61, 76
2, 132233, Control_c, 0, 64, 55
2, 132233, Note_on_c, 0, 80, 60
2, 132243, Note_on_c, 0, 69, 46
2, 132249, Control_c, 0, 64, 0
2, 132301, Note_on_c, 0, 66, 0
2, 132331, Note_on_c, 0, 81, 0
2, 132485, Control_c, 0, 64, 49
2, 132500, Control_c, 0, 64, 61
2, 132516, Control_c, 0, 64, 64
2, 132530, Control_c, 0, 64, 66
2, 132545, Control_c, 0, 64, 68
2, 132547, Note_on_c, 0, 78, 66
2, 132561, Control_c, 0, 64, 71
2, 132576, Control_c, 0, 64, 77
2, 132576, Note_on_c, 0, 80, 0
2, 132587, Note_on_c, 0, 69, 0
2, 132591, Control_c, 0, 64, 82
2, 132685, Control_c, 0, 64, 81
2, 132700, Control_c, 0, 64, 79
2, 132716, Control_c, 0, 64, 78
2, 132730, Control_c, 0, 64, 77
2, 132745, Control_c, 0, 64, 75
2, 132761, Control_c, 0, 64, 73
2, 132776, Control_c, 0, 64, 70
2, 132792, Control_c, 0, 64, 67
2, 132806, Control_c, 0, 64, 64
2, 132821, Control_c, 0, 64, 53
2, 132832, Note_on_c, 0, 68, 61
2, 132837, Control_c, 0, 64, 0
2, 132841, Note_on_c, 0, 60, 71
2, 132847, Note_on_c, 0, 80, 58
2, 132849, Note_on_c, 0, 78, 0
2, 132861, Note_on_c, 0, 61, 0
2, 132999, Note_on_c, 0, 78, 72
2, 133001, Note_on_c, 0, 80, 0
2, 133018, Control_c, 0, 64, 42
2, 133034, Control_c, 0, 64, 58
2, 133049, Control_c, 0, 64, 62
2, 133064, Control_c, 0, 64, 62
2, 133073, Note_on_c, 0, 78, 0
2, 133080, Control_c, 0, 64, 63
2, 133102, Control_c, 0, 64, 63
2, 133111, Note_on_c, 0, 54, 0
2, 133123, Note_on_c, 0, 56, 58
2, 133126, Note_on_c, 0, 76, 70
2, 133133, Control_c, 0, 64, 64
2, 133179, Control_c, 0, 64, 63
2, 133210, Control_c, 0, 64, 63
2, 133225, Control_c, 0, 64, 62
2, 133241, Control_c, 0, 64, 62
2, 133241, Note_on_c, 0, 54, 70
2, 133249, Note_on_c, 0, 60, 0
2, 133251, Note_on_c, 0, 56, 0
2, 133253, Note_on_c, 0, 75, 73
2, 133255, Control_c, 0, 64, 61
2, 133271, Control_c, 0, 64, 60
2, 133285, Note_on_c, 0, 76, 0
2, 133286, Control_c, 0, 64, 59
2, 133300, Control_c, 0, 64, 56
2, 133316, Control_c, 0, 64, 53
2, 133331, Control_c, 0, 64, 51
2, 133346, Control_c, 0, 64, 49
2, 133362, Control_c, 0, 64, 43
2, 133376, Control_c, 0, 64, 24
2, 133392, Control_c, 0, 64, 0
2, 133393, Note_on_c, 0, 64, 76
2, 133402, Note_on_c, 0, 73, 72
2, 133407, Note_on_c, 0, 52, 67
2, 133435, Note_on_c, 0, 54, 0
2, 133448, Note_on_c, 0, 75, 0
2, 133468, Note_on_c, 0, 68, 0
2, 133543, Note_on_c, 0, 71, 66
2, 133669, Note_on_c, 0, 71, 0
2, 133676, Note_on_c, 0, 54, 73
2, 133678, Note_on_c, 0, 52, 0
2, 133682, Note_on_c, 0, 69, 67
2, 133773, Note_on_c, 0, 64, 0
2, 133804, Note_on_c, 0, 56, 81
2, 133810, Note_on_c, 0, 54, 0
2, 133812, Note_on_c, 0, 69, 0
2, 133815, Note_on_c, 0, 68, 72
2, 133973, Note_on_c, 0, 56, 0
2, 133974, Note_on_c, 0, 63, 73
2, 133975, Note_on_c, 0, 57, 75
2, 133986, Note_on_c, 0, 66, 71
2, 134009, Note_on_c, 0, 68, 0
2, 134308, Note_on_c, 0, 69, 67
2, 134309, Note_on_c, 0, 54, 62
2, 134315, Note_on_c, 0, 57, 0
2, 134318, Note_on_c, 0, 66, 0
2, 134598, Note_on_c, 0, 54, 0
2, 134609, Note_on_c, 0, 69, 0
2, 134611, Note_on_c, 0, 56, 53
2, 134611, Note_on_c, 0, 71, 60
2, 134617, Note_on_c, 0, 68, 63
2, 134665, Note_on_c, 0, 73, 0
2, 134922, Note_on_c, 0, 66, 77
2, 134935, Note_on_c, 0, 68, 0
2, 135069, Note_on_c, 0, 63, 0
2, 135081, Control_c, 0, 64, 51
2, 135096, Control_c, 0, 64, 63
2, 135111, Control_c, 0, 64, 66
2, 135126, Control_c, 0, 64, 70
2, 135141, Control_c, 0, 64, 78
2, 135157, Control_c, 0, 64, 98
2, 135172, Control_c, 0, 64, 127
2, 135303, Note_on_c, 0, 65, 73
2, 135305, Note_on_c, 0, 61, 49
2, 135309, Control_c, 0, 64, 104
2, 135313, Note_on_c, 0, 49, 50
2, 135324, Control_c, 0, 64, 89
2, 135329, Note_on_c, 0, 66, 0
2, 135339, Control_c, 0, 64, 80
2, 135355, Control_c, 0, 64, 72
2, 135369, Control_c, 0, 64, 65
2, 135384, Control_c, 0, 64, 53
2, 135407, Control_c, 0, 64, 0
2, 135421, Note_on_c, 0, 56, 0
2, 135674, Note_on_c, 0, 73, 69
2, 135716, Note_on_c, 0, 71, 0
2, 135978, Note_on_c, 0, 71, 68
2, 135987, Note_on_c, 0, 66, 68
2, 136008, Note_on_c, 0, 65, 0
2, 136034, Note_on_c, 0, 73, 0
2, 136270, Note_on_c, 0, 69, 71
2, 136273, Note_on_c, 0, 71, 0
2, 136558, Note_on_c, 0, 68, 69
2, 136571, Note_on_c, 0, 69, 0
2, 136841, Note_on_c, 0, 66, 0
2, 136842, Note_on_c, 0, 64, 62
2, 136961, Control_c, 0, 64, 32
2, 136976, Control_c, 0, 64, 50
2, 136992, Control_c, 0, 64, 60
2, 137007, Control_c, 0, 64, 62
2, 137097, Control_c, 0, 64, 62
2, 137113, Control_c, 0, 64, 61
2, 137128, Control_c, 0, 64, 60
2, 137136, Note_on_c, 0, 70, 75
2, 137143, Control_c, 0, 64, 56
2, 137158, Control_c, 0, 64, 46
2, 137161, Note_on_c, 0, 47, 45
2, 137173, Control_c, 0, 64, 0
2, 137195, Note_on_c, 0, 68, 0
2, 137404, Note_on_c, 0, 71, 77
2, 137433, Control_c, 0, 64, 43
2, 137442, Note_on_c, 0, 70, 0
2, 137448, Control_c, 0, 64, 49
2, 137463, Control_c, 0, 64, 55
2, 137478, Control_c, 0, 64, 60
2, 137483, Note_on_c, 0, 47, 0
2, 137493, Control_c, 0, 64, 62
2, 137509, Control_c, 0, 64, 64
2, 137524, Control_c, 0, 64, 66
2, 137539, Control_c, 0, 64, 70
2, 137555, Control_c, 0, 64, 75
2, 137569, Control_c, 0, 64, 78
2, 137585, Control_c, 0, 64, 79
2, 137615, Control_c, 0, 64, 79
2, 137645, Control_c, 0, 64, 80
2, 137691, Control_c, 0, 64, 78
2, 137714, Control_c, 0, 64, 76
2, 137729, Control_c, 0, 64, 73
2, 137745, Control_c, 0, 64, 71
2, 137747, Note_on_c, 0, 73, 72
2, 137760, Control_c, 0, 64, 68
2, 137774, Control_c, 0, 64, 65
2, 137778, Note_on_c, 0, 61, 0
2, 137784, Note_on_c, 0, 46, 39
2, 137786, Note_on_c, 0, 54, 37
2, 137790, Control_c, 0, 64, 58
2, 137805, Control_c, 0, 64, 0
2, 137808, Note_on_c, 0, 71, 0
2, 138065, Control_c, 0, 64, 24
2, 138079, Control_c, 0, 64, 49
2, 138093, Note_on_c, 0, 64, 0
2, 138094, Control_c, 0, 64, 58
2, 138096, Note_on_c, 0, 54, 0
2, 138099, Note_on_c, 0, 46, 0
2, 138102, Note_on_c, 0, 56, 48
2, 138104, Note_on_c, 0, 49, 0
2, 138110, Control_c, 0, 64, 63
2, 138125, Control_c, 0, 64, 65
2, 138141, Control_c, 0, 64, 70
2, 138156, Control_c, 0, 64, 80
2, 138170, Control_c, 0, 64, 101
2, 138186, Control_c, 0, 64, 127
2, 138385, Note_on_c, 0, 71, 73
2, 138399, Control_c, 0, 64, 94
2, 138407, Note_on_c, 0, 63, 58
2, 138411, Note_on_c, 0, 56, 0
2, 138413, Control_c, 0, 64, 79
2, 138415, Note_on_c, 0, 54, 45
2, 138416, Note_on_c, 0, 58, 46
2, 138418, Note_on_c, 0, 51, 37
2, 138426, Note_on_c, 0, 73, 0
2, 138429, Control_c, 0, 64, 69
2, 138444, Control_c, 0, 64, 63
2, 138459, Control_c, 0, 64, 13
2, 138482, Control_c, 0, 64, 0
2, 138685, Note_on_c, 0, 54, 0
2, 138701, Note_on_c, 0, 58, 0
2, 138710, Control_c, 0, 64, 33
2, 138716, Note_on_c, 0, 59, 55
2, 138725, Control_c, 0, 64, 55
2, 138741, Control_c, 0, 64, 61
2, 138755, Control_c, 0, 64, 63
2, 138770, Control_c, 0, 64, 64
2, 138783, Note_on_c, 0, 63, 0
2, 138786, Control_c, 0, 64, 66
2, 138801, Control_c, 0, 64, 67
2, 138816, Control_c, 0, 64, 70
2, 138831, Control_c, 0, 64, 74
2, 138846, Control_c, 0, 64, 79
2, 138862, Control_c, 0, 64, 82
2, 138878, Control_c, 0, 64, 83
2, 138938, Control_c, 0, 64, 82
2, 138954, Control_c, 0, 64, 80
2, 138969, Control_c, 0, 64, 76
2, 138973, Note_on_c, 0, 64, 61
2, 138983, Note_on_c, 0, 61, 56
2, 138985, Control_c, 0, 64, 72
2, 138993, Note_on_c, 0, 52, 56
2, 138998, Note_on_c, 0, 51, 0
2, 139000, Control_c, 0, 64, 69
2, 139010, Note_on_c, 0, 49, 44
2, 139013, Control_c, 0, 64, 65
2, 139025, Note_on_c, 0, 59, 0
2, 139029, Control_c, 0, 64, 63
2, 139044, Control_c, 0, 64, 59
2, 139058, Control_c, 0, 64, 47
2, 139074, Control_c, 0, 64, 0
2, 139279, Note_on_c, 0, 51, 61
2, 139304, Note_on_c, 0, 52, 0
2, 139553, Note_on_c, 0, 51, 0
2, 139568, Note_on_c, 0, 70, 72
2, 139574, Note_on_c, 0, 52, 50
2, 139596, Note_on_c, 0, 71, 0
2, 139861, Note_on_c, 0, 52, 0
2, 139897, Note_on_c, 0, 54, 50
2, 140062, Control_c, 0, 64, 34
2, 140077, Control_c, 0, 64, 53
2, 140092, Control_c, 0, 64, 58
2, 140108, Control_c, 0, 64, 61
2, 140123, Control_c, 0, 64, 62
2, 140138, Control_c, 0, 64, 63
2, 140154, Control_c, 0, 64, 63
2, 140165, Note_on_c, 0, 61, 0
2, 140214, Control_c, 0, 64, 62
2, 140230, Control_c, 0, 64, 62
2, 140238, Note_on_c, 0, 71, 55
2, 140244, Control_c, 0, 64, 60
2, 140247, Note_on_c, 0, 56, 34
2, 140259, Control_c, 0, 64, 56
2, 140264, Note_on_c, 0, 47, 49
2, 140270, Note_on_c, 0, 49, 0
2, 140275, Control_c, 0, 64, 47
2, 140290, Control_c, 0, 64, 13
2, 140302, Note_on_c, 0, 54, 0
2, 140306, Control_c, 0, 64, 0
2, 140308, Note_on_c, 0, 70, 0
2, 140566, Note_on_c, 0, 63, 47
2, 140570, Note_on_c, 0, 54, 40
2, 140601, Note_on_c, 0, 64, 0
2, 140607, Note_on_c, 0, 56, 0
2, 140656, Control_c, 0, 64, 46
2, 140671, Control_c, 0, 64, 56
2, 140686, Control_c, 0, 64, 60
2, 140702, Control_c, 0, 64, 63
2, 140717, Control_c, 0, 64, 64
2, 140732, Control_c, 0, 64, 65
2, 140747, Control_c, 0, 64, 66
2, 140762, Control_c, 0, 64, 68
2, 140786, Control_c, 0, 64, 68
2, 140831, Control_c, 0, 64, 67
2, 140846, Control_c, 0, 64, 66
2, 140850, Note_on_c, 0, 64, 76
2, 140862, Control_c, 0, 64, 65
2, 140866, Note_on_c, 0, 56, 48
2, 140875, Note_on_c, 0, 63, 0
2, 140876, Control_c, 0, 64, 63
2, 140884, Note_on_c, 0, 54, 0
2, 140891, Control_c, 0, 64, 53
2, 140907, Control_c, 0, 64, 0
2, 141120, Control_c, 0, 64, 33
2, 141134, Control_c, 0, 64, 54
2, 141148, Note_on_c, 0, 56, 0
2, 141150, Control_c, 0, 64, 60
2, 141152, Note_on_c, 0, 57, 43
2, 141158, Note_on_c, 0, 66, 55
2, 141165, Control_c, 0, 64, 62
2, 141181, Control_c, 0, 64, 63
2, 141210, Control_c, 0, 64, 64
2, 141273, Note_on_c, 0, 64, 0
2, 141306, Note_on_c, 0, 68, 61
2, 141307, Note_on_c, 0, 66, 0
2, 141317, Control_c, 0, 64, 63
2, 141333, Control_c, 0, 64, 63
2, 141349, Control_c, 0, 64, 62
2, 141364, Control_c, 0, 64, 59
2, 141379, Control_c, 0, 64, 52
2, 141394, Control_c, 0, 64, 20
2, 141409, Control_c, 0, 64, 0
2, 141444, Note_on_c, 0, 63, 75
2, 141447, Note_on_c, 0, 66, 68
2, 141466, Note_on_c, 0, 59, 51
2, 141477, Note_on_c, 0, 68, 0
2, 141496, Note_on_c, 0, 57, 0
2, 141554, Control_c, 0, 64, 13
2, 141569, Control_c, 0, 64, 47
2, 141585, Control_c, 0, 64, 56
2, 141599, Control_c, 0, 64, 62
2, 141614, Control_c, 0, 64, 65
2, 141630, Control_c, 0, 64, 68
2, 141644, Control_c, 0, 64, 73
2, 141659, Control_c, 0, 64, 79
2, 141675, Control_c, 0, 64, 80
2, 141690, Control_c, 0, 64, 80
2, 141706, Control_c, 0, 64, 75
2, 141720, Control_c, 0, 64, 67
2, 141735, Control_c, 0, 64, 54
2, 141744, Note_on_c, 0, 66, 0
2, 141748, Note_on_c, 0, 73, 80
2, 141751, Control_c, 0, 64, 0
2, 141759, Note_on_c, 0, 56, 49
2, 141802, Note_on_c, 0, 71, 0
2, 141811, Control_c, 0, 64, 60
2, 141827, Control_c, 0, 64, 64
2, 141832, Note_on_c, 0, 63, 0
2, 141842, Control_c, 0, 64, 66
2, 141856, Control_c, 0, 64, 69
2, 141872, Control_c, 0, 64, 76
2, 141887, Control_c, 0, 64, 91
2, 141903, Control_c, 0, 64, 127
2, 141930, Note_on_c, 0, 47, 0
2, 141963, Control_c, 0, 64, 122
2, 141978, Control_c, 0, 64, 109
2, 141994, Control_c, 0, 64, 99
2, 142009, Control_c, 0, 64, 87
2, 142025, Control_c, 0, 64, 74
2, 142036, Note_on_c, 0, 71, 64
2, 142036, Note_on_c, 0, 75, 79
2, 142040, Control_c, 0, 64, 63
2, 142042, Note_on_c, 0, 68, 63
2, 142054, Control_c, 0, 64, 0
2, 142063, Note_on_c, 0, 54, 55
2, 142065, Note_on_c, 0, 73, 0
2, 142068, Note_on_c, 0, 56, 0
2, 142146, Control_c, 0, 64, 54
2, 142162, Control_c, 0, 64, 62
2, 142177, Control_c, 0, 64, 64
2, 142193, Control_c, 0, 64, 66
2, 142208, Control_c, 0, 64, 67
2, 142224, Control_c, 0, 64, 70
2, 142238, Control_c, 0, 64, 74
2, 142253, Control_c, 0, 64, 77
2, 142268, Note_on_c, 0, 75, 0
2, 142298, Control_c, 0, 64, 76
2, 142321, Control_c, 0, 64, 74
2, 142336, Control_c, 0, 64, 69
2, 142347, Note_on_c, 0, 76, 72
2, 142352, Control_c, 0, 64, 63
2, 142365, Note_on_c, 0, 52, 58
2, 142367, Control_c, 0, 64, 0
2, 142374, Note_on_c, 0, 54, 0
2, 142462, Note_on_c, 0, 68, 0
2, 142488, Control_c, 0, 64, 17
2, 142504, Control_c, 0, 64, 32
2, 142511, Note_on_c, 0, 59, 0
2, 142519, Control_c, 0, 64, 37
2, 142550, Control_c, 0, 64, 33
2, 142564, Control_c, 0, 64, 13
2, 142579, Control_c, 0, 64, 0
2, 142595, Control_c, 0, 64, 17
2, 142610, Control_c, 0, 64, 22
2, 142626, Control_c, 0, 64, 17
2, 142640, Control_c, 0, 64, 0
2, 142656, Note_on_c, 0, 66, 64
2, 142663, Note_on_c, 0, 59, 47
2, 142760, Note_on_c, 0, 52, 0
2, 142963, Note_on_c, 0, 73, 64
2, 142985, Note_on_c, 0, 71, 0
2, 143005, Control_c, 0, 64, 32
2, 143021, Control_c, 0, 64, 33
2, 143036, Control_c, 0, 64, 40
2, 143051, Control_c, 0, 64, 48
2, 143067, Control_c, 0, 64, 54
2, 143088, Control_c, 0, 64, 56
2, 143104, Control_c, 0, 64, 56
2, 143119, Control_c, 0, 64, 58
2, 143134, Control_c, 0, 64, 59
2, 143150, Control_c, 0, 64, 60
2, 143181, Control_c, 0, 64, 58
2, 143194, Control_c, 0, 64, 53
2, 143208, Control_c, 0, 64, 45
2, 143223, Control_c, 0, 64, 0
2, 143279, Note_on_c, 0, 75, 65
2, 143288, Note_on_c, 0, 71, 52
2, 143294, Note_on_c, 0, 47, 39
2, 143303, Note_on_c, 0, 76, 0
2, 143362, Note_on_c, 0, 73, 0
2, 143375, Control_c, 0, 64, 59
2, 143391, Control_c, 0, 64, 67
2, 143405, Control_c, 0, 64, 75
2, 143416, Note_on_c, 0, 71, 0
2, 143420, Control_c, 0, 64, 92
2, 143436, Control_c, 0, 64, 127
2, 143603, Note_on_c, 0, 69, 53
2, 143657, Note_on_c, 0, 66, 0
2, 143690, Note_on_c, 0, 69, 0
2, 143738, Control_c, 0, 67, 8
2, 143753, Control_c, 0, 67, 23
2, 143769, Control_c, 0, 67, 45
2, 143784, Control_c, 0, 67, 63
2, 143800, Control_c, 0, 67, 77
2, 143815, Control_c, 0, 67, 88
2, 143830, Control_c, 0, 67, 97
2, 143853, Control_c, 0, 67, 105
2, 143868, Control_c, 0, 67, 110
2, 143884, Control_c, 0, 67, 114
2, 143898, Control_c, 0, 67, 117
2, 143913, Control_c, 0, 67, 120
2, 143920, Note_on_c, 0, 76, 56
2, 143929, Control_c, 0, 67, 123
2, 143942, Note_on_c, 0, 64, 43
2, 143943, Note_on_c, 0, 68, 53
2, 143944, Control_c, 0, 64, 106
2, 143944, Control_c, 0, 67, 126
2, 143944, Note_on_c, 0, 52, 55
2, 143948, Note_on_c, 0, 75, 0
2, 143951, Note_on_c, 0, 47, 0
2, 143960, Control_c, 0, 64, 87
2, 143960, Control_c, 0, 67, 127
2, 143974, Control_c, 0, 64, 77
2, 143989, Control_c, 0, 64, 70
2, 144005, Control_c, 0, 64, 65
2, 144020, Control_c, 0, 64, 61
2, 144036, Control_c, 0, 64, 55
2, 144050, Control_c, 0, 64, 55
2, 144065, Control_c, 0, 64, 54
2, 144081, Control_c, 0, 64, 50
2, 144096, Control_c, 0, 64, 36
2, 144111, Control_c, 0, 64, 0
2, 144243, Note_on_c, 0, 75, 66
2, 144250, Note_on_c, 0, 76, 0
2, 144518, Note_on_c, 0, 68, 0
2, 144522, Note_on_c, 0, 64, 0
2, 144555, Note_on_c, 0, 76, 61
2, 144557, Note_on_c, 0, 61, 51
2, 144560, Note_on_c, 0, 57, 44
2, 144574, Note_on_c, 0, 75, 0
2, 144615, Note_on_c, 0, 52, 0
2, 144615, Note_on_c, 0, 59, 0
2, 144842, Note_on_c, 0, 76, 0
2, 144850, Note_on_c, 0, 78, 64
2, 145145, Note_on_c, 0, 80, 64
2, 145161, Note_on_c, 0, 60, 45
2, 145163, Note_on_c, 0, 56, 40
2, 145166, Note_on_c, 0, 78, 0
2, 145186, Note_on_c, 0, 57, 0
2, 145205, Note_on_c, 0, 61, 0
2, 145306, Note_on_c, 0, 78, 62
2, 145316, Note_on_c, 0, 80, 0
2, 145457, Note_on_c, 0, 80, 67
2, 145484, Note_on_c, 0, 78, 0
2, 145607, Note_on_c, 0, 81, 67
2, 145630, Note_on_c, 0, 80, 0
2, 145734, Note_on_c, 0, 60, 0
2, 145753, Note_on_c, 0, 64, 48
2, 145761, Note_on_c, 0, 80, 60
2, 145764, Note_on_c, 0, 61, 47
2, 145780, Note_on_c, 0, 81, 0
2, 145825, Note_on_c, 0, 56, 0
2, 145916, Note_on_c, 0, 78, 59
2, 145958, Note_on_c, 0, 80, 0
2, 146064, Note_on_c, 0, 78, 0
2, 146071, Note_on_c, 0, 76, 62
2, 146214, Note_on_c, 0, 76, 0
2, 146225, Note_on_c, 0, 80, 61
2, 146373, Note_on_c, 0, 78, 64
2, 146375, Note_on_c, 0, 64, 0
2, 146389, Note_on_c, 0, 63, 52
2, 146392, Note_on_c, 0, 80, 0
2, 146528, Note_on_c, 0, 76, 62
2, 146535, Note_on_c, 0, 78, 0
2, 146673, Note_on_c, 0, 78, 59
2, 146687, Note_on_c, 0, 76, 0
2, 146829, Note_on_c, 0, 80, 60
2, 146848, Note_on_c, 0, 78, 0
2, 146995, Note_on_c, 0, 78, 54
2, 146999, Note_on_c, 0, 60, 46
2, 147024, Note_on_c, 0, 80, 0
2, 147059, Note_on_c, 0, 61, 0
2, 147141, Note_on_c, 0, 76, 63
2, 147144, Note_on_c, 0, 78, 0
2, 147266, Note_on_c, 0, 76, 0
2, 147291, Note_on_c, 0, 75, 60
2, 147441, Note_on_c, 0, 75, 0
2, 147441, Note_on_c, 0, 78, 60
2, 147587, Note_on_c, 0, 76, 55
2, 147596, Note_on_c, 0, 78, 0
2, 147608, Note_on_c, 0, 61, 43
2, 147619, Note_on_c, 0, 60, 0
2, 147655, Note_on_c, 0, 63, 0
2, 147764, Note_on_c, 0, 76, 0
2, 147771, Note_on_c, 0, 75, 63
2, 147915, Note_on_c, 0, 75, 0
2, 147918, Note_on_c, 0, 76, 62
2, 148072, Note_on_c, 0, 78, 65
2, 148073, Note_on_c, 0, 76, 0
2, 148220, Note_on_c, 0, 68, 70
2, 148220, Note_on_c, 0, 76, 60
2, 148251, Note_on_c, 0, 78, 0
2, 148369, Note_on_c, 0, 75, 61
2, 148399, Note_on_c, 0, 76, 0
2, 148513, Note_on_c, 0, 75, 0
2, 148521, Note_on_c, 0, 73, 53
2, 148522, Control_c, 0, 64, 53
2, 148536, Control_c, 0, 64, 64
2, 148551, Control_c, 0, 64, 68
2, 148567, Control_c, 0, 64, 79
2, 148581, Control_c, 0, 64, 127
2, 148657, Note_on_c, 0, 76, 63
2, 148703, Note_on_c, 0, 73, 0
2, 148715, Note_on_c, 0, 68, 0
2, 148804, Note_on_c, 0, 75, 71
2, 148805, Note_on_c, 0, 67, 71
2, 148811, Control_c, 0, 64, 83
2, 148825, Control_c, 0, 64, 64
2, 148827, Note_on_c, 0, 76, 0
2, 148841, Control_c, 0, 64, 0
2, 148955, Note_on_c, 0, 73, 62
2, 148963, Control_c, 0, 64, 31
2, 148966, Note_on_c, 0, 75, 0
2, 148978, Control_c, 0, 64, 63
2, 148993, Control_c, 0, 64, 66
2, 149008, Control_c, 0, 64, 69
2, 149023, Control_c, 0, 64, 72
2, 149039, Control_c, 0, 64, 76
2, 149054, Control_c, 0, 64, 79
2, 149069, Control_c, 0, 64, 79
2, 149093, Note_on_c, 0, 75, 63
2, 149101, Note_on_c, 0, 59, 58
2, 149115, Control_c, 0, 64, 78
2, 149130, Control_c, 0, 64, 73
2, 149142, Note_on_c, 0, 61, 0
2, 149145, Control_c, 0, 64, 65
2, 149160, Control_c, 0, 64, 31
2, 149175, Control_c, 0, 64, 0
2, 149242, Note_on_c, 0, 76, 64
2, 149244, Control_c, 0, 64, 55
2, 149254, Note_on_c, 0, 73, 0
2, 149259, Control_c, 0, 64, 64
2, 149275, Control_c, 0, 64, 68
2, 149282, Note_on_c, 0, 75, 0
2, 149290, Control_c, 0, 64, 73
2, 149304, Control_c, 0, 64, 83
2, 149320, Control_c, 0, 64, 93
2, 149335, Control_c, 0, 64, 94
2, 149365, Control_c, 0, 64, 93
2, 149380, Control_c, 0, 64, 86
2, 149392, Note_on_c, 0, 58, 61
2, 149395, Note_on_c, 0, 71, 70
2, 149395, Note_on_c, 0, 75, 76
2, 149396, Control_c, 0, 64, 75
2, 149411, Control_c, 0, 64, 64
2, 149424, Note_on_c, 0, 76, 0
2, 149425, Control_c, 0, 64, 0
2, 149440, Note_on_c, 0, 59, 0
2, 149457, Note_on_c, 0, 67, 0
2, 149501, Control_c, 0, 64, 49
2, 149517, Control_c, 0, 64, 64
2, 149533, Control_c, 0, 64, 67
2, 149548, Control_c, 0, 64, 69
2, 149563, Note_on_c, 0, 73, 59
2, 149564, Control_c, 0, 64, 71
2, 149579, Control_c, 0, 64, 72
2, 149607, Note_on_c, 0, 71, 0
2, 149624, Control_c, 0, 64, 71
2, 149640, Control_c, 0, 64, 70
2, 149642, Note_on_c, 0, 75, 0
2, 149654, Control_c, 0, 64, 69
2, 149669, Control_c, 0, 64, 67
2, 149685, Control_c, 0, 64, 65
2, 149685, Note_on_c, 0, 56, 52
2, 149700, Control_c, 0, 64, 63
2, 149713, Note_on_c, 0, 71, 71
2, 149716, Control_c, 0, 64, 59
2, 149716, Note_on_c, 0, 73, 0
2, 149722, Note_on_c, 0, 58, 0
2, 149731, Control_c, 0, 64, 40
2, 149746, Control_c, 0, 64, 0
2, 149852, Note_on_c, 0, 75, 70
2, 149868, Note_on_c, 0, 71, 0
2, 150006, Note_on_c, 0, 73, 69
2, 150016, Note_on_c, 0, 70, 70
2, 150028, Note_on_c, 0, 75, 0
2, 150172, Note_on_c, 0, 71, 62
2, 150174, Note_on_c, 0, 73, 0
2, 150299, Note_on_c, 0, 55, 56
2, 150316, Note_on_c, 0, 73, 63
2, 150342, Note_on_c, 0, 56, 0
2, 150351, Note_on_c, 0, 71, 0
2, 150437, Note_on_c, 0, 55, 0
2, 150451, Note_on_c, 0, 53, 56
2, 150464, Note_on_c, 0, 75, 71
2, 150493, Note_on_c, 0, 73, 0
2, 150610, Note_on_c, 0, 55, 51
2, 150613, Note_on_c, 0, 53, 0
2, 150614, Note_on_c, 0, 73, 60
2, 150666, Note_on_c, 0, 75, 0
2, 150723, Note_on_c, 0, 70, 0
2, 150758, Note_on_c, 0, 71, 66
2, 150790, Note_on_c, 0, 73, 0
2, 150893, Note_on_c, 0, 71, 0
2, 150907, Note_on_c, 0, 70, 58
2, 151053, Note_on_c, 0, 73, 60
2, 151185, Note_on_c, 0, 56, 50
2, 151190, Note_on_c, 0, 55, 0
2, 151200, Note_on_c, 0, 71, 58
2, 151219, Note_on_c, 0, 73, 0
2, 151299, Note_on_c, 0, 56, 0
2, 151331, Note_on_c, 0, 58, 52
2, 151490, Note_on_c, 0, 63, 65
2, 151494, Note_on_c, 0, 58, 0
2, 151504, Note_on_c, 0, 56, 49
2, 151526, Note_on_c, 0, 70, 0
2, 151644, Note_on_c, 0, 56, 0
2, 151654, Note_on_c, 0, 55, 51
2, 151785, Note_on_c, 0, 56, 46
2, 151785, Note_on_c, 0, 68, 66
2, 151785, Note_on_c, 0, 71, 0
2, 151803, Note_on_c, 0, 63, 0
2, 151822, Note_on_c, 0, 55, 0
2, 151931, Note_on_c, 0, 73, 67
2, 151934, Note_on_c, 0, 57, 65
2, 151940, Note_on_c, 0, 56, 0
2, 152037, Note_on_c, 0, 57, 0
2, 152060, Note_on_c, 0, 59, 54
2, 152079, Note_on_c, 0, 75, 71
2, 152216, Note_on_c, 0, 71, 69
2, 152226, Note_on_c, 0, 59, 0
2, 152235, Note_on_c, 0, 75, 0
2, 152237, Note_on_c, 0, 56, 49
2, 152241, Note_on_c, 0, 73, 0
2, 152384, Note_on_c, 0, 56, 0
2, 152395, Note_on_c, 0, 57, 55
2, 152395, Note_on_c, 0, 73, 72
2, 152414, Note_on_c, 0, 71, 0
2, 152473, Note_on_c, 0, 68, 0
2, 152527, Note_on_c, 0, 57, 0
2, 152540, Note_on_c, 0, 59, 65
2, 152662, Note_on_c, 0, 59, 0
2, 152679, Note_on_c, 0, 57, 55
2, 152687, Note_on_c, 0, 66, 75
2, 152815, Note_on_c, 0, 56, 50
2, 152818, Note_on_c, 0, 57, 0
2, 152841, Note_on_c, 0, 66, 0
2, 152842, Note_on_c, 0, 64, 70
2, 152992, Note_on_c, 0, 58, 61
2, 153002, Note_on_c, 0, 66, 71
2, 153006, Note_on_c, 0, 64, 0
2, 153008, Note_on_c, 0, 56, 0
2, 153140, Note_on_c, 0, 59, 70
2, 153147, Note_on_c, 0, 58, 0
2, 153283, Note_on_c, 0, 76, 81
2, 153286, Note_on_c, 0, 73, 0
2, 153287, Note_on_c, 0, 59, 0
2, 153299, Note_on_c, 0, 61, 64
2, 153433, Note_on_c, 0, 58, 62
2, 153433, Note_on_c, 0, 61, 0
2, 153562, Note_on_c, 0, 75, 76
2, 153563, Note_on_c, 0, 76, 0
2, 153580, Note_on_c, 0, 59, 62
2, 153613, Note_on_c, 0, 66, 0
2, 153718, Note_on_c, 0, 58, 0
2, 153732, Note_on_c, 0, 59, 0
2, 153733, Note_on_c, 0, 61, 66
2, 153874, Note_on_c, 0, 59, 58
2, 153876, Note_on_c, 0, 61, 0
2, 153882, Note_on_c, 0, 62, 65
2, 153885, Note_on_c, 0, 64, 59
2, 153988, Note_on_c, 0, 62, 0
2, 154011, Note_on_c, 0, 64, 0
2, 154015, Note_on_c, 0, 58, 55
2, 154015, Note_on_c, 0, 66, 74
2, 154016, Note_on_c, 0, 59, 0
2, 154167, Note_on_c, 0, 60, 60
2, 154167, Note_on_c, 0, 68, 78
2, 154168, Note_on_c, 0, 58, 0
2, 154196, Note_on_c, 0, 66, 0
2, 154282, Note_on_c, 0, 75, 0
2, 154309, Note_on_c, 0, 61, 65
2, 154313, Note_on_c, 0, 60, 0
2, 154463, Note_on_c, 0, 63, 57
2, 154472, Note_on_c, 0, 78, 85
2, 154491, Note_on_c, 0, 61, 0
2, 154616, Note_on_c, 0, 63, 0
2, 154624, Note_on_c, 0, 60, 65
2, 154774, Note_on_c, 0, 60, 0
2, 154784, Note_on_c, 0, 76, 78
2, 154791, Note_on_c, 0, 61, 81
2, 154803, Note_on_c, 0, 78, 0
2, 154907, Control_c, 0, 67, 127
2, 154923, Control_c, 0, 67, 123
2, 154938, Control_c, 0, 67, 118
2, 154953, Control_c, 0, 67, 114
2, 154969, Control_c, 0, 67, 113
2, 154983, Control_c, 0, 67, 111
2, 154999, Control_c, 0, 67, 106
2, 155014, Control_c, 0, 67, 101
2, 155029, Control_c, 0, 67, 95
2, 155045, Control_c, 0, 67, 90
2, 155059, Control_c, 0, 67, 87
2, 155074, Control_c, 0, 67, 84
2, 155090, Control_c, 0, 67, 78
2, 155105, Control_c, 0, 67, 73
2, 155113, Note_on_c, 0, 49, 72
2, 155121, Control_c, 0, 67, 69
2, 155136, Control_c, 0, 67, 66
2, 155151, Control_c, 0, 67, 64
2, 155167, Control_c, 0, 67, 60
2, 155181, Control_c, 0, 67, 58
2, 155197, Control_c, 0, 67, 55
2, 155212, Control_c, 0, 67, 54
2, 155227, Control_c, 0, 67, 54
2, 155258, Control_c, 0, 67, 53
2, 155265, Note_on_c, 0, 51, 73
2, 155273, Control_c, 0, 67, 52
2, 155289, Control_c, 0, 67, 52
2, 155298, Note_on_c, 0, 49, 0
2, 155320, Control_c, 0, 67, 51
2, 155335, Control_c, 0, 67, 51
2, 155350, Control_c, 0, 67, 50
2, 155372, Control_c, 0, 67, 49
2, 155418, Note_on_c, 0, 52, 68
2, 155421, Note_on_c, 0, 73, 79
2, 155432, Note_on_c, 0, 51, 0
2, 155448, Control_c, 0, 67, 48
2, 155463, Control_c, 0, 67, 48
2, 155494, Control_c, 0, 67, 47
2, 155525, Control_c, 0, 67, 47
2, 155539, Control_c, 0, 67, 46
2, 155540, Note_on_c, 0, 52, 0
2, 155570, Control_c, 0, 67, 46
2, 155585, Control_c, 0, 67, 45
2, 155601, Control_c, 0, 67, 44
2, 155615, Control_c, 0, 67, 43
2, 155646, Control_c, 0, 67, 42
2, 155661, Control_c, 0, 67, 41
2, 155677, Control_c, 0, 67, 39
2, 155691, Control_c, 0, 67, 38
2, 155706, Control_c, 0, 67, 36
2, 155710, Note_on_c, 0, 54, 67
2, 155722, Control_c, 0, 67, 35
2, 155737, Control_c, 0, 67, 34
2, 155751, Control_c, 0, 67, 31
2, 155767, Control_c, 0, 67, 28
2, 155782, Control_c, 0, 67, 25
2, 155798, Control_c, 0, 67, 22
2, 155809, Note_on_c, 0, 54, 0
2, 155813, Control_c, 0, 67, 19
2, 155827, Control_c, 0, 67, 17
2, 155843, Control_c, 0, 67, 15
2, 155858, Control_c, 0, 67, 13
2, 155873, Control_c, 0, 67, 11
2, 155889, Control_c, 0, 67, 11
2, 155919, Control_c, 0, 67, 10
2, 155934, Control_c, 0, 67, 9
2, 155949, Control_c, 0, 67, 9
2, 156008, Note_on_c, 0, 56, 61
2, 156011, Control_c, 0, 67, 8
2, 156011, Note_on_c, 0, 72, 81
2, 156047, Note_on_c, 0, 73, 0
2, 156100, Note_on_c, 0, 61, 0
2, 156163, Note_on_c, 0, 54, 56
2, 156186, Note_on_c, 0, 56, 0
2, 156302, Note_on_c, 0, 56, 58
2, 156318, Note_on_c, 0, 75, 71
2, 156334, Note_on_c, 0, 54, 0
2, 156343, Note_on_c, 0, 76, 0
2, 156448, Note_on_c, 0, 56, 0
2, 156452, Note_on_c, 0, 57, 65
2, 156490, Control_c, 0, 67, 8
2, 156614, Note_on_c, 0, 56, 56
2, 156614, Note_on_c, 0, 76, 78
2, 156626, Control_c, 0, 67, 0
2, 156629, Note_on_c, 0, 57, 0
2, 156637, Note_on_c, 0, 72, 0
2, 156776, Note_on_c, 0, 54, 57
2, 156806, Note_on_c, 0, 56, 0
2, 156922, Note_on_c, 0, 73, 67
2, 156925, Note_on_c, 0, 54, 0
2, 156937, Note_on_c, 0, 52, 54
2, 156940, Note_on_c, 0, 75, 0
2, 157063, Note_on_c, 0, 52, 0
2, 157090, Note_on_c, 0, 56, 55
2, 157230, Note_on_c, 0, 54, 61
2, 157230, Note_on_c, 0, 75, 74
2, 157262, Note_on_c, 0, 76, 0
2, 157265, Note_on_c, 0, 68, 0
2, 157268, Note_on_c, 0, 56, 0
2, 157394, Note_on_c, 0, 52, 57
2, 157405, Note_on_c, 0, 54, 0
2, 157536, Note_on_c, 0, 54, 57
2, 157539, Note_on_c, 0, 72, 68
2, 157554, Note_on_c, 0, 52, 0
2, 157575, Note_on_c, 0, 73, 0
2, 157673, Note_on_c, 0, 72, 0
2, 157677, Note_on_c, 0, 54, 0
2, 157691, Note_on_c, 0, 56, 58
2, 157699, Note_on_c, 0, 70, 68
2, 157842, Note_on_c, 0, 70, 0
2, 157849, Note_on_c, 0, 54, 55
2, 157853, Note_on_c, 0, 72, 74
2, 157870, Note_on_c, 0, 56, 0
2, 157974, Note_on_c, 0, 75, 0
2, 158004, Note_on_c, 0, 52, 61
2, 158010, Note_on_c, 0, 54, 0
2, 158135, Note_on_c, 0, 51, 58
2, 158136, Note_on_c, 0, 75, 80
2, 158137, Note_on_c, 0, 52, 0
2, 158169, Note_on_c, 0, 72, 0
2, 158258, Note_on_c, 0, 51, 0
2, 158276, Note_on_c, 0, 54, 60
2, 158421, Note_on_c, 0, 80, 71
2, 158432, Note_on_c, 0, 54, 0
2, 158436, Note_on_c, 0, 52, 52
2, 158536, Note_on_c, 0, 52, 0
2, 158546, Note_on_c, 0, 51, 54
2, 158579, Note_on_c, 0, 78, 74
2, 158591, Note_on_c, 0, 80, 0
2, 158694, Note_on_c, 0, 52, 48
2, 158717, Note_on_c, 0, 80, 68
2, 158748, Note_on_c, 0, 51, 0
2, 158763, Note_on_c, 0, 78, 0
2, 158843, Note_on_c, 0, 52, 0
2, 158856, Note_on_c, 0, 54, 54
2, 158860, Note_on_c, 0, 81, 75
2, 158863, Note_on_c, 0, 80, 0
2, 159026, Note_on_c, 0, 80, 58
2, 159028, Note_on_c, 0, 73, 61
2, 159036, Note_on_c, 0, 52, 47
2, 159038, Note_on_c, 0, 54, 0
2, 159045, Note_on_c, 0, 75, 0
2, 159056, Note_on_c, 0, 81, 0
2, 159160, Note_on_c, 0, 52, 0
2, 159184, Note_on_c, 0, 78, 64
2, 159200, Note_on_c, 0, 57, 57
2, 159262, Note_on_c, 0, 80, 0
2, 159334, Note_on_c, 0, 57, 0
2, 159334, Note_on_c, 0, 76, 67
2, 159338, Note_on_c, 0, 56, 59
2, 159346, Note_on_c, 0, 78, 0
2, 159474, Note_on_c, 0, 56, 0
2, 159484, Note_on_c, 0, 57, 50
2, 159486, Note_on_c, 0, 80, 73
2, 159493, Note_on_c, 0, 76, 0
2, 159641, Note_on_c, 0, 78, 76
2, 159644, Note_on_c, 0, 51, 58
2, 159686, Note_on_c, 0, 57, 0
2, 159698, Note_on_c, 0, 80, 0
2, 159782, Note_on_c, 0, 51, 0
2, 159786, Note_on_c, 0, 49, 61
2, 159786, Note_on_c, 0, 76, 76
2, 159808, Note_on_c, 0, 78, 0
2, 159917, Note_on_c, 0, 51, 65
2, 159927, Note_on_c, 0, 49, 0
2, 159927, Note_on_c, 0, 78, 73
2, 159947, Note_on_c, 0, 76, 0
2, 160061, Note_on_c, 0, 51, 0
2, 160062, Note_on_c, 0, 52, 57
2, 160080, Note_on_c, 0, 80, 76
2, 160113, Note_on_c, 0, 73, 0
2, 160117, Note_on_c, 0, 78, 0
2, 160208, Note_on_c, 0, 51, 65
2, 160224, Note_on_c, 0, 78, 74
2, 160230, Note_on_c, 0, 72, 73
2, 160240, Note_on_c, 0, 52, 0
2, 160266, Note_on_c, 0, 80, 0
2, 160365, Note_on_c, 0, 56, 66
2, 160367, Note_on_c, 0, 76, 76
2, 160371, Note_on_c, 0, 51, 0
2, 160391, Note_on_c, 0, 72, 0
2, 160417, Note_on_c, 0, 78, 0
2, 160519, Note_on_c, 0, 76, 0
2, 160523, Note_on_c, 0, 56, 0
2, 160523, Note_on_c, 0, 75, 79
2, 160526, Note_on_c, 0, 71, 64
2, 160529, Note_on_c, 0, 54, 65
2, 160658, Note_on_c, 0, 54, 0
2, 160669, Note_on_c, 0, 56, 58
2, 160673, Note_on_c, 0, 78, 76
2, 160684, Note_on_c, 0, 75, 0
2, 160836, Note_on_c, 0, 77, 76
2, 160841, Note_on_c, 0, 71, 0
2, 160856, Note_on_c, 0, 49, 68
2, 160858, Note_on_c, 0, 56, 0
2, 160892, Note_on_c, 0, 78, 0
2, 160987, Note_on_c, 0, 71, 58
2, 161120, Note_on_c, 0, 71, 0
2, 161138, Note_on_c, 0, 73, 66
2, 161145, Note_on_c, 0, 61, 84
2, 161163, Note_on_c, 0, 49, 0
2, 161236, Control_c, 0, 64, 57
2, 161238, Note_on_c, 0, 73, 0
2, 161250, Control_c, 0, 64, 62
2, 161265, Control_c, 0, 64, 62
2, 161282, Control_c, 0, 64, 63
2, 161297, Control_c, 0, 64, 65
2, 161298, Note_on_c, 0, 74, 64
2, 161311, Control_c, 0, 64, 66
2, 161327, Control_c, 0, 64, 67
2, 161342, Control_c, 0, 64, 67
2, 161373, Control_c, 0, 64, 67
2, 161403, Control_c, 0, 64, 66
2, 161418, Control_c, 0, 64, 65
2, 161433, Control_c, 0, 64, 62
2, 161439, Note_on_c, 0, 74, 0
2, 161448, Control_c, 0, 64, 43
2, 161461, Note_on_c, 0, 81, 69
2, 161462, Note_on_c, 0, 66, 89
2, 161463, Control_c, 0, 64, 0
2, 161463, Note_on_c, 0, 73, 62
2, 161468, Note_on_c, 0, 61, 0
2, 161484, Note_on_c, 0, 77, 0
2, 161608, Control_c, 0, 64, 50
2, 161623, Control_c, 0, 64, 64
2, 161638, Control_c, 0, 64, 69
2, 161651, Note_on_c, 0, 71, 57
2, 161653, Control_c, 0, 64, 78
2, 161663, Note_on_c, 0, 73, 0
2, 161668, Control_c, 0, 64, 96
2, 161684, Control_c, 0, 64, 127
2, 161699, Note_on_c, 0, 66, 0
2, 161804, Note_on_c, 0, 66, 87
2, 161805, Control_c, 0, 64, 77
2, 161811, Note_on_c, 0, 71, 0
2, 161816, Note_on_c, 0, 69, 65
2, 161821, Control_c, 0, 64, 58
2, 161837, Control_c, 0, 64, 0
2, 161928, Control_c, 0, 64, 53
2, 161942, Control_c, 0, 64, 65
2, 161958, Control_c, 0, 64, 74
2, 161958, Note_on_c, 0, 81, 0
2, 161960, Note_on_c, 0, 73, 77
2, 161973, Control_c, 0, 64, 104
2, 161979, Note_on_c, 0, 69, 0
2, 161988, Control_c, 0, 64, 127
2, 162003, Note_on_c, 0, 66, 0
2, 162144, Note_on_c, 0, 80, 79
2, 162152, Note_on_c, 0, 66, 91
2, 162154, Control_c, 0, 64, 77
2, 162156, Note_on_c, 0, 71, 66
2, 162170, Control_c, 0, 64, 55
2, 162185, Control_c, 0, 64, 0
2, 162205, Note_on_c, 0, 73, 0
2, 162319, Note_on_c, 0, 71, 0
2, 162321, Note_on_c, 0, 69, 64
2, 162456, Note_on_c, 0, 65, 79
2, 162473, Note_on_c, 0, 69, 0
2, 162479, Note_on_c, 0, 71, 66
2, 162513, Note_on_c, 0, 66, 0
2, 162615, Note_on_c, 0, 63, 79
2, 162617, Note_on_c, 0, 71, 0
2, 162626, Note_on_c, 0, 73, 60
2, 162645, Note_on_c, 0, 65, 0
2, 162780, Note_on_c, 0, 65, 77
2, 162785, Note_on_c, 0, 71, 66
2, 162807, Note_on_c, 0, 63, 0
2, 162819, Note_on_c, 0, 73, 0
2, 162922, Note_on_c, 0, 71, 0
2, 162942, Note_on_c, 0, 69, 69
2, 163082, Note_on_c, 0, 69, 0
2, 163099, Note_on_c, 0, 68, 68
2, 163243, Note_on_c, 0, 68, 0
2, 163249, Note_on_c, 0, 71, 69
2, 163274, Note_on_c, 0, 80, 0
2, 163397, Note_on_c, 0, 65, 0
2, 163400, Note_on_c, 0, 66, 87
2, 163405, Note_on_c, 0, 69, 70
2, 163418, Note_on_c, 0, 71, 0
2, 163699, Note_on_c, 0, 78, 68
2, 163708, Note_on_c, 0, 54, 63
2, 163858, Note_on_c, 0, 78, 0
2, 163861, Note_on_c, 0, 56, 69
2, 163865, Note_on_c, 0, 76, 61
2, 163871, Note_on_c, 0, 54, 0
2, 164002, Note_on_c, 0, 76, 0
2, 164004, Note_on_c, 0, 74, 70
2, 164014, Note_on_c, 0, 57, 76
2, 164015, Note_on_c, 0, 54, 77
2, 164051, Note_on_c, 0, 56, 0
2, 164108, Note_on_c, 0, 66, 0
2, 164144, Note_on_c, 0, 57, 0
2, 164171, Note_on_c, 0, 73, 64
2, 164213, Note_on_c, 0, 69, 0
2, 164298, Note_on_c, 0, 71, 66
2, 164299, Note_on_c, 0, 73, 0
2, 164314, Note_on_c, 0, 59, 64
2, 164415, Note_on_c, 0, 71, 0
2, 164440, Note_on_c, 0, 69, 69
2, 164457, Note_on_c, 0, 59, 0
2, 164568, Note_on_c, 0, 54, 0
2, 164605, Note_on_c, 0, 69, 0
2, 164610, Note_on_c, 0, 61, 64
2, 164611, Note_on_c, 0, 68, 69
2, 164618, Note_on_c, 0, 53, 55
2, 164757, Note_on_c, 0, 61, 0
2, 164769, Note_on_c, 0, 59, 67
2, 164883, Note_on_c, 0, 59, 0
2, 164893, Note_on_c, 0, 61, 63
2, 164912, Note_on_c, 0, 68, 0
2, 164913, Note_on_c, 0, 73, 73
2, 164943, Note_on_c, 0, 74, 0
2, 165029, Note_on_c, 0, 61, 0
2, 165040, Note_on_c, 0, 62, 66
2, 165184, Note_on_c, 0, 62, 0
2, 165199, Note_on_c, 0, 78, 76
2, 165201, Note_on_c, 0, 61, 59
2, 165216, Note_on_c, 0, 57, 55
2, 165219, Note_on_c, 0, 53, 0
2, 165244, Note_on_c, 0, 73, 0
2, 165366, Note_on_c, 0, 59, 71
2, 165371, Note_on_c, 0, 61, 0
2, 165383, Note_on_c, 0, 57, 0
2, 165416, Control_c, 0, 64, 52
2, 165431, Control_c, 0, 64, 61
2, 165434, Note_on_c, 0, 78, 0
2, 165446, Control_c, 0, 64, 60
2, 165461, Control_c, 0, 64, 56
2, 165477, Control_c, 0, 64, 40
2, 165492, Control_c, 0, 64, 0
2, 165503, Note_on_c, 0, 57, 65
2, 165512, Note_on_c, 0, 78, 86
2, 165522, Note_on_c, 0, 59, 0
2, 165614, Control_c, 0, 64, 61
2, 165628, Control_c, 0, 64, 67
2, 165644, Control_c, 0, 64, 75
2, 165649, Note_on_c, 0, 61, 70
2, 165659, Control_c, 0, 64, 89
2, 165674, Control_c, 0, 64, 127
2, 165711, Note_on_c, 0, 78, 0
2, 165823, Note_on_c, 0, 78, 81
2, 165825, Note_on_c, 0, 56, 51
2, 165826, Control_c, 0, 64, 97
2, 165829, Note_on_c, 0, 57, 0
2, 165837, Note_on_c, 0, 61, 0
2, 165842, Control_c, 0, 64, 82
2, 165843, Note_on_c, 0, 59, 62
2, 165856, Control_c, 0, 64, 72
2, 165871, Control_c, 0, 64, 65
2, 165887, Control_c, 0, 64, 44
2, 165903, Control_c, 0, 64, 0
2, 165982, Note_on_c, 0, 57, 56
2, 165987, Note_on_c, 0, 59, 0
2, 166136, Note_on_c, 0, 76, 73
2, 166143, Note_on_c, 0, 59, 52
2, 166173, Note_on_c, 0, 78, 0
2, 166204, Note_on_c, 0, 57, 0
2, 166292, Note_on_c, 0, 74, 77
2, 166295, Note_on_c, 0, 59, 0
2, 166298, Note_on_c, 0, 61, 57
2, 166307, Note_on_c, 0, 76, 0
2, 166451, Note_on_c, 0, 76, 71
2, 166462, Note_on_c, 0, 59, 56
2, 166476, Note_on_c, 0, 61, 0
2, 166500, Note_on_c, 0, 74, 0
2, 166555, Note_on_c, 0, 56, 0
2, 166599, Note_on_c, 0, 57, 54
2, 166652, Note_on_c, 0, 59, 0
2, 166724, Note_on_c, 0, 56, 45
2, 166755, Note_on_c, 0, 57, 0
2, 166765, Control_c, 0, 64, 20
2, 166780, Control_c, 0, 64, 36
2, 166796, Control_c, 0, 64, 38
2, 166810, Control_c, 0, 64, 41
2, 166825, Control_c, 0, 64, 44
2, 166871, Control_c, 0, 64, 43
2, 166872, Note_on_c, 0, 59, 57
2, 166894, Control_c, 0, 64, 42
2, 166909, Control_c, 0, 64, 42
2, 166924, Control_c, 0, 64, 39
2, 166939, Control_c, 0, 64, 35
2, 166955, Control_c, 0, 64, 32
2, 166970, Control_c, 0, 64, 29
2, 166985, Control_c, 0, 64, 24
2, 167000, Control_c, 0, 64, 13
2, 167015, Control_c, 0, 64, 0
2, 167024, Note_on_c, 0, 59, 0
2, 167027, Note_on_c, 0, 56, 0
2, 167035, Note_on_c, 0, 54, 50
2, 167046, Note_on_c, 0, 57, 54
2, 167187, Note_on_c, 0, 56, 55
2, 167195, Note_on_c, 0, 57, 0
2, 167313, Note_on_c, 0, 57, 54
2, 167327, Note_on_c, 0, 74, 76
2, 167383, Note_on_c, 0, 76, 0
2, 167453, Note_on_c, 0, 56, 0
2, 167459, Note_on_c, 0, 57, 0
2, 167470, Note_on_c, 0, 73, 74
2, 167487, Note_on_c, 0, 59, 58
2, 167488, Note_on_c, 0, 74, 0
2, 167646, Note_on_c, 0, 74, 72
2, 167657, Note_on_c, 0, 69, 68
2, 167660, Note_on_c, 0, 59, 0
2, 167684, Note_on_c, 0, 57, 45
2, 167695, Note_on_c, 0, 73, 0
2, 167819, Note_on_c, 0, 57, 0
2, 167842, Note_on_c, 0, 59, 55
2, 167983, Note_on_c, 0, 59, 0
2, 167990, Note_on_c, 0, 61, 60
2, 167996, Control_c, 0, 64, 39
2, 168011, Control_c, 0, 64, 58
2, 168026, Control_c, 0, 64, 65
2, 168041, Control_c, 0, 64, 71
2, 168056, Control_c, 0, 64, 86
2, 168072, Control_c, 0, 64, 102
2, 168077, Note_on_c, 0, 69, 0
2, 168087, Control_c, 0, 64, 104
2, 168130, Note_on_c, 0, 61, 0
2, 168130, Note_on_c, 0, 62, 70
2, 168178, Control_c, 0, 64, 98
2, 168194, Control_c, 0, 64, 90
2, 168209, Control_c, 0, 64, 78
2, 168224, Control_c, 0, 64, 65
2, 168239, Control_c, 0, 64, 0
2, 168254, Note_on_c, 0, 62, 0
2, 168263, Note_on_c, 0, 64, 71
2, 168264, Note_on_c, 0, 68, 70
2, 168297, Note_on_c, 0, 54, 0
2, 168362, Control_c, 0, 64, 28
2, 168377, Control_c, 0, 64, 50
2, 168393, Control_c, 0, 64, 56
2, 168408, Control_c, 0, 64, 57
2, 168431, Control_c, 0, 64, 58
2, 168435, Note_on_c, 0, 62, 77
2, 168446, Control_c, 0, 64, 58
2, 168448, Note_on_c, 0, 64, 0
2, 168491, Control_c, 0, 64, 58
2, 168506, Control_c, 0, 64, 56
2, 168522, Control_c, 0, 64, 52
2, 168537, Control_c, 0, 64, 33
2, 168552, Control_c, 0, 64, 0
2, 168572, Note_on_c, 0, 64, 69
2, 168581, Note_on_c, 0, 62, 0
2, 168583, Note_on_c, 0, 52, 69
2, 168701, Note_on_c, 0, 66, 81
2, 168719, Note_on_c, 0, 68, 0
2, 168732, Note_on_c, 0, 64, 0
2, 168734, Control_c, 0, 64, 24
2, 168750, Control_c, 0, 64, 54
2, 168765, Control_c, 0, 64, 60
2, 168796, Control_c, 0, 64, 58
2, 168811, Control_c, 0, 64, 51
2, 168826, Control_c, 0, 64, 0
2, 168853, Note_on_c, 0, 73, 78
2, 168856, Note_on_c, 0, 66, 0
2, 168869, Note_on_c, 0, 64, 66
2, 168875, Note_on_c, 0, 57, 65
2, 168875, Note_on_c, 0, 74, 0
2, 168902, Note_on_c, 0, 52, 0
2, 168936, Note_on_c, 0, 57, 0
2, 168947, Control_c, 0, 64, 49
2, 168961, Control_c, 0, 64, 60
2, 168976, Control_c, 0, 64, 64
2, 168992, Control_c, 0, 64, 66
2, 169006, Control_c, 0, 64, 67
2, 169021, Control_c, 0, 64, 66
2, 169030, Note_on_c, 0, 62, 69
2, 169037, Control_c, 0, 64, 65
2, 169052, Control_c, 0, 64, 65
2, 169075, Note_on_c, 0, 64, 0
2, 169083, Control_c, 0, 64, 64
2, 169098, Control_c, 0, 64, 64
2, 169114, Control_c, 0, 64, 63
2, 169129, Control_c, 0, 64, 59
2, 169144, Control_c, 0, 64, 41
2, 169159, Control_c, 0, 64, 0
2, 169172, Note_on_c, 0, 61, 77
2, 169191, Note_on_c, 0, 57, 69
2, 169201, Note_on_c, 0, 62, 0
2, 169274, Control_c, 0, 64, 28
2, 169289, Control_c, 0, 64, 49
2, 169304, Control_c, 0, 64, 60
2, 169314, Note_on_c, 0, 61, 0
2, 169319, Control_c, 0, 64, 64
2, 169321, Note_on_c, 0, 57, 0
2, 169327, Note_on_c, 0, 64, 70
2, 169334, Control_c, 0, 64, 66
2, 169350, Control_c, 0, 64, 67
2, 169365, Control_c, 0, 64, 68
2, 169380, Control_c, 0, 64, 69
2, 169456, Control_c, 0, 64, 68
2, 169471, Control_c, 0, 64, 67
2, 169486, Control_c, 0, 64, 66
2, 169501, Control_c, 0, 64, 65
2, 169515, Note_on_c, 0, 78, 92
2, 169517, Control_c, 0, 64, 63
2, 169520, Note_on_c, 0, 62, 53
2, 169529, Note_on_c, 0, 57, 53
2, 169532, Control_c, 0, 64, 60
2, 169535, Note_on_c, 0, 71, 56
2, 169547, Control_c, 0, 64, 52
2, 169554, Note_on_c, 0, 64, 0
2, 169560, Note_on_c, 0, 73, 0
2, 169563, Control_c, 0, 64, 0
2, 169641, Note_on_c, 0, 57, 0
2, 169685, Note_on_c, 0, 61, 60
2, 169711, Note_on_c, 0, 62, 0
2, 169807, Note_on_c, 0, 61, 0
2, 169829, Note_on_c, 0, 56, 57
2, 169837, Note_on_c, 0, 62, 57
2, 169956, Note_on_c, 0, 56, 0
2, 169967, Note_on_c, 0, 62, 0
2, 169981, Note_on_c, 0, 64, 56
2, 169984, Note_on_c, 0, 54, 53
2, 170125, Note_on_c, 0, 54, 0
2, 170130, Note_on_c, 0, 56, 62
2, 170139, Note_on_c, 0, 76, 73
2, 170140, Note_on_c, 0, 62, 50
2, 170161, Note_on_c, 0, 64, 0
2, 170203, Note_on_c, 0, 78, 0
2, 170299, Control_c, 0, 64, 20
2, 170300, Note_on_c, 0, 61, 63
2, 170315, Control_c, 0, 64, 32
2, 170330, Control_c, 0, 64, 49
2, 170345, Control_c, 0, 64, 56
2, 170345, Note_on_c, 0, 62, 0
2, 170361, Control_c, 0, 64, 57
2, 170376, Control_c, 0, 64, 58
2, 170392, Control_c, 0, 64, 58
2, 170407, Control_c, 0, 64, 59
2, 170443, Note_on_c, 0, 59, 58
2, 170452, Control_c, 0, 64, 58
2, 170452, Note_on_c, 0, 61, 0
2, 170467, Control_c, 0, 64, 58
2, 170497, Control_c, 0, 64, 57
2, 170518, Note_on_c, 0, 59, 0
2, 170554, Note_on_c, 0, 62, 57
2, 170573, Control_c, 0, 64, 56
2, 170589, Control_c, 0, 64, 54
2, 170604, Control_c, 0, 64, 52
2, 170619, Control_c, 0, 64, 51
2, 170635, Control_c, 0, 64, 49
2, 170649, Control_c, 0, 64, 42
2, 170664, Control_c, 0, 64, 0
2, 170728, Note_on_c, 0, 57, 55
2, 170728, Note_on_c, 0, 61, 60
2, 170729, Note_on_c, 0, 62, 0
2, 170767, Note_on_c, 0, 56, 0
2, 170824, Control_c, 0, 64, 41
2, 170835, Note_on_c, 0, 76, 0
2, 170841, Control_c, 0, 64, 58
2, 170856, Control_c, 0, 64, 63
2, 170872, Control_c, 0, 64, 65
2, 170877, Note_on_c, 0, 59, 60
2, 170886, Control_c, 0, 64, 67
2, 170886, Note_on_c, 0, 61, 0
2, 170901, Control_c, 0, 64, 69
2, 170917, Control_c, 0, 64, 75
2, 170931, Control_c, 0, 64, 83
2, 170946, Control_c, 0, 64, 91
2, 170962, Control_c, 0, 64, 91
2, 170977, Control_c, 0, 64, 86
2, 170993, Control_c, 0, 64, 75
2, 170994, Note_on_c, 0, 71, 0
2, 171007, Control_c, 0, 64, 64
2, 171022, Control_c, 0, 64, 20
2, 171027, Note_on_c, 0, 64, 77
2, 171038, Control_c, 0, 64, 0
2, 171038, Note_on_c, 0, 61, 54
2, 171069, Control_c, 0, 64, 42
2, 171070, Note_on_c, 0, 59, 0
2, 171083, Control_c, 0, 64, 60
2, 171098, Control_c, 0, 64, 64
2, 171114, Control_c, 0, 64, 67
2, 171128, Control_c, 0, 64, 70
2, 171128, Note_on_c, 0, 61, 0
2, 171143, Control_c, 0, 64, 77
2, 171150, Note_on_c, 0, 64, 0
2, 171159, Control_c, 0, 64, 89
2, 171174, Control_c, 0, 64, 103
2, 171179, Note_on_c, 0, 62, 49
2, 171190, Control_c, 0, 64, 113
2, 171195, Note_on_c, 0, 78, 73
2, 171205, Control_c, 0, 64, 116
2, 171220, Control_c, 0, 64, 127
2, 171324, Note_on_c, 0, 62, 0
2, 171327, Control_c, 0, 64, 115
2, 171342, Control_c, 0, 64, 81
2, 171343, Note_on_c, 0, 61, 54
2, 171345, Note_on_c, 0, 76, 68
2, 171346, Note_on_c, 0, 54, 61
2, 171354, Note_on_c, 0, 69, 73
2, 171358, Control_c, 0, 64, 65
2, 171366, Note_on_c, 0, 78, 0
2, 171373, Control_c, 0, 64, 0
2, 171394, Note_on_c, 0, 57, 0
2, 171463, Control_c, 0, 64, 41
2, 171479, Control_c, 0, 64, 54
2, 171501, Control_c, 0, 64, 62
2, 171503, Note_on_c, 0, 61, 0
2, 171516, Note_on_c, 0, 74, 74
2, 171517, Control_c, 0, 64, 65
2, 171523, Note_on_c, 0, 59, 60
2, 171532, Control_c, 0, 64, 69
2, 171545, Note_on_c, 0, 76, 0
2, 171547, Control_c, 0, 64, 76
2, 171557, Note_on_c, 0, 69, 0
2, 171562, Control_c, 0, 64, 81
2, 171577, Control_c, 0, 64, 83
2, 171608, Control_c, 0, 64, 84
2, 171623, Control_c, 0, 64, 84
2, 171654, Control_c, 0, 64, 79
2, 171665, Note_on_c, 0, 59, 0
2, 171670, Control_c, 0, 64, 68
2, 171673, Note_on_c, 0, 73, 83
2, 171677, Note_on_c, 0, 74, 0
2, 171679, Note_on_c, 0, 69, 76
2, 171680, Note_on_c, 0, 57, 61
2, 171685, Control_c, 0, 64, 13
2, 171700, Control_c, 0, 64, 0
2, 171761, Control_c, 0, 64, 49
2, 171776, Control_c, 0, 64, 62
2, 171782, Note_on_c, 0, 54, 0
2, 171792, Control_c, 0, 64, 65
2, 171807, Control_c, 0, 64, 69
2, 171811, Note_on_c, 0, 57, 0
2, 171822, Control_c, 0, 64, 80
2, 171829, Note_on_c, 0, 61, 72
2, 171832, Note_on_c, 0, 76, 79
2, 171838, Control_c, 0, 64, 127
2, 171866, Note_on_c, 0, 73, 0
2, 171873, Note_on_c, 0, 69, 0
2, 171911, Note_on_c, 0, 61, 0
2, 172019, Control_c, 0, 64, 90
2, 172033, Note_on_c, 0, 69, 76
2, 172033, Note_on_c, 0, 74, 81
2, 172035, Control_c, 0, 64, 74
2, 172044, Note_on_c, 0, 59, 75
2, 172047, Note_on_c, 0, 47, 69
2, 172049, Control_c, 0, 64, 64
2, 172059, Note_on_c, 0, 76, 0
2, 172064, Control_c, 0, 64, 0
2, 172213, Note_on_c, 0, 73, 76
2, 172233, Note_on_c, 0, 74, 0
2, 172302, Note_on_c, 0, 69, 0
2, 172330, Control_c, 0, 64, 22
2, 172345, Control_c, 0, 64, 24
2, 172361, Control_c, 0, 64, 22
2, 172368, Note_on_c, 0, 68, 78
2, 172370, Note_on_c, 0, 74, 72
2, 172407, Note_on_c, 0, 73, 0
2, 172421, Control_c, 0, 64, 20
2, 172437, Control_c, 0, 64, 0
2, 172509, Note_on_c, 0, 68, 0
2, 172526, Note_on_c, 0, 76, 77
2, 172530, Note_on_c, 0, 66, 76
2, 172577, Note_on_c, 0, 74, 0
2, 172687, Note_on_c, 0, 68, 72
2, 172690, Note_on_c, 0, 74, 72
2, 172693, Note_on_c, 0, 52, 73
2, 172695, Note_on_c, 0, 76, 0
2, 172702, Note_on_c, 0, 66, 0
2, 172718, Note_on_c, 0, 47, 0
2, 172846, Note_on_c, 0, 73, 79
2, 172893, Note_on_c, 0, 74, 0
2, 172999, Note_on_c, 0, 71, 78
2, 173007, Note_on_c, 0, 73, 0
2, 173106, Note_on_c, 0, 59, 0
2, 173143, Control_c, 0, 64, 29
2, 173155, Note_on_c, 0, 74, 87
2, 173158, Control_c, 0, 64, 53
2, 173173, Control_c, 0, 64, 60
2, 173180, Note_on_c, 0, 71, 0
2, 173189, Control_c, 0, 64, 61
2, 173204, Control_c, 0, 64, 62
2, 173281, Control_c, 0, 64, 60
2, 173296, Control_c, 0, 64, 59
2, 173312, Control_c, 0, 64, 58
2, 173327, Control_c, 0, 64, 54
2, 173341, Control_c, 0, 64, 48
2, 173357, Control_c, 0, 64, 29
2, 173365, Note_on_c, 0, 73, 87
2, 173368, Note_on_c, 0, 57, 53
2, 173372, Control_c, 0, 64, 0
2, 173378, Note_on_c, 0, 45, 57
2, 173391, Note_on_c, 0, 74, 0
2, 173403, Note_on_c, 0, 52, 0
2, 173565, Note_on_c, 0, 56, 60
2, 173568, Note_on_c, 0, 57, 0
2, 173698, Note_on_c, 0, 68, 0
2, 173705, Note_on_c, 0, 61, 65
2, 173720, Note_on_c, 0, 54, 68
2, 173741, Note_on_c, 0, 56, 0
2, 173861, Note_on_c, 0, 54, 0
2, 173873, Note_on_c, 0, 61, 0
2, 173874, Note_on_c, 0, 52, 70
2, 173874, Note_on_c, 0, 63, 74
2, 174014, Note_on_c, 0, 52, 0
2, 174020, Note_on_c, 0, 51, 72
2, 174029, Note_on_c, 0, 64, 79
2, 174030, Note_on_c, 0, 63, 0
2, 174167, Note_on_c, 0, 49, 72
2, 174184, Note_on_c, 0, 51, 0
2, 174207, Note_on_c, 0, 64, 0
2, 174305, Note_on_c, 0, 49, 0
2, 174313, Note_on_c, 0, 48, 69
2, 174319, Note_on_c, 0, 66, 83
2, 174362, Note_on_c, 0, 45, 0
2, 174414, Control_c, 0, 64, 63
2, 174429, Control_c, 0, 64, 66
2, 174444, Control_c, 0, 64, 69
2, 174448, Note_on_c, 0, 49, 71
2, 174458, Note_on_c, 0, 48, 0
2, 174459, Control_c, 0, 64, 75
2, 174475, Control_c, 0, 64, 84
2, 174490, Control_c, 0, 64, 88
2, 174500, Note_on_c, 0, 73, 0
2, 174520, Control_c, 0, 64, 87
2, 174533, Note_on_c, 0, 66, 0
2, 174535, Control_c, 0, 64, 87
2, 174551, Control_c, 0, 64, 86
2, 174573, Control_c, 0, 64, 83
2, 174589, Control_c, 0, 64, 78
2, 174604, Control_c, 0, 64, 71
2, 174616, Note_on_c, 0, 72, 81
2, 174619, Control_c, 0, 64, 64
2, 174625, Note_on_c, 0, 68, 69
2, 174626, Note_on_c, 0, 51, 73
2, 174633, Note_on_c, 0, 44, 55
2, 174635, Control_c, 0, 64, 0
2, 174652, Note_on_c, 0, 49, 0
2, 174785, Control_c, 0, 64, 50
2, 174800, Note_on_c, 0, 66, 71
2, 174801, Control_c, 0, 64, 58
2, 174816, Control_c, 0, 64, 60
2, 174827, Note_on_c, 0, 68, 0
2, 174832, Control_c, 0, 64, 61
2, 174846, Control_c, 0, 64, 60
2, 174861, Control_c, 0, 64, 58
2, 174877, Control_c, 0, 64, 47
2, 174892, Control_c, 0, 64, 0
2, 174937, Note_on_c, 0, 56, 74
2, 174947, Note_on_c, 0, 68, 71
2, 174953, Note_on_c, 0, 51, 0
2, 174954, Note_on_c, 0, 44, 0
2, 174977, Note_on_c, 0, 66, 0
2, 175014, Control_c, 0, 64, 61
2, 175030, Control_c, 0, 64, 67
2, 175045, Control_c, 0, 64, 70
2, 175047, Note_on_c, 0, 72, 0
2, 175060, Control_c, 0, 64, 75
2, 175075, Control_c, 0, 64, 81
2, 175090, Control_c, 0, 64, 86
2, 175100, Note_on_c, 0, 69, 72
2, 175106, Control_c, 0, 64, 87
2, 175107, Note_on_c, 0, 68, 0
2, 175137, Control_c, 0, 64, 86
2, 175152, Control_c, 0, 64, 85
2, 175167, Control_c, 0, 64, 83
2, 175182, Control_c, 0, 64, 79
2, 175198, Control_c, 0, 64, 75
2, 175213, Control_c, 0, 64, 70
2, 175229, Control_c, 0, 64, 64
2, 175243, Control_c, 0, 64, 35
2, 175250, Note_on_c, 0, 76, 76
2, 175258, Control_c, 0, 64, 0
2, 175258, Note_on_c, 0, 61, 73
2, 175258, Note_on_c, 0, 68, 58
2, 175275, Note_on_c, 0, 69, 0
2, 175289, Note_on_c, 0, 56, 0
2, 175387, Control_c, 0, 64, 42
2, 175403, Control_c, 0, 64, 63
2, 175417, Control_c, 0, 64, 65
2, 175427, Note_on_c, 0, 66, 73
2, 175433, Control_c, 0, 64, 66
2, 175448, Control_c, 0, 64, 68
2, 175463, Control_c, 0, 64, 71
2, 175477, Note_on_c, 0, 68, 0
2, 175479, Control_c, 0, 64, 75
2, 175489, Note_on_c, 0, 61, 0
2, 175494, Control_c, 0, 64, 78
2, 175540, Control_c, 0, 64, 76
2, 175555, Control_c, 0, 64, 73
2, 175570, Control_c, 0, 64, 66
2, 175575, Note_on_c, 0, 61, 87
2, 175579, Note_on_c, 0, 64, 80
2, 175585, Control_c, 0, 64, 0
2, 175607, Note_on_c, 0, 66, 0
2, 175691, Control_c, 0, 64, 51
2, 175706, Control_c, 0, 64, 64
2, 175722, Control_c, 0, 64, 68
2, 175724, Note_on_c, 0, 68, 83
2, 175726, Note_on_c, 0, 76, 0
2, 175738, Control_c, 0, 64, 76
2, 175754, Control_c, 0, 64, 90
2, 175759, Note_on_c, 0, 64, 0
2, 175763, Note_on_c, 0, 61, 0
2, 175769, Control_c, 0, 64, 95
2, 175784, Control_c, 0, 64, 94
2, 175799, Control_c, 0, 64, 89
2, 175814, Control_c, 0, 64, 83
2, 175830, Control_c, 0, 64, 76
2, 175844, Control_c, 0, 64, 69
2, 175859, Control_c, 0, 64, 60
2, 175875, Control_c, 0, 64, 0
2, 175877, Note_on_c, 0, 75, 87
2, 175887, Note_on_c, 0, 61, 71
2, 175888, Note_on_c, 0, 66, 71
2, 175917, Note_on_c, 0, 68, 0
2, 176037, Note_on_c, 0, 64, 68
2, 176038, Note_on_c, 0, 66, 0
2, 176203, Note_on_c, 0, 60, 69
2, 176209, Note_on_c, 0, 66, 74
2, 176220, Note_on_c, 0, 61, 0
2, 176230, Note_on_c, 0, 64, 0
2, 176355, Note_on_c, 0, 66, 0
2, 176364, Note_on_c, 0, 68, 67
2, 176365, Note_on_c, 0, 58, 75
2, 176391, Note_on_c, 0, 60, 0
2, 176502, Note_on_c, 0, 60, 62
2, 176515, Note_on_c, 0, 66, 67
2, 176518, Note_on_c, 0, 58, 0
2, 176603, Note_on_c, 0, 68, 0
2, 176645, Note_on_c, 0, 66, 0
2, 176666, Note_on_c, 0, 64, 69
2, 176800, Note_on_c, 0, 63, 64
2, 176823, Note_on_c, 0, 64, 0
2, 176969, Note_on_c, 0, 63, 0
2, 176969, Note_on_c, 0, 66, 60
2, 177047, Note_on_c, 0, 75, 0
2, 177126, Note_on_c, 0, 61, 52
2, 177127, Note_on_c, 0, 64, 60
2, 177148, Note_on_c, 0, 66, 0
2, 177163, Note_on_c, 0, 60, 0
2, 177277, Note_on_c, 0, 63, 68
2, 177282, Note_on_c, 0, 64, 0
2, 177332, Control_c, 0, 64, 49
2, 177347, Control_c, 0, 64, 58
2, 177363, Control_c, 0, 64, 60
2, 177379, Control_c, 0, 64, 60
2, 177395, Control_c, 0, 64, 61
2, 177403, Note_on_c, 0, 63, 0
2, 177409, Control_c, 0, 64, 62
2, 177413, Note_on_c, 0, 64, 67
2, 177413, Note_on_c, 0, 68, 65
2, 177440, Control_c, 0, 64, 62
2, 177454, Control_c, 0, 64, 61
2, 177470, Control_c, 0, 64, 60
2, 177485, Control_c, 0, 64, 60
2, 177500, Control_c, 0, 64, 59
2, 177516, Control_c, 0, 64, 58
2, 177530, Control_c, 0, 64, 56
2, 177545, Control_c, 0, 64, 55
2, 177561, Control_c, 0, 64, 54
2, 177567, Note_on_c, 0, 64, 0
2, 177573, Note_on_c, 0, 66, 72
2, 177576, Control_c, 0, 64, 53
2, 177592, Control_c, 0, 64, 51
2, 177607, Control_c, 0, 64, 48
2, 177622, Control_c, 0, 64, 44
2, 177645, Control_c, 0, 64, 40
2, 177659, Control_c, 0, 64, 31
2, 177675, Control_c, 0, 64, 17
2, 177690, Control_c, 0, 64, 0
2, 177738, Note_on_c, 0, 73, 72
2, 177739, Note_on_c, 0, 64, 61
2, 177739, Note_on_c, 0, 66, 0
2, 177743, Note_on_c, 0, 57, 67
2, 177744, Note_on_c, 0, 61, 0
2, 177767, Note_on_c, 0, 68, 0
2, 177870, Note_on_c, 0, 64, 0
2, 177873, Control_c, 0, 64, 22
2, 177888, Control_c, 0, 64, 52
2, 177888, Note_on_c, 0, 63, 70
2, 177903, Control_c, 0, 64, 58
2, 177919, Control_c, 0, 64, 61
2, 177931, Note_on_c, 0, 73, 0
2, 177934, Control_c, 0, 64, 62
2, 177948, Control_c, 0, 64, 63
2, 177964, Control_c, 0, 64, 63
2, 177979, Control_c, 0, 64, 64
2, 177994, Control_c, 0, 64, 64
2, 178024, Control_c, 0, 64, 65
2, 178044, Note_on_c, 0, 73, 78
2, 178049, Note_on_c, 0, 63, 0
2, 178058, Note_on_c, 0, 61, 66
2, 178100, Control_c, 0, 64, 64
2, 178116, Control_c, 0, 64, 64
2, 178210, Note_on_c, 0, 61, 0
2, 178213, Note_on_c, 0, 64, 70
2, 178240, Control_c, 0, 64, 63
2, 178242, Note_on_c, 0, 73, 0
2, 178353, Note_on_c, 0, 73, 75
2, 178364, Note_on_c, 0, 64, 0
2, 178367, Note_on_c, 0, 63, 62
2, 178368, Note_on_c, 0, 54, 62
2, 178391, Control_c, 0, 64, 62
2, 178414, Control_c, 0, 64, 62
2, 178430, Control_c, 0, 64, 61
2, 178430, Note_on_c, 0, 57, 0
2, 178444, Control_c, 0, 64, 60
2, 178475, Control_c, 0, 64, 61
2, 178490, Control_c, 0, 64, 62
2, 178505, Control_c, 0, 64, 63
2, 178520, Control_c, 0, 64, 63
2, 178521, Note_on_c, 0, 63, 0
2, 178533, Note_on_c, 0, 61, 80
2, 178535, Control_c, 0, 64, 64
2, 178551, Control_c, 0, 64, 65
2, 178566, Control_c, 0, 64, 69
2, 178579, Note_on_c, 0, 73, 0
2, 178581, Control_c, 0, 64, 80
2, 178596, Control_c, 0, 64, 112
2, 178611, Control_c, 0, 64, 127
2, 178637, Note_on_c, 0, 61, 0
2, 178663, Note_on_c, 0, 63, 69
2, 178671, Note_on_c, 0, 71, 75
2, 178811, Note_on_c, 0, 69, 67
2, 178813, Note_on_c, 0, 64, 79
2, 178835, Note_on_c, 0, 63, 0
2, 178851, Note_on_c, 0, 71, 0
2, 178878, Note_on_c, 0, 64, 0
2, 178983, Note_on_c, 0, 69, 0
2, 178983, Note_on_c, 0, 71, 75
2, 178987, Note_on_c, 0, 56, 70
2, 178987, Note_on_c, 0, 62, 71
2, 178991, Control_c, 0, 64, 92
2, 179003, Note_on_c, 0, 54, 0
2, 179006, Control_c, 0, 64, 72
2, 179022, Control_c, 0, 64, 63
2, 179038, Control_c, 0, 64, 0
2, 179123, Note_on_c, 0, 62, 0
2, 179134, Note_on_c, 0, 61, 69
2, 179298, Note_on_c, 0, 59, 72
2, 179300, Note_on_c, 0, 61, 0
2, 179319, Control_c, 0, 64, 44
2, 179334, Control_c, 0, 64, 63
2, 179350, Control_c, 0, 64, 66
2, 179364, Control_c, 0, 64, 67
2, 179379, Control_c, 0, 64, 68
2, 179395, Control_c, 0, 64, 69
2, 179410, Control_c, 0, 64, 69
2, 179425, Control_c, 0, 64, 71
2, 179440, Control_c, 0, 64, 74
2, 179444, Note_on_c, 0, 62, 62
2, 179455, Control_c, 0, 64, 76
2, 179480, Note_on_c, 0, 59, 0
2, 179485, Control_c, 0, 64, 76
2, 179500, Control_c, 0, 64, 75
2, 179531, Control_c, 0, 64, 75
2, 179546, Control_c, 0, 64, 74
2, 179561, Control_c, 0, 64, 73
2, 179576, Control_c, 0, 64, 72
2, 179592, Control_c, 0, 64, 71
2, 179599, Note_on_c, 0, 53, 63
2, 179607, Control_c, 0, 64, 69
2, 179607, Note_on_c, 0, 61, 68
2, 179621, Note_on_c, 0, 62, 0
2, 179622, Control_c, 0, 64, 68
2, 179637, Control_c, 0, 64, 66
2, 179639, Note_on_c, 0, 56, 0
2, 179652, Control_c, 0, 64, 64
2, 179667, Control_c, 0, 64, 63
2, 179683, Control_c, 0, 64, 58
2, 179698, Control_c, 0, 64, 47
2, 179713, Control_c, 0, 64, 0
2, 179742, Note_on_c, 0, 59, 72
2, 179744, Note_on_c, 0, 61, 0
2, 179899, Note_on_c, 0, 49, 70
2, 179901, Note_on_c, 0, 61, 71
2, 179902, Note_on_c, 0, 59, 0
2, 179995, Control_c, 0, 64, 13
2, 180010, Control_c, 0, 64, 35
2, 180025, Control_c, 0, 64, 46
2, 180035, Note_on_c, 0, 71, 0
2, 180040, Control_c, 0, 64, 47
2, 180050, Note_on_c, 0, 61, 0
2, 180054, Note_on_c, 0, 62, 78
2, 180117, Control_c, 0, 64, 45
2, 180131, Control_c, 0, 64, 40
2, 180146, Control_c, 0, 64, 24
2, 180162, Control_c, 0, 64, 0
2, 180214, Note_on_c, 0, 62, 0
2, 180221, Note_on_c, 0, 53, 0
2, 180221, Note_on_c, 0, 69, 73
2, 180230, Note_on_c, 0, 61, 72
2, 180235, Note_on_c, 0, 54, 66
2, 180260, Note_on_c, 0, 49, 0
2, 180328, Control_c, 0, 64, 55
2, 180343, Control_c, 0, 64, 62
2, 180359, Control_c, 0, 64, 63
2, 180383, Note_on_c, 0, 64, 72
2, 180404, Control_c, 0, 64, 64
2, 180419, Control_c, 0, 64, 65
2, 180428, Note_on_c, 0, 61, 0
2, 180435, Control_c, 0, 64, 67
2, 180450, Control_c, 0, 64, 70
2, 180451, Note_on_c, 0, 54, 0
2, 180465, Control_c, 0, 64, 72
2, 180481, Control_c, 0, 64, 71
2, 180496, Control_c, 0, 64, 68
2, 180512, Control_c, 0, 64, 63
2, 180526, Control_c, 0, 64, 0
2, 180535, Note_on_c, 0, 63, 75
2, 180538, Note_on_c, 0, 54, 76
2, 180542, Note_on_c, 0, 69, 0
2, 180606, Note_on_c, 0, 64, 0
2, 180633, Control_c, 0, 64, 54
2, 180649, Control_c, 0, 64, 63
2, 180664, Control_c, 0, 64, 65
2, 180679, Control_c, 0, 64, 66
2, 180687, Note_on_c, 0, 61, 74
2, 180694, Control_c, 0, 64, 68
2, 180717, Control_c, 0, 64, 71
2, 180732, Control_c, 0, 64, 76
2, 180747, Control_c, 0, 64, 78
2, 180753, Note_on_c, 0, 63, 0
2, 180776, Note_on_c, 0, 61, 0
2, 180797, Note_on_c, 0, 54, 0
2, 180823, Control_c, 0, 64, 78
2, 180838, Control_c, 0, 64, 75
2, 180853, Control_c, 0, 64, 70
2, 180868, Control_c, 0, 64, 64
2, 180881, Note_on_c, 0, 68, 79
2, 180882, Control_c, 0, 64, 0
2, 180887, Note_on_c, 0, 54, 82
2, 180887, Note_on_c, 0, 56, 72
2, 180893, Note_on_c, 0, 60, 71
2, 181019, Control_c, 0, 64, 46
2, 181033, Control_c, 0, 64, 60
2, 181049, Control_c, 0, 64, 64
2, 181064, Control_c, 0, 64, 66
2, 181078, Note_on_c, 0, 54, 0
2, 181080, Control_c, 0, 64, 70
2, 181094, Control_c, 0, 64, 74
2, 181109, Control_c, 0, 64, 77
2, 181140, Control_c, 0, 64, 76
2, 181155, Control_c, 0, 64, 76
2, 181170, Control_c, 0, 64, 74
2, 181185, Control_c, 0, 64, 71
2, 181201, Control_c, 0, 64, 65
2, 181216, Control_c, 0, 64, 42
2, 181217, Note_on_c, 0, 52, 74
2, 181220, Note_on_c, 0, 44, 68
2, 181231, Control_c, 0, 64, 0
2, 181349, Note_on_c, 0, 60, 0
2, 181383, Note_on_c, 0, 51, 81
2, 181411, Note_on_c, 0, 52, 0
2, 181554, Note_on_c, 0, 49, 75
2, 181560, Note_on_c, 0, 51, 0
2, 181560, Note_on_c, 0, 61, 81
2, 181563, Note_on_c, 0, 52, 71
2, 181588, Note_on_c, 0, 44, 0
2, 181627, Note_on_c, 0, 68, 0
2, 181680, Control_c, 0, 64, 31
2, 181695, Control_c, 0, 64, 62
2, 181710, Control_c, 0, 64, 67
2, 181726, Control_c, 0, 64, 71
2, 181741, Control_c, 0, 64, 78
2, 181741, Note_on_c, 0, 49, 0
2, 181757, Control_c, 0, 64, 83
2, 181772, Control_c, 0, 64, 87
2, 181787, Control_c, 0, 64, 94
2, 181802, Control_c, 0, 64, 100
2, 181817, Control_c, 0, 64, 103
2, 181848, Control_c, 0, 64, 94
2, 181863, Control_c, 0, 64, 76
2, 181878, Control_c, 0, 64, 64
2, 181888, Note_on_c, 0, 49, 83
2, 181893, Control_c, 0, 64, 0
2, 181894, Note_on_c, 0, 56, 0
2, 181941, Note_on_c, 0, 52, 0
2, 181949, Note_on_c, 0, 61, 0
2, 181953, Control_c, 0, 64, 60
2, 181969, Control_c, 0, 64, 64
2, 181984, Control_c, 0, 64, 67
2, 182000, Control_c, 0, 64, 72
2, 182015, Control_c, 0, 64, 82
2, 182025, Note_on_c, 0, 49, 0
2, 182030, Control_c, 0, 64, 98
2, 182046, Control_c, 0, 64, 115
2, 182061, Control_c, 0, 64, 116
2, 182106, Control_c, 0, 64, 113
2, 182122, Control_c, 0, 64, 112
2, 182136, Control_c, 0, 64, 107
2, 182151, Control_c, 0, 64, 103
2, 182167, Control_c, 0, 64, 94
2, 182182, Control_c, 0, 64, 82
2, 182198, Control_c, 0, 64, 72
2, 182212, Control_c, 0, 64, 64
2, 182227, Control_c, 0, 64, 42
2, 182251, Control_c, 0, 64, 0
2, 182253, Note_on_c, 0, 75, 91
2, 182264, Note_on_c, 0, 63, 70
2, 182265, Note_on_c, 0, 49, 66
2, 182270, Note_on_c, 0, 51, 61
2, 182271, Note_on_c, 0, 55, 62
2, 182502, Note_on_c, 0, 63, 0
2, 182578, Note_on_c, 0, 63, 78
2, 182579, Note_on_c, 0, 47, 67
2, 182579, Note_on_c, 0, 49, 0
2, 182692, Note_on_c, 0, 55, 0
2, 182738, Note_on_c, 0, 46, 69
2, 182742, Note_on_c, 0, 47, 0
2, 182866, Note_on_c, 0, 68, 77
2, 182869, Note_on_c, 0, 56, 60
2, 182887, Note_on_c, 0, 46, 0
2, 182893, Note_on_c, 0, 47, 60
2, 182906, Note_on_c, 0, 63, 0
2, 183026, Note_on_c, 0, 46, 63
2, 183033, Note_on_c, 0, 47, 0
2, 183033, Note_on_c, 0, 70, 82
2, 183089, Note_on_c, 0, 68, 0
2, 183181, Note_on_c, 0, 71, 73
2, 183185, Note_on_c, 0, 44, 74
2, 183189, Note_on_c, 0, 46, 0
2, 183298, Note_on_c, 0, 75, 0
2, 183319, Note_on_c, 0, 47, 64
2, 183326, Note_on_c, 0, 56, 0
2, 183333, Note_on_c, 0, 44, 0
2, 183411, Note_on_c, 0, 70, 0
2, 183470, Note_on_c, 0, 74, 87
2, 183479, Note_on_c, 0, 51, 0
2, 183480, Note_on_c, 0, 47, 0
2, 183481, Note_on_c, 0, 46, 67
2, 183487, Note_on_c, 0, 53, 67
2, 183628, Note_on_c, 0, 46, 0
2, 183630, Note_on_c, 0, 44, 71
2, 183635, Note_on_c, 0, 71, 0
2, 183793, Note_on_c, 0, 70, 80
2, 183802, Note_on_c, 0, 46, 65
2, 183833, Note_on_c, 0, 53, 0
2, 183885, Note_on_c, 0, 74, 0
2, 183918, Note_on_c, 0, 44, 0
2, 183934, Note_on_c, 0, 47, 75
2, 184026, Note_on_c, 0, 46, 0
2, 184080, Note_on_c, 0, 78, 83
2, 184087, Note_on_c, 0, 75, 83
2, 184095, Note_on_c, 0, 46, 66
2, 184109, Note_on_c, 0, 47, 0
2, 184122, Note_on_c, 0, 70, 0
2, 184233, Note_on_c, 0, 44, 73
2, 184245, Note_on_c, 0, 46, 0
2, 184328, Note_on_c, 0, 75, 0
2, 184380, Note_on_c, 0, 42, 70
2, 184382, Note_on_c, 0, 75, 82
2, 184389, Note_on_c, 0, 44, 0
2, 184529, Note_on_c, 0, 46, 73
2, 184567, Note_on_c, 0, 75, 0
2, 184582, Note_on_c, 0, 42, 0
2, 184679, Note_on_c, 0, 77, 75
2, 184688, Note_on_c, 0, 75, 80
2, 184689, Note_on_c, 0, 44, 72
2, 184711, Note_on_c, 0, 46, 0
2, 184846, Note_on_c, 0, 42, 67
2, 184847, Note_on_c, 0, 78, 0
2, 184863, Note_on_c, 0, 44, 0
2, 185002, Note_on_c, 0, 73, 80
2, 185014, Note_on_c, 0, 44, 69
2, 185041, Note_on_c, 0, 42, 0
2, 185041, Note_on_c, 0, 75, 0
2, 185155, Note_on_c, 0, 72, 87
2, 185161, Note_on_c, 0, 46, 68
2, 185169, Note_on_c, 0, 44, 0
2, 185184, Note_on_c, 0, 73, 0
2, 185318, Note_on_c, 0, 44, 53
2, 185334, Note_on_c, 0, 46, 0
2, 185347, Note_on_c, 0, 73, 74
2, 185350, Note_on_c, 0, 76, 81
2, 185366, Note_on_c, 0, 72, 0
2, 185381, Note_on_c, 0, 77, 0
2, 185509, Note_on_c, 0, 44, 0
2, 185515, Note_on_c, 0, 47, 69
2, 185700, Note_on_c, 0, 46, 67
2, 185711, Note_on_c, 0, 47, 0
2, 185843, Note_on_c, 0, 44, 74
2, 185855, Note_on_c, 0, 46, 0
2, 186009, Note_on_c, 0, 43, 70
2, 186016, Note_on_c, 0, 75, 70
2, 186017, Note_on_c, 0, 44, 0
2, 186047, Note_on_c, 0, 73, 0
2, 186084, Note_on_c, 0, 76, 0
2, 186194, Note_on_c, 0, 73, 65
2, 186216, Note_on_c, 0, 75, 0
2, 186334, Note_on_c, 0, 75, 69
2, 186341, Note_on_c, 0, 51, 70
2, 186448, Note_on_c, 0, 43, 0
2, 186471, Note_on_c, 0, 76, 69
2, 186472, Note_on_c, 0, 75, 0
2, 186482, Control_c, 0, 64, 57
2, 186498, Control_c, 0, 64, 64
2, 186510, Note_on_c, 0, 73, 0
2, 186512, Control_c, 0, 64, 65
2, 186621, Control_c, 0, 64, 64
2, 186636, Control_c, 0, 64, 64
2, 186636, Note_on_c, 0, 75, 73
2, 186638, Note_on_c, 0, 56, 69
2, 186642, Note_on_c, 0, 44, 66
2, 186642, Note_on_c, 0, 71, 66
2, 186652, Control_c, 0, 64, 61
2, 186664, Note_on_c, 0, 76, 0
2, 186667, Control_c, 0, 64, 52
2, 186682, Control_c, 0, 64, 0
2, 186703, Note_on_c, 0, 51, 0
2, 186789, Control_c, 0, 64, 42
2, 186792, Note_on_c, 0, 73, 72
2, 186804, Control_c, 0, 64, 54
2, 186819, Control_c, 0, 64, 59
2, 186833, Note_on_c, 0, 71, 0
2, 186834, Control_c, 0, 64, 63
2, 186850, Note_on_c, 0, 75, 0
2, 186857, Control_c, 0, 64, 65
2, 186871, Note_on_c, 0, 56, 0
2, 186872, Control_c, 0, 64, 67
2, 186888, Control_c, 0, 64, 68
2, 186903, Control_c, 0, 64, 69
2, 186917, Control_c, 0, 64, 70
2, 186933, Control_c, 0, 64, 70
2, 186951, Note_on_c, 0, 56, 80
2, 186951, Note_on_c, 0, 71, 71
2, 186964, Control_c, 0, 64, 68
2, 186979, Control_c, 0, 64, 64
2, 186994, Control_c, 0, 64, 54
2, 187009, Control_c, 0, 64, 0
2, 187054, Control_c, 0, 64, 52
2, 187069, Control_c, 0, 64, 62
2, 187079, Note_on_c, 0, 71, 0
2, 187085, Control_c, 0, 64, 64
2, 187099, Note_on_c, 0, 75, 78
2, 187100, Control_c, 0, 64, 65
2, 187115, Control_c, 0, 64, 67
2, 187128, Note_on_c, 0, 56, 0
2, 187129, Note_on_c, 0, 73, 0
2, 187130, Control_c, 0, 64, 68
2, 187145, Control_c, 0, 64, 69
2, 187160, Control_c, 0, 64, 71
2, 187176, Control_c, 0, 64, 73
2, 187210, Control_c, 0, 64, 72
2, 187225, Control_c, 0, 64, 70
2, 187239, Note_on_c, 0, 46, 71
2, 187240, Control_c, 0, 64, 68
2, 187241, Note_on_c, 0, 73, 71
2, 187246, Note_on_c, 0, 70, 75
2, 187248, Note_on_c, 0, 56, 68
2, 187249, Note_on_c, 0, 44, 0
2, 187257, Control_c, 0, 64, 67
2, 187273, Control_c, 0, 64, 66
2, 187275, Note_on_c, 0, 75, 0
2, 187287, Control_c, 0, 64, 64
2, 187302, Control_c, 0, 64, 58
2, 187318, Control_c, 0, 64, 28
2, 187333, Control_c, 0, 64, 0
2, 187411, Note_on_c, 0, 71, 73
2, 187424, Control_c, 0, 64, 32
2, 187434, Note_on_c, 0, 73, 0
2, 187439, Control_c, 0, 64, 38
2, 187454, Control_c, 0, 64, 39
2, 187470, Control_c, 0, 64, 37
2, 187485, Control_c, 0, 64, 34
2, 187500, Control_c, 0, 64, 33
2, 187516, Control_c, 0, 64, 29
2, 187531, Control_c, 0, 64, 26
2, 187554, Note_on_c, 0, 73, 66
2, 187567, Note_on_c, 0, 54, 69
2, 187570, Note_on_c, 0, 71, 0
2, 187576, Control_c, 0, 64, 28
2, 187592, Control_c, 0, 64, 32
2, 187610, Note_on_c, 0, 56, 0
2, 187630, Control_c, 0, 64, 31
2, 187644, Control_c, 0, 64, 17
2, 187659, Control_c, 0, 64, 0
2, 187718, Note_on_c, 0, 52, 71
2, 187718, Note_on_c, 0, 54, 0
2, 187718, Note_on_c, 0, 75, 80
2, 187753, Note_on_c, 0, 73, 0
2, 187767, Note_on_c, 0, 70, 0
2, 187877, Note_on_c, 0, 73, 60
2, 187883, Note_on_c, 0, 69, 62
2, 187891, Note_on_c, 0, 54, 57
2, 187896, Note_on_c, 0, 51, 63
2, 187925, Note_on_c, 0, 75, 0
2, 187929, Note_on_c, 0, 52, 0
2, 188006, Note_on_c, 0, 46, 0
2, 188064, Note_on_c, 0, 76, 79
2, 188120, Note_on_c, 0, 73, 0
2, 188235, Note_on_c, 0, 75, 87
2, 188271, Note_on_c, 0, 76, 0
2, 188390, Note_on_c, 0, 73, 85
2, 188473, Note_on_c, 0, 75, 0
2, 188579, Note_on_c, 0, 69, 0
2, 188582, Note_on_c, 0, 72, 85
2, 188586, Note_on_c, 0, 44, 54
2, 188610, Note_on_c, 0, 54, 0
2, 188628, Note_on_c, 0, 73, 0
2, 188634, Note_on_c, 0, 51, 0
2, 188745, Note_on_c, 0, 57, 60
2, 188872, Note_on_c, 0, 57, 0
2, 188898, Note_on_c, 0, 63, 75
2, 188908, Note_on_c, 0, 56, 62
2, 189047, Note_on_c, 0, 54, 68
2, 189071, Note_on_c, 0, 56, 0
2, 189184, Note_on_c, 0, 44, 0
2, 189193, Note_on_c, 0, 71, 72
2, 189195, Note_on_c, 0, 68, 76
2, 189200, Note_on_c, 0, 54, 0
2, 189208, Note_on_c, 0, 53, 59
2, 189213, Note_on_c, 0, 63, 0
2, 189218, Note_on_c, 0, 72, 0
2, 189338, Note_on_c, 0, 53, 0
2, 189339, Note_on_c, 0, 51, 63
2, 189403, Note_on_c, 0, 68, 0
2, 189487, Note_on_c, 0, 51, 0
2, 189492, Note_on_c, 0, 68, 84
2, 189505, Note_on_c, 0, 53, 54
2, 189622, Note_on_c, 0, 53, 0
2, 189635, Note_on_c, 0, 49, 67
2, 189791, Note_on_c, 0, 70, 81
2, 189797, Note_on_c, 0, 54, 63
2, 189805, Note_on_c, 0, 49, 0
2, 189811, Note_on_c, 0, 71, 0
2, 189960, Note_on_c, 0, 53, 70
2, 189968, Note_on_c, 0, 54, 0
2, 189977, Note_on_c, 0, 68, 0
2, 190108, Note_on_c, 0, 66, 79
2, 190115, Note_on_c, 0, 54, 64
2, 190121, Note_on_c, 0, 53, 0
2, 190265, Note_on_c, 0, 65, 79
2, 190271, Note_on_c, 0, 56, 73
2, 190294, Note_on_c, 0, 66, 0
2, 190303, Note_on_c, 0, 54, 0
2, 190305, Note_on_c, 0, 70, 0
2, 190425, Note_on_c, 0, 69, 78
2, 190433, Note_on_c, 0, 56, 0
2, 190436, Note_on_c, 0, 66, 75
2, 190442, Note_on_c, 0, 57, 81
2, 190471, Note_on_c, 0, 65, 0
2, 190595, Note_on_c, 0, 57, 0
2, 190601, Note_on_c, 0, 56, 74
2, 190768, Note_on_c, 0, 57, 85
2, 190786, Note_on_c, 0, 56, 0
2, 190882, Control_c, 0, 64, 44
2, 190897, Control_c, 0, 64, 62
2, 190913, Control_c, 0, 64, 66
2, 190927, Control_c, 0, 64, 73
2, 190930, Note_on_c, 0, 59, 82
2, 190931, Note_on_c, 0, 57, 0
2, 190942, Control_c, 0, 64, 88
2, 190958, Control_c, 0, 64, 127
2, 190976, Note_on_c, 0, 59, 0
2, 191139, Note_on_c, 0, 37, 96
2, 191141, Note_on_c, 0, 61, 75
2, 191145, Note_on_c, 0, 69, 0
2, 191146, Note_on_c, 0, 68, 74
2, 191156, Control_c, 0, 64, 103
2, 191171, Control_c, 0, 64, 88
2, 191186, Control_c, 0, 64, 76
2, 191201, Control_c, 0, 64, 65
2, 191216, Control_c, 0, 64, 0
2, 191317, Note_on_c, 0, 60, 67
2, 191320, Note_on_c, 0, 61, 0
2, 191483, Note_on_c, 0, 61, 64
2, 191507, Note_on_c, 0, 60, 0
2, 191623, Note_on_c, 0, 63, 73
2, 191651, Note_on_c, 0, 61, 0
2, 191715, Note_on_c, 0, 66, 0
2, 191783, Note_on_c, 0, 63, 0
2, 191792, Note_on_c, 0, 64, 68
2, 191938, Note_on_c, 0, 64, 0
2, 191942, Note_on_c, 0, 63, 69
2, 192097, Note_on_c, 0, 64, 67
2, 192104, Note_on_c, 0, 63, 0
2, 192151, Control_c, 0, 64, 58
2, 192167, Control_c, 0, 64, 64
2, 192182, Control_c, 0, 64, 67
2, 192197, Control_c, 0, 64, 72
2, 192212, Control_c, 0, 64, 80
2, 192234, Control_c, 0, 64, 86
2, 192240, Note_on_c, 0, 64, 0
2, 192242, Note_on_c, 0, 66, 68
2, 192249, Note_on_c, 0, 68, 0
2, 192250, Control_c, 0, 64, 88
2, 192326, Control_c, 0, 64, 87
2, 192341, Control_c, 0, 64, 85
2, 192357, Control_c, 0, 64, 81
2, 192371, Control_c, 0, 64, 76
2, 192380, Note_on_c, 0, 37, 0
2, 192386, Control_c, 0, 64, 71
2, 192389, Note_on_c, 0, 36, 88
2, 192397, Note_on_c, 0, 68, 67
2, 192402, Control_c, 0, 64, 67
2, 192411, Note_on_c, 0, 63, 61
2, 192414, Note_on_c, 0, 66, 0
2, 192417, Control_c, 0, 64, 62
2, 192432, Control_c, 0, 64, 31
2, 192448, Control_c, 0, 64, 0
2, 192573, Note_on_c, 0, 66, 64
2, 192585, Note_on_c, 0, 68, 0
2, 192711, Note_on_c, 0, 44, 74
2, 192712, Note_on_c, 0, 68, 51
2, 192741, Note_on_c, 0, 66, 0
2, 192861, Note_on_c, 0, 69, 62
2, 192871, Note_on_c, 0, 63, 0
2, 192899, Note_on_c, 0, 68, 0
2, 192968, Note_on_c, 0, 36, 0
2, 193020, Note_on_c, 0, 49, 75
2, 193023, Note_on_c, 0, 68, 71
2, 193024, Note_on_c, 0, 40, 84
2, 193041, Note_on_c, 0, 61, 62
2, 193041, Note_on_c, 0, 69, 0
2, 193045, Note_on_c, 0, 44, 0
2, 193210, Note_on_c, 0, 66, 60
2, 193262, Note_on_c, 0, 49, 0
2, 193286, Note_on_c, 0, 68, 0
2, 193362, Note_on_c, 0, 49, 71
2, 193371, Note_on_c, 0, 64, 70
2, 193383, Note_on_c, 0, 66, 0
2, 193428, Control_c, 0, 64, 49
2, 193444, Control_c, 0, 64, 61
2, 193458, Control_c, 0, 64, 64
2, 193473, Control_c, 0, 64, 65
2, 193489, Control_c, 0, 64, 66
2, 193528, Note_on_c, 0, 68, 74
2, 193536, Note_on_c, 0, 61, 0
2, 193555, Note_on_c, 0, 64, 0
2, 193565, Control_c, 0, 64, 66
2, 193568, Note_on_c, 0, 49, 0
2, 193579, Control_c, 0, 64, 66
2, 193594, Control_c, 0, 64, 65
2, 193610, Control_c, 0, 64, 64
2, 193625, Control_c, 0, 64, 64
2, 193641, Control_c, 0, 64, 63
2, 193655, Control_c, 0, 64, 61
2, 193669, Note_on_c, 0, 49, 66
2, 193670, Control_c, 0, 64, 59
2, 193680, Note_on_c, 0, 39, 79
2, 193682, Note_on_c, 0, 66, 74
2, 193685, Note_on_c, 0, 63, 70
2, 193686, Control_c, 0, 64, 53
2, 193691, Note_on_c, 0, 40, 0
2, 193701, Control_c, 0, 64, 33
2, 193717, Control_c, 0, 64, 0
2, 193720, Note_on_c, 0, 68, 0
2, 193839, Note_on_c, 0, 64, 70
2, 193854, Note_on_c, 0, 66, 0
2, 193998, Note_on_c, 0, 66, 67
2, 194001, Note_on_c, 0, 48, 58
2, 194047, Note_on_c, 0, 64, 0
2, 194155, Note_on_c, 0, 46, 68
2, 194161, Note_on_c, 0, 68, 73
2, 194177, Note_on_c, 0, 49, 0
2, 194178, Note_on_c, 0, 48, 0
2, 194212, Note_on_c, 0, 66, 0
2, 194243, Note_on_c, 0, 63, 0
2, 194312, Note_on_c, 0, 48, 67
2, 194315, Note_on_c, 0, 66, 76
2, 194332, Note_on_c, 0, 46, 0
2, 194368, Note_on_c, 0, 68, 0
2, 194464, Note_on_c, 0, 64, 75
2, 194506, Note_on_c, 0, 66, 0
2, 194621, Note_on_c, 0, 63, 80
2, 194629, Control_c, 0, 64, 29
2, 194645, Control_c, 0, 64, 61
2, 194656, Note_on_c, 0, 64, 0
2, 194659, Control_c, 0, 64, 66
2, 194674, Control_c, 0, 64, 72
2, 194690, Control_c, 0, 64, 107
2, 194692, Note_on_c, 0, 48, 0
2, 194705, Control_c, 0, 64, 127
2, 194722, Note_on_c, 0, 39, 0
2, 194773, Note_on_c, 0, 66, 79
2, 194799, Note_on_c, 0, 63, 0
2, 194832, Note_on_c, 0, 66, 0
2, 194919, Control_c, 0, 64, 99
2, 194933, Control_c, 0, 64, 84
2, 194945, Note_on_c, 0, 73, 89
2, 194948, Control_c, 0, 64, 73
2, 194948, Note_on_c, 0, 49, 74
2, 194948, Note_on_c, 0, 64, 82
2, 194952, Note_on_c, 0, 37, 69
2, 194964, Control_c, 0, 64, 65
2, 194979, Control_c, 0, 64, 37
2, 194994, Control_c, 0, 64, 0
2, 195101, Note_on_c, 0, 63, 73
2, 195126, Note_on_c, 0, 64, 0
2, 195140, Note_on_c, 0, 37, 0
2, 195254, Note_on_c, 0, 37, 72
2, 195257, Note_on_c, 0, 64, 71
2, 195266, Note_on_c, 0, 63, 0
2, 195422, Note_on_c, 0, 66, 72
2, 195427, Note_on_c, 0, 39, 72
2, 195444, Note_on_c, 0, 37, 0
2, 195451, Note_on_c, 0, 64, 0
2, 195561, Note_on_c, 0, 64, 71
2, 195576, Note_on_c, 0, 40, 75
2, 195587, Note_on_c, 0, 39, 0
2, 195630, Note_on_c, 0, 66, 0
2, 195712, Note_on_c, 0, 40, 0
2, 195726, Note_on_c, 0, 63, 76
2, 195727, Note_on_c, 0, 64, 0
2, 195851, Note_on_c, 0, 42, 75
2, 195863, Note_on_c, 0, 61, 82
2, 195879, Note_on_c, 0, 63, 0
2, 195967, Note_on_c, 0, 42, 0
2, 195990, Control_c, 0, 64, 45
2, 196002, Note_on_c, 0, 64, 72
2, 196006, Control_c, 0, 64, 54
2, 196021, Control_c, 0, 64, 55
2, 196030, Note_on_c, 0, 73, 0
2, 196035, Control_c, 0, 64, 54
2, 196046, Note_on_c, 0, 61, 0
2, 196051, Control_c, 0, 64, 53
2, 196073, Control_c, 0, 64, 52
2, 196089, Control_c, 0, 64, 50
2, 196104, Control_c, 0, 64, 46
2, 196120, Control_c, 0, 64, 41
2, 196135, Control_c, 0, 64, 28
2, 196150, Control_c, 0, 64, 0
2, 196163, Note_on_c, 0, 72, 80
2, 196165, Note_on_c, 0, 64, 0
2, 196172, Note_on_c, 0, 63, 76
2, 196179, Note_on_c, 0, 44, 66
2, 196216, Note_on_c, 0, 49, 0
2, 196319, Note_on_c, 0, 42, 68
2, 196345, Note_on_c, 0, 44, 0
2, 196463, Note_on_c, 0, 68, 78
2, 196466, Note_on_c, 0, 44, 68
2, 196488, Note_on_c, 0, 63, 0
2, 196510, Note_on_c, 0, 42, 0
2, 196540, Note_on_c, 0, 72, 0
2, 196544, Control_c, 0, 64, 44
2, 196558, Control_c, 0, 64, 56
2, 196574, Control_c, 0, 64, 60
2, 196607, Note_on_c, 0, 45, 74
2, 196610, Note_on_c, 0, 44, 0
2, 196650, Control_c, 0, 64, 59
2, 196665, Control_c, 0, 64, 58
2, 196680, Control_c, 0, 64, 57
2, 196695, Control_c, 0, 64, 54
2, 196710, Control_c, 0, 64, 49
2, 196726, Control_c, 0, 64, 37
2, 196741, Control_c, 0, 64, 0
2, 196749, Note_on_c, 0, 76, 81
2, 196756, Note_on_c, 0, 44, 66
2, 196758, Note_on_c, 0, 73, 75
2, 196775, Note_on_c, 0, 68, 0
2, 196800, Note_on_c, 0, 45, 0
2, 196885, Control_c, 0, 64, 37
2, 196900, Control_c, 0, 64, 47
2, 196915, Control_c, 0, 64, 51
2, 196924, Note_on_c, 0, 42, 74
2, 196931, Control_c, 0, 64, 60
2, 196942, Note_on_c, 0, 44, 0
2, 196946, Control_c, 0, 64, 63
2, 196961, Control_c, 0, 64, 64
2, 197028, Note_on_c, 0, 73, 0
2, 197038, Control_c, 0, 64, 64
2, 197054, Control_c, 0, 64, 61
2, 197068, Control_c, 0, 64, 45
2, 197080, Note_on_c, 0, 40, 64
2, 197080, Note_on_c, 0, 73, 78
2, 197082, Note_on_c, 0, 42, 0
2, 197084, Control_c, 0, 64, 0
2, 197206, Control_c, 0, 64, 38
2, 197221, Control_c, 0, 64, 54
2, 197234, Note_on_c, 0, 40, 0
2, 197236, Control_c, 0, 64, 58
2, 197236, Note_on_c, 0, 44, 75
2, 197252, Control_c, 0, 64, 57
2, 197281, Control_c, 0, 64, 57
2, 197282, Note_on_c, 0, 73, 0
2, 197297, Control_c, 0, 64, 56
2, 197312, Control_c, 0, 64, 54
2, 197327, Control_c, 0, 64, 52
2, 197342, Control_c, 0, 64, 51
2, 197357, Control_c, 0, 64, 50
2, 197373, Control_c, 0, 64, 45
2, 197377, Note_on_c, 0, 73, 84
2, 197379, Note_on_c, 0, 75, 86
2, 197388, Control_c, 0, 64, 34
2, 197390, Note_on_c, 0, 42, 71
2, 197394, Note_on_c, 0, 44, 0
2, 197402, Control_c, 0, 64, 0
2, 197413, Note_on_c, 0, 76, 0
2, 197539, Note_on_c, 0, 40, 57
2, 197560, Note_on_c, 0, 42, 0
2, 197674, Note_on_c, 0, 73, 0
2, 197698, Note_on_c, 0, 72, 75
2, 197707, Note_on_c, 0, 42, 66
2, 197727, Note_on_c, 0, 40, 0
2, 197859, Note_on_c, 0, 44, 63
2, 197859, Note_on_c, 0, 70, 75
2, 197865, Note_on_c, 0, 72, 0
2, 197877, Note_on_c, 0, 42, 0
2, 198010, Note_on_c, 0, 42, 54
2, 198014, Note_on_c, 0, 72, 77
2, 198031, Note_on_c, 0, 70, 0
2, 198044, Note_on_c, 0, 44, 0
2, 198146, Note_on_c, 0, 42, 0
2, 198155, Note_on_c, 0, 40, 62
2, 198160, Note_on_c, 0, 73, 82
2, 198194, Note_on_c, 0, 75, 0
2, 198200, Note_on_c, 0, 72, 0
2, 198337, Note_on_c, 0, 75, 92
2, 198340, Note_on_c, 0, 40, 0
2, 198344, Note_on_c, 0, 39, 62
2, 198372, Note_on_c, 0, 73, 0
2, 198507, Note_on_c, 0, 42, 63
2, 198510, Note_on_c, 0, 72, 60
2, 198569, Note_on_c, 0, 39, 0
2, 198674, Note_on_c, 0, 68, 67
2, 198681, Note_on_c, 0, 40, 71
2, 198694, Note_on_c, 0, 42, 0
2, 198694, Note_on_c, 0, 72, 0
2, 198847, Note_on_c, 0, 66, 69
2, 198853, Note_on_c, 0, 68, 0
2, 198966, Note_on_c, 0, 40, 0
2, 198972, Note_on_c, 0, 52, 84
2, 198990, Note_on_c, 0, 68, 65
2, 198993, Note_on_c, 0, 66, 0
2, 199142, Note_on_c, 0, 68, 0
2, 199146, Control_c, 0, 64, 43
2, 199149, Note_on_c, 0, 69, 68
2, 199159, Note_on_c, 0, 75, 0
2, 199162, Control_c, 0, 64, 56
2, 199177, Control_c, 0, 64, 56
2, 199192, Control_c, 0, 64, 55
2, 199238, Control_c, 0, 64, 55
2, 199253, Control_c, 0, 64, 53
2, 199268, Control_c, 0, 64, 48
2, 199284, Control_c, 0, 64, 33
2, 199298, Control_c, 0, 64, 0
2, 199307, Note_on_c, 0, 57, 82
2, 199312, Note_on_c, 0, 73, 75
2, 199318, Note_on_c, 0, 52, 0
2, 199321, Note_on_c, 0, 68, 73
2, 199340, Note_on_c, 0, 69, 0
2, 199450, Control_c, 0, 64, 35
2, 199465, Control_c, 0, 64, 60
2, 199480, Control_c, 0, 64, 64
2, 199489, Note_on_c, 0, 66, 68
2, 199497, Control_c, 0, 64, 65
2, 199512, Control_c, 0, 64, 65
2, 199547, Note_on_c, 0, 57, 0
2, 199564, Note_on_c, 0, 68, 0
2, 199572, Control_c, 0, 64, 65
2, 199587, Control_c, 0, 64, 64
2, 199603, Control_c, 0, 64, 63
2, 199618, Control_c, 0, 64, 53
2, 199633, Control_c, 0, 64, 0
2, 199633, Note_on_c, 0, 57, 87
2, 199645, Note_on_c, 0, 64, 69
2, 199660, Note_on_c, 0, 66, 0
2, 199739, Control_c, 0, 64, 22
2, 199754, Control_c, 0, 64, 54
2, 199770, Control_c, 0, 64, 64
2, 199785, Control_c, 0, 64, 66
2, 199794, Note_on_c, 0, 68, 67
2, 199801, Control_c, 0, 64, 68
2, 199816, Control_c, 0, 64, 70
2, 199828, Note_on_c, 0, 64, 0
2, 199831, Control_c, 0, 64, 71
2, 199831, Note_on_c, 0, 57, 0
2, 199846, Control_c, 0, 64, 70
2, 199892, Control_c, 0, 64, 69
2, 199913, Control_c, 0, 64, 68
2, 199929, Control_c, 0, 64, 65
2, 199938, Note_on_c, 0, 57, 88
2, 199939, Note_on_c, 0, 66, 74
2, 199944, Control_c, 0, 64, 55
2, 199960, Control_c, 0, 64, 0
2, 200012, Note_on_c, 0, 68, 0
2, 200066, Control_c, 0, 64, 42
2, 200082, Control_c, 0, 64, 52
2, 200097, Control_c, 0, 64, 56
2, 200097, Note_on_c, 0, 64, 71
2, 200100, Note_on_c, 0, 66, 0
2, 200111, Control_c, 0, 64, 58
2, 200127, Control_c, 0, 64, 59
2, 200142, Control_c, 0, 64, 58
2, 200242, Note_on_c, 0, 56, 76
2, 200249, Note_on_c, 0, 66, 73
2, 200263, Control_c, 0, 64, 56
2, 200270, Note_on_c, 0, 57, 0
2, 200279, Control_c, 0, 64, 50
2, 200294, Control_c, 0, 64, 42
2, 200309, Control_c, 0, 64, 31
2, 200320, Note_on_c, 0, 73, 0
2, 200326, Control_c, 0, 64, 20
2, 200339, Note_on_c, 0, 64, 0
2, 200341, Control_c, 0, 64, 0
2, 200378, Note_on_c, 0, 68, 74
2, 200390, Note_on_c, 0, 54, 81
2, 200397, Note_on_c, 0, 56, 0
2, 200411, Note_on_c, 0, 66, 0
2, 200540, Note_on_c, 0, 54, 0
2, 200541, Note_on_c, 0, 72, 77
2, 200542, Note_on_c, 0, 66, 74
2, 200552, Note_on_c, 0, 56, 75
2, 200572, Note_on_c, 0, 68, 0
2, 200687, Note_on_c, 0, 66, 0
2, 200707, Note_on_c, 0, 64, 68
2, 200859, Note_on_c, 0, 63, 66
2, 200861, Note_on_c, 0, 44, 72
2, 200893, Note_on_c, 0, 64, 0
2, 200964, Note_on_c, 0, 56, 0
2, 201016, Note_on_c, 0, 66, 68
2, 201021, Note_on_c, 0, 63, 0
2, 201031, Control_c, 0, 64, 32
2, 201047, Control_c, 0, 64, 47
2, 201062, Control_c, 0, 64, 47
2, 201078, Control_c, 0, 64, 54
2, 201093, Control_c, 0, 64, 58
2, 201107, Control_c, 0, 64, 59
2, 201154, Control_c, 0, 64, 60
2, 201170, Control_c, 0, 64, 61
2, 201176, Note_on_c, 0, 66, 0
2, 201184, Control_c, 0, 64, 61
2, 201208, Note_on_c, 0, 49, 90
2, 201210, Note_on_c, 0, 44, 0
2, 201210, Note_on_c, 0, 64, 64
2, 201215, Control_c, 0, 64, 59
2, 201230, Control_c, 0, 64, 43
2, 201246, Control_c, 0, 64, 0
2, 201367, Control_c, 0, 64, 33
2, 201373, Note_on_c, 0, 64, 0
2, 201382, Control_c, 0, 64, 62
2, 201386, Note_on_c, 0, 68, 65
2, 201387, Note_on_c, 0, 72, 0
2, 201397, Control_c, 0, 64, 64
2, 201412, Control_c, 0, 64, 65
2, 201427, Control_c, 0, 64, 66
2, 201451, Control_c, 0, 64, 67
2, 201466, Control_c, 0, 64, 67
2, 201496, Control_c, 0, 64, 67
2, 201524, Note_on_c, 0, 68, 0
2, 201527, Control_c, 0, 64, 66
2, 201542, Control_c, 0, 64, 65
2, 201543, Note_on_c, 0, 73, 70
2, 201549, Note_on_c, 0, 69, 63
2, 201557, Control_c, 0, 64, 63
2, 201560, Note_on_c, 0, 47, 65
2, 201572, Control_c, 0, 64, 52
2, 201587, Control_c, 0, 64, 0
2, 201702, Note_on_c, 0, 75, 73
2, 201705, Note_on_c, 0, 69, 0
2, 201707, Note_on_c, 0, 71, 54
2, 201714, Note_on_c, 0, 73, 0
2, 201724, Control_c, 0, 64, 44
2, 201739, Control_c, 0, 64, 60
2, 201754, Control_c, 0, 64, 64
2, 201770, Control_c, 0, 64, 64
2, 201785, Control_c, 0, 64, 65
2, 201846, Control_c, 0, 64, 64
2, 201855, Note_on_c, 0, 76, 73
2, 201861, Control_c, 0, 64, 57
2, 201864, Note_on_c, 0, 45, 73
2, 201869, Note_on_c, 0, 73, 65
2, 201871, Note_on_c, 0, 71, 0
2, 201872, Note_on_c, 0, 47, 0
2, 201875, Control_c, 0, 64, 0
2, 201880, Note_on_c, 0, 75, 0
2, 201995, Note_on_c, 0, 76, 0
2, 202002, Note_on_c, 0, 75, 73
2, 202022, Note_on_c, 0, 73, 0
2, 202027, Control_c, 0, 64, 17
2, 202043, Control_c, 0, 64, 49
2, 202058, Control_c, 0, 64, 63
2, 202073, Control_c, 0, 64, 64
2, 202089, Control_c, 0, 64, 64
2, 202103, Control_c, 0, 64, 65
2, 202119, Control_c, 0, 64, 65
2, 202134, Control_c, 0, 64, 67
2, 202142, Note_on_c, 0, 45, 0
2, 202149, Control_c, 0, 64, 70
2, 202165, Control_c, 0, 64, 79
2, 202165, Note_on_c, 0, 75, 0
2, 202168, Note_on_c, 0, 72, 73
2, 202172, Note_on_c, 0, 78, 72
2, 202179, Control_c, 0, 64, 91
2, 202186, Note_on_c, 0, 49, 0
2, 202194, Control_c, 0, 64, 100
2, 202218, Control_c, 0, 64, 101
2, 202233, Control_c, 0, 64, 101
2, 202279, Note_on_c, 0, 72, 0
2, 202321, Note_on_c, 0, 73, 66
2, 202323, Note_on_c, 0, 78, 0
2, 202324, Control_c, 0, 64, 101
2, 202354, Control_c, 0, 64, 98
2, 202369, Control_c, 0, 64, 93
2, 202384, Control_c, 0, 64, 85
2, 202400, Control_c, 0, 64, 79
2, 202415, Control_c, 0, 64, 74
2, 202430, Control_c, 0, 64, 70
2, 202446, Control_c, 0, 64, 66
2, 202453, Note_on_c, 0, 73, 0
2, 202460, Control_c, 0, 64, 56
2, 202475, Control_c, 0, 64, 0
2, 202478, Note_on_c, 0, 48, 55
2, 202485, Note_on_c, 0, 75, 68
2, 202486, Note_on_c, 0, 80, 60
2, 202489, Note_on_c, 0, 44, 49
2, 202628, Control_c, 0, 64, 54
2, 202643, Control_c, 0, 64, 63
2, 202657, Note_on_c, 0, 78, 65
2, 202658, Control_c, 0, 64, 64
2, 202673, Control_c, 0, 64, 66
2, 202689, Control_c, 0, 64, 67
2, 202701, Note_on_c, 0, 75, 0
2, 202704, Control_c, 0, 64, 70
2, 202713, Note_on_c, 0, 80, 0
2, 202719, Control_c, 0, 64, 75
2, 202734, Control_c, 0, 64, 81
2, 202749, Control_c, 0, 64, 83
2, 202788, Note_on_c, 0, 48, 0
2, 202797, Control_c, 0, 64, 84
2, 202803, Note_on_c, 0, 56, 66
2, 202803, Note_on_c, 0, 80, 65
2, 202807, Note_on_c, 0, 44, 0
2, 202812, Control_c, 0, 64, 84
2, 202826, Control_c, 0, 64, 85
2, 202871, Control_c, 0, 64, 84
2, 202887, Control_c, 0, 64, 84
2, 202887, Control_c, 0, 67, 17
2, 202887, Note_on_c, 0, 78, 0
2, 202902, Control_c, 0, 64, 83
2, 202902, Control_c, 0, 67, 24
2, 202918, Control_c, 0, 64, 82
2, 202918, Control_c, 0, 67, 31
2, 202933, Control_c, 0, 67, 38
2, 202945, Note_on_c, 0, 81, 63
2, 202947, Control_c, 0, 64, 82
2, 202947, Control_c, 0, 67, 49
2, 202962, Note_on_c, 0, 80, 0
2, 202963, Control_c, 0, 64, 81
2, 202963, Control_c, 0, 67, 65
2, 202986, Control_c, 0, 64, 81
2, 202986, Control_c, 0, 67, 80
2, 203001, Control_c, 0, 64, 78
2, 203001, Control_c, 0, 67, 93
2, 203016, Control_c, 0, 64, 75
2, 203016, Control_c, 0, 67, 104
2, 203031, Control_c, 0, 64, 72
2, 203031, Control_c, 0, 67, 110
2, 203047, Control_c, 0, 64, 70
2, 203047, Control_c, 0, 67, 116
2, 203062, Control_c, 0, 64, 68
2, 203062, Control_c, 0, 67, 123
2, 203078, Control_c, 0, 64, 67
2, 203078, Control_c, 0, 67, 127
2, 203092, Control_c, 0, 64, 66
2, 203107, Control_c, 0, 64, 64
2, 203114, Note_on_c, 0, 81, 0
2, 203123, Control_c, 0, 64, 63
2, 203124, Note_on_c, 0, 80, 60
2, 203138, Control_c, 0, 64, 58
2, 203142, Note_on_c, 0, 61, 59
2, 203144, Note_on_c, 0, 52, 50
2, 203153, Control_c, 0, 64, 49
2, 203168, Control_c, 0, 64, 33
2, 203174, Note_on_c, 0, 56, 0
2, 203183, Control_c, 0, 64, 0
2, 203296, Note_on_c, 0, 78, 62
2, 203335, Note_on_c, 0, 80, 0
2, 203350, Control_c, 0, 64, 37
2, 203366, Control_c, 0, 64, 50
2, 203375, Note_on_c, 0, 61, 0
2, 203381, Control_c, 0, 64, 58
2, 203397, Control_c, 0, 64, 62
2, 203411, Control_c, 0, 64, 63
2, 203426, Control_c, 0, 64, 64
2, 203439, Note_on_c, 0, 78, 0
2, 203442, Note_on_c, 0, 61, 58
2, 203452, Note_on_c, 0, 76, 57
2, 203518, Control_c, 0, 64, 63
2, 203533, Control_c, 0, 64, 63
2, 203563, Control_c, 0, 64, 62
2, 203586, Note_on_c, 0, 76, 0
2, 203607, Note_on_c, 0, 80, 58
2, 203610, Control_c, 0, 64, 61
2, 203619, Note_on_c, 0, 61, 0
2, 203625, Control_c, 0, 64, 60
2, 203640, Control_c, 0, 64, 58
2, 203655, Control_c, 0, 64, 58
2, 203670, Control_c, 0, 64, 57
2, 203686, Control_c, 0, 64, 56
2, 203701, Control_c, 0, 64, 54
2, 203715, Control_c, 0, 64, 53
2, 203731, Control_c, 0, 64, 53
2, 203750, Note_on_c, 0, 61, 53
2, 203753, Control_c, 0, 64, 52
2, 203755, Note_on_c, 0, 52, 0
2, 203763, Note_on_c, 0, 51, 57
2, 203767, Note_on_c, 0, 78, 57
2, 203769, Control_c, 0, 64, 49
2, 203781, Note_on_c, 0, 80, 0
2, 203784, Control_c, 0, 64, 44
2, 203800, Control_c, 0, 64, 37
2, 203815, Control_c, 0, 64, 34
2, 203830, Control_c, 0, 64, 33
2, 203845, Control_c, 0, 64, 31
2, 203860, Control_c, 0, 64, 28
2, 203875, Control_c, 0, 64, 22
2, 203891, Control_c, 0, 64, 20
2, 203913, Note_on_c, 0, 76, 60
2, 203914, Note_on_c, 0, 78, 0
2, 203936, Control_c, 0, 64, 0
2, 204065, Note_on_c, 0, 78, 57
2, 204074, Note_on_c, 0, 60, 56
2, 204074, Note_on_c, 0, 76, 0
2, 204084, Note_on_c, 0, 61, 0
2, 204215, Note_on_c, 0, 80, 58
2, 204221, Note_on_c, 0, 78, 0
2, 204229, Note_on_c, 0, 60, 0
2, 204235, Note_on_c, 0, 58, 59
2, 204383, Note_on_c, 0, 78, 61
2, 204395, Note_on_c, 0, 60, 49
2, 204399, Note_on_c, 0, 80, 0
2, 204415, Note_on_c, 0, 58, 0
2, 204541, Note_on_c, 0, 76, 54
2, 204544, Note_on_c, 0, 78, 0
2, 204552, Control_c, 0, 64, 47
2, 204567, Control_c, 0, 64, 59
2, 204582, Control_c, 0, 64, 63
2, 204598, Control_c, 0, 64, 65
2, 204613, Control_c, 0, 64, 67
2, 204628, Control_c, 0, 64, 68
2, 204644, Control_c, 0, 64, 69
2, 204659, Control_c, 0, 64, 71
2, 204662, Note_on_c, 0, 60, 0
2, 204668, Note_on_c, 0, 51, 0
2, 204670, Note_on_c, 0, 76, 0
2, 204674, Control_c, 0, 64, 71
2, 204702, Note_on_c, 0, 75, 63
2, 204765, Control_c, 0, 64, 71
2, 204795, Control_c, 0, 64, 70
2, 204811, Control_c, 0, 64, 70
2, 204825, Control_c, 0, 64, 69
2, 204841, Control_c, 0, 64, 69
2, 204855, Note_on_c, 0, 75, 0
2, 204856, Control_c, 0, 64, 68
2, 204859, Note_on_c, 0, 78, 54
2, 204871, Control_c, 0, 64, 67
2, 204887, Control_c, 0, 64, 67
2, 204901, Control_c, 0, 64, 66
2, 204916, Control_c, 0, 64, 65
2, 204932, Control_c, 0, 64, 64
2, 204947, Control_c, 0, 64, 64
2, 204963, Control_c, 0, 64, 62
2, 204977, Control_c, 0, 64, 57
2, 204986, Note_on_c, 0, 49, 41
2, 204992, Control_c, 0, 64, 40
2, 205001, Note_on_c, 0, 76, 54
2, 205006, Note_on_c, 0, 61, 35
2, 205008, Control_c, 0, 64, 0
2, 205024, Note_on_c, 0, 78, 0
2, 205144, Control_c, 0, 64, 32
2, 205160, Control_c, 0, 64, 50
2, 205164, Note_on_c, 0, 76, 0
2, 205172, Note_on_c, 0, 75, 66
2, 205174, Control_c, 0, 64, 58
2, 205189, Control_c, 0, 64, 61
2, 205205, Control_c, 0, 64, 63
2, 205220, Control_c, 0, 64, 63
2, 205236, Control_c, 0, 64, 64
2, 205251, Control_c, 0, 64, 65
2, 205308, Note_on_c, 0, 49, 0
2, 205318, Note_on_c, 0, 76, 55
2, 205325, Note_on_c, 0, 52, 51
2, 205334, Control_c, 0, 64, 64
2, 205365, Control_c, 0, 64, 64
2, 205380, Control_c, 0, 64, 63
2, 205395, Control_c, 0, 64, 61
2, 205411, Control_c, 0, 64, 55
2, 205426, Control_c, 0, 64, 42
2, 205431, Note_on_c, 0, 75, 0
2, 205442, Control_c, 0, 64, 35
2, 205457, Control_c, 0, 64, 42
2, 205463, Note_on_c, 0, 76, 0
2, 205468, Note_on_c, 0, 78, 61
2, 205471, Control_c, 0, 64, 53
2, 205487, Control_c, 0, 64, 60
2, 205502, Control_c, 0, 64, 63
2, 205518, Control_c, 0, 64, 64
2, 205533, Control_c, 0, 64, 65
2, 205547, Control_c, 0, 64, 65
2, 205578, Control_c, 0, 64, 66
2, 205617, Note_on_c, 0, 52, 0
2, 205619, Note_on_c, 0, 57, 60
2, 205619, Note_on_c, 0, 76, 53
2, 205623, Control_c, 0, 64, 65
2, 205628, Note_on_c, 0, 78, 0
2, 205639, Control_c, 0, 64, 63
2, 205654, Control_c, 0, 64, 57
2, 205668, Control_c, 0, 64, 0
2, 205744, Control_c, 0, 64, 37
2, 205760, Control_c, 0, 64, 56
2, 205769, Note_on_c, 0, 74, 63
2, 205775, Control_c, 0, 64, 62
2, 205782, Note_on_c, 0, 76, 0
2, 205790, Control_c, 0, 64, 64
2, 205806, Control_c, 0, 64, 67
2, 205821, Control_c, 0, 64, 73
2, 205835, Note_on_c, 0, 57, 0
2, 205836, Control_c, 0, 64, 85
2, 205852, Control_c, 0, 64, 106
2, 205866, Control_c, 0, 64, 122
2, 205882, Control_c, 0, 67, 125
2, 205897, Control_c, 0, 67, 121
2, 205897, Note_on_c, 0, 74, 0
2, 205912, Control_c, 0, 67, 116
2, 205914, Note_on_c, 0, 73, 67
2, 205916, Note_on_c, 0, 57, 65
2, 205928, Control_c, 0, 64, 119
2, 205928, Control_c, 0, 67, 111
2, 205943, Control_c, 0, 64, 98
2, 205943, Control_c, 0, 67, 106
2, 205959, Control_c, 0, 64, 76
2, 205959, Control_c, 0, 67, 103
2, 205973, Control_c, 0, 64, 65
2, 205973, Control_c, 0, 67, 101
2, 205988, Control_c, 0, 64, 20
2, 205988, Control_c, 0, 67, 98
2, 206004, Control_c, 0, 64, 0
2, 206004, Control_c, 0, 67, 94
2, 206019, Control_c, 0, 67, 85
2, 206034, Control_c, 0, 64, 29
2, 206034, Control_c, 0, 67, 73
2, 206058, Control_c, 0, 64, 53
2, 206058, Control_c, 0, 67, 63
2, 206073, Control_c, 0, 64, 60
2, 206073, Control_c, 0, 67, 58
2, 206089, Control_c, 0, 64, 63
2, 206089, Control_c, 0, 67, 56
2, 206089, Note_on_c, 0, 76, 67
2, 206098, Note_on_c, 0, 73, 0
2, 206103, Control_c, 0, 64, 65
2, 206103, Control_c, 0, 67, 55
2, 206105, Note_on_c, 0, 57, 0
2, 206119, Control_c, 0, 64, 68
2, 206119, Control_c, 0, 67, 54
2, 206125, Note_on_c, 0, 61, 0
2, 206134, Control_c, 0, 64, 74
2, 206134, Control_c, 0, 67, 52
2, 206149, Control_c, 0, 64, 87
2, 206149, Control_c, 0, 67, 51
2, 206165, Control_c, 0, 64, 119
2, 206165, Control_c, 0, 67, 50
2, 206179, Control_c, 0, 64, 127
2, 206179, Control_c, 0, 67, 49
2, 206194, Control_c, 0, 67, 47
2, 206210, Control_c, 0, 67, 44
2, 206225, Control_c, 0, 64, 106
2, 206225, Control_c, 0, 67, 40
2, 206232, Note_on_c, 0, 74, 72
2, 206241, Control_c, 0, 64, 86
2, 206241, Control_c, 0, 67, 36
2, 206241, Note_on_c, 0, 59, 64
2, 206241, Note_on_c, 0, 76, 0
2, 206247, Note_on_c, 0, 57, 57
2, 206255, Control_c, 0, 64, 71
2, 206255, Control_c, 0, 67, 34
2, 206270, Control_c, 0, 64, 60
2, 206270, Control_c, 0, 67, 33
2, 206286, Control_c, 0, 64, 0
2, 206286, Control_c, 0, 67, 31
2, 206301, Control_c, 0, 67, 30
2, 206315, Control_c, 0, 64, 49
2, 206315, Control_c, 0, 67, 28
2, 206331, Control_c, 0, 64, 59
2, 206331, Control_c, 0, 67, 28
2, 206346, Control_c, 0, 64, 62
2, 206362, Control_c, 0, 64, 64
2, 206376, Note_on_c, 0, 74, 0
2, 206377, Control_c, 0, 64, 65
2, 206381, Note_on_c, 0, 73, 61
2, 206392, Control_c, 0, 64, 67
2, 206392, Control_c, 0, 67, 27
2, 206408, Control_c, 0, 64, 69
2, 206423, Control_c, 0, 64, 72
2, 206439, Control_c, 0, 64, 74
2, 206453, Control_c, 0, 64, 75
2, 206453, Control_c, 0, 67, 27
2, 206468, Control_c, 0, 64, 74
2, 206468, Control_c, 0, 67, 26
2, 206484, Control_c, 0, 64, 73
2, 206484, Control_c, 0, 67, 26
2, 206499, Control_c, 0, 64, 71
2, 206499, Control_c, 0, 67, 25
2, 206505, Note_on_c, 0, 73, 0
2, 206513, Control_c, 0, 64, 69
2, 206519, Note_on_c, 0, 57, 0
2, 206529, Control_c, 0, 64, 67
2, 206530, Note_on_c, 0, 56, 55
2, 206533, Note_on_c, 0, 66, 71
2, 206536, Note_on_c, 0, 74, 65
2, 206544, Control_c, 0, 64, 64
2, 206560, Control_c, 0, 64, 61
2, 206575, Control_c, 0, 64, 57
2, 206589, Control_c, 0, 64, 56
2, 206605, Control_c, 0, 64, 56
2, 206605, Control_c, 0, 67, 25
2, 206620, Control_c, 0, 64, 58
2, 206620, Control_c, 0, 67, 24
2, 206634, Control_c, 0, 64, 59
2, 206634, Control_c, 0, 67, 23
2, 206650, Control_c, 0, 64, 61
2, 206650, Control_c, 0, 67, 22
2, 206665, Control_c, 0, 64, 63
2, 206665, Control_c, 0, 67, 21
2, 206681, Control_c, 0, 64, 63
2, 206692, Note_on_c, 0, 54, 61
2, 206696, Control_c, 0, 64, 64
2, 206698, Note_on_c, 0, 76, 67
2, 206701, Note_on_c, 0, 56, 0
2, 206710, Control_c, 0, 64, 64
2, 206726, Control_c, 0, 67, 20
2, 206738, Note_on_c, 0, 74, 0
2, 206741, Control_c, 0, 67, 19
2, 206756, Control_c, 0, 67, 18
2, 206772, Control_c, 0, 67, 17
2, 206802, Control_c, 0, 64, 63
2, 206802, Control_c, 0, 67, 17
2, 206824, Note_on_c, 0, 66, 0
2, 206825, Control_c, 0, 64, 51
2, 206834, Note_on_c, 0, 59, 0
2, 206841, Control_c, 0, 64, 0
2, 206846, Note_on_c, 0, 56, 68
2, 206851, Note_on_c, 0, 71, 73
2, 206854, Note_on_c, 0, 54, 0
2, 206854, Note_on_c, 0, 74, 74
2, 206862, Note_on_c, 0, 76, 0
2, 206888, Control_c, 0, 67, 16
2, 206918, Control_c, 0, 67, 16
2, 206933, Control_c, 0, 67, 14
2, 206947, Control_c, 0, 67, 13
2, 206963, Control_c, 0, 64, 35
2, 206963, Control_c, 0, 67, 12
2, 206978, Control_c, 0, 64, 63
2, 206978, Control_c, 0, 67, 12
2, 206993, Control_c, 0, 64, 64
2, 206993, Control_c, 0, 67, 11
2, 207001, Note_on_c, 0, 73, 71
2, 207009, Control_c, 0, 64, 65
2, 207009, Control_c, 0, 67, 11
2, 207023, Control_c, 0, 64, 67
2, 207023, Control_c, 0, 67, 10
2, 207028, Note_on_c, 0, 71, 0
2, 207039, Control_c, 0, 64, 69
2, 207039, Control_c, 0, 67, 8
2, 207054, Control_c, 0, 64, 72
2, 207054, Control_c, 0, 67, 0
2, 207069, Control_c, 0, 64, 76
2, 207085, Control_c, 0, 64, 77
2, 207091, Note_on_c, 0, 74, 0
2, 207099, Control_c, 0, 64, 72
2, 207114, Control_c, 0, 64, 63
2, 207130, Control_c, 0, 64, 0
2, 207140, Note_on_c, 0, 66, 68
2, 207147, Note_on_c, 0, 73, 0
2, 207150, Note_on_c, 0, 71, 76
2, 207221, Control_c, 0, 64, 51
2, 207236, Control_c, 0, 64, 64
2, 207251, Control_c, 0, 64, 68
2, 207266, Control_c, 0, 64, 72
2, 207282, Control_c, 0, 64, 76
2, 207291, Note_on_c, 0, 74, 79
2, 207297, Control_c, 0, 64, 79
2, 207306, Note_on_c, 0, 71, 0
2, 207312, Control_c, 0, 64, 81
2, 207326, Note_on_c, 0, 66, 0
2, 207328, Control_c, 0, 64, 83
2, 207343, Control_c, 0, 64, 85
2, 207373, Control_c, 0, 64, 82
2, 207388, Control_c, 0, 64, 76
2, 207404, Control_c, 0, 64, 68
2, 207419, Control_c, 0, 64, 62
2, 207433, Control_c, 0, 64, 47
2, 207438, Note_on_c, 0, 73, 74
2, 207439, Note_on_c, 0, 71, 75
2, 207441, Note_on_c, 0, 65, 73
2, 207449, Control_c, 0, 64, 46
2, 207460, Note_on_c, 0, 74, 0
2, 207464, Control_c, 0, 64, 54
2, 207479, Control_c, 0, 64, 59
2, 207494, Control_c, 0, 64, 63
2, 207509, Control_c, 0, 64, 64
2, 207510, Note_on_c, 0, 71, 0
2, 207525, Control_c, 0, 64, 66
2, 207540, Control_c, 0, 64, 70
2, 207554, Control_c, 0, 64, 77
2, 207559, Note_on_c, 0, 65, 0
2, 207570, Control_c, 0, 64, 91
2, 207593, Control_c, 0, 64, 112
2, 207600, Note_on_c, 0, 73, 0
2, 207602, Note_on_c, 0, 71, 79
2, 207609, Control_c, 0, 64, 127
2, 207686, Control_c, 0, 64, 122
2, 207701, Control_c, 0, 64, 97
2, 207715, Control_c, 0, 64, 81
2, 207731, Control_c, 0, 64, 68
2, 207746, Control_c, 0, 64, 43
2, 207746, Note_on_c, 0, 49, 76
2, 207746, Note_on_c, 0, 73, 69
2, 207749, Note_on_c, 0, 71, 0
2, 207755, Note_on_c, 0, 69, 70
2, 207762, Control_c, 0, 64, 0
2, 207807, Control_c, 0, 64, 34
2, 207822, Control_c, 0, 64, 56
2, 207838, Control_c, 0, 64, 62
2, 207843, Note_on_c, 0, 56, 0
2, 207853, Control_c, 0, 64, 64
2, 207854, Note_on_c, 0, 49, 0
2, 207867, Control_c, 0, 64, 66
2, 207883, Control_c, 0, 64, 68
2, 207898, Control_c, 0, 64, 71
2, 207898, Note_on_c, 0, 74, 71
2, 207902, Note_on_c, 0, 68, 74
2, 207903, Note_on_c, 0, 69, 0
2, 207913, Control_c, 0, 64, 75
2, 207928, Control_c, 0, 64, 79
2, 207938, Note_on_c, 0, 73, 0
2, 207943, Control_c, 0, 64, 79
2, 207959, Control_c, 0, 64, 79
2, 207974, Control_c, 0, 64, 77
2, 207989, Control_c, 0, 64, 76
2, 208004, Control_c, 0, 64, 73
2, 208019, Control_c, 0, 64, 69
2, 208034, Control_c, 0, 64, 64
2, 208050, Control_c, 0, 64, 45
2, 208053, Note_on_c, 0, 73, 69
2, 208060, Note_on_c, 0, 66, 79
2, 208061, Note_on_c, 0, 69, 68
2, 208062, Note_on_c, 0, 54, 72
2, 208065, Control_c, 0, 64, 0
2, 208068, Note_on_c, 0, 74, 0
2, 208094, Note_on_c, 0, 68, 0
2, 208141, Control_c, 0, 64, 49
2, 208156, Control_c, 0, 64, 62
2, 208172, Control_c, 0, 64, 64
2, 208187, Control_c, 0, 64, 67
2, 208202, Control_c, 0, 64, 74
2, 208217, Control_c, 0, 64, 91
2, 208226, Note_on_c, 0, 71, 77
2, 208229, Note_on_c, 0, 54, 0
2, 208232, Control_c, 0, 64, 127
2, 208257, Note_on_c, 0, 69, 0
2, 208271, Note_on_c, 0, 73, 0
2, 208308, Control_c, 0, 64, 115
2, 208323, Control_c, 0, 64, 79
2, 208338, Control_c, 0, 64, 64
2, 208362, Control_c, 0, 64, 0
2, 208362, Note_on_c, 0, 54, 79
2, 208365, Note_on_c, 0, 71, 0
2, 208367, Note_on_c, 0, 69, 74
2, 208400, Note_on_c, 0, 66, 0
2, 208407, Control_c, 0, 64, 55
2, 208422, Control_c, 0, 64, 63
2, 208438, Control_c, 0, 64, 65
2, 208453, Control_c, 0, 64, 68
2, 208468, Control_c, 0, 64, 73
2, 208483, Control_c, 0, 64, 85
2, 208498, Control_c, 0, 64, 97
2, 208511, Note_on_c, 0, 73, 77
2, 208514, Control_c, 0, 64, 107
2, 208518, Note_on_c, 0, 54, 0
2, 208530, Control_c, 0, 64, 109
2, 208532, Note_on_c, 0, 69, 0
2, 208575, Control_c, 0, 64, 108
2, 208590, Control_c, 0, 64, 104
2, 208606, Control_c, 0, 64, 98
2, 208621, Control_c, 0, 64, 93
2, 208635, Control_c, 0, 64, 86
2, 208651, Control_c, 0, 64, 77
2, 208666, Control_c, 0, 64, 69
2, 208667, Note_on_c, 0, 54, 64
2, 208669, Note_on_c, 0, 71, 69
2, 208672, Note_on_c, 0, 59, 68
2, 208673, Note_on_c, 0, 56, 65
2, 208673, Note_on_c, 0, 68, 73
2, 208682, Control_c, 0, 64, 63
2, 208690, Note_on_c, 0, 73, 0
2, 208697, Control_c, 0, 64, 39
2, 208711, Control_c, 0, 64, 0
2, 208842, Note_on_c, 0, 71, 0
2, 208843, Note_on_c, 0, 69, 74
2, 208973, Note_on_c, 0, 71, 70
2, 208975, Note_on_c, 0, 53, 66
2, 209024, Note_on_c, 0, 69, 0
2, 209058, Note_on_c, 0, 54, 0
2, 209119, Note_on_c, 0, 51, 75
2, 209121, Note_on_c, 0, 53, 0
2, 209123, Note_on_c, 0, 59, 0
2, 209135, Note_on_c, 0, 73, 80
2, 209173, Note_on_c, 0, 71, 0
2, 209279, Note_on_c, 0, 51, 0
2, 209288, Note_on_c, 0, 53, 59
2, 209290, Note_on_c, 0, 61, 74
2, 209294, Note_on_c, 0, 71, 69
2, 209328, Note_on_c, 0, 68, 0
2, 209335, Note_on_c, 0, 73, 0
2, 209455, Note_on_c, 0, 69, 76
2, 209471, Note_on_c, 0, 71, 0
2, 209540, Control_c, 0, 64, 29
2, 209555, Control_c, 0, 64, 39
2, 209571, Control_c, 0, 64, 42
2, 209586, Control_c, 0, 64, 44
2, 209602, Control_c, 0, 64, 45
2, 209605, Note_on_c, 0, 68, 76
2, 209612, Note_on_c, 0, 69, 0
2, 209616, Control_c, 0, 64, 47
2, 209631, Control_c, 0, 64, 49
2, 209647, Control_c, 0, 64, 50
2, 209662, Control_c, 0, 64, 51
2, 209663, Note_on_c, 0, 56, 0
2, 209678, Control_c, 0, 64, 52
2, 209692, Control_c, 0, 64, 53
2, 209707, Control_c, 0, 64, 55
2, 209723, Control_c, 0, 64, 55
2, 209752, Note_on_c, 0, 71, 77
2, 209783, Control_c, 0, 64, 55
2, 209785, Note_on_c, 0, 68, 0
2, 209799, Control_c, 0, 64, 54
2, 209813, Control_c, 0, 64, 53
2, 209828, Control_c, 0, 64, 51
2, 209844, Control_c, 0, 64, 49
2, 209859, Control_c, 0, 64, 49
2, 209874, Control_c, 0, 64, 48
2, 209897, Control_c, 0, 64, 45
2, 209902, Note_on_c, 0, 53, 0
2, 209912, Control_c, 0, 64, 42
2, 209924, Note_on_c, 0, 54, 56
2, 209924, Note_on_c, 0, 69, 82
2, 209928, Control_c, 0, 64, 37
2, 209931, Note_on_c, 0, 57, 51
2, 209942, Control_c, 0, 64, 35
2, 209951, Note_on_c, 0, 71, 0
2, 209958, Control_c, 0, 64, 34
2, 209973, Control_c, 0, 64, 32
2, 209988, Control_c, 0, 64, 0
2, 210094, Note_on_c, 0, 68, 77
2, 210202, Control_c, 0, 64, 61
2, 210217, Control_c, 0, 64, 63
2, 210245, Note_on_c, 0, 66, 73
2, 210248, Control_c, 0, 64, 63
2, 210263, Control_c, 0, 64, 64
2, 210279, Control_c, 0, 64, 65
2, 210293, Control_c, 0, 64, 66
2, 210305, Note_on_c, 0, 68, 0
2, 210308, Control_c, 0, 64, 67
2, 210324, Control_c, 0, 64, 67
2, 210339, Control_c, 0, 64, 68
2, 210354, Control_c, 0, 64, 69
2, 210362, Note_on_c, 0, 54, 0
2, 210369, Control_c, 0, 64, 72
2, 210372, Note_on_c, 0, 57, 0
2, 210384, Control_c, 0, 64, 75
2, 210394, Note_on_c, 0, 65, 82
2, 210400, Control_c, 0, 64, 77
2, 210408, Note_on_c, 0, 66, 0
2, 210506, Control_c, 0, 64, 76
2, 210521, Control_c, 0, 64, 75
2, 210536, Control_c, 0, 64, 73
2, 210538, Note_on_c, 0, 66, 75
2, 210541, Note_on_c, 0, 54, 64
2, 210551, Control_c, 0, 64, 71
2, 210555, Note_on_c, 0, 61, 0
2, 210555, Note_on_c, 0, 65, 0
2, 210567, Control_c, 0, 64, 66
2, 210581, Control_c, 0, 64, 35
2, 210596, Control_c, 0, 64, 0
2, 210702, Note_on_c, 0, 61, 75
2, 210772, Control_c, 0, 64, 55
2, 210786, Control_c, 0, 64, 63
2, 210802, Control_c, 0, 64, 66
2, 210817, Control_c, 0, 64, 69
2, 210822, Note_on_c, 0, 69, 0
2, 210832, Control_c, 0, 64, 73
2, 210833, Note_on_c, 0, 66, 0
2, 210848, Control_c, 0, 64, 81
2, 210854, Note_on_c, 0, 59, 77
2, 210861, Note_on_c, 0, 61, 0
2, 210862, Control_c, 0, 64, 88
2, 210878, Control_c, 0, 64, 92
2, 210893, Control_c, 0, 64, 95
2, 210908, Control_c, 0, 64, 97
2, 210924, Control_c, 0, 64, 100
2, 210938, Control_c, 0, 64, 102
2, 210953, Control_c, 0, 64, 103
2, 210970, Control_c, 0, 64, 104
2, 210988, Note_on_c, 0, 57, 72
2, 210992, Note_on_c, 0, 59, 0
2, 211001, Control_c, 0, 64, 105
2, 211015, Control_c, 0, 64, 106
2, 211061, Control_c, 0, 64, 104
2, 211076, Control_c, 0, 64, 101
2, 211092, Control_c, 0, 64, 98
2, 211097, Note_on_c, 0, 54, 0
2, 211106, Control_c, 0, 64, 91
2, 211122, Control_c, 0, 64, 85
2, 211137, Control_c, 0, 64, 78
2, 211140, Note_on_c, 0, 57, 0
2, 211145, Note_on_c, 0, 73, 87
2, 211147, Note_on_c, 0, 68, 86
2, 211152, Control_c, 0, 64, 70
2, 211165, Note_on_c, 0, 56, 68
2, 211168, Control_c, 0, 64, 62
2, 211183, Control_c, 0, 64, 0
2, 211290, Control_c, 0, 64, 49
2, 211299, Note_on_c, 0, 54, 69
2, 211303, Control_c, 0, 64, 61
2, 211318, Control_c, 0, 64, 64
2, 211334, Control_c, 0, 64, 65
2, 211349, Control_c, 0, 64, 65
2, 211462, Control_c, 0, 64, 65
2, 211467, Note_on_c, 0, 52, 72
2, 211475, Note_on_c, 0, 54, 0
2, 211477, Control_c, 0, 64, 64
2, 211493, Control_c, 0, 64, 63
2, 211508, Control_c, 0, 64, 60
2, 211523, Control_c, 0, 64, 44
2, 211539, Control_c, 0, 64, 0
2, 211599, Control_c, 0, 64, 32
2, 211613, Note_on_c, 0, 51, 76
2, 211615, Control_c, 0, 64, 44
2, 211629, Control_c, 0, 64, 54
2, 211633, Note_on_c, 0, 52, 0
2, 211645, Control_c, 0, 64, 59
2, 211660, Control_c, 0, 64, 61
2, 211675, Control_c, 0, 64, 63
2, 211691, Control_c, 0, 64, 64
2, 211736, Control_c, 0, 64, 65
2, 211746, Note_on_c, 0, 52, 77
2, 211783, Control_c, 0, 64, 64
2, 211792, Note_on_c, 0, 68, 0
2, 211798, Control_c, 0, 64, 63
2, 211813, Control_c, 0, 64, 57
2, 211823, Note_on_c, 0, 51, 0
2, 211828, Control_c, 0, 64, 47
2, 211843, Control_c, 0, 64, 40
2, 211858, Control_c, 0, 64, 45
2, 211873, Control_c, 0, 64, 53
2, 211889, Control_c, 0, 64, 59
2, 211904, Control_c, 0, 64, 62
2, 211911, Note_on_c, 0, 68, 76
2, 211919, Control_c, 0, 64, 63
2, 211934, Control_c, 0, 64, 64
2, 211949, Control_c, 0, 64, 64
2, 211965, Control_c, 0, 64, 65
2, 212025, Control_c, 0, 64, 64
2, 212040, Control_c, 0, 64, 61
2, 212047, Note_on_c, 0, 52, 0
2, 212056, Control_c, 0, 64, 33
2, 212061, Note_on_c, 0, 66, 80
2, 212062, Note_on_c, 0, 49, 74
2, 212070, Control_c, 0, 64, 0
2, 212110, Note_on_c, 0, 56, 0
2, 212135, Note_on_c, 0, 73, 0
2, 212138, Note_on_c, 0, 68, 0
2, 212147, Control_c, 0, 64, 49
2, 212162, Control_c, 0, 64, 63
2, 212178, Control_c, 0, 64, 65
2, 212199, Control_c, 0, 64, 68
2, 212208, Note_on_c, 0, 66, 0
2, 212210, Note_on_c, 0, 64, 83
2, 212215, Control_c, 0, 64, 74
2, 212230, Control_c, 0, 64, 87
2, 212246, Control_c, 0, 64, 127
2, 212367, Note_on_c, 0, 72, 88
2, 212368, Control_c, 0, 64, 87
2, 212369, Note_on_c, 0, 64, 0
2, 212370, Note_on_c, 0, 63, 78
2, 212376, Note_on_c, 0, 56, 76
2, 212382, Control_c, 0, 64, 69
2, 212392, Note_on_c, 0, 49, 0
2, 212397, Control_c, 0, 64, 22
2, 212413, Control_c, 0, 64, 0
2, 212489, Control_c, 0, 64, 52
2, 212504, Control_c, 0, 64, 61
2, 212519, Control_c, 0, 64, 64
2, 212521, Note_on_c, 0, 63, 0
2, 212521, Note_on_c, 0, 69, 67
2, 212535, Control_c, 0, 64, 65
2, 212549, Control_c, 0, 64, 67
2, 212565, Control_c, 0, 64, 68
2, 212580, Control_c, 0, 64, 68
2, 212641, Control_c, 0, 64, 69
2, 212657, Control_c, 0, 64, 68
2, 212664, Note_on_c, 0, 68, 72
2, 212672, Control_c, 0, 64, 66
2, 212676, Note_on_c, 0, 44, 80
2, 212688, Control_c, 0, 64, 54
2, 212702, Control_c, 0, 64, 0
2, 212734, Note_on_c, 0, 69, 0
2, 212750, Note_on_c, 0, 72, 0
2, 212794, Control_c, 0, 64, 50
2, 212808, Note_on_c, 0, 66, 78
2, 212810, Control_c, 0, 64, 62
2, 212825, Control_c, 0, 64, 67
2, 212838, Note_on_c, 0, 68, 0
2, 212839, Control_c, 0, 64, 74
2, 212855, Control_c, 0, 64, 84
2, 212870, Control_c, 0, 64, 94
2, 212886, Control_c, 0, 64, 94
2, 212901, Control_c, 0, 64, 94
2, 212915, Control_c, 0, 64, 92
2, 212931, Control_c, 0, 64, 91
2, 212946, Control_c, 0, 64, 89
2, 212970, Control_c, 0, 64, 83
2, 212970, Note_on_c, 0, 66, 0
2, 212973, Note_on_c, 0, 76, 89
2, 212979, Note_on_c, 0, 64, 80
2, 212985, Control_c, 0, 64, 72
2, 212987, Note_on_c, 0, 49, 74
2, 212999, Control_c, 0, 64, 43
2, 213008, Note_on_c, 0, 44, 0
2, 213015, Control_c, 0, 64, 0
2, 213106, Control_c, 0, 64, 44
2, 213119, Note_on_c, 0, 68, 72
2, 213120, Control_c, 0, 64, 60
2, 213136, Control_c, 0, 64, 64
2, 213151, Control_c, 0, 64, 68
2, 213167, Control_c, 0, 64, 74
2, 213182, Control_c, 0, 64, 81
2, 213186, Note_on_c, 0, 49, 0
2, 213196, Control_c, 0, 64, 86
2, 213212, Control_c, 0, 64, 87
2, 213227, Control_c, 0, 64, 91
2, 213241, Control_c, 0, 64, 112
2, 213257, Control_c, 0, 64, 127
2, 213281, Note_on_c, 0, 49, 75
2, 213282, Note_on_c, 0, 73, 83
2, 213303, Control_c, 0, 64, 78
2, 213312, Note_on_c, 0, 76, 0
2, 213318, Control_c, 0, 64, 49
2, 213333, Control_c, 0, 64, 0
2, 213335, Note_on_c, 0, 68, 0
2, 213357, Note_on_c, 0, 64, 0
2, 213379, Control_c, 0, 64, 60
2, 213394, Control_c, 0, 64, 68
2, 213410, Control_c, 0, 64, 74
2, 213425, Control_c, 0, 64, 84
2, 213432, Note_on_c, 0, 71, 80
2, 213440, Control_c, 0, 64, 91
2, 213447, Note_on_c, 0, 73, 0
2, 213456, Control_c, 0, 64, 93
2, 213478, Note_on_c, 0, 56, 0
2, 213498, Note_on_c, 0, 49, 0
2, 213516, Control_c, 0, 64, 92
2, 213532, Control_c, 0, 64, 89
2, 213546, Control_c, 0, 64, 86
2, 213561, Control_c, 0, 64, 83
2, 213577, Control_c, 0, 64, 82
2, 213606, Note_on_c, 0, 69, 80
2, 213607, Note_on_c, 0, 75, 91
2, 213608, Control_c, 0, 64, 82
2, 213609, Note_on_c, 0, 49, 74
2, 213612, Note_on_c, 0, 54, 77
2, 213616, Note_on_c, 0, 71, 0
2, 213622, Control_c, 0, 64, 76
2, 213637, Control_c, 0, 64, 65
2, 213653, Control_c, 0, 64, 0
2, 213786, Note_on_c, 0, 68, 72
2, 213797, Control_c, 0, 64, 32
2, 213813, Control_c, 0, 64, 63
2, 213828, Control_c, 0, 64, 64
2, 213835, Note_on_c, 0, 69, 0
2, 213842, Control_c, 0, 64, 64
2, 213888, Control_c, 0, 64, 64
2, 213903, Control_c, 0, 64, 65
2, 213925, Note_on_c, 0, 49, 0
2, 213928, Note_on_c, 0, 48, 69
2, 213939, Note_on_c, 0, 69, 71
2, 213942, Note_on_c, 0, 68, 0
2, 213949, Control_c, 0, 64, 64
2, 213979, Control_c, 0, 64, 64
2, 213994, Control_c, 0, 64, 63
2, 214009, Control_c, 0, 64, 63
2, 214024, Control_c, 0, 64, 62
2, 214039, Control_c, 0, 64, 61
2, 214055, Control_c, 0, 64, 60
2, 214070, Control_c, 0, 64, 58
2, 214073, Note_on_c, 0, 46, 75
2, 214076, Note_on_c, 0, 48, 0
2, 214086, Control_c, 0, 64, 43
2, 214089, Note_on_c, 0, 66, 79
2, 214090, Note_on_c, 0, 69, 0
2, 214101, Control_c, 0, 64, 0
2, 214243, Note_on_c, 0, 68, 77
2, 214249, Note_on_c, 0, 51, 76
2, 214251, Note_on_c, 0, 48, 71
2, 214260, Note_on_c, 0, 66, 0
2, 214264, Note_on_c, 0, 46, 0
2, 214274, Note_on_c, 0, 54, 0
2, 214410, Note_on_c, 0, 49, 78
2, 214419, Note_on_c, 0, 51, 0
2, 214565, Control_c, 0, 64, 50
2, 214566, Note_on_c, 0, 51, 74
2, 214578, Note_on_c, 0, 48, 0
2, 214580, Control_c, 0, 64, 57
2, 214586, Note_on_c, 0, 49, 0
2, 214595, Control_c, 0, 64, 62
2, 214610, Control_c, 0, 64, 65
2, 214625, Control_c, 0, 64, 68
2, 214640, Control_c, 0, 64, 74
2, 214655, Control_c, 0, 64, 86
2, 214670, Control_c, 0, 64, 103
2, 214686, Control_c, 0, 64, 122
2, 214694, Note_on_c, 0, 48, 65
2, 214701, Control_c, 0, 64, 127
2, 214710, Note_on_c, 0, 51, 0
2, 214727, Note_on_c, 0, 48, 0
2, 214761, Control_c, 0, 64, 119
2, 214777, Control_c, 0, 64, 96
2, 214792, Control_c, 0, 64, 79
2, 214807, Control_c, 0, 64, 65
2, 214822, Control_c, 0, 64, 0
2, 214852, Note_on_c, 0, 40, 70
2, 214856, Note_on_c, 0, 52, 71
2, 214871, Note_on_c, 0, 68, 0
2, 214903, Note_on_c, 0, 75, 0
2, 214944, Control_c, 0, 64, 49
2, 214959, Control_c, 0, 64, 61
2, 214975, Control_c, 0, 64, 63
2, 214990, Control_c, 0, 64, 64
2, 214993, Note_on_c, 0, 52, 0
2, 215006, Control_c, 0, 64, 65
2, 215013, Note_on_c, 0, 51, 61
2, 215021, Control_c, 0, 64, 67
2, 215036, Control_c, 0, 64, 69
2, 215052, Control_c, 0, 64, 71
2, 215067, Control_c, 0, 64, 70
2, 215082, Control_c, 0, 64, 68
2, 215097, Control_c, 0, 64, 64
2, 215112, Control_c, 0, 64, 32
2, 215128, Control_c, 0, 64, 0
2, 215138, Note_on_c, 0, 40, 0
2, 215149, Note_on_c, 0, 73, 85
2, 215162, Note_on_c, 0, 51, 0
2, 215169, Note_on_c, 0, 52, 65
2, 215174, Control_c, 0, 64, 54
2, 215189, Control_c, 0, 64, 63
2, 215205, Control_c, 0, 64, 66
2, 215220, Control_c, 0, 64, 69
2, 215234, Control_c, 0, 64, 72
2, 215250, Control_c, 0, 64, 77
2, 215272, Control_c, 0, 64, 85
2, 215288, Control_c, 0, 64, 96
2, 215302, Control_c, 0, 64, 103
2, 215312, Note_on_c, 0, 72, 89
2, 215315, Note_on_c, 0, 54, 76
2, 215317, Control_c, 0, 64, 103
2, 215318, Note_on_c, 0, 52, 0
2, 215339, Note_on_c, 0, 73, 0
2, 215348, Control_c, 0, 64, 104
2, 215363, Control_c, 0, 64, 106
2, 215379, Control_c, 0, 64, 107
2, 215424, Control_c, 0, 64, 103
2, 215439, Control_c, 0, 64, 96
2, 215442, Note_on_c, 0, 54, 0
2, 215455, Control_c, 0, 64, 88
2, 215462, Note_on_c, 0, 73, 78
2, 215463, Note_on_c, 0, 52, 75
2, 215467, Note_on_c, 0, 80, 90
2, 215470, Control_c, 0, 64, 78
2, 215486, Control_c, 0, 64, 67
2, 215495, Note_on_c, 0, 72, 0
2, 215500, Control_c, 0, 64, 20
2, 215515, Control_c, 0, 64, 0
2, 215576, Control_c, 0, 64, 59
2, 215591, Control_c, 0, 64, 63
2, 215605, Note_on_c, 0, 51, 72
2, 215607, Control_c, 0, 64, 63
2, 215622, Control_c, 0, 64, 64
2, 215635, Note_on_c, 0, 52, 0
2, 215637, Control_c, 0, 64, 67
2, 215652, Control_c, 0, 64, 70
2, 215667, Control_c, 0, 64, 75
2, 215682, Control_c, 0, 64, 81
2, 215687, Note_on_c, 0, 80, 0
2, 215697, Control_c, 0, 64, 82
2, 215712, Control_c, 0, 64, 81
2, 215728, Control_c, 0, 64, 79
2, 215743, Control_c, 0, 64, 73
2, 215756, Note_on_c, 0, 45, 64
2, 215758, Control_c, 0, 64, 65
2, 215760, Note_on_c, 0, 49, 69
2, 215769, Note_on_c, 0, 80, 92
2, 215773, Control_c, 0, 64, 0
2, 215778, Note_on_c, 0, 51, 0
2, 215850, Control_c, 0, 64, 28
2, 215865, Control_c, 0, 64, 56
2, 215880, Control_c, 0, 64, 63
2, 215880, Note_on_c, 0, 45, 0
2, 215896, Control_c, 0, 64, 65
2, 215900, Note_on_c, 0, 52, 71
2, 215911, Control_c, 0, 64, 68
2, 215919, Note_on_c, 0, 49, 0
2, 215926, Control_c, 0, 64, 74
2, 215941, Control_c, 0, 64, 86
2, 215941, Note_on_c, 0, 52, 0
2, 215956, Control_c, 0, 64, 95
2, 215972, Control_c, 0, 64, 96
2, 215996, Note_on_c, 0, 80, 0
2, 216018, Control_c, 0, 64, 94
2, 216040, Control_c, 0, 64, 86
2, 216056, Control_c, 0, 64, 70
2, 216071, Control_c, 0, 64, 53
2, 216082, Note_on_c, 0, 51, 77
2, 216082, Note_on_c, 0, 80, 89
2, 216086, Control_c, 0, 64, 0
2, 216092, Note_on_c, 0, 39, 67
2, 216161, Control_c, 0, 64, 54
2, 216177, Control_c, 0, 64, 57
2, 216192, Control_c, 0, 64, 61
2, 216208, Control_c, 0, 64, 64
2, 216222, Control_c, 0, 64, 66
2, 216236, Note_on_c, 0, 49, 79
2, 216237, Control_c, 0, 64, 69
2, 216237, Note_on_c, 0, 51, 0
2, 216253, Control_c, 0, 64, 73
2, 216268, Control_c, 0, 64, 79
2, 216283, Control_c, 0, 64, 81
2, 216314, Control_c, 0, 64, 78
2, 216330, Control_c, 0, 64, 70
2, 216344, Control_c, 0, 64, 62
2, 216359, Control_c, 0, 64, 0
2, 216375, Note_on_c, 0, 39, 0
2, 216396, Note_on_c, 0, 78, 79
2, 216401, Note_on_c, 0, 70, 78
2, 216412, Note_on_c, 0, 49, 0
2, 216414, Note_on_c, 0, 51, 67
2, 216431, Note_on_c, 0, 80, 0
2, 216445, Note_on_c, 0, 73, 0
2, 216465, Control_c, 0, 64, 32
2, 216480, Control_c, 0, 64, 55
2, 216496, Control_c, 0, 64, 62
2, 216511, Control_c, 0, 64, 64
2, 216527, Control_c, 0, 64, 65
2, 216539, Note_on_c, 0, 51, 0
2, 216541, Control_c, 0, 64, 66
2, 216549, Note_on_c, 0, 76, 83
2, 216556, Control_c, 0, 64, 66
2, 216556, Note_on_c, 0, 52, 58
2, 216571, Note_on_c, 0, 70, 0
2, 216583, Note_on_c, 0, 78, 0
2, 216663, Control_c, 0, 64, 66
2, 216668, Note_on_c, 0, 52, 0
2, 216678, Control_c, 0, 64, 65
2, 216695, Control_c, 0, 64, 63
2, 216710, Control_c, 0, 64, 34
2, 216711, Note_on_c, 0, 51, 65
2, 216714, Note_on_c, 0, 78, 85
2, 216715, Note_on_c, 0, 75, 82
2, 216725, Control_c, 0, 64, 0
2, 216746, Note_on_c, 0, 76, 0
2, 216839, Control_c, 0, 64, 43
2, 216854, Control_c, 0, 64, 56
2, 216858, Note_on_c, 0, 49, 67
2, 216869, Control_c, 0, 64, 63
2, 216881, Note_on_c, 0, 51, 0
2, 216885, Control_c, 0, 64, 67
2, 216900, Control_c, 0, 64, 73
2, 216903, Note_on_c, 0, 75, 0
2, 216915, Control_c, 0, 64, 78
2, 216931, Control_c, 0, 64, 79
2, 216945, Control_c, 0, 64, 78
2, 216960, Control_c, 0, 64, 79
2, 216976, Control_c, 0, 64, 85
2, 216990, Control_c, 0, 64, 127
2, 217015, Note_on_c, 0, 44, 64
2, 217015, Note_on_c, 0, 48, 65
2, 217023, Note_on_c, 0, 75, 88
2, 217052, Control_c, 0, 64, 88
2, 217066, Control_c, 0, 64, 40
2, 217081, Control_c, 0, 64, 0
2, 217088, Note_on_c, 0, 49, 0
2, 217149, Note_on_c, 0, 48, 0
2, 217152, Note_on_c, 0, 51, 75
2, 217158, Control_c, 0, 64, 55
2, 217162, Note_on_c, 0, 44, 0
2, 217174, Control_c, 0, 64, 64
2, 217188, Control_c, 0, 64, 67
2, 217202, Note_on_c, 0, 75, 0
2, 217203, Control_c, 0, 64, 71
2, 217203, Note_on_c, 0, 51, 0
2, 217219, Control_c, 0, 64, 84
2, 217234, Control_c, 0, 64, 104
2, 217250, Control_c, 0, 64, 127
2, 217325, Control_c, 0, 64, 101
2, 217340, Control_c, 0, 64, 67
2, 217351, Note_on_c, 0, 76, 77
2, 217353, Note_on_c, 0, 49, 82
2, 217355, Control_c, 0, 64, 0
2, 217358, Note_on_c, 0, 75, 83
2, 217359, Note_on_c, 0, 37, 72
2, 217393, Note_on_c, 0, 78, 0
2, 217447, Control_c, 0, 64, 61
2, 217461, Control_c, 0, 64, 73
2, 217476, Control_c, 0, 64, 108
2, 217483, Note_on_c, 0, 37, 0
2, 217491, Note_on_c, 0, 49, 0
2, 217492, Control_c, 0, 64, 127
2, 217688, Control_c, 0, 64, 81
2, 217693, Note_on_c, 0, 73, 78
2, 217697, Note_on_c, 0, 52, 77
2, 217697, Note_on_c, 0, 75, 0
2, 217702, Control_c, 0, 64, 60
2, 217718, Control_c, 0, 64, 0
2, 217809, Control_c, 0, 64, 45
2, 217824, Control_c, 0, 64, 63
2, 217839, Control_c, 0, 64, 66
2, 217841, Note_on_c, 0, 71, 74
2, 217853, Note_on_c, 0, 73, 0
2, 217854, Control_c, 0, 64, 71
2, 217869, Control_c, 0, 64, 79
2, 217885, Control_c, 0, 64, 95
2, 217900, Control_c, 0, 64, 127
2, 217976, Control_c, 0, 64, 82
2, 217991, Control_c, 0, 64, 60
2, 218004, Note_on_c, 0, 57, 78
2, 218006, Control_c, 0, 64, 0
2, 218006, Note_on_c, 0, 52, 0
2, 218006, Note_on_c, 0, 73, 68
2, 218012, Note_on_c, 0, 71, 0
2, 218113, Control_c, 0, 64, 62
2, 218128, Control_c, 0, 64, 69
2, 218143, Control_c, 0, 64, 86
2, 218158, Control_c, 0, 64, 127
2, 218234, Note_on_c, 0, 57, 0
2, 218309, Control_c, 0, 64, 78
2, 218322, Note_on_c, 0, 57, 89
2, 218325, Control_c, 0, 64, 55
2, 218348, Control_c, 0, 64, 0
2, 218423, Control_c, 0, 64, 24
2, 218439, Control_c, 0, 64, 62
2, 218454, Control_c, 0, 64, 67
2, 218468, Control_c, 0, 64, 80
2, 218484, Control_c, 0, 64, 127
2, 218527, Note_on_c, 0, 57, 0
2, 218634, Note_on_c, 0, 57, 85
2, 218635, Control_c, 0, 64, 122
2, 218641, Note_on_c, 0, 75, 85
2, 218646, Note_on_c, 0, 71, 75
2, 218651, Control_c, 0, 64, 68
2, 218666, Control_c, 0, 64, 0
2, 218670, Note_on_c, 0, 76, 0
2, 218683, Note_on_c, 0, 73, 0
2, 218756, Control_c, 0, 64, 44
2, 218772, Control_c, 0, 64, 62
2, 218787, Control_c, 0, 64, 66
2, 218802, Control_c, 0, 64, 79
2, 218817, Control_c, 0, 64, 127
2, 218942, Note_on_c, 0, 57, 0
2, 218946, Note_on_c, 0, 59, 75
2, 218948, Note_on_c, 0, 55, 74
2, 218970, Control_c, 0, 64, 85
2, 218985, Control_c, 0, 64, 58
2, 219000, Control_c, 0, 64, 0
2, 219061, Control_c, 0, 64, 34
2, 219075, Control_c, 0, 64, 64
2, 219091, Control_c, 0, 64, 68
2, 219113, Control_c, 0, 64, 84
2, 219115, Note_on_c, 0, 54, 77
2, 219122, Note_on_c, 0, 55, 0
2, 219125, Note_on_c, 0, 71, 0
2, 219129, Control_c, 0, 64, 127
2, 219288, Note_on_c, 0, 79, 90
2, 219289, Note_on_c, 0, 54, 0
2, 219291, Note_on_c, 0, 64, 76
2, 219293, Note_on_c, 0, 52, 71
2, 219297, Control_c, 0, 64, 73
2, 219297, Note_on_c, 0, 71, 74
2, 219312, Control_c, 0, 64, 0
2, 219315, Note_on_c, 0, 59, 0
2, 219336, Note_on_c, 0, 75, 0
2, 219449, Control_c, 0, 64, 24
2, 219464, Control_c, 0, 64, 57
2, 219480, Control_c, 0, 64, 64
2, 219495, Control_c, 0, 64, 70
2, 219505, Note_on_c, 0, 64, 0
2, 219510, Control_c, 0, 64, 85
2, 219525, Control_c, 0, 64, 127
2, 219606, Note_on_c, 0, 64, 92
2, 219616, Control_c, 0, 64, 72
2, 219631, Control_c, 0, 64, 0
2, 219693, Control_c, 0, 64, 41
2, 219708, Control_c, 0, 64, 66
2, 219723, Control_c, 0, 64, 77
2, 219738, Control_c, 0, 64, 127
2, 219747, Note_on_c, 0, 71, 0
2, 219839, Note_on_c, 0, 64, 0
2, 219943, Control_c, 0, 64, 119
2, 219948, Note_on_c, 0, 78, 82
2, 219954, Note_on_c, 0, 70, 83
2, 219958, Note_on_c, 0, 64, 89
2, 219959, Control_c, 0, 64, 67
2, 219965, Note_on_c, 0, 79, 0
2, 219974, Note_on_c, 0, 52, 0
2, 219975, Control_c, 0, 64, 0
2, 220096, Control_c, 0, 64, 50
2, 220111, Control_c, 0, 64, 66
2, 220127, Control_c, 0, 64, 72
2, 220142, Control_c, 0, 64, 93
2, 220156, Control_c, 0, 64, 127
2, 220271, Note_on_c, 0, 62, 84
2, 220279, Note_on_c, 0, 54, 72
2, 220291, Note_on_c, 0, 64, 0
2, 220294, Control_c, 0, 64, 81
2, 220309, Control_c, 0, 64, 61
2, 220325, Control_c, 0, 64, 0
2, 220385, Control_c, 0, 64, 62
2, 220401, Control_c, 0, 64, 67
2, 220414, Control_c, 0, 64, 74
2, 220416, Note_on_c, 0, 61, 81
2, 220429, Control_c, 0, 64, 105
2, 220431, Note_on_c, 0, 62, 0
2, 220441, Note_on_c, 0, 70, 0
2, 220445, Control_c, 0, 64, 127
2, 220566, Control_c, 0, 64, 77
2, 220581, Control_c, 0, 64, 0
2, 220593, Note_on_c, 0, 74, 81
2, 220595, Note_on_c, 0, 66, 90
2, 220598, Note_on_c, 0, 61, 0
2, 220608, Note_on_c, 0, 59, 68
2, 220626, Note_on_c, 0, 54, 0
2, 220634, Note_on_c, 0, 78, 0
2, 220710, Control_c, 0, 64, 39
2, 220726, Control_c, 0, 64, 64
2, 220741, Control_c, 0, 64, 71
2, 220755, Control_c, 0, 64, 93
2, 220771, Control_c, 0, 64, 127
2, 220839, Note_on_c, 0, 59, 0
2, 220909, Control_c, 0, 64, 69
2, 220914, Note_on_c, 0, 59, 90
2, 220924, Control_c, 0, 64, 0
2, 220954, Note_on_c, 0, 74, 0
2, 220985, Control_c, 0, 64, 64
2, 221001, Control_c, 0, 64, 89
2, 221010, Note_on_c, 0, 66, 0
2, 221016, Control_c, 0, 64, 127
2, 221156, Note_on_c, 0, 59, 0
2, 221273, Control_c, 0, 64, 97
2, 221284, Note_on_c, 0, 73, 87
2, 221287, Note_on_c, 0, 65, 88
2, 221289, Control_c, 0, 64, 69
2, 221292, Note_on_c, 0, 59, 84
2, 221304, Control_c, 0, 64, 0
2, 221433, Control_c, 0, 64, 61
2, 221449, Control_c, 0, 64, 74
2, 221463, Control_c, 0, 64, 127
2, 221590, Note_on_c, 0, 61, 76
2, 221600, Note_on_c, 0, 57, 76
2, 221622, Note_on_c, 0, 59, 0
2, 221694, Note_on_c, 0, 65, 0
2, 221739, Note_on_c, 0, 56, 76
2, 221746, Note_on_c, 0, 57, 0
2, 221874, Control_c, 0, 64, 106
2, 221890, Control_c, 0, 64, 66
2, 221896, Note_on_c, 0, 66, 73
2, 221898, Note_on_c, 0, 69, 69
2, 221899, Note_on_c, 0, 49, 80
2, 221899, Note_on_c, 0, 56, 0
2, 221900, Note_on_c, 0, 57, 73
2, 221902, Note_on_c, 0, 61, 0
2, 221905, Control_c, 0, 64, 0
2, 222012, Control_c, 0, 64, 35
2, 222026, Control_c, 0, 64, 66
2, 222042, Control_c, 0, 64, 78
2, 222054, Note_on_c, 0, 57, 0
2, 222056, Note_on_c, 0, 56, 74
2, 222057, Control_c, 0, 64, 127
2, 222107, Note_on_c, 0, 66, 0
2, 222200, Note_on_c, 0, 56, 0
2, 222201, Note_on_c, 0, 54, 75
2, 222214, Note_on_c, 0, 66, 81
2, 222230, Control_c, 0, 64, 70
2, 222245, Control_c, 0, 64, 0
2, 222336, Control_c, 0, 64, 65
2, 222344, Note_on_c, 0, 54, 0
2, 222351, Control_c, 0, 64, 77
2, 222354, Note_on_c, 0, 52, 79
2, 222367, Control_c, 0, 64, 127
2, 222377, Note_on_c, 0, 49, 0
2, 222398, Note_on_c, 0, 69, 0
2, 222439, Note_on_c, 0, 66, 0
2, 222565, Control_c, 0, 64, 63
2, 222580, Control_c, 0, 64, 0
2, 222580, Note_on_c, 0, 48, 68
2, 222580, Note_on_c, 0, 68, 79
2, 222581, Note_on_c, 0, 66, 74
2, 222583, Note_on_c, 0, 52, 0
2, 222586, Note_on_c, 0, 51, 73
2, 222773, Note_on_c, 0, 68, 0
2, 222778, Control_c, 0, 64, 56
2, 222793, Control_c, 0, 64, 69
2, 222802, Note_on_c, 0, 73, 0
2, 222809, Control_c, 0, 64, 81
2, 222823, Control_c, 0, 64, 111
2, 222838, Control_c, 0, 64, 127
2, 222897, Note_on_c, 0, 68, 73
2, 222903, Note_on_c, 0, 64, 76
2, 222904, Note_on_c, 0, 66, 0
2, 223043, Control_c, 0, 64, 95
2, 223059, Control_c, 0, 64, 72
2, 223064, Note_on_c, 0, 63, 82
2, 223074, Control_c, 0, 64, 65
2, 223089, Note_on_c, 0, 68, 0
2, 223090, Control_c, 0, 64, 64
2, 223096, Note_on_c, 0, 64, 0
2, 223104, Control_c, 0, 64, 65
2, 223119, Control_c, 0, 64, 58
2, 223135, Control_c, 0, 64, 0
2, 223231, Note_on_c, 0, 73, 86
2, 223240, Note_on_c, 0, 64, 78
2, 223248, Note_on_c, 0, 63, 0
2, 223253, Note_on_c, 0, 52, 77
2, 223259, Note_on_c, 0, 48, 0
2, 223260, Note_on_c, 0, 51, 0
2, 223440, Control_c, 0, 64, 62
2, 223455, Control_c, 0, 64, 71
2, 223470, Control_c, 0, 64, 89
2, 223482, Note_on_c, 0, 73, 0
2, 223486, Control_c, 0, 64, 127
2, 223546, Control_c, 0, 64, 90
2, 223561, Control_c, 0, 64, 62
2, 223575, Note_on_c, 0, 73, 83
2, 223576, Note_on_c, 0, 56, 88
2, 223577, Control_c, 0, 64, 0
2, 223682, Control_c, 0, 64, 62
2, 223698, Control_c, 0, 64, 67
2, 223714, Note_on_c, 0, 52, 0
2, 223720, Control_c, 0, 64, 75
2, 223736, Control_c, 0, 64, 127
2, 223746, Note_on_c, 0, 56, 0
2, 223755, Note_on_c, 0, 64, 0
2, 223833, Note_on_c, 0, 73, 0
2, 223917, Control_c, 0, 64, 91
2, 223933, Control_c, 0, 64, 66
2, 223939, Note_on_c, 0, 73, 76
2, 223948, Control_c, 0, 64, 0
2, 223950, Note_on_c, 0, 63, 93
2, 223950, Note_on_c, 0, 66, 73
2, 223957, Note_on_c, 0, 51, 82
2, 224132, Control_c, 0, 64, 57
2, 224147, Control_c, 0, 64, 66
2, 224162, Control_c, 0, 64, 78
2, 224178, Control_c, 0, 64, 127
2, 224208, Note_on_c, 0, 63, 0
2, 224260, Note_on_c, 0, 72, 77
2, 224268, Control_c, 0, 64, 91
2, 224270, Note_on_c, 0, 63, 90
2, 224282, Control_c, 0, 64, 61
2, 224297, Note_on_c, 0, 73, 0
2, 224298, Control_c, 0, 64, 0
2, 224389, Control_c, 0, 64, 62
2, 224405, Control_c, 0, 64, 68
2, 224413, Note_on_c, 0, 70, 85
2, 224420, Control_c, 0, 64, 88
2, 224434, Control_c, 0, 64, 127
2, 224438, Note_on_c, 0, 72, 0
2, 224486, Note_on_c, 0, 63, 0
2, 224560, Note_on_c, 0, 78, 85
2, 224567, Note_on_c, 0, 72, 63
2, 224579, Control_c, 0, 64, 80
2, 224581, Note_on_c, 0, 63, 87
2, 224589, Note_on_c, 0, 70, 0
2, 224594, Control_c, 0, 64, 0
2, 224617, Note_on_c, 0, 72, 0
2, 224715, Control_c, 0, 64, 56
2, 224731, Control_c, 0, 64, 66
2, 224735, Note_on_c, 0, 73, 79
2, 224746, Control_c, 0, 64, 78
2, 224761, Control_c, 0, 64, 127
2, 224783, Note_on_c, 0, 66, 0
2, 224795, Note_on_c, 0, 78, 0
2, 224882, Note_on_c, 0, 63, 0
2, 224895, Note_on_c, 0, 61, 79
2, 224902, Note_on_c, 0, 75, 82
2, 224903, Note_on_c, 0, 78, 83
2, 224930, Control_c, 0, 64, 75
2, 224936, Note_on_c, 0, 73, 0
2, 224945, Control_c, 0, 64, 0
2, 225052, Control_c, 0, 64, 62
2, 225055, Note_on_c, 0, 61, 0
2, 225061, Note_on_c, 0, 51, 0
2, 225061, Note_on_c, 0, 68, 74
2, 225064, Note_on_c, 0, 60, 83
2, 225067, Control_c, 0, 64, 69
2, 225082, Control_c, 0, 64, 81
2, 225098, Control_c, 0, 64, 127
2, 225111, Note_on_c, 0, 60, 0
2, 225114, Note_on_c, 0, 78, 0
2, 225136, Note_on_c, 0, 68, 0
2, 225333, Control_c, 0, 64, 96
2, 225333, Note_on_c, 0, 61, 103
2, 225346, Note_on_c, 0, 78, 82
2, 225348, Control_c, 0, 64, 65
2, 225352, Note_on_c, 0, 49, 69
2, 225358, Note_on_c, 0, 69, 59
2, 225363, Control_c, 0, 64, 0
2, 225545, Control_c, 0, 64, 63
2, 225556, Note_on_c, 0, 69, 0
2, 225560, Control_c, 0, 64, 69
2, 225576, Control_c, 0, 64, 91
2, 225593, Control_c, 0, 64, 127
2, 225704, Note_on_c, 0, 73, 50
2, 225704, Note_on_c, 0, 76, 68
2, 225708, Note_on_c, 0, 68, 70
2, 225711, Note_on_c, 0, 52, 70
2, 225720, Note_on_c, 0, 49, 0
2, 225731, Note_on_c, 0, 78, 0
2, 225739, Note_on_c, 0, 73, 0
2, 225742, Note_on_c, 0, 75, 0
2, 225751, Note_on_c, 0, 76, 0
2, 225765, Note_on_c, 0, 68, 0
2, 225856, Note_on_c, 0, 75, 73
2, 225870, Note_on_c, 0, 66, 61
2, 225870, Note_on_c, 0, 72, 67
2, 225909, Note_on_c, 0, 66, 0
2, 225952, Note_on_c, 0, 72, 0
2, 225991, Note_on_c, 0, 75, 0
2, 226027, Control_c, 0, 64, 66
2, 226035, Note_on_c, 0, 52, 0
2, 226039, Note_on_c, 0, 57, 77
2, 226040, Note_on_c, 0, 76, 63
2, 226043, Control_c, 0, 64, 0
2, 226045, Note_on_c, 0, 68, 68
2, 226051, Note_on_c, 0, 73, 60
2, 226142, Note_on_c, 0, 68, 0
2, 226164, Control_c, 0, 64, 17
2, 226179, Control_c, 0, 64, 63
2, 226194, Control_c, 0, 64, 69
2, 226210, Control_c, 0, 64, 78
2, 226225, Control_c, 0, 64, 93
2, 226241, Control_c, 0, 64, 127
2, 226265, Note_on_c, 0, 57, 0
2, 226329, Note_on_c, 0, 66, 65
2, 226330, Note_on_c, 0, 76, 0
2, 226333, Note_on_c, 0, 75, 72
2, 226343, Note_on_c, 0, 57, 75
2, 226370, Note_on_c, 0, 73, 0
2, 226392, Note_on_c, 0, 75, 0
2, 226402, Note_on_c, 0, 66, 0
2, 226494, Note_on_c, 0, 57, 0
2, 226501, Note_on_c, 0, 73, 70
2, 226510, Note_on_c, 0, 64, 61
2, 226528, Note_on_c, 0, 61, 0
2, 226543, Note_on_c, 0, 64, 0
2, 226586, Note_on_c, 0, 73, 0
2, 226674, Note_on_c, 0, 60, 98
2, 226689, Note_on_c, 0, 57, 84
2, 226692, Note_on_c, 0, 75, 81
2, 226696, Control_c, 0, 64, 83
2, 226699, Note_on_c, 0, 66, 62
2, 226711, Control_c, 0, 64, 48
2, 226726, Note_on_c, 0, 63, 48
2, 226727, Control_c, 0, 64, 0
2, 226916, Control_c, 0, 64, 40
2, 226932, Control_c, 0, 64, 35
2, 226946, Control_c, 0, 64, 26
2, 226962, Control_c, 0, 64, 35
2, 226977, Control_c, 0, 64, 51
2, 226992, Control_c, 0, 64, 59
2, 227008, Control_c, 0, 64, 62
2, 227011, Note_on_c, 0, 56, 61
2, 227022, Control_c, 0, 64, 63
2, 227026, Note_on_c, 0, 57, 0
2, 227038, Control_c, 0, 64, 65
2, 227045, Note_on_c, 0, 72, 74
2, 227053, Control_c, 0, 64, 77
2, 227068, Control_c, 0, 64, 127
2, 227079, Note_on_c, 0, 75, 0
2, 227086, Note_on_c, 0, 66, 0
2, 227180, Note_on_c, 0, 60, 0
2, 227190, Note_on_c, 0, 54, 78
2, 227208, Note_on_c, 0, 63, 0
2, 227212, Note_on_c, 0, 56, 0
2, 227375, Note_on_c, 0, 54, 0
2, 227379, Note_on_c, 0, 64, 96
2, 227379, Note_on_c, 0, 73, 83
2, 227390, Note_on_c, 0, 68, 80
2, 227393, Note_on_c, 0, 72, 0
2, 227404, Note_on_c, 0, 52, 75
2, 227418, Control_c, 0, 64, 70
2, 227433, Control_c, 0, 64, 33
2, 227448, Control_c, 0, 64, 0
2, 227580, Note_on_c, 0, 51, 74
2, 227598, Note_on_c, 0, 52, 0
2, 227754, Note_on_c, 0, 49, 76
2, 227772, Note_on_c, 0, 51, 0
2, 227931, Note_on_c, 0, 47, 82
2, 227943, Note_on_c, 0, 49, 0
2, 228148, Note_on_c, 0, 46, 88
2, 228159, Note_on_c, 0, 47, 0
2, 228486, Note_on_c, 0, 49, 74
2, 228512, Control_c, 0, 64, 59
2, 228528, Control_c, 0, 64, 64
2, 228543, Control_c, 0, 64, 66
2, 228554, Note_on_c, 0, 68, 0
2, 228558, Control_c, 0, 64, 75
2, 228573, Control_c, 0, 64, 127
2, 228786, Control_c, 0, 64, 91
2, 228802, Control_c, 0, 64, 64
2, 228805, Note_on_c, 0, 63, 70
2, 228811, Note_on_c, 0, 66, 70
2, 228814, Note_on_c, 0, 45, 71
2, 228817, Control_c, 0, 64, 0
2, 228818, Note_on_c, 0, 54, 69
2, 228821, Note_on_c, 0, 64, 0
2, 228830, Note_on_c, 0, 49, 0
2, 228850, Note_on_c, 0, 46, 0
2, 228938, Control_c, 0, 64, 60
2, 228953, Control_c, 0, 64, 73
2, 228968, Control_c, 0, 64, 127
2, 229050, Note_on_c, 0, 54, 0
2, 229130, Control_c, 0, 64, 70
2, 229136, Note_on_c, 0, 61, 83
2, 229138, Note_on_c, 0, 54, 80
2, 229144, Control_c, 0, 64, 0
2, 229146, Note_on_c, 0, 63, 0
2, 229235, Control_c, 0, 64, 66
2, 229251, Control_c, 0, 64, 90
2, 229258, Note_on_c, 0, 61, 0
2, 229266, Control_c, 0, 64, 127
2, 229296, Note_on_c, 0, 73, 0
2, 229359, Note_on_c, 0, 54, 0
2, 229445, Note_on_c, 0, 72, 94
2, 229451, Note_on_c, 0, 63, 54
2, 229463, Control_c, 0, 64, 80
2, 229464, Note_on_c, 0, 54, 82
2, 229479, Control_c, 0, 64, 0
2, 229570, Control_c, 0, 64, 65
2, 229585, Control_c, 0, 64, 86
2, 229600, Control_c, 0, 64, 127
2, 229656, Note_on_c, 0, 54, 0
2, 229769, Note_on_c, 0, 65, 81
2, 229772, Note_on_c, 0, 44, 79
2, 229775, Note_on_c, 0, 53, 64
2, 229778, Note_on_c, 0, 45, 0
2, 229783, Control_c, 0, 64, 68
2, 229785, Note_on_c, 0, 63, 0
2, 229790, Note_on_c, 0, 66, 0
2, 229799, Control_c, 0, 64, 0
2, 229815, Note_on_c, 0, 53, 0
2, 229883, Control_c, 0, 64, 59
2, 229898, Control_c, 0, 64, 76
2, 229912, Control_c, 0, 64, 127
2, 229936, Note_on_c, 0, 66, 85
2, 229938, Note_on_c, 0, 51, 83
2, 229941, Note_on_c, 0, 42, 75
2, 229971, Note_on_c, 0, 44, 0
2, 229971, Note_on_c, 0, 65, 0
2, 229979, Note_on_c, 0, 72, 0
2, 230099, Note_on_c, 0, 42, 0
2, 230113, Note_on_c, 0, 51, 0
2, 230129, Note_on_c, 0, 71, 86
2, 230133, Note_on_c, 0, 68, 79
2, 230136, Note_on_c, 0, 49, 77
2, 230137, Note_on_c, 0, 41, 77
2, 230141, Control_c, 0, 64, 93
2, 230156, Control_c, 0, 64, 60
2, 230163, Note_on_c, 0, 66, 0
2, 230172, Control_c, 0, 64, 0
2, 230362, Note_on_c, 0, 68, 0
2, 230368, Control_c, 0, 64, 52
2, 230383, Control_c, 0, 64, 68
2, 230399, Control_c, 0, 64, 84
2, 230414, Control_c, 0, 64, 127
2, 230448, Note_on_c, 0, 68, 89
2, 230676, Note_on_c, 0, 68, 0
2, 230769, Note_on_c, 0, 41, 0
2, 230769, Note_on_c, 0, 42, 71
2, 230775, Note_on_c, 0, 70, 85
2, 230780, Note_on_c, 0, 68, 85
2, 230782, Note_on_c, 0, 71, 0
2, 230787, Control_c, 0, 64, 76
2, 230803, Control_c, 0, 64, 0
2, 230894, Control_c, 0, 64, 52
2, 230909, Control_c, 0, 64, 69
2, 230925, Control_c, 0, 64, 93
2, 230940, Control_c, 0, 64, 127
2, 230949, Note_on_c, 0, 68, 0
2, 231084, Note_on_c, 0, 66, 77
2, 231087, Note_on_c, 0, 61, 84
2, 231106, Control_c, 0, 64, 89
2, 231122, Control_c, 0, 64, 60
2, 231137, Control_c, 0, 64, 0
2, 231196, Control_c, 0, 64, 60
2, 231212, Control_c, 0, 64, 77
2, 231227, Control_c, 0, 64, 127
2, 231240, Note_on_c, 0, 64, 83
2, 231261, Note_on_c, 0, 70, 0
2, 231267, Note_on_c, 0, 61, 0
2, 231268, Note_on_c, 0, 66, 0
2, 231379, Control_c, 0, 64, 112
2, 231402, Control_c, 0, 64, 64
2, 231408, Note_on_c, 0, 66, 62
2, 231409, Note_on_c, 0, 69, 78
2, 231415, Note_on_c, 0, 63, 78
2, 231417, Control_c, 0, 64, 0
2, 231420, Note_on_c, 0, 64, 0
2, 231423, Note_on_c, 0, 51, 79
2, 231434, Note_on_c, 0, 49, 0
2, 231524, Control_c, 0, 64, 54
2, 231539, Control_c, 0, 64, 69
2, 231554, Control_c, 0, 64, 101
2, 231570, Control_c, 0, 64, 127
2, 231607, Note_on_c, 0, 63, 0
2, 231641, Note_on_c, 0, 66, 0
2, 231779, Note_on_c, 0, 61, 82
2, 231780, Note_on_c, 0, 66, 82
2, 231808, Control_c, 0, 64, 65
2, 231824, Control_c, 0, 64, 0
2, 231915, Control_c, 0, 64, 62
2, 231929, Control_c, 0, 64, 75
2, 231945, Control_c, 0, 64, 127
2, 231956, Note_on_c, 0, 42, 0
2, 232000, Note_on_c, 0, 61, 0
2, 232016, Note_on_c, 0, 66, 0
2, 232183, Note_on_c, 0, 60, 77
2, 232184, Note_on_c, 0, 68, 79
2, 232185, Note_on_c, 0, 66, 82
2, 232186, Note_on_c, 0, 44, 82
2, 232201, Note_on_c, 0, 51, 0
2, 232209, Note_on_c, 0, 69, 0
2, 232210, Control_c, 0, 64, 66
2, 232226, Control_c, 0, 64, 0
2, 232334, Control_c, 0, 64, 37
2, 232349, Control_c, 0, 64, 70
2, 232363, Control_c, 0, 64, 127
2, 232398, Note_on_c, 0, 66, 0
2, 232525, Note_on_c, 0, 64, 74
2, 232532, Control_c, 0, 64, 105
2, 232538, Note_on_c, 0, 51, 71
2, 232546, Control_c, 0, 64, 63
2, 232561, Control_c, 0, 64, 0
2, 232683, Control_c, 0, 64, 42
2, 232692, Note_on_c, 0, 63, 82
2, 232698, Control_c, 0, 64, 61
2, 232700, Note_on_c, 0, 60, 0
2, 232711, Note_on_c, 0, 64, 0
2, 232713, Control_c, 0, 64, 65
2, 232728, Control_c, 0, 64, 76
2, 232744, Control_c, 0, 64, 127
2, 232862, Note_on_c, 0, 64, 78
2, 232863, Note_on_c, 0, 61, 78
2, 232865, Control_c, 0, 64, 67
2, 232867, Note_on_c, 0, 56, 74
2, 232875, Note_on_c, 0, 63, 0
2, 232880, Control_c, 0, 64, 0
2, 232889, Note_on_c, 0, 51, 0
2, 233009, Control_c, 0, 64, 56
2, 233025, Control_c, 0, 64, 67
2, 233039, Control_c, 0, 64, 80
2, 233055, Control_c, 0, 64, 127
2, 233104, Note_on_c, 0, 56, 0
2, 233173, Note_on_c, 0, 56, 84
2, 233193, Control_c, 0, 64, 67
2, 233207, Control_c, 0, 64, 0
2, 233267, Note_on_c, 0, 68, 0
2, 233269, Control_c, 0, 64, 62
2, 233283, Control_c, 0, 64, 77
2, 233299, Control_c, 0, 64, 127
2, 233423, Note_on_c, 0, 56, 0
2, 233498, Control_c, 0, 64, 116
2, 233503, Note_on_c, 0, 70, 96
2, 233512, Control_c, 0, 64, 65
2, 233515, Note_on_c, 0, 56, 78
2, 233527, Control_c, 0, 64, 0
2, 233548, Note_on_c, 0, 64, 0
2, 233619, Control_c, 0, 64, 51
2, 233634, Control_c, 0, 64, 71
2, 233649, Control_c, 0, 64, 127
2, 233809, Control_c, 0, 64, 74
2, 233813, Note_on_c, 0, 54, 73
2, 233818, Note_on_c, 0, 56, 0
2, 233821, Note_on_c, 0, 66, 84
2, 233824, Control_c, 0, 64, 0
2, 233901, Control_c, 0, 64, 69
2, 233916, Control_c, 0, 64, 127
2, 233961, Note_on_c, 0, 52, 81
2, 233963, Note_on_c, 0, 68, 84
2, 233970, Note_on_c, 0, 54, 0
2, 233971, Note_on_c, 0, 70, 0
2, 233992, Note_on_c, 0, 61, 0
2, 234065, Note_on_c, 0, 66, 0
2, 234115, Note_on_c, 0, 69, 48
2, 234122, Note_on_c, 0, 72, 89
2, 234124, Note_on_c, 0, 63, 83
2, 234128, Control_c, 0, 64, 70
2, 234137, Note_on_c, 0, 54, 74
2, 234144, Control_c, 0, 64, 0
2, 234166, Note_on_c, 0, 52, 0
2, 234179, Note_on_c, 0, 68, 0
2, 234235, Control_c, 0, 64, 59
2, 234250, Control_c, 0, 64, 71
2, 234265, Control_c, 0, 64, 127
2, 234307, Note_on_c, 0, 54, 0
2, 234433, Control_c, 0, 64, 87
2, 234446, Note_on_c, 0, 68, 89
2, 234448, Control_c, 0, 64, 43
2, 234456, Note_on_c, 0, 54, 81
2, 234470, Control_c, 0, 64, 0
2, 234530, Control_c, 0, 64, 69
2, 234546, Control_c, 0, 64, 127
2, 234553, Note_on_c, 0, 72, 0
2, 234577, Note_on_c, 0, 69, 0
2, 234595, Note_on_c, 0, 63, 0
2, 234688, Note_on_c, 0, 54, 0
2, 234830, Note_on_c, 0, 73, 95
2, 234838, Control_c, 0, 64, 84
2, 234849, Note_on_c, 0, 61, 77
2, 234851, Note_on_c, 0, 54, 71
2, 234854, Control_c, 0, 64, 49
2, 234869, Control_c, 0, 64, 0
2, 234959, Control_c, 0, 64, 46
2, 234975, Control_c, 0, 64, 70
2, 234990, Control_c, 0, 64, 127
2, 235103, Note_on_c, 0, 61, 0
2, 235170, Note_on_c, 0, 52, 73
2, 235179, Note_on_c, 0, 64, 78
2, 235181, Note_on_c, 0, 61, 73
2, 235198, Note_on_c, 0, 54, 0
2, 235202, Control_c, 0, 64, 77
2, 235211, Note_on_c, 0, 68, 0
2, 235218, Control_c, 0, 64, 0
2, 235300, Control_c, 0, 64, 67
2, 235315, Control_c, 0, 64, 127
2, 235330, Note_on_c, 0, 51, 82
2, 235358, Note_on_c, 0, 52, 0
2, 235394, Note_on_c, 0, 61, 0
2, 235471, Note_on_c, 0, 51, 0
2, 235483, Note_on_c, 0, 66, 82
2, 235483, Note_on_c, 0, 69, 73
2, 235484, Note_on_c, 0, 52, 82
2, 235493, Note_on_c, 0, 64, 0
2, 235498, Control_c, 0, 64, 75
2, 235513, Control_c, 0, 64, 0
2, 235590, Control_c, 0, 64, 55
2, 235606, Control_c, 0, 64, 74
2, 235621, Control_c, 0, 64, 127
2, 235684, Note_on_c, 0, 66, 0
2, 235707, Note_on_c, 0, 69, 0
2, 235773, Control_c, 0, 64, 98
2, 235785, Note_on_c, 0, 66, 80
2, 235786, Note_on_c, 0, 51, 79
2, 235788, Control_c, 0, 64, 54
2, 235790, Note_on_c, 0, 69, 76
2, 235802, Control_c, 0, 64, 0
2, 235808, Note_on_c, 0, 52, 0
2, 235878, Control_c, 0, 64, 61
2, 235894, Control_c, 0, 64, 83
2, 235909, Control_c, 0, 64, 127
2, 235943, Note_on_c, 0, 49, 83
2, 235953, Note_on_c, 0, 51, 0
2, 235953, Note_on_c, 0, 69, 0
2, 235978, Note_on_c, 0, 66, 0
2, 236018, Note_on_c, 0, 73, 0
2, 236099, Control_c, 0, 64, 88
2, 236105, Note_on_c, 0, 44, 0
2, 236113, Note_on_c, 0, 72, 93
2, 236114, Control_c, 0, 64, 0
2, 236116, Note_on_c, 0, 66, 87
2, 236118, Note_on_c, 0, 69, 82
2, 236122, Note_on_c, 0, 51, 92
2, 236126, Note_on_c, 0, 49, 0
2, 236235, Control_c, 0, 64, 64
2, 236251, Control_c, 0, 64, 84
2, 236266, Control_c, 0, 64, 127
2, 236449, Note_on_c, 0, 44, 83
2, 236456, Note_on_c, 0, 64, 81
2, 236461, Note_on_c, 0, 68, 82
2, 236465, Control_c, 0, 64, 66
2, 236480, Control_c, 0, 64, 0
2, 236494, Note_on_c, 0, 66, 0
2, 236502, Note_on_c, 0, 72, 0
2, 236517, Note_on_c, 0, 51, 0
2, 236528, Note_on_c, 0, 64, 0
2, 236542, Control_c, 0, 64, 65
2, 236550, Note_on_c, 0, 69, 0
2, 236556, Control_c, 0, 64, 127
2, 236616, Note_on_c, 0, 63, 88
2, 236618, Note_on_c, 0, 66, 88
2, 236646, Note_on_c, 0, 68, 0
2, 236683, Note_on_c, 0, 66, 0
2, 236702, Note_on_c, 0, 63, 0
2, 236849, Note_on_c, 0, 76, 90
2, 236853, Note_on_c, 0, 64, 87
2, 236853, Note_on_c, 0, 68, 85
2, 236854, Control_c, 0, 64, 66
2, 236855, Note_on_c, 0, 49, 83
2, 236868, Control_c, 0, 64, 0
2, 236959, Control_c, 0, 64, 57
2, 236974, Control_c, 0, 64, 72
2, 236989, Control_c, 0, 64, 127
2, 237046, Note_on_c, 0, 64, 0
2, 237069, Note_on_c, 0, 68, 0
2, 237101, Note_on_c, 0, 49, 0
2, 237184, Note_on_c, 0, 66, 89
2, 237184, Note_on_c, 0, 70, 86
2, 237189, Note_on_c, 0, 49, 88
2, 237202, Control_c, 0, 64, 105
2, 237218, Control_c, 0, 64, 0
2, 237288, Note_on_c, 0, 66, 0
2, 237309, Control_c, 0, 64, 64
2, 237324, Control_c, 0, 64, 122
2, 237340, Control_c, 0, 64, 127
2, 237373, Note_on_c, 0, 72, 88
2, 237376, Note_on_c, 0, 68, 92
2, 237380, Note_on_c, 0, 44, 0
2, 237388, Note_on_c, 0, 49, 0
2, 237401, Note_on_c, 0, 70, 0
2, 237468, Note_on_c, 0, 68, 0
2, 237575, Note_on_c, 0, 72, 0
2, 237610, Note_on_c, 0, 43, 79
2, 237612, Note_on_c, 0, 73, 89
2, 237616, Note_on_c, 0, 49, 86
2, 237616, Note_on_c, 0, 70, 89
2, 237621, Control_c, 0, 64, 78
2, 237636, Control_c, 0, 64, 0
2, 237987, Note_on_c, 0, 47, 82
2, 238000, Note_on_c, 0, 49, 0
2, 238149, Note_on_c, 0, 46, 87
2, 238155, Note_on_c, 0, 47, 0
2, 238198, Note_on_c, 0, 73, 0
2, 238221, Note_on_c, 0, 70, 0
2, 238336, Note_on_c, 0, 63, 86
2, 238336, Note_on_c, 0, 75, 90
2, 238338, Note_on_c, 0, 51, 80
2, 238339, Note_on_c, 0, 70, 77
2, 238347, Note_on_c, 0, 46, 0
2, 238357, Note_on_c, 0, 76, 0
2, 238699, Note_on_c, 0, 73, 93
2, 238731, Note_on_c, 0, 75, 0
2, 238801, Control_c, 0, 64, 64
2, 238817, Control_c, 0, 64, 71
2, 238817, Note_on_c, 0, 70, 0
2, 238832, Control_c, 0, 64, 90
2, 238846, Control_c, 0, 64, 127
2, 238886, Note_on_c, 0, 43, 0
2, 239044, Control_c, 0, 64, 98
2, 239059, Control_c, 0, 64, 78
2, 239063, Note_on_c, 0, 72, 91
2, 239066, Note_on_c, 0, 68, 76
2, 239082, Control_c, 0, 64, 67
2, 239088, Note_on_c, 0, 44, 77
2, 239097, Control_c, 0, 64, 38
2, 239111, Control_c, 0, 64, 0
2, 239124, Note_on_c, 0, 51, 0
2, 239191, Note_on_c, 0, 73, 0
2, 239289, Note_on_c, 0, 52, 88
2, 239517, Note_on_c, 0, 54, 92
2, 239528, Note_on_c, 0, 52, 0
2, 239732, Note_on_c, 0, 68, 0
2, 239736, Control_c, 0, 64, 62
2, 239751, Control_c, 0, 64, 66
2, 239766, Control_c, 0, 64, 70
2, 239781, Control_c, 0, 64, 81
2, 239786, Note_on_c, 0, 63, 0
2, 239796, Control_c, 0, 64, 127
2, 239879, Note_on_c, 0, 73, 91
2, 239880, Note_on_c, 0, 64, 82
2, 239889, Note_on_c, 0, 68, 77
2, 239915, Note_on_c, 0, 72, 0
2, 239955, Control_c, 0, 64, 97
2, 239971, Control_c, 0, 64, 78
2, 239986, Control_c, 0, 64, 69
2, 240002, Control_c, 0, 64, 64
2, 240017, Control_c, 0, 64, 54
2, 240027, Note_on_c, 0, 52, 77
2, 240032, Control_c, 0, 64, 36
2, 240044, Note_on_c, 0, 54, 0
2, 240048, Control_c, 0, 64, 26
2, 240063, Control_c, 0, 64, 13
2, 240077, Control_c, 0, 64, 0
2, 240205, Note_on_c, 0, 51, 82
2, 240233, Note_on_c, 0, 52, 0
2, 240372, Note_on_c, 0, 51, 0
2, 240374, Note_on_c, 0, 49, 83
2, 240394, Note_on_c, 0, 64, 0
2, 240589, Note_on_c, 0, 63, 81
2, 240590, Note_on_c, 0, 56, 96
2, 240597, Note_on_c, 0, 49, 0
2, 241291, Note_on_c, 0, 72, 90
2, 241336, Note_on_c, 0, 73, 0
2, 241479, Control_c, 0, 64, 26
2, 241493, Control_c, 0, 64, 47
2, 241508, Control_c, 0, 64, 58
2, 241524, Control_c, 0, 64, 62
2, 241539, Control_c, 0, 64, 63
2, 241569, Control_c, 0, 64, 64
2, 241584, Control_c, 0, 64, 65
2, 241594, Note_on_c, 0, 63, 0
2, 241600, Control_c, 0, 64, 69
2, 241615, Control_c, 0, 64, 79
2, 241630, Control_c, 0, 64, 107
2, 241645, Control_c, 0, 64, 127
2, 241653, Note_on_c, 0, 64, 85
2, 241686, Note_on_c, 0, 44, 0
2, 241750, Note_on_c, 0, 56, 0
2, 241839, Note_on_c, 0, 66, 90
2, 241871, Note_on_c, 0, 64, 0
2, 242055, Note_on_c, 0, 73, 87
2, 242056, Note_on_c, 0, 49, 87
2, 242061, Note_on_c, 0, 65, 73
2, 242069, Note_on_c, 0, 57, 76
2, 242094, Note_on_c, 0, 66, 0
2, 242115, Control_c, 0, 64, 78
2, 242131, Control_c, 0, 64, 63
2, 242149, Note_on_c, 0, 72, 0
2, 242153, Control_c, 0, 64, 0
2, 242530, Note_on_c, 0, 61, 71
2, 242655, Control_c, 0, 64, 34
2, 242670, Control_c, 0, 64, 56
2, 242686, Control_c, 0, 64, 62
2, 242701, Control_c, 0, 64, 65
2, 242713, Note_on_c, 0, 65, 0
2, 242716, Control_c, 0, 64, 71
2, 242731, Control_c, 0, 64, 87
2, 242746, Control_c, 0, 64, 127
2, 242899, Note_on_c, 0, 66, 94
2, 242922, Control_c, 0, 64, 101
2, 242937, Control_c, 0, 64, 82
2, 242952, Control_c, 0, 64, 71
2, 242952, Note_on_c, 0, 68, 0
2, 242967, Control_c, 0, 64, 64
2, 242982, Control_c, 0, 64, 42
2, 242997, Control_c, 0, 64, 0
2, 243287, Note_on_c, 0, 56, 77
2, 243299, Note_on_c, 0, 57, 0
2, 243465, Note_on_c, 0, 57, 88
2, 243534, Note_on_c, 0, 56, 0
2, 243670, Note_on_c, 0, 65, 87
2, 243686, Note_on_c, 0, 59, 85
2, 243695, Note_on_c, 0, 57, 0
2, 243700, Note_on_c, 0, 66, 0
2, 243702, Note_on_c, 0, 61, 0
2, 244044, Note_on_c, 0, 61, 87
2, 244045, Note_on_c, 0, 57, 75
2, 244074, Note_on_c, 0, 59, 0
2, 244222, Control_c, 0, 64, 53
2, 244237, Control_c, 0, 64, 64
2, 244245, Note_on_c, 0, 65, 0
2, 244253, Control_c, 0, 64, 78
2, 244268, Control_c, 0, 64, 127
2, 244433, Note_on_c, 0, 66, 89
2, 244434, Note_on_c, 0, 69, 82
2, 244444, Note_on_c, 0, 56, 81
2, 244462, Note_on_c, 0, 61, 0
2, 244472, Note_on_c, 0, 57, 0
2, 244473, Control_c, 0, 64, 68
2, 244488, Control_c, 0, 64, 0
2, 244626, Control_c, 0, 64, 44
2, 244642, Control_c, 0, 64, 61
2, 244656, Control_c, 0, 64, 66
2, 244671, Control_c, 0, 64, 86
2, 244687, Control_c, 0, 64, 127
2, 244781, Note_on_c, 0, 66, 0
2, 244867, Note_on_c, 0, 66, 94
2, 244873, Note_on_c, 0, 54, 69
2, 244884, Control_c, 0, 64, 81
2, 244893, Note_on_c, 0, 56, 0
2, 244899, Control_c, 0, 64, 53
2, 244914, Control_c, 0, 64, 0
2, 245052, Control_c, 0, 64, 46
2, 245066, Control_c, 0, 64, 61
2, 245082, Control_c, 0, 64, 65
2, 245097, Control_c, 0, 64, 74
2, 245110, Note_on_c, 0, 69, 0
2, 245112, Control_c, 0, 64, 127
2, 245148, Note_on_c, 0, 66, 0
2, 245353, Note_on_c, 0, 66, 92
2, 245353, Note_on_c, 0, 68, 87
2, 245356, Note_on_c, 0, 61, 78
2, 245394, Control_c, 0, 64, 96
2, 245408, Note_on_c, 0, 54, 0
2, 245410, Control_c, 0, 64, 76
2, 245424, Control_c, 0, 64, 65
2, 245440, Control_c, 0, 64, 36
2, 245455, Control_c, 0, 64, 0
2, 245854, Note_on_c, 0, 59, 79
2, 245875, Note_on_c, 0, 61, 0
2, 246135, Note_on_c, 0, 57, 80
2, 246150, Note_on_c, 0, 59, 0
2, 246419, Note_on_c, 0, 65, 80
2, 246423, Note_on_c, 0, 56, 70
2, 246468, Note_on_c, 0, 66, 0
2, 246474, Note_on_c, 0, 57, 0
2, 247068, Note_on_c, 0, 63, 81
2, 247085, Note_on_c, 0, 54, 67
2, 247135, Note_on_c, 0, 65, 0
2, 247199, Note_on_c, 0, 56, 0
2, 247867, Note_on_c, 0, 65, 70
2, 247886, Note_on_c, 0, 56, 58
2, 247961, Note_on_c, 0, 63, 0
2, 248066, Note_on_c, 0, 54, 0
2, 249986, Control_c, 0, 64, 13
2, 250002, Control_c, 0, 64, 17
2, 250017, Control_c, 0, 64, 22
2, 250031, Control_c, 0, 64, 24
2, 250047, Control_c, 0, 64, 29
2, 250062, Control_c, 0, 64, 33
2, 250077, Control_c, 0, 64, 35
2, 250093, Control_c, 0, 64, 37
2, 250107, Control_c, 0, 64, 40
2, 250123, Control_c, 0, 64, 42
2, 250138, Control_c, 0, 64, 43
2, 250153, Control_c, 0, 64, 44
2, 250169, Control_c, 0, 64, 46
2, 250183, Control_c, 0, 64, 47
2, 250199, Control_c, 0, 64, 49
2, 250214, Control_c, 0, 64, 49
2, 250229, Control_c, 0, 64, 50
2, 250244, Control_c, 0, 64, 51
2, 250322, Control_c, 0, 64, 51
2, 250336, Control_c, 0, 64, 52
2, 250351, Control_c, 0, 64, 53
2, 250412, Control_c, 0, 64, 53
2, 250427, Control_c, 0, 64, 54
2, 250488, Control_c, 0, 64, 54
2, 250503, Control_c, 0, 64, 55
2, 250534, Control_c, 0, 64, 55
2, 250565, Control_c, 0, 64, 56
2, 250580, Control_c, 0, 64, 56
2, 250618, Control_c, 0, 64, 57
2, 250663, Control_c, 0, 64, 57
2, 250693, Control_c, 0, 64, 58
2, 250770, Control_c, 0, 64, 58
2, 250815, Control_c, 0, 64, 59
2, 250830, Control_c, 0, 64, 59
2, 250846, Control_c, 0, 64, 60
2, 250861, Control_c, 0, 64, 60
2, 250876, Control_c, 0, 64, 61
2, 250922, Control_c, 0, 64, 62
2, 250937, Control_c, 0, 64, 62
2, 251447, Control_c, 0, 64, 62
2, 251507, Control_c, 0, 64, 61
2, 251522, Control_c, 0, 64, 61
2, 251537, Control_c, 0, 64, 60
2, 251568, Control_c, 0, 64, 60
2, 251583, Control_c, 0, 64, 59
2, 251599, Control_c, 0, 64, 58
2, 251628, Control_c, 0, 64, 58
2, 251644, Control_c, 0, 64, 57
2, 251659, Control_c, 0, 64, 56
2, 251674, Control_c, 0, 64, 55
2, 251690, Control_c, 0, 64, 54
2, 251735, Control_c, 0, 64, 53
2, 251750, Control_c, 0, 64, 51
2, 251766, Control_c, 0, 64, 50
2, 251796, Control_c, 0, 64, 49
2, 251811, Control_c, 0, 64, 47
2, 251826, Control_c, 0, 64, 44
2, 251842, Control_c, 0, 64, 42
2, 251856, Control_c, 0, 64, 41
2, 251871, Control_c, 0, 64, 39
2, 251887, Control_c, 0, 64, 34
2, 251901, Control_c, 0, 64, 28
2, 251916, Control_c, 0, 64, 24
2, 251933, Control_c, 0, 64, 22
2, 251947, Control_c, 0, 64, 17
2, 251963, Control_c, 0, 64, 0
2, 252210, Note_on_c, 0, 49, 0
2, 252213, Note_on_c, 0, 65, 0
2, 252215, Note_on_c, 0, 73, 0
2, 252231, Note_on_c, 0, 56, 0
2, 252234, Note_on_c, 0, 68, 0
2, 252235, End_track
0, 0, End_of_file
