0, 0, Header, 1, 2, 384
1, 0, Start_track
1, 0, Tempo, 500000
1, 0, Time_signature, 4, 2, 24, 8
1, 1, End_track
2,0,Start_track
2,0, Note_on_c, 0, 49, 70
2,1408, Note_on_c, 0, 48, 63
2,1468, Note_on_c, 0, 49, 0
2,2130, Note_on_c, 0, 52, 80
2,2200, Note_on_c, 0, 48, 0
2,2846, Note_on_c, 0, 51, 67
2,2893, Note_on_c, 0, 52, 0
2,4193, Note_on_c, 0, 56, 78
2,4201, Note_on_c, 0, 49, 51
2,4276, Note_on_c, 0, 51, 0
2,4537, Note_on_c, 0, 51, 61
2,4569, Note_on_c, 0, 49, 0
2,4882, Note_on_c, 0, 51, 0
2,4888, Note_on_c, 0, 52, 54
2,5522, Note_on_c, 0, 55, 77
2,5604, Note_on_c, 0, 56, 0
2,5633, Note_on_c, 0, 52, 0
2,5822, Note_on_c, 0, 51, 62
2,5974, Note_on_c, 0, 49, 66
2,5983, Note_on_c, 0, 51, 0
2,6157, Note_on_c, 0, 59, 85
2,6169, Note_on_c, 0, 51, 57
2,6182, Note_on_c, 0, 49, 0
2,6208, Note_on_c, 0, 55, 0
2,6311, Note_on_c, 0, 51, 0
2,6505, Note_on_c, 0, 56, 60
2,6670, Note_on_c, 0, 56, 0
2,6835, Note_on_c, 0, 58, 77
2,6848, Note_on_c, 0, 49, 52
2,6891, Note_on_c, 0, 59, 0
2,7160, Note_on_c, 0, 51, 52
2,7226, Note_on_c, 0, 49, 0
2,7313, Note_on_c, 0, 51, 0
2,7330, Note_on_c, 0, 52, 51
2,7504, Note_on_c, 0, 54, 49
2,7507, Note_on_c, 0, 52, 0
2,8112, Note_on_c, 0, 56, 61
2,8166, Note_on_c, 0, 58, 0
2,8428, Note_on_c, 0, 52, 56
2,8454, Note_on_c, 0, 54, 0
2,8731, Note_on_c, 0, 61, 83
2,8735, Note_on_c, 0, 57, 70
2,8751, Note_on_c, 0, 51, 51
2,8758, Note_on_c, 0, 52, 0
2,8764, Note_on_c, 0, 56, 0
2,9057, Note_on_c, 0, 49, 59
2,9063, Note_on_c, 0, 51, 0
2,9349, Note_on_c, 0, 60, 76
2,9371, Note_on_c, 0, 51, 57
2,9376, Note_on_c, 0, 61, 0
2,9411, Note_on_c, 0, 49, 0
2,9652, Note_on_c, 0, 57, 0
2,9667, Note_on_c, 0, 56, 55
2,9780, Note_on_c, 0, 56, 0
2,9828, Note_on_c, 0, 54, 49
2,9992, Note_on_c, 0, 64, 81
2,9997, Note_on_c, 0, 54, 0
2,10004, Note_on_c, 0, 56, 54
2,10020, Note_on_c, 0, 49, 52
2,10025, Note_on_c, 0, 51, 0
2,10047, Note_on_c, 0, 60, 0
2,10167, Note_on_c, 0, 56, 0
2,10361, Note_on_c, 0, 61, 57
2,10482, Note_on_c, 0, 61, 0
2,10676, Note_on_c, 0, 63, 75
2,10679, Note_on_c, 0, 54, 51
2,10693, Note_on_c, 0, 64, 0
2,10976, Note_on_c, 0, 56, 54
2,10985, Note_on_c, 0, 47, 53
2,11042, Note_on_c, 0, 49, 0
2,11046, Note_on_c, 0, 54, 0
2,11139, Note_on_c, 0, 57, 66
2,11168, Note_on_c, 0, 56, 0
2,11301, Note_on_c, 0, 45, 50
2,11305, Note_on_c, 0, 47, 0
2,11317, Note_on_c, 0, 59, 65
2,11329, Note_on_c, 0, 57, 0
2,11633, Note_on_c, 0, 44, 57
2,11652, Note_on_c, 0, 45, 0
2,11935, Note_on_c, 0, 61, 67
2,11939, Note_on_c, 0, 45, 44
2,11945, Note_on_c, 0, 44, 0
2,11979, Note_on_c, 0, 63, 0
2,12266, Note_on_c, 0, 57, 73
2,12298, Note_on_c, 0, 59, 0
2,12582, Note_on_c, 0, 66, 83
2,12602, Note_on_c, 0, 56, 62
2,12604, Note_on_c, 0, 46, 56
2,12618, Note_on_c, 0, 61, 0
2,12622, Note_on_c, 0, 57, 0
2,12631, Note_on_c, 0, 45, 0
2,12891, Note_on_c, 0, 54, 72
2,12902, Note_on_c, 0, 56, 0
2,13225, Note_on_c, 0, 54, 0
2,13228, Note_on_c, 0, 48, 62
2,13229, Note_on_c, 0, 56, 48
2,13249, Note_on_c, 0, 46, 0
2,13510, Note_on_c, 0, 64, 71
2,13555, Note_on_c, 0, 66, 0
2,13818, Note_on_c, 0, 63, 73
2,13828, Note_on_c, 0, 48, 0
2,13828, Note_on_c, 0, 54, 51
2,13830, Note_on_c, 0, 49, 51
2,13863, Note_on_c, 0, 64, 0
2,13867, Note_on_c, 0, 56, 0
2,14128, Note_on_c, 0, 61, 77
2,14134, Note_on_c, 0, 52, 59
2,14147, Note_on_c, 0, 54, 0
2,14176, Note_on_c, 0, 63, 0
2,14238, Control_c, 0, 64, 60
2,14254, Control_c, 0, 64, 64
2,14269, Control_c, 0, 64, 70
2,14283, Note_on_c, 0, 52, 0
2,14284, Control_c, 0, 64, 99
2,14299, Control_c, 0, 64, 127
2,14373, Note_on_c, 0, 61, 0
2,14449, Note_on_c, 0, 61, 75
2,14486, Note_on_c, 0, 51, 59
2,14487, Note_on_c, 0, 44, 51
2,14490, Control_c, 0, 64, 82
2,14493, Note_on_c, 0, 49, 0
2,14504, Control_c, 0, 64, 66
2,14519, Control_c, 0, 64, 39
2,14535, Control_c, 0, 64, 0
2,14796, Note_on_c, 0, 45, 57
2,14817, Note_on_c, 0, 44, 0
2,15083, Note_on_c, 0, 68, 83
2,15097, Note_on_c, 0, 45, 0
2,15106, Note_on_c, 0, 47, 56
2,15113, Note_on_c, 0, 59, 56
2,15143, Note_on_c, 0, 61, 0
2,15384, Note_on_c, 0, 51, 0
2,15422, Note_on_c, 0, 50, 47
2,15532, Control_c, 0, 64, 62
2,15547, Control_c, 0, 64, 65
2,15552, Note_on_c, 0, 59, 0
2,15561, Control_c, 0, 64, 68
2,15577, Control_c, 0, 64, 79
2,15592, Control_c, 0, 64, 127
2,15717, Note_on_c, 0, 65, 83
2,15724, Note_on_c, 0, 50, 0
2,15741, Note_on_c, 0, 61, 58
2,15745, Control_c, 0, 64, 107
2,15745, Note_on_c, 0, 49, 60
2,15759, Control_c, 0, 64, 81
2,15773, Note_on_c, 0, 68, 0
2,15775, Control_c, 0, 64, 68
2,15790, Control_c, 0, 64, 57
2,15807, Control_c, 0, 64, 0
2,15819, Note_on_c, 0, 47, 0
2,16057, Note_on_c, 0, 45, 52
2,16163, Control_c, 0, 64, 46
2,16179, Control_c, 0, 64, 63
2,16189, Note_on_c, 0, 61, 0
2,16193, Control_c, 0, 64, 66
2,16209, Control_c, 0, 64, 73
2,16224, Control_c, 0, 64, 87
2,16239, Control_c, 0, 64, 111
2,16255, Control_c, 0, 64, 127
2,16342, Note_on_c, 0, 69, 80
2,16354, Note_on_c, 0, 66, 69
2,16361, Note_on_c, 0, 44, 56
2,16363, Note_on_c, 0, 45, 0
2,16373, Note_on_c, 0, 65, 0
2,16376, Control_c, 0, 64, 96
2,16391, Control_c, 0, 64, 84
2,16406, Control_c, 0, 64, 75
2,16421, Control_c, 0, 64, 68
2,16436, Control_c, 0, 64, 64
2,16452, Control_c, 0, 64, 59
2,16467, Control_c, 0, 64, 50
2,16482, Control_c, 0, 64, 36
2,16497, Control_c, 0, 64, 0
2,16644, Note_on_c, 0, 44, 0
2,16665, Note_on_c, 0, 42, 61
2,16705, Note_on_c, 0, 49, 0
2,16959, Note_on_c, 0, 68, 69
2,16977, Note_on_c, 0, 49, 64
2,16995, Note_on_c, 0, 69, 0
2,16999, Note_on_c, 0, 42, 0
2,17275, Note_on_c, 0, 64, 68
2,17306, Note_on_c, 0, 66, 0
2,17401, Control_c, 0, 64, 33
2,17417, Control_c, 0, 64, 52
2,17432, Control_c, 0, 64, 54
2,17463, Control_c, 0, 64, 53
2,17494, Control_c, 0, 64, 53
2,17509, Control_c, 0, 64, 50
2,17524, Control_c, 0, 64, 47
2,17540, Control_c, 0, 64, 42
2,17561, Control_c, 0, 64, 26
2,17572, Note_on_c, 0, 68, 0
2,17577, Control_c, 0, 64, 0
2,17589, Note_on_c, 0, 63, 63
2,17589, Note_on_c, 0, 66, 69
2,17589, Note_on_c, 0, 73, 76
2,17590, Note_on_c, 0, 45, 64
2,17608, Note_on_c, 0, 64, 0
2,17913, Note_on_c, 0, 61, 83
2,17931, Note_on_c, 0, 63, 0
2,17942, Control_c, 0, 64, 56
2,17956, Control_c, 0, 64, 64
2,17972, Control_c, 0, 64, 70
2,17987, Control_c, 0, 64, 81
2,18002, Control_c, 0, 64, 127
2,18016, Note_on_c, 0, 61, 0
2,18038, Note_on_c, 0, 73, 0
2,18185, Control_c, 0, 64, 97
2,18185, Note_on_c, 0, 49, 0
2,18200, Control_c, 0, 64, 80
2,18200, Note_on_c, 0, 72, 87
2,18215, Control_c, 0, 64, 68
2,18217, Note_on_c, 0, 63, 63
2,18230, Control_c, 0, 64, 55
2,18246, Control_c, 0, 64, 0
2,18521, Note_on_c, 0, 63, 0
2,18522, Note_on_c, 0, 44, 70
2,18543, Control_c, 0, 64, 26
2,18555, Note_on_c, 0, 72, 0
2,18558, Control_c, 0, 64, 59
2,18559, Note_on_c, 0, 66, 0
2,18573, Control_c, 0, 64, 66
2,18575, Note_on_c, 0, 45, 0
2,18588, Control_c, 0, 64, 72
2,18603, Control_c, 0, 64, 90
2,18619, Control_c, 0, 64, 127
2,18710, Control_c, 0, 64, 119
2,18724, Control_c, 0, 64, 106
2,18740, Control_c, 0, 64, 98
2,18755, Control_c, 0, 64, 91
2,18771, Control_c, 0, 64, 85
2,18785, Control_c, 0, 64, 78
2,18800, Control_c, 0, 64, 70
2,18816, Control_c, 0, 64, 65
2,18828, Note_on_c, 0, 76, 84
2,18831, Control_c, 0, 64, 58
2,18835, Note_on_c, 0, 68, 71
2,18838, Note_on_c, 0, 73, 75
2,18847, Control_c, 0, 64, 0
2,18856, Note_on_c, 0, 42, 59
2,18897, Note_on_c, 0, 44, 0
2,19145, Note_on_c, 0, 40, 67
2,19160, Control_c, 0, 64, 43
2,19175, Control_c, 0, 64, 61
2,19175, Note_on_c, 0, 76, 0
2,19181, Note_on_c, 0, 42, 0
2,19190, Control_c, 0, 64, 66
2,19206, Control_c, 0, 64, 72
2,19220, Control_c, 0, 64, 87
2,19235, Control_c, 0, 64, 127
2,19432, Control_c, 0, 64, 98
2,19448, Control_c, 0, 64, 85
2,19463, Control_c, 0, 64, 74
2,19465, Note_on_c, 0, 75, 82
2,19478, Control_c, 0, 64, 66
2,19487, Note_on_c, 0, 42, 61
2,19494, Control_c, 0, 64, 56
2,19509, Control_c, 0, 64, 0
2,19517, Note_on_c, 0, 68, 0
2,19519, Note_on_c, 0, 40, 0
2,19792, Note_on_c, 0, 69, 63
2,19802, Note_on_c, 0, 73, 0
2,20091, Note_on_c, 0, 71, 55
2,20098, Note_on_c, 0, 68, 53
2,20104, Note_on_c, 0, 44, 54
2,20112, Note_on_c, 0, 69, 0
2,20131, Note_on_c, 0, 42, 0
2,20387, Note_on_c, 0, 66, 68
2,20455, Note_on_c, 0, 75, 0
2,20672, Note_on_c, 0, 73, 71
2,20677, Note_on_c, 0, 65, 64
2,20682, Note_on_c, 0, 66, 0
2,20683, Note_on_c, 0, 44, 0
2,20688, Note_on_c, 0, 45, 48
2,20762, Note_on_c, 0, 68, 0
2,20997, Note_on_c, 0, 44, 49
2,21000, Note_on_c, 0, 65, 0
2,21001, Note_on_c, 0, 61, 63
2,21003, Note_on_c, 0, 45, 0
2,21279, Note_on_c, 0, 69, 55
2,21291, Note_on_c, 0, 44, 0
2,21294, Note_on_c, 0, 66, 58
2,21294, Note_on_c, 0, 71, 0
2,21295, Note_on_c, 0, 45, 49
2,21339, Note_on_c, 0, 61, 0
2,21376, Note_on_c, 0, 73, 0
2,21401, Control_c, 0, 64, 26
2,21417, Control_c, 0, 64, 58
2,21432, Control_c, 0, 64, 64
2,21447, Control_c, 0, 64, 69
2,21462, Control_c, 0, 64, 80
2,21477, Control_c, 0, 64, 101
2,21493, Control_c, 0, 64, 127
2,21552, Control_c, 0, 64, 92
2,21567, Control_c, 0, 64, 73
2,21570, Note_on_c, 0, 75, 85
2,21583, Control_c, 0, 64, 60
2,21583, Note_on_c, 0, 45, 0
2,21598, Control_c, 0, 64, 0
2,21604, Note_on_c, 0, 47, 59
2,21604, Note_on_c, 0, 66, 0
2,21619, Note_on_c, 0, 69, 0
2,21673, Control_c, 0, 64, 64
2,21688, Control_c, 0, 64, 71
2,21704, Control_c, 0, 64, 93
2,21719, Control_c, 0, 64, 127
2,21809, Note_on_c, 0, 75, 0
2,21933, Control_c, 0, 64, 90
2,21947, Control_c, 0, 64, 76
2,21949, Note_on_c, 0, 76, 70
2,21962, Control_c, 0, 64, 66
2,21966, Note_on_c, 0, 64, 50
2,21975, Note_on_c, 0, 49, 41
2,21978, Control_c, 0, 64, 49
2,21983, Note_on_c, 0, 47, 0
2,21988, Note_on_c, 0, 68, 40
2,21993, Control_c, 0, 64, 0
2,22290, Note_on_c, 0, 76, 0
2,22291, Note_on_c, 0, 75, 71
2,22305, Note_on_c, 0, 47, 48
2,22335, Note_on_c, 0, 49, 0
2,22398, Note_on_c, 0, 68, 0
2,22566, Note_on_c, 0, 47, 0
2,22582, Note_on_c, 0, 73, 65
2,22590, Note_on_c, 0, 69, 54
2,22591, Note_on_c, 0, 49, 41
2,22616, Note_on_c, 0, 75, 0
2,22874, Note_on_c, 0, 51, 55
2,22879, Note_on_c, 0, 49, 0
2,23198, Note_on_c, 0, 71, 60
2,23217, Note_on_c, 0, 52, 46
2,23220, Note_on_c, 0, 51, 0
2,23254, Note_on_c, 0, 73, 0
2,23349, Note_on_c, 0, 69, 0
2,23423, Control_c, 0, 64, 53
2,23438, Control_c, 0, 64, 63
2,23469, Control_c, 0, 64, 64
2,23483, Control_c, 0, 64, 65
2,23499, Control_c, 0, 64, 69
2,23512, Note_on_c, 0, 68, 46
2,23514, Control_c, 0, 64, 78
2,23529, Control_c, 0, 64, 94
2,23545, Control_c, 0, 64, 127
2,23566, Note_on_c, 0, 68, 0
2,23795, Control_c, 0, 64, 116
2,23803, Note_on_c, 0, 56, 81
2,23810, Control_c, 0, 64, 87
2,23814, Note_on_c, 0, 52, 0
2,23826, Control_c, 0, 64, 73
2,23834, Note_on_c, 0, 49, 48
2,23836, Note_on_c, 0, 73, 52
2,23838, Note_on_c, 0, 71, 0
2,23841, Control_c, 0, 64, 64
2,23842, Note_on_c, 0, 68, 49
2,23846, Note_on_c, 0, 64, 0
2,23847, Note_on_c, 0, 66, 42
2,23856, Control_c, 0, 64, 0
2,24142, Note_on_c, 0, 68, 0
2,24169, Note_on_c, 0, 64, 50
2,24169, Note_on_c, 0, 66, 0
2,24176, Control_c, 0, 64, 63
2,24191, Control_c, 0, 64, 68
2,24205, Control_c, 0, 64, 79
2,24221, Control_c, 0, 64, 127
2,24251, Note_on_c, 0, 64, 0
2,24502, Control_c, 0, 64, 88
2,24502, Note_on_c, 0, 73, 0
2,24507, Note_on_c, 0, 55, 83
2,24508, Note_on_c, 0, 75, 66
2,24517, Control_c, 0, 64, 70
2,24520, Note_on_c, 0, 56, 0
2,24533, Control_c, 0, 64, 48
2,24533, Note_on_c, 0, 70, 53
2,24536, Note_on_c, 0, 63, 44
2,24548, Control_c, 0, 64, 0
2,24836, Note_on_c, 0, 47, 63
2,24838, Control_c, 0, 64, 58
2,24851, Note_on_c, 0, 75, 0
2,24853, Control_c, 0, 64, 67
2,24855, Note_on_c, 0, 70, 0
2,24866, Note_on_c, 0, 49, 0
2,24868, Control_c, 0, 64, 79
2,24883, Control_c, 0, 64, 127
2,24895, Note_on_c, 0, 63, 0
2,25134, Note_on_c, 0, 59, 84
2,25138, Note_on_c, 0, 68, 74
2,25141, Control_c, 0, 64, 96
2,25147, Note_on_c, 0, 46, 63
2,25156, Control_c, 0, 64, 71
2,25162, Note_on_c, 0, 47, 0
2,25170, Control_c, 0, 64, 50
2,25178, Note_on_c, 0, 55, 0
2,25186, Control_c, 0, 64, 0
2,25441, Note_on_c, 0, 46, 0
2,25445, Note_on_c, 0, 44, 64
2,25736, Note_on_c, 0, 59, 0
2,25752, Note_on_c, 0, 58, 79
2,25771, Note_on_c, 0, 49, 55
2,25810, Note_on_c, 0, 44, 0
2,26059, Note_on_c, 0, 76, 65
2,26352, Note_on_c, 0, 75, 66
2,26363, Note_on_c, 0, 51, 49
2,26364, Note_on_c, 0, 49, 0
2,26364, Note_on_c, 0, 67, 53
2,26381, Note_on_c, 0, 68, 0
2,26401, Note_on_c, 0, 76, 0
2,26666, Note_on_c, 0, 73, 68
2,26709, Note_on_c, 0, 75, 0
2,26722, Control_c, 0, 64, 33
2,26734, Note_on_c, 0, 58, 0
2,26737, Control_c, 0, 64, 57
2,26737, Note_on_c, 0, 67, 0
2,26760, Control_c, 0, 64, 64
2,26776, Control_c, 0, 64, 71
2,26790, Control_c, 0, 64, 97
2,26805, Control_c, 0, 64, 127
2,26966, Note_on_c, 0, 71, 65
2,26968, Note_on_c, 0, 73, 0
2,26970, Note_on_c, 0, 68, 51
2,26973, Control_c, 0, 64, 88
2,26973, Note_on_c, 0, 56, 41
2,26982, Note_on_c, 0, 44, 50
2,26988, Control_c, 0, 64, 65
2,27003, Control_c, 0, 64, 0
2,27016, Note_on_c, 0, 51, 0
2,27125, Control_c, 0, 64, 59
2,27141, Control_c, 0, 64, 65
2,27155, Control_c, 0, 64, 70
2,27170, Control_c, 0, 64, 85
2,27186, Control_c, 0, 64, 127
2,27235, Note_on_c, 0, 44, 0
2,27266, Note_on_c, 0, 75, 75
2,27269, Note_on_c, 0, 57, 63
2,27282, Note_on_c, 0, 56, 0
2,27290, Note_on_c, 0, 71, 0
2,27398, Control_c, 0, 64, 104
2,27414, Control_c, 0, 64, 90
2,27428, Control_c, 0, 64, 81
2,27443, Control_c, 0, 64, 77
2,27459, Control_c, 0, 64, 76
2,27474, Control_c, 0, 64, 75
2,27489, Control_c, 0, 64, 74
2,27505, Control_c, 0, 64, 71
2,27520, Control_c, 0, 64, 68
2,27543, Control_c, 0, 64, 64
2,27558, Control_c, 0, 64, 62
2,27562, Note_on_c, 0, 57, 0
2,27574, Control_c, 0, 64, 56
2,27578, Note_on_c, 0, 80, 64
2,27580, Note_on_c, 0, 59, 43
2,27581, Note_on_c, 0, 56, 46
2,27588, Control_c, 0, 64, 42
2,27603, Control_c, 0, 64, 0
2,27610, Note_on_c, 0, 68, 0
2,27630, Note_on_c, 0, 75, 0
2,27864, Note_on_c, 0, 54, 69
2,27895, Note_on_c, 0, 56, 0
2,28185, Note_on_c, 0, 54, 0
2,28189, Note_on_c, 0, 61, 56
2,28201, Note_on_c, 0, 53, 66
2,28237, Note_on_c, 0, 59, 0
2,28479, Note_on_c, 0, 78, 74
2,28515, Note_on_c, 0, 80, 0
2,28783, Note_on_c, 0, 80, 78
2,28790, Note_on_c, 0, 57, 63
2,28812, Note_on_c, 0, 53, 0
2,28813, Note_on_c, 0, 61, 0
2,28836, Note_on_c, 0, 78, 0
2,29079, Note_on_c, 0, 81, 84
2,29088, Note_on_c, 0, 61, 57
2,29151, Note_on_c, 0, 80, 0
2,29456, Note_on_c, 0, 83, 74
2,29471, Note_on_c, 0, 63, 51
2,29472, Note_on_c, 0, 56, 51
2,29493, Note_on_c, 0, 57, 0
2,29512, Note_on_c, 0, 61, 0
2,29534, Note_on_c, 0, 81, 0
2,29810, Note_on_c, 0, 61, 60
2,29836, Note_on_c, 0, 63, 0
2,30100, Note_on_c, 0, 63, 64
2,30116, Note_on_c, 0, 61, 0
2,30365, Note_on_c, 0, 65, 68
2,30372, Note_on_c, 0, 63, 0
2,30457, Control_c, 0, 64, 60
2,30472, Control_c, 0, 64, 66
2,30488, Control_c, 0, 64, 76
2,30500, Note_on_c, 0, 65, 0
2,30503, Control_c, 0, 64, 98
2,30518, Control_c, 0, 64, 127
2,30683, Note_on_c, 0, 66, 71
2,30694, Control_c, 0, 64, 96
2,30701, Note_on_c, 0, 54, 57
2,30709, Control_c, 0, 64, 76
2,30724, Control_c, 0, 64, 67
2,30725, Note_on_c, 0, 56, 0
2,30739, Control_c, 0, 64, 56
2,30754, Control_c, 0, 64, 0
2,30957, Note_on_c, 0, 81, 74
2,30967, Note_on_c, 0, 83, 0
2,31013, Control_c, 0, 64, 40
2,31028, Control_c, 0, 64, 55
2,31043, Control_c, 0, 64, 62
2,31059, Control_c, 0, 64, 65
2,31073, Control_c, 0, 64, 67
2,31089, Control_c, 0, 64, 69
2,31104, Control_c, 0, 64, 73
2,31119, Control_c, 0, 64, 79
2,31135, Control_c, 0, 64, 82
2,31179, Control_c, 0, 64, 81
2,31194, Control_c, 0, 64, 81
2,31210, Control_c, 0, 64, 79
2,31224, Control_c, 0, 64, 77
2,31239, Control_c, 0, 64, 74
2,31255, Control_c, 0, 64, 70
2,31270, Control_c, 0, 64, 65
2,31284, Note_on_c, 0, 61, 76
2,31285, Control_c, 0, 64, 55
2,31285, Note_on_c, 0, 80, 60
2,31295, Note_on_c, 0, 69, 46
2,31301, Control_c, 0, 64, 0
2,31353, Note_on_c, 0, 66, 0
2,31383, Note_on_c, 0, 81, 0
2,31537, Control_c, 0, 64, 49
2,31552, Control_c, 0, 64, 61
2,31568, Control_c, 0, 64, 64
2,31582, Control_c, 0, 64, 66
2,31597, Control_c, 0, 64, 68
2,31599, Note_on_c, 0, 78, 66
2,31613, Control_c, 0, 64, 71
2,31628, Control_c, 0, 64, 77
2,31628, Note_on_c, 0, 80, 0
2,31639, Note_on_c, 0, 69, 0
2,31643, Control_c, 0, 64, 82
2,31737, Control_c, 0, 64, 81
2,31752, Control_c, 0, 64, 79
2,31768, Control_c, 0, 64, 78
2,31782, Control_c, 0, 64, 77
2,31797, Control_c, 0, 64, 75
2,31813, Control_c, 0, 64, 73
2,31828, Control_c, 0, 64, 70
2,31844, Control_c, 0, 64, 67
2,31858, Control_c, 0, 64, 64
2,31873, Control_c, 0, 64, 53
2,31884, Note_on_c, 0, 68, 61
2,31889, Control_c, 0, 64, 0
2,31893, Note_on_c, 0, 60, 71
2,31899, Note_on_c, 0, 80, 58
2,31901, Note_on_c, 0, 78, 0
2,31913, Note_on_c, 0, 61, 0
2,32051, Note_on_c, 0, 78, 72
2,32053, Note_on_c, 0, 80, 0
2,32070, Control_c, 0, 64, 42
2,32086, Control_c, 0, 64, 58
2,32101, Control_c, 0, 64, 62
2,32116, Control_c, 0, 64, 62
2,32125, Note_on_c, 0, 78, 0
2,32132, Control_c, 0, 64, 63
2,32154, Control_c, 0, 64, 63
2,32163, Note_on_c, 0, 54, 0
2,32175, Note_on_c, 0, 56, 58
2,32178, Note_on_c, 0, 76, 70
2,32185, Control_c, 0, 64, 64
2,32231, Control_c, 0, 64, 63
2,32262, Control_c, 0, 64, 63
2,32277, Control_c, 0, 64, 62
2,32293, Control_c, 0, 64, 62
2,32293, Note_on_c, 0, 54, 70
2,32301, Note_on_c, 0, 60, 0
2,32303, Note_on_c, 0, 56, 0
2,32305, Note_on_c, 0, 75, 73
2,32307, Control_c, 0, 64, 61
2,32323, Control_c, 0, 64, 60
2,32337, Note_on_c, 0, 76, 0
2,32338, Control_c, 0, 64, 59
2,32352, Control_c, 0, 64, 56
2,32368, Control_c, 0, 64, 53
2,32383, Control_c, 0, 64, 51
2,32398, Control_c, 0, 64, 49
2,32414, Control_c, 0, 64, 43
2,32428, Control_c, 0, 64, 24
2,32444, Control_c, 0, 64, 0
2,32445, Note_on_c, 0, 64, 76
2,32454, Note_on_c, 0, 73, 72
2,32459, Note_on_c, 0, 52, 67
2,32487, Note_on_c, 0, 54, 0
2,32500, Note_on_c, 0, 75, 0
2,32520, Note_on_c, 0, 68, 0
2,32595, Note_on_c, 0, 71, 66
2,32721, Note_on_c, 0, 71, 0
2,32728, Note_on_c, 0, 54, 73
2,32730, Note_on_c, 0, 52, 0
2,32734, Note_on_c, 0, 69, 67
2,32825, Note_on_c, 0, 64, 0
2,32856, Note_on_c, 0, 56, 81
2,32862, Note_on_c, 0, 54, 0
2,32864, Note_on_c, 0, 69, 0
2,32867, Note_on_c, 0, 68, 72
2,33025, Note_on_c, 0, 56, 0
2,33026, Note_on_c, 0, 63, 73
2,33027, Note_on_c, 0, 57, 75
2,33038, Note_on_c, 0, 66, 71
2,33061, Note_on_c, 0, 68, 0
2,33360, Note_on_c, 0, 69, 67
2,33361, Note_on_c, 0, 54, 62
2,33367, Note_on_c, 0, 57, 0
2,33370, Note_on_c, 0, 66, 0
2,33650, Note_on_c, 0, 54, 0
2,33661, Note_on_c, 0, 69, 0
2,33663, Note_on_c, 0, 56, 53
2,33663, Note_on_c, 0, 71, 60
2,33669, Note_on_c, 0, 68, 63
2,33717, Note_on_c, 0, 73, 0
2,33974, Note_on_c, 0, 66, 77
2,33987, Note_on_c, 0, 68, 0
2,34121, Note_on_c, 0, 63, 0
2,34133, Control_c, 0, 64, 51
2,34148, Control_c, 0, 64, 63
2,34163, Control_c, 0, 64, 66
2,34178, Control_c, 0, 64, 70
2,34193, Control_c, 0, 64, 78
2,34209, Control_c, 0, 64, 98
2,34224, Control_c, 0, 64, 127
2,34355, Note_on_c, 0, 65, 73
2,34357, Note_on_c, 0, 61, 49
2,34361, Control_c, 0, 64, 104
2,34365, Note_on_c, 0, 49, 50
2,34376, Control_c, 0, 64, 89
2,34381, Note_on_c, 0, 66, 0
2,34391, Control_c, 0, 64, 80
2,34407, Control_c, 0, 64, 72
2,34421, Control_c, 0, 64, 65
2,34436, Control_c, 0, 64, 53
2,34459, Control_c, 0, 64, 0
2,34473, Note_on_c, 0, 56, 0
2,34726, Note_on_c, 0, 73, 69
2,34768, Note_on_c, 0, 71, 0
2,35030, Note_on_c, 0, 71, 68
2,35039, Note_on_c, 0, 66, 68
2,35060, Note_on_c, 0, 65, 0
2,35086, Note_on_c, 0, 73, 0
2,35322, Note_on_c, 0, 69, 71
2,35325, Note_on_c, 0, 71, 0
2,35610, Note_on_c, 0, 68, 69
2,35623, Note_on_c, 0, 69, 0
2,35893, Note_on_c, 0, 66, 0
2,35894, Note_on_c, 0, 64, 62
2,36013, Control_c, 0, 64, 32
2,36028, Control_c, 0, 64, 50
2,36044, Control_c, 0, 64, 60
2,36059, Control_c, 0, 64, 62
2,36149, Control_c, 0, 64, 62
2,36165, Control_c, 0, 64, 61
2,36180, Control_c, 0, 64, 60
2,36188, Note_on_c, 0, 70, 75
2,36195, Control_c, 0, 64, 56
2,36210, Control_c, 0, 64, 46
2,36213, Note_on_c, 0, 47, 45
2,36225, Control_c, 0, 64, 0
2,36247, Note_on_c, 0, 68, 0
2,36456, Note_on_c, 0, 71, 77
2,36485, Control_c, 0, 64, 43
2,36494, Note_on_c, 0, 70, 0
2,36500, Control_c, 0, 64, 49
2,36515, Control_c, 0, 64, 55
2,36530, Control_c, 0, 64, 60
2,36535, Note_on_c, 0, 47, 0
2,36545, Control_c, 0, 64, 62
2,36561, Control_c, 0, 64, 64
2,36576, Control_c, 0, 64, 66
2,36591, Control_c, 0, 64, 70
2,36607, Control_c, 0, 64, 75
2,36621, Control_c, 0, 64, 78
2,36637, Control_c, 0, 64, 79
2,36667, Control_c, 0, 64, 79
2,36697, Control_c, 0, 64, 80
2,36743, Control_c, 0, 64, 78
2,36766, Control_c, 0, 64, 76
2,36781, Control_c, 0, 64, 73
2,36797, Control_c, 0, 64, 71
2,36799, Note_on_c, 0, 73, 72
2,36812, Control_c, 0, 64, 68
2,36826, Control_c, 0, 64, 65
2,36830, Note_on_c, 0, 61, 0
2,36836, Note_on_c, 0, 46, 39
2,36838, Note_on_c, 0, 54, 37
2,36842, Control_c, 0, 64, 58
2,36857, Control_c, 0, 64, 0
2,36860, Note_on_c, 0, 71, 0
2,37117, Control_c, 0, 64, 24
2,37131, Control_c, 0, 64, 49
2,37145, Note_on_c, 0, 64, 0
2,37146, Control_c, 0, 64, 58
2,37148, Note_on_c, 0, 54, 0
2,37151, Note_on_c, 0, 46, 0
2,37154, Note_on_c, 0, 56, 48
2,37156, Note_on_c, 0, 49, 0
2,37162, Control_c, 0, 64, 63
2,37177, Control_c, 0, 64, 65
2,37193, Control_c, 0, 64, 70
2,37208, Control_c, 0, 64, 80
2,37222, Control_c, 0, 64, 101
2,37238, Control_c, 0, 64, 127
2,37437, Note_on_c, 0, 71, 73
2,37451, Control_c, 0, 64, 94
2,37459, Note_on_c, 0, 63, 58
2,37463, Note_on_c, 0, 56, 0
2,37465, Control_c, 0, 64, 79
2,37467, Note_on_c, 0, 54, 45
2,37468, Note_on_c, 0, 58, 46
2,37470, Note_on_c, 0, 51, 37
2,37478, Note_on_c, 0, 73, 0
2,37481, Control_c, 0, 64, 69
2,37496, Control_c, 0, 64, 63
2,37511, Control_c, 0, 64, 13
2,37534, Control_c, 0, 64, 0
2,37737, Note_on_c, 0, 54, 0
2,37753, Note_on_c, 0, 58, 0
2,37762, Control_c, 0, 64, 33
2,37768, Note_on_c, 0, 59, 55
2,37777, Control_c, 0, 64, 55
2,37793, Control_c, 0, 64, 61
2,37807, Control_c, 0, 64, 63
2,37822, Control_c, 0, 64, 64
2,37835, Note_on_c, 0, 63, 0
2,37838, Control_c, 0, 64, 66
2,37853, Control_c, 0, 64, 67
2,37868, Control_c, 0, 64, 70
2,37883, Control_c, 0, 64, 74
2,37898, Control_c, 0, 64, 79
2,37914, Control_c, 0, 64, 82
2,37930, Control_c, 0, 64, 83
2,37990, Control_c, 0, 64, 82
2,38006, Control_c, 0, 64, 80
2,38021, Control_c, 0, 64, 76
2,38025, Note_on_c, 0, 64, 61
2,38035, Note_on_c, 0, 61, 56
2,38037, Control_c, 0, 64, 72
2,38045, Note_on_c, 0, 52, 56
2,38050, Note_on_c, 0, 51, 0
2,38052, Control_c, 0, 64, 69
2,38062, Note_on_c, 0, 49, 44
2,38065, Control_c, 0, 64, 65
2,38077, Note_on_c, 0, 59, 0
2,38081, Control_c, 0, 64, 63
2,38096, Control_c, 0, 64, 59
2,38110, Control_c, 0, 64, 47
2,38126, Control_c, 0, 64, 0
2,38331, Note_on_c, 0, 51, 61
2,38356, Note_on_c, 0, 52, 0
2,38605, Note_on_c, 0, 51, 0
2,38620, Note_on_c, 0, 70, 72
2,38626, Note_on_c, 0, 52, 50
2,38648, Note_on_c, 0, 71, 0
2,38913, Note_on_c, 0, 52, 0
2,38949, Note_on_c, 0, 54, 50
2,39114, Control_c, 0, 64, 34
2,39129, Control_c, 0, 64, 53
2,39144, Control_c, 0, 64, 58
2,39160, Control_c, 0, 64, 61
2,39175, Control_c, 0, 64, 62
2,39190, Control_c, 0, 64, 63
2,39206, Control_c, 0, 64, 63
2,39217, Note_on_c, 0, 61, 0
2,39266, Control_c, 0, 64, 62
2,39282, Control_c, 0, 64, 62
2,39290, Note_on_c, 0, 71, 55
2,39296, Control_c, 0, 64, 60
2,39299, Note_on_c, 0, 56, 34
2,39311, Control_c, 0, 64, 56
2,39316, Note_on_c, 0, 47, 49
2,39322, Note_on_c, 0, 49, 0
2,39327, Control_c, 0, 64, 47
2,39342, Control_c, 0, 64, 13
2,39354, Note_on_c, 0, 54, 0
2,39358, Control_c, 0, 64, 0
2,39360, Note_on_c, 0, 70, 0
2,39618, Note_on_c, 0, 63, 47
2,39622, Note_on_c, 0, 54, 40
2,39653, Note_on_c, 0, 64, 0
2,39659, Note_on_c, 0, 56, 0
2,39708, Control_c, 0, 64, 46
2,39723, Control_c, 0, 64, 56
2,39738, Control_c, 0, 64, 60
2,39754, Control_c, 0, 64, 63
2,39769, Control_c, 0, 64, 64
2,39784, Control_c, 0, 64, 65
2,39799, Control_c, 0, 64, 66
2,39814, Control_c, 0, 64, 68
2,39838, Control_c, 0, 64, 68
2,39883, Control_c, 0, 64, 67
2,39898, Control_c, 0, 64, 66
2,39902, Note_on_c, 0, 64, 76
2,39914, Control_c, 0, 64, 65
2,39918, Note_on_c, 0, 56, 48
2,39927, Note_on_c, 0, 63, 0
2,39928, Control_c, 0, 64, 63
2,39936, Note_on_c, 0, 54, 0
2,39943, Control_c, 0, 64, 53
2,39959, Control_c, 0, 64, 0
2,40172, Control_c, 0, 64, 33
2,40186, Control_c, 0, 64, 54
2,40200, Note_on_c, 0, 56, 0
2,40202, Control_c, 0, 64, 60
2,40204, Note_on_c, 0, 57, 43
2,40210, Note_on_c, 0, 66, 55
2,40217, Control_c, 0, 64, 62
2,40233, Control_c, 0, 64, 63
2,40262, Control_c, 0, 64, 64
2,40325, Note_on_c, 0, 64, 0
2,40358, Note_on_c, 0, 68, 61
2,40359, Note_on_c, 0, 66, 0
2,40369, Control_c, 0, 64, 63
2,40385, Control_c, 0, 64, 63
2,40401, Control_c, 0, 64, 62
2,40416, Control_c, 0, 64, 59
2,40431, Control_c, 0, 64, 52
2,40446, Control_c, 0, 64, 20
2,40461, Control_c, 0, 64, 0
2,40496, Note_on_c, 0, 63, 75
2,40499, Note_on_c, 0, 66, 68
2,40518, Note_on_c, 0, 59, 51
2,40529, Note_on_c, 0, 68, 0
2,40548, Note_on_c, 0, 57, 0
2,40606, Control_c, 0, 64, 13
2,40621, Control_c, 0, 64, 47
2,40637, Control_c, 0, 64, 56
2,40651, Control_c, 0, 64, 62
2,40666, Control_c, 0, 64, 65
2,40682, Control_c, 0, 64, 68
2,40696, Control_c, 0, 64, 73
2,40711, Control_c, 0, 64, 79
2,40727, Control_c, 0, 64, 80
2,40742, Control_c, 0, 64, 80
2,40758, Control_c, 0, 64, 75
2,40772, Control_c, 0, 64, 67
2,40787, Control_c, 0, 64, 54
2,40796, Note_on_c, 0, 66, 0
2,40800, Note_on_c, 0, 73, 80
2,40803, Control_c, 0, 64, 0
2,40811, Note_on_c, 0, 56, 49
2,40854, Note_on_c, 0, 71, 0
2,40863, Control_c, 0, 64, 60
2,40879, Control_c, 0, 64, 64
2,40884, Note_on_c, 0, 63, 0
2,40894, Control_c, 0, 64, 66
2,40908, Control_c, 0, 64, 69
2,40924, Control_c, 0, 64, 76
2,40939, Control_c, 0, 64, 91
2,40955, Control_c, 0, 64, 127
2,40982, Note_on_c, 0, 47, 0
2,41015, Control_c, 0, 64, 122
2,41030, Control_c, 0, 64, 109
2,41046, Control_c, 0, 64, 99
2,41061, Control_c, 0, 64, 87
2,41077, Control_c, 0, 64, 74
2,41088, Note_on_c, 0, 71, 64
2,41088, Note_on_c, 0, 75, 79
2,41092, Control_c, 0, 64, 63
2,41094, Note_on_c, 0, 68, 63
2,41106, Control_c, 0, 64, 0
2,41115, Note_on_c, 0, 54, 55
2,41117, Note_on_c, 0, 73, 0
2,41120, Note_on_c, 0, 56, 0
2,41198, Control_c, 0, 64, 54
2,41214, Control_c, 0, 64, 62
2,41229, Control_c, 0, 64, 64
2,41245, Control_c, 0, 64, 66
2,41260, Control_c, 0, 64, 67
2,41276, Control_c, 0, 64, 70
2,41290, Control_c, 0, 64, 74
2,41305, Control_c, 0, 64, 77
2,41320, Note_on_c, 0, 75, 0
2,41350, Control_c, 0, 64, 76
2,41373, Control_c, 0, 64, 74
2,41388, Control_c, 0, 64, 69
2,41399, Note_on_c, 0, 76, 72
2,41404, Control_c, 0, 64, 63
2,41417, Note_on_c, 0, 52, 58
2,41419, Control_c, 0, 64, 0
2,41426, Note_on_c, 0, 54, 0
2,41514, Note_on_c, 0, 68, 0
2,41540, Control_c, 0, 64, 17
2,41556, Control_c, 0, 64, 32
2,41563, Note_on_c, 0, 59, 0
2,41571, Control_c, 0, 64, 37
2,41602, Control_c, 0, 64, 33
2,41616, Control_c, 0, 64, 13
2,41631, Control_c, 0, 64, 0
2,41647, Control_c, 0, 64, 17
2,41662, Control_c, 0, 64, 22
2,41678, Control_c, 0, 64, 17
2,41692, Control_c, 0, 64, 0
2,41708, Note_on_c, 0, 66, 64
2,41715, Note_on_c, 0, 59, 47
2,41812, Note_on_c, 0, 52, 0
2,42015, Note_on_c, 0, 73, 64
2,42037, Note_on_c, 0, 71, 0
2,42057, Control_c, 0, 64, 32
2,42073, Control_c, 0, 64, 33
2,42088, Control_c, 0, 64, 40
2,42103, Control_c, 0, 64, 48
2,42119, Control_c, 0, 64, 54
2,42140, Control_c, 0, 64, 56
2,42156, Control_c, 0, 64, 56
2,42171, Control_c, 0, 64, 58
2,42186, Control_c, 0, 64, 59
2,42202, Control_c, 0, 64, 60
2,42233, Control_c, 0, 64, 58
2,42246, Control_c, 0, 64, 53
2,42260, Control_c, 0, 64, 45
2,42275, Control_c, 0, 64, 0
2,42331, Note_on_c, 0, 75, 65
2,42340, Note_on_c, 0, 71, 52
2,42346, Note_on_c, 0, 47, 39
2,42355, Note_on_c, 0, 76, 0
2,42414, Note_on_c, 0, 73, 0
2,42427, Control_c, 0, 64, 59
2,42443, Control_c, 0, 64, 67
2,42457, Control_c, 0, 64, 75
2,42468, Note_on_c, 0, 71, 0
2,42472, Control_c, 0, 64, 92
2,42488, Control_c, 0, 64, 127
2,42655, Note_on_c, 0, 69, 53
2,42709, Note_on_c, 0, 66, 0
2,42742, Note_on_c, 0, 69, 0
2,42790, Control_c, 0, 67, 8
2,42805, Control_c, 0, 67, 23
2,42821, Control_c, 0, 67, 45
2,42836, Control_c, 0, 67, 63
2,42852, Control_c, 0, 67, 77
2,42867, Control_c, 0, 67, 88
2,42882, Control_c, 0, 67, 97
2,42905, Control_c, 0, 67, 105
2,42920, Control_c, 0, 67, 110
2,42936, Control_c, 0, 67, 114
2,42950, Control_c, 0, 67, 117
2,42965, Control_c, 0, 67, 120
2,42972, Note_on_c, 0, 76, 56
2,42981, Control_c, 0, 67, 123
2,42994, Note_on_c, 0, 64, 43
2,42995, Note_on_c, 0, 68, 53
2,42996, Control_c, 0, 64, 106
2,42996, Control_c, 0, 67, 126
2,42996, Note_on_c, 0, 52, 55
2,43000, Note_on_c, 0, 75, 0
2,43003, Note_on_c, 0, 47, 0
2,43012, Control_c, 0, 64, 87
2,43012, Control_c, 0, 67, 127
2,43026, Control_c, 0, 64, 77
2,43041, Control_c, 0, 64, 70
2,43057, Control_c, 0, 64, 65
2,43072, Control_c, 0, 64, 61
2,43088, Control_c, 0, 64, 55
2,43102, Control_c, 0, 64, 55
2,43117, Control_c, 0, 64, 54
2,43133, Control_c, 0, 64, 50
2,43148, Control_c, 0, 64, 36
2,43163, Control_c, 0, 64, 0
2,43295, Note_on_c, 0, 75, 66
2,43302, Note_on_c, 0, 76, 0
2,43570, Note_on_c, 0, 68, 0
2,43574, Note_on_c, 0, 64, 0
2,43607, Note_on_c, 0, 76, 61
2,43609, Note_on_c, 0, 61, 51
2,43612, Note_on_c, 0, 57, 44
2,43626, Note_on_c, 0, 75, 0
2,43667, Note_on_c, 0, 52, 0
2,43667, Note_on_c, 0, 59, 0
2,43894, Note_on_c, 0, 76, 0
2,43902, Note_on_c, 0, 78, 64
2,44197, Note_on_c, 0, 80, 64
2,44213, Note_on_c, 0, 60, 45
2,44215, Note_on_c, 0, 56, 40
2,44218, Note_on_c, 0, 78, 0
2,44238, Note_on_c, 0, 57, 0
2,44257, Note_on_c, 0, 61, 0
2,44358, Note_on_c, 0, 78, 62
2,44368, Note_on_c, 0, 80, 0
2,44509, Note_on_c, 0, 80, 67
2,44536, Note_on_c, 0, 78, 0
2,44659, Note_on_c, 0, 81, 67
2,44682, Note_on_c, 0, 80, 0
2,44786, Note_on_c, 0, 60, 0
2,44805, Note_on_c, 0, 64, 48
2,44813, Note_on_c, 0, 80, 60
2,44816, Note_on_c, 0, 61, 47
2,44832, Note_on_c, 0, 81, 0
2,44877, Note_on_c, 0, 56, 0
2,44968, Note_on_c, 0, 78, 59
2,45010, Note_on_c, 0, 80, 0
2,45116, Note_on_c, 0, 78, 0
2,45123, Note_on_c, 0, 76, 62
2,45266, Note_on_c, 0, 76, 0
2,45277, Note_on_c, 0, 80, 61
2,45425, Note_on_c, 0, 78, 64
2,45427, Note_on_c, 0, 64, 0
2,45441, Note_on_c, 0, 63, 52
2,45444, Note_on_c, 0, 80, 0
2,45580, Note_on_c, 0, 76, 62
2,45587, Note_on_c, 0, 78, 0
2,45725, Note_on_c, 0, 78, 59
2,45739, Note_on_c, 0, 76, 0
2,45881, Note_on_c, 0, 80, 60
2,45900, Note_on_c, 0, 78, 0
2,46047, Note_on_c, 0, 78, 54
2,46051, Note_on_c, 0, 60, 46
2,46076, Note_on_c, 0, 80, 0
2,46111, Note_on_c, 0, 61, 0
2,46193, Note_on_c, 0, 76, 63
2,46196, Note_on_c, 0, 78, 0
2,46318, Note_on_c, 0, 76, 0
2,46343, Note_on_c, 0, 75, 60
2,46493, Note_on_c, 0, 75, 0
2,46493, Note_on_c, 0, 78, 60
2,46639, Note_on_c, 0, 76, 55
2,46648, Note_on_c, 0, 78, 0
2,46660, Note_on_c, 0, 61, 43
2,46671, Note_on_c, 0, 60, 0
2,46707, Note_on_c, 0, 63, 0
2,46816, Note_on_c, 0, 76, 0
2,46823, Note_on_c, 0, 75, 63
2,46967, Note_on_c, 0, 75, 0
2,46970, Note_on_c, 0, 76, 62
2,47124, Note_on_c, 0, 78, 65
2,47125, Note_on_c, 0, 76, 0
2,47272, Note_on_c, 0, 68, 70
2,47272, Note_on_c, 0, 76, 60
2,47303, Note_on_c, 0, 78, 0
2,47421, Note_on_c, 0, 75, 61
2,47451, Note_on_c, 0, 76, 0
2,47565, Note_on_c, 0, 75, 0
2,47573, Note_on_c, 0, 73, 53
2,47574, Control_c, 0, 64, 53
2,47588, Control_c, 0, 64, 64
2,47603, Control_c, 0, 64, 68
2,47619, Control_c, 0, 64, 79
2,47633, Control_c, 0, 64, 127
2,47709, Note_on_c, 0, 76, 63
2,47755, Note_on_c, 0, 73, 0
2,47767, Note_on_c, 0, 68, 0
2,47856, Note_on_c, 0, 75, 71
2,47857, Note_on_c, 0, 67, 71
2,47863, Control_c, 0, 64, 83
2,47877, Control_c, 0, 64, 64
2,47879, Note_on_c, 0, 76, 0
2,47893, Control_c, 0, 64, 0
2,48007, Note_on_c, 0, 73, 62
2,48015, Control_c, 0, 64, 31
2,48018, Note_on_c, 0, 75, 0
2,48030, Control_c, 0, 64, 63
2,48045, Control_c, 0, 64, 66
2,48060, Control_c, 0, 64, 69
2,48075, Control_c, 0, 64, 72
2,48091, Control_c, 0, 64, 76
2,48106, Control_c, 0, 64, 79
2,48121, Control_c, 0, 64, 79
2,48145, Note_on_c, 0, 75, 63
2,48153, Note_on_c, 0, 59, 58
2,48167, Control_c, 0, 64, 78
2,48182, Control_c, 0, 64, 73
2,48194, Note_on_c, 0, 61, 0
2,48197, Control_c, 0, 64, 65
2,48212, Control_c, 0, 64, 31
2,48227, Control_c, 0, 64, 0
2,48294, Note_on_c, 0, 76, 64
2,48296, Control_c, 0, 64, 55
2,48306, Note_on_c, 0, 73, 0
2,48311, Control_c, 0, 64, 64
2,48327, Control_c, 0, 64, 68
2,48334, Note_on_c, 0, 75, 0
2,48342, Control_c, 0, 64, 73
2,48356, Control_c, 0, 64, 83
2,48372, Control_c, 0, 64, 93
2,48387, Control_c, 0, 64, 94
2,48417, Control_c, 0, 64, 93
2,48432, Control_c, 0, 64, 86
2,48444, Note_on_c, 0, 58, 61
2,48447, Note_on_c, 0, 71, 70
2,48447, Note_on_c, 0, 75, 76
2,48448, Control_c, 0, 64, 75
2,48463, Control_c, 0, 64, 64
2,48476, Note_on_c, 0, 76, 0
2,48477, Control_c, 0, 64, 0
2,48492, Note_on_c, 0, 59, 0
2,48509, Note_on_c, 0, 67, 0
2,48553, Control_c, 0, 64, 49
2,48569, Control_c, 0, 64, 64
2,48585, Control_c, 0, 64, 67
2,48600, Control_c, 0, 64, 69
2,48615, Note_on_c, 0, 73, 59
2,48616, Control_c, 0, 64, 71
2,48631, Control_c, 0, 64, 72
2,48659, Note_on_c, 0, 71, 0
2,48676, Control_c, 0, 64, 71
2,48692, Control_c, 0, 64, 70
2,48694, Note_on_c, 0, 75, 0
2,48706, Control_c, 0, 64, 69
2,48721, Control_c, 0, 64, 67
2,48737, Control_c, 0, 64, 65
2,48737, Note_on_c, 0, 56, 52
2,48752, Control_c, 0, 64, 63
2,48765, Note_on_c, 0, 71, 71
2,48768, Control_c, 0, 64, 59
2,48768, Note_on_c, 0, 73, 0
2,48774, Note_on_c, 0, 58, 0
2,48783, Control_c, 0, 64, 40
2,48798, Control_c, 0, 64, 0
2,48904, Note_on_c, 0, 75, 70
2,48920, Note_on_c, 0, 71, 0
2,49058, Note_on_c, 0, 73, 69
2,49068, Note_on_c, 0, 70, 70
2,49080, Note_on_c, 0, 75, 0
2,49224, Note_on_c, 0, 71, 62
2,49226, Note_on_c, 0, 73, 0
2,49351, Note_on_c, 0, 55, 56
2,49368, Note_on_c, 0, 73, 63
2,49394, Note_on_c, 0, 56, 0
2,49403, Note_on_c, 0, 71, 0
2,49489, Note_on_c, 0, 55, 0
2,49503, Note_on_c, 0, 53, 56
2,49516, Note_on_c, 0, 75, 71
2,49545, Note_on_c, 0, 73, 0
2,49662, Note_on_c, 0, 55, 51
2,49665, Note_on_c, 0, 53, 0
2,49666, Note_on_c, 0, 73, 60
2,49718, Note_on_c, 0, 75, 0
2,49775, Note_on_c, 0, 70, 0
2,49810, Note_on_c, 0, 71, 66
2,49842, Note_on_c, 0, 73, 0
2,49945, Note_on_c, 0, 71, 0
2,49959, Note_on_c, 0, 70, 58
2,50105, Note_on_c, 0, 73, 60
2,50237, Note_on_c, 0, 56, 50
2,50242, Note_on_c, 0, 55, 0
2,50252, Note_on_c, 0, 71, 58
2,50271, Note_on_c, 0, 73, 0
2,50351, Note_on_c, 0, 56, 0
2,50383, Note_on_c, 0, 58, 52
2,50542, Note_on_c, 0, 63, 65
2,50546, Note_on_c, 0, 58, 0
2,50556, Note_on_c, 0, 56, 49
2,50578, Note_on_c, 0, 70, 0
2,50696, Note_on_c, 0, 56, 0
2,50706, Note_on_c, 0, 55, 51
2,50837, Note_on_c, 0, 56, 46
2,50837, Note_on_c, 0, 68, 66
2,50837, Note_on_c, 0, 71, 0
2,50855, Note_on_c, 0, 63, 0
2,50874, Note_on_c, 0, 55, 0
2,50983, Note_on_c, 0, 73, 67
2,50986, Note_on_c, 0, 57, 65
2,50992, Note_on_c, 0, 56, 0
2,51089, Note_on_c, 0, 57, 0
2,51112, Note_on_c, 0, 59, 54
2,51131, Note_on_c, 0, 75, 71
2,51268, Note_on_c, 0, 71, 69
2,51278, Note_on_c, 0, 59, 0
2,51287, Note_on_c, 0, 75, 0
2,51289, Note_on_c, 0, 56, 49
2,51293, Note_on_c, 0, 73, 0
2,51436, Note_on_c, 0, 56, 0
2,51447, Note_on_c, 0, 57, 55
2,51447, Note_on_c, 0, 73, 72
2,51466, Note_on_c, 0, 71, 0
2,51525, Note_on_c, 0, 68, 0
2,51579, Note_on_c, 0, 57, 0
2,51592, Note_on_c, 0, 59, 65
2,51714, Note_on_c, 0, 59, 0
2,51731, Note_on_c, 0, 57, 55
2,51739, Note_on_c, 0, 66, 75
2,51867, Note_on_c, 0, 56, 50
2,51870, Note_on_c, 0, 57, 0
2,51893, Note_on_c, 0, 66, 0
2,51894, Note_on_c, 0, 64, 70
2,52044, Note_on_c, 0, 58, 61
2,52054, Note_on_c, 0, 66, 71
2,52058, Note_on_c, 0, 64, 0
2,52060, Note_on_c, 0, 56, 0
2,52192, Note_on_c, 0, 59, 70
2,52199, Note_on_c, 0, 58, 0
2,52335, Note_on_c, 0, 76, 81
2,52338, Note_on_c, 0, 73, 0
2,52339, Note_on_c, 0, 59, 0
2,52351, Note_on_c, 0, 61, 64
2,52485, Note_on_c, 0, 58, 62
2,52485, Note_on_c, 0, 61, 0
2,52614, Note_on_c, 0, 75, 76
2,52615, Note_on_c, 0, 76, 0
2,52632, Note_on_c, 0, 59, 62
2,52665, Note_on_c, 0, 66, 0
2,52770, Note_on_c, 0, 58, 0
2,52784, Note_on_c, 0, 59, 0
2,52785, Note_on_c, 0, 61, 66
2,52926, Note_on_c, 0, 59, 58
2,52928, Note_on_c, 0, 61, 0
2,52934, Note_on_c, 0, 62, 65
2,52937, Note_on_c, 0, 64, 59
2,53040, Note_on_c, 0, 62, 0
2,53063, Note_on_c, 0, 64, 0
2,53067, Note_on_c, 0, 58, 55
2,53067, Note_on_c, 0, 66, 74
2,53068, Note_on_c, 0, 59, 0
2,53219, Note_on_c, 0, 60, 60
2,53219, Note_on_c, 0, 68, 78
2,53220, Note_on_c, 0, 58, 0
2,53248, Note_on_c, 0, 66, 0
2,53334, Note_on_c, 0, 75, 0
2,53361, Note_on_c, 0, 61, 65
2,53365, Note_on_c, 0, 60, 0
2,53515, Note_on_c, 0, 63, 57
2,53524, Note_on_c, 0, 78, 85
2,53543, Note_on_c, 0, 61, 0
2,53668, Note_on_c, 0, 63, 0
2,53676, Note_on_c, 0, 60, 65
2,53826, Note_on_c, 0, 60, 0
2,53836, Note_on_c, 0, 76, 78
2,53843, Note_on_c, 0, 61, 81
2,53855, Note_on_c, 0, 78, 0
2,53959, Control_c, 0, 67, 127
2,53975, Control_c, 0, 67, 123
2,53990, Control_c, 0, 67, 118
2,54005, Control_c, 0, 67, 114
2,54021, Control_c, 0, 67, 113
2,54035, Control_c, 0, 67, 111
2,54051, Control_c, 0, 67, 106
2,54066, Control_c, 0, 67, 101
2,54081, Control_c, 0, 67, 95
2,54097, Control_c, 0, 67, 90
2,54111, Control_c, 0, 67, 87
2,54126, Control_c, 0, 67, 84
2,54142, Control_c, 0, 67, 78
2,54157, Control_c, 0, 67, 73
2,54165, Note_on_c, 0, 49, 72
2,54173, Control_c, 0, 67, 69
2,54188, Control_c, 0, 67, 66
2,54203, Control_c, 0, 67, 64
2,54219, Control_c, 0, 67, 60
2,54233, Control_c, 0, 67, 58
2,54249, Control_c, 0, 67, 55
2,54264, Control_c, 0, 67, 54
2,54279, Control_c, 0, 67, 54
2,54310, Control_c, 0, 67, 53
2,54317, Note_on_c, 0, 51, 73
2,54325, Control_c, 0, 67, 52
2,54341, Control_c, 0, 67, 52
2,54350, Note_on_c, 0, 49, 0
2,54372, Control_c, 0, 67, 51
2,54387, Control_c, 0, 67, 51
2,54402, Control_c, 0, 67, 50
2,54424, Control_c, 0, 67, 49
2,54470, Note_on_c, 0, 52, 68
2,54473, Note_on_c, 0, 73, 79
2,54484, Note_on_c, 0, 51, 0
2,54500, Control_c, 0, 67, 48
2,54515, Control_c, 0, 67, 48
2,54546, Control_c, 0, 67, 47
2,54577, Control_c, 0, 67, 47
2,54591, Control_c, 0, 67, 46
2,54592, Note_on_c, 0, 52, 0
2,54622, Control_c, 0, 67, 46
2,54637, Control_c, 0, 67, 45
2,54653, Control_c, 0, 67, 44
2,54667, Control_c, 0, 67, 43
2,54698, Control_c, 0, 67, 42
2,54713, Control_c, 0, 67, 41
2,54729, Control_c, 0, 67, 39
2,54743, Control_c, 0, 67, 38
2,54758, Control_c, 0, 67, 36
2,54762, Note_on_c, 0, 54, 67
2,54774, Control_c, 0, 67, 35
2,54789, Control_c, 0, 67, 34
2,54803, Control_c, 0, 67, 31
2,54819, Control_c, 0, 67, 28
2,54834, Control_c, 0, 67, 25
2,54850, Control_c, 0, 67, 22
2,54861, Note_on_c, 0, 54, 0
2,54865, Control_c, 0, 67, 19
2,54879, Control_c, 0, 67, 17
2,54895, Control_c, 0, 67, 15
2,54910, Control_c, 0, 67, 13
2,54925, Control_c, 0, 67, 11
2,54941, Control_c, 0, 67, 11
2,54971, Control_c, 0, 67, 10
2,54986, Control_c, 0, 67, 9
2,55001, Control_c, 0, 67, 9
2,55060, Note_on_c, 0, 56, 61
2,55063, Control_c, 0, 67, 8
2,55063, Note_on_c, 0, 72, 81
2,55099, Note_on_c, 0, 73, 0
2,55152, Note_on_c, 0, 61, 0
2,55215, Note_on_c, 0, 54, 56
2,55238, Note_on_c, 0, 56, 0
2,55354, Note_on_c, 0, 56, 58
2,55370, Note_on_c, 0, 75, 71
2,55386, Note_on_c, 0, 54, 0
2,55395, Note_on_c, 0, 76, 0
2,55500, Note_on_c, 0, 56, 0
2,55504, Note_on_c, 0, 57, 65
2,55542, Control_c, 0, 67, 8
2,55666, Note_on_c, 0, 56, 56
2,55666, Note_on_c, 0, 76, 78
2,55678, Control_c, 0, 67, 0
2,55681, Note_on_c, 0, 57, 0
2,55689, Note_on_c, 0, 72, 0
2,55828, Note_on_c, 0, 54, 57
2,55858, Note_on_c, 0, 56, 0
2,55974, Note_on_c, 0, 73, 67
2,55977, Note_on_c, 0, 54, 0
2,55989, Note_on_c, 0, 52, 54
2,55992, Note_on_c, 0, 75, 0
2,56115, Note_on_c, 0, 52, 0
2,56142, Note_on_c, 0, 56, 55
2,56282, Note_on_c, 0, 54, 61
2,56282, Note_on_c, 0, 75, 74
2,56314, Note_on_c, 0, 76, 0
2,56317, Note_on_c, 0, 68, 0
2,56320, Note_on_c, 0, 56, 0
2,56446, Note_on_c, 0, 52, 57
2,56457, Note_on_c, 0, 54, 0
2,56588, Note_on_c, 0, 54, 57
2,56591, Note_on_c, 0, 72, 68
2,56606, Note_on_c, 0, 52, 0
2,56627, Note_on_c, 0, 73, 0
2,56725, Note_on_c, 0, 72, 0
2,56729, Note_on_c, 0, 54, 0
2,56743, Note_on_c, 0, 56, 58
2,56751, Note_on_c, 0, 70, 68
2,56894, Note_on_c, 0, 70, 0
2,56901, Note_on_c, 0, 54, 55
2,56905, Note_on_c, 0, 72, 74
2,56922, Note_on_c, 0, 56, 0
2,57026, Note_on_c, 0, 75, 0
2,57056, Note_on_c, 0, 52, 61
2,57062, Note_on_c, 0, 54, 0
2,57187, Note_on_c, 0, 51, 58
2,57188, Note_on_c, 0, 75, 80
2,57189, Note_on_c, 0, 52, 0
2,57221, Note_on_c, 0, 72, 0
2,57310, Note_on_c, 0, 51, 0
2,57328, Note_on_c, 0, 54, 60
2,57473, Note_on_c, 0, 80, 71
2,57484, Note_on_c, 0, 54, 0
2,57488, Note_on_c, 0, 52, 52
2,57588, Note_on_c, 0, 52, 0
2,57598, Note_on_c, 0, 51, 54
2,57631, Note_on_c, 0, 78, 74
2,57643, Note_on_c, 0, 80, 0
2,57746, Note_on_c, 0, 52, 48
2,57769, Note_on_c, 0, 80, 68
2,57800, Note_on_c, 0, 51, 0
2,57815, Note_on_c, 0, 78, 0
2,57895, Note_on_c, 0, 52, 0
2,57908, Note_on_c, 0, 54, 54
2,57912, Note_on_c, 0, 81, 75
2,57915, Note_on_c, 0, 80, 0
2,58078, Note_on_c, 0, 80, 58
2,58080, Note_on_c, 0, 73, 61
2,58088, Note_on_c, 0, 52, 47
2,58090, Note_on_c, 0, 54, 0
2,58097, Note_on_c, 0, 75, 0
2,58108, Note_on_c, 0, 81, 0
2,58212, Note_on_c, 0, 52, 0
2,58236, Note_on_c, 0, 78, 64
2,58252, Note_on_c, 0, 57, 57
2,58314, Note_on_c, 0, 80, 0
2,58386, Note_on_c, 0, 57, 0
2,58386, Note_on_c, 0, 76, 67
2,58390, Note_on_c, 0, 56, 59
2,58398, Note_on_c, 0, 78, 0
2,58526, Note_on_c, 0, 56, 0
2,58536, Note_on_c, 0, 57, 50
2,58538, Note_on_c, 0, 80, 73
2,58545, Note_on_c, 0, 76, 0
2,58693, Note_on_c, 0, 78, 76
2,58696, Note_on_c, 0, 51, 58
2,58738, Note_on_c, 0, 57, 0
2,58750, Note_on_c, 0, 80, 0
2,58834, Note_on_c, 0, 51, 0
2,58838, Note_on_c, 0, 49, 61
2,58838, Note_on_c, 0, 76, 76
2,58860, Note_on_c, 0, 78, 0
2,58969, Note_on_c, 0, 51, 65
2,58979, Note_on_c, 0, 49, 0
2,58979, Note_on_c, 0, 78, 73
2,58999, Note_on_c, 0, 76, 0
2,59113, Note_on_c, 0, 51, 0
2,59114, Note_on_c, 0, 52, 57
2,59132, Note_on_c, 0, 80, 76
2,59165, Note_on_c, 0, 73, 0
2,59169, Note_on_c, 0, 78, 0
2,59260, Note_on_c, 0, 51, 65
2,59276, Note_on_c, 0, 78, 74
2,59282, Note_on_c, 0, 72, 73
2,59292, Note_on_c, 0, 52, 0
2,59318, Note_on_c, 0, 80, 0
2,59417, Note_on_c, 0, 56, 66
2,59419, Note_on_c, 0, 76, 76
2,59423, Note_on_c, 0, 51, 0
2,59443, Note_on_c, 0, 72, 0
2,59469, Note_on_c, 0, 78, 0
2,59571, Note_on_c, 0, 76, 0
2,59575, Note_on_c, 0, 56, 0
2,59575, Note_on_c, 0, 75, 79
2,59578, Note_on_c, 0, 71, 64
2,59581, Note_on_c, 0, 54, 65
2,59710, Note_on_c, 0, 54, 0
2,59721, Note_on_c, 0, 56, 58
2,59725, Note_on_c, 0, 78, 76
2,59736, Note_on_c, 0, 75, 0
2,59888, Note_on_c, 0, 77, 76
2,59893, Note_on_c, 0, 71, 0
2,59908, Note_on_c, 0, 49, 68
2,59910, Note_on_c, 0, 56, 0
2,59944, Note_on_c, 0, 78, 0
2,60039, Note_on_c, 0, 71, 58
2,60172, Note_on_c, 0, 71, 0
2,60190, Note_on_c, 0, 73, 66
2,60197, Note_on_c, 0, 61, 84
2,60215, Note_on_c, 0, 49, 0
2,60288, Control_c, 0, 64, 57
2,60290, Note_on_c, 0, 73, 0
2,60302, Control_c, 0, 64, 62
2,60317, Control_c, 0, 64, 62
2,60334, Control_c, 0, 64, 63
2,60349, Control_c, 0, 64, 65
2,60350, Note_on_c, 0, 74, 64
2,60363, Control_c, 0, 64, 66
2,60379, Control_c, 0, 64, 67
2,60394, Control_c, 0, 64, 67
2,60425, Control_c, 0, 64, 67
2,60455, Control_c, 0, 64, 66
2,60470, Control_c, 0, 64, 65
2,60485, Control_c, 0, 64, 62
2,60491, Note_on_c, 0, 74, 0
2,60500, Control_c, 0, 64, 43
2,60513, Note_on_c, 0, 81, 69
2,60514, Note_on_c, 0, 66, 89
2,60515, Control_c, 0, 64, 0
2,60515, Note_on_c, 0, 73, 62
2,60520, Note_on_c, 0, 61, 0
2,60536, Note_on_c, 0, 77, 0
2,60660, Control_c, 0, 64, 50
2,60675, Control_c, 0, 64, 64
2,60690, Control_c, 0, 64, 69
2,60703, Note_on_c, 0, 71, 57
2,60705, Control_c, 0, 64, 78
2,60715, Note_on_c, 0, 73, 0
2,60720, Control_c, 0, 64, 96
2,60736, Control_c, 0, 64, 127
2,60751, Note_on_c, 0, 66, 0
2,60856, Note_on_c, 0, 66, 87
2,60857, Control_c, 0, 64, 77
2,60863, Note_on_c, 0, 71, 0
2,60868, Note_on_c, 0, 69, 65
2,60873, Control_c, 0, 64, 58
2,60889, Control_c, 0, 64, 0
2,60980, Control_c, 0, 64, 53
2,60994, Control_c, 0, 64, 65
2,61010, Control_c, 0, 64, 74
2,61010, Note_on_c, 0, 81, 0
2,61012, Note_on_c, 0, 73, 77
2,61025, Control_c, 0, 64, 104
2,61031, Note_on_c, 0, 69, 0
2,61040, Control_c, 0, 64, 127
2,61055, Note_on_c, 0, 66, 0
2,61196, Note_on_c, 0, 80, 79
2,61204, Note_on_c, 0, 66, 91
2,61206, Control_c, 0, 64, 77
2,61208, Note_on_c, 0, 71, 66
2,61222, Control_c, 0, 64, 55
2,61237, Control_c, 0, 64, 0
2,61257, Note_on_c, 0, 73, 0
2,61371, Note_on_c, 0, 71, 0
2,61373, Note_on_c, 0, 69, 64
2,61508, Note_on_c, 0, 65, 79
2,61525, Note_on_c, 0, 69, 0
2,61531, Note_on_c, 0, 71, 66
2,61565, Note_on_c, 0, 66, 0
2,61667, Note_on_c, 0, 63, 79
2,61669, Note_on_c, 0, 71, 0
2,61678, Note_on_c, 0, 73, 60
2,61697, Note_on_c, 0, 65, 0
2,61832, Note_on_c, 0, 65, 77
2,61837, Note_on_c, 0, 71, 66
2,61859, Note_on_c, 0, 63, 0
2,61871, Note_on_c, 0, 73, 0
2,61974, Note_on_c, 0, 71, 0
2,61994, Note_on_c, 0, 69, 69
2,62134, Note_on_c, 0, 69, 0
2,62151, Note_on_c, 0, 68, 68
2,62295, Note_on_c, 0, 68, 0
2,62301, Note_on_c, 0, 71, 69
2,62326, Note_on_c, 0, 80, 0
2,62449, Note_on_c, 0, 65, 0
2,62452, Note_on_c, 0, 66, 87
2,62457, Note_on_c, 0, 69, 70
2,62470, Note_on_c, 0, 71, 0
2,62751, Note_on_c, 0, 78, 68
2,62760, Note_on_c, 0, 54, 63
2,62910, Note_on_c, 0, 78, 0
2,62913, Note_on_c, 0, 56, 69
2,62917, Note_on_c, 0, 76, 61
2,62923, Note_on_c, 0, 54, 0
2,63054, Note_on_c, 0, 76, 0
2,63056, Note_on_c, 0, 74, 70
2,63066, Note_on_c, 0, 57, 76
2,63067, Note_on_c, 0, 54, 77
2,63103, Note_on_c, 0, 56, 0
2,63160, Note_on_c, 0, 66, 0
2,63196, Note_on_c, 0, 57, 0
2,63223, Note_on_c, 0, 73, 64
2,63265, Note_on_c, 0, 69, 0
2,63350, Note_on_c, 0, 71, 66
2,63351, Note_on_c, 0, 73, 0
2,63366, Note_on_c, 0, 59, 64
2,63467, Note_on_c, 0, 71, 0
2,63492, Note_on_c, 0, 69, 69
2,63509, Note_on_c, 0, 59, 0
2,63620, Note_on_c, 0, 54, 0
2,63657, Note_on_c, 0, 69, 0
2,63662, Note_on_c, 0, 61, 64
2,63663, Note_on_c, 0, 68, 69
2,63670, Note_on_c, 0, 53, 55
2,63809, Note_on_c, 0, 61, 0
2,63821, Note_on_c, 0, 59, 67
2,63935, Note_on_c, 0, 59, 0
2,63945, Note_on_c, 0, 61, 63
2,63964, Note_on_c, 0, 68, 0
2,63965, Note_on_c, 0, 73, 73
2,63995, Note_on_c, 0, 74, 0
2,64081, Note_on_c, 0, 61, 0
2,64092, Note_on_c, 0, 62, 66
2,64236, Note_on_c, 0, 62, 0
2,64251, Note_on_c, 0, 78, 76
2,64253, Note_on_c, 0, 61, 59
2,64268, Note_on_c, 0, 57, 55
2,64271, Note_on_c, 0, 53, 0
2,64296, Note_on_c, 0, 73, 0
2,64418, Note_on_c, 0, 59, 71
2,64423, Note_on_c, 0, 61, 0
2,64435, Note_on_c, 0, 57, 0
2,64468, Control_c, 0, 64, 52
2,64483, Control_c, 0, 64, 61
2,64486, Note_on_c, 0, 78, 0
2,64498, Control_c, 0, 64, 60
2,64513, Control_c, 0, 64, 56
2,64529, Control_c, 0, 64, 40
2,64544, Control_c, 0, 64, 0
2,64555, Note_on_c, 0, 57, 65
2,64564, Note_on_c, 0, 78, 86
2,64574, Note_on_c, 0, 59, 0
2,64666, Control_c, 0, 64, 61
2,64680, Control_c, 0, 64, 67
2,64696, Control_c, 0, 64, 75
2,64701, Note_on_c, 0, 61, 70
2,64711, Control_c, 0, 64, 89
2,64726, Control_c, 0, 64, 127
2,64763, Note_on_c, 0, 78, 0
2,64875, Note_on_c, 0, 78, 81
2,64877, Note_on_c, 0, 56, 51
2,64878, Control_c, 0, 64, 97
2,64881, Note_on_c, 0, 57, 0
2,64889, Note_on_c, 0, 61, 0
2,64894, Control_c, 0, 64, 82
2,64895, Note_on_c, 0, 59, 62
2,64908, Control_c, 0, 64, 72
2,64923, Control_c, 0, 64, 65
2,64939, Control_c, 0, 64, 44
2,64955, Control_c, 0, 64, 0
2,65034, Note_on_c, 0, 57, 56
2,65039, Note_on_c, 0, 59, 0
2,65188, Note_on_c, 0, 76, 73
2,65195, Note_on_c, 0, 59, 52
2,65225, Note_on_c, 0, 78, 0
2,65256, Note_on_c, 0, 57, 0
2,65344, Note_on_c, 0, 74, 77
2,65347, Note_on_c, 0, 59, 0
2,65350, Note_on_c, 0, 61, 57
2,65359, Note_on_c, 0, 76, 0
2,65503, Note_on_c, 0, 76, 71
2,65514, Note_on_c, 0, 59, 56
2,65528, Note_on_c, 0, 61, 0
2,65552, Note_on_c, 0, 74, 0
2,65607, Note_on_c, 0, 56, 0
2,65651, Note_on_c, 0, 57, 54
2,65704, Note_on_c, 0, 59, 0
2,65776, Note_on_c, 0, 56, 45
2,65807, Note_on_c, 0, 57, 0
2,65817, Control_c, 0, 64, 20
2,65832, Control_c, 0, 64, 36
2,65848, Control_c, 0, 64, 38
2,65862, Control_c, 0, 64, 41
2,65877, Control_c, 0, 64, 44
2,65923, Control_c, 0, 64, 43
2,65924, Note_on_c, 0, 59, 57
2,65946, Control_c, 0, 64, 42
2,65961, Control_c, 0, 64, 42
2,65976, Control_c, 0, 64, 39
2,65991, Control_c, 0, 64, 35
2,66007, Control_c, 0, 64, 32
2,66022, Control_c, 0, 64, 29
2,66037, Control_c, 0, 64, 24
2,66052, Control_c, 0, 64, 13
2,66067, Control_c, 0, 64, 0
2,66076, Note_on_c, 0, 59, 0
2,66079, Note_on_c, 0, 56, 0
2,66087, Note_on_c, 0, 54, 50
2,66098, Note_on_c, 0, 57, 54
2,66239, Note_on_c, 0, 56, 55
2,66247, Note_on_c, 0, 57, 0
2,66365, Note_on_c, 0, 57, 54
2,66379, Note_on_c, 0, 74, 76
2,66435, Note_on_c, 0, 76, 0
2,66505, Note_on_c, 0, 56, 0
2,66511, Note_on_c, 0, 57, 0
2,66522, Note_on_c, 0, 73, 74
2,66539, Note_on_c, 0, 59, 58
2,66540, Note_on_c, 0, 74, 0
2,66698, Note_on_c, 0, 74, 72
2,66709, Note_on_c, 0, 69, 68
2,66712, Note_on_c, 0, 59, 0
2,66736, Note_on_c, 0, 57, 45
2,66747, Note_on_c, 0, 73, 0
2,66871, Note_on_c, 0, 57, 0
2,66894, Note_on_c, 0, 59, 55
2,67035, Note_on_c, 0, 59, 0
2,67042, Note_on_c, 0, 61, 60
2,67048, Control_c, 0, 64, 39
2,67063, Control_c, 0, 64, 58
2,67078, Control_c, 0, 64, 65
2,67093, Control_c, 0, 64, 71
2,67108, Control_c, 0, 64, 86
2,67124, Control_c, 0, 64, 102
2,67129, Note_on_c, 0, 69, 0
2,67139, Control_c, 0, 64, 104
2,67182, Note_on_c, 0, 61, 0
2,67182, Note_on_c, 0, 62, 70
2,67230, Control_c, 0, 64, 98
2,67246, Control_c, 0, 64, 90
2,67261, Control_c, 0, 64, 78
2,67276, Control_c, 0, 64, 65
2,67291, Control_c, 0, 64, 0
2,67306, Note_on_c, 0, 62, 0
2,67315, Note_on_c, 0, 64, 71
2,67316, Note_on_c, 0, 68, 70
2,67349, Note_on_c, 0, 54, 0
2,67414, Control_c, 0, 64, 28
2,67429, Control_c, 0, 64, 50
2,67445, Control_c, 0, 64, 56
2,67460, Control_c, 0, 64, 57
2,67483, Control_c, 0, 64, 58
2,67487, Note_on_c, 0, 62, 77
2,67498, Control_c, 0, 64, 58
2,67500, Note_on_c, 0, 64, 0
2,67543, Control_c, 0, 64, 58
2,67558, Control_c, 0, 64, 56
2,67574, Control_c, 0, 64, 52
2,67589, Control_c, 0, 64, 33
2,67604, Control_c, 0, 64, 0
2,67624, Note_on_c, 0, 64, 69
2,67633, Note_on_c, 0, 62, 0
2,67635, Note_on_c, 0, 52, 69
2,67753, Note_on_c, 0, 66, 81
2,67771, Note_on_c, 0, 68, 0
2,67784, Note_on_c, 0, 64, 0
2,67786, Control_c, 0, 64, 24
2,67802, Control_c, 0, 64, 54
2,67817, Control_c, 0, 64, 60
2,67848, Control_c, 0, 64, 58
2,67863, Control_c, 0, 64, 51
2,67878, Control_c, 0, 64, 0
2,67905, Note_on_c, 0, 73, 78
2,67908, Note_on_c, 0, 66, 0
2,67921, Note_on_c, 0, 64, 66
2,67927, Note_on_c, 0, 57, 65
2,67927, Note_on_c, 0, 74, 0
2,67954, Note_on_c, 0, 52, 0
2,67988, Note_on_c, 0, 57, 0
2,67999, Control_c, 0, 64, 49
2,68013, Control_c, 0, 64, 60
2,68028, Control_c, 0, 64, 64
2,68044, Control_c, 0, 64, 66
2,68058, Control_c, 0, 64, 67
2,68073, Control_c, 0, 64, 66
2,68082, Note_on_c, 0, 62, 69
2,68089, Control_c, 0, 64, 65
2,68104, Control_c, 0, 64, 65
2,68127, Note_on_c, 0, 64, 0
2,68135, Control_c, 0, 64, 64
2,68150, Control_c, 0, 64, 64
2,68166, Control_c, 0, 64, 63
2,68181, Control_c, 0, 64, 59
2,68196, Control_c, 0, 64, 41
2,68211, Control_c, 0, 64, 0
2,68224, Note_on_c, 0, 61, 77
2,68243, Note_on_c, 0, 57, 69
2,68253, Note_on_c, 0, 62, 0
2,68326, Control_c, 0, 64, 28
2,68341, Control_c, 0, 64, 49
2,68356, Control_c, 0, 64, 60
2,68366, Note_on_c, 0, 61, 0
2,68371, Control_c, 0, 64, 64
2,68373, Note_on_c, 0, 57, 0
2,68379, Note_on_c, 0, 64, 70
2,68386, Control_c, 0, 64, 66
2,68402, Control_c, 0, 64, 67
2,68417, Control_c, 0, 64, 68
2,68432, Control_c, 0, 64, 69
2,68508, Control_c, 0, 64, 68
2,68523, Control_c, 0, 64, 67
2,68538, Control_c, 0, 64, 66
2,68553, Control_c, 0, 64, 65
2,68567, Note_on_c, 0, 78, 92
2,68569, Control_c, 0, 64, 63
2,68572, Note_on_c, 0, 62, 53
2,68581, Note_on_c, 0, 57, 53
2,68584, Control_c, 0, 64, 60
2,68587, Note_on_c, 0, 71, 56
2,68599, Control_c, 0, 64, 52
2,68606, Note_on_c, 0, 64, 0
2,68612, Note_on_c, 0, 73, 0
2,68615, Control_c, 0, 64, 0
2,68693, Note_on_c, 0, 57, 0
2,68737, Note_on_c, 0, 61, 60
2,68763, Note_on_c, 0, 62, 0
2,68859, Note_on_c, 0, 61, 0
2,68881, Note_on_c, 0, 56, 57
2,68889, Note_on_c, 0, 62, 57
2,69008, Note_on_c, 0, 56, 0
2,69019, Note_on_c, 0, 62, 0
2,69033, Note_on_c, 0, 64, 56
2,69036, Note_on_c, 0, 54, 53
2,69177, Note_on_c, 0, 54, 0
2,69182, Note_on_c, 0, 56, 62
2,69191, Note_on_c, 0, 76, 73
2,69192, Note_on_c, 0, 62, 50
2,69213, Note_on_c, 0, 64, 0
2,69255, Note_on_c, 0, 78, 0
2,69351, Control_c, 0, 64, 20
2,69352, Note_on_c, 0, 61, 63
2,69367, Control_c, 0, 64, 32
2,69382, Control_c, 0, 64, 49
2,69397, Control_c, 0, 64, 56
2,69397, Note_on_c, 0, 62, 0
2,69413, Control_c, 0, 64, 57
2,69428, Control_c, 0, 64, 58
2,69444, Control_c, 0, 64, 58
2,69459, Control_c, 0, 64, 59
2,69495, Note_on_c, 0, 59, 58
2,69504, Control_c, 0, 64, 58
2,69504, Note_on_c, 0, 61, 0
2,69519, Control_c, 0, 64, 58
2,69549, Control_c, 0, 64, 57
2,69570, Note_on_c, 0, 59, 0
2,69606, Note_on_c, 0, 62, 57
2,69625, Control_c, 0, 64, 56
2,69641, Control_c, 0, 64, 54
2,69656, Control_c, 0, 64, 52
2,69671, Control_c, 0, 64, 51
2,69687, Control_c, 0, 64, 49
2,69701, Control_c, 0, 64, 42
2,69716, Control_c, 0, 64, 0
2,69780, Note_on_c, 0, 57, 55
2,69780, Note_on_c, 0, 61, 60
2,69781, Note_on_c, 0, 62, 0
2,69819, Note_on_c, 0, 56, 0
2,69876, Control_c, 0, 64, 41
2,69887, Note_on_c, 0, 76, 0
2,69893, Control_c, 0, 64, 58
2,69908, Control_c, 0, 64, 63
2,69924, Control_c, 0, 64, 65
2,69929, Note_on_c, 0, 59, 60
2,69938, Control_c, 0, 64, 67
2,69938, Note_on_c, 0, 61, 0
2,69953, Control_c, 0, 64, 69
2,69969, Control_c, 0, 64, 75
2,69983, Control_c, 0, 64, 83
2,69998, Control_c, 0, 64, 91
2,70014, Control_c, 0, 64, 91
2,70029, Control_c, 0, 64, 86
2,70045, Control_c, 0, 64, 75
2,70046, Note_on_c, 0, 71, 0
2,70059, Control_c, 0, 64, 64
2,70074, Control_c, 0, 64, 20
2,70079, Note_on_c, 0, 64, 77
2,70090, Control_c, 0, 64, 0
2,70090, Note_on_c, 0, 61, 54
2,70121, Control_c, 0, 64, 42
2,70122, Note_on_c, 0, 59, 0
2,70135, Control_c, 0, 64, 60
2,70150, Control_c, 0, 64, 64
2,70166, Control_c, 0, 64, 67
2,70180, Control_c, 0, 64, 70
2,70180, Note_on_c, 0, 61, 0
2,70195, Control_c, 0, 64, 77
2,70202, Note_on_c, 0, 64, 0
2,70211, Control_c, 0, 64, 89
2,70226, Control_c, 0, 64, 103
2,70231, Note_on_c, 0, 62, 49
2,70242, Control_c, 0, 64, 113
2,70247, Note_on_c, 0, 78, 73
2,70257, Control_c, 0, 64, 116
2,70272, Control_c, 0, 64, 127
2,70376, Note_on_c, 0, 62, 0
2,70379, Control_c, 0, 64, 115
2,70394, Control_c, 0, 64, 81
2,70395, Note_on_c, 0, 61, 54
2,70397, Note_on_c, 0, 76, 68
2,70398, Note_on_c, 0, 54, 61
2,70406, Note_on_c, 0, 69, 73
2,70410, Control_c, 0, 64, 65
2,70418, Note_on_c, 0, 78, 0
2,70425, Control_c, 0, 64, 0
2,70446, Note_on_c, 0, 57, 0
2,70515, Control_c, 0, 64, 41
2,70531, Control_c, 0, 64, 54
2,70553, Control_c, 0, 64, 62
2,70555, Note_on_c, 0, 61, 0
2,70568, Note_on_c, 0, 74, 74
2,70569, Control_c, 0, 64, 65
2,70575, Note_on_c, 0, 59, 60
2,70584, Control_c, 0, 64, 69
2,70597, Note_on_c, 0, 76, 0
2,70599, Control_c, 0, 64, 76
2,70609, Note_on_c, 0, 69, 0
2,70614, Control_c, 0, 64, 81
2,70629, Control_c, 0, 64, 83
2,70660, Control_c, 0, 64, 84
2,70675, Control_c, 0, 64, 84
2,70706, Control_c, 0, 64, 79
2,70717, Note_on_c, 0, 59, 0
2,70722, Control_c, 0, 64, 68
2,70725, Note_on_c, 0, 73, 83
2,70729, Note_on_c, 0, 74, 0
2,70731, Note_on_c, 0, 69, 76
2,70732, Note_on_c, 0, 57, 61
2,70737, Control_c, 0, 64, 13
2,70752, Control_c, 0, 64, 0
2,70813, Control_c, 0, 64, 49
2,70828, Control_c, 0, 64, 62
2,70834, Note_on_c, 0, 54, 0
2,70844, Control_c, 0, 64, 65
2,70859, Control_c, 0, 64, 69
2,70863, Note_on_c, 0, 57, 0
2,70874, Control_c, 0, 64, 80
2,70881, Note_on_c, 0, 61, 72
2,70884, Note_on_c, 0, 76, 79
2,70890, Control_c, 0, 64, 127
2,70918, Note_on_c, 0, 73, 0
2,70925, Note_on_c, 0, 69, 0
2,70963, Note_on_c, 0, 61, 0
2,71071, Control_c, 0, 64, 90
2,71085, Note_on_c, 0, 69, 76
2,71085, Note_on_c, 0, 74, 81
2,71087, Control_c, 0, 64, 74
2,71096, Note_on_c, 0, 59, 75
2,71099, Note_on_c, 0, 47, 69
2,71101, Control_c, 0, 64, 64
2,71111, Note_on_c, 0, 76, 0
2,71116, Control_c, 0, 64, 0
2,71265, Note_on_c, 0, 73, 76
2,71285, Note_on_c, 0, 74, 0
2,71354, Note_on_c, 0, 69, 0
2,71382, Control_c, 0, 64, 22
2,71397, Control_c, 0, 64, 24
2,71413, Control_c, 0, 64, 22
2,71420, Note_on_c, 0, 68, 78
2,71422, Note_on_c, 0, 74, 72
2,71459, Note_on_c, 0, 73, 0
2,71473, Control_c, 0, 64, 20
2,71489, Control_c, 0, 64, 0
2,71561, Note_on_c, 0, 68, 0
2,71578, Note_on_c, 0, 76, 77
2,71582, Note_on_c, 0, 66, 76
2,71629, Note_on_c, 0, 74, 0
2,71739, Note_on_c, 0, 68, 72
2,71742, Note_on_c, 0, 74, 72
2,71745, Note_on_c, 0, 52, 73
2,71747, Note_on_c, 0, 76, 0
2,71754, Note_on_c, 0, 66, 0
2,71770, Note_on_c, 0, 47, 0
2,71898, Note_on_c, 0, 73, 79
2,71945, Note_on_c, 0, 74, 0
2,72051, Note_on_c, 0, 71, 78
2,72059, Note_on_c, 0, 73, 0
2,72158, Note_on_c, 0, 59, 0
2,72195, Control_c, 0, 64, 29
2,72207, Note_on_c, 0, 74, 87
2,72210, Control_c, 0, 64, 53
2,72225, Control_c, 0, 64, 60
2,72232, Note_on_c, 0, 71, 0
2,72241, Control_c, 0, 64, 61
2,72256, Control_c, 0, 64, 62
2,72333, Control_c, 0, 64, 60
2,72348, Control_c, 0, 64, 59
2,72364, Control_c, 0, 64, 58
2,72379, Control_c, 0, 64, 54
2,72393, Control_c, 0, 64, 48
2,72409, Control_c, 0, 64, 29
2,72417, Note_on_c, 0, 73, 87
2,72420, Note_on_c, 0, 57, 53
2,72424, Control_c, 0, 64, 0
2,72430, Note_on_c, 0, 45, 57
2,72443, Note_on_c, 0, 74, 0
2,72455, Note_on_c, 0, 52, 0
2,72617, Note_on_c, 0, 56, 60
2,72620, Note_on_c, 0, 57, 0
2,72750, Note_on_c, 0, 68, 0
2,72757, Note_on_c, 0, 61, 65
2,72772, Note_on_c, 0, 54, 68
2,72793, Note_on_c, 0, 56, 0
2,72913, Note_on_c, 0, 54, 0
2,72925, Note_on_c, 0, 61, 0
2,72926, Note_on_c, 0, 52, 70
2,72926, Note_on_c, 0, 63, 74
2,73066, Note_on_c, 0, 52, 0
2,73072, Note_on_c, 0, 51, 72
2,73081, Note_on_c, 0, 64, 79
2,73082, Note_on_c, 0, 63, 0
2,73219, Note_on_c, 0, 49, 72
2,73236, Note_on_c, 0, 51, 0
2,73259, Note_on_c, 0, 64, 0
2,73357, Note_on_c, 0, 49, 0
2,73365, Note_on_c, 0, 48, 69
2,73371, Note_on_c, 0, 66, 83
2,73414, Note_on_c, 0, 45, 0
2,73466, Control_c, 0, 64, 63
2,73481, Control_c, 0, 64, 66
2,73496, Control_c, 0, 64, 69
2,73500, Note_on_c, 0, 49, 71
2,73510, Note_on_c, 0, 48, 0
2,73511, Control_c, 0, 64, 75
2,73527, Control_c, 0, 64, 84
2,73542, Control_c, 0, 64, 88
2,73552, Note_on_c, 0, 73, 0
2,73572, Control_c, 0, 64, 87
2,73585, Note_on_c, 0, 66, 0
2,73587, Control_c, 0, 64, 87
2,73603, Control_c, 0, 64, 86
2,73625, Control_c, 0, 64, 83
2,73641, Control_c, 0, 64, 78
2,73656, Control_c, 0, 64, 71
2,73668, Note_on_c, 0, 72, 81
2,73671, Control_c, 0, 64, 64
2,73677, Note_on_c, 0, 68, 69
2,73678, Note_on_c, 0, 51, 73
2,73685, Note_on_c, 0, 44, 55
2,73687, Control_c, 0, 64, 0
2,73704, Note_on_c, 0, 49, 0
2,73837, Control_c, 0, 64, 50
2,73852, Note_on_c, 0, 66, 71
2,73853, Control_c, 0, 64, 58
2,73868, Control_c, 0, 64, 60
2,73879, Note_on_c, 0, 68, 0
2,73884, Control_c, 0, 64, 61
2,73898, Control_c, 0, 64, 60
2,73913, Control_c, 0, 64, 58
2,73929, Control_c, 0, 64, 47
2,73944, Control_c, 0, 64, 0
2,73989, Note_on_c, 0, 56, 74
2,73999, Note_on_c, 0, 68, 71
2,74005, Note_on_c, 0, 51, 0
2,74006, Note_on_c, 0, 44, 0
2,74029, Note_on_c, 0, 66, 0
2,74066, Control_c, 0, 64, 61
2,74082, Control_c, 0, 64, 67
2,74097, Control_c, 0, 64, 70
2,74099, Note_on_c, 0, 72, 0
2,74112, Control_c, 0, 64, 75
2,74127, Control_c, 0, 64, 81
2,74142, Control_c, 0, 64, 86
2,74152, Note_on_c, 0, 69, 72
2,74158, Control_c, 0, 64, 87
2,74159, Note_on_c, 0, 68, 0
2,74189, Control_c, 0, 64, 86
2,74204, Control_c, 0, 64, 85
2,74219, Control_c, 0, 64, 83
2,74234, Control_c, 0, 64, 79
2,74250, Control_c, 0, 64, 75
2,74265, Control_c, 0, 64, 70
2,74281, Control_c, 0, 64, 64
2,74295, Control_c, 0, 64, 35
2,74302, Note_on_c, 0, 76, 76
2,74310, Control_c, 0, 64, 0
2,74310, Note_on_c, 0, 61, 73
2,74310, Note_on_c, 0, 68, 58
2,74327, Note_on_c, 0, 69, 0
2,74341, Note_on_c, 0, 56, 0
2,74439, Control_c, 0, 64, 42
2,74455, Control_c, 0, 64, 63
2,74469, Control_c, 0, 64, 65
2,74479, Note_on_c, 0, 66, 73
2,74485, Control_c, 0, 64, 66
2,74500, Control_c, 0, 64, 68
2,74515, Control_c, 0, 64, 71
2,74529, Note_on_c, 0, 68, 0
2,74531, Control_c, 0, 64, 75
2,74541, Note_on_c, 0, 61, 0
2,74546, Control_c, 0, 64, 78
2,74592, Control_c, 0, 64, 76
2,74607, Control_c, 0, 64, 73
2,74622, Control_c, 0, 64, 66
2,74627, Note_on_c, 0, 61, 87
2,74631, Note_on_c, 0, 64, 80
2,74637, Control_c, 0, 64, 0
2,74659, Note_on_c, 0, 66, 0
2,74743, Control_c, 0, 64, 51
2,74758, Control_c, 0, 64, 64
2,74774, Control_c, 0, 64, 68
2,74776, Note_on_c, 0, 68, 83
2,74778, Note_on_c, 0, 76, 0
2,74790, Control_c, 0, 64, 76
2,74806, Control_c, 0, 64, 90
2,74811, Note_on_c, 0, 64, 0
2,74815, Note_on_c, 0, 61, 0
2,74821, Control_c, 0, 64, 95
2,74836, Control_c, 0, 64, 94
2,74851, Control_c, 0, 64, 89
2,74866, Control_c, 0, 64, 83
2,74882, Control_c, 0, 64, 76
2,74896, Control_c, 0, 64, 69
2,74911, Control_c, 0, 64, 60
2,74927, Control_c, 0, 64, 0
2,74929, Note_on_c, 0, 75, 87
2,74939, Note_on_c, 0, 61, 71
2,74940, Note_on_c, 0, 66, 71
2,74969, Note_on_c, 0, 68, 0
2,75089, Note_on_c, 0, 64, 68
2,75090, Note_on_c, 0, 66, 0
2,75255, Note_on_c, 0, 60, 69
2,75261, Note_on_c, 0, 66, 74
2,75272, Note_on_c, 0, 61, 0
2,75282, Note_on_c, 0, 64, 0
2,75407, Note_on_c, 0, 66, 0
2,75416, Note_on_c, 0, 68, 67
2,75417, Note_on_c, 0, 58, 75
2,75443, Note_on_c, 0, 60, 0
2,75554, Note_on_c, 0, 60, 62
2,75567, Note_on_c, 0, 66, 67
2,75570, Note_on_c, 0, 58, 0
2,75655, Note_on_c, 0, 68, 0
2,75697, Note_on_c, 0, 66, 0
2,75718, Note_on_c, 0, 64, 69
2,75852, Note_on_c, 0, 63, 64
2,75875, Note_on_c, 0, 64, 0
2,76021, Note_on_c, 0, 63, 0
2,76021, Note_on_c, 0, 66, 60
2,76099, Note_on_c, 0, 75, 0
2,76178, Note_on_c, 0, 61, 52
2,76179, Note_on_c, 0, 64, 60
2,76200, Note_on_c, 0, 66, 0
2,76215, Note_on_c, 0, 60, 0
2,76329, Note_on_c, 0, 63, 68
2,76334, Note_on_c, 0, 64, 0
2,76384, Control_c, 0, 64, 49
2,76399, Control_c, 0, 64, 58
2,76415, Control_c, 0, 64, 60
2,76431, Control_c, 0, 64, 60
2,76447, Control_c, 0, 64, 61
2,76455, Note_on_c, 0, 63, 0
2,76461, Control_c, 0, 64, 62
2,76465, Note_on_c, 0, 64, 67
2,76465, Note_on_c, 0, 68, 65
2,76492, Control_c, 0, 64, 62
2,76506, Control_c, 0, 64, 61
2,76522, Control_c, 0, 64, 60
2,76537, Control_c, 0, 64, 60
2,76552, Control_c, 0, 64, 59
2,76568, Control_c, 0, 64, 58
2,76582, Control_c, 0, 64, 56
2,76597, Control_c, 0, 64, 55
2,76613, Control_c, 0, 64, 54
2,76619, Note_on_c, 0, 64, 0
2,76625, Note_on_c, 0, 66, 72
2,76628, Control_c, 0, 64, 53
2,76644, Control_c, 0, 64, 51
2,76659, Control_c, 0, 64, 48
2,76674, Control_c, 0, 64, 44
2,76697, Control_c, 0, 64, 40
2,76711, Control_c, 0, 64, 31
2,76727, Control_c, 0, 64, 17
2,76742, Control_c, 0, 64, 0
2,76790, Note_on_c, 0, 73, 72
2,76791, Note_on_c, 0, 64, 61
2,76791, Note_on_c, 0, 66, 0
2,76795, Note_on_c, 0, 57, 67
2,76796, Note_on_c, 0, 61, 0
2,76819, Note_on_c, 0, 68, 0
2,76922, Note_on_c, 0, 64, 0
2,76925, Control_c, 0, 64, 22
2,76940, Control_c, 0, 64, 52
2,76940, Note_on_c, 0, 63, 70
2,76955, Control_c, 0, 64, 58
2,76971, Control_c, 0, 64, 61
2,76983, Note_on_c, 0, 73, 0
2,76986, Control_c, 0, 64, 62
2,77000, Control_c, 0, 64, 63
2,77016, Control_c, 0, 64, 63
2,77031, Control_c, 0, 64, 64
2,77046, Control_c, 0, 64, 64
2,77076, Control_c, 0, 64, 65
2,77096, Note_on_c, 0, 73, 78
2,77101, Note_on_c, 0, 63, 0
2,77110, Note_on_c, 0, 61, 66
2,77152, Control_c, 0, 64, 64
2,77168, Control_c, 0, 64, 64
2,77262, Note_on_c, 0, 61, 0
2,77265, Note_on_c, 0, 64, 70
2,77292, Control_c, 0, 64, 63
2,77294, Note_on_c, 0, 73, 0
2,77405, Note_on_c, 0, 73, 75
2,77416, Note_on_c, 0, 64, 0
2,77419, Note_on_c, 0, 63, 62
2,77420, Note_on_c, 0, 54, 62
2,77443, Control_c, 0, 64, 62
2,77466, Control_c, 0, 64, 62
2,77482, Control_c, 0, 64, 61
2,77482, Note_on_c, 0, 57, 0
2,77496, Control_c, 0, 64, 60
2,77527, Control_c, 0, 64, 61
2,77542, Control_c, 0, 64, 62
2,77557, Control_c, 0, 64, 63
2,77572, Control_c, 0, 64, 63
2,77573, Note_on_c, 0, 63, 0
2,77585, Note_on_c, 0, 61, 80
2,77587, Control_c, 0, 64, 64
2,77603, Control_c, 0, 64, 65
2,77618, Control_c, 0, 64, 69
2,77631, Note_on_c, 0, 73, 0
2,77633, Control_c, 0, 64, 80
2,77648, Control_c, 0, 64, 112
2,77663, Control_c, 0, 64, 127
2,77689, Note_on_c, 0, 61, 0
2,77715, Note_on_c, 0, 63, 69
2,77723, Note_on_c, 0, 71, 75
2,77863, Note_on_c, 0, 69, 67
2,77865, Note_on_c, 0, 64, 79
2,77887, Note_on_c, 0, 63, 0
2,77903, Note_on_c, 0, 71, 0
2,77930, Note_on_c, 0, 64, 0
2,78035, Note_on_c, 0, 69, 0
2,78035, Note_on_c, 0, 71, 75
2,78039, Note_on_c, 0, 56, 70
2,78039, Note_on_c, 0, 62, 71
2,78043, Control_c, 0, 64, 92
2,78055, Note_on_c, 0, 54, 0
2,78058, Control_c, 0, 64, 72
2,78074, Control_c, 0, 64, 63
2,78090, Control_c, 0, 64, 0
2,78175, Note_on_c, 0, 62, 0
2,78186, Note_on_c, 0, 61, 69
2,78350, Note_on_c, 0, 59, 72
2,78352, Note_on_c, 0, 61, 0
2,78371, Control_c, 0, 64, 44
2,78386, Control_c, 0, 64, 63
2,78402, Control_c, 0, 64, 66
2,78416, Control_c, 0, 64, 67
2,78431, Control_c, 0, 64, 68
2,78447, Control_c, 0, 64, 69
2,78462, Control_c, 0, 64, 69
2,78477, Control_c, 0, 64, 71
2,78492, Control_c, 0, 64, 74
2,78496, Note_on_c, 0, 62, 62
2,78507, Control_c, 0, 64, 76
2,78532, Note_on_c, 0, 59, 0
2,78537, Control_c, 0, 64, 76
2,78552, Control_c, 0, 64, 75
2,78583, Control_c, 0, 64, 75
2,78598, Control_c, 0, 64, 74
2,78613, Control_c, 0, 64, 73
2,78628, Control_c, 0, 64, 72
2,78644, Control_c, 0, 64, 71
2,78651, Note_on_c, 0, 53, 63
2,78659, Control_c, 0, 64, 69
2,78659, Note_on_c, 0, 61, 68
2,78673, Note_on_c, 0, 62, 0
2,78674, Control_c, 0, 64, 68
2,78689, Control_c, 0, 64, 66
2,78691, Note_on_c, 0, 56, 0
2,78704, Control_c, 0, 64, 64
2,78719, Control_c, 0, 64, 63
2,78735, Control_c, 0, 64, 58
2,78750, Control_c, 0, 64, 47
2,78765, Control_c, 0, 64, 0
2,78794, Note_on_c, 0, 59, 72
2,78796, Note_on_c, 0, 61, 0
2,78951, Note_on_c, 0, 49, 70
2,78953, Note_on_c, 0, 61, 71
2,78954, Note_on_c, 0, 59, 0
2,79047, Control_c, 0, 64, 13
2,79062, Control_c, 0, 64, 35
2,79077, Control_c, 0, 64, 46
2,79087, Note_on_c, 0, 71, 0
2,79092, Control_c, 0, 64, 47
2,79102, Note_on_c, 0, 61, 0
2,79106, Note_on_c, 0, 62, 78
2,79169, Control_c, 0, 64, 45
2,79183, Control_c, 0, 64, 40
2,79198, Control_c, 0, 64, 24
2,79214, Control_c, 0, 64, 0
2,79266, Note_on_c, 0, 62, 0
2,79273, Note_on_c, 0, 53, 0
2,79273, Note_on_c, 0, 69, 73
2,79282, Note_on_c, 0, 61, 72
2,79287, Note_on_c, 0, 54, 66
2,79312, Note_on_c, 0, 49, 0
2,79380, Control_c, 0, 64, 55
2,79395, Control_c, 0, 64, 62
2,79411, Control_c, 0, 64, 63
2,79435, Note_on_c, 0, 64, 72
2,79456, Control_c, 0, 64, 64
2,79471, Control_c, 0, 64, 65
2,79480, Note_on_c, 0, 61, 0
2,79487, Control_c, 0, 64, 67
2,79502, Control_c, 0, 64, 70
2,79503, Note_on_c, 0, 54, 0
2,79517, Control_c, 0, 64, 72
2,79533, Control_c, 0, 64, 71
2,79548, Control_c, 0, 64, 68
2,79564, Control_c, 0, 64, 63
2,79578, Control_c, 0, 64, 0
2,79587, Note_on_c, 0, 63, 75
2,79590, Note_on_c, 0, 54, 76
2,79594, Note_on_c, 0, 69, 0
2,79658, Note_on_c, 0, 64, 0
2,79685, Control_c, 0, 64, 54
2,79701, Control_c, 0, 64, 63
2,79716, Control_c, 0, 64, 65
2,79731, Control_c, 0, 64, 66
2,79739, Note_on_c, 0, 61, 74
2,79746, Control_c, 0, 64, 68
2,79769, Control_c, 0, 64, 71
2,79784, Control_c, 0, 64, 76
2,79799, Control_c, 0, 64, 78
2,79805, Note_on_c, 0, 63, 0
2,79828, Note_on_c, 0, 61, 0
2,79849, Note_on_c, 0, 54, 0
2,79875, Control_c, 0, 64, 78
2,79890, Control_c, 0, 64, 75
2,79905, Control_c, 0, 64, 70
2,79920, Control_c, 0, 64, 64
2,79933, Note_on_c, 0, 68, 79
2,79934, Control_c, 0, 64, 0
2,79939, Note_on_c, 0, 54, 82
2,79939, Note_on_c, 0, 56, 72
2,79945, Note_on_c, 0, 60, 71
2,80071, Control_c, 0, 64, 46
2,80085, Control_c, 0, 64, 60
2,80101, Control_c, 0, 64, 64
2,80116, Control_c, 0, 64, 66
2,80130, Note_on_c, 0, 54, 0
2,80132, Control_c, 0, 64, 70
2,80146, Control_c, 0, 64, 74
2,80161, Control_c, 0, 64, 77
2,80192, Control_c, 0, 64, 76
2,80207, Control_c, 0, 64, 76
2,80222, Control_c, 0, 64, 74
2,80237, Control_c, 0, 64, 71
2,80253, Control_c, 0, 64, 65
2,80268, Control_c, 0, 64, 42
2,80269, Note_on_c, 0, 52, 74
2,80272, Note_on_c, 0, 44, 68
2,80283, Control_c, 0, 64, 0
2,80401, Note_on_c, 0, 60, 0
2,80435, Note_on_c, 0, 51, 81
2,80463, Note_on_c, 0, 52, 0
2,80606, Note_on_c, 0, 49, 75
2,80612, Note_on_c, 0, 51, 0
2,80612, Note_on_c, 0, 61, 81
2,80615, Note_on_c, 0, 52, 71
2,80640, Note_on_c, 0, 44, 0
2,80679, Note_on_c, 0, 68, 0
2,80732, Control_c, 0, 64, 31
2,80747, Control_c, 0, 64, 62
2,80762, Control_c, 0, 64, 67
2,80778, Control_c, 0, 64, 71
2,80793, Control_c, 0, 64, 78
2,80793, Note_on_c, 0, 49, 0
2,80809, Control_c, 0, 64, 83
2,80824, Control_c, 0, 64, 87
2,80839, Control_c, 0, 64, 94
2,80854, Control_c, 0, 64, 100
2,80869, Control_c, 0, 64, 103
2,80900, Control_c, 0, 64, 94
2,80915, Control_c, 0, 64, 76
2,80930, Control_c, 0, 64, 64
2,80940, Note_on_c, 0, 49, 83
2,80945, Control_c, 0, 64, 0
2,80946, Note_on_c, 0, 56, 0
2,80993, Note_on_c, 0, 52, 0
2,81001, Note_on_c, 0, 61, 0
2,81005, Control_c, 0, 64, 60
2,81021, Control_c, 0, 64, 64
2,81036, Control_c, 0, 64, 67
2,81052, Control_c, 0, 64, 72
2,81067, Control_c, 0, 64, 82
2,81077, Note_on_c, 0, 49, 0
2,81082, Control_c, 0, 64, 98
2,81098, Control_c, 0, 64, 115
2,81113, Control_c, 0, 64, 116
2,81158, Control_c, 0, 64, 113
2,81174, Control_c, 0, 64, 112
2,81188, Control_c, 0, 64, 107
2,81203, Control_c, 0, 64, 103
2,81219, Control_c, 0, 64, 94
2,81234, Control_c, 0, 64, 82
2,81250, Control_c, 0, 64, 72
2,81264, Control_c, 0, 64, 64
2,81279, Control_c, 0, 64, 42
2,81303, Control_c, 0, 64, 0
2,81305, Note_on_c, 0, 75, 91
2,81316, Note_on_c, 0, 63, 70
2,81317, Note_on_c, 0, 49, 66
2,81322, Note_on_c, 0, 51, 61
2,81323, Note_on_c, 0, 55, 62
2,81554, Note_on_c, 0, 63, 0
2,81630, Note_on_c, 0, 63, 78
2,81631, Note_on_c, 0, 47, 67
2,81631, Note_on_c, 0, 49, 0
2,81744, Note_on_c, 0, 55, 0
2,81790, Note_on_c, 0, 46, 69
2,81794, Note_on_c, 0, 47, 0
2,81918, Note_on_c, 0, 68, 77
2,81921, Note_on_c, 0, 56, 60
2,81939, Note_on_c, 0, 46, 0
2,81945, Note_on_c, 0, 47, 60
2,81958, Note_on_c, 0, 63, 0
2,82078, Note_on_c, 0, 46, 63
2,82085, Note_on_c, 0, 47, 0
2,82085, Note_on_c, 0, 70, 82
2,82141, Note_on_c, 0, 68, 0
2,82233, Note_on_c, 0, 71, 73
2,82237, Note_on_c, 0, 44, 74
2,82241, Note_on_c, 0, 46, 0
2,82350, Note_on_c, 0, 75, 0
2,82371, Note_on_c, 0, 47, 64
2,82378, Note_on_c, 0, 56, 0
2,82385, Note_on_c, 0, 44, 0
2,82463, Note_on_c, 0, 70, 0
2,82522, Note_on_c, 0, 74, 87
2,82531, Note_on_c, 0, 51, 0
2,82532, Note_on_c, 0, 47, 0
2,82533, Note_on_c, 0, 46, 67
2,82539, Note_on_c, 0, 53, 67
2,82680, Note_on_c, 0, 46, 0
2,82682, Note_on_c, 0, 44, 71
2,82687, Note_on_c, 0, 71, 0
2,82845, Note_on_c, 0, 70, 80
2,82854, Note_on_c, 0, 46, 65
2,82885, Note_on_c, 0, 53, 0
2,82937, Note_on_c, 0, 74, 0
2,82970, Note_on_c, 0, 44, 0
2,82986, Note_on_c, 0, 47, 75
2,83078, Note_on_c, 0, 46, 0
2,83132, Note_on_c, 0, 78, 83
2,83139, Note_on_c, 0, 75, 83
2,83147, Note_on_c, 0, 46, 66
2,83161, Note_on_c, 0, 47, 0
2,83174, Note_on_c, 0, 70, 0
2,83285, Note_on_c, 0, 44, 73
2,83297, Note_on_c, 0, 46, 0
2,83380, Note_on_c, 0, 75, 0
2,83432, Note_on_c, 0, 42, 70
2,83434, Note_on_c, 0, 75, 82
2,83441, Note_on_c, 0, 44, 0
2,83581, Note_on_c, 0, 46, 73
2,83619, Note_on_c, 0, 75, 0
2,83634, Note_on_c, 0, 42, 0
2,83731, Note_on_c, 0, 77, 75
2,83740, Note_on_c, 0, 75, 80
2,83741, Note_on_c, 0, 44, 72
2,83763, Note_on_c, 0, 46, 0
2,83898, Note_on_c, 0, 42, 67
2,83899, Note_on_c, 0, 78, 0
2,83915, Note_on_c, 0, 44, 0
2,84054, Note_on_c, 0, 73, 80
2,84066, Note_on_c, 0, 44, 69
2,84093, Note_on_c, 0, 42, 0
2,84093, Note_on_c, 0, 75, 0
2,84207, Note_on_c, 0, 72, 87
2,84213, Note_on_c, 0, 46, 68
2,84221, Note_on_c, 0, 44, 0
2,84236, Note_on_c, 0, 73, 0
2,84370, Note_on_c, 0, 44, 53
2,84386, Note_on_c, 0, 46, 0
2,84399, Note_on_c, 0, 73, 74
2,84402, Note_on_c, 0, 76, 81
2,84418, Note_on_c, 0, 72, 0
2,84433, Note_on_c, 0, 77, 0
2,84561, Note_on_c, 0, 44, 0
2,84567, Note_on_c, 0, 47, 69
2,84752, Note_on_c, 0, 46, 67
2,84763, Note_on_c, 0, 47, 0
2,84895, Note_on_c, 0, 44, 74
2,84907, Note_on_c, 0, 46, 0
2,85061, Note_on_c, 0, 43, 70
2,85068, Note_on_c, 0, 75, 70
2,85069, Note_on_c, 0, 44, 0
2,85099, Note_on_c, 0, 73, 0
2,85136, Note_on_c, 0, 76, 0
2,85246, Note_on_c, 0, 73, 65
2,85268, Note_on_c, 0, 75, 0
2,85386, Note_on_c, 0, 75, 69
2,85393, Note_on_c, 0, 51, 70
2,85500, Note_on_c, 0, 43, 0
2,85523, Note_on_c, 0, 76, 69
2,85524, Note_on_c, 0, 75, 0
2,85534, Control_c, 0, 64, 57
2,85550, Control_c, 0, 64, 64
2,85562, Note_on_c, 0, 73, 0
2,85564, Control_c, 0, 64, 65
2,85673, Control_c, 0, 64, 64
2,85688, Control_c, 0, 64, 64
2,85688, Note_on_c, 0, 75, 73
2,85690, Note_on_c, 0, 56, 69
2,85694, Note_on_c, 0, 44, 66
2,85694, Note_on_c, 0, 71, 66
2,85704, Control_c, 0, 64, 61
2,85716, Note_on_c, 0, 76, 0
2,85719, Control_c, 0, 64, 52
2,85734, Control_c, 0, 64, 0
2,85755, Note_on_c, 0, 51, 0
2,85841, Control_c, 0, 64, 42
2,85844, Note_on_c, 0, 73, 72
2,85856, Control_c, 0, 64, 54
2,85871, Control_c, 0, 64, 59
2,85885, Note_on_c, 0, 71, 0
2,85886, Control_c, 0, 64, 63
2,85902, Note_on_c, 0, 75, 0
2,85909, Control_c, 0, 64, 65
2,85923, Note_on_c, 0, 56, 0
2,85924, Control_c, 0, 64, 67
2,85940, Control_c, 0, 64, 68
2,85955, Control_c, 0, 64, 69
2,85969, Control_c, 0, 64, 70
2,85985, Control_c, 0, 64, 70
2,86003, Note_on_c, 0, 56, 80
2,86003, Note_on_c, 0, 71, 71
2,86016, Control_c, 0, 64, 68
2,86031, Control_c, 0, 64, 64
2,86046, Control_c, 0, 64, 54
2,86061, Control_c, 0, 64, 0
2,86106, Control_c, 0, 64, 52
2,86121, Control_c, 0, 64, 62
2,86131, Note_on_c, 0, 71, 0
2,86137, Control_c, 0, 64, 64
2,86151, Note_on_c, 0, 75, 78
2,86152, Control_c, 0, 64, 65
2,86167, Control_c, 0, 64, 67
2,86180, Note_on_c, 0, 56, 0
2,86181, Note_on_c, 0, 73, 0
2,86182, Control_c, 0, 64, 68
2,86197, Control_c, 0, 64, 69
2,86212, Control_c, 0, 64, 71
2,86228, Control_c, 0, 64, 73
2,86262, Control_c, 0, 64, 72
2,86277, Control_c, 0, 64, 70
2,86291, Note_on_c, 0, 46, 71
2,86292, Control_c, 0, 64, 68
2,86293, Note_on_c, 0, 73, 71
2,86298, Note_on_c, 0, 70, 75
2,86300, Note_on_c, 0, 56, 68
2,86301, Note_on_c, 0, 44, 0
2,86309, Control_c, 0, 64, 67
2,86325, Control_c, 0, 64, 66
2,86327, Note_on_c, 0, 75, 0
2,86339, Control_c, 0, 64, 64
2,86354, Control_c, 0, 64, 58
2,86370, Control_c, 0, 64, 28
2,86385, Control_c, 0, 64, 0
2,86463, Note_on_c, 0, 71, 73
2,86476, Control_c, 0, 64, 32
2,86486, Note_on_c, 0, 73, 0
2,86491, Control_c, 0, 64, 38
2,86506, Control_c, 0, 64, 39
2,86522, Control_c, 0, 64, 37
2,86537, Control_c, 0, 64, 34
2,86552, Control_c, 0, 64, 33
2,86568, Control_c, 0, 64, 29
2,86583, Control_c, 0, 64, 26
2,86606, Note_on_c, 0, 73, 66
2,86619, Note_on_c, 0, 54, 69
2,86622, Note_on_c, 0, 71, 0
2,86628, Control_c, 0, 64, 28
2,86644, Control_c, 0, 64, 32
2,86662, Note_on_c, 0, 56, 0
2,86682, Control_c, 0, 64, 31
2,86696, Control_c, 0, 64, 17
2,86711, Control_c, 0, 64, 0
2,86770, Note_on_c, 0, 52, 71
2,86770, Note_on_c, 0, 54, 0
2,86770, Note_on_c, 0, 75, 80
2,86805, Note_on_c, 0, 73, 0
2,86819, Note_on_c, 0, 70, 0
2,86929, Note_on_c, 0, 73, 60
2,86935, Note_on_c, 0, 69, 62
2,86943, Note_on_c, 0, 54, 57
2,86948, Note_on_c, 0, 51, 63
2,86977, Note_on_c, 0, 75, 0
2,86981, Note_on_c, 0, 52, 0
2,87058, Note_on_c, 0, 46, 0
2,87116, Note_on_c, 0, 76, 79
2,87172, Note_on_c, 0, 73, 0
2,87287, Note_on_c, 0, 75, 87
2,87323, Note_on_c, 0, 76, 0
2,87442, Note_on_c, 0, 73, 85
2,87525, Note_on_c, 0, 75, 0
2,87631, Note_on_c, 0, 69, 0
2,87634, Note_on_c, 0, 72, 85
2,87638, Note_on_c, 0, 44, 54
2,87662, Note_on_c, 0, 54, 0
2,87680, Note_on_c, 0, 73, 0
2,87686, Note_on_c, 0, 51, 0
2,87797, Note_on_c, 0, 57, 60
2,87924, Note_on_c, 0, 57, 0
2,87950, Note_on_c, 0, 63, 75
2,87960, Note_on_c, 0, 56, 62
2,88099, Note_on_c, 0, 54, 68
2,88123, Note_on_c, 0, 56, 0
2,88236, Note_on_c, 0, 44, 0
2,88245, Note_on_c, 0, 71, 72
2,88247, Note_on_c, 0, 68, 76
2,88252, Note_on_c, 0, 54, 0
2,88260, Note_on_c, 0, 53, 59
2,88265, Note_on_c, 0, 63, 0
2,88270, Note_on_c, 0, 72, 0
2,88390, Note_on_c, 0, 53, 0
2,88391, Note_on_c, 0, 51, 63
2,88455, Note_on_c, 0, 68, 0
2,88539, Note_on_c, 0, 51, 0
2,88544, Note_on_c, 0, 68, 84
2,88557, Note_on_c, 0, 53, 54
2,88674, Note_on_c, 0, 53, 0
2,88687, Note_on_c, 0, 49, 67
2,88843, Note_on_c, 0, 70, 81
2,88849, Note_on_c, 0, 54, 63
2,88857, Note_on_c, 0, 49, 0
2,88863, Note_on_c, 0, 71, 0
2,89012, Note_on_c, 0, 53, 70
2,89020, Note_on_c, 0, 54, 0
2,89029, Note_on_c, 0, 68, 0
2,89160, Note_on_c, 0, 66, 79
2,89167, Note_on_c, 0, 54, 64
2,89173, Note_on_c, 0, 53, 0
2,89317, Note_on_c, 0, 65, 79
2,89323, Note_on_c, 0, 56, 73
2,89346, Note_on_c, 0, 66, 0
2,89355, Note_on_c, 0, 54, 0
2,89357, Note_on_c, 0, 70, 0
2,89477, Note_on_c, 0, 69, 78
2,89485, Note_on_c, 0, 56, 0
2,89488, Note_on_c, 0, 66, 75
2,89494, Note_on_c, 0, 57, 81
2,89523, Note_on_c, 0, 65, 0
2,89647, Note_on_c, 0, 57, 0
2,89653, Note_on_c, 0, 56, 74
2,89820, Note_on_c, 0, 57, 85
2,89838, Note_on_c, 0, 56, 0
2,89934, Control_c, 0, 64, 44
2,89949, Control_c, 0, 64, 62
2,89965, Control_c, 0, 64, 66
2,89979, Control_c, 0, 64, 73
2,89982, Note_on_c, 0, 59, 82
2,89983, Note_on_c, 0, 57, 0
2,89994, Control_c, 0, 64, 88
2,90010, Control_c, 0, 64, 127
2,90028, Note_on_c, 0, 59, 0
2,90191, Note_on_c, 0, 37, 96
2,90193, Note_on_c, 0, 61, 75
2,90197, Note_on_c, 0, 69, 0
2,90198, Note_on_c, 0, 68, 74
2,90208, Control_c, 0, 64, 103
2,90223, Control_c, 0, 64, 88
2,90238, Control_c, 0, 64, 76
2,90253, Control_c, 0, 64, 65
2,90268, Control_c, 0, 64, 0
2,90369, Note_on_c, 0, 60, 67
2,90372, Note_on_c, 0, 61, 0
2,90535, Note_on_c, 0, 61, 64
2,90559, Note_on_c, 0, 60, 0
2,90675, Note_on_c, 0, 63, 73
2,90703, Note_on_c, 0, 61, 0
2,90767, Note_on_c, 0, 66, 0
2,90835, Note_on_c, 0, 63, 0
2,90844, Note_on_c, 0, 64, 68
2,90990, Note_on_c, 0, 64, 0
2,90994, Note_on_c, 0, 63, 69
2,91149, Note_on_c, 0, 64, 67
2,91156, Note_on_c, 0, 63, 0
2,91203, Control_c, 0, 64, 58
2,91219, Control_c, 0, 64, 64
2,91234, Control_c, 0, 64, 67
2,91249, Control_c, 0, 64, 72
2,91264, Control_c, 0, 64, 80
2,91286, Control_c, 0, 64, 86
2,91292, Note_on_c, 0, 64, 0
2,91294, Note_on_c, 0, 66, 68
2,91301, Note_on_c, 0, 68, 0
2,91302, Control_c, 0, 64, 88
2,91378, Control_c, 0, 64, 87
2,91393, Control_c, 0, 64, 85
2,91409, Control_c, 0, 64, 81
2,91423, Control_c, 0, 64, 76
2,91432, Note_on_c, 0, 37, 0
2,91438, Control_c, 0, 64, 71
2,91441, Note_on_c, 0, 36, 88
2,91449, Note_on_c, 0, 68, 67
2,91454, Control_c, 0, 64, 67
2,91463, Note_on_c, 0, 63, 61
2,91466, Note_on_c, 0, 66, 0
2,91469, Control_c, 0, 64, 62
2,91484, Control_c, 0, 64, 31
2,91500, Control_c, 0, 64, 0
2,91625, Note_on_c, 0, 66, 64
2,91637, Note_on_c, 0, 68, 0
2,91763, Note_on_c, 0, 44, 74
2,91764, Note_on_c, 0, 68, 51
2,91793, Note_on_c, 0, 66, 0
2,91913, Note_on_c, 0, 69, 62
2,91923, Note_on_c, 0, 63, 0
2,91951, Note_on_c, 0, 68, 0
2,92020, Note_on_c, 0, 36, 0
2,92072, Note_on_c, 0, 49, 75
2,92075, Note_on_c, 0, 68, 71
2,92076, Note_on_c, 0, 40, 84
2,92093, Note_on_c, 0, 61, 62
2,92093, Note_on_c, 0, 69, 0
2,92097, Note_on_c, 0, 44, 0
2,92262, Note_on_c, 0, 66, 60
2,92314, Note_on_c, 0, 49, 0
2,92338, Note_on_c, 0, 68, 0
2,92414, Note_on_c, 0, 49, 71
2,92423, Note_on_c, 0, 64, 70
2,92435, Note_on_c, 0, 66, 0
2,92480, Control_c, 0, 64, 49
2,92496, Control_c, 0, 64, 61
2,92510, Control_c, 0, 64, 64
2,92525, Control_c, 0, 64, 65
2,92541, Control_c, 0, 64, 66
2,92580, Note_on_c, 0, 68, 74
2,92588, Note_on_c, 0, 61, 0
2,92607, Note_on_c, 0, 64, 0
2,92617, Control_c, 0, 64, 66
2,92620, Note_on_c, 0, 49, 0
2,92631, Control_c, 0, 64, 66
2,92646, Control_c, 0, 64, 65
2,92662, Control_c, 0, 64, 64
2,92677, Control_c, 0, 64, 64
2,92693, Control_c, 0, 64, 63
2,92707, Control_c, 0, 64, 61
2,92721, Note_on_c, 0, 49, 66
2,92722, Control_c, 0, 64, 59
2,92732, Note_on_c, 0, 39, 79
2,92734, Note_on_c, 0, 66, 74
2,92737, Note_on_c, 0, 63, 70
2,92738, Control_c, 0, 64, 53
2,92743, Note_on_c, 0, 40, 0
2,92753, Control_c, 0, 64, 33
2,92769, Control_c, 0, 64, 0
2,92772, Note_on_c, 0, 68, 0
2,92891, Note_on_c, 0, 64, 70
2,92906, Note_on_c, 0, 66, 0
2,93050, Note_on_c, 0, 66, 67
2,93053, Note_on_c, 0, 48, 58
2,93099, Note_on_c, 0, 64, 0
2,93207, Note_on_c, 0, 46, 68
2,93213, Note_on_c, 0, 68, 73
2,93229, Note_on_c, 0, 49, 0
2,93230, Note_on_c, 0, 48, 0
2,93264, Note_on_c, 0, 66, 0
2,93295, Note_on_c, 0, 63, 0
2,93364, Note_on_c, 0, 48, 67
2,93367, Note_on_c, 0, 66, 76
2,93384, Note_on_c, 0, 46, 0
2,93420, Note_on_c, 0, 68, 0
2,93516, Note_on_c, 0, 64, 75
2,93558, Note_on_c, 0, 66, 0
2,93673, Note_on_c, 0, 63, 80
2,93681, Control_c, 0, 64, 29
2,93697, Control_c, 0, 64, 61
2,93708, Note_on_c, 0, 64, 0
2,93711, Control_c, 0, 64, 66
2,93726, Control_c, 0, 64, 72
2,93742, Control_c, 0, 64, 107
2,93744, Note_on_c, 0, 48, 0
2,93757, Control_c, 0, 64, 127
2,93774, Note_on_c, 0, 39, 0
2,93825, Note_on_c, 0, 66, 79
2,93851, Note_on_c, 0, 63, 0
2,93884, Note_on_c, 0, 66, 0
2,93971, Control_c, 0, 64, 99
2,93985, Control_c, 0, 64, 84
2,93997, Note_on_c, 0, 73, 89
2,94000, Control_c, 0, 64, 73
2,94000, Note_on_c, 0, 49, 74
2,94000, Note_on_c, 0, 64, 82
2,94004, Note_on_c, 0, 37, 69
2,94016, Control_c, 0, 64, 65
2,94031, Control_c, 0, 64, 37
2,94046, Control_c, 0, 64, 0
2,94153, Note_on_c, 0, 63, 73
2,94178, Note_on_c, 0, 64, 0
2,94192, Note_on_c, 0, 37, 0
2,94306, Note_on_c, 0, 37, 72
2,94309, Note_on_c, 0, 64, 71
2,94318, Note_on_c, 0, 63, 0
2,94474, Note_on_c, 0, 66, 72
2,94479, Note_on_c, 0, 39, 72
2,94496, Note_on_c, 0, 37, 0
2,94503, Note_on_c, 0, 64, 0
2,94613, Note_on_c, 0, 64, 71
2,94628, Note_on_c, 0, 40, 75
2,94639, Note_on_c, 0, 39, 0
2,94682, Note_on_c, 0, 66, 0
2,94764, Note_on_c, 0, 40, 0
2,94778, Note_on_c, 0, 63, 76
2,94779, Note_on_c, 0, 64, 0
2,94903, Note_on_c, 0, 42, 75
2,94915, Note_on_c, 0, 61, 82
2,94931, Note_on_c, 0, 63, 0
2,95019, Note_on_c, 0, 42, 0
2,95042, Control_c, 0, 64, 45
2,95054, Note_on_c, 0, 64, 72
2,95058, Control_c, 0, 64, 54
2,95073, Control_c, 0, 64, 55
2,95082, Note_on_c, 0, 73, 0
2,95087, Control_c, 0, 64, 54
2,95098, Note_on_c, 0, 61, 0
2,95103, Control_c, 0, 64, 53
2,95125, Control_c, 0, 64, 52
2,95141, Control_c, 0, 64, 50
2,95156, Control_c, 0, 64, 46
2,95172, Control_c, 0, 64, 41
2,95187, Control_c, 0, 64, 28
2,95202, Control_c, 0, 64, 0
2,95215, Note_on_c, 0, 72, 80
2,95217, Note_on_c, 0, 64, 0
2,95224, Note_on_c, 0, 63, 76
2,95231, Note_on_c, 0, 44, 66
2,95268, Note_on_c, 0, 49, 0
2,95371, Note_on_c, 0, 42, 68
2,95397, Note_on_c, 0, 44, 0
2,95515, Note_on_c, 0, 68, 78
2,95518, Note_on_c, 0, 44, 68
2,95540, Note_on_c, 0, 63, 0
2,95562, Note_on_c, 0, 42, 0
2,95592, Note_on_c, 0, 72, 0
2,95596, Control_c, 0, 64, 44
2,95610, Control_c, 0, 64, 56
2,95626, Control_c, 0, 64, 60
2,95659, Note_on_c, 0, 45, 74
2,95662, Note_on_c, 0, 44, 0
2,95702, Control_c, 0, 64, 59
2,95717, Control_c, 0, 64, 58
2,95732, Control_c, 0, 64, 57
2,95747, Control_c, 0, 64, 54
2,95762, Control_c, 0, 64, 49
2,95778, Control_c, 0, 64, 37
2,95793, Control_c, 0, 64, 0
2,95801, Note_on_c, 0, 76, 81
2,95808, Note_on_c, 0, 44, 66
2,95810, Note_on_c, 0, 73, 75
2,95827, Note_on_c, 0, 68, 0
2,95852, Note_on_c, 0, 45, 0
2,95937, Control_c, 0, 64, 37
2,95952, Control_c, 0, 64, 47
2,95967, Control_c, 0, 64, 51
2,95976, Note_on_c, 0, 42, 74
2,95983, Control_c, 0, 64, 60
2,95994, Note_on_c, 0, 44, 0
2,95998, Control_c, 0, 64, 63
2,96013, Control_c, 0, 64, 64
2,96080, Note_on_c, 0, 73, 0
2,96090, Control_c, 0, 64, 64
2,96106, Control_c, 0, 64, 61
2,96120, Control_c, 0, 64, 45
2,96132, Note_on_c, 0, 40, 64
2,96132, Note_on_c, 0, 73, 78
2,96134, Note_on_c, 0, 42, 0
2,96136, Control_c, 0, 64, 0
2,96258, Control_c, 0, 64, 38
2,96273, Control_c, 0, 64, 54
2,96286, Note_on_c, 0, 40, 0
2,96288, Control_c, 0, 64, 58
2,96288, Note_on_c, 0, 44, 75
2,96304, Control_c, 0, 64, 57
2,96333, Control_c, 0, 64, 57
2,96334, Note_on_c, 0, 73, 0
2,96349, Control_c, 0, 64, 56
2,96364, Control_c, 0, 64, 54
2,96379, Control_c, 0, 64, 52
2,96394, Control_c, 0, 64, 51
2,96409, Control_c, 0, 64, 50
2,96425, Control_c, 0, 64, 45
2,96429, Note_on_c, 0, 73, 84
2,96431, Note_on_c, 0, 75, 86
2,96440, Control_c, 0, 64, 34
2,96442, Note_on_c, 0, 42, 71
2,96446, Note_on_c, 0, 44, 0
2,96454, Control_c, 0, 64, 0
2,96465, Note_on_c, 0, 76, 0
2,96591, Note_on_c, 0, 40, 57
2,96612, Note_on_c, 0, 42, 0
2,96726, Note_on_c, 0, 73, 0
2,96750, Note_on_c, 0, 72, 75
2,96759, Note_on_c, 0, 42, 66
2,96779, Note_on_c, 0, 40, 0
2,96911, Note_on_c, 0, 44, 63
2,96911, Note_on_c, 0, 70, 75
2,96917, Note_on_c, 0, 72, 0
2,96929, Note_on_c, 0, 42, 0
2,97062, Note_on_c, 0, 42, 54
2,97066, Note_on_c, 0, 72, 77
2,97083, Note_on_c, 0, 70, 0
2,97096, Note_on_c, 0, 44, 0
2,97198, Note_on_c, 0, 42, 0
2,97207, Note_on_c, 0, 40, 62
2,97212, Note_on_c, 0, 73, 82
2,97246, Note_on_c, 0, 75, 0
2,97252, Note_on_c, 0, 72, 0
2,97389, Note_on_c, 0, 75, 92
2,97392, Note_on_c, 0, 40, 0
2,97396, Note_on_c, 0, 39, 62
2,97424, Note_on_c, 0, 73, 0
2,97559, Note_on_c, 0, 42, 63
2,97562, Note_on_c, 0, 72, 60
2,97621, Note_on_c, 0, 39, 0
2,97726, Note_on_c, 0, 68, 67
2,97733, Note_on_c, 0, 40, 71
2,97746, Note_on_c, 0, 42, 0
2,97746, Note_on_c, 0, 72, 0
2,97899, Note_on_c, 0, 66, 69
2,97905, Note_on_c, 0, 68, 0
2,98018, Note_on_c, 0, 40, 0
2,98024, Note_on_c, 0, 52, 84
2,98042, Note_on_c, 0, 68, 65
2,98045, Note_on_c, 0, 66, 0
2,98194, Note_on_c, 0, 68, 0
2,98198, Control_c, 0, 64, 43
2,98201, Note_on_c, 0, 69, 68
2,98211, Note_on_c, 0, 75, 0
2,98214, Control_c, 0, 64, 56
2,98229, Control_c, 0, 64, 56
2,98244, Control_c, 0, 64, 55
2,98290, Control_c, 0, 64, 55
2,98305, Control_c, 0, 64, 53
2,98320, Control_c, 0, 64, 48
2,98336, Control_c, 0, 64, 33
2,98350, Control_c, 0, 64, 0
2,98359, Note_on_c, 0, 57, 82
2,98364, Note_on_c, 0, 73, 75
2,98370, Note_on_c, 0, 52, 0
2,98373, Note_on_c, 0, 68, 73
2,98392, Note_on_c, 0, 69, 0
2,98502, Control_c, 0, 64, 35
2,98517, Control_c, 0, 64, 60
2,98532, Control_c, 0, 64, 64
2,98541, Note_on_c, 0, 66, 68
2,98549, Control_c, 0, 64, 65
2,98564, Control_c, 0, 64, 65
2,98599, Note_on_c, 0, 57, 0
2,98616, Note_on_c, 0, 68, 0
2,98624, Control_c, 0, 64, 65
2,98639, Control_c, 0, 64, 64
2,98655, Control_c, 0, 64, 63
2,98670, Control_c, 0, 64, 53
2,98685, Control_c, 0, 64, 0
2,98685, Note_on_c, 0, 57, 87
2,98697, Note_on_c, 0, 64, 69
2,98712, Note_on_c, 0, 66, 0
2,98791, Control_c, 0, 64, 22
2,98806, Control_c, 0, 64, 54
2,98822, Control_c, 0, 64, 64
2,98837, Control_c, 0, 64, 66
2,98846, Note_on_c, 0, 68, 67
2,98853, Control_c, 0, 64, 68
2,98868, Control_c, 0, 64, 70
2,98880, Note_on_c, 0, 64, 0
2,98883, Control_c, 0, 64, 71
2,98883, Note_on_c, 0, 57, 0
2,98898, Control_c, 0, 64, 70
2,98944, Control_c, 0, 64, 69
2,98965, Control_c, 0, 64, 68
2,98981, Control_c, 0, 64, 65
2,98990, Note_on_c, 0, 57, 88
2,98991, Note_on_c, 0, 66, 74
2,98996, Control_c, 0, 64, 55
2,99012, Control_c, 0, 64, 0
2,99064, Note_on_c, 0, 68, 0
2,99118, Control_c, 0, 64, 42
2,99134, Control_c, 0, 64, 52
2,99149, Control_c, 0, 64, 56
2,99149, Note_on_c, 0, 64, 71
2,99152, Note_on_c, 0, 66, 0
2,99163, Control_c, 0, 64, 58
2,99179, Control_c, 0, 64, 59
2,99194, Control_c, 0, 64, 58
2,99294, Note_on_c, 0, 56, 76
2,99301, Note_on_c, 0, 66, 73
2,99315, Control_c, 0, 64, 56
2,99322, Note_on_c, 0, 57, 0
2,99331, Control_c, 0, 64, 50
2,99346, Control_c, 0, 64, 42
2,99361, Control_c, 0, 64, 31
2,99372, Note_on_c, 0, 73, 0
2,99378, Control_c, 0, 64, 20
2,99391, Note_on_c, 0, 64, 0
2,99393, Control_c, 0, 64, 0
2,99430, Note_on_c, 0, 68, 74
2,99442, Note_on_c, 0, 54, 81
2,99449, Note_on_c, 0, 56, 0
2,99463, Note_on_c, 0, 66, 0
2,99592, Note_on_c, 0, 54, 0
2,99593, Note_on_c, 0, 72, 77
2,99594, Note_on_c, 0, 66, 74
2,99604, Note_on_c, 0, 56, 75
2,99624, Note_on_c, 0, 68, 0
2,99739, Note_on_c, 0, 66, 0
2,99759, Note_on_c, 0, 64, 68
2,99911, Note_on_c, 0, 63, 66
2,99913, Note_on_c, 0, 44, 72
2,99945, Note_on_c, 0, 64, 0
2,100016, Note_on_c, 0, 56, 0
2,100068, Note_on_c, 0, 66, 68
2,100073, Note_on_c, 0, 63, 0
2,100083, Control_c, 0, 64, 32
2,100099, Control_c, 0, 64, 47
2,100114, Control_c, 0, 64, 47
2,100130, Control_c, 0, 64, 54
2,100145, Control_c, 0, 64, 58
2,100159, Control_c, 0, 64, 59
2,100206, Control_c, 0, 64, 60
2,100222, Control_c, 0, 64, 61
2,100228, Note_on_c, 0, 66, 0
2,100236, Control_c, 0, 64, 61
2,100260, Note_on_c, 0, 49, 90
2,100262, Note_on_c, 0, 44, 0
2,100262, Note_on_c, 0, 64, 64
2,100267, Control_c, 0, 64, 59
2,100282, Control_c, 0, 64, 43
2,100298, Control_c, 0, 64, 0
2,100419, Control_c, 0, 64, 33
2,100425, Note_on_c, 0, 64, 0
2,100434, Control_c, 0, 64, 62
2,100438, Note_on_c, 0, 68, 65
2,100439, Note_on_c, 0, 72, 0
2,100449, Control_c, 0, 64, 64
2,100464, Control_c, 0, 64, 65
2,100479, Control_c, 0, 64, 66
2,100503, Control_c, 0, 64, 67
2,100518, Control_c, 0, 64, 67
2,100548, Control_c, 0, 64, 67
2,100576, Note_on_c, 0, 68, 0
2,100579, Control_c, 0, 64, 66
2,100594, Control_c, 0, 64, 65
2,100595, Note_on_c, 0, 73, 70
2,100601, Note_on_c, 0, 69, 63
2,100609, Control_c, 0, 64, 63
2,100612, Note_on_c, 0, 47, 65
2,100624, Control_c, 0, 64, 52
2,100639, Control_c, 0, 64, 0
2,100754, Note_on_c, 0, 75, 73
2,100757, Note_on_c, 0, 69, 0
2,100759, Note_on_c, 0, 71, 54
2,100766, Note_on_c, 0, 73, 0
2,100776, Control_c, 0, 64, 44
2,100791, Control_c, 0, 64, 60
2,100806, Control_c, 0, 64, 64
2,100822, Control_c, 0, 64, 64
2,100837, Control_c, 0, 64, 65
2,100898, Control_c, 0, 64, 64
2,100907, Note_on_c, 0, 76, 73
2,100913, Control_c, 0, 64, 57
2,100916, Note_on_c, 0, 45, 73
2,100921, Note_on_c, 0, 73, 65
2,100923, Note_on_c, 0, 71, 0
2,100924, Note_on_c, 0, 47, 0
2,100927, Control_c, 0, 64, 0
2,100932, Note_on_c, 0, 75, 0
2,101047, Note_on_c, 0, 76, 0
2,101054, Note_on_c, 0, 75, 73
2,101074, Note_on_c, 0, 73, 0
2,101079, Control_c, 0, 64, 17
2,101095, Control_c, 0, 64, 49
2,101110, Control_c, 0, 64, 63
2,101125, Control_c, 0, 64, 64
2,101141, Control_c, 0, 64, 64
2,101155, Control_c, 0, 64, 65
2,101171, Control_c, 0, 64, 65
2,101186, Control_c, 0, 64, 67
2,101194, Note_on_c, 0, 45, 0
2,101201, Control_c, 0, 64, 70
2,101217, Control_c, 0, 64, 79
2,101217, Note_on_c, 0, 75, 0
2,101220, Note_on_c, 0, 72, 73
2,101224, Note_on_c, 0, 78, 72
2,101231, Control_c, 0, 64, 91
2,101238, Note_on_c, 0, 49, 0
2,101246, Control_c, 0, 64, 100
2,101270, Control_c, 0, 64, 101
2,101285, Control_c, 0, 64, 101
2,101331, Note_on_c, 0, 72, 0
2,101373, Note_on_c, 0, 73, 66
2,101375, Note_on_c, 0, 78, 0
2,101376, Control_c, 0, 64, 101
2,101406, Control_c, 0, 64, 98
2,101421, Control_c, 0, 64, 93
2,101436, Control_c, 0, 64, 85
2,101452, Control_c, 0, 64, 79
2,101467, Control_c, 0, 64, 74
2,101482, Control_c, 0, 64, 70
2,101498, Control_c, 0, 64, 66
2,101505, Note_on_c, 0, 73, 0
2,101512, Control_c, 0, 64, 56
2,101527, Control_c, 0, 64, 0
2,101530, Note_on_c, 0, 48, 55
2,101537, Note_on_c, 0, 75, 68
2,101538, Note_on_c, 0, 80, 60
2,101541, Note_on_c, 0, 44, 49
2,101680, Control_c, 0, 64, 54
2,101695, Control_c, 0, 64, 63
2,101709, Note_on_c, 0, 78, 65
2,101710, Control_c, 0, 64, 64
2,101725, Control_c, 0, 64, 66
2,101741, Control_c, 0, 64, 67
2,101753, Note_on_c, 0, 75, 0
2,101756, Control_c, 0, 64, 70
2,101765, Note_on_c, 0, 80, 0
2,101771, Control_c, 0, 64, 75
2,101786, Control_c, 0, 64, 81
2,101801, Control_c, 0, 64, 83
2,101840, Note_on_c, 0, 48, 0
2,101849, Control_c, 0, 64, 84
2,101855, Note_on_c, 0, 56, 66
2,101855, Note_on_c, 0, 80, 65
2,101859, Note_on_c, 0, 44, 0
2,101864, Control_c, 0, 64, 84
2,101878, Control_c, 0, 64, 85
2,101923, Control_c, 0, 64, 84
2,101939, Control_c, 0, 64, 84
2,101939, Control_c, 0, 67, 17
2,101939, Note_on_c, 0, 78, 0
2,101954, Control_c, 0, 64, 83
2,101954, Control_c, 0, 67, 24
2,101970, Control_c, 0, 64, 82
2,101970, Control_c, 0, 67, 31
2,101985, Control_c, 0, 67, 38
2,101997, Note_on_c, 0, 81, 63
2,101999, Control_c, 0, 64, 82
2,101999, Control_c, 0, 67, 49
2,102014, Note_on_c, 0, 80, 0
2,102015, Control_c, 0, 64, 81
2,102015, Control_c, 0, 67, 65
2,102038, Control_c, 0, 64, 81
2,102038, Control_c, 0, 67, 80
2,102053, Control_c, 0, 64, 78
2,102053, Control_c, 0, 67, 93
2,102068, Control_c, 0, 64, 75
2,102068, Control_c, 0, 67, 104
2,102083, Control_c, 0, 64, 72
2,102083, Control_c, 0, 67, 110
2,102099, Control_c, 0, 64, 70
2,102099, Control_c, 0, 67, 116
2,102114, Control_c, 0, 64, 68
2,102114, Control_c, 0, 67, 123
2,102130, Control_c, 0, 64, 67
2,102130, Control_c, 0, 67, 127
2,102144, Control_c, 0, 64, 66
2,102159, Control_c, 0, 64, 64
2,102166, Note_on_c, 0, 81, 0
2,102175, Control_c, 0, 64, 63
2,102176, Note_on_c, 0, 80, 60
2,102190, Control_c, 0, 64, 58
2,102194, Note_on_c, 0, 61, 59
2,102196, Note_on_c, 0, 52, 50
2,102205, Control_c, 0, 64, 49
2,102220, Control_c, 0, 64, 33
2,102226, Note_on_c, 0, 56, 0
2,102235, Control_c, 0, 64, 0
2,102348, Note_on_c, 0, 78, 62
2,102387, Note_on_c, 0, 80, 0
2,102402, Control_c, 0, 64, 37
2,102418, Control_c, 0, 64, 50
2,102427, Note_on_c, 0, 61, 0
2,102433, Control_c, 0, 64, 58
2,102449, Control_c, 0, 64, 62
2,102463, Control_c, 0, 64, 63
2,102478, Control_c, 0, 64, 64
2,102491, Note_on_c, 0, 78, 0
2,102494, Note_on_c, 0, 61, 58
2,102504, Note_on_c, 0, 76, 57
2,102570, Control_c, 0, 64, 63
2,102585, Control_c, 0, 64, 63
2,102615, Control_c, 0, 64, 62
2,102638, Note_on_c, 0, 76, 0
2,102659, Note_on_c, 0, 80, 58
2,102662, Control_c, 0, 64, 61
2,102671, Note_on_c, 0, 61, 0
2,102677, Control_c, 0, 64, 60
2,102692, Control_c, 0, 64, 58
2,102707, Control_c, 0, 64, 58
2,102722, Control_c, 0, 64, 57
2,102738, Control_c, 0, 64, 56
2,102753, Control_c, 0, 64, 54
2,102767, Control_c, 0, 64, 53
2,102783, Control_c, 0, 64, 53
2,102802, Note_on_c, 0, 61, 53
2,102805, Control_c, 0, 64, 52
2,102807, Note_on_c, 0, 52, 0
2,102815, Note_on_c, 0, 51, 57
2,102819, Note_on_c, 0, 78, 57
2,102821, Control_c, 0, 64, 49
2,102833, Note_on_c, 0, 80, 0
2,102836, Control_c, 0, 64, 44
2,102852, Control_c, 0, 64, 37
2,102867, Control_c, 0, 64, 34
2,102882, Control_c, 0, 64, 33
2,102897, Control_c, 0, 64, 31
2,102912, Control_c, 0, 64, 28
2,102927, Control_c, 0, 64, 22
2,102943, Control_c, 0, 64, 20
2,102965, Note_on_c, 0, 76, 60
2,102966, Note_on_c, 0, 78, 0
2,102988, Control_c, 0, 64, 0
2,103117, Note_on_c, 0, 78, 57
2,103126, Note_on_c, 0, 60, 56
2,103126, Note_on_c, 0, 76, 0
2,103136, Note_on_c, 0, 61, 0
2,103267, Note_on_c, 0, 80, 58
2,103273, Note_on_c, 0, 78, 0
2,103281, Note_on_c, 0, 60, 0
2,103287, Note_on_c, 0, 58, 59
2,103435, Note_on_c, 0, 78, 61
2,103447, Note_on_c, 0, 60, 49
2,103451, Note_on_c, 0, 80, 0
2,103467, Note_on_c, 0, 58, 0
2,103593, Note_on_c, 0, 76, 54
2,103596, Note_on_c, 0, 78, 0
2,103604, Control_c, 0, 64, 47
2,103619, Control_c, 0, 64, 59
2,103634, Control_c, 0, 64, 63
2,103650, Control_c, 0, 64, 65
2,103665, Control_c, 0, 64, 67
2,103680, Control_c, 0, 64, 68
2,103696, Control_c, 0, 64, 69
2,103711, Control_c, 0, 64, 71
2,103714, Note_on_c, 0, 60, 0
2,103720, Note_on_c, 0, 51, 0
2,103722, Note_on_c, 0, 76, 0
2,103726, Control_c, 0, 64, 71
2,103754, Note_on_c, 0, 75, 63
2,103817, Control_c, 0, 64, 71
2,103847, Control_c, 0, 64, 70
2,103863, Control_c, 0, 64, 70
2,103877, Control_c, 0, 64, 69
2,103893, Control_c, 0, 64, 69
2,103907, Note_on_c, 0, 75, 0
2,103908, Control_c, 0, 64, 68
2,103911, Note_on_c, 0, 78, 54
2,103923, Control_c, 0, 64, 67
2,103939, Control_c, 0, 64, 67
2,103953, Control_c, 0, 64, 66
2,103968, Control_c, 0, 64, 65
2,103984, Control_c, 0, 64, 64
2,103999, Control_c, 0, 64, 64
2,104015, Control_c, 0, 64, 62
2,104029, Control_c, 0, 64, 57
2,104038, Note_on_c, 0, 49, 41
2,104044, Control_c, 0, 64, 40
2,104053, Note_on_c, 0, 76, 54
2,104058, Note_on_c, 0, 61, 35
2,104060, Control_c, 0, 64, 0
2,104076, Note_on_c, 0, 78, 0
2,104196, Control_c, 0, 64, 32
2,104212, Control_c, 0, 64, 50
2,104216, Note_on_c, 0, 76, 0
2,104224, Note_on_c, 0, 75, 66
2,104226, Control_c, 0, 64, 58
2,104241, Control_c, 0, 64, 61
2,104257, Control_c, 0, 64, 63
2,104272, Control_c, 0, 64, 63
2,104288, Control_c, 0, 64, 64
2,104303, Control_c, 0, 64, 65
2,104360, Note_on_c, 0, 49, 0
2,104370, Note_on_c, 0, 76, 55
2,104377, Note_on_c, 0, 52, 51
2,104386, Control_c, 0, 64, 64
2,104417, Control_c, 0, 64, 64
2,104432, Control_c, 0, 64, 63
2,104447, Control_c, 0, 64, 61
2,104463, Control_c, 0, 64, 55
2,104478, Control_c, 0, 64, 42
2,104483, Note_on_c, 0, 75, 0
2,104494, Control_c, 0, 64, 35
2,104509, Control_c, 0, 64, 42
2,104515, Note_on_c, 0, 76, 0
2,104520, Note_on_c, 0, 78, 61
2,104523, Control_c, 0, 64, 53
2,104539, Control_c, 0, 64, 60
2,104554, Control_c, 0, 64, 63
2,104570, Control_c, 0, 64, 64
2,104585, Control_c, 0, 64, 65
2,104599, Control_c, 0, 64, 65
2,104630, Control_c, 0, 64, 66
2,104669, Note_on_c, 0, 52, 0
2,104671, Note_on_c, 0, 57, 60
2,104671, Note_on_c, 0, 76, 53
2,104675, Control_c, 0, 64, 65
2,104680, Note_on_c, 0, 78, 0
2,104691, Control_c, 0, 64, 63
2,104706, Control_c, 0, 64, 57
2,104720, Control_c, 0, 64, 0
2,104796, Control_c, 0, 64, 37
2,104812, Control_c, 0, 64, 56
2,104821, Note_on_c, 0, 74, 63
2,104827, Control_c, 0, 64, 62
2,104834, Note_on_c, 0, 76, 0
2,104842, Control_c, 0, 64, 64
2,104858, Control_c, 0, 64, 67
2,104873, Control_c, 0, 64, 73
2,104887, Note_on_c, 0, 57, 0
2,104888, Control_c, 0, 64, 85
2,104904, Control_c, 0, 64, 106
2,104918, Control_c, 0, 64, 122
2,104934, Control_c, 0, 67, 125
2,104949, Control_c, 0, 67, 121
2,104949, Note_on_c, 0, 74, 0
2,104964, Control_c, 0, 67, 116
2,104966, Note_on_c, 0, 73, 67
2,104968, Note_on_c, 0, 57, 65
2,104980, Control_c, 0, 64, 119
2,104980, Control_c, 0, 67, 111
2,104995, Control_c, 0, 64, 98
2,104995, Control_c, 0, 67, 106
2,105011, Control_c, 0, 64, 76
2,105011, Control_c, 0, 67, 103
2,105025, Control_c, 0, 64, 65
2,105025, Control_c, 0, 67, 101
2,105040, Control_c, 0, 64, 20
2,105040, Control_c, 0, 67, 98
2,105056, Control_c, 0, 64, 0
2,105056, Control_c, 0, 67, 94
2,105071, Control_c, 0, 67, 85
2,105086, Control_c, 0, 64, 29
2,105086, Control_c, 0, 67, 73
2,105110, Control_c, 0, 64, 53
2,105110, Control_c, 0, 67, 63
2,105125, Control_c, 0, 64, 60
2,105125, Control_c, 0, 67, 58
2,105141, Control_c, 0, 64, 63
2,105141, Control_c, 0, 67, 56
2,105141, Note_on_c, 0, 76, 67
2,105150, Note_on_c, 0, 73, 0
2,105155, Control_c, 0, 64, 65
2,105155, Control_c, 0, 67, 55
2,105157, Note_on_c, 0, 57, 0
2,105171, Control_c, 0, 64, 68
2,105171, Control_c, 0, 67, 54
2,105177, Note_on_c, 0, 61, 0
2,105186, Control_c, 0, 64, 74
2,105186, Control_c, 0, 67, 52
2,105201, Control_c, 0, 64, 87
2,105201, Control_c, 0, 67, 51
2,105217, Control_c, 0, 64, 119
2,105217, Control_c, 0, 67, 50
2,105231, Control_c, 0, 64, 127
2,105231, Control_c, 0, 67, 49
2,105246, Control_c, 0, 67, 47
2,105262, Control_c, 0, 67, 44
2,105277, Control_c, 0, 64, 106
2,105277, Control_c, 0, 67, 40
2,105284, Note_on_c, 0, 74, 72
2,105293, Control_c, 0, 64, 86
2,105293, Control_c, 0, 67, 36
2,105293, Note_on_c, 0, 59, 64
2,105293, Note_on_c, 0, 76, 0
2,105299, Note_on_c, 0, 57, 57
2,105307, Control_c, 0, 64, 71
2,105307, Control_c, 0, 67, 34
2,105322, Control_c, 0, 64, 60
2,105322, Control_c, 0, 67, 33
2,105338, Control_c, 0, 64, 0
2,105338, Control_c, 0, 67, 31
2,105353, Control_c, 0, 67, 30
2,105367, Control_c, 0, 64, 49
2,105367, Control_c, 0, 67, 28
2,105383, Control_c, 0, 64, 59
2,105383, Control_c, 0, 67, 28
2,105398, Control_c, 0, 64, 62
2,105414, Control_c, 0, 64, 64
2,105428, Note_on_c, 0, 74, 0
2,105429, Control_c, 0, 64, 65
2,105433, Note_on_c, 0, 73, 61
2,105444, Control_c, 0, 64, 67
2,105444, Control_c, 0, 67, 27
2,105460, Control_c, 0, 64, 69
2,105475, Control_c, 0, 64, 72
2,105491, Control_c, 0, 64, 74
2,105505, Control_c, 0, 64, 75
2,105505, Control_c, 0, 67, 27
2,105520, Control_c, 0, 64, 74
2,105520, Control_c, 0, 67, 26
2,105536, Control_c, 0, 64, 73
2,105536, Control_c, 0, 67, 26
2,105551, Control_c, 0, 64, 71
2,105551, Control_c, 0, 67, 25
2,105557, Note_on_c, 0, 73, 0
2,105565, Control_c, 0, 64, 69
2,105571, Note_on_c, 0, 57, 0
2,105581, Control_c, 0, 64, 67
2,105582, Note_on_c, 0, 56, 55
2,105585, Note_on_c, 0, 66, 71
2,105588, Note_on_c, 0, 74, 65
2,105596, Control_c, 0, 64, 64
2,105612, Control_c, 0, 64, 61
2,105627, Control_c, 0, 64, 57
2,105641, Control_c, 0, 64, 56
2,105657, Control_c, 0, 64, 56
2,105657, Control_c, 0, 67, 25
2,105672, Control_c, 0, 64, 58
2,105672, Control_c, 0, 67, 24
2,105686, Control_c, 0, 64, 59
2,105686, Control_c, 0, 67, 23
2,105702, Control_c, 0, 64, 61
2,105702, Control_c, 0, 67, 22
2,105717, Control_c, 0, 64, 63
2,105717, Control_c, 0, 67, 21
2,105733, Control_c, 0, 64, 63
2,105744, Note_on_c, 0, 54, 61
2,105748, Control_c, 0, 64, 64
2,105750, Note_on_c, 0, 76, 67
2,105753, Note_on_c, 0, 56, 0
2,105762, Control_c, 0, 64, 64
2,105778, Control_c, 0, 67, 20
2,105790, Note_on_c, 0, 74, 0
2,105793, Control_c, 0, 67, 19
2,105808, Control_c, 0, 67, 18
2,105824, Control_c, 0, 67, 17
2,105854, Control_c, 0, 64, 63
2,105854, Control_c, 0, 67, 17
2,105876, Note_on_c, 0, 66, 0
2,105877, Control_c, 0, 64, 51
2,105886, Note_on_c, 0, 59, 0
2,105893, Control_c, 0, 64, 0
2,105898, Note_on_c, 0, 56, 68
2,105903, Note_on_c, 0, 71, 73
2,105906, Note_on_c, 0, 54, 0
2,105906, Note_on_c, 0, 74, 74
2,105914, Note_on_c, 0, 76, 0
2,105940, Control_c, 0, 67, 16
2,105970, Control_c, 0, 67, 16
2,105985, Control_c, 0, 67, 14
2,105999, Control_c, 0, 67, 13
2,106015, Control_c, 0, 64, 35
2,106015, Control_c, 0, 67, 12
2,106030, Control_c, 0, 64, 63
2,106030, Control_c, 0, 67, 12
2,106045, Control_c, 0, 64, 64
2,106045, Control_c, 0, 67, 11
2,106053, Note_on_c, 0, 73, 71
2,106061, Control_c, 0, 64, 65
2,106061, Control_c, 0, 67, 11
2,106075, Control_c, 0, 64, 67
2,106075, Control_c, 0, 67, 10
2,106080, Note_on_c, 0, 71, 0
2,106091, Control_c, 0, 64, 69
2,106091, Control_c, 0, 67, 8
2,106106, Control_c, 0, 64, 72
2,106106, Control_c, 0, 67, 0
2,106121, Control_c, 0, 64, 76
2,106137, Control_c, 0, 64, 77
2,106143, Note_on_c, 0, 74, 0
2,106151, Control_c, 0, 64, 72
2,106166, Control_c, 0, 64, 63
2,106182, Control_c, 0, 64, 0
2,106192, Note_on_c, 0, 66, 68
2,106199, Note_on_c, 0, 73, 0
2,106202, Note_on_c, 0, 71, 76
2,106273, Control_c, 0, 64, 51
2,106288, Control_c, 0, 64, 64
2,106303, Control_c, 0, 64, 68
2,106318, Control_c, 0, 64, 72
2,106334, Control_c, 0, 64, 76
2,106343, Note_on_c, 0, 74, 79
2,106349, Control_c, 0, 64, 79
2,106358, Note_on_c, 0, 71, 0
2,106364, Control_c, 0, 64, 81
2,106378, Note_on_c, 0, 66, 0
2,106380, Control_c, 0, 64, 83
2,106395, Control_c, 0, 64, 85
2,106425, Control_c, 0, 64, 82
2,106440, Control_c, 0, 64, 76
2,106456, Control_c, 0, 64, 68
2,106471, Control_c, 0, 64, 62
2,106485, Control_c, 0, 64, 47
2,106490, Note_on_c, 0, 73, 74
2,106491, Note_on_c, 0, 71, 75
2,106493, Note_on_c, 0, 65, 73
2,106501, Control_c, 0, 64, 46
2,106512, Note_on_c, 0, 74, 0
2,106516, Control_c, 0, 64, 54
2,106531, Control_c, 0, 64, 59
2,106546, Control_c, 0, 64, 63
2,106561, Control_c, 0, 64, 64
2,106562, Note_on_c, 0, 71, 0
2,106577, Control_c, 0, 64, 66
2,106592, Control_c, 0, 64, 70
2,106606, Control_c, 0, 64, 77
2,106611, Note_on_c, 0, 65, 0
2,106622, Control_c, 0, 64, 91
2,106645, Control_c, 0, 64, 112
2,106652, Note_on_c, 0, 73, 0
2,106654, Note_on_c, 0, 71, 79
2,106661, Control_c, 0, 64, 127
2,106738, Control_c, 0, 64, 122
2,106753, Control_c, 0, 64, 97
2,106767, Control_c, 0, 64, 81
2,106783, Control_c, 0, 64, 68
2,106798, Control_c, 0, 64, 43
2,106798, Note_on_c, 0, 49, 76
2,106798, Note_on_c, 0, 73, 69
2,106801, Note_on_c, 0, 71, 0
2,106807, Note_on_c, 0, 69, 70
2,106814, Control_c, 0, 64, 0
2,106859, Control_c, 0, 64, 34
2,106874, Control_c, 0, 64, 56
2,106890, Control_c, 0, 64, 62
2,106895, Note_on_c, 0, 56, 0
2,106905, Control_c, 0, 64, 64
2,106906, Note_on_c, 0, 49, 0
2,106919, Control_c, 0, 64, 66
2,106935, Control_c, 0, 64, 68
2,106950, Control_c, 0, 64, 71
2,106950, Note_on_c, 0, 74, 71
2,106954, Note_on_c, 0, 68, 74
2,106955, Note_on_c, 0, 69, 0
2,106965, Control_c, 0, 64, 75
2,106980, Control_c, 0, 64, 79
2,106990, Note_on_c, 0, 73, 0
2,106995, Control_c, 0, 64, 79
2,107011, Control_c, 0, 64, 79
2,107026, Control_c, 0, 64, 77
2,107041, Control_c, 0, 64, 76
2,107056, Control_c, 0, 64, 73
2,107071, Control_c, 0, 64, 69
2,107086, Control_c, 0, 64, 64
2,107102, Control_c, 0, 64, 45
2,107105, Note_on_c, 0, 73, 69
2,107112, Note_on_c, 0, 66, 79
2,107113, Note_on_c, 0, 69, 68
2,107114, Note_on_c, 0, 54, 72
2,107117, Control_c, 0, 64, 0
2,107120, Note_on_c, 0, 74, 0
2,107146, Note_on_c, 0, 68, 0
2,107193, Control_c, 0, 64, 49
2,107208, Control_c, 0, 64, 62
2,107224, Control_c, 0, 64, 64
2,107239, Control_c, 0, 64, 67
2,107254, Control_c, 0, 64, 74
2,107269, Control_c, 0, 64, 91
2,107278, Note_on_c, 0, 71, 77
2,107281, Note_on_c, 0, 54, 0
2,107284, Control_c, 0, 64, 127
2,107309, Note_on_c, 0, 69, 0
2,107323, Note_on_c, 0, 73, 0
2,107360, Control_c, 0, 64, 115
2,107375, Control_c, 0, 64, 79
2,107390, Control_c, 0, 64, 64
2,107414, Control_c, 0, 64, 0
2,107414, Note_on_c, 0, 54, 79
2,107417, Note_on_c, 0, 71, 0
2,107419, Note_on_c, 0, 69, 74
2,107452, Note_on_c, 0, 66, 0
2,107459, Control_c, 0, 64, 55
2,107474, Control_c, 0, 64, 63
2,107490, Control_c, 0, 64, 65
2,107505, Control_c, 0, 64, 68
2,107520, Control_c, 0, 64, 73
2,107535, Control_c, 0, 64, 85
2,107550, Control_c, 0, 64, 97
2,107563, Note_on_c, 0, 73, 77
2,107566, Control_c, 0, 64, 107
2,107570, Note_on_c, 0, 54, 0
2,107582, Control_c, 0, 64, 109
2,107584, Note_on_c, 0, 69, 0
2,107627, Control_c, 0, 64, 108
2,107642, Control_c, 0, 64, 104
2,107658, Control_c, 0, 64, 98
2,107673, Control_c, 0, 64, 93
2,107687, Control_c, 0, 64, 86
2,107703, Control_c, 0, 64, 77
2,107718, Control_c, 0, 64, 69
2,107719, Note_on_c, 0, 54, 64
2,107721, Note_on_c, 0, 71, 69
2,107724, Note_on_c, 0, 59, 68
2,107725, Note_on_c, 0, 56, 65
2,107725, Note_on_c, 0, 68, 73
2,107734, Control_c, 0, 64, 63
2,107742, Note_on_c, 0, 73, 0
2,107749, Control_c, 0, 64, 39
2,107763, Control_c, 0, 64, 0
2,107894, Note_on_c, 0, 71, 0
2,107895, Note_on_c, 0, 69, 74
2,108025, Note_on_c, 0, 71, 70
2,108027, Note_on_c, 0, 53, 66
2,108076, Note_on_c, 0, 69, 0
2,108110, Note_on_c, 0, 54, 0
2,108171, Note_on_c, 0, 51, 75
2,108173, Note_on_c, 0, 53, 0
2,108175, Note_on_c, 0, 59, 0
2,108187, Note_on_c, 0, 73, 80
2,108225, Note_on_c, 0, 71, 0
2,108331, Note_on_c, 0, 51, 0
2,108340, Note_on_c, 0, 53, 59
2,108342, Note_on_c, 0, 61, 74
2,108346, Note_on_c, 0, 71, 69
2,108380, Note_on_c, 0, 68, 0
2,108387, Note_on_c, 0, 73, 0
2,108507, Note_on_c, 0, 69, 76
2,108523, Note_on_c, 0, 71, 0
2,108592, Control_c, 0, 64, 29
2,108607, Control_c, 0, 64, 39
2,108623, Control_c, 0, 64, 42
2,108638, Control_c, 0, 64, 44
2,108654, Control_c, 0, 64, 45
2,108657, Note_on_c, 0, 68, 76
2,108664, Note_on_c, 0, 69, 0
2,108668, Control_c, 0, 64, 47
2,108683, Control_c, 0, 64, 49
2,108699, Control_c, 0, 64, 50
2,108714, Control_c, 0, 64, 51
2,108715, Note_on_c, 0, 56, 0
2,108730, Control_c, 0, 64, 52
2,108744, Control_c, 0, 64, 53
2,108759, Control_c, 0, 64, 55
2,108775, Control_c, 0, 64, 55
2,108804, Note_on_c, 0, 71, 77
2,108835, Control_c, 0, 64, 55
2,108837, Note_on_c, 0, 68, 0
2,108851, Control_c, 0, 64, 54
2,108865, Control_c, 0, 64, 53
2,108880, Control_c, 0, 64, 51
2,108896, Control_c, 0, 64, 49
2,108911, Control_c, 0, 64, 49
2,108926, Control_c, 0, 64, 48
2,108949, Control_c, 0, 64, 45
2,108954, Note_on_c, 0, 53, 0
2,108964, Control_c, 0, 64, 42
2,108976, Note_on_c, 0, 54, 56
2,108976, Note_on_c, 0, 69, 82
2,108980, Control_c, 0, 64, 37
2,108983, Note_on_c, 0, 57, 51
2,108994, Control_c, 0, 64, 35
2,109003, Note_on_c, 0, 71, 0
2,109010, Control_c, 0, 64, 34
2,109025, Control_c, 0, 64, 32
2,109040, Control_c, 0, 64, 0
2,109146, Note_on_c, 0, 68, 77
2,109254, Control_c, 0, 64, 61
2,109269, Control_c, 0, 64, 63
2,109297, Note_on_c, 0, 66, 73
2,109300, Control_c, 0, 64, 63
2,109315, Control_c, 0, 64, 64
2,109331, Control_c, 0, 64, 65
2,109345, Control_c, 0, 64, 66
2,109357, Note_on_c, 0, 68, 0
2,109360, Control_c, 0, 64, 67
2,109376, Control_c, 0, 64, 67
2,109391, Control_c, 0, 64, 68
2,109406, Control_c, 0, 64, 69
2,109414, Note_on_c, 0, 54, 0
2,109421, Control_c, 0, 64, 72
2,109424, Note_on_c, 0, 57, 0
2,109436, Control_c, 0, 64, 75
2,109446, Note_on_c, 0, 65, 82
2,109452, Control_c, 0, 64, 77
2,109460, Note_on_c, 0, 66, 0
2,109558, Control_c, 0, 64, 76
2,109573, Control_c, 0, 64, 75
2,109588, Control_c, 0, 64, 73
2,109590, Note_on_c, 0, 66, 75
2,109593, Note_on_c, 0, 54, 64
2,109603, Control_c, 0, 64, 71
2,109607, Note_on_c, 0, 61, 0
2,109607, Note_on_c, 0, 65, 0
2,109619, Control_c, 0, 64, 66
2,109633, Control_c, 0, 64, 35
2,109648, Control_c, 0, 64, 0
2,109754, Note_on_c, 0, 61, 75
2,109824, Control_c, 0, 64, 55
2,109838, Control_c, 0, 64, 63
2,109854, Control_c, 0, 64, 66
2,109869, Control_c, 0, 64, 69
2,109874, Note_on_c, 0, 69, 0
2,109884, Control_c, 0, 64, 73
2,109885, Note_on_c, 0, 66, 0
2,109900, Control_c, 0, 64, 81
2,109906, Note_on_c, 0, 59, 77
2,109913, Note_on_c, 0, 61, 0
2,109914, Control_c, 0, 64, 88
2,109930, Control_c, 0, 64, 92
2,109945, Control_c, 0, 64, 95
2,109960, Control_c, 0, 64, 97
2,109976, Control_c, 0, 64, 100
2,109990, Control_c, 0, 64, 102
2,110005, Control_c, 0, 64, 103
2,110022, Control_c, 0, 64, 104
2,110040, Note_on_c, 0, 57, 72
2,110044, Note_on_c, 0, 59, 0
2,110053, Control_c, 0, 64, 105
2,110067, Control_c, 0, 64, 106
2,110113, Control_c, 0, 64, 104
2,110128, Control_c, 0, 64, 101
2,110144, Control_c, 0, 64, 98
2,110149, Note_on_c, 0, 54, 0
2,110158, Control_c, 0, 64, 91
2,110174, Control_c, 0, 64, 85
2,110189, Control_c, 0, 64, 78
2,110192, Note_on_c, 0, 57, 0
2,110197, Note_on_c, 0, 73, 87
2,110199, Note_on_c, 0, 68, 86
2,110204, Control_c, 0, 64, 70
2,110217, Note_on_c, 0, 56, 68
2,110220, Control_c, 0, 64, 62
2,110235, Control_c, 0, 64, 0
2,110342, Control_c, 0, 64, 49
2,110351, Note_on_c, 0, 54, 69
2,110355, Control_c, 0, 64, 61
2,110370, Control_c, 0, 64, 64
2,110386, Control_c, 0, 64, 65
2,110401, Control_c, 0, 64, 65
2,110514, Control_c, 0, 64, 65
2,110519, Note_on_c, 0, 52, 72
2,110527, Note_on_c, 0, 54, 0
2,110529, Control_c, 0, 64, 64
2,110545, Control_c, 0, 64, 63
2,110560, Control_c, 0, 64, 60
2,110575, Control_c, 0, 64, 44
2,110591, Control_c, 0, 64, 0
2,110651, Control_c, 0, 64, 32
2,110665, Note_on_c, 0, 51, 76
2,110667, Control_c, 0, 64, 44
2,110681, Control_c, 0, 64, 54
2,110685, Note_on_c, 0, 52, 0
2,110697, Control_c, 0, 64, 59
2,110712, Control_c, 0, 64, 61
2,110727, Control_c, 0, 64, 63
2,110743, Control_c, 0, 64, 64
2,110788, Control_c, 0, 64, 65
2,110798, Note_on_c, 0, 52, 77
2,110835, Control_c, 0, 64, 64
2,110844, Note_on_c, 0, 68, 0
2,110850, Control_c, 0, 64, 63
2,110865, Control_c, 0, 64, 57
2,110875, Note_on_c, 0, 51, 0
2,110880, Control_c, 0, 64, 47
2,110895, Control_c, 0, 64, 40
2,110910, Control_c, 0, 64, 45
2,110925, Control_c, 0, 64, 53
2,110941, Control_c, 0, 64, 59
2,110956, Control_c, 0, 64, 62
2,110963, Note_on_c, 0, 68, 76
2,110971, Control_c, 0, 64, 63
2,110986, Control_c, 0, 64, 64
2,111001, Control_c, 0, 64, 64
2,111017, Control_c, 0, 64, 65
2,111077, Control_c, 0, 64, 64
2,111092, Control_c, 0, 64, 61
2,111099, Note_on_c, 0, 52, 0
2,111108, Control_c, 0, 64, 33
2,111113, Note_on_c, 0, 66, 80
2,111114, Note_on_c, 0, 49, 74
2,111122, Control_c, 0, 64, 0
2,111162, Note_on_c, 0, 56, 0
2,111187, Note_on_c, 0, 73, 0
2,111190, Note_on_c, 0, 68, 0
2,111199, Control_c, 0, 64, 49
2,111214, Control_c, 0, 64, 63
2,111230, Control_c, 0, 64, 65
2,111251, Control_c, 0, 64, 68
2,111260, Note_on_c, 0, 66, 0
2,111262, Note_on_c, 0, 64, 83
2,111267, Control_c, 0, 64, 74
2,111282, Control_c, 0, 64, 87
2,111298, Control_c, 0, 64, 127
2,111419, Note_on_c, 0, 72, 88
2,111420, Control_c, 0, 64, 87
2,111421, Note_on_c, 0, 64, 0
2,111422, Note_on_c, 0, 63, 78
2,111428, Note_on_c, 0, 56, 76
2,111434, Control_c, 0, 64, 69
2,111444, Note_on_c, 0, 49, 0
2,111449, Control_c, 0, 64, 22
2,111465, Control_c, 0, 64, 0
2,111541, Control_c, 0, 64, 52
2,111556, Control_c, 0, 64, 61
2,111571, Control_c, 0, 64, 64
2,111573, Note_on_c, 0, 63, 0
2,111573, Note_on_c, 0, 69, 67
2,111587, Control_c, 0, 64, 65
2,111601, Control_c, 0, 64, 67
2,111617, Control_c, 0, 64, 68
2,111632, Control_c, 0, 64, 68
2,111693, Control_c, 0, 64, 69
2,111709, Control_c, 0, 64, 68
2,111716, Note_on_c, 0, 68, 72
2,111724, Control_c, 0, 64, 66
2,111728, Note_on_c, 0, 44, 80
2,111740, Control_c, 0, 64, 54
2,111754, Control_c, 0, 64, 0
2,111786, Note_on_c, 0, 69, 0
2,111802, Note_on_c, 0, 72, 0
2,111846, Control_c, 0, 64, 50
2,111860, Note_on_c, 0, 66, 78
2,111862, Control_c, 0, 64, 62
2,111877, Control_c, 0, 64, 67
2,111890, Note_on_c, 0, 68, 0
2,111891, Control_c, 0, 64, 74
2,111907, Control_c, 0, 64, 84
2,111922, Control_c, 0, 64, 94
2,111938, Control_c, 0, 64, 94
2,111953, Control_c, 0, 64, 94
2,111967, Control_c, 0, 64, 92
2,111983, Control_c, 0, 64, 91
2,111998, Control_c, 0, 64, 89
2,112022, Control_c, 0, 64, 83
2,112022, Note_on_c, 0, 66, 0
2,112025, Note_on_c, 0, 76, 89
2,112031, Note_on_c, 0, 64, 80
2,112037, Control_c, 0, 64, 72
2,112039, Note_on_c, 0, 49, 74
2,112051, Control_c, 0, 64, 43
2,112060, Note_on_c, 0, 44, 0
2,112067, Control_c, 0, 64, 0
2,112158, Control_c, 0, 64, 44
2,112171, Note_on_c, 0, 68, 72
2,112172, Control_c, 0, 64, 60
2,112188, Control_c, 0, 64, 64
2,112203, Control_c, 0, 64, 68
2,112219, Control_c, 0, 64, 74
2,112234, Control_c, 0, 64, 81
2,112238, Note_on_c, 0, 49, 0
2,112248, Control_c, 0, 64, 86
2,112264, Control_c, 0, 64, 87
2,112279, Control_c, 0, 64, 91
2,112293, Control_c, 0, 64, 112
2,112309, Control_c, 0, 64, 127
2,112333, Note_on_c, 0, 49, 75
2,112334, Note_on_c, 0, 73, 83
2,112355, Control_c, 0, 64, 78
2,112364, Note_on_c, 0, 76, 0
2,112370, Control_c, 0, 64, 49
2,112385, Control_c, 0, 64, 0
2,112387, Note_on_c, 0, 68, 0
2,112409, Note_on_c, 0, 64, 0
2,112431, Control_c, 0, 64, 60
2,112446, Control_c, 0, 64, 68
2,112462, Control_c, 0, 64, 74
2,112477, Control_c, 0, 64, 84
2,112484, Note_on_c, 0, 71, 80
2,112492, Control_c, 0, 64, 91
2,112499, Note_on_c, 0, 73, 0
2,112508, Control_c, 0, 64, 93
2,112530, Note_on_c, 0, 56, 0
2,112550, Note_on_c, 0, 49, 0
2,112568, Control_c, 0, 64, 92
2,112584, Control_c, 0, 64, 89
2,112598, Control_c, 0, 64, 86
2,112613, Control_c, 0, 64, 83
2,112629, Control_c, 0, 64, 82
2,112658, Note_on_c, 0, 69, 80
2,112659, Note_on_c, 0, 75, 91
2,112660, Control_c, 0, 64, 82
2,112661, Note_on_c, 0, 49, 74
2,112664, Note_on_c, 0, 54, 77
2,112668, Note_on_c, 0, 71, 0
2,112674, Control_c, 0, 64, 76
2,112689, Control_c, 0, 64, 65
2,112705, Control_c, 0, 64, 0
2,112838, Note_on_c, 0, 68, 72
2,112849, Control_c, 0, 64, 32
2,112865, Control_c, 0, 64, 63
2,112880, Control_c, 0, 64, 64
2,112887, Note_on_c, 0, 69, 0
2,112894, Control_c, 0, 64, 64
2,112940, Control_c, 0, 64, 64
2,112955, Control_c, 0, 64, 65
2,112977, Note_on_c, 0, 49, 0
2,112980, Note_on_c, 0, 48, 69
2,112991, Note_on_c, 0, 69, 71
2,112994, Note_on_c, 0, 68, 0
2,113001, Control_c, 0, 64, 64
2,113031, Control_c, 0, 64, 64
2,113046, Control_c, 0, 64, 63
2,113061, Control_c, 0, 64, 63
2,113076, Control_c, 0, 64, 62
2,113091, Control_c, 0, 64, 61
2,113107, Control_c, 0, 64, 60
2,113122, Control_c, 0, 64, 58
2,113125, Note_on_c, 0, 46, 75
2,113128, Note_on_c, 0, 48, 0
2,113138, Control_c, 0, 64, 43
2,113141, Note_on_c, 0, 66, 79
2,113142, Note_on_c, 0, 69, 0
2,113153, Control_c, 0, 64, 0
2,113295, Note_on_c, 0, 68, 77
2,113301, Note_on_c, 0, 51, 76
2,113303, Note_on_c, 0, 48, 71
2,113312, Note_on_c, 0, 66, 0
2,113316, Note_on_c, 0, 46, 0
2,113326, Note_on_c, 0, 54, 0
2,113462, Note_on_c, 0, 49, 78
2,113471, Note_on_c, 0, 51, 0
2,113617, Control_c, 0, 64, 50
2,113618, Note_on_c, 0, 51, 74
2,113630, Note_on_c, 0, 48, 0
2,113632, Control_c, 0, 64, 57
2,113638, Note_on_c, 0, 49, 0
2,113647, Control_c, 0, 64, 62
2,113662, Control_c, 0, 64, 65
2,113677, Control_c, 0, 64, 68
2,113692, Control_c, 0, 64, 74
2,113707, Control_c, 0, 64, 86
2,113722, Control_c, 0, 64, 103
2,113738, Control_c, 0, 64, 122
2,113746, Note_on_c, 0, 48, 65
2,113753, Control_c, 0, 64, 127
2,113762, Note_on_c, 0, 51, 0
2,113779, Note_on_c, 0, 48, 0
2,113813, Control_c, 0, 64, 119
2,113829, Control_c, 0, 64, 96
2,113844, Control_c, 0, 64, 79
2,113859, Control_c, 0, 64, 65
2,113874, Control_c, 0, 64, 0
2,113904, Note_on_c, 0, 40, 70
2,113908, Note_on_c, 0, 52, 71
2,113923, Note_on_c, 0, 68, 0
2,113955, Note_on_c, 0, 75, 0
2,113996, Control_c, 0, 64, 49
2,114011, Control_c, 0, 64, 61
2,114027, Control_c, 0, 64, 63
2,114042, Control_c, 0, 64, 64
2,114045, Note_on_c, 0, 52, 0
2,114058, Control_c, 0, 64, 65
2,114065, Note_on_c, 0, 51, 61
2,114073, Control_c, 0, 64, 67
2,114088, Control_c, 0, 64, 69
2,114104, Control_c, 0, 64, 71
2,114119, Control_c, 0, 64, 70
2,114134, Control_c, 0, 64, 68
2,114149, Control_c, 0, 64, 64
2,114164, Control_c, 0, 64, 32
2,114180, Control_c, 0, 64, 0
2,114190, Note_on_c, 0, 40, 0
2,114201, Note_on_c, 0, 73, 85
2,114214, Note_on_c, 0, 51, 0
2,114221, Note_on_c, 0, 52, 65
2,114226, Control_c, 0, 64, 54
2,114241, Control_c, 0, 64, 63
2,114257, Control_c, 0, 64, 66
2,114272, Control_c, 0, 64, 69
2,114286, Control_c, 0, 64, 72
2,114302, Control_c, 0, 64, 77
2,114324, Control_c, 0, 64, 85
2,114340, Control_c, 0, 64, 96
2,114354, Control_c, 0, 64, 103
2,114364, Note_on_c, 0, 72, 89
2,114367, Note_on_c, 0, 54, 76
2,114369, Control_c, 0, 64, 103
2,114370, Note_on_c, 0, 52, 0
2,114391, Note_on_c, 0, 73, 0
2,114400, Control_c, 0, 64, 104
2,114415, Control_c, 0, 64, 106
2,114431, Control_c, 0, 64, 107
2,114476, Control_c, 0, 64, 103
2,114491, Control_c, 0, 64, 96
2,114494, Note_on_c, 0, 54, 0
2,114507, Control_c, 0, 64, 88
2,114514, Note_on_c, 0, 73, 78
2,114515, Note_on_c, 0, 52, 75
2,114519, Note_on_c, 0, 80, 90
2,114522, Control_c, 0, 64, 78
2,114538, Control_c, 0, 64, 67
2,114547, Note_on_c, 0, 72, 0
2,114552, Control_c, 0, 64, 20
2,114567, Control_c, 0, 64, 0
2,114628, Control_c, 0, 64, 59
2,114643, Control_c, 0, 64, 63
2,114657, Note_on_c, 0, 51, 72
2,114659, Control_c, 0, 64, 63
2,114674, Control_c, 0, 64, 64
2,114687, Note_on_c, 0, 52, 0
2,114689, Control_c, 0, 64, 67
2,114704, Control_c, 0, 64, 70
2,114719, Control_c, 0, 64, 75
2,114734, Control_c, 0, 64, 81
2,114739, Note_on_c, 0, 80, 0
2,114749, Control_c, 0, 64, 82
2,114764, Control_c, 0, 64, 81
2,114780, Control_c, 0, 64, 79
2,114795, Control_c, 0, 64, 73
2,114808, Note_on_c, 0, 45, 64
2,114810, Control_c, 0, 64, 65
2,114812, Note_on_c, 0, 49, 69
2,114821, Note_on_c, 0, 80, 92
2,114825, Control_c, 0, 64, 0
2,114830, Note_on_c, 0, 51, 0
2,114902, Control_c, 0, 64, 28
2,114917, Control_c, 0, 64, 56
2,114932, Control_c, 0, 64, 63
2,114932, Note_on_c, 0, 45, 0
2,114948, Control_c, 0, 64, 65
2,114952, Note_on_c, 0, 52, 71
2,114963, Control_c, 0, 64, 68
2,114971, Note_on_c, 0, 49, 0
2,114978, Control_c, 0, 64, 74
2,114993, Control_c, 0, 64, 86
2,114993, Note_on_c, 0, 52, 0
2,115008, Control_c, 0, 64, 95
2,115024, Control_c, 0, 64, 96
2,115048, Note_on_c, 0, 80, 0
2,115070, Control_c, 0, 64, 94
2,115092, Control_c, 0, 64, 86
2,115108, Control_c, 0, 64, 70
2,115123, Control_c, 0, 64, 53
2,115134, Note_on_c, 0, 51, 77
2,115134, Note_on_c, 0, 80, 89
2,115138, Control_c, 0, 64, 0
2,115144, Note_on_c, 0, 39, 67
2,115213, Control_c, 0, 64, 54
2,115229, Control_c, 0, 64, 57
2,115244, Control_c, 0, 64, 61
2,115260, Control_c, 0, 64, 64
2,115274, Control_c, 0, 64, 66
2,115288, Note_on_c, 0, 49, 79
2,115289, Control_c, 0, 64, 69
2,115289, Note_on_c, 0, 51, 0
2,115305, Control_c, 0, 64, 73
2,115320, Control_c, 0, 64, 79
2,115335, Control_c, 0, 64, 81
2,115366, Control_c, 0, 64, 78
2,115382, Control_c, 0, 64, 70
2,115396, Control_c, 0, 64, 62
2,115411, Control_c, 0, 64, 0
2,115427, Note_on_c, 0, 39, 0
2,115448, Note_on_c, 0, 78, 79
2,115453, Note_on_c, 0, 70, 78
2,115464, Note_on_c, 0, 49, 0
2,115466, Note_on_c, 0, 51, 67
2,115483, Note_on_c, 0, 80, 0
2,115497, Note_on_c, 0, 73, 0
2,115517, Control_c, 0, 64, 32
2,115532, Control_c, 0, 64, 55
2,115548, Control_c, 0, 64, 62
2,115563, Control_c, 0, 64, 64
2,115579, Control_c, 0, 64, 65
2,115591, Note_on_c, 0, 51, 0
2,115593, Control_c, 0, 64, 66
2,115601, Note_on_c, 0, 76, 83
2,115608, Control_c, 0, 64, 66
2,115608, Note_on_c, 0, 52, 58
2,115623, Note_on_c, 0, 70, 0
2,115635, Note_on_c, 0, 78, 0
2,115715, Control_c, 0, 64, 66
2,115720, Note_on_c, 0, 52, 0
2,115730, Control_c, 0, 64, 65
2,115747, Control_c, 0, 64, 63
2,115762, Control_c, 0, 64, 34
2,115763, Note_on_c, 0, 51, 65
2,115766, Note_on_c, 0, 78, 85
2,115767, Note_on_c, 0, 75, 82
2,115777, Control_c, 0, 64, 0
2,115798, Note_on_c, 0, 76, 0
2,115891, Control_c, 0, 64, 43
2,115906, Control_c, 0, 64, 56
2,115910, Note_on_c, 0, 49, 67
2,115921, Control_c, 0, 64, 63
2,115933, Note_on_c, 0, 51, 0
2,115937, Control_c, 0, 64, 67
2,115952, Control_c, 0, 64, 73
2,115955, Note_on_c, 0, 75, 0
2,115967, Control_c, 0, 64, 78
2,115983, Control_c, 0, 64, 79
2,115997, Control_c, 0, 64, 78
2,116012, Control_c, 0, 64, 79
2,116028, Control_c, 0, 64, 85
2,116042, Control_c, 0, 64, 127
2,116067, Note_on_c, 0, 44, 64
2,116067, Note_on_c, 0, 48, 65
2,116075, Note_on_c, 0, 75, 88
2,116104, Control_c, 0, 64, 88
2,116118, Control_c, 0, 64, 40
2,116133, Control_c, 0, 64, 0
2,116140, Note_on_c, 0, 49, 0
2,116201, Note_on_c, 0, 48, 0
2,116204, Note_on_c, 0, 51, 75
2,116210, Control_c, 0, 64, 55
2,116214, Note_on_c, 0, 44, 0
2,116226, Control_c, 0, 64, 64
2,116240, Control_c, 0, 64, 67
2,116254, Note_on_c, 0, 75, 0
2,116255, Control_c, 0, 64, 71
2,116255, Note_on_c, 0, 51, 0
2,116271, Control_c, 0, 64, 84
2,116286, Control_c, 0, 64, 104
2,116302, Control_c, 0, 64, 127
2,116377, Control_c, 0, 64, 101
2,116392, Control_c, 0, 64, 67
2,116403, Note_on_c, 0, 76, 77
2,116405, Note_on_c, 0, 49, 82
2,116407, Control_c, 0, 64, 0
2,116410, Note_on_c, 0, 75, 83
2,116411, Note_on_c, 0, 37, 72
2,116445, Note_on_c, 0, 78, 0
2,116499, Control_c, 0, 64, 61
2,116513, Control_c, 0, 64, 73
2,116528, Control_c, 0, 64, 108
2,116535, Note_on_c, 0, 37, 0
2,116543, Note_on_c, 0, 49, 0
2,116544, Control_c, 0, 64, 127
2,116740, Control_c, 0, 64, 81
2,116745, Note_on_c, 0, 73, 78
2,116749, Note_on_c, 0, 52, 77
2,116749, Note_on_c, 0, 75, 0
2,116754, Control_c, 0, 64, 60
2,116770, Control_c, 0, 64, 0
2,116861, Control_c, 0, 64, 45
2,116876, Control_c, 0, 64, 63
2,116891, Control_c, 0, 64, 66
2,116893, Note_on_c, 0, 71, 74
2,116905, Note_on_c, 0, 73, 0
2,116906, Control_c, 0, 64, 71
2,116921, Control_c, 0, 64, 79
2,116937, Control_c, 0, 64, 95
2,116952, Control_c, 0, 64, 127
2,117028, Control_c, 0, 64, 82
2,117043, Control_c, 0, 64, 60
2,117056, Note_on_c, 0, 57, 78
2,117058, Control_c, 0, 64, 0
2,117058, Note_on_c, 0, 52, 0
2,117058, Note_on_c, 0, 73, 68
2,117064, Note_on_c, 0, 71, 0
2,117165, Control_c, 0, 64, 62
2,117180, Control_c, 0, 64, 69
2,117195, Control_c, 0, 64, 86
2,117210, Control_c, 0, 64, 127
2,117286, Note_on_c, 0, 57, 0
2,117361, Control_c, 0, 64, 78
2,117374, Note_on_c, 0, 57, 89
2,117377, Control_c, 0, 64, 55
2,117400, Control_c, 0, 64, 0
2,117475, Control_c, 0, 64, 24
2,117491, Control_c, 0, 64, 62
2,117506, Control_c, 0, 64, 67
2,117520, Control_c, 0, 64, 80
2,117536, Control_c, 0, 64, 127
2,117579, Note_on_c, 0, 57, 0
2,117686, Note_on_c, 0, 57, 85
2,117687, Control_c, 0, 64, 122
2,117693, Note_on_c, 0, 75, 85
2,117698, Note_on_c, 0, 71, 75
2,117703, Control_c, 0, 64, 68
2,117718, Control_c, 0, 64, 0
2,117722, Note_on_c, 0, 76, 0
2,117735, Note_on_c, 0, 73, 0
2,117808, Control_c, 0, 64, 44
2,117824, Control_c, 0, 64, 62
2,117839, Control_c, 0, 64, 66
2,117854, Control_c, 0, 64, 79
2,117869, Control_c, 0, 64, 127
2,117994, Note_on_c, 0, 57, 0
2,117998, Note_on_c, 0, 59, 75
2,118000, Note_on_c, 0, 55, 74
2,118022, Control_c, 0, 64, 85
2,118037, Control_c, 0, 64, 58
2,118052, Control_c, 0, 64, 0
2,118113, Control_c, 0, 64, 34
2,118127, Control_c, 0, 64, 64
2,118143, Control_c, 0, 64, 68
2,118165, Control_c, 0, 64, 84
2,118167, Note_on_c, 0, 54, 77
2,118174, Note_on_c, 0, 55, 0
2,118177, Note_on_c, 0, 71, 0
2,118181, Control_c, 0, 64, 127
2,118340, Note_on_c, 0, 79, 90
2,118341, Note_on_c, 0, 54, 0
2,118343, Note_on_c, 0, 64, 76
2,118345, Note_on_c, 0, 52, 71
2,118349, Control_c, 0, 64, 73
2,118349, Note_on_c, 0, 71, 74
2,118364, Control_c, 0, 64, 0
2,118367, Note_on_c, 0, 59, 0
2,118388, Note_on_c, 0, 75, 0
2,118501, Control_c, 0, 64, 24
2,118516, Control_c, 0, 64, 57
2,118532, Control_c, 0, 64, 64
2,118547, Control_c, 0, 64, 70
2,118557, Note_on_c, 0, 64, 0
2,118562, Control_c, 0, 64, 85
2,118577, Control_c, 0, 64, 127
2,118658, Note_on_c, 0, 64, 92
2,118668, Control_c, 0, 64, 72
2,118683, Control_c, 0, 64, 0
2,118745, Control_c, 0, 64, 41
2,118760, Control_c, 0, 64, 66
2,118775, Control_c, 0, 64, 77
2,118790, Control_c, 0, 64, 127
2,118799, Note_on_c, 0, 71, 0
2,118891, Note_on_c, 0, 64, 0
2,118995, Control_c, 0, 64, 119
2,119000, Note_on_c, 0, 78, 82
2,119006, Note_on_c, 0, 70, 83
2,119010, Note_on_c, 0, 64, 89
2,119011, Control_c, 0, 64, 67
2,119017, Note_on_c, 0, 79, 0
2,119026, Note_on_c, 0, 52, 0
2,119027, Control_c, 0, 64, 0
2,119148, Control_c, 0, 64, 50
2,119163, Control_c, 0, 64, 66
2,119179, Control_c, 0, 64, 72
2,119194, Control_c, 0, 64, 93
2,119208, Control_c, 0, 64, 127
2,119323, Note_on_c, 0, 62, 84
2,119331, Note_on_c, 0, 54, 72
2,119343, Note_on_c, 0, 64, 0
2,119346, Control_c, 0, 64, 81
2,119361, Control_c, 0, 64, 61
2,119377, Control_c, 0, 64, 0
2,119437, Control_c, 0, 64, 62
2,119453, Control_c, 0, 64, 67
2,119466, Control_c, 0, 64, 74
2,119468, Note_on_c, 0, 61, 81
2,119481, Control_c, 0, 64, 105
2,119483, Note_on_c, 0, 62, 0
2,119493, Note_on_c, 0, 70, 0
2,119497, Control_c, 0, 64, 127
2,119618, Control_c, 0, 64, 77
2,119633, Control_c, 0, 64, 0
2,119645, Note_on_c, 0, 74, 81
2,119647, Note_on_c, 0, 66, 90
2,119650, Note_on_c, 0, 61, 0
2,119660, Note_on_c, 0, 59, 68
2,119678, Note_on_c, 0, 54, 0
2,119686, Note_on_c, 0, 78, 0
2,119762, Control_c, 0, 64, 39
2,119778, Control_c, 0, 64, 64
2,119793, Control_c, 0, 64, 71
2,119807, Control_c, 0, 64, 93
2,119823, Control_c, 0, 64, 127
2,119891, Note_on_c, 0, 59, 0
2,119961, Control_c, 0, 64, 69
2,119966, Note_on_c, 0, 59, 90
2,119976, Control_c, 0, 64, 0
2,120006, Note_on_c, 0, 74, 0
2,120037, Control_c, 0, 64, 64
2,120053, Control_c, 0, 64, 89
2,120062, Note_on_c, 0, 66, 0
2,120068, Control_c, 0, 64, 127
2,120208, Note_on_c, 0, 59, 0
2,120325, Control_c, 0, 64, 97
2,120336, Note_on_c, 0, 73, 87
2,120339, Note_on_c, 0, 65, 88
2,120341, Control_c, 0, 64, 69
2,120344, Note_on_c, 0, 59, 84
2,120356, Control_c, 0, 64, 0
2,120485, Control_c, 0, 64, 61
2,120501, Control_c, 0, 64, 74
2,120515, Control_c, 0, 64, 127
2,120642, Note_on_c, 0, 61, 76
2,120652, Note_on_c, 0, 57, 76
2,120674, Note_on_c, 0, 59, 0
2,120746, Note_on_c, 0, 65, 0
2,120791, Note_on_c, 0, 56, 76
2,120798, Note_on_c, 0, 57, 0
2,120926, Control_c, 0, 64, 106
2,120942, Control_c, 0, 64, 66
2,120948, Note_on_c, 0, 66, 73
2,120950, Note_on_c, 0, 69, 69
2,120951, Note_on_c, 0, 49, 80
2,120951, Note_on_c, 0, 56, 0
2,120952, Note_on_c, 0, 57, 73
2,120954, Note_on_c, 0, 61, 0
2,120957, Control_c, 0, 64, 0
2,121064, Control_c, 0, 64, 35
2,121078, Control_c, 0, 64, 66
2,121094, Control_c, 0, 64, 78
2,121106, Note_on_c, 0, 57, 0
2,121108, Note_on_c, 0, 56, 74
2,121109, Control_c, 0, 64, 127
2,121159, Note_on_c, 0, 66, 0
2,121252, Note_on_c, 0, 56, 0
2,121253, Note_on_c, 0, 54, 75
2,121266, Note_on_c, 0, 66, 81
2,121282, Control_c, 0, 64, 70
2,121297, Control_c, 0, 64, 0
2,121388, Control_c, 0, 64, 65
2,121396, Note_on_c, 0, 54, 0
2,121403, Control_c, 0, 64, 77
2,121406, Note_on_c, 0, 52, 79
2,121419, Control_c, 0, 64, 127
2,121429, Note_on_c, 0, 49, 0
2,121450, Note_on_c, 0, 69, 0
2,121491, Note_on_c, 0, 66, 0
2,121617, Control_c, 0, 64, 63
2,121632, Control_c, 0, 64, 0
2,121632, Note_on_c, 0, 48, 68
2,121632, Note_on_c, 0, 68, 79
2,121633, Note_on_c, 0, 66, 74
2,121635, Note_on_c, 0, 52, 0
2,121638, Note_on_c, 0, 51, 73
2,121825, Note_on_c, 0, 68, 0
2,121830, Control_c, 0, 64, 56
2,121845, Control_c, 0, 64, 69
2,121854, Note_on_c, 0, 73, 0
2,121861, Control_c, 0, 64, 81
2,121875, Control_c, 0, 64, 111
2,121890, Control_c, 0, 64, 127
2,121949, Note_on_c, 0, 68, 73
2,121955, Note_on_c, 0, 64, 76
2,121956, Note_on_c, 0, 66, 0
2,122095, Control_c, 0, 64, 95
2,122111, Control_c, 0, 64, 72
2,122116, Note_on_c, 0, 63, 82
2,122126, Control_c, 0, 64, 65
2,122141, Note_on_c, 0, 68, 0
2,122142, Control_c, 0, 64, 64
2,122148, Note_on_c, 0, 64, 0
2,122156, Control_c, 0, 64, 65
2,122171, Control_c, 0, 64, 58
2,122187, Control_c, 0, 64, 0
2,122283, Note_on_c, 0, 73, 86
2,122292, Note_on_c, 0, 64, 78
2,122300, Note_on_c, 0, 63, 0
2,122305, Note_on_c, 0, 52, 77
2,122311, Note_on_c, 0, 48, 0
2,122312, Note_on_c, 0, 51, 0
2,122492, Control_c, 0, 64, 62
2,122507, Control_c, 0, 64, 71
2,122522, Control_c, 0, 64, 89
2,122534, Note_on_c, 0, 73, 0
2,122538, Control_c, 0, 64, 127
2,122598, Control_c, 0, 64, 90
2,122613, Control_c, 0, 64, 62
2,122627, Note_on_c, 0, 73, 83
2,122628, Note_on_c, 0, 56, 88
2,122629, Control_c, 0, 64, 0
2,122734, Control_c, 0, 64, 62
2,122750, Control_c, 0, 64, 67
2,122766, Note_on_c, 0, 52, 0
2,122772, Control_c, 0, 64, 75
2,122788, Control_c, 0, 64, 127
2,122798, Note_on_c, 0, 56, 0
2,122807, Note_on_c, 0, 64, 0
2,122885, Note_on_c, 0, 73, 0
2,122969, Control_c, 0, 64, 91
2,122985, Control_c, 0, 64, 66
2,122991, Note_on_c, 0, 73, 76
2,123000, Control_c, 0, 64, 0
2,123002, Note_on_c, 0, 63, 93
2,123002, Note_on_c, 0, 66, 73
2,123009, Note_on_c, 0, 51, 82
2,123184, Control_c, 0, 64, 57
2,123199, Control_c, 0, 64, 66
2,123214, Control_c, 0, 64, 78
2,123230, Control_c, 0, 64, 127
2,123260, Note_on_c, 0, 63, 0
2,123312, Note_on_c, 0, 72, 77
2,123320, Control_c, 0, 64, 91
2,123322, Note_on_c, 0, 63, 90
2,123334, Control_c, 0, 64, 61
2,123349, Note_on_c, 0, 73, 0
2,123350, Control_c, 0, 64, 0
2,123441, Control_c, 0, 64, 62
2,123457, Control_c, 0, 64, 68
2,123465, Note_on_c, 0, 70, 85
2,123472, Control_c, 0, 64, 88
2,123486, Control_c, 0, 64, 127
2,123490, Note_on_c, 0, 72, 0
2,123538, Note_on_c, 0, 63, 0
2,123612, Note_on_c, 0, 78, 85
2,123619, Note_on_c, 0, 72, 63
2,123631, Control_c, 0, 64, 80
2,123633, Note_on_c, 0, 63, 87
2,123641, Note_on_c, 0, 70, 0
2,123646, Control_c, 0, 64, 0
2,123669, Note_on_c, 0, 72, 0
2,123767, Control_c, 0, 64, 56
2,123783, Control_c, 0, 64, 66
2,123787, Note_on_c, 0, 73, 79
2,123798, Control_c, 0, 64, 78
2,123813, Control_c, 0, 64, 127
2,123835, Note_on_c, 0, 66, 0
2,123847, Note_on_c, 0, 78, 0
2,123934, Note_on_c, 0, 63, 0
2,123947, Note_on_c, 0, 61, 79
2,123954, Note_on_c, 0, 75, 82
2,123955, Note_on_c, 0, 78, 83
2,123982, Control_c, 0, 64, 75
2,123988, Note_on_c, 0, 73, 0
2,123997, Control_c, 0, 64, 0
2,124104, Control_c, 0, 64, 62
2,124107, Note_on_c, 0, 61, 0
2,124113, Note_on_c, 0, 51, 0
2,124113, Note_on_c, 0, 68, 74
2,124116, Note_on_c, 0, 60, 83
2,124119, Control_c, 0, 64, 69
2,124134, Control_c, 0, 64, 81
2,124150, Control_c, 0, 64, 127
2,124163, Note_on_c, 0, 60, 0
2,124166, Note_on_c, 0, 78, 0
2,124188, Note_on_c, 0, 68, 0
2,124385, Control_c, 0, 64, 96
2,124385, Note_on_c, 0, 61, 103
2,124398, Note_on_c, 0, 78, 82
2,124400, Control_c, 0, 64, 65
2,124404, Note_on_c, 0, 49, 69
2,124410, Note_on_c, 0, 69, 59
2,124415, Control_c, 0, 64, 0
2,124597, Control_c, 0, 64, 63
2,124608, Note_on_c, 0, 69, 0
2,124612, Control_c, 0, 64, 69
2,124628, Control_c, 0, 64, 91
2,124645, Control_c, 0, 64, 127
2,124756, Note_on_c, 0, 73, 50
2,124756, Note_on_c, 0, 76, 68
2,124760, Note_on_c, 0, 68, 70
2,124763, Note_on_c, 0, 52, 70
2,124772, Note_on_c, 0, 49, 0
2,124783, Note_on_c, 0, 78, 0
2,124791, Note_on_c, 0, 73, 0
2,124794, Note_on_c, 0, 75, 0
2,124803, Note_on_c, 0, 76, 0
2,124817, Note_on_c, 0, 68, 0
2,124908, Note_on_c, 0, 75, 73
2,124922, Note_on_c, 0, 66, 61
2,124922, Note_on_c, 0, 72, 67
2,124961, Note_on_c, 0, 66, 0
2,125004, Note_on_c, 0, 72, 0
2,125043, Note_on_c, 0, 75, 0
2,125079, Control_c, 0, 64, 66
2,125087, Note_on_c, 0, 52, 0
2,125091, Note_on_c, 0, 57, 77
2,125092, Note_on_c, 0, 76, 63
2,125095, Control_c, 0, 64, 0
2,125097, Note_on_c, 0, 68, 68
2,125103, Note_on_c, 0, 73, 60
2,125194, Note_on_c, 0, 68, 0
2,125216, Control_c, 0, 64, 17
2,125231, Control_c, 0, 64, 63
2,125246, Control_c, 0, 64, 69
2,125262, Control_c, 0, 64, 78
2,125277, Control_c, 0, 64, 93
2,125293, Control_c, 0, 64, 127
2,125317, Note_on_c, 0, 57, 0
2,125381, Note_on_c, 0, 66, 65
2,125382, Note_on_c, 0, 76, 0
2,125385, Note_on_c, 0, 75, 72
2,125395, Note_on_c, 0, 57, 75
2,125422, Note_on_c, 0, 73, 0
2,125444, Note_on_c, 0, 75, 0
2,125454, Note_on_c, 0, 66, 0
2,125546, Note_on_c, 0, 57, 0
2,125553, Note_on_c, 0, 73, 70
2,125562, Note_on_c, 0, 64, 61
2,125580, Note_on_c, 0, 61, 0
2,125595, Note_on_c, 0, 64, 0
2,125638, Note_on_c, 0, 73, 0
2,125726, Note_on_c, 0, 60, 98
2,125741, Note_on_c, 0, 57, 84
2,125744, Note_on_c, 0, 75, 81
2,125748, Control_c, 0, 64, 83
2,125751, Note_on_c, 0, 66, 62
2,125763, Control_c, 0, 64, 48
2,125778, Note_on_c, 0, 63, 48
2,125779, Control_c, 0, 64, 0
2,125968, Control_c, 0, 64, 40
2,125984, Control_c, 0, 64, 35
2,125998, Control_c, 0, 64, 26
2,126014, Control_c, 0, 64, 35
2,126029, Control_c, 0, 64, 51
2,126044, Control_c, 0, 64, 59
2,126060, Control_c, 0, 64, 62
2,126063, Note_on_c, 0, 56, 61
2,126074, Control_c, 0, 64, 63
2,126078, Note_on_c, 0, 57, 0
2,126090, Control_c, 0, 64, 65
2,126097, Note_on_c, 0, 72, 74
2,126105, Control_c, 0, 64, 77
2,126120, Control_c, 0, 64, 127
2,126131, Note_on_c, 0, 75, 0
2,126138, Note_on_c, 0, 66, 0
2,126232, Note_on_c, 0, 60, 0
2,126242, Note_on_c, 0, 54, 78
2,126260, Note_on_c, 0, 63, 0
2,126264, Note_on_c, 0, 56, 0
2,126427, Note_on_c, 0, 54, 0
2,126431, Note_on_c, 0, 64, 96
2,126431, Note_on_c, 0, 73, 83
2,126442, Note_on_c, 0, 68, 80
2,126445, Note_on_c, 0, 72, 0
2,126456, Note_on_c, 0, 52, 75
2,126470, Control_c, 0, 64, 70
2,126485, Control_c, 0, 64, 33
2,126500, Control_c, 0, 64, 0
2,126632, Note_on_c, 0, 51, 74
2,126650, Note_on_c, 0, 52, 0
2,126806, Note_on_c, 0, 49, 76
2,126824, Note_on_c, 0, 51, 0
2,126983, Note_on_c, 0, 47, 82
2,126995, Note_on_c, 0, 49, 0
2,127200, Note_on_c, 0, 46, 88
2,127211, Note_on_c, 0, 47, 0
2,127538, Note_on_c, 0, 49, 74
2,127564, Control_c, 0, 64, 59
2,127580, Control_c, 0, 64, 64
2,127595, Control_c, 0, 64, 66
2,127606, Note_on_c, 0, 68, 0
2,127610, Control_c, 0, 64, 75
2,127625, Control_c, 0, 64, 127
2,127838, Control_c, 0, 64, 91
2,127854, Control_c, 0, 64, 64
2,127857, Note_on_c, 0, 63, 70
2,127863, Note_on_c, 0, 66, 70
2,127866, Note_on_c, 0, 45, 71
2,127869, Control_c, 0, 64, 0
2,127870, Note_on_c, 0, 54, 69
2,127873, Note_on_c, 0, 64, 0
2,127882, Note_on_c, 0, 49, 0
2,127902, Note_on_c, 0, 46, 0
2,127990, Control_c, 0, 64, 60
2,128005, Control_c, 0, 64, 73
2,128020, Control_c, 0, 64, 127
2,128102, Note_on_c, 0, 54, 0
2,128182, Control_c, 0, 64, 70
2,128188, Note_on_c, 0, 61, 83
2,128190, Note_on_c, 0, 54, 80
2,128196, Control_c, 0, 64, 0
2,128198, Note_on_c, 0, 63, 0
2,128287, Control_c, 0, 64, 66
2,128303, Control_c, 0, 64, 90
2,128310, Note_on_c, 0, 61, 0
2,128318, Control_c, 0, 64, 127
2,128348, Note_on_c, 0, 73, 0
2,128411, Note_on_c, 0, 54, 0
2,128497, Note_on_c, 0, 72, 94
2,128503, Note_on_c, 0, 63, 54
2,128515, Control_c, 0, 64, 80
2,128516, Note_on_c, 0, 54, 82
2,128531, Control_c, 0, 64, 0
2,128622, Control_c, 0, 64, 65
2,128637, Control_c, 0, 64, 86
2,128652, Control_c, 0, 64, 127
2,128708, Note_on_c, 0, 54, 0
2,128821, Note_on_c, 0, 65, 81
2,128824, Note_on_c, 0, 44, 79
2,128827, Note_on_c, 0, 53, 64
2,128830, Note_on_c, 0, 45, 0
2,128835, Control_c, 0, 64, 68
2,128837, Note_on_c, 0, 63, 0
2,128842, Note_on_c, 0, 66, 0
2,128851, Control_c, 0, 64, 0
2,128867, Note_on_c, 0, 53, 0
2,128935, Control_c, 0, 64, 59
2,128950, Control_c, 0, 64, 76
2,128964, Control_c, 0, 64, 127
2,128988, Note_on_c, 0, 66, 85
2,128990, Note_on_c, 0, 51, 83
2,128993, Note_on_c, 0, 42, 75
2,129023, Note_on_c, 0, 44, 0
2,129023, Note_on_c, 0, 65, 0
2,129031, Note_on_c, 0, 72, 0
2,129151, Note_on_c, 0, 42, 0
2,129165, Note_on_c, 0, 51, 0
2,129181, Note_on_c, 0, 71, 86
2,129185, Note_on_c, 0, 68, 79
2,129188, Note_on_c, 0, 49, 77
2,129189, Note_on_c, 0, 41, 77
2,129193, Control_c, 0, 64, 93
2,129208, Control_c, 0, 64, 60
2,129215, Note_on_c, 0, 66, 0
2,129224, Control_c, 0, 64, 0
2,129414, Note_on_c, 0, 68, 0
2,129420, Control_c, 0, 64, 52
2,129435, Control_c, 0, 64, 68
2,129451, Control_c, 0, 64, 84
2,129466, Control_c, 0, 64, 127
2,129500, Note_on_c, 0, 68, 89
2,129728, Note_on_c, 0, 68, 0
2,129821, Note_on_c, 0, 41, 0
2,129821, Note_on_c, 0, 42, 71
2,129827, Note_on_c, 0, 70, 85
2,129832, Note_on_c, 0, 68, 85
2,129834, Note_on_c, 0, 71, 0
2,129839, Control_c, 0, 64, 76
2,129855, Control_c, 0, 64, 0
2,129946, Control_c, 0, 64, 52
2,129961, Control_c, 0, 64, 69
2,129977, Control_c, 0, 64, 93
2,129992, Control_c, 0, 64, 127
2,130001, Note_on_c, 0, 68, 0
2,130136, Note_on_c, 0, 66, 77
2,130139, Note_on_c, 0, 61, 84
2,130158, Control_c, 0, 64, 89
2,130174, Control_c, 0, 64, 60
2,130189, Control_c, 0, 64, 0
2,130248, Control_c, 0, 64, 60
2,130264, Control_c, 0, 64, 77
2,130279, Control_c, 0, 64, 127
2,130292, Note_on_c, 0, 64, 83
2,130313, Note_on_c, 0, 70, 0
2,130319, Note_on_c, 0, 61, 0
2,130320, Note_on_c, 0, 66, 0
2,130431, Control_c, 0, 64, 112
2,130454, Control_c, 0, 64, 64
2,130460, Note_on_c, 0, 66, 62
2,130461, Note_on_c, 0, 69, 78
2,130467, Note_on_c, 0, 63, 78
2,130469, Control_c, 0, 64, 0
2,130472, Note_on_c, 0, 64, 0
2,130475, Note_on_c, 0, 51, 79
2,130486, Note_on_c, 0, 49, 0
2,130576, Control_c, 0, 64, 54
2,130591, Control_c, 0, 64, 69
2,130606, Control_c, 0, 64, 101
2,130622, Control_c, 0, 64, 127
2,130659, Note_on_c, 0, 63, 0
2,130693, Note_on_c, 0, 66, 0
2,130831, Note_on_c, 0, 61, 82
2,130832, Note_on_c, 0, 66, 82
2,130860, Control_c, 0, 64, 65
2,130876, Control_c, 0, 64, 0
2,130967, Control_c, 0, 64, 62
2,130981, Control_c, 0, 64, 75
2,130997, Control_c, 0, 64, 127
2,131008, Note_on_c, 0, 42, 0
2,131052, Note_on_c, 0, 61, 0
2,131068, Note_on_c, 0, 66, 0
2,131235, Note_on_c, 0, 60, 77
2,131236, Note_on_c, 0, 68, 79
2,131237, Note_on_c, 0, 66, 82
2,131238, Note_on_c, 0, 44, 82
2,131253, Note_on_c, 0, 51, 0
2,131261, Note_on_c, 0, 69, 0
2,131262, Control_c, 0, 64, 66
2,131278, Control_c, 0, 64, 0
2,131386, Control_c, 0, 64, 37
2,131401, Control_c, 0, 64, 70
2,131415, Control_c, 0, 64, 127
2,131450, Note_on_c, 0, 66, 0
2,131577, Note_on_c, 0, 64, 74
2,131584, Control_c, 0, 64, 105
2,131590, Note_on_c, 0, 51, 71
2,131598, Control_c, 0, 64, 63
2,131613, Control_c, 0, 64, 0
2,131735, Control_c, 0, 64, 42
2,131744, Note_on_c, 0, 63, 82
2,131750, Control_c, 0, 64, 61
2,131752, Note_on_c, 0, 60, 0
2,131763, Note_on_c, 0, 64, 0
2,131765, Control_c, 0, 64, 65
2,131780, Control_c, 0, 64, 76
2,131796, Control_c, 0, 64, 127
2,131914, Note_on_c, 0, 64, 78
2,131915, Note_on_c, 0, 61, 78
2,131917, Control_c, 0, 64, 67
2,131919, Note_on_c, 0, 56, 74
2,131927, Note_on_c, 0, 63, 0
2,131932, Control_c, 0, 64, 0
2,131941, Note_on_c, 0, 51, 0
2,132061, Control_c, 0, 64, 56
2,132077, Control_c, 0, 64, 67
2,132091, Control_c, 0, 64, 80
2,132107, Control_c, 0, 64, 127
2,132156, Note_on_c, 0, 56, 0
2,132225, Note_on_c, 0, 56, 84
2,132245, Control_c, 0, 64, 67
2,132259, Control_c, 0, 64, 0
2,132319, Note_on_c, 0, 68, 0
2,132321, Control_c, 0, 64, 62
2,132335, Control_c, 0, 64, 77
2,132351, Control_c, 0, 64, 127
2,132475, Note_on_c, 0, 56, 0
2,132550, Control_c, 0, 64, 116
2,132555, Note_on_c, 0, 70, 96
2,132564, Control_c, 0, 64, 65
2,132567, Note_on_c, 0, 56, 78
2,132579, Control_c, 0, 64, 0
2,132600, Note_on_c, 0, 64, 0
2,132671, Control_c, 0, 64, 51
2,132686, Control_c, 0, 64, 71
2,132701, Control_c, 0, 64, 127
2,132861, Control_c, 0, 64, 74
2,132865, Note_on_c, 0, 54, 73
2,132870, Note_on_c, 0, 56, 0
2,132873, Note_on_c, 0, 66, 84
2,132876, Control_c, 0, 64, 0
2,132953, Control_c, 0, 64, 69
2,132968, Control_c, 0, 64, 127
2,133013, Note_on_c, 0, 52, 81
2,133015, Note_on_c, 0, 68, 84
2,133022, Note_on_c, 0, 54, 0
2,133023, Note_on_c, 0, 70, 0
2,133044, Note_on_c, 0, 61, 0
2,133117, Note_on_c, 0, 66, 0
2,133167, Note_on_c, 0, 69, 48
2,133174, Note_on_c, 0, 72, 89
2,133176, Note_on_c, 0, 63, 83
2,133180, Control_c, 0, 64, 70
2,133189, Note_on_c, 0, 54, 74
2,133196, Control_c, 0, 64, 0
2,133218, Note_on_c, 0, 52, 0
2,133231, Note_on_c, 0, 68, 0
2,133287, Control_c, 0, 64, 59
2,133302, Control_c, 0, 64, 71
2,133317, Control_c, 0, 64, 127
2,133359, Note_on_c, 0, 54, 0
2,133485, Control_c, 0, 64, 87
2,133498, Note_on_c, 0, 68, 89
2,133500, Control_c, 0, 64, 43
2,133508, Note_on_c, 0, 54, 81
2,133522, Control_c, 0, 64, 0
2,133582, Control_c, 0, 64, 69
2,133598, Control_c, 0, 64, 127
2,133605, Note_on_c, 0, 72, 0
2,133629, Note_on_c, 0, 69, 0
2,133647, Note_on_c, 0, 63, 0
2,133740, Note_on_c, 0, 54, 0
2,133882, Note_on_c, 0, 73, 95
2,133890, Control_c, 0, 64, 84
2,133901, Note_on_c, 0, 61, 77
2,133903, Note_on_c, 0, 54, 71
2,133906, Control_c, 0, 64, 49
2,133921, Control_c, 0, 64, 0
2,134011, Control_c, 0, 64, 46
2,134027, Control_c, 0, 64, 70
2,134042, Control_c, 0, 64, 127
2,134155, Note_on_c, 0, 61, 0
2,134222, Note_on_c, 0, 52, 73
2,134231, Note_on_c, 0, 64, 78
2,134233, Note_on_c, 0, 61, 73
2,134250, Note_on_c, 0, 54, 0
2,134254, Control_c, 0, 64, 77
2,134263, Note_on_c, 0, 68, 0
2,134270, Control_c, 0, 64, 0
2,134352, Control_c, 0, 64, 67
2,134367, Control_c, 0, 64, 127
2,134382, Note_on_c, 0, 51, 82
2,134410, Note_on_c, 0, 52, 0
2,134446, Note_on_c, 0, 61, 0
2,134523, Note_on_c, 0, 51, 0
2,134535, Note_on_c, 0, 66, 82
2,134535, Note_on_c, 0, 69, 73
2,134536, Note_on_c, 0, 52, 82
2,134545, Note_on_c, 0, 64, 0
2,134550, Control_c, 0, 64, 75
2,134565, Control_c, 0, 64, 0
2,134642, Control_c, 0, 64, 55
2,134658, Control_c, 0, 64, 74
2,134673, Control_c, 0, 64, 127
2,134736, Note_on_c, 0, 66, 0
2,134759, Note_on_c, 0, 69, 0
2,134825, Control_c, 0, 64, 98
2,134837, Note_on_c, 0, 66, 80
2,134838, Note_on_c, 0, 51, 79
2,134840, Control_c, 0, 64, 54
2,134842, Note_on_c, 0, 69, 76
2,134854, Control_c, 0, 64, 0
2,134860, Note_on_c, 0, 52, 0
2,134930, Control_c, 0, 64, 61
2,134946, Control_c, 0, 64, 83
2,134961, Control_c, 0, 64, 127
2,134995, Note_on_c, 0, 49, 83
2,135005, Note_on_c, 0, 51, 0
2,135005, Note_on_c, 0, 69, 0
2,135030, Note_on_c, 0, 66, 0
2,135070, Note_on_c, 0, 73, 0
2,135151, Control_c, 0, 64, 88
2,135157, Note_on_c, 0, 44, 0
2,135165, Note_on_c, 0, 72, 93
2,135166, Control_c, 0, 64, 0
2,135168, Note_on_c, 0, 66, 87
2,135170, Note_on_c, 0, 69, 82
2,135174, Note_on_c, 0, 51, 92
2,135178, Note_on_c, 0, 49, 0
2,135287, Control_c, 0, 64, 64
2,135303, Control_c, 0, 64, 84
2,135318, Control_c, 0, 64, 127
2,135501, Note_on_c, 0, 44, 83
2,135508, Note_on_c, 0, 64, 81
2,135513, Note_on_c, 0, 68, 82
2,135517, Control_c, 0, 64, 66
2,135532, Control_c, 0, 64, 0
2,135546, Note_on_c, 0, 66, 0
2,135554, Note_on_c, 0, 72, 0
2,135569, Note_on_c, 0, 51, 0
2,135580, Note_on_c, 0, 64, 0
2,135594, Control_c, 0, 64, 65
2,135602, Note_on_c, 0, 69, 0
2,135608, Control_c, 0, 64, 127
2,135668, Note_on_c, 0, 63, 88
2,135670, Note_on_c, 0, 66, 88
2,135698, Note_on_c, 0, 68, 0
2,135735, Note_on_c, 0, 66, 0
2,135754, Note_on_c, 0, 63, 0
2,135901, Note_on_c, 0, 76, 90
2,135905, Note_on_c, 0, 64, 87
2,135905, Note_on_c, 0, 68, 85
2,135906, Control_c, 0, 64, 66
2,135907, Note_on_c, 0, 49, 83
2,135920, Control_c, 0, 64, 0
2,136011, Control_c, 0, 64, 57
2,136026, Control_c, 0, 64, 72
2,136041, Control_c, 0, 64, 127
2,136098, Note_on_c, 0, 64, 0
2,136121, Note_on_c, 0, 68, 0
2,136153, Note_on_c, 0, 49, 0
2,136236, Note_on_c, 0, 66, 89
2,136236, Note_on_c, 0, 70, 86
2,136241, Note_on_c, 0, 49, 88
2,136254, Control_c, 0, 64, 105
2,136270, Control_c, 0, 64, 0
2,136340, Note_on_c, 0, 66, 0
2,136361, Control_c, 0, 64, 64
2,136376, Control_c, 0, 64, 122
2,136392, Control_c, 0, 64, 127
2,136425, Note_on_c, 0, 72, 88
2,136428, Note_on_c, 0, 68, 92
2,136432, Note_on_c, 0, 44, 0
2,136440, Note_on_c, 0, 49, 0
2,136453, Note_on_c, 0, 70, 0
2,136520, Note_on_c, 0, 68, 0
2,136627, Note_on_c, 0, 72, 0
2,136662, Note_on_c, 0, 43, 79
2,136664, Note_on_c, 0, 73, 89
2,136668, Note_on_c, 0, 49, 86
2,136668, Note_on_c, 0, 70, 89
2,136673, Control_c, 0, 64, 78
2,136688, Control_c, 0, 64, 0
2,137039, Note_on_c, 0, 47, 82
2,137052, Note_on_c, 0, 49, 0
2,137201, Note_on_c, 0, 46, 87
2,137207, Note_on_c, 0, 47, 0
2,137250, Note_on_c, 0, 73, 0
2,137273, Note_on_c, 0, 70, 0
2,137388, Note_on_c, 0, 63, 86
2,137388, Note_on_c, 0, 75, 90
2,137390, Note_on_c, 0, 51, 80
2,137391, Note_on_c, 0, 70, 77
2,137399, Note_on_c, 0, 46, 0
2,137409, Note_on_c, 0, 76, 0
2,137751, Note_on_c, 0, 73, 93
2,137783, Note_on_c, 0, 75, 0
2,137853, Control_c, 0, 64, 64
2,137869, Control_c, 0, 64, 71
2,137869, Note_on_c, 0, 70, 0
2,137884, Control_c, 0, 64, 90
2,137898, Control_c, 0, 64, 127
2,137938, Note_on_c, 0, 43, 0
2,138096, Control_c, 0, 64, 98
2,138111, Control_c, 0, 64, 78
2,138115, Note_on_c, 0, 72, 91
2,138118, Note_on_c, 0, 68, 76
2,138134, Control_c, 0, 64, 67
2,138140, Note_on_c, 0, 44, 77
2,138149, Control_c, 0, 64, 38
2,138163, Control_c, 0, 64, 0
2,138176, Note_on_c, 0, 51, 0
2,138243, Note_on_c, 0, 73, 0
2,138341, Note_on_c, 0, 52, 88
2,138569, Note_on_c, 0, 54, 92
2,138580, Note_on_c, 0, 52, 0
2,138784, Note_on_c, 0, 68, 0
2,138788, Control_c, 0, 64, 62
2,138803, Control_c, 0, 64, 66
2,138818, Control_c, 0, 64, 70
2,138833, Control_c, 0, 64, 81
2,138838, Note_on_c, 0, 63, 0
2,138848, Control_c, 0, 64, 127
2,138931, Note_on_c, 0, 73, 91
2,138932, Note_on_c, 0, 64, 82
2,138941, Note_on_c, 0, 68, 77
2,138967, Note_on_c, 0, 72, 0
2,139007, Control_c, 0, 64, 97
2,139023, Control_c, 0, 64, 78
2,139038, Control_c, 0, 64, 69
2,139054, Control_c, 0, 64, 64
2,139069, Control_c, 0, 64, 54
2,139079, Note_on_c, 0, 52, 77
2,139084, Control_c, 0, 64, 36
2,139096, Note_on_c, 0, 54, 0
2,139100, Control_c, 0, 64, 26
2,139115, Control_c, 0, 64, 13
2,139129, Control_c, 0, 64, 0
2,139257, Note_on_c, 0, 51, 82
2,139285, Note_on_c, 0, 52, 0
2,139424, Note_on_c, 0, 51, 0
2,139426, Note_on_c, 0, 49, 83
2,139446, Note_on_c, 0, 64, 0
2,139641, Note_on_c, 0, 63, 81
2,139642, Note_on_c, 0, 56, 96
2,139649, Note_on_c, 0, 49, 0
2,140343, Note_on_c, 0, 72, 90
2,140388, Note_on_c, 0, 73, 0
2,140531, Control_c, 0, 64, 26
2,140545, Control_c, 0, 64, 47
2,140560, Control_c, 0, 64, 58
2,140576, Control_c, 0, 64, 62
2,140591, Control_c, 0, 64, 63
2,140621, Control_c, 0, 64, 64
2,140636, Control_c, 0, 64, 65
2,140646, Note_on_c, 0, 63, 0
2,140652, Control_c, 0, 64, 69
2,140667, Control_c, 0, 64, 79
2,140682, Control_c, 0, 64, 107
2,140697, Control_c, 0, 64, 127
2,140705, Note_on_c, 0, 64, 85
2,140738, Note_on_c, 0, 44, 0
2,140802, Note_on_c, 0, 56, 0
2,140891, Note_on_c, 0, 66, 90
2,140923, Note_on_c, 0, 64, 0
2,141107, Note_on_c, 0, 73, 87
2,141108, Note_on_c, 0, 49, 87
2,141113, Note_on_c, 0, 65, 73
2,141121, Note_on_c, 0, 57, 76
2,141146, Note_on_c, 0, 66, 0
2,141167, Control_c, 0, 64, 78
2,141183, Control_c, 0, 64, 63
2,141201, Note_on_c, 0, 72, 0
2,141205, Control_c, 0, 64, 0
2,141582, Note_on_c, 0, 61, 71
2,141707, Control_c, 0, 64, 34
2,141722, Control_c, 0, 64, 56
2,141738, Control_c, 0, 64, 62
2,141753, Control_c, 0, 64, 65
2,141765, Note_on_c, 0, 65, 0
2,141768, Control_c, 0, 64, 71
2,141783, Control_c, 0, 64, 87
2,141798, Control_c, 0, 64, 127
2,141951, Note_on_c, 0, 66, 94
2,141974, Control_c, 0, 64, 101
2,141989, Control_c, 0, 64, 82
2,142004, Control_c, 0, 64, 71
2,142004, Note_on_c, 0, 68, 0
2,142019, Control_c, 0, 64, 64
2,142034, Control_c, 0, 64, 42
2,142049, Control_c, 0, 64, 0
2,142339, Note_on_c, 0, 56, 77
2,142351, Note_on_c, 0, 57, 0
2,142517, Note_on_c, 0, 57, 88
2,142586, Note_on_c, 0, 56, 0
2,142722, Note_on_c, 0, 65, 87
2,142738, Note_on_c, 0, 59, 85
2,142747, Note_on_c, 0, 57, 0
2,142752, Note_on_c, 0, 66, 0
2,142754, Note_on_c, 0, 61, 0
2,143096, Note_on_c, 0, 61, 87
2,143097, Note_on_c, 0, 57, 75
2,143126, Note_on_c, 0, 59, 0
2,143274, Control_c, 0, 64, 53
2,143289, Control_c, 0, 64, 64
2,143297, Note_on_c, 0, 65, 0
2,143305, Control_c, 0, 64, 78
2,143320, Control_c, 0, 64, 127
2,143485, Note_on_c, 0, 66, 89
2,143486, Note_on_c, 0, 69, 82
2,143496, Note_on_c, 0, 56, 81
2,143514, Note_on_c, 0, 61, 0
2,143524, Note_on_c, 0, 57, 0
2,143525, Control_c, 0, 64, 68
2,143540, Control_c, 0, 64, 0
2,143678, Control_c, 0, 64, 44
2,143694, Control_c, 0, 64, 61
2,143708, Control_c, 0, 64, 66
2,143723, Control_c, 0, 64, 86
2,143739, Control_c, 0, 64, 127
2,143833, Note_on_c, 0, 66, 0
2,143919, Note_on_c, 0, 66, 94
2,143925, Note_on_c, 0, 54, 69
2,143936, Control_c, 0, 64, 81
2,143945, Note_on_c, 0, 56, 0
2,143951, Control_c, 0, 64, 53
2,143966, Control_c, 0, 64, 0
2,144104, Control_c, 0, 64, 46
2,144118, Control_c, 0, 64, 61
2,144134, Control_c, 0, 64, 65
2,144149, Control_c, 0, 64, 74
2,144162, Note_on_c, 0, 69, 0
2,144164, Control_c, 0, 64, 127
2,144200, Note_on_c, 0, 66, 0
2,144405, Note_on_c, 0, 66, 92
2,144405, Note_on_c, 0, 68, 87
2,144408, Note_on_c, 0, 61, 78
2,144446, Control_c, 0, 64, 96
2,144460, Note_on_c, 0, 54, 0
2,144462, Control_c, 0, 64, 76
2,144476, Control_c, 0, 64, 65
2,144492, Control_c, 0, 64, 36
2,144507, Control_c, 0, 64, 0
2,144906, Note_on_c, 0, 59, 79
2,144927, Note_on_c, 0, 61, 0
2,145187, Note_on_c, 0, 57, 80
2,145202, Note_on_c, 0, 59, 0
2,145471, Note_on_c, 0, 65, 80
2,145475, Note_on_c, 0, 56, 70
2,145520, Note_on_c, 0, 66, 0
2,145526, Note_on_c, 0, 57, 0
2,146120, Note_on_c, 0, 63, 81
2,146137, Note_on_c, 0, 54, 67
2,146187, Note_on_c, 0, 65, 0
2,146251, Note_on_c, 0, 56, 0
2,146919, Note_on_c, 0, 65, 70
2,146938, Note_on_c, 0, 56, 58
2,147013, Note_on_c, 0, 63, 0
2,147118, Note_on_c, 0, 54, 0
2,149038, Control_c, 0, 64, 13
2,149054, Control_c, 0, 64, 17
2,149069, Control_c, 0, 64, 22
2,149083, Control_c, 0, 64, 24
2,149099, Control_c, 0, 64, 29
2,149114, Control_c, 0, 64, 33
2,149129, Control_c, 0, 64, 35
2,149145, Control_c, 0, 64, 37
2,149159, Control_c, 0, 64, 40
2,149175, Control_c, 0, 64, 42
2,149190, Control_c, 0, 64, 43
2,149205, Control_c, 0, 64, 44
2,149221, Control_c, 0, 64, 46
2,149235, Control_c, 0, 64, 47
2,149251, Control_c, 0, 64, 49
2,149266, Control_c, 0, 64, 49
2,149281, Control_c, 0, 64, 50
2,149296, Control_c, 0, 64, 51
2,149374, Control_c, 0, 64, 51
2,149388, Control_c, 0, 64, 52
2,149403, Control_c, 0, 64, 53
2,149464, Control_c, 0, 64, 53
2,149479, Control_c, 0, 64, 54
2,149540, Control_c, 0, 64, 54
2,149555, Control_c, 0, 64, 55
2,149586, Control_c, 0, 64, 55
2,149617, Control_c, 0, 64, 56
2,149632, Control_c, 0, 64, 56
2,149670, Control_c, 0, 64, 57
2,149715, Control_c, 0, 64, 57
2,149745, Control_c, 0, 64, 58
2,149822, Control_c, 0, 64, 58
2,149867, Control_c, 0, 64, 59
2,149882, Control_c, 0, 64, 59
2,149898, Control_c, 0, 64, 60
2,149913, Control_c, 0, 64, 60
2,149928, Control_c, 0, 64, 61
2,149974, Control_c, 0, 64, 62
2,149989, Control_c, 0, 64, 62
2,150499, Control_c, 0, 64, 62
2,150559, Control_c, 0, 64, 61
2,150574, Control_c, 0, 64, 61
2,150589, Control_c, 0, 64, 60
2,150620, Control_c, 0, 64, 60
2,150635, Control_c, 0, 64, 59
2,150651, Control_c, 0, 64, 58
2,150680, Control_c, 0, 64, 58
2,150696, Control_c, 0, 64, 57
2,150711, Control_c, 0, 64, 56
2,150726, Control_c, 0, 64, 55
2,150742, Control_c, 0, 64, 54
2,150787, Control_c, 0, 64, 53
2,150802, Control_c, 0, 64, 51
2,150818, Control_c, 0, 64, 50
2,150848, Control_c, 0, 64, 49
2,150863, Control_c, 0, 64, 47
2,150878, Control_c, 0, 64, 44
2,150894, Control_c, 0, 64, 42
2,150908, Control_c, 0, 64, 41
2,150923, Control_c, 0, 64, 39
2,150939, Control_c, 0, 64, 34
2,150953, Control_c, 0, 64, 28
2,150968, Control_c, 0, 64, 24
2,150985, Control_c, 0, 64, 22
2,150999, Control_c, 0, 64, 17
2,151015, Control_c, 0, 64, 0
2,151262, Note_on_c, 0, 49, 0
2,151265, Note_on_c, 0, 65, 0
2,151267, Note_on_c, 0, 73, 0
2,151283, Note_on_c, 0, 56, 0
2,151286, Note_on_c, 0, 68, 0
2,151287, End_track
0, 0, End_of_file
