0, 0, Header, 1, 2, 384
1, 0, Start_track
1, 0, Tempo, 500000
1, 0, Time_signature, 4, 2, 24, 8
1, 1, End_track
2, 0, Start_track
2, 0, Title_t," ""6/29 1 ~ 3  e-Comp"""
2, 0, Program_c, 0, 0
2, 0, Control_c, 0, 64, 0
2, 0, Control_c, 0, 67, 104
2, 753, Note_on_c, 0, 68, 47
2, 779, Note_on_c, 0, 49, 34
2, 1058, Note_on_c, 0, 66, 56
2, 1133, Control_c, 0, 67, 105
2, 1155, Note_on_c, 0, 68, 0
2, 1260, Note_on_c, 0, 64, 62
2, 1270, Note_on_c, 0, 66, 0
2, 1442, Note_on_c, 0, 63, 65
2, 1442, Note_on_c, 0, 64, 0
2, 1484, Control_c, 0, 67, 105
2, 1621, Note_on_c, 0, 63, 0
2, 1627, Note_on_c, 0, 64, 66
2, 1773, Note_on_c, 0, 64, 0
2, 1788, Note_on_c, 0, 61, 64
2, 1935, Note_on_c, 0, 64, 56
2, 1961, Control_c, 0, 67, 106
2, 1964, Note_on_c, 0, 61, 0
2, 1999, Note_on_c, 0, 68, 55
2, 2049, Note_on_c, 0, 73, 64
2, 2114, Control_c, 0, 67, 105
2, 2494, Control_c, 0, 67, 106
2, 2532, Control_c, 0, 64, 26
2, 2547, Control_c, 0, 64, 45
2, 2562, Control_c, 0, 64, 57
2, 2577, Control_c, 0, 64, 62
2, 2593, Control_c, 0, 64, 64
2, 2608, Control_c, 0, 64, 66
2, 2610, Note_on_c, 0, 73, 0
2, 2623, Control_c, 0, 64, 70
2, 2638, Control_c, 0, 64, 77
2, 2653, Control_c, 0, 64, 91
2, 2668, Control_c, 0, 64, 127
2, 2723, Note_on_c, 0, 71, 49
2, 2730, Note_on_c, 0, 68, 0
2, 2942, Control_c, 0, 64, 116
2, 2958, Control_c, 0, 64, 89
2, 2959, Note_on_c, 0, 69, 56
2, 2964, Note_on_c, 0, 71, 0
2, 2973, Control_c, 0, 64, 76
2, 2975, Note_on_c, 0, 66, 48
2, 2987, Control_c, 0, 64, 67
2, 2995, Note_on_c, 0, 64, 0
2, 3003, Control_c, 0, 64, 55
2, 3018, Control_c, 0, 64, 0
2, 3171, Control_c, 0, 64, 47
2, 3186, Control_c, 0, 64, 63
2, 3201, Control_c, 0, 64, 67
2, 3216, Control_c, 0, 64, 76
2, 3232, Control_c, 0, 64, 104
2, 3247, Control_c, 0, 64, 127
2, 3248, Note_on_c, 0, 69, 0
2, 3277, Control_c, 0, 67, 105
2, 3420, Note_on_c, 0, 66, 0
2, 3433, Note_on_c, 0, 69, 59
2, 3449, Note_on_c, 0, 56, 42
2, 3452, Control_c, 0, 64, 111
2, 3452, Note_on_c, 0, 64, 51
2, 3467, Control_c, 0, 64, 96
2, 3482, Control_c, 0, 64, 89
2, 3497, Control_c, 0, 64, 84
2, 3513, Control_c, 0, 64, 79
2, 3527, Control_c, 0, 64, 75
2, 3527, Control_c, 0, 67, 106
2, 3542, Control_c, 0, 64, 72
2, 3558, Control_c, 0, 64, 70
2, 3573, Control_c, 0, 64, 68
2, 3588, Control_c, 0, 64, 66
2, 3603, Control_c, 0, 64, 66
2, 3664, Control_c, 0, 64, 65
2, 3677, Note_on_c, 0, 69, 0
2, 3706, Note_on_c, 0, 68, 59
2, 3711, Control_c, 0, 67, 105
2, 3711, Note_on_c, 0, 54, 42
2, 3725, Note_on_c, 0, 56, 0
2, 3726, Control_c, 0, 64, 65
2, 3741, Control_c, 0, 64, 64
2, 3745, Note_on_c, 0, 68, 0
2, 3769, Note_on_c, 0, 69, 58
2, 3771, Control_c, 0, 64, 64
2, 3802, Control_c, 0, 64, 63
2, 3804, Note_on_c, 0, 69, 0
2, 3817, Control_c, 0, 67, 105
2, 3821, Note_on_c, 0, 68, 59
2, 3832, Control_c, 0, 64, 63
2, 3847, Control_c, 0, 64, 62
2, 3856, Note_on_c, 0, 68, 0
2, 3862, Control_c, 0, 64, 61
2, 3863, Note_on_c, 0, 69, 61
2, 3878, Control_c, 0, 64, 58
2, 3888, Note_on_c, 0, 54, 0
2, 3893, Control_c, 0, 64, 56
2, 3902, Note_on_c, 0, 52, 46
2, 3907, Control_c, 0, 64, 54
2, 3923, Control_c, 0, 64, 51
2, 3923, Note_on_c, 0, 68, 70
2, 3926, Note_on_c, 0, 69, 0
2, 3938, Control_c, 0, 64, 43
2, 3954, Control_c, 0, 64, 20
2, 3968, Control_c, 0, 64, 0
2, 4076, Note_on_c, 0, 52, 0
2, 4077, Note_on_c, 0, 51, 60
2, 4245, Note_on_c, 0, 52, 63
2, 4256, Note_on_c, 0, 49, 0
2, 4276, Note_on_c, 0, 51, 0
2, 4407, Note_on_c, 0, 52, 0
2, 4411, Note_on_c, 0, 49, 60
2, 4446, Control_c, 0, 67, 104
2, 4528, Note_on_c, 0, 52, 59
2, 4588, Note_on_c, 0, 56, 68
2, 4670, Note_on_c, 0, 61, 70
2, 4672, Note_on_c, 0, 52, 0
2, 4722, Note_on_c, 0, 56, 0
2, 5184, Control_c, 0, 64, 28
2, 5200, Control_c, 0, 64, 32
2, 5214, Control_c, 0, 64, 37
2, 5230, Control_c, 0, 64, 41
2, 5230, Control_c, 0, 67, 104
2, 5245, Control_c, 0, 64, 52
2, 5260, Control_c, 0, 64, 57
2, 5276, Control_c, 0, 64, 57
2, 5305, Control_c, 0, 64, 58
2, 5321, Control_c, 0, 64, 58
2, 5336, Control_c, 0, 64, 59
2, 5378, Note_on_c, 0, 61, 0
2, 5383, Note_on_c, 0, 59, 54
2, 5443, Control_c, 0, 64, 58
2, 5458, Control_c, 0, 64, 58
2, 5474, Control_c, 0, 64, 57
2, 5489, Control_c, 0, 64, 56
2, 5504, Control_c, 0, 64, 56
2, 5520, Control_c, 0, 64, 55
2, 5534, Control_c, 0, 64, 53
2, 5550, Control_c, 0, 64, 50
2, 5565, Control_c, 0, 64, 46
2, 5580, Control_c, 0, 64, 39
2, 5603, Control_c, 0, 64, 22
2, 5618, Control_c, 0, 64, 0
2, 5628, Note_on_c, 0, 57, 47
2, 5637, Note_on_c, 0, 64, 0
2, 5639, Note_on_c, 0, 66, 56
2, 5677, Note_on_c, 0, 59, 0
2, 5782, Note_on_c, 0, 68, 0
2, 5861, Control_c, 0, 64, 56
2, 5877, Control_c, 0, 64, 64
2, 5892, Control_c, 0, 64, 67
2, 5907, Control_c, 0, 64, 70
2, 5923, Control_c, 0, 64, 75
2, 5923, Control_c, 0, 67, 103
2, 5937, Control_c, 0, 64, 85
2, 5953, Control_c, 0, 64, 101
2, 5968, Control_c, 0, 64, 127
2, 6000, Note_on_c, 0, 49, 0
2, 6274, Control_c, 0, 64, 107
2, 6278, Note_on_c, 0, 75, 61
2, 6288, Control_c, 0, 64, 93
2, 6303, Control_c, 0, 64, 85
2, 6311, Note_on_c, 0, 56, 40
2, 6315, Note_on_c, 0, 48, 43
2, 6319, Control_c, 0, 64, 80
2, 6334, Control_c, 0, 64, 76
2, 6350, Control_c, 0, 64, 72
2, 6350, Control_c, 0, 67, 103
2, 6372, Control_c, 0, 64, 68
2, 6387, Control_c, 0, 64, 64
2, 6403, Control_c, 0, 64, 55
2, 6406, Note_on_c, 0, 57, 0
2, 6417, Control_c, 0, 64, 46
2, 6433, Control_c, 0, 64, 41
2, 6448, Control_c, 0, 64, 28
2, 6463, Control_c, 0, 64, 0
2, 6479, Control_c, 0, 67, 103
2, 6565, Note_on_c, 0, 73, 62
2, 6659, Note_on_c, 0, 75, 0
2, 6758, Note_on_c, 0, 72, 69
2, 6778, Note_on_c, 0, 73, 0
2, 6827, Control_c, 0, 67, 104
2, 6889, Control_c, 0, 64, 44
2, 6903, Control_c, 0, 64, 54
2, 6919, Control_c, 0, 64, 55
2, 6926, Note_on_c, 0, 70, 74
2, 6930, Note_on_c, 0, 72, 0
2, 6965, Control_c, 0, 64, 56
2, 6980, Control_c, 0, 64, 57
2, 7042, Control_c, 0, 67, 104
2, 7087, Control_c, 0, 64, 56
2, 7094, Note_on_c, 0, 72, 71
2, 7102, Control_c, 0, 64, 55
2, 7118, Control_c, 0, 64, 54
2, 7118, Note_on_c, 0, 70, 0
2, 7139, Control_c, 0, 64, 51
2, 7155, Control_c, 0, 64, 49
2, 7170, Control_c, 0, 64, 47
2, 7185, Control_c, 0, 64, 42
2, 7201, Control_c, 0, 64, 39
2, 7216, Control_c, 0, 64, 42
2, 7232, Control_c, 0, 64, 50
2, 7247, Control_c, 0, 64, 56
2, 7262, Control_c, 0, 64, 59
2, 7271, Note_on_c, 0, 68, 78
2, 7277, Control_c, 0, 64, 62
2, 7292, Control_c, 0, 64, 64
2, 7295, Note_on_c, 0, 66, 0
2, 7295, Note_on_c, 0, 72, 0
2, 7307, Control_c, 0, 64, 66
2, 7323, Control_c, 0, 64, 68
2, 7324, Note_on_c, 0, 68, 0
2, 7338, Control_c, 0, 64, 70
2, 7353, Control_c, 0, 64, 73
2, 7368, Control_c, 0, 64, 76
2, 7383, Control_c, 0, 64, 76
2, 7426, Note_on_c, 0, 68, 66
2, 7474, Control_c, 0, 64, 75
2, 7489, Control_c, 0, 64, 74
2, 7491, Note_on_c, 0, 75, 68
2, 7504, Control_c, 0, 64, 73
2, 7520, Control_c, 0, 64, 72
2, 7535, Control_c, 0, 64, 70
2, 7550, Control_c, 0, 64, 68
2, 7565, Control_c, 0, 64, 65
2, 7565, Note_on_c, 0, 80, 79
2, 7580, Control_c, 0, 64, 62
2, 7596, Control_c, 0, 64, 53
2, 7610, Control_c, 0, 64, 17
2, 7625, Control_c, 0, 64, 0
2, 7641, Control_c, 0, 67, 105
2, 7672, Control_c, 0, 67, 105
2, 7686, Control_c, 0, 67, 106
2, 7701, Control_c, 0, 67, 106
2, 7777, Control_c, 0, 67, 106
2, 7923, Control_c, 0, 64, 35
2, 7923, Control_c, 0, 67, 105
2, 7937, Control_c, 0, 64, 57
2, 7943, Note_on_c, 0, 68, 0
2, 7951, Note_on_c, 0, 48, 0
2, 7953, Control_c, 0, 64, 64
2, 7953, Control_c, 0, 67, 105
2, 7968, Control_c, 0, 64, 69
2, 7983, Control_c, 0, 64, 81
2, 7999, Control_c, 0, 64, 122
2, 8014, Control_c, 0, 64, 127
2, 8045, Note_on_c, 0, 75, 0
2, 8063, Note_on_c, 0, 56, 0
2, 8150, Note_on_c, 0, 78, 70
2, 8161, Note_on_c, 0, 80, 0
2, 8387, Note_on_c, 0, 76, 64
2, 8391, Note_on_c, 0, 68, 36
2, 8394, Control_c, 0, 64, 105
2, 8398, Note_on_c, 0, 78, 0
2, 8406, Note_on_c, 0, 61, 40
2, 8408, Control_c, 0, 64, 73
2, 8408, Note_on_c, 0, 49, 39
2, 8411, Note_on_c, 0, 73, 53
2, 8423, Control_c, 0, 64, 47
2, 8439, Control_c, 0, 64, 0
2, 8500, Control_c, 0, 67, 105
2, 8515, Control_c, 0, 64, 34
2, 8515, Control_c, 0, 67, 106
2, 8530, Control_c, 0, 64, 61
2, 8530, Control_c, 0, 67, 106
2, 8545, Control_c, 0, 64, 67
2, 8561, Control_c, 0, 64, 96
2, 8570, Note_on_c, 0, 49, 0
2, 8576, Control_c, 0, 64, 127
2, 8586, Note_on_c, 0, 73, 0
2, 8588, Note_on_c, 0, 68, 0
2, 8593, Note_on_c, 0, 61, 0
2, 8610, Note_on_c, 0, 76, 0
2, 8622, Control_c, 0, 67, 106
2, 8653, Control_c, 0, 67, 106
2, 8676, Control_c, 0, 67, 107
2, 8691, Control_c, 0, 67, 108
2, 8705, Control_c, 0, 67, 109
2, 8812, Control_c, 0, 67, 109
2, 8858, Control_c, 0, 67, 110
2, 8858, Note_on_c, 0, 76, 69
2, 8865, Note_on_c, 0, 72, 68
2, 8876, Note_on_c, 0, 63, 52
2, 8895, Note_on_c, 0, 68, 38
2, 8900, Note_on_c, 0, 56, 38
2, 8903, Control_c, 0, 64, 93
2, 8919, Control_c, 0, 64, 70
2, 8919, Control_c, 0, 67, 109
2, 8934, Control_c, 0, 64, 0
2, 8964, Control_c, 0, 67, 109
2, 8995, Control_c, 0, 67, 109
2, 9010, Control_c, 0, 67, 110
2, 9025, Control_c, 0, 64, 22
2, 9025, Control_c, 0, 67, 110
2, 9040, Control_c, 0, 64, 49
2, 9040, Control_c, 0, 67, 111
2, 9055, Control_c, 0, 64, 56
2, 9071, Control_c, 0, 64, 61
2, 9085, Control_c, 0, 64, 64
2, 9100, Control_c, 0, 64, 65
2, 9100, Control_c, 0, 67, 110
2, 9101, Note_on_c, 0, 76, 0
2, 9116, Control_c, 0, 64, 66
2, 9124, Note_on_c, 0, 75, 68
2, 9131, Control_c, 0, 64, 67
2, 9151, Note_on_c, 0, 61, 53
2, 9161, Control_c, 0, 64, 67
2, 9163, Note_on_c, 0, 75, 0
2, 9169, Note_on_c, 0, 63, 0
2, 9176, Control_c, 0, 64, 68
2, 9177, Note_on_c, 0, 76, 65
2, 9207, Control_c, 0, 64, 68
2, 9223, Note_on_c, 0, 76, 0
2, 9227, Note_on_c, 0, 75, 74
2, 9238, Control_c, 0, 67, 110
2, 9268, Control_c, 0, 67, 109
2, 9275, Note_on_c, 0, 76, 72
2, 9282, Note_on_c, 0, 75, 0
2, 9283, Control_c, 0, 64, 68
2, 9314, Control_c, 0, 64, 67
2, 9329, Control_c, 0, 64, 67
2, 9335, Note_on_c, 0, 75, 73
2, 9344, Control_c, 0, 64, 66
2, 9345, Note_on_c, 0, 76, 0
2, 9352, Note_on_c, 0, 60, 40
2, 9360, Control_c, 0, 64, 66
2, 9374, Control_c, 0, 64, 65
2, 9374, Control_c, 0, 67, 109
2, 9380, Note_on_c, 0, 61, 0
2, 9390, Control_c, 0, 64, 64
2, 9405, Control_c, 0, 67, 108
2, 9420, Control_c, 0, 64, 64
2, 9445, Control_c, 0, 64, 63
2, 9460, Control_c, 0, 64, 62
2, 9475, Control_c, 0, 64, 61
2, 9490, Control_c, 0, 64, 61
2, 9505, Control_c, 0, 64, 60
2, 9520, Control_c, 0, 64, 58
2, 9528, Note_on_c, 0, 60, 0
2, 9535, Control_c, 0, 64, 54
2, 9536, Note_on_c, 0, 58, 65
2, 9551, Control_c, 0, 64, 49
2, 9551, Control_c, 0, 67, 108
2, 9566, Control_c, 0, 64, 43
2, 9581, Control_c, 0, 64, 38
2, 9596, Control_c, 0, 64, 34
2, 9611, Control_c, 0, 64, 24
2, 9611, Control_c, 0, 67, 107
2, 9626, Control_c, 0, 64, 0
2, 9642, Control_c, 0, 67, 108
2, 9707, Note_on_c, 0, 56, 0
2, 9712, Note_on_c, 0, 60, 72
2, 9742, Note_on_c, 0, 58, 0
2, 9824, Control_c, 0, 67, 108
2, 9851, Note_on_c, 0, 60, 0
2, 9874, Note_on_c, 0, 56, 65
2, 9885, Control_c, 0, 67, 108
2, 9906, Note_on_c, 0, 68, 0
2, 9963, Note_on_c, 0, 60, 56
2, 10027, Note_on_c, 0, 63, 65
2, 10051, Control_c, 0, 67, 107
2, 10076, Note_on_c, 0, 60, 0
2, 10085, Note_on_c, 0, 66, 67
2, 10125, Note_on_c, 0, 63, 0
2, 10158, Control_c, 0, 67, 107
2, 10188, Control_c, 0, 67, 106
2, 10242, Control_c, 0, 67, 106
2, 10319, Control_c, 0, 67, 105
2, 10425, Control_c, 0, 64, 42
2, 10425, Control_c, 0, 67, 106
2, 10440, Control_c, 0, 64, 55
2, 10455, Control_c, 0, 64, 61
2, 10471, Control_c, 0, 64, 64
2, 10486, Control_c, 0, 64, 66
2, 10491, Note_on_c, 0, 72, 0
2, 10501, Control_c, 0, 64, 72
2, 10512, Note_on_c, 0, 75, 0
2, 10516, Control_c, 0, 64, 86
2, 10531, Control_c, 0, 64, 127
2, 10607, Control_c, 0, 67, 106
2, 10646, Note_on_c, 0, 66, 0
2, 10648, Note_on_c, 0, 64, 62
2, 10820, Control_c, 0, 64, 94
2, 10820, Control_c, 0, 67, 106
2, 10836, Control_c, 0, 64, 77
2, 10845, Note_on_c, 0, 80, 72
2, 10850, Control_c, 0, 64, 66
2, 10850, Control_c, 0, 67, 105
2, 10853, Note_on_c, 0, 64, 0
2, 10861, Note_on_c, 0, 63, 41
2, 10865, Control_c, 0, 64, 0
2, 10873, Note_on_c, 0, 72, 40
2, 10876, Note_on_c, 0, 68, 47
2, 10979, Control_c, 0, 67, 106
2, 10995, Control_c, 0, 64, 13
2, 11010, Control_c, 0, 64, 56
2, 11025, Control_c, 0, 64, 64
2, 11041, Control_c, 0, 64, 74
2, 11041, Control_c, 0, 67, 106
2, 11055, Control_c, 0, 64, 127
2, 11071, Control_c, 0, 67, 107
2, 11081, Note_on_c, 0, 80, 0
2, 11114, Note_on_c, 0, 68, 0
2, 11305, Note_on_c, 0, 75, 59
2, 11310, Note_on_c, 0, 72, 0
2, 11315, Control_c, 0, 64, 103
2, 11326, Note_on_c, 0, 69, 45
2, 11330, Control_c, 0, 64, 92
2, 11335, Note_on_c, 0, 64, 41
2, 11344, Control_c, 0, 64, 84
2, 11360, Control_c, 0, 64, 78
2, 11368, Note_on_c, 0, 63, 0
2, 11375, Control_c, 0, 64, 74
2, 11391, Control_c, 0, 64, 69
2, 11406, Control_c, 0, 64, 66
2, 11420, Control_c, 0, 64, 63
2, 11428, Note_on_c, 0, 73, 61
2, 11436, Control_c, 0, 64, 56
2, 11445, Note_on_c, 0, 75, 0
2, 11451, Control_c, 0, 64, 17
2, 11466, Control_c, 0, 64, 0
2, 11524, Note_on_c, 0, 73, 0
2, 11525, Note_on_c, 0, 72, 71
2, 11717, Note_on_c, 0, 73, 71
2, 11744, Note_on_c, 0, 72, 0
2, 11786, Note_on_c, 0, 69, 0
2, 11941, Note_on_c, 0, 76, 69
2, 11955, Note_on_c, 0, 73, 0
2, 12188, Control_c, 0, 67, 106
2, 12247, Note_on_c, 0, 81, 63
2, 12292, Note_on_c, 0, 76, 0
2, 12416, Control_c, 0, 64, 46
2, 12416, Control_c, 0, 67, 107
2, 12432, Control_c, 0, 64, 58
2, 12447, Control_c, 0, 64, 63
2, 12461, Control_c, 0, 64, 65
2, 12476, Note_on_c, 0, 64, 0
2, 12477, Control_c, 0, 64, 68
2, 12492, Control_c, 0, 64, 73
2, 12492, Control_c, 0, 67, 106
2, 12515, Control_c, 0, 64, 80
2, 12530, Control_c, 0, 64, 84
2, 12545, Control_c, 0, 64, 87
2, 12561, Control_c, 0, 64, 94
2, 12575, Control_c, 0, 64, 103
2, 12591, Control_c, 0, 64, 107
2, 12606, Control_c, 0, 64, 107
2, 12637, Control_c, 0, 64, 108
2, 12637, Control_c, 0, 67, 106
2, 12697, Control_c, 0, 64, 107
2, 12713, Control_c, 0, 64, 103
2, 12729, Control_c, 0, 64, 99
2, 12743, Control_c, 0, 64, 92
2, 12756, Note_on_c, 0, 69, 46
2, 12759, Control_c, 0, 64, 86
2, 12760, Note_on_c, 0, 63, 35
2, 12773, Note_on_c, 0, 54, 43
2, 12774, Control_c, 0, 64, 81
2, 12790, Control_c, 0, 64, 77
2, 12805, Control_c, 0, 64, 74
2, 12819, Control_c, 0, 64, 71
2, 12835, Control_c, 0, 64, 69
2, 12850, Control_c, 0, 64, 68
2, 12865, Control_c, 0, 64, 66
2, 12881, Control_c, 0, 64, 65
2, 12888, Note_on_c, 0, 56, 0
2, 12895, Control_c, 0, 64, 64
2, 12911, Control_c, 0, 64, 63
2, 12911, Control_c, 0, 67, 105
2, 12926, Control_c, 0, 64, 61
2, 12941, Control_c, 0, 64, 60
2, 12957, Control_c, 0, 64, 58
2, 12960, Note_on_c, 0, 80, 60
2, 12971, Control_c, 0, 64, 57
2, 12986, Control_c, 0, 64, 55
2, 13002, Control_c, 0, 64, 51
2, 13008, Note_on_c, 0, 81, 0
2, 13016, Control_c, 0, 64, 47
2, 13032, Control_c, 0, 64, 46
2, 13047, Control_c, 0, 64, 42
2, 13063, Control_c, 0, 64, 33
2, 13079, Control_c, 0, 64, 0
2, 13160, Note_on_c, 0, 78, 66
2, 13175, Note_on_c, 0, 80, 0
2, 13347, Note_on_c, 0, 78, 0
2, 13351, Note_on_c, 0, 76, 68
2, 13527, Note_on_c, 0, 75, 68
2, 13581, Note_on_c, 0, 76, 0
2, 13664, Control_c, 0, 67, 105
2, 13699, Note_on_c, 0, 73, 73
2, 13737, Note_on_c, 0, 69, 0
2, 13738, Note_on_c, 0, 75, 0
2, 13740, Control_c, 0, 64, 38
2, 13756, Control_c, 0, 64, 54
2, 13771, Control_c, 0, 64, 61
2, 13776, Note_on_c, 0, 73, 0
2, 13786, Control_c, 0, 64, 64
2, 13786, Control_c, 0, 67, 105
2, 13801, Control_c, 0, 64, 69
2, 13816, Control_c, 0, 64, 81
2, 13832, Control_c, 0, 64, 127
2, 13832, Control_c, 0, 67, 105
2, 13862, Control_c, 0, 67, 104
2, 13890, Note_on_c, 0, 73, 60
2, 13900, Note_on_c, 0, 68, 57
2, 13938, Control_c, 0, 67, 105
2, 13983, Control_c, 0, 64, 105
2, 13998, Control_c, 0, 64, 89
2, 14001, Note_on_c, 0, 71, 62
2, 14013, Control_c, 0, 64, 79
2, 14013, Control_c, 0, 67, 104
2, 14028, Control_c, 0, 64, 73
2, 14030, Note_on_c, 0, 73, 0
2, 14052, Control_c, 0, 64, 68
2, 14067, Control_c, 0, 64, 65
2, 14082, Control_c, 0, 64, 63
2, 14087, Note_on_c, 0, 69, 60
2, 14097, Control_c, 0, 64, 60
2, 14113, Control_c, 0, 64, 58
2, 14127, Note_on_c, 0, 71, 0
2, 14128, Control_c, 0, 64, 54
2, 14143, Control_c, 0, 64, 46
2, 14158, Control_c, 0, 64, 32
2, 14173, Control_c, 0, 64, 0
2, 14190, Note_on_c, 0, 68, 0
2, 14264, Note_on_c, 0, 69, 0
2, 14285, Note_on_c, 0, 71, 63
2, 14417, Control_c, 0, 67, 105
2, 14492, Note_on_c, 0, 75, 68
2, 14510, Note_on_c, 0, 71, 0
2, 14554, Control_c, 0, 67, 105
2, 14689, Control_c, 0, 67, 106
2, 14719, Control_c, 0, 67, 106
2, 14750, Control_c, 0, 67, 107
2, 14784, Note_on_c, 0, 80, 60
2, 14834, Control_c, 0, 67, 107
2, 14852, Note_on_c, 0, 75, 0
2, 14984, Control_c, 0, 64, 52
2, 14984, Control_c, 0, 67, 107
2, 14984, Note_on_c, 0, 63, 0
2, 15000, Control_c, 0, 64, 61
2, 15015, Control_c, 0, 64, 62
2, 15015, Control_c, 0, 67, 106
2, 15031, Control_c, 0, 64, 64
2, 15031, Control_c, 0, 67, 106
2, 15046, Control_c, 0, 64, 65
2, 15046, Control_c, 0, 67, 105
2, 15061, Control_c, 0, 64, 66
2, 15061, Control_c, 0, 67, 105
2, 15077, Control_c, 0, 64, 69
2, 15092, Control_c, 0, 64, 73
2, 15092, Control_c, 0, 67, 104
2, 15107, Control_c, 0, 64, 76
2, 15153, Control_c, 0, 64, 75
2, 15183, Control_c, 0, 64, 75
2, 15199, Control_c, 0, 64, 74
2, 15214, Control_c, 0, 64, 72
2, 15230, Control_c, 0, 64, 70
2, 15230, Control_c, 0, 67, 104
2, 15239, Note_on_c, 0, 68, 49
2, 15245, Control_c, 0, 64, 68
2, 15245, Control_c, 0, 67, 103
2, 15259, Note_on_c, 0, 61, 31
2, 15260, Control_c, 0, 64, 67
2, 15260, Control_c, 0, 67, 103
2, 15274, Note_on_c, 0, 52, 32
2, 15275, Control_c, 0, 64, 66
2, 15305, Control_c, 0, 64, 66
2, 15321, Control_c, 0, 64, 65
2, 15336, Control_c, 0, 64, 64
2, 15336, Control_c, 0, 67, 102
2, 15351, Control_c, 0, 67, 102
2, 15356, Note_on_c, 0, 54, 0
2, 15366, Control_c, 0, 67, 101
2, 15381, Control_c, 0, 64, 64
2, 15397, Control_c, 0, 67, 101
2, 15426, Control_c, 0, 64, 63
2, 15441, Note_on_c, 0, 78, 62
2, 15459, Note_on_c, 0, 80, 0
2, 15533, Control_c, 0, 64, 63
2, 15548, Control_c, 0, 64, 61
2, 15548, Control_c, 0, 67, 101
2, 15563, Control_c, 0, 64, 59
2, 15586, Control_c, 0, 64, 58
2, 15601, Note_on_c, 0, 78, 0
2, 15602, Control_c, 0, 64, 56
2, 15616, Control_c, 0, 64, 53
2, 15632, Control_c, 0, 64, 49
2, 15632, Control_c, 0, 67, 102
2, 15647, Control_c, 0, 64, 40
2, 15648, Note_on_c, 0, 76, 64
2, 15662, Control_c, 0, 64, 13
2, 15678, Control_c, 0, 64, 0
2, 15820, Note_on_c, 0, 75, 72
2, 15854, Note_on_c, 0, 76, 0
2, 15890, Control_c, 0, 67, 102
2, 16003, Note_on_c, 0, 73, 72
2, 16040, Note_on_c, 0, 75, 0
2, 16103, Control_c, 0, 67, 102
2, 16165, Control_c, 0, 64, 49
2, 16170, Note_on_c, 0, 71, 71
2, 16180, Control_c, 0, 64, 64
2, 16180, Control_c, 0, 67, 102
2, 16196, Control_c, 0, 64, 69
2, 16203, Note_on_c, 0, 73, 0
2, 16211, Control_c, 0, 64, 83
2, 16211, Note_on_c, 0, 68, 0
2, 16212, Note_on_c, 0, 71, 0
2, 16226, Control_c, 0, 64, 127
2, 16374, Note_on_c, 0, 66, 49
2, 16382, Note_on_c, 0, 71, 65
2, 16401, Control_c, 0, 64, 104
2, 16415, Control_c, 0, 64, 87
2, 16431, Control_c, 0, 64, 77
2, 16446, Control_c, 0, 64, 71
2, 16461, Control_c, 0, 64, 66
2, 16477, Control_c, 0, 64, 62
2, 16489, Note_on_c, 0, 69, 64
2, 16492, Control_c, 0, 64, 53
2, 16507, Control_c, 0, 64, 38
2, 16507, Control_c, 0, 67, 103
2, 16521, Note_on_c, 0, 71, 0
2, 16523, Control_c, 0, 64, 0
2, 16554, Note_on_c, 0, 66, 0
2, 16584, Note_on_c, 0, 68, 71
2, 16603, Note_on_c, 0, 69, 0
2, 16755, Note_on_c, 0, 68, 0
2, 16773, Note_on_c, 0, 69, 66
2, 16969, Note_on_c, 0, 73, 65
2, 16978, Note_on_c, 0, 69, 0
2, 17262, Note_on_c, 0, 78, 55
2, 17299, Note_on_c, 0, 73, 0
2, 17336, Control_c, 0, 67, 102
2, 17426, Control_c, 0, 67, 103
2, 17442, Control_c, 0, 64, 52
2, 17444, Note_on_c, 0, 61, 0
2, 17457, Control_c, 0, 64, 62
2, 17473, Control_c, 0, 64, 65
2, 17488, Control_c, 0, 64, 68
2, 17502, Control_c, 0, 64, 71
2, 17518, Control_c, 0, 64, 78
2, 17533, Control_c, 0, 64, 85
2, 17548, Control_c, 0, 64, 90
2, 17564, Control_c, 0, 64, 91
2, 17641, Control_c, 0, 64, 90
2, 17656, Control_c, 0, 64, 88
2, 17672, Control_c, 0, 64, 84
2, 17686, Control_c, 0, 64, 81
2, 17701, Control_c, 0, 64, 78
2, 17717, Control_c, 0, 64, 75
2, 17721, Note_on_c, 0, 66, 40
2, 17728, Note_on_c, 0, 78, 0
2, 17731, Control_c, 0, 64, 73
2, 17731, Note_on_c, 0, 59, 33
2, 17746, Control_c, 0, 64, 71
2, 17751, Note_on_c, 0, 51, 41
2, 17762, Control_c, 0, 64, 69
2, 17777, Control_c, 0, 64, 67
2, 17778, Note_on_c, 0, 52, 0
2, 17793, Control_c, 0, 64, 66
2, 17807, Control_c, 0, 64, 66
2, 17822, Control_c, 0, 64, 65
2, 17838, Control_c, 0, 64, 64
2, 17853, Control_c, 0, 64, 64
2, 17867, Control_c, 0, 64, 63
2, 17891, Control_c, 0, 64, 63
2, 17906, Control_c, 0, 64, 62
2, 17922, Control_c, 0, 64, 61
2, 17936, Control_c, 0, 64, 59
2, 17936, Control_c, 0, 67, 102
2, 17936, Note_on_c, 0, 76, 52
2, 17952, Control_c, 0, 64, 58
2, 17967, Control_c, 0, 64, 56
2, 17982, Control_c, 0, 64, 55
2, 17998, Control_c, 0, 64, 53
2, 18012, Control_c, 0, 64, 49
2, 18027, Control_c, 0, 64, 44
2, 18043, Control_c, 0, 64, 42
2, 18058, Control_c, 0, 64, 40
2, 18073, Control_c, 0, 64, 32
2, 18088, Control_c, 0, 64, 0
2, 18110, Note_on_c, 0, 76, 0
2, 18125, Note_on_c, 0, 75, 70
2, 18303, Note_on_c, 0, 73, 70
2, 18332, Control_c, 0, 67, 103
2, 18337, Note_on_c, 0, 75, 0
2, 18487, Note_on_c, 0, 71, 74
2, 18492, Note_on_c, 0, 73, 0
2, 18636, Control_c, 0, 64, 42
2, 18645, Note_on_c, 0, 66, 0
2, 18658, Control_c, 0, 64, 58
2, 18668, Note_on_c, 0, 71, 0
2, 18670, Note_on_c, 0, 69, 74
2, 18674, Control_c, 0, 64, 64
2, 18689, Control_c, 0, 64, 68
2, 18704, Control_c, 0, 64, 77
2, 18719, Control_c, 0, 64, 101
2, 18719, Control_c, 0, 67, 102
2, 18734, Control_c, 0, 64, 127
2, 18774, Note_on_c, 0, 69, 0
2, 18856, Control_c, 0, 67, 102
2, 18892, Note_on_c, 0, 69, 64
2, 18902, Note_on_c, 0, 64, 59
2, 18917, Control_c, 0, 64, 107
2, 18917, Note_on_c, 0, 52, 50
2, 18932, Control_c, 0, 64, 93
2, 18936, Note_on_c, 0, 51, 0
2, 18947, Control_c, 0, 64, 85
2, 18963, Control_c, 0, 64, 79
2, 18977, Control_c, 0, 64, 74
2, 18993, Control_c, 0, 64, 71
2, 19008, Control_c, 0, 64, 69
2, 19023, Control_c, 0, 64, 67
2, 19038, Control_c, 0, 64, 65
2, 19053, Control_c, 0, 64, 63
2, 19068, Control_c, 0, 64, 60
2, 19084, Control_c, 0, 64, 58
2, 19129, Control_c, 0, 64, 57
2, 19132, Note_on_c, 0, 69, 0
2, 19144, Control_c, 0, 64, 56
2, 19158, Note_on_c, 0, 68, 63
2, 19160, Control_c, 0, 64, 55
2, 19170, Note_on_c, 0, 57, 52
2, 19190, Control_c, 0, 64, 54
2, 19199, Note_on_c, 0, 59, 0
2, 19205, Control_c, 0, 64, 52
2, 19207, Note_on_c, 0, 68, 0
2, 19220, Control_c, 0, 64, 49
2, 19222, Note_on_c, 0, 69, 60
2, 19236, Control_c, 0, 64, 44
2, 19251, Control_c, 0, 64, 40
2, 19253, Note_on_c, 0, 68, 67
2, 19253, Note_on_c, 0, 69, 0
2, 19267, Control_c, 0, 64, 29
2, 19283, Control_c, 0, 64, 0
2, 19307, Note_on_c, 0, 69, 72
2, 19312, Note_on_c, 0, 68, 0
2, 19366, Note_on_c, 0, 68, 72
2, 19375, Note_on_c, 0, 69, 0
2, 19381, Note_on_c, 0, 56, 61
2, 19401, Note_on_c, 0, 57, 0
2, 19554, Note_on_c, 0, 54, 62
2, 19565, Note_on_c, 0, 56, 0
2, 19727, Note_on_c, 0, 56, 69
2, 19736, Note_on_c, 0, 52, 0
2, 19756, Note_on_c, 0, 54, 0
2, 19880, Note_on_c, 0, 56, 0
2, 19881, Note_on_c, 0, 52, 66
2, 19950, Note_on_c, 0, 64, 0
2, 19985, Note_on_c, 0, 56, 66
2, 20005, Control_c, 0, 67, 101
2, 20020, Control_c, 0, 67, 101
2, 20042, Note_on_c, 0, 59, 71
2, 20050, Control_c, 0, 67, 100
2, 20065, Control_c, 0, 67, 100
2, 20076, Note_on_c, 0, 56, 0
2, 20096, Control_c, 0, 67, 99
2, 20112, Control_c, 0, 67, 98
2, 20115, Note_on_c, 0, 64, 68
2, 20123, Note_on_c, 0, 59, 0
2, 20127, Control_c, 0, 67, 98
2, 20142, Control_c, 0, 67, 97
2, 20158, Control_c, 0, 67, 95
2, 20173, Control_c, 0, 67, 92
2, 20195, Control_c, 0, 67, 86
2, 20210, Control_c, 0, 67, 76
2, 20225, Control_c, 0, 67, 61
2, 20241, Control_c, 0, 67, 51
2, 20256, Control_c, 0, 67, 44
2, 20271, Control_c, 0, 67, 38
2, 20286, Control_c, 0, 67, 34
2, 20301, Control_c, 0, 67, 28
2, 20317, Control_c, 0, 67, 22
2, 20332, Control_c, 0, 67, 14
2, 20347, Control_c, 0, 67, 10
2, 20363, Control_c, 0, 67, 8
2, 20378, Control_c, 0, 67, 0
2, 20423, Control_c, 0, 64, 42
2, 20439, Control_c, 0, 64, 57
2, 20454, Control_c, 0, 64, 63
2, 20470, Control_c, 0, 64, 67
2, 20484, Control_c, 0, 64, 74
2, 20499, Control_c, 0, 64, 105
2, 20515, Control_c, 0, 64, 127
2, 20681, Note_on_c, 0, 68, 0
2, 20712, Control_c, 0, 64, 96
2, 20724, Note_on_c, 0, 64, 0
2, 20727, Control_c, 0, 64, 72
2, 20734, Note_on_c, 0, 66, 70
2, 20735, Note_on_c, 0, 63, 58
2, 20741, Control_c, 0, 64, 49
2, 20757, Control_c, 0, 64, 0
2, 20818, Control_c, 0, 64, 52
2, 20834, Control_c, 0, 64, 64
2, 20849, Control_c, 0, 64, 67
2, 20864, Control_c, 0, 64, 75
2, 20879, Control_c, 0, 64, 119
2, 20892, Note_on_c, 0, 66, 0
2, 20894, Control_c, 0, 64, 127
2, 21051, Note_on_c, 0, 63, 0
2, 21053, Note_on_c, 0, 61, 50
2, 21056, Note_on_c, 0, 69, 64
2, 21070, Control_c, 0, 64, 88
2, 21085, Control_c, 0, 64, 72
2, 21100, Control_c, 0, 64, 63
2, 21112, Note_on_c, 0, 69, 0
2, 21115, Control_c, 0, 64, 0
2, 21118, Note_on_c, 0, 68, 72
2, 21188, Note_on_c, 0, 69, 70
2, 21195, Note_on_c, 0, 68, 0
2, 21283, Control_c, 0, 64, 54
2, 21298, Control_c, 0, 64, 62
2, 21314, Control_c, 0, 64, 64
2, 21328, Control_c, 0, 64, 68
2, 21342, Note_on_c, 0, 52, 0
2, 21343, Control_c, 0, 64, 82
2, 21359, Control_c, 0, 64, 127
2, 21715, Note_on_c, 0, 51, 35
2, 21732, Control_c, 0, 64, 99
2, 21734, Note_on_c, 0, 60, 56
2, 21747, Control_c, 0, 64, 90
2, 21762, Control_c, 0, 64, 85
2, 21777, Control_c, 0, 64, 81
2, 21793, Control_c, 0, 64, 78
2, 21807, Control_c, 0, 64, 73
2, 21822, Control_c, 0, 64, 67
2, 21838, Control_c, 0, 64, 63
2, 21853, Control_c, 0, 64, 54
2, 21868, Control_c, 0, 64, 36
2, 21883, Control_c, 0, 64, 0
2, 21894, Note_on_c, 0, 61, 0
2, 22004, Note_on_c, 0, 68, 59
2, 22048, Note_on_c, 0, 69, 0
2, 22193, Note_on_c, 0, 66, 67
2, 22236, Note_on_c, 0, 68, 0
2, 22371, Note_on_c, 0, 64, 65
2, 22408, Note_on_c, 0, 66, 0
2, 22562, Note_on_c, 0, 66, 67
2, 22582, Note_on_c, 0, 64, 0
2, 22738, Note_on_c, 0, 66, 0
2, 22740, Note_on_c, 0, 63, 70
2, 22954, Note_on_c, 0, 75, 69
2, 22971, Note_on_c, 0, 56, 50
2, 22982, Note_on_c, 0, 63, 0
2, 23104, Note_on_c, 0, 51, 0
2, 23150, Note_on_c, 0, 73, 72
2, 23197, Note_on_c, 0, 75, 0
2, 23327, Note_on_c, 0, 72, 78
2, 23401, Note_on_c, 0, 73, 0
2, 23499, Note_on_c, 0, 54, 64
2, 23500, Note_on_c, 0, 70, 77
2, 23535, Note_on_c, 0, 72, 0
2, 23539, Note_on_c, 0, 56, 0
2, 23689, Note_on_c, 0, 72, 75
2, 23695, Note_on_c, 0, 56, 66
2, 23706, Note_on_c, 0, 54, 0
2, 23718, Note_on_c, 0, 70, 0
2, 23858, Note_on_c, 0, 72, 0
2, 23871, Note_on_c, 0, 68, 73
2, 24144, Note_on_c, 0, 81, 75
2, 24153, Note_on_c, 0, 49, 61
2, 24212, Note_on_c, 0, 68, 0
2, 24263, Note_on_c, 0, 56, 0
2, 24385, Note_on_c, 0, 80, 76
2, 24424, Note_on_c, 0, 81, 0
2, 24561, Note_on_c, 0, 78, 77
2, 24598, Note_on_c, 0, 80, 0
2, 24734, Note_on_c, 0, 76, 71
2, 24752, Note_on_c, 0, 61, 58
2, 24753, Note_on_c, 0, 78, 0
2, 24757, Note_on_c, 0, 60, 0
2, 24935, Note_on_c, 0, 78, 76
2, 24936, Note_on_c, 0, 76, 0
2, 24943, Note_on_c, 0, 63, 49
2, 24991, Note_on_c, 0, 61, 0
2, 25123, Note_on_c, 0, 75, 79
2, 25159, Note_on_c, 0, 78, 0
2, 25315, Note_on_c, 0, 63, 0
2, 25320, Note_on_c, 0, 61, 57
2, 25330, Note_on_c, 0, 76, 71
2, 25410, Note_on_c, 0, 75, 0
2, 25523, Note_on_c, 0, 75, 72
2, 25707, Note_on_c, 0, 73, 65
2, 25876, Note_on_c, 0, 75, 0
2, 25880, Note_on_c, 0, 71, 67
2, 25884, Note_on_c, 0, 51, 53
2, 25911, Note_on_c, 0, 73, 0
2, 25922, Note_on_c, 0, 49, 0
2, 26075, Note_on_c, 0, 51, 0
2, 26077, Note_on_c, 0, 52, 54
2, 26077, Note_on_c, 0, 73, 68
2, 26101, Note_on_c, 0, 71, 0
2, 26276, Note_on_c, 0, 70, 73
2, 26298, Note_on_c, 0, 73, 0
2, 26481, Note_on_c, 0, 61, 0
2, 26539, Note_on_c, 0, 46, 51
2, 26542, Note_on_c, 0, 68, 66
2, 26557, Note_on_c, 0, 52, 0
2, 26557, Note_on_c, 0, 70, 0
2, 26805, Note_on_c, 0, 51, 56
2, 26812, Note_on_c, 0, 67, 67
2, 26822, Note_on_c, 0, 68, 0
2, 26873, Note_on_c, 0, 46, 0
2, 26962, Note_on_c, 0, 49, 68
2, 26983, Note_on_c, 0, 76, 0
2, 26989, Note_on_c, 0, 51, 0
2, 27113, Note_on_c, 0, 75, 71
2, 27118, Note_on_c, 0, 68, 66
2, 27121, Note_on_c, 0, 47, 60
2, 27159, Note_on_c, 0, 67, 0
2, 27174, Note_on_c, 0, 49, 0
2, 27200, Note_on_c, 0, 68, 0
2, 27268, Note_on_c, 0, 73, 60
2, 27273, Note_on_c, 0, 70, 73
2, 27307, Note_on_c, 0, 75, 0
2, 27326, Note_on_c, 0, 49, 49
2, 27329, Note_on_c, 0, 70, 0
2, 27335, Note_on_c, 0, 68, 73
2, 27388, Note_on_c, 0, 47, 0
2, 27406, Note_on_c, 0, 70, 75
2, 27429, Note_on_c, 0, 50, 8
2, 27435, Note_on_c, 0, 68, 0
2, 27462, Note_on_c, 0, 73, 0
2, 27483, Note_on_c, 0, 50, 0
2, 27697, Control_c, 0, 64, 28
2, 27701, Note_on_c, 0, 73, 73
2, 27711, Note_on_c, 0, 63, 57
2, 27712, Control_c, 0, 64, 44
2, 27713, Note_on_c, 0, 49, 0
2, 27713, Note_on_c, 0, 70, 0
2, 27721, Note_on_c, 0, 43, 58
2, 27728, Control_c, 0, 64, 56
2, 27743, Control_c, 0, 64, 59
2, 27759, Control_c, 0, 64, 62
2, 27773, Control_c, 0, 64, 63
2, 27788, Control_c, 0, 64, 64
2, 27819, Control_c, 0, 64, 64
2, 27834, Control_c, 0, 64, 66
2, 27849, Control_c, 0, 64, 69
2, 27851, Note_on_c, 0, 43, 0
2, 27872, Control_c, 0, 64, 76
2, 27888, Control_c, 0, 64, 81
2, 27900, Note_on_c, 0, 47, 58
2, 27902, Control_c, 0, 64, 84
2, 27918, Control_c, 0, 64, 89
2, 27933, Control_c, 0, 64, 94
2, 27948, Control_c, 0, 64, 95
2, 28024, Control_c, 0, 64, 94
2, 28040, Control_c, 0, 64, 88
2, 28054, Control_c, 0, 64, 82
2, 28069, Control_c, 0, 64, 78
2, 28080, Note_on_c, 0, 46, 66
2, 28085, Control_c, 0, 64, 76
2, 28097, Note_on_c, 0, 47, 0
2, 28099, Control_c, 0, 64, 76
2, 28101, Note_on_c, 0, 63, 0
2, 28103, Note_on_c, 0, 73, 0
2, 28114, Control_c, 0, 64, 73
2, 28130, Control_c, 0, 64, 71
2, 28145, Control_c, 0, 64, 69
2, 28161, Control_c, 0, 64, 67
2, 28175, Control_c, 0, 64, 66
2, 28190, Control_c, 0, 64, 65
2, 28206, Control_c, 0, 64, 64
2, 28221, Control_c, 0, 64, 62
2, 28236, Control_c, 0, 64, 60
2, 28241, Note_on_c, 0, 65, 69
2, 28242, Note_on_c, 0, 71, 68
2, 28247, Note_on_c, 0, 44, 55
2, 28252, Control_c, 0, 64, 59
2, 28269, Note_on_c, 0, 46, 0
2, 28283, Control_c, 0, 64, 58
2, 28298, Control_c, 0, 64, 56
2, 28313, Control_c, 0, 64, 54
2, 28328, Control_c, 0, 64, 53
2, 28359, Control_c, 0, 64, 52
2, 28374, Control_c, 0, 64, 50
2, 28389, Control_c, 0, 64, 46
2, 28400, Note_on_c, 0, 44, 0
2, 28402, Note_on_c, 0, 65, 0
2, 28405, Control_c, 0, 64, 44
2, 28413, Note_on_c, 0, 67, 67
2, 28419, Control_c, 0, 64, 40
2, 28425, Note_on_c, 0, 46, 53
2, 28427, Note_on_c, 0, 70, 59
2, 28434, Control_c, 0, 64, 35
2, 28450, Control_c, 0, 64, 31
2, 28465, Control_c, 0, 64, 17
2, 28469, Note_on_c, 0, 67, 0
2, 28478, Note_on_c, 0, 65, 65
2, 28481, Control_c, 0, 64, 0
2, 28488, Note_on_c, 0, 71, 0
2, 28546, Note_on_c, 0, 67, 66
2, 28558, Note_on_c, 0, 65, 0
2, 28670, Note_on_c, 0, 43, 66
2, 28732, Note_on_c, 0, 46, 0
2, 28953, Note_on_c, 0, 67, 0
2, 28956, Note_on_c, 0, 37, 63
2, 29073, Note_on_c, 0, 43, 0
2, 29175, Note_on_c, 0, 68, 60
2, 29242, Note_on_c, 0, 70, 0
2, 29354, Note_on_c, 0, 67, 72
2, 29368, Note_on_c, 0, 68, 0
2, 29541, Note_on_c, 0, 65, 72
2, 29569, Note_on_c, 0, 67, 0
2, 29711, Note_on_c, 0, 67, 68
2, 29730, Note_on_c, 0, 65, 0
2, 29851, Note_on_c, 0, 67, 0
2, 29875, Note_on_c, 0, 63, 74
2, 29982, Note_on_c, 0, 67, 66
2, 30016, Note_on_c, 0, 63, 0
2, 30046, Note_on_c, 0, 70, 66
2, 30111, Note_on_c, 0, 75, 76
2, 30140, Note_on_c, 0, 37, 0
2, 30296, Note_on_c, 0, 49, 64
2, 30476, Note_on_c, 0, 47, 71
2, 30509, Note_on_c, 0, 49, 0
2, 30652, Note_on_c, 0, 46, 74
2, 30672, Note_on_c, 0, 47, 0
2, 30833, Note_on_c, 0, 46, 0
2, 30837, Note_on_c, 0, 47, 59
2, 30840, Note_on_c, 0, 68, 65
2, 30869, Note_on_c, 0, 67, 0
2, 30896, Note_on_c, 0, 70, 0
2, 31001, Note_on_c, 0, 47, 0
2, 31014, Note_on_c, 0, 44, 70
2, 31197, Note_on_c, 0, 52, 63
2, 31261, Note_on_c, 0, 52, 0
2, 31265, Note_on_c, 0, 51, 67
2, 31333, Note_on_c, 0, 52, 72
2, 31356, Note_on_c, 0, 51, 0
2, 31387, Note_on_c, 0, 44, 0
2, 31543, Note_on_c, 0, 72, 72
2, 31586, Note_on_c, 0, 75, 0
2, 31737, Note_on_c, 0, 73, 75
2, 31789, Note_on_c, 0, 72, 0
2, 31926, Note_on_c, 0, 51, 57
2, 31926, Note_on_c, 0, 75, 75
2, 31989, Note_on_c, 0, 73, 0
2, 32006, Note_on_c, 0, 52, 0
2, 32136, Note_on_c, 0, 76, 68
2, 32151, Note_on_c, 0, 49, 42
2, 32198, Note_on_c, 0, 75, 0
2, 32210, Note_on_c, 0, 51, 0
2, 32366, Note_on_c, 0, 75, 78
2, 32420, Note_on_c, 0, 76, 0
2, 32620, Note_on_c, 0, 73, 62
2, 32622, Note_on_c, 0, 51, 31
2, 32664, Note_on_c, 0, 75, 0
2, 32711, Note_on_c, 0, 49, 0
2, 32976, Note_on_c, 0, 71, 52
2, 33021, Note_on_c, 0, 73, 0
2, 33557, Control_c, 0, 64, 24
2, 33572, Control_c, 0, 64, 53
2, 33588, Control_c, 0, 64, 62
2, 33603, Control_c, 0, 64, 64
2, 33617, Control_c, 0, 64, 65
2, 33633, Control_c, 0, 64, 66
2, 33648, Control_c, 0, 64, 69
2, 33658, Note_on_c, 0, 71, 0
2, 33662, Control_c, 0, 64, 76
2, 33678, Control_c, 0, 64, 90
2, 33681, Note_on_c, 0, 73, 51
2, 33693, Control_c, 0, 64, 108
2, 33709, Control_c, 0, 64, 127
2, 33841, Note_on_c, 0, 68, 0
2, 33958, Note_on_c, 0, 71, 49
2, 33986, Note_on_c, 0, 67, 44
2, 34006, Note_on_c, 0, 39, 38
2, 34044, Note_on_c, 0, 73, 0
2, 34051, Control_c, 0, 64, 108
2, 34067, Control_c, 0, 64, 91
2, 34082, Control_c, 0, 64, 78
2, 34085, Note_on_c, 0, 70, 59
2, 34096, Control_c, 0, 64, 69
2, 34097, Note_on_c, 0, 71, 0
2, 34112, Control_c, 0, 64, 63
2, 34127, Control_c, 0, 64, 47
2, 34142, Control_c, 0, 64, 0
2, 34157, Note_on_c, 0, 70, 0
2, 34170, Note_on_c, 0, 68, 56
2, 34265, Note_on_c, 0, 68, 0
2, 34282, Note_on_c, 0, 70, 55
2, 34461, Control_c, 0, 64, 24
2, 34477, Control_c, 0, 64, 33
2, 34492, Control_c, 0, 64, 38
2, 34507, Control_c, 0, 64, 54
2, 34522, Control_c, 0, 64, 64
2, 34537, Control_c, 0, 64, 68
2, 34541, Note_on_c, 0, 67, 0
2, 34553, Control_c, 0, 64, 72
2, 34568, Control_c, 0, 64, 81
2, 34582, Control_c, 0, 64, 104
2, 34598, Control_c, 0, 64, 127
2, 34829, Note_on_c, 0, 59, 49
2, 34884, Note_on_c, 0, 63, 48
2, 34940, Control_c, 0, 64, 96
2, 34956, Control_c, 0, 64, 83
2, 34971, Control_c, 0, 64, 75
2, 34987, Control_c, 0, 64, 69
2, 34997, Note_on_c, 0, 68, 47
2, 35002, Control_c, 0, 64, 64
2, 35016, Control_c, 0, 64, 56
2, 35022, Note_on_c, 0, 39, 0
2, 35028, Note_on_c, 0, 44, 47
2, 35032, Control_c, 0, 64, 0
2, 35049, Note_on_c, 0, 70, 0
2, 35330, Note_on_c, 0, 49, 46
2, 35474, Note_on_c, 0, 51, 0
2, 35527, Note_on_c, 0, 47, 49
2, 35548, Note_on_c, 0, 49, 0
2, 35722, Note_on_c, 0, 47, 0
2, 35725, Note_on_c, 0, 46, 58
2, 35889, Note_on_c, 0, 44, 0
2, 35891, Note_on_c, 0, 47, 60
2, 35913, Note_on_c, 0, 46, 0
2, 36071, Note_on_c, 0, 47, 0
2, 36080, Note_on_c, 0, 44, 62
2, 36253, Note_on_c, 0, 47, 61
2, 36330, Note_on_c, 0, 59, 0
2, 36431, Note_on_c, 0, 51, 63
2, 36441, Note_on_c, 0, 47, 0
2, 36495, Note_on_c, 0, 63, 0
2, 36575, Note_on_c, 0, 68, 0
2, 36611, Note_on_c, 0, 56, 58
2, 36618, Note_on_c, 0, 51, 0
2, 36771, Note_on_c, 0, 52, 65
2, 36779, Note_on_c, 0, 56, 0
2, 36932, Note_on_c, 0, 71, 68
2, 36946, Note_on_c, 0, 52, 0
2, 36951, Note_on_c, 0, 54, 54
2, 37001, Note_on_c, 0, 71, 0
2, 37006, Note_on_c, 0, 70, 77
2, 37068, Note_on_c, 0, 71, 68
2, 37071, Note_on_c, 0, 70, 0
2, 37154, Note_on_c, 0, 51, 57
2, 37164, Note_on_c, 0, 54, 0
2, 37330, Note_on_c, 0, 52, 50
2, 37336, Note_on_c, 0, 49, 53
2, 37336, Note_on_c, 0, 51, 0
2, 37406, Note_on_c, 0, 44, 0
2, 37525, Note_on_c, 0, 68, 68
2, 37529, Note_on_c, 0, 51, 49
2, 37532, Note_on_c, 0, 71, 0
2, 37541, Note_on_c, 0, 49, 0
2, 37700, Note_on_c, 0, 70, 73
2, 37704, Note_on_c, 0, 51, 0
2, 37707, Note_on_c, 0, 49, 55
2, 37748, Note_on_c, 0, 68, 0
2, 37880, Note_on_c, 0, 73, 79
2, 37882, Note_on_c, 0, 47, 55
2, 37889, Note_on_c, 0, 49, 0
2, 37929, Note_on_c, 0, 70, 0
2, 38056, Note_on_c, 0, 47, 0
2, 38059, Note_on_c, 0, 49, 60
2, 38070, Note_on_c, 0, 76, 75
2, 38128, Note_on_c, 0, 73, 0
2, 38213, Note_on_c, 0, 49, 0
2, 38224, Note_on_c, 0, 46, 63
2, 38224, Note_on_c, 0, 52, 0
2, 38397, Note_on_c, 0, 54, 65
2, 38457, Note_on_c, 0, 52, 60
2, 38460, Note_on_c, 0, 54, 0
2, 38537, Note_on_c, 0, 54, 66
2, 38545, Note_on_c, 0, 52, 0
2, 38715, Note_on_c, 0, 75, 73
2, 38740, Note_on_c, 0, 76, 0
2, 38908, Note_on_c, 0, 76, 76
2, 39074, Note_on_c, 0, 75, 0
2, 39091, Note_on_c, 0, 80, 72
2, 39108, Note_on_c, 0, 56, 52
2, 39118, Note_on_c, 0, 54, 0
2, 39136, Note_on_c, 0, 76, 0
2, 39341, Note_on_c, 0, 78, 67
2, 39345, Note_on_c, 0, 58, 46
2, 39359, Note_on_c, 0, 56, 0
2, 39378, Note_on_c, 0, 80, 0
2, 39553, Note_on_c, 0, 46, 0
2, 39577, Control_c, 0, 64, 42
2, 39593, Control_c, 0, 64, 66
2, 39608, Control_c, 0, 64, 78
2, 39619, Note_on_c, 0, 58, 0
2, 39624, Control_c, 0, 64, 122
2, 39638, Control_c, 0, 64, 127
2, 39819, Note_on_c, 0, 59, 52
2, 39828, Note_on_c, 0, 75, 68
2, 39859, Note_on_c, 0, 78, 0
2, 39868, Note_on_c, 0, 59, 0
2, 39895, Note_on_c, 0, 58, 59
2, 39928, Control_c, 0, 64, 101
2, 39942, Control_c, 0, 64, 88
2, 39958, Control_c, 0, 64, 79
2, 39973, Control_c, 0, 64, 71
2, 39974, Note_on_c, 0, 58, 0
2, 39977, Note_on_c, 0, 59, 61
2, 39988, Control_c, 0, 64, 64
2, 40003, Control_c, 0, 64, 50
2, 40018, Control_c, 0, 64, 0
2, 40149, Note_on_c, 0, 73, 55
2, 40327, Note_on_c, 0, 71, 60
2, 40369, Note_on_c, 0, 73, 0
2, 40477, Note_on_c, 0, 71, 0
2, 40483, Note_on_c, 0, 70, 66
2, 40668, Note_on_c, 0, 71, 62
2, 40686, Note_on_c, 0, 70, 0
2, 40855, Note_on_c, 0, 66, 53
2, 41043, Note_on_c, 0, 63, 66
2, 41052, Note_on_c, 0, 59, 0
2, 41221, Note_on_c, 0, 59, 51
2, 41400, Note_on_c, 0, 57, 60
2, 41410, Note_on_c, 0, 59, 0
2, 41577, Note_on_c, 0, 56, 59
2, 41605, Note_on_c, 0, 57, 0
2, 41752, Note_on_c, 0, 56, 0
2, 41773, Note_on_c, 0, 73, 78
2, 41785, Note_on_c, 0, 57, 43
2, 41802, Note_on_c, 0, 75, 0
2, 42005, Note_on_c, 0, 54, 41
2, 42053, Note_on_c, 0, 57, 0
2, 42066, Note_on_c, 0, 71, 0
2, 42216, Note_on_c, 0, 54, 0
2, 42224, Note_on_c, 0, 51, 48
2, 42262, Note_on_c, 0, 63, 0
2, 42363, Note_on_c, 0, 51, 0
2, 42400, Note_on_c, 0, 70, 65
2, 42409, Note_on_c, 0, 52, 48
2, 42422, Note_on_c, 0, 66, 0
2, 42546, Note_on_c, 0, 73, 0
2, 42588, Note_on_c, 0, 70, 0
2, 42589, Note_on_c, 0, 51, 53
2, 42594, Note_on_c, 0, 72, 75
2, 42609, Note_on_c, 0, 52, 0
2, 42765, Note_on_c, 0, 75, 83
2, 42767, Note_on_c, 0, 49, 57
2, 42789, Note_on_c, 0, 72, 0
2, 42795, Note_on_c, 0, 51, 0
2, 42930, Note_on_c, 0, 51, 60
2, 42935, Note_on_c, 0, 78, 79
2, 42941, Note_on_c, 0, 49, 0
2, 42963, Note_on_c, 0, 75, 0
2, 43125, Note_on_c, 0, 80, 83
2, 43127, Note_on_c, 0, 48, 52
2, 43167, Note_on_c, 0, 78, 0
2, 43342, Note_on_c, 0, 81, 74
2, 43364, Note_on_c, 0, 44, 51
2, 43387, Note_on_c, 0, 48, 0
2, 43416, Note_on_c, 0, 80, 0
2, 43540, Note_on_c, 0, 80, 75
2, 43601, Note_on_c, 0, 81, 0
2, 43721, Note_on_c, 0, 78, 73
2, 43782, Note_on_c, 0, 80, 0
2, 43898, Note_on_c, 0, 46, 42
2, 43902, Note_on_c, 0, 76, 75
2, 43925, Note_on_c, 0, 78, 0
2, 43961, Note_on_c, 0, 44, 0
2, 44088, Note_on_c, 0, 46, 0
2, 44088, Note_on_c, 0, 48, 44
2, 44094, Note_on_c, 0, 78, 70
2, 44096, Note_on_c, 0, 76, 0
2, 44284, Note_on_c, 0, 75, 71
2, 44323, Note_on_c, 0, 78, 0
2, 44479, Note_on_c, 0, 76, 61
2, 44495, Note_on_c, 0, 49, 47
2, 44506, Note_on_c, 0, 48, 0
2, 44527, Note_on_c, 0, 75, 0
2, 44538, Note_on_c, 0, 51, 0
2, 44681, Note_on_c, 0, 75, 61
2, 44861, Note_on_c, 0, 73, 61
2, 44943, Note_on_c, 0, 75, 0
2, 45029, Note_on_c, 0, 72, 61
2, 45045, Note_on_c, 0, 73, 0
2, 45221, Note_on_c, 0, 73, 61
2, 45225, Note_on_c, 0, 72, 0
2, 45399, Note_on_c, 0, 68, 50
2, 45585, Note_on_c, 0, 64, 55
2, 45772, Note_on_c, 0, 51, 57
2, 45817, Note_on_c, 0, 49, 0
2, 45959, Note_on_c, 0, 52, 61
2, 45987, Note_on_c, 0, 51, 0
2, 46126, Note_on_c, 0, 54, 74
2, 46133, Note_on_c, 0, 52, 0
2, 46305, Note_on_c, 0, 54, 0
2, 46320, Note_on_c, 0, 56, 71
2, 46494, Note_on_c, 0, 57, 72
2, 46500, Note_on_c, 0, 56, 0
2, 46652, Note_on_c, 0, 64, 0
2, 46698, Note_on_c, 0, 68, 0
2, 46708, Note_on_c, 0, 59, 68
2, 46734, Note_on_c, 0, 76, 0
2, 46740, Note_on_c, 0, 73, 0
2, 46757, Note_on_c, 0, 57, 0
2, 46883, Note_on_c, 0, 74, 75
2, 47077, Note_on_c, 0, 77, 80
2, 47133, Note_on_c, 0, 74, 0
2, 47258, Note_on_c, 0, 80, 83
2, 47284, Note_on_c, 0, 61, 53
2, 47292, Note_on_c, 0, 77, 0
2, 47511, Note_on_c, 0, 83, 75
2, 47533, Note_on_c, 0, 61, 0
2, 47535, Note_on_c, 0, 62, 53
2, 47588, Note_on_c, 0, 80, 0
2, 47591, Note_on_c, 0, 59, 0
2, 47729, Note_on_c, 0, 59, 43
2, 47857, Control_c, 0, 64, 59
2, 47873, Control_c, 0, 64, 64
2, 47888, Control_c, 0, 64, 65
2, 47902, Control_c, 0, 64, 68
2, 47918, Control_c, 0, 64, 74
2, 47919, Note_on_c, 0, 53, 50
2, 47933, Control_c, 0, 64, 93
2, 47949, Control_c, 0, 64, 127
2, 47952, Note_on_c, 0, 59, 0
2, 48032, Note_on_c, 0, 83, 0
2, 48076, Note_on_c, 0, 74, 69
2, 48132, Control_c, 0, 64, 105
2, 48146, Control_c, 0, 64, 92
2, 48162, Control_c, 0, 64, 87
2, 48177, Control_c, 0, 64, 83
2, 48193, Control_c, 0, 64, 78
2, 48207, Control_c, 0, 64, 73
2, 48222, Control_c, 0, 64, 67
2, 48238, Control_c, 0, 64, 64
2, 48253, Control_c, 0, 64, 59
2, 48264, Note_on_c, 0, 56, 57
2, 48264, Note_on_c, 0, 73, 64
2, 48268, Control_c, 0, 64, 53
2, 48272, Note_on_c, 0, 74, 0
2, 48283, Control_c, 0, 64, 38
2, 48298, Control_c, 0, 64, 0
2, 48319, Note_on_c, 0, 62, 0
2, 48432, Note_on_c, 0, 71, 72
2, 48463, Note_on_c, 0, 73, 0
2, 48588, Note_on_c, 0, 71, 0
2, 48615, Note_on_c, 0, 69, 67
2, 48616, Note_on_c, 0, 61, 66
2, 48707, Note_on_c, 0, 56, 0
2, 48775, Note_on_c, 0, 69, 0
2, 48783, Note_on_c, 0, 68, 71
2, 48965, Note_on_c, 0, 68, 0
2, 48974, Note_on_c, 0, 69, 60
2, 49002, Note_on_c, 0, 53, 0
2, 49005, Note_on_c, 0, 54, 55
2, 49035, Note_on_c, 0, 69, 0
2, 49045, Note_on_c, 0, 68, 70
2, 49108, Note_on_c, 0, 69, 70
2, 49133, Note_on_c, 0, 68, 0
2, 49265, Note_on_c, 0, 59, 68
2, 49298, Note_on_c, 0, 61, 0
2, 49444, Note_on_c, 0, 57, 68
2, 49473, Note_on_c, 0, 59, 0
2, 49621, Note_on_c, 0, 56, 66
2, 49626, Note_on_c, 0, 57, 0
2, 49735, Note_on_c, 0, 54, 0
2, 49802, Note_on_c, 0, 57, 76
2, 49818, Note_on_c, 0, 56, 0
2, 49996, Note_on_c, 0, 54, 72
2, 49997, Note_on_c, 0, 57, 0
2, 50245, Note_on_c, 0, 66, 73
2, 50454, Note_on_c, 0, 68, 70
2, 50464, Note_on_c, 0, 69, 0
2, 50611, Note_on_c, 0, 68, 0
2, 50629, Note_on_c, 0, 69, 74
2, 50799, Note_on_c, 0, 64, 62
2, 50801, Note_on_c, 0, 73, 78
2, 50811, Note_on_c, 0, 66, 0
2, 50833, Note_on_c, 0, 69, 0
2, 50994, Note_on_c, 0, 64, 0
2, 51021, Note_on_c, 0, 78, 81
2, 51027, Note_on_c, 0, 63, 55
2, 51149, Note_on_c, 0, 73, 0
2, 51195, Note_on_c, 0, 63, 0
2, 51207, Note_on_c, 0, 61, 55
2, 51384, Note_on_c, 0, 61, 0
2, 51407, Note_on_c, 0, 59, 50
2, 51410, Note_on_c, 0, 56, 49
2, 51452, Note_on_c, 0, 54, 0
2, 51576, Note_on_c, 0, 76, 68
2, 51644, Note_on_c, 0, 78, 0
2, 51747, Note_on_c, 0, 75, 79
2, 51778, Note_on_c, 0, 76, 0
2, 51912, Note_on_c, 0, 59, 0
2, 51921, Note_on_c, 0, 61, 56
2, 51921, Note_on_c, 0, 73, 72
2, 51925, Note_on_c, 0, 57, 50
2, 51959, Note_on_c, 0, 75, 0
2, 51960, Note_on_c, 0, 56, 0
2, 52102, Note_on_c, 0, 71, 69
2, 52108, Note_on_c, 0, 57, 0
2, 52109, Note_on_c, 0, 63, 48
2, 52114, Note_on_c, 0, 73, 0
2, 52117, Note_on_c, 0, 59, 59
2, 52124, Note_on_c, 0, 61, 0
2, 52256, Note_on_c, 0, 69, 63
2, 52259, Control_c, 0, 64, 26
2, 52274, Control_c, 0, 64, 62
2, 52289, Control_c, 0, 64, 66
2, 52304, Control_c, 0, 64, 71
2, 52308, Note_on_c, 0, 71, 0
2, 52320, Control_c, 0, 64, 80
2, 52335, Control_c, 0, 64, 87
2, 52349, Control_c, 0, 64, 87
2, 52373, Note_on_c, 0, 69, 0
2, 52380, Control_c, 0, 64, 88
2, 52396, Control_c, 0, 64, 94
2, 52411, Control_c, 0, 64, 100
2, 52425, Control_c, 0, 64, 103
2, 52449, Control_c, 0, 64, 103
2, 52466, Note_on_c, 0, 69, 54
2, 52472, Note_on_c, 0, 52, 52
2, 52479, Control_c, 0, 64, 101
2, 52494, Control_c, 0, 64, 93
2, 52509, Control_c, 0, 64, 83
2, 52525, Control_c, 0, 64, 76
2, 52540, Control_c, 0, 64, 71
2, 52544, Note_on_c, 0, 68, 69
2, 52555, Control_c, 0, 64, 66
2, 52557, Note_on_c, 0, 69, 0
2, 52570, Control_c, 0, 64, 61
2, 52585, Control_c, 0, 64, 0
2, 52627, Note_on_c, 0, 68, 0
2, 52633, Note_on_c, 0, 66, 76
2, 52808, Note_on_c, 0, 68, 74
2, 52837, Note_on_c, 0, 66, 0
2, 52983, Note_on_c, 0, 71, 68
2, 52990, Note_on_c, 0, 56, 53
2, 53011, Note_on_c, 0, 68, 0
2, 53013, Note_on_c, 0, 63, 0
2, 53024, Note_on_c, 0, 59, 0
2, 53182, Note_on_c, 0, 76, 69
2, 53198, Note_on_c, 0, 56, 0
2, 53206, Note_on_c, 0, 61, 49
2, 53243, Note_on_c, 0, 71, 0
2, 53342, Note_on_c, 0, 61, 0
2, 53380, Note_on_c, 0, 60, 49
2, 53516, Note_on_c, 0, 60, 0
2, 53538, Note_on_c, 0, 61, 59
2, 53583, Note_on_c, 0, 61, 0
2, 53602, Note_on_c, 0, 60, 54
2, 53672, Note_on_c, 0, 60, 0
2, 53676, Note_on_c, 0, 61, 57
2, 53868, Note_on_c, 0, 75, 63
2, 53910, Note_on_c, 0, 76, 0
2, 54048, Note_on_c, 0, 73, 63
2, 54095, Note_on_c, 0, 75, 0
2, 54180, Note_on_c, 0, 52, 0
2, 54209, Note_on_c, 0, 71, 67
2, 54212, Note_on_c, 0, 51, 53
2, 54248, Note_on_c, 0, 73, 0
2, 54372, Note_on_c, 0, 71, 0
2, 54378, Note_on_c, 0, 51, 0
2, 54383, Note_on_c, 0, 69, 70
2, 54405, Note_on_c, 0, 49, 49
2, 54544, Note_on_c, 0, 68, 69
2, 54589, Note_on_c, 0, 69, 0
2, 54667, Note_on_c, 0, 68, 0
2, 54732, Note_on_c, 0, 49, 0
2, 54732, Note_on_c, 0, 51, 54
2, 54735, Note_on_c, 0, 68, 66
2, 54825, Note_on_c, 0, 66, 75
2, 54865, Note_on_c, 0, 68, 0
2, 54913, Note_on_c, 0, 64, 74
2, 54926, Note_on_c, 0, 66, 0
2, 55092, Note_on_c, 0, 66, 77
2, 55143, Note_on_c, 0, 64, 0
2, 55268, Note_on_c, 0, 69, 68
2, 55282, Note_on_c, 0, 60, 51
2, 55285, Note_on_c, 0, 61, 0
2, 55314, Note_on_c, 0, 66, 0
2, 55495, Note_on_c, 0, 75, 73
2, 55503, Note_on_c, 0, 60, 0
2, 55525, Note_on_c, 0, 61, 44
2, 55576, Note_on_c, 0, 69, 0
2, 55705, Note_on_c, 0, 58, 63
2, 55718, Note_on_c, 0, 61, 0
2, 55830, Note_on_c, 0, 58, 0
2, 55859, Note_on_c, 0, 60, 54
2, 55879, Note_on_c, 0, 56, 50
2, 55917, Note_on_c, 0, 60, 0
2, 55929, Note_on_c, 0, 51, 0
2, 55934, Note_on_c, 0, 58, 59
2, 55989, Note_on_c, 0, 60, 45
2, 56042, Note_on_c, 0, 58, 0
2, 56197, Note_on_c, 0, 73, 64
2, 56315, Note_on_c, 0, 75, 0
2, 56387, Note_on_c, 0, 72, 76
2, 56434, Note_on_c, 0, 73, 0
2, 56537, Note_on_c, 0, 60, 0
2, 56538, Note_on_c, 0, 58, 53
2, 56542, Note_on_c, 0, 70, 74
2, 56544, Note_on_c, 0, 61, 56
2, 56562, Note_on_c, 0, 56, 0
2, 56587, Note_on_c, 0, 72, 0
2, 56696, Note_on_c, 0, 58, 0
2, 56709, Note_on_c, 0, 61, 0
2, 56716, Note_on_c, 0, 60, 58
2, 56720, Note_on_c, 0, 68, 73
2, 56721, Note_on_c, 0, 70, 0
2, 56730, Note_on_c, 0, 63, 54
2, 56883, Note_on_c, 0, 66, 79
2, 56916, Note_on_c, 0, 68, 0
2, 57013, Note_on_c, 0, 66, 0
2, 57076, Note_on_c, 0, 66, 69
2, 57086, Note_on_c, 0, 61, 59
2, 57086, Note_on_c, 0, 63, 0
2, 57114, Note_on_c, 0, 60, 0
2, 57154, Note_on_c, 0, 66, 0
2, 57161, Note_on_c, 0, 64, 69
2, 57252, Note_on_c, 0, 63, 70
2, 57280, Note_on_c, 0, 64, 0
2, 57410, Note_on_c, 0, 63, 0
2, 57422, Note_on_c, 0, 64, 68
2, 57608, Note_on_c, 0, 68, 69
2, 57625, Note_on_c, 0, 59, 54
2, 57637, Note_on_c, 0, 64, 0
2, 57812, Note_on_c, 0, 59, 0
2, 57815, Note_on_c, 0, 73, 68
2, 57848, Note_on_c, 0, 68, 0
2, 57855, Note_on_c, 0, 57, 42
2, 58011, Note_on_c, 0, 56, 58
2, 58019, Note_on_c, 0, 57, 0
2, 58223, Note_on_c, 0, 56, 0
2, 58257, Note_on_c, 0, 57, 45
2, 58267, Note_on_c, 0, 54, 35
2, 58477, Note_on_c, 0, 71, 56
2, 58531, Note_on_c, 0, 73, 0
2, 58654, Note_on_c, 0, 69, 66
2, 58724, Note_on_c, 0, 71, 0
2, 58812, Note_on_c, 0, 61, 0
2, 58815, Note_on_c, 0, 57, 0
2, 58818, Note_on_c, 0, 68, 69
2, 58820, Note_on_c, 0, 59, 61
2, 58839, Note_on_c, 0, 69, 0
2, 58989, Note_on_c, 0, 69, 72
2, 58996, Note_on_c, 0, 59, 0
2, 58999, Note_on_c, 0, 61, 70
2, 59087, Note_on_c, 0, 68, 0
2, 59096, Note_on_c, 0, 69, 0
2, 59124, Note_on_c, 0, 66, 74
2, 59287, Note_on_c, 0, 61, 0
2, 59307, Note_on_c, 0, 62, 63
2, 59332, Note_on_c, 0, 78, 75
2, 59334, Note_on_c, 0, 66, 0
2, 59380, Note_on_c, 0, 62, 0
2, 59384, Note_on_c, 0, 61, 77
2, 59451, Note_on_c, 0, 62, 77
2, 59456, Note_on_c, 0, 61, 0
2, 59629, Note_on_c, 0, 76, 70
2, 59678, Note_on_c, 0, 78, 0
2, 59792, Note_on_c, 0, 74, 79
2, 59828, Note_on_c, 0, 76, 0
2, 59954, Note_on_c, 0, 73, 73
2, 59956, Note_on_c, 0, 52, 71
2, 59956, Note_on_c, 0, 54, 0
2, 59983, Note_on_c, 0, 74, 0
2, 60141, Note_on_c, 0, 74, 81
2, 60148, Note_on_c, 0, 54, 68
2, 60169, Note_on_c, 0, 52, 0
2, 60176, Note_on_c, 0, 73, 0
2, 60298, Note_on_c, 0, 74, 0
2, 60316, Note_on_c, 0, 69, 80
2, 60378, Note_on_c, 0, 62, 0
2, 60552, Note_on_c, 0, 81, 83
2, 60561, Note_on_c, 0, 60, 64
2, 60569, Note_on_c, 0, 51, 69
2, 60598, Note_on_c, 0, 54, 0
2, 60740, Note_on_c, 0, 69, 0
2, 60811, Note_on_c, 0, 80, 76
2, 60863, Note_on_c, 0, 81, 0
2, 61001, Note_on_c, 0, 78, 81
2, 61063, Note_on_c, 0, 80, 0
2, 61168, Note_on_c, 0, 76, 81
2, 61172, Note_on_c, 0, 54, 72
2, 61190, Note_on_c, 0, 51, 0
2, 61193, Note_on_c, 0, 78, 0
2, 61350, Note_on_c, 0, 78, 85
2, 61357, Note_on_c, 0, 54, 0
2, 61361, Note_on_c, 0, 57, 71
2, 61371, Note_on_c, 0, 76, 0
2, 61533, Note_on_c, 0, 75, 89
2, 61537, Note_on_c, 0, 60, 0
2, 61548, Note_on_c, 0, 78, 0
2, 61581, Control_c, 0, 64, 44
2, 61597, Control_c, 0, 64, 58
2, 61612, Control_c, 0, 64, 61
2, 61627, Control_c, 0, 64, 63
2, 61643, Control_c, 0, 64, 64
2, 61664, Control_c, 0, 64, 65
2, 61680, Control_c, 0, 64, 66
2, 61695, Control_c, 0, 64, 66
2, 61710, Control_c, 0, 64, 65
2, 61726, Control_c, 0, 64, 65
2, 61740, Control_c, 0, 64, 64
2, 61771, Control_c, 0, 64, 64
2, 61786, Control_c, 0, 64, 63
2, 61802, Control_c, 0, 64, 61
2, 61817, Control_c, 0, 64, 56
2, 61833, Control_c, 0, 64, 48
2, 61839, Note_on_c, 0, 84, 85
2, 61848, Control_c, 0, 64, 17
2, 61863, Control_c, 0, 64, 0
2, 61865, Note_on_c, 0, 66, 66
2, 61942, Note_on_c, 0, 57, 0
2, 62093, Note_on_c, 0, 66, 0
2, 62098, Note_on_c, 0, 56, 62
2, 62265, Note_on_c, 0, 54, 60
2, 62323, Note_on_c, 0, 56, 0
2, 62433, Note_on_c, 0, 52, 53
2, 62449, Note_on_c, 0, 54, 0
2, 62588, Note_on_c, 0, 52, 0
2, 62598, Note_on_c, 0, 54, 53
2, 62600, Note_on_c, 0, 80, 80
2, 62638, Note_on_c, 0, 84, 0
2, 62771, Note_on_c, 0, 51, 54
2, 62887, Note_on_c, 0, 80, 0
2, 62896, Note_on_c, 0, 54, 0
2, 62936, Note_on_c, 0, 51, 0
2, 62942, Note_on_c, 0, 80, 74
2, 62963, Note_on_c, 0, 52, 62
2, 63130, Note_on_c, 0, 51, 64
2, 63161, Note_on_c, 0, 52, 0
2, 63316, Note_on_c, 0, 49, 62
2, 63369, Note_on_c, 0, 51, 0
2, 63468, Note_on_c, 0, 76, 76
2, 63475, Note_on_c, 0, 47, 59
2, 63495, Note_on_c, 0, 75, 0
2, 63499, Note_on_c, 0, 49, 0
2, 63650, Note_on_c, 0, 49, 60
2, 63653, Note_on_c, 0, 76, 0
2, 63654, Note_on_c, 0, 47, 0
2, 63655, Note_on_c, 0, 72, 77
2, 63796, Note_on_c, 0, 49, 0
2, 63797, Note_on_c, 0, 45, 63
2, 63928, Note_on_c, 0, 45, 0
2, 63946, Note_on_c, 0, 57, 69
2, 63955, Note_on_c, 0, 73, 67
2, 63994, Note_on_c, 0, 72, 0
2, 64028, Note_on_c, 0, 57, 0
2, 64034, Note_on_c, 0, 56, 68
2, 64040, Note_on_c, 0, 80, 0
2, 64092, Note_on_c, 0, 57, 64
2, 64097, Note_on_c, 0, 56, 0
2, 64293, Note_on_c, 0, 78, 70
2, 64512, Note_on_c, 0, 76, 72
2, 64542, Note_on_c, 0, 78, 0
2, 64693, Note_on_c, 0, 75, 78
2, 64712, Note_on_c, 0, 76, 0
2, 64875, Note_on_c, 0, 76, 71
2, 64915, Note_on_c, 0, 75, 0
2, 64918, Note_on_c, 0, 73, 0
2, 65046, Note_on_c, 0, 73, 74
2, 65109, Note_on_c, 0, 76, 0
2, 65288, Note_on_c, 0, 78, 76
2, 65477, Note_on_c, 0, 56, 52
2, 65523, Note_on_c, 0, 57, 0
2, 65654, Note_on_c, 0, 54, 57
2, 65672, Note_on_c, 0, 56, 0
2, 65819, Note_on_c, 0, 72, 76
2, 65820, Note_on_c, 0, 52, 53
2, 65835, Note_on_c, 0, 54, 0
2, 65853, Note_on_c, 0, 73, 0
2, 66006, Note_on_c, 0, 52, 0
2, 66007, Note_on_c, 0, 75, 79
2, 66012, Note_on_c, 0, 54, 55
2, 66021, Note_on_c, 0, 72, 0
2, 66182, Note_on_c, 0, 51, 63
2, 66182, Note_on_c, 0, 54, 0
2, 66385, Note_on_c, 0, 60, 61
2, 66387, Note_on_c, 0, 68, 68
2, 66425, Note_on_c, 0, 75, 0
2, 66448, Note_on_c, 0, 60, 0
2, 66452, Note_on_c, 0, 58, 67
2, 66520, Note_on_c, 0, 60, 71
2, 66535, Note_on_c, 0, 58, 0
2, 66546, Note_on_c, 0, 78, 0
2, 66556, Note_on_c, 0, 51, 0
2, 66718, Note_on_c, 0, 76, 70
2, 66913, Note_on_c, 0, 75, 79
2, 66939, Note_on_c, 0, 76, 0
2, 67085, Note_on_c, 0, 73, 79
2, 67112, Note_on_c, 0, 75, 0
2, 67260, Note_on_c, 0, 75, 75
2, 67302, Note_on_c, 0, 73, 0
2, 67330, Note_on_c, 0, 68, 0
2, 67446, Note_on_c, 0, 68, 72
2, 67646, Note_on_c, 0, 60, 0
2, 67655, Note_on_c, 0, 76, 72
2, 67659, Note_on_c, 0, 61, 48
2, 67709, Note_on_c, 0, 75, 0
2, 67818, Note_on_c, 0, 61, 0
2, 67834, Note_on_c, 0, 59, 60
2, 68019, Note_on_c, 0, 57, 63
2, 68020, Note_on_c, 0, 59, 0
2, 68175, Note_on_c, 0, 57, 0
2, 68176, Note_on_c, 0, 56, 55
2, 68179, Note_on_c, 0, 68, 0
2, 68180, Note_on_c, 0, 73, 69
2, 68375, Note_on_c, 0, 66, 64
2, 68378, Note_on_c, 0, 57, 53
2, 68385, Note_on_c, 0, 56, 0
2, 68427, Note_on_c, 0, 73, 0
2, 68559, Note_on_c, 0, 57, 0
2, 68580, Note_on_c, 0, 54, 59
2, 68588, Note_on_c, 0, 68, 68
2, 68607, Note_on_c, 0, 66, 0
2, 68875, Note_on_c, 0, 66, 49
2, 68876, Note_on_c, 0, 69, 62
2, 68878, Note_on_c, 0, 68, 0
2, 69033, Note_on_c, 0, 54, 0
2, 69089, Note_on_c, 0, 76, 0
2, 69090, Note_on_c, 0, 75, 74
2, 69280, Note_on_c, 0, 76, 74
2, 69289, Note_on_c, 0, 75, 0
2, 69474, Note_on_c, 0, 78, 85
2, 69499, Note_on_c, 0, 76, 0
2, 69651, Note_on_c, 0, 80, 83
2, 69675, Note_on_c, 0, 78, 0
2, 69858, Note_on_c, 0, 81, 90
2, 69886, Note_on_c, 0, 69, 0
2, 69887, Note_on_c, 0, 80, 0
2, 69983, Control_c, 0, 64, 44
2, 69999, Control_c, 0, 64, 60
2, 70013, Control_c, 0, 64, 63
2, 70028, Control_c, 0, 64, 63
2, 70075, Control_c, 0, 64, 64
2, 70114, Note_on_c, 0, 81, 0
2, 70132, Note_on_c, 0, 73, 78
2, 70139, Note_on_c, 0, 68, 78
2, 70143, Control_c, 0, 64, 63
2, 70159, Control_c, 0, 64, 63
2, 70174, Control_c, 0, 64, 62
2, 70188, Control_c, 0, 64, 60
2, 70204, Control_c, 0, 64, 56
2, 70219, Control_c, 0, 64, 49
2, 70235, Control_c, 0, 64, 17
2, 70249, Control_c, 0, 64, 0
2, 70472, Note_on_c, 0, 73, 0
2, 70490, Note_on_c, 0, 72, 66
2, 70491, Note_on_c, 0, 64, 50
2, 70536, Note_on_c, 0, 66, 0
2, 70546, Note_on_c, 0, 73, 75
2, 70550, Note_on_c, 0, 72, 0
2, 70598, Note_on_c, 0, 73, 0
2, 70605, Note_on_c, 0, 72, 67
2, 70641, Note_on_c, 0, 73, 76
2, 70645, Note_on_c, 0, 72, 0
2, 70698, Note_on_c, 0, 72, 75
2, 70710, Note_on_c, 0, 73, 0
2, 70735, Note_on_c, 0, 63, 54
2, 70755, Note_on_c, 0, 64, 0
2, 70907, Note_on_c, 0, 73, 81
2, 70925, Note_on_c, 0, 72, 0
2, 70949, Note_on_c, 0, 61, 59
2, 71016, Note_on_c, 0, 63, 0
2, 71062, Note_on_c, 0, 61, 0
2, 71075, Note_on_c, 0, 75, 83
2, 71093, Note_on_c, 0, 60, 60
2, 71112, Note_on_c, 0, 73, 0
2, 71226, Note_on_c, 0, 68, 0
2, 71239, Note_on_c, 0, 60, 0
2, 71240, Note_on_c, 0, 58, 64
2, 71274, Note_on_c, 0, 75, 0
2, 71345, Note_on_c, 0, 60, 69
2, 71386, Note_on_c, 0, 63, 76
2, 71445, Note_on_c, 0, 56, 59
2, 71447, Note_on_c, 0, 66, 79
2, 71462, Note_on_c, 0, 58, 0
2, 71625, Note_on_c, 0, 54, 56
2, 71691, Note_on_c, 0, 56, 0
2, 71781, Note_on_c, 0, 54, 0
2, 71800, Note_on_c, 0, 52, 63
2, 71975, Note_on_c, 0, 51, 71
2, 72007, Note_on_c, 0, 52, 0
2, 72168, Note_on_c, 0, 49, 68
2, 72212, Note_on_c, 0, 51, 0
2, 72362, Note_on_c, 0, 47, 70
2, 72385, Note_on_c, 0, 49, 0
2, 72564, Note_on_c, 0, 45, 70
2, 72570, Note_on_c, 0, 47, 0
2, 72758, Note_on_c, 0, 63, 0
2, 72759, Note_on_c, 0, 64, 60
2, 72808, Note_on_c, 0, 60, 0
2, 72811, Note_on_c, 0, 66, 0
2, 72930, Note_on_c, 0, 63, 72
2, 72954, Note_on_c, 0, 64, 0
2, 73059, Note_on_c, 0, 45, 0
2, 73072, Note_on_c, 0, 47, 66
2, 73083, Note_on_c, 0, 61, 74
2, 73099, Note_on_c, 0, 63, 0
2, 73264, Note_on_c, 0, 44, 75
2, 73268, Note_on_c, 0, 63, 70
2, 73293, Note_on_c, 0, 47, 0
2, 73301, Note_on_c, 0, 61, 0
2, 73452, Note_on_c, 0, 60, 73
2, 73486, Note_on_c, 0, 63, 0
2, 73648, Note_on_c, 0, 69, 71
2, 73661, Note_on_c, 0, 42, 70
2, 73691, Note_on_c, 0, 44, 0
2, 73694, Note_on_c, 0, 60, 0
2, 73844, Note_on_c, 0, 68, 73
2, 73889, Note_on_c, 0, 69, 0
2, 74011, Note_on_c, 0, 66, 77
2, 74079, Note_on_c, 0, 68, 0
2, 74162, Note_on_c, 0, 42, 0
2, 74170, Note_on_c, 0, 44, 70
2, 74178, Note_on_c, 0, 64, 77
2, 74201, Note_on_c, 0, 66, 0
2, 74353, Note_on_c, 0, 40, 77
2, 74366, Note_on_c, 0, 66, 80
2, 74384, Note_on_c, 0, 64, 0
2, 74393, Note_on_c, 0, 44, 0
2, 74526, Note_on_c, 0, 66, 0
2, 74534, Note_on_c, 0, 63, 79
2, 74746, Note_on_c, 0, 39, 73
2, 74747, Note_on_c, 0, 72, 77
2, 74748, Note_on_c, 0, 63, 0
2, 74789, Note_on_c, 0, 40, 0
2, 74945, Note_on_c, 0, 69, 78
2, 75001, Note_on_c, 0, 72, 0
2, 75101, Note_on_c, 0, 68, 74
2, 75143, Note_on_c, 0, 69, 0
2, 75270, Note_on_c, 0, 66, 80
2, 75274, Note_on_c, 0, 40, 68
2, 75302, Note_on_c, 0, 68, 0
2, 75370, Note_on_c, 0, 39, 0
2, 75448, Note_on_c, 0, 68, 76
2, 75458, Note_on_c, 0, 42, 76
2, 75468, Note_on_c, 0, 40, 0
2, 75474, Note_on_c, 0, 66, 0
2, 75643, Note_on_c, 0, 63, 78
2, 75646, Note_on_c, 0, 68, 0
2, 75890, Note_on_c, 0, 75, 85
2, 75893, Note_on_c, 0, 36, 73
2, 75937, Note_on_c, 0, 63, 0
2, 75946, Note_on_c, 0, 42, 0
2, 76127, Note_on_c, 0, 73, 79
2, 76186, Note_on_c, 0, 75, 0
2, 76321, Note_on_c, 0, 72, 79
2, 76367, Note_on_c, 0, 73, 0
2, 76489, Note_on_c, 0, 70, 77
2, 76514, Note_on_c, 0, 39, 67
2, 76528, Note_on_c, 0, 72, 0
2, 76671, Note_on_c, 0, 36, 0
2, 76697, Note_on_c, 0, 42, 69
2, 76697, Note_on_c, 0, 72, 85
2, 76711, Note_on_c, 0, 39, 0
2, 76729, Note_on_c, 0, 70, 0
2, 76859, Note_on_c, 0, 72, 0
2, 76874, Note_on_c, 0, 68, 82
2, 77120, Note_on_c, 0, 80, 81
2, 77131, Note_on_c, 0, 40, 63
2, 77162, Note_on_c, 0, 42, 0
2, 77169, Note_on_c, 0, 68, 0
2, 77357, Note_on_c, 0, 52, 70
2, 77363, Note_on_c, 0, 40, 0
2, 77537, Note_on_c, 0, 54, 68
2, 77538, Note_on_c, 0, 78, 77
2, 77558, Note_on_c, 0, 52, 0
2, 77636, Note_on_c, 0, 80, 0
2, 77702, Note_on_c, 0, 76, 75
2, 77704, Note_on_c, 0, 56, 67
2, 77720, Note_on_c, 0, 78, 0
2, 77746, Note_on_c, 0, 54, 0
2, 77881, Note_on_c, 0, 56, 0
2, 77887, Note_on_c, 0, 75, 77
2, 77890, Note_on_c, 0, 57, 76
2, 77914, Note_on_c, 0, 76, 0
2, 78052, Note_on_c, 0, 54, 68
2, 78054, Note_on_c, 0, 73, 77
2, 78076, Note_on_c, 0, 57, 0
2, 78108, Note_on_c, 0, 75, 0
2, 78222, Note_on_c, 0, 72, 79
2, 78233, Note_on_c, 0, 51, 64
2, 78256, Note_on_c, 0, 54, 0
2, 78257, Note_on_c, 0, 73, 0
2, 78400, Note_on_c, 0, 73, 75
2, 78406, Note_on_c, 0, 52, 70
2, 78429, Note_on_c, 0, 51, 0
2, 78439, Note_on_c, 0, 72, 0
2, 78553, Note_on_c, 0, 52, 0
2, 78578, Note_on_c, 0, 75, 79
2, 78585, Note_on_c, 0, 54, 67
2, 78621, Note_on_c, 0, 73, 0
2, 78751, Note_on_c, 0, 51, 61
2, 78761, Note_on_c, 0, 78, 78
2, 78788, Note_on_c, 0, 54, 0
2, 78830, Note_on_c, 0, 75, 0
2, 78971, Note_on_c, 0, 48, 47
2, 78975, Note_on_c, 0, 69, 66
2, 79002, Note_on_c, 0, 51, 0
2, 79036, Note_on_c, 0, 78, 0
2, 79139, Note_on_c, 0, 49, 67
2, 79149, Note_on_c, 0, 48, 0
2, 79319, Note_on_c, 0, 49, 0
2, 79336, Note_on_c, 0, 51, 66
2, 79491, Note_on_c, 0, 48, 61
2, 79494, Note_on_c, 0, 69, 0
2, 79500, Note_on_c, 0, 68, 67
2, 79510, Note_on_c, 0, 51, 0
2, 79676, Note_on_c, 0, 44, 59
2, 79679, Note_on_c, 0, 69, 73
2, 79680, Note_on_c, 0, 68, 0
2, 79681, Note_on_c, 0, 48, 0
2, 79841, Note_on_c, 0, 46, 66
2, 79847, Note_on_c, 0, 69, 0
2, 79852, Note_on_c, 0, 66, 78
2, 79876, Control_c, 0, 64, 58
2, 79892, Control_c, 0, 64, 69
2, 79898, Note_on_c, 0, 44, 0
2, 79907, Control_c, 0, 64, 83
2, 79917, Note_on_c, 0, 66, 0
2, 79923, Control_c, 0, 64, 127
2, 80069, Note_on_c, 0, 81, 92
2, 80082, Note_on_c, 0, 48, 51
2, 80113, Control_c, 0, 64, 86
2, 80128, Control_c, 0, 64, 65
2, 80140, Note_on_c, 0, 46, 0
2, 80142, Control_c, 0, 64, 0
2, 80259, Note_on_c, 0, 48, 0
2, 80266, Note_on_c, 0, 49, 63
2, 80466, Note_on_c, 0, 51, 63
2, 80560, Note_on_c, 0, 49, 0
2, 80643, Note_on_c, 0, 51, 0
2, 80652, Note_on_c, 0, 52, 63
2, 80820, Note_on_c, 0, 54, 59
2, 80821, Note_on_c, 0, 80, 79
2, 80824, Note_on_c, 0, 52, 0
2, 80865, Note_on_c, 0, 81, 0
2, 81017, Note_on_c, 0, 78, 78
2, 81023, Note_on_c, 0, 56, 69
2, 81047, Note_on_c, 0, 54, 0
2, 81088, Note_on_c, 0, 80, 0
2, 81193, Note_on_c, 0, 58, 69
2, 81201, Note_on_c, 0, 76, 78
2, 81211, Note_on_c, 0, 78, 0
2, 81226, Note_on_c, 0, 56, 0
2, 81358, Note_on_c, 0, 58, 0
2, 81366, Note_on_c, 0, 60, 64
2, 81368, Note_on_c, 0, 75, 85
2, 81386, Note_on_c, 0, 76, 0
2, 81553, Note_on_c, 0, 76, 73
2, 81568, Note_on_c, 0, 60, 0
2, 81570, Note_on_c, 0, 61, 64
2, 81596, Note_on_c, 0, 75, 0
2, 81747, Note_on_c, 0, 61, 0
2, 81747, Note_on_c, 0, 75, 66
2, 81760, Note_on_c, 0, 59, 67
2, 81925, Note_on_c, 0, 57, 73
2, 81927, Note_on_c, 0, 73, 76
2, 81937, Note_on_c, 0, 59, 0
2, 81947, Note_on_c, 0, 75, 0
2, 82097, Note_on_c, 0, 56, 69
2, 82097, Note_on_c, 0, 57, 0
2, 82103, Note_on_c, 0, 72, 79
2, 82111, Note_on_c, 0, 73, 0
2, 82278, Note_on_c, 0, 57, 67
2, 82281, Note_on_c, 0, 73, 79
2, 82283, Note_on_c, 0, 56, 0
2, 82291, Note_on_c, 0, 76, 0
2, 82323, Note_on_c, 0, 72, 0
2, 82475, Note_on_c, 0, 54, 61
2, 82476, Note_on_c, 0, 57, 0
2, 82476, Note_on_c, 0, 81, 82
2, 82507, Note_on_c, 0, 73, 0
2, 82610, Note_on_c, 0, 73, 65
2, 82793, Note_on_c, 0, 76, 79
2, 82797, Note_on_c, 0, 56, 57
2, 82799, Note_on_c, 0, 81, 0
2, 82802, Note_on_c, 0, 54, 0
2, 83488, Control_c, 0, 64, 39
2, 83503, Control_c, 0, 64, 51
2, 83548, Control_c, 0, 64, 52
2, 83564, Control_c, 0, 64, 54
2, 83579, Control_c, 0, 64, 55
2, 83585, Note_on_c, 0, 78, 73
2, 83608, Note_on_c, 0, 76, 0
2, 83641, Control_c, 0, 64, 56
2, 83655, Control_c, 0, 64, 59
2, 83670, Control_c, 0, 64, 62
2, 83686, Control_c, 0, 64, 63
2, 83700, Control_c, 0, 64, 64
2, 83716, Control_c, 0, 64, 64
2, 83746, Control_c, 0, 64, 65
2, 83762, Control_c, 0, 64, 67
2, 83776, Control_c, 0, 64, 71
2, 83787, Note_on_c, 0, 73, 0
2, 83791, Control_c, 0, 64, 79
2, 83807, Control_c, 0, 64, 88
2, 83822, Control_c, 0, 64, 91
2, 83867, Control_c, 0, 64, 90
2, 83878, Note_on_c, 0, 76, 59
2, 83883, Control_c, 0, 64, 89
2, 83883, Note_on_c, 0, 72, 62
2, 83898, Control_c, 0, 64, 86
2, 83900, Note_on_c, 0, 44, 52
2, 83913, Control_c, 0, 64, 82
2, 83928, Control_c, 0, 64, 76
2, 83937, Note_on_c, 0, 78, 0
2, 83951, Control_c, 0, 64, 71
2, 83967, Control_c, 0, 64, 65
2, 83982, Control_c, 0, 64, 40
2, 83984, Note_on_c, 0, 75, 67
2, 83998, Control_c, 0, 64, 0
2, 84013, Note_on_c, 0, 76, 0
2, 84069, Note_on_c, 0, 75, 0
2, 84075, Note_on_c, 0, 73, 66
2, 84163, Note_on_c, 0, 75, 73
2, 84208, Note_on_c, 0, 73, 0
2, 84916, Note_on_c, 0, 73, 69
2, 84917, Note_on_c, 0, 72, 0
2, 84926, Note_on_c, 0, 46, 54
2, 84934, Note_on_c, 0, 75, 0
2, 84935, Note_on_c, 0, 44, 0
2, 85066, Note_on_c, 0, 56, 0
2, 85210, Note_on_c, 0, 56, 47
2, 85212, Note_on_c, 0, 71, 56
2, 85393, Note_on_c, 0, 56, 0
2, 85414, Note_on_c, 0, 70, 69
2, 85422, Note_on_c, 0, 55, 56
2, 85447, Note_on_c, 0, 71, 0
2, 85575, Note_on_c, 0, 55, 0
2, 85582, Note_on_c, 0, 56, 62
2, 85600, Note_on_c, 0, 68, 76
2, 85633, Note_on_c, 0, 70, 0
2, 85764, Note_on_c, 0, 58, 54
2, 85771, Note_on_c, 0, 56, 0
2, 85780, Note_on_c, 0, 67, 73
2, 85787, Note_on_c, 0, 68, 0
2, 85927, Note_on_c, 0, 68, 69
2, 85934, Note_on_c, 0, 51, 59
2, 85951, Note_on_c, 0, 67, 0
2, 86022, Note_on_c, 0, 58, 0
2, 86061, Note_on_c, 0, 68, 0
2, 86136, Note_on_c, 0, 68, 62
2, 86138, Note_on_c, 0, 51, 0
2, 86148, Note_on_c, 0, 52, 47
2, 86365, Note_on_c, 0, 67, 54
2, 86381, Note_on_c, 0, 68, 0
2, 86755, Note_on_c, 0, 76, 63
2, 86774, Note_on_c, 0, 47, 49
2, 86797, Note_on_c, 0, 73, 0
2, 86809, Note_on_c, 0, 46, 0
2, 86947, Note_on_c, 0, 75, 73
2, 86958, Note_on_c, 0, 47, 0
2, 86964, Note_on_c, 0, 49, 54
2, 86996, Note_on_c, 0, 76, 0
2, 87383, Note_on_c, 0, 76, 59
2, 87384, Note_on_c, 0, 43, 48
2, 87387, Note_on_c, 0, 67, 0
2, 87414, Note_on_c, 0, 49, 0
2, 87424, Note_on_c, 0, 75, 0
2, 87575, Note_on_c, 0, 52, 0
2, 87585, Note_on_c, 0, 51, 39
2, 87590, Note_on_c, 0, 68, 55
2, 87628, Note_on_c, 0, 68, 0
2, 87737, Note_on_c, 0, 51, 0
2, 87751, Note_on_c, 0, 70, 60
2, 87755, Note_on_c, 0, 49, 52
2, 87924, Note_on_c, 0, 49, 0
2, 87926, Note_on_c, 0, 47, 60
2, 87930, Note_on_c, 0, 68, 64
2, 87965, Note_on_c, 0, 70, 0
2, 87966, Note_on_c, 0, 68, 0
2, 88110, Note_on_c, 0, 71, 65
2, 88117, Note_on_c, 0, 49, 61
2, 88126, Note_on_c, 0, 47, 0
2, 88296, Note_on_c, 0, 70, 66
2, 88314, Note_on_c, 0, 52, 55
2, 88315, Note_on_c, 0, 71, 0
2, 88321, Note_on_c, 0, 49, 0
2, 88360, Note_on_c, 0, 70, 0
2, 88568, Note_on_c, 0, 70, 55
2, 88584, Note_on_c, 0, 55, 48
2, 88597, Note_on_c, 0, 52, 0
2, 89241, Note_on_c, 0, 44, 57
2, 89244, Note_on_c, 0, 72, 73
2, 89260, Note_on_c, 0, 43, 0
2, 89482, Note_on_c, 0, 73, 80
2, 89486, Note_on_c, 0, 44, 0
2, 89487, Note_on_c, 0, 46, 68
2, 89496, Note_on_c, 0, 72, 0
2, 89651, Note_on_c, 0, 55, 0
2, 89661, Control_c, 0, 64, 55
2, 89676, Control_c, 0, 64, 70
2, 89677, Note_on_c, 0, 76, 0
2, 89691, Control_c, 0, 64, 119
2, 89706, Control_c, 0, 64, 127
2, 89978, Note_on_c, 0, 79, 87
2, 89982, Note_on_c, 0, 39, 69
2, 90057, Control_c, 0, 64, 81
2, 90066, Note_on_c, 0, 46, 0
2, 90073, Control_c, 0, 64, 64
2, 90095, Control_c, 0, 64, 0
2, 90244, Note_on_c, 0, 75, 68
2, 90421, Note_on_c, 0, 76, 62
2, 90435, Note_on_c, 0, 73, 0
2, 90440, Note_on_c, 0, 75, 0
2, 90503, Note_on_c, 0, 70, 0
2, 90605, Note_on_c, 0, 75, 74
2, 90663, Note_on_c, 0, 76, 0
2, 90778, Note_on_c, 0, 73, 68
2, 90883, Note_on_c, 0, 75, 0
2, 90957, Note_on_c, 0, 71, 73
2, 90973, Note_on_c, 0, 73, 0
2, 91007, Note_on_c, 0, 39, 0
2, 91131, Note_on_c, 0, 70, 74
2, 91156, Note_on_c, 0, 71, 0
2, 91311, Note_on_c, 0, 68, 64
2, 91473, Note_on_c, 0, 70, 0
2, 91478, Note_on_c, 0, 67, 69
2, 91501, Note_on_c, 0, 68, 0
2, 91663, Note_on_c, 0, 65, 69
2, 91674, Note_on_c, 0, 67, 0
2, 91829, Note_on_c, 0, 65, 0
2, 91855, Note_on_c, 0, 72, 69
2, 91855, Note_on_c, 0, 80, 84
2, 91858, Note_on_c, 0, 66, 54
2, 91905, Note_on_c, 0, 79, 0
2, 92025, Control_c, 0, 64, 65
2, 92041, Control_c, 0, 64, 79
2, 92046, Note_on_c, 0, 80, 0
2, 92052, Note_on_c, 0, 72, 0
2, 92056, Control_c, 0, 64, 127
2, 92056, Note_on_c, 0, 63, 67
2, 92079, Note_on_c, 0, 66, 0
2, 92295, Note_on_c, 0, 63, 0
2, 92295, Note_on_c, 0, 73, 77
2, 92300, Note_on_c, 0, 64, 66
2, 92331, Control_c, 0, 64, 119
2, 92346, Control_c, 0, 64, 77
2, 92361, Control_c, 0, 64, 63
2, 92384, Control_c, 0, 64, 0
2, 92492, Note_on_c, 0, 63, 65
2, 92502, Note_on_c, 0, 71, 66
2, 92669, Note_on_c, 0, 61, 71
2, 92669, Note_on_c, 0, 69, 67
2, 92686, Note_on_c, 0, 63, 0
2, 92711, Note_on_c, 0, 64, 0
2, 92711, Note_on_c, 0, 71, 0
2, 92842, Note_on_c, 0, 61, 0
2, 92845, Note_on_c, 0, 68, 74
2, 92851, Note_on_c, 0, 59, 69
2, 92866, Note_on_c, 0, 69, 0
2, 93031, Note_on_c, 0, 66, 76
2, 93033, Note_on_c, 0, 57, 61
2, 93049, Note_on_c, 0, 68, 0
2, 93059, Note_on_c, 0, 59, 0
2, 93222, Note_on_c, 0, 69, 71
2, 93231, Note_on_c, 0, 54, 66
2, 93240, Note_on_c, 0, 57, 0
2, 93242, Note_on_c, 0, 66, 0
2, 93423, Note_on_c, 0, 54, 0
2, 93429, Note_on_c, 0, 64, 63
2, 93439, Note_on_c, 0, 56, 62
2, 93448, Note_on_c, 0, 69, 0
2, 93620, Note_on_c, 0, 51, 59
2, 93657, Note_on_c, 0, 56, 0
2, 93821, Note_on_c, 0, 51, 0
2, 93829, Note_on_c, 0, 52, 60
2, 94051, Note_on_c, 0, 75, 75
2, 94058, Note_on_c, 0, 66, 61
2, 94071, Note_on_c, 0, 52, 0
2, 94076, Note_on_c, 0, 49, 47
2, 94082, Note_on_c, 0, 64, 0
2, 94095, Note_on_c, 0, 73, 0
2, 94354, Note_on_c, 0, 72, 70
2, 94369, Note_on_c, 0, 63, 36
2, 94371, Note_on_c, 0, 66, 0
2, 94376, Note_on_c, 0, 44, 45
2, 94395, Note_on_c, 0, 75, 0
2, 94397, Note_on_c, 0, 49, 0
2, 94670, Note_on_c, 0, 66, 65
2, 94671, Note_on_c, 0, 56, 45
2, 94767, Control_c, 0, 64, 44
2, 94781, Control_c, 0, 64, 62
2, 94797, Control_c, 0, 64, 64
2, 94812, Control_c, 0, 64, 67
2, 94827, Control_c, 0, 64, 81
2, 94840, Note_on_c, 0, 63, 0
2, 94842, Control_c, 0, 64, 127
2, 95016, Note_on_c, 0, 73, 73
2, 95028, Note_on_c, 0, 61, 51
2, 95037, Note_on_c, 0, 49, 48
2, 95040, Control_c, 0, 64, 96
2, 95049, Note_on_c, 0, 72, 0
2, 95055, Control_c, 0, 64, 74
2, 95071, Control_c, 0, 64, 64
2, 95086, Control_c, 0, 64, 0
2, 95092, Note_on_c, 0, 44, 0
2, 95286, Note_on_c, 0, 68, 68
2, 95354, Note_on_c, 0, 66, 0
2, 95559, Note_on_c, 0, 69, 57
2, 95577, Note_on_c, 0, 54, 44
2, 95580, Note_on_c, 0, 68, 0
2, 95598, Note_on_c, 0, 56, 0
2, 95845, Note_on_c, 0, 66, 53
2, 95902, Note_on_c, 0, 69, 0
2, 95915, Control_c, 0, 64, 42
2, 95930, Control_c, 0, 64, 62
2, 95944, Control_c, 0, 64, 65
2, 95960, Control_c, 0, 64, 69
2, 95973, Note_on_c, 0, 61, 0
2, 95975, Control_c, 0, 64, 75
2, 95990, Control_c, 0, 64, 79
2, 96005, Control_c, 0, 64, 82
2, 96020, Control_c, 0, 64, 86
2, 96036, Control_c, 0, 64, 94
2, 96051, Control_c, 0, 64, 112
2, 96066, Control_c, 0, 64, 127
2, 96141, Control_c, 0, 64, 122
2, 96157, Control_c, 0, 64, 107
2, 96171, Note_on_c, 0, 63, 49
2, 96172, Control_c, 0, 64, 96
2, 96188, Control_c, 0, 64, 86
2, 96197, Note_on_c, 0, 57, 40
2, 96202, Control_c, 0, 64, 78
2, 96226, Control_c, 0, 64, 70
2, 96241, Control_c, 0, 64, 63
2, 96256, Control_c, 0, 64, 0
2, 96282, Note_on_c, 0, 54, 0
2, 96562, Note_on_c, 0, 72, 64
2, 96621, Note_on_c, 0, 73, 0
2, 96713, Control_c, 0, 64, 33
2, 96728, Control_c, 0, 64, 57
2, 96743, Control_c, 0, 64, 62
2, 96759, Control_c, 0, 64, 65
2, 96774, Control_c, 0, 64, 69
2, 96789, Control_c, 0, 64, 77
2, 96804, Control_c, 0, 64, 96
2, 96819, Control_c, 0, 64, 127
2, 96828, Note_on_c, 0, 63, 0
2, 96973, Note_on_c, 0, 72, 0
2, 97193, Control_c, 0, 64, 113
2, 97195, Note_on_c, 0, 73, 47
2, 97202, Note_on_c, 0, 65, 40
2, 97208, Control_c, 0, 64, 93
2, 97208, Note_on_c, 0, 68, 49
2, 97212, Note_on_c, 0, 66, 0
2, 97222, Control_c, 0, 64, 83
2, 97226, Note_on_c, 0, 56, 35
2, 97238, Control_c, 0, 64, 75
2, 97253, Control_c, 0, 64, 69
2, 97269, Control_c, 0, 64, 64
2, 97283, Control_c, 0, 64, 56
2, 97298, Control_c, 0, 64, 26
2, 97314, Control_c, 0, 64, 0
2, 97399, Note_on_c, 0, 57, 0
2, 99999, Note_on_c, 0, 56, 0
2, 100011, Note_on_c, 0, 65, 0
2, 100023, Note_on_c, 0, 73, 0
2, 100033, Note_on_c, 0, 68, 0
2, 100038, Note_on_c, 0, 49, 0
2, 100948,End_track
0, 0, End_of_file
