0, 0, Header, 1, 2, 384
1, 0, Start_track
1, 0, Tempo, 500000
1, 0, Time_signature, 4, 2, 24, 8
1, 1, End_track
2, 0, Start_track
2, 0, Title_t," ""7.7.13 Group 1"""
2, 0, Program_c, 0, 0
2, 0, Control_c, 0, 64, 0
2, 0, Control_c, 0, 66, 0
2, 0, Control_c, 0, 67, 0
2, 790, Note_on_c, 0, 77, 66
2, 800, Note_on_c, 0, 49, 45
2, 870, Note_on_c, 0, 77, 0
2, 888, Note_on_c, 0, 73, 63
2, 965, Note_on_c, 0, 73, 0
2, 975, Note_on_c, 0, 68, 68
2, 1026, Note_on_c, 0, 68, 0
2, 1049, Note_on_c, 0, 73, 75
2, 1063, Note_on_c, 0, 49, 0
2, 1116, Note_on_c, 0, 73, 0
2, 1133, Note_on_c, 0, 77, 70
2, 1162, Note_on_c, 0, 61, 57
2, 1199, Note_on_c, 0, 77, 0
2, 1228, Note_on_c, 0, 73, 77
2, 1279, Note_on_c, 0, 73, 0
2, 1298, Note_on_c, 0, 61, 0
2, 1313, Note_on_c, 0, 78, 77
2, 1323, Note_on_c, 0, 51, 54
2, 1367, Note_on_c, 0, 78, 0
2, 1397, Note_on_c, 0, 73, 70
2, 1454, Note_on_c, 0, 73, 0
2, 1482, Note_on_c, 0, 78, 72
2, 1544, Note_on_c, 0, 78, 0
2, 1568, Note_on_c, 0, 73, 69
2, 1624, Note_on_c, 0, 73, 0
2, 1651, Note_on_c, 0, 51, 0
2, 1653, Note_on_c, 0, 78, 74
2, 1668, Note_on_c, 0, 61, 50
2, 1719, Note_on_c, 0, 78, 0
2, 1728, Note_on_c, 0, 61, 0
2, 1735, Note_on_c, 0, 73, 75
2, 1800, Note_on_c, 0, 73, 0
2, 1825, Note_on_c, 0, 80, 79
2, 1835, Note_on_c, 0, 53, 50
2, 1894, Note_on_c, 0, 80, 0
2, 1922, Note_on_c, 0, 73, 78
2, 1992, Note_on_c, 0, 73, 0
2, 2007, Note_on_c, 0, 80, 86
2, 2063, Note_on_c, 0, 80, 0
2, 2095, Note_on_c, 0, 73, 83
2, 2167, Note_on_c, 0, 73, 0
2, 2172, Note_on_c, 0, 53, 0
2, 2179, Note_on_c, 0, 80, 82
2, 2200, Note_on_c, 0, 61, 59
2, 2228, Note_on_c, 0, 80, 0
2, 2243, Note_on_c, 0, 61, 0
2, 2264, Note_on_c, 0, 73, 85
2, 2334, Note_on_c, 0, 73, 0
2, 2356, Note_on_c, 0, 54, 61
2, 2356, Note_on_c, 0, 82, 87
2, 2386, Note_on_c, 0, 80, 43
2, 2411, Note_on_c, 0, 80, 0
2, 2427, Note_on_c, 0, 82, 0
2, 2445, Note_on_c, 0, 73, 77
2, 2515, Note_on_c, 0, 73, 0
2, 2527, Note_on_c, 0, 82, 83
2, 2584, Note_on_c, 0, 82, 0
2, 2617, Note_on_c, 0, 73, 78
2, 2636, Note_on_c, 0, 54, 0
2, 2679, Note_on_c, 0, 73, 0
2, 2707, Note_on_c, 0, 82, 77
2, 2744, Note_on_c, 0, 61, 44
2, 2763, Note_on_c, 0, 82, 0
2, 2797, Note_on_c, 0, 73, 64
2, 2826, Note_on_c, 0, 61, 0
2, 2840, Note_on_c, 0, 73, 0
2, 2875, Note_on_c, 0, 80, 73
2, 2889, Note_on_c, 0, 53, 48
2, 2934, Note_on_c, 0, 80, 0
2, 2970, Note_on_c, 0, 73, 62
2, 3034, Note_on_c, 0, 73, 0
2, 3053, Note_on_c, 0, 80, 71
2, 3097, Note_on_c, 0, 80, 0
2, 3140, Note_on_c, 0, 73, 69
2, 3148, Note_on_c, 0, 53, 0
2, 3187, Note_on_c, 0, 73, 0
2, 3218, Note_on_c, 0, 80, 72
2, 3226, Note_on_c, 0, 61, 51
2, 3267, Note_on_c, 0, 61, 0
2, 3280, Note_on_c, 0, 80, 0
2, 3303, Note_on_c, 0, 73, 67
2, 3371, Note_on_c, 0, 73, 0
2, 3383, Note_on_c, 0, 51, 54
2, 3399, Note_on_c, 0, 78, 67
2, 3465, Note_on_c, 0, 78, 0
2, 3487, Note_on_c, 0, 77, 70
2, 3554, Note_on_c, 0, 77, 0
2, 3573, Note_on_c, 0, 75, 81
2, 3630, Note_on_c, 0, 75, 0
2, 3642, Note_on_c, 0, 77, 85
2, 3652, Note_on_c, 0, 51, 0
2, 3732, Note_on_c, 0, 78, 83
2, 3735, Note_on_c, 0, 60, 58
2, 3741, Note_on_c, 0, 77, 0
2, 3779, Note_on_c, 0, 60, 0
2, 3794, Note_on_c, 0, 78, 0
2, 3810, Note_on_c, 0, 75, 81
2, 3870, Note_on_c, 0, 75, 0
2, 3900, Note_on_c, 0, 77, 71
2, 3904, Note_on_c, 0, 49, 54
2, 3994, Note_on_c, 0, 75, 71
2, 4014, Note_on_c, 0, 77, 0
2, 4066, Note_on_c, 0, 73, 80
2, 4075, Note_on_c, 0, 75, 0
2, 4085, Note_on_c, 0, 49, 0
2, 4148, Note_on_c, 0, 75, 79
2, 4169, Note_on_c, 0, 73, 0
2, 4251, Note_on_c, 0, 77, 75
2, 4262, Note_on_c, 0, 75, 0
2, 4264, Note_on_c, 0, 61, 78
2, 4331, Note_on_c, 0, 73, 78
2, 4349, Note_on_c, 0, 77, 0
2, 4422, Note_on_c, 0, 75, 81
2, 4481, Note_on_c, 0, 73, 0
2, 4512, Note_on_c, 0, 77, 82
2, 4521, Note_on_c, 0, 75, 0
2, 4594, Note_on_c, 0, 61, 0
2, 4600, Note_on_c, 0, 75, 83
2, 4610, Note_on_c, 0, 60, 73
2, 4622, Note_on_c, 0, 77, 0
2, 4658, Note_on_c, 0, 75, 0
2, 4678, Note_on_c, 0, 73, 84
2, 4695, Note_on_c, 0, 58, 75
2, 4697, Note_on_c, 0, 60, 0
2, 4743, Note_on_c, 0, 73, 0
2, 4765, Note_on_c, 0, 58, 0
2, 4768, Note_on_c, 0, 72, 72
2, 4775, Note_on_c, 0, 56, 70
2, 4814, Note_on_c, 0, 72, 0
2, 4850, Note_on_c, 0, 70, 78
2, 4860, Note_on_c, 0, 56, 0
2, 4865, Note_on_c, 0, 58, 72
2, 4906, Note_on_c, 0, 70, 0
2, 4907, Note_on_c, 0, 58, 0
2, 4943, Note_on_c, 0, 68, 69
2, 4949, Note_on_c, 0, 60, 65
2, 5009, Note_on_c, 0, 60, 0
2, 5049, Note_on_c, 0, 56, 65
2, 5058, Note_on_c, 0, 68, 0
2, 5058, Note_on_c, 0, 68, 8
2, 5109, Note_on_c, 0, 56, 0
2, 5135, Note_on_c, 0, 51, 61
2, 5153, Note_on_c, 0, 68, 0
2, 5209, Note_on_c, 0, 51, 0
2, 5219, Note_on_c, 0, 56, 64
2, 5257, Note_on_c, 0, 56, 0
2, 5290, Note_on_c, 0, 80, 63
2, 5297, Note_on_c, 0, 60, 63
2, 5331, Note_on_c, 0, 80, 0
2, 5335, Note_on_c, 0, 60, 0
2, 5370, Note_on_c, 0, 56, 68
2, 5441, Note_on_c, 0, 56, 0
2, 5457, Note_on_c, 0, 70, 64
2, 5464, Note_on_c, 0, 61, 66
2, 5513, Note_on_c, 0, 61, 0
2, 5554, Note_on_c, 0, 56, 61
2, 5622, Note_on_c, 0, 56, 0
2, 5630, Note_on_c, 0, 61, 67
2, 5682, Note_on_c, 0, 61, 0
2, 5693, Note_on_c, 0, 70, 0
2, 5712, Note_on_c, 0, 56, 71
2, 5789, Note_on_c, 0, 56, 0
2, 5800, Note_on_c, 0, 61, 76
2, 5811, Note_on_c, 0, 80, 73
2, 5858, Note_on_c, 0, 61, 0
2, 5873, Note_on_c, 0, 80, 0
2, 5888, Note_on_c, 0, 56, 75
2, 5959, Note_on_c, 0, 56, 0
2, 5982, Note_on_c, 0, 63, 78
2, 5987, Note_on_c, 0, 72, 80
2, 6038, Note_on_c, 0, 63, 0
2, 6072, Note_on_c, 0, 56, 75
2, 6149, Note_on_c, 0, 56, 0
2, 6162, Note_on_c, 0, 63, 76
2, 6213, Note_on_c, 0, 72, 0
2, 6227, Note_on_c, 0, 63, 0
2, 6248, Note_on_c, 0, 56, 80
2, 6317, Note_on_c, 0, 56, 0
2, 6327, Note_on_c, 0, 80, 78
2, 6329, Note_on_c, 0, 63, 83
2, 6382, Note_on_c, 0, 63, 0
2, 6393, Note_on_c, 0, 80, 0
2, 6417, Note_on_c, 0, 56, 79
2, 6481, Note_on_c, 0, 56, 0
2, 6502, Note_on_c, 0, 73, 88
2, 6515, Note_on_c, 0, 65, 75
2, 6590, Note_on_c, 0, 65, 0
2, 6605, Note_on_c, 0, 56, 71
2, 6663, Note_on_c, 0, 56, 0
2, 6697, Note_on_c, 0, 65, 69
2, 6741, Note_on_c, 0, 65, 0
2, 6774, Note_on_c, 0, 73, 0
2, 6776, Note_on_c, 0, 56, 67
2, 6819, Note_on_c, 0, 56, 0
2, 6853, Note_on_c, 0, 80, 69
2, 6855, Note_on_c, 0, 65, 66
2, 6895, Note_on_c, 0, 80, 0
2, 6905, Note_on_c, 0, 65, 0
2, 6941, Note_on_c, 0, 56, 65
2, 7016, Note_on_c, 0, 56, 0
2, 7029, Note_on_c, 0, 72, 66
2, 7044, Note_on_c, 0, 63, 58
2, 7084, Note_on_c, 0, 63, 0
2, 7122, Note_on_c, 0, 56, 66
2, 7164, Note_on_c, 0, 56, 0
2, 7199, Note_on_c, 0, 63, 66
2, 7229, Note_on_c, 0, 72, 0
2, 7260, Note_on_c, 0, 63, 0
2, 7277, Note_on_c, 0, 56, 67
2, 7342, Note_on_c, 0, 56, 0
2, 7369, Note_on_c, 0, 80, 71
2, 7370, Note_on_c, 0, 63, 73
2, 7413, Note_on_c, 0, 63, 0
2, 7425, Note_on_c, 0, 80, 0
2, 7451, Note_on_c, 0, 56, 71
2, 7527, Note_on_c, 0, 56, 0
2, 7540, Note_on_c, 0, 61, 69
2, 7544, Note_on_c, 0, 70, 69
2, 7594, Note_on_c, 0, 61, 0
2, 7636, Note_on_c, 0, 60, 65
2, 7719, Note_on_c, 0, 58, 78
2, 7721, Note_on_c, 0, 60, 0
2, 7736, Note_on_c, 0, 70, 0
2, 7783, Note_on_c, 0, 58, 0
2, 7802, Note_on_c, 0, 60, 79
2, 7873, Note_on_c, 0, 60, 0
2, 7887, Note_on_c, 0, 61, 80
2, 7887, Note_on_c, 0, 79, 81
2, 7938, Note_on_c, 0, 79, 0
2, 7942, Note_on_c, 0, 61, 0
2, 7972, Note_on_c, 0, 58, 74
2, 8038, Note_on_c, 0, 58, 0
2, 8074, Note_on_c, 0, 68, 72
2, 8082, Note_on_c, 0, 60, 66
2, 8126, Note_on_c, 0, 60, 0
2, 8163, Note_on_c, 0, 58, 66
2, 8180, Note_on_c, 0, 68, 0
2, 8245, Note_on_c, 0, 58, 0
2, 8249, Note_on_c, 0, 56, 73
2, 8320, Note_on_c, 0, 56, 0
2, 8332, Note_on_c, 0, 58, 83
2, 8398, Note_on_c, 0, 58, 0
2, 8433, Note_on_c, 0, 60, 71
2, 8442, Note_on_c, 0, 80, 82
2, 8500, Note_on_c, 0, 60, 0
2, 8529, Note_on_c, 0, 56, 68
2, 8615, Note_on_c, 0, 58, 74
2, 8617, Note_on_c, 0, 56, 0
2, 8690, Note_on_c, 0, 58, 0
2, 8707, Note_on_c, 0, 59, 67
2, 8788, Note_on_c, 0, 59, 0
2, 8795, Note_on_c, 0, 58, 76
2, 8809, Note_on_c, 0, 78, 74
2, 8841, Note_on_c, 0, 80, 0
2, 8893, Note_on_c, 0, 56, 73
2, 8895, Note_on_c, 0, 58, 0
2, 8895, Note_on_c, 0, 77, 80
2, 8907, Note_on_c, 0, 78, 0
2, 8968, Note_on_c, 0, 56, 0
2, 8975, Note_on_c, 0, 54, 68
2, 8978, Note_on_c, 0, 77, 0
2, 8987, Note_on_c, 0, 75, 77
2, 9019, Note_on_c, 0, 54, 0
2, 9059, Note_on_c, 0, 53, 63
2, 9069, Note_on_c, 0, 77, 78
2, 9076, Note_on_c, 0, 75, 0
2, 9105, Note_on_c, 0, 53, 0
2, 9146, Note_on_c, 0, 77, 0
2, 9150, Note_on_c, 0, 78, 73
2, 9155, Note_on_c, 0, 51, 63
2, 9219, Note_on_c, 0, 78, 0
2, 9238, Note_on_c, 0, 75, 68
2, 9285, Note_on_c, 0, 75, 0
2, 9324, Note_on_c, 0, 70, 64
2, 9366, Note_on_c, 0, 70, 0
2, 9369, Note_on_c, 0, 51, 0
2, 9400, Note_on_c, 0, 75, 69
2, 9477, Note_on_c, 0, 75, 0
2, 9490, Note_on_c, 0, 78, 70
2, 9521, Note_on_c, 0, 63, 47
2, 9532, Note_on_c, 0, 78, 0
2, 9568, Note_on_c, 0, 63, 0
2, 9604, Note_on_c, 0, 75, 55
2, 9647, Note_on_c, 0, 75, 0
2, 9655, Note_on_c, 0, 53, 49
2, 9679, Note_on_c, 0, 80, 66
2, 9736, Note_on_c, 0, 80, 0
2, 9764, Note_on_c, 0, 75, 61
2, 9819, Note_on_c, 0, 75, 0
2, 9850, Note_on_c, 0, 80, 71
2, 9908, Note_on_c, 0, 80, 0
2, 9926, Note_on_c, 0, 75, 76
2, 9935, Note_on_c, 0, 53, 0
2, 9993, Note_on_c, 0, 75, 0
2, 10017, Note_on_c, 0, 80, 80
2, 10030, Note_on_c, 0, 63, 48
2, 10079, Note_on_c, 0, 80, 0
2, 10094, Note_on_c, 0, 75, 80
2, 10097, Note_on_c, 0, 63, 0
2, 10161, Note_on_c, 0, 75, 0
2, 10185, Note_on_c, 0, 82, 83
2, 10196, Note_on_c, 0, 54, 55
2, 10254, Note_on_c, 0, 82, 0
2, 10270, Note_on_c, 0, 75, 77
2, 10339, Note_on_c, 0, 75, 0
2, 10357, Note_on_c, 0, 82, 88
2, 10432, Note_on_c, 0, 82, 0
2, 10450, Note_on_c, 0, 75, 83
2, 10496, Note_on_c, 0, 54, 0
2, 10525, Note_on_c, 0, 75, 0
2, 10536, Note_on_c, 0, 82, 87
2, 10556, Note_on_c, 0, 63, 61
2, 10601, Note_on_c, 0, 63, 0
2, 10603, Note_on_c, 0, 82, 0
2, 10622, Note_on_c, 0, 75, 83
2, 10687, Note_on_c, 0, 75, 0
2, 10712, Note_on_c, 0, 83, 79
2, 10718, Note_on_c, 0, 56, 72
2, 10742, Note_on_c, 0, 82, 27
2, 10743, Note_on_c, 0, 82, 0
2, 10786, Note_on_c, 0, 83, 0
2, 10792, Note_on_c, 0, 75, 74
2, 10873, Note_on_c, 0, 75, 0
2, 10895, Note_on_c, 0, 83, 77
2, 10950, Note_on_c, 0, 83, 0
2, 10974, Note_on_c, 0, 75, 73
2, 10997, Note_on_c, 0, 56, 0
2, 11035, Note_on_c, 0, 75, 0
2, 11064, Note_on_c, 0, 83, 76
2, 11077, Note_on_c, 0, 63, 45
2, 11109, Note_on_c, 0, 63, 0
2, 11122, Note_on_c, 0, 83, 0
2, 11160, Note_on_c, 0, 75, 67
2, 11213, Note_on_c, 0, 75, 0
2, 11233, Note_on_c, 0, 54, 61
2, 11248, Note_on_c, 0, 82, 69
2, 11303, Note_on_c, 0, 82, 0
2, 11330, Note_on_c, 0, 75, 65
2, 11397, Note_on_c, 0, 75, 0
2, 11419, Note_on_c, 0, 82, 71
2, 11469, Note_on_c, 0, 82, 0
2, 11503, Note_on_c, 0, 54, 0
2, 11503, Note_on_c, 0, 75, 73
2, 11559, Note_on_c, 0, 75, 0
2, 11582, Note_on_c, 0, 82, 72
2, 11603, Note_on_c, 0, 63, 52
2, 11645, Note_on_c, 0, 82, 0
2, 11656, Note_on_c, 0, 63, 0
2, 11673, Note_on_c, 0, 75, 67
2, 11739, Note_on_c, 0, 75, 0
2, 11769, Note_on_c, 0, 53, 55
2, 11769, Note_on_c, 0, 80, 62
2, 11834, Note_on_c, 0, 80, 0
2, 11855, Note_on_c, 0, 78, 69
2, 11917, Note_on_c, 0, 78, 0
2, 11941, Note_on_c, 0, 77, 75
2, 11993, Note_on_c, 0, 77, 0
2, 12018, Note_on_c, 0, 78, 79
2, 12028, Note_on_c, 0, 53, 0
2, 12105, Note_on_c, 0, 80, 77
2, 12115, Note_on_c, 0, 62, 55
2, 12115, Note_on_c, 0, 78, 0
2, 12160, Note_on_c, 0, 62, 0
2, 12176, Note_on_c, 0, 80, 0
2, 12196, Note_on_c, 0, 77, 71
2, 12244, Note_on_c, 0, 77, 0
2, 12283, Note_on_c, 0, 78, 70
2, 12286, Note_on_c, 0, 51, 54
2, 12362, Note_on_c, 0, 78, 0
2, 12375, Note_on_c, 0, 77, 56
2, 12451, Note_on_c, 0, 75, 77
2, 12458, Note_on_c, 0, 77, 0
2, 12483, Note_on_c, 0, 51, 0
2, 12538, Note_on_c, 0, 77, 73
2, 12562, Note_on_c, 0, 75, 0
2, 12625, Note_on_c, 0, 78, 81
2, 12633, Note_on_c, 0, 63, 79
2, 12647, Note_on_c, 0, 77, 0
2, 12725, Note_on_c, 0, 75, 76
2, 12741, Note_on_c, 0, 78, 0
2, 12810, Note_on_c, 0, 77, 80
2, 12896, Note_on_c, 0, 75, 0
2, 12897, Note_on_c, 0, 78, 81
2, 12912, Note_on_c, 0, 77, 0
2, 12986, Note_on_c, 0, 77, 82
2, 12996, Note_on_c, 0, 63, 0
2, 12999, Note_on_c, 0, 78, 0
2, 13002, Note_on_c, 0, 61, 75
2, 13059, Note_on_c, 0, 77, 0
2, 13076, Note_on_c, 0, 75, 84
2, 13087, Note_on_c, 0, 60, 73
2, 13095, Note_on_c, 0, 61, 0
2, 13142, Note_on_c, 0, 75, 0
2, 13157, Note_on_c, 0, 73, 77
2, 13161, Note_on_c, 0, 60, 0
2, 13164, Note_on_c, 0, 58, 74
2, 13209, Note_on_c, 0, 73, 0
2, 13235, Note_on_c, 0, 58, 0
2, 13237, Note_on_c, 0, 72, 75
2, 13246, Note_on_c, 0, 60, 70
2, 13286, Note_on_c, 0, 60, 0
2, 13298, Note_on_c, 0, 72, 0
2, 13329, Note_on_c, 0, 61, 73
2, 13336, Note_on_c, 0, 70, 75
2, 13394, Note_on_c, 0, 61, 0
2, 13420, Note_on_c, 0, 58, 66
2, 13499, Note_on_c, 0, 58, 0
2, 13522, Note_on_c, 0, 53, 63
2, 13557, Note_on_c, 0, 70, 0
2, 13589, Note_on_c, 0, 53, 0
2, 13603, Note_on_c, 0, 58, 66
2, 13651, Note_on_c, 0, 58, 0
2, 13683, Note_on_c, 0, 61, 68
2, 13702, Note_on_c, 0, 82, 65
2, 13724, Note_on_c, 0, 61, 0
2, 13739, Note_on_c, 0, 82, 0
2, 13764, Note_on_c, 0, 58, 69
2, 13841, Note_on_c, 0, 58, 0
2, 13870, Note_on_c, 0, 63, 64
2, 13877, Note_on_c, 0, 72, 66
2, 13912, Note_on_c, 0, 63, 0
2, 13960, Note_on_c, 0, 58, 62
2, 14039, Note_on_c, 0, 58, 0
2, 14048, Note_on_c, 0, 63, 65
2, 14112, Note_on_c, 0, 63, 0
2, 14134, Note_on_c, 0, 72, 0
2, 14149, Note_on_c, 0, 58, 66
2, 14214, Note_on_c, 0, 58, 0
2, 14231, Note_on_c, 0, 82, 72
2, 14237, Note_on_c, 0, 63, 68
2, 14282, Note_on_c, 0, 63, 0
2, 14299, Note_on_c, 0, 82, 0
2, 14326, Note_on_c, 0, 58, 70
2, 14390, Note_on_c, 0, 58, 0
2, 14418, Note_on_c, 0, 65, 66
2, 14423, Note_on_c, 0, 73, 82
2, 14486, Note_on_c, 0, 65, 0
2, 14504, Note_on_c, 0, 58, 69
2, 14571, Note_on_c, 0, 58, 0
2, 14592, Note_on_c, 0, 65, 75
2, 14658, Note_on_c, 0, 65, 0
2, 14676, Note_on_c, 0, 58, 74
2, 14700, Note_on_c, 0, 73, 0
2, 14739, Note_on_c, 0, 58, 0
2, 14756, Note_on_c, 0, 65, 77
2, 14776, Note_on_c, 0, 82, 83
2, 14820, Note_on_c, 0, 65, 0
2, 14843, Note_on_c, 0, 58, 76
2, 14851, Note_on_c, 0, 82, 0
2, 14932, Note_on_c, 0, 58, 0
2, 14941, Note_on_c, 0, 75, 88
2, 14946, Note_on_c, 0, 66, 82
2, 15029, Note_on_c, 0, 66, 0
2, 15039, Note_on_c, 0, 58, 78
2, 15119, Note_on_c, 0, 58, 0
2, 15131, Note_on_c, 0, 66, 83
2, 15196, Note_on_c, 0, 66, 0
2, 15218, Note_on_c, 0, 58, 76
2, 15269, Note_on_c, 0, 75, 0
2, 15295, Note_on_c, 0, 82, 66
2, 15301, Note_on_c, 0, 58, 0
2, 15305, Note_on_c, 0, 66, 78
2, 15339, Note_on_c, 0, 82, 0
2, 15360, Note_on_c, 0, 66, 0
2, 15400, Note_on_c, 0, 58, 70
2, 15455, Note_on_c, 0, 58, 0
2, 15477, Note_on_c, 0, 73, 73
2, 15490, Note_on_c, 0, 65, 65
2, 15543, Note_on_c, 0, 65, 0
2, 15572, Note_on_c, 0, 58, 69
2, 15635, Note_on_c, 0, 58, 0
2, 15662, Note_on_c, 0, 65, 68
2, 15698, Note_on_c, 0, 73, 0
2, 15714, Note_on_c, 0, 65, 0
2, 15761, Note_on_c, 0, 58, 67
2, 15799, Note_on_c, 0, 58, 0
2, 15835, Note_on_c, 0, 82, 59
2, 15839, Note_on_c, 0, 65, 67
2, 15877, Note_on_c, 0, 65, 0
2, 15881, Note_on_c, 0, 82, 0
2, 15912, Note_on_c, 0, 58, 60
2, 16016, Note_on_c, 0, 63, 65
2, 16019, Note_on_c, 0, 72, 63
2, 16036, Note_on_c, 0, 58, 0
2, 16076, Note_on_c, 0, 63, 0
2, 16101, Note_on_c, 0, 61, 66
2, 16186, Note_on_c, 0, 60, 70
2, 16194, Note_on_c, 0, 61, 0
2, 16206, Note_on_c, 0, 72, 0
2, 16263, Note_on_c, 0, 60, 0
2, 16274, Note_on_c, 0, 61, 75
2, 16337, Note_on_c, 0, 61, 0
2, 16346, Note_on_c, 0, 63, 71
2, 16353, Note_on_c, 0, 81, 70
2, 16392, Note_on_c, 0, 81, 0
2, 16405, Note_on_c, 0, 63, 0
2, 16450, Note_on_c, 0, 60, 55
2, 16495, Note_on_c, 0, 60, 0
2, 16529, Note_on_c, 0, 70, 62
2, 16533, Note_on_c, 0, 61, 64
2, 16622, Note_on_c, 0, 61, 0
2, 16625, Note_on_c, 0, 60, 70
2, 16670, Note_on_c, 0, 70, 0
2, 16696, Note_on_c, 0, 60, 0
2, 16708, Note_on_c, 0, 58, 78
2, 16796, Note_on_c, 0, 60, 78
2, 16834, Note_on_c, 0, 58, 0
2, 16896, Note_on_c, 0, 60, 0
2, 16898, Note_on_c, 0, 61, 80
2, 16902, Note_on_c, 0, 82, 86
2, 16987, Note_on_c, 0, 61, 0
2, 16998, Note_on_c, 0, 58, 77
2, 17100, Note_on_c, 0, 64, 81
2, 17104, Note_on_c, 0, 58, 0
2, 17158, Note_on_c, 0, 64, 0
2, 17185, Note_on_c, 0, 62, 82
2, 17260, Note_on_c, 0, 62, 0
2, 17270, Note_on_c, 0, 60, 81
2, 17275, Note_on_c, 0, 80, 81
2, 17300, Note_on_c, 0, 82, 0
2, 17349, Note_on_c, 0, 80, 0
2, 17362, Note_on_c, 0, 62, 78
2, 17373, Note_on_c, 0, 60, 0
2, 17432, Note_on_c, 0, 62, 0
2, 17452, Note_on_c, 0, 64, 81
2, 17457, Note_on_c, 0, 79, 84
2, 17500, Note_on_c, 0, 79, 0
2, 17515, Note_on_c, 0, 64, 0
2, 17540, Note_on_c, 0, 60, 77
2, 17605, Note_on_c, 0, 60, 0
2, 17624, Note_on_c, 0, 80, 82
2, 17633, Note_on_c, 0, 65, 79
2, 17680, Note_on_c, 0, 80, 0
2, 17683, Note_on_c, 0, 65, 0
2, 17718, Note_on_c, 0, 64, 80
2, 17786, Note_on_c, 0, 64, 0
2, 17799, Note_on_c, 0, 68, 83
2, 17807, Note_on_c, 0, 65, 74
2, 17843, Note_on_c, 0, 68, 0
2, 17867, Note_on_c, 0, 65, 0
2, 17889, Note_on_c, 0, 67, 75
2, 17949, Note_on_c, 0, 67, 0
2, 17978, Note_on_c, 0, 65, 72
2, 17988, Note_on_c, 0, 80, 81
2, 18036, Note_on_c, 0, 65, 0
2, 18074, Note_on_c, 0, 63, 71
2, 18141, Note_on_c, 0, 63, 0
2, 18177, Note_on_c, 0, 62, 65
2, 18217, Note_on_c, 0, 62, 0
2, 18259, Note_on_c, 0, 60, 66
2, 18333, Note_on_c, 0, 60, 0
2, 18337, Note_on_c, 0, 58, 69
2, 18341, Note_on_c, 0, 78, 71
2, 18352, Note_on_c, 0, 80, 0
2, 18406, Note_on_c, 0, 78, 0
2, 18413, Note_on_c, 0, 58, 0
2, 18436, Note_on_c, 0, 60, 70
2, 18486, Note_on_c, 0, 60, 0
2, 18516, Note_on_c, 0, 62, 76
2, 18524, Note_on_c, 0, 77, 61
2, 18563, Note_on_c, 0, 62, 0
2, 18581, Note_on_c, 0, 77, 0
2, 18604, Note_on_c, 0, 58, 75
2, 18667, Note_on_c, 0, 58, 0
2, 18691, Note_on_c, 0, 78, 70
2, 18697, Note_on_c, 0, 63, 70
2, 18727, Note_on_c, 0, 63, 0
2, 18793, Note_on_c, 0, 77, 68
2, 18803, Note_on_c, 0, 78, 0
2, 18882, Note_on_c, 0, 51, 59
2, 18884, Note_on_c, 0, 77, 0
2, 18891, Note_on_c, 0, 75, 71
2, 18908, Note_on_c, 0, 51, 0
2, 18986, Note_on_c, 0, 77, 66
2, 19014, Note_on_c, 0, 75, 0
2, 19068, Note_on_c, 0, 63, 70
2, 19070, Note_on_c, 0, 78, 73
2, 19079, Note_on_c, 0, 77, 0
2, 19139, Note_on_c, 0, 78, 0
2, 19146, Note_on_c, 0, 75, 71
2, 19217, Note_on_c, 0, 75, 0
2, 19244, Note_on_c, 0, 81, 76
2, 19330, Note_on_c, 0, 79, 83
2, 19343, Note_on_c, 0, 81, 0
2, 19381, Note_on_c, 0, 63, 0
2, 19409, Note_on_c, 0, 77, 84
2, 19412, Note_on_c, 0, 79, 0
2, 19440, Note_on_c, 0, 61, 79
2, 19494, Note_on_c, 0, 61, 0
2, 19498, Note_on_c, 0, 79, 85
2, 19527, Note_on_c, 0, 77, 0
2, 19575, Note_on_c, 0, 81, 80
2, 19592, Note_on_c, 0, 79, 0
2, 19600, Note_on_c, 0, 60, 85
2, 19637, Note_on_c, 0, 60, 0
2, 19650, Note_on_c, 0, 81, 0
2, 19675, Note_on_c, 0, 77, 76
2, 19753, Note_on_c, 0, 77, 0
2, 19768, Note_on_c, 0, 82, 81
2, 19771, Note_on_c, 0, 61, 88
2, 19816, Note_on_c, 0, 61, 0
2, 19847, Note_on_c, 0, 81, 80
2, 19854, Note_on_c, 0, 82, 0
2, 19943, Note_on_c, 0, 82, 83
2, 19945, Note_on_c, 0, 49, 82
2, 19981, Note_on_c, 0, 49, 0
2, 19987, Note_on_c, 0, 81, 0
2, 20036, Note_on_c, 0, 84, 75
2, 20040, Note_on_c, 0, 82, 0
2, 20135, Note_on_c, 0, 82, 81
2, 20143, Note_on_c, 0, 61, 89
2, 20165, Note_on_c, 0, 84, 0
2, 20223, Note_on_c, 0, 80, 77
2, 20236, Note_on_c, 0, 82, 0
2, 20317, Note_on_c, 0, 79, 76
2, 20317, Note_on_c, 0, 80, 0
2, 20380, Note_on_c, 0, 79, 0
2, 20414, Note_on_c, 0, 77, 79
2, 20470, Note_on_c, 0, 61, 0
2, 20495, Note_on_c, 0, 77, 0
2, 20510, Note_on_c, 0, 76, 68
2, 20514, Note_on_c, 0, 60, 75
2, 20550, Note_on_c, 0, 60, 0
2, 20585, Note_on_c, 0, 77, 82
2, 20593, Note_on_c, 0, 76, 0
2, 20673, Note_on_c, 0, 79, 79
2, 20677, Note_on_c, 0, 77, 0
2, 20683, Note_on_c, 0, 58, 68
2, 20721, Note_on_c, 0, 58, 0
2, 20749, Note_on_c, 0, 79, 0
2, 20763, Note_on_c, 0, 75, 77
2, 20855, Note_on_c, 0, 60, 64
2, 20859, Note_on_c, 0, 80, 77
2, 20868, Note_on_c, 0, 75, 0
2, 20897, Note_on_c, 0, 60, 0
2, 20910, Note_on_c, 0, 80, 0
2, 20936, Note_on_c, 0, 58, 67
2, 21012, Note_on_c, 0, 58, 0
2, 21034, Note_on_c, 0, 56, 65
2, 21034, Note_on_c, 0, 68, 76
2, 21068, Note_on_c, 0, 68, 0
2, 21125, Note_on_c, 0, 58, 71
2, 21134, Note_on_c, 0, 56, 0
2, 21221, Note_on_c, 0, 60, 71
2, 21222, Note_on_c, 0, 58, 0
2, 21223, Note_on_c, 0, 80, 82
2, 21276, Note_on_c, 0, 60, 0
2, 21313, Note_on_c, 0, 56, 73
2, 21400, Note_on_c, 0, 56, 0
2, 21403, Note_on_c, 0, 62, 74
2, 21470, Note_on_c, 0, 62, 0
2, 21490, Note_on_c, 0, 60, 78
2, 21563, Note_on_c, 0, 60, 0
2, 21574, Note_on_c, 0, 58, 76
2, 21585, Note_on_c, 0, 78, 84
2, 21594, Note_on_c, 0, 80, 0
2, 21650, Note_on_c, 0, 78, 0
2, 21676, Note_on_c, 0, 60, 79
2, 21687, Note_on_c, 0, 58, 0
2, 21750, Note_on_c, 0, 60, 0
2, 21762, Note_on_c, 0, 77, 87
2, 21767, Note_on_c, 0, 62, 69
2, 21817, Note_on_c, 0, 77, 0
2, 21830, Note_on_c, 0, 58, 75
2, 21835, Note_on_c, 0, 62, 0
2, 21940, Note_on_c, 0, 58, 0
2, 21940, Note_on_c, 0, 78, 84
2, 21948, Note_on_c, 0, 63, 80
2, 22000, Note_on_c, 0, 78, 0
2, 22039, Note_on_c, 0, 62, 78
2, 22060, Note_on_c, 0, 63, 0
2, 22096, Note_on_c, 0, 62, 0
2, 22109, Note_on_c, 0, 63, 72
2, 22119, Note_on_c, 0, 66, 84
2, 22173, Note_on_c, 0, 66, 0
2, 22181, Note_on_c, 0, 63, 0
2, 22204, Note_on_c, 0, 65, 78
2, 22265, Note_on_c, 0, 65, 0
2, 22295, Note_on_c, 0, 63, 77
2, 22311, Note_on_c, 0, 78, 81
2, 22390, Note_on_c, 0, 63, 0
2, 22397, Note_on_c, 0, 61, 73
2, 22456, Note_on_c, 0, 61, 0
2, 22497, Note_on_c, 0, 60, 71
2, 22547, Note_on_c, 0, 60, 0
2, 22582, Note_on_c, 0, 58, 73
2, 22673, Note_on_c, 0, 56, 75
2, 22675, Note_on_c, 0, 58, 0
2, 22681, Note_on_c, 0, 77, 70
2, 22697, Note_on_c, 0, 78, 0
2, 22717, Note_on_c, 0, 77, 0
2, 22761, Note_on_c, 0, 56, 0
2, 22767, Note_on_c, 0, 58, 78
2, 22827, Note_on_c, 0, 58, 0
2, 22846, Note_on_c, 0, 60, 72
2, 22853, Note_on_c, 0, 75, 63
2, 22890, Note_on_c, 0, 60, 0
2, 22926, Note_on_c, 0, 75, 0
2, 22934, Note_on_c, 0, 56, 72
2, 22990, Note_on_c, 0, 56, 0
2, 23039, Note_on_c, 0, 61, 67
2, 23041, Note_on_c, 0, 77, 67
2, 23071, Note_on_c, 0, 61, 0
2, 23142, Note_on_c, 0, 77, 0
2, 23143, Note_on_c, 0, 75, 58
2, 23201, Note_on_c, 0, 49, 70
2, 23217, Note_on_c, 0, 75, 0
2, 23218, Note_on_c, 0, 73, 70
2, 23254, Note_on_c, 0, 49, 0
2, 23339, Note_on_c, 0, 75, 55
2, 23383, Note_on_c, 0, 73, 0
2, 23390, Note_on_c, 0, 61, 80
2, 23396, Note_on_c, 0, 75, 0
2, 23409, Note_on_c, 0, 77, 69
2, 23516, Note_on_c, 0, 77, 0
2, 23519, Note_on_c, 0, 73, 76
2, 23589, Note_on_c, 0, 73, 0
2, 23616, Note_on_c, 0, 79, 78
2, 23701, Note_on_c, 0, 77, 86
2, 23715, Note_on_c, 0, 61, 0
2, 23722, Note_on_c, 0, 79, 0
2, 23789, Note_on_c, 0, 59, 81
2, 23789, Note_on_c, 0, 75, 87
2, 23799, Note_on_c, 0, 77, 0
2, 23834, Note_on_c, 0, 59, 0
2, 23885, Note_on_c, 0, 77, 84
2, 23888, Note_on_c, 0, 75, 0
2, 23960, Note_on_c, 0, 58, 85
2, 23963, Note_on_c, 0, 79, 80
2, 23966, Note_on_c, 0, 77, 0
2, 24008, Note_on_c, 0, 58, 0
2, 24022, Note_on_c, 0, 79, 0
2, 24060, Note_on_c, 0, 75, 76
2, 24129, Note_on_c, 0, 59, 85
2, 24136, Note_on_c, 0, 75, 0
2, 24150, Note_on_c, 0, 80, 81
2, 24167, Note_on_c, 0, 59, 0
2, 24239, Note_on_c, 0, 79, 80
2, 24243, Note_on_c, 0, 80, 0
2, 24332, Note_on_c, 0, 47, 78
2, 24333, Note_on_c, 0, 80, 84
2, 24363, Note_on_c, 0, 47, 0
2, 24363, Note_on_c, 0, 79, 0
2, 24411, Note_on_c, 0, 80, 0
2, 24411, Note_on_c, 0, 82, 77
2, 24508, Note_on_c, 0, 59, 90
2, 24513, Note_on_c, 0, 80, 81
2, 24544, Note_on_c, 0, 82, 0
2, 24601, Note_on_c, 0, 78, 78
2, 24604, Note_on_c, 0, 80, 0
2, 24687, Note_on_c, 0, 78, 0
2, 24693, Note_on_c, 0, 77, 78
2, 24760, Note_on_c, 0, 77, 0
2, 24785, Note_on_c, 0, 75, 79
2, 24837, Note_on_c, 0, 59, 0
2, 24856, Note_on_c, 0, 58, 75
2, 24868, Note_on_c, 0, 75, 0
2, 24870, Note_on_c, 0, 73, 77
2, 24886, Note_on_c, 0, 58, 0
2, 24965, Note_on_c, 0, 75, 81
2, 24994, Note_on_c, 0, 73, 0
2, 25042, Note_on_c, 0, 56, 72
2, 25043, Note_on_c, 0, 75, 0
2, 25043, Note_on_c, 0, 77, 75
2, 25079, Note_on_c, 0, 56, 0
2, 25111, Note_on_c, 0, 77, 0
2, 25118, Note_on_c, 0, 73, 78
2, 25184, Note_on_c, 0, 73, 0
2, 25221, Note_on_c, 0, 66, 69
2, 25224, Note_on_c, 0, 58, 57
2, 25271, Note_on_c, 0, 58, 0
2, 25299, Note_on_c, 0, 54, 61
2, 25350, Note_on_c, 0, 54, 0
2, 25390, Note_on_c, 0, 49, 59
2, 25454, Note_on_c, 0, 66, 0
2, 25465, Note_on_c, 0, 49, 0
2, 25479, Note_on_c, 0, 54, 57
2, 25524, Note_on_c, 0, 54, 0
2, 25563, Note_on_c, 0, 58, 55
2, 25582, Note_on_c, 0, 78, 64
2, 25602, Note_on_c, 0, 58, 0
2, 25617, Note_on_c, 0, 78, 0
2, 25653, Note_on_c, 0, 54, 57
2, 25709, Note_on_c, 0, 54, 0
2, 25750, Note_on_c, 0, 68, 61
2, 25772, Note_on_c, 0, 59, 51
2, 25810, Note_on_c, 0, 59, 0
2, 25853, Note_on_c, 0, 54, 60
2, 25918, Note_on_c, 0, 54, 0
2, 25951, Note_on_c, 0, 59, 62
2, 26001, Note_on_c, 0, 59, 0
2, 26031, Note_on_c, 0, 54, 73
2, 26036, Note_on_c, 0, 68, 0
2, 26098, Note_on_c, 0, 54, 0
2, 26117, Note_on_c, 0, 59, 76
2, 26145, Note_on_c, 0, 78, 70
2, 26166, Note_on_c, 0, 59, 0
2, 26199, Note_on_c, 0, 78, 0
2, 26200, Note_on_c, 0, 54, 78
2, 26285, Note_on_c, 0, 54, 0
2, 26298, Note_on_c, 0, 61, 85
2, 26303, Note_on_c, 0, 70, 79
2, 26379, Note_on_c, 0, 61, 0
2, 26384, Note_on_c, 0, 54, 79
2, 26469, Note_on_c, 0, 54, 0
2, 26482, Note_on_c, 0, 61, 83
2, 26556, Note_on_c, 0, 61, 0
2, 26570, Note_on_c, 0, 54, 84
2, 26588, Note_on_c, 0, 70, 0
2, 26648, Note_on_c, 0, 54, 0
2, 26661, Note_on_c, 0, 61, 83
2, 26676, Note_on_c, 0, 78, 81
2, 26729, Note_on_c, 0, 61, 0
2, 26732, Note_on_c, 0, 78, 0
2, 26753, Note_on_c, 0, 54, 80
2, 26839, Note_on_c, 0, 54, 0
2, 26853, Note_on_c, 0, 71, 82
2, 26858, Note_on_c, 0, 63, 78
2, 26927, Note_on_c, 0, 63, 0
2, 26958, Note_on_c, 0, 54, 74
2, 27028, Note_on_c, 0, 54, 0
2, 27047, Note_on_c, 0, 63, 72
2, 27117, Note_on_c, 0, 63, 0
2, 27130, Note_on_c, 0, 71, 0
2, 27144, Note_on_c, 0, 54, 68
2, 27197, Note_on_c, 0, 54, 0
2, 27219, Note_on_c, 0, 78, 68
2, 27228, Note_on_c, 0, 63, 64
2, 27261, Note_on_c, 0, 78, 0
2, 27278, Note_on_c, 0, 63, 0
2, 27327, Note_on_c, 0, 54, 64
2, 27381, Note_on_c, 0, 54, 0
2, 27407, Note_on_c, 0, 70, 70
2, 27417, Note_on_c, 0, 61, 63
2, 27466, Note_on_c, 0, 61, 0
2, 27504, Note_on_c, 0, 54, 62
2, 27556, Note_on_c, 0, 54, 0
2, 27582, Note_on_c, 0, 61, 69
2, 27647, Note_on_c, 0, 61, 0
2, 27670, Note_on_c, 0, 70, 0
2, 27677, Note_on_c, 0, 54, 62
2, 27728, Note_on_c, 0, 54, 0
2, 27751, Note_on_c, 0, 78, 70
2, 27759, Note_on_c, 0, 61, 71
2, 27806, Note_on_c, 0, 78, 0
2, 27811, Note_on_c, 0, 61, 0
2, 27851, Note_on_c, 0, 54, 63
2, 27929, Note_on_c, 0, 68, 68
2, 27941, Note_on_c, 0, 54, 0
2, 27959, Note_on_c, 0, 59, 59
2, 28003, Note_on_c, 0, 59, 0
2, 28044, Note_on_c, 0, 58, 68
2, 28123, Note_on_c, 0, 58, 0
2, 28126, Note_on_c, 0, 56, 78
2, 28144, Note_on_c, 0, 68, 0
2, 28211, Note_on_c, 0, 56, 0
2, 28215, Note_on_c, 0, 58, 80
2, 28280, Note_on_c, 0, 58, 0
2, 28297, Note_on_c, 0, 59, 75
2, 28306, Note_on_c, 0, 77, 76
2, 28354, Note_on_c, 0, 59, 0
2, 28368, Note_on_c, 0, 77, 0
2, 28383, Note_on_c, 0, 56, 68
2, 28461, Note_on_c, 0, 56, 0
2, 28468, Note_on_c, 0, 58, 69
2, 28489, Note_on_c, 0, 66, 67
2, 28549, Note_on_c, 0, 58, 0
2, 28567, Note_on_c, 0, 56, 71
2, 28583, Note_on_c, 0, 66, 0
2, 28647, Note_on_c, 0, 56, 0
2, 28655, Note_on_c, 0, 54, 77
2, 28743, Note_on_c, 0, 56, 82
2, 28780, Note_on_c, 0, 54, 0
2, 28850, Note_on_c, 0, 56, 0
2, 28852, Note_on_c, 0, 58, 77
2, 28857, Note_on_c, 0, 78, 84
2, 28944, Note_on_c, 0, 58, 0
2, 28962, Note_on_c, 0, 54, 75
2, 29055, Note_on_c, 0, 56, 78
2, 29089, Note_on_c, 0, 54, 0
2, 29138, Note_on_c, 0, 58, 78
2, 29141, Note_on_c, 0, 56, 0
2, 29220, Note_on_c, 0, 77, 87
2, 29227, Note_on_c, 0, 56, 80
2, 29228, Note_on_c, 0, 58, 0
2, 29242, Note_on_c, 0, 78, 0
2, 29295, Note_on_c, 0, 56, 0
2, 29299, Note_on_c, 0, 75, 89
2, 29309, Note_on_c, 0, 54, 77
2, 29323, Note_on_c, 0, 77, 0
2, 29341, Note_on_c, 0, 54, 0
2, 29386, Note_on_c, 0, 73, 82
2, 29388, Note_on_c, 0, 75, 0
2, 29393, Note_on_c, 0, 53, 64
2, 29444, Note_on_c, 0, 53, 0
2, 29477, Note_on_c, 0, 51, 72
2, 29478, Note_on_c, 0, 75, 79
2, 29496, Note_on_c, 0, 73, 0
2, 29556, Note_on_c, 0, 51, 0
2, 29562, Note_on_c, 0, 77, 73
2, 29572, Note_on_c, 0, 75, 0
2, 29579, Note_on_c, 0, 49, 59
2, 29633, Note_on_c, 0, 77, 0
2, 29655, Note_on_c, 0, 73, 70
2, 29714, Note_on_c, 0, 73, 0
2, 29738, Note_on_c, 0, 68, 70
2, 29756, Note_on_c, 0, 49, 0
2, 29800, Note_on_c, 0, 68, 0
2, 29829, Note_on_c, 0, 73, 65
2, 29887, Note_on_c, 0, 73, 0
2, 29902, Note_on_c, 0, 77, 69
2, 29910, Note_on_c, 0, 61, 57
2, 29951, Note_on_c, 0, 77, 0
2, 29958, Note_on_c, 0, 61, 0
2, 30001, Note_on_c, 0, 73, 70
2, 30053, Note_on_c, 0, 73, 0
2, 30056, Note_on_c, 0, 51, 49
2, 30087, Note_on_c, 0, 78, 73
2, 30141, Note_on_c, 0, 78, 0
2, 30170, Note_on_c, 0, 73, 70
2, 30239, Note_on_c, 0, 73, 0
2, 30259, Note_on_c, 0, 78, 76
2, 30317, Note_on_c, 0, 78, 0
2, 30324, Note_on_c, 0, 51, 0
2, 30346, Note_on_c, 0, 73, 79
2, 30418, Note_on_c, 0, 73, 0
2, 30435, Note_on_c, 0, 78, 83
2, 30443, Note_on_c, 0, 61, 57
2, 30481, Note_on_c, 0, 61, 0
2, 30496, Note_on_c, 0, 78, 0
2, 30517, Note_on_c, 0, 73, 82
2, 30584, Note_on_c, 0, 73, 0
2, 30605, Note_on_c, 0, 53, 68
2, 30614, Note_on_c, 0, 80, 84
2, 30667, Note_on_c, 0, 80, 0
2, 30696, Note_on_c, 0, 73, 82
2, 30773, Note_on_c, 0, 73, 0
2, 30797, Note_on_c, 0, 80, 82
2, 30848, Note_on_c, 0, 80, 0
2, 30871, Note_on_c, 0, 73, 87
2, 30887, Note_on_c, 0, 53, 0
2, 30949, Note_on_c, 0, 73, 0
2, 30964, Note_on_c, 0, 61, 68
2, 30965, Note_on_c, 0, 80, 83
2, 31017, Note_on_c, 0, 61, 0
2, 31023, Note_on_c, 0, 80, 0
2, 31044, Note_on_c, 0, 73, 87
2, 31125, Note_on_c, 0, 73, 0
2, 31140, Note_on_c, 0, 54, 69
2, 31147, Note_on_c, 0, 82, 87
2, 31217, Note_on_c, 0, 82, 0
2, 31227, Note_on_c, 0, 73, 77
2, 31299, Note_on_c, 0, 73, 0
2, 31319, Note_on_c, 0, 82, 83
2, 31374, Note_on_c, 0, 82, 0
2, 31401, Note_on_c, 0, 73, 77
2, 31419, Note_on_c, 0, 54, 0
2, 31467, Note_on_c, 0, 73, 0
2, 31489, Note_on_c, 0, 82, 76
2, 31516, Note_on_c, 0, 61, 56
2, 31547, Note_on_c, 0, 82, 0
2, 31567, Note_on_c, 0, 61, 0
2, 31581, Note_on_c, 0, 73, 68
2, 31647, Note_on_c, 0, 73, 0
2, 31670, Note_on_c, 0, 80, 67
2, 31682, Note_on_c, 0, 53, 55
2, 31734, Note_on_c, 0, 80, 0
2, 31764, Note_on_c, 0, 73, 69
2, 31817, Note_on_c, 0, 73, 0
2, 31853, Note_on_c, 0, 80, 72
2, 31908, Note_on_c, 0, 80, 0
2, 31929, Note_on_c, 0, 53, 0
2, 31940, Note_on_c, 0, 73, 72
2, 32010, Note_on_c, 0, 73, 0
2, 32034, Note_on_c, 0, 80, 71
2, 32038, Note_on_c, 0, 61, 50
2, 32079, Note_on_c, 0, 61, 0
2, 32098, Note_on_c, 0, 80, 0
2, 32130, Note_on_c, 0, 73, 66
2, 32181, Note_on_c, 0, 73, 0
2, 32211, Note_on_c, 0, 51, 59
2, 32216, Note_on_c, 0, 78, 69
2, 32284, Note_on_c, 0, 78, 0
2, 32302, Note_on_c, 0, 77, 73
2, 32370, Note_on_c, 0, 77, 0
2, 32386, Note_on_c, 0, 75, 82
2, 32449, Note_on_c, 0, 75, 0
2, 32464, Note_on_c, 0, 77, 78
2, 32492, Note_on_c, 0, 51, 0
2, 32555, Note_on_c, 0, 78, 81
2, 32563, Note_on_c, 0, 60, 57
2, 32566, Note_on_c, 0, 77, 0
2, 32604, Note_on_c, 0, 60, 0
2, 32613, Note_on_c, 0, 78, 0
2, 32657, Note_on_c, 0, 75, 54
2, 32694, Note_on_c, 0, 75, 0
2, 32728, Note_on_c, 0, 77, 69
2, 32737, Note_on_c, 0, 49, 55
2, 32831, Note_on_c, 0, 75, 60
2, 32842, Note_on_c, 0, 77, 0
2, 32899, Note_on_c, 0, 73, 77
2, 32907, Note_on_c, 0, 75, 0
2, 32966, Note_on_c, 0, 49, 0
2, 32997, Note_on_c, 0, 75, 74
2, 33011, Note_on_c, 0, 73, 0
2, 33076, Note_on_c, 0, 77, 73
2, 33085, Note_on_c, 0, 61, 77
2, 33085, Note_on_c, 0, 75, 0
2, 33123, Note_on_c, 0, 61, 0
2, 33168, Note_on_c, 0, 73, 70
2, 33179, Note_on_c, 0, 77, 0
2, 33260, Note_on_c, 0, 75, 81
2, 33265, Note_on_c, 0, 54, 81
2, 33305, Note_on_c, 0, 73, 0
2, 33326, Note_on_c, 0, 54, 0
2, 33345, Note_on_c, 0, 75, 0
2, 33348, Note_on_c, 0, 77, 70
2, 33444, Note_on_c, 0, 75, 77
2, 33449, Note_on_c, 0, 77, 0
2, 33451, Note_on_c, 0, 53, 59
2, 33487, Note_on_c, 0, 53, 0
2, 33510, Note_on_c, 0, 75, 0
2, 33528, Note_on_c, 0, 73, 76
2, 33608, Note_on_c, 0, 51, 63
2, 33608, Note_on_c, 0, 73, 0
2, 33620, Note_on_c, 0, 72, 66
2, 33654, Note_on_c, 0, 51, 0
2, 33690, Note_on_c, 0, 72, 0
2, 33714, Note_on_c, 0, 70, 64
2, 33776, Note_on_c, 0, 56, 77
2, 33790, Note_on_c, 0, 70, 0
2, 33800, Note_on_c, 0, 72, 68
2, 33810, Note_on_c, 0, 56, 0
2, 33841, Note_on_c, 0, 72, 0
2, 33874, Note_on_c, 0, 68, 64
2, 33914, Note_on_c, 0, 68, 0
2, 33962, Note_on_c, 0, 66, 59
2, 33993, Note_on_c, 0, 66, 0
2, 34042, Note_on_c, 0, 68, 64
2, 34091, Note_on_c, 0, 68, 0
2, 34131, Note_on_c, 0, 63, 61
2, 34167, Note_on_c, 0, 63, 0
2, 34216, Note_on_c, 0, 68, 59
2, 34271, Note_on_c, 0, 68, 0
2, 34304, Note_on_c, 0, 72, 61
2, 34305, Note_on_c, 0, 56, 65
2, 34341, Note_on_c, 0, 56, 0
2, 34375, Note_on_c, 0, 72, 0
2, 34391, Note_on_c, 0, 68, 63
2, 34430, Note_on_c, 0, 68, 0
2, 34479, Note_on_c, 0, 66, 62
2, 34517, Note_on_c, 0, 66, 0
2, 34556, Note_on_c, 0, 68, 63
2, 34593, Note_on_c, 0, 68, 0
2, 34643, Note_on_c, 0, 63, 59
2, 34682, Note_on_c, 0, 63, 0
2, 34731, Note_on_c, 0, 68, 52
2, 34781, Note_on_c, 0, 68, 0
2, 34819, Note_on_c, 0, 73, 65
2, 34827, Note_on_c, 0, 56, 60
2, 34868, Note_on_c, 0, 56, 0
2, 34883, Note_on_c, 0, 73, 0
2, 34898, Note_on_c, 0, 68, 60
2, 34938, Note_on_c, 0, 68, 0
2, 35013, Note_on_c, 0, 65, 59
2, 35048, Note_on_c, 0, 65, 0
2, 35085, Note_on_c, 0, 68, 58
2, 35118, Note_on_c, 0, 68, 0
2, 35180, Note_on_c, 0, 61, 65
2, 35222, Note_on_c, 0, 61, 0
2, 35248, Note_on_c, 0, 68, 56
2, 35306, Note_on_c, 0, 68, 0
2, 35335, Note_on_c, 0, 73, 69
2, 35357, Note_on_c, 0, 56, 62
2, 35400, Note_on_c, 0, 56, 0
2, 35408, Note_on_c, 0, 73, 0
2, 35423, Note_on_c, 0, 68, 66
2, 35458, Note_on_c, 0, 68, 0
2, 35517, Note_on_c, 0, 65, 70
2, 35556, Note_on_c, 0, 65, 0
2, 35594, Note_on_c, 0, 68, 72
2, 35629, Note_on_c, 0, 68, 0
2, 35678, Note_on_c, 0, 61, 74
2, 35737, Note_on_c, 0, 61, 0
2, 35761, Note_on_c, 0, 68, 77
2, 35830, Note_on_c, 0, 68, 0
2, 35855, Note_on_c, 0, 78, 81
2, 35857, Note_on_c, 0, 56, 74
2, 35898, Note_on_c, 0, 56, 0
2, 35943, Note_on_c, 0, 68, 75
2, 35949, Note_on_c, 0, 78, 0
2, 36005, Note_on_c, 0, 68, 0
2, 36046, Note_on_c, 0, 63, 72
2, 36084, Note_on_c, 0, 63, 0
2, 36117, Note_on_c, 0, 68, 71
2, 36146, Note_on_c, 0, 68, 0
2, 36211, Note_on_c, 0, 60, 62
2, 36244, Note_on_c, 0, 60, 0
2, 36292, Note_on_c, 0, 68, 63
2, 36336, Note_on_c, 0, 68, 0
2, 36372, Note_on_c, 0, 78, 72
2, 36387, Note_on_c, 0, 56, 61
2, 36424, Note_on_c, 0, 56, 0
2, 36458, Note_on_c, 0, 78, 0
2, 36460, Note_on_c, 0, 68, 64
2, 36526, Note_on_c, 0, 68, 0
2, 36571, Note_on_c, 0, 63, 64
2, 36606, Note_on_c, 0, 63, 0
2, 36641, Note_on_c, 0, 68, 71
2, 36681, Note_on_c, 0, 68, 0
2, 36733, Note_on_c, 0, 60, 69
2, 36771, Note_on_c, 0, 60, 0
2, 36824, Note_on_c, 0, 68, 62
2, 36877, Note_on_c, 0, 68, 0
2, 36911, Note_on_c, 0, 77, 53
2, 36922, Note_on_c, 0, 56, 59
2, 36959, Note_on_c, 0, 56, 0
2, 36985, Note_on_c, 0, 77, 0
2, 36988, Note_on_c, 0, 68, 67
2, 37031, Note_on_c, 0, 68, 0
2, 37096, Note_on_c, 0, 65, 62
2, 37127, Note_on_c, 0, 65, 0
2, 37151, Note_on_c, 0, 68, 70
2, 37213, Note_on_c, 0, 68, 0
2, 37270, Note_on_c, 0, 61, 74
2, 37311, Note_on_c, 0, 61, 0
2, 37337, Note_on_c, 0, 68, 62
2, 37420, Note_on_c, 0, 68, 0
2, 37441, Note_on_c, 0, 77, 54
2, 37449, Note_on_c, 0, 56, 69
2, 37485, Note_on_c, 0, 56, 0
2, 37510, Note_on_c, 0, 77, 0
2, 37521, Note_on_c, 0, 68, 69
2, 37567, Note_on_c, 0, 68, 0
2, 37614, Note_on_c, 0, 65, 76
2, 37651, Note_on_c, 0, 65, 0
2, 37683, Note_on_c, 0, 68, 76
2, 37745, Note_on_c, 0, 68, 0
2, 37777, Note_on_c, 0, 61, 82
2, 37835, Note_on_c, 0, 61, 0
2, 37849, Note_on_c, 0, 68, 81
2, 37908, Note_on_c, 0, 68, 0
2, 37946, Note_on_c, 0, 56, 77
2, 37959, Note_on_c, 0, 79, 85
2, 37984, Note_on_c, 0, 56, 0
2, 38047, Note_on_c, 0, 70, 79
2, 38052, Note_on_c, 0, 79, 0
2, 38104, Note_on_c, 0, 70, 0
2, 38139, Note_on_c, 0, 64, 79
2, 38173, Note_on_c, 0, 64, 0
2, 38210, Note_on_c, 0, 70, 81
2, 38264, Note_on_c, 0, 70, 0
2, 38299, Note_on_c, 0, 61, 78
2, 38359, Note_on_c, 0, 61, 0
2, 38367, Note_on_c, 0, 70, 79
2, 38457, Note_on_c, 0, 70, 0
2, 38457, Note_on_c, 0, 79, 83
2, 38473, Note_on_c, 0, 56, 77
2, 38510, Note_on_c, 0, 56, 0
2, 38529, Note_on_c, 0, 79, 0
2, 38549, Note_on_c, 0, 70, 75
2, 38606, Note_on_c, 0, 70, 0
2, 38650, Note_on_c, 0, 64, 80
2, 38685, Note_on_c, 0, 64, 0
2, 38714, Note_on_c, 0, 70, 75
2, 38773, Note_on_c, 0, 70, 0
2, 38827, Note_on_c, 0, 61, 83
2, 38886, Note_on_c, 0, 61, 0
2, 38902, Note_on_c, 0, 70, 72
2, 38968, Note_on_c, 0, 70, 0
2, 39003, Note_on_c, 0, 56, 88
2, 39004, Note_on_c, 0, 80, 85
2, 39059, Note_on_c, 0, 56, 0
2, 39088, Note_on_c, 0, 72, 71
2, 39114, Note_on_c, 0, 80, 0
2, 39143, Note_on_c, 0, 72, 0
2, 39185, Note_on_c, 0, 63, 88
2, 39243, Note_on_c, 0, 63, 0
2, 39253, Note_on_c, 0, 72, 84
2, 39313, Note_on_c, 0, 72, 0
2, 39358, Note_on_c, 0, 60, 92
2, 39406, Note_on_c, 0, 60, 0
2, 39422, Note_on_c, 0, 72, 79
2, 39508, Note_on_c, 0, 72, 0
2, 39529, Note_on_c, 0, 54, 91
2, 39531, Note_on_c, 0, 80, 83
2, 39591, Note_on_c, 0, 54, 0
2, 39619, Note_on_c, 0, 72, 80
2, 39635, Note_on_c, 0, 80, 0
2, 39681, Note_on_c, 0, 72, 0
2, 39713, Note_on_c, 0, 63, 88
2, 39769, Note_on_c, 0, 63, 0
2, 39787, Note_on_c, 0, 72, 86
2, 39845, Note_on_c, 0, 72, 0
2, 39882, Note_on_c, 0, 60, 84
2, 39934, Note_on_c, 0, 60, 0
2, 39949, Note_on_c, 0, 72, 78
2, 40035, Note_on_c, 0, 72, 0
2, 40044, Note_on_c, 0, 80, 85
2, 40047, Note_on_c, 0, 53, 90
2, 40102, Note_on_c, 0, 53, 0
2, 40136, Note_on_c, 0, 73, 84
2, 40141, Note_on_c, 0, 80, 0
2, 40190, Note_on_c, 0, 73, 0
2, 40220, Note_on_c, 0, 65, 88
2, 40267, Note_on_c, 0, 65, 0
2, 40291, Note_on_c, 0, 68, 84
2, 40358, Note_on_c, 0, 68, 0
2, 40405, Note_on_c, 0, 61, 83
2, 40463, Note_on_c, 0, 61, 0
2, 40495, Note_on_c, 0, 73, 77
2, 40560, Note_on_c, 0, 73, 0
2, 40582, Note_on_c, 0, 56, 75
2, 40618, Note_on_c, 0, 56, 0
2, 40659, Note_on_c, 0, 77, 81
2, 40718, Note_on_c, 0, 77, 0
2, 40759, Note_on_c, 0, 53, 75
2, 40793, Note_on_c, 0, 53, 0
2, 40839, Note_on_c, 0, 80, 72
2, 40898, Note_on_c, 0, 80, 0
2, 40923, Note_on_c, 0, 51, 80
2, 40959, Note_on_c, 0, 51, 0
2, 41002, Note_on_c, 0, 82, 83
2, 41102, Note_on_c, 0, 50, 77
2, 41119, Note_on_c, 0, 83, 93
2, 41154, Note_on_c, 0, 82, 0
2, 41159, Note_on_c, 0, 50, 0
2, 41208, Note_on_c, 0, 82, 83
2, 41261, Note_on_c, 0, 83, 0
2, 41288, Note_on_c, 0, 53, 77
2, 41296, Note_on_c, 0, 80, 89
2, 41338, Note_on_c, 0, 82, 0
2, 41362, Note_on_c, 0, 53, 0
2, 41379, Note_on_c, 0, 78, 88
2, 41380, Note_on_c, 0, 80, 0
2, 41453, Note_on_c, 0, 58, 77
2, 41461, Note_on_c, 0, 78, 0
2, 41464, Note_on_c, 0, 77, 93
2, 41498, Note_on_c, 0, 58, 0
2, 41530, Note_on_c, 0, 77, 0
2, 41559, Note_on_c, 0, 75, 92
2, 41635, Note_on_c, 0, 62, 74
2, 41639, Note_on_c, 0, 75, 0
2, 41646, Note_on_c, 0, 77, 87
2, 41688, Note_on_c, 0, 62, 0
2, 41698, Note_on_c, 0, 77, 0
2, 41731, Note_on_c, 0, 78, 90
2, 41797, Note_on_c, 0, 65, 82
2, 41814, Note_on_c, 0, 80, 90
2, 41846, Note_on_c, 0, 65, 0
2, 41848, Note_on_c, 0, 78, 0
2, 41902, Note_on_c, 0, 83, 92
2, 41911, Note_on_c, 0, 80, 0
2, 41980, Note_on_c, 0, 68, 80
2, 41994, Note_on_c, 0, 82, 88
2, 42022, Note_on_c, 0, 68, 0
2, 42033, Note_on_c, 0, 83, 0
2, 42075, Note_on_c, 0, 80, 89
2, 42093, Note_on_c, 0, 82, 0
2, 42143, Note_on_c, 0, 80, 0
2, 42157, Note_on_c, 0, 66, 88
2, 42174, Note_on_c, 0, 83, 81
2, 42175, Note_on_c, 0, 82, 53
2, 42202, Note_on_c, 0, 66, 0
2, 42223, Note_on_c, 0, 83, 0
2, 42224, Note_on_c, 0, 82, 0
2, 42244, Note_on_c, 0, 75, 75
2, 42280, Note_on_c, 0, 75, 0
2, 42326, Note_on_c, 0, 63, 82
2, 42361, Note_on_c, 0, 63, 0
2, 42412, Note_on_c, 0, 66, 76
2, 42441, Note_on_c, 0, 66, 0
2, 42498, Note_on_c, 0, 58, 79
2, 42532, Note_on_c, 0, 58, 0
2, 42579, Note_on_c, 0, 70, 72
2, 42634, Note_on_c, 0, 70, 0
2, 42679, Note_on_c, 0, 54, 78
2, 42716, Note_on_c, 0, 54, 0
2, 42762, Note_on_c, 0, 75, 76
2, 42805, Note_on_c, 0, 75, 0
2, 42861, Note_on_c, 0, 51, 71
2, 42893, Note_on_c, 0, 51, 0
2, 42935, Note_on_c, 0, 78, 77
2, 42990, Note_on_c, 0, 78, 0
2, 43028, Note_on_c, 0, 49, 79
2, 43067, Note_on_c, 0, 49, 0
2, 43117, Note_on_c, 0, 80, 82
2, 43206, Note_on_c, 0, 48, 79
2, 43208, Note_on_c, 0, 81, 86
2, 43225, Note_on_c, 0, 80, 0
2, 43238, Note_on_c, 0, 48, 0
2, 43301, Note_on_c, 0, 80, 83
2, 43314, Note_on_c, 0, 81, 0
2, 43367, Note_on_c, 0, 80, 0
2, 43382, Note_on_c, 0, 78, 81
2, 43414, Note_on_c, 0, 51, 56
2, 43451, Note_on_c, 0, 51, 0
2, 43451, Note_on_c, 0, 78, 0
2, 43467, Note_on_c, 0, 76, 75
2, 43526, Note_on_c, 0, 76, 0
2, 43561, Note_on_c, 0, 75, 77
2, 43571, Note_on_c, 0, 56, 63
2, 43611, Note_on_c, 0, 56, 0
2, 43630, Note_on_c, 0, 75, 0
2, 43636, Note_on_c, 0, 73, 76
2, 43737, Note_on_c, 0, 75, 76
2, 43749, Note_on_c, 0, 73, 0
2, 43755, Note_on_c, 0, 60, 67
2, 43797, Note_on_c, 0, 60, 0
2, 43806, Note_on_c, 0, 75, 0
2, 43825, Note_on_c, 0, 76, 71
2, 43877, Note_on_c, 0, 76, 0
2, 43907, Note_on_c, 0, 63, 72
2, 43913, Note_on_c, 0, 78, 78
2, 43943, Note_on_c, 0, 63, 0
2, 44000, Note_on_c, 0, 81, 73
2, 44005, Note_on_c, 0, 78, 0
2, 44085, Note_on_c, 0, 80, 75
2, 44092, Note_on_c, 0, 66, 65
2, 44099, Note_on_c, 0, 81, 0
2, 44120, Note_on_c, 0, 66, 0
2, 44172, Note_on_c, 0, 80, 0
2, 44181, Note_on_c, 0, 78, 72
2, 44257, Note_on_c, 0, 78, 0
2, 44263, Note_on_c, 0, 80, 81
2, 44275, Note_on_c, 0, 64, 74
2, 44302, Note_on_c, 0, 64, 0
2, 44321, Note_on_c, 0, 80, 0
2, 44360, Note_on_c, 0, 73, 72
2, 44394, Note_on_c, 0, 73, 0
2, 44445, Note_on_c, 0, 61, 77
2, 44484, Note_on_c, 0, 61, 0
2, 44537, Note_on_c, 0, 76, 64
2, 44593, Note_on_c, 0, 76, 0
2, 44623, Note_on_c, 0, 57, 72
2, 44668, Note_on_c, 0, 57, 0
2, 44709, Note_on_c, 0, 73, 76
2, 44772, Note_on_c, 0, 73, 0
2, 44793, Note_on_c, 0, 54, 76
2, 44828, Note_on_c, 0, 54, 0
2, 44878, Note_on_c, 0, 69, 72
2, 44930, Note_on_c, 0, 69, 0
2, 44985, Note_on_c, 0, 63, 75
2, 45028, Note_on_c, 0, 63, 0
2, 45047, Note_on_c, 0, 66, 67
2, 45093, Note_on_c, 0, 66, 0
2, 45162, Note_on_c, 0, 60, 78
2, 45196, Note_on_c, 0, 60, 0
2, 45221, Note_on_c, 0, 75, 71
2, 45285, Note_on_c, 0, 75, 0
2, 45322, Note_on_c, 0, 52, 76
2, 45380, Note_on_c, 0, 52, 0
2, 45396, Note_on_c, 0, 68, 73
2, 45447, Note_on_c, 0, 68, 0
2, 45510, Note_on_c, 0, 61, 79
2, 45569, Note_on_c, 0, 61, 0
2, 45577, Note_on_c, 0, 64, 60
2, 45625, Note_on_c, 0, 64, 0
2, 45683, Note_on_c, 0, 57, 67
2, 45718, Note_on_c, 0, 57, 0
2, 45758, Note_on_c, 0, 73, 71
2, 45814, Note_on_c, 0, 73, 0
2, 45863, Note_on_c, 0, 54, 70
2, 45892, Note_on_c, 0, 54, 0
2, 45931, Note_on_c, 0, 69, 70
2, 45985, Note_on_c, 0, 69, 0
2, 46032, Note_on_c, 0, 51, 68
2, 46070, Note_on_c, 0, 51, 0
2, 46107, Note_on_c, 0, 66, 61
2, 46153, Note_on_c, 0, 66, 0
2, 46210, Note_on_c, 0, 48, 79
2, 46243, Note_on_c, 0, 48, 0
2, 46273, Note_on_c, 0, 63, 67
2, 46306, Note_on_c, 0, 63, 0
2, 46375, Note_on_c, 0, 44, 75
2, 46391, Note_on_c, 0, 60, 77
2, 46408, Note_on_c, 0, 44, 0
2, 46454, Note_on_c, 0, 60, 0
2, 46481, Note_on_c, 0, 56, 57
2, 46510, Note_on_c, 0, 56, 0
2, 46562, Note_on_c, 0, 54, 64
2, 46594, Note_on_c, 0, 54, 0
2, 46630, Note_on_c, 0, 56, 58
2, 46674, Note_on_c, 0, 56, 0
2, 46733, Note_on_c, 0, 51, 57
2, 46765, Note_on_c, 0, 51, 0
2, 46807, Note_on_c, 0, 56, 54
2, 46868, Note_on_c, 0, 56, 0
2, 46903, Note_on_c, 0, 44, 66
2, 46908, Note_on_c, 0, 60, 58
2, 46936, Note_on_c, 0, 44, 0
2, 46949, Note_on_c, 0, 60, 0
2, 46985, Note_on_c, 0, 56, 62
2, 47018, Note_on_c, 0, 56, 0
2, 47086, Note_on_c, 0, 54, 63
2, 47120, Note_on_c, 0, 54, 0
2, 47179, Note_on_c, 0, 56, 57
2, 47217, Note_on_c, 0, 56, 0
2, 47270, Note_on_c, 0, 51, 62
2, 47305, Note_on_c, 0, 51, 0
2, 47352, Note_on_c, 0, 56, 59
2, 47407, Note_on_c, 0, 56, 0
2, 47431, Note_on_c, 0, 44, 66
2, 47444, Note_on_c, 0, 61, 64
2, 47465, Note_on_c, 0, 44, 0
2, 47486, Note_on_c, 0, 61, 0
2, 47520, Note_on_c, 0, 56, 63
2, 47553, Note_on_c, 0, 56, 0
2, 47612, Note_on_c, 0, 53, 62
2, 47644, Note_on_c, 0, 53, 0
2, 47709, Note_on_c, 0, 56, 60
2, 47748, Note_on_c, 0, 56, 0
2, 47801, Note_on_c, 0, 49, 56
2, 47836, Note_on_c, 0, 49, 0
2, 47853, Note_on_c, 0, 56, 62
2, 47911, Note_on_c, 0, 56, 0
2, 47961, Note_on_c, 0, 61, 70
2, 47963, Note_on_c, 0, 44, 67
2, 48003, Note_on_c, 0, 44, 0
2, 48027, Note_on_c, 0, 61, 0
2, 48046, Note_on_c, 0, 56, 63
2, 48093, Note_on_c, 0, 56, 0
2, 48139, Note_on_c, 0, 53, 63
2, 48174, Note_on_c, 0, 53, 0
2, 48238, Note_on_c, 0, 56, 55
2, 48270, Note_on_c, 0, 56, 0
2, 48305, Note_on_c, 0, 49, 63
2, 48342, Note_on_c, 0, 49, 0
2, 48384, Note_on_c, 0, 56, 62
2, 48445, Note_on_c, 0, 56, 0
2, 48483, Note_on_c, 0, 44, 63
2, 48483, Note_on_c, 0, 66, 73
2, 48513, Note_on_c, 0, 44, 0
2, 48561, Note_on_c, 0, 66, 0
2, 48565, Note_on_c, 0, 56, 62
2, 48607, Note_on_c, 0, 56, 0
2, 48652, Note_on_c, 0, 51, 76
2, 48697, Note_on_c, 0, 51, 0
2, 48736, Note_on_c, 0, 56, 71
2, 48788, Note_on_c, 0, 56, 0
2, 48822, Note_on_c, 0, 48, 78
2, 48859, Note_on_c, 0, 48, 0
2, 48923, Note_on_c, 0, 56, 75
2, 48988, Note_on_c, 0, 56, 0
2, 49013, Note_on_c, 0, 44, 80
2, 49013, Note_on_c, 0, 66, 74
2, 49050, Note_on_c, 0, 44, 0
2, 49092, Note_on_c, 0, 66, 0
2, 49100, Note_on_c, 0, 56, 68
2, 49152, Note_on_c, 0, 56, 0
2, 49197, Note_on_c, 0, 51, 79
2, 49237, Note_on_c, 0, 51, 0
2, 49273, Note_on_c, 0, 56, 77
2, 49327, Note_on_c, 0, 56, 0
2, 49357, Note_on_c, 0, 48, 79
2, 49394, Note_on_c, 0, 48, 0
2, 49450, Note_on_c, 0, 56, 68
2, 49536, Note_on_c, 0, 56, 0
2, 49549, Note_on_c, 0, 44, 80
2, 49550, Note_on_c, 0, 65, 75
2, 49583, Note_on_c, 0, 44, 0
2, 49627, Note_on_c, 0, 65, 0
2, 49636, Note_on_c, 0, 56, 74
2, 49682, Note_on_c, 0, 56, 0
2, 49732, Note_on_c, 0, 53, 69
2, 49762, Note_on_c, 0, 53, 0
2, 49814, Note_on_c, 0, 56, 76
2, 49869, Note_on_c, 0, 56, 0
2, 49906, Note_on_c, 0, 49, 72
2, 49945, Note_on_c, 0, 49, 0
2, 50000, Note_on_c, 0, 56, 73
2, 50069, Note_on_c, 0, 56, 0
2, 50088, Note_on_c, 0, 44, 77
2, 50091, Note_on_c, 0, 65, 67
2, 50122, Note_on_c, 0, 44, 0
2, 50162, Note_on_c, 0, 65, 0
2, 50172, Note_on_c, 0, 56, 75
2, 50235, Note_on_c, 0, 56, 0
2, 50269, Note_on_c, 0, 53, 78
2, 50312, Note_on_c, 0, 53, 0
2, 50349, Note_on_c, 0, 56, 76
2, 50412, Note_on_c, 0, 56, 0
2, 50440, Note_on_c, 0, 49, 81
2, 50495, Note_on_c, 0, 49, 0
2, 50535, Note_on_c, 0, 56, 77
2, 50590, Note_on_c, 0, 56, 0
2, 50618, Note_on_c, 0, 44, 81
2, 50636, Note_on_c, 0, 67, 83
2, 50652, Note_on_c, 0, 44, 0
2, 50706, Note_on_c, 0, 58, 79
2, 50706, Note_on_c, 0, 67, 0
2, 50755, Note_on_c, 0, 58, 0
2, 50798, Note_on_c, 0, 52, 82
2, 50840, Note_on_c, 0, 52, 0
2, 50879, Note_on_c, 0, 58, 81
2, 50936, Note_on_c, 0, 58, 0
2, 50963, Note_on_c, 0, 49, 85
2, 51028, Note_on_c, 0, 49, 0
2, 51052, Note_on_c, 0, 58, 81
2, 51116, Note_on_c, 0, 58, 0
2, 51157, Note_on_c, 0, 67, 84
2, 51159, Note_on_c, 0, 44, 87
2, 51216, Note_on_c, 0, 44, 0
2, 51229, Note_on_c, 0, 67, 0
2, 51236, Note_on_c, 0, 58, 80
2, 51288, Note_on_c, 0, 58, 0
2, 51333, Note_on_c, 0, 52, 89
2, 51382, Note_on_c, 0, 52, 0
2, 51410, Note_on_c, 0, 58, 87
2, 51462, Note_on_c, 0, 58, 0
2, 51513, Note_on_c, 0, 49, 89
2, 51568, Note_on_c, 0, 49, 0
2, 51582, Note_on_c, 0, 58, 76
2, 51638, Note_on_c, 0, 58, 0
2, 51678, Note_on_c, 0, 44, 88
2, 51772, Note_on_c, 0, 48, 80
2, 51810, Note_on_c, 0, 44, 0
2, 51874, Note_on_c, 0, 48, 0
2, 51878, Note_on_c, 0, 51, 89
2, 51921, Note_on_c, 0, 51, 0
2, 51976, Note_on_c, 0, 54, 84
2, 52064, Note_on_c, 0, 57, 81
2, 52103, Note_on_c, 0, 54, 0
2, 52157, Note_on_c, 0, 60, 88
2, 52165, Note_on_c, 0, 57, 0
2, 52238, Note_on_c, 0, 61, 88
2, 52254, Note_on_c, 0, 60, 0
2, 52322, Note_on_c, 0, 64, 92
2, 52340, Note_on_c, 0, 61, 0
2, 52412, Note_on_c, 0, 67, 88
2, 52435, Note_on_c, 0, 64, 0
2, 52456, Note_on_c, 0, 67, 0
2, 52495, Note_on_c, 0, 70, 85
2, 52589, Note_on_c, 0, 73, 89
2, 52614, Note_on_c, 0, 70, 0
2, 52687, Note_on_c, 0, 73, 0
2, 52692, Note_on_c, 0, 76, 81
2, 52710, Note_on_c, 0, 74, 49
2, 52736, Note_on_c, 0, 74, 0
2, 52765, Note_on_c, 0, 76, 0
2, 52775, Note_on_c, 0, 44, 81
2, 52781, Note_on_c, 0, 72, 87
2, 52857, Note_on_c, 0, 72, 0
2, 52861, Note_on_c, 0, 75, 86
2, 52955, Note_on_c, 0, 78, 87
2, 52959, Note_on_c, 0, 75, 0
2, 53045, Note_on_c, 0, 75, 94
2, 53047, Note_on_c, 0, 78, 0
2, 53102, Note_on_c, 0, 75, 0
2, 53124, Note_on_c, 0, 72, 82
2, 53177, Note_on_c, 0, 72, 0
2, 53198, Note_on_c, 0, 44, 0
2, 53216, Note_on_c, 0, 68, 83
2, 53307, Note_on_c, 0, 66, 85
2, 53321, Note_on_c, 0, 68, 0
2, 53375, Note_on_c, 0, 66, 0
2, 53386, Note_on_c, 0, 63, 85
2, 53469, Note_on_c, 0, 63, 0
2, 53478, Note_on_c, 0, 60, 85
2, 53540, Note_on_c, 0, 60, 0
2, 53555, Note_on_c, 0, 56, 83
2, 53650, Note_on_c, 0, 60, 81
2, 53654, Note_on_c, 0, 56, 0
2, 53739, Note_on_c, 0, 63, 79
2, 53740, Note_on_c, 0, 60, 0
2, 53821, Note_on_c, 0, 63, 0
2, 53825, Note_on_c, 0, 56, 77
2, 53855, Note_on_c, 0, 65, 84
2, 53921, Note_on_c, 0, 65, 0
2, 53933, Note_on_c, 0, 68, 87
2, 54020, Note_on_c, 0, 73, 90
2, 54025, Note_on_c, 0, 68, 0
2, 54099, Note_on_c, 0, 73, 0
2, 54109, Note_on_c, 0, 68, 90
2, 54119, Note_on_c, 0, 56, 0
2, 54190, Note_on_c, 0, 68, 0
2, 54204, Note_on_c, 0, 65, 86
2, 54258, Note_on_c, 0, 65, 0
2, 54301, Note_on_c, 0, 61, 81
2, 54340, Note_on_c, 0, 63, 30
2, 54361, Note_on_c, 0, 63, 0
2, 54389, Note_on_c, 0, 58, 83
2, 54412, Note_on_c, 0, 61, 0
2, 54463, Note_on_c, 0, 58, 0
2, 54486, Note_on_c, 0, 55, 69
2, 54493, Note_on_c, 0, 53, 71
2, 54514, Note_on_c, 0, 53, 0
2, 54563, Note_on_c, 0, 55, 0
2, 54569, Note_on_c, 0, 52, 79
2, 54629, Note_on_c, 0, 52, 0
2, 54662, Note_on_c, 0, 49, 84
2, 54768, Note_on_c, 0, 52, 80
2, 54786, Note_on_c, 0, 49, 0
2, 54872, Note_on_c, 0, 55, 88
2, 54878, Note_on_c, 0, 52, 0
2, 54966, Note_on_c, 0, 55, 0
2, 54992, Note_on_c, 0, 44, 89
2, 55267, Note_on_c, 0, 73, 82
2, 55268, Note_on_c, 0, 49, 67
2, 55269, Note_on_c, 0, 56, 77
2, 55270, Note_on_c, 0, 68, 79
2, 55274, Note_on_c, 0, 65, 77
2, 55278, Note_on_c, 0, 53, 73
2, 55295, Note_on_c, 0, 70, 57
2, 55307, Note_on_c, 0, 65, 0
2, 55310, Note_on_c, 0, 56, 0
2, 55312, Note_on_c, 0, 53, 0
2, 55319, Note_on_c, 0, 70, 0
2, 55322, Note_on_c, 0, 68, 0
2, 55325, Note_on_c, 0, 73, 0
2, 55342, Note_on_c, 0, 49, 0
2, 55592, Note_on_c, 0, 56, 78
2, 55592, Note_on_c, 0, 72, 77
2, 55594, Note_on_c, 0, 63, 85
2, 55599, Note_on_c, 0, 51, 73
2, 55600, Note_on_c, 0, 68, 78
2, 55606, Note_on_c, 0, 54, 74
2, 55634, Note_on_c, 0, 63, 0
2, 55641, Note_on_c, 0, 72, 0
2, 55645, Note_on_c, 0, 68, 0
2, 55651, Note_on_c, 0, 54, 0
2, 55657, Note_on_c, 0, 56, 0
2, 55691, Note_on_c, 0, 51, 0
2, 56048, Note_on_c, 0, 73, 91
2, 56050, Note_on_c, 0, 68, 66
2, 56053, Note_on_c, 0, 56, 60
2, 56058, Note_on_c, 0, 61, 75
2, 56061, Note_on_c, 0, 49, 60
2, 56062, Note_on_c, 0, 53, 61
2, 56101, Note_on_c, 0, 44, 0
2, 56974, Control_c, 0, 64, 26
2, 56988, Control_c, 0, 64, 38
2, 57004, Control_c, 0, 64, 45
2, 57019, Control_c, 0, 64, 51
2, 57035, Control_c, 0, 64, 55
2, 57050, Control_c, 0, 64, 58
2, 57064, Control_c, 0, 64, 60
2, 57080, Control_c, 0, 64, 62
2, 57095, Control_c, 0, 64, 64
2, 57109, Control_c, 0, 64, 65
2, 57125, Control_c, 0, 64, 66
2, 57140, Control_c, 0, 64, 67
2, 57156, Control_c, 0, 64, 68
2, 57171, Control_c, 0, 64, 69
2, 57186, Control_c, 0, 64, 70
2, 57202, Control_c, 0, 64, 71
2, 57376, Control_c, 0, 64, 70
2, 57391, Control_c, 0, 64, 70
2, 57406, Control_c, 0, 64, 69
2, 57421, Control_c, 0, 64, 69
2, 57437, Control_c, 0, 64, 68
2, 57452, Control_c, 0, 64, 68
2, 57467, Control_c, 0, 64, 67
2, 57483, Control_c, 0, 64, 66
2, 57498, Control_c, 0, 64, 65
2, 57499, Note_on_c, 0, 56, 0
2, 57506, Note_on_c, 0, 73, 0
2, 57511, Note_on_c, 0, 61, 0
2, 57514, Control_c, 0, 64, 65
2, 57528, Control_c, 0, 64, 64
2, 57533, Note_on_c, 0, 68, 0
2, 57543, Control_c, 0, 64, 63
2, 57559, Control_c, 0, 64, 62
2, 57562, Note_on_c, 0, 49, 0
2, 57570, Note_on_c, 0, 53, 0
2, 57574, Control_c, 0, 64, 60
2, 57589, Control_c, 0, 64, 57
2, 57604, Control_c, 0, 64, 53
2, 57619, Control_c, 0, 64, 47
2, 57634, Control_c, 0, 64, 40
2, 57649, Control_c, 0, 64, 26
2, 57663, Control_c, 0, 64, 0
2, 63534,End_track
0, 0, End_of_file
