0, 0, Header, 1, 2, 384
1, 0, Start_track
1, 0, Tempo, 500000
1, 0, Time_signature, 4, 2, 24, 8
1, 1, End_track
2,0,Start_track
2,0, Note_on_c, 0, 68, 85
2,35, Note_on_c, 0, 68, 0
2,239, Note_on_c, 0, 70, 83
2,332, Note_on_c, 0, 70, 0
2,338, Note_on_c, 0, 68, 91
2,427, Note_on_c, 0, 68, 0
2,447, Note_on_c, 0, 66, 87
2,502, Note_on_c, 0, 66, 0
2,533, Note_on_c, 0, 68, 88
2,603, Note_on_c, 0, 68, 0
2,666, Note_on_c, 0, 77, 80
2,696, Note_on_c, 0, 77, 0
2,902, Note_on_c, 0, 73, 89
2,944, Note_on_c, 0, 73, 0
2,1136, Note_on_c, 0, 68, 87
2,1369, Note_on_c, 0, 68, 0
2,1378, Note_on_c, 0, 66, 83
2,1428, Note_on_c, 0, 66, 0
2,1470, Note_on_c, 0, 65, 75
2,1525, Note_on_c, 0, 65, 0
2,1564, Note_on_c, 0, 66, 86
2,1599, Note_on_c, 0, 66, 0
2,1800, Note_on_c, 0, 75, 85
2,1852, Note_on_c, 0, 75, 0
2,2009, Note_on_c, 0, 65, 80
2,2063, Note_on_c, 0, 65, 0
2,2252, Note_on_c, 0, 73, 89
2,2305, Note_on_c, 0, 73, 0
2,2482, Note_on_c, 0, 63, 82
2,2530, Note_on_c, 0, 63, 0
2,2714, Note_on_c, 0, 72, 81
2,2757, Note_on_c, 0, 72, 0
2,2951, Note_on_c, 0, 61, 71
2,2985, Note_on_c, 0, 61, 0
2,3210, Note_on_c, 0, 73, 74
2,3289, Note_on_c, 0, 73, 0
2,3314, Note_on_c, 0, 72, 64
2,3370, Note_on_c, 0, 72, 0
2,3410, Note_on_c, 0, 73, 72
2,3527, Note_on_c, 0, 75, 64
2,3535, Note_on_c, 0, 73, 0
2,3600, Note_on_c, 0, 75, 0
2,3631, Note_on_c, 0, 61, 73
2,3644, Note_on_c, 0, 77, 60
2,3662, Note_on_c, 0, 61, 0
2,3717, Note_on_c, 0, 77, 0
2,3747, Note_on_c, 0, 78, 66
2,3842, Note_on_c, 0, 65, 83
2,3861, Note_on_c, 0, 78, 0
2,3865, Note_on_c, 0, 80, 73
2,3949, Note_on_c, 0, 63, 86
2,3949, Note_on_c, 0, 65, 0
2,3956, Note_on_c, 0, 79, 82
2,3990, Note_on_c, 0, 80, 0
2,4041, Note_on_c, 0, 61, 83
2,4044, Note_on_c, 0, 63, 0
2,4054, Note_on_c, 0, 77, 80
2,4054, Note_on_c, 0, 79, 0
2,4120, Note_on_c, 0, 77, 0
2,4132, Note_on_c, 0, 63, 93
2,4148, Note_on_c, 0, 79, 83
2,4182, Note_on_c, 0, 61, 0
2,4218, Note_on_c, 0, 63, 0
2,4252, Note_on_c, 0, 72, 84
2,4258, Note_on_c, 0, 80, 78
2,4265, Note_on_c, 0, 79, 0
2,4282, Note_on_c, 0, 72, 0
2,4358, Note_on_c, 0, 78, 78
2,4358, Note_on_c, 0, 80, 0
2,4469, Note_on_c, 0, 78, 0
2,4474, Note_on_c, 0, 77, 76
2,4475, Note_on_c, 0, 68, 90
2,4515, Note_on_c, 0, 68, 0
2,4540, Note_on_c, 0, 77, 0
2,4577, Note_on_c, 0, 75, 76
2,4692, Note_on_c, 0, 75, 0
2,4695, Note_on_c, 0, 63, 86
2,4702, Note_on_c, 0, 77, 74
2,4921, Note_on_c, 0, 63, 0
2,4922, Note_on_c, 0, 61, 84
2,5021, Note_on_c, 0, 60, 82
2,5047, Note_on_c, 0, 61, 0
2,5114, Note_on_c, 0, 61, 80
2,5119, Note_on_c, 0, 60, 0
2,5160, Note_on_c, 0, 61, 0
2,5188, Note_on_c, 0, 77, 0
2,5249, Note_on_c, 0, 75, 74
2,5337, Note_on_c, 0, 73, 80
2,5347, Note_on_c, 0, 70, 82
2,5380, Note_on_c, 0, 70, 0
2,5393, Note_on_c, 0, 75, 0
2,5439, Note_on_c, 0, 77, 80
2,5456, Note_on_c, 0, 73, 0
2,5554, Note_on_c, 0, 75, 80
2,5566, Note_on_c, 0, 60, 84
2,5599, Note_on_c, 0, 77, 0
2,5611, Note_on_c, 0, 60, 0
2,5658, Note_on_c, 0, 73, 82
2,5660, Note_on_c, 0, 75, 0
2,5769, Note_on_c, 0, 72, 76
2,5775, Note_on_c, 0, 68, 81
2,5789, Note_on_c, 0, 73, 0
2,5815, Note_on_c, 0, 68, 0
2,5832, Note_on_c, 0, 72, 0
2,5873, Note_on_c, 0, 75, 73
2,6000, Note_on_c, 0, 73, 78
2,6004, Note_on_c, 0, 58, 76
2,6035, Note_on_c, 0, 58, 0
2,6046, Note_on_c, 0, 75, 0
2,6100, Note_on_c, 0, 72, 77
2,6114, Note_on_c, 0, 73, 0
2,6217, Note_on_c, 0, 67, 76
2,6221, Note_on_c, 0, 73, 82
2,6234, Note_on_c, 0, 72, 0
2,6246, Note_on_c, 0, 67, 0
2,6308, Note_on_c, 0, 73, 0
2,6314, Note_on_c, 0, 70, 74
2,6369, Note_on_c, 0, 70, 0
2,6429, Note_on_c, 0, 70, 64
2,6445, Note_on_c, 0, 56, 69
2,6491, Note_on_c, 0, 56, 0
2,6512, Note_on_c, 0, 70, 0
2,6528, Note_on_c, 0, 72, 73
2,6596, Note_on_c, 0, 72, 0
2,6655, Note_on_c, 0, 68, 78
2,6655, Note_on_c, 0, 75, 81
2,6697, Note_on_c, 0, 75, 0
2,6704, Note_on_c, 0, 68, 0
2,6781, Note_on_c, 0, 67, 65
2,6830, Note_on_c, 0, 67, 0
2,6868, Note_on_c, 0, 68, 75
2,6884, Note_on_c, 0, 78, 75
2,6891, Note_on_c, 0, 68, 0
2,6986, Note_on_c, 0, 70, 71
2,7095, Note_on_c, 0, 72, 71
2,7107, Note_on_c, 0, 56, 85
2,7110, Note_on_c, 0, 70, 0
2,7138, Note_on_c, 0, 56, 0
2,7193, Note_on_c, 0, 72, 0
2,7199, Note_on_c, 0, 68, 66
2,7312, Note_on_c, 0, 68, 0
2,7337, Note_on_c, 0, 58, 88
2,7341, Note_on_c, 0, 73, 80
2,7440, Note_on_c, 0, 56, 84
2,7440, Note_on_c, 0, 72, 78
2,7454, Note_on_c, 0, 58, 0
2,7488, Note_on_c, 0, 78, 0
2,7497, Note_on_c, 0, 73, 0
2,7544, Note_on_c, 0, 54, 85
2,7546, Note_on_c, 0, 56, 0
2,7554, Note_on_c, 0, 70, 80
2,7580, Note_on_c, 0, 72, 0
2,7644, Note_on_c, 0, 70, 0
2,7647, Note_on_c, 0, 56, 84
2,7647, Note_on_c, 0, 72, 69
2,7693, Note_on_c, 0, 54, 0
2,7740, Note_on_c, 0, 56, 0
2,7761, Note_on_c, 0, 77, 85
2,7765, Note_on_c, 0, 65, 89
2,7766, Note_on_c, 0, 73, 76
2,7778, Note_on_c, 0, 72, 0
2,7797, Note_on_c, 0, 65, 0
2,7865, Note_on_c, 0, 72, 70
2,7893, Note_on_c, 0, 73, 0
2,7982, Note_on_c, 0, 72, 0
2,7988, Note_on_c, 0, 61, 86
2,7996, Note_on_c, 0, 70, 74
2,8029, Note_on_c, 0, 61, 0
2,8083, Note_on_c, 0, 70, 0
2,8093, Note_on_c, 0, 68, 67
2,8190, Note_on_c, 0, 68, 0
2,8221, Note_on_c, 0, 56, 87
2,8221, Note_on_c, 0, 70, 75
2,8462, Note_on_c, 0, 54, 86
2,8470, Note_on_c, 0, 56, 0
2,8521, Note_on_c, 0, 77, 0
2,8562, Note_on_c, 0, 53, 81
2,8563, Note_on_c, 0, 54, 0
2,8660, Note_on_c, 0, 54, 87
2,8664, Note_on_c, 0, 53, 0
2,8686, Note_on_c, 0, 75, 81
2,8694, Note_on_c, 0, 70, 0
2,8707, Note_on_c, 0, 54, 0
2,8782, Note_on_c, 0, 68, 71
2,8891, Note_on_c, 0, 63, 81
2,8894, Note_on_c, 0, 66, 77
2,8904, Note_on_c, 0, 68, 0
2,8919, Note_on_c, 0, 63, 0
2,8921, Note_on_c, 0, 54, 42
2,8948, Note_on_c, 0, 54, 0
2,9005, Note_on_c, 0, 70, 68
2,9012, Note_on_c, 0, 66, 0
2,9133, Note_on_c, 0, 53, 69
2,9137, Note_on_c, 0, 68, 77
2,9146, Note_on_c, 0, 61, 58
2,9170, Note_on_c, 0, 53, 0
2,9171, Note_on_c, 0, 61, 0
2,9173, Note_on_c, 0, 75, 0
2,9234, Note_on_c, 0, 66, 73
2,9240, Note_on_c, 0, 70, 0
2,9325, Note_on_c, 0, 68, 0
2,9352, Note_on_c, 0, 61, 79
2,9359, Note_on_c, 0, 73, 79
2,9361, Note_on_c, 0, 65, 74
2,9362, Note_on_c, 0, 66, 0
2,9387, Note_on_c, 0, 61, 0
2,9444, Note_on_c, 0, 65, 0
2,9447, Note_on_c, 0, 68, 78
2,9452, Note_on_c, 0, 73, 0
2,9558, Note_on_c, 0, 51, 74
2,9565, Note_on_c, 0, 68, 0
2,9566, Note_on_c, 0, 66, 71
2,9567, Note_on_c, 0, 72, 76
2,9592, Note_on_c, 0, 51, 0
2,9629, Note_on_c, 0, 66, 0
2,9673, Note_on_c, 0, 65, 65
2,9742, Note_on_c, 0, 65, 0
2,9776, Note_on_c, 0, 66, 63
2,9779, Note_on_c, 0, 60, 68
2,9810, Note_on_c, 0, 75, 70
2,9814, Note_on_c, 0, 60, 0
2,9830, Note_on_c, 0, 72, 0
2,9871, Note_on_c, 0, 66, 0
2,9893, Note_on_c, 0, 63, 60
2,9942, Note_on_c, 0, 63, 0
2,10011, Note_on_c, 0, 65, 64
2,10017, Note_on_c, 0, 49, 57
2,10054, Note_on_c, 0, 49, 0
2,10098, Note_on_c, 0, 75, 0
2,10233, Note_on_c, 0, 61, 57
2,10234, Note_on_c, 0, 68, 92
2,10305, Note_on_c, 0, 68, 0
2,10307, Note_on_c, 0, 61, 0
2,10331, Note_on_c, 0, 60, 69
2,10446, Note_on_c, 0, 61, 66
2,10448, Note_on_c, 0, 77, 89
2,10449, Note_on_c, 0, 60, 0
2,10457, Note_on_c, 0, 65, 0
2,10547, Note_on_c, 0, 61, 0
2,10571, Note_on_c, 0, 63, 65
2,10651, Note_on_c, 0, 63, 0
2,10685, Note_on_c, 0, 68, 71
2,10687, Note_on_c, 0, 65, 59
2,10717, Note_on_c, 0, 68, 0
2,10749, Note_on_c, 0, 65, 0
2,10794, Note_on_c, 0, 61, 57
2,10886, Note_on_c, 0, 61, 0
2,10887, Note_on_c, 0, 58, 62
2,10892, Note_on_c, 0, 73, 72
2,10999, Note_on_c, 0, 60, 69
2,11000, Note_on_c, 0, 58, 0
2,11010, Note_on_c, 0, 77, 0
2,11085, Note_on_c, 0, 60, 0
2,11113, Note_on_c, 0, 61, 71
2,11115, Note_on_c, 0, 77, 85
2,11128, Note_on_c, 0, 73, 0
2,11187, Note_on_c, 0, 61, 0
2,11208, Note_on_c, 0, 58, 67
2,11216, Note_on_c, 0, 73, 89
2,11236, Note_on_c, 0, 77, 0
2,11285, Note_on_c, 0, 58, 0
2,11317, Note_on_c, 0, 73, 0
2,11321, Note_on_c, 0, 55, 62
2,11323, Note_on_c, 0, 70, 79
2,11403, Note_on_c, 0, 55, 0
2,11425, Note_on_c, 0, 56, 69
2,11488, Note_on_c, 0, 56, 0
2,11528, Note_on_c, 0, 58, 65
2,11550, Note_on_c, 0, 70, 0
2,11552, Note_on_c, 0, 73, 72
2,11570, Note_on_c, 0, 58, 0
2,11606, Note_on_c, 0, 73, 0
2,11646, Note_on_c, 0, 70, 72
2,11647, Note_on_c, 0, 55, 57
2,11716, Note_on_c, 0, 70, 0
2,11747, Note_on_c, 0, 55, 0
2,11762, Note_on_c, 0, 48, 50
2,11768, Note_on_c, 0, 63, 64
2,11792, Note_on_c, 0, 48, 0
2,11977, Note_on_c, 0, 70, 87
2,11989, Note_on_c, 0, 60, 67
2,12027, Note_on_c, 0, 70, 0
2,12067, Note_on_c, 0, 60, 0
2,12076, Note_on_c, 0, 63, 0
2,12076, Note_on_c, 0, 63, 4
2,12078, Note_on_c, 0, 58, 69
2,12154, Note_on_c, 0, 63, 0
2,12194, Note_on_c, 0, 58, 0
2,12204, Note_on_c, 0, 75, 86
2,12207, Note_on_c, 0, 60, 67
2,12304, Note_on_c, 0, 60, 0
2,12317, Note_on_c, 0, 61, 67
2,12405, Note_on_c, 0, 61, 0
2,12427, Note_on_c, 0, 63, 62
2,12430, Note_on_c, 0, 67, 67
2,12462, Note_on_c, 0, 67, 0
2,12479, Note_on_c, 0, 63, 0
2,12528, Note_on_c, 0, 60, 60
2,12625, Note_on_c, 0, 60, 0
2,12638, Note_on_c, 0, 56, 59
2,12641, Note_on_c, 0, 72, 72
2,12718, Note_on_c, 0, 75, 0
2,12754, Note_on_c, 0, 58, 65
2,12765, Note_on_c, 0, 56, 0
2,12838, Note_on_c, 0, 58, 0
2,12868, Note_on_c, 0, 60, 74
2,12872, Note_on_c, 0, 75, 85
2,12892, Note_on_c, 0, 72, 0
2,12947, Note_on_c, 0, 60, 0
2,12968, Note_on_c, 0, 72, 78
2,12970, Note_on_c, 0, 75, 0
2,12977, Note_on_c, 0, 56, 62
2,13083, Note_on_c, 0, 53, 72
2,13084, Note_on_c, 0, 56, 0
2,13098, Note_on_c, 0, 68, 82
2,13106, Note_on_c, 0, 72, 0
2,13175, Note_on_c, 0, 53, 0
2,13185, Note_on_c, 0, 55, 70
2,13265, Note_on_c, 0, 55, 0
2,13296, Note_on_c, 0, 56, 71
2,13309, Note_on_c, 0, 68, 0
2,13310, Note_on_c, 0, 72, 77
2,13354, Note_on_c, 0, 56, 0
2,13384, Note_on_c, 0, 72, 0
2,13403, Note_on_c, 0, 68, 76
2,13405, Note_on_c, 0, 53, 60
2,13469, Note_on_c, 0, 53, 0
2,13511, Note_on_c, 0, 68, 0
2,13513, Note_on_c, 0, 46, 70
2,13516, Note_on_c, 0, 61, 74
2,13547, Note_on_c, 0, 46, 0
2,13739, Note_on_c, 0, 68, 87
2,13741, Note_on_c, 0, 58, 72
2,13784, Note_on_c, 0, 68, 0
2,13792, Note_on_c, 0, 61, 0
2,13825, Note_on_c, 0, 58, 0
2,13829, Note_on_c, 0, 56, 73
2,13848, Note_on_c, 0, 61, 27
2,13902, Note_on_c, 0, 61, 0
2,13954, Note_on_c, 0, 58, 61
2,13972, Note_on_c, 0, 73, 86
2,13984, Note_on_c, 0, 56, 0
2,14061, Note_on_c, 0, 58, 0
2,14077, Note_on_c, 0, 60, 71
2,14162, Note_on_c, 0, 60, 0
2,14191, Note_on_c, 0, 61, 62
2,14197, Note_on_c, 0, 65, 62
2,14226, Note_on_c, 0, 65, 0
2,14253, Note_on_c, 0, 61, 0
2,14279, Note_on_c, 0, 58, 61
2,14367, Note_on_c, 0, 58, 0
2,14399, Note_on_c, 0, 55, 60
2,14429, Note_on_c, 0, 70, 75
2,14504, Note_on_c, 0, 73, 0
2,14515, Note_on_c, 0, 55, 0
2,14519, Note_on_c, 0, 56, 72
2,14522, Note_on_c, 0, 72, 81
2,14583, Note_on_c, 0, 56, 0
2,14583, Note_on_c, 0, 70, 0
2,14613, Note_on_c, 0, 58, 77
2,14631, Note_on_c, 0, 73, 88
2,14653, Note_on_c, 0, 72, 0
2,14693, Note_on_c, 0, 58, 0
2,14699, Note_on_c, 0, 73, 0
2,14714, Note_on_c, 0, 55, 71
2,14723, Note_on_c, 0, 70, 85
2,14803, Note_on_c, 0, 70, 0
2,14838, Note_on_c, 0, 55, 0
2,14843, Note_on_c, 0, 51, 65
2,14845, Note_on_c, 0, 82, 80
2,14856, Note_on_c, 0, 80, 70
2,14916, Note_on_c, 0, 80, 0
2,14941, Note_on_c, 0, 73, 81
2,14954, Note_on_c, 0, 51, 0
2,14955, Note_on_c, 0, 53, 69
2,15028, Note_on_c, 0, 53, 0
2,15051, Note_on_c, 0, 55, 73
2,15053, Note_on_c, 0, 75, 80
2,15069, Note_on_c, 0, 73, 0
2,15125, Note_on_c, 0, 55, 0
2,15149, Note_on_c, 0, 51, 74
2,15161, Note_on_c, 0, 70, 83
2,15179, Note_on_c, 0, 75, 0
2,15219, Note_on_c, 0, 70, 0
2,15266, Note_on_c, 0, 44, 85
2,15280, Note_on_c, 0, 72, 84
2,15280, Note_on_c, 0, 82, 0
2,15282, Note_on_c, 0, 51, 0
2,15295, Note_on_c, 0, 44, 0
2,15381, Note_on_c, 0, 80, 86
2,15493, Note_on_c, 0, 79, 85
2,15493, Note_on_c, 0, 80, 0
2,15496, Note_on_c, 0, 56, 85
2,15585, Note_on_c, 0, 82, 89
2,15594, Note_on_c, 0, 79, 0
2,15605, Note_on_c, 0, 58, 79
2,15624, Note_on_c, 0, 56, 0
2,15682, Note_on_c, 0, 72, 0
2,15695, Note_on_c, 0, 58, 0
2,15697, Note_on_c, 0, 80, 85
2,15703, Note_on_c, 0, 60, 84
2,15727, Note_on_c, 0, 82, 0
2,15755, Note_on_c, 0, 60, 0
2,15803, Note_on_c, 0, 75, 77
2,15803, Note_on_c, 0, 80, 0
2,15928, Note_on_c, 0, 77, 74
2,15929, Note_on_c, 0, 68, 87
2,15930, Note_on_c, 0, 56, 79
2,15945, Note_on_c, 0, 75, 0
2,15977, Note_on_c, 0, 56, 0
2,16030, Note_on_c, 0, 78, 71
2,16055, Note_on_c, 0, 77, 0
2,16142, Note_on_c, 0, 77, 91
2,16161, Note_on_c, 0, 78, 0
2,16163, Note_on_c, 0, 61, 83
2,16249, Note_on_c, 0, 77, 0
2,16251, Note_on_c, 0, 75, 90
2,16262, Note_on_c, 0, 67, 83
2,16265, Note_on_c, 0, 68, 0
2,16327, Note_on_c, 0, 61, 0
2,16359, Note_on_c, 0, 65, 83
2,16365, Note_on_c, 0, 75, 0
2,16368, Note_on_c, 0, 73, 90
2,16375, Note_on_c, 0, 67, 0
2,16430, Note_on_c, 0, 73, 0
2,16455, Note_on_c, 0, 65, 0
2,16456, Note_on_c, 0, 75, 89
2,16459, Note_on_c, 0, 67, 87
2,16535, Note_on_c, 0, 75, 0
2,16572, Note_on_c, 0, 67, 0
2,16573, Note_on_c, 0, 84, 84
2,16581, Note_on_c, 0, 68, 87
2,16583, Note_on_c, 0, 60, 85
2,16618, Note_on_c, 0, 84, 0
2,16661, Note_on_c, 0, 68, 0
2,16688, Note_on_c, 0, 66, 79
2,16782, Note_on_c, 0, 66, 0
2,16796, Note_on_c, 0, 80, 89
2,16801, Note_on_c, 0, 60, 0
2,16805, Note_on_c, 0, 65, 80
2,16842, Note_on_c, 0, 80, 0
2,16910, Note_on_c, 0, 63, 82
2,16911, Note_on_c, 0, 65, 0
2,17005, Note_on_c, 0, 63, 0
2,17027, Note_on_c, 0, 75, 93
2,17038, Note_on_c, 0, 58, 75
2,17040, Note_on_c, 0, 65, 74
2,17077, Note_on_c, 0, 58, 0
2,17261, Note_on_c, 0, 73, 95
2,17264, Note_on_c, 0, 56, 65
2,17264, Note_on_c, 0, 75, 0
2,17301, Note_on_c, 0, 56, 0
2,17354, Note_on_c, 0, 73, 0
2,17356, Note_on_c, 0, 72, 86
2,17465, Note_on_c, 0, 73, 97
2,17470, Note_on_c, 0, 72, 0
2,17493, Note_on_c, 0, 55, 62
2,17518, Note_on_c, 0, 73, 0
2,17581, Note_on_c, 0, 63, 75
2,17581, Note_on_c, 0, 65, 0
2,17701, Note_on_c, 0, 82, 92
2,17705, Note_on_c, 0, 61, 67
2,17717, Note_on_c, 0, 63, 0
2,17751, Note_on_c, 0, 82, 0
2,17790, Note_on_c, 0, 55, 0
2,17800, Note_on_c, 0, 65, 72
2,17830, Note_on_c, 0, 61, 0
2,17912, Note_on_c, 0, 63, 70
2,17919, Note_on_c, 0, 72, 87
2,17921, Note_on_c, 0, 65, 0
2,17936, Note_on_c, 0, 56, 72
2,17975, Note_on_c, 0, 72, 0
2,18032, Note_on_c, 0, 61, 78
2,18054, Note_on_c, 0, 63, 0
2,18077, Note_on_c, 0, 56, 0
2,18134, Note_on_c, 0, 80, 90
2,18136, Note_on_c, 0, 61, 0
2,18142, Note_on_c, 0, 60, 77
2,18183, Note_on_c, 0, 80, 0
2,18188, Note_on_c, 0, 78, 5
2,18189, Note_on_c, 0, 78, 0
2,18224, Note_on_c, 0, 60, 0
2,18234, Note_on_c, 0, 63, 74
2,18293, Note_on_c, 0, 63, 0
2,18347, Note_on_c, 0, 61, 75
2,18354, Note_on_c, 0, 70, 84
2,18358, Note_on_c, 0, 51, 55
2,18389, Note_on_c, 0, 70, 0
2,18423, Note_on_c, 0, 61, 0
2,18442, Note_on_c, 0, 60, 71
2,18475, Note_on_c, 0, 60, 0
2,18552, Note_on_c, 0, 61, 73
2,18562, Note_on_c, 0, 79, 76
2,18606, Note_on_c, 0, 79, 0
2,18625, Note_on_c, 0, 61, 0
2,18669, Note_on_c, 0, 58, 70
2,18737, Note_on_c, 0, 51, 0
2,18782, Note_on_c, 0, 58, 0
2,18784, Note_on_c, 0, 68, 71
2,18792, Note_on_c, 0, 60, 61
2,18800, Note_on_c, 0, 56, 59
2,18821, Note_on_c, 0, 68, 0
2,18830, Note_on_c, 0, 60, 0
2,18880, Note_on_c, 0, 70, 63
2,19003, Note_on_c, 0, 72, 64
2,19018, Note_on_c, 0, 63, 71
2,19038, Note_on_c, 0, 70, 0
2,19058, Note_on_c, 0, 63, 0
2,19102, Note_on_c, 0, 72, 0
2,19104, Note_on_c, 0, 73, 62
2,19185, Note_on_c, 0, 73, 0
2,19239, Note_on_c, 0, 72, 67
2,19248, Note_on_c, 0, 68, 84
2,19267, Note_on_c, 0, 58, 42
2,19268, Note_on_c, 0, 58, 0
2,19345, Note_on_c, 0, 72, 0
2,19361, Note_on_c, 0, 70, 65
2,19445, Note_on_c, 0, 68, 0
2,19466, Note_on_c, 0, 70, 0
2,19471, Note_on_c, 0, 68, 63
2,19474, Note_on_c, 0, 63, 74
2,19546, Note_on_c, 0, 56, 0
2,19547, Note_on_c, 0, 68, 0
2,19581, Note_on_c, 0, 72, 69
2,19582, Note_on_c, 0, 63, 0
2,19588, Note_on_c, 0, 60, 70
2,19680, Note_on_c, 0, 60, 0
2,19682, Note_on_c, 0, 77, 81
2,19684, Note_on_c, 0, 72, 0
2,19694, Note_on_c, 0, 56, 71
2,19784, Note_on_c, 0, 75, 76
2,19804, Note_on_c, 0, 77, 0
2,19890, Note_on_c, 0, 56, 0
2,19903, Note_on_c, 0, 75, 0
2,19911, Note_on_c, 0, 59, 73
2,19914, Note_on_c, 0, 74, 75
2,19984, Note_on_c, 0, 74, 0
2,20006, Note_on_c, 0, 77, 74
2,20012, Note_on_c, 0, 59, 0
2,20027, Note_on_c, 0, 56, 62
2,20111, Note_on_c, 0, 56, 0
2,20119, Note_on_c, 0, 80, 82
2,20121, Note_on_c, 0, 53, 74
2,20128, Note_on_c, 0, 77, 0
2,20236, Note_on_c, 0, 78, 77
2,20252, Note_on_c, 0, 80, 0
2,20294, Note_on_c, 0, 53, 0
2,20333, Note_on_c, 0, 78, 0
2,20339, Note_on_c, 0, 77, 74
2,20341, Note_on_c, 0, 56, 68
2,20381, Note_on_c, 0, 77, 0
2,20416, Note_on_c, 0, 56, 0
2,20416, Note_on_c, 0, 80, 85
2,20447, Note_on_c, 0, 53, 57
2,20451, Note_on_c, 0, 80, 0
2,20509, Note_on_c, 0, 80, 80
2,20520, Note_on_c, 0, 53, 0
2,20527, Note_on_c, 0, 50, 70
2,20566, Note_on_c, 0, 82, 86
2,20584, Note_on_c, 0, 80, 0
2,20603, Note_on_c, 0, 83, 76
2,20617, Note_on_c, 0, 82, 0
2,20797, Note_on_c, 0, 82, 83
2,20802, Note_on_c, 0, 50, 0
2,20804, Note_on_c, 0, 53, 73
2,20840, Note_on_c, 0, 83, 0
2,20894, Note_on_c, 0, 80, 87
2,20912, Note_on_c, 0, 56, 72
2,20930, Note_on_c, 0, 53, 0
2,20935, Note_on_c, 0, 82, 0
2,20997, Note_on_c, 0, 78, 87
2,21012, Note_on_c, 0, 80, 0
2,21021, Note_on_c, 0, 56, 0
2,21031, Note_on_c, 0, 59, 66
2,21098, Note_on_c, 0, 77, 82
2,21105, Note_on_c, 0, 78, 0
2,21167, Note_on_c, 0, 77, 0
2,21210, Note_on_c, 0, 75, 81
2,21217, Note_on_c, 0, 53, 63
2,21252, Note_on_c, 0, 53, 0
2,21304, Note_on_c, 0, 75, 0
2,21305, Note_on_c, 0, 74, 72
2,21416, Note_on_c, 0, 75, 80
2,21428, Note_on_c, 0, 54, 70
2,21430, Note_on_c, 0, 58, 69
2,21432, Note_on_c, 0, 74, 0
2,21438, Note_on_c, 0, 59, 0
2,21462, Note_on_c, 0, 58, 0
2,21471, Note_on_c, 0, 54, 0
2,21524, Note_on_c, 0, 78, 78
2,21538, Note_on_c, 0, 75, 0
2,21605, Note_on_c, 0, 78, 0
2,21636, Note_on_c, 0, 77, 74
2,21639, Note_on_c, 0, 59, 81
2,21642, Note_on_c, 0, 56, 79
2,21674, Note_on_c, 0, 56, 0
2,21682, Note_on_c, 0, 59, 0
2,21748, Note_on_c, 0, 75, 80
2,21771, Note_on_c, 0, 77, 0
2,21854, Note_on_c, 0, 74, 79
2,21859, Note_on_c, 0, 58, 78
2,21868, Note_on_c, 0, 75, 0
2,21890, Note_on_c, 0, 58, 0
2,21950, Note_on_c, 0, 74, 0
2,21960, Note_on_c, 0, 77, 76
2,22051, Note_on_c, 0, 77, 0
2,22061, Note_on_c, 0, 46, 70
2,22064, Note_on_c, 0, 50, 68
2,22073, Note_on_c, 0, 70, 76
2,22091, Note_on_c, 0, 50, 0
2,22105, Note_on_c, 0, 46, 0
2,22144, Note_on_c, 0, 70, 0
2,22177, Note_on_c, 0, 68, 72
2,22274, Note_on_c, 0, 68, 0
2,22284, Note_on_c, 0, 66, 68
2,22293, Note_on_c, 0, 51, 47
2,22303, Note_on_c, 0, 39, 46
2,22367, Note_on_c, 0, 66, 0
2,22386, Note_on_c, 0, 65, 65
2,22470, Note_on_c, 0, 65, 0
2,22501, Note_on_c, 0, 63, 61
2,22598, Note_on_c, 0, 62, 63
2,22598, Note_on_c, 0, 63, 0
2,22679, Note_on_c, 0, 39, 0
2,22689, Note_on_c, 0, 51, 0
2,22707, Note_on_c, 0, 62, 0
2,22709, Note_on_c, 0, 63, 62
2,22749, Note_on_c, 0, 63, 0
2,22804, Note_on_c, 0, 65, 66
2,22872, Note_on_c, 0, 65, 0
2,22916, Note_on_c, 0, 66, 72
2,22927, Note_on_c, 0, 51, 71
2,22960, Note_on_c, 0, 51, 0
2,23022, Note_on_c, 0, 68, 70
2,23036, Note_on_c, 0, 66, 0
2,23099, Note_on_c, 0, 68, 0
2,23138, Note_on_c, 0, 54, 83
2,23141, Note_on_c, 0, 70, 74
2,23235, Note_on_c, 0, 53, 74
2,23235, Note_on_c, 0, 68, 80
2,23238, Note_on_c, 0, 54, 0
2,23258, Note_on_c, 0, 70, 0
2,23332, Note_on_c, 0, 66, 80
2,23335, Note_on_c, 0, 51, 76
2,23335, Note_on_c, 0, 53, 0
2,23343, Note_on_c, 0, 68, 0
2,23435, Note_on_c, 0, 68, 79
2,23437, Note_on_c, 0, 53, 80
2,23440, Note_on_c, 0, 51, 0
2,23463, Note_on_c, 0, 66, 0
2,23522, Note_on_c, 0, 53, 0
2,23547, Note_on_c, 0, 70, 74
2,23550, Note_on_c, 0, 68, 0
2,23551, Note_on_c, 0, 61, 85
2,23582, Note_on_c, 0, 61, 0
2,23650, Note_on_c, 0, 68, 77
2,23663, Note_on_c, 0, 70, 0
2,23755, Note_on_c, 0, 66, 71
2,23760, Note_on_c, 0, 68, 0
2,23776, Note_on_c, 0, 58, 76
2,23804, Note_on_c, 0, 58, 0
2,23849, Note_on_c, 0, 66, 0
2,23855, Note_on_c, 0, 65, 67
2,23965, Note_on_c, 0, 65, 0
2,23994, Note_on_c, 0, 53, 61
2,23995, Note_on_c, 0, 66, 75
2,24208, Note_on_c, 0, 53, 0
2,24212, Note_on_c, 0, 51, 79
2,24305, Note_on_c, 0, 49, 77
2,24306, Note_on_c, 0, 51, 0
2,24416, Note_on_c, 0, 51, 88
2,24422, Note_on_c, 0, 49, 0
2,24455, Note_on_c, 0, 51, 0
2,24533, Note_on_c, 0, 65, 67
2,24544, Note_on_c, 0, 66, 0
2,24612, Note_on_c, 0, 65, 0
2,24649, Note_on_c, 0, 63, 72
2,24652, Note_on_c, 0, 60, 83
2,24683, Note_on_c, 0, 60, 0
2,24750, Note_on_c, 0, 66, 71
2,24764, Note_on_c, 0, 63, 0
2,24832, Note_on_c, 0, 66, 0
2,24862, Note_on_c, 0, 49, 78
2,24868, Note_on_c, 0, 65, 72
2,24900, Note_on_c, 0, 49, 0
2,24968, Note_on_c, 0, 65, 0
2,24978, Note_on_c, 0, 63, 71
2,25082, Note_on_c, 0, 61, 69
2,25088, Note_on_c, 0, 58, 85
2,25104, Note_on_c, 0, 63, 0
2,25131, Note_on_c, 0, 58, 0
2,25181, Note_on_c, 0, 61, 0
2,25189, Note_on_c, 0, 65, 64
2,25299, Note_on_c, 0, 48, 74
2,25318, Note_on_c, 0, 63, 70
2,25332, Note_on_c, 0, 65, 0
2,25333, Note_on_c, 0, 48, 0
2,25412, Note_on_c, 0, 61, 68
2,25425, Note_on_c, 0, 63, 0
2,25524, Note_on_c, 0, 63, 64
2,25529, Note_on_c, 0, 57, 61
2,25532, Note_on_c, 0, 61, 0
2,25557, Note_on_c, 0, 57, 0
2,25599, Note_on_c, 0, 63, 0
2,25621, Note_on_c, 0, 60, 61
2,25710, Note_on_c, 0, 60, 0
2,25741, Note_on_c, 0, 61, 59
2,25754, Note_on_c, 0, 46, 49
2,25800, Note_on_c, 0, 46, 0
2,25839, Note_on_c, 0, 61, 0
2,25842, Note_on_c, 0, 65, 62
2,25966, Note_on_c, 0, 66, 77
2,25968, Note_on_c, 0, 65, 0
2,25975, Note_on_c, 0, 58, 59
2,26032, Note_on_c, 0, 66, 0
2,26050, Note_on_c, 0, 58, 0
2,26061, Note_on_c, 0, 65, 78
2,26085, Note_on_c, 0, 57, 55
2,26140, Note_on_c, 0, 65, 0
2,26178, Note_on_c, 0, 73, 80
2,26181, Note_on_c, 0, 57, 0
2,26183, Note_on_c, 0, 58, 62
2,26262, Note_on_c, 0, 58, 0
2,26299, Note_on_c, 0, 60, 64
2,26369, Note_on_c, 0, 60, 0
2,26400, Note_on_c, 0, 65, 68
2,26404, Note_on_c, 0, 61, 57
2,26437, Note_on_c, 0, 65, 0
2,26479, Note_on_c, 0, 61, 0
2,26493, Note_on_c, 0, 58, 59
2,26571, Note_on_c, 0, 58, 0
2,26611, Note_on_c, 0, 55, 48
2,26618, Note_on_c, 0, 70, 70
2,26681, Note_on_c, 0, 73, 0
2,26709, Note_on_c, 0, 55, 0
2,26723, Note_on_c, 0, 56, 68
2,26727, Note_on_c, 0, 72, 79
2,26770, Note_on_c, 0, 70, 0
2,26792, Note_on_c, 0, 56, 0
2,26821, Note_on_c, 0, 58, 71
2,26829, Note_on_c, 0, 73, 86
2,26842, Note_on_c, 0, 72, 0
2,26894, Note_on_c, 0, 73, 0
2,26904, Note_on_c, 0, 58, 0
2,26920, Note_on_c, 0, 55, 70
2,26921, Note_on_c, 0, 70, 86
2,27017, Note_on_c, 0, 70, 0
2,27036, Note_on_c, 0, 82, 92
2,27039, Note_on_c, 0, 55, 0
2,27040, Note_on_c, 0, 51, 66
2,27140, Note_on_c, 0, 51, 0
2,27142, Note_on_c, 0, 53, 64
2,27148, Note_on_c, 0, 73, 75
2,27166, Control_c, 0, 64, 24
2,27181, Control_c, 0, 64, 36
2,27197, Control_c, 0, 64, 43
2,27212, Control_c, 0, 64, 46
2,27216, Note_on_c, 0, 53, 0
2,27228, Control_c, 0, 64, 47
2,27240, Note_on_c, 0, 55, 72
2,27242, Control_c, 0, 64, 48
2,27262, Note_on_c, 0, 75, 79
2,27276, Note_on_c, 0, 82, 0
2,27279, Note_on_c, 0, 73, 0
2,27333, Control_c, 0, 64, 47
2,27344, Note_on_c, 0, 51, 65
2,27344, Note_on_c, 0, 70, 74
2,27348, Note_on_c, 0, 55, 0
2,27364, Control_c, 0, 64, 47
2,27378, Control_c, 0, 64, 46
2,27394, Control_c, 0, 64, 45
2,27397, Note_on_c, 0, 75, 0
2,27409, Control_c, 0, 64, 44
2,27424, Control_c, 0, 64, 42
2,27439, Note_on_c, 0, 70, 0
2,27440, Control_c, 0, 64, 40
2,27455, Control_c, 0, 64, 36
2,27476, Note_on_c, 0, 72, 77
2,27477, Note_on_c, 0, 44, 76
2,27478, Control_c, 0, 64, 31
2,27490, Note_on_c, 0, 51, 0
2,27493, Control_c, 0, 64, 23
2,27508, Control_c, 0, 64, 0
2,27512, Note_on_c, 0, 44, 0
2,27534, Note_on_c, 0, 72, 0
2,27575, Note_on_c, 0, 63, 78
2,27658, Note_on_c, 0, 63, 0
2,27681, Note_on_c, 0, 65, 75
2,27699, Note_on_c, 0, 56, 69
2,27778, Note_on_c, 0, 63, 82
2,27780, Note_on_c, 0, 65, 0
2,27782, Note_on_c, 0, 56, 0
2,27799, Note_on_c, 0, 55, 65
2,27871, Note_on_c, 0, 63, 0
2,27895, Note_on_c, 0, 72, 79
2,27904, Note_on_c, 0, 55, 0
2,27904, Note_on_c, 0, 56, 66
2,27995, Note_on_c, 0, 56, 0
2,28011, Note_on_c, 0, 58, 66
2,28082, Note_on_c, 0, 58, 0
2,28110, Note_on_c, 0, 63, 70
2,28118, Note_on_c, 0, 60, 66
2,28139, Note_on_c, 0, 63, 0
2,28176, Note_on_c, 0, 60, 0
2,28210, Note_on_c, 0, 56, 58
2,28322, Note_on_c, 0, 68, 66
2,28338, Note_on_c, 0, 53, 61
2,28343, Note_on_c, 0, 56, 0
2,28425, Note_on_c, 0, 72, 0
2,28426, Note_on_c, 0, 70, 78
2,28434, Note_on_c, 0, 55, 77
2,28437, Note_on_c, 0, 53, 0
2,28514, Note_on_c, 0, 55, 0
2,28522, Note_on_c, 0, 72, 87
2,28525, Note_on_c, 0, 70, 0
2,28538, Note_on_c, 0, 56, 84
2,28556, Note_on_c, 0, 68, 0
2,28604, Note_on_c, 0, 72, 0
2,28630, Note_on_c, 0, 68, 92
2,28633, Note_on_c, 0, 56, 0
2,28638, Note_on_c, 0, 53, 71
2,28709, Note_on_c, 0, 68, 0
2,28724, Note_on_c, 0, 80, 85
2,28739, Note_on_c, 0, 53, 0
2,28745, Note_on_c, 0, 49, 77
2,28834, Note_on_c, 0, 72, 77
2,28849, Note_on_c, 0, 51, 73
2,28888, Note_on_c, 0, 49, 0
2,28898, Note_on_c, 0, 80, 0
2,28922, Note_on_c, 0, 51, 0
2,28928, Note_on_c, 0, 53, 79
2,28941, Note_on_c, 0, 73, 86
2,28965, Note_on_c, 0, 72, 0
2,29014, Note_on_c, 0, 53, 0
2,29041, Note_on_c, 0, 73, 0
2,29045, Note_on_c, 0, 49, 69
2,29052, Note_on_c, 0, 68, 67
2,29118, Note_on_c, 0, 68, 0
2,29143, Note_on_c, 0, 49, 0
2,29149, Note_on_c, 0, 43, 71
2,29167, Note_on_c, 0, 70, 71
2,29186, Note_on_c, 0, 43, 0
2,29229, Note_on_c, 0, 70, 0
2,29264, Note_on_c, 0, 61, 74
2,29333, Note_on_c, 0, 61, 0
2,29375, Note_on_c, 0, 63, 64
2,29398, Note_on_c, 0, 55, 62
2,29442, Note_on_c, 0, 55, 0
2,29457, Note_on_c, 0, 63, 0
2,29469, Note_on_c, 0, 61, 71
2,29486, Note_on_c, 0, 53, 59
2,29561, Note_on_c, 0, 53, 0
2,29564, Note_on_c, 0, 61, 0
2,29593, Note_on_c, 0, 70, 73
2,29597, Note_on_c, 0, 55, 64
2,29665, Note_on_c, 0, 55, 0
2,29699, Note_on_c, 0, 56, 66
2,29809, Note_on_c, 0, 58, 71
2,29813, Note_on_c, 0, 56, 0
2,29831, Note_on_c, 0, 61, 75
2,29863, Note_on_c, 0, 61, 0
2,29869, Note_on_c, 0, 58, 0
2,29912, Note_on_c, 0, 55, 62
2,29999, Note_on_c, 0, 55, 0
2,30033, Note_on_c, 0, 67, 77
2,30037, Note_on_c, 0, 52, 67
2,30062, Note_on_c, 0, 70, 0
2,30135, Note_on_c, 0, 68, 84
2,30138, Note_on_c, 0, 53, 75
2,30158, Note_on_c, 0, 52, 0
2,30172, Note_on_c, 0, 67, 0
2,30217, Note_on_c, 0, 53, 0
2,30237, Note_on_c, 0, 55, 73
2,30243, Note_on_c, 0, 70, 84
2,30250, Note_on_c, 0, 68, 0
2,30309, Note_on_c, 0, 70, 0
2,30320, Note_on_c, 0, 55, 0
2,30333, Note_on_c, 0, 52, 72
2,30337, Note_on_c, 0, 67, 85
2,30421, Note_on_c, 0, 52, 0
2,30423, Note_on_c, 0, 67, 0
2,30442, Note_on_c, 0, 48, 79
2,30445, Note_on_c, 0, 79, 86
2,30551, Note_on_c, 0, 70, 77
2,30552, Note_on_c, 0, 50, 73
2,30553, Note_on_c, 0, 48, 0
2,30618, Note_on_c, 0, 50, 0
2,30648, Note_on_c, 0, 52, 78
2,30653, Note_on_c, 0, 72, 76
2,30672, Note_on_c, 0, 70, 0
2,30723, Note_on_c, 0, 52, 0
2,30732, Note_on_c, 0, 48, 78
2,30750, Note_on_c, 0, 67, 75
2,30756, Note_on_c, 0, 72, 0
2,30781, Note_on_c, 0, 67, 0
2,30787, Note_on_c, 0, 79, 0
2,30813, Note_on_c, 0, 79, 17
2,30837, Note_on_c, 0, 48, 0
2,30850, Note_on_c, 0, 41, 80
2,30850, Note_on_c, 0, 68, 89
2,30924, Note_on_c, 0, 79, 0
2,30946, Note_on_c, 0, 68, 0
2,30955, Note_on_c, 0, 43, 82
2,30958, Note_on_c, 0, 76, 82
2,30971, Note_on_c, 0, 41, 0
2,31055, Note_on_c, 0, 44, 83
2,31058, Note_on_c, 0, 77, 87
2,31084, Note_on_c, 0, 43, 0
2,31092, Note_on_c, 0, 76, 0
2,31162, Note_on_c, 0, 46, 83
2,31165, Note_on_c, 0, 73, 85
2,31181, Note_on_c, 0, 77, 0
2,31191, Note_on_c, 0, 44, 0
2,31256, Note_on_c, 0, 46, 0
2,31267, Note_on_c, 0, 48, 82
2,31274, Note_on_c, 0, 70, 87
2,31281, Note_on_c, 0, 73, 0
2,31345, Note_on_c, 0, 70, 0
2,31356, Note_on_c, 0, 48, 0
2,31374, Note_on_c, 0, 50, 81
2,31379, Note_on_c, 0, 70, 69
2,31487, Note_on_c, 0, 52, 81
2,31489, Note_on_c, 0, 50, 0
2,31499, Note_on_c, 0, 60, 91
2,31523, Note_on_c, 0, 71, 38
2,31524, Note_on_c, 0, 71, 0
2,31531, Note_on_c, 0, 60, 0
2,31571, Note_on_c, 0, 52, 0
2,31598, Note_on_c, 0, 48, 76
2,31701, Note_on_c, 0, 48, 0
2,31714, Note_on_c, 0, 61, 100
2,31717, Note_on_c, 0, 53, 87
2,31806, Note_on_c, 0, 53, 0
2,31819, Note_on_c, 0, 51, 81
2,31822, Note_on_c, 0, 60, 88
2,31830, Note_on_c, 0, 61, 0
2,31845, Note_on_c, 0, 70, 0
2,31920, Note_on_c, 0, 58, 92
2,31922, Note_on_c, 0, 49, 78
2,31923, Note_on_c, 0, 51, 0
2,31928, Note_on_c, 0, 60, 0
2,31950, Note_on_c, 0, 61, 47
2,31966, Note_on_c, 0, 58, 0
2,31978, Note_on_c, 0, 61, 0
2,32018, Note_on_c, 0, 60, 85
2,32024, Note_on_c, 0, 51, 80
2,32052, Note_on_c, 0, 49, 0
2,32131, Note_on_c, 0, 51, 0
2,32132, Note_on_c, 0, 60, 0
2,32144, Note_on_c, 0, 53, 79
2,32147, Note_on_c, 0, 68, 93
2,32239, Note_on_c, 0, 53, 0
2,32246, Note_on_c, 0, 51, 78
2,32363, Note_on_c, 0, 65, 85
2,32366, Note_on_c, 0, 49, 79
2,32371, Note_on_c, 0, 51, 0
2,32407, Note_on_c, 0, 65, 0
2,32440, Note_on_c, 0, 49, 0
2,32474, Note_on_c, 0, 48, 69
2,32562, Note_on_c, 0, 48, 0
2,32589, Note_on_c, 0, 60, 92
2,32600, Note_on_c, 0, 49, 85
2,32813, Note_on_c, 0, 58, 85
2,32818, Note_on_c, 0, 60, 0
2,32832, Note_on_c, 0, 68, 0
2,32852, Note_on_c, 0, 61, 46
2,32895, Note_on_c, 0, 61, 0
2,32922, Note_on_c, 0, 56, 85
2,32932, Note_on_c, 0, 58, 0
2,32994, Note_on_c, 0, 56, 0
2,33025, Note_on_c, 0, 58, 81
2,33034, Note_on_c, 0, 67, 83
2,33112, Note_on_c, 0, 67, 0
2,33142, Note_on_c, 0, 48, 69
2,33153, Note_on_c, 0, 49, 0
2,33246, Note_on_c, 0, 67, 85
2,33250, Note_on_c, 0, 48, 0
2,33253, Note_on_c, 0, 46, 75
2,33329, Note_on_c, 0, 67, 0
2,33356, Note_on_c, 0, 58, 0
2,33367, Note_on_c, 0, 49, 75
2,33396, Note_on_c, 0, 46, 0
2,33459, Note_on_c, 0, 49, 0
2,33470, Note_on_c, 0, 56, 88
2,33477, Note_on_c, 0, 48, 78
2,33535, Note_on_c, 0, 56, 0
2,33564, Note_on_c, 0, 48, 0
2,33571, Note_on_c, 0, 46, 81
2,33678, Note_on_c, 0, 44, 82
2,33680, Note_on_c, 0, 46, 0
2,33698, Note_on_c, 0, 65, 84
2,33766, Note_on_c, 0, 65, 0
2,33768, Note_on_c, 0, 44, 0
2,33775, Note_on_c, 0, 48, 76
2,33850, Note_on_c, 0, 48, 0
2,33883, Note_on_c, 0, 46, 75
2,33902, Note_on_c, 0, 55, 84
2,33902, Note_on_c, 0, 64, 85
2,33951, Note_on_c, 0, 55, 0
2,33970, Note_on_c, 0, 46, 0
2,33979, Note_on_c, 0, 44, 70
2,34003, Note_on_c, 0, 64, 0
2,34071, Note_on_c, 0, 44, 0
2,34090, Note_on_c, 0, 46, 69
2,34121, Note_on_c, 0, 67, 93
2,34126, Note_on_c, 0, 64, 80
2,34151, Note_on_c, 0, 64, 0
2,34167, Note_on_c, 0, 67, 0
2,34195, Note_on_c, 0, 46, 0
2,34215, Note_on_c, 0, 43, 66
2,34323, Note_on_c, 0, 43, 0
2,34348, Note_on_c, 0, 72, 74
2,34357, Note_on_c, 0, 44, 60
2,34364, Note_on_c, 0, 53, 62
2,34419, Note_on_c, 0, 44, 0
2,34451, Note_on_c, 0, 72, 0
2,34466, Note_on_c, 0, 70, 68
2,34561, Note_on_c, 0, 68, 61
2,34567, Note_on_c, 0, 70, 0
2,34579, Note_on_c, 0, 49, 61
2,34615, Note_on_c, 0, 49, 0
2,34671, Note_on_c, 0, 72, 66
2,34695, Note_on_c, 0, 68, 0
2,34780, Note_on_c, 0, 72, 0
2,34790, Note_on_c, 0, 43, 63
2,34797, Note_on_c, 0, 70, 66
2,34825, Note_on_c, 0, 43, 0
2,34900, Note_on_c, 0, 70, 0
2,34905, Note_on_c, 0, 68, 60
2,34973, Note_on_c, 0, 53, 0
2,35000, Note_on_c, 0, 53, 11
2,35005, Note_on_c, 0, 48, 63
2,35005, Note_on_c, 0, 67, 65
2,35009, Note_on_c, 0, 52, 57
2,35009, Note_on_c, 0, 68, 0
2,35020, Note_on_c, 0, 53, 0
2,35035, Note_on_c, 0, 52, 0
2,35046, Note_on_c, 0, 48, 0
2,35096, Note_on_c, 0, 67, 0
2,35103, Note_on_c, 0, 70, 69
2,35209, Note_on_c, 0, 70, 0
2,35218, Note_on_c, 0, 68, 77
2,35231, Note_on_c, 0, 53, 81
2,35235, Note_on_c, 0, 41, 70
2,35265, Note_on_c, 0, 53, 0
2,35266, Note_on_c, 0, 41, 0
2,35313, Note_on_c, 0, 68, 0
2,35326, Note_on_c, 0, 65, 74
2,35412, Note_on_c, 0, 65, 0
2,35437, Note_on_c, 0, 52, 84
2,35443, Note_on_c, 0, 46, 78
2,35451, Note_on_c, 0, 73, 90
2,35473, Note_on_c, 0, 52, 0
2,35490, Note_on_c, 0, 46, 0
2,35548, Note_on_c, 0, 70, 81
2,35585, Note_on_c, 0, 73, 0
2,35653, Note_on_c, 0, 53, 86
2,35655, Note_on_c, 0, 44, 86
2,35658, Note_on_c, 0, 72, 72
2,35679, Note_on_c, 0, 70, 0
2,35688, Note_on_c, 0, 44, 0
2,35700, Note_on_c, 0, 53, 0
2,35732, Note_on_c, 0, 72, 0
2,35753, Note_on_c, 0, 68, 86
2,35843, Note_on_c, 0, 68, 0
2,35869, Note_on_c, 0, 58, 93
2,35870, Note_on_c, 0, 78, 90
2,35872, Note_on_c, 0, 49, 87
2,35929, Note_on_c, 0, 58, 0
2,35939, Note_on_c, 0, 49, 0
2,35971, Note_on_c, 0, 78, 0
2,35992, Note_on_c, 0, 76, 86
2,36041, Note_on_c, 0, 76, 0
2,36089, Note_on_c, 0, 76, 91
2,36105, Note_on_c, 0, 56, 89
2,36111, Note_on_c, 0, 48, 81
2,36198, Note_on_c, 0, 77, 98
2,36202, Note_on_c, 0, 76, 0
2,36305, Note_on_c, 0, 83, 96
2,36319, Note_on_c, 0, 55, 87
2,36322, Note_on_c, 0, 77, 0
2,36344, Note_on_c, 0, 56, 0
2,36407, Note_on_c, 0, 84, 89
2,36415, Note_on_c, 0, 53, 78
2,36432, Note_on_c, 0, 83, 0
2,36442, Note_on_c, 0, 55, 0
2,36504, Note_on_c, 0, 84, 0
2,36509, Note_on_c, 0, 76, 82
2,36532, Note_on_c, 0, 76, 0
2,36542, Note_on_c, 0, 55, 90
2,36550, Note_on_c, 0, 77, 90
2,36563, Note_on_c, 0, 53, 0
2,36612, Note_on_c, 0, 77, 0
2,36614, Note_on_c, 0, 76, 86
2,36657, Note_on_c, 0, 77, 83
2,36679, Note_on_c, 0, 76, 0
2,36706, Note_on_c, 0, 77, 0
2,36709, Note_on_c, 0, 76, 83
2,36803, Note_on_c, 0, 48, 0
2,36810, Note_on_c, 0, 58, 93
2,36818, Note_on_c, 0, 55, 0
2,36860, Note_on_c, 0, 76, 0
2,36920, Note_on_c, 0, 77, 96
2,36961, Note_on_c, 0, 77, 0
2,37025, Note_on_c, 0, 77, 96
2,37035, Note_on_c, 0, 58, 0
2,37040, Note_on_c, 0, 56, 75
2,37044, Note_on_c, 0, 53, 66
2,37143, Note_on_c, 0, 58, 75
2,37180, Note_on_c, 0, 56, 0
2,37242, Note_on_c, 0, 58, 0
2,37257, Note_on_c, 0, 60, 75
2,37307, Note_on_c, 0, 53, 0
2,37355, Note_on_c, 0, 60, 0
2,37359, Note_on_c, 0, 56, 74
2,37364, Note_on_c, 0, 77, 0
2,37449, Note_on_c, 0, 56, 0
2,37462, Note_on_c, 0, 53, 64
2,37567, Note_on_c, 0, 54, 74
2,37568, Note_on_c, 0, 53, 0
2,37651, Note_on_c, 0, 54, 0
2,37676, Note_on_c, 0, 56, 69
2,37683, Note_on_c, 0, 77, 66
2,37688, Note_on_c, 0, 76, 69
2,37714, Note_on_c, 0, 77, 0
2,37716, Note_on_c, 0, 76, 0
2,37732, Note_on_c, 0, 56, 0
2,37784, Note_on_c, 0, 53, 60
2,37878, Note_on_c, 0, 53, 0
2,37890, Note_on_c, 0, 50, 67
2,37890, Note_on_c, 0, 71, 84
2,37979, Note_on_c, 0, 50, 0
2,37980, Note_on_c, 0, 71, 0
2,37998, Note_on_c, 0, 70, 82
2,38009, Note_on_c, 0, 51, 64
2,38073, Note_on_c, 0, 70, 0
2,38076, Note_on_c, 0, 51, 0
2,38098, Note_on_c, 0, 68, 82
2,38113, Note_on_c, 0, 53, 65
2,38156, Note_on_c, 0, 68, 0
2,38178, Note_on_c, 0, 53, 0
2,38194, Note_on_c, 0, 70, 76
2,38200, Note_on_c, 0, 50, 64
2,38295, Note_on_c, 0, 50, 0
2,38312, Note_on_c, 0, 77, 80
2,38315, Note_on_c, 0, 70, 0
2,38318, Note_on_c, 0, 46, 67
2,38359, Note_on_c, 0, 77, 0
2,38406, Note_on_c, 0, 46, 0
2,38416, Note_on_c, 0, 50, 70
2,38533, Note_on_c, 0, 50, 0
2,38533, Note_on_c, 0, 74, 86
2,38537, Note_on_c, 0, 53, 73
2,38570, Note_on_c, 0, 74, 0
2,38603, Note_on_c, 0, 53, 0
2,38648, Note_on_c, 0, 58, 69
2,38732, Note_on_c, 0, 58, 0
2,38754, Note_on_c, 0, 68, 85
2,38778, Note_on_c, 0, 51, 58
2,38870, Note_on_c, 0, 51, 0
2,38871, Note_on_c, 0, 54, 66
2,38959, Note_on_c, 0, 68, 0
2,38966, Note_on_c, 0, 66, 85
2,38984, Note_on_c, 0, 54, 0
2,38984, Note_on_c, 0, 58, 71
2,39032, Note_on_c, 0, 66, 0
2,39050, Note_on_c, 0, 58, 0
2,39071, Note_on_c, 0, 65, 77
2,39114, Note_on_c, 0, 62, 49
2,39136, Note_on_c, 0, 65, 0
2,39159, Note_on_c, 0, 62, 0
2,39176, Note_on_c, 0, 66, 82
2,39191, Note_on_c, 0, 63, 65
2,39218, Note_on_c, 0, 66, 0
2,39275, Note_on_c, 0, 63, 0
2,39292, Note_on_c, 0, 65, 66
2,39377, Note_on_c, 0, 65, 0
2,39399, Note_on_c, 0, 75, 82
2,39411, Note_on_c, 0, 66, 61
2,39441, Note_on_c, 0, 71, 28
2,39443, Note_on_c, 0, 71, 0
2,39454, Note_on_c, 0, 75, 0
2,39488, Note_on_c, 0, 66, 0
2,39496, Note_on_c, 0, 63, 72
2,39586, Note_on_c, 0, 63, 0
2,39608, Note_on_c, 0, 60, 69
2,39627, Note_on_c, 0, 69, 82
2,39706, Note_on_c, 0, 69, 0
2,39708, Note_on_c, 0, 60, 0
2,39711, Note_on_c, 0, 61, 72
2,39729, Note_on_c, 0, 68, 82
2,39790, Note_on_c, 0, 61, 0
2,39805, Note_on_c, 0, 68, 0
2,39831, Note_on_c, 0, 66, 86
2,39839, Note_on_c, 0, 63, 68
2,39892, Note_on_c, 0, 66, 0
2,39895, Note_on_c, 0, 63, 0
2,39930, Note_on_c, 0, 68, 79
2,39934, Note_on_c, 0, 60, 70
2,39969, Note_on_c, 0, 60, 0
2,40044, Note_on_c, 0, 68, 0
2,40059, Note_on_c, 0, 56, 51
2,40063, Note_on_c, 0, 74, 72
2,40087, Note_on_c, 0, 58, 19
2,40115, Note_on_c, 0, 58, 0
2,40122, Note_on_c, 0, 74, 0
2,40153, Note_on_c, 0, 44, 75
2,40191, Note_on_c, 0, 56, 0
2,40251, Note_on_c, 0, 46, 73
2,40288, Note_on_c, 0, 72, 84
2,40303, Note_on_c, 0, 44, 0
2,40328, Note_on_c, 0, 72, 0
2,40380, Note_on_c, 0, 48, 71
2,40408, Note_on_c, 0, 46, 0
2,40488, Note_on_c, 0, 66, 86
2,40507, Note_on_c, 0, 49, 49
2,40565, Note_on_c, 0, 48, 0
2,40634, Note_on_c, 0, 56, 69
2,40708, Note_on_c, 0, 56, 0
2,40711, Note_on_c, 0, 66, 0
2,40720, Note_on_c, 0, 65, 80
2,40730, Note_on_c, 0, 58, 71
2,40815, Note_on_c, 0, 65, 0
2,40820, Note_on_c, 0, 63, 84
2,40827, Note_on_c, 0, 60, 81
2,40845, Note_on_c, 0, 58, 0
2,40857, Note_on_c, 0, 60, 0
2,40880, Note_on_c, 0, 63, 0
2,40946, Note_on_c, 0, 65, 78
2,40952, Note_on_c, 0, 61, 83
2,41043, Note_on_c, 0, 68, 88
2,41062, Note_on_c, 0, 51, 70
2,41094, Note_on_c, 0, 49, 0
2,41151, Note_on_c, 0, 73, 91
2,41156, Note_on_c, 0, 53, 69
2,41177, Note_on_c, 0, 68, 0
2,41214, Note_on_c, 0, 51, 0
2,41248, Note_on_c, 0, 75, 86
2,41251, Note_on_c, 0, 55, 80
2,41254, Note_on_c, 0, 53, 0
2,41291, Note_on_c, 0, 73, 0
2,41294, Note_on_c, 0, 55, 0
2,41319, Note_on_c, 0, 65, 0
2,41368, Note_on_c, 0, 77, 89
2,41379, Note_on_c, 0, 56, 86
2,41402, Note_on_c, 0, 61, 0
2,41405, Note_on_c, 0, 75, 0
2,41468, Note_on_c, 0, 75, 85
2,41475, Note_on_c, 0, 55, 83
2,41496, Note_on_c, 0, 77, 0
2,41509, Note_on_c, 0, 56, 0
2,41561, Note_on_c, 0, 73, 89
2,41573, Note_on_c, 0, 55, 0
2,41583, Note_on_c, 0, 53, 73
2,41583, Note_on_c, 0, 75, 0
2,41663, Note_on_c, 0, 75, 95
2,41666, Note_on_c, 0, 55, 83
2,41680, Note_on_c, 0, 53, 0
2,41689, Note_on_c, 0, 73, 0
2,41732, Note_on_c, 0, 75, 0
2,41735, Note_on_c, 0, 55, 0
2,41759, Note_on_c, 0, 56, 91
2,41778, Note_on_c, 0, 72, 91
2,41786, Note_on_c, 0, 84, 87
2,41817, Note_on_c, 0, 84, 0
2,41827, Note_on_c, 0, 56, 0
2,41860, Note_on_c, 0, 55, 72
2,41888, Note_on_c, 0, 72, 0
2,41888, Note_on_c, 0, 72, 14
2,41993, Note_on_c, 0, 53, 75
2,42001, Note_on_c, 0, 55, 0
2,42001, Note_on_c, 0, 80, 101
2,42051, Note_on_c, 0, 80, 0
2,42088, Note_on_c, 0, 53, 0
2,42096, Note_on_c, 0, 51, 72
2,42211, Note_on_c, 0, 51, 0
2,42224, Note_on_c, 0, 53, 78
2,42233, Note_on_c, 0, 75, 92
2,42373, Note_on_c, 0, 72, 0
2,42469, Note_on_c, 0, 73, 94
2,42488, Note_on_c, 0, 75, 0
2,42568, Note_on_c, 0, 72, 89
2,42575, Note_on_c, 0, 73, 0
2,42671, Note_on_c, 0, 70, 77
2,42671, Note_on_c, 0, 73, 91
2,42675, Note_on_c, 0, 72, 0
2,42709, Note_on_c, 0, 73, 0
2,42780, Note_on_c, 0, 51, 72
2,42809, Note_on_c, 0, 53, 0
2,42881, Note_on_c, 0, 82, 87
2,42888, Note_on_c, 0, 49, 75
2,42909, Note_on_c, 0, 51, 0
2,42935, Note_on_c, 0, 78, 4
2,42936, Note_on_c, 0, 78, 0
2,42948, Note_on_c, 0, 82, 0
2,42995, Note_on_c, 0, 53, 73
2,42998, Note_on_c, 0, 49, 0
2,43066, Note_on_c, 0, 70, 0
2,43088, Note_on_c, 0, 53, 0
2,43097, Note_on_c, 0, 51, 76
2,43097, Note_on_c, 0, 72, 85
2,43148, Note_on_c, 0, 72, 0
2,43194, Note_on_c, 0, 49, 75
2,43210, Note_on_c, 0, 51, 0
2,43304, Note_on_c, 0, 49, 0
2,43314, Note_on_c, 0, 80, 80
2,43319, Note_on_c, 0, 48, 73
2,43320, Note_on_c, 0, 68, 76
2,43358, Note_on_c, 0, 68, 0
2,43375, Note_on_c, 0, 80, 0
2,43388, Note_on_c, 0, 48, 0
2,43420, Note_on_c, 0, 51, 71
2,43492, Note_on_c, 0, 51, 0
2,43526, Note_on_c, 0, 49, 68
2,43533, Note_on_c, 0, 70, 79
2,43538, Note_on_c, 0, 67, 64
2,43583, Note_on_c, 0, 70, 0
2,43629, Note_on_c, 0, 48, 71
2,43634, Note_on_c, 0, 49, 0
2,43722, Note_on_c, 0, 48, 0
2,43734, Note_on_c, 0, 46, 63
2,43757, Note_on_c, 0, 70, 81
2,43759, Note_on_c, 0, 79, 78
2,43786, Note_on_c, 0, 67, 0
2,43787, Note_on_c, 0, 79, 0
2,43815, Note_on_c, 0, 70, 0
2,43846, Note_on_c, 0, 46, 0
2,43859, Note_on_c, 0, 49, 69
2,43914, Note_on_c, 0, 49, 0
2,43970, Note_on_c, 0, 68, 73
2,43982, Note_on_c, 0, 63, 64
2,43985, Note_on_c, 0, 48, 50
2,44015, Note_on_c, 0, 63, 0
2,44051, Note_on_c, 0, 68, 0
2,44086, Note_on_c, 0, 63, 76
2,44147, Note_on_c, 0, 63, 0
2,44180, Note_on_c, 0, 48, 0
2,44194, Note_on_c, 0, 65, 66
2,44209, Note_on_c, 0, 51, 62
2,44230, Note_on_c, 0, 65, 0
2,44293, Note_on_c, 0, 67, 60
2,44391, Note_on_c, 0, 67, 0
2,44397, Note_on_c, 0, 51, 0
2,44398, Note_on_c, 0, 68, 66
2,44412, Note_on_c, 0, 54, 76
2,44478, Note_on_c, 0, 68, 0
2,44513, Note_on_c, 0, 70, 62
2,44612, Note_on_c, 0, 56, 78
2,44618, Note_on_c, 0, 70, 0
2,44620, Note_on_c, 0, 72, 72
2,44644, Note_on_c, 0, 56, 0
2,44676, Note_on_c, 0, 72, 0
2,44727, Note_on_c, 0, 68, 69
2,44795, Note_on_c, 0, 68, 0
2,44846, Note_on_c, 0, 73, 74
2,44847, Note_on_c, 0, 58, 87
2,44920, Note_on_c, 0, 73, 0
2,44936, Note_on_c, 0, 56, 85
2,44940, Note_on_c, 0, 72, 79
2,44948, Note_on_c, 0, 54, 0
2,44960, Note_on_c, 0, 58, 0
2,45034, Note_on_c, 0, 54, 86
2,45034, Note_on_c, 0, 56, 0
2,45049, Note_on_c, 0, 70, 80
2,45060, Note_on_c, 0, 72, 0
2,45133, Note_on_c, 0, 56, 83
2,45158, Note_on_c, 0, 72, 78
2,45168, Note_on_c, 0, 70, 0
2,45176, Note_on_c, 0, 54, 0
2,45271, Note_on_c, 0, 53, 82
2,45275, Note_on_c, 0, 73, 81
2,45278, Note_on_c, 0, 65, 69
2,45278, Note_on_c, 0, 72, 0
2,45290, Note_on_c, 0, 56, 0
2,45295, Note_on_c, 0, 67, 51
2,45306, Note_on_c, 0, 65, 0
2,45315, Note_on_c, 0, 67, 0
2,45369, Note_on_c, 0, 72, 76
2,45373, Note_on_c, 0, 73, 0
2,45475, Note_on_c, 0, 72, 0
2,45482, Note_on_c, 0, 70, 71
2,45509, Note_on_c, 0, 61, 91
2,45558, Note_on_c, 0, 61, 0
2,45589, Note_on_c, 0, 70, 0
2,45599, Note_on_c, 0, 68, 64
2,45700, Note_on_c, 0, 68, 0
2,45742, Note_on_c, 0, 56, 87
2,45754, Note_on_c, 0, 70, 74
2,45988, Note_on_c, 0, 53, 0
2,45996, Note_on_c, 0, 54, 87
2,46003, Note_on_c, 0, 56, 0
2,46096, Note_on_c, 0, 53, 83
2,46096, Note_on_c, 0, 54, 0
2,46196, Note_on_c, 0, 54, 85
2,46222, Note_on_c, 0, 53, 0
2,46226, Note_on_c, 0, 51, 76
2,46256, Note_on_c, 0, 54, 0
2,46320, Note_on_c, 0, 68, 78
2,46378, Note_on_c, 0, 70, 0
2,46400, Note_on_c, 0, 68, 0
2,46428, Note_on_c, 0, 63, 86
2,46430, Note_on_c, 0, 66, 77
2,46468, Note_on_c, 0, 63, 0
2,46536, Note_on_c, 0, 70, 71
2,46542, Note_on_c, 0, 66, 0
2,46639, Note_on_c, 0, 53, 79
2,46647, Note_on_c, 0, 68, 79
2,46678, Note_on_c, 0, 51, 0
2,46699, Note_on_c, 0, 70, 0
2,46713, Note_on_c, 0, 53, 0
2,46758, Note_on_c, 0, 66, 72
2,46762, Note_on_c, 0, 68, 0
2,46868, Note_on_c, 0, 61, 78
2,46868, Note_on_c, 0, 65, 72
2,46874, Note_on_c, 0, 66, 0
2,46875, Note_on_c, 0, 49, 72
2,46902, Note_on_c, 0, 61, 0
2,46974, Note_on_c, 0, 68, 67
2,46975, Note_on_c, 0, 65, 0
2,47075, Note_on_c, 0, 49, 0
2,47087, Note_on_c, 0, 66, 79
2,47091, Note_on_c, 0, 51, 67
2,47146, Note_on_c, 0, 68, 0
2,47188, Note_on_c, 0, 65, 76
2,47210, Note_on_c, 0, 51, 0
2,47229, Note_on_c, 0, 66, 0
2,47246, Note_on_c, 0, 65, 0
2,47302, Note_on_c, 0, 60, 81
2,47314, Note_on_c, 0, 44, 62
2,47318, Note_on_c, 0, 63, 72
2,47356, Note_on_c, 0, 60, 0
2,47409, Note_on_c, 0, 66, 77
2,47428, Note_on_c, 0, 63, 0
2,47452, Note_on_c, 0, 63, 2
2,47453, Note_on_c, 0, 63, 0
2,47489, Note_on_c, 0, 66, 0
2,47518, Note_on_c, 0, 65, 63
2,47520, Note_on_c, 0, 61, 70
2,47536, Note_on_c, 0, 49, 70
2,47542, Note_on_c, 0, 44, 0
2,47565, Note_on_c, 0, 61, 0
2,47646, Note_on_c, 0, 49, 0
2,47648, Note_on_c, 0, 51, 65
2,47676, Note_on_c, 0, 65, 0
2,47723, Note_on_c, 0, 51, 0
2,47736, Note_on_c, 0, 68, 73
2,47755, Note_on_c, 0, 53, 64
2,47783, Note_on_c, 0, 68, 0
2,47798, Note_on_c, 0, 53, 0
2,47832, Note_on_c, 0, 54, 71
2,47894, Note_on_c, 0, 54, 0
2,47932, Note_on_c, 0, 53, 59
2,47955, Note_on_c, 0, 73, 72
2,47997, Note_on_c, 0, 53, 0
2,48047, Note_on_c, 0, 51, 55
2,48143, Note_on_c, 0, 51, 0
2,48149, Note_on_c, 0, 49, 65
2,48161, Note_on_c, 0, 80, 80
2,48193, Note_on_c, 0, 73, 0
2,48230, Note_on_c, 0, 49, 0
2,48263, Note_on_c, 0, 53, 67
2,48269, Note_on_c, 0, 77, 79
2,48278, Note_on_c, 0, 80, 0
2,48298, Note_on_c, 0, 78, 33
2,48312, Note_on_c, 0, 78, 0
2,48334, Note_on_c, 0, 53, 0
2,48364, Note_on_c, 0, 58, 69
2,48374, Note_on_c, 0, 73, 83
2,48389, Note_on_c, 0, 77, 0
2,48463, Note_on_c, 0, 58, 0
2,48470, Note_on_c, 0, 56, 63
2,48562, Note_on_c, 0, 56, 0
2,48566, Note_on_c, 0, 55, 66
2,48599, Note_on_c, 0, 76, 77
2,48618, Note_on_c, 0, 73, 0
2,48681, Note_on_c, 0, 58, 76
2,48694, Note_on_c, 0, 55, 0
2,48700, Note_on_c, 0, 73, 85
2,48709, Note_on_c, 0, 76, 0
2,48785, Note_on_c, 0, 61, 76
2,48789, Note_on_c, 0, 58, 0
2,48803, Note_on_c, 0, 70, 86
2,48822, Note_on_c, 0, 73, 0
2,48890, Note_on_c, 0, 59, 75
2,48911, Note_on_c, 0, 61, 0
2,48997, Note_on_c, 0, 59, 0
2,49005, Note_on_c, 0, 58, 75
2,49026, Note_on_c, 0, 73, 87
2,49037, Note_on_c, 0, 70, 0
2,49105, Note_on_c, 0, 73, 0
2,49114, Note_on_c, 0, 61, 76
2,49119, Note_on_c, 0, 58, 0
2,49123, Note_on_c, 0, 70, 82
2,49204, Note_on_c, 0, 61, 0
2,49234, Note_on_c, 0, 67, 85
2,49234, Note_on_c, 0, 70, 0
2,49246, Note_on_c, 0, 64, 80
2,49436, Note_on_c, 0, 64, 0
2,49460, Note_on_c, 0, 63, 66
2,49467, Note_on_c, 0, 70, 71
2,49556, Note_on_c, 0, 67, 0
2,49558, Note_on_c, 0, 63, 0
2,49562, Note_on_c, 0, 70, 0
2,49564, Note_on_c, 0, 61, 73
2,49564, Note_on_c, 0, 73, 75
2,49640, Note_on_c, 0, 61, 0
2,49670, Note_on_c, 0, 76, 77
2,49675, Note_on_c, 0, 73, 0
2,49684, Note_on_c, 0, 59, 58
2,49739, Note_on_c, 0, 59, 0
2,49772, Note_on_c, 0, 58, 70
2,49890, Note_on_c, 0, 56, 73
2,49894, Note_on_c, 0, 58, 0
2,49895, Note_on_c, 0, 73, 79
2,49934, Note_on_c, 0, 73, 0
2,49983, Note_on_c, 0, 56, 0
2,49990, Note_on_c, 0, 55, 67
2,50100, Note_on_c, 0, 56, 75
2,50105, Note_on_c, 0, 76, 0
2,50110, Note_on_c, 0, 75, 83
2,50113, Note_on_c, 0, 55, 0
2,50114, Note_on_c, 0, 71, 71
2,50176, Note_on_c, 0, 75, 0
2,50207, Note_on_c, 0, 56, 0
2,50211, Note_on_c, 0, 71, 0
2,50211, Note_on_c, 0, 71, 11
2,50213, Note_on_c, 0, 59, 75
2,50306, Note_on_c, 0, 71, 0
2,50314, Note_on_c, 0, 59, 0
2,50326, Note_on_c, 0, 58, 77
2,50328, Note_on_c, 0, 80, 82
2,50407, Note_on_c, 0, 80, 0
2,50432, Note_on_c, 0, 56, 78
2,50441, Note_on_c, 0, 58, 0
2,50521, Note_on_c, 0, 56, 0
2,50544, Note_on_c, 0, 73, 74
2,50545, Note_on_c, 0, 70, 77
2,50558, Note_on_c, 0, 55, 70
2,50577, Note_on_c, 0, 73, 0
2,50604, Note_on_c, 0, 70, 0
2,50632, Note_on_c, 0, 55, 0
2,50655, Note_on_c, 0, 52, 68
2,50759, Note_on_c, 0, 51, 73
2,50766, Note_on_c, 0, 52, 0
2,50769, Note_on_c, 0, 79, 76
2,50806, Note_on_c, 0, 79, 0
2,50842, Note_on_c, 0, 51, 0
2,50867, Note_on_c, 0, 49, 56
2,50968, Note_on_c, 0, 49, 0
2,50971, Note_on_c, 0, 47, 63
2,50975, Note_on_c, 0, 68, 75
2,51014, Note_on_c, 0, 68, 0
2,51078, Note_on_c, 0, 49, 72
2,51083, Note_on_c, 0, 47, 0
2,51149, Note_on_c, 0, 49, 0
2,51178, Note_on_c, 0, 51, 71
2,51188, Note_on_c, 0, 80, 82
2,51215, Note_on_c, 0, 78, 64
2,51249, Note_on_c, 0, 78, 0
2,51263, Note_on_c, 0, 51, 0
2,51289, Note_on_c, 0, 47, 62
2,51292, Note_on_c, 0, 80, 0
2,51296, Note_on_c, 0, 79, 81
2,51319, Note_on_c, 0, 77, 62
2,51320, Note_on_c, 0, 77, 0
2,51394, Note_on_c, 0, 80, 95
2,51401, Note_on_c, 0, 47, 0
2,51403, Note_on_c, 0, 79, 0
2,51405, Note_on_c, 0, 44, 74
2,51440, Note_on_c, 0, 44, 0
2,51505, Note_on_c, 0, 82, 93
2,51568, Note_on_c, 0, 80, 0
2,51597, Note_on_c, 0, 83, 89
2,51632, Note_on_c, 0, 56, 78
2,51687, Note_on_c, 0, 82, 0
2,51701, Note_on_c, 0, 80, 85
2,51702, Note_on_c, 0, 56, 0
2,51717, Note_on_c, 0, 53, 73
2,51721, Note_on_c, 0, 83, 0
2,51813, Note_on_c, 0, 77, 88
2,51816, Note_on_c, 0, 53, 0
2,51821, Note_on_c, 0, 80, 0
2,51823, Note_on_c, 0, 50, 78
2,51854, Note_on_c, 0, 50, 0
2,51891, Note_on_c, 0, 77, 0
2,51923, Note_on_c, 0, 78, 87
2,52026, Note_on_c, 0, 80, 84
2,52029, Note_on_c, 0, 59, 69
2,52076, Note_on_c, 0, 78, 0
2,52119, Note_on_c, 0, 80, 0
2,52128, Note_on_c, 0, 59, 0
2,52135, Note_on_c, 0, 77, 86
2,52139, Note_on_c, 0, 56, 69
2,52227, Note_on_c, 0, 77, 0
2,52250, Note_on_c, 0, 53, 76
2,52250, Note_on_c, 0, 73, 78
2,52264, Note_on_c, 0, 56, 0
2,52284, Note_on_c, 0, 53, 0
2,52313, Note_on_c, 0, 73, 0
2,52342, Note_on_c, 0, 75, 73
2,52449, Note_on_c, 0, 75, 0
2,52450, Note_on_c, 0, 77, 71
2,52466, Note_on_c, 0, 49, 58
2,52529, Note_on_c, 0, 77, 0
2,52543, Note_on_c, 0, 73, 71
2,52545, Note_on_c, 0, 49, 0
2,52556, Note_on_c, 0, 46, 48
2,52656, Note_on_c, 0, 46, 0
2,52656, Note_on_c, 0, 73, 0
2,52659, Note_on_c, 0, 70, 62
2,52672, Note_on_c, 0, 42, 61
2,52715, Note_on_c, 0, 42, 0
2,52744, Note_on_c, 0, 70, 0
2,52760, Note_on_c, 0, 72, 69
2,52880, Note_on_c, 0, 73, 86
2,52904, Note_on_c, 0, 58, 86
2,52906, Note_on_c, 0, 72, 0
2,52969, Note_on_c, 0, 73, 0
2,52983, Note_on_c, 0, 70, 84
2,52993, Note_on_c, 0, 54, 78
2,53011, Note_on_c, 0, 58, 0
2,53085, Note_on_c, 0, 70, 0
2,53101, Note_on_c, 0, 78, 89
2,53102, Note_on_c, 0, 51, 87
2,53112, Note_on_c, 0, 54, 0
2,53149, Note_on_c, 0, 51, 0
2,53204, Note_on_c, 0, 80, 84
2,53319, Note_on_c, 0, 82, 86
2,53327, Note_on_c, 0, 54, 75
2,53331, Note_on_c, 0, 78, 0
2,53356, Note_on_c, 0, 80, 0
2,53403, Note_on_c, 0, 54, 0
2,53412, Note_on_c, 0, 78, 87
2,53423, Note_on_c, 0, 51, 64
2,53443, Note_on_c, 0, 82, 0
2,53507, Note_on_c, 0, 78, 0
2,53515, Note_on_c, 0, 51, 0
2,53517, Note_on_c, 0, 48, 75
2,53522, Note_on_c, 0, 75, 86
2,53543, Note_on_c, 0, 48, 0
2,53590, Note_on_c, 0, 75, 0
2,53629, Note_on_c, 0, 77, 80
2,53734, Note_on_c, 0, 78, 75
2,53749, Note_on_c, 0, 77, 0
2,53750, Note_on_c, 0, 58, 65
2,53818, Note_on_c, 0, 78, 0
2,53824, Note_on_c, 0, 58, 0
2,53831, Note_on_c, 0, 75, 75
2,53835, Note_on_c, 0, 54, 67
2,53918, Note_on_c, 0, 75, 0
2,53932, Note_on_c, 0, 54, 0
2,53940, Note_on_c, 0, 51, 74
2,53941, Note_on_c, 0, 72, 71
2,53975, Note_on_c, 0, 51, 0
2,54006, Note_on_c, 0, 72, 0
2,54040, Note_on_c, 0, 73, 72
2,54136, Note_on_c, 0, 75, 79
2,54159, Note_on_c, 0, 48, 60
2,54176, Note_on_c, 0, 73, 0
2,54231, Note_on_c, 0, 75, 0
2,54240, Note_on_c, 0, 44, 65
2,54242, Note_on_c, 0, 48, 0
2,54245, Note_on_c, 0, 72, 76
2,54329, Note_on_c, 0, 72, 0
2,54334, Note_on_c, 0, 44, 0
2,54343, Note_on_c, 0, 41, 75
2,54356, Note_on_c, 0, 68, 81
2,54384, Note_on_c, 0, 41, 0
2,54436, Note_on_c, 0, 68, 0
2,54457, Note_on_c, 0, 70, 84
2,54558, Note_on_c, 0, 72, 85
2,54575, Note_on_c, 0, 56, 83
2,54582, Note_on_c, 0, 70, 0
2,54644, Note_on_c, 0, 72, 0
2,54662, Note_on_c, 0, 56, 0
2,54664, Note_on_c, 0, 68, 82
2,54665, Note_on_c, 0, 53, 75
2,54731, Note_on_c, 0, 68, 0
2,54755, Note_on_c, 0, 53, 0
2,54763, Note_on_c, 0, 50, 80
2,54771, Note_on_c, 0, 77, 82
2,54792, Note_on_c, 0, 50, 0
2,54884, Note_on_c, 0, 78, 85
2,54901, Note_on_c, 0, 77, 0
2,54973, Note_on_c, 0, 80, 84
2,54987, Note_on_c, 0, 53, 64
2,55018, Note_on_c, 0, 78, 0
2,55067, Note_on_c, 0, 80, 0
2,55075, Note_on_c, 0, 53, 0
2,55075, Note_on_c, 0, 77, 83
2,55081, Note_on_c, 0, 50, 61
2,55175, Note_on_c, 0, 77, 0
2,55181, Note_on_c, 0, 50, 0
2,55194, Note_on_c, 0, 46, 71
2,55194, Note_on_c, 0, 74, 75
2,55224, Note_on_c, 0, 46, 0
2,55249, Note_on_c, 0, 74, 0
2,55291, Note_on_c, 0, 75, 75
2,55390, Note_on_c, 0, 77, 75
2,55401, Note_on_c, 0, 56, 69
2,55418, Note_on_c, 0, 75, 0
2,55475, Note_on_c, 0, 56, 0
2,55486, Note_on_c, 0, 77, 0
2,55493, Note_on_c, 0, 74, 69
2,55495, Note_on_c, 0, 53, 64
2,55557, Note_on_c, 0, 74, 0
2,55589, Note_on_c, 0, 53, 0
2,55597, Note_on_c, 0, 70, 63
2,55613, Note_on_c, 0, 50, 65
2,55641, Note_on_c, 0, 50, 0
2,55651, Note_on_c, 0, 70, 0
2,55696, Note_on_c, 0, 72, 65
2,55801, Note_on_c, 0, 72, 0
2,55804, Note_on_c, 0, 74, 65
2,55820, Note_on_c, 0, 46, 54
2,55887, Note_on_c, 0, 46, 0
2,55903, Note_on_c, 0, 74, 0
2,55905, Note_on_c, 0, 42, 59
2,55922, Note_on_c, 0, 70, 60
2,55996, Note_on_c, 0, 42, 0
2,56010, Note_on_c, 0, 70, 0
2,56017, Note_on_c, 0, 39, 55
2,56030, Note_on_c, 0, 66, 66
2,56050, Note_on_c, 0, 39, 0
2,56106, Note_on_c, 0, 66, 0
2,56134, Note_on_c, 0, 68, 67
2,56239, Note_on_c, 0, 54, 66
2,56239, Note_on_c, 0, 70, 66
2,56240, Note_on_c, 0, 68, 0
2,56299, Note_on_c, 0, 70, 0
2,56324, Note_on_c, 0, 54, 0
2,56339, Note_on_c, 0, 66, 63
2,56356, Note_on_c, 0, 51, 46
2,56404, Note_on_c, 0, 51, 0
2,56405, Note_on_c, 0, 66, 0
2,56442, Note_on_c, 0, 48, 56
2,56453, Note_on_c, 0, 75, 73
2,56481, Note_on_c, 0, 48, 0
2,56532, Note_on_c, 0, 75, 0
2,56541, Note_on_c, 0, 77, 73
2,56644, Note_on_c, 0, 78, 75
2,56673, Note_on_c, 0, 77, 0
2,56685, Note_on_c, 0, 49, 49
2,56741, Note_on_c, 0, 49, 0
2,56766, Note_on_c, 0, 75, 66
2,56769, Note_on_c, 0, 78, 0
2,56808, Note_on_c, 0, 48, 25
2,56845, Note_on_c, 0, 75, 0
2,56855, Note_on_c, 0, 72, 77
2,56859, Note_on_c, 0, 48, 0
2,56925, Note_on_c, 0, 72, 0
2,56956, Note_on_c, 0, 73, 75
2,57065, Note_on_c, 0, 54, 73
2,57065, Note_on_c, 0, 75, 78
2,57104, Note_on_c, 0, 73, 0
2,57136, Note_on_c, 0, 75, 0
2,57152, Note_on_c, 0, 54, 0
2,57154, Note_on_c, 0, 72, 74
2,57156, Note_on_c, 0, 51, 69
2,57248, Note_on_c, 0, 51, 0
2,57248, Note_on_c, 0, 72, 0
2,57260, Note_on_c, 0, 68, 72
2,57274, Note_on_c, 0, 48, 60
2,57297, Note_on_c, 0, 48, 0
2,57330, Note_on_c, 0, 68, 0
2,57369, Note_on_c, 0, 70, 70
2,57462, Note_on_c, 0, 44, 58
2,57484, Note_on_c, 0, 70, 0
2,57484, Note_on_c, 0, 72, 69
2,57533, Note_on_c, 0, 44, 0
2,57552, Note_on_c, 0, 41, 52
2,57552, Note_on_c, 0, 72, 0
2,57579, Note_on_c, 0, 68, 67
2,57631, Note_on_c, 0, 41, 0
2,57664, Note_on_c, 0, 68, 0
2,57682, Note_on_c, 0, 37, 49
2,57698, Note_on_c, 0, 65, 57
2,57754, Note_on_c, 0, 65, 0
2,57796, Note_on_c, 0, 66, 67
2,57904, Note_on_c, 0, 68, 57
2,57929, Note_on_c, 0, 66, 0
2,57961, Note_on_c, 0, 68, 0
2,57998, Note_on_c, 0, 65, 65
2,58084, Note_on_c, 0, 65, 0
2,58098, Note_on_c, 0, 61, 67
2,58176, Note_on_c, 0, 61, 0
2,58197, Note_on_c, 0, 37, 0
2,58205, Note_on_c, 0, 65, 71
2,58317, Note_on_c, 0, 68, 73
2,58322, Note_on_c, 0, 65, 0
2,58419, Note_on_c, 0, 70, 83
2,58458, Note_on_c, 0, 68, 0
2,58480, Note_on_c, 0, 70, 0
2,58537, Note_on_c, 0, 71, 93
2,58626, Note_on_c, 0, 70, 82
2,58670, Note_on_c, 0, 71, 0
2,58728, Note_on_c, 0, 68, 94
2,58749, Note_on_c, 0, 59, 86
2,58752, Note_on_c, 0, 70, 0
2,58800, Note_on_c, 0, 59, 0
2,58825, Note_on_c, 0, 70, 91
2,58837, Note_on_c, 0, 49, 80
2,58850, Note_on_c, 0, 68, 0
2,58914, Note_on_c, 0, 49, 0
2,58932, Note_on_c, 0, 78, 94
2,58935, Note_on_c, 0, 58, 93
2,58948, Note_on_c, 0, 70, 0
2,58982, Note_on_c, 0, 73, 30
2,58983, Note_on_c, 0, 73, 0
2,58985, Note_on_c, 0, 58, 0
2,58990, Note_on_c, 0, 78, 0
2,59044, Note_on_c, 0, 49, 81
2,59122, Note_on_c, 0, 49, 0
2,59149, Note_on_c, 0, 56, 85
2,59158, Note_on_c, 0, 73, 98
2,59198, Note_on_c, 0, 56, 0
2,59199, Note_on_c, 0, 73, 0
2,59245, Note_on_c, 0, 49, 81
2,59303, Note_on_c, 0, 49, 0
2,59359, Note_on_c, 0, 54, 83
2,59364, Note_on_c, 0, 70, 94
2,59413, Note_on_c, 0, 54, 0
2,59440, Note_on_c, 0, 49, 69
2,59465, Note_on_c, 0, 49, 0
2,59555, Note_on_c, 0, 53, 75
2,59570, Note_on_c, 0, 68, 83
2,59579, Note_on_c, 0, 70, 0
2,59592, Note_on_c, 0, 53, 0
2,59651, Note_on_c, 0, 51, 77
2,59662, Note_on_c, 0, 66, 79
2,59665, Note_on_c, 0, 68, 0
2,59697, Note_on_c, 0, 51, 0
2,59770, Note_on_c, 0, 53, 68
2,59770, Note_on_c, 0, 68, 77
2,59777, Note_on_c, 0, 66, 0
2,59798, Note_on_c, 0, 53, 0
2,59865, Note_on_c, 0, 61, 65
2,59865, Note_on_c, 0, 68, 0
2,59945, Note_on_c, 0, 61, 0
2,59969, Note_on_c, 0, 65, 69
2,59971, Note_on_c, 0, 44, 74
2,60008, Note_on_c, 0, 44, 0
2,60078, Note_on_c, 0, 68, 75
2,60085, Note_on_c, 0, 65, 0
2,60189, Note_on_c, 0, 70, 89
2,60198, Note_on_c, 0, 68, 0
2,60289, Note_on_c, 0, 68, 86
2,60317, Note_on_c, 0, 70, 0
2,60376, Note_on_c, 0, 68, 0
2,60396, Note_on_c, 0, 66, 91
2,60400, Note_on_c, 0, 58, 86
2,60452, Note_on_c, 0, 58, 0
2,60455, Note_on_c, 0, 66, 0
2,60490, Note_on_c, 0, 68, 86
2,60491, Note_on_c, 0, 49, 71
2,60600, Note_on_c, 0, 68, 0
2,60614, Note_on_c, 0, 56, 89
2,60620, Note_on_c, 0, 49, 0
2,60623, Note_on_c, 0, 77, 91
2,60663, Note_on_c, 0, 56, 0
2,60680, Note_on_c, 0, 77, 0
2,60715, Note_on_c, 0, 49, 84
2,60783, Note_on_c, 0, 49, 0
2,60825, Note_on_c, 0, 54, 88
2,60833, Note_on_c, 0, 73, 99
2,60876, Note_on_c, 0, 54, 0
2,60876, Note_on_c, 0, 73, 0
2,60921, Note_on_c, 0, 49, 78
2,60978, Note_on_c, 0, 49, 0
2,61038, Note_on_c, 0, 68, 92
2,61041, Note_on_c, 0, 53, 82
2,61078, Note_on_c, 0, 53, 0
2,61145, Note_on_c, 0, 49, 76
2,61205, Note_on_c, 0, 49, 0
2,61256, Note_on_c, 0, 68, 0
2,61259, Note_on_c, 0, 51, 80
2,61277, Note_on_c, 0, 66, 77
2,61304, Note_on_c, 0, 51, 0
2,61363, Note_on_c, 0, 65, 79
2,61363, Note_on_c, 0, 66, 0
2,61366, Note_on_c, 0, 49, 78
2,61413, Note_on_c, 0, 49, 0
2,61470, Note_on_c, 0, 66, 74
2,61476, Note_on_c, 0, 65, 0
2,61480, Note_on_c, 0, 51, 71
2,61506, Note_on_c, 0, 51, 0
2,61565, Note_on_c, 0, 66, 0
2,61574, Note_on_c, 0, 60, 59
2,61665, Note_on_c, 0, 60, 0
2,61691, Note_on_c, 0, 44, 75
2,61703, Note_on_c, 0, 63, 69
2,61728, Note_on_c, 0, 44, 0
2,61805, Note_on_c, 0, 66, 73
2,61853, Note_on_c, 0, 63, 0
2,61916, Note_on_c, 0, 68, 87
2,61928, Note_on_c, 0, 66, 0
2,62017, Note_on_c, 0, 66, 85
2,62051, Note_on_c, 0, 68, 0
2,62121, Note_on_c, 0, 66, 0
2,62127, Note_on_c, 0, 65, 88
2,62128, Note_on_c, 0, 56, 89
2,62185, Note_on_c, 0, 56, 0
2,62213, Note_on_c, 0, 65, 0
2,62225, Note_on_c, 0, 66, 75
2,62240, Note_on_c, 0, 44, 78
2,62299, Note_on_c, 0, 44, 0
2,62333, Note_on_c, 0, 66, 0
2,62348, Note_on_c, 0, 54, 93
2,62349, Note_on_c, 0, 75, 86
2,62387, Note_on_c, 0, 54, 0
2,62433, Note_on_c, 0, 75, 0
2,62445, Note_on_c, 0, 44, 82
2,62517, Note_on_c, 0, 44, 0
2,62560, Note_on_c, 0, 72, 83
2,62561, Note_on_c, 0, 53, 85
2,62593, Note_on_c, 0, 53, 0
2,62599, Note_on_c, 0, 72, 0
2,62667, Note_on_c, 0, 44, 84
2,62722, Note_on_c, 0, 44, 0
2,62774, Note_on_c, 0, 66, 91
2,62785, Note_on_c, 0, 51, 79
2,62813, Note_on_c, 0, 44, 40
2,62826, Note_on_c, 0, 51, 0
2,62847, Note_on_c, 0, 44, 0
2,62925, Note_on_c, 0, 44, 63
2,62962, Note_on_c, 0, 44, 0
2,62990, Note_on_c, 0, 49, 69
2,63020, Note_on_c, 0, 65, 84
2,63030, Note_on_c, 0, 66, 0
2,63079, Note_on_c, 0, 49, 0
2,63085, Note_on_c, 0, 48, 71
2,63123, Note_on_c, 0, 65, 0
2,63124, Note_on_c, 0, 63, 84
2,63191, Note_on_c, 0, 48, 0
2,63221, Note_on_c, 0, 63, 0
2,63224, Note_on_c, 0, 65, 82
2,63239, Note_on_c, 0, 49, 78
2,63308, Note_on_c, 0, 65, 0
2,63329, Note_on_c, 0, 68, 77
2,63376, Note_on_c, 0, 44, 73
2,63380, Note_on_c, 0, 49, 0
2,63435, Note_on_c, 0, 70, 75
2,63455, Note_on_c, 0, 68, 0
2,63464, Note_on_c, 0, 44, 0
2,63465, Note_on_c, 0, 53, 80
2,63506, Note_on_c, 0, 70, 0
2,63529, Note_on_c, 0, 53, 0
2,63544, Note_on_c, 0, 72, 76
2,63548, Note_on_c, 0, 51, 85
2,63639, Note_on_c, 0, 51, 0
2,63641, Note_on_c, 0, 72, 0
2,63668, Note_on_c, 0, 53, 76
2,63689, Note_on_c, 0, 73, 41
2,63689, Note_on_c, 0, 74, 74
2,63723, Note_on_c, 0, 53, 0
2,63757, Note_on_c, 0, 73, 0
2,63769, Note_on_c, 0, 44, 76
2,63772, Note_on_c, 0, 75, 84
2,63797, Note_on_c, 0, 74, 0
2,63856, Note_on_c, 0, 44, 0
2,63882, Note_on_c, 0, 77, 92
2,63888, Note_on_c, 0, 56, 86
2,63901, Note_on_c, 0, 75, 0
2,63950, Note_on_c, 0, 56, 0
2,63979, Note_on_c, 0, 54, 85
2,63981, Note_on_c, 0, 75, 92
2,64006, Note_on_c, 0, 77, 0
2,64057, Note_on_c, 0, 54, 0
2,64084, Note_on_c, 0, 56, 87
2,64096, Note_on_c, 0, 78, 91
2,64107, Note_on_c, 0, 75, 0
2,64153, Note_on_c, 0, 56, 0
2,64179, Note_on_c, 0, 78, 0
2,64192, Note_on_c, 0, 44, 86
2,64192, Note_on_c, 0, 77, 90
2,64229, Note_on_c, 0, 43, 53
2,64261, Note_on_c, 0, 43, 0
2,64278, Note_on_c, 0, 44, 0
2,64287, Note_on_c, 0, 77, 0
2,64295, Note_on_c, 0, 75, 92
2,64305, Note_on_c, 0, 58, 94
2,64379, Note_on_c, 0, 75, 0
2,64381, Note_on_c, 0, 58, 0
2,64385, Note_on_c, 0, 73, 89
2,64434, Note_on_c, 0, 44, 82
2,64455, Note_on_c, 0, 73, 0
2,64488, Note_on_c, 0, 44, 0
2,64510, Note_on_c, 0, 82, 89
2,64527, Note_on_c, 0, 60, 88
2,64573, Note_on_c, 0, 60, 0
2,64583, Note_on_c, 0, 80, 85
2,64583, Note_on_c, 0, 82, 0
2,64622, Note_on_c, 0, 61, 76
2,64637, Note_on_c, 0, 80, 0
2,64641, Note_on_c, 0, 79, 83
2,64675, Note_on_c, 0, 79, 0
2,64695, Note_on_c, 0, 80, 86
2,64727, Note_on_c, 0, 63, 80
2,64752, Note_on_c, 0, 61, 0
2,64753, Note_on_c, 0, 80, 0
2,64768, Note_on_c, 0, 83, 74
2,64776, Note_on_c, 0, 82, 33
2,64809, Note_on_c, 0, 80, 84
2,64812, Note_on_c, 0, 83, 0
2,64818, Note_on_c, 0, 82, 0
2,64843, Note_on_c, 0, 63, 0
2,64845, Note_on_c, 0, 60, 82
2,64865, Note_on_c, 0, 82, 90
2,64870, Note_on_c, 0, 80, 0
2,64920, Note_on_c, 0, 80, 75
2,64920, Note_on_c, 0, 82, 0
2,64985, Note_on_c, 0, 56, 88
2,64990, Note_on_c, 0, 60, 0
2,65093, Note_on_c, 0, 60, 86
2,65097, Note_on_c, 0, 56, 0
2,65205, Note_on_c, 0, 63, 90
2,65216, Note_on_c, 0, 60, 0
2,65233, Note_on_c, 0, 61, 50
2,65257, Note_on_c, 0, 61, 0
2,65311, Note_on_c, 0, 65, 91
2,65318, Note_on_c, 0, 63, 0
2,65378, Note_on_c, 0, 65, 0
2,65403, Note_on_c, 0, 80, 0
2,65420, Note_on_c, 0, 66, 94
2,65535, Note_on_c, 0, 65, 75
2,65538, Note_on_c, 0, 64, 78
2,65540, Note_on_c, 0, 80, 93
2,65542, Note_on_c, 0, 66, 0
2,65583, Note_on_c, 0, 64, 0
2,65633, Note_on_c, 0, 63, 84
2,65641, Note_on_c, 0, 78, 92
2,65659, Note_on_c, 0, 80, 0
2,65662, Note_on_c, 0, 65, 0
2,65723, Note_on_c, 0, 65, 52
2,65741, Note_on_c, 0, 80, 89
2,65751, Note_on_c, 0, 78, 0
2,65758, Note_on_c, 0, 63, 0
2,65855, Note_on_c, 0, 77, 88
2,65859, Note_on_c, 0, 73, 97
2,65861, Note_on_c, 0, 65, 0
2,65877, Note_on_c, 0, 80, 0
2,65919, Note_on_c, 0, 73, 0
2,65931, Note_on_c, 0, 77, 0
2,65960, Note_on_c, 0, 80, 69
2,66090, Note_on_c, 0, 68, 95
2,66097, Note_on_c, 0, 75, 85
2,66099, Note_on_c, 0, 80, 0
2,66129, Note_on_c, 0, 68, 0
2,66198, Note_on_c, 0, 75, 0
2,66206, Note_on_c, 0, 80, 73
2,66304, Note_on_c, 0, 65, 83
2,66317, Note_on_c, 0, 73, 81
2,66326, Note_on_c, 0, 80, 0
2,66420, Note_on_c, 0, 73, 0
2,66426, Note_on_c, 0, 80, 68
2,66500, Note_on_c, 0, 65, 0
2,66516, Note_on_c, 0, 80, 0
2,66519, Note_on_c, 0, 63, 74
2,66539, Note_on_c, 0, 72, 70
2,66587, Note_on_c, 0, 63, 0
2,66607, Note_on_c, 0, 72, 0
2,66625, Note_on_c, 0, 61, 76
2,66648, Note_on_c, 0, 70, 73
2,66733, Note_on_c, 0, 70, 0
2,66737, Note_on_c, 0, 63, 73
2,66751, Note_on_c, 0, 61, 0
2,66757, Note_on_c, 0, 72, 72
2,66821, Note_on_c, 0, 72, 0
2,66853, Note_on_c, 0, 56, 69
2,66856, Note_on_c, 0, 63, 0
2,66858, Note_on_c, 0, 75, 75
2,66946, Note_on_c, 0, 56, 0
2,66946, Note_on_c, 0, 60, 72
2,66958, Note_on_c, 0, 77, 78
2,66978, Note_on_c, 0, 75, 0
2,67058, Note_on_c, 0, 63, 75
2,67063, Note_on_c, 0, 78, 77
2,67068, Note_on_c, 0, 60, 0
2,67080, Note_on_c, 0, 77, 0
2,67144, Note_on_c, 0, 63, 0
2,67163, Note_on_c, 0, 65, 80
2,67165, Note_on_c, 0, 80, 86
2,67195, Note_on_c, 0, 78, 0
2,67240, Note_on_c, 0, 65, 0
2,67261, Note_on_c, 0, 63, 84
2,67267, Note_on_c, 0, 78, 80
2,67332, Note_on_c, 0, 80, 0
2,67363, Note_on_c, 0, 63, 0
2,67365, Note_on_c, 0, 61, 84
2,67373, Note_on_c, 0, 77, 81
2,67476, Note_on_c, 0, 63, 89
2,67478, Note_on_c, 0, 80, 85
2,67487, Note_on_c, 0, 77, 0
2,67517, Note_on_c, 0, 61, 0
2,67522, Note_on_c, 0, 78, 0
2,67567, Note_on_c, 0, 63, 0
2,67602, Note_on_c, 0, 72, 90
2,67607, Note_on_c, 0, 75, 90
2,67607, Note_on_c, 0, 80, 0
2,67643, Note_on_c, 0, 72, 0
2,67705, Note_on_c, 0, 75, 0
2,67741, Note_on_c, 0, 81, 51
2,67779, Note_on_c, 0, 81, 0
2,67820, Note_on_c, 0, 68, 90
2,67833, Note_on_c, 0, 73, 81
2,67858, Note_on_c, 0, 68, 0
2,67913, Note_on_c, 0, 73, 0
2,67916, Note_on_c, 0, 80, 66
2,68032, Note_on_c, 0, 72, 78
2,68035, Note_on_c, 0, 63, 85
2,68055, Note_on_c, 0, 80, 0
2,68114, Note_on_c, 0, 72, 0
2,68151, Note_on_c, 0, 80, 74
2,68241, Note_on_c, 0, 63, 0
2,68243, Note_on_c, 0, 80, 0
2,68256, Note_on_c, 0, 61, 79
2,68264, Note_on_c, 0, 70, 70
2,68359, Note_on_c, 0, 60, 76
2,68362, Note_on_c, 0, 61, 0
2,68365, Note_on_c, 0, 68, 75
2,68368, Note_on_c, 0, 70, 0
2,68430, Note_on_c, 0, 68, 0
2,68465, Note_on_c, 0, 60, 0
2,68467, Note_on_c, 0, 61, 79
2,68472, Note_on_c, 0, 70, 78
2,68555, Note_on_c, 0, 61, 0
2,68567, Note_on_c, 0, 56, 76
2,68579, Note_on_c, 0, 73, 78
2,68592, Note_on_c, 0, 70, 0
2,68667, Note_on_c, 0, 56, 0
2,68681, Note_on_c, 0, 60, 65
2,68686, Note_on_c, 0, 75, 69
2,68691, Note_on_c, 0, 73, 0
2,68773, Note_on_c, 0, 61, 88
2,68784, Note_on_c, 0, 60, 0
2,68784, Note_on_c, 0, 77, 81
2,68815, Note_on_c, 0, 75, 0
2,68874, Note_on_c, 0, 61, 0
2,68885, Note_on_c, 0, 63, 85
2,68899, Note_on_c, 0, 78, 86
2,68934, Note_on_c, 0, 77, 0
2,68975, Note_on_c, 0, 78, 0
2,68983, Note_on_c, 0, 63, 0
2,68994, Note_on_c, 0, 61, 80
2,69004, Note_on_c, 0, 77, 80
2,69102, Note_on_c, 0, 61, 0
2,69102, Note_on_c, 0, 75, 91
2,69111, Note_on_c, 0, 60, 83
2,69117, Note_on_c, 0, 77, 0
2,69197, Note_on_c, 0, 77, 91
2,69206, Note_on_c, 0, 61, 88
2,69216, Note_on_c, 0, 60, 0
2,69218, Note_on_c, 0, 75, 0
2,69266, Note_on_c, 0, 61, 0
2,69306, Note_on_c, 0, 77, 0
2,69321, Note_on_c, 0, 73, 91
2,69324, Note_on_c, 0, 70, 88
2,69370, Note_on_c, 0, 73, 0
2,69371, Note_on_c, 0, 70, 0
2,69417, Note_on_c, 0, 75, 83
2,69532, Note_on_c, 0, 75, 0
2,69535, Note_on_c, 0, 67, 88
2,69535, Note_on_c, 0, 72, 81
2,69564, Note_on_c, 0, 67, 0
2,69602, Note_on_c, 0, 72, 0
2,69636, Note_on_c, 0, 75, 81
2,69757, Note_on_c, 0, 70, 82
2,69764, Note_on_c, 0, 61, 86
2,69764, Note_on_c, 0, 75, 0
2,69874, Note_on_c, 0, 70, 0
2,69874, Note_on_c, 0, 75, 75
2,69947, Note_on_c, 0, 61, 0
2,69971, Note_on_c, 0, 75, 0
2,69977, Note_on_c, 0, 60, 76
2,69979, Note_on_c, 0, 68, 75
2,70041, Note_on_c, 0, 60, 0
2,70070, Note_on_c, 0, 58, 76
2,70082, Note_on_c, 0, 68, 0
2,70083, Note_on_c, 0, 67, 75
2,70147, Note_on_c, 0, 67, 0
2,70151, Note_on_c, 0, 58, 0
2,70180, Note_on_c, 0, 60, 71
2,70188, Note_on_c, 0, 68, 75
2,70240, Note_on_c, 0, 68, 0
2,70245, Note_on_c, 0, 60, 0
2,70275, Note_on_c, 0, 56, 73
2,70295, Note_on_c, 0, 72, 78
2,70356, Note_on_c, 0, 72, 0
2,70390, Note_on_c, 0, 58, 78
2,70390, Note_on_c, 0, 73, 84
2,70411, Note_on_c, 0, 56, 0
2,70475, Note_on_c, 0, 58, 0
2,70503, Note_on_c, 0, 75, 82
2,70504, Note_on_c, 0, 60, 74
2,70533, Note_on_c, 0, 73, 0
2,70574, Note_on_c, 0, 60, 0
2,70594, Note_on_c, 0, 61, 79
2,70597, Note_on_c, 0, 75, 0
2,70617, Note_on_c, 0, 77, 77
2,70680, Note_on_c, 0, 77, 0
2,70701, Note_on_c, 0, 63, 73
2,70704, Note_on_c, 0, 61, 0
2,70713, Note_on_c, 0, 78, 80
2,70774, Note_on_c, 0, 63, 0
2,70803, Note_on_c, 0, 65, 68
2,70816, Note_on_c, 0, 80, 79
2,70827, Note_on_c, 0, 78, 0
2,70854, Note_on_c, 0, 65, 0
2,70899, Note_on_c, 0, 63, 74
2,70915, Note_on_c, 0, 82, 77
2,70922, Note_on_c, 0, 80, 0
2,70995, Note_on_c, 0, 82, 0
2,71009, Note_on_c, 0, 63, 0
2,71027, Note_on_c, 0, 66, 71
2,71037, Note_on_c, 0, 71, 68
2,71051, Note_on_c, 0, 72, 42
2,71063, Note_on_c, 0, 71, 0
2,71067, Note_on_c, 0, 72, 0
2,71090, Note_on_c, 0, 66, 0
2,71121, Note_on_c, 0, 65, 71
2,71230, Note_on_c, 0, 68, 94
2,71237, Note_on_c, 0, 63, 74
2,71258, Note_on_c, 0, 65, 0
2,71275, Note_on_c, 0, 68, 0
2,71337, Note_on_c, 0, 63, 0
2,71347, Note_on_c, 0, 66, 54
2,71348, Note_on_c, 0, 66, 0
2,71361, Note_on_c, 0, 65, 76
2,71447, Note_on_c, 0, 65, 0
2,71452, Note_on_c, 0, 66, 74
2,71467, Note_on_c, 0, 70, 92
2,71484, Note_on_c, 0, 66, 0
2,71576, Note_on_c, 0, 68, 98
2,71579, Note_on_c, 0, 70, 0
2,71677, Note_on_c, 0, 58, 78
2,71677, Note_on_c, 0, 66, 92
2,71682, Note_on_c, 0, 68, 0
2,71764, Note_on_c, 0, 66, 0
2,71766, Note_on_c, 0, 68, 96
2,71778, Note_on_c, 0, 60, 78
2,71798, Note_on_c, 0, 58, 0
2,71823, Note_on_c, 0, 68, 0
2,71883, Note_on_c, 0, 77, 93
2,71885, Note_on_c, 0, 61, 90
2,71886, Note_on_c, 0, 60, 0
2,71930, Note_on_c, 0, 77, 0
2,71955, Note_on_c, 0, 61, 0
2,71988, Note_on_c, 0, 60, 87
2,72078, Note_on_c, 0, 60, 0
2,72108, Note_on_c, 0, 58, 85
2,72111, Note_on_c, 0, 73, 95
2,72150, Note_on_c, 0, 73, 0
2,72188, Note_on_c, 0, 58, 0
2,72217, Note_on_c, 0, 56, 73
2,72336, Note_on_c, 0, 56, 0
2,72337, Note_on_c, 0, 68, 94
2,72345, Note_on_c, 0, 58, 78
2,72371, Note_on_c, 0, 70, 44
2,72410, Note_on_c, 0, 70, 0
2,72576, Note_on_c, 0, 68, 0
2,72580, Note_on_c, 0, 66, 82
2,72653, Note_on_c, 0, 66, 0
2,72678, Note_on_c, 0, 65, 85
2,72734, Note_on_c, 0, 65, 0
2,72792, Note_on_c, 0, 66, 88
2,72838, Note_on_c, 0, 66, 0
2,72908, Note_on_c, 0, 56, 80
2,72912, Note_on_c, 0, 58, 0
2,73006, Note_on_c, 0, 75, 86
2,73012, Note_on_c, 0, 56, 0
2,73015, Note_on_c, 0, 54, 82
2,73061, Note_on_c, 0, 75, 0
2,73120, Note_on_c, 0, 58, 82
2,73129, Note_on_c, 0, 54, 0
2,73214, Note_on_c, 0, 58, 0
2,73221, Note_on_c, 0, 65, 74
2,73223, Note_on_c, 0, 56, 81
2,73250, Note_on_c, 0, 67, 46
2,73263, Note_on_c, 0, 65, 0
2,73265, Note_on_c, 0, 67, 0
2,73316, Note_on_c, 0, 54, 76
2,73324, Note_on_c, 0, 56, 0
2,73418, Note_on_c, 0, 54, 0
2,73425, Note_on_c, 0, 53, 81
2,73435, Note_on_c, 0, 73, 90
2,73485, Note_on_c, 0, 73, 0
2,73514, Note_on_c, 0, 53, 0
2,73544, Note_on_c, 0, 56, 77
2,73628, Note_on_c, 0, 56, 0
2,73653, Note_on_c, 0, 63, 86
2,73656, Note_on_c, 0, 54, 72
2,73697, Note_on_c, 0, 63, 0
2,73748, Note_on_c, 0, 53, 67
2,73770, Note_on_c, 0, 54, 0
2,73835, Note_on_c, 0, 53, 0
2,73853, Note_on_c, 0, 51, 64
2,73872, Note_on_c, 0, 72, 81
2,73917, Note_on_c, 0, 72, 0
2,73947, Note_on_c, 0, 51, 0
2,73961, Note_on_c, 0, 54, 73
2,74021, Note_on_c, 0, 54, 0
2,74091, Note_on_c, 0, 53, 64
2,74092, Note_on_c, 0, 61, 73
2,74129, Note_on_c, 0, 61, 0
2,74333, Note_on_c, 0, 73, 72
2,74412, Note_on_c, 0, 73, 0
2,74439, Note_on_c, 0, 72, 66
2,74446, Note_on_c, 0, 56, 71
2,74455, Note_on_c, 0, 53, 0
2,74502, Note_on_c, 0, 72, 0
2,74539, Note_on_c, 0, 73, 72
2,74542, Note_on_c, 0, 58, 81
2,74578, Note_on_c, 0, 56, 0
2,74637, Note_on_c, 0, 58, 0
2,74640, Note_on_c, 0, 60, 79
2,74642, Note_on_c, 0, 73, 0
2,74648, Note_on_c, 0, 75, 73
2,74735, Note_on_c, 0, 75, 0
2,74738, Note_on_c, 0, 61, 87
2,74755, Note_on_c, 0, 77, 79
2,74780, Note_on_c, 0, 60, 0
2,74819, Note_on_c, 0, 77, 0
2,74847, Note_on_c, 0, 78, 79
2,74855, Note_on_c, 0, 63, 80
2,74952, Note_on_c, 0, 80, 82
2,74953, Note_on_c, 0, 65, 85
2,74963, Note_on_c, 0, 63, 0
2,74969, Note_on_c, 0, 78, 0
2,75016, Note_on_c, 0, 61, 0
2,75055, Note_on_c, 0, 63, 96
2,75061, Note_on_c, 0, 78, 84
2,75070, Note_on_c, 0, 65, 0
2,75075, Note_on_c, 0, 80, 0
2,75162, Note_on_c, 0, 77, 82
2,75165, Note_on_c, 0, 61, 90
2,75168, Note_on_c, 0, 63, 0
2,75168, Note_on_c, 0, 78, 0
2,75227, Note_on_c, 0, 77, 0
2,75256, Note_on_c, 0, 78, 85
2,75261, Note_on_c, 0, 63, 90
2,75316, Note_on_c, 0, 61, 0
2,75376, Note_on_c, 0, 80, 80
2,75383, Note_on_c, 0, 60, 89
2,75384, Note_on_c, 0, 72, 90
2,75395, Note_on_c, 0, 78, 0
2,75412, Note_on_c, 0, 63, 0
2,75419, Note_on_c, 0, 72, 0
2,75481, Note_on_c, 0, 80, 0
2,75486, Note_on_c, 0, 78, 83
2,75596, Note_on_c, 0, 78, 0
2,75603, Note_on_c, 0, 77, 77
2,75614, Note_on_c, 0, 68, 94
2,75661, Note_on_c, 0, 68, 0
2,75678, Note_on_c, 0, 77, 0
2,75714, Note_on_c, 0, 75, 73
2,75826, Note_on_c, 0, 75, 0
2,75834, Note_on_c, 0, 77, 78
2,75843, Note_on_c, 0, 63, 87
2,76088, Note_on_c, 0, 60, 0
2,76088, Note_on_c, 0, 61, 87
2,76103, Note_on_c, 0, 63, 0
2,76185, Note_on_c, 0, 60, 83
2,76185, Note_on_c, 0, 61, 0
2,76279, Note_on_c, 0, 61, 86
2,76308, Note_on_c, 0, 60, 0
2,76314, Note_on_c, 0, 58, 75
2,76342, Note_on_c, 0, 61, 0
2,76400, Note_on_c, 0, 75, 75
2,76512, Note_on_c, 0, 70, 87
2,76512, Note_on_c, 0, 73, 86
2,76537, Note_on_c, 0, 77, 0
2,76565, Note_on_c, 0, 70, 0
2,76632, Note_on_c, 0, 77, 84
2,76639, Note_on_c, 0, 75, 0
2,76642, Note_on_c, 0, 73, 0
2,76730, Note_on_c, 0, 58, 0
2,76733, Note_on_c, 0, 60, 79
2,76741, Note_on_c, 0, 75, 87
2,76787, Note_on_c, 0, 77, 0
2,76800, Note_on_c, 0, 60, 0
2,76845, Note_on_c, 0, 73, 86
2,76847, Note_on_c, 0, 75, 0
2,76946, Note_on_c, 0, 72, 81
2,76948, Note_on_c, 0, 68, 75
2,76951, Note_on_c, 0, 56, 71
2,76965, Note_on_c, 0, 73, 0
2,76983, Note_on_c, 0, 68, 0
2,77045, Note_on_c, 0, 75, 82
2,77048, Note_on_c, 0, 72, 0
2,77124, Note_on_c, 0, 56, 0
2,77155, Note_on_c, 0, 58, 64
2,77159, Note_on_c, 0, 73, 84
2,77233, Note_on_c, 0, 75, 0
2,77264, Note_on_c, 0, 72, 73
2,77279, Note_on_c, 0, 73, 0
2,77331, Note_on_c, 0, 58, 0
2,77383, Note_on_c, 0, 67, 71
2,77384, Note_on_c, 0, 72, 0
2,77402, Note_on_c, 0, 73, 71
2,77404, Note_on_c, 0, 51, 56
2,77446, Note_on_c, 0, 67, 0
2,77502, Note_on_c, 0, 70, 72
2,77517, Note_on_c, 0, 73, 0
2,77619, Note_on_c, 0, 72, 68
2,77620, Note_on_c, 0, 70, 0
2,77632, Note_on_c, 0, 56, 62
2,77643, Note_on_c, 0, 51, 0
2,77647, Note_on_c, 0, 72, 0
2,77804, Note_on_c, 0, 56, 0
2,77842, Note_on_c, 0, 68, 75
2,77843, Note_on_c, 0, 75, 75
2,77883, Note_on_c, 0, 75, 0
2,77910, Note_on_c, 0, 68, 0
2,77943, Note_on_c, 0, 67, 62
2,78046, Note_on_c, 0, 67, 0
2,78050, Note_on_c, 0, 68, 71
2,78066, Note_on_c, 0, 78, 78
2,78077, Note_on_c, 0, 68, 0
2,78173, Note_on_c, 0, 70, 76
2,78281, Note_on_c, 0, 72, 77
2,78298, Note_on_c, 0, 56, 89
2,78312, Note_on_c, 0, 70, 0
2,78347, Note_on_c, 0, 56, 0
2,78380, Note_on_c, 0, 68, 74
2,78391, Note_on_c, 0, 72, 0
2,78488, Note_on_c, 0, 68, 0
2,78510, Note_on_c, 0, 58, 92
2,78525, Note_on_c, 0, 73, 84
2,78613, Note_on_c, 0, 56, 87
2,78620, Note_on_c, 0, 72, 80
2,78636, Note_on_c, 0, 58, 0
2,78657, Note_on_c, 0, 73, 0
2,78717, Note_on_c, 0, 54, 88
2,78718, Note_on_c, 0, 56, 0
2,78736, Note_on_c, 0, 70, 82
2,78754, Note_on_c, 0, 72, 0
2,78794, Note_on_c, 0, 78, 0
2,78811, Note_on_c, 0, 56, 85
2,78815, Note_on_c, 0, 70, 0
2,78834, Note_on_c, 0, 72, 77
2,78855, Note_on_c, 0, 54, 0
2,78903, Note_on_c, 0, 56, 0
2,78939, Note_on_c, 0, 77, 84
2,78942, Note_on_c, 0, 65, 90
2,78946, Note_on_c, 0, 73, 80
2,78960, Note_on_c, 0, 72, 0
2,78983, Note_on_c, 0, 65, 0
2,79038, Note_on_c, 0, 72, 75
2,79068, Note_on_c, 0, 73, 0
2,79158, Note_on_c, 0, 72, 0
2,79173, Note_on_c, 0, 70, 73
2,79174, Note_on_c, 0, 61, 89
2,79221, Note_on_c, 0, 61, 0
2,79267, Note_on_c, 0, 68, 73
2,79277, Note_on_c, 0, 70, 0
2,79379, Note_on_c, 0, 68, 0
2,79417, Note_on_c, 0, 56, 91
2,79419, Note_on_c, 0, 70, 75
2,79648, Note_on_c, 0, 54, 85
2,79648, Note_on_c, 0, 56, 0
2,79674, Note_on_c, 0, 77, 0
2,79757, Note_on_c, 0, 54, 0
2,79762, Note_on_c, 0, 53, 69
2,79854, Note_on_c, 0, 54, 87
2,79864, Note_on_c, 0, 53, 0
2,79890, Note_on_c, 0, 75, 90
2,79903, Note_on_c, 0, 70, 0
2,79906, Note_on_c, 0, 54, 0
2,79986, Note_on_c, 0, 68, 69
2,80062, Note_on_c, 0, 68, 0
2,80097, Note_on_c, 0, 63, 82
2,80099, Note_on_c, 0, 66, 79
2,80127, Note_on_c, 0, 63, 0
2,80215, Note_on_c, 0, 70, 73
2,80240, Note_on_c, 0, 66, 0
2,80318, Note_on_c, 0, 53, 83
2,80342, Note_on_c, 0, 68, 69
2,80343, Note_on_c, 0, 66, 80
2,80357, Note_on_c, 0, 70, 0
2,80373, Note_on_c, 0, 53, 0
2,80376, Note_on_c, 0, 75, 0
2,80383, Note_on_c, 0, 68, 0
2,80479, Note_on_c, 0, 68, 82
2,80517, Note_on_c, 0, 66, 0
2,80525, Note_on_c, 0, 61, 75
2,80566, Note_on_c, 0, 61, 0
2,80596, Note_on_c, 0, 65, 72
2,80641, Note_on_c, 0, 68, 0
2,80725, Note_on_c, 0, 65, 0
2,80742, Note_on_c, 0, 51, 78
2,80765, Note_on_c, 0, 73, 82
2,80817, Note_on_c, 0, 51, 0
2,80885, Note_on_c, 0, 66, 40
2,80885, Note_on_c, 0, 73, 0
2,80975, Note_on_c, 0, 72, 78
2,80992, Note_on_c, 0, 60, 71
2,80998, Note_on_c, 0, 66, 0
2,81018, Note_on_c, 0, 60, 0
2,81032, Note_on_c, 0, 65, 45
2,81124, Note_on_c, 0, 65, 0
2,81151, Note_on_c, 0, 72, 0
2,81221, Note_on_c, 0, 49, 79
2,81240, Note_on_c, 0, 65, 80
2,81335, Note_on_c, 0, 44, 74
2,81338, Note_on_c, 0, 49, 0
2,81443, Note_on_c, 0, 68, 83
2,81445, Note_on_c, 0, 49, 74
2,81477, Note_on_c, 0, 44, 0
2,81536, Note_on_c, 0, 51, 75
2,81563, Note_on_c, 0, 49, 0
2,81644, Note_on_c, 0, 51, 0
2,81653, Note_on_c, 0, 73, 89
2,81661, Note_on_c, 0, 53, 69
2,81674, Note_on_c, 0, 68, 0
2,81753, Note_on_c, 0, 53, 0
2,81762, Note_on_c, 0, 54, 64
2,81863, Note_on_c, 0, 56, 66
2,81866, Note_on_c, 0, 54, 0
2,81877, Note_on_c, 0, 71, 88
2,81903, Note_on_c, 0, 73, 0
2,81965, Note_on_c, 0, 56, 0
2,81978, Note_on_c, 0, 53, 68
2,82053, Note_on_c, 0, 53, 0
2,82053, Note_on_c, 0, 65, 0
2,82090, Note_on_c, 0, 54, 71
2,82097, Note_on_c, 0, 70, 80
2,82175, Note_on_c, 0, 54, 0
2,82202, Note_on_c, 0, 42, 73
2,82296, Note_on_c, 0, 42, 0
2,82315, Note_on_c, 0, 61, 84
2,82316, Note_on_c, 0, 54, 76
2,82395, Note_on_c, 0, 54, 0
2,82417, Note_on_c, 0, 53, 64
2,82506, Note_on_c, 0, 53, 0
2,82508, Note_on_c, 0, 61, 0
2,82527, Note_on_c, 0, 54, 74
2,82542, Note_on_c, 0, 66, 80
2,82592, Note_on_c, 0, 71, 0
2,82594, Note_on_c, 0, 54, 0
2,82600, Note_on_c, 0, 70, 0
2,82635, Note_on_c, 0, 56, 65
2,82722, Note_on_c, 0, 56, 0
2,82741, Note_on_c, 0, 58, 62
2,82753, Note_on_c, 0, 65, 64
2,82782, Note_on_c, 0, 66, 0
2,82833, Note_on_c, 0, 58, 0
2,82854, Note_on_c, 0, 54, 66
2,82951, Note_on_c, 0, 54, 0
2,82957, Note_on_c, 0, 65, 0
2,82964, Note_on_c, 0, 66, 81
2,82973, Note_on_c, 0, 51, 61
2,83060, Note_on_c, 0, 51, 0
2,83064, Note_on_c, 0, 53, 68
2,83145, Note_on_c, 0, 53, 0
2,83181, Note_on_c, 0, 54, 76
2,83195, Note_on_c, 0, 70, 88
2,83205, Note_on_c, 0, 66, 0
2,83257, Note_on_c, 0, 54, 0
2,83284, Note_on_c, 0, 51, 72
2,83296, Note_on_c, 0, 66, 83
2,83303, Note_on_c, 0, 70, 0
2,83375, Note_on_c, 0, 51, 0
2,83378, Note_on_c, 0, 66, 0
2,83395, Note_on_c, 0, 48, 67
2,83397, Note_on_c, 0, 63, 76
2,83493, Note_on_c, 0, 48, 0
2,83496, Note_on_c, 0, 49, 71
2,83581, Note_on_c, 0, 49, 0
2,83603, Note_on_c, 0, 51, 72
2,83620, Note_on_c, 0, 66, 71
2,83624, Note_on_c, 0, 63, 0
2,83678, Note_on_c, 0, 51, 0
2,83693, Note_on_c, 0, 66, 0
2,83715, Note_on_c, 0, 48, 61
2,83721, Note_on_c, 0, 63, 68
2,83799, Note_on_c, 0, 63, 0
2,83844, Note_on_c, 0, 41, 64
2,83845, Note_on_c, 0, 48, 0
2,83847, Note_on_c, 0, 56, 64
2,83882, Note_on_c, 0, 41, 0
2,84070, Note_on_c, 0, 56, 0
2,84070, Note_on_c, 0, 56, 3
2,84071, Note_on_c, 0, 63, 87
2,84083, Note_on_c, 0, 53, 68
2,84126, Note_on_c, 0, 63, 0
2,84129, Note_on_c, 0, 53, 0
2,84165, Note_on_c, 0, 51, 73
2,84241, Note_on_c, 0, 56, 0
2,84290, Note_on_c, 0, 51, 0
2,84298, Note_on_c, 0, 68, 89
2,84300, Note_on_c, 0, 53, 74
2,84395, Note_on_c, 0, 53, 0
2,84417, Note_on_c, 0, 54, 68
2,84525, Note_on_c, 0, 56, 68
2,84529, Note_on_c, 0, 54, 0
2,84540, Note_on_c, 0, 60, 82
2,84572, Note_on_c, 0, 60, 0
2,84583, Note_on_c, 0, 56, 0
2,84634, Note_on_c, 0, 53, 58
2,84745, Note_on_c, 0, 50, 67
2,84753, Note_on_c, 0, 65, 73
2,84756, Note_on_c, 0, 53, 0
2,84783, Note_on_c, 0, 68, 0
2,84870, Note_on_c, 0, 50, 0
2,84872, Note_on_c, 0, 51, 75
2,84975, Note_on_c, 0, 51, 0
2,84987, Note_on_c, 0, 53, 71
2,84997, Note_on_c, 0, 68, 89
2,85008, Note_on_c, 0, 65, 0
2,85097, Note_on_c, 0, 53, 0
2,85098, Note_on_c, 0, 68, 0
2,85102, Note_on_c, 0, 50, 73
2,85103, Note_on_c, 0, 65, 71
2,85213, Note_on_c, 0, 50, 0
2,85221, Note_on_c, 0, 62, 79
2,85226, Note_on_c, 0, 46, 64
2,85231, Note_on_c, 0, 65, 0
2,85310, Note_on_c, 0, 46, 0
2,85317, Note_on_c, 0, 48, 65
2,85394, Note_on_c, 0, 48, 0
2,85430, Note_on_c, 0, 50, 70
2,85441, Note_on_c, 0, 62, 0
2,85446, Note_on_c, 0, 65, 73
2,85499, Note_on_c, 0, 50, 0
2,85515, Note_on_c, 0, 46, 69
2,85520, Note_on_c, 0, 65, 0
2,85531, Note_on_c, 0, 62, 75
2,85606, Note_on_c, 0, 62, 0
2,85620, Note_on_c, 0, 46, 0
2,85658, Note_on_c, 0, 54, 67
2,85659, Note_on_c, 0, 39, 63
2,85697, Note_on_c, 0, 39, 0
2,85896, Note_on_c, 0, 58, 86
2,85897, Note_on_c, 0, 51, 72
2,85941, Note_on_c, 0, 58, 0
2,85993, Note_on_c, 0, 51, 0
2,85997, Note_on_c, 0, 50, 66
2,86055, Note_on_c, 0, 54, 0
2,86107, Note_on_c, 0, 51, 72
2,86113, Note_on_c, 0, 66, 86
2,86115, Note_on_c, 0, 50, 0
2,86202, Note_on_c, 0, 51, 0
2,86217, Note_on_c, 0, 54, 53
2,86237, Note_on_c, 0, 53, 69
2,86256, Note_on_c, 0, 54, 0
2,86321, Note_on_c, 0, 53, 0
2,86336, Note_on_c, 0, 58, 77
2,86345, Note_on_c, 0, 54, 71
2,86368, Note_on_c, 0, 58, 0
2,86421, Note_on_c, 0, 54, 0
2,86427, Note_on_c, 0, 51, 67
2,86529, Note_on_c, 0, 51, 0
2,86546, Note_on_c, 0, 48, 71
2,86552, Note_on_c, 0, 63, 79
2,86604, Note_on_c, 0, 66, 0
2,86654, Note_on_c, 0, 49, 76
2,86661, Note_on_c, 0, 65, 82
2,86670, Note_on_c, 0, 48, 0
2,86715, Note_on_c, 0, 63, 0
2,86740, Note_on_c, 0, 49, 0
2,86755, Note_on_c, 0, 51, 84
2,86773, Note_on_c, 0, 66, 87
2,86792, Note_on_c, 0, 65, 0
2,86839, Note_on_c, 0, 66, 0
2,86853, Note_on_c, 0, 51, 0
2,86861, Note_on_c, 0, 48, 72
2,86862, Note_on_c, 0, 63, 82
2,86952, Note_on_c, 0, 63, 0
2,86964, Note_on_c, 0, 48, 0
2,86969, Note_on_c, 0, 44, 79
2,86975, Note_on_c, 0, 75, 87
2,87070, Note_on_c, 0, 66, 76
2,87076, Note_on_c, 0, 46, 75
2,87121, Note_on_c, 0, 44, 0
2,87169, Note_on_c, 0, 46, 0
2,87175, Note_on_c, 0, 48, 80
2,87184, Note_on_c, 0, 68, 79
2,87217, Note_on_c, 0, 66, 0
2,87268, Note_on_c, 0, 48, 0
2,87272, Note_on_c, 0, 44, 74
2,87283, Note_on_c, 0, 63, 80
2,87305, Note_on_c, 0, 68, 0
2,87333, Note_on_c, 0, 63, 0
2,87399, Note_on_c, 0, 37, 85
2,87405, Note_on_c, 0, 44, 0
2,87406, Note_on_c, 0, 75, 0
2,87408, Note_on_c, 0, 65, 82
2,87428, Note_on_c, 0, 37, 0
2,87517, Note_on_c, 0, 73, 83
2,87611, Note_on_c, 0, 65, 0
2,87618, Note_on_c, 0, 72, 84
2,87631, Note_on_c, 0, 49, 89
2,87651, Note_on_c, 0, 73, 0
2,87716, Note_on_c, 0, 75, 86
2,87729, Note_on_c, 0, 51, 85
2,87739, Note_on_c, 0, 72, 0
2,87745, Note_on_c, 0, 49, 0
2,87837, Note_on_c, 0, 53, 91
2,87838, Note_on_c, 0, 73, 88
2,87857, Note_on_c, 0, 51, 0
2,87877, Note_on_c, 0, 75, 0
2,87881, Note_on_c, 0, 53, 0
2,87941, Note_on_c, 0, 68, 82
2,87950, Note_on_c, 0, 73, 0
2,88060, Note_on_c, 0, 61, 94
2,88063, Note_on_c, 0, 49, 81
2,88072, Note_on_c, 0, 70, 84
2,88100, Note_on_c, 0, 49, 0
2,88110, Note_on_c, 0, 68, 0
2,88179, Note_on_c, 0, 71, 82
2,88203, Note_on_c, 0, 70, 0
2,88299, Note_on_c, 0, 54, 84
2,88302, Note_on_c, 0, 70, 91
2,88332, Note_on_c, 0, 71, 0
2,88398, Note_on_c, 0, 70, 0
2,88401, Note_on_c, 0, 68, 93
2,88403, Note_on_c, 0, 60, 86
2,88451, Note_on_c, 0, 61, 0
2,88497, Note_on_c, 0, 68, 0
2,88500, Note_on_c, 0, 54, 0
2,88500, Note_on_c, 0, 58, 87
2,88503, Note_on_c, 0, 66, 92
2,88522, Note_on_c, 0, 60, 0
2,88595, Note_on_c, 0, 68, 91
2,88596, Note_on_c, 0, 60, 85
2,88600, Note_on_c, 0, 66, 0
2,88620, Note_on_c, 0, 58, 0
2,88672, Note_on_c, 0, 68, 0
2,88715, Note_on_c, 0, 60, 0
2,88715, Note_on_c, 0, 77, 91
2,88717, Note_on_c, 0, 61, 94
2,88725, Note_on_c, 0, 53, 77
2,88762, Note_on_c, 0, 77, 0
2,88819, Note_on_c, 0, 61, 0
2,88822, Note_on_c, 0, 60, 78
2,88877, Note_on_c, 0, 73, 33
2,88897, Note_on_c, 0, 73, 0
2,88953, Note_on_c, 0, 73, 97
2,88956, Note_on_c, 0, 58, 83
2,88971, Note_on_c, 0, 53, 0
2,88971, Note_on_c, 0, 60, 0
2,89000, Note_on_c, 0, 73, 0
2,89059, Note_on_c, 0, 58, 0
2,89069, Note_on_c, 0, 56, 71
2,89170, Note_on_c, 0, 56, 0
2,89188, Note_on_c, 0, 68, 96
2,89194, Note_on_c, 0, 51, 78
2,89194, Note_on_c, 0, 58, 74
2,89235, Note_on_c, 0, 51, 0
2,89315, Note_on_c, 0, 58, 0
2,89315, Note_on_c, 0, 58, 6
2,89406, Note_on_c, 0, 68, 0
2,89412, Note_on_c, 0, 66, 89
2,89423, Note_on_c, 0, 49, 68
2,89454, Note_on_c, 0, 49, 0
2,89485, Note_on_c, 0, 66, 0
2,89511, Note_on_c, 0, 65, 83
2,89593, Note_on_c, 0, 65, 0
2,89620, Note_on_c, 0, 66, 90
2,89628, Note_on_c, 0, 48, 75
2,89667, Note_on_c, 0, 66, 0
2,89735, Note_on_c, 0, 56, 84
2,89748, Note_on_c, 0, 58, 0
2,89849, Note_on_c, 0, 54, 78
2,89861, Note_on_c, 0, 75, 90
2,89887, Note_on_c, 0, 56, 0
2,89908, Note_on_c, 0, 48, 0
2,89917, Note_on_c, 0, 75, 0
2,89949, Note_on_c, 0, 58, 77
2,89995, Note_on_c, 0, 54, 0
2,90067, Note_on_c, 0, 65, 86
2,90075, Note_on_c, 0, 56, 78
2,90076, Note_on_c, 0, 49, 66
2,90082, Note_on_c, 0, 58, 0
2,90127, Note_on_c, 0, 65, 0
2,90168, Note_on_c, 0, 54, 75
2,90195, Note_on_c, 0, 49, 0
2,90195, Note_on_c, 0, 56, 0
2,90289, Note_on_c, 0, 54, 0
2,90289, Note_on_c, 0, 73, 94
2,90293, Note_on_c, 0, 53, 73
2,90341, Note_on_c, 0, 73, 0
2,90384, Note_on_c, 0, 53, 0
2,90389, Note_on_c, 0, 56, 82
2,90447, Note_on_c, 0, 56, 0
2,90505, Note_on_c, 0, 54, 80
2,90509, Note_on_c, 0, 63, 85
2,90518, Note_on_c, 0, 44, 64
2,90556, Note_on_c, 0, 63, 0
2,90606, Note_on_c, 0, 54, 0
2,90608, Note_on_c, 0, 53, 74
2,90717, Note_on_c, 0, 53, 0
2,90726, Note_on_c, 0, 51, 70
2,90729, Note_on_c, 0, 72, 79
2,90759, Note_on_c, 0, 44, 0
2,90775, Note_on_c, 0, 72, 0
2,90844, Note_on_c, 0, 54, 64
2,90854, Note_on_c, 0, 51, 0
2,90937, Note_on_c, 0, 54, 0
2,90962, Note_on_c, 0, 46, 56
2,90965, Note_on_c, 0, 61, 73
2,90974, Note_on_c, 0, 53, 62
2,91017, Note_on_c, 0, 61, 0
2,91059, Note_on_c, 0, 46, 0
2,91059, Note_on_c, 0, 65, 67
2,91078, Note_on_c, 0, 53, 0
2,91084, Note_on_c, 0, 56, 71
2,91155, Note_on_c, 0, 56, 0
2,91171, Note_on_c, 0, 66, 69
2,91173, Note_on_c, 0, 58, 63
2,91180, Note_on_c, 0, 65, 0
2,91240, Note_on_c, 0, 58, 0
2,91267, Note_on_c, 0, 66, 0
2,91275, Note_on_c, 0, 68, 73
2,91285, Note_on_c, 0, 60, 73
2,91380, Note_on_c, 0, 70, 73
2,91381, Note_on_c, 0, 61, 79
2,91383, Note_on_c, 0, 60, 0
2,91411, Note_on_c, 0, 68, 0
2,91439, Note_on_c, 0, 70, 0
2,91483, Note_on_c, 0, 60, 79
2,91486, Note_on_c, 0, 72, 79
2,91539, Note_on_c, 0, 61, 0
2,91576, Note_on_c, 0, 58, 75
2,91576, Note_on_c, 0, 60, 0
2,91585, Note_on_c, 0, 73, 86
2,91595, Note_on_c, 0, 72, 0
2,91680, Note_on_c, 0, 75, 91
2,91691, Note_on_c, 0, 56, 77
2,91698, Note_on_c, 0, 58, 0
2,91709, Note_on_c, 0, 73, 0
2,91738, Note_on_c, 0, 56, 0
2,91788, Note_on_c, 0, 55, 82
2,91795, Note_on_c, 0, 76, 89
2,91809, Note_on_c, 0, 75, 0
2,91887, Note_on_c, 0, 56, 82
2,91895, Note_on_c, 0, 55, 0
2,91895, Note_on_c, 0, 75, 89
2,91933, Note_on_c, 0, 76, 0
2,91993, Note_on_c, 0, 56, 0
2,91996, Note_on_c, 0, 73, 86
2,91999, Note_on_c, 0, 58, 85
2,92025, Note_on_c, 0, 75, 0
2,92071, Note_on_c, 0, 58, 0
2,92102, Note_on_c, 0, 55, 83
2,92109, Note_on_c, 0, 75, 90
2,92120, Note_on_c, 0, 56, 20
2,92121, Note_on_c, 0, 56, 0
2,92149, Note_on_c, 0, 55, 0
2,92154, Note_on_c, 0, 73, 0
2,92200, Note_on_c, 0, 75, 0
2,92216, Note_on_c, 0, 51, 89
2,92218, Note_on_c, 0, 76, 90
2,92314, Note_on_c, 0, 49, 73
2,92320, Note_on_c, 0, 79, 88
2,92359, Note_on_c, 0, 76, 0
2,92429, Note_on_c, 0, 48, 78
2,92429, Note_on_c, 0, 80, 78
2,92459, Note_on_c, 0, 49, 0
2,92481, Note_on_c, 0, 79, 0
2,92500, Note_on_c, 0, 46, 67
2,92514, Note_on_c, 0, 48, 0
2,92529, Note_on_c, 0, 82, 91
2,92558, Note_on_c, 0, 83, 71
2,92577, Note_on_c, 0, 80, 0
2,92597, Note_on_c, 0, 51, 0
2,92625, Note_on_c, 0, 83, 0
2,92628, Note_on_c, 0, 44, 82
2,92639, Note_on_c, 0, 73, 95
2,92641, Note_on_c, 0, 46, 0
2,92657, Note_on_c, 0, 82, 0
2,92731, Note_on_c, 0, 51, 76
2,92742, Note_on_c, 0, 72, 85
2,92748, Note_on_c, 0, 73, 0
2,92793, Note_on_c, 0, 44, 0
2,92835, Note_on_c, 0, 53, 82
2,92839, Note_on_c, 0, 51, 0
2,92850, Note_on_c, 0, 70, 89
2,92868, Note_on_c, 0, 72, 0
2,92934, Note_on_c, 0, 54, 83
2,92953, Note_on_c, 0, 68, 91
2,92974, Note_on_c, 0, 53, 0
2,92985, Note_on_c, 0, 70, 0
2,93062, Note_on_c, 0, 56, 85
2,93065, Note_on_c, 0, 75, 95
2,93087, Note_on_c, 0, 68, 0
2,93096, Note_on_c, 0, 54, 0
2,93099, Note_on_c, 0, 70, 43
2,93100, Note_on_c, 0, 70, 0
2,93122, Note_on_c, 0, 75, 0
2,93163, Note_on_c, 0, 58, 85
2,93188, Note_on_c, 0, 56, 0
2,93274, Note_on_c, 0, 58, 0
2,93274, Note_on_c, 0, 60, 88
2,93283, Note_on_c, 0, 66, 95
2,93328, Note_on_c, 0, 66, 0
2,93335, Note_on_c, 0, 68, 8
2,93336, Note_on_c, 0, 68, 0
2,93346, Note_on_c, 0, 60, 0
2,93388, Note_on_c, 0, 56, 90
2,93443, Note_on_c, 0, 56, 0
2,93539, Note_on_c, 0, 61, 93
2,93540, Note_on_c, 0, 65, 86
2,93633, Note_on_c, 0, 65, 0
2,93795, Note_on_c, 0, 41, 83
2,93797, Note_on_c, 0, 68, 92
2,93798, Note_on_c, 0, 73, 95
2,93835, Note_on_c, 0, 66, 40
2,93845, Note_on_c, 0, 61, 0
2,93846, Note_on_c, 0, 70, 28
2,93854, Note_on_c, 0, 41, 0
2,93862, Note_on_c, 0, 66, 0
2,93863, Note_on_c, 0, 70, 0
2,93897, Note_on_c, 0, 73, 0
2,93899, Note_on_c, 0, 68, 0
2,94104, Note_on_c, 0, 63, 97
2,94105, Note_on_c, 0, 42, 82
2,94113, Note_on_c, 0, 70, 86
2,94124, Note_on_c, 0, 66, 65
2,94155, Note_on_c, 0, 42, 0
2,94216, Note_on_c, 0, 66, 0
2,94231, Note_on_c, 0, 70, 0
2,94451, Note_on_c, 0, 72, 86
2,94453, Note_on_c, 0, 66, 70
2,94455, Note_on_c, 0, 68, 57
2,94457, Note_on_c, 0, 44, 77
2,94483, Note_on_c, 0, 68, 0
2,94500, Note_on_c, 0, 66, 0
2,94521, Note_on_c, 0, 44, 0
2,94615, Note_on_c, 0, 72, 0
2,94646, Note_on_c, 0, 63, 0
2,94919, Note_on_c, 0, 73, 95
2,94925, Note_on_c, 0, 37, 65
2,94927, Note_on_c, 0, 61, 82
2,94927, Note_on_c, 0, 65, 79
2,94928, Note_on_c, 0, 68, 68
2,95617, Control_c, 0, 64, 20
2,95623, Control_c, 0, 64, 28
2,95636, Control_c, 0, 64, 35
2,95652, Control_c, 0, 64, 39
2,95666, Control_c, 0, 64, 42
2,95682, Control_c, 0, 64, 45
2,95697, Control_c, 0, 64, 48
2,95713, Control_c, 0, 64, 51
2,95729, Control_c, 0, 64, 53
2,95743, Control_c, 0, 64, 55
2,95759, Control_c, 0, 64, 57
2,95774, Control_c, 0, 64, 59
2,95789, Control_c, 0, 64, 61
2,95805, Control_c, 0, 64, 62
2,95827, Control_c, 0, 64, 64
2,95843, Control_c, 0, 64, 65
2,95857, Control_c, 0, 64, 67
2,95868, Control_c, 0, 64, 68
2,95883, Control_c, 0, 64, 70
2,95899, Control_c, 0, 64, 71
2,95913, Control_c, 0, 64, 72
2,95928, Control_c, 0, 64, 72
2,96157, Control_c, 0, 64, 72
2,96188, Control_c, 0, 64, 71
2,96202, Control_c, 0, 64, 71
2,96233, Control_c, 0, 64, 70
2,96263, Control_c, 0, 64, 70
2,96294, Control_c, 0, 64, 69
2,96309, Control_c, 0, 64, 69
2,96339, Control_c, 0, 64, 68
2,96354, Control_c, 0, 64, 68
2,96369, Control_c, 0, 64, 67
2,96385, Control_c, 0, 64, 67
2,96399, Control_c, 0, 64, 66
2,96415, Control_c, 0, 64, 66
2,96430, Control_c, 0, 64, 65
2,96445, Control_c, 0, 64, 65
2,96461, Control_c, 0, 64, 64
2,96475, Control_c, 0, 64, 63
2,96490, Control_c, 0, 64, 62
2,96506, Control_c, 0, 64, 61
2,96522, Control_c, 0, 64, 59
2,96538, Control_c, 0, 64, 57
2,96552, Control_c, 0, 64, 55
2,96560, Note_on_c, 0, 73, 0
2,96567, Control_c, 0, 64, 52
2,96589, Note_on_c, 0, 61, 0
2,96591, Control_c, 0, 64, 49
2,96606, Control_c, 0, 64, 45
2,96615, Note_on_c, 0, 65, 0
2,96622, Control_c, 0, 64, 41
2,96622, Note_on_c, 0, 68, 0
2,96623, Note_on_c, 0, 37, 0
2,96636, Control_c, 0, 64, 35
2,96651, Control_c, 0, 64, 26
2,96667, Control_c, 0, 64, 0
2,96668, End_track
0, 0, End_of_file
