0, 0, Header, 1, 2, 384
1, 0, Start_track
1, 0, Tempo, 500000
1, 0, Time_signature, 4, 2, 24, 8
1, 1, End_track
2, 0, Start_track
2, 0, Title_t, "7.7.13 Group 1"
2, 0, Program_c, 0, 0
2, 0, Control_c, 0, 64, 0
2, 0, Control_c, 0, 66, 0
2, 0, Control_c, 0, 67, 0
2, 790, Note_on_c, 0, 77, 66
2, 800, Note_on_c, 0, 49, 45
2, 870, Note_on_c, 0, 77, 0
2, 888, Note_on_c, 0, 73, 63
2, 965, Note_on_c, 0, 73, 0
2, 975, Note_on_c, 0, 68, 68
2, 1026, Note_on_c, 0, 68, 0
2, 1049, Note_on_c, 0, 73, 75
2, 1063, Note_on_c, 0, 49, 0
2, 1116, Note_on_c, 0, 73, 0
2, 1133, Note_on_c, 0, 77, 70
2, 1162, Note_on_c, 0, 61, 57
2, 1199, Note_on_c, 0, 77, 0
2, 1228, Note_on_c, 0, 73, 77
2, 1279, Note_on_c, 0, 73, 0
2, 1298, Note_on_c, 0, 61, 0
2, 1313, Note_on_c, 0, 78, 77
2, 1323, Note_on_c, 0, 51, 54
2, 1367, Note_on_c, 0, 78, 0
2, 1397, Note_on_c, 0, 73, 70
2, 1454, Note_on_c, 0, 73, 0
2, 1482, Note_on_c, 0, 78, 72
2, 1544, Note_on_c, 0, 78, 0
2, 1568, Note_on_c, 0, 73, 69
2, 1624, Note_on_c, 0, 73, 0
2, 1651, Note_on_c, 0, 51, 0
2, 1653, Note_on_c, 0, 78, 74
2, 1668, Note_on_c, 0, 61, 50
2, 1719, Note_on_c, 0, 78, 0
2, 1728, Note_on_c, 0, 61, 0
2, 1735, Note_on_c, 0, 73, 75
2, 1800, Note_on_c, 0, 73, 0
2, 1825, Note_on_c, 0, 80, 79
2, 1835, Note_on_c, 0, 53, 50
2, 1894, Note_on_c, 0, 80, 0
2, 1922, Note_on_c, 0, 73, 78
2, 1992, Note_on_c, 0, 73, 0
2, 2007, Note_on_c, 0, 80, 86
2, 2063, Note_on_c, 0, 80, 0
2, 2095, Note_on_c, 0, 73, 83
2, 2167, Note_on_c, 0, 73, 0
2, 2172, Note_on_c, 0, 53, 0
2, 2179, Note_on_c, 0, 80, 82
2, 2200, Note_on_c, 0, 61, 59
2, 2228, Note_on_c, 0, 80, 0
2, 2243, Note_on_c, 0, 61, 0
2, 2264, Note_on_c, 0, 73, 85
2, 2334, Note_on_c, 0, 73, 0
2, 2356, Note_on_c, 0, 54, 61
2, 2356, Note_on_c, 0, 82, 87
2, 2386, Note_on_c, 0, 80, 43
2, 2411, Note_on_c, 0, 80, 0
2, 2427, Note_on_c, 0, 82, 0
2, 2445, Note_on_c, 0, 73, 77
2, 2515, Note_on_c, 0, 73, 0
2, 2527, Note_on_c, 0, 82, 83
2, 2584, Note_on_c, 0, 82, 0
2, 2617, Note_on_c, 0, 73, 78
2, 2636, Note_on_c, 0, 54, 0
2, 2679, Note_on_c, 0, 73, 0
2, 2707, Note_on_c, 0, 82, 77
2, 2744, Note_on_c, 0, 61, 44
2, 2763, Note_on_c, 0, 82, 0
2, 2797, Note_on_c, 0, 73, 64
2, 2826, Note_on_c, 0, 61, 0
2, 2840, Note_on_c, 0, 73, 0
2, 2875, Note_on_c, 0, 80, 73
2, 2889, Note_on_c, 0, 53, 48
2, 2934, Note_on_c, 0, 80, 0
2, 2970, Note_on_c, 0, 73, 62
2, 3034, Note_on_c, 0, 73, 0
2, 3053, Note_on_c, 0, 80, 71
2, 3097, Note_on_c, 0, 80, 0
2, 3140, Note_on_c, 0, 73, 69
2, 3148, Note_on_c, 0, 53, 0
2, 3187, Note_on_c, 0, 73, 0
2, 3218, Note_on_c, 0, 80, 72
2, 3226, Note_on_c, 0, 61, 51
2, 3267, Note_on_c, 0, 61, 0
2, 3280, Note_on_c, 0, 80, 0
2, 3303, Note_on_c, 0, 73, 67
2, 3371, Note_on_c, 0, 73, 0
2, 3383, Note_on_c, 0, 51, 54
2, 3399, Note_on_c, 0, 78, 67
2, 3465, Note_on_c, 0, 78, 0
2, 3487, Note_on_c, 0, 77, 70
2, 3554, Note_on_c, 0, 77, 0
2, 3573, Note_on_c, 0, 75, 81
2, 3630, Note_on_c, 0, 75, 0
2, 3642, Note_on_c, 0, 77, 85
2, 3652, Note_on_c, 0, 51, 0
2, 3732, Note_on_c, 0, 78, 83
2, 3735, Note_on_c, 0, 60, 58
2, 3741, Note_on_c, 0, 77, 0
2, 3779, Note_on_c, 0, 60, 0
2, 3794, Note_on_c, 0, 78, 0
2, 3810, Note_on_c, 0, 75, 81
2, 3870, Note_on_c, 0, 75, 0
2, 3900, Note_on_c, 0, 77, 71
2, 3904, Note_on_c, 0, 49, 54
2, 3994, Note_on_c, 0, 75, 71
2, 4014, Note_on_c, 0, 77, 0
2, 4066, Note_on_c, 0, 73, 80
2, 4075, Note_on_c, 0, 75, 0
2, 4085, Note_on_c, 0, 49, 0
2, 4148, Note_on_c, 0, 75, 79
2, 4169, Note_on_c, 0, 73, 0
2, 4251, Note_on_c, 0, 77, 75
2, 4262, Note_on_c, 0, 75, 0
2, 4264, Note_on_c, 0, 61, 78
2, 4331, Note_on_c, 0, 73, 78
2, 4349, Note_on_c, 0, 77, 0
2, 4422, Note_on_c, 0, 75, 81
2, 4481, Note_on_c, 0, 73, 0
2, 4512, Note_on_c, 0, 77, 82
2, 4521, Note_on_c, 0, 75, 0
2, 4594, Note_on_c, 0, 61, 0
2, 4600, Note_on_c, 0, 75, 83
2, 4610, Note_on_c, 0, 60, 73
2, 4622, Note_on_c, 0, 77, 0
2, 4658, Note_on_c, 0, 75, 0
2, 4678, Note_on_c, 0, 73, 84
2, 4695, Note_on_c, 0, 58, 75
2, 4697, Note_on_c, 0, 60, 0
2, 4743, Note_on_c, 0, 73, 0
2, 4765, Note_on_c, 0, 58, 0
2, 4768, Note_on_c, 0, 72, 72
2, 4775, Note_on_c, 0, 56, 70
2, 4814, Note_on_c, 0, 72, 0
2, 4850, Note_on_c, 0, 70, 78
2, 4860, Note_on_c, 0, 56, 0
2, 4865, Note_on_c, 0, 58, 72
2, 4906, Note_on_c, 0, 70, 0
2, 4907, Note_on_c, 0, 58, 0
2, 4943, Note_on_c, 0, 68, 69
2, 4949, Note_on_c, 0, 60, 65
2, 5009, Note_on_c, 0, 60, 0
2, 5049, Note_on_c, 0, 56, 65
2, 5058, Note_on_c, 0, 68, 0
2, 5058, Note_on_c, 0, 68, 8
2, 5109, Note_on_c, 0, 56, 0
2, 5135, Note_on_c, 0, 51, 61
2, 5153, Note_on_c, 0, 68, 0
2, 5209, Note_on_c, 0, 51, 0
2, 5219, Note_on_c, 0, 56, 64
2, 5257, Note_on_c, 0, 56, 0
2, 5290, Note_on_c, 0, 80, 63
2, 5297, Note_on_c, 0, 60, 63
2, 5331, Note_on_c, 0, 80, 0
2, 5335, Note_on_c, 0, 60, 0
2, 5370, Note_on_c, 0, 56, 68
2, 5441, Note_on_c, 0, 56, 0
2, 5457, Note_on_c, 0, 70, 64
2, 5464, Note_on_c, 0, 61, 66
2, 5513, Note_on_c, 0, 61, 0
2, 5554, Note_on_c, 0, 56, 61
2, 5622, Note_on_c, 0, 56, 0
2, 5630, Note_on_c, 0, 61, 67
2, 5682, Note_on_c, 0, 61, 0
2, 5693, Note_on_c, 0, 70, 0
2, 5712, Note_on_c, 0, 56, 71
2, 5789, Note_on_c, 0, 56, 0
2, 5800, Note_on_c, 0, 61, 76
2, 5811, Note_on_c, 0, 80, 73
2, 5858, Note_on_c, 0, 61, 0
2, 5873, Note_on_c, 0, 80, 0
2, 5888, Note_on_c, 0, 56, 75
2, 5959, Note_on_c, 0, 56, 0
2, 5982, Note_on_c, 0, 63, 78
2, 5987, Note_on_c, 0, 72, 80
2, 6038, Note_on_c, 0, 63, 0
2, 6072, Note_on_c, 0, 56, 75
2, 6149, Note_on_c, 0, 56, 0
2, 6162, Note_on_c, 0, 63, 76
2, 6213, Note_on_c, 0, 72, 0
2, 6227, Note_on_c, 0, 63, 0
2, 6248, Note_on_c, 0, 56, 80
2, 6317, Note_on_c, 0, 56, 0
2, 6327, Note_on_c, 0, 80, 78
2, 6329, Note_on_c, 0, 63, 83
2, 6382, Note_on_c, 0, 63, 0
2, 6393, Note_on_c, 0, 80, 0
2, 6417, Note_on_c, 0, 56, 79
2, 6481, Note_on_c, 0, 56, 0
2, 6502, Note_on_c, 0, 73, 88
2, 6515, Note_on_c, 0, 65, 75
2, 6590, Note_on_c, 0, 65, 0
2, 6605, Note_on_c, 0, 56, 71
2, 6663, Note_on_c, 0, 56, 0
2, 6697, Note_on_c, 0, 65, 69
2, 6741, Note_on_c, 0, 65, 0
2, 6774, Note_on_c, 0, 73, 0
2, 6776, Note_on_c, 0, 56, 67
2, 6819, Note_on_c, 0, 56, 0
2, 6853, Note_on_c, 0, 80, 69
2, 6855, Note_on_c, 0, 65, 66
2, 6895, Note_on_c, 0, 80, 0
2, 6905, Note_on_c, 0, 65, 0
2, 6941, Note_on_c, 0, 56, 65
2, 7016, Note_on_c, 0, 56, 0
2, 7029, Note_on_c, 0, 72, 66
2, 7044, Note_on_c, 0, 63, 58
2, 7084, Note_on_c, 0, 63, 0
2, 7122, Note_on_c, 0, 56, 66
2, 7164, Note_on_c, 0, 56, 0
2, 7199, Note_on_c, 0, 63, 66
2, 7229, Note_on_c, 0, 72, 0
2, 7260, Note_on_c, 0, 63, 0
2, 7277, Note_on_c, 0, 56, 67
2, 7342, Note_on_c, 0, 56, 0
2, 7369, Note_on_c, 0, 80, 71
2, 7370, Note_on_c, 0, 63, 73
2, 7413, Note_on_c, 0, 63, 0
2, 7425, Note_on_c, 0, 80, 0
2, 7451, Note_on_c, 0, 56, 71
2, 7527, Note_on_c, 0, 56, 0
2, 7540, Note_on_c, 0, 61, 69
2, 7544, Note_on_c, 0, 70, 69
2, 7594, Note_on_c, 0, 61, 0
2, 7636, Note_on_c, 0, 60, 65
2, 7719, Note_on_c, 0, 58, 78
2, 7721, Note_on_c, 0, 60, 0
2, 7736, Note_on_c, 0, 70, 0
2, 7783, Note_on_c, 0, 58, 0
2, 7802, Note_on_c, 0, 60, 79
2, 7873, Note_on_c, 0, 60, 0
2, 7887, Note_on_c, 0, 61, 80
2, 7887, Note_on_c, 0, 79, 81
2, 7938, Note_on_c, 0, 79, 0
2, 7942, Note_on_c, 0, 61, 0
2, 7972, Note_on_c, 0, 58, 74
2, 8038, Note_on_c, 0, 58, 0
2, 8074, Note_on_c, 0, 68, 72
2, 8082, Note_on_c, 0, 60, 66
2, 8126, Note_on_c, 0, 60, 0
2, 8163, Note_on_c, 0, 58, 66
2, 8180, Note_on_c, 0, 68, 0
2, 8245, Note_on_c, 0, 58, 0
2, 8249, Note_on_c, 0, 56, 73
2, 8320, Note_on_c, 0, 56, 0
2, 8332, Note_on_c, 0, 58, 83
2, 8398, Note_on_c, 0, 58, 0
2, 8433, Note_on_c, 0, 60, 71
2, 8442, Note_on_c, 0, 80, 82
2, 8500, Note_on_c, 0, 60, 0
2, 8529, Note_on_c, 0, 56, 68
2, 8615, Note_on_c, 0, 58, 74
2, 8617, Note_on_c, 0, 56, 0
2, 8690, Note_on_c, 0, 58, 0
2, 8707, Note_on_c, 0, 59, 67
2, 8788, Note_on_c, 0, 59, 0
2, 8795, Note_on_c, 0, 58, 76
2, 8809, Note_on_c, 0, 78, 74
2, 8841, Note_on_c, 0, 80, 0
2, 8893, Note_on_c, 0, 56, 73
2, 8895, Note_on_c, 0, 58, 0
2, 8895, Note_on_c, 0, 77, 80
2, 8907, Note_on_c, 0, 78, 0
2, 8968, Note_on_c, 0, 56, 0
2, 8975, Note_on_c, 0, 54, 68
2, 8978, Note_on_c, 0, 77, 0
2, 8987, Note_on_c, 0, 75, 77
2, 9019, Note_on_c, 0, 54, 0
2, 9059, Note_on_c, 0, 53, 63
2, 9069, Note_on_c, 0, 77, 78
2, 9076, Note_on_c, 0, 75, 0
2, 9105, Note_on_c, 0, 53, 0
2, 9146, Note_on_c, 0, 77, 0
2, 9150, Note_on_c, 0, 78, 73
2, 9155, Note_on_c, 0, 51, 63
2, 9219, Note_on_c, 0, 78, 0
2, 9238, Note_on_c, 0, 75, 68
2, 9285, Note_on_c, 0, 75, 0
2, 9324, Note_on_c, 0, 70, 64
2, 9366, Note_on_c, 0, 70, 0
2, 9369, Note_on_c, 0, 51, 0
2, 9400, Note_on_c, 0, 75, 69
2, 9477, Note_on_c, 0, 75, 0
2, 9490, Note_on_c, 0, 78, 70
2, 9521, Note_on_c, 0, 63, 47
2, 9532, Note_on_c, 0, 78, 0
2, 9568, Note_on_c, 0, 63, 0
2, 9604, Note_on_c, 0, 75, 55
2, 9647, Note_on_c, 0, 75, 0
2, 9655, Note_on_c, 0, 53, 49
2, 9679, Note_on_c, 0, 80, 66
2, 9736, Note_on_c, 0, 80, 0
2, 9764, Note_on_c, 0, 75, 61
2, 9819, Note_on_c, 0, 75, 0
2, 9850, Note_on_c, 0, 80, 71
2, 9908, Note_on_c, 0, 80, 0
2, 9926, Note_on_c, 0, 75, 76
2, 9935, Note_on_c, 0, 53, 0
2, 9993, Note_on_c, 0, 75, 0
2, 10017, Note_on_c, 0, 80, 80
2, 10030, Note_on_c, 0, 63, 48
2, 10079, Note_on_c, 0, 80, 0
2, 10094, Note_on_c, 0, 75, 80
2, 10097, Note_on_c, 0, 63, 0
2, 10161, Note_on_c, 0, 75, 0
2, 10185, Note_on_c, 0, 82, 83
2, 10196, Note_on_c, 0, 54, 55
2, 10254, Note_on_c, 0, 82, 0
2, 10270, Note_on_c, 0, 75, 77
2, 10339, Note_on_c, 0, 75, 0
2, 10357, Note_on_c, 0, 82, 88
2, 10432, Note_on_c, 0, 82, 0
2, 10450, Note_on_c, 0, 75, 83
2, 10496, Note_on_c, 0, 54, 0
2, 10525, Note_on_c, 0, 75, 0
2, 10536, Note_on_c, 0, 82, 87
2, 10556, Note_on_c, 0, 63, 61
2, 10601, Note_on_c, 0, 63, 0
2, 10603, Note_on_c, 0, 82, 0
2, 10622, Note_on_c, 0, 75, 83
2, 10687, Note_on_c, 0, 75, 0
2, 10712, Note_on_c, 0, 83, 79
2, 10718, Note_on_c, 0, 56, 72
2, 10742, Note_on_c, 0, 82, 27
2, 10743, Note_on_c, 0, 82, 0
2, 10786, Note_on_c, 0, 83, 0
2, 10792, Note_on_c, 0, 75, 74
2, 10873, Note_on_c, 0, 75, 0
2, 10895, Note_on_c, 0, 83, 77
2, 10950, Note_on_c, 0, 83, 0
2, 10974, Note_on_c, 0, 75, 73
2, 10997, Note_on_c, 0, 56, 0
2, 11035, Note_on_c, 0, 75, 0
2, 11064, Note_on_c, 0, 83, 76
2, 11077, Note_on_c, 0, 63, 45
2, 11109, Note_on_c, 0, 63, 0
2, 11122, Note_on_c, 0, 83, 0
2, 11160, Note_on_c, 0, 75, 67
2, 11213, Note_on_c, 0, 75, 0
2, 11233, Note_on_c, 0, 54, 61
2, 11248, Note_on_c, 0, 82, 69
2, 11303, Note_on_c, 0, 82, 0
2, 11330, Note_on_c, 0, 75, 65
2, 11397, Note_on_c, 0, 75, 0
2, 11419, Note_on_c, 0, 82, 71
2, 11469, Note_on_c, 0, 82, 0
2, 11503, Note_on_c, 0, 54, 0
2, 11503, Note_on_c, 0, 75, 73
2, 11559, Note_on_c, 0, 75, 0
2, 11582, Note_on_c, 0, 82, 72
2, 11603, Note_on_c, 0, 63, 52
2, 11645, Note_on_c, 0, 82, 0
2, 11656, Note_on_c, 0, 63, 0
2, 11673, Note_on_c, 0, 75, 67
2, 11739, Note_on_c, 0, 75, 0
2, 11769, Note_on_c, 0, 53, 55
2, 11769, Note_on_c, 0, 80, 62
2, 11834, Note_on_c, 0, 80, 0
2, 11855, Note_on_c, 0, 78, 69
2, 11917, Note_on_c, 0, 78, 0
2, 11941, Note_on_c, 0, 77, 75
2, 11993, Note_on_c, 0, 77, 0
2, 12018, Note_on_c, 0, 78, 79
2, 12028, Note_on_c, 0, 53, 0
2, 12105, Note_on_c, 0, 80, 77
2, 12115, Note_on_c, 0, 62, 55
2, 12115, Note_on_c, 0, 78, 0
2, 12160, Note_on_c, 0, 62, 0
2, 12176, Note_on_c, 0, 80, 0
2, 12196, Note_on_c, 0, 77, 71
2, 12244, Note_on_c, 0, 77, 0
2, 12283, Note_on_c, 0, 78, 70
2, 12286, Note_on_c, 0, 51, 54
2, 12362, Note_on_c, 0, 78, 0
2, 12375, Note_on_c, 0, 77, 56
2, 12451, Note_on_c, 0, 75, 77
2, 12458, Note_on_c, 0, 77, 0
2, 12483, Note_on_c, 0, 51, 0
2, 12538, Note_on_c, 0, 77, 73
2, 12562, Note_on_c, 0, 75, 0
2, 12625, Note_on_c, 0, 78, 81
2, 12633, Note_on_c, 0, 63, 79
2, 12647, Note_on_c, 0, 77, 0
2, 12725, Note_on_c, 0, 75, 76
2, 12741, Note_on_c, 0, 78, 0
2, 12810, Note_on_c, 0, 77, 80
2, 12896, Note_on_c, 0, 75, 0
2, 12897, Note_on_c, 0, 78, 81
2, 12912, Note_on_c, 0, 77, 0
2, 12986, Note_on_c, 0, 77, 82
2, 12996, Note_on_c, 0, 63, 0
2, 12999, Note_on_c, 0, 78, 0
2, 13002, Note_on_c, 0, 61, 75
2, 13059, Note_on_c, 0, 77, 0
2, 13076, Note_on_c, 0, 75, 84
2, 13087, Note_on_c, 0, 60, 73
2, 13095, Note_on_c, 0, 61, 0
2, 13142, Note_on_c, 0, 75, 0
2, 13157, Note_on_c, 0, 73, 77
2, 13161, Note_on_c, 0, 60, 0
2, 13164, Note_on_c, 0, 58, 74
2, 13209, Note_on_c, 0, 73, 0
2, 13235, Note_on_c, 0, 58, 0
2, 13237, Note_on_c, 0, 72, 75
2, 13246, Note_on_c, 0, 60, 70
2, 13286, Note_on_c, 0, 60, 0
2, 13298, Note_on_c, 0, 72, 0
2, 13329, Note_on_c, 0, 61, 73
2, 13336, Note_on_c, 0, 70, 75
2, 13394, Note_on_c, 0, 61, 0
2, 13420, Note_on_c, 0, 58, 66
2, 13499, Note_on_c, 0, 58, 0
2, 13522, Note_on_c, 0, 53, 63
2, 13557, Note_on_c, 0, 70, 0
2, 13589, Note_on_c, 0, 53, 0
2, 13603, Note_on_c, 0, 58, 66
2, 13651, Note_on_c, 0, 58, 0
2, 13683, Note_on_c, 0, 61, 68
2, 13702, Note_on_c, 0, 82, 65
2, 13724, Note_on_c, 0, 61, 0
2, 13739, Note_on_c, 0, 82, 0
2, 13764, Note_on_c, 0, 58, 69
2, 13841, Note_on_c, 0, 58, 0
2, 13870, Note_on_c, 0, 63, 64
2, 13877, Note_on_c, 0, 72, 66
2, 13912, Note_on_c, 0, 63, 0
2, 13960, Note_on_c, 0, 58, 62
2, 14039, Note_on_c, 0, 58, 0
2, 14048, Note_on_c, 0, 63, 65
2, 14112, Note_on_c, 0, 63, 0
2, 14134, Note_on_c, 0, 72, 0
2, 14149, Note_on_c, 0, 58, 66
2, 14214, Note_on_c, 0, 58, 0
2, 14231, Note_on_c, 0, 82, 72
2, 14237, Note_on_c, 0, 63, 68
2, 14282, Note_on_c, 0, 63, 0
2, 14299, Note_on_c, 0, 82, 0
2, 14326, Note_on_c, 0, 58, 70
2, 14390, Note_on_c, 0, 58, 0
2, 14418, Note_on_c, 0, 65, 66
2, 14423, Note_on_c, 0, 73, 82
2, 14486, Note_on_c, 0, 65, 0
2, 14504, Note_on_c, 0, 58, 69
2, 14571, Note_on_c, 0, 58, 0
2, 14592, Note_on_c, 0, 65, 75
2, 14658, Note_on_c, 0, 65, 0
2, 14676, Note_on_c, 0, 58, 74
2, 14700, Note_on_c, 0, 73, 0
2, 14739, Note_on_c, 0, 58, 0
2, 14756, Note_on_c, 0, 65, 77
2, 14776, Note_on_c, 0, 82, 83
2, 14820, Note_on_c, 0, 65, 0
2, 14843, Note_on_c, 0, 58, 76
2, 14851, Note_on_c, 0, 82, 0
2, 14932, Note_on_c, 0, 58, 0
2, 14941, Note_on_c, 0, 75, 88
2, 14946, Note_on_c, 0, 66, 82
2, 15029, Note_on_c, 0, 66, 0
2, 15039, Note_on_c, 0, 58, 78
2, 15119, Note_on_c, 0, 58, 0
2, 15131, Note_on_c, 0, 66, 83
2, 15196, Note_on_c, 0, 66, 0
2, 15218, Note_on_c, 0, 58, 76
2, 15269, Note_on_c, 0, 75, 0
2, 15295, Note_on_c, 0, 82, 66
2, 15301, Note_on_c, 0, 58, 0
2, 15305, Note_on_c, 0, 66, 78
2, 15339, Note_on_c, 0, 82, 0
2, 15360, Note_on_c, 0, 66, 0
2, 15400, Note_on_c, 0, 58, 70
2, 15455, Note_on_c, 0, 58, 0
2, 15477, Note_on_c, 0, 73, 73
2, 15490, Note_on_c, 0, 65, 65
2, 15543, Note_on_c, 0, 65, 0
2, 15572, Note_on_c, 0, 58, 69
2, 15635, Note_on_c, 0, 58, 0
2, 15662, Note_on_c, 0, 65, 68
2, 15698, Note_on_c, 0, 73, 0
2, 15714, Note_on_c, 0, 65, 0
2, 15761, Note_on_c, 0, 58, 67
2, 15799, Note_on_c, 0, 58, 0
2, 15835, Note_on_c, 0, 82, 59
2, 15839, Note_on_c, 0, 65, 67
2, 15877, Note_on_c, 0, 65, 0
2, 15881, Note_on_c, 0, 82, 0
2, 15912, Note_on_c, 0, 58, 60
2, 16016, Note_on_c, 0, 63, 65
2, 16019, Note_on_c, 0, 72, 63
2, 16036, Note_on_c, 0, 58, 0
2, 16076, Note_on_c, 0, 63, 0
2, 16101, Note_on_c, 0, 61, 66
2, 16186, Note_on_c, 0, 60, 70
2, 16194, Note_on_c, 0, 61, 0
2, 16206, Note_on_c, 0, 72, 0
2, 16263, Note_on_c, 0, 60, 0
2, 16274, Note_on_c, 0, 61, 75
2, 16337, Note_on_c, 0, 61, 0
2, 16346, Note_on_c, 0, 63, 71
2, 16353, Note_on_c, 0, 81, 70
2, 16392, Note_on_c, 0, 81, 0
2, 16405, Note_on_c, 0, 63, 0
2, 16450, Note_on_c, 0, 60, 55
2, 16495, Note_on_c, 0, 60, 0
2, 16529, Note_on_c, 0, 70, 62
2, 16533, Note_on_c, 0, 61, 64
2, 16622, Note_on_c, 0, 61, 0
2, 16625, Note_on_c, 0, 60, 70
2, 16670, Note_on_c, 0, 70, 0
2, 16696, Note_on_c, 0, 60, 0
2, 16708, Note_on_c, 0, 58, 78
2, 16796, Note_on_c, 0, 60, 78
2, 16834, Note_on_c, 0, 58, 0
2, 16896, Note_on_c, 0, 60, 0
2, 16898, Note_on_c, 0, 61, 80
2, 16902, Note_on_c, 0, 82, 86
2, 16987, Note_on_c, 0, 61, 0
2, 16998, Note_on_c, 0, 58, 77
2, 17100, Note_on_c, 0, 64, 81
2, 17104, Note_on_c, 0, 58, 0
2, 17158, Note_on_c, 0, 64, 0
2, 17185, Note_on_c, 0, 62, 82
2, 17260, Note_on_c, 0, 62, 0
2, 17270, Note_on_c, 0, 60, 81
2, 17275, Note_on_c, 0, 80, 81
2, 17300, Note_on_c, 0, 82, 0
2, 17349, Note_on_c, 0, 80, 0
2, 17362, Note_on_c, 0, 62, 78
2, 17373, Note_on_c, 0, 60, 0
2, 17432, Note_on_c, 0, 62, 0
2, 17452, Note_on_c, 0, 64, 81
2, 17457, Note_on_c, 0, 79, 84
2, 17500, Note_on_c, 0, 79, 0
2, 17515, Note_on_c, 0, 64, 0
2, 17540, Note_on_c, 0, 60, 77
2, 17605, Note_on_c, 0, 60, 0
2, 17624, Note_on_c, 0, 80, 82
2, 17633, Note_on_c, 0, 65, 79
2, 17680, Note_on_c, 0, 80, 0
2, 17683, Note_on_c, 0, 65, 0
2, 17718, Note_on_c, 0, 64, 80
2, 17786, Note_on_c, 0, 64, 0
2, 17799, Note_on_c, 0, 68, 83
2, 17807, Note_on_c, 0, 65, 74
2, 17843, Note_on_c, 0, 68, 0
2, 17867, Note_on_c, 0, 65, 0
2, 17889, Note_on_c, 0, 67, 75
2, 17949, Note_on_c, 0, 67, 0
2, 17978, Note_on_c, 0, 65, 72
2, 17988, Note_on_c, 0, 80, 81
2, 18036, Note_on_c, 0, 65, 0
2, 18074, Note_on_c, 0, 63, 71
2, 18141, Note_on_c, 0, 63, 0
2, 18177, Note_on_c, 0, 62, 65
2, 18217, Note_on_c, 0, 62, 0
2, 18259, Note_on_c, 0, 60, 66
2, 18333, Note_on_c, 0, 60, 0
2, 18337, Note_on_c, 0, 58, 69
2, 18341, Note_on_c, 0, 78, 71
2, 18352, Note_on_c, 0, 80, 0
2, 18406, Note_on_c, 0, 78, 0
2, 18413, Note_on_c, 0, 58, 0
2, 18436, Note_on_c, 0, 60, 70
2, 18486, Note_on_c, 0, 60, 0
2, 18516, Note_on_c, 0, 62, 76
2, 18524, Note_on_c, 0, 77, 61
2, 18563, Note_on_c, 0, 62, 0
2, 18581, Note_on_c, 0, 77, 0
2, 18604, Note_on_c, 0, 58, 75
2, 18667, Note_on_c, 0, 58, 0
2, 18691, Note_on_c, 0, 78, 70
2, 18697, Note_on_c, 0, 63, 70
2, 18727, Note_on_c, 0, 63, 0
2, 18793, Note_on_c, 0, 77, 68
2, 18803, Note_on_c, 0, 78, 0
2, 18882, Note_on_c, 0, 51, 59
2, 18884, Note_on_c, 0, 77, 0
2, 18891, Note_on_c, 0, 75, 71
2, 18908, Note_on_c, 0, 51, 0
2, 18986, Note_on_c, 0, 77, 66
2, 19014, Note_on_c, 0, 75, 0
2, 19068, Note_on_c, 0, 63, 70
2, 19070, Note_on_c, 0, 78, 73
2, 19079, Note_on_c, 0, 77, 0
2, 19139, Note_on_c, 0, 78, 0
2, 19146, Note_on_c, 0, 75, 71
2, 19217, Note_on_c, 0, 75, 0
2, 19244, Note_on_c, 0, 81, 76
2, 19330, Note_on_c, 0, 79, 83
2, 19343, Note_on_c, 0, 81, 0
2, 19381, Note_on_c, 0, 63, 0
2, 19409, Note_on_c, 0, 77, 84
2, 19412, Note_on_c, 0, 79, 0
2, 19440, Note_on_c, 0, 61, 79
2, 19494, Note_on_c, 0, 61, 0
2, 19498, Note_on_c, 0, 79, 85
2, 19527, Note_on_c, 0, 77, 0
2, 19575, Note_on_c, 0, 81, 80
2, 19592, Note_on_c, 0, 79, 0
2, 19600, Note_on_c, 0, 60, 85
2, 19637, Note_on_c, 0, 60, 0
2, 19650, Note_on_c, 0, 81, 0
2, 19675, Note_on_c, 0, 77, 76
2, 19753, Note_on_c, 0, 77, 0
2, 19768, Note_on_c, 0, 82, 81
2, 19771, Note_on_c, 0, 61, 88
2, 19816, Note_on_c, 0, 61, 0
2, 19847, Note_on_c, 0, 81, 80
2, 19854, Note_on_c, 0, 82, 0
2, 19943, Note_on_c, 0, 82, 83
2, 19945, Note_on_c, 0, 49, 82
2, 19981, Note_on_c, 0, 49, 0
2, 19987, Note_on_c, 0, 81, 0
2, 20036, Note_on_c, 0, 84, 75
2, 20040, Note_on_c, 0, 82, 0
2, 20135, Note_on_c, 0, 82, 81
2, 20143, Note_on_c, 0, 61, 89
2, 20165, Note_on_c, 0, 84, 0
2, 20223, Note_on_c, 0, 80, 77
2, 20236, Note_on_c, 0, 82, 0
2, 20317, Note_on_c, 0, 79, 76
2, 20317, Note_on_c, 0, 80, 0
2, 20380, Note_on_c, 0, 79, 0
2, 20414, Note_on_c, 0, 77, 79
2, 20470, Note_on_c, 0, 61, 0
2, 20495, Note_on_c, 0, 77, 0
2, 20510, Note_on_c, 0, 76, 68
2, 20514, Note_on_c, 0, 60, 75
2, 20550, Note_on_c, 0, 60, 0
2, 20585, Note_on_c, 0, 77, 82
2, 20593, Note_on_c, 0, 76, 0
2, 20673, Note_on_c, 0, 79, 79
2, 20677, Note_on_c, 0, 77, 0
2, 20683, Note_on_c, 0, 58, 68
2, 20721, Note_on_c, 0, 58, 0
2, 20749, Note_on_c, 0, 79, 0
2, 20763, Note_on_c, 0, 75, 77
2, 20855, Note_on_c, 0, 60, 64
2, 20859, Note_on_c, 0, 80, 77
2, 20868, Note_on_c, 0, 75, 0
2, 20897, Note_on_c, 0, 60, 0
2, 20910, Note_on_c, 0, 80, 0
2, 20936, Note_on_c, 0, 58, 67
2, 21012, Note_on_c, 0, 58, 0
2, 21034, Note_on_c, 0, 56, 65
2, 21034, Note_on_c, 0, 68, 76
2, 21068, Note_on_c, 0, 68, 0
2, 21125, Note_on_c, 0, 58, 71
2, 21134, Note_on_c, 0, 56, 0
2, 21221, Note_on_c, 0, 60, 71
2, 21222, Note_on_c, 0, 58, 0
2, 21223, Note_on_c, 0, 80, 82
2, 21276, Note_on_c, 0, 60, 0
2, 21313, Note_on_c, 0, 56, 73
2, 21400, Note_on_c, 0, 56, 0
2, 21403, Note_on_c, 0, 62, 74
2, 21470, Note_on_c, 0, 62, 0
2, 21490, Note_on_c, 0, 60, 78
2, 21563, Note_on_c, 0, 60, 0
2, 21574, Note_on_c, 0, 58, 76
2, 21585, Note_on_c, 0, 78, 84
2, 21594, Note_on_c, 0, 80, 0
2, 21650, Note_on_c, 0, 78, 0
2, 21676, Note_on_c, 0, 60, 79
2, 21687, Note_on_c, 0, 58, 0
2, 21750, Note_on_c, 0, 60, 0
2, 21762, Note_on_c, 0, 77, 87
2, 21767, Note_on_c, 0, 62, 69
2, 21817, Note_on_c, 0, 77, 0
2, 21830, Note_on_c, 0, 58, 75
2, 21835, Note_on_c, 0, 62, 0
2, 21940, Note_on_c, 0, 58, 0
2, 21940, Note_on_c, 0, 78, 84
2, 21948, Note_on_c, 0, 63, 80
2, 22000, Note_on_c, 0, 78, 0
2, 22039, Note_on_c, 0, 62, 78
2, 22060, Note_on_c, 0, 63, 0
2, 22096, Note_on_c, 0, 62, 0
2, 22109, Note_on_c, 0, 63, 72
2, 22119, Note_on_c, 0, 66, 84
2, 22173, Note_on_c, 0, 66, 0
2, 22181, Note_on_c, 0, 63, 0
2, 22204, Note_on_c, 0, 65, 78
2, 22265, Note_on_c, 0, 65, 0
2, 22295, Note_on_c, 0, 63, 77
2, 22311, Note_on_c, 0, 78, 81
2, 22390, Note_on_c, 0, 63, 0
2, 22397, Note_on_c, 0, 61, 73
2, 22456, Note_on_c, 0, 61, 0
2, 22497, Note_on_c, 0, 60, 71
2, 22547, Note_on_c, 0, 60, 0
2, 22582, Note_on_c, 0, 58, 73
2, 22673, Note_on_c, 0, 56, 75
2, 22675, Note_on_c, 0, 58, 0
2, 22681, Note_on_c, 0, 77, 70
2, 22697, Note_on_c, 0, 78, 0
2, 22717, Note_on_c, 0, 77, 0
2, 22761, Note_on_c, 0, 56, 0
2, 22767, Note_on_c, 0, 58, 78
2, 22827, Note_on_c, 0, 58, 0
2, 22846, Note_on_c, 0, 60, 72
2, 22853, Note_on_c, 0, 75, 63
2, 22890, Note_on_c, 0, 60, 0
2, 22926, Note_on_c, 0, 75, 0
2, 22934, Note_on_c, 0, 56, 72
2, 22990, Note_on_c, 0, 56, 0
2, 23039, Note_on_c, 0, 61, 67
2, 23041, Note_on_c, 0, 77, 67
2, 23071, Note_on_c, 0, 61, 0
2, 23142, Note_on_c, 0, 77, 0
2, 23143, Note_on_c, 0, 75, 58
2, 23201, Note_on_c, 0, 49, 70
2, 23217, Note_on_c, 0, 75, 0
2, 23218, Note_on_c, 0, 73, 70
2, 23254, Note_on_c, 0, 49, 0
2, 23339, Note_on_c, 0, 75, 55
2, 23383, Note_on_c, 0, 73, 0
2, 23390, Note_on_c, 0, 61, 80
2, 23396, Note_on_c, 0, 75, 0
2, 23409, Note_on_c, 0, 77, 69
2, 23516, Note_on_c, 0, 77, 0
2, 23519, Note_on_c, 0, 73, 76
2, 23589, Note_on_c, 0, 73, 0
2, 23616, Note_on_c, 0, 79, 78
2, 23701, Note_on_c, 0, 77, 86
2, 23715, Note_on_c, 0, 61, 0
2, 23722, Note_on_c, 0, 79, 0
2, 23789, Note_on_c, 0, 59, 81
2, 23789, Note_on_c, 0, 75, 87
2, 23799, Note_on_c, 0, 77, 0
2, 23834, Note_on_c, 0, 59, 0
2, 23885, Note_on_c, 0, 77, 84
2, 23888, Note_on_c, 0, 75, 0
2, 23960, Note_on_c, 0, 58, 85
2, 23963, Note_on_c, 0, 79, 80
2, 23966, Note_on_c, 0, 77, 0
2, 24008, Note_on_c, 0, 58, 0
2, 24022, Note_on_c, 0, 79, 0
2, 24060, Note_on_c, 0, 75, 76
2, 24129, Note_on_c, 0, 59, 85
2, 24136, Note_on_c, 0, 75, 0
2, 24150, Note_on_c, 0, 80, 81
2, 24167, Note_on_c, 0, 59, 0
2, 24239, Note_on_c, 0, 79, 80
2, 24243, Note_on_c, 0, 80, 0
2, 24332, Note_on_c, 0, 47, 78
2, 24333, Note_on_c, 0, 80, 84
2, 24363, Note_on_c, 0, 47, 0
2, 24363, Note_on_c, 0, 79, 0
2, 24411, Note_on_c, 0, 80, 0
2, 24411, Note_on_c, 0, 82, 77
2, 24508, Note_on_c, 0, 59, 90
2, 24513, Note_on_c, 0, 80, 81
2, 24544, Note_on_c, 0, 82, 0
2, 24601, Note_on_c, 0, 78, 78
2, 24604, Note_on_c, 0, 80, 0
2, 24687, Note_on_c, 0, 78, 0
2, 24693, Note_on_c, 0, 77, 78
2, 24760, Note_on_c, 0, 77, 0
2, 24785, Note_on_c, 0, 75, 79
2, 24837, Note_on_c, 0, 59, 0
2, 24856, Note_on_c, 0, 58, 75
2, 24868, Note_on_c, 0, 75, 0
2, 24870, Note_on_c, 0, 73, 77
2, 24886, Note_on_c, 0, 58, 0
2, 24965, Note_on_c, 0, 75, 81
2, 24994, Note_on_c, 0, 73, 0
2, 25042, Note_on_c, 0, 56, 72
2, 25043, Note_on_c, 0, 75, 0
2, 25043, Note_on_c, 0, 77, 75
2, 25079, Note_on_c, 0, 56, 0
2, 25111, Note_on_c, 0, 77, 0
2, 25118, Note_on_c, 0, 73, 78
2, 25184, Note_on_c, 0, 73, 0
2, 25221, Note_on_c, 0, 66, 69
2, 25224, Note_on_c, 0, 58, 57
2, 25271, Note_on_c, 0, 58, 0
2, 25299, Note_on_c, 0, 54, 61
2, 25350, Note_on_c, 0, 54, 0
2, 25390, Note_on_c, 0, 49, 59
2, 25454, Note_on_c, 0, 66, 0
2, 25465, Note_on_c, 0, 49, 0
2, 25479, Note_on_c, 0, 54, 57
2, 25524, Note_on_c, 0, 54, 0
2, 25563, Note_on_c, 0, 58, 55
2, 25582, Note_on_c, 0, 78, 64
2, 25602, Note_on_c, 0, 58, 0
2, 25617, Note_on_c, 0, 78, 0
2, 25653, Note_on_c, 0, 54, 57
2, 25709, Note_on_c, 0, 54, 0
2, 25750, Note_on_c, 0, 68, 61
2, 25772, Note_on_c, 0, 59, 51
2, 25810, Note_on_c, 0, 59, 0
2, 25853, Note_on_c, 0, 54, 60
2, 25918, Note_on_c, 0, 54, 0
2, 25951, Note_on_c, 0, 59, 62
2, 26001, Note_on_c, 0, 59, 0
2, 26031, Note_on_c, 0, 54, 73
2, 26036, Note_on_c, 0, 68, 0
2, 26098, Note_on_c, 0, 54, 0
2, 26117, Note_on_c, 0, 59, 76
2, 26145, Note_on_c, 0, 78, 70
2, 26166, Note_on_c, 0, 59, 0
2, 26199, Note_on_c, 0, 78, 0
2, 26200, Note_on_c, 0, 54, 78
2, 26285, Note_on_c, 0, 54, 0
2, 26298, Note_on_c, 0, 61, 85
2, 26303, Note_on_c, 0, 70, 79
2, 26379, Note_on_c, 0, 61, 0
2, 26384, Note_on_c, 0, 54, 79
2, 26469, Note_on_c, 0, 54, 0
2, 26482, Note_on_c, 0, 61, 83
2, 26556, Note_on_c, 0, 61, 0
2, 26570, Note_on_c, 0, 54, 84
2, 26588, Note_on_c, 0, 70, 0
2, 26648, Note_on_c, 0, 54, 0
2, 26661, Note_on_c, 0, 61, 83
2, 26676, Note_on_c, 0, 78, 81
2, 26729, Note_on_c, 0, 61, 0
2, 26732, Note_on_c, 0, 78, 0
2, 26753, Note_on_c, 0, 54, 80
2, 26839, Note_on_c, 0, 54, 0
2, 26853, Note_on_c, 0, 71, 82
2, 26858, Note_on_c, 0, 63, 78
2, 26927, Note_on_c, 0, 63, 0
2, 26958, Note_on_c, 0, 54, 74
2, 27028, Note_on_c, 0, 54, 0
2, 27047, Note_on_c, 0, 63, 72
2, 27117, Note_on_c, 0, 63, 0
2, 27130, Note_on_c, 0, 71, 0
2, 27144, Note_on_c, 0, 54, 68
2, 27197, Note_on_c, 0, 54, 0
2, 27219, Note_on_c, 0, 78, 68
2, 27228, Note_on_c, 0, 63, 64
2, 27261, Note_on_c, 0, 78, 0
2, 27278, Note_on_c, 0, 63, 0
2, 27327, Note_on_c, 0, 54, 64
2, 27381, Note_on_c, 0, 54, 0
2, 27407, Note_on_c, 0, 70, 70
2, 27417, Note_on_c, 0, 61, 63
2, 27466, Note_on_c, 0, 61, 0
2, 27504, Note_on_c, 0, 54, 62
2, 27556, Note_on_c, 0, 54, 0
2, 27582, Note_on_c, 0, 61, 69
2, 27647, Note_on_c, 0, 61, 0
2, 27670, Note_on_c, 0, 70, 0
2, 27677, Note_on_c, 0, 54, 62
2, 27728, Note_on_c, 0, 54, 0
2, 27751, Note_on_c, 0, 78, 70
2, 27759, Note_on_c, 0, 61, 71
2, 27806, Note_on_c, 0, 78, 0
2, 27811, Note_on_c, 0, 61, 0
2, 27851, Note_on_c, 0, 54, 63
2, 27929, Note_on_c, 0, 68, 68
2, 27941, Note_on_c, 0, 54, 0
2, 27959, Note_on_c, 0, 59, 59
2, 28003, Note_on_c, 0, 59, 0
2, 28044, Note_on_c, 0, 58, 68
2, 28123, Note_on_c, 0, 58, 0
2, 28126, Note_on_c, 0, 56, 78
2, 28144, Note_on_c, 0, 68, 0
2, 28211, Note_on_c, 0, 56, 0
2, 28215, Note_on_c, 0, 58, 80
2, 28280, Note_on_c, 0, 58, 0
2, 28297, Note_on_c, 0, 59, 75
2, 28306, Note_on_c, 0, 77, 76
2, 28354, Note_on_c, 0, 59, 0
2, 28368, Note_on_c, 0, 77, 0
2, 28383, Note_on_c, 0, 56, 68
2, 28461, Note_on_c, 0, 56, 0
2, 28468, Note_on_c, 0, 58, 69
2, 28489, Note_on_c, 0, 66, 67
2, 28549, Note_on_c, 0, 58, 0
2, 28567, Note_on_c, 0, 56, 71
2, 28583, Note_on_c, 0, 66, 0
2, 28647, Note_on_c, 0, 56, 0
2, 28655, Note_on_c, 0, 54, 77
2, 28743, Note_on_c, 0, 56, 82
2, 28780, Note_on_c, 0, 54, 0
2, 28850, Note_on_c, 0, 56, 0
2, 28852, Note_on_c, 0, 58, 77
2, 28857, Note_on_c, 0, 78, 84
2, 28944, Note_on_c, 0, 58, 0
2, 28962, Note_on_c, 0, 54, 75
2, 29055, Note_on_c, 0, 56, 78
2, 29089, Note_on_c, 0, 54, 0
2, 29138, Note_on_c, 0, 58, 78
2, 29141, Note_on_c, 0, 56, 0
2, 29220, Note_on_c, 0, 77, 87
2, 29227, Note_on_c, 0, 56, 80
2, 29228, Note_on_c, 0, 58, 0
2, 29242, Note_on_c, 0, 78, 0
2, 29295, Note_on_c, 0, 56, 0
2, 29299, Note_on_c, 0, 75, 89
2, 29309, Note_on_c, 0, 54, 77
2, 29323, Note_on_c, 0, 77, 0
2, 29341, Note_on_c, 0, 54, 0
2, 29386, Note_on_c, 0, 73, 82
2, 29388, Note_on_c, 0, 75, 0
2, 29393, Note_on_c, 0, 53, 64
2, 29444, Note_on_c, 0, 53, 0
2, 29477, Note_on_c, 0, 51, 72
2, 29478, Note_on_c, 0, 75, 79
2, 29496, Note_on_c, 0, 73, 0
2, 29556, Note_on_c, 0, 51, 0
2, 29562, Note_on_c, 0, 77, 73
2, 29572, Note_on_c, 0, 75, 0
2, 29579, Note_on_c, 0, 49, 59
2, 29633, Note_on_c, 0, 77, 0
2, 29655, Note_on_c, 0, 73, 70
2, 29714, Note_on_c, 0, 73, 0
2, 29738, Note_on_c, 0, 68, 70
2, 29756, Note_on_c, 0, 49, 0
2, 29800, Note_on_c, 0, 68, 0
2, 29829, Note_on_c, 0, 73, 65
2, 29887, Note_on_c, 0, 73, 0
2, 29902, Note_on_c, 0, 77, 69
2, 29910, Note_on_c, 0, 61, 57
2, 29951, Note_on_c, 0, 77, 0
2, 29958, Note_on_c, 0, 61, 0
2, 30001, Note_on_c, 0, 73, 70
2, 30053, Note_on_c, 0, 73, 0
2, 30056, Note_on_c, 0, 51, 49
2, 30087, Note_on_c, 0, 78, 73
2, 30141, Note_on_c, 0, 78, 0
2, 30170, Note_on_c, 0, 73, 70
2, 30239, Note_on_c, 0, 73, 0
2, 30259, Note_on_c, 0, 78, 76
2, 30317, Note_on_c, 0, 78, 0
2, 30324, Note_on_c, 0, 51, 0
2, 30346, Note_on_c, 0, 73, 79
2, 30418, Note_on_c, 0, 73, 0
2, 30435, Note_on_c, 0, 78, 83
2, 30443, Note_on_c, 0, 61, 57
2, 30481, Note_on_c, 0, 61, 0
2, 30496, Note_on_c, 0, 78, 0
2, 30517, Note_on_c, 0, 73, 82
2, 30584, Note_on_c, 0, 73, 0
2, 30605, Note_on_c, 0, 53, 68
2, 30614, Note_on_c, 0, 80, 84
2, 30667, Note_on_c, 0, 80, 0
2, 30696, Note_on_c, 0, 73, 82
2, 30773, Note_on_c, 0, 73, 0
2, 30797, Note_on_c, 0, 80, 82
2, 30848, Note_on_c, 0, 80, 0
2, 30871, Note_on_c, 0, 73, 87
2, 30887, Note_on_c, 0, 53, 0
2, 30949, Note_on_c, 0, 73, 0
2, 30964, Note_on_c, 0, 61, 68
2, 30965, Note_on_c, 0, 80, 83
2, 31017, Note_on_c, 0, 61, 0
2, 31023, Note_on_c, 0, 80, 0
2, 31044, Note_on_c, 0, 73, 87
2, 31125, Note_on_c, 0, 73, 0
2, 31140, Note_on_c, 0, 54, 69
2, 31147, Note_on_c, 0, 82, 87
2, 31217, Note_on_c, 0, 82, 0
2, 31227, Note_on_c, 0, 73, 77
2, 31299, Note_on_c, 0, 73, 0
2, 31319, Note_on_c, 0, 82, 83
2, 31374, Note_on_c, 0, 82, 0
2, 31401, Note_on_c, 0, 73, 77
2, 31419, Note_on_c, 0, 54, 0
2, 31467, Note_on_c, 0, 73, 0
2, 31489, Note_on_c, 0, 82, 76
2, 31516, Note_on_c, 0, 61, 56
2, 31547, Note_on_c, 0, 82, 0
2, 31567, Note_on_c, 0, 61, 0
2, 31581, Note_on_c, 0, 73, 68
2, 31647, Note_on_c, 0, 73, 0
2, 31670, Note_on_c, 0, 80, 67
2, 31682, Note_on_c, 0, 53, 55
2, 31734, Note_on_c, 0, 80, 0
2, 31764, Note_on_c, 0, 73, 69
2, 31817, Note_on_c, 0, 73, 0
2, 31853, Note_on_c, 0, 80, 72
2, 31908, Note_on_c, 0, 80, 0
2, 31929, Note_on_c, 0, 53, 0
2, 31940, Note_on_c, 0, 73, 72
2, 32010, Note_on_c, 0, 73, 0
2, 32034, Note_on_c, 0, 80, 71
2, 32038, Note_on_c, 0, 61, 50
2, 32079, Note_on_c, 0, 61, 0
2, 32098, Note_on_c, 0, 80, 0
2, 32130, Note_on_c, 0, 73, 66
2, 32181, Note_on_c, 0, 73, 0
2, 32211, Note_on_c, 0, 51, 59
2, 32216, Note_on_c, 0, 78, 69
2, 32284, Note_on_c, 0, 78, 0
2, 32302, Note_on_c, 0, 77, 73
2, 32370, Note_on_c, 0, 77, 0
2, 32386, Note_on_c, 0, 75, 82
2, 32449, Note_on_c, 0, 75, 0
2, 32464, Note_on_c, 0, 77, 78
2, 32492, Note_on_c, 0, 51, 0
2, 32555, Note_on_c, 0, 78, 81
2, 32563, Note_on_c, 0, 60, 57
2, 32566, Note_on_c, 0, 77, 0
2, 32604, Note_on_c, 0, 60, 0
2, 32613, Note_on_c, 0, 78, 0
2, 32657, Note_on_c, 0, 75, 54
2, 32694, Note_on_c, 0, 75, 0
2, 32728, Note_on_c, 0, 77, 69
2, 32737, Note_on_c, 0, 49, 55
2, 32831, Note_on_c, 0, 75, 60
2, 32842, Note_on_c, 0, 77, 0
2, 32899, Note_on_c, 0, 73, 77
2, 32907, Note_on_c, 0, 75, 0
2, 32966, Note_on_c, 0, 49, 0
2, 32997, Note_on_c, 0, 75, 74
2, 33011, Note_on_c, 0, 73, 0
2, 33076, Note_on_c, 0, 77, 73
2, 33085, Note_on_c, 0, 61, 77
2, 33085, Note_on_c, 0, 75, 0
2, 33123, Note_on_c, 0, 61, 0
2, 33168, Note_on_c, 0, 73, 70
2, 33179, Note_on_c, 0, 77, 0
2, 33260, Note_on_c, 0, 75, 81
2, 33265, Note_on_c, 0, 54, 81
2, 33305, Note_on_c, 0, 73, 0
2, 33326, Note_on_c, 0, 54, 0
2, 33345, Note_on_c, 0, 75, 0
2, 33348, Note_on_c, 0, 77, 70
2, 33444, Note_on_c, 0, 75, 77
2, 33449, Note_on_c, 0, 77, 0
2, 33451, Note_on_c, 0, 53, 59
2, 33487, Note_on_c, 0, 53, 0
2, 33510, Note_on_c, 0, 75, 0
2, 33528, Note_on_c, 0, 73, 76
2, 33608, Note_on_c, 0, 51, 63
2, 33608, Note_on_c, 0, 73, 0
2, 33620, Note_on_c, 0, 72, 66
2, 33654, Note_on_c, 0, 51, 0
2, 33690, Note_on_c, 0, 72, 0
2, 33714, Note_on_c, 0, 70, 64
2, 33776, Note_on_c, 0, 56, 77
2, 33790, Note_on_c, 0, 70, 0
2, 33800, Note_on_c, 0, 72, 68
2, 33810, Note_on_c, 0, 56, 0
2, 33841, Note_on_c, 0, 72, 0
2, 33874, Note_on_c, 0, 68, 64
2, 33914, Note_on_c, 0, 68, 0
2, 33962, Note_on_c, 0, 66, 59
2, 33993, Note_on_c, 0, 66, 0
2, 34042, Note_on_c, 0, 68, 64
2, 34091, Note_on_c, 0, 68, 0
2, 34131, Note_on_c, 0, 63, 61
2, 34167, Note_on_c, 0, 63, 0
2, 34216, Note_on_c, 0, 68, 59
2, 34271, Note_on_c, 0, 68, 0
2, 34304, Note_on_c, 0, 72, 61
2, 34305, Note_on_c, 0, 56, 65
2, 34341, Note_on_c, 0, 56, 0
2, 34375, Note_on_c, 0, 72, 0
2, 34391, Note_on_c, 0, 68, 63
2, 34430, Note_on_c, 0, 68, 0
2, 34479, Note_on_c, 0, 66, 62
2, 34517, Note_on_c, 0, 66, 0
2, 34556, Note_on_c, 0, 68, 63
2, 34593, Note_on_c, 0, 68, 0
2, 34643, Note_on_c, 0, 63, 59
2, 34682, Note_on_c, 0, 63, 0
2, 34731, Note_on_c, 0, 68, 52
2, 34781, Note_on_c, 0, 68, 0
2, 34819, Note_on_c, 0, 73, 65
2, 34827, Note_on_c, 0, 56, 60
2, 34868, Note_on_c, 0, 56, 0
2, 34883, Note_on_c, 0, 73, 0
2, 34898, Note_on_c, 0, 68, 60
2, 34938, Note_on_c, 0, 68, 0
2, 35013, Note_on_c, 0, 65, 59
2, 35048, Note_on_c, 0, 65, 0
2, 35085, Note_on_c, 0, 68, 58
2, 35118, Note_on_c, 0, 68, 0
2, 35180, Note_on_c, 0, 61, 65
2, 35222, Note_on_c, 0, 61, 0
2, 35248, Note_on_c, 0, 68, 56
2, 35306, Note_on_c, 0, 68, 0
2, 35335, Note_on_c, 0, 73, 69
2, 35357, Note_on_c, 0, 56, 62
2, 35400, Note_on_c, 0, 56, 0
2, 35408, Note_on_c, 0, 73, 0
2, 35423, Note_on_c, 0, 68, 66
2, 35458, Note_on_c, 0, 68, 0
2, 35517, Note_on_c, 0, 65, 70
2, 35556, Note_on_c, 0, 65, 0
2, 35594, Note_on_c, 0, 68, 72
2, 35629, Note_on_c, 0, 68, 0
2, 35678, Note_on_c, 0, 61, 74
2, 35737, Note_on_c, 0, 61, 0
2, 35761, Note_on_c, 0, 68, 77
2, 35830, Note_on_c, 0, 68, 0
2, 35855, Note_on_c, 0, 78, 81
2, 35857, Note_on_c, 0, 56, 74
2, 35898, Note_on_c, 0, 56, 0
2, 35943, Note_on_c, 0, 68, 75
2, 35949, Note_on_c, 0, 78, 0
2, 36005, Note_on_c, 0, 68, 0
2, 36046, Note_on_c, 0, 63, 72
2, 36084, Note_on_c, 0, 63, 0
2, 36117, Note_on_c, 0, 68, 71
2, 36146, Note_on_c, 0, 68, 0
2, 36211, Note_on_c, 0, 60, 62
2, 36244, Note_on_c, 0, 60, 0
2, 36292, Note_on_c, 0, 68, 63
2, 36336, Note_on_c, 0, 68, 0
2, 36372, Note_on_c, 0, 78, 72
2, 36387, Note_on_c, 0, 56, 61
2, 36424, Note_on_c, 0, 56, 0
2, 36458, Note_on_c, 0, 78, 0
2, 36460, Note_on_c, 0, 68, 64
2, 36526, Note_on_c, 0, 68, 0
2, 36571, Note_on_c, 0, 63, 64
2, 36606, Note_on_c, 0, 63, 0
2, 36641, Note_on_c, 0, 68, 71
2, 36681, Note_on_c, 0, 68, 0
2, 36733, Note_on_c, 0, 60, 69
2, 36771, Note_on_c, 0, 60, 0
2, 36824, Note_on_c, 0, 68, 62
2, 36877, Note_on_c, 0, 68, 0
2, 36911, Note_on_c, 0, 77, 53
2, 36922, Note_on_c, 0, 56, 59
2, 36959, Note_on_c, 0, 56, 0
2, 36985, Note_on_c, 0, 77, 0
2, 36988, Note_on_c, 0, 68, 67
2, 37031, Note_on_c, 0, 68, 0
2, 37096, Note_on_c, 0, 65, 62
2, 37127, Note_on_c, 0, 65, 0
2, 37151, Note_on_c, 0, 68, 70
2, 37213, Note_on_c, 0, 68, 0
2, 37270, Note_on_c, 0, 61, 74
2, 37311, Note_on_c, 0, 61, 0
2, 37337, Note_on_c, 0, 68, 62
2, 37420, Note_on_c, 0, 68, 0
2, 37441, Note_on_c, 0, 77, 54
2, 37449, Note_on_c, 0, 56, 69
2, 37485, Note_on_c, 0, 56, 0
2, 37510, Note_on_c, 0, 77, 0
2, 37521, Note_on_c, 0, 68, 69
2, 37567, Note_on_c, 0, 68, 0
2, 37614, Note_on_c, 0, 65, 76
2, 37651, Note_on_c, 0, 65, 0
2, 37683, Note_on_c, 0, 68, 76
2, 37745, Note_on_c, 0, 68, 0
2, 37777, Note_on_c, 0, 61, 82
2, 37835, Note_on_c, 0, 61, 0
2, 37849, Note_on_c, 0, 68, 81
2, 37908, Note_on_c, 0, 68, 0
2, 37946, Note_on_c, 0, 56, 77
2, 37959, Note_on_c, 0, 79, 85
2, 37984, Note_on_c, 0, 56, 0
2, 38047, Note_on_c, 0, 70, 79
2, 38052, Note_on_c, 0, 79, 0
2, 38104, Note_on_c, 0, 70, 0
2, 38139, Note_on_c, 0, 64, 79
2, 38173, Note_on_c, 0, 64, 0
2, 38210, Note_on_c, 0, 70, 81
2, 38264, Note_on_c, 0, 70, 0
2, 38299, Note_on_c, 0, 61, 78
2, 38359, Note_on_c, 0, 61, 0
2, 38367, Note_on_c, 0, 70, 79
2, 38457, Note_on_c, 0, 70, 0
2, 38457, Note_on_c, 0, 79, 83
2, 38473, Note_on_c, 0, 56, 77
2, 38510, Note_on_c, 0, 56, 0
2, 38529, Note_on_c, 0, 79, 0
2, 38549, Note_on_c, 0, 70, 75
2, 38606, Note_on_c, 0, 70, 0
2, 38650, Note_on_c, 0, 64, 80
2, 38685, Note_on_c, 0, 64, 0
2, 38714, Note_on_c, 0, 70, 75
2, 38773, Note_on_c, 0, 70, 0
2, 38827, Note_on_c, 0, 61, 83
2, 38886, Note_on_c, 0, 61, 0
2, 38902, Note_on_c, 0, 70, 72
2, 38968, Note_on_c, 0, 70, 0
2, 39003, Note_on_c, 0, 56, 88
2, 39004, Note_on_c, 0, 80, 85
2, 39059, Note_on_c, 0, 56, 0
2, 39088, Note_on_c, 0, 72, 71
2, 39114, Note_on_c, 0, 80, 0
2, 39143, Note_on_c, 0, 72, 0
2, 39185, Note_on_c, 0, 63, 88
2, 39243, Note_on_c, 0, 63, 0
2, 39253, Note_on_c, 0, 72, 84
2, 39313, Note_on_c, 0, 72, 0
2, 39358, Note_on_c, 0, 60, 92
2, 39406, Note_on_c, 0, 60, 0
2, 39422, Note_on_c, 0, 72, 79
2, 39508, Note_on_c, 0, 72, 0
2, 39529, Note_on_c, 0, 54, 91
2, 39531, Note_on_c, 0, 80, 83
2, 39591, Note_on_c, 0, 54, 0
2, 39619, Note_on_c, 0, 72, 80
2, 39635, Note_on_c, 0, 80, 0
2, 39681, Note_on_c, 0, 72, 0
2, 39713, Note_on_c, 0, 63, 88
2, 39769, Note_on_c, 0, 63, 0
2, 39787, Note_on_c, 0, 72, 86
2, 39845, Note_on_c, 0, 72, 0
2, 39882, Note_on_c, 0, 60, 84
2, 39934, Note_on_c, 0, 60, 0
2, 39949, Note_on_c, 0, 72, 78
2, 40035, Note_on_c, 0, 72, 0
2, 40044, Note_on_c, 0, 80, 85
2, 40047, Note_on_c, 0, 53, 90
2, 40102, Note_on_c, 0, 53, 0
2, 40136, Note_on_c, 0, 73, 84
2, 40141, Note_on_c, 0, 80, 0
2, 40190, Note_on_c, 0, 73, 0
2, 40220, Note_on_c, 0, 65, 88
2, 40267, Note_on_c, 0, 65, 0
2, 40291, Note_on_c, 0, 68, 84
2, 40358, Note_on_c, 0, 68, 0
2, 40405, Note_on_c, 0, 61, 83
2, 40463, Note_on_c, 0, 61, 0
2, 40495, Note_on_c, 0, 73, 77
2, 40560, Note_on_c, 0, 73, 0
2, 40582, Note_on_c, 0, 56, 75
2, 40618, Note_on_c, 0, 56, 0
2, 40659, Note_on_c, 0, 77, 81
2, 40718, Note_on_c, 0, 77, 0
2, 40759, Note_on_c, 0, 53, 75
2, 40793, Note_on_c, 0, 53, 0
2, 40839, Note_on_c, 0, 80, 72
2, 40898, Note_on_c, 0, 80, 0
2, 40923, Note_on_c, 0, 51, 80
2, 40959, Note_on_c, 0, 51, 0
2, 41002, Note_on_c, 0, 82, 83
2, 41102, Note_on_c, 0, 50, 77
2, 41119, Note_on_c, 0, 83, 93
2, 41154, Note_on_c, 0, 82, 0
2, 41159, Note_on_c, 0, 50, 0
2, 41208, Note_on_c, 0, 82, 83
2, 41261, Note_on_c, 0, 83, 0
2, 41288, Note_on_c, 0, 53, 77
2, 41296, Note_on_c, 0, 80, 89
2, 41338, Note_on_c, 0, 82, 0
2, 41362, Note_on_c, 0, 53, 0
2, 41379, Note_on_c, 0, 78, 88
2, 41380, Note_on_c, 0, 80, 0
2, 41453, Note_on_c, 0, 58, 77
2, 41461, Note_on_c, 0, 78, 0
2, 41464, Note_on_c, 0, 77, 93
2, 41498, Note_on_c, 0, 58, 0
2, 41530, Note_on_c, 0, 77, 0
2, 41559, Note_on_c, 0, 75, 92
2, 41635, Note_on_c, 0, 62, 74
2, 41639, Note_on_c, 0, 75, 0
2, 41646, Note_on_c, 0, 77, 87
2, 41688, Note_on_c, 0, 62, 0
2, 41698, Note_on_c, 0, 77, 0
2, 41731, Note_on_c, 0, 78, 90
2, 41797, Note_on_c, 0, 65, 82
2, 41814, Note_on_c, 0, 80, 90
2, 41846, Note_on_c, 0, 65, 0
2, 41848, Note_on_c, 0, 78, 0
2, 41902, Note_on_c, 0, 83, 92
2, 41911, Note_on_c, 0, 80, 0
2, 41980, Note_on_c, 0, 68, 80
2, 41994, Note_on_c, 0, 82, 88
2, 42022, Note_on_c, 0, 68, 0
2, 42033, Note_on_c, 0, 83, 0
2, 42075, Note_on_c, 0, 80, 89
2, 42093, Note_on_c, 0, 82, 0
2, 42143, Note_on_c, 0, 80, 0
2, 42157, Note_on_c, 0, 66, 88
2, 42174, Note_on_c, 0, 83, 81
2, 42175, Note_on_c, 0, 82, 53
2, 42202, Note_on_c, 0, 66, 0
2, 42223, Note_on_c, 0, 83, 0
2, 42224, Note_on_c, 0, 82, 0
2, 42244, Note_on_c, 0, 75, 75
2, 42280, Note_on_c, 0, 75, 0
2, 42326, Note_on_c, 0, 63, 82
2, 42361, Note_on_c, 0, 63, 0
2, 42412, Note_on_c, 0, 66, 76
2, 42441, Note_on_c, 0, 66, 0
2, 42498, Note_on_c, 0, 58, 79
2, 42532, Note_on_c, 0, 58, 0
2, 42579, Note_on_c, 0, 70, 72
2, 42634, Note_on_c, 0, 70, 0
2, 42679, Note_on_c, 0, 54, 78
2, 42716, Note_on_c, 0, 54, 0
2, 42762, Note_on_c, 0, 75, 76
2, 42805, Note_on_c, 0, 75, 0
2, 42861, Note_on_c, 0, 51, 71
2, 42893, Note_on_c, 0, 51, 0
2, 42935, Note_on_c, 0, 78, 77
2, 42990, Note_on_c, 0, 78, 0
2, 43028, Note_on_c, 0, 49, 79
2, 43067, Note_on_c, 0, 49, 0
2, 43117, Note_on_c, 0, 80, 82
2, 43206, Note_on_c, 0, 48, 79
2, 43208, Note_on_c, 0, 81, 86
2, 43225, Note_on_c, 0, 80, 0
2, 43238, Note_on_c, 0, 48, 0
2, 43301, Note_on_c, 0, 80, 83
2, 43314, Note_on_c, 0, 81, 0
2, 43367, Note_on_c, 0, 80, 0
2, 43382, Note_on_c, 0, 78, 81
2, 43414, Note_on_c, 0, 51, 56
2, 43451, Note_on_c, 0, 51, 0
2, 43451, Note_on_c, 0, 78, 0
2, 43467, Note_on_c, 0, 76, 75
2, 43526, Note_on_c, 0, 76, 0
2, 43561, Note_on_c, 0, 75, 77
2, 43571, Note_on_c, 0, 56, 63
2, 43611, Note_on_c, 0, 56, 0
2, 43630, Note_on_c, 0, 75, 0
2, 43636, Note_on_c, 0, 73, 76
2, 43737, Note_on_c, 0, 75, 76
2, 43749, Note_on_c, 0, 73, 0
2, 43755, Note_on_c, 0, 60, 67
2, 43797, Note_on_c, 0, 60, 0
2, 43806, Note_on_c, 0, 75, 0
2, 43825, Note_on_c, 0, 76, 71
2, 43877, Note_on_c, 0, 76, 0
2, 43907, Note_on_c, 0, 63, 72
2, 43913, Note_on_c, 0, 78, 78
2, 43943, Note_on_c, 0, 63, 0
2, 44000, Note_on_c, 0, 81, 73
2, 44005, Note_on_c, 0, 78, 0
2, 44085, Note_on_c, 0, 80, 75
2, 44092, Note_on_c, 0, 66, 65
2, 44099, Note_on_c, 0, 81, 0
2, 44120, Note_on_c, 0, 66, 0
2, 44172, Note_on_c, 0, 80, 0
2, 44181, Note_on_c, 0, 78, 72
2, 44257, Note_on_c, 0, 78, 0
2, 44263, Note_on_c, 0, 80, 81
2, 44275, Note_on_c, 0, 64, 74
2, 44302, Note_on_c, 0, 64, 0
2, 44321, Note_on_c, 0, 80, 0
2, 44360, Note_on_c, 0, 73, 72
2, 44394, Note_on_c, 0, 73, 0
2, 44445, Note_on_c, 0, 61, 77
2, 44484, Note_on_c, 0, 61, 0
2, 44537, Note_on_c, 0, 76, 64
2, 44593, Note_on_c, 0, 76, 0
2, 44623, Note_on_c, 0, 57, 72
2, 44668, Note_on_c, 0, 57, 0
2, 44709, Note_on_c, 0, 73, 76
2, 44772, Note_on_c, 0, 73, 0
2, 44793, Note_on_c, 0, 54, 76
2, 44828, Note_on_c, 0, 54, 0
2, 44878, Note_on_c, 0, 69, 72
2, 44930, Note_on_c, 0, 69, 0
2, 44985, Note_on_c, 0, 63, 75
2, 45028, Note_on_c, 0, 63, 0
2, 45047, Note_on_c, 0, 66, 67
2, 45093, Note_on_c, 0, 66, 0
2, 45162, Note_on_c, 0, 60, 78
2, 45196, Note_on_c, 0, 60, 0
2, 45221, Note_on_c, 0, 75, 71
2, 45285, Note_on_c, 0, 75, 0
2, 45322, Note_on_c, 0, 52, 76
2, 45380, Note_on_c, 0, 52, 0
2, 45396, Note_on_c, 0, 68, 73
2, 45447, Note_on_c, 0, 68, 0
2, 45510, Note_on_c, 0, 61, 79
2, 45569, Note_on_c, 0, 61, 0
2, 45577, Note_on_c, 0, 64, 60
2, 45625, Note_on_c, 0, 64, 0
2, 45683, Note_on_c, 0, 57, 67
2, 45718, Note_on_c, 0, 57, 0
2, 45758, Note_on_c, 0, 73, 71
2, 45814, Note_on_c, 0, 73, 0
2, 45863, Note_on_c, 0, 54, 70
2, 45892, Note_on_c, 0, 54, 0
2, 45931, Note_on_c, 0, 69, 70
2, 45985, Note_on_c, 0, 69, 0
2, 46032, Note_on_c, 0, 51, 68
2, 46070, Note_on_c, 0, 51, 0
2, 46107, Note_on_c, 0, 66, 61
2, 46153, Note_on_c, 0, 66, 0
2, 46210, Note_on_c, 0, 48, 79
2, 46243, Note_on_c, 0, 48, 0
2, 46273, Note_on_c, 0, 63, 67
2, 46306, Note_on_c, 0, 63, 0
2, 46375, Note_on_c, 0, 44, 75
2, 46391, Note_on_c, 0, 60, 77
2, 46408, Note_on_c, 0, 44, 0
2, 46454, Note_on_c, 0, 60, 0
2, 46481, Note_on_c, 0, 56, 57
2, 46510, Note_on_c, 0, 56, 0
2, 46562, Note_on_c, 0, 54, 64
2, 46594, Note_on_c, 0, 54, 0
2, 46630, Note_on_c, 0, 56, 58
2, 46674, Note_on_c, 0, 56, 0
2, 46733, Note_on_c, 0, 51, 57
2, 46765, Note_on_c, 0, 51, 0
2, 46807, Note_on_c, 0, 56, 54
2, 46868, Note_on_c, 0, 56, 0
2, 46903, Note_on_c, 0, 44, 66
2, 46908, Note_on_c, 0, 60, 58
2, 46936, Note_on_c, 0, 44, 0
2, 46949, Note_on_c, 0, 60, 0
2, 46985, Note_on_c, 0, 56, 62
2, 47018, Note_on_c, 0, 56, 0
2, 47086, Note_on_c, 0, 54, 63
2, 47120, Note_on_c, 0, 54, 0
2, 47179, Note_on_c, 0, 56, 57
2, 47217, Note_on_c, 0, 56, 0
2, 47270, Note_on_c, 0, 51, 62
2, 47305, Note_on_c, 0, 51, 0
2, 47352, Note_on_c, 0, 56, 59
2, 47407, Note_on_c, 0, 56, 0
2, 47431, Note_on_c, 0, 44, 66
2, 47444, Note_on_c, 0, 61, 64
2, 47465, Note_on_c, 0, 44, 0
2, 47486, Note_on_c, 0, 61, 0
2, 47520, Note_on_c, 0, 56, 63
2, 47553, Note_on_c, 0, 56, 0
2, 47612, Note_on_c, 0, 53, 62
2, 47644, Note_on_c, 0, 53, 0
2, 47709, Note_on_c, 0, 56, 60
2, 47748, Note_on_c, 0, 56, 0
2, 47801, Note_on_c, 0, 49, 56
2, 47836, Note_on_c, 0, 49, 0
2, 47853, Note_on_c, 0, 56, 62
2, 47911, Note_on_c, 0, 56, 0
2, 47961, Note_on_c, 0, 61, 70
2, 47963, Note_on_c, 0, 44, 67
2, 48003, Note_on_c, 0, 44, 0
2, 48027, Note_on_c, 0, 61, 0
2, 48046, Note_on_c, 0, 56, 63
2, 48093, Note_on_c, 0, 56, 0
2, 48139, Note_on_c, 0, 53, 63
2, 48174, Note_on_c, 0, 53, 0
2, 48238, Note_on_c, 0, 56, 55
2, 48270, Note_on_c, 0, 56, 0
2, 48305, Note_on_c, 0, 49, 63
2, 48342, Note_on_c, 0, 49, 0
2, 48384, Note_on_c, 0, 56, 62
2, 48445, Note_on_c, 0, 56, 0
2, 48483, Note_on_c, 0, 44, 63
2, 48483, Note_on_c, 0, 66, 73
2, 48513, Note_on_c, 0, 44, 0
2, 48561, Note_on_c, 0, 66, 0
2, 48565, Note_on_c, 0, 56, 62
2, 48607, Note_on_c, 0, 56, 0
2, 48652, Note_on_c, 0, 51, 76
2, 48697, Note_on_c, 0, 51, 0
2, 48736, Note_on_c, 0, 56, 71
2, 48788, Note_on_c, 0, 56, 0
2, 48822, Note_on_c, 0, 48, 78
2, 48859, Note_on_c, 0, 48, 0
2, 48923, Note_on_c, 0, 56, 75
2, 48988, Note_on_c, 0, 56, 0
2, 49013, Note_on_c, 0, 44, 80
2, 49013, Note_on_c, 0, 66, 74
2, 49050, Note_on_c, 0, 44, 0
2, 49092, Note_on_c, 0, 66, 0
2, 49100, Note_on_c, 0, 56, 68
2, 49152, Note_on_c, 0, 56, 0
2, 49197, Note_on_c, 0, 51, 79
2, 49237, Note_on_c, 0, 51, 0
2, 49273, Note_on_c, 0, 56, 77
2, 49327, Note_on_c, 0, 56, 0
2, 49357, Note_on_c, 0, 48, 79
2, 49394, Note_on_c, 0, 48, 0
2, 49450, Note_on_c, 0, 56, 68
2, 49536, Note_on_c, 0, 56, 0
2, 49549, Note_on_c, 0, 44, 80
2, 49550, Note_on_c, 0, 65, 75
2, 49583, Note_on_c, 0, 44, 0
2, 49627, Note_on_c, 0, 65, 0
2, 49636, Note_on_c, 0, 56, 74
2, 49682, Note_on_c, 0, 56, 0
2, 49732, Note_on_c, 0, 53, 69
2, 49762, Note_on_c, 0, 53, 0
2, 49814, Note_on_c, 0, 56, 76
2, 49869, Note_on_c, 0, 56, 0
2, 49906, Note_on_c, 0, 49, 72
2, 49945, Note_on_c, 0, 49, 0
2, 50000, Note_on_c, 0, 56, 73
2, 50069, Note_on_c, 0, 56, 0
2, 50088, Note_on_c, 0, 44, 77
2, 50091, Note_on_c, 0, 65, 67
2, 50122, Note_on_c, 0, 44, 0
2, 50162, Note_on_c, 0, 65, 0
2, 50172, Note_on_c, 0, 56, 75
2, 50235, Note_on_c, 0, 56, 0
2, 50269, Note_on_c, 0, 53, 78
2, 50312, Note_on_c, 0, 53, 0
2, 50349, Note_on_c, 0, 56, 76
2, 50412, Note_on_c, 0, 56, 0
2, 50440, Note_on_c, 0, 49, 81
2, 50495, Note_on_c, 0, 49, 0
2, 50535, Note_on_c, 0, 56, 77
2, 50590, Note_on_c, 0, 56, 0
2, 50618, Note_on_c, 0, 44, 81
2, 50636, Note_on_c, 0, 67, 83
2, 50652, Note_on_c, 0, 44, 0
2, 50706, Note_on_c, 0, 58, 79
2, 50706, Note_on_c, 0, 67, 0
2, 50755, Note_on_c, 0, 58, 0
2, 50798, Note_on_c, 0, 52, 82
2, 50840, Note_on_c, 0, 52, 0
2, 50879, Note_on_c, 0, 58, 81
2, 50936, Note_on_c, 0, 58, 0
2, 50963, Note_on_c, 0, 49, 85
2, 51028, Note_on_c, 0, 49, 0
2, 51052, Note_on_c, 0, 58, 81
2, 51116, Note_on_c, 0, 58, 0
2, 51157, Note_on_c, 0, 67, 84
2, 51159, Note_on_c, 0, 44, 87
2, 51216, Note_on_c, 0, 44, 0
2, 51229, Note_on_c, 0, 67, 0
2, 51236, Note_on_c, 0, 58, 80
2, 51288, Note_on_c, 0, 58, 0
2, 51333, Note_on_c, 0, 52, 89
2, 51382, Note_on_c, 0, 52, 0
2, 51410, Note_on_c, 0, 58, 87
2, 51462, Note_on_c, 0, 58, 0
2, 51513, Note_on_c, 0, 49, 89
2, 51568, Note_on_c, 0, 49, 0
2, 51582, Note_on_c, 0, 58, 76
2, 51638, Note_on_c, 0, 58, 0
2, 51678, Note_on_c, 0, 44, 88
2, 51772, Note_on_c, 0, 48, 80
2, 51810, Note_on_c, 0, 44, 0
2, 51874, Note_on_c, 0, 48, 0
2, 51878, Note_on_c, 0, 51, 89
2, 51921, Note_on_c, 0, 51, 0
2, 51976, Note_on_c, 0, 54, 84
2, 52064, Note_on_c, 0, 57, 81
2, 52103, Note_on_c, 0, 54, 0
2, 52157, Note_on_c, 0, 60, 88
2, 52165, Note_on_c, 0, 57, 0
2, 52238, Note_on_c, 0, 61, 88
2, 52254, Note_on_c, 0, 60, 0
2, 52322, Note_on_c, 0, 64, 92
2, 52340, Note_on_c, 0, 61, 0
2, 52412, Note_on_c, 0, 67, 88
2, 52435, Note_on_c, 0, 64, 0
2, 52456, Note_on_c, 0, 67, 0
2, 52495, Note_on_c, 0, 70, 85
2, 52589, Note_on_c, 0, 73, 89
2, 52614, Note_on_c, 0, 70, 0
2, 52687, Note_on_c, 0, 73, 0
2, 52692, Note_on_c, 0, 76, 81
2, 52710, Note_on_c, 0, 74, 49
2, 52736, Note_on_c, 0, 74, 0
2, 52765, Note_on_c, 0, 76, 0
2, 52775, Note_on_c, 0, 44, 81
2, 52781, Note_on_c, 0, 72, 87
2, 52857, Note_on_c, 0, 72, 0
2, 52861, Note_on_c, 0, 75, 86
2, 52955, Note_on_c, 0, 78, 87
2, 52959, Note_on_c, 0, 75, 0
2, 53045, Note_on_c, 0, 75, 94
2, 53047, Note_on_c, 0, 78, 0
2, 53102, Note_on_c, 0, 75, 0
2, 53124, Note_on_c, 0, 72, 82
2, 53177, Note_on_c, 0, 72, 0
2, 53198, Note_on_c, 0, 44, 0
2, 53216, Note_on_c, 0, 68, 83
2, 53307, Note_on_c, 0, 66, 85
2, 53321, Note_on_c, 0, 68, 0
2, 53375, Note_on_c, 0, 66, 0
2, 53386, Note_on_c, 0, 63, 85
2, 53469, Note_on_c, 0, 63, 0
2, 53478, Note_on_c, 0, 60, 85
2, 53540, Note_on_c, 0, 60, 0
2, 53555, Note_on_c, 0, 56, 83
2, 53650, Note_on_c, 0, 60, 81
2, 53654, Note_on_c, 0, 56, 0
2, 53739, Note_on_c, 0, 63, 79
2, 53740, Note_on_c, 0, 60, 0
2, 53821, Note_on_c, 0, 63, 0
2, 53825, Note_on_c, 0, 56, 77
2, 53855, Note_on_c, 0, 65, 84
2, 53921, Note_on_c, 0, 65, 0
2, 53933, Note_on_c, 0, 68, 87
2, 54020, Note_on_c, 0, 73, 90
2, 54025, Note_on_c, 0, 68, 0
2, 54099, Note_on_c, 0, 73, 0
2, 54109, Note_on_c, 0, 68, 90
2, 54119, Note_on_c, 0, 56, 0
2, 54190, Note_on_c, 0, 68, 0
2, 54204, Note_on_c, 0, 65, 86
2, 54258, Note_on_c, 0, 65, 0
2, 54301, Note_on_c, 0, 61, 81
2, 54340, Note_on_c, 0, 63, 30
2, 54361, Note_on_c, 0, 63, 0
2, 54389, Note_on_c, 0, 58, 83
2, 54412, Note_on_c, 0, 61, 0
2, 54463, Note_on_c, 0, 58, 0
2, 54486, Note_on_c, 0, 55, 69
2, 54493, Note_on_c, 0, 53, 71
2, 54514, Note_on_c, 0, 53, 0
2, 54563, Note_on_c, 0, 55, 0
2, 54569, Note_on_c, 0, 52, 79
2, 54629, Note_on_c, 0, 52, 0
2, 54662, Note_on_c, 0, 49, 84
2, 54768, Note_on_c, 0, 52, 80
2, 54786, Note_on_c, 0, 49, 0
2, 54872, Note_on_c, 0, 55, 88
2, 54878, Note_on_c, 0, 52, 0
2, 54966, Note_on_c, 0, 55, 0
2, 54992, Note_on_c, 0, 44, 89
2, 55267, Note_on_c, 0, 73, 82
2, 55268, Note_on_c, 0, 49, 67
2, 55269, Note_on_c, 0, 56, 77
2, 55270, Note_on_c, 0, 68, 79
2, 55274, Note_on_c, 0, 65, 77
2, 55278, Note_on_c, 0, 53, 73
2, 55295, Note_on_c, 0, 70, 57
2, 55307, Note_on_c, 0, 65, 0
2, 55310, Note_on_c, 0, 56, 0
2, 55312, Note_on_c, 0, 53, 0
2, 55319, Note_on_c, 0, 70, 0
2, 55322, Note_on_c, 0, 68, 0
2, 55325, Note_on_c, 0, 73, 0
2, 55342, Note_on_c, 0, 49, 0
2, 55592, Note_on_c, 0, 56, 78
2, 55592, Note_on_c, 0, 72, 77
2, 55594, Note_on_c, 0, 63, 85
2, 55599, Note_on_c, 0, 51, 73
2, 55600, Note_on_c, 0, 68, 78
2, 55606, Note_on_c, 0, 54, 74
2, 55634, Note_on_c, 0, 63, 0
2, 55641, Note_on_c, 0, 72, 0
2, 55645, Note_on_c, 0, 68, 0
2, 55651, Note_on_c, 0, 54, 0
2, 55657, Note_on_c, 0, 56, 0
2, 55691, Note_on_c, 0, 51, 0
2, 56048, Note_on_c, 0, 73, 91
2, 56050, Note_on_c, 0, 68, 66
2, 56053, Note_on_c, 0, 56, 60
2, 56058, Note_on_c, 0, 61, 75
2, 56061, Note_on_c, 0, 49, 60
2, 56062, Note_on_c, 0, 53, 61
2, 56101, Note_on_c, 0, 44, 0
2, 56974, Control_c, 0, 64, 26
2, 56988, Control_c, 0, 64, 38
2, 57004, Control_c, 0, 64, 45
2, 57019, Control_c, 0, 64, 51
2, 57035, Control_c, 0, 64, 55
2, 57050, Control_c, 0, 64, 58
2, 57064, Control_c, 0, 64, 60
2, 57080, Control_c, 0, 64, 62
2, 57095, Control_c, 0, 64, 64
2, 57109, Control_c, 0, 64, 65
2, 57125, Control_c, 0, 64, 66
2, 57140, Control_c, 0, 64, 67
2, 57156, Control_c, 0, 64, 68
2, 57171, Control_c, 0, 64, 69
2, 57186, Control_c, 0, 64, 70
2, 57202, Control_c, 0, 64, 71
2, 57376, Control_c, 0, 64, 70
2, 57391, Control_c, 0, 64, 70
2, 57406, Control_c, 0, 64, 69
2, 57421, Control_c, 0, 64, 69
2, 57437, Control_c, 0, 64, 68
2, 57452, Control_c, 0, 64, 68
2, 57467, Control_c, 0, 64, 67
2, 57483, Control_c, 0, 64, 66
2, 57498, Control_c, 0, 64, 65
2, 57499, Note_on_c, 0, 56, 0
2, 57506, Note_on_c, 0, 73, 0
2, 57511, Note_on_c, 0, 61, 0
2, 57514, Control_c, 0, 64, 65
2, 57528, Control_c, 0, 64, 64
2, 57533, Note_on_c, 0, 68, 0
2, 57543, Control_c, 0, 64, 63
2, 57559, Control_c, 0, 64, 62
2, 57562, Note_on_c, 0, 49, 0
2, 57570, Note_on_c, 0, 53, 0
2, 57574, Control_c, 0, 64, 60
2, 57589, Control_c, 0, 64, 57
2, 57604, Control_c, 0, 64, 53
2, 57619, Control_c, 0, 64, 47
2, 57634, Control_c, 0, 64, 40
2, 57649, Control_c, 0, 64, 26
2, 57663, Control_c, 0, 64, 0
2, 63534, Note_on_c, 0, 68, 85
2, 63569, Note_on_c, 0, 68, 0
2, 63773, Note_on_c, 0, 70, 83
2, 63866, Note_on_c, 0, 70, 0
2, 63872, Note_on_c, 0, 68, 91
2, 63961, Note_on_c, 0, 68, 0
2, 63981, Note_on_c, 0, 66, 87
2, 64036, Note_on_c, 0, 66, 0
2, 64067, Note_on_c, 0, 68, 88
2, 64137, Note_on_c, 0, 68, 0
2, 64200, Note_on_c, 0, 77, 80
2, 64230, Note_on_c, 0, 77, 0
2, 64436, Note_on_c, 0, 73, 89
2, 64478, Note_on_c, 0, 73, 0
2, 64670, Note_on_c, 0, 68, 87
2, 64903, Note_on_c, 0, 68, 0
2, 64912, Note_on_c, 0, 66, 83
2, 64962, Note_on_c, 0, 66, 0
2, 65004, Note_on_c, 0, 65, 75
2, 65059, Note_on_c, 0, 65, 0
2, 65098, Note_on_c, 0, 66, 86
2, 65133, Note_on_c, 0, 66, 0
2, 65334, Note_on_c, 0, 75, 85
2, 65386, Note_on_c, 0, 75, 0
2, 65543, Note_on_c, 0, 65, 80
2, 65597, Note_on_c, 0, 65, 0
2, 65786, Note_on_c, 0, 73, 89
2, 65839, Note_on_c, 0, 73, 0
2, 66016, Note_on_c, 0, 63, 82
2, 66064, Note_on_c, 0, 63, 0
2, 66248, Note_on_c, 0, 72, 81
2, 66291, Note_on_c, 0, 72, 0
2, 66485, Note_on_c, 0, 61, 71
2, 66519, Note_on_c, 0, 61, 0
2, 66744, Note_on_c, 0, 73, 74
2, 66823, Note_on_c, 0, 73, 0
2, 66848, Note_on_c, 0, 72, 64
2, 66904, Note_on_c, 0, 72, 0
2, 66944, Note_on_c, 0, 73, 72
2, 67061, Note_on_c, 0, 75, 64
2, 67069, Note_on_c, 0, 73, 0
2, 67134, Note_on_c, 0, 75, 0
2, 67165, Note_on_c, 0, 61, 73
2, 67178, Note_on_c, 0, 77, 60
2, 67196, Note_on_c, 0, 61, 0
2, 67251, Note_on_c, 0, 77, 0
2, 67281, Note_on_c, 0, 78, 66
2, 67376, Note_on_c, 0, 65, 83
2, 67395, Note_on_c, 0, 78, 0
2, 67399, Note_on_c, 0, 80, 73
2, 67483, Note_on_c, 0, 63, 86
2, 67483, Note_on_c, 0, 65, 0
2, 67490, Note_on_c, 0, 79, 82
2, 67524, Note_on_c, 0, 80, 0
2, 67575, Note_on_c, 0, 61, 83
2, 67578, Note_on_c, 0, 63, 0
2, 67588, Note_on_c, 0, 77, 80
2, 67588, Note_on_c, 0, 79, 0
2, 67654, Note_on_c, 0, 77, 0
2, 67666, Note_on_c, 0, 63, 93
2, 67682, Note_on_c, 0, 79, 83
2, 67716, Note_on_c, 0, 61, 0
2, 67752, Note_on_c, 0, 63, 0
2, 67786, Note_on_c, 0, 72, 84
2, 67792, Note_on_c, 0, 80, 78
2, 67799, Note_on_c, 0, 79, 0
2, 67816, Note_on_c, 0, 72, 0
2, 67892, Note_on_c, 0, 78, 78
2, 67892, Note_on_c, 0, 80, 0
2, 68003, Note_on_c, 0, 78, 0
2, 68008, Note_on_c, 0, 77, 76
2, 68009, Note_on_c, 0, 68, 90
2, 68049, Note_on_c, 0, 68, 0
2, 68074, Note_on_c, 0, 77, 0
2, 68111, Note_on_c, 0, 75, 76
2, 68226, Note_on_c, 0, 75, 0
2, 68229, Note_on_c, 0, 63, 86
2, 68236, Note_on_c, 0, 77, 74
2, 68455, Note_on_c, 0, 63, 0
2, 68456, Note_on_c, 0, 61, 84
2, 68555, Note_on_c, 0, 60, 82
2, 68581, Note_on_c, 0, 61, 0
2, 68648, Note_on_c, 0, 61, 80
2, 68653, Note_on_c, 0, 60, 0
2, 68694, Note_on_c, 0, 61, 0
2, 68722, Note_on_c, 0, 77, 0
2, 68783, Note_on_c, 0, 75, 74
2, 68871, Note_on_c, 0, 73, 80
2, 68881, Note_on_c, 0, 70, 82
2, 68914, Note_on_c, 0, 70, 0
2, 68927, Note_on_c, 0, 75, 0
2, 68973, Note_on_c, 0, 77, 80
2, 68990, Note_on_c, 0, 73, 0
2, 69088, Note_on_c, 0, 75, 80
2, 69100, Note_on_c, 0, 60, 84
2, 69133, Note_on_c, 0, 77, 0
2, 69145, Note_on_c, 0, 60, 0
2, 69192, Note_on_c, 0, 73, 82
2, 69194, Note_on_c, 0, 75, 0
2, 69303, Note_on_c, 0, 72, 76
2, 69309, Note_on_c, 0, 68, 81
2, 69323, Note_on_c, 0, 73, 0
2, 69349, Note_on_c, 0, 68, 0
2, 69366, Note_on_c, 0, 72, 0
2, 69407, Note_on_c, 0, 75, 73
2, 69534, Note_on_c, 0, 73, 78
2, 69538, Note_on_c, 0, 58, 76
2, 69569, Note_on_c, 0, 58, 0
2, 69580, Note_on_c, 0, 75, 0
2, 69634, Note_on_c, 0, 72, 77
2, 69648, Note_on_c, 0, 73, 0
2, 69751, Note_on_c, 0, 67, 76
2, 69755, Note_on_c, 0, 73, 82
2, 69768, Note_on_c, 0, 72, 0
2, 69780, Note_on_c, 0, 67, 0
2, 69842, Note_on_c, 0, 73, 0
2, 69848, Note_on_c, 0, 70, 74
2, 69903, Note_on_c, 0, 70, 0
2, 69963, Note_on_c, 0, 70, 64
2, 69979, Note_on_c, 0, 56, 69
2, 70025, Note_on_c, 0, 56, 0
2, 70046, Note_on_c, 0, 70, 0
2, 70062, Note_on_c, 0, 72, 73
2, 70130, Note_on_c, 0, 72, 0
2, 70189, Note_on_c, 0, 68, 78
2, 70189, Note_on_c, 0, 75, 81
2, 70231, Note_on_c, 0, 75, 0
2, 70238, Note_on_c, 0, 68, 0
2, 70315, Note_on_c, 0, 67, 65
2, 70364, Note_on_c, 0, 67, 0
2, 70402, Note_on_c, 0, 68, 75
2, 70418, Note_on_c, 0, 78, 75
2, 70425, Note_on_c, 0, 68, 0
2, 70520, Note_on_c, 0, 70, 71
2, 70629, Note_on_c, 0, 72, 71
2, 70641, Note_on_c, 0, 56, 85
2, 70644, Note_on_c, 0, 70, 0
2, 70672, Note_on_c, 0, 56, 0
2, 70727, Note_on_c, 0, 72, 0
2, 70733, Note_on_c, 0, 68, 66
2, 70846, Note_on_c, 0, 68, 0
2, 70871, Note_on_c, 0, 58, 88
2, 70875, Note_on_c, 0, 73, 80
2, 70974, Note_on_c, 0, 56, 84
2, 70974, Note_on_c, 0, 72, 78
2, 70988, Note_on_c, 0, 58, 0
2, 71022, Note_on_c, 0, 78, 0
2, 71031, Note_on_c, 0, 73, 0
2, 71078, Note_on_c, 0, 54, 85
2, 71080, Note_on_c, 0, 56, 0
2, 71088, Note_on_c, 0, 70, 80
2, 71114, Note_on_c, 0, 72, 0
2, 71178, Note_on_c, 0, 70, 0
2, 71181, Note_on_c, 0, 56, 84
2, 71181, Note_on_c, 0, 72, 69
2, 71227, Note_on_c, 0, 54, 0
2, 71274, Note_on_c, 0, 56, 0
2, 71295, Note_on_c, 0, 77, 85
2, 71299, Note_on_c, 0, 65, 89
2, 71300, Note_on_c, 0, 73, 76
2, 71312, Note_on_c, 0, 72, 0
2, 71331, Note_on_c, 0, 65, 0
2, 71399, Note_on_c, 0, 72, 70
2, 71427, Note_on_c, 0, 73, 0
2, 71516, Note_on_c, 0, 72, 0
2, 71522, Note_on_c, 0, 61, 86
2, 71530, Note_on_c, 0, 70, 74
2, 71563, Note_on_c, 0, 61, 0
2, 71617, Note_on_c, 0, 70, 0
2, 71627, Note_on_c, 0, 68, 67
2, 71724, Note_on_c, 0, 68, 0
2, 71755, Note_on_c, 0, 56, 87
2, 71755, Note_on_c, 0, 70, 75
2, 71996, Note_on_c, 0, 54, 86
2, 72004, Note_on_c, 0, 56, 0
2, 72055, Note_on_c, 0, 77, 0
2, 72096, Note_on_c, 0, 53, 81
2, 72097, Note_on_c, 0, 54, 0
2, 72194, Note_on_c, 0, 54, 87
2, 72198, Note_on_c, 0, 53, 0
2, 72220, Note_on_c, 0, 75, 81
2, 72228, Note_on_c, 0, 70, 0
2, 72241, Note_on_c, 0, 54, 0
2, 72316, Note_on_c, 0, 68, 71
2, 72425, Note_on_c, 0, 63, 81
2, 72428, Note_on_c, 0, 66, 77
2, 72438, Note_on_c, 0, 68, 0
2, 72453, Note_on_c, 0, 63, 0
2, 72455, Note_on_c, 0, 54, 42
2, 72482, Note_on_c, 0, 54, 0
2, 72539, Note_on_c, 0, 70, 68
2, 72546, Note_on_c, 0, 66, 0
2, 72667, Note_on_c, 0, 53, 69
2, 72671, Note_on_c, 0, 68, 77
2, 72680, Note_on_c, 0, 61, 58
2, 72704, Note_on_c, 0, 53, 0
2, 72705, Note_on_c, 0, 61, 0
2, 72707, Note_on_c, 0, 75, 0
2, 72768, Note_on_c, 0, 66, 73
2, 72774, Note_on_c, 0, 70, 0
2, 72859, Note_on_c, 0, 68, 0
2, 72886, Note_on_c, 0, 61, 79
2, 72893, Note_on_c, 0, 73, 79
2, 72895, Note_on_c, 0, 65, 74
2, 72896, Note_on_c, 0, 66, 0
2, 72921, Note_on_c, 0, 61, 0
2, 72978, Note_on_c, 0, 65, 0
2, 72981, Note_on_c, 0, 68, 78
2, 72986, Note_on_c, 0, 73, 0
2, 73092, Note_on_c, 0, 51, 74
2, 73099, Note_on_c, 0, 68, 0
2, 73100, Note_on_c, 0, 66, 71
2, 73101, Note_on_c, 0, 72, 76
2, 73126, Note_on_c, 0, 51, 0
2, 73163, Note_on_c, 0, 66, 0
2, 73207, Note_on_c, 0, 65, 65
2, 73276, Note_on_c, 0, 65, 0
2, 73310, Note_on_c, 0, 66, 63
2, 73313, Note_on_c, 0, 60, 68
2, 73344, Note_on_c, 0, 75, 70
2, 73348, Note_on_c, 0, 60, 0
2, 73364, Note_on_c, 0, 72, 0
2, 73405, Note_on_c, 0, 66, 0
2, 73427, Note_on_c, 0, 63, 60
2, 73476, Note_on_c, 0, 63, 0
2, 73545, Note_on_c, 0, 65, 64
2, 73551, Note_on_c, 0, 49, 57
2, 73588, Note_on_c, 0, 49, 0
2, 73632, Note_on_c, 0, 75, 0
2, 73767, Note_on_c, 0, 61, 57
2, 73768, Note_on_c, 0, 68, 92
2, 73839, Note_on_c, 0, 68, 0
2, 73841, Note_on_c, 0, 61, 0
2, 73865, Note_on_c, 0, 60, 69
2, 73980, Note_on_c, 0, 61, 66
2, 73982, Note_on_c, 0, 77, 89
2, 73983, Note_on_c, 0, 60, 0
2, 73991, Note_on_c, 0, 65, 0
2, 74081, Note_on_c, 0, 61, 0
2, 74105, Note_on_c, 0, 63, 65
2, 74185, Note_on_c, 0, 63, 0
2, 74219, Note_on_c, 0, 68, 71
2, 74221, Note_on_c, 0, 65, 59
2, 74251, Note_on_c, 0, 68, 0
2, 74283, Note_on_c, 0, 65, 0
2, 74328, Note_on_c, 0, 61, 57
2, 74420, Note_on_c, 0, 61, 0
2, 74421, Note_on_c, 0, 58, 62
2, 74426, Note_on_c, 0, 73, 72
2, 74533, Note_on_c, 0, 60, 69
2, 74534, Note_on_c, 0, 58, 0
2, 74544, Note_on_c, 0, 77, 0
2, 74619, Note_on_c, 0, 60, 0
2, 74647, Note_on_c, 0, 61, 71
2, 74649, Note_on_c, 0, 77, 85
2, 74662, Note_on_c, 0, 73, 0
2, 74721, Note_on_c, 0, 61, 0
2, 74742, Note_on_c, 0, 58, 67
2, 74750, Note_on_c, 0, 73, 89
2, 74770, Note_on_c, 0, 77, 0
2, 74819, Note_on_c, 0, 58, 0
2, 74851, Note_on_c, 0, 73, 0
2, 74855, Note_on_c, 0, 55, 62
2, 74857, Note_on_c, 0, 70, 79
2, 74937, Note_on_c, 0, 55, 0
2, 74959, Note_on_c, 0, 56, 69
2, 75022, Note_on_c, 0, 56, 0
2, 75062, Note_on_c, 0, 58, 65
2, 75084, Note_on_c, 0, 70, 0
2, 75086, Note_on_c, 0, 73, 72
2, 75104, Note_on_c, 0, 58, 0
2, 75140, Note_on_c, 0, 73, 0
2, 75180, Note_on_c, 0, 70, 72
2, 75181, Note_on_c, 0, 55, 57
2, 75250, Note_on_c, 0, 70, 0
2, 75281, Note_on_c, 0, 55, 0
2, 75296, Note_on_c, 0, 48, 50
2, 75302, Note_on_c, 0, 63, 64
2, 75326, Note_on_c, 0, 48, 0
2, 75511, Note_on_c, 0, 70, 87
2, 75523, Note_on_c, 0, 60, 67
2, 75561, Note_on_c, 0, 70, 0
2, 75601, Note_on_c, 0, 60, 0
2, 75610, Note_on_c, 0, 63, 0
2, 75610, Note_on_c, 0, 63, 4
2, 75612, Note_on_c, 0, 58, 69
2, 75688, Note_on_c, 0, 63, 0
2, 75728, Note_on_c, 0, 58, 0
2, 75738, Note_on_c, 0, 75, 86
2, 75741, Note_on_c, 0, 60, 67
2, 75838, Note_on_c, 0, 60, 0
2, 75851, Note_on_c, 0, 61, 67
2, 75939, Note_on_c, 0, 61, 0
2, 75961, Note_on_c, 0, 63, 62
2, 75964, Note_on_c, 0, 67, 67
2, 75996, Note_on_c, 0, 67, 0
2, 76013, Note_on_c, 0, 63, 0
2, 76062, Note_on_c, 0, 60, 60
2, 76159, Note_on_c, 0, 60, 0
2, 76172, Note_on_c, 0, 56, 59
2, 76175, Note_on_c, 0, 72, 72
2, 76252, Note_on_c, 0, 75, 0
2, 76288, Note_on_c, 0, 58, 65
2, 76299, Note_on_c, 0, 56, 0
2, 76372, Note_on_c, 0, 58, 0
2, 76402, Note_on_c, 0, 60, 74
2, 76406, Note_on_c, 0, 75, 85
2, 76426, Note_on_c, 0, 72, 0
2, 76481, Note_on_c, 0, 60, 0
2, 76502, Note_on_c, 0, 72, 78
2, 76504, Note_on_c, 0, 75, 0
2, 76511, Note_on_c, 0, 56, 62
2, 76617, Note_on_c, 0, 53, 72
2, 76618, Note_on_c, 0, 56, 0
2, 76632, Note_on_c, 0, 68, 82
2, 76640, Note_on_c, 0, 72, 0
2, 76709, Note_on_c, 0, 53, 0
2, 76719, Note_on_c, 0, 55, 70
2, 76799, Note_on_c, 0, 55, 0
2, 76830, Note_on_c, 0, 56, 71
2, 76843, Note_on_c, 0, 68, 0
2, 76844, Note_on_c, 0, 72, 77
2, 76888, Note_on_c, 0, 56, 0
2, 76918, Note_on_c, 0, 72, 0
2, 76937, Note_on_c, 0, 68, 76
2, 76939, Note_on_c, 0, 53, 60
2, 77003, Note_on_c, 0, 53, 0
2, 77045, Note_on_c, 0, 68, 0
2, 77047, Note_on_c, 0, 46, 70
2, 77050, Note_on_c, 0, 61, 74
2, 77081, Note_on_c, 0, 46, 0
2, 77273, Note_on_c, 0, 68, 87
2, 77275, Note_on_c, 0, 58, 72
2, 77318, Note_on_c, 0, 68, 0
2, 77326, Note_on_c, 0, 61, 0
2, 77359, Note_on_c, 0, 58, 0
2, 77363, Note_on_c, 0, 56, 73
2, 77382, Note_on_c, 0, 61, 27
2, 77436, Note_on_c, 0, 61, 0
2, 77488, Note_on_c, 0, 58, 61
2, 77506, Note_on_c, 0, 73, 86
2, 77518, Note_on_c, 0, 56, 0
2, 77595, Note_on_c, 0, 58, 0
2, 77611, Note_on_c, 0, 60, 71
2, 77696, Note_on_c, 0, 60, 0
2, 77725, Note_on_c, 0, 61, 62
2, 77731, Note_on_c, 0, 65, 62
2, 77760, Note_on_c, 0, 65, 0
2, 77787, Note_on_c, 0, 61, 0
2, 77813, Note_on_c, 0, 58, 61
2, 77901, Note_on_c, 0, 58, 0
2, 77933, Note_on_c, 0, 55, 60
2, 77963, Note_on_c, 0, 70, 75
2, 78038, Note_on_c, 0, 73, 0
2, 78049, Note_on_c, 0, 55, 0
2, 78053, Note_on_c, 0, 56, 72
2, 78056, Note_on_c, 0, 72, 81
2, 78117, Note_on_c, 0, 56, 0
2, 78117, Note_on_c, 0, 70, 0
2, 78147, Note_on_c, 0, 58, 77
2, 78165, Note_on_c, 0, 73, 88
2, 78187, Note_on_c, 0, 72, 0
2, 78227, Note_on_c, 0, 58, 0
2, 78233, Note_on_c, 0, 73, 0
2, 78248, Note_on_c, 0, 55, 71
2, 78257, Note_on_c, 0, 70, 85
2, 78337, Note_on_c, 0, 70, 0
2, 78372, Note_on_c, 0, 55, 0
2, 78377, Note_on_c, 0, 51, 65
2, 78379, Note_on_c, 0, 82, 80
2, 78390, Note_on_c, 0, 80, 70
2, 78450, Note_on_c, 0, 80, 0
2, 78475, Note_on_c, 0, 73, 81
2, 78488, Note_on_c, 0, 51, 0
2, 78489, Note_on_c, 0, 53, 69
2, 78562, Note_on_c, 0, 53, 0
2, 78585, Note_on_c, 0, 55, 73
2, 78587, Note_on_c, 0, 75, 80
2, 78603, Note_on_c, 0, 73, 0
2, 78659, Note_on_c, 0, 55, 0
2, 78683, Note_on_c, 0, 51, 74
2, 78695, Note_on_c, 0, 70, 83
2, 78713, Note_on_c, 0, 75, 0
2, 78753, Note_on_c, 0, 70, 0
2, 78800, Note_on_c, 0, 44, 85
2, 78814, Note_on_c, 0, 72, 84
2, 78814, Note_on_c, 0, 82, 0
2, 78816, Note_on_c, 0, 51, 0
2, 78829, Note_on_c, 0, 44, 0
2, 78915, Note_on_c, 0, 80, 86
2, 79027, Note_on_c, 0, 79, 85
2, 79027, Note_on_c, 0, 80, 0
2, 79030, Note_on_c, 0, 56, 85
2, 79119, Note_on_c, 0, 82, 89
2, 79128, Note_on_c, 0, 79, 0
2, 79139, Note_on_c, 0, 58, 79
2, 79158, Note_on_c, 0, 56, 0
2, 79216, Note_on_c, 0, 72, 0
2, 79229, Note_on_c, 0, 58, 0
2, 79231, Note_on_c, 0, 80, 85
2, 79237, Note_on_c, 0, 60, 84
2, 79261, Note_on_c, 0, 82, 0
2, 79289, Note_on_c, 0, 60, 0
2, 79337, Note_on_c, 0, 75, 77
2, 79337, Note_on_c, 0, 80, 0
2, 79462, Note_on_c, 0, 77, 74
2, 79463, Note_on_c, 0, 68, 87
2, 79464, Note_on_c, 0, 56, 79
2, 79479, Note_on_c, 0, 75, 0
2, 79511, Note_on_c, 0, 56, 0
2, 79564, Note_on_c, 0, 78, 71
2, 79589, Note_on_c, 0, 77, 0
2, 79676, Note_on_c, 0, 77, 91
2, 79695, Note_on_c, 0, 78, 0
2, 79697, Note_on_c, 0, 61, 83
2, 79783, Note_on_c, 0, 77, 0
2, 79785, Note_on_c, 0, 75, 90
2, 79796, Note_on_c, 0, 67, 83
2, 79799, Note_on_c, 0, 68, 0
2, 79861, Note_on_c, 0, 61, 0
2, 79893, Note_on_c, 0, 65, 83
2, 79899, Note_on_c, 0, 75, 0
2, 79902, Note_on_c, 0, 73, 90
2, 79909, Note_on_c, 0, 67, 0
2, 79964, Note_on_c, 0, 73, 0
2, 79989, Note_on_c, 0, 65, 0
2, 79990, Note_on_c, 0, 75, 89
2, 79993, Note_on_c, 0, 67, 87
2, 80069, Note_on_c, 0, 75, 0
2, 80106, Note_on_c, 0, 67, 0
2, 80107, Note_on_c, 0, 84, 84
2, 80115, Note_on_c, 0, 68, 87
2, 80117, Note_on_c, 0, 60, 85
2, 80152, Note_on_c, 0, 84, 0
2, 80195, Note_on_c, 0, 68, 0
2, 80222, Note_on_c, 0, 66, 79
2, 80316, Note_on_c, 0, 66, 0
2, 80330, Note_on_c, 0, 80, 89
2, 80335, Note_on_c, 0, 60, 0
2, 80339, Note_on_c, 0, 65, 80
2, 80376, Note_on_c, 0, 80, 0
2, 80444, Note_on_c, 0, 63, 82
2, 80445, Note_on_c, 0, 65, 0
2, 80539, Note_on_c, 0, 63, 0
2, 80561, Note_on_c, 0, 75, 93
2, 80572, Note_on_c, 0, 58, 75
2, 80574, Note_on_c, 0, 65, 74
2, 80611, Note_on_c, 0, 58, 0
2, 80795, Note_on_c, 0, 73, 95
2, 80798, Note_on_c, 0, 56, 65
2, 80798, Note_on_c, 0, 75, 0
2, 80835, Note_on_c, 0, 56, 0
2, 80888, Note_on_c, 0, 73, 0
2, 80890, Note_on_c, 0, 72, 86
2, 80999, Note_on_c, 0, 73, 97
2, 81004, Note_on_c, 0, 72, 0
2, 81027, Note_on_c, 0, 55, 62
2, 81052, Note_on_c, 0, 73, 0
2, 81115, Note_on_c, 0, 63, 75
2, 81115, Note_on_c, 0, 65, 0
2, 81235, Note_on_c, 0, 82, 92
2, 81239, Note_on_c, 0, 61, 67
2, 81251, Note_on_c, 0, 63, 0
2, 81285, Note_on_c, 0, 82, 0
2, 81324, Note_on_c, 0, 55, 0
2, 81334, Note_on_c, 0, 65, 72
2, 81364, Note_on_c, 0, 61, 0
2, 81446, Note_on_c, 0, 63, 70
2, 81453, Note_on_c, 0, 72, 87
2, 81455, Note_on_c, 0, 65, 0
2, 81470, Note_on_c, 0, 56, 72
2, 81509, Note_on_c, 0, 72, 0
2, 81566, Note_on_c, 0, 61, 78
2, 81588, Note_on_c, 0, 63, 0
2, 81611, Note_on_c, 0, 56, 0
2, 81668, Note_on_c, 0, 80, 90
2, 81670, Note_on_c, 0, 61, 0
2, 81676, Note_on_c, 0, 60, 77
2, 81717, Note_on_c, 0, 80, 0
2, 81722, Note_on_c, 0, 78, 5
2, 81723, Note_on_c, 0, 78, 0
2, 81758, Note_on_c, 0, 60, 0
2, 81768, Note_on_c, 0, 63, 74
2, 81827, Note_on_c, 0, 63, 0
2, 81881, Note_on_c, 0, 61, 75
2, 81888, Note_on_c, 0, 70, 84
2, 81892, Note_on_c, 0, 51, 55
2, 81923, Note_on_c, 0, 70, 0
2, 81957, Note_on_c, 0, 61, 0
2, 81976, Note_on_c, 0, 60, 71
2, 82009, Note_on_c, 0, 60, 0
2, 82086, Note_on_c, 0, 61, 73
2, 82096, Note_on_c, 0, 79, 76
2, 82140, Note_on_c, 0, 79, 0
2, 82159, Note_on_c, 0, 61, 0
2, 82203, Note_on_c, 0, 58, 70
2, 82271, Note_on_c, 0, 51, 0
2, 82316, Note_on_c, 0, 58, 0
2, 82318, Note_on_c, 0, 68, 71
2, 82326, Note_on_c, 0, 60, 61
2, 82334, Note_on_c, 0, 56, 59
2, 82355, Note_on_c, 0, 68, 0
2, 82364, Note_on_c, 0, 60, 0
2, 82414, Note_on_c, 0, 70, 63
2, 82537, Note_on_c, 0, 72, 64
2, 82552, Note_on_c, 0, 63, 71
2, 82572, Note_on_c, 0, 70, 0
2, 82592, Note_on_c, 0, 63, 0
2, 82636, Note_on_c, 0, 72, 0
2, 82638, Note_on_c, 0, 73, 62
2, 82719, Note_on_c, 0, 73, 0
2, 82773, Note_on_c, 0, 72, 67
2, 82782, Note_on_c, 0, 68, 84
2, 82801, Note_on_c, 0, 58, 42
2, 82802, Note_on_c, 0, 58, 0
2, 82879, Note_on_c, 0, 72, 0
2, 82895, Note_on_c, 0, 70, 65
2, 82979, Note_on_c, 0, 68, 0
2, 83000, Note_on_c, 0, 70, 0
2, 83005, Note_on_c, 0, 68, 63
2, 83008, Note_on_c, 0, 63, 74
2, 83080, Note_on_c, 0, 56, 0
2, 83081, Note_on_c, 0, 68, 0
2, 83115, Note_on_c, 0, 72, 69
2, 83116, Note_on_c, 0, 63, 0
2, 83122, Note_on_c, 0, 60, 70
2, 83214, Note_on_c, 0, 60, 0
2, 83216, Note_on_c, 0, 77, 81
2, 83218, Note_on_c, 0, 72, 0
2, 83228, Note_on_c, 0, 56, 71
2, 83318, Note_on_c, 0, 75, 76
2, 83338, Note_on_c, 0, 77, 0
2, 83424, Note_on_c, 0, 56, 0
2, 83437, Note_on_c, 0, 75, 0
2, 83445, Note_on_c, 0, 59, 73
2, 83448, Note_on_c, 0, 74, 75
2, 83518, Note_on_c, 0, 74, 0
2, 83540, Note_on_c, 0, 77, 74
2, 83546, Note_on_c, 0, 59, 0
2, 83561, Note_on_c, 0, 56, 62
2, 83645, Note_on_c, 0, 56, 0
2, 83653, Note_on_c, 0, 80, 82
2, 83655, Note_on_c, 0, 53, 74
2, 83662, Note_on_c, 0, 77, 0
2, 83770, Note_on_c, 0, 78, 77
2, 83786, Note_on_c, 0, 80, 0
2, 83828, Note_on_c, 0, 53, 0
2, 83867, Note_on_c, 0, 78, 0
2, 83873, Note_on_c, 0, 77, 74
2, 83875, Note_on_c, 0, 56, 68
2, 83915, Note_on_c, 0, 77, 0
2, 83950, Note_on_c, 0, 56, 0
2, 83950, Note_on_c, 0, 80, 85
2, 83981, Note_on_c, 0, 53, 57
2, 83985, Note_on_c, 0, 80, 0
2, 84043, Note_on_c, 0, 80, 80
2, 84054, Note_on_c, 0, 53, 0
2, 84061, Note_on_c, 0, 50, 70
2, 84100, Note_on_c, 0, 82, 86
2, 84118, Note_on_c, 0, 80, 0
2, 84137, Note_on_c, 0, 83, 76
2, 84151, Note_on_c, 0, 82, 0
2, 84331, Note_on_c, 0, 82, 83
2, 84336, Note_on_c, 0, 50, 0
2, 84338, Note_on_c, 0, 53, 73
2, 84374, Note_on_c, 0, 83, 0
2, 84428, Note_on_c, 0, 80, 87
2, 84446, Note_on_c, 0, 56, 72
2, 84464, Note_on_c, 0, 53, 0
2, 84469, Note_on_c, 0, 82, 0
2, 84531, Note_on_c, 0, 78, 87
2, 84546, Note_on_c, 0, 80, 0
2, 84555, Note_on_c, 0, 56, 0
2, 84565, Note_on_c, 0, 59, 66
2, 84632, Note_on_c, 0, 77, 82
2, 84639, Note_on_c, 0, 78, 0
2, 84701, Note_on_c, 0, 77, 0
2, 84744, Note_on_c, 0, 75, 81
2, 84751, Note_on_c, 0, 53, 63
2, 84786, Note_on_c, 0, 53, 0
2, 84838, Note_on_c, 0, 75, 0
2, 84839, Note_on_c, 0, 74, 72
2, 84950, Note_on_c, 0, 75, 80
2, 84962, Note_on_c, 0, 54, 70
2, 84964, Note_on_c, 0, 58, 69
2, 84966, Note_on_c, 0, 74, 0
2, 84972, Note_on_c, 0, 59, 0
2, 84996, Note_on_c, 0, 58, 0
2, 85005, Note_on_c, 0, 54, 0
2, 85058, Note_on_c, 0, 78, 78
2, 85072, Note_on_c, 0, 75, 0
2, 85139, Note_on_c, 0, 78, 0
2, 85170, Note_on_c, 0, 77, 74
2, 85173, Note_on_c, 0, 59, 81
2, 85176, Note_on_c, 0, 56, 79
2, 85208, Note_on_c, 0, 56, 0
2, 85216, Note_on_c, 0, 59, 0
2, 85282, Note_on_c, 0, 75, 80
2, 85305, Note_on_c, 0, 77, 0
2, 85388, Note_on_c, 0, 74, 79
2, 85393, Note_on_c, 0, 58, 78
2, 85402, Note_on_c, 0, 75, 0
2, 85424, Note_on_c, 0, 58, 0
2, 85484, Note_on_c, 0, 74, 0
2, 85494, Note_on_c, 0, 77, 76
2, 85585, Note_on_c, 0, 77, 0
2, 85595, Note_on_c, 0, 46, 70
2, 85598, Note_on_c, 0, 50, 68
2, 85607, Note_on_c, 0, 70, 76
2, 85625, Note_on_c, 0, 50, 0
2, 85639, Note_on_c, 0, 46, 0
2, 85678, Note_on_c, 0, 70, 0
2, 85711, Note_on_c, 0, 68, 72
2, 85808, Note_on_c, 0, 68, 0
2, 85818, Note_on_c, 0, 66, 68
2, 85827, Note_on_c, 0, 51, 47
2, 85837, Note_on_c, 0, 39, 46
2, 85901, Note_on_c, 0, 66, 0
2, 85920, Note_on_c, 0, 65, 65
2, 86004, Note_on_c, 0, 65, 0
2, 86035, Note_on_c, 0, 63, 61
2, 86132, Note_on_c, 0, 62, 63
2, 86132, Note_on_c, 0, 63, 0
2, 86213, Note_on_c, 0, 39, 0
2, 86223, Note_on_c, 0, 51, 0
2, 86241, Note_on_c, 0, 62, 0
2, 86243, Note_on_c, 0, 63, 62
2, 86283, Note_on_c, 0, 63, 0
2, 86338, Note_on_c, 0, 65, 66
2, 86406, Note_on_c, 0, 65, 0
2, 86450, Note_on_c, 0, 66, 72
2, 86461, Note_on_c, 0, 51, 71
2, 86494, Note_on_c, 0, 51, 0
2, 86556, Note_on_c, 0, 68, 70
2, 86570, Note_on_c, 0, 66, 0
2, 86633, Note_on_c, 0, 68, 0
2, 86672, Note_on_c, 0, 54, 83
2, 86675, Note_on_c, 0, 70, 74
2, 86769, Note_on_c, 0, 53, 74
2, 86769, Note_on_c, 0, 68, 80
2, 86772, Note_on_c, 0, 54, 0
2, 86792, Note_on_c, 0, 70, 0
2, 86866, Note_on_c, 0, 66, 80
2, 86869, Note_on_c, 0, 51, 76
2, 86869, Note_on_c, 0, 53, 0
2, 86877, Note_on_c, 0, 68, 0
2, 86969, Note_on_c, 0, 68, 79
2, 86971, Note_on_c, 0, 53, 80
2, 86974, Note_on_c, 0, 51, 0
2, 86997, Note_on_c, 0, 66, 0
2, 87056, Note_on_c, 0, 53, 0
2, 87081, Note_on_c, 0, 70, 74
2, 87084, Note_on_c, 0, 68, 0
2, 87085, Note_on_c, 0, 61, 85
2, 87116, Note_on_c, 0, 61, 0
2, 87184, Note_on_c, 0, 68, 77
2, 87197, Note_on_c, 0, 70, 0
2, 87289, Note_on_c, 0, 66, 71
2, 87294, Note_on_c, 0, 68, 0
2, 87310, Note_on_c, 0, 58, 76
2, 87338, Note_on_c, 0, 58, 0
2, 87383, Note_on_c, 0, 66, 0
2, 87389, Note_on_c, 0, 65, 67
2, 87499, Note_on_c, 0, 65, 0
2, 87528, Note_on_c, 0, 53, 61
2, 87529, Note_on_c, 0, 66, 75
2, 87742, Note_on_c, 0, 53, 0
2, 87746, Note_on_c, 0, 51, 79
2, 87839, Note_on_c, 0, 49, 77
2, 87840, Note_on_c, 0, 51, 0
2, 87950, Note_on_c, 0, 51, 88
2, 87956, Note_on_c, 0, 49, 0
2, 87989, Note_on_c, 0, 51, 0
2, 88067, Note_on_c, 0, 65, 67
2, 88078, Note_on_c, 0, 66, 0
2, 88146, Note_on_c, 0, 65, 0
2, 88183, Note_on_c, 0, 63, 72
2, 88186, Note_on_c, 0, 60, 83
2, 88217, Note_on_c, 0, 60, 0
2, 88284, Note_on_c, 0, 66, 71
2, 88298, Note_on_c, 0, 63, 0
2, 88366, Note_on_c, 0, 66, 0
2, 88396, Note_on_c, 0, 49, 78
2, 88402, Note_on_c, 0, 65, 72
2, 88434, Note_on_c, 0, 49, 0
2, 88502, Note_on_c, 0, 65, 0
2, 88512, Note_on_c, 0, 63, 71
2, 88616, Note_on_c, 0, 61, 69
2, 88622, Note_on_c, 0, 58, 85
2, 88638, Note_on_c, 0, 63, 0
2, 88665, Note_on_c, 0, 58, 0
2, 88715, Note_on_c, 0, 61, 0
2, 88723, Note_on_c, 0, 65, 64
2, 88833, Note_on_c, 0, 48, 74
2, 88852, Note_on_c, 0, 63, 70
2, 88866, Note_on_c, 0, 65, 0
2, 88867, Note_on_c, 0, 48, 0
2, 88946, Note_on_c, 0, 61, 68
2, 88959, Note_on_c, 0, 63, 0
2, 89058, Note_on_c, 0, 63, 64
2, 89063, Note_on_c, 0, 57, 61
2, 89066, Note_on_c, 0, 61, 0
2, 89091, Note_on_c, 0, 57, 0
2, 89133, Note_on_c, 0, 63, 0
2, 89155, Note_on_c, 0, 60, 61
2, 89244, Note_on_c, 0, 60, 0
2, 89275, Note_on_c, 0, 61, 59
2, 89288, Note_on_c, 0, 46, 49
2, 89334, Note_on_c, 0, 46, 0
2, 89373, Note_on_c, 0, 61, 0
2, 89376, Note_on_c, 0, 65, 62
2, 89500, Note_on_c, 0, 66, 77
2, 89502, Note_on_c, 0, 65, 0
2, 89509, Note_on_c, 0, 58, 59
2, 89566, Note_on_c, 0, 66, 0
2, 89584, Note_on_c, 0, 58, 0
2, 89595, Note_on_c, 0, 65, 78
2, 89619, Note_on_c, 0, 57, 55
2, 89674, Note_on_c, 0, 65, 0
2, 89712, Note_on_c, 0, 73, 80
2, 89715, Note_on_c, 0, 57, 0
2, 89717, Note_on_c, 0, 58, 62
2, 89796, Note_on_c, 0, 58, 0
2, 89833, Note_on_c, 0, 60, 64
2, 89903, Note_on_c, 0, 60, 0
2, 89934, Note_on_c, 0, 65, 68
2, 89938, Note_on_c, 0, 61, 57
2, 89971, Note_on_c, 0, 65, 0
2, 90013, Note_on_c, 0, 61, 0
2, 90027, Note_on_c, 0, 58, 59
2, 90105, Note_on_c, 0, 58, 0
2, 90145, Note_on_c, 0, 55, 48
2, 90152, Note_on_c, 0, 70, 70
2, 90215, Note_on_c, 0, 73, 0
2, 90243, Note_on_c, 0, 55, 0
2, 90257, Note_on_c, 0, 56, 68
2, 90261, Note_on_c, 0, 72, 79
2, 90304, Note_on_c, 0, 70, 0
2, 90326, Note_on_c, 0, 56, 0
2, 90355, Note_on_c, 0, 58, 71
2, 90363, Note_on_c, 0, 73, 86
2, 90376, Note_on_c, 0, 72, 0
2, 90428, Note_on_c, 0, 73, 0
2, 90438, Note_on_c, 0, 58, 0
2, 90454, Note_on_c, 0, 55, 70
2, 90455, Note_on_c, 0, 70, 86
2, 90551, Note_on_c, 0, 70, 0
2, 90570, Note_on_c, 0, 82, 92
2, 90573, Note_on_c, 0, 55, 0
2, 90574, Note_on_c, 0, 51, 66
2, 90674, Note_on_c, 0, 51, 0
2, 90676, Note_on_c, 0, 53, 64
2, 90682, Note_on_c, 0, 73, 75
2, 90700, Control_c, 0, 64, 24
2, 90715, Control_c, 0, 64, 36
2, 90731, Control_c, 0, 64, 43
2, 90746, Control_c, 0, 64, 46
2, 90750, Note_on_c, 0, 53, 0
2, 90762, Control_c, 0, 64, 47
2, 90774, Note_on_c, 0, 55, 72
2, 90776, Control_c, 0, 64, 48
2, 90796, Note_on_c, 0, 75, 79
2, 90810, Note_on_c, 0, 82, 0
2, 90813, Note_on_c, 0, 73, 0
2, 90867, Control_c, 0, 64, 47
2, 90878, Note_on_c, 0, 51, 65
2, 90878, Note_on_c, 0, 70, 74
2, 90882, Note_on_c, 0, 55, 0
2, 90898, Control_c, 0, 64, 47
2, 90912, Control_c, 0, 64, 46
2, 90928, Control_c, 0, 64, 45
2, 90931, Note_on_c, 0, 75, 0
2, 90943, Control_c, 0, 64, 44
2, 90958, Control_c, 0, 64, 42
2, 90973, Note_on_c, 0, 70, 0
2, 90974, Control_c, 0, 64, 40
2, 90989, Control_c, 0, 64, 36
2, 91010, Note_on_c, 0, 72, 77
2, 91011, Note_on_c, 0, 44, 76
2, 91012, Control_c, 0, 64, 31
2, 91024, Note_on_c, 0, 51, 0
2, 91027, Control_c, 0, 64, 23
2, 91042, Control_c, 0, 64, 0
2, 91046, Note_on_c, 0, 44, 0
2, 91068, Note_on_c, 0, 72, 0
2, 91109, Note_on_c, 0, 63, 78
2, 91192, Note_on_c, 0, 63, 0
2, 91215, Note_on_c, 0, 65, 75
2, 91233, Note_on_c, 0, 56, 69
2, 91312, Note_on_c, 0, 63, 82
2, 91314, Note_on_c, 0, 65, 0
2, 91316, Note_on_c, 0, 56, 0
2, 91333, Note_on_c, 0, 55, 65
2, 91405, Note_on_c, 0, 63, 0
2, 91429, Note_on_c, 0, 72, 79
2, 91438, Note_on_c, 0, 55, 0
2, 91438, Note_on_c, 0, 56, 66
2, 91529, Note_on_c, 0, 56, 0
2, 91545, Note_on_c, 0, 58, 66
2, 91616, Note_on_c, 0, 58, 0
2, 91644, Note_on_c, 0, 63, 70
2, 91652, Note_on_c, 0, 60, 66
2, 91673, Note_on_c, 0, 63, 0
2, 91710, Note_on_c, 0, 60, 0
2, 91744, Note_on_c, 0, 56, 58
2, 91856, Note_on_c, 0, 68, 66
2, 91872, Note_on_c, 0, 53, 61
2, 91877, Note_on_c, 0, 56, 0
2, 91959, Note_on_c, 0, 72, 0
2, 91960, Note_on_c, 0, 70, 78
2, 91968, Note_on_c, 0, 55, 77
2, 91971, Note_on_c, 0, 53, 0
2, 92048, Note_on_c, 0, 55, 0
2, 92056, Note_on_c, 0, 72, 87
2, 92059, Note_on_c, 0, 70, 0
2, 92072, Note_on_c, 0, 56, 84
2, 92090, Note_on_c, 0, 68, 0
2, 92138, Note_on_c, 0, 72, 0
2, 92164, Note_on_c, 0, 68, 92
2, 92167, Note_on_c, 0, 56, 0
2, 92172, Note_on_c, 0, 53, 71
2, 92243, Note_on_c, 0, 68, 0
2, 92258, Note_on_c, 0, 80, 85
2, 92273, Note_on_c, 0, 53, 0
2, 92279, Note_on_c, 0, 49, 77
2, 92368, Note_on_c, 0, 72, 77
2, 92383, Note_on_c, 0, 51, 73
2, 92422, Note_on_c, 0, 49, 0
2, 92432, Note_on_c, 0, 80, 0
2, 92456, Note_on_c, 0, 51, 0
2, 92462, Note_on_c, 0, 53, 79
2, 92475, Note_on_c, 0, 73, 86
2, 92499, Note_on_c, 0, 72, 0
2, 92548, Note_on_c, 0, 53, 0
2, 92575, Note_on_c, 0, 73, 0
2, 92579, Note_on_c, 0, 49, 69
2, 92586, Note_on_c, 0, 68, 67
2, 92652, Note_on_c, 0, 68, 0
2, 92677, Note_on_c, 0, 49, 0
2, 92683, Note_on_c, 0, 43, 71
2, 92701, Note_on_c, 0, 70, 71
2, 92720, Note_on_c, 0, 43, 0
2, 92763, Note_on_c, 0, 70, 0
2, 92798, Note_on_c, 0, 61, 74
2, 92867, Note_on_c, 0, 61, 0
2, 92909, Note_on_c, 0, 63, 64
2, 92932, Note_on_c, 0, 55, 62
2, 92976, Note_on_c, 0, 55, 0
2, 92991, Note_on_c, 0, 63, 0
2, 93003, Note_on_c, 0, 61, 71
2, 93020, Note_on_c, 0, 53, 59
2, 93095, Note_on_c, 0, 53, 0
2, 93098, Note_on_c, 0, 61, 0
2, 93127, Note_on_c, 0, 70, 73
2, 93131, Note_on_c, 0, 55, 64
2, 93199, Note_on_c, 0, 55, 0
2, 93233, Note_on_c, 0, 56, 66
2, 93343, Note_on_c, 0, 58, 71
2, 93347, Note_on_c, 0, 56, 0
2, 93365, Note_on_c, 0, 61, 75
2, 93397, Note_on_c, 0, 61, 0
2, 93403, Note_on_c, 0, 58, 0
2, 93446, Note_on_c, 0, 55, 62
2, 93533, Note_on_c, 0, 55, 0
2, 93567, Note_on_c, 0, 67, 77
2, 93571, Note_on_c, 0, 52, 67
2, 93596, Note_on_c, 0, 70, 0
2, 93669, Note_on_c, 0, 68, 84
2, 93672, Note_on_c, 0, 53, 75
2, 93692, Note_on_c, 0, 52, 0
2, 93706, Note_on_c, 0, 67, 0
2, 93751, Note_on_c, 0, 53, 0
2, 93771, Note_on_c, 0, 55, 73
2, 93777, Note_on_c, 0, 70, 84
2, 93784, Note_on_c, 0, 68, 0
2, 93843, Note_on_c, 0, 70, 0
2, 93854, Note_on_c, 0, 55, 0
2, 93867, Note_on_c, 0, 52, 72
2, 93871, Note_on_c, 0, 67, 85
2, 93955, Note_on_c, 0, 52, 0
2, 93957, Note_on_c, 0, 67, 0
2, 93976, Note_on_c, 0, 48, 79
2, 93979, Note_on_c, 0, 79, 86
2, 94085, Note_on_c, 0, 70, 77
2, 94086, Note_on_c, 0, 50, 73
2, 94087, Note_on_c, 0, 48, 0
2, 94152, Note_on_c, 0, 50, 0
2, 94182, Note_on_c, 0, 52, 78
2, 94187, Note_on_c, 0, 72, 76
2, 94206, Note_on_c, 0, 70, 0
2, 94257, Note_on_c, 0, 52, 0
2, 94266, Note_on_c, 0, 48, 78
2, 94284, Note_on_c, 0, 67, 75
2, 94290, Note_on_c, 0, 72, 0
2, 94315, Note_on_c, 0, 67, 0
2, 94321, Note_on_c, 0, 79, 0
2, 94347, Note_on_c, 0, 79, 17
2, 94371, Note_on_c, 0, 48, 0
2, 94384, Note_on_c, 0, 41, 80
2, 94384, Note_on_c, 0, 68, 89
2, 94458, Note_on_c, 0, 79, 0
2, 94480, Note_on_c, 0, 68, 0
2, 94489, Note_on_c, 0, 43, 82
2, 94492, Note_on_c, 0, 76, 82
2, 94505, Note_on_c, 0, 41, 0
2, 94589, Note_on_c, 0, 44, 83
2, 94592, Note_on_c, 0, 77, 87
2, 94618, Note_on_c, 0, 43, 0
2, 94626, Note_on_c, 0, 76, 0
2, 94696, Note_on_c, 0, 46, 83
2, 94699, Note_on_c, 0, 73, 85
2, 94715, Note_on_c, 0, 77, 0
2, 94725, Note_on_c, 0, 44, 0
2, 94790, Note_on_c, 0, 46, 0
2, 94801, Note_on_c, 0, 48, 82
2, 94808, Note_on_c, 0, 70, 87
2, 94815, Note_on_c, 0, 73, 0
2, 94879, Note_on_c, 0, 70, 0
2, 94890, Note_on_c, 0, 48, 0
2, 94908, Note_on_c, 0, 50, 81
2, 94913, Note_on_c, 0, 70, 69
2, 95021, Note_on_c, 0, 52, 81
2, 95023, Note_on_c, 0, 50, 0
2, 95033, Note_on_c, 0, 60, 91
2, 95057, Note_on_c, 0, 71, 38
2, 95058, Note_on_c, 0, 71, 0
2, 95065, Note_on_c, 0, 60, 0
2, 95105, Note_on_c, 0, 52, 0
2, 95132, Note_on_c, 0, 48, 76
2, 95235, Note_on_c, 0, 48, 0
2, 95248, Note_on_c, 0, 61, 100
2, 95251, Note_on_c, 0, 53, 87
2, 95340, Note_on_c, 0, 53, 0
2, 95353, Note_on_c, 0, 51, 81
2, 95356, Note_on_c, 0, 60, 88
2, 95364, Note_on_c, 0, 61, 0
2, 95379, Note_on_c, 0, 70, 0
2, 95454, Note_on_c, 0, 58, 92
2, 95456, Note_on_c, 0, 49, 78
2, 95457, Note_on_c, 0, 51, 0
2, 95462, Note_on_c, 0, 60, 0
2, 95484, Note_on_c, 0, 61, 47
2, 95500, Note_on_c, 0, 58, 0
2, 95512, Note_on_c, 0, 61, 0
2, 95552, Note_on_c, 0, 60, 85
2, 95558, Note_on_c, 0, 51, 80
2, 95586, Note_on_c, 0, 49, 0
2, 95665, Note_on_c, 0, 51, 0
2, 95666, Note_on_c, 0, 60, 0
2, 95678, Note_on_c, 0, 53, 79
2, 95681, Note_on_c, 0, 68, 93
2, 95773, Note_on_c, 0, 53, 0
2, 95780, Note_on_c, 0, 51, 78
2, 95897, Note_on_c, 0, 65, 85
2, 95900, Note_on_c, 0, 49, 79
2, 95905, Note_on_c, 0, 51, 0
2, 95941, Note_on_c, 0, 65, 0
2, 95974, Note_on_c, 0, 49, 0
2, 96008, Note_on_c, 0, 48, 69
2, 96096, Note_on_c, 0, 48, 0
2, 96123, Note_on_c, 0, 60, 92
2, 96134, Note_on_c, 0, 49, 85
2, 96347, Note_on_c, 0, 58, 85
2, 96352, Note_on_c, 0, 60, 0
2, 96366, Note_on_c, 0, 68, 0
2, 96386, Note_on_c, 0, 61, 46
2, 96429, Note_on_c, 0, 61, 0
2, 96456, Note_on_c, 0, 56, 85
2, 96466, Note_on_c, 0, 58, 0
2, 96528, Note_on_c, 0, 56, 0
2, 96559, Note_on_c, 0, 58, 81
2, 96568, Note_on_c, 0, 67, 83
2, 96646, Note_on_c, 0, 67, 0
2, 96676, Note_on_c, 0, 48, 69
2, 96687, Note_on_c, 0, 49, 0
2, 96780, Note_on_c, 0, 67, 85
2, 96784, Note_on_c, 0, 48, 0
2, 96787, Note_on_c, 0, 46, 75
2, 96863, Note_on_c, 0, 67, 0
2, 96890, Note_on_c, 0, 58, 0
2, 96901, Note_on_c, 0, 49, 75
2, 96930, Note_on_c, 0, 46, 0
2, 96993, Note_on_c, 0, 49, 0
2, 97004, Note_on_c, 0, 56, 88
2, 97011, Note_on_c, 0, 48, 78
2, 97069, Note_on_c, 0, 56, 0
2, 97098, Note_on_c, 0, 48, 0
2, 97105, Note_on_c, 0, 46, 81
2, 97212, Note_on_c, 0, 44, 82
2, 97214, Note_on_c, 0, 46, 0
2, 97232, Note_on_c, 0, 65, 84
2, 97300, Note_on_c, 0, 65, 0
2, 97302, Note_on_c, 0, 44, 0
2, 97309, Note_on_c, 0, 48, 76
2, 97384, Note_on_c, 0, 48, 0
2, 97417, Note_on_c, 0, 46, 75
2, 97436, Note_on_c, 0, 55, 84
2, 97436, Note_on_c, 0, 64, 85
2, 97485, Note_on_c, 0, 55, 0
2, 97504, Note_on_c, 0, 46, 0
2, 97513, Note_on_c, 0, 44, 70
2, 97537, Note_on_c, 0, 64, 0
2, 97605, Note_on_c, 0, 44, 0
2, 97624, Note_on_c, 0, 46, 69
2, 97655, Note_on_c, 0, 67, 93
2, 97660, Note_on_c, 0, 64, 80
2, 97685, Note_on_c, 0, 64, 0
2, 97701, Note_on_c, 0, 67, 0
2, 97729, Note_on_c, 0, 46, 0
2, 97749, Note_on_c, 0, 43, 66
2, 97857, Note_on_c, 0, 43, 0
2, 97882, Note_on_c, 0, 72, 74
2, 97891, Note_on_c, 0, 44, 60
2, 97898, Note_on_c, 0, 53, 62
2, 97953, Note_on_c, 0, 44, 0
2, 97985, Note_on_c, 0, 72, 0
2, 98000, Note_on_c, 0, 70, 68
2, 98095, Note_on_c, 0, 68, 61
2, 98101, Note_on_c, 0, 70, 0
2, 98113, Note_on_c, 0, 49, 61
2, 98149, Note_on_c, 0, 49, 0
2, 98205, Note_on_c, 0, 72, 66
2, 98229, Note_on_c, 0, 68, 0
2, 98314, Note_on_c, 0, 72, 0
2, 98324, Note_on_c, 0, 43, 63
2, 98331, Note_on_c, 0, 70, 66
2, 98359, Note_on_c, 0, 43, 0
2, 98434, Note_on_c, 0, 70, 0
2, 98439, Note_on_c, 0, 68, 60
2, 98507, Note_on_c, 0, 53, 0
2, 98534, Note_on_c, 0, 53, 11
2, 98539, Note_on_c, 0, 48, 63
2, 98539, Note_on_c, 0, 67, 65
2, 98543, Note_on_c, 0, 52, 57
2, 98543, Note_on_c, 0, 68, 0
2, 98554, Note_on_c, 0, 53, 0
2, 98569, Note_on_c, 0, 52, 0
2, 98580, Note_on_c, 0, 48, 0
2, 98630, Note_on_c, 0, 67, 0
2, 98637, Note_on_c, 0, 70, 69
2, 98743, Note_on_c, 0, 70, 0
2, 98752, Note_on_c, 0, 68, 77
2, 98765, Note_on_c, 0, 53, 81
2, 98769, Note_on_c, 0, 41, 70
2, 98799, Note_on_c, 0, 53, 0
2, 98800, Note_on_c, 0, 41, 0
2, 98847, Note_on_c, 0, 68, 0
2, 98860, Note_on_c, 0, 65, 74
2, 98946, Note_on_c, 0, 65, 0
2, 98971, Note_on_c, 0, 52, 84
2, 98977, Note_on_c, 0, 46, 78
2, 98985, Note_on_c, 0, 73, 90
2, 99007, Note_on_c, 0, 52, 0
2, 99024, Note_on_c, 0, 46, 0
2, 99082, Note_on_c, 0, 70, 81
2, 99119, Note_on_c, 0, 73, 0
2, 99187, Note_on_c, 0, 53, 86
2, 99189, Note_on_c, 0, 44, 86
2, 99192, Note_on_c, 0, 72, 72
2, 99213, Note_on_c, 0, 70, 0
2, 99222, Note_on_c, 0, 44, 0
2, 99234, Note_on_c, 0, 53, 0
2, 99266, Note_on_c, 0, 72, 0
2, 99287, Note_on_c, 0, 68, 86
2, 99377, Note_on_c, 0, 68, 0
2, 99403, Note_on_c, 0, 58, 93
2, 99404, Note_on_c, 0, 78, 90
2, 99406, Note_on_c, 0, 49, 87
2, 99463, Note_on_c, 0, 58, 0
2, 99473, Note_on_c, 0, 49, 0
2, 99505, Note_on_c, 0, 78, 0
2, 99526, Note_on_c, 0, 76, 86
2, 99575, Note_on_c, 0, 76, 0
2, 99623, Note_on_c, 0, 76, 91
2, 99639, Note_on_c, 0, 56, 89
2, 99645, Note_on_c, 0, 48, 81
2, 99732, Note_on_c, 0, 77, 98
2, 99736, Note_on_c, 0, 76, 0
2, 99839, Note_on_c, 0, 83, 96
2, 99853, Note_on_c, 0, 55, 87
2, 99856, Note_on_c, 0, 77, 0
2, 99878, Note_on_c, 0, 56, 0
2, 99941, Note_on_c, 0, 84, 89
2, 99949, Note_on_c, 0, 53, 78
2, 99966, Note_on_c, 0, 83, 0
2, 99976, Note_on_c, 0, 55, 0
2, 100038, Note_on_c, 0, 84, 0
2, 100043, Note_on_c, 0, 76, 82
2, 100066, Note_on_c, 0, 76, 0
2, 100076, Note_on_c, 0, 55, 90
2, 100084, Note_on_c, 0, 77, 90
2, 100097, Note_on_c, 0, 53, 0
2, 100146, Note_on_c, 0, 77, 0
2, 100148, Note_on_c, 0, 76, 86
2, 100191, Note_on_c, 0, 77, 83
2, 100213, Note_on_c, 0, 76, 0
2, 100240, Note_on_c, 0, 77, 0
2, 100243, Note_on_c, 0, 76, 83
2, 100337, Note_on_c, 0, 48, 0
2, 100344, Note_on_c, 0, 58, 93
2, 100352, Note_on_c, 0, 55, 0
2, 100394, Note_on_c, 0, 76, 0
2, 100454, Note_on_c, 0, 77, 96
2, 100495, Note_on_c, 0, 77, 0
2, 100559, Note_on_c, 0, 77, 96
2, 100569, Note_on_c, 0, 58, 0
2, 100574, Note_on_c, 0, 56, 75
2, 100578, Note_on_c, 0, 53, 66
2, 100677, Note_on_c, 0, 58, 75
2, 100714, Note_on_c, 0, 56, 0
2, 100776, Note_on_c, 0, 58, 0
2, 100791, Note_on_c, 0, 60, 75
2, 100841, Note_on_c, 0, 53, 0
2, 100889, Note_on_c, 0, 60, 0
2, 100893, Note_on_c, 0, 56, 74
2, 100898, Note_on_c, 0, 77, 0
2, 100983, Note_on_c, 0, 56, 0
2, 100996, Note_on_c, 0, 53, 64
2, 101101, Note_on_c, 0, 54, 74
2, 101102, Note_on_c, 0, 53, 0
2, 101185, Note_on_c, 0, 54, 0
2, 101210, Note_on_c, 0, 56, 69
2, 101217, Note_on_c, 0, 77, 66
2, 101222, Note_on_c, 0, 76, 69
2, 101248, Note_on_c, 0, 77, 0
2, 101250, Note_on_c, 0, 76, 0
2, 101266, Note_on_c, 0, 56, 0
2, 101318, Note_on_c, 0, 53, 60
2, 101412, Note_on_c, 0, 53, 0
2, 101424, Note_on_c, 0, 50, 67
2, 101424, Note_on_c, 0, 71, 84
2, 101513, Note_on_c, 0, 50, 0
2, 101514, Note_on_c, 0, 71, 0
2, 101532, Note_on_c, 0, 70, 82
2, 101543, Note_on_c, 0, 51, 64
2, 101607, Note_on_c, 0, 70, 0
2, 101610, Note_on_c, 0, 51, 0
2, 101632, Note_on_c, 0, 68, 82
2, 101647, Note_on_c, 0, 53, 65
2, 101690, Note_on_c, 0, 68, 0
2, 101712, Note_on_c, 0, 53, 0
2, 101728, Note_on_c, 0, 70, 76
2, 101734, Note_on_c, 0, 50, 64
2, 101829, Note_on_c, 0, 50, 0
2, 101846, Note_on_c, 0, 77, 80
2, 101849, Note_on_c, 0, 70, 0
2, 101852, Note_on_c, 0, 46, 67
2, 101893, Note_on_c, 0, 77, 0
2, 101940, Note_on_c, 0, 46, 0
2, 101950, Note_on_c, 0, 50, 70
2, 102067, Note_on_c, 0, 50, 0
2, 102067, Note_on_c, 0, 74, 86
2, 102071, Note_on_c, 0, 53, 73
2, 102104, Note_on_c, 0, 74, 0
2, 102137, Note_on_c, 0, 53, 0
2, 102182, Note_on_c, 0, 58, 69
2, 102266, Note_on_c, 0, 58, 0
2, 102288, Note_on_c, 0, 68, 85
2, 102312, Note_on_c, 0, 51, 58
2, 102404, Note_on_c, 0, 51, 0
2, 102405, Note_on_c, 0, 54, 66
2, 102493, Note_on_c, 0, 68, 0
2, 102500, Note_on_c, 0, 66, 85
2, 102518, Note_on_c, 0, 54, 0
2, 102518, Note_on_c, 0, 58, 71
2, 102566, Note_on_c, 0, 66, 0
2, 102584, Note_on_c, 0, 58, 0
2, 102605, Note_on_c, 0, 65, 77
2, 102648, Note_on_c, 0, 62, 49
2, 102670, Note_on_c, 0, 65, 0
2, 102693, Note_on_c, 0, 62, 0
2, 102710, Note_on_c, 0, 66, 82
2, 102725, Note_on_c, 0, 63, 65
2, 102752, Note_on_c, 0, 66, 0
2, 102809, Note_on_c, 0, 63, 0
2, 102826, Note_on_c, 0, 65, 66
2, 102911, Note_on_c, 0, 65, 0
2, 102933, Note_on_c, 0, 75, 82
2, 102945, Note_on_c, 0, 66, 61
2, 102975, Note_on_c, 0, 71, 28
2, 102977, Note_on_c, 0, 71, 0
2, 102988, Note_on_c, 0, 75, 0
2, 103022, Note_on_c, 0, 66, 0
2, 103030, Note_on_c, 0, 63, 72
2, 103120, Note_on_c, 0, 63, 0
2, 103142, Note_on_c, 0, 60, 69
2, 103161, Note_on_c, 0, 69, 82
2, 103240, Note_on_c, 0, 69, 0
2, 103242, Note_on_c, 0, 60, 0
2, 103245, Note_on_c, 0, 61, 72
2, 103263, Note_on_c, 0, 68, 82
2, 103324, Note_on_c, 0, 61, 0
2, 103339, Note_on_c, 0, 68, 0
2, 103365, Note_on_c, 0, 66, 86
2, 103373, Note_on_c, 0, 63, 68
2, 103426, Note_on_c, 0, 66, 0
2, 103429, Note_on_c, 0, 63, 0
2, 103464, Note_on_c, 0, 68, 79
2, 103468, Note_on_c, 0, 60, 70
2, 103503, Note_on_c, 0, 60, 0
2, 103578, Note_on_c, 0, 68, 0
2, 103593, Note_on_c, 0, 56, 51
2, 103597, Note_on_c, 0, 74, 72
2, 103621, Note_on_c, 0, 58, 19
2, 103649, Note_on_c, 0, 58, 0
2, 103656, Note_on_c, 0, 74, 0
2, 103687, Note_on_c, 0, 44, 75
2, 103725, Note_on_c, 0, 56, 0
2, 103785, Note_on_c, 0, 46, 73
2, 103822, Note_on_c, 0, 72, 84
2, 103837, Note_on_c, 0, 44, 0
2, 103862, Note_on_c, 0, 72, 0
2, 103914, Note_on_c, 0, 48, 71
2, 103942, Note_on_c, 0, 46, 0
2, 104022, Note_on_c, 0, 66, 86
2, 104041, Note_on_c, 0, 49, 49
2, 104099, Note_on_c, 0, 48, 0
2, 104168, Note_on_c, 0, 56, 69
2, 104242, Note_on_c, 0, 56, 0
2, 104245, Note_on_c, 0, 66, 0
2, 104254, Note_on_c, 0, 65, 80
2, 104264, Note_on_c, 0, 58, 71
2, 104349, Note_on_c, 0, 65, 0
2, 104354, Note_on_c, 0, 63, 84
2, 104361, Note_on_c, 0, 60, 81
2, 104379, Note_on_c, 0, 58, 0
2, 104391, Note_on_c, 0, 60, 0
2, 104414, Note_on_c, 0, 63, 0
2, 104480, Note_on_c, 0, 65, 78
2, 104486, Note_on_c, 0, 61, 83
2, 104577, Note_on_c, 0, 68, 88
2, 104596, Note_on_c, 0, 51, 70
2, 104628, Note_on_c, 0, 49, 0
2, 104685, Note_on_c, 0, 73, 91
2, 104690, Note_on_c, 0, 53, 69
2, 104711, Note_on_c, 0, 68, 0
2, 104748, Note_on_c, 0, 51, 0
2, 104782, Note_on_c, 0, 75, 86
2, 104785, Note_on_c, 0, 55, 80
2, 104788, Note_on_c, 0, 53, 0
2, 104825, Note_on_c, 0, 73, 0
2, 104828, Note_on_c, 0, 55, 0
2, 104853, Note_on_c, 0, 65, 0
2, 104902, Note_on_c, 0, 77, 89
2, 104913, Note_on_c, 0, 56, 86
2, 104936, Note_on_c, 0, 61, 0
2, 104939, Note_on_c, 0, 75, 0
2, 105002, Note_on_c, 0, 75, 85
2, 105009, Note_on_c, 0, 55, 83
2, 105030, Note_on_c, 0, 77, 0
2, 105043, Note_on_c, 0, 56, 0
2, 105095, Note_on_c, 0, 73, 89
2, 105107, Note_on_c, 0, 55, 0
2, 105117, Note_on_c, 0, 53, 73
2, 105117, Note_on_c, 0, 75, 0
2, 105197, Note_on_c, 0, 75, 95
2, 105200, Note_on_c, 0, 55, 83
2, 105214, Note_on_c, 0, 53, 0
2, 105223, Note_on_c, 0, 73, 0
2, 105266, Note_on_c, 0, 75, 0
2, 105269, Note_on_c, 0, 55, 0
2, 105293, Note_on_c, 0, 56, 91
2, 105312, Note_on_c, 0, 72, 91
2, 105320, Note_on_c, 0, 84, 87
2, 105351, Note_on_c, 0, 84, 0
2, 105361, Note_on_c, 0, 56, 0
2, 105394, Note_on_c, 0, 55, 72
2, 105422, Note_on_c, 0, 72, 0
2, 105422, Note_on_c, 0, 72, 14
2, 105527, Note_on_c, 0, 53, 75
2, 105535, Note_on_c, 0, 55, 0
2, 105535, Note_on_c, 0, 80, 101
2, 105585, Note_on_c, 0, 80, 0
2, 105622, Note_on_c, 0, 53, 0
2, 105630, Note_on_c, 0, 51, 72
2, 105745, Note_on_c, 0, 51, 0
2, 105758, Note_on_c, 0, 53, 78
2, 105767, Note_on_c, 0, 75, 92
2, 105907, Note_on_c, 0, 72, 0
2, 106003, Note_on_c, 0, 73, 94
2, 106022, Note_on_c, 0, 75, 0
2, 106102, Note_on_c, 0, 72, 89
2, 106109, Note_on_c, 0, 73, 0
2, 106205, Note_on_c, 0, 70, 77
2, 106205, Note_on_c, 0, 73, 91
2, 106209, Note_on_c, 0, 72, 0
2, 106243, Note_on_c, 0, 73, 0
2, 106314, Note_on_c, 0, 51, 72
2, 106343, Note_on_c, 0, 53, 0
2, 106415, Note_on_c, 0, 82, 87
2, 106422, Note_on_c, 0, 49, 75
2, 106443, Note_on_c, 0, 51, 0
2, 106469, Note_on_c, 0, 78, 4
2, 106470, Note_on_c, 0, 78, 0
2, 106482, Note_on_c, 0, 82, 0
2, 106529, Note_on_c, 0, 53, 73
2, 106532, Note_on_c, 0, 49, 0
2, 106600, Note_on_c, 0, 70, 0
2, 106622, Note_on_c, 0, 53, 0
2, 106631, Note_on_c, 0, 51, 76
2, 106631, Note_on_c, 0, 72, 85
2, 106682, Note_on_c, 0, 72, 0
2, 106728, Note_on_c, 0, 49, 75
2, 106744, Note_on_c, 0, 51, 0
2, 106838, Note_on_c, 0, 49, 0
2, 106848, Note_on_c, 0, 80, 80
2, 106853, Note_on_c, 0, 48, 73
2, 106854, Note_on_c, 0, 68, 76
2, 106892, Note_on_c, 0, 68, 0
2, 106909, Note_on_c, 0, 80, 0
2, 106922, Note_on_c, 0, 48, 0
2, 106954, Note_on_c, 0, 51, 71
2, 107026, Note_on_c, 0, 51, 0
2, 107060, Note_on_c, 0, 49, 68
2, 107067, Note_on_c, 0, 70, 79
2, 107072, Note_on_c, 0, 67, 64
2, 107117, Note_on_c, 0, 70, 0
2, 107163, Note_on_c, 0, 48, 71
2, 107168, Note_on_c, 0, 49, 0
2, 107256, Note_on_c, 0, 48, 0
2, 107268, Note_on_c, 0, 46, 63
2, 107291, Note_on_c, 0, 70, 81
2, 107293, Note_on_c, 0, 79, 78
2, 107320, Note_on_c, 0, 67, 0
2, 107321, Note_on_c, 0, 79, 0
2, 107349, Note_on_c, 0, 70, 0
2, 107380, Note_on_c, 0, 46, 0
2, 107393, Note_on_c, 0, 49, 69
2, 107448, Note_on_c, 0, 49, 0
2, 107504, Note_on_c, 0, 68, 73
2, 107516, Note_on_c, 0, 63, 64
2, 107519, Note_on_c, 0, 48, 50
2, 107549, Note_on_c, 0, 63, 0
2, 107585, Note_on_c, 0, 68, 0
2, 107620, Note_on_c, 0, 63, 76
2, 107681, Note_on_c, 0, 63, 0
2, 107714, Note_on_c, 0, 48, 0
2, 107728, Note_on_c, 0, 65, 66
2, 107743, Note_on_c, 0, 51, 62
2, 107764, Note_on_c, 0, 65, 0
2, 107827, Note_on_c, 0, 67, 60
2, 107925, Note_on_c, 0, 67, 0
2, 107931, Note_on_c, 0, 51, 0
2, 107932, Note_on_c, 0, 68, 66
2, 107946, Note_on_c, 0, 54, 76
2, 108012, Note_on_c, 0, 68, 0
2, 108047, Note_on_c, 0, 70, 62
2, 108146, Note_on_c, 0, 56, 78
2, 108152, Note_on_c, 0, 70, 0
2, 108154, Note_on_c, 0, 72, 72
2, 108178, Note_on_c, 0, 56, 0
2, 108210, Note_on_c, 0, 72, 0
2, 108261, Note_on_c, 0, 68, 69
2, 108329, Note_on_c, 0, 68, 0
2, 108380, Note_on_c, 0, 73, 74
2, 108381, Note_on_c, 0, 58, 87
2, 108454, Note_on_c, 0, 73, 0
2, 108470, Note_on_c, 0, 56, 85
2, 108474, Note_on_c, 0, 72, 79
2, 108482, Note_on_c, 0, 54, 0
2, 108494, Note_on_c, 0, 58, 0
2, 108568, Note_on_c, 0, 54, 86
2, 108568, Note_on_c, 0, 56, 0
2, 108583, Note_on_c, 0, 70, 80
2, 108594, Note_on_c, 0, 72, 0
2, 108667, Note_on_c, 0, 56, 83
2, 108692, Note_on_c, 0, 72, 78
2, 108702, Note_on_c, 0, 70, 0
2, 108710, Note_on_c, 0, 54, 0
2, 108805, Note_on_c, 0, 53, 82
2, 108809, Note_on_c, 0, 73, 81
2, 108812, Note_on_c, 0, 65, 69
2, 108812, Note_on_c, 0, 72, 0
2, 108824, Note_on_c, 0, 56, 0
2, 108829, Note_on_c, 0, 67, 51
2, 108840, Note_on_c, 0, 65, 0
2, 108849, Note_on_c, 0, 67, 0
2, 108903, Note_on_c, 0, 72, 76
2, 108907, Note_on_c, 0, 73, 0
2, 109009, Note_on_c, 0, 72, 0
2, 109016, Note_on_c, 0, 70, 71
2, 109043, Note_on_c, 0, 61, 91
2, 109092, Note_on_c, 0, 61, 0
2, 109123, Note_on_c, 0, 70, 0
2, 109133, Note_on_c, 0, 68, 64
2, 109234, Note_on_c, 0, 68, 0
2, 109276, Note_on_c, 0, 56, 87
2, 109288, Note_on_c, 0, 70, 74
2, 109522, Note_on_c, 0, 53, 0
2, 109530, Note_on_c, 0, 54, 87
2, 109537, Note_on_c, 0, 56, 0
2, 109630, Note_on_c, 0, 53, 83
2, 109630, Note_on_c, 0, 54, 0
2, 109730, Note_on_c, 0, 54, 85
2, 109756, Note_on_c, 0, 53, 0
2, 109760, Note_on_c, 0, 51, 76
2, 109790, Note_on_c, 0, 54, 0
2, 109854, Note_on_c, 0, 68, 78
2, 109912, Note_on_c, 0, 70, 0
2, 109934, Note_on_c, 0, 68, 0
2, 109962, Note_on_c, 0, 63, 86
2, 109964, Note_on_c, 0, 66, 77
2, 110002, Note_on_c, 0, 63, 0
2, 110070, Note_on_c, 0, 70, 71
2, 110076, Note_on_c, 0, 66, 0
2, 110173, Note_on_c, 0, 53, 79
2, 110181, Note_on_c, 0, 68, 79
2, 110212, Note_on_c, 0, 51, 0
2, 110233, Note_on_c, 0, 70, 0
2, 110247, Note_on_c, 0, 53, 0
2, 110292, Note_on_c, 0, 66, 72
2, 110296, Note_on_c, 0, 68, 0
2, 110402, Note_on_c, 0, 61, 78
2, 110402, Note_on_c, 0, 65, 72
2, 110408, Note_on_c, 0, 66, 0
2, 110409, Note_on_c, 0, 49, 72
2, 110436, Note_on_c, 0, 61, 0
2, 110508, Note_on_c, 0, 68, 67
2, 110509, Note_on_c, 0, 65, 0
2, 110609, Note_on_c, 0, 49, 0
2, 110621, Note_on_c, 0, 66, 79
2, 110625, Note_on_c, 0, 51, 67
2, 110680, Note_on_c, 0, 68, 0
2, 110722, Note_on_c, 0, 65, 76
2, 110744, Note_on_c, 0, 51, 0
2, 110763, Note_on_c, 0, 66, 0
2, 110780, Note_on_c, 0, 65, 0
2, 110836, Note_on_c, 0, 60, 81
2, 110848, Note_on_c, 0, 44, 62
2, 110852, Note_on_c, 0, 63, 72
2, 110890, Note_on_c, 0, 60, 0
2, 110943, Note_on_c, 0, 66, 77
2, 110962, Note_on_c, 0, 63, 0
2, 110986, Note_on_c, 0, 63, 2
2, 110987, Note_on_c, 0, 63, 0
2, 111023, Note_on_c, 0, 66, 0
2, 111052, Note_on_c, 0, 65, 63
2, 111054, Note_on_c, 0, 61, 70
2, 111070, Note_on_c, 0, 49, 70
2, 111076, Note_on_c, 0, 44, 0
2, 111099, Note_on_c, 0, 61, 0
2, 111180, Note_on_c, 0, 49, 0
2, 111182, Note_on_c, 0, 51, 65
2, 111210, Note_on_c, 0, 65, 0
2, 111257, Note_on_c, 0, 51, 0
2, 111270, Note_on_c, 0, 68, 73
2, 111289, Note_on_c, 0, 53, 64
2, 111317, Note_on_c, 0, 68, 0
2, 111332, Note_on_c, 0, 53, 0
2, 111366, Note_on_c, 0, 54, 71
2, 111428, Note_on_c, 0, 54, 0
2, 111466, Note_on_c, 0, 53, 59
2, 111489, Note_on_c, 0, 73, 72
2, 111531, Note_on_c, 0, 53, 0
2, 111581, Note_on_c, 0, 51, 55
2, 111677, Note_on_c, 0, 51, 0
2, 111683, Note_on_c, 0, 49, 65
2, 111695, Note_on_c, 0, 80, 80
2, 111727, Note_on_c, 0, 73, 0
2, 111764, Note_on_c, 0, 49, 0
2, 111797, Note_on_c, 0, 53, 67
2, 111803, Note_on_c, 0, 77, 79
2, 111812, Note_on_c, 0, 80, 0
2, 111832, Note_on_c, 0, 78, 33
2, 111846, Note_on_c, 0, 78, 0
2, 111868, Note_on_c, 0, 53, 0
2, 111898, Note_on_c, 0, 58, 69
2, 111908, Note_on_c, 0, 73, 83
2, 111923, Note_on_c, 0, 77, 0
2, 111997, Note_on_c, 0, 58, 0
2, 112004, Note_on_c, 0, 56, 63
2, 112096, Note_on_c, 0, 56, 0
2, 112100, Note_on_c, 0, 55, 66
2, 112133, Note_on_c, 0, 76, 77
2, 112152, Note_on_c, 0, 73, 0
2, 112215, Note_on_c, 0, 58, 76
2, 112228, Note_on_c, 0, 55, 0
2, 112234, Note_on_c, 0, 73, 85
2, 112243, Note_on_c, 0, 76, 0
2, 112319, Note_on_c, 0, 61, 76
2, 112323, Note_on_c, 0, 58, 0
2, 112337, Note_on_c, 0, 70, 86
2, 112356, Note_on_c, 0, 73, 0
2, 112424, Note_on_c, 0, 59, 75
2, 112445, Note_on_c, 0, 61, 0
2, 112531, Note_on_c, 0, 59, 0
2, 112539, Note_on_c, 0, 58, 75
2, 112560, Note_on_c, 0, 73, 87
2, 112571, Note_on_c, 0, 70, 0
2, 112639, Note_on_c, 0, 73, 0
2, 112648, Note_on_c, 0, 61, 76
2, 112653, Note_on_c, 0, 58, 0
2, 112657, Note_on_c, 0, 70, 82
2, 112738, Note_on_c, 0, 61, 0
2, 112768, Note_on_c, 0, 67, 85
2, 112768, Note_on_c, 0, 70, 0
2, 112780, Note_on_c, 0, 64, 80
2, 112970, Note_on_c, 0, 64, 0
2, 112994, Note_on_c, 0, 63, 66
2, 113001, Note_on_c, 0, 70, 71
2, 113090, Note_on_c, 0, 67, 0
2, 113092, Note_on_c, 0, 63, 0
2, 113096, Note_on_c, 0, 70, 0
2, 113098, Note_on_c, 0, 61, 73
2, 113098, Note_on_c, 0, 73, 75
2, 113174, Note_on_c, 0, 61, 0
2, 113204, Note_on_c, 0, 76, 77
2, 113209, Note_on_c, 0, 73, 0
2, 113218, Note_on_c, 0, 59, 58
2, 113273, Note_on_c, 0, 59, 0
2, 113306, Note_on_c, 0, 58, 70
2, 113424, Note_on_c, 0, 56, 73
2, 113428, Note_on_c, 0, 58, 0
2, 113429, Note_on_c, 0, 73, 79
2, 113468, Note_on_c, 0, 73, 0
2, 113517, Note_on_c, 0, 56, 0
2, 113524, Note_on_c, 0, 55, 67
2, 113634, Note_on_c, 0, 56, 75
2, 113639, Note_on_c, 0, 76, 0
2, 113644, Note_on_c, 0, 75, 83
2, 113647, Note_on_c, 0, 55, 0
2, 113648, Note_on_c, 0, 71, 71
2, 113710, Note_on_c, 0, 75, 0
2, 113741, Note_on_c, 0, 56, 0
2, 113745, Note_on_c, 0, 71, 0
2, 113745, Note_on_c, 0, 71, 11
2, 113747, Note_on_c, 0, 59, 75
2, 113840, Note_on_c, 0, 71, 0
2, 113848, Note_on_c, 0, 59, 0
2, 113860, Note_on_c, 0, 58, 77
2, 113862, Note_on_c, 0, 80, 82
2, 113941, Note_on_c, 0, 80, 0
2, 113966, Note_on_c, 0, 56, 78
2, 113975, Note_on_c, 0, 58, 0
2, 114055, Note_on_c, 0, 56, 0
2, 114078, Note_on_c, 0, 73, 74
2, 114079, Note_on_c, 0, 70, 77
2, 114092, Note_on_c, 0, 55, 70
2, 114111, Note_on_c, 0, 73, 0
2, 114138, Note_on_c, 0, 70, 0
2, 114166, Note_on_c, 0, 55, 0
2, 114189, Note_on_c, 0, 52, 68
2, 114293, Note_on_c, 0, 51, 73
2, 114300, Note_on_c, 0, 52, 0
2, 114303, Note_on_c, 0, 79, 76
2, 114340, Note_on_c, 0, 79, 0
2, 114376, Note_on_c, 0, 51, 0
2, 114401, Note_on_c, 0, 49, 56
2, 114502, Note_on_c, 0, 49, 0
2, 114505, Note_on_c, 0, 47, 63
2, 114509, Note_on_c, 0, 68, 75
2, 114548, Note_on_c, 0, 68, 0
2, 114612, Note_on_c, 0, 49, 72
2, 114617, Note_on_c, 0, 47, 0
2, 114683, Note_on_c, 0, 49, 0
2, 114712, Note_on_c, 0, 51, 71
2, 114722, Note_on_c, 0, 80, 82
2, 114749, Note_on_c, 0, 78, 64
2, 114783, Note_on_c, 0, 78, 0
2, 114797, Note_on_c, 0, 51, 0
2, 114823, Note_on_c, 0, 47, 62
2, 114826, Note_on_c, 0, 80, 0
2, 114830, Note_on_c, 0, 79, 81
2, 114853, Note_on_c, 0, 77, 62
2, 114854, Note_on_c, 0, 77, 0
2, 114928, Note_on_c, 0, 80, 95
2, 114935, Note_on_c, 0, 47, 0
2, 114937, Note_on_c, 0, 79, 0
2, 114939, Note_on_c, 0, 44, 74
2, 114974, Note_on_c, 0, 44, 0
2, 115039, Note_on_c, 0, 82, 93
2, 115102, Note_on_c, 0, 80, 0
2, 115131, Note_on_c, 0, 83, 89
2, 115166, Note_on_c, 0, 56, 78
2, 115221, Note_on_c, 0, 82, 0
2, 115235, Note_on_c, 0, 80, 85
2, 115236, Note_on_c, 0, 56, 0
2, 115251, Note_on_c, 0, 53, 73
2, 115255, Note_on_c, 0, 83, 0
2, 115347, Note_on_c, 0, 77, 88
2, 115350, Note_on_c, 0, 53, 0
2, 115355, Note_on_c, 0, 80, 0
2, 115357, Note_on_c, 0, 50, 78
2, 115388, Note_on_c, 0, 50, 0
2, 115425, Note_on_c, 0, 77, 0
2, 115457, Note_on_c, 0, 78, 87
2, 115560, Note_on_c, 0, 80, 84
2, 115563, Note_on_c, 0, 59, 69
2, 115610, Note_on_c, 0, 78, 0
2, 115653, Note_on_c, 0, 80, 0
2, 115662, Note_on_c, 0, 59, 0
2, 115669, Note_on_c, 0, 77, 86
2, 115673, Note_on_c, 0, 56, 69
2, 115761, Note_on_c, 0, 77, 0
2, 115784, Note_on_c, 0, 53, 76
2, 115784, Note_on_c, 0, 73, 78
2, 115798, Note_on_c, 0, 56, 0
2, 115818, Note_on_c, 0, 53, 0
2, 115847, Note_on_c, 0, 73, 0
2, 115876, Note_on_c, 0, 75, 73
2, 115983, Note_on_c, 0, 75, 0
2, 115984, Note_on_c, 0, 77, 71
2, 116000, Note_on_c, 0, 49, 58
2, 116063, Note_on_c, 0, 77, 0
2, 116077, Note_on_c, 0, 73, 71
2, 116079, Note_on_c, 0, 49, 0
2, 116090, Note_on_c, 0, 46, 48
2, 116190, Note_on_c, 0, 46, 0
2, 116190, Note_on_c, 0, 73, 0
2, 116193, Note_on_c, 0, 70, 62
2, 116206, Note_on_c, 0, 42, 61
2, 116249, Note_on_c, 0, 42, 0
2, 116278, Note_on_c, 0, 70, 0
2, 116294, Note_on_c, 0, 72, 69
2, 116414, Note_on_c, 0, 73, 86
2, 116438, Note_on_c, 0, 58, 86
2, 116440, Note_on_c, 0, 72, 0
2, 116503, Note_on_c, 0, 73, 0
2, 116517, Note_on_c, 0, 70, 84
2, 116527, Note_on_c, 0, 54, 78
2, 116545, Note_on_c, 0, 58, 0
2, 116619, Note_on_c, 0, 70, 0
2, 116635, Note_on_c, 0, 78, 89
2, 116636, Note_on_c, 0, 51, 87
2, 116646, Note_on_c, 0, 54, 0
2, 116683, Note_on_c, 0, 51, 0
2, 116738, Note_on_c, 0, 80, 84
2, 116853, Note_on_c, 0, 82, 86
2, 116861, Note_on_c, 0, 54, 75
2, 116865, Note_on_c, 0, 78, 0
2, 116890, Note_on_c, 0, 80, 0
2, 116937, Note_on_c, 0, 54, 0
2, 116946, Note_on_c, 0, 78, 87
2, 116957, Note_on_c, 0, 51, 64
2, 116977, Note_on_c, 0, 82, 0
2, 117041, Note_on_c, 0, 78, 0
2, 117049, Note_on_c, 0, 51, 0
2, 117051, Note_on_c, 0, 48, 75
2, 117056, Note_on_c, 0, 75, 86
2, 117077, Note_on_c, 0, 48, 0
2, 117124, Note_on_c, 0, 75, 0
2, 117163, Note_on_c, 0, 77, 80
2, 117268, Note_on_c, 0, 78, 75
2, 117283, Note_on_c, 0, 77, 0
2, 117284, Note_on_c, 0, 58, 65
2, 117352, Note_on_c, 0, 78, 0
2, 117358, Note_on_c, 0, 58, 0
2, 117365, Note_on_c, 0, 75, 75
2, 117369, Note_on_c, 0, 54, 67
2, 117452, Note_on_c, 0, 75, 0
2, 117466, Note_on_c, 0, 54, 0
2, 117474, Note_on_c, 0, 51, 74
2, 117475, Note_on_c, 0, 72, 71
2, 117509, Note_on_c, 0, 51, 0
2, 117540, Note_on_c, 0, 72, 0
2, 117574, Note_on_c, 0, 73, 72
2, 117670, Note_on_c, 0, 75, 79
2, 117693, Note_on_c, 0, 48, 60
2, 117710, Note_on_c, 0, 73, 0
2, 117765, Note_on_c, 0, 75, 0
2, 117774, Note_on_c, 0, 44, 65
2, 117776, Note_on_c, 0, 48, 0
2, 117779, Note_on_c, 0, 72, 76
2, 117863, Note_on_c, 0, 72, 0
2, 117868, Note_on_c, 0, 44, 0
2, 117877, Note_on_c, 0, 41, 75
2, 117890, Note_on_c, 0, 68, 81
2, 117918, Note_on_c, 0, 41, 0
2, 117970, Note_on_c, 0, 68, 0
2, 117991, Note_on_c, 0, 70, 84
2, 118092, Note_on_c, 0, 72, 85
2, 118109, Note_on_c, 0, 56, 83
2, 118116, Note_on_c, 0, 70, 0
2, 118178, Note_on_c, 0, 72, 0
2, 118196, Note_on_c, 0, 56, 0
2, 118198, Note_on_c, 0, 68, 82
2, 118199, Note_on_c, 0, 53, 75
2, 118265, Note_on_c, 0, 68, 0
2, 118289, Note_on_c, 0, 53, 0
2, 118297, Note_on_c, 0, 50, 80
2, 118305, Note_on_c, 0, 77, 82
2, 118326, Note_on_c, 0, 50, 0
2, 118418, Note_on_c, 0, 78, 85
2, 118435, Note_on_c, 0, 77, 0
2, 118507, Note_on_c, 0, 80, 84
2, 118521, Note_on_c, 0, 53, 64
2, 118552, Note_on_c, 0, 78, 0
2, 118601, Note_on_c, 0, 80, 0
2, 118609, Note_on_c, 0, 53, 0
2, 118609, Note_on_c, 0, 77, 83
2, 118615, Note_on_c, 0, 50, 61
2, 118709, Note_on_c, 0, 77, 0
2, 118715, Note_on_c, 0, 50, 0
2, 118728, Note_on_c, 0, 46, 71
2, 118728, Note_on_c, 0, 74, 75
2, 118758, Note_on_c, 0, 46, 0
2, 118783, Note_on_c, 0, 74, 0
2, 118825, Note_on_c, 0, 75, 75
2, 118924, Note_on_c, 0, 77, 75
2, 118935, Note_on_c, 0, 56, 69
2, 118952, Note_on_c, 0, 75, 0
2, 119009, Note_on_c, 0, 56, 0
2, 119020, Note_on_c, 0, 77, 0
2, 119027, Note_on_c, 0, 74, 69
2, 119029, Note_on_c, 0, 53, 64
2, 119091, Note_on_c, 0, 74, 0
2, 119123, Note_on_c, 0, 53, 0
2, 119131, Note_on_c, 0, 70, 63
2, 119147, Note_on_c, 0, 50, 65
2, 119175, Note_on_c, 0, 50, 0
2, 119185, Note_on_c, 0, 70, 0
2, 119230, Note_on_c, 0, 72, 65
2, 119335, Note_on_c, 0, 72, 0
2, 119338, Note_on_c, 0, 74, 65
2, 119354, Note_on_c, 0, 46, 54
2, 119421, Note_on_c, 0, 46, 0
2, 119437, Note_on_c, 0, 74, 0
2, 119439, Note_on_c, 0, 42, 59
2, 119456, Note_on_c, 0, 70, 60
2, 119530, Note_on_c, 0, 42, 0
2, 119544, Note_on_c, 0, 70, 0
2, 119551, Note_on_c, 0, 39, 55
2, 119564, Note_on_c, 0, 66, 66
2, 119584, Note_on_c, 0, 39, 0
2, 119640, Note_on_c, 0, 66, 0
2, 119668, Note_on_c, 0, 68, 67
2, 119773, Note_on_c, 0, 54, 66
2, 119773, Note_on_c, 0, 70, 66
2, 119774, Note_on_c, 0, 68, 0
2, 119833, Note_on_c, 0, 70, 0
2, 119858, Note_on_c, 0, 54, 0
2, 119873, Note_on_c, 0, 66, 63
2, 119890, Note_on_c, 0, 51, 46
2, 119938, Note_on_c, 0, 51, 0
2, 119939, Note_on_c, 0, 66, 0
2, 119976, Note_on_c, 0, 48, 56
2, 119987, Note_on_c, 0, 75, 73
2, 120015, Note_on_c, 0, 48, 0
2, 120066, Note_on_c, 0, 75, 0
2, 120075, Note_on_c, 0, 77, 73
2, 120178, Note_on_c, 0, 78, 75
2, 120207, Note_on_c, 0, 77, 0
2, 120219, Note_on_c, 0, 49, 49
2, 120275, Note_on_c, 0, 49, 0
2, 120300, Note_on_c, 0, 75, 66
2, 120303, Note_on_c, 0, 78, 0
2, 120342, Note_on_c, 0, 48, 25
2, 120379, Note_on_c, 0, 75, 0
2, 120389, Note_on_c, 0, 72, 77
2, 120393, Note_on_c, 0, 48, 0
2, 120459, Note_on_c, 0, 72, 0
2, 120490, Note_on_c, 0, 73, 75
2, 120599, Note_on_c, 0, 54, 73
2, 120599, Note_on_c, 0, 75, 78
2, 120638, Note_on_c, 0, 73, 0
2, 120670, Note_on_c, 0, 75, 0
2, 120686, Note_on_c, 0, 54, 0
2, 120688, Note_on_c, 0, 72, 74
2, 120690, Note_on_c, 0, 51, 69
2, 120782, Note_on_c, 0, 51, 0
2, 120782, Note_on_c, 0, 72, 0
2, 120794, Note_on_c, 0, 68, 72
2, 120808, Note_on_c, 0, 48, 60
2, 120831, Note_on_c, 0, 48, 0
2, 120864, Note_on_c, 0, 68, 0
2, 120903, Note_on_c, 0, 70, 70
2, 120996, Note_on_c, 0, 44, 58
2, 121018, Note_on_c, 0, 70, 0
2, 121018, Note_on_c, 0, 72, 69
2, 121067, Note_on_c, 0, 44, 0
2, 121086, Note_on_c, 0, 41, 52
2, 121086, Note_on_c, 0, 72, 0
2, 121113, Note_on_c, 0, 68, 67
2, 121165, Note_on_c, 0, 41, 0
2, 121198, Note_on_c, 0, 68, 0
2, 121216, Note_on_c, 0, 37, 49
2, 121232, Note_on_c, 0, 65, 57
2, 121288, Note_on_c, 0, 65, 0
2, 121330, Note_on_c, 0, 66, 67
2, 121438, Note_on_c, 0, 68, 57
2, 121463, Note_on_c, 0, 66, 0
2, 121495, Note_on_c, 0, 68, 0
2, 121532, Note_on_c, 0, 65, 65
2, 121618, Note_on_c, 0, 65, 0
2, 121632, Note_on_c, 0, 61, 67
2, 121710, Note_on_c, 0, 61, 0
2, 121731, Note_on_c, 0, 37, 0
2, 121739, Note_on_c, 0, 65, 71
2, 121851, Note_on_c, 0, 68, 73
2, 121856, Note_on_c, 0, 65, 0
2, 121953, Note_on_c, 0, 70, 83
2, 121992, Note_on_c, 0, 68, 0
2, 122014, Note_on_c, 0, 70, 0
2, 122071, Note_on_c, 0, 71, 93
2, 122160, Note_on_c, 0, 70, 82
2, 122204, Note_on_c, 0, 71, 0
2, 122262, Note_on_c, 0, 68, 94
2, 122283, Note_on_c, 0, 59, 86
2, 122286, Note_on_c, 0, 70, 0
2, 122334, Note_on_c, 0, 59, 0
2, 122359, Note_on_c, 0, 70, 91
2, 122371, Note_on_c, 0, 49, 80
2, 122384, Note_on_c, 0, 68, 0
2, 122448, Note_on_c, 0, 49, 0
2, 122466, Note_on_c, 0, 78, 94
2, 122469, Note_on_c, 0, 58, 93
2, 122482, Note_on_c, 0, 70, 0
2, 122516, Note_on_c, 0, 73, 30
2, 122517, Note_on_c, 0, 73, 0
2, 122519, Note_on_c, 0, 58, 0
2, 122524, Note_on_c, 0, 78, 0
2, 122578, Note_on_c, 0, 49, 81
2, 122656, Note_on_c, 0, 49, 0
2, 122683, Note_on_c, 0, 56, 85
2, 122692, Note_on_c, 0, 73, 98
2, 122732, Note_on_c, 0, 56, 0
2, 122733, Note_on_c, 0, 73, 0
2, 122779, Note_on_c, 0, 49, 81
2, 122837, Note_on_c, 0, 49, 0
2, 122893, Note_on_c, 0, 54, 83
2, 122898, Note_on_c, 0, 70, 94
2, 122947, Note_on_c, 0, 54, 0
2, 122974, Note_on_c, 0, 49, 69
2, 122999, Note_on_c, 0, 49, 0
2, 123089, Note_on_c, 0, 53, 75
2, 123104, Note_on_c, 0, 68, 83
2, 123113, Note_on_c, 0, 70, 0
2, 123126, Note_on_c, 0, 53, 0
2, 123185, Note_on_c, 0, 51, 77
2, 123196, Note_on_c, 0, 66, 79
2, 123199, Note_on_c, 0, 68, 0
2, 123231, Note_on_c, 0, 51, 0
2, 123304, Note_on_c, 0, 53, 68
2, 123304, Note_on_c, 0, 68, 77
2, 123311, Note_on_c, 0, 66, 0
2, 123332, Note_on_c, 0, 53, 0
2, 123399, Note_on_c, 0, 61, 65
2, 123399, Note_on_c, 0, 68, 0
2, 123479, Note_on_c, 0, 61, 0
2, 123503, Note_on_c, 0, 65, 69
2, 123505, Note_on_c, 0, 44, 74
2, 123542, Note_on_c, 0, 44, 0
2, 123612, Note_on_c, 0, 68, 75
2, 123619, Note_on_c, 0, 65, 0
2, 123723, Note_on_c, 0, 70, 89
2, 123732, Note_on_c, 0, 68, 0
2, 123823, Note_on_c, 0, 68, 86
2, 123851, Note_on_c, 0, 70, 0
2, 123910, Note_on_c, 0, 68, 0
2, 123930, Note_on_c, 0, 66, 91
2, 123934, Note_on_c, 0, 58, 86
2, 123986, Note_on_c, 0, 58, 0
2, 123989, Note_on_c, 0, 66, 0
2, 124024, Note_on_c, 0, 68, 86
2, 124025, Note_on_c, 0, 49, 71
2, 124134, Note_on_c, 0, 68, 0
2, 124148, Note_on_c, 0, 56, 89
2, 124154, Note_on_c, 0, 49, 0
2, 124157, Note_on_c, 0, 77, 91
2, 124197, Note_on_c, 0, 56, 0
2, 124214, Note_on_c, 0, 77, 0
2, 124249, Note_on_c, 0, 49, 84
2, 124317, Note_on_c, 0, 49, 0
2, 124359, Note_on_c, 0, 54, 88
2, 124367, Note_on_c, 0, 73, 99
2, 124410, Note_on_c, 0, 54, 0
2, 124410, Note_on_c, 0, 73, 0
2, 124455, Note_on_c, 0, 49, 78
2, 124512, Note_on_c, 0, 49, 0
2, 124572, Note_on_c, 0, 68, 92
2, 124575, Note_on_c, 0, 53, 82
2, 124612, Note_on_c, 0, 53, 0
2, 124679, Note_on_c, 0, 49, 76
2, 124739, Note_on_c, 0, 49, 0
2, 124790, Note_on_c, 0, 68, 0
2, 124793, Note_on_c, 0, 51, 80
2, 124811, Note_on_c, 0, 66, 77
2, 124838, Note_on_c, 0, 51, 0
2, 124897, Note_on_c, 0, 65, 79
2, 124897, Note_on_c, 0, 66, 0
2, 124900, Note_on_c, 0, 49, 78
2, 124947, Note_on_c, 0, 49, 0
2, 125004, Note_on_c, 0, 66, 74
2, 125010, Note_on_c, 0, 65, 0
2, 125014, Note_on_c, 0, 51, 71
2, 125040, Note_on_c, 0, 51, 0
2, 125099, Note_on_c, 0, 66, 0
2, 125108, Note_on_c, 0, 60, 59
2, 125199, Note_on_c, 0, 60, 0
2, 125225, Note_on_c, 0, 44, 75
2, 125237, Note_on_c, 0, 63, 69
2, 125262, Note_on_c, 0, 44, 0
2, 125339, Note_on_c, 0, 66, 73
2, 125387, Note_on_c, 0, 63, 0
2, 125450, Note_on_c, 0, 68, 87
2, 125462, Note_on_c, 0, 66, 0
2, 125551, Note_on_c, 0, 66, 85
2, 125585, Note_on_c, 0, 68, 0
2, 125655, Note_on_c, 0, 66, 0
2, 125661, Note_on_c, 0, 65, 88
2, 125662, Note_on_c, 0, 56, 89
2, 125719, Note_on_c, 0, 56, 0
2, 125747, Note_on_c, 0, 65, 0
2, 125759, Note_on_c, 0, 66, 75
2, 125774, Note_on_c, 0, 44, 78
2, 125833, Note_on_c, 0, 44, 0
2, 125867, Note_on_c, 0, 66, 0
2, 125882, Note_on_c, 0, 54, 93
2, 125883, Note_on_c, 0, 75, 86
2, 125921, Note_on_c, 0, 54, 0
2, 125967, Note_on_c, 0, 75, 0
2, 125979, Note_on_c, 0, 44, 82
2, 126051, Note_on_c, 0, 44, 0
2, 126094, Note_on_c, 0, 72, 83
2, 126095, Note_on_c, 0, 53, 85
2, 126127, Note_on_c, 0, 53, 0
2, 126133, Note_on_c, 0, 72, 0
2, 126201, Note_on_c, 0, 44, 84
2, 126256, Note_on_c, 0, 44, 0
2, 126308, Note_on_c, 0, 66, 91
2, 126319, Note_on_c, 0, 51, 79
2, 126347, Note_on_c, 0, 44, 40
2, 126360, Note_on_c, 0, 51, 0
2, 126381, Note_on_c, 0, 44, 0
2, 126459, Note_on_c, 0, 44, 63
2, 126496, Note_on_c, 0, 44, 0
2, 126524, Note_on_c, 0, 49, 69
2, 126554, Note_on_c, 0, 65, 84
2, 126564, Note_on_c, 0, 66, 0
2, 126613, Note_on_c, 0, 49, 0
2, 126619, Note_on_c, 0, 48, 71
2, 126657, Note_on_c, 0, 65, 0
2, 126658, Note_on_c, 0, 63, 84
2, 126725, Note_on_c, 0, 48, 0
2, 126755, Note_on_c, 0, 63, 0
2, 126758, Note_on_c, 0, 65, 82
2, 126773, Note_on_c, 0, 49, 78
2, 126842, Note_on_c, 0, 65, 0
2, 126863, Note_on_c, 0, 68, 77
2, 126910, Note_on_c, 0, 44, 73
2, 126914, Note_on_c, 0, 49, 0
2, 126969, Note_on_c, 0, 70, 75
2, 126989, Note_on_c, 0, 68, 0
2, 126998, Note_on_c, 0, 44, 0
2, 126999, Note_on_c, 0, 53, 80
2, 127040, Note_on_c, 0, 70, 0
2, 127063, Note_on_c, 0, 53, 0
2, 127078, Note_on_c, 0, 72, 76
2, 127082, Note_on_c, 0, 51, 85
2, 127173, Note_on_c, 0, 51, 0
2, 127175, Note_on_c, 0, 72, 0
2, 127202, Note_on_c, 0, 53, 76
2, 127223, Note_on_c, 0, 73, 41
2, 127223, Note_on_c, 0, 74, 74
2, 127257, Note_on_c, 0, 53, 0
2, 127291, Note_on_c, 0, 73, 0
2, 127303, Note_on_c, 0, 44, 76
2, 127306, Note_on_c, 0, 75, 84
2, 127331, Note_on_c, 0, 74, 0
2, 127390, Note_on_c, 0, 44, 0
2, 127416, Note_on_c, 0, 77, 92
2, 127422, Note_on_c, 0, 56, 86
2, 127435, Note_on_c, 0, 75, 0
2, 127484, Note_on_c, 0, 56, 0
2, 127513, Note_on_c, 0, 54, 85
2, 127515, Note_on_c, 0, 75, 92
2, 127540, Note_on_c, 0, 77, 0
2, 127591, Note_on_c, 0, 54, 0
2, 127618, Note_on_c, 0, 56, 87
2, 127630, Note_on_c, 0, 78, 91
2, 127641, Note_on_c, 0, 75, 0
2, 127687, Note_on_c, 0, 56, 0
2, 127713, Note_on_c, 0, 78, 0
2, 127726, Note_on_c, 0, 44, 86
2, 127726, Note_on_c, 0, 77, 90
2, 127763, Note_on_c, 0, 43, 53
2, 127795, Note_on_c, 0, 43, 0
2, 127812, Note_on_c, 0, 44, 0
2, 127821, Note_on_c, 0, 77, 0
2, 127829, Note_on_c, 0, 75, 92
2, 127839, Note_on_c, 0, 58, 94
2, 127913, Note_on_c, 0, 75, 0
2, 127915, Note_on_c, 0, 58, 0
2, 127919, Note_on_c, 0, 73, 89
2, 127968, Note_on_c, 0, 44, 82
2, 127989, Note_on_c, 0, 73, 0
2, 128022, Note_on_c, 0, 44, 0
2, 128044, Note_on_c, 0, 82, 89
2, 128061, Note_on_c, 0, 60, 88
2, 128107, Note_on_c, 0, 60, 0
2, 128117, Note_on_c, 0, 80, 85
2, 128117, Note_on_c, 0, 82, 0
2, 128156, Note_on_c, 0, 61, 76
2, 128171, Note_on_c, 0, 80, 0
2, 128175, Note_on_c, 0, 79, 83
2, 128209, Note_on_c, 0, 79, 0
2, 128229, Note_on_c, 0, 80, 86
2, 128261, Note_on_c, 0, 63, 80
2, 128286, Note_on_c, 0, 61, 0
2, 128287, Note_on_c, 0, 80, 0
2, 128302, Note_on_c, 0, 83, 74
2, 128310, Note_on_c, 0, 82, 33
2, 128343, Note_on_c, 0, 80, 84
2, 128346, Note_on_c, 0, 83, 0
2, 128352, Note_on_c, 0, 82, 0
2, 128377, Note_on_c, 0, 63, 0
2, 128379, Note_on_c, 0, 60, 82
2, 128399, Note_on_c, 0, 82, 90
2, 128404, Note_on_c, 0, 80, 0
2, 128454, Note_on_c, 0, 80, 75
2, 128454, Note_on_c, 0, 82, 0
2, 128519, Note_on_c, 0, 56, 88
2, 128524, Note_on_c, 0, 60, 0
2, 128627, Note_on_c, 0, 60, 86
2, 128631, Note_on_c, 0, 56, 0
2, 128739, Note_on_c, 0, 63, 90
2, 128750, Note_on_c, 0, 60, 0
2, 128767, Note_on_c, 0, 61, 50
2, 128791, Note_on_c, 0, 61, 0
2, 128845, Note_on_c, 0, 65, 91
2, 128852, Note_on_c, 0, 63, 0
2, 128912, Note_on_c, 0, 65, 0
2, 128937, Note_on_c, 0, 80, 0
2, 128954, Note_on_c, 0, 66, 94
2, 129069, Note_on_c, 0, 65, 75
2, 129072, Note_on_c, 0, 64, 78
2, 129074, Note_on_c, 0, 80, 93
2, 129076, Note_on_c, 0, 66, 0
2, 129117, Note_on_c, 0, 64, 0
2, 129167, Note_on_c, 0, 63, 84
2, 129175, Note_on_c, 0, 78, 92
2, 129193, Note_on_c, 0, 80, 0
2, 129196, Note_on_c, 0, 65, 0
2, 129257, Note_on_c, 0, 65, 52
2, 129275, Note_on_c, 0, 80, 89
2, 129285, Note_on_c, 0, 78, 0
2, 129292, Note_on_c, 0, 63, 0
2, 129389, Note_on_c, 0, 77, 88
2, 129393, Note_on_c, 0, 73, 97
2, 129395, Note_on_c, 0, 65, 0
2, 129411, Note_on_c, 0, 80, 0
2, 129453, Note_on_c, 0, 73, 0
2, 129465, Note_on_c, 0, 77, 0
2, 129494, Note_on_c, 0, 80, 69
2, 129624, Note_on_c, 0, 68, 95
2, 129631, Note_on_c, 0, 75, 85
2, 129633, Note_on_c, 0, 80, 0
2, 129663, Note_on_c, 0, 68, 0
2, 129732, Note_on_c, 0, 75, 0
2, 129740, Note_on_c, 0, 80, 73
2, 129838, Note_on_c, 0, 65, 83
2, 129851, Note_on_c, 0, 73, 81
2, 129860, Note_on_c, 0, 80, 0
2, 129954, Note_on_c, 0, 73, 0
2, 129960, Note_on_c, 0, 80, 68
2, 130034, Note_on_c, 0, 65, 0
2, 130050, Note_on_c, 0, 80, 0
2, 130053, Note_on_c, 0, 63, 74
2, 130073, Note_on_c, 0, 72, 70
2, 130121, Note_on_c, 0, 63, 0
2, 130141, Note_on_c, 0, 72, 0
2, 130159, Note_on_c, 0, 61, 76
2, 130182, Note_on_c, 0, 70, 73
2, 130267, Note_on_c, 0, 70, 0
2, 130271, Note_on_c, 0, 63, 73
2, 130285, Note_on_c, 0, 61, 0
2, 130291, Note_on_c, 0, 72, 72
2, 130355, Note_on_c, 0, 72, 0
2, 130387, Note_on_c, 0, 56, 69
2, 130390, Note_on_c, 0, 63, 0
2, 130392, Note_on_c, 0, 75, 75
2, 130480, Note_on_c, 0, 56, 0
2, 130480, Note_on_c, 0, 60, 72
2, 130492, Note_on_c, 0, 77, 78
2, 130512, Note_on_c, 0, 75, 0
2, 130592, Note_on_c, 0, 63, 75
2, 130597, Note_on_c, 0, 78, 77
2, 130602, Note_on_c, 0, 60, 0
2, 130614, Note_on_c, 0, 77, 0
2, 130678, Note_on_c, 0, 63, 0
2, 130697, Note_on_c, 0, 65, 80
2, 130699, Note_on_c, 0, 80, 86
2, 130729, Note_on_c, 0, 78, 0
2, 130774, Note_on_c, 0, 65, 0
2, 130795, Note_on_c, 0, 63, 84
2, 130801, Note_on_c, 0, 78, 80
2, 130866, Note_on_c, 0, 80, 0
2, 130897, Note_on_c, 0, 63, 0
2, 130899, Note_on_c, 0, 61, 84
2, 130907, Note_on_c, 0, 77, 81
2, 131010, Note_on_c, 0, 63, 89
2, 131012, Note_on_c, 0, 80, 85
2, 131021, Note_on_c, 0, 77, 0
2, 131051, Note_on_c, 0, 61, 0
2, 131056, Note_on_c, 0, 78, 0
2, 131101, Note_on_c, 0, 63, 0
2, 131136, Note_on_c, 0, 72, 90
2, 131141, Note_on_c, 0, 75, 90
2, 131141, Note_on_c, 0, 80, 0
2, 131177, Note_on_c, 0, 72, 0
2, 131239, Note_on_c, 0, 75, 0
2, 131275, Note_on_c, 0, 81, 51
2, 131313, Note_on_c, 0, 81, 0
2, 131354, Note_on_c, 0, 68, 90
2, 131367, Note_on_c, 0, 73, 81
2, 131392, Note_on_c, 0, 68, 0
2, 131447, Note_on_c, 0, 73, 0
2, 131450, Note_on_c, 0, 80, 66
2, 131566, Note_on_c, 0, 72, 78
2, 131569, Note_on_c, 0, 63, 85
2, 131589, Note_on_c, 0, 80, 0
2, 131648, Note_on_c, 0, 72, 0
2, 131685, Note_on_c, 0, 80, 74
2, 131775, Note_on_c, 0, 63, 0
2, 131777, Note_on_c, 0, 80, 0
2, 131790, Note_on_c, 0, 61, 79
2, 131798, Note_on_c, 0, 70, 70
2, 131893, Note_on_c, 0, 60, 76
2, 131896, Note_on_c, 0, 61, 0
2, 131899, Note_on_c, 0, 68, 75
2, 131902, Note_on_c, 0, 70, 0
2, 131964, Note_on_c, 0, 68, 0
2, 131999, Note_on_c, 0, 60, 0
2, 132001, Note_on_c, 0, 61, 79
2, 132006, Note_on_c, 0, 70, 78
2, 132089, Note_on_c, 0, 61, 0
2, 132101, Note_on_c, 0, 56, 76
2, 132113, Note_on_c, 0, 73, 78
2, 132126, Note_on_c, 0, 70, 0
2, 132201, Note_on_c, 0, 56, 0
2, 132215, Note_on_c, 0, 60, 65
2, 132220, Note_on_c, 0, 75, 69
2, 132225, Note_on_c, 0, 73, 0
2, 132307, Note_on_c, 0, 61, 88
2, 132318, Note_on_c, 0, 60, 0
2, 132318, Note_on_c, 0, 77, 81
2, 132349, Note_on_c, 0, 75, 0
2, 132408, Note_on_c, 0, 61, 0
2, 132419, Note_on_c, 0, 63, 85
2, 132433, Note_on_c, 0, 78, 86
2, 132468, Note_on_c, 0, 77, 0
2, 132509, Note_on_c, 0, 78, 0
2, 132517, Note_on_c, 0, 63, 0
2, 132528, Note_on_c, 0, 61, 80
2, 132538, Note_on_c, 0, 77, 80
2, 132636, Note_on_c, 0, 61, 0
2, 132636, Note_on_c, 0, 75, 91
2, 132645, Note_on_c, 0, 60, 83
2, 132651, Note_on_c, 0, 77, 0
2, 132731, Note_on_c, 0, 77, 91
2, 132740, Note_on_c, 0, 61, 88
2, 132750, Note_on_c, 0, 60, 0
2, 132752, Note_on_c, 0, 75, 0
2, 132800, Note_on_c, 0, 61, 0
2, 132840, Note_on_c, 0, 77, 0
2, 132855, Note_on_c, 0, 73, 91
2, 132858, Note_on_c, 0, 70, 88
2, 132904, Note_on_c, 0, 73, 0
2, 132905, Note_on_c, 0, 70, 0
2, 132951, Note_on_c, 0, 75, 83
2, 133066, Note_on_c, 0, 75, 0
2, 133069, Note_on_c, 0, 67, 88
2, 133069, Note_on_c, 0, 72, 81
2, 133098, Note_on_c, 0, 67, 0
2, 133136, Note_on_c, 0, 72, 0
2, 133170, Note_on_c, 0, 75, 81
2, 133291, Note_on_c, 0, 70, 82
2, 133298, Note_on_c, 0, 61, 86
2, 133298, Note_on_c, 0, 75, 0
2, 133408, Note_on_c, 0, 70, 0
2, 133408, Note_on_c, 0, 75, 75
2, 133481, Note_on_c, 0, 61, 0
2, 133505, Note_on_c, 0, 75, 0
2, 133511, Note_on_c, 0, 60, 76
2, 133513, Note_on_c, 0, 68, 75
2, 133575, Note_on_c, 0, 60, 0
2, 133604, Note_on_c, 0, 58, 76
2, 133616, Note_on_c, 0, 68, 0
2, 133617, Note_on_c, 0, 67, 75
2, 133681, Note_on_c, 0, 67, 0
2, 133685, Note_on_c, 0, 58, 0
2, 133714, Note_on_c, 0, 60, 71
2, 133722, Note_on_c, 0, 68, 75
2, 133774, Note_on_c, 0, 68, 0
2, 133779, Note_on_c, 0, 60, 0
2, 133809, Note_on_c, 0, 56, 73
2, 133829, Note_on_c, 0, 72, 78
2, 133890, Note_on_c, 0, 72, 0
2, 133924, Note_on_c, 0, 58, 78
2, 133924, Note_on_c, 0, 73, 84
2, 133945, Note_on_c, 0, 56, 0
2, 134009, Note_on_c, 0, 58, 0
2, 134037, Note_on_c, 0, 75, 82
2, 134038, Note_on_c, 0, 60, 74
2, 134067, Note_on_c, 0, 73, 0
2, 134108, Note_on_c, 0, 60, 0
2, 134128, Note_on_c, 0, 61, 79
2, 134131, Note_on_c, 0, 75, 0
2, 134151, Note_on_c, 0, 77, 77
2, 134214, Note_on_c, 0, 77, 0
2, 134235, Note_on_c, 0, 63, 73
2, 134238, Note_on_c, 0, 61, 0
2, 134247, Note_on_c, 0, 78, 80
2, 134308, Note_on_c, 0, 63, 0
2, 134337, Note_on_c, 0, 65, 68
2, 134350, Note_on_c, 0, 80, 79
2, 134361, Note_on_c, 0, 78, 0
2, 134388, Note_on_c, 0, 65, 0
2, 134433, Note_on_c, 0, 63, 74
2, 134449, Note_on_c, 0, 82, 77
2, 134456, Note_on_c, 0, 80, 0
2, 134529, Note_on_c, 0, 82, 0
2, 134543, Note_on_c, 0, 63, 0
2, 134561, Note_on_c, 0, 66, 71
2, 134571, Note_on_c, 0, 71, 68
2, 134585, Note_on_c, 0, 72, 42
2, 134597, Note_on_c, 0, 71, 0
2, 134601, Note_on_c, 0, 72, 0
2, 134624, Note_on_c, 0, 66, 0
2, 134655, Note_on_c, 0, 65, 71
2, 134764, Note_on_c, 0, 68, 94
2, 134771, Note_on_c, 0, 63, 74
2, 134792, Note_on_c, 0, 65, 0
2, 134809, Note_on_c, 0, 68, 0
2, 134871, Note_on_c, 0, 63, 0
2, 134881, Note_on_c, 0, 66, 54
2, 134882, Note_on_c, 0, 66, 0
2, 134895, Note_on_c, 0, 65, 76
2, 134981, Note_on_c, 0, 65, 0
2, 134986, Note_on_c, 0, 66, 74
2, 135001, Note_on_c, 0, 70, 92
2, 135018, Note_on_c, 0, 66, 0
2, 135110, Note_on_c, 0, 68, 98
2, 135113, Note_on_c, 0, 70, 0
2, 135211, Note_on_c, 0, 58, 78
2, 135211, Note_on_c, 0, 66, 92
2, 135216, Note_on_c, 0, 68, 0
2, 135298, Note_on_c, 0, 66, 0
2, 135300, Note_on_c, 0, 68, 96
2, 135312, Note_on_c, 0, 60, 78
2, 135332, Note_on_c, 0, 58, 0
2, 135357, Note_on_c, 0, 68, 0
2, 135417, Note_on_c, 0, 77, 93
2, 135419, Note_on_c, 0, 61, 90
2, 135420, Note_on_c, 0, 60, 0
2, 135464, Note_on_c, 0, 77, 0
2, 135489, Note_on_c, 0, 61, 0
2, 135522, Note_on_c, 0, 60, 87
2, 135612, Note_on_c, 0, 60, 0
2, 135642, Note_on_c, 0, 58, 85
2, 135645, Note_on_c, 0, 73, 95
2, 135684, Note_on_c, 0, 73, 0
2, 135722, Note_on_c, 0, 58, 0
2, 135751, Note_on_c, 0, 56, 73
2, 135870, Note_on_c, 0, 56, 0
2, 135871, Note_on_c, 0, 68, 94
2, 135879, Note_on_c, 0, 58, 78
2, 135905, Note_on_c, 0, 70, 44
2, 135944, Note_on_c, 0, 70, 0
2, 136110, Note_on_c, 0, 68, 0
2, 136114, Note_on_c, 0, 66, 82
2, 136187, Note_on_c, 0, 66, 0
2, 136212, Note_on_c, 0, 65, 85
2, 136268, Note_on_c, 0, 65, 0
2, 136326, Note_on_c, 0, 66, 88
2, 136372, Note_on_c, 0, 66, 0
2, 136442, Note_on_c, 0, 56, 80
2, 136446, Note_on_c, 0, 58, 0
2, 136540, Note_on_c, 0, 75, 86
2, 136546, Note_on_c, 0, 56, 0
2, 136549, Note_on_c, 0, 54, 82
2, 136595, Note_on_c, 0, 75, 0
2, 136654, Note_on_c, 0, 58, 82
2, 136663, Note_on_c, 0, 54, 0
2, 136748, Note_on_c, 0, 58, 0
2, 136755, Note_on_c, 0, 65, 74
2, 136757, Note_on_c, 0, 56, 81
2, 136784, Note_on_c, 0, 67, 46
2, 136797, Note_on_c, 0, 65, 0
2, 136799, Note_on_c, 0, 67, 0
2, 136850, Note_on_c, 0, 54, 76
2, 136858, Note_on_c, 0, 56, 0
2, 136952, Note_on_c, 0, 54, 0
2, 136959, Note_on_c, 0, 53, 81
2, 136969, Note_on_c, 0, 73, 90
2, 137019, Note_on_c, 0, 73, 0
2, 137048, Note_on_c, 0, 53, 0
2, 137078, Note_on_c, 0, 56, 77
2, 137162, Note_on_c, 0, 56, 0
2, 137187, Note_on_c, 0, 63, 86
2, 137190, Note_on_c, 0, 54, 72
2, 137231, Note_on_c, 0, 63, 0
2, 137282, Note_on_c, 0, 53, 67
2, 137304, Note_on_c, 0, 54, 0
2, 137369, Note_on_c, 0, 53, 0
2, 137387, Note_on_c, 0, 51, 64
2, 137406, Note_on_c, 0, 72, 81
2, 137451, Note_on_c, 0, 72, 0
2, 137481, Note_on_c, 0, 51, 0
2, 137495, Note_on_c, 0, 54, 73
2, 137555, Note_on_c, 0, 54, 0
2, 137625, Note_on_c, 0, 53, 64
2, 137626, Note_on_c, 0, 61, 73
2, 137663, Note_on_c, 0, 61, 0
2, 137867, Note_on_c, 0, 73, 72
2, 137946, Note_on_c, 0, 73, 0
2, 137973, Note_on_c, 0, 72, 66
2, 137980, Note_on_c, 0, 56, 71
2, 137989, Note_on_c, 0, 53, 0
2, 138036, Note_on_c, 0, 72, 0
2, 138073, Note_on_c, 0, 73, 72
2, 138076, Note_on_c, 0, 58, 81
2, 138112, Note_on_c, 0, 56, 0
2, 138171, Note_on_c, 0, 58, 0
2, 138174, Note_on_c, 0, 60, 79
2, 138176, Note_on_c, 0, 73, 0
2, 138182, Note_on_c, 0, 75, 73
2, 138269, Note_on_c, 0, 75, 0
2, 138272, Note_on_c, 0, 61, 87
2, 138289, Note_on_c, 0, 77, 79
2, 138314, Note_on_c, 0, 60, 0
2, 138353, Note_on_c, 0, 77, 0
2, 138381, Note_on_c, 0, 78, 79
2, 138389, Note_on_c, 0, 63, 80
2, 138486, Note_on_c, 0, 80, 82
2, 138487, Note_on_c, 0, 65, 85
2, 138497, Note_on_c, 0, 63, 0
2, 138503, Note_on_c, 0, 78, 0
2, 138550, Note_on_c, 0, 61, 0
2, 138589, Note_on_c, 0, 63, 96
2, 138595, Note_on_c, 0, 78, 84
2, 138604, Note_on_c, 0, 65, 0
2, 138609, Note_on_c, 0, 80, 0
2, 138696, Note_on_c, 0, 77, 82
2, 138699, Note_on_c, 0, 61, 90
2, 138702, Note_on_c, 0, 63, 0
2, 138702, Note_on_c, 0, 78, 0
2, 138761, Note_on_c, 0, 77, 0
2, 138790, Note_on_c, 0, 78, 85
2, 138795, Note_on_c, 0, 63, 90
2, 138850, Note_on_c, 0, 61, 0
2, 138910, Note_on_c, 0, 80, 80
2, 138917, Note_on_c, 0, 60, 89
2, 138918, Note_on_c, 0, 72, 90
2, 138929, Note_on_c, 0, 78, 0
2, 138946, Note_on_c, 0, 63, 0
2, 138953, Note_on_c, 0, 72, 0
2, 139015, Note_on_c, 0, 80, 0
2, 139020, Note_on_c, 0, 78, 83
2, 139130, Note_on_c, 0, 78, 0
2, 139137, Note_on_c, 0, 77, 77
2, 139148, Note_on_c, 0, 68, 94
2, 139195, Note_on_c, 0, 68, 0
2, 139212, Note_on_c, 0, 77, 0
2, 139248, Note_on_c, 0, 75, 73
2, 139360, Note_on_c, 0, 75, 0
2, 139368, Note_on_c, 0, 77, 78
2, 139377, Note_on_c, 0, 63, 87
2, 139622, Note_on_c, 0, 60, 0
2, 139622, Note_on_c, 0, 61, 87
2, 139637, Note_on_c, 0, 63, 0
2, 139719, Note_on_c, 0, 60, 83
2, 139719, Note_on_c, 0, 61, 0
2, 139813, Note_on_c, 0, 61, 86
2, 139842, Note_on_c, 0, 60, 0
2, 139848, Note_on_c, 0, 58, 75
2, 139876, Note_on_c, 0, 61, 0
2, 139934, Note_on_c, 0, 75, 75
2, 140046, Note_on_c, 0, 70, 87
2, 140046, Note_on_c, 0, 73, 86
2, 140071, Note_on_c, 0, 77, 0
2, 140099, Note_on_c, 0, 70, 0
2, 140166, Note_on_c, 0, 77, 84
2, 140173, Note_on_c, 0, 75, 0
2, 140176, Note_on_c, 0, 73, 0
2, 140264, Note_on_c, 0, 58, 0
2, 140267, Note_on_c, 0, 60, 79
2, 140275, Note_on_c, 0, 75, 87
2, 140321, Note_on_c, 0, 77, 0
2, 140334, Note_on_c, 0, 60, 0
2, 140379, Note_on_c, 0, 73, 86
2, 140381, Note_on_c, 0, 75, 0
2, 140480, Note_on_c, 0, 72, 81
2, 140482, Note_on_c, 0, 68, 75
2, 140485, Note_on_c, 0, 56, 71
2, 140499, Note_on_c, 0, 73, 0
2, 140517, Note_on_c, 0, 68, 0
2, 140579, Note_on_c, 0, 75, 82
2, 140582, Note_on_c, 0, 72, 0
2, 140658, Note_on_c, 0, 56, 0
2, 140689, Note_on_c, 0, 58, 64
2, 140693, Note_on_c, 0, 73, 84
2, 140767, Note_on_c, 0, 75, 0
2, 140798, Note_on_c, 0, 72, 73
2, 140813, Note_on_c, 0, 73, 0
2, 140865, Note_on_c, 0, 58, 0
2, 140917, Note_on_c, 0, 67, 71
2, 140918, Note_on_c, 0, 72, 0
2, 140936, Note_on_c, 0, 73, 71
2, 140938, Note_on_c, 0, 51, 56
2, 140980, Note_on_c, 0, 67, 0
2, 141036, Note_on_c, 0, 70, 72
2, 141051, Note_on_c, 0, 73, 0
2, 141153, Note_on_c, 0, 72, 68
2, 141154, Note_on_c, 0, 70, 0
2, 141166, Note_on_c, 0, 56, 62
2, 141177, Note_on_c, 0, 51, 0
2, 141181, Note_on_c, 0, 72, 0
2, 141338, Note_on_c, 0, 56, 0
2, 141376, Note_on_c, 0, 68, 75
2, 141377, Note_on_c, 0, 75, 75
2, 141417, Note_on_c, 0, 75, 0
2, 141444, Note_on_c, 0, 68, 0
2, 141477, Note_on_c, 0, 67, 62
2, 141580, Note_on_c, 0, 67, 0
2, 141584, Note_on_c, 0, 68, 71
2, 141600, Note_on_c, 0, 78, 78
2, 141611, Note_on_c, 0, 68, 0
2, 141707, Note_on_c, 0, 70, 76
2, 141815, Note_on_c, 0, 72, 77
2, 141832, Note_on_c, 0, 56, 89
2, 141846, Note_on_c, 0, 70, 0
2, 141881, Note_on_c, 0, 56, 0
2, 141914, Note_on_c, 0, 68, 74
2, 141925, Note_on_c, 0, 72, 0
2, 142022, Note_on_c, 0, 68, 0
2, 142044, Note_on_c, 0, 58, 92
2, 142059, Note_on_c, 0, 73, 84
2, 142147, Note_on_c, 0, 56, 87
2, 142154, Note_on_c, 0, 72, 80
2, 142170, Note_on_c, 0, 58, 0
2, 142191, Note_on_c, 0, 73, 0
2, 142251, Note_on_c, 0, 54, 88
2, 142252, Note_on_c, 0, 56, 0
2, 142270, Note_on_c, 0, 70, 82
2, 142288, Note_on_c, 0, 72, 0
2, 142328, Note_on_c, 0, 78, 0
2, 142345, Note_on_c, 0, 56, 85
2, 142349, Note_on_c, 0, 70, 0
2, 142368, Note_on_c, 0, 72, 77
2, 142389, Note_on_c, 0, 54, 0
2, 142437, Note_on_c, 0, 56, 0
2, 142473, Note_on_c, 0, 77, 84
2, 142476, Note_on_c, 0, 65, 90
2, 142480, Note_on_c, 0, 73, 80
2, 142494, Note_on_c, 0, 72, 0
2, 142517, Note_on_c, 0, 65, 0
2, 142572, Note_on_c, 0, 72, 75
2, 142602, Note_on_c, 0, 73, 0
2, 142692, Note_on_c, 0, 72, 0
2, 142707, Note_on_c, 0, 70, 73
2, 142708, Note_on_c, 0, 61, 89
2, 142755, Note_on_c, 0, 61, 0
2, 142801, Note_on_c, 0, 68, 73
2, 142811, Note_on_c, 0, 70, 0
2, 142913, Note_on_c, 0, 68, 0
2, 142951, Note_on_c, 0, 56, 91
2, 142953, Note_on_c, 0, 70, 75
2, 143182, Note_on_c, 0, 54, 85
2, 143182, Note_on_c, 0, 56, 0
2, 143208, Note_on_c, 0, 77, 0
2, 143291, Note_on_c, 0, 54, 0
2, 143296, Note_on_c, 0, 53, 69
2, 143388, Note_on_c, 0, 54, 87
2, 143398, Note_on_c, 0, 53, 0
2, 143424, Note_on_c, 0, 75, 90
2, 143437, Note_on_c, 0, 70, 0
2, 143440, Note_on_c, 0, 54, 0
2, 143520, Note_on_c, 0, 68, 69
2, 143596, Note_on_c, 0, 68, 0
2, 143631, Note_on_c, 0, 63, 82
2, 143633, Note_on_c, 0, 66, 79
2, 143661, Note_on_c, 0, 63, 0
2, 143749, Note_on_c, 0, 70, 73
2, 143774, Note_on_c, 0, 66, 0
2, 143852, Note_on_c, 0, 53, 83
2, 143876, Note_on_c, 0, 68, 69
2, 143877, Note_on_c, 0, 66, 80
2, 143891, Note_on_c, 0, 70, 0
2, 143907, Note_on_c, 0, 53, 0
2, 143910, Note_on_c, 0, 75, 0
2, 143917, Note_on_c, 0, 68, 0
2, 144013, Note_on_c, 0, 68, 82
2, 144051, Note_on_c, 0, 66, 0
2, 144059, Note_on_c, 0, 61, 75
2, 144100, Note_on_c, 0, 61, 0
2, 144130, Note_on_c, 0, 65, 72
2, 144175, Note_on_c, 0, 68, 0
2, 144259, Note_on_c, 0, 65, 0
2, 144276, Note_on_c, 0, 51, 78
2, 144299, Note_on_c, 0, 73, 82
2, 144351, Note_on_c, 0, 51, 0
2, 144419, Note_on_c, 0, 66, 40
2, 144419, Note_on_c, 0, 73, 0
2, 144509, Note_on_c, 0, 72, 78
2, 144526, Note_on_c, 0, 60, 71
2, 144532, Note_on_c, 0, 66, 0
2, 144552, Note_on_c, 0, 60, 0
2, 144566, Note_on_c, 0, 65, 45
2, 144658, Note_on_c, 0, 65, 0
2, 144685, Note_on_c, 0, 72, 0
2, 144755, Note_on_c, 0, 49, 79
2, 144774, Note_on_c, 0, 65, 80
2, 144869, Note_on_c, 0, 44, 74
2, 144872, Note_on_c, 0, 49, 0
2, 144977, Note_on_c, 0, 68, 83
2, 144979, Note_on_c, 0, 49, 74
2, 145011, Note_on_c, 0, 44, 0
2, 145070, Note_on_c, 0, 51, 75
2, 145097, Note_on_c, 0, 49, 0
2, 145178, Note_on_c, 0, 51, 0
2, 145187, Note_on_c, 0, 73, 89
2, 145195, Note_on_c, 0, 53, 69
2, 145208, Note_on_c, 0, 68, 0
2, 145287, Note_on_c, 0, 53, 0
2, 145296, Note_on_c, 0, 54, 64
2, 145397, Note_on_c, 0, 56, 66
2, 145400, Note_on_c, 0, 54, 0
2, 145411, Note_on_c, 0, 71, 88
2, 145437, Note_on_c, 0, 73, 0
2, 145499, Note_on_c, 0, 56, 0
2, 145512, Note_on_c, 0, 53, 68
2, 145587, Note_on_c, 0, 53, 0
2, 145587, Note_on_c, 0, 65, 0
2, 145624, Note_on_c, 0, 54, 71
2, 145631, Note_on_c, 0, 70, 80
2, 145709, Note_on_c, 0, 54, 0
2, 145736, Note_on_c, 0, 42, 73
2, 145830, Note_on_c, 0, 42, 0
2, 145849, Note_on_c, 0, 61, 84
2, 145850, Note_on_c, 0, 54, 76
2, 145929, Note_on_c, 0, 54, 0
2, 145951, Note_on_c, 0, 53, 64
2, 146040, Note_on_c, 0, 53, 0
2, 146042, Note_on_c, 0, 61, 0
2, 146061, Note_on_c, 0, 54, 74
2, 146076, Note_on_c, 0, 66, 80
2, 146126, Note_on_c, 0, 71, 0
2, 146128, Note_on_c, 0, 54, 0
2, 146134, Note_on_c, 0, 70, 0
2, 146169, Note_on_c, 0, 56, 65
2, 146256, Note_on_c, 0, 56, 0
2, 146275, Note_on_c, 0, 58, 62
2, 146287, Note_on_c, 0, 65, 64
2, 146316, Note_on_c, 0, 66, 0
2, 146367, Note_on_c, 0, 58, 0
2, 146388, Note_on_c, 0, 54, 66
2, 146485, Note_on_c, 0, 54, 0
2, 146491, Note_on_c, 0, 65, 0
2, 146498, Note_on_c, 0, 66, 81
2, 146507, Note_on_c, 0, 51, 61
2, 146594, Note_on_c, 0, 51, 0
2, 146598, Note_on_c, 0, 53, 68
2, 146679, Note_on_c, 0, 53, 0
2, 146715, Note_on_c, 0, 54, 76
2, 146729, Note_on_c, 0, 70, 88
2, 146739, Note_on_c, 0, 66, 0
2, 146791, Note_on_c, 0, 54, 0
2, 146818, Note_on_c, 0, 51, 72
2, 146830, Note_on_c, 0, 66, 83
2, 146837, Note_on_c, 0, 70, 0
2, 146909, Note_on_c, 0, 51, 0
2, 146912, Note_on_c, 0, 66, 0
2, 146929, Note_on_c, 0, 48, 67
2, 146931, Note_on_c, 0, 63, 76
2, 147027, Note_on_c, 0, 48, 0
2, 147030, Note_on_c, 0, 49, 71
2, 147115, Note_on_c, 0, 49, 0
2, 147137, Note_on_c, 0, 51, 72
2, 147154, Note_on_c, 0, 66, 71
2, 147158, Note_on_c, 0, 63, 0
2, 147212, Note_on_c, 0, 51, 0
2, 147227, Note_on_c, 0, 66, 0
2, 147249, Note_on_c, 0, 48, 61
2, 147255, Note_on_c, 0, 63, 68
2, 147333, Note_on_c, 0, 63, 0
2, 147378, Note_on_c, 0, 41, 64
2, 147379, Note_on_c, 0, 48, 0
2, 147381, Note_on_c, 0, 56, 64
2, 147416, Note_on_c, 0, 41, 0
2, 147604, Note_on_c, 0, 56, 0
2, 147604, Note_on_c, 0, 56, 3
2, 147605, Note_on_c, 0, 63, 87
2, 147617, Note_on_c, 0, 53, 68
2, 147660, Note_on_c, 0, 63, 0
2, 147663, Note_on_c, 0, 53, 0
2, 147699, Note_on_c, 0, 51, 73
2, 147775, Note_on_c, 0, 56, 0
2, 147824, Note_on_c, 0, 51, 0
2, 147832, Note_on_c, 0, 68, 89
2, 147834, Note_on_c, 0, 53, 74
2, 147929, Note_on_c, 0, 53, 0
2, 147951, Note_on_c, 0, 54, 68
2, 148059, Note_on_c, 0, 56, 68
2, 148063, Note_on_c, 0, 54, 0
2, 148074, Note_on_c, 0, 60, 82
2, 148106, Note_on_c, 0, 60, 0
2, 148117, Note_on_c, 0, 56, 0
2, 148168, Note_on_c, 0, 53, 58
2, 148279, Note_on_c, 0, 50, 67
2, 148287, Note_on_c, 0, 65, 73
2, 148290, Note_on_c, 0, 53, 0
2, 148317, Note_on_c, 0, 68, 0
2, 148404, Note_on_c, 0, 50, 0
2, 148406, Note_on_c, 0, 51, 75
2, 148509, Note_on_c, 0, 51, 0
2, 148521, Note_on_c, 0, 53, 71
2, 148531, Note_on_c, 0, 68, 89
2, 148542, Note_on_c, 0, 65, 0
2, 148631, Note_on_c, 0, 53, 0
2, 148632, Note_on_c, 0, 68, 0
2, 148636, Note_on_c, 0, 50, 73
2, 148637, Note_on_c, 0, 65, 71
2, 148747, Note_on_c, 0, 50, 0
2, 148755, Note_on_c, 0, 62, 79
2, 148760, Note_on_c, 0, 46, 64
2, 148765, Note_on_c, 0, 65, 0
2, 148844, Note_on_c, 0, 46, 0
2, 148851, Note_on_c, 0, 48, 65
2, 148928, Note_on_c, 0, 48, 0
2, 148964, Note_on_c, 0, 50, 70
2, 148975, Note_on_c, 0, 62, 0
2, 148980, Note_on_c, 0, 65, 73
2, 149033, Note_on_c, 0, 50, 0
2, 149049, Note_on_c, 0, 46, 69
2, 149054, Note_on_c, 0, 65, 0
2, 149065, Note_on_c, 0, 62, 75
2, 149140, Note_on_c, 0, 62, 0
2, 149154, Note_on_c, 0, 46, 0
2, 149192, Note_on_c, 0, 54, 67
2, 149193, Note_on_c, 0, 39, 63
2, 149231, Note_on_c, 0, 39, 0
2, 149430, Note_on_c, 0, 58, 86
2, 149431, Note_on_c, 0, 51, 72
2, 149475, Note_on_c, 0, 58, 0
2, 149527, Note_on_c, 0, 51, 0
2, 149531, Note_on_c, 0, 50, 66
2, 149589, Note_on_c, 0, 54, 0
2, 149641, Note_on_c, 0, 51, 72
2, 149647, Note_on_c, 0, 66, 86
2, 149649, Note_on_c, 0, 50, 0
2, 149736, Note_on_c, 0, 51, 0
2, 149751, Note_on_c, 0, 54, 53
2, 149771, Note_on_c, 0, 53, 69
2, 149790, Note_on_c, 0, 54, 0
2, 149855, Note_on_c, 0, 53, 0
2, 149870, Note_on_c, 0, 58, 77
2, 149879, Note_on_c, 0, 54, 71
2, 149902, Note_on_c, 0, 58, 0
2, 149955, Note_on_c, 0, 54, 0
2, 149961, Note_on_c, 0, 51, 67
2, 150063, Note_on_c, 0, 51, 0
2, 150080, Note_on_c, 0, 48, 71
2, 150086, Note_on_c, 0, 63, 79
2, 150138, Note_on_c, 0, 66, 0
2, 150188, Note_on_c, 0, 49, 76
2, 150195, Note_on_c, 0, 65, 82
2, 150204, Note_on_c, 0, 48, 0
2, 150249, Note_on_c, 0, 63, 0
2, 150274, Note_on_c, 0, 49, 0
2, 150289, Note_on_c, 0, 51, 84
2, 150307, Note_on_c, 0, 66, 87
2, 150326, Note_on_c, 0, 65, 0
2, 150373, Note_on_c, 0, 66, 0
2, 150387, Note_on_c, 0, 51, 0
2, 150395, Note_on_c, 0, 48, 72
2, 150396, Note_on_c, 0, 63, 82
2, 150486, Note_on_c, 0, 63, 0
2, 150498, Note_on_c, 0, 48, 0
2, 150503, Note_on_c, 0, 44, 79
2, 150509, Note_on_c, 0, 75, 87
2, 150604, Note_on_c, 0, 66, 76
2, 150610, Note_on_c, 0, 46, 75
2, 150655, Note_on_c, 0, 44, 0
2, 150703, Note_on_c, 0, 46, 0
2, 150709, Note_on_c, 0, 48, 80
2, 150718, Note_on_c, 0, 68, 79
2, 150751, Note_on_c, 0, 66, 0
2, 150802, Note_on_c, 0, 48, 0
2, 150806, Note_on_c, 0, 44, 74
2, 150817, Note_on_c, 0, 63, 80
2, 150839, Note_on_c, 0, 68, 0
2, 150867, Note_on_c, 0, 63, 0
2, 150933, Note_on_c, 0, 37, 85
2, 150939, Note_on_c, 0, 44, 0
2, 150940, Note_on_c, 0, 75, 0
2, 150942, Note_on_c, 0, 65, 82
2, 150962, Note_on_c, 0, 37, 0
2, 151051, Note_on_c, 0, 73, 83
2, 151145, Note_on_c, 0, 65, 0
2, 151152, Note_on_c, 0, 72, 84
2, 151165, Note_on_c, 0, 49, 89
2, 151185, Note_on_c, 0, 73, 0
2, 151250, Note_on_c, 0, 75, 86
2, 151263, Note_on_c, 0, 51, 85
2, 151273, Note_on_c, 0, 72, 0
2, 151279, Note_on_c, 0, 49, 0
2, 151371, Note_on_c, 0, 53, 91
2, 151372, Note_on_c, 0, 73, 88
2, 151391, Note_on_c, 0, 51, 0
2, 151411, Note_on_c, 0, 75, 0
2, 151415, Note_on_c, 0, 53, 0
2, 151475, Note_on_c, 0, 68, 82
2, 151484, Note_on_c, 0, 73, 0
2, 151594, Note_on_c, 0, 61, 94
2, 151597, Note_on_c, 0, 49, 81
2, 151606, Note_on_c, 0, 70, 84
2, 151634, Note_on_c, 0, 49, 0
2, 151644, Note_on_c, 0, 68, 0
2, 151713, Note_on_c, 0, 71, 82
2, 151737, Note_on_c, 0, 70, 0
2, 151833, Note_on_c, 0, 54, 84
2, 151836, Note_on_c, 0, 70, 91
2, 151866, Note_on_c, 0, 71, 0
2, 151932, Note_on_c, 0, 70, 0
2, 151935, Note_on_c, 0, 68, 93
2, 151937, Note_on_c, 0, 60, 86
2, 151985, Note_on_c, 0, 61, 0
2, 152031, Note_on_c, 0, 68, 0
2, 152034, Note_on_c, 0, 54, 0
2, 152034, Note_on_c, 0, 58, 87
2, 152037, Note_on_c, 0, 66, 92
2, 152056, Note_on_c, 0, 60, 0
2, 152129, Note_on_c, 0, 68, 91
2, 152130, Note_on_c, 0, 60, 85
2, 152134, Note_on_c, 0, 66, 0
2, 152154, Note_on_c, 0, 58, 0
2, 152206, Note_on_c, 0, 68, 0
2, 152249, Note_on_c, 0, 60, 0
2, 152249, Note_on_c, 0, 77, 91
2, 152251, Note_on_c, 0, 61, 94
2, 152259, Note_on_c, 0, 53, 77
2, 152296, Note_on_c, 0, 77, 0
2, 152353, Note_on_c, 0, 61, 0
2, 152356, Note_on_c, 0, 60, 78
2, 152411, Note_on_c, 0, 73, 33
2, 152431, Note_on_c, 0, 73, 0
2, 152487, Note_on_c, 0, 73, 97
2, 152490, Note_on_c, 0, 58, 83
2, 152505, Note_on_c, 0, 53, 0
2, 152505, Note_on_c, 0, 60, 0
2, 152534, Note_on_c, 0, 73, 0
2, 152593, Note_on_c, 0, 58, 0
2, 152603, Note_on_c, 0, 56, 71
2, 152704, Note_on_c, 0, 56, 0
2, 152722, Note_on_c, 0, 68, 96
2, 152728, Note_on_c, 0, 51, 78
2, 152728, Note_on_c, 0, 58, 74
2, 152769, Note_on_c, 0, 51, 0
2, 152849, Note_on_c, 0, 58, 0
2, 152849, Note_on_c, 0, 58, 6
2, 152940, Note_on_c, 0, 68, 0
2, 152946, Note_on_c, 0, 66, 89
2, 152957, Note_on_c, 0, 49, 68
2, 152988, Note_on_c, 0, 49, 0
2, 153019, Note_on_c, 0, 66, 0
2, 153045, Note_on_c, 0, 65, 83
2, 153127, Note_on_c, 0, 65, 0
2, 153154, Note_on_c, 0, 66, 90
2, 153162, Note_on_c, 0, 48, 75
2, 153201, Note_on_c, 0, 66, 0
2, 153269, Note_on_c, 0, 56, 84
2, 153282, Note_on_c, 0, 58, 0
2, 153383, Note_on_c, 0, 54, 78
2, 153395, Note_on_c, 0, 75, 90
2, 153421, Note_on_c, 0, 56, 0
2, 153442, Note_on_c, 0, 48, 0
2, 153451, Note_on_c, 0, 75, 0
2, 153483, Note_on_c, 0, 58, 77
2, 153529, Note_on_c, 0, 54, 0
2, 153601, Note_on_c, 0, 65, 86
2, 153609, Note_on_c, 0, 56, 78
2, 153610, Note_on_c, 0, 49, 66
2, 153616, Note_on_c, 0, 58, 0
2, 153661, Note_on_c, 0, 65, 0
2, 153702, Note_on_c, 0, 54, 75
2, 153729, Note_on_c, 0, 49, 0
2, 153729, Note_on_c, 0, 56, 0
2, 153823, Note_on_c, 0, 54, 0
2, 153823, Note_on_c, 0, 73, 94
2, 153827, Note_on_c, 0, 53, 73
2, 153875, Note_on_c, 0, 73, 0
2, 153918, Note_on_c, 0, 53, 0
2, 153923, Note_on_c, 0, 56, 82
2, 153981, Note_on_c, 0, 56, 0
2, 154039, Note_on_c, 0, 54, 80
2, 154043, Note_on_c, 0, 63, 85
2, 154052, Note_on_c, 0, 44, 64
2, 154090, Note_on_c, 0, 63, 0
2, 154140, Note_on_c, 0, 54, 0
2, 154142, Note_on_c, 0, 53, 74
2, 154251, Note_on_c, 0, 53, 0
2, 154260, Note_on_c, 0, 51, 70
2, 154263, Note_on_c, 0, 72, 79
2, 154293, Note_on_c, 0, 44, 0
2, 154309, Note_on_c, 0, 72, 0
2, 154378, Note_on_c, 0, 54, 64
2, 154388, Note_on_c, 0, 51, 0
2, 154471, Note_on_c, 0, 54, 0
2, 154496, Note_on_c, 0, 46, 56
2, 154499, Note_on_c, 0, 61, 73
2, 154508, Note_on_c, 0, 53, 62
2, 154551, Note_on_c, 0, 61, 0
2, 154593, Note_on_c, 0, 46, 0
2, 154593, Note_on_c, 0, 65, 67
2, 154612, Note_on_c, 0, 53, 0
2, 154618, Note_on_c, 0, 56, 71
2, 154689, Note_on_c, 0, 56, 0
2, 154705, Note_on_c, 0, 66, 69
2, 154707, Note_on_c, 0, 58, 63
2, 154714, Note_on_c, 0, 65, 0
2, 154774, Note_on_c, 0, 58, 0
2, 154801, Note_on_c, 0, 66, 0
2, 154809, Note_on_c, 0, 68, 73
2, 154819, Note_on_c, 0, 60, 73
2, 154914, Note_on_c, 0, 70, 73
2, 154915, Note_on_c, 0, 61, 79
2, 154917, Note_on_c, 0, 60, 0
2, 154945, Note_on_c, 0, 68, 0
2, 154973, Note_on_c, 0, 70, 0
2, 155017, Note_on_c, 0, 60, 79
2, 155020, Note_on_c, 0, 72, 79
2, 155073, Note_on_c, 0, 61, 0
2, 155110, Note_on_c, 0, 58, 75
2, 155110, Note_on_c, 0, 60, 0
2, 155119, Note_on_c, 0, 73, 86
2, 155129, Note_on_c, 0, 72, 0
2, 155214, Note_on_c, 0, 75, 91
2, 155225, Note_on_c, 0, 56, 77
2, 155232, Note_on_c, 0, 58, 0
2, 155243, Note_on_c, 0, 73, 0
2, 155272, Note_on_c, 0, 56, 0
2, 155322, Note_on_c, 0, 55, 82
2, 155329, Note_on_c, 0, 76, 89
2, 155343, Note_on_c, 0, 75, 0
2, 155421, Note_on_c, 0, 56, 82
2, 155429, Note_on_c, 0, 55, 0
2, 155429, Note_on_c, 0, 75, 89
2, 155467, Note_on_c, 0, 76, 0
2, 155527, Note_on_c, 0, 56, 0
2, 155530, Note_on_c, 0, 73, 86
2, 155533, Note_on_c, 0, 58, 85
2, 155559, Note_on_c, 0, 75, 0
2, 155605, Note_on_c, 0, 58, 0
2, 155636, Note_on_c, 0, 55, 83
2, 155643, Note_on_c, 0, 75, 90
2, 155654, Note_on_c, 0, 56, 20
2, 155655, Note_on_c, 0, 56, 0
2, 155683, Note_on_c, 0, 55, 0
2, 155688, Note_on_c, 0, 73, 0
2, 155734, Note_on_c, 0, 75, 0
2, 155750, Note_on_c, 0, 51, 89
2, 155752, Note_on_c, 0, 76, 90
2, 155848, Note_on_c, 0, 49, 73
2, 155854, Note_on_c, 0, 79, 88
2, 155893, Note_on_c, 0, 76, 0
2, 155963, Note_on_c, 0, 48, 78
2, 155963, Note_on_c, 0, 80, 78
2, 155993, Note_on_c, 0, 49, 0
2, 156015, Note_on_c, 0, 79, 0
2, 156034, Note_on_c, 0, 46, 67
2, 156048, Note_on_c, 0, 48, 0
2, 156063, Note_on_c, 0, 82, 91
2, 156092, Note_on_c, 0, 83, 71
2, 156111, Note_on_c, 0, 80, 0
2, 156131, Note_on_c, 0, 51, 0
2, 156159, Note_on_c, 0, 83, 0
2, 156162, Note_on_c, 0, 44, 82
2, 156173, Note_on_c, 0, 73, 95
2, 156175, Note_on_c, 0, 46, 0
2, 156191, Note_on_c, 0, 82, 0
2, 156265, Note_on_c, 0, 51, 76
2, 156276, Note_on_c, 0, 72, 85
2, 156282, Note_on_c, 0, 73, 0
2, 156327, Note_on_c, 0, 44, 0
2, 156369, Note_on_c, 0, 53, 82
2, 156373, Note_on_c, 0, 51, 0
2, 156384, Note_on_c, 0, 70, 89
2, 156402, Note_on_c, 0, 72, 0
2, 156468, Note_on_c, 0, 54, 83
2, 156487, Note_on_c, 0, 68, 91
2, 156508, Note_on_c, 0, 53, 0
2, 156519, Note_on_c, 0, 70, 0
2, 156596, Note_on_c, 0, 56, 85
2, 156599, Note_on_c, 0, 75, 95
2, 156621, Note_on_c, 0, 68, 0
2, 156630, Note_on_c, 0, 54, 0
2, 156633, Note_on_c, 0, 70, 43
2, 156634, Note_on_c, 0, 70, 0
2, 156656, Note_on_c, 0, 75, 0
2, 156697, Note_on_c, 0, 58, 85
2, 156722, Note_on_c, 0, 56, 0
2, 156808, Note_on_c, 0, 58, 0
2, 156808, Note_on_c, 0, 60, 88
2, 156817, Note_on_c, 0, 66, 95
2, 156862, Note_on_c, 0, 66, 0
2, 156869, Note_on_c, 0, 68, 8
2, 156870, Note_on_c, 0, 68, 0
2, 156880, Note_on_c, 0, 60, 0
2, 156922, Note_on_c, 0, 56, 90
2, 156977, Note_on_c, 0, 56, 0
2, 157073, Note_on_c, 0, 61, 93
2, 157074, Note_on_c, 0, 65, 86
2, 157167, Note_on_c, 0, 65, 0
2, 157329, Note_on_c, 0, 41, 83
2, 157331, Note_on_c, 0, 68, 92
2, 157332, Note_on_c, 0, 73, 95
2, 157369, Note_on_c, 0, 66, 40
2, 157379, Note_on_c, 0, 61, 0
2, 157380, Note_on_c, 0, 70, 28
2, 157388, Note_on_c, 0, 41, 0
2, 157396, Note_on_c, 0, 66, 0
2, 157397, Note_on_c, 0, 70, 0
2, 157431, Note_on_c, 0, 73, 0
2, 157433, Note_on_c, 0, 68, 0
2, 157638, Note_on_c, 0, 63, 97
2, 157639, Note_on_c, 0, 42, 82
2, 157647, Note_on_c, 0, 70, 86
2, 157658, Note_on_c, 0, 66, 65
2, 157689, Note_on_c, 0, 42, 0
2, 157750, Note_on_c, 0, 66, 0
2, 157765, Note_on_c, 0, 70, 0
2, 157985, Note_on_c, 0, 72, 86
2, 157987, Note_on_c, 0, 66, 70
2, 157989, Note_on_c, 0, 68, 57
2, 157991, Note_on_c, 0, 44, 77
2, 158017, Note_on_c, 0, 68, 0
2, 158034, Note_on_c, 0, 66, 0
2, 158055, Note_on_c, 0, 44, 0
2, 158149, Note_on_c, 0, 72, 0
2, 158180, Note_on_c, 0, 63, 0
2, 158453, Note_on_c, 0, 73, 95
2, 158459, Note_on_c, 0, 37, 65
2, 158461, Note_on_c, 0, 61, 82
2, 158461, Note_on_c, 0, 65, 79
2, 158462, Note_on_c, 0, 68, 68
2, 159151, Control_c, 0, 64, 20
2, 159157, Control_c, 0, 64, 28
2, 159170, Control_c, 0, 64, 35
2, 159186, Control_c, 0, 64, 39
2, 159200, Control_c, 0, 64, 42
2, 159216, Control_c, 0, 64, 45
2, 159231, Control_c, 0, 64, 48
2, 159247, Control_c, 0, 64, 51
2, 159263, Control_c, 0, 64, 53
2, 159277, Control_c, 0, 64, 55
2, 159293, Control_c, 0, 64, 57
2, 159308, Control_c, 0, 64, 59
2, 159323, Control_c, 0, 64, 61
2, 159339, Control_c, 0, 64, 62
2, 159361, Control_c, 0, 64, 64
2, 159377, Control_c, 0, 64, 65
2, 159391, Control_c, 0, 64, 67
2, 159402, Control_c, 0, 64, 68
2, 159417, Control_c, 0, 64, 70
2, 159433, Control_c, 0, 64, 71
2, 159447, Control_c, 0, 64, 72
2, 159462, Control_c, 0, 64, 72
2, 159691, Control_c, 0, 64, 72
2, 159722, Control_c, 0, 64, 71
2, 159736, Control_c, 0, 64, 71
2, 159767, Control_c, 0, 64, 70
2, 159797, Control_c, 0, 64, 70
2, 159828, Control_c, 0, 64, 69
2, 159843, Control_c, 0, 64, 69
2, 159873, Control_c, 0, 64, 68
2, 159888, Control_c, 0, 64, 68
2, 159903, Control_c, 0, 64, 67
2, 159919, Control_c, 0, 64, 67
2, 159933, Control_c, 0, 64, 66
2, 159949, Control_c, 0, 64, 66
2, 159964, Control_c, 0, 64, 65
2, 159979, Control_c, 0, 64, 65
2, 159995, Control_c, 0, 64, 64
2, 160009, Control_c, 0, 64, 63
2, 160024, Control_c, 0, 64, 62
2, 160040, Control_c, 0, 64, 61
2, 160056, Control_c, 0, 64, 59
2, 160072, Control_c, 0, 64, 57
2, 160086, Control_c, 0, 64, 55
2, 160094, Note_on_c, 0, 73, 0
2, 160101, Control_c, 0, 64, 52
2, 160123, Note_on_c, 0, 61, 0
2, 160125, Control_c, 0, 64, 49
2, 160140, Control_c, 0, 64, 45
2, 160149, Note_on_c, 0, 65, 0
2, 160156, Control_c, 0, 64, 41
2, 160156, Note_on_c, 0, 68, 0
2, 160157, Note_on_c, 0, 37, 0
2, 160170, Control_c, 0, 64, 35
2, 160185, Control_c, 0, 64, 26
2, 160201, Control_c, 0, 64, 0
2, 160202, End_track
0, 0, End_of_file
