0, 0, Header, 1, 2, 384
1, 0, Start_track
1, 0, Tempo, 500000
1, 0, Time_signature, 4, 2, 24, 8
1, 1, End_track
2, 0, Start_track
2, 0, Title_t," ""Denisova06-10.MID"""
2, 0, Program_c, 0, 0
2, 790, Note_on_c, 0, 49, 53
2, 792, Note_on_c, 0, 77, 69
2, 867, Note_on_c, 0, 77, 0
2, 868, Note_on_c, 0, 73, 64
2, 904, Note_on_c, 0, 73, 0
2, 936, Note_on_c, 0, 68, 66
2, 954, Note_on_c, 0, 49, 0
2, 997, Note_on_c, 0, 68, 0
2, 1040, Note_on_c, 0, 73, 34
2, 1072, Note_on_c, 0, 73, 0
2, 1103, Note_on_c, 0, 61, 62
2, 1103, Note_on_c, 0, 77, 48
2, 1133, Note_on_c, 0, 61, 0
2, 1136, Note_on_c, 0, 77, 0
2, 1163, Note_on_c, 0, 73, 69
2, 1220, Note_on_c, 0, 73, 0
2, 1258, Note_on_c, 0, 78, 75
2, 1259, Note_on_c, 0, 51, 54
2, 1307, Note_on_c, 0, 78, 0
2, 1336, Note_on_c, 0, 73, 64
2, 1393, Note_on_c, 0, 73, 0
2, 1413, Note_on_c, 0, 78, 79
2, 1424, Note_on_c, 0, 51, 0
2, 1445, Note_on_c, 0, 78, 0
2, 1494, Note_on_c, 0, 73, 64
2, 1540, Note_on_c, 0, 73, 0
2, 1558, Note_on_c, 0, 78, 76
2, 1574, Note_on_c, 0, 61, 62
2, 1603, Note_on_c, 0, 78, 0
2, 1606, Note_on_c, 0, 61, 0
2, 1638, Note_on_c, 0, 73, 68
2, 1699, Note_on_c, 0, 73, 0
2, 1723, Note_on_c, 0, 80, 78
2, 1727, Note_on_c, 0, 53, 64
2, 1777, Note_on_c, 0, 80, 0
2, 1813, Note_on_c, 0, 73, 65
2, 1864, Note_on_c, 0, 73, 0
2, 1886, Note_on_c, 0, 80, 78
2, 1913, Note_on_c, 0, 53, 0
2, 1933, Note_on_c, 0, 80, 0
2, 1970, Note_on_c, 0, 73, 67
2, 2021, Note_on_c, 0, 73, 0
2, 2037, Note_on_c, 0, 80, 83
2, 2042, Note_on_c, 0, 61, 57
2, 2077, Note_on_c, 0, 61, 0
2, 2090, Note_on_c, 0, 80, 0
2, 2113, Note_on_c, 0, 73, 64
2, 2171, Note_on_c, 0, 73, 0
2, 2198, Note_on_c, 0, 54, 62
2, 2199, Note_on_c, 0, 82, 78
2, 2245, Note_on_c, 0, 82, 0
2, 2277, Note_on_c, 0, 73, 64
2, 2340, Note_on_c, 0, 73, 0
2, 2349, Note_on_c, 0, 82, 79
2, 2390, Note_on_c, 0, 54, 0
2, 2394, Note_on_c, 0, 82, 0
2, 2432, Note_on_c, 0, 73, 63
2, 2494, Note_on_c, 0, 73, 0
2, 2503, Note_on_c, 0, 82, 73
2, 2531, Note_on_c, 0, 61, 59
2, 2552, Note_on_c, 0, 82, 0
2, 2567, Note_on_c, 0, 61, 0
2, 2585, Note_on_c, 0, 73, 59
2, 2655, Note_on_c, 0, 73, 0
2, 2676, Note_on_c, 0, 53, 60
2, 2679, Note_on_c, 0, 80, 72
2, 2721, Note_on_c, 0, 80, 0
2, 2749, Note_on_c, 0, 73, 61
2, 2815, Note_on_c, 0, 73, 0
2, 2835, Note_on_c, 0, 80, 72
2, 2866, Note_on_c, 0, 53, 0
2, 2875, Note_on_c, 0, 80, 0
2, 2909, Note_on_c, 0, 73, 60
2, 2959, Note_on_c, 0, 73, 0
2, 2978, Note_on_c, 0, 61, 62
2, 2981, Note_on_c, 0, 80, 68
2, 3014, Note_on_c, 0, 80, 0
2, 3023, Note_on_c, 0, 61, 0
2, 3039, Note_on_c, 0, 73, 58
2, 3094, Note_on_c, 0, 73, 0
2, 3127, Note_on_c, 0, 78, 70
2, 3137, Note_on_c, 0, 51, 63
2, 3194, Note_on_c, 0, 78, 0
2, 3203, Note_on_c, 0, 77, 74
2, 3260, Note_on_c, 0, 77, 0
2, 3277, Note_on_c, 0, 75, 72
2, 3300, Note_on_c, 0, 51, 0
2, 3344, Note_on_c, 0, 75, 0
2, 3350, Note_on_c, 0, 77, 70
2, 3436, Note_on_c, 0, 77, 0
2, 3436, Note_on_c, 0, 78, 71
2, 3445, Note_on_c, 0, 60, 65
2, 3470, Note_on_c, 0, 78, 0
2, 3494, Note_on_c, 0, 60, 0
2, 3507, Note_on_c, 0, 75, 69
2, 3534, Note_on_c, 0, 75, 0
2, 3592, Note_on_c, 0, 77, 69
2, 3599, Note_on_c, 0, 49, 68
2, 3669, Note_on_c, 0, 77, 0
2, 3675, Note_on_c, 0, 75, 73
2, 3732, Note_on_c, 0, 75, 0
2, 3741, Note_on_c, 0, 73, 72
2, 3750, Note_on_c, 0, 49, 0
2, 3809, Note_on_c, 0, 73, 0
2, 3811, Note_on_c, 0, 75, 64
2, 3884, Note_on_c, 0, 75, 0
2, 3895, Note_on_c, 0, 77, 70
2, 3906, Note_on_c, 0, 61, 71
2, 3947, Note_on_c, 0, 77, 0
2, 3972, Note_on_c, 0, 73, 77
2, 4066, Note_on_c, 0, 73, 0
2, 4066, Note_on_c, 0, 75, 72
2, 4085, Note_on_c, 0, 61, 0
2, 4128, Note_on_c, 0, 75, 0
2, 4137, Note_on_c, 0, 77, 69
2, 4203, Note_on_c, 0, 77, 0
2, 4215, Note_on_c, 0, 75, 69
2, 4224, Note_on_c, 0, 60, 61
2, 4282, Note_on_c, 0, 75, 0
2, 4286, Note_on_c, 0, 60, 0
2, 4287, Note_on_c, 0, 58, 69
2, 4289, Note_on_c, 0, 73, 73
2, 4346, Note_on_c, 0, 73, 0
2, 4349, Note_on_c, 0, 58, 0
2, 4362, Note_on_c, 0, 56, 64
2, 4367, Note_on_c, 0, 72, 69
2, 4419, Note_on_c, 0, 72, 0
2, 4442, Note_on_c, 0, 70, 73
2, 4449, Note_on_c, 0, 58, 62
2, 4454, Note_on_c, 0, 56, 0
2, 4491, Note_on_c, 0, 58, 0
2, 4527, Note_on_c, 0, 68, 75
2, 4533, Note_on_c, 0, 60, 63
2, 4533, Note_on_c, 0, 70, 0
2, 4569, Note_on_c, 0, 60, 0
2, 4604, Note_on_c, 0, 56, 67
2, 4659, Note_on_c, 0, 56, 0
2, 4677, Note_on_c, 0, 51, 66
2, 4697, Note_on_c, 0, 68, 0
2, 4752, Note_on_c, 0, 56, 64
2, 4781, Note_on_c, 0, 51, 0
2, 4815, Note_on_c, 0, 56, 0
2, 4848, Note_on_c, 0, 60, 64
2, 4854, Note_on_c, 0, 80, 60
2, 4878, Note_on_c, 0, 60, 0
2, 4923, Note_on_c, 0, 80, 0
2, 4925, Note_on_c, 0, 56, 64
2, 4995, Note_on_c, 0, 56, 0
2, 5025, Note_on_c, 0, 61, 69
2, 5025, Note_on_c, 0, 70, 75
2, 5068, Note_on_c, 0, 61, 0
2, 5108, Note_on_c, 0, 56, 64
2, 5150, Note_on_c, 0, 56, 0
2, 5181, Note_on_c, 0, 61, 66
2, 5218, Note_on_c, 0, 70, 0
2, 5244, Note_on_c, 0, 61, 0
2, 5261, Note_on_c, 0, 56, 68
2, 5312, Note_on_c, 0, 56, 0
2, 5346, Note_on_c, 0, 61, 67
2, 5347, Note_on_c, 0, 80, 69
2, 5406, Note_on_c, 0, 61, 0
2, 5406, Note_on_c, 0, 80, 0
2, 5423, Note_on_c, 0, 56, 70
2, 5481, Note_on_c, 0, 56, 0
2, 5516, Note_on_c, 0, 72, 76
2, 5520, Note_on_c, 0, 63, 69
2, 5566, Note_on_c, 0, 63, 0
2, 5595, Note_on_c, 0, 56, 70
2, 5648, Note_on_c, 0, 56, 0
2, 5691, Note_on_c, 0, 63, 65
2, 5695, Note_on_c, 0, 72, 0
2, 5735, Note_on_c, 0, 63, 0
2, 5754, Note_on_c, 0, 56, 70
2, 5819, Note_on_c, 0, 56, 0
2, 5839, Note_on_c, 0, 80, 74
2, 5842, Note_on_c, 0, 63, 71
2, 5885, Note_on_c, 0, 63, 0
2, 5898, Note_on_c, 0, 80, 0
2, 5903, Note_on_c, 0, 56, 65
2, 5981, Note_on_c, 0, 56, 0
2, 6013, Note_on_c, 0, 65, 72
2, 6013, Note_on_c, 0, 73, 79
2, 6056, Note_on_c, 0, 65, 0
2, 6087, Note_on_c, 0, 56, 72
2, 6150, Note_on_c, 0, 56, 0
2, 6173, Note_on_c, 0, 65, 71
2, 6208, Note_on_c, 0, 73, 0
2, 6223, Note_on_c, 0, 65, 0
2, 6258, Note_on_c, 0, 56, 70
2, 6320, Note_on_c, 0, 56, 0
2, 6328, Note_on_c, 0, 80, 71
2, 6341, Note_on_c, 0, 65, 65
2, 6383, Note_on_c, 0, 65, 0
2, 6388, Note_on_c, 0, 80, 0
2, 6428, Note_on_c, 0, 56, 64
2, 6484, Note_on_c, 0, 56, 0
2, 6515, Note_on_c, 0, 63, 70
2, 6515, Note_on_c, 0, 72, 71
2, 6571, Note_on_c, 0, 63, 0
2, 6593, Note_on_c, 0, 56, 66
2, 6640, Note_on_c, 0, 56, 0
2, 6674, Note_on_c, 0, 63, 66
2, 6676, Note_on_c, 0, 72, 0
2, 6732, Note_on_c, 0, 63, 0
2, 6752, Note_on_c, 0, 56, 65
2, 6799, Note_on_c, 0, 56, 0
2, 6825, Note_on_c, 0, 80, 69
2, 6835, Note_on_c, 0, 63, 67
2, 6876, Note_on_c, 0, 80, 0
2, 6878, Note_on_c, 0, 63, 0
2, 6900, Note_on_c, 0, 56, 66
2, 7001, Note_on_c, 0, 56, 0
2, 7001, Note_on_c, 0, 70, 75
2, 7002, Note_on_c, 0, 61, 67
2, 7050, Note_on_c, 0, 61, 0
2, 7066, Note_on_c, 0, 60, 68
2, 7150, Note_on_c, 0, 60, 0
2, 7162, Note_on_c, 0, 58, 68
2, 7180, Note_on_c, 0, 70, 0
2, 7226, Note_on_c, 0, 58, 0
2, 7228, Note_on_c, 0, 60, 70
2, 7299, Note_on_c, 0, 60, 0
2, 7322, Note_on_c, 0, 79, 72
2, 7327, Note_on_c, 0, 61, 75
2, 7364, Note_on_c, 0, 79, 0
2, 7368, Note_on_c, 0, 61, 0
2, 7390, Note_on_c, 0, 58, 68
2, 7453, Note_on_c, 0, 58, 0
2, 7488, Note_on_c, 0, 68, 76
2, 7489, Note_on_c, 0, 60, 68
2, 7549, Note_on_c, 0, 60, 0
2, 7567, Note_on_c, 0, 58, 74
2, 7643, Note_on_c, 0, 58, 0
2, 7649, Note_on_c, 0, 56, 68
2, 7661, Note_on_c, 0, 68, 0
2, 7722, Note_on_c, 0, 58, 69
2, 7736, Note_on_c, 0, 56, 0
2, 7803, Note_on_c, 0, 58, 0
2, 7809, Note_on_c, 0, 80, 77
2, 7816, Note_on_c, 0, 60, 72
2, 7877, Note_on_c, 0, 60, 0
2, 7885, Note_on_c, 0, 56, 77
2, 7982, Note_on_c, 0, 56, 0
2, 7982, Note_on_c, 0, 58, 76
2, 8009, Note_on_c, 0, 80, 0
2, 8044, Note_on_c, 0, 58, 0
2, 8062, Note_on_c, 0, 59, 67
2, 8132, Note_on_c, 0, 59, 0
2, 8133, Note_on_c, 0, 78, 71
2, 8142, Note_on_c, 0, 58, 65
2, 8203, Note_on_c, 0, 56, 69
2, 8214, Note_on_c, 0, 58, 0
2, 8214, Note_on_c, 0, 77, 70
2, 8225, Note_on_c, 0, 78, 0
2, 8282, Note_on_c, 0, 77, 0
2, 8285, Note_on_c, 0, 54, 61
2, 8285, Note_on_c, 0, 56, 0
2, 8291, Note_on_c, 0, 75, 72
2, 8329, Note_on_c, 0, 54, 0
2, 8359, Note_on_c, 0, 75, 0
2, 8360, Note_on_c, 0, 77, 60
2, 8371, Note_on_c, 0, 53, 66
2, 8419, Note_on_c, 0, 53, 0
2, 8444, Note_on_c, 0, 77, 0
2, 8450, Note_on_c, 0, 51, 63
2, 8463, Note_on_c, 0, 78, 57
2, 8538, Note_on_c, 0, 75, 62
2, 8549, Note_on_c, 0, 78, 0
2, 8573, Note_on_c, 0, 75, 0
2, 8608, Note_on_c, 0, 70, 68
2, 8622, Note_on_c, 0, 51, 0
2, 8674, Note_on_c, 0, 70, 0
2, 8698, Note_on_c, 0, 75, 62
2, 8753, Note_on_c, 0, 75, 0
2, 8773, Note_on_c, 0, 63, 57
2, 8774, Note_on_c, 0, 78, 71
2, 8807, Note_on_c, 0, 63, 0
2, 8810, Note_on_c, 0, 78, 0
2, 8851, Note_on_c, 0, 75, 65
2, 8899, Note_on_c, 0, 75, 0
2, 8931, Note_on_c, 0, 80, 75
2, 8934, Note_on_c, 0, 53, 55
2, 8988, Note_on_c, 0, 80, 0
2, 9014, Note_on_c, 0, 75, 72
2, 9076, Note_on_c, 0, 75, 0
2, 9098, Note_on_c, 0, 80, 78
2, 9127, Note_on_c, 0, 53, 0
2, 9140, Note_on_c, 0, 80, 0
2, 9177, Note_on_c, 0, 75, 69
2, 9237, Note_on_c, 0, 75, 0
2, 9253, Note_on_c, 0, 80, 77
2, 9259, Note_on_c, 0, 63, 65
2, 9292, Note_on_c, 0, 63, 0
2, 9300, Note_on_c, 0, 80, 0
2, 9322, Note_on_c, 0, 75, 66
2, 9387, Note_on_c, 0, 75, 0
2, 9414, Note_on_c, 0, 82, 77
2, 9419, Note_on_c, 0, 54, 67
2, 9473, Note_on_c, 0, 82, 0
2, 9499, Note_on_c, 0, 75, 70
2, 9564, Note_on_c, 0, 75, 0
2, 9577, Note_on_c, 0, 82, 79
2, 9626, Note_on_c, 0, 82, 0
2, 9636, Note_on_c, 0, 54, 0
2, 9653, Note_on_c, 0, 75, 67
2, 9721, Note_on_c, 0, 75, 0
2, 9732, Note_on_c, 0, 82, 79
2, 9752, Note_on_c, 0, 63, 62
2, 9785, Note_on_c, 0, 82, 0
2, 9792, Note_on_c, 0, 63, 0
2, 9803, Note_on_c, 0, 75, 73
2, 9872, Note_on_c, 0, 75, 0
2, 9911, Note_on_c, 0, 83, 79
2, 9912, Note_on_c, 0, 56, 68
2, 9964, Note_on_c, 0, 83, 0
2, 9982, Note_on_c, 0, 75, 70
2, 10059, Note_on_c, 0, 75, 0
2, 10074, Note_on_c, 0, 83, 76
2, 10116, Note_on_c, 0, 83, 0
2, 10125, Note_on_c, 0, 56, 0
2, 10153, Note_on_c, 0, 75, 65
2, 10233, Note_on_c, 0, 75, 0
2, 10242, Note_on_c, 0, 83, 73
2, 10252, Note_on_c, 0, 63, 59
2, 10288, Note_on_c, 0, 83, 0
2, 10290, Note_on_c, 0, 63, 0
2, 10319, Note_on_c, 0, 75, 62
2, 10394, Note_on_c, 0, 75, 0
2, 10408, Note_on_c, 0, 54, 60
2, 10411, Note_on_c, 0, 82, 70
2, 10454, Note_on_c, 0, 82, 0
2, 10484, Note_on_c, 0, 75, 61
2, 10557, Note_on_c, 0, 75, 0
2, 10572, Note_on_c, 0, 82, 71
2, 10612, Note_on_c, 0, 82, 0
2, 10620, Note_on_c, 0, 54, 0
2, 10644, Note_on_c, 0, 75, 59
2, 10710, Note_on_c, 0, 75, 0
2, 10721, Note_on_c, 0, 63, 61
2, 10723, Note_on_c, 0, 82, 69
2, 10757, Note_on_c, 0, 63, 0
2, 10759, Note_on_c, 0, 82, 0
2, 10789, Note_on_c, 0, 75, 56
2, 10839, Note_on_c, 0, 75, 0
2, 10879, Note_on_c, 0, 80, 70
2, 10885, Note_on_c, 0, 53, 57
2, 10956, Note_on_c, 0, 78, 68
2, 10957, Note_on_c, 0, 80, 0
2, 11025, Note_on_c, 0, 78, 0
2, 11035, Note_on_c, 0, 53, 0
2, 11043, Note_on_c, 0, 77, 69
2, 11095, Note_on_c, 0, 77, 0
2, 11114, Note_on_c, 0, 78, 66
2, 11183, Note_on_c, 0, 78, 0
2, 11193, Note_on_c, 0, 80, 72
2, 11195, Note_on_c, 0, 62, 65
2, 11234, Note_on_c, 0, 80, 0
2, 11245, Note_on_c, 0, 62, 0
2, 11269, Note_on_c, 0, 77, 67
2, 11306, Note_on_c, 0, 77, 0
2, 11352, Note_on_c, 0, 78, 70
2, 11360, Note_on_c, 0, 51, 67
2, 11435, Note_on_c, 0, 77, 61
2, 11469, Note_on_c, 0, 78, 0
2, 11502, Note_on_c, 0, 77, 0
2, 11504, Note_on_c, 0, 75, 72
2, 11509, Note_on_c, 0, 51, 0
2, 11566, Note_on_c, 0, 75, 0
2, 11582, Note_on_c, 0, 77, 57
2, 11643, Note_on_c, 0, 63, 70
2, 11652, Note_on_c, 0, 77, 0
2, 11652, Note_on_c, 0, 78, 66
2, 11723, Note_on_c, 0, 78, 0
2, 11736, Note_on_c, 0, 75, 74
2, 11813, Note_on_c, 0, 63, 0
2, 11815, Note_on_c, 0, 75, 0
2, 11819, Note_on_c, 0, 77, 68
2, 11888, Note_on_c, 0, 77, 0
2, 11888, Note_on_c, 0, 78, 69
2, 11952, Note_on_c, 0, 61, 64
2, 11966, Note_on_c, 0, 77, 60
2, 11971, Note_on_c, 0, 78, 0
2, 12018, Note_on_c, 0, 61, 0
2, 12025, Note_on_c, 0, 60, 69
2, 12036, Note_on_c, 0, 77, 0
2, 12043, Note_on_c, 0, 75, 66
2, 12081, Note_on_c, 0, 60, 0
2, 12097, Note_on_c, 0, 58, 61
2, 12100, Note_on_c, 0, 75, 0
2, 12123, Note_on_c, 0, 73, 73
2, 12173, Note_on_c, 0, 73, 0
2, 12175, Note_on_c, 0, 60, 54
2, 12195, Note_on_c, 0, 72, 59
2, 12216, Note_on_c, 0, 58, 0
2, 12251, Note_on_c, 0, 60, 0
2, 12266, Note_on_c, 0, 61, 70
2, 12281, Note_on_c, 0, 70, 78
2, 12303, Note_on_c, 0, 72, 0
2, 12354, Note_on_c, 0, 58, 64
2, 12363, Note_on_c, 0, 61, 0
2, 12427, Note_on_c, 0, 58, 0
2, 12443, Note_on_c, 0, 53, 67
2, 12443, Note_on_c, 0, 70, 0
2, 12509, Note_on_c, 0, 53, 0
2, 12513, Note_on_c, 0, 58, 54
2, 12601, Note_on_c, 0, 58, 0
2, 12609, Note_on_c, 0, 82, 71
2, 12611, Note_on_c, 0, 61, 63
2, 12666, Note_on_c, 0, 82, 0
2, 12667, Note_on_c, 0, 61, 0
2, 12688, Note_on_c, 0, 58, 62
2, 12734, Note_on_c, 0, 58, 0
2, 12773, Note_on_c, 0, 63, 64
2, 12780, Note_on_c, 0, 72, 74
2, 12823, Note_on_c, 0, 63, 0
2, 12850, Note_on_c, 0, 58, 68
2, 12894, Note_on_c, 0, 58, 0
2, 12933, Note_on_c, 0, 63, 66
2, 12957, Note_on_c, 0, 72, 0
2, 12990, Note_on_c, 0, 63, 0
2, 13006, Note_on_c, 0, 58, 67
2, 13055, Note_on_c, 0, 58, 0
2, 13091, Note_on_c, 0, 63, 67
2, 13101, Note_on_c, 0, 82, 58
2, 13135, Note_on_c, 0, 63, 0
2, 13144, Note_on_c, 0, 82, 0
2, 13155, Note_on_c, 0, 58, 69
2, 13229, Note_on_c, 0, 58, 0
2, 13265, Note_on_c, 0, 65, 67
2, 13274, Note_on_c, 0, 73, 76
2, 13324, Note_on_c, 0, 65, 0
2, 13351, Note_on_c, 0, 58, 67
2, 13422, Note_on_c, 0, 58, 0
2, 13441, Note_on_c, 0, 65, 68
2, 13473, Note_on_c, 0, 73, 0
2, 13487, Note_on_c, 0, 65, 0
2, 13526, Note_on_c, 0, 58, 68
2, 13584, Note_on_c, 0, 58, 0
2, 13590, Note_on_c, 0, 82, 68
2, 13603, Note_on_c, 0, 65, 62
2, 13642, Note_on_c, 0, 65, 0
2, 13651, Note_on_c, 0, 82, 0
2, 13675, Note_on_c, 0, 58, 66
2, 13732, Note_on_c, 0, 58, 0
2, 13771, Note_on_c, 0, 66, 68
2, 13777, Note_on_c, 0, 75, 77
2, 13810, Note_on_c, 0, 66, 0
2, 13843, Note_on_c, 0, 58, 64
2, 13887, Note_on_c, 0, 58, 0
2, 13924, Note_on_c, 0, 66, 66
2, 13964, Note_on_c, 0, 66, 0
2, 13974, Note_on_c, 0, 75, 0
2, 13996, Note_on_c, 0, 58, 67
2, 14050, Note_on_c, 0, 58, 0
2, 14089, Note_on_c, 0, 66, 68
2, 14109, Note_on_c, 0, 82, 70
2, 14137, Note_on_c, 0, 66, 0
2, 14163, Note_on_c, 0, 58, 65
2, 14168, Note_on_c, 0, 82, 0
2, 14230, Note_on_c, 0, 58, 0
2, 14271, Note_on_c, 0, 65, 63
2, 14285, Note_on_c, 0, 73, 74
2, 14313, Note_on_c, 0, 65, 0
2, 14346, Note_on_c, 0, 58, 67
2, 14403, Note_on_c, 0, 58, 0
2, 14435, Note_on_c, 0, 65, 68
2, 14455, Note_on_c, 0, 73, 0
2, 14492, Note_on_c, 0, 65, 0
2, 14515, Note_on_c, 0, 58, 68
2, 14571, Note_on_c, 0, 58, 0
2, 14595, Note_on_c, 0, 82, 68
2, 14608, Note_on_c, 0, 65, 60
2, 14648, Note_on_c, 0, 65, 0
2, 14663, Note_on_c, 0, 82, 0
2, 14677, Note_on_c, 0, 58, 69
2, 14761, Note_on_c, 0, 58, 0
2, 14778, Note_on_c, 0, 63, 63
2, 14782, Note_on_c, 0, 72, 71
2, 14841, Note_on_c, 0, 63, 0
2, 14851, Note_on_c, 0, 61, 70
2, 14926, Note_on_c, 0, 61, 0
2, 14935, Note_on_c, 0, 60, 65
2, 14945, Note_on_c, 0, 72, 0
2, 15021, Note_on_c, 0, 61, 68
2, 15024, Note_on_c, 0, 60, 0
2, 15080, Note_on_c, 0, 61, 0
2, 15095, Note_on_c, 0, 63, 73
2, 15096, Note_on_c, 0, 81, 77
2, 15152, Note_on_c, 0, 81, 0
2, 15162, Note_on_c, 0, 63, 0
2, 15171, Note_on_c, 0, 60, 69
2, 15244, Note_on_c, 0, 60, 0
2, 15266, Note_on_c, 0, 61, 70
2, 15284, Note_on_c, 0, 70, 74
2, 15345, Note_on_c, 0, 61, 0
2, 15353, Note_on_c, 0, 60, 70
2, 15419, Note_on_c, 0, 60, 0
2, 15433, Note_on_c, 0, 58, 64
2, 15443, Note_on_c, 0, 70, 0
2, 15500, Note_on_c, 0, 60, 63
2, 15528, Note_on_c, 0, 58, 0
2, 15607, Note_on_c, 0, 60, 0
2, 15610, Note_on_c, 0, 82, 80
2, 15621, Note_on_c, 0, 61, 68
2, 15688, Note_on_c, 0, 61, 0
2, 15689, Note_on_c, 0, 58, 66
2, 15783, Note_on_c, 0, 58, 0
2, 15783, Note_on_c, 0, 64, 73
2, 15831, Note_on_c, 0, 82, 0
2, 15850, Note_on_c, 0, 64, 0
2, 15865, Note_on_c, 0, 62, 71
2, 15935, Note_on_c, 0, 62, 0
2, 15944, Note_on_c, 0, 60, 72
2, 15947, Note_on_c, 0, 80, 72
2, 16005, Note_on_c, 0, 80, 0
2, 16021, Note_on_c, 0, 60, 0
2, 16024, Note_on_c, 0, 62, 64
2, 16074, Note_on_c, 0, 62, 0
2, 16092, Note_on_c, 0, 64, 63
2, 16112, Note_on_c, 0, 79, 76
2, 16138, Note_on_c, 0, 64, 0
2, 16159, Note_on_c, 0, 79, 0
2, 16166, Note_on_c, 0, 60, 67
2, 16228, Note_on_c, 0, 60, 0
2, 16271, Note_on_c, 0, 65, 66
2, 16283, Note_on_c, 0, 80, 74
2, 16316, Note_on_c, 0, 65, 0
2, 16328, Note_on_c, 0, 80, 0
2, 16355, Note_on_c, 0, 64, 66
2, 16440, Note_on_c, 0, 68, 74
2, 16446, Note_on_c, 0, 64, 0
2, 16446, Note_on_c, 0, 65, 71
2, 16484, Note_on_c, 0, 68, 0
2, 16499, Note_on_c, 0, 65, 0
2, 16522, Note_on_c, 0, 67, 67
2, 16595, Note_on_c, 0, 67, 0
2, 16609, Note_on_c, 0, 65, 68
2, 16610, Note_on_c, 0, 80, 82
2, 16677, Note_on_c, 0, 65, 0
2, 16683, Note_on_c, 0, 63, 71
2, 16739, Note_on_c, 0, 63, 0
2, 16773, Note_on_c, 0, 62, 70
2, 16835, Note_on_c, 0, 80, 0
2, 16836, Note_on_c, 0, 62, 0
2, 16855, Note_on_c, 0, 60, 67
2, 16925, Note_on_c, 0, 60, 0
2, 16937, Note_on_c, 0, 58, 67
2, 16952, Note_on_c, 0, 78, 74
2, 17010, Note_on_c, 0, 78, 0
2, 17013, Note_on_c, 0, 58, 0
2, 17021, Note_on_c, 0, 60, 63
2, 17073, Note_on_c, 0, 60, 0
2, 17103, Note_on_c, 0, 62, 65
2, 17125, Note_on_c, 0, 77, 75
2, 17156, Note_on_c, 0, 62, 0
2, 17161, Note_on_c, 0, 77, 0
2, 17193, Note_on_c, 0, 58, 66
2, 17247, Note_on_c, 0, 58, 0
2, 17293, Note_on_c, 0, 78, 73
2, 17298, Note_on_c, 0, 63, 74
2, 17333, Note_on_c, 0, 63, 0
2, 17368, Note_on_c, 0, 77, 66
2, 17369, Note_on_c, 0, 78, 0
2, 17433, Note_on_c, 0, 77, 0
2, 17454, Note_on_c, 0, 75, 70
2, 17457, Note_on_c, 0, 51, 64
2, 17488, Note_on_c, 0, 51, 0
2, 17519, Note_on_c, 0, 75, 0
2, 17523, Note_on_c, 0, 77, 69
2, 17602, Note_on_c, 0, 77, 0
2, 17609, Note_on_c, 0, 78, 69
2, 17623, Note_on_c, 0, 63, 78
2, 17694, Note_on_c, 0, 75, 72
2, 17696, Note_on_c, 0, 78, 0
2, 17751, Note_on_c, 0, 75, 0
2, 17784, Note_on_c, 0, 81, 78
2, 17832, Note_on_c, 0, 63, 0
2, 17867, Note_on_c, 0, 79, 67
2, 17901, Note_on_c, 0, 81, 0
2, 17926, Note_on_c, 0, 79, 0
2, 17959, Note_on_c, 0, 77, 75
2, 17963, Note_on_c, 0, 61, 65
2, 18009, Note_on_c, 0, 61, 0
2, 18024, Note_on_c, 0, 77, 0
2, 18029, Note_on_c, 0, 79, 76
2, 18101, Note_on_c, 0, 79, 0
2, 18121, Note_on_c, 0, 81, 75
2, 18128, Note_on_c, 0, 60, 71
2, 18161, Note_on_c, 0, 60, 0
2, 18166, Note_on_c, 0, 81, 0
2, 18200, Note_on_c, 0, 77, 68
2, 18247, Note_on_c, 0, 77, 0
2, 18285, Note_on_c, 0, 82, 73
2, 18297, Note_on_c, 0, 61, 68
2, 18336, Note_on_c, 0, 61, 0
2, 18361, Note_on_c, 0, 82, 0
2, 18366, Note_on_c, 0, 81, 79
2, 18442, Note_on_c, 0, 81, 0
2, 18451, Note_on_c, 0, 82, 74
2, 18460, Note_on_c, 0, 49, 65
2, 18500, Note_on_c, 0, 49, 0
2, 18520, Note_on_c, 0, 82, 0
2, 18532, Note_on_c, 0, 84, 72
2, 18625, Note_on_c, 0, 84, 0
2, 18626, Note_on_c, 0, 61, 78
2, 18627, Note_on_c, 0, 82, 78
2, 18714, Note_on_c, 0, 80, 75
2, 18723, Note_on_c, 0, 82, 0
2, 18781, Note_on_c, 0, 80, 0
2, 18804, Note_on_c, 0, 79, 71
2, 18840, Note_on_c, 0, 79, 0
2, 18846, Note_on_c, 0, 61, 0
2, 18877, Note_on_c, 0, 77, 73
2, 18942, Note_on_c, 0, 77, 0
2, 18967, Note_on_c, 0, 75, 71
2, 18971, Note_on_c, 0, 60, 64
2, 19007, Note_on_c, 0, 60, 0
2, 19035, Note_on_c, 0, 75, 0
2, 19040, Note_on_c, 0, 77, 68
2, 19119, Note_on_c, 0, 77, 0
2, 19119, Note_on_c, 0, 79, 68
2, 19124, Note_on_c, 0, 58, 66
2, 19157, Note_on_c, 0, 58, 0
2, 19206, Note_on_c, 0, 79, 0
2, 19208, Note_on_c, 0, 75, 67
2, 19255, Note_on_c, 0, 75, 0
2, 19290, Note_on_c, 0, 60, 66
2, 19295, Note_on_c, 0, 80, 75
2, 19335, Note_on_c, 0, 60, 0
2, 19353, Note_on_c, 0, 80, 0
2, 19372, Note_on_c, 0, 58, 66
2, 19458, Note_on_c, 0, 58, 0
2, 19467, Note_on_c, 0, 56, 63
2, 19472, Note_on_c, 0, 68, 76
2, 19514, Note_on_c, 0, 68, 0
2, 19557, Note_on_c, 0, 58, 62
2, 19562, Note_on_c, 0, 56, 0
2, 19625, Note_on_c, 0, 58, 0
2, 19644, Note_on_c, 0, 80, 81
2, 19645, Note_on_c, 0, 60, 63
2, 19690, Note_on_c, 0, 60, 0
2, 19715, Note_on_c, 0, 56, 68
2, 19777, Note_on_c, 0, 56, 0
2, 19805, Note_on_c, 0, 62, 68
2, 19860, Note_on_c, 0, 62, 0
2, 19867, Note_on_c, 0, 80, 0
2, 19889, Note_on_c, 0, 60, 68
2, 19954, Note_on_c, 0, 60, 0
2, 19963, Note_on_c, 0, 58, 66
2, 19969, Note_on_c, 0, 78, 74
2, 20028, Note_on_c, 0, 78, 0
2, 20048, Note_on_c, 0, 58, 0
2, 20050, Note_on_c, 0, 60, 66
2, 20104, Note_on_c, 0, 60, 0
2, 20127, Note_on_c, 0, 77, 71
2, 20133, Note_on_c, 0, 62, 64
2, 20166, Note_on_c, 0, 62, 0
2, 20175, Note_on_c, 0, 77, 0
2, 20211, Note_on_c, 0, 58, 68
2, 20270, Note_on_c, 0, 58, 0
2, 20305, Note_on_c, 0, 63, 68
2, 20310, Note_on_c, 0, 78, 73
2, 20335, Note_on_c, 0, 63, 0
2, 20364, Note_on_c, 0, 78, 0
2, 20385, Note_on_c, 0, 62, 68
2, 20469, Note_on_c, 0, 66, 72
2, 20477, Note_on_c, 0, 62, 0
2, 20480, Note_on_c, 0, 63, 69
2, 20510, Note_on_c, 0, 66, 0
2, 20538, Note_on_c, 0, 63, 0
2, 20562, Note_on_c, 0, 65, 66
2, 20621, Note_on_c, 0, 65, 0
2, 20637, Note_on_c, 0, 78, 79
2, 20640, Note_on_c, 0, 63, 66
2, 20709, Note_on_c, 0, 63, 0
2, 20710, Note_on_c, 0, 61, 69
2, 20766, Note_on_c, 0, 61, 0
2, 20799, Note_on_c, 0, 60, 72
2, 20856, Note_on_c, 0, 60, 0
2, 20860, Note_on_c, 0, 78, 0
2, 20882, Note_on_c, 0, 58, 69
2, 20970, Note_on_c, 0, 58, 0
2, 20971, Note_on_c, 0, 77, 73
2, 20976, Note_on_c, 0, 56, 64
2, 21029, Note_on_c, 0, 77, 0
2, 21055, Note_on_c, 0, 58, 67
2, 21058, Note_on_c, 0, 56, 0
2, 21116, Note_on_c, 0, 58, 0
2, 21139, Note_on_c, 0, 60, 67
2, 21139, Note_on_c, 0, 75, 74
2, 21172, Note_on_c, 0, 75, 0
2, 21186, Note_on_c, 0, 60, 0
2, 21215, Note_on_c, 0, 56, 68
2, 21281, Note_on_c, 0, 56, 0
2, 21305, Note_on_c, 0, 77, 73
2, 21328, Note_on_c, 0, 61, 72
2, 21354, Note_on_c, 0, 61, 0
2, 21384, Note_on_c, 0, 75, 69
2, 21385, Note_on_c, 0, 77, 0
2, 21451, Note_on_c, 0, 75, 0
2, 21474, Note_on_c, 0, 73, 70
2, 21480, Note_on_c, 0, 49, 71
2, 21514, Note_on_c, 0, 49, 0
2, 21550, Note_on_c, 0, 73, 0
2, 21553, Note_on_c, 0, 75, 70
2, 21615, Note_on_c, 0, 75, 0
2, 21642, Note_on_c, 0, 77, 66
2, 21654, Note_on_c, 0, 61, 77
2, 21727, Note_on_c, 0, 77, 0
2, 21730, Note_on_c, 0, 73, 72
2, 21781, Note_on_c, 0, 73, 0
2, 21824, Note_on_c, 0, 79, 73
2, 21863, Note_on_c, 0, 61, 0
2, 21894, Note_on_c, 0, 79, 0
2, 21909, Note_on_c, 0, 77, 70
2, 21970, Note_on_c, 0, 77, 0
2, 21988, Note_on_c, 0, 59, 63
2, 21990, Note_on_c, 0, 75, 71
2, 22033, Note_on_c, 0, 59, 0
2, 22064, Note_on_c, 0, 75, 0
2, 22068, Note_on_c, 0, 77, 68
2, 22141, Note_on_c, 0, 77, 0
2, 22147, Note_on_c, 0, 79, 69
2, 22149, Note_on_c, 0, 58, 73
2, 22215, Note_on_c, 0, 79, 0
2, 22216, Note_on_c, 0, 75, 63
2, 22230, Note_on_c, 0, 58, 0
2, 22235, Note_on_c, 0, 75, 0
2, 22322, Note_on_c, 0, 80, 79
2, 22330, Note_on_c, 0, 59, 61
2, 22378, Note_on_c, 0, 59, 0
2, 22401, Note_on_c, 0, 80, 0
2, 22403, Note_on_c, 0, 79, 73
2, 22488, Note_on_c, 0, 79, 0
2, 22495, Note_on_c, 0, 80, 74
2, 22504, Note_on_c, 0, 47, 66
2, 22533, Note_on_c, 0, 47, 0
2, 22557, Note_on_c, 0, 80, 0
2, 22567, Note_on_c, 0, 82, 73
2, 22665, Note_on_c, 0, 80, 77
2, 22667, Note_on_c, 0, 59, 72
2, 22670, Note_on_c, 0, 82, 0
2, 22738, Note_on_c, 0, 78, 73
2, 22741, Note_on_c, 0, 80, 0
2, 22811, Note_on_c, 0, 78, 0
2, 22828, Note_on_c, 0, 77, 67
2, 22879, Note_on_c, 0, 59, 0
2, 22882, Note_on_c, 0, 77, 0
2, 22908, Note_on_c, 0, 75, 69
2, 22965, Note_on_c, 0, 75, 0
2, 22991, Note_on_c, 0, 73, 65
2, 22997, Note_on_c, 0, 58, 65
2, 23034, Note_on_c, 0, 58, 0
2, 23055, Note_on_c, 0, 73, 0
2, 23067, Note_on_c, 0, 75, 54
2, 23132, Note_on_c, 0, 75, 0
2, 23142, Note_on_c, 0, 56, 62
2, 23149, Note_on_c, 0, 77, 57
2, 23176, Note_on_c, 0, 56, 0
2, 23209, Note_on_c, 0, 77, 0
2, 23218, Note_on_c, 0, 73, 64
2, 23315, Note_on_c, 0, 73, 0
2, 23331, Note_on_c, 0, 66, 72
2, 23333, Note_on_c, 0, 58, 56
2, 23377, Note_on_c, 0, 58, 0
2, 23402, Note_on_c, 0, 54, 60
2, 23465, Note_on_c, 0, 54, 0
2, 23486, Note_on_c, 0, 49, 60
2, 23535, Note_on_c, 0, 66, 0
2, 23573, Note_on_c, 0, 54, 59
2, 23574, Note_on_c, 0, 49, 0
2, 23618, Note_on_c, 0, 54, 0
2, 23650, Note_on_c, 0, 58, 62
2, 23670, Note_on_c, 0, 78, 65
2, 23686, Note_on_c, 0, 58, 0
2, 23734, Note_on_c, 0, 54, 63
2, 23752, Note_on_c, 0, 78, 0
2, 23811, Note_on_c, 0, 54, 0
2, 23843, Note_on_c, 0, 59, 64
2, 23858, Note_on_c, 0, 68, 75
2, 23901, Note_on_c, 0, 59, 0
2, 23926, Note_on_c, 0, 54, 65
2, 23997, Note_on_c, 0, 54, 0
2, 24015, Note_on_c, 0, 59, 69
2, 24057, Note_on_c, 0, 68, 0
2, 24092, Note_on_c, 0, 59, 0
2, 24113, Note_on_c, 0, 54, 64
2, 24181, Note_on_c, 0, 54, 0
2, 24193, Note_on_c, 0, 78, 66
2, 24203, Note_on_c, 0, 59, 64
2, 24243, Note_on_c, 0, 59, 0
2, 24259, Note_on_c, 0, 78, 0
2, 24275, Note_on_c, 0, 54, 64
2, 24340, Note_on_c, 0, 54, 0
2, 24376, Note_on_c, 0, 61, 66
2, 24382, Note_on_c, 0, 70, 70
2, 24419, Note_on_c, 0, 61, 0
2, 24453, Note_on_c, 0, 54, 63
2, 24503, Note_on_c, 0, 54, 0
2, 24533, Note_on_c, 0, 61, 64
2, 24560, Note_on_c, 0, 70, 0
2, 24587, Note_on_c, 0, 61, 0
2, 24615, Note_on_c, 0, 54, 62
2, 24675, Note_on_c, 0, 54, 0
2, 24685, Note_on_c, 0, 78, 69
2, 24703, Note_on_c, 0, 61, 65
2, 24757, Note_on_c, 0, 78, 0
2, 24762, Note_on_c, 0, 61, 0
2, 24782, Note_on_c, 0, 54, 68
2, 24847, Note_on_c, 0, 54, 0
2, 24887, Note_on_c, 0, 63, 66
2, 24890, Note_on_c, 0, 71, 71
2, 24929, Note_on_c, 0, 63, 0
2, 24958, Note_on_c, 0, 54, 66
2, 25010, Note_on_c, 0, 54, 0
2, 25049, Note_on_c, 0, 63, 63
2, 25078, Note_on_c, 0, 71, 0
2, 25094, Note_on_c, 0, 63, 0
2, 25123, Note_on_c, 0, 54, 66
2, 25171, Note_on_c, 0, 54, 0
2, 25208, Note_on_c, 0, 63, 65
2, 25214, Note_on_c, 0, 78, 68
2, 25248, Note_on_c, 0, 63, 0
2, 25272, Note_on_c, 0, 78, 0
2, 25285, Note_on_c, 0, 54, 63
2, 25337, Note_on_c, 0, 54, 0
2, 25385, Note_on_c, 0, 61, 64
2, 25397, Note_on_c, 0, 70, 75
2, 25427, Note_on_c, 0, 61, 0
2, 25459, Note_on_c, 0, 54, 62
2, 25518, Note_on_c, 0, 54, 0
2, 25548, Note_on_c, 0, 70, 0
2, 25550, Note_on_c, 0, 61, 64
2, 25615, Note_on_c, 0, 61, 0
2, 25643, Note_on_c, 0, 54, 63
2, 25694, Note_on_c, 0, 54, 0
2, 25709, Note_on_c, 0, 78, 66
2, 25733, Note_on_c, 0, 61, 61
2, 25761, Note_on_c, 0, 78, 0
2, 25764, Note_on_c, 0, 61, 0
2, 25801, Note_on_c, 0, 54, 61
2, 25868, Note_on_c, 0, 54, 0
2, 25889, Note_on_c, 0, 68, 69
2, 25896, Note_on_c, 0, 59, 63
2, 25950, Note_on_c, 0, 59, 0
2, 25972, Note_on_c, 0, 58, 69
2, 26052, Note_on_c, 0, 58, 0
2, 26055, Note_on_c, 0, 56, 71
2, 26058, Note_on_c, 0, 68, 0
2, 26131, Note_on_c, 0, 58, 63
2, 26140, Note_on_c, 0, 56, 0
2, 26198, Note_on_c, 0, 58, 0
2, 26214, Note_on_c, 0, 77, 67
2, 26218, Note_on_c, 0, 59, 64
2, 26257, Note_on_c, 0, 77, 0
2, 26258, Note_on_c, 0, 59, 0
2, 26281, Note_on_c, 0, 56, 69
2, 26373, Note_on_c, 0, 56, 0
2, 26382, Note_on_c, 0, 58, 72
2, 26384, Note_on_c, 0, 66, 77
2, 26472, Note_on_c, 0, 56, 68
2, 26477, Note_on_c, 0, 58, 0
2, 26544, Note_on_c, 0, 56, 0
2, 26550, Note_on_c, 0, 54, 68
2, 26550, Note_on_c, 0, 66, 0
2, 26623, Note_on_c, 0, 56, 66
2, 26651, Note_on_c, 0, 54, 0
2, 26708, Note_on_c, 0, 56, 0
2, 26717, Note_on_c, 0, 58, 73
2, 26718, Note_on_c, 0, 78, 74
2, 26782, Note_on_c, 0, 58, 0
2, 26787, Note_on_c, 0, 54, 69
2, 26872, Note_on_c, 0, 56, 67
2, 26911, Note_on_c, 0, 54, 0
2, 26911, Note_on_c, 0, 78, 0
2, 26942, Note_on_c, 0, 56, 0
2, 26948, Note_on_c, 0, 58, 71
2, 27027, Note_on_c, 0, 56, 66
2, 27027, Note_on_c, 0, 58, 0
2, 27040, Note_on_c, 0, 77, 69
2, 27109, Note_on_c, 0, 54, 63
2, 27110, Note_on_c, 0, 56, 0
2, 27120, Note_on_c, 0, 77, 0
2, 27123, Note_on_c, 0, 75, 74
2, 27152, Note_on_c, 0, 54, 0
2, 27185, Note_on_c, 0, 75, 0
2, 27195, Note_on_c, 0, 53, 69
2, 27205, Note_on_c, 0, 73, 68
2, 27260, Note_on_c, 0, 53, 0
2, 27272, Note_on_c, 0, 73, 0
2, 27277, Note_on_c, 0, 51, 64
2, 27282, Note_on_c, 0, 75, 58
2, 27337, Note_on_c, 0, 75, 0
2, 27373, Note_on_c, 0, 77, 64
2, 27379, Note_on_c, 0, 49, 70
2, 27379, Note_on_c, 0, 51, 0
2, 27440, Note_on_c, 0, 73, 67
2, 27443, Note_on_c, 0, 77, 0
2, 27488, Note_on_c, 0, 73, 0
2, 27520, Note_on_c, 0, 68, 69
2, 27538, Note_on_c, 0, 49, 0
2, 27587, Note_on_c, 0, 68, 0
2, 27605, Note_on_c, 0, 73, 58
2, 27656, Note_on_c, 0, 73, 0
2, 27695, Note_on_c, 0, 77, 68
2, 27704, Note_on_c, 0, 61, 60
2, 27739, Note_on_c, 0, 77, 0
2, 27740, Note_on_c, 0, 61, 0
2, 27773, Note_on_c, 0, 73, 72
2, 27824, Note_on_c, 0, 73, 0
2, 27857, Note_on_c, 0, 78, 75
2, 27876, Note_on_c, 0, 51, 58
2, 27915, Note_on_c, 0, 78, 0
2, 27943, Note_on_c, 0, 73, 72
2, 28005, Note_on_c, 0, 73, 0
2, 28029, Note_on_c, 0, 78, 75
2, 28069, Note_on_c, 0, 78, 0
2, 28072, Note_on_c, 0, 51, 0
2, 28106, Note_on_c, 0, 73, 70
2, 28168, Note_on_c, 0, 73, 0
2, 28189, Note_on_c, 0, 78, 74
2, 28210, Note_on_c, 0, 61, 56
2, 28242, Note_on_c, 0, 78, 0
2, 28247, Note_on_c, 0, 61, 0
2, 28266, Note_on_c, 0, 73, 71
2, 28334, Note_on_c, 0, 73, 0
2, 28355, Note_on_c, 0, 80, 79
2, 28363, Note_on_c, 0, 53, 64
2, 28410, Note_on_c, 0, 80, 0
2, 28433, Note_on_c, 0, 73, 71
2, 28503, Note_on_c, 0, 73, 0
2, 28524, Note_on_c, 0, 80, 79
2, 28571, Note_on_c, 0, 53, 0
2, 28577, Note_on_c, 0, 80, 0
2, 28605, Note_on_c, 0, 73, 66
2, 28672, Note_on_c, 0, 73, 0
2, 28693, Note_on_c, 0, 80, 81
2, 28705, Note_on_c, 0, 61, 60
2, 28742, Note_on_c, 0, 61, 0
2, 28754, Note_on_c, 0, 80, 0
2, 28773, Note_on_c, 0, 73, 70
2, 28836, Note_on_c, 0, 73, 0
2, 28861, Note_on_c, 0, 82, 78
2, 28864, Note_on_c, 0, 54, 66
2, 28915, Note_on_c, 0, 82, 0
2, 28943, Note_on_c, 0, 73, 68
2, 29012, Note_on_c, 0, 73, 0
2, 29028, Note_on_c, 0, 82, 76
2, 29056, Note_on_c, 0, 54, 0
2, 29077, Note_on_c, 0, 82, 0
2, 29112, Note_on_c, 0, 73, 64
2, 29181, Note_on_c, 0, 73, 0
2, 29185, Note_on_c, 0, 61, 53
2, 29191, Note_on_c, 0, 82, 71
2, 29219, Note_on_c, 0, 61, 0
2, 29231, Note_on_c, 0, 82, 0
2, 29259, Note_on_c, 0, 73, 60
2, 29330, Note_on_c, 0, 73, 0
2, 29341, Note_on_c, 0, 53, 61
2, 29353, Note_on_c, 0, 80, 72
2, 29403, Note_on_c, 0, 80, 0
2, 29433, Note_on_c, 0, 73, 62
2, 29501, Note_on_c, 0, 73, 0
2, 29524, Note_on_c, 0, 80, 69
2, 29565, Note_on_c, 0, 80, 0
2, 29574, Note_on_c, 0, 53, 0
2, 29593, Note_on_c, 0, 73, 61
2, 29652, Note_on_c, 0, 73, 0
2, 29671, Note_on_c, 0, 61, 54
2, 29677, Note_on_c, 0, 80, 66
2, 29711, Note_on_c, 0, 61, 0
2, 29711, Note_on_c, 0, 80, 0
2, 29735, Note_on_c, 0, 73, 54
2, 29786, Note_on_c, 0, 73, 0
2, 29824, Note_on_c, 0, 78, 67
2, 29831, Note_on_c, 0, 51, 64
2, 29895, Note_on_c, 0, 78, 0
2, 29901, Note_on_c, 0, 77, 72
2, 29958, Note_on_c, 0, 77, 0
2, 29979, Note_on_c, 0, 75, 69
2, 29989, Note_on_c, 0, 51, 0
2, 30041, Note_on_c, 0, 75, 0
2, 30048, Note_on_c, 0, 77, 70
2, 30124, Note_on_c, 0, 77, 0
2, 30130, Note_on_c, 0, 78, 70
2, 30136, Note_on_c, 0, 60, 63
2, 30175, Note_on_c, 0, 78, 0
2, 30194, Note_on_c, 0, 60, 0
2, 30208, Note_on_c, 0, 75, 68
2, 30234, Note_on_c, 0, 75, 0
2, 30296, Note_on_c, 0, 77, 65
2, 30302, Note_on_c, 0, 49, 64
2, 30375, Note_on_c, 0, 77, 0
2, 30376, Note_on_c, 0, 75, 70
2, 30438, Note_on_c, 0, 75, 0
2, 30445, Note_on_c, 0, 73, 69
2, 30472, Note_on_c, 0, 49, 0
2, 30508, Note_on_c, 0, 73, 0
2, 30517, Note_on_c, 0, 75, 61
2, 30587, Note_on_c, 0, 75, 0
2, 30598, Note_on_c, 0, 77, 65
2, 30605, Note_on_c, 0, 61, 63
2, 30644, Note_on_c, 0, 61, 0
2, 30653, Note_on_c, 0, 77, 0
2, 30672, Note_on_c, 0, 73, 77
2, 30760, Note_on_c, 0, 73, 0
2, 30764, Note_on_c, 0, 75, 74
2, 30773, Note_on_c, 0, 54, 71
2, 30825, Note_on_c, 0, 75, 0
2, 30826, Note_on_c, 0, 54, 0
2, 30836, Note_on_c, 0, 77, 68
2, 30912, Note_on_c, 0, 77, 0
2, 30918, Note_on_c, 0, 75, 72
2, 30939, Note_on_c, 0, 53, 61
2, 30983, Note_on_c, 0, 53, 0
2, 30993, Note_on_c, 0, 75, 0
2, 31001, Note_on_c, 0, 73, 69
2, 31053, Note_on_c, 0, 73, 0
2, 31082, Note_on_c, 0, 72, 63
2, 31091, Note_on_c, 0, 51, 57
2, 31112, Note_on_c, 0, 72, 0
2, 31127, Note_on_c, 0, 51, 0
2, 31154, Note_on_c, 0, 70, 68
2, 31195, Note_on_c, 0, 70, 0
2, 31236, Note_on_c, 0, 72, 62
2, 31258, Note_on_c, 0, 56, 53
2, 31289, Note_on_c, 0, 56, 0
2, 31299, Note_on_c, 0, 72, 0
2, 31325, Note_on_c, 0, 68, 64
2, 31356, Note_on_c, 0, 68, 0
2, 31409, Note_on_c, 0, 66, 64
2, 31434, Note_on_c, 0, 66, 0
2, 31499, Note_on_c, 0, 68, 66
2, 31522, Note_on_c, 0, 68, 0
2, 31570, Note_on_c, 0, 63, 56
2, 31604, Note_on_c, 0, 63, 0
2, 31640, Note_on_c, 0, 68, 64
2, 31668, Note_on_c, 0, 68, 0
2, 31736, Note_on_c, 0, 72, 71
2, 31742, Note_on_c, 0, 56, 59
2, 31778, Note_on_c, 0, 56, 0
2, 31797, Note_on_c, 0, 72, 0
2, 31816, Note_on_c, 0, 68, 60
2, 31838, Note_on_c, 0, 68, 0
2, 31900, Note_on_c, 0, 66, 60
2, 31925, Note_on_c, 0, 66, 0
2, 31965, Note_on_c, 0, 68, 63
2, 31998, Note_on_c, 0, 68, 0
2, 32053, Note_on_c, 0, 63, 63
2, 32087, Note_on_c, 0, 63, 0
2, 32124, Note_on_c, 0, 68, 69
2, 32151, Note_on_c, 0, 68, 0
2, 32207, Note_on_c, 0, 73, 67
2, 32212, Note_on_c, 0, 56, 66
2, 32249, Note_on_c, 0, 56, 0
2, 32270, Note_on_c, 0, 73, 0
2, 32284, Note_on_c, 0, 68, 63
2, 32313, Note_on_c, 0, 68, 0
2, 32377, Note_on_c, 0, 65, 55
2, 32398, Note_on_c, 0, 65, 0
2, 32455, Note_on_c, 0, 68, 66
2, 32493, Note_on_c, 0, 68, 0
2, 32538, Note_on_c, 0, 61, 61
2, 32570, Note_on_c, 0, 61, 0
2, 32619, Note_on_c, 0, 68, 65
2, 32648, Note_on_c, 0, 68, 0
2, 32698, Note_on_c, 0, 73, 69
2, 32703, Note_on_c, 0, 56, 71
2, 32739, Note_on_c, 0, 56, 0
2, 32755, Note_on_c, 0, 73, 0
2, 32769, Note_on_c, 0, 68, 64
2, 32798, Note_on_c, 0, 68, 0
2, 32866, Note_on_c, 0, 65, 62
2, 32891, Note_on_c, 0, 65, 0
2, 32938, Note_on_c, 0, 68, 65
2, 32968, Note_on_c, 0, 68, 0
2, 33021, Note_on_c, 0, 61, 61
2, 33058, Note_on_c, 0, 61, 0
2, 33090, Note_on_c, 0, 68, 74
2, 33121, Note_on_c, 0, 68, 0
2, 33174, Note_on_c, 0, 78, 78
2, 33181, Note_on_c, 0, 56, 69
2, 33216, Note_on_c, 0, 56, 0
2, 33253, Note_on_c, 0, 78, 0
2, 33254, Note_on_c, 0, 68, 68
2, 33283, Note_on_c, 0, 68, 0
2, 33350, Note_on_c, 0, 63, 64
2, 33377, Note_on_c, 0, 63, 0
2, 33421, Note_on_c, 0, 68, 64
2, 33451, Note_on_c, 0, 68, 0
2, 33499, Note_on_c, 0, 60, 62
2, 33532, Note_on_c, 0, 60, 0
2, 33567, Note_on_c, 0, 68, 68
2, 33605, Note_on_c, 0, 68, 0
2, 33649, Note_on_c, 0, 78, 78
2, 33653, Note_on_c, 0, 56, 71
2, 33695, Note_on_c, 0, 56, 0
2, 33721, Note_on_c, 0, 78, 0
2, 33730, Note_on_c, 0, 68, 68
2, 33760, Note_on_c, 0, 68, 0
2, 33817, Note_on_c, 0, 63, 65
2, 33850, Note_on_c, 0, 63, 0
2, 33886, Note_on_c, 0, 68, 63
2, 33916, Note_on_c, 0, 68, 0
2, 33970, Note_on_c, 0, 60, 66
2, 34011, Note_on_c, 0, 60, 0
2, 34047, Note_on_c, 0, 68, 71
2, 34074, Note_on_c, 0, 68, 0
2, 34132, Note_on_c, 0, 77, 78
2, 34137, Note_on_c, 0, 56, 71
2, 34175, Note_on_c, 0, 56, 0
2, 34185, Note_on_c, 0, 77, 0
2, 34211, Note_on_c, 0, 68, 66
2, 34238, Note_on_c, 0, 68, 0
2, 34294, Note_on_c, 0, 65, 69
2, 34325, Note_on_c, 0, 65, 0
2, 34374, Note_on_c, 0, 68, 62
2, 34403, Note_on_c, 0, 68, 0
2, 34450, Note_on_c, 0, 61, 67
2, 34484, Note_on_c, 0, 61, 0
2, 34529, Note_on_c, 0, 68, 71
2, 34554, Note_on_c, 0, 68, 0
2, 34606, Note_on_c, 0, 56, 69
2, 34609, Note_on_c, 0, 77, 78
2, 34645, Note_on_c, 0, 56, 0
2, 34667, Note_on_c, 0, 77, 0
2, 34687, Note_on_c, 0, 68, 69
2, 34716, Note_on_c, 0, 68, 0
2, 34776, Note_on_c, 0, 65, 64
2, 34806, Note_on_c, 0, 65, 0
2, 34854, Note_on_c, 0, 68, 69
2, 34882, Note_on_c, 0, 68, 0
2, 34921, Note_on_c, 0, 61, 67
2, 34957, Note_on_c, 0, 61, 0
2, 35001, Note_on_c, 0, 68, 72
2, 35026, Note_on_c, 0, 68, 0
2, 35092, Note_on_c, 0, 56, 74
2, 35113, Note_on_c, 0, 79, 79
2, 35150, Note_on_c, 0, 56, 0
2, 35169, Note_on_c, 0, 79, 0
2, 35179, Note_on_c, 0, 70, 69
2, 35206, Note_on_c, 0, 70, 0
2, 35258, Note_on_c, 0, 64, 66
2, 35292, Note_on_c, 0, 64, 0
2, 35343, Note_on_c, 0, 70, 62
2, 35367, Note_on_c, 0, 70, 0
2, 35425, Note_on_c, 0, 61, 71
2, 35459, Note_on_c, 0, 61, 0
2, 35494, Note_on_c, 0, 70, 69
2, 35524, Note_on_c, 0, 70, 0
2, 35591, Note_on_c, 0, 56, 75
2, 35595, Note_on_c, 0, 79, 85
2, 35635, Note_on_c, 0, 56, 0
2, 35663, Note_on_c, 0, 79, 0
2, 35669, Note_on_c, 0, 70, 72
2, 35696, Note_on_c, 0, 70, 0
2, 35750, Note_on_c, 0, 64, 69
2, 35781, Note_on_c, 0, 64, 0
2, 35830, Note_on_c, 0, 70, 64
2, 35859, Note_on_c, 0, 70, 0
2, 35894, Note_on_c, 0, 61, 70
2, 35949, Note_on_c, 0, 61, 0
2, 35970, Note_on_c, 0, 70, 72
2, 35995, Note_on_c, 0, 70, 0
2, 36042, Note_on_c, 0, 80, 75
2, 36050, Note_on_c, 0, 56, 78
2, 36108, Note_on_c, 0, 80, 0
2, 36111, Note_on_c, 0, 56, 0
2, 36122, Note_on_c, 0, 72, 70
2, 36151, Note_on_c, 0, 72, 0
2, 36213, Note_on_c, 0, 63, 75
2, 36247, Note_on_c, 0, 63, 0
2, 36290, Note_on_c, 0, 72, 65
2, 36325, Note_on_c, 0, 72, 0
2, 36373, Note_on_c, 0, 60, 72
2, 36418, Note_on_c, 0, 60, 0
2, 36447, Note_on_c, 0, 72, 77
2, 36475, Note_on_c, 0, 72, 0
2, 36533, Note_on_c, 0, 54, 78
2, 36537, Note_on_c, 0, 80, 77
2, 36591, Note_on_c, 0, 54, 0
2, 36607, Note_on_c, 0, 80, 0
2, 36610, Note_on_c, 0, 72, 68
2, 36637, Note_on_c, 0, 72, 0
2, 36698, Note_on_c, 0, 63, 74
2, 36733, Note_on_c, 0, 63, 0
2, 36772, Note_on_c, 0, 72, 68
2, 36805, Note_on_c, 0, 72, 0
2, 36854, Note_on_c, 0, 60, 76
2, 36907, Note_on_c, 0, 60, 0
2, 36918, Note_on_c, 0, 72, 74
2, 36942, Note_on_c, 0, 72, 0
2, 37010, Note_on_c, 0, 80, 79
2, 37012, Note_on_c, 0, 53, 76
2, 37059, Note_on_c, 0, 53, 0
2, 37080, Note_on_c, 0, 80, 0
2, 37113, Note_on_c, 0, 73, 61
2, 37142, Note_on_c, 0, 73, 0
2, 37187, Note_on_c, 0, 65, 75
2, 37224, Note_on_c, 0, 65, 0
2, 37265, Note_on_c, 0, 68, 80
2, 37298, Note_on_c, 0, 68, 0
2, 37347, Note_on_c, 0, 61, 83
2, 37404, Note_on_c, 0, 61, 0
2, 37418, Note_on_c, 0, 73, 72
2, 37451, Note_on_c, 0, 73, 0
2, 37500, Note_on_c, 0, 56, 83
2, 37553, Note_on_c, 0, 56, 0
2, 37586, Note_on_c, 0, 77, 84
2, 37625, Note_on_c, 0, 77, 0
2, 37665, Note_on_c, 0, 53, 82
2, 37709, Note_on_c, 0, 53, 0
2, 37750, Note_on_c, 0, 80, 84
2, 37790, Note_on_c, 0, 80, 0
2, 37817, Note_on_c, 0, 51, 78
2, 37888, Note_on_c, 0, 51, 0
2, 37921, Note_on_c, 0, 83, 46
2, 37948, Note_on_c, 0, 83, 0
2, 37985, Note_on_c, 0, 50, 80
2, 37995, Note_on_c, 0, 83, 82
2, 38027, Note_on_c, 0, 50, 0
2, 38153, Note_on_c, 0, 53, 70
2, 38153, Note_on_c, 0, 83, 0
2, 38172, Note_on_c, 0, 81, 57
2, 38190, Note_on_c, 0, 80, 35
2, 38205, Note_on_c, 0, 53, 0
2, 38208, Note_on_c, 0, 81, 0
2, 38209, Note_on_c, 0, 80, 0
2, 38212, Note_on_c, 0, 78, 65
2, 38255, Note_on_c, 0, 78, 0
2, 38267, Note_on_c, 0, 77, 65
2, 38302, Note_on_c, 0, 58, 70
2, 38333, Note_on_c, 0, 77, 0
2, 38338, Note_on_c, 0, 75, 71
2, 38369, Note_on_c, 0, 58, 0
2, 38401, Note_on_c, 0, 75, 0
2, 38423, Note_on_c, 0, 77, 66
2, 38451, Note_on_c, 0, 62, 79
2, 38503, Note_on_c, 0, 62, 0
2, 38511, Note_on_c, 0, 77, 0
2, 38515, Note_on_c, 0, 78, 75
2, 38583, Note_on_c, 0, 78, 0
2, 38598, Note_on_c, 0, 80, 59
2, 38619, Note_on_c, 0, 65, 72
2, 38655, Note_on_c, 0, 65, 0
2, 38655, Note_on_c, 0, 80, 0
2, 38669, Note_on_c, 0, 83, 70
2, 38761, Note_on_c, 0, 82, 79
2, 38761, Note_on_c, 0, 83, 0
2, 38771, Note_on_c, 0, 68, 77
2, 38820, Note_on_c, 0, 68, 0
2, 38843, Note_on_c, 0, 80, 75
2, 38851, Note_on_c, 0, 82, 0
2, 38895, Note_on_c, 0, 80, 0
2, 38922, Note_on_c, 0, 82, 73
2, 38928, Note_on_c, 0, 66, 82
2, 38971, Note_on_c, 0, 66, 0
2, 38989, Note_on_c, 0, 82, 0
2, 39007, Note_on_c, 0, 75, 72
2, 39037, Note_on_c, 0, 75, 0
2, 39095, Note_on_c, 0, 63, 70
2, 39147, Note_on_c, 0, 63, 0
2, 39158, Note_on_c, 0, 66, 83
2, 39184, Note_on_c, 0, 66, 0
2, 39244, Note_on_c, 0, 58, 76
2, 39293, Note_on_c, 0, 58, 0
2, 39321, Note_on_c, 0, 70, 79
2, 39367, Note_on_c, 0, 70, 0
2, 39409, Note_on_c, 0, 54, 76
2, 39441, Note_on_c, 0, 54, 0
2, 39491, Note_on_c, 0, 75, 84
2, 39523, Note_on_c, 0, 75, 0
2, 39565, Note_on_c, 0, 51, 77
2, 39618, Note_on_c, 0, 51, 0
2, 39661, Note_on_c, 0, 78, 80
2, 39707, Note_on_c, 0, 78, 0
2, 39713, Note_on_c, 0, 49, 74
2, 39768, Note_on_c, 0, 49, 0
2, 39798, Note_on_c, 0, 80, 82
2, 39823, Note_on_c, 0, 80, 0
2, 39880, Note_on_c, 0, 48, 84
2, 39891, Note_on_c, 0, 81, 81
2, 39921, Note_on_c, 0, 48, 0
2, 39957, Note_on_c, 0, 80, 76
2, 39961, Note_on_c, 0, 81, 0
2, 40039, Note_on_c, 0, 78, 72
2, 40045, Note_on_c, 0, 51, 63
2, 40058, Note_on_c, 0, 80, 0
2, 40097, Note_on_c, 0, 51, 0
2, 40097, Note_on_c, 0, 78, 0
2, 40113, Note_on_c, 0, 76, 68
2, 40192, Note_on_c, 0, 76, 0
2, 40201, Note_on_c, 0, 75, 75
2, 40204, Note_on_c, 0, 56, 73
2, 40251, Note_on_c, 0, 56, 0
2, 40275, Note_on_c, 0, 73, 75
2, 40275, Note_on_c, 0, 75, 0
2, 40337, Note_on_c, 0, 73, 0
2, 40354, Note_on_c, 0, 75, 70
2, 40363, Note_on_c, 0, 60, 78
2, 40400, Note_on_c, 0, 75, 0
2, 40413, Note_on_c, 0, 60, 0
2, 40427, Note_on_c, 0, 76, 73
2, 40474, Note_on_c, 0, 76, 0
2, 40515, Note_on_c, 0, 78, 80
2, 40519, Note_on_c, 0, 63, 70
2, 40572, Note_on_c, 0, 78, 0
2, 40581, Note_on_c, 0, 63, 0
2, 40587, Note_on_c, 0, 81, 74
2, 40671, Note_on_c, 0, 80, 79
2, 40673, Note_on_c, 0, 81, 0
2, 40678, Note_on_c, 0, 66, 74
2, 40716, Note_on_c, 0, 66, 0
2, 40749, Note_on_c, 0, 78, 71
2, 40757, Note_on_c, 0, 80, 0
2, 40809, Note_on_c, 0, 78, 0
2, 40829, Note_on_c, 0, 80, 70
2, 40832, Note_on_c, 0, 64, 72
2, 40880, Note_on_c, 0, 64, 0
2, 40894, Note_on_c, 0, 80, 0
2, 40909, Note_on_c, 0, 73, 70
2, 40942, Note_on_c, 0, 73, 0
2, 40997, Note_on_c, 0, 61, 66
2, 41037, Note_on_c, 0, 61, 0
2, 41083, Note_on_c, 0, 76, 74
2, 41119, Note_on_c, 0, 76, 0
2, 41152, Note_on_c, 0, 57, 69
2, 41189, Note_on_c, 0, 57, 0
2, 41248, Note_on_c, 0, 73, 68
2, 41277, Note_on_c, 0, 73, 0
2, 41305, Note_on_c, 0, 54, 76
2, 41348, Note_on_c, 0, 54, 0
2, 41403, Note_on_c, 0, 69, 74
2, 41434, Note_on_c, 0, 69, 0
2, 41477, Note_on_c, 0, 63, 76
2, 41507, Note_on_c, 0, 63, 0
2, 41556, Note_on_c, 0, 66, 75
2, 41583, Note_on_c, 0, 66, 0
2, 41633, Note_on_c, 0, 60, 72
2, 41669, Note_on_c, 0, 60, 0
2, 41721, Note_on_c, 0, 75, 68
2, 41757, Note_on_c, 0, 75, 0
2, 41803, Note_on_c, 0, 52, 74
2, 41836, Note_on_c, 0, 52, 0
2, 41877, Note_on_c, 0, 68, 74
2, 41911, Note_on_c, 0, 68, 0
2, 41968, Note_on_c, 0, 61, 73
2, 41997, Note_on_c, 0, 61, 0
2, 42037, Note_on_c, 0, 64, 73
2, 42067, Note_on_c, 0, 64, 0
2, 42118, Note_on_c, 0, 57, 72
2, 42168, Note_on_c, 0, 57, 0
2, 42186, Note_on_c, 0, 73, 72
2, 42228, Note_on_c, 0, 73, 0
2, 42274, Note_on_c, 0, 54, 67
2, 42319, Note_on_c, 0, 54, 0
2, 42349, Note_on_c, 0, 69, 74
2, 42392, Note_on_c, 0, 69, 0
2, 42431, Note_on_c, 0, 51, 76
2, 42470, Note_on_c, 0, 51, 0
2, 42516, Note_on_c, 0, 66, 77
2, 42556, Note_on_c, 0, 66, 0
2, 42600, Note_on_c, 0, 48, 67
2, 42645, Note_on_c, 0, 48, 0
2, 42654, Note_on_c, 0, 63, 78
2, 42684, Note_on_c, 0, 63, 0
2, 42748, Note_on_c, 0, 44, 75
2, 42749, Note_on_c, 0, 60, 80
2, 42789, Note_on_c, 0, 44, 0
2, 42793, Note_on_c, 0, 60, 0
2, 42837, Note_on_c, 0, 56, 68
2, 42864, Note_on_c, 0, 56, 0
2, 42902, Note_on_c, 0, 54, 66
2, 42935, Note_on_c, 0, 54, 0
2, 42989, Note_on_c, 0, 56, 68
2, 43017, Note_on_c, 0, 56, 0
2, 43061, Note_on_c, 0, 51, 62
2, 43100, Note_on_c, 0, 51, 0
2, 43136, Note_on_c, 0, 56, 69
2, 43161, Note_on_c, 0, 56, 0
2, 43228, Note_on_c, 0, 44, 68
2, 43233, Note_on_c, 0, 60, 71
2, 43267, Note_on_c, 0, 44, 0
2, 43291, Note_on_c, 0, 60, 0
2, 43308, Note_on_c, 0, 56, 58
2, 43333, Note_on_c, 0, 56, 0
2, 43387, Note_on_c, 0, 54, 55
2, 43410, Note_on_c, 0, 54, 0
2, 43457, Note_on_c, 0, 56, 62
2, 43488, Note_on_c, 0, 56, 0
2, 43536, Note_on_c, 0, 51, 57
2, 43571, Note_on_c, 0, 51, 0
2, 43607, Note_on_c, 0, 56, 63
2, 43634, Note_on_c, 0, 56, 0
2, 43691, Note_on_c, 0, 61, 66
2, 43696, Note_on_c, 0, 44, 64
2, 43733, Note_on_c, 0, 44, 0
2, 43751, Note_on_c, 0, 61, 0
2, 43770, Note_on_c, 0, 56, 52
2, 43793, Note_on_c, 0, 56, 0
2, 43849, Note_on_c, 0, 53, 57
2, 43871, Note_on_c, 0, 53, 0
2, 43917, Note_on_c, 0, 56, 51
2, 43949, Note_on_c, 0, 56, 0
2, 44004, Note_on_c, 0, 49, 64
2, 44042, Note_on_c, 0, 49, 0
2, 44066, Note_on_c, 0, 56, 61
2, 44095, Note_on_c, 0, 56, 0
2, 44157, Note_on_c, 0, 61, 69
2, 44165, Note_on_c, 0, 44, 69
2, 44198, Note_on_c, 0, 61, 0
2, 44207, Note_on_c, 0, 44, 0
2, 44240, Note_on_c, 0, 56, 63
2, 44269, Note_on_c, 0, 56, 0
2, 44320, Note_on_c, 0, 53, 53
2, 44345, Note_on_c, 0, 53, 0
2, 44388, Note_on_c, 0, 56, 63
2, 44418, Note_on_c, 0, 56, 0
2, 44468, Note_on_c, 0, 49, 62
2, 44504, Note_on_c, 0, 49, 0
2, 44539, Note_on_c, 0, 56, 68
2, 44572, Note_on_c, 0, 56, 0
2, 44618, Note_on_c, 0, 66, 79
2, 44627, Note_on_c, 0, 44, 69
2, 44669, Note_on_c, 0, 44, 0
2, 44688, Note_on_c, 0, 66, 0
2, 44697, Note_on_c, 0, 56, 66
2, 44725, Note_on_c, 0, 56, 0
2, 44798, Note_on_c, 0, 51, 60
2, 44827, Note_on_c, 0, 51, 0
2, 44867, Note_on_c, 0, 56, 57
2, 44893, Note_on_c, 0, 56, 0
2, 44941, Note_on_c, 0, 48, 64
2, 44978, Note_on_c, 0, 48, 0
2, 45004, Note_on_c, 0, 56, 69
2, 45042, Note_on_c, 0, 56, 0
2, 45097, Note_on_c, 0, 66, 81
2, 45100, Note_on_c, 0, 44, 72
2, 45145, Note_on_c, 0, 44, 0
2, 45167, Note_on_c, 0, 56, 71
2, 45167, Note_on_c, 0, 66, 0
2, 45197, Note_on_c, 0, 56, 0
2, 45257, Note_on_c, 0, 51, 65
2, 45288, Note_on_c, 0, 51, 0
2, 45315, Note_on_c, 0, 56, 66
2, 45344, Note_on_c, 0, 56, 0
2, 45402, Note_on_c, 0, 48, 64
2, 45442, Note_on_c, 0, 48, 0
2, 45460, Note_on_c, 0, 56, 68
2, 45489, Note_on_c, 0, 56, 0
2, 45559, Note_on_c, 0, 44, 76
2, 45562, Note_on_c, 0, 65, 84
2, 45604, Note_on_c, 0, 44, 0
2, 45623, Note_on_c, 0, 65, 0
2, 45632, Note_on_c, 0, 56, 69
2, 45662, Note_on_c, 0, 56, 0
2, 45724, Note_on_c, 0, 53, 66
2, 45754, Note_on_c, 0, 53, 0
2, 45809, Note_on_c, 0, 56, 58
2, 45834, Note_on_c, 0, 56, 0
2, 45876, Note_on_c, 0, 49, 69
2, 45914, Note_on_c, 0, 49, 0
2, 45939, Note_on_c, 0, 56, 71
2, 45974, Note_on_c, 0, 56, 0
2, 46028, Note_on_c, 0, 44, 73
2, 46030, Note_on_c, 0, 65, 82
2, 46072, Note_on_c, 0, 44, 0
2, 46089, Note_on_c, 0, 65, 0
2, 46096, Note_on_c, 0, 56, 72
2, 46124, Note_on_c, 0, 56, 0
2, 46186, Note_on_c, 0, 53, 67
2, 46217, Note_on_c, 0, 53, 0
2, 46246, Note_on_c, 0, 56, 64
2, 46279, Note_on_c, 0, 56, 0
2, 46334, Note_on_c, 0, 49, 70
2, 46380, Note_on_c, 0, 49, 0
2, 46388, Note_on_c, 0, 56, 74
2, 46417, Note_on_c, 0, 56, 0
2, 46482, Note_on_c, 0, 67, 86
2, 46485, Note_on_c, 0, 44, 76
2, 46528, Note_on_c, 0, 44, 0
2, 46549, Note_on_c, 0, 67, 0
2, 46556, Note_on_c, 0, 58, 73
2, 46585, Note_on_c, 0, 58, 0
2, 46644, Note_on_c, 0, 52, 75
2, 46674, Note_on_c, 0, 52, 0
2, 46715, Note_on_c, 0, 58, 64
2, 46745, Note_on_c, 0, 58, 0
2, 46792, Note_on_c, 0, 49, 75
2, 46834, Note_on_c, 0, 49, 0
2, 46850, Note_on_c, 0, 58, 71
2, 46883, Note_on_c, 0, 58, 0
2, 46942, Note_on_c, 0, 44, 78
2, 46945, Note_on_c, 0, 67, 81
2, 46993, Note_on_c, 0, 44, 0
2, 47015, Note_on_c, 0, 67, 0
2, 47019, Note_on_c, 0, 58, 71
2, 47051, Note_on_c, 0, 58, 0
2, 47104, Note_on_c, 0, 52, 74
2, 47135, Note_on_c, 0, 52, 0
2, 47180, Note_on_c, 0, 58, 66
2, 47214, Note_on_c, 0, 58, 0
2, 47257, Note_on_c, 0, 49, 65
2, 47287, Note_on_c, 0, 49, 0
2, 47308, Note_on_c, 0, 58, 83
2, 47357, Note_on_c, 0, 58, 0
2, 47415, Note_on_c, 0, 44, 74
2, 47507, Note_on_c, 0, 48, 75
2, 47532, Note_on_c, 0, 44, 0
2, 47591, Note_on_c, 0, 48, 0
2, 47591, Note_on_c, 0, 51, 89
2, 47623, Note_on_c, 0, 51, 0
2, 47658, Note_on_c, 0, 54, 77
2, 47701, Note_on_c, 0, 54, 0
2, 47748, Note_on_c, 0, 57, 75
2, 47816, Note_on_c, 0, 60, 79
2, 47819, Note_on_c, 0, 57, 0
2, 47879, Note_on_c, 0, 60, 0
2, 47898, Note_on_c, 0, 61, 69
2, 47971, Note_on_c, 0, 64, 78
2, 47980, Note_on_c, 0, 61, 0
2, 48059, Note_on_c, 0, 64, 0
2, 48059, Note_on_c, 0, 67, 85
2, 48097, Note_on_c, 0, 70, 79
2, 48099, Note_on_c, 0, 67, 0
2, 48178, Note_on_c, 0, 70, 0
2, 48178, Note_on_c, 0, 73, 69
2, 48238, Note_on_c, 0, 76, 70
2, 48239, Note_on_c, 0, 73, 0
2, 48284, Note_on_c, 0, 76, 0
2, 48330, Note_on_c, 0, 72, 77
2, 48357, Note_on_c, 0, 44, 73
2, 48378, Note_on_c, 0, 42, 14
2, 48379, Note_on_c, 0, 42, 0
2, 48410, Note_on_c, 0, 75, 76
2, 48415, Note_on_c, 0, 72, 0
2, 48470, Note_on_c, 0, 75, 0
2, 48482, Note_on_c, 0, 78, 69
2, 48553, Note_on_c, 0, 75, 67
2, 48566, Note_on_c, 0, 78, 0
2, 48606, Note_on_c, 0, 75, 0
2, 48635, Note_on_c, 0, 72, 67
2, 48661, Note_on_c, 0, 72, 0
2, 48698, Note_on_c, 0, 44, 0
2, 48722, Note_on_c, 0, 68, 75
2, 48804, Note_on_c, 0, 66, 71
2, 48833, Note_on_c, 0, 68, 0
2, 48876, Note_on_c, 0, 63, 80
2, 48882, Note_on_c, 0, 66, 0
2, 48957, Note_on_c, 0, 63, 0
2, 48960, Note_on_c, 0, 60, 80
2, 49006, Note_on_c, 0, 56, 72
2, 49012, Note_on_c, 0, 60, 0
2, 49102, Note_on_c, 0, 60, 72
2, 49107, Note_on_c, 0, 56, 0
2, 49168, Note_on_c, 0, 60, 0
2, 49175, Note_on_c, 0, 63, 80
2, 49244, Note_on_c, 0, 65, 78
2, 49257, Note_on_c, 0, 63, 0
2, 49260, Note_on_c, 0, 56, 76
2, 49325, Note_on_c, 0, 65, 0
2, 49332, Note_on_c, 0, 68, 75
2, 49387, Note_on_c, 0, 68, 0
2, 49401, Note_on_c, 0, 73, 66
2, 49477, Note_on_c, 0, 68, 71
2, 49494, Note_on_c, 0, 73, 0
2, 49515, Note_on_c, 0, 68, 0
2, 49547, Note_on_c, 0, 65, 66
2, 49577, Note_on_c, 0, 65, 0
2, 49583, Note_on_c, 0, 56, 0
2, 49635, Note_on_c, 0, 61, 70
2, 49712, Note_on_c, 0, 58, 80
2, 49732, Note_on_c, 0, 61, 0
2, 49794, Note_on_c, 0, 55, 79
2, 49794, Note_on_c, 0, 58, 0
2, 49860, Note_on_c, 0, 55, 0
2, 49880, Note_on_c, 0, 52, 81
2, 49937, Note_on_c, 0, 52, 0
2, 49941, Note_on_c, 0, 49, 74
2, 50037, Note_on_c, 0, 52, 72
2, 50046, Note_on_c, 0, 49, 0
2, 50105, Note_on_c, 0, 52, 0
2, 50107, Note_on_c, 0, 55, 79
2, 50177, Note_on_c, 0, 55, 0
2, 50228, Note_on_c, 0, 44, 80
2, 50469, Note_on_c, 0, 73, 84
2, 50471, Note_on_c, 0, 53, 72
2, 50472, Note_on_c, 0, 56, 78
2, 50472, Note_on_c, 0, 65, 87
2, 50475, Note_on_c, 0, 68, 81
2, 50484, Note_on_c, 0, 49, 59
2, 50513, Note_on_c, 0, 65, 0
2, 50521, Note_on_c, 0, 68, 0
2, 50537, Note_on_c, 0, 73, 0
2, 50545, Note_on_c, 0, 53, 0
2, 50547, Note_on_c, 0, 56, 0
2, 50570, Note_on_c, 0, 49, 0
2, 50764, Note_on_c, 0, 68, 76
2, 50765, Note_on_c, 0, 54, 70
2, 50765, Note_on_c, 0, 56, 81
2, 50765, Note_on_c, 0, 63, 82
2, 50767, Note_on_c, 0, 72, 78
2, 50775, Note_on_c, 0, 51, 64
2, 50811, Note_on_c, 0, 68, 0
2, 50816, Note_on_c, 0, 63, 0
2, 50833, Note_on_c, 0, 56, 0
2, 50845, Note_on_c, 0, 72, 0
2, 50851, Note_on_c, 0, 51, 0
2, 50851, Note_on_c, 0, 54, 0
2, 51166, Note_on_c, 0, 73, 79
2, 51172, Note_on_c, 0, 56, 67
2, 51172, Note_on_c, 0, 61, 75
2, 51176, Note_on_c, 0, 49, 49
2, 51177, Note_on_c, 0, 68, 73
2, 51180, Note_on_c, 0, 53, 63
2, 51242, Note_on_c, 0, 44, 0
2, 52776, Note_on_c, 0, 61, 0
2, 52828, Note_on_c, 0, 56, 0
2, 52842, Note_on_c, 0, 68, 0
2, 52847, Note_on_c, 0, 53, 0
2, 52847, Note_on_c, 0, 73, 0
2, 52857, Note_on_c, 0, 49, 0
2, 53236,End_track
0, 0, End_of_file
