0, 0, Header, 1, 2, 384
1, 0, Start_track
1, 0, Tempo, 500000
1, 0, Time_signature, 4, 2, 24, 8
1, 1, End_track
2, 0, Start_track
2, 0, Title_t, "Denisova06-10.MID"
2, 0, Program_c, 0, 0
2, 790, Note_on_c, 0, 49, 53
2, 792, Note_on_c, 0, 77, 69
2, 867, Note_on_c, 0, 77, 0
2, 868, Note_on_c, 0, 73, 64
2, 904, Note_on_c, 0, 73, 0
2, 936, Note_on_c, 0, 68, 66
2, 954, Note_on_c, 0, 49, 0
2, 997, Note_on_c, 0, 68, 0
2, 1040, Note_on_c, 0, 73, 34
2, 1072, Note_on_c, 0, 73, 0
2, 1103, Note_on_c, 0, 61, 62
2, 1103, Note_on_c, 0, 77, 48
2, 1133, Note_on_c, 0, 61, 0
2, 1136, Note_on_c, 0, 77, 0
2, 1163, Note_on_c, 0, 73, 69
2, 1220, Note_on_c, 0, 73, 0
2, 1258, Note_on_c, 0, 78, 75
2, 1259, Note_on_c, 0, 51, 54
2, 1307, Note_on_c, 0, 78, 0
2, 1336, Note_on_c, 0, 73, 64
2, 1393, Note_on_c, 0, 73, 0
2, 1413, Note_on_c, 0, 78, 79
2, 1424, Note_on_c, 0, 51, 0
2, 1445, Note_on_c, 0, 78, 0
2, 1494, Note_on_c, 0, 73, 64
2, 1540, Note_on_c, 0, 73, 0
2, 1558, Note_on_c, 0, 78, 76
2, 1574, Note_on_c, 0, 61, 62
2, 1603, Note_on_c, 0, 78, 0
2, 1606, Note_on_c, 0, 61, 0
2, 1638, Note_on_c, 0, 73, 68
2, 1699, Note_on_c, 0, 73, 0
2, 1723, Note_on_c, 0, 80, 78
2, 1727, Note_on_c, 0, 53, 64
2, 1777, Note_on_c, 0, 80, 0
2, 1813, Note_on_c, 0, 73, 65
2, 1864, Note_on_c, 0, 73, 0
2, 1886, Note_on_c, 0, 80, 78
2, 1913, Note_on_c, 0, 53, 0
2, 1933, Note_on_c, 0, 80, 0
2, 1970, Note_on_c, 0, 73, 67
2, 2021, Note_on_c, 0, 73, 0
2, 2037, Note_on_c, 0, 80, 83
2, 2042, Note_on_c, 0, 61, 57
2, 2077, Note_on_c, 0, 61, 0
2, 2090, Note_on_c, 0, 80, 0
2, 2113, Note_on_c, 0, 73, 64
2, 2171, Note_on_c, 0, 73, 0
2, 2198, Note_on_c, 0, 54, 62
2, 2199, Note_on_c, 0, 82, 78
2, 2245, Note_on_c, 0, 82, 0
2, 2277, Note_on_c, 0, 73, 64
2, 2340, Note_on_c, 0, 73, 0
2, 2349, Note_on_c, 0, 82, 79
2, 2390, Note_on_c, 0, 54, 0
2, 2394, Note_on_c, 0, 82, 0
2, 2432, Note_on_c, 0, 73, 63
2, 2494, Note_on_c, 0, 73, 0
2, 2503, Note_on_c, 0, 82, 73
2, 2531, Note_on_c, 0, 61, 59
2, 2552, Note_on_c, 0, 82, 0
2, 2567, Note_on_c, 0, 61, 0
2, 2585, Note_on_c, 0, 73, 59
2, 2655, Note_on_c, 0, 73, 0
2, 2676, Note_on_c, 0, 53, 60
2, 2679, Note_on_c, 0, 80, 72
2, 2721, Note_on_c, 0, 80, 0
2, 2749, Note_on_c, 0, 73, 61
2, 2815, Note_on_c, 0, 73, 0
2, 2835, Note_on_c, 0, 80, 72
2, 2866, Note_on_c, 0, 53, 0
2, 2875, Note_on_c, 0, 80, 0
2, 2909, Note_on_c, 0, 73, 60
2, 2959, Note_on_c, 0, 73, 0
2, 2978, Note_on_c, 0, 61, 62
2, 2981, Note_on_c, 0, 80, 68
2, 3014, Note_on_c, 0, 80, 0
2, 3023, Note_on_c, 0, 61, 0
2, 3039, Note_on_c, 0, 73, 58
2, 3094, Note_on_c, 0, 73, 0
2, 3127, Note_on_c, 0, 78, 70
2, 3137, Note_on_c, 0, 51, 63
2, 3194, Note_on_c, 0, 78, 0
2, 3203, Note_on_c, 0, 77, 74
2, 3260, Note_on_c, 0, 77, 0
2, 3277, Note_on_c, 0, 75, 72
2, 3300, Note_on_c, 0, 51, 0
2, 3344, Note_on_c, 0, 75, 0
2, 3350, Note_on_c, 0, 77, 70
2, 3436, Note_on_c, 0, 77, 0
2, 3436, Note_on_c, 0, 78, 71
2, 3445, Note_on_c, 0, 60, 65
2, 3470, Note_on_c, 0, 78, 0
2, 3494, Note_on_c, 0, 60, 0
2, 3507, Note_on_c, 0, 75, 69
2, 3534, Note_on_c, 0, 75, 0
2, 3592, Note_on_c, 0, 77, 69
2, 3599, Note_on_c, 0, 49, 68
2, 3669, Note_on_c, 0, 77, 0
2, 3675, Note_on_c, 0, 75, 73
2, 3732, Note_on_c, 0, 75, 0
2, 3741, Note_on_c, 0, 73, 72
2, 3750, Note_on_c, 0, 49, 0
2, 3809, Note_on_c, 0, 73, 0
2, 3811, Note_on_c, 0, 75, 64
2, 3884, Note_on_c, 0, 75, 0
2, 3895, Note_on_c, 0, 77, 70
2, 3906, Note_on_c, 0, 61, 71
2, 3947, Note_on_c, 0, 77, 0
2, 3972, Note_on_c, 0, 73, 77
2, 4066, Note_on_c, 0, 73, 0
2, 4066, Note_on_c, 0, 75, 72
2, 4085, Note_on_c, 0, 61, 0
2, 4128, Note_on_c, 0, 75, 0
2, 4137, Note_on_c, 0, 77, 69
2, 4203, Note_on_c, 0, 77, 0
2, 4215, Note_on_c, 0, 75, 69
2, 4224, Note_on_c, 0, 60, 61
2, 4282, Note_on_c, 0, 75, 0
2, 4286, Note_on_c, 0, 60, 0
2, 4287, Note_on_c, 0, 58, 69
2, 4289, Note_on_c, 0, 73, 73
2, 4346, Note_on_c, 0, 73, 0
2, 4349, Note_on_c, 0, 58, 0
2, 4362, Note_on_c, 0, 56, 64
2, 4367, Note_on_c, 0, 72, 69
2, 4419, Note_on_c, 0, 72, 0
2, 4442, Note_on_c, 0, 70, 73
2, 4449, Note_on_c, 0, 58, 62
2, 4454, Note_on_c, 0, 56, 0
2, 4491, Note_on_c, 0, 58, 0
2, 4527, Note_on_c, 0, 68, 75
2, 4533, Note_on_c, 0, 60, 63
2, 4533, Note_on_c, 0, 70, 0
2, 4569, Note_on_c, 0, 60, 0
2, 4604, Note_on_c, 0, 56, 67
2, 4659, Note_on_c, 0, 56, 0
2, 4677, Note_on_c, 0, 51, 66
2, 4697, Note_on_c, 0, 68, 0
2, 4752, Note_on_c, 0, 56, 64
2, 4781, Note_on_c, 0, 51, 0
2, 4815, Note_on_c, 0, 56, 0
2, 4848, Note_on_c, 0, 60, 64
2, 4854, Note_on_c, 0, 80, 60
2, 4878, Note_on_c, 0, 60, 0
2, 4923, Note_on_c, 0, 80, 0
2, 4925, Note_on_c, 0, 56, 64
2, 4995, Note_on_c, 0, 56, 0
2, 5025, Note_on_c, 0, 61, 69
2, 5025, Note_on_c, 0, 70, 75
2, 5068, Note_on_c, 0, 61, 0
2, 5108, Note_on_c, 0, 56, 64
2, 5150, Note_on_c, 0, 56, 0
2, 5181, Note_on_c, 0, 61, 66
2, 5218, Note_on_c, 0, 70, 0
2, 5244, Note_on_c, 0, 61, 0
2, 5261, Note_on_c, 0, 56, 68
2, 5312, Note_on_c, 0, 56, 0
2, 5346, Note_on_c, 0, 61, 67
2, 5347, Note_on_c, 0, 80, 69
2, 5406, Note_on_c, 0, 61, 0
2, 5406, Note_on_c, 0, 80, 0
2, 5423, Note_on_c, 0, 56, 70
2, 5481, Note_on_c, 0, 56, 0
2, 5516, Note_on_c, 0, 72, 76
2, 5520, Note_on_c, 0, 63, 69
2, 5566, Note_on_c, 0, 63, 0
2, 5595, Note_on_c, 0, 56, 70
2, 5648, Note_on_c, 0, 56, 0
2, 5691, Note_on_c, 0, 63, 65
2, 5695, Note_on_c, 0, 72, 0
2, 5735, Note_on_c, 0, 63, 0
2, 5754, Note_on_c, 0, 56, 70
2, 5819, Note_on_c, 0, 56, 0
2, 5839, Note_on_c, 0, 80, 74
2, 5842, Note_on_c, 0, 63, 71
2, 5885, Note_on_c, 0, 63, 0
2, 5898, Note_on_c, 0, 80, 0
2, 5903, Note_on_c, 0, 56, 65
2, 5981, Note_on_c, 0, 56, 0
2, 6013, Note_on_c, 0, 65, 72
2, 6013, Note_on_c, 0, 73, 79
2, 6056, Note_on_c, 0, 65, 0
2, 6087, Note_on_c, 0, 56, 72
2, 6150, Note_on_c, 0, 56, 0
2, 6173, Note_on_c, 0, 65, 71
2, 6208, Note_on_c, 0, 73, 0
2, 6223, Note_on_c, 0, 65, 0
2, 6258, Note_on_c, 0, 56, 70
2, 6320, Note_on_c, 0, 56, 0
2, 6328, Note_on_c, 0, 80, 71
2, 6341, Note_on_c, 0, 65, 65
2, 6383, Note_on_c, 0, 65, 0
2, 6388, Note_on_c, 0, 80, 0
2, 6428, Note_on_c, 0, 56, 64
2, 6484, Note_on_c, 0, 56, 0
2, 6515, Note_on_c, 0, 63, 70
2, 6515, Note_on_c, 0, 72, 71
2, 6571, Note_on_c, 0, 63, 0
2, 6593, Note_on_c, 0, 56, 66
2, 6640, Note_on_c, 0, 56, 0
2, 6674, Note_on_c, 0, 63, 66
2, 6676, Note_on_c, 0, 72, 0
2, 6732, Note_on_c, 0, 63, 0
2, 6752, Note_on_c, 0, 56, 65
2, 6799, Note_on_c, 0, 56, 0
2, 6825, Note_on_c, 0, 80, 69
2, 6835, Note_on_c, 0, 63, 67
2, 6876, Note_on_c, 0, 80, 0
2, 6878, Note_on_c, 0, 63, 0
2, 6900, Note_on_c, 0, 56, 66
2, 7001, Note_on_c, 0, 56, 0
2, 7001, Note_on_c, 0, 70, 75
2, 7002, Note_on_c, 0, 61, 67
2, 7050, Note_on_c, 0, 61, 0
2, 7066, Note_on_c, 0, 60, 68
2, 7150, Note_on_c, 0, 60, 0
2, 7162, Note_on_c, 0, 58, 68
2, 7180, Note_on_c, 0, 70, 0
2, 7226, Note_on_c, 0, 58, 0
2, 7228, Note_on_c, 0, 60, 70
2, 7299, Note_on_c, 0, 60, 0
2, 7322, Note_on_c, 0, 79, 72
2, 7327, Note_on_c, 0, 61, 75
2, 7364, Note_on_c, 0, 79, 0
2, 7368, Note_on_c, 0, 61, 0
2, 7390, Note_on_c, 0, 58, 68
2, 7453, Note_on_c, 0, 58, 0
2, 7488, Note_on_c, 0, 68, 76
2, 7489, Note_on_c, 0, 60, 68
2, 7549, Note_on_c, 0, 60, 0
2, 7567, Note_on_c, 0, 58, 74
2, 7643, Note_on_c, 0, 58, 0
2, 7649, Note_on_c, 0, 56, 68
2, 7661, Note_on_c, 0, 68, 0
2, 7722, Note_on_c, 0, 58, 69
2, 7736, Note_on_c, 0, 56, 0
2, 7803, Note_on_c, 0, 58, 0
2, 7809, Note_on_c, 0, 80, 77
2, 7816, Note_on_c, 0, 60, 72
2, 7877, Note_on_c, 0, 60, 0
2, 7885, Note_on_c, 0, 56, 77
2, 7982, Note_on_c, 0, 56, 0
2, 7982, Note_on_c, 0, 58, 76
2, 8009, Note_on_c, 0, 80, 0
2, 8044, Note_on_c, 0, 58, 0
2, 8062, Note_on_c, 0, 59, 67
2, 8132, Note_on_c, 0, 59, 0
2, 8133, Note_on_c, 0, 78, 71
2, 8142, Note_on_c, 0, 58, 65
2, 8203, Note_on_c, 0, 56, 69
2, 8214, Note_on_c, 0, 58, 0
2, 8214, Note_on_c, 0, 77, 70
2, 8225, Note_on_c, 0, 78, 0
2, 8282, Note_on_c, 0, 77, 0
2, 8285, Note_on_c, 0, 54, 61
2, 8285, Note_on_c, 0, 56, 0
2, 8291, Note_on_c, 0, 75, 72
2, 8329, Note_on_c, 0, 54, 0
2, 8359, Note_on_c, 0, 75, 0
2, 8360, Note_on_c, 0, 77, 60
2, 8371, Note_on_c, 0, 53, 66
2, 8419, Note_on_c, 0, 53, 0
2, 8444, Note_on_c, 0, 77, 0
2, 8450, Note_on_c, 0, 51, 63
2, 8463, Note_on_c, 0, 78, 57
2, 8538, Note_on_c, 0, 75, 62
2, 8549, Note_on_c, 0, 78, 0
2, 8573, Note_on_c, 0, 75, 0
2, 8608, Note_on_c, 0, 70, 68
2, 8622, Note_on_c, 0, 51, 0
2, 8674, Note_on_c, 0, 70, 0
2, 8698, Note_on_c, 0, 75, 62
2, 8753, Note_on_c, 0, 75, 0
2, 8773, Note_on_c, 0, 63, 57
2, 8774, Note_on_c, 0, 78, 71
2, 8807, Note_on_c, 0, 63, 0
2, 8810, Note_on_c, 0, 78, 0
2, 8851, Note_on_c, 0, 75, 65
2, 8899, Note_on_c, 0, 75, 0
2, 8931, Note_on_c, 0, 80, 75
2, 8934, Note_on_c, 0, 53, 55
2, 8988, Note_on_c, 0, 80, 0
2, 9014, Note_on_c, 0, 75, 72
2, 9076, Note_on_c, 0, 75, 0
2, 9098, Note_on_c, 0, 80, 78
2, 9127, Note_on_c, 0, 53, 0
2, 9140, Note_on_c, 0, 80, 0
2, 9177, Note_on_c, 0, 75, 69
2, 9237, Note_on_c, 0, 75, 0
2, 9253, Note_on_c, 0, 80, 77
2, 9259, Note_on_c, 0, 63, 65
2, 9292, Note_on_c, 0, 63, 0
2, 9300, Note_on_c, 0, 80, 0
2, 9322, Note_on_c, 0, 75, 66
2, 9387, Note_on_c, 0, 75, 0
2, 9414, Note_on_c, 0, 82, 77
2, 9419, Note_on_c, 0, 54, 67
2, 9473, Note_on_c, 0, 82, 0
2, 9499, Note_on_c, 0, 75, 70
2, 9564, Note_on_c, 0, 75, 0
2, 9577, Note_on_c, 0, 82, 79
2, 9626, Note_on_c, 0, 82, 0
2, 9636, Note_on_c, 0, 54, 0
2, 9653, Note_on_c, 0, 75, 67
2, 9721, Note_on_c, 0, 75, 0
2, 9732, Note_on_c, 0, 82, 79
2, 9752, Note_on_c, 0, 63, 62
2, 9785, Note_on_c, 0, 82, 0
2, 9792, Note_on_c, 0, 63, 0
2, 9803, Note_on_c, 0, 75, 73
2, 9872, Note_on_c, 0, 75, 0
2, 9911, Note_on_c, 0, 83, 79
2, 9912, Note_on_c, 0, 56, 68
2, 9964, Note_on_c, 0, 83, 0
2, 9982, Note_on_c, 0, 75, 70
2, 10059, Note_on_c, 0, 75, 0
2, 10074, Note_on_c, 0, 83, 76
2, 10116, Note_on_c, 0, 83, 0
2, 10125, Note_on_c, 0, 56, 0
2, 10153, Note_on_c, 0, 75, 65
2, 10233, Note_on_c, 0, 75, 0
2, 10242, Note_on_c, 0, 83, 73
2, 10252, Note_on_c, 0, 63, 59
2, 10288, Note_on_c, 0, 83, 0
2, 10290, Note_on_c, 0, 63, 0
2, 10319, Note_on_c, 0, 75, 62
2, 10394, Note_on_c, 0, 75, 0
2, 10408, Note_on_c, 0, 54, 60
2, 10411, Note_on_c, 0, 82, 70
2, 10454, Note_on_c, 0, 82, 0
2, 10484, Note_on_c, 0, 75, 61
2, 10557, Note_on_c, 0, 75, 0
2, 10572, Note_on_c, 0, 82, 71
2, 10612, Note_on_c, 0, 82, 0
2, 10620, Note_on_c, 0, 54, 0
2, 10644, Note_on_c, 0, 75, 59
2, 10710, Note_on_c, 0, 75, 0
2, 10721, Note_on_c, 0, 63, 61
2, 10723, Note_on_c, 0, 82, 69
2, 10757, Note_on_c, 0, 63, 0
2, 10759, Note_on_c, 0, 82, 0
2, 10789, Note_on_c, 0, 75, 56
2, 10839, Note_on_c, 0, 75, 0
2, 10879, Note_on_c, 0, 80, 70
2, 10885, Note_on_c, 0, 53, 57
2, 10956, Note_on_c, 0, 78, 68
2, 10957, Note_on_c, 0, 80, 0
2, 11025, Note_on_c, 0, 78, 0
2, 11035, Note_on_c, 0, 53, 0
2, 11043, Note_on_c, 0, 77, 69
2, 11095, Note_on_c, 0, 77, 0
2, 11114, Note_on_c, 0, 78, 66
2, 11183, Note_on_c, 0, 78, 0
2, 11193, Note_on_c, 0, 80, 72
2, 11195, Note_on_c, 0, 62, 65
2, 11234, Note_on_c, 0, 80, 0
2, 11245, Note_on_c, 0, 62, 0
2, 11269, Note_on_c, 0, 77, 67
2, 11306, Note_on_c, 0, 77, 0
2, 11352, Note_on_c, 0, 78, 70
2, 11360, Note_on_c, 0, 51, 67
2, 11435, Note_on_c, 0, 77, 61
2, 11469, Note_on_c, 0, 78, 0
2, 11502, Note_on_c, 0, 77, 0
2, 11504, Note_on_c, 0, 75, 72
2, 11509, Note_on_c, 0, 51, 0
2, 11566, Note_on_c, 0, 75, 0
2, 11582, Note_on_c, 0, 77, 57
2, 11643, Note_on_c, 0, 63, 70
2, 11652, Note_on_c, 0, 77, 0
2, 11652, Note_on_c, 0, 78, 66
2, 11723, Note_on_c, 0, 78, 0
2, 11736, Note_on_c, 0, 75, 74
2, 11813, Note_on_c, 0, 63, 0
2, 11815, Note_on_c, 0, 75, 0
2, 11819, Note_on_c, 0, 77, 68
2, 11888, Note_on_c, 0, 77, 0
2, 11888, Note_on_c, 0, 78, 69
2, 11952, Note_on_c, 0, 61, 64
2, 11966, Note_on_c, 0, 77, 60
2, 11971, Note_on_c, 0, 78, 0
2, 12018, Note_on_c, 0, 61, 0
2, 12025, Note_on_c, 0, 60, 69
2, 12036, Note_on_c, 0, 77, 0
2, 12043, Note_on_c, 0, 75, 66
2, 12081, Note_on_c, 0, 60, 0
2, 12097, Note_on_c, 0, 58, 61
2, 12100, Note_on_c, 0, 75, 0
2, 12123, Note_on_c, 0, 73, 73
2, 12173, Note_on_c, 0, 73, 0
2, 12175, Note_on_c, 0, 60, 54
2, 12195, Note_on_c, 0, 72, 59
2, 12216, Note_on_c, 0, 58, 0
2, 12251, Note_on_c, 0, 60, 0
2, 12266, Note_on_c, 0, 61, 70
2, 12281, Note_on_c, 0, 70, 78
2, 12303, Note_on_c, 0, 72, 0
2, 12354, Note_on_c, 0, 58, 64
2, 12363, Note_on_c, 0, 61, 0
2, 12427, Note_on_c, 0, 58, 0
2, 12443, Note_on_c, 0, 53, 67
2, 12443, Note_on_c, 0, 70, 0
2, 12509, Note_on_c, 0, 53, 0
2, 12513, Note_on_c, 0, 58, 54
2, 12601, Note_on_c, 0, 58, 0
2, 12609, Note_on_c, 0, 82, 71
2, 12611, Note_on_c, 0, 61, 63
2, 12666, Note_on_c, 0, 82, 0
2, 12667, Note_on_c, 0, 61, 0
2, 12688, Note_on_c, 0, 58, 62
2, 12734, Note_on_c, 0, 58, 0
2, 12773, Note_on_c, 0, 63, 64
2, 12780, Note_on_c, 0, 72, 74
2, 12823, Note_on_c, 0, 63, 0
2, 12850, Note_on_c, 0, 58, 68
2, 12894, Note_on_c, 0, 58, 0
2, 12933, Note_on_c, 0, 63, 66
2, 12957, Note_on_c, 0, 72, 0
2, 12990, Note_on_c, 0, 63, 0
2, 13006, Note_on_c, 0, 58, 67
2, 13055, Note_on_c, 0, 58, 0
2, 13091, Note_on_c, 0, 63, 67
2, 13101, Note_on_c, 0, 82, 58
2, 13135, Note_on_c, 0, 63, 0
2, 13144, Note_on_c, 0, 82, 0
2, 13155, Note_on_c, 0, 58, 69
2, 13229, Note_on_c, 0, 58, 0
2, 13265, Note_on_c, 0, 65, 67
2, 13274, Note_on_c, 0, 73, 76
2, 13324, Note_on_c, 0, 65, 0
2, 13351, Note_on_c, 0, 58, 67
2, 13422, Note_on_c, 0, 58, 0
2, 13441, Note_on_c, 0, 65, 68
2, 13473, Note_on_c, 0, 73, 0
2, 13487, Note_on_c, 0, 65, 0
2, 13526, Note_on_c, 0, 58, 68
2, 13584, Note_on_c, 0, 58, 0
2, 13590, Note_on_c, 0, 82, 68
2, 13603, Note_on_c, 0, 65, 62
2, 13642, Note_on_c, 0, 65, 0
2, 13651, Note_on_c, 0, 82, 0
2, 13675, Note_on_c, 0, 58, 66
2, 13732, Note_on_c, 0, 58, 0
2, 13771, Note_on_c, 0, 66, 68
2, 13777, Note_on_c, 0, 75, 77
2, 13810, Note_on_c, 0, 66, 0
2, 13843, Note_on_c, 0, 58, 64
2, 13887, Note_on_c, 0, 58, 0
2, 13924, Note_on_c, 0, 66, 66
2, 13964, Note_on_c, 0, 66, 0
2, 13974, Note_on_c, 0, 75, 0
2, 13996, Note_on_c, 0, 58, 67
2, 14050, Note_on_c, 0, 58, 0
2, 14089, Note_on_c, 0, 66, 68
2, 14109, Note_on_c, 0, 82, 70
2, 14137, Note_on_c, 0, 66, 0
2, 14163, Note_on_c, 0, 58, 65
2, 14168, Note_on_c, 0, 82, 0
2, 14230, Note_on_c, 0, 58, 0
2, 14271, Note_on_c, 0, 65, 63
2, 14285, Note_on_c, 0, 73, 74
2, 14313, Note_on_c, 0, 65, 0
2, 14346, Note_on_c, 0, 58, 67
2, 14403, Note_on_c, 0, 58, 0
2, 14435, Note_on_c, 0, 65, 68
2, 14455, Note_on_c, 0, 73, 0
2, 14492, Note_on_c, 0, 65, 0
2, 14515, Note_on_c, 0, 58, 68
2, 14571, Note_on_c, 0, 58, 0
2, 14595, Note_on_c, 0, 82, 68
2, 14608, Note_on_c, 0, 65, 60
2, 14648, Note_on_c, 0, 65, 0
2, 14663, Note_on_c, 0, 82, 0
2, 14677, Note_on_c, 0, 58, 69
2, 14761, Note_on_c, 0, 58, 0
2, 14778, Note_on_c, 0, 63, 63
2, 14782, Note_on_c, 0, 72, 71
2, 14841, Note_on_c, 0, 63, 0
2, 14851, Note_on_c, 0, 61, 70
2, 14926, Note_on_c, 0, 61, 0
2, 14935, Note_on_c, 0, 60, 65
2, 14945, Note_on_c, 0, 72, 0
2, 15021, Note_on_c, 0, 61, 68
2, 15024, Note_on_c, 0, 60, 0
2, 15080, Note_on_c, 0, 61, 0
2, 15095, Note_on_c, 0, 63, 73
2, 15096, Note_on_c, 0, 81, 77
2, 15152, Note_on_c, 0, 81, 0
2, 15162, Note_on_c, 0, 63, 0
2, 15171, Note_on_c, 0, 60, 69
2, 15244, Note_on_c, 0, 60, 0
2, 15266, Note_on_c, 0, 61, 70
2, 15284, Note_on_c, 0, 70, 74
2, 15345, Note_on_c, 0, 61, 0
2, 15353, Note_on_c, 0, 60, 70
2, 15419, Note_on_c, 0, 60, 0
2, 15433, Note_on_c, 0, 58, 64
2, 15443, Note_on_c, 0, 70, 0
2, 15500, Note_on_c, 0, 60, 63
2, 15528, Note_on_c, 0, 58, 0
2, 15607, Note_on_c, 0, 60, 0
2, 15610, Note_on_c, 0, 82, 80
2, 15621, Note_on_c, 0, 61, 68
2, 15688, Note_on_c, 0, 61, 0
2, 15689, Note_on_c, 0, 58, 66
2, 15783, Note_on_c, 0, 58, 0
2, 15783, Note_on_c, 0, 64, 73
2, 15831, Note_on_c, 0, 82, 0
2, 15850, Note_on_c, 0, 64, 0
2, 15865, Note_on_c, 0, 62, 71
2, 15935, Note_on_c, 0, 62, 0
2, 15944, Note_on_c, 0, 60, 72
2, 15947, Note_on_c, 0, 80, 72
2, 16005, Note_on_c, 0, 80, 0
2, 16021, Note_on_c, 0, 60, 0
2, 16024, Note_on_c, 0, 62, 64
2, 16074, Note_on_c, 0, 62, 0
2, 16092, Note_on_c, 0, 64, 63
2, 16112, Note_on_c, 0, 79, 76
2, 16138, Note_on_c, 0, 64, 0
2, 16159, Note_on_c, 0, 79, 0
2, 16166, Note_on_c, 0, 60, 67
2, 16228, Note_on_c, 0, 60, 0
2, 16271, Note_on_c, 0, 65, 66
2, 16283, Note_on_c, 0, 80, 74
2, 16316, Note_on_c, 0, 65, 0
2, 16328, Note_on_c, 0, 80, 0
2, 16355, Note_on_c, 0, 64, 66
2, 16440, Note_on_c, 0, 68, 74
2, 16446, Note_on_c, 0, 64, 0
2, 16446, Note_on_c, 0, 65, 71
2, 16484, Note_on_c, 0, 68, 0
2, 16499, Note_on_c, 0, 65, 0
2, 16522, Note_on_c, 0, 67, 67
2, 16595, Note_on_c, 0, 67, 0
2, 16609, Note_on_c, 0, 65, 68
2, 16610, Note_on_c, 0, 80, 82
2, 16677, Note_on_c, 0, 65, 0
2, 16683, Note_on_c, 0, 63, 71
2, 16739, Note_on_c, 0, 63, 0
2, 16773, Note_on_c, 0, 62, 70
2, 16835, Note_on_c, 0, 80, 0
2, 16836, Note_on_c, 0, 62, 0
2, 16855, Note_on_c, 0, 60, 67
2, 16925, Note_on_c, 0, 60, 0
2, 16937, Note_on_c, 0, 58, 67
2, 16952, Note_on_c, 0, 78, 74
2, 17010, Note_on_c, 0, 78, 0
2, 17013, Note_on_c, 0, 58, 0
2, 17021, Note_on_c, 0, 60, 63
2, 17073, Note_on_c, 0, 60, 0
2, 17103, Note_on_c, 0, 62, 65
2, 17125, Note_on_c, 0, 77, 75
2, 17156, Note_on_c, 0, 62, 0
2, 17161, Note_on_c, 0, 77, 0
2, 17193, Note_on_c, 0, 58, 66
2, 17247, Note_on_c, 0, 58, 0
2, 17293, Note_on_c, 0, 78, 73
2, 17298, Note_on_c, 0, 63, 74
2, 17333, Note_on_c, 0, 63, 0
2, 17368, Note_on_c, 0, 77, 66
2, 17369, Note_on_c, 0, 78, 0
2, 17433, Note_on_c, 0, 77, 0
2, 17454, Note_on_c, 0, 75, 70
2, 17457, Note_on_c, 0, 51, 64
2, 17488, Note_on_c, 0, 51, 0
2, 17519, Note_on_c, 0, 75, 0
2, 17523, Note_on_c, 0, 77, 69
2, 17602, Note_on_c, 0, 77, 0
2, 17609, Note_on_c, 0, 78, 69
2, 17623, Note_on_c, 0, 63, 78
2, 17694, Note_on_c, 0, 75, 72
2, 17696, Note_on_c, 0, 78, 0
2, 17751, Note_on_c, 0, 75, 0
2, 17784, Note_on_c, 0, 81, 78
2, 17832, Note_on_c, 0, 63, 0
2, 17867, Note_on_c, 0, 79, 67
2, 17901, Note_on_c, 0, 81, 0
2, 17926, Note_on_c, 0, 79, 0
2, 17959, Note_on_c, 0, 77, 75
2, 17963, Note_on_c, 0, 61, 65
2, 18009, Note_on_c, 0, 61, 0
2, 18024, Note_on_c, 0, 77, 0
2, 18029, Note_on_c, 0, 79, 76
2, 18101, Note_on_c, 0, 79, 0
2, 18121, Note_on_c, 0, 81, 75
2, 18128, Note_on_c, 0, 60, 71
2, 18161, Note_on_c, 0, 60, 0
2, 18166, Note_on_c, 0, 81, 0
2, 18200, Note_on_c, 0, 77, 68
2, 18247, Note_on_c, 0, 77, 0
2, 18285, Note_on_c, 0, 82, 73
2, 18297, Note_on_c, 0, 61, 68
2, 18336, Note_on_c, 0, 61, 0
2, 18361, Note_on_c, 0, 82, 0
2, 18366, Note_on_c, 0, 81, 79
2, 18442, Note_on_c, 0, 81, 0
2, 18451, Note_on_c, 0, 82, 74
2, 18460, Note_on_c, 0, 49, 65
2, 18500, Note_on_c, 0, 49, 0
2, 18520, Note_on_c, 0, 82, 0
2, 18532, Note_on_c, 0, 84, 72
2, 18625, Note_on_c, 0, 84, 0
2, 18626, Note_on_c, 0, 61, 78
2, 18627, Note_on_c, 0, 82, 78
2, 18714, Note_on_c, 0, 80, 75
2, 18723, Note_on_c, 0, 82, 0
2, 18781, Note_on_c, 0, 80, 0
2, 18804, Note_on_c, 0, 79, 71
2, 18840, Note_on_c, 0, 79, 0
2, 18846, Note_on_c, 0, 61, 0
2, 18877, Note_on_c, 0, 77, 73
2, 18942, Note_on_c, 0, 77, 0
2, 18967, Note_on_c, 0, 75, 71
2, 18971, Note_on_c, 0, 60, 64
2, 19007, Note_on_c, 0, 60, 0
2, 19035, Note_on_c, 0, 75, 0
2, 19040, Note_on_c, 0, 77, 68
2, 19119, Note_on_c, 0, 77, 0
2, 19119, Note_on_c, 0, 79, 68
2, 19124, Note_on_c, 0, 58, 66
2, 19157, Note_on_c, 0, 58, 0
2, 19206, Note_on_c, 0, 79, 0
2, 19208, Note_on_c, 0, 75, 67
2, 19255, Note_on_c, 0, 75, 0
2, 19290, Note_on_c, 0, 60, 66
2, 19295, Note_on_c, 0, 80, 75
2, 19335, Note_on_c, 0, 60, 0
2, 19353, Note_on_c, 0, 80, 0
2, 19372, Note_on_c, 0, 58, 66
2, 19458, Note_on_c, 0, 58, 0
2, 19467, Note_on_c, 0, 56, 63
2, 19472, Note_on_c, 0, 68, 76
2, 19514, Note_on_c, 0, 68, 0
2, 19557, Note_on_c, 0, 58, 62
2, 19562, Note_on_c, 0, 56, 0
2, 19625, Note_on_c, 0, 58, 0
2, 19644, Note_on_c, 0, 80, 81
2, 19645, Note_on_c, 0, 60, 63
2, 19690, Note_on_c, 0, 60, 0
2, 19715, Note_on_c, 0, 56, 68
2, 19777, Note_on_c, 0, 56, 0
2, 19805, Note_on_c, 0, 62, 68
2, 19860, Note_on_c, 0, 62, 0
2, 19867, Note_on_c, 0, 80, 0
2, 19889, Note_on_c, 0, 60, 68
2, 19954, Note_on_c, 0, 60, 0
2, 19963, Note_on_c, 0, 58, 66
2, 19969, Note_on_c, 0, 78, 74
2, 20028, Note_on_c, 0, 78, 0
2, 20048, Note_on_c, 0, 58, 0
2, 20050, Note_on_c, 0, 60, 66
2, 20104, Note_on_c, 0, 60, 0
2, 20127, Note_on_c, 0, 77, 71
2, 20133, Note_on_c, 0, 62, 64
2, 20166, Note_on_c, 0, 62, 0
2, 20175, Note_on_c, 0, 77, 0
2, 20211, Note_on_c, 0, 58, 68
2, 20270, Note_on_c, 0, 58, 0
2, 20305, Note_on_c, 0, 63, 68
2, 20310, Note_on_c, 0, 78, 73
2, 20335, Note_on_c, 0, 63, 0
2, 20364, Note_on_c, 0, 78, 0
2, 20385, Note_on_c, 0, 62, 68
2, 20469, Note_on_c, 0, 66, 72
2, 20477, Note_on_c, 0, 62, 0
2, 20480, Note_on_c, 0, 63, 69
2, 20510, Note_on_c, 0, 66, 0
2, 20538, Note_on_c, 0, 63, 0
2, 20562, Note_on_c, 0, 65, 66
2, 20621, Note_on_c, 0, 65, 0
2, 20637, Note_on_c, 0, 78, 79
2, 20640, Note_on_c, 0, 63, 66
2, 20709, Note_on_c, 0, 63, 0
2, 20710, Note_on_c, 0, 61, 69
2, 20766, Note_on_c, 0, 61, 0
2, 20799, Note_on_c, 0, 60, 72
2, 20856, Note_on_c, 0, 60, 0
2, 20860, Note_on_c, 0, 78, 0
2, 20882, Note_on_c, 0, 58, 69
2, 20970, Note_on_c, 0, 58, 0
2, 20971, Note_on_c, 0, 77, 73
2, 20976, Note_on_c, 0, 56, 64
2, 21029, Note_on_c, 0, 77, 0
2, 21055, Note_on_c, 0, 58, 67
2, 21058, Note_on_c, 0, 56, 0
2, 21116, Note_on_c, 0, 58, 0
2, 21139, Note_on_c, 0, 60, 67
2, 21139, Note_on_c, 0, 75, 74
2, 21172, Note_on_c, 0, 75, 0
2, 21186, Note_on_c, 0, 60, 0
2, 21215, Note_on_c, 0, 56, 68
2, 21281, Note_on_c, 0, 56, 0
2, 21305, Note_on_c, 0, 77, 73
2, 21328, Note_on_c, 0, 61, 72
2, 21354, Note_on_c, 0, 61, 0
2, 21384, Note_on_c, 0, 75, 69
2, 21385, Note_on_c, 0, 77, 0
2, 21451, Note_on_c, 0, 75, 0
2, 21474, Note_on_c, 0, 73, 70
2, 21480, Note_on_c, 0, 49, 71
2, 21514, Note_on_c, 0, 49, 0
2, 21550, Note_on_c, 0, 73, 0
2, 21553, Note_on_c, 0, 75, 70
2, 21615, Note_on_c, 0, 75, 0
2, 21642, Note_on_c, 0, 77, 66
2, 21654, Note_on_c, 0, 61, 77
2, 21727, Note_on_c, 0, 77, 0
2, 21730, Note_on_c, 0, 73, 72
2, 21781, Note_on_c, 0, 73, 0
2, 21824, Note_on_c, 0, 79, 73
2, 21863, Note_on_c, 0, 61, 0
2, 21894, Note_on_c, 0, 79, 0
2, 21909, Note_on_c, 0, 77, 70
2, 21970, Note_on_c, 0, 77, 0
2, 21988, Note_on_c, 0, 59, 63
2, 21990, Note_on_c, 0, 75, 71
2, 22033, Note_on_c, 0, 59, 0
2, 22064, Note_on_c, 0, 75, 0
2, 22068, Note_on_c, 0, 77, 68
2, 22141, Note_on_c, 0, 77, 0
2, 22147, Note_on_c, 0, 79, 69
2, 22149, Note_on_c, 0, 58, 73
2, 22215, Note_on_c, 0, 79, 0
2, 22216, Note_on_c, 0, 75, 63
2, 22230, Note_on_c, 0, 58, 0
2, 22235, Note_on_c, 0, 75, 0
2, 22322, Note_on_c, 0, 80, 79
2, 22330, Note_on_c, 0, 59, 61
2, 22378, Note_on_c, 0, 59, 0
2, 22401, Note_on_c, 0, 80, 0
2, 22403, Note_on_c, 0, 79, 73
2, 22488, Note_on_c, 0, 79, 0
2, 22495, Note_on_c, 0, 80, 74
2, 22504, Note_on_c, 0, 47, 66
2, 22533, Note_on_c, 0, 47, 0
2, 22557, Note_on_c, 0, 80, 0
2, 22567, Note_on_c, 0, 82, 73
2, 22665, Note_on_c, 0, 80, 77
2, 22667, Note_on_c, 0, 59, 72
2, 22670, Note_on_c, 0, 82, 0
2, 22738, Note_on_c, 0, 78, 73
2, 22741, Note_on_c, 0, 80, 0
2, 22811, Note_on_c, 0, 78, 0
2, 22828, Note_on_c, 0, 77, 67
2, 22879, Note_on_c, 0, 59, 0
2, 22882, Note_on_c, 0, 77, 0
2, 22908, Note_on_c, 0, 75, 69
2, 22965, Note_on_c, 0, 75, 0
2, 22991, Note_on_c, 0, 73, 65
2, 22997, Note_on_c, 0, 58, 65
2, 23034, Note_on_c, 0, 58, 0
2, 23055, Note_on_c, 0, 73, 0
2, 23067, Note_on_c, 0, 75, 54
2, 23132, Note_on_c, 0, 75, 0
2, 23142, Note_on_c, 0, 56, 62
2, 23149, Note_on_c, 0, 77, 57
2, 23176, Note_on_c, 0, 56, 0
2, 23209, Note_on_c, 0, 77, 0
2, 23218, Note_on_c, 0, 73, 64
2, 23315, Note_on_c, 0, 73, 0
2, 23331, Note_on_c, 0, 66, 72
2, 23333, Note_on_c, 0, 58, 56
2, 23377, Note_on_c, 0, 58, 0
2, 23402, Note_on_c, 0, 54, 60
2, 23465, Note_on_c, 0, 54, 0
2, 23486, Note_on_c, 0, 49, 60
2, 23535, Note_on_c, 0, 66, 0
2, 23573, Note_on_c, 0, 54, 59
2, 23574, Note_on_c, 0, 49, 0
2, 23618, Note_on_c, 0, 54, 0
2, 23650, Note_on_c, 0, 58, 62
2, 23670, Note_on_c, 0, 78, 65
2, 23686, Note_on_c, 0, 58, 0
2, 23734, Note_on_c, 0, 54, 63
2, 23752, Note_on_c, 0, 78, 0
2, 23811, Note_on_c, 0, 54, 0
2, 23843, Note_on_c, 0, 59, 64
2, 23858, Note_on_c, 0, 68, 75
2, 23901, Note_on_c, 0, 59, 0
2, 23926, Note_on_c, 0, 54, 65
2, 23997, Note_on_c, 0, 54, 0
2, 24015, Note_on_c, 0, 59, 69
2, 24057, Note_on_c, 0, 68, 0
2, 24092, Note_on_c, 0, 59, 0
2, 24113, Note_on_c, 0, 54, 64
2, 24181, Note_on_c, 0, 54, 0
2, 24193, Note_on_c, 0, 78, 66
2, 24203, Note_on_c, 0, 59, 64
2, 24243, Note_on_c, 0, 59, 0
2, 24259, Note_on_c, 0, 78, 0
2, 24275, Note_on_c, 0, 54, 64
2, 24340, Note_on_c, 0, 54, 0
2, 24376, Note_on_c, 0, 61, 66
2, 24382, Note_on_c, 0, 70, 70
2, 24419, Note_on_c, 0, 61, 0
2, 24453, Note_on_c, 0, 54, 63
2, 24503, Note_on_c, 0, 54, 0
2, 24533, Note_on_c, 0, 61, 64
2, 24560, Note_on_c, 0, 70, 0
2, 24587, Note_on_c, 0, 61, 0
2, 24615, Note_on_c, 0, 54, 62
2, 24675, Note_on_c, 0, 54, 0
2, 24685, Note_on_c, 0, 78, 69
2, 24703, Note_on_c, 0, 61, 65
2, 24757, Note_on_c, 0, 78, 0
2, 24762, Note_on_c, 0, 61, 0
2, 24782, Note_on_c, 0, 54, 68
2, 24847, Note_on_c, 0, 54, 0
2, 24887, Note_on_c, 0, 63, 66
2, 24890, Note_on_c, 0, 71, 71
2, 24929, Note_on_c, 0, 63, 0
2, 24958, Note_on_c, 0, 54, 66
2, 25010, Note_on_c, 0, 54, 0
2, 25049, Note_on_c, 0, 63, 63
2, 25078, Note_on_c, 0, 71, 0
2, 25094, Note_on_c, 0, 63, 0
2, 25123, Note_on_c, 0, 54, 66
2, 25171, Note_on_c, 0, 54, 0
2, 25208, Note_on_c, 0, 63, 65
2, 25214, Note_on_c, 0, 78, 68
2, 25248, Note_on_c, 0, 63, 0
2, 25272, Note_on_c, 0, 78, 0
2, 25285, Note_on_c, 0, 54, 63
2, 25337, Note_on_c, 0, 54, 0
2, 25385, Note_on_c, 0, 61, 64
2, 25397, Note_on_c, 0, 70, 75
2, 25427, Note_on_c, 0, 61, 0
2, 25459, Note_on_c, 0, 54, 62
2, 25518, Note_on_c, 0, 54, 0
2, 25548, Note_on_c, 0, 70, 0
2, 25550, Note_on_c, 0, 61, 64
2, 25615, Note_on_c, 0, 61, 0
2, 25643, Note_on_c, 0, 54, 63
2, 25694, Note_on_c, 0, 54, 0
2, 25709, Note_on_c, 0, 78, 66
2, 25733, Note_on_c, 0, 61, 61
2, 25761, Note_on_c, 0, 78, 0
2, 25764, Note_on_c, 0, 61, 0
2, 25801, Note_on_c, 0, 54, 61
2, 25868, Note_on_c, 0, 54, 0
2, 25889, Note_on_c, 0, 68, 69
2, 25896, Note_on_c, 0, 59, 63
2, 25950, Note_on_c, 0, 59, 0
2, 25972, Note_on_c, 0, 58, 69
2, 26052, Note_on_c, 0, 58, 0
2, 26055, Note_on_c, 0, 56, 71
2, 26058, Note_on_c, 0, 68, 0
2, 26131, Note_on_c, 0, 58, 63
2, 26140, Note_on_c, 0, 56, 0
2, 26198, Note_on_c, 0, 58, 0
2, 26214, Note_on_c, 0, 77, 67
2, 26218, Note_on_c, 0, 59, 64
2, 26257, Note_on_c, 0, 77, 0
2, 26258, Note_on_c, 0, 59, 0
2, 26281, Note_on_c, 0, 56, 69
2, 26373, Note_on_c, 0, 56, 0
2, 26382, Note_on_c, 0, 58, 72
2, 26384, Note_on_c, 0, 66, 77
2, 26472, Note_on_c, 0, 56, 68
2, 26477, Note_on_c, 0, 58, 0
2, 26544, Note_on_c, 0, 56, 0
2, 26550, Note_on_c, 0, 54, 68
2, 26550, Note_on_c, 0, 66, 0
2, 26623, Note_on_c, 0, 56, 66
2, 26651, Note_on_c, 0, 54, 0
2, 26708, Note_on_c, 0, 56, 0
2, 26717, Note_on_c, 0, 58, 73
2, 26718, Note_on_c, 0, 78, 74
2, 26782, Note_on_c, 0, 58, 0
2, 26787, Note_on_c, 0, 54, 69
2, 26872, Note_on_c, 0, 56, 67
2, 26911, Note_on_c, 0, 54, 0
2, 26911, Note_on_c, 0, 78, 0
2, 26942, Note_on_c, 0, 56, 0
2, 26948, Note_on_c, 0, 58, 71
2, 27027, Note_on_c, 0, 56, 66
2, 27027, Note_on_c, 0, 58, 0
2, 27040, Note_on_c, 0, 77, 69
2, 27109, Note_on_c, 0, 54, 63
2, 27110, Note_on_c, 0, 56, 0
2, 27120, Note_on_c, 0, 77, 0
2, 27123, Note_on_c, 0, 75, 74
2, 27152, Note_on_c, 0, 54, 0
2, 27185, Note_on_c, 0, 75, 0
2, 27195, Note_on_c, 0, 53, 69
2, 27205, Note_on_c, 0, 73, 68
2, 27260, Note_on_c, 0, 53, 0
2, 27272, Note_on_c, 0, 73, 0
2, 27277, Note_on_c, 0, 51, 64
2, 27282, Note_on_c, 0, 75, 58
2, 27337, Note_on_c, 0, 75, 0
2, 27373, Note_on_c, 0, 77, 64
2, 27379, Note_on_c, 0, 49, 70
2, 27379, Note_on_c, 0, 51, 0
2, 27440, Note_on_c, 0, 73, 67
2, 27443, Note_on_c, 0, 77, 0
2, 27488, Note_on_c, 0, 73, 0
2, 27520, Note_on_c, 0, 68, 69
2, 27538, Note_on_c, 0, 49, 0
2, 27587, Note_on_c, 0, 68, 0
2, 27605, Note_on_c, 0, 73, 58
2, 27656, Note_on_c, 0, 73, 0
2, 27695, Note_on_c, 0, 77, 68
2, 27704, Note_on_c, 0, 61, 60
2, 27739, Note_on_c, 0, 77, 0
2, 27740, Note_on_c, 0, 61, 0
2, 27773, Note_on_c, 0, 73, 72
2, 27824, Note_on_c, 0, 73, 0
2, 27857, Note_on_c, 0, 78, 75
2, 27876, Note_on_c, 0, 51, 58
2, 27915, Note_on_c, 0, 78, 0
2, 27943, Note_on_c, 0, 73, 72
2, 28005, Note_on_c, 0, 73, 0
2, 28029, Note_on_c, 0, 78, 75
2, 28069, Note_on_c, 0, 78, 0
2, 28072, Note_on_c, 0, 51, 0
2, 28106, Note_on_c, 0, 73, 70
2, 28168, Note_on_c, 0, 73, 0
2, 28189, Note_on_c, 0, 78, 74
2, 28210, Note_on_c, 0, 61, 56
2, 28242, Note_on_c, 0, 78, 0
2, 28247, Note_on_c, 0, 61, 0
2, 28266, Note_on_c, 0, 73, 71
2, 28334, Note_on_c, 0, 73, 0
2, 28355, Note_on_c, 0, 80, 79
2, 28363, Note_on_c, 0, 53, 64
2, 28410, Note_on_c, 0, 80, 0
2, 28433, Note_on_c, 0, 73, 71
2, 28503, Note_on_c, 0, 73, 0
2, 28524, Note_on_c, 0, 80, 79
2, 28571, Note_on_c, 0, 53, 0
2, 28577, Note_on_c, 0, 80, 0
2, 28605, Note_on_c, 0, 73, 66
2, 28672, Note_on_c, 0, 73, 0
2, 28693, Note_on_c, 0, 80, 81
2, 28705, Note_on_c, 0, 61, 60
2, 28742, Note_on_c, 0, 61, 0
2, 28754, Note_on_c, 0, 80, 0
2, 28773, Note_on_c, 0, 73, 70
2, 28836, Note_on_c, 0, 73, 0
2, 28861, Note_on_c, 0, 82, 78
2, 28864, Note_on_c, 0, 54, 66
2, 28915, Note_on_c, 0, 82, 0
2, 28943, Note_on_c, 0, 73, 68
2, 29012, Note_on_c, 0, 73, 0
2, 29028, Note_on_c, 0, 82, 76
2, 29056, Note_on_c, 0, 54, 0
2, 29077, Note_on_c, 0, 82, 0
2, 29112, Note_on_c, 0, 73, 64
2, 29181, Note_on_c, 0, 73, 0
2, 29185, Note_on_c, 0, 61, 53
2, 29191, Note_on_c, 0, 82, 71
2, 29219, Note_on_c, 0, 61, 0
2, 29231, Note_on_c, 0, 82, 0
2, 29259, Note_on_c, 0, 73, 60
2, 29330, Note_on_c, 0, 73, 0
2, 29341, Note_on_c, 0, 53, 61
2, 29353, Note_on_c, 0, 80, 72
2, 29403, Note_on_c, 0, 80, 0
2, 29433, Note_on_c, 0, 73, 62
2, 29501, Note_on_c, 0, 73, 0
2, 29524, Note_on_c, 0, 80, 69
2, 29565, Note_on_c, 0, 80, 0
2, 29574, Note_on_c, 0, 53, 0
2, 29593, Note_on_c, 0, 73, 61
2, 29652, Note_on_c, 0, 73, 0
2, 29671, Note_on_c, 0, 61, 54
2, 29677, Note_on_c, 0, 80, 66
2, 29711, Note_on_c, 0, 61, 0
2, 29711, Note_on_c, 0, 80, 0
2, 29735, Note_on_c, 0, 73, 54
2, 29786, Note_on_c, 0, 73, 0
2, 29824, Note_on_c, 0, 78, 67
2, 29831, Note_on_c, 0, 51, 64
2, 29895, Note_on_c, 0, 78, 0
2, 29901, Note_on_c, 0, 77, 72
2, 29958, Note_on_c, 0, 77, 0
2, 29979, Note_on_c, 0, 75, 69
2, 29989, Note_on_c, 0, 51, 0
2, 30041, Note_on_c, 0, 75, 0
2, 30048, Note_on_c, 0, 77, 70
2, 30124, Note_on_c, 0, 77, 0
2, 30130, Note_on_c, 0, 78, 70
2, 30136, Note_on_c, 0, 60, 63
2, 30175, Note_on_c, 0, 78, 0
2, 30194, Note_on_c, 0, 60, 0
2, 30208, Note_on_c, 0, 75, 68
2, 30234, Note_on_c, 0, 75, 0
2, 30296, Note_on_c, 0, 77, 65
2, 30302, Note_on_c, 0, 49, 64
2, 30375, Note_on_c, 0, 77, 0
2, 30376, Note_on_c, 0, 75, 70
2, 30438, Note_on_c, 0, 75, 0
2, 30445, Note_on_c, 0, 73, 69
2, 30472, Note_on_c, 0, 49, 0
2, 30508, Note_on_c, 0, 73, 0
2, 30517, Note_on_c, 0, 75, 61
2, 30587, Note_on_c, 0, 75, 0
2, 30598, Note_on_c, 0, 77, 65
2, 30605, Note_on_c, 0, 61, 63
2, 30644, Note_on_c, 0, 61, 0
2, 30653, Note_on_c, 0, 77, 0
2, 30672, Note_on_c, 0, 73, 77
2, 30760, Note_on_c, 0, 73, 0
2, 30764, Note_on_c, 0, 75, 74
2, 30773, Note_on_c, 0, 54, 71
2, 30825, Note_on_c, 0, 75, 0
2, 30826, Note_on_c, 0, 54, 0
2, 30836, Note_on_c, 0, 77, 68
2, 30912, Note_on_c, 0, 77, 0
2, 30918, Note_on_c, 0, 75, 72
2, 30939, Note_on_c, 0, 53, 61
2, 30983, Note_on_c, 0, 53, 0
2, 30993, Note_on_c, 0, 75, 0
2, 31001, Note_on_c, 0, 73, 69
2, 31053, Note_on_c, 0, 73, 0
2, 31082, Note_on_c, 0, 72, 63
2, 31091, Note_on_c, 0, 51, 57
2, 31112, Note_on_c, 0, 72, 0
2, 31127, Note_on_c, 0, 51, 0
2, 31154, Note_on_c, 0, 70, 68
2, 31195, Note_on_c, 0, 70, 0
2, 31236, Note_on_c, 0, 72, 62
2, 31258, Note_on_c, 0, 56, 53
2, 31289, Note_on_c, 0, 56, 0
2, 31299, Note_on_c, 0, 72, 0
2, 31325, Note_on_c, 0, 68, 64
2, 31356, Note_on_c, 0, 68, 0
2, 31409, Note_on_c, 0, 66, 64
2, 31434, Note_on_c, 0, 66, 0
2, 31499, Note_on_c, 0, 68, 66
2, 31522, Note_on_c, 0, 68, 0
2, 31570, Note_on_c, 0, 63, 56
2, 31604, Note_on_c, 0, 63, 0
2, 31640, Note_on_c, 0, 68, 64
2, 31668, Note_on_c, 0, 68, 0
2, 31736, Note_on_c, 0, 72, 71
2, 31742, Note_on_c, 0, 56, 59
2, 31778, Note_on_c, 0, 56, 0
2, 31797, Note_on_c, 0, 72, 0
2, 31816, Note_on_c, 0, 68, 60
2, 31838, Note_on_c, 0, 68, 0
2, 31900, Note_on_c, 0, 66, 60
2, 31925, Note_on_c, 0, 66, 0
2, 31965, Note_on_c, 0, 68, 63
2, 31998, Note_on_c, 0, 68, 0
2, 32053, Note_on_c, 0, 63, 63
2, 32087, Note_on_c, 0, 63, 0
2, 32124, Note_on_c, 0, 68, 69
2, 32151, Note_on_c, 0, 68, 0
2, 32207, Note_on_c, 0, 73, 67
2, 32212, Note_on_c, 0, 56, 66
2, 32249, Note_on_c, 0, 56, 0
2, 32270, Note_on_c, 0, 73, 0
2, 32284, Note_on_c, 0, 68, 63
2, 32313, Note_on_c, 0, 68, 0
2, 32377, Note_on_c, 0, 65, 55
2, 32398, Note_on_c, 0, 65, 0
2, 32455, Note_on_c, 0, 68, 66
2, 32493, Note_on_c, 0, 68, 0
2, 32538, Note_on_c, 0, 61, 61
2, 32570, Note_on_c, 0, 61, 0
2, 32619, Note_on_c, 0, 68, 65
2, 32648, Note_on_c, 0, 68, 0
2, 32698, Note_on_c, 0, 73, 69
2, 32703, Note_on_c, 0, 56, 71
2, 32739, Note_on_c, 0, 56, 0
2, 32755, Note_on_c, 0, 73, 0
2, 32769, Note_on_c, 0, 68, 64
2, 32798, Note_on_c, 0, 68, 0
2, 32866, Note_on_c, 0, 65, 62
2, 32891, Note_on_c, 0, 65, 0
2, 32938, Note_on_c, 0, 68, 65
2, 32968, Note_on_c, 0, 68, 0
2, 33021, Note_on_c, 0, 61, 61
2, 33058, Note_on_c, 0, 61, 0
2, 33090, Note_on_c, 0, 68, 74
2, 33121, Note_on_c, 0, 68, 0
2, 33174, Note_on_c, 0, 78, 78
2, 33181, Note_on_c, 0, 56, 69
2, 33216, Note_on_c, 0, 56, 0
2, 33253, Note_on_c, 0, 78, 0
2, 33254, Note_on_c, 0, 68, 68
2, 33283, Note_on_c, 0, 68, 0
2, 33350, Note_on_c, 0, 63, 64
2, 33377, Note_on_c, 0, 63, 0
2, 33421, Note_on_c, 0, 68, 64
2, 33451, Note_on_c, 0, 68, 0
2, 33499, Note_on_c, 0, 60, 62
2, 33532, Note_on_c, 0, 60, 0
2, 33567, Note_on_c, 0, 68, 68
2, 33605, Note_on_c, 0, 68, 0
2, 33649, Note_on_c, 0, 78, 78
2, 33653, Note_on_c, 0, 56, 71
2, 33695, Note_on_c, 0, 56, 0
2, 33721, Note_on_c, 0, 78, 0
2, 33730, Note_on_c, 0, 68, 68
2, 33760, Note_on_c, 0, 68, 0
2, 33817, Note_on_c, 0, 63, 65
2, 33850, Note_on_c, 0, 63, 0
2, 33886, Note_on_c, 0, 68, 63
2, 33916, Note_on_c, 0, 68, 0
2, 33970, Note_on_c, 0, 60, 66
2, 34011, Note_on_c, 0, 60, 0
2, 34047, Note_on_c, 0, 68, 71
2, 34074, Note_on_c, 0, 68, 0
2, 34132, Note_on_c, 0, 77, 78
2, 34137, Note_on_c, 0, 56, 71
2, 34175, Note_on_c, 0, 56, 0
2, 34185, Note_on_c, 0, 77, 0
2, 34211, Note_on_c, 0, 68, 66
2, 34238, Note_on_c, 0, 68, 0
2, 34294, Note_on_c, 0, 65, 69
2, 34325, Note_on_c, 0, 65, 0
2, 34374, Note_on_c, 0, 68, 62
2, 34403, Note_on_c, 0, 68, 0
2, 34450, Note_on_c, 0, 61, 67
2, 34484, Note_on_c, 0, 61, 0
2, 34529, Note_on_c, 0, 68, 71
2, 34554, Note_on_c, 0, 68, 0
2, 34606, Note_on_c, 0, 56, 69
2, 34609, Note_on_c, 0, 77, 78
2, 34645, Note_on_c, 0, 56, 0
2, 34667, Note_on_c, 0, 77, 0
2, 34687, Note_on_c, 0, 68, 69
2, 34716, Note_on_c, 0, 68, 0
2, 34776, Note_on_c, 0, 65, 64
2, 34806, Note_on_c, 0, 65, 0
2, 34854, Note_on_c, 0, 68, 69
2, 34882, Note_on_c, 0, 68, 0
2, 34921, Note_on_c, 0, 61, 67
2, 34957, Note_on_c, 0, 61, 0
2, 35001, Note_on_c, 0, 68, 72
2, 35026, Note_on_c, 0, 68, 0
2, 35092, Note_on_c, 0, 56, 74
2, 35113, Note_on_c, 0, 79, 79
2, 35150, Note_on_c, 0, 56, 0
2, 35169, Note_on_c, 0, 79, 0
2, 35179, Note_on_c, 0, 70, 69
2, 35206, Note_on_c, 0, 70, 0
2, 35258, Note_on_c, 0, 64, 66
2, 35292, Note_on_c, 0, 64, 0
2, 35343, Note_on_c, 0, 70, 62
2, 35367, Note_on_c, 0, 70, 0
2, 35425, Note_on_c, 0, 61, 71
2, 35459, Note_on_c, 0, 61, 0
2, 35494, Note_on_c, 0, 70, 69
2, 35524, Note_on_c, 0, 70, 0
2, 35591, Note_on_c, 0, 56, 75
2, 35595, Note_on_c, 0, 79, 85
2, 35635, Note_on_c, 0, 56, 0
2, 35663, Note_on_c, 0, 79, 0
2, 35669, Note_on_c, 0, 70, 72
2, 35696, Note_on_c, 0, 70, 0
2, 35750, Note_on_c, 0, 64, 69
2, 35781, Note_on_c, 0, 64, 0
2, 35830, Note_on_c, 0, 70, 64
2, 35859, Note_on_c, 0, 70, 0
2, 35894, Note_on_c, 0, 61, 70
2, 35949, Note_on_c, 0, 61, 0
2, 35970, Note_on_c, 0, 70, 72
2, 35995, Note_on_c, 0, 70, 0
2, 36042, Note_on_c, 0, 80, 75
2, 36050, Note_on_c, 0, 56, 78
2, 36108, Note_on_c, 0, 80, 0
2, 36111, Note_on_c, 0, 56, 0
2, 36122, Note_on_c, 0, 72, 70
2, 36151, Note_on_c, 0, 72, 0
2, 36213, Note_on_c, 0, 63, 75
2, 36247, Note_on_c, 0, 63, 0
2, 36290, Note_on_c, 0, 72, 65
2, 36325, Note_on_c, 0, 72, 0
2, 36373, Note_on_c, 0, 60, 72
2, 36418, Note_on_c, 0, 60, 0
2, 36447, Note_on_c, 0, 72, 77
2, 36475, Note_on_c, 0, 72, 0
2, 36533, Note_on_c, 0, 54, 78
2, 36537, Note_on_c, 0, 80, 77
2, 36591, Note_on_c, 0, 54, 0
2, 36607, Note_on_c, 0, 80, 0
2, 36610, Note_on_c, 0, 72, 68
2, 36637, Note_on_c, 0, 72, 0
2, 36698, Note_on_c, 0, 63, 74
2, 36733, Note_on_c, 0, 63, 0
2, 36772, Note_on_c, 0, 72, 68
2, 36805, Note_on_c, 0, 72, 0
2, 36854, Note_on_c, 0, 60, 76
2, 36907, Note_on_c, 0, 60, 0
2, 36918, Note_on_c, 0, 72, 74
2, 36942, Note_on_c, 0, 72, 0
2, 37010, Note_on_c, 0, 80, 79
2, 37012, Note_on_c, 0, 53, 76
2, 37059, Note_on_c, 0, 53, 0
2, 37080, Note_on_c, 0, 80, 0
2, 37113, Note_on_c, 0, 73, 61
2, 37142, Note_on_c, 0, 73, 0
2, 37187, Note_on_c, 0, 65, 75
2, 37224, Note_on_c, 0, 65, 0
2, 37265, Note_on_c, 0, 68, 80
2, 37298, Note_on_c, 0, 68, 0
2, 37347, Note_on_c, 0, 61, 83
2, 37404, Note_on_c, 0, 61, 0
2, 37418, Note_on_c, 0, 73, 72
2, 37451, Note_on_c, 0, 73, 0
2, 37500, Note_on_c, 0, 56, 83
2, 37553, Note_on_c, 0, 56, 0
2, 37586, Note_on_c, 0, 77, 84
2, 37625, Note_on_c, 0, 77, 0
2, 37665, Note_on_c, 0, 53, 82
2, 37709, Note_on_c, 0, 53, 0
2, 37750, Note_on_c, 0, 80, 84
2, 37790, Note_on_c, 0, 80, 0
2, 37817, Note_on_c, 0, 51, 78
2, 37888, Note_on_c, 0, 51, 0
2, 37921, Note_on_c, 0, 83, 46
2, 37948, Note_on_c, 0, 83, 0
2, 37985, Note_on_c, 0, 50, 80
2, 37995, Note_on_c, 0, 83, 82
2, 38027, Note_on_c, 0, 50, 0
2, 38153, Note_on_c, 0, 53, 70
2, 38153, Note_on_c, 0, 83, 0
2, 38172, Note_on_c, 0, 81, 57
2, 38190, Note_on_c, 0, 80, 35
2, 38205, Note_on_c, 0, 53, 0
2, 38208, Note_on_c, 0, 81, 0
2, 38209, Note_on_c, 0, 80, 0
2, 38212, Note_on_c, 0, 78, 65
2, 38255, Note_on_c, 0, 78, 0
2, 38267, Note_on_c, 0, 77, 65
2, 38302, Note_on_c, 0, 58, 70
2, 38333, Note_on_c, 0, 77, 0
2, 38338, Note_on_c, 0, 75, 71
2, 38369, Note_on_c, 0, 58, 0
2, 38401, Note_on_c, 0, 75, 0
2, 38423, Note_on_c, 0, 77, 66
2, 38451, Note_on_c, 0, 62, 79
2, 38503, Note_on_c, 0, 62, 0
2, 38511, Note_on_c, 0, 77, 0
2, 38515, Note_on_c, 0, 78, 75
2, 38583, Note_on_c, 0, 78, 0
2, 38598, Note_on_c, 0, 80, 59
2, 38619, Note_on_c, 0, 65, 72
2, 38655, Note_on_c, 0, 65, 0
2, 38655, Note_on_c, 0, 80, 0
2, 38669, Note_on_c, 0, 83, 70
2, 38761, Note_on_c, 0, 82, 79
2, 38761, Note_on_c, 0, 83, 0
2, 38771, Note_on_c, 0, 68, 77
2, 38820, Note_on_c, 0, 68, 0
2, 38843, Note_on_c, 0, 80, 75
2, 38851, Note_on_c, 0, 82, 0
2, 38895, Note_on_c, 0, 80, 0
2, 38922, Note_on_c, 0, 82, 73
2, 38928, Note_on_c, 0, 66, 82
2, 38971, Note_on_c, 0, 66, 0
2, 38989, Note_on_c, 0, 82, 0
2, 39007, Note_on_c, 0, 75, 72
2, 39037, Note_on_c, 0, 75, 0
2, 39095, Note_on_c, 0, 63, 70
2, 39147, Note_on_c, 0, 63, 0
2, 39158, Note_on_c, 0, 66, 83
2, 39184, Note_on_c, 0, 66, 0
2, 39244, Note_on_c, 0, 58, 76
2, 39293, Note_on_c, 0, 58, 0
2, 39321, Note_on_c, 0, 70, 79
2, 39367, Note_on_c, 0, 70, 0
2, 39409, Note_on_c, 0, 54, 76
2, 39441, Note_on_c, 0, 54, 0
2, 39491, Note_on_c, 0, 75, 84
2, 39523, Note_on_c, 0, 75, 0
2, 39565, Note_on_c, 0, 51, 77
2, 39618, Note_on_c, 0, 51, 0
2, 39661, Note_on_c, 0, 78, 80
2, 39707, Note_on_c, 0, 78, 0
2, 39713, Note_on_c, 0, 49, 74
2, 39768, Note_on_c, 0, 49, 0
2, 39798, Note_on_c, 0, 80, 82
2, 39823, Note_on_c, 0, 80, 0
2, 39880, Note_on_c, 0, 48, 84
2, 39891, Note_on_c, 0, 81, 81
2, 39921, Note_on_c, 0, 48, 0
2, 39957, Note_on_c, 0, 80, 76
2, 39961, Note_on_c, 0, 81, 0
2, 40039, Note_on_c, 0, 78, 72
2, 40045, Note_on_c, 0, 51, 63
2, 40058, Note_on_c, 0, 80, 0
2, 40097, Note_on_c, 0, 51, 0
2, 40097, Note_on_c, 0, 78, 0
2, 40113, Note_on_c, 0, 76, 68
2, 40192, Note_on_c, 0, 76, 0
2, 40201, Note_on_c, 0, 75, 75
2, 40204, Note_on_c, 0, 56, 73
2, 40251, Note_on_c, 0, 56, 0
2, 40275, Note_on_c, 0, 73, 75
2, 40275, Note_on_c, 0, 75, 0
2, 40337, Note_on_c, 0, 73, 0
2, 40354, Note_on_c, 0, 75, 70
2, 40363, Note_on_c, 0, 60, 78
2, 40400, Note_on_c, 0, 75, 0
2, 40413, Note_on_c, 0, 60, 0
2, 40427, Note_on_c, 0, 76, 73
2, 40474, Note_on_c, 0, 76, 0
2, 40515, Note_on_c, 0, 78, 80
2, 40519, Note_on_c, 0, 63, 70
2, 40572, Note_on_c, 0, 78, 0
2, 40581, Note_on_c, 0, 63, 0
2, 40587, Note_on_c, 0, 81, 74
2, 40671, Note_on_c, 0, 80, 79
2, 40673, Note_on_c, 0, 81, 0
2, 40678, Note_on_c, 0, 66, 74
2, 40716, Note_on_c, 0, 66, 0
2, 40749, Note_on_c, 0, 78, 71
2, 40757, Note_on_c, 0, 80, 0
2, 40809, Note_on_c, 0, 78, 0
2, 40829, Note_on_c, 0, 80, 70
2, 40832, Note_on_c, 0, 64, 72
2, 40880, Note_on_c, 0, 64, 0
2, 40894, Note_on_c, 0, 80, 0
2, 40909, Note_on_c, 0, 73, 70
2, 40942, Note_on_c, 0, 73, 0
2, 40997, Note_on_c, 0, 61, 66
2, 41037, Note_on_c, 0, 61, 0
2, 41083, Note_on_c, 0, 76, 74
2, 41119, Note_on_c, 0, 76, 0
2, 41152, Note_on_c, 0, 57, 69
2, 41189, Note_on_c, 0, 57, 0
2, 41248, Note_on_c, 0, 73, 68
2, 41277, Note_on_c, 0, 73, 0
2, 41305, Note_on_c, 0, 54, 76
2, 41348, Note_on_c, 0, 54, 0
2, 41403, Note_on_c, 0, 69, 74
2, 41434, Note_on_c, 0, 69, 0
2, 41477, Note_on_c, 0, 63, 76
2, 41507, Note_on_c, 0, 63, 0
2, 41556, Note_on_c, 0, 66, 75
2, 41583, Note_on_c, 0, 66, 0
2, 41633, Note_on_c, 0, 60, 72
2, 41669, Note_on_c, 0, 60, 0
2, 41721, Note_on_c, 0, 75, 68
2, 41757, Note_on_c, 0, 75, 0
2, 41803, Note_on_c, 0, 52, 74
2, 41836, Note_on_c, 0, 52, 0
2, 41877, Note_on_c, 0, 68, 74
2, 41911, Note_on_c, 0, 68, 0
2, 41968, Note_on_c, 0, 61, 73
2, 41997, Note_on_c, 0, 61, 0
2, 42037, Note_on_c, 0, 64, 73
2, 42067, Note_on_c, 0, 64, 0
2, 42118, Note_on_c, 0, 57, 72
2, 42168, Note_on_c, 0, 57, 0
2, 42186, Note_on_c, 0, 73, 72
2, 42228, Note_on_c, 0, 73, 0
2, 42274, Note_on_c, 0, 54, 67
2, 42319, Note_on_c, 0, 54, 0
2, 42349, Note_on_c, 0, 69, 74
2, 42392, Note_on_c, 0, 69, 0
2, 42431, Note_on_c, 0, 51, 76
2, 42470, Note_on_c, 0, 51, 0
2, 42516, Note_on_c, 0, 66, 77
2, 42556, Note_on_c, 0, 66, 0
2, 42600, Note_on_c, 0, 48, 67
2, 42645, Note_on_c, 0, 48, 0
2, 42654, Note_on_c, 0, 63, 78
2, 42684, Note_on_c, 0, 63, 0
2, 42748, Note_on_c, 0, 44, 75
2, 42749, Note_on_c, 0, 60, 80
2, 42789, Note_on_c, 0, 44, 0
2, 42793, Note_on_c, 0, 60, 0
2, 42837, Note_on_c, 0, 56, 68
2, 42864, Note_on_c, 0, 56, 0
2, 42902, Note_on_c, 0, 54, 66
2, 42935, Note_on_c, 0, 54, 0
2, 42989, Note_on_c, 0, 56, 68
2, 43017, Note_on_c, 0, 56, 0
2, 43061, Note_on_c, 0, 51, 62
2, 43100, Note_on_c, 0, 51, 0
2, 43136, Note_on_c, 0, 56, 69
2, 43161, Note_on_c, 0, 56, 0
2, 43228, Note_on_c, 0, 44, 68
2, 43233, Note_on_c, 0, 60, 71
2, 43267, Note_on_c, 0, 44, 0
2, 43291, Note_on_c, 0, 60, 0
2, 43308, Note_on_c, 0, 56, 58
2, 43333, Note_on_c, 0, 56, 0
2, 43387, Note_on_c, 0, 54, 55
2, 43410, Note_on_c, 0, 54, 0
2, 43457, Note_on_c, 0, 56, 62
2, 43488, Note_on_c, 0, 56, 0
2, 43536, Note_on_c, 0, 51, 57
2, 43571, Note_on_c, 0, 51, 0
2, 43607, Note_on_c, 0, 56, 63
2, 43634, Note_on_c, 0, 56, 0
2, 43691, Note_on_c, 0, 61, 66
2, 43696, Note_on_c, 0, 44, 64
2, 43733, Note_on_c, 0, 44, 0
2, 43751, Note_on_c, 0, 61, 0
2, 43770, Note_on_c, 0, 56, 52
2, 43793, Note_on_c, 0, 56, 0
2, 43849, Note_on_c, 0, 53, 57
2, 43871, Note_on_c, 0, 53, 0
2, 43917, Note_on_c, 0, 56, 51
2, 43949, Note_on_c, 0, 56, 0
2, 44004, Note_on_c, 0, 49, 64
2, 44042, Note_on_c, 0, 49, 0
2, 44066, Note_on_c, 0, 56, 61
2, 44095, Note_on_c, 0, 56, 0
2, 44157, Note_on_c, 0, 61, 69
2, 44165, Note_on_c, 0, 44, 69
2, 44198, Note_on_c, 0, 61, 0
2, 44207, Note_on_c, 0, 44, 0
2, 44240, Note_on_c, 0, 56, 63
2, 44269, Note_on_c, 0, 56, 0
2, 44320, Note_on_c, 0, 53, 53
2, 44345, Note_on_c, 0, 53, 0
2, 44388, Note_on_c, 0, 56, 63
2, 44418, Note_on_c, 0, 56, 0
2, 44468, Note_on_c, 0, 49, 62
2, 44504, Note_on_c, 0, 49, 0
2, 44539, Note_on_c, 0, 56, 68
2, 44572, Note_on_c, 0, 56, 0
2, 44618, Note_on_c, 0, 66, 79
2, 44627, Note_on_c, 0, 44, 69
2, 44669, Note_on_c, 0, 44, 0
2, 44688, Note_on_c, 0, 66, 0
2, 44697, Note_on_c, 0, 56, 66
2, 44725, Note_on_c, 0, 56, 0
2, 44798, Note_on_c, 0, 51, 60
2, 44827, Note_on_c, 0, 51, 0
2, 44867, Note_on_c, 0, 56, 57
2, 44893, Note_on_c, 0, 56, 0
2, 44941, Note_on_c, 0, 48, 64
2, 44978, Note_on_c, 0, 48, 0
2, 45004, Note_on_c, 0, 56, 69
2, 45042, Note_on_c, 0, 56, 0
2, 45097, Note_on_c, 0, 66, 81
2, 45100, Note_on_c, 0, 44, 72
2, 45145, Note_on_c, 0, 44, 0
2, 45167, Note_on_c, 0, 56, 71
2, 45167, Note_on_c, 0, 66, 0
2, 45197, Note_on_c, 0, 56, 0
2, 45257, Note_on_c, 0, 51, 65
2, 45288, Note_on_c, 0, 51, 0
2, 45315, Note_on_c, 0, 56, 66
2, 45344, Note_on_c, 0, 56, 0
2, 45402, Note_on_c, 0, 48, 64
2, 45442, Note_on_c, 0, 48, 0
2, 45460, Note_on_c, 0, 56, 68
2, 45489, Note_on_c, 0, 56, 0
2, 45559, Note_on_c, 0, 44, 76
2, 45562, Note_on_c, 0, 65, 84
2, 45604, Note_on_c, 0, 44, 0
2, 45623, Note_on_c, 0, 65, 0
2, 45632, Note_on_c, 0, 56, 69
2, 45662, Note_on_c, 0, 56, 0
2, 45724, Note_on_c, 0, 53, 66
2, 45754, Note_on_c, 0, 53, 0
2, 45809, Note_on_c, 0, 56, 58
2, 45834, Note_on_c, 0, 56, 0
2, 45876, Note_on_c, 0, 49, 69
2, 45914, Note_on_c, 0, 49, 0
2, 45939, Note_on_c, 0, 56, 71
2, 45974, Note_on_c, 0, 56, 0
2, 46028, Note_on_c, 0, 44, 73
2, 46030, Note_on_c, 0, 65, 82
2, 46072, Note_on_c, 0, 44, 0
2, 46089, Note_on_c, 0, 65, 0
2, 46096, Note_on_c, 0, 56, 72
2, 46124, Note_on_c, 0, 56, 0
2, 46186, Note_on_c, 0, 53, 67
2, 46217, Note_on_c, 0, 53, 0
2, 46246, Note_on_c, 0, 56, 64
2, 46279, Note_on_c, 0, 56, 0
2, 46334, Note_on_c, 0, 49, 70
2, 46380, Note_on_c, 0, 49, 0
2, 46388, Note_on_c, 0, 56, 74
2, 46417, Note_on_c, 0, 56, 0
2, 46482, Note_on_c, 0, 67, 86
2, 46485, Note_on_c, 0, 44, 76
2, 46528, Note_on_c, 0, 44, 0
2, 46549, Note_on_c, 0, 67, 0
2, 46556, Note_on_c, 0, 58, 73
2, 46585, Note_on_c, 0, 58, 0
2, 46644, Note_on_c, 0, 52, 75
2, 46674, Note_on_c, 0, 52, 0
2, 46715, Note_on_c, 0, 58, 64
2, 46745, Note_on_c, 0, 58, 0
2, 46792, Note_on_c, 0, 49, 75
2, 46834, Note_on_c, 0, 49, 0
2, 46850, Note_on_c, 0, 58, 71
2, 46883, Note_on_c, 0, 58, 0
2, 46942, Note_on_c, 0, 44, 78
2, 46945, Note_on_c, 0, 67, 81
2, 46993, Note_on_c, 0, 44, 0
2, 47015, Note_on_c, 0, 67, 0
2, 47019, Note_on_c, 0, 58, 71
2, 47051, Note_on_c, 0, 58, 0
2, 47104, Note_on_c, 0, 52, 74
2, 47135, Note_on_c, 0, 52, 0
2, 47180, Note_on_c, 0, 58, 66
2, 47214, Note_on_c, 0, 58, 0
2, 47257, Note_on_c, 0, 49, 65
2, 47287, Note_on_c, 0, 49, 0
2, 47308, Note_on_c, 0, 58, 83
2, 47357, Note_on_c, 0, 58, 0
2, 47415, Note_on_c, 0, 44, 74
2, 47507, Note_on_c, 0, 48, 75
2, 47532, Note_on_c, 0, 44, 0
2, 47591, Note_on_c, 0, 48, 0
2, 47591, Note_on_c, 0, 51, 89
2, 47623, Note_on_c, 0, 51, 0
2, 47658, Note_on_c, 0, 54, 77
2, 47701, Note_on_c, 0, 54, 0
2, 47748, Note_on_c, 0, 57, 75
2, 47816, Note_on_c, 0, 60, 79
2, 47819, Note_on_c, 0, 57, 0
2, 47879, Note_on_c, 0, 60, 0
2, 47898, Note_on_c, 0, 61, 69
2, 47971, Note_on_c, 0, 64, 78
2, 47980, Note_on_c, 0, 61, 0
2, 48059, Note_on_c, 0, 64, 0
2, 48059, Note_on_c, 0, 67, 85
2, 48097, Note_on_c, 0, 70, 79
2, 48099, Note_on_c, 0, 67, 0
2, 48178, Note_on_c, 0, 70, 0
2, 48178, Note_on_c, 0, 73, 69
2, 48238, Note_on_c, 0, 76, 70
2, 48239, Note_on_c, 0, 73, 0
2, 48284, Note_on_c, 0, 76, 0
2, 48330, Note_on_c, 0, 72, 77
2, 48357, Note_on_c, 0, 44, 73
2, 48378, Note_on_c, 0, 42, 14
2, 48379, Note_on_c, 0, 42, 0
2, 48410, Note_on_c, 0, 75, 76
2, 48415, Note_on_c, 0, 72, 0
2, 48470, Note_on_c, 0, 75, 0
2, 48482, Note_on_c, 0, 78, 69
2, 48553, Note_on_c, 0, 75, 67
2, 48566, Note_on_c, 0, 78, 0
2, 48606, Note_on_c, 0, 75, 0
2, 48635, Note_on_c, 0, 72, 67
2, 48661, Note_on_c, 0, 72, 0
2, 48698, Note_on_c, 0, 44, 0
2, 48722, Note_on_c, 0, 68, 75
2, 48804, Note_on_c, 0, 66, 71
2, 48833, Note_on_c, 0, 68, 0
2, 48876, Note_on_c, 0, 63, 80
2, 48882, Note_on_c, 0, 66, 0
2, 48957, Note_on_c, 0, 63, 0
2, 48960, Note_on_c, 0, 60, 80
2, 49006, Note_on_c, 0, 56, 72
2, 49012, Note_on_c, 0, 60, 0
2, 49102, Note_on_c, 0, 60, 72
2, 49107, Note_on_c, 0, 56, 0
2, 49168, Note_on_c, 0, 60, 0
2, 49175, Note_on_c, 0, 63, 80
2, 49244, Note_on_c, 0, 65, 78
2, 49257, Note_on_c, 0, 63, 0
2, 49260, Note_on_c, 0, 56, 76
2, 49325, Note_on_c, 0, 65, 0
2, 49332, Note_on_c, 0, 68, 75
2, 49387, Note_on_c, 0, 68, 0
2, 49401, Note_on_c, 0, 73, 66
2, 49477, Note_on_c, 0, 68, 71
2, 49494, Note_on_c, 0, 73, 0
2, 49515, Note_on_c, 0, 68, 0
2, 49547, Note_on_c, 0, 65, 66
2, 49577, Note_on_c, 0, 65, 0
2, 49583, Note_on_c, 0, 56, 0
2, 49635, Note_on_c, 0, 61, 70
2, 49712, Note_on_c, 0, 58, 80
2, 49732, Note_on_c, 0, 61, 0
2, 49794, Note_on_c, 0, 55, 79
2, 49794, Note_on_c, 0, 58, 0
2, 49860, Note_on_c, 0, 55, 0
2, 49880, Note_on_c, 0, 52, 81
2, 49937, Note_on_c, 0, 52, 0
2, 49941, Note_on_c, 0, 49, 74
2, 50037, Note_on_c, 0, 52, 72
2, 50046, Note_on_c, 0, 49, 0
2, 50105, Note_on_c, 0, 52, 0
2, 50107, Note_on_c, 0, 55, 79
2, 50177, Note_on_c, 0, 55, 0
2, 50228, Note_on_c, 0, 44, 80
2, 50469, Note_on_c, 0, 73, 84
2, 50471, Note_on_c, 0, 53, 72
2, 50472, Note_on_c, 0, 56, 78
2, 50472, Note_on_c, 0, 65, 87
2, 50475, Note_on_c, 0, 68, 81
2, 50484, Note_on_c, 0, 49, 59
2, 50513, Note_on_c, 0, 65, 0
2, 50521, Note_on_c, 0, 68, 0
2, 50537, Note_on_c, 0, 73, 0
2, 50545, Note_on_c, 0, 53, 0
2, 50547, Note_on_c, 0, 56, 0
2, 50570, Note_on_c, 0, 49, 0
2, 50764, Note_on_c, 0, 68, 76
2, 50765, Note_on_c, 0, 54, 70
2, 50765, Note_on_c, 0, 56, 81
2, 50765, Note_on_c, 0, 63, 82
2, 50767, Note_on_c, 0, 72, 78
2, 50775, Note_on_c, 0, 51, 64
2, 50811, Note_on_c, 0, 68, 0
2, 50816, Note_on_c, 0, 63, 0
2, 50833, Note_on_c, 0, 56, 0
2, 50845, Note_on_c, 0, 72, 0
2, 50851, Note_on_c, 0, 51, 0
2, 50851, Note_on_c, 0, 54, 0
2, 51166, Note_on_c, 0, 73, 79
2, 51172, Note_on_c, 0, 56, 67
2, 51172, Note_on_c, 0, 61, 75
2, 51176, Note_on_c, 0, 49, 49
2, 51177, Note_on_c, 0, 68, 73
2, 51180, Note_on_c, 0, 53, 63
2, 51242, Note_on_c, 0, 44, 0
2, 52776, Note_on_c, 0, 61, 0
2, 52828, Note_on_c, 0, 56, 0
2, 52842, Note_on_c, 0, 68, 0
2, 52847, Note_on_c, 0, 53, 0
2, 52847, Note_on_c, 0, 73, 0
2, 52857, Note_on_c, 0, 49, 0
2, 53236, Note_on_c, 0, 68, 77
2, 53267, Note_on_c, 0, 68, 0
2, 53486, Note_on_c, 0, 70, 70
2, 53561, Note_on_c, 0, 70, 0
2, 53571, Note_on_c, 0, 68, 71
2, 53616, Note_on_c, 0, 68, 0
2, 53674, Note_on_c, 0, 66, 74
2, 53735, Note_on_c, 0, 66, 0
2, 53753, Note_on_c, 0, 68, 73
2, 53788, Note_on_c, 0, 68, 0
2, 53882, Note_on_c, 0, 77, 79
2, 53921, Note_on_c, 0, 77, 0
2, 54112, Note_on_c, 0, 73, 78
2, 54157, Note_on_c, 0, 73, 0
2, 54337, Note_on_c, 0, 68, 80
2, 54543, Note_on_c, 0, 66, 64
2, 54551, Note_on_c, 0, 68, 0
2, 54607, Note_on_c, 0, 66, 0
2, 54627, Note_on_c, 0, 65, 68
2, 54679, Note_on_c, 0, 65, 0
2, 54747, Note_on_c, 0, 66, 75
2, 54778, Note_on_c, 0, 66, 0
2, 54960, Note_on_c, 0, 75, 70
2, 54998, Note_on_c, 0, 75, 0
2, 55160, Note_on_c, 0, 65, 77
2, 55203, Note_on_c, 0, 65, 0
2, 55373, Note_on_c, 0, 73, 71
2, 55425, Note_on_c, 0, 73, 0
2, 55591, Note_on_c, 0, 63, 71
2, 55636, Note_on_c, 0, 63, 0
2, 55801, Note_on_c, 0, 72, 72
2, 55842, Note_on_c, 0, 72, 0
2, 56011, Note_on_c, 0, 61, 68
2, 56037, Note_on_c, 0, 61, 0
2, 56216, Note_on_c, 0, 73, 65
2, 56281, Note_on_c, 0, 73, 0
2, 56317, Note_on_c, 0, 72, 68
2, 56403, Note_on_c, 0, 72, 0
2, 56412, Note_on_c, 0, 73, 69
2, 56493, Note_on_c, 0, 73, 0
2, 56500, Note_on_c, 0, 75, 72
2, 56565, Note_on_c, 0, 75, 0
2, 56608, Note_on_c, 0, 77, 72
2, 56613, Note_on_c, 0, 61, 75
2, 56650, Note_on_c, 0, 61, 0
2, 56683, Note_on_c, 0, 77, 0
2, 56695, Note_on_c, 0, 78, 70
2, 56778, Note_on_c, 0, 78, 0
2, 56803, Note_on_c, 0, 65, 73
2, 56807, Note_on_c, 0, 80, 73
2, 56895, Note_on_c, 0, 65, 0
2, 56898, Note_on_c, 0, 63, 72
2, 56901, Note_on_c, 0, 79, 72
2, 56911, Note_on_c, 0, 80, 0
2, 56972, Note_on_c, 0, 63, 0
2, 56985, Note_on_c, 0, 79, 0
2, 56986, Note_on_c, 0, 61, 66
2, 57003, Note_on_c, 0, 77, 66
2, 57082, Note_on_c, 0, 63, 77
2, 57091, Note_on_c, 0, 61, 0
2, 57093, Note_on_c, 0, 77, 0
2, 57100, Note_on_c, 0, 79, 71
2, 57120, Note_on_c, 0, 63, 0
2, 57159, Note_on_c, 0, 79, 0
2, 57201, Note_on_c, 0, 80, 70
2, 57204, Note_on_c, 0, 72, 75
2, 57247, Note_on_c, 0, 72, 0
2, 57297, Note_on_c, 0, 78, 72
2, 57297, Note_on_c, 0, 80, 0
2, 57363, Note_on_c, 0, 78, 0
2, 57399, Note_on_c, 0, 68, 79
2, 57401, Note_on_c, 0, 77, 63
2, 57433, Note_on_c, 0, 68, 0
2, 57468, Note_on_c, 0, 77, 0
2, 57491, Note_on_c, 0, 75, 70
2, 57566, Note_on_c, 0, 75, 0
2, 57602, Note_on_c, 0, 63, 75
2, 57604, Note_on_c, 0, 77, 68
2, 57831, Note_on_c, 0, 63, 0
2, 57833, Note_on_c, 0, 61, 63
2, 57908, Note_on_c, 0, 61, 0
2, 57920, Note_on_c, 0, 60, 69
2, 58027, Note_on_c, 0, 61, 76
2, 58029, Note_on_c, 0, 60, 0
2, 58071, Note_on_c, 0, 61, 0
2, 58149, Note_on_c, 0, 75, 56
2, 58163, Note_on_c, 0, 77, 0
2, 58227, Note_on_c, 0, 70, 65
2, 58236, Note_on_c, 0, 73, 68
2, 58237, Note_on_c, 0, 75, 0
2, 58259, Note_on_c, 0, 70, 0
2, 58307, Note_on_c, 0, 73, 0
2, 58329, Note_on_c, 0, 77, 65
2, 58437, Note_on_c, 0, 75, 67
2, 58440, Note_on_c, 0, 60, 65
2, 58451, Note_on_c, 0, 77, 0
2, 58481, Note_on_c, 0, 60, 0
2, 58522, Note_on_c, 0, 73, 67
2, 58528, Note_on_c, 0, 75, 0
2, 58607, Note_on_c, 0, 73, 0
2, 58640, Note_on_c, 0, 72, 65
2, 58647, Note_on_c, 0, 68, 63
2, 58679, Note_on_c, 0, 68, 0
2, 58717, Note_on_c, 0, 72, 0
2, 58725, Note_on_c, 0, 75, 62
2, 58835, Note_on_c, 0, 58, 63
2, 58838, Note_on_c, 0, 73, 67
2, 58842, Note_on_c, 0, 75, 0
2, 58887, Note_on_c, 0, 58, 0
2, 58914, Note_on_c, 0, 73, 0
2, 58920, Note_on_c, 0, 72, 70
2, 58994, Note_on_c, 0, 72, 0
2, 59018, Note_on_c, 0, 73, 67
2, 59028, Note_on_c, 0, 67, 68
2, 59062, Note_on_c, 0, 73, 0
2, 59072, Note_on_c, 0, 67, 0
2, 59090, Note_on_c, 0, 70, 70
2, 59118, Note_on_c, 0, 70, 0
2, 59210, Note_on_c, 0, 56, 68
2, 59213, Note_on_c, 0, 70, 71
2, 59244, Note_on_c, 0, 56, 0
2, 59249, Note_on_c, 0, 70, 0
2, 59284, Note_on_c, 0, 72, 67
2, 59320, Note_on_c, 0, 72, 0
2, 59420, Note_on_c, 0, 68, 74
2, 59430, Note_on_c, 0, 75, 69
2, 59464, Note_on_c, 0, 75, 0
2, 59493, Note_on_c, 0, 68, 0
2, 59501, Note_on_c, 0, 67, 71
2, 59598, Note_on_c, 0, 68, 79
2, 59598, Note_on_c, 0, 78, 75
2, 59605, Note_on_c, 0, 67, 0
2, 59627, Note_on_c, 0, 68, 0
2, 59688, Note_on_c, 0, 70, 70
2, 59735, Note_on_c, 0, 70, 0
2, 59799, Note_on_c, 0, 56, 74
2, 59799, Note_on_c, 0, 72, 65
2, 59840, Note_on_c, 0, 56, 0
2, 59865, Note_on_c, 0, 72, 0
2, 59882, Note_on_c, 0, 68, 68
2, 59922, Note_on_c, 0, 68, 0
2, 59990, Note_on_c, 0, 58, 78
2, 59998, Note_on_c, 0, 73, 65
2, 60081, Note_on_c, 0, 72, 67
2, 60083, Note_on_c, 0, 73, 0
2, 60088, Note_on_c, 0, 56, 68
2, 60089, Note_on_c, 0, 58, 0
2, 60155, Note_on_c, 0, 56, 0
2, 60161, Note_on_c, 0, 72, 0
2, 60167, Note_on_c, 0, 54, 64
2, 60177, Note_on_c, 0, 70, 74
2, 60231, Note_on_c, 0, 78, 0
2, 60252, Note_on_c, 0, 70, 0
2, 60262, Note_on_c, 0, 56, 69
2, 60265, Note_on_c, 0, 72, 68
2, 60271, Note_on_c, 0, 54, 0
2, 60292, Note_on_c, 0, 72, 0
2, 60293, Note_on_c, 0, 56, 0
2, 60371, Note_on_c, 0, 73, 74
2, 60371, Note_on_c, 0, 77, 70
2, 60375, Note_on_c, 0, 65, 75
2, 60422, Note_on_c, 0, 65, 0
2, 60464, Note_on_c, 0, 73, 0
2, 60470, Note_on_c, 0, 72, 66
2, 60532, Note_on_c, 0, 72, 0
2, 60565, Note_on_c, 0, 70, 72
2, 60567, Note_on_c, 0, 61, 72
2, 60599, Note_on_c, 0, 61, 0
2, 60649, Note_on_c, 0, 70, 0
2, 60661, Note_on_c, 0, 68, 64
2, 60747, Note_on_c, 0, 68, 0
2, 60767, Note_on_c, 0, 70, 68
2, 60769, Note_on_c, 0, 56, 70
2, 60938, Note_on_c, 0, 77, 0
2, 60985, Note_on_c, 0, 56, 0
2, 60990, Note_on_c, 0, 54, 57
2, 61046, Note_on_c, 0, 54, 0
2, 61063, Note_on_c, 0, 53, 66
2, 61123, Note_on_c, 0, 70, 0
2, 61165, Note_on_c, 0, 53, 0
2, 61171, Note_on_c, 0, 54, 72
2, 61172, Note_on_c, 0, 75, 67
2, 61213, Note_on_c, 0, 54, 0
2, 61271, Note_on_c, 0, 68, 56
2, 61350, Note_on_c, 0, 68, 0
2, 61361, Note_on_c, 0, 66, 64
2, 61367, Note_on_c, 0, 63, 61
2, 61405, Note_on_c, 0, 63, 0
2, 61420, Note_on_c, 0, 66, 0
2, 61445, Note_on_c, 0, 70, 60
2, 61560, Note_on_c, 0, 53, 62
2, 61567, Note_on_c, 0, 68, 62
2, 61592, Note_on_c, 0, 70, 0
2, 61594, Note_on_c, 0, 75, 0
2, 61612, Note_on_c, 0, 53, 0
2, 61638, Note_on_c, 0, 66, 67
2, 61642, Note_on_c, 0, 68, 0
2, 61693, Note_on_c, 0, 66, 0
2, 61744, Note_on_c, 0, 73, 70
2, 61756, Note_on_c, 0, 65, 61
2, 61757, Note_on_c, 0, 61, 61
2, 61794, Note_on_c, 0, 61, 0
2, 61806, Note_on_c, 0, 65, 0
2, 61832, Note_on_c, 0, 68, 62
2, 61842, Note_on_c, 0, 73, 0
2, 61870, Note_on_c, 0, 68, 0
2, 61940, Note_on_c, 0, 51, 64
2, 61941, Note_on_c, 0, 66, 61
2, 61943, Note_on_c, 0, 72, 68
2, 61986, Note_on_c, 0, 66, 0
2, 62004, Note_on_c, 0, 51, 0
2, 62017, Note_on_c, 0, 72, 0
2, 62021, Note_on_c, 0, 65, 61
2, 62075, Note_on_c, 0, 65, 0
2, 62129, Note_on_c, 0, 75, 70
2, 62130, Note_on_c, 0, 60, 63
2, 62133, Note_on_c, 0, 66, 66
2, 62167, Note_on_c, 0, 60, 0
2, 62210, Note_on_c, 0, 63, 71
2, 62211, Note_on_c, 0, 66, 0
2, 62244, Note_on_c, 0, 63, 0
2, 62323, Note_on_c, 0, 49, 63
2, 62340, Note_on_c, 0, 65, 73
2, 62358, Note_on_c, 0, 49, 0
2, 62430, Note_on_c, 0, 75, 0
2, 62545, Note_on_c, 0, 61, 64
2, 62553, Note_on_c, 0, 68, 70
2, 62589, Note_on_c, 0, 68, 0
2, 62608, Note_on_c, 0, 61, 0
2, 62628, Note_on_c, 0, 60, 63
2, 62686, Note_on_c, 0, 65, 0
2, 62730, Note_on_c, 0, 61, 63
2, 62730, Note_on_c, 0, 77, 86
2, 62749, Note_on_c, 0, 60, 0
2, 62819, Note_on_c, 0, 61, 0
2, 62830, Note_on_c, 0, 63, 60
2, 62893, Note_on_c, 0, 63, 0
2, 62929, Note_on_c, 0, 65, 62
2, 62936, Note_on_c, 0, 68, 70
2, 62965, Note_on_c, 0, 68, 0
2, 62970, Note_on_c, 0, 65, 0
2, 63013, Note_on_c, 0, 61, 58
2, 63071, Note_on_c, 0, 61, 0
2, 63113, Note_on_c, 0, 58, 57
2, 63129, Note_on_c, 0, 73, 72
2, 63164, Note_on_c, 0, 77, 0
2, 63219, Note_on_c, 0, 60, 58
2, 63221, Note_on_c, 0, 58, 0
2, 63272, Note_on_c, 0, 73, 0
2, 63282, Note_on_c, 0, 60, 0
2, 63306, Note_on_c, 0, 77, 66
2, 63321, Note_on_c, 0, 61, 56
2, 63366, Note_on_c, 0, 61, 0
2, 63390, Note_on_c, 0, 73, 69
2, 63394, Note_on_c, 0, 58, 59
2, 63432, Note_on_c, 0, 77, 0
2, 63457, Note_on_c, 0, 58, 0
2, 63496, Note_on_c, 0, 55, 60
2, 63498, Note_on_c, 0, 70, 75
2, 63506, Note_on_c, 0, 73, 0
2, 63576, Note_on_c, 0, 55, 0
2, 63586, Note_on_c, 0, 56, 59
2, 63649, Note_on_c, 0, 56, 0
2, 63679, Note_on_c, 0, 70, 0
2, 63682, Note_on_c, 0, 58, 62
2, 63686, Note_on_c, 0, 73, 65
2, 63718, Note_on_c, 0, 58, 0
2, 63772, Note_on_c, 0, 73, 0
2, 63775, Note_on_c, 0, 70, 70
2, 63777, Note_on_c, 0, 55, 66
2, 63803, Note_on_c, 0, 55, 0
2, 63829, Note_on_c, 0, 70, 0
2, 63882, Note_on_c, 0, 63, 74
2, 63888, Note_on_c, 0, 48, 75
2, 63913, Note_on_c, 0, 48, 0
2, 64096, Note_on_c, 0, 60, 64
2, 64101, Note_on_c, 0, 70, 68
2, 64141, Note_on_c, 0, 60, 0
2, 64149, Note_on_c, 0, 70, 0
2, 64172, Note_on_c, 0, 58, 60
2, 64234, Note_on_c, 0, 58, 0
2, 64252, Note_on_c, 0, 63, 0
2, 64274, Note_on_c, 0, 60, 58
2, 64276, Note_on_c, 0, 75, 81
2, 64311, Note_on_c, 0, 60, 0
2, 64362, Note_on_c, 0, 61, 59
2, 64418, Note_on_c, 0, 61, 0
2, 64475, Note_on_c, 0, 67, 64
2, 64480, Note_on_c, 0, 63, 56
2, 64506, Note_on_c, 0, 67, 0
2, 64536, Note_on_c, 0, 63, 0
2, 64555, Note_on_c, 0, 60, 58
2, 64621, Note_on_c, 0, 60, 0
2, 64672, Note_on_c, 0, 56, 51
2, 64677, Note_on_c, 0, 72, 74
2, 64680, Note_on_c, 0, 75, 0
2, 64760, Note_on_c, 0, 56, 0
2, 64770, Note_on_c, 0, 58, 58
2, 64825, Note_on_c, 0, 58, 0
2, 64858, Note_on_c, 0, 72, 0
2, 64862, Note_on_c, 0, 75, 65
2, 64869, Note_on_c, 0, 60, 57
2, 64906, Note_on_c, 0, 60, 0
2, 64936, Note_on_c, 0, 75, 0
2, 64947, Note_on_c, 0, 56, 59
2, 64953, Note_on_c, 0, 72, 66
2, 64995, Note_on_c, 0, 56, 0
2, 65043, Note_on_c, 0, 53, 60
2, 65049, Note_on_c, 0, 68, 77
2, 65071, Note_on_c, 0, 72, 0
2, 65139, Note_on_c, 0, 53, 0
2, 65153, Note_on_c, 0, 55, 57
2, 65188, Note_on_c, 0, 55, 0
2, 65228, Note_on_c, 0, 56, 58
2, 65236, Note_on_c, 0, 68, 0
2, 65237, Note_on_c, 0, 72, 58
2, 65261, Note_on_c, 0, 56, 0
2, 65320, Note_on_c, 0, 53, 54
2, 65324, Note_on_c, 0, 72, 0
2, 65328, Note_on_c, 0, 68, 68
2, 65348, Note_on_c, 0, 53, 0
2, 65392, Note_on_c, 0, 68, 0
2, 65439, Note_on_c, 0, 46, 64
2, 65440, Note_on_c, 0, 61, 74
2, 65467, Note_on_c, 0, 46, 0
2, 65650, Note_on_c, 0, 58, 66
2, 65657, Note_on_c, 0, 68, 71
2, 65714, Note_on_c, 0, 58, 0
2, 65719, Note_on_c, 0, 68, 0
2, 65739, Note_on_c, 0, 56, 60
2, 65804, Note_on_c, 0, 61, 0
2, 65839, Note_on_c, 0, 73, 76
2, 65844, Note_on_c, 0, 58, 59
2, 65878, Note_on_c, 0, 56, 0
2, 65915, Note_on_c, 0, 58, 0
2, 65923, Note_on_c, 0, 60, 58
2, 65971, Note_on_c, 0, 60, 0
2, 66026, Note_on_c, 0, 61, 61
2, 66029, Note_on_c, 0, 65, 67
2, 66063, Note_on_c, 0, 65, 0
2, 66075, Note_on_c, 0, 61, 0
2, 66105, Note_on_c, 0, 58, 57
2, 66177, Note_on_c, 0, 58, 0
2, 66211, Note_on_c, 0, 55, 60
2, 66211, Note_on_c, 0, 73, 0
2, 66217, Note_on_c, 0, 70, 73
2, 66302, Note_on_c, 0, 55, 0
2, 66303, Note_on_c, 0, 56, 62
2, 66312, Note_on_c, 0, 72, 67
2, 66320, Note_on_c, 0, 70, 0
2, 66364, Note_on_c, 0, 56, 0
2, 66392, Note_on_c, 0, 72, 0
2, 66395, Note_on_c, 0, 73, 69
2, 66396, Note_on_c, 0, 58, 65
2, 66429, Note_on_c, 0, 58, 0
2, 66444, Note_on_c, 0, 73, 0
2, 66480, Note_on_c, 0, 55, 58
2, 66480, Note_on_c, 0, 70, 74
2, 66542, Note_on_c, 0, 70, 0
2, 66548, Note_on_c, 0, 55, 0
2, 66583, Note_on_c, 0, 82, 76
2, 66584, Note_on_c, 0, 51, 58
2, 66673, Note_on_c, 0, 73, 69
2, 66679, Note_on_c, 0, 53, 58
2, 66696, Note_on_c, 0, 51, 0
2, 66741, Note_on_c, 0, 53, 0
2, 66747, Note_on_c, 0, 73, 0
2, 66759, Note_on_c, 0, 75, 64
2, 66768, Note_on_c, 0, 55, 59
2, 66823, Note_on_c, 0, 55, 0
2, 66823, Note_on_c, 0, 75, 0
2, 66839, Note_on_c, 0, 70, 71
2, 66846, Note_on_c, 0, 51, 69
2, 66867, Note_on_c, 0, 70, 0
2, 66871, Note_on_c, 0, 51, 0
2, 66967, Note_on_c, 0, 44, 64
2, 66967, Note_on_c, 0, 72, 74
2, 67000, Note_on_c, 0, 44, 0
2, 67004, Note_on_c, 0, 82, 0
2, 67049, Note_on_c, 0, 80, 70
2, 67101, Note_on_c, 0, 72, 0
2, 67129, Note_on_c, 0, 80, 0
2, 67156, Note_on_c, 0, 56, 65
2, 67160, Note_on_c, 0, 79, 66
2, 67235, Note_on_c, 0, 79, 0
2, 67240, Note_on_c, 0, 58, 63
2, 67248, Note_on_c, 0, 82, 68
2, 67265, Note_on_c, 0, 56, 0
2, 67326, Note_on_c, 0, 58, 0
2, 67345, Note_on_c, 0, 80, 73
2, 67352, Note_on_c, 0, 60, 72
2, 67368, Note_on_c, 0, 82, 0
2, 67378, Note_on_c, 0, 60, 0
2, 67444, Note_on_c, 0, 75, 67
2, 67462, Note_on_c, 0, 80, 0
2, 67517, Note_on_c, 0, 75, 0
2, 67537, Note_on_c, 0, 77, 74
2, 67539, Note_on_c, 0, 68, 81
2, 67542, Note_on_c, 0, 56, 58
2, 67571, Note_on_c, 0, 56, 0
2, 67623, Note_on_c, 0, 78, 69
2, 67625, Note_on_c, 0, 77, 0
2, 67708, Note_on_c, 0, 68, 0
2, 67721, Note_on_c, 0, 78, 0
2, 67722, Note_on_c, 0, 61, 65
2, 67735, Note_on_c, 0, 77, 74
2, 67817, Note_on_c, 0, 67, 64
2, 67821, Note_on_c, 0, 77, 0
2, 67822, Note_on_c, 0, 75, 71
2, 67884, Note_on_c, 0, 75, 0
2, 67892, Note_on_c, 0, 67, 0
2, 67913, Note_on_c, 0, 73, 70
2, 67915, Note_on_c, 0, 65, 57
2, 67932, Note_on_c, 0, 61, 0
2, 67984, Note_on_c, 0, 73, 0
2, 67985, Note_on_c, 0, 65, 0
2, 67996, Note_on_c, 0, 67, 59
2, 67998, Note_on_c, 0, 75, 75
2, 68028, Note_on_c, 0, 75, 0
2, 68051, Note_on_c, 0, 67, 0
2, 68097, Note_on_c, 0, 68, 72
2, 68107, Note_on_c, 0, 84, 88
2, 68111, Note_on_c, 0, 60, 56
2, 68151, Note_on_c, 0, 68, 0
2, 68159, Note_on_c, 0, 84, 0
2, 68196, Note_on_c, 0, 66, 70
2, 68198, Note_on_c, 0, 60, 0
2, 68303, Note_on_c, 0, 65, 59
2, 68305, Note_on_c, 0, 80, 83
2, 68335, Note_on_c, 0, 66, 0
2, 68367, Note_on_c, 0, 80, 0
2, 68380, Note_on_c, 0, 65, 0
2, 68384, Note_on_c, 0, 63, 65
2, 68415, Note_on_c, 0, 63, 0
2, 68511, Note_on_c, 0, 65, 68
2, 68514, Note_on_c, 0, 75, 76
2, 68515, Note_on_c, 0, 58, 66
2, 68582, Note_on_c, 0, 58, 0
2, 68719, Note_on_c, 0, 56, 65
2, 68727, Note_on_c, 0, 73, 66
2, 68742, Note_on_c, 0, 75, 0
2, 68764, Note_on_c, 0, 56, 0
2, 68796, Note_on_c, 0, 73, 0
2, 68815, Note_on_c, 0, 72, 67
2, 68899, Note_on_c, 0, 65, 0
2, 68911, Note_on_c, 0, 72, 0
2, 68920, Note_on_c, 0, 73, 72
2, 68921, Note_on_c, 0, 55, 59
2, 68958, Note_on_c, 0, 55, 0
2, 68966, Note_on_c, 0, 73, 0
2, 69003, Note_on_c, 0, 63, 66
2, 69105, Note_on_c, 0, 63, 0
2, 69106, Note_on_c, 0, 82, 76
2, 69110, Note_on_c, 0, 61, 65
2, 69164, Note_on_c, 0, 82, 0
2, 69169, Note_on_c, 0, 61, 0
2, 69198, Note_on_c, 0, 65, 66
2, 69251, Note_on_c, 0, 65, 0
2, 69302, Note_on_c, 0, 72, 72
2, 69305, Note_on_c, 0, 56, 54
2, 69315, Note_on_c, 0, 63, 65
2, 69348, Note_on_c, 0, 72, 0
2, 69372, Note_on_c, 0, 56, 0
2, 69406, Note_on_c, 0, 61, 64
2, 69442, Note_on_c, 0, 63, 0
2, 69498, Note_on_c, 0, 60, 65
2, 69502, Note_on_c, 0, 80, 68
2, 69504, Note_on_c, 0, 61, 0
2, 69545, Note_on_c, 0, 60, 0
2, 69563, Note_on_c, 0, 80, 0
2, 69581, Note_on_c, 0, 63, 67
2, 69615, Note_on_c, 0, 63, 0
2, 69704, Note_on_c, 0, 70, 81
2, 69706, Note_on_c, 0, 51, 64
2, 69712, Note_on_c, 0, 61, 53
2, 69738, Note_on_c, 0, 61, 0
2, 69749, Note_on_c, 0, 70, 0
2, 69775, Note_on_c, 0, 51, 0
2, 69785, Note_on_c, 0, 60, 61
2, 69898, Note_on_c, 0, 60, 0
2, 69901, Note_on_c, 0, 79, 75
2, 69905, Note_on_c, 0, 61, 72
2, 69945, Note_on_c, 0, 79, 0
2, 69987, Note_on_c, 0, 58, 55
2, 69992, Note_on_c, 0, 61, 0
2, 70086, Note_on_c, 0, 58, 0
2, 70089, Note_on_c, 0, 68, 78
2, 70091, Note_on_c, 0, 60, 61
2, 70096, Note_on_c, 0, 56, 46
2, 70148, Note_on_c, 0, 60, 0
2, 70153, Note_on_c, 0, 68, 0
2, 70180, Note_on_c, 0, 70, 68
2, 70246, Note_on_c, 0, 70, 0
2, 70293, Note_on_c, 0, 72, 68
2, 70298, Note_on_c, 0, 63, 67
2, 70348, Note_on_c, 0, 63, 0
2, 70365, Note_on_c, 0, 72, 0
2, 70370, Note_on_c, 0, 73, 67
2, 70453, Note_on_c, 0, 73, 0
2, 70484, Note_on_c, 0, 72, 72
2, 70493, Note_on_c, 0, 68, 66
2, 70496, Note_on_c, 0, 56, 0
2, 70549, Note_on_c, 0, 72, 0
2, 70559, Note_on_c, 0, 70, 69
2, 70598, Note_on_c, 0, 68, 0
2, 70617, Note_on_c, 0, 70, 0
2, 70662, Note_on_c, 0, 63, 62
2, 70662, Note_on_c, 0, 68, 65
2, 70716, Note_on_c, 0, 68, 0
2, 70723, Note_on_c, 0, 63, 0
2, 70741, Note_on_c, 0, 72, 73
2, 70745, Note_on_c, 0, 60, 62
2, 70841, Note_on_c, 0, 72, 0
2, 70853, Note_on_c, 0, 56, 62
2, 70853, Note_on_c, 0, 77, 67
2, 70859, Note_on_c, 0, 60, 0
2, 70943, Note_on_c, 0, 75, 67
2, 70952, Note_on_c, 0, 77, 0
2, 71006, Note_on_c, 0, 56, 0
2, 71009, Note_on_c, 0, 75, 0
2, 71036, Note_on_c, 0, 59, 68
2, 71043, Note_on_c, 0, 74, 71
2, 71108, Note_on_c, 0, 59, 0
2, 71112, Note_on_c, 0, 74, 0
2, 71123, Note_on_c, 0, 77, 76
2, 71128, Note_on_c, 0, 56, 71
2, 71194, Note_on_c, 0, 77, 0
2, 71222, Note_on_c, 0, 56, 0
2, 71224, Note_on_c, 0, 80, 76
2, 71229, Note_on_c, 0, 53, 71
2, 71313, Note_on_c, 0, 78, 78
2, 71323, Note_on_c, 0, 80, 0
2, 71394, Note_on_c, 0, 53, 0
2, 71396, Note_on_c, 0, 78, 0
2, 71418, Note_on_c, 0, 77, 77
2, 71423, Note_on_c, 0, 56, 66
2, 71491, Note_on_c, 0, 56, 0
2, 71506, Note_on_c, 0, 53, 70
2, 71508, Note_on_c, 0, 77, 0
2, 71508, Note_on_c, 0, 80, 80
2, 71603, Note_on_c, 0, 53, 0
2, 71609, Note_on_c, 0, 80, 0
2, 71628, Note_on_c, 0, 83, 78
2, 71630, Note_on_c, 0, 50, 66
2, 71838, Note_on_c, 0, 82, 69
2, 71840, Note_on_c, 0, 53, 62
2, 71842, Note_on_c, 0, 83, 0
2, 71877, Note_on_c, 0, 50, 0
2, 71928, Note_on_c, 0, 80, 73
2, 71931, Note_on_c, 0, 56, 64
2, 71934, Note_on_c, 0, 82, 0
2, 71947, Note_on_c, 0, 53, 0
2, 72020, Note_on_c, 0, 56, 0
2, 72024, Note_on_c, 0, 78, 69
2, 72028, Note_on_c, 0, 80, 0
2, 72036, Note_on_c, 0, 59, 69
2, 72090, Note_on_c, 0, 78, 0
2, 72111, Note_on_c, 0, 77, 68
2, 72170, Note_on_c, 0, 77, 0
2, 72221, Note_on_c, 0, 53, 58
2, 72221, Note_on_c, 0, 75, 67
2, 72298, Note_on_c, 0, 75, 0
2, 72303, Note_on_c, 0, 74, 65
2, 72345, Note_on_c, 0, 59, 0
2, 72380, Note_on_c, 0, 74, 0
2, 72417, Note_on_c, 0, 58, 54
2, 72425, Note_on_c, 0, 75, 71
2, 72437, Note_on_c, 0, 54, 51
2, 72460, Note_on_c, 0, 53, 0
2, 72481, Note_on_c, 0, 58, 0
2, 72486, Note_on_c, 0, 75, 0
2, 72491, Note_on_c, 0, 54, 0
2, 72511, Note_on_c, 0, 78, 71
2, 72590, Note_on_c, 0, 78, 0
2, 72610, Note_on_c, 0, 59, 49
2, 72610, Note_on_c, 0, 77, 66
2, 72611, Note_on_c, 0, 56, 55
2, 72640, Note_on_c, 0, 59, 0
2, 72659, Note_on_c, 0, 56, 0
2, 72693, Note_on_c, 0, 77, 0
2, 72698, Note_on_c, 0, 75, 66
2, 72769, Note_on_c, 0, 75, 0
2, 72783, Note_on_c, 0, 74, 60
2, 72799, Note_on_c, 0, 58, 71
2, 72852, Note_on_c, 0, 74, 0
2, 72862, Note_on_c, 0, 58, 0
2, 72880, Note_on_c, 0, 77, 65
2, 72914, Note_on_c, 0, 77, 0
2, 72971, Note_on_c, 0, 70, 68
2, 72977, Note_on_c, 0, 46, 66
2, 72980, Note_on_c, 0, 50, 61
2, 73010, Note_on_c, 0, 50, 0
2, 73011, Note_on_c, 0, 70, 0
2, 73021, Note_on_c, 0, 46, 0
2, 73060, Note_on_c, 0, 68, 68
2, 73181, Note_on_c, 0, 66, 67
2, 73188, Note_on_c, 0, 68, 0
2, 73189, Note_on_c, 0, 51, 66
2, 73190, Note_on_c, 0, 39, 62
2, 73251, Note_on_c, 0, 66, 0
2, 73271, Note_on_c, 0, 65, 64
2, 73316, Note_on_c, 0, 39, 0
2, 73337, Note_on_c, 0, 51, 0
2, 73347, Note_on_c, 0, 65, 0
2, 73377, Note_on_c, 0, 63, 68
2, 73454, Note_on_c, 0, 63, 0
2, 73461, Note_on_c, 0, 62, 69
2, 73532, Note_on_c, 0, 62, 0
2, 73556, Note_on_c, 0, 63, 66
2, 73594, Note_on_c, 0, 63, 0
2, 73635, Note_on_c, 0, 65, 70
2, 73699, Note_on_c, 0, 65, 0
2, 73736, Note_on_c, 0, 66, 71
2, 73742, Note_on_c, 0, 51, 64
2, 73781, Note_on_c, 0, 51, 0
2, 73816, Note_on_c, 0, 66, 0
2, 73819, Note_on_c, 0, 68, 67
2, 73904, Note_on_c, 0, 68, 0
2, 73916, Note_on_c, 0, 54, 72
2, 73929, Note_on_c, 0, 70, 53
2, 74010, Note_on_c, 0, 54, 0
2, 74023, Note_on_c, 0, 53, 66
2, 74027, Note_on_c, 0, 68, 64
2, 74040, Note_on_c, 0, 70, 0
2, 74082, Note_on_c, 0, 53, 0
2, 74096, Note_on_c, 0, 51, 55
2, 74103, Note_on_c, 0, 68, 0
2, 74112, Note_on_c, 0, 66, 65
2, 74190, Note_on_c, 0, 53, 70
2, 74194, Note_on_c, 0, 68, 66
2, 74201, Note_on_c, 0, 66, 0
2, 74206, Note_on_c, 0, 51, 0
2, 74228, Note_on_c, 0, 53, 0
2, 74268, Note_on_c, 0, 68, 0
2, 74304, Note_on_c, 0, 70, 64
2, 74316, Note_on_c, 0, 61, 76
2, 74354, Note_on_c, 0, 61, 0
2, 74384, Note_on_c, 0, 68, 67
2, 74401, Note_on_c, 0, 70, 0
2, 74497, Note_on_c, 0, 58, 77
2, 74497, Note_on_c, 0, 66, 64
2, 74500, Note_on_c, 0, 68, 0
2, 74530, Note_on_c, 0, 58, 0
2, 74573, Note_on_c, 0, 66, 0
2, 74586, Note_on_c, 0, 65, 69
2, 74696, Note_on_c, 0, 65, 0
2, 74712, Note_on_c, 0, 53, 74
2, 74713, Note_on_c, 0, 66, 68
2, 74919, Note_on_c, 0, 51, 61
2, 74948, Note_on_c, 0, 53, 0
2, 74987, Note_on_c, 0, 51, 0
2, 74998, Note_on_c, 0, 49, 71
2, 75105, Note_on_c, 0, 51, 79
2, 75115, Note_on_c, 0, 49, 0
2, 75150, Note_on_c, 0, 51, 0
2, 75176, Note_on_c, 0, 66, 0
2, 75206, Note_on_c, 0, 65, 68
2, 75291, Note_on_c, 0, 65, 0
2, 75304, Note_on_c, 0, 60, 63
2, 75311, Note_on_c, 0, 63, 69
2, 75335, Note_on_c, 0, 60, 0
2, 75378, Note_on_c, 0, 63, 0
2, 75384, Note_on_c, 0, 66, 58
2, 75481, Note_on_c, 0, 66, 0
2, 75493, Note_on_c, 0, 49, 70
2, 75501, Note_on_c, 0, 65, 61
2, 75551, Note_on_c, 0, 49, 0
2, 75573, Note_on_c, 0, 65, 0
2, 75581, Note_on_c, 0, 63, 66
2, 75646, Note_on_c, 0, 63, 0
2, 75684, Note_on_c, 0, 61, 70
2, 75693, Note_on_c, 0, 58, 64
2, 75726, Note_on_c, 0, 58, 0
2, 75737, Note_on_c, 0, 61, 0
2, 75758, Note_on_c, 0, 65, 65
2, 75875, Note_on_c, 0, 63, 67
2, 75884, Note_on_c, 0, 65, 0
2, 75888, Note_on_c, 0, 48, 55
2, 75916, Note_on_c, 0, 48, 0
2, 75940, Note_on_c, 0, 63, 0
2, 75947, Note_on_c, 0, 61, 69
2, 76010, Note_on_c, 0, 61, 0
2, 76051, Note_on_c, 0, 63, 68
2, 76063, Note_on_c, 0, 57, 59
2, 76096, Note_on_c, 0, 57, 0
2, 76096, Note_on_c, 0, 63, 0
2, 76132, Note_on_c, 0, 60, 69
2, 76192, Note_on_c, 0, 60, 0
2, 76233, Note_on_c, 0, 46, 66
2, 76233, Note_on_c, 0, 61, 67
2, 76267, Note_on_c, 0, 46, 0
2, 76328, Note_on_c, 0, 65, 68
2, 76330, Note_on_c, 0, 61, 0
2, 76413, Note_on_c, 0, 65, 0
2, 76418, Note_on_c, 0, 58, 62
2, 76423, Note_on_c, 0, 66, 67
2, 76478, Note_on_c, 0, 66, 0
2, 76483, Note_on_c, 0, 58, 0
2, 76501, Note_on_c, 0, 57, 60
2, 76512, Note_on_c, 0, 65, 76
2, 76573, Note_on_c, 0, 65, 0
2, 76604, Note_on_c, 0, 58, 57
2, 76619, Note_on_c, 0, 73, 77
2, 76626, Note_on_c, 0, 57, 0
2, 76683, Note_on_c, 0, 58, 0
2, 76690, Note_on_c, 0, 60, 55
2, 76756, Note_on_c, 0, 60, 0
2, 76793, Note_on_c, 0, 61, 62
2, 76818, Note_on_c, 0, 65, 59
2, 76846, Note_on_c, 0, 61, 0
2, 76851, Note_on_c, 0, 65, 0
2, 76871, Note_on_c, 0, 58, 60
2, 76941, Note_on_c, 0, 58, 0
2, 76983, Note_on_c, 0, 73, 0
2, 76984, Note_on_c, 0, 55, 58
2, 76992, Note_on_c, 0, 70, 68
2, 77068, Note_on_c, 0, 55, 0
2, 77074, Note_on_c, 0, 56, 64
2, 77083, Note_on_c, 0, 72, 62
2, 77085, Note_on_c, 0, 70, 0
2, 77136, Note_on_c, 0, 56, 0
2, 77167, Note_on_c, 0, 72, 0
2, 77167, Note_on_c, 0, 73, 65
2, 77175, Note_on_c, 0, 58, 63
2, 77204, Note_on_c, 0, 58, 0
2, 77218, Note_on_c, 0, 73, 0
2, 77256, Note_on_c, 0, 55, 55
2, 77256, Note_on_c, 0, 70, 75
2, 77310, Note_on_c, 0, 70, 0
2, 77321, Note_on_c, 0, 55, 0
2, 77350, Note_on_c, 0, 82, 78
2, 77355, Note_on_c, 0, 51, 55
2, 77431, Note_on_c, 0, 82, 0
2, 77441, Note_on_c, 0, 53, 63
2, 77445, Note_on_c, 0, 73, 70
2, 77463, Note_on_c, 0, 51, 0
2, 77493, Note_on_c, 0, 53, 0
2, 77521, Note_on_c, 0, 73, 0
2, 77525, Note_on_c, 0, 55, 63
2, 77541, Note_on_c, 0, 75, 62
2, 77583, Note_on_c, 0, 55, 0
2, 77606, Note_on_c, 0, 51, 70
2, 77616, Note_on_c, 0, 70, 66
2, 77616, Note_on_c, 0, 75, 0
2, 77635, Note_on_c, 0, 51, 0
2, 77671, Note_on_c, 0, 70, 0
2, 77713, Note_on_c, 0, 72, 70
2, 77722, Note_on_c, 0, 44, 70
2, 77739, Note_on_c, 0, 72, 0
2, 77747, Note_on_c, 0, 44, 0
2, 77813, Note_on_c, 0, 63, 75
2, 77885, Note_on_c, 0, 63, 0
2, 77906, Note_on_c, 0, 56, 64
2, 77906, Note_on_c, 0, 65, 71
2, 77967, Note_on_c, 0, 56, 0
2, 77975, Note_on_c, 0, 65, 0
2, 77985, Note_on_c, 0, 63, 78
2, 77994, Note_on_c, 0, 55, 58
2, 78043, Note_on_c, 0, 63, 0
2, 78086, Note_on_c, 0, 72, 85
2, 78096, Note_on_c, 0, 56, 59
2, 78118, Note_on_c, 0, 55, 0
2, 78178, Note_on_c, 0, 56, 0
2, 78186, Note_on_c, 0, 58, 64
2, 78238, Note_on_c, 0, 58, 0
2, 78273, Note_on_c, 0, 60, 62
2, 78274, Note_on_c, 0, 63, 74
2, 78310, Note_on_c, 0, 63, 0
2, 78314, Note_on_c, 0, 60, 0
2, 78357, Note_on_c, 0, 56, 61
2, 78420, Note_on_c, 0, 56, 0
2, 78453, Note_on_c, 0, 53, 63
2, 78458, Note_on_c, 0, 68, 71
2, 78459, Note_on_c, 0, 72, 0
2, 78541, Note_on_c, 0, 53, 0
2, 78542, Note_on_c, 0, 55, 60
2, 78542, Note_on_c, 0, 70, 63
2, 78559, Note_on_c, 0, 68, 0
2, 78594, Note_on_c, 0, 55, 0
2, 78632, Note_on_c, 0, 56, 61
2, 78636, Note_on_c, 0, 70, 0
2, 78645, Note_on_c, 0, 72, 62
2, 78674, Note_on_c, 0, 56, 0
2, 78679, Note_on_c, 0, 72, 0
2, 78717, Note_on_c, 0, 53, 59
2, 78717, Note_on_c, 0, 68, 74
2, 78794, Note_on_c, 0, 68, 0
2, 78803, Note_on_c, 0, 53, 0
2, 78822, Note_on_c, 0, 80, 76
2, 78829, Note_on_c, 0, 49, 69
2, 78911, Note_on_c, 0, 72, 70
2, 78913, Note_on_c, 0, 80, 0
2, 78914, Note_on_c, 0, 51, 65
2, 78929, Note_on_c, 0, 49, 0
2, 78973, Note_on_c, 0, 51, 0
2, 78996, Note_on_c, 0, 53, 66
2, 79003, Note_on_c, 0, 72, 0
2, 79009, Note_on_c, 0, 73, 65
2, 79048, Note_on_c, 0, 53, 0
2, 79075, Note_on_c, 0, 49, 69
2, 79083, Note_on_c, 0, 68, 63
2, 79083, Note_on_c, 0, 73, 0
2, 79106, Note_on_c, 0, 49, 0
2, 79136, Note_on_c, 0, 68, 0
2, 79179, Note_on_c, 0, 70, 67
2, 79196, Note_on_c, 0, 43, 49
2, 79199, Note_on_c, 0, 45, 45
2, 79205, Note_on_c, 0, 70, 0
2, 79230, Note_on_c, 0, 45, 0
2, 79231, Note_on_c, 0, 43, 0
2, 79272, Note_on_c, 0, 61, 79
2, 79361, Note_on_c, 0, 61, 0
2, 79373, Note_on_c, 0, 55, 61
2, 79374, Note_on_c, 0, 63, 69
2, 79429, Note_on_c, 0, 55, 0
2, 79445, Note_on_c, 0, 63, 0
2, 79449, Note_on_c, 0, 61, 76
2, 79467, Note_on_c, 0, 53, 62
2, 79519, Note_on_c, 0, 61, 0
2, 79551, Note_on_c, 0, 70, 79
2, 79559, Note_on_c, 0, 55, 57
2, 79563, Note_on_c, 0, 53, 0
2, 79645, Note_on_c, 0, 55, 0
2, 79660, Note_on_c, 0, 56, 59
2, 79712, Note_on_c, 0, 56, 0
2, 79738, Note_on_c, 0, 58, 63
2, 79741, Note_on_c, 0, 61, 66
2, 79772, Note_on_c, 0, 58, 0
2, 79777, Note_on_c, 0, 61, 0
2, 79820, Note_on_c, 0, 55, 65
2, 79893, Note_on_c, 0, 55, 0
2, 79915, Note_on_c, 0, 52, 63
2, 79915, Note_on_c, 0, 70, 0
2, 79923, Note_on_c, 0, 67, 64
2, 79982, Note_on_c, 0, 67, 0
2, 79999, Note_on_c, 0, 68, 61
2, 80004, Note_on_c, 0, 52, 0
2, 80006, Note_on_c, 0, 53, 67
2, 80059, Note_on_c, 0, 53, 0
2, 80085, Note_on_c, 0, 68, 0
2, 80097, Note_on_c, 0, 70, 64
2, 80098, Note_on_c, 0, 55, 64
2, 80144, Note_on_c, 0, 70, 0
2, 80162, Note_on_c, 0, 55, 0
2, 80181, Note_on_c, 0, 52, 68
2, 80187, Note_on_c, 0, 67, 73
2, 80242, Note_on_c, 0, 67, 0
2, 80258, Note_on_c, 0, 52, 0
2, 80281, Note_on_c, 0, 79, 84
2, 80287, Note_on_c, 0, 48, 70
2, 80373, Note_on_c, 0, 50, 63
2, 80377, Note_on_c, 0, 70, 68
2, 80380, Note_on_c, 0, 48, 0
2, 80443, Note_on_c, 0, 50, 0
2, 80447, Note_on_c, 0, 70, 0
2, 80462, Note_on_c, 0, 52, 64
2, 80470, Note_on_c, 0, 72, 60
2, 80533, Note_on_c, 0, 52, 0
2, 80536, Note_on_c, 0, 79, 0
2, 80541, Note_on_c, 0, 48, 68
2, 80541, Note_on_c, 0, 72, 0
2, 80548, Note_on_c, 0, 67, 49
2, 80555, Note_on_c, 0, 79, 26
2, 80565, Note_on_c, 0, 48, 0
2, 80571, Note_on_c, 0, 67, 0
2, 80654, Note_on_c, 0, 68, 80
2, 80667, Note_on_c, 0, 41, 51
2, 80679, Note_on_c, 0, 43, 49
2, 80686, Note_on_c, 0, 79, 0
2, 80742, Note_on_c, 0, 43, 0
2, 80742, Note_on_c, 0, 43, 15
2, 80746, Note_on_c, 0, 68, 0
2, 80749, Note_on_c, 0, 76, 68
2, 80758, Note_on_c, 0, 41, 0
2, 80826, Note_on_c, 0, 44, 66
2, 80826, Note_on_c, 0, 77, 74
2, 80832, Note_on_c, 0, 43, 0
2, 80850, Note_on_c, 0, 76, 0
2, 80910, Note_on_c, 0, 77, 0
2, 80924, Note_on_c, 0, 46, 68
2, 80933, Note_on_c, 0, 73, 67
2, 80948, Note_on_c, 0, 44, 0
2, 81027, Note_on_c, 0, 48, 66
2, 81028, Note_on_c, 0, 46, 0
2, 81030, Note_on_c, 0, 70, 69
2, 81034, Note_on_c, 0, 73, 0
2, 81087, Note_on_c, 0, 48, 0
2, 81128, Note_on_c, 0, 50, 63
2, 81205, Note_on_c, 0, 50, 0
2, 81212, Note_on_c, 0, 52, 75
2, 81212, Note_on_c, 0, 60, 67
2, 81256, Note_on_c, 0, 60, 0
2, 81278, Note_on_c, 0, 52, 0
2, 81306, Note_on_c, 0, 48, 64
2, 81400, Note_on_c, 0, 61, 69
2, 81408, Note_on_c, 0, 48, 0
2, 81416, Note_on_c, 0, 53, 63
2, 81422, Note_on_c, 0, 70, 0
2, 81473, Note_on_c, 0, 61, 0
2, 81477, Note_on_c, 0, 53, 0
2, 81487, Note_on_c, 0, 60, 67
2, 81492, Note_on_c, 0, 51, 67
2, 81568, Note_on_c, 0, 60, 0
2, 81577, Note_on_c, 0, 51, 0
2, 81586, Note_on_c, 0, 49, 66
2, 81589, Note_on_c, 0, 58, 65
2, 81646, Note_on_c, 0, 58, 0
2, 81669, Note_on_c, 0, 60, 66
2, 81677, Note_on_c, 0, 51, 65
2, 81693, Note_on_c, 0, 49, 0
2, 81733, Note_on_c, 0, 60, 0
2, 81747, Note_on_c, 0, 51, 0
2, 81773, Note_on_c, 0, 68, 84
2, 81778, Note_on_c, 0, 53, 65
2, 81842, Note_on_c, 0, 53, 0
2, 81862, Note_on_c, 0, 51, 73
2, 81964, Note_on_c, 0, 49, 64
2, 81972, Note_on_c, 0, 51, 0
2, 81978, Note_on_c, 0, 65, 69
2, 82037, Note_on_c, 0, 65, 0
2, 82042, Note_on_c, 0, 49, 0
2, 82056, Note_on_c, 0, 48, 67
2, 82174, Note_on_c, 0, 49, 68
2, 82178, Note_on_c, 0, 60, 73
2, 82180, Note_on_c, 0, 48, 0
2, 82293, Note_on_c, 0, 60, 0
2, 82381, Note_on_c, 0, 58, 64
2, 82396, Note_on_c, 0, 68, 0
2, 82441, Note_on_c, 0, 58, 0
2, 82464, Note_on_c, 0, 56, 74
2, 82515, Note_on_c, 0, 56, 0
2, 82565, Note_on_c, 0, 58, 76
2, 82565, Note_on_c, 0, 67, 76
2, 82624, Note_on_c, 0, 67, 0
2, 82631, Note_on_c, 0, 49, 0
2, 82659, Note_on_c, 0, 48, 54
2, 82727, Note_on_c, 0, 48, 0
2, 82750, Note_on_c, 0, 46, 60
2, 82758, Note_on_c, 0, 58, 0
2, 82768, Note_on_c, 0, 67, 76
2, 82831, Note_on_c, 0, 49, 61
2, 82845, Note_on_c, 0, 46, 0
2, 82911, Note_on_c, 0, 49, 0
2, 82924, Note_on_c, 0, 67, 0
2, 82941, Note_on_c, 0, 48, 66
2, 82956, Note_on_c, 0, 56, 72
2, 82987, Note_on_c, 0, 56, 0
2, 83003, Note_on_c, 0, 48, 0
2, 83031, Note_on_c, 0, 46, 63
2, 83126, Note_on_c, 0, 46, 0
2, 83134, Note_on_c, 0, 44, 61
2, 83157, Note_on_c, 0, 65, 67
2, 83196, Note_on_c, 0, 65, 0
2, 83213, Note_on_c, 0, 44, 0
2, 83233, Note_on_c, 0, 48, 67
2, 83292, Note_on_c, 0, 48, 0
2, 83340, Note_on_c, 0, 46, 69
2, 83349, Note_on_c, 0, 64, 68
2, 83353, Note_on_c, 0, 55, 62
2, 83386, Note_on_c, 0, 55, 0
2, 83413, Note_on_c, 0, 64, 0
2, 83426, Note_on_c, 0, 46, 0
2, 83437, Note_on_c, 0, 44, 63
2, 83537, Note_on_c, 0, 44, 0
2, 83545, Note_on_c, 0, 64, 61
2, 83547, Note_on_c, 0, 46, 66
2, 83547, Note_on_c, 0, 67, 65
2, 83581, Note_on_c, 0, 64, 0
2, 83599, Note_on_c, 0, 67, 0
2, 83608, Note_on_c, 0, 46, 0
2, 83626, Note_on_c, 0, 43, 62
2, 83750, Note_on_c, 0, 44, 54
2, 83758, Note_on_c, 0, 53, 59
2, 83763, Note_on_c, 0, 72, 68
2, 83767, Note_on_c, 0, 43, 0
2, 83840, Note_on_c, 0, 44, 0
2, 83848, Note_on_c, 0, 70, 66
2, 83852, Note_on_c, 0, 72, 0
2, 83950, Note_on_c, 0, 70, 0
2, 83958, Note_on_c, 0, 68, 72
2, 83960, Note_on_c, 0, 49, 58
2, 84016, Note_on_c, 0, 49, 0
2, 84031, Note_on_c, 0, 68, 0
2, 84038, Note_on_c, 0, 72, 67
2, 84130, Note_on_c, 0, 53, 0
2, 84147, Note_on_c, 0, 70, 72
2, 84153, Note_on_c, 0, 43, 60
2, 84165, Note_on_c, 0, 72, 0
2, 84225, Note_on_c, 0, 68, 73
2, 84230, Note_on_c, 0, 43, 0
2, 84241, Note_on_c, 0, 70, 0
2, 84309, Note_on_c, 0, 68, 0
2, 84335, Note_on_c, 0, 67, 67
2, 84336, Note_on_c, 0, 52, 60
2, 84345, Note_on_c, 0, 48, 56
2, 84375, Note_on_c, 0, 52, 0
2, 84386, Note_on_c, 0, 48, 0
2, 84411, Note_on_c, 0, 67, 0
2, 84419, Note_on_c, 0, 70, 69
2, 84523, Note_on_c, 0, 53, 74
2, 84529, Note_on_c, 0, 41, 69
2, 84530, Note_on_c, 0, 68, 74
2, 84547, Note_on_c, 0, 70, 0
2, 84568, Note_on_c, 0, 41, 0
2, 84585, Note_on_c, 0, 53, 0
2, 84610, Note_on_c, 0, 68, 0
2, 84617, Note_on_c, 0, 65, 70
2, 84677, Note_on_c, 0, 65, 0
2, 84723, Note_on_c, 0, 73, 71
2, 84730, Note_on_c, 0, 52, 72
2, 84743, Note_on_c, 0, 46, 64
2, 84811, Note_on_c, 0, 46, 0
2, 84811, Note_on_c, 0, 70, 71
2, 84815, Note_on_c, 0, 52, 0
2, 84834, Note_on_c, 0, 73, 0
2, 84917, Note_on_c, 0, 70, 0
2, 84919, Note_on_c, 0, 72, 72
2, 84920, Note_on_c, 0, 53, 69
2, 84922, Note_on_c, 0, 44, 69
2, 84963, Note_on_c, 0, 53, 0
2, 84966, Note_on_c, 0, 44, 0
2, 84980, Note_on_c, 0, 72, 0
2, 84994, Note_on_c, 0, 68, 80
2, 85060, Note_on_c, 0, 68, 0
2, 85103, Note_on_c, 0, 78, 76
2, 85110, Note_on_c, 0, 58, 70
2, 85113, Note_on_c, 0, 49, 56
2, 85165, Note_on_c, 0, 78, 0
2, 85169, Note_on_c, 0, 58, 0
2, 85197, Note_on_c, 0, 76, 75
2, 85216, Note_on_c, 0, 49, 0
2, 85247, Note_on_c, 0, 76, 0
2, 85299, Note_on_c, 0, 76, 68
2, 85304, Note_on_c, 0, 56, 70
2, 85319, Note_on_c, 0, 48, 55
2, 85380, Note_on_c, 0, 76, 0
2, 85383, Note_on_c, 0, 77, 78
2, 85414, Note_on_c, 0, 56, 0
2, 85489, Note_on_c, 0, 77, 0
2, 85491, Note_on_c, 0, 55, 64
2, 85493, Note_on_c, 0, 83, 66
2, 85564, Note_on_c, 0, 83, 0
2, 85567, Note_on_c, 0, 55, 0
2, 85568, Note_on_c, 0, 53, 66
2, 85574, Note_on_c, 0, 84, 67
2, 85620, Note_on_c, 0, 84, 0
2, 85665, Note_on_c, 0, 76, 66
2, 85678, Note_on_c, 0, 55, 64
2, 85688, Note_on_c, 0, 76, 0
2, 85695, Note_on_c, 0, 53, 0
2, 85699, Note_on_c, 0, 77, 68
2, 85739, Note_on_c, 0, 77, 0
2, 85758, Note_on_c, 0, 76, 74
2, 85790, Note_on_c, 0, 48, 0
2, 85806, Note_on_c, 0, 76, 0
2, 85810, Note_on_c, 0, 77, 63
2, 85847, Note_on_c, 0, 77, 0
2, 85870, Note_on_c, 0, 76, 69
2, 85876, Note_on_c, 0, 55, 0
2, 85898, Note_on_c, 0, 58, 58
2, 85930, Note_on_c, 0, 76, 0
2, 85934, Note_on_c, 0, 58, 0
2, 85972, Note_on_c, 0, 77, 81
2, 86001, Note_on_c, 0, 77, 0
2, 86079, Note_on_c, 0, 77, 79
2, 86100, Note_on_c, 0, 56, 51
2, 86104, Note_on_c, 0, 53, 29
2, 86195, Note_on_c, 0, 58, 56
2, 86204, Note_on_c, 0, 56, 0
2, 86219, Note_on_c, 0, 53, 0
2, 86264, Note_on_c, 0, 58, 0
2, 86292, Note_on_c, 0, 60, 58
2, 86330, Note_on_c, 0, 60, 0
2, 86370, Note_on_c, 0, 56, 65
2, 86440, Note_on_c, 0, 56, 0
2, 86471, Note_on_c, 0, 53, 66
2, 86523, Note_on_c, 0, 77, 0
2, 86553, Note_on_c, 0, 53, 0
2, 86556, Note_on_c, 0, 54, 69
2, 86626, Note_on_c, 0, 54, 0
2, 86661, Note_on_c, 0, 77, 75
2, 86667, Note_on_c, 0, 56, 59
2, 86715, Note_on_c, 0, 56, 0
2, 86717, Note_on_c, 0, 77, 0
2, 86743, Note_on_c, 0, 53, 61
2, 86817, Note_on_c, 0, 53, 0
2, 86841, Note_on_c, 0, 50, 61
2, 86851, Note_on_c, 0, 71, 74
2, 86931, Note_on_c, 0, 71, 0
2, 86938, Note_on_c, 0, 70, 72
2, 86939, Note_on_c, 0, 51, 62
2, 86941, Note_on_c, 0, 50, 0
2, 86987, Note_on_c, 0, 51, 0
2, 86998, Note_on_c, 0, 70, 0
2, 87033, Note_on_c, 0, 53, 63
2, 87038, Note_on_c, 0, 68, 75
2, 87071, Note_on_c, 0, 53, 0
2, 87112, Note_on_c, 0, 68, 0
2, 87114, Note_on_c, 0, 50, 64
2, 87114, Note_on_c, 0, 70, 75
2, 87147, Note_on_c, 0, 50, 0
2, 87152, Note_on_c, 0, 70, 0
2, 87226, Note_on_c, 0, 77, 82
2, 87229, Note_on_c, 0, 46, 65
2, 87292, Note_on_c, 0, 77, 0
2, 87321, Note_on_c, 0, 50, 62
2, 87362, Note_on_c, 0, 46, 0
2, 87423, Note_on_c, 0, 53, 58
2, 87426, Note_on_c, 0, 74, 76
2, 87432, Note_on_c, 0, 50, 0
2, 87473, Note_on_c, 0, 74, 0
2, 87490, Note_on_c, 0, 53, 0
2, 87512, Note_on_c, 0, 58, 66
2, 87566, Note_on_c, 0, 58, 0
2, 87626, Note_on_c, 0, 51, 61
2, 87636, Note_on_c, 0, 68, 78
2, 87704, Note_on_c, 0, 54, 60
2, 87715, Note_on_c, 0, 51, 0
2, 87809, Note_on_c, 0, 58, 61
2, 87820, Note_on_c, 0, 66, 65
2, 87825, Note_on_c, 0, 54, 0
2, 87829, Note_on_c, 0, 68, 0
2, 87873, Note_on_c, 0, 58, 0
2, 87889, Note_on_c, 0, 66, 0
2, 87897, Note_on_c, 0, 62, 65
2, 87903, Note_on_c, 0, 65, 73
2, 87947, Note_on_c, 0, 62, 0
2, 87958, Note_on_c, 0, 65, 0
2, 88005, Note_on_c, 0, 66, 80
2, 88011, Note_on_c, 0, 63, 63
2, 88050, Note_on_c, 0, 66, 0
2, 88084, Note_on_c, 0, 63, 0
2, 88099, Note_on_c, 0, 65, 43
2, 88125, Note_on_c, 0, 64, 35
2, 88155, Note_on_c, 0, 65, 0
2, 88157, Note_on_c, 0, 64, 0
2, 88189, Note_on_c, 0, 66, 70
2, 88198, Note_on_c, 0, 75, 67
2, 88239, Note_on_c, 0, 75, 0
2, 88252, Note_on_c, 0, 66, 0
2, 88280, Note_on_c, 0, 63, 66
2, 88351, Note_on_c, 0, 63, 0
2, 88381, Note_on_c, 0, 60, 61
2, 88384, Note_on_c, 0, 69, 70
2, 88463, Note_on_c, 0, 69, 0
2, 88465, Note_on_c, 0, 60, 0
2, 88468, Note_on_c, 0, 68, 72
2, 88473, Note_on_c, 0, 61, 66
2, 88516, Note_on_c, 0, 61, 0
2, 88534, Note_on_c, 0, 68, 0
2, 88564, Note_on_c, 0, 66, 75
2, 88565, Note_on_c, 0, 63, 61
2, 88611, Note_on_c, 0, 63, 0
2, 88638, Note_on_c, 0, 60, 68
2, 88649, Note_on_c, 0, 68, 76
2, 88650, Note_on_c, 0, 66, 0
2, 88664, Note_on_c, 0, 60, 0
2, 88720, Note_on_c, 0, 68, 0
2, 88763, Note_on_c, 0, 75, 74
2, 88770, Note_on_c, 0, 56, 68
2, 88834, Note_on_c, 0, 44, 63
2, 88852, Note_on_c, 0, 75, 0
2, 88945, Note_on_c, 0, 46, 64
2, 88947, Note_on_c, 0, 44, 0
2, 88951, Note_on_c, 0, 72, 75
2, 89013, Note_on_c, 0, 72, 0
2, 89028, Note_on_c, 0, 48, 64
2, 89056, Note_on_c, 0, 46, 0
2, 89064, Note_on_c, 0, 48, 0
2, 89066, Note_on_c, 0, 56, 0
2, 89066, Note_on_c, 0, 56, 28
2, 89121, Note_on_c, 0, 56, 0
2, 89158, Note_on_c, 0, 49, 72
2, 89161, Note_on_c, 0, 66, 73
2, 89244, Note_on_c, 0, 56, 61
2, 89252, Note_on_c, 0, 49, 0
2, 89309, Note_on_c, 0, 66, 0
2, 89330, Note_on_c, 0, 65, 72
2, 89349, Note_on_c, 0, 58, 67
2, 89350, Note_on_c, 0, 56, 0
2, 89410, Note_on_c, 0, 58, 0
2, 89419, Note_on_c, 0, 65, 0
2, 89426, Note_on_c, 0, 63, 75
2, 89444, Note_on_c, 0, 60, 70
2, 89482, Note_on_c, 0, 60, 0
2, 89496, Note_on_c, 0, 63, 0
2, 89527, Note_on_c, 0, 65, 74
2, 89531, Note_on_c, 0, 61, 63
2, 89552, Note_on_c, 0, 61, 0
2, 89585, Note_on_c, 0, 65, 0
2, 89619, Note_on_c, 0, 68, 75
2, 89635, Note_on_c, 0, 51, 64
2, 89708, Note_on_c, 0, 53, 65
2, 89719, Note_on_c, 0, 51, 0
2, 89719, Note_on_c, 0, 73, 69
2, 89720, Note_on_c, 0, 68, 0
2, 89795, Note_on_c, 0, 53, 0
2, 89797, Note_on_c, 0, 55, 70
2, 89804, Note_on_c, 0, 75, 72
2, 89805, Note_on_c, 0, 73, 0
2, 89872, Note_on_c, 0, 75, 0
2, 89885, Note_on_c, 0, 55, 0
2, 89897, Note_on_c, 0, 56, 70
2, 89900, Note_on_c, 0, 77, 79
2, 89974, Note_on_c, 0, 56, 0
2, 89991, Note_on_c, 0, 75, 74
2, 89991, Note_on_c, 0, 77, 0
2, 89994, Note_on_c, 0, 55, 65
2, 90069, Note_on_c, 0, 75, 0
2, 90084, Note_on_c, 0, 55, 0
2, 90091, Note_on_c, 0, 73, 64
2, 90093, Note_on_c, 0, 53, 68
2, 90169, Note_on_c, 0, 73, 0
2, 90169, Note_on_c, 0, 75, 69
2, 90173, Note_on_c, 0, 55, 67
2, 90175, Note_on_c, 0, 53, 0
2, 90195, Note_on_c, 0, 75, 0
2, 90249, Note_on_c, 0, 55, 0
2, 90274, Note_on_c, 0, 56, 70
2, 90277, Note_on_c, 0, 84, 79
2, 90281, Note_on_c, 0, 72, 77
2, 90319, Note_on_c, 0, 84, 0
2, 90340, Note_on_c, 0, 56, 0
2, 90360, Note_on_c, 0, 55, 65
2, 90378, Note_on_c, 0, 72, 0
2, 90378, Note_on_c, 0, 72, 25
2, 90460, Note_on_c, 0, 55, 0
2, 90469, Note_on_c, 0, 53, 60
2, 90481, Note_on_c, 0, 80, 78
2, 90509, Note_on_c, 0, 80, 0
2, 90551, Note_on_c, 0, 53, 0
2, 90552, Note_on_c, 0, 51, 63
2, 90643, Note_on_c, 0, 51, 0
2, 90677, Note_on_c, 0, 53, 74
2, 90677, Note_on_c, 0, 75, 76
2, 90707, Note_on_c, 0, 72, 0
2, 90882, Note_on_c, 0, 75, 0
2, 90883, Note_on_c, 0, 73, 70
2, 90963, Note_on_c, 0, 73, 0
2, 90968, Note_on_c, 0, 72, 76
2, 91044, Note_on_c, 0, 72, 0
2, 91075, Note_on_c, 0, 70, 70
2, 91077, Note_on_c, 0, 73, 72
2, 91110, Note_on_c, 0, 73, 0
2, 91123, Note_on_c, 0, 53, 0
2, 91152, Note_on_c, 0, 51, 62
2, 91244, Note_on_c, 0, 51, 0
2, 91248, Note_on_c, 0, 49, 67
2, 91263, Note_on_c, 0, 82, 70
2, 91291, Note_on_c, 0, 82, 0
2, 91311, Note_on_c, 0, 49, 0
2, 91314, Note_on_c, 0, 70, 0
2, 91338, Note_on_c, 0, 53, 65
2, 91401, Note_on_c, 0, 53, 0
2, 91438, Note_on_c, 0, 51, 65
2, 91445, Note_on_c, 0, 72, 81
2, 91484, Note_on_c, 0, 72, 0
2, 91525, Note_on_c, 0, 49, 56
2, 91546, Note_on_c, 0, 51, 0
2, 91630, Note_on_c, 0, 49, 0
2, 91633, Note_on_c, 0, 48, 60
2, 91641, Note_on_c, 0, 80, 79
2, 91643, Note_on_c, 0, 68, 76
2, 91666, Note_on_c, 0, 68, 0
2, 91675, Note_on_c, 0, 80, 0
2, 91715, Note_on_c, 0, 48, 0
2, 91724, Note_on_c, 0, 51, 55
2, 91806, Note_on_c, 0, 51, 0
2, 91816, Note_on_c, 0, 49, 61
2, 91830, Note_on_c, 0, 70, 76
2, 91831, Note_on_c, 0, 67, 67
2, 91856, Note_on_c, 0, 70, 0
2, 91858, Note_on_c, 0, 67, 0
2, 91893, Note_on_c, 0, 49, 0
2, 91898, Note_on_c, 0, 48, 56
2, 91981, Note_on_c, 0, 48, 0
2, 91997, Note_on_c, 0, 46, 66
2, 92011, Note_on_c, 0, 70, 77
2, 92015, Note_on_c, 0, 79, 63
2, 92034, Note_on_c, 0, 79, 0
2, 92039, Note_on_c, 0, 70, 0
2, 92099, Note_on_c, 0, 49, 70
2, 92100, Note_on_c, 0, 46, 0
2, 92198, Note_on_c, 0, 49, 0
2, 92201, Note_on_c, 0, 48, 76
2, 92203, Note_on_c, 0, 68, 67
2, 92218, Note_on_c, 0, 63, 49
2, 92231, Note_on_c, 0, 48, 0
2, 92270, Note_on_c, 0, 63, 0
2, 92280, Note_on_c, 0, 63, 58
2, 92294, Note_on_c, 0, 68, 0
2, 92348, Note_on_c, 0, 63, 0
2, 92399, Note_on_c, 0, 65, 70
2, 92402, Note_on_c, 0, 51, 79
2, 92443, Note_on_c, 0, 51, 0
2, 92466, Note_on_c, 0, 65, 0
2, 92490, Note_on_c, 0, 67, 71
2, 92564, Note_on_c, 0, 67, 0
2, 92601, Note_on_c, 0, 68, 73
2, 92603, Note_on_c, 0, 54, 77
2, 92675, Note_on_c, 0, 68, 0
2, 92682, Note_on_c, 0, 70, 65
2, 92769, Note_on_c, 0, 70, 0
2, 92776, Note_on_c, 0, 56, 69
2, 92781, Note_on_c, 0, 72, 66
2, 92821, Note_on_c, 0, 56, 0
2, 92831, Note_on_c, 0, 72, 0
2, 92861, Note_on_c, 0, 68, 68
2, 92924, Note_on_c, 0, 68, 0
2, 92959, Note_on_c, 0, 58, 76
2, 92963, Note_on_c, 0, 73, 70
2, 92965, Note_on_c, 0, 54, 0
2, 93044, Note_on_c, 0, 72, 68
2, 93052, Note_on_c, 0, 73, 0
2, 93053, Note_on_c, 0, 56, 71
2, 93075, Note_on_c, 0, 58, 0
2, 93121, Note_on_c, 0, 56, 0
2, 93130, Note_on_c, 0, 72, 0
2, 93143, Note_on_c, 0, 54, 64
2, 93148, Note_on_c, 0, 70, 73
2, 93224, Note_on_c, 0, 56, 68
2, 93235, Note_on_c, 0, 70, 0
2, 93237, Note_on_c, 0, 72, 70
2, 93246, Note_on_c, 0, 54, 0
2, 93261, Note_on_c, 0, 56, 0
2, 93297, Note_on_c, 0, 72, 0
2, 93340, Note_on_c, 0, 73, 69
2, 93343, Note_on_c, 0, 65, 82
2, 93356, Note_on_c, 0, 53, 61
2, 93388, Note_on_c, 0, 65, 0
2, 93432, Note_on_c, 0, 72, 69
2, 93435, Note_on_c, 0, 73, 0
2, 93533, Note_on_c, 0, 72, 0
2, 93536, Note_on_c, 0, 70, 64
2, 93541, Note_on_c, 0, 61, 54
2, 93567, Note_on_c, 0, 61, 0
2, 93592, Note_on_c, 0, 70, 0
2, 93619, Note_on_c, 0, 68, 73
2, 93694, Note_on_c, 0, 68, 0
2, 93728, Note_on_c, 0, 53, 0
2, 93728, Note_on_c, 0, 70, 67
2, 93731, Note_on_c, 0, 56, 74
2, 93951, Note_on_c, 0, 56, 0
2, 93964, Note_on_c, 0, 54, 62
2, 94025, Note_on_c, 0, 54, 0
2, 94031, Note_on_c, 0, 53, 59
2, 94147, Note_on_c, 0, 54, 67
2, 94155, Note_on_c, 0, 53, 0
2, 94159, Note_on_c, 0, 51, 55
2, 94196, Note_on_c, 0, 54, 0
2, 94230, Note_on_c, 0, 68, 68
2, 94230, Note_on_c, 0, 70, 0
2, 94325, Note_on_c, 0, 68, 0
2, 94329, Note_on_c, 0, 66, 73
2, 94336, Note_on_c, 0, 63, 63
2, 94365, Note_on_c, 0, 63, 0
2, 94396, Note_on_c, 0, 66, 0
2, 94412, Note_on_c, 0, 70, 64
2, 94467, Note_on_c, 0, 70, 0
2, 94505, Note_on_c, 0, 51, 0
2, 94516, Note_on_c, 0, 68, 70
2, 94520, Note_on_c, 0, 53, 67
2, 94600, Note_on_c, 0, 66, 68
2, 94606, Note_on_c, 0, 68, 0
2, 94679, Note_on_c, 0, 66, 0
2, 94716, Note_on_c, 0, 61, 54
2, 94716, Note_on_c, 0, 65, 64
2, 94721, Note_on_c, 0, 49, 66
2, 94737, Note_on_c, 0, 61, 0
2, 94760, Note_on_c, 0, 65, 0
2, 94774, Note_on_c, 0, 53, 0
2, 94800, Note_on_c, 0, 68, 69
2, 94879, Note_on_c, 0, 49, 0
2, 94884, Note_on_c, 0, 68, 0
2, 94901, Note_on_c, 0, 66, 63
2, 94916, Note_on_c, 0, 51, 67
2, 94991, Note_on_c, 0, 65, 67
2, 94994, Note_on_c, 0, 66, 0
2, 95041, Note_on_c, 0, 51, 0
2, 95082, Note_on_c, 0, 65, 0
2, 95086, Note_on_c, 0, 44, 65
2, 95086, Note_on_c, 0, 60, 59
2, 95092, Note_on_c, 0, 63, 62
2, 95130, Note_on_c, 0, 44, 0
2, 95140, Note_on_c, 0, 60, 0
2, 95167, Note_on_c, 0, 66, 64
2, 95176, Note_on_c, 0, 63, 0
2, 95237, Note_on_c, 0, 66, 0
2, 95278, Note_on_c, 0, 49, 57
2, 95281, Note_on_c, 0, 61, 70
2, 95299, Note_on_c, 0, 65, 48
2, 95307, Note_on_c, 0, 64, 47
2, 95333, Note_on_c, 0, 64, 0
2, 95340, Note_on_c, 0, 65, 0
2, 95371, Note_on_c, 0, 51, 64
2, 95376, Note_on_c, 0, 49, 0
2, 95434, Note_on_c, 0, 51, 0
2, 95476, Note_on_c, 0, 53, 62
2, 95477, Note_on_c, 0, 68, 76
2, 95483, Note_on_c, 0, 61, 0
2, 95516, Note_on_c, 0, 53, 0
2, 95531, Note_on_c, 0, 68, 0
2, 95568, Note_on_c, 0, 54, 65
2, 95646, Note_on_c, 0, 54, 0
2, 95682, Note_on_c, 0, 73, 79
2, 95683, Note_on_c, 0, 53, 57
2, 95757, Note_on_c, 0, 53, 0
2, 95773, Note_on_c, 0, 51, 62
2, 95867, Note_on_c, 0, 51, 0
2, 95869, Note_on_c, 0, 73, 0
2, 95872, Note_on_c, 0, 49, 69
2, 95878, Note_on_c, 0, 80, 72
2, 95921, Note_on_c, 0, 49, 0
2, 95953, Note_on_c, 0, 53, 66
2, 95957, Note_on_c, 0, 77, 74
2, 95970, Note_on_c, 0, 80, 0
2, 95998, Note_on_c, 0, 53, 0
2, 96056, Note_on_c, 0, 77, 0
2, 96060, Note_on_c, 0, 73, 79
2, 96067, Note_on_c, 0, 58, 69
2, 96156, Note_on_c, 0, 56, 61
2, 96184, Note_on_c, 0, 58, 0
2, 96245, Note_on_c, 0, 56, 0
2, 96249, Note_on_c, 0, 73, 0
2, 96252, Note_on_c, 0, 55, 63
2, 96269, Note_on_c, 0, 76, 69
2, 96341, Note_on_c, 0, 55, 0
2, 96346, Note_on_c, 0, 58, 61
2, 96346, Note_on_c, 0, 73, 79
2, 96355, Note_on_c, 0, 76, 0
2, 96414, Note_on_c, 0, 73, 0
2, 96418, Note_on_c, 0, 58, 0
2, 96440, Note_on_c, 0, 70, 83
2, 96443, Note_on_c, 0, 61, 63
2, 96512, Note_on_c, 0, 61, 0
2, 96531, Note_on_c, 0, 59, 57
2, 96601, Note_on_c, 0, 70, 0
2, 96608, Note_on_c, 0, 59, 0
2, 96624, Note_on_c, 0, 58, 63
2, 96624, Note_on_c, 0, 73, 66
2, 96709, Note_on_c, 0, 70, 73
2, 96719, Note_on_c, 0, 73, 0
2, 96722, Note_on_c, 0, 61, 69
2, 96727, Note_on_c, 0, 58, 0
2, 96783, Note_on_c, 0, 70, 0
2, 96810, Note_on_c, 0, 61, 0
2, 96816, Note_on_c, 0, 67, 78
2, 96836, Note_on_c, 0, 64, 71
2, 96991, Note_on_c, 0, 64, 0
2, 97024, Note_on_c, 0, 63, 64
2, 97036, Note_on_c, 0, 70, 66
2, 97107, Note_on_c, 0, 63, 0
2, 97110, Note_on_c, 0, 70, 0
2, 97111, Note_on_c, 0, 73, 70
2, 97113, Note_on_c, 0, 61, 63
2, 97158, Note_on_c, 0, 61, 0
2, 97192, Note_on_c, 0, 73, 0
2, 97215, Note_on_c, 0, 59, 62
2, 97215, Note_on_c, 0, 76, 77
2, 97230, Note_on_c, 0, 67, 0
2, 97230, Note_on_c, 0, 67, 22
2, 97275, Note_on_c, 0, 59, 0
2, 97296, Note_on_c, 0, 58, 63
2, 97400, Note_on_c, 0, 56, 57
2, 97408, Note_on_c, 0, 58, 0
2, 97416, Note_on_c, 0, 73, 69
2, 97426, Note_on_c, 0, 67, 0
2, 97436, Note_on_c, 0, 76, 0
2, 97460, Note_on_c, 0, 73, 0
2, 97470, Note_on_c, 0, 56, 0
2, 97483, Note_on_c, 0, 55, 56
2, 97594, Note_on_c, 0, 75, 78
2, 97598, Note_on_c, 0, 56, 62
2, 97600, Note_on_c, 0, 71, 72
2, 97609, Note_on_c, 0, 55, 0
2, 97673, Note_on_c, 0, 56, 0
2, 97681, Note_on_c, 0, 75, 0
2, 97695, Note_on_c, 0, 59, 62
2, 97786, Note_on_c, 0, 59, 0
2, 97796, Note_on_c, 0, 80, 77
2, 97815, Note_on_c, 0, 71, 0
2, 97825, Note_on_c, 0, 57, 49
2, 97868, Note_on_c, 0, 57, 0
2, 97878, Note_on_c, 0, 80, 0
2, 97896, Note_on_c, 0, 56, 51
2, 97925, Note_on_c, 0, 56, 0
2, 97980, Note_on_c, 0, 73, 72
2, 97982, Note_on_c, 0, 55, 64
2, 97987, Note_on_c, 0, 70, 69
2, 98067, Note_on_c, 0, 55, 0
2, 98076, Note_on_c, 0, 52, 69
2, 98086, Note_on_c, 0, 70, 0
2, 98111, Note_on_c, 0, 73, 0
2, 98163, Note_on_c, 0, 52, 0
2, 98168, Note_on_c, 0, 51, 61
2, 98193, Note_on_c, 0, 79, 74
2, 98236, Note_on_c, 0, 79, 0
2, 98261, Note_on_c, 0, 51, 0
2, 98268, Note_on_c, 0, 49, 60
2, 98352, Note_on_c, 0, 49, 0
2, 98366, Note_on_c, 0, 47, 64
2, 98370, Note_on_c, 0, 68, 77
2, 98409, Note_on_c, 0, 68, 0
2, 98437, Note_on_c, 0, 47, 0
2, 98450, Note_on_c, 0, 49, 60
2, 98499, Note_on_c, 0, 49, 0
2, 98557, Note_on_c, 0, 51, 65
2, 98572, Note_on_c, 0, 80, 60
2, 98598, Note_on_c, 0, 80, 0
2, 98625, Note_on_c, 0, 51, 0
2, 98651, Note_on_c, 0, 79, 65
2, 98653, Note_on_c, 0, 47, 59
2, 98701, Note_on_c, 0, 79, 0
2, 98726, Note_on_c, 0, 47, 0
2, 98742, Note_on_c, 0, 44, 69
2, 98746, Note_on_c, 0, 80, 74
2, 98775, Note_on_c, 0, 44, 0
2, 98818, Note_on_c, 0, 80, 0
2, 98826, Note_on_c, 0, 82, 72
2, 98887, Note_on_c, 0, 82, 0
2, 98921, Note_on_c, 0, 83, 64
2, 98924, Note_on_c, 0, 56, 62
2, 98969, Note_on_c, 0, 56, 0
2, 99005, Note_on_c, 0, 53, 62
2, 99006, Note_on_c, 0, 80, 73
2, 99064, Note_on_c, 0, 80, 0
2, 99067, Note_on_c, 0, 83, 0
2, 99077, Note_on_c, 0, 53, 0
2, 99116, Note_on_c, 0, 49, 63
2, 99117, Note_on_c, 0, 77, 68
2, 99142, Note_on_c, 0, 49, 0
2, 99187, Note_on_c, 0, 77, 0
2, 99193, Note_on_c, 0, 78, 70
2, 99254, Note_on_c, 0, 78, 0
2, 99295, Note_on_c, 0, 80, 66
2, 99296, Note_on_c, 0, 59, 65
2, 99341, Note_on_c, 0, 80, 0
2, 99352, Note_on_c, 0, 59, 0
2, 99371, Note_on_c, 0, 77, 70
2, 99382, Note_on_c, 0, 56, 63
2, 99422, Note_on_c, 0, 77, 0
2, 99475, Note_on_c, 0, 53, 76
2, 99475, Note_on_c, 0, 73, 74
2, 99477, Note_on_c, 0, 56, 0
2, 99503, Note_on_c, 0, 53, 0
2, 99557, Note_on_c, 0, 73, 0
2, 99557, Note_on_c, 0, 75, 68
2, 99626, Note_on_c, 0, 75, 0
2, 99645, Note_on_c, 0, 49, 74
2, 99654, Note_on_c, 0, 77, 62
2, 99711, Note_on_c, 0, 49, 0
2, 99730, Note_on_c, 0, 73, 68
2, 99736, Note_on_c, 0, 46, 67
2, 99741, Note_on_c, 0, 77, 0
2, 99788, Note_on_c, 0, 73, 0
2, 99795, Note_on_c, 0, 46, 0
2, 99832, Note_on_c, 0, 42, 74
2, 99832, Note_on_c, 0, 70, 81
2, 99856, Note_on_c, 0, 42, 0
2, 99910, Note_on_c, 0, 70, 0
2, 99918, Note_on_c, 0, 72, 71
2, 99995, Note_on_c, 0, 72, 0
2, 100011, Note_on_c, 0, 58, 66
2, 100014, Note_on_c, 0, 73, 65
2, 100059, Note_on_c, 0, 58, 0
2, 100062, Note_on_c, 0, 73, 0
2, 100103, Note_on_c, 0, 70, 67
2, 100114, Note_on_c, 0, 54, 61
2, 100146, Note_on_c, 0, 70, 0
2, 100182, Note_on_c, 0, 54, 0
2, 100205, Note_on_c, 0, 51, 69
2, 100209, Note_on_c, 0, 78, 72
2, 100235, Note_on_c, 0, 51, 0
2, 100277, Note_on_c, 0, 78, 0
2, 100284, Note_on_c, 0, 80, 70
2, 100345, Note_on_c, 0, 80, 0
2, 100379, Note_on_c, 0, 54, 65
2, 100384, Note_on_c, 0, 82, 64
2, 100421, Note_on_c, 0, 54, 0
2, 100463, Note_on_c, 0, 51, 62
2, 100463, Note_on_c, 0, 82, 0
2, 100464, Note_on_c, 0, 78, 69
2, 100500, Note_on_c, 0, 51, 0
2, 100521, Note_on_c, 0, 78, 0
2, 100565, Note_on_c, 0, 48, 68
2, 100566, Note_on_c, 0, 75, 74
2, 100595, Note_on_c, 0, 48, 0
2, 100634, Note_on_c, 0, 75, 0
2, 100641, Note_on_c, 0, 77, 70
2, 100721, Note_on_c, 0, 77, 0
2, 100741, Note_on_c, 0, 78, 66
2, 100742, Note_on_c, 0, 58, 66
2, 100780, Note_on_c, 0, 78, 0
2, 100795, Note_on_c, 0, 58, 0
2, 100823, Note_on_c, 0, 75, 64
2, 100839, Note_on_c, 0, 54, 65
2, 100853, Note_on_c, 0, 75, 0
2, 100926, Note_on_c, 0, 54, 0
2, 100926, Note_on_c, 0, 72, 75
2, 100927, Note_on_c, 0, 51, 67
2, 100956, Note_on_c, 0, 51, 0
2, 100984, Note_on_c, 0, 72, 0
2, 101009, Note_on_c, 0, 73, 73
2, 101076, Note_on_c, 0, 73, 0
2, 101101, Note_on_c, 0, 48, 68
2, 101115, Note_on_c, 0, 75, 54
2, 101146, Note_on_c, 0, 48, 0
2, 101173, Note_on_c, 0, 72, 67
2, 101178, Note_on_c, 0, 44, 69
2, 101195, Note_on_c, 0, 75, 0
2, 101218, Note_on_c, 0, 72, 0
2, 101253, Note_on_c, 0, 44, 0
2, 101279, Note_on_c, 0, 41, 79
2, 101284, Note_on_c, 0, 68, 80
2, 101314, Note_on_c, 0, 41, 0
2, 101352, Note_on_c, 0, 68, 0
2, 101360, Note_on_c, 0, 70, 64
2, 101435, Note_on_c, 0, 70, 0
2, 101460, Note_on_c, 0, 72, 57
2, 101462, Note_on_c, 0, 56, 68
2, 101495, Note_on_c, 0, 72, 0
2, 101518, Note_on_c, 0, 68, 64
2, 101525, Note_on_c, 0, 56, 0
2, 101545, Note_on_c, 0, 53, 64
2, 101547, Note_on_c, 0, 68, 0
2, 101646, Note_on_c, 0, 77, 78
2, 101651, Note_on_c, 0, 53, 0
2, 101665, Note_on_c, 0, 50, 61
2, 101693, Note_on_c, 0, 50, 0
2, 101717, Note_on_c, 0, 77, 0
2, 101733, Note_on_c, 0, 78, 71
2, 101796, Note_on_c, 0, 78, 0
2, 101834, Note_on_c, 0, 80, 68
2, 101840, Note_on_c, 0, 53, 55
2, 101881, Note_on_c, 0, 53, 0
2, 101914, Note_on_c, 0, 77, 69
2, 101917, Note_on_c, 0, 50, 63
2, 101934, Note_on_c, 0, 80, 0
2, 101959, Note_on_c, 0, 50, 0
2, 101966, Note_on_c, 0, 77, 0
2, 102011, Note_on_c, 0, 46, 72
2, 102021, Note_on_c, 0, 74, 64
2, 102040, Note_on_c, 0, 46, 0
2, 102065, Note_on_c, 0, 74, 0
2, 102099, Note_on_c, 0, 75, 70
2, 102148, Note_on_c, 0, 75, 0
2, 102179, Note_on_c, 0, 56, 67
2, 102190, Note_on_c, 0, 77, 71
2, 102219, Note_on_c, 0, 56, 0
2, 102239, Note_on_c, 0, 77, 0
2, 102272, Note_on_c, 0, 53, 60
2, 102272, Note_on_c, 0, 74, 62
2, 102303, Note_on_c, 0, 74, 0
2, 102368, Note_on_c, 0, 53, 0
2, 102375, Note_on_c, 0, 50, 66
2, 102380, Note_on_c, 0, 70, 71
2, 102404, Note_on_c, 0, 50, 0
2, 102437, Note_on_c, 0, 70, 0
2, 102455, Note_on_c, 0, 72, 61
2, 102529, Note_on_c, 0, 72, 0
2, 102537, Note_on_c, 0, 46, 75
2, 102551, Note_on_c, 0, 74, 52
2, 102586, Note_on_c, 0, 46, 0
2, 102605, Note_on_c, 0, 74, 0
2, 102625, Note_on_c, 0, 42, 68
2, 102627, Note_on_c, 0, 70, 73
2, 102672, Note_on_c, 0, 70, 0
2, 102718, Note_on_c, 0, 42, 0
2, 102721, Note_on_c, 0, 39, 71
2, 102725, Note_on_c, 0, 66, 74
2, 102747, Note_on_c, 0, 39, 0
2, 102791, Note_on_c, 0, 66, 0
2, 102803, Note_on_c, 0, 68, 70
2, 102868, Note_on_c, 0, 68, 0
2, 102888, Note_on_c, 0, 70, 59
2, 102896, Note_on_c, 0, 54, 65
2, 102923, Note_on_c, 0, 70, 0
2, 102953, Note_on_c, 0, 54, 0
2, 102961, Note_on_c, 0, 66, 69
2, 102970, Note_on_c, 0, 51, 64
2, 102996, Note_on_c, 0, 66, 0
2, 103033, Note_on_c, 0, 51, 0
2, 103068, Note_on_c, 0, 48, 67
2, 103074, Note_on_c, 0, 75, 66
2, 103097, Note_on_c, 0, 48, 0
2, 103151, Note_on_c, 0, 75, 0
2, 103161, Note_on_c, 0, 77, 62
2, 103223, Note_on_c, 0, 77, 0
2, 103240, Note_on_c, 0, 51, 66
2, 103247, Note_on_c, 0, 78, 65
2, 103288, Note_on_c, 0, 51, 0
2, 103324, Note_on_c, 0, 48, 63
2, 103332, Note_on_c, 0, 75, 66
2, 103363, Note_on_c, 0, 78, 0
2, 103371, Note_on_c, 0, 75, 0
2, 103381, Note_on_c, 0, 48, 0
2, 103427, Note_on_c, 0, 44, 69
2, 103439, Note_on_c, 0, 72, 66
2, 103453, Note_on_c, 0, 44, 0
2, 103495, Note_on_c, 0, 72, 0
2, 103516, Note_on_c, 0, 73, 63
2, 103574, Note_on_c, 0, 73, 0
2, 103604, Note_on_c, 0, 54, 62
2, 103604, Note_on_c, 0, 75, 61
2, 103641, Note_on_c, 0, 75, 0
2, 103651, Note_on_c, 0, 54, 0
2, 103676, Note_on_c, 0, 72, 69
2, 103699, Note_on_c, 0, 51, 61
2, 103725, Note_on_c, 0, 72, 0
2, 103781, Note_on_c, 0, 68, 75
2, 103784, Note_on_c, 0, 51, 0
2, 103787, Note_on_c, 0, 48, 73
2, 103815, Note_on_c, 0, 48, 0
2, 103856, Note_on_c, 0, 68, 0
2, 103856, Note_on_c, 0, 70, 72
2, 103939, Note_on_c, 0, 70, 0
2, 103969, Note_on_c, 0, 72, 59
2, 103970, Note_on_c, 0, 44, 65
2, 104026, Note_on_c, 0, 44, 0
2, 104036, Note_on_c, 0, 72, 0
2, 104050, Note_on_c, 0, 41, 62
2, 104057, Note_on_c, 0, 68, 75
2, 104119, Note_on_c, 0, 68, 0
2, 104133, Note_on_c, 0, 41, 0
2, 104159, Note_on_c, 0, 37, 73
2, 104167, Note_on_c, 0, 65, 69
2, 104247, Note_on_c, 0, 65, 0
2, 104253, Note_on_c, 0, 66, 68
2, 104292, Note_on_c, 0, 37, 0
2, 104321, Note_on_c, 0, 66, 0
2, 104347, Note_on_c, 0, 68, 60
2, 104397, Note_on_c, 0, 68, 0
2, 104436, Note_on_c, 0, 65, 65
2, 104480, Note_on_c, 0, 65, 0
2, 104534, Note_on_c, 0, 61, 61
2, 104572, Note_on_c, 0, 61, 0
2, 104610, Note_on_c, 0, 65, 60
2, 104661, Note_on_c, 0, 65, 0
2, 104719, Note_on_c, 0, 68, 68
2, 104792, Note_on_c, 0, 68, 0
2, 104807, Note_on_c, 0, 70, 72
2, 104871, Note_on_c, 0, 70, 0
2, 104913, Note_on_c, 0, 71, 54
2, 104983, Note_on_c, 0, 70, 73
2, 104999, Note_on_c, 0, 71, 0
2, 105044, Note_on_c, 0, 59, 47
2, 105054, Note_on_c, 0, 70, 0
2, 105077, Note_on_c, 0, 68, 74
2, 105084, Note_on_c, 0, 59, 0
2, 105127, Note_on_c, 0, 49, 62
2, 105159, Note_on_c, 0, 70, 80
2, 105164, Note_on_c, 0, 68, 0
2, 105190, Note_on_c, 0, 70, 0
2, 105224, Note_on_c, 0, 49, 0
2, 105253, Note_on_c, 0, 78, 84
2, 105255, Note_on_c, 0, 58, 68
2, 105294, Note_on_c, 0, 78, 0
2, 105299, Note_on_c, 0, 58, 0
2, 105339, Note_on_c, 0, 49, 65
2, 105442, Note_on_c, 0, 49, 0
2, 105454, Note_on_c, 0, 56, 73
2, 105456, Note_on_c, 0, 73, 76
2, 105503, Note_on_c, 0, 73, 0
2, 105510, Note_on_c, 0, 56, 0
2, 105543, Note_on_c, 0, 49, 67
2, 105643, Note_on_c, 0, 49, 0
2, 105653, Note_on_c, 0, 54, 73
2, 105653, Note_on_c, 0, 70, 79
2, 105702, Note_on_c, 0, 54, 0
2, 105741, Note_on_c, 0, 49, 67
2, 105845, Note_on_c, 0, 68, 64
2, 105845, Note_on_c, 0, 70, 0
2, 105858, Note_on_c, 0, 49, 0
2, 105865, Note_on_c, 0, 53, 60
2, 105916, Note_on_c, 0, 53, 0
2, 105918, Note_on_c, 0, 68, 0
2, 105924, Note_on_c, 0, 51, 70
2, 105927, Note_on_c, 0, 66, 71
2, 106014, Note_on_c, 0, 66, 0
2, 106017, Note_on_c, 0, 51, 0
2, 106030, Note_on_c, 0, 68, 74
2, 106032, Note_on_c, 0, 53, 73
2, 106073, Note_on_c, 0, 53, 0
2, 106076, Note_on_c, 0, 68, 0
2, 106104, Note_on_c, 0, 61, 71
2, 106161, Note_on_c, 0, 61, 0
2, 106219, Note_on_c, 0, 65, 71
2, 106224, Note_on_c, 0, 44, 70
2, 106261, Note_on_c, 0, 44, 0
2, 106299, Note_on_c, 0, 65, 0
2, 106299, Note_on_c, 0, 68, 73
2, 106360, Note_on_c, 0, 68, 0
2, 106399, Note_on_c, 0, 70, 67
2, 106476, Note_on_c, 0, 68, 73
2, 106500, Note_on_c, 0, 70, 0
2, 106548, Note_on_c, 0, 68, 0
2, 106574, Note_on_c, 0, 58, 68
2, 106579, Note_on_c, 0, 66, 73
2, 106613, Note_on_c, 0, 58, 0
2, 106650, Note_on_c, 0, 49, 71
2, 106654, Note_on_c, 0, 68, 78
2, 106662, Note_on_c, 0, 66, 0
2, 106692, Note_on_c, 0, 68, 0
2, 106738, Note_on_c, 0, 49, 0
2, 106761, Note_on_c, 0, 56, 74
2, 106764, Note_on_c, 0, 77, 84
2, 106806, Note_on_c, 0, 77, 0
2, 106807, Note_on_c, 0, 56, 0
2, 106848, Note_on_c, 0, 49, 68
2, 106925, Note_on_c, 0, 49, 0
2, 106952, Note_on_c, 0, 54, 72
2, 106964, Note_on_c, 0, 73, 83
2, 107008, Note_on_c, 0, 54, 0
2, 107016, Note_on_c, 0, 73, 0
2, 107047, Note_on_c, 0, 49, 62
2, 107133, Note_on_c, 0, 49, 0
2, 107162, Note_on_c, 0, 53, 66
2, 107162, Note_on_c, 0, 68, 83
2, 107218, Note_on_c, 0, 53, 0
2, 107249, Note_on_c, 0, 49, 67
2, 107332, Note_on_c, 0, 49, 0
2, 107343, Note_on_c, 0, 51, 69
2, 107345, Note_on_c, 0, 66, 72
2, 107359, Note_on_c, 0, 68, 0
2, 107416, Note_on_c, 0, 51, 0
2, 107422, Note_on_c, 0, 66, 0
2, 107427, Note_on_c, 0, 49, 65
2, 107427, Note_on_c, 0, 65, 71
2, 107493, Note_on_c, 0, 65, 0
2, 107525, Note_on_c, 0, 51, 80
2, 107528, Note_on_c, 0, 49, 0
2, 107530, Note_on_c, 0, 66, 77
2, 107557, Note_on_c, 0, 51, 0
2, 107579, Note_on_c, 0, 66, 0
2, 107615, Note_on_c, 0, 60, 67
2, 107685, Note_on_c, 0, 60, 0
2, 107714, Note_on_c, 0, 63, 74
2, 107720, Note_on_c, 0, 44, 69
2, 107771, Note_on_c, 0, 44, 0
2, 107805, Note_on_c, 0, 66, 71
2, 107812, Note_on_c, 0, 63, 0
2, 107874, Note_on_c, 0, 66, 0
2, 107892, Note_on_c, 0, 68, 68
2, 107977, Note_on_c, 0, 66, 77
2, 108010, Note_on_c, 0, 68, 0
2, 108029, Note_on_c, 0, 66, 0
2, 108074, Note_on_c, 0, 65, 75
2, 108077, Note_on_c, 0, 56, 67
2, 108111, Note_on_c, 0, 56, 0
2, 108147, Note_on_c, 0, 65, 0
2, 108156, Note_on_c, 0, 66, 74
2, 108163, Note_on_c, 0, 44, 67
2, 108214, Note_on_c, 0, 44, 0
2, 108214, Note_on_c, 0, 66, 0
2, 108249, Note_on_c, 0, 54, 67
2, 108253, Note_on_c, 0, 75, 75
2, 108285, Note_on_c, 0, 54, 0
2, 108319, Note_on_c, 0, 75, 0
2, 108331, Note_on_c, 0, 44, 66
2, 108432, Note_on_c, 0, 44, 0
2, 108444, Note_on_c, 0, 53, 72
2, 108450, Note_on_c, 0, 72, 71
2, 108491, Note_on_c, 0, 53, 0
2, 108502, Note_on_c, 0, 72, 0
2, 108548, Note_on_c, 0, 44, 68
2, 108625, Note_on_c, 0, 44, 0
2, 108649, Note_on_c, 0, 66, 78
2, 108653, Note_on_c, 0, 51, 69
2, 108698, Note_on_c, 0, 51, 0
2, 108738, Note_on_c, 0, 44, 63
2, 108797, Note_on_c, 0, 66, 0
2, 108842, Note_on_c, 0, 65, 71
2, 108846, Note_on_c, 0, 49, 70
2, 108857, Note_on_c, 0, 44, 0
2, 108913, Note_on_c, 0, 49, 0
2, 108920, Note_on_c, 0, 48, 67
2, 108922, Note_on_c, 0, 65, 0
2, 108924, Note_on_c, 0, 63, 73
2, 108986, Note_on_c, 0, 63, 0
2, 109015, Note_on_c, 0, 48, 0
2, 109026, Note_on_c, 0, 65, 68
2, 109028, Note_on_c, 0, 49, 68
2, 109060, Note_on_c, 0, 49, 0
2, 109074, Note_on_c, 0, 65, 0
2, 109089, Note_on_c, 0, 44, 69
2, 109107, Note_on_c, 0, 68, 71
2, 109179, Note_on_c, 0, 68, 0
2, 109190, Note_on_c, 0, 70, 69
2, 109201, Note_on_c, 0, 44, 0
2, 109212, Note_on_c, 0, 53, 63
2, 109231, Note_on_c, 0, 70, 0
2, 109286, Note_on_c, 0, 53, 0
2, 109287, Note_on_c, 0, 72, 74
2, 109292, Note_on_c, 0, 51, 65
2, 109360, Note_on_c, 0, 72, 0
2, 109379, Note_on_c, 0, 51, 0
2, 109386, Note_on_c, 0, 73, 68
2, 109398, Note_on_c, 0, 53, 71
2, 109445, Note_on_c, 0, 53, 0
2, 109469, Note_on_c, 0, 73, 0
2, 109475, Note_on_c, 0, 44, 72
2, 109479, Note_on_c, 0, 75, 67
2, 109533, Note_on_c, 0, 44, 0
2, 109558, Note_on_c, 0, 75, 0
2, 109570, Note_on_c, 0, 77, 64
2, 109574, Note_on_c, 0, 56, 72
2, 109631, Note_on_c, 0, 56, 0
2, 109644, Note_on_c, 0, 54, 69
2, 109655, Note_on_c, 0, 75, 71
2, 109656, Note_on_c, 0, 77, 0
2, 109720, Note_on_c, 0, 75, 0
2, 109726, Note_on_c, 0, 54, 0
2, 109741, Note_on_c, 0, 56, 76
2, 109758, Note_on_c, 0, 78, 74
2, 109789, Note_on_c, 0, 56, 0
2, 109821, Note_on_c, 0, 78, 0
2, 109832, Note_on_c, 0, 77, 75
2, 109835, Note_on_c, 0, 44, 72
2, 109858, Control_c, 0, 64, 46
2, 109873, Control_c, 0, 64, 61
2, 109889, Control_c, 0, 64, 64
2, 109889, Note_on_c, 0, 44, 0
2, 109904, Control_c, 0, 64, 65
2, 109920, Control_c, 0, 64, 68
2, 109921, Note_on_c, 0, 77, 0
2, 109928, Note_on_c, 0, 58, 71
2, 109931, Note_on_c, 0, 75, 65
2, 109934, Control_c, 0, 64, 72
2, 109949, Control_c, 0, 64, 77
2, 109958, Note_on_c, 0, 58, 0
2, 109965, Control_c, 0, 64, 82
2, 109980, Control_c, 0, 64, 84
2, 109986, Note_on_c, 0, 75, 0
2, 109994, Control_c, 0, 64, 86
2, 109994, Note_on_c, 0, 73, 70
2, 110005, Note_on_c, 0, 44, 72
2, 110010, Control_c, 0, 64, 88
2, 110021, Note_on_c, 0, 73, 0
2, 110025, Control_c, 0, 64, 90
2, 110044, Note_on_c, 0, 44, 0
2, 110049, Control_c, 0, 64, 91
2, 110063, Control_c, 0, 64, 92
2, 110079, Control_c, 0, 64, 93
2, 110153, Note_on_c, 0, 60, 78
2, 110168, Note_on_c, 0, 80, 49
2, 110185, Control_c, 0, 64, 93
2, 110191, Note_on_c, 0, 80, 0
2, 110200, Control_c, 0, 64, 91
2, 110203, Note_on_c, 0, 82, 66
2, 110215, Control_c, 0, 64, 86
2, 110230, Control_c, 0, 64, 80
2, 110230, Note_on_c, 0, 82, 0
2, 110246, Control_c, 0, 64, 73
2, 110248, Note_on_c, 0, 61, 77
2, 110249, Note_on_c, 0, 60, 0
2, 110261, Control_c, 0, 64, 62
2, 110261, Note_on_c, 0, 80, 80
2, 110276, Control_c, 0, 64, 0
2, 110304, Note_on_c, 0, 80, 0
2, 110313, Note_on_c, 0, 82, 60
2, 110330, Note_on_c, 0, 61, 0
2, 110347, Note_on_c, 0, 82, 0
2, 110348, Note_on_c, 0, 63, 73
2, 110366, Note_on_c, 0, 80, 44
2, 110390, Note_on_c, 0, 80, 0
2, 110402, Note_on_c, 0, 82, 71
2, 110426, Note_on_c, 0, 63, 0
2, 110436, Note_on_c, 0, 82, 0
2, 110439, Note_on_c, 0, 60, 64
2, 110468, Note_on_c, 0, 80, 61
2, 110495, Note_on_c, 0, 80, 0
2, 110497, Note_on_c, 0, 82, 71
2, 110506, Note_on_c, 0, 60, 0
2, 110533, Note_on_c, 0, 82, 0
2, 110545, Note_on_c, 0, 56, 65
2, 110576, Note_on_c, 0, 80, 31
2, 110591, Note_on_c, 0, 82, 69
2, 110630, Note_on_c, 0, 82, 0
2, 110634, Note_on_c, 0, 60, 67
2, 110636, Note_on_c, 0, 80, 0
2, 110647, Note_on_c, 0, 80, 56
2, 110649, Note_on_c, 0, 56, 0
2, 110689, Note_on_c, 0, 80, 0
2, 110692, Note_on_c, 0, 82, 66
2, 110727, Note_on_c, 0, 82, 0
2, 110747, Note_on_c, 0, 80, 46
2, 110752, Note_on_c, 0, 63, 68
2, 110767, Note_on_c, 0, 60, 0
2, 110773, Note_on_c, 0, 80, 0
2, 110787, Note_on_c, 0, 82, 63
2, 110831, Note_on_c, 0, 82, 0
2, 110845, Note_on_c, 0, 63, 0
2, 110859, Note_on_c, 0, 80, 70
2, 110860, Note_on_c, 0, 65, 70
2, 110901, Note_on_c, 0, 80, 0
2, 110920, Note_on_c, 0, 65, 0
2, 110961, Note_on_c, 0, 66, 77
2, 111052, Note_on_c, 0, 66, 0
2, 111058, Note_on_c, 0, 65, 77
2, 111080, Note_on_c, 0, 80, 72
2, 111136, Note_on_c, 0, 65, 0
2, 111155, Note_on_c, 0, 63, 67
2, 111177, Note_on_c, 0, 78, 76
2, 111177, Note_on_c, 0, 80, 0
2, 111264, Note_on_c, 0, 65, 68
2, 111264, Note_on_c, 0, 80, 71
2, 111268, Note_on_c, 0, 78, 0
2, 111269, Note_on_c, 0, 63, 0
2, 111306, Note_on_c, 0, 65, 0
2, 111348, Note_on_c, 0, 80, 0
2, 111372, Note_on_c, 0, 77, 80
2, 111378, Note_on_c, 0, 73, 69
2, 111404, Note_on_c, 0, 73, 0
2, 111427, Note_on_c, 0, 77, 0
2, 111455, Note_on_c, 0, 80, 75
2, 111577, Note_on_c, 0, 80, 0
2, 111579, Note_on_c, 0, 75, 70
2, 111582, Note_on_c, 0, 68, 74
2, 111612, Note_on_c, 0, 68, 0
2, 111646, Note_on_c, 0, 75, 0
2, 111661, Note_on_c, 0, 80, 67
2, 111764, Note_on_c, 0, 73, 73
2, 111765, Note_on_c, 0, 80, 0
2, 111768, Note_on_c, 0, 65, 63
2, 111819, Note_on_c, 0, 73, 0
2, 111857, Note_on_c, 0, 80, 70
2, 111926, Note_on_c, 0, 80, 0
2, 111941, Note_on_c, 0, 65, 0
2, 111958, Note_on_c, 0, 63, 69
2, 111964, Note_on_c, 0, 72, 67
2, 112036, Note_on_c, 0, 63, 0
2, 112038, Note_on_c, 0, 72, 0
2, 112047, Note_on_c, 0, 70, 72
2, 112052, Note_on_c, 0, 61, 65
2, 112112, Note_on_c, 0, 70, 0
2, 112129, Note_on_c, 0, 61, 0
2, 112145, Note_on_c, 0, 63, 70
2, 112150, Note_on_c, 0, 72, 78
2, 112218, Note_on_c, 0, 63, 0
2, 112219, Note_on_c, 0, 72, 0
2, 112234, Note_on_c, 0, 75, 72
2, 112238, Note_on_c, 0, 56, 62
2, 112322, Note_on_c, 0, 60, 64
2, 112339, Note_on_c, 0, 56, 0
2, 112341, Note_on_c, 0, 77, 72
2, 112356, Note_on_c, 0, 75, 0
2, 112423, Note_on_c, 0, 63, 69
2, 112432, Note_on_c, 0, 78, 74
2, 112439, Note_on_c, 0, 77, 0
2, 112448, Note_on_c, 0, 60, 0
2, 112512, Note_on_c, 0, 63, 0
2, 112517, Note_on_c, 0, 65, 71
2, 112517, Note_on_c, 0, 78, 0
2, 112528, Note_on_c, 0, 80, 75
2, 112591, Note_on_c, 0, 65, 0
2, 112616, Note_on_c, 0, 63, 68
2, 112616, Note_on_c, 0, 78, 75
2, 112647, Note_on_c, 0, 80, 0
2, 112690, Note_on_c, 0, 63, 0
2, 112703, Note_on_c, 0, 77, 68
2, 112705, Note_on_c, 0, 78, 0
2, 112708, Note_on_c, 0, 61, 64
2, 112787, Note_on_c, 0, 63, 75
2, 112790, Note_on_c, 0, 61, 0
2, 112790, Note_on_c, 0, 80, 69
2, 112794, Note_on_c, 0, 77, 0
2, 112818, Note_on_c, 0, 63, 0
2, 112910, Note_on_c, 0, 80, 0
2, 112911, Note_on_c, 0, 72, 77
2, 112925, Note_on_c, 0, 75, 42
2, 112950, Note_on_c, 0, 72, 0
2, 112954, Note_on_c, 0, 75, 0
2, 112999, Note_on_c, 0, 80, 69
2, 113108, Note_on_c, 0, 73, 68
2, 113112, Note_on_c, 0, 68, 73
2, 113117, Note_on_c, 0, 80, 0
2, 113148, Note_on_c, 0, 68, 0
2, 113167, Note_on_c, 0, 73, 0
2, 113187, Note_on_c, 0, 80, 65
2, 113256, Note_on_c, 0, 80, 0
2, 113295, Note_on_c, 0, 72, 65
2, 113302, Note_on_c, 0, 63, 72
2, 113352, Note_on_c, 0, 72, 0
2, 113374, Note_on_c, 0, 80, 65
2, 113433, Note_on_c, 0, 63, 0
2, 113445, Note_on_c, 0, 80, 0
2, 113474, Note_on_c, 0, 61, 72
2, 113477, Note_on_c, 0, 70, 72
2, 113523, Note_on_c, 0, 70, 0
2, 113547, Note_on_c, 0, 61, 0
2, 113556, Note_on_c, 0, 68, 78
2, 113567, Note_on_c, 0, 60, 65
2, 113585, Note_on_c, 0, 68, 0
2, 113623, Note_on_c, 0, 60, 0
2, 113659, Note_on_c, 0, 61, 67
2, 113659, Note_on_c, 0, 70, 80
2, 113707, Note_on_c, 0, 61, 0
2, 113735, Note_on_c, 0, 70, 0
2, 113747, Note_on_c, 0, 56, 65
2, 113749, Note_on_c, 0, 73, 69
2, 113838, Note_on_c, 0, 60, 65
2, 113845, Note_on_c, 0, 56, 0
2, 113845, Note_on_c, 0, 73, 0
2, 113846, Note_on_c, 0, 75, 65
2, 113931, Note_on_c, 0, 61, 64
2, 113939, Note_on_c, 0, 77, 69
2, 113940, Note_on_c, 0, 75, 0
2, 113973, Note_on_c, 0, 60, 0
2, 114007, Note_on_c, 0, 77, 0
2, 114020, Note_on_c, 0, 61, 0
2, 114024, Note_on_c, 0, 63, 73
2, 114040, Note_on_c, 0, 78, 68
2, 114116, Note_on_c, 0, 78, 0
2, 114119, Note_on_c, 0, 77, 70
2, 114120, Note_on_c, 0, 61, 68
2, 114151, Note_on_c, 0, 63, 0
2, 114196, Note_on_c, 0, 77, 0
2, 114198, Note_on_c, 0, 61, 0
2, 114218, Note_on_c, 0, 75, 63
2, 114220, Note_on_c, 0, 60, 64
2, 114286, Note_on_c, 0, 75, 0
2, 114291, Note_on_c, 0, 77, 67
2, 114298, Note_on_c, 0, 61, 69
2, 114299, Note_on_c, 0, 60, 0
2, 114326, Note_on_c, 0, 61, 0
2, 114352, Note_on_c, 0, 77, 0
2, 114399, Note_on_c, 0, 73, 72
2, 114410, Note_on_c, 0, 70, 79
2, 114450, Note_on_c, 0, 70, 0
2, 114465, Note_on_c, 0, 73, 0
2, 114487, Note_on_c, 0, 75, 63
2, 114563, Note_on_c, 0, 75, 0
2, 114593, Note_on_c, 0, 72, 71
2, 114598, Note_on_c, 0, 67, 69
2, 114630, Note_on_c, 0, 67, 0
2, 114669, Note_on_c, 0, 72, 0
2, 114696, Note_on_c, 0, 75, 63
2, 114798, Note_on_c, 0, 70, 70
2, 114802, Note_on_c, 0, 61, 71
2, 114802, Note_on_c, 0, 75, 0
2, 114862, Note_on_c, 0, 70, 0
2, 114885, Note_on_c, 0, 75, 57
2, 114919, Note_on_c, 0, 61, 0
2, 114942, Note_on_c, 0, 75, 0
2, 114980, Note_on_c, 0, 60, 62
2, 114986, Note_on_c, 0, 68, 72
2, 115049, Note_on_c, 0, 68, 0
2, 115051, Note_on_c, 0, 60, 0
2, 115057, Note_on_c, 0, 58, 63
2, 115068, Note_on_c, 0, 67, 67
2, 115123, Note_on_c, 0, 58, 0
2, 115136, Note_on_c, 0, 67, 0
2, 115158, Note_on_c, 0, 68, 68
2, 115166, Note_on_c, 0, 60, 65
2, 115186, Note_on_c, 0, 68, 0
2, 115219, Note_on_c, 0, 60, 0
2, 115245, Note_on_c, 0, 56, 63
2, 115253, Note_on_c, 0, 72, 75
2, 115330, Note_on_c, 0, 72, 0
2, 115344, Note_on_c, 0, 73, 68
2, 115347, Note_on_c, 0, 58, 61
2, 115360, Note_on_c, 0, 56, 0
2, 115421, Note_on_c, 0, 58, 0
2, 115422, Note_on_c, 0, 73, 0
2, 115428, Note_on_c, 0, 75, 73
2, 115441, Note_on_c, 0, 60, 64
2, 115466, Note_on_c, 0, 75, 0
2, 115497, Note_on_c, 0, 60, 0
2, 115525, Note_on_c, 0, 77, 76
2, 115538, Note_on_c, 0, 61, 69
2, 115607, Note_on_c, 0, 77, 0
2, 115612, Note_on_c, 0, 78, 74
2, 115619, Note_on_c, 0, 63, 66
2, 115653, Note_on_c, 0, 61, 0
2, 115697, Note_on_c, 0, 78, 0
2, 115705, Note_on_c, 0, 80, 67
2, 115707, Note_on_c, 0, 65, 71
2, 115709, Note_on_c, 0, 63, 0
2, 115777, Note_on_c, 0, 80, 0
2, 115780, Note_on_c, 0, 82, 70
2, 115799, Note_on_c, 0, 63, 68
2, 115803, Note_on_c, 0, 65, 0
2, 115849, Note_on_c, 0, 82, 0
2, 115873, Note_on_c, 0, 63, 0
2, 115893, Note_on_c, 0, 72, 68
2, 115895, Note_on_c, 0, 66, 75
2, 115921, Note_on_c, 0, 72, 0
2, 115967, Note_on_c, 0, 66, 0
2, 115979, Note_on_c, 0, 65, 62
2, 116072, Note_on_c, 0, 63, 66
2, 116087, Note_on_c, 0, 68, 89
2, 116090, Note_on_c, 0, 65, 0
2, 116123, Note_on_c, 0, 68, 0
2, 116169, Note_on_c, 0, 61, 62
2, 116182, Note_on_c, 0, 63, 0
2, 116252, Note_on_c, 0, 61, 0
2, 116277, Note_on_c, 0, 70, 80
2, 116280, Note_on_c, 0, 66, 75
2, 116308, Note_on_c, 0, 66, 0
2, 116368, Note_on_c, 0, 70, 0
2, 116372, Note_on_c, 0, 68, 71
2, 116426, Note_on_c, 0, 68, 0
2, 116461, Note_on_c, 0, 66, 76
2, 116488, Note_on_c, 0, 58, 48
2, 116528, Note_on_c, 0, 66, 0
2, 116541, Note_on_c, 0, 68, 76
2, 116547, Note_on_c, 0, 60, 62
2, 116577, Note_on_c, 0, 58, 0
2, 116582, Note_on_c, 0, 68, 0
2, 116640, Note_on_c, 0, 60, 0
2, 116650, Note_on_c, 0, 61, 70
2, 116655, Note_on_c, 0, 77, 84
2, 116699, Note_on_c, 0, 77, 0
2, 116720, Note_on_c, 0, 61, 0
2, 116749, Note_on_c, 0, 60, 72
2, 116842, Note_on_c, 0, 73, 81
2, 116847, Note_on_c, 0, 60, 0
2, 116850, Note_on_c, 0, 58, 74
2, 116894, Note_on_c, 0, 73, 0
2, 116931, Note_on_c, 0, 58, 0
2, 116936, Note_on_c, 0, 56, 70
2, 117021, Note_on_c, 0, 56, 0
2, 117053, Note_on_c, 0, 58, 78
2, 117056, Note_on_c, 0, 68, 82
2, 117269, Note_on_c, 0, 66, 68
2, 117289, Note_on_c, 0, 68, 0
2, 117337, Note_on_c, 0, 66, 0
2, 117352, Note_on_c, 0, 65, 73
2, 117408, Note_on_c, 0, 65, 0
2, 117457, Note_on_c, 0, 66, 81
2, 117500, Note_on_c, 0, 66, 0
2, 117542, Note_on_c, 0, 56, 56
2, 117552, Note_on_c, 0, 58, 0
2, 117622, Note_on_c, 0, 56, 0
2, 117628, Note_on_c, 0, 54, 66
2, 117632, Note_on_c, 0, 75, 71
2, 117666, Note_on_c, 0, 75, 0
2, 117718, Note_on_c, 0, 54, 0
2, 117738, Note_on_c, 0, 58, 69
2, 117819, Note_on_c, 0, 58, 0
2, 117834, Note_on_c, 0, 65, 78
2, 117835, Note_on_c, 0, 56, 71
2, 117867, Note_on_c, 0, 65, 0
2, 117916, Note_on_c, 0, 54, 63
2, 117941, Note_on_c, 0, 56, 0
2, 118021, Note_on_c, 0, 54, 0
2, 118023, Note_on_c, 0, 53, 64
2, 118032, Note_on_c, 0, 73, 75
2, 118091, Note_on_c, 0, 73, 0
2, 118103, Note_on_c, 0, 53, 0
2, 118116, Note_on_c, 0, 56, 60
2, 118203, Note_on_c, 0, 56, 0
2, 118220, Note_on_c, 0, 54, 62
2, 118228, Note_on_c, 0, 63, 80
2, 118280, Note_on_c, 0, 63, 0
2, 118303, Note_on_c, 0, 54, 0
2, 118315, Note_on_c, 0, 53, 64
2, 118405, Note_on_c, 0, 53, 0
2, 118417, Note_on_c, 0, 54, 69
2, 118418, Note_on_c, 0, 72, 78
2, 118464, Note_on_c, 0, 72, 0
2, 118503, Note_on_c, 0, 54, 0
2, 118515, Note_on_c, 0, 51, 69
2, 118620, Note_on_c, 0, 53, 71
2, 118629, Note_on_c, 0, 61, 77
2, 118645, Note_on_c, 0, 51, 0
2, 118660, Note_on_c, 0, 61, 0
2, 118690, Note_on_c, 0, 53, 0
2, 118829, Note_on_c, 0, 73, 68
2, 118896, Note_on_c, 0, 73, 0
2, 118923, Note_on_c, 0, 72, 69
2, 118958, Note_on_c, 0, 58, 67
2, 118984, Note_on_c, 0, 72, 0
2, 119001, Note_on_c, 0, 73, 74
2, 119025, Note_on_c, 0, 58, 0
2, 119049, Note_on_c, 0, 73, 0
2, 119067, Note_on_c, 0, 60, 66
2, 119075, Note_on_c, 0, 75, 70
2, 119128, Note_on_c, 0, 75, 0
2, 119163, Note_on_c, 0, 77, 78
2, 119164, Note_on_c, 0, 60, 0
2, 119173, Note_on_c, 0, 61, 63
2, 119234, Note_on_c, 0, 77, 0
2, 119256, Note_on_c, 0, 63, 69
2, 119256, Note_on_c, 0, 78, 73
2, 119273, Note_on_c, 0, 61, 0
2, 119324, Note_on_c, 0, 78, 0
2, 119338, Note_on_c, 0, 63, 0
2, 119349, Note_on_c, 0, 65, 72
2, 119353, Note_on_c, 0, 80, 73
2, 119439, Note_on_c, 0, 78, 74
2, 119452, Note_on_c, 0, 63, 61
2, 119453, Note_on_c, 0, 65, 0
2, 119458, Note_on_c, 0, 80, 0
2, 119519, Note_on_c, 0, 63, 0
2, 119520, Note_on_c, 0, 78, 0
2, 119534, Note_on_c, 0, 61, 64
2, 119540, Note_on_c, 0, 77, 69
2, 119622, Note_on_c, 0, 77, 0
2, 119624, Note_on_c, 0, 63, 60
2, 119627, Note_on_c, 0, 78, 78
2, 119630, Note_on_c, 0, 61, 0
2, 119646, Note_on_c, 0, 63, 0
2, 119681, Note_on_c, 0, 78, 0
2, 119719, Note_on_c, 0, 72, 83
2, 119719, Note_on_c, 0, 80, 82
2, 119733, Note_on_c, 0, 60, 62
2, 119758, Note_on_c, 0, 72, 0
2, 119809, Note_on_c, 0, 78, 73
2, 119813, Note_on_c, 0, 80, 0
2, 119874, Note_on_c, 0, 78, 0
2, 119907, Note_on_c, 0, 77, 68
2, 119910, Note_on_c, 0, 68, 67
2, 119940, Note_on_c, 0, 68, 0
2, 119971, Note_on_c, 0, 77, 0
2, 119989, Note_on_c, 0, 75, 75
2, 120060, Note_on_c, 0, 75, 0
2, 120111, Note_on_c, 0, 60, 0
2, 120112, Note_on_c, 0, 77, 72
2, 120120, Note_on_c, 0, 63, 78
2, 120316, Note_on_c, 0, 63, 0
2, 120335, Note_on_c, 0, 61, 63
2, 120399, Note_on_c, 0, 61, 0
2, 120401, Note_on_c, 0, 60, 67
2, 120508, Note_on_c, 0, 60, 0
2, 120511, Note_on_c, 0, 61, 70
2, 120524, Note_on_c, 0, 58, 64
2, 120563, Note_on_c, 0, 61, 0
2, 120600, Note_on_c, 0, 75, 69
2, 120612, Note_on_c, 0, 77, 0
2, 120687, Note_on_c, 0, 75, 0
2, 120695, Note_on_c, 0, 73, 65
2, 120711, Note_on_c, 0, 70, 69
2, 120740, Note_on_c, 0, 70, 0
2, 120757, Note_on_c, 0, 73, 0
2, 120773, Note_on_c, 0, 77, 63
2, 120854, Note_on_c, 0, 77, 0
2, 120878, Note_on_c, 0, 58, 0
2, 120893, Note_on_c, 0, 75, 67
2, 120896, Note_on_c, 0, 60, 71
2, 120973, Note_on_c, 0, 73, 71
2, 120982, Note_on_c, 0, 75, 0
2, 121049, Note_on_c, 0, 73, 0
2, 121077, Note_on_c, 0, 68, 60
2, 121083, Note_on_c, 0, 56, 66
2, 121085, Note_on_c, 0, 72, 67
2, 121097, Note_on_c, 0, 68, 0
2, 121113, Note_on_c, 0, 60, 0
2, 121147, Note_on_c, 0, 72, 0
2, 121166, Note_on_c, 0, 75, 62
2, 121217, Note_on_c, 0, 56, 0
2, 121245, Note_on_c, 0, 75, 0
2, 121264, Note_on_c, 0, 73, 65
2, 121269, Note_on_c, 0, 58, 74
2, 121334, Note_on_c, 0, 73, 0
2, 121337, Note_on_c, 0, 72, 74
2, 121394, Note_on_c, 0, 72, 0
2, 121442, Note_on_c, 0, 58, 0
2, 121447, Note_on_c, 0, 51, 67
2, 121447, Note_on_c, 0, 73, 70
2, 121449, Note_on_c, 0, 67, 67
2, 121489, Note_on_c, 0, 51, 0
2, 121506, Note_on_c, 0, 67, 0
2, 121522, Note_on_c, 0, 70, 72
2, 121526, Note_on_c, 0, 73, 0
2, 121559, Note_on_c, 0, 70, 0
2, 121645, Note_on_c, 0, 72, 85
2, 121652, Note_on_c, 0, 56, 58
2, 121684, Note_on_c, 0, 56, 0
2, 121687, Note_on_c, 0, 72, 0
2, 121848, Note_on_c, 0, 68, 70
2, 121850, Note_on_c, 0, 75, 77
2, 121889, Note_on_c, 0, 75, 0
2, 121922, Note_on_c, 0, 68, 0
2, 121933, Note_on_c, 0, 67, 71
2, 122032, Note_on_c, 0, 78, 82
2, 122036, Note_on_c, 0, 68, 79
2, 122047, Note_on_c, 0, 67, 0
2, 122062, Note_on_c, 0, 68, 0
2, 122118, Note_on_c, 0, 70, 68
2, 122193, Note_on_c, 0, 70, 0
2, 122225, Note_on_c, 0, 56, 68
2, 122226, Note_on_c, 0, 72, 65
2, 122261, Note_on_c, 0, 56, 0
2, 122275, Note_on_c, 0, 72, 0
2, 122305, Note_on_c, 0, 68, 73
2, 122357, Note_on_c, 0, 68, 0
2, 122416, Note_on_c, 0, 58, 71
2, 122421, Note_on_c, 0, 73, 66
2, 122498, Note_on_c, 0, 72, 70
2, 122507, Note_on_c, 0, 73, 0
2, 122509, Note_on_c, 0, 56, 64
2, 122511, Note_on_c, 0, 58, 0
2, 122565, Note_on_c, 0, 56, 0
2, 122570, Note_on_c, 0, 72, 0
2, 122580, Note_on_c, 0, 54, 61
2, 122584, Note_on_c, 0, 70, 75
2, 122612, Note_on_c, 0, 78, 0
2, 122655, Note_on_c, 0, 70, 0
2, 122667, Note_on_c, 0, 72, 71
2, 122676, Note_on_c, 0, 56, 67
2, 122682, Note_on_c, 0, 54, 0
2, 122694, Note_on_c, 0, 72, 0
2, 122707, Note_on_c, 0, 56, 0
2, 122774, Note_on_c, 0, 73, 77
2, 122776, Note_on_c, 0, 77, 75
2, 122780, Note_on_c, 0, 65, 73
2, 122816, Note_on_c, 0, 65, 0
2, 122866, Note_on_c, 0, 73, 0
2, 122867, Note_on_c, 0, 72, 72
2, 122935, Note_on_c, 0, 72, 0
2, 122970, Note_on_c, 0, 70, 72
2, 122975, Note_on_c, 0, 61, 70
2, 123003, Note_on_c, 0, 61, 0
2, 123050, Note_on_c, 0, 70, 0
2, 123063, Note_on_c, 0, 68, 66
2, 123111, Note_on_c, 0, 68, 0
2, 123179, Note_on_c, 0, 70, 69
2, 123184, Note_on_c, 0, 56, 69
2, 123333, Note_on_c, 0, 77, 0
2, 123398, Note_on_c, 0, 54, 63
2, 123431, Note_on_c, 0, 56, 0
2, 123454, Note_on_c, 0, 54, 0
2, 123477, Note_on_c, 0, 53, 64
2, 123517, Note_on_c, 0, 70, 0
2, 123560, Note_on_c, 0, 75, 69
2, 123570, Note_on_c, 0, 54, 75
2, 123574, Note_on_c, 0, 53, 0
2, 123612, Note_on_c, 0, 54, 0
2, 123657, Note_on_c, 0, 68, 66
2, 123729, Note_on_c, 0, 68, 0
2, 123752, Note_on_c, 0, 66, 62
2, 123763, Note_on_c, 0, 63, 64
2, 123798, Note_on_c, 0, 63, 0
2, 123811, Note_on_c, 0, 66, 0
2, 123835, Note_on_c, 0, 70, 61
2, 123957, Note_on_c, 0, 68, 63
2, 123963, Note_on_c, 0, 53, 61
2, 123984, Note_on_c, 0, 75, 0
2, 124000, Note_on_c, 0, 70, 0
2, 124004, Note_on_c, 0, 53, 0
2, 124028, Note_on_c, 0, 68, 0
2, 124029, Note_on_c, 0, 66, 64
2, 124082, Note_on_c, 0, 66, 0
2, 124126, Note_on_c, 0, 73, 70
2, 124131, Note_on_c, 0, 65, 67
2, 124148, Note_on_c, 0, 61, 56
2, 124180, Note_on_c, 0, 61, 0
2, 124194, Note_on_c, 0, 65, 0
2, 124211, Note_on_c, 0, 68, 66
2, 124229, Note_on_c, 0, 73, 0
2, 124252, Note_on_c, 0, 68, 0
2, 124319, Note_on_c, 0, 72, 66
2, 124321, Note_on_c, 0, 66, 55
2, 124329, Note_on_c, 0, 51, 58
2, 124368, Note_on_c, 0, 66, 0
2, 124379, Note_on_c, 0, 51, 0
2, 124403, Note_on_c, 0, 65, 61
2, 124412, Note_on_c, 0, 72, 0
2, 124459, Note_on_c, 0, 65, 0
2, 124504, Note_on_c, 0, 75, 69
2, 124514, Note_on_c, 0, 60, 62
2, 124523, Note_on_c, 0, 66, 60
2, 124544, Note_on_c, 0, 60, 0
2, 124589, Note_on_c, 0, 63, 69
2, 124592, Note_on_c, 0, 66, 0
2, 124620, Note_on_c, 0, 63, 0
2, 124719, Note_on_c, 0, 49, 55
2, 124724, Note_on_c, 0, 65, 73
2, 124767, Note_on_c, 0, 49, 0
2, 124796, Note_on_c, 0, 44, 55
2, 124893, Note_on_c, 0, 75, 0
2, 124897, Note_on_c, 0, 49, 61
2, 124898, Note_on_c, 0, 44, 0
2, 124918, Note_on_c, 0, 68, 72
2, 124978, Note_on_c, 0, 51, 60
2, 124989, Note_on_c, 0, 49, 0
2, 125059, Note_on_c, 0, 51, 0
2, 125085, Note_on_c, 0, 53, 64
2, 125103, Note_on_c, 0, 73, 75
2, 125117, Note_on_c, 0, 68, 0
2, 125132, Note_on_c, 0, 53, 0
2, 125182, Note_on_c, 0, 54, 61
2, 125262, Note_on_c, 0, 54, 0
2, 125275, Note_on_c, 0, 56, 61
2, 125293, Note_on_c, 0, 71, 73
2, 125338, Note_on_c, 0, 73, 0
2, 125359, Note_on_c, 0, 56, 0
2, 125366, Note_on_c, 0, 65, 0
2, 125369, Note_on_c, 0, 53, 60
2, 125426, Note_on_c, 0, 53, 0
2, 125492, Note_on_c, 0, 54, 60
2, 125492, Note_on_c, 0, 71, 0
2, 125498, Note_on_c, 0, 70, 69
2, 125531, Note_on_c, 0, 54, 0
2, 125589, Note_on_c, 0, 42, 58
2, 125639, Note_on_c, 0, 42, 0
2, 125684, Note_on_c, 0, 54, 56
2, 125684, Note_on_c, 0, 61, 71
2, 125717, Note_on_c, 0, 54, 0
2, 125778, Note_on_c, 0, 53, 61
2, 125867, Note_on_c, 0, 54, 60
2, 125877, Note_on_c, 0, 61, 0
2, 125880, Note_on_c, 0, 53, 0
2, 125884, Note_on_c, 0, 66, 70
2, 125963, Note_on_c, 0, 56, 62
2, 125966, Note_on_c, 0, 54, 0
2, 126034, Note_on_c, 0, 56, 0
2, 126068, Note_on_c, 0, 58, 60
2, 126073, Note_on_c, 0, 65, 76
2, 126080, Note_on_c, 0, 66, 0
2, 126134, Note_on_c, 0, 58, 0
2, 126153, Note_on_c, 0, 54, 59
2, 126249, Note_on_c, 0, 70, 0
2, 126251, Note_on_c, 0, 54, 0
2, 126277, Note_on_c, 0, 51, 56
2, 126282, Note_on_c, 0, 66, 72
2, 126289, Note_on_c, 0, 65, 0
2, 126365, Note_on_c, 0, 53, 56
2, 126368, Note_on_c, 0, 51, 0
2, 126427, Note_on_c, 0, 53, 0
2, 126460, Note_on_c, 0, 66, 0
2, 126464, Note_on_c, 0, 70, 69
2, 126465, Note_on_c, 0, 54, 59
2, 126505, Note_on_c, 0, 54, 0
2, 126540, Note_on_c, 0, 66, 70
2, 126541, Note_on_c, 0, 70, 0
2, 126545, Note_on_c, 0, 51, 61
2, 126599, Note_on_c, 0, 51, 0
2, 126643, Note_on_c, 0, 63, 79
2, 126646, Note_on_c, 0, 48, 63
2, 126655, Note_on_c, 0, 66, 0
2, 126733, Note_on_c, 0, 48, 0
2, 126736, Note_on_c, 0, 49, 62
2, 126797, Note_on_c, 0, 49, 0
2, 126821, Note_on_c, 0, 63, 0
2, 126831, Note_on_c, 0, 51, 62
2, 126840, Note_on_c, 0, 66, 60
2, 126869, Note_on_c, 0, 51, 0
2, 126906, Note_on_c, 0, 48, 68
2, 126911, Note_on_c, 0, 63, 64
2, 126916, Note_on_c, 0, 66, 0
2, 126941, Note_on_c, 0, 48, 0
2, 126983, Note_on_c, 0, 63, 0
2, 127033, Note_on_c, 0, 41, 76
2, 127033, Note_on_c, 0, 56, 70
2, 127060, Note_on_c, 0, 41, 0
2, 127238, Note_on_c, 0, 53, 59
2, 127238, Note_on_c, 0, 63, 69
2, 127278, Note_on_c, 0, 53, 0
2, 127291, Note_on_c, 0, 63, 0
2, 127307, Note_on_c, 0, 51, 57
2, 127373, Note_on_c, 0, 51, 0
2, 127391, Note_on_c, 0, 56, 0
2, 127407, Note_on_c, 0, 53, 54
2, 127419, Note_on_c, 0, 68, 85
2, 127448, Note_on_c, 0, 53, 0
2, 127500, Note_on_c, 0, 54, 56
2, 127557, Note_on_c, 0, 54, 0
2, 127611, Note_on_c, 0, 56, 55
2, 127616, Note_on_c, 0, 60, 67
2, 127643, Note_on_c, 0, 56, 0
2, 127646, Note_on_c, 0, 60, 0
2, 127696, Note_on_c, 0, 53, 57
2, 127754, Note_on_c, 0, 53, 0
2, 127806, Note_on_c, 0, 50, 52
2, 127815, Note_on_c, 0, 65, 76
2, 127827, Note_on_c, 0, 68, 0
2, 127889, Note_on_c, 0, 51, 59
2, 127894, Note_on_c, 0, 50, 0
2, 127957, Note_on_c, 0, 51, 0
2, 127994, Note_on_c, 0, 53, 58
2, 127999, Note_on_c, 0, 65, 0
2, 128005, Note_on_c, 0, 68, 70
2, 128036, Note_on_c, 0, 53, 0
2, 128071, Note_on_c, 0, 68, 0
2, 128081, Note_on_c, 0, 65, 73
2, 128084, Note_on_c, 0, 50, 56
2, 128148, Note_on_c, 0, 50, 0
2, 128176, Note_on_c, 0, 46, 56
2, 128177, Note_on_c, 0, 62, 78
2, 128184, Note_on_c, 0, 65, 0
2, 128271, Note_on_c, 0, 46, 0
2, 128274, Note_on_c, 0, 48, 55
2, 128320, Note_on_c, 0, 48, 0
2, 128335, Note_on_c, 0, 62, 0
2, 128353, Note_on_c, 0, 65, 63
2, 128360, Note_on_c, 0, 50, 56
2, 128392, Note_on_c, 0, 50, 0
2, 128414, Note_on_c, 0, 65, 0
2, 128429, Note_on_c, 0, 62, 71
2, 128487, Note_on_c, 0, 45, 15
2, 128488, Note_on_c, 0, 45, 0
2, 128494, Note_on_c, 0, 62, 0
2, 128563, Note_on_c, 0, 54, 73
2, 128570, Note_on_c, 0, 39, 65
2, 128601, Note_on_c, 0, 39, 0
2, 128772, Note_on_c, 0, 58, 67
2, 128776, Note_on_c, 0, 51, 55
2, 128824, Note_on_c, 0, 58, 0
2, 128837, Note_on_c, 0, 51, 0
2, 128861, Note_on_c, 0, 50, 62
2, 128922, Note_on_c, 0, 54, 0
2, 128953, Note_on_c, 0, 51, 63
2, 128958, Note_on_c, 0, 66, 80
2, 128971, Note_on_c, 0, 50, 0
2, 129037, Note_on_c, 0, 51, 0
2, 129044, Note_on_c, 0, 53, 61
2, 129094, Note_on_c, 0, 53, 0
2, 129146, Note_on_c, 0, 54, 56
2, 129151, Note_on_c, 0, 58, 70
2, 129182, Note_on_c, 0, 58, 0
2, 129197, Note_on_c, 0, 54, 0
2, 129215, Note_on_c, 0, 51, 60
2, 129295, Note_on_c, 0, 51, 0
2, 129335, Note_on_c, 0, 66, 0
2, 129341, Note_on_c, 0, 48, 52
2, 129343, Note_on_c, 0, 63, 72
2, 129420, Note_on_c, 0, 48, 0
2, 129421, Note_on_c, 0, 49, 58
2, 129426, Note_on_c, 0, 65, 70
2, 129431, Note_on_c, 0, 63, 0
2, 129484, Note_on_c, 0, 49, 0
2, 129503, Note_on_c, 0, 65, 0
2, 129513, Note_on_c, 0, 66, 67
2, 129516, Note_on_c, 0, 51, 55
2, 129556, Note_on_c, 0, 66, 0
2, 129568, Note_on_c, 0, 51, 0
2, 129595, Note_on_c, 0, 48, 45
2, 129595, Note_on_c, 0, 63, 73
2, 129645, Note_on_c, 0, 63, 0
2, 129684, Note_on_c, 0, 48, 0
2, 129690, Note_on_c, 0, 75, 77
2, 129698, Note_on_c, 0, 44, 61
2, 129776, Note_on_c, 0, 46, 68
2, 129788, Note_on_c, 0, 44, 0
2, 129788, Note_on_c, 0, 66, 68
2, 129838, Note_on_c, 0, 46, 0
2, 129864, Note_on_c, 0, 66, 0
2, 129869, Note_on_c, 0, 48, 59
2, 129873, Note_on_c, 0, 68, 66
2, 129926, Note_on_c, 0, 48, 0
2, 129936, Note_on_c, 0, 68, 0
2, 129940, Note_on_c, 0, 44, 69
2, 129965, Note_on_c, 0, 63, 70
2, 129970, Note_on_c, 0, 44, 0
2, 130002, Note_on_c, 0, 63, 0
2, 130078, Note_on_c, 0, 37, 69
2, 130085, Note_on_c, 0, 65, 76
2, 130100, Note_on_c, 0, 37, 0
2, 130115, Note_on_c, 0, 75, 0
2, 130173, Note_on_c, 0, 73, 65
2, 130244, Note_on_c, 0, 65, 0
2, 130262, Note_on_c, 0, 49, 65
2, 130274, Note_on_c, 0, 73, 0
2, 130275, Note_on_c, 0, 65, 23
2, 130275, Note_on_c, 0, 72, 65
2, 130338, Note_on_c, 0, 51, 67
2, 130347, Note_on_c, 0, 72, 0
2, 130356, Note_on_c, 0, 75, 69
2, 130383, Note_on_c, 0, 49, 0
2, 130389, Note_on_c, 0, 65, 0
2, 130422, Note_on_c, 0, 51, 0
2, 130452, Note_on_c, 0, 53, 75
2, 130455, Note_on_c, 0, 73, 70
2, 130482, Note_on_c, 0, 53, 0
2, 130483, Note_on_c, 0, 75, 0
2, 130537, Note_on_c, 0, 68, 74
2, 130539, Note_on_c, 0, 73, 0
2, 130609, Note_on_c, 0, 68, 0
2, 130643, Note_on_c, 0, 61, 81
2, 130647, Note_on_c, 0, 70, 73
2, 130655, Note_on_c, 0, 49, 58
2, 130679, Note_on_c, 0, 49, 0
2, 130719, Note_on_c, 0, 70, 0
2, 130727, Note_on_c, 0, 71, 69
2, 130795, Note_on_c, 0, 61, 0
2, 130832, Note_on_c, 0, 71, 0
2, 130840, Note_on_c, 0, 54, 62
2, 130844, Note_on_c, 0, 70, 76
2, 130926, Note_on_c, 0, 60, 57
2, 130931, Note_on_c, 0, 68, 76
2, 130931, Note_on_c, 0, 70, 0
2, 130988, Note_on_c, 0, 68, 0
2, 130996, Note_on_c, 0, 60, 0
2, 131005, Note_on_c, 0, 58, 63
2, 131020, Note_on_c, 0, 66, 75
2, 131035, Note_on_c, 0, 54, 0
2, 131082, Note_on_c, 0, 66, 0
2, 131087, Note_on_c, 0, 58, 0
2, 131094, Note_on_c, 0, 68, 78
2, 131097, Note_on_c, 0, 60, 63
2, 131122, Note_on_c, 0, 68, 0
2, 131158, Note_on_c, 0, 60, 0
2, 131207, Note_on_c, 0, 77, 90
2, 131210, Note_on_c, 0, 61, 63
2, 131215, Note_on_c, 0, 53, 59
2, 131255, Note_on_c, 0, 61, 0
2, 131261, Note_on_c, 0, 77, 0
2, 131296, Note_on_c, 0, 60, 62
2, 131305, Note_on_c, 0, 53, 0
2, 131394, Note_on_c, 0, 58, 57
2, 131403, Note_on_c, 0, 73, 83
2, 131404, Note_on_c, 0, 60, 0
2, 131465, Note_on_c, 0, 73, 0
2, 131480, Note_on_c, 0, 56, 60
2, 131486, Note_on_c, 0, 58, 0
2, 131513, Note_on_c, 0, 56, 0
2, 131615, Note_on_c, 0, 58, 75
2, 131619, Note_on_c, 0, 68, 80
2, 131631, Note_on_c, 0, 51, 51
2, 131687, Note_on_c, 0, 51, 0
2, 131813, Note_on_c, 0, 66, 68
2, 131832, Note_on_c, 0, 49, 61
2, 131835, Note_on_c, 0, 68, 0
2, 131870, Note_on_c, 0, 49, 0
2, 131887, Note_on_c, 0, 66, 0
2, 131897, Note_on_c, 0, 65, 70
2, 131961, Note_on_c, 0, 65, 0
2, 131995, Note_on_c, 0, 58, 0
2, 132002, Note_on_c, 0, 48, 66
2, 132005, Note_on_c, 0, 66, 81
2, 132035, Note_on_c, 0, 48, 0
2, 132049, Note_on_c, 0, 66, 0
2, 132081, Note_on_c, 0, 56, 66
2, 132183, Note_on_c, 0, 56, 0
2, 132184, Note_on_c, 0, 54, 58
2, 132194, Note_on_c, 0, 75, 79
2, 132245, Note_on_c, 0, 54, 0
2, 132253, Note_on_c, 0, 75, 0
2, 132273, Note_on_c, 0, 58, 63
2, 132326, Note_on_c, 0, 58, 0
2, 132387, Note_on_c, 0, 49, 61
2, 132396, Note_on_c, 0, 65, 80
2, 132403, Note_on_c, 0, 56, 65
2, 132439, Note_on_c, 0, 65, 0
2, 132462, Note_on_c, 0, 49, 0
2, 132484, Note_on_c, 0, 54, 62
2, 132529, Note_on_c, 0, 56, 0
2, 132591, Note_on_c, 0, 73, 77
2, 132594, Note_on_c, 0, 53, 60
2, 132600, Note_on_c, 0, 54, 0
2, 132641, Note_on_c, 0, 53, 0
2, 132654, Note_on_c, 0, 73, 0
2, 132658, Note_on_c, 0, 56, 68
2, 132696, Note_on_c, 0, 56, 0
2, 132786, Note_on_c, 0, 63, 85
2, 132790, Note_on_c, 0, 44, 62
2, 132790, Note_on_c, 0, 54, 58
2, 132838, Note_on_c, 0, 63, 0
2, 132849, Note_on_c, 0, 44, 0
2, 132871, Note_on_c, 0, 54, 0
2, 132873, Note_on_c, 0, 53, 63
2, 132949, Note_on_c, 0, 53, 0
2, 132976, Note_on_c, 0, 72, 79
2, 132978, Note_on_c, 0, 51, 66
2, 133029, Note_on_c, 0, 72, 0
2, 133058, Note_on_c, 0, 54, 67
2, 133062, Note_on_c, 0, 51, 0
2, 133122, Note_on_c, 0, 54, 0
2, 133174, Note_on_c, 0, 46, 68
2, 133174, Note_on_c, 0, 53, 74
2, 133179, Note_on_c, 0, 61, 77
2, 133204, Note_on_c, 0, 46, 0
2, 133236, Note_on_c, 0, 53, 0
2, 133246, Note_on_c, 0, 61, 0
2, 133258, Note_on_c, 0, 65, 71
2, 133283, Note_on_c, 0, 56, 73
2, 133355, Note_on_c, 0, 58, 76
2, 133359, Note_on_c, 0, 65, 0
2, 133359, Note_on_c, 0, 66, 76
2, 133360, Note_on_c, 0, 56, 0
2, 133435, Note_on_c, 0, 68, 75
2, 133436, Note_on_c, 0, 58, 0
2, 133442, Note_on_c, 0, 66, 0
2, 133445, Note_on_c, 0, 60, 75
2, 133506, Note_on_c, 0, 60, 0
2, 133520, Note_on_c, 0, 68, 0
2, 133527, Note_on_c, 0, 70, 66
2, 133548, Note_on_c, 0, 61, 78
2, 133554, Note_on_c, 0, 70, 0
2, 133608, Note_on_c, 0, 61, 0
2, 133610, Note_on_c, 0, 72, 72
2, 133629, Note_on_c, 0, 60, 73
2, 133709, Note_on_c, 0, 73, 78
2, 133711, Note_on_c, 0, 72, 0
2, 133716, Note_on_c, 0, 60, 0
2, 133722, Note_on_c, 0, 58, 78
2, 133799, Note_on_c, 0, 75, 76
2, 133805, Note_on_c, 0, 73, 0
2, 133807, Note_on_c, 0, 56, 70
2, 133823, Note_on_c, 0, 58, 0
2, 133893, Note_on_c, 0, 75, 0
2, 133900, Note_on_c, 0, 56, 0
2, 133902, Note_on_c, 0, 76, 76
2, 133907, Note_on_c, 0, 55, 72
2, 133991, Note_on_c, 0, 56, 68
2, 133992, Note_on_c, 0, 75, 78
2, 134004, Note_on_c, 0, 55, 0
2, 134008, Note_on_c, 0, 76, 0
2, 134080, Note_on_c, 0, 73, 75
2, 134080, Note_on_c, 0, 75, 0
2, 134081, Note_on_c, 0, 56, 0
2, 134083, Note_on_c, 0, 58, 67
2, 134154, Note_on_c, 0, 75, 76
2, 134155, Note_on_c, 0, 55, 64
2, 134164, Note_on_c, 0, 58, 0
2, 134164, Note_on_c, 0, 73, 0
2, 134191, Note_on_c, 0, 55, 0
2, 134209, Note_on_c, 0, 75, 0
2, 134259, Note_on_c, 0, 76, 78
2, 134272, Note_on_c, 0, 51, 74
2, 134343, Note_on_c, 0, 76, 0
2, 134346, Note_on_c, 0, 79, 79
2, 134347, Note_on_c, 0, 49, 71
2, 134412, Note_on_c, 0, 79, 0
2, 134439, Note_on_c, 0, 80, 75
2, 134444, Note_on_c, 0, 48, 71
2, 134460, Note_on_c, 0, 51, 0
2, 134485, Note_on_c, 0, 49, 0
2, 134499, Note_on_c, 0, 80, 0
2, 134508, Note_on_c, 0, 82, 71
2, 134533, Note_on_c, 0, 46, 73
2, 134544, Note_on_c, 0, 48, 0
2, 134588, Note_on_c, 0, 82, 0
2, 134624, Note_on_c, 0, 44, 72
2, 134635, Note_on_c, 0, 73, 73
2, 134639, Note_on_c, 0, 46, 0
2, 134704, Note_on_c, 0, 73, 0
2, 134709, Note_on_c, 0, 51, 71
2, 134710, Note_on_c, 0, 72, 70
2, 134734, Note_on_c, 0, 44, 0
2, 134754, Note_on_c, 0, 72, 0
2, 134790, Note_on_c, 0, 51, 0
2, 134806, Note_on_c, 0, 70, 79
2, 134808, Note_on_c, 0, 53, 66
2, 134886, Note_on_c, 0, 68, 81
2, 134891, Note_on_c, 0, 70, 0
2, 134897, Note_on_c, 0, 53, 0
2, 134902, Note_on_c, 0, 54, 65
2, 134952, Note_on_c, 0, 68, 0
2, 134986, Note_on_c, 0, 75, 88
2, 134990, Note_on_c, 0, 56, 74
2, 135021, Note_on_c, 0, 54, 0
2, 135042, Note_on_c, 0, 75, 0
2, 135080, Note_on_c, 0, 58, 76
2, 135096, Note_on_c, 0, 56, 0
2, 135187, Note_on_c, 0, 58, 0
2, 135189, Note_on_c, 0, 66, 94
2, 135196, Note_on_c, 0, 60, 73
2, 135232, Note_on_c, 0, 66, 0
2, 135276, Note_on_c, 0, 56, 78
2, 135279, Note_on_c, 0, 60, 0
2, 135409, Note_on_c, 0, 65, 93
2, 135418, Note_on_c, 0, 61, 80
2, 135420, Note_on_c, 0, 56, 0
2, 135447, Note_on_c, 0, 61, 0
2, 135462, Note_on_c, 0, 65, 0
2, 135659, Note_on_c, 0, 61, 92
2, 135659, Note_on_c, 0, 68, 88
2, 135665, Note_on_c, 0, 73, 81
2, 135668, Note_on_c, 0, 41, 87
2, 135710, Note_on_c, 0, 61, 0
2, 135725, Note_on_c, 0, 68, 0
2, 135732, Note_on_c, 0, 41, 0
2, 135739, Note_on_c, 0, 73, 0
2, 135934, Note_on_c, 0, 42, 88
2, 135939, Note_on_c, 0, 70, 83
2, 135940, Note_on_c, 0, 63, 92
2, 135940, Note_on_c, 0, 66, 84
2, 136014, Note_on_c, 0, 66, 0
2, 136015, Note_on_c, 0, 42, 0
2, 136032, Note_on_c, 0, 70, 0
2, 136246, Note_on_c, 0, 44, 83
2, 136247, Note_on_c, 0, 72, 85
2, 136248, Note_on_c, 0, 68, 82
2, 136249, Note_on_c, 0, 66, 78
2, 136289, Note_on_c, 0, 63, 0
2, 136327, Note_on_c, 0, 66, 0
2, 136345, Note_on_c, 0, 44, 0
2, 136346, Note_on_c, 0, 72, 0
2, 136348, Note_on_c, 0, 68, 0
2, 136652, Note_on_c, 0, 68, 82
2, 136652, Note_on_c, 0, 73, 83
2, 136656, Note_on_c, 0, 61, 86
2, 136657, Note_on_c, 0, 37, 76
2, 136658, Note_on_c, 0, 65, 79
2, 138246, Note_on_c, 0, 61, 0
2, 138252, Note_on_c, 0, 68, 0
2, 138255, Note_on_c, 0, 65, 0
2, 138256, Note_on_c, 0, 73, 0
2, 138257, Note_on_c, 0, 37, 0
2, 138258, End_track
0, 0, End_of_file
