0, 0, Header, 1, 2, 384
1, 0, Start_track
1, 0, Tempo, 500000
1, 0, Time_signature, 4, 2, 24, 8
1, 1, End_track
2,0,Start_track
2,0, Note_on_c, 0, 68, 77
2,31, Note_on_c, 0, 68, 0
2,250, Note_on_c, 0, 70, 70
2,325, Note_on_c, 0, 70, 0
2,335, Note_on_c, 0, 68, 71
2,380, Note_on_c, 0, 68, 0
2,438, Note_on_c, 0, 66, 74
2,499, Note_on_c, 0, 66, 0
2,517, Note_on_c, 0, 68, 73
2,552, Note_on_c, 0, 68, 0
2,646, Note_on_c, 0, 77, 79
2,685, Note_on_c, 0, 77, 0
2,876, Note_on_c, 0, 73, 78
2,921, Note_on_c, 0, 73, 0
2,1101, Note_on_c, 0, 68, 80
2,1307, Note_on_c, 0, 66, 64
2,1315, Note_on_c, 0, 68, 0
2,1371, Note_on_c, 0, 66, 0
2,1391, Note_on_c, 0, 65, 68
2,1443, Note_on_c, 0, 65, 0
2,1511, Note_on_c, 0, 66, 75
2,1542, Note_on_c, 0, 66, 0
2,1724, Note_on_c, 0, 75, 70
2,1762, Note_on_c, 0, 75, 0
2,1924, Note_on_c, 0, 65, 77
2,1967, Note_on_c, 0, 65, 0
2,2137, Note_on_c, 0, 73, 71
2,2189, Note_on_c, 0, 73, 0
2,2355, Note_on_c, 0, 63, 71
2,2400, Note_on_c, 0, 63, 0
2,2565, Note_on_c, 0, 72, 72
2,2606, Note_on_c, 0, 72, 0
2,2775, Note_on_c, 0, 61, 68
2,2801, Note_on_c, 0, 61, 0
2,2980, Note_on_c, 0, 73, 65
2,3045, Note_on_c, 0, 73, 0
2,3081, Note_on_c, 0, 72, 68
2,3167, Note_on_c, 0, 72, 0
2,3176, Note_on_c, 0, 73, 69
2,3257, Note_on_c, 0, 73, 0
2,3264, Note_on_c, 0, 75, 72
2,3329, Note_on_c, 0, 75, 0
2,3372, Note_on_c, 0, 77, 72
2,3377, Note_on_c, 0, 61, 75
2,3414, Note_on_c, 0, 61, 0
2,3447, Note_on_c, 0, 77, 0
2,3459, Note_on_c, 0, 78, 70
2,3542, Note_on_c, 0, 78, 0
2,3567, Note_on_c, 0, 65, 73
2,3571, Note_on_c, 0, 80, 73
2,3659, Note_on_c, 0, 65, 0
2,3662, Note_on_c, 0, 63, 72
2,3665, Note_on_c, 0, 79, 72
2,3675, Note_on_c, 0, 80, 0
2,3736, Note_on_c, 0, 63, 0
2,3749, Note_on_c, 0, 79, 0
2,3750, Note_on_c, 0, 61, 66
2,3767, Note_on_c, 0, 77, 66
2,3846, Note_on_c, 0, 63, 77
2,3855, Note_on_c, 0, 61, 0
2,3857, Note_on_c, 0, 77, 0
2,3864, Note_on_c, 0, 79, 71
2,3884, Note_on_c, 0, 63, 0
2,3923, Note_on_c, 0, 79, 0
2,3965, Note_on_c, 0, 80, 70
2,3968, Note_on_c, 0, 72, 75
2,4011, Note_on_c, 0, 72, 0
2,4061, Note_on_c, 0, 78, 72
2,4061, Note_on_c, 0, 80, 0
2,4127, Note_on_c, 0, 78, 0
2,4163, Note_on_c, 0, 68, 79
2,4165, Note_on_c, 0, 77, 63
2,4197, Note_on_c, 0, 68, 0
2,4232, Note_on_c, 0, 77, 0
2,4255, Note_on_c, 0, 75, 70
2,4330, Note_on_c, 0, 75, 0
2,4366, Note_on_c, 0, 63, 75
2,4368, Note_on_c, 0, 77, 68
2,4595, Note_on_c, 0, 63, 0
2,4597, Note_on_c, 0, 61, 63
2,4672, Note_on_c, 0, 61, 0
2,4684, Note_on_c, 0, 60, 69
2,4791, Note_on_c, 0, 61, 76
2,4793, Note_on_c, 0, 60, 0
2,4835, Note_on_c, 0, 61, 0
2,4913, Note_on_c, 0, 75, 56
2,4927, Note_on_c, 0, 77, 0
2,4991, Note_on_c, 0, 70, 65
2,5000, Note_on_c, 0, 73, 68
2,5001, Note_on_c, 0, 75, 0
2,5023, Note_on_c, 0, 70, 0
2,5071, Note_on_c, 0, 73, 0
2,5093, Note_on_c, 0, 77, 65
2,5201, Note_on_c, 0, 75, 67
2,5204, Note_on_c, 0, 60, 65
2,5215, Note_on_c, 0, 77, 0
2,5245, Note_on_c, 0, 60, 0
2,5286, Note_on_c, 0, 73, 67
2,5292, Note_on_c, 0, 75, 0
2,5371, Note_on_c, 0, 73, 0
2,5404, Note_on_c, 0, 72, 65
2,5411, Note_on_c, 0, 68, 63
2,5443, Note_on_c, 0, 68, 0
2,5481, Note_on_c, 0, 72, 0
2,5489, Note_on_c, 0, 75, 62
2,5599, Note_on_c, 0, 58, 63
2,5602, Note_on_c, 0, 73, 67
2,5606, Note_on_c, 0, 75, 0
2,5651, Note_on_c, 0, 58, 0
2,5678, Note_on_c, 0, 73, 0
2,5684, Note_on_c, 0, 72, 70
2,5758, Note_on_c, 0, 72, 0
2,5782, Note_on_c, 0, 73, 67
2,5792, Note_on_c, 0, 67, 68
2,5826, Note_on_c, 0, 73, 0
2,5836, Note_on_c, 0, 67, 0
2,5854, Note_on_c, 0, 70, 70
2,5882, Note_on_c, 0, 70, 0
2,5974, Note_on_c, 0, 56, 68
2,5977, Note_on_c, 0, 70, 71
2,6008, Note_on_c, 0, 56, 0
2,6013, Note_on_c, 0, 70, 0
2,6048, Note_on_c, 0, 72, 67
2,6084, Note_on_c, 0, 72, 0
2,6184, Note_on_c, 0, 68, 74
2,6194, Note_on_c, 0, 75, 69
2,6228, Note_on_c, 0, 75, 0
2,6257, Note_on_c, 0, 68, 0
2,6265, Note_on_c, 0, 67, 71
2,6362, Note_on_c, 0, 68, 79
2,6362, Note_on_c, 0, 78, 75
2,6369, Note_on_c, 0, 67, 0
2,6391, Note_on_c, 0, 68, 0
2,6452, Note_on_c, 0, 70, 70
2,6499, Note_on_c, 0, 70, 0
2,6563, Note_on_c, 0, 56, 74
2,6563, Note_on_c, 0, 72, 65
2,6604, Note_on_c, 0, 56, 0
2,6629, Note_on_c, 0, 72, 0
2,6646, Note_on_c, 0, 68, 68
2,6686, Note_on_c, 0, 68, 0
2,6754, Note_on_c, 0, 58, 78
2,6762, Note_on_c, 0, 73, 65
2,6845, Note_on_c, 0, 72, 67
2,6847, Note_on_c, 0, 73, 0
2,6852, Note_on_c, 0, 56, 68
2,6853, Note_on_c, 0, 58, 0
2,6919, Note_on_c, 0, 56, 0
2,6925, Note_on_c, 0, 72, 0
2,6931, Note_on_c, 0, 54, 64
2,6941, Note_on_c, 0, 70, 74
2,6995, Note_on_c, 0, 78, 0
2,7016, Note_on_c, 0, 70, 0
2,7026, Note_on_c, 0, 56, 69
2,7029, Note_on_c, 0, 72, 68
2,7035, Note_on_c, 0, 54, 0
2,7056, Note_on_c, 0, 72, 0
2,7057, Note_on_c, 0, 56, 0
2,7135, Note_on_c, 0, 73, 74
2,7135, Note_on_c, 0, 77, 70
2,7139, Note_on_c, 0, 65, 75
2,7186, Note_on_c, 0, 65, 0
2,7228, Note_on_c, 0, 73, 0
2,7234, Note_on_c, 0, 72, 66
2,7296, Note_on_c, 0, 72, 0
2,7329, Note_on_c, 0, 70, 72
2,7331, Note_on_c, 0, 61, 72
2,7363, Note_on_c, 0, 61, 0
2,7413, Note_on_c, 0, 70, 0
2,7425, Note_on_c, 0, 68, 64
2,7511, Note_on_c, 0, 68, 0
2,7531, Note_on_c, 0, 70, 68
2,7533, Note_on_c, 0, 56, 70
2,7702, Note_on_c, 0, 77, 0
2,7749, Note_on_c, 0, 56, 0
2,7754, Note_on_c, 0, 54, 57
2,7810, Note_on_c, 0, 54, 0
2,7827, Note_on_c, 0, 53, 66
2,7887, Note_on_c, 0, 70, 0
2,7929, Note_on_c, 0, 53, 0
2,7935, Note_on_c, 0, 54, 72
2,7936, Note_on_c, 0, 75, 67
2,7977, Note_on_c, 0, 54, 0
2,8035, Note_on_c, 0, 68, 56
2,8114, Note_on_c, 0, 68, 0
2,8125, Note_on_c, 0, 66, 64
2,8131, Note_on_c, 0, 63, 61
2,8169, Note_on_c, 0, 63, 0
2,8184, Note_on_c, 0, 66, 0
2,8209, Note_on_c, 0, 70, 60
2,8324, Note_on_c, 0, 53, 62
2,8331, Note_on_c, 0, 68, 62
2,8356, Note_on_c, 0, 70, 0
2,8358, Note_on_c, 0, 75, 0
2,8376, Note_on_c, 0, 53, 0
2,8402, Note_on_c, 0, 66, 67
2,8406, Note_on_c, 0, 68, 0
2,8457, Note_on_c, 0, 66, 0
2,8508, Note_on_c, 0, 73, 70
2,8520, Note_on_c, 0, 65, 61
2,8521, Note_on_c, 0, 61, 61
2,8558, Note_on_c, 0, 61, 0
2,8570, Note_on_c, 0, 65, 0
2,8596, Note_on_c, 0, 68, 62
2,8606, Note_on_c, 0, 73, 0
2,8634, Note_on_c, 0, 68, 0
2,8704, Note_on_c, 0, 51, 64
2,8705, Note_on_c, 0, 66, 61
2,8707, Note_on_c, 0, 72, 68
2,8750, Note_on_c, 0, 66, 0
2,8768, Note_on_c, 0, 51, 0
2,8781, Note_on_c, 0, 72, 0
2,8785, Note_on_c, 0, 65, 61
2,8839, Note_on_c, 0, 65, 0
2,8893, Note_on_c, 0, 75, 70
2,8894, Note_on_c, 0, 60, 63
2,8897, Note_on_c, 0, 66, 66
2,8931, Note_on_c, 0, 60, 0
2,8974, Note_on_c, 0, 63, 71
2,8975, Note_on_c, 0, 66, 0
2,9008, Note_on_c, 0, 63, 0
2,9087, Note_on_c, 0, 49, 63
2,9104, Note_on_c, 0, 65, 73
2,9122, Note_on_c, 0, 49, 0
2,9194, Note_on_c, 0, 75, 0
2,9309, Note_on_c, 0, 61, 64
2,9317, Note_on_c, 0, 68, 70
2,9353, Note_on_c, 0, 68, 0
2,9372, Note_on_c, 0, 61, 0
2,9392, Note_on_c, 0, 60, 63
2,9450, Note_on_c, 0, 65, 0
2,9494, Note_on_c, 0, 61, 63
2,9494, Note_on_c, 0, 77, 86
2,9513, Note_on_c, 0, 60, 0
2,9583, Note_on_c, 0, 61, 0
2,9594, Note_on_c, 0, 63, 60
2,9657, Note_on_c, 0, 63, 0
2,9693, Note_on_c, 0, 65, 62
2,9700, Note_on_c, 0, 68, 70
2,9729, Note_on_c, 0, 68, 0
2,9734, Note_on_c, 0, 65, 0
2,9777, Note_on_c, 0, 61, 58
2,9835, Note_on_c, 0, 61, 0
2,9877, Note_on_c, 0, 58, 57
2,9893, Note_on_c, 0, 73, 72
2,9928, Note_on_c, 0, 77, 0
2,9983, Note_on_c, 0, 60, 58
2,9985, Note_on_c, 0, 58, 0
2,10036, Note_on_c, 0, 73, 0
2,10046, Note_on_c, 0, 60, 0
2,10070, Note_on_c, 0, 77, 66
2,10085, Note_on_c, 0, 61, 56
2,10130, Note_on_c, 0, 61, 0
2,10154, Note_on_c, 0, 73, 69
2,10158, Note_on_c, 0, 58, 59
2,10196, Note_on_c, 0, 77, 0
2,10221, Note_on_c, 0, 58, 0
2,10260, Note_on_c, 0, 55, 60
2,10262, Note_on_c, 0, 70, 75
2,10270, Note_on_c, 0, 73, 0
2,10340, Note_on_c, 0, 55, 0
2,10350, Note_on_c, 0, 56, 59
2,10413, Note_on_c, 0, 56, 0
2,10443, Note_on_c, 0, 70, 0
2,10446, Note_on_c, 0, 58, 62
2,10450, Note_on_c, 0, 73, 65
2,10482, Note_on_c, 0, 58, 0
2,10536, Note_on_c, 0, 73, 0
2,10539, Note_on_c, 0, 70, 70
2,10541, Note_on_c, 0, 55, 66
2,10567, Note_on_c, 0, 55, 0
2,10593, Note_on_c, 0, 70, 0
2,10646, Note_on_c, 0, 63, 74
2,10652, Note_on_c, 0, 48, 75
2,10677, Note_on_c, 0, 48, 0
2,10860, Note_on_c, 0, 60, 64
2,10865, Note_on_c, 0, 70, 68
2,10905, Note_on_c, 0, 60, 0
2,10913, Note_on_c, 0, 70, 0
2,10936, Note_on_c, 0, 58, 60
2,10998, Note_on_c, 0, 58, 0
2,11016, Note_on_c, 0, 63, 0
2,11038, Note_on_c, 0, 60, 58
2,11040, Note_on_c, 0, 75, 81
2,11075, Note_on_c, 0, 60, 0
2,11126, Note_on_c, 0, 61, 59
2,11182, Note_on_c, 0, 61, 0
2,11239, Note_on_c, 0, 67, 64
2,11244, Note_on_c, 0, 63, 56
2,11270, Note_on_c, 0, 67, 0
2,11300, Note_on_c, 0, 63, 0
2,11319, Note_on_c, 0, 60, 58
2,11385, Note_on_c, 0, 60, 0
2,11436, Note_on_c, 0, 56, 51
2,11441, Note_on_c, 0, 72, 74
2,11444, Note_on_c, 0, 75, 0
2,11524, Note_on_c, 0, 56, 0
2,11534, Note_on_c, 0, 58, 58
2,11589, Note_on_c, 0, 58, 0
2,11622, Note_on_c, 0, 72, 0
2,11626, Note_on_c, 0, 75, 65
2,11633, Note_on_c, 0, 60, 57
2,11670, Note_on_c, 0, 60, 0
2,11700, Note_on_c, 0, 75, 0
2,11711, Note_on_c, 0, 56, 59
2,11717, Note_on_c, 0, 72, 66
2,11759, Note_on_c, 0, 56, 0
2,11807, Note_on_c, 0, 53, 60
2,11813, Note_on_c, 0, 68, 77
2,11835, Note_on_c, 0, 72, 0
2,11903, Note_on_c, 0, 53, 0
2,11917, Note_on_c, 0, 55, 57
2,11952, Note_on_c, 0, 55, 0
2,11992, Note_on_c, 0, 56, 58
2,12000, Note_on_c, 0, 68, 0
2,12001, Note_on_c, 0, 72, 58
2,12025, Note_on_c, 0, 56, 0
2,12084, Note_on_c, 0, 53, 54
2,12088, Note_on_c, 0, 72, 0
2,12092, Note_on_c, 0, 68, 68
2,12112, Note_on_c, 0, 53, 0
2,12156, Note_on_c, 0, 68, 0
2,12203, Note_on_c, 0, 46, 64
2,12204, Note_on_c, 0, 61, 74
2,12231, Note_on_c, 0, 46, 0
2,12414, Note_on_c, 0, 58, 66
2,12421, Note_on_c, 0, 68, 71
2,12478, Note_on_c, 0, 58, 0
2,12483, Note_on_c, 0, 68, 0
2,12503, Note_on_c, 0, 56, 60
2,12568, Note_on_c, 0, 61, 0
2,12603, Note_on_c, 0, 73, 76
2,12608, Note_on_c, 0, 58, 59
2,12642, Note_on_c, 0, 56, 0
2,12679, Note_on_c, 0, 58, 0
2,12687, Note_on_c, 0, 60, 58
2,12735, Note_on_c, 0, 60, 0
2,12790, Note_on_c, 0, 61, 61
2,12793, Note_on_c, 0, 65, 67
2,12827, Note_on_c, 0, 65, 0
2,12839, Note_on_c, 0, 61, 0
2,12869, Note_on_c, 0, 58, 57
2,12941, Note_on_c, 0, 58, 0
2,12975, Note_on_c, 0, 55, 60
2,12975, Note_on_c, 0, 73, 0
2,12981, Note_on_c, 0, 70, 73
2,13066, Note_on_c, 0, 55, 0
2,13067, Note_on_c, 0, 56, 62
2,13076, Note_on_c, 0, 72, 67
2,13084, Note_on_c, 0, 70, 0
2,13128, Note_on_c, 0, 56, 0
2,13156, Note_on_c, 0, 72, 0
2,13159, Note_on_c, 0, 73, 69
2,13160, Note_on_c, 0, 58, 65
2,13193, Note_on_c, 0, 58, 0
2,13208, Note_on_c, 0, 73, 0
2,13244, Note_on_c, 0, 55, 58
2,13244, Note_on_c, 0, 70, 74
2,13306, Note_on_c, 0, 70, 0
2,13312, Note_on_c, 0, 55, 0
2,13347, Note_on_c, 0, 82, 76
2,13348, Note_on_c, 0, 51, 58
2,13437, Note_on_c, 0, 73, 69
2,13443, Note_on_c, 0, 53, 58
2,13460, Note_on_c, 0, 51, 0
2,13505, Note_on_c, 0, 53, 0
2,13511, Note_on_c, 0, 73, 0
2,13523, Note_on_c, 0, 75, 64
2,13532, Note_on_c, 0, 55, 59
2,13587, Note_on_c, 0, 55, 0
2,13587, Note_on_c, 0, 75, 0
2,13603, Note_on_c, 0, 70, 71
2,13610, Note_on_c, 0, 51, 69
2,13631, Note_on_c, 0, 70, 0
2,13635, Note_on_c, 0, 51, 0
2,13731, Note_on_c, 0, 44, 64
2,13731, Note_on_c, 0, 72, 74
2,13764, Note_on_c, 0, 44, 0
2,13768, Note_on_c, 0, 82, 0
2,13813, Note_on_c, 0, 80, 70
2,13865, Note_on_c, 0, 72, 0
2,13893, Note_on_c, 0, 80, 0
2,13920, Note_on_c, 0, 56, 65
2,13924, Note_on_c, 0, 79, 66
2,13999, Note_on_c, 0, 79, 0
2,14004, Note_on_c, 0, 58, 63
2,14012, Note_on_c, 0, 82, 68
2,14029, Note_on_c, 0, 56, 0
2,14090, Note_on_c, 0, 58, 0
2,14109, Note_on_c, 0, 80, 73
2,14116, Note_on_c, 0, 60, 72
2,14132, Note_on_c, 0, 82, 0
2,14142, Note_on_c, 0, 60, 0
2,14208, Note_on_c, 0, 75, 67
2,14226, Note_on_c, 0, 80, 0
2,14281, Note_on_c, 0, 75, 0
2,14301, Note_on_c, 0, 77, 74
2,14303, Note_on_c, 0, 68, 81
2,14306, Note_on_c, 0, 56, 58
2,14335, Note_on_c, 0, 56, 0
2,14387, Note_on_c, 0, 78, 69
2,14389, Note_on_c, 0, 77, 0
2,14472, Note_on_c, 0, 68, 0
2,14485, Note_on_c, 0, 78, 0
2,14486, Note_on_c, 0, 61, 65
2,14499, Note_on_c, 0, 77, 74
2,14581, Note_on_c, 0, 67, 64
2,14585, Note_on_c, 0, 77, 0
2,14586, Note_on_c, 0, 75, 71
2,14648, Note_on_c, 0, 75, 0
2,14656, Note_on_c, 0, 67, 0
2,14677, Note_on_c, 0, 73, 70
2,14679, Note_on_c, 0, 65, 57
2,14696, Note_on_c, 0, 61, 0
2,14748, Note_on_c, 0, 73, 0
2,14749, Note_on_c, 0, 65, 0
2,14760, Note_on_c, 0, 67, 59
2,14762, Note_on_c, 0, 75, 75
2,14792, Note_on_c, 0, 75, 0
2,14815, Note_on_c, 0, 67, 0
2,14861, Note_on_c, 0, 68, 72
2,14871, Note_on_c, 0, 84, 88
2,14875, Note_on_c, 0, 60, 56
2,14915, Note_on_c, 0, 68, 0
2,14923, Note_on_c, 0, 84, 0
2,14960, Note_on_c, 0, 66, 70
2,14962, Note_on_c, 0, 60, 0
2,15067, Note_on_c, 0, 65, 59
2,15069, Note_on_c, 0, 80, 83
2,15099, Note_on_c, 0, 66, 0
2,15131, Note_on_c, 0, 80, 0
2,15144, Note_on_c, 0, 65, 0
2,15148, Note_on_c, 0, 63, 65
2,15179, Note_on_c, 0, 63, 0
2,15275, Note_on_c, 0, 65, 68
2,15278, Note_on_c, 0, 75, 76
2,15279, Note_on_c, 0, 58, 66
2,15346, Note_on_c, 0, 58, 0
2,15483, Note_on_c, 0, 56, 65
2,15491, Note_on_c, 0, 73, 66
2,15506, Note_on_c, 0, 75, 0
2,15528, Note_on_c, 0, 56, 0
2,15560, Note_on_c, 0, 73, 0
2,15579, Note_on_c, 0, 72, 67
2,15663, Note_on_c, 0, 65, 0
2,15675, Note_on_c, 0, 72, 0
2,15684, Note_on_c, 0, 73, 72
2,15685, Note_on_c, 0, 55, 59
2,15722, Note_on_c, 0, 55, 0
2,15730, Note_on_c, 0, 73, 0
2,15767, Note_on_c, 0, 63, 66
2,15869, Note_on_c, 0, 63, 0
2,15870, Note_on_c, 0, 82, 76
2,15874, Note_on_c, 0, 61, 65
2,15928, Note_on_c, 0, 82, 0
2,15933, Note_on_c, 0, 61, 0
2,15962, Note_on_c, 0, 65, 66
2,16015, Note_on_c, 0, 65, 0
2,16066, Note_on_c, 0, 72, 72
2,16069, Note_on_c, 0, 56, 54
2,16079, Note_on_c, 0, 63, 65
2,16112, Note_on_c, 0, 72, 0
2,16136, Note_on_c, 0, 56, 0
2,16170, Note_on_c, 0, 61, 64
2,16206, Note_on_c, 0, 63, 0
2,16262, Note_on_c, 0, 60, 65
2,16266, Note_on_c, 0, 80, 68
2,16268, Note_on_c, 0, 61, 0
2,16309, Note_on_c, 0, 60, 0
2,16327, Note_on_c, 0, 80, 0
2,16345, Note_on_c, 0, 63, 67
2,16379, Note_on_c, 0, 63, 0
2,16468, Note_on_c, 0, 70, 81
2,16470, Note_on_c, 0, 51, 64
2,16476, Note_on_c, 0, 61, 53
2,16502, Note_on_c, 0, 61, 0
2,16513, Note_on_c, 0, 70, 0
2,16539, Note_on_c, 0, 51, 0
2,16549, Note_on_c, 0, 60, 61
2,16662, Note_on_c, 0, 60, 0
2,16665, Note_on_c, 0, 79, 75
2,16669, Note_on_c, 0, 61, 72
2,16709, Note_on_c, 0, 79, 0
2,16751, Note_on_c, 0, 58, 55
2,16756, Note_on_c, 0, 61, 0
2,16850, Note_on_c, 0, 58, 0
2,16853, Note_on_c, 0, 68, 78
2,16855, Note_on_c, 0, 60, 61
2,16860, Note_on_c, 0, 56, 46
2,16912, Note_on_c, 0, 60, 0
2,16917, Note_on_c, 0, 68, 0
2,16944, Note_on_c, 0, 70, 68
2,17010, Note_on_c, 0, 70, 0
2,17057, Note_on_c, 0, 72, 68
2,17062, Note_on_c, 0, 63, 67
2,17112, Note_on_c, 0, 63, 0
2,17129, Note_on_c, 0, 72, 0
2,17134, Note_on_c, 0, 73, 67
2,17217, Note_on_c, 0, 73, 0
2,17248, Note_on_c, 0, 72, 72
2,17257, Note_on_c, 0, 68, 66
2,17260, Note_on_c, 0, 56, 0
2,17313, Note_on_c, 0, 72, 0
2,17323, Note_on_c, 0, 70, 69
2,17362, Note_on_c, 0, 68, 0
2,17381, Note_on_c, 0, 70, 0
2,17426, Note_on_c, 0, 63, 62
2,17426, Note_on_c, 0, 68, 65
2,17480, Note_on_c, 0, 68, 0
2,17487, Note_on_c, 0, 63, 0
2,17505, Note_on_c, 0, 72, 73
2,17509, Note_on_c, 0, 60, 62
2,17605, Note_on_c, 0, 72, 0
2,17617, Note_on_c, 0, 56, 62
2,17617, Note_on_c, 0, 77, 67
2,17623, Note_on_c, 0, 60, 0
2,17707, Note_on_c, 0, 75, 67
2,17716, Note_on_c, 0, 77, 0
2,17770, Note_on_c, 0, 56, 0
2,17773, Note_on_c, 0, 75, 0
2,17800, Note_on_c, 0, 59, 68
2,17807, Note_on_c, 0, 74, 71
2,17872, Note_on_c, 0, 59, 0
2,17876, Note_on_c, 0, 74, 0
2,17887, Note_on_c, 0, 77, 76
2,17892, Note_on_c, 0, 56, 71
2,17958, Note_on_c, 0, 77, 0
2,17986, Note_on_c, 0, 56, 0
2,17988, Note_on_c, 0, 80, 76
2,17993, Note_on_c, 0, 53, 71
2,18077, Note_on_c, 0, 78, 78
2,18087, Note_on_c, 0, 80, 0
2,18158, Note_on_c, 0, 53, 0
2,18160, Note_on_c, 0, 78, 0
2,18182, Note_on_c, 0, 77, 77
2,18187, Note_on_c, 0, 56, 66
2,18255, Note_on_c, 0, 56, 0
2,18270, Note_on_c, 0, 53, 70
2,18272, Note_on_c, 0, 77, 0
2,18272, Note_on_c, 0, 80, 80
2,18367, Note_on_c, 0, 53, 0
2,18373, Note_on_c, 0, 80, 0
2,18392, Note_on_c, 0, 83, 78
2,18394, Note_on_c, 0, 50, 66
2,18602, Note_on_c, 0, 82, 69
2,18604, Note_on_c, 0, 53, 62
2,18606, Note_on_c, 0, 83, 0
2,18641, Note_on_c, 0, 50, 0
2,18692, Note_on_c, 0, 80, 73
2,18695, Note_on_c, 0, 56, 64
2,18698, Note_on_c, 0, 82, 0
2,18711, Note_on_c, 0, 53, 0
2,18784, Note_on_c, 0, 56, 0
2,18788, Note_on_c, 0, 78, 69
2,18792, Note_on_c, 0, 80, 0
2,18800, Note_on_c, 0, 59, 69
2,18854, Note_on_c, 0, 78, 0
2,18875, Note_on_c, 0, 77, 68
2,18934, Note_on_c, 0, 77, 0
2,18985, Note_on_c, 0, 53, 58
2,18985, Note_on_c, 0, 75, 67
2,19062, Note_on_c, 0, 75, 0
2,19067, Note_on_c, 0, 74, 65
2,19109, Note_on_c, 0, 59, 0
2,19144, Note_on_c, 0, 74, 0
2,19181, Note_on_c, 0, 58, 54
2,19189, Note_on_c, 0, 75, 71
2,19201, Note_on_c, 0, 54, 51
2,19224, Note_on_c, 0, 53, 0
2,19245, Note_on_c, 0, 58, 0
2,19250, Note_on_c, 0, 75, 0
2,19255, Note_on_c, 0, 54, 0
2,19275, Note_on_c, 0, 78, 71
2,19354, Note_on_c, 0, 78, 0
2,19374, Note_on_c, 0, 59, 49
2,19374, Note_on_c, 0, 77, 66
2,19375, Note_on_c, 0, 56, 55
2,19404, Note_on_c, 0, 59, 0
2,19423, Note_on_c, 0, 56, 0
2,19457, Note_on_c, 0, 77, 0
2,19462, Note_on_c, 0, 75, 66
2,19533, Note_on_c, 0, 75, 0
2,19547, Note_on_c, 0, 74, 60
2,19563, Note_on_c, 0, 58, 71
2,19616, Note_on_c, 0, 74, 0
2,19626, Note_on_c, 0, 58, 0
2,19644, Note_on_c, 0, 77, 65
2,19678, Note_on_c, 0, 77, 0
2,19735, Note_on_c, 0, 70, 68
2,19741, Note_on_c, 0, 46, 66
2,19744, Note_on_c, 0, 50, 61
2,19774, Note_on_c, 0, 50, 0
2,19775, Note_on_c, 0, 70, 0
2,19785, Note_on_c, 0, 46, 0
2,19824, Note_on_c, 0, 68, 68
2,19945, Note_on_c, 0, 66, 67
2,19952, Note_on_c, 0, 68, 0
2,19953, Note_on_c, 0, 51, 66
2,19954, Note_on_c, 0, 39, 62
2,20015, Note_on_c, 0, 66, 0
2,20035, Note_on_c, 0, 65, 64
2,20080, Note_on_c, 0, 39, 0
2,20101, Note_on_c, 0, 51, 0
2,20111, Note_on_c, 0, 65, 0
2,20141, Note_on_c, 0, 63, 68
2,20218, Note_on_c, 0, 63, 0
2,20225, Note_on_c, 0, 62, 69
2,20296, Note_on_c, 0, 62, 0
2,20320, Note_on_c, 0, 63, 66
2,20358, Note_on_c, 0, 63, 0
2,20399, Note_on_c, 0, 65, 70
2,20463, Note_on_c, 0, 65, 0
2,20500, Note_on_c, 0, 66, 71
2,20506, Note_on_c, 0, 51, 64
2,20545, Note_on_c, 0, 51, 0
2,20580, Note_on_c, 0, 66, 0
2,20583, Note_on_c, 0, 68, 67
2,20668, Note_on_c, 0, 68, 0
2,20680, Note_on_c, 0, 54, 72
2,20693, Note_on_c, 0, 70, 53
2,20774, Note_on_c, 0, 54, 0
2,20787, Note_on_c, 0, 53, 66
2,20791, Note_on_c, 0, 68, 64
2,20804, Note_on_c, 0, 70, 0
2,20846, Note_on_c, 0, 53, 0
2,20860, Note_on_c, 0, 51, 55
2,20867, Note_on_c, 0, 68, 0
2,20876, Note_on_c, 0, 66, 65
2,20954, Note_on_c, 0, 53, 70
2,20958, Note_on_c, 0, 68, 66
2,20965, Note_on_c, 0, 66, 0
2,20970, Note_on_c, 0, 51, 0
2,20992, Note_on_c, 0, 53, 0
2,21032, Note_on_c, 0, 68, 0
2,21068, Note_on_c, 0, 70, 64
2,21080, Note_on_c, 0, 61, 76
2,21118, Note_on_c, 0, 61, 0
2,21148, Note_on_c, 0, 68, 67
2,21165, Note_on_c, 0, 70, 0
2,21261, Note_on_c, 0, 58, 77
2,21261, Note_on_c, 0, 66, 64
2,21264, Note_on_c, 0, 68, 0
2,21294, Note_on_c, 0, 58, 0
2,21337, Note_on_c, 0, 66, 0
2,21350, Note_on_c, 0, 65, 69
2,21460, Note_on_c, 0, 65, 0
2,21476, Note_on_c, 0, 53, 74
2,21477, Note_on_c, 0, 66, 68
2,21683, Note_on_c, 0, 51, 61
2,21712, Note_on_c, 0, 53, 0
2,21751, Note_on_c, 0, 51, 0
2,21762, Note_on_c, 0, 49, 71
2,21869, Note_on_c, 0, 51, 79
2,21879, Note_on_c, 0, 49, 0
2,21914, Note_on_c, 0, 51, 0
2,21940, Note_on_c, 0, 66, 0
2,21970, Note_on_c, 0, 65, 68
2,22055, Note_on_c, 0, 65, 0
2,22068, Note_on_c, 0, 60, 63
2,22075, Note_on_c, 0, 63, 69
2,22099, Note_on_c, 0, 60, 0
2,22142, Note_on_c, 0, 63, 0
2,22148, Note_on_c, 0, 66, 58
2,22245, Note_on_c, 0, 66, 0
2,22257, Note_on_c, 0, 49, 70
2,22265, Note_on_c, 0, 65, 61
2,22315, Note_on_c, 0, 49, 0
2,22337, Note_on_c, 0, 65, 0
2,22345, Note_on_c, 0, 63, 66
2,22410, Note_on_c, 0, 63, 0
2,22448, Note_on_c, 0, 61, 70
2,22457, Note_on_c, 0, 58, 64
2,22490, Note_on_c, 0, 58, 0
2,22501, Note_on_c, 0, 61, 0
2,22522, Note_on_c, 0, 65, 65
2,22639, Note_on_c, 0, 63, 67
2,22648, Note_on_c, 0, 65, 0
2,22652, Note_on_c, 0, 48, 55
2,22680, Note_on_c, 0, 48, 0
2,22704, Note_on_c, 0, 63, 0
2,22711, Note_on_c, 0, 61, 69
2,22774, Note_on_c, 0, 61, 0
2,22815, Note_on_c, 0, 63, 68
2,22827, Note_on_c, 0, 57, 59
2,22860, Note_on_c, 0, 57, 0
2,22860, Note_on_c, 0, 63, 0
2,22896, Note_on_c, 0, 60, 69
2,22956, Note_on_c, 0, 60, 0
2,22997, Note_on_c, 0, 46, 66
2,22997, Note_on_c, 0, 61, 67
2,23031, Note_on_c, 0, 46, 0
2,23092, Note_on_c, 0, 65, 68
2,23094, Note_on_c, 0, 61, 0
2,23177, Note_on_c, 0, 65, 0
2,23182, Note_on_c, 0, 58, 62
2,23187, Note_on_c, 0, 66, 67
2,23242, Note_on_c, 0, 66, 0
2,23247, Note_on_c, 0, 58, 0
2,23265, Note_on_c, 0, 57, 60
2,23276, Note_on_c, 0, 65, 76
2,23337, Note_on_c, 0, 65, 0
2,23368, Note_on_c, 0, 58, 57
2,23383, Note_on_c, 0, 73, 77
2,23390, Note_on_c, 0, 57, 0
2,23447, Note_on_c, 0, 58, 0
2,23454, Note_on_c, 0, 60, 55
2,23520, Note_on_c, 0, 60, 0
2,23557, Note_on_c, 0, 61, 62
2,23582, Note_on_c, 0, 65, 59
2,23610, Note_on_c, 0, 61, 0
2,23615, Note_on_c, 0, 65, 0
2,23635, Note_on_c, 0, 58, 60
2,23705, Note_on_c, 0, 58, 0
2,23747, Note_on_c, 0, 73, 0
2,23748, Note_on_c, 0, 55, 58
2,23756, Note_on_c, 0, 70, 68
2,23832, Note_on_c, 0, 55, 0
2,23838, Note_on_c, 0, 56, 64
2,23847, Note_on_c, 0, 72, 62
2,23849, Note_on_c, 0, 70, 0
2,23900, Note_on_c, 0, 56, 0
2,23931, Note_on_c, 0, 72, 0
2,23931, Note_on_c, 0, 73, 65
2,23939, Note_on_c, 0, 58, 63
2,23968, Note_on_c, 0, 58, 0
2,23982, Note_on_c, 0, 73, 0
2,24020, Note_on_c, 0, 55, 55
2,24020, Note_on_c, 0, 70, 75
2,24074, Note_on_c, 0, 70, 0
2,24085, Note_on_c, 0, 55, 0
2,24114, Note_on_c, 0, 82, 78
2,24119, Note_on_c, 0, 51, 55
2,24195, Note_on_c, 0, 82, 0
2,24205, Note_on_c, 0, 53, 63
2,24209, Note_on_c, 0, 73, 70
2,24227, Note_on_c, 0, 51, 0
2,24257, Note_on_c, 0, 53, 0
2,24285, Note_on_c, 0, 73, 0
2,24289, Note_on_c, 0, 55, 63
2,24305, Note_on_c, 0, 75, 62
2,24347, Note_on_c, 0, 55, 0
2,24370, Note_on_c, 0, 51, 70
2,24380, Note_on_c, 0, 70, 66
2,24380, Note_on_c, 0, 75, 0
2,24399, Note_on_c, 0, 51, 0
2,24435, Note_on_c, 0, 70, 0
2,24477, Note_on_c, 0, 72, 70
2,24486, Note_on_c, 0, 44, 70
2,24503, Note_on_c, 0, 72, 0
2,24511, Note_on_c, 0, 44, 0
2,24577, Note_on_c, 0, 63, 75
2,24649, Note_on_c, 0, 63, 0
2,24670, Note_on_c, 0, 56, 64
2,24670, Note_on_c, 0, 65, 71
2,24731, Note_on_c, 0, 56, 0
2,24739, Note_on_c, 0, 65, 0
2,24749, Note_on_c, 0, 63, 78
2,24758, Note_on_c, 0, 55, 58
2,24807, Note_on_c, 0, 63, 0
2,24850, Note_on_c, 0, 72, 85
2,24860, Note_on_c, 0, 56, 59
2,24882, Note_on_c, 0, 55, 0
2,24942, Note_on_c, 0, 56, 0
2,24950, Note_on_c, 0, 58, 64
2,25002, Note_on_c, 0, 58, 0
2,25037, Note_on_c, 0, 60, 62
2,25038, Note_on_c, 0, 63, 74
2,25074, Note_on_c, 0, 63, 0
2,25078, Note_on_c, 0, 60, 0
2,25121, Note_on_c, 0, 56, 61
2,25184, Note_on_c, 0, 56, 0
2,25217, Note_on_c, 0, 53, 63
2,25222, Note_on_c, 0, 68, 71
2,25223, Note_on_c, 0, 72, 0
2,25305, Note_on_c, 0, 53, 0
2,25306, Note_on_c, 0, 55, 60
2,25306, Note_on_c, 0, 70, 63
2,25323, Note_on_c, 0, 68, 0
2,25358, Note_on_c, 0, 55, 0
2,25396, Note_on_c, 0, 56, 61
2,25400, Note_on_c, 0, 70, 0
2,25409, Note_on_c, 0, 72, 62
2,25438, Note_on_c, 0, 56, 0
2,25443, Note_on_c, 0, 72, 0
2,25481, Note_on_c, 0, 53, 59
2,25481, Note_on_c, 0, 68, 74
2,25558, Note_on_c, 0, 68, 0
2,25567, Note_on_c, 0, 53, 0
2,25586, Note_on_c, 0, 80, 76
2,25593, Note_on_c, 0, 49, 69
2,25675, Note_on_c, 0, 72, 70
2,25677, Note_on_c, 0, 80, 0
2,25678, Note_on_c, 0, 51, 65
2,25693, Note_on_c, 0, 49, 0
2,25737, Note_on_c, 0, 51, 0
2,25760, Note_on_c, 0, 53, 66
2,25767, Note_on_c, 0, 72, 0
2,25773, Note_on_c, 0, 73, 65
2,25812, Note_on_c, 0, 53, 0
2,25839, Note_on_c, 0, 49, 69
2,25847, Note_on_c, 0, 68, 63
2,25847, Note_on_c, 0, 73, 0
2,25870, Note_on_c, 0, 49, 0
2,25900, Note_on_c, 0, 68, 0
2,25943, Note_on_c, 0, 70, 67
2,25960, Note_on_c, 0, 43, 49
2,25963, Note_on_c, 0, 45, 45
2,25969, Note_on_c, 0, 70, 0
2,25994, Note_on_c, 0, 45, 0
2,25995, Note_on_c, 0, 43, 0
2,26036, Note_on_c, 0, 61, 79
2,26125, Note_on_c, 0, 61, 0
2,26137, Note_on_c, 0, 55, 61
2,26138, Note_on_c, 0, 63, 69
2,26193, Note_on_c, 0, 55, 0
2,26209, Note_on_c, 0, 63, 0
2,26213, Note_on_c, 0, 61, 76
2,26231, Note_on_c, 0, 53, 62
2,26283, Note_on_c, 0, 61, 0
2,26315, Note_on_c, 0, 70, 79
2,26323, Note_on_c, 0, 55, 57
2,26327, Note_on_c, 0, 53, 0
2,26409, Note_on_c, 0, 55, 0
2,26424, Note_on_c, 0, 56, 59
2,26476, Note_on_c, 0, 56, 0
2,26502, Note_on_c, 0, 58, 63
2,26505, Note_on_c, 0, 61, 66
2,26536, Note_on_c, 0, 58, 0
2,26541, Note_on_c, 0, 61, 0
2,26584, Note_on_c, 0, 55, 65
2,26657, Note_on_c, 0, 55, 0
2,26679, Note_on_c, 0, 52, 63
2,26679, Note_on_c, 0, 70, 0
2,26687, Note_on_c, 0, 67, 64
2,26746, Note_on_c, 0, 67, 0
2,26763, Note_on_c, 0, 68, 61
2,26768, Note_on_c, 0, 52, 0
2,26770, Note_on_c, 0, 53, 67
2,26823, Note_on_c, 0, 53, 0
2,26849, Note_on_c, 0, 68, 0
2,26861, Note_on_c, 0, 70, 64
2,26862, Note_on_c, 0, 55, 64
2,26908, Note_on_c, 0, 70, 0
2,26926, Note_on_c, 0, 55, 0
2,26945, Note_on_c, 0, 52, 68
2,26951, Note_on_c, 0, 67, 73
2,27006, Note_on_c, 0, 67, 0
2,27022, Note_on_c, 0, 52, 0
2,27045, Note_on_c, 0, 79, 84
2,27051, Note_on_c, 0, 48, 70
2,27137, Note_on_c, 0, 50, 63
2,27141, Note_on_c, 0, 70, 68
2,27144, Note_on_c, 0, 48, 0
2,27207, Note_on_c, 0, 50, 0
2,27211, Note_on_c, 0, 70, 0
2,27226, Note_on_c, 0, 52, 64
2,27234, Note_on_c, 0, 72, 60
2,27297, Note_on_c, 0, 52, 0
2,27300, Note_on_c, 0, 79, 0
2,27305, Note_on_c, 0, 48, 68
2,27305, Note_on_c, 0, 72, 0
2,27312, Note_on_c, 0, 67, 49
2,27319, Note_on_c, 0, 79, 26
2,27329, Note_on_c, 0, 48, 0
2,27335, Note_on_c, 0, 67, 0
2,27418, Note_on_c, 0, 68, 80
2,27431, Note_on_c, 0, 41, 51
2,27443, Note_on_c, 0, 43, 49
2,27450, Note_on_c, 0, 79, 0
2,27506, Note_on_c, 0, 43, 0
2,27506, Note_on_c, 0, 43, 15
2,27510, Note_on_c, 0, 68, 0
2,27513, Note_on_c, 0, 76, 68
2,27522, Note_on_c, 0, 41, 0
2,27590, Note_on_c, 0, 44, 66
2,27590, Note_on_c, 0, 77, 74
2,27596, Note_on_c, 0, 43, 0
2,27614, Note_on_c, 0, 76, 0
2,27674, Note_on_c, 0, 77, 0
2,27688, Note_on_c, 0, 46, 68
2,27697, Note_on_c, 0, 73, 67
2,27712, Note_on_c, 0, 44, 0
2,27791, Note_on_c, 0, 48, 66
2,27792, Note_on_c, 0, 46, 0
2,27794, Note_on_c, 0, 70, 69
2,27798, Note_on_c, 0, 73, 0
2,27851, Note_on_c, 0, 48, 0
2,27892, Note_on_c, 0, 50, 63
2,27969, Note_on_c, 0, 50, 0
2,27976, Note_on_c, 0, 52, 75
2,27976, Note_on_c, 0, 60, 67
2,28020, Note_on_c, 0, 60, 0
2,28042, Note_on_c, 0, 52, 0
2,28070, Note_on_c, 0, 48, 64
2,28164, Note_on_c, 0, 61, 69
2,28172, Note_on_c, 0, 48, 0
2,28180, Note_on_c, 0, 53, 63
2,28186, Note_on_c, 0, 70, 0
2,28237, Note_on_c, 0, 61, 0
2,28241, Note_on_c, 0, 53, 0
2,28251, Note_on_c, 0, 60, 67
2,28256, Note_on_c, 0, 51, 67
2,28332, Note_on_c, 0, 60, 0
2,28341, Note_on_c, 0, 51, 0
2,28350, Note_on_c, 0, 49, 66
2,28353, Note_on_c, 0, 58, 65
2,28410, Note_on_c, 0, 58, 0
2,28433, Note_on_c, 0, 60, 66
2,28441, Note_on_c, 0, 51, 65
2,28457, Note_on_c, 0, 49, 0
2,28497, Note_on_c, 0, 60, 0
2,28511, Note_on_c, 0, 51, 0
2,28537, Note_on_c, 0, 68, 84
2,28542, Note_on_c, 0, 53, 65
2,28606, Note_on_c, 0, 53, 0
2,28626, Note_on_c, 0, 51, 73
2,28728, Note_on_c, 0, 49, 64
2,28736, Note_on_c, 0, 51, 0
2,28742, Note_on_c, 0, 65, 69
2,28801, Note_on_c, 0, 65, 0
2,28806, Note_on_c, 0, 49, 0
2,28820, Note_on_c, 0, 48, 67
2,28938, Note_on_c, 0, 49, 68
2,28942, Note_on_c, 0, 60, 73
2,28944, Note_on_c, 0, 48, 0
2,29057, Note_on_c, 0, 60, 0
2,29145, Note_on_c, 0, 58, 64
2,29160, Note_on_c, 0, 68, 0
2,29205, Note_on_c, 0, 58, 0
2,29228, Note_on_c, 0, 56, 74
2,29279, Note_on_c, 0, 56, 0
2,29329, Note_on_c, 0, 58, 76
2,29329, Note_on_c, 0, 67, 76
2,29388, Note_on_c, 0, 67, 0
2,29395, Note_on_c, 0, 49, 0
2,29423, Note_on_c, 0, 48, 54
2,29491, Note_on_c, 0, 48, 0
2,29514, Note_on_c, 0, 46, 60
2,29522, Note_on_c, 0, 58, 0
2,29532, Note_on_c, 0, 67, 76
2,29595, Note_on_c, 0, 49, 61
2,29609, Note_on_c, 0, 46, 0
2,29675, Note_on_c, 0, 49, 0
2,29688, Note_on_c, 0, 67, 0
2,29705, Note_on_c, 0, 48, 66
2,29720, Note_on_c, 0, 56, 72
2,29751, Note_on_c, 0, 56, 0
2,29767, Note_on_c, 0, 48, 0
2,29795, Note_on_c, 0, 46, 63
2,29890, Note_on_c, 0, 46, 0
2,29898, Note_on_c, 0, 44, 61
2,29921, Note_on_c, 0, 65, 67
2,29960, Note_on_c, 0, 65, 0
2,29977, Note_on_c, 0, 44, 0
2,29997, Note_on_c, 0, 48, 67
2,30056, Note_on_c, 0, 48, 0
2,30104, Note_on_c, 0, 46, 69
2,30113, Note_on_c, 0, 64, 68
2,30117, Note_on_c, 0, 55, 62
2,30150, Note_on_c, 0, 55, 0
2,30177, Note_on_c, 0, 64, 0
2,30190, Note_on_c, 0, 46, 0
2,30201, Note_on_c, 0, 44, 63
2,30301, Note_on_c, 0, 44, 0
2,30309, Note_on_c, 0, 64, 61
2,30311, Note_on_c, 0, 46, 66
2,30311, Note_on_c, 0, 67, 65
2,30345, Note_on_c, 0, 64, 0
2,30363, Note_on_c, 0, 67, 0
2,30372, Note_on_c, 0, 46, 0
2,30390, Note_on_c, 0, 43, 62
2,30514, Note_on_c, 0, 44, 54
2,30522, Note_on_c, 0, 53, 59
2,30527, Note_on_c, 0, 72, 68
2,30531, Note_on_c, 0, 43, 0
2,30604, Note_on_c, 0, 44, 0
2,30612, Note_on_c, 0, 70, 66
2,30616, Note_on_c, 0, 72, 0
2,30714, Note_on_c, 0, 70, 0
2,30722, Note_on_c, 0, 68, 72
2,30724, Note_on_c, 0, 49, 58
2,30780, Note_on_c, 0, 49, 0
2,30795, Note_on_c, 0, 68, 0
2,30802, Note_on_c, 0, 72, 67
2,30894, Note_on_c, 0, 53, 0
2,30911, Note_on_c, 0, 70, 72
2,30917, Note_on_c, 0, 43, 60
2,30929, Note_on_c, 0, 72, 0
2,30989, Note_on_c, 0, 68, 73
2,30994, Note_on_c, 0, 43, 0
2,31005, Note_on_c, 0, 70, 0
2,31073, Note_on_c, 0, 68, 0
2,31099, Note_on_c, 0, 67, 67
2,31100, Note_on_c, 0, 52, 60
2,31109, Note_on_c, 0, 48, 56
2,31139, Note_on_c, 0, 52, 0
2,31150, Note_on_c, 0, 48, 0
2,31175, Note_on_c, 0, 67, 0
2,31183, Note_on_c, 0, 70, 69
2,31287, Note_on_c, 0, 53, 74
2,31293, Note_on_c, 0, 41, 69
2,31294, Note_on_c, 0, 68, 74
2,31311, Note_on_c, 0, 70, 0
2,31332, Note_on_c, 0, 41, 0
2,31349, Note_on_c, 0, 53, 0
2,31374, Note_on_c, 0, 68, 0
2,31381, Note_on_c, 0, 65, 70
2,31441, Note_on_c, 0, 65, 0
2,31487, Note_on_c, 0, 73, 71
2,31494, Note_on_c, 0, 52, 72
2,31507, Note_on_c, 0, 46, 64
2,31575, Note_on_c, 0, 46, 0
2,31575, Note_on_c, 0, 70, 71
2,31579, Note_on_c, 0, 52, 0
2,31598, Note_on_c, 0, 73, 0
2,31681, Note_on_c, 0, 70, 0
2,31683, Note_on_c, 0, 72, 72
2,31684, Note_on_c, 0, 53, 69
2,31686, Note_on_c, 0, 44, 69
2,31727, Note_on_c, 0, 53, 0
2,31730, Note_on_c, 0, 44, 0
2,31744, Note_on_c, 0, 72, 0
2,31758, Note_on_c, 0, 68, 80
2,31824, Note_on_c, 0, 68, 0
2,31867, Note_on_c, 0, 78, 76
2,31874, Note_on_c, 0, 58, 70
2,31877, Note_on_c, 0, 49, 56
2,31929, Note_on_c, 0, 78, 0
2,31933, Note_on_c, 0, 58, 0
2,31961, Note_on_c, 0, 76, 75
2,31980, Note_on_c, 0, 49, 0
2,32011, Note_on_c, 0, 76, 0
2,32063, Note_on_c, 0, 76, 68
2,32068, Note_on_c, 0, 56, 70
2,32083, Note_on_c, 0, 48, 55
2,32144, Note_on_c, 0, 76, 0
2,32147, Note_on_c, 0, 77, 78
2,32178, Note_on_c, 0, 56, 0
2,32253, Note_on_c, 0, 77, 0
2,32255, Note_on_c, 0, 55, 64
2,32257, Note_on_c, 0, 83, 66
2,32328, Note_on_c, 0, 83, 0
2,32331, Note_on_c, 0, 55, 0
2,32332, Note_on_c, 0, 53, 66
2,32338, Note_on_c, 0, 84, 67
2,32384, Note_on_c, 0, 84, 0
2,32429, Note_on_c, 0, 76, 66
2,32442, Note_on_c, 0, 55, 64
2,32452, Note_on_c, 0, 76, 0
2,32459, Note_on_c, 0, 53, 0
2,32463, Note_on_c, 0, 77, 68
2,32503, Note_on_c, 0, 77, 0
2,32522, Note_on_c, 0, 76, 74
2,32554, Note_on_c, 0, 48, 0
2,32570, Note_on_c, 0, 76, 0
2,32574, Note_on_c, 0, 77, 63
2,32611, Note_on_c, 0, 77, 0
2,32634, Note_on_c, 0, 76, 69
2,32640, Note_on_c, 0, 55, 0
2,32662, Note_on_c, 0, 58, 58
2,32694, Note_on_c, 0, 76, 0
2,32698, Note_on_c, 0, 58, 0
2,32736, Note_on_c, 0, 77, 81
2,32765, Note_on_c, 0, 77, 0
2,32843, Note_on_c, 0, 77, 79
2,32864, Note_on_c, 0, 56, 51
2,32868, Note_on_c, 0, 53, 29
2,32959, Note_on_c, 0, 58, 56
2,32968, Note_on_c, 0, 56, 0
2,32983, Note_on_c, 0, 53, 0
2,33028, Note_on_c, 0, 58, 0
2,33056, Note_on_c, 0, 60, 58
2,33094, Note_on_c, 0, 60, 0
2,33134, Note_on_c, 0, 56, 65
2,33204, Note_on_c, 0, 56, 0
2,33235, Note_on_c, 0, 53, 66
2,33287, Note_on_c, 0, 77, 0
2,33317, Note_on_c, 0, 53, 0
2,33320, Note_on_c, 0, 54, 69
2,33390, Note_on_c, 0, 54, 0
2,33425, Note_on_c, 0, 77, 75
2,33431, Note_on_c, 0, 56, 59
2,33479, Note_on_c, 0, 56, 0
2,33481, Note_on_c, 0, 77, 0
2,33507, Note_on_c, 0, 53, 61
2,33581, Note_on_c, 0, 53, 0
2,33605, Note_on_c, 0, 50, 61
2,33615, Note_on_c, 0, 71, 74
2,33695, Note_on_c, 0, 71, 0
2,33702, Note_on_c, 0, 70, 72
2,33703, Note_on_c, 0, 51, 62
2,33705, Note_on_c, 0, 50, 0
2,33751, Note_on_c, 0, 51, 0
2,33762, Note_on_c, 0, 70, 0
2,33797, Note_on_c, 0, 53, 63
2,33802, Note_on_c, 0, 68, 75
2,33835, Note_on_c, 0, 53, 0
2,33876, Note_on_c, 0, 68, 0
2,33878, Note_on_c, 0, 50, 64
2,33878, Note_on_c, 0, 70, 75
2,33911, Note_on_c, 0, 50, 0
2,33916, Note_on_c, 0, 70, 0
2,33990, Note_on_c, 0, 77, 82
2,33993, Note_on_c, 0, 46, 65
2,34056, Note_on_c, 0, 77, 0
2,34085, Note_on_c, 0, 50, 62
2,34126, Note_on_c, 0, 46, 0
2,34187, Note_on_c, 0, 53, 58
2,34190, Note_on_c, 0, 74, 76
2,34196, Note_on_c, 0, 50, 0
2,34237, Note_on_c, 0, 74, 0
2,34254, Note_on_c, 0, 53, 0
2,34276, Note_on_c, 0, 58, 66
2,34330, Note_on_c, 0, 58, 0
2,34390, Note_on_c, 0, 51, 61
2,34400, Note_on_c, 0, 68, 78
2,34468, Note_on_c, 0, 54, 60
2,34479, Note_on_c, 0, 51, 0
2,34573, Note_on_c, 0, 58, 61
2,34584, Note_on_c, 0, 66, 65
2,34589, Note_on_c, 0, 54, 0
2,34593, Note_on_c, 0, 68, 0
2,34637, Note_on_c, 0, 58, 0
2,34653, Note_on_c, 0, 66, 0
2,34661, Note_on_c, 0, 62, 65
2,34667, Note_on_c, 0, 65, 73
2,34711, Note_on_c, 0, 62, 0
2,34722, Note_on_c, 0, 65, 0
2,34769, Note_on_c, 0, 66, 80
2,34775, Note_on_c, 0, 63, 63
2,34814, Note_on_c, 0, 66, 0
2,34848, Note_on_c, 0, 63, 0
2,34863, Note_on_c, 0, 65, 43
2,34889, Note_on_c, 0, 64, 35
2,34919, Note_on_c, 0, 65, 0
2,34921, Note_on_c, 0, 64, 0
2,34953, Note_on_c, 0, 66, 70
2,34962, Note_on_c, 0, 75, 67
2,35003, Note_on_c, 0, 75, 0
2,35016, Note_on_c, 0, 66, 0
2,35044, Note_on_c, 0, 63, 66
2,35115, Note_on_c, 0, 63, 0
2,35145, Note_on_c, 0, 60, 61
2,35148, Note_on_c, 0, 69, 70
2,35227, Note_on_c, 0, 69, 0
2,35229, Note_on_c, 0, 60, 0
2,35232, Note_on_c, 0, 68, 72
2,35237, Note_on_c, 0, 61, 66
2,35280, Note_on_c, 0, 61, 0
2,35298, Note_on_c, 0, 68, 0
2,35328, Note_on_c, 0, 66, 75
2,35329, Note_on_c, 0, 63, 61
2,35375, Note_on_c, 0, 63, 0
2,35402, Note_on_c, 0, 60, 68
2,35413, Note_on_c, 0, 68, 76
2,35414, Note_on_c, 0, 66, 0
2,35428, Note_on_c, 0, 60, 0
2,35484, Note_on_c, 0, 68, 0
2,35527, Note_on_c, 0, 75, 74
2,35534, Note_on_c, 0, 56, 68
2,35598, Note_on_c, 0, 44, 63
2,35616, Note_on_c, 0, 75, 0
2,35709, Note_on_c, 0, 46, 64
2,35711, Note_on_c, 0, 44, 0
2,35715, Note_on_c, 0, 72, 75
2,35777, Note_on_c, 0, 72, 0
2,35792, Note_on_c, 0, 48, 64
2,35820, Note_on_c, 0, 46, 0
2,35828, Note_on_c, 0, 48, 0
2,35830, Note_on_c, 0, 56, 0
2,35830, Note_on_c, 0, 56, 28
2,35885, Note_on_c, 0, 56, 0
2,35922, Note_on_c, 0, 49, 72
2,35925, Note_on_c, 0, 66, 73
2,36008, Note_on_c, 0, 56, 61
2,36016, Note_on_c, 0, 49, 0
2,36073, Note_on_c, 0, 66, 0
2,36094, Note_on_c, 0, 65, 72
2,36113, Note_on_c, 0, 58, 67
2,36114, Note_on_c, 0, 56, 0
2,36174, Note_on_c, 0, 58, 0
2,36183, Note_on_c, 0, 65, 0
2,36190, Note_on_c, 0, 63, 75
2,36208, Note_on_c, 0, 60, 70
2,36246, Note_on_c, 0, 60, 0
2,36260, Note_on_c, 0, 63, 0
2,36291, Note_on_c, 0, 65, 74
2,36295, Note_on_c, 0, 61, 63
2,36316, Note_on_c, 0, 61, 0
2,36349, Note_on_c, 0, 65, 0
2,36383, Note_on_c, 0, 68, 75
2,36399, Note_on_c, 0, 51, 64
2,36472, Note_on_c, 0, 53, 65
2,36483, Note_on_c, 0, 51, 0
2,36483, Note_on_c, 0, 73, 69
2,36484, Note_on_c, 0, 68, 0
2,36559, Note_on_c, 0, 53, 0
2,36561, Note_on_c, 0, 55, 70
2,36568, Note_on_c, 0, 75, 72
2,36569, Note_on_c, 0, 73, 0
2,36636, Note_on_c, 0, 75, 0
2,36649, Note_on_c, 0, 55, 0
2,36661, Note_on_c, 0, 56, 70
2,36664, Note_on_c, 0, 77, 79
2,36738, Note_on_c, 0, 56, 0
2,36755, Note_on_c, 0, 75, 74
2,36755, Note_on_c, 0, 77, 0
2,36758, Note_on_c, 0, 55, 65
2,36833, Note_on_c, 0, 75, 0
2,36848, Note_on_c, 0, 55, 0
2,36855, Note_on_c, 0, 73, 64
2,36857, Note_on_c, 0, 53, 68
2,36933, Note_on_c, 0, 73, 0
2,36933, Note_on_c, 0, 75, 69
2,36937, Note_on_c, 0, 55, 67
2,36939, Note_on_c, 0, 53, 0
2,36959, Note_on_c, 0, 75, 0
2,37013, Note_on_c, 0, 55, 0
2,37038, Note_on_c, 0, 56, 70
2,37041, Note_on_c, 0, 84, 79
2,37045, Note_on_c, 0, 72, 77
2,37083, Note_on_c, 0, 84, 0
2,37104, Note_on_c, 0, 56, 0
2,37124, Note_on_c, 0, 55, 65
2,37142, Note_on_c, 0, 72, 0
2,37142, Note_on_c, 0, 72, 25
2,37224, Note_on_c, 0, 55, 0
2,37233, Note_on_c, 0, 53, 60
2,37245, Note_on_c, 0, 80, 78
2,37273, Note_on_c, 0, 80, 0
2,37315, Note_on_c, 0, 53, 0
2,37316, Note_on_c, 0, 51, 63
2,37407, Note_on_c, 0, 51, 0
2,37441, Note_on_c, 0, 53, 74
2,37441, Note_on_c, 0, 75, 76
2,37471, Note_on_c, 0, 72, 0
2,37646, Note_on_c, 0, 75, 0
2,37647, Note_on_c, 0, 73, 70
2,37727, Note_on_c, 0, 73, 0
2,37732, Note_on_c, 0, 72, 76
2,37808, Note_on_c, 0, 72, 0
2,37839, Note_on_c, 0, 70, 70
2,37841, Note_on_c, 0, 73, 72
2,37874, Note_on_c, 0, 73, 0
2,37887, Note_on_c, 0, 53, 0
2,37916, Note_on_c, 0, 51, 62
2,38008, Note_on_c, 0, 51, 0
2,38012, Note_on_c, 0, 49, 67
2,38027, Note_on_c, 0, 82, 70
2,38055, Note_on_c, 0, 82, 0
2,38075, Note_on_c, 0, 49, 0
2,38078, Note_on_c, 0, 70, 0
2,38102, Note_on_c, 0, 53, 65
2,38165, Note_on_c, 0, 53, 0
2,38202, Note_on_c, 0, 51, 65
2,38209, Note_on_c, 0, 72, 81
2,38248, Note_on_c, 0, 72, 0
2,38289, Note_on_c, 0, 49, 56
2,38310, Note_on_c, 0, 51, 0
2,38394, Note_on_c, 0, 49, 0
2,38397, Note_on_c, 0, 48, 60
2,38405, Note_on_c, 0, 80, 79
2,38407, Note_on_c, 0, 68, 76
2,38430, Note_on_c, 0, 68, 0
2,38439, Note_on_c, 0, 80, 0
2,38479, Note_on_c, 0, 48, 0
2,38488, Note_on_c, 0, 51, 55
2,38570, Note_on_c, 0, 51, 0
2,38580, Note_on_c, 0, 49, 61
2,38594, Note_on_c, 0, 70, 76
2,38595, Note_on_c, 0, 67, 67
2,38620, Note_on_c, 0, 70, 0
2,38622, Note_on_c, 0, 67, 0
2,38657, Note_on_c, 0, 49, 0
2,38662, Note_on_c, 0, 48, 56
2,38745, Note_on_c, 0, 48, 0
2,38761, Note_on_c, 0, 46, 66
2,38775, Note_on_c, 0, 70, 77
2,38779, Note_on_c, 0, 79, 63
2,38798, Note_on_c, 0, 79, 0
2,38803, Note_on_c, 0, 70, 0
2,38863, Note_on_c, 0, 49, 70
2,38864, Note_on_c, 0, 46, 0
2,38962, Note_on_c, 0, 49, 0
2,38965, Note_on_c, 0, 48, 76
2,38967, Note_on_c, 0, 68, 67
2,38982, Note_on_c, 0, 63, 49
2,38995, Note_on_c, 0, 48, 0
2,39034, Note_on_c, 0, 63, 0
2,39044, Note_on_c, 0, 63, 58
2,39058, Note_on_c, 0, 68, 0
2,39112, Note_on_c, 0, 63, 0
2,39163, Note_on_c, 0, 65, 70
2,39166, Note_on_c, 0, 51, 79
2,39207, Note_on_c, 0, 51, 0
2,39230, Note_on_c, 0, 65, 0
2,39254, Note_on_c, 0, 67, 71
2,39328, Note_on_c, 0, 67, 0
2,39365, Note_on_c, 0, 68, 73
2,39367, Note_on_c, 0, 54, 77
2,39439, Note_on_c, 0, 68, 0
2,39446, Note_on_c, 0, 70, 65
2,39533, Note_on_c, 0, 70, 0
2,39540, Note_on_c, 0, 56, 69
2,39545, Note_on_c, 0, 72, 66
2,39585, Note_on_c, 0, 56, 0
2,39595, Note_on_c, 0, 72, 0
2,39625, Note_on_c, 0, 68, 68
2,39688, Note_on_c, 0, 68, 0
2,39723, Note_on_c, 0, 58, 76
2,39727, Note_on_c, 0, 73, 70
2,39729, Note_on_c, 0, 54, 0
2,39808, Note_on_c, 0, 72, 68
2,39816, Note_on_c, 0, 73, 0
2,39817, Note_on_c, 0, 56, 71
2,39839, Note_on_c, 0, 58, 0
2,39885, Note_on_c, 0, 56, 0
2,39894, Note_on_c, 0, 72, 0
2,39907, Note_on_c, 0, 54, 64
2,39912, Note_on_c, 0, 70, 73
2,39988, Note_on_c, 0, 56, 68
2,39999, Note_on_c, 0, 70, 0
2,40001, Note_on_c, 0, 72, 70
2,40010, Note_on_c, 0, 54, 0
2,40025, Note_on_c, 0, 56, 0
2,40061, Note_on_c, 0, 72, 0
2,40104, Note_on_c, 0, 73, 69
2,40107, Note_on_c, 0, 65, 82
2,40120, Note_on_c, 0, 53, 61
2,40152, Note_on_c, 0, 65, 0
2,40196, Note_on_c, 0, 72, 69
2,40199, Note_on_c, 0, 73, 0
2,40297, Note_on_c, 0, 72, 0
2,40300, Note_on_c, 0, 70, 64
2,40305, Note_on_c, 0, 61, 54
2,40331, Note_on_c, 0, 61, 0
2,40356, Note_on_c, 0, 70, 0
2,40383, Note_on_c, 0, 68, 73
2,40458, Note_on_c, 0, 68, 0
2,40492, Note_on_c, 0, 53, 0
2,40492, Note_on_c, 0, 70, 67
2,40495, Note_on_c, 0, 56, 74
2,40715, Note_on_c, 0, 56, 0
2,40728, Note_on_c, 0, 54, 62
2,40789, Note_on_c, 0, 54, 0
2,40795, Note_on_c, 0, 53, 59
2,40911, Note_on_c, 0, 54, 67
2,40919, Note_on_c, 0, 53, 0
2,40923, Note_on_c, 0, 51, 55
2,40960, Note_on_c, 0, 54, 0
2,40994, Note_on_c, 0, 68, 68
2,40994, Note_on_c, 0, 70, 0
2,41089, Note_on_c, 0, 68, 0
2,41093, Note_on_c, 0, 66, 73
2,41100, Note_on_c, 0, 63, 63
2,41129, Note_on_c, 0, 63, 0
2,41160, Note_on_c, 0, 66, 0
2,41176, Note_on_c, 0, 70, 64
2,41231, Note_on_c, 0, 70, 0
2,41269, Note_on_c, 0, 51, 0
2,41280, Note_on_c, 0, 68, 70
2,41284, Note_on_c, 0, 53, 67
2,41364, Note_on_c, 0, 66, 68
2,41370, Note_on_c, 0, 68, 0
2,41443, Note_on_c, 0, 66, 0
2,41480, Note_on_c, 0, 61, 54
2,41480, Note_on_c, 0, 65, 64
2,41485, Note_on_c, 0, 49, 66
2,41501, Note_on_c, 0, 61, 0
2,41524, Note_on_c, 0, 65, 0
2,41538, Note_on_c, 0, 53, 0
2,41564, Note_on_c, 0, 68, 69
2,41643, Note_on_c, 0, 49, 0
2,41648, Note_on_c, 0, 68, 0
2,41665, Note_on_c, 0, 66, 63
2,41680, Note_on_c, 0, 51, 67
2,41755, Note_on_c, 0, 65, 67
2,41758, Note_on_c, 0, 66, 0
2,41805, Note_on_c, 0, 51, 0
2,41846, Note_on_c, 0, 65, 0
2,41850, Note_on_c, 0, 44, 65
2,41850, Note_on_c, 0, 60, 59
2,41856, Note_on_c, 0, 63, 62
2,41894, Note_on_c, 0, 44, 0
2,41904, Note_on_c, 0, 60, 0
2,41931, Note_on_c, 0, 66, 64
2,41940, Note_on_c, 0, 63, 0
2,42001, Note_on_c, 0, 66, 0
2,42042, Note_on_c, 0, 49, 57
2,42045, Note_on_c, 0, 61, 70
2,42063, Note_on_c, 0, 65, 48
2,42071, Note_on_c, 0, 64, 47
2,42097, Note_on_c, 0, 64, 0
2,42104, Note_on_c, 0, 65, 0
2,42135, Note_on_c, 0, 51, 64
2,42140, Note_on_c, 0, 49, 0
2,42198, Note_on_c, 0, 51, 0
2,42240, Note_on_c, 0, 53, 62
2,42241, Note_on_c, 0, 68, 76
2,42247, Note_on_c, 0, 61, 0
2,42280, Note_on_c, 0, 53, 0
2,42295, Note_on_c, 0, 68, 0
2,42332, Note_on_c, 0, 54, 65
2,42410, Note_on_c, 0, 54, 0
2,42446, Note_on_c, 0, 73, 79
2,42447, Note_on_c, 0, 53, 57
2,42521, Note_on_c, 0, 53, 0
2,42537, Note_on_c, 0, 51, 62
2,42631, Note_on_c, 0, 51, 0
2,42633, Note_on_c, 0, 73, 0
2,42636, Note_on_c, 0, 49, 69
2,42642, Note_on_c, 0, 80, 72
2,42685, Note_on_c, 0, 49, 0
2,42717, Note_on_c, 0, 53, 66
2,42721, Note_on_c, 0, 77, 74
2,42734, Note_on_c, 0, 80, 0
2,42762, Note_on_c, 0, 53, 0
2,42820, Note_on_c, 0, 77, 0
2,42824, Note_on_c, 0, 73, 79
2,42831, Note_on_c, 0, 58, 69
2,42920, Note_on_c, 0, 56, 61
2,42948, Note_on_c, 0, 58, 0
2,43009, Note_on_c, 0, 56, 0
2,43013, Note_on_c, 0, 73, 0
2,43016, Note_on_c, 0, 55, 63
2,43033, Note_on_c, 0, 76, 69
2,43105, Note_on_c, 0, 55, 0
2,43110, Note_on_c, 0, 58, 61
2,43110, Note_on_c, 0, 73, 79
2,43119, Note_on_c, 0, 76, 0
2,43178, Note_on_c, 0, 73, 0
2,43182, Note_on_c, 0, 58, 0
2,43204, Note_on_c, 0, 70, 83
2,43207, Note_on_c, 0, 61, 63
2,43276, Note_on_c, 0, 61, 0
2,43295, Note_on_c, 0, 59, 57
2,43365, Note_on_c, 0, 70, 0
2,43372, Note_on_c, 0, 59, 0
2,43388, Note_on_c, 0, 58, 63
2,43388, Note_on_c, 0, 73, 66
2,43473, Note_on_c, 0, 70, 73
2,43483, Note_on_c, 0, 73, 0
2,43486, Note_on_c, 0, 61, 69
2,43491, Note_on_c, 0, 58, 0
2,43547, Note_on_c, 0, 70, 0
2,43574, Note_on_c, 0, 61, 0
2,43580, Note_on_c, 0, 67, 78
2,43600, Note_on_c, 0, 64, 71
2,43755, Note_on_c, 0, 64, 0
2,43788, Note_on_c, 0, 63, 64
2,43800, Note_on_c, 0, 70, 66
2,43871, Note_on_c, 0, 63, 0
2,43874, Note_on_c, 0, 70, 0
2,43875, Note_on_c, 0, 73, 70
2,43877, Note_on_c, 0, 61, 63
2,43922, Note_on_c, 0, 61, 0
2,43956, Note_on_c, 0, 73, 0
2,43979, Note_on_c, 0, 59, 62
2,43979, Note_on_c, 0, 76, 77
2,43994, Note_on_c, 0, 67, 0
2,43994, Note_on_c, 0, 67, 22
2,44039, Note_on_c, 0, 59, 0
2,44060, Note_on_c, 0, 58, 63
2,44164, Note_on_c, 0, 56, 57
2,44172, Note_on_c, 0, 58, 0
2,44180, Note_on_c, 0, 73, 69
2,44190, Note_on_c, 0, 67, 0
2,44200, Note_on_c, 0, 76, 0
2,44224, Note_on_c, 0, 73, 0
2,44234, Note_on_c, 0, 56, 0
2,44247, Note_on_c, 0, 55, 56
2,44358, Note_on_c, 0, 75, 78
2,44362, Note_on_c, 0, 56, 62
2,44364, Note_on_c, 0, 71, 72
2,44373, Note_on_c, 0, 55, 0
2,44437, Note_on_c, 0, 56, 0
2,44445, Note_on_c, 0, 75, 0
2,44459, Note_on_c, 0, 59, 62
2,44550, Note_on_c, 0, 59, 0
2,44560, Note_on_c, 0, 80, 77
2,44579, Note_on_c, 0, 71, 0
2,44589, Note_on_c, 0, 57, 49
2,44632, Note_on_c, 0, 57, 0
2,44642, Note_on_c, 0, 80, 0
2,44660, Note_on_c, 0, 56, 51
2,44689, Note_on_c, 0, 56, 0
2,44744, Note_on_c, 0, 73, 72
2,44746, Note_on_c, 0, 55, 64
2,44751, Note_on_c, 0, 70, 69
2,44831, Note_on_c, 0, 55, 0
2,44840, Note_on_c, 0, 52, 69
2,44850, Note_on_c, 0, 70, 0
2,44875, Note_on_c, 0, 73, 0
2,44927, Note_on_c, 0, 52, 0
2,44932, Note_on_c, 0, 51, 61
2,44957, Note_on_c, 0, 79, 74
2,45000, Note_on_c, 0, 79, 0
2,45025, Note_on_c, 0, 51, 0
2,45032, Note_on_c, 0, 49, 60
2,45116, Note_on_c, 0, 49, 0
2,45130, Note_on_c, 0, 47, 64
2,45134, Note_on_c, 0, 68, 77
2,45173, Note_on_c, 0, 68, 0
2,45201, Note_on_c, 0, 47, 0
2,45214, Note_on_c, 0, 49, 60
2,45263, Note_on_c, 0, 49, 0
2,45321, Note_on_c, 0, 51, 65
2,45336, Note_on_c, 0, 80, 60
2,45362, Note_on_c, 0, 80, 0
2,45389, Note_on_c, 0, 51, 0
2,45415, Note_on_c, 0, 79, 65
2,45417, Note_on_c, 0, 47, 59
2,45465, Note_on_c, 0, 79, 0
2,45490, Note_on_c, 0, 47, 0
2,45506, Note_on_c, 0, 44, 69
2,45510, Note_on_c, 0, 80, 74
2,45539, Note_on_c, 0, 44, 0
2,45582, Note_on_c, 0, 80, 0
2,45590, Note_on_c, 0, 82, 72
2,45651, Note_on_c, 0, 82, 0
2,45685, Note_on_c, 0, 83, 64
2,45688, Note_on_c, 0, 56, 62
2,45733, Note_on_c, 0, 56, 0
2,45769, Note_on_c, 0, 53, 62
2,45770, Note_on_c, 0, 80, 73
2,45828, Note_on_c, 0, 80, 0
2,45831, Note_on_c, 0, 83, 0
2,45841, Note_on_c, 0, 53, 0
2,45880, Note_on_c, 0, 49, 63
2,45881, Note_on_c, 0, 77, 68
2,45906, Note_on_c, 0, 49, 0
2,45951, Note_on_c, 0, 77, 0
2,45957, Note_on_c, 0, 78, 70
2,46018, Note_on_c, 0, 78, 0
2,46059, Note_on_c, 0, 80, 66
2,46060, Note_on_c, 0, 59, 65
2,46105, Note_on_c, 0, 80, 0
2,46116, Note_on_c, 0, 59, 0
2,46135, Note_on_c, 0, 77, 70
2,46146, Note_on_c, 0, 56, 63
2,46186, Note_on_c, 0, 77, 0
2,46239, Note_on_c, 0, 53, 76
2,46239, Note_on_c, 0, 73, 74
2,46241, Note_on_c, 0, 56, 0
2,46267, Note_on_c, 0, 53, 0
2,46321, Note_on_c, 0, 73, 0
2,46321, Note_on_c, 0, 75, 68
2,46390, Note_on_c, 0, 75, 0
2,46409, Note_on_c, 0, 49, 74
2,46418, Note_on_c, 0, 77, 62
2,46475, Note_on_c, 0, 49, 0
2,46494, Note_on_c, 0, 73, 68
2,46500, Note_on_c, 0, 46, 67
2,46505, Note_on_c, 0, 77, 0
2,46552, Note_on_c, 0, 73, 0
2,46559, Note_on_c, 0, 46, 0
2,46596, Note_on_c, 0, 42, 74
2,46596, Note_on_c, 0, 70, 81
2,46620, Note_on_c, 0, 42, 0
2,46674, Note_on_c, 0, 70, 0
2,46682, Note_on_c, 0, 72, 71
2,46759, Note_on_c, 0, 72, 0
2,46775, Note_on_c, 0, 58, 66
2,46778, Note_on_c, 0, 73, 65
2,46823, Note_on_c, 0, 58, 0
2,46826, Note_on_c, 0, 73, 0
2,46867, Note_on_c, 0, 70, 67
2,46878, Note_on_c, 0, 54, 61
2,46910, Note_on_c, 0, 70, 0
2,46946, Note_on_c, 0, 54, 0
2,46969, Note_on_c, 0, 51, 69
2,46973, Note_on_c, 0, 78, 72
2,46999, Note_on_c, 0, 51, 0
2,47041, Note_on_c, 0, 78, 0
2,47048, Note_on_c, 0, 80, 70
2,47109, Note_on_c, 0, 80, 0
2,47143, Note_on_c, 0, 54, 65
2,47148, Note_on_c, 0, 82, 64
2,47185, Note_on_c, 0, 54, 0
2,47227, Note_on_c, 0, 51, 62
2,47227, Note_on_c, 0, 82, 0
2,47228, Note_on_c, 0, 78, 69
2,47264, Note_on_c, 0, 51, 0
2,47285, Note_on_c, 0, 78, 0
2,47329, Note_on_c, 0, 48, 68
2,47330, Note_on_c, 0, 75, 74
2,47359, Note_on_c, 0, 48, 0
2,47398, Note_on_c, 0, 75, 0
2,47405, Note_on_c, 0, 77, 70
2,47485, Note_on_c, 0, 77, 0
2,47505, Note_on_c, 0, 78, 66
2,47506, Note_on_c, 0, 58, 66
2,47544, Note_on_c, 0, 78, 0
2,47559, Note_on_c, 0, 58, 0
2,47587, Note_on_c, 0, 75, 64
2,47603, Note_on_c, 0, 54, 65
2,47617, Note_on_c, 0, 75, 0
2,47690, Note_on_c, 0, 54, 0
2,47690, Note_on_c, 0, 72, 75
2,47691, Note_on_c, 0, 51, 67
2,47720, Note_on_c, 0, 51, 0
2,47748, Note_on_c, 0, 72, 0
2,47773, Note_on_c, 0, 73, 73
2,47840, Note_on_c, 0, 73, 0
2,47865, Note_on_c, 0, 48, 68
2,47879, Note_on_c, 0, 75, 54
2,47910, Note_on_c, 0, 48, 0
2,47937, Note_on_c, 0, 72, 67
2,47942, Note_on_c, 0, 44, 69
2,47959, Note_on_c, 0, 75, 0
2,47982, Note_on_c, 0, 72, 0
2,48017, Note_on_c, 0, 44, 0
2,48043, Note_on_c, 0, 41, 79
2,48048, Note_on_c, 0, 68, 80
2,48078, Note_on_c, 0, 41, 0
2,48116, Note_on_c, 0, 68, 0
2,48124, Note_on_c, 0, 70, 64
2,48199, Note_on_c, 0, 70, 0
2,48224, Note_on_c, 0, 72, 57
2,48226, Note_on_c, 0, 56, 68
2,48259, Note_on_c, 0, 72, 0
2,48282, Note_on_c, 0, 68, 64
2,48289, Note_on_c, 0, 56, 0
2,48309, Note_on_c, 0, 53, 64
2,48311, Note_on_c, 0, 68, 0
2,48410, Note_on_c, 0, 77, 78
2,48415, Note_on_c, 0, 53, 0
2,48429, Note_on_c, 0, 50, 61
2,48457, Note_on_c, 0, 50, 0
2,48481, Note_on_c, 0, 77, 0
2,48497, Note_on_c, 0, 78, 71
2,48560, Note_on_c, 0, 78, 0
2,48598, Note_on_c, 0, 80, 68
2,48604, Note_on_c, 0, 53, 55
2,48645, Note_on_c, 0, 53, 0
2,48678, Note_on_c, 0, 77, 69
2,48681, Note_on_c, 0, 50, 63
2,48698, Note_on_c, 0, 80, 0
2,48723, Note_on_c, 0, 50, 0
2,48730, Note_on_c, 0, 77, 0
2,48775, Note_on_c, 0, 46, 72
2,48785, Note_on_c, 0, 74, 64
2,48804, Note_on_c, 0, 46, 0
2,48829, Note_on_c, 0, 74, 0
2,48863, Note_on_c, 0, 75, 70
2,48912, Note_on_c, 0, 75, 0
2,48943, Note_on_c, 0, 56, 67
2,48954, Note_on_c, 0, 77, 71
2,48983, Note_on_c, 0, 56, 0
2,49003, Note_on_c, 0, 77, 0
2,49036, Note_on_c, 0, 53, 60
2,49036, Note_on_c, 0, 74, 62
2,49067, Note_on_c, 0, 74, 0
2,49132, Note_on_c, 0, 53, 0
2,49139, Note_on_c, 0, 50, 66
2,49144, Note_on_c, 0, 70, 71
2,49168, Note_on_c, 0, 50, 0
2,49201, Note_on_c, 0, 70, 0
2,49219, Note_on_c, 0, 72, 61
2,49293, Note_on_c, 0, 72, 0
2,49301, Note_on_c, 0, 46, 75
2,49315, Note_on_c, 0, 74, 52
2,49350, Note_on_c, 0, 46, 0
2,49369, Note_on_c, 0, 74, 0
2,49389, Note_on_c, 0, 42, 68
2,49391, Note_on_c, 0, 70, 73
2,49436, Note_on_c, 0, 70, 0
2,49482, Note_on_c, 0, 42, 0
2,49485, Note_on_c, 0, 39, 71
2,49489, Note_on_c, 0, 66, 74
2,49511, Note_on_c, 0, 39, 0
2,49555, Note_on_c, 0, 66, 0
2,49567, Note_on_c, 0, 68, 70
2,49632, Note_on_c, 0, 68, 0
2,49652, Note_on_c, 0, 70, 59
2,49660, Note_on_c, 0, 54, 65
2,49687, Note_on_c, 0, 70, 0
2,49717, Note_on_c, 0, 54, 0
2,49725, Note_on_c, 0, 66, 69
2,49734, Note_on_c, 0, 51, 64
2,49760, Note_on_c, 0, 66, 0
2,49797, Note_on_c, 0, 51, 0
2,49832, Note_on_c, 0, 48, 67
2,49838, Note_on_c, 0, 75, 66
2,49861, Note_on_c, 0, 48, 0
2,49915, Note_on_c, 0, 75, 0
2,49925, Note_on_c, 0, 77, 62
2,49987, Note_on_c, 0, 77, 0
2,50004, Note_on_c, 0, 51, 66
2,50011, Note_on_c, 0, 78, 65
2,50052, Note_on_c, 0, 51, 0
2,50088, Note_on_c, 0, 48, 63
2,50096, Note_on_c, 0, 75, 66
2,50127, Note_on_c, 0, 78, 0
2,50135, Note_on_c, 0, 75, 0
2,50145, Note_on_c, 0, 48, 0
2,50191, Note_on_c, 0, 44, 69
2,50203, Note_on_c, 0, 72, 66
2,50217, Note_on_c, 0, 44, 0
2,50259, Note_on_c, 0, 72, 0
2,50280, Note_on_c, 0, 73, 63
2,50338, Note_on_c, 0, 73, 0
2,50368, Note_on_c, 0, 54, 62
2,50368, Note_on_c, 0, 75, 61
2,50405, Note_on_c, 0, 75, 0
2,50415, Note_on_c, 0, 54, 0
2,50440, Note_on_c, 0, 72, 69
2,50463, Note_on_c, 0, 51, 61
2,50489, Note_on_c, 0, 72, 0
2,50545, Note_on_c, 0, 68, 75
2,50548, Note_on_c, 0, 51, 0
2,50551, Note_on_c, 0, 48, 73
2,50579, Note_on_c, 0, 48, 0
2,50620, Note_on_c, 0, 68, 0
2,50620, Note_on_c, 0, 70, 72
2,50703, Note_on_c, 0, 70, 0
2,50733, Note_on_c, 0, 72, 59
2,50734, Note_on_c, 0, 44, 65
2,50790, Note_on_c, 0, 44, 0
2,50800, Note_on_c, 0, 72, 0
2,50814, Note_on_c, 0, 41, 62
2,50821, Note_on_c, 0, 68, 75
2,50883, Note_on_c, 0, 68, 0
2,50897, Note_on_c, 0, 41, 0
2,50923, Note_on_c, 0, 37, 73
2,50931, Note_on_c, 0, 65, 69
2,51011, Note_on_c, 0, 65, 0
2,51017, Note_on_c, 0, 66, 68
2,51056, Note_on_c, 0, 37, 0
2,51085, Note_on_c, 0, 66, 0
2,51111, Note_on_c, 0, 68, 60
2,51161, Note_on_c, 0, 68, 0
2,51200, Note_on_c, 0, 65, 65
2,51244, Note_on_c, 0, 65, 0
2,51298, Note_on_c, 0, 61, 61
2,51336, Note_on_c, 0, 61, 0
2,51374, Note_on_c, 0, 65, 60
2,51425, Note_on_c, 0, 65, 0
2,51483, Note_on_c, 0, 68, 68
2,51556, Note_on_c, 0, 68, 0
2,51571, Note_on_c, 0, 70, 72
2,51635, Note_on_c, 0, 70, 0
2,51677, Note_on_c, 0, 71, 54
2,51747, Note_on_c, 0, 70, 73
2,51763, Note_on_c, 0, 71, 0
2,51808, Note_on_c, 0, 59, 47
2,51818, Note_on_c, 0, 70, 0
2,51841, Note_on_c, 0, 68, 74
2,51848, Note_on_c, 0, 59, 0
2,51891, Note_on_c, 0, 49, 62
2,51923, Note_on_c, 0, 70, 80
2,51928, Note_on_c, 0, 68, 0
2,51954, Note_on_c, 0, 70, 0
2,51988, Note_on_c, 0, 49, 0
2,52017, Note_on_c, 0, 78, 84
2,52019, Note_on_c, 0, 58, 68
2,52058, Note_on_c, 0, 78, 0
2,52063, Note_on_c, 0, 58, 0
2,52103, Note_on_c, 0, 49, 65
2,52206, Note_on_c, 0, 49, 0
2,52218, Note_on_c, 0, 56, 73
2,52220, Note_on_c, 0, 73, 76
2,52267, Note_on_c, 0, 73, 0
2,52274, Note_on_c, 0, 56, 0
2,52307, Note_on_c, 0, 49, 67
2,52407, Note_on_c, 0, 49, 0
2,52417, Note_on_c, 0, 54, 73
2,52417, Note_on_c, 0, 70, 79
2,52466, Note_on_c, 0, 54, 0
2,52505, Note_on_c, 0, 49, 67
2,52609, Note_on_c, 0, 68, 64
2,52609, Note_on_c, 0, 70, 0
2,52622, Note_on_c, 0, 49, 0
2,52629, Note_on_c, 0, 53, 60
2,52680, Note_on_c, 0, 53, 0
2,52682, Note_on_c, 0, 68, 0
2,52688, Note_on_c, 0, 51, 70
2,52691, Note_on_c, 0, 66, 71
2,52778, Note_on_c, 0, 66, 0
2,52781, Note_on_c, 0, 51, 0
2,52794, Note_on_c, 0, 68, 74
2,52796, Note_on_c, 0, 53, 73
2,52837, Note_on_c, 0, 53, 0
2,52840, Note_on_c, 0, 68, 0
2,52868, Note_on_c, 0, 61, 71
2,52925, Note_on_c, 0, 61, 0
2,52983, Note_on_c, 0, 65, 71
2,52988, Note_on_c, 0, 44, 70
2,53025, Note_on_c, 0, 44, 0
2,53063, Note_on_c, 0, 65, 0
2,53063, Note_on_c, 0, 68, 73
2,53124, Note_on_c, 0, 68, 0
2,53163, Note_on_c, 0, 70, 67
2,53240, Note_on_c, 0, 68, 73
2,53264, Note_on_c, 0, 70, 0
2,53312, Note_on_c, 0, 68, 0
2,53338, Note_on_c, 0, 58, 68
2,53343, Note_on_c, 0, 66, 73
2,53377, Note_on_c, 0, 58, 0
2,53414, Note_on_c, 0, 49, 71
2,53418, Note_on_c, 0, 68, 78
2,53426, Note_on_c, 0, 66, 0
2,53456, Note_on_c, 0, 68, 0
2,53502, Note_on_c, 0, 49, 0
2,53525, Note_on_c, 0, 56, 74
2,53528, Note_on_c, 0, 77, 84
2,53570, Note_on_c, 0, 77, 0
2,53571, Note_on_c, 0, 56, 0
2,53612, Note_on_c, 0, 49, 68
2,53689, Note_on_c, 0, 49, 0
2,53716, Note_on_c, 0, 54, 72
2,53728, Note_on_c, 0, 73, 83
2,53772, Note_on_c, 0, 54, 0
2,53780, Note_on_c, 0, 73, 0
2,53811, Note_on_c, 0, 49, 62
2,53897, Note_on_c, 0, 49, 0
2,53926, Note_on_c, 0, 53, 66
2,53926, Note_on_c, 0, 68, 83
2,53982, Note_on_c, 0, 53, 0
2,54013, Note_on_c, 0, 49, 67
2,54096, Note_on_c, 0, 49, 0
2,54107, Note_on_c, 0, 51, 69
2,54109, Note_on_c, 0, 66, 72
2,54123, Note_on_c, 0, 68, 0
2,54180, Note_on_c, 0, 51, 0
2,54186, Note_on_c, 0, 66, 0
2,54191, Note_on_c, 0, 49, 65
2,54191, Note_on_c, 0, 65, 71
2,54257, Note_on_c, 0, 65, 0
2,54289, Note_on_c, 0, 51, 80
2,54292, Note_on_c, 0, 49, 0
2,54294, Note_on_c, 0, 66, 77
2,54321, Note_on_c, 0, 51, 0
2,54343, Note_on_c, 0, 66, 0
2,54379, Note_on_c, 0, 60, 67
2,54449, Note_on_c, 0, 60, 0
2,54478, Note_on_c, 0, 63, 74
2,54484, Note_on_c, 0, 44, 69
2,54535, Note_on_c, 0, 44, 0
2,54569, Note_on_c, 0, 66, 71
2,54576, Note_on_c, 0, 63, 0
2,54638, Note_on_c, 0, 66, 0
2,54656, Note_on_c, 0, 68, 68
2,54741, Note_on_c, 0, 66, 77
2,54774, Note_on_c, 0, 68, 0
2,54793, Note_on_c, 0, 66, 0
2,54838, Note_on_c, 0, 65, 75
2,54841, Note_on_c, 0, 56, 67
2,54875, Note_on_c, 0, 56, 0
2,54911, Note_on_c, 0, 65, 0
2,54920, Note_on_c, 0, 66, 74
2,54927, Note_on_c, 0, 44, 67
2,54978, Note_on_c, 0, 44, 0
2,54978, Note_on_c, 0, 66, 0
2,55013, Note_on_c, 0, 54, 67
2,55017, Note_on_c, 0, 75, 75
2,55049, Note_on_c, 0, 54, 0
2,55083, Note_on_c, 0, 75, 0
2,55095, Note_on_c, 0, 44, 66
2,55196, Note_on_c, 0, 44, 0
2,55208, Note_on_c, 0, 53, 72
2,55214, Note_on_c, 0, 72, 71
2,55255, Note_on_c, 0, 53, 0
2,55266, Note_on_c, 0, 72, 0
2,55312, Note_on_c, 0, 44, 68
2,55389, Note_on_c, 0, 44, 0
2,55413, Note_on_c, 0, 66, 78
2,55417, Note_on_c, 0, 51, 69
2,55462, Note_on_c, 0, 51, 0
2,55502, Note_on_c, 0, 44, 63
2,55561, Note_on_c, 0, 66, 0
2,55606, Note_on_c, 0, 65, 71
2,55610, Note_on_c, 0, 49, 70
2,55621, Note_on_c, 0, 44, 0
2,55677, Note_on_c, 0, 49, 0
2,55684, Note_on_c, 0, 48, 67
2,55686, Note_on_c, 0, 65, 0
2,55688, Note_on_c, 0, 63, 73
2,55750, Note_on_c, 0, 63, 0
2,55779, Note_on_c, 0, 48, 0
2,55790, Note_on_c, 0, 65, 68
2,55792, Note_on_c, 0, 49, 68
2,55824, Note_on_c, 0, 49, 0
2,55838, Note_on_c, 0, 65, 0
2,55853, Note_on_c, 0, 44, 69
2,55871, Note_on_c, 0, 68, 71
2,55943, Note_on_c, 0, 68, 0
2,55954, Note_on_c, 0, 70, 69
2,55965, Note_on_c, 0, 44, 0
2,55976, Note_on_c, 0, 53, 63
2,55995, Note_on_c, 0, 70, 0
2,56050, Note_on_c, 0, 53, 0
2,56051, Note_on_c, 0, 72, 74
2,56056, Note_on_c, 0, 51, 65
2,56124, Note_on_c, 0, 72, 0
2,56143, Note_on_c, 0, 51, 0
2,56150, Note_on_c, 0, 73, 68
2,56162, Note_on_c, 0, 53, 71
2,56209, Note_on_c, 0, 53, 0
2,56233, Note_on_c, 0, 73, 0
2,56239, Note_on_c, 0, 44, 72
2,56243, Note_on_c, 0, 75, 67
2,56297, Note_on_c, 0, 44, 0
2,56322, Note_on_c, 0, 75, 0
2,56334, Note_on_c, 0, 77, 64
2,56338, Note_on_c, 0, 56, 72
2,56395, Note_on_c, 0, 56, 0
2,56408, Note_on_c, 0, 54, 69
2,56419, Note_on_c, 0, 75, 71
2,56420, Note_on_c, 0, 77, 0
2,56484, Note_on_c, 0, 75, 0
2,56490, Note_on_c, 0, 54, 0
2,56505, Note_on_c, 0, 56, 76
2,56522, Note_on_c, 0, 78, 74
2,56553, Note_on_c, 0, 56, 0
2,56585, Note_on_c, 0, 78, 0
2,56596, Note_on_c, 0, 77, 75
2,56599, Note_on_c, 0, 44, 72
2,56622, Control_c, 0, 64, 46
2,56637, Control_c, 0, 64, 61
2,56653, Control_c, 0, 64, 64
2,56653, Note_on_c, 0, 44, 0
2,56668, Control_c, 0, 64, 65
2,56684, Control_c, 0, 64, 68
2,56685, Note_on_c, 0, 77, 0
2,56692, Note_on_c, 0, 58, 71
2,56695, Note_on_c, 0, 75, 65
2,56698, Control_c, 0, 64, 72
2,56713, Control_c, 0, 64, 77
2,56722, Note_on_c, 0, 58, 0
2,56729, Control_c, 0, 64, 82
2,56744, Control_c, 0, 64, 84
2,56750, Note_on_c, 0, 75, 0
2,56758, Control_c, 0, 64, 86
2,56758, Note_on_c, 0, 73, 70
2,56769, Note_on_c, 0, 44, 72
2,56774, Control_c, 0, 64, 88
2,56785, Note_on_c, 0, 73, 0
2,56789, Control_c, 0, 64, 90
2,56808, Note_on_c, 0, 44, 0
2,56813, Control_c, 0, 64, 91
2,56827, Control_c, 0, 64, 92
2,56843, Control_c, 0, 64, 93
2,56917, Note_on_c, 0, 60, 78
2,56932, Note_on_c, 0, 80, 49
2,56949, Control_c, 0, 64, 93
2,56955, Note_on_c, 0, 80, 0
2,56964, Control_c, 0, 64, 91
2,56967, Note_on_c, 0, 82, 66
2,56979, Control_c, 0, 64, 86
2,56994, Control_c, 0, 64, 80
2,56994, Note_on_c, 0, 82, 0
2,57010, Control_c, 0, 64, 73
2,57012, Note_on_c, 0, 61, 77
2,57013, Note_on_c, 0, 60, 0
2,57025, Control_c, 0, 64, 62
2,57025, Note_on_c, 0, 80, 80
2,57040, Control_c, 0, 64, 0
2,57068, Note_on_c, 0, 80, 0
2,57077, Note_on_c, 0, 82, 60
2,57094, Note_on_c, 0, 61, 0
2,57111, Note_on_c, 0, 82, 0
2,57112, Note_on_c, 0, 63, 73
2,57130, Note_on_c, 0, 80, 44
2,57154, Note_on_c, 0, 80, 0
2,57166, Note_on_c, 0, 82, 71
2,57190, Note_on_c, 0, 63, 0
2,57200, Note_on_c, 0, 82, 0
2,57203, Note_on_c, 0, 60, 64
2,57232, Note_on_c, 0, 80, 61
2,57259, Note_on_c, 0, 80, 0
2,57261, Note_on_c, 0, 82, 71
2,57270, Note_on_c, 0, 60, 0
2,57297, Note_on_c, 0, 82, 0
2,57309, Note_on_c, 0, 56, 65
2,57340, Note_on_c, 0, 80, 31
2,57355, Note_on_c, 0, 82, 69
2,57394, Note_on_c, 0, 82, 0
2,57398, Note_on_c, 0, 60, 67
2,57400, Note_on_c, 0, 80, 0
2,57411, Note_on_c, 0, 80, 56
2,57413, Note_on_c, 0, 56, 0
2,57453, Note_on_c, 0, 80, 0
2,57456, Note_on_c, 0, 82, 66
2,57491, Note_on_c, 0, 82, 0
2,57511, Note_on_c, 0, 80, 46
2,57516, Note_on_c, 0, 63, 68
2,57531, Note_on_c, 0, 60, 0
2,57537, Note_on_c, 0, 80, 0
2,57551, Note_on_c, 0, 82, 63
2,57595, Note_on_c, 0, 82, 0
2,57609, Note_on_c, 0, 63, 0
2,57623, Note_on_c, 0, 80, 70
2,57624, Note_on_c, 0, 65, 70
2,57665, Note_on_c, 0, 80, 0
2,57684, Note_on_c, 0, 65, 0
2,57725, Note_on_c, 0, 66, 77
2,57816, Note_on_c, 0, 66, 0
2,57822, Note_on_c, 0, 65, 77
2,57844, Note_on_c, 0, 80, 72
2,57900, Note_on_c, 0, 65, 0
2,57919, Note_on_c, 0, 63, 67
2,57941, Note_on_c, 0, 78, 76
2,57941, Note_on_c, 0, 80, 0
2,58028, Note_on_c, 0, 65, 68
2,58028, Note_on_c, 0, 80, 71
2,58032, Note_on_c, 0, 78, 0
2,58033, Note_on_c, 0, 63, 0
2,58070, Note_on_c, 0, 65, 0
2,58112, Note_on_c, 0, 80, 0
2,58136, Note_on_c, 0, 77, 80
2,58142, Note_on_c, 0, 73, 69
2,58168, Note_on_c, 0, 73, 0
2,58191, Note_on_c, 0, 77, 0
2,58219, Note_on_c, 0, 80, 75
2,58341, Note_on_c, 0, 80, 0
2,58343, Note_on_c, 0, 75, 70
2,58346, Note_on_c, 0, 68, 74
2,58376, Note_on_c, 0, 68, 0
2,58410, Note_on_c, 0, 75, 0
2,58425, Note_on_c, 0, 80, 67
2,58528, Note_on_c, 0, 73, 73
2,58529, Note_on_c, 0, 80, 0
2,58532, Note_on_c, 0, 65, 63
2,58583, Note_on_c, 0, 73, 0
2,58621, Note_on_c, 0, 80, 70
2,58690, Note_on_c, 0, 80, 0
2,58705, Note_on_c, 0, 65, 0
2,58722, Note_on_c, 0, 63, 69
2,58728, Note_on_c, 0, 72, 67
2,58800, Note_on_c, 0, 63, 0
2,58802, Note_on_c, 0, 72, 0
2,58811, Note_on_c, 0, 70, 72
2,58816, Note_on_c, 0, 61, 65
2,58876, Note_on_c, 0, 70, 0
2,58893, Note_on_c, 0, 61, 0
2,58909, Note_on_c, 0, 63, 70
2,58914, Note_on_c, 0, 72, 78
2,58982, Note_on_c, 0, 63, 0
2,58983, Note_on_c, 0, 72, 0
2,58998, Note_on_c, 0, 75, 72
2,59002, Note_on_c, 0, 56, 62
2,59086, Note_on_c, 0, 60, 64
2,59103, Note_on_c, 0, 56, 0
2,59105, Note_on_c, 0, 77, 72
2,59120, Note_on_c, 0, 75, 0
2,59187, Note_on_c, 0, 63, 69
2,59196, Note_on_c, 0, 78, 74
2,59203, Note_on_c, 0, 77, 0
2,59212, Note_on_c, 0, 60, 0
2,59276, Note_on_c, 0, 63, 0
2,59281, Note_on_c, 0, 65, 71
2,59281, Note_on_c, 0, 78, 0
2,59292, Note_on_c, 0, 80, 75
2,59355, Note_on_c, 0, 65, 0
2,59380, Note_on_c, 0, 63, 68
2,59380, Note_on_c, 0, 78, 75
2,59411, Note_on_c, 0, 80, 0
2,59454, Note_on_c, 0, 63, 0
2,59467, Note_on_c, 0, 77, 68
2,59469, Note_on_c, 0, 78, 0
2,59472, Note_on_c, 0, 61, 64
2,59551, Note_on_c, 0, 63, 75
2,59554, Note_on_c, 0, 61, 0
2,59554, Note_on_c, 0, 80, 69
2,59558, Note_on_c, 0, 77, 0
2,59582, Note_on_c, 0, 63, 0
2,59674, Note_on_c, 0, 80, 0
2,59675, Note_on_c, 0, 72, 77
2,59689, Note_on_c, 0, 75, 42
2,59714, Note_on_c, 0, 72, 0
2,59718, Note_on_c, 0, 75, 0
2,59763, Note_on_c, 0, 80, 69
2,59872, Note_on_c, 0, 73, 68
2,59876, Note_on_c, 0, 68, 73
2,59881, Note_on_c, 0, 80, 0
2,59912, Note_on_c, 0, 68, 0
2,59931, Note_on_c, 0, 73, 0
2,59951, Note_on_c, 0, 80, 65
2,60020, Note_on_c, 0, 80, 0
2,60059, Note_on_c, 0, 72, 65
2,60066, Note_on_c, 0, 63, 72
2,60116, Note_on_c, 0, 72, 0
2,60138, Note_on_c, 0, 80, 65
2,60197, Note_on_c, 0, 63, 0
2,60209, Note_on_c, 0, 80, 0
2,60238, Note_on_c, 0, 61, 72
2,60241, Note_on_c, 0, 70, 72
2,60287, Note_on_c, 0, 70, 0
2,60311, Note_on_c, 0, 61, 0
2,60320, Note_on_c, 0, 68, 78
2,60331, Note_on_c, 0, 60, 65
2,60349, Note_on_c, 0, 68, 0
2,60387, Note_on_c, 0, 60, 0
2,60423, Note_on_c, 0, 61, 67
2,60423, Note_on_c, 0, 70, 80
2,60471, Note_on_c, 0, 61, 0
2,60499, Note_on_c, 0, 70, 0
2,60511, Note_on_c, 0, 56, 65
2,60513, Note_on_c, 0, 73, 69
2,60602, Note_on_c, 0, 60, 65
2,60609, Note_on_c, 0, 56, 0
2,60609, Note_on_c, 0, 73, 0
2,60610, Note_on_c, 0, 75, 65
2,60695, Note_on_c, 0, 61, 64
2,60703, Note_on_c, 0, 77, 69
2,60704, Note_on_c, 0, 75, 0
2,60737, Note_on_c, 0, 60, 0
2,60771, Note_on_c, 0, 77, 0
2,60784, Note_on_c, 0, 61, 0
2,60788, Note_on_c, 0, 63, 73
2,60804, Note_on_c, 0, 78, 68
2,60880, Note_on_c, 0, 78, 0
2,60883, Note_on_c, 0, 77, 70
2,60884, Note_on_c, 0, 61, 68
2,60915, Note_on_c, 0, 63, 0
2,60960, Note_on_c, 0, 77, 0
2,60962, Note_on_c, 0, 61, 0
2,60982, Note_on_c, 0, 75, 63
2,60984, Note_on_c, 0, 60, 64
2,61050, Note_on_c, 0, 75, 0
2,61055, Note_on_c, 0, 77, 67
2,61062, Note_on_c, 0, 61, 69
2,61063, Note_on_c, 0, 60, 0
2,61090, Note_on_c, 0, 61, 0
2,61116, Note_on_c, 0, 77, 0
2,61163, Note_on_c, 0, 73, 72
2,61174, Note_on_c, 0, 70, 79
2,61214, Note_on_c, 0, 70, 0
2,61229, Note_on_c, 0, 73, 0
2,61251, Note_on_c, 0, 75, 63
2,61327, Note_on_c, 0, 75, 0
2,61357, Note_on_c, 0, 72, 71
2,61362, Note_on_c, 0, 67, 69
2,61394, Note_on_c, 0, 67, 0
2,61433, Note_on_c, 0, 72, 0
2,61460, Note_on_c, 0, 75, 63
2,61562, Note_on_c, 0, 70, 70
2,61566, Note_on_c, 0, 61, 71
2,61566, Note_on_c, 0, 75, 0
2,61626, Note_on_c, 0, 70, 0
2,61649, Note_on_c, 0, 75, 57
2,61683, Note_on_c, 0, 61, 0
2,61706, Note_on_c, 0, 75, 0
2,61744, Note_on_c, 0, 60, 62
2,61750, Note_on_c, 0, 68, 72
2,61813, Note_on_c, 0, 68, 0
2,61815, Note_on_c, 0, 60, 0
2,61821, Note_on_c, 0, 58, 63
2,61832, Note_on_c, 0, 67, 67
2,61887, Note_on_c, 0, 58, 0
2,61900, Note_on_c, 0, 67, 0
2,61922, Note_on_c, 0, 68, 68
2,61930, Note_on_c, 0, 60, 65
2,61950, Note_on_c, 0, 68, 0
2,61983, Note_on_c, 0, 60, 0
2,62009, Note_on_c, 0, 56, 63
2,62017, Note_on_c, 0, 72, 75
2,62094, Note_on_c, 0, 72, 0
2,62108, Note_on_c, 0, 73, 68
2,62111, Note_on_c, 0, 58, 61
2,62124, Note_on_c, 0, 56, 0
2,62185, Note_on_c, 0, 58, 0
2,62186, Note_on_c, 0, 73, 0
2,62192, Note_on_c, 0, 75, 73
2,62205, Note_on_c, 0, 60, 64
2,62230, Note_on_c, 0, 75, 0
2,62261, Note_on_c, 0, 60, 0
2,62289, Note_on_c, 0, 77, 76
2,62302, Note_on_c, 0, 61, 69
2,62371, Note_on_c, 0, 77, 0
2,62376, Note_on_c, 0, 78, 74
2,62383, Note_on_c, 0, 63, 66
2,62417, Note_on_c, 0, 61, 0
2,62461, Note_on_c, 0, 78, 0
2,62469, Note_on_c, 0, 80, 67
2,62471, Note_on_c, 0, 65, 71
2,62473, Note_on_c, 0, 63, 0
2,62541, Note_on_c, 0, 80, 0
2,62544, Note_on_c, 0, 82, 70
2,62563, Note_on_c, 0, 63, 68
2,62567, Note_on_c, 0, 65, 0
2,62613, Note_on_c, 0, 82, 0
2,62637, Note_on_c, 0, 63, 0
2,62657, Note_on_c, 0, 72, 68
2,62659, Note_on_c, 0, 66, 75
2,62685, Note_on_c, 0, 72, 0
2,62731, Note_on_c, 0, 66, 0
2,62743, Note_on_c, 0, 65, 62
2,62836, Note_on_c, 0, 63, 66
2,62851, Note_on_c, 0, 68, 89
2,62854, Note_on_c, 0, 65, 0
2,62887, Note_on_c, 0, 68, 0
2,62933, Note_on_c, 0, 61, 62
2,62946, Note_on_c, 0, 63, 0
2,63016, Note_on_c, 0, 61, 0
2,63041, Note_on_c, 0, 70, 80
2,63044, Note_on_c, 0, 66, 75
2,63072, Note_on_c, 0, 66, 0
2,63132, Note_on_c, 0, 70, 0
2,63136, Note_on_c, 0, 68, 71
2,63190, Note_on_c, 0, 68, 0
2,63225, Note_on_c, 0, 66, 76
2,63252, Note_on_c, 0, 58, 48
2,63292, Note_on_c, 0, 66, 0
2,63305, Note_on_c, 0, 68, 76
2,63311, Note_on_c, 0, 60, 62
2,63341, Note_on_c, 0, 58, 0
2,63346, Note_on_c, 0, 68, 0
2,63404, Note_on_c, 0, 60, 0
2,63414, Note_on_c, 0, 61, 70
2,63419, Note_on_c, 0, 77, 84
2,63463, Note_on_c, 0, 77, 0
2,63484, Note_on_c, 0, 61, 0
2,63513, Note_on_c, 0, 60, 72
2,63606, Note_on_c, 0, 73, 81
2,63611, Note_on_c, 0, 60, 0
2,63614, Note_on_c, 0, 58, 74
2,63658, Note_on_c, 0, 73, 0
2,63695, Note_on_c, 0, 58, 0
2,63700, Note_on_c, 0, 56, 70
2,63785, Note_on_c, 0, 56, 0
2,63817, Note_on_c, 0, 58, 78
2,63820, Note_on_c, 0, 68, 82
2,64033, Note_on_c, 0, 66, 68
2,64053, Note_on_c, 0, 68, 0
2,64101, Note_on_c, 0, 66, 0
2,64116, Note_on_c, 0, 65, 73
2,64172, Note_on_c, 0, 65, 0
2,64221, Note_on_c, 0, 66, 81
2,64264, Note_on_c, 0, 66, 0
2,64306, Note_on_c, 0, 56, 56
2,64316, Note_on_c, 0, 58, 0
2,64386, Note_on_c, 0, 56, 0
2,64392, Note_on_c, 0, 54, 66
2,64396, Note_on_c, 0, 75, 71
2,64430, Note_on_c, 0, 75, 0
2,64482, Note_on_c, 0, 54, 0
2,64502, Note_on_c, 0, 58, 69
2,64583, Note_on_c, 0, 58, 0
2,64598, Note_on_c, 0, 65, 78
2,64599, Note_on_c, 0, 56, 71
2,64631, Note_on_c, 0, 65, 0
2,64680, Note_on_c, 0, 54, 63
2,64705, Note_on_c, 0, 56, 0
2,64785, Note_on_c, 0, 54, 0
2,64787, Note_on_c, 0, 53, 64
2,64796, Note_on_c, 0, 73, 75
2,64855, Note_on_c, 0, 73, 0
2,64867, Note_on_c, 0, 53, 0
2,64880, Note_on_c, 0, 56, 60
2,64967, Note_on_c, 0, 56, 0
2,64984, Note_on_c, 0, 54, 62
2,64992, Note_on_c, 0, 63, 80
2,65044, Note_on_c, 0, 63, 0
2,65067, Note_on_c, 0, 54, 0
2,65079, Note_on_c, 0, 53, 64
2,65169, Note_on_c, 0, 53, 0
2,65181, Note_on_c, 0, 54, 69
2,65182, Note_on_c, 0, 72, 78
2,65228, Note_on_c, 0, 72, 0
2,65267, Note_on_c, 0, 54, 0
2,65279, Note_on_c, 0, 51, 69
2,65384, Note_on_c, 0, 53, 71
2,65393, Note_on_c, 0, 61, 77
2,65409, Note_on_c, 0, 51, 0
2,65424, Note_on_c, 0, 61, 0
2,65454, Note_on_c, 0, 53, 0
2,65593, Note_on_c, 0, 73, 68
2,65660, Note_on_c, 0, 73, 0
2,65687, Note_on_c, 0, 72, 69
2,65722, Note_on_c, 0, 58, 67
2,65748, Note_on_c, 0, 72, 0
2,65765, Note_on_c, 0, 73, 74
2,65789, Note_on_c, 0, 58, 0
2,65813, Note_on_c, 0, 73, 0
2,65831, Note_on_c, 0, 60, 66
2,65839, Note_on_c, 0, 75, 70
2,65892, Note_on_c, 0, 75, 0
2,65927, Note_on_c, 0, 77, 78
2,65928, Note_on_c, 0, 60, 0
2,65937, Note_on_c, 0, 61, 63
2,65998, Note_on_c, 0, 77, 0
2,66020, Note_on_c, 0, 63, 69
2,66020, Note_on_c, 0, 78, 73
2,66037, Note_on_c, 0, 61, 0
2,66088, Note_on_c, 0, 78, 0
2,66102, Note_on_c, 0, 63, 0
2,66113, Note_on_c, 0, 65, 72
2,66117, Note_on_c, 0, 80, 73
2,66203, Note_on_c, 0, 78, 74
2,66216, Note_on_c, 0, 63, 61
2,66217, Note_on_c, 0, 65, 0
2,66222, Note_on_c, 0, 80, 0
2,66283, Note_on_c, 0, 63, 0
2,66284, Note_on_c, 0, 78, 0
2,66298, Note_on_c, 0, 61, 64
2,66304, Note_on_c, 0, 77, 69
2,66386, Note_on_c, 0, 77, 0
2,66388, Note_on_c, 0, 63, 60
2,66391, Note_on_c, 0, 78, 78
2,66394, Note_on_c, 0, 61, 0
2,66410, Note_on_c, 0, 63, 0
2,66445, Note_on_c, 0, 78, 0
2,66483, Note_on_c, 0, 72, 83
2,66483, Note_on_c, 0, 80, 82
2,66497, Note_on_c, 0, 60, 62
2,66522, Note_on_c, 0, 72, 0
2,66573, Note_on_c, 0, 78, 73
2,66577, Note_on_c, 0, 80, 0
2,66638, Note_on_c, 0, 78, 0
2,66671, Note_on_c, 0, 77, 68
2,66674, Note_on_c, 0, 68, 67
2,66704, Note_on_c, 0, 68, 0
2,66735, Note_on_c, 0, 77, 0
2,66753, Note_on_c, 0, 75, 75
2,66824, Note_on_c, 0, 75, 0
2,66875, Note_on_c, 0, 60, 0
2,66876, Note_on_c, 0, 77, 72
2,66884, Note_on_c, 0, 63, 78
2,67080, Note_on_c, 0, 63, 0
2,67099, Note_on_c, 0, 61, 63
2,67163, Note_on_c, 0, 61, 0
2,67165, Note_on_c, 0, 60, 67
2,67272, Note_on_c, 0, 60, 0
2,67275, Note_on_c, 0, 61, 70
2,67288, Note_on_c, 0, 58, 64
2,67327, Note_on_c, 0, 61, 0
2,67364, Note_on_c, 0, 75, 69
2,67376, Note_on_c, 0, 77, 0
2,67451, Note_on_c, 0, 75, 0
2,67459, Note_on_c, 0, 73, 65
2,67475, Note_on_c, 0, 70, 69
2,67504, Note_on_c, 0, 70, 0
2,67521, Note_on_c, 0, 73, 0
2,67537, Note_on_c, 0, 77, 63
2,67618, Note_on_c, 0, 77, 0
2,67642, Note_on_c, 0, 58, 0
2,67657, Note_on_c, 0, 75, 67
2,67660, Note_on_c, 0, 60, 71
2,67737, Note_on_c, 0, 73, 71
2,67746, Note_on_c, 0, 75, 0
2,67813, Note_on_c, 0, 73, 0
2,67841, Note_on_c, 0, 68, 60
2,67847, Note_on_c, 0, 56, 66
2,67849, Note_on_c, 0, 72, 67
2,67861, Note_on_c, 0, 68, 0
2,67877, Note_on_c, 0, 60, 0
2,67911, Note_on_c, 0, 72, 0
2,67930, Note_on_c, 0, 75, 62
2,67981, Note_on_c, 0, 56, 0
2,68009, Note_on_c, 0, 75, 0
2,68028, Note_on_c, 0, 73, 65
2,68033, Note_on_c, 0, 58, 74
2,68098, Note_on_c, 0, 73, 0
2,68101, Note_on_c, 0, 72, 74
2,68158, Note_on_c, 0, 72, 0
2,68206, Note_on_c, 0, 58, 0
2,68211, Note_on_c, 0, 51, 67
2,68211, Note_on_c, 0, 73, 70
2,68213, Note_on_c, 0, 67, 67
2,68253, Note_on_c, 0, 51, 0
2,68270, Note_on_c, 0, 67, 0
2,68286, Note_on_c, 0, 70, 72
2,68290, Note_on_c, 0, 73, 0
2,68323, Note_on_c, 0, 70, 0
2,68409, Note_on_c, 0, 72, 85
2,68416, Note_on_c, 0, 56, 58
2,68448, Note_on_c, 0, 56, 0
2,68451, Note_on_c, 0, 72, 0
2,68612, Note_on_c, 0, 68, 70
2,68614, Note_on_c, 0, 75, 77
2,68653, Note_on_c, 0, 75, 0
2,68686, Note_on_c, 0, 68, 0
2,68697, Note_on_c, 0, 67, 71
2,68796, Note_on_c, 0, 78, 82
2,68800, Note_on_c, 0, 68, 79
2,68811, Note_on_c, 0, 67, 0
2,68826, Note_on_c, 0, 68, 0
2,68882, Note_on_c, 0, 70, 68
2,68957, Note_on_c, 0, 70, 0
2,68989, Note_on_c, 0, 56, 68
2,68990, Note_on_c, 0, 72, 65
2,69025, Note_on_c, 0, 56, 0
2,69039, Note_on_c, 0, 72, 0
2,69069, Note_on_c, 0, 68, 73
2,69121, Note_on_c, 0, 68, 0
2,69180, Note_on_c, 0, 58, 71
2,69185, Note_on_c, 0, 73, 66
2,69262, Note_on_c, 0, 72, 70
2,69271, Note_on_c, 0, 73, 0
2,69273, Note_on_c, 0, 56, 64
2,69275, Note_on_c, 0, 58, 0
2,69329, Note_on_c, 0, 56, 0
2,69334, Note_on_c, 0, 72, 0
2,69344, Note_on_c, 0, 54, 61
2,69348, Note_on_c, 0, 70, 75
2,69376, Note_on_c, 0, 78, 0
2,69419, Note_on_c, 0, 70, 0
2,69431, Note_on_c, 0, 72, 71
2,69440, Note_on_c, 0, 56, 67
2,69446, Note_on_c, 0, 54, 0
2,69458, Note_on_c, 0, 72, 0
2,69471, Note_on_c, 0, 56, 0
2,69538, Note_on_c, 0, 73, 77
2,69540, Note_on_c, 0, 77, 75
2,69544, Note_on_c, 0, 65, 73
2,69580, Note_on_c, 0, 65, 0
2,69630, Note_on_c, 0, 73, 0
2,69631, Note_on_c, 0, 72, 72
2,69699, Note_on_c, 0, 72, 0
2,69734, Note_on_c, 0, 70, 72
2,69739, Note_on_c, 0, 61, 70
2,69767, Note_on_c, 0, 61, 0
2,69814, Note_on_c, 0, 70, 0
2,69827, Note_on_c, 0, 68, 66
2,69875, Note_on_c, 0, 68, 0
2,69943, Note_on_c, 0, 70, 69
2,69948, Note_on_c, 0, 56, 69
2,70097, Note_on_c, 0, 77, 0
2,70162, Note_on_c, 0, 54, 63
2,70195, Note_on_c, 0, 56, 0
2,70218, Note_on_c, 0, 54, 0
2,70241, Note_on_c, 0, 53, 64
2,70281, Note_on_c, 0, 70, 0
2,70324, Note_on_c, 0, 75, 69
2,70334, Note_on_c, 0, 54, 75
2,70338, Note_on_c, 0, 53, 0
2,70376, Note_on_c, 0, 54, 0
2,70421, Note_on_c, 0, 68, 66
2,70493, Note_on_c, 0, 68, 0
2,70516, Note_on_c, 0, 66, 62
2,70527, Note_on_c, 0, 63, 64
2,70562, Note_on_c, 0, 63, 0
2,70575, Note_on_c, 0, 66, 0
2,70599, Note_on_c, 0, 70, 61
2,70721, Note_on_c, 0, 68, 63
2,70727, Note_on_c, 0, 53, 61
2,70748, Note_on_c, 0, 75, 0
2,70764, Note_on_c, 0, 70, 0
2,70768, Note_on_c, 0, 53, 0
2,70792, Note_on_c, 0, 68, 0
2,70793, Note_on_c, 0, 66, 64
2,70846, Note_on_c, 0, 66, 0
2,70890, Note_on_c, 0, 73, 70
2,70895, Note_on_c, 0, 65, 67
2,70912, Note_on_c, 0, 61, 56
2,70944, Note_on_c, 0, 61, 0
2,70958, Note_on_c, 0, 65, 0
2,70975, Note_on_c, 0, 68, 66
2,70993, Note_on_c, 0, 73, 0
2,71016, Note_on_c, 0, 68, 0
2,71083, Note_on_c, 0, 72, 66
2,71085, Note_on_c, 0, 66, 55
2,71093, Note_on_c, 0, 51, 58
2,71132, Note_on_c, 0, 66, 0
2,71143, Note_on_c, 0, 51, 0
2,71167, Note_on_c, 0, 65, 61
2,71176, Note_on_c, 0, 72, 0
2,71223, Note_on_c, 0, 65, 0
2,71268, Note_on_c, 0, 75, 69
2,71278, Note_on_c, 0, 60, 62
2,71287, Note_on_c, 0, 66, 60
2,71308, Note_on_c, 0, 60, 0
2,71353, Note_on_c, 0, 63, 69
2,71356, Note_on_c, 0, 66, 0
2,71384, Note_on_c, 0, 63, 0
2,71483, Note_on_c, 0, 49, 55
2,71488, Note_on_c, 0, 65, 73
2,71531, Note_on_c, 0, 49, 0
2,71560, Note_on_c, 0, 44, 55
2,71657, Note_on_c, 0, 75, 0
2,71661, Note_on_c, 0, 49, 61
2,71662, Note_on_c, 0, 44, 0
2,71682, Note_on_c, 0, 68, 72
2,71742, Note_on_c, 0, 51, 60
2,71753, Note_on_c, 0, 49, 0
2,71823, Note_on_c, 0, 51, 0
2,71849, Note_on_c, 0, 53, 64
2,71867, Note_on_c, 0, 73, 75
2,71881, Note_on_c, 0, 68, 0
2,71896, Note_on_c, 0, 53, 0
2,71946, Note_on_c, 0, 54, 61
2,72026, Note_on_c, 0, 54, 0
2,72039, Note_on_c, 0, 56, 61
2,72057, Note_on_c, 0, 71, 73
2,72102, Note_on_c, 0, 73, 0
2,72123, Note_on_c, 0, 56, 0
2,72130, Note_on_c, 0, 65, 0
2,72133, Note_on_c, 0, 53, 60
2,72190, Note_on_c, 0, 53, 0
2,72256, Note_on_c, 0, 54, 60
2,72256, Note_on_c, 0, 71, 0
2,72262, Note_on_c, 0, 70, 69
2,72295, Note_on_c, 0, 54, 0
2,72353, Note_on_c, 0, 42, 58
2,72403, Note_on_c, 0, 42, 0
2,72448, Note_on_c, 0, 54, 56
2,72448, Note_on_c, 0, 61, 71
2,72481, Note_on_c, 0, 54, 0
2,72542, Note_on_c, 0, 53, 61
2,72631, Note_on_c, 0, 54, 60
2,72641, Note_on_c, 0, 61, 0
2,72644, Note_on_c, 0, 53, 0
2,72648, Note_on_c, 0, 66, 70
2,72727, Note_on_c, 0, 56, 62
2,72730, Note_on_c, 0, 54, 0
2,72798, Note_on_c, 0, 56, 0
2,72832, Note_on_c, 0, 58, 60
2,72837, Note_on_c, 0, 65, 76
2,72844, Note_on_c, 0, 66, 0
2,72898, Note_on_c, 0, 58, 0
2,72917, Note_on_c, 0, 54, 59
2,73013, Note_on_c, 0, 70, 0
2,73015, Note_on_c, 0, 54, 0
2,73041, Note_on_c, 0, 51, 56
2,73046, Note_on_c, 0, 66, 72
2,73053, Note_on_c, 0, 65, 0
2,73129, Note_on_c, 0, 53, 56
2,73132, Note_on_c, 0, 51, 0
2,73191, Note_on_c, 0, 53, 0
2,73224, Note_on_c, 0, 66, 0
2,73228, Note_on_c, 0, 70, 69
2,73229, Note_on_c, 0, 54, 59
2,73269, Note_on_c, 0, 54, 0
2,73304, Note_on_c, 0, 66, 70
2,73305, Note_on_c, 0, 70, 0
2,73309, Note_on_c, 0, 51, 61
2,73363, Note_on_c, 0, 51, 0
2,73407, Note_on_c, 0, 63, 79
2,73410, Note_on_c, 0, 48, 63
2,73419, Note_on_c, 0, 66, 0
2,73497, Note_on_c, 0, 48, 0
2,73500, Note_on_c, 0, 49, 62
2,73561, Note_on_c, 0, 49, 0
2,73585, Note_on_c, 0, 63, 0
2,73595, Note_on_c, 0, 51, 62
2,73604, Note_on_c, 0, 66, 60
2,73633, Note_on_c, 0, 51, 0
2,73670, Note_on_c, 0, 48, 68
2,73675, Note_on_c, 0, 63, 64
2,73680, Note_on_c, 0, 66, 0
2,73705, Note_on_c, 0, 48, 0
2,73747, Note_on_c, 0, 63, 0
2,73797, Note_on_c, 0, 41, 76
2,73797, Note_on_c, 0, 56, 70
2,73824, Note_on_c, 0, 41, 0
2,74002, Note_on_c, 0, 53, 59
2,74002, Note_on_c, 0, 63, 69
2,74042, Note_on_c, 0, 53, 0
2,74055, Note_on_c, 0, 63, 0
2,74071, Note_on_c, 0, 51, 57
2,74137, Note_on_c, 0, 51, 0
2,74155, Note_on_c, 0, 56, 0
2,74171, Note_on_c, 0, 53, 54
2,74183, Note_on_c, 0, 68, 85
2,74212, Note_on_c, 0, 53, 0
2,74264, Note_on_c, 0, 54, 56
2,74321, Note_on_c, 0, 54, 0
2,74375, Note_on_c, 0, 56, 55
2,74380, Note_on_c, 0, 60, 67
2,74407, Note_on_c, 0, 56, 0
2,74410, Note_on_c, 0, 60, 0
2,74460, Note_on_c, 0, 53, 57
2,74518, Note_on_c, 0, 53, 0
2,74570, Note_on_c, 0, 50, 52
2,74579, Note_on_c, 0, 65, 76
2,74591, Note_on_c, 0, 68, 0
2,74653, Note_on_c, 0, 51, 59
2,74658, Note_on_c, 0, 50, 0
2,74721, Note_on_c, 0, 51, 0
2,74758, Note_on_c, 0, 53, 58
2,74763, Note_on_c, 0, 65, 0
2,74769, Note_on_c, 0, 68, 70
2,74800, Note_on_c, 0, 53, 0
2,74835, Note_on_c, 0, 68, 0
2,74845, Note_on_c, 0, 65, 73
2,74848, Note_on_c, 0, 50, 56
2,74912, Note_on_c, 0, 50, 0
2,74940, Note_on_c, 0, 46, 56
2,74941, Note_on_c, 0, 62, 78
2,74948, Note_on_c, 0, 65, 0
2,75035, Note_on_c, 0, 46, 0
2,75038, Note_on_c, 0, 48, 55
2,75084, Note_on_c, 0, 48, 0
2,75099, Note_on_c, 0, 62, 0
2,75117, Note_on_c, 0, 65, 63
2,75124, Note_on_c, 0, 50, 56
2,75156, Note_on_c, 0, 50, 0
2,75178, Note_on_c, 0, 65, 0
2,75193, Note_on_c, 0, 62, 71
2,75251, Note_on_c, 0, 45, 15
2,75252, Note_on_c, 0, 45, 0
2,75258, Note_on_c, 0, 62, 0
2,75327, Note_on_c, 0, 54, 73
2,75334, Note_on_c, 0, 39, 65
2,75365, Note_on_c, 0, 39, 0
2,75536, Note_on_c, 0, 58, 67
2,75540, Note_on_c, 0, 51, 55
2,75588, Note_on_c, 0, 58, 0
2,75601, Note_on_c, 0, 51, 0
2,75625, Note_on_c, 0, 50, 62
2,75686, Note_on_c, 0, 54, 0
2,75717, Note_on_c, 0, 51, 63
2,75722, Note_on_c, 0, 66, 80
2,75735, Note_on_c, 0, 50, 0
2,75801, Note_on_c, 0, 51, 0
2,75808, Note_on_c, 0, 53, 61
2,75858, Note_on_c, 0, 53, 0
2,75910, Note_on_c, 0, 54, 56
2,75915, Note_on_c, 0, 58, 70
2,75946, Note_on_c, 0, 58, 0
2,75961, Note_on_c, 0, 54, 0
2,75979, Note_on_c, 0, 51, 60
2,76059, Note_on_c, 0, 51, 0
2,76099, Note_on_c, 0, 66, 0
2,76105, Note_on_c, 0, 48, 52
2,76107, Note_on_c, 0, 63, 72
2,76184, Note_on_c, 0, 48, 0
2,76185, Note_on_c, 0, 49, 58
2,76190, Note_on_c, 0, 65, 70
2,76195, Note_on_c, 0, 63, 0
2,76248, Note_on_c, 0, 49, 0
2,76267, Note_on_c, 0, 65, 0
2,76277, Note_on_c, 0, 66, 67
2,76280, Note_on_c, 0, 51, 55
2,76320, Note_on_c, 0, 66, 0
2,76332, Note_on_c, 0, 51, 0
2,76359, Note_on_c, 0, 48, 45
2,76359, Note_on_c, 0, 63, 73
2,76409, Note_on_c, 0, 63, 0
2,76448, Note_on_c, 0, 48, 0
2,76454, Note_on_c, 0, 75, 77
2,76462, Note_on_c, 0, 44, 61
2,76540, Note_on_c, 0, 46, 68
2,76552, Note_on_c, 0, 44, 0
2,76552, Note_on_c, 0, 66, 68
2,76602, Note_on_c, 0, 46, 0
2,76628, Note_on_c, 0, 66, 0
2,76633, Note_on_c, 0, 48, 59
2,76637, Note_on_c, 0, 68, 66
2,76690, Note_on_c, 0, 48, 0
2,76700, Note_on_c, 0, 68, 0
2,76704, Note_on_c, 0, 44, 69
2,76729, Note_on_c, 0, 63, 70
2,76734, Note_on_c, 0, 44, 0
2,76766, Note_on_c, 0, 63, 0
2,76842, Note_on_c, 0, 37, 69
2,76849, Note_on_c, 0, 65, 76
2,76864, Note_on_c, 0, 37, 0
2,76879, Note_on_c, 0, 75, 0
2,76937, Note_on_c, 0, 73, 65
2,77008, Note_on_c, 0, 65, 0
2,77026, Note_on_c, 0, 49, 65
2,77038, Note_on_c, 0, 73, 0
2,77039, Note_on_c, 0, 65, 23
2,77039, Note_on_c, 0, 72, 65
2,77102, Note_on_c, 0, 51, 67
2,77111, Note_on_c, 0, 72, 0
2,77120, Note_on_c, 0, 75, 69
2,77147, Note_on_c, 0, 49, 0
2,77153, Note_on_c, 0, 65, 0
2,77186, Note_on_c, 0, 51, 0
2,77216, Note_on_c, 0, 53, 75
2,77219, Note_on_c, 0, 73, 70
2,77246, Note_on_c, 0, 53, 0
2,77247, Note_on_c, 0, 75, 0
2,77301, Note_on_c, 0, 68, 74
2,77303, Note_on_c, 0, 73, 0
2,77373, Note_on_c, 0, 68, 0
2,77407, Note_on_c, 0, 61, 81
2,77411, Note_on_c, 0, 70, 73
2,77419, Note_on_c, 0, 49, 58
2,77443, Note_on_c, 0, 49, 0
2,77483, Note_on_c, 0, 70, 0
2,77491, Note_on_c, 0, 71, 69
2,77559, Note_on_c, 0, 61, 0
2,77596, Note_on_c, 0, 71, 0
2,77604, Note_on_c, 0, 54, 62
2,77608, Note_on_c, 0, 70, 76
2,77690, Note_on_c, 0, 60, 57
2,77695, Note_on_c, 0, 68, 76
2,77695, Note_on_c, 0, 70, 0
2,77752, Note_on_c, 0, 68, 0
2,77760, Note_on_c, 0, 60, 0
2,77769, Note_on_c, 0, 58, 63
2,77784, Note_on_c, 0, 66, 75
2,77799, Note_on_c, 0, 54, 0
2,77846, Note_on_c, 0, 66, 0
2,77851, Note_on_c, 0, 58, 0
2,77858, Note_on_c, 0, 68, 78
2,77861, Note_on_c, 0, 60, 63
2,77886, Note_on_c, 0, 68, 0
2,77922, Note_on_c, 0, 60, 0
2,77971, Note_on_c, 0, 77, 90
2,77974, Note_on_c, 0, 61, 63
2,77979, Note_on_c, 0, 53, 59
2,78019, Note_on_c, 0, 61, 0
2,78025, Note_on_c, 0, 77, 0
2,78060, Note_on_c, 0, 60, 62
2,78069, Note_on_c, 0, 53, 0
2,78158, Note_on_c, 0, 58, 57
2,78167, Note_on_c, 0, 73, 83
2,78168, Note_on_c, 0, 60, 0
2,78229, Note_on_c, 0, 73, 0
2,78244, Note_on_c, 0, 56, 60
2,78250, Note_on_c, 0, 58, 0
2,78277, Note_on_c, 0, 56, 0
2,78379, Note_on_c, 0, 58, 75
2,78383, Note_on_c, 0, 68, 80
2,78395, Note_on_c, 0, 51, 51
2,78451, Note_on_c, 0, 51, 0
2,78577, Note_on_c, 0, 66, 68
2,78596, Note_on_c, 0, 49, 61
2,78599, Note_on_c, 0, 68, 0
2,78634, Note_on_c, 0, 49, 0
2,78651, Note_on_c, 0, 66, 0
2,78661, Note_on_c, 0, 65, 70
2,78725, Note_on_c, 0, 65, 0
2,78759, Note_on_c, 0, 58, 0
2,78766, Note_on_c, 0, 48, 66
2,78769, Note_on_c, 0, 66, 81
2,78799, Note_on_c, 0, 48, 0
2,78813, Note_on_c, 0, 66, 0
2,78845, Note_on_c, 0, 56, 66
2,78947, Note_on_c, 0, 56, 0
2,78948, Note_on_c, 0, 54, 58
2,78958, Note_on_c, 0, 75, 79
2,79009, Note_on_c, 0, 54, 0
2,79017, Note_on_c, 0, 75, 0
2,79037, Note_on_c, 0, 58, 63
2,79090, Note_on_c, 0, 58, 0
2,79151, Note_on_c, 0, 49, 61
2,79160, Note_on_c, 0, 65, 80
2,79167, Note_on_c, 0, 56, 65
2,79203, Note_on_c, 0, 65, 0
2,79226, Note_on_c, 0, 49, 0
2,79248, Note_on_c, 0, 54, 62
2,79293, Note_on_c, 0, 56, 0
2,79355, Note_on_c, 0, 73, 77
2,79358, Note_on_c, 0, 53, 60
2,79364, Note_on_c, 0, 54, 0
2,79405, Note_on_c, 0, 53, 0
2,79418, Note_on_c, 0, 73, 0
2,79422, Note_on_c, 0, 56, 68
2,79460, Note_on_c, 0, 56, 0
2,79550, Note_on_c, 0, 63, 85
2,79554, Note_on_c, 0, 44, 62
2,79554, Note_on_c, 0, 54, 58
2,79602, Note_on_c, 0, 63, 0
2,79613, Note_on_c, 0, 44, 0
2,79635, Note_on_c, 0, 54, 0
2,79637, Note_on_c, 0, 53, 63
2,79713, Note_on_c, 0, 53, 0
2,79740, Note_on_c, 0, 72, 79
2,79742, Note_on_c, 0, 51, 66
2,79793, Note_on_c, 0, 72, 0
2,79822, Note_on_c, 0, 54, 67
2,79826, Note_on_c, 0, 51, 0
2,79886, Note_on_c, 0, 54, 0
2,79938, Note_on_c, 0, 46, 68
2,79938, Note_on_c, 0, 53, 74
2,79943, Note_on_c, 0, 61, 77
2,79968, Note_on_c, 0, 46, 0
2,80000, Note_on_c, 0, 53, 0
2,80010, Note_on_c, 0, 61, 0
2,80022, Note_on_c, 0, 65, 71
2,80047, Note_on_c, 0, 56, 73
2,80119, Note_on_c, 0, 58, 76
2,80123, Note_on_c, 0, 65, 0
2,80123, Note_on_c, 0, 66, 76
2,80124, Note_on_c, 0, 56, 0
2,80199, Note_on_c, 0, 68, 75
2,80200, Note_on_c, 0, 58, 0
2,80206, Note_on_c, 0, 66, 0
2,80209, Note_on_c, 0, 60, 75
2,80270, Note_on_c, 0, 60, 0
2,80284, Note_on_c, 0, 68, 0
2,80291, Note_on_c, 0, 70, 66
2,80312, Note_on_c, 0, 61, 78
2,80318, Note_on_c, 0, 70, 0
2,80372, Note_on_c, 0, 61, 0
2,80374, Note_on_c, 0, 72, 72
2,80393, Note_on_c, 0, 60, 73
2,80473, Note_on_c, 0, 73, 78
2,80475, Note_on_c, 0, 72, 0
2,80480, Note_on_c, 0, 60, 0
2,80486, Note_on_c, 0, 58, 78
2,80563, Note_on_c, 0, 75, 76
2,80569, Note_on_c, 0, 73, 0
2,80571, Note_on_c, 0, 56, 70
2,80587, Note_on_c, 0, 58, 0
2,80657, Note_on_c, 0, 75, 0
2,80664, Note_on_c, 0, 56, 0
2,80666, Note_on_c, 0, 76, 76
2,80671, Note_on_c, 0, 55, 72
2,80755, Note_on_c, 0, 56, 68
2,80756, Note_on_c, 0, 75, 78
2,80768, Note_on_c, 0, 55, 0
2,80772, Note_on_c, 0, 76, 0
2,80844, Note_on_c, 0, 73, 75
2,80844, Note_on_c, 0, 75, 0
2,80845, Note_on_c, 0, 56, 0
2,80847, Note_on_c, 0, 58, 67
2,80918, Note_on_c, 0, 75, 76
2,80919, Note_on_c, 0, 55, 64
2,80928, Note_on_c, 0, 58, 0
2,80928, Note_on_c, 0, 73, 0
2,80955, Note_on_c, 0, 55, 0
2,80973, Note_on_c, 0, 75, 0
2,81023, Note_on_c, 0, 76, 78
2,81036, Note_on_c, 0, 51, 74
2,81107, Note_on_c, 0, 76, 0
2,81110, Note_on_c, 0, 79, 79
2,81111, Note_on_c, 0, 49, 71
2,81176, Note_on_c, 0, 79, 0
2,81203, Note_on_c, 0, 80, 75
2,81208, Note_on_c, 0, 48, 71
2,81224, Note_on_c, 0, 51, 0
2,81249, Note_on_c, 0, 49, 0
2,81263, Note_on_c, 0, 80, 0
2,81272, Note_on_c, 0, 82, 71
2,81297, Note_on_c, 0, 46, 73
2,81308, Note_on_c, 0, 48, 0
2,81352, Note_on_c, 0, 82, 0
2,81388, Note_on_c, 0, 44, 72
2,81399, Note_on_c, 0, 73, 73
2,81403, Note_on_c, 0, 46, 0
2,81468, Note_on_c, 0, 73, 0
2,81473, Note_on_c, 0, 51, 71
2,81474, Note_on_c, 0, 72, 70
2,81498, Note_on_c, 0, 44, 0
2,81518, Note_on_c, 0, 72, 0
2,81554, Note_on_c, 0, 51, 0
2,81570, Note_on_c, 0, 70, 79
2,81572, Note_on_c, 0, 53, 66
2,81650, Note_on_c, 0, 68, 81
2,81655, Note_on_c, 0, 70, 0
2,81661, Note_on_c, 0, 53, 0
2,81666, Note_on_c, 0, 54, 65
2,81716, Note_on_c, 0, 68, 0
2,81750, Note_on_c, 0, 75, 88
2,81754, Note_on_c, 0, 56, 74
2,81785, Note_on_c, 0, 54, 0
2,81806, Note_on_c, 0, 75, 0
2,81844, Note_on_c, 0, 58, 76
2,81860, Note_on_c, 0, 56, 0
2,81951, Note_on_c, 0, 58, 0
2,81953, Note_on_c, 0, 66, 94
2,81960, Note_on_c, 0, 60, 73
2,81996, Note_on_c, 0, 66, 0
2,82040, Note_on_c, 0, 56, 78
2,82043, Note_on_c, 0, 60, 0
2,82173, Note_on_c, 0, 65, 93
2,82182, Note_on_c, 0, 61, 80
2,82184, Note_on_c, 0, 56, 0
2,82211, Note_on_c, 0, 61, 0
2,82226, Note_on_c, 0, 65, 0
2,82423, Note_on_c, 0, 61, 92
2,82423, Note_on_c, 0, 68, 88
2,82429, Note_on_c, 0, 73, 81
2,82432, Note_on_c, 0, 41, 87
2,82474, Note_on_c, 0, 61, 0
2,82489, Note_on_c, 0, 68, 0
2,82496, Note_on_c, 0, 41, 0
2,82503, Note_on_c, 0, 73, 0
2,82698, Note_on_c, 0, 42, 88
2,82703, Note_on_c, 0, 70, 83
2,82704, Note_on_c, 0, 63, 92
2,82704, Note_on_c, 0, 66, 84
2,82778, Note_on_c, 0, 66, 0
2,82779, Note_on_c, 0, 42, 0
2,82796, Note_on_c, 0, 70, 0
2,83010, Note_on_c, 0, 44, 83
2,83011, Note_on_c, 0, 72, 85
2,83012, Note_on_c, 0, 68, 82
2,83013, Note_on_c, 0, 66, 78
2,83053, Note_on_c, 0, 63, 0
2,83091, Note_on_c, 0, 66, 0
2,83109, Note_on_c, 0, 44, 0
2,83110, Note_on_c, 0, 72, 0
2,83112, Note_on_c, 0, 68, 0
2,83416, Note_on_c, 0, 68, 82
2,83416, Note_on_c, 0, 73, 83
2,83420, Note_on_c, 0, 61, 86
2,83421, Note_on_c, 0, 37, 76
2,83422, Note_on_c, 0, 65, 79
2,85010, Note_on_c, 0, 61, 0
2,85016, Note_on_c, 0, 68, 0
2,85019, Note_on_c, 0, 65, 0
2,85020, Note_on_c, 0, 73, 0
2,85021, Note_on_c, 0, 37, 0
2,85022, End_track
0, 0, End_of_file
