0, 0, Header, 1, 2, 384
1, 0, Start_track
1, 0, Tempo, 500000
1, 0, Time_signature, 4, 2, 24, 8
1, 1, End_track
2, 0, Start_track
2, 0, Title_t," ""Lin04-07.MID"""
2, 0, Program_c, 0, 0
2, 0, Control_c, 0, 64, 0
2, 0, Control_c, 0, 67, 0
2, 784, Note_on_c, 0, 77, 63
2, 786, Note_on_c, 0, 49, 53
2, 881, Note_on_c, 0, 73, 63
2, 890, Note_on_c, 0, 77, 0
2, 946, Note_on_c, 0, 73, 0
2, 970, Note_on_c, 0, 68, 58
2, 997, Note_on_c, 0, 49, 0
2, 1065, Note_on_c, 0, 68, 0
2, 1065, Note_on_c, 0, 73, 56
2, 1113, Note_on_c, 0, 73, 0
2, 1134, Note_on_c, 0, 77, 64
2, 1135, Note_on_c, 0, 61, 62
2, 1168, Note_on_c, 0, 61, 0
2, 1222, Note_on_c, 0, 77, 0
2, 1230, Note_on_c, 0, 73, 63
2, 1309, Note_on_c, 0, 51, 61
2, 1323, Note_on_c, 0, 78, 70
2, 1328, Note_on_c, 0, 73, 0
2, 1397, Note_on_c, 0, 78, 0
2, 1419, Note_on_c, 0, 73, 65
2, 1505, Note_on_c, 0, 73, 0
2, 1514, Note_on_c, 0, 78, 72
2, 1539, Note_on_c, 0, 51, 0
2, 1575, Note_on_c, 0, 78, 0
2, 1592, Note_on_c, 0, 73, 62
2, 1676, Note_on_c, 0, 73, 0
2, 1686, Note_on_c, 0, 61, 64
2, 1689, Note_on_c, 0, 78, 75
2, 1718, Note_on_c, 0, 61, 0
2, 1744, Note_on_c, 0, 78, 0
2, 1779, Note_on_c, 0, 73, 60
2, 1845, Note_on_c, 0, 73, 0
2, 1862, Note_on_c, 0, 53, 67
2, 1871, Note_on_c, 0, 80, 75
2, 1947, Note_on_c, 0, 80, 0
2, 1967, Note_on_c, 0, 73, 68
2, 2043, Note_on_c, 0, 73, 0
2, 2058, Note_on_c, 0, 80, 75
2, 2073, Note_on_c, 0, 53, 0
2, 2129, Note_on_c, 0, 80, 0
2, 2156, Note_on_c, 0, 73, 67
2, 2226, Note_on_c, 0, 73, 0
2, 2240, Note_on_c, 0, 80, 79
2, 2243, Note_on_c, 0, 61, 56
2, 2275, Note_on_c, 0, 61, 0
2, 2297, Note_on_c, 0, 80, 0
2, 2318, Note_on_c, 0, 73, 66
2, 2392, Note_on_c, 0, 73, 0
2, 2409, Note_on_c, 0, 54, 63
2, 2423, Note_on_c, 0, 82, 83
2, 2499, Note_on_c, 0, 82, 0
2, 2509, Note_on_c, 0, 73, 71
2, 2578, Note_on_c, 0, 73, 0
2, 2596, Note_on_c, 0, 82, 82
2, 2648, Note_on_c, 0, 54, 0
2, 2672, Note_on_c, 0, 82, 0
2, 2673, Note_on_c, 0, 73, 74
2, 2746, Note_on_c, 0, 73, 0
2, 2770, Note_on_c, 0, 82, 77
2, 2778, Note_on_c, 0, 61, 68
2, 2808, Note_on_c, 0, 61, 0
2, 2838, Note_on_c, 0, 82, 0
2, 2845, Note_on_c, 0, 73, 66
2, 2937, Note_on_c, 0, 73, 0
2, 2951, Note_on_c, 0, 53, 63
2, 2963, Note_on_c, 0, 80, 74
2, 3037, Note_on_c, 0, 80, 0
2, 3048, Note_on_c, 0, 73, 70
2, 3122, Note_on_c, 0, 73, 0
2, 3136, Note_on_c, 0, 80, 72
2, 3189, Note_on_c, 0, 53, 0
2, 3217, Note_on_c, 0, 80, 0
2, 3220, Note_on_c, 0, 73, 66
2, 3282, Note_on_c, 0, 73, 0
2, 3314, Note_on_c, 0, 80, 69
2, 3316, Note_on_c, 0, 61, 65
2, 3349, Note_on_c, 0, 61, 0
2, 3365, Note_on_c, 0, 80, 0
2, 3393, Note_on_c, 0, 73, 62
2, 3459, Note_on_c, 0, 73, 0
2, 3477, Note_on_c, 0, 78, 63
2, 3482, Note_on_c, 0, 51, 66
2, 3568, Note_on_c, 0, 77, 67
2, 3575, Note_on_c, 0, 78, 0
2, 3637, Note_on_c, 0, 77, 0
2, 3655, Note_on_c, 0, 75, 67
2, 3683, Note_on_c, 0, 51, 0
2, 3736, Note_on_c, 0, 77, 66
2, 3742, Note_on_c, 0, 75, 0
2, 3809, Note_on_c, 0, 60, 59
2, 3822, Note_on_c, 0, 78, 69
2, 3836, Note_on_c, 0, 77, 0
2, 3843, Note_on_c, 0, 60, 0
2, 3901, Note_on_c, 0, 78, 0
2, 3905, Note_on_c, 0, 75, 62
2, 3976, Note_on_c, 0, 49, 56
2, 3984, Note_on_c, 0, 77, 70
2, 3987, Note_on_c, 0, 75, 0
2, 4085, Note_on_c, 0, 75, 69
2, 4088, Note_on_c, 0, 77, 0
2, 4150, Note_on_c, 0, 49, 0
2, 4164, Note_on_c, 0, 75, 0
2, 4175, Note_on_c, 0, 73, 69
2, 4257, Note_on_c, 0, 75, 69
2, 4270, Note_on_c, 0, 73, 0
2, 4341, Note_on_c, 0, 77, 70
2, 4342, Note_on_c, 0, 75, 0
2, 4345, Note_on_c, 0, 61, 68
2, 4436, Note_on_c, 0, 73, 70
2, 4439, Note_on_c, 0, 77, 0
2, 4541, Note_on_c, 0, 75, 71
2, 4565, Note_on_c, 0, 73, 0
2, 4629, Note_on_c, 0, 77, 73
2, 4635, Note_on_c, 0, 75, 0
2, 4699, Note_on_c, 0, 61, 0
2, 4706, Note_on_c, 0, 60, 67
2, 4716, Note_on_c, 0, 75, 79
2, 4730, Note_on_c, 0, 77, 0
2, 4798, Note_on_c, 0, 58, 65
2, 4805, Note_on_c, 0, 60, 0
2, 4814, Note_on_c, 0, 73, 73
2, 4822, Note_on_c, 0, 75, 0
2, 4871, Note_on_c, 0, 56, 63
2, 4877, Note_on_c, 0, 73, 0
2, 4883, Note_on_c, 0, 58, 0
2, 4889, Note_on_c, 0, 72, 72
2, 4959, Note_on_c, 0, 58, 59
2, 4961, Note_on_c, 0, 72, 0
2, 4967, Note_on_c, 0, 70, 74
2, 4975, Note_on_c, 0, 56, 0
2, 5028, Note_on_c, 0, 58, 0
2, 5030, Note_on_c, 0, 70, 0
2, 5058, Note_on_c, 0, 60, 61
2, 5064, Note_on_c, 0, 68, 72
2, 5143, Note_on_c, 0, 60, 0
2, 5152, Note_on_c, 0, 56, 67
2, 5245, Note_on_c, 0, 56, 0
2, 5247, Note_on_c, 0, 51, 68
2, 5262, Note_on_c, 0, 68, 0
2, 5317, Note_on_c, 0, 56, 58
2, 5342, Note_on_c, 0, 51, 0
2, 5393, Note_on_c, 0, 56, 0
2, 5424, Note_on_c, 0, 80, 68
2, 5427, Note_on_c, 0, 60, 58
2, 5462, Note_on_c, 0, 60, 0
2, 5467, Note_on_c, 0, 80, 0
2, 5507, Note_on_c, 0, 56, 62
2, 5584, Note_on_c, 0, 56, 0
2, 5589, Note_on_c, 0, 70, 65
2, 5602, Note_on_c, 0, 61, 65
2, 5677, Note_on_c, 0, 61, 0
2, 5681, Note_on_c, 0, 56, 68
2, 5760, Note_on_c, 0, 56, 0
2, 5764, Note_on_c, 0, 70, 0
2, 5776, Note_on_c, 0, 61, 68
2, 5840, Note_on_c, 0, 56, 63
2, 5843, Note_on_c, 0, 61, 0
2, 5926, Note_on_c, 0, 56, 0
2, 5928, Note_on_c, 0, 80, 62
2, 5940, Note_on_c, 0, 61, 66
2, 5976, Note_on_c, 0, 80, 0
2, 6027, Note_on_c, 0, 61, 0
2, 6031, Note_on_c, 0, 56, 63
2, 6111, Note_on_c, 0, 56, 0
2, 6131, Note_on_c, 0, 72, 74
2, 6137, Note_on_c, 0, 63, 66
2, 6225, Note_on_c, 0, 63, 0
2, 6227, Note_on_c, 0, 56, 71
2, 6309, Note_on_c, 0, 56, 0
2, 6319, Note_on_c, 0, 63, 71
2, 6321, Note_on_c, 0, 72, 0
2, 6390, Note_on_c, 0, 63, 0
2, 6396, Note_on_c, 0, 56, 66
2, 6478, Note_on_c, 0, 56, 0
2, 6479, Note_on_c, 0, 80, 72
2, 6501, Note_on_c, 0, 63, 70
2, 6521, Note_on_c, 0, 80, 0
2, 6564, Note_on_c, 0, 56, 64
2, 6564, Note_on_c, 0, 63, 0
2, 6651, Note_on_c, 0, 56, 0
2, 6680, Note_on_c, 0, 65, 74
2, 6680, Note_on_c, 0, 73, 74
2, 6769, Note_on_c, 0, 65, 0
2, 6782, Note_on_c, 0, 56, 73
2, 6845, Note_on_c, 0, 56, 0
2, 6870, Note_on_c, 0, 73, 0
2, 6882, Note_on_c, 0, 65, 68
2, 6930, Note_on_c, 0, 65, 0
2, 6950, Note_on_c, 0, 56, 68
2, 7018, Note_on_c, 0, 56, 0
2, 7043, Note_on_c, 0, 65, 67
2, 7051, Note_on_c, 0, 80, 67
2, 7078, Note_on_c, 0, 65, 0
2, 7106, Note_on_c, 0, 80, 0
2, 7120, Note_on_c, 0, 56, 66
2, 7206, Note_on_c, 0, 56, 0
2, 7217, Note_on_c, 0, 63, 68
2, 7232, Note_on_c, 0, 72, 71
2, 7286, Note_on_c, 0, 63, 0
2, 7299, Note_on_c, 0, 56, 63
2, 7383, Note_on_c, 0, 56, 0
2, 7398, Note_on_c, 0, 63, 67
2, 7403, Note_on_c, 0, 72, 0
2, 7455, Note_on_c, 0, 63, 0
2, 7471, Note_on_c, 0, 56, 61
2, 7558, Note_on_c, 0, 56, 0
2, 7574, Note_on_c, 0, 80, 63
2, 7579, Note_on_c, 0, 63, 63
2, 7617, Note_on_c, 0, 80, 0
2, 7618, Note_on_c, 0, 63, 0
2, 7659, Note_on_c, 0, 56, 63
2, 7731, Note_on_c, 0, 56, 0
2, 7753, Note_on_c, 0, 61, 61
2, 7757, Note_on_c, 0, 70, 68
2, 7802, Note_on_c, 0, 61, 0
2, 7820, Note_on_c, 0, 60, 68
2, 7868, Note_on_c, 0, 70, 0
2, 7917, Note_on_c, 0, 60, 0
2, 7921, Note_on_c, 0, 58, 69
2, 8005, Note_on_c, 0, 60, 65
2, 8010, Note_on_c, 0, 58, 0
2, 8087, Note_on_c, 0, 60, 0
2, 8090, Note_on_c, 0, 79, 63
2, 8094, Note_on_c, 0, 61, 66
2, 8138, Note_on_c, 0, 79, 0
2, 8160, Note_on_c, 0, 61, 0
2, 8163, Note_on_c, 0, 58, 63
2, 8237, Note_on_c, 0, 58, 0
2, 8258, Note_on_c, 0, 60, 63
2, 8282, Note_on_c, 0, 68, 70
2, 8342, Note_on_c, 0, 60, 0
2, 8353, Note_on_c, 0, 58, 66
2, 8395, Note_on_c, 0, 68, 0
2, 8426, Note_on_c, 0, 58, 0
2, 8432, Note_on_c, 0, 56, 68
2, 8518, Note_on_c, 0, 58, 69
2, 8522, Note_on_c, 0, 56, 0
2, 8588, Note_on_c, 0, 58, 0
2, 8603, Note_on_c, 0, 80, 80
2, 8607, Note_on_c, 0, 60, 63
2, 8685, Note_on_c, 0, 60, 0
2, 8699, Note_on_c, 0, 56, 66
2, 8790, Note_on_c, 0, 56, 0
2, 8791, Note_on_c, 0, 58, 67
2, 8861, Note_on_c, 0, 58, 0
2, 8879, Note_on_c, 0, 59, 63
2, 8951, Note_on_c, 0, 59, 0
2, 8970, Note_on_c, 0, 78, 69
2, 8977, Note_on_c, 0, 58, 53
2, 8998, Note_on_c, 0, 80, 0
2, 9023, Note_on_c, 0, 58, 0
2, 9036, Note_on_c, 0, 56, 54
2, 9054, Note_on_c, 0, 77, 63
2, 9054, Note_on_c, 0, 78, 0
2, 9130, Note_on_c, 0, 54, 56
2, 9137, Note_on_c, 0, 56, 0
2, 9139, Note_on_c, 0, 77, 0
2, 9154, Note_on_c, 0, 75, 60
2, 9173, Note_on_c, 0, 54, 0
2, 9180, Control_c, 0, 67, 16
2, 9195, Control_c, 0, 67, 30
2, 9210, Control_c, 0, 67, 50
2, 9219, Note_on_c, 0, 77, 54
2, 9221, Note_on_c, 0, 53, 45
2, 9221, Note_on_c, 0, 75, 0
2, 9225, Control_c, 0, 67, 76
2, 9240, Control_c, 0, 67, 104
2, 9256, Control_c, 0, 67, 127
2, 9290, Note_on_c, 0, 53, 0
2, 9310, Note_on_c, 0, 78, 68
2, 9313, Note_on_c, 0, 51, 48
2, 9319, Note_on_c, 0, 77, 0
2, 9418, Note_on_c, 0, 78, 0
2, 9429, Note_on_c, 0, 75, 56
2, 9476, Note_on_c, 0, 75, 0
2, 9478, Note_on_c, 0, 51, 0
2, 9503, Note_on_c, 0, 70, 64
2, 9585, Note_on_c, 0, 70, 0
2, 9587, Note_on_c, 0, 75, 53
2, 9640, Note_on_c, 0, 63, 55
2, 9648, Note_on_c, 0, 75, 0
2, 9665, Note_on_c, 0, 63, 0
2, 9665, Note_on_c, 0, 78, 64
2, 9738, Note_on_c, 0, 78, 0
2, 9749, Note_on_c, 0, 75, 57
2, 9811, Note_on_c, 0, 53, 48
2, 9837, Note_on_c, 0, 75, 0
2, 9839, Note_on_c, 0, 80, 66
2, 9890, Note_on_c, 0, 80, 0
2, 9921, Note_on_c, 0, 75, 61
2, 9997, Note_on_c, 0, 75, 0
2, 10010, Note_on_c, 0, 53, 0
2, 10010, Note_on_c, 0, 80, 65
2, 10058, Note_on_c, 0, 80, 0
2, 10089, Note_on_c, 0, 75, 56
2, 10163, Note_on_c, 0, 75, 0
2, 10170, Note_on_c, 0, 63, 49
2, 10176, Note_on_c, 0, 80, 67
2, 10198, Note_on_c, 0, 63, 0
2, 10223, Note_on_c, 0, 80, 0
2, 10273, Note_on_c, 0, 75, 51
2, 10330, Note_on_c, 0, 75, 0
2, 10349, Note_on_c, 0, 54, 51
2, 10358, Note_on_c, 0, 82, 68
2, 10432, Note_on_c, 0, 82, 0
2, 10458, Note_on_c, 0, 75, 61
2, 10518, Note_on_c, 0, 75, 0
2, 10533, Note_on_c, 0, 82, 69
2, 10560, Note_on_c, 0, 54, 0
2, 10603, Note_on_c, 0, 82, 0
2, 10639, Note_on_c, 0, 75, 58
2, 10686, Note_on_c, 0, 75, 0
2, 10698, Note_on_c, 0, 63, 53
2, 10707, Note_on_c, 0, 82, 70
2, 10740, Note_on_c, 0, 63, 0
2, 10776, Note_on_c, 0, 82, 0
2, 10802, Note_on_c, 0, 75, 59
2, 10862, Note_on_c, 0, 75, 0
2, 10881, Note_on_c, 0, 83, 67
2, 10884, Note_on_c, 0, 56, 52
2, 10961, Note_on_c, 0, 83, 0
2, 10977, Note_on_c, 0, 75, 62
2, 11042, Note_on_c, 0, 75, 0
2, 11056, Note_on_c, 0, 83, 62
2, 11086, Note_on_c, 0, 56, 0
2, 11129, Note_on_c, 0, 83, 0
2, 11136, Note_on_c, 0, 75, 59
2, 11211, Note_on_c, 0, 75, 0
2, 11225, Note_on_c, 0, 83, 61
2, 11236, Note_on_c, 0, 63, 52
2, 11267, Note_on_c, 0, 63, 0
2, 11286, Note_on_c, 0, 83, 0
2, 11312, Note_on_c, 0, 75, 56
2, 11390, Note_on_c, 0, 75, 0
2, 11415, Note_on_c, 0, 82, 68
2, 11423, Note_on_c, 0, 54, 47
2, 11486, Note_on_c, 0, 82, 0
2, 11502, Note_on_c, 0, 75, 61
2, 11577, Note_on_c, 0, 75, 0
2, 11602, Note_on_c, 0, 82, 67
2, 11628, Note_on_c, 0, 54, 0
2, 11665, Note_on_c, 0, 82, 0
2, 11687, Note_on_c, 0, 75, 62
2, 11753, Note_on_c, 0, 75, 0
2, 11762, Note_on_c, 0, 63, 54
2, 11778, Note_on_c, 0, 82, 71
2, 11803, Note_on_c, 0, 63, 0
2, 11838, Note_on_c, 0, 82, 0
2, 11861, Note_on_c, 0, 75, 52
2, 11938, Note_on_c, 0, 53, 54
2, 11940, Note_on_c, 0, 75, 0
2, 11954, Note_on_c, 0, 80, 63
2, 12049, Note_on_c, 0, 78, 65
2, 12053, Note_on_c, 0, 80, 0
2, 12119, Note_on_c, 0, 78, 0
2, 12147, Note_on_c, 0, 53, 0
2, 12150, Note_on_c, 0, 77, 64
2, 12227, Note_on_c, 0, 77, 0
2, 12228, Note_on_c, 0, 78, 65
2, 12296, Note_on_c, 0, 62, 50
2, 12302, Note_on_c, 0, 80, 64
2, 12304, Note_on_c, 0, 78, 0
2, 12324, Note_on_c, 0, 62, 0
2, 12374, Note_on_c, 0, 80, 0
2, 12387, Note_on_c, 0, 77, 56
2, 12456, Note_on_c, 0, 51, 52
2, 12460, Note_on_c, 0, 77, 0
2, 12476, Note_on_c, 0, 78, 68
2, 12551, Note_on_c, 0, 78, 0
2, 12573, Note_on_c, 0, 77, 67
2, 12625, Note_on_c, 0, 51, 0
2, 12651, Note_on_c, 0, 77, 0
2, 12666, Note_on_c, 0, 75, 61
2, 12738, Note_on_c, 0, 75, 0
2, 12740, Note_on_c, 0, 77, 59
2, 12817, Note_on_c, 0, 63, 59
2, 12833, Note_on_c, 0, 77, 0
2, 12833, Note_on_c, 0, 78, 68
2, 12927, Note_on_c, 0, 75, 67
2, 12928, Note_on_c, 0, 78, 0
2, 13016, Note_on_c, 0, 77, 73
2, 13025, Note_on_c, 0, 75, 0
2, 13104, Note_on_c, 0, 78, 71
2, 13114, Note_on_c, 0, 77, 0
2, 13150, Note_on_c, 0, 63, 0
2, 13170, Note_on_c, 0, 61, 53
2, 13176, Note_on_c, 0, 78, 0
2, 13182, Note_on_c, 0, 77, 64
2, 13244, Note_on_c, 0, 61, 0
2, 13261, Note_on_c, 0, 77, 0
2, 13263, Note_on_c, 0, 60, 52
2, 13263, Note_on_c, 0, 75, 68
2, 13318, Note_on_c, 0, 60, 0
2, 13331, Note_on_c, 0, 58, 55
2, 13354, Note_on_c, 0, 73, 62
2, 13355, Note_on_c, 0, 75, 0
2, 13400, Note_on_c, 0, 73, 0
2, 13420, Note_on_c, 0, 58, 0
2, 13426, Note_on_c, 0, 72, 63
2, 13440, Note_on_c, 0, 60, 36
2, 13485, Note_on_c, 0, 60, 0
2, 13507, Note_on_c, 0, 72, 0
2, 13508, Note_on_c, 0, 70, 62
2, 13521, Note_on_c, 0, 61, 57
2, 13598, Note_on_c, 0, 61, 0
2, 13605, Note_on_c, 0, 58, 64
2, 13614, Control_c, 0, 67, 100
2, 13629, Control_c, 0, 67, 50
2, 13644, Control_c, 0, 67, 0
2, 13690, Note_on_c, 0, 58, 0
2, 13708, Note_on_c, 0, 51, 64
2, 13709, Note_on_c, 0, 70, 0
2, 13777, Note_on_c, 0, 51, 0
2, 13793, Note_on_c, 0, 58, 60
2, 13857, Note_on_c, 0, 58, 0
2, 13873, Note_on_c, 0, 61, 62
2, 13880, Control_c, 0, 67, 12
2, 13890, Note_on_c, 0, 82, 61
2, 13896, Control_c, 0, 67, 28
2, 13911, Control_c, 0, 67, 51
2, 13926, Control_c, 0, 67, 81
2, 13926, Note_on_c, 0, 82, 0
2, 13941, Control_c, 0, 67, 114
2, 13945, Note_on_c, 0, 61, 0
2, 13956, Control_c, 0, 67, 127
2, 13961, Note_on_c, 0, 58, 53
2, 14043, Note_on_c, 0, 58, 0
2, 14058, Note_on_c, 0, 72, 64
2, 14065, Note_on_c, 0, 63, 55
2, 14135, Note_on_c, 0, 63, 0
2, 14153, Note_on_c, 0, 58, 55
2, 14222, Note_on_c, 0, 58, 0
2, 14237, Note_on_c, 0, 72, 0
2, 14243, Note_on_c, 0, 63, 63
2, 14300, Note_on_c, 0, 63, 0
2, 14326, Note_on_c, 0, 58, 59
2, 14367, Note_on_c, 0, 58, 0
2, 14403, Note_on_c, 0, 63, 64
2, 14404, Note_on_c, 0, 82, 59
2, 14456, Note_on_c, 0, 82, 0
2, 14463, Note_on_c, 0, 63, 0
2, 14483, Note_on_c, 0, 58, 63
2, 14544, Note_on_c, 0, 58, 0
2, 14584, Note_on_c, 0, 65, 59
2, 14596, Note_on_c, 0, 73, 71
2, 14648, Note_on_c, 0, 65, 0
2, 14673, Note_on_c, 0, 58, 60
2, 14745, Note_on_c, 0, 58, 0
2, 14758, Note_on_c, 0, 73, 0
2, 14769, Note_on_c, 0, 65, 65
2, 14817, Note_on_c, 0, 65, 0
2, 14857, Note_on_c, 0, 58, 54
2, 14902, Note_on_c, 0, 58, 0
2, 14931, Note_on_c, 0, 82, 63
2, 14940, Note_on_c, 0, 65, 60
2, 14976, Note_on_c, 0, 65, 0
2, 14982, Note_on_c, 0, 82, 0
2, 15025, Note_on_c, 0, 58, 54
2, 15068, Note_on_c, 0, 58, 0
2, 15104, Note_on_c, 0, 66, 72
2, 15126, Note_on_c, 0, 75, 67
2, 15183, Note_on_c, 0, 66, 0
2, 15216, Note_on_c, 0, 58, 66
2, 15293, Note_on_c, 0, 58, 0
2, 15307, Note_on_c, 0, 66, 70
2, 15310, Note_on_c, 0, 75, 0
2, 15376, Note_on_c, 0, 66, 0
2, 15383, Note_on_c, 0, 58, 64
2, 15467, Note_on_c, 0, 58, 0
2, 15487, Note_on_c, 0, 82, 64
2, 15490, Note_on_c, 0, 66, 67
2, 15528, Note_on_c, 0, 82, 0
2, 15535, Note_on_c, 0, 66, 0
2, 15573, Note_on_c, 0, 58, 61
2, 15627, Note_on_c, 0, 58, 0
2, 15671, Note_on_c, 0, 73, 71
2, 15682, Note_on_c, 0, 65, 56
2, 15724, Note_on_c, 0, 65, 0
2, 15750, Note_on_c, 0, 58, 62
2, 15821, Note_on_c, 0, 58, 0
2, 15821, Note_on_c, 0, 73, 0
2, 15853, Note_on_c, 0, 65, 57
2, 15894, Note_on_c, 0, 65, 0
2, 15931, Note_on_c, 0, 58, 49
2, 15985, Note_on_c, 0, 58, 0
2, 16015, Note_on_c, 0, 82, 59
2, 16029, Note_on_c, 0, 65, 51
2, 16056, Note_on_c, 0, 65, 0
2, 16067, Note_on_c, 0, 82, 0
2, 16107, Note_on_c, 0, 58, 50
2, 16183, Note_on_c, 0, 58, 0
2, 16204, Note_on_c, 0, 63, 54
2, 16207, Note_on_c, 0, 72, 65
2, 16253, Note_on_c, 0, 63, 0
2, 16275, Note_on_c, 0, 61, 61
2, 16351, Note_on_c, 0, 61, 0
2, 16363, Note_on_c, 0, 72, 0
2, 16365, Note_on_c, 0, 60, 64
2, 16454, Note_on_c, 0, 60, 0
2, 16462, Note_on_c, 0, 61, 68
2, 16514, Note_on_c, 0, 61, 0
2, 16531, Note_on_c, 0, 63, 60
2, 16531, Note_on_c, 0, 81, 66
2, 16593, Note_on_c, 0, 81, 0
2, 16596, Note_on_c, 0, 63, 0
2, 16634, Note_on_c, 0, 60, 47
2, 16694, Note_on_c, 0, 60, 0
2, 16709, Note_on_c, 0, 70, 73
2, 16714, Note_on_c, 0, 61, 57
2, 16792, Note_on_c, 0, 61, 0
2, 16806, Note_on_c, 0, 60, 61
2, 16829, Control_c, 0, 67, 104
2, 16844, Control_c, 0, 67, 46
2, 16859, Note_on_c, 0, 60, 0
2, 16860, Control_c, 0, 67, 0
2, 16875, Note_on_c, 0, 58, 64
2, 16877, Note_on_c, 0, 70, 0
2, 16963, Note_on_c, 0, 60, 60
2, 16968, Note_on_c, 0, 58, 0
2, 17023, Note_on_c, 0, 60, 0
2, 17031, Note_on_c, 0, 61, 73
2, 17040, Note_on_c, 0, 82, 75
2, 17135, Note_on_c, 0, 58, 60
2, 17165, Note_on_c, 0, 61, 0
2, 17199, Note_on_c, 0, 58, 0
2, 17214, Note_on_c, 0, 64, 69
2, 17295, Note_on_c, 0, 64, 0
2, 17310, Note_on_c, 0, 62, 69
2, 17318, Note_on_c, 0, 82, 0
2, 17375, Note_on_c, 0, 62, 0
2, 17379, Note_on_c, 0, 80, 81
2, 17390, Note_on_c, 0, 60, 64
2, 17475, Note_on_c, 0, 62, 62
2, 17485, Note_on_c, 0, 60, 0
2, 17539, Note_on_c, 0, 62, 0
2, 17555, Note_on_c, 0, 80, 0
2, 17556, Note_on_c, 0, 64, 66
2, 17560, Note_on_c, 0, 79, 73
2, 17610, Note_on_c, 0, 79, 0
2, 17630, Note_on_c, 0, 64, 0
2, 17644, Note_on_c, 0, 60, 62
2, 17707, Note_on_c, 0, 60, 0
2, 17737, Note_on_c, 0, 65, 69
2, 17744, Note_on_c, 0, 80, 78
2, 17797, Note_on_c, 0, 80, 0
2, 17818, Note_on_c, 0, 65, 0
2, 17834, Note_on_c, 0, 64, 66
2, 17881, Note_on_c, 0, 64, 0
2, 17913, Note_on_c, 0, 68, 78
2, 17915, Note_on_c, 0, 65, 66
2, 17947, Note_on_c, 0, 68, 0
2, 17985, Note_on_c, 0, 65, 0
2, 18000, Note_on_c, 0, 67, 66
2, 18053, Note_on_c, 0, 67, 0
2, 18084, Note_on_c, 0, 80, 82
2, 18097, Note_on_c, 0, 65, 64
2, 18139, Note_on_c, 0, 65, 0
2, 18180, Note_on_c, 0, 63, 66
2, 18232, Note_on_c, 0, 63, 0
2, 18253, Note_on_c, 0, 62, 72
2, 18337, Note_on_c, 0, 62, 0
2, 18344, Note_on_c, 0, 60, 72
2, 18355, Note_on_c, 0, 80, 0
2, 18431, Note_on_c, 0, 60, 0
2, 18433, Note_on_c, 0, 58, 68
2, 18439, Note_on_c, 0, 78, 81
2, 18516, Note_on_c, 0, 60, 59
2, 18543, Note_on_c, 0, 58, 0
2, 18583, Note_on_c, 0, 60, 0
2, 18595, Note_on_c, 0, 78, 0
2, 18601, Note_on_c, 0, 62, 64
2, 18607, Note_on_c, 0, 77, 66
2, 18657, Note_on_c, 0, 77, 0
2, 18661, Note_on_c, 0, 62, 0
2, 18677, Note_on_c, 0, 58, 71
2, 18751, Note_on_c, 0, 58, 0
2, 18776, Note_on_c, 0, 63, 76
2, 18776, Note_on_c, 0, 78, 80
2, 18809, Note_on_c, 0, 63, 0
2, 18843, Note_on_c, 0, 78, 0
2, 18869, Note_on_c, 0, 77, 64
2, 18940, Note_on_c, 0, 77, 0
2, 18947, Note_on_c, 0, 51, 69
2, 18956, Note_on_c, 0, 75, 68
2, 18978, Note_on_c, 0, 51, 0
2, 19035, Note_on_c, 0, 77, 63
2, 19054, Note_on_c, 0, 75, 0
2, 19129, Note_on_c, 0, 78, 73
2, 19130, Note_on_c, 0, 77, 0
2, 19139, Note_on_c, 0, 63, 65
2, 19221, Note_on_c, 0, 78, 0
2, 19228, Note_on_c, 0, 75, 64
2, 19298, Note_on_c, 0, 81, 73
2, 19304, Note_on_c, 0, 75, 0
2, 19305, Note_on_c, 0, 63, 0
2, 19397, Note_on_c, 0, 79, 70
2, 19427, Note_on_c, 0, 81, 0
2, 19461, Note_on_c, 0, 61, 61
2, 19461, Note_on_c, 0, 79, 0
2, 19466, Note_on_c, 0, 77, 73
2, 19552, Note_on_c, 0, 77, 0
2, 19561, Note_on_c, 0, 79, 69
2, 19575, Note_on_c, 0, 61, 0
2, 19617, Note_on_c, 0, 60, 68
2, 19634, Note_on_c, 0, 81, 80
2, 19654, Note_on_c, 0, 79, 0
2, 19662, Note_on_c, 0, 60, 0
2, 19689, Note_on_c, 0, 81, 0
2, 19728, Note_on_c, 0, 77, 74
2, 19793, Note_on_c, 0, 61, 75
2, 19794, Note_on_c, 0, 82, 78
2, 19810, Note_on_c, 0, 77, 0
2, 19830, Note_on_c, 0, 61, 0
2, 19882, Note_on_c, 0, 82, 0
2, 19889, Note_on_c, 0, 81, 74
2, 19977, Note_on_c, 0, 49, 71
2, 19981, Note_on_c, 0, 82, 74
2, 20007, Note_on_c, 0, 81, 0
2, 20010, Note_on_c, 0, 49, 0
2, 20058, Note_on_c, 0, 82, 0
2, 20074, Note_on_c, 0, 84, 70
2, 20154, Note_on_c, 0, 82, 72
2, 20164, Note_on_c, 0, 84, 0
2, 20168, Note_on_c, 0, 61, 71
2, 20253, Note_on_c, 0, 80, 71
2, 20274, Note_on_c, 0, 82, 0
2, 20322, Note_on_c, 0, 80, 0
2, 20339, Note_on_c, 0, 79, 62
2, 20384, Note_on_c, 0, 61, 0
2, 20421, Note_on_c, 0, 79, 0
2, 20424, Note_on_c, 0, 77, 65
2, 20510, Note_on_c, 0, 77, 0
2, 20515, Note_on_c, 0, 60, 62
2, 20524, Note_on_c, 0, 75, 69
2, 20598, Note_on_c, 0, 75, 0
2, 20615, Note_on_c, 0, 77, 64
2, 20654, Note_on_c, 0, 60, 0
2, 20690, Note_on_c, 0, 58, 52
2, 20698, Note_on_c, 0, 77, 0
2, 20703, Note_on_c, 0, 79, 66
2, 20743, Note_on_c, 0, 58, 0
2, 20761, Note_on_c, 0, 79, 0
2, 20766, Note_on_c, 0, 75, 67
2, 20865, Note_on_c, 0, 80, 70
2, 20867, Note_on_c, 0, 75, 0
2, 20868, Note_on_c, 0, 60, 60
2, 20906, Note_on_c, 0, 80, 0
2, 20930, Note_on_c, 0, 60, 0
2, 20950, Note_on_c, 0, 58, 60
2, 21024, Note_on_c, 0, 58, 0
2, 21042, Note_on_c, 0, 56, 57
2, 21054, Note_on_c, 0, 68, 71
2, 21088, Note_on_c, 0, 68, 0
2, 21124, Note_on_c, 0, 58, 57
2, 21126, Note_on_c, 0, 56, 0
2, 21194, Note_on_c, 0, 58, 0
2, 21219, Note_on_c, 0, 60, 57
2, 21225, Note_on_c, 0, 80, 80
2, 21291, Note_on_c, 0, 60, 0
2, 21308, Note_on_c, 0, 56, 59
2, 21381, Note_on_c, 0, 56, 0
2, 21408, Note_on_c, 0, 62, 65
2, 21475, Note_on_c, 0, 80, 0
2, 21485, Note_on_c, 0, 62, 0
2, 21497, Note_on_c, 0, 60, 63
2, 21561, Note_on_c, 0, 60, 0
2, 21574, Note_on_c, 0, 58, 67
2, 21587, Note_on_c, 0, 78, 77
2, 21669, Note_on_c, 0, 58, 0
2, 21675, Note_on_c, 0, 60, 63
2, 21722, Note_on_c, 0, 60, 0
2, 21750, Note_on_c, 0, 78, 0
2, 21752, Note_on_c, 0, 62, 59
2, 21753, Note_on_c, 0, 77, 70
2, 21799, Note_on_c, 0, 62, 0
2, 21805, Note_on_c, 0, 77, 0
2, 21837, Note_on_c, 0, 58, 60
2, 21908, Note_on_c, 0, 58, 0
2, 21934, Note_on_c, 0, 63, 71
2, 21936, Note_on_c, 0, 78, 69
2, 21965, Note_on_c, 0, 78, 0
2, 22004, Note_on_c, 0, 63, 0
2, 22020, Note_on_c, 0, 62, 61
2, 22089, Note_on_c, 0, 62, 0
2, 22108, Note_on_c, 0, 66, 66
2, 22110, Note_on_c, 0, 63, 66
2, 22151, Note_on_c, 0, 66, 0
2, 22182, Note_on_c, 0, 63, 0
2, 22200, Note_on_c, 0, 65, 69
2, 22274, Note_on_c, 0, 63, 61
2, 22278, Note_on_c, 0, 65, 0
2, 22304, Note_on_c, 0, 78, 76
2, 22361, Note_on_c, 0, 61, 69
2, 22377, Note_on_c, 0, 63, 0
2, 22425, Note_on_c, 0, 61, 0
2, 22466, Note_on_c, 0, 60, 67
2, 22533, Note_on_c, 0, 60, 0
2, 22548, Note_on_c, 0, 58, 69
2, 22588, Note_on_c, 0, 78, 0
2, 22639, Note_on_c, 0, 58, 0
2, 22651, Note_on_c, 0, 56, 66
2, 22659, Note_on_c, 0, 77, 67
2, 22736, Note_on_c, 0, 58, 63
2, 22745, Note_on_c, 0, 56, 0
2, 22805, Note_on_c, 0, 58, 0
2, 22823, Note_on_c, 0, 75, 59
2, 22824, Note_on_c, 0, 60, 58
2, 22824, Note_on_c, 0, 77, 0
2, 22869, Note_on_c, 0, 75, 0
2, 22881, Note_on_c, 0, 60, 0
2, 22904, Note_on_c, 0, 56, 62
2, 22975, Note_on_c, 0, 56, 0
2, 22995, Note_on_c, 0, 77, 58
2, 22998, Note_on_c, 0, 61, 70
2, 23035, Note_on_c, 0, 61, 0
2, 23077, Note_on_c, 0, 77, 0
2, 23080, Note_on_c, 0, 75, 60
2, 23150, Note_on_c, 0, 75, 0
2, 23164, Note_on_c, 0, 49, 64
2, 23171, Note_on_c, 0, 73, 63
2, 23195, Note_on_c, 0, 49, 0
2, 23259, Note_on_c, 0, 73, 0
2, 23263, Note_on_c, 0, 75, 47
2, 23325, Note_on_c, 0, 75, 0
2, 23336, Note_on_c, 0, 77, 65
2, 23349, Note_on_c, 0, 61, 61
2, 23434, Note_on_c, 0, 77, 0
2, 23441, Note_on_c, 0, 73, 64
2, 23516, Note_on_c, 0, 61, 0
2, 23525, Note_on_c, 0, 79, 68
2, 23526, Note_on_c, 0, 73, 0
2, 23618, Note_on_c, 0, 77, 59
2, 23640, Note_on_c, 0, 79, 0
2, 23682, Note_on_c, 0, 59, 51
2, 23683, Note_on_c, 0, 77, 0
2, 23693, Note_on_c, 0, 75, 65
2, 23746, Note_on_c, 0, 75, 0
2, 23780, Note_on_c, 0, 77, 58
2, 23838, Note_on_c, 0, 77, 0
2, 23856, Note_on_c, 0, 58, 54
2, 23857, Note_on_c, 0, 59, 0
2, 23863, Note_on_c, 0, 79, 55
2, 23896, Note_on_c, 0, 79, 0
2, 23897, Note_on_c, 0, 58, 0
2, 23945, Note_on_c, 0, 75, 59
2, 24026, Note_on_c, 0, 75, 0
2, 24032, Note_on_c, 0, 80, 67
2, 24036, Note_on_c, 0, 59, 58
2, 24068, Note_on_c, 0, 59, 0
2, 24097, Note_on_c, 0, 80, 0
2, 24125, Note_on_c, 0, 79, 65
2, 24203, Note_on_c, 0, 79, 0
2, 24213, Note_on_c, 0, 47, 57
2, 24213, Note_on_c, 0, 80, 69
2, 24244, Note_on_c, 0, 47, 0
2, 24287, Note_on_c, 0, 80, 0
2, 24308, Note_on_c, 0, 82, 68
2, 24395, Note_on_c, 0, 82, 0
2, 24401, Note_on_c, 0, 59, 61
2, 24401, Note_on_c, 0, 80, 69
2, 24493, Note_on_c, 0, 78, 66
2, 24505, Note_on_c, 0, 80, 0
2, 24558, Note_on_c, 0, 78, 0
2, 24583, Note_on_c, 0, 77, 62
2, 24616, Note_on_c, 0, 59, 0
2, 24667, Note_on_c, 0, 77, 0
2, 24670, Note_on_c, 0, 75, 59
2, 24729, Note_on_c, 0, 58, 50
2, 24744, Note_on_c, 0, 75, 0
2, 24764, Note_on_c, 0, 73, 57
2, 24814, Control_c, 0, 67, 8
2, 24829, Control_c, 0, 67, 11
2, 24841, Note_on_c, 0, 75, 53
2, 24844, Control_c, 0, 67, 15
2, 24844, Note_on_c, 0, 73, 0
2, 24860, Control_c, 0, 67, 24
2, 24875, Control_c, 0, 67, 36
2, 24890, Control_c, 0, 67, 49
2, 24901, Note_on_c, 0, 58, 0
2, 24906, Control_c, 0, 67, 64
2, 24911, Note_on_c, 0, 56, 49
2, 24915, Note_on_c, 0, 77, 63
2, 24921, Control_c, 0, 67, 80
2, 24936, Control_c, 0, 67, 100
2, 24948, Note_on_c, 0, 56, 0
2, 24951, Control_c, 0, 67, 125
2, 24966, Control_c, 0, 67, 127
2, 24996, Note_on_c, 0, 73, 61
2, 24998, Note_on_c, 0, 77, 0
2, 25003, Note_on_c, 0, 75, 0
2, 25064, Note_on_c, 0, 73, 0
2, 25091, Note_on_c, 0, 58, 49
2, 25099, Note_on_c, 0, 66, 63
2, 25171, Note_on_c, 0, 58, 0
2, 25184, Note_on_c, 0, 54, 56
2, 25276, Note_on_c, 0, 54, 0
2, 25287, Note_on_c, 0, 49, 55
2, 25299, Note_on_c, 0, 66, 0
2, 25355, Note_on_c, 0, 49, 0
2, 25369, Note_on_c, 0, 54, 54
2, 25441, Note_on_c, 0, 54, 0
2, 25462, Note_on_c, 0, 58, 57
2, 25467, Note_on_c, 0, 78, 52
2, 25510, Note_on_c, 0, 78, 0
2, 25521, Note_on_c, 0, 58, 0
2, 25567, Note_on_c, 0, 54, 52
2, 25618, Note_on_c, 0, 54, 0
2, 25645, Note_on_c, 0, 68, 65
2, 25664, Note_on_c, 0, 59, 55
2, 25721, Note_on_c, 0, 59, 0
2, 25752, Note_on_c, 0, 54, 58
2, 25818, Note_on_c, 0, 54, 0
2, 25832, Note_on_c, 0, 68, 0
2, 25838, Note_on_c, 0, 59, 62
2, 25902, Note_on_c, 0, 59, 0
2, 25936, Note_on_c, 0, 54, 59
2, 25993, Note_on_c, 0, 54, 0
2, 26004, Note_on_c, 0, 78, 62
2, 26028, Note_on_c, 0, 59, 59
2, 26048, Note_on_c, 0, 78, 0
2, 26069, Note_on_c, 0, 59, 0
2, 26110, Note_on_c, 0, 54, 58
2, 26168, Note_on_c, 0, 54, 0
2, 26202, Note_on_c, 0, 70, 69
2, 26205, Note_on_c, 0, 61, 61
2, 26282, Note_on_c, 0, 61, 0
2, 26288, Note_on_c, 0, 54, 68
2, 26358, Note_on_c, 0, 70, 0
2, 26363, Note_on_c, 0, 54, 0
2, 26383, Note_on_c, 0, 61, 71
2, 26448, Note_on_c, 0, 61, 0
2, 26465, Note_on_c, 0, 54, 62
2, 26528, Note_on_c, 0, 54, 0
2, 26550, Note_on_c, 0, 61, 66
2, 26553, Note_on_c, 0, 78, 67
2, 26602, Note_on_c, 0, 78, 0
2, 26609, Note_on_c, 0, 61, 0
2, 26636, Note_on_c, 0, 54, 59
2, 26708, Note_on_c, 0, 54, 0
2, 26743, Note_on_c, 0, 63, 67
2, 26750, Note_on_c, 0, 71, 67
2, 26813, Note_on_c, 0, 63, 0
2, 26836, Note_on_c, 0, 54, 64
2, 26887, Note_on_c, 0, 54, 0
2, 26908, Note_on_c, 0, 71, 0
2, 26930, Note_on_c, 0, 63, 67
2, 26997, Note_on_c, 0, 63, 0
2, 27009, Note_on_c, 0, 54, 60
2, 27080, Note_on_c, 0, 54, 0
2, 27096, Note_on_c, 0, 78, 62
2, 27117, Note_on_c, 0, 63, 59
2, 27145, Note_on_c, 0, 78, 0
2, 27153, Note_on_c, 0, 63, 0
2, 27196, Note_on_c, 0, 54, 57
2, 27256, Note_on_c, 0, 54, 0
2, 27280, Note_on_c, 0, 61, 63
2, 27294, Note_on_c, 0, 70, 66
2, 27333, Note_on_c, 0, 61, 0
2, 27367, Note_on_c, 0, 54, 60
2, 27432, Note_on_c, 0, 54, 0
2, 27449, Note_on_c, 0, 61, 65
2, 27479, Note_on_c, 0, 70, 0
2, 27515, Note_on_c, 0, 61, 0
2, 27549, Note_on_c, 0, 54, 58
2, 27606, Note_on_c, 0, 54, 0
2, 27630, Note_on_c, 0, 61, 63
2, 27644, Note_on_c, 0, 78, 62
2, 27671, Note_on_c, 0, 61, 0
2, 27677, Note_on_c, 0, 78, 0
2, 27714, Note_on_c, 0, 54, 55
2, 27781, Note_on_c, 0, 54, 0
2, 27813, Note_on_c, 0, 59, 59
2, 27844, Note_on_c, 0, 68, 64
2, 27889, Note_on_c, 0, 59, 0
2, 27907, Note_on_c, 0, 58, 58
2, 27974, Note_on_c, 0, 68, 0
2, 27991, Note_on_c, 0, 58, 0
2, 28000, Note_on_c, 0, 56, 61
2, 28089, Note_on_c, 0, 56, 0
2, 28100, Note_on_c, 0, 58, 60
2, 28154, Note_on_c, 0, 58, 0
2, 28167, Note_on_c, 0, 77, 57
2, 28183, Note_on_c, 0, 59, 55
2, 28224, Note_on_c, 0, 77, 0
2, 28242, Note_on_c, 0, 59, 0
2, 28273, Note_on_c, 0, 56, 60
2, 28356, Note_on_c, 0, 56, 0
2, 28370, Note_on_c, 0, 66, 66
2, 28376, Note_on_c, 0, 58, 53
2, 28452, Note_on_c, 0, 58, 0
2, 28466, Note_on_c, 0, 56, 58
2, 28520, Note_on_c, 0, 66, 0
2, 28535, Note_on_c, 0, 56, 0
2, 28548, Note_on_c, 0, 54, 55
2, 28619, Note_on_c, 0, 56, 52
2, 28643, Note_on_c, 0, 54, 0
2, 28716, Note_on_c, 0, 56, 0
2, 28721, Note_on_c, 0, 78, 74
2, 28736, Note_on_c, 0, 58, 57
2, 28811, Note_on_c, 0, 58, 0
2, 28837, Note_on_c, 0, 54, 54
2, 28917, Note_on_c, 0, 56, 63
2, 28931, Note_on_c, 0, 54, 0
2, 28983, Note_on_c, 0, 78, 0
2, 29006, Note_on_c, 0, 56, 0
2, 29022, Note_on_c, 0, 58, 61
2, 29099, Note_on_c, 0, 58, 0
2, 29099, Note_on_c, 0, 77, 76
2, 29109, Note_on_c, 0, 56, 50
2, 29177, Note_on_c, 0, 54, 65
2, 29183, Note_on_c, 0, 56, 0
2, 29186, Note_on_c, 0, 75, 69
2, 29206, Note_on_c, 0, 77, 0
2, 29242, Note_on_c, 0, 54, 0
2, 29256, Note_on_c, 0, 75, 0
2, 29266, Note_on_c, 0, 73, 69
2, 29275, Note_on_c, 0, 53, 70
2, 29345, Note_on_c, 0, 53, 0
2, 29349, Note_on_c, 0, 75, 68
2, 29350, Note_on_c, 0, 73, 0
2, 29372, Note_on_c, 0, 51, 69
2, 29440, Note_on_c, 0, 49, 82
2, 29441, Note_on_c, 0, 77, 76
2, 29446, Note_on_c, 0, 75, 0
2, 29452, Note_on_c, 0, 51, 0
2, 29533, Note_on_c, 0, 73, 73
2, 29538, Note_on_c, 0, 77, 0
2, 29599, Note_on_c, 0, 73, 0
2, 29627, Note_on_c, 0, 49, 0
2, 29634, Note_on_c, 0, 68, 72
2, 29716, Note_on_c, 0, 73, 70
2, 29725, Note_on_c, 0, 68, 0
2, 29772, Note_on_c, 0, 61, 76
2, 29786, Note_on_c, 0, 73, 0
2, 29804, Note_on_c, 0, 77, 73
2, 29816, Note_on_c, 0, 61, 0
2, 29881, Note_on_c, 0, 77, 0
2, 29883, Note_on_c, 0, 73, 67
2, 29962, Note_on_c, 0, 51, 73
2, 29963, Note_on_c, 0, 78, 78
2, 29969, Note_on_c, 0, 73, 0
2, 30021, Note_on_c, 0, 78, 0
2, 30048, Note_on_c, 0, 73, 70
2, 30133, Note_on_c, 0, 73, 0
2, 30133, Note_on_c, 0, 78, 78
2, 30162, Note_on_c, 0, 51, 0
2, 30194, Note_on_c, 0, 78, 0
2, 30215, Note_on_c, 0, 73, 72
2, 30305, Note_on_c, 0, 73, 0
2, 30306, Note_on_c, 0, 78, 77
2, 30309, Note_on_c, 0, 61, 48
2, 30343, Note_on_c, 0, 61, 0
2, 30366, Note_on_c, 0, 78, 0
2, 30392, Note_on_c, 0, 73, 69
2, 30473, Note_on_c, 0, 73, 0
2, 30480, Note_on_c, 0, 53, 63
2, 30488, Note_on_c, 0, 80, 82
2, 30573, Note_on_c, 0, 80, 0
2, 30583, Note_on_c, 0, 73, 77
2, 30670, Note_on_c, 0, 73, 0
2, 30673, Note_on_c, 0, 80, 82
2, 30691, Note_on_c, 0, 53, 0
2, 30743, Note_on_c, 0, 80, 0
2, 30754, Note_on_c, 0, 73, 77
2, 30823, Note_on_c, 0, 61, 61
2, 30832, Note_on_c, 0, 73, 0
2, 30843, Note_on_c, 0, 80, 83
2, 30858, Note_on_c, 0, 61, 0
2, 30865, Control_c, 0, 67, 117
2, 30880, Control_c, 0, 67, 63
2, 30895, Control_c, 0, 67, 0
2, 30911, Note_on_c, 0, 80, 0
2, 30922, Note_on_c, 0, 73, 80
2, 30996, Note_on_c, 0, 73, 0
2, 31003, Note_on_c, 0, 54, 62
2, 31024, Note_on_c, 0, 82, 89
2, 31108, Note_on_c, 0, 73, 80
2, 31111, Note_on_c, 0, 82, 0
2, 31183, Note_on_c, 0, 73, 0
2, 31206, Note_on_c, 0, 82, 87
2, 31235, Note_on_c, 0, 54, 0
2, 31282, Note_on_c, 0, 73, 77
2, 31289, Note_on_c, 0, 82, 0
2, 31360, Note_on_c, 0, 61, 68
2, 31368, Note_on_c, 0, 73, 0
2, 31385, Note_on_c, 0, 82, 77
2, 31402, Note_on_c, 0, 61, 0
2, 31463, Note_on_c, 0, 82, 0
2, 31464, Note_on_c, 0, 73, 73
2, 31539, Note_on_c, 0, 53, 63
2, 31546, Note_on_c, 0, 73, 0
2, 31560, Note_on_c, 0, 80, 79
2, 31636, Note_on_c, 0, 80, 0
2, 31646, Note_on_c, 0, 73, 76
2, 31716, Note_on_c, 0, 73, 0
2, 31732, Note_on_c, 0, 80, 79
2, 31739, Note_on_c, 0, 53, 0
2, 31800, Note_on_c, 0, 80, 0
2, 31815, Note_on_c, 0, 73, 75
2, 31883, Note_on_c, 0, 73, 0
2, 31886, Note_on_c, 0, 61, 57
2, 31902, Note_on_c, 0, 80, 75
2, 31926, Note_on_c, 0, 61, 0
2, 31954, Note_on_c, 0, 80, 0
2, 31975, Note_on_c, 0, 73, 73
2, 32051, Note_on_c, 0, 73, 0
2, 32054, Note_on_c, 0, 51, 60
2, 32062, Note_on_c, 0, 78, 72
2, 32152, Note_on_c, 0, 78, 0
2, 32158, Note_on_c, 0, 77, 70
2, 32233, Note_on_c, 0, 77, 0
2, 32240, Note_on_c, 0, 75, 71
2, 32273, Note_on_c, 0, 51, 0
2, 32317, Note_on_c, 0, 77, 71
2, 32342, Note_on_c, 0, 75, 0
2, 32400, Note_on_c, 0, 60, 54
2, 32406, Note_on_c, 0, 78, 72
2, 32429, Note_on_c, 0, 77, 0
2, 32431, Note_on_c, 0, 60, 0
2, 32494, Note_on_c, 0, 75, 68
2, 32496, Note_on_c, 0, 78, 0
2, 32564, Note_on_c, 0, 49, 58
2, 32573, Note_on_c, 0, 77, 73
2, 32578, Note_on_c, 0, 75, 0
2, 32666, Note_on_c, 0, 75, 71
2, 32673, Note_on_c, 0, 77, 0
2, 32747, Note_on_c, 0, 73, 72
2, 32749, Note_on_c, 0, 75, 0
2, 32781, Note_on_c, 0, 49, 0
2, 32839, Note_on_c, 0, 75, 70
2, 32866, Note_on_c, 0, 73, 0
2, 32920, Note_on_c, 0, 77, 74
2, 32935, Note_on_c, 0, 75, 0
2, 32939, Note_on_c, 0, 61, 58
2, 32971, Note_on_c, 0, 61, 0
2, 33009, Note_on_c, 0, 77, 0
2, 33010, Note_on_c, 0, 73, 73
2, 33099, Note_on_c, 0, 75, 74
2, 33108, Note_on_c, 0, 54, 63
2, 33130, Note_on_c, 0, 73, 0
2, 33155, Note_on_c, 0, 54, 0
2, 33176, Note_on_c, 0, 75, 0
2, 33183, Note_on_c, 0, 77, 68
2, 33275, Note_on_c, 0, 75, 65
2, 33282, Note_on_c, 0, 77, 0
2, 33283, Note_on_c, 0, 53, 47
2, 33321, Note_on_c, 0, 53, 0
2, 33365, Note_on_c, 0, 73, 61
2, 33384, Note_on_c, 0, 75, 0
2, 33427, Note_on_c, 0, 73, 0
2, 33448, Note_on_c, 0, 51, 58
2, 33451, Note_on_c, 0, 72, 65
2, 33482, Note_on_c, 0, 51, 0
2, 33525, Note_on_c, 0, 72, 0
2, 33528, Note_on_c, 0, 70, 66
2, 33621, Note_on_c, 0, 70, 0
2, 33623, Note_on_c, 0, 72, 61
2, 33629, Note_on_c, 0, 56, 67
2, 33666, Note_on_c, 0, 56, 0
2, 33697, Note_on_c, 0, 72, 0
2, 33725, Note_on_c, 0, 68, 57
2, 33767, Note_on_c, 0, 68, 0
2, 33815, Note_on_c, 0, 66, 66
2, 33849, Note_on_c, 0, 66, 0
2, 33885, Note_on_c, 0, 68, 61
2, 33922, Note_on_c, 0, 68, 0
2, 33997, Note_on_c, 0, 63, 62
2, 34022, Note_on_c, 0, 63, 0
2, 34074, Note_on_c, 0, 68, 49
2, 34123, Note_on_c, 0, 68, 0
2, 34152, Note_on_c, 0, 72, 61
2, 34164, Note_on_c, 0, 56, 63
2, 34196, Note_on_c, 0, 56, 0
2, 34209, Note_on_c, 0, 72, 0
2, 34232, Note_on_c, 0, 68, 61
2, 34273, Note_on_c, 0, 68, 0
2, 34331, Note_on_c, 0, 66, 70
2, 34361, Note_on_c, 0, 66, 0
2, 34427, Note_on_c, 0, 68, 58
2, 34459, Note_on_c, 0, 68, 0
2, 34525, Note_on_c, 0, 63, 59
2, 34549, Note_on_c, 0, 63, 0
2, 34575, Note_on_c, 0, 68, 57
2, 34681, Note_on_c, 0, 68, 0
2, 34696, Note_on_c, 0, 56, 61
2, 34696, Note_on_c, 0, 73, 65
2, 34723, Note_on_c, 0, 56, 0
2, 34746, Note_on_c, 0, 73, 0
2, 34796, Note_on_c, 0, 68, 58
2, 34822, Note_on_c, 0, 68, 0
2, 34882, Note_on_c, 0, 65, 54
2, 34906, Note_on_c, 0, 65, 0
2, 34956, Note_on_c, 0, 68, 53
2, 35002, Note_on_c, 0, 68, 0
2, 35045, Note_on_c, 0, 61, 61
2, 35077, Note_on_c, 0, 61, 0
2, 35130, Note_on_c, 0, 68, 56
2, 35206, Note_on_c, 0, 68, 0
2, 35226, Note_on_c, 0, 56, 68
2, 35226, Note_on_c, 0, 73, 70
2, 35262, Note_on_c, 0, 56, 0
2, 35272, Note_on_c, 0, 73, 0
2, 35317, Note_on_c, 0, 68, 63
2, 35350, Note_on_c, 0, 68, 0
2, 35407, Note_on_c, 0, 65, 64
2, 35438, Note_on_c, 0, 65, 0
2, 35476, Note_on_c, 0, 68, 51
2, 35506, Note_on_c, 0, 68, 0
2, 35570, Note_on_c, 0, 61, 62
2, 35596, Note_on_c, 0, 61, 0
2, 35637, Note_on_c, 0, 68, 49
2, 35717, Note_on_c, 0, 68, 0
2, 35738, Note_on_c, 0, 56, 68
2, 35747, Note_on_c, 0, 78, 81
2, 35773, Note_on_c, 0, 56, 0
2, 35803, Note_on_c, 0, 78, 0
2, 35839, Note_on_c, 0, 68, 66
2, 35873, Note_on_c, 0, 68, 0
2, 35915, Note_on_c, 0, 63, 66
2, 35956, Note_on_c, 0, 63, 0
2, 36009, Note_on_c, 0, 68, 56
2, 36045, Note_on_c, 0, 68, 0
2, 36104, Note_on_c, 0, 60, 63
2, 36135, Note_on_c, 0, 60, 0
2, 36175, Note_on_c, 0, 68, 54
2, 36247, Note_on_c, 0, 68, 0
2, 36268, Note_on_c, 0, 56, 68
2, 36272, Note_on_c, 0, 78, 76
2, 36304, Note_on_c, 0, 56, 0
2, 36322, Note_on_c, 0, 78, 0
2, 36362, Note_on_c, 0, 68, 62
2, 36398, Note_on_c, 0, 68, 0
2, 36446, Note_on_c, 0, 63, 60
2, 36480, Note_on_c, 0, 63, 0
2, 36512, Note_on_c, 0, 68, 57
2, 36552, Note_on_c, 0, 68, 0
2, 36615, Note_on_c, 0, 60, 60
2, 36649, Note_on_c, 0, 60, 0
2, 36655, Note_on_c, 0, 68, 62
2, 36773, Note_on_c, 0, 77, 71
2, 36774, Note_on_c, 0, 56, 72
2, 36774, Note_on_c, 0, 68, 0
2, 36810, Note_on_c, 0, 56, 0
2, 36858, Note_on_c, 0, 77, 0
2, 36891, Note_on_c, 0, 68, 55
2, 36930, Note_on_c, 0, 68, 0
2, 36958, Note_on_c, 0, 65, 59
2, 36995, Note_on_c, 0, 65, 0
2, 37048, Note_on_c, 0, 68, 58
2, 37098, Note_on_c, 0, 68, 0
2, 37127, Note_on_c, 0, 61, 63
2, 37169, Note_on_c, 0, 61, 0
2, 37223, Note_on_c, 0, 68, 62
2, 37291, Note_on_c, 0, 56, 67
2, 37291, Note_on_c, 0, 77, 70
2, 37294, Note_on_c, 0, 68, 0
2, 37325, Note_on_c, 0, 56, 0
2, 37359, Note_on_c, 0, 77, 0
2, 37392, Note_on_c, 0, 68, 66
2, 37436, Note_on_c, 0, 68, 0
2, 37464, Note_on_c, 0, 65, 63
2, 37503, Note_on_c, 0, 65, 0
2, 37542, Note_on_c, 0, 68, 62
2, 37574, Note_on_c, 0, 68, 0
2, 37629, Note_on_c, 0, 61, 63
2, 37663, Note_on_c, 0, 61, 0
2, 37693, Note_on_c, 0, 68, 65
2, 37761, Note_on_c, 0, 68, 0
2, 37775, Note_on_c, 0, 79, 82
2, 37782, Note_on_c, 0, 56, 76
2, 37816, Note_on_c, 0, 56, 0
2, 37860, Note_on_c, 0, 79, 0
2, 37873, Note_on_c, 0, 70, 67
2, 37916, Note_on_c, 0, 70, 0
2, 37949, Note_on_c, 0, 64, 66
2, 37984, Note_on_c, 0, 64, 0
2, 38033, Note_on_c, 0, 70, 65
2, 38089, Note_on_c, 0, 70, 0
2, 38101, Note_on_c, 0, 61, 77
2, 38143, Note_on_c, 0, 61, 0
2, 38190, Note_on_c, 0, 70, 71
2, 38280, Note_on_c, 0, 56, 78
2, 38280, Note_on_c, 0, 79, 81
2, 38281, Note_on_c, 0, 70, 0
2, 38320, Note_on_c, 0, 56, 0
2, 38367, Note_on_c, 0, 79, 0
2, 38368, Note_on_c, 0, 70, 75
2, 38430, Note_on_c, 0, 70, 0
2, 38453, Note_on_c, 0, 64, 69
2, 38494, Note_on_c, 0, 64, 0
2, 38517, Note_on_c, 0, 70, 60
2, 38564, Note_on_c, 0, 70, 0
2, 38610, Note_on_c, 0, 61, 70
2, 38650, Note_on_c, 0, 61, 0
2, 38671, Note_on_c, 0, 70, 70
2, 38735, Note_on_c, 0, 70, 0
2, 38761, Note_on_c, 0, 80, 78
2, 38771, Note_on_c, 0, 56, 79
2, 38813, Note_on_c, 0, 56, 0
2, 38833, Note_on_c, 0, 80, 0
2, 38863, Note_on_c, 0, 72, 63
2, 38896, Note_on_c, 0, 72, 0
2, 38937, Note_on_c, 0, 63, 73
2, 38972, Note_on_c, 0, 63, 0
2, 39024, Note_on_c, 0, 72, 64
2, 39074, Note_on_c, 0, 72, 0
2, 39097, Note_on_c, 0, 60, 70
2, 39138, Note_on_c, 0, 60, 0
2, 39189, Note_on_c, 0, 72, 68
2, 39251, Note_on_c, 0, 72, 0
2, 39259, Note_on_c, 0, 54, 81
2, 39261, Note_on_c, 0, 80, 80
2, 39301, Note_on_c, 0, 54, 0
2, 39337, Note_on_c, 0, 80, 0
2, 39359, Note_on_c, 0, 72, 71
2, 39400, Note_on_c, 0, 72, 0
2, 39450, Note_on_c, 0, 63, 65
2, 39485, Note_on_c, 0, 63, 0
2, 39530, Note_on_c, 0, 72, 65
2, 39583, Note_on_c, 0, 72, 0
2, 39615, Note_on_c, 0, 60, 60
2, 39661, Note_on_c, 0, 60, 0
2, 39698, Note_on_c, 0, 72, 62
2, 39757, Note_on_c, 0, 72, 0
2, 39792, Note_on_c, 0, 53, 64
2, 39792, Note_on_c, 0, 80, 71
2, 39830, Note_on_c, 0, 53, 0
2, 39882, Note_on_c, 0, 73, 63
2, 39883, Note_on_c, 0, 80, 0
2, 39914, Note_on_c, 0, 73, 0
2, 39965, Note_on_c, 0, 65, 68
2, 39997, Note_on_c, 0, 65, 0
2, 40032, Note_on_c, 0, 68, 64
2, 40063, Note_on_c, 0, 68, 0
2, 40123, Note_on_c, 0, 61, 69
2, 40168, Note_on_c, 0, 61, 0
2, 40219, Note_on_c, 0, 73, 68
2, 40258, Note_on_c, 0, 73, 0
2, 40288, Note_on_c, 0, 56, 76
2, 40343, Note_on_c, 0, 56, 0
2, 40382, Note_on_c, 0, 77, 72
2, 40426, Note_on_c, 0, 77, 0
2, 40454, Note_on_c, 0, 53, 76
2, 40502, Note_on_c, 0, 53, 0
2, 40562, Note_on_c, 0, 80, 75
2, 40615, Note_on_c, 0, 80, 0
2, 40621, Note_on_c, 0, 51, 73
2, 40682, Note_on_c, 0, 51, 0
2, 40718, Note_on_c, 0, 82, 73
2, 40793, Note_on_c, 0, 50, 62
2, 40804, Note_on_c, 0, 82, 0
2, 40808, Note_on_c, 0, 83, 73
2, 40848, Note_on_c, 0, 50, 0
2, 40901, Note_on_c, 0, 82, 75
2, 40942, Note_on_c, 0, 83, 0
2, 40970, Note_on_c, 0, 80, 77
2, 40982, Note_on_c, 0, 53, 54
2, 41005, Note_on_c, 0, 82, 0
2, 41029, Note_on_c, 0, 53, 0
2, 41062, Note_on_c, 0, 78, 76
2, 41074, Note_on_c, 0, 80, 0
2, 41113, Note_on_c, 0, 78, 0
2, 41129, Note_on_c, 0, 58, 65
2, 41136, Note_on_c, 0, 77, 72
2, 41166, Note_on_c, 0, 58, 0
2, 41210, Note_on_c, 0, 77, 0
2, 41219, Note_on_c, 0, 75, 71
2, 41271, Note_on_c, 0, 75, 0
2, 41300, Note_on_c, 0, 62, 74
2, 41302, Note_on_c, 0, 77, 74
2, 41353, Note_on_c, 0, 62, 0
2, 41385, Note_on_c, 0, 77, 0
2, 41389, Note_on_c, 0, 78, 73
2, 41462, Note_on_c, 0, 65, 72
2, 41472, Note_on_c, 0, 80, 76
2, 41475, Note_on_c, 0, 78, 0
2, 41502, Note_on_c, 0, 65, 0
2, 41539, Note_on_c, 0, 80, 0
2, 41558, Note_on_c, 0, 83, 66
2, 41625, Note_on_c, 0, 68, 74
2, 41647, Note_on_c, 0, 82, 56
2, 41656, Note_on_c, 0, 68, 0
2, 41672, Note_on_c, 0, 83, 0
2, 41711, Note_on_c, 0, 80, 65
2, 41711, Note_on_c, 0, 82, 0
2, 41798, Note_on_c, 0, 80, 0
2, 41799, Note_on_c, 0, 82, 69
2, 41804, Note_on_c, 0, 66, 79
2, 41835, Note_on_c, 0, 66, 0
2, 41878, Note_on_c, 0, 82, 0
2, 41892, Note_on_c, 0, 75, 59
2, 41920, Note_on_c, 0, 75, 0
2, 41966, Note_on_c, 0, 63, 68
2, 42009, Note_on_c, 0, 63, 0
2, 42050, Note_on_c, 0, 66, 63
2, 42083, Note_on_c, 0, 66, 0
2, 42147, Note_on_c, 0, 58, 69
2, 42184, Note_on_c, 0, 58, 0
2, 42226, Note_on_c, 0, 70, 63
2, 42257, Note_on_c, 0, 70, 0
2, 42312, Note_on_c, 0, 54, 71
2, 42356, Note_on_c, 0, 54, 0
2, 42394, Note_on_c, 0, 75, 63
2, 42424, Note_on_c, 0, 75, 0
2, 42483, Note_on_c, 0, 51, 70
2, 42537, Note_on_c, 0, 51, 0
2, 42575, Note_on_c, 0, 78, 64
2, 42606, Note_on_c, 0, 78, 0
2, 42652, Note_on_c, 0, 49, 67
2, 42715, Note_on_c, 0, 49, 0
2, 42730, Note_on_c, 0, 80, 62
2, 42787, Note_on_c, 0, 80, 0
2, 42810, Note_on_c, 0, 81, 68
2, 42821, Note_on_c, 0, 48, 69
2, 42879, Note_on_c, 0, 48, 0
2, 42918, Note_on_c, 0, 80, 61
2, 42944, Note_on_c, 0, 81, 0
2, 42990, Note_on_c, 0, 78, 66
2, 43000, Note_on_c, 0, 51, 53
2, 43011, Note_on_c, 0, 80, 0
2, 43045, Note_on_c, 0, 51, 0
2, 43053, Note_on_c, 0, 78, 0
2, 43089, Note_on_c, 0, 76, 58
2, 43149, Note_on_c, 0, 56, 57
2, 43162, Note_on_c, 0, 76, 0
2, 43169, Note_on_c, 0, 75, 61
2, 43190, Note_on_c, 0, 56, 0
2, 43244, Note_on_c, 0, 75, 0
2, 43254, Note_on_c, 0, 73, 61
2, 43327, Note_on_c, 0, 60, 70
2, 43342, Note_on_c, 0, 73, 0
2, 43342, Note_on_c, 0, 75, 61
2, 43365, Note_on_c, 0, 60, 0
2, 43387, Note_on_c, 0, 75, 0
2, 43421, Note_on_c, 0, 76, 59
2, 43495, Note_on_c, 0, 76, 0
2, 43497, Note_on_c, 0, 63, 73
2, 43504, Note_on_c, 0, 78, 69
2, 43537, Note_on_c, 0, 63, 0
2, 43574, Note_on_c, 0, 78, 0
2, 43584, Note_on_c, 0, 81, 66
2, 43659, Note_on_c, 0, 66, 72
2, 43677, Note_on_c, 0, 80, 61
2, 43702, Note_on_c, 0, 81, 0
2, 43704, Note_on_c, 0, 66, 0
2, 43743, Note_on_c, 0, 78, 64
2, 43746, Note_on_c, 0, 80, 0
2, 43822, Note_on_c, 0, 78, 0
2, 43824, Note_on_c, 0, 80, 66
2, 43829, Note_on_c, 0, 64, 69
2, 43879, Note_on_c, 0, 64, 0
2, 43895, Note_on_c, 0, 80, 0
2, 43993, Note_on_c, 0, 61, 70
2, 44053, Note_on_c, 0, 61, 0
2, 44087, Note_on_c, 0, 76, 41
2, 44113, Note_on_c, 0, 76, 0
2, 44155, Note_on_c, 0, 57, 64
2, 44189, Note_on_c, 0, 57, 0
2, 44234, Note_on_c, 0, 73, 60
2, 44267, Note_on_c, 0, 73, 0
2, 44308, Note_on_c, 0, 54, 66
2, 44350, Note_on_c, 0, 54, 0
2, 44412, Note_on_c, 0, 69, 61
2, 44452, Note_on_c, 0, 69, 0
2, 44489, Note_on_c, 0, 63, 72
2, 44525, Note_on_c, 0, 63, 0
2, 44567, Note_on_c, 0, 66, 66
2, 44600, Note_on_c, 0, 66, 0
2, 44650, Note_on_c, 0, 60, 70
2, 44696, Note_on_c, 0, 60, 0
2, 44728, Note_on_c, 0, 75, 61
2, 44763, Note_on_c, 0, 75, 0
2, 44822, Note_on_c, 0, 52, 71
2, 44855, Note_on_c, 0, 52, 0
2, 44895, Note_on_c, 0, 68, 61
2, 44932, Note_on_c, 0, 68, 0
2, 44987, Note_on_c, 0, 61, 70
2, 45024, Note_on_c, 0, 61, 0
2, 45065, Note_on_c, 0, 64, 60
2, 45109, Note_on_c, 0, 64, 0
2, 45159, Note_on_c, 0, 57, 72
2, 45213, Note_on_c, 0, 57, 0
2, 45245, Note_on_c, 0, 73, 57
2, 45288, Note_on_c, 0, 73, 0
2, 45335, Note_on_c, 0, 54, 66
2, 45390, Note_on_c, 0, 54, 0
2, 45411, Note_on_c, 0, 69, 56
2, 45448, Note_on_c, 0, 69, 0
2, 45505, Note_on_c, 0, 51, 62
2, 45547, Note_on_c, 0, 51, 0
2, 45577, Note_on_c, 0, 66, 52
2, 45607, Note_on_c, 0, 66, 0
2, 45653, Control_c, 0, 67, 9
2, 45659, Note_on_c, 0, 48, 64
2, 45669, Control_c, 0, 67, 13
2, 45684, Control_c, 0, 67, 18
2, 45699, Control_c, 0, 67, 26
2, 45702, Note_on_c, 0, 48, 0
2, 45715, Control_c, 0, 67, 38
2, 45729, Control_c, 0, 67, 50
2, 45730, Note_on_c, 0, 63, 51
2, 45745, Control_c, 0, 67, 63
2, 45757, Note_on_c, 0, 63, 0
2, 45760, Control_c, 0, 67, 80
2, 45775, Control_c, 0, 67, 107
2, 45791, Control_c, 0, 67, 127
2, 45836, Note_on_c, 0, 44, 62
2, 45844, Note_on_c, 0, 60, 70
2, 45876, Note_on_c, 0, 44, 0
2, 45913, Note_on_c, 0, 60, 0
2, 45941, Note_on_c, 0, 56, 63
2, 45982, Note_on_c, 0, 56, 0
2, 46030, Note_on_c, 0, 54, 64
2, 46069, Note_on_c, 0, 54, 0
2, 46112, Note_on_c, 0, 56, 60
2, 46154, Note_on_c, 0, 56, 0
2, 46207, Note_on_c, 0, 51, 63
2, 46236, Note_on_c, 0, 51, 0
2, 46278, Note_on_c, 0, 56, 58
2, 46363, Note_on_c, 0, 56, 0
2, 46369, Note_on_c, 0, 60, 65
2, 46370, Note_on_c, 0, 44, 61
2, 46398, Note_on_c, 0, 44, 0
2, 46439, Note_on_c, 0, 60, 0
2, 46458, Note_on_c, 0, 56, 46
2, 46501, Note_on_c, 0, 56, 0
2, 46537, Note_on_c, 0, 54, 59
2, 46571, Note_on_c, 0, 54, 0
2, 46628, Note_on_c, 0, 56, 60
2, 46669, Note_on_c, 0, 56, 0
2, 46724, Note_on_c, 0, 51, 60
2, 46755, Note_on_c, 0, 51, 0
2, 46792, Note_on_c, 0, 56, 59
2, 46882, Note_on_c, 0, 56, 0
2, 46892, Note_on_c, 0, 61, 75
2, 46894, Note_on_c, 0, 44, 60
2, 46930, Note_on_c, 0, 44, 0
2, 46960, Note_on_c, 0, 61, 0
2, 46993, Note_on_c, 0, 56, 60
2, 47030, Note_on_c, 0, 56, 0
2, 47062, Note_on_c, 0, 53, 59
2, 47094, Note_on_c, 0, 53, 0
2, 47156, Note_on_c, 0, 56, 59
2, 47195, Note_on_c, 0, 56, 0
2, 47239, Note_on_c, 0, 49, 58
2, 47270, Note_on_c, 0, 49, 0
2, 47300, Note_on_c, 0, 56, 55
2, 47378, Note_on_c, 0, 56, 0
2, 47397, Note_on_c, 0, 61, 70
2, 47406, Note_on_c, 0, 44, 59
2, 47443, Note_on_c, 0, 44, 0
2, 47452, Note_on_c, 0, 61, 0
2, 47498, Note_on_c, 0, 56, 59
2, 47536, Note_on_c, 0, 56, 0
2, 47579, Note_on_c, 0, 53, 56
2, 47617, Note_on_c, 0, 53, 0
2, 47657, Note_on_c, 0, 56, 57
2, 47696, Note_on_c, 0, 56, 0
2, 47744, Note_on_c, 0, 49, 59
2, 47776, Note_on_c, 0, 49, 0
2, 47810, Note_on_c, 0, 56, 56
2, 47877, Note_on_c, 0, 56, 0
2, 47904, Note_on_c, 0, 44, 62
2, 47911, Note_on_c, 0, 66, 72
2, 47948, Note_on_c, 0, 44, 0
2, 47953, Note_on_c, 0, 66, 0
2, 47986, Note_on_c, 0, 56, 62
2, 48033, Note_on_c, 0, 56, 0
2, 48076, Note_on_c, 0, 51, 58
2, 48117, Note_on_c, 0, 51, 0
2, 48157, Note_on_c, 0, 56, 62
2, 48197, Note_on_c, 0, 56, 0
2, 48259, Note_on_c, 0, 48, 65
2, 48292, Note_on_c, 0, 48, 0
2, 48329, Note_on_c, 0, 56, 55
2, 48388, Note_on_c, 0, 56, 0
2, 48416, Note_on_c, 0, 66, 70
2, 48420, Note_on_c, 0, 44, 67
2, 48464, Note_on_c, 0, 44, 0
2, 48473, Note_on_c, 0, 66, 0
2, 48510, Note_on_c, 0, 56, 66
2, 48556, Note_on_c, 0, 56, 0
2, 48589, Note_on_c, 0, 51, 59
2, 48623, Note_on_c, 0, 51, 0
2, 48678, Note_on_c, 0, 56, 58
2, 48717, Note_on_c, 0, 56, 0
2, 48772, Note_on_c, 0, 48, 40
2, 48801, Note_on_c, 0, 48, 0
2, 48831, Note_on_c, 0, 56, 50
2, 48917, Note_on_c, 0, 56, 0
2, 48917, Note_on_c, 0, 65, 67
2, 48918, Note_on_c, 0, 44, 69
2, 48959, Note_on_c, 0, 44, 0
2, 49008, Note_on_c, 0, 65, 0
2, 49022, Note_on_c, 0, 56, 60
2, 49065, Note_on_c, 0, 56, 0
2, 49102, Note_on_c, 0, 53, 60
2, 49136, Note_on_c, 0, 53, 0
2, 49186, Note_on_c, 0, 56, 64
2, 49228, Note_on_c, 0, 56, 0
2, 49254, Note_on_c, 0, 49, 68
2, 49289, Note_on_c, 0, 49, 0
2, 49349, Note_on_c, 0, 56, 62
2, 49411, Note_on_c, 0, 44, 76
2, 49420, Note_on_c, 0, 65, 69
2, 49422, Note_on_c, 0, 56, 0
2, 49452, Note_on_c, 0, 44, 0
2, 49492, Note_on_c, 0, 65, 0
2, 49513, Note_on_c, 0, 56, 67
2, 49562, Note_on_c, 0, 56, 0
2, 49581, Control_c, 0, 67, 114
2, 49581, Note_on_c, 0, 53, 66
2, 49597, Control_c, 0, 67, 66
2, 49612, Control_c, 0, 67, 8
2, 49623, Note_on_c, 0, 53, 0
2, 49628, Control_c, 0, 67, 0
2, 49672, Note_on_c, 0, 56, 70
2, 49711, Note_on_c, 0, 56, 0
2, 49743, Note_on_c, 0, 49, 70
2, 49797, Note_on_c, 0, 49, 0
2, 49831, Note_on_c, 0, 56, 67
2, 49891, Note_on_c, 0, 56, 0
2, 49902, Note_on_c, 0, 44, 82
2, 49903, Note_on_c, 0, 67, 77
2, 49954, Note_on_c, 0, 44, 0
2, 49996, Note_on_c, 0, 58, 70
2, 49996, Note_on_c, 0, 67, 0
2, 50042, Note_on_c, 0, 58, 0
2, 50070, Note_on_c, 0, 52, 72
2, 50118, Note_on_c, 0, 52, 0
2, 50159, Note_on_c, 0, 58, 68
2, 50200, Note_on_c, 0, 58, 0
2, 50232, Note_on_c, 0, 49, 76
2, 50286, Note_on_c, 0, 49, 0
2, 50316, Note_on_c, 0, 58, 71
2, 50393, Note_on_c, 0, 44, 78
2, 50395, Note_on_c, 0, 67, 76
2, 50397, Note_on_c, 0, 58, 0
2, 50437, Note_on_c, 0, 44, 0
2, 50485, Note_on_c, 0, 58, 73
2, 50488, Note_on_c, 0, 67, 0
2, 50552, Note_on_c, 0, 58, 0
2, 50573, Note_on_c, 0, 52, 66
2, 50609, Note_on_c, 0, 52, 0
2, 50641, Note_on_c, 0, 58, 68
2, 50685, Note_on_c, 0, 58, 0
2, 50723, Note_on_c, 0, 49, 73
2, 50772, Note_on_c, 0, 49, 0
2, 50799, Note_on_c, 0, 58, 66
2, 50847, Note_on_c, 0, 58, 0
2, 50877, Note_on_c, 0, 44, 67
2, 50956, Note_on_c, 0, 48, 61
2, 50965, Note_on_c, 0, 44, 0
2, 51049, Note_on_c, 0, 51, 68
2, 51061, Note_on_c, 0, 48, 0
2, 51112, Note_on_c, 0, 51, 0
2, 51124, Note_on_c, 0, 54, 68
2, 51209, Note_on_c, 0, 57, 69
2, 51237, Note_on_c, 0, 54, 0
2, 51308, Note_on_c, 0, 60, 72
2, 51328, Note_on_c, 0, 57, 0
2, 51368, Note_on_c, 0, 61, 71
2, 51371, Note_on_c, 0, 60, 0
2, 51439, Note_on_c, 0, 64, 72
2, 51454, Note_on_c, 0, 61, 0
2, 51533, Note_on_c, 0, 67, 65
2, 51575, Note_on_c, 0, 64, 0
2, 51603, Note_on_c, 0, 67, 0
2, 51626, Note_on_c, 0, 70, 74
2, 51716, Note_on_c, 0, 73, 75
2, 51740, Note_on_c, 0, 70, 0
2, 51803, Note_on_c, 0, 76, 72
2, 51814, Note_on_c, 0, 73, 0
2, 51864, Note_on_c, 0, 76, 0
2, 51886, Note_on_c, 0, 44, 60
2, 51886, Note_on_c, 0, 72, 79
2, 51976, Note_on_c, 0, 75, 77
2, 51982, Note_on_c, 0, 72, 0
2, 52044, Note_on_c, 0, 75, 0
2, 52053, Note_on_c, 0, 78, 77
2, 52130, Note_on_c, 0, 44, 0
2, 52141, Note_on_c, 0, 75, 73
2, 52184, Note_on_c, 0, 78, 0
2, 52198, Note_on_c, 0, 75, 0
2, 52214, Note_on_c, 0, 72, 70
2, 52295, Note_on_c, 0, 72, 0
2, 52321, Note_on_c, 0, 70, 8
2, 52353, Note_on_c, 0, 69, 15
2, 52369, Note_on_c, 0, 70, 0
2, 52371, Note_on_c, 0, 66, 70
2, 52383, Note_on_c, 0, 69, 0
2, 52450, Note_on_c, 0, 66, 0
2, 52451, Note_on_c, 0, 63, 63
2, 52537, Note_on_c, 0, 60, 66
2, 52539, Note_on_c, 0, 63, 0
2, 52618, Note_on_c, 0, 60, 0
2, 52624, Note_on_c, 0, 56, 67
2, 52711, Note_on_c, 0, 60, 63
2, 52717, Note_on_c, 0, 56, 0
2, 52791, Note_on_c, 0, 60, 0
2, 52799, Note_on_c, 0, 63, 59
2, 52890, Note_on_c, 0, 63, 0
2, 52908, Note_on_c, 0, 56, 54
2, 52942, Note_on_c, 0, 65, 58
2, 53022, Note_on_c, 0, 68, 65
2, 53037, Note_on_c, 0, 65, 0
2, 53102, Note_on_c, 0, 73, 75
2, 53103, Note_on_c, 0, 68, 0
2, 53178, Note_on_c, 0, 68, 73
2, 53191, Note_on_c, 0, 56, 0
2, 53212, Note_on_c, 0, 73, 0
2, 53231, Note_on_c, 0, 68, 0
2, 53263, Note_on_c, 0, 65, 65
2, 53340, Note_on_c, 0, 61, 68
2, 53341, Note_on_c, 0, 65, 0
2, 53431, Note_on_c, 0, 58, 69
2, 53436, Note_on_c, 0, 61, 0
2, 53518, Note_on_c, 0, 58, 0
2, 53530, Note_on_c, 0, 55, 57
2, 53622, Note_on_c, 0, 52, 63
2, 53622, Note_on_c, 0, 55, 0
2, 53708, Note_on_c, 0, 49, 63
2, 53710, Note_on_c, 0, 52, 0
2, 53805, Note_on_c, 0, 52, 60
2, 53822, Note_on_c, 0, 49, 0
2, 53891, Note_on_c, 0, 52, 0
2, 53905, Note_on_c, 0, 55, 58
2, 53996, Note_on_c, 0, 55, 0
2, 54023, Note_on_c, 0, 44, 59
2, 54300, Note_on_c, 0, 73, 66
2, 54301, Note_on_c, 0, 68, 65
2, 54304, Note_on_c, 0, 56, 57
2, 54309, Note_on_c, 0, 65, 56
2, 54310, Note_on_c, 0, 53, 50
2, 54312, Note_on_c, 0, 49, 42
2, 54328, Note_on_c, 0, 56, 0
2, 54329, Note_on_c, 0, 65, 0
2, 54335, Note_on_c, 0, 73, 0
2, 54337, Note_on_c, 0, 68, 0
2, 54343, Note_on_c, 0, 53, 0
2, 54350, Note_on_c, 0, 49, 0
2, 54619, Note_on_c, 0, 68, 61
2, 54623, Note_on_c, 0, 51, 50
2, 54624, Note_on_c, 0, 54, 53
2, 54624, Note_on_c, 0, 63, 64
2, 54625, Note_on_c, 0, 56, 47
2, 54626, Note_on_c, 0, 72, 61
2, 54657, Note_on_c, 0, 63, 0
2, 54658, Note_on_c, 0, 56, 0
2, 54668, Note_on_c, 0, 68, 0
2, 54668, Note_on_c, 0, 72, 0
2, 54677, Note_on_c, 0, 54, 0
2, 54683, Note_on_c, 0, 51, 0
2, 55043, Note_on_c, 0, 49, 34
2, 55054, Note_on_c, 0, 53, 38
2, 55057, Note_on_c, 0, 56, 30
2, 55061, Note_on_c, 0, 68, 52
2, 55064, Note_on_c, 0, 61, 46
2, 55064, Note_on_c, 0, 73, 53
2, 55090, Note_on_c, 0, 44, 0
2, 55543, Control_c, 0, 64, 43
2, 55558, Control_c, 0, 64, 55
2, 55573, Control_c, 0, 64, 61
2, 55589, Control_c, 0, 64, 65
2, 55604, Control_c, 0, 64, 68
2, 55619, Control_c, 0, 64, 71
2, 55634, Control_c, 0, 64, 75
2, 55649, Control_c, 0, 64, 78
2, 55664, Control_c, 0, 64, 81
2, 55680, Control_c, 0, 64, 84
2, 55695, Control_c, 0, 64, 87
2, 55710, Control_c, 0, 64, 90
2, 55725, Control_c, 0, 64, 93
2, 55740, Control_c, 0, 64, 96
2, 55756, Control_c, 0, 64, 99
2, 55771, Control_c, 0, 64, 102
2, 55786, Control_c, 0, 64, 105
2, 55802, Control_c, 0, 64, 107
2, 55817, Control_c, 0, 64, 110
2, 55832, Control_c, 0, 64, 113
2, 55847, Control_c, 0, 64, 114
2, 55862, Control_c, 0, 64, 115
2, 55872, Note_on_c, 0, 73, 0
2, 55879, Note_on_c, 0, 61, 0
2, 55884, Note_on_c, 0, 56, 0
2, 55892, Control_c, 0, 64, 112
2, 55893, Note_on_c, 0, 68, 0
2, 55896, Note_on_c, 0, 53, 0
2, 55915, Control_c, 0, 64, 104
2, 55915, Note_on_c, 0, 49, 0
2, 55930, Control_c, 0, 64, 94
2, 55945, Control_c, 0, 64, 82
2, 55961, Control_c, 0, 64, 69
2, 55976, Control_c, 0, 64, 0
2, 57887,End_track
0, 0, End_of_file
