0, 0, Header, 1, 2, 384
1, 0, Start_track
1, 0, Tempo, 500000
1, 0, Time_signature, 4, 2, 24, 8
1, 1, End_track
2, 0, Start_track
2, 0, Title_t, "Lin04-07.MID"
2, 0, Program_c, 0, 0
2, 0, Control_c, 0, 64, 0
2, 0, Control_c, 0, 67, 0
2, 784, Note_on_c, 0, 77, 63
2, 786, Note_on_c, 0, 49, 53
2, 881, Note_on_c, 0, 73, 63
2, 890, Note_on_c, 0, 77, 0
2, 946, Note_on_c, 0, 73, 0
2, 970, Note_on_c, 0, 68, 58
2, 997, Note_on_c, 0, 49, 0
2, 1065, Note_on_c, 0, 68, 0
2, 1065, Note_on_c, 0, 73, 56
2, 1113, Note_on_c, 0, 73, 0
2, 1134, Note_on_c, 0, 77, 64
2, 1135, Note_on_c, 0, 61, 62
2, 1168, Note_on_c, 0, 61, 0
2, 1222, Note_on_c, 0, 77, 0
2, 1230, Note_on_c, 0, 73, 63
2, 1309, Note_on_c, 0, 51, 61
2, 1323, Note_on_c, 0, 78, 70
2, 1328, Note_on_c, 0, 73, 0
2, 1397, Note_on_c, 0, 78, 0
2, 1419, Note_on_c, 0, 73, 65
2, 1505, Note_on_c, 0, 73, 0
2, 1514, Note_on_c, 0, 78, 72
2, 1539, Note_on_c, 0, 51, 0
2, 1575, Note_on_c, 0, 78, 0
2, 1592, Note_on_c, 0, 73, 62
2, 1676, Note_on_c, 0, 73, 0
2, 1686, Note_on_c, 0, 61, 64
2, 1689, Note_on_c, 0, 78, 75
2, 1718, Note_on_c, 0, 61, 0
2, 1744, Note_on_c, 0, 78, 0
2, 1779, Note_on_c, 0, 73, 60
2, 1845, Note_on_c, 0, 73, 0
2, 1862, Note_on_c, 0, 53, 67
2, 1871, Note_on_c, 0, 80, 75
2, 1947, Note_on_c, 0, 80, 0
2, 1967, Note_on_c, 0, 73, 68
2, 2043, Note_on_c, 0, 73, 0
2, 2058, Note_on_c, 0, 80, 75
2, 2073, Note_on_c, 0, 53, 0
2, 2129, Note_on_c, 0, 80, 0
2, 2156, Note_on_c, 0, 73, 67
2, 2226, Note_on_c, 0, 73, 0
2, 2240, Note_on_c, 0, 80, 79
2, 2243, Note_on_c, 0, 61, 56
2, 2275, Note_on_c, 0, 61, 0
2, 2297, Note_on_c, 0, 80, 0
2, 2318, Note_on_c, 0, 73, 66
2, 2392, Note_on_c, 0, 73, 0
2, 2409, Note_on_c, 0, 54, 63
2, 2423, Note_on_c, 0, 82, 83
2, 2499, Note_on_c, 0, 82, 0
2, 2509, Note_on_c, 0, 73, 71
2, 2578, Note_on_c, 0, 73, 0
2, 2596, Note_on_c, 0, 82, 82
2, 2648, Note_on_c, 0, 54, 0
2, 2672, Note_on_c, 0, 82, 0
2, 2673, Note_on_c, 0, 73, 74
2, 2746, Note_on_c, 0, 73, 0
2, 2770, Note_on_c, 0, 82, 77
2, 2778, Note_on_c, 0, 61, 68
2, 2808, Note_on_c, 0, 61, 0
2, 2838, Note_on_c, 0, 82, 0
2, 2845, Note_on_c, 0, 73, 66
2, 2937, Note_on_c, 0, 73, 0
2, 2951, Note_on_c, 0, 53, 63
2, 2963, Note_on_c, 0, 80, 74
2, 3037, Note_on_c, 0, 80, 0
2, 3048, Note_on_c, 0, 73, 70
2, 3122, Note_on_c, 0, 73, 0
2, 3136, Note_on_c, 0, 80, 72
2, 3189, Note_on_c, 0, 53, 0
2, 3217, Note_on_c, 0, 80, 0
2, 3220, Note_on_c, 0, 73, 66
2, 3282, Note_on_c, 0, 73, 0
2, 3314, Note_on_c, 0, 80, 69
2, 3316, Note_on_c, 0, 61, 65
2, 3349, Note_on_c, 0, 61, 0
2, 3365, Note_on_c, 0, 80, 0
2, 3393, Note_on_c, 0, 73, 62
2, 3459, Note_on_c, 0, 73, 0
2, 3477, Note_on_c, 0, 78, 63
2, 3482, Note_on_c, 0, 51, 66
2, 3568, Note_on_c, 0, 77, 67
2, 3575, Note_on_c, 0, 78, 0
2, 3637, Note_on_c, 0, 77, 0
2, 3655, Note_on_c, 0, 75, 67
2, 3683, Note_on_c, 0, 51, 0
2, 3736, Note_on_c, 0, 77, 66
2, 3742, Note_on_c, 0, 75, 0
2, 3809, Note_on_c, 0, 60, 59
2, 3822, Note_on_c, 0, 78, 69
2, 3836, Note_on_c, 0, 77, 0
2, 3843, Note_on_c, 0, 60, 0
2, 3901, Note_on_c, 0, 78, 0
2, 3905, Note_on_c, 0, 75, 62
2, 3976, Note_on_c, 0, 49, 56
2, 3984, Note_on_c, 0, 77, 70
2, 3987, Note_on_c, 0, 75, 0
2, 4085, Note_on_c, 0, 75, 69
2, 4088, Note_on_c, 0, 77, 0
2, 4150, Note_on_c, 0, 49, 0
2, 4164, Note_on_c, 0, 75, 0
2, 4175, Note_on_c, 0, 73, 69
2, 4257, Note_on_c, 0, 75, 69
2, 4270, Note_on_c, 0, 73, 0
2, 4341, Note_on_c, 0, 77, 70
2, 4342, Note_on_c, 0, 75, 0
2, 4345, Note_on_c, 0, 61, 68
2, 4436, Note_on_c, 0, 73, 70
2, 4439, Note_on_c, 0, 77, 0
2, 4541, Note_on_c, 0, 75, 71
2, 4565, Note_on_c, 0, 73, 0
2, 4629, Note_on_c, 0, 77, 73
2, 4635, Note_on_c, 0, 75, 0
2, 4699, Note_on_c, 0, 61, 0
2, 4706, Note_on_c, 0, 60, 67
2, 4716, Note_on_c, 0, 75, 79
2, 4730, Note_on_c, 0, 77, 0
2, 4798, Note_on_c, 0, 58, 65
2, 4805, Note_on_c, 0, 60, 0
2, 4814, Note_on_c, 0, 73, 73
2, 4822, Note_on_c, 0, 75, 0
2, 4871, Note_on_c, 0, 56, 63
2, 4877, Note_on_c, 0, 73, 0
2, 4883, Note_on_c, 0, 58, 0
2, 4889, Note_on_c, 0, 72, 72
2, 4959, Note_on_c, 0, 58, 59
2, 4961, Note_on_c, 0, 72, 0
2, 4967, Note_on_c, 0, 70, 74
2, 4975, Note_on_c, 0, 56, 0
2, 5028, Note_on_c, 0, 58, 0
2, 5030, Note_on_c, 0, 70, 0
2, 5058, Note_on_c, 0, 60, 61
2, 5064, Note_on_c, 0, 68, 72
2, 5143, Note_on_c, 0, 60, 0
2, 5152, Note_on_c, 0, 56, 67
2, 5245, Note_on_c, 0, 56, 0
2, 5247, Note_on_c, 0, 51, 68
2, 5262, Note_on_c, 0, 68, 0
2, 5317, Note_on_c, 0, 56, 58
2, 5342, Note_on_c, 0, 51, 0
2, 5393, Note_on_c, 0, 56, 0
2, 5424, Note_on_c, 0, 80, 68
2, 5427, Note_on_c, 0, 60, 58
2, 5462, Note_on_c, 0, 60, 0
2, 5467, Note_on_c, 0, 80, 0
2, 5507, Note_on_c, 0, 56, 62
2, 5584, Note_on_c, 0, 56, 0
2, 5589, Note_on_c, 0, 70, 65
2, 5602, Note_on_c, 0, 61, 65
2, 5677, Note_on_c, 0, 61, 0
2, 5681, Note_on_c, 0, 56, 68
2, 5760, Note_on_c, 0, 56, 0
2, 5764, Note_on_c, 0, 70, 0
2, 5776, Note_on_c, 0, 61, 68
2, 5840, Note_on_c, 0, 56, 63
2, 5843, Note_on_c, 0, 61, 0
2, 5926, Note_on_c, 0, 56, 0
2, 5928, Note_on_c, 0, 80, 62
2, 5940, Note_on_c, 0, 61, 66
2, 5976, Note_on_c, 0, 80, 0
2, 6027, Note_on_c, 0, 61, 0
2, 6031, Note_on_c, 0, 56, 63
2, 6111, Note_on_c, 0, 56, 0
2, 6131, Note_on_c, 0, 72, 74
2, 6137, Note_on_c, 0, 63, 66
2, 6225, Note_on_c, 0, 63, 0
2, 6227, Note_on_c, 0, 56, 71
2, 6309, Note_on_c, 0, 56, 0
2, 6319, Note_on_c, 0, 63, 71
2, 6321, Note_on_c, 0, 72, 0
2, 6390, Note_on_c, 0, 63, 0
2, 6396, Note_on_c, 0, 56, 66
2, 6478, Note_on_c, 0, 56, 0
2, 6479, Note_on_c, 0, 80, 72
2, 6501, Note_on_c, 0, 63, 70
2, 6521, Note_on_c, 0, 80, 0
2, 6564, Note_on_c, 0, 56, 64
2, 6564, Note_on_c, 0, 63, 0
2, 6651, Note_on_c, 0, 56, 0
2, 6680, Note_on_c, 0, 65, 74
2, 6680, Note_on_c, 0, 73, 74
2, 6769, Note_on_c, 0, 65, 0
2, 6782, Note_on_c, 0, 56, 73
2, 6845, Note_on_c, 0, 56, 0
2, 6870, Note_on_c, 0, 73, 0
2, 6882, Note_on_c, 0, 65, 68
2, 6930, Note_on_c, 0, 65, 0
2, 6950, Note_on_c, 0, 56, 68
2, 7018, Note_on_c, 0, 56, 0
2, 7043, Note_on_c, 0, 65, 67
2, 7051, Note_on_c, 0, 80, 67
2, 7078, Note_on_c, 0, 65, 0
2, 7106, Note_on_c, 0, 80, 0
2, 7120, Note_on_c, 0, 56, 66
2, 7206, Note_on_c, 0, 56, 0
2, 7217, Note_on_c, 0, 63, 68
2, 7232, Note_on_c, 0, 72, 71
2, 7286, Note_on_c, 0, 63, 0
2, 7299, Note_on_c, 0, 56, 63
2, 7383, Note_on_c, 0, 56, 0
2, 7398, Note_on_c, 0, 63, 67
2, 7403, Note_on_c, 0, 72, 0
2, 7455, Note_on_c, 0, 63, 0
2, 7471, Note_on_c, 0, 56, 61
2, 7558, Note_on_c, 0, 56, 0
2, 7574, Note_on_c, 0, 80, 63
2, 7579, Note_on_c, 0, 63, 63
2, 7617, Note_on_c, 0, 80, 0
2, 7618, Note_on_c, 0, 63, 0
2, 7659, Note_on_c, 0, 56, 63
2, 7731, Note_on_c, 0, 56, 0
2, 7753, Note_on_c, 0, 61, 61
2, 7757, Note_on_c, 0, 70, 68
2, 7802, Note_on_c, 0, 61, 0
2, 7820, Note_on_c, 0, 60, 68
2, 7868, Note_on_c, 0, 70, 0
2, 7917, Note_on_c, 0, 60, 0
2, 7921, Note_on_c, 0, 58, 69
2, 8005, Note_on_c, 0, 60, 65
2, 8010, Note_on_c, 0, 58, 0
2, 8087, Note_on_c, 0, 60, 0
2, 8090, Note_on_c, 0, 79, 63
2, 8094, Note_on_c, 0, 61, 66
2, 8138, Note_on_c, 0, 79, 0
2, 8160, Note_on_c, 0, 61, 0
2, 8163, Note_on_c, 0, 58, 63
2, 8237, Note_on_c, 0, 58, 0
2, 8258, Note_on_c, 0, 60, 63
2, 8282, Note_on_c, 0, 68, 70
2, 8342, Note_on_c, 0, 60, 0
2, 8353, Note_on_c, 0, 58, 66
2, 8395, Note_on_c, 0, 68, 0
2, 8426, Note_on_c, 0, 58, 0
2, 8432, Note_on_c, 0, 56, 68
2, 8518, Note_on_c, 0, 58, 69
2, 8522, Note_on_c, 0, 56, 0
2, 8588, Note_on_c, 0, 58, 0
2, 8603, Note_on_c, 0, 80, 80
2, 8607, Note_on_c, 0, 60, 63
2, 8685, Note_on_c, 0, 60, 0
2, 8699, Note_on_c, 0, 56, 66
2, 8790, Note_on_c, 0, 56, 0
2, 8791, Note_on_c, 0, 58, 67
2, 8861, Note_on_c, 0, 58, 0
2, 8879, Note_on_c, 0, 59, 63
2, 8951, Note_on_c, 0, 59, 0
2, 8970, Note_on_c, 0, 78, 69
2, 8977, Note_on_c, 0, 58, 53
2, 8998, Note_on_c, 0, 80, 0
2, 9023, Note_on_c, 0, 58, 0
2, 9036, Note_on_c, 0, 56, 54
2, 9054, Note_on_c, 0, 77, 63
2, 9054, Note_on_c, 0, 78, 0
2, 9130, Note_on_c, 0, 54, 56
2, 9137, Note_on_c, 0, 56, 0
2, 9139, Note_on_c, 0, 77, 0
2, 9154, Note_on_c, 0, 75, 60
2, 9173, Note_on_c, 0, 54, 0
2, 9180, Control_c, 0, 67, 16
2, 9195, Control_c, 0, 67, 30
2, 9210, Control_c, 0, 67, 50
2, 9219, Note_on_c, 0, 77, 54
2, 9221, Note_on_c, 0, 53, 45
2, 9221, Note_on_c, 0, 75, 0
2, 9225, Control_c, 0, 67, 76
2, 9240, Control_c, 0, 67, 104
2, 9256, Control_c, 0, 67, 127
2, 9290, Note_on_c, 0, 53, 0
2, 9310, Note_on_c, 0, 78, 68
2, 9313, Note_on_c, 0, 51, 48
2, 9319, Note_on_c, 0, 77, 0
2, 9418, Note_on_c, 0, 78, 0
2, 9429, Note_on_c, 0, 75, 56
2, 9476, Note_on_c, 0, 75, 0
2, 9478, Note_on_c, 0, 51, 0
2, 9503, Note_on_c, 0, 70, 64
2, 9585, Note_on_c, 0, 70, 0
2, 9587, Note_on_c, 0, 75, 53
2, 9640, Note_on_c, 0, 63, 55
2, 9648, Note_on_c, 0, 75, 0
2, 9665, Note_on_c, 0, 63, 0
2, 9665, Note_on_c, 0, 78, 64
2, 9738, Note_on_c, 0, 78, 0
2, 9749, Note_on_c, 0, 75, 57
2, 9811, Note_on_c, 0, 53, 48
2, 9837, Note_on_c, 0, 75, 0
2, 9839, Note_on_c, 0, 80, 66
2, 9890, Note_on_c, 0, 80, 0
2, 9921, Note_on_c, 0, 75, 61
2, 9997, Note_on_c, 0, 75, 0
2, 10010, Note_on_c, 0, 53, 0
2, 10010, Note_on_c, 0, 80, 65
2, 10058, Note_on_c, 0, 80, 0
2, 10089, Note_on_c, 0, 75, 56
2, 10163, Note_on_c, 0, 75, 0
2, 10170, Note_on_c, 0, 63, 49
2, 10176, Note_on_c, 0, 80, 67
2, 10198, Note_on_c, 0, 63, 0
2, 10223, Note_on_c, 0, 80, 0
2, 10273, Note_on_c, 0, 75, 51
2, 10330, Note_on_c, 0, 75, 0
2, 10349, Note_on_c, 0, 54, 51
2, 10358, Note_on_c, 0, 82, 68
2, 10432, Note_on_c, 0, 82, 0
2, 10458, Note_on_c, 0, 75, 61
2, 10518, Note_on_c, 0, 75, 0
2, 10533, Note_on_c, 0, 82, 69
2, 10560, Note_on_c, 0, 54, 0
2, 10603, Note_on_c, 0, 82, 0
2, 10639, Note_on_c, 0, 75, 58
2, 10686, Note_on_c, 0, 75, 0
2, 10698, Note_on_c, 0, 63, 53
2, 10707, Note_on_c, 0, 82, 70
2, 10740, Note_on_c, 0, 63, 0
2, 10776, Note_on_c, 0, 82, 0
2, 10802, Note_on_c, 0, 75, 59
2, 10862, Note_on_c, 0, 75, 0
2, 10881, Note_on_c, 0, 83, 67
2, 10884, Note_on_c, 0, 56, 52
2, 10961, Note_on_c, 0, 83, 0
2, 10977, Note_on_c, 0, 75, 62
2, 11042, Note_on_c, 0, 75, 0
2, 11056, Note_on_c, 0, 83, 62
2, 11086, Note_on_c, 0, 56, 0
2, 11129, Note_on_c, 0, 83, 0
2, 11136, Note_on_c, 0, 75, 59
2, 11211, Note_on_c, 0, 75, 0
2, 11225, Note_on_c, 0, 83, 61
2, 11236, Note_on_c, 0, 63, 52
2, 11267, Note_on_c, 0, 63, 0
2, 11286, Note_on_c, 0, 83, 0
2, 11312, Note_on_c, 0, 75, 56
2, 11390, Note_on_c, 0, 75, 0
2, 11415, Note_on_c, 0, 82, 68
2, 11423, Note_on_c, 0, 54, 47
2, 11486, Note_on_c, 0, 82, 0
2, 11502, Note_on_c, 0, 75, 61
2, 11577, Note_on_c, 0, 75, 0
2, 11602, Note_on_c, 0, 82, 67
2, 11628, Note_on_c, 0, 54, 0
2, 11665, Note_on_c, 0, 82, 0
2, 11687, Note_on_c, 0, 75, 62
2, 11753, Note_on_c, 0, 75, 0
2, 11762, Note_on_c, 0, 63, 54
2, 11778, Note_on_c, 0, 82, 71
2, 11803, Note_on_c, 0, 63, 0
2, 11838, Note_on_c, 0, 82, 0
2, 11861, Note_on_c, 0, 75, 52
2, 11938, Note_on_c, 0, 53, 54
2, 11940, Note_on_c, 0, 75, 0
2, 11954, Note_on_c, 0, 80, 63
2, 12049, Note_on_c, 0, 78, 65
2, 12053, Note_on_c, 0, 80, 0
2, 12119, Note_on_c, 0, 78, 0
2, 12147, Note_on_c, 0, 53, 0
2, 12150, Note_on_c, 0, 77, 64
2, 12227, Note_on_c, 0, 77, 0
2, 12228, Note_on_c, 0, 78, 65
2, 12296, Note_on_c, 0, 62, 50
2, 12302, Note_on_c, 0, 80, 64
2, 12304, Note_on_c, 0, 78, 0
2, 12324, Note_on_c, 0, 62, 0
2, 12374, Note_on_c, 0, 80, 0
2, 12387, Note_on_c, 0, 77, 56
2, 12456, Note_on_c, 0, 51, 52
2, 12460, Note_on_c, 0, 77, 0
2, 12476, Note_on_c, 0, 78, 68
2, 12551, Note_on_c, 0, 78, 0
2, 12573, Note_on_c, 0, 77, 67
2, 12625, Note_on_c, 0, 51, 0
2, 12651, Note_on_c, 0, 77, 0
2, 12666, Note_on_c, 0, 75, 61
2, 12738, Note_on_c, 0, 75, 0
2, 12740, Note_on_c, 0, 77, 59
2, 12817, Note_on_c, 0, 63, 59
2, 12833, Note_on_c, 0, 77, 0
2, 12833, Note_on_c, 0, 78, 68
2, 12927, Note_on_c, 0, 75, 67
2, 12928, Note_on_c, 0, 78, 0
2, 13016, Note_on_c, 0, 77, 73
2, 13025, Note_on_c, 0, 75, 0
2, 13104, Note_on_c, 0, 78, 71
2, 13114, Note_on_c, 0, 77, 0
2, 13150, Note_on_c, 0, 63, 0
2, 13170, Note_on_c, 0, 61, 53
2, 13176, Note_on_c, 0, 78, 0
2, 13182, Note_on_c, 0, 77, 64
2, 13244, Note_on_c, 0, 61, 0
2, 13261, Note_on_c, 0, 77, 0
2, 13263, Note_on_c, 0, 60, 52
2, 13263, Note_on_c, 0, 75, 68
2, 13318, Note_on_c, 0, 60, 0
2, 13331, Note_on_c, 0, 58, 55
2, 13354, Note_on_c, 0, 73, 62
2, 13355, Note_on_c, 0, 75, 0
2, 13400, Note_on_c, 0, 73, 0
2, 13420, Note_on_c, 0, 58, 0
2, 13426, Note_on_c, 0, 72, 63
2, 13440, Note_on_c, 0, 60, 36
2, 13485, Note_on_c, 0, 60, 0
2, 13507, Note_on_c, 0, 72, 0
2, 13508, Note_on_c, 0, 70, 62
2, 13521, Note_on_c, 0, 61, 57
2, 13598, Note_on_c, 0, 61, 0
2, 13605, Note_on_c, 0, 58, 64
2, 13614, Control_c, 0, 67, 100
2, 13629, Control_c, 0, 67, 50
2, 13644, Control_c, 0, 67, 0
2, 13690, Note_on_c, 0, 58, 0
2, 13708, Note_on_c, 0, 51, 64
2, 13709, Note_on_c, 0, 70, 0
2, 13777, Note_on_c, 0, 51, 0
2, 13793, Note_on_c, 0, 58, 60
2, 13857, Note_on_c, 0, 58, 0
2, 13873, Note_on_c, 0, 61, 62
2, 13880, Control_c, 0, 67, 12
2, 13890, Note_on_c, 0, 82, 61
2, 13896, Control_c, 0, 67, 28
2, 13911, Control_c, 0, 67, 51
2, 13926, Control_c, 0, 67, 81
2, 13926, Note_on_c, 0, 82, 0
2, 13941, Control_c, 0, 67, 114
2, 13945, Note_on_c, 0, 61, 0
2, 13956, Control_c, 0, 67, 127
2, 13961, Note_on_c, 0, 58, 53
2, 14043, Note_on_c, 0, 58, 0
2, 14058, Note_on_c, 0, 72, 64
2, 14065, Note_on_c, 0, 63, 55
2, 14135, Note_on_c, 0, 63, 0
2, 14153, Note_on_c, 0, 58, 55
2, 14222, Note_on_c, 0, 58, 0
2, 14237, Note_on_c, 0, 72, 0
2, 14243, Note_on_c, 0, 63, 63
2, 14300, Note_on_c, 0, 63, 0
2, 14326, Note_on_c, 0, 58, 59
2, 14367, Note_on_c, 0, 58, 0
2, 14403, Note_on_c, 0, 63, 64
2, 14404, Note_on_c, 0, 82, 59
2, 14456, Note_on_c, 0, 82, 0
2, 14463, Note_on_c, 0, 63, 0
2, 14483, Note_on_c, 0, 58, 63
2, 14544, Note_on_c, 0, 58, 0
2, 14584, Note_on_c, 0, 65, 59
2, 14596, Note_on_c, 0, 73, 71
2, 14648, Note_on_c, 0, 65, 0
2, 14673, Note_on_c, 0, 58, 60
2, 14745, Note_on_c, 0, 58, 0
2, 14758, Note_on_c, 0, 73, 0
2, 14769, Note_on_c, 0, 65, 65
2, 14817, Note_on_c, 0, 65, 0
2, 14857, Note_on_c, 0, 58, 54
2, 14902, Note_on_c, 0, 58, 0
2, 14931, Note_on_c, 0, 82, 63
2, 14940, Note_on_c, 0, 65, 60
2, 14976, Note_on_c, 0, 65, 0
2, 14982, Note_on_c, 0, 82, 0
2, 15025, Note_on_c, 0, 58, 54
2, 15068, Note_on_c, 0, 58, 0
2, 15104, Note_on_c, 0, 66, 72
2, 15126, Note_on_c, 0, 75, 67
2, 15183, Note_on_c, 0, 66, 0
2, 15216, Note_on_c, 0, 58, 66
2, 15293, Note_on_c, 0, 58, 0
2, 15307, Note_on_c, 0, 66, 70
2, 15310, Note_on_c, 0, 75, 0
2, 15376, Note_on_c, 0, 66, 0
2, 15383, Note_on_c, 0, 58, 64
2, 15467, Note_on_c, 0, 58, 0
2, 15487, Note_on_c, 0, 82, 64
2, 15490, Note_on_c, 0, 66, 67
2, 15528, Note_on_c, 0, 82, 0
2, 15535, Note_on_c, 0, 66, 0
2, 15573, Note_on_c, 0, 58, 61
2, 15627, Note_on_c, 0, 58, 0
2, 15671, Note_on_c, 0, 73, 71
2, 15682, Note_on_c, 0, 65, 56
2, 15724, Note_on_c, 0, 65, 0
2, 15750, Note_on_c, 0, 58, 62
2, 15821, Note_on_c, 0, 58, 0
2, 15821, Note_on_c, 0, 73, 0
2, 15853, Note_on_c, 0, 65, 57
2, 15894, Note_on_c, 0, 65, 0
2, 15931, Note_on_c, 0, 58, 49
2, 15985, Note_on_c, 0, 58, 0
2, 16015, Note_on_c, 0, 82, 59
2, 16029, Note_on_c, 0, 65, 51
2, 16056, Note_on_c, 0, 65, 0
2, 16067, Note_on_c, 0, 82, 0
2, 16107, Note_on_c, 0, 58, 50
2, 16183, Note_on_c, 0, 58, 0
2, 16204, Note_on_c, 0, 63, 54
2, 16207, Note_on_c, 0, 72, 65
2, 16253, Note_on_c, 0, 63, 0
2, 16275, Note_on_c, 0, 61, 61
2, 16351, Note_on_c, 0, 61, 0
2, 16363, Note_on_c, 0, 72, 0
2, 16365, Note_on_c, 0, 60, 64
2, 16454, Note_on_c, 0, 60, 0
2, 16462, Note_on_c, 0, 61, 68
2, 16514, Note_on_c, 0, 61, 0
2, 16531, Note_on_c, 0, 63, 60
2, 16531, Note_on_c, 0, 81, 66
2, 16593, Note_on_c, 0, 81, 0
2, 16596, Note_on_c, 0, 63, 0
2, 16634, Note_on_c, 0, 60, 47
2, 16694, Note_on_c, 0, 60, 0
2, 16709, Note_on_c, 0, 70, 73
2, 16714, Note_on_c, 0, 61, 57
2, 16792, Note_on_c, 0, 61, 0
2, 16806, Note_on_c, 0, 60, 61
2, 16829, Control_c, 0, 67, 104
2, 16844, Control_c, 0, 67, 46
2, 16859, Note_on_c, 0, 60, 0
2, 16860, Control_c, 0, 67, 0
2, 16875, Note_on_c, 0, 58, 64
2, 16877, Note_on_c, 0, 70, 0
2, 16963, Note_on_c, 0, 60, 60
2, 16968, Note_on_c, 0, 58, 0
2, 17023, Note_on_c, 0, 60, 0
2, 17031, Note_on_c, 0, 61, 73
2, 17040, Note_on_c, 0, 82, 75
2, 17135, Note_on_c, 0, 58, 60
2, 17165, Note_on_c, 0, 61, 0
2, 17199, Note_on_c, 0, 58, 0
2, 17214, Note_on_c, 0, 64, 69
2, 17295, Note_on_c, 0, 64, 0
2, 17310, Note_on_c, 0, 62, 69
2, 17318, Note_on_c, 0, 82, 0
2, 17375, Note_on_c, 0, 62, 0
2, 17379, Note_on_c, 0, 80, 81
2, 17390, Note_on_c, 0, 60, 64
2, 17475, Note_on_c, 0, 62, 62
2, 17485, Note_on_c, 0, 60, 0
2, 17539, Note_on_c, 0, 62, 0
2, 17555, Note_on_c, 0, 80, 0
2, 17556, Note_on_c, 0, 64, 66
2, 17560, Note_on_c, 0, 79, 73
2, 17610, Note_on_c, 0, 79, 0
2, 17630, Note_on_c, 0, 64, 0
2, 17644, Note_on_c, 0, 60, 62
2, 17707, Note_on_c, 0, 60, 0
2, 17737, Note_on_c, 0, 65, 69
2, 17744, Note_on_c, 0, 80, 78
2, 17797, Note_on_c, 0, 80, 0
2, 17818, Note_on_c, 0, 65, 0
2, 17834, Note_on_c, 0, 64, 66
2, 17881, Note_on_c, 0, 64, 0
2, 17913, Note_on_c, 0, 68, 78
2, 17915, Note_on_c, 0, 65, 66
2, 17947, Note_on_c, 0, 68, 0
2, 17985, Note_on_c, 0, 65, 0
2, 18000, Note_on_c, 0, 67, 66
2, 18053, Note_on_c, 0, 67, 0
2, 18084, Note_on_c, 0, 80, 82
2, 18097, Note_on_c, 0, 65, 64
2, 18139, Note_on_c, 0, 65, 0
2, 18180, Note_on_c, 0, 63, 66
2, 18232, Note_on_c, 0, 63, 0
2, 18253, Note_on_c, 0, 62, 72
2, 18337, Note_on_c, 0, 62, 0
2, 18344, Note_on_c, 0, 60, 72
2, 18355, Note_on_c, 0, 80, 0
2, 18431, Note_on_c, 0, 60, 0
2, 18433, Note_on_c, 0, 58, 68
2, 18439, Note_on_c, 0, 78, 81
2, 18516, Note_on_c, 0, 60, 59
2, 18543, Note_on_c, 0, 58, 0
2, 18583, Note_on_c, 0, 60, 0
2, 18595, Note_on_c, 0, 78, 0
2, 18601, Note_on_c, 0, 62, 64
2, 18607, Note_on_c, 0, 77, 66
2, 18657, Note_on_c, 0, 77, 0
2, 18661, Note_on_c, 0, 62, 0
2, 18677, Note_on_c, 0, 58, 71
2, 18751, Note_on_c, 0, 58, 0
2, 18776, Note_on_c, 0, 63, 76
2, 18776, Note_on_c, 0, 78, 80
2, 18809, Note_on_c, 0, 63, 0
2, 18843, Note_on_c, 0, 78, 0
2, 18869, Note_on_c, 0, 77, 64
2, 18940, Note_on_c, 0, 77, 0
2, 18947, Note_on_c, 0, 51, 69
2, 18956, Note_on_c, 0, 75, 68
2, 18978, Note_on_c, 0, 51, 0
2, 19035, Note_on_c, 0, 77, 63
2, 19054, Note_on_c, 0, 75, 0
2, 19129, Note_on_c, 0, 78, 73
2, 19130, Note_on_c, 0, 77, 0
2, 19139, Note_on_c, 0, 63, 65
2, 19221, Note_on_c, 0, 78, 0
2, 19228, Note_on_c, 0, 75, 64
2, 19298, Note_on_c, 0, 81, 73
2, 19304, Note_on_c, 0, 75, 0
2, 19305, Note_on_c, 0, 63, 0
2, 19397, Note_on_c, 0, 79, 70
2, 19427, Note_on_c, 0, 81, 0
2, 19461, Note_on_c, 0, 61, 61
2, 19461, Note_on_c, 0, 79, 0
2, 19466, Note_on_c, 0, 77, 73
2, 19552, Note_on_c, 0, 77, 0
2, 19561, Note_on_c, 0, 79, 69
2, 19575, Note_on_c, 0, 61, 0
2, 19617, Note_on_c, 0, 60, 68
2, 19634, Note_on_c, 0, 81, 80
2, 19654, Note_on_c, 0, 79, 0
2, 19662, Note_on_c, 0, 60, 0
2, 19689, Note_on_c, 0, 81, 0
2, 19728, Note_on_c, 0, 77, 74
2, 19793, Note_on_c, 0, 61, 75
2, 19794, Note_on_c, 0, 82, 78
2, 19810, Note_on_c, 0, 77, 0
2, 19830, Note_on_c, 0, 61, 0
2, 19882, Note_on_c, 0, 82, 0
2, 19889, Note_on_c, 0, 81, 74
2, 19977, Note_on_c, 0, 49, 71
2, 19981, Note_on_c, 0, 82, 74
2, 20007, Note_on_c, 0, 81, 0
2, 20010, Note_on_c, 0, 49, 0
2, 20058, Note_on_c, 0, 82, 0
2, 20074, Note_on_c, 0, 84, 70
2, 20154, Note_on_c, 0, 82, 72
2, 20164, Note_on_c, 0, 84, 0
2, 20168, Note_on_c, 0, 61, 71
2, 20253, Note_on_c, 0, 80, 71
2, 20274, Note_on_c, 0, 82, 0
2, 20322, Note_on_c, 0, 80, 0
2, 20339, Note_on_c, 0, 79, 62
2, 20384, Note_on_c, 0, 61, 0
2, 20421, Note_on_c, 0, 79, 0
2, 20424, Note_on_c, 0, 77, 65
2, 20510, Note_on_c, 0, 77, 0
2, 20515, Note_on_c, 0, 60, 62
2, 20524, Note_on_c, 0, 75, 69
2, 20598, Note_on_c, 0, 75, 0
2, 20615, Note_on_c, 0, 77, 64
2, 20654, Note_on_c, 0, 60, 0
2, 20690, Note_on_c, 0, 58, 52
2, 20698, Note_on_c, 0, 77, 0
2, 20703, Note_on_c, 0, 79, 66
2, 20743, Note_on_c, 0, 58, 0
2, 20761, Note_on_c, 0, 79, 0
2, 20766, Note_on_c, 0, 75, 67
2, 20865, Note_on_c, 0, 80, 70
2, 20867, Note_on_c, 0, 75, 0
2, 20868, Note_on_c, 0, 60, 60
2, 20906, Note_on_c, 0, 80, 0
2, 20930, Note_on_c, 0, 60, 0
2, 20950, Note_on_c, 0, 58, 60
2, 21024, Note_on_c, 0, 58, 0
2, 21042, Note_on_c, 0, 56, 57
2, 21054, Note_on_c, 0, 68, 71
2, 21088, Note_on_c, 0, 68, 0
2, 21124, Note_on_c, 0, 58, 57
2, 21126, Note_on_c, 0, 56, 0
2, 21194, Note_on_c, 0, 58, 0
2, 21219, Note_on_c, 0, 60, 57
2, 21225, Note_on_c, 0, 80, 80
2, 21291, Note_on_c, 0, 60, 0
2, 21308, Note_on_c, 0, 56, 59
2, 21381, Note_on_c, 0, 56, 0
2, 21408, Note_on_c, 0, 62, 65
2, 21475, Note_on_c, 0, 80, 0
2, 21485, Note_on_c, 0, 62, 0
2, 21497, Note_on_c, 0, 60, 63
2, 21561, Note_on_c, 0, 60, 0
2, 21574, Note_on_c, 0, 58, 67
2, 21587, Note_on_c, 0, 78, 77
2, 21669, Note_on_c, 0, 58, 0
2, 21675, Note_on_c, 0, 60, 63
2, 21722, Note_on_c, 0, 60, 0
2, 21750, Note_on_c, 0, 78, 0
2, 21752, Note_on_c, 0, 62, 59
2, 21753, Note_on_c, 0, 77, 70
2, 21799, Note_on_c, 0, 62, 0
2, 21805, Note_on_c, 0, 77, 0
2, 21837, Note_on_c, 0, 58, 60
2, 21908, Note_on_c, 0, 58, 0
2, 21934, Note_on_c, 0, 63, 71
2, 21936, Note_on_c, 0, 78, 69
2, 21965, Note_on_c, 0, 78, 0
2, 22004, Note_on_c, 0, 63, 0
2, 22020, Note_on_c, 0, 62, 61
2, 22089, Note_on_c, 0, 62, 0
2, 22108, Note_on_c, 0, 66, 66
2, 22110, Note_on_c, 0, 63, 66
2, 22151, Note_on_c, 0, 66, 0
2, 22182, Note_on_c, 0, 63, 0
2, 22200, Note_on_c, 0, 65, 69
2, 22274, Note_on_c, 0, 63, 61
2, 22278, Note_on_c, 0, 65, 0
2, 22304, Note_on_c, 0, 78, 76
2, 22361, Note_on_c, 0, 61, 69
2, 22377, Note_on_c, 0, 63, 0
2, 22425, Note_on_c, 0, 61, 0
2, 22466, Note_on_c, 0, 60, 67
2, 22533, Note_on_c, 0, 60, 0
2, 22548, Note_on_c, 0, 58, 69
2, 22588, Note_on_c, 0, 78, 0
2, 22639, Note_on_c, 0, 58, 0
2, 22651, Note_on_c, 0, 56, 66
2, 22659, Note_on_c, 0, 77, 67
2, 22736, Note_on_c, 0, 58, 63
2, 22745, Note_on_c, 0, 56, 0
2, 22805, Note_on_c, 0, 58, 0
2, 22823, Note_on_c, 0, 75, 59
2, 22824, Note_on_c, 0, 60, 58
2, 22824, Note_on_c, 0, 77, 0
2, 22869, Note_on_c, 0, 75, 0
2, 22881, Note_on_c, 0, 60, 0
2, 22904, Note_on_c, 0, 56, 62
2, 22975, Note_on_c, 0, 56, 0
2, 22995, Note_on_c, 0, 77, 58
2, 22998, Note_on_c, 0, 61, 70
2, 23035, Note_on_c, 0, 61, 0
2, 23077, Note_on_c, 0, 77, 0
2, 23080, Note_on_c, 0, 75, 60
2, 23150, Note_on_c, 0, 75, 0
2, 23164, Note_on_c, 0, 49, 64
2, 23171, Note_on_c, 0, 73, 63
2, 23195, Note_on_c, 0, 49, 0
2, 23259, Note_on_c, 0, 73, 0
2, 23263, Note_on_c, 0, 75, 47
2, 23325, Note_on_c, 0, 75, 0
2, 23336, Note_on_c, 0, 77, 65
2, 23349, Note_on_c, 0, 61, 61
2, 23434, Note_on_c, 0, 77, 0
2, 23441, Note_on_c, 0, 73, 64
2, 23516, Note_on_c, 0, 61, 0
2, 23525, Note_on_c, 0, 79, 68
2, 23526, Note_on_c, 0, 73, 0
2, 23618, Note_on_c, 0, 77, 59
2, 23640, Note_on_c, 0, 79, 0
2, 23682, Note_on_c, 0, 59, 51
2, 23683, Note_on_c, 0, 77, 0
2, 23693, Note_on_c, 0, 75, 65
2, 23746, Note_on_c, 0, 75, 0
2, 23780, Note_on_c, 0, 77, 58
2, 23838, Note_on_c, 0, 77, 0
2, 23856, Note_on_c, 0, 58, 54
2, 23857, Note_on_c, 0, 59, 0
2, 23863, Note_on_c, 0, 79, 55
2, 23896, Note_on_c, 0, 79, 0
2, 23897, Note_on_c, 0, 58, 0
2, 23945, Note_on_c, 0, 75, 59
2, 24026, Note_on_c, 0, 75, 0
2, 24032, Note_on_c, 0, 80, 67
2, 24036, Note_on_c, 0, 59, 58
2, 24068, Note_on_c, 0, 59, 0
2, 24097, Note_on_c, 0, 80, 0
2, 24125, Note_on_c, 0, 79, 65
2, 24203, Note_on_c, 0, 79, 0
2, 24213, Note_on_c, 0, 47, 57
2, 24213, Note_on_c, 0, 80, 69
2, 24244, Note_on_c, 0, 47, 0
2, 24287, Note_on_c, 0, 80, 0
2, 24308, Note_on_c, 0, 82, 68
2, 24395, Note_on_c, 0, 82, 0
2, 24401, Note_on_c, 0, 59, 61
2, 24401, Note_on_c, 0, 80, 69
2, 24493, Note_on_c, 0, 78, 66
2, 24505, Note_on_c, 0, 80, 0
2, 24558, Note_on_c, 0, 78, 0
2, 24583, Note_on_c, 0, 77, 62
2, 24616, Note_on_c, 0, 59, 0
2, 24667, Note_on_c, 0, 77, 0
2, 24670, Note_on_c, 0, 75, 59
2, 24729, Note_on_c, 0, 58, 50
2, 24744, Note_on_c, 0, 75, 0
2, 24764, Note_on_c, 0, 73, 57
2, 24814, Control_c, 0, 67, 8
2, 24829, Control_c, 0, 67, 11
2, 24841, Note_on_c, 0, 75, 53
2, 24844, Control_c, 0, 67, 15
2, 24844, Note_on_c, 0, 73, 0
2, 24860, Control_c, 0, 67, 24
2, 24875, Control_c, 0, 67, 36
2, 24890, Control_c, 0, 67, 49
2, 24901, Note_on_c, 0, 58, 0
2, 24906, Control_c, 0, 67, 64
2, 24911, Note_on_c, 0, 56, 49
2, 24915, Note_on_c, 0, 77, 63
2, 24921, Control_c, 0, 67, 80
2, 24936, Control_c, 0, 67, 100
2, 24948, Note_on_c, 0, 56, 0
2, 24951, Control_c, 0, 67, 125
2, 24966, Control_c, 0, 67, 127
2, 24996, Note_on_c, 0, 73, 61
2, 24998, Note_on_c, 0, 77, 0
2, 25003, Note_on_c, 0, 75, 0
2, 25064, Note_on_c, 0, 73, 0
2, 25091, Note_on_c, 0, 58, 49
2, 25099, Note_on_c, 0, 66, 63
2, 25171, Note_on_c, 0, 58, 0
2, 25184, Note_on_c, 0, 54, 56
2, 25276, Note_on_c, 0, 54, 0
2, 25287, Note_on_c, 0, 49, 55
2, 25299, Note_on_c, 0, 66, 0
2, 25355, Note_on_c, 0, 49, 0
2, 25369, Note_on_c, 0, 54, 54
2, 25441, Note_on_c, 0, 54, 0
2, 25462, Note_on_c, 0, 58, 57
2, 25467, Note_on_c, 0, 78, 52
2, 25510, Note_on_c, 0, 78, 0
2, 25521, Note_on_c, 0, 58, 0
2, 25567, Note_on_c, 0, 54, 52
2, 25618, Note_on_c, 0, 54, 0
2, 25645, Note_on_c, 0, 68, 65
2, 25664, Note_on_c, 0, 59, 55
2, 25721, Note_on_c, 0, 59, 0
2, 25752, Note_on_c, 0, 54, 58
2, 25818, Note_on_c, 0, 54, 0
2, 25832, Note_on_c, 0, 68, 0
2, 25838, Note_on_c, 0, 59, 62
2, 25902, Note_on_c, 0, 59, 0
2, 25936, Note_on_c, 0, 54, 59
2, 25993, Note_on_c, 0, 54, 0
2, 26004, Note_on_c, 0, 78, 62
2, 26028, Note_on_c, 0, 59, 59
2, 26048, Note_on_c, 0, 78, 0
2, 26069, Note_on_c, 0, 59, 0
2, 26110, Note_on_c, 0, 54, 58
2, 26168, Note_on_c, 0, 54, 0
2, 26202, Note_on_c, 0, 70, 69
2, 26205, Note_on_c, 0, 61, 61
2, 26282, Note_on_c, 0, 61, 0
2, 26288, Note_on_c, 0, 54, 68
2, 26358, Note_on_c, 0, 70, 0
2, 26363, Note_on_c, 0, 54, 0
2, 26383, Note_on_c, 0, 61, 71
2, 26448, Note_on_c, 0, 61, 0
2, 26465, Note_on_c, 0, 54, 62
2, 26528, Note_on_c, 0, 54, 0
2, 26550, Note_on_c, 0, 61, 66
2, 26553, Note_on_c, 0, 78, 67
2, 26602, Note_on_c, 0, 78, 0
2, 26609, Note_on_c, 0, 61, 0
2, 26636, Note_on_c, 0, 54, 59
2, 26708, Note_on_c, 0, 54, 0
2, 26743, Note_on_c, 0, 63, 67
2, 26750, Note_on_c, 0, 71, 67
2, 26813, Note_on_c, 0, 63, 0
2, 26836, Note_on_c, 0, 54, 64
2, 26887, Note_on_c, 0, 54, 0
2, 26908, Note_on_c, 0, 71, 0
2, 26930, Note_on_c, 0, 63, 67
2, 26997, Note_on_c, 0, 63, 0
2, 27009, Note_on_c, 0, 54, 60
2, 27080, Note_on_c, 0, 54, 0
2, 27096, Note_on_c, 0, 78, 62
2, 27117, Note_on_c, 0, 63, 59
2, 27145, Note_on_c, 0, 78, 0
2, 27153, Note_on_c, 0, 63, 0
2, 27196, Note_on_c, 0, 54, 57
2, 27256, Note_on_c, 0, 54, 0
2, 27280, Note_on_c, 0, 61, 63
2, 27294, Note_on_c, 0, 70, 66
2, 27333, Note_on_c, 0, 61, 0
2, 27367, Note_on_c, 0, 54, 60
2, 27432, Note_on_c, 0, 54, 0
2, 27449, Note_on_c, 0, 61, 65
2, 27479, Note_on_c, 0, 70, 0
2, 27515, Note_on_c, 0, 61, 0
2, 27549, Note_on_c, 0, 54, 58
2, 27606, Note_on_c, 0, 54, 0
2, 27630, Note_on_c, 0, 61, 63
2, 27644, Note_on_c, 0, 78, 62
2, 27671, Note_on_c, 0, 61, 0
2, 27677, Note_on_c, 0, 78, 0
2, 27714, Note_on_c, 0, 54, 55
2, 27781, Note_on_c, 0, 54, 0
2, 27813, Note_on_c, 0, 59, 59
2, 27844, Note_on_c, 0, 68, 64
2, 27889, Note_on_c, 0, 59, 0
2, 27907, Note_on_c, 0, 58, 58
2, 27974, Note_on_c, 0, 68, 0
2, 27991, Note_on_c, 0, 58, 0
2, 28000, Note_on_c, 0, 56, 61
2, 28089, Note_on_c, 0, 56, 0
2, 28100, Note_on_c, 0, 58, 60
2, 28154, Note_on_c, 0, 58, 0
2, 28167, Note_on_c, 0, 77, 57
2, 28183, Note_on_c, 0, 59, 55
2, 28224, Note_on_c, 0, 77, 0
2, 28242, Note_on_c, 0, 59, 0
2, 28273, Note_on_c, 0, 56, 60
2, 28356, Note_on_c, 0, 56, 0
2, 28370, Note_on_c, 0, 66, 66
2, 28376, Note_on_c, 0, 58, 53
2, 28452, Note_on_c, 0, 58, 0
2, 28466, Note_on_c, 0, 56, 58
2, 28520, Note_on_c, 0, 66, 0
2, 28535, Note_on_c, 0, 56, 0
2, 28548, Note_on_c, 0, 54, 55
2, 28619, Note_on_c, 0, 56, 52
2, 28643, Note_on_c, 0, 54, 0
2, 28716, Note_on_c, 0, 56, 0
2, 28721, Note_on_c, 0, 78, 74
2, 28736, Note_on_c, 0, 58, 57
2, 28811, Note_on_c, 0, 58, 0
2, 28837, Note_on_c, 0, 54, 54
2, 28917, Note_on_c, 0, 56, 63
2, 28931, Note_on_c, 0, 54, 0
2, 28983, Note_on_c, 0, 78, 0
2, 29006, Note_on_c, 0, 56, 0
2, 29022, Note_on_c, 0, 58, 61
2, 29099, Note_on_c, 0, 58, 0
2, 29099, Note_on_c, 0, 77, 76
2, 29109, Note_on_c, 0, 56, 50
2, 29177, Note_on_c, 0, 54, 65
2, 29183, Note_on_c, 0, 56, 0
2, 29186, Note_on_c, 0, 75, 69
2, 29206, Note_on_c, 0, 77, 0
2, 29242, Note_on_c, 0, 54, 0
2, 29256, Note_on_c, 0, 75, 0
2, 29266, Note_on_c, 0, 73, 69
2, 29275, Note_on_c, 0, 53, 70
2, 29345, Note_on_c, 0, 53, 0
2, 29349, Note_on_c, 0, 75, 68
2, 29350, Note_on_c, 0, 73, 0
2, 29372, Note_on_c, 0, 51, 69
2, 29440, Note_on_c, 0, 49, 82
2, 29441, Note_on_c, 0, 77, 76
2, 29446, Note_on_c, 0, 75, 0
2, 29452, Note_on_c, 0, 51, 0
2, 29533, Note_on_c, 0, 73, 73
2, 29538, Note_on_c, 0, 77, 0
2, 29599, Note_on_c, 0, 73, 0
2, 29627, Note_on_c, 0, 49, 0
2, 29634, Note_on_c, 0, 68, 72
2, 29716, Note_on_c, 0, 73, 70
2, 29725, Note_on_c, 0, 68, 0
2, 29772, Note_on_c, 0, 61, 76
2, 29786, Note_on_c, 0, 73, 0
2, 29804, Note_on_c, 0, 77, 73
2, 29816, Note_on_c, 0, 61, 0
2, 29881, Note_on_c, 0, 77, 0
2, 29883, Note_on_c, 0, 73, 67
2, 29962, Note_on_c, 0, 51, 73
2, 29963, Note_on_c, 0, 78, 78
2, 29969, Note_on_c, 0, 73, 0
2, 30021, Note_on_c, 0, 78, 0
2, 30048, Note_on_c, 0, 73, 70
2, 30133, Note_on_c, 0, 73, 0
2, 30133, Note_on_c, 0, 78, 78
2, 30162, Note_on_c, 0, 51, 0
2, 30194, Note_on_c, 0, 78, 0
2, 30215, Note_on_c, 0, 73, 72
2, 30305, Note_on_c, 0, 73, 0
2, 30306, Note_on_c, 0, 78, 77
2, 30309, Note_on_c, 0, 61, 48
2, 30343, Note_on_c, 0, 61, 0
2, 30366, Note_on_c, 0, 78, 0
2, 30392, Note_on_c, 0, 73, 69
2, 30473, Note_on_c, 0, 73, 0
2, 30480, Note_on_c, 0, 53, 63
2, 30488, Note_on_c, 0, 80, 82
2, 30573, Note_on_c, 0, 80, 0
2, 30583, Note_on_c, 0, 73, 77
2, 30670, Note_on_c, 0, 73, 0
2, 30673, Note_on_c, 0, 80, 82
2, 30691, Note_on_c, 0, 53, 0
2, 30743, Note_on_c, 0, 80, 0
2, 30754, Note_on_c, 0, 73, 77
2, 30823, Note_on_c, 0, 61, 61
2, 30832, Note_on_c, 0, 73, 0
2, 30843, Note_on_c, 0, 80, 83
2, 30858, Note_on_c, 0, 61, 0
2, 30865, Control_c, 0, 67, 117
2, 30880, Control_c, 0, 67, 63
2, 30895, Control_c, 0, 67, 0
2, 30911, Note_on_c, 0, 80, 0
2, 30922, Note_on_c, 0, 73, 80
2, 30996, Note_on_c, 0, 73, 0
2, 31003, Note_on_c, 0, 54, 62
2, 31024, Note_on_c, 0, 82, 89
2, 31108, Note_on_c, 0, 73, 80
2, 31111, Note_on_c, 0, 82, 0
2, 31183, Note_on_c, 0, 73, 0
2, 31206, Note_on_c, 0, 82, 87
2, 31235, Note_on_c, 0, 54, 0
2, 31282, Note_on_c, 0, 73, 77
2, 31289, Note_on_c, 0, 82, 0
2, 31360, Note_on_c, 0, 61, 68
2, 31368, Note_on_c, 0, 73, 0
2, 31385, Note_on_c, 0, 82, 77
2, 31402, Note_on_c, 0, 61, 0
2, 31463, Note_on_c, 0, 82, 0
2, 31464, Note_on_c, 0, 73, 73
2, 31539, Note_on_c, 0, 53, 63
2, 31546, Note_on_c, 0, 73, 0
2, 31560, Note_on_c, 0, 80, 79
2, 31636, Note_on_c, 0, 80, 0
2, 31646, Note_on_c, 0, 73, 76
2, 31716, Note_on_c, 0, 73, 0
2, 31732, Note_on_c, 0, 80, 79
2, 31739, Note_on_c, 0, 53, 0
2, 31800, Note_on_c, 0, 80, 0
2, 31815, Note_on_c, 0, 73, 75
2, 31883, Note_on_c, 0, 73, 0
2, 31886, Note_on_c, 0, 61, 57
2, 31902, Note_on_c, 0, 80, 75
2, 31926, Note_on_c, 0, 61, 0
2, 31954, Note_on_c, 0, 80, 0
2, 31975, Note_on_c, 0, 73, 73
2, 32051, Note_on_c, 0, 73, 0
2, 32054, Note_on_c, 0, 51, 60
2, 32062, Note_on_c, 0, 78, 72
2, 32152, Note_on_c, 0, 78, 0
2, 32158, Note_on_c, 0, 77, 70
2, 32233, Note_on_c, 0, 77, 0
2, 32240, Note_on_c, 0, 75, 71
2, 32273, Note_on_c, 0, 51, 0
2, 32317, Note_on_c, 0, 77, 71
2, 32342, Note_on_c, 0, 75, 0
2, 32400, Note_on_c, 0, 60, 54
2, 32406, Note_on_c, 0, 78, 72
2, 32429, Note_on_c, 0, 77, 0
2, 32431, Note_on_c, 0, 60, 0
2, 32494, Note_on_c, 0, 75, 68
2, 32496, Note_on_c, 0, 78, 0
2, 32564, Note_on_c, 0, 49, 58
2, 32573, Note_on_c, 0, 77, 73
2, 32578, Note_on_c, 0, 75, 0
2, 32666, Note_on_c, 0, 75, 71
2, 32673, Note_on_c, 0, 77, 0
2, 32747, Note_on_c, 0, 73, 72
2, 32749, Note_on_c, 0, 75, 0
2, 32781, Note_on_c, 0, 49, 0
2, 32839, Note_on_c, 0, 75, 70
2, 32866, Note_on_c, 0, 73, 0
2, 32920, Note_on_c, 0, 77, 74
2, 32935, Note_on_c, 0, 75, 0
2, 32939, Note_on_c, 0, 61, 58
2, 32971, Note_on_c, 0, 61, 0
2, 33009, Note_on_c, 0, 77, 0
2, 33010, Note_on_c, 0, 73, 73
2, 33099, Note_on_c, 0, 75, 74
2, 33108, Note_on_c, 0, 54, 63
2, 33130, Note_on_c, 0, 73, 0
2, 33155, Note_on_c, 0, 54, 0
2, 33176, Note_on_c, 0, 75, 0
2, 33183, Note_on_c, 0, 77, 68
2, 33275, Note_on_c, 0, 75, 65
2, 33282, Note_on_c, 0, 77, 0
2, 33283, Note_on_c, 0, 53, 47
2, 33321, Note_on_c, 0, 53, 0
2, 33365, Note_on_c, 0, 73, 61
2, 33384, Note_on_c, 0, 75, 0
2, 33427, Note_on_c, 0, 73, 0
2, 33448, Note_on_c, 0, 51, 58
2, 33451, Note_on_c, 0, 72, 65
2, 33482, Note_on_c, 0, 51, 0
2, 33525, Note_on_c, 0, 72, 0
2, 33528, Note_on_c, 0, 70, 66
2, 33621, Note_on_c, 0, 70, 0
2, 33623, Note_on_c, 0, 72, 61
2, 33629, Note_on_c, 0, 56, 67
2, 33666, Note_on_c, 0, 56, 0
2, 33697, Note_on_c, 0, 72, 0
2, 33725, Note_on_c, 0, 68, 57
2, 33767, Note_on_c, 0, 68, 0
2, 33815, Note_on_c, 0, 66, 66
2, 33849, Note_on_c, 0, 66, 0
2, 33885, Note_on_c, 0, 68, 61
2, 33922, Note_on_c, 0, 68, 0
2, 33997, Note_on_c, 0, 63, 62
2, 34022, Note_on_c, 0, 63, 0
2, 34074, Note_on_c, 0, 68, 49
2, 34123, Note_on_c, 0, 68, 0
2, 34152, Note_on_c, 0, 72, 61
2, 34164, Note_on_c, 0, 56, 63
2, 34196, Note_on_c, 0, 56, 0
2, 34209, Note_on_c, 0, 72, 0
2, 34232, Note_on_c, 0, 68, 61
2, 34273, Note_on_c, 0, 68, 0
2, 34331, Note_on_c, 0, 66, 70
2, 34361, Note_on_c, 0, 66, 0
2, 34427, Note_on_c, 0, 68, 58
2, 34459, Note_on_c, 0, 68, 0
2, 34525, Note_on_c, 0, 63, 59
2, 34549, Note_on_c, 0, 63, 0
2, 34575, Note_on_c, 0, 68, 57
2, 34681, Note_on_c, 0, 68, 0
2, 34696, Note_on_c, 0, 56, 61
2, 34696, Note_on_c, 0, 73, 65
2, 34723, Note_on_c, 0, 56, 0
2, 34746, Note_on_c, 0, 73, 0
2, 34796, Note_on_c, 0, 68, 58
2, 34822, Note_on_c, 0, 68, 0
2, 34882, Note_on_c, 0, 65, 54
2, 34906, Note_on_c, 0, 65, 0
2, 34956, Note_on_c, 0, 68, 53
2, 35002, Note_on_c, 0, 68, 0
2, 35045, Note_on_c, 0, 61, 61
2, 35077, Note_on_c, 0, 61, 0
2, 35130, Note_on_c, 0, 68, 56
2, 35206, Note_on_c, 0, 68, 0
2, 35226, Note_on_c, 0, 56, 68
2, 35226, Note_on_c, 0, 73, 70
2, 35262, Note_on_c, 0, 56, 0
2, 35272, Note_on_c, 0, 73, 0
2, 35317, Note_on_c, 0, 68, 63
2, 35350, Note_on_c, 0, 68, 0
2, 35407, Note_on_c, 0, 65, 64
2, 35438, Note_on_c, 0, 65, 0
2, 35476, Note_on_c, 0, 68, 51
2, 35506, Note_on_c, 0, 68, 0
2, 35570, Note_on_c, 0, 61, 62
2, 35596, Note_on_c, 0, 61, 0
2, 35637, Note_on_c, 0, 68, 49
2, 35717, Note_on_c, 0, 68, 0
2, 35738, Note_on_c, 0, 56, 68
2, 35747, Note_on_c, 0, 78, 81
2, 35773, Note_on_c, 0, 56, 0
2, 35803, Note_on_c, 0, 78, 0
2, 35839, Note_on_c, 0, 68, 66
2, 35873, Note_on_c, 0, 68, 0
2, 35915, Note_on_c, 0, 63, 66
2, 35956, Note_on_c, 0, 63, 0
2, 36009, Note_on_c, 0, 68, 56
2, 36045, Note_on_c, 0, 68, 0
2, 36104, Note_on_c, 0, 60, 63
2, 36135, Note_on_c, 0, 60, 0
2, 36175, Note_on_c, 0, 68, 54
2, 36247, Note_on_c, 0, 68, 0
2, 36268, Note_on_c, 0, 56, 68
2, 36272, Note_on_c, 0, 78, 76
2, 36304, Note_on_c, 0, 56, 0
2, 36322, Note_on_c, 0, 78, 0
2, 36362, Note_on_c, 0, 68, 62
2, 36398, Note_on_c, 0, 68, 0
2, 36446, Note_on_c, 0, 63, 60
2, 36480, Note_on_c, 0, 63, 0
2, 36512, Note_on_c, 0, 68, 57
2, 36552, Note_on_c, 0, 68, 0
2, 36615, Note_on_c, 0, 60, 60
2, 36649, Note_on_c, 0, 60, 0
2, 36655, Note_on_c, 0, 68, 62
2, 36773, Note_on_c, 0, 77, 71
2, 36774, Note_on_c, 0, 56, 72
2, 36774, Note_on_c, 0, 68, 0
2, 36810, Note_on_c, 0, 56, 0
2, 36858, Note_on_c, 0, 77, 0
2, 36891, Note_on_c, 0, 68, 55
2, 36930, Note_on_c, 0, 68, 0
2, 36958, Note_on_c, 0, 65, 59
2, 36995, Note_on_c, 0, 65, 0
2, 37048, Note_on_c, 0, 68, 58
2, 37098, Note_on_c, 0, 68, 0
2, 37127, Note_on_c, 0, 61, 63
2, 37169, Note_on_c, 0, 61, 0
2, 37223, Note_on_c, 0, 68, 62
2, 37291, Note_on_c, 0, 56, 67
2, 37291, Note_on_c, 0, 77, 70
2, 37294, Note_on_c, 0, 68, 0
2, 37325, Note_on_c, 0, 56, 0
2, 37359, Note_on_c, 0, 77, 0
2, 37392, Note_on_c, 0, 68, 66
2, 37436, Note_on_c, 0, 68, 0
2, 37464, Note_on_c, 0, 65, 63
2, 37503, Note_on_c, 0, 65, 0
2, 37542, Note_on_c, 0, 68, 62
2, 37574, Note_on_c, 0, 68, 0
2, 37629, Note_on_c, 0, 61, 63
2, 37663, Note_on_c, 0, 61, 0
2, 37693, Note_on_c, 0, 68, 65
2, 37761, Note_on_c, 0, 68, 0
2, 37775, Note_on_c, 0, 79, 82
2, 37782, Note_on_c, 0, 56, 76
2, 37816, Note_on_c, 0, 56, 0
2, 37860, Note_on_c, 0, 79, 0
2, 37873, Note_on_c, 0, 70, 67
2, 37916, Note_on_c, 0, 70, 0
2, 37949, Note_on_c, 0, 64, 66
2, 37984, Note_on_c, 0, 64, 0
2, 38033, Note_on_c, 0, 70, 65
2, 38089, Note_on_c, 0, 70, 0
2, 38101, Note_on_c, 0, 61, 77
2, 38143, Note_on_c, 0, 61, 0
2, 38190, Note_on_c, 0, 70, 71
2, 38280, Note_on_c, 0, 56, 78
2, 38280, Note_on_c, 0, 79, 81
2, 38281, Note_on_c, 0, 70, 0
2, 38320, Note_on_c, 0, 56, 0
2, 38367, Note_on_c, 0, 79, 0
2, 38368, Note_on_c, 0, 70, 75
2, 38430, Note_on_c, 0, 70, 0
2, 38453, Note_on_c, 0, 64, 69
2, 38494, Note_on_c, 0, 64, 0
2, 38517, Note_on_c, 0, 70, 60
2, 38564, Note_on_c, 0, 70, 0
2, 38610, Note_on_c, 0, 61, 70
2, 38650, Note_on_c, 0, 61, 0
2, 38671, Note_on_c, 0, 70, 70
2, 38735, Note_on_c, 0, 70, 0
2, 38761, Note_on_c, 0, 80, 78
2, 38771, Note_on_c, 0, 56, 79
2, 38813, Note_on_c, 0, 56, 0
2, 38833, Note_on_c, 0, 80, 0
2, 38863, Note_on_c, 0, 72, 63
2, 38896, Note_on_c, 0, 72, 0
2, 38937, Note_on_c, 0, 63, 73
2, 38972, Note_on_c, 0, 63, 0
2, 39024, Note_on_c, 0, 72, 64
2, 39074, Note_on_c, 0, 72, 0
2, 39097, Note_on_c, 0, 60, 70
2, 39138, Note_on_c, 0, 60, 0
2, 39189, Note_on_c, 0, 72, 68
2, 39251, Note_on_c, 0, 72, 0
2, 39259, Note_on_c, 0, 54, 81
2, 39261, Note_on_c, 0, 80, 80
2, 39301, Note_on_c, 0, 54, 0
2, 39337, Note_on_c, 0, 80, 0
2, 39359, Note_on_c, 0, 72, 71
2, 39400, Note_on_c, 0, 72, 0
2, 39450, Note_on_c, 0, 63, 65
2, 39485, Note_on_c, 0, 63, 0
2, 39530, Note_on_c, 0, 72, 65
2, 39583, Note_on_c, 0, 72, 0
2, 39615, Note_on_c, 0, 60, 60
2, 39661, Note_on_c, 0, 60, 0
2, 39698, Note_on_c, 0, 72, 62
2, 39757, Note_on_c, 0, 72, 0
2, 39792, Note_on_c, 0, 53, 64
2, 39792, Note_on_c, 0, 80, 71
2, 39830, Note_on_c, 0, 53, 0
2, 39882, Note_on_c, 0, 73, 63
2, 39883, Note_on_c, 0, 80, 0
2, 39914, Note_on_c, 0, 73, 0
2, 39965, Note_on_c, 0, 65, 68
2, 39997, Note_on_c, 0, 65, 0
2, 40032, Note_on_c, 0, 68, 64
2, 40063, Note_on_c, 0, 68, 0
2, 40123, Note_on_c, 0, 61, 69
2, 40168, Note_on_c, 0, 61, 0
2, 40219, Note_on_c, 0, 73, 68
2, 40258, Note_on_c, 0, 73, 0
2, 40288, Note_on_c, 0, 56, 76
2, 40343, Note_on_c, 0, 56, 0
2, 40382, Note_on_c, 0, 77, 72
2, 40426, Note_on_c, 0, 77, 0
2, 40454, Note_on_c, 0, 53, 76
2, 40502, Note_on_c, 0, 53, 0
2, 40562, Note_on_c, 0, 80, 75
2, 40615, Note_on_c, 0, 80, 0
2, 40621, Note_on_c, 0, 51, 73
2, 40682, Note_on_c, 0, 51, 0
2, 40718, Note_on_c, 0, 82, 73
2, 40793, Note_on_c, 0, 50, 62
2, 40804, Note_on_c, 0, 82, 0
2, 40808, Note_on_c, 0, 83, 73
2, 40848, Note_on_c, 0, 50, 0
2, 40901, Note_on_c, 0, 82, 75
2, 40942, Note_on_c, 0, 83, 0
2, 40970, Note_on_c, 0, 80, 77
2, 40982, Note_on_c, 0, 53, 54
2, 41005, Note_on_c, 0, 82, 0
2, 41029, Note_on_c, 0, 53, 0
2, 41062, Note_on_c, 0, 78, 76
2, 41074, Note_on_c, 0, 80, 0
2, 41113, Note_on_c, 0, 78, 0
2, 41129, Note_on_c, 0, 58, 65
2, 41136, Note_on_c, 0, 77, 72
2, 41166, Note_on_c, 0, 58, 0
2, 41210, Note_on_c, 0, 77, 0
2, 41219, Note_on_c, 0, 75, 71
2, 41271, Note_on_c, 0, 75, 0
2, 41300, Note_on_c, 0, 62, 74
2, 41302, Note_on_c, 0, 77, 74
2, 41353, Note_on_c, 0, 62, 0
2, 41385, Note_on_c, 0, 77, 0
2, 41389, Note_on_c, 0, 78, 73
2, 41462, Note_on_c, 0, 65, 72
2, 41472, Note_on_c, 0, 80, 76
2, 41475, Note_on_c, 0, 78, 0
2, 41502, Note_on_c, 0, 65, 0
2, 41539, Note_on_c, 0, 80, 0
2, 41558, Note_on_c, 0, 83, 66
2, 41625, Note_on_c, 0, 68, 74
2, 41647, Note_on_c, 0, 82, 56
2, 41656, Note_on_c, 0, 68, 0
2, 41672, Note_on_c, 0, 83, 0
2, 41711, Note_on_c, 0, 80, 65
2, 41711, Note_on_c, 0, 82, 0
2, 41798, Note_on_c, 0, 80, 0
2, 41799, Note_on_c, 0, 82, 69
2, 41804, Note_on_c, 0, 66, 79
2, 41835, Note_on_c, 0, 66, 0
2, 41878, Note_on_c, 0, 82, 0
2, 41892, Note_on_c, 0, 75, 59
2, 41920, Note_on_c, 0, 75, 0
2, 41966, Note_on_c, 0, 63, 68
2, 42009, Note_on_c, 0, 63, 0
2, 42050, Note_on_c, 0, 66, 63
2, 42083, Note_on_c, 0, 66, 0
2, 42147, Note_on_c, 0, 58, 69
2, 42184, Note_on_c, 0, 58, 0
2, 42226, Note_on_c, 0, 70, 63
2, 42257, Note_on_c, 0, 70, 0
2, 42312, Note_on_c, 0, 54, 71
2, 42356, Note_on_c, 0, 54, 0
2, 42394, Note_on_c, 0, 75, 63
2, 42424, Note_on_c, 0, 75, 0
2, 42483, Note_on_c, 0, 51, 70
2, 42537, Note_on_c, 0, 51, 0
2, 42575, Note_on_c, 0, 78, 64
2, 42606, Note_on_c, 0, 78, 0
2, 42652, Note_on_c, 0, 49, 67
2, 42715, Note_on_c, 0, 49, 0
2, 42730, Note_on_c, 0, 80, 62
2, 42787, Note_on_c, 0, 80, 0
2, 42810, Note_on_c, 0, 81, 68
2, 42821, Note_on_c, 0, 48, 69
2, 42879, Note_on_c, 0, 48, 0
2, 42918, Note_on_c, 0, 80, 61
2, 42944, Note_on_c, 0, 81, 0
2, 42990, Note_on_c, 0, 78, 66
2, 43000, Note_on_c, 0, 51, 53
2, 43011, Note_on_c, 0, 80, 0
2, 43045, Note_on_c, 0, 51, 0
2, 43053, Note_on_c, 0, 78, 0
2, 43089, Note_on_c, 0, 76, 58
2, 43149, Note_on_c, 0, 56, 57
2, 43162, Note_on_c, 0, 76, 0
2, 43169, Note_on_c, 0, 75, 61
2, 43190, Note_on_c, 0, 56, 0
2, 43244, Note_on_c, 0, 75, 0
2, 43254, Note_on_c, 0, 73, 61
2, 43327, Note_on_c, 0, 60, 70
2, 43342, Note_on_c, 0, 73, 0
2, 43342, Note_on_c, 0, 75, 61
2, 43365, Note_on_c, 0, 60, 0
2, 43387, Note_on_c, 0, 75, 0
2, 43421, Note_on_c, 0, 76, 59
2, 43495, Note_on_c, 0, 76, 0
2, 43497, Note_on_c, 0, 63, 73
2, 43504, Note_on_c, 0, 78, 69
2, 43537, Note_on_c, 0, 63, 0
2, 43574, Note_on_c, 0, 78, 0
2, 43584, Note_on_c, 0, 81, 66
2, 43659, Note_on_c, 0, 66, 72
2, 43677, Note_on_c, 0, 80, 61
2, 43702, Note_on_c, 0, 81, 0
2, 43704, Note_on_c, 0, 66, 0
2, 43743, Note_on_c, 0, 78, 64
2, 43746, Note_on_c, 0, 80, 0
2, 43822, Note_on_c, 0, 78, 0
2, 43824, Note_on_c, 0, 80, 66
2, 43829, Note_on_c, 0, 64, 69
2, 43879, Note_on_c, 0, 64, 0
2, 43895, Note_on_c, 0, 80, 0
2, 43993, Note_on_c, 0, 61, 70
2, 44053, Note_on_c, 0, 61, 0
2, 44087, Note_on_c, 0, 76, 41
2, 44113, Note_on_c, 0, 76, 0
2, 44155, Note_on_c, 0, 57, 64
2, 44189, Note_on_c, 0, 57, 0
2, 44234, Note_on_c, 0, 73, 60
2, 44267, Note_on_c, 0, 73, 0
2, 44308, Note_on_c, 0, 54, 66
2, 44350, Note_on_c, 0, 54, 0
2, 44412, Note_on_c, 0, 69, 61
2, 44452, Note_on_c, 0, 69, 0
2, 44489, Note_on_c, 0, 63, 72
2, 44525, Note_on_c, 0, 63, 0
2, 44567, Note_on_c, 0, 66, 66
2, 44600, Note_on_c, 0, 66, 0
2, 44650, Note_on_c, 0, 60, 70
2, 44696, Note_on_c, 0, 60, 0
2, 44728, Note_on_c, 0, 75, 61
2, 44763, Note_on_c, 0, 75, 0
2, 44822, Note_on_c, 0, 52, 71
2, 44855, Note_on_c, 0, 52, 0
2, 44895, Note_on_c, 0, 68, 61
2, 44932, Note_on_c, 0, 68, 0
2, 44987, Note_on_c, 0, 61, 70
2, 45024, Note_on_c, 0, 61, 0
2, 45065, Note_on_c, 0, 64, 60
2, 45109, Note_on_c, 0, 64, 0
2, 45159, Note_on_c, 0, 57, 72
2, 45213, Note_on_c, 0, 57, 0
2, 45245, Note_on_c, 0, 73, 57
2, 45288, Note_on_c, 0, 73, 0
2, 45335, Note_on_c, 0, 54, 66
2, 45390, Note_on_c, 0, 54, 0
2, 45411, Note_on_c, 0, 69, 56
2, 45448, Note_on_c, 0, 69, 0
2, 45505, Note_on_c, 0, 51, 62
2, 45547, Note_on_c, 0, 51, 0
2, 45577, Note_on_c, 0, 66, 52
2, 45607, Note_on_c, 0, 66, 0
2, 45653, Control_c, 0, 67, 9
2, 45659, Note_on_c, 0, 48, 64
2, 45669, Control_c, 0, 67, 13
2, 45684, Control_c, 0, 67, 18
2, 45699, Control_c, 0, 67, 26
2, 45702, Note_on_c, 0, 48, 0
2, 45715, Control_c, 0, 67, 38
2, 45729, Control_c, 0, 67, 50
2, 45730, Note_on_c, 0, 63, 51
2, 45745, Control_c, 0, 67, 63
2, 45757, Note_on_c, 0, 63, 0
2, 45760, Control_c, 0, 67, 80
2, 45775, Control_c, 0, 67, 107
2, 45791, Control_c, 0, 67, 127
2, 45836, Note_on_c, 0, 44, 62
2, 45844, Note_on_c, 0, 60, 70
2, 45876, Note_on_c, 0, 44, 0
2, 45913, Note_on_c, 0, 60, 0
2, 45941, Note_on_c, 0, 56, 63
2, 45982, Note_on_c, 0, 56, 0
2, 46030, Note_on_c, 0, 54, 64
2, 46069, Note_on_c, 0, 54, 0
2, 46112, Note_on_c, 0, 56, 60
2, 46154, Note_on_c, 0, 56, 0
2, 46207, Note_on_c, 0, 51, 63
2, 46236, Note_on_c, 0, 51, 0
2, 46278, Note_on_c, 0, 56, 58
2, 46363, Note_on_c, 0, 56, 0
2, 46369, Note_on_c, 0, 60, 65
2, 46370, Note_on_c, 0, 44, 61
2, 46398, Note_on_c, 0, 44, 0
2, 46439, Note_on_c, 0, 60, 0
2, 46458, Note_on_c, 0, 56, 46
2, 46501, Note_on_c, 0, 56, 0
2, 46537, Note_on_c, 0, 54, 59
2, 46571, Note_on_c, 0, 54, 0
2, 46628, Note_on_c, 0, 56, 60
2, 46669, Note_on_c, 0, 56, 0
2, 46724, Note_on_c, 0, 51, 60
2, 46755, Note_on_c, 0, 51, 0
2, 46792, Note_on_c, 0, 56, 59
2, 46882, Note_on_c, 0, 56, 0
2, 46892, Note_on_c, 0, 61, 75
2, 46894, Note_on_c, 0, 44, 60
2, 46930, Note_on_c, 0, 44, 0
2, 46960, Note_on_c, 0, 61, 0
2, 46993, Note_on_c, 0, 56, 60
2, 47030, Note_on_c, 0, 56, 0
2, 47062, Note_on_c, 0, 53, 59
2, 47094, Note_on_c, 0, 53, 0
2, 47156, Note_on_c, 0, 56, 59
2, 47195, Note_on_c, 0, 56, 0
2, 47239, Note_on_c, 0, 49, 58
2, 47270, Note_on_c, 0, 49, 0
2, 47300, Note_on_c, 0, 56, 55
2, 47378, Note_on_c, 0, 56, 0
2, 47397, Note_on_c, 0, 61, 70
2, 47406, Note_on_c, 0, 44, 59
2, 47443, Note_on_c, 0, 44, 0
2, 47452, Note_on_c, 0, 61, 0
2, 47498, Note_on_c, 0, 56, 59
2, 47536, Note_on_c, 0, 56, 0
2, 47579, Note_on_c, 0, 53, 56
2, 47617, Note_on_c, 0, 53, 0
2, 47657, Note_on_c, 0, 56, 57
2, 47696, Note_on_c, 0, 56, 0
2, 47744, Note_on_c, 0, 49, 59
2, 47776, Note_on_c, 0, 49, 0
2, 47810, Note_on_c, 0, 56, 56
2, 47877, Note_on_c, 0, 56, 0
2, 47904, Note_on_c, 0, 44, 62
2, 47911, Note_on_c, 0, 66, 72
2, 47948, Note_on_c, 0, 44, 0
2, 47953, Note_on_c, 0, 66, 0
2, 47986, Note_on_c, 0, 56, 62
2, 48033, Note_on_c, 0, 56, 0
2, 48076, Note_on_c, 0, 51, 58
2, 48117, Note_on_c, 0, 51, 0
2, 48157, Note_on_c, 0, 56, 62
2, 48197, Note_on_c, 0, 56, 0
2, 48259, Note_on_c, 0, 48, 65
2, 48292, Note_on_c, 0, 48, 0
2, 48329, Note_on_c, 0, 56, 55
2, 48388, Note_on_c, 0, 56, 0
2, 48416, Note_on_c, 0, 66, 70
2, 48420, Note_on_c, 0, 44, 67
2, 48464, Note_on_c, 0, 44, 0
2, 48473, Note_on_c, 0, 66, 0
2, 48510, Note_on_c, 0, 56, 66
2, 48556, Note_on_c, 0, 56, 0
2, 48589, Note_on_c, 0, 51, 59
2, 48623, Note_on_c, 0, 51, 0
2, 48678, Note_on_c, 0, 56, 58
2, 48717, Note_on_c, 0, 56, 0
2, 48772, Note_on_c, 0, 48, 40
2, 48801, Note_on_c, 0, 48, 0
2, 48831, Note_on_c, 0, 56, 50
2, 48917, Note_on_c, 0, 56, 0
2, 48917, Note_on_c, 0, 65, 67
2, 48918, Note_on_c, 0, 44, 69
2, 48959, Note_on_c, 0, 44, 0
2, 49008, Note_on_c, 0, 65, 0
2, 49022, Note_on_c, 0, 56, 60
2, 49065, Note_on_c, 0, 56, 0
2, 49102, Note_on_c, 0, 53, 60
2, 49136, Note_on_c, 0, 53, 0
2, 49186, Note_on_c, 0, 56, 64
2, 49228, Note_on_c, 0, 56, 0
2, 49254, Note_on_c, 0, 49, 68
2, 49289, Note_on_c, 0, 49, 0
2, 49349, Note_on_c, 0, 56, 62
2, 49411, Note_on_c, 0, 44, 76
2, 49420, Note_on_c, 0, 65, 69
2, 49422, Note_on_c, 0, 56, 0
2, 49452, Note_on_c, 0, 44, 0
2, 49492, Note_on_c, 0, 65, 0
2, 49513, Note_on_c, 0, 56, 67
2, 49562, Note_on_c, 0, 56, 0
2, 49581, Control_c, 0, 67, 114
2, 49581, Note_on_c, 0, 53, 66
2, 49597, Control_c, 0, 67, 66
2, 49612, Control_c, 0, 67, 8
2, 49623, Note_on_c, 0, 53, 0
2, 49628, Control_c, 0, 67, 0
2, 49672, Note_on_c, 0, 56, 70
2, 49711, Note_on_c, 0, 56, 0
2, 49743, Note_on_c, 0, 49, 70
2, 49797, Note_on_c, 0, 49, 0
2, 49831, Note_on_c, 0, 56, 67
2, 49891, Note_on_c, 0, 56, 0
2, 49902, Note_on_c, 0, 44, 82
2, 49903, Note_on_c, 0, 67, 77
2, 49954, Note_on_c, 0, 44, 0
2, 49996, Note_on_c, 0, 58, 70
2, 49996, Note_on_c, 0, 67, 0
2, 50042, Note_on_c, 0, 58, 0
2, 50070, Note_on_c, 0, 52, 72
2, 50118, Note_on_c, 0, 52, 0
2, 50159, Note_on_c, 0, 58, 68
2, 50200, Note_on_c, 0, 58, 0
2, 50232, Note_on_c, 0, 49, 76
2, 50286, Note_on_c, 0, 49, 0
2, 50316, Note_on_c, 0, 58, 71
2, 50393, Note_on_c, 0, 44, 78
2, 50395, Note_on_c, 0, 67, 76
2, 50397, Note_on_c, 0, 58, 0
2, 50437, Note_on_c, 0, 44, 0
2, 50485, Note_on_c, 0, 58, 73
2, 50488, Note_on_c, 0, 67, 0
2, 50552, Note_on_c, 0, 58, 0
2, 50573, Note_on_c, 0, 52, 66
2, 50609, Note_on_c, 0, 52, 0
2, 50641, Note_on_c, 0, 58, 68
2, 50685, Note_on_c, 0, 58, 0
2, 50723, Note_on_c, 0, 49, 73
2, 50772, Note_on_c, 0, 49, 0
2, 50799, Note_on_c, 0, 58, 66
2, 50847, Note_on_c, 0, 58, 0
2, 50877, Note_on_c, 0, 44, 67
2, 50956, Note_on_c, 0, 48, 61
2, 50965, Note_on_c, 0, 44, 0
2, 51049, Note_on_c, 0, 51, 68
2, 51061, Note_on_c, 0, 48, 0
2, 51112, Note_on_c, 0, 51, 0
2, 51124, Note_on_c, 0, 54, 68
2, 51209, Note_on_c, 0, 57, 69
2, 51237, Note_on_c, 0, 54, 0
2, 51308, Note_on_c, 0, 60, 72
2, 51328, Note_on_c, 0, 57, 0
2, 51368, Note_on_c, 0, 61, 71
2, 51371, Note_on_c, 0, 60, 0
2, 51439, Note_on_c, 0, 64, 72
2, 51454, Note_on_c, 0, 61, 0
2, 51533, Note_on_c, 0, 67, 65
2, 51575, Note_on_c, 0, 64, 0
2, 51603, Note_on_c, 0, 67, 0
2, 51626, Note_on_c, 0, 70, 74
2, 51716, Note_on_c, 0, 73, 75
2, 51740, Note_on_c, 0, 70, 0
2, 51803, Note_on_c, 0, 76, 72
2, 51814, Note_on_c, 0, 73, 0
2, 51864, Note_on_c, 0, 76, 0
2, 51886, Note_on_c, 0, 44, 60
2, 51886, Note_on_c, 0, 72, 79
2, 51976, Note_on_c, 0, 75, 77
2, 51982, Note_on_c, 0, 72, 0
2, 52044, Note_on_c, 0, 75, 0
2, 52053, Note_on_c, 0, 78, 77
2, 52130, Note_on_c, 0, 44, 0
2, 52141, Note_on_c, 0, 75, 73
2, 52184, Note_on_c, 0, 78, 0
2, 52198, Note_on_c, 0, 75, 0
2, 52214, Note_on_c, 0, 72, 70
2, 52295, Note_on_c, 0, 72, 0
2, 52321, Note_on_c, 0, 70, 8
2, 52353, Note_on_c, 0, 69, 15
2, 52369, Note_on_c, 0, 70, 0
2, 52371, Note_on_c, 0, 66, 70
2, 52383, Note_on_c, 0, 69, 0
2, 52450, Note_on_c, 0, 66, 0
2, 52451, Note_on_c, 0, 63, 63
2, 52537, Note_on_c, 0, 60, 66
2, 52539, Note_on_c, 0, 63, 0
2, 52618, Note_on_c, 0, 60, 0
2, 52624, Note_on_c, 0, 56, 67
2, 52711, Note_on_c, 0, 60, 63
2, 52717, Note_on_c, 0, 56, 0
2, 52791, Note_on_c, 0, 60, 0
2, 52799, Note_on_c, 0, 63, 59
2, 52890, Note_on_c, 0, 63, 0
2, 52908, Note_on_c, 0, 56, 54
2, 52942, Note_on_c, 0, 65, 58
2, 53022, Note_on_c, 0, 68, 65
2, 53037, Note_on_c, 0, 65, 0
2, 53102, Note_on_c, 0, 73, 75
2, 53103, Note_on_c, 0, 68, 0
2, 53178, Note_on_c, 0, 68, 73
2, 53191, Note_on_c, 0, 56, 0
2, 53212, Note_on_c, 0, 73, 0
2, 53231, Note_on_c, 0, 68, 0
2, 53263, Note_on_c, 0, 65, 65
2, 53340, Note_on_c, 0, 61, 68
2, 53341, Note_on_c, 0, 65, 0
2, 53431, Note_on_c, 0, 58, 69
2, 53436, Note_on_c, 0, 61, 0
2, 53518, Note_on_c, 0, 58, 0
2, 53530, Note_on_c, 0, 55, 57
2, 53622, Note_on_c, 0, 52, 63
2, 53622, Note_on_c, 0, 55, 0
2, 53708, Note_on_c, 0, 49, 63
2, 53710, Note_on_c, 0, 52, 0
2, 53805, Note_on_c, 0, 52, 60
2, 53822, Note_on_c, 0, 49, 0
2, 53891, Note_on_c, 0, 52, 0
2, 53905, Note_on_c, 0, 55, 58
2, 53996, Note_on_c, 0, 55, 0
2, 54023, Note_on_c, 0, 44, 59
2, 54300, Note_on_c, 0, 73, 66
2, 54301, Note_on_c, 0, 68, 65
2, 54304, Note_on_c, 0, 56, 57
2, 54309, Note_on_c, 0, 65, 56
2, 54310, Note_on_c, 0, 53, 50
2, 54312, Note_on_c, 0, 49, 42
2, 54328, Note_on_c, 0, 56, 0
2, 54329, Note_on_c, 0, 65, 0
2, 54335, Note_on_c, 0, 73, 0
2, 54337, Note_on_c, 0, 68, 0
2, 54343, Note_on_c, 0, 53, 0
2, 54350, Note_on_c, 0, 49, 0
2, 54619, Note_on_c, 0, 68, 61
2, 54623, Note_on_c, 0, 51, 50
2, 54624, Note_on_c, 0, 54, 53
2, 54624, Note_on_c, 0, 63, 64
2, 54625, Note_on_c, 0, 56, 47
2, 54626, Note_on_c, 0, 72, 61
2, 54657, Note_on_c, 0, 63, 0
2, 54658, Note_on_c, 0, 56, 0
2, 54668, Note_on_c, 0, 68, 0
2, 54668, Note_on_c, 0, 72, 0
2, 54677, Note_on_c, 0, 54, 0
2, 54683, Note_on_c, 0, 51, 0
2, 55043, Note_on_c, 0, 49, 34
2, 55054, Note_on_c, 0, 53, 38
2, 55057, Note_on_c, 0, 56, 30
2, 55061, Note_on_c, 0, 68, 52
2, 55064, Note_on_c, 0, 61, 46
2, 55064, Note_on_c, 0, 73, 53
2, 55090, Note_on_c, 0, 44, 0
2, 55543, Control_c, 0, 64, 43
2, 55558, Control_c, 0, 64, 55
2, 55573, Control_c, 0, 64, 61
2, 55589, Control_c, 0, 64, 65
2, 55604, Control_c, 0, 64, 68
2, 55619, Control_c, 0, 64, 71
2, 55634, Control_c, 0, 64, 75
2, 55649, Control_c, 0, 64, 78
2, 55664, Control_c, 0, 64, 81
2, 55680, Control_c, 0, 64, 84
2, 55695, Control_c, 0, 64, 87
2, 55710, Control_c, 0, 64, 90
2, 55725, Control_c, 0, 64, 93
2, 55740, Control_c, 0, 64, 96
2, 55756, Control_c, 0, 64, 99
2, 55771, Control_c, 0, 64, 102
2, 55786, Control_c, 0, 64, 105
2, 55802, Control_c, 0, 64, 107
2, 55817, Control_c, 0, 64, 110
2, 55832, Control_c, 0, 64, 113
2, 55847, Control_c, 0, 64, 114
2, 55862, Control_c, 0, 64, 115
2, 55872, Note_on_c, 0, 73, 0
2, 55879, Note_on_c, 0, 61, 0
2, 55884, Note_on_c, 0, 56, 0
2, 55892, Control_c, 0, 64, 112
2, 55893, Note_on_c, 0, 68, 0
2, 55896, Note_on_c, 0, 53, 0
2, 55915, Control_c, 0, 64, 104
2, 55915, Note_on_c, 0, 49, 0
2, 55930, Control_c, 0, 64, 94
2, 55945, Control_c, 0, 64, 82
2, 55961, Control_c, 0, 64, 69
2, 55976, Control_c, 0, 64, 0
2, 57887, Note_on_c, 0, 68, 78
2, 57923, Note_on_c, 0, 68, 0
2, 58132, Note_on_c, 0, 70, 75
2, 58235, Note_on_c, 0, 70, 0
2, 58236, Note_on_c, 0, 68, 77
2, 58319, Note_on_c, 0, 68, 0
2, 58339, Note_on_c, 0, 66, 78
2, 58435, Note_on_c, 0, 68, 73
2, 58438, Note_on_c, 0, 66, 0
2, 58534, Note_on_c, 0, 77, 83
2, 58540, Note_on_c, 0, 68, 0
2, 58571, Note_on_c, 0, 77, 0
2, 58776, Note_on_c, 0, 73, 83
2, 58814, Note_on_c, 0, 73, 0
2, 59018, Note_on_c, 0, 68, 88
2, 59255, Note_on_c, 0, 66, 77
2, 59283, Note_on_c, 0, 68, 0
2, 59322, Note_on_c, 0, 66, 0
2, 59340, Note_on_c, 0, 65, 74
2, 59403, Note_on_c, 0, 65, 0
2, 59438, Note_on_c, 0, 66, 87
2, 59472, Note_on_c, 0, 66, 0
2, 59669, Note_on_c, 0, 75, 78
2, 59703, Note_on_c, 0, 75, 0
2, 59904, Note_on_c, 0, 65, 79
2, 59932, Note_on_c, 0, 65, 0
2, 60133, Note_on_c, 0, 73, 78
2, 60174, Note_on_c, 0, 73, 0
2, 60365, Note_on_c, 0, 63, 76
2, 60391, Note_on_c, 0, 63, 0
2, 60593, Note_on_c, 0, 72, 72
2, 60636, Note_on_c, 0, 72, 0
2, 60815, Note_on_c, 0, 61, 77
2, 60847, Note_on_c, 0, 61, 0
2, 61045, Note_on_c, 0, 73, 60
2, 61118, Note_on_c, 0, 73, 0
2, 61132, Note_on_c, 0, 72, 63
2, 61244, Note_on_c, 0, 73, 65
2, 61260, Note_on_c, 0, 72, 0
2, 61341, Note_on_c, 0, 75, 59
2, 61342, Note_on_c, 0, 73, 0
2, 61391, Note_on_c, 0, 75, 0
2, 61444, Note_on_c, 0, 61, 72
2, 61459, Note_on_c, 0, 77, 62
2, 61486, Note_on_c, 0, 61, 0
2, 61544, Note_on_c, 0, 77, 0
2, 61550, Note_on_c, 0, 78, 52
2, 61632, Note_on_c, 0, 78, 0
2, 61650, Note_on_c, 0, 80, 59
2, 61654, Note_on_c, 0, 65, 72
2, 61749, Note_on_c, 0, 80, 0
2, 61750, Note_on_c, 0, 65, 0
2, 61755, Note_on_c, 0, 63, 70
2, 61755, Note_on_c, 0, 79, 60
2, 61829, Note_on_c, 0, 79, 0
2, 61849, Note_on_c, 0, 63, 0
2, 61856, Note_on_c, 0, 61, 67
2, 61864, Note_on_c, 0, 77, 65
2, 61944, Note_on_c, 0, 77, 0
2, 61955, Note_on_c, 0, 63, 77
2, 61956, Note_on_c, 0, 61, 0
2, 61967, Note_on_c, 0, 79, 51
2, 62008, Note_on_c, 0, 79, 0
2, 62032, Note_on_c, 0, 63, 0
2, 62048, Note_on_c, 0, 80, 63
2, 62065, Note_on_c, 0, 72, 79
2, 62093, Note_on_c, 0, 72, 0
2, 62169, Note_on_c, 0, 78, 54
2, 62171, Note_on_c, 0, 80, 0
2, 62234, Note_on_c, 0, 78, 0
2, 62284, Note_on_c, 0, 77, 59
2, 62285, Note_on_c, 0, 68, 80
2, 62307, Note_on_c, 0, 68, 0
2, 62371, Note_on_c, 0, 77, 0
2, 62372, Note_on_c, 0, 75, 59
2, 62493, Note_on_c, 0, 75, 0
2, 62497, Note_on_c, 0, 77, 74
2, 62503, Note_on_c, 0, 63, 78
2, 62723, Note_on_c, 0, 63, 0
2, 62732, Note_on_c, 0, 61, 67
2, 62817, Note_on_c, 0, 61, 0
2, 62830, Note_on_c, 0, 60, 70
2, 62925, Note_on_c, 0, 60, 0
2, 62928, Note_on_c, 0, 61, 78
2, 62965, Note_on_c, 0, 61, 0
2, 63027, Note_on_c, 0, 77, 0
2, 63038, Note_on_c, 0, 75, 51
2, 63139, Note_on_c, 0, 75, 0
2, 63151, Note_on_c, 0, 70, 78
2, 63164, Note_on_c, 0, 73, 56
2, 63176, Note_on_c, 0, 70, 0
2, 63225, Note_on_c, 0, 73, 0
2, 63253, Note_on_c, 0, 77, 54
2, 63356, Note_on_c, 0, 77, 0
2, 63361, Note_on_c, 0, 60, 73
2, 63377, Note_on_c, 0, 75, 49
2, 63412, Note_on_c, 0, 60, 0
2, 63440, Note_on_c, 0, 75, 0
2, 63451, Note_on_c, 0, 73, 51
2, 63531, Note_on_c, 0, 73, 0
2, 63580, Note_on_c, 0, 68, 76
2, 63600, Note_on_c, 0, 72, 50
2, 63625, Note_on_c, 0, 68, 0
2, 63678, Note_on_c, 0, 72, 0
2, 63706, Note_on_c, 0, 75, 46
2, 63800, Note_on_c, 0, 58, 70
2, 63818, Note_on_c, 0, 73, 49
2, 63840, Note_on_c, 0, 58, 0
2, 63851, Note_on_c, 0, 75, 0
2, 63890, Note_on_c, 0, 73, 0
2, 63910, Note_on_c, 0, 72, 52
2, 63994, Note_on_c, 0, 72, 0
2, 64017, Note_on_c, 0, 67, 72
2, 64019, Note_on_c, 0, 73, 60
2, 64056, Note_on_c, 0, 67, 0
2, 64112, Note_on_c, 0, 73, 0
2, 64121, Note_on_c, 0, 70, 54
2, 64159, Note_on_c, 0, 70, 0
2, 64215, Note_on_c, 0, 56, 70
2, 64239, Note_on_c, 0, 70, 66
2, 64258, Note_on_c, 0, 56, 0
2, 64325, Note_on_c, 0, 72, 66
2, 64334, Note_on_c, 0, 70, 0
2, 64361, Note_on_c, 0, 72, 0
2, 64447, Note_on_c, 0, 68, 64
2, 64512, Note_on_c, 0, 68, 0
2, 64529, Note_on_c, 0, 67, 66
2, 64623, Note_on_c, 0, 67, 0
2, 64624, Note_on_c, 0, 68, 78
2, 64640, Note_on_c, 0, 78, 82
2, 64661, Note_on_c, 0, 68, 0
2, 64746, Note_on_c, 0, 70, 64
2, 64839, Note_on_c, 0, 56, 77
2, 64842, Note_on_c, 0, 70, 0
2, 64849, Note_on_c, 0, 72, 69
2, 64877, Note_on_c, 0, 56, 0
2, 64933, Note_on_c, 0, 72, 0
2, 64950, Note_on_c, 0, 68, 67
2, 65041, Note_on_c, 0, 68, 0
2, 65056, Note_on_c, 0, 58, 71
2, 65062, Note_on_c, 0, 73, 66
2, 65118, Note_on_c, 0, 78, 0
2, 65165, Note_on_c, 0, 58, 0
2, 65166, Note_on_c, 0, 56, 69
2, 65166, Note_on_c, 0, 72, 69
2, 65171, Note_on_c, 0, 73, 0
2, 65251, Note_on_c, 0, 72, 0
2, 65254, Note_on_c, 0, 56, 0
2, 65261, Note_on_c, 0, 54, 65
2, 65263, Note_on_c, 0, 70, 73
2, 65335, Note_on_c, 0, 70, 0
2, 65349, Note_on_c, 0, 54, 0
2, 65350, Note_on_c, 0, 56, 76
2, 65363, Note_on_c, 0, 72, 66
2, 65434, Note_on_c, 0, 56, 0
2, 65453, Note_on_c, 0, 65, 80
2, 65461, Note_on_c, 0, 73, 75
2, 65464, Note_on_c, 0, 77, 75
2, 65483, Note_on_c, 0, 72, 0
2, 65486, Note_on_c, 0, 65, 0
2, 65530, Note_on_c, 0, 73, 0
2, 65565, Note_on_c, 0, 72, 53
2, 65669, Note_on_c, 0, 72, 0
2, 65680, Note_on_c, 0, 70, 66
2, 65702, Note_on_c, 0, 61, 67
2, 65730, Note_on_c, 0, 61, 0
2, 65757, Note_on_c, 0, 70, 0
2, 65768, Note_on_c, 0, 68, 66
2, 65843, Note_on_c, 0, 68, 0
2, 65879, Note_on_c, 0, 70, 78
2, 65884, Note_on_c, 0, 56, 81
2, 65947, Note_on_c, 0, 77, 0
2, 66130, Note_on_c, 0, 56, 0
2, 66134, Note_on_c, 0, 54, 66
2, 66218, Note_on_c, 0, 53, 69
2, 66218, Note_on_c, 0, 54, 0
2, 66294, Note_on_c, 0, 70, 0
2, 66310, Note_on_c, 0, 54, 74
2, 66313, Note_on_c, 0, 53, 0
2, 66314, Note_on_c, 0, 75, 88
2, 66352, Note_on_c, 0, 54, 0
2, 66429, Note_on_c, 0, 68, 70
2, 66503, Note_on_c, 0, 68, 0
2, 66531, Note_on_c, 0, 66, 71
2, 66536, Note_on_c, 0, 63, 72
2, 66565, Note_on_c, 0, 63, 0
2, 66622, Note_on_c, 0, 66, 0
2, 66633, Note_on_c, 0, 70, 63
2, 66645, Note_on_c, 0, 75, 0
2, 66742, Note_on_c, 0, 53, 70
2, 66750, Note_on_c, 0, 68, 71
2, 66778, Note_on_c, 0, 70, 0
2, 66784, Note_on_c, 0, 53, 0
2, 66830, Note_on_c, 0, 68, 0
2, 66851, Note_on_c, 0, 66, 66
2, 66922, Note_on_c, 0, 66, 0
2, 66942, Note_on_c, 0, 61, 68
2, 66956, Note_on_c, 0, 73, 68
2, 66958, Note_on_c, 0, 65, 57
2, 66976, Note_on_c, 0, 61, 0
2, 67036, Note_on_c, 0, 73, 0
2, 67044, Note_on_c, 0, 68, 57
2, 67056, Note_on_c, 0, 65, 0
2, 67081, Note_on_c, 0, 68, 0
2, 67142, Note_on_c, 0, 51, 55
2, 67148, Note_on_c, 0, 72, 66
2, 67159, Note_on_c, 0, 66, 74
2, 67186, Note_on_c, 0, 51, 0
2, 67197, Note_on_c, 0, 72, 0
2, 67227, Note_on_c, 0, 66, 0
2, 67252, Note_on_c, 0, 65, 61
2, 67303, Note_on_c, 0, 65, 0
2, 67341, Note_on_c, 0, 60, 56
2, 67342, Note_on_c, 0, 66, 73
2, 67343, Note_on_c, 0, 75, 63
2, 67371, Note_on_c, 0, 60, 0
2, 67399, Note_on_c, 0, 66, 0
2, 67436, Note_on_c, 0, 63, 74
2, 67479, Note_on_c, 0, 63, 0
2, 67535, Note_on_c, 0, 49, 61
2, 67549, Note_on_c, 0, 65, 74
2, 67579, Note_on_c, 0, 49, 0
2, 67621, Note_on_c, 0, 75, 0
2, 67763, Note_on_c, 0, 61, 66
2, 67775, Note_on_c, 0, 68, 76
2, 67806, Note_on_c, 0, 68, 0
2, 67840, Note_on_c, 0, 61, 0
2, 67853, Note_on_c, 0, 60, 63
2, 67945, Note_on_c, 0, 65, 0
2, 67959, Note_on_c, 0, 77, 94
2, 67960, Note_on_c, 0, 61, 73
2, 67962, Note_on_c, 0, 60, 0
2, 68061, Note_on_c, 0, 61, 0
2, 68078, Note_on_c, 0, 63, 65
2, 68150, Note_on_c, 0, 63, 0
2, 68171, Note_on_c, 0, 68, 80
2, 68172, Note_on_c, 0, 65, 61
2, 68212, Note_on_c, 0, 68, 0
2, 68251, Note_on_c, 0, 65, 0
2, 68271, Note_on_c, 0, 61, 58
2, 68375, Note_on_c, 0, 61, 0
2, 68389, Note_on_c, 0, 58, 61
2, 68392, Note_on_c, 0, 73, 84
2, 68410, Note_on_c, 0, 77, 0
2, 68482, Note_on_c, 0, 58, 0
2, 68492, Note_on_c, 0, 60, 70
2, 68576, Note_on_c, 0, 60, 0
2, 68601, Note_on_c, 0, 73, 0
2, 68604, Note_on_c, 0, 61, 69
2, 68607, Note_on_c, 0, 77, 74
2, 68658, Note_on_c, 0, 61, 0
2, 68693, Note_on_c, 0, 58, 59
2, 68700, Note_on_c, 0, 73, 75
2, 68700, Note_on_c, 0, 77, 0
2, 68783, Note_on_c, 0, 58, 0
2, 68803, Note_on_c, 0, 73, 0
2, 68805, Note_on_c, 0, 55, 63
2, 68808, Note_on_c, 0, 70, 71
2, 68890, Note_on_c, 0, 55, 0
2, 68902, Note_on_c, 0, 56, 66
2, 69010, Note_on_c, 0, 70, 0
2, 69013, Note_on_c, 0, 58, 63
2, 69028, Note_on_c, 0, 73, 68
2, 69038, Note_on_c, 0, 56, 0
2, 69081, Note_on_c, 0, 58, 0
2, 69113, Note_on_c, 0, 55, 58
2, 69124, Note_on_c, 0, 70, 67
2, 69132, Note_on_c, 0, 73, 0
2, 69169, Note_on_c, 0, 55, 0
2, 69179, Note_on_c, 0, 70, 0
2, 69212, Note_on_c, 0, 63, 73
2, 69216, Note_on_c, 0, 48, 66
2, 69246, Note_on_c, 0, 48, 0
2, 69447, Note_on_c, 0, 60, 49
2, 69448, Note_on_c, 0, 70, 67
2, 69477, Note_on_c, 0, 70, 0
2, 69506, Note_on_c, 0, 60, 0
2, 69536, Note_on_c, 0, 58, 47
2, 69619, Note_on_c, 0, 58, 0
2, 69642, Note_on_c, 0, 63, 0
2, 69643, Note_on_c, 0, 60, 46
2, 69659, Note_on_c, 0, 75, 78
2, 69742, Note_on_c, 0, 60, 0
2, 69754, Note_on_c, 0, 61, 44
2, 69855, Note_on_c, 0, 61, 0
2, 69859, Note_on_c, 0, 63, 54
2, 69878, Note_on_c, 0, 67, 68
2, 69907, Note_on_c, 0, 67, 0
2, 69919, Note_on_c, 0, 63, 0
2, 69965, Note_on_c, 0, 60, 47
2, 70019, Note_on_c, 0, 60, 0
2, 70063, Note_on_c, 0, 75, 0
2, 70076, Note_on_c, 0, 56, 57
2, 70089, Note_on_c, 0, 72, 75
2, 70166, Note_on_c, 0, 56, 0
2, 70190, Note_on_c, 0, 58, 58
2, 70269, Note_on_c, 0, 58, 0
2, 70300, Note_on_c, 0, 60, 53
2, 70301, Note_on_c, 0, 72, 0
2, 70312, Note_on_c, 0, 75, 67
2, 70348, Note_on_c, 0, 60, 0
2, 70398, Note_on_c, 0, 56, 56
2, 70404, Note_on_c, 0, 75, 0
2, 70410, Note_on_c, 0, 72, 67
2, 70482, Note_on_c, 0, 72, 0
2, 70487, Note_on_c, 0, 56, 0
2, 70514, Note_on_c, 0, 53, 59
2, 70514, Note_on_c, 0, 68, 59
2, 70604, Note_on_c, 0, 53, 0
2, 70624, Note_on_c, 0, 55, 49
2, 70692, Note_on_c, 0, 55, 0
2, 70703, Note_on_c, 0, 68, 0
2, 70712, Note_on_c, 0, 56, 61
2, 70731, Note_on_c, 0, 72, 57
2, 70774, Note_on_c, 0, 56, 0
2, 70800, Note_on_c, 0, 72, 0
2, 70814, Note_on_c, 0, 68, 61
2, 70830, Note_on_c, 0, 53, 45
2, 70870, Note_on_c, 0, 68, 0
2, 70876, Note_on_c, 0, 53, 0
2, 70908, Note_on_c, 0, 46, 69
2, 70913, Note_on_c, 0, 61, 62
2, 70944, Note_on_c, 0, 46, 0
2, 71132, Note_on_c, 0, 68, 64
2, 71138, Note_on_c, 0, 58, 52
2, 71162, Note_on_c, 0, 68, 0
2, 71208, Note_on_c, 0, 58, 0
2, 71227, Note_on_c, 0, 56, 56
2, 71328, Note_on_c, 0, 56, 0
2, 71334, Note_on_c, 0, 61, 0
2, 71346, Note_on_c, 0, 58, 55
2, 71350, Note_on_c, 0, 73, 74
2, 71431, Note_on_c, 0, 58, 0
2, 71449, Note_on_c, 0, 60, 55
2, 71539, Note_on_c, 0, 60, 0
2, 71553, Note_on_c, 0, 61, 63
2, 71564, Note_on_c, 0, 65, 71
2, 71599, Note_on_c, 0, 65, 0
2, 71603, Note_on_c, 0, 61, 0
2, 71649, Note_on_c, 0, 58, 48
2, 71718, Note_on_c, 0, 58, 0
2, 71767, Note_on_c, 0, 55, 49
2, 71771, Note_on_c, 0, 70, 72
2, 71786, Note_on_c, 0, 73, 0
2, 71858, Note_on_c, 0, 55, 0
2, 71870, Note_on_c, 0, 72, 72
2, 71888, Note_on_c, 0, 56, 42
2, 71910, Note_on_c, 0, 70, 0
2, 71964, Note_on_c, 0, 56, 0
2, 71969, Note_on_c, 0, 58, 62
2, 71979, Note_on_c, 0, 73, 78
2, 71982, Note_on_c, 0, 72, 0
2, 72018, Note_on_c, 0, 73, 0
2, 72038, Note_on_c, 0, 58, 0
2, 72068, Note_on_c, 0, 70, 79
2, 72076, Note_on_c, 0, 55, 61
2, 72148, Note_on_c, 0, 70, 0
2, 72150, Note_on_c, 0, 55, 0
2, 72180, Note_on_c, 0, 51, 57
2, 72185, Note_on_c, 0, 82, 90
2, 72263, Note_on_c, 0, 51, 0
2, 72285, Note_on_c, 0, 53, 61
2, 72285, Note_on_c, 0, 73, 79
2, 72337, Note_on_c, 0, 53, 0
2, 72376, Note_on_c, 0, 55, 50
2, 72394, Note_on_c, 0, 75, 74
2, 72399, Note_on_c, 0, 73, 0
2, 72444, Note_on_c, 0, 55, 0
2, 72451, Note_on_c, 0, 75, 0
2, 72462, Note_on_c, 0, 51, 56
2, 72477, Note_on_c, 0, 70, 76
2, 72516, Note_on_c, 0, 70, 0
2, 72524, Note_on_c, 0, 82, 0
2, 72533, Note_on_c, 0, 51, 0
2, 72573, Note_on_c, 0, 44, 68
2, 72585, Note_on_c, 0, 72, 85
2, 72593, Control_c, 0, 64, 61
2, 72608, Control_c, 0, 64, 71
2, 72614, Note_on_c, 0, 44, 0
2, 72622, Control_c, 0, 64, 82
2, 72638, Control_c, 0, 64, 92
2, 72653, Control_c, 0, 64, 98
2, 72669, Control_c, 0, 64, 101
2, 72683, Control_c, 0, 64, 104
2, 72690, Note_on_c, 0, 80, 71
2, 72698, Control_c, 0, 64, 106
2, 72714, Control_c, 0, 64, 106
2, 72724, Note_on_c, 0, 72, 0
2, 72729, Control_c, 0, 64, 107
2, 72744, Control_c, 0, 64, 106
2, 72759, Control_c, 0, 64, 105
2, 72769, Note_on_c, 0, 80, 0
2, 72772, Note_on_c, 0, 56, 71
2, 72774, Control_c, 0, 64, 98
2, 72785, Note_on_c, 0, 79, 76
2, 72790, Control_c, 0, 64, 87
2, 72812, Control_c, 0, 64, 73
2, 72827, Control_c, 0, 64, 50
2, 72843, Control_c, 0, 64, 0
2, 72882, Note_on_c, 0, 79, 0
2, 72883, Note_on_c, 0, 56, 0
2, 72883, Note_on_c, 0, 58, 72
2, 72889, Note_on_c, 0, 82, 77
2, 72964, Note_on_c, 0, 58, 0
2, 72974, Note_on_c, 0, 60, 77
2, 72998, Note_on_c, 0, 80, 74
2, 73026, Note_on_c, 0, 60, 0
2, 73036, Note_on_c, 0, 82, 0
2, 73082, Note_on_c, 0, 80, 0
2, 73086, Note_on_c, 0, 75, 71
2, 73187, Note_on_c, 0, 77, 72
2, 73189, Note_on_c, 0, 68, 80
2, 73189, Note_on_c, 0, 75, 0
2, 73195, Note_on_c, 0, 56, 61
2, 73225, Note_on_c, 0, 56, 0
2, 73288, Note_on_c, 0, 77, 0
2, 73298, Note_on_c, 0, 78, 73
2, 73391, Note_on_c, 0, 61, 78
2, 73396, Note_on_c, 0, 78, 0
2, 73397, Note_on_c, 0, 68, 0
2, 73404, Note_on_c, 0, 77, 85
2, 73497, Note_on_c, 0, 67, 68
2, 73505, Note_on_c, 0, 75, 83
2, 73511, Note_on_c, 0, 77, 0
2, 73600, Note_on_c, 0, 75, 0
2, 73601, Note_on_c, 0, 61, 0
2, 73605, Note_on_c, 0, 67, 0
2, 73610, Note_on_c, 0, 73, 81
2, 73617, Note_on_c, 0, 65, 65
2, 73710, Note_on_c, 0, 65, 0
2, 73711, Note_on_c, 0, 73, 0
2, 73718, Note_on_c, 0, 75, 77
2, 73722, Note_on_c, 0, 67, 66
2, 73809, Note_on_c, 0, 67, 0
2, 73809, Note_on_c, 0, 84, 85
2, 73813, Note_on_c, 0, 75, 0
2, 73821, Note_on_c, 0, 68, 75
2, 73843, Note_on_c, 0, 84, 0
2, 73861, Note_on_c, 0, 60, 49
2, 73875, Note_on_c, 0, 68, 0
2, 73931, Note_on_c, 0, 66, 59
2, 74002, Note_on_c, 0, 66, 0
2, 74017, Note_on_c, 0, 60, 0
2, 74034, Note_on_c, 0, 80, 85
2, 74040, Note_on_c, 0, 65, 65
2, 74067, Note_on_c, 0, 80, 0
2, 74122, Note_on_c, 0, 65, 0
2, 74126, Note_on_c, 0, 63, 74
2, 74229, Note_on_c, 0, 63, 0
2, 74248, Note_on_c, 0, 58, 75
2, 74251, Note_on_c, 0, 65, 79
2, 74252, Note_on_c, 0, 75, 92
2, 74286, Note_on_c, 0, 58, 0
2, 74473, Note_on_c, 0, 56, 62
2, 74476, Note_on_c, 0, 73, 77
2, 74509, Note_on_c, 0, 56, 0
2, 74509, Note_on_c, 0, 75, 0
2, 74552, Note_on_c, 0, 73, 0
2, 74574, Note_on_c, 0, 72, 70
2, 74629, Note_on_c, 0, 65, 0
2, 74651, Note_on_c, 0, 72, 0
2, 74683, Note_on_c, 0, 55, 71
2, 74683, Note_on_c, 0, 73, 82
2, 74737, Note_on_c, 0, 73, 0
2, 74776, Note_on_c, 0, 63, 74
2, 74889, Note_on_c, 0, 55, 0
2, 74894, Note_on_c, 0, 61, 67
2, 74895, Note_on_c, 0, 82, 85
2, 74896, Note_on_c, 0, 63, 0
2, 74944, Note_on_c, 0, 82, 0
2, 74954, Note_on_c, 0, 61, 0
2, 74981, Note_on_c, 0, 65, 61
2, 75060, Note_on_c, 0, 65, 0
2, 75095, Note_on_c, 0, 63, 61
2, 75097, Note_on_c, 0, 72, 77
2, 75101, Note_on_c, 0, 56, 54
2, 75152, Note_on_c, 0, 72, 0
2, 75175, Note_on_c, 0, 56, 0
2, 75190, Note_on_c, 0, 61, 62
2, 75197, Note_on_c, 0, 63, 0
2, 75292, Note_on_c, 0, 60, 56
2, 75293, Note_on_c, 0, 61, 0
2, 75308, Note_on_c, 0, 80, 84
2, 75367, Note_on_c, 0, 80, 0
2, 75369, Note_on_c, 0, 60, 0
2, 75403, Note_on_c, 0, 63, 65
2, 75455, Note_on_c, 0, 63, 0
2, 75512, Note_on_c, 0, 61, 65
2, 75516, Note_on_c, 0, 70, 84
2, 75534, Note_on_c, 0, 51, 61
2, 75558, Note_on_c, 0, 70, 0
2, 75565, Note_on_c, 0, 61, 0
2, 75626, Note_on_c, 0, 60, 54
2, 75714, Note_on_c, 0, 60, 0
2, 75718, Note_on_c, 0, 61, 62
2, 75727, Note_on_c, 0, 79, 72
2, 75776, Note_on_c, 0, 51, 0
2, 75786, Note_on_c, 0, 79, 0
2, 75813, Note_on_c, 0, 58, 69
2, 75822, Note_on_c, 0, 61, 0
2, 75852, Note_on_c, 0, 58, 0
2, 75938, Note_on_c, 0, 68, 75
2, 75941, Note_on_c, 0, 60, 70
2, 75947, Note_on_c, 0, 56, 55
2, 75982, Note_on_c, 0, 60, 0
2, 76034, Note_on_c, 0, 68, 0
2, 76034, Note_on_c, 0, 70, 69
2, 76131, Note_on_c, 0, 70, 0
2, 76134, Note_on_c, 0, 56, 0
2, 76134, Note_on_c, 0, 56, 2
2, 76141, Note_on_c, 0, 63, 69
2, 76146, Note_on_c, 0, 72, 72
2, 76186, Note_on_c, 0, 63, 0
2, 76250, Note_on_c, 0, 73, 74
2, 76252, Note_on_c, 0, 72, 0
2, 76351, Note_on_c, 0, 72, 73
2, 76353, Note_on_c, 0, 73, 0
2, 76359, Note_on_c, 0, 68, 74
2, 76423, Note_on_c, 0, 56, 0
2, 76449, Note_on_c, 0, 70, 72
2, 76449, Note_on_c, 0, 72, 0
2, 76534, Note_on_c, 0, 68, 0
2, 76546, Note_on_c, 0, 68, 57
2, 76549, Note_on_c, 0, 63, 60
2, 76556, Note_on_c, 0, 70, 0
2, 76616, Note_on_c, 0, 60, 58
2, 76626, Note_on_c, 0, 63, 0
2, 76663, Note_on_c, 0, 72, 67
2, 76684, Note_on_c, 0, 68, 0
2, 76743, Note_on_c, 0, 56, 71
2, 76758, Note_on_c, 0, 72, 0
2, 76759, Note_on_c, 0, 60, 0
2, 76764, Note_on_c, 0, 77, 72
2, 76840, Note_on_c, 0, 56, 0
2, 76879, Note_on_c, 0, 75, 66
2, 76899, Note_on_c, 0, 77, 0
2, 76959, Note_on_c, 0, 59, 60
2, 76961, Note_on_c, 0, 75, 0
2, 76972, Note_on_c, 0, 74, 69
2, 77048, Note_on_c, 0, 59, 0
2, 77053, Note_on_c, 0, 56, 59
2, 77063, Note_on_c, 0, 77, 72
2, 77069, Note_on_c, 0, 74, 0
2, 77145, Note_on_c, 0, 77, 0
2, 77159, Note_on_c, 0, 80, 73
2, 77160, Note_on_c, 0, 53, 66
2, 77161, Note_on_c, 0, 56, 0
2, 77210, Note_on_c, 0, 53, 0
2, 77256, Note_on_c, 0, 78, 76
2, 77267, Note_on_c, 0, 80, 0
2, 77323, Note_on_c, 0, 78, 0
2, 77342, Note_on_c, 0, 77, 69
2, 77347, Note_on_c, 0, 56, 60
2, 77400, Note_on_c, 0, 56, 0
2, 77430, Note_on_c, 0, 80, 45
2, 77431, Note_on_c, 0, 80, 0
2, 77433, Note_on_c, 0, 77, 0
2, 77445, Note_on_c, 0, 53, 43
2, 77457, Note_on_c, 0, 79, 34
2, 77491, Note_on_c, 0, 79, 0
2, 77521, Note_on_c, 0, 80, 85
2, 77532, Note_on_c, 0, 53, 0
2, 77556, Control_c, 0, 64, 53
2, 77556, Note_on_c, 0, 82, 69
2, 77559, Note_on_c, 0, 50, 52
2, 77571, Control_c, 0, 64, 66
2, 77586, Control_c, 0, 64, 71
2, 77590, Note_on_c, 0, 80, 0
2, 77601, Control_c, 0, 64, 75
2, 77608, Note_on_c, 0, 83, 79
2, 77616, Control_c, 0, 64, 76
2, 77630, Note_on_c, 0, 82, 0
2, 77631, Control_c, 0, 64, 75
2, 77647, Control_c, 0, 64, 71
2, 77662, Control_c, 0, 64, 56
2, 77678, Control_c, 0, 64, 0
2, 77784, Control_c, 0, 64, 43
2, 77786, Note_on_c, 0, 53, 60
2, 77788, Note_on_c, 0, 82, 74
2, 77799, Control_c, 0, 64, 65
2, 77803, Note_on_c, 0, 83, 0
2, 77814, Control_c, 0, 64, 71
2, 77829, Control_c, 0, 64, 77
2, 77845, Control_c, 0, 64, 81
2, 77860, Control_c, 0, 64, 82
2, 77874, Control_c, 0, 64, 83
2, 77881, Note_on_c, 0, 82, 0
2, 77887, Note_on_c, 0, 56, 63
2, 77890, Control_c, 0, 64, 83
2, 77912, Note_on_c, 0, 53, 0
2, 77912, Note_on_c, 0, 79, 19
2, 77936, Control_c, 0, 64, 83
2, 77950, Control_c, 0, 64, 78
2, 77954, Note_on_c, 0, 79, 0
2, 77956, Note_on_c, 0, 50, 0
2, 77956, Note_on_c, 0, 56, 0
2, 77966, Control_c, 0, 64, 69
2, 77969, Note_on_c, 0, 59, 66
2, 77981, Control_c, 0, 64, 13
2, 77987, Note_on_c, 0, 78, 77
2, 77997, Control_c, 0, 64, 0
2, 78051, Note_on_c, 0, 78, 0
2, 78085, Note_on_c, 0, 77, 71
2, 78186, Note_on_c, 0, 77, 0
2, 78190, Note_on_c, 0, 75, 67
2, 78204, Note_on_c, 0, 53, 47
2, 78239, Note_on_c, 0, 53, 0
2, 78277, Note_on_c, 0, 75, 0
2, 78284, Note_on_c, 0, 74, 67
2, 78396, Note_on_c, 0, 75, 69
2, 78399, Note_on_c, 0, 58, 62
2, 78399, Note_on_c, 0, 74, 0
2, 78405, Note_on_c, 0, 54, 58
2, 78405, Note_on_c, 0, 59, 0
2, 78496, Note_on_c, 0, 75, 0
2, 78501, Note_on_c, 0, 78, 68
2, 78574, Note_on_c, 0, 58, 0
2, 78589, Note_on_c, 0, 54, 0
2, 78607, Note_on_c, 0, 77, 72
2, 78608, Note_on_c, 0, 56, 60
2, 78619, Note_on_c, 0, 59, 51
2, 78625, Note_on_c, 0, 78, 0
2, 78648, Note_on_c, 0, 59, 0
2, 78667, Note_on_c, 0, 56, 0
2, 78701, Note_on_c, 0, 75, 70
2, 78713, Note_on_c, 0, 77, 0
2, 78812, Note_on_c, 0, 58, 72
2, 78812, Note_on_c, 0, 74, 71
2, 78824, Note_on_c, 0, 75, 0
2, 78846, Note_on_c, 0, 58, 0
2, 78879, Note_on_c, 0, 74, 0
2, 78912, Note_on_c, 0, 77, 66
2, 79026, Note_on_c, 0, 77, 0
2, 79031, Note_on_c, 0, 46, 67
2, 79037, Note_on_c, 0, 70, 68
2, 79049, Note_on_c, 0, 50, 51
2, 79072, Note_on_c, 0, 46, 0
2, 79074, Note_on_c, 0, 50, 0
2, 79102, Note_on_c, 0, 70, 0
2, 79133, Note_on_c, 0, 68, 60
2, 79211, Note_on_c, 0, 68, 0
2, 79252, Note_on_c, 0, 39, 54
2, 79255, Note_on_c, 0, 51, 52
2, 79255, Note_on_c, 0, 66, 61
2, 79344, Note_on_c, 0, 66, 0
2, 79359, Note_on_c, 0, 65, 61
2, 79466, Note_on_c, 0, 63, 65
2, 79466, Note_on_c, 0, 65, 0
2, 79547, Note_on_c, 0, 39, 0
2, 79547, Note_on_c, 0, 63, 0
2, 79570, Note_on_c, 0, 62, 58
2, 79597, Note_on_c, 0, 51, 0
2, 79628, Note_on_c, 0, 62, 0
2, 79676, Note_on_c, 0, 63, 64
2, 79744, Note_on_c, 0, 63, 0
2, 79784, Note_on_c, 0, 65, 53
2, 79842, Note_on_c, 0, 65, 0
2, 79863, Note_on_c, 0, 51, 59
2, 79877, Note_on_c, 0, 66, 52
2, 79899, Note_on_c, 0, 51, 0
2, 79930, Note_on_c, 0, 66, 0
2, 79983, Note_on_c, 0, 68, 41
2, 80056, Control_c, 0, 67, 8
2, 80059, Note_on_c, 0, 68, 0
2, 80071, Control_c, 0, 67, 23
2, 80087, Control_c, 0, 67, 60
2, 80089, Note_on_c, 0, 54, 53
2, 80093, Note_on_c, 0, 70, 51
2, 80102, Control_c, 0, 67, 106
2, 80118, Control_c, 0, 67, 127
2, 80168, Note_on_c, 0, 54, 0
2, 80184, Note_on_c, 0, 70, 0
2, 80188, Note_on_c, 0, 68, 48
2, 80193, Note_on_c, 0, 53, 55
2, 80261, Note_on_c, 0, 68, 0
2, 80270, Note_on_c, 0, 53, 0
2, 80286, Note_on_c, 0, 66, 53
2, 80303, Note_on_c, 0, 51, 53
2, 80365, Note_on_c, 0, 66, 0
2, 80385, Note_on_c, 0, 51, 0
2, 80391, Note_on_c, 0, 53, 60
2, 80392, Note_on_c, 0, 68, 50
2, 80452, Note_on_c, 0, 68, 0
2, 80465, Note_on_c, 0, 53, 0
2, 80496, Note_on_c, 0, 61, 75
2, 80508, Note_on_c, 0, 70, 56
2, 80524, Note_on_c, 0, 61, 0
2, 80607, Note_on_c, 0, 70, 0
2, 80612, Note_on_c, 0, 68, 46
2, 80710, Note_on_c, 0, 68, 0
2, 80713, Note_on_c, 0, 58, 70
2, 80718, Note_on_c, 0, 66, 54
2, 80743, Note_on_c, 0, 58, 0
2, 80769, Note_on_c, 0, 66, 0
2, 80817, Note_on_c, 0, 65, 54
2, 80922, Note_on_c, 0, 53, 65
2, 80923, Note_on_c, 0, 65, 0
2, 80934, Note_on_c, 0, 66, 59
2, 81141, Note_on_c, 0, 53, 0
2, 81157, Note_on_c, 0, 51, 61
2, 81241, Note_on_c, 0, 51, 0
2, 81264, Note_on_c, 0, 49, 58
2, 81350, Note_on_c, 0, 49, 0
2, 81357, Note_on_c, 0, 51, 66
2, 81380, Note_on_c, 0, 51, 0
2, 81457, Note_on_c, 0, 65, 49
2, 81458, Note_on_c, 0, 66, 0
2, 81541, Note_on_c, 0, 65, 0
2, 81571, Note_on_c, 0, 63, 57
2, 81576, Note_on_c, 0, 60, 61
2, 81609, Note_on_c, 0, 60, 0
2, 81649, Note_on_c, 0, 63, 0
2, 81678, Note_on_c, 0, 66, 53
2, 81784, Note_on_c, 0, 49, 65
2, 81789, Note_on_c, 0, 66, 0
2, 81802, Note_on_c, 0, 65, 53
2, 81820, Note_on_c, 0, 49, 0
2, 81861, Note_on_c, 0, 65, 0
2, 81891, Note_on_c, 0, 63, 53
2, 81979, Note_on_c, 0, 63, 0
2, 81991, Note_on_c, 0, 58, 64
2, 82005, Note_on_c, 0, 61, 58
2, 82028, Note_on_c, 0, 58, 0
2, 82086, Note_on_c, 0, 61, 0
2, 82104, Note_on_c, 0, 65, 49
2, 82218, Note_on_c, 0, 48, 70
2, 82224, Note_on_c, 0, 65, 0
2, 82230, Note_on_c, 0, 63, 49
2, 82254, Note_on_c, 0, 48, 0
2, 82310, Note_on_c, 0, 63, 0
2, 82319, Note_on_c, 0, 61, 55
2, 82431, Note_on_c, 0, 57, 60
2, 82437, Control_c, 0, 67, 118
2, 82438, Note_on_c, 0, 61, 0
2, 82447, Note_on_c, 0, 63, 58
2, 82452, Control_c, 0, 67, 70
2, 82466, Control_c, 0, 67, 0
2, 82468, Note_on_c, 0, 57, 0
2, 82490, Note_on_c, 0, 63, 0
2, 82519, Note_on_c, 0, 60, 56
2, 82586, Note_on_c, 0, 60, 0
2, 82642, Note_on_c, 0, 46, 68
2, 82642, Note_on_c, 0, 61, 68
2, 82691, Note_on_c, 0, 46, 0
2, 82705, Note_on_c, 0, 61, 0
2, 82744, Note_on_c, 0, 65, 67
2, 82844, Note_on_c, 0, 65, 0
2, 82852, Note_on_c, 0, 66, 71
2, 82858, Note_on_c, 0, 58, 64
2, 82942, Note_on_c, 0, 58, 0
2, 82948, Note_on_c, 0, 66, 0
2, 82952, Note_on_c, 0, 65, 76
2, 82964, Note_on_c, 0, 57, 53
2, 83043, Note_on_c, 0, 65, 0
2, 83056, Note_on_c, 0, 73, 89
2, 83058, Note_on_c, 0, 57, 0
2, 83067, Note_on_c, 0, 58, 65
2, 83157, Note_on_c, 0, 58, 0
2, 83175, Note_on_c, 0, 60, 54
2, 83254, Note_on_c, 0, 60, 0
2, 83268, Note_on_c, 0, 61, 67
2, 83273, Note_on_c, 0, 65, 74
2, 83312, Note_on_c, 0, 61, 0
2, 83312, Note_on_c, 0, 65, 0
2, 83367, Note_on_c, 0, 58, 49
2, 83431, Note_on_c, 0, 58, 0
2, 83474, Note_on_c, 0, 55, 57
2, 83493, Note_on_c, 0, 70, 76
2, 83499, Note_on_c, 0, 73, 0
2, 83587, Note_on_c, 0, 55, 0
2, 83595, Note_on_c, 0, 72, 72
2, 83606, Note_on_c, 0, 56, 44
2, 83631, Note_on_c, 0, 70, 0
2, 83690, Note_on_c, 0, 56, 0
2, 83694, Note_on_c, 0, 58, 63
2, 83705, Note_on_c, 0, 73, 77
2, 83709, Note_on_c, 0, 72, 0
2, 83759, Note_on_c, 0, 58, 0
2, 83759, Note_on_c, 0, 73, 0
2, 83797, Note_on_c, 0, 70, 78
2, 83801, Note_on_c, 0, 55, 56
2, 83856, Note_on_c, 0, 55, 0
2, 83866, Note_on_c, 0, 70, 0
2, 83903, Note_on_c, 0, 51, 56
2, 83904, Note_on_c, 0, 82, 89
2, 83985, Note_on_c, 0, 51, 0
2, 84009, Note_on_c, 0, 53, 58
2, 84010, Note_on_c, 0, 73, 73
2, 84069, Note_on_c, 0, 53, 0
2, 84103, Note_on_c, 0, 55, 51
2, 84110, Note_on_c, 0, 75, 75
2, 84115, Note_on_c, 0, 73, 0
2, 84136, Note_on_c, 0, 82, 0
2, 84182, Note_on_c, 0, 55, 0
2, 84184, Note_on_c, 0, 51, 52
2, 84195, Note_on_c, 0, 70, 73
2, 84200, Note_on_c, 0, 75, 0
2, 84264, Note_on_c, 0, 70, 0
2, 84280, Note_on_c, 0, 51, 0
2, 84307, Note_on_c, 0, 44, 62
2, 84312, Note_on_c, 0, 72, 76
2, 84345, Control_c, 0, 64, 10
2, 84358, Note_on_c, 0, 44, 0
2, 84361, Control_c, 0, 64, 65
2, 84376, Control_c, 0, 64, 74
2, 84381, Note_on_c, 0, 72, 0
2, 84391, Control_c, 0, 64, 84
2, 84406, Control_c, 0, 64, 90
2, 84419, Note_on_c, 0, 63, 69
2, 84420, Control_c, 0, 64, 93
2, 84435, Control_c, 0, 64, 94
2, 84496, Control_c, 0, 64, 91
2, 84510, Note_on_c, 0, 63, 0
2, 84511, Control_c, 0, 64, 84
2, 84517, Note_on_c, 0, 65, 72
2, 84520, Note_on_c, 0, 56, 59
2, 84527, Control_c, 0, 64, 70
2, 84541, Control_c, 0, 64, 0
2, 84598, Note_on_c, 0, 56, 0
2, 84609, Note_on_c, 0, 65, 0
2, 84621, Note_on_c, 0, 63, 68
2, 84627, Note_on_c, 0, 55, 41
2, 84697, Note_on_c, 0, 63, 0
2, 84721, Note_on_c, 0, 55, 0
2, 84726, Note_on_c, 0, 56, 61
2, 84733, Note_on_c, 0, 72, 75
2, 84817, Note_on_c, 0, 56, 0
2, 84831, Note_on_c, 0, 58, 57
2, 84919, Note_on_c, 0, 58, 0
2, 84948, Note_on_c, 0, 63, 72
2, 84954, Note_on_c, 0, 60, 50
2, 84981, Note_on_c, 0, 63, 0
2, 85002, Note_on_c, 0, 60, 0
2, 85046, Note_on_c, 0, 56, 45
2, 85135, Note_on_c, 0, 56, 0
2, 85143, Note_on_c, 0, 72, 0
2, 85164, Note_on_c, 0, 53, 51
2, 85168, Note_on_c, 0, 68, 71
2, 85245, Note_on_c, 0, 53, 0
2, 85264, Note_on_c, 0, 70, 68
2, 85279, Note_on_c, 0, 68, 0
2, 85283, Note_on_c, 0, 55, 36
2, 85330, Note_on_c, 0, 55, 0
2, 85352, Note_on_c, 0, 56, 60
2, 85380, Note_on_c, 0, 72, 65
2, 85387, Note_on_c, 0, 70, 0
2, 85413, Note_on_c, 0, 72, 0
2, 85419, Note_on_c, 0, 56, 0
2, 85454, Note_on_c, 0, 68, 76
2, 85471, Note_on_c, 0, 53, 50
2, 85530, Note_on_c, 0, 53, 0
2, 85537, Note_on_c, 0, 68, 0
2, 85569, Note_on_c, 0, 49, 56
2, 85571, Note_on_c, 0, 80, 83
2, 85670, Note_on_c, 0, 49, 0
2, 85675, Note_on_c, 0, 72, 63
2, 85680, Note_on_c, 0, 51, 55
2, 85734, Note_on_c, 0, 51, 0
2, 85770, Note_on_c, 0, 53, 46
2, 85778, Note_on_c, 0, 73, 71
2, 85784, Note_on_c, 0, 72, 0
2, 85820, Note_on_c, 0, 80, 0
2, 85844, Note_on_c, 0, 49, 53
2, 85844, Note_on_c, 0, 53, 0
2, 85881, Note_on_c, 0, 68, 60
2, 85898, Note_on_c, 0, 73, 0
2, 85950, Note_on_c, 0, 68, 0
2, 85954, Note_on_c, 0, 49, 0
2, 85978, Note_on_c, 0, 43, 53
2, 85987, Note_on_c, 0, 70, 64
2, 86016, Note_on_c, 0, 43, 0
2, 86017, Control_c, 0, 64, 60
2, 86032, Control_c, 0, 64, 71
2, 86043, Note_on_c, 0, 70, 0
2, 86048, Control_c, 0, 64, 81
2, 86063, Control_c, 0, 64, 90
2, 86079, Control_c, 0, 64, 93
2, 86088, Note_on_c, 0, 61, 64
2, 86093, Control_c, 0, 64, 94
2, 86139, Control_c, 0, 64, 92
2, 86153, Control_c, 0, 64, 84
2, 86160, Note_on_c, 0, 61, 0
2, 86169, Control_c, 0, 64, 71
2, 86184, Control_c, 0, 64, 0
2, 86187, Note_on_c, 0, 55, 41
2, 86192, Note_on_c, 0, 63, 55
2, 86254, Note_on_c, 0, 55, 0
2, 86267, Note_on_c, 0, 63, 0
2, 86287, Note_on_c, 0, 61, 58
2, 86290, Note_on_c, 0, 53, 42
2, 86342, Note_on_c, 0, 53, 0
2, 86370, Note_on_c, 0, 61, 0
2, 86383, Note_on_c, 0, 55, 48
2, 86406, Note_on_c, 0, 70, 67
2, 86470, Note_on_c, 0, 55, 0
2, 86488, Note_on_c, 0, 56, 42
2, 86537, Note_on_c, 0, 56, 0
2, 86594, Note_on_c, 0, 58, 51
2, 86639, Note_on_c, 0, 61, 60
2, 86667, Note_on_c, 0, 58, 0
2, 86673, Note_on_c, 0, 61, 0
2, 86714, Note_on_c, 0, 55, 41
2, 86773, Note_on_c, 0, 55, 0
2, 86818, Note_on_c, 0, 70, 0
2, 86842, Note_on_c, 0, 52, 48
2, 86849, Note_on_c, 0, 67, 64
2, 86931, Note_on_c, 0, 67, 0
2, 86938, Note_on_c, 0, 52, 0
2, 86940, Note_on_c, 0, 68, 66
2, 86950, Note_on_c, 0, 53, 50
2, 87003, Note_on_c, 0, 53, 0
2, 87038, Note_on_c, 0, 55, 52
2, 87040, Note_on_c, 0, 70, 73
2, 87046, Note_on_c, 0, 68, 0
2, 87096, Note_on_c, 0, 55, 0
2, 87105, Note_on_c, 0, 70, 0
2, 87139, Note_on_c, 0, 52, 53
2, 87139, Note_on_c, 0, 67, 68
2, 87214, Note_on_c, 0, 67, 0
2, 87219, Note_on_c, 0, 52, 0
2, 87253, Note_on_c, 0, 48, 58
2, 87253, Note_on_c, 0, 79, 80
2, 87332, Note_on_c, 0, 48, 0
2, 87351, Note_on_c, 0, 70, 67
2, 87360, Note_on_c, 0, 50, 43
2, 87445, Note_on_c, 0, 52, 59
2, 87461, Note_on_c, 0, 72, 68
2, 87462, Note_on_c, 0, 70, 0
2, 87482, Note_on_c, 0, 50, 0
2, 87493, Note_on_c, 0, 52, 0
2, 87513, Note_on_c, 0, 72, 0
2, 87522, Note_on_c, 0, 79, 0
2, 87543, Note_on_c, 0, 67, 76
2, 87555, Note_on_c, 0, 48, 60
2, 87574, Note_on_c, 0, 67, 0
2, 87593, Note_on_c, 0, 79, 34
2, 87634, Note_on_c, 0, 48, 0
2, 87657, Note_on_c, 0, 41, 59
2, 87665, Note_on_c, 0, 68, 79
2, 87690, Note_on_c, 0, 79, 0
2, 87752, Note_on_c, 0, 41, 0
2, 87764, Note_on_c, 0, 43, 57
2, 87767, Note_on_c, 0, 76, 71
2, 87847, Note_on_c, 0, 43, 0
2, 87854, Note_on_c, 0, 44, 64
2, 87858, Note_on_c, 0, 76, 0
2, 87866, Note_on_c, 0, 77, 73
2, 87947, Note_on_c, 0, 44, 0
2, 87950, Note_on_c, 0, 46, 68
2, 87961, Note_on_c, 0, 73, 74
2, 87970, Note_on_c, 0, 77, 0
2, 87981, Note_on_c, 0, 68, 0
2, 88028, Note_on_c, 0, 46, 0
2, 88053, Note_on_c, 0, 48, 60
2, 88056, Note_on_c, 0, 73, 0
2, 88069, Note_on_c, 0, 70, 79
2, 88142, Note_on_c, 0, 50, 68
2, 88144, Note_on_c, 0, 48, 0
2, 88244, Note_on_c, 0, 50, 0
2, 88258, Note_on_c, 0, 52, 71
2, 88274, Note_on_c, 0, 60, 78
2, 88326, Note_on_c, 0, 60, 0
2, 88353, Note_on_c, 0, 52, 0
2, 88361, Note_on_c, 0, 48, 56
2, 88444, Note_on_c, 0, 70, 0
2, 88464, Note_on_c, 0, 48, 0
2, 88475, Note_on_c, 0, 53, 62
2, 88487, Note_on_c, 0, 61, 79
2, 88565, Note_on_c, 0, 51, 71
2, 88567, Note_on_c, 0, 60, 75
2, 88574, Note_on_c, 0, 53, 0
2, 88582, Note_on_c, 0, 61, 0
2, 88668, Note_on_c, 0, 49, 74
2, 88668, Note_on_c, 0, 51, 0
2, 88670, Note_on_c, 0, 58, 79
2, 88677, Note_on_c, 0, 60, 0
2, 88755, Note_on_c, 0, 60, 76
2, 88763, Note_on_c, 0, 49, 0
2, 88768, Note_on_c, 0, 58, 0
2, 88771, Note_on_c, 0, 51, 75
2, 88862, Note_on_c, 0, 60, 0
2, 88867, Note_on_c, 0, 51, 0
2, 88880, Note_on_c, 0, 68, 90
2, 88886, Note_on_c, 0, 53, 67
2, 88978, Note_on_c, 0, 53, 0
2, 88999, Note_on_c, 0, 51, 59
2, 89094, Note_on_c, 0, 51, 0
2, 89095, Note_on_c, 0, 49, 65
2, 89107, Note_on_c, 0, 65, 75
2, 89164, Note_on_c, 0, 65, 0
2, 89197, Note_on_c, 0, 49, 0
2, 89204, Note_on_c, 0, 48, 62
2, 89304, Note_on_c, 0, 48, 0
2, 89321, Note_on_c, 0, 49, 74
2, 89332, Note_on_c, 0, 60, 83
2, 89343, Note_on_c, 0, 68, 0
2, 89564, Note_on_c, 0, 60, 0
2, 89567, Note_on_c, 0, 58, 77
2, 89634, Note_on_c, 0, 58, 0
2, 89644, Note_on_c, 0, 56, 76
2, 89708, Note_on_c, 0, 56, 0
2, 89757, Note_on_c, 0, 58, 85
2, 89812, Note_on_c, 0, 58, 0
2, 89832, Note_on_c, 0, 49, 0
2, 89842, Note_on_c, 0, 48, 53
2, 89935, Note_on_c, 0, 48, 0
2, 89948, Note_on_c, 0, 46, 54
2, 89971, Note_on_c, 0, 67, 79
2, 90026, Note_on_c, 0, 67, 0
2, 90049, Note_on_c, 0, 46, 0
2, 90075, Note_on_c, 0, 49, 51
2, 90170, Note_on_c, 0, 49, 0
2, 90185, Note_on_c, 0, 56, 84
2, 90187, Note_on_c, 0, 48, 58
2, 90229, Note_on_c, 0, 56, 0
2, 90268, Note_on_c, 0, 48, 0
2, 90277, Note_on_c, 0, 46, 55
2, 90382, Note_on_c, 0, 46, 0
2, 90383, Note_on_c, 0, 44, 60
2, 90392, Note_on_c, 0, 65, 79
2, 90442, Note_on_c, 0, 65, 0
2, 90476, Note_on_c, 0, 44, 0
2, 90508, Note_on_c, 0, 48, 51
2, 90580, Note_on_c, 0, 48, 0
2, 90620, Note_on_c, 0, 46, 62
2, 90623, Note_on_c, 0, 55, 79
2, 90663, Note_on_c, 0, 55, 0
2, 90712, Note_on_c, 0, 46, 0
2, 90727, Note_on_c, 0, 44, 66
2, 90827, Note_on_c, 0, 44, 0
2, 90831, Note_on_c, 0, 46, 70
2, 90840, Note_on_c, 0, 67, 73
2, 90845, Note_on_c, 0, 64, 69
2, 90881, Note_on_c, 0, 64, 0
2, 90893, Note_on_c, 0, 67, 0
2, 90920, Note_on_c, 0, 46, 0
2, 90934, Note_on_c, 0, 43, 62
2, 91045, Note_on_c, 0, 43, 0
2, 91048, Note_on_c, 0, 44, 68
2, 91053, Note_on_c, 0, 53, 77
2, 91068, Note_on_c, 0, 72, 68
2, 91094, Note_on_c, 0, 44, 0
2, 91168, Note_on_c, 0, 72, 0
2, 91171, Note_on_c, 0, 70, 58
2, 91265, Note_on_c, 0, 70, 0
2, 91275, Note_on_c, 0, 68, 61
2, 91287, Note_on_c, 0, 49, 57
2, 91333, Note_on_c, 0, 49, 0
2, 91353, Note_on_c, 0, 68, 0
2, 91367, Note_on_c, 0, 72, 59
2, 91482, Note_on_c, 0, 72, 0
2, 91491, Note_on_c, 0, 70, 61
2, 91492, Note_on_c, 0, 53, 0
2, 91507, Note_on_c, 0, 43, 71
2, 91560, Note_on_c, 0, 43, 0
2, 91585, Note_on_c, 0, 70, 0
2, 91586, Note_on_c, 0, 68, 63
2, 91672, Note_on_c, 0, 68, 0
2, 91703, Note_on_c, 0, 67, 62
2, 91718, Note_on_c, 0, 48, 68
2, 91718, Note_on_c, 0, 52, 70
2, 91748, Note_on_c, 0, 52, 0
2, 91752, Note_on_c, 0, 48, 0
2, 91804, Note_on_c, 0, 67, 0
2, 91808, Note_on_c, 0, 70, 58
2, 91907, Note_on_c, 0, 70, 0
2, 91913, Note_on_c, 0, 68, 63
2, 91924, Note_on_c, 0, 53, 75
2, 91930, Note_on_c, 0, 41, 66
2, 91964, Note_on_c, 0, 53, 0
2, 91970, Note_on_c, 0, 41, 0
2, 91993, Note_on_c, 0, 68, 0
2, 92025, Note_on_c, 0, 65, 62
2, 92116, Note_on_c, 0, 65, 0
2, 92146, Note_on_c, 0, 52, 71
2, 92149, Note_on_c, 0, 46, 65
2, 92160, Note_on_c, 0, 73, 66
2, 92182, Note_on_c, 0, 52, 0
2, 92185, Note_on_c, 0, 46, 0
2, 92247, Note_on_c, 0, 70, 63
2, 92266, Note_on_c, 0, 73, 0
2, 92353, Note_on_c, 0, 70, 0
2, 92362, Note_on_c, 0, 72, 65
2, 92364, Note_on_c, 0, 53, 71
2, 92366, Note_on_c, 0, 44, 70
2, 92407, Note_on_c, 0, 44, 0
2, 92409, Note_on_c, 0, 53, 0
2, 92433, Note_on_c, 0, 72, 0
2, 92452, Note_on_c, 0, 68, 67
2, 92480, Note_on_c, 0, 68, 0
2, 92560, Note_on_c, 0, 58, 78
2, 92568, Note_on_c, 0, 78, 76
2, 92578, Note_on_c, 0, 49, 47
2, 92597, Note_on_c, 0, 58, 0
2, 92613, Note_on_c, 0, 49, 0
2, 92645, Note_on_c, 0, 78, 0
2, 92665, Note_on_c, 0, 76, 69
2, 92715, Note_on_c, 0, 76, 0
2, 92786, Note_on_c, 0, 56, 74
2, 92794, Note_on_c, 0, 76, 70
2, 92795, Note_on_c, 0, 48, 58
2, 92884, Note_on_c, 0, 76, 0
2, 92888, Note_on_c, 0, 77, 74
2, 92977, Note_on_c, 0, 77, 0
2, 92980, Note_on_c, 0, 56, 0
2, 92995, Note_on_c, 0, 55, 61
2, 93001, Note_on_c, 0, 83, 69
2, 93088, Note_on_c, 0, 55, 0
2, 93088, Note_on_c, 0, 83, 0
2, 93093, Note_on_c, 0, 53, 66
2, 93109, Note_on_c, 0, 84, 67
2, 93184, Note_on_c, 0, 53, 0
2, 93192, Note_on_c, 0, 84, 0
2, 93194, Note_on_c, 0, 77, 77
2, 93202, Note_on_c, 0, 55, 70
2, 93235, Note_on_c, 0, 77, 0
2, 93236, Note_on_c, 0, 76, 68
2, 93276, Note_on_c, 0, 77, 65
2, 93285, Note_on_c, 0, 76, 0
2, 93332, Note_on_c, 0, 76, 56
2, 93353, Note_on_c, 0, 77, 0
2, 93398, Control_c, 0, 64, 39
2, 93414, Control_c, 0, 64, 66
2, 93417, Note_on_c, 0, 58, 62
2, 93429, Control_c, 0, 64, 76
2, 93444, Control_c, 0, 64, 89
2, 93444, Note_on_c, 0, 55, 0
2, 93456, Note_on_c, 0, 48, 0
2, 93459, Control_c, 0, 64, 96
2, 93474, Control_c, 0, 64, 99
2, 93490, Control_c, 0, 64, 102
2, 93491, Note_on_c, 0, 58, 0
2, 93505, Control_c, 0, 64, 105
2, 93510, Note_on_c, 0, 77, 75
2, 93519, Control_c, 0, 64, 107
2, 93521, Note_on_c, 0, 76, 0
2, 93543, Control_c, 0, 64, 110
2, 93558, Note_on_c, 0, 77, 0
2, 93589, Control_c, 0, 64, 107
2, 93604, Control_c, 0, 64, 97
2, 93619, Control_c, 0, 64, 83
2, 93634, Control_c, 0, 64, 64
2, 93636, Note_on_c, 0, 77, 85
2, 93642, Note_on_c, 0, 56, 60
2, 93650, Control_c, 0, 64, 0
2, 93651, Note_on_c, 0, 53, 42
2, 93758, Note_on_c, 0, 56, 0
2, 93761, Note_on_c, 0, 58, 64
2, 93774, Note_on_c, 0, 53, 0
2, 93774, Note_on_c, 0, 53, 12
2, 93854, Note_on_c, 0, 58, 0
2, 93878, Note_on_c, 0, 60, 63
2, 93953, Note_on_c, 0, 60, 0
2, 93955, Note_on_c, 0, 53, 0
2, 93958, Note_on_c, 0, 56, 66
2, 93980, Note_on_c, 0, 77, 0
2, 94050, Note_on_c, 0, 56, 0
2, 94060, Note_on_c, 0, 53, 66
2, 94148, Note_on_c, 0, 53, 0
2, 94157, Note_on_c, 0, 54, 62
2, 94241, Note_on_c, 0, 54, 0
2, 94255, Note_on_c, 0, 77, 85
2, 94265, Note_on_c, 0, 56, 62
2, 94310, Note_on_c, 0, 77, 0
2, 94362, Note_on_c, 0, 56, 0
2, 94375, Note_on_c, 0, 53, 50
2, 94451, Note_on_c, 0, 53, 0
2, 94469, Note_on_c, 0, 71, 83
2, 94478, Note_on_c, 0, 50, 52
2, 94547, Note_on_c, 0, 50, 0
2, 94560, Note_on_c, 0, 51, 61
2, 94561, Note_on_c, 0, 70, 80
2, 94564, Note_on_c, 0, 71, 0
2, 94650, Note_on_c, 0, 51, 0
2, 94650, Note_on_c, 0, 70, 0
2, 94662, Note_on_c, 0, 68, 81
2, 94667, Note_on_c, 0, 53, 60
2, 94738, Note_on_c, 0, 53, 0
2, 94753, Note_on_c, 0, 50, 63
2, 94756, Note_on_c, 0, 70, 84
2, 94784, Note_on_c, 0, 68, 0
2, 94825, Note_on_c, 0, 70, 0
2, 94852, Note_on_c, 0, 50, 0
2, 94867, Note_on_c, 0, 46, 69
2, 94867, Note_on_c, 0, 77, 79
2, 94912, Note_on_c, 0, 77, 0
2, 94943, Note_on_c, 0, 46, 0
2, 94957, Note_on_c, 0, 50, 55
2, 95050, Note_on_c, 0, 50, 0
2, 95063, Note_on_c, 0, 53, 54
2, 95093, Note_on_c, 0, 74, 82
2, 95141, Note_on_c, 0, 74, 0
2, 95158, Note_on_c, 0, 53, 0
2, 95181, Note_on_c, 0, 58, 58
2, 95274, Note_on_c, 0, 58, 0
2, 95294, Note_on_c, 0, 68, 79
2, 95310, Note_on_c, 0, 51, 52
2, 95392, Note_on_c, 0, 51, 0
2, 95404, Note_on_c, 0, 54, 51
2, 95512, Note_on_c, 0, 54, 0
2, 95512, Note_on_c, 0, 66, 76
2, 95515, Note_on_c, 0, 58, 58
2, 95526, Note_on_c, 0, 68, 0
2, 95582, Note_on_c, 0, 58, 0
2, 95582, Note_on_c, 0, 66, 0
2, 95604, Note_on_c, 0, 65, 71
2, 95612, Note_on_c, 0, 62, 59
2, 95672, Note_on_c, 0, 62, 0
2, 95672, Note_on_c, 0, 65, 0
2, 95704, Note_on_c, 0, 66, 74
2, 95717, Note_on_c, 0, 63, 56
2, 95744, Note_on_c, 0, 66, 0
2, 95793, Note_on_c, 0, 63, 0
2, 95821, Note_on_c, 0, 65, 52
2, 95903, Note_on_c, 0, 65, 0
2, 95922, Note_on_c, 0, 75, 58
2, 95929, Note_on_c, 0, 66, 60
2, 95970, Note_on_c, 0, 75, 0
2, 95986, Note_on_c, 0, 66, 0
2, 96028, Note_on_c, 0, 63, 52
2, 96101, Note_on_c, 0, 63, 0
2, 96131, Note_on_c, 0, 69, 61
2, 96139, Note_on_c, 0, 60, 49
2, 96217, Note_on_c, 0, 60, 0
2, 96221, Note_on_c, 0, 69, 0
2, 96231, Note_on_c, 0, 68, 64
2, 96236, Note_on_c, 0, 61, 53
2, 96316, Note_on_c, 0, 61, 0
2, 96317, Note_on_c, 0, 68, 0
2, 96331, Note_on_c, 0, 66, 61
2, 96346, Note_on_c, 0, 63, 50
2, 96417, Note_on_c, 0, 66, 0
2, 96428, Note_on_c, 0, 68, 64
2, 96444, Note_on_c, 0, 60, 47
2, 96451, Note_on_c, 0, 63, 0
2, 96469, Note_on_c, 0, 60, 0
2, 96503, Note_on_c, 0, 68, 0
2, 96542, Note_on_c, 0, 56, 53
2, 96542, Note_on_c, 0, 75, 68
2, 96577, Note_on_c, 0, 75, 0
2, 96633, Note_on_c, 0, 44, 60
2, 96740, Note_on_c, 0, 44, 0
2, 96750, Note_on_c, 0, 46, 55
2, 96764, Note_on_c, 0, 72, 65
2, 96799, Note_on_c, 0, 72, 0
2, 96837, Note_on_c, 0, 46, 0
2, 96845, Note_on_c, 0, 56, 0
2, 96855, Note_on_c, 0, 48, 56
2, 96950, Note_on_c, 0, 48, 0
2, 96964, Note_on_c, 0, 66, 76
2, 96972, Note_on_c, 0, 49, 57
2, 97062, Note_on_c, 0, 56, 67
2, 97090, Note_on_c, 0, 66, 0
2, 97117, Note_on_c, 0, 56, 0
2, 97165, Note_on_c, 0, 58, 69
2, 97172, Note_on_c, 0, 65, 72
2, 97223, Note_on_c, 0, 58, 0
2, 97253, Note_on_c, 0, 63, 64
2, 97281, Note_on_c, 0, 65, 0
2, 97288, Note_on_c, 0, 60, 62
2, 97318, Note_on_c, 0, 63, 0
2, 97349, Note_on_c, 0, 49, 0
2, 97371, Note_on_c, 0, 65, 73
2, 97381, Note_on_c, 0, 61, 63
2, 97383, Note_on_c, 0, 60, 0
2, 97397, Control_c, 0, 64, 59
2, 97404, Note_on_c, 0, 61, 0
2, 97413, Control_c, 0, 64, 71
2, 97417, Note_on_c, 0, 65, 0
2, 97428, Control_c, 0, 64, 82
2, 97444, Control_c, 0, 64, 92
2, 97458, Control_c, 0, 64, 96
2, 97474, Control_c, 0, 64, 98
2, 97489, Note_on_c, 0, 51, 55
2, 97490, Control_c, 0, 64, 99
2, 97491, Note_on_c, 0, 68, 85
2, 97535, Control_c, 0, 64, 98
2, 97550, Control_c, 0, 64, 92
2, 97566, Control_c, 0, 64, 78
2, 97573, Note_on_c, 0, 53, 65
2, 97576, Note_on_c, 0, 51, 0
2, 97581, Control_c, 0, 64, 60
2, 97595, Control_c, 0, 64, 0
2, 97596, Note_on_c, 0, 73, 69
2, 97612, Note_on_c, 0, 68, 0
2, 97663, Note_on_c, 0, 53, 0
2, 97678, Note_on_c, 0, 55, 65
2, 97695, Note_on_c, 0, 75, 75
2, 97726, Note_on_c, 0, 73, 0
2, 97779, Note_on_c, 0, 55, 0
2, 97790, Note_on_c, 0, 56, 70
2, 97792, Note_on_c, 0, 75, 0
2, 97794, Note_on_c, 0, 77, 81
2, 97866, Note_on_c, 0, 56, 0
2, 97891, Note_on_c, 0, 75, 77
2, 97894, Note_on_c, 0, 55, 57
2, 97901, Note_on_c, 0, 77, 0
2, 97987, Note_on_c, 0, 55, 0
2, 97989, Note_on_c, 0, 53, 62
2, 97991, Note_on_c, 0, 73, 73
2, 97994, Note_on_c, 0, 75, 0
2, 98082, Note_on_c, 0, 53, 0
2, 98095, Note_on_c, 0, 55, 68
2, 98095, Note_on_c, 0, 75, 73
2, 98107, Note_on_c, 0, 73, 0
2, 98138, Note_on_c, 0, 75, 0
2, 98191, Note_on_c, 0, 55, 0
2, 98210, Note_on_c, 0, 84, 84
2, 98212, Note_on_c, 0, 72, 82
2, 98215, Note_on_c, 0, 56, 67
2, 98247, Note_on_c, 0, 84, 0
2, 98269, Note_on_c, 0, 56, 0
2, 98312, Note_on_c, 0, 54, 62
2, 98391, Note_on_c, 0, 54, 0
2, 98427, Note_on_c, 0, 80, 79
2, 98428, Note_on_c, 0, 53, 62
2, 98468, Note_on_c, 0, 80, 0
2, 98514, Note_on_c, 0, 53, 0
2, 98524, Note_on_c, 0, 51, 68
2, 98604, Note_on_c, 0, 51, 0
2, 98632, Note_on_c, 0, 53, 74
2, 98638, Note_on_c, 0, 75, 87
2, 98809, Note_on_c, 0, 72, 0
2, 98853, Note_on_c, 0, 73, 76
2, 98892, Note_on_c, 0, 75, 0
2, 98954, Note_on_c, 0, 73, 0
2, 98966, Note_on_c, 0, 72, 73
2, 99062, Note_on_c, 0, 70, 82
2, 99064, Note_on_c, 0, 73, 82
2, 99073, Note_on_c, 0, 72, 0
2, 99101, Note_on_c, 0, 70, 0
2, 99121, Note_on_c, 0, 73, 0
2, 99140, Note_on_c, 0, 53, 0
2, 99147, Note_on_c, 0, 51, 59
2, 99253, Note_on_c, 0, 51, 0
2, 99260, Note_on_c, 0, 49, 58
2, 99278, Note_on_c, 0, 82, 85
2, 99331, Note_on_c, 0, 49, 0
2, 99338, Note_on_c, 0, 82, 0
2, 99355, Note_on_c, 0, 53, 55
2, 99438, Note_on_c, 0, 53, 0
2, 99471, Note_on_c, 0, 51, 50
2, 99485, Note_on_c, 0, 72, 82
2, 99518, Note_on_c, 0, 72, 0
2, 99547, Note_on_c, 0, 51, 0
2, 99548, Note_on_c, 0, 49, 60
2, 99672, Note_on_c, 0, 49, 0
2, 99687, Note_on_c, 0, 48, 55
2, 99709, Note_on_c, 0, 80, 85
2, 99712, Note_on_c, 0, 68, 84
2, 99734, Note_on_c, 0, 68, 0
2, 99738, Note_on_c, 0, 80, 0
2, 99778, Note_on_c, 0, 48, 0
2, 99805, Note_on_c, 0, 51, 55
2, 99877, Note_on_c, 0, 51, 0
2, 99921, Note_on_c, 0, 49, 63
2, 99924, Note_on_c, 0, 67, 79
2, 99930, Note_on_c, 0, 70, 76
2, 99949, Note_on_c, 0, 67, 0
2, 99954, Note_on_c, 0, 70, 0
2, 100001, Note_on_c, 0, 49, 0
2, 100022, Note_on_c, 0, 48, 58
2, 100104, Note_on_c, 0, 48, 0
2, 100128, Note_on_c, 0, 49, 64
2, 100138, Note_on_c, 0, 79, 78
2, 100141, Note_on_c, 0, 70, 87
2, 100176, Note_on_c, 0, 70, 0
2, 100177, Note_on_c, 0, 79, 0
2, 100201, Note_on_c, 0, 49, 0
2, 100214, Note_on_c, 0, 46, 64
2, 100316, Note_on_c, 0, 46, 0
2, 100339, Note_on_c, 0, 48, 67
2, 100352, Note_on_c, 0, 63, 68
2, 100359, Note_on_c, 0, 68, 65
2, 100381, Note_on_c, 0, 63, 0
2, 100389, Note_on_c, 0, 48, 0
2, 100464, Note_on_c, 0, 63, 65
2, 100477, Note_on_c, 0, 68, 0
2, 100534, Note_on_c, 0, 63, 0
2, 100558, Note_on_c, 0, 51, 63
2, 100579, Note_on_c, 0, 65, 60
2, 100598, Note_on_c, 0, 51, 0
2, 100654, Note_on_c, 0, 65, 0
2, 100666, Note_on_c, 0, 67, 49
2, 100765, Note_on_c, 0, 54, 72
2, 100785, Note_on_c, 0, 68, 39
2, 100792, Note_on_c, 0, 67, 0
2, 100856, Note_on_c, 0, 68, 0
2, 100872, Note_on_c, 0, 70, 50
2, 100977, Note_on_c, 0, 70, 0
2, 100984, Note_on_c, 0, 56, 65
2, 101005, Note_on_c, 0, 72, 49
2, 101018, Note_on_c, 0, 56, 0
2, 101049, Note_on_c, 0, 72, 0
2, 101104, Note_on_c, 0, 68, 45
2, 101197, Note_on_c, 0, 68, 0
2, 101210, Note_on_c, 0, 58, 73
2, 101238, Note_on_c, 0, 73, 54
2, 101289, Note_on_c, 0, 58, 0
2, 101300, Note_on_c, 0, 73, 0
2, 101313, Note_on_c, 0, 56, 74
2, 101318, Note_on_c, 0, 54, 0
2, 101336, Note_on_c, 0, 72, 47
2, 101401, Note_on_c, 0, 56, 0
2, 101407, Note_on_c, 0, 72, 0
2, 101413, Note_on_c, 0, 54, 70
2, 101427, Note_on_c, 0, 70, 56
2, 101494, Note_on_c, 0, 56, 76
2, 101495, Note_on_c, 0, 70, 0
2, 101513, Note_on_c, 0, 54, 0
2, 101526, Note_on_c, 0, 72, 60
2, 101593, Note_on_c, 0, 56, 0
2, 101632, Note_on_c, 0, 72, 0
2, 101634, Note_on_c, 0, 53, 74
2, 101635, Note_on_c, 0, 65, 81
2, 101645, Note_on_c, 0, 73, 67
2, 101666, Note_on_c, 0, 65, 0
2, 101753, Note_on_c, 0, 73, 0
2, 101772, Note_on_c, 0, 72, 47
2, 101863, Note_on_c, 0, 72, 0
2, 101867, Note_on_c, 0, 61, 74
2, 101870, Note_on_c, 0, 70, 56
2, 101890, Note_on_c, 0, 61, 0
2, 101943, Note_on_c, 0, 70, 0
2, 101954, Note_on_c, 0, 68, 57
2, 102085, Note_on_c, 0, 70, 73
2, 102092, Note_on_c, 0, 56, 74
2, 102097, Note_on_c, 0, 68, 0
2, 102255, Note_on_c, 0, 56, 0
2, 102305, Note_on_c, 0, 53, 0
2, 102320, Note_on_c, 0, 54, 66
2, 102411, Note_on_c, 0, 54, 0
2, 102438, Note_on_c, 0, 53, 31
2, 102447, Note_on_c, 0, 52, 32
2, 102508, Note_on_c, 0, 53, 0
2, 102513, Note_on_c, 0, 52, 0
2, 102521, Note_on_c, 0, 54, 68
2, 102524, Note_on_c, 0, 51, 57
2, 102579, Note_on_c, 0, 54, 0
2, 102641, Note_on_c, 0, 70, 0
2, 102653, Note_on_c, 0, 68, 45
2, 102736, Note_on_c, 0, 63, 75
2, 102739, Note_on_c, 0, 66, 66
2, 102742, Note_on_c, 0, 68, 0
2, 102773, Note_on_c, 0, 63, 0
2, 102829, Note_on_c, 0, 66, 0
2, 102855, Note_on_c, 0, 70, 57
2, 102938, Note_on_c, 0, 51, 0
2, 102950, Note_on_c, 0, 53, 77
2, 102956, Note_on_c, 0, 70, 0
2, 102961, Note_on_c, 0, 68, 65
2, 103000, Note_on_c, 0, 53, 0
2, 103041, Note_on_c, 0, 66, 60
2, 103047, Note_on_c, 0, 68, 0
2, 103133, Note_on_c, 0, 66, 0
2, 103165, Note_on_c, 0, 61, 76
2, 103169, Note_on_c, 0, 65, 61
2, 103183, Note_on_c, 0, 49, 45
2, 103195, Note_on_c, 0, 61, 0
2, 103221, Note_on_c, 0, 49, 0
2, 103254, Note_on_c, 0, 65, 0
2, 103257, Note_on_c, 0, 68, 58
2, 103365, Note_on_c, 0, 68, 0
2, 103381, Note_on_c, 0, 66, 63
2, 103383, Note_on_c, 0, 51, 69
2, 103425, Note_on_c, 0, 51, 0
2, 103452, Note_on_c, 0, 66, 0
2, 103467, Note_on_c, 0, 65, 60
2, 103579, Note_on_c, 0, 65, 0
2, 103586, Note_on_c, 0, 44, 71
2, 103597, Note_on_c, 0, 63, 64
2, 103601, Note_on_c, 0, 60, 65
2, 103624, Note_on_c, 0, 44, 0
2, 103657, Note_on_c, 0, 60, 0
2, 103693, Note_on_c, 0, 63, 0
2, 103702, Note_on_c, 0, 66, 58
2, 103799, Note_on_c, 0, 66, 0
2, 103810, Note_on_c, 0, 49, 60
2, 103810, Note_on_c, 0, 65, 65
2, 103822, Note_on_c, 0, 61, 62
2, 103854, Note_on_c, 0, 65, 0
2, 103903, Note_on_c, 0, 51, 56
2, 103905, Note_on_c, 0, 49, 0
2, 103993, Note_on_c, 0, 51, 0
2, 104033, Note_on_c, 0, 68, 68
2, 104035, Note_on_c, 0, 53, 27
2, 104035, Note_on_c, 0, 61, 0
2, 104072, Note_on_c, 0, 68, 0
2, 104109, Note_on_c, 0, 53, 0
2, 104131, Note_on_c, 0, 54, 52
2, 104237, Note_on_c, 0, 54, 0
2, 104246, Note_on_c, 0, 53, 48
2, 104258, Note_on_c, 0, 73, 81
2, 104345, Note_on_c, 0, 53, 0
2, 104367, Note_on_c, 0, 51, 42
2, 104456, Note_on_c, 0, 51, 0
2, 104471, Note_on_c, 0, 49, 53
2, 104482, Note_on_c, 0, 80, 71
2, 104500, Note_on_c, 0, 73, 0
2, 104573, Note_on_c, 0, 77, 76
2, 104577, Note_on_c, 0, 49, 0
2, 104593, Note_on_c, 0, 53, 55
2, 104601, Note_on_c, 0, 80, 0
2, 104675, Note_on_c, 0, 53, 0
2, 104677, Note_on_c, 0, 77, 0
2, 104685, Note_on_c, 0, 73, 75
2, 104697, Note_on_c, 0, 58, 69
2, 104785, Note_on_c, 0, 58, 0
2, 104794, Note_on_c, 0, 56, 66
2, 104895, Note_on_c, 0, 73, 0
2, 104898, Note_on_c, 0, 56, 0
2, 104899, Note_on_c, 0, 76, 71
2, 104905, Note_on_c, 0, 55, 71
2, 105005, Note_on_c, 0, 73, 72
2, 105005, Note_on_c, 0, 76, 0
2, 105008, Note_on_c, 0, 58, 79
2, 105010, Note_on_c, 0, 55, 0
2, 105112, Note_on_c, 0, 58, 0
2, 105118, Note_on_c, 0, 70, 73
2, 105119, Note_on_c, 0, 61, 79
2, 105119, Note_on_c, 0, 73, 0
2, 105218, Note_on_c, 0, 59, 76
2, 105222, Note_on_c, 0, 61, 0
2, 105309, Note_on_c, 0, 58, 70
2, 105320, Control_c, 0, 64, 30
2, 105335, Note_on_c, 0, 73, 68
2, 105336, Control_c, 0, 64, 63
2, 105336, Note_on_c, 0, 70, 0
2, 105343, Note_on_c, 0, 59, 0
2, 105350, Note_on_c, 0, 58, 0
2, 105352, Control_c, 0, 64, 70
2, 105368, Control_c, 0, 64, 77
2, 105383, Control_c, 0, 64, 85
2, 105397, Control_c, 0, 64, 90
2, 105413, Control_c, 0, 64, 93
2, 105428, Control_c, 0, 64, 96
2, 105444, Control_c, 0, 64, 100
2, 105444, Note_on_c, 0, 61, 75
2, 105451, Note_on_c, 0, 70, 73
2, 105459, Control_c, 0, 64, 103
2, 105461, Note_on_c, 0, 73, 0
2, 105473, Control_c, 0, 64, 103
2, 105485, Note_on_c, 0, 63, 75
2, 105488, Note_on_c, 0, 61, 0
2, 105489, Control_c, 0, 64, 103
2, 105504, Control_c, 0, 64, 97
2, 105518, Control_c, 0, 64, 83
2, 105522, Note_on_c, 0, 70, 0
2, 105531, Note_on_c, 0, 64, 75
2, 105531, Note_on_c, 0, 67, 83
2, 105534, Control_c, 0, 64, 66
2, 105536, Note_on_c, 0, 63, 0
2, 105549, Control_c, 0, 64, 0
2, 105751, Note_on_c, 0, 64, 0
2, 105762, Note_on_c, 0, 70, 71
2, 105771, Note_on_c, 0, 63, 63
2, 105771, Note_on_c, 0, 67, 0
2, 105867, Note_on_c, 0, 61, 68
2, 105867, Note_on_c, 0, 73, 71
2, 105868, Note_on_c, 0, 63, 0
2, 105874, Note_on_c, 0, 70, 0
2, 105955, Note_on_c, 0, 61, 0
2, 105966, Note_on_c, 0, 76, 75
2, 105974, Note_on_c, 0, 73, 0
2, 105982, Note_on_c, 0, 59, 68
2, 106065, Note_on_c, 0, 59, 0
2, 106090, Note_on_c, 0, 58, 56
2, 106174, Note_on_c, 0, 58, 0
2, 106179, Note_on_c, 0, 56, 59
2, 106196, Note_on_c, 0, 73, 67
2, 106220, Note_on_c, 0, 73, 0
2, 106255, Note_on_c, 0, 56, 0
2, 106298, Note_on_c, 0, 55, 47
2, 106379, Note_on_c, 0, 76, 0
2, 106395, Note_on_c, 0, 56, 61
2, 106399, Note_on_c, 0, 71, 68
2, 106408, Note_on_c, 0, 55, 0
2, 106408, Note_on_c, 0, 74, 53
2, 106428, Note_on_c, 0, 74, 0
2, 106466, Note_on_c, 0, 56, 0
2, 106503, Note_on_c, 0, 59, 54
2, 106569, Note_on_c, 0, 59, 0
2, 106618, Note_on_c, 0, 80, 71
2, 106621, Note_on_c, 0, 58, 57
2, 106664, Note_on_c, 0, 80, 0
2, 106705, Note_on_c, 0, 58, 0
2, 106711, Note_on_c, 0, 56, 59
2, 106798, Note_on_c, 0, 56, 0
2, 106836, Note_on_c, 0, 70, 69
2, 106837, Note_on_c, 0, 73, 62
2, 106839, Note_on_c, 0, 55, 57
2, 106847, Note_on_c, 0, 71, 0
2, 106904, Note_on_c, 0, 73, 0
2, 106928, Note_on_c, 0, 55, 0
2, 106955, Note_on_c, 0, 53, 53
2, 107032, Note_on_c, 0, 53, 0
2, 107051, Note_on_c, 0, 51, 49
2, 107068, Note_on_c, 0, 79, 64
2, 107110, Note_on_c, 0, 51, 0
2, 107112, Note_on_c, 0, 79, 0
2, 107157, Note_on_c, 0, 49, 50
2, 107214, Note_on_c, 0, 70, 0
2, 107249, Note_on_c, 0, 49, 0
2, 107270, Note_on_c, 0, 47, 57
2, 107277, Note_on_c, 0, 68, 77
2, 107335, Note_on_c, 0, 68, 0
2, 107364, Note_on_c, 0, 47, 0
2, 107412, Note_on_c, 0, 49, 20
2, 107487, Note_on_c, 0, 49, 0
2, 107488, Note_on_c, 0, 51, 62
2, 107490, Note_on_c, 0, 80, 73
2, 107542, Note_on_c, 0, 51, 0
2, 107545, Note_on_c, 0, 80, 0
2, 107581, Note_on_c, 0, 79, 80
2, 107597, Note_on_c, 0, 47, 60
2, 107664, Note_on_c, 0, 47, 0
2, 107685, Note_on_c, 0, 80, 84
2, 107692, Note_on_c, 0, 44, 71
2, 107695, Note_on_c, 0, 79, 0
2, 107734, Note_on_c, 0, 44, 0
2, 107777, Note_on_c, 0, 82, 83
2, 107796, Note_on_c, 0, 80, 0
2, 107891, Note_on_c, 0, 83, 75
2, 107894, Note_on_c, 0, 56, 69
2, 107964, Note_on_c, 0, 82, 0
2, 107969, Note_on_c, 0, 56, 0
2, 107989, Note_on_c, 0, 80, 80
2, 107993, Note_on_c, 0, 53, 60
2, 108010, Note_on_c, 0, 83, 0
2, 108087, Note_on_c, 0, 80, 0
2, 108090, Note_on_c, 0, 53, 0
2, 108091, Note_on_c, 0, 49, 76
2, 108094, Note_on_c, 0, 77, 82
2, 108143, Note_on_c, 0, 49, 0
2, 108197, Note_on_c, 0, 78, 80
2, 108218, Note_on_c, 0, 77, 0
2, 108307, Note_on_c, 0, 80, 82
2, 108319, Note_on_c, 0, 59, 62
2, 108324, Note_on_c, 0, 78, 0
2, 108396, Note_on_c, 0, 59, 0
2, 108396, Note_on_c, 0, 77, 79
2, 108396, Note_on_c, 0, 80, 0
2, 108408, Note_on_c, 0, 56, 61
2, 108513, Note_on_c, 0, 73, 77
2, 108514, Note_on_c, 0, 53, 72
2, 108517, Note_on_c, 0, 56, 0
2, 108542, Note_on_c, 0, 77, 0
2, 108558, Note_on_c, 0, 53, 0
2, 108613, Note_on_c, 0, 73, 0
2, 108615, Note_on_c, 0, 75, 71
2, 108735, Note_on_c, 0, 49, 63
2, 108738, Note_on_c, 0, 77, 78
2, 108745, Note_on_c, 0, 75, 0
2, 108810, Note_on_c, 0, 49, 0
2, 108827, Note_on_c, 0, 73, 77
2, 108833, Note_on_c, 0, 46, 57
2, 108839, Note_on_c, 0, 77, 0
2, 108926, Note_on_c, 0, 73, 0
2, 108927, Note_on_c, 0, 46, 0
2, 108941, Note_on_c, 0, 70, 76
2, 108945, Note_on_c, 0, 42, 61
2, 108983, Note_on_c, 0, 42, 0
2, 109041, Note_on_c, 0, 72, 69
2, 109052, Note_on_c, 0, 70, 0
2, 109150, Note_on_c, 0, 58, 54
2, 109153, Note_on_c, 0, 73, 74
2, 109160, Note_on_c, 0, 72, 0
2, 109209, Note_on_c, 0, 58, 0
2, 109232, Note_on_c, 0, 73, 0
2, 109243, Note_on_c, 0, 54, 47
2, 109257, Note_on_c, 0, 70, 67
2, 109344, Note_on_c, 0, 54, 0
2, 109348, Note_on_c, 0, 51, 59
2, 109360, Note_on_c, 0, 78, 72
2, 109383, Note_on_c, 0, 70, 0
2, 109390, Note_on_c, 0, 51, 0
2, 109462, Note_on_c, 0, 80, 74
2, 109485, Note_on_c, 0, 78, 0
2, 109563, Note_on_c, 0, 54, 47
2, 109570, Note_on_c, 0, 82, 71
2, 109575, Note_on_c, 0, 80, 0
2, 109646, Note_on_c, 0, 54, 0
2, 109660, Note_on_c, 0, 51, 46
2, 109672, Note_on_c, 0, 78, 68
2, 109692, Note_on_c, 0, 82, 0
2, 109754, Note_on_c, 0, 51, 0
2, 109765, Note_on_c, 0, 48, 64
2, 109776, Note_on_c, 0, 78, 0
2, 109785, Note_on_c, 0, 75, 67
2, 109800, Note_on_c, 0, 48, 0
2, 109882, Note_on_c, 0, 77, 70
2, 109889, Note_on_c, 0, 75, 0
2, 109982, Note_on_c, 0, 58, 51
2, 109982, Note_on_c, 0, 78, 69
2, 109987, Note_on_c, 0, 77, 0
2, 110040, Note_on_c, 0, 58, 0
2, 110076, Note_on_c, 0, 54, 48
2, 110089, Note_on_c, 0, 75, 61
2, 110089, Note_on_c, 0, 78, 0
2, 110159, Note_on_c, 0, 75, 0
2, 110186, Note_on_c, 0, 54, 0
2, 110188, Note_on_c, 0, 51, 51
2, 110192, Note_on_c, 0, 72, 62
2, 110224, Note_on_c, 0, 51, 0
2, 110284, Note_on_c, 0, 72, 0
2, 110288, Note_on_c, 0, 73, 59
2, 110398, Note_on_c, 0, 73, 0
2, 110403, Note_on_c, 0, 75, 63
2, 110404, Note_on_c, 0, 48, 35
2, 110468, Note_on_c, 0, 48, 0
2, 110475, Note_on_c, 0, 75, 0
2, 110500, Note_on_c, 0, 44, 43
2, 110503, Note_on_c, 0, 72, 60
2, 110585, Note_on_c, 0, 44, 0
2, 110586, Note_on_c, 0, 72, 0
2, 110595, Note_on_c, 0, 41, 55
2, 110605, Note_on_c, 0, 68, 59
2, 110631, Note_on_c, 0, 41, 0
2, 110688, Note_on_c, 0, 68, 0
2, 110701, Note_on_c, 0, 70, 58
2, 110780, Note_on_c, 0, 70, 0
2, 110810, Note_on_c, 0, 56, 55
2, 110821, Note_on_c, 0, 72, 49
2, 110849, Note_on_c, 0, 72, 0
2, 110863, Note_on_c, 0, 56, 0
2, 110898, Note_on_c, 0, 53, 54
2, 110901, Note_on_c, 0, 68, 54
2, 110952, Note_on_c, 0, 68, 0
2, 110991, Note_on_c, 0, 53, 0
2, 111006, Note_on_c, 0, 50, 53
2, 111010, Note_on_c, 0, 77, 60
2, 111030, Note_on_c, 0, 50, 0
2, 111091, Note_on_c, 0, 78, 64
2, 111096, Note_on_c, 0, 77, 0
2, 111213, Note_on_c, 0, 53, 48
2, 111217, Note_on_c, 0, 80, 64
2, 111219, Note_on_c, 0, 78, 0
2, 111274, Note_on_c, 0, 53, 0
2, 111310, Note_on_c, 0, 77, 63
2, 111325, Note_on_c, 0, 50, 45
2, 111334, Note_on_c, 0, 80, 0
2, 111398, Note_on_c, 0, 50, 0
2, 111406, Note_on_c, 0, 77, 0
2, 111413, Note_on_c, 0, 46, 54
2, 111424, Note_on_c, 0, 74, 57
2, 111466, Note_on_c, 0, 46, 0
2, 111512, Note_on_c, 0, 74, 0
2, 111522, Note_on_c, 0, 75, 57
2, 111617, Note_on_c, 0, 56, 55
2, 111618, Note_on_c, 0, 75, 0
2, 111624, Note_on_c, 0, 77, 62
2, 111688, Note_on_c, 0, 56, 0
2, 111695, Note_on_c, 0, 77, 0
2, 111704, Note_on_c, 0, 53, 56
2, 111719, Note_on_c, 0, 74, 54
2, 111815, Note_on_c, 0, 53, 0
2, 111817, Note_on_c, 0, 74, 0
2, 111824, Note_on_c, 0, 70, 57
2, 111825, Note_on_c, 0, 50, 58
2, 111861, Control_c, 0, 67, 11
2, 111864, Note_on_c, 0, 50, 0
2, 111876, Control_c, 0, 67, 20
2, 111893, Control_c, 0, 67, 37
2, 111907, Note_on_c, 0, 70, 0
2, 111908, Control_c, 0, 67, 62
2, 111923, Control_c, 0, 67, 99
2, 111937, Note_on_c, 0, 72, 48
2, 111938, Control_c, 0, 67, 127
2, 112038, Note_on_c, 0, 74, 60
2, 112041, Note_on_c, 0, 72, 0
2, 112042, Note_on_c, 0, 46, 52
2, 112092, Note_on_c, 0, 46, 0
2, 112123, Note_on_c, 0, 42, 49
2, 112125, Note_on_c, 0, 74, 0
2, 112136, Note_on_c, 0, 70, 60
2, 112195, Note_on_c, 0, 70, 0
2, 112202, Note_on_c, 0, 42, 0
2, 112215, Note_on_c, 0, 39, 56
2, 112238, Note_on_c, 0, 66, 60
2, 112267, Note_on_c, 0, 39, 0
2, 112318, Note_on_c, 0, 66, 0
2, 112332, Note_on_c, 0, 68, 58
2, 112441, Note_on_c, 0, 68, 0
2, 112443, Note_on_c, 0, 70, 63
2, 112453, Note_on_c, 0, 54, 42
2, 112503, Note_on_c, 0, 70, 0
2, 112507, Note_on_c, 0, 54, 0
2, 112532, Note_on_c, 0, 51, 42
2, 112542, Note_on_c, 0, 66, 56
2, 112630, Note_on_c, 0, 51, 0
2, 112643, Note_on_c, 0, 48, 58
2, 112657, Note_on_c, 0, 75, 57
2, 112661, Note_on_c, 0, 66, 0
2, 112675, Note_on_c, 0, 48, 0
2, 112764, Note_on_c, 0, 75, 0
2, 112767, Note_on_c, 0, 77, 60
2, 112859, Note_on_c, 0, 51, 47
2, 112871, Note_on_c, 0, 77, 0
2, 112875, Note_on_c, 0, 78, 65
2, 112926, Note_on_c, 0, 51, 0
2, 112966, Note_on_c, 0, 48, 44
2, 112974, Note_on_c, 0, 75, 50
2, 112977, Note_on_c, 0, 78, 0
2, 113054, Note_on_c, 0, 48, 0
2, 113064, Note_on_c, 0, 44, 63
2, 113064, Note_on_c, 0, 75, 0
2, 113086, Note_on_c, 0, 72, 57
2, 113114, Note_on_c, 0, 44, 0
2, 113167, Note_on_c, 0, 72, 0
2, 113173, Note_on_c, 0, 73, 59
2, 113281, Note_on_c, 0, 54, 55
2, 113295, Note_on_c, 0, 73, 0
2, 113300, Note_on_c, 0, 75, 60
2, 113333, Note_on_c, 0, 54, 0
2, 113364, Note_on_c, 0, 75, 0
2, 113370, Note_on_c, 0, 51, 49
2, 113385, Note_on_c, 0, 72, 56
2, 113471, Note_on_c, 0, 51, 0
2, 113473, Note_on_c, 0, 48, 65
2, 113481, Note_on_c, 0, 72, 0
2, 113488, Note_on_c, 0, 68, 62
2, 113524, Note_on_c, 0, 48, 0
2, 113592, Note_on_c, 0, 68, 0
2, 113593, Note_on_c, 0, 70, 63
2, 113619, Control_c, 0, 67, 96
2, 113634, Control_c, 0, 67, 42
2, 113650, Control_c, 0, 67, 0
2, 113674, Note_on_c, 0, 70, 0
2, 113695, Note_on_c, 0, 44, 60
2, 113698, Note_on_c, 0, 72, 70
2, 113770, Note_on_c, 0, 44, 0
2, 113787, Note_on_c, 0, 41, 65
2, 113800, Note_on_c, 0, 68, 69
2, 113805, Note_on_c, 0, 72, 0
2, 113880, Note_on_c, 0, 68, 0
2, 113895, Note_on_c, 0, 41, 0
2, 113902, Note_on_c, 0, 37, 77
2, 113912, Note_on_c, 0, 65, 75
2, 114005, Note_on_c, 0, 66, 76
2, 114008, Note_on_c, 0, 65, 0
2, 114114, Note_on_c, 0, 66, 0
2, 114114, Note_on_c, 0, 68, 75
2, 114216, Note_on_c, 0, 68, 0
2, 114223, Note_on_c, 0, 65, 74
2, 114344, Note_on_c, 0, 61, 74
2, 114344, Note_on_c, 0, 65, 0
2, 114356, Note_on_c, 0, 37, 0
2, 114411, Note_on_c, 0, 61, 0
2, 114448, Note_on_c, 0, 65, 76
2, 114546, Note_on_c, 0, 65, 0
2, 114546, Note_on_c, 0, 68, 76
2, 114641, Note_on_c, 0, 70, 78
2, 114652, Note_on_c, 0, 68, 0
2, 114724, Note_on_c, 0, 70, 0
2, 114756, Note_on_c, 0, 71, 74
2, 114852, Note_on_c, 0, 70, 68
2, 114875, Note_on_c, 0, 71, 0
2, 114941, Note_on_c, 0, 70, 0
2, 114953, Note_on_c, 0, 59, 57
2, 114955, Note_on_c, 0, 68, 74
2, 115005, Note_on_c, 0, 59, 0
2, 115054, Note_on_c, 0, 49, 65
2, 115058, Note_on_c, 0, 70, 78
2, 115102, Note_on_c, 0, 68, 0
2, 115141, Note_on_c, 0, 70, 0
2, 115146, Note_on_c, 0, 49, 0
2, 115168, Note_on_c, 0, 78, 80
2, 115169, Note_on_c, 0, 58, 72
2, 115209, Note_on_c, 0, 78, 0
2, 115218, Note_on_c, 0, 58, 0
2, 115258, Note_on_c, 0, 49, 67
2, 115350, Note_on_c, 0, 49, 0
2, 115380, Note_on_c, 0, 56, 66
2, 115404, Note_on_c, 0, 72, 68
2, 115426, Note_on_c, 0, 72, 0
2, 115450, Note_on_c, 0, 56, 0
2, 115484, Note_on_c, 0, 49, 68
2, 115579, Note_on_c, 0, 49, 0
2, 115599, Note_on_c, 0, 54, 67
2, 115604, Note_on_c, 0, 70, 78
2, 115684, Note_on_c, 0, 69, 52
2, 115685, Note_on_c, 0, 70, 0
2, 115691, Note_on_c, 0, 54, 0
2, 115695, Note_on_c, 0, 49, 72
2, 115821, Note_on_c, 0, 49, 0
2, 115830, Note_on_c, 0, 53, 68
2, 115836, Note_on_c, 0, 68, 71
2, 115841, Note_on_c, 0, 69, 0
2, 115922, Note_on_c, 0, 68, 0
2, 115925, Note_on_c, 0, 53, 0
2, 115926, Note_on_c, 0, 66, 75
2, 115928, Note_on_c, 0, 51, 64
2, 116014, Note_on_c, 0, 66, 0
2, 116028, Note_on_c, 0, 68, 80
2, 116033, Note_on_c, 0, 51, 0
2, 116034, Note_on_c, 0, 53, 74
2, 116063, Note_on_c, 0, 53, 0
2, 116114, Note_on_c, 0, 68, 0
2, 116125, Note_on_c, 0, 61, 71
2, 116218, Note_on_c, 0, 61, 0
2, 116234, Note_on_c, 0, 44, 67
2, 116249, Note_on_c, 0, 65, 64
2, 116266, Note_on_c, 0, 44, 0
2, 116325, Note_on_c, 0, 65, 0
2, 116326, Note_on_c, 0, 68, 68
2, 116415, Note_on_c, 0, 68, 0
2, 116455, Note_on_c, 0, 70, 68
2, 116547, Note_on_c, 0, 70, 0
2, 116551, Note_on_c, 0, 68, 61
2, 116647, Note_on_c, 0, 68, 0
2, 116653, Note_on_c, 0, 58, 50
2, 116658, Note_on_c, 0, 66, 62
2, 116716, Note_on_c, 0, 58, 0
2, 116743, Note_on_c, 0, 49, 52
2, 116765, Note_on_c, 0, 68, 67
2, 116795, Note_on_c, 0, 66, 0
2, 116813, Note_on_c, 0, 68, 0
2, 116829, Note_on_c, 0, 49, 0
2, 116865, Note_on_c, 0, 56, 61
2, 116867, Note_on_c, 0, 77, 73
2, 116891, Note_on_c, 0, 77, 0
2, 116910, Note_on_c, 0, 56, 0
2, 116954, Note_on_c, 0, 49, 58
2, 117060, Note_on_c, 0, 49, 0
2, 117084, Note_on_c, 0, 54, 54
2, 117086, Note_on_c, 0, 73, 75
2, 117128, Note_on_c, 0, 73, 0
2, 117163, Note_on_c, 0, 54, 0
2, 117187, Note_on_c, 0, 49, 57
2, 117281, Note_on_c, 0, 49, 0
2, 117300, Note_on_c, 0, 53, 61
2, 117303, Note_on_c, 0, 68, 75
2, 117401, Note_on_c, 0, 53, 0
2, 117422, Note_on_c, 0, 49, 58
2, 117514, Note_on_c, 0, 49, 0
2, 117525, Note_on_c, 0, 66, 66
2, 117526, Note_on_c, 0, 51, 59
2, 117536, Note_on_c, 0, 68, 0
2, 117613, Note_on_c, 0, 66, 0
2, 117614, Note_on_c, 0, 51, 0
2, 117630, Note_on_c, 0, 65, 56
2, 117641, Note_on_c, 0, 49, 59
2, 117727, Note_on_c, 0, 66, 72
2, 117731, Note_on_c, 0, 65, 0
2, 117735, Note_on_c, 0, 49, 0
2, 117741, Note_on_c, 0, 51, 61
2, 117774, Note_on_c, 0, 51, 0
2, 117799, Note_on_c, 0, 66, 0
2, 117822, Note_on_c, 0, 60, 58
2, 117934, Note_on_c, 0, 60, 0
2, 117940, Note_on_c, 0, 44, 58
2, 117944, Note_on_c, 0, 63, 52
2, 117974, Note_on_c, 0, 44, 0
2, 118019, Note_on_c, 0, 63, 0
2, 118029, Note_on_c, 0, 66, 58
2, 118133, Note_on_c, 0, 66, 0
2, 118163, Note_on_c, 0, 68, 58
2, 118256, Note_on_c, 0, 68, 0
2, 118261, Note_on_c, 0, 66, 59
2, 118341, Note_on_c, 0, 66, 0
2, 118360, Note_on_c, 0, 65, 55
2, 118366, Note_on_c, 0, 56, 49
2, 118420, Note_on_c, 0, 56, 0
2, 118454, Note_on_c, 0, 66, 61
2, 118461, Note_on_c, 0, 44, 50
2, 118463, Note_on_c, 0, 65, 0
2, 118525, Note_on_c, 0, 66, 0
2, 118529, Note_on_c, 0, 44, 0
2, 118571, Note_on_c, 0, 54, 57
2, 118573, Note_on_c, 0, 75, 58
2, 118607, Note_on_c, 0, 75, 0
2, 118622, Note_on_c, 0, 54, 0
2, 118665, Note_on_c, 0, 44, 48
2, 118736, Note_on_c, 0, 44, 0
2, 118785, Note_on_c, 0, 72, 65
2, 118786, Note_on_c, 0, 53, 51
2, 118820, Note_on_c, 0, 72, 0
2, 118840, Note_on_c, 0, 53, 0
2, 118895, Note_on_c, 0, 44, 51
2, 118963, Note_on_c, 0, 44, 0
2, 118995, Note_on_c, 0, 51, 57
2, 118995, Note_on_c, 0, 66, 62
2, 119078, Note_on_c, 0, 51, 0
2, 119096, Note_on_c, 0, 44, 55
2, 119179, Note_on_c, 0, 44, 0
2, 119199, Note_on_c, 0, 49, 57
2, 119205, Note_on_c, 0, 66, 0
2, 119212, Note_on_c, 0, 65, 61
2, 119292, Note_on_c, 0, 49, 0
2, 119304, Note_on_c, 0, 63, 64
2, 119308, Note_on_c, 0, 65, 0
2, 119311, Note_on_c, 0, 48, 54
2, 119392, Note_on_c, 0, 48, 0
2, 119397, Note_on_c, 0, 63, 0
2, 119409, Note_on_c, 0, 49, 60
2, 119426, Note_on_c, 0, 65, 69
2, 119496, Note_on_c, 0, 49, 0
2, 119503, Note_on_c, 0, 44, 62
2, 119506, Note_on_c, 0, 65, 0
2, 119517, Note_on_c, 0, 68, 70
2, 119596, Note_on_c, 0, 44, 0
2, 119614, Note_on_c, 0, 70, 72
2, 119620, Note_on_c, 0, 53, 62
2, 119628, Note_on_c, 0, 68, 0
2, 119699, Note_on_c, 0, 70, 0
2, 119722, Note_on_c, 0, 72, 72
2, 119728, Note_on_c, 0, 53, 0
2, 119731, Note_on_c, 0, 51, 68
2, 119815, Note_on_c, 0, 51, 0
2, 119823, Note_on_c, 0, 72, 0
2, 119823, Note_on_c, 0, 73, 74
2, 119837, Note_on_c, 0, 53, 66
2, 119893, Note_on_c, 0, 53, 0
2, 119917, Note_on_c, 0, 75, 71
2, 119920, Note_on_c, 0, 44, 66
2, 119923, Note_on_c, 0, 73, 0
2, 119998, Note_on_c, 0, 75, 0
2, 120005, Note_on_c, 0, 44, 0
2, 120031, Note_on_c, 0, 77, 76
2, 120038, Note_on_c, 0, 56, 68
2, 120128, Note_on_c, 0, 75, 78
2, 120137, Note_on_c, 0, 56, 0
2, 120140, Note_on_c, 0, 54, 68
2, 120154, Note_on_c, 0, 77, 0
2, 120227, Note_on_c, 0, 54, 0
2, 120239, Note_on_c, 0, 56, 70
2, 120242, Note_on_c, 0, 78, 77
2, 120243, Note_on_c, 0, 75, 0
2, 120306, Note_on_c, 0, 56, 0
2, 120332, Note_on_c, 0, 77, 75
2, 120335, Note_on_c, 0, 44, 68
2, 120369, Note_on_c, 0, 78, 0
2, 120423, Note_on_c, 0, 44, 0
2, 120447, Note_on_c, 0, 75, 71
2, 120460, Note_on_c, 0, 58, 67
2, 120492, Note_on_c, 0, 77, 0
2, 120493, Note_on_c, 0, 58, 0
2, 120497, Control_c, 0, 64, 56
2, 120512, Control_c, 0, 64, 67
2, 120528, Control_c, 0, 64, 77
2, 120530, Note_on_c, 0, 44, 65
2, 120536, Note_on_c, 0, 73, 73
2, 120538, Note_on_c, 0, 75, 0
2, 120543, Control_c, 0, 64, 88
2, 120557, Control_c, 0, 64, 93
2, 120561, Note_on_c, 0, 73, 0
2, 120569, Note_on_c, 0, 44, 0
2, 120573, Control_c, 0, 64, 95
2, 120588, Control_c, 0, 64, 95
2, 120634, Control_c, 0, 64, 93
2, 120650, Control_c, 0, 64, 83
2, 120660, Note_on_c, 0, 82, 80
2, 120664, Control_c, 0, 64, 69
2, 120674, Note_on_c, 0, 60, 75
2, 120679, Control_c, 0, 64, 0
2, 120723, Note_on_c, 0, 82, 0
2, 120730, Note_on_c, 0, 80, 69
2, 120756, Note_on_c, 0, 60, 0
2, 120762, Note_on_c, 0, 61, 74
2, 120763, Note_on_c, 0, 80, 0
2, 120783, Note_on_c, 0, 79, 66
2, 120829, Note_on_c, 0, 79, 0
2, 120834, Note_on_c, 0, 61, 0
2, 120837, Note_on_c, 0, 80, 70
2, 120849, Note_on_c, 0, 63, 68
2, 120875, Note_on_c, 0, 82, 72
2, 120878, Note_on_c, 0, 80, 0
2, 120919, Note_on_c, 0, 63, 0
2, 120931, Note_on_c, 0, 82, 0
2, 120936, Note_on_c, 0, 60, 66
2, 120936, Note_on_c, 0, 80, 71
2, 121000, Note_on_c, 0, 80, 0
2, 121007, Note_on_c, 0, 82, 70
2, 121031, Note_on_c, 0, 60, 0
2, 121053, Note_on_c, 0, 56, 63
2, 121054, Note_on_c, 0, 82, 0
2, 121061, Note_on_c, 0, 80, 72
2, 121129, Note_on_c, 0, 80, 0
2, 121136, Note_on_c, 0, 82, 72
2, 121146, Note_on_c, 0, 56, 0
2, 121147, Note_on_c, 0, 60, 67
2, 121193, Note_on_c, 0, 82, 0
2, 121196, Note_on_c, 0, 80, 68
2, 121254, Note_on_c, 0, 60, 0
2, 121256, Note_on_c, 0, 63, 71
2, 121258, Note_on_c, 0, 80, 0
2, 121258, Note_on_c, 0, 82, 71
2, 121314, Note_on_c, 0, 82, 0
2, 121315, Note_on_c, 0, 80, 64
2, 121332, Note_on_c, 0, 63, 0
2, 121350, Note_on_c, 0, 65, 67
2, 121363, Note_on_c, 0, 80, 0
2, 121371, Note_on_c, 0, 82, 59
2, 121434, Note_on_c, 0, 80, 69
2, 121438, Note_on_c, 0, 82, 0
2, 121453, Note_on_c, 0, 66, 75
2, 121456, Note_on_c, 0, 65, 0
2, 121478, Note_on_c, 0, 80, 0
2, 121521, Note_on_c, 0, 66, 0
2, 121554, Note_on_c, 0, 65, 67
2, 121572, Note_on_c, 0, 80, 74
2, 121628, Note_on_c, 0, 65, 0
2, 121664, Note_on_c, 0, 63, 71
2, 121665, Note_on_c, 0, 78, 77
2, 121668, Note_on_c, 0, 80, 0
2, 121728, Note_on_c, 0, 63, 0
2, 121751, Note_on_c, 0, 65, 69
2, 121765, Note_on_c, 0, 78, 0
2, 121766, Note_on_c, 0, 80, 78
2, 121868, Note_on_c, 0, 80, 0
2, 121869, Note_on_c, 0, 77, 81
2, 121882, Note_on_c, 0, 73, 79
2, 121896, Note_on_c, 0, 65, 0
2, 121904, Note_on_c, 0, 73, 0
2, 121959, Note_on_c, 0, 77, 0
2, 121969, Note_on_c, 0, 80, 68
2, 122089, Note_on_c, 0, 80, 0
2, 122098, Note_on_c, 0, 75, 66
2, 122102, Note_on_c, 0, 68, 82
2, 122130, Note_on_c, 0, 68, 0
2, 122178, Note_on_c, 0, 75, 0
2, 122192, Note_on_c, 0, 80, 69
2, 122300, Note_on_c, 0, 80, 0
2, 122304, Note_on_c, 0, 65, 89
2, 122309, Note_on_c, 0, 73, 69
2, 122385, Note_on_c, 0, 73, 0
2, 122401, Note_on_c, 0, 80, 69
2, 122499, Note_on_c, 0, 65, 0
2, 122509, Note_on_c, 0, 80, 0
2, 122515, Note_on_c, 0, 72, 74
2, 122526, Note_on_c, 0, 63, 66
2, 122602, Note_on_c, 0, 63, 0
2, 122608, Note_on_c, 0, 72, 0
2, 122609, Note_on_c, 0, 70, 76
2, 122618, Note_on_c, 0, 61, 62
2, 122711, Note_on_c, 0, 61, 0
2, 122713, Note_on_c, 0, 70, 0
2, 122726, Note_on_c, 0, 72, 72
2, 122737, Note_on_c, 0, 62, 48
2, 122765, Note_on_c, 0, 62, 0
2, 122805, Note_on_c, 0, 72, 0
2, 122813, Note_on_c, 0, 75, 70
2, 122827, Note_on_c, 0, 56, 62
2, 122883, Note_on_c, 0, 75, 0
2, 122916, Note_on_c, 0, 56, 0
2, 122917, Note_on_c, 0, 60, 69
2, 122922, Note_on_c, 0, 77, 73
2, 123021, Note_on_c, 0, 60, 0
2, 123022, Note_on_c, 0, 78, 69
2, 123025, Note_on_c, 0, 63, 71
2, 123026, Note_on_c, 0, 77, 0
2, 123106, Note_on_c, 0, 63, 0
2, 123129, Note_on_c, 0, 65, 66
2, 123130, Note_on_c, 0, 80, 78
2, 123136, Note_on_c, 0, 78, 0
2, 123209, Note_on_c, 0, 65, 0
2, 123222, Note_on_c, 0, 63, 72
2, 123241, Note_on_c, 0, 78, 76
2, 123269, Note_on_c, 0, 80, 0
2, 123315, Note_on_c, 0, 63, 0
2, 123321, Note_on_c, 0, 61, 75
2, 123329, Note_on_c, 0, 78, 0
2, 123334, Note_on_c, 0, 77, 73
2, 123416, Note_on_c, 0, 61, 0
2, 123422, Note_on_c, 0, 63, 78
2, 123436, Note_on_c, 0, 77, 0
2, 123436, Note_on_c, 0, 80, 72
2, 123507, Note_on_c, 0, 63, 0
2, 123543, Note_on_c, 0, 72, 82
2, 123544, Note_on_c, 0, 80, 0
2, 123556, Note_on_c, 0, 75, 71
2, 123575, Note_on_c, 0, 72, 0
2, 123628, Note_on_c, 0, 75, 0
2, 123649, Note_on_c, 0, 80, 67
2, 123761, Note_on_c, 0, 80, 0
2, 123768, Note_on_c, 0, 68, 82
2, 123778, Note_on_c, 0, 73, 61
2, 123800, Note_on_c, 0, 68, 0
2, 123849, Note_on_c, 0, 73, 0
2, 123877, Note_on_c, 0, 80, 58
2, 123961, Note_on_c, 0, 80, 0
2, 123975, Note_on_c, 0, 63, 78
2, 123985, Note_on_c, 0, 72, 62
2, 124046, Note_on_c, 0, 72, 0
2, 124077, Note_on_c, 0, 80, 62
2, 124174, Note_on_c, 0, 63, 0
2, 124175, Note_on_c, 0, 80, 0
2, 124183, Note_on_c, 0, 70, 67
2, 124195, Note_on_c, 0, 61, 62
2, 124276, Note_on_c, 0, 61, 0
2, 124276, Note_on_c, 0, 70, 0
2, 124285, Note_on_c, 0, 60, 57
2, 124294, Note_on_c, 0, 68, 70
2, 124358, Note_on_c, 0, 60, 0
2, 124382, Note_on_c, 0, 61, 58
2, 124400, Note_on_c, 0, 68, 0
2, 124400, Note_on_c, 0, 70, 69
2, 124460, Note_on_c, 0, 61, 0
2, 124477, Note_on_c, 0, 56, 57
2, 124496, Note_on_c, 0, 70, 0
2, 124501, Note_on_c, 0, 73, 68
2, 124571, Note_on_c, 0, 56, 0
2, 124581, Control_c, 0, 67, 9
2, 124596, Control_c, 0, 67, 16
2, 124600, Note_on_c, 0, 73, 0
2, 124603, Note_on_c, 0, 75, 66
2, 124605, Note_on_c, 0, 60, 27
2, 124612, Control_c, 0, 67, 32
2, 124627, Control_c, 0, 67, 53
2, 124642, Control_c, 0, 67, 82
2, 124652, Note_on_c, 0, 75, 0
2, 124657, Control_c, 0, 67, 115
2, 124660, Note_on_c, 0, 60, 0
2, 124672, Control_c, 0, 67, 127
2, 124686, Note_on_c, 0, 65, 54
2, 124700, Note_on_c, 0, 77, 69
2, 124761, Note_on_c, 0, 65, 0
2, 124783, Note_on_c, 0, 77, 0
2, 124794, Note_on_c, 0, 63, 54
2, 124797, Note_on_c, 0, 78, 68
2, 124875, Note_on_c, 0, 63, 0
2, 124880, Note_on_c, 0, 78, 0
2, 124881, Note_on_c, 0, 61, 59
2, 124899, Note_on_c, 0, 77, 70
2, 124976, Note_on_c, 0, 61, 0
2, 124996, Note_on_c, 0, 77, 0
2, 125000, Note_on_c, 0, 60, 56
2, 125003, Note_on_c, 0, 75, 66
2, 125091, Note_on_c, 0, 75, 0
2, 125098, Note_on_c, 0, 60, 0
2, 125107, Note_on_c, 0, 77, 60
2, 125111, Note_on_c, 0, 61, 60
2, 125180, Note_on_c, 0, 61, 0
2, 125192, Note_on_c, 0, 77, 0
2, 125212, Note_on_c, 0, 73, 63
2, 125220, Note_on_c, 0, 70, 73
2, 125247, Note_on_c, 0, 70, 0
2, 125320, Note_on_c, 0, 73, 0
2, 125330, Note_on_c, 0, 75, 53
2, 125413, Note_on_c, 0, 75, 0
2, 125432, Note_on_c, 0, 67, 66
2, 125439, Note_on_c, 0, 72, 60
2, 125461, Note_on_c, 0, 67, 0
2, 125495, Note_on_c, 0, 72, 0
2, 125540, Note_on_c, 0, 75, 55
2, 125642, Note_on_c, 0, 61, 64
2, 125650, Note_on_c, 0, 75, 0
2, 125651, Note_on_c, 0, 70, 64
2, 125726, Note_on_c, 0, 70, 0
2, 125761, Note_on_c, 0, 75, 55
2, 125825, Note_on_c, 0, 61, 0
2, 125850, Note_on_c, 0, 75, 0
2, 125857, Note_on_c, 0, 60, 56
2, 125863, Note_on_c, 0, 68, 66
2, 125935, Note_on_c, 0, 68, 0
2, 125940, Note_on_c, 0, 60, 0
2, 125958, Note_on_c, 0, 58, 57
2, 125962, Note_on_c, 0, 67, 63
2, 126015, Note_on_c, 0, 67, 0
2, 126054, Note_on_c, 0, 58, 0
2, 126060, Note_on_c, 0, 68, 71
2, 126071, Note_on_c, 0, 60, 59
2, 126101, Control_c, 0, 67, 107
2, 126116, Control_c, 0, 67, 68
2, 126132, Control_c, 0, 67, 19
2, 126133, Note_on_c, 0, 68, 0
2, 126140, Note_on_c, 0, 60, 0
2, 126147, Control_c, 0, 67, 0
2, 126166, Note_on_c, 0, 56, 58
2, 126171, Note_on_c, 0, 72, 71
2, 126262, Note_on_c, 0, 72, 0
2, 126263, Note_on_c, 0, 56, 0
2, 126265, Note_on_c, 0, 58, 63
2, 126268, Note_on_c, 0, 73, 73
2, 126357, Note_on_c, 0, 58, 0
2, 126358, Note_on_c, 0, 60, 65
2, 126363, Note_on_c, 0, 75, 76
2, 126370, Note_on_c, 0, 73, 0
2, 126442, Note_on_c, 0, 75, 0
2, 126457, Note_on_c, 0, 60, 0
2, 126461, Note_on_c, 0, 61, 70
2, 126461, Note_on_c, 0, 77, 77
2, 126544, Note_on_c, 0, 61, 0
2, 126549, Note_on_c, 0, 78, 78
2, 126562, Note_on_c, 0, 77, 0
2, 126568, Note_on_c, 0, 63, 63
2, 126652, Note_on_c, 0, 63, 0
2, 126659, Note_on_c, 0, 80, 79
2, 126662, Note_on_c, 0, 78, 0
2, 126667, Note_on_c, 0, 65, 63
2, 126750, Note_on_c, 0, 80, 0
2, 126756, Note_on_c, 0, 82, 79
2, 126759, Note_on_c, 0, 65, 0
2, 126763, Note_on_c, 0, 63, 70
2, 126843, Note_on_c, 0, 82, 0
2, 126852, Note_on_c, 0, 63, 0
2, 126870, Note_on_c, 0, 66, 66
2, 126871, Note_on_c, 0, 72, 81
2, 126909, Note_on_c, 0, 72, 0
2, 126950, Note_on_c, 0, 66, 0
2, 126966, Note_on_c, 0, 65, 63
2, 127063, Note_on_c, 0, 63, 69
2, 127067, Note_on_c, 0, 65, 0
2, 127072, Note_on_c, 0, 68, 83
2, 127128, Note_on_c, 0, 68, 0
2, 127152, Note_on_c, 0, 61, 66
2, 127155, Note_on_c, 0, 63, 0
2, 127237, Note_on_c, 0, 61, 0
2, 127269, Note_on_c, 0, 66, 77
2, 127272, Note_on_c, 0, 70, 84
2, 127311, Note_on_c, 0, 66, 0
2, 127376, Note_on_c, 0, 68, 82
2, 127397, Note_on_c, 0, 70, 0
2, 127466, Note_on_c, 0, 68, 0
2, 127477, Note_on_c, 0, 66, 82
2, 127486, Note_on_c, 0, 58, 63
2, 127573, Note_on_c, 0, 68, 81
2, 127578, Note_on_c, 0, 58, 0
2, 127581, Note_on_c, 0, 60, 63
2, 127598, Note_on_c, 0, 66, 0
2, 127633, Note_on_c, 0, 68, 0
2, 127671, Note_on_c, 0, 60, 0
2, 127676, Note_on_c, 0, 61, 74
2, 127679, Note_on_c, 0, 77, 87
2, 127717, Note_on_c, 0, 77, 0
2, 127755, Note_on_c, 0, 61, 0
2, 127783, Note_on_c, 0, 60, 65
2, 127886, Note_on_c, 0, 60, 0
2, 127889, Note_on_c, 0, 73, 85
2, 127893, Note_on_c, 0, 58, 71
2, 127937, Note_on_c, 0, 73, 0
2, 127976, Note_on_c, 0, 58, 0
2, 127983, Note_on_c, 0, 56, 70
2, 128074, Note_on_c, 0, 56, 0
2, 128089, Note_on_c, 0, 58, 86
2, 128090, Note_on_c, 0, 68, 92
2, 128319, Note_on_c, 0, 66, 81
2, 128354, Note_on_c, 0, 68, 0
2, 128400, Note_on_c, 0, 66, 0
2, 128416, Note_on_c, 0, 65, 78
2, 128476, Note_on_c, 0, 65, 0
2, 128513, Note_on_c, 0, 66, 88
2, 128558, Note_on_c, 0, 66, 0
2, 128600, Note_on_c, 0, 58, 0
2, 128608, Note_on_c, 0, 56, 63
2, 128709, Note_on_c, 0, 56, 0
2, 128716, Note_on_c, 0, 54, 59
2, 128719, Note_on_c, 0, 75, 79
2, 128766, Note_on_c, 0, 75, 0
2, 128791, Note_on_c, 0, 54, 0
2, 128810, Note_on_c, 0, 58, 64
2, 128903, Note_on_c, 0, 58, 0
2, 128934, Note_on_c, 0, 56, 61
2, 128937, Note_on_c, 0, 65, 77
2, 128974, Note_on_c, 0, 65, 0
2, 129021, Note_on_c, 0, 56, 0
2, 129027, Note_on_c, 0, 54, 64
2, 129128, Note_on_c, 0, 54, 0
2, 129141, Note_on_c, 0, 53, 65
2, 129150, Note_on_c, 0, 73, 82
2, 129194, Note_on_c, 0, 73, 0
2, 129228, Note_on_c, 0, 53, 0
2, 129251, Note_on_c, 0, 56, 66
2, 129309, Note_on_c, 0, 56, 0
2, 129354, Note_on_c, 0, 63, 75
2, 129363, Note_on_c, 0, 54, 66
2, 129381, Note_on_c, 0, 63, 0
2, 129463, Note_on_c, 0, 53, 59
2, 129524, Note_on_c, 0, 54, 0
2, 129542, Note_on_c, 0, 54, 33
2, 129544, Note_on_c, 0, 53, 0
2, 129562, Note_on_c, 0, 72, 71
2, 129591, Note_on_c, 0, 72, 0
2, 129640, Note_on_c, 0, 54, 0
2, 129654, Note_on_c, 0, 51, 66
2, 129749, Note_on_c, 0, 51, 0
2, 129764, Note_on_c, 0, 53, 72
2, 129768, Note_on_c, 0, 61, 78
2, 129813, Note_on_c, 0, 61, 0
2, 129985, Note_on_c, 0, 73, 74
2, 130024, Note_on_c, 0, 73, 0
2, 130054, Note_on_c, 0, 53, 0
2, 130068, Note_on_c, 0, 56, 61
2, 130079, Note_on_c, 0, 72, 73
2, 130160, Note_on_c, 0, 56, 0
2, 130168, Note_on_c, 0, 73, 75
2, 130169, Note_on_c, 0, 58, 75
2, 130169, Note_on_c, 0, 72, 0
2, 130240, Note_on_c, 0, 58, 0
2, 130263, Note_on_c, 0, 75, 77
2, 130265, Note_on_c, 0, 60, 60
2, 130271, Note_on_c, 0, 73, 0
2, 130330, Note_on_c, 0, 75, 0
2, 130341, Note_on_c, 0, 60, 0
2, 130363, Note_on_c, 0, 61, 67
2, 130372, Note_on_c, 0, 77, 77
2, 130467, Note_on_c, 0, 63, 70
2, 130467, Note_on_c, 0, 78, 77
2, 130474, Note_on_c, 0, 77, 0
2, 130559, Note_on_c, 0, 63, 0
2, 130567, Note_on_c, 0, 65, 78
2, 130570, Note_on_c, 0, 80, 84
2, 130574, Note_on_c, 0, 78, 0
2, 130588, Note_on_c, 0, 61, 0
2, 130669, Note_on_c, 0, 63, 77
2, 130670, Note_on_c, 0, 65, 0
2, 130672, Note_on_c, 0, 78, 83
2, 130675, Note_on_c, 0, 80, 0
2, 130747, Note_on_c, 0, 78, 0
2, 130766, Note_on_c, 0, 63, 0
2, 130773, Note_on_c, 0, 61, 72
2, 130775, Note_on_c, 0, 77, 82
2, 130865, Note_on_c, 0, 63, 77
2, 130865, Note_on_c, 0, 78, 75
2, 130871, Note_on_c, 0, 61, 0
2, 130878, Note_on_c, 0, 77, 0
2, 130951, Note_on_c, 0, 63, 0
2, 130970, Note_on_c, 0, 60, 73
2, 130970, Note_on_c, 0, 78, 0
2, 130972, Note_on_c, 0, 80, 81
2, 130974, Note_on_c, 0, 72, 81
2, 130998, Note_on_c, 0, 72, 0
2, 131081, Note_on_c, 0, 78, 75
2, 131103, Note_on_c, 0, 80, 0
2, 131148, Note_on_c, 0, 78, 0
2, 131195, Note_on_c, 0, 77, 76
2, 131200, Note_on_c, 0, 68, 80
2, 131224, Note_on_c, 0, 68, 0
2, 131289, Note_on_c, 0, 75, 66
2, 131295, Note_on_c, 0, 77, 0
2, 131390, Note_on_c, 0, 75, 0
2, 131400, Note_on_c, 0, 63, 80
2, 131400, Note_on_c, 0, 77, 86
2, 131566, Note_on_c, 0, 63, 0
2, 131610, Note_on_c, 0, 60, 0
2, 131636, Note_on_c, 0, 61, 70
2, 131712, Note_on_c, 0, 61, 0
2, 131721, Note_on_c, 0, 60, 69
2, 131804, Note_on_c, 0, 60, 0
2, 131806, Note_on_c, 0, 58, 70
2, 131814, Note_on_c, 0, 61, 76
2, 131875, Note_on_c, 0, 61, 0
2, 131912, Note_on_c, 0, 77, 0
2, 131914, Note_on_c, 0, 75, 60
2, 132026, Note_on_c, 0, 75, 0
2, 132035, Note_on_c, 0, 70, 87
2, 132041, Note_on_c, 0, 73, 70
2, 132063, Note_on_c, 0, 70, 0
2, 132116, Note_on_c, 0, 73, 0
2, 132124, Note_on_c, 0, 77, 66
2, 132231, Note_on_c, 0, 58, 0
2, 132246, Note_on_c, 0, 60, 85
2, 132246, Note_on_c, 0, 77, 0
2, 132256, Note_on_c, 0, 75, 64
2, 132302, Note_on_c, 0, 60, 0
2, 132342, Note_on_c, 0, 75, 0
2, 132347, Note_on_c, 0, 73, 59
2, 132442, Note_on_c, 0, 73, 0
2, 132464, Note_on_c, 0, 68, 90
2, 132473, Note_on_c, 0, 72, 67
2, 132481, Note_on_c, 0, 56, 54
2, 132500, Note_on_c, 0, 68, 0
2, 132509, Note_on_c, 0, 56, 0
2, 132558, Note_on_c, 0, 72, 0
2, 132573, Note_on_c, 0, 75, 52
2, 132673, Note_on_c, 0, 75, 0
2, 132679, Note_on_c, 0, 58, 73
2, 132682, Note_on_c, 0, 73, 70
2, 132729, Note_on_c, 0, 58, 0
2, 132777, Note_on_c, 0, 72, 69
2, 132781, Note_on_c, 0, 73, 0
2, 132867, Note_on_c, 0, 72, 0
2, 132885, Note_on_c, 0, 51, 81
2, 132893, Note_on_c, 0, 73, 72
2, 132896, Note_on_c, 0, 67, 75
2, 132928, Note_on_c, 0, 51, 0
2, 132956, Note_on_c, 0, 73, 0
2, 132986, Note_on_c, 0, 70, 73
2, 132995, Note_on_c, 0, 67, 0
2, 133030, Note_on_c, 0, 70, 0
2, 133094, Note_on_c, 0, 70, 71
2, 133095, Note_on_c, 0, 56, 72
2, 133187, Note_on_c, 0, 72, 76
2, 133203, Note_on_c, 0, 70, 0
2, 133213, Note_on_c, 0, 72, 0
2, 133296, Note_on_c, 0, 68, 65
2, 133312, Note_on_c, 0, 75, 42
2, 133319, Note_on_c, 0, 74, 57
2, 133340, Note_on_c, 0, 74, 0
2, 133341, Note_on_c, 0, 75, 0
2, 133381, Note_on_c, 0, 68, 0
2, 133388, Note_on_c, 0, 66, 71
2, 133495, Note_on_c, 0, 56, 0
2, 133498, Note_on_c, 0, 68, 81
2, 133500, Note_on_c, 0, 78, 86
2, 133518, Note_on_c, 0, 66, 0
2, 133533, Note_on_c, 0, 68, 0
2, 133592, Note_on_c, 0, 70, 64
2, 133677, Note_on_c, 0, 70, 0
2, 133712, Note_on_c, 0, 72, 69
2, 133714, Note_on_c, 0, 56, 84
2, 133760, Note_on_c, 0, 56, 0
2, 133794, Note_on_c, 0, 72, 0
2, 133819, Note_on_c, 0, 68, 65
2, 133914, Note_on_c, 0, 68, 0
2, 133932, Note_on_c, 0, 58, 78
2, 133932, Note_on_c, 0, 73, 69
2, 133953, Note_on_c, 0, 78, 0
2, 134027, Note_on_c, 0, 56, 73
2, 134031, Note_on_c, 0, 58, 0
2, 134034, Note_on_c, 0, 72, 68
2, 134037, Note_on_c, 0, 73, 0
2, 134089, Note_on_c, 0, 56, 0
2, 134119, Note_on_c, 0, 72, 0
2, 134129, Note_on_c, 0, 54, 69
2, 134132, Note_on_c, 0, 70, 74
2, 134188, Note_on_c, 0, 70, 0
2, 134215, Note_on_c, 0, 56, 79
2, 134227, Note_on_c, 0, 54, 0
2, 134243, Note_on_c, 0, 72, 70
2, 134293, Note_on_c, 0, 72, 0
2, 134304, Note_on_c, 0, 56, 0
2, 134322, Note_on_c, 0, 65, 84
2, 134322, Note_on_c, 0, 77, 80
2, 134332, Note_on_c, 0, 73, 78
2, 134359, Note_on_c, 0, 65, 0
2, 134375, Note_on_c, 0, 73, 0
2, 134426, Note_on_c, 0, 72, 68
2, 134542, Note_on_c, 0, 72, 0
2, 134549, Note_on_c, 0, 61, 78
2, 134559, Note_on_c, 0, 70, 65
2, 134574, Note_on_c, 0, 61, 0
2, 134619, Note_on_c, 0, 70, 0
2, 134631, Note_on_c, 0, 68, 66
2, 134717, Note_on_c, 0, 68, 0
2, 134743, Note_on_c, 0, 56, 82
2, 134746, Note_on_c, 0, 70, 85
2, 134798, Note_on_c, 0, 77, 0
2, 134989, Note_on_c, 0, 54, 64
2, 134992, Note_on_c, 0, 56, 0
2, 135074, Note_on_c, 0, 54, 0
2, 135078, Note_on_c, 0, 53, 62
2, 135138, Note_on_c, 0, 70, 0
2, 135157, Note_on_c, 0, 54, 78
2, 135161, Note_on_c, 0, 53, 0
2, 135165, Note_on_c, 0, 75, 91
2, 135189, Note_on_c, 0, 54, 0
2, 135273, Note_on_c, 0, 68, 69
2, 135350, Note_on_c, 0, 68, 0
2, 135374, Note_on_c, 0, 66, 76
2, 135376, Note_on_c, 0, 63, 74
2, 135406, Note_on_c, 0, 63, 0
2, 135463, Note_on_c, 0, 66, 0
2, 135475, Note_on_c, 0, 70, 65
2, 135488, Note_on_c, 0, 75, 0
2, 135570, Note_on_c, 0, 53, 72
2, 135582, Note_on_c, 0, 68, 74
2, 135614, Note_on_c, 0, 53, 0
2, 135618, Note_on_c, 0, 70, 0
2, 135674, Note_on_c, 0, 68, 0
2, 135681, Note_on_c, 0, 66, 72
2, 135750, Note_on_c, 0, 66, 0
2, 135765, Note_on_c, 0, 61, 75
2, 135790, Note_on_c, 0, 73, 73
2, 135792, Note_on_c, 0, 65, 66
2, 135812, Note_on_c, 0, 61, 0
2, 135875, Note_on_c, 0, 68, 63
2, 135884, Note_on_c, 0, 65, 0
2, 135909, Note_on_c, 0, 68, 0
2, 135920, Note_on_c, 0, 73, 0
2, 135965, Note_on_c, 0, 51, 61
2, 135968, Note_on_c, 0, 72, 71
2, 135988, Note_on_c, 0, 66, 67
2, 136022, Note_on_c, 0, 51, 0
2, 136034, Note_on_c, 0, 72, 0
2, 136064, Note_on_c, 0, 66, 0
2, 136077, Note_on_c, 0, 65, 64
2, 136139, Note_on_c, 0, 65, 0
2, 136148, Note_on_c, 0, 60, 56
2, 136159, Control_c, 0, 67, 8
2, 136169, Note_on_c, 0, 60, 0
2, 136172, Note_on_c, 0, 75, 61
2, 136175, Control_c, 0, 67, 16
2, 136176, Note_on_c, 0, 66, 63
2, 136189, Control_c, 0, 67, 30
2, 136204, Control_c, 0, 67, 46
2, 136220, Control_c, 0, 67, 63
2, 136235, Control_c, 0, 67, 85
2, 136245, Note_on_c, 0, 66, 0
2, 136250, Control_c, 0, 67, 109
2, 136259, Note_on_c, 0, 63, 63
2, 136265, Control_c, 0, 67, 127
2, 136292, Note_on_c, 0, 63, 0
2, 136355, Note_on_c, 0, 49, 47
2, 136370, Note_on_c, 0, 65, 58
2, 136436, Note_on_c, 0, 49, 0
2, 136457, Note_on_c, 0, 44, 52
2, 136472, Note_on_c, 0, 75, 0
2, 136560, Note_on_c, 0, 44, 0
2, 136579, Note_on_c, 0, 49, 51
2, 136581, Note_on_c, 0, 68, 62
2, 136613, Note_on_c, 0, 68, 0
2, 136666, Note_on_c, 0, 49, 0
2, 136679, Note_on_c, 0, 51, 52
2, 136763, Note_on_c, 0, 51, 0
2, 136796, Note_on_c, 0, 73, 59
2, 136802, Note_on_c, 0, 53, 50
2, 136881, Note_on_c, 0, 53, 0
2, 136897, Note_on_c, 0, 54, 58
2, 136976, Note_on_c, 0, 54, 0
2, 136993, Note_on_c, 0, 56, 52
2, 137000, Note_on_c, 0, 71, 64
2, 137006, Note_on_c, 0, 65, 0
2, 137018, Note_on_c, 0, 73, 0
2, 137045, Note_on_c, 0, 56, 0
2, 137069, Note_on_c, 0, 71, 0
2, 137074, Note_on_c, 0, 53, 57
2, 137150, Note_on_c, 0, 53, 0
2, 137185, Note_on_c, 0, 54, 62
2, 137204, Note_on_c, 0, 70, 67
2, 137240, Note_on_c, 0, 54, 0
2, 137287, Note_on_c, 0, 42, 61
2, 137377, Note_on_c, 0, 42, 0
2, 137407, Note_on_c, 0, 54, 53
2, 137419, Note_on_c, 0, 61, 61
2, 137452, Note_on_c, 0, 54, 0
2, 137459, Note_on_c, 0, 61, 0
2, 137514, Note_on_c, 0, 53, 60
2, 137615, Note_on_c, 0, 53, 0
2, 137626, Note_on_c, 0, 54, 63
2, 137643, Note_on_c, 0, 66, 60
2, 137738, Note_on_c, 0, 56, 59
2, 137744, Note_on_c, 0, 54, 0
2, 137820, Note_on_c, 0, 56, 0
2, 137828, Note_on_c, 0, 66, 0
2, 137834, Note_on_c, 0, 65, 61
2, 137842, Note_on_c, 0, 58, 55
2, 137873, Note_on_c, 0, 65, 0
2, 137913, Note_on_c, 0, 58, 0
2, 137934, Note_on_c, 0, 54, 59
2, 138055, Note_on_c, 0, 66, 65
2, 138059, Note_on_c, 0, 54, 0
2, 138065, Note_on_c, 0, 51, 52
2, 138071, Note_on_c, 0, 70, 0
2, 138156, Note_on_c, 0, 51, 0
2, 138175, Note_on_c, 0, 53, 66
2, 138251, Note_on_c, 0, 53, 0
2, 138275, Note_on_c, 0, 54, 61
2, 138290, Note_on_c, 0, 70, 68
2, 138293, Note_on_c, 0, 66, 0
2, 138352, Note_on_c, 0, 54, 0
2, 138371, Note_on_c, 0, 51, 60
2, 138371, Note_on_c, 0, 66, 66
2, 138384, Note_on_c, 0, 70, 0
2, 138462, Note_on_c, 0, 51, 0
2, 138480, Note_on_c, 0, 66, 0
2, 138484, Note_on_c, 0, 48, 63
2, 138487, Note_on_c, 0, 63, 67
2, 138579, Note_on_c, 0, 48, 0
2, 138589, Note_on_c, 0, 49, 60
2, 138664, Note_on_c, 0, 63, 0
2, 138680, Note_on_c, 0, 51, 62
2, 138683, Note_on_c, 0, 66, 66
2, 138707, Note_on_c, 0, 49, 0
2, 138750, Note_on_c, 0, 51, 0
2, 138776, Note_on_c, 0, 63, 64
2, 138778, Note_on_c, 0, 66, 0
2, 138785, Note_on_c, 0, 48, 54
2, 138842, Note_on_c, 0, 48, 0
2, 138859, Note_on_c, 0, 63, 0
2, 138884, Note_on_c, 0, 56, 68
2, 138889, Note_on_c, 0, 41, 68
2, 138919, Note_on_c, 0, 41, 0
2, 139103, Note_on_c, 0, 63, 72
2, 139110, Note_on_c, 0, 53, 48
2, 139131, Note_on_c, 0, 63, 0
2, 139191, Note_on_c, 0, 53, 0
2, 139216, Note_on_c, 0, 51, 45
2, 139291, Note_on_c, 0, 51, 0
2, 139309, Note_on_c, 0, 56, 0
2, 139325, Note_on_c, 0, 68, 78
2, 139326, Note_on_c, 0, 53, 54
2, 139404, Note_on_c, 0, 53, 0
2, 139420, Note_on_c, 0, 54, 54
2, 139527, Note_on_c, 0, 54, 0
2, 139527, Note_on_c, 0, 56, 55
2, 139542, Note_on_c, 0, 60, 64
2, 139570, Note_on_c, 0, 60, 0
2, 139587, Note_on_c, 0, 56, 0
2, 139645, Note_on_c, 0, 53, 46
2, 139731, Note_on_c, 0, 53, 0
2, 139734, Note_on_c, 0, 68, 0
2, 139755, Note_on_c, 0, 50, 55
2, 139756, Note_on_c, 0, 65, 69
2, 139847, Note_on_c, 0, 50, 0
2, 139865, Note_on_c, 0, 51, 55
2, 139946, Note_on_c, 0, 51, 0
2, 139969, Note_on_c, 0, 53, 51
2, 139977, Note_on_c, 0, 65, 0
2, 139979, Note_on_c, 0, 68, 69
2, 140030, Note_on_c, 0, 53, 0
2, 140062, Note_on_c, 0, 50, 54
2, 140067, Note_on_c, 0, 65, 65
2, 140081, Note_on_c, 0, 68, 0
2, 140152, Note_on_c, 0, 65, 0
2, 140160, Note_on_c, 0, 50, 0
2, 140177, Note_on_c, 0, 46, 69
2, 140181, Note_on_c, 0, 62, 67
2, 140272, Note_on_c, 0, 46, 0
2, 140278, Note_on_c, 0, 48, 57
2, 140340, Note_on_c, 0, 48, 0
2, 140366, Note_on_c, 0, 62, 0
2, 140371, Note_on_c, 0, 50, 61
2, 140395, Note_on_c, 0, 65, 57
2, 140462, Note_on_c, 0, 50, 0
2, 140473, Note_on_c, 0, 65, 0
2, 140477, Note_on_c, 0, 46, 67
2, 140483, Note_on_c, 0, 62, 70
2, 140540, Note_on_c, 0, 62, 0
2, 140554, Note_on_c, 0, 46, 0
2, 140577, Note_on_c, 0, 39, 67
2, 140587, Note_on_c, 0, 54, 74
2, 140615, Note_on_c, 0, 39, 0
2, 140752, Control_c, 0, 67, 118
2, 140767, Control_c, 0, 67, 85
2, 140783, Control_c, 0, 67, 41
2, 140792, Note_on_c, 0, 58, 71
2, 140798, Control_c, 0, 67, 0
2, 140804, Note_on_c, 0, 51, 46
2, 140824, Note_on_c, 0, 58, 0
2, 140899, Note_on_c, 0, 51, 0
2, 140902, Note_on_c, 0, 50, 58
2, 140990, Note_on_c, 0, 50, 0
2, 140995, Note_on_c, 0, 54, 0
2, 141002, Note_on_c, 0, 66, 79
2, 141011, Note_on_c, 0, 51, 65
2, 141088, Note_on_c, 0, 51, 0
2, 141102, Note_on_c, 0, 53, 66
2, 141207, Note_on_c, 0, 53, 0
2, 141223, Note_on_c, 0, 54, 64
2, 141226, Note_on_c, 0, 58, 76
2, 141259, Note_on_c, 0, 58, 0
2, 141264, Note_on_c, 0, 54, 0
2, 141312, Note_on_c, 0, 51, 51
2, 141389, Note_on_c, 0, 51, 0
2, 141420, Note_on_c, 0, 48, 60
2, 141431, Note_on_c, 0, 63, 78
2, 141453, Note_on_c, 0, 66, 0
2, 141510, Note_on_c, 0, 48, 0
2, 141526, Note_on_c, 0, 49, 54
2, 141529, Note_on_c, 0, 65, 74
2, 141560, Note_on_c, 0, 63, 0
2, 141613, Note_on_c, 0, 49, 0
2, 141621, Note_on_c, 0, 51, 67
2, 141637, Note_on_c, 0, 66, 80
2, 141650, Note_on_c, 0, 65, 0
2, 141690, Note_on_c, 0, 66, 0
2, 141691, Note_on_c, 0, 51, 0
2, 141724, Note_on_c, 0, 63, 83
2, 141727, Note_on_c, 0, 48, 64
2, 141807, Note_on_c, 0, 63, 0
2, 141819, Note_on_c, 0, 48, 0
2, 141834, Note_on_c, 0, 44, 65
2, 141843, Note_on_c, 0, 75, 91
2, 141942, Note_on_c, 0, 44, 0
2, 141946, Note_on_c, 0, 66, 81
2, 141949, Note_on_c, 0, 46, 71
2, 142003, Note_on_c, 0, 46, 0
2, 142045, Note_on_c, 0, 48, 53
2, 142046, Note_on_c, 0, 68, 81
2, 142061, Note_on_c, 0, 66, 0
2, 142108, Note_on_c, 0, 48, 0
2, 142126, Note_on_c, 0, 44, 61
2, 142134, Note_on_c, 0, 68, 0
2, 142139, Note_on_c, 0, 63, 82
2, 142185, Note_on_c, 0, 63, 0
2, 142193, Note_on_c, 0, 75, 0
2, 142206, Note_on_c, 0, 44, 0
2, 142239, Note_on_c, 0, 37, 74
2, 142244, Note_on_c, 0, 65, 90
2, 142283, Note_on_c, 0, 37, 0
2, 142289, Control_c, 0, 64, 71
2, 142304, Control_c, 0, 64, 83
2, 142319, Control_c, 0, 64, 97
2, 142335, Control_c, 0, 64, 105
2, 142350, Control_c, 0, 64, 107
2, 142352, Note_on_c, 0, 73, 72
2, 142365, Control_c, 0, 64, 109
2, 142380, Control_c, 0, 64, 110
2, 142395, Control_c, 0, 64, 111
2, 142407, Note_on_c, 0, 65, 0
2, 142441, Control_c, 0, 64, 108
2, 142443, Note_on_c, 0, 49, 77
2, 142443, Note_on_c, 0, 73, 0
2, 142448, Note_on_c, 0, 72, 79
2, 142457, Control_c, 0, 64, 95
2, 142471, Control_c, 0, 64, 77
2, 142486, Control_c, 0, 64, 0
2, 142533, Note_on_c, 0, 49, 0
2, 142533, Note_on_c, 0, 51, 76
2, 142542, Note_on_c, 0, 72, 0
2, 142546, Note_on_c, 0, 75, 78
2, 142622, Note_on_c, 0, 51, 0
2, 142635, Note_on_c, 0, 53, 80
2, 142641, Note_on_c, 0, 73, 82
2, 142675, Note_on_c, 0, 75, 0
2, 142681, Note_on_c, 0, 53, 0
2, 142741, Note_on_c, 0, 73, 0
2, 142744, Note_on_c, 0, 68, 75
2, 142851, Note_on_c, 0, 61, 86
2, 142855, Note_on_c, 0, 70, 77
2, 142862, Note_on_c, 0, 68, 0
2, 142867, Note_on_c, 0, 49, 62
2, 142890, Note_on_c, 0, 49, 0
2, 142949, Note_on_c, 0, 71, 74
2, 143005, Note_on_c, 0, 70, 0
2, 143046, Note_on_c, 0, 54, 88
2, 143049, Note_on_c, 0, 70, 74
2, 143058, Note_on_c, 0, 61, 0
2, 143077, Note_on_c, 0, 71, 0
2, 143153, Note_on_c, 0, 60, 72
2, 143155, Note_on_c, 0, 68, 91
2, 143177, Note_on_c, 0, 70, 0
2, 143231, Note_on_c, 0, 54, 0
2, 143254, Note_on_c, 0, 60, 0
2, 143254, Note_on_c, 0, 66, 91
2, 143254, Note_on_c, 0, 68, 0
2, 143257, Note_on_c, 0, 58, 68
2, 143344, Note_on_c, 0, 58, 0
2, 143345, Note_on_c, 0, 60, 66
2, 143351, Note_on_c, 0, 68, 84
2, 143360, Note_on_c, 0, 66, 0
2, 143440, Note_on_c, 0, 60, 0
2, 143446, Note_on_c, 0, 77, 88
2, 143453, Note_on_c, 0, 61, 81
2, 143465, Note_on_c, 0, 53, 68
2, 143466, Note_on_c, 0, 68, 0
2, 143507, Note_on_c, 0, 77, 0
2, 143552, Note_on_c, 0, 61, 0
2, 143567, Note_on_c, 0, 60, 69
2, 143626, Note_on_c, 0, 53, 0
2, 143657, Note_on_c, 0, 73, 86
2, 143658, Note_on_c, 0, 58, 63
2, 143675, Note_on_c, 0, 60, 0
2, 143708, Note_on_c, 0, 73, 0
2, 143725, Note_on_c, 0, 56, 67
2, 143784, Note_on_c, 0, 58, 0
2, 143831, Note_on_c, 0, 56, 0
2, 143859, Note_on_c, 0, 58, 74
2, 143863, Note_on_c, 0, 51, 54
2, 143870, Note_on_c, 0, 68, 92
2, 143905, Note_on_c, 0, 51, 0
2, 144074, Note_on_c, 0, 49, 64
2, 144078, Note_on_c, 0, 66, 83
2, 144115, Note_on_c, 0, 68, 0
2, 144146, Note_on_c, 0, 49, 0
2, 144156, Note_on_c, 0, 66, 0
2, 144164, Note_on_c, 0, 65, 76
2, 144249, Note_on_c, 0, 58, 0
2, 144277, Note_on_c, 0, 65, 0
2, 144279, Note_on_c, 0, 66, 86
2, 144289, Note_on_c, 0, 48, 73
2, 144325, Note_on_c, 0, 66, 0
2, 144380, Note_on_c, 0, 56, 63
2, 144482, Note_on_c, 0, 48, 0
2, 144482, Note_on_c, 0, 75, 85
2, 144489, Note_on_c, 0, 54, 69
2, 144504, Note_on_c, 0, 56, 0
2, 144530, Note_on_c, 0, 75, 0
2, 144561, Note_on_c, 0, 54, 0
2, 144567, Note_on_c, 0, 58, 69
2, 144646, Note_on_c, 0, 58, 0
2, 144681, Note_on_c, 0, 56, 73
2, 144683, Note_on_c, 0, 49, 68
2, 144689, Note_on_c, 0, 65, 76
2, 144728, Note_on_c, 0, 65, 0
2, 144766, Note_on_c, 0, 49, 0
2, 144772, Note_on_c, 0, 54, 64
2, 144778, Note_on_c, 0, 56, 0
2, 144880, Note_on_c, 0, 53, 65
2, 144886, Note_on_c, 0, 54, 0
2, 144889, Note_on_c, 0, 73, 81
2, 144940, Note_on_c, 0, 73, 0
2, 144956, Note_on_c, 0, 53, 0
2, 144993, Note_on_c, 0, 56, 61
2, 145047, Note_on_c, 0, 56, 0
2, 145097, Note_on_c, 0, 54, 70
2, 145101, Note_on_c, 0, 63, 84
2, 145128, Note_on_c, 0, 44, 62
2, 145143, Note_on_c, 0, 63, 0
2, 145174, Note_on_c, 0, 54, 0
2, 145207, Note_on_c, 0, 53, 64
2, 145216, Note_on_c, 0, 44, 0
2, 145297, Note_on_c, 0, 53, 0
2, 145298, Note_on_c, 0, 51, 72
2, 145300, Note_on_c, 0, 72, 75
2, 145342, Note_on_c, 0, 72, 0
2, 145390, Note_on_c, 0, 51, 0
2, 145394, Note_on_c, 0, 54, 76
2, 145492, Note_on_c, 0, 54, 0
2, 145501, Note_on_c, 0, 61, 75
2, 145504, Note_on_c, 0, 53, 75
2, 145506, Note_on_c, 0, 46, 65
2, 145538, Note_on_c, 0, 46, 0
2, 145577, Note_on_c, 0, 61, 0
2, 145602, Note_on_c, 0, 65, 75
2, 145607, Note_on_c, 0, 53, 0
2, 145657, Note_on_c, 0, 55, 30
2, 145689, Note_on_c, 0, 55, 0
2, 145697, Note_on_c, 0, 66, 75
2, 145699, Note_on_c, 0, 65, 0
2, 145706, Note_on_c, 0, 58, 77
2, 145795, Note_on_c, 0, 68, 78
2, 145800, Note_on_c, 0, 58, 0
2, 145801, Note_on_c, 0, 66, 0
2, 145821, Note_on_c, 0, 60, 69
2, 145904, Note_on_c, 0, 68, 0
2, 145904, Note_on_c, 0, 70, 79
2, 145907, Note_on_c, 0, 60, 0
2, 145915, Note_on_c, 0, 61, 75
2, 145963, Note_on_c, 0, 70, 0
2, 145981, Note_on_c, 0, 61, 0
2, 146004, Note_on_c, 0, 72, 77
2, 146023, Note_on_c, 0, 60, 69
2, 146073, Note_on_c, 0, 60, 0
2, 146098, Note_on_c, 0, 73, 76
2, 146099, Note_on_c, 0, 72, 0
2, 146143, Note_on_c, 0, 59, 43
2, 146194, Note_on_c, 0, 59, 0
2, 146194, Note_on_c, 0, 75, 76
2, 146199, Note_on_c, 0, 73, 0
2, 146206, Note_on_c, 0, 56, 63
2, 146259, Note_on_c, 0, 56, 0
2, 146262, Note_on_c, 0, 75, 0
2, 146291, Note_on_c, 0, 76, 78
2, 146310, Note_on_c, 0, 55, 65
2, 146393, Note_on_c, 0, 75, 77
2, 146405, Note_on_c, 0, 55, 0
2, 146405, Note_on_c, 0, 56, 69
2, 146409, Note_on_c, 0, 76, 0
2, 146484, Note_on_c, 0, 75, 0
2, 146489, Note_on_c, 0, 73, 76
2, 146491, Note_on_c, 0, 56, 0
2, 146544, Note_on_c, 0, 58, 45
2, 146574, Note_on_c, 0, 58, 0
2, 146594, Note_on_c, 0, 75, 73
2, 146614, Note_on_c, 0, 73, 0
2, 146620, Note_on_c, 0, 55, 65
2, 146669, Note_on_c, 0, 75, 0
2, 146694, Note_on_c, 0, 76, 76
2, 146711, Note_on_c, 0, 55, 0
2, 146723, Note_on_c, 0, 51, 67
2, 146791, Note_on_c, 0, 79, 71
2, 146798, Note_on_c, 0, 76, 0
2, 146803, Note_on_c, 0, 49, 67
2, 146883, Note_on_c, 0, 79, 0
2, 146884, Note_on_c, 0, 80, 79
2, 146895, Control_c, 0, 64, 64
2, 146898, Note_on_c, 0, 48, 60
2, 146909, Control_c, 0, 64, 71
2, 146924, Control_c, 0, 64, 80
2, 146936, Note_on_c, 0, 51, 0
2, 146940, Control_c, 0, 64, 88
2, 146955, Control_c, 0, 64, 91
2, 146964, Note_on_c, 0, 49, 0
2, 146970, Control_c, 0, 64, 93
2, 146974, Note_on_c, 0, 80, 0
2, 146974, Note_on_c, 0, 82, 78
2, 146975, Note_on_c, 0, 46, 71
2, 146975, Note_on_c, 0, 48, 0
2, 146986, Control_c, 0, 64, 96
2, 147001, Control_c, 0, 64, 100
2, 147004, Note_on_c, 0, 46, 0
2, 147017, Control_c, 0, 64, 104
2, 147032, Control_c, 0, 64, 108
2, 147047, Control_c, 0, 64, 110
2, 147062, Control_c, 0, 64, 111
2, 147077, Control_c, 0, 64, 110
2, 147078, Note_on_c, 0, 44, 81
2, 147081, Note_on_c, 0, 73, 81
2, 147093, Control_c, 0, 64, 100
2, 147105, Note_on_c, 0, 82, 0
2, 147108, Control_c, 0, 64, 82
2, 147123, Control_c, 0, 64, 59
2, 147139, Control_c, 0, 64, 0
2, 147168, Note_on_c, 0, 73, 0
2, 147173, Note_on_c, 0, 51, 69
2, 147176, Note_on_c, 0, 72, 77
2, 147182, Note_on_c, 0, 44, 0
2, 147237, Note_on_c, 0, 51, 0
2, 147270, Note_on_c, 0, 53, 68
2, 147280, Note_on_c, 0, 70, 76
2, 147283, Note_on_c, 0, 72, 0
2, 147335, Note_on_c, 0, 53, 0
2, 147373, Note_on_c, 0, 54, 69
2, 147376, Note_on_c, 0, 68, 73
2, 147393, Note_on_c, 0, 70, 0
2, 147454, Note_on_c, 0, 68, 0
2, 147470, Note_on_c, 0, 54, 0
2, 147471, Note_on_c, 0, 56, 72
2, 147476, Note_on_c, 0, 75, 78
2, 147531, Note_on_c, 0, 75, 0
2, 147573, Note_on_c, 0, 56, 0
2, 147573, Note_on_c, 0, 58, 74
2, 147662, Note_on_c, 0, 58, 0
2, 147672, Note_on_c, 0, 60, 66
2, 147675, Note_on_c, 0, 66, 81
2, 147725, Note_on_c, 0, 66, 0
2, 147753, Note_on_c, 0, 60, 0
2, 147762, Note_on_c, 0, 56, 79
2, 147816, Note_on_c, 0, 56, 0
2, 147871, Note_on_c, 0, 65, 82
2, 147883, Note_on_c, 0, 61, 84
2, 147941, Note_on_c, 0, 65, 0
2, 148115, Note_on_c, 0, 73, 82
2, 148119, Note_on_c, 0, 41, 79
2, 148124, Note_on_c, 0, 68, 70
2, 148148, Note_on_c, 0, 61, 0
2, 148152, Note_on_c, 0, 68, 0
2, 148166, Note_on_c, 0, 41, 0
2, 148185, Note_on_c, 0, 73, 0
2, 148360, Note_on_c, 0, 42, 83
2, 148363, Note_on_c, 0, 63, 91
2, 148380, Note_on_c, 0, 70, 60
2, 148411, Note_on_c, 0, 70, 0
2, 148418, Note_on_c, 0, 42, 0
2, 148660, Note_on_c, 0, 44, 85
2, 148666, Note_on_c, 0, 72, 84
2, 148667, Note_on_c, 0, 68, 85
2, 148669, Note_on_c, 0, 66, 84
2, 148697, Note_on_c, 0, 63, 0
2, 148723, Note_on_c, 0, 44, 0
2, 148735, Note_on_c, 0, 72, 0
2, 148736, Note_on_c, 0, 66, 0
2, 148748, Note_on_c, 0, 68, 0
2, 149093, Note_on_c, 0, 37, 72
2, 149100, Note_on_c, 0, 61, 86
2, 149100, Note_on_c, 0, 68, 87
2, 149102, Note_on_c, 0, 73, 81
2, 149106, Note_on_c, 0, 65, 82
2, 150272, Note_on_c, 0, 61, 0
2, 150278, Note_on_c, 0, 65, 0
2, 150280, Note_on_c, 0, 73, 0
2, 150288, Note_on_c, 0, 37, 0
2, 150289, Note_on_c, 0, 68, 0
2, 150290, End_track
0, 0, End_of_file
