0, 0, Header, 1, 2, 384
1, 0, Start_track
1, 0, Tempo, 500000
1, 0, Time_signature, 4, 2, 24, 8
1, 1, End_track
2,0,Start_track
2,0, Note_on_c, 0, 68, 78
2,36, Note_on_c, 0, 68, 0
2,245, Note_on_c, 0, 70, 75
2,348, Note_on_c, 0, 70, 0
2,349, Note_on_c, 0, 68, 77
2,432, Note_on_c, 0, 68, 0
2,452, Note_on_c, 0, 66, 78
2,548, Note_on_c, 0, 68, 73
2,551, Note_on_c, 0, 66, 0
2,647, Note_on_c, 0, 77, 83
2,653, Note_on_c, 0, 68, 0
2,684, Note_on_c, 0, 77, 0
2,889, Note_on_c, 0, 73, 83
2,927, Note_on_c, 0, 73, 0
2,1131, Note_on_c, 0, 68, 88
2,1368, Note_on_c, 0, 66, 77
2,1396, Note_on_c, 0, 68, 0
2,1435, Note_on_c, 0, 66, 0
2,1453, Note_on_c, 0, 65, 74
2,1516, Note_on_c, 0, 65, 0
2,1551, Note_on_c, 0, 66, 87
2,1585, Note_on_c, 0, 66, 0
2,1782, Note_on_c, 0, 75, 78
2,1816, Note_on_c, 0, 75, 0
2,2017, Note_on_c, 0, 65, 79
2,2045, Note_on_c, 0, 65, 0
2,2246, Note_on_c, 0, 73, 78
2,2287, Note_on_c, 0, 73, 0
2,2478, Note_on_c, 0, 63, 76
2,2504, Note_on_c, 0, 63, 0
2,2706, Note_on_c, 0, 72, 72
2,2749, Note_on_c, 0, 72, 0
2,2928, Note_on_c, 0, 61, 77
2,2960, Note_on_c, 0, 61, 0
2,3158, Note_on_c, 0, 73, 60
2,3231, Note_on_c, 0, 73, 0
2,3245, Note_on_c, 0, 72, 63
2,3357, Note_on_c, 0, 73, 65
2,3373, Note_on_c, 0, 72, 0
2,3454, Note_on_c, 0, 75, 59
2,3455, Note_on_c, 0, 73, 0
2,3504, Note_on_c, 0, 75, 0
2,3557, Note_on_c, 0, 61, 72
2,3572, Note_on_c, 0, 77, 62
2,3599, Note_on_c, 0, 61, 0
2,3657, Note_on_c, 0, 77, 0
2,3663, Note_on_c, 0, 78, 52
2,3745, Note_on_c, 0, 78, 0
2,3763, Note_on_c, 0, 80, 59
2,3767, Note_on_c, 0, 65, 72
2,3862, Note_on_c, 0, 80, 0
2,3863, Note_on_c, 0, 65, 0
2,3868, Note_on_c, 0, 63, 70
2,3868, Note_on_c, 0, 79, 60
2,3942, Note_on_c, 0, 79, 0
2,3962, Note_on_c, 0, 63, 0
2,3969, Note_on_c, 0, 61, 67
2,3977, Note_on_c, 0, 77, 65
2,4057, Note_on_c, 0, 77, 0
2,4068, Note_on_c, 0, 63, 77
2,4069, Note_on_c, 0, 61, 0
2,4080, Note_on_c, 0, 79, 51
2,4121, Note_on_c, 0, 79, 0
2,4145, Note_on_c, 0, 63, 0
2,4161, Note_on_c, 0, 80, 63
2,4178, Note_on_c, 0, 72, 79
2,4206, Note_on_c, 0, 72, 0
2,4282, Note_on_c, 0, 78, 54
2,4284, Note_on_c, 0, 80, 0
2,4347, Note_on_c, 0, 78, 0
2,4397, Note_on_c, 0, 77, 59
2,4398, Note_on_c, 0, 68, 80
2,4420, Note_on_c, 0, 68, 0
2,4484, Note_on_c, 0, 77, 0
2,4485, Note_on_c, 0, 75, 59
2,4606, Note_on_c, 0, 75, 0
2,4610, Note_on_c, 0, 77, 74
2,4616, Note_on_c, 0, 63, 78
2,4836, Note_on_c, 0, 63, 0
2,4845, Note_on_c, 0, 61, 67
2,4930, Note_on_c, 0, 61, 0
2,4943, Note_on_c, 0, 60, 70
2,5038, Note_on_c, 0, 60, 0
2,5041, Note_on_c, 0, 61, 78
2,5078, Note_on_c, 0, 61, 0
2,5140, Note_on_c, 0, 77, 0
2,5151, Note_on_c, 0, 75, 51
2,5252, Note_on_c, 0, 75, 0
2,5264, Note_on_c, 0, 70, 78
2,5277, Note_on_c, 0, 73, 56
2,5289, Note_on_c, 0, 70, 0
2,5338, Note_on_c, 0, 73, 0
2,5366, Note_on_c, 0, 77, 54
2,5469, Note_on_c, 0, 77, 0
2,5474, Note_on_c, 0, 60, 73
2,5490, Note_on_c, 0, 75, 49
2,5525, Note_on_c, 0, 60, 0
2,5553, Note_on_c, 0, 75, 0
2,5564, Note_on_c, 0, 73, 51
2,5644, Note_on_c, 0, 73, 0
2,5693, Note_on_c, 0, 68, 76
2,5713, Note_on_c, 0, 72, 50
2,5738, Note_on_c, 0, 68, 0
2,5791, Note_on_c, 0, 72, 0
2,5819, Note_on_c, 0, 75, 46
2,5913, Note_on_c, 0, 58, 70
2,5931, Note_on_c, 0, 73, 49
2,5953, Note_on_c, 0, 58, 0
2,5964, Note_on_c, 0, 75, 0
2,6003, Note_on_c, 0, 73, 0
2,6023, Note_on_c, 0, 72, 52
2,6107, Note_on_c, 0, 72, 0
2,6130, Note_on_c, 0, 67, 72
2,6132, Note_on_c, 0, 73, 60
2,6169, Note_on_c, 0, 67, 0
2,6225, Note_on_c, 0, 73, 0
2,6234, Note_on_c, 0, 70, 54
2,6272, Note_on_c, 0, 70, 0
2,6328, Note_on_c, 0, 56, 70
2,6352, Note_on_c, 0, 70, 66
2,6371, Note_on_c, 0, 56, 0
2,6438, Note_on_c, 0, 72, 66
2,6447, Note_on_c, 0, 70, 0
2,6474, Note_on_c, 0, 72, 0
2,6560, Note_on_c, 0, 68, 64
2,6625, Note_on_c, 0, 68, 0
2,6642, Note_on_c, 0, 67, 66
2,6736, Note_on_c, 0, 67, 0
2,6737, Note_on_c, 0, 68, 78
2,6753, Note_on_c, 0, 78, 82
2,6774, Note_on_c, 0, 68, 0
2,6859, Note_on_c, 0, 70, 64
2,6952, Note_on_c, 0, 56, 77
2,6955, Note_on_c, 0, 70, 0
2,6962, Note_on_c, 0, 72, 69
2,6990, Note_on_c, 0, 56, 0
2,7046, Note_on_c, 0, 72, 0
2,7063, Note_on_c, 0, 68, 67
2,7154, Note_on_c, 0, 68, 0
2,7169, Note_on_c, 0, 58, 71
2,7175, Note_on_c, 0, 73, 66
2,7231, Note_on_c, 0, 78, 0
2,7278, Note_on_c, 0, 58, 0
2,7279, Note_on_c, 0, 56, 69
2,7279, Note_on_c, 0, 72, 69
2,7284, Note_on_c, 0, 73, 0
2,7364, Note_on_c, 0, 72, 0
2,7367, Note_on_c, 0, 56, 0
2,7374, Note_on_c, 0, 54, 65
2,7376, Note_on_c, 0, 70, 73
2,7448, Note_on_c, 0, 70, 0
2,7462, Note_on_c, 0, 54, 0
2,7463, Note_on_c, 0, 56, 76
2,7476, Note_on_c, 0, 72, 66
2,7547, Note_on_c, 0, 56, 0
2,7566, Note_on_c, 0, 65, 80
2,7574, Note_on_c, 0, 73, 75
2,7577, Note_on_c, 0, 77, 75
2,7596, Note_on_c, 0, 72, 0
2,7599, Note_on_c, 0, 65, 0
2,7643, Note_on_c, 0, 73, 0
2,7678, Note_on_c, 0, 72, 53
2,7782, Note_on_c, 0, 72, 0
2,7793, Note_on_c, 0, 70, 66
2,7815, Note_on_c, 0, 61, 67
2,7843, Note_on_c, 0, 61, 0
2,7870, Note_on_c, 0, 70, 0
2,7881, Note_on_c, 0, 68, 66
2,7956, Note_on_c, 0, 68, 0
2,7992, Note_on_c, 0, 70, 78
2,7997, Note_on_c, 0, 56, 81
2,8060, Note_on_c, 0, 77, 0
2,8243, Note_on_c, 0, 56, 0
2,8247, Note_on_c, 0, 54, 66
2,8331, Note_on_c, 0, 53, 69
2,8331, Note_on_c, 0, 54, 0
2,8407, Note_on_c, 0, 70, 0
2,8423, Note_on_c, 0, 54, 74
2,8426, Note_on_c, 0, 53, 0
2,8427, Note_on_c, 0, 75, 88
2,8465, Note_on_c, 0, 54, 0
2,8542, Note_on_c, 0, 68, 70
2,8616, Note_on_c, 0, 68, 0
2,8644, Note_on_c, 0, 66, 71
2,8649, Note_on_c, 0, 63, 72
2,8678, Note_on_c, 0, 63, 0
2,8735, Note_on_c, 0, 66, 0
2,8746, Note_on_c, 0, 70, 63
2,8758, Note_on_c, 0, 75, 0
2,8855, Note_on_c, 0, 53, 70
2,8863, Note_on_c, 0, 68, 71
2,8891, Note_on_c, 0, 70, 0
2,8897, Note_on_c, 0, 53, 0
2,8943, Note_on_c, 0, 68, 0
2,8964, Note_on_c, 0, 66, 66
2,9035, Note_on_c, 0, 66, 0
2,9055, Note_on_c, 0, 61, 68
2,9069, Note_on_c, 0, 73, 68
2,9071, Note_on_c, 0, 65, 57
2,9089, Note_on_c, 0, 61, 0
2,9149, Note_on_c, 0, 73, 0
2,9157, Note_on_c, 0, 68, 57
2,9169, Note_on_c, 0, 65, 0
2,9194, Note_on_c, 0, 68, 0
2,9255, Note_on_c, 0, 51, 55
2,9261, Note_on_c, 0, 72, 66
2,9272, Note_on_c, 0, 66, 74
2,9299, Note_on_c, 0, 51, 0
2,9310, Note_on_c, 0, 72, 0
2,9340, Note_on_c, 0, 66, 0
2,9365, Note_on_c, 0, 65, 61
2,9416, Note_on_c, 0, 65, 0
2,9454, Note_on_c, 0, 60, 56
2,9455, Note_on_c, 0, 66, 73
2,9456, Note_on_c, 0, 75, 63
2,9484, Note_on_c, 0, 60, 0
2,9512, Note_on_c, 0, 66, 0
2,9549, Note_on_c, 0, 63, 74
2,9592, Note_on_c, 0, 63, 0
2,9648, Note_on_c, 0, 49, 61
2,9662, Note_on_c, 0, 65, 74
2,9692, Note_on_c, 0, 49, 0
2,9734, Note_on_c, 0, 75, 0
2,9876, Note_on_c, 0, 61, 66
2,9888, Note_on_c, 0, 68, 76
2,9919, Note_on_c, 0, 68, 0
2,9953, Note_on_c, 0, 61, 0
2,9966, Note_on_c, 0, 60, 63
2,10058, Note_on_c, 0, 65, 0
2,10072, Note_on_c, 0, 77, 94
2,10073, Note_on_c, 0, 61, 73
2,10075, Note_on_c, 0, 60, 0
2,10174, Note_on_c, 0, 61, 0
2,10191, Note_on_c, 0, 63, 65
2,10263, Note_on_c, 0, 63, 0
2,10284, Note_on_c, 0, 68, 80
2,10285, Note_on_c, 0, 65, 61
2,10325, Note_on_c, 0, 68, 0
2,10364, Note_on_c, 0, 65, 0
2,10384, Note_on_c, 0, 61, 58
2,10488, Note_on_c, 0, 61, 0
2,10502, Note_on_c, 0, 58, 61
2,10505, Note_on_c, 0, 73, 84
2,10523, Note_on_c, 0, 77, 0
2,10595, Note_on_c, 0, 58, 0
2,10605, Note_on_c, 0, 60, 70
2,10689, Note_on_c, 0, 60, 0
2,10714, Note_on_c, 0, 73, 0
2,10717, Note_on_c, 0, 61, 69
2,10720, Note_on_c, 0, 77, 74
2,10771, Note_on_c, 0, 61, 0
2,10806, Note_on_c, 0, 58, 59
2,10813, Note_on_c, 0, 73, 75
2,10813, Note_on_c, 0, 77, 0
2,10896, Note_on_c, 0, 58, 0
2,10916, Note_on_c, 0, 73, 0
2,10918, Note_on_c, 0, 55, 63
2,10921, Note_on_c, 0, 70, 71
2,11003, Note_on_c, 0, 55, 0
2,11015, Note_on_c, 0, 56, 66
2,11123, Note_on_c, 0, 70, 0
2,11126, Note_on_c, 0, 58, 63
2,11141, Note_on_c, 0, 73, 68
2,11151, Note_on_c, 0, 56, 0
2,11194, Note_on_c, 0, 58, 0
2,11226, Note_on_c, 0, 55, 58
2,11237, Note_on_c, 0, 70, 67
2,11245, Note_on_c, 0, 73, 0
2,11282, Note_on_c, 0, 55, 0
2,11292, Note_on_c, 0, 70, 0
2,11325, Note_on_c, 0, 63, 73
2,11329, Note_on_c, 0, 48, 66
2,11359, Note_on_c, 0, 48, 0
2,11560, Note_on_c, 0, 60, 49
2,11561, Note_on_c, 0, 70, 67
2,11590, Note_on_c, 0, 70, 0
2,11619, Note_on_c, 0, 60, 0
2,11649, Note_on_c, 0, 58, 47
2,11732, Note_on_c, 0, 58, 0
2,11755, Note_on_c, 0, 63, 0
2,11756, Note_on_c, 0, 60, 46
2,11772, Note_on_c, 0, 75, 78
2,11855, Note_on_c, 0, 60, 0
2,11867, Note_on_c, 0, 61, 44
2,11968, Note_on_c, 0, 61, 0
2,11972, Note_on_c, 0, 63, 54
2,11991, Note_on_c, 0, 67, 68
2,12020, Note_on_c, 0, 67, 0
2,12032, Note_on_c, 0, 63, 0
2,12078, Note_on_c, 0, 60, 47
2,12132, Note_on_c, 0, 60, 0
2,12176, Note_on_c, 0, 75, 0
2,12189, Note_on_c, 0, 56, 57
2,12202, Note_on_c, 0, 72, 75
2,12279, Note_on_c, 0, 56, 0
2,12303, Note_on_c, 0, 58, 58
2,12382, Note_on_c, 0, 58, 0
2,12413, Note_on_c, 0, 60, 53
2,12414, Note_on_c, 0, 72, 0
2,12425, Note_on_c, 0, 75, 67
2,12461, Note_on_c, 0, 60, 0
2,12511, Note_on_c, 0, 56, 56
2,12517, Note_on_c, 0, 75, 0
2,12523, Note_on_c, 0, 72, 67
2,12595, Note_on_c, 0, 72, 0
2,12600, Note_on_c, 0, 56, 0
2,12627, Note_on_c, 0, 53, 59
2,12627, Note_on_c, 0, 68, 59
2,12717, Note_on_c, 0, 53, 0
2,12737, Note_on_c, 0, 55, 49
2,12805, Note_on_c, 0, 55, 0
2,12816, Note_on_c, 0, 68, 0
2,12825, Note_on_c, 0, 56, 61
2,12844, Note_on_c, 0, 72, 57
2,12887, Note_on_c, 0, 56, 0
2,12913, Note_on_c, 0, 72, 0
2,12927, Note_on_c, 0, 68, 61
2,12943, Note_on_c, 0, 53, 45
2,12983, Note_on_c, 0, 68, 0
2,12989, Note_on_c, 0, 53, 0
2,13021, Note_on_c, 0, 46, 69
2,13026, Note_on_c, 0, 61, 62
2,13057, Note_on_c, 0, 46, 0
2,13245, Note_on_c, 0, 68, 64
2,13251, Note_on_c, 0, 58, 52
2,13275, Note_on_c, 0, 68, 0
2,13321, Note_on_c, 0, 58, 0
2,13340, Note_on_c, 0, 56, 56
2,13441, Note_on_c, 0, 56, 0
2,13447, Note_on_c, 0, 61, 0
2,13459, Note_on_c, 0, 58, 55
2,13463, Note_on_c, 0, 73, 74
2,13544, Note_on_c, 0, 58, 0
2,13562, Note_on_c, 0, 60, 55
2,13652, Note_on_c, 0, 60, 0
2,13666, Note_on_c, 0, 61, 63
2,13677, Note_on_c, 0, 65, 71
2,13712, Note_on_c, 0, 65, 0
2,13716, Note_on_c, 0, 61, 0
2,13762, Note_on_c, 0, 58, 48
2,13831, Note_on_c, 0, 58, 0
2,13880, Note_on_c, 0, 55, 49
2,13884, Note_on_c, 0, 70, 72
2,13899, Note_on_c, 0, 73, 0
2,13971, Note_on_c, 0, 55, 0
2,13983, Note_on_c, 0, 72, 72
2,14001, Note_on_c, 0, 56, 42
2,14023, Note_on_c, 0, 70, 0
2,14077, Note_on_c, 0, 56, 0
2,14082, Note_on_c, 0, 58, 62
2,14092, Note_on_c, 0, 73, 78
2,14095, Note_on_c, 0, 72, 0
2,14131, Note_on_c, 0, 73, 0
2,14151, Note_on_c, 0, 58, 0
2,14181, Note_on_c, 0, 70, 79
2,14189, Note_on_c, 0, 55, 61
2,14261, Note_on_c, 0, 70, 0
2,14263, Note_on_c, 0, 55, 0
2,14293, Note_on_c, 0, 51, 57
2,14298, Note_on_c, 0, 82, 90
2,14376, Note_on_c, 0, 51, 0
2,14398, Note_on_c, 0, 53, 61
2,14398, Note_on_c, 0, 73, 79
2,14450, Note_on_c, 0, 53, 0
2,14489, Note_on_c, 0, 55, 50
2,14507, Note_on_c, 0, 75, 74
2,14512, Note_on_c, 0, 73, 0
2,14557, Note_on_c, 0, 55, 0
2,14564, Note_on_c, 0, 75, 0
2,14575, Note_on_c, 0, 51, 56
2,14590, Note_on_c, 0, 70, 76
2,14629, Note_on_c, 0, 70, 0
2,14637, Note_on_c, 0, 82, 0
2,14646, Note_on_c, 0, 51, 0
2,14686, Note_on_c, 0, 44, 68
2,14698, Note_on_c, 0, 72, 85
2,14706, Control_c, 0, 64, 61
2,14721, Control_c, 0, 64, 71
2,14727, Note_on_c, 0, 44, 0
2,14735, Control_c, 0, 64, 82
2,14751, Control_c, 0, 64, 92
2,14766, Control_c, 0, 64, 98
2,14782, Control_c, 0, 64, 101
2,14796, Control_c, 0, 64, 104
2,14803, Note_on_c, 0, 80, 71
2,14811, Control_c, 0, 64, 106
2,14827, Control_c, 0, 64, 106
2,14837, Note_on_c, 0, 72, 0
2,14842, Control_c, 0, 64, 107
2,14857, Control_c, 0, 64, 106
2,14872, Control_c, 0, 64, 105
2,14882, Note_on_c, 0, 80, 0
2,14885, Note_on_c, 0, 56, 71
2,14887, Control_c, 0, 64, 98
2,14898, Note_on_c, 0, 79, 76
2,14903, Control_c, 0, 64, 87
2,14925, Control_c, 0, 64, 73
2,14940, Control_c, 0, 64, 50
2,14956, Control_c, 0, 64, 0
2,14995, Note_on_c, 0, 79, 0
2,14996, Note_on_c, 0, 56, 0
2,14996, Note_on_c, 0, 58, 72
2,15002, Note_on_c, 0, 82, 77
2,15077, Note_on_c, 0, 58, 0
2,15087, Note_on_c, 0, 60, 77
2,15111, Note_on_c, 0, 80, 74
2,15139, Note_on_c, 0, 60, 0
2,15149, Note_on_c, 0, 82, 0
2,15195, Note_on_c, 0, 80, 0
2,15199, Note_on_c, 0, 75, 71
2,15300, Note_on_c, 0, 77, 72
2,15302, Note_on_c, 0, 68, 80
2,15302, Note_on_c, 0, 75, 0
2,15308, Note_on_c, 0, 56, 61
2,15338, Note_on_c, 0, 56, 0
2,15401, Note_on_c, 0, 77, 0
2,15411, Note_on_c, 0, 78, 73
2,15504, Note_on_c, 0, 61, 78
2,15509, Note_on_c, 0, 78, 0
2,15510, Note_on_c, 0, 68, 0
2,15517, Note_on_c, 0, 77, 85
2,15610, Note_on_c, 0, 67, 68
2,15618, Note_on_c, 0, 75, 83
2,15624, Note_on_c, 0, 77, 0
2,15713, Note_on_c, 0, 75, 0
2,15714, Note_on_c, 0, 61, 0
2,15718, Note_on_c, 0, 67, 0
2,15723, Note_on_c, 0, 73, 81
2,15730, Note_on_c, 0, 65, 65
2,15823, Note_on_c, 0, 65, 0
2,15824, Note_on_c, 0, 73, 0
2,15831, Note_on_c, 0, 75, 77
2,15835, Note_on_c, 0, 67, 66
2,15922, Note_on_c, 0, 67, 0
2,15922, Note_on_c, 0, 84, 85
2,15926, Note_on_c, 0, 75, 0
2,15934, Note_on_c, 0, 68, 75
2,15956, Note_on_c, 0, 84, 0
2,15974, Note_on_c, 0, 60, 49
2,15988, Note_on_c, 0, 68, 0
2,16044, Note_on_c, 0, 66, 59
2,16115, Note_on_c, 0, 66, 0
2,16130, Note_on_c, 0, 60, 0
2,16147, Note_on_c, 0, 80, 85
2,16153, Note_on_c, 0, 65, 65
2,16180, Note_on_c, 0, 80, 0
2,16235, Note_on_c, 0, 65, 0
2,16239, Note_on_c, 0, 63, 74
2,16342, Note_on_c, 0, 63, 0
2,16361, Note_on_c, 0, 58, 75
2,16364, Note_on_c, 0, 65, 79
2,16365, Note_on_c, 0, 75, 92
2,16399, Note_on_c, 0, 58, 0
2,16586, Note_on_c, 0, 56, 62
2,16589, Note_on_c, 0, 73, 77
2,16622, Note_on_c, 0, 56, 0
2,16622, Note_on_c, 0, 75, 0
2,16665, Note_on_c, 0, 73, 0
2,16687, Note_on_c, 0, 72, 70
2,16742, Note_on_c, 0, 65, 0
2,16764, Note_on_c, 0, 72, 0
2,16796, Note_on_c, 0, 55, 71
2,16796, Note_on_c, 0, 73, 82
2,16850, Note_on_c, 0, 73, 0
2,16889, Note_on_c, 0, 63, 74
2,17002, Note_on_c, 0, 55, 0
2,17007, Note_on_c, 0, 61, 67
2,17008, Note_on_c, 0, 82, 85
2,17009, Note_on_c, 0, 63, 0
2,17057, Note_on_c, 0, 82, 0
2,17067, Note_on_c, 0, 61, 0
2,17094, Note_on_c, 0, 65, 61
2,17173, Note_on_c, 0, 65, 0
2,17208, Note_on_c, 0, 63, 61
2,17210, Note_on_c, 0, 72, 77
2,17214, Note_on_c, 0, 56, 54
2,17265, Note_on_c, 0, 72, 0
2,17288, Note_on_c, 0, 56, 0
2,17303, Note_on_c, 0, 61, 62
2,17310, Note_on_c, 0, 63, 0
2,17405, Note_on_c, 0, 60, 56
2,17406, Note_on_c, 0, 61, 0
2,17421, Note_on_c, 0, 80, 84
2,17480, Note_on_c, 0, 80, 0
2,17482, Note_on_c, 0, 60, 0
2,17516, Note_on_c, 0, 63, 65
2,17568, Note_on_c, 0, 63, 0
2,17625, Note_on_c, 0, 61, 65
2,17629, Note_on_c, 0, 70, 84
2,17647, Note_on_c, 0, 51, 61
2,17671, Note_on_c, 0, 70, 0
2,17678, Note_on_c, 0, 61, 0
2,17739, Note_on_c, 0, 60, 54
2,17827, Note_on_c, 0, 60, 0
2,17831, Note_on_c, 0, 61, 62
2,17840, Note_on_c, 0, 79, 72
2,17889, Note_on_c, 0, 51, 0
2,17899, Note_on_c, 0, 79, 0
2,17926, Note_on_c, 0, 58, 69
2,17935, Note_on_c, 0, 61, 0
2,17965, Note_on_c, 0, 58, 0
2,18051, Note_on_c, 0, 68, 75
2,18054, Note_on_c, 0, 60, 70
2,18060, Note_on_c, 0, 56, 55
2,18095, Note_on_c, 0, 60, 0
2,18147, Note_on_c, 0, 68, 0
2,18147, Note_on_c, 0, 70, 69
2,18244, Note_on_c, 0, 70, 0
2,18247, Note_on_c, 0, 56, 0
2,18247, Note_on_c, 0, 56, 2
2,18254, Note_on_c, 0, 63, 69
2,18259, Note_on_c, 0, 72, 72
2,18299, Note_on_c, 0, 63, 0
2,18363, Note_on_c, 0, 73, 74
2,18365, Note_on_c, 0, 72, 0
2,18464, Note_on_c, 0, 72, 73
2,18466, Note_on_c, 0, 73, 0
2,18472, Note_on_c, 0, 68, 74
2,18536, Note_on_c, 0, 56, 0
2,18562, Note_on_c, 0, 70, 72
2,18562, Note_on_c, 0, 72, 0
2,18647, Note_on_c, 0, 68, 0
2,18659, Note_on_c, 0, 68, 57
2,18662, Note_on_c, 0, 63, 60
2,18669, Note_on_c, 0, 70, 0
2,18729, Note_on_c, 0, 60, 58
2,18739, Note_on_c, 0, 63, 0
2,18776, Note_on_c, 0, 72, 67
2,18797, Note_on_c, 0, 68, 0
2,18856, Note_on_c, 0, 56, 71
2,18871, Note_on_c, 0, 72, 0
2,18872, Note_on_c, 0, 60, 0
2,18877, Note_on_c, 0, 77, 72
2,18953, Note_on_c, 0, 56, 0
2,18992, Note_on_c, 0, 75, 66
2,19012, Note_on_c, 0, 77, 0
2,19072, Note_on_c, 0, 59, 60
2,19074, Note_on_c, 0, 75, 0
2,19085, Note_on_c, 0, 74, 69
2,19161, Note_on_c, 0, 59, 0
2,19166, Note_on_c, 0, 56, 59
2,19176, Note_on_c, 0, 77, 72
2,19182, Note_on_c, 0, 74, 0
2,19258, Note_on_c, 0, 77, 0
2,19272, Note_on_c, 0, 80, 73
2,19273, Note_on_c, 0, 53, 66
2,19274, Note_on_c, 0, 56, 0
2,19323, Note_on_c, 0, 53, 0
2,19369, Note_on_c, 0, 78, 76
2,19380, Note_on_c, 0, 80, 0
2,19436, Note_on_c, 0, 78, 0
2,19455, Note_on_c, 0, 77, 69
2,19460, Note_on_c, 0, 56, 60
2,19513, Note_on_c, 0, 56, 0
2,19543, Note_on_c, 0, 80, 45
2,19544, Note_on_c, 0, 80, 0
2,19546, Note_on_c, 0, 77, 0
2,19558, Note_on_c, 0, 53, 43
2,19570, Note_on_c, 0, 79, 34
2,19604, Note_on_c, 0, 79, 0
2,19634, Note_on_c, 0, 80, 85
2,19645, Note_on_c, 0, 53, 0
2,19669, Control_c, 0, 64, 53
2,19669, Note_on_c, 0, 82, 69
2,19672, Note_on_c, 0, 50, 52
2,19684, Control_c, 0, 64, 66
2,19699, Control_c, 0, 64, 71
2,19703, Note_on_c, 0, 80, 0
2,19714, Control_c, 0, 64, 75
2,19721, Note_on_c, 0, 83, 79
2,19729, Control_c, 0, 64, 76
2,19743, Note_on_c, 0, 82, 0
2,19744, Control_c, 0, 64, 75
2,19760, Control_c, 0, 64, 71
2,19775, Control_c, 0, 64, 56
2,19791, Control_c, 0, 64, 0
2,19897, Control_c, 0, 64, 43
2,19899, Note_on_c, 0, 53, 60
2,19901, Note_on_c, 0, 82, 74
2,19912, Control_c, 0, 64, 65
2,19916, Note_on_c, 0, 83, 0
2,19927, Control_c, 0, 64, 71
2,19942, Control_c, 0, 64, 77
2,19958, Control_c, 0, 64, 81
2,19973, Control_c, 0, 64, 82
2,19987, Control_c, 0, 64, 83
2,19994, Note_on_c, 0, 82, 0
2,20000, Note_on_c, 0, 56, 63
2,20003, Control_c, 0, 64, 83
2,20025, Note_on_c, 0, 53, 0
2,20025, Note_on_c, 0, 79, 19
2,20049, Control_c, 0, 64, 83
2,20063, Control_c, 0, 64, 78
2,20067, Note_on_c, 0, 79, 0
2,20069, Note_on_c, 0, 50, 0
2,20069, Note_on_c, 0, 56, 0
2,20079, Control_c, 0, 64, 69
2,20082, Note_on_c, 0, 59, 66
2,20094, Control_c, 0, 64, 13
2,20100, Note_on_c, 0, 78, 77
2,20110, Control_c, 0, 64, 0
2,20164, Note_on_c, 0, 78, 0
2,20198, Note_on_c, 0, 77, 71
2,20299, Note_on_c, 0, 77, 0
2,20303, Note_on_c, 0, 75, 67
2,20317, Note_on_c, 0, 53, 47
2,20352, Note_on_c, 0, 53, 0
2,20390, Note_on_c, 0, 75, 0
2,20397, Note_on_c, 0, 74, 67
2,20509, Note_on_c, 0, 75, 69
2,20512, Note_on_c, 0, 58, 62
2,20512, Note_on_c, 0, 74, 0
2,20518, Note_on_c, 0, 54, 58
2,20518, Note_on_c, 0, 59, 0
2,20609, Note_on_c, 0, 75, 0
2,20614, Note_on_c, 0, 78, 68
2,20687, Note_on_c, 0, 58, 0
2,20702, Note_on_c, 0, 54, 0
2,20720, Note_on_c, 0, 77, 72
2,20721, Note_on_c, 0, 56, 60
2,20732, Note_on_c, 0, 59, 51
2,20738, Note_on_c, 0, 78, 0
2,20761, Note_on_c, 0, 59, 0
2,20780, Note_on_c, 0, 56, 0
2,20814, Note_on_c, 0, 75, 70
2,20826, Note_on_c, 0, 77, 0
2,20925, Note_on_c, 0, 58, 72
2,20925, Note_on_c, 0, 74, 71
2,20937, Note_on_c, 0, 75, 0
2,20959, Note_on_c, 0, 58, 0
2,20992, Note_on_c, 0, 74, 0
2,21025, Note_on_c, 0, 77, 66
2,21139, Note_on_c, 0, 77, 0
2,21144, Note_on_c, 0, 46, 67
2,21150, Note_on_c, 0, 70, 68
2,21162, Note_on_c, 0, 50, 51
2,21185, Note_on_c, 0, 46, 0
2,21187, Note_on_c, 0, 50, 0
2,21215, Note_on_c, 0, 70, 0
2,21246, Note_on_c, 0, 68, 60
2,21324, Note_on_c, 0, 68, 0
2,21365, Note_on_c, 0, 39, 54
2,21368, Note_on_c, 0, 51, 52
2,21368, Note_on_c, 0, 66, 61
2,21457, Note_on_c, 0, 66, 0
2,21472, Note_on_c, 0, 65, 61
2,21579, Note_on_c, 0, 63, 65
2,21579, Note_on_c, 0, 65, 0
2,21660, Note_on_c, 0, 39, 0
2,21660, Note_on_c, 0, 63, 0
2,21683, Note_on_c, 0, 62, 58
2,21710, Note_on_c, 0, 51, 0
2,21741, Note_on_c, 0, 62, 0
2,21789, Note_on_c, 0, 63, 64
2,21857, Note_on_c, 0, 63, 0
2,21897, Note_on_c, 0, 65, 53
2,21955, Note_on_c, 0, 65, 0
2,21976, Note_on_c, 0, 51, 59
2,21990, Note_on_c, 0, 66, 52
2,22012, Note_on_c, 0, 51, 0
2,22043, Note_on_c, 0, 66, 0
2,22096, Note_on_c, 0, 68, 41
2,22169, Control_c, 0, 67, 8
2,22172, Note_on_c, 0, 68, 0
2,22184, Control_c, 0, 67, 23
2,22200, Control_c, 0, 67, 60
2,22202, Note_on_c, 0, 54, 53
2,22206, Note_on_c, 0, 70, 51
2,22215, Control_c, 0, 67, 106
2,22231, Control_c, 0, 67, 127
2,22281, Note_on_c, 0, 54, 0
2,22297, Note_on_c, 0, 70, 0
2,22301, Note_on_c, 0, 68, 48
2,22306, Note_on_c, 0, 53, 55
2,22374, Note_on_c, 0, 68, 0
2,22383, Note_on_c, 0, 53, 0
2,22399, Note_on_c, 0, 66, 53
2,22416, Note_on_c, 0, 51, 53
2,22478, Note_on_c, 0, 66, 0
2,22498, Note_on_c, 0, 51, 0
2,22504, Note_on_c, 0, 53, 60
2,22505, Note_on_c, 0, 68, 50
2,22565, Note_on_c, 0, 68, 0
2,22578, Note_on_c, 0, 53, 0
2,22609, Note_on_c, 0, 61, 75
2,22621, Note_on_c, 0, 70, 56
2,22637, Note_on_c, 0, 61, 0
2,22720, Note_on_c, 0, 70, 0
2,22725, Note_on_c, 0, 68, 46
2,22823, Note_on_c, 0, 68, 0
2,22826, Note_on_c, 0, 58, 70
2,22831, Note_on_c, 0, 66, 54
2,22856, Note_on_c, 0, 58, 0
2,22882, Note_on_c, 0, 66, 0
2,22930, Note_on_c, 0, 65, 54
2,23035, Note_on_c, 0, 53, 65
2,23036, Note_on_c, 0, 65, 0
2,23047, Note_on_c, 0, 66, 59
2,23254, Note_on_c, 0, 53, 0
2,23270, Note_on_c, 0, 51, 61
2,23354, Note_on_c, 0, 51, 0
2,23377, Note_on_c, 0, 49, 58
2,23463, Note_on_c, 0, 49, 0
2,23470, Note_on_c, 0, 51, 66
2,23493, Note_on_c, 0, 51, 0
2,23570, Note_on_c, 0, 65, 49
2,23571, Note_on_c, 0, 66, 0
2,23654, Note_on_c, 0, 65, 0
2,23684, Note_on_c, 0, 63, 57
2,23689, Note_on_c, 0, 60, 61
2,23722, Note_on_c, 0, 60, 0
2,23762, Note_on_c, 0, 63, 0
2,23791, Note_on_c, 0, 66, 53
2,23897, Note_on_c, 0, 49, 65
2,23902, Note_on_c, 0, 66, 0
2,23915, Note_on_c, 0, 65, 53
2,23933, Note_on_c, 0, 49, 0
2,23974, Note_on_c, 0, 65, 0
2,24004, Note_on_c, 0, 63, 53
2,24092, Note_on_c, 0, 63, 0
2,24104, Note_on_c, 0, 58, 64
2,24118, Note_on_c, 0, 61, 58
2,24141, Note_on_c, 0, 58, 0
2,24199, Note_on_c, 0, 61, 0
2,24217, Note_on_c, 0, 65, 49
2,24331, Note_on_c, 0, 48, 70
2,24337, Note_on_c, 0, 65, 0
2,24343, Note_on_c, 0, 63, 49
2,24367, Note_on_c, 0, 48, 0
2,24423, Note_on_c, 0, 63, 0
2,24432, Note_on_c, 0, 61, 55
2,24544, Note_on_c, 0, 57, 60
2,24550, Control_c, 0, 67, 118
2,24551, Note_on_c, 0, 61, 0
2,24560, Note_on_c, 0, 63, 58
2,24565, Control_c, 0, 67, 70
2,24579, Control_c, 0, 67, 0
2,24581, Note_on_c, 0, 57, 0
2,24603, Note_on_c, 0, 63, 0
2,24632, Note_on_c, 0, 60, 56
2,24699, Note_on_c, 0, 60, 0
2,24755, Note_on_c, 0, 46, 68
2,24755, Note_on_c, 0, 61, 68
2,24804, Note_on_c, 0, 46, 0
2,24818, Note_on_c, 0, 61, 0
2,24857, Note_on_c, 0, 65, 67
2,24957, Note_on_c, 0, 65, 0
2,24965, Note_on_c, 0, 66, 71
2,24971, Note_on_c, 0, 58, 64
2,25055, Note_on_c, 0, 58, 0
2,25061, Note_on_c, 0, 66, 0
2,25065, Note_on_c, 0, 65, 76
2,25077, Note_on_c, 0, 57, 53
2,25156, Note_on_c, 0, 65, 0
2,25169, Note_on_c, 0, 73, 89
2,25171, Note_on_c, 0, 57, 0
2,25180, Note_on_c, 0, 58, 65
2,25270, Note_on_c, 0, 58, 0
2,25288, Note_on_c, 0, 60, 54
2,25367, Note_on_c, 0, 60, 0
2,25381, Note_on_c, 0, 61, 67
2,25386, Note_on_c, 0, 65, 74
2,25425, Note_on_c, 0, 61, 0
2,25425, Note_on_c, 0, 65, 0
2,25480, Note_on_c, 0, 58, 49
2,25544, Note_on_c, 0, 58, 0
2,25587, Note_on_c, 0, 55, 57
2,25606, Note_on_c, 0, 70, 76
2,25612, Note_on_c, 0, 73, 0
2,25700, Note_on_c, 0, 55, 0
2,25708, Note_on_c, 0, 72, 72
2,25719, Note_on_c, 0, 56, 44
2,25744, Note_on_c, 0, 70, 0
2,25803, Note_on_c, 0, 56, 0
2,25807, Note_on_c, 0, 58, 63
2,25818, Note_on_c, 0, 73, 77
2,25822, Note_on_c, 0, 72, 0
2,25872, Note_on_c, 0, 58, 0
2,25872, Note_on_c, 0, 73, 0
2,25910, Note_on_c, 0, 70, 78
2,25914, Note_on_c, 0, 55, 56
2,25969, Note_on_c, 0, 55, 0
2,25979, Note_on_c, 0, 70, 0
2,26016, Note_on_c, 0, 51, 56
2,26017, Note_on_c, 0, 82, 89
2,26098, Note_on_c, 0, 51, 0
2,26122, Note_on_c, 0, 53, 58
2,26123, Note_on_c, 0, 73, 73
2,26182, Note_on_c, 0, 53, 0
2,26216, Note_on_c, 0, 55, 51
2,26223, Note_on_c, 0, 75, 75
2,26228, Note_on_c, 0, 73, 0
2,26249, Note_on_c, 0, 82, 0
2,26295, Note_on_c, 0, 55, 0
2,26297, Note_on_c, 0, 51, 52
2,26308, Note_on_c, 0, 70, 73
2,26313, Note_on_c, 0, 75, 0
2,26377, Note_on_c, 0, 70, 0
2,26393, Note_on_c, 0, 51, 0
2,26420, Note_on_c, 0, 44, 62
2,26425, Note_on_c, 0, 72, 76
2,26458, Control_c, 0, 64, 10
2,26471, Note_on_c, 0, 44, 0
2,26474, Control_c, 0, 64, 65
2,26489, Control_c, 0, 64, 74
2,26494, Note_on_c, 0, 72, 0
2,26504, Control_c, 0, 64, 84
2,26519, Control_c, 0, 64, 90
2,26532, Note_on_c, 0, 63, 69
2,26533, Control_c, 0, 64, 93
2,26548, Control_c, 0, 64, 94
2,26609, Control_c, 0, 64, 91
2,26623, Note_on_c, 0, 63, 0
2,26624, Control_c, 0, 64, 84
2,26630, Note_on_c, 0, 65, 72
2,26633, Note_on_c, 0, 56, 59
2,26640, Control_c, 0, 64, 70
2,26654, Control_c, 0, 64, 0
2,26711, Note_on_c, 0, 56, 0
2,26722, Note_on_c, 0, 65, 0
2,26734, Note_on_c, 0, 63, 68
2,26740, Note_on_c, 0, 55, 41
2,26810, Note_on_c, 0, 63, 0
2,26834, Note_on_c, 0, 55, 0
2,26839, Note_on_c, 0, 56, 61
2,26846, Note_on_c, 0, 72, 75
2,26930, Note_on_c, 0, 56, 0
2,26944, Note_on_c, 0, 58, 57
2,27032, Note_on_c, 0, 58, 0
2,27061, Note_on_c, 0, 63, 72
2,27067, Note_on_c, 0, 60, 50
2,27094, Note_on_c, 0, 63, 0
2,27115, Note_on_c, 0, 60, 0
2,27159, Note_on_c, 0, 56, 45
2,27248, Note_on_c, 0, 56, 0
2,27256, Note_on_c, 0, 72, 0
2,27277, Note_on_c, 0, 53, 51
2,27281, Note_on_c, 0, 68, 71
2,27358, Note_on_c, 0, 53, 0
2,27377, Note_on_c, 0, 70, 68
2,27392, Note_on_c, 0, 68, 0
2,27396, Note_on_c, 0, 55, 36
2,27443, Note_on_c, 0, 55, 0
2,27465, Note_on_c, 0, 56, 60
2,27493, Note_on_c, 0, 72, 65
2,27500, Note_on_c, 0, 70, 0
2,27526, Note_on_c, 0, 72, 0
2,27532, Note_on_c, 0, 56, 0
2,27567, Note_on_c, 0, 68, 76
2,27584, Note_on_c, 0, 53, 50
2,27643, Note_on_c, 0, 53, 0
2,27650, Note_on_c, 0, 68, 0
2,27682, Note_on_c, 0, 49, 56
2,27684, Note_on_c, 0, 80, 83
2,27783, Note_on_c, 0, 49, 0
2,27788, Note_on_c, 0, 72, 63
2,27793, Note_on_c, 0, 51, 55
2,27847, Note_on_c, 0, 51, 0
2,27883, Note_on_c, 0, 53, 46
2,27891, Note_on_c, 0, 73, 71
2,27897, Note_on_c, 0, 72, 0
2,27933, Note_on_c, 0, 80, 0
2,27957, Note_on_c, 0, 49, 53
2,27957, Note_on_c, 0, 53, 0
2,27994, Note_on_c, 0, 68, 60
2,28011, Note_on_c, 0, 73, 0
2,28063, Note_on_c, 0, 68, 0
2,28067, Note_on_c, 0, 49, 0
2,28091, Note_on_c, 0, 43, 53
2,28100, Note_on_c, 0, 70, 64
2,28129, Note_on_c, 0, 43, 0
2,28130, Control_c, 0, 64, 60
2,28145, Control_c, 0, 64, 71
2,28156, Note_on_c, 0, 70, 0
2,28161, Control_c, 0, 64, 81
2,28176, Control_c, 0, 64, 90
2,28192, Control_c, 0, 64, 93
2,28201, Note_on_c, 0, 61, 64
2,28206, Control_c, 0, 64, 94
2,28252, Control_c, 0, 64, 92
2,28266, Control_c, 0, 64, 84
2,28273, Note_on_c, 0, 61, 0
2,28282, Control_c, 0, 64, 71
2,28297, Control_c, 0, 64, 0
2,28300, Note_on_c, 0, 55, 41
2,28305, Note_on_c, 0, 63, 55
2,28367, Note_on_c, 0, 55, 0
2,28380, Note_on_c, 0, 63, 0
2,28400, Note_on_c, 0, 61, 58
2,28403, Note_on_c, 0, 53, 42
2,28455, Note_on_c, 0, 53, 0
2,28483, Note_on_c, 0, 61, 0
2,28496, Note_on_c, 0, 55, 48
2,28519, Note_on_c, 0, 70, 67
2,28583, Note_on_c, 0, 55, 0
2,28601, Note_on_c, 0, 56, 42
2,28650, Note_on_c, 0, 56, 0
2,28707, Note_on_c, 0, 58, 51
2,28752, Note_on_c, 0, 61, 60
2,28780, Note_on_c, 0, 58, 0
2,28786, Note_on_c, 0, 61, 0
2,28827, Note_on_c, 0, 55, 41
2,28886, Note_on_c, 0, 55, 0
2,28931, Note_on_c, 0, 70, 0
2,28955, Note_on_c, 0, 52, 48
2,28962, Note_on_c, 0, 67, 64
2,29044, Note_on_c, 0, 67, 0
2,29051, Note_on_c, 0, 52, 0
2,29053, Note_on_c, 0, 68, 66
2,29063, Note_on_c, 0, 53, 50
2,29116, Note_on_c, 0, 53, 0
2,29151, Note_on_c, 0, 55, 52
2,29153, Note_on_c, 0, 70, 73
2,29159, Note_on_c, 0, 68, 0
2,29209, Note_on_c, 0, 55, 0
2,29218, Note_on_c, 0, 70, 0
2,29252, Note_on_c, 0, 52, 53
2,29252, Note_on_c, 0, 67, 68
2,29327, Note_on_c, 0, 67, 0
2,29332, Note_on_c, 0, 52, 0
2,29366, Note_on_c, 0, 48, 58
2,29366, Note_on_c, 0, 79, 80
2,29445, Note_on_c, 0, 48, 0
2,29464, Note_on_c, 0, 70, 67
2,29473, Note_on_c, 0, 50, 43
2,29558, Note_on_c, 0, 52, 59
2,29574, Note_on_c, 0, 72, 68
2,29575, Note_on_c, 0, 70, 0
2,29595, Note_on_c, 0, 50, 0
2,29606, Note_on_c, 0, 52, 0
2,29626, Note_on_c, 0, 72, 0
2,29635, Note_on_c, 0, 79, 0
2,29656, Note_on_c, 0, 67, 76
2,29668, Note_on_c, 0, 48, 60
2,29687, Note_on_c, 0, 67, 0
2,29706, Note_on_c, 0, 79, 34
2,29747, Note_on_c, 0, 48, 0
2,29770, Note_on_c, 0, 41, 59
2,29778, Note_on_c, 0, 68, 79
2,29803, Note_on_c, 0, 79, 0
2,29865, Note_on_c, 0, 41, 0
2,29877, Note_on_c, 0, 43, 57
2,29880, Note_on_c, 0, 76, 71
2,29960, Note_on_c, 0, 43, 0
2,29967, Note_on_c, 0, 44, 64
2,29971, Note_on_c, 0, 76, 0
2,29979, Note_on_c, 0, 77, 73
2,30060, Note_on_c, 0, 44, 0
2,30063, Note_on_c, 0, 46, 68
2,30074, Note_on_c, 0, 73, 74
2,30083, Note_on_c, 0, 77, 0
2,30094, Note_on_c, 0, 68, 0
2,30141, Note_on_c, 0, 46, 0
2,30166, Note_on_c, 0, 48, 60
2,30169, Note_on_c, 0, 73, 0
2,30182, Note_on_c, 0, 70, 79
2,30255, Note_on_c, 0, 50, 68
2,30257, Note_on_c, 0, 48, 0
2,30357, Note_on_c, 0, 50, 0
2,30371, Note_on_c, 0, 52, 71
2,30387, Note_on_c, 0, 60, 78
2,30439, Note_on_c, 0, 60, 0
2,30466, Note_on_c, 0, 52, 0
2,30474, Note_on_c, 0, 48, 56
2,30557, Note_on_c, 0, 70, 0
2,30577, Note_on_c, 0, 48, 0
2,30588, Note_on_c, 0, 53, 62
2,30600, Note_on_c, 0, 61, 79
2,30678, Note_on_c, 0, 51, 71
2,30680, Note_on_c, 0, 60, 75
2,30687, Note_on_c, 0, 53, 0
2,30695, Note_on_c, 0, 61, 0
2,30781, Note_on_c, 0, 49, 74
2,30781, Note_on_c, 0, 51, 0
2,30783, Note_on_c, 0, 58, 79
2,30790, Note_on_c, 0, 60, 0
2,30868, Note_on_c, 0, 60, 76
2,30876, Note_on_c, 0, 49, 0
2,30881, Note_on_c, 0, 58, 0
2,30884, Note_on_c, 0, 51, 75
2,30975, Note_on_c, 0, 60, 0
2,30980, Note_on_c, 0, 51, 0
2,30993, Note_on_c, 0, 68, 90
2,30999, Note_on_c, 0, 53, 67
2,31091, Note_on_c, 0, 53, 0
2,31112, Note_on_c, 0, 51, 59
2,31207, Note_on_c, 0, 51, 0
2,31208, Note_on_c, 0, 49, 65
2,31220, Note_on_c, 0, 65, 75
2,31277, Note_on_c, 0, 65, 0
2,31310, Note_on_c, 0, 49, 0
2,31317, Note_on_c, 0, 48, 62
2,31417, Note_on_c, 0, 48, 0
2,31434, Note_on_c, 0, 49, 74
2,31445, Note_on_c, 0, 60, 83
2,31456, Note_on_c, 0, 68, 0
2,31677, Note_on_c, 0, 60, 0
2,31680, Note_on_c, 0, 58, 77
2,31747, Note_on_c, 0, 58, 0
2,31757, Note_on_c, 0, 56, 76
2,31821, Note_on_c, 0, 56, 0
2,31870, Note_on_c, 0, 58, 85
2,31925, Note_on_c, 0, 58, 0
2,31945, Note_on_c, 0, 49, 0
2,31955, Note_on_c, 0, 48, 53
2,32048, Note_on_c, 0, 48, 0
2,32061, Note_on_c, 0, 46, 54
2,32084, Note_on_c, 0, 67, 79
2,32139, Note_on_c, 0, 67, 0
2,32162, Note_on_c, 0, 46, 0
2,32188, Note_on_c, 0, 49, 51
2,32283, Note_on_c, 0, 49, 0
2,32298, Note_on_c, 0, 56, 84
2,32300, Note_on_c, 0, 48, 58
2,32342, Note_on_c, 0, 56, 0
2,32381, Note_on_c, 0, 48, 0
2,32390, Note_on_c, 0, 46, 55
2,32495, Note_on_c, 0, 46, 0
2,32496, Note_on_c, 0, 44, 60
2,32505, Note_on_c, 0, 65, 79
2,32555, Note_on_c, 0, 65, 0
2,32589, Note_on_c, 0, 44, 0
2,32621, Note_on_c, 0, 48, 51
2,32693, Note_on_c, 0, 48, 0
2,32733, Note_on_c, 0, 46, 62
2,32736, Note_on_c, 0, 55, 79
2,32776, Note_on_c, 0, 55, 0
2,32825, Note_on_c, 0, 46, 0
2,32840, Note_on_c, 0, 44, 66
2,32940, Note_on_c, 0, 44, 0
2,32944, Note_on_c, 0, 46, 70
2,32953, Note_on_c, 0, 67, 73
2,32958, Note_on_c, 0, 64, 69
2,32994, Note_on_c, 0, 64, 0
2,33006, Note_on_c, 0, 67, 0
2,33033, Note_on_c, 0, 46, 0
2,33047, Note_on_c, 0, 43, 62
2,33158, Note_on_c, 0, 43, 0
2,33161, Note_on_c, 0, 44, 68
2,33166, Note_on_c, 0, 53, 77
2,33181, Note_on_c, 0, 72, 68
2,33207, Note_on_c, 0, 44, 0
2,33281, Note_on_c, 0, 72, 0
2,33284, Note_on_c, 0, 70, 58
2,33378, Note_on_c, 0, 70, 0
2,33388, Note_on_c, 0, 68, 61
2,33400, Note_on_c, 0, 49, 57
2,33446, Note_on_c, 0, 49, 0
2,33466, Note_on_c, 0, 68, 0
2,33480, Note_on_c, 0, 72, 59
2,33595, Note_on_c, 0, 72, 0
2,33604, Note_on_c, 0, 70, 61
2,33605, Note_on_c, 0, 53, 0
2,33620, Note_on_c, 0, 43, 71
2,33673, Note_on_c, 0, 43, 0
2,33698, Note_on_c, 0, 70, 0
2,33699, Note_on_c, 0, 68, 63
2,33785, Note_on_c, 0, 68, 0
2,33816, Note_on_c, 0, 67, 62
2,33831, Note_on_c, 0, 48, 68
2,33831, Note_on_c, 0, 52, 70
2,33861, Note_on_c, 0, 52, 0
2,33865, Note_on_c, 0, 48, 0
2,33917, Note_on_c, 0, 67, 0
2,33921, Note_on_c, 0, 70, 58
2,34020, Note_on_c, 0, 70, 0
2,34026, Note_on_c, 0, 68, 63
2,34037, Note_on_c, 0, 53, 75
2,34043, Note_on_c, 0, 41, 66
2,34077, Note_on_c, 0, 53, 0
2,34083, Note_on_c, 0, 41, 0
2,34106, Note_on_c, 0, 68, 0
2,34138, Note_on_c, 0, 65, 62
2,34229, Note_on_c, 0, 65, 0
2,34259, Note_on_c, 0, 52, 71
2,34262, Note_on_c, 0, 46, 65
2,34273, Note_on_c, 0, 73, 66
2,34295, Note_on_c, 0, 52, 0
2,34298, Note_on_c, 0, 46, 0
2,34360, Note_on_c, 0, 70, 63
2,34379, Note_on_c, 0, 73, 0
2,34466, Note_on_c, 0, 70, 0
2,34475, Note_on_c, 0, 72, 65
2,34477, Note_on_c, 0, 53, 71
2,34479, Note_on_c, 0, 44, 70
2,34520, Note_on_c, 0, 44, 0
2,34522, Note_on_c, 0, 53, 0
2,34546, Note_on_c, 0, 72, 0
2,34565, Note_on_c, 0, 68, 67
2,34593, Note_on_c, 0, 68, 0
2,34673, Note_on_c, 0, 58, 78
2,34681, Note_on_c, 0, 78, 76
2,34691, Note_on_c, 0, 49, 47
2,34710, Note_on_c, 0, 58, 0
2,34726, Note_on_c, 0, 49, 0
2,34758, Note_on_c, 0, 78, 0
2,34778, Note_on_c, 0, 76, 69
2,34828, Note_on_c, 0, 76, 0
2,34899, Note_on_c, 0, 56, 74
2,34907, Note_on_c, 0, 76, 70
2,34908, Note_on_c, 0, 48, 58
2,34997, Note_on_c, 0, 76, 0
2,35001, Note_on_c, 0, 77, 74
2,35090, Note_on_c, 0, 77, 0
2,35093, Note_on_c, 0, 56, 0
2,35108, Note_on_c, 0, 55, 61
2,35114, Note_on_c, 0, 83, 69
2,35201, Note_on_c, 0, 55, 0
2,35201, Note_on_c, 0, 83, 0
2,35206, Note_on_c, 0, 53, 66
2,35222, Note_on_c, 0, 84, 67
2,35297, Note_on_c, 0, 53, 0
2,35305, Note_on_c, 0, 84, 0
2,35307, Note_on_c, 0, 77, 77
2,35315, Note_on_c, 0, 55, 70
2,35348, Note_on_c, 0, 77, 0
2,35349, Note_on_c, 0, 76, 68
2,35389, Note_on_c, 0, 77, 65
2,35398, Note_on_c, 0, 76, 0
2,35445, Note_on_c, 0, 76, 56
2,35466, Note_on_c, 0, 77, 0
2,35511, Control_c, 0, 64, 39
2,35527, Control_c, 0, 64, 66
2,35530, Note_on_c, 0, 58, 62
2,35542, Control_c, 0, 64, 76
2,35557, Control_c, 0, 64, 89
2,35557, Note_on_c, 0, 55, 0
2,35569, Note_on_c, 0, 48, 0
2,35572, Control_c, 0, 64, 96
2,35587, Control_c, 0, 64, 99
2,35603, Control_c, 0, 64, 102
2,35604, Note_on_c, 0, 58, 0
2,35618, Control_c, 0, 64, 105
2,35623, Note_on_c, 0, 77, 75
2,35632, Control_c, 0, 64, 107
2,35634, Note_on_c, 0, 76, 0
2,35656, Control_c, 0, 64, 110
2,35671, Note_on_c, 0, 77, 0
2,35702, Control_c, 0, 64, 107
2,35717, Control_c, 0, 64, 97
2,35732, Control_c, 0, 64, 83
2,35747, Control_c, 0, 64, 64
2,35749, Note_on_c, 0, 77, 85
2,35755, Note_on_c, 0, 56, 60
2,35763, Control_c, 0, 64, 0
2,35764, Note_on_c, 0, 53, 42
2,35871, Note_on_c, 0, 56, 0
2,35874, Note_on_c, 0, 58, 64
2,35887, Note_on_c, 0, 53, 0
2,35887, Note_on_c, 0, 53, 12
2,35967, Note_on_c, 0, 58, 0
2,35991, Note_on_c, 0, 60, 63
2,36066, Note_on_c, 0, 60, 0
2,36068, Note_on_c, 0, 53, 0
2,36071, Note_on_c, 0, 56, 66
2,36093, Note_on_c, 0, 77, 0
2,36163, Note_on_c, 0, 56, 0
2,36173, Note_on_c, 0, 53, 66
2,36261, Note_on_c, 0, 53, 0
2,36270, Note_on_c, 0, 54, 62
2,36354, Note_on_c, 0, 54, 0
2,36368, Note_on_c, 0, 77, 85
2,36378, Note_on_c, 0, 56, 62
2,36423, Note_on_c, 0, 77, 0
2,36475, Note_on_c, 0, 56, 0
2,36488, Note_on_c, 0, 53, 50
2,36564, Note_on_c, 0, 53, 0
2,36582, Note_on_c, 0, 71, 83
2,36591, Note_on_c, 0, 50, 52
2,36660, Note_on_c, 0, 50, 0
2,36673, Note_on_c, 0, 51, 61
2,36674, Note_on_c, 0, 70, 80
2,36677, Note_on_c, 0, 71, 0
2,36763, Note_on_c, 0, 51, 0
2,36763, Note_on_c, 0, 70, 0
2,36775, Note_on_c, 0, 68, 81
2,36780, Note_on_c, 0, 53, 60
2,36851, Note_on_c, 0, 53, 0
2,36866, Note_on_c, 0, 50, 63
2,36869, Note_on_c, 0, 70, 84
2,36897, Note_on_c, 0, 68, 0
2,36938, Note_on_c, 0, 70, 0
2,36965, Note_on_c, 0, 50, 0
2,36980, Note_on_c, 0, 46, 69
2,36980, Note_on_c, 0, 77, 79
2,37025, Note_on_c, 0, 77, 0
2,37056, Note_on_c, 0, 46, 0
2,37070, Note_on_c, 0, 50, 55
2,37163, Note_on_c, 0, 50, 0
2,37176, Note_on_c, 0, 53, 54
2,37206, Note_on_c, 0, 74, 82
2,37254, Note_on_c, 0, 74, 0
2,37271, Note_on_c, 0, 53, 0
2,37294, Note_on_c, 0, 58, 58
2,37387, Note_on_c, 0, 58, 0
2,37407, Note_on_c, 0, 68, 79
2,37423, Note_on_c, 0, 51, 52
2,37505, Note_on_c, 0, 51, 0
2,37517, Note_on_c, 0, 54, 51
2,37625, Note_on_c, 0, 54, 0
2,37625, Note_on_c, 0, 66, 76
2,37628, Note_on_c, 0, 58, 58
2,37639, Note_on_c, 0, 68, 0
2,37695, Note_on_c, 0, 58, 0
2,37695, Note_on_c, 0, 66, 0
2,37717, Note_on_c, 0, 65, 71
2,37725, Note_on_c, 0, 62, 59
2,37785, Note_on_c, 0, 62, 0
2,37785, Note_on_c, 0, 65, 0
2,37817, Note_on_c, 0, 66, 74
2,37830, Note_on_c, 0, 63, 56
2,37857, Note_on_c, 0, 66, 0
2,37906, Note_on_c, 0, 63, 0
2,37934, Note_on_c, 0, 65, 52
2,38016, Note_on_c, 0, 65, 0
2,38035, Note_on_c, 0, 75, 58
2,38042, Note_on_c, 0, 66, 60
2,38083, Note_on_c, 0, 75, 0
2,38099, Note_on_c, 0, 66, 0
2,38141, Note_on_c, 0, 63, 52
2,38214, Note_on_c, 0, 63, 0
2,38244, Note_on_c, 0, 69, 61
2,38252, Note_on_c, 0, 60, 49
2,38330, Note_on_c, 0, 60, 0
2,38334, Note_on_c, 0, 69, 0
2,38344, Note_on_c, 0, 68, 64
2,38349, Note_on_c, 0, 61, 53
2,38429, Note_on_c, 0, 61, 0
2,38430, Note_on_c, 0, 68, 0
2,38444, Note_on_c, 0, 66, 61
2,38459, Note_on_c, 0, 63, 50
2,38530, Note_on_c, 0, 66, 0
2,38541, Note_on_c, 0, 68, 64
2,38557, Note_on_c, 0, 60, 47
2,38564, Note_on_c, 0, 63, 0
2,38582, Note_on_c, 0, 60, 0
2,38616, Note_on_c, 0, 68, 0
2,38655, Note_on_c, 0, 56, 53
2,38655, Note_on_c, 0, 75, 68
2,38690, Note_on_c, 0, 75, 0
2,38746, Note_on_c, 0, 44, 60
2,38853, Note_on_c, 0, 44, 0
2,38863, Note_on_c, 0, 46, 55
2,38877, Note_on_c, 0, 72, 65
2,38912, Note_on_c, 0, 72, 0
2,38950, Note_on_c, 0, 46, 0
2,38958, Note_on_c, 0, 56, 0
2,38968, Note_on_c, 0, 48, 56
2,39063, Note_on_c, 0, 48, 0
2,39077, Note_on_c, 0, 66, 76
2,39085, Note_on_c, 0, 49, 57
2,39175, Note_on_c, 0, 56, 67
2,39203, Note_on_c, 0, 66, 0
2,39230, Note_on_c, 0, 56, 0
2,39278, Note_on_c, 0, 58, 69
2,39285, Note_on_c, 0, 65, 72
2,39336, Note_on_c, 0, 58, 0
2,39366, Note_on_c, 0, 63, 64
2,39394, Note_on_c, 0, 65, 0
2,39401, Note_on_c, 0, 60, 62
2,39431, Note_on_c, 0, 63, 0
2,39462, Note_on_c, 0, 49, 0
2,39484, Note_on_c, 0, 65, 73
2,39494, Note_on_c, 0, 61, 63
2,39496, Note_on_c, 0, 60, 0
2,39510, Control_c, 0, 64, 59
2,39517, Note_on_c, 0, 61, 0
2,39526, Control_c, 0, 64, 71
2,39530, Note_on_c, 0, 65, 0
2,39541, Control_c, 0, 64, 82
2,39557, Control_c, 0, 64, 92
2,39571, Control_c, 0, 64, 96
2,39587, Control_c, 0, 64, 98
2,39602, Note_on_c, 0, 51, 55
2,39603, Control_c, 0, 64, 99
2,39604, Note_on_c, 0, 68, 85
2,39648, Control_c, 0, 64, 98
2,39663, Control_c, 0, 64, 92
2,39679, Control_c, 0, 64, 78
2,39686, Note_on_c, 0, 53, 65
2,39689, Note_on_c, 0, 51, 0
2,39694, Control_c, 0, 64, 60
2,39708, Control_c, 0, 64, 0
2,39709, Note_on_c, 0, 73, 69
2,39725, Note_on_c, 0, 68, 0
2,39776, Note_on_c, 0, 53, 0
2,39791, Note_on_c, 0, 55, 65
2,39808, Note_on_c, 0, 75, 75
2,39839, Note_on_c, 0, 73, 0
2,39892, Note_on_c, 0, 55, 0
2,39903, Note_on_c, 0, 56, 70
2,39905, Note_on_c, 0, 75, 0
2,39907, Note_on_c, 0, 77, 81
2,39979, Note_on_c, 0, 56, 0
2,40004, Note_on_c, 0, 75, 77
2,40007, Note_on_c, 0, 55, 57
2,40014, Note_on_c, 0, 77, 0
2,40100, Note_on_c, 0, 55, 0
2,40102, Note_on_c, 0, 53, 62
2,40104, Note_on_c, 0, 73, 73
2,40107, Note_on_c, 0, 75, 0
2,40195, Note_on_c, 0, 53, 0
2,40208, Note_on_c, 0, 55, 68
2,40208, Note_on_c, 0, 75, 73
2,40220, Note_on_c, 0, 73, 0
2,40251, Note_on_c, 0, 75, 0
2,40304, Note_on_c, 0, 55, 0
2,40323, Note_on_c, 0, 84, 84
2,40325, Note_on_c, 0, 72, 82
2,40328, Note_on_c, 0, 56, 67
2,40360, Note_on_c, 0, 84, 0
2,40382, Note_on_c, 0, 56, 0
2,40425, Note_on_c, 0, 54, 62
2,40504, Note_on_c, 0, 54, 0
2,40540, Note_on_c, 0, 80, 79
2,40541, Note_on_c, 0, 53, 62
2,40581, Note_on_c, 0, 80, 0
2,40627, Note_on_c, 0, 53, 0
2,40637, Note_on_c, 0, 51, 68
2,40717, Note_on_c, 0, 51, 0
2,40745, Note_on_c, 0, 53, 74
2,40751, Note_on_c, 0, 75, 87
2,40922, Note_on_c, 0, 72, 0
2,40966, Note_on_c, 0, 73, 76
2,41005, Note_on_c, 0, 75, 0
2,41067, Note_on_c, 0, 73, 0
2,41079, Note_on_c, 0, 72, 73
2,41175, Note_on_c, 0, 70, 82
2,41177, Note_on_c, 0, 73, 82
2,41186, Note_on_c, 0, 72, 0
2,41214, Note_on_c, 0, 70, 0
2,41234, Note_on_c, 0, 73, 0
2,41253, Note_on_c, 0, 53, 0
2,41260, Note_on_c, 0, 51, 59
2,41366, Note_on_c, 0, 51, 0
2,41373, Note_on_c, 0, 49, 58
2,41391, Note_on_c, 0, 82, 85
2,41444, Note_on_c, 0, 49, 0
2,41451, Note_on_c, 0, 82, 0
2,41468, Note_on_c, 0, 53, 55
2,41551, Note_on_c, 0, 53, 0
2,41584, Note_on_c, 0, 51, 50
2,41598, Note_on_c, 0, 72, 82
2,41631, Note_on_c, 0, 72, 0
2,41660, Note_on_c, 0, 51, 0
2,41661, Note_on_c, 0, 49, 60
2,41785, Note_on_c, 0, 49, 0
2,41800, Note_on_c, 0, 48, 55
2,41822, Note_on_c, 0, 80, 85
2,41825, Note_on_c, 0, 68, 84
2,41847, Note_on_c, 0, 68, 0
2,41851, Note_on_c, 0, 80, 0
2,41891, Note_on_c, 0, 48, 0
2,41918, Note_on_c, 0, 51, 55
2,41990, Note_on_c, 0, 51, 0
2,42034, Note_on_c, 0, 49, 63
2,42037, Note_on_c, 0, 67, 79
2,42043, Note_on_c, 0, 70, 76
2,42062, Note_on_c, 0, 67, 0
2,42067, Note_on_c, 0, 70, 0
2,42114, Note_on_c, 0, 49, 0
2,42135, Note_on_c, 0, 48, 58
2,42217, Note_on_c, 0, 48, 0
2,42241, Note_on_c, 0, 49, 64
2,42251, Note_on_c, 0, 79, 78
2,42254, Note_on_c, 0, 70, 87
2,42289, Note_on_c, 0, 70, 0
2,42290, Note_on_c, 0, 79, 0
2,42314, Note_on_c, 0, 49, 0
2,42327, Note_on_c, 0, 46, 64
2,42429, Note_on_c, 0, 46, 0
2,42452, Note_on_c, 0, 48, 67
2,42465, Note_on_c, 0, 63, 68
2,42472, Note_on_c, 0, 68, 65
2,42494, Note_on_c, 0, 63, 0
2,42502, Note_on_c, 0, 48, 0
2,42577, Note_on_c, 0, 63, 65
2,42590, Note_on_c, 0, 68, 0
2,42647, Note_on_c, 0, 63, 0
2,42671, Note_on_c, 0, 51, 63
2,42692, Note_on_c, 0, 65, 60
2,42711, Note_on_c, 0, 51, 0
2,42767, Note_on_c, 0, 65, 0
2,42779, Note_on_c, 0, 67, 49
2,42878, Note_on_c, 0, 54, 72
2,42898, Note_on_c, 0, 68, 39
2,42905, Note_on_c, 0, 67, 0
2,42969, Note_on_c, 0, 68, 0
2,42985, Note_on_c, 0, 70, 50
2,43090, Note_on_c, 0, 70, 0
2,43097, Note_on_c, 0, 56, 65
2,43118, Note_on_c, 0, 72, 49
2,43131, Note_on_c, 0, 56, 0
2,43162, Note_on_c, 0, 72, 0
2,43217, Note_on_c, 0, 68, 45
2,43310, Note_on_c, 0, 68, 0
2,43323, Note_on_c, 0, 58, 73
2,43351, Note_on_c, 0, 73, 54
2,43402, Note_on_c, 0, 58, 0
2,43413, Note_on_c, 0, 73, 0
2,43426, Note_on_c, 0, 56, 74
2,43431, Note_on_c, 0, 54, 0
2,43449, Note_on_c, 0, 72, 47
2,43514, Note_on_c, 0, 56, 0
2,43520, Note_on_c, 0, 72, 0
2,43526, Note_on_c, 0, 54, 70
2,43540, Note_on_c, 0, 70, 56
2,43607, Note_on_c, 0, 56, 76
2,43608, Note_on_c, 0, 70, 0
2,43626, Note_on_c, 0, 54, 0
2,43639, Note_on_c, 0, 72, 60
2,43706, Note_on_c, 0, 56, 0
2,43745, Note_on_c, 0, 72, 0
2,43747, Note_on_c, 0, 53, 74
2,43748, Note_on_c, 0, 65, 81
2,43758, Note_on_c, 0, 73, 67
2,43779, Note_on_c, 0, 65, 0
2,43866, Note_on_c, 0, 73, 0
2,43885, Note_on_c, 0, 72, 47
2,43976, Note_on_c, 0, 72, 0
2,43980, Note_on_c, 0, 61, 74
2,43983, Note_on_c, 0, 70, 56
2,44003, Note_on_c, 0, 61, 0
2,44056, Note_on_c, 0, 70, 0
2,44067, Note_on_c, 0, 68, 57
2,44198, Note_on_c, 0, 70, 73
2,44205, Note_on_c, 0, 56, 74
2,44210, Note_on_c, 0, 68, 0
2,44368, Note_on_c, 0, 56, 0
2,44418, Note_on_c, 0, 53, 0
2,44433, Note_on_c, 0, 54, 66
2,44524, Note_on_c, 0, 54, 0
2,44551, Note_on_c, 0, 53, 31
2,44560, Note_on_c, 0, 52, 32
2,44621, Note_on_c, 0, 53, 0
2,44626, Note_on_c, 0, 52, 0
2,44634, Note_on_c, 0, 54, 68
2,44637, Note_on_c, 0, 51, 57
2,44692, Note_on_c, 0, 54, 0
2,44754, Note_on_c, 0, 70, 0
2,44766, Note_on_c, 0, 68, 45
2,44849, Note_on_c, 0, 63, 75
2,44852, Note_on_c, 0, 66, 66
2,44855, Note_on_c, 0, 68, 0
2,44886, Note_on_c, 0, 63, 0
2,44942, Note_on_c, 0, 66, 0
2,44968, Note_on_c, 0, 70, 57
2,45051, Note_on_c, 0, 51, 0
2,45063, Note_on_c, 0, 53, 77
2,45069, Note_on_c, 0, 70, 0
2,45074, Note_on_c, 0, 68, 65
2,45113, Note_on_c, 0, 53, 0
2,45154, Note_on_c, 0, 66, 60
2,45160, Note_on_c, 0, 68, 0
2,45246, Note_on_c, 0, 66, 0
2,45278, Note_on_c, 0, 61, 76
2,45282, Note_on_c, 0, 65, 61
2,45296, Note_on_c, 0, 49, 45
2,45308, Note_on_c, 0, 61, 0
2,45334, Note_on_c, 0, 49, 0
2,45367, Note_on_c, 0, 65, 0
2,45370, Note_on_c, 0, 68, 58
2,45478, Note_on_c, 0, 68, 0
2,45494, Note_on_c, 0, 66, 63
2,45496, Note_on_c, 0, 51, 69
2,45538, Note_on_c, 0, 51, 0
2,45565, Note_on_c, 0, 66, 0
2,45580, Note_on_c, 0, 65, 60
2,45692, Note_on_c, 0, 65, 0
2,45699, Note_on_c, 0, 44, 71
2,45710, Note_on_c, 0, 63, 64
2,45714, Note_on_c, 0, 60, 65
2,45737, Note_on_c, 0, 44, 0
2,45770, Note_on_c, 0, 60, 0
2,45806, Note_on_c, 0, 63, 0
2,45815, Note_on_c, 0, 66, 58
2,45912, Note_on_c, 0, 66, 0
2,45923, Note_on_c, 0, 49, 60
2,45923, Note_on_c, 0, 65, 65
2,45935, Note_on_c, 0, 61, 62
2,45967, Note_on_c, 0, 65, 0
2,46016, Note_on_c, 0, 51, 56
2,46018, Note_on_c, 0, 49, 0
2,46106, Note_on_c, 0, 51, 0
2,46146, Note_on_c, 0, 68, 68
2,46148, Note_on_c, 0, 53, 27
2,46148, Note_on_c, 0, 61, 0
2,46185, Note_on_c, 0, 68, 0
2,46222, Note_on_c, 0, 53, 0
2,46244, Note_on_c, 0, 54, 52
2,46350, Note_on_c, 0, 54, 0
2,46359, Note_on_c, 0, 53, 48
2,46371, Note_on_c, 0, 73, 81
2,46458, Note_on_c, 0, 53, 0
2,46480, Note_on_c, 0, 51, 42
2,46569, Note_on_c, 0, 51, 0
2,46584, Note_on_c, 0, 49, 53
2,46595, Note_on_c, 0, 80, 71
2,46613, Note_on_c, 0, 73, 0
2,46686, Note_on_c, 0, 77, 76
2,46690, Note_on_c, 0, 49, 0
2,46706, Note_on_c, 0, 53, 55
2,46714, Note_on_c, 0, 80, 0
2,46788, Note_on_c, 0, 53, 0
2,46790, Note_on_c, 0, 77, 0
2,46798, Note_on_c, 0, 73, 75
2,46810, Note_on_c, 0, 58, 69
2,46898, Note_on_c, 0, 58, 0
2,46907, Note_on_c, 0, 56, 66
2,47008, Note_on_c, 0, 73, 0
2,47011, Note_on_c, 0, 56, 0
2,47012, Note_on_c, 0, 76, 71
2,47018, Note_on_c, 0, 55, 71
2,47118, Note_on_c, 0, 73, 72
2,47118, Note_on_c, 0, 76, 0
2,47121, Note_on_c, 0, 58, 79
2,47123, Note_on_c, 0, 55, 0
2,47225, Note_on_c, 0, 58, 0
2,47231, Note_on_c, 0, 70, 73
2,47232, Note_on_c, 0, 61, 79
2,47232, Note_on_c, 0, 73, 0
2,47331, Note_on_c, 0, 59, 76
2,47335, Note_on_c, 0, 61, 0
2,47422, Note_on_c, 0, 58, 70
2,47433, Control_c, 0, 64, 30
2,47448, Note_on_c, 0, 73, 68
2,47449, Control_c, 0, 64, 63
2,47449, Note_on_c, 0, 70, 0
2,47456, Note_on_c, 0, 59, 0
2,47463, Note_on_c, 0, 58, 0
2,47465, Control_c, 0, 64, 70
2,47481, Control_c, 0, 64, 77
2,47496, Control_c, 0, 64, 85
2,47510, Control_c, 0, 64, 90
2,47526, Control_c, 0, 64, 93
2,47541, Control_c, 0, 64, 96
2,47557, Control_c, 0, 64, 100
2,47557, Note_on_c, 0, 61, 75
2,47564, Note_on_c, 0, 70, 73
2,47572, Control_c, 0, 64, 103
2,47574, Note_on_c, 0, 73, 0
2,47586, Control_c, 0, 64, 103
2,47598, Note_on_c, 0, 63, 75
2,47601, Note_on_c, 0, 61, 0
2,47602, Control_c, 0, 64, 103
2,47617, Control_c, 0, 64, 97
2,47631, Control_c, 0, 64, 83
2,47635, Note_on_c, 0, 70, 0
2,47644, Note_on_c, 0, 64, 75
2,47644, Note_on_c, 0, 67, 83
2,47647, Control_c, 0, 64, 66
2,47649, Note_on_c, 0, 63, 0
2,47662, Control_c, 0, 64, 0
2,47864, Note_on_c, 0, 64, 0
2,47875, Note_on_c, 0, 70, 71
2,47884, Note_on_c, 0, 63, 63
2,47884, Note_on_c, 0, 67, 0
2,47980, Note_on_c, 0, 61, 68
2,47980, Note_on_c, 0, 73, 71
2,47981, Note_on_c, 0, 63, 0
2,47987, Note_on_c, 0, 70, 0
2,48068, Note_on_c, 0, 61, 0
2,48079, Note_on_c, 0, 76, 75
2,48087, Note_on_c, 0, 73, 0
2,48095, Note_on_c, 0, 59, 68
2,48178, Note_on_c, 0, 59, 0
2,48203, Note_on_c, 0, 58, 56
2,48287, Note_on_c, 0, 58, 0
2,48292, Note_on_c, 0, 56, 59
2,48309, Note_on_c, 0, 73, 67
2,48333, Note_on_c, 0, 73, 0
2,48368, Note_on_c, 0, 56, 0
2,48411, Note_on_c, 0, 55, 47
2,48492, Note_on_c, 0, 76, 0
2,48508, Note_on_c, 0, 56, 61
2,48512, Note_on_c, 0, 71, 68
2,48521, Note_on_c, 0, 55, 0
2,48521, Note_on_c, 0, 74, 53
2,48541, Note_on_c, 0, 74, 0
2,48579, Note_on_c, 0, 56, 0
2,48616, Note_on_c, 0, 59, 54
2,48682, Note_on_c, 0, 59, 0
2,48731, Note_on_c, 0, 80, 71
2,48734, Note_on_c, 0, 58, 57
2,48777, Note_on_c, 0, 80, 0
2,48818, Note_on_c, 0, 58, 0
2,48824, Note_on_c, 0, 56, 59
2,48911, Note_on_c, 0, 56, 0
2,48949, Note_on_c, 0, 70, 69
2,48950, Note_on_c, 0, 73, 62
2,48952, Note_on_c, 0, 55, 57
2,48960, Note_on_c, 0, 71, 0
2,49017, Note_on_c, 0, 73, 0
2,49041, Note_on_c, 0, 55, 0
2,49068, Note_on_c, 0, 53, 53
2,49145, Note_on_c, 0, 53, 0
2,49164, Note_on_c, 0, 51, 49
2,49181, Note_on_c, 0, 79, 64
2,49223, Note_on_c, 0, 51, 0
2,49225, Note_on_c, 0, 79, 0
2,49270, Note_on_c, 0, 49, 50
2,49327, Note_on_c, 0, 70, 0
2,49362, Note_on_c, 0, 49, 0
2,49383, Note_on_c, 0, 47, 57
2,49390, Note_on_c, 0, 68, 77
2,49448, Note_on_c, 0, 68, 0
2,49477, Note_on_c, 0, 47, 0
2,49525, Note_on_c, 0, 49, 20
2,49600, Note_on_c, 0, 49, 0
2,49601, Note_on_c, 0, 51, 62
2,49603, Note_on_c, 0, 80, 73
2,49655, Note_on_c, 0, 51, 0
2,49658, Note_on_c, 0, 80, 0
2,49694, Note_on_c, 0, 79, 80
2,49710, Note_on_c, 0, 47, 60
2,49777, Note_on_c, 0, 47, 0
2,49798, Note_on_c, 0, 80, 84
2,49805, Note_on_c, 0, 44, 71
2,49808, Note_on_c, 0, 79, 0
2,49847, Note_on_c, 0, 44, 0
2,49890, Note_on_c, 0, 82, 83
2,49909, Note_on_c, 0, 80, 0
2,50004, Note_on_c, 0, 83, 75
2,50007, Note_on_c, 0, 56, 69
2,50077, Note_on_c, 0, 82, 0
2,50082, Note_on_c, 0, 56, 0
2,50102, Note_on_c, 0, 80, 80
2,50106, Note_on_c, 0, 53, 60
2,50123, Note_on_c, 0, 83, 0
2,50200, Note_on_c, 0, 80, 0
2,50203, Note_on_c, 0, 53, 0
2,50204, Note_on_c, 0, 49, 76
2,50207, Note_on_c, 0, 77, 82
2,50256, Note_on_c, 0, 49, 0
2,50310, Note_on_c, 0, 78, 80
2,50331, Note_on_c, 0, 77, 0
2,50420, Note_on_c, 0, 80, 82
2,50432, Note_on_c, 0, 59, 62
2,50437, Note_on_c, 0, 78, 0
2,50509, Note_on_c, 0, 59, 0
2,50509, Note_on_c, 0, 77, 79
2,50509, Note_on_c, 0, 80, 0
2,50521, Note_on_c, 0, 56, 61
2,50626, Note_on_c, 0, 73, 77
2,50627, Note_on_c, 0, 53, 72
2,50630, Note_on_c, 0, 56, 0
2,50655, Note_on_c, 0, 77, 0
2,50671, Note_on_c, 0, 53, 0
2,50726, Note_on_c, 0, 73, 0
2,50728, Note_on_c, 0, 75, 71
2,50848, Note_on_c, 0, 49, 63
2,50851, Note_on_c, 0, 77, 78
2,50858, Note_on_c, 0, 75, 0
2,50923, Note_on_c, 0, 49, 0
2,50940, Note_on_c, 0, 73, 77
2,50946, Note_on_c, 0, 46, 57
2,50952, Note_on_c, 0, 77, 0
2,51039, Note_on_c, 0, 73, 0
2,51040, Note_on_c, 0, 46, 0
2,51054, Note_on_c, 0, 70, 76
2,51058, Note_on_c, 0, 42, 61
2,51096, Note_on_c, 0, 42, 0
2,51154, Note_on_c, 0, 72, 69
2,51165, Note_on_c, 0, 70, 0
2,51263, Note_on_c, 0, 58, 54
2,51266, Note_on_c, 0, 73, 74
2,51273, Note_on_c, 0, 72, 0
2,51322, Note_on_c, 0, 58, 0
2,51345, Note_on_c, 0, 73, 0
2,51356, Note_on_c, 0, 54, 47
2,51370, Note_on_c, 0, 70, 67
2,51457, Note_on_c, 0, 54, 0
2,51461, Note_on_c, 0, 51, 59
2,51473, Note_on_c, 0, 78, 72
2,51496, Note_on_c, 0, 70, 0
2,51503, Note_on_c, 0, 51, 0
2,51575, Note_on_c, 0, 80, 74
2,51598, Note_on_c, 0, 78, 0
2,51676, Note_on_c, 0, 54, 47
2,51683, Note_on_c, 0, 82, 71
2,51688, Note_on_c, 0, 80, 0
2,51759, Note_on_c, 0, 54, 0
2,51773, Note_on_c, 0, 51, 46
2,51785, Note_on_c, 0, 78, 68
2,51805, Note_on_c, 0, 82, 0
2,51867, Note_on_c, 0, 51, 0
2,51878, Note_on_c, 0, 48, 64
2,51889, Note_on_c, 0, 78, 0
2,51898, Note_on_c, 0, 75, 67
2,51913, Note_on_c, 0, 48, 0
2,51995, Note_on_c, 0, 77, 70
2,52002, Note_on_c, 0, 75, 0
2,52095, Note_on_c, 0, 58, 51
2,52095, Note_on_c, 0, 78, 69
2,52100, Note_on_c, 0, 77, 0
2,52153, Note_on_c, 0, 58, 0
2,52189, Note_on_c, 0, 54, 48
2,52202, Note_on_c, 0, 75, 61
2,52202, Note_on_c, 0, 78, 0
2,52272, Note_on_c, 0, 75, 0
2,52299, Note_on_c, 0, 54, 0
2,52301, Note_on_c, 0, 51, 51
2,52305, Note_on_c, 0, 72, 62
2,52337, Note_on_c, 0, 51, 0
2,52397, Note_on_c, 0, 72, 0
2,52401, Note_on_c, 0, 73, 59
2,52511, Note_on_c, 0, 73, 0
2,52516, Note_on_c, 0, 75, 63
2,52517, Note_on_c, 0, 48, 35
2,52581, Note_on_c, 0, 48, 0
2,52588, Note_on_c, 0, 75, 0
2,52613, Note_on_c, 0, 44, 43
2,52616, Note_on_c, 0, 72, 60
2,52698, Note_on_c, 0, 44, 0
2,52699, Note_on_c, 0, 72, 0
2,52708, Note_on_c, 0, 41, 55
2,52718, Note_on_c, 0, 68, 59
2,52744, Note_on_c, 0, 41, 0
2,52801, Note_on_c, 0, 68, 0
2,52814, Note_on_c, 0, 70, 58
2,52893, Note_on_c, 0, 70, 0
2,52923, Note_on_c, 0, 56, 55
2,52934, Note_on_c, 0, 72, 49
2,52962, Note_on_c, 0, 72, 0
2,52976, Note_on_c, 0, 56, 0
2,53011, Note_on_c, 0, 53, 54
2,53014, Note_on_c, 0, 68, 54
2,53065, Note_on_c, 0, 68, 0
2,53104, Note_on_c, 0, 53, 0
2,53119, Note_on_c, 0, 50, 53
2,53123, Note_on_c, 0, 77, 60
2,53143, Note_on_c, 0, 50, 0
2,53204, Note_on_c, 0, 78, 64
2,53209, Note_on_c, 0, 77, 0
2,53326, Note_on_c, 0, 53, 48
2,53330, Note_on_c, 0, 80, 64
2,53332, Note_on_c, 0, 78, 0
2,53387, Note_on_c, 0, 53, 0
2,53423, Note_on_c, 0, 77, 63
2,53438, Note_on_c, 0, 50, 45
2,53447, Note_on_c, 0, 80, 0
2,53511, Note_on_c, 0, 50, 0
2,53519, Note_on_c, 0, 77, 0
2,53526, Note_on_c, 0, 46, 54
2,53537, Note_on_c, 0, 74, 57
2,53579, Note_on_c, 0, 46, 0
2,53625, Note_on_c, 0, 74, 0
2,53635, Note_on_c, 0, 75, 57
2,53730, Note_on_c, 0, 56, 55
2,53731, Note_on_c, 0, 75, 0
2,53737, Note_on_c, 0, 77, 62
2,53801, Note_on_c, 0, 56, 0
2,53808, Note_on_c, 0, 77, 0
2,53817, Note_on_c, 0, 53, 56
2,53832, Note_on_c, 0, 74, 54
2,53928, Note_on_c, 0, 53, 0
2,53930, Note_on_c, 0, 74, 0
2,53937, Note_on_c, 0, 70, 57
2,53938, Note_on_c, 0, 50, 58
2,53974, Control_c, 0, 67, 11
2,53977, Note_on_c, 0, 50, 0
2,53989, Control_c, 0, 67, 20
2,54006, Control_c, 0, 67, 37
2,54020, Note_on_c, 0, 70, 0
2,54021, Control_c, 0, 67, 62
2,54036, Control_c, 0, 67, 99
2,54050, Note_on_c, 0, 72, 48
2,54051, Control_c, 0, 67, 127
2,54151, Note_on_c, 0, 74, 60
2,54154, Note_on_c, 0, 72, 0
2,54155, Note_on_c, 0, 46, 52
2,54205, Note_on_c, 0, 46, 0
2,54236, Note_on_c, 0, 42, 49
2,54238, Note_on_c, 0, 74, 0
2,54249, Note_on_c, 0, 70, 60
2,54308, Note_on_c, 0, 70, 0
2,54315, Note_on_c, 0, 42, 0
2,54328, Note_on_c, 0, 39, 56
2,54351, Note_on_c, 0, 66, 60
2,54380, Note_on_c, 0, 39, 0
2,54431, Note_on_c, 0, 66, 0
2,54445, Note_on_c, 0, 68, 58
2,54554, Note_on_c, 0, 68, 0
2,54556, Note_on_c, 0, 70, 63
2,54566, Note_on_c, 0, 54, 42
2,54616, Note_on_c, 0, 70, 0
2,54620, Note_on_c, 0, 54, 0
2,54645, Note_on_c, 0, 51, 42
2,54655, Note_on_c, 0, 66, 56
2,54743, Note_on_c, 0, 51, 0
2,54756, Note_on_c, 0, 48, 58
2,54770, Note_on_c, 0, 75, 57
2,54774, Note_on_c, 0, 66, 0
2,54788, Note_on_c, 0, 48, 0
2,54877, Note_on_c, 0, 75, 0
2,54880, Note_on_c, 0, 77, 60
2,54972, Note_on_c, 0, 51, 47
2,54984, Note_on_c, 0, 77, 0
2,54988, Note_on_c, 0, 78, 65
2,55039, Note_on_c, 0, 51, 0
2,55079, Note_on_c, 0, 48, 44
2,55087, Note_on_c, 0, 75, 50
2,55090, Note_on_c, 0, 78, 0
2,55167, Note_on_c, 0, 48, 0
2,55177, Note_on_c, 0, 44, 63
2,55177, Note_on_c, 0, 75, 0
2,55199, Note_on_c, 0, 72, 57
2,55227, Note_on_c, 0, 44, 0
2,55280, Note_on_c, 0, 72, 0
2,55286, Note_on_c, 0, 73, 59
2,55394, Note_on_c, 0, 54, 55
2,55408, Note_on_c, 0, 73, 0
2,55413, Note_on_c, 0, 75, 60
2,55446, Note_on_c, 0, 54, 0
2,55477, Note_on_c, 0, 75, 0
2,55483, Note_on_c, 0, 51, 49
2,55498, Note_on_c, 0, 72, 56
2,55584, Note_on_c, 0, 51, 0
2,55586, Note_on_c, 0, 48, 65
2,55594, Note_on_c, 0, 72, 0
2,55601, Note_on_c, 0, 68, 62
2,55637, Note_on_c, 0, 48, 0
2,55705, Note_on_c, 0, 68, 0
2,55706, Note_on_c, 0, 70, 63
2,55732, Control_c, 0, 67, 96
2,55747, Control_c, 0, 67, 42
2,55763, Control_c, 0, 67, 0
2,55787, Note_on_c, 0, 70, 0
2,55808, Note_on_c, 0, 44, 60
2,55811, Note_on_c, 0, 72, 70
2,55883, Note_on_c, 0, 44, 0
2,55900, Note_on_c, 0, 41, 65
2,55913, Note_on_c, 0, 68, 69
2,55918, Note_on_c, 0, 72, 0
2,55993, Note_on_c, 0, 68, 0
2,56008, Note_on_c, 0, 41, 0
2,56015, Note_on_c, 0, 37, 77
2,56025, Note_on_c, 0, 65, 75
2,56118, Note_on_c, 0, 66, 76
2,56121, Note_on_c, 0, 65, 0
2,56227, Note_on_c, 0, 66, 0
2,56227, Note_on_c, 0, 68, 75
2,56329, Note_on_c, 0, 68, 0
2,56336, Note_on_c, 0, 65, 74
2,56457, Note_on_c, 0, 61, 74
2,56457, Note_on_c, 0, 65, 0
2,56469, Note_on_c, 0, 37, 0
2,56524, Note_on_c, 0, 61, 0
2,56561, Note_on_c, 0, 65, 76
2,56659, Note_on_c, 0, 65, 0
2,56659, Note_on_c, 0, 68, 76
2,56754, Note_on_c, 0, 70, 78
2,56765, Note_on_c, 0, 68, 0
2,56837, Note_on_c, 0, 70, 0
2,56869, Note_on_c, 0, 71, 74
2,56965, Note_on_c, 0, 70, 68
2,56988, Note_on_c, 0, 71, 0
2,57054, Note_on_c, 0, 70, 0
2,57066, Note_on_c, 0, 59, 57
2,57068, Note_on_c, 0, 68, 74
2,57118, Note_on_c, 0, 59, 0
2,57167, Note_on_c, 0, 49, 65
2,57171, Note_on_c, 0, 70, 78
2,57215, Note_on_c, 0, 68, 0
2,57254, Note_on_c, 0, 70, 0
2,57259, Note_on_c, 0, 49, 0
2,57281, Note_on_c, 0, 78, 80
2,57282, Note_on_c, 0, 58, 72
2,57322, Note_on_c, 0, 78, 0
2,57331, Note_on_c, 0, 58, 0
2,57371, Note_on_c, 0, 49, 67
2,57463, Note_on_c, 0, 49, 0
2,57493, Note_on_c, 0, 56, 66
2,57517, Note_on_c, 0, 72, 68
2,57539, Note_on_c, 0, 72, 0
2,57563, Note_on_c, 0, 56, 0
2,57597, Note_on_c, 0, 49, 68
2,57692, Note_on_c, 0, 49, 0
2,57712, Note_on_c, 0, 54, 67
2,57717, Note_on_c, 0, 70, 78
2,57797, Note_on_c, 0, 69, 52
2,57798, Note_on_c, 0, 70, 0
2,57804, Note_on_c, 0, 54, 0
2,57808, Note_on_c, 0, 49, 72
2,57934, Note_on_c, 0, 49, 0
2,57943, Note_on_c, 0, 53, 68
2,57949, Note_on_c, 0, 68, 71
2,57954, Note_on_c, 0, 69, 0
2,58035, Note_on_c, 0, 68, 0
2,58038, Note_on_c, 0, 53, 0
2,58039, Note_on_c, 0, 66, 75
2,58041, Note_on_c, 0, 51, 64
2,58127, Note_on_c, 0, 66, 0
2,58141, Note_on_c, 0, 68, 80
2,58146, Note_on_c, 0, 51, 0
2,58147, Note_on_c, 0, 53, 74
2,58176, Note_on_c, 0, 53, 0
2,58227, Note_on_c, 0, 68, 0
2,58238, Note_on_c, 0, 61, 71
2,58331, Note_on_c, 0, 61, 0
2,58347, Note_on_c, 0, 44, 67
2,58362, Note_on_c, 0, 65, 64
2,58379, Note_on_c, 0, 44, 0
2,58438, Note_on_c, 0, 65, 0
2,58439, Note_on_c, 0, 68, 68
2,58528, Note_on_c, 0, 68, 0
2,58568, Note_on_c, 0, 70, 68
2,58660, Note_on_c, 0, 70, 0
2,58664, Note_on_c, 0, 68, 61
2,58760, Note_on_c, 0, 68, 0
2,58766, Note_on_c, 0, 58, 50
2,58771, Note_on_c, 0, 66, 62
2,58829, Note_on_c, 0, 58, 0
2,58856, Note_on_c, 0, 49, 52
2,58878, Note_on_c, 0, 68, 67
2,58908, Note_on_c, 0, 66, 0
2,58926, Note_on_c, 0, 68, 0
2,58942, Note_on_c, 0, 49, 0
2,58978, Note_on_c, 0, 56, 61
2,58980, Note_on_c, 0, 77, 73
2,59004, Note_on_c, 0, 77, 0
2,59023, Note_on_c, 0, 56, 0
2,59067, Note_on_c, 0, 49, 58
2,59173, Note_on_c, 0, 49, 0
2,59197, Note_on_c, 0, 54, 54
2,59199, Note_on_c, 0, 73, 75
2,59241, Note_on_c, 0, 73, 0
2,59276, Note_on_c, 0, 54, 0
2,59300, Note_on_c, 0, 49, 57
2,59394, Note_on_c, 0, 49, 0
2,59413, Note_on_c, 0, 53, 61
2,59416, Note_on_c, 0, 68, 75
2,59514, Note_on_c, 0, 53, 0
2,59535, Note_on_c, 0, 49, 58
2,59627, Note_on_c, 0, 49, 0
2,59638, Note_on_c, 0, 66, 66
2,59639, Note_on_c, 0, 51, 59
2,59649, Note_on_c, 0, 68, 0
2,59726, Note_on_c, 0, 66, 0
2,59727, Note_on_c, 0, 51, 0
2,59743, Note_on_c, 0, 65, 56
2,59754, Note_on_c, 0, 49, 59
2,59840, Note_on_c, 0, 66, 72
2,59844, Note_on_c, 0, 65, 0
2,59848, Note_on_c, 0, 49, 0
2,59854, Note_on_c, 0, 51, 61
2,59887, Note_on_c, 0, 51, 0
2,59912, Note_on_c, 0, 66, 0
2,59935, Note_on_c, 0, 60, 58
2,60047, Note_on_c, 0, 60, 0
2,60053, Note_on_c, 0, 44, 58
2,60057, Note_on_c, 0, 63, 52
2,60087, Note_on_c, 0, 44, 0
2,60132, Note_on_c, 0, 63, 0
2,60142, Note_on_c, 0, 66, 58
2,60246, Note_on_c, 0, 66, 0
2,60276, Note_on_c, 0, 68, 58
2,60369, Note_on_c, 0, 68, 0
2,60374, Note_on_c, 0, 66, 59
2,60454, Note_on_c, 0, 66, 0
2,60473, Note_on_c, 0, 65, 55
2,60479, Note_on_c, 0, 56, 49
2,60533, Note_on_c, 0, 56, 0
2,60567, Note_on_c, 0, 66, 61
2,60574, Note_on_c, 0, 44, 50
2,60576, Note_on_c, 0, 65, 0
2,60638, Note_on_c, 0, 66, 0
2,60642, Note_on_c, 0, 44, 0
2,60684, Note_on_c, 0, 54, 57
2,60686, Note_on_c, 0, 75, 58
2,60720, Note_on_c, 0, 75, 0
2,60735, Note_on_c, 0, 54, 0
2,60778, Note_on_c, 0, 44, 48
2,60849, Note_on_c, 0, 44, 0
2,60898, Note_on_c, 0, 72, 65
2,60899, Note_on_c, 0, 53, 51
2,60933, Note_on_c, 0, 72, 0
2,60953, Note_on_c, 0, 53, 0
2,61008, Note_on_c, 0, 44, 51
2,61076, Note_on_c, 0, 44, 0
2,61108, Note_on_c, 0, 51, 57
2,61108, Note_on_c, 0, 66, 62
2,61191, Note_on_c, 0, 51, 0
2,61209, Note_on_c, 0, 44, 55
2,61292, Note_on_c, 0, 44, 0
2,61312, Note_on_c, 0, 49, 57
2,61318, Note_on_c, 0, 66, 0
2,61325, Note_on_c, 0, 65, 61
2,61405, Note_on_c, 0, 49, 0
2,61417, Note_on_c, 0, 63, 64
2,61421, Note_on_c, 0, 65, 0
2,61424, Note_on_c, 0, 48, 54
2,61505, Note_on_c, 0, 48, 0
2,61510, Note_on_c, 0, 63, 0
2,61522, Note_on_c, 0, 49, 60
2,61539, Note_on_c, 0, 65, 69
2,61609, Note_on_c, 0, 49, 0
2,61616, Note_on_c, 0, 44, 62
2,61619, Note_on_c, 0, 65, 0
2,61630, Note_on_c, 0, 68, 70
2,61709, Note_on_c, 0, 44, 0
2,61727, Note_on_c, 0, 70, 72
2,61733, Note_on_c, 0, 53, 62
2,61741, Note_on_c, 0, 68, 0
2,61812, Note_on_c, 0, 70, 0
2,61835, Note_on_c, 0, 72, 72
2,61841, Note_on_c, 0, 53, 0
2,61844, Note_on_c, 0, 51, 68
2,61928, Note_on_c, 0, 51, 0
2,61936, Note_on_c, 0, 72, 0
2,61936, Note_on_c, 0, 73, 74
2,61950, Note_on_c, 0, 53, 66
2,62006, Note_on_c, 0, 53, 0
2,62030, Note_on_c, 0, 75, 71
2,62033, Note_on_c, 0, 44, 66
2,62036, Note_on_c, 0, 73, 0
2,62111, Note_on_c, 0, 75, 0
2,62118, Note_on_c, 0, 44, 0
2,62144, Note_on_c, 0, 77, 76
2,62151, Note_on_c, 0, 56, 68
2,62241, Note_on_c, 0, 75, 78
2,62250, Note_on_c, 0, 56, 0
2,62253, Note_on_c, 0, 54, 68
2,62267, Note_on_c, 0, 77, 0
2,62340, Note_on_c, 0, 54, 0
2,62352, Note_on_c, 0, 56, 70
2,62355, Note_on_c, 0, 78, 77
2,62356, Note_on_c, 0, 75, 0
2,62419, Note_on_c, 0, 56, 0
2,62445, Note_on_c, 0, 77, 75
2,62448, Note_on_c, 0, 44, 68
2,62482, Note_on_c, 0, 78, 0
2,62536, Note_on_c, 0, 44, 0
2,62560, Note_on_c, 0, 75, 71
2,62573, Note_on_c, 0, 58, 67
2,62605, Note_on_c, 0, 77, 0
2,62606, Note_on_c, 0, 58, 0
2,62610, Control_c, 0, 64, 56
2,62625, Control_c, 0, 64, 67
2,62641, Control_c, 0, 64, 77
2,62643, Note_on_c, 0, 44, 65
2,62649, Note_on_c, 0, 73, 73
2,62651, Note_on_c, 0, 75, 0
2,62656, Control_c, 0, 64, 88
2,62670, Control_c, 0, 64, 93
2,62674, Note_on_c, 0, 73, 0
2,62682, Note_on_c, 0, 44, 0
2,62686, Control_c, 0, 64, 95
2,62701, Control_c, 0, 64, 95
2,62747, Control_c, 0, 64, 93
2,62763, Control_c, 0, 64, 83
2,62773, Note_on_c, 0, 82, 80
2,62777, Control_c, 0, 64, 69
2,62787, Note_on_c, 0, 60, 75
2,62792, Control_c, 0, 64, 0
2,62836, Note_on_c, 0, 82, 0
2,62843, Note_on_c, 0, 80, 69
2,62869, Note_on_c, 0, 60, 0
2,62875, Note_on_c, 0, 61, 74
2,62876, Note_on_c, 0, 80, 0
2,62896, Note_on_c, 0, 79, 66
2,62942, Note_on_c, 0, 79, 0
2,62947, Note_on_c, 0, 61, 0
2,62950, Note_on_c, 0, 80, 70
2,62962, Note_on_c, 0, 63, 68
2,62988, Note_on_c, 0, 82, 72
2,62991, Note_on_c, 0, 80, 0
2,63032, Note_on_c, 0, 63, 0
2,63044, Note_on_c, 0, 82, 0
2,63049, Note_on_c, 0, 60, 66
2,63049, Note_on_c, 0, 80, 71
2,63113, Note_on_c, 0, 80, 0
2,63120, Note_on_c, 0, 82, 70
2,63144, Note_on_c, 0, 60, 0
2,63166, Note_on_c, 0, 56, 63
2,63167, Note_on_c, 0, 82, 0
2,63174, Note_on_c, 0, 80, 72
2,63242, Note_on_c, 0, 80, 0
2,63249, Note_on_c, 0, 82, 72
2,63259, Note_on_c, 0, 56, 0
2,63260, Note_on_c, 0, 60, 67
2,63306, Note_on_c, 0, 82, 0
2,63309, Note_on_c, 0, 80, 68
2,63367, Note_on_c, 0, 60, 0
2,63369, Note_on_c, 0, 63, 71
2,63371, Note_on_c, 0, 80, 0
2,63371, Note_on_c, 0, 82, 71
2,63427, Note_on_c, 0, 82, 0
2,63428, Note_on_c, 0, 80, 64
2,63445, Note_on_c, 0, 63, 0
2,63463, Note_on_c, 0, 65, 67
2,63476, Note_on_c, 0, 80, 0
2,63484, Note_on_c, 0, 82, 59
2,63547, Note_on_c, 0, 80, 69
2,63551, Note_on_c, 0, 82, 0
2,63566, Note_on_c, 0, 66, 75
2,63569, Note_on_c, 0, 65, 0
2,63591, Note_on_c, 0, 80, 0
2,63634, Note_on_c, 0, 66, 0
2,63667, Note_on_c, 0, 65, 67
2,63685, Note_on_c, 0, 80, 74
2,63741, Note_on_c, 0, 65, 0
2,63777, Note_on_c, 0, 63, 71
2,63778, Note_on_c, 0, 78, 77
2,63781, Note_on_c, 0, 80, 0
2,63841, Note_on_c, 0, 63, 0
2,63864, Note_on_c, 0, 65, 69
2,63878, Note_on_c, 0, 78, 0
2,63879, Note_on_c, 0, 80, 78
2,63981, Note_on_c, 0, 80, 0
2,63982, Note_on_c, 0, 77, 81
2,63995, Note_on_c, 0, 73, 79
2,64009, Note_on_c, 0, 65, 0
2,64017, Note_on_c, 0, 73, 0
2,64072, Note_on_c, 0, 77, 0
2,64082, Note_on_c, 0, 80, 68
2,64202, Note_on_c, 0, 80, 0
2,64211, Note_on_c, 0, 75, 66
2,64215, Note_on_c, 0, 68, 82
2,64243, Note_on_c, 0, 68, 0
2,64291, Note_on_c, 0, 75, 0
2,64305, Note_on_c, 0, 80, 69
2,64413, Note_on_c, 0, 80, 0
2,64417, Note_on_c, 0, 65, 89
2,64422, Note_on_c, 0, 73, 69
2,64498, Note_on_c, 0, 73, 0
2,64514, Note_on_c, 0, 80, 69
2,64612, Note_on_c, 0, 65, 0
2,64622, Note_on_c, 0, 80, 0
2,64628, Note_on_c, 0, 72, 74
2,64639, Note_on_c, 0, 63, 66
2,64715, Note_on_c, 0, 63, 0
2,64721, Note_on_c, 0, 72, 0
2,64722, Note_on_c, 0, 70, 76
2,64731, Note_on_c, 0, 61, 62
2,64824, Note_on_c, 0, 61, 0
2,64826, Note_on_c, 0, 70, 0
2,64839, Note_on_c, 0, 72, 72
2,64850, Note_on_c, 0, 62, 48
2,64878, Note_on_c, 0, 62, 0
2,64918, Note_on_c, 0, 72, 0
2,64926, Note_on_c, 0, 75, 70
2,64940, Note_on_c, 0, 56, 62
2,64996, Note_on_c, 0, 75, 0
2,65029, Note_on_c, 0, 56, 0
2,65030, Note_on_c, 0, 60, 69
2,65035, Note_on_c, 0, 77, 73
2,65134, Note_on_c, 0, 60, 0
2,65135, Note_on_c, 0, 78, 69
2,65138, Note_on_c, 0, 63, 71
2,65139, Note_on_c, 0, 77, 0
2,65219, Note_on_c, 0, 63, 0
2,65242, Note_on_c, 0, 65, 66
2,65243, Note_on_c, 0, 80, 78
2,65249, Note_on_c, 0, 78, 0
2,65322, Note_on_c, 0, 65, 0
2,65335, Note_on_c, 0, 63, 72
2,65354, Note_on_c, 0, 78, 76
2,65382, Note_on_c, 0, 80, 0
2,65428, Note_on_c, 0, 63, 0
2,65434, Note_on_c, 0, 61, 75
2,65442, Note_on_c, 0, 78, 0
2,65447, Note_on_c, 0, 77, 73
2,65529, Note_on_c, 0, 61, 0
2,65535, Note_on_c, 0, 63, 78
2,65549, Note_on_c, 0, 77, 0
2,65549, Note_on_c, 0, 80, 72
2,65620, Note_on_c, 0, 63, 0
2,65656, Note_on_c, 0, 72, 82
2,65657, Note_on_c, 0, 80, 0
2,65669, Note_on_c, 0, 75, 71
2,65688, Note_on_c, 0, 72, 0
2,65741, Note_on_c, 0, 75, 0
2,65762, Note_on_c, 0, 80, 67
2,65874, Note_on_c, 0, 80, 0
2,65881, Note_on_c, 0, 68, 82
2,65891, Note_on_c, 0, 73, 61
2,65913, Note_on_c, 0, 68, 0
2,65962, Note_on_c, 0, 73, 0
2,65990, Note_on_c, 0, 80, 58
2,66074, Note_on_c, 0, 80, 0
2,66088, Note_on_c, 0, 63, 78
2,66098, Note_on_c, 0, 72, 62
2,66159, Note_on_c, 0, 72, 0
2,66190, Note_on_c, 0, 80, 62
2,66287, Note_on_c, 0, 63, 0
2,66288, Note_on_c, 0, 80, 0
2,66296, Note_on_c, 0, 70, 67
2,66308, Note_on_c, 0, 61, 62
2,66389, Note_on_c, 0, 61, 0
2,66389, Note_on_c, 0, 70, 0
2,66398, Note_on_c, 0, 60, 57
2,66407, Note_on_c, 0, 68, 70
2,66471, Note_on_c, 0, 60, 0
2,66495, Note_on_c, 0, 61, 58
2,66513, Note_on_c, 0, 68, 0
2,66513, Note_on_c, 0, 70, 69
2,66573, Note_on_c, 0, 61, 0
2,66590, Note_on_c, 0, 56, 57
2,66609, Note_on_c, 0, 70, 0
2,66614, Note_on_c, 0, 73, 68
2,66684, Note_on_c, 0, 56, 0
2,66694, Control_c, 0, 67, 9
2,66709, Control_c, 0, 67, 16
2,66713, Note_on_c, 0, 73, 0
2,66716, Note_on_c, 0, 75, 66
2,66718, Note_on_c, 0, 60, 27
2,66725, Control_c, 0, 67, 32
2,66740, Control_c, 0, 67, 53
2,66755, Control_c, 0, 67, 82
2,66765, Note_on_c, 0, 75, 0
2,66770, Control_c, 0, 67, 115
2,66773, Note_on_c, 0, 60, 0
2,66785, Control_c, 0, 67, 127
2,66799, Note_on_c, 0, 65, 54
2,66813, Note_on_c, 0, 77, 69
2,66874, Note_on_c, 0, 65, 0
2,66896, Note_on_c, 0, 77, 0
2,66907, Note_on_c, 0, 63, 54
2,66910, Note_on_c, 0, 78, 68
2,66988, Note_on_c, 0, 63, 0
2,66993, Note_on_c, 0, 78, 0
2,66994, Note_on_c, 0, 61, 59
2,67012, Note_on_c, 0, 77, 70
2,67089, Note_on_c, 0, 61, 0
2,67109, Note_on_c, 0, 77, 0
2,67113, Note_on_c, 0, 60, 56
2,67116, Note_on_c, 0, 75, 66
2,67204, Note_on_c, 0, 75, 0
2,67211, Note_on_c, 0, 60, 0
2,67220, Note_on_c, 0, 77, 60
2,67224, Note_on_c, 0, 61, 60
2,67293, Note_on_c, 0, 61, 0
2,67305, Note_on_c, 0, 77, 0
2,67325, Note_on_c, 0, 73, 63
2,67333, Note_on_c, 0, 70, 73
2,67360, Note_on_c, 0, 70, 0
2,67433, Note_on_c, 0, 73, 0
2,67443, Note_on_c, 0, 75, 53
2,67526, Note_on_c, 0, 75, 0
2,67545, Note_on_c, 0, 67, 66
2,67552, Note_on_c, 0, 72, 60
2,67574, Note_on_c, 0, 67, 0
2,67608, Note_on_c, 0, 72, 0
2,67653, Note_on_c, 0, 75, 55
2,67755, Note_on_c, 0, 61, 64
2,67763, Note_on_c, 0, 75, 0
2,67764, Note_on_c, 0, 70, 64
2,67839, Note_on_c, 0, 70, 0
2,67874, Note_on_c, 0, 75, 55
2,67938, Note_on_c, 0, 61, 0
2,67963, Note_on_c, 0, 75, 0
2,67970, Note_on_c, 0, 60, 56
2,67976, Note_on_c, 0, 68, 66
2,68048, Note_on_c, 0, 68, 0
2,68053, Note_on_c, 0, 60, 0
2,68071, Note_on_c, 0, 58, 57
2,68075, Note_on_c, 0, 67, 63
2,68128, Note_on_c, 0, 67, 0
2,68167, Note_on_c, 0, 58, 0
2,68173, Note_on_c, 0, 68, 71
2,68184, Note_on_c, 0, 60, 59
2,68214, Control_c, 0, 67, 107
2,68229, Control_c, 0, 67, 68
2,68245, Control_c, 0, 67, 19
2,68246, Note_on_c, 0, 68, 0
2,68253, Note_on_c, 0, 60, 0
2,68260, Control_c, 0, 67, 0
2,68279, Note_on_c, 0, 56, 58
2,68284, Note_on_c, 0, 72, 71
2,68375, Note_on_c, 0, 72, 0
2,68376, Note_on_c, 0, 56, 0
2,68378, Note_on_c, 0, 58, 63
2,68381, Note_on_c, 0, 73, 73
2,68470, Note_on_c, 0, 58, 0
2,68471, Note_on_c, 0, 60, 65
2,68476, Note_on_c, 0, 75, 76
2,68483, Note_on_c, 0, 73, 0
2,68555, Note_on_c, 0, 75, 0
2,68570, Note_on_c, 0, 60, 0
2,68574, Note_on_c, 0, 61, 70
2,68574, Note_on_c, 0, 77, 77
2,68657, Note_on_c, 0, 61, 0
2,68662, Note_on_c, 0, 78, 78
2,68675, Note_on_c, 0, 77, 0
2,68681, Note_on_c, 0, 63, 63
2,68765, Note_on_c, 0, 63, 0
2,68772, Note_on_c, 0, 80, 79
2,68775, Note_on_c, 0, 78, 0
2,68780, Note_on_c, 0, 65, 63
2,68863, Note_on_c, 0, 80, 0
2,68869, Note_on_c, 0, 82, 79
2,68872, Note_on_c, 0, 65, 0
2,68876, Note_on_c, 0, 63, 70
2,68956, Note_on_c, 0, 82, 0
2,68965, Note_on_c, 0, 63, 0
2,68983, Note_on_c, 0, 66, 66
2,68984, Note_on_c, 0, 72, 81
2,69022, Note_on_c, 0, 72, 0
2,69063, Note_on_c, 0, 66, 0
2,69079, Note_on_c, 0, 65, 63
2,69176, Note_on_c, 0, 63, 69
2,69180, Note_on_c, 0, 65, 0
2,69185, Note_on_c, 0, 68, 83
2,69241, Note_on_c, 0, 68, 0
2,69265, Note_on_c, 0, 61, 66
2,69268, Note_on_c, 0, 63, 0
2,69350, Note_on_c, 0, 61, 0
2,69382, Note_on_c, 0, 66, 77
2,69385, Note_on_c, 0, 70, 84
2,69424, Note_on_c, 0, 66, 0
2,69489, Note_on_c, 0, 68, 82
2,69510, Note_on_c, 0, 70, 0
2,69579, Note_on_c, 0, 68, 0
2,69590, Note_on_c, 0, 66, 82
2,69599, Note_on_c, 0, 58, 63
2,69686, Note_on_c, 0, 68, 81
2,69691, Note_on_c, 0, 58, 0
2,69694, Note_on_c, 0, 60, 63
2,69711, Note_on_c, 0, 66, 0
2,69746, Note_on_c, 0, 68, 0
2,69784, Note_on_c, 0, 60, 0
2,69789, Note_on_c, 0, 61, 74
2,69792, Note_on_c, 0, 77, 87
2,69830, Note_on_c, 0, 77, 0
2,69868, Note_on_c, 0, 61, 0
2,69896, Note_on_c, 0, 60, 65
2,69999, Note_on_c, 0, 60, 0
2,70002, Note_on_c, 0, 73, 85
2,70006, Note_on_c, 0, 58, 71
2,70050, Note_on_c, 0, 73, 0
2,70089, Note_on_c, 0, 58, 0
2,70096, Note_on_c, 0, 56, 70
2,70187, Note_on_c, 0, 56, 0
2,70202, Note_on_c, 0, 58, 86
2,70203, Note_on_c, 0, 68, 92
2,70432, Note_on_c, 0, 66, 81
2,70467, Note_on_c, 0, 68, 0
2,70513, Note_on_c, 0, 66, 0
2,70529, Note_on_c, 0, 65, 78
2,70589, Note_on_c, 0, 65, 0
2,70626, Note_on_c, 0, 66, 88
2,70671, Note_on_c, 0, 66, 0
2,70713, Note_on_c, 0, 58, 0
2,70721, Note_on_c, 0, 56, 63
2,70822, Note_on_c, 0, 56, 0
2,70829, Note_on_c, 0, 54, 59
2,70832, Note_on_c, 0, 75, 79
2,70879, Note_on_c, 0, 75, 0
2,70904, Note_on_c, 0, 54, 0
2,70923, Note_on_c, 0, 58, 64
2,71016, Note_on_c, 0, 58, 0
2,71047, Note_on_c, 0, 56, 61
2,71050, Note_on_c, 0, 65, 77
2,71087, Note_on_c, 0, 65, 0
2,71134, Note_on_c, 0, 56, 0
2,71140, Note_on_c, 0, 54, 64
2,71241, Note_on_c, 0, 54, 0
2,71254, Note_on_c, 0, 53, 65
2,71263, Note_on_c, 0, 73, 82
2,71307, Note_on_c, 0, 73, 0
2,71341, Note_on_c, 0, 53, 0
2,71364, Note_on_c, 0, 56, 66
2,71422, Note_on_c, 0, 56, 0
2,71467, Note_on_c, 0, 63, 75
2,71476, Note_on_c, 0, 54, 66
2,71494, Note_on_c, 0, 63, 0
2,71576, Note_on_c, 0, 53, 59
2,71637, Note_on_c, 0, 54, 0
2,71655, Note_on_c, 0, 54, 33
2,71657, Note_on_c, 0, 53, 0
2,71675, Note_on_c, 0, 72, 71
2,71704, Note_on_c, 0, 72, 0
2,71753, Note_on_c, 0, 54, 0
2,71767, Note_on_c, 0, 51, 66
2,71862, Note_on_c, 0, 51, 0
2,71877, Note_on_c, 0, 53, 72
2,71881, Note_on_c, 0, 61, 78
2,71926, Note_on_c, 0, 61, 0
2,72098, Note_on_c, 0, 73, 74
2,72137, Note_on_c, 0, 73, 0
2,72167, Note_on_c, 0, 53, 0
2,72181, Note_on_c, 0, 56, 61
2,72192, Note_on_c, 0, 72, 73
2,72273, Note_on_c, 0, 56, 0
2,72281, Note_on_c, 0, 73, 75
2,72282, Note_on_c, 0, 58, 75
2,72282, Note_on_c, 0, 72, 0
2,72353, Note_on_c, 0, 58, 0
2,72376, Note_on_c, 0, 75, 77
2,72378, Note_on_c, 0, 60, 60
2,72384, Note_on_c, 0, 73, 0
2,72443, Note_on_c, 0, 75, 0
2,72454, Note_on_c, 0, 60, 0
2,72476, Note_on_c, 0, 61, 67
2,72485, Note_on_c, 0, 77, 77
2,72580, Note_on_c, 0, 63, 70
2,72580, Note_on_c, 0, 78, 77
2,72587, Note_on_c, 0, 77, 0
2,72672, Note_on_c, 0, 63, 0
2,72680, Note_on_c, 0, 65, 78
2,72683, Note_on_c, 0, 80, 84
2,72687, Note_on_c, 0, 78, 0
2,72701, Note_on_c, 0, 61, 0
2,72782, Note_on_c, 0, 63, 77
2,72783, Note_on_c, 0, 65, 0
2,72785, Note_on_c, 0, 78, 83
2,72788, Note_on_c, 0, 80, 0
2,72860, Note_on_c, 0, 78, 0
2,72879, Note_on_c, 0, 63, 0
2,72886, Note_on_c, 0, 61, 72
2,72888, Note_on_c, 0, 77, 82
2,72978, Note_on_c, 0, 63, 77
2,72978, Note_on_c, 0, 78, 75
2,72984, Note_on_c, 0, 61, 0
2,72991, Note_on_c, 0, 77, 0
2,73064, Note_on_c, 0, 63, 0
2,73083, Note_on_c, 0, 60, 73
2,73083, Note_on_c, 0, 78, 0
2,73085, Note_on_c, 0, 80, 81
2,73087, Note_on_c, 0, 72, 81
2,73111, Note_on_c, 0, 72, 0
2,73194, Note_on_c, 0, 78, 75
2,73216, Note_on_c, 0, 80, 0
2,73261, Note_on_c, 0, 78, 0
2,73308, Note_on_c, 0, 77, 76
2,73313, Note_on_c, 0, 68, 80
2,73337, Note_on_c, 0, 68, 0
2,73402, Note_on_c, 0, 75, 66
2,73408, Note_on_c, 0, 77, 0
2,73503, Note_on_c, 0, 75, 0
2,73513, Note_on_c, 0, 63, 80
2,73513, Note_on_c, 0, 77, 86
2,73679, Note_on_c, 0, 63, 0
2,73723, Note_on_c, 0, 60, 0
2,73749, Note_on_c, 0, 61, 70
2,73825, Note_on_c, 0, 61, 0
2,73834, Note_on_c, 0, 60, 69
2,73917, Note_on_c, 0, 60, 0
2,73919, Note_on_c, 0, 58, 70
2,73927, Note_on_c, 0, 61, 76
2,73988, Note_on_c, 0, 61, 0
2,74025, Note_on_c, 0, 77, 0
2,74027, Note_on_c, 0, 75, 60
2,74139, Note_on_c, 0, 75, 0
2,74148, Note_on_c, 0, 70, 87
2,74154, Note_on_c, 0, 73, 70
2,74176, Note_on_c, 0, 70, 0
2,74229, Note_on_c, 0, 73, 0
2,74237, Note_on_c, 0, 77, 66
2,74344, Note_on_c, 0, 58, 0
2,74359, Note_on_c, 0, 60, 85
2,74359, Note_on_c, 0, 77, 0
2,74369, Note_on_c, 0, 75, 64
2,74415, Note_on_c, 0, 60, 0
2,74455, Note_on_c, 0, 75, 0
2,74460, Note_on_c, 0, 73, 59
2,74555, Note_on_c, 0, 73, 0
2,74577, Note_on_c, 0, 68, 90
2,74586, Note_on_c, 0, 72, 67
2,74594, Note_on_c, 0, 56, 54
2,74613, Note_on_c, 0, 68, 0
2,74622, Note_on_c, 0, 56, 0
2,74671, Note_on_c, 0, 72, 0
2,74686, Note_on_c, 0, 75, 52
2,74786, Note_on_c, 0, 75, 0
2,74792, Note_on_c, 0, 58, 73
2,74795, Note_on_c, 0, 73, 70
2,74842, Note_on_c, 0, 58, 0
2,74890, Note_on_c, 0, 72, 69
2,74894, Note_on_c, 0, 73, 0
2,74980, Note_on_c, 0, 72, 0
2,74998, Note_on_c, 0, 51, 81
2,75006, Note_on_c, 0, 73, 72
2,75009, Note_on_c, 0, 67, 75
2,75041, Note_on_c, 0, 51, 0
2,75069, Note_on_c, 0, 73, 0
2,75099, Note_on_c, 0, 70, 73
2,75108, Note_on_c, 0, 67, 0
2,75143, Note_on_c, 0, 70, 0
2,75207, Note_on_c, 0, 70, 71
2,75208, Note_on_c, 0, 56, 72
2,75300, Note_on_c, 0, 72, 76
2,75316, Note_on_c, 0, 70, 0
2,75326, Note_on_c, 0, 72, 0
2,75409, Note_on_c, 0, 68, 65
2,75425, Note_on_c, 0, 75, 42
2,75432, Note_on_c, 0, 74, 57
2,75453, Note_on_c, 0, 74, 0
2,75454, Note_on_c, 0, 75, 0
2,75494, Note_on_c, 0, 68, 0
2,75501, Note_on_c, 0, 66, 71
2,75608, Note_on_c, 0, 56, 0
2,75611, Note_on_c, 0, 68, 81
2,75613, Note_on_c, 0, 78, 86
2,75631, Note_on_c, 0, 66, 0
2,75646, Note_on_c, 0, 68, 0
2,75705, Note_on_c, 0, 70, 64
2,75790, Note_on_c, 0, 70, 0
2,75825, Note_on_c, 0, 72, 69
2,75827, Note_on_c, 0, 56, 84
2,75873, Note_on_c, 0, 56, 0
2,75907, Note_on_c, 0, 72, 0
2,75932, Note_on_c, 0, 68, 65
2,76027, Note_on_c, 0, 68, 0
2,76045, Note_on_c, 0, 58, 78
2,76045, Note_on_c, 0, 73, 69
2,76066, Note_on_c, 0, 78, 0
2,76140, Note_on_c, 0, 56, 73
2,76144, Note_on_c, 0, 58, 0
2,76147, Note_on_c, 0, 72, 68
2,76150, Note_on_c, 0, 73, 0
2,76202, Note_on_c, 0, 56, 0
2,76232, Note_on_c, 0, 72, 0
2,76242, Note_on_c, 0, 54, 69
2,76245, Note_on_c, 0, 70, 74
2,76301, Note_on_c, 0, 70, 0
2,76328, Note_on_c, 0, 56, 79
2,76340, Note_on_c, 0, 54, 0
2,76356, Note_on_c, 0, 72, 70
2,76406, Note_on_c, 0, 72, 0
2,76417, Note_on_c, 0, 56, 0
2,76435, Note_on_c, 0, 65, 84
2,76435, Note_on_c, 0, 77, 80
2,76445, Note_on_c, 0, 73, 78
2,76472, Note_on_c, 0, 65, 0
2,76488, Note_on_c, 0, 73, 0
2,76539, Note_on_c, 0, 72, 68
2,76655, Note_on_c, 0, 72, 0
2,76662, Note_on_c, 0, 61, 78
2,76672, Note_on_c, 0, 70, 65
2,76687, Note_on_c, 0, 61, 0
2,76732, Note_on_c, 0, 70, 0
2,76744, Note_on_c, 0, 68, 66
2,76830, Note_on_c, 0, 68, 0
2,76856, Note_on_c, 0, 56, 82
2,76859, Note_on_c, 0, 70, 85
2,76911, Note_on_c, 0, 77, 0
2,77102, Note_on_c, 0, 54, 64
2,77105, Note_on_c, 0, 56, 0
2,77187, Note_on_c, 0, 54, 0
2,77191, Note_on_c, 0, 53, 62
2,77251, Note_on_c, 0, 70, 0
2,77270, Note_on_c, 0, 54, 78
2,77274, Note_on_c, 0, 53, 0
2,77278, Note_on_c, 0, 75, 91
2,77302, Note_on_c, 0, 54, 0
2,77386, Note_on_c, 0, 68, 69
2,77463, Note_on_c, 0, 68, 0
2,77487, Note_on_c, 0, 66, 76
2,77489, Note_on_c, 0, 63, 74
2,77519, Note_on_c, 0, 63, 0
2,77576, Note_on_c, 0, 66, 0
2,77588, Note_on_c, 0, 70, 65
2,77601, Note_on_c, 0, 75, 0
2,77683, Note_on_c, 0, 53, 72
2,77695, Note_on_c, 0, 68, 74
2,77727, Note_on_c, 0, 53, 0
2,77731, Note_on_c, 0, 70, 0
2,77787, Note_on_c, 0, 68, 0
2,77794, Note_on_c, 0, 66, 72
2,77863, Note_on_c, 0, 66, 0
2,77878, Note_on_c, 0, 61, 75
2,77903, Note_on_c, 0, 73, 73
2,77905, Note_on_c, 0, 65, 66
2,77925, Note_on_c, 0, 61, 0
2,77988, Note_on_c, 0, 68, 63
2,77997, Note_on_c, 0, 65, 0
2,78022, Note_on_c, 0, 68, 0
2,78033, Note_on_c, 0, 73, 0
2,78078, Note_on_c, 0, 51, 61
2,78081, Note_on_c, 0, 72, 71
2,78101, Note_on_c, 0, 66, 67
2,78135, Note_on_c, 0, 51, 0
2,78147, Note_on_c, 0, 72, 0
2,78177, Note_on_c, 0, 66, 0
2,78190, Note_on_c, 0, 65, 64
2,78252, Note_on_c, 0, 65, 0
2,78261, Note_on_c, 0, 60, 56
2,78272, Control_c, 0, 67, 8
2,78282, Note_on_c, 0, 60, 0
2,78285, Note_on_c, 0, 75, 61
2,78288, Control_c, 0, 67, 16
2,78289, Note_on_c, 0, 66, 63
2,78302, Control_c, 0, 67, 30
2,78317, Control_c, 0, 67, 46
2,78333, Control_c, 0, 67, 63
2,78348, Control_c, 0, 67, 85
2,78358, Note_on_c, 0, 66, 0
2,78363, Control_c, 0, 67, 109
2,78372, Note_on_c, 0, 63, 63
2,78378, Control_c, 0, 67, 127
2,78405, Note_on_c, 0, 63, 0
2,78468, Note_on_c, 0, 49, 47
2,78483, Note_on_c, 0, 65, 58
2,78549, Note_on_c, 0, 49, 0
2,78570, Note_on_c, 0, 44, 52
2,78585, Note_on_c, 0, 75, 0
2,78673, Note_on_c, 0, 44, 0
2,78692, Note_on_c, 0, 49, 51
2,78694, Note_on_c, 0, 68, 62
2,78726, Note_on_c, 0, 68, 0
2,78779, Note_on_c, 0, 49, 0
2,78792, Note_on_c, 0, 51, 52
2,78876, Note_on_c, 0, 51, 0
2,78909, Note_on_c, 0, 73, 59
2,78915, Note_on_c, 0, 53, 50
2,78994, Note_on_c, 0, 53, 0
2,79010, Note_on_c, 0, 54, 58
2,79089, Note_on_c, 0, 54, 0
2,79106, Note_on_c, 0, 56, 52
2,79113, Note_on_c, 0, 71, 64
2,79119, Note_on_c, 0, 65, 0
2,79131, Note_on_c, 0, 73, 0
2,79158, Note_on_c, 0, 56, 0
2,79182, Note_on_c, 0, 71, 0
2,79187, Note_on_c, 0, 53, 57
2,79263, Note_on_c, 0, 53, 0
2,79298, Note_on_c, 0, 54, 62
2,79317, Note_on_c, 0, 70, 67
2,79353, Note_on_c, 0, 54, 0
2,79400, Note_on_c, 0, 42, 61
2,79490, Note_on_c, 0, 42, 0
2,79520, Note_on_c, 0, 54, 53
2,79532, Note_on_c, 0, 61, 61
2,79565, Note_on_c, 0, 54, 0
2,79572, Note_on_c, 0, 61, 0
2,79627, Note_on_c, 0, 53, 60
2,79728, Note_on_c, 0, 53, 0
2,79739, Note_on_c, 0, 54, 63
2,79756, Note_on_c, 0, 66, 60
2,79851, Note_on_c, 0, 56, 59
2,79857, Note_on_c, 0, 54, 0
2,79933, Note_on_c, 0, 56, 0
2,79941, Note_on_c, 0, 66, 0
2,79947, Note_on_c, 0, 65, 61
2,79955, Note_on_c, 0, 58, 55
2,79986, Note_on_c, 0, 65, 0
2,80026, Note_on_c, 0, 58, 0
2,80047, Note_on_c, 0, 54, 59
2,80168, Note_on_c, 0, 66, 65
2,80172, Note_on_c, 0, 54, 0
2,80178, Note_on_c, 0, 51, 52
2,80184, Note_on_c, 0, 70, 0
2,80269, Note_on_c, 0, 51, 0
2,80288, Note_on_c, 0, 53, 66
2,80364, Note_on_c, 0, 53, 0
2,80388, Note_on_c, 0, 54, 61
2,80403, Note_on_c, 0, 70, 68
2,80406, Note_on_c, 0, 66, 0
2,80465, Note_on_c, 0, 54, 0
2,80484, Note_on_c, 0, 51, 60
2,80484, Note_on_c, 0, 66, 66
2,80497, Note_on_c, 0, 70, 0
2,80575, Note_on_c, 0, 51, 0
2,80593, Note_on_c, 0, 66, 0
2,80597, Note_on_c, 0, 48, 63
2,80600, Note_on_c, 0, 63, 67
2,80692, Note_on_c, 0, 48, 0
2,80702, Note_on_c, 0, 49, 60
2,80777, Note_on_c, 0, 63, 0
2,80793, Note_on_c, 0, 51, 62
2,80796, Note_on_c, 0, 66, 66
2,80820, Note_on_c, 0, 49, 0
2,80863, Note_on_c, 0, 51, 0
2,80889, Note_on_c, 0, 63, 64
2,80891, Note_on_c, 0, 66, 0
2,80898, Note_on_c, 0, 48, 54
2,80955, Note_on_c, 0, 48, 0
2,80972, Note_on_c, 0, 63, 0
2,80997, Note_on_c, 0, 56, 68
2,81002, Note_on_c, 0, 41, 68
2,81032, Note_on_c, 0, 41, 0
2,81216, Note_on_c, 0, 63, 72
2,81223, Note_on_c, 0, 53, 48
2,81244, Note_on_c, 0, 63, 0
2,81304, Note_on_c, 0, 53, 0
2,81329, Note_on_c, 0, 51, 45
2,81404, Note_on_c, 0, 51, 0
2,81422, Note_on_c, 0, 56, 0
2,81438, Note_on_c, 0, 68, 78
2,81439, Note_on_c, 0, 53, 54
2,81517, Note_on_c, 0, 53, 0
2,81533, Note_on_c, 0, 54, 54
2,81640, Note_on_c, 0, 54, 0
2,81640, Note_on_c, 0, 56, 55
2,81655, Note_on_c, 0, 60, 64
2,81683, Note_on_c, 0, 60, 0
2,81700, Note_on_c, 0, 56, 0
2,81758, Note_on_c, 0, 53, 46
2,81844, Note_on_c, 0, 53, 0
2,81847, Note_on_c, 0, 68, 0
2,81868, Note_on_c, 0, 50, 55
2,81869, Note_on_c, 0, 65, 69
2,81960, Note_on_c, 0, 50, 0
2,81978, Note_on_c, 0, 51, 55
2,82059, Note_on_c, 0, 51, 0
2,82082, Note_on_c, 0, 53, 51
2,82090, Note_on_c, 0, 65, 0
2,82092, Note_on_c, 0, 68, 69
2,82143, Note_on_c, 0, 53, 0
2,82175, Note_on_c, 0, 50, 54
2,82180, Note_on_c, 0, 65, 65
2,82194, Note_on_c, 0, 68, 0
2,82265, Note_on_c, 0, 65, 0
2,82273, Note_on_c, 0, 50, 0
2,82290, Note_on_c, 0, 46, 69
2,82294, Note_on_c, 0, 62, 67
2,82385, Note_on_c, 0, 46, 0
2,82391, Note_on_c, 0, 48, 57
2,82453, Note_on_c, 0, 48, 0
2,82479, Note_on_c, 0, 62, 0
2,82484, Note_on_c, 0, 50, 61
2,82508, Note_on_c, 0, 65, 57
2,82575, Note_on_c, 0, 50, 0
2,82586, Note_on_c, 0, 65, 0
2,82590, Note_on_c, 0, 46, 67
2,82596, Note_on_c, 0, 62, 70
2,82653, Note_on_c, 0, 62, 0
2,82667, Note_on_c, 0, 46, 0
2,82690, Note_on_c, 0, 39, 67
2,82700, Note_on_c, 0, 54, 74
2,82728, Note_on_c, 0, 39, 0
2,82865, Control_c, 0, 67, 118
2,82880, Control_c, 0, 67, 85
2,82896, Control_c, 0, 67, 41
2,82905, Note_on_c, 0, 58, 71
2,82911, Control_c, 0, 67, 0
2,82917, Note_on_c, 0, 51, 46
2,82937, Note_on_c, 0, 58, 0
2,83012, Note_on_c, 0, 51, 0
2,83015, Note_on_c, 0, 50, 58
2,83103, Note_on_c, 0, 50, 0
2,83108, Note_on_c, 0, 54, 0
2,83115, Note_on_c, 0, 66, 79
2,83124, Note_on_c, 0, 51, 65
2,83201, Note_on_c, 0, 51, 0
2,83215, Note_on_c, 0, 53, 66
2,83320, Note_on_c, 0, 53, 0
2,83336, Note_on_c, 0, 54, 64
2,83339, Note_on_c, 0, 58, 76
2,83372, Note_on_c, 0, 58, 0
2,83377, Note_on_c, 0, 54, 0
2,83425, Note_on_c, 0, 51, 51
2,83502, Note_on_c, 0, 51, 0
2,83533, Note_on_c, 0, 48, 60
2,83544, Note_on_c, 0, 63, 78
2,83566, Note_on_c, 0, 66, 0
2,83623, Note_on_c, 0, 48, 0
2,83639, Note_on_c, 0, 49, 54
2,83642, Note_on_c, 0, 65, 74
2,83673, Note_on_c, 0, 63, 0
2,83726, Note_on_c, 0, 49, 0
2,83734, Note_on_c, 0, 51, 67
2,83750, Note_on_c, 0, 66, 80
2,83763, Note_on_c, 0, 65, 0
2,83803, Note_on_c, 0, 66, 0
2,83804, Note_on_c, 0, 51, 0
2,83837, Note_on_c, 0, 63, 83
2,83840, Note_on_c, 0, 48, 64
2,83920, Note_on_c, 0, 63, 0
2,83932, Note_on_c, 0, 48, 0
2,83947, Note_on_c, 0, 44, 65
2,83956, Note_on_c, 0, 75, 91
2,84055, Note_on_c, 0, 44, 0
2,84059, Note_on_c, 0, 66, 81
2,84062, Note_on_c, 0, 46, 71
2,84116, Note_on_c, 0, 46, 0
2,84158, Note_on_c, 0, 48, 53
2,84159, Note_on_c, 0, 68, 81
2,84174, Note_on_c, 0, 66, 0
2,84221, Note_on_c, 0, 48, 0
2,84239, Note_on_c, 0, 44, 61
2,84247, Note_on_c, 0, 68, 0
2,84252, Note_on_c, 0, 63, 82
2,84298, Note_on_c, 0, 63, 0
2,84306, Note_on_c, 0, 75, 0
2,84319, Note_on_c, 0, 44, 0
2,84352, Note_on_c, 0, 37, 74
2,84357, Note_on_c, 0, 65, 90
2,84396, Note_on_c, 0, 37, 0
2,84402, Control_c, 0, 64, 71
2,84417, Control_c, 0, 64, 83
2,84432, Control_c, 0, 64, 97
2,84448, Control_c, 0, 64, 105
2,84463, Control_c, 0, 64, 107
2,84465, Note_on_c, 0, 73, 72
2,84478, Control_c, 0, 64, 109
2,84493, Control_c, 0, 64, 110
2,84508, Control_c, 0, 64, 111
2,84520, Note_on_c, 0, 65, 0
2,84554, Control_c, 0, 64, 108
2,84556, Note_on_c, 0, 49, 77
2,84556, Note_on_c, 0, 73, 0
2,84561, Note_on_c, 0, 72, 79
2,84570, Control_c, 0, 64, 95
2,84584, Control_c, 0, 64, 77
2,84599, Control_c, 0, 64, 0
2,84646, Note_on_c, 0, 49, 0
2,84646, Note_on_c, 0, 51, 76
2,84655, Note_on_c, 0, 72, 0
2,84659, Note_on_c, 0, 75, 78
2,84735, Note_on_c, 0, 51, 0
2,84748, Note_on_c, 0, 53, 80
2,84754, Note_on_c, 0, 73, 82
2,84788, Note_on_c, 0, 75, 0
2,84794, Note_on_c, 0, 53, 0
2,84854, Note_on_c, 0, 73, 0
2,84857, Note_on_c, 0, 68, 75
2,84964, Note_on_c, 0, 61, 86
2,84968, Note_on_c, 0, 70, 77
2,84975, Note_on_c, 0, 68, 0
2,84980, Note_on_c, 0, 49, 62
2,85003, Note_on_c, 0, 49, 0
2,85062, Note_on_c, 0, 71, 74
2,85118, Note_on_c, 0, 70, 0
2,85159, Note_on_c, 0, 54, 88
2,85162, Note_on_c, 0, 70, 74
2,85171, Note_on_c, 0, 61, 0
2,85190, Note_on_c, 0, 71, 0
2,85266, Note_on_c, 0, 60, 72
2,85268, Note_on_c, 0, 68, 91
2,85290, Note_on_c, 0, 70, 0
2,85344, Note_on_c, 0, 54, 0
2,85367, Note_on_c, 0, 60, 0
2,85367, Note_on_c, 0, 66, 91
2,85367, Note_on_c, 0, 68, 0
2,85370, Note_on_c, 0, 58, 68
2,85457, Note_on_c, 0, 58, 0
2,85458, Note_on_c, 0, 60, 66
2,85464, Note_on_c, 0, 68, 84
2,85473, Note_on_c, 0, 66, 0
2,85553, Note_on_c, 0, 60, 0
2,85559, Note_on_c, 0, 77, 88
2,85566, Note_on_c, 0, 61, 81
2,85578, Note_on_c, 0, 53, 68
2,85579, Note_on_c, 0, 68, 0
2,85620, Note_on_c, 0, 77, 0
2,85665, Note_on_c, 0, 61, 0
2,85680, Note_on_c, 0, 60, 69
2,85739, Note_on_c, 0, 53, 0
2,85770, Note_on_c, 0, 73, 86
2,85771, Note_on_c, 0, 58, 63
2,85788, Note_on_c, 0, 60, 0
2,85821, Note_on_c, 0, 73, 0
2,85838, Note_on_c, 0, 56, 67
2,85897, Note_on_c, 0, 58, 0
2,85944, Note_on_c, 0, 56, 0
2,85972, Note_on_c, 0, 58, 74
2,85976, Note_on_c, 0, 51, 54
2,85983, Note_on_c, 0, 68, 92
2,86018, Note_on_c, 0, 51, 0
2,86187, Note_on_c, 0, 49, 64
2,86191, Note_on_c, 0, 66, 83
2,86228, Note_on_c, 0, 68, 0
2,86259, Note_on_c, 0, 49, 0
2,86269, Note_on_c, 0, 66, 0
2,86277, Note_on_c, 0, 65, 76
2,86362, Note_on_c, 0, 58, 0
2,86390, Note_on_c, 0, 65, 0
2,86392, Note_on_c, 0, 66, 86
2,86402, Note_on_c, 0, 48, 73
2,86438, Note_on_c, 0, 66, 0
2,86493, Note_on_c, 0, 56, 63
2,86595, Note_on_c, 0, 48, 0
2,86595, Note_on_c, 0, 75, 85
2,86602, Note_on_c, 0, 54, 69
2,86617, Note_on_c, 0, 56, 0
2,86643, Note_on_c, 0, 75, 0
2,86674, Note_on_c, 0, 54, 0
2,86680, Note_on_c, 0, 58, 69
2,86759, Note_on_c, 0, 58, 0
2,86794, Note_on_c, 0, 56, 73
2,86796, Note_on_c, 0, 49, 68
2,86802, Note_on_c, 0, 65, 76
2,86841, Note_on_c, 0, 65, 0
2,86879, Note_on_c, 0, 49, 0
2,86885, Note_on_c, 0, 54, 64
2,86891, Note_on_c, 0, 56, 0
2,86993, Note_on_c, 0, 53, 65
2,86999, Note_on_c, 0, 54, 0
2,87002, Note_on_c, 0, 73, 81
2,87053, Note_on_c, 0, 73, 0
2,87069, Note_on_c, 0, 53, 0
2,87106, Note_on_c, 0, 56, 61
2,87160, Note_on_c, 0, 56, 0
2,87210, Note_on_c, 0, 54, 70
2,87214, Note_on_c, 0, 63, 84
2,87241, Note_on_c, 0, 44, 62
2,87256, Note_on_c, 0, 63, 0
2,87287, Note_on_c, 0, 54, 0
2,87320, Note_on_c, 0, 53, 64
2,87329, Note_on_c, 0, 44, 0
2,87410, Note_on_c, 0, 53, 0
2,87411, Note_on_c, 0, 51, 72
2,87413, Note_on_c, 0, 72, 75
2,87455, Note_on_c, 0, 72, 0
2,87503, Note_on_c, 0, 51, 0
2,87507, Note_on_c, 0, 54, 76
2,87605, Note_on_c, 0, 54, 0
2,87614, Note_on_c, 0, 61, 75
2,87617, Note_on_c, 0, 53, 75
2,87619, Note_on_c, 0, 46, 65
2,87651, Note_on_c, 0, 46, 0
2,87690, Note_on_c, 0, 61, 0
2,87715, Note_on_c, 0, 65, 75
2,87720, Note_on_c, 0, 53, 0
2,87770, Note_on_c, 0, 55, 30
2,87802, Note_on_c, 0, 55, 0
2,87810, Note_on_c, 0, 66, 75
2,87812, Note_on_c, 0, 65, 0
2,87819, Note_on_c, 0, 58, 77
2,87908, Note_on_c, 0, 68, 78
2,87913, Note_on_c, 0, 58, 0
2,87914, Note_on_c, 0, 66, 0
2,87934, Note_on_c, 0, 60, 69
2,88017, Note_on_c, 0, 68, 0
2,88017, Note_on_c, 0, 70, 79
2,88020, Note_on_c, 0, 60, 0
2,88028, Note_on_c, 0, 61, 75
2,88076, Note_on_c, 0, 70, 0
2,88094, Note_on_c, 0, 61, 0
2,88117, Note_on_c, 0, 72, 77
2,88136, Note_on_c, 0, 60, 69
2,88186, Note_on_c, 0, 60, 0
2,88211, Note_on_c, 0, 73, 76
2,88212, Note_on_c, 0, 72, 0
2,88256, Note_on_c, 0, 59, 43
2,88307, Note_on_c, 0, 59, 0
2,88307, Note_on_c, 0, 75, 76
2,88312, Note_on_c, 0, 73, 0
2,88319, Note_on_c, 0, 56, 63
2,88372, Note_on_c, 0, 56, 0
2,88375, Note_on_c, 0, 75, 0
2,88404, Note_on_c, 0, 76, 78
2,88423, Note_on_c, 0, 55, 65
2,88506, Note_on_c, 0, 75, 77
2,88518, Note_on_c, 0, 55, 0
2,88518, Note_on_c, 0, 56, 69
2,88522, Note_on_c, 0, 76, 0
2,88597, Note_on_c, 0, 75, 0
2,88602, Note_on_c, 0, 73, 76
2,88604, Note_on_c, 0, 56, 0
2,88657, Note_on_c, 0, 58, 45
2,88687, Note_on_c, 0, 58, 0
2,88707, Note_on_c, 0, 75, 73
2,88727, Note_on_c, 0, 73, 0
2,88733, Note_on_c, 0, 55, 65
2,88782, Note_on_c, 0, 75, 0
2,88807, Note_on_c, 0, 76, 76
2,88824, Note_on_c, 0, 55, 0
2,88836, Note_on_c, 0, 51, 67
2,88904, Note_on_c, 0, 79, 71
2,88911, Note_on_c, 0, 76, 0
2,88916, Note_on_c, 0, 49, 67
2,88996, Note_on_c, 0, 79, 0
2,88997, Note_on_c, 0, 80, 79
2,89008, Control_c, 0, 64, 64
2,89011, Note_on_c, 0, 48, 60
2,89022, Control_c, 0, 64, 71
2,89037, Control_c, 0, 64, 80
2,89049, Note_on_c, 0, 51, 0
2,89053, Control_c, 0, 64, 88
2,89068, Control_c, 0, 64, 91
2,89077, Note_on_c, 0, 49, 0
2,89083, Control_c, 0, 64, 93
2,89087, Note_on_c, 0, 80, 0
2,89087, Note_on_c, 0, 82, 78
2,89088, Note_on_c, 0, 46, 71
2,89088, Note_on_c, 0, 48, 0
2,89099, Control_c, 0, 64, 96
2,89114, Control_c, 0, 64, 100
2,89117, Note_on_c, 0, 46, 0
2,89130, Control_c, 0, 64, 104
2,89145, Control_c, 0, 64, 108
2,89160, Control_c, 0, 64, 110
2,89175, Control_c, 0, 64, 111
2,89190, Control_c, 0, 64, 110
2,89191, Note_on_c, 0, 44, 81
2,89194, Note_on_c, 0, 73, 81
2,89206, Control_c, 0, 64, 100
2,89218, Note_on_c, 0, 82, 0
2,89221, Control_c, 0, 64, 82
2,89236, Control_c, 0, 64, 59
2,89252, Control_c, 0, 64, 0
2,89281, Note_on_c, 0, 73, 0
2,89286, Note_on_c, 0, 51, 69
2,89289, Note_on_c, 0, 72, 77
2,89295, Note_on_c, 0, 44, 0
2,89350, Note_on_c, 0, 51, 0
2,89383, Note_on_c, 0, 53, 68
2,89393, Note_on_c, 0, 70, 76
2,89396, Note_on_c, 0, 72, 0
2,89448, Note_on_c, 0, 53, 0
2,89486, Note_on_c, 0, 54, 69
2,89489, Note_on_c, 0, 68, 73
2,89506, Note_on_c, 0, 70, 0
2,89567, Note_on_c, 0, 68, 0
2,89583, Note_on_c, 0, 54, 0
2,89584, Note_on_c, 0, 56, 72
2,89589, Note_on_c, 0, 75, 78
2,89644, Note_on_c, 0, 75, 0
2,89686, Note_on_c, 0, 56, 0
2,89686, Note_on_c, 0, 58, 74
2,89775, Note_on_c, 0, 58, 0
2,89785, Note_on_c, 0, 60, 66
2,89788, Note_on_c, 0, 66, 81
2,89838, Note_on_c, 0, 66, 0
2,89866, Note_on_c, 0, 60, 0
2,89875, Note_on_c, 0, 56, 79
2,89929, Note_on_c, 0, 56, 0
2,89984, Note_on_c, 0, 65, 82
2,89996, Note_on_c, 0, 61, 84
2,90054, Note_on_c, 0, 65, 0
2,90228, Note_on_c, 0, 73, 82
2,90232, Note_on_c, 0, 41, 79
2,90237, Note_on_c, 0, 68, 70
2,90261, Note_on_c, 0, 61, 0
2,90265, Note_on_c, 0, 68, 0
2,90279, Note_on_c, 0, 41, 0
2,90298, Note_on_c, 0, 73, 0
2,90473, Note_on_c, 0, 42, 83
2,90476, Note_on_c, 0, 63, 91
2,90493, Note_on_c, 0, 70, 60
2,90524, Note_on_c, 0, 70, 0
2,90531, Note_on_c, 0, 42, 0
2,90773, Note_on_c, 0, 44, 85
2,90779, Note_on_c, 0, 72, 84
2,90780, Note_on_c, 0, 68, 85
2,90782, Note_on_c, 0, 66, 84
2,90810, Note_on_c, 0, 63, 0
2,90836, Note_on_c, 0, 44, 0
2,90848, Note_on_c, 0, 72, 0
2,90849, Note_on_c, 0, 66, 0
2,90861, Note_on_c, 0, 68, 0
2,91206, Note_on_c, 0, 37, 72
2,91213, Note_on_c, 0, 61, 86
2,91213, Note_on_c, 0, 68, 87
2,91215, Note_on_c, 0, 73, 81
2,91219, Note_on_c, 0, 65, 82
2,92385, Note_on_c, 0, 61, 0
2,92391, Note_on_c, 0, 65, 0
2,92393, Note_on_c, 0, 73, 0
2,92401, Note_on_c, 0, 37, 0
2,92402, Note_on_c, 0, 68, 0
2,92403, End_track
0, 0, End_of_file
