0, 0, Header, 1, 2, 480
1, 0, Start_track
1, 0, Tempo, 500000
1, 0, Time_signature, 4, 2, 24, 8
1, 1, End_track
2, 0, Start_track
2, 0, Program_c, 0, 0
2, 0, Control_c, 0, 64, 53
2, 94, Control_c, 0, 64, 52
2, 347, Control_c, 0, 64, 53
2, 966, Note_on_c, 0, 77, 72
2, 967, Control_c, 0, 64, 52
2, 984, Note_on_c, 0, 49, 47
2, 1057, Note_on_c, 0, 73, 71
2, 1057, Note_on_c, 0, 77, 0
2, 1136, Note_on_c, 0, 73, 0
2, 1167, Note_on_c, 0, 68, 69
2, 1263, Note_on_c, 0, 68, 0
2, 1279, Note_on_c, 0, 73, 63
2, 1292, Control_c, 0, 64, 51
2, 1331, Note_on_c, 0, 73, 0
2, 1350, Control_c, 0, 64, 50
2, 1359, Note_on_c, 0, 77, 71
2, 1363, Note_on_c, 0, 61, 52
2, 1372, Control_c, 0, 64, 49
2, 1388, Control_c, 0, 64, 47
2, 1392, Note_on_c, 0, 49, 0
2, 1408, Control_c, 0, 64, 44
2, 1426, Control_c, 0, 64, 41
2, 1430, Note_on_c, 0, 61, 0
2, 1446, Control_c, 0, 64, 38
2, 1450, Note_on_c, 0, 77, 0
2, 1468, Control_c, 0, 64, 35
2, 1468, Note_on_c, 0, 73, 65
2, 1487, Control_c, 0, 64, 31
2, 1503, Control_c, 0, 64, 27
2, 1522, Control_c, 0, 64, 25
2, 1531, Note_on_c, 0, 73, 0
2, 1541, Control_c, 0, 64, 23
2, 1559, Control_c, 0, 64, 21
2, 1573, Note_on_c, 0, 78, 69
2, 1575, Note_on_c, 0, 51, 50
2, 1580, Control_c, 0, 64, 20
2, 1602, Control_c, 0, 64, 19
2, 1663, Note_on_c, 0, 78, 0
2, 1672, Note_on_c, 0, 73, 68
2, 1753, Control_c, 0, 64, 20
2, 1758, Note_on_c, 0, 73, 0
2, 1789, Note_on_c, 0, 78, 80
2, 1829, Control_c, 0, 64, 21
2, 1884, Note_on_c, 0, 73, 77
2, 1888, Control_c, 0, 64, 22
2, 1888, Note_on_c, 0, 78, 0
2, 1983, Note_on_c, 0, 73, 0
2, 1987, Note_on_c, 0, 78, 86
2, 2001, Note_on_c, 0, 61, 54
2, 2035, Note_on_c, 0, 51, 0
2, 2072, Note_on_c, 0, 61, 0
2, 2098, Note_on_c, 0, 78, 0
2, 2119, Note_on_c, 0, 73, 69
2, 2175, Note_on_c, 0, 73, 0
2, 2224, Note_on_c, 0, 53, 55
2, 2224, Note_on_c, 0, 80, 76
2, 2337, Note_on_c, 0, 73, 74
2, 2337, Note_on_c, 0, 80, 0
2, 2426, Note_on_c, 0, 73, 0
2, 2441, Note_on_c, 0, 80, 87
2, 2552, Note_on_c, 0, 73, 80
2, 2562, Note_on_c, 0, 80, 0
2, 2650, Note_on_c, 0, 80, 84
2, 2655, Note_on_c, 0, 61, 62
2, 2657, Note_on_c, 0, 73, 0
2, 2703, Note_on_c, 0, 53, 0
2, 2756, Note_on_c, 0, 61, 0
2, 2761, Note_on_c, 0, 73, 77
2, 2781, Note_on_c, 0, 80, 0
2, 2830, Note_on_c, 0, 73, 0
2, 2874, Note_on_c, 0, 54, 59
2, 2878, Note_on_c, 0, 82, 83
2, 3003, Note_on_c, 0, 73, 77
2, 3007, Note_on_c, 0, 82, 0
2, 3108, Note_on_c, 0, 82, 88
2, 3121, Note_on_c, 0, 73, 0
2, 3240, Note_on_c, 0, 73, 76
2, 3240, Note_on_c, 0, 82, 0
2, 3316, Note_on_c, 0, 61, 52
2, 3325, Note_on_c, 0, 54, 0
2, 3329, Note_on_c, 0, 82, 86
2, 3346, Note_on_c, 0, 73, 0
2, 3422, Note_on_c, 0, 61, 0
2, 3462, Note_on_c, 0, 82, 0
2, 3467, Note_on_c, 0, 73, 74
2, 3536, Note_on_c, 0, 53, 53
2, 3551, Note_on_c, 0, 80, 82
2, 3556, Note_on_c, 0, 73, 0
2, 3667, Note_on_c, 0, 73, 70
2, 3676, Note_on_c, 0, 80, 0
2, 3760, Note_on_c, 0, 73, 0
2, 3763, Note_on_c, 0, 80, 81
2, 3886, Note_on_c, 0, 73, 76
2, 3886, Note_on_c, 0, 80, 0
2, 3962, Note_on_c, 0, 73, 0
2, 3981, Note_on_c, 0, 61, 56
2, 3986, Note_on_c, 0, 80, 79
2, 3995, Note_on_c, 0, 53, 0
2, 4077, Note_on_c, 0, 61, 0
2, 4084, Note_on_c, 0, 80, 0
2, 4091, Note_on_c, 0, 73, 73
2, 4201, Note_on_c, 0, 73, 0
2, 4212, Note_on_c, 0, 51, 56
2, 4212, Note_on_c, 0, 78, 69
2, 4299, Note_on_c, 0, 77, 71
2, 4305, Control_c, 0, 64, 23
2, 4359, Note_on_c, 0, 78, 0
2, 4399, Note_on_c, 0, 75, 74
2, 4404, Note_on_c, 0, 77, 0
2, 4494, Note_on_c, 0, 77, 74
2, 4519, Note_on_c, 0, 75, 0
2, 4537, Control_c, 0, 64, 24
2, 4567, Note_on_c, 0, 51, 0
2, 4604, Note_on_c, 0, 78, 80
2, 4606, Note_on_c, 0, 77, 0
2, 4615, Note_on_c, 0, 60, 60
2, 4665, Note_on_c, 0, 60, 0
2, 4698, Note_on_c, 0, 75, 70
2, 4701, Note_on_c, 0, 78, 0
2, 4806, Control_c, 0, 64, 25
2, 4821, Note_on_c, 0, 77, 80
2, 4825, Control_c, 0, 64, 32
2, 4825, Note_on_c, 0, 49, 66
2, 4825, Note_on_c, 0, 75, 0
2, 4843, Control_c, 0, 64, 53
2, 4861, Note_on_c, 0, 49, 0
2, 4865, Control_c, 0, 64, 69
2, 4881, Control_c, 0, 64, 81
2, 4901, Control_c, 0, 64, 127
2, 4930, Note_on_c, 0, 75, 73
2, 4930, Note_on_c, 0, 77, 0
2, 5022, Note_on_c, 0, 73, 82
2, 5023, Note_on_c, 0, 75, 0
2, 5119, Note_on_c, 0, 75, 76
2, 5154, Note_on_c, 0, 73, 0
2, 5224, Note_on_c, 0, 75, 0
2, 5233, Note_on_c, 0, 77, 82
2, 5241, Note_on_c, 0, 61, 81
2, 5248, Control_c, 0, 64, 97
2, 5266, Control_c, 0, 64, 69
2, 5286, Control_c, 0, 64, 51
2, 5307, Control_c, 0, 64, 0
2, 5326, Note_on_c, 0, 73, 79
2, 5337, Note_on_c, 0, 77, 0
2, 5453, Note_on_c, 0, 75, 74
2, 5473, Note_on_c, 0, 73, 0
2, 5538, Note_on_c, 0, 75, 0
2, 5549, Note_on_c, 0, 77, 77
2, 5637, Note_on_c, 0, 61, 0
2, 5648, Note_on_c, 0, 77, 0
2, 5661, Note_on_c, 0, 75, 76
2, 5672, Note_on_c, 0, 60, 64
2, 5738, Note_on_c, 0, 60, 0
2, 5758, Note_on_c, 0, 73, 79
2, 5758, Note_on_c, 0, 75, 0
2, 5775, Note_on_c, 0, 58, 64
2, 5850, Note_on_c, 0, 73, 0
2, 5855, Note_on_c, 0, 58, 0
2, 5862, Note_on_c, 0, 72, 71
2, 5881, Note_on_c, 0, 56, 61
2, 5907, Note_on_c, 0, 72, 0
2, 5957, Note_on_c, 0, 56, 0
2, 5957, Note_on_c, 0, 70, 75
2, 5986, Note_on_c, 0, 58, 62
2, 6038, Note_on_c, 0, 58, 0
2, 6042, Note_on_c, 0, 70, 0
2, 6076, Note_on_c, 0, 68, 73
2, 6102, Note_on_c, 0, 60, 59
2, 6161, Note_on_c, 0, 60, 0
2, 6205, Note_on_c, 0, 56, 54
2, 6258, Note_on_c, 0, 56, 0
2, 6294, Note_on_c, 0, 51, 61
2, 6387, Note_on_c, 0, 56, 60
2, 6392, Note_on_c, 0, 51, 0
2, 6450, Note_on_c, 0, 56, 0
2, 6457, Note_on_c, 0, 68, 0
2, 6512, Note_on_c, 0, 80, 66
2, 6516, Note_on_c, 0, 60, 58
2, 6552, Note_on_c, 0, 80, 0
2, 6583, Note_on_c, 0, 60, 0
2, 6614, Note_on_c, 0, 56, 60
2, 6705, Note_on_c, 0, 56, 0
2, 6743, Note_on_c, 0, 70, 71
2, 6752, Note_on_c, 0, 61, 55
2, 6805, Note_on_c, 0, 61, 0
2, 6856, Note_on_c, 0, 56, 64
2, 6927, Note_on_c, 0, 56, 0
2, 6972, Note_on_c, 0, 61, 68
2, 7058, Note_on_c, 0, 61, 0
2, 7073, Note_on_c, 0, 56, 71
2, 7161, Note_on_c, 0, 56, 0
2, 7176, Note_on_c, 0, 61, 72
2, 7180, Note_on_c, 0, 80, 79
2, 7193, Note_on_c, 0, 70, 0
2, 7251, Note_on_c, 0, 80, 0
2, 7262, Note_on_c, 0, 61, 0
2, 7284, Note_on_c, 0, 56, 71
2, 7370, Note_on_c, 0, 56, 0
2, 7394, Note_on_c, 0, 72, 83
2, 7399, Note_on_c, 0, 63, 75
2, 7483, Note_on_c, 0, 63, 0
2, 7513, Note_on_c, 0, 56, 75
2, 7611, Note_on_c, 0, 56, 0
2, 7619, Note_on_c, 0, 63, 82
2, 7709, Note_on_c, 0, 63, 0
2, 7731, Note_on_c, 0, 56, 81
2, 7823, Note_on_c, 0, 80, 78
2, 7828, Note_on_c, 0, 63, 85
2, 7837, Note_on_c, 0, 56, 0
2, 7852, Note_on_c, 0, 72, 0
2, 7921, Note_on_c, 0, 63, 0
2, 7927, Note_on_c, 0, 80, 0
2, 7931, Note_on_c, 0, 56, 77
2, 8044, Note_on_c, 0, 65, 80
2, 8057, Note_on_c, 0, 73, 90
2, 8069, Note_on_c, 0, 56, 0
2, 8141, Note_on_c, 0, 65, 0
2, 8162, Note_on_c, 0, 56, 78
2, 8272, Note_on_c, 0, 65, 84
2, 8301, Note_on_c, 0, 56, 0
2, 8373, Note_on_c, 0, 56, 81
2, 8378, Note_on_c, 0, 65, 0
2, 8500, Note_on_c, 0, 65, 80
2, 8500, Note_on_c, 0, 73, 0
2, 8500, Note_on_c, 0, 80, 80
2, 8502, Note_on_c, 0, 56, 0
2, 8570, Note_on_c, 0, 65, 0
2, 8580, Note_on_c, 0, 80, 0
2, 8598, Note_on_c, 0, 56, 72
2, 8714, Note_on_c, 0, 56, 0
2, 8714, Note_on_c, 0, 72, 78
2, 8725, Note_on_c, 0, 63, 72
2, 8801, Note_on_c, 0, 63, 0
2, 8832, Note_on_c, 0, 56, 73
2, 8913, Note_on_c, 0, 56, 0
2, 8938, Note_on_c, 0, 63, 77
2, 9017, Note_on_c, 0, 63, 0
2, 9028, Note_on_c, 0, 56, 74
2, 9094, Note_on_c, 0, 72, 0
2, 9128, Note_on_c, 0, 56, 0
2, 9137, Note_on_c, 0, 80, 76
2, 9152, Note_on_c, 0, 63, 75
2, 9219, Note_on_c, 0, 63, 0
2, 9219, Note_on_c, 0, 80, 0
2, 9248, Note_on_c, 0, 56, 70
2, 9350, Note_on_c, 0, 56, 0
2, 9367, Note_on_c, 0, 70, 75
2, 9378, Note_on_c, 0, 61, 71
2, 9455, Note_on_c, 0, 61, 0
2, 9478, Note_on_c, 0, 60, 64
2, 9586, Note_on_c, 0, 60, 0
2, 9592, Note_on_c, 0, 58, 62
2, 9678, Note_on_c, 0, 58, 0
2, 9689, Note_on_c, 0, 60, 63
2, 9720, Note_on_c, 0, 70, 0
2, 9783, Note_on_c, 0, 60, 0
2, 9792, Note_on_c, 0, 79, 80
2, 9800, Note_on_c, 0, 61, 65
2, 9859, Note_on_c, 0, 79, 0
2, 9873, Note_on_c, 0, 61, 0
2, 9887, Note_on_c, 0, 58, 65
2, 9981, Note_on_c, 0, 58, 0
2, 10014, Note_on_c, 0, 68, 83
2, 10023, Note_on_c, 0, 60, 65
2, 10114, Note_on_c, 0, 60, 0
2, 10125, Note_on_c, 0, 58, 70
2, 10162, Control_c, 0, 64, 9
2, 10181, Control_c, 0, 64, 11
2, 10199, Control_c, 0, 64, 14
2, 10221, Control_c, 0, 64, 17
2, 10221, Note_on_c, 0, 56, 70
2, 10226, Note_on_c, 0, 58, 0
2, 10238, Control_c, 0, 64, 20
2, 10257, Control_c, 0, 64, 21
2, 10275, Control_c, 0, 64, 22
2, 10296, Control_c, 0, 64, 23
2, 10326, Note_on_c, 0, 58, 79
2, 10331, Note_on_c, 0, 68, 0
2, 10337, Control_c, 0, 64, 24
2, 10342, Note_on_c, 0, 56, 0
2, 10353, Control_c, 0, 64, 25
2, 10371, Control_c, 0, 64, 26
2, 10392, Control_c, 0, 64, 27
2, 10434, Note_on_c, 0, 58, 0
2, 10434, Note_on_c, 0, 60, 75
2, 10439, Note_on_c, 0, 80, 88
2, 10471, Control_c, 0, 64, 26
2, 10508, Control_c, 0, 64, 25
2, 10552, Note_on_c, 0, 56, 77
2, 10561, Note_on_c, 0, 60, 0
2, 10665, Note_on_c, 0, 58, 81
2, 10672, Note_on_c, 0, 56, 0
2, 10755, Note_on_c, 0, 59, 81
2, 10769, Note_on_c, 0, 58, 0
2, 10833, Control_c, 0, 64, 24
2, 10853, Control_c, 0, 64, 23
2, 10869, Note_on_c, 0, 78, 85
2, 10876, Note_on_c, 0, 58, 77
2, 10880, Control_c, 0, 64, 21
2, 10880, Note_on_c, 0, 59, 0
2, 10892, Control_c, 0, 64, 20
2, 10909, Control_c, 0, 64, 19
2, 10914, Note_on_c, 0, 80, 0
2, 10918, Note_on_c, 0, 80, 5
2, 10939, Note_on_c, 0, 80, 0
2, 10949, Control_c, 0, 64, 18
2, 10973, Note_on_c, 0, 56, 69
2, 10978, Note_on_c, 0, 77, 80
2, 11002, Note_on_c, 0, 58, 0
2, 11002, Note_on_c, 0, 78, 0
2, 11049, Note_on_c, 0, 54, 70
2, 11070, Note_on_c, 0, 56, 0
2, 11074, Note_on_c, 0, 75, 81
2, 11083, Note_on_c, 0, 77, 0
2, 11103, Control_c, 0, 64, 19
2, 11147, Note_on_c, 0, 54, 0
2, 11169, Note_on_c, 0, 53, 70
2, 11182, Control_c, 0, 64, 20
2, 11182, Note_on_c, 0, 77, 79
2, 11204, Note_on_c, 0, 75, 0
2, 11256, Control_c, 0, 64, 19
2, 11274, Control_c, 0, 64, 18
2, 11286, Note_on_c, 0, 53, 0
2, 11291, Note_on_c, 0, 77, 0
2, 11296, Control_c, 0, 64, 16
2, 11298, Note_on_c, 0, 51, 63
2, 11305, Note_on_c, 0, 78, 74
2, 11314, Control_c, 0, 64, 15
2, 11337, Control_c, 0, 64, 14
2, 11352, Control_c, 0, 64, 13
2, 11392, Control_c, 0, 64, 12
2, 11392, Note_on_c, 0, 75, 67
2, 11397, Note_on_c, 0, 78, 0
2, 11414, Control_c, 0, 64, 11
2, 11480, Note_on_c, 0, 75, 0
2, 11506, Note_on_c, 0, 70, 65
2, 11592, Note_on_c, 0, 70, 0
2, 11609, Note_on_c, 0, 75, 64
2, 11658, Control_c, 0, 64, 10
2, 11677, Control_c, 0, 64, 9
2, 11681, Note_on_c, 0, 75, 0
2, 11699, Control_c, 0, 64, 8
2, 11703, Note_on_c, 0, 51, 0
2, 11717, Control_c, 0, 64, 0
2, 11717, Note_on_c, 0, 78, 73
2, 11737, Note_on_c, 0, 63, 56
2, 11795, Note_on_c, 0, 63, 0
2, 11804, Note_on_c, 0, 78, 0
2, 11822, Note_on_c, 0, 75, 69
2, 11907, Note_on_c, 0, 75, 0
2, 11937, Note_on_c, 0, 80, 66
2, 11942, Note_on_c, 0, 53, 52
2, 12027, Note_on_c, 0, 80, 0
2, 12043, Note_on_c, 0, 75, 65
2, 12101, Note_on_c, 0, 75, 0
2, 12164, Note_on_c, 0, 80, 75
2, 12257, Note_on_c, 0, 75, 69
2, 12257, Note_on_c, 0, 80, 0
2, 12364, Note_on_c, 0, 63, 58
2, 12364, Note_on_c, 0, 75, 0
2, 12379, Note_on_c, 0, 80, 77
2, 12388, Note_on_c, 0, 53, 0
2, 12416, Note_on_c, 0, 63, 0
2, 12476, Note_on_c, 0, 80, 0
2, 12487, Note_on_c, 0, 75, 68
2, 12575, Note_on_c, 0, 75, 0
2, 12604, Note_on_c, 0, 54, 53
2, 12609, Note_on_c, 0, 82, 70
2, 12723, Note_on_c, 0, 75, 67
2, 12723, Note_on_c, 0, 82, 0
2, 12815, Note_on_c, 0, 75, 0
2, 12831, Note_on_c, 0, 82, 81
2, 12933, Note_on_c, 0, 75, 74
2, 12950, Note_on_c, 0, 82, 0
2, 13046, Note_on_c, 0, 75, 0
2, 13050, Note_on_c, 0, 82, 80
2, 13061, Note_on_c, 0, 63, 55
2, 13148, Note_on_c, 0, 63, 0
2, 13155, Note_on_c, 0, 54, 0
2, 13157, Note_on_c, 0, 75, 75
2, 13182, Note_on_c, 0, 82, 0
2, 13243, Note_on_c, 0, 75, 0
2, 13286, Note_on_c, 0, 83, 74
2, 13295, Note_on_c, 0, 56, 56
2, 13396, Note_on_c, 0, 75, 67
2, 13407, Note_on_c, 0, 83, 0
2, 13510, Note_on_c, 0, 75, 0
2, 13512, Note_on_c, 0, 83, 79
2, 13622, Note_on_c, 0, 75, 70
2, 13629, Note_on_c, 0, 83, 0
2, 13713, Note_on_c, 0, 75, 0
2, 13744, Note_on_c, 0, 63, 54
2, 13744, Note_on_c, 0, 83, 75
2, 13766, Note_on_c, 0, 56, 0
2, 13837, Note_on_c, 0, 63, 0
2, 13839, Note_on_c, 0, 83, 0
2, 13846, Note_on_c, 0, 75, 68
2, 13914, Note_on_c, 0, 75, 0
2, 13956, Note_on_c, 0, 82, 69
2, 13969, Note_on_c, 0, 54, 56
2, 14057, Note_on_c, 0, 75, 65
2, 14066, Note_on_c, 0, 82, 0
2, 14143, Note_on_c, 0, 75, 0
2, 14181, Note_on_c, 0, 82, 70
2, 14278, Note_on_c, 0, 75, 65
2, 14287, Note_on_c, 0, 82, 0
2, 14366, Note_on_c, 0, 75, 0
2, 14396, Note_on_c, 0, 82, 71
2, 14405, Note_on_c, 0, 63, 56
2, 14414, Note_on_c, 0, 54, 0
2, 14484, Note_on_c, 0, 82, 0
2, 14507, Note_on_c, 0, 63, 0
2, 14511, Note_on_c, 0, 75, 67
2, 14619, Note_on_c, 0, 80, 67
2, 14628, Note_on_c, 0, 53, 55
2, 14628, Note_on_c, 0, 75, 0
2, 14721, Note_on_c, 0, 78, 73
2, 14756, Note_on_c, 0, 80, 0
2, 14825, Note_on_c, 0, 78, 0
2, 14831, Note_on_c, 0, 77, 77
2, 14945, Note_on_c, 0, 78, 74
2, 14967, Note_on_c, 0, 77, 0
2, 15001, Note_on_c, 0, 53, 0
2, 15031, Note_on_c, 0, 62, 64
2, 15042, Note_on_c, 0, 78, 0
2, 15042, Note_on_c, 0, 80, 72
2, 15078, Note_on_c, 0, 62, 0
2, 15132, Note_on_c, 0, 77, 73
2, 15136, Note_on_c, 0, 80, 0
2, 15249, Note_on_c, 0, 77, 0
2, 15251, Note_on_c, 0, 78, 73
2, 15262, Note_on_c, 0, 51, 59
2, 15308, Control_c, 0, 64, 8
2, 15326, Control_c, 0, 64, 11
2, 15346, Control_c, 0, 64, 13
2, 15362, Note_on_c, 0, 77, 74
2, 15366, Control_c, 0, 64, 18
2, 15366, Note_on_c, 0, 78, 0
2, 15383, Control_c, 0, 64, 31
2, 15405, Control_c, 0, 64, 45
2, 15422, Control_c, 0, 64, 56
2, 15440, Control_c, 0, 64, 61
2, 15451, Note_on_c, 0, 77, 0
2, 15455, Note_on_c, 0, 75, 69
2, 15460, Control_c, 0, 64, 62
2, 15481, Control_c, 0, 64, 63
2, 15500, Control_c, 0, 64, 64
2, 15518, Control_c, 0, 64, 65
2, 15538, Control_c, 0, 64, 66
2, 15552, Note_on_c, 0, 75, 0
2, 15560, Note_on_c, 0, 77, 74
2, 15609, Note_on_c, 0, 51, 0
2, 15615, Control_c, 0, 64, 65
2, 15664, Note_on_c, 0, 78, 78
2, 15673, Note_on_c, 0, 63, 71
2, 15678, Control_c, 0, 64, 63
2, 15678, Note_on_c, 0, 77, 0
2, 15692, Control_c, 0, 64, 58
2, 15712, Control_c, 0, 64, 52
2, 15729, Control_c, 0, 64, 43
2, 15751, Control_c, 0, 64, 37
2, 15771, Control_c, 0, 64, 36
2, 15779, Note_on_c, 0, 75, 72
2, 15784, Note_on_c, 0, 78, 0
2, 15806, Control_c, 0, 64, 37
2, 15826, Control_c, 0, 64, 38
2, 15883, Note_on_c, 0, 75, 0
2, 15883, Note_on_c, 0, 77, 72
2, 15979, Note_on_c, 0, 78, 75
2, 15995, Note_on_c, 0, 77, 0
2, 16029, Note_on_c, 0, 63, 0
2, 16083, Note_on_c, 0, 78, 0
2, 16096, Note_on_c, 0, 77, 76
2, 16109, Note_on_c, 0, 61, 65
2, 16133, Control_c, 0, 64, 37
2, 16154, Note_on_c, 0, 77, 0
2, 16195, Note_on_c, 0, 75, 76
2, 16202, Note_on_c, 0, 61, 0
2, 16212, Note_on_c, 0, 60, 66
2, 16249, Control_c, 0, 64, 36
2, 16293, Note_on_c, 0, 75, 0
2, 16304, Note_on_c, 0, 73, 75
2, 16308, Control_c, 0, 64, 35
2, 16308, Note_on_c, 0, 60, 0
2, 16319, Note_on_c, 0, 58, 65
2, 16376, Note_on_c, 0, 73, 0
2, 16384, Note_on_c, 0, 72, 74
2, 16418, Note_on_c, 0, 58, 0
2, 16426, Note_on_c, 0, 60, 63
2, 16457, Note_on_c, 0, 72, 0
2, 16490, Note_on_c, 0, 60, 0
2, 16506, Note_on_c, 0, 70, 72
2, 16545, Note_on_c, 0, 61, 63
2, 16645, Note_on_c, 0, 61, 0
2, 16653, Note_on_c, 0, 58, 61
2, 16710, Note_on_c, 0, 58, 0
2, 16747, Note_on_c, 0, 53, 58
2, 16810, Note_on_c, 0, 53, 0
2, 16843, Note_on_c, 0, 58, 57
2, 16908, Note_on_c, 0, 58, 0
2, 16941, Note_on_c, 0, 61, 62
2, 16957, Note_on_c, 0, 70, 0
2, 16959, Note_on_c, 0, 82, 71
2, 17025, Note_on_c, 0, 82, 0
2, 17041, Note_on_c, 0, 61, 0
2, 17065, Note_on_c, 0, 58, 62
2, 17150, Control_c, 0, 64, 34
2, 17179, Note_on_c, 0, 58, 0
2, 17188, Note_on_c, 0, 72, 78
2, 17197, Note_on_c, 0, 63, 66
2, 17267, Note_on_c, 0, 63, 0
2, 17304, Control_c, 0, 64, 33
2, 17317, Note_on_c, 0, 58, 64
2, 17375, Note_on_c, 0, 58, 0
2, 17406, Note_on_c, 0, 63, 75
2, 17505, Note_on_c, 0, 63, 0
2, 17514, Note_on_c, 0, 58, 73
2, 17582, Note_on_c, 0, 72, 0
2, 17601, Note_on_c, 0, 58, 0
2, 17623, Note_on_c, 0, 63, 74
2, 17631, Note_on_c, 0, 82, 74
2, 17719, Note_on_c, 0, 63, 0
2, 17723, Note_on_c, 0, 82, 0
2, 17727, Note_on_c, 0, 58, 74
2, 17808, Note_on_c, 0, 58, 0
2, 17842, Note_on_c, 0, 65, 72
2, 17855, Note_on_c, 0, 73, 84
2, 17862, Control_c, 0, 64, 32
2, 17951, Note_on_c, 0, 65, 0
2, 17954, Note_on_c, 0, 58, 74
2, 18014, Control_c, 0, 64, 31
2, 18066, Note_on_c, 0, 58, 0
2, 18077, Note_on_c, 0, 65, 73
2, 18158, Note_on_c, 0, 65, 0
2, 18167, Note_on_c, 0, 58, 76
2, 18266, Note_on_c, 0, 73, 0
2, 18302, Note_on_c, 0, 65, 72
2, 18302, Note_on_c, 0, 82, 75
2, 18309, Note_on_c, 0, 58, 0
2, 18414, Note_on_c, 0, 58, 81
2, 18418, Note_on_c, 0, 65, 0
2, 18418, Note_on_c, 0, 82, 0
2, 18530, Note_on_c, 0, 66, 85
2, 18534, Note_on_c, 0, 75, 83
2, 18539, Note_on_c, 0, 58, 0
2, 18637, Note_on_c, 0, 58, 75
2, 18645, Note_on_c, 0, 66, 0
2, 18753, Note_on_c, 0, 58, 0
2, 18753, Note_on_c, 0, 66, 86
2, 18764, Control_c, 0, 64, 30
2, 18862, Note_on_c, 0, 58, 82
2, 18866, Note_on_c, 0, 66, 0
2, 18966, Note_on_c, 0, 75, 0
2, 18979, Note_on_c, 0, 66, 80
2, 18983, Note_on_c, 0, 58, 0
2, 18983, Note_on_c, 0, 82, 75
2, 19079, Note_on_c, 0, 82, 0
2, 19088, Note_on_c, 0, 58, 70
2, 19088, Note_on_c, 0, 66, 0
2, 19113, Control_c, 0, 64, 29
2, 19200, Note_on_c, 0, 58, 0
2, 19213, Note_on_c, 0, 65, 68
2, 19213, Note_on_c, 0, 73, 83
2, 19309, Note_on_c, 0, 65, 0
2, 19337, Note_on_c, 0, 59, 57
2, 19380, Note_on_c, 0, 59, 0
2, 19426, Note_on_c, 0, 65, 64
2, 19497, Note_on_c, 0, 65, 0
2, 19502, Note_on_c, 0, 58, 72
2, 19616, Note_on_c, 0, 58, 0
2, 19630, Note_on_c, 0, 73, 0
2, 19644, Note_on_c, 0, 65, 63
2, 19662, Note_on_c, 0, 82, 77
2, 19727, Note_on_c, 0, 58, 66
2, 19731, Note_on_c, 0, 65, 0
2, 19745, Note_on_c, 0, 82, 0
2, 19876, Note_on_c, 0, 63, 61
2, 19883, Note_on_c, 0, 72, 77
2, 19900, Note_on_c, 0, 58, 0
2, 19974, Note_on_c, 0, 63, 0
2, 19981, Note_on_c, 0, 61, 57
2, 20054, Note_on_c, 0, 61, 0
2, 20088, Note_on_c, 0, 60, 61
2, 20178, Note_on_c, 0, 60, 0
2, 20188, Note_on_c, 0, 61, 64
2, 20260, Note_on_c, 0, 72, 0
2, 20278, Note_on_c, 0, 61, 0
2, 20289, Note_on_c, 0, 63, 65
2, 20315, Note_on_c, 0, 81, 71
2, 20365, Note_on_c, 0, 81, 0
2, 20376, Control_c, 0, 64, 30
2, 20380, Note_on_c, 0, 63, 0
2, 20401, Note_on_c, 0, 60, 59
2, 20414, Control_c, 0, 64, 31
2, 20472, Control_c, 0, 64, 32
2, 20499, Note_on_c, 0, 60, 0
2, 20532, Control_c, 0, 64, 33
2, 20536, Note_on_c, 0, 70, 71
2, 20540, Note_on_c, 0, 61, 60
2, 20568, Control_c, 0, 64, 34
2, 20605, Control_c, 0, 64, 35
2, 20642, Note_on_c, 0, 61, 0
2, 20644, Control_c, 0, 64, 36
2, 20665, Note_on_c, 0, 60, 57
2, 20723, Control_c, 0, 64, 37
2, 20743, Note_on_c, 0, 60, 0
2, 20758, Note_on_c, 0, 58, 67
2, 20819, Note_on_c, 0, 70, 0
2, 20852, Note_on_c, 0, 60, 65
2, 20867, Note_on_c, 0, 58, 0
2, 20945, Note_on_c, 0, 60, 0
2, 20955, Control_c, 0, 64, 36
2, 20959, Note_on_c, 0, 82, 82
2, 20973, Control_c, 0, 64, 35
2, 20973, Note_on_c, 0, 61, 64
2, 20990, Control_c, 0, 64, 34
2, 21009, Control_c, 0, 64, 33
2, 21064, Note_on_c, 0, 61, 0
2, 21068, Note_on_c, 0, 58, 69
2, 21146, Note_on_c, 0, 58, 0
2, 21182, Note_on_c, 0, 64, 75
2, 21221, Control_c, 0, 64, 32
2, 21228, Note_on_c, 0, 64, 0
2, 21283, Note_on_c, 0, 62, 69
2, 21330, Note_on_c, 0, 82, 0
2, 21339, Note_on_c, 0, 62, 0
2, 21394, Control_c, 0, 64, 31
2, 21399, Note_on_c, 0, 60, 67
2, 21411, Note_on_c, 0, 80, 73
2, 21469, Note_on_c, 0, 80, 0
2, 21496, Note_on_c, 0, 62, 64
2, 21507, Note_on_c, 0, 60, 0
2, 21592, Note_on_c, 0, 62, 0
2, 21613, Note_on_c, 0, 64, 67
2, 21617, Note_on_c, 0, 79, 76
2, 21666, Note_on_c, 0, 79, 0
2, 21679, Note_on_c, 0, 64, 0
2, 21725, Note_on_c, 0, 60, 65
2, 21805, Note_on_c, 0, 60, 0
2, 21829, Note_on_c, 0, 80, 78
2, 21843, Note_on_c, 0, 65, 66
2, 21896, Note_on_c, 0, 65, 0
2, 21909, Note_on_c, 0, 80, 0
2, 21947, Note_on_c, 0, 64, 75
2, 22037, Note_on_c, 0, 64, 0
2, 22052, Note_on_c, 0, 68, 84
2, 22059, Note_on_c, 0, 65, 72
2, 22098, Note_on_c, 0, 68, 0
2, 22126, Note_on_c, 0, 65, 0
2, 22159, Note_on_c, 0, 67, 74
2, 22259, Note_on_c, 0, 67, 0
2, 22262, Note_on_c, 0, 80, 87
2, 22273, Note_on_c, 0, 65, 67
2, 22368, Note_on_c, 0, 63, 70
2, 22379, Note_on_c, 0, 65, 0
2, 22447, Note_on_c, 0, 63, 0
2, 22478, Note_on_c, 0, 62, 74
2, 22551, Note_on_c, 0, 62, 0
2, 22587, Note_on_c, 0, 60, 65
2, 22623, Control_c, 0, 64, 32
2, 22679, Note_on_c, 0, 60, 0
2, 22696, Note_on_c, 0, 58, 67
2, 22713, Note_on_c, 0, 78, 76
2, 22722, Note_on_c, 0, 80, 0
2, 22773, Note_on_c, 0, 78, 0
2, 22805, Note_on_c, 0, 58, 0
2, 22810, Note_on_c, 0, 60, 65
2, 22908, Note_on_c, 0, 60, 0
2, 22915, Note_on_c, 0, 62, 76
2, 22926, Note_on_c, 0, 77, 71
2, 23005, Note_on_c, 0, 77, 0
2, 23009, Note_on_c, 0, 62, 0
2, 23018, Note_on_c, 0, 58, 71
2, 23100, Note_on_c, 0, 58, 0
2, 23145, Note_on_c, 0, 63, 70
2, 23149, Note_on_c, 0, 78, 78
2, 23200, Note_on_c, 0, 63, 0
2, 23244, Note_on_c, 0, 78, 0
2, 23254, Note_on_c, 0, 77, 76
2, 23353, Note_on_c, 0, 51, 71
2, 23353, Note_on_c, 0, 77, 0
2, 23358, Control_c, 0, 64, 33
2, 23369, Note_on_c, 0, 75, 69
2, 23396, Note_on_c, 0, 51, 0
2, 23459, Note_on_c, 0, 75, 0
2, 23474, Note_on_c, 0, 77, 65
2, 23525, Control_c, 0, 64, 34
2, 23563, Control_c, 0, 64, 35
2, 23592, Note_on_c, 0, 63, 76
2, 23592, Note_on_c, 0, 78, 74
2, 23601, Control_c, 0, 64, 36
2, 23606, Note_on_c, 0, 77, 0
2, 23620, Control_c, 0, 64, 37
2, 23658, Control_c, 0, 64, 38
2, 23698, Control_c, 0, 64, 39
2, 23702, Note_on_c, 0, 75, 74
2, 23707, Note_on_c, 0, 78, 0
2, 23716, Control_c, 0, 64, 40
2, 23759, Note_on_c, 0, 75, 0
2, 23812, Note_on_c, 0, 81, 76
2, 23926, Note_on_c, 0, 79, 76
2, 23952, Note_on_c, 0, 81, 0
2, 23961, Note_on_c, 0, 63, 0
2, 24026, Note_on_c, 0, 61, 66
2, 24030, Note_on_c, 0, 79, 0
2, 24035, Note_on_c, 0, 77, 78
2, 24063, Control_c, 0, 64, 39
2, 24073, Note_on_c, 0, 61, 0
2, 24101, Control_c, 0, 64, 38
2, 24107, Note_on_c, 0, 77, 0
2, 24142, Control_c, 0, 64, 37
2, 24142, Note_on_c, 0, 79, 75
2, 24199, Control_c, 0, 64, 36
2, 24234, Note_on_c, 0, 60, 71
2, 24250, Note_on_c, 0, 81, 73
2, 24254, Note_on_c, 0, 79, 0
2, 24274, Note_on_c, 0, 60, 0
2, 24311, Control_c, 0, 64, 35
2, 24332, Note_on_c, 0, 81, 0
2, 24350, Note_on_c, 0, 77, 73
2, 24439, Note_on_c, 0, 77, 0
2, 24461, Note_on_c, 0, 82, 76
2, 24465, Note_on_c, 0, 61, 67
2, 24519, Note_on_c, 0, 61, 0
2, 24559, Note_on_c, 0, 82, 0
2, 24568, Note_on_c, 0, 81, 70
2, 24673, Note_on_c, 0, 49, 64
2, 24678, Note_on_c, 0, 82, 75
2, 24693, Note_on_c, 0, 81, 0
2, 24729, Note_on_c, 0, 49, 0
2, 24774, Note_on_c, 0, 82, 0
2, 24788, Note_on_c, 0, 84, 70
2, 24901, Note_on_c, 0, 61, 74
2, 24909, Note_on_c, 0, 82, 75
2, 24913, Note_on_c, 0, 84, 0
2, 25007, Note_on_c, 0, 80, 72
2, 25028, Note_on_c, 0, 82, 0
2, 25102, Note_on_c, 0, 80, 0
2, 25118, Note_on_c, 0, 79, 77
2, 25225, Note_on_c, 0, 79, 0
2, 25227, Note_on_c, 0, 77, 77
2, 25321, Note_on_c, 0, 61, 0
2, 25325, Note_on_c, 0, 77, 0
2, 25343, Note_on_c, 0, 75, 70
2, 25359, Note_on_c, 0, 60, 61
2, 25397, Note_on_c, 0, 60, 0
2, 25443, Note_on_c, 0, 75, 0
2, 25449, Note_on_c, 0, 77, 67
2, 25538, Note_on_c, 0, 77, 0
2, 25540, Note_on_c, 0, 79, 74
2, 25568, Note_on_c, 0, 58, 66
2, 25616, Note_on_c, 0, 58, 0
2, 25639, Note_on_c, 0, 79, 0
2, 25658, Note_on_c, 0, 75, 69
2, 25747, Note_on_c, 0, 75, 0
2, 25783, Note_on_c, 0, 80, 73
2, 25792, Note_on_c, 0, 60, 60
2, 25829, Control_c, 0, 64, 36
2, 25840, Note_on_c, 0, 80, 0
2, 25845, Note_on_c, 0, 60, 0
2, 25873, Note_on_c, 0, 58, 70
2, 25971, Note_on_c, 0, 58, 0
2, 25984, Note_on_c, 0, 56, 74
2, 26001, Note_on_c, 0, 68, 85
2, 26058, Note_on_c, 0, 68, 0
2, 26090, Note_on_c, 0, 58, 80
2, 26095, Control_c, 0, 64, 37
2, 26131, Note_on_c, 0, 56, 0
2, 26212, Note_on_c, 0, 60, 76
2, 26212, Note_on_c, 0, 80, 83
2, 26216, Note_on_c, 0, 58, 0
2, 26308, Note_on_c, 0, 56, 69
2, 26308, Note_on_c, 0, 60, 0
2, 26407, Note_on_c, 0, 56, 0
2, 26420, Note_on_c, 0, 62, 77
2, 26441, Control_c, 0, 64, 36
2, 26510, Note_on_c, 0, 62, 0
2, 26526, Note_on_c, 0, 60, 64
2, 26629, Note_on_c, 0, 60, 0
2, 26638, Note_on_c, 0, 58, 71
2, 26646, Note_on_c, 0, 78, 73
2, 26670, Note_on_c, 0, 80, 0
2, 26715, Note_on_c, 0, 78, 0
2, 26755, Note_on_c, 0, 60, 68
2, 26769, Control_c, 0, 64, 35
2, 26783, Note_on_c, 0, 58, 0
2, 26851, Note_on_c, 0, 60, 0
2, 26862, Note_on_c, 0, 62, 72
2, 26869, Note_on_c, 0, 77, 75
2, 26935, Note_on_c, 0, 77, 0
2, 26969, Note_on_c, 0, 62, 0
2, 26971, Note_on_c, 0, 58, 71
2, 27075, Note_on_c, 0, 58, 0
2, 27079, Note_on_c, 0, 78, 77
2, 27090, Note_on_c, 0, 63, 73
2, 27137, Note_on_c, 0, 63, 0
2, 27159, Note_on_c, 0, 78, 0
2, 27189, Note_on_c, 0, 62, 72
2, 27266, Control_c, 0, 64, 36
2, 27296, Note_on_c, 0, 66, 80
2, 27303, Note_on_c, 0, 63, 76
2, 27321, Note_on_c, 0, 62, 0
2, 27367, Note_on_c, 0, 66, 0
2, 27387, Note_on_c, 0, 63, 0
2, 27402, Note_on_c, 0, 65, 73
2, 27497, Control_c, 0, 64, 37
2, 27513, Note_on_c, 0, 78, 89
2, 27520, Note_on_c, 0, 65, 0
2, 27524, Note_on_c, 0, 63, 75
2, 27626, Note_on_c, 0, 61, 66
2, 27639, Note_on_c, 0, 63, 0
2, 27713, Note_on_c, 0, 61, 0
2, 27733, Note_on_c, 0, 60, 70
2, 27823, Note_on_c, 0, 60, 0
2, 27843, Note_on_c, 0, 58, 68
2, 27938, Note_on_c, 0, 58, 0
2, 27960, Note_on_c, 0, 56, 72
2, 27960, Note_on_c, 0, 77, 79
2, 27960, Note_on_c, 0, 78, 0
2, 28033, Note_on_c, 0, 77, 0
2, 28075, Note_on_c, 0, 58, 74
2, 28112, Note_on_c, 0, 56, 0
2, 28177, Note_on_c, 0, 60, 78
2, 28186, Note_on_c, 0, 75, 77
2, 28188, Note_on_c, 0, 58, 0
2, 28267, Note_on_c, 0, 75, 0
2, 28284, Note_on_c, 0, 60, 0
2, 28288, Note_on_c, 0, 56, 72
2, 28375, Note_on_c, 0, 56, 0
2, 28390, Note_on_c, 0, 61, 78
2, 28407, Note_on_c, 0, 77, 78
2, 28465, Note_on_c, 0, 61, 0
2, 28510, Note_on_c, 0, 75, 79
2, 28516, Note_on_c, 0, 77, 0
2, 28588, Note_on_c, 0, 49, 71
2, 28622, Note_on_c, 0, 73, 73
2, 28626, Note_on_c, 0, 75, 0
2, 28641, Note_on_c, 0, 49, 0
2, 28718, Note_on_c, 0, 75, 72
2, 28734, Note_on_c, 0, 73, 0
2, 28824, Note_on_c, 0, 61, 81
2, 28824, Note_on_c, 0, 77, 79
2, 28834, Note_on_c, 0, 75, 0
2, 28928, Note_on_c, 0, 73, 77
2, 28956, Note_on_c, 0, 77, 0
2, 29052, Note_on_c, 0, 79, 81
2, 29056, Note_on_c, 0, 73, 0
2, 29150, Note_on_c, 0, 77, 73
2, 29219, Note_on_c, 0, 61, 0
2, 29232, Note_on_c, 0, 79, 0
2, 29261, Note_on_c, 0, 77, 0
2, 29270, Note_on_c, 0, 75, 76
2, 29278, Note_on_c, 0, 59, 73
2, 29341, Note_on_c, 0, 59, 0
2, 29371, Note_on_c, 0, 77, 73
2, 29375, Note_on_c, 0, 75, 0
2, 29480, Note_on_c, 0, 58, 74
2, 29480, Note_on_c, 0, 79, 75
2, 29492, Note_on_c, 0, 77, 0
2, 29538, Note_on_c, 0, 58, 0
2, 29584, Note_on_c, 0, 75, 68
2, 29584, Note_on_c, 0, 79, 0
2, 29698, Note_on_c, 0, 59, 78
2, 29702, Note_on_c, 0, 80, 78
2, 29711, Note_on_c, 0, 75, 0
2, 29768, Note_on_c, 0, 59, 0
2, 29796, Note_on_c, 0, 79, 80
2, 29805, Note_on_c, 0, 80, 0
2, 29916, Control_c, 0, 64, 38
2, 29925, Note_on_c, 0, 80, 78
2, 29930, Note_on_c, 0, 47, 75
2, 29959, Note_on_c, 0, 79, 0
2, 29972, Note_on_c, 0, 47, 0
2, 30033, Note_on_c, 0, 82, 77
2, 30037, Control_c, 0, 64, 39
2, 30041, Note_on_c, 0, 80, 0
2, 30090, Control_c, 0, 64, 40
2, 30126, Control_c, 0, 64, 41
2, 30152, Note_on_c, 0, 59, 84
2, 30154, Note_on_c, 0, 80, 77
2, 30190, Note_on_c, 0, 57, 60
2, 30219, Note_on_c, 0, 82, 0
2, 30224, Note_on_c, 0, 57, 0
2, 30274, Note_on_c, 0, 78, 78
2, 30295, Note_on_c, 0, 80, 0
2, 30381, Note_on_c, 0, 77, 78
2, 30386, Note_on_c, 0, 78, 0
2, 30484, Note_on_c, 0, 77, 0
2, 30486, Note_on_c, 0, 75, 77
2, 30567, Control_c, 0, 64, 42
2, 30598, Note_on_c, 0, 58, 79
2, 30598, Note_on_c, 0, 75, 0
2, 30600, Note_on_c, 0, 73, 81
2, 30609, Control_c, 0, 64, 41
2, 30609, Note_on_c, 0, 59, 0
2, 30627, Control_c, 0, 64, 40
2, 30644, Control_c, 0, 64, 38
2, 30664, Control_c, 0, 64, 37
2, 30673, Note_on_c, 0, 58, 0
2, 30686, Control_c, 0, 64, 36
2, 30713, Note_on_c, 0, 75, 68
2, 30724, Control_c, 0, 64, 35
2, 30748, Note_on_c, 0, 73, 0
2, 30809, Note_on_c, 0, 56, 70
2, 30821, Note_on_c, 0, 75, 0
2, 30823, Note_on_c, 0, 77, 72
2, 30852, Note_on_c, 0, 56, 0
2, 30906, Note_on_c, 0, 77, 0
2, 30910, Note_on_c, 0, 73, 67
2, 30990, Note_on_c, 0, 73, 0
2, 31073, Note_on_c, 0, 66, 53
2, 31088, Note_on_c, 0, 58, 33
2, 31145, Note_on_c, 0, 58, 0
2, 31150, Control_c, 0, 64, 34
2, 31185, Note_on_c, 0, 54, 44
2, 31249, Note_on_c, 0, 54, 0
2, 31310, Note_on_c, 0, 49, 36
2, 31380, Note_on_c, 0, 49, 0
2, 31388, Note_on_c, 0, 54, 49
2, 31456, Note_on_c, 0, 54, 0
2, 31487, Note_on_c, 0, 66, 0
2, 31523, Note_on_c, 0, 58, 51
2, 31530, Note_on_c, 0, 78, 56
2, 31579, Note_on_c, 0, 78, 0
2, 31599, Note_on_c, 0, 58, 0
2, 31635, Note_on_c, 0, 54, 46
2, 31707, Note_on_c, 0, 54, 0
2, 31748, Note_on_c, 0, 68, 59
2, 31777, Note_on_c, 0, 59, 46
2, 31847, Note_on_c, 0, 59, 0
2, 31887, Note_on_c, 0, 54, 48
2, 31948, Note_on_c, 0, 54, 0
2, 31989, Note_on_c, 0, 59, 58
2, 32052, Note_on_c, 0, 59, 0
2, 32106, Note_on_c, 0, 54, 48
2, 32161, Note_on_c, 0, 54, 0
2, 32165, Note_on_c, 0, 68, 0
2, 32188, Note_on_c, 0, 78, 56
2, 32205, Note_on_c, 0, 59, 53
2, 32237, Note_on_c, 0, 78, 0
2, 32253, Note_on_c, 0, 59, 0
2, 32294, Note_on_c, 0, 54, 55
2, 32405, Note_on_c, 0, 54, 0
2, 32425, Note_on_c, 0, 70, 58
2, 32447, Note_on_c, 0, 61, 43
2, 32504, Note_on_c, 0, 61, 0
2, 32554, Note_on_c, 0, 54, 46
2, 32607, Note_on_c, 0, 54, 0
2, 32645, Note_on_c, 0, 61, 49
2, 32714, Note_on_c, 0, 61, 0
2, 32747, Note_on_c, 0, 54, 56
2, 32824, Note_on_c, 0, 70, 0
2, 32842, Note_on_c, 0, 54, 0
2, 32862, Note_on_c, 0, 61, 57
2, 32862, Note_on_c, 0, 78, 62
2, 32908, Note_on_c, 0, 78, 0
2, 32941, Note_on_c, 0, 61, 0
2, 32994, Note_on_c, 0, 54, 53
2, 33063, Note_on_c, 0, 54, 0
2, 33072, Note_on_c, 0, 71, 64
2, 33088, Note_on_c, 0, 63, 60
2, 33161, Note_on_c, 0, 63, 0
2, 33195, Note_on_c, 0, 54, 63
2, 33264, Note_on_c, 0, 54, 0
2, 33296, Note_on_c, 0, 63, 68
2, 33379, Note_on_c, 0, 63, 0
2, 33410, Note_on_c, 0, 54, 64
2, 33473, Note_on_c, 0, 54, 0
2, 33507, Note_on_c, 0, 71, 0
2, 33526, Note_on_c, 0, 63, 63
2, 33531, Note_on_c, 0, 78, 62
2, 33569, Note_on_c, 0, 63, 0
2, 33576, Note_on_c, 0, 78, 0
2, 33620, Note_on_c, 0, 54, 63
2, 33681, Note_on_c, 0, 54, 0
2, 33736, Control_c, 0, 64, 35
2, 33741, Note_on_c, 0, 61, 55
2, 33751, Note_on_c, 0, 70, 58
2, 33791, Note_on_c, 0, 61, 0
2, 33814, Control_c, 0, 64, 36
2, 33837, Note_on_c, 0, 54, 57
2, 33898, Note_on_c, 0, 54, 0
2, 33949, Control_c, 0, 64, 37
2, 33956, Note_on_c, 0, 61, 52
2, 34014, Note_on_c, 0, 61, 0
2, 34049, Note_on_c, 0, 54, 54
2, 34122, Note_on_c, 0, 54, 0
2, 34144, Note_on_c, 0, 70, 0
2, 34170, Note_on_c, 0, 61, 53
2, 34175, Note_on_c, 0, 78, 57
2, 34227, Note_on_c, 0, 78, 0
2, 34231, Note_on_c, 0, 61, 0
2, 34274, Note_on_c, 0, 54, 60
2, 34359, Note_on_c, 0, 54, 0
2, 34407, Note_on_c, 0, 68, 67
2, 34414, Note_on_c, 0, 59, 55
2, 34480, Note_on_c, 0, 59, 0
2, 34523, Note_on_c, 0, 58, 50
2, 34595, Note_on_c, 0, 58, 0
2, 34629, Note_on_c, 0, 56, 58
2, 34698, Control_c, 0, 64, 38
2, 34725, Note_on_c, 0, 56, 0
2, 34734, Note_on_c, 0, 58, 62
2, 34736, Note_on_c, 0, 68, 0
2, 34798, Note_on_c, 0, 58, 0
2, 34832, Note_on_c, 0, 77, 63
2, 34843, Note_on_c, 0, 59, 58
2, 34874, Note_on_c, 0, 77, 0
2, 34918, Note_on_c, 0, 59, 0
2, 34947, Note_on_c, 0, 56, 55
2, 35013, Note_on_c, 0, 56, 0
2, 35053, Note_on_c, 0, 66, 60
2, 35081, Note_on_c, 0, 58, 49
2, 35161, Note_on_c, 0, 58, 0
2, 35177, Note_on_c, 0, 56, 52
2, 35255, Note_on_c, 0, 56, 0
2, 35273, Control_c, 0, 64, 39
2, 35292, Note_on_c, 0, 54, 56
2, 35321, Note_on_c, 0, 66, 0
2, 35350, Control_c, 0, 64, 40
2, 35368, Note_on_c, 0, 54, 0
2, 35388, Note_on_c, 0, 56, 64
2, 35406, Control_c, 0, 64, 41
2, 35455, Note_on_c, 0, 56, 0
2, 35466, Note_on_c, 0, 78, 75
2, 35504, Note_on_c, 0, 58, 54
2, 35577, Note_on_c, 0, 58, 0
2, 35604, Control_c, 0, 64, 42
2, 35604, Note_on_c, 0, 54, 60
2, 35702, Note_on_c, 0, 54, 0
2, 35708, Note_on_c, 0, 56, 60
2, 35781, Note_on_c, 0, 56, 0
2, 35810, Note_on_c, 0, 58, 60
2, 35911, Note_on_c, 0, 78, 0
2, 35916, Note_on_c, 0, 58, 0
2, 35931, Note_on_c, 0, 56, 59
2, 35951, Note_on_c, 0, 77, 72
2, 35981, Control_c, 0, 64, 41
2, 35986, Note_on_c, 0, 56, 0
2, 35992, Note_on_c, 0, 54, 60
2, 36041, Note_on_c, 0, 75, 66
2, 36052, Note_on_c, 0, 77, 0
2, 36067, Note_on_c, 0, 54, 0
2, 36120, Note_on_c, 0, 53, 57
2, 36129, Note_on_c, 0, 75, 0
2, 36140, Note_on_c, 0, 73, 75
2, 36185, Note_on_c, 0, 53, 0
2, 36222, Note_on_c, 0, 51, 59
2, 36246, Note_on_c, 0, 75, 67
2, 36276, Note_on_c, 0, 73, 0
2, 36332, Note_on_c, 0, 51, 0
2, 36351, Note_on_c, 0, 49, 52
2, 36359, Note_on_c, 0, 75, 0
2, 36368, Note_on_c, 0, 77, 70
2, 36455, Note_on_c, 0, 77, 0
2, 36456, Note_on_c, 0, 73, 65
2, 36549, Note_on_c, 0, 73, 0
2, 36578, Note_on_c, 0, 68, 62
2, 36651, Note_on_c, 0, 68, 0
2, 36682, Note_on_c, 0, 73, 64
2, 36713, Control_c, 0, 64, 40
2, 36758, Note_on_c, 0, 73, 0
2, 36790, Note_on_c, 0, 77, 68
2, 36805, Note_on_c, 0, 49, 0
2, 36809, Note_on_c, 0, 61, 50
2, 36864, Note_on_c, 0, 61, 0
2, 36871, Note_on_c, 0, 77, 0
2, 36892, Note_on_c, 0, 73, 67
2, 36953, Note_on_c, 0, 73, 0
2, 37019, Note_on_c, 0, 78, 70
2, 37026, Note_on_c, 0, 51, 56
2, 37113, Note_on_c, 0, 78, 0
2, 37131, Note_on_c, 0, 73, 65
2, 37192, Note_on_c, 0, 73, 0
2, 37252, Note_on_c, 0, 78, 77
2, 37347, Note_on_c, 0, 73, 76
2, 37352, Note_on_c, 0, 78, 0
2, 37433, Note_on_c, 0, 73, 0
2, 37469, Note_on_c, 0, 61, 60
2, 37474, Note_on_c, 0, 78, 85
2, 37505, Note_on_c, 0, 51, 0
2, 37540, Note_on_c, 0, 61, 0
2, 37571, Note_on_c, 0, 73, 76
2, 37590, Note_on_c, 0, 78, 0
2, 37669, Note_on_c, 0, 73, 0
2, 37705, Note_on_c, 0, 53, 53
2, 37705, Note_on_c, 0, 80, 77
2, 37810, Note_on_c, 0, 73, 76
2, 37823, Note_on_c, 0, 80, 0
2, 37913, Note_on_c, 0, 73, 0
2, 37934, Note_on_c, 0, 80, 84
2, 38041, Note_on_c, 0, 73, 84
2, 38058, Note_on_c, 0, 80, 0
2, 38158, Note_on_c, 0, 73, 0
2, 38158, Note_on_c, 0, 80, 85
2, 38163, Note_on_c, 0, 61, 59
2, 38214, Note_on_c, 0, 53, 0
2, 38260, Note_on_c, 0, 73, 77
2, 38263, Note_on_c, 0, 61, 0
2, 38289, Note_on_c, 0, 80, 0
2, 38347, Note_on_c, 0, 73, 0
2, 38380, Note_on_c, 0, 82, 83
2, 38387, Note_on_c, 0, 54, 59
2, 38500, Note_on_c, 0, 73, 75
2, 38509, Note_on_c, 0, 82, 0
2, 38591, Note_on_c, 0, 73, 0
2, 38610, Note_on_c, 0, 82, 87
2, 38721, Note_on_c, 0, 73, 75
2, 38741, Note_on_c, 0, 82, 0
2, 38819, Note_on_c, 0, 61, 57
2, 38824, Note_on_c, 0, 54, 0
2, 38827, Note_on_c, 0, 73, 0
2, 38836, Note_on_c, 0, 82, 82
2, 38922, Note_on_c, 0, 61, 0
2, 38955, Note_on_c, 0, 73, 71
2, 38964, Note_on_c, 0, 82, 0
2, 39055, Note_on_c, 0, 53, 54
2, 39055, Note_on_c, 0, 73, 0
2, 39064, Note_on_c, 0, 80, 76
2, 39182, Note_on_c, 0, 73, 76
2, 39193, Note_on_c, 0, 80, 0
2, 39270, Note_on_c, 0, 73, 0
2, 39300, Note_on_c, 0, 80, 82
2, 39410, Note_on_c, 0, 73, 73
2, 39423, Note_on_c, 0, 80, 0
2, 39492, Note_on_c, 0, 61, 62
2, 39496, Note_on_c, 0, 53, 0
2, 39518, Note_on_c, 0, 73, 0
2, 39521, Note_on_c, 0, 80, 78
2, 39598, Note_on_c, 0, 61, 0
2, 39627, Note_on_c, 0, 73, 73
2, 39631, Note_on_c, 0, 80, 0
2, 39741, Note_on_c, 0, 51, 65
2, 39744, Note_on_c, 0, 73, 0
2, 39750, Note_on_c, 0, 78, 71
2, 39849, Note_on_c, 0, 77, 74
2, 39909, Note_on_c, 0, 78, 0
2, 39960, Note_on_c, 0, 75, 76
2, 39964, Note_on_c, 0, 77, 0
2, 40059, Note_on_c, 0, 77, 75
2, 40097, Note_on_c, 0, 75, 0
2, 40114, Note_on_c, 0, 51, 0
2, 40165, Note_on_c, 0, 60, 68
2, 40165, Note_on_c, 0, 78, 77
2, 40184, Note_on_c, 0, 77, 0
2, 40234, Note_on_c, 0, 60, 0
2, 40261, Note_on_c, 0, 75, 68
2, 40274, Note_on_c, 0, 78, 0
2, 40364, Control_c, 0, 64, 41
2, 40381, Note_on_c, 0, 75, 0
2, 40381, Note_on_c, 0, 77, 80
2, 40394, Note_on_c, 0, 49, 65
2, 40481, Note_on_c, 0, 75, 70
2, 40492, Note_on_c, 0, 77, 0
2, 40587, Note_on_c, 0, 73, 78
2, 40587, Note_on_c, 0, 75, 0
2, 40685, Note_on_c, 0, 75, 73
2, 40721, Note_on_c, 0, 73, 0
2, 40769, Note_on_c, 0, 49, 0
2, 40796, Note_on_c, 0, 75, 0
2, 40803, Note_on_c, 0, 77, 78
2, 40807, Note_on_c, 0, 61, 76
2, 40862, Note_on_c, 0, 61, 0
2, 40882, Control_c, 0, 64, 40
2, 40902, Note_on_c, 0, 73, 80
2, 40916, Note_on_c, 0, 77, 0
2, 41019, Note_on_c, 0, 75, 75
2, 41026, Note_on_c, 0, 54, 72
2, 41046, Note_on_c, 0, 73, 0
2, 41053, Control_c, 0, 64, 39
2, 41081, Note_on_c, 0, 54, 0
2, 41111, Note_on_c, 0, 75, 0
2, 41128, Note_on_c, 0, 77, 75
2, 41220, Note_on_c, 0, 77, 0
2, 41238, Note_on_c, 0, 53, 67
2, 41238, Note_on_c, 0, 75, 75
2, 41285, Note_on_c, 0, 53, 0
2, 41342, Note_on_c, 0, 73, 71
2, 41347, Note_on_c, 0, 75, 0
2, 41434, Note_on_c, 0, 73, 0
2, 41445, Note_on_c, 0, 72, 71
2, 41455, Note_on_c, 0, 51, 73
2, 41498, Note_on_c, 0, 51, 0
2, 41506, Note_on_c, 0, 72, 0
2, 41555, Note_on_c, 0, 70, 69
2, 41623, Note_on_c, 0, 70, 0
2, 41676, Note_on_c, 0, 72, 69
2, 41687, Note_on_c, 0, 56, 67
2, 41742, Note_on_c, 0, 56, 0
2, 41768, Control_c, 0, 64, 38
2, 41768, Note_on_c, 0, 72, 0
2, 41777, Note_on_c, 0, 68, 67
2, 41831, Note_on_c, 0, 68, 0
2, 41907, Note_on_c, 0, 66, 57
2, 41962, Note_on_c, 0, 66, 0
2, 42009, Note_on_c, 0, 68, 56
2, 42065, Note_on_c, 0, 68, 0
2, 42130, Note_on_c, 0, 63, 49
2, 42169, Note_on_c, 0, 63, 0
2, 42189, Control_c, 0, 64, 37
2, 42214, Note_on_c, 0, 68, 57
2, 42274, Note_on_c, 0, 68, 0
2, 42348, Note_on_c, 0, 56, 48
2, 42361, Note_on_c, 0, 72, 58
2, 42411, Note_on_c, 0, 56, 0
2, 42430, Note_on_c, 0, 72, 0
2, 42463, Note_on_c, 0, 68, 53
2, 42518, Note_on_c, 0, 68, 0
2, 42568, Note_on_c, 0, 66, 45
2, 42622, Note_on_c, 0, 66, 0
2, 42684, Note_on_c, 0, 68, 47
2, 42738, Note_on_c, 0, 68, 0
2, 42773, Note_on_c, 0, 63, 47
2, 42818, Note_on_c, 0, 63, 0
2, 42886, Note_on_c, 0, 68, 57
2, 42949, Note_on_c, 0, 68, 0
2, 43021, Note_on_c, 0, 56, 50
2, 43025, Note_on_c, 0, 73, 63
2, 43080, Note_on_c, 0, 56, 0
2, 43113, Note_on_c, 0, 73, 0
2, 43134, Note_on_c, 0, 68, 49
2, 43177, Note_on_c, 0, 68, 0
2, 43255, Note_on_c, 0, 65, 43
2, 43309, Note_on_c, 0, 65, 0
2, 43357, Note_on_c, 0, 68, 43
2, 43413, Note_on_c, 0, 68, 0
2, 43467, Note_on_c, 0, 61, 51
2, 43518, Note_on_c, 0, 61, 0
2, 43570, Note_on_c, 0, 68, 56
2, 43630, Note_on_c, 0, 68, 0
2, 43699, Note_on_c, 0, 73, 64
2, 43704, Note_on_c, 0, 56, 52
2, 43773, Note_on_c, 0, 56, 0
2, 43790, Note_on_c, 0, 73, 0
2, 43815, Note_on_c, 0, 68, 52
2, 43863, Note_on_c, 0, 68, 0
2, 43922, Note_on_c, 0, 65, 45
2, 43977, Note_on_c, 0, 65, 0
2, 44017, Note_on_c, 0, 68, 59
2, 44068, Note_on_c, 0, 68, 0
2, 44126, Note_on_c, 0, 61, 50
2, 44182, Note_on_c, 0, 61, 0
2, 44230, Note_on_c, 0, 68, 60
2, 44288, Note_on_c, 0, 68, 0
2, 44359, Note_on_c, 0, 78, 67
2, 44370, Note_on_c, 0, 56, 50
2, 44437, Note_on_c, 0, 56, 0
2, 44472, Note_on_c, 0, 78, 0
2, 44490, Note_on_c, 0, 68, 59
2, 44539, Note_on_c, 0, 68, 0
2, 44595, Note_on_c, 0, 63, 46
2, 44654, Note_on_c, 0, 63, 0
2, 44689, Note_on_c, 0, 68, 58
2, 44754, Note_on_c, 0, 68, 0
2, 44805, Note_on_c, 0, 60, 57
2, 44863, Note_on_c, 0, 60, 0
2, 44900, Note_on_c, 0, 68, 63
2, 44958, Note_on_c, 0, 68, 0
2, 45019, Note_on_c, 0, 78, 76
2, 45038, Note_on_c, 0, 56, 56
2, 45097, Note_on_c, 0, 56, 0
2, 45132, Note_on_c, 0, 68, 62
2, 45138, Note_on_c, 0, 78, 0
2, 45187, Note_on_c, 0, 68, 0
2, 45249, Note_on_c, 0, 63, 55
2, 45311, Note_on_c, 0, 63, 0
2, 45339, Note_on_c, 0, 68, 66
2, 45430, Note_on_c, 0, 68, 0
2, 45470, Note_on_c, 0, 60, 60
2, 45526, Note_on_c, 0, 60, 0
2, 45576, Note_on_c, 0, 68, 67
2, 45627, Note_on_c, 0, 68, 0
2, 45688, Note_on_c, 0, 77, 77
2, 45692, Note_on_c, 0, 56, 63
2, 45756, Note_on_c, 0, 56, 0
2, 45789, Note_on_c, 0, 77, 0
2, 45819, Note_on_c, 0, 68, 61
2, 45867, Note_on_c, 0, 68, 0
2, 45910, Note_on_c, 0, 65, 54
2, 45968, Note_on_c, 0, 65, 0
2, 46013, Note_on_c, 0, 68, 61
2, 46093, Note_on_c, 0, 68, 0
2, 46122, Note_on_c, 0, 61, 63
2, 46178, Note_on_c, 0, 61, 0
2, 46230, Note_on_c, 0, 68, 70
2, 46304, Note_on_c, 0, 68, 0
2, 46349, Note_on_c, 0, 77, 81
2, 46365, Note_on_c, 0, 56, 67
2, 46441, Note_on_c, 0, 56, 0
2, 46445, Note_on_c, 0, 77, 0
2, 46462, Note_on_c, 0, 68, 70
2, 46546, Note_on_c, 0, 68, 0
2, 46588, Note_on_c, 0, 65, 62
2, 46668, Note_on_c, 0, 65, 0
2, 46691, Note_on_c, 0, 68, 70
2, 46786, Note_on_c, 0, 68, 0
2, 46809, Note_on_c, 0, 61, 67
2, 46890, Note_on_c, 0, 61, 0
2, 46911, Note_on_c, 0, 68, 74
2, 46988, Note_on_c, 0, 68, 0
2, 47034, Note_on_c, 0, 56, 73
2, 47035, Note_on_c, 0, 79, 81
2, 47124, Note_on_c, 0, 56, 0
2, 47143, Note_on_c, 0, 79, 0
2, 47156, Note_on_c, 0, 70, 65
2, 47214, Note_on_c, 0, 70, 0
2, 47266, Note_on_c, 0, 64, 69
2, 47324, Note_on_c, 0, 64, 0
2, 47365, Note_on_c, 0, 70, 64
2, 47449, Note_on_c, 0, 70, 0
2, 47481, Note_on_c, 0, 61, 68
2, 47555, Note_on_c, 0, 61, 0
2, 47584, Note_on_c, 0, 70, 73
2, 47671, Note_on_c, 0, 70, 0
2, 47708, Note_on_c, 0, 79, 84
2, 47715, Note_on_c, 0, 56, 75
2, 47815, Note_on_c, 0, 79, 0
2, 47825, Note_on_c, 0, 56, 0
2, 47825, Note_on_c, 0, 70, 67
2, 47909, Note_on_c, 0, 70, 0
2, 47945, Note_on_c, 0, 64, 73
2, 48027, Note_on_c, 0, 64, 0
2, 48053, Note_on_c, 0, 70, 71
2, 48154, Note_on_c, 0, 70, 0
2, 48159, Note_on_c, 0, 61, 73
2, 48246, Note_on_c, 0, 61, 0
2, 48281, Note_on_c, 0, 70, 77
2, 48330, Note_on_c, 0, 70, 0
2, 48386, Note_on_c, 0, 56, 77
2, 48392, Note_on_c, 0, 80, 86
2, 48497, Note_on_c, 0, 56, 0
2, 48511, Note_on_c, 0, 72, 78
2, 48538, Note_on_c, 0, 80, 0
2, 48583, Note_on_c, 0, 72, 0
2, 48629, Note_on_c, 0, 63, 74
2, 48725, Note_on_c, 0, 72, 75
2, 48727, Note_on_c, 0, 63, 0
2, 48811, Note_on_c, 0, 72, 0
2, 48841, Note_on_c, 0, 60, 76
2, 48935, Note_on_c, 0, 60, 0
2, 48949, Note_on_c, 0, 72, 81
2, 49020, Note_on_c, 0, 72, 0
2, 49068, Note_on_c, 0, 54, 80
2, 49072, Note_on_c, 0, 80, 87
2, 49168, Note_on_c, 0, 72, 75
2, 49200, Note_on_c, 0, 54, 0
2, 49221, Note_on_c, 0, 80, 0
2, 49262, Note_on_c, 0, 72, 0
2, 49294, Note_on_c, 0, 63, 76
2, 49380, Note_on_c, 0, 63, 0
2, 49397, Note_on_c, 0, 72, 81
2, 49485, Note_on_c, 0, 72, 0
2, 49514, Note_on_c, 0, 60, 78
2, 49625, Note_on_c, 0, 72, 81
2, 49649, Note_on_c, 0, 60, 0
2, 49698, Note_on_c, 0, 72, 0
2, 49750, Note_on_c, 0, 53, 81
2, 49750, Note_on_c, 0, 80, 85
2, 49859, Note_on_c, 0, 73, 80
2, 49866, Note_on_c, 0, 53, 0
2, 49887, Note_on_c, 0, 80, 0
2, 49961, Note_on_c, 0, 73, 0
2, 49977, Note_on_c, 0, 65, 80
2, 50066, Note_on_c, 0, 65, 0
2, 50079, Note_on_c, 0, 68, 85
2, 50152, Note_on_c, 0, 68, 0
2, 50194, Note_on_c, 0, 61, 81
2, 50305, Note_on_c, 0, 73, 89
2, 50320, Note_on_c, 0, 61, 0
2, 50406, Note_on_c, 0, 73, 0
2, 50421, Note_on_c, 0, 56, 86
2, 50514, Note_on_c, 0, 56, 0
2, 50536, Note_on_c, 0, 77, 92
2, 50632, Note_on_c, 0, 77, 0
2, 50641, Note_on_c, 0, 53, 86
2, 50749, Note_on_c, 0, 53, 0
2, 50771, Note_on_c, 0, 80, 89
2, 50877, Note_on_c, 0, 80, 0
2, 50879, Note_on_c, 0, 51, 88
2, 50996, Note_on_c, 0, 82, 81
2, 51000, Note_on_c, 0, 51, 0
2, 51090, Note_on_c, 0, 82, 0
2, 51122, Note_on_c, 0, 50, 83
2, 51126, Note_on_c, 0, 83, 85
2, 51130, Control_c, 0, 64, 38
2, 51235, Note_on_c, 0, 82, 79
2, 51258, Note_on_c, 0, 50, 0
2, 51305, Note_on_c, 0, 83, 0
2, 51345, Note_on_c, 0, 53, 78
2, 51350, Note_on_c, 0, 80, 77
2, 51422, Note_on_c, 0, 82, 0
2, 51445, Note_on_c, 0, 78, 82
2, 51454, Note_on_c, 0, 53, 0
2, 51471, Note_on_c, 0, 80, 0
2, 51558, Note_on_c, 0, 58, 80
2, 51563, Note_on_c, 0, 77, 82
2, 51576, Note_on_c, 0, 78, 0
2, 51657, Note_on_c, 0, 58, 0
2, 51677, Note_on_c, 0, 75, 81
2, 51677, Note_on_c, 0, 77, 0
2, 51777, Note_on_c, 0, 75, 0
2, 51788, Note_on_c, 0, 62, 80
2, 51794, Note_on_c, 0, 77, 89
2, 51844, Control_c, 0, 64, 37
2, 51886, Note_on_c, 0, 62, 0
2, 51901, Note_on_c, 0, 78, 83
2, 51922, Note_on_c, 0, 77, 0
2, 52016, Note_on_c, 0, 65, 74
2, 52016, Note_on_c, 0, 80, 83
2, 52063, Note_on_c, 0, 78, 0
2, 52119, Note_on_c, 0, 65, 0
2, 52119, Note_on_c, 0, 83, 79
2, 52132, Note_on_c, 0, 80, 0
2, 52231, Note_on_c, 0, 82, 75
2, 52240, Note_on_c, 0, 68, 79
2, 52281, Note_on_c, 0, 83, 0
2, 52334, Note_on_c, 0, 80, 80
2, 52338, Note_on_c, 0, 68, 0
2, 52371, Note_on_c, 0, 82, 0
2, 52437, Note_on_c, 0, 80, 0
2, 52457, Note_on_c, 0, 66, 82
2, 52461, Note_on_c, 0, 82, 77
2, 52495, Control_c, 0, 64, 36
2, 52544, Note_on_c, 0, 66, 0
2, 52562, Note_on_c, 0, 75, 81
2, 52566, Note_on_c, 0, 82, 0
2, 52615, Note_on_c, 0, 75, 0
2, 52685, Note_on_c, 0, 63, 78
2, 52735, Note_on_c, 0, 63, 0
2, 52787, Note_on_c, 0, 66, 80
2, 52848, Note_on_c, 0, 66, 0
2, 52898, Note_on_c, 0, 58, 75
2, 52961, Note_on_c, 0, 58, 0
2, 53007, Note_on_c, 0, 70, 79
2, 53076, Note_on_c, 0, 70, 0
2, 53129, Note_on_c, 0, 54, 73
2, 53192, Note_on_c, 0, 54, 0
2, 53230, Note_on_c, 0, 75, 80
2, 53301, Note_on_c, 0, 75, 0
2, 53355, Note_on_c, 0, 51, 76
2, 53446, Note_on_c, 0, 51, 0
2, 53467, Note_on_c, 0, 78, 78
2, 53555, Note_on_c, 0, 78, 0
2, 53578, Note_on_c, 0, 49, 76
2, 53660, Note_on_c, 0, 49, 0
2, 53703, Note_on_c, 0, 80, 80
2, 53796, Note_on_c, 0, 48, 76
2, 53817, Note_on_c, 0, 80, 0
2, 53817, Note_on_c, 0, 81, 81
2, 53889, Note_on_c, 0, 48, 0
2, 53930, Note_on_c, 0, 80, 79
2, 53956, Note_on_c, 0, 81, 0
2, 54016, Note_on_c, 0, 51, 71
2, 54036, Note_on_c, 0, 78, 75
2, 54049, Note_on_c, 0, 80, 0
2, 54094, Note_on_c, 0, 51, 0
2, 54125, Note_on_c, 0, 78, 0
2, 54136, Note_on_c, 0, 76, 69
2, 54233, Note_on_c, 0, 56, 69
2, 54251, Note_on_c, 0, 75, 71
2, 54255, Note_on_c, 0, 76, 0
2, 54290, Note_on_c, 0, 56, 0
2, 54347, Note_on_c, 0, 75, 0
2, 54351, Note_on_c, 0, 73, 76
2, 54462, Note_on_c, 0, 60, 64
2, 54471, Note_on_c, 0, 75, 72
2, 54491, Note_on_c, 0, 73, 0
2, 54550, Note_on_c, 0, 75, 0
2, 54574, Note_on_c, 0, 76, 77
2, 54582, Note_on_c, 0, 60, 0
2, 54678, Note_on_c, 0, 63, 67
2, 54691, Note_on_c, 0, 78, 77
2, 54696, Note_on_c, 0, 76, 0
2, 54750, Note_on_c, 0, 63, 0
2, 54793, Note_on_c, 0, 81, 70
2, 54798, Note_on_c, 0, 78, 0
2, 54902, Note_on_c, 0, 66, 69
2, 54908, Note_on_c, 0, 81, 0
2, 54913, Note_on_c, 0, 80, 74
2, 54952, Note_on_c, 0, 66, 0
2, 54999, Note_on_c, 0, 78, 74
2, 54999, Note_on_c, 0, 80, 0
2, 55117, Note_on_c, 0, 64, 74
2, 55126, Note_on_c, 0, 80, 77
2, 55130, Note_on_c, 0, 78, 0
2, 55201, Note_on_c, 0, 64, 0
2, 55227, Note_on_c, 0, 80, 0
2, 55234, Note_on_c, 0, 73, 74
2, 55286, Note_on_c, 0, 73, 0
2, 55346, Note_on_c, 0, 61, 72
2, 55406, Note_on_c, 0, 61, 0
2, 55451, Note_on_c, 0, 76, 80
2, 55539, Note_on_c, 0, 76, 0
2, 55569, Note_on_c, 0, 57, 78
2, 55663, Note_on_c, 0, 57, 0
2, 55681, Note_on_c, 0, 73, 84
2, 55776, Note_on_c, 0, 73, 0
2, 55798, Note_on_c, 0, 54, 81
2, 55893, Note_on_c, 0, 54, 0
2, 55911, Note_on_c, 0, 69, 79
2, 56001, Note_on_c, 0, 69, 0
2, 56025, Note_on_c, 0, 63, 86
2, 56123, Note_on_c, 0, 63, 0
2, 56130, Note_on_c, 0, 66, 84
2, 56209, Note_on_c, 0, 66, 0
2, 56241, Note_on_c, 0, 60, 78
2, 56333, Note_on_c, 0, 60, 0
2, 56362, Note_on_c, 0, 75, 79
2, 56445, Note_on_c, 0, 75, 0
2, 56471, Note_on_c, 0, 52, 77
2, 56569, Note_on_c, 0, 52, 0
2, 56574, Note_on_c, 0, 68, 78
2, 56655, Note_on_c, 0, 68, 0
2, 56678, Note_on_c, 0, 61, 76
2, 56754, Note_on_c, 0, 61, 0
2, 56804, Note_on_c, 0, 64, 76
2, 56883, Note_on_c, 0, 64, 0
2, 56920, Note_on_c, 0, 57, 75
2, 57024, Note_on_c, 0, 57, 0
2, 57024, Note_on_c, 0, 73, 74
2, 57126, Note_on_c, 0, 73, 0
2, 57144, Note_on_c, 0, 54, 69
2, 57218, Note_on_c, 0, 54, 0
2, 57236, Note_on_c, 0, 69, 66
2, 57307, Note_on_c, 0, 69, 0
2, 57364, Note_on_c, 0, 51, 67
2, 57452, Note_on_c, 0, 66, 65
2, 57456, Note_on_c, 0, 51, 0
2, 57508, Note_on_c, 0, 66, 0
2, 57573, Note_on_c, 0, 48, 63
2, 57646, Note_on_c, 0, 48, 0
2, 57700, Note_on_c, 0, 63, 56
2, 57748, Note_on_c, 0, 63, 0
2, 57850, Note_on_c, 0, 44, 58
2, 57883, Note_on_c, 0, 60, 63
2, 57925, Note_on_c, 0, 44, 0
2, 57952, Note_on_c, 0, 60, 0
2, 57986, Note_on_c, 0, 56, 55
2, 58037, Note_on_c, 0, 56, 0
2, 58091, Note_on_c, 0, 54, 52
2, 58153, Note_on_c, 0, 54, 0
2, 58197, Note_on_c, 0, 56, 56
2, 58258, Note_on_c, 0, 56, 0
2, 58299, Note_on_c, 0, 51, 55
2, 58347, Note_on_c, 0, 51, 0
2, 58408, Note_on_c, 0, 56, 54
2, 58470, Note_on_c, 0, 56, 0
2, 58526, Note_on_c, 0, 60, 61
2, 58533, Note_on_c, 0, 44, 54
2, 58604, Note_on_c, 0, 44, 0
2, 58629, Note_on_c, 0, 60, 0
2, 58636, Note_on_c, 0, 56, 53
2, 58695, Note_on_c, 0, 56, 0
2, 58752, Note_on_c, 0, 54, 55
2, 58814, Note_on_c, 0, 54, 0
2, 58855, Note_on_c, 0, 56, 55
2, 58924, Note_on_c, 0, 56, 0
2, 58969, Note_on_c, 0, 51, 62
2, 59026, Note_on_c, 0, 51, 0
2, 59073, Note_on_c, 0, 56, 65
2, 59136, Note_on_c, 0, 56, 0
2, 59194, Note_on_c, 0, 61, 65
2, 59206, Note_on_c, 0, 44, 62
2, 59279, Note_on_c, 0, 44, 0
2, 59298, Note_on_c, 0, 56, 57
2, 59303, Note_on_c, 0, 61, 0
2, 59359, Note_on_c, 0, 56, 0
2, 59425, Note_on_c, 0, 53, 53
2, 59477, Note_on_c, 0, 53, 0
2, 59536, Note_on_c, 0, 56, 52
2, 59593, Note_on_c, 0, 56, 0
2, 59642, Note_on_c, 0, 49, 56
2, 59704, Note_on_c, 0, 49, 0
2, 59759, Note_on_c, 0, 56, 61
2, 59822, Note_on_c, 0, 56, 0
2, 59884, Note_on_c, 0, 44, 63
2, 59888, Note_on_c, 0, 61, 66
2, 59964, Note_on_c, 0, 44, 0
2, 59982, Note_on_c, 0, 61, 0
2, 60008, Note_on_c, 0, 56, 59
2, 60070, Note_on_c, 0, 56, 0
2, 60110, Note_on_c, 0, 53, 54
2, 60176, Note_on_c, 0, 53, 0
2, 60211, Note_on_c, 0, 56, 58
2, 60275, Note_on_c, 0, 56, 0
2, 60326, Note_on_c, 0, 49, 63
2, 60396, Note_on_c, 0, 49, 0
2, 60421, Note_on_c, 0, 56, 59
2, 60497, Note_on_c, 0, 56, 0
2, 60547, Note_on_c, 0, 66, 73
2, 60570, Note_on_c, 0, 44, 62
2, 60652, Note_on_c, 0, 44, 0
2, 60672, Note_on_c, 0, 56, 61
2, 60672, Note_on_c, 0, 66, 0
2, 60733, Note_on_c, 0, 56, 0
2, 60791, Note_on_c, 0, 51, 60
2, 60860, Note_on_c, 0, 51, 0
2, 60896, Note_on_c, 0, 56, 56
2, 60965, Note_on_c, 0, 56, 0
2, 61011, Note_on_c, 0, 48, 60
2, 61086, Note_on_c, 0, 48, 0
2, 61111, Note_on_c, 0, 56, 57
2, 61168, Note_on_c, 0, 56, 0
2, 61223, Note_on_c, 0, 66, 71
2, 61252, Note_on_c, 0, 44, 58
2, 61339, Note_on_c, 0, 56, 60
2, 61343, Note_on_c, 0, 44, 0
2, 61343, Note_on_c, 0, 66, 0
2, 61408, Note_on_c, 0, 56, 0
2, 61454, Note_on_c, 0, 51, 65
2, 61520, Note_on_c, 0, 51, 0
2, 61567, Note_on_c, 0, 56, 65
2, 61653, Note_on_c, 0, 48, 61
2, 61665, Note_on_c, 0, 56, 0
2, 61730, Note_on_c, 0, 48, 0
2, 61788, Note_on_c, 0, 56, 69
2, 61846, Note_on_c, 0, 56, 0
2, 61896, Note_on_c, 0, 65, 76
2, 61907, Note_on_c, 0, 44, 66
2, 62005, Note_on_c, 0, 56, 67
2, 62007, Note_on_c, 0, 65, 0
2, 62016, Note_on_c, 0, 44, 0
2, 62086, Note_on_c, 0, 56, 0
2, 62121, Note_on_c, 0, 53, 67
2, 62207, Note_on_c, 0, 53, 0
2, 62229, Note_on_c, 0, 56, 70
2, 62323, Note_on_c, 0, 56, 0
2, 62346, Note_on_c, 0, 49, 67
2, 62450, Note_on_c, 0, 49, 0
2, 62452, Note_on_c, 0, 56, 69
2, 62508, Note_on_c, 0, 56, 0
2, 62556, Note_on_c, 0, 65, 78
2, 62583, Note_on_c, 0, 44, 75
2, 62673, Note_on_c, 0, 56, 69
2, 62678, Note_on_c, 0, 65, 0
2, 62689, Note_on_c, 0, 44, 0
2, 62767, Note_on_c, 0, 56, 0
2, 62799, Note_on_c, 0, 53, 75
2, 62889, Note_on_c, 0, 53, 0
2, 62897, Note_on_c, 0, 56, 70
2, 63008, Note_on_c, 0, 56, 0
2, 63010, Note_on_c, 0, 49, 75
2, 63125, Note_on_c, 0, 56, 76
2, 63137, Note_on_c, 0, 49, 0
2, 63196, Note_on_c, 0, 56, 0
2, 63251, Note_on_c, 0, 44, 85
2, 63251, Note_on_c, 0, 67, 80
2, 63365, Note_on_c, 0, 58, 70
2, 63369, Note_on_c, 0, 44, 0
2, 63369, Note_on_c, 0, 67, 0
2, 63456, Note_on_c, 0, 58, 0
2, 63472, Note_on_c, 0, 52, 75
2, 63576, Note_on_c, 0, 52, 0
2, 63594, Note_on_c, 0, 58, 77
2, 63690, Note_on_c, 0, 49, 80
2, 63711, Note_on_c, 0, 58, 0
2, 63804, Note_on_c, 0, 58, 82
2, 63819, Note_on_c, 0, 49, 0
2, 63922, Note_on_c, 0, 67, 83
2, 63926, Note_on_c, 0, 44, 88
2, 63926, Note_on_c, 0, 58, 0
2, 63974, Note_on_c, 0, 66, 45
2, 63994, Control_c, 0, 64, 37
2, 64009, Note_on_c, 0, 66, 0
2, 64037, Note_on_c, 0, 58, 79
2, 64045, Note_on_c, 0, 67, 0
2, 64049, Note_on_c, 0, 44, 0
2, 64135, Note_on_c, 0, 58, 0
2, 64139, Note_on_c, 0, 52, 84
2, 64249, Note_on_c, 0, 58, 85
2, 64258, Note_on_c, 0, 52, 0
2, 64368, Note_on_c, 0, 49, 85
2, 64380, Note_on_c, 0, 58, 0
2, 64437, Control_c, 0, 64, 38
2, 64475, Note_on_c, 0, 58, 82
2, 64521, Note_on_c, 0, 49, 0
2, 64555, Note_on_c, 0, 58, 0
2, 64608, Note_on_c, 0, 44, 92
2, 64685, Control_c, 0, 64, 39
2, 64720, Note_on_c, 0, 48, 82
2, 64753, Note_on_c, 0, 44, 0
2, 64829, Note_on_c, 0, 51, 92
2, 64850, Note_on_c, 0, 48, 0
2, 64911, Note_on_c, 0, 51, 0
2, 64949, Note_on_c, 0, 54, 85
2, 65056, Note_on_c, 0, 57, 83
2, 65089, Control_c, 0, 64, 38
2, 65094, Note_on_c, 0, 54, 0
2, 65165, Note_on_c, 0, 60, 79
2, 65184, Note_on_c, 0, 57, 0
2, 65276, Note_on_c, 0, 61, 79
2, 65281, Note_on_c, 0, 60, 0
2, 65376, Note_on_c, 0, 64, 87
2, 65384, Note_on_c, 0, 61, 0
2, 65486, Note_on_c, 0, 67, 85
2, 65536, Note_on_c, 0, 64, 0
2, 65551, Note_on_c, 0, 67, 0
2, 65593, Note_on_c, 0, 70, 83
2, 65645, Control_c, 0, 64, 39
2, 65699, Note_on_c, 0, 73, 84
2, 65704, Control_c, 0, 64, 40
2, 65745, Control_c, 0, 64, 41
2, 65745, Note_on_c, 0, 70, 0
2, 65780, Control_c, 0, 64, 42
2, 65801, Control_c, 0, 64, 43
2, 65813, Note_on_c, 0, 76, 85
2, 65819, Note_on_c, 0, 73, 0
2, 65840, Control_c, 0, 64, 45
2, 65857, Control_c, 0, 64, 46
2, 65874, Control_c, 0, 64, 48
2, 65898, Control_c, 0, 64, 54
2, 65907, Note_on_c, 0, 76, 0
2, 65914, Control_c, 0, 64, 60
2, 65929, Note_on_c, 0, 72, 89
2, 65935, Control_c, 0, 64, 63
2, 65940, Note_on_c, 0, 44, 86
2, 65951, Control_c, 0, 64, 66
2, 65972, Note_on_c, 0, 44, 0
2, 65975, Control_c, 0, 64, 72
2, 65994, Control_c, 0, 64, 83
2, 66012, Control_c, 0, 64, 100
2, 66030, Control_c, 0, 64, 116
2, 66047, Note_on_c, 0, 72, 0
2, 66047, Note_on_c, 0, 75, 78
2, 66051, Control_c, 0, 64, 127
2, 66158, Note_on_c, 0, 78, 85
2, 66161, Note_on_c, 0, 75, 0
2, 66261, Control_c, 0, 64, 120
2, 66261, Note_on_c, 0, 75, 80
2, 66272, Note_on_c, 0, 78, 0
2, 66281, Control_c, 0, 64, 115
2, 66298, Control_c, 0, 64, 111
2, 66317, Control_c, 0, 64, 109
2, 66336, Control_c, 0, 64, 107
2, 66355, Control_c, 0, 64, 106
2, 66369, Note_on_c, 0, 72, 85
2, 66375, Note_on_c, 0, 75, 0
2, 66380, Control_c, 0, 64, 105
2, 66393, Control_c, 0, 64, 103
2, 66412, Control_c, 0, 64, 97
2, 66432, Control_c, 0, 64, 82
2, 66451, Control_c, 0, 64, 69
2, 66472, Control_c, 0, 64, 59
2, 66476, Note_on_c, 0, 68, 90
2, 66485, Note_on_c, 0, 72, 0
2, 66492, Control_c, 0, 64, 49
2, 66509, Control_c, 0, 64, 43
2, 66568, Note_on_c, 0, 68, 0
2, 66591, Note_on_c, 0, 66, 88
2, 66703, Note_on_c, 0, 66, 0
2, 66707, Note_on_c, 0, 63, 77
2, 66815, Note_on_c, 0, 60, 77
2, 66815, Note_on_c, 0, 63, 0
2, 66894, Control_c, 0, 64, 44
2, 66911, Note_on_c, 0, 56, 77
2, 66915, Note_on_c, 0, 60, 0
2, 66972, Control_c, 0, 64, 45
2, 67034, Note_on_c, 0, 60, 82
2, 67043, Note_on_c, 0, 56, 0
2, 67047, Control_c, 0, 64, 46
2, 67123, Control_c, 0, 64, 47
2, 67147, Note_on_c, 0, 63, 83
2, 67153, Note_on_c, 0, 60, 0
2, 67259, Control_c, 0, 64, 48
2, 67263, Note_on_c, 0, 63, 0
2, 67268, Note_on_c, 0, 56, 84
2, 67277, Note_on_c, 0, 65, 83
2, 67336, Control_c, 0, 64, 49
2, 67374, Control_c, 0, 64, 50
2, 67390, Note_on_c, 0, 68, 84
2, 67395, Control_c, 0, 64, 56
2, 67413, Control_c, 0, 64, 61
2, 67424, Note_on_c, 0, 65, 0
2, 67433, Control_c, 0, 64, 64
2, 67438, Note_on_c, 0, 56, 0
2, 67454, Control_c, 0, 64, 66
2, 67470, Control_c, 0, 64, 69
2, 67489, Control_c, 0, 64, 73
2, 67509, Control_c, 0, 64, 75
2, 67513, Note_on_c, 0, 73, 87
2, 67518, Note_on_c, 0, 68, 0
2, 67586, Control_c, 0, 64, 74
2, 67620, Note_on_c, 0, 68, 86
2, 67623, Control_c, 0, 64, 73
2, 67627, Note_on_c, 0, 73, 0
2, 67664, Control_c, 0, 64, 72
2, 67698, Control_c, 0, 64, 71
2, 67728, Note_on_c, 0, 65, 81
2, 67736, Note_on_c, 0, 68, 0
2, 67817, Control_c, 0, 64, 70
2, 67837, Control_c, 0, 64, 69
2, 67846, Note_on_c, 0, 61, 78
2, 67848, Note_on_c, 0, 65, 0
2, 67855, Control_c, 0, 64, 66
2, 67875, Control_c, 0, 64, 61
2, 67893, Control_c, 0, 64, 55
2, 67913, Control_c, 0, 64, 48
2, 67929, Control_c, 0, 64, 44
2, 67949, Control_c, 0, 64, 43
2, 67958, Note_on_c, 0, 61, 0
2, 67960, Note_on_c, 0, 58, 90
2, 67996, Note_on_c, 0, 49, 43
2, 68042, Note_on_c, 0, 49, 0
2, 68077, Note_on_c, 0, 55, 77
2, 68087, Note_on_c, 0, 58, 0
2, 68144, Control_c, 0, 64, 44
2, 68184, Note_on_c, 0, 52, 81
2, 68213, Note_on_c, 0, 55, 0
2, 68306, Note_on_c, 0, 49, 78
2, 68311, Note_on_c, 0, 52, 0
2, 68371, Control_c, 0, 64, 45
2, 68415, Note_on_c, 0, 52, 73
2, 68439, Note_on_c, 0, 49, 0
2, 68521, Note_on_c, 0, 55, 78
2, 68542, Note_on_c, 0, 52, 0
2, 68594, Note_on_c, 0, 55, 0
2, 68683, Note_on_c, 0, 44, 96
2, 68889, Control_c, 0, 64, 46
2, 69043, Control_c, 0, 64, 51
2, 69061, Control_c, 0, 64, 62
2, 69065, Note_on_c, 0, 65, 91
2, 69070, Note_on_c, 0, 56, 79
2, 69070, Note_on_c, 0, 73, 93
2, 69074, Note_on_c, 0, 53, 70
2, 69079, Control_c, 0, 64, 73
2, 69079, Note_on_c, 0, 49, 63
2, 69100, Control_c, 0, 64, 100
2, 69118, Control_c, 0, 64, 127
2, 69155, Note_on_c, 0, 65, 0
2, 69174, Note_on_c, 0, 53, 0
2, 69178, Note_on_c, 0, 56, 0
2, 69178, Note_on_c, 0, 73, 0
2, 69204, Note_on_c, 0, 49, 0
2, 69233, Control_c, 0, 64, 118
2, 69253, Control_c, 0, 64, 99
2, 69273, Control_c, 0, 64, 87
2, 69293, Control_c, 0, 64, 75
2, 69311, Control_c, 0, 64, 64
2, 69328, Control_c, 0, 64, 56
2, 69348, Control_c, 0, 64, 49
2, 69367, Control_c, 0, 64, 47
2, 69386, Control_c, 0, 64, 46
2, 69542, Control_c, 0, 64, 47
2, 69560, Control_c, 0, 64, 52
2, 69579, Control_c, 0, 64, 64
2, 69589, Note_on_c, 0, 56, 79
2, 69594, Note_on_c, 0, 63, 92
2, 69594, Note_on_c, 0, 72, 92
2, 69598, Control_c, 0, 64, 93
2, 69598, Note_on_c, 0, 54, 72
2, 69618, Control_c, 0, 64, 127
2, 69682, Note_on_c, 0, 56, 0
2, 69682, Note_on_c, 0, 63, 0
2, 69700, Note_on_c, 0, 72, 0
2, 69709, Note_on_c, 0, 54, 0
2, 69809, Control_c, 0, 64, 102
2, 69829, Control_c, 0, 64, 85
2, 69849, Control_c, 0, 64, 76
2, 69867, Control_c, 0, 64, 68
2, 69885, Control_c, 0, 64, 63
2, 69905, Control_c, 0, 64, 61
2, 69926, Control_c, 0, 64, 60
2, 69944, Control_c, 0, 64, 59
2, 69962, Control_c, 0, 64, 58
2, 69984, Control_c, 0, 64, 55
2, 70002, Control_c, 0, 64, 48
2, 70021, Control_c, 0, 64, 42
2, 70040, Control_c, 0, 64, 38
2, 70058, Control_c, 0, 64, 36
2, 70155, Control_c, 0, 64, 37
2, 70192, Control_c, 0, 64, 38
2, 70213, Control_c, 0, 64, 39
2, 70249, Control_c, 0, 64, 40
2, 70271, Control_c, 0, 64, 41
2, 70290, Control_c, 0, 64, 42
2, 70347, Control_c, 0, 64, 43
2, 70400, Note_on_c, 0, 73, 94
2, 70409, Note_on_c, 0, 56, 72
2, 70409, Note_on_c, 0, 61, 85
2, 70409, Note_on_c, 0, 68, 73
2, 70413, Note_on_c, 0, 53, 74
2, 70415, Note_on_c, 0, 49, 63
2, 70445, Control_c, 0, 64, 44
2, 70477, Note_on_c, 0, 44, 0
2, 70732, Control_c, 0, 64, 45
2, 70884, Control_c, 0, 64, 46
2, 70943, Control_c, 0, 64, 47
2, 70999, Control_c, 0, 64, 48
2, 71037, Control_c, 0, 64, 49
2, 71096, Control_c, 0, 64, 50
2, 71173, Control_c, 0, 64, 52
2, 71190, Control_c, 0, 64, 53
2, 71211, Control_c, 0, 64, 54
2, 71249, Control_c, 0, 64, 55
2, 71307, Control_c, 0, 64, 56
2, 71325, Control_c, 0, 64, 57
2, 71385, Control_c, 0, 64, 58
2, 71460, Control_c, 0, 64, 59
2, 71498, Control_c, 0, 64, 60
2, 71556, Control_c, 0, 64, 61
2, 71633, Control_c, 0, 64, 62
2, 71691, Control_c, 0, 64, 63
2, 71747, Control_c, 0, 64, 64
2, 71787, Control_c, 0, 64, 65
2, 71823, Control_c, 0, 64, 66
2, 71844, Control_c, 0, 64, 67
2, 71864, Control_c, 0, 64, 69
2, 71883, Control_c, 0, 64, 71
2, 71901, Control_c, 0, 64, 73
2, 71919, Control_c, 0, 64, 75
2, 71939, Control_c, 0, 64, 77
2, 71961, Control_c, 0, 64, 79
2, 71980, Control_c, 0, 64, 81
2, 72016, Control_c, 0, 64, 82
2, 72247, Control_c, 0, 64, 83
2, 72284, Note_on_c, 0, 53, 0
2, 72384, Note_on_c, 0, 49, 0
2, 72426, Note_on_c, 0, 56, 0
2, 72518, Note_on_c, 0, 73, 0
2, 72524, Note_on_c, 0, 61, 0
2, 72544, Note_on_c, 0, 68, 0
2, 72576, Control_c, 0, 64, 82
2, 72631, Control_c, 0, 64, 81
2, 72650, Control_c, 0, 64, 80
2, 72670, Control_c, 0, 64, 78
2, 72689, Control_c, 0, 64, 75
2, 72707, Control_c, 0, 64, 73
2, 72730, Control_c, 0, 64, 71
2, 72746, Control_c, 0, 64, 67
2, 72767, Control_c, 0, 64, 62
2, 72785, Control_c, 0, 64, 58
2, 72805, Control_c, 0, 64, 57
2, 72822, Control_c, 0, 64, 56
2, 72842, Control_c, 0, 64, 53
2, 72864, Control_c, 0, 64, 47
2, 72879, Control_c, 0, 64, 41
2, 72900, Control_c, 0, 64, 36
2, 72920, Control_c, 0, 64, 28
2, 72937, Control_c, 0, 64, 0
2, 76429, Note_on_c, 0, 68, 72
2, 76480, Note_on_c, 0, 68, 0
2, 76726, Note_on_c, 0, 70, 64
2, 76830, Note_on_c, 0, 70, 0
2, 76864, Note_on_c, 0, 68, 69
2, 76944, Note_on_c, 0, 68, 0
2, 76999, Note_on_c, 0, 66, 66
2, 77039, Note_on_c, 0, 66, 0
2, 77109, Note_on_c, 0, 68, 72
2, 77183, Note_on_c, 0, 68, 0
2, 77263, Note_on_c, 0, 77, 86
2, 77332, Note_on_c, 0, 77, 0
2, 77563, Note_on_c, 0, 73, 81
2, 77612, Note_on_c, 0, 73, 0
2, 77878, Note_on_c, 0, 68, 83
2, 78143, Note_on_c, 0, 68, 0
2, 78197, Note_on_c, 0, 66, 70
2, 78250, Note_on_c, 0, 66, 0
2, 78313, Note_on_c, 0, 65, 67
2, 78380, Note_on_c, 0, 65, 0
2, 78446, Note_on_c, 0, 66, 75
2, 78494, Note_on_c, 0, 66, 0
2, 78745, Note_on_c, 0, 75, 74
2, 78809, Note_on_c, 0, 75, 0
2, 79041, Note_on_c, 0, 65, 68
2, 79088, Note_on_c, 0, 65, 0
2, 79337, Note_on_c, 0, 73, 75
2, 79414, Note_on_c, 0, 73, 0
2, 79635, Note_on_c, 0, 63, 65
2, 79687, Note_on_c, 0, 63, 0
2, 79949, Note_on_c, 0, 72, 74
2, 80004, Note_on_c, 0, 72, 0
2, 80266, Note_on_c, 0, 61, 65
2, 80308, Note_on_c, 0, 61, 0
2, 80595, Note_on_c, 0, 73, 66
2, 80652, Note_on_c, 0, 73, 0
2, 80716, Note_on_c, 0, 72, 71
2, 80776, Note_on_c, 0, 72, 0
2, 80864, Note_on_c, 0, 73, 71
2, 80976, Note_on_c, 0, 73, 0
2, 80997, Note_on_c, 0, 75, 67
2, 81087, Note_on_c, 0, 75, 0
2, 81145, Note_on_c, 0, 61, 64
2, 81147, Note_on_c, 0, 77, 78
2, 81179, Note_on_c, 0, 61, 0
2, 81212, Note_on_c, 0, 77, 0
2, 81276, Note_on_c, 0, 78, 74
2, 81374, Note_on_c, 0, 78, 0
2, 81435, Note_on_c, 0, 65, 72
2, 81440, Note_on_c, 0, 80, 79
2, 81509, Note_on_c, 0, 65, 0
2, 81551, Note_on_c, 0, 80, 0
2, 81567, Note_on_c, 0, 79, 80
2, 81580, Note_on_c, 0, 63, 75
2, 81657, Note_on_c, 0, 79, 0
2, 81697, Note_on_c, 0, 63, 0
2, 81704, Note_on_c, 0, 77, 82
2, 81712, Note_on_c, 0, 61, 70
2, 81772, Note_on_c, 0, 77, 0
2, 81790, Note_on_c, 0, 61, 0
2, 81831, Note_on_c, 0, 79, 85
2, 81835, Note_on_c, 0, 63, 79
2, 81916, Note_on_c, 0, 79, 0
2, 81921, Note_on_c, 0, 63, 0
2, 81976, Note_on_c, 0, 80, 83
2, 81980, Note_on_c, 0, 72, 90
2, 82044, Note_on_c, 0, 72, 0
2, 82086, Note_on_c, 0, 80, 0
2, 82116, Note_on_c, 0, 78, 82
2, 82214, Note_on_c, 0, 78, 0
2, 82267, Note_on_c, 0, 68, 84
2, 82271, Note_on_c, 0, 77, 81
2, 82305, Note_on_c, 0, 68, 0
2, 82327, Note_on_c, 0, 77, 0
2, 82402, Note_on_c, 0, 75, 71
2, 82501, Note_on_c, 0, 75, 0
2, 82569, Note_on_c, 0, 63, 79
2, 82576, Note_on_c, 0, 77, 75
2, 82853, Note_on_c, 0, 63, 0
2, 82893, Note_on_c, 0, 61, 74
2, 82964, Note_on_c, 0, 61, 0
2, 83025, Note_on_c, 0, 60, 73
2, 83106, Note_on_c, 0, 60, 0
2, 83161, Note_on_c, 0, 61, 78
2, 83226, Note_on_c, 0, 77, 0
2, 83235, Note_on_c, 0, 61, 0
2, 83295, Note_on_c, 0, 75, 77
2, 83397, Note_on_c, 0, 75, 0
2, 83439, Note_on_c, 0, 70, 85
2, 83449, Note_on_c, 0, 73, 81
2, 83517, Note_on_c, 0, 70, 0
2, 83563, Note_on_c, 0, 73, 0
2, 83586, Note_on_c, 0, 77, 80
2, 83689, Note_on_c, 0, 77, 0
2, 83732, Note_on_c, 0, 60, 79
2, 83747, Note_on_c, 0, 75, 76
2, 83791, Note_on_c, 0, 60, 0
2, 83852, Note_on_c, 0, 75, 0
2, 83872, Note_on_c, 0, 73, 78
2, 83964, Note_on_c, 0, 73, 0
2, 84029, Note_on_c, 0, 68, 77
2, 84029, Note_on_c, 0, 72, 72
2, 84081, Note_on_c, 0, 72, 0
2, 84094, Note_on_c, 0, 68, 0
2, 84164, Note_on_c, 0, 75, 70
2, 84269, Note_on_c, 0, 75, 0
2, 84318, Note_on_c, 0, 58, 66
2, 84322, Note_on_c, 0, 73, 73
2, 84377, Note_on_c, 0, 58, 0
2, 84400, Note_on_c, 0, 73, 0
2, 84460, Note_on_c, 0, 72, 72
2, 84520, Note_on_c, 0, 72, 0
2, 84608, Note_on_c, 0, 67, 64
2, 84615, Note_on_c, 0, 73, 76
2, 84680, Note_on_c, 0, 67, 0
2, 84705, Note_on_c, 0, 73, 0
2, 84742, Note_on_c, 0, 70, 76
2, 84840, Note_on_c, 0, 70, 0
2, 84898, Note_on_c, 0, 72, 91
2, 84907, Note_on_c, 0, 56, 70
2, 84969, Note_on_c, 0, 72, 0
2, 85172, Note_on_c, 0, 56, 0
2, 85227, Note_on_c, 0, 68, 68
2, 85241, Note_on_c, 0, 75, 81
2, 85326, Note_on_c, 0, 75, 0
2, 85338, Note_on_c, 0, 68, 0
2, 85359, Note_on_c, 0, 67, 76
2, 85471, Note_on_c, 0, 67, 0
2, 85522, Note_on_c, 0, 68, 84
2, 85522, Note_on_c, 0, 78, 94
2, 85656, Note_on_c, 0, 70, 69
2, 85673, Note_on_c, 0, 68, 0
2, 85766, Note_on_c, 0, 70, 0
2, 85817, Note_on_c, 0, 56, 85
2, 85821, Note_on_c, 0, 72, 76
2, 85878, Note_on_c, 0, 56, 0
2, 85908, Note_on_c, 0, 72, 0
2, 85932, Note_on_c, 0, 78, 0
2, 85932, Note_on_c, 0, 78, 31
2, 85964, Note_on_c, 0, 68, 72
2, 86063, Note_on_c, 0, 68, 0
2, 86125, Note_on_c, 0, 58, 87
2, 86132, Note_on_c, 0, 73, 77
2, 86205, Note_on_c, 0, 58, 0
2, 86248, Note_on_c, 0, 73, 0
2, 86257, Note_on_c, 0, 56, 85
2, 86266, Note_on_c, 0, 72, 72
2, 86336, Note_on_c, 0, 56, 0
2, 86394, Note_on_c, 0, 54, 83
2, 86399, Note_on_c, 0, 72, 0
2, 86406, Note_on_c, 0, 70, 78
2, 86431, Note_on_c, 0, 78, 0
2, 86487, Note_on_c, 0, 54, 0
2, 86524, Note_on_c, 0, 56, 88
2, 86537, Note_on_c, 0, 70, 0
2, 86539, Note_on_c, 0, 72, 80
2, 86622, Note_on_c, 0, 56, 0
2, 86634, Note_on_c, 0, 72, 0
2, 86686, Note_on_c, 0, 65, 86
2, 86693, Note_on_c, 0, 73, 74
2, 86704, Note_on_c, 0, 77, 75
2, 86759, Note_on_c, 0, 65, 0
2, 86763, Note_on_c, 0, 73, 0
2, 86820, Note_on_c, 0, 72, 70
2, 86895, Note_on_c, 0, 72, 0
2, 86979, Note_on_c, 0, 61, 79
2, 86997, Note_on_c, 0, 70, 71
2, 87043, Note_on_c, 0, 61, 0
2, 87078, Note_on_c, 0, 70, 0
2, 87115, Note_on_c, 0, 68, 70
2, 87207, Note_on_c, 0, 68, 0
2, 87281, Note_on_c, 0, 56, 79
2, 87300, Note_on_c, 0, 70, 72
2, 87384, Note_on_c, 0, 77, 0
2, 87593, Note_on_c, 0, 56, 0
2, 87611, Note_on_c, 0, 54, 75
2, 87713, Note_on_c, 0, 54, 0
2, 87740, Note_on_c, 0, 53, 76
2, 87832, Note_on_c, 0, 53, 0
2, 87886, Note_on_c, 0, 70, 0
2, 87895, Note_on_c, 0, 54, 79
2, 87908, Note_on_c, 0, 75, 79
2, 87976, Note_on_c, 0, 54, 0
2, 88030, Note_on_c, 0, 68, 76
2, 88147, Note_on_c, 0, 68, 0
2, 88189, Note_on_c, 0, 63, 80
2, 88189, Note_on_c, 0, 66, 75
2, 88269, Note_on_c, 0, 63, 0
2, 88326, Note_on_c, 0, 70, 73
2, 88349, Note_on_c, 0, 66, 0
2, 88485, Note_on_c, 0, 53, 84
2, 88485, Note_on_c, 0, 68, 84
2, 88507, Note_on_c, 0, 75, 0
2, 88561, Note_on_c, 0, 53, 0
2, 88583, Note_on_c, 0, 70, 0
2, 88628, Note_on_c, 0, 66, 74
2, 88687, Note_on_c, 0, 68, 0
2, 88766, Note_on_c, 0, 66, 0
2, 88783, Note_on_c, 0, 73, 83
2, 88790, Note_on_c, 0, 61, 76
2, 88800, Note_on_c, 0, 65, 71
2, 88821, Control_c, 0, 64, 8
2, 88858, Control_c, 0, 64, 9
2, 88880, Control_c, 0, 64, 10
2, 88880, Note_on_c, 0, 61, 0
2, 88898, Control_c, 0, 64, 12
2, 88915, Control_c, 0, 64, 14
2, 88934, Note_on_c, 0, 68, 80
2, 88934, Note_on_c, 0, 73, 0
2, 88938, Control_c, 0, 64, 16
2, 88953, Control_c, 0, 64, 18
2, 88972, Control_c, 0, 64, 20
2, 88981, Note_on_c, 0, 65, 0
2, 88992, Control_c, 0, 64, 22
2, 89012, Control_c, 0, 64, 24
2, 89030, Control_c, 0, 64, 25
2, 89050, Control_c, 0, 64, 26
2, 89068, Control_c, 0, 64, 27
2, 89081, Note_on_c, 0, 72, 79
2, 89091, Control_c, 0, 64, 28
2, 89095, Note_on_c, 0, 51, 78
2, 89095, Note_on_c, 0, 66, 69
2, 89108, Control_c, 0, 64, 29
2, 89112, Note_on_c, 0, 68, 0
2, 89128, Control_c, 0, 64, 30
2, 89183, Note_on_c, 0, 51, 0
2, 89183, Note_on_c, 0, 66, 0
2, 89217, Note_on_c, 0, 65, 69
2, 89308, Note_on_c, 0, 65, 0
2, 89319, Control_c, 0, 64, 31
2, 89372, Note_on_c, 0, 75, 79
2, 89379, Note_on_c, 0, 66, 72
2, 89383, Note_on_c, 0, 60, 74
2, 89432, Note_on_c, 0, 72, 0
2, 89459, Note_on_c, 0, 66, 0
2, 89479, Note_on_c, 0, 60, 0
2, 89508, Note_on_c, 0, 63, 75
2, 89576, Note_on_c, 0, 63, 0
2, 89669, Note_on_c, 0, 49, 71
2, 89669, Note_on_c, 0, 65, 75
2, 89684, Control_c, 0, 64, 30
2, 89721, Note_on_c, 0, 49, 0
2, 89743, Control_c, 0, 64, 29
2, 89817, Control_c, 0, 64, 28
2, 89891, Note_on_c, 0, 65, 0
2, 89969, Note_on_c, 0, 75, 0
2, 90000, Note_on_c, 0, 68, 77
2, 90009, Note_on_c, 0, 61, 58
2, 90040, Note_on_c, 0, 68, 0
2, 90074, Note_on_c, 0, 61, 0
2, 90129, Note_on_c, 0, 60, 58
2, 90248, Note_on_c, 0, 60, 0
2, 90289, Note_on_c, 0, 77, 71
2, 90298, Note_on_c, 0, 61, 51
2, 90423, Note_on_c, 0, 61, 0
2, 90448, Note_on_c, 0, 63, 51
2, 90489, Control_c, 0, 64, 27
2, 90519, Note_on_c, 0, 63, 0
2, 90578, Note_on_c, 0, 68, 62
2, 90599, Note_on_c, 0, 65, 36
2, 90627, Note_on_c, 0, 68, 0
2, 90669, Note_on_c, 0, 65, 0
2, 90716, Note_on_c, 0, 61, 51
2, 90798, Control_c, 0, 64, 28
2, 90803, Note_on_c, 0, 61, 0
2, 90856, Note_on_c, 0, 73, 66
2, 90871, Note_on_c, 0, 58, 51
2, 90917, Note_on_c, 0, 77, 0
2, 90952, Control_c, 0, 64, 29
2, 90956, Note_on_c, 0, 58, 0
2, 90990, Control_c, 0, 64, 30
2, 91018, Note_on_c, 0, 60, 59
2, 91027, Control_c, 0, 64, 31
2, 91066, Control_c, 0, 64, 32
2, 91096, Note_on_c, 0, 60, 0
2, 91148, Note_on_c, 0, 73, 0
2, 91163, Note_on_c, 0, 61, 54
2, 91168, Note_on_c, 0, 77, 70
2, 91224, Note_on_c, 0, 77, 0
2, 91256, Note_on_c, 0, 61, 0
2, 91295, Note_on_c, 0, 58, 58
2, 91295, Note_on_c, 0, 73, 70
2, 91358, Note_on_c, 0, 58, 0
2, 91373, Note_on_c, 0, 73, 0
2, 91392, Control_c, 0, 64, 33
2, 91411, Control_c, 0, 64, 34
2, 91432, Control_c, 0, 64, 35
2, 91432, Note_on_c, 0, 70, 70
2, 91436, Note_on_c, 0, 55, 59
2, 91450, Control_c, 0, 64, 36
2, 91470, Control_c, 0, 64, 37
2, 91489, Control_c, 0, 64, 38
2, 91511, Note_on_c, 0, 55, 0
2, 91572, Note_on_c, 0, 56, 62
2, 91674, Note_on_c, 0, 56, 0
2, 91693, Note_on_c, 0, 70, 0
2, 91699, Control_c, 0, 64, 37
2, 91723, Note_on_c, 0, 58, 57
2, 91723, Note_on_c, 0, 73, 67
2, 91775, Control_c, 0, 64, 36
2, 91792, Note_on_c, 0, 58, 0
2, 91843, Note_on_c, 0, 70, 60
2, 91848, Note_on_c, 0, 55, 52
2, 91959, Note_on_c, 0, 70, 0
2, 91981, Note_on_c, 0, 55, 0
2, 92016, Note_on_c, 0, 63, 56
2, 92021, Note_on_c, 0, 48, 57
2, 92065, Note_on_c, 0, 48, 0
2, 92123, Control_c, 0, 64, 35
2, 92220, Control_c, 0, 64, 34
2, 92275, Control_c, 0, 64, 33
2, 92330, Note_on_c, 0, 63, 0
2, 92337, Note_on_c, 0, 73, 0
2, 92341, Note_on_c, 0, 70, 60
2, 92344, Note_on_c, 0, 60, 41
2, 92389, Note_on_c, 0, 70, 0
2, 92404, Note_on_c, 0, 60, 0
2, 92463, Note_on_c, 0, 58, 57
2, 92599, Note_on_c, 0, 58, 0
2, 92628, Note_on_c, 0, 75, 62
2, 92632, Note_on_c, 0, 60, 51
2, 92725, Note_on_c, 0, 60, 0
2, 92773, Note_on_c, 0, 61, 54
2, 92889, Note_on_c, 0, 61, 0
2, 92896, Note_on_c, 0, 67, 60
2, 92926, Note_on_c, 0, 63, 49
2, 92944, Note_on_c, 0, 67, 0
2, 93001, Note_on_c, 0, 63, 0
2, 93054, Note_on_c, 0, 60, 59
2, 93063, Control_c, 0, 64, 34
2, 93192, Note_on_c, 0, 60, 0
2, 93208, Note_on_c, 0, 72, 66
2, 93221, Note_on_c, 0, 56, 59
2, 93235, Note_on_c, 0, 75, 0
2, 93312, Control_c, 0, 64, 35
2, 93347, Note_on_c, 0, 56, 0
2, 93369, Note_on_c, 0, 58, 60
2, 93450, Note_on_c, 0, 58, 0
2, 93482, Note_on_c, 0, 72, 0
2, 93498, Note_on_c, 0, 75, 69
2, 93515, Note_on_c, 0, 60, 56
2, 93587, Note_on_c, 0, 60, 0
2, 93627, Note_on_c, 0, 72, 68
2, 93631, Note_on_c, 0, 56, 62
2, 93654, Note_on_c, 0, 75, 0
2, 93723, Note_on_c, 0, 72, 0
2, 93740, Note_on_c, 0, 56, 0
2, 93770, Note_on_c, 0, 68, 71
2, 93782, Note_on_c, 0, 53, 65
2, 93882, Note_on_c, 0, 53, 0
2, 93916, Note_on_c, 0, 55, 68
2, 94000, Note_on_c, 0, 55, 0
2, 94058, Note_on_c, 0, 56, 67
2, 94062, Note_on_c, 0, 68, 0
2, 94073, Note_on_c, 0, 72, 72
2, 94159, Note_on_c, 0, 56, 0
2, 94185, Note_on_c, 0, 53, 57
2, 94197, Note_on_c, 0, 68, 70
2, 94321, Note_on_c, 0, 68, 0
2, 94343, Note_on_c, 0, 53, 0
2, 94364, Note_on_c, 0, 46, 62
2, 94364, Note_on_c, 0, 61, 65
2, 94421, Note_on_c, 0, 46, 0
2, 94633, Note_on_c, 0, 72, 0
2, 94653, Note_on_c, 0, 61, 0
2, 94677, Note_on_c, 0, 68, 71
2, 94691, Note_on_c, 0, 58, 58
2, 94739, Note_on_c, 0, 68, 0
2, 94770, Control_c, 0, 64, 34
2, 94794, Note_on_c, 0, 58, 0
2, 94815, Note_on_c, 0, 56, 64
2, 94923, Note_on_c, 0, 56, 0
2, 94952, Note_on_c, 0, 58, 64
2, 94959, Note_on_c, 0, 73, 72
2, 95068, Note_on_c, 0, 58, 0
2, 95091, Note_on_c, 0, 60, 64
2, 95209, Note_on_c, 0, 60, 0
2, 95249, Note_on_c, 0, 61, 56
2, 95249, Note_on_c, 0, 65, 61
2, 95299, Note_on_c, 0, 65, 0
2, 95347, Control_c, 0, 64, 35
2, 95366, Note_on_c, 0, 61, 0
2, 95384, Note_on_c, 0, 58, 66
2, 95542, Note_on_c, 0, 58, 0
2, 95546, Note_on_c, 0, 73, 0
2, 95551, Note_on_c, 0, 70, 74
2, 95562, Note_on_c, 0, 55, 66
2, 95617, Control_c, 0, 64, 36
2, 95680, Note_on_c, 0, 72, 77
2, 95698, Note_on_c, 0, 70, 0
2, 95702, Note_on_c, 0, 55, 0
2, 95702, Note_on_c, 0, 56, 66
2, 95713, Control_c, 0, 64, 37
2, 95790, Note_on_c, 0, 56, 0
2, 95808, Note_on_c, 0, 58, 75
2, 95823, Note_on_c, 0, 73, 87
2, 95855, Note_on_c, 0, 72, 0
2, 95923, Control_c, 0, 64, 38
2, 95934, Note_on_c, 0, 58, 0
2, 95954, Note_on_c, 0, 55, 68
2, 95954, Note_on_c, 0, 73, 0
2, 95958, Note_on_c, 0, 70, 84
2, 96093, Note_on_c, 0, 70, 0
2, 96097, Note_on_c, 0, 51, 75
2, 96097, Note_on_c, 0, 55, 0
2, 96110, Note_on_c, 0, 82, 83
2, 96193, Control_c, 0, 64, 37
2, 96237, Note_on_c, 0, 53, 69
2, 96248, Note_on_c, 0, 51, 0
2, 96253, Note_on_c, 0, 73, 75
2, 96319, Note_on_c, 0, 53, 0
2, 96340, Note_on_c, 0, 73, 0
2, 96378, Note_on_c, 0, 55, 67
2, 96394, Note_on_c, 0, 75, 73
2, 96482, Note_on_c, 0, 75, 0
2, 96502, Note_on_c, 0, 55, 0
2, 96513, Note_on_c, 0, 51, 70
2, 96529, Note_on_c, 0, 70, 72
2, 96543, Note_on_c, 0, 82, 0
2, 96545, Note_on_c, 0, 82, 14
2, 96592, Note_on_c, 0, 70, 0
2, 96628, Note_on_c, 0, 51, 0
2, 96671, Note_on_c, 0, 44, 75
2, 96693, Note_on_c, 0, 72, 80
2, 96717, Note_on_c, 0, 44, 0
2, 96749, Note_on_c, 0, 82, 0
2, 96770, Control_c, 0, 64, 36
2, 96832, Note_on_c, 0, 80, 73
2, 96961, Note_on_c, 0, 56, 79
2, 96970, Note_on_c, 0, 79, 76
2, 97000, Control_c, 0, 64, 37
2, 97004, Note_on_c, 0, 80, 0
2, 97089, Note_on_c, 0, 58, 80
2, 97094, Note_on_c, 0, 79, 0
2, 97102, Note_on_c, 0, 82, 77
2, 97144, Note_on_c, 0, 56, 0
2, 97173, Control_c, 0, 64, 36
2, 97173, Note_on_c, 0, 72, 0
2, 97202, Note_on_c, 0, 58, 0
2, 97241, Note_on_c, 0, 60, 83
2, 97250, Note_on_c, 0, 80, 82
2, 97267, Control_c, 0, 64, 37
2, 97300, Note_on_c, 0, 60, 0
2, 97330, Note_on_c, 0, 82, 0
2, 97346, Control_c, 0, 64, 36
2, 97384, Note_on_c, 0, 75, 77
2, 97389, Note_on_c, 0, 80, 0
2, 97546, Note_on_c, 0, 68, 87
2, 97546, Note_on_c, 0, 77, 82
2, 97556, Note_on_c, 0, 56, 71
2, 97559, Note_on_c, 0, 75, 0
2, 97621, Note_on_c, 0, 56, 0
2, 97648, Note_on_c, 0, 77, 0
2, 97687, Note_on_c, 0, 78, 81
2, 97837, Note_on_c, 0, 77, 76
2, 97856, Note_on_c, 0, 61, 73
2, 97856, Note_on_c, 0, 68, 0
2, 97878, Note_on_c, 0, 78, 0
2, 97955, Note_on_c, 0, 77, 0
2, 97978, Note_on_c, 0, 75, 78
2, 97985, Note_on_c, 0, 67, 76
2, 98103, Note_on_c, 0, 67, 0
2, 98112, Note_on_c, 0, 75, 0
2, 98123, Note_on_c, 0, 65, 72
2, 98127, Note_on_c, 0, 73, 87
2, 98202, Note_on_c, 0, 73, 0
2, 98229, Note_on_c, 0, 65, 0
2, 98243, Note_on_c, 0, 67, 76
2, 98243, Note_on_c, 0, 75, 83
2, 98248, Note_on_c, 0, 61, 0
2, 98334, Note_on_c, 0, 75, 0
2, 98360, Note_on_c, 0, 67, 0
2, 98391, Note_on_c, 0, 84, 84
2, 98395, Note_on_c, 0, 68, 82
2, 98399, Note_on_c, 0, 60, 70
2, 98487, Note_on_c, 0, 84, 0
2, 98535, Note_on_c, 0, 66, 78
2, 98566, Note_on_c, 0, 68, 0
2, 98648, Note_on_c, 0, 60, 0
2, 98673, Note_on_c, 0, 66, 0
2, 98685, Note_on_c, 0, 80, 85
2, 98689, Control_c, 0, 64, 37
2, 98701, Note_on_c, 0, 65, 76
2, 98770, Note_on_c, 0, 80, 0
2, 98816, Note_on_c, 0, 65, 0
2, 98832, Note_on_c, 0, 63, 80
2, 98935, Note_on_c, 0, 63, 0
2, 98986, Note_on_c, 0, 65, 73
2, 98993, Note_on_c, 0, 75, 83
2, 99006, Note_on_c, 0, 58, 73
2, 99246, Control_c, 0, 64, 36
2, 99250, Note_on_c, 0, 75, 0
2, 99294, Note_on_c, 0, 58, 0
2, 99306, Note_on_c, 0, 56, 72
2, 99311, Note_on_c, 0, 73, 82
2, 99383, Note_on_c, 0, 73, 0
2, 99437, Note_on_c, 0, 72, 80
2, 99518, Note_on_c, 0, 72, 0
2, 99551, Note_on_c, 0, 56, 0
2, 99580, Note_on_c, 0, 55, 71
2, 99593, Note_on_c, 0, 73, 85
2, 99674, Note_on_c, 0, 65, 0
2, 99674, Note_on_c, 0, 73, 0
2, 99727, Note_on_c, 0, 63, 79
2, 99803, Note_on_c, 0, 55, 0
2, 99841, Control_c, 0, 64, 35
2, 99879, Note_on_c, 0, 61, 72
2, 99879, Note_on_c, 0, 82, 84
2, 99904, Note_on_c, 0, 63, 0
2, 99987, Note_on_c, 0, 61, 0
2, 99987, Note_on_c, 0, 82, 0
2, 100020, Note_on_c, 0, 65, 72
2, 100168, Note_on_c, 0, 65, 0
2, 100174, Note_on_c, 0, 63, 75
2, 100174, Note_on_c, 0, 72, 82
2, 100177, Note_on_c, 0, 56, 68
2, 100252, Note_on_c, 0, 72, 0
2, 100261, Note_on_c, 0, 63, 0
2, 100320, Note_on_c, 0, 61, 70
2, 100451, Note_on_c, 0, 61, 0
2, 100466, Note_on_c, 0, 60, 73
2, 100466, Note_on_c, 0, 80, 81
2, 100545, Note_on_c, 0, 56, 0
2, 100558, Note_on_c, 0, 80, 0
2, 100583, Note_on_c, 0, 60, 0
2, 100607, Note_on_c, 0, 63, 72
2, 100648, Control_c, 0, 64, 36
2, 100705, Note_on_c, 0, 63, 0
2, 100755, Note_on_c, 0, 70, 79
2, 100764, Note_on_c, 0, 61, 68
2, 100782, Note_on_c, 0, 51, 69
2, 100837, Note_on_c, 0, 70, 0
2, 100887, Note_on_c, 0, 61, 0
2, 100902, Note_on_c, 0, 60, 72
2, 100999, Note_on_c, 0, 60, 0
2, 101050, Note_on_c, 0, 61, 72
2, 101050, Note_on_c, 0, 79, 77
2, 101091, Note_on_c, 0, 51, 0
2, 101098, Note_on_c, 0, 79, 0
2, 101170, Note_on_c, 0, 61, 0
2, 101192, Note_on_c, 0, 58, 72
2, 101301, Note_on_c, 0, 58, 0
2, 101338, Note_on_c, 0, 60, 63
2, 101342, Note_on_c, 0, 68, 74
2, 101347, Note_on_c, 0, 56, 62
2, 101389, Note_on_c, 0, 60, 0
2, 101415, Note_on_c, 0, 68, 0
2, 101467, Note_on_c, 0, 70, 70
2, 101591, Note_on_c, 0, 70, 0
2, 101612, Note_on_c, 0, 63, 67
2, 101617, Note_on_c, 0, 72, 64
2, 101656, Note_on_c, 0, 63, 0
2, 101683, Control_c, 0, 64, 37
2, 101687, Note_on_c, 0, 72, 0
2, 101753, Note_on_c, 0, 73, 67
2, 101818, Control_c, 0, 64, 38
2, 101822, Note_on_c, 0, 73, 0
2, 101876, Control_c, 0, 64, 39
2, 101894, Control_c, 0, 64, 40
2, 101907, Note_on_c, 0, 72, 65
2, 101912, Note_on_c, 0, 68, 74
2, 101917, Control_c, 0, 64, 42
2, 101933, Control_c, 0, 64, 44
2, 101952, Control_c, 0, 64, 45
2, 101972, Control_c, 0, 64, 47
2, 101989, Control_c, 0, 64, 48
2, 102008, Control_c, 0, 64, 50
2, 102026, Note_on_c, 0, 72, 0
2, 102028, Control_c, 0, 64, 52
2, 102049, Control_c, 0, 64, 55
2, 102059, Note_on_c, 0, 70, 67
2, 102067, Control_c, 0, 64, 56
2, 102118, Note_on_c, 0, 68, 0
2, 102144, Control_c, 0, 64, 55
2, 102161, Note_on_c, 0, 70, 0
2, 102175, Note_on_c, 0, 56, 0
2, 102197, Note_on_c, 0, 68, 70
2, 102201, Note_on_c, 0, 63, 73
2, 102221, Control_c, 0, 64, 54
2, 102278, Control_c, 0, 64, 53
2, 102293, Note_on_c, 0, 68, 0
2, 102294, Note_on_c, 0, 63, 0
2, 102326, Note_on_c, 0, 72, 72
2, 102331, Note_on_c, 0, 60, 64
2, 102436, Note_on_c, 0, 72, 0
2, 102447, Note_on_c, 0, 60, 0
2, 102467, Note_on_c, 0, 56, 72
2, 102471, Control_c, 0, 64, 54
2, 102480, Note_on_c, 0, 77, 70
2, 102492, Control_c, 0, 64, 56
2, 102511, Control_c, 0, 64, 61
2, 102516, Note_on_c, 0, 56, 0
2, 102527, Control_c, 0, 64, 64
2, 102548, Control_c, 0, 64, 65
2, 102567, Control_c, 0, 64, 67
2, 102587, Control_c, 0, 64, 68
2, 102605, Control_c, 0, 64, 69
2, 102613, Note_on_c, 0, 75, 71
2, 102646, Note_on_c, 0, 77, 0
2, 102707, Note_on_c, 0, 75, 0
2, 102740, Control_c, 0, 64, 68
2, 102754, Note_on_c, 0, 59, 71
2, 102754, Note_on_c, 0, 74, 78
2, 102759, Control_c, 0, 64, 67
2, 102777, Control_c, 0, 64, 66
2, 102797, Control_c, 0, 64, 63
2, 102817, Control_c, 0, 64, 57
2, 102834, Note_on_c, 0, 74, 0
2, 102838, Control_c, 0, 64, 51
2, 102854, Control_c, 0, 64, 48
2, 102877, Note_on_c, 0, 77, 82
2, 102881, Note_on_c, 0, 56, 74
2, 102897, Note_on_c, 0, 59, 0
2, 102964, Note_on_c, 0, 77, 0
2, 103007, Control_c, 0, 64, 49
2, 103028, Note_on_c, 0, 80, 82
2, 103033, Note_on_c, 0, 53, 72
2, 103040, Note_on_c, 0, 56, 0
2, 103048, Control_c, 0, 64, 50
2, 103167, Note_on_c, 0, 78, 85
2, 103172, Note_on_c, 0, 80, 0
2, 103290, Note_on_c, 0, 78, 0
2, 103308, Note_on_c, 0, 77, 89
2, 103317, Note_on_c, 0, 56, 76
2, 103322, Note_on_c, 0, 53, 0
2, 103375, Control_c, 0, 64, 51
2, 103391, Note_on_c, 0, 77, 0
2, 103439, Note_on_c, 0, 80, 86
2, 103457, Note_on_c, 0, 53, 75
2, 103471, Control_c, 0, 64, 52
2, 103520, Note_on_c, 0, 80, 0
2, 103533, Note_on_c, 0, 56, 0
2, 103614, Note_on_c, 0, 80, 80
2, 103641, Note_on_c, 0, 50, 65
2, 103656, Note_on_c, 0, 82, 74
2, 103704, Note_on_c, 0, 80, 0
2, 103711, Note_on_c, 0, 83, 83
2, 103739, Note_on_c, 0, 53, 0
2, 103764, Note_on_c, 0, 82, 0
2, 103778, Control_c, 0, 64, 51
2, 103994, Note_on_c, 0, 53, 69
2, 104019, Note_on_c, 0, 82, 76
2, 104025, Control_c, 0, 64, 50
2, 104043, Note_on_c, 0, 83, 0
2, 104123, Note_on_c, 0, 53, 0
2, 104134, Note_on_c, 0, 80, 76
2, 104141, Note_on_c, 0, 56, 72
2, 104181, Note_on_c, 0, 82, 0
2, 104262, Note_on_c, 0, 56, 0
2, 104271, Note_on_c, 0, 59, 78
2, 104271, Note_on_c, 0, 78, 84
2, 104271, Note_on_c, 0, 80, 0
2, 104289, Note_on_c, 0, 50, 0
2, 104376, Note_on_c, 0, 78, 0
2, 104406, Note_on_c, 0, 77, 84
2, 104507, Note_on_c, 0, 77, 0
2, 104562, Note_on_c, 0, 53, 76
2, 104571, Note_on_c, 0, 75, 82
2, 104580, Control_c, 0, 64, 49
2, 104703, Note_on_c, 0, 74, 82
2, 104704, Note_on_c, 0, 75, 0
2, 104708, Note_on_c, 0, 53, 0
2, 104771, Note_on_c, 0, 59, 0
2, 104810, Control_c, 0, 64, 50
2, 104810, Note_on_c, 0, 74, 0
2, 104845, Note_on_c, 0, 58, 85
2, 104849, Control_c, 0, 64, 49
2, 104855, Note_on_c, 0, 75, 82
2, 104860, Note_on_c, 0, 54, 74
2, 104887, Control_c, 0, 64, 48
2, 104908, Control_c, 0, 64, 47
2, 104913, Note_on_c, 0, 58, 0
2, 104922, Note_on_c, 0, 54, 0
2, 104993, Note_on_c, 0, 78, 79
2, 105000, Note_on_c, 0, 75, 0
2, 105097, Note_on_c, 0, 78, 0
2, 105141, Note_on_c, 0, 59, 85
2, 105141, Note_on_c, 0, 77, 80
2, 105150, Note_on_c, 0, 56, 79
2, 105198, Note_on_c, 0, 59, 0
2, 105211, Note_on_c, 0, 56, 0
2, 105271, Note_on_c, 0, 77, 0
2, 105275, Note_on_c, 0, 75, 84
2, 105368, Control_c, 0, 64, 48
2, 105392, Note_on_c, 0, 75, 0
2, 105429, Note_on_c, 0, 58, 86
2, 105434, Note_on_c, 0, 74, 81
2, 105515, Note_on_c, 0, 58, 0
2, 105515, Note_on_c, 0, 74, 0
2, 105571, Note_on_c, 0, 77, 76
2, 105706, Note_on_c, 0, 77, 0
2, 105712, Note_on_c, 0, 50, 81
2, 105720, Note_on_c, 0, 46, 78
2, 105720, Note_on_c, 0, 70, 86
2, 105752, Note_on_c, 0, 50, 0
2, 105786, Note_on_c, 0, 46, 0
2, 105804, Note_on_c, 0, 70, 0
2, 105847, Note_on_c, 0, 68, 87
2, 105865, Control_c, 0, 64, 49
2, 105928, Note_on_c, 0, 68, 0
2, 105979, Control_c, 0, 64, 50
2, 106026, Note_on_c, 0, 51, 92
2, 106037, Note_on_c, 0, 39, 77
2, 106037, Note_on_c, 0, 66, 81
2, 106059, Control_c, 0, 64, 49
2, 106134, Control_c, 0, 64, 48
2, 106149, Note_on_c, 0, 66, 0
2, 106166, Note_on_c, 0, 65, 77
2, 106258, Note_on_c, 0, 65, 0
2, 106328, Control_c, 0, 64, 47
2, 106333, Note_on_c, 0, 63, 75
2, 106433, Note_on_c, 0, 63, 0
2, 106451, Note_on_c, 0, 39, 0
2, 106451, Note_on_c, 0, 62, 77
2, 106500, Note_on_c, 0, 51, 0
2, 106542, Note_on_c, 0, 62, 0
2, 106609, Note_on_c, 0, 63, 77
2, 106613, Control_c, 0, 64, 45
2, 106632, Control_c, 0, 64, 44
2, 106655, Control_c, 0, 64, 43
2, 106672, Control_c, 0, 64, 42
2, 106700, Note_on_c, 0, 63, 0
2, 106729, Control_c, 0, 64, 41
2, 106740, Note_on_c, 0, 65, 69
2, 106837, Note_on_c, 0, 65, 0
2, 106844, Control_c, 0, 64, 42
2, 106888, Note_on_c, 0, 51, 71
2, 106893, Note_on_c, 0, 66, 73
2, 106930, Note_on_c, 0, 51, 0
2, 106996, Note_on_c, 0, 66, 0
2, 107035, Note_on_c, 0, 68, 73
2, 107129, Note_on_c, 0, 68, 0
2, 107193, Note_on_c, 0, 70, 74
2, 107200, Note_on_c, 0, 54, 75
2, 107302, Note_on_c, 0, 70, 0
2, 107317, Note_on_c, 0, 54, 0
2, 107317, Note_on_c, 0, 68, 73
2, 107321, Note_on_c, 0, 53, 76
2, 107392, Note_on_c, 0, 53, 0
2, 107454, Note_on_c, 0, 51, 79
2, 107462, Note_on_c, 0, 68, 0
2, 107465, Note_on_c, 0, 66, 79
2, 107542, Note_on_c, 0, 51, 0
2, 107586, Note_on_c, 0, 68, 78
2, 107593, Note_on_c, 0, 53, 79
2, 107611, Note_on_c, 0, 66, 0
2, 107660, Note_on_c, 0, 53, 0
2, 107692, Note_on_c, 0, 68, 0
2, 107732, Note_on_c, 0, 61, 82
2, 107737, Note_on_c, 0, 70, 84
2, 107797, Note_on_c, 0, 61, 0
2, 107864, Note_on_c, 0, 68, 71
2, 107880, Note_on_c, 0, 70, 0
2, 108023, Note_on_c, 0, 58, 76
2, 108029, Note_on_c, 0, 68, 0
2, 108037, Note_on_c, 0, 66, 72
2, 108059, Note_on_c, 0, 58, 0
2, 108136, Note_on_c, 0, 66, 0
2, 108166, Note_on_c, 0, 65, 64
2, 108270, Note_on_c, 0, 65, 0
2, 108317, Note_on_c, 0, 53, 74
2, 108333, Note_on_c, 0, 66, 72
2, 108657, Note_on_c, 0, 51, 74
2, 108661, Note_on_c, 0, 53, 0
2, 108722, Note_on_c, 0, 51, 0
2, 108777, Note_on_c, 0, 49, 76
2, 108859, Note_on_c, 0, 49, 0
2, 108917, Note_on_c, 0, 51, 85
2, 108984, Note_on_c, 0, 51, 0
2, 109006, Note_on_c, 0, 66, 0
2, 109062, Note_on_c, 0, 65, 71
2, 109153, Note_on_c, 0, 65, 0
2, 109203, Note_on_c, 0, 60, 74
2, 109203, Note_on_c, 0, 63, 77
2, 109247, Note_on_c, 0, 60, 0
2, 109343, Note_on_c, 0, 63, 0
2, 109343, Note_on_c, 0, 66, 73
2, 109440, Note_on_c, 0, 66, 0
2, 109482, Note_on_c, 0, 49, 66
2, 109491, Note_on_c, 0, 65, 70
2, 109532, Note_on_c, 0, 49, 0
2, 109581, Note_on_c, 0, 65, 0
2, 109622, Note_on_c, 0, 63, 73
2, 109746, Note_on_c, 0, 63, 0
2, 109770, Note_on_c, 0, 61, 70
2, 109777, Note_on_c, 0, 58, 65
2, 109848, Note_on_c, 0, 61, 0
2, 109852, Note_on_c, 0, 58, 0
2, 109912, Note_on_c, 0, 65, 69
2, 110002, Note_on_c, 0, 65, 0
2, 110060, Note_on_c, 0, 48, 60
2, 110068, Note_on_c, 0, 63, 71
2, 110118, Note_on_c, 0, 48, 0
2, 110166, Note_on_c, 0, 63, 0
2, 110196, Note_on_c, 0, 61, 68
2, 110284, Note_on_c, 0, 61, 0
2, 110356, Note_on_c, 0, 63, 68
2, 110360, Note_on_c, 0, 57, 64
2, 110432, Note_on_c, 0, 57, 0
2, 110445, Note_on_c, 0, 63, 0
2, 110479, Note_on_c, 0, 60, 69
2, 110495, Control_c, 0, 64, 43
2, 110574, Note_on_c, 0, 60, 0
2, 110639, Note_on_c, 0, 46, 57
2, 110639, Note_on_c, 0, 61, 73
2, 110679, Note_on_c, 0, 46, 0
2, 110716, Note_on_c, 0, 61, 0
2, 110768, Note_on_c, 0, 65, 64
2, 110888, Note_on_c, 0, 65, 0
2, 110924, Note_on_c, 0, 58, 48
2, 110933, Note_on_c, 0, 66, 58
2, 110981, Note_on_c, 0, 66, 0
2, 111005, Note_on_c, 0, 58, 0
2, 111059, Note_on_c, 0, 65, 51
2, 111082, Note_on_c, 0, 57, 46
2, 111139, Note_on_c, 0, 65, 0
2, 111187, Note_on_c, 0, 57, 0
2, 111209, Note_on_c, 0, 58, 47
2, 111218, Note_on_c, 0, 73, 54
2, 111334, Note_on_c, 0, 58, 0
2, 111371, Note_on_c, 0, 60, 45
2, 111443, Note_on_c, 0, 60, 0
2, 111452, Control_c, 0, 64, 44
2, 111497, Note_on_c, 0, 61, 40
2, 111497, Note_on_c, 0, 65, 51
2, 111546, Note_on_c, 0, 65, 0
2, 111579, Note_on_c, 0, 61, 0
2, 111630, Note_on_c, 0, 58, 55
2, 111742, Control_c, 0, 64, 45
2, 111774, Note_on_c, 0, 58, 0
2, 111789, Note_on_c, 0, 73, 0
2, 111793, Note_on_c, 0, 70, 62
2, 111798, Control_c, 0, 64, 46
2, 111811, Note_on_c, 0, 55, 52
2, 111897, Control_c, 0, 64, 47
2, 111906, Note_on_c, 0, 55, 0
2, 111922, Note_on_c, 0, 70, 0
2, 111933, Note_on_c, 0, 72, 69
2, 111958, Note_on_c, 0, 56, 52
2, 112016, Note_on_c, 0, 56, 0
2, 112060, Note_on_c, 0, 58, 55
2, 112065, Note_on_c, 0, 72, 0
2, 112076, Note_on_c, 0, 73, 75
2, 112147, Note_on_c, 0, 58, 0
2, 112171, Note_on_c, 0, 73, 0
2, 112191, Note_on_c, 0, 55, 47
2, 112203, Note_on_c, 0, 70, 70
2, 112289, Note_on_c, 0, 55, 0
2, 112309, Note_on_c, 0, 70, 0
2, 112330, Note_on_c, 0, 51, 53
2, 112336, Control_c, 0, 64, 48
2, 112364, Note_on_c, 0, 82, 69
2, 112372, Control_c, 0, 64, 49
2, 112392, Control_c, 0, 64, 50
2, 112432, Control_c, 0, 64, 51
2, 112450, Control_c, 0, 64, 55
2, 112468, Control_c, 0, 64, 59
2, 112473, Note_on_c, 0, 51, 0
2, 112489, Control_c, 0, 64, 63
2, 112498, Note_on_c, 0, 53, 50
2, 112510, Control_c, 0, 64, 66
2, 112514, Note_on_c, 0, 73, 64
2, 112528, Control_c, 0, 64, 71
2, 112547, Control_c, 0, 64, 80
2, 112565, Note_on_c, 0, 53, 0
2, 112569, Control_c, 0, 64, 86
2, 112586, Control_c, 0, 64, 87
2, 112602, Note_on_c, 0, 82, 0
2, 112606, Control_c, 0, 64, 88
2, 112635, Note_on_c, 0, 55, 55
2, 112635, Note_on_c, 0, 73, 0
2, 112641, Note_on_c, 0, 75, 66
2, 112681, Control_c, 0, 64, 87
2, 112701, Note_on_c, 0, 75, 0
2, 112741, Note_on_c, 0, 55, 0
2, 112761, Note_on_c, 0, 70, 71
2, 112764, Note_on_c, 0, 51, 64
2, 112800, Control_c, 0, 64, 86
2, 112800, Note_on_c, 0, 70, 0
2, 112857, Note_on_c, 0, 51, 0
2, 112874, Control_c, 0, 64, 84
2, 112891, Control_c, 0, 64, 78
2, 112913, Control_c, 0, 64, 67
2, 112913, Note_on_c, 0, 44, 66
2, 112918, Note_on_c, 0, 72, 75
2, 112932, Control_c, 0, 64, 56
2, 112951, Control_c, 0, 64, 37
2, 112951, Note_on_c, 0, 44, 0
2, 112970, Control_c, 0, 64, 25
2, 113028, Control_c, 0, 64, 26
2, 113047, Control_c, 0, 64, 27
2, 113061, Note_on_c, 0, 63, 63
2, 113196, Note_on_c, 0, 63, 0
2, 113216, Note_on_c, 0, 56, 53
2, 113224, Note_on_c, 0, 65, 55
2, 113238, Control_c, 0, 64, 28
2, 113267, Note_on_c, 0, 72, 0
2, 113282, Note_on_c, 0, 56, 0
2, 113287, Note_on_c, 0, 65, 0
2, 113342, Note_on_c, 0, 63, 66
2, 113354, Control_c, 0, 64, 29
2, 113369, Note_on_c, 0, 55, 46
2, 113392, Control_c, 0, 64, 30
2, 113434, Note_on_c, 0, 63, 0
2, 113456, Note_on_c, 0, 55, 0
2, 113494, Note_on_c, 0, 72, 66
2, 113514, Note_on_c, 0, 56, 50
2, 113617, Note_on_c, 0, 56, 0
2, 113654, Note_on_c, 0, 58, 48
2, 113730, Note_on_c, 0, 58, 0
2, 113759, Control_c, 0, 64, 31
2, 113795, Note_on_c, 0, 63, 60
2, 113799, Note_on_c, 0, 60, 45
2, 113839, Note_on_c, 0, 63, 0
2, 113852, Control_c, 0, 64, 32
2, 113872, Note_on_c, 0, 60, 0
2, 113890, Control_c, 0, 64, 33
2, 113930, Note_on_c, 0, 56, 52
2, 113949, Control_c, 0, 64, 34
2, 113996, Note_on_c, 0, 56, 0
2, 114043, Control_c, 0, 64, 35
2, 114050, Note_on_c, 0, 72, 0
2, 114083, Note_on_c, 0, 53, 51
2, 114101, Control_c, 0, 64, 36
2, 114106, Note_on_c, 0, 68, 62
2, 114140, Control_c, 0, 64, 37
2, 114171, Note_on_c, 0, 53, 0
2, 114179, Control_c, 0, 64, 38
2, 114215, Control_c, 0, 64, 39
2, 114227, Note_on_c, 0, 55, 55
2, 114231, Note_on_c, 0, 68, 0
2, 114231, Note_on_c, 0, 70, 62
2, 114283, Note_on_c, 0, 55, 0
2, 114295, Control_c, 0, 64, 40
2, 114352, Note_on_c, 0, 70, 0
2, 114356, Note_on_c, 0, 56, 56
2, 114369, Note_on_c, 0, 72, 71
2, 114426, Note_on_c, 0, 56, 0
2, 114441, Note_on_c, 0, 72, 0
2, 114492, Note_on_c, 0, 53, 52
2, 114492, Note_on_c, 0, 68, 71
2, 114568, Note_on_c, 0, 53, 0
2, 114601, Control_c, 0, 64, 41
2, 114605, Note_on_c, 0, 68, 0
2, 114620, Control_c, 0, 64, 42
2, 114647, Note_on_c, 0, 49, 49
2, 114661, Control_c, 0, 64, 43
2, 114661, Note_on_c, 0, 80, 66
2, 114679, Control_c, 0, 64, 48
2, 114696, Control_c, 0, 64, 54
2, 114716, Control_c, 0, 64, 57
2, 114736, Control_c, 0, 64, 60
2, 114757, Control_c, 0, 64, 62
2, 114773, Control_c, 0, 64, 64
2, 114780, Note_on_c, 0, 49, 0
2, 114790, Note_on_c, 0, 72, 68
2, 114794, Control_c, 0, 64, 66
2, 114801, Note_on_c, 0, 51, 57
2, 114812, Control_c, 0, 64, 70
2, 114833, Control_c, 0, 64, 75
2, 114835, Note_on_c, 0, 80, 0
2, 114851, Control_c, 0, 64, 79
2, 114866, Note_on_c, 0, 51, 0
2, 114870, Control_c, 0, 64, 80
2, 114876, Note_on_c, 0, 72, 0
2, 114927, Control_c, 0, 64, 79
2, 114938, Note_on_c, 0, 53, 61
2, 114940, Note_on_c, 0, 73, 70
2, 114965, Control_c, 0, 64, 78
2, 115004, Control_c, 0, 64, 77
2, 115024, Note_on_c, 0, 53, 0
2, 115028, Note_on_c, 0, 73, 0
2, 115042, Control_c, 0, 64, 76
2, 115057, Note_on_c, 0, 68, 70
2, 115069, Note_on_c, 0, 49, 58
2, 115103, Control_c, 0, 64, 75
2, 115119, Control_c, 0, 64, 74
2, 115134, Note_on_c, 0, 68, 0
2, 115139, Control_c, 0, 64, 67
2, 115162, Control_c, 0, 64, 60
2, 115166, Note_on_c, 0, 49, 0
2, 115180, Control_c, 0, 64, 50
2, 115197, Control_c, 0, 64, 40
2, 115211, Note_on_c, 0, 70, 63
2, 115218, Control_c, 0, 64, 37
2, 115218, Note_on_c, 0, 43, 57
2, 115254, Control_c, 0, 64, 38
2, 115258, Note_on_c, 0, 43, 0
2, 115331, Control_c, 0, 64, 39
2, 115364, Note_on_c, 0, 61, 52
2, 115446, Note_on_c, 0, 61, 0
2, 115507, Note_on_c, 0, 55, 42
2, 115517, Note_on_c, 0, 63, 54
2, 115586, Note_on_c, 0, 70, 0
2, 115596, Note_on_c, 0, 55, 0
2, 115600, Control_c, 0, 64, 40
2, 115610, Note_on_c, 0, 63, 0
2, 115635, Note_on_c, 0, 61, 55
2, 115646, Note_on_c, 0, 53, 52
2, 115715, Control_c, 0, 64, 41
2, 115720, Note_on_c, 0, 61, 0
2, 115742, Note_on_c, 0, 53, 0
2, 115788, Note_on_c, 0, 70, 61
2, 115795, Note_on_c, 0, 55, 50
2, 115894, Note_on_c, 0, 55, 0
2, 115906, Control_c, 0, 64, 42
2, 115932, Note_on_c, 0, 56, 61
2, 116035, Note_on_c, 0, 56, 0
2, 116084, Note_on_c, 0, 61, 61
2, 116089, Note_on_c, 0, 58, 51
2, 116134, Note_on_c, 0, 61, 0
2, 116156, Control_c, 0, 64, 43
2, 116172, Note_on_c, 0, 58, 0
2, 116214, Note_on_c, 0, 55, 60
2, 116340, Note_on_c, 0, 55, 0
2, 116367, Note_on_c, 0, 70, 0
2, 116370, Note_on_c, 0, 52, 61
2, 116374, Note_on_c, 0, 67, 68
2, 116498, Note_on_c, 0, 68, 76
2, 116507, Note_on_c, 0, 52, 0
2, 116519, Note_on_c, 0, 53, 66
2, 116543, Control_c, 0, 64, 44
2, 116551, Note_on_c, 0, 67, 0
2, 116593, Note_on_c, 0, 53, 0
2, 116646, Note_on_c, 0, 70, 76
2, 116652, Note_on_c, 0, 55, 66
2, 116661, Note_on_c, 0, 68, 0
2, 116750, Note_on_c, 0, 55, 0
2, 116757, Note_on_c, 0, 70, 0
2, 116775, Note_on_c, 0, 67, 71
2, 116788, Note_on_c, 0, 52, 65
2, 116905, Note_on_c, 0, 52, 0
2, 116938, Note_on_c, 0, 48, 61
2, 116938, Note_on_c, 0, 79, 77
2, 116966, Note_on_c, 0, 67, 0
2, 117039, Control_c, 0, 64, 45
2, 117075, Note_on_c, 0, 70, 69
2, 117081, Note_on_c, 0, 48, 0
2, 117092, Note_on_c, 0, 50, 63
2, 117116, Control_c, 0, 64, 46
2, 117165, Note_on_c, 0, 50, 0
2, 117193, Control_c, 0, 64, 47
2, 117215, Note_on_c, 0, 70, 0
2, 117221, Note_on_c, 0, 52, 66
2, 117221, Note_on_c, 0, 72, 74
2, 117251, Control_c, 0, 64, 48
2, 117307, Note_on_c, 0, 72, 0
2, 117308, Control_c, 0, 64, 49
2, 117318, Note_on_c, 0, 52, 0
2, 117349, Note_on_c, 0, 67, 73
2, 117354, Note_on_c, 0, 48, 69
2, 117396, Note_on_c, 0, 67, 0
2, 117459, Note_on_c, 0, 48, 0
2, 117508, Note_on_c, 0, 41, 71
2, 117528, Note_on_c, 0, 68, 83
2, 117570, Note_on_c, 0, 79, 0
2, 117667, Note_on_c, 0, 43, 71
2, 117671, Note_on_c, 0, 76, 82
2, 117696, Note_on_c, 0, 41, 0
2, 117752, Note_on_c, 0, 76, 0
2, 117754, Note_on_c, 0, 68, 0
2, 117808, Note_on_c, 0, 44, 74
2, 117813, Note_on_c, 0, 77, 87
2, 117856, Note_on_c, 0, 43, 0
2, 117865, Control_c, 0, 64, 48
2, 117938, Note_on_c, 0, 73, 87
2, 117942, Note_on_c, 0, 77, 0
2, 117953, Note_on_c, 0, 46, 73
2, 117966, Note_on_c, 0, 44, 0
2, 118057, Note_on_c, 0, 73, 0
2, 118061, Note_on_c, 0, 46, 0
2, 118076, Control_c, 0, 64, 47
2, 118085, Note_on_c, 0, 48, 75
2, 118089, Note_on_c, 0, 70, 82
2, 118133, Control_c, 0, 64, 46
2, 118211, Control_c, 0, 64, 47
2, 118216, Note_on_c, 0, 50, 79
2, 118275, Note_on_c, 0, 48, 0
2, 118368, Note_on_c, 0, 52, 80
2, 118372, Note_on_c, 0, 60, 83
2, 118383, Control_c, 0, 64, 46
2, 118390, Note_on_c, 0, 50, 0
2, 118422, Control_c, 0, 64, 45
2, 118443, Control_c, 0, 64, 44
2, 118458, Note_on_c, 0, 60, 0
2, 118484, Note_on_c, 0, 52, 0
2, 118510, Note_on_c, 0, 48, 77
2, 118681, Note_on_c, 0, 53, 76
2, 118686, Note_on_c, 0, 61, 84
2, 118723, Note_on_c, 0, 70, 0
2, 118766, Control_c, 0, 64, 43
2, 118786, Control_c, 0, 64, 44
2, 118811, Note_on_c, 0, 48, 0
2, 118811, Note_on_c, 0, 60, 83
2, 118820, Note_on_c, 0, 51, 76
2, 118825, Note_on_c, 0, 61, 0
2, 118829, Note_on_c, 0, 53, 0
2, 118863, Control_c, 0, 64, 45
2, 118919, Control_c, 0, 64, 44
2, 118955, Note_on_c, 0, 58, 85
2, 118960, Note_on_c, 0, 49, 75
2, 118964, Note_on_c, 0, 60, 0
2, 118973, Note_on_c, 0, 51, 0
2, 119072, Note_on_c, 0, 58, 0
2, 119087, Note_on_c, 0, 60, 84
2, 119102, Note_on_c, 0, 51, 79
2, 119134, Note_on_c, 0, 49, 0
2, 119195, Note_on_c, 0, 60, 0
2, 119227, Note_on_c, 0, 68, 91
2, 119232, Note_on_c, 0, 53, 83
2, 119249, Note_on_c, 0, 51, 0
2, 119284, Control_c, 0, 64, 43
2, 119388, Note_on_c, 0, 51, 80
2, 119407, Note_on_c, 0, 53, 0
2, 119421, Control_c, 0, 64, 42
2, 119515, Note_on_c, 0, 65, 79
2, 119535, Note_on_c, 0, 49, 78
2, 119563, Note_on_c, 0, 51, 0
2, 119610, Note_on_c, 0, 65, 0
2, 119615, Control_c, 0, 64, 43
2, 119670, Note_on_c, 0, 48, 78
2, 119684, Note_on_c, 0, 49, 0
2, 119845, Note_on_c, 0, 60, 87
2, 119847, Note_on_c, 0, 49, 75
2, 119909, Note_on_c, 0, 68, 0
2, 119914, Note_on_c, 0, 48, 0
2, 120073, Control_c, 0, 64, 44
2, 120125, Note_on_c, 0, 60, 0
2, 120185, Note_on_c, 0, 58, 79
2, 120285, Control_c, 0, 64, 45
2, 120290, Note_on_c, 0, 58, 0
2, 120304, Note_on_c, 0, 56, 84
2, 120387, Note_on_c, 0, 56, 0
2, 120451, Note_on_c, 0, 58, 77
2, 120455, Note_on_c, 0, 67, 78
2, 120562, Note_on_c, 0, 67, 0
2, 120613, Note_on_c, 0, 48, 78
2, 120649, Control_c, 0, 64, 44
2, 120667, Note_on_c, 0, 49, 0
2, 120747, Note_on_c, 0, 67, 83
2, 120763, Note_on_c, 0, 46, 75
2, 120805, Note_on_c, 0, 48, 0
2, 120895, Note_on_c, 0, 46, 0
2, 120899, Note_on_c, 0, 67, 0
2, 120906, Note_on_c, 0, 49, 80
2, 120921, Note_on_c, 0, 58, 0
2, 120975, Control_c, 0, 64, 43
2, 121050, Note_on_c, 0, 48, 71
2, 121050, Note_on_c, 0, 56, 83
2, 121054, Note_on_c, 0, 49, 0
2, 121124, Note_on_c, 0, 56, 0
2, 121193, Note_on_c, 0, 46, 80
2, 121222, Note_on_c, 0, 48, 0
2, 121339, Note_on_c, 0, 65, 77
2, 121345, Note_on_c, 0, 46, 0
2, 121348, Note_on_c, 0, 44, 77
2, 121354, Note_on_c, 0, 56, 63
2, 121378, Control_c, 0, 64, 44
2, 121402, Note_on_c, 0, 56, 0
2, 121425, Note_on_c, 0, 65, 0
2, 121471, Note_on_c, 0, 44, 0
2, 121486, Note_on_c, 0, 48, 72
2, 121639, Note_on_c, 0, 55, 66
2, 121639, Note_on_c, 0, 64, 73
2, 121643, Note_on_c, 0, 46, 69
2, 121643, Note_on_c, 0, 48, 0
2, 121683, Note_on_c, 0, 55, 0
2, 121722, Note_on_c, 0, 64, 0
2, 121772, Note_on_c, 0, 44, 76
2, 121792, Note_on_c, 0, 46, 0
2, 121934, Note_on_c, 0, 44, 0
2, 121934, Note_on_c, 0, 46, 72
2, 121934, Note_on_c, 0, 67, 69
2, 121943, Note_on_c, 0, 64, 61
2, 121980, Note_on_c, 0, 64, 0
2, 122000, Note_on_c, 0, 67, 0
2, 122040, Note_on_c, 0, 46, 0
2, 122071, Note_on_c, 0, 43, 74
2, 122225, Note_on_c, 0, 44, 73
2, 122225, Note_on_c, 0, 53, 76
2, 122225, Note_on_c, 0, 72, 86
2, 122252, Note_on_c, 0, 43, 0
2, 122309, Note_on_c, 0, 72, 0
2, 122316, Note_on_c, 0, 44, 0
2, 122363, Note_on_c, 0, 70, 70
2, 122421, Note_on_c, 0, 70, 0
2, 122508, Note_on_c, 0, 49, 66
2, 122508, Note_on_c, 0, 68, 75
2, 122572, Note_on_c, 0, 49, 0
2, 122637, Note_on_c, 0, 68, 0
2, 122648, Note_on_c, 0, 72, 71
2, 122738, Note_on_c, 0, 72, 0
2, 122793, Note_on_c, 0, 43, 67
2, 122799, Note_on_c, 0, 70, 70
2, 122870, Note_on_c, 0, 43, 0
2, 122914, Note_on_c, 0, 70, 0
2, 122931, Note_on_c, 0, 68, 72
2, 122951, Note_on_c, 0, 53, 0
2, 123025, Note_on_c, 0, 68, 0
2, 123086, Note_on_c, 0, 52, 71
2, 123086, Note_on_c, 0, 67, 65
2, 123101, Note_on_c, 0, 48, 63
2, 123144, Note_on_c, 0, 52, 0
2, 123165, Note_on_c, 0, 48, 0
2, 123165, Note_on_c, 0, 67, 0
2, 123223, Note_on_c, 0, 70, 72
2, 123340, Note_on_c, 0, 70, 0
2, 123392, Note_on_c, 0, 53, 76
2, 123396, Control_c, 0, 64, 45
2, 123396, Note_on_c, 0, 68, 79
2, 123406, Note_on_c, 0, 41, 67
2, 123473, Note_on_c, 0, 68, 0
2, 123478, Note_on_c, 0, 41, 0
2, 123497, Note_on_c, 0, 53, 0
2, 123527, Note_on_c, 0, 65, 67
2, 123637, Note_on_c, 0, 65, 0
2, 123681, Note_on_c, 0, 52, 77
2, 123690, Note_on_c, 0, 73, 81
2, 123697, Note_on_c, 0, 46, 72
2, 123764, Note_on_c, 0, 52, 0
2, 123792, Note_on_c, 0, 46, 0
2, 123806, Note_on_c, 0, 73, 0
2, 123819, Note_on_c, 0, 70, 78
2, 123952, Note_on_c, 0, 70, 0
2, 123974, Note_on_c, 0, 53, 83
2, 123978, Note_on_c, 0, 44, 84
2, 123987, Note_on_c, 0, 72, 83
2, 124052, Note_on_c, 0, 53, 0
2, 124069, Note_on_c, 0, 44, 0
2, 124086, Control_c, 0, 64, 46
2, 124090, Note_on_c, 0, 72, 0
2, 124129, Note_on_c, 0, 68, 87
2, 124203, Control_c, 0, 64, 45
2, 124283, Note_on_c, 0, 58, 87
2, 124287, Note_on_c, 0, 78, 89
2, 124292, Note_on_c, 0, 49, 82
2, 124337, Note_on_c, 0, 68, 0
2, 124373, Note_on_c, 0, 58, 0
2, 124386, Note_on_c, 0, 78, 0
2, 124403, Note_on_c, 0, 49, 0
2, 124433, Note_on_c, 0, 76, 83
2, 124522, Note_on_c, 0, 76, 0
2, 124598, Note_on_c, 0, 48, 81
2, 124598, Note_on_c, 0, 56, 89
2, 124598, Note_on_c, 0, 76, 90
2, 124711, Note_on_c, 0, 76, 0
2, 124731, Note_on_c, 0, 77, 93
2, 124875, Control_c, 0, 64, 44
2, 124879, Note_on_c, 0, 55, 85
2, 124886, Note_on_c, 0, 83, 81
2, 124892, Note_on_c, 0, 56, 0
2, 124942, Note_on_c, 0, 77, 0
2, 125009, Note_on_c, 0, 84, 78
2, 125013, Note_on_c, 0, 83, 0
2, 125022, Note_on_c, 0, 53, 81
2, 125022, Note_on_c, 0, 55, 0
2, 125027, Control_c, 0, 64, 45
2, 125085, Note_on_c, 0, 84, 0
2, 125187, Note_on_c, 0, 77, 85
2, 125196, Note_on_c, 0, 55, 77
2, 125203, Note_on_c, 0, 53, 0
2, 125240, Note_on_c, 0, 76, 84
2, 125250, Note_on_c, 0, 77, 0
2, 125325, Note_on_c, 0, 77, 82
2, 125333, Note_on_c, 0, 76, 0
2, 125397, Note_on_c, 0, 76, 80
2, 125432, Note_on_c, 0, 77, 0
2, 125453, Note_on_c, 0, 48, 0
2, 125468, Control_c, 0, 64, 44
2, 125497, Note_on_c, 0, 58, 81
2, 125502, Note_on_c, 0, 55, 0
2, 125643, Note_on_c, 0, 77, 85
2, 125669, Note_on_c, 0, 76, 0
2, 125735, Note_on_c, 0, 58, 0
2, 125735, Note_on_c, 0, 77, 0
2, 125799, Note_on_c, 0, 53, 67
2, 125799, Note_on_c, 0, 56, 69
2, 125808, Note_on_c, 0, 77, 87
2, 125960, Note_on_c, 0, 58, 74
2, 125966, Note_on_c, 0, 56, 0
2, 126073, Note_on_c, 0, 58, 0
2, 126102, Note_on_c, 0, 60, 76
2, 126244, Note_on_c, 0, 60, 0
2, 126253, Note_on_c, 0, 56, 63
2, 126276, Note_on_c, 0, 77, 0
2, 126280, Note_on_c, 0, 57, 71
2, 126289, Note_on_c, 0, 56, 0
2, 126333, Note_on_c, 0, 53, 0
2, 126337, Note_on_c, 0, 57, 0
2, 126406, Note_on_c, 0, 53, 68
2, 126548, Note_on_c, 0, 53, 0
2, 126548, Note_on_c, 0, 54, 67
2, 126656, Note_on_c, 0, 54, 0
2, 126683, Note_on_c, 0, 77, 78
2, 126690, Note_on_c, 0, 56, 67
2, 126759, Note_on_c, 0, 77, 0
2, 126796, Note_on_c, 0, 56, 0
2, 126819, Note_on_c, 0, 53, 61
2, 126928, Control_c, 0, 64, 45
2, 126962, Note_on_c, 0, 53, 0
2, 126991, Note_on_c, 0, 50, 60
2, 127000, Note_on_c, 0, 71, 61
2, 127062, Control_c, 0, 64, 44
2, 127088, Note_on_c, 0, 71, 0
2, 127115, Note_on_c, 0, 50, 0
2, 127133, Note_on_c, 0, 51, 53
2, 127144, Note_on_c, 0, 70, 59
2, 127220, Note_on_c, 0, 51, 0
2, 127231, Note_on_c, 0, 70, 0
2, 127264, Note_on_c, 0, 53, 50
2, 127286, Note_on_c, 0, 68, 54
2, 127352, Note_on_c, 0, 68, 0
2, 127357, Note_on_c, 0, 53, 0
2, 127394, Note_on_c, 0, 70, 64
2, 127415, Note_on_c, 0, 50, 50
2, 127493, Note_on_c, 0, 50, 0
2, 127508, Note_on_c, 0, 70, 0
2, 127552, Note_on_c, 0, 77, 75
2, 127561, Note_on_c, 0, 46, 57
2, 127620, Note_on_c, 0, 77, 0
2, 127638, Control_c, 0, 64, 45
2, 127651, Note_on_c, 0, 46, 0
2, 127689, Note_on_c, 0, 50, 56
2, 127803, Note_on_c, 0, 50, 0
2, 127852, Note_on_c, 0, 53, 57
2, 127852, Note_on_c, 0, 74, 73
2, 127889, Note_on_c, 0, 74, 0
2, 127943, Note_on_c, 0, 53, 0
2, 128000, Note_on_c, 0, 58, 58
2, 128096, Note_on_c, 0, 58, 0
2, 128150, Note_on_c, 0, 68, 75
2, 128177, Note_on_c, 0, 51, 53
2, 128326, Note_on_c, 0, 51, 0
2, 128326, Note_on_c, 0, 54, 54
2, 128388, Note_on_c, 0, 68, 0
2, 128426, Note_on_c, 0, 54, 0
2, 128463, Note_on_c, 0, 66, 66
2, 128465, Note_on_c, 0, 58, 59
2, 128519, Note_on_c, 0, 66, 0
2, 128525, Note_on_c, 0, 58, 0
2, 128597, Note_on_c, 0, 65, 58
2, 128604, Note_on_c, 0, 62, 53
2, 128666, Note_on_c, 0, 65, 0
2, 128708, Note_on_c, 0, 62, 0
2, 128748, Note_on_c, 0, 63, 57
2, 128748, Note_on_c, 0, 66, 68
2, 128795, Note_on_c, 0, 66, 0
2, 128840, Note_on_c, 0, 63, 0
2, 128882, Note_on_c, 0, 65, 45
2, 128977, Note_on_c, 0, 65, 0
2, 129040, Note_on_c, 0, 66, 54
2, 129045, Note_on_c, 0, 75, 64
2, 129105, Note_on_c, 0, 75, 0
2, 129151, Note_on_c, 0, 66, 0
2, 129183, Note_on_c, 0, 63, 59
2, 129320, Note_on_c, 0, 63, 0
2, 129336, Note_on_c, 0, 69, 71
2, 129347, Note_on_c, 0, 60, 59
2, 129427, Note_on_c, 0, 69, 0
2, 129447, Note_on_c, 0, 60, 0
2, 129482, Note_on_c, 0, 68, 72
2, 129491, Note_on_c, 0, 61, 54
2, 129548, Note_on_c, 0, 61, 0
2, 129566, Note_on_c, 0, 68, 0
2, 129617, Note_on_c, 0, 63, 56
2, 129622, Note_on_c, 0, 66, 72
2, 129687, Note_on_c, 0, 66, 0
2, 129696, Note_on_c, 0, 63, 0
2, 129743, Note_on_c, 0, 60, 63
2, 129748, Note_on_c, 0, 68, 73
2, 129795, Note_on_c, 0, 60, 0
2, 129840, Note_on_c, 0, 68, 0
2, 129905, Note_on_c, 0, 56, 59
2, 129914, Note_on_c, 0, 75, 69
2, 130025, Note_on_c, 0, 75, 0
2, 130069, Note_on_c, 0, 44, 67
2, 130193, Note_on_c, 0, 46, 69
2, 130228, Note_on_c, 0, 72, 72
2, 130253, Note_on_c, 0, 44, 0
2, 130281, Note_on_c, 0, 72, 0
2, 130298, Note_on_c, 0, 46, 0
2, 130344, Control_c, 0, 64, 46
2, 130348, Note_on_c, 0, 48, 59
2, 130396, Note_on_c, 0, 48, 0
2, 130399, Control_c, 0, 64, 47
2, 130458, Control_c, 0, 64, 48
2, 130525, Note_on_c, 0, 49, 64
2, 130530, Note_on_c, 0, 67, 59
2, 130557, Note_on_c, 0, 56, 0
2, 130630, Control_c, 0, 64, 49
2, 130679, Note_on_c, 0, 56, 63
2, 130737, Note_on_c, 0, 49, 0
2, 130753, Note_on_c, 0, 67, 0
2, 130827, Note_on_c, 0, 58, 66
2, 130831, Note_on_c, 0, 65, 62
2, 130844, Note_on_c, 0, 56, 0
2, 130913, Note_on_c, 0, 65, 0
2, 130938, Note_on_c, 0, 58, 0
2, 130968, Note_on_c, 0, 60, 57
2, 130968, Note_on_c, 0, 63, 65
2, 131057, Note_on_c, 0, 63, 0
2, 131070, Control_c, 0, 64, 48
2, 131123, Note_on_c, 0, 65, 64
2, 131192, Note_on_c, 0, 60, 0
2, 131217, Note_on_c, 0, 65, 0
2, 131262, Note_on_c, 0, 51, 66
2, 131266, Note_on_c, 0, 68, 73
2, 131361, Note_on_c, 0, 68, 0
2, 131413, Note_on_c, 0, 73, 76
2, 131414, Note_on_c, 0, 51, 0
2, 131438, Note_on_c, 0, 53, 38
2, 131442, Note_on_c, 0, 52, 38
2, 131500, Note_on_c, 0, 52, 0
2, 131519, Note_on_c, 0, 73, 0
2, 131531, Note_on_c, 0, 53, 0
2, 131531, Note_on_c, 0, 55, 67
2, 131557, Note_on_c, 0, 75, 75
2, 131635, Note_on_c, 0, 75, 0
2, 131683, Note_on_c, 0, 55, 0
2, 131705, Note_on_c, 0, 56, 75
2, 131709, Note_on_c, 0, 77, 83
2, 131812, Note_on_c, 0, 77, 0
2, 131828, Note_on_c, 0, 56, 0
2, 131840, Note_on_c, 0, 55, 68
2, 131849, Note_on_c, 0, 75, 79
2, 131928, Note_on_c, 0, 75, 0
2, 131981, Note_on_c, 0, 73, 83
2, 131989, Note_on_c, 0, 53, 74
2, 132018, Note_on_c, 0, 55, 0
2, 132075, Note_on_c, 0, 73, 0
2, 132121, Note_on_c, 0, 75, 83
2, 132137, Note_on_c, 0, 55, 68
2, 132149, Note_on_c, 0, 53, 0
2, 132184, Note_on_c, 0, 75, 0
2, 132264, Note_on_c, 0, 55, 0
2, 132268, Note_on_c, 0, 56, 82
2, 132268, Note_on_c, 0, 72, 86
2, 132268, Note_on_c, 0, 84, 85
2, 132392, Note_on_c, 0, 84, 0
2, 132397, Note_on_c, 0, 55, 74
2, 132420, Note_on_c, 0, 56, 0
2, 132567, Note_on_c, 0, 53, 75
2, 132571, Note_on_c, 0, 80, 80
2, 132596, Note_on_c, 0, 55, 0
2, 132607, Control_c, 0, 64, 47
2, 132639, Note_on_c, 0, 80, 0
2, 132699, Note_on_c, 0, 51, 79
2, 132743, Note_on_c, 0, 53, 0
2, 132874, Note_on_c, 0, 75, 79
2, 132882, Note_on_c, 0, 53, 79
2, 132937, Note_on_c, 0, 51, 0
2, 132994, Control_c, 0, 64, 46
2, 133023, Note_on_c, 0, 72, 0
2, 133197, Note_on_c, 0, 75, 0
2, 133205, Note_on_c, 0, 73, 78
2, 133306, Note_on_c, 0, 73, 0
2, 133328, Note_on_c, 0, 72, 81
2, 133414, Note_on_c, 0, 72, 0
2, 133487, Note_on_c, 0, 70, 76
2, 133487, Note_on_c, 0, 73, 83
2, 133570, Note_on_c, 0, 73, 0
2, 133621, Note_on_c, 0, 51, 77
2, 133626, Note_on_c, 0, 53, 0
2, 133763, Control_c, 0, 64, 47
2, 133767, Note_on_c, 0, 82, 83
2, 133772, Note_on_c, 0, 49, 72
2, 133781, Note_on_c, 0, 51, 0
2, 133857, Note_on_c, 0, 82, 0
2, 133883, Note_on_c, 0, 49, 0
2, 133906, Note_on_c, 0, 53, 76
2, 134063, Note_on_c, 0, 72, 88
2, 134067, Note_on_c, 0, 51, 78
2, 134080, Note_on_c, 0, 53, 0
2, 134089, Control_c, 0, 64, 46
2, 134101, Note_on_c, 0, 70, 0
2, 134151, Note_on_c, 0, 72, 0
2, 134184, Control_c, 0, 64, 45
2, 134209, Note_on_c, 0, 49, 76
2, 134227, Note_on_c, 0, 51, 0
2, 134321, Control_c, 0, 64, 44
2, 134344, Note_on_c, 0, 49, 0
2, 134365, Note_on_c, 0, 80, 87
2, 134369, Note_on_c, 0, 48, 67
2, 134372, Note_on_c, 0, 68, 82
2, 134398, Control_c, 0, 64, 45
2, 134450, Note_on_c, 0, 68, 0
2, 134450, Note_on_c, 0, 80, 0
2, 134489, Note_on_c, 0, 48, 0
2, 134509, Control_c, 0, 64, 44
2, 134514, Note_on_c, 0, 51, 75
2, 134587, Control_c, 0, 64, 43
2, 134660, Note_on_c, 0, 49, 64
2, 134664, Note_on_c, 0, 51, 0
2, 134668, Note_on_c, 0, 67, 68
2, 134668, Note_on_c, 0, 70, 74
2, 134722, Note_on_c, 0, 67, 0
2, 134752, Note_on_c, 0, 70, 0
2, 134807, Note_on_c, 0, 48, 66
2, 134818, Note_on_c, 0, 49, 0
2, 134960, Note_on_c, 0, 48, 0
2, 134964, Note_on_c, 0, 46, 65
2, 134969, Note_on_c, 0, 79, 77
2, 134975, Note_on_c, 0, 70, 76
2, 135020, Note_on_c, 0, 79, 0
2, 135039, Note_on_c, 0, 70, 0
2, 135113, Note_on_c, 0, 46, 0
2, 135113, Note_on_c, 0, 49, 70
2, 135127, Control_c, 0, 64, 44
2, 135282, Note_on_c, 0, 49, 0
2, 135287, Note_on_c, 0, 68, 77
2, 135291, Note_on_c, 0, 48, 66
2, 135299, Note_on_c, 0, 63, 65
2, 135350, Note_on_c, 0, 63, 0
2, 135403, Note_on_c, 0, 68, 0
2, 135414, Control_c, 0, 64, 43
2, 135427, Note_on_c, 0, 63, 68
2, 135531, Note_on_c, 0, 48, 0
2, 135537, Note_on_c, 0, 63, 0
2, 135580, Note_on_c, 0, 51, 62
2, 135580, Note_on_c, 0, 65, 67
2, 135693, Note_on_c, 0, 65, 0
2, 135708, Note_on_c, 0, 67, 69
2, 135843, Note_on_c, 0, 51, 0
2, 135862, Note_on_c, 0, 68, 74
2, 135867, Note_on_c, 0, 54, 75
2, 135875, Note_on_c, 0, 67, 0
2, 135912, Control_c, 0, 64, 44
2, 135983, Note_on_c, 0, 68, 0
2, 136009, Note_on_c, 0, 70, 75
2, 136118, Note_on_c, 0, 70, 0
2, 136154, Note_on_c, 0, 56, 85
2, 136167, Note_on_c, 0, 72, 77
2, 136247, Note_on_c, 0, 56, 0
2, 136281, Note_on_c, 0, 72, 0
2, 136308, Note_on_c, 0, 68, 74
2, 136429, Note_on_c, 0, 68, 0
2, 136480, Note_on_c, 0, 58, 82
2, 136488, Note_on_c, 0, 73, 81
2, 136611, Note_on_c, 0, 72, 80
2, 136615, Note_on_c, 0, 56, 82
2, 136636, Note_on_c, 0, 58, 0
2, 136663, Note_on_c, 0, 73, 0
2, 136666, Note_on_c, 0, 54, 0
2, 136716, Note_on_c, 0, 72, 0
2, 136750, Note_on_c, 0, 56, 0
2, 136759, Note_on_c, 0, 54, 79
2, 136759, Note_on_c, 0, 70, 82
2, 136814, Control_c, 0, 64, 45
2, 136888, Note_on_c, 0, 56, 88
2, 136890, Note_on_c, 0, 72, 82
2, 136904, Note_on_c, 0, 70, 0
2, 136943, Note_on_c, 0, 54, 0
2, 137001, Note_on_c, 0, 56, 0
2, 137049, Note_on_c, 0, 65, 90
2, 137049, Note_on_c, 0, 73, 84
2, 137066, Note_on_c, 0, 72, 0
2, 137070, Note_on_c, 0, 53, 53
2, 137124, Note_on_c, 0, 65, 0
2, 137164, Note_on_c, 0, 73, 0
2, 137185, Note_on_c, 0, 72, 80
2, 137292, Note_on_c, 0, 72, 0
2, 137343, Note_on_c, 0, 61, 78
2, 137343, Note_on_c, 0, 70, 74
2, 137408, Note_on_c, 0, 61, 0
2, 137433, Note_on_c, 0, 70, 0
2, 137470, Control_c, 0, 64, 44
2, 137470, Note_on_c, 0, 68, 78
2, 137596, Note_on_c, 0, 68, 0
2, 137647, Note_on_c, 0, 56, 78
2, 137652, Note_on_c, 0, 70, 78
2, 137956, Note_on_c, 0, 53, 0
2, 137971, Note_on_c, 0, 54, 74
2, 137988, Note_on_c, 0, 56, 0
2, 138081, Control_c, 0, 64, 45
2, 138083, Note_on_c, 0, 54, 0
2, 138100, Note_on_c, 0, 53, 74
2, 138189, Note_on_c, 0, 53, 0
2, 138245, Note_on_c, 0, 54, 76
2, 138262, Note_on_c, 0, 51, 72
2, 138313, Note_on_c, 0, 70, 0
2, 138342, Note_on_c, 0, 54, 0
2, 138406, Note_on_c, 0, 68, 81
2, 138491, Note_on_c, 0, 68, 0
2, 138550, Note_on_c, 0, 63, 78
2, 138554, Note_on_c, 0, 66, 81
2, 138642, Note_on_c, 0, 63, 0
2, 138652, Note_on_c, 0, 66, 0
2, 138694, Note_on_c, 0, 70, 79
2, 138791, Control_c, 0, 64, 44
2, 138840, Note_on_c, 0, 53, 80
2, 138845, Note_on_c, 0, 68, 84
2, 138845, Note_on_c, 0, 70, 0
2, 138869, Note_on_c, 0, 51, 0
2, 138936, Note_on_c, 0, 68, 0
2, 138952, Note_on_c, 0, 53, 0
2, 138973, Note_on_c, 0, 66, 82
2, 139070, Note_on_c, 0, 66, 0
2, 139125, Note_on_c, 0, 65, 72
2, 139133, Note_on_c, 0, 61, 78
2, 139140, Note_on_c, 0, 49, 65
2, 139234, Control_c, 0, 64, 45
2, 139254, Note_on_c, 0, 61, 0
2, 139254, Note_on_c, 0, 68, 79
2, 139272, Note_on_c, 0, 65, 0
2, 139334, Note_on_c, 0, 49, 0
2, 139372, Note_on_c, 0, 68, 0
2, 139416, Note_on_c, 0, 66, 78
2, 139420, Note_on_c, 0, 51, 80
2, 139552, Note_on_c, 0, 65, 72
2, 139559, Note_on_c, 0, 66, 0
2, 139577, Note_on_c, 0, 51, 0
2, 139637, Control_c, 0, 64, 44
2, 139650, Note_on_c, 0, 65, 0
2, 139704, Note_on_c, 0, 63, 71
2, 139715, Note_on_c, 0, 60, 60
2, 139727, Note_on_c, 0, 44, 70
2, 139765, Note_on_c, 0, 60, 0
2, 139839, Note_on_c, 0, 66, 73
2, 139849, Note_on_c, 0, 63, 0
2, 139918, Note_on_c, 0, 44, 0
2, 139935, Note_on_c, 0, 66, 0
2, 139987, Note_on_c, 0, 65, 72
2, 139996, Note_on_c, 0, 61, 60
2, 140000, Note_on_c, 0, 49, 68
2, 140054, Note_on_c, 0, 65, 0
2, 140059, Note_on_c, 0, 49, 0
2, 140129, Note_on_c, 0, 51, 70
2, 140206, Note_on_c, 0, 61, 0
2, 140213, Note_on_c, 0, 51, 0
2, 140284, Note_on_c, 0, 68, 72
2, 140304, Note_on_c, 0, 53, 56
2, 140325, Note_on_c, 0, 68, 0
2, 140399, Note_on_c, 0, 53, 0
2, 140432, Note_on_c, 0, 54, 59
2, 140537, Note_on_c, 0, 54, 0
2, 140576, Note_on_c, 0, 73, 67
2, 140582, Note_on_c, 0, 53, 54
2, 140705, Note_on_c, 0, 53, 0
2, 140725, Note_on_c, 0, 51, 55
2, 140795, Note_on_c, 0, 51, 0
2, 140799, Note_on_c, 0, 73, 0
2, 140877, Note_on_c, 0, 49, 47
2, 140879, Note_on_c, 0, 80, 61
2, 140928, Note_on_c, 0, 49, 0
2, 140950, Note_on_c, 0, 80, 0
2, 140999, Note_on_c, 0, 53, 48
2, 141004, Note_on_c, 0, 77, 66
2, 141072, Note_on_c, 0, 77, 0
2, 141079, Note_on_c, 0, 53, 0
2, 141157, Note_on_c, 0, 73, 67
2, 141166, Note_on_c, 0, 58, 51
2, 141277, Note_on_c, 0, 58, 0
2, 141302, Note_on_c, 0, 56, 51
2, 141386, Note_on_c, 0, 56, 0
2, 141442, Note_on_c, 0, 73, 0
2, 141462, Note_on_c, 0, 76, 62
2, 141477, Note_on_c, 0, 55, 42
2, 141519, Note_on_c, 0, 76, 0
2, 141564, Note_on_c, 0, 55, 0
2, 141575, Note_on_c, 0, 73, 69
2, 141610, Note_on_c, 0, 58, 47
2, 141650, Note_on_c, 0, 73, 0
2, 141672, Note_on_c, 0, 58, 0
2, 141739, Note_on_c, 0, 70, 58
2, 141750, Note_on_c, 0, 61, 51
2, 141833, Note_on_c, 0, 61, 0
2, 141866, Note_on_c, 0, 59, 57
2, 141960, Note_on_c, 0, 70, 0
2, 141985, Note_on_c, 0, 59, 0
2, 142016, Note_on_c, 0, 58, 62
2, 142021, Control_c, 0, 64, 45
2, 142031, Note_on_c, 0, 73, 70
2, 142093, Note_on_c, 0, 73, 0
2, 142105, Note_on_c, 0, 58, 0
2, 142162, Note_on_c, 0, 70, 62
2, 142172, Note_on_c, 0, 61, 53
2, 142230, Note_on_c, 0, 70, 0
2, 142239, Note_on_c, 0, 61, 0
2, 142309, Note_on_c, 0, 67, 59
2, 142321, Note_on_c, 0, 64, 58
2, 142593, Note_on_c, 0, 64, 0
2, 142640, Note_on_c, 0, 63, 49
2, 142644, Note_on_c, 0, 70, 57
2, 142688, Note_on_c, 0, 70, 0
2, 142702, Note_on_c, 0, 63, 0
2, 142766, Note_on_c, 0, 73, 64
2, 142782, Note_on_c, 0, 61, 49
2, 142803, Control_c, 0, 64, 44
2, 142835, Note_on_c, 0, 73, 0
2, 142851, Note_on_c, 0, 61, 0
2, 142925, Note_on_c, 0, 59, 54
2, 142925, Note_on_c, 0, 76, 62
2, 143010, Note_on_c, 0, 67, 0
2, 143038, Note_on_c, 0, 59, 0
2, 143070, Note_on_c, 0, 58, 54
2, 143137, Note_on_c, 0, 58, 0
2, 143213, Note_on_c, 0, 73, 70
2, 143232, Note_on_c, 0, 56, 56
2, 143295, Note_on_c, 0, 56, 0
2, 143304, Note_on_c, 0, 73, 0
2, 143356, Note_on_c, 0, 55, 68
2, 143460, Note_on_c, 0, 76, 0
2, 143465, Note_on_c, 0, 55, 0
2, 143509, Note_on_c, 0, 75, 79
2, 143513, Note_on_c, 0, 71, 72
2, 143515, Note_on_c, 0, 56, 72
2, 143566, Note_on_c, 0, 75, 0
2, 143592, Control_c, 0, 64, 45
2, 143599, Note_on_c, 0, 56, 0
2, 143650, Note_on_c, 0, 59, 69
2, 143770, Note_on_c, 0, 59, 0
2, 143807, Note_on_c, 0, 80, 75
2, 143828, Note_on_c, 0, 58, 62
2, 143879, Note_on_c, 0, 80, 0
2, 143957, Note_on_c, 0, 56, 60
2, 143968, Note_on_c, 0, 58, 0
2, 144055, Note_on_c, 0, 56, 0
2, 144064, Note_on_c, 0, 71, 0
2, 144094, Note_on_c, 0, 55, 65
2, 144102, Note_on_c, 0, 73, 84
2, 144111, Note_on_c, 0, 70, 70
2, 144182, Note_on_c, 0, 73, 0
2, 144186, Note_on_c, 0, 55, 0
2, 144238, Note_on_c, 0, 52, 57
2, 144386, Note_on_c, 0, 52, 0
2, 144398, Note_on_c, 0, 51, 64
2, 144398, Note_on_c, 0, 79, 77
2, 144402, Note_on_c, 0, 70, 0
2, 144454, Note_on_c, 0, 79, 0
2, 144526, Note_on_c, 0, 51, 0
2, 144544, Note_on_c, 0, 49, 60
2, 144667, Note_on_c, 0, 49, 0
2, 144698, Note_on_c, 0, 68, 78
2, 144702, Note_on_c, 0, 47, 63
2, 144738, Note_on_c, 0, 68, 0
2, 144822, Note_on_c, 0, 47, 0
2, 144833, Note_on_c, 0, 49, 65
2, 144921, Note_on_c, 0, 49, 0
2, 144983, Note_on_c, 0, 51, 67
2, 145000, Note_on_c, 0, 80, 74
2, 145050, Note_on_c, 0, 80, 0
2, 145076, Note_on_c, 0, 51, 0
2, 145112, Note_on_c, 0, 47, 59
2, 145118, Note_on_c, 0, 79, 81
2, 145197, Note_on_c, 0, 79, 0
2, 145223, Control_c, 0, 64, 44
2, 145232, Note_on_c, 0, 47, 0
2, 145262, Note_on_c, 0, 44, 61
2, 145262, Note_on_c, 0, 80, 78
2, 145301, Control_c, 0, 64, 43
2, 145306, Note_on_c, 0, 44, 0
2, 145371, Note_on_c, 0, 80, 0
2, 145408, Note_on_c, 0, 82, 62
2, 145462, Note_on_c, 0, 82, 0
2, 145553, Note_on_c, 0, 56, 53
2, 145569, Note_on_c, 0, 83, 48
2, 145573, Control_c, 0, 64, 44
2, 145615, Note_on_c, 0, 56, 0
2, 145658, Note_on_c, 0, 83, 0
2, 145687, Note_on_c, 0, 53, 45
2, 145687, Note_on_c, 0, 80, 55
2, 145737, Note_on_c, 0, 80, 0
2, 145785, Note_on_c, 0, 53, 0
2, 145824, Note_on_c, 0, 49, 61
2, 145828, Note_on_c, 0, 77, 68
2, 145861, Note_on_c, 0, 49, 0
2, 145953, Note_on_c, 0, 77, 0
2, 145981, Note_on_c, 0, 78, 59
2, 146038, Note_on_c, 0, 78, 0
2, 146126, Note_on_c, 0, 80, 64
2, 146130, Note_on_c, 0, 59, 64
2, 146184, Note_on_c, 0, 59, 0
2, 146189, Note_on_c, 0, 80, 0
2, 146244, Note_on_c, 0, 56, 61
2, 146251, Note_on_c, 0, 77, 62
2, 146308, Note_on_c, 0, 56, 0
2, 146317, Note_on_c, 0, 77, 0
2, 146396, Note_on_c, 0, 53, 58
2, 146412, Note_on_c, 0, 73, 65
2, 146437, Note_on_c, 0, 53, 0
2, 146536, Note_on_c, 0, 73, 0
2, 146549, Note_on_c, 0, 75, 57
2, 146608, Note_on_c, 0, 75, 0
2, 146703, Note_on_c, 0, 77, 65
2, 146717, Note_on_c, 0, 49, 66
2, 146760, Note_on_c, 0, 77, 0
2, 146773, Note_on_c, 0, 49, 0
2, 146825, Note_on_c, 0, 46, 69
2, 146829, Note_on_c, 0, 73, 70
2, 146880, Note_on_c, 0, 46, 0
2, 146880, Note_on_c, 0, 73, 0
2, 146962, Note_on_c, 0, 42, 69
2, 146967, Note_on_c, 0, 70, 71
2, 146999, Note_on_c, 0, 42, 0
2, 147028, Control_c, 0, 64, 43
2, 147080, Note_on_c, 0, 70, 0
2, 147110, Note_on_c, 0, 72, 59
2, 147211, Note_on_c, 0, 72, 0
2, 147276, Note_on_c, 0, 73, 63
2, 147281, Note_on_c, 0, 58, 56
2, 147330, Note_on_c, 0, 73, 0
2, 147344, Note_on_c, 0, 58, 0
2, 147402, Note_on_c, 0, 70, 67
2, 147416, Note_on_c, 0, 54, 56
2, 147475, Note_on_c, 0, 54, 0
2, 147498, Note_on_c, 0, 70, 0
2, 147556, Note_on_c, 0, 51, 63
2, 147561, Note_on_c, 0, 78, 64
2, 147597, Note_on_c, 0, 51, 0
2, 147657, Note_on_c, 0, 78, 0
2, 147693, Note_on_c, 0, 80, 66
2, 147783, Note_on_c, 0, 80, 0
2, 147851, Note_on_c, 0, 54, 74
2, 147851, Note_on_c, 0, 82, 67
2, 147930, Note_on_c, 0, 54, 0
2, 147941, Note_on_c, 0, 82, 0
2, 147979, Note_on_c, 0, 51, 66
2, 147979, Note_on_c, 0, 78, 71
2, 148052, Note_on_c, 0, 78, 0
2, 148063, Note_on_c, 0, 51, 0
2, 148130, Note_on_c, 0, 75, 66
2, 148134, Note_on_c, 0, 48, 53
2, 148193, Note_on_c, 0, 48, 0
2, 148233, Note_on_c, 0, 75, 0
2, 148270, Note_on_c, 0, 77, 62
2, 148340, Note_on_c, 0, 77, 0
2, 148418, Note_on_c, 0, 78, 68
2, 148429, Note_on_c, 0, 58, 61
2, 148486, Note_on_c, 0, 58, 0
2, 148506, Note_on_c, 0, 78, 0
2, 148555, Note_on_c, 0, 75, 65
2, 148558, Note_on_c, 0, 54, 58
2, 148615, Note_on_c, 0, 75, 0
2, 148617, Note_on_c, 0, 54, 0
2, 148677, Control_c, 0, 64, 44
2, 148706, Note_on_c, 0, 51, 72
2, 148710, Note_on_c, 0, 72, 67
2, 148744, Note_on_c, 0, 51, 0
2, 148835, Note_on_c, 0, 72, 0
2, 148839, Note_on_c, 0, 73, 72
2, 148940, Note_on_c, 0, 73, 0
2, 148995, Note_on_c, 0, 75, 69
2, 148999, Note_on_c, 0, 48, 74
2, 149077, Note_on_c, 0, 48, 0
2, 149082, Note_on_c, 0, 75, 0
2, 149128, Note_on_c, 0, 44, 78
2, 149137, Note_on_c, 0, 72, 72
2, 149225, Note_on_c, 0, 72, 0
2, 149231, Note_on_c, 0, 44, 0
2, 149276, Note_on_c, 0, 41, 73
2, 149296, Note_on_c, 0, 68, 74
2, 149363, Note_on_c, 0, 41, 0
2, 149396, Note_on_c, 0, 68, 0
2, 149438, Note_on_c, 0, 70, 66
2, 149535, Note_on_c, 0, 70, 0
2, 149593, Note_on_c, 0, 72, 63
2, 149596, Note_on_c, 0, 56, 53
2, 149652, Note_on_c, 0, 72, 0
2, 149661, Note_on_c, 0, 56, 0
2, 149727, Note_on_c, 0, 68, 71
2, 149732, Note_on_c, 0, 53, 57
2, 149796, Note_on_c, 0, 53, 0
2, 149805, Note_on_c, 0, 68, 0
2, 149880, Note_on_c, 0, 50, 65
2, 149886, Note_on_c, 0, 77, 67
2, 149940, Note_on_c, 0, 50, 0
2, 149999, Note_on_c, 0, 77, 0
2, 150012, Note_on_c, 0, 78, 68
2, 150096, Note_on_c, 0, 78, 0
2, 150165, Note_on_c, 0, 53, 73
2, 150172, Note_on_c, 0, 80, 71
2, 150246, Note_on_c, 0, 53, 0
2, 150290, Note_on_c, 0, 50, 68
2, 150297, Note_on_c, 0, 80, 0
2, 150304, Note_on_c, 0, 77, 70
2, 150380, Note_on_c, 0, 50, 0
2, 150380, Note_on_c, 0, 77, 0
2, 150461, Note_on_c, 0, 74, 65
2, 150466, Note_on_c, 0, 46, 56
2, 150528, Note_on_c, 0, 74, 0
2, 150565, Note_on_c, 0, 46, 0
2, 150607, Note_on_c, 0, 75, 67
2, 150694, Note_on_c, 0, 75, 0
2, 150749, Note_on_c, 0, 56, 62
2, 150751, Note_on_c, 0, 77, 67
2, 150813, Note_on_c, 0, 56, 0
2, 150843, Note_on_c, 0, 77, 0
2, 150869, Note_on_c, 0, 53, 58
2, 150878, Note_on_c, 0, 74, 68
2, 150934, Note_on_c, 0, 53, 0
2, 150949, Note_on_c, 0, 74, 0
2, 151002, Control_c, 0, 64, 45
2, 151024, Note_on_c, 0, 50, 65
2, 151031, Note_on_c, 0, 70, 70
2, 151064, Note_on_c, 0, 50, 0
2, 151160, Note_on_c, 0, 72, 72
2, 151172, Note_on_c, 0, 70, 0
2, 151246, Note_on_c, 0, 72, 0
2, 151310, Note_on_c, 0, 74, 75
2, 151314, Note_on_c, 0, 46, 78
2, 151402, Note_on_c, 0, 74, 0
2, 151406, Note_on_c, 0, 46, 0
2, 151439, Note_on_c, 0, 42, 76
2, 151445, Note_on_c, 0, 70, 75
2, 151521, Note_on_c, 0, 42, 0
2, 151536, Note_on_c, 0, 70, 0
2, 151589, Note_on_c, 0, 39, 76
2, 151598, Note_on_c, 0, 66, 73
2, 151651, Note_on_c, 0, 39, 0
2, 151740, Note_on_c, 0, 68, 72
2, 151744, Note_on_c, 0, 66, 0
2, 151749, Control_c, 0, 64, 44
2, 151851, Note_on_c, 0, 68, 0
2, 151898, Note_on_c, 0, 54, 64
2, 151903, Note_on_c, 0, 70, 64
2, 151954, Note_on_c, 0, 70, 0
2, 151959, Note_on_c, 0, 54, 0
2, 151997, Control_c, 0, 64, 45
2, 152030, Note_on_c, 0, 51, 65
2, 152030, Note_on_c, 0, 66, 61
2, 152091, Note_on_c, 0, 51, 0
2, 152127, Note_on_c, 0, 66, 0
2, 152178, Note_on_c, 0, 48, 64
2, 152186, Note_on_c, 0, 75, 70
2, 152243, Note_on_c, 0, 48, 0
2, 152309, Note_on_c, 0, 77, 72
2, 152313, Note_on_c, 0, 75, 0
2, 152407, Note_on_c, 0, 77, 0
2, 152462, Note_on_c, 0, 78, 79
2, 152475, Note_on_c, 0, 51, 78
2, 152559, Note_on_c, 0, 51, 0
2, 152579, Note_on_c, 0, 78, 0
2, 152598, Note_on_c, 0, 75, 74
2, 152603, Note_on_c, 0, 48, 73
2, 152677, Note_on_c, 0, 75, 0
2, 152686, Note_on_c, 0, 48, 0
2, 152750, Note_on_c, 0, 72, 72
2, 152759, Note_on_c, 0, 44, 70
2, 152857, Note_on_c, 0, 44, 0
2, 152893, Note_on_c, 0, 73, 73
2, 152911, Note_on_c, 0, 72, 0
2, 152975, Note_on_c, 0, 73, 0
2, 153038, Note_on_c, 0, 54, 79
2, 153042, Note_on_c, 0, 75, 77
2, 153094, Note_on_c, 0, 54, 0
2, 153138, Note_on_c, 0, 75, 0
2, 153151, Note_on_c, 0, 51, 78
2, 153167, Note_on_c, 0, 72, 77
2, 153189, Control_c, 0, 64, 46
2, 153254, Note_on_c, 0, 51, 0
2, 153259, Note_on_c, 0, 72, 0
2, 153308, Note_on_c, 0, 48, 78
2, 153316, Note_on_c, 0, 68, 83
2, 153356, Note_on_c, 0, 48, 0
2, 153459, Note_on_c, 0, 70, 80
2, 153492, Note_on_c, 0, 68, 0
2, 153560, Note_on_c, 0, 70, 0
2, 153610, Note_on_c, 0, 44, 86
2, 153610, Note_on_c, 0, 72, 83
2, 153691, Note_on_c, 0, 44, 0
2, 153718, Note_on_c, 0, 72, 0
2, 153738, Note_on_c, 0, 68, 87
2, 153740, Note_on_c, 0, 41, 83
2, 153823, Note_on_c, 0, 41, 0
2, 153863, Note_on_c, 0, 68, 0
2, 153900, Note_on_c, 0, 37, 82
2, 153900, Note_on_c, 0, 65, 79
2, 154049, Note_on_c, 0, 65, 0
2, 154053, Note_on_c, 0, 66, 74
2, 154148, Note_on_c, 0, 66, 0
2, 154172, Control_c, 0, 64, 45
2, 154195, Note_on_c, 0, 68, 82
2, 154304, Note_on_c, 0, 68, 0
2, 154334, Note_on_c, 0, 65, 76
2, 154404, Note_on_c, 0, 37, 0
2, 154455, Note_on_c, 0, 65, 0
2, 154491, Note_on_c, 0, 61, 77
2, 154573, Note_on_c, 0, 61, 0
2, 154617, Note_on_c, 0, 65, 75
2, 154714, Note_on_c, 0, 65, 0
2, 154777, Note_on_c, 0, 68, 83
2, 154785, Control_c, 0, 64, 44
2, 154861, Note_on_c, 0, 68, 0
2, 154918, Note_on_c, 0, 70, 80
2, 155001, Note_on_c, 0, 70, 0
2, 155070, Note_on_c, 0, 71, 90
2, 155113, Control_c, 0, 64, 45
2, 155168, Note_on_c, 0, 71, 0
2, 155213, Note_on_c, 0, 70, 81
2, 155288, Note_on_c, 0, 70, 0
2, 155345, Note_on_c, 0, 59, 73
2, 155354, Note_on_c, 0, 68, 86
2, 155431, Note_on_c, 0, 68, 0
2, 155449, Note_on_c, 0, 59, 0
2, 155484, Note_on_c, 0, 49, 71
2, 155489, Note_on_c, 0, 70, 86
2, 155589, Note_on_c, 0, 70, 0
2, 155605, Note_on_c, 0, 49, 0
2, 155642, Note_on_c, 0, 78, 91
2, 155649, Note_on_c, 0, 58, 78
2, 155709, Note_on_c, 0, 58, 0
2, 155746, Note_on_c, 0, 78, 0
2, 155773, Note_on_c, 0, 49, 64
2, 155891, Note_on_c, 0, 49, 0
2, 155943, Note_on_c, 0, 73, 90
2, 155955, Note_on_c, 0, 56, 76
2, 156018, Note_on_c, 0, 73, 0
2, 156027, Note_on_c, 0, 56, 0
2, 156078, Note_on_c, 0, 49, 64
2, 156092, Control_c, 0, 64, 44
2, 156234, Note_on_c, 0, 49, 0
2, 156254, Note_on_c, 0, 70, 86
2, 156271, Note_on_c, 0, 54, 72
2, 156386, Note_on_c, 0, 54, 0
2, 156392, Note_on_c, 0, 49, 69
2, 156516, Note_on_c, 0, 70, 0
2, 156535, Note_on_c, 0, 49, 0
2, 156565, Note_on_c, 0, 53, 65
2, 156580, Note_on_c, 0, 68, 80
2, 156651, Note_on_c, 0, 68, 0
2, 156689, Note_on_c, 0, 53, 0
2, 156704, Note_on_c, 0, 51, 69
2, 156704, Note_on_c, 0, 66, 75
2, 156800, Note_on_c, 0, 66, 0
2, 156811, Note_on_c, 0, 51, 0
2, 156852, Note_on_c, 0, 68, 75
2, 156856, Note_on_c, 0, 53, 60
2, 156939, Note_on_c, 0, 68, 0
2, 156993, Note_on_c, 0, 61, 69
2, 157086, Note_on_c, 0, 53, 0
2, 157111, Note_on_c, 0, 61, 0
2, 157155, Note_on_c, 0, 65, 68
2, 157159, Note_on_c, 0, 44, 65
2, 157238, Note_on_c, 0, 65, 0
2, 157290, Note_on_c, 0, 68, 76
2, 157354, Note_on_c, 0, 44, 0
2, 157373, Note_on_c, 0, 68, 0
2, 157447, Note_on_c, 0, 70, 81
2, 157531, Note_on_c, 0, 70, 0
2, 157585, Note_on_c, 0, 68, 80
2, 157666, Note_on_c, 0, 68, 0
2, 157718, Note_on_c, 0, 66, 79
2, 157729, Note_on_c, 0, 58, 72
2, 157798, Note_on_c, 0, 66, 0
2, 157831, Note_on_c, 0, 58, 0
2, 157858, Note_on_c, 0, 68, 80
2, 157873, Note_on_c, 0, 49, 65
2, 157940, Note_on_c, 0, 68, 0
2, 157967, Note_on_c, 0, 49, 0
2, 158000, Note_on_c, 0, 77, 87
2, 158013, Note_on_c, 0, 56, 74
2, 158083, Note_on_c, 0, 77, 0
2, 158114, Note_on_c, 0, 56, 0
2, 158149, Note_on_c, 0, 49, 72
2, 158308, Note_on_c, 0, 73, 82
2, 158313, Note_on_c, 0, 54, 69
2, 158317, Note_on_c, 0, 49, 0
2, 158377, Note_on_c, 0, 73, 0
2, 158438, Note_on_c, 0, 54, 0
2, 158452, Note_on_c, 0, 49, 68
2, 158559, Note_on_c, 0, 49, 0
2, 158599, Note_on_c, 0, 68, 77
2, 158609, Note_on_c, 0, 53, 69
2, 158760, Note_on_c, 0, 49, 58
2, 158764, Note_on_c, 0, 53, 0
2, 158823, Note_on_c, 0, 68, 0
2, 158857, Note_on_c, 0, 49, 0
2, 158901, Note_on_c, 0, 66, 72
2, 158905, Note_on_c, 0, 51, 69
2, 158971, Control_c, 0, 64, 43
2, 158971, Note_on_c, 0, 66, 0
2, 158994, Note_on_c, 0, 51, 0
2, 159024, Note_on_c, 0, 49, 60
2, 159028, Note_on_c, 0, 65, 63
2, 159100, Note_on_c, 0, 65, 0
2, 159134, Note_on_c, 0, 49, 0
2, 159177, Note_on_c, 0, 51, 59
2, 159182, Note_on_c, 0, 66, 64
2, 159255, Note_on_c, 0, 66, 0
2, 159315, Note_on_c, 0, 60, 60
2, 159383, Note_on_c, 0, 51, 0
2, 159388, Note_on_c, 0, 60, 0
2, 159474, Note_on_c, 0, 63, 62
2, 159485, Note_on_c, 0, 44, 53
2, 159576, Note_on_c, 0, 63, 0
2, 159585, Control_c, 0, 64, 44
2, 159612, Note_on_c, 0, 66, 70
2, 159690, Note_on_c, 0, 44, 0
2, 159694, Note_on_c, 0, 66, 0
2, 159761, Note_on_c, 0, 68, 79
2, 159846, Note_on_c, 0, 68, 0
2, 159890, Note_on_c, 0, 66, 70
2, 159958, Note_on_c, 0, 66, 0
2, 160035, Note_on_c, 0, 65, 62
2, 160039, Note_on_c, 0, 56, 60
2, 160099, Note_on_c, 0, 65, 0
2, 160117, Note_on_c, 0, 56, 0
2, 160168, Note_on_c, 0, 66, 70
2, 160179, Note_on_c, 0, 44, 62
2, 160247, Note_on_c, 0, 66, 0
2, 160266, Note_on_c, 0, 44, 0
2, 160323, Note_on_c, 0, 54, 68
2, 160328, Note_on_c, 0, 75, 72
2, 160407, Note_on_c, 0, 54, 0
2, 160427, Note_on_c, 0, 75, 0
2, 160446, Note_on_c, 0, 44, 64
2, 160541, Note_on_c, 0, 44, 0
2, 160618, Note_on_c, 0, 72, 74
2, 160626, Note_on_c, 0, 53, 63
2, 160662, Note_on_c, 0, 72, 0
2, 160708, Note_on_c, 0, 53, 0
2, 160754, Note_on_c, 0, 44, 63
2, 160869, Note_on_c, 0, 44, 0
2, 160910, Note_on_c, 0, 66, 65
2, 160929, Note_on_c, 0, 51, 64
2, 161003, Note_on_c, 0, 51, 0
2, 161060, Note_on_c, 0, 44, 63
2, 161138, Note_on_c, 0, 66, 0
2, 161204, Note_on_c, 0, 44, 0
2, 161212, Note_on_c, 0, 49, 62
2, 161219, Note_on_c, 0, 65, 60
2, 161281, Note_on_c, 0, 65, 0
2, 161296, Note_on_c, 0, 49, 0
2, 161352, Note_on_c, 0, 48, 61
2, 161356, Note_on_c, 0, 63, 68
2, 161437, Note_on_c, 0, 63, 0
2, 161486, Note_on_c, 0, 48, 0
2, 161498, Note_on_c, 0, 65, 71
2, 161500, Note_on_c, 0, 49, 58
2, 161582, Note_on_c, 0, 65, 0
2, 161627, Note_on_c, 0, 49, 0
2, 161632, Note_on_c, 0, 68, 75
2, 161651, Note_on_c, 0, 44, 66
2, 161763, Note_on_c, 0, 44, 0
2, 161763, Note_on_c, 0, 68, 0
2, 161774, Control_c, 0, 64, 45
2, 161792, Note_on_c, 0, 70, 80
2, 161797, Note_on_c, 0, 53, 67
2, 161872, Note_on_c, 0, 70, 0
2, 161926, Note_on_c, 0, 72, 83
2, 161930, Note_on_c, 0, 53, 0
2, 161934, Note_on_c, 0, 51, 76
2, 161986, Control_c, 0, 64, 46
2, 162029, Note_on_c, 0, 72, 0
2, 162066, Note_on_c, 0, 51, 0
2, 162070, Note_on_c, 0, 53, 76
2, 162084, Note_on_c, 0, 73, 87
2, 162184, Note_on_c, 0, 53, 0
2, 162224, Note_on_c, 0, 44, 80
2, 162229, Note_on_c, 0, 75, 81
2, 162237, Note_on_c, 0, 73, 0
2, 162331, Note_on_c, 0, 75, 0
2, 162349, Note_on_c, 0, 44, 0
2, 162367, Control_c, 0, 64, 45
2, 162380, Note_on_c, 0, 56, 87
2, 162385, Note_on_c, 0, 77, 82
2, 162480, Note_on_c, 0, 77, 0
2, 162520, Note_on_c, 0, 54, 76
2, 162520, Note_on_c, 0, 56, 0
2, 162525, Note_on_c, 0, 75, 77
2, 162545, Control_c, 0, 64, 46
2, 162632, Note_on_c, 0, 54, 0
2, 162671, Note_on_c, 0, 56, 83
2, 162686, Note_on_c, 0, 75, 0
2, 162691, Note_on_c, 0, 78, 83
2, 162770, Note_on_c, 0, 56, 0
2, 162815, Note_on_c, 0, 44, 80
2, 162819, Note_on_c, 0, 77, 79
2, 162866, Note_on_c, 0, 78, 0
2, 162918, Note_on_c, 0, 44, 0
2, 162935, Note_on_c, 0, 77, 0
2, 162966, Control_c, 0, 64, 47
2, 162966, Note_on_c, 0, 58, 84
2, 162971, Note_on_c, 0, 75, 82
2, 163004, Control_c, 0, 64, 48
2, 163022, Control_c, 0, 64, 50
2, 163038, Note_on_c, 0, 58, 0
2, 163043, Control_c, 0, 64, 59
2, 163060, Control_c, 0, 64, 65
2, 163065, Note_on_c, 0, 75, 0
2, 163083, Control_c, 0, 64, 72
2, 163098, Control_c, 0, 64, 85
2, 163104, Note_on_c, 0, 44, 84
2, 163111, Note_on_c, 0, 73, 80
2, 163117, Control_c, 0, 64, 102
2, 163137, Control_c, 0, 64, 127
2, 163181, Note_on_c, 0, 44, 0
2, 163209, Note_on_c, 0, 73, 0
2, 163285, Note_on_c, 0, 82, 74
2, 163293, Control_c, 0, 64, 122
2, 163293, Note_on_c, 0, 60, 85
2, 163312, Control_c, 0, 64, 99
2, 163331, Control_c, 0, 64, 76
2, 163350, Control_c, 0, 64, 62
2, 163355, Note_on_c, 0, 80, 65
2, 163367, Control_c, 0, 64, 48
2, 163383, Note_on_c, 0, 82, 0
2, 163387, Control_c, 0, 64, 35
2, 163407, Control_c, 0, 64, 32
2, 163423, Note_on_c, 0, 78, 74
2, 163427, Note_on_c, 0, 61, 76
2, 163427, Note_on_c, 0, 80, 0
2, 163444, Control_c, 0, 64, 34
2, 163460, Note_on_c, 0, 60, 0
2, 163512, Note_on_c, 0, 80, 67
2, 163532, Note_on_c, 0, 78, 0
2, 163583, Note_on_c, 0, 80, 0
2, 163590, Note_on_c, 0, 63, 86
2, 163590, Note_on_c, 0, 82, 69
2, 163616, Control_c, 0, 64, 35
2, 163631, Note_on_c, 0, 61, 0
2, 163668, Note_on_c, 0, 80, 68
2, 163670, Note_on_c, 0, 82, 0
2, 163733, Note_on_c, 0, 60, 77
2, 163738, Note_on_c, 0, 80, 0
2, 163751, Note_on_c, 0, 63, 0
2, 163758, Note_on_c, 0, 82, 62
2, 163771, Control_c, 0, 64, 36
2, 163831, Control_c, 0, 64, 37
2, 163831, Note_on_c, 0, 82, 0
2, 163835, Note_on_c, 0, 80, 64
2, 163881, Note_on_c, 0, 56, 82
2, 163887, Note_on_c, 0, 60, 0
2, 163891, Note_on_c, 0, 80, 0
2, 163921, Note_on_c, 0, 82, 58
2, 163981, Note_on_c, 0, 80, 67
2, 163986, Note_on_c, 0, 82, 0
2, 164025, Note_on_c, 0, 60, 76
2, 164060, Note_on_c, 0, 80, 0
2, 164075, Note_on_c, 0, 56, 0
2, 164075, Note_on_c, 0, 82, 56
2, 164127, Note_on_c, 0, 80, 61
2, 164138, Note_on_c, 0, 82, 0
2, 164168, Note_on_c, 0, 63, 78
2, 164172, Note_on_c, 0, 60, 0
2, 164201, Note_on_c, 0, 80, 0
2, 164221, Note_on_c, 0, 82, 59
2, 164281, Note_on_c, 0, 80, 62
2, 164295, Note_on_c, 0, 82, 0
2, 164299, Note_on_c, 0, 63, 0
2, 164319, Note_on_c, 0, 65, 70
2, 164349, Note_on_c, 0, 80, 0
2, 164360, Note_on_c, 0, 82, 49
2, 164423, Note_on_c, 0, 80, 64
2, 164464, Note_on_c, 0, 82, 0
2, 164499, Note_on_c, 0, 66, 83
2, 164532, Note_on_c, 0, 65, 0
2, 164575, Note_on_c, 0, 80, 0
2, 164658, Note_on_c, 0, 65, 74
2, 164663, Note_on_c, 0, 66, 0
2, 164681, Note_on_c, 0, 80, 66
2, 164798, Note_on_c, 0, 65, 0
2, 164798, Note_on_c, 0, 80, 0
2, 164807, Note_on_c, 0, 63, 73
2, 164816, Note_on_c, 0, 78, 67
2, 164922, Note_on_c, 0, 78, 0
2, 164931, Note_on_c, 0, 63, 0
2, 164944, Note_on_c, 0, 65, 75
2, 164944, Note_on_c, 0, 80, 71
2, 165027, Note_on_c, 0, 65, 0
2, 165091, Note_on_c, 0, 80, 0
2, 165102, Note_on_c, 0, 73, 82
2, 165106, Note_on_c, 0, 77, 73
2, 165115, Control_c, 0, 64, 36
2, 165135, Note_on_c, 0, 73, 0
2, 165154, Control_c, 0, 64, 35
2, 165154, Note_on_c, 0, 77, 0
2, 165249, Note_on_c, 0, 80, 58
2, 165410, Note_on_c, 0, 80, 0
2, 165414, Note_on_c, 0, 68, 73
2, 165428, Note_on_c, 0, 75, 63
2, 165448, Note_on_c, 0, 68, 0
2, 165487, Note_on_c, 0, 75, 0
2, 165564, Note_on_c, 0, 80, 62
2, 165711, Note_on_c, 0, 80, 0
2, 165728, Note_on_c, 0, 65, 67
2, 165737, Note_on_c, 0, 73, 64
2, 165786, Control_c, 0, 64, 36
2, 165872, Note_on_c, 0, 80, 58
2, 165876, Note_on_c, 0, 73, 0
2, 166010, Note_on_c, 0, 80, 0
2, 166022, Note_on_c, 0, 65, 0
2, 166046, Note_on_c, 0, 63, 64
2, 166046, Note_on_c, 0, 72, 63
2, 166111, Note_on_c, 0, 72, 0
2, 166167, Note_on_c, 0, 70, 67
2, 166178, Note_on_c, 0, 63, 0
2, 166183, Note_on_c, 0, 61, 53
2, 166278, Note_on_c, 0, 70, 0
2, 166294, Note_on_c, 0, 61, 0
2, 166326, Note_on_c, 0, 63, 60
2, 166326, Note_on_c, 0, 72, 65
2, 166382, Note_on_c, 0, 72, 0
2, 166470, Note_on_c, 0, 75, 61
2, 166483, Note_on_c, 0, 63, 0
2, 166487, Note_on_c, 0, 56, 56
2, 166553, Note_on_c, 0, 75, 0
2, 166616, Note_on_c, 0, 56, 0
2, 166616, Note_on_c, 0, 60, 65
2, 166621, Note_on_c, 0, 77, 72
2, 166705, Note_on_c, 0, 77, 0
2, 166751, Note_on_c, 0, 78, 65
2, 166755, Note_on_c, 0, 60, 0
2, 166766, Note_on_c, 0, 63, 67
2, 166863, Note_on_c, 0, 63, 0
2, 166877, Note_on_c, 0, 78, 0
2, 166909, Note_on_c, 0, 80, 70
2, 166912, Note_on_c, 0, 65, 63
2, 167024, Note_on_c, 0, 80, 0
2, 167032, Note_on_c, 0, 65, 0
2, 167046, Note_on_c, 0, 78, 69
2, 167063, Note_on_c, 0, 63, 60
2, 167138, Note_on_c, 0, 63, 0
2, 167169, Note_on_c, 0, 78, 0
2, 167196, Note_on_c, 0, 61, 63
2, 167203, Note_on_c, 0, 77, 73
2, 167274, Note_on_c, 0, 77, 0
2, 167292, Note_on_c, 0, 61, 0
2, 167338, Note_on_c, 0, 63, 67
2, 167343, Note_on_c, 0, 80, 70
2, 167414, Note_on_c, 0, 63, 0
2, 167476, Note_on_c, 0, 80, 0
2, 167493, Note_on_c, 0, 72, 74
2, 167502, Note_on_c, 0, 75, 69
2, 167514, Control_c, 0, 64, 37
2, 167532, Note_on_c, 0, 72, 0
2, 167547, Note_on_c, 0, 75, 0
2, 167635, Note_on_c, 0, 80, 64
2, 167783, Note_on_c, 0, 80, 0
2, 167802, Note_on_c, 0, 68, 75
2, 167806, Note_on_c, 0, 73, 66
2, 167837, Note_on_c, 0, 68, 0
2, 167898, Note_on_c, 0, 73, 0
2, 167947, Note_on_c, 0, 80, 61
2, 168085, Note_on_c, 0, 80, 0
2, 168119, Note_on_c, 0, 72, 60
2, 168128, Note_on_c, 0, 63, 62
2, 168248, Note_on_c, 0, 80, 64
2, 168295, Note_on_c, 0, 72, 0
2, 168332, Note_on_c, 0, 80, 0
2, 168361, Note_on_c, 0, 63, 0
2, 168418, Note_on_c, 0, 61, 65
2, 168433, Note_on_c, 0, 70, 69
2, 168510, Note_on_c, 0, 70, 0
2, 168533, Note_on_c, 0, 61, 0
2, 168550, Note_on_c, 0, 68, 69
2, 168559, Note_on_c, 0, 60, 63
2, 168677, Note_on_c, 0, 60, 0
2, 168711, Note_on_c, 0, 61, 57
2, 168711, Note_on_c, 0, 70, 71
2, 168733, Note_on_c, 0, 68, 0
2, 168769, Note_on_c, 0, 70, 0
2, 168844, Note_on_c, 0, 61, 0
2, 168848, Note_on_c, 0, 73, 77
2, 168862, Note_on_c, 0, 56, 61
2, 168984, Note_on_c, 0, 73, 0
2, 168992, Note_on_c, 0, 56, 0
2, 168996, Note_on_c, 0, 75, 64
2, 169011, Note_on_c, 0, 60, 63
2, 169113, Note_on_c, 0, 75, 0
2, 169132, Note_on_c, 0, 60, 0
2, 169137, Note_on_c, 0, 77, 70
2, 169155, Note_on_c, 0, 61, 54
2, 169232, Note_on_c, 0, 77, 0
2, 169292, Note_on_c, 0, 78, 71
2, 169308, Note_on_c, 0, 61, 0
2, 169308, Note_on_c, 0, 63, 66
2, 169412, Note_on_c, 0, 78, 0
2, 169429, Note_on_c, 0, 77, 66
2, 169445, Note_on_c, 0, 61, 64
2, 169466, Note_on_c, 0, 63, 0
2, 169554, Note_on_c, 0, 61, 0
2, 169554, Note_on_c, 0, 77, 0
2, 169581, Note_on_c, 0, 75, 68
2, 169591, Note_on_c, 0, 60, 61
2, 169695, Note_on_c, 0, 60, 0
2, 169707, Note_on_c, 0, 61, 67
2, 169730, Note_on_c, 0, 75, 0
2, 169732, Note_on_c, 0, 77, 68
2, 169805, Note_on_c, 0, 61, 0
2, 169860, Note_on_c, 0, 77, 0
2, 169887, Note_on_c, 0, 70, 70
2, 169895, Note_on_c, 0, 73, 70
2, 169929, Note_on_c, 0, 70, 0
2, 170009, Note_on_c, 0, 73, 0
2, 170041, Note_on_c, 0, 75, 62
2, 170135, Note_on_c, 0, 75, 0
2, 170184, Note_on_c, 0, 67, 65
2, 170205, Note_on_c, 0, 72, 68
2, 170221, Note_on_c, 0, 67, 0
2, 170270, Note_on_c, 0, 72, 0
2, 170338, Note_on_c, 0, 75, 56
2, 170495, Note_on_c, 0, 75, 0
2, 170502, Note_on_c, 0, 70, 60
2, 170506, Note_on_c, 0, 61, 58
2, 170646, Note_on_c, 0, 70, 0
2, 170662, Note_on_c, 0, 75, 60
2, 170787, Note_on_c, 0, 75, 0
2, 170796, Note_on_c, 0, 61, 0
2, 170805, Note_on_c, 0, 60, 65
2, 170816, Note_on_c, 0, 68, 67
2, 170891, Note_on_c, 0, 68, 0
2, 170941, Note_on_c, 0, 67, 67
2, 170948, Note_on_c, 0, 60, 0
2, 170959, Note_on_c, 0, 58, 64
2, 171032, Note_on_c, 0, 67, 0
2, 171100, Note_on_c, 0, 60, 66
2, 171100, Note_on_c, 0, 68, 75
2, 171151, Note_on_c, 0, 58, 0
2, 171188, Note_on_c, 0, 68, 0
2, 171219, Note_on_c, 0, 60, 0
2, 171244, Note_on_c, 0, 72, 78
2, 171255, Note_on_c, 0, 56, 66
2, 171374, Note_on_c, 0, 56, 0
2, 171393, Note_on_c, 0, 73, 79
2, 171395, Note_on_c, 0, 72, 0
2, 171402, Note_on_c, 0, 58, 69
2, 171497, Note_on_c, 0, 58, 0
2, 171538, Note_on_c, 0, 60, 70
2, 171538, Note_on_c, 0, 75, 77
2, 171556, Note_on_c, 0, 73, 0
2, 171649, Note_on_c, 0, 75, 0
2, 171687, Note_on_c, 0, 77, 84
2, 171692, Note_on_c, 0, 61, 68
2, 171698, Note_on_c, 0, 60, 0
2, 171824, Note_on_c, 0, 78, 84
2, 171828, Note_on_c, 0, 77, 0
2, 171834, Note_on_c, 0, 63, 74
2, 171847, Note_on_c, 0, 61, 0
2, 171969, Note_on_c, 0, 63, 0
2, 171973, Note_on_c, 0, 80, 83
2, 171987, Note_on_c, 0, 65, 64
2, 172007, Note_on_c, 0, 78, 0
2, 172100, Note_on_c, 0, 65, 0
2, 172118, Note_on_c, 0, 63, 73
2, 172118, Note_on_c, 0, 82, 79
2, 172122, Note_on_c, 0, 80, 0
2, 172248, Note_on_c, 0, 82, 0
2, 172256, Note_on_c, 0, 63, 0
2, 172276, Note_on_c, 0, 72, 83
2, 172280, Note_on_c, 0, 66, 75
2, 172340, Note_on_c, 0, 72, 0
2, 172416, Note_on_c, 0, 65, 72
2, 172435, Note_on_c, 0, 66, 0
2, 172564, Note_on_c, 0, 68, 89
2, 172582, Note_on_c, 0, 63, 78
2, 172604, Note_on_c, 0, 65, 0
2, 172680, Note_on_c, 0, 68, 0
2, 172706, Note_on_c, 0, 63, 0
2, 172715, Note_on_c, 0, 61, 73
2, 172855, Note_on_c, 0, 61, 0
2, 172870, Note_on_c, 0, 66, 79
2, 172878, Note_on_c, 0, 70, 91
2, 172909, Control_c, 0, 64, 38
2, 172951, Note_on_c, 0, 66, 0
2, 173013, Note_on_c, 0, 68, 86
2, 173020, Note_on_c, 0, 70, 0
2, 173152, Note_on_c, 0, 68, 0
2, 173161, Note_on_c, 0, 58, 69
2, 173170, Note_on_c, 0, 66, 85
2, 173305, Note_on_c, 0, 58, 0
2, 173305, Note_on_c, 0, 68, 84
2, 173309, Note_on_c, 0, 66, 0
2, 173314, Note_on_c, 0, 60, 77
2, 173398, Note_on_c, 0, 68, 0
2, 173455, Note_on_c, 0, 77, 93
2, 173461, Note_on_c, 0, 61, 74
2, 173479, Note_on_c, 0, 60, 0
2, 173544, Note_on_c, 0, 77, 0
2, 173584, Note_on_c, 0, 61, 0
2, 173608, Note_on_c, 0, 60, 80
2, 173759, Note_on_c, 0, 73, 90
2, 173768, Note_on_c, 0, 58, 75
2, 173776, Note_on_c, 0, 60, 0
2, 173825, Note_on_c, 0, 73, 0
2, 173913, Note_on_c, 0, 56, 79
2, 173955, Note_on_c, 0, 58, 0
2, 174091, Note_on_c, 0, 68, 89
2, 174100, Note_on_c, 0, 58, 79
2, 174163, Note_on_c, 0, 56, 0
2, 174439, Note_on_c, 0, 66, 77
2, 174444, Note_on_c, 0, 68, 0
2, 174528, Note_on_c, 0, 66, 0
2, 174572, Note_on_c, 0, 65, 69
2, 174597, Control_c, 0, 64, 37
2, 174668, Note_on_c, 0, 65, 0
2, 174721, Note_on_c, 0, 66, 84
2, 174808, Note_on_c, 0, 66, 0
2, 174867, Note_on_c, 0, 56, 75
2, 174881, Note_on_c, 0, 58, 0
2, 175005, Note_on_c, 0, 56, 0
2, 175014, Note_on_c, 0, 54, 74
2, 175014, Note_on_c, 0, 75, 84
2, 175137, Note_on_c, 0, 75, 0
2, 175141, Note_on_c, 0, 54, 0
2, 175165, Note_on_c, 0, 58, 77
2, 175317, Note_on_c, 0, 65, 77
2, 175326, Note_on_c, 0, 56, 72
2, 175341, Note_on_c, 0, 58, 0
2, 175399, Note_on_c, 0, 65, 0
2, 175462, Note_on_c, 0, 54, 75
2, 175482, Note_on_c, 0, 56, 0
2, 175604, Note_on_c, 0, 54, 0
2, 175611, Note_on_c, 0, 53, 72
2, 175615, Note_on_c, 0, 73, 86
2, 175717, Note_on_c, 0, 73, 0
2, 175746, Note_on_c, 0, 53, 0
2, 175755, Note_on_c, 0, 56, 78
2, 175916, Note_on_c, 0, 54, 73
2, 175916, Note_on_c, 0, 63, 76
2, 175925, Note_on_c, 0, 56, 0
2, 176009, Note_on_c, 0, 63, 0
2, 176058, Note_on_c, 0, 53, 73
2, 176074, Note_on_c, 0, 54, 0
2, 176203, Note_on_c, 0, 54, 79
2, 176216, Note_on_c, 0, 72, 83
2, 176224, Note_on_c, 0, 53, 0
2, 176293, Note_on_c, 0, 72, 0
2, 176348, Note_on_c, 0, 51, 82
2, 176369, Note_on_c, 0, 54, 0
2, 176400, Control_c, 0, 64, 38
2, 176515, Note_on_c, 0, 53, 84
2, 176526, Note_on_c, 0, 61, 78
2, 176536, Note_on_c, 0, 51, 0
2, 176585, Note_on_c, 0, 61, 0
2, 176651, Control_c, 0, 64, 37
2, 176859, Note_on_c, 0, 73, 83
2, 176978, Note_on_c, 0, 73, 0
2, 176985, Note_on_c, 0, 53, 0
2, 176996, Note_on_c, 0, 72, 82
2, 177009, Note_on_c, 0, 56, 74
2, 177152, Note_on_c, 0, 58, 72
2, 177153, Note_on_c, 0, 73, 80
2, 177169, Note_on_c, 0, 72, 0
2, 177200, Note_on_c, 0, 56, 0
2, 177264, Note_on_c, 0, 58, 0
2, 177292, Note_on_c, 0, 75, 76
2, 177296, Note_on_c, 0, 60, 72
2, 177327, Note_on_c, 0, 73, 0
2, 177413, Note_on_c, 0, 75, 0
2, 177447, Note_on_c, 0, 61, 74
2, 177447, Note_on_c, 0, 77, 83
2, 177456, Note_on_c, 0, 60, 0
2, 177579, Note_on_c, 0, 78, 88
2, 177583, Note_on_c, 0, 63, 74
2, 177604, Note_on_c, 0, 77, 0
2, 177715, Note_on_c, 0, 78, 0
2, 177719, Note_on_c, 0, 63, 0
2, 177734, Note_on_c, 0, 65, 78
2, 177741, Note_on_c, 0, 80, 91
2, 177873, Note_on_c, 0, 78, 88
2, 177889, Note_on_c, 0, 63, 78
2, 177900, Note_on_c, 0, 80, 0
2, 177905, Note_on_c, 0, 65, 0
2, 177946, Note_on_c, 0, 61, 0
2, 178022, Note_on_c, 0, 77, 92
2, 178034, Note_on_c, 0, 61, 77
2, 178034, Note_on_c, 0, 78, 0
2, 178041, Note_on_c, 0, 63, 0
2, 178159, Note_on_c, 0, 78, 93
2, 178167, Note_on_c, 0, 63, 88
2, 178196, Note_on_c, 0, 77, 0
2, 178229, Note_on_c, 0, 61, 0
2, 178322, Note_on_c, 0, 72, 97
2, 178327, Note_on_c, 0, 80, 85
2, 178331, Note_on_c, 0, 78, 0
2, 178336, Note_on_c, 0, 60, 74
2, 178377, Control_c, 0, 64, 36
2, 178395, Note_on_c, 0, 63, 0
2, 178403, Note_on_c, 0, 72, 0
2, 178465, Note_on_c, 0, 78, 84
2, 178491, Note_on_c, 0, 80, 0
2, 178590, Note_on_c, 0, 78, 0
2, 178623, Note_on_c, 0, 68, 86
2, 178630, Note_on_c, 0, 77, 88
2, 178687, Note_on_c, 0, 68, 0
2, 178768, Note_on_c, 0, 75, 79
2, 178773, Note_on_c, 0, 77, 0
2, 178908, Note_on_c, 0, 75, 0
2, 178944, Note_on_c, 0, 63, 81
2, 178948, Note_on_c, 0, 77, 78
2, 179273, Note_on_c, 0, 61, 72
2, 179308, Note_on_c, 0, 63, 0
2, 179317, Note_on_c, 0, 60, 0
2, 179405, Note_on_c, 0, 61, 0
2, 179410, Note_on_c, 0, 60, 75
2, 179509, Note_on_c, 0, 60, 0
2, 179555, Note_on_c, 0, 61, 78
2, 179564, Note_on_c, 0, 58, 71
2, 179650, Note_on_c, 0, 61, 0
2, 179655, Note_on_c, 0, 77, 0
2, 179714, Note_on_c, 0, 75, 83
2, 179858, Note_on_c, 0, 70, 80
2, 179858, Note_on_c, 0, 73, 88
2, 179858, Note_on_c, 0, 75, 0
2, 179953, Note_on_c, 0, 70, 0
2, 179988, Note_on_c, 0, 73, 0
2, 179999, Note_on_c, 0, 77, 83
2, 180141, Note_on_c, 0, 77, 0
2, 180150, Note_on_c, 0, 60, 78
2, 180154, Note_on_c, 0, 75, 78
2, 180170, Note_on_c, 0, 58, 0
2, 180269, Note_on_c, 0, 60, 0
2, 180290, Note_on_c, 0, 75, 0
2, 180294, Note_on_c, 0, 73, 85
2, 180413, Note_on_c, 0, 73, 0
2, 180442, Note_on_c, 0, 68, 82
2, 180446, Note_on_c, 0, 72, 84
2, 180458, Note_on_c, 0, 56, 68
2, 180491, Control_c, 0, 64, 37
2, 180541, Note_on_c, 0, 68, 0
2, 180541, Note_on_c, 0, 72, 0
2, 180588, Note_on_c, 0, 75, 75
2, 180703, Note_on_c, 0, 56, 0
2, 180740, Note_on_c, 0, 58, 70
2, 180740, Note_on_c, 0, 73, 82
2, 180785, Note_on_c, 0, 75, 0
2, 180879, Note_on_c, 0, 72, 77
2, 180886, Note_on_c, 0, 58, 0
2, 180886, Note_on_c, 0, 73, 0
2, 180983, Note_on_c, 0, 72, 0
2, 181038, Note_on_c, 0, 73, 76
2, 181046, Note_on_c, 0, 67, 67
2, 181060, Note_on_c, 0, 51, 65
2, 181120, Note_on_c, 0, 67, 0
2, 181167, Note_on_c, 0, 73, 0
2, 181180, Note_on_c, 0, 70, 80
2, 181258, Control_c, 0, 64, 38
2, 181294, Note_on_c, 0, 70, 0
2, 181314, Note_on_c, 0, 51, 0
2, 181332, Note_on_c, 0, 72, 91
2, 181334, Note_on_c, 0, 56, 78
2, 181402, Note_on_c, 0, 72, 0
2, 181653, Note_on_c, 0, 75, 81
2, 181664, Note_on_c, 0, 68, 75
2, 181733, Note_on_c, 0, 75, 0
2, 181756, Note_on_c, 0, 56, 0
2, 181800, Note_on_c, 0, 66, 77
2, 181812, Note_on_c, 0, 68, 0
2, 181899, Note_on_c, 0, 66, 0
2, 181948, Note_on_c, 0, 78, 89
2, 181953, Note_on_c, 0, 68, 83
2, 182094, Note_on_c, 0, 70, 69
2, 182117, Note_on_c, 0, 68, 0
2, 182230, Note_on_c, 0, 70, 0
2, 182253, Note_on_c, 0, 72, 78
2, 182258, Note_on_c, 0, 56, 86
2, 182315, Note_on_c, 0, 56, 0
2, 182361, Note_on_c, 0, 72, 0
2, 182378, Note_on_c, 0, 78, 0
2, 182378, Note_on_c, 0, 78, 36
2, 182397, Note_on_c, 0, 68, 76
2, 182501, Note_on_c, 0, 68, 0
2, 182575, Note_on_c, 0, 73, 79
2, 182580, Note_on_c, 0, 58, 82
2, 182693, Note_on_c, 0, 73, 0
2, 182710, Note_on_c, 0, 58, 0
2, 182718, Note_on_c, 0, 56, 83
2, 182718, Note_on_c, 0, 72, 80
2, 182818, Note_on_c, 0, 78, 0
2, 182827, Note_on_c, 0, 56, 0
2, 182850, Note_on_c, 0, 54, 78
2, 182859, Note_on_c, 0, 70, 81
2, 182869, Note_on_c, 0, 72, 0
2, 182978, Note_on_c, 0, 56, 82
2, 182996, Note_on_c, 0, 72, 87
2, 183000, Note_on_c, 0, 70, 0
2, 183028, Note_on_c, 0, 54, 0
2, 183079, Note_on_c, 0, 56, 0
2, 183085, Note_on_c, 0, 72, 0
2, 183131, Note_on_c, 0, 65, 91
2, 183145, Note_on_c, 0, 73, 80
2, 183145, Note_on_c, 0, 77, 86
2, 183218, Note_on_c, 0, 65, 0
2, 183218, Note_on_c, 0, 73, 0
2, 183278, Note_on_c, 0, 72, 69
2, 183369, Note_on_c, 0, 72, 0
2, 183434, Note_on_c, 0, 61, 83
2, 183452, Note_on_c, 0, 70, 75
2, 183503, Note_on_c, 0, 61, 0
2, 183546, Control_c, 0, 64, 39
2, 183570, Note_on_c, 0, 70, 0
2, 183581, Note_on_c, 0, 68, 76
2, 183748, Note_on_c, 0, 70, 74
2, 183752, Note_on_c, 0, 56, 83
2, 183752, Note_on_c, 0, 68, 0
2, 183840, Note_on_c, 0, 77, 0
2, 183893, Control_c, 0, 64, 40
2, 184066, Note_on_c, 0, 56, 0
2, 184075, Note_on_c, 0, 54, 78
2, 184181, Note_on_c, 0, 54, 0
2, 184208, Note_on_c, 0, 53, 76
2, 184324, Note_on_c, 0, 53, 0
2, 184367, Note_on_c, 0, 70, 0
2, 184369, Note_on_c, 0, 54, 77
2, 184369, Note_on_c, 0, 75, 79
2, 184450, Control_c, 0, 64, 39
2, 184459, Note_on_c, 0, 54, 0
2, 184496, Note_on_c, 0, 68, 76
2, 184636, Note_on_c, 0, 68, 0
2, 184655, Note_on_c, 0, 66, 78
2, 184664, Note_on_c, 0, 63, 76
2, 184752, Note_on_c, 0, 63, 0
2, 184794, Note_on_c, 0, 70, 76
2, 184841, Note_on_c, 0, 66, 0
2, 184957, Note_on_c, 0, 68, 80
2, 184964, Note_on_c, 0, 53, 72
2, 185018, Note_on_c, 0, 75, 0
2, 185061, Note_on_c, 0, 53, 0
2, 185093, Note_on_c, 0, 70, 0
2, 185097, Note_on_c, 0, 66, 76
2, 185169, Note_on_c, 0, 68, 0
2, 185235, Control_c, 0, 64, 40
2, 185264, Note_on_c, 0, 73, 85
2, 185282, Note_on_c, 0, 65, 70
2, 185286, Note_on_c, 0, 61, 57
2, 185286, Note_on_c, 0, 66, 0
2, 185368, Note_on_c, 0, 61, 0
2, 185388, Control_c, 0, 64, 41
2, 185414, Note_on_c, 0, 68, 80
2, 185434, Note_on_c, 0, 73, 0
2, 185447, Control_c, 0, 64, 42
2, 185460, Note_on_c, 0, 65, 0
2, 185504, Control_c, 0, 64, 43
2, 185561, Note_on_c, 0, 72, 87
2, 185584, Note_on_c, 0, 51, 68
2, 185584, Note_on_c, 0, 66, 65
2, 185601, Control_c, 0, 64, 44
2, 185607, Note_on_c, 0, 68, 0
2, 185692, Note_on_c, 0, 66, 0
2, 185697, Control_c, 0, 64, 45
2, 185703, Note_on_c, 0, 65, 72
2, 185708, Note_on_c, 0, 51, 0
2, 185808, Note_on_c, 0, 65, 0
2, 185869, Control_c, 0, 64, 44
2, 185878, Note_on_c, 0, 66, 70
2, 185878, Note_on_c, 0, 72, 0
2, 185878, Note_on_c, 0, 75, 80
2, 185887, Note_on_c, 0, 60, 65
2, 185942, Note_on_c, 0, 60, 0
2, 185966, Note_on_c, 0, 66, 0
2, 186023, Note_on_c, 0, 63, 74
2, 186092, Note_on_c, 0, 63, 0
2, 186210, Note_on_c, 0, 49, 51
2, 186217, Control_c, 0, 64, 43
2, 186229, Note_on_c, 0, 64, 44
2, 186229, Note_on_c, 0, 65, 49
2, 186251, Control_c, 0, 64, 42
2, 186270, Note_on_c, 0, 64, 0
2, 186334, Note_on_c, 0, 49, 0
2, 186381, Note_on_c, 0, 44, 50
2, 186494, Note_on_c, 0, 75, 0
2, 186520, Note_on_c, 0, 68, 63
2, 186529, Note_on_c, 0, 49, 47
2, 186545, Note_on_c, 0, 44, 0
2, 186573, Note_on_c, 0, 68, 0
2, 186617, Control_c, 0, 64, 41
2, 186648, Note_on_c, 0, 49, 0
2, 186684, Note_on_c, 0, 51, 55
2, 186761, Note_on_c, 0, 51, 0
2, 186825, Note_on_c, 0, 73, 64
2, 186829, Note_on_c, 0, 53, 49
2, 186877, Note_on_c, 0, 73, 0
2, 186956, Note_on_c, 0, 53, 0
2, 186976, Note_on_c, 0, 54, 47
2, 187039, Control_c, 0, 64, 42
2, 187109, Note_on_c, 0, 54, 0
2, 187113, Note_on_c, 0, 71, 64
2, 187131, Note_on_c, 0, 56, 52
2, 187168, Note_on_c, 0, 71, 0
2, 187268, Note_on_c, 0, 56, 0
2, 187282, Note_on_c, 0, 53, 54
2, 187391, Note_on_c, 0, 53, 0
2, 187417, Note_on_c, 0, 70, 67
2, 187426, Note_on_c, 0, 65, 0
2, 187432, Note_on_c, 0, 54, 52
2, 187537, Note_on_c, 0, 54, 0
2, 187559, Control_c, 0, 64, 43
2, 187598, Note_on_c, 0, 42, 56
2, 187699, Note_on_c, 0, 42, 0
2, 187720, Note_on_c, 0, 61, 51
2, 187760, Note_on_c, 0, 54, 49
2, 187783, Note_on_c, 0, 61, 0
2, 187894, Note_on_c, 0, 53, 56
2, 187901, Note_on_c, 0, 54, 0
2, 188034, Note_on_c, 0, 53, 0
2, 188041, Note_on_c, 0, 66, 59
2, 188067, Note_on_c, 0, 54, 56
2, 188092, Note_on_c, 0, 66, 0
2, 188173, Note_on_c, 0, 54, 0
2, 188197, Note_on_c, 0, 56, 58
2, 188231, Control_c, 0, 64, 44
2, 188300, Note_on_c, 0, 56, 0
2, 188339, Note_on_c, 0, 65, 55
2, 188359, Note_on_c, 0, 58, 48
2, 188399, Note_on_c, 0, 65, 0
2, 188468, Note_on_c, 0, 58, 0
2, 188511, Note_on_c, 0, 54, 51
2, 188622, Note_on_c, 0, 54, 0
2, 188646, Note_on_c, 0, 66, 60
2, 188670, Note_on_c, 0, 51, 51
2, 188693, Control_c, 0, 64, 45
2, 188710, Note_on_c, 0, 70, 0
2, 188788, Note_on_c, 0, 51, 0
2, 188809, Note_on_c, 0, 53, 58
2, 188911, Note_on_c, 0, 53, 0
2, 188955, Note_on_c, 0, 54, 56
2, 188960, Note_on_c, 0, 66, 0
2, 188964, Note_on_c, 0, 70, 73
2, 189076, Note_on_c, 0, 54, 0
2, 189094, Note_on_c, 0, 51, 62
2, 189101, Note_on_c, 0, 66, 67
2, 189138, Note_on_c, 0, 70, 0
2, 189208, Note_on_c, 0, 51, 0
2, 189227, Note_on_c, 0, 66, 0
2, 189249, Note_on_c, 0, 63, 64
2, 189255, Note_on_c, 0, 48, 53
2, 189341, Note_on_c, 0, 48, 0
2, 189388, Note_on_c, 0, 49, 52
2, 189480, Control_c, 0, 64, 44
2, 189495, Note_on_c, 0, 49, 0
2, 189532, Note_on_c, 0, 63, 0
2, 189537, Note_on_c, 0, 51, 55
2, 189565, Note_on_c, 0, 66, 55
2, 189629, Note_on_c, 0, 51, 0
2, 189673, Note_on_c, 0, 48, 52
2, 189699, Note_on_c, 0, 63, 55
2, 189816, Note_on_c, 0, 63, 0
2, 189830, Note_on_c, 0, 48, 0
2, 189860, Note_on_c, 0, 56, 56
2, 189864, Note_on_c, 0, 41, 53
2, 189920, Note_on_c, 0, 41, 0
2, 190155, Note_on_c, 0, 66, 0
2, 190184, Note_on_c, 0, 56, 0
2, 190188, Note_on_c, 0, 63, 59
2, 190193, Note_on_c, 0, 53, 48
2, 190238, Note_on_c, 0, 63, 0
2, 190272, Note_on_c, 0, 53, 0
2, 190315, Note_on_c, 0, 51, 57
2, 190452, Note_on_c, 0, 51, 0
2, 190477, Note_on_c, 0, 53, 47
2, 190485, Note_on_c, 0, 68, 71
2, 190594, Note_on_c, 0, 53, 0
2, 190640, Note_on_c, 0, 54, 52
2, 190746, Note_on_c, 0, 54, 0
2, 190790, Note_on_c, 0, 60, 50
2, 190795, Note_on_c, 0, 56, 48
2, 190842, Note_on_c, 0, 60, 0
2, 190890, Note_on_c, 0, 56, 0
2, 190946, Note_on_c, 0, 53, 50
2, 191052, Control_c, 0, 64, 45
2, 191077, Note_on_c, 0, 53, 0
2, 191110, Note_on_c, 0, 65, 64
2, 191121, Note_on_c, 0, 50, 50
2, 191152, Note_on_c, 0, 68, 0
2, 191261, Note_on_c, 0, 50, 0
2, 191268, Note_on_c, 0, 51, 63
2, 191373, Note_on_c, 0, 51, 0
2, 191419, Note_on_c, 0, 53, 55
2, 191419, Note_on_c, 0, 68, 78
2, 191432, Note_on_c, 0, 65, 0
2, 191538, Note_on_c, 0, 53, 0
2, 191556, Note_on_c, 0, 50, 57
2, 191565, Note_on_c, 0, 65, 70
2, 191665, Note_on_c, 0, 50, 0
2, 191708, Note_on_c, 0, 68, 0
2, 191715, Note_on_c, 0, 46, 60
2, 191715, Note_on_c, 0, 62, 70
2, 191722, Note_on_c, 0, 65, 0
2, 191829, Note_on_c, 0, 46, 0
2, 191857, Note_on_c, 0, 48, 54
2, 191931, Note_on_c, 0, 48, 0
2, 191994, Note_on_c, 0, 50, 55
2, 191994, Note_on_c, 0, 62, 0
2, 192019, Note_on_c, 0, 65, 57
2, 192109, Note_on_c, 0, 50, 0
2, 192146, Note_on_c, 0, 46, 55
2, 192146, Note_on_c, 0, 62, 67
2, 192245, Note_on_c, 0, 46, 0
2, 192255, Note_on_c, 0, 62, 0
2, 192303, Note_on_c, 0, 39, 58
2, 192312, Note_on_c, 0, 54, 64
2, 192355, Note_on_c, 0, 39, 0
2, 192568, Control_c, 0, 64, 44
2, 192593, Note_on_c, 0, 65, 0
2, 192601, Note_on_c, 0, 54, 0
2, 192647, Note_on_c, 0, 58, 60
2, 192653, Note_on_c, 0, 51, 51
2, 192697, Note_on_c, 0, 58, 0
2, 192717, Note_on_c, 0, 51, 0
2, 192770, Note_on_c, 0, 49, 57
2, 192901, Note_on_c, 0, 49, 0
2, 192928, Note_on_c, 0, 66, 70
2, 192937, Note_on_c, 0, 51, 55
2, 193055, Note_on_c, 0, 51, 0
2, 193079, Note_on_c, 0, 53, 52
2, 193177, Note_on_c, 0, 53, 0
2, 193222, Control_c, 0, 64, 45
2, 193231, Note_on_c, 0, 54, 49
2, 193231, Note_on_c, 0, 58, 62
2, 193283, Note_on_c, 0, 58, 0
2, 193352, Note_on_c, 0, 54, 0
2, 193369, Note_on_c, 0, 51, 68
2, 193521, Note_on_c, 0, 51, 0
2, 193534, Note_on_c, 0, 66, 0
2, 193539, Note_on_c, 0, 63, 77
2, 193545, Note_on_c, 0, 48, 62
2, 193674, Note_on_c, 0, 65, 73
2, 193681, Note_on_c, 0, 49, 65
2, 193699, Note_on_c, 0, 48, 0
2, 193706, Note_on_c, 0, 63, 0
2, 193782, Note_on_c, 0, 49, 0
2, 193811, Note_on_c, 0, 51, 74
2, 193817, Note_on_c, 0, 66, 81
2, 193839, Control_c, 0, 64, 46
2, 193863, Note_on_c, 0, 65, 0
2, 193923, Note_on_c, 0, 51, 0
2, 193947, Note_on_c, 0, 63, 80
2, 193947, Note_on_c, 0, 66, 0
2, 193951, Note_on_c, 0, 48, 64
2, 194099, Note_on_c, 0, 48, 0
2, 194103, Note_on_c, 0, 44, 73
2, 194105, Note_on_c, 0, 75, 86
2, 194149, Note_on_c, 0, 63, 0
2, 194220, Control_c, 0, 64, 45
2, 194250, Note_on_c, 0, 66, 76
2, 194255, Note_on_c, 0, 46, 69
2, 194284, Note_on_c, 0, 44, 0
2, 194345, Note_on_c, 0, 46, 0
2, 194387, Note_on_c, 0, 48, 70
2, 194408, Note_on_c, 0, 68, 76
2, 194417, Note_on_c, 0, 66, 0
2, 194488, Note_on_c, 0, 68, 0
2, 194519, Note_on_c, 0, 48, 0
2, 194530, Note_on_c, 0, 44, 73
2, 194530, Note_on_c, 0, 63, 77
2, 194614, Note_on_c, 0, 63, 0
2, 194622, Control_c, 0, 64, 46
2, 194664, Note_on_c, 0, 44, 0
2, 194692, Note_on_c, 0, 37, 77
2, 194702, Note_on_c, 0, 65, 76
2, 194740, Note_on_c, 0, 37, 0
2, 194768, Note_on_c, 0, 75, 0
2, 194814, Control_c, 0, 64, 45
2, 194845, Note_on_c, 0, 73, 77
2, 194994, Note_on_c, 0, 49, 77
2, 194999, Note_on_c, 0, 72, 77
2, 195036, Note_on_c, 0, 73, 0
2, 195130, Note_on_c, 0, 51, 79
2, 195130, Note_on_c, 0, 72, 0
2, 195130, Note_on_c, 0, 75, 83
2, 195162, Note_on_c, 0, 49, 0
2, 195203, Note_on_c, 0, 65, 0
2, 195249, Note_on_c, 0, 51, 0
2, 195276, Note_on_c, 0, 73, 85
2, 195280, Note_on_c, 0, 53, 86
2, 195339, Note_on_c, 0, 53, 0
2, 195378, Note_on_c, 0, 75, 0
2, 195413, Note_on_c, 0, 68, 84
2, 195419, Note_on_c, 0, 73, 0
2, 195587, Note_on_c, 0, 49, 72
2, 195587, Note_on_c, 0, 61, 81
2, 195587, Note_on_c, 0, 70, 85
2, 195615, Note_on_c, 0, 68, 0
2, 195643, Note_on_c, 0, 49, 0
2, 195715, Note_on_c, 0, 70, 0
2, 195728, Note_on_c, 0, 71, 78
2, 195823, Note_on_c, 0, 71, 0
2, 195877, Note_on_c, 0, 54, 74
2, 195877, Note_on_c, 0, 70, 79
2, 195887, Note_on_c, 0, 61, 0
2, 196002, Note_on_c, 0, 70, 0
2, 196018, Note_on_c, 0, 68, 84
2, 196027, Note_on_c, 0, 60, 72
2, 196138, Note_on_c, 0, 68, 0
2, 196158, Note_on_c, 0, 66, 83
2, 196165, Note_on_c, 0, 58, 71
2, 196176, Note_on_c, 0, 60, 0
2, 196238, Note_on_c, 0, 54, 0
2, 196242, Note_on_c, 0, 66, 0
2, 196289, Note_on_c, 0, 68, 88
2, 196296, Note_on_c, 0, 58, 0
2, 196311, Note_on_c, 0, 60, 79
2, 196376, Note_on_c, 0, 68, 0
2, 196435, Note_on_c, 0, 77, 91
2, 196452, Note_on_c, 0, 53, 75
2, 196452, Note_on_c, 0, 61, 81
2, 196461, Note_on_c, 0, 60, 0
2, 196523, Note_on_c, 0, 77, 0
2, 196571, Note_on_c, 0, 61, 0
2, 196595, Note_on_c, 0, 60, 81
2, 196739, Note_on_c, 0, 60, 0
2, 196744, Note_on_c, 0, 58, 76
2, 196744, Note_on_c, 0, 73, 91
2, 196783, Note_on_c, 0, 53, 0
2, 196816, Note_on_c, 0, 73, 0
2, 196886, Note_on_c, 0, 56, 81
2, 196909, Note_on_c, 0, 58, 0
2, 196956, Note_on_c, 0, 56, 0
2, 197059, Note_on_c, 0, 68, 89
2, 197065, Note_on_c, 0, 58, 74
2, 197078, Note_on_c, 0, 51, 74
2, 197336, Note_on_c, 0, 68, 0
2, 197383, Note_on_c, 0, 51, 0
2, 197394, Note_on_c, 0, 66, 79
2, 197397, Note_on_c, 0, 49, 64
2, 197472, Note_on_c, 0, 66, 0
2, 197517, Note_on_c, 0, 65, 76
2, 197611, Note_on_c, 0, 65, 0
2, 197642, Note_on_c, 0, 49, 0
2, 197666, Note_on_c, 0, 48, 66
2, 197670, Note_on_c, 0, 66, 86
2, 197744, Note_on_c, 0, 58, 0
2, 197744, Note_on_c, 0, 66, 0
2, 197818, Note_on_c, 0, 56, 75
2, 197878, Note_on_c, 0, 48, 0
2, 197961, Note_on_c, 0, 75, 85
2, 197966, Note_on_c, 0, 54, 73
2, 197988, Note_on_c, 0, 56, 0
2, 198020, Control_c, 0, 64, 44
2, 198056, Note_on_c, 0, 75, 0
2, 198086, Note_on_c, 0, 54, 0
2, 198106, Note_on_c, 0, 58, 71
2, 198273, Note_on_c, 0, 65, 85
2, 198277, Note_on_c, 0, 58, 0
2, 198282, Note_on_c, 0, 49, 66
2, 198282, Note_on_c, 0, 56, 74
2, 198354, Note_on_c, 0, 65, 0
2, 198431, Note_on_c, 0, 54, 76
2, 198431, Note_on_c, 0, 56, 0
2, 198569, Note_on_c, 0, 54, 0
2, 198573, Note_on_c, 0, 53, 72
2, 198582, Note_on_c, 0, 73, 87
2, 198621, Note_on_c, 0, 49, 0
2, 198621, Note_on_c, 0, 49, 3
2, 198666, Note_on_c, 0, 49, 0
2, 198692, Note_on_c, 0, 73, 0
2, 198703, Note_on_c, 0, 53, 0
2, 198725, Note_on_c, 0, 56, 73
2, 198843, Note_on_c, 0, 56, 0
2, 198847, Control_c, 0, 64, 45
2, 198884, Note_on_c, 0, 63, 85
2, 198886, Note_on_c, 0, 54, 73
2, 198923, Note_on_c, 0, 44, 67
2, 198991, Note_on_c, 0, 63, 0
2, 199024, Note_on_c, 0, 53, 77
2, 199024, Note_on_c, 0, 54, 0
2, 199155, Note_on_c, 0, 53, 0
2, 199178, Note_on_c, 0, 51, 78
2, 199196, Note_on_c, 0, 72, 89
2, 199230, Note_on_c, 0, 44, 0
2, 199249, Control_c, 0, 64, 46
2, 199256, Note_on_c, 0, 72, 0
2, 199323, Note_on_c, 0, 54, 77
2, 199329, Note_on_c, 0, 51, 0
2, 199454, Note_on_c, 0, 54, 0
2, 199478, Control_c, 0, 64, 45
2, 199483, Note_on_c, 0, 46, 71
2, 199497, Note_on_c, 0, 53, 73
2, 199501, Note_on_c, 0, 61, 79
2, 199592, Note_on_c, 0, 46, 0
2, 199615, Note_on_c, 0, 61, 0
2, 199646, Note_on_c, 0, 65, 78
2, 199657, Note_on_c, 0, 56, 72
2, 199662, Note_on_c, 0, 53, 0
2, 199798, Note_on_c, 0, 66, 77
2, 199802, Note_on_c, 0, 58, 73
2, 199802, Note_on_c, 0, 65, 0
2, 199832, Note_on_c, 0, 56, 0
2, 199934, Note_on_c, 0, 58, 0
2, 199938, Note_on_c, 0, 66, 0
2, 199940, Note_on_c, 0, 68, 78
2, 199956, Note_on_c, 0, 60, 64
2, 200089, Note_on_c, 0, 70, 76
2, 200105, Note_on_c, 0, 61, 71
2, 200109, Note_on_c, 0, 60, 0
2, 200109, Note_on_c, 0, 68, 0
2, 200149, Control_c, 0, 64, 46
2, 200190, Note_on_c, 0, 70, 0
2, 200220, Note_on_c, 0, 72, 82
2, 200234, Note_on_c, 0, 61, 0
2, 200247, Note_on_c, 0, 60, 72
2, 200306, Control_c, 0, 64, 47
2, 200371, Note_on_c, 0, 73, 89
2, 200376, Note_on_c, 0, 58, 72
2, 200395, Note_on_c, 0, 60, 0
2, 200400, Note_on_c, 0, 72, 0
2, 200438, Control_c, 0, 64, 48
2, 200496, Control_c, 0, 64, 49
2, 200522, Note_on_c, 0, 75, 83
2, 200526, Note_on_c, 0, 56, 76
2, 200556, Note_on_c, 0, 73, 0
2, 200561, Note_on_c, 0, 58, 0
2, 200626, Note_on_c, 0, 75, 0
2, 200646, Note_on_c, 0, 56, 0
2, 200677, Note_on_c, 0, 55, 80
2, 200685, Note_on_c, 0, 76, 94
2, 200827, Note_on_c, 0, 56, 78
2, 200831, Note_on_c, 0, 75, 86
2, 200864, Note_on_c, 0, 55, 0
2, 200864, Note_on_c, 0, 76, 0
2, 200956, Control_c, 0, 64, 50
2, 200959, Note_on_c, 0, 75, 0
2, 200978, Note_on_c, 0, 58, 78
2, 200982, Note_on_c, 0, 73, 92
2, 201003, Note_on_c, 0, 56, 0
2, 201034, Control_c, 0, 64, 51
2, 201117, Note_on_c, 0, 75, 81
2, 201121, Note_on_c, 0, 55, 78
2, 201126, Note_on_c, 0, 58, 0
2, 201174, Note_on_c, 0, 73, 0
2, 201179, Note_on_c, 0, 55, 0
2, 201233, Note_on_c, 0, 75, 0
2, 201273, Note_on_c, 0, 51, 84
2, 201276, Note_on_c, 0, 76, 93
2, 201361, Control_c, 0, 64, 52
2, 201422, Control_c, 0, 64, 53
2, 201422, Note_on_c, 0, 49, 68
2, 201422, Note_on_c, 0, 79, 88
2, 201437, Control_c, 0, 64, 54
2, 201443, Note_on_c, 0, 76, 0
2, 201455, Control_c, 0, 64, 55
2, 201473, Control_c, 0, 64, 56
2, 201493, Control_c, 0, 64, 58
2, 201514, Control_c, 0, 64, 63
2, 201521, Note_on_c, 0, 79, 0
2, 201531, Control_c, 0, 64, 67
2, 201551, Control_c, 0, 64, 72
2, 201565, Note_on_c, 0, 48, 75
2, 201565, Note_on_c, 0, 80, 87
2, 201572, Control_c, 0, 64, 85
2, 201592, Control_c, 0, 64, 127
2, 201652, Note_on_c, 0, 80, 0
2, 201696, Note_on_c, 0, 49, 0
2, 201705, Note_on_c, 0, 82, 86
2, 201714, Note_on_c, 0, 46, 79
2, 201734, Note_on_c, 0, 48, 0
2, 201756, Note_on_c, 0, 51, 0
2, 201767, Note_on_c, 0, 82, 0
2, 201834, Note_on_c, 0, 46, 0
2, 201880, Note_on_c, 0, 44, 83
2, 201891, Note_on_c, 0, 73, 95
2, 201993, Control_c, 0, 64, 115
2, 202013, Control_c, 0, 64, 81
2, 202032, Control_c, 0, 64, 64
2, 202036, Note_on_c, 0, 72, 85
2, 202040, Note_on_c, 0, 51, 78
2, 202052, Control_c, 0, 64, 51
2, 202070, Control_c, 0, 64, 39
2, 202083, Note_on_c, 0, 73, 0
2, 202092, Control_c, 0, 64, 36
2, 202129, Note_on_c, 0, 44, 0
2, 202147, Control_c, 0, 64, 37
2, 202170, Note_on_c, 0, 51, 0
2, 202176, Note_on_c, 0, 70, 87
2, 202183, Note_on_c, 0, 53, 76
2, 202183, Note_on_c, 0, 72, 0
2, 202187, Control_c, 0, 64, 38
2, 202300, Control_c, 0, 64, 39
2, 202316, Note_on_c, 0, 54, 76
2, 202316, Note_on_c, 0, 68, 91
2, 202329, Note_on_c, 0, 70, 0
2, 202341, Note_on_c, 0, 53, 0
2, 202359, Control_c, 0, 64, 40
2, 202425, Note_on_c, 0, 68, 0
2, 202464, Note_on_c, 0, 75, 89
2, 202471, Note_on_c, 0, 56, 83
2, 202475, Control_c, 0, 64, 41
2, 202493, Note_on_c, 0, 68, 28
2, 202531, Note_on_c, 0, 54, 0
2, 202531, Note_on_c, 0, 68, 0
2, 202535, Note_on_c, 0, 75, 0
2, 202620, Note_on_c, 0, 58, 82
2, 202686, Note_on_c, 0, 56, 0
2, 202703, Control_c, 0, 64, 42
2, 202782, Note_on_c, 0, 66, 92
2, 202786, Note_on_c, 0, 60, 80
2, 202800, Note_on_c, 0, 58, 0
2, 202856, Note_on_c, 0, 66, 0
2, 202924, Note_on_c, 0, 56, 87
2, 202957, Note_on_c, 0, 60, 0
2, 203012, Control_c, 0, 64, 43
2, 203065, Note_on_c, 0, 56, 0
2, 203069, Control_c, 0, 64, 44
2, 203089, Control_c, 0, 64, 46
2, 203106, Control_c, 0, 64, 55
2, 203111, Note_on_c, 0, 65, 89
2, 203115, Note_on_c, 0, 61, 89
2, 203126, Control_c, 0, 64, 65
2, 203144, Control_c, 0, 64, 75
2, 203166, Control_c, 0, 64, 110
2, 203183, Control_c, 0, 64, 127
2, 203414, Note_on_c, 0, 65, 0
2, 203427, Note_on_c, 0, 61, 0
2, 203530, Note_on_c, 0, 41, 88
2, 203541, Note_on_c, 0, 61, 95
2, 203541, Note_on_c, 0, 73, 100
2, 203571, Control_c, 0, 64, 106
2, 203576, Note_on_c, 0, 68, 52
2, 203591, Control_c, 0, 64, 72
2, 203608, Control_c, 0, 64, 56
2, 203628, Control_c, 0, 64, 34
2, 203648, Control_c, 0, 64, 20
2, 203666, Control_c, 0, 64, 27
2, 203688, Control_c, 0, 64, 36
2, 203707, Control_c, 0, 64, 49
2, 203723, Control_c, 0, 64, 60
2, 203743, Control_c, 0, 64, 65
2, 203762, Control_c, 0, 64, 69
2, 203782, Control_c, 0, 64, 80
2, 203791, Note_on_c, 0, 73, 0
2, 203802, Control_c, 0, 64, 92
2, 203821, Control_c, 0, 64, 100
2, 203840, Control_c, 0, 64, 105
2, 203858, Control_c, 0, 64, 115
2, 203866, Note_on_c, 0, 61, 0
2, 203878, Control_c, 0, 64, 127
2, 203900, Note_on_c, 0, 68, 0
2, 204047, Note_on_c, 0, 41, 0
2, 204055, Control_c, 0, 64, 95
2, 204055, Note_on_c, 0, 42, 81
2, 204060, Note_on_c, 0, 63, 89
2, 204060, Note_on_c, 0, 70, 95
2, 204068, Control_c, 0, 64, 71
2, 204080, Note_on_c, 0, 66, 61
2, 204089, Control_c, 0, 64, 58
2, 204110, Control_c, 0, 64, 38
2, 204127, Control_c, 0, 64, 23
2, 204147, Control_c, 0, 64, 27
2, 204165, Control_c, 0, 64, 32
2, 204184, Control_c, 0, 64, 40
2, 204204, Control_c, 0, 64, 56
2, 204222, Control_c, 0, 64, 64
2, 204246, Control_c, 0, 64, 67
2, 204262, Control_c, 0, 64, 71
2, 204279, Control_c, 0, 64, 80
2, 204284, Note_on_c, 0, 66, 0
2, 204301, Control_c, 0, 64, 99
2, 204320, Control_c, 0, 64, 127
2, 204390, Note_on_c, 0, 70, 0
2, 204458, Note_on_c, 0, 63, 0
2, 204707, Note_on_c, 0, 42, 0
2, 204733, Note_on_c, 0, 72, 96
2, 204738, Note_on_c, 0, 44, 87
2, 204738, Note_on_c, 0, 66, 88
2, 204764, Note_on_c, 0, 68, 68
2, 204837, Control_c, 0, 64, 82
2, 204846, Note_on_c, 0, 70, 14
2, 204859, Control_c, 0, 64, 64
2, 204875, Control_c, 0, 64, 48
2, 204895, Control_c, 0, 64, 28
2, 204916, Control_c, 0, 64, 25
2, 204933, Control_c, 0, 64, 27
2, 204953, Note_on_c, 0, 70, 0
2, 204957, Control_c, 0, 64, 30
2, 204974, Control_c, 0, 64, 33
2, 204992, Control_c, 0, 64, 36
2, 205010, Control_c, 0, 64, 38
2, 205032, Control_c, 0, 64, 45
2, 205047, Control_c, 0, 64, 53
2, 205068, Control_c, 0, 64, 59
2, 205088, Control_c, 0, 64, 61
2, 205106, Control_c, 0, 64, 62
2, 205127, Control_c, 0, 64, 64
2, 205148, Control_c, 0, 64, 66
2, 205165, Control_c, 0, 64, 69
2, 205185, Control_c, 0, 64, 74
2, 205204, Control_c, 0, 64, 81
2, 205222, Control_c, 0, 64, 90
2, 205228, Note_on_c, 0, 72, 0
2, 205241, Control_c, 0, 64, 99
2, 205261, Control_c, 0, 64, 115
2, 205279, Control_c, 0, 64, 127
2, 205336, Note_on_c, 0, 66, 0
2, 205371, Note_on_c, 0, 68, 0
2, 205767, Note_on_c, 0, 37, 85
2, 205809, Note_on_c, 0, 44, 0
2, 205878, Note_on_c, 0, 61, 73
2, 205946, Note_on_c, 0, 65, 73
2, 206016, Note_on_c, 0, 68, 80
2, 206081, Note_on_c, 0, 73, 95
2, 206125, Control_c, 0, 64, 97
2, 206141, Note_on_c, 0, 70, 38
2, 206145, Control_c, 0, 64, 69
2, 206164, Control_c, 0, 64, 53
2, 206182, Note_on_c, 0, 70, 0
2, 206187, Control_c, 0, 64, 27
2, 206200, Control_c, 0, 64, 9
2, 206220, Control_c, 0, 64, 13
2, 206239, Control_c, 0, 64, 19
2, 206258, Control_c, 0, 64, 24
2, 206276, Control_c, 0, 64, 26
2, 206316, Control_c, 0, 64, 27
2, 206354, Control_c, 0, 64, 30
2, 206374, Control_c, 0, 64, 35
2, 206393, Control_c, 0, 64, 40
2, 206412, Control_c, 0, 64, 46
2, 206434, Control_c, 0, 64, 50
2, 206452, Control_c, 0, 64, 52
2, 206470, Control_c, 0, 64, 53
2, 206489, Control_c, 0, 64, 54
2, 206508, Control_c, 0, 64, 55
2, 206528, Control_c, 0, 64, 56
2, 206545, Control_c, 0, 64, 57
2, 206912, Control_c, 0, 64, 58
2, 206950, Control_c, 0, 64, 59
2, 207313, Control_c, 0, 64, 60
2, 207368, Control_c, 0, 64, 61
2, 207426, Control_c, 0, 64, 62
2, 207506, Control_c, 0, 64, 63
2, 207600, Control_c, 0, 64, 64
2, 207657, Control_c, 0, 64, 65
2, 207772, Control_c, 0, 64, 66
2, 207811, Control_c, 0, 64, 67
2, 207849, Control_c, 0, 64, 68
2, 207870, Control_c, 0, 64, 69
2, 207888, Control_c, 0, 64, 70
2, 207910, Control_c, 0, 64, 72
2, 207926, Control_c, 0, 64, 75
2, 207946, Control_c, 0, 64, 77
2, 207965, Control_c, 0, 64, 78
2, 207985, Control_c, 0, 64, 79
2, 208003, Control_c, 0, 64, 80
2, 208020, Control_c, 0, 64, 81
2, 208040, Control_c, 0, 64, 82
2, 208063, Control_c, 0, 64, 83
2, 208097, Control_c, 0, 64, 84
2, 208137, Control_c, 0, 64, 86
2, 208156, Control_c, 0, 64, 88
2, 208176, Control_c, 0, 64, 90
2, 208195, Control_c, 0, 64, 92
2, 208213, Control_c, 0, 64, 93
2, 208233, Control_c, 0, 64, 94
2, 208253, Control_c, 0, 64, 95
2, 208482, Control_c, 0, 64, 96
2, 208578, Control_c, 0, 64, 97
2, 208618, Control_c, 0, 64, 98
2, 208637, Control_c, 0, 64, 99
2, 208695, Control_c, 0, 64, 100
2, 208770, Control_c, 0, 64, 101
2, 208817, Note_on_c, 0, 73, 0
2, 208897, Note_on_c, 0, 37, 0
2, 208938, Note_on_c, 0, 61, 0
2, 209010, Note_on_c, 0, 68, 0
2, 209021, Note_on_c, 0, 65, 0
2, 209026, Control_c, 0, 64, 100
2, 209042, Control_c, 0, 64, 99
2, 209059, Control_c, 0, 64, 97
2, 209077, Control_c, 0, 64, 95
2, 209098, Control_c, 0, 64, 93
2, 209117, Control_c, 0, 64, 88
2, 209139, Control_c, 0, 64, 78
2, 209155, Control_c, 0, 64, 66
2, 209173, Control_c, 0, 64, 60
2, 209195, Control_c, 0, 64, 56
2, 209213, Control_c, 0, 64, 53
2, 209230, Control_c, 0, 64, 48
2, 209251, Control_c, 0, 64, 38
2, 209270, Control_c, 0, 64, 27
2, 209288, Control_c, 0, 64, 13
2, 209307, Control_c, 0, 64, 0
2, 209308, End_track
0, 0, End_of_file
