0, 0, Header, 1, 2, 480
1, 0, Start_track
1, 0, Tempo, 500000
1, 0, Time_signature, 4, 2, 24, 8
1, 1, End_track
2, 0, Start_track
2, 0, Program_c, 0, 0
2, 0, Control_c, 0, 64, 53
2, 94, Control_c, 0, 64, 52
2, 347, Control_c, 0, 64, 53
2, 966, Note_on_c, 0, 77, 72
2, 967, Control_c, 0, 64, 52
2, 984, Note_on_c, 0, 49, 47
2, 1057, Note_on_c, 0, 73, 71
2, 1057, Note_on_c, 0, 77, 0
2, 1136, Note_on_c, 0, 73, 0
2, 1167, Note_on_c, 0, 68, 69
2, 1263, Note_on_c, 0, 68, 0
2, 1279, Note_on_c, 0, 73, 63
2, 1292, Control_c, 0, 64, 51
2, 1331, Note_on_c, 0, 73, 0
2, 1350, Control_c, 0, 64, 50
2, 1359, Note_on_c, 0, 77, 71
2, 1363, Note_on_c, 0, 61, 52
2, 1372, Control_c, 0, 64, 49
2, 1388, Control_c, 0, 64, 47
2, 1392, Note_on_c, 0, 49, 0
2, 1408, Control_c, 0, 64, 44
2, 1426, Control_c, 0, 64, 41
2, 1430, Note_on_c, 0, 61, 0
2, 1446, Control_c, 0, 64, 38
2, 1450, Note_on_c, 0, 77, 0
2, 1468, Control_c, 0, 64, 35
2, 1468, Note_on_c, 0, 73, 65
2, 1487, Control_c, 0, 64, 31
2, 1503, Control_c, 0, 64, 27
2, 1522, Control_c, 0, 64, 25
2, 1531, Note_on_c, 0, 73, 0
2, 1541, Control_c, 0, 64, 23
2, 1559, Control_c, 0, 64, 21
2, 1573, Note_on_c, 0, 78, 69
2, 1575, Note_on_c, 0, 51, 50
2, 1580, Control_c, 0, 64, 20
2, 1602, Control_c, 0, 64, 19
2, 1663, Note_on_c, 0, 78, 0
2, 1672, Note_on_c, 0, 73, 68
2, 1753, Control_c, 0, 64, 20
2, 1758, Note_on_c, 0, 73, 0
2, 1789, Note_on_c, 0, 78, 80
2, 1829, Control_c, 0, 64, 21
2, 1884, Note_on_c, 0, 73, 77
2, 1888, Control_c, 0, 64, 22
2, 1888, Note_on_c, 0, 78, 0
2, 1983, Note_on_c, 0, 73, 0
2, 1987, Note_on_c, 0, 78, 86
2, 2001, Note_on_c, 0, 61, 54
2, 2035, Note_on_c, 0, 51, 0
2, 2072, Note_on_c, 0, 61, 0
2, 2098, Note_on_c, 0, 78, 0
2, 2119, Note_on_c, 0, 73, 69
2, 2175, Note_on_c, 0, 73, 0
2, 2224, Note_on_c, 0, 53, 55
2, 2224, Note_on_c, 0, 80, 76
2, 2337, Note_on_c, 0, 73, 74
2, 2337, Note_on_c, 0, 80, 0
2, 2426, Note_on_c, 0, 73, 0
2, 2441, Note_on_c, 0, 80, 87
2, 2552, Note_on_c, 0, 73, 80
2, 2562, Note_on_c, 0, 80, 0
2, 2650, Note_on_c, 0, 80, 84
2, 2655, Note_on_c, 0, 61, 62
2, 2657, Note_on_c, 0, 73, 0
2, 2703, Note_on_c, 0, 53, 0
2, 2756, Note_on_c, 0, 61, 0
2, 2761, Note_on_c, 0, 73, 77
2, 2781, Note_on_c, 0, 80, 0
2, 2830, Note_on_c, 0, 73, 0
2, 2874, Note_on_c, 0, 54, 59
2, 2878, Note_on_c, 0, 82, 83
2, 3003, Note_on_c, 0, 73, 77
2, 3007, Note_on_c, 0, 82, 0
2, 3108, Note_on_c, 0, 82, 88
2, 3121, Note_on_c, 0, 73, 0
2, 3240, Note_on_c, 0, 73, 76
2, 3240, Note_on_c, 0, 82, 0
2, 3316, Note_on_c, 0, 61, 52
2, 3325, Note_on_c, 0, 54, 0
2, 3329, Note_on_c, 0, 82, 86
2, 3346, Note_on_c, 0, 73, 0
2, 3422, Note_on_c, 0, 61, 0
2, 3462, Note_on_c, 0, 82, 0
2, 3467, Note_on_c, 0, 73, 74
2, 3536, Note_on_c, 0, 53, 53
2, 3551, Note_on_c, 0, 80, 82
2, 3556, Note_on_c, 0, 73, 0
2, 3667, Note_on_c, 0, 73, 70
2, 3676, Note_on_c, 0, 80, 0
2, 3760, Note_on_c, 0, 73, 0
2, 3763, Note_on_c, 0, 80, 81
2, 3886, Note_on_c, 0, 73, 76
2, 3886, Note_on_c, 0, 80, 0
2, 3962, Note_on_c, 0, 73, 0
2, 3981, Note_on_c, 0, 61, 56
2, 3986, Note_on_c, 0, 80, 79
2, 3995, Note_on_c, 0, 53, 0
2, 4077, Note_on_c, 0, 61, 0
2, 4084, Note_on_c, 0, 80, 0
2, 4091, Note_on_c, 0, 73, 73
2, 4201, Note_on_c, 0, 73, 0
2, 4212, Note_on_c, 0, 51, 56
2, 4212, Note_on_c, 0, 78, 69
2, 4299, Note_on_c, 0, 77, 71
2, 4305, Control_c, 0, 64, 23
2, 4359, Note_on_c, 0, 78, 0
2, 4399, Note_on_c, 0, 75, 74
2, 4404, Note_on_c, 0, 77, 0
2, 4494, Note_on_c, 0, 77, 74
2, 4519, Note_on_c, 0, 75, 0
2, 4537, Control_c, 0, 64, 24
2, 4567, Note_on_c, 0, 51, 0
2, 4604, Note_on_c, 0, 78, 80
2, 4606, Note_on_c, 0, 77, 0
2, 4615, Note_on_c, 0, 60, 60
2, 4665, Note_on_c, 0, 60, 0
2, 4698, Note_on_c, 0, 75, 70
2, 4701, Note_on_c, 0, 78, 0
2, 4806, Control_c, 0, 64, 25
2, 4821, Note_on_c, 0, 77, 80
2, 4825, Control_c, 0, 64, 32
2, 4825, Note_on_c, 0, 49, 66
2, 4825, Note_on_c, 0, 75, 0
2, 4843, Control_c, 0, 64, 53
2, 4861, Note_on_c, 0, 49, 0
2, 4865, Control_c, 0, 64, 69
2, 4881, Control_c, 0, 64, 81
2, 4901, Control_c, 0, 64, 127
2, 4930, Note_on_c, 0, 75, 73
2, 4930, Note_on_c, 0, 77, 0
2, 5022, Note_on_c, 0, 73, 82
2, 5023, Note_on_c, 0, 75, 0
2, 5119, Note_on_c, 0, 75, 76
2, 5154, Note_on_c, 0, 73, 0
2, 5224, Note_on_c, 0, 75, 0
2, 5233, Note_on_c, 0, 77, 82
2, 5241, Note_on_c, 0, 61, 81
2, 5248, Control_c, 0, 64, 97
2, 5266, Control_c, 0, 64, 69
2, 5286, Control_c, 0, 64, 51
2, 5307, Control_c, 0, 64, 0
2, 5326, Note_on_c, 0, 73, 79
2, 5337, Note_on_c, 0, 77, 0
2, 5453, Note_on_c, 0, 75, 74
2, 5473, Note_on_c, 0, 73, 0
2, 5538, Note_on_c, 0, 75, 0
2, 5549, Note_on_c, 0, 77, 77
2, 5637, Note_on_c, 0, 61, 0
2, 5648, Note_on_c, 0, 77, 0
2, 5661, Note_on_c, 0, 75, 76
2, 5672, Note_on_c, 0, 60, 64
2, 5738, Note_on_c, 0, 60, 0
2, 5758, Note_on_c, 0, 73, 79
2, 5758, Note_on_c, 0, 75, 0
2, 5775, Note_on_c, 0, 58, 64
2, 5850, Note_on_c, 0, 73, 0
2, 5855, Note_on_c, 0, 58, 0
2, 5862, Note_on_c, 0, 72, 71
2, 5881, Note_on_c, 0, 56, 61
2, 5907, Note_on_c, 0, 72, 0
2, 5957, Note_on_c, 0, 56, 0
2, 5957, Note_on_c, 0, 70, 75
2, 5986, Note_on_c, 0, 58, 62
2, 6038, Note_on_c, 0, 58, 0
2, 6042, Note_on_c, 0, 70, 0
2, 6076, Note_on_c, 0, 68, 73
2, 6102, Note_on_c, 0, 60, 59
2, 6161, Note_on_c, 0, 60, 0
2, 6205, Note_on_c, 0, 56, 54
2, 6258, Note_on_c, 0, 56, 0
2, 6294, Note_on_c, 0, 51, 61
2, 6387, Note_on_c, 0, 56, 60
2, 6392, Note_on_c, 0, 51, 0
2, 6450, Note_on_c, 0, 56, 0
2, 6457, Note_on_c, 0, 68, 0
2, 6512, Note_on_c, 0, 80, 66
2, 6516, Note_on_c, 0, 60, 58
2, 6552, Note_on_c, 0, 80, 0
2, 6583, Note_on_c, 0, 60, 0
2, 6614, Note_on_c, 0, 56, 60
2, 6705, Note_on_c, 0, 56, 0
2, 6743, Note_on_c, 0, 70, 71
2, 6752, Note_on_c, 0, 61, 55
2, 6805, Note_on_c, 0, 61, 0
2, 6856, Note_on_c, 0, 56, 64
2, 6927, Note_on_c, 0, 56, 0
2, 6972, Note_on_c, 0, 61, 68
2, 7058, Note_on_c, 0, 61, 0
2, 7073, Note_on_c, 0, 56, 71
2, 7161, Note_on_c, 0, 56, 0
2, 7176, Note_on_c, 0, 61, 72
2, 7180, Note_on_c, 0, 80, 79
2, 7193, Note_on_c, 0, 70, 0
2, 7251, Note_on_c, 0, 80, 0
2, 7262, Note_on_c, 0, 61, 0
2, 7284, Note_on_c, 0, 56, 71
2, 7370, Note_on_c, 0, 56, 0
2, 7394, Note_on_c, 0, 72, 83
2, 7399, Note_on_c, 0, 63, 75
2, 7483, Note_on_c, 0, 63, 0
2, 7513, Note_on_c, 0, 56, 75
2, 7611, Note_on_c, 0, 56, 0
2, 7619, Note_on_c, 0, 63, 82
2, 7709, Note_on_c, 0, 63, 0
2, 7731, Note_on_c, 0, 56, 81
2, 7823, Note_on_c, 0, 80, 78
2, 7828, Note_on_c, 0, 63, 85
2, 7837, Note_on_c, 0, 56, 0
2, 7852, Note_on_c, 0, 72, 0
2, 7921, Note_on_c, 0, 63, 0
2, 7927, Note_on_c, 0, 80, 0
2, 7931, Note_on_c, 0, 56, 77
2, 8044, Note_on_c, 0, 65, 80
2, 8057, Note_on_c, 0, 73, 90
2, 8069, Note_on_c, 0, 56, 0
2, 8141, Note_on_c, 0, 65, 0
2, 8162, Note_on_c, 0, 56, 78
2, 8272, Note_on_c, 0, 65, 84
2, 8301, Note_on_c, 0, 56, 0
2, 8373, Note_on_c, 0, 56, 81
2, 8378, Note_on_c, 0, 65, 0
2, 8500, Note_on_c, 0, 65, 80
2, 8500, Note_on_c, 0, 73, 0
2, 8500, Note_on_c, 0, 80, 80
2, 8502, Note_on_c, 0, 56, 0
2, 8570, Note_on_c, 0, 65, 0
2, 8580, Note_on_c, 0, 80, 0
2, 8598, Note_on_c, 0, 56, 72
2, 8714, Note_on_c, 0, 56, 0
2, 8714, Note_on_c, 0, 72, 78
2, 8725, Note_on_c, 0, 63, 72
2, 8801, Note_on_c, 0, 63, 0
2, 8832, Note_on_c, 0, 56, 73
2, 8913, Note_on_c, 0, 56, 0
2, 8938, Note_on_c, 0, 63, 77
2, 9017, Note_on_c, 0, 63, 0
2, 9028, Note_on_c, 0, 56, 74
2, 9094, Note_on_c, 0, 72, 0
2, 9128, Note_on_c, 0, 56, 0
2, 9137, Note_on_c, 0, 80, 76
2, 9152, Note_on_c, 0, 63, 75
2, 9219, Note_on_c, 0, 63, 0
2, 9219, Note_on_c, 0, 80, 0
2, 9248, Note_on_c, 0, 56, 70
2, 9350, Note_on_c, 0, 56, 0
2, 9367, Note_on_c, 0, 70, 75
2, 9378, Note_on_c, 0, 61, 71
2, 9455, Note_on_c, 0, 61, 0
2, 9478, Note_on_c, 0, 60, 64
2, 9586, Note_on_c, 0, 60, 0
2, 9592, Note_on_c, 0, 58, 62
2, 9678, Note_on_c, 0, 58, 0
2, 9689, Note_on_c, 0, 60, 63
2, 9720, Note_on_c, 0, 70, 0
2, 9783, Note_on_c, 0, 60, 0
2, 9792, Note_on_c, 0, 79, 80
2, 9800, Note_on_c, 0, 61, 65
2, 9859, Note_on_c, 0, 79, 0
2, 9873, Note_on_c, 0, 61, 0
2, 9887, Note_on_c, 0, 58, 65
2, 9981, Note_on_c, 0, 58, 0
2, 10014, Note_on_c, 0, 68, 83
2, 10023, Note_on_c, 0, 60, 65
2, 10114, Note_on_c, 0, 60, 0
2, 10125, Note_on_c, 0, 58, 70
2, 10162, Control_c, 0, 64, 9
2, 10181, Control_c, 0, 64, 11
2, 10199, Control_c, 0, 64, 14
2, 10221, Control_c, 0, 64, 17
2, 10221, Note_on_c, 0, 56, 70
2, 10226, Note_on_c, 0, 58, 0
2, 10238, Control_c, 0, 64, 20
2, 10257, Control_c, 0, 64, 21
2, 10275, Control_c, 0, 64, 22
2, 10296, Control_c, 0, 64, 23
2, 10326, Note_on_c, 0, 58, 79
2, 10331, Note_on_c, 0, 68, 0
2, 10337, Control_c, 0, 64, 24
2, 10342, Note_on_c, 0, 56, 0
2, 10353, Control_c, 0, 64, 25
2, 10371, Control_c, 0, 64, 26
2, 10392, Control_c, 0, 64, 27
2, 10434, Note_on_c, 0, 58, 0
2, 10434, Note_on_c, 0, 60, 75
2, 10439, Note_on_c, 0, 80, 88
2, 10471, Control_c, 0, 64, 26
2, 10508, Control_c, 0, 64, 25
2, 10552, Note_on_c, 0, 56, 77
2, 10561, Note_on_c, 0, 60, 0
2, 10665, Note_on_c, 0, 58, 81
2, 10672, Note_on_c, 0, 56, 0
2, 10755, Note_on_c, 0, 59, 81
2, 10769, Note_on_c, 0, 58, 0
2, 10833, Control_c, 0, 64, 24
2, 10853, Control_c, 0, 64, 23
2, 10869, Note_on_c, 0, 78, 85
2, 10876, Note_on_c, 0, 58, 77
2, 10880, Control_c, 0, 64, 21
2, 10880, Note_on_c, 0, 59, 0
2, 10892, Control_c, 0, 64, 20
2, 10909, Control_c, 0, 64, 19
2, 10914, Note_on_c, 0, 80, 0
2, 10918, Note_on_c, 0, 80, 5
2, 10939, Note_on_c, 0, 80, 0
2, 10949, Control_c, 0, 64, 18
2, 10973, Note_on_c, 0, 56, 69
2, 10978, Note_on_c, 0, 77, 80
2, 11002, Note_on_c, 0, 58, 0
2, 11002, Note_on_c, 0, 78, 0
2, 11049, Note_on_c, 0, 54, 70
2, 11070, Note_on_c, 0, 56, 0
2, 11074, Note_on_c, 0, 75, 81
2, 11083, Note_on_c, 0, 77, 0
2, 11103, Control_c, 0, 64, 19
2, 11147, Note_on_c, 0, 54, 0
2, 11169, Note_on_c, 0, 53, 70
2, 11182, Control_c, 0, 64, 20
2, 11182, Note_on_c, 0, 77, 79
2, 11204, Note_on_c, 0, 75, 0
2, 11256, Control_c, 0, 64, 19
2, 11274, Control_c, 0, 64, 18
2, 11286, Note_on_c, 0, 53, 0
2, 11291, Note_on_c, 0, 77, 0
2, 11296, Control_c, 0, 64, 16
2, 11298, Note_on_c, 0, 51, 63
2, 11305, Note_on_c, 0, 78, 74
2, 11314, Control_c, 0, 64, 15
2, 11337, Control_c, 0, 64, 14
2, 11352, Control_c, 0, 64, 13
2, 11392, Control_c, 0, 64, 12
2, 11392, Note_on_c, 0, 75, 67
2, 11397, Note_on_c, 0, 78, 0
2, 11414, Control_c, 0, 64, 11
2, 11480, Note_on_c, 0, 75, 0
2, 11506, Note_on_c, 0, 70, 65
2, 11592, Note_on_c, 0, 70, 0
2, 11609, Note_on_c, 0, 75, 64
2, 11658, Control_c, 0, 64, 10
2, 11677, Control_c, 0, 64, 9
2, 11681, Note_on_c, 0, 75, 0
2, 11699, Control_c, 0, 64, 8
2, 11703, Note_on_c, 0, 51, 0
2, 11717, Control_c, 0, 64, 0
2, 11717, Note_on_c, 0, 78, 73
2, 11737, Note_on_c, 0, 63, 56
2, 11795, Note_on_c, 0, 63, 0
2, 11804, Note_on_c, 0, 78, 0
2, 11822, Note_on_c, 0, 75, 69
2, 11907, Note_on_c, 0, 75, 0
2, 11937, Note_on_c, 0, 80, 66
2, 11942, Note_on_c, 0, 53, 52
2, 12027, Note_on_c, 0, 80, 0
2, 12043, Note_on_c, 0, 75, 65
2, 12101, Note_on_c, 0, 75, 0
2, 12164, Note_on_c, 0, 80, 75
2, 12257, Note_on_c, 0, 75, 69
2, 12257, Note_on_c, 0, 80, 0
2, 12364, Note_on_c, 0, 63, 58
2, 12364, Note_on_c, 0, 75, 0
2, 12379, Note_on_c, 0, 80, 77
2, 12388, Note_on_c, 0, 53, 0
2, 12416, Note_on_c, 0, 63, 0
2, 12476, Note_on_c, 0, 80, 0
2, 12487, Note_on_c, 0, 75, 68
2, 12575, Note_on_c, 0, 75, 0
2, 12604, Note_on_c, 0, 54, 53
2, 12609, Note_on_c, 0, 82, 70
2, 12723, Note_on_c, 0, 75, 67
2, 12723, Note_on_c, 0, 82, 0
2, 12815, Note_on_c, 0, 75, 0
2, 12831, Note_on_c, 0, 82, 81
2, 12933, Note_on_c, 0, 75, 74
2, 12950, Note_on_c, 0, 82, 0
2, 13046, Note_on_c, 0, 75, 0
2, 13050, Note_on_c, 0, 82, 80
2, 13061, Note_on_c, 0, 63, 55
2, 13148, Note_on_c, 0, 63, 0
2, 13155, Note_on_c, 0, 54, 0
2, 13157, Note_on_c, 0, 75, 75
2, 13182, Note_on_c, 0, 82, 0
2, 13243, Note_on_c, 0, 75, 0
2, 13286, Note_on_c, 0, 83, 74
2, 13295, Note_on_c, 0, 56, 56
2, 13396, Note_on_c, 0, 75, 67
2, 13407, Note_on_c, 0, 83, 0
2, 13510, Note_on_c, 0, 75, 0
2, 13512, Note_on_c, 0, 83, 79
2, 13622, Note_on_c, 0, 75, 70
2, 13629, Note_on_c, 0, 83, 0
2, 13713, Note_on_c, 0, 75, 0
2, 13744, Note_on_c, 0, 63, 54
2, 13744, Note_on_c, 0, 83, 75
2, 13766, Note_on_c, 0, 56, 0
2, 13837, Note_on_c, 0, 63, 0
2, 13839, Note_on_c, 0, 83, 0
2, 13846, Note_on_c, 0, 75, 68
2, 13914, Note_on_c, 0, 75, 0
2, 13956, Note_on_c, 0, 82, 69
2, 13969, Note_on_c, 0, 54, 56
2, 14057, Note_on_c, 0, 75, 65
2, 14066, Note_on_c, 0, 82, 0
2, 14143, Note_on_c, 0, 75, 0
2, 14181, Note_on_c, 0, 82, 70
2, 14278, Note_on_c, 0, 75, 65
2, 14287, Note_on_c, 0, 82, 0
2, 14366, Note_on_c, 0, 75, 0
2, 14396, Note_on_c, 0, 82, 71
2, 14405, Note_on_c, 0, 63, 56
2, 14414, Note_on_c, 0, 54, 0
2, 14484, Note_on_c, 0, 82, 0
2, 14507, Note_on_c, 0, 63, 0
2, 14511, Note_on_c, 0, 75, 67
2, 14619, Note_on_c, 0, 80, 67
2, 14628, Note_on_c, 0, 53, 55
2, 14628, Note_on_c, 0, 75, 0
2, 14721, Note_on_c, 0, 78, 73
2, 14756, Note_on_c, 0, 80, 0
2, 14825, Note_on_c, 0, 78, 0
2, 14831, Note_on_c, 0, 77, 77
2, 14945, Note_on_c, 0, 78, 74
2, 14967, Note_on_c, 0, 77, 0
2, 15001, Note_on_c, 0, 53, 0
2, 15031, Note_on_c, 0, 62, 64
2, 15042, Note_on_c, 0, 78, 0
2, 15042, Note_on_c, 0, 80, 72
2, 15078, Note_on_c, 0, 62, 0
2, 15132, Note_on_c, 0, 77, 73
2, 15136, Note_on_c, 0, 80, 0
2, 15249, Note_on_c, 0, 77, 0
2, 15251, Note_on_c, 0, 78, 73
2, 15262, Note_on_c, 0, 51, 59
2, 15308, Control_c, 0, 64, 8
2, 15326, Control_c, 0, 64, 11
2, 15346, Control_c, 0, 64, 13
2, 15362, Note_on_c, 0, 77, 74
2, 15366, Control_c, 0, 64, 18
2, 15366, Note_on_c, 0, 78, 0
2, 15383, Control_c, 0, 64, 31
2, 15405, Control_c, 0, 64, 45
2, 15422, Control_c, 0, 64, 56
2, 15440, Control_c, 0, 64, 61
2, 15451, Note_on_c, 0, 77, 0
2, 15455, Note_on_c, 0, 75, 69
2, 15460, Control_c, 0, 64, 62
2, 15481, Control_c, 0, 64, 63
2, 15500, Control_c, 0, 64, 64
2, 15518, Control_c, 0, 64, 65
2, 15538, Control_c, 0, 64, 66
2, 15552, Note_on_c, 0, 75, 0
2, 15560, Note_on_c, 0, 77, 74
2, 15609, Note_on_c, 0, 51, 0
2, 15615, Control_c, 0, 64, 65
2, 15664, Note_on_c, 0, 78, 78
2, 15673, Note_on_c, 0, 63, 71
2, 15678, Control_c, 0, 64, 63
2, 15678, Note_on_c, 0, 77, 0
2, 15692, Control_c, 0, 64, 58
2, 15712, Control_c, 0, 64, 52
2, 15729, Control_c, 0, 64, 43
2, 15751, Control_c, 0, 64, 37
2, 15771, Control_c, 0, 64, 36
2, 15779, Note_on_c, 0, 75, 72
2, 15784, Note_on_c, 0, 78, 0
2, 15806, Control_c, 0, 64, 37
2, 15826, Control_c, 0, 64, 38
2, 15883, Note_on_c, 0, 75, 0
2, 15883, Note_on_c, 0, 77, 72
2, 15979, Note_on_c, 0, 78, 75
2, 15995, Note_on_c, 0, 77, 0
2, 16029, Note_on_c, 0, 63, 0
2, 16083, Note_on_c, 0, 78, 0
2, 16096, Note_on_c, 0, 77, 76
2, 16109, Note_on_c, 0, 61, 65
2, 16133, Control_c, 0, 64, 37
2, 16154, Note_on_c, 0, 77, 0
2, 16195, Note_on_c, 0, 75, 76
2, 16202, Note_on_c, 0, 61, 0
2, 16212, Note_on_c, 0, 60, 66
2, 16249, Control_c, 0, 64, 36
2, 16293, Note_on_c, 0, 75, 0
2, 16304, Note_on_c, 0, 73, 75
2, 16308, Control_c, 0, 64, 35
2, 16308, Note_on_c, 0, 60, 0
2, 16319, Note_on_c, 0, 58, 65
2, 16376, Note_on_c, 0, 73, 0
2, 16384, Note_on_c, 0, 72, 74
2, 16418, Note_on_c, 0, 58, 0
2, 16426, Note_on_c, 0, 60, 63
2, 16457, Note_on_c, 0, 72, 0
2, 16490, Note_on_c, 0, 60, 0
2, 16506, Note_on_c, 0, 70, 72
2, 16545, Note_on_c, 0, 61, 63
2, 16645, Note_on_c, 0, 61, 0
2, 16653, Note_on_c, 0, 58, 61
2, 16710, Note_on_c, 0, 58, 0
2, 16747, Note_on_c, 0, 53, 58
2, 16810, Note_on_c, 0, 53, 0
2, 16843, Note_on_c, 0, 58, 57
2, 16908, Note_on_c, 0, 58, 0
2, 16941, Note_on_c, 0, 61, 62
2, 16957, Note_on_c, 0, 70, 0
2, 16959, Note_on_c, 0, 82, 71
2, 17025, Note_on_c, 0, 82, 0
2, 17041, Note_on_c, 0, 61, 0
2, 17065, Note_on_c, 0, 58, 62
2, 17150, Control_c, 0, 64, 34
2, 17179, Note_on_c, 0, 58, 0
2, 17188, Note_on_c, 0, 72, 78
2, 17197, Note_on_c, 0, 63, 66
2, 17267, Note_on_c, 0, 63, 0
2, 17304, Control_c, 0, 64, 33
2, 17317, Note_on_c, 0, 58, 64
2, 17375, Note_on_c, 0, 58, 0
2, 17406, Note_on_c, 0, 63, 75
2, 17505, Note_on_c, 0, 63, 0
2, 17514, Note_on_c, 0, 58, 73
2, 17582, Note_on_c, 0, 72, 0
2, 17601, Note_on_c, 0, 58, 0
2, 17623, Note_on_c, 0, 63, 74
2, 17631, Note_on_c, 0, 82, 74
2, 17719, Note_on_c, 0, 63, 0
2, 17723, Note_on_c, 0, 82, 0
2, 17727, Note_on_c, 0, 58, 74
2, 17808, Note_on_c, 0, 58, 0
2, 17842, Note_on_c, 0, 65, 72
2, 17855, Note_on_c, 0, 73, 84
2, 17862, Control_c, 0, 64, 32
2, 17951, Note_on_c, 0, 65, 0
2, 17954, Note_on_c, 0, 58, 74
2, 18014, Control_c, 0, 64, 31
2, 18066, Note_on_c, 0, 58, 0
2, 18077, Note_on_c, 0, 65, 73
2, 18158, Note_on_c, 0, 65, 0
2, 18167, Note_on_c, 0, 58, 76
2, 18266, Note_on_c, 0, 73, 0
2, 18302, Note_on_c, 0, 65, 72
2, 18302, Note_on_c, 0, 82, 75
2, 18309, Note_on_c, 0, 58, 0
2, 18414, Note_on_c, 0, 58, 81
2, 18418, Note_on_c, 0, 65, 0
2, 18418, Note_on_c, 0, 82, 0
2, 18530, Note_on_c, 0, 66, 85
2, 18534, Note_on_c, 0, 75, 83
2, 18539, Note_on_c, 0, 58, 0
2, 18637, Note_on_c, 0, 58, 75
2, 18645, Note_on_c, 0, 66, 0
2, 18753, Note_on_c, 0, 58, 0
2, 18753, Note_on_c, 0, 66, 86
2, 18764, Control_c, 0, 64, 30
2, 18862, Note_on_c, 0, 58, 82
2, 18866, Note_on_c, 0, 66, 0
2, 18966, Note_on_c, 0, 75, 0
2, 18979, Note_on_c, 0, 66, 80
2, 18983, Note_on_c, 0, 58, 0
2, 18983, Note_on_c, 0, 82, 75
2, 19079, Note_on_c, 0, 82, 0
2, 19088, Note_on_c, 0, 58, 70
2, 19088, Note_on_c, 0, 66, 0
2, 19113, Control_c, 0, 64, 29
2, 19200, Note_on_c, 0, 58, 0
2, 19213, Note_on_c, 0, 65, 68
2, 19213, Note_on_c, 0, 73, 83
2, 19309, Note_on_c, 0, 65, 0
2, 19337, Note_on_c, 0, 59, 57
2, 19380, Note_on_c, 0, 59, 0
2, 19426, Note_on_c, 0, 65, 64
2, 19497, Note_on_c, 0, 65, 0
2, 19502, Note_on_c, 0, 58, 72
2, 19616, Note_on_c, 0, 58, 0
2, 19630, Note_on_c, 0, 73, 0
2, 19644, Note_on_c, 0, 65, 63
2, 19662, Note_on_c, 0, 82, 77
2, 19727, Note_on_c, 0, 58, 66
2, 19731, Note_on_c, 0, 65, 0
2, 19745, Note_on_c, 0, 82, 0
2, 19876, Note_on_c, 0, 63, 61
2, 19883, Note_on_c, 0, 72, 77
2, 19900, Note_on_c, 0, 58, 0
2, 19974, Note_on_c, 0, 63, 0
2, 19981, Note_on_c, 0, 61, 57
2, 20054, Note_on_c, 0, 61, 0
2, 20088, Note_on_c, 0, 60, 61
2, 20178, Note_on_c, 0, 60, 0
2, 20188, Note_on_c, 0, 61, 64
2, 20260, Note_on_c, 0, 72, 0
2, 20278, Note_on_c, 0, 61, 0
2, 20289, Note_on_c, 0, 63, 65
2, 20315, Note_on_c, 0, 81, 71
2, 20365, Note_on_c, 0, 81, 0
2, 20376, Control_c, 0, 64, 30
2, 20380, Note_on_c, 0, 63, 0
2, 20401, Note_on_c, 0, 60, 59
2, 20414, Control_c, 0, 64, 31
2, 20472, Control_c, 0, 64, 32
2, 20499, Note_on_c, 0, 60, 0
2, 20532, Control_c, 0, 64, 33
2, 20536, Note_on_c, 0, 70, 71
2, 20540, Note_on_c, 0, 61, 60
2, 20568, Control_c, 0, 64, 34
2, 20605, Control_c, 0, 64, 35
2, 20642, Note_on_c, 0, 61, 0
2, 20644, Control_c, 0, 64, 36
2, 20665, Note_on_c, 0, 60, 57
2, 20723, Control_c, 0, 64, 37
2, 20743, Note_on_c, 0, 60, 0
2, 20758, Note_on_c, 0, 58, 67
2, 20819, Note_on_c, 0, 70, 0
2, 20852, Note_on_c, 0, 60, 65
2, 20867, Note_on_c, 0, 58, 0
2, 20945, Note_on_c, 0, 60, 0
2, 20955, Control_c, 0, 64, 36
2, 20959, Note_on_c, 0, 82, 82
2, 20973, Control_c, 0, 64, 35
2, 20973, Note_on_c, 0, 61, 64
2, 20990, Control_c, 0, 64, 34
2, 21009, Control_c, 0, 64, 33
2, 21064, Note_on_c, 0, 61, 0
2, 21068, Note_on_c, 0, 58, 69
2, 21146, Note_on_c, 0, 58, 0
2, 21182, Note_on_c, 0, 64, 75
2, 21221, Control_c, 0, 64, 32
2, 21228, Note_on_c, 0, 64, 0
2, 21283, Note_on_c, 0, 62, 69
2, 21330, Note_on_c, 0, 82, 0
2, 21339, Note_on_c, 0, 62, 0
2, 21394, Control_c, 0, 64, 31
2, 21399, Note_on_c, 0, 60, 67
2, 21411, Note_on_c, 0, 80, 73
2, 21469, Note_on_c, 0, 80, 0
2, 21496, Note_on_c, 0, 62, 64
2, 21507, Note_on_c, 0, 60, 0
2, 21592, Note_on_c, 0, 62, 0
2, 21613, Note_on_c, 0, 64, 67
2, 21617, Note_on_c, 0, 79, 76
2, 21666, Note_on_c, 0, 79, 0
2, 21679, Note_on_c, 0, 64, 0
2, 21725, Note_on_c, 0, 60, 65
2, 21805, Note_on_c, 0, 60, 0
2, 21829, Note_on_c, 0, 80, 78
2, 21843, Note_on_c, 0, 65, 66
2, 21896, Note_on_c, 0, 65, 0
2, 21909, Note_on_c, 0, 80, 0
2, 21947, Note_on_c, 0, 64, 75
2, 22037, Note_on_c, 0, 64, 0
2, 22052, Note_on_c, 0, 68, 84
2, 22059, Note_on_c, 0, 65, 72
2, 22098, Note_on_c, 0, 68, 0
2, 22126, Note_on_c, 0, 65, 0
2, 22159, Note_on_c, 0, 67, 74
2, 22259, Note_on_c, 0, 67, 0
2, 22262, Note_on_c, 0, 80, 87
2, 22273, Note_on_c, 0, 65, 67
2, 22368, Note_on_c, 0, 63, 70
2, 22379, Note_on_c, 0, 65, 0
2, 22447, Note_on_c, 0, 63, 0
2, 22478, Note_on_c, 0, 62, 74
2, 22551, Note_on_c, 0, 62, 0
2, 22587, Note_on_c, 0, 60, 65
2, 22623, Control_c, 0, 64, 32
2, 22679, Note_on_c, 0, 60, 0
2, 22696, Note_on_c, 0, 58, 67
2, 22713, Note_on_c, 0, 78, 76
2, 22722, Note_on_c, 0, 80, 0
2, 22773, Note_on_c, 0, 78, 0
2, 22805, Note_on_c, 0, 58, 0
2, 22810, Note_on_c, 0, 60, 65
2, 22908, Note_on_c, 0, 60, 0
2, 22915, Note_on_c, 0, 62, 76
2, 22926, Note_on_c, 0, 77, 71
2, 23005, Note_on_c, 0, 77, 0
2, 23009, Note_on_c, 0, 62, 0
2, 23018, Note_on_c, 0, 58, 71
2, 23100, Note_on_c, 0, 58, 0
2, 23145, Note_on_c, 0, 63, 70
2, 23149, Note_on_c, 0, 78, 78
2, 23200, Note_on_c, 0, 63, 0
2, 23244, Note_on_c, 0, 78, 0
2, 23254, Note_on_c, 0, 77, 76
2, 23353, Note_on_c, 0, 51, 71
2, 23353, Note_on_c, 0, 77, 0
2, 23358, Control_c, 0, 64, 33
2, 23369, Note_on_c, 0, 75, 69
2, 23396, Note_on_c, 0, 51, 0
2, 23459, Note_on_c, 0, 75, 0
2, 23474, Note_on_c, 0, 77, 65
2, 23525, Control_c, 0, 64, 34
2, 23563, Control_c, 0, 64, 35
2, 23592, Note_on_c, 0, 63, 76
2, 23592, Note_on_c, 0, 78, 74
2, 23601, Control_c, 0, 64, 36
2, 23606, Note_on_c, 0, 77, 0
2, 23620, Control_c, 0, 64, 37
2, 23658, Control_c, 0, 64, 38
2, 23698, Control_c, 0, 64, 39
2, 23702, Note_on_c, 0, 75, 74
2, 23707, Note_on_c, 0, 78, 0
2, 23716, Control_c, 0, 64, 40
2, 23759, Note_on_c, 0, 75, 0
2, 23812, Note_on_c, 0, 81, 76
2, 23926, Note_on_c, 0, 79, 76
2, 23952, Note_on_c, 0, 81, 0
2, 23961, Note_on_c, 0, 63, 0
2, 24026, Note_on_c, 0, 61, 66
2, 24030, Note_on_c, 0, 79, 0
2, 24035, Note_on_c, 0, 77, 78
2, 24063, Control_c, 0, 64, 39
2, 24073, Note_on_c, 0, 61, 0
2, 24101, Control_c, 0, 64, 38
2, 24107, Note_on_c, 0, 77, 0
2, 24142, Control_c, 0, 64, 37
2, 24142, Note_on_c, 0, 79, 75
2, 24199, Control_c, 0, 64, 36
2, 24234, Note_on_c, 0, 60, 71
2, 24250, Note_on_c, 0, 81, 73
2, 24254, Note_on_c, 0, 79, 0
2, 24274, Note_on_c, 0, 60, 0
2, 24311, Control_c, 0, 64, 35
2, 24332, Note_on_c, 0, 81, 0
2, 24350, Note_on_c, 0, 77, 73
2, 24439, Note_on_c, 0, 77, 0
2, 24461, Note_on_c, 0, 82, 76
2, 24465, Note_on_c, 0, 61, 67
2, 24519, Note_on_c, 0, 61, 0
2, 24559, Note_on_c, 0, 82, 0
2, 24568, Note_on_c, 0, 81, 70
2, 24673, Note_on_c, 0, 49, 64
2, 24678, Note_on_c, 0, 82, 75
2, 24693, Note_on_c, 0, 81, 0
2, 24729, Note_on_c, 0, 49, 0
2, 24774, Note_on_c, 0, 82, 0
2, 24788, Note_on_c, 0, 84, 70
2, 24901, Note_on_c, 0, 61, 74
2, 24909, Note_on_c, 0, 82, 75
2, 24913, Note_on_c, 0, 84, 0
2, 25007, Note_on_c, 0, 80, 72
2, 25028, Note_on_c, 0, 82, 0
2, 25102, Note_on_c, 0, 80, 0
2, 25118, Note_on_c, 0, 79, 77
2, 25225, Note_on_c, 0, 79, 0
2, 25227, Note_on_c, 0, 77, 77
2, 25321, Note_on_c, 0, 61, 0
2, 25325, Note_on_c, 0, 77, 0
2, 25343, Note_on_c, 0, 75, 70
2, 25359, Note_on_c, 0, 60, 61
2, 25397, Note_on_c, 0, 60, 0
2, 25443, Note_on_c, 0, 75, 0
2, 25449, Note_on_c, 0, 77, 67
2, 25538, Note_on_c, 0, 77, 0
2, 25540, Note_on_c, 0, 79, 74
2, 25568, Note_on_c, 0, 58, 66
2, 25616, Note_on_c, 0, 58, 0
2, 25639, Note_on_c, 0, 79, 0
2, 25658, Note_on_c, 0, 75, 69
2, 25747, Note_on_c, 0, 75, 0
2, 25783, Note_on_c, 0, 80, 73
2, 25792, Note_on_c, 0, 60, 60
2, 25829, Control_c, 0, 64, 36
2, 25840, Note_on_c, 0, 80, 0
2, 25845, Note_on_c, 0, 60, 0
2, 25873, Note_on_c, 0, 58, 70
2, 25971, Note_on_c, 0, 58, 0
2, 25984, Note_on_c, 0, 56, 74
2, 26001, Note_on_c, 0, 68, 85
2, 26058, Note_on_c, 0, 68, 0
2, 26090, Note_on_c, 0, 58, 80
2, 26095, Control_c, 0, 64, 37
2, 26131, Note_on_c, 0, 56, 0
2, 26212, Note_on_c, 0, 60, 76
2, 26212, Note_on_c, 0, 80, 83
2, 26216, Note_on_c, 0, 58, 0
2, 26308, Note_on_c, 0, 56, 69
2, 26308, Note_on_c, 0, 60, 0
2, 26407, Note_on_c, 0, 56, 0
2, 26420, Note_on_c, 0, 62, 77
2, 26441, Control_c, 0, 64, 36
2, 26510, Note_on_c, 0, 62, 0
2, 26526, Note_on_c, 0, 60, 64
2, 26629, Note_on_c, 0, 60, 0
2, 26638, Note_on_c, 0, 58, 71
2, 26646, Note_on_c, 0, 78, 73
2, 26670, Note_on_c, 0, 80, 0
2, 26715, Note_on_c, 0, 78, 0
2, 26755, Note_on_c, 0, 60, 68
2, 26769, Control_c, 0, 64, 35
2, 26783, Note_on_c, 0, 58, 0
2, 26851, Note_on_c, 0, 60, 0
2, 26862, Note_on_c, 0, 62, 72
2, 26869, Note_on_c, 0, 77, 75
2, 26935, Note_on_c, 0, 77, 0
2, 26969, Note_on_c, 0, 62, 0
2, 26971, Note_on_c, 0, 58, 71
2, 27075, Note_on_c, 0, 58, 0
2, 27079, Note_on_c, 0, 78, 77
2, 27090, Note_on_c, 0, 63, 73
2, 27137, Note_on_c, 0, 63, 0
2, 27159, Note_on_c, 0, 78, 0
2, 27189, Note_on_c, 0, 62, 72
2, 27266, Control_c, 0, 64, 36
2, 27296, Note_on_c, 0, 66, 80
2, 27303, Note_on_c, 0, 63, 76
2, 27321, Note_on_c, 0, 62, 0
2, 27367, Note_on_c, 0, 66, 0
2, 27387, Note_on_c, 0, 63, 0
2, 27402, Note_on_c, 0, 65, 73
2, 27497, Control_c, 0, 64, 37
2, 27513, Note_on_c, 0, 78, 89
2, 27520, Note_on_c, 0, 65, 0
2, 27524, Note_on_c, 0, 63, 75
2, 27626, Note_on_c, 0, 61, 66
2, 27639, Note_on_c, 0, 63, 0
2, 27713, Note_on_c, 0, 61, 0
2, 27733, Note_on_c, 0, 60, 70
2, 27823, Note_on_c, 0, 60, 0
2, 27843, Note_on_c, 0, 58, 68
2, 27938, Note_on_c, 0, 58, 0
2, 27960, Note_on_c, 0, 56, 72
2, 27960, Note_on_c, 0, 77, 79
2, 27960, Note_on_c, 0, 78, 0
2, 28033, Note_on_c, 0, 77, 0
2, 28075, Note_on_c, 0, 58, 74
2, 28112, Note_on_c, 0, 56, 0
2, 28177, Note_on_c, 0, 60, 78
2, 28186, Note_on_c, 0, 75, 77
2, 28188, Note_on_c, 0, 58, 0
2, 28267, Note_on_c, 0, 75, 0
2, 28284, Note_on_c, 0, 60, 0
2, 28288, Note_on_c, 0, 56, 72
2, 28375, Note_on_c, 0, 56, 0
2, 28390, Note_on_c, 0, 61, 78
2, 28407, Note_on_c, 0, 77, 78
2, 28465, Note_on_c, 0, 61, 0
2, 28510, Note_on_c, 0, 75, 79
2, 28516, Note_on_c, 0, 77, 0
2, 28588, Note_on_c, 0, 49, 71
2, 28622, Note_on_c, 0, 73, 73
2, 28626, Note_on_c, 0, 75, 0
2, 28641, Note_on_c, 0, 49, 0
2, 28718, Note_on_c, 0, 75, 72
2, 28734, Note_on_c, 0, 73, 0
2, 28824, Note_on_c, 0, 61, 81
2, 28824, Note_on_c, 0, 77, 79
2, 28834, Note_on_c, 0, 75, 0
2, 28928, Note_on_c, 0, 73, 77
2, 28956, Note_on_c, 0, 77, 0
2, 29052, Note_on_c, 0, 79, 81
2, 29056, Note_on_c, 0, 73, 0
2, 29150, Note_on_c, 0, 77, 73
2, 29219, Note_on_c, 0, 61, 0
2, 29232, Note_on_c, 0, 79, 0
2, 29261, Note_on_c, 0, 77, 0
2, 29270, Note_on_c, 0, 75, 76
2, 29278, Note_on_c, 0, 59, 73
2, 29341, Note_on_c, 0, 59, 0
2, 29371, Note_on_c, 0, 77, 73
2, 29375, Note_on_c, 0, 75, 0
2, 29480, Note_on_c, 0, 58, 74
2, 29480, Note_on_c, 0, 79, 75
2, 29492, Note_on_c, 0, 77, 0
2, 29538, Note_on_c, 0, 58, 0
2, 29584, Note_on_c, 0, 75, 68
2, 29584, Note_on_c, 0, 79, 0
2, 29698, Note_on_c, 0, 59, 78
2, 29702, Note_on_c, 0, 80, 78
2, 29711, Note_on_c, 0, 75, 0
2, 29768, Note_on_c, 0, 59, 0
2, 29796, Note_on_c, 0, 79, 80
2, 29805, Note_on_c, 0, 80, 0
2, 29916, Control_c, 0, 64, 38
2, 29925, Note_on_c, 0, 80, 78
2, 29930, Note_on_c, 0, 47, 75
2, 29959, Note_on_c, 0, 79, 0
2, 29972, Note_on_c, 0, 47, 0
2, 30033, Note_on_c, 0, 82, 77
2, 30037, Control_c, 0, 64, 39
2, 30041, Note_on_c, 0, 80, 0
2, 30090, Control_c, 0, 64, 40
2, 30126, Control_c, 0, 64, 41
2, 30152, Note_on_c, 0, 59, 84
2, 30154, Note_on_c, 0, 80, 77
2, 30190, Note_on_c, 0, 57, 60
2, 30219, Note_on_c, 0, 82, 0
2, 30224, Note_on_c, 0, 57, 0
2, 30274, Note_on_c, 0, 78, 78
2, 30295, Note_on_c, 0, 80, 0
2, 30381, Note_on_c, 0, 77, 78
2, 30386, Note_on_c, 0, 78, 0
2, 30484, Note_on_c, 0, 77, 0
2, 30486, Note_on_c, 0, 75, 77
2, 30567, Control_c, 0, 64, 42
2, 30598, Note_on_c, 0, 58, 79
2, 30598, Note_on_c, 0, 75, 0
2, 30600, Note_on_c, 0, 73, 81
2, 30609, Control_c, 0, 64, 41
2, 30609, Note_on_c, 0, 59, 0
2, 30627, Control_c, 0, 64, 40
2, 30644, Control_c, 0, 64, 38
2, 30664, Control_c, 0, 64, 37
2, 30673, Note_on_c, 0, 58, 0
2, 30686, Control_c, 0, 64, 36
2, 30713, Note_on_c, 0, 75, 68
2, 30724, Control_c, 0, 64, 35
2, 30748, Note_on_c, 0, 73, 0
2, 30809, Note_on_c, 0, 56, 70
2, 30821, Note_on_c, 0, 75, 0
2, 30823, Note_on_c, 0, 77, 72
2, 30852, Note_on_c, 0, 56, 0
2, 30906, Note_on_c, 0, 77, 0
2, 30910, Note_on_c, 0, 73, 67
2, 30990, Note_on_c, 0, 73, 0
2, 31073, Note_on_c, 0, 66, 53
2, 31088, Note_on_c, 0, 58, 33
2, 31145, Note_on_c, 0, 58, 0
2, 31150, Control_c, 0, 64, 34
2, 31185, Note_on_c, 0, 54, 44
2, 31249, Note_on_c, 0, 54, 0
2, 31310, Note_on_c, 0, 49, 36
2, 31380, Note_on_c, 0, 49, 0
2, 31388, Note_on_c, 0, 54, 49
2, 31456, Note_on_c, 0, 54, 0
2, 31487, Note_on_c, 0, 66, 0
2, 31523, Note_on_c, 0, 58, 51
2, 31530, Note_on_c, 0, 78, 56
2, 31579, Note_on_c, 0, 78, 0
2, 31599, Note_on_c, 0, 58, 0
2, 31635, Note_on_c, 0, 54, 46
2, 31707, Note_on_c, 0, 54, 0
2, 31748, Note_on_c, 0, 68, 59
2, 31777, Note_on_c, 0, 59, 46
2, 31847, Note_on_c, 0, 59, 0
2, 31887, Note_on_c, 0, 54, 48
2, 31948, Note_on_c, 0, 54, 0
2, 31989, Note_on_c, 0, 59, 58
2, 32052, Note_on_c, 0, 59, 0
2, 32106, Note_on_c, 0, 54, 48
2, 32161, Note_on_c, 0, 54, 0
2, 32165, Note_on_c, 0, 68, 0
2, 32188, Note_on_c, 0, 78, 56
2, 32205, Note_on_c, 0, 59, 53
2, 32237, Note_on_c, 0, 78, 0
2, 32253, Note_on_c, 0, 59, 0
2, 32294, Note_on_c, 0, 54, 55
2, 32405, Note_on_c, 0, 54, 0
2, 32425, Note_on_c, 0, 70, 58
2, 32447, Note_on_c, 0, 61, 43
2, 32504, Note_on_c, 0, 61, 0
2, 32554, Note_on_c, 0, 54, 46
2, 32607, Note_on_c, 0, 54, 0
2, 32645, Note_on_c, 0, 61, 49
2, 32714, Note_on_c, 0, 61, 0
2, 32747, Note_on_c, 0, 54, 56
2, 32824, Note_on_c, 0, 70, 0
2, 32842, Note_on_c, 0, 54, 0
2, 32862, Note_on_c, 0, 61, 57
2, 32862, Note_on_c, 0, 78, 62
2, 32908, Note_on_c, 0, 78, 0
2, 32941, Note_on_c, 0, 61, 0
2, 32994, Note_on_c, 0, 54, 53
2, 33063, Note_on_c, 0, 54, 0
2, 33072, Note_on_c, 0, 71, 64
2, 33088, Note_on_c, 0, 63, 60
2, 33161, Note_on_c, 0, 63, 0
2, 33195, Note_on_c, 0, 54, 63
2, 33264, Note_on_c, 0, 54, 0
2, 33296, Note_on_c, 0, 63, 68
2, 33379, Note_on_c, 0, 63, 0
2, 33410, Note_on_c, 0, 54, 64
2, 33473, Note_on_c, 0, 54, 0
2, 33507, Note_on_c, 0, 71, 0
2, 33526, Note_on_c, 0, 63, 63
2, 33531, Note_on_c, 0, 78, 62
2, 33569, Note_on_c, 0, 63, 0
2, 33576, Note_on_c, 0, 78, 0
2, 33620, Note_on_c, 0, 54, 63
2, 33681, Note_on_c, 0, 54, 0
2, 33736, Control_c, 0, 64, 35
2, 33741, Note_on_c, 0, 61, 55
2, 33751, Note_on_c, 0, 70, 58
2, 33791, Note_on_c, 0, 61, 0
2, 33814, Control_c, 0, 64, 36
2, 33837, Note_on_c, 0, 54, 57
2, 33898, Note_on_c, 0, 54, 0
2, 33949, Control_c, 0, 64, 37
2, 33956, Note_on_c, 0, 61, 52
2, 34014, Note_on_c, 0, 61, 0
2, 34049, Note_on_c, 0, 54, 54
2, 34122, Note_on_c, 0, 54, 0
2, 34144, Note_on_c, 0, 70, 0
2, 34170, Note_on_c, 0, 61, 53
2, 34175, Note_on_c, 0, 78, 57
2, 34227, Note_on_c, 0, 78, 0
2, 34231, Note_on_c, 0, 61, 0
2, 34274, Note_on_c, 0, 54, 60
2, 34359, Note_on_c, 0, 54, 0
2, 34407, Note_on_c, 0, 68, 67
2, 34414, Note_on_c, 0, 59, 55
2, 34480, Note_on_c, 0, 59, 0
2, 34523, Note_on_c, 0, 58, 50
2, 34595, Note_on_c, 0, 58, 0
2, 34629, Note_on_c, 0, 56, 58
2, 34698, Control_c, 0, 64, 38
2, 34725, Note_on_c, 0, 56, 0
2, 34734, Note_on_c, 0, 58, 62
2, 34736, Note_on_c, 0, 68, 0
2, 34798, Note_on_c, 0, 58, 0
2, 34832, Note_on_c, 0, 77, 63
2, 34843, Note_on_c, 0, 59, 58
2, 34874, Note_on_c, 0, 77, 0
2, 34918, Note_on_c, 0, 59, 0
2, 34947, Note_on_c, 0, 56, 55
2, 35013, Note_on_c, 0, 56, 0
2, 35053, Note_on_c, 0, 66, 60
2, 35081, Note_on_c, 0, 58, 49
2, 35161, Note_on_c, 0, 58, 0
2, 35177, Note_on_c, 0, 56, 52
2, 35255, Note_on_c, 0, 56, 0
2, 35273, Control_c, 0, 64, 39
2, 35292, Note_on_c, 0, 54, 56
2, 35321, Note_on_c, 0, 66, 0
2, 35350, Control_c, 0, 64, 40
2, 35368, Note_on_c, 0, 54, 0
2, 35388, Note_on_c, 0, 56, 64
2, 35406, Control_c, 0, 64, 41
2, 35455, Note_on_c, 0, 56, 0
2, 35466, Note_on_c, 0, 78, 75
2, 35504, Note_on_c, 0, 58, 54
2, 35577, Note_on_c, 0, 58, 0
2, 35604, Control_c, 0, 64, 42
2, 35604, Note_on_c, 0, 54, 60
2, 35702, Note_on_c, 0, 54, 0
2, 35708, Note_on_c, 0, 56, 60
2, 35781, Note_on_c, 0, 56, 0
2, 35810, Note_on_c, 0, 58, 60
2, 35911, Note_on_c, 0, 78, 0
2, 35916, Note_on_c, 0, 58, 0
2, 35931, Note_on_c, 0, 56, 59
2, 35951, Note_on_c, 0, 77, 72
2, 35981, Control_c, 0, 64, 41
2, 35986, Note_on_c, 0, 56, 0
2, 35992, Note_on_c, 0, 54, 60
2, 36041, Note_on_c, 0, 75, 66
2, 36052, Note_on_c, 0, 77, 0
2, 36067, Note_on_c, 0, 54, 0
2, 36120, Note_on_c, 0, 53, 57
2, 36129, Note_on_c, 0, 75, 0
2, 36140, Note_on_c, 0, 73, 75
2, 36185, Note_on_c, 0, 53, 0
2, 36222, Note_on_c, 0, 51, 59
2, 36246, Note_on_c, 0, 75, 67
2, 36276, Note_on_c, 0, 73, 0
2, 36332, Note_on_c, 0, 51, 0
2, 36351, Note_on_c, 0, 49, 52
2, 36359, Note_on_c, 0, 75, 0
2, 36368, Note_on_c, 0, 77, 70
2, 36455, Note_on_c, 0, 77, 0
2, 36456, Note_on_c, 0, 73, 65
2, 36549, Note_on_c, 0, 73, 0
2, 36578, Note_on_c, 0, 68, 62
2, 36651, Note_on_c, 0, 68, 0
2, 36682, Note_on_c, 0, 73, 64
2, 36713, Control_c, 0, 64, 40
2, 36758, Note_on_c, 0, 73, 0
2, 36790, Note_on_c, 0, 77, 68
2, 36805, Note_on_c, 0, 49, 0
2, 36809, Note_on_c, 0, 61, 50
2, 36864, Note_on_c, 0, 61, 0
2, 36871, Note_on_c, 0, 77, 0
2, 36892, Note_on_c, 0, 73, 67
2, 36953, Note_on_c, 0, 73, 0
2, 37019, Note_on_c, 0, 78, 70
2, 37026, Note_on_c, 0, 51, 56
2, 37113, Note_on_c, 0, 78, 0
2, 37131, Note_on_c, 0, 73, 65
2, 37192, Note_on_c, 0, 73, 0
2, 37252, Note_on_c, 0, 78, 77
2, 37347, Note_on_c, 0, 73, 76
2, 37352, Note_on_c, 0, 78, 0
2, 37433, Note_on_c, 0, 73, 0
2, 37469, Note_on_c, 0, 61, 60
2, 37474, Note_on_c, 0, 78, 85
2, 37505, Note_on_c, 0, 51, 0
2, 37540, Note_on_c, 0, 61, 0
2, 37571, Note_on_c, 0, 73, 76
2, 37590, Note_on_c, 0, 78, 0
2, 37669, Note_on_c, 0, 73, 0
2, 37705, Note_on_c, 0, 53, 53
2, 37705, Note_on_c, 0, 80, 77
2, 37810, Note_on_c, 0, 73, 76
2, 37823, Note_on_c, 0, 80, 0
2, 37913, Note_on_c, 0, 73, 0
2, 37934, Note_on_c, 0, 80, 84
2, 38041, Note_on_c, 0, 73, 84
2, 38058, Note_on_c, 0, 80, 0
2, 38158, Note_on_c, 0, 73, 0
2, 38158, Note_on_c, 0, 80, 85
2, 38163, Note_on_c, 0, 61, 59
2, 38214, Note_on_c, 0, 53, 0
2, 38260, Note_on_c, 0, 73, 77
2, 38263, Note_on_c, 0, 61, 0
2, 38289, Note_on_c, 0, 80, 0
2, 38347, Note_on_c, 0, 73, 0
2, 38380, Note_on_c, 0, 82, 83
2, 38387, Note_on_c, 0, 54, 59
2, 38500, Note_on_c, 0, 73, 75
2, 38509, Note_on_c, 0, 82, 0
2, 38591, Note_on_c, 0, 73, 0
2, 38610, Note_on_c, 0, 82, 87
2, 38721, Note_on_c, 0, 73, 75
2, 38741, Note_on_c, 0, 82, 0
2, 38819, Note_on_c, 0, 61, 57
2, 38824, Note_on_c, 0, 54, 0
2, 38827, Note_on_c, 0, 73, 0
2, 38836, Note_on_c, 0, 82, 82
2, 38922, Note_on_c, 0, 61, 0
2, 38955, Note_on_c, 0, 73, 71
2, 38964, Note_on_c, 0, 82, 0
2, 39055, Note_on_c, 0, 53, 54
2, 39055, Note_on_c, 0, 73, 0
2, 39064, Note_on_c, 0, 80, 76
2, 39182, Note_on_c, 0, 73, 76
2, 39193, Note_on_c, 0, 80, 0
2, 39270, Note_on_c, 0, 73, 0
2, 39300, Note_on_c, 0, 80, 82
2, 39410, Note_on_c, 0, 73, 73
2, 39423, Note_on_c, 0, 80, 0
2, 39492, Note_on_c, 0, 61, 62
2, 39496, Note_on_c, 0, 53, 0
2, 39518, Note_on_c, 0, 73, 0
2, 39521, Note_on_c, 0, 80, 78
2, 39598, Note_on_c, 0, 61, 0
2, 39627, Note_on_c, 0, 73, 73
2, 39631, Note_on_c, 0, 80, 0
2, 39741, Note_on_c, 0, 51, 65
2, 39744, Note_on_c, 0, 73, 0
2, 39750, Note_on_c, 0, 78, 71
2, 39849, Note_on_c, 0, 77, 74
2, 39909, Note_on_c, 0, 78, 0
2, 39960, Note_on_c, 0, 75, 76
2, 39964, Note_on_c, 0, 77, 0
2, 40059, Note_on_c, 0, 77, 75
2, 40097, Note_on_c, 0, 75, 0
2, 40114, Note_on_c, 0, 51, 0
2, 40165, Note_on_c, 0, 60, 68
2, 40165, Note_on_c, 0, 78, 77
2, 40184, Note_on_c, 0, 77, 0
2, 40234, Note_on_c, 0, 60, 0
2, 40261, Note_on_c, 0, 75, 68
2, 40274, Note_on_c, 0, 78, 0
2, 40364, Control_c, 0, 64, 41
2, 40381, Note_on_c, 0, 75, 0
2, 40381, Note_on_c, 0, 77, 80
2, 40394, Note_on_c, 0, 49, 65
2, 40481, Note_on_c, 0, 75, 70
2, 40492, Note_on_c, 0, 77, 0
2, 40587, Note_on_c, 0, 73, 78
2, 40587, Note_on_c, 0, 75, 0
2, 40685, Note_on_c, 0, 75, 73
2, 40721, Note_on_c, 0, 73, 0
2, 40769, Note_on_c, 0, 49, 0
2, 40796, Note_on_c, 0, 75, 0
2, 40803, Note_on_c, 0, 77, 78
2, 40807, Note_on_c, 0, 61, 76
2, 40862, Note_on_c, 0, 61, 0
2, 40882, Control_c, 0, 64, 40
2, 40902, Note_on_c, 0, 73, 80
2, 40916, Note_on_c, 0, 77, 0
2, 41019, Note_on_c, 0, 75, 75
2, 41026, Note_on_c, 0, 54, 72
2, 41046, Note_on_c, 0, 73, 0
2, 41053, Control_c, 0, 64, 39
2, 41081, Note_on_c, 0, 54, 0
2, 41111, Note_on_c, 0, 75, 0
2, 41128, Note_on_c, 0, 77, 75
2, 41220, Note_on_c, 0, 77, 0
2, 41238, Note_on_c, 0, 53, 67
2, 41238, Note_on_c, 0, 75, 75
2, 41285, Note_on_c, 0, 53, 0
2, 41342, Note_on_c, 0, 73, 71
2, 41347, Note_on_c, 0, 75, 0
2, 41434, Note_on_c, 0, 73, 0
2, 41445, Note_on_c, 0, 72, 71
2, 41455, Note_on_c, 0, 51, 73
2, 41498, Note_on_c, 0, 51, 0
2, 41506, Note_on_c, 0, 72, 0
2, 41555, Note_on_c, 0, 70, 69
2, 41623, Note_on_c, 0, 70, 0
2, 41676, Note_on_c, 0, 72, 69
2, 41687, Note_on_c, 0, 56, 67
2, 41742, Note_on_c, 0, 56, 0
2, 41768, Control_c, 0, 64, 38
2, 41768, Note_on_c, 0, 72, 0
2, 41777, Note_on_c, 0, 68, 67
2, 41831, Note_on_c, 0, 68, 0
2, 41907, Note_on_c, 0, 66, 57
2, 41962, Note_on_c, 0, 66, 0
2, 42009, Note_on_c, 0, 68, 56
2, 42065, Note_on_c, 0, 68, 0
2, 42130, Note_on_c, 0, 63, 49
2, 42169, Note_on_c, 0, 63, 0
2, 42189, Control_c, 0, 64, 37
2, 42214, Note_on_c, 0, 68, 57
2, 42274, Note_on_c, 0, 68, 0
2, 42348, Note_on_c, 0, 56, 48
2, 42361, Note_on_c, 0, 72, 58
2, 42411, Note_on_c, 0, 56, 0
2, 42430, Note_on_c, 0, 72, 0
2, 42463, Note_on_c, 0, 68, 53
2, 42518, Note_on_c, 0, 68, 0
2, 42568, Note_on_c, 0, 66, 45
2, 42622, Note_on_c, 0, 66, 0
2, 42684, Note_on_c, 0, 68, 47
2, 42738, Note_on_c, 0, 68, 0
2, 42773, Note_on_c, 0, 63, 47
2, 42818, Note_on_c, 0, 63, 0
2, 42886, Note_on_c, 0, 68, 57
2, 42949, Note_on_c, 0, 68, 0
2, 43021, Note_on_c, 0, 56, 50
2, 43025, Note_on_c, 0, 73, 63
2, 43080, Note_on_c, 0, 56, 0
2, 43113, Note_on_c, 0, 73, 0
2, 43134, Note_on_c, 0, 68, 49
2, 43177, Note_on_c, 0, 68, 0
2, 43255, Note_on_c, 0, 65, 43
2, 43309, Note_on_c, 0, 65, 0
2, 43357, Note_on_c, 0, 68, 43
2, 43413, Note_on_c, 0, 68, 0
2, 43467, Note_on_c, 0, 61, 51
2, 43518, Note_on_c, 0, 61, 0
2, 43570, Note_on_c, 0, 68, 56
2, 43630, Note_on_c, 0, 68, 0
2, 43699, Note_on_c, 0, 73, 64
2, 43704, Note_on_c, 0, 56, 52
2, 43773, Note_on_c, 0, 56, 0
2, 43790, Note_on_c, 0, 73, 0
2, 43815, Note_on_c, 0, 68, 52
2, 43863, Note_on_c, 0, 68, 0
2, 43922, Note_on_c, 0, 65, 45
2, 43977, Note_on_c, 0, 65, 0
2, 44017, Note_on_c, 0, 68, 59
2, 44068, Note_on_c, 0, 68, 0
2, 44126, Note_on_c, 0, 61, 50
2, 44182, Note_on_c, 0, 61, 0
2, 44230, Note_on_c, 0, 68, 60
2, 44288, Note_on_c, 0, 68, 0
2, 44359, Note_on_c, 0, 78, 67
2, 44370, Note_on_c, 0, 56, 50
2, 44437, Note_on_c, 0, 56, 0
2, 44472, Note_on_c, 0, 78, 0
2, 44490, Note_on_c, 0, 68, 59
2, 44539, Note_on_c, 0, 68, 0
2, 44595, Note_on_c, 0, 63, 46
2, 44654, Note_on_c, 0, 63, 0
2, 44689, Note_on_c, 0, 68, 58
2, 44754, Note_on_c, 0, 68, 0
2, 44805, Note_on_c, 0, 60, 57
2, 44863, Note_on_c, 0, 60, 0
2, 44900, Note_on_c, 0, 68, 63
2, 44958, Note_on_c, 0, 68, 0
2, 45019, Note_on_c, 0, 78, 76
2, 45038, Note_on_c, 0, 56, 56
2, 45097, Note_on_c, 0, 56, 0
2, 45132, Note_on_c, 0, 68, 62
2, 45138, Note_on_c, 0, 78, 0
2, 45187, Note_on_c, 0, 68, 0
2, 45249, Note_on_c, 0, 63, 55
2, 45311, Note_on_c, 0, 63, 0
2, 45339, Note_on_c, 0, 68, 66
2, 45430, Note_on_c, 0, 68, 0
2, 45470, Note_on_c, 0, 60, 60
2, 45526, Note_on_c, 0, 60, 0
2, 45576, Note_on_c, 0, 68, 67
2, 45627, Note_on_c, 0, 68, 0
2, 45688, Note_on_c, 0, 77, 77
2, 45692, Note_on_c, 0, 56, 63
2, 45756, Note_on_c, 0, 56, 0
2, 45789, Note_on_c, 0, 77, 0
2, 45819, Note_on_c, 0, 68, 61
2, 45867, Note_on_c, 0, 68, 0
2, 45910, Note_on_c, 0, 65, 54
2, 45968, Note_on_c, 0, 65, 0
2, 46013, Note_on_c, 0, 68, 61
2, 46093, Note_on_c, 0, 68, 0
2, 46122, Note_on_c, 0, 61, 63
2, 46178, Note_on_c, 0, 61, 0
2, 46230, Note_on_c, 0, 68, 70
2, 46304, Note_on_c, 0, 68, 0
2, 46349, Note_on_c, 0, 77, 81
2, 46365, Note_on_c, 0, 56, 67
2, 46441, Note_on_c, 0, 56, 0
2, 46445, Note_on_c, 0, 77, 0
2, 46462, Note_on_c, 0, 68, 70
2, 46546, Note_on_c, 0, 68, 0
2, 46588, Note_on_c, 0, 65, 62
2, 46668, Note_on_c, 0, 65, 0
2, 46691, Note_on_c, 0, 68, 70
2, 46786, Note_on_c, 0, 68, 0
2, 46809, Note_on_c, 0, 61, 67
2, 46890, Note_on_c, 0, 61, 0
2, 46911, Note_on_c, 0, 68, 74
2, 46988, Note_on_c, 0, 68, 0
2, 47034, Note_on_c, 0, 56, 73
2, 47035, Note_on_c, 0, 79, 81
2, 47124, Note_on_c, 0, 56, 0
2, 47143, Note_on_c, 0, 79, 0
2, 47156, Note_on_c, 0, 70, 65
2, 47214, Note_on_c, 0, 70, 0
2, 47266, Note_on_c, 0, 64, 69
2, 47324, Note_on_c, 0, 64, 0
2, 47365, Note_on_c, 0, 70, 64
2, 47449, Note_on_c, 0, 70, 0
2, 47481, Note_on_c, 0, 61, 68
2, 47555, Note_on_c, 0, 61, 0
2, 47584, Note_on_c, 0, 70, 73
2, 47671, Note_on_c, 0, 70, 0
2, 47708, Note_on_c, 0, 79, 84
2, 47715, Note_on_c, 0, 56, 75
2, 47815, Note_on_c, 0, 79, 0
2, 47825, Note_on_c, 0, 56, 0
2, 47825, Note_on_c, 0, 70, 67
2, 47909, Note_on_c, 0, 70, 0
2, 47945, Note_on_c, 0, 64, 73
2, 48027, Note_on_c, 0, 64, 0
2, 48053, Note_on_c, 0, 70, 71
2, 48154, Note_on_c, 0, 70, 0
2, 48159, Note_on_c, 0, 61, 73
2, 48246, Note_on_c, 0, 61, 0
2, 48281, Note_on_c, 0, 70, 77
2, 48330, Note_on_c, 0, 70, 0
2, 48386, Note_on_c, 0, 56, 77
2, 48392, Note_on_c, 0, 80, 86
2, 48497, Note_on_c, 0, 56, 0
2, 48511, Note_on_c, 0, 72, 78
2, 48538, Note_on_c, 0, 80, 0
2, 48583, Note_on_c, 0, 72, 0
2, 48629, Note_on_c, 0, 63, 74
2, 48725, Note_on_c, 0, 72, 75
2, 48727, Note_on_c, 0, 63, 0
2, 48811, Note_on_c, 0, 72, 0
2, 48841, Note_on_c, 0, 60, 76
2, 48935, Note_on_c, 0, 60, 0
2, 48949, Note_on_c, 0, 72, 81
2, 49020, Note_on_c, 0, 72, 0
2, 49068, Note_on_c, 0, 54, 80
2, 49072, Note_on_c, 0, 80, 87
2, 49168, Note_on_c, 0, 72, 75
2, 49200, Note_on_c, 0, 54, 0
2, 49221, Note_on_c, 0, 80, 0
2, 49262, Note_on_c, 0, 72, 0
2, 49294, Note_on_c, 0, 63, 76
2, 49380, Note_on_c, 0, 63, 0
2, 49397, Note_on_c, 0, 72, 81
2, 49485, Note_on_c, 0, 72, 0
2, 49514, Note_on_c, 0, 60, 78
2, 49625, Note_on_c, 0, 72, 81
2, 49649, Note_on_c, 0, 60, 0
2, 49698, Note_on_c, 0, 72, 0
2, 49750, Note_on_c, 0, 53, 81
2, 49750, Note_on_c, 0, 80, 85
2, 49859, Note_on_c, 0, 73, 80
2, 49866, Note_on_c, 0, 53, 0
2, 49887, Note_on_c, 0, 80, 0
2, 49961, Note_on_c, 0, 73, 0
2, 49977, Note_on_c, 0, 65, 80
2, 50066, Note_on_c, 0, 65, 0
2, 50079, Note_on_c, 0, 68, 85
2, 50152, Note_on_c, 0, 68, 0
2, 50194, Note_on_c, 0, 61, 81
2, 50305, Note_on_c, 0, 73, 89
2, 50320, Note_on_c, 0, 61, 0
2, 50406, Note_on_c, 0, 73, 0
2, 50421, Note_on_c, 0, 56, 86
2, 50514, Note_on_c, 0, 56, 0
2, 50536, Note_on_c, 0, 77, 92
2, 50632, Note_on_c, 0, 77, 0
2, 50641, Note_on_c, 0, 53, 86
2, 50749, Note_on_c, 0, 53, 0
2, 50771, Note_on_c, 0, 80, 89
2, 50877, Note_on_c, 0, 80, 0
2, 50879, Note_on_c, 0, 51, 88
2, 50996, Note_on_c, 0, 82, 81
2, 51000, Note_on_c, 0, 51, 0
2, 51090, Note_on_c, 0, 82, 0
2, 51122, Note_on_c, 0, 50, 83
2, 51126, Note_on_c, 0, 83, 85
2, 51130, Control_c, 0, 64, 38
2, 51235, Note_on_c, 0, 82, 79
2, 51258, Note_on_c, 0, 50, 0
2, 51305, Note_on_c, 0, 83, 0
2, 51345, Note_on_c, 0, 53, 78
2, 51350, Note_on_c, 0, 80, 77
2, 51422, Note_on_c, 0, 82, 0
2, 51445, Note_on_c, 0, 78, 82
2, 51454, Note_on_c, 0, 53, 0
2, 51471, Note_on_c, 0, 80, 0
2, 51558, Note_on_c, 0, 58, 80
2, 51563, Note_on_c, 0, 77, 82
2, 51576, Note_on_c, 0, 78, 0
2, 51657, Note_on_c, 0, 58, 0
2, 51677, Note_on_c, 0, 75, 81
2, 51677, Note_on_c, 0, 77, 0
2, 51777, Note_on_c, 0, 75, 0
2, 51788, Note_on_c, 0, 62, 80
2, 51794, Note_on_c, 0, 77, 89
2, 51844, Control_c, 0, 64, 37
2, 51886, Note_on_c, 0, 62, 0
2, 51901, Note_on_c, 0, 78, 83
2, 51922, Note_on_c, 0, 77, 0
2, 52016, Note_on_c, 0, 65, 74
2, 52016, Note_on_c, 0, 80, 83
2, 52063, Note_on_c, 0, 78, 0
2, 52119, Note_on_c, 0, 65, 0
2, 52119, Note_on_c, 0, 83, 79
2, 52132, Note_on_c, 0, 80, 0
2, 52231, Note_on_c, 0, 82, 75
2, 52240, Note_on_c, 0, 68, 79
2, 52281, Note_on_c, 0, 83, 0
2, 52334, Note_on_c, 0, 80, 80
2, 52338, Note_on_c, 0, 68, 0
2, 52371, Note_on_c, 0, 82, 0
2, 52437, Note_on_c, 0, 80, 0
2, 52457, Note_on_c, 0, 66, 82
2, 52461, Note_on_c, 0, 82, 77
2, 52495, Control_c, 0, 64, 36
2, 52544, Note_on_c, 0, 66, 0
2, 52562, Note_on_c, 0, 75, 81
2, 52566, Note_on_c, 0, 82, 0
2, 52615, Note_on_c, 0, 75, 0
2, 52685, Note_on_c, 0, 63, 78
2, 52735, Note_on_c, 0, 63, 0
2, 52787, Note_on_c, 0, 66, 80
2, 52848, Note_on_c, 0, 66, 0
2, 52898, Note_on_c, 0, 58, 75
2, 52961, Note_on_c, 0, 58, 0
2, 53007, Note_on_c, 0, 70, 79
2, 53076, Note_on_c, 0, 70, 0
2, 53129, Note_on_c, 0, 54, 73
2, 53192, Note_on_c, 0, 54, 0
2, 53230, Note_on_c, 0, 75, 80
2, 53301, Note_on_c, 0, 75, 0
2, 53355, Note_on_c, 0, 51, 76
2, 53446, Note_on_c, 0, 51, 0
2, 53467, Note_on_c, 0, 78, 78
2, 53555, Note_on_c, 0, 78, 0
2, 53578, Note_on_c, 0, 49, 76
2, 53660, Note_on_c, 0, 49, 0
2, 53703, Note_on_c, 0, 80, 80
2, 53796, Note_on_c, 0, 48, 76
2, 53817, Note_on_c, 0, 80, 0
2, 53817, Note_on_c, 0, 81, 81
2, 53889, Note_on_c, 0, 48, 0
2, 53930, Note_on_c, 0, 80, 79
2, 53956, Note_on_c, 0, 81, 0
2, 54016, Note_on_c, 0, 51, 71
2, 54036, Note_on_c, 0, 78, 75
2, 54049, Note_on_c, 0, 80, 0
2, 54094, Note_on_c, 0, 51, 0
2, 54125, Note_on_c, 0, 78, 0
2, 54136, Note_on_c, 0, 76, 69
2, 54233, Note_on_c, 0, 56, 69
2, 54251, Note_on_c, 0, 75, 71
2, 54255, Note_on_c, 0, 76, 0
2, 54290, Note_on_c, 0, 56, 0
2, 54347, Note_on_c, 0, 75, 0
2, 54351, Note_on_c, 0, 73, 76
2, 54462, Note_on_c, 0, 60, 64
2, 54471, Note_on_c, 0, 75, 72
2, 54491, Note_on_c, 0, 73, 0
2, 54550, Note_on_c, 0, 75, 0
2, 54574, Note_on_c, 0, 76, 77
2, 54582, Note_on_c, 0, 60, 0
2, 54678, Note_on_c, 0, 63, 67
2, 54691, Note_on_c, 0, 78, 77
2, 54696, Note_on_c, 0, 76, 0
2, 54750, Note_on_c, 0, 63, 0
2, 54793, Note_on_c, 0, 81, 70
2, 54798, Note_on_c, 0, 78, 0
2, 54902, Note_on_c, 0, 66, 69
2, 54908, Note_on_c, 0, 81, 0
2, 54913, Note_on_c, 0, 80, 74
2, 54952, Note_on_c, 0, 66, 0
2, 54999, Note_on_c, 0, 78, 74
2, 54999, Note_on_c, 0, 80, 0
2, 55117, Note_on_c, 0, 64, 74
2, 55126, Note_on_c, 0, 80, 77
2, 55130, Note_on_c, 0, 78, 0
2, 55201, Note_on_c, 0, 64, 0
2, 55227, Note_on_c, 0, 80, 0
2, 55234, Note_on_c, 0, 73, 74
2, 55286, Note_on_c, 0, 73, 0
2, 55346, Note_on_c, 0, 61, 72
2, 55406, Note_on_c, 0, 61, 0
2, 55451, Note_on_c, 0, 76, 80
2, 55539, Note_on_c, 0, 76, 0
2, 55569, Note_on_c, 0, 57, 78
2, 55663, Note_on_c, 0, 57, 0
2, 55681, Note_on_c, 0, 73, 84
2, 55776, Note_on_c, 0, 73, 0
2, 55798, Note_on_c, 0, 54, 81
2, 55893, Note_on_c, 0, 54, 0
2, 55911, Note_on_c, 0, 69, 79
2, 56001, Note_on_c, 0, 69, 0
2, 56025, Note_on_c, 0, 63, 86
2, 56123, Note_on_c, 0, 63, 0
2, 56130, Note_on_c, 0, 66, 84
2, 56209, Note_on_c, 0, 66, 0
2, 56241, Note_on_c, 0, 60, 78
2, 56333, Note_on_c, 0, 60, 0
2, 56362, Note_on_c, 0, 75, 79
2, 56445, Note_on_c, 0, 75, 0
2, 56471, Note_on_c, 0, 52, 77
2, 56569, Note_on_c, 0, 52, 0
2, 56574, Note_on_c, 0, 68, 78
2, 56655, Note_on_c, 0, 68, 0
2, 56678, Note_on_c, 0, 61, 76
2, 56754, Note_on_c, 0, 61, 0
2, 56804, Note_on_c, 0, 64, 76
2, 56883, Note_on_c, 0, 64, 0
2, 56920, Note_on_c, 0, 57, 75
2, 57024, Note_on_c, 0, 57, 0
2, 57024, Note_on_c, 0, 73, 74
2, 57126, Note_on_c, 0, 73, 0
2, 57144, Note_on_c, 0, 54, 69
2, 57218, Note_on_c, 0, 54, 0
2, 57236, Note_on_c, 0, 69, 66
2, 57307, Note_on_c, 0, 69, 0
2, 57364, Note_on_c, 0, 51, 67
2, 57452, Note_on_c, 0, 66, 65
2, 57456, Note_on_c, 0, 51, 0
2, 57508, Note_on_c, 0, 66, 0
2, 57573, Note_on_c, 0, 48, 63
2, 57646, Note_on_c, 0, 48, 0
2, 57700, Note_on_c, 0, 63, 56
2, 57748, Note_on_c, 0, 63, 0
2, 57850, Note_on_c, 0, 44, 58
2, 57883, Note_on_c, 0, 60, 63
2, 57925, Note_on_c, 0, 44, 0
2, 57952, Note_on_c, 0, 60, 0
2, 57986, Note_on_c, 0, 56, 55
2, 58037, Note_on_c, 0, 56, 0
2, 58091, Note_on_c, 0, 54, 52
2, 58153, Note_on_c, 0, 54, 0
2, 58197, Note_on_c, 0, 56, 56
2, 58258, Note_on_c, 0, 56, 0
2, 58299, Note_on_c, 0, 51, 55
2, 58347, Note_on_c, 0, 51, 0
2, 58408, Note_on_c, 0, 56, 54
2, 58470, Note_on_c, 0, 56, 0
2, 58526, Note_on_c, 0, 60, 61
2, 58533, Note_on_c, 0, 44, 54
2, 58604, Note_on_c, 0, 44, 0
2, 58629, Note_on_c, 0, 60, 0
2, 58636, Note_on_c, 0, 56, 53
2, 58695, Note_on_c, 0, 56, 0
2, 58752, Note_on_c, 0, 54, 55
2, 58814, Note_on_c, 0, 54, 0
2, 58855, Note_on_c, 0, 56, 55
2, 58924, Note_on_c, 0, 56, 0
2, 58969, Note_on_c, 0, 51, 62
2, 59026, Note_on_c, 0, 51, 0
2, 59073, Note_on_c, 0, 56, 65
2, 59136, Note_on_c, 0, 56, 0
2, 59194, Note_on_c, 0, 61, 65
2, 59206, Note_on_c, 0, 44, 62
2, 59279, Note_on_c, 0, 44, 0
2, 59298, Note_on_c, 0, 56, 57
2, 59303, Note_on_c, 0, 61, 0
2, 59359, Note_on_c, 0, 56, 0
2, 59425, Note_on_c, 0, 53, 53
2, 59477, Note_on_c, 0, 53, 0
2, 59536, Note_on_c, 0, 56, 52
2, 59593, Note_on_c, 0, 56, 0
2, 59642, Note_on_c, 0, 49, 56
2, 59704, Note_on_c, 0, 49, 0
2, 59759, Note_on_c, 0, 56, 61
2, 59822, Note_on_c, 0, 56, 0
2, 59884, Note_on_c, 0, 44, 63
2, 59888, Note_on_c, 0, 61, 66
2, 59964, Note_on_c, 0, 44, 0
2, 59982, Note_on_c, 0, 61, 0
2, 60008, Note_on_c, 0, 56, 59
2, 60070, Note_on_c, 0, 56, 0
2, 60110, Note_on_c, 0, 53, 54
2, 60176, Note_on_c, 0, 53, 0
2, 60211, Note_on_c, 0, 56, 58
2, 60275, Note_on_c, 0, 56, 0
2, 60326, Note_on_c, 0, 49, 63
2, 60396, Note_on_c, 0, 49, 0
2, 60421, Note_on_c, 0, 56, 59
2, 60497, Note_on_c, 0, 56, 0
2, 60547, Note_on_c, 0, 66, 73
2, 60570, Note_on_c, 0, 44, 62
2, 60652, Note_on_c, 0, 44, 0
2, 60672, Note_on_c, 0, 56, 61
2, 60672, Note_on_c, 0, 66, 0
2, 60733, Note_on_c, 0, 56, 0
2, 60791, Note_on_c, 0, 51, 60
2, 60860, Note_on_c, 0, 51, 0
2, 60896, Note_on_c, 0, 56, 56
2, 60965, Note_on_c, 0, 56, 0
2, 61011, Note_on_c, 0, 48, 60
2, 61086, Note_on_c, 0, 48, 0
2, 61111, Note_on_c, 0, 56, 57
2, 61168, Note_on_c, 0, 56, 0
2, 61223, Note_on_c, 0, 66, 71
2, 61252, Note_on_c, 0, 44, 58
2, 61339, Note_on_c, 0, 56, 60
2, 61343, Note_on_c, 0, 44, 0
2, 61343, Note_on_c, 0, 66, 0
2, 61408, Note_on_c, 0, 56, 0
2, 61454, Note_on_c, 0, 51, 65
2, 61520, Note_on_c, 0, 51, 0
2, 61567, Note_on_c, 0, 56, 65
2, 61653, Note_on_c, 0, 48, 61
2, 61665, Note_on_c, 0, 56, 0
2, 61730, Note_on_c, 0, 48, 0
2, 61788, Note_on_c, 0, 56, 69
2, 61846, Note_on_c, 0, 56, 0
2, 61896, Note_on_c, 0, 65, 76
2, 61907, Note_on_c, 0, 44, 66
2, 62005, Note_on_c, 0, 56, 67
2, 62007, Note_on_c, 0, 65, 0
2, 62016, Note_on_c, 0, 44, 0
2, 62086, Note_on_c, 0, 56, 0
2, 62121, Note_on_c, 0, 53, 67
2, 62207, Note_on_c, 0, 53, 0
2, 62229, Note_on_c, 0, 56, 70
2, 62323, Note_on_c, 0, 56, 0
2, 62346, Note_on_c, 0, 49, 67
2, 62450, Note_on_c, 0, 49, 0
2, 62452, Note_on_c, 0, 56, 69
2, 62508, Note_on_c, 0, 56, 0
2, 62556, Note_on_c, 0, 65, 78
2, 62583, Note_on_c, 0, 44, 75
2, 62673, Note_on_c, 0, 56, 69
2, 62678, Note_on_c, 0, 65, 0
2, 62689, Note_on_c, 0, 44, 0
2, 62767, Note_on_c, 0, 56, 0
2, 62799, Note_on_c, 0, 53, 75
2, 62889, Note_on_c, 0, 53, 0
2, 62897, Note_on_c, 0, 56, 70
2, 63008, Note_on_c, 0, 56, 0
2, 63010, Note_on_c, 0, 49, 75
2, 63125, Note_on_c, 0, 56, 76
2, 63137, Note_on_c, 0, 49, 0
2, 63196, Note_on_c, 0, 56, 0
2, 63251, Note_on_c, 0, 44, 85
2, 63251, Note_on_c, 0, 67, 80
2, 63365, Note_on_c, 0, 58, 70
2, 63369, Note_on_c, 0, 44, 0
2, 63369, Note_on_c, 0, 67, 0
2, 63456, Note_on_c, 0, 58, 0
2, 63472, Note_on_c, 0, 52, 75
2, 63576, Note_on_c, 0, 52, 0
2, 63594, Note_on_c, 0, 58, 77
2, 63690, Note_on_c, 0, 49, 80
2, 63711, Note_on_c, 0, 58, 0
2, 63804, Note_on_c, 0, 58, 82
2, 63819, Note_on_c, 0, 49, 0
2, 63922, Note_on_c, 0, 67, 83
2, 63926, Note_on_c, 0, 44, 88
2, 63926, Note_on_c, 0, 58, 0
2, 63974, Note_on_c, 0, 66, 45
2, 63994, Control_c, 0, 64, 37
2, 64009, Note_on_c, 0, 66, 0
2, 64037, Note_on_c, 0, 58, 79
2, 64045, Note_on_c, 0, 67, 0
2, 64049, Note_on_c, 0, 44, 0
2, 64135, Note_on_c, 0, 58, 0
2, 64139, Note_on_c, 0, 52, 84
2, 64249, Note_on_c, 0, 58, 85
2, 64258, Note_on_c, 0, 52, 0
2, 64368, Note_on_c, 0, 49, 85
2, 64380, Note_on_c, 0, 58, 0
2, 64437, Control_c, 0, 64, 38
2, 64475, Note_on_c, 0, 58, 82
2, 64521, Note_on_c, 0, 49, 0
2, 64555, Note_on_c, 0, 58, 0
2, 64608, Note_on_c, 0, 44, 92
2, 64685, Control_c, 0, 64, 39
2, 64720, Note_on_c, 0, 48, 82
2, 64753, Note_on_c, 0, 44, 0
2, 64829, Note_on_c, 0, 51, 92
2, 64850, Note_on_c, 0, 48, 0
2, 64911, Note_on_c, 0, 51, 0
2, 64949, Note_on_c, 0, 54, 85
2, 65056, Note_on_c, 0, 57, 83
2, 65089, Control_c, 0, 64, 38
2, 65094, Note_on_c, 0, 54, 0
2, 65165, Note_on_c, 0, 60, 79
2, 65184, Note_on_c, 0, 57, 0
2, 65276, Note_on_c, 0, 61, 79
2, 65281, Note_on_c, 0, 60, 0
2, 65376, Note_on_c, 0, 64, 87
2, 65384, Note_on_c, 0, 61, 0
2, 65486, Note_on_c, 0, 67, 85
2, 65536, Note_on_c, 0, 64, 0
2, 65551, Note_on_c, 0, 67, 0
2, 65593, Note_on_c, 0, 70, 83
2, 65645, Control_c, 0, 64, 39
2, 65699, Note_on_c, 0, 73, 84
2, 65704, Control_c, 0, 64, 40
2, 65745, Control_c, 0, 64, 41
2, 65745, Note_on_c, 0, 70, 0
2, 65780, Control_c, 0, 64, 42
2, 65801, Control_c, 0, 64, 43
2, 65813, Note_on_c, 0, 76, 85
2, 65819, Note_on_c, 0, 73, 0
2, 65840, Control_c, 0, 64, 45
2, 65857, Control_c, 0, 64, 46
2, 65874, Control_c, 0, 64, 48
2, 65898, Control_c, 0, 64, 54
2, 65907, Note_on_c, 0, 76, 0
2, 65914, Control_c, 0, 64, 60
2, 65929, Note_on_c, 0, 72, 89
2, 65935, Control_c, 0, 64, 63
2, 65940, Note_on_c, 0, 44, 86
2, 65951, Control_c, 0, 64, 66
2, 65972, Note_on_c, 0, 44, 0
2, 65975, Control_c, 0, 64, 72
2, 65994, Control_c, 0, 64, 83
2, 66012, Control_c, 0, 64, 100
2, 66030, Control_c, 0, 64, 116
2, 66047, Note_on_c, 0, 72, 0
2, 66047, Note_on_c, 0, 75, 78
2, 66051, Control_c, 0, 64, 127
2, 66158, Note_on_c, 0, 78, 85
2, 66161, Note_on_c, 0, 75, 0
2, 66261, Control_c, 0, 64, 120
2, 66261, Note_on_c, 0, 75, 80
2, 66272, Note_on_c, 0, 78, 0
2, 66281, Control_c, 0, 64, 115
2, 66298, Control_c, 0, 64, 111
2, 66317, Control_c, 0, 64, 109
2, 66336, Control_c, 0, 64, 107
2, 66355, Control_c, 0, 64, 106
2, 66369, Note_on_c, 0, 72, 85
2, 66375, Note_on_c, 0, 75, 0
2, 66380, Control_c, 0, 64, 105
2, 66393, Control_c, 0, 64, 103
2, 66412, Control_c, 0, 64, 97
2, 66432, Control_c, 0, 64, 82
2, 66451, Control_c, 0, 64, 69
2, 66472, Control_c, 0, 64, 59
2, 66476, Note_on_c, 0, 68, 90
2, 66485, Note_on_c, 0, 72, 0
2, 66492, Control_c, 0, 64, 49
2, 66509, Control_c, 0, 64, 43
2, 66568, Note_on_c, 0, 68, 0
2, 66591, Note_on_c, 0, 66, 88
2, 66703, Note_on_c, 0, 66, 0
2, 66707, Note_on_c, 0, 63, 77
2, 66815, Note_on_c, 0, 60, 77
2, 66815, Note_on_c, 0, 63, 0
2, 66894, Control_c, 0, 64, 44
2, 66911, Note_on_c, 0, 56, 77
2, 66915, Note_on_c, 0, 60, 0
2, 66972, Control_c, 0, 64, 45
2, 67034, Note_on_c, 0, 60, 82
2, 67043, Note_on_c, 0, 56, 0
2, 67047, Control_c, 0, 64, 46
2, 67123, Control_c, 0, 64, 47
2, 67147, Note_on_c, 0, 63, 83
2, 67153, Note_on_c, 0, 60, 0
2, 67259, Control_c, 0, 64, 48
2, 67263, Note_on_c, 0, 63, 0
2, 67268, Note_on_c, 0, 56, 84
2, 67277, Note_on_c, 0, 65, 83
2, 67336, Control_c, 0, 64, 49
2, 67374, Control_c, 0, 64, 50
2, 67390, Note_on_c, 0, 68, 84
2, 67395, Control_c, 0, 64, 56
2, 67413, Control_c, 0, 64, 61
2, 67424, Note_on_c, 0, 65, 0
2, 67433, Control_c, 0, 64, 64
2, 67438, Note_on_c, 0, 56, 0
2, 67454, Control_c, 0, 64, 66
2, 67470, Control_c, 0, 64, 69
2, 67489, Control_c, 0, 64, 73
2, 67509, Control_c, 0, 64, 75
2, 67513, Note_on_c, 0, 73, 87
2, 67518, Note_on_c, 0, 68, 0
2, 67586, Control_c, 0, 64, 74
2, 67620, Note_on_c, 0, 68, 86
2, 67623, Control_c, 0, 64, 73
2, 67627, Note_on_c, 0, 73, 0
2, 67664, Control_c, 0, 64, 72
2, 67698, Control_c, 0, 64, 71
2, 67728, Note_on_c, 0, 65, 81
2, 67736, Note_on_c, 0, 68, 0
2, 67817, Control_c, 0, 64, 70
2, 67837, Control_c, 0, 64, 69
2, 67846, Note_on_c, 0, 61, 78
2, 67848, Note_on_c, 0, 65, 0
2, 67855, Control_c, 0, 64, 66
2, 67875, Control_c, 0, 64, 61
2, 67893, Control_c, 0, 64, 55
2, 67913, Control_c, 0, 64, 48
2, 67929, Control_c, 0, 64, 44
2, 67949, Control_c, 0, 64, 43
2, 67958, Note_on_c, 0, 61, 0
2, 67960, Note_on_c, 0, 58, 90
2, 67996, Note_on_c, 0, 49, 43
2, 68042, Note_on_c, 0, 49, 0
2, 68077, Note_on_c, 0, 55, 77
2, 68087, Note_on_c, 0, 58, 0
2, 68144, Control_c, 0, 64, 44
2, 68184, Note_on_c, 0, 52, 81
2, 68213, Note_on_c, 0, 55, 0
2, 68306, Note_on_c, 0, 49, 78
2, 68311, Note_on_c, 0, 52, 0
2, 68371, Control_c, 0, 64, 45
2, 68415, Note_on_c, 0, 52, 73
2, 68439, Note_on_c, 0, 49, 0
2, 68521, Note_on_c, 0, 55, 78
2, 68542, Note_on_c, 0, 52, 0
2, 68594, Note_on_c, 0, 55, 0
2, 68683, Note_on_c, 0, 44, 96
2, 68889, Control_c, 0, 64, 46
2, 69043, Control_c, 0, 64, 51
2, 69061, Control_c, 0, 64, 62
2, 69065, Note_on_c, 0, 65, 91
2, 69070, Note_on_c, 0, 56, 79
2, 69070, Note_on_c, 0, 73, 93
2, 69074, Note_on_c, 0, 53, 70
2, 69079, Control_c, 0, 64, 73
2, 69079, Note_on_c, 0, 49, 63
2, 69100, Control_c, 0, 64, 100
2, 69118, Control_c, 0, 64, 127
2, 69155, Note_on_c, 0, 65, 0
2, 69174, Note_on_c, 0, 53, 0
2, 69178, Note_on_c, 0, 56, 0
2, 69178, Note_on_c, 0, 73, 0
2, 69204, Note_on_c, 0, 49, 0
2, 69233, Control_c, 0, 64, 118
2, 69253, Control_c, 0, 64, 99
2, 69273, Control_c, 0, 64, 87
2, 69293, Control_c, 0, 64, 75
2, 69311, Control_c, 0, 64, 64
2, 69328, Control_c, 0, 64, 56
2, 69348, Control_c, 0, 64, 49
2, 69367, Control_c, 0, 64, 47
2, 69386, Control_c, 0, 64, 46
2, 69542, Control_c, 0, 64, 47
2, 69560, Control_c, 0, 64, 52
2, 69579, Control_c, 0, 64, 64
2, 69589, Note_on_c, 0, 56, 79
2, 69594, Note_on_c, 0, 63, 92
2, 69594, Note_on_c, 0, 72, 92
2, 69598, Control_c, 0, 64, 93
2, 69598, Note_on_c, 0, 54, 72
2, 69618, Control_c, 0, 64, 127
2, 69682, Note_on_c, 0, 56, 0
2, 69682, Note_on_c, 0, 63, 0
2, 69700, Note_on_c, 0, 72, 0
2, 69709, Note_on_c, 0, 54, 0
2, 69809, Control_c, 0, 64, 102
2, 69829, Control_c, 0, 64, 85
2, 69849, Control_c, 0, 64, 76
2, 69867, Control_c, 0, 64, 68
2, 69885, Control_c, 0, 64, 63
2, 69905, Control_c, 0, 64, 61
2, 69926, Control_c, 0, 64, 60
2, 69944, Control_c, 0, 64, 59
2, 69962, Control_c, 0, 64, 58
2, 69984, Control_c, 0, 64, 55
2, 70002, Control_c, 0, 64, 48
2, 70021, Control_c, 0, 64, 42
2, 70040, Control_c, 0, 64, 38
2, 70058, Control_c, 0, 64, 36
2, 70155, Control_c, 0, 64, 37
2, 70192, Control_c, 0, 64, 38
2, 70213, Control_c, 0, 64, 39
2, 70249, Control_c, 0, 64, 40
2, 70271, Control_c, 0, 64, 41
2, 70290, Control_c, 0, 64, 42
2, 70347, Control_c, 0, 64, 43
2, 70400, Note_on_c, 0, 73, 94
2, 70409, Note_on_c, 0, 56, 72
2, 70409, Note_on_c, 0, 61, 85
2, 70409, Note_on_c, 0, 68, 73
2, 70413, Note_on_c, 0, 53, 74
2, 70415, Note_on_c, 0, 49, 63
2, 70445, Control_c, 0, 64, 44
2, 70477, Note_on_c, 0, 44, 0
2, 70732, Control_c, 0, 64, 45
2, 70884, Control_c, 0, 64, 46
2, 70943, Control_c, 0, 64, 47
2, 70999, Control_c, 0, 64, 48
2, 71037, Control_c, 0, 64, 49
2, 71096, Control_c, 0, 64, 50
2, 71173, Control_c, 0, 64, 52
2, 71190, Control_c, 0, 64, 53
2, 71211, Control_c, 0, 64, 54
2, 71249, Control_c, 0, 64, 55
2, 71307, Control_c, 0, 64, 56
2, 71325, Control_c, 0, 64, 57
2, 71385, Control_c, 0, 64, 58
2, 71460, Control_c, 0, 64, 59
2, 71498, Control_c, 0, 64, 60
2, 71556, Control_c, 0, 64, 61
2, 71633, Control_c, 0, 64, 62
2, 71691, Control_c, 0, 64, 63
2, 71747, Control_c, 0, 64, 64
2, 71787, Control_c, 0, 64, 65
2, 71823, Control_c, 0, 64, 66
2, 71844, Control_c, 0, 64, 67
2, 71864, Control_c, 0, 64, 69
2, 71883, Control_c, 0, 64, 71
2, 71901, Control_c, 0, 64, 73
2, 71919, Control_c, 0, 64, 75
2, 71939, Control_c, 0, 64, 77
2, 71961, Control_c, 0, 64, 79
2, 71980, Control_c, 0, 64, 81
2, 72016, Control_c, 0, 64, 82
2, 72247, Control_c, 0, 64, 83
2, 72284, Note_on_c, 0, 53, 0
2, 72384, Note_on_c, 0, 49, 0
2, 72426, Note_on_c, 0, 56, 0
2, 72518, Note_on_c, 0, 73, 0
2, 72524, Note_on_c, 0, 61, 0
2, 72544, Note_on_c, 0, 68, 0
2, 72576, Control_c, 0, 64, 82
2, 72631, Control_c, 0, 64, 81
2, 72650, Control_c, 0, 64, 80
2, 72670, Control_c, 0, 64, 78
2, 72689, Control_c, 0, 64, 75
2, 72707, Control_c, 0, 64, 73
2, 72730, Control_c, 0, 64, 71
2, 72746, Control_c, 0, 64, 67
2, 72767, Control_c, 0, 64, 62
2, 72785, Control_c, 0, 64, 58
2, 72805, Control_c, 0, 64, 57
2, 72822, Control_c, 0, 64, 56
2, 72842, Control_c, 0, 64, 53
2, 72864, Control_c, 0, 64, 47
2, 72879, Control_c, 0, 64, 41
2, 72900, Control_c, 0, 64, 36
2, 72920, Control_c, 0, 64, 28
2, 72937, Control_c, 0, 64, 0
2, 76429,End_track
0, 0, End_of_file
