0, 0, Header, 1, 2, 480
1, 0, Start_track
1, 0, Tempo, 500000
1, 0, Time_signature, 4, 2, 24, 8
1, 1, End_track
2,0,Start_track
2,0, Note_on_c, 0, 68, 72
2,51, Note_on_c, 0, 68, 0
2,297, Note_on_c, 0, 70, 64
2,401, Note_on_c, 0, 70, 0
2,435, Note_on_c, 0, 68, 69
2,515, Note_on_c, 0, 68, 0
2,570, Note_on_c, 0, 66, 66
2,610, Note_on_c, 0, 66, 0
2,680, Note_on_c, 0, 68, 72
2,754, Note_on_c, 0, 68, 0
2,834, Note_on_c, 0, 77, 86
2,903, Note_on_c, 0, 77, 0
2,1134, Note_on_c, 0, 73, 81
2,1183, Note_on_c, 0, 73, 0
2,1449, Note_on_c, 0, 68, 83
2,1714, Note_on_c, 0, 68, 0
2,1768, Note_on_c, 0, 66, 70
2,1821, Note_on_c, 0, 66, 0
2,1884, Note_on_c, 0, 65, 67
2,1951, Note_on_c, 0, 65, 0
2,2017, Note_on_c, 0, 66, 75
2,2065, Note_on_c, 0, 66, 0
2,2316, Note_on_c, 0, 75, 74
2,2380, Note_on_c, 0, 75, 0
2,2612, Note_on_c, 0, 65, 68
2,2659, Note_on_c, 0, 65, 0
2,2908, Note_on_c, 0, 73, 75
2,2985, Note_on_c, 0, 73, 0
2,3206, Note_on_c, 0, 63, 65
2,3258, Note_on_c, 0, 63, 0
2,3520, Note_on_c, 0, 72, 74
2,3575, Note_on_c, 0, 72, 0
2,3837, Note_on_c, 0, 61, 65
2,3879, Note_on_c, 0, 61, 0
2,4166, Note_on_c, 0, 73, 66
2,4223, Note_on_c, 0, 73, 0
2,4287, Note_on_c, 0, 72, 71
2,4347, Note_on_c, 0, 72, 0
2,4435, Note_on_c, 0, 73, 71
2,4547, Note_on_c, 0, 73, 0
2,4568, Note_on_c, 0, 75, 67
2,4658, Note_on_c, 0, 75, 0
2,4716, Note_on_c, 0, 61, 64
2,4718, Note_on_c, 0, 77, 78
2,4750, Note_on_c, 0, 61, 0
2,4783, Note_on_c, 0, 77, 0
2,4847, Note_on_c, 0, 78, 74
2,4945, Note_on_c, 0, 78, 0
2,5006, Note_on_c, 0, 65, 72
2,5011, Note_on_c, 0, 80, 79
2,5080, Note_on_c, 0, 65, 0
2,5122, Note_on_c, 0, 80, 0
2,5138, Note_on_c, 0, 79, 80
2,5151, Note_on_c, 0, 63, 75
2,5228, Note_on_c, 0, 79, 0
2,5268, Note_on_c, 0, 63, 0
2,5275, Note_on_c, 0, 77, 82
2,5283, Note_on_c, 0, 61, 70
2,5343, Note_on_c, 0, 77, 0
2,5361, Note_on_c, 0, 61, 0
2,5402, Note_on_c, 0, 79, 85
2,5406, Note_on_c, 0, 63, 79
2,5487, Note_on_c, 0, 79, 0
2,5492, Note_on_c, 0, 63, 0
2,5547, Note_on_c, 0, 80, 83
2,5551, Note_on_c, 0, 72, 90
2,5615, Note_on_c, 0, 72, 0
2,5657, Note_on_c, 0, 80, 0
2,5687, Note_on_c, 0, 78, 82
2,5785, Note_on_c, 0, 78, 0
2,5838, Note_on_c, 0, 68, 84
2,5842, Note_on_c, 0, 77, 81
2,5876, Note_on_c, 0, 68, 0
2,5898, Note_on_c, 0, 77, 0
2,5973, Note_on_c, 0, 75, 71
2,6072, Note_on_c, 0, 75, 0
2,6140, Note_on_c, 0, 63, 79
2,6147, Note_on_c, 0, 77, 75
2,6424, Note_on_c, 0, 63, 0
2,6464, Note_on_c, 0, 61, 74
2,6535, Note_on_c, 0, 61, 0
2,6596, Note_on_c, 0, 60, 73
2,6677, Note_on_c, 0, 60, 0
2,6732, Note_on_c, 0, 61, 78
2,6797, Note_on_c, 0, 77, 0
2,6806, Note_on_c, 0, 61, 0
2,6866, Note_on_c, 0, 75, 77
2,6968, Note_on_c, 0, 75, 0
2,7010, Note_on_c, 0, 70, 85
2,7020, Note_on_c, 0, 73, 81
2,7088, Note_on_c, 0, 70, 0
2,7134, Note_on_c, 0, 73, 0
2,7157, Note_on_c, 0, 77, 80
2,7260, Note_on_c, 0, 77, 0
2,7303, Note_on_c, 0, 60, 79
2,7318, Note_on_c, 0, 75, 76
2,7362, Note_on_c, 0, 60, 0
2,7423, Note_on_c, 0, 75, 0
2,7443, Note_on_c, 0, 73, 78
2,7535, Note_on_c, 0, 73, 0
2,7600, Note_on_c, 0, 68, 77
2,7600, Note_on_c, 0, 72, 72
2,7652, Note_on_c, 0, 72, 0
2,7665, Note_on_c, 0, 68, 0
2,7735, Note_on_c, 0, 75, 70
2,7840, Note_on_c, 0, 75, 0
2,7889, Note_on_c, 0, 58, 66
2,7893, Note_on_c, 0, 73, 73
2,7948, Note_on_c, 0, 58, 0
2,7971, Note_on_c, 0, 73, 0
2,8031, Note_on_c, 0, 72, 72
2,8091, Note_on_c, 0, 72, 0
2,8179, Note_on_c, 0, 67, 64
2,8186, Note_on_c, 0, 73, 76
2,8251, Note_on_c, 0, 67, 0
2,8276, Note_on_c, 0, 73, 0
2,8313, Note_on_c, 0, 70, 76
2,8411, Note_on_c, 0, 70, 0
2,8469, Note_on_c, 0, 72, 91
2,8478, Note_on_c, 0, 56, 70
2,8540, Note_on_c, 0, 72, 0
2,8743, Note_on_c, 0, 56, 0
2,8798, Note_on_c, 0, 68, 68
2,8812, Note_on_c, 0, 75, 81
2,8897, Note_on_c, 0, 75, 0
2,8909, Note_on_c, 0, 68, 0
2,8930, Note_on_c, 0, 67, 76
2,9042, Note_on_c, 0, 67, 0
2,9093, Note_on_c, 0, 68, 84
2,9093, Note_on_c, 0, 78, 94
2,9227, Note_on_c, 0, 70, 69
2,9244, Note_on_c, 0, 68, 0
2,9337, Note_on_c, 0, 70, 0
2,9388, Note_on_c, 0, 56, 85
2,9392, Note_on_c, 0, 72, 76
2,9449, Note_on_c, 0, 56, 0
2,9479, Note_on_c, 0, 72, 0
2,9503, Note_on_c, 0, 78, 0
2,9503, Note_on_c, 0, 78, 31
2,9535, Note_on_c, 0, 68, 72
2,9634, Note_on_c, 0, 68, 0
2,9696, Note_on_c, 0, 58, 87
2,9703, Note_on_c, 0, 73, 77
2,9776, Note_on_c, 0, 58, 0
2,9819, Note_on_c, 0, 73, 0
2,9828, Note_on_c, 0, 56, 85
2,9837, Note_on_c, 0, 72, 72
2,9907, Note_on_c, 0, 56, 0
2,9965, Note_on_c, 0, 54, 83
2,9970, Note_on_c, 0, 72, 0
2,9977, Note_on_c, 0, 70, 78
2,10002, Note_on_c, 0, 78, 0
2,10058, Note_on_c, 0, 54, 0
2,10095, Note_on_c, 0, 56, 88
2,10108, Note_on_c, 0, 70, 0
2,10110, Note_on_c, 0, 72, 80
2,10193, Note_on_c, 0, 56, 0
2,10205, Note_on_c, 0, 72, 0
2,10257, Note_on_c, 0, 65, 86
2,10264, Note_on_c, 0, 73, 74
2,10275, Note_on_c, 0, 77, 75
2,10330, Note_on_c, 0, 65, 0
2,10334, Note_on_c, 0, 73, 0
2,10391, Note_on_c, 0, 72, 70
2,10466, Note_on_c, 0, 72, 0
2,10550, Note_on_c, 0, 61, 79
2,10568, Note_on_c, 0, 70, 71
2,10614, Note_on_c, 0, 61, 0
2,10649, Note_on_c, 0, 70, 0
2,10686, Note_on_c, 0, 68, 70
2,10778, Note_on_c, 0, 68, 0
2,10852, Note_on_c, 0, 56, 79
2,10871, Note_on_c, 0, 70, 72
2,10955, Note_on_c, 0, 77, 0
2,11164, Note_on_c, 0, 56, 0
2,11182, Note_on_c, 0, 54, 75
2,11284, Note_on_c, 0, 54, 0
2,11311, Note_on_c, 0, 53, 76
2,11403, Note_on_c, 0, 53, 0
2,11457, Note_on_c, 0, 70, 0
2,11466, Note_on_c, 0, 54, 79
2,11479, Note_on_c, 0, 75, 79
2,11547, Note_on_c, 0, 54, 0
2,11601, Note_on_c, 0, 68, 76
2,11718, Note_on_c, 0, 68, 0
2,11760, Note_on_c, 0, 63, 80
2,11760, Note_on_c, 0, 66, 75
2,11840, Note_on_c, 0, 63, 0
2,11897, Note_on_c, 0, 70, 73
2,11920, Note_on_c, 0, 66, 0
2,12056, Note_on_c, 0, 53, 84
2,12056, Note_on_c, 0, 68, 84
2,12078, Note_on_c, 0, 75, 0
2,12132, Note_on_c, 0, 53, 0
2,12154, Note_on_c, 0, 70, 0
2,12199, Note_on_c, 0, 66, 74
2,12258, Note_on_c, 0, 68, 0
2,12337, Note_on_c, 0, 66, 0
2,12354, Note_on_c, 0, 73, 83
2,12361, Note_on_c, 0, 61, 76
2,12371, Note_on_c, 0, 65, 71
2,12392, Control_c, 0, 64, 8
2,12429, Control_c, 0, 64, 9
2,12451, Control_c, 0, 64, 10
2,12451, Note_on_c, 0, 61, 0
2,12469, Control_c, 0, 64, 12
2,12486, Control_c, 0, 64, 14
2,12505, Note_on_c, 0, 68, 80
2,12505, Note_on_c, 0, 73, 0
2,12509, Control_c, 0, 64, 16
2,12524, Control_c, 0, 64, 18
2,12543, Control_c, 0, 64, 20
2,12552, Note_on_c, 0, 65, 0
2,12563, Control_c, 0, 64, 22
2,12583, Control_c, 0, 64, 24
2,12601, Control_c, 0, 64, 25
2,12621, Control_c, 0, 64, 26
2,12639, Control_c, 0, 64, 27
2,12652, Note_on_c, 0, 72, 79
2,12662, Control_c, 0, 64, 28
2,12666, Note_on_c, 0, 51, 78
2,12666, Note_on_c, 0, 66, 69
2,12679, Control_c, 0, 64, 29
2,12683, Note_on_c, 0, 68, 0
2,12699, Control_c, 0, 64, 30
2,12754, Note_on_c, 0, 51, 0
2,12754, Note_on_c, 0, 66, 0
2,12788, Note_on_c, 0, 65, 69
2,12879, Note_on_c, 0, 65, 0
2,12890, Control_c, 0, 64, 31
2,12943, Note_on_c, 0, 75, 79
2,12950, Note_on_c, 0, 66, 72
2,12954, Note_on_c, 0, 60, 74
2,13003, Note_on_c, 0, 72, 0
2,13030, Note_on_c, 0, 66, 0
2,13050, Note_on_c, 0, 60, 0
2,13079, Note_on_c, 0, 63, 75
2,13147, Note_on_c, 0, 63, 0
2,13240, Note_on_c, 0, 49, 71
2,13240, Note_on_c, 0, 65, 75
2,13255, Control_c, 0, 64, 30
2,13292, Note_on_c, 0, 49, 0
2,13314, Control_c, 0, 64, 29
2,13388, Control_c, 0, 64, 28
2,13462, Note_on_c, 0, 65, 0
2,13540, Note_on_c, 0, 75, 0
2,13571, Note_on_c, 0, 68, 77
2,13580, Note_on_c, 0, 61, 58
2,13611, Note_on_c, 0, 68, 0
2,13645, Note_on_c, 0, 61, 0
2,13700, Note_on_c, 0, 60, 58
2,13819, Note_on_c, 0, 60, 0
2,13860, Note_on_c, 0, 77, 71
2,13869, Note_on_c, 0, 61, 51
2,13994, Note_on_c, 0, 61, 0
2,14019, Note_on_c, 0, 63, 51
2,14060, Control_c, 0, 64, 27
2,14090, Note_on_c, 0, 63, 0
2,14149, Note_on_c, 0, 68, 62
2,14170, Note_on_c, 0, 65, 36
2,14198, Note_on_c, 0, 68, 0
2,14240, Note_on_c, 0, 65, 0
2,14287, Note_on_c, 0, 61, 51
2,14369, Control_c, 0, 64, 28
2,14374, Note_on_c, 0, 61, 0
2,14427, Note_on_c, 0, 73, 66
2,14442, Note_on_c, 0, 58, 51
2,14488, Note_on_c, 0, 77, 0
2,14523, Control_c, 0, 64, 29
2,14527, Note_on_c, 0, 58, 0
2,14561, Control_c, 0, 64, 30
2,14589, Note_on_c, 0, 60, 59
2,14598, Control_c, 0, 64, 31
2,14637, Control_c, 0, 64, 32
2,14667, Note_on_c, 0, 60, 0
2,14719, Note_on_c, 0, 73, 0
2,14734, Note_on_c, 0, 61, 54
2,14739, Note_on_c, 0, 77, 70
2,14795, Note_on_c, 0, 77, 0
2,14827, Note_on_c, 0, 61, 0
2,14866, Note_on_c, 0, 58, 58
2,14866, Note_on_c, 0, 73, 70
2,14929, Note_on_c, 0, 58, 0
2,14944, Note_on_c, 0, 73, 0
2,14963, Control_c, 0, 64, 33
2,14982, Control_c, 0, 64, 34
2,15003, Control_c, 0, 64, 35
2,15003, Note_on_c, 0, 70, 70
2,15007, Note_on_c, 0, 55, 59
2,15021, Control_c, 0, 64, 36
2,15041, Control_c, 0, 64, 37
2,15060, Control_c, 0, 64, 38
2,15082, Note_on_c, 0, 55, 0
2,15143, Note_on_c, 0, 56, 62
2,15245, Note_on_c, 0, 56, 0
2,15264, Note_on_c, 0, 70, 0
2,15270, Control_c, 0, 64, 37
2,15294, Note_on_c, 0, 58, 57
2,15294, Note_on_c, 0, 73, 67
2,15346, Control_c, 0, 64, 36
2,15363, Note_on_c, 0, 58, 0
2,15414, Note_on_c, 0, 70, 60
2,15419, Note_on_c, 0, 55, 52
2,15530, Note_on_c, 0, 70, 0
2,15552, Note_on_c, 0, 55, 0
2,15587, Note_on_c, 0, 63, 56
2,15592, Note_on_c, 0, 48, 57
2,15636, Note_on_c, 0, 48, 0
2,15694, Control_c, 0, 64, 35
2,15791, Control_c, 0, 64, 34
2,15846, Control_c, 0, 64, 33
2,15901, Note_on_c, 0, 63, 0
2,15908, Note_on_c, 0, 73, 0
2,15912, Note_on_c, 0, 70, 60
2,15915, Note_on_c, 0, 60, 41
2,15960, Note_on_c, 0, 70, 0
2,15975, Note_on_c, 0, 60, 0
2,16034, Note_on_c, 0, 58, 57
2,16170, Note_on_c, 0, 58, 0
2,16199, Note_on_c, 0, 75, 62
2,16203, Note_on_c, 0, 60, 51
2,16296, Note_on_c, 0, 60, 0
2,16344, Note_on_c, 0, 61, 54
2,16460, Note_on_c, 0, 61, 0
2,16467, Note_on_c, 0, 67, 60
2,16497, Note_on_c, 0, 63, 49
2,16515, Note_on_c, 0, 67, 0
2,16572, Note_on_c, 0, 63, 0
2,16625, Note_on_c, 0, 60, 59
2,16634, Control_c, 0, 64, 34
2,16763, Note_on_c, 0, 60, 0
2,16779, Note_on_c, 0, 72, 66
2,16792, Note_on_c, 0, 56, 59
2,16806, Note_on_c, 0, 75, 0
2,16883, Control_c, 0, 64, 35
2,16918, Note_on_c, 0, 56, 0
2,16940, Note_on_c, 0, 58, 60
2,17021, Note_on_c, 0, 58, 0
2,17053, Note_on_c, 0, 72, 0
2,17069, Note_on_c, 0, 75, 69
2,17086, Note_on_c, 0, 60, 56
2,17158, Note_on_c, 0, 60, 0
2,17198, Note_on_c, 0, 72, 68
2,17202, Note_on_c, 0, 56, 62
2,17225, Note_on_c, 0, 75, 0
2,17294, Note_on_c, 0, 72, 0
2,17311, Note_on_c, 0, 56, 0
2,17341, Note_on_c, 0, 68, 71
2,17353, Note_on_c, 0, 53, 65
2,17453, Note_on_c, 0, 53, 0
2,17487, Note_on_c, 0, 55, 68
2,17571, Note_on_c, 0, 55, 0
2,17629, Note_on_c, 0, 56, 67
2,17633, Note_on_c, 0, 68, 0
2,17644, Note_on_c, 0, 72, 72
2,17730, Note_on_c, 0, 56, 0
2,17756, Note_on_c, 0, 53, 57
2,17768, Note_on_c, 0, 68, 70
2,17892, Note_on_c, 0, 68, 0
2,17914, Note_on_c, 0, 53, 0
2,17935, Note_on_c, 0, 46, 62
2,17935, Note_on_c, 0, 61, 65
2,17992, Note_on_c, 0, 46, 0
2,18204, Note_on_c, 0, 72, 0
2,18224, Note_on_c, 0, 61, 0
2,18248, Note_on_c, 0, 68, 71
2,18262, Note_on_c, 0, 58, 58
2,18310, Note_on_c, 0, 68, 0
2,18341, Control_c, 0, 64, 34
2,18365, Note_on_c, 0, 58, 0
2,18386, Note_on_c, 0, 56, 64
2,18494, Note_on_c, 0, 56, 0
2,18523, Note_on_c, 0, 58, 64
2,18530, Note_on_c, 0, 73, 72
2,18639, Note_on_c, 0, 58, 0
2,18662, Note_on_c, 0, 60, 64
2,18780, Note_on_c, 0, 60, 0
2,18820, Note_on_c, 0, 61, 56
2,18820, Note_on_c, 0, 65, 61
2,18870, Note_on_c, 0, 65, 0
2,18918, Control_c, 0, 64, 35
2,18937, Note_on_c, 0, 61, 0
2,18955, Note_on_c, 0, 58, 66
2,19113, Note_on_c, 0, 58, 0
2,19117, Note_on_c, 0, 73, 0
2,19122, Note_on_c, 0, 70, 74
2,19133, Note_on_c, 0, 55, 66
2,19188, Control_c, 0, 64, 36
2,19251, Note_on_c, 0, 72, 77
2,19269, Note_on_c, 0, 70, 0
2,19273, Note_on_c, 0, 55, 0
2,19273, Note_on_c, 0, 56, 66
2,19284, Control_c, 0, 64, 37
2,19361, Note_on_c, 0, 56, 0
2,19379, Note_on_c, 0, 58, 75
2,19394, Note_on_c, 0, 73, 87
2,19426, Note_on_c, 0, 72, 0
2,19494, Control_c, 0, 64, 38
2,19505, Note_on_c, 0, 58, 0
2,19525, Note_on_c, 0, 55, 68
2,19525, Note_on_c, 0, 73, 0
2,19529, Note_on_c, 0, 70, 84
2,19664, Note_on_c, 0, 70, 0
2,19668, Note_on_c, 0, 51, 75
2,19668, Note_on_c, 0, 55, 0
2,19681, Note_on_c, 0, 82, 83
2,19764, Control_c, 0, 64, 37
2,19808, Note_on_c, 0, 53, 69
2,19819, Note_on_c, 0, 51, 0
2,19824, Note_on_c, 0, 73, 75
2,19890, Note_on_c, 0, 53, 0
2,19911, Note_on_c, 0, 73, 0
2,19949, Note_on_c, 0, 55, 67
2,19965, Note_on_c, 0, 75, 73
2,20053, Note_on_c, 0, 75, 0
2,20073, Note_on_c, 0, 55, 0
2,20084, Note_on_c, 0, 51, 70
2,20100, Note_on_c, 0, 70, 72
2,20114, Note_on_c, 0, 82, 0
2,20116, Note_on_c, 0, 82, 14
2,20163, Note_on_c, 0, 70, 0
2,20199, Note_on_c, 0, 51, 0
2,20242, Note_on_c, 0, 44, 75
2,20264, Note_on_c, 0, 72, 80
2,20288, Note_on_c, 0, 44, 0
2,20320, Note_on_c, 0, 82, 0
2,20341, Control_c, 0, 64, 36
2,20403, Note_on_c, 0, 80, 73
2,20532, Note_on_c, 0, 56, 79
2,20541, Note_on_c, 0, 79, 76
2,20571, Control_c, 0, 64, 37
2,20575, Note_on_c, 0, 80, 0
2,20660, Note_on_c, 0, 58, 80
2,20665, Note_on_c, 0, 79, 0
2,20673, Note_on_c, 0, 82, 77
2,20715, Note_on_c, 0, 56, 0
2,20744, Control_c, 0, 64, 36
2,20744, Note_on_c, 0, 72, 0
2,20773, Note_on_c, 0, 58, 0
2,20812, Note_on_c, 0, 60, 83
2,20821, Note_on_c, 0, 80, 82
2,20838, Control_c, 0, 64, 37
2,20871, Note_on_c, 0, 60, 0
2,20901, Note_on_c, 0, 82, 0
2,20917, Control_c, 0, 64, 36
2,20955, Note_on_c, 0, 75, 77
2,20960, Note_on_c, 0, 80, 0
2,21117, Note_on_c, 0, 68, 87
2,21117, Note_on_c, 0, 77, 82
2,21127, Note_on_c, 0, 56, 71
2,21130, Note_on_c, 0, 75, 0
2,21192, Note_on_c, 0, 56, 0
2,21219, Note_on_c, 0, 77, 0
2,21258, Note_on_c, 0, 78, 81
2,21408, Note_on_c, 0, 77, 76
2,21427, Note_on_c, 0, 61, 73
2,21427, Note_on_c, 0, 68, 0
2,21449, Note_on_c, 0, 78, 0
2,21526, Note_on_c, 0, 77, 0
2,21549, Note_on_c, 0, 75, 78
2,21556, Note_on_c, 0, 67, 76
2,21674, Note_on_c, 0, 67, 0
2,21683, Note_on_c, 0, 75, 0
2,21694, Note_on_c, 0, 65, 72
2,21698, Note_on_c, 0, 73, 87
2,21773, Note_on_c, 0, 73, 0
2,21800, Note_on_c, 0, 65, 0
2,21814, Note_on_c, 0, 67, 76
2,21814, Note_on_c, 0, 75, 83
2,21819, Note_on_c, 0, 61, 0
2,21905, Note_on_c, 0, 75, 0
2,21931, Note_on_c, 0, 67, 0
2,21962, Note_on_c, 0, 84, 84
2,21966, Note_on_c, 0, 68, 82
2,21970, Note_on_c, 0, 60, 70
2,22058, Note_on_c, 0, 84, 0
2,22106, Note_on_c, 0, 66, 78
2,22137, Note_on_c, 0, 68, 0
2,22219, Note_on_c, 0, 60, 0
2,22244, Note_on_c, 0, 66, 0
2,22256, Note_on_c, 0, 80, 85
2,22260, Control_c, 0, 64, 37
2,22272, Note_on_c, 0, 65, 76
2,22341, Note_on_c, 0, 80, 0
2,22387, Note_on_c, 0, 65, 0
2,22403, Note_on_c, 0, 63, 80
2,22506, Note_on_c, 0, 63, 0
2,22557, Note_on_c, 0, 65, 73
2,22564, Note_on_c, 0, 75, 83
2,22577, Note_on_c, 0, 58, 73
2,22817, Control_c, 0, 64, 36
2,22821, Note_on_c, 0, 75, 0
2,22865, Note_on_c, 0, 58, 0
2,22877, Note_on_c, 0, 56, 72
2,22882, Note_on_c, 0, 73, 82
2,22954, Note_on_c, 0, 73, 0
2,23008, Note_on_c, 0, 72, 80
2,23089, Note_on_c, 0, 72, 0
2,23122, Note_on_c, 0, 56, 0
2,23151, Note_on_c, 0, 55, 71
2,23164, Note_on_c, 0, 73, 85
2,23245, Note_on_c, 0, 65, 0
2,23245, Note_on_c, 0, 73, 0
2,23298, Note_on_c, 0, 63, 79
2,23374, Note_on_c, 0, 55, 0
2,23412, Control_c, 0, 64, 35
2,23450, Note_on_c, 0, 61, 72
2,23450, Note_on_c, 0, 82, 84
2,23475, Note_on_c, 0, 63, 0
2,23558, Note_on_c, 0, 61, 0
2,23558, Note_on_c, 0, 82, 0
2,23591, Note_on_c, 0, 65, 72
2,23739, Note_on_c, 0, 65, 0
2,23745, Note_on_c, 0, 63, 75
2,23745, Note_on_c, 0, 72, 82
2,23748, Note_on_c, 0, 56, 68
2,23823, Note_on_c, 0, 72, 0
2,23832, Note_on_c, 0, 63, 0
2,23891, Note_on_c, 0, 61, 70
2,24022, Note_on_c, 0, 61, 0
2,24037, Note_on_c, 0, 60, 73
2,24037, Note_on_c, 0, 80, 81
2,24116, Note_on_c, 0, 56, 0
2,24129, Note_on_c, 0, 80, 0
2,24154, Note_on_c, 0, 60, 0
2,24178, Note_on_c, 0, 63, 72
2,24219, Control_c, 0, 64, 36
2,24276, Note_on_c, 0, 63, 0
2,24326, Note_on_c, 0, 70, 79
2,24335, Note_on_c, 0, 61, 68
2,24353, Note_on_c, 0, 51, 69
2,24408, Note_on_c, 0, 70, 0
2,24458, Note_on_c, 0, 61, 0
2,24473, Note_on_c, 0, 60, 72
2,24570, Note_on_c, 0, 60, 0
2,24621, Note_on_c, 0, 61, 72
2,24621, Note_on_c, 0, 79, 77
2,24662, Note_on_c, 0, 51, 0
2,24669, Note_on_c, 0, 79, 0
2,24741, Note_on_c, 0, 61, 0
2,24763, Note_on_c, 0, 58, 72
2,24872, Note_on_c, 0, 58, 0
2,24909, Note_on_c, 0, 60, 63
2,24913, Note_on_c, 0, 68, 74
2,24918, Note_on_c, 0, 56, 62
2,24960, Note_on_c, 0, 60, 0
2,24986, Note_on_c, 0, 68, 0
2,25038, Note_on_c, 0, 70, 70
2,25162, Note_on_c, 0, 70, 0
2,25183, Note_on_c, 0, 63, 67
2,25188, Note_on_c, 0, 72, 64
2,25227, Note_on_c, 0, 63, 0
2,25254, Control_c, 0, 64, 37
2,25258, Note_on_c, 0, 72, 0
2,25324, Note_on_c, 0, 73, 67
2,25389, Control_c, 0, 64, 38
2,25393, Note_on_c, 0, 73, 0
2,25447, Control_c, 0, 64, 39
2,25465, Control_c, 0, 64, 40
2,25478, Note_on_c, 0, 72, 65
2,25483, Note_on_c, 0, 68, 74
2,25488, Control_c, 0, 64, 42
2,25504, Control_c, 0, 64, 44
2,25523, Control_c, 0, 64, 45
2,25543, Control_c, 0, 64, 47
2,25560, Control_c, 0, 64, 48
2,25579, Control_c, 0, 64, 50
2,25597, Note_on_c, 0, 72, 0
2,25599, Control_c, 0, 64, 52
2,25620, Control_c, 0, 64, 55
2,25630, Note_on_c, 0, 70, 67
2,25638, Control_c, 0, 64, 56
2,25689, Note_on_c, 0, 68, 0
2,25715, Control_c, 0, 64, 55
2,25732, Note_on_c, 0, 70, 0
2,25746, Note_on_c, 0, 56, 0
2,25768, Note_on_c, 0, 68, 70
2,25772, Note_on_c, 0, 63, 73
2,25792, Control_c, 0, 64, 54
2,25849, Control_c, 0, 64, 53
2,25864, Note_on_c, 0, 68, 0
2,25865, Note_on_c, 0, 63, 0
2,25897, Note_on_c, 0, 72, 72
2,25902, Note_on_c, 0, 60, 64
2,26007, Note_on_c, 0, 72, 0
2,26018, Note_on_c, 0, 60, 0
2,26038, Note_on_c, 0, 56, 72
2,26042, Control_c, 0, 64, 54
2,26051, Note_on_c, 0, 77, 70
2,26063, Control_c, 0, 64, 56
2,26082, Control_c, 0, 64, 61
2,26087, Note_on_c, 0, 56, 0
2,26098, Control_c, 0, 64, 64
2,26119, Control_c, 0, 64, 65
2,26138, Control_c, 0, 64, 67
2,26158, Control_c, 0, 64, 68
2,26176, Control_c, 0, 64, 69
2,26184, Note_on_c, 0, 75, 71
2,26217, Note_on_c, 0, 77, 0
2,26278, Note_on_c, 0, 75, 0
2,26311, Control_c, 0, 64, 68
2,26325, Note_on_c, 0, 59, 71
2,26325, Note_on_c, 0, 74, 78
2,26330, Control_c, 0, 64, 67
2,26348, Control_c, 0, 64, 66
2,26368, Control_c, 0, 64, 63
2,26388, Control_c, 0, 64, 57
2,26405, Note_on_c, 0, 74, 0
2,26409, Control_c, 0, 64, 51
2,26425, Control_c, 0, 64, 48
2,26448, Note_on_c, 0, 77, 82
2,26452, Note_on_c, 0, 56, 74
2,26468, Note_on_c, 0, 59, 0
2,26535, Note_on_c, 0, 77, 0
2,26578, Control_c, 0, 64, 49
2,26599, Note_on_c, 0, 80, 82
2,26604, Note_on_c, 0, 53, 72
2,26611, Note_on_c, 0, 56, 0
2,26619, Control_c, 0, 64, 50
2,26738, Note_on_c, 0, 78, 85
2,26743, Note_on_c, 0, 80, 0
2,26861, Note_on_c, 0, 78, 0
2,26879, Note_on_c, 0, 77, 89
2,26888, Note_on_c, 0, 56, 76
2,26893, Note_on_c, 0, 53, 0
2,26946, Control_c, 0, 64, 51
2,26962, Note_on_c, 0, 77, 0
2,27010, Note_on_c, 0, 80, 86
2,27028, Note_on_c, 0, 53, 75
2,27042, Control_c, 0, 64, 52
2,27091, Note_on_c, 0, 80, 0
2,27104, Note_on_c, 0, 56, 0
2,27185, Note_on_c, 0, 80, 80
2,27212, Note_on_c, 0, 50, 65
2,27227, Note_on_c, 0, 82, 74
2,27275, Note_on_c, 0, 80, 0
2,27282, Note_on_c, 0, 83, 83
2,27310, Note_on_c, 0, 53, 0
2,27335, Note_on_c, 0, 82, 0
2,27349, Control_c, 0, 64, 51
2,27565, Note_on_c, 0, 53, 69
2,27590, Note_on_c, 0, 82, 76
2,27596, Control_c, 0, 64, 50
2,27614, Note_on_c, 0, 83, 0
2,27694, Note_on_c, 0, 53, 0
2,27705, Note_on_c, 0, 80, 76
2,27712, Note_on_c, 0, 56, 72
2,27752, Note_on_c, 0, 82, 0
2,27833, Note_on_c, 0, 56, 0
2,27842, Note_on_c, 0, 59, 78
2,27842, Note_on_c, 0, 78, 84
2,27842, Note_on_c, 0, 80, 0
2,27860, Note_on_c, 0, 50, 0
2,27947, Note_on_c, 0, 78, 0
2,27977, Note_on_c, 0, 77, 84
2,28078, Note_on_c, 0, 77, 0
2,28133, Note_on_c, 0, 53, 76
2,28142, Note_on_c, 0, 75, 82
2,28151, Control_c, 0, 64, 49
2,28274, Note_on_c, 0, 74, 82
2,28275, Note_on_c, 0, 75, 0
2,28279, Note_on_c, 0, 53, 0
2,28342, Note_on_c, 0, 59, 0
2,28381, Control_c, 0, 64, 50
2,28381, Note_on_c, 0, 74, 0
2,28416, Note_on_c, 0, 58, 85
2,28420, Control_c, 0, 64, 49
2,28426, Note_on_c, 0, 75, 82
2,28431, Note_on_c, 0, 54, 74
2,28458, Control_c, 0, 64, 48
2,28479, Control_c, 0, 64, 47
2,28484, Note_on_c, 0, 58, 0
2,28493, Note_on_c, 0, 54, 0
2,28564, Note_on_c, 0, 78, 79
2,28571, Note_on_c, 0, 75, 0
2,28668, Note_on_c, 0, 78, 0
2,28712, Note_on_c, 0, 59, 85
2,28712, Note_on_c, 0, 77, 80
2,28721, Note_on_c, 0, 56, 79
2,28769, Note_on_c, 0, 59, 0
2,28782, Note_on_c, 0, 56, 0
2,28842, Note_on_c, 0, 77, 0
2,28846, Note_on_c, 0, 75, 84
2,28939, Control_c, 0, 64, 48
2,28963, Note_on_c, 0, 75, 0
2,29000, Note_on_c, 0, 58, 86
2,29005, Note_on_c, 0, 74, 81
2,29086, Note_on_c, 0, 58, 0
2,29086, Note_on_c, 0, 74, 0
2,29142, Note_on_c, 0, 77, 76
2,29277, Note_on_c, 0, 77, 0
2,29283, Note_on_c, 0, 50, 81
2,29291, Note_on_c, 0, 46, 78
2,29291, Note_on_c, 0, 70, 86
2,29323, Note_on_c, 0, 50, 0
2,29357, Note_on_c, 0, 46, 0
2,29375, Note_on_c, 0, 70, 0
2,29418, Note_on_c, 0, 68, 87
2,29436, Control_c, 0, 64, 49
2,29499, Note_on_c, 0, 68, 0
2,29550, Control_c, 0, 64, 50
2,29597, Note_on_c, 0, 51, 92
2,29608, Note_on_c, 0, 39, 77
2,29608, Note_on_c, 0, 66, 81
2,29630, Control_c, 0, 64, 49
2,29705, Control_c, 0, 64, 48
2,29720, Note_on_c, 0, 66, 0
2,29737, Note_on_c, 0, 65, 77
2,29829, Note_on_c, 0, 65, 0
2,29899, Control_c, 0, 64, 47
2,29904, Note_on_c, 0, 63, 75
2,30004, Note_on_c, 0, 63, 0
2,30022, Note_on_c, 0, 39, 0
2,30022, Note_on_c, 0, 62, 77
2,30071, Note_on_c, 0, 51, 0
2,30113, Note_on_c, 0, 62, 0
2,30180, Note_on_c, 0, 63, 77
2,30184, Control_c, 0, 64, 45
2,30203, Control_c, 0, 64, 44
2,30226, Control_c, 0, 64, 43
2,30243, Control_c, 0, 64, 42
2,30271, Note_on_c, 0, 63, 0
2,30300, Control_c, 0, 64, 41
2,30311, Note_on_c, 0, 65, 69
2,30408, Note_on_c, 0, 65, 0
2,30415, Control_c, 0, 64, 42
2,30459, Note_on_c, 0, 51, 71
2,30464, Note_on_c, 0, 66, 73
2,30501, Note_on_c, 0, 51, 0
2,30567, Note_on_c, 0, 66, 0
2,30606, Note_on_c, 0, 68, 73
2,30700, Note_on_c, 0, 68, 0
2,30764, Note_on_c, 0, 70, 74
2,30771, Note_on_c, 0, 54, 75
2,30873, Note_on_c, 0, 70, 0
2,30888, Note_on_c, 0, 54, 0
2,30888, Note_on_c, 0, 68, 73
2,30892, Note_on_c, 0, 53, 76
2,30963, Note_on_c, 0, 53, 0
2,31025, Note_on_c, 0, 51, 79
2,31033, Note_on_c, 0, 68, 0
2,31036, Note_on_c, 0, 66, 79
2,31113, Note_on_c, 0, 51, 0
2,31157, Note_on_c, 0, 68, 78
2,31164, Note_on_c, 0, 53, 79
2,31182, Note_on_c, 0, 66, 0
2,31231, Note_on_c, 0, 53, 0
2,31263, Note_on_c, 0, 68, 0
2,31303, Note_on_c, 0, 61, 82
2,31308, Note_on_c, 0, 70, 84
2,31368, Note_on_c, 0, 61, 0
2,31435, Note_on_c, 0, 68, 71
2,31451, Note_on_c, 0, 70, 0
2,31594, Note_on_c, 0, 58, 76
2,31600, Note_on_c, 0, 68, 0
2,31608, Note_on_c, 0, 66, 72
2,31630, Note_on_c, 0, 58, 0
2,31707, Note_on_c, 0, 66, 0
2,31737, Note_on_c, 0, 65, 64
2,31841, Note_on_c, 0, 65, 0
2,31888, Note_on_c, 0, 53, 74
2,31904, Note_on_c, 0, 66, 72
2,32228, Note_on_c, 0, 51, 74
2,32232, Note_on_c, 0, 53, 0
2,32293, Note_on_c, 0, 51, 0
2,32348, Note_on_c, 0, 49, 76
2,32430, Note_on_c, 0, 49, 0
2,32488, Note_on_c, 0, 51, 85
2,32555, Note_on_c, 0, 51, 0
2,32577, Note_on_c, 0, 66, 0
2,32633, Note_on_c, 0, 65, 71
2,32724, Note_on_c, 0, 65, 0
2,32774, Note_on_c, 0, 60, 74
2,32774, Note_on_c, 0, 63, 77
2,32818, Note_on_c, 0, 60, 0
2,32914, Note_on_c, 0, 63, 0
2,32914, Note_on_c, 0, 66, 73
2,33011, Note_on_c, 0, 66, 0
2,33053, Note_on_c, 0, 49, 66
2,33062, Note_on_c, 0, 65, 70
2,33103, Note_on_c, 0, 49, 0
2,33152, Note_on_c, 0, 65, 0
2,33193, Note_on_c, 0, 63, 73
2,33317, Note_on_c, 0, 63, 0
2,33341, Note_on_c, 0, 61, 70
2,33348, Note_on_c, 0, 58, 65
2,33419, Note_on_c, 0, 61, 0
2,33423, Note_on_c, 0, 58, 0
2,33483, Note_on_c, 0, 65, 69
2,33573, Note_on_c, 0, 65, 0
2,33631, Note_on_c, 0, 48, 60
2,33639, Note_on_c, 0, 63, 71
2,33689, Note_on_c, 0, 48, 0
2,33737, Note_on_c, 0, 63, 0
2,33767, Note_on_c, 0, 61, 68
2,33855, Note_on_c, 0, 61, 0
2,33927, Note_on_c, 0, 63, 68
2,33931, Note_on_c, 0, 57, 64
2,34003, Note_on_c, 0, 57, 0
2,34016, Note_on_c, 0, 63, 0
2,34050, Note_on_c, 0, 60, 69
2,34066, Control_c, 0, 64, 43
2,34145, Note_on_c, 0, 60, 0
2,34210, Note_on_c, 0, 46, 57
2,34210, Note_on_c, 0, 61, 73
2,34250, Note_on_c, 0, 46, 0
2,34287, Note_on_c, 0, 61, 0
2,34339, Note_on_c, 0, 65, 64
2,34459, Note_on_c, 0, 65, 0
2,34495, Note_on_c, 0, 58, 48
2,34504, Note_on_c, 0, 66, 58
2,34552, Note_on_c, 0, 66, 0
2,34576, Note_on_c, 0, 58, 0
2,34630, Note_on_c, 0, 65, 51
2,34653, Note_on_c, 0, 57, 46
2,34710, Note_on_c, 0, 65, 0
2,34758, Note_on_c, 0, 57, 0
2,34780, Note_on_c, 0, 58, 47
2,34789, Note_on_c, 0, 73, 54
2,34905, Note_on_c, 0, 58, 0
2,34942, Note_on_c, 0, 60, 45
2,35014, Note_on_c, 0, 60, 0
2,35023, Control_c, 0, 64, 44
2,35068, Note_on_c, 0, 61, 40
2,35068, Note_on_c, 0, 65, 51
2,35117, Note_on_c, 0, 65, 0
2,35150, Note_on_c, 0, 61, 0
2,35201, Note_on_c, 0, 58, 55
2,35313, Control_c, 0, 64, 45
2,35345, Note_on_c, 0, 58, 0
2,35360, Note_on_c, 0, 73, 0
2,35364, Note_on_c, 0, 70, 62
2,35369, Control_c, 0, 64, 46
2,35382, Note_on_c, 0, 55, 52
2,35468, Control_c, 0, 64, 47
2,35477, Note_on_c, 0, 55, 0
2,35493, Note_on_c, 0, 70, 0
2,35504, Note_on_c, 0, 72, 69
2,35529, Note_on_c, 0, 56, 52
2,35587, Note_on_c, 0, 56, 0
2,35631, Note_on_c, 0, 58, 55
2,35636, Note_on_c, 0, 72, 0
2,35647, Note_on_c, 0, 73, 75
2,35718, Note_on_c, 0, 58, 0
2,35742, Note_on_c, 0, 73, 0
2,35762, Note_on_c, 0, 55, 47
2,35774, Note_on_c, 0, 70, 70
2,35860, Note_on_c, 0, 55, 0
2,35880, Note_on_c, 0, 70, 0
2,35901, Note_on_c, 0, 51, 53
2,35907, Control_c, 0, 64, 48
2,35935, Note_on_c, 0, 82, 69
2,35943, Control_c, 0, 64, 49
2,35963, Control_c, 0, 64, 50
2,36003, Control_c, 0, 64, 51
2,36021, Control_c, 0, 64, 55
2,36039, Control_c, 0, 64, 59
2,36044, Note_on_c, 0, 51, 0
2,36060, Control_c, 0, 64, 63
2,36069, Note_on_c, 0, 53, 50
2,36081, Control_c, 0, 64, 66
2,36085, Note_on_c, 0, 73, 64
2,36099, Control_c, 0, 64, 71
2,36118, Control_c, 0, 64, 80
2,36136, Note_on_c, 0, 53, 0
2,36140, Control_c, 0, 64, 86
2,36157, Control_c, 0, 64, 87
2,36173, Note_on_c, 0, 82, 0
2,36177, Control_c, 0, 64, 88
2,36206, Note_on_c, 0, 55, 55
2,36206, Note_on_c, 0, 73, 0
2,36212, Note_on_c, 0, 75, 66
2,36252, Control_c, 0, 64, 87
2,36272, Note_on_c, 0, 75, 0
2,36312, Note_on_c, 0, 55, 0
2,36332, Note_on_c, 0, 70, 71
2,36335, Note_on_c, 0, 51, 64
2,36371, Control_c, 0, 64, 86
2,36371, Note_on_c, 0, 70, 0
2,36428, Note_on_c, 0, 51, 0
2,36445, Control_c, 0, 64, 84
2,36462, Control_c, 0, 64, 78
2,36484, Control_c, 0, 64, 67
2,36484, Note_on_c, 0, 44, 66
2,36489, Note_on_c, 0, 72, 75
2,36503, Control_c, 0, 64, 56
2,36522, Control_c, 0, 64, 37
2,36522, Note_on_c, 0, 44, 0
2,36541, Control_c, 0, 64, 25
2,36599, Control_c, 0, 64, 26
2,36618, Control_c, 0, 64, 27
2,36632, Note_on_c, 0, 63, 63
2,36767, Note_on_c, 0, 63, 0
2,36787, Note_on_c, 0, 56, 53
2,36795, Note_on_c, 0, 65, 55
2,36809, Control_c, 0, 64, 28
2,36838, Note_on_c, 0, 72, 0
2,36853, Note_on_c, 0, 56, 0
2,36858, Note_on_c, 0, 65, 0
2,36913, Note_on_c, 0, 63, 66
2,36925, Control_c, 0, 64, 29
2,36940, Note_on_c, 0, 55, 46
2,36963, Control_c, 0, 64, 30
2,37005, Note_on_c, 0, 63, 0
2,37027, Note_on_c, 0, 55, 0
2,37065, Note_on_c, 0, 72, 66
2,37085, Note_on_c, 0, 56, 50
2,37188, Note_on_c, 0, 56, 0
2,37225, Note_on_c, 0, 58, 48
2,37301, Note_on_c, 0, 58, 0
2,37330, Control_c, 0, 64, 31
2,37366, Note_on_c, 0, 63, 60
2,37370, Note_on_c, 0, 60, 45
2,37410, Note_on_c, 0, 63, 0
2,37423, Control_c, 0, 64, 32
2,37443, Note_on_c, 0, 60, 0
2,37461, Control_c, 0, 64, 33
2,37501, Note_on_c, 0, 56, 52
2,37520, Control_c, 0, 64, 34
2,37567, Note_on_c, 0, 56, 0
2,37614, Control_c, 0, 64, 35
2,37621, Note_on_c, 0, 72, 0
2,37654, Note_on_c, 0, 53, 51
2,37672, Control_c, 0, 64, 36
2,37677, Note_on_c, 0, 68, 62
2,37711, Control_c, 0, 64, 37
2,37742, Note_on_c, 0, 53, 0
2,37750, Control_c, 0, 64, 38
2,37786, Control_c, 0, 64, 39
2,37798, Note_on_c, 0, 55, 55
2,37802, Note_on_c, 0, 68, 0
2,37802, Note_on_c, 0, 70, 62
2,37854, Note_on_c, 0, 55, 0
2,37866, Control_c, 0, 64, 40
2,37923, Note_on_c, 0, 70, 0
2,37927, Note_on_c, 0, 56, 56
2,37940, Note_on_c, 0, 72, 71
2,37997, Note_on_c, 0, 56, 0
2,38012, Note_on_c, 0, 72, 0
2,38063, Note_on_c, 0, 53, 52
2,38063, Note_on_c, 0, 68, 71
2,38139, Note_on_c, 0, 53, 0
2,38172, Control_c, 0, 64, 41
2,38176, Note_on_c, 0, 68, 0
2,38191, Control_c, 0, 64, 42
2,38218, Note_on_c, 0, 49, 49
2,38232, Control_c, 0, 64, 43
2,38232, Note_on_c, 0, 80, 66
2,38250, Control_c, 0, 64, 48
2,38267, Control_c, 0, 64, 54
2,38287, Control_c, 0, 64, 57
2,38307, Control_c, 0, 64, 60
2,38328, Control_c, 0, 64, 62
2,38344, Control_c, 0, 64, 64
2,38351, Note_on_c, 0, 49, 0
2,38361, Note_on_c, 0, 72, 68
2,38365, Control_c, 0, 64, 66
2,38372, Note_on_c, 0, 51, 57
2,38383, Control_c, 0, 64, 70
2,38404, Control_c, 0, 64, 75
2,38406, Note_on_c, 0, 80, 0
2,38422, Control_c, 0, 64, 79
2,38437, Note_on_c, 0, 51, 0
2,38441, Control_c, 0, 64, 80
2,38447, Note_on_c, 0, 72, 0
2,38498, Control_c, 0, 64, 79
2,38509, Note_on_c, 0, 53, 61
2,38511, Note_on_c, 0, 73, 70
2,38536, Control_c, 0, 64, 78
2,38575, Control_c, 0, 64, 77
2,38595, Note_on_c, 0, 53, 0
2,38599, Note_on_c, 0, 73, 0
2,38613, Control_c, 0, 64, 76
2,38628, Note_on_c, 0, 68, 70
2,38640, Note_on_c, 0, 49, 58
2,38674, Control_c, 0, 64, 75
2,38690, Control_c, 0, 64, 74
2,38705, Note_on_c, 0, 68, 0
2,38710, Control_c, 0, 64, 67
2,38733, Control_c, 0, 64, 60
2,38737, Note_on_c, 0, 49, 0
2,38751, Control_c, 0, 64, 50
2,38768, Control_c, 0, 64, 40
2,38782, Note_on_c, 0, 70, 63
2,38789, Control_c, 0, 64, 37
2,38789, Note_on_c, 0, 43, 57
2,38825, Control_c, 0, 64, 38
2,38829, Note_on_c, 0, 43, 0
2,38902, Control_c, 0, 64, 39
2,38935, Note_on_c, 0, 61, 52
2,39017, Note_on_c, 0, 61, 0
2,39078, Note_on_c, 0, 55, 42
2,39088, Note_on_c, 0, 63, 54
2,39157, Note_on_c, 0, 70, 0
2,39167, Note_on_c, 0, 55, 0
2,39171, Control_c, 0, 64, 40
2,39181, Note_on_c, 0, 63, 0
2,39206, Note_on_c, 0, 61, 55
2,39217, Note_on_c, 0, 53, 52
2,39286, Control_c, 0, 64, 41
2,39291, Note_on_c, 0, 61, 0
2,39313, Note_on_c, 0, 53, 0
2,39359, Note_on_c, 0, 70, 61
2,39366, Note_on_c, 0, 55, 50
2,39465, Note_on_c, 0, 55, 0
2,39477, Control_c, 0, 64, 42
2,39503, Note_on_c, 0, 56, 61
2,39606, Note_on_c, 0, 56, 0
2,39655, Note_on_c, 0, 61, 61
2,39660, Note_on_c, 0, 58, 51
2,39705, Note_on_c, 0, 61, 0
2,39727, Control_c, 0, 64, 43
2,39743, Note_on_c, 0, 58, 0
2,39785, Note_on_c, 0, 55, 60
2,39911, Note_on_c, 0, 55, 0
2,39938, Note_on_c, 0, 70, 0
2,39941, Note_on_c, 0, 52, 61
2,39945, Note_on_c, 0, 67, 68
2,40069, Note_on_c, 0, 68, 76
2,40078, Note_on_c, 0, 52, 0
2,40090, Note_on_c, 0, 53, 66
2,40114, Control_c, 0, 64, 44
2,40122, Note_on_c, 0, 67, 0
2,40164, Note_on_c, 0, 53, 0
2,40217, Note_on_c, 0, 70, 76
2,40223, Note_on_c, 0, 55, 66
2,40232, Note_on_c, 0, 68, 0
2,40321, Note_on_c, 0, 55, 0
2,40328, Note_on_c, 0, 70, 0
2,40346, Note_on_c, 0, 67, 71
2,40359, Note_on_c, 0, 52, 65
2,40476, Note_on_c, 0, 52, 0
2,40509, Note_on_c, 0, 48, 61
2,40509, Note_on_c, 0, 79, 77
2,40537, Note_on_c, 0, 67, 0
2,40610, Control_c, 0, 64, 45
2,40646, Note_on_c, 0, 70, 69
2,40652, Note_on_c, 0, 48, 0
2,40663, Note_on_c, 0, 50, 63
2,40687, Control_c, 0, 64, 46
2,40736, Note_on_c, 0, 50, 0
2,40764, Control_c, 0, 64, 47
2,40786, Note_on_c, 0, 70, 0
2,40792, Note_on_c, 0, 52, 66
2,40792, Note_on_c, 0, 72, 74
2,40822, Control_c, 0, 64, 48
2,40878, Note_on_c, 0, 72, 0
2,40879, Control_c, 0, 64, 49
2,40889, Note_on_c, 0, 52, 0
2,40920, Note_on_c, 0, 67, 73
2,40925, Note_on_c, 0, 48, 69
2,40967, Note_on_c, 0, 67, 0
2,41030, Note_on_c, 0, 48, 0
2,41079, Note_on_c, 0, 41, 71
2,41099, Note_on_c, 0, 68, 83
2,41141, Note_on_c, 0, 79, 0
2,41238, Note_on_c, 0, 43, 71
2,41242, Note_on_c, 0, 76, 82
2,41267, Note_on_c, 0, 41, 0
2,41323, Note_on_c, 0, 76, 0
2,41325, Note_on_c, 0, 68, 0
2,41379, Note_on_c, 0, 44, 74
2,41384, Note_on_c, 0, 77, 87
2,41427, Note_on_c, 0, 43, 0
2,41436, Control_c, 0, 64, 48
2,41509, Note_on_c, 0, 73, 87
2,41513, Note_on_c, 0, 77, 0
2,41524, Note_on_c, 0, 46, 73
2,41537, Note_on_c, 0, 44, 0
2,41628, Note_on_c, 0, 73, 0
2,41632, Note_on_c, 0, 46, 0
2,41647, Control_c, 0, 64, 47
2,41656, Note_on_c, 0, 48, 75
2,41660, Note_on_c, 0, 70, 82
2,41704, Control_c, 0, 64, 46
2,41782, Control_c, 0, 64, 47
2,41787, Note_on_c, 0, 50, 79
2,41846, Note_on_c, 0, 48, 0
2,41939, Note_on_c, 0, 52, 80
2,41943, Note_on_c, 0, 60, 83
2,41954, Control_c, 0, 64, 46
2,41961, Note_on_c, 0, 50, 0
2,41993, Control_c, 0, 64, 45
2,42014, Control_c, 0, 64, 44
2,42029, Note_on_c, 0, 60, 0
2,42055, Note_on_c, 0, 52, 0
2,42081, Note_on_c, 0, 48, 77
2,42252, Note_on_c, 0, 53, 76
2,42257, Note_on_c, 0, 61, 84
2,42294, Note_on_c, 0, 70, 0
2,42337, Control_c, 0, 64, 43
2,42357, Control_c, 0, 64, 44
2,42382, Note_on_c, 0, 48, 0
2,42382, Note_on_c, 0, 60, 83
2,42391, Note_on_c, 0, 51, 76
2,42396, Note_on_c, 0, 61, 0
2,42400, Note_on_c, 0, 53, 0
2,42434, Control_c, 0, 64, 45
2,42490, Control_c, 0, 64, 44
2,42526, Note_on_c, 0, 58, 85
2,42531, Note_on_c, 0, 49, 75
2,42535, Note_on_c, 0, 60, 0
2,42544, Note_on_c, 0, 51, 0
2,42643, Note_on_c, 0, 58, 0
2,42658, Note_on_c, 0, 60, 84
2,42673, Note_on_c, 0, 51, 79
2,42705, Note_on_c, 0, 49, 0
2,42766, Note_on_c, 0, 60, 0
2,42798, Note_on_c, 0, 68, 91
2,42803, Note_on_c, 0, 53, 83
2,42820, Note_on_c, 0, 51, 0
2,42855, Control_c, 0, 64, 43
2,42959, Note_on_c, 0, 51, 80
2,42978, Note_on_c, 0, 53, 0
2,42992, Control_c, 0, 64, 42
2,43086, Note_on_c, 0, 65, 79
2,43106, Note_on_c, 0, 49, 78
2,43134, Note_on_c, 0, 51, 0
2,43181, Note_on_c, 0, 65, 0
2,43186, Control_c, 0, 64, 43
2,43241, Note_on_c, 0, 48, 78
2,43255, Note_on_c, 0, 49, 0
2,43416, Note_on_c, 0, 60, 87
2,43418, Note_on_c, 0, 49, 75
2,43480, Note_on_c, 0, 68, 0
2,43485, Note_on_c, 0, 48, 0
2,43644, Control_c, 0, 64, 44
2,43696, Note_on_c, 0, 60, 0
2,43756, Note_on_c, 0, 58, 79
2,43856, Control_c, 0, 64, 45
2,43861, Note_on_c, 0, 58, 0
2,43875, Note_on_c, 0, 56, 84
2,43958, Note_on_c, 0, 56, 0
2,44022, Note_on_c, 0, 58, 77
2,44026, Note_on_c, 0, 67, 78
2,44133, Note_on_c, 0, 67, 0
2,44184, Note_on_c, 0, 48, 78
2,44220, Control_c, 0, 64, 44
2,44238, Note_on_c, 0, 49, 0
2,44318, Note_on_c, 0, 67, 83
2,44334, Note_on_c, 0, 46, 75
2,44376, Note_on_c, 0, 48, 0
2,44466, Note_on_c, 0, 46, 0
2,44470, Note_on_c, 0, 67, 0
2,44477, Note_on_c, 0, 49, 80
2,44492, Note_on_c, 0, 58, 0
2,44546, Control_c, 0, 64, 43
2,44621, Note_on_c, 0, 48, 71
2,44621, Note_on_c, 0, 56, 83
2,44625, Note_on_c, 0, 49, 0
2,44695, Note_on_c, 0, 56, 0
2,44764, Note_on_c, 0, 46, 80
2,44793, Note_on_c, 0, 48, 0
2,44910, Note_on_c, 0, 65, 77
2,44916, Note_on_c, 0, 46, 0
2,44919, Note_on_c, 0, 44, 77
2,44925, Note_on_c, 0, 56, 63
2,44949, Control_c, 0, 64, 44
2,44973, Note_on_c, 0, 56, 0
2,44996, Note_on_c, 0, 65, 0
2,45042, Note_on_c, 0, 44, 0
2,45057, Note_on_c, 0, 48, 72
2,45210, Note_on_c, 0, 55, 66
2,45210, Note_on_c, 0, 64, 73
2,45214, Note_on_c, 0, 46, 69
2,45214, Note_on_c, 0, 48, 0
2,45254, Note_on_c, 0, 55, 0
2,45293, Note_on_c, 0, 64, 0
2,45343, Note_on_c, 0, 44, 76
2,45363, Note_on_c, 0, 46, 0
2,45505, Note_on_c, 0, 44, 0
2,45505, Note_on_c, 0, 46, 72
2,45505, Note_on_c, 0, 67, 69
2,45514, Note_on_c, 0, 64, 61
2,45551, Note_on_c, 0, 64, 0
2,45571, Note_on_c, 0, 67, 0
2,45611, Note_on_c, 0, 46, 0
2,45642, Note_on_c, 0, 43, 74
2,45796, Note_on_c, 0, 44, 73
2,45796, Note_on_c, 0, 53, 76
2,45796, Note_on_c, 0, 72, 86
2,45823, Note_on_c, 0, 43, 0
2,45880, Note_on_c, 0, 72, 0
2,45887, Note_on_c, 0, 44, 0
2,45934, Note_on_c, 0, 70, 70
2,45992, Note_on_c, 0, 70, 0
2,46079, Note_on_c, 0, 49, 66
2,46079, Note_on_c, 0, 68, 75
2,46143, Note_on_c, 0, 49, 0
2,46208, Note_on_c, 0, 68, 0
2,46219, Note_on_c, 0, 72, 71
2,46309, Note_on_c, 0, 72, 0
2,46364, Note_on_c, 0, 43, 67
2,46370, Note_on_c, 0, 70, 70
2,46441, Note_on_c, 0, 43, 0
2,46485, Note_on_c, 0, 70, 0
2,46502, Note_on_c, 0, 68, 72
2,46522, Note_on_c, 0, 53, 0
2,46596, Note_on_c, 0, 68, 0
2,46657, Note_on_c, 0, 52, 71
2,46657, Note_on_c, 0, 67, 65
2,46672, Note_on_c, 0, 48, 63
2,46715, Note_on_c, 0, 52, 0
2,46736, Note_on_c, 0, 48, 0
2,46736, Note_on_c, 0, 67, 0
2,46794, Note_on_c, 0, 70, 72
2,46911, Note_on_c, 0, 70, 0
2,46963, Note_on_c, 0, 53, 76
2,46967, Control_c, 0, 64, 45
2,46967, Note_on_c, 0, 68, 79
2,46977, Note_on_c, 0, 41, 67
2,47044, Note_on_c, 0, 68, 0
2,47049, Note_on_c, 0, 41, 0
2,47068, Note_on_c, 0, 53, 0
2,47098, Note_on_c, 0, 65, 67
2,47208, Note_on_c, 0, 65, 0
2,47252, Note_on_c, 0, 52, 77
2,47261, Note_on_c, 0, 73, 81
2,47268, Note_on_c, 0, 46, 72
2,47335, Note_on_c, 0, 52, 0
2,47363, Note_on_c, 0, 46, 0
2,47377, Note_on_c, 0, 73, 0
2,47390, Note_on_c, 0, 70, 78
2,47523, Note_on_c, 0, 70, 0
2,47545, Note_on_c, 0, 53, 83
2,47549, Note_on_c, 0, 44, 84
2,47558, Note_on_c, 0, 72, 83
2,47623, Note_on_c, 0, 53, 0
2,47640, Note_on_c, 0, 44, 0
2,47657, Control_c, 0, 64, 46
2,47661, Note_on_c, 0, 72, 0
2,47700, Note_on_c, 0, 68, 87
2,47774, Control_c, 0, 64, 45
2,47854, Note_on_c, 0, 58, 87
2,47858, Note_on_c, 0, 78, 89
2,47863, Note_on_c, 0, 49, 82
2,47908, Note_on_c, 0, 68, 0
2,47944, Note_on_c, 0, 58, 0
2,47957, Note_on_c, 0, 78, 0
2,47974, Note_on_c, 0, 49, 0
2,48004, Note_on_c, 0, 76, 83
2,48093, Note_on_c, 0, 76, 0
2,48169, Note_on_c, 0, 48, 81
2,48169, Note_on_c, 0, 56, 89
2,48169, Note_on_c, 0, 76, 90
2,48282, Note_on_c, 0, 76, 0
2,48302, Note_on_c, 0, 77, 93
2,48446, Control_c, 0, 64, 44
2,48450, Note_on_c, 0, 55, 85
2,48457, Note_on_c, 0, 83, 81
2,48463, Note_on_c, 0, 56, 0
2,48513, Note_on_c, 0, 77, 0
2,48580, Note_on_c, 0, 84, 78
2,48584, Note_on_c, 0, 83, 0
2,48593, Note_on_c, 0, 53, 81
2,48593, Note_on_c, 0, 55, 0
2,48598, Control_c, 0, 64, 45
2,48656, Note_on_c, 0, 84, 0
2,48758, Note_on_c, 0, 77, 85
2,48767, Note_on_c, 0, 55, 77
2,48774, Note_on_c, 0, 53, 0
2,48811, Note_on_c, 0, 76, 84
2,48821, Note_on_c, 0, 77, 0
2,48896, Note_on_c, 0, 77, 82
2,48904, Note_on_c, 0, 76, 0
2,48968, Note_on_c, 0, 76, 80
2,49003, Note_on_c, 0, 77, 0
2,49024, Note_on_c, 0, 48, 0
2,49039, Control_c, 0, 64, 44
2,49068, Note_on_c, 0, 58, 81
2,49073, Note_on_c, 0, 55, 0
2,49214, Note_on_c, 0, 77, 85
2,49240, Note_on_c, 0, 76, 0
2,49306, Note_on_c, 0, 58, 0
2,49306, Note_on_c, 0, 77, 0
2,49370, Note_on_c, 0, 53, 67
2,49370, Note_on_c, 0, 56, 69
2,49379, Note_on_c, 0, 77, 87
2,49531, Note_on_c, 0, 58, 74
2,49537, Note_on_c, 0, 56, 0
2,49644, Note_on_c, 0, 58, 0
2,49673, Note_on_c, 0, 60, 76
2,49815, Note_on_c, 0, 60, 0
2,49824, Note_on_c, 0, 56, 63
2,49847, Note_on_c, 0, 77, 0
2,49851, Note_on_c, 0, 57, 71
2,49860, Note_on_c, 0, 56, 0
2,49904, Note_on_c, 0, 53, 0
2,49908, Note_on_c, 0, 57, 0
2,49977, Note_on_c, 0, 53, 68
2,50119, Note_on_c, 0, 53, 0
2,50119, Note_on_c, 0, 54, 67
2,50227, Note_on_c, 0, 54, 0
2,50254, Note_on_c, 0, 77, 78
2,50261, Note_on_c, 0, 56, 67
2,50330, Note_on_c, 0, 77, 0
2,50367, Note_on_c, 0, 56, 0
2,50390, Note_on_c, 0, 53, 61
2,50499, Control_c, 0, 64, 45
2,50533, Note_on_c, 0, 53, 0
2,50562, Note_on_c, 0, 50, 60
2,50571, Note_on_c, 0, 71, 61
2,50633, Control_c, 0, 64, 44
2,50659, Note_on_c, 0, 71, 0
2,50686, Note_on_c, 0, 50, 0
2,50704, Note_on_c, 0, 51, 53
2,50715, Note_on_c, 0, 70, 59
2,50791, Note_on_c, 0, 51, 0
2,50802, Note_on_c, 0, 70, 0
2,50835, Note_on_c, 0, 53, 50
2,50857, Note_on_c, 0, 68, 54
2,50923, Note_on_c, 0, 68, 0
2,50928, Note_on_c, 0, 53, 0
2,50965, Note_on_c, 0, 70, 64
2,50986, Note_on_c, 0, 50, 50
2,51064, Note_on_c, 0, 50, 0
2,51079, Note_on_c, 0, 70, 0
2,51123, Note_on_c, 0, 77, 75
2,51132, Note_on_c, 0, 46, 57
2,51191, Note_on_c, 0, 77, 0
2,51209, Control_c, 0, 64, 45
2,51222, Note_on_c, 0, 46, 0
2,51260, Note_on_c, 0, 50, 56
2,51374, Note_on_c, 0, 50, 0
2,51423, Note_on_c, 0, 53, 57
2,51423, Note_on_c, 0, 74, 73
2,51460, Note_on_c, 0, 74, 0
2,51514, Note_on_c, 0, 53, 0
2,51571, Note_on_c, 0, 58, 58
2,51667, Note_on_c, 0, 58, 0
2,51721, Note_on_c, 0, 68, 75
2,51748, Note_on_c, 0, 51, 53
2,51897, Note_on_c, 0, 51, 0
2,51897, Note_on_c, 0, 54, 54
2,51959, Note_on_c, 0, 68, 0
2,51997, Note_on_c, 0, 54, 0
2,52034, Note_on_c, 0, 66, 66
2,52036, Note_on_c, 0, 58, 59
2,52090, Note_on_c, 0, 66, 0
2,52096, Note_on_c, 0, 58, 0
2,52168, Note_on_c, 0, 65, 58
2,52175, Note_on_c, 0, 62, 53
2,52237, Note_on_c, 0, 65, 0
2,52279, Note_on_c, 0, 62, 0
2,52319, Note_on_c, 0, 63, 57
2,52319, Note_on_c, 0, 66, 68
2,52366, Note_on_c, 0, 66, 0
2,52411, Note_on_c, 0, 63, 0
2,52453, Note_on_c, 0, 65, 45
2,52548, Note_on_c, 0, 65, 0
2,52611, Note_on_c, 0, 66, 54
2,52616, Note_on_c, 0, 75, 64
2,52676, Note_on_c, 0, 75, 0
2,52722, Note_on_c, 0, 66, 0
2,52754, Note_on_c, 0, 63, 59
2,52891, Note_on_c, 0, 63, 0
2,52907, Note_on_c, 0, 69, 71
2,52918, Note_on_c, 0, 60, 59
2,52998, Note_on_c, 0, 69, 0
2,53018, Note_on_c, 0, 60, 0
2,53053, Note_on_c, 0, 68, 72
2,53062, Note_on_c, 0, 61, 54
2,53119, Note_on_c, 0, 61, 0
2,53137, Note_on_c, 0, 68, 0
2,53188, Note_on_c, 0, 63, 56
2,53193, Note_on_c, 0, 66, 72
2,53258, Note_on_c, 0, 66, 0
2,53267, Note_on_c, 0, 63, 0
2,53314, Note_on_c, 0, 60, 63
2,53319, Note_on_c, 0, 68, 73
2,53366, Note_on_c, 0, 60, 0
2,53411, Note_on_c, 0, 68, 0
2,53476, Note_on_c, 0, 56, 59
2,53485, Note_on_c, 0, 75, 69
2,53596, Note_on_c, 0, 75, 0
2,53640, Note_on_c, 0, 44, 67
2,53764, Note_on_c, 0, 46, 69
2,53799, Note_on_c, 0, 72, 72
2,53824, Note_on_c, 0, 44, 0
2,53852, Note_on_c, 0, 72, 0
2,53869, Note_on_c, 0, 46, 0
2,53915, Control_c, 0, 64, 46
2,53919, Note_on_c, 0, 48, 59
2,53967, Note_on_c, 0, 48, 0
2,53970, Control_c, 0, 64, 47
2,54029, Control_c, 0, 64, 48
2,54096, Note_on_c, 0, 49, 64
2,54101, Note_on_c, 0, 67, 59
2,54128, Note_on_c, 0, 56, 0
2,54201, Control_c, 0, 64, 49
2,54250, Note_on_c, 0, 56, 63
2,54308, Note_on_c, 0, 49, 0
2,54324, Note_on_c, 0, 67, 0
2,54398, Note_on_c, 0, 58, 66
2,54402, Note_on_c, 0, 65, 62
2,54415, Note_on_c, 0, 56, 0
2,54484, Note_on_c, 0, 65, 0
2,54509, Note_on_c, 0, 58, 0
2,54539, Note_on_c, 0, 60, 57
2,54539, Note_on_c, 0, 63, 65
2,54628, Note_on_c, 0, 63, 0
2,54641, Control_c, 0, 64, 48
2,54694, Note_on_c, 0, 65, 64
2,54763, Note_on_c, 0, 60, 0
2,54788, Note_on_c, 0, 65, 0
2,54833, Note_on_c, 0, 51, 66
2,54837, Note_on_c, 0, 68, 73
2,54932, Note_on_c, 0, 68, 0
2,54984, Note_on_c, 0, 73, 76
2,54985, Note_on_c, 0, 51, 0
2,55009, Note_on_c, 0, 53, 38
2,55013, Note_on_c, 0, 52, 38
2,55071, Note_on_c, 0, 52, 0
2,55090, Note_on_c, 0, 73, 0
2,55102, Note_on_c, 0, 53, 0
2,55102, Note_on_c, 0, 55, 67
2,55128, Note_on_c, 0, 75, 75
2,55206, Note_on_c, 0, 75, 0
2,55254, Note_on_c, 0, 55, 0
2,55276, Note_on_c, 0, 56, 75
2,55280, Note_on_c, 0, 77, 83
2,55383, Note_on_c, 0, 77, 0
2,55399, Note_on_c, 0, 56, 0
2,55411, Note_on_c, 0, 55, 68
2,55420, Note_on_c, 0, 75, 79
2,55499, Note_on_c, 0, 75, 0
2,55552, Note_on_c, 0, 73, 83
2,55560, Note_on_c, 0, 53, 74
2,55589, Note_on_c, 0, 55, 0
2,55646, Note_on_c, 0, 73, 0
2,55692, Note_on_c, 0, 75, 83
2,55708, Note_on_c, 0, 55, 68
2,55720, Note_on_c, 0, 53, 0
2,55755, Note_on_c, 0, 75, 0
2,55835, Note_on_c, 0, 55, 0
2,55839, Note_on_c, 0, 56, 82
2,55839, Note_on_c, 0, 72, 86
2,55839, Note_on_c, 0, 84, 85
2,55963, Note_on_c, 0, 84, 0
2,55968, Note_on_c, 0, 55, 74
2,55991, Note_on_c, 0, 56, 0
2,56138, Note_on_c, 0, 53, 75
2,56142, Note_on_c, 0, 80, 80
2,56167, Note_on_c, 0, 55, 0
2,56178, Control_c, 0, 64, 47
2,56210, Note_on_c, 0, 80, 0
2,56270, Note_on_c, 0, 51, 79
2,56314, Note_on_c, 0, 53, 0
2,56445, Note_on_c, 0, 75, 79
2,56453, Note_on_c, 0, 53, 79
2,56508, Note_on_c, 0, 51, 0
2,56565, Control_c, 0, 64, 46
2,56594, Note_on_c, 0, 72, 0
2,56768, Note_on_c, 0, 75, 0
2,56776, Note_on_c, 0, 73, 78
2,56877, Note_on_c, 0, 73, 0
2,56899, Note_on_c, 0, 72, 81
2,56985, Note_on_c, 0, 72, 0
2,57058, Note_on_c, 0, 70, 76
2,57058, Note_on_c, 0, 73, 83
2,57141, Note_on_c, 0, 73, 0
2,57192, Note_on_c, 0, 51, 77
2,57197, Note_on_c, 0, 53, 0
2,57334, Control_c, 0, 64, 47
2,57338, Note_on_c, 0, 82, 83
2,57343, Note_on_c, 0, 49, 72
2,57352, Note_on_c, 0, 51, 0
2,57428, Note_on_c, 0, 82, 0
2,57454, Note_on_c, 0, 49, 0
2,57477, Note_on_c, 0, 53, 76
2,57634, Note_on_c, 0, 72, 88
2,57638, Note_on_c, 0, 51, 78
2,57651, Note_on_c, 0, 53, 0
2,57660, Control_c, 0, 64, 46
2,57672, Note_on_c, 0, 70, 0
2,57722, Note_on_c, 0, 72, 0
2,57755, Control_c, 0, 64, 45
2,57780, Note_on_c, 0, 49, 76
2,57798, Note_on_c, 0, 51, 0
2,57892, Control_c, 0, 64, 44
2,57915, Note_on_c, 0, 49, 0
2,57936, Note_on_c, 0, 80, 87
2,57940, Note_on_c, 0, 48, 67
2,57943, Note_on_c, 0, 68, 82
2,57969, Control_c, 0, 64, 45
2,58021, Note_on_c, 0, 68, 0
2,58021, Note_on_c, 0, 80, 0
2,58060, Note_on_c, 0, 48, 0
2,58080, Control_c, 0, 64, 44
2,58085, Note_on_c, 0, 51, 75
2,58158, Control_c, 0, 64, 43
2,58231, Note_on_c, 0, 49, 64
2,58235, Note_on_c, 0, 51, 0
2,58239, Note_on_c, 0, 67, 68
2,58239, Note_on_c, 0, 70, 74
2,58293, Note_on_c, 0, 67, 0
2,58323, Note_on_c, 0, 70, 0
2,58378, Note_on_c, 0, 48, 66
2,58389, Note_on_c, 0, 49, 0
2,58531, Note_on_c, 0, 48, 0
2,58535, Note_on_c, 0, 46, 65
2,58540, Note_on_c, 0, 79, 77
2,58546, Note_on_c, 0, 70, 76
2,58591, Note_on_c, 0, 79, 0
2,58610, Note_on_c, 0, 70, 0
2,58684, Note_on_c, 0, 46, 0
2,58684, Note_on_c, 0, 49, 70
2,58698, Control_c, 0, 64, 44
2,58853, Note_on_c, 0, 49, 0
2,58858, Note_on_c, 0, 68, 77
2,58862, Note_on_c, 0, 48, 66
2,58870, Note_on_c, 0, 63, 65
2,58921, Note_on_c, 0, 63, 0
2,58974, Note_on_c, 0, 68, 0
2,58985, Control_c, 0, 64, 43
2,58998, Note_on_c, 0, 63, 68
2,59102, Note_on_c, 0, 48, 0
2,59108, Note_on_c, 0, 63, 0
2,59151, Note_on_c, 0, 51, 62
2,59151, Note_on_c, 0, 65, 67
2,59264, Note_on_c, 0, 65, 0
2,59279, Note_on_c, 0, 67, 69
2,59414, Note_on_c, 0, 51, 0
2,59433, Note_on_c, 0, 68, 74
2,59438, Note_on_c, 0, 54, 75
2,59446, Note_on_c, 0, 67, 0
2,59483, Control_c, 0, 64, 44
2,59554, Note_on_c, 0, 68, 0
2,59580, Note_on_c, 0, 70, 75
2,59689, Note_on_c, 0, 70, 0
2,59725, Note_on_c, 0, 56, 85
2,59738, Note_on_c, 0, 72, 77
2,59818, Note_on_c, 0, 56, 0
2,59852, Note_on_c, 0, 72, 0
2,59879, Note_on_c, 0, 68, 74
2,60000, Note_on_c, 0, 68, 0
2,60051, Note_on_c, 0, 58, 82
2,60059, Note_on_c, 0, 73, 81
2,60182, Note_on_c, 0, 72, 80
2,60186, Note_on_c, 0, 56, 82
2,60207, Note_on_c, 0, 58, 0
2,60234, Note_on_c, 0, 73, 0
2,60237, Note_on_c, 0, 54, 0
2,60287, Note_on_c, 0, 72, 0
2,60321, Note_on_c, 0, 56, 0
2,60330, Note_on_c, 0, 54, 79
2,60330, Note_on_c, 0, 70, 82
2,60385, Control_c, 0, 64, 45
2,60459, Note_on_c, 0, 56, 88
2,60461, Note_on_c, 0, 72, 82
2,60475, Note_on_c, 0, 70, 0
2,60514, Note_on_c, 0, 54, 0
2,60572, Note_on_c, 0, 56, 0
2,60620, Note_on_c, 0, 65, 90
2,60620, Note_on_c, 0, 73, 84
2,60637, Note_on_c, 0, 72, 0
2,60641, Note_on_c, 0, 53, 53
2,60695, Note_on_c, 0, 65, 0
2,60735, Note_on_c, 0, 73, 0
2,60756, Note_on_c, 0, 72, 80
2,60863, Note_on_c, 0, 72, 0
2,60914, Note_on_c, 0, 61, 78
2,60914, Note_on_c, 0, 70, 74
2,60979, Note_on_c, 0, 61, 0
2,61004, Note_on_c, 0, 70, 0
2,61041, Control_c, 0, 64, 44
2,61041, Note_on_c, 0, 68, 78
2,61167, Note_on_c, 0, 68, 0
2,61218, Note_on_c, 0, 56, 78
2,61223, Note_on_c, 0, 70, 78
2,61527, Note_on_c, 0, 53, 0
2,61542, Note_on_c, 0, 54, 74
2,61559, Note_on_c, 0, 56, 0
2,61652, Control_c, 0, 64, 45
2,61654, Note_on_c, 0, 54, 0
2,61671, Note_on_c, 0, 53, 74
2,61760, Note_on_c, 0, 53, 0
2,61816, Note_on_c, 0, 54, 76
2,61833, Note_on_c, 0, 51, 72
2,61884, Note_on_c, 0, 70, 0
2,61913, Note_on_c, 0, 54, 0
2,61977, Note_on_c, 0, 68, 81
2,62062, Note_on_c, 0, 68, 0
2,62121, Note_on_c, 0, 63, 78
2,62125, Note_on_c, 0, 66, 81
2,62213, Note_on_c, 0, 63, 0
2,62223, Note_on_c, 0, 66, 0
2,62265, Note_on_c, 0, 70, 79
2,62362, Control_c, 0, 64, 44
2,62411, Note_on_c, 0, 53, 80
2,62416, Note_on_c, 0, 68, 84
2,62416, Note_on_c, 0, 70, 0
2,62440, Note_on_c, 0, 51, 0
2,62507, Note_on_c, 0, 68, 0
2,62523, Note_on_c, 0, 53, 0
2,62544, Note_on_c, 0, 66, 82
2,62641, Note_on_c, 0, 66, 0
2,62696, Note_on_c, 0, 65, 72
2,62704, Note_on_c, 0, 61, 78
2,62711, Note_on_c, 0, 49, 65
2,62805, Control_c, 0, 64, 45
2,62825, Note_on_c, 0, 61, 0
2,62825, Note_on_c, 0, 68, 79
2,62843, Note_on_c, 0, 65, 0
2,62905, Note_on_c, 0, 49, 0
2,62943, Note_on_c, 0, 68, 0
2,62987, Note_on_c, 0, 66, 78
2,62991, Note_on_c, 0, 51, 80
2,63123, Note_on_c, 0, 65, 72
2,63130, Note_on_c, 0, 66, 0
2,63148, Note_on_c, 0, 51, 0
2,63208, Control_c, 0, 64, 44
2,63221, Note_on_c, 0, 65, 0
2,63275, Note_on_c, 0, 63, 71
2,63286, Note_on_c, 0, 60, 60
2,63298, Note_on_c, 0, 44, 70
2,63336, Note_on_c, 0, 60, 0
2,63410, Note_on_c, 0, 66, 73
2,63420, Note_on_c, 0, 63, 0
2,63489, Note_on_c, 0, 44, 0
2,63506, Note_on_c, 0, 66, 0
2,63558, Note_on_c, 0, 65, 72
2,63567, Note_on_c, 0, 61, 60
2,63571, Note_on_c, 0, 49, 68
2,63625, Note_on_c, 0, 65, 0
2,63630, Note_on_c, 0, 49, 0
2,63700, Note_on_c, 0, 51, 70
2,63777, Note_on_c, 0, 61, 0
2,63784, Note_on_c, 0, 51, 0
2,63855, Note_on_c, 0, 68, 72
2,63875, Note_on_c, 0, 53, 56
2,63896, Note_on_c, 0, 68, 0
2,63970, Note_on_c, 0, 53, 0
2,64003, Note_on_c, 0, 54, 59
2,64108, Note_on_c, 0, 54, 0
2,64147, Note_on_c, 0, 73, 67
2,64153, Note_on_c, 0, 53, 54
2,64276, Note_on_c, 0, 53, 0
2,64296, Note_on_c, 0, 51, 55
2,64366, Note_on_c, 0, 51, 0
2,64370, Note_on_c, 0, 73, 0
2,64448, Note_on_c, 0, 49, 47
2,64450, Note_on_c, 0, 80, 61
2,64499, Note_on_c, 0, 49, 0
2,64521, Note_on_c, 0, 80, 0
2,64570, Note_on_c, 0, 53, 48
2,64575, Note_on_c, 0, 77, 66
2,64643, Note_on_c, 0, 77, 0
2,64650, Note_on_c, 0, 53, 0
2,64728, Note_on_c, 0, 73, 67
2,64737, Note_on_c, 0, 58, 51
2,64848, Note_on_c, 0, 58, 0
2,64873, Note_on_c, 0, 56, 51
2,64957, Note_on_c, 0, 56, 0
2,65013, Note_on_c, 0, 73, 0
2,65033, Note_on_c, 0, 76, 62
2,65048, Note_on_c, 0, 55, 42
2,65090, Note_on_c, 0, 76, 0
2,65135, Note_on_c, 0, 55, 0
2,65146, Note_on_c, 0, 73, 69
2,65181, Note_on_c, 0, 58, 47
2,65221, Note_on_c, 0, 73, 0
2,65243, Note_on_c, 0, 58, 0
2,65310, Note_on_c, 0, 70, 58
2,65321, Note_on_c, 0, 61, 51
2,65404, Note_on_c, 0, 61, 0
2,65437, Note_on_c, 0, 59, 57
2,65531, Note_on_c, 0, 70, 0
2,65556, Note_on_c, 0, 59, 0
2,65587, Note_on_c, 0, 58, 62
2,65592, Control_c, 0, 64, 45
2,65602, Note_on_c, 0, 73, 70
2,65664, Note_on_c, 0, 73, 0
2,65676, Note_on_c, 0, 58, 0
2,65733, Note_on_c, 0, 70, 62
2,65743, Note_on_c, 0, 61, 53
2,65801, Note_on_c, 0, 70, 0
2,65810, Note_on_c, 0, 61, 0
2,65880, Note_on_c, 0, 67, 59
2,65892, Note_on_c, 0, 64, 58
2,66164, Note_on_c, 0, 64, 0
2,66211, Note_on_c, 0, 63, 49
2,66215, Note_on_c, 0, 70, 57
2,66259, Note_on_c, 0, 70, 0
2,66273, Note_on_c, 0, 63, 0
2,66337, Note_on_c, 0, 73, 64
2,66353, Note_on_c, 0, 61, 49
2,66374, Control_c, 0, 64, 44
2,66406, Note_on_c, 0, 73, 0
2,66422, Note_on_c, 0, 61, 0
2,66496, Note_on_c, 0, 59, 54
2,66496, Note_on_c, 0, 76, 62
2,66581, Note_on_c, 0, 67, 0
2,66609, Note_on_c, 0, 59, 0
2,66641, Note_on_c, 0, 58, 54
2,66708, Note_on_c, 0, 58, 0
2,66784, Note_on_c, 0, 73, 70
2,66803, Note_on_c, 0, 56, 56
2,66866, Note_on_c, 0, 56, 0
2,66875, Note_on_c, 0, 73, 0
2,66927, Note_on_c, 0, 55, 68
2,67031, Note_on_c, 0, 76, 0
2,67036, Note_on_c, 0, 55, 0
2,67080, Note_on_c, 0, 75, 79
2,67084, Note_on_c, 0, 71, 72
2,67086, Note_on_c, 0, 56, 72
2,67137, Note_on_c, 0, 75, 0
2,67163, Control_c, 0, 64, 45
2,67170, Note_on_c, 0, 56, 0
2,67221, Note_on_c, 0, 59, 69
2,67341, Note_on_c, 0, 59, 0
2,67378, Note_on_c, 0, 80, 75
2,67399, Note_on_c, 0, 58, 62
2,67450, Note_on_c, 0, 80, 0
2,67528, Note_on_c, 0, 56, 60
2,67539, Note_on_c, 0, 58, 0
2,67626, Note_on_c, 0, 56, 0
2,67635, Note_on_c, 0, 71, 0
2,67665, Note_on_c, 0, 55, 65
2,67673, Note_on_c, 0, 73, 84
2,67682, Note_on_c, 0, 70, 70
2,67753, Note_on_c, 0, 73, 0
2,67757, Note_on_c, 0, 55, 0
2,67809, Note_on_c, 0, 52, 57
2,67957, Note_on_c, 0, 52, 0
2,67969, Note_on_c, 0, 51, 64
2,67969, Note_on_c, 0, 79, 77
2,67973, Note_on_c, 0, 70, 0
2,68025, Note_on_c, 0, 79, 0
2,68097, Note_on_c, 0, 51, 0
2,68115, Note_on_c, 0, 49, 60
2,68238, Note_on_c, 0, 49, 0
2,68269, Note_on_c, 0, 68, 78
2,68273, Note_on_c, 0, 47, 63
2,68309, Note_on_c, 0, 68, 0
2,68393, Note_on_c, 0, 47, 0
2,68404, Note_on_c, 0, 49, 65
2,68492, Note_on_c, 0, 49, 0
2,68554, Note_on_c, 0, 51, 67
2,68571, Note_on_c, 0, 80, 74
2,68621, Note_on_c, 0, 80, 0
2,68647, Note_on_c, 0, 51, 0
2,68683, Note_on_c, 0, 47, 59
2,68689, Note_on_c, 0, 79, 81
2,68768, Note_on_c, 0, 79, 0
2,68794, Control_c, 0, 64, 44
2,68803, Note_on_c, 0, 47, 0
2,68833, Note_on_c, 0, 44, 61
2,68833, Note_on_c, 0, 80, 78
2,68872, Control_c, 0, 64, 43
2,68877, Note_on_c, 0, 44, 0
2,68942, Note_on_c, 0, 80, 0
2,68979, Note_on_c, 0, 82, 62
2,69033, Note_on_c, 0, 82, 0
2,69124, Note_on_c, 0, 56, 53
2,69140, Note_on_c, 0, 83, 48
2,69144, Control_c, 0, 64, 44
2,69186, Note_on_c, 0, 56, 0
2,69229, Note_on_c, 0, 83, 0
2,69258, Note_on_c, 0, 53, 45
2,69258, Note_on_c, 0, 80, 55
2,69308, Note_on_c, 0, 80, 0
2,69356, Note_on_c, 0, 53, 0
2,69395, Note_on_c, 0, 49, 61
2,69399, Note_on_c, 0, 77, 68
2,69432, Note_on_c, 0, 49, 0
2,69524, Note_on_c, 0, 77, 0
2,69552, Note_on_c, 0, 78, 59
2,69609, Note_on_c, 0, 78, 0
2,69697, Note_on_c, 0, 80, 64
2,69701, Note_on_c, 0, 59, 64
2,69755, Note_on_c, 0, 59, 0
2,69760, Note_on_c, 0, 80, 0
2,69815, Note_on_c, 0, 56, 61
2,69822, Note_on_c, 0, 77, 62
2,69879, Note_on_c, 0, 56, 0
2,69888, Note_on_c, 0, 77, 0
2,69967, Note_on_c, 0, 53, 58
2,69983, Note_on_c, 0, 73, 65
2,70008, Note_on_c, 0, 53, 0
2,70107, Note_on_c, 0, 73, 0
2,70120, Note_on_c, 0, 75, 57
2,70179, Note_on_c, 0, 75, 0
2,70274, Note_on_c, 0, 77, 65
2,70288, Note_on_c, 0, 49, 66
2,70331, Note_on_c, 0, 77, 0
2,70344, Note_on_c, 0, 49, 0
2,70396, Note_on_c, 0, 46, 69
2,70400, Note_on_c, 0, 73, 70
2,70451, Note_on_c, 0, 46, 0
2,70451, Note_on_c, 0, 73, 0
2,70533, Note_on_c, 0, 42, 69
2,70538, Note_on_c, 0, 70, 71
2,70570, Note_on_c, 0, 42, 0
2,70599, Control_c, 0, 64, 43
2,70651, Note_on_c, 0, 70, 0
2,70681, Note_on_c, 0, 72, 59
2,70782, Note_on_c, 0, 72, 0
2,70847, Note_on_c, 0, 73, 63
2,70852, Note_on_c, 0, 58, 56
2,70901, Note_on_c, 0, 73, 0
2,70915, Note_on_c, 0, 58, 0
2,70973, Note_on_c, 0, 70, 67
2,70987, Note_on_c, 0, 54, 56
2,71046, Note_on_c, 0, 54, 0
2,71069, Note_on_c, 0, 70, 0
2,71127, Note_on_c, 0, 51, 63
2,71132, Note_on_c, 0, 78, 64
2,71168, Note_on_c, 0, 51, 0
2,71228, Note_on_c, 0, 78, 0
2,71264, Note_on_c, 0, 80, 66
2,71354, Note_on_c, 0, 80, 0
2,71422, Note_on_c, 0, 54, 74
2,71422, Note_on_c, 0, 82, 67
2,71501, Note_on_c, 0, 54, 0
2,71512, Note_on_c, 0, 82, 0
2,71550, Note_on_c, 0, 51, 66
2,71550, Note_on_c, 0, 78, 71
2,71623, Note_on_c, 0, 78, 0
2,71634, Note_on_c, 0, 51, 0
2,71701, Note_on_c, 0, 75, 66
2,71705, Note_on_c, 0, 48, 53
2,71764, Note_on_c, 0, 48, 0
2,71804, Note_on_c, 0, 75, 0
2,71841, Note_on_c, 0, 77, 62
2,71911, Note_on_c, 0, 77, 0
2,71989, Note_on_c, 0, 78, 68
2,72000, Note_on_c, 0, 58, 61
2,72057, Note_on_c, 0, 58, 0
2,72077, Note_on_c, 0, 78, 0
2,72126, Note_on_c, 0, 75, 65
2,72129, Note_on_c, 0, 54, 58
2,72186, Note_on_c, 0, 75, 0
2,72188, Note_on_c, 0, 54, 0
2,72248, Control_c, 0, 64, 44
2,72277, Note_on_c, 0, 51, 72
2,72281, Note_on_c, 0, 72, 67
2,72315, Note_on_c, 0, 51, 0
2,72406, Note_on_c, 0, 72, 0
2,72410, Note_on_c, 0, 73, 72
2,72511, Note_on_c, 0, 73, 0
2,72566, Note_on_c, 0, 75, 69
2,72570, Note_on_c, 0, 48, 74
2,72648, Note_on_c, 0, 48, 0
2,72653, Note_on_c, 0, 75, 0
2,72699, Note_on_c, 0, 44, 78
2,72708, Note_on_c, 0, 72, 72
2,72796, Note_on_c, 0, 72, 0
2,72802, Note_on_c, 0, 44, 0
2,72847, Note_on_c, 0, 41, 73
2,72867, Note_on_c, 0, 68, 74
2,72934, Note_on_c, 0, 41, 0
2,72967, Note_on_c, 0, 68, 0
2,73009, Note_on_c, 0, 70, 66
2,73106, Note_on_c, 0, 70, 0
2,73164, Note_on_c, 0, 72, 63
2,73167, Note_on_c, 0, 56, 53
2,73223, Note_on_c, 0, 72, 0
2,73232, Note_on_c, 0, 56, 0
2,73298, Note_on_c, 0, 68, 71
2,73303, Note_on_c, 0, 53, 57
2,73367, Note_on_c, 0, 53, 0
2,73376, Note_on_c, 0, 68, 0
2,73451, Note_on_c, 0, 50, 65
2,73457, Note_on_c, 0, 77, 67
2,73511, Note_on_c, 0, 50, 0
2,73570, Note_on_c, 0, 77, 0
2,73583, Note_on_c, 0, 78, 68
2,73667, Note_on_c, 0, 78, 0
2,73736, Note_on_c, 0, 53, 73
2,73743, Note_on_c, 0, 80, 71
2,73817, Note_on_c, 0, 53, 0
2,73861, Note_on_c, 0, 50, 68
2,73868, Note_on_c, 0, 80, 0
2,73875, Note_on_c, 0, 77, 70
2,73951, Note_on_c, 0, 50, 0
2,73951, Note_on_c, 0, 77, 0
2,74032, Note_on_c, 0, 74, 65
2,74037, Note_on_c, 0, 46, 56
2,74099, Note_on_c, 0, 74, 0
2,74136, Note_on_c, 0, 46, 0
2,74178, Note_on_c, 0, 75, 67
2,74265, Note_on_c, 0, 75, 0
2,74320, Note_on_c, 0, 56, 62
2,74322, Note_on_c, 0, 77, 67
2,74384, Note_on_c, 0, 56, 0
2,74414, Note_on_c, 0, 77, 0
2,74440, Note_on_c, 0, 53, 58
2,74449, Note_on_c, 0, 74, 68
2,74505, Note_on_c, 0, 53, 0
2,74520, Note_on_c, 0, 74, 0
2,74573, Control_c, 0, 64, 45
2,74595, Note_on_c, 0, 50, 65
2,74602, Note_on_c, 0, 70, 70
2,74635, Note_on_c, 0, 50, 0
2,74731, Note_on_c, 0, 72, 72
2,74743, Note_on_c, 0, 70, 0
2,74817, Note_on_c, 0, 72, 0
2,74881, Note_on_c, 0, 74, 75
2,74885, Note_on_c, 0, 46, 78
2,74973, Note_on_c, 0, 74, 0
2,74977, Note_on_c, 0, 46, 0
2,75010, Note_on_c, 0, 42, 76
2,75016, Note_on_c, 0, 70, 75
2,75092, Note_on_c, 0, 42, 0
2,75107, Note_on_c, 0, 70, 0
2,75160, Note_on_c, 0, 39, 76
2,75169, Note_on_c, 0, 66, 73
2,75222, Note_on_c, 0, 39, 0
2,75311, Note_on_c, 0, 68, 72
2,75315, Note_on_c, 0, 66, 0
2,75320, Control_c, 0, 64, 44
2,75422, Note_on_c, 0, 68, 0
2,75469, Note_on_c, 0, 54, 64
2,75474, Note_on_c, 0, 70, 64
2,75525, Note_on_c, 0, 70, 0
2,75530, Note_on_c, 0, 54, 0
2,75568, Control_c, 0, 64, 45
2,75601, Note_on_c, 0, 51, 65
2,75601, Note_on_c, 0, 66, 61
2,75662, Note_on_c, 0, 51, 0
2,75698, Note_on_c, 0, 66, 0
2,75749, Note_on_c, 0, 48, 64
2,75757, Note_on_c, 0, 75, 70
2,75814, Note_on_c, 0, 48, 0
2,75880, Note_on_c, 0, 77, 72
2,75884, Note_on_c, 0, 75, 0
2,75978, Note_on_c, 0, 77, 0
2,76033, Note_on_c, 0, 78, 79
2,76046, Note_on_c, 0, 51, 78
2,76130, Note_on_c, 0, 51, 0
2,76150, Note_on_c, 0, 78, 0
2,76169, Note_on_c, 0, 75, 74
2,76174, Note_on_c, 0, 48, 73
2,76248, Note_on_c, 0, 75, 0
2,76257, Note_on_c, 0, 48, 0
2,76321, Note_on_c, 0, 72, 72
2,76330, Note_on_c, 0, 44, 70
2,76428, Note_on_c, 0, 44, 0
2,76464, Note_on_c, 0, 73, 73
2,76482, Note_on_c, 0, 72, 0
2,76546, Note_on_c, 0, 73, 0
2,76609, Note_on_c, 0, 54, 79
2,76613, Note_on_c, 0, 75, 77
2,76665, Note_on_c, 0, 54, 0
2,76709, Note_on_c, 0, 75, 0
2,76722, Note_on_c, 0, 51, 78
2,76738, Note_on_c, 0, 72, 77
2,76760, Control_c, 0, 64, 46
2,76825, Note_on_c, 0, 51, 0
2,76830, Note_on_c, 0, 72, 0
2,76879, Note_on_c, 0, 48, 78
2,76887, Note_on_c, 0, 68, 83
2,76927, Note_on_c, 0, 48, 0
2,77030, Note_on_c, 0, 70, 80
2,77063, Note_on_c, 0, 68, 0
2,77131, Note_on_c, 0, 70, 0
2,77181, Note_on_c, 0, 44, 86
2,77181, Note_on_c, 0, 72, 83
2,77262, Note_on_c, 0, 44, 0
2,77289, Note_on_c, 0, 72, 0
2,77309, Note_on_c, 0, 68, 87
2,77311, Note_on_c, 0, 41, 83
2,77394, Note_on_c, 0, 41, 0
2,77434, Note_on_c, 0, 68, 0
2,77471, Note_on_c, 0, 37, 82
2,77471, Note_on_c, 0, 65, 79
2,77620, Note_on_c, 0, 65, 0
2,77624, Note_on_c, 0, 66, 74
2,77719, Note_on_c, 0, 66, 0
2,77743, Control_c, 0, 64, 45
2,77766, Note_on_c, 0, 68, 82
2,77875, Note_on_c, 0, 68, 0
2,77905, Note_on_c, 0, 65, 76
2,77975, Note_on_c, 0, 37, 0
2,78026, Note_on_c, 0, 65, 0
2,78062, Note_on_c, 0, 61, 77
2,78144, Note_on_c, 0, 61, 0
2,78188, Note_on_c, 0, 65, 75
2,78285, Note_on_c, 0, 65, 0
2,78348, Note_on_c, 0, 68, 83
2,78356, Control_c, 0, 64, 44
2,78432, Note_on_c, 0, 68, 0
2,78489, Note_on_c, 0, 70, 80
2,78572, Note_on_c, 0, 70, 0
2,78641, Note_on_c, 0, 71, 90
2,78684, Control_c, 0, 64, 45
2,78739, Note_on_c, 0, 71, 0
2,78784, Note_on_c, 0, 70, 81
2,78859, Note_on_c, 0, 70, 0
2,78916, Note_on_c, 0, 59, 73
2,78925, Note_on_c, 0, 68, 86
2,79002, Note_on_c, 0, 68, 0
2,79020, Note_on_c, 0, 59, 0
2,79055, Note_on_c, 0, 49, 71
2,79060, Note_on_c, 0, 70, 86
2,79160, Note_on_c, 0, 70, 0
2,79176, Note_on_c, 0, 49, 0
2,79213, Note_on_c, 0, 78, 91
2,79220, Note_on_c, 0, 58, 78
2,79280, Note_on_c, 0, 58, 0
2,79317, Note_on_c, 0, 78, 0
2,79344, Note_on_c, 0, 49, 64
2,79462, Note_on_c, 0, 49, 0
2,79514, Note_on_c, 0, 73, 90
2,79526, Note_on_c, 0, 56, 76
2,79589, Note_on_c, 0, 73, 0
2,79598, Note_on_c, 0, 56, 0
2,79649, Note_on_c, 0, 49, 64
2,79663, Control_c, 0, 64, 44
2,79805, Note_on_c, 0, 49, 0
2,79825, Note_on_c, 0, 70, 86
2,79842, Note_on_c, 0, 54, 72
2,79957, Note_on_c, 0, 54, 0
2,79963, Note_on_c, 0, 49, 69
2,80087, Note_on_c, 0, 70, 0
2,80106, Note_on_c, 0, 49, 0
2,80136, Note_on_c, 0, 53, 65
2,80151, Note_on_c, 0, 68, 80
2,80222, Note_on_c, 0, 68, 0
2,80260, Note_on_c, 0, 53, 0
2,80275, Note_on_c, 0, 51, 69
2,80275, Note_on_c, 0, 66, 75
2,80371, Note_on_c, 0, 66, 0
2,80382, Note_on_c, 0, 51, 0
2,80423, Note_on_c, 0, 68, 75
2,80427, Note_on_c, 0, 53, 60
2,80510, Note_on_c, 0, 68, 0
2,80564, Note_on_c, 0, 61, 69
2,80657, Note_on_c, 0, 53, 0
2,80682, Note_on_c, 0, 61, 0
2,80726, Note_on_c, 0, 65, 68
2,80730, Note_on_c, 0, 44, 65
2,80809, Note_on_c, 0, 65, 0
2,80861, Note_on_c, 0, 68, 76
2,80925, Note_on_c, 0, 44, 0
2,80944, Note_on_c, 0, 68, 0
2,81018, Note_on_c, 0, 70, 81
2,81102, Note_on_c, 0, 70, 0
2,81156, Note_on_c, 0, 68, 80
2,81237, Note_on_c, 0, 68, 0
2,81289, Note_on_c, 0, 66, 79
2,81300, Note_on_c, 0, 58, 72
2,81369, Note_on_c, 0, 66, 0
2,81402, Note_on_c, 0, 58, 0
2,81429, Note_on_c, 0, 68, 80
2,81444, Note_on_c, 0, 49, 65
2,81511, Note_on_c, 0, 68, 0
2,81538, Note_on_c, 0, 49, 0
2,81571, Note_on_c, 0, 77, 87
2,81584, Note_on_c, 0, 56, 74
2,81654, Note_on_c, 0, 77, 0
2,81685, Note_on_c, 0, 56, 0
2,81720, Note_on_c, 0, 49, 72
2,81879, Note_on_c, 0, 73, 82
2,81884, Note_on_c, 0, 54, 69
2,81888, Note_on_c, 0, 49, 0
2,81948, Note_on_c, 0, 73, 0
2,82009, Note_on_c, 0, 54, 0
2,82023, Note_on_c, 0, 49, 68
2,82130, Note_on_c, 0, 49, 0
2,82170, Note_on_c, 0, 68, 77
2,82180, Note_on_c, 0, 53, 69
2,82331, Note_on_c, 0, 49, 58
2,82335, Note_on_c, 0, 53, 0
2,82394, Note_on_c, 0, 68, 0
2,82428, Note_on_c, 0, 49, 0
2,82472, Note_on_c, 0, 66, 72
2,82476, Note_on_c, 0, 51, 69
2,82542, Control_c, 0, 64, 43
2,82542, Note_on_c, 0, 66, 0
2,82565, Note_on_c, 0, 51, 0
2,82595, Note_on_c, 0, 49, 60
2,82599, Note_on_c, 0, 65, 63
2,82671, Note_on_c, 0, 65, 0
2,82705, Note_on_c, 0, 49, 0
2,82748, Note_on_c, 0, 51, 59
2,82753, Note_on_c, 0, 66, 64
2,82826, Note_on_c, 0, 66, 0
2,82886, Note_on_c, 0, 60, 60
2,82954, Note_on_c, 0, 51, 0
2,82959, Note_on_c, 0, 60, 0
2,83045, Note_on_c, 0, 63, 62
2,83056, Note_on_c, 0, 44, 53
2,83147, Note_on_c, 0, 63, 0
2,83156, Control_c, 0, 64, 44
2,83183, Note_on_c, 0, 66, 70
2,83261, Note_on_c, 0, 44, 0
2,83265, Note_on_c, 0, 66, 0
2,83332, Note_on_c, 0, 68, 79
2,83417, Note_on_c, 0, 68, 0
2,83461, Note_on_c, 0, 66, 70
2,83529, Note_on_c, 0, 66, 0
2,83606, Note_on_c, 0, 65, 62
2,83610, Note_on_c, 0, 56, 60
2,83670, Note_on_c, 0, 65, 0
2,83688, Note_on_c, 0, 56, 0
2,83739, Note_on_c, 0, 66, 70
2,83750, Note_on_c, 0, 44, 62
2,83818, Note_on_c, 0, 66, 0
2,83837, Note_on_c, 0, 44, 0
2,83894, Note_on_c, 0, 54, 68
2,83899, Note_on_c, 0, 75, 72
2,83978, Note_on_c, 0, 54, 0
2,83998, Note_on_c, 0, 75, 0
2,84017, Note_on_c, 0, 44, 64
2,84112, Note_on_c, 0, 44, 0
2,84189, Note_on_c, 0, 72, 74
2,84197, Note_on_c, 0, 53, 63
2,84233, Note_on_c, 0, 72, 0
2,84279, Note_on_c, 0, 53, 0
2,84325, Note_on_c, 0, 44, 63
2,84440, Note_on_c, 0, 44, 0
2,84481, Note_on_c, 0, 66, 65
2,84500, Note_on_c, 0, 51, 64
2,84574, Note_on_c, 0, 51, 0
2,84631, Note_on_c, 0, 44, 63
2,84709, Note_on_c, 0, 66, 0
2,84775, Note_on_c, 0, 44, 0
2,84783, Note_on_c, 0, 49, 62
2,84790, Note_on_c, 0, 65, 60
2,84852, Note_on_c, 0, 65, 0
2,84867, Note_on_c, 0, 49, 0
2,84923, Note_on_c, 0, 48, 61
2,84927, Note_on_c, 0, 63, 68
2,85008, Note_on_c, 0, 63, 0
2,85057, Note_on_c, 0, 48, 0
2,85069, Note_on_c, 0, 65, 71
2,85071, Note_on_c, 0, 49, 58
2,85153, Note_on_c, 0, 65, 0
2,85198, Note_on_c, 0, 49, 0
2,85203, Note_on_c, 0, 68, 75
2,85222, Note_on_c, 0, 44, 66
2,85334, Note_on_c, 0, 44, 0
2,85334, Note_on_c, 0, 68, 0
2,85345, Control_c, 0, 64, 45
2,85363, Note_on_c, 0, 70, 80
2,85368, Note_on_c, 0, 53, 67
2,85443, Note_on_c, 0, 70, 0
2,85497, Note_on_c, 0, 72, 83
2,85501, Note_on_c, 0, 53, 0
2,85505, Note_on_c, 0, 51, 76
2,85557, Control_c, 0, 64, 46
2,85600, Note_on_c, 0, 72, 0
2,85637, Note_on_c, 0, 51, 0
2,85641, Note_on_c, 0, 53, 76
2,85655, Note_on_c, 0, 73, 87
2,85755, Note_on_c, 0, 53, 0
2,85795, Note_on_c, 0, 44, 80
2,85800, Note_on_c, 0, 75, 81
2,85808, Note_on_c, 0, 73, 0
2,85902, Note_on_c, 0, 75, 0
2,85920, Note_on_c, 0, 44, 0
2,85938, Control_c, 0, 64, 45
2,85951, Note_on_c, 0, 56, 87
2,85956, Note_on_c, 0, 77, 82
2,86051, Note_on_c, 0, 77, 0
2,86091, Note_on_c, 0, 54, 76
2,86091, Note_on_c, 0, 56, 0
2,86096, Note_on_c, 0, 75, 77
2,86116, Control_c, 0, 64, 46
2,86203, Note_on_c, 0, 54, 0
2,86242, Note_on_c, 0, 56, 83
2,86257, Note_on_c, 0, 75, 0
2,86262, Note_on_c, 0, 78, 83
2,86341, Note_on_c, 0, 56, 0
2,86386, Note_on_c, 0, 44, 80
2,86390, Note_on_c, 0, 77, 79
2,86437, Note_on_c, 0, 78, 0
2,86489, Note_on_c, 0, 44, 0
2,86506, Note_on_c, 0, 77, 0
2,86537, Control_c, 0, 64, 47
2,86537, Note_on_c, 0, 58, 84
2,86542, Note_on_c, 0, 75, 82
2,86575, Control_c, 0, 64, 48
2,86593, Control_c, 0, 64, 50
2,86609, Note_on_c, 0, 58, 0
2,86614, Control_c, 0, 64, 59
2,86631, Control_c, 0, 64, 65
2,86636, Note_on_c, 0, 75, 0
2,86654, Control_c, 0, 64, 72
2,86669, Control_c, 0, 64, 85
2,86675, Note_on_c, 0, 44, 84
2,86682, Note_on_c, 0, 73, 80
2,86688, Control_c, 0, 64, 102
2,86708, Control_c, 0, 64, 127
2,86752, Note_on_c, 0, 44, 0
2,86780, Note_on_c, 0, 73, 0
2,86856, Note_on_c, 0, 82, 74
2,86864, Control_c, 0, 64, 122
2,86864, Note_on_c, 0, 60, 85
2,86883, Control_c, 0, 64, 99
2,86902, Control_c, 0, 64, 76
2,86921, Control_c, 0, 64, 62
2,86926, Note_on_c, 0, 80, 65
2,86938, Control_c, 0, 64, 48
2,86954, Note_on_c, 0, 82, 0
2,86958, Control_c, 0, 64, 35
2,86978, Control_c, 0, 64, 32
2,86994, Note_on_c, 0, 78, 74
2,86998, Note_on_c, 0, 61, 76
2,86998, Note_on_c, 0, 80, 0
2,87015, Control_c, 0, 64, 34
2,87031, Note_on_c, 0, 60, 0
2,87083, Note_on_c, 0, 80, 67
2,87103, Note_on_c, 0, 78, 0
2,87154, Note_on_c, 0, 80, 0
2,87161, Note_on_c, 0, 63, 86
2,87161, Note_on_c, 0, 82, 69
2,87187, Control_c, 0, 64, 35
2,87202, Note_on_c, 0, 61, 0
2,87239, Note_on_c, 0, 80, 68
2,87241, Note_on_c, 0, 82, 0
2,87304, Note_on_c, 0, 60, 77
2,87309, Note_on_c, 0, 80, 0
2,87322, Note_on_c, 0, 63, 0
2,87329, Note_on_c, 0, 82, 62
2,87342, Control_c, 0, 64, 36
2,87402, Control_c, 0, 64, 37
2,87402, Note_on_c, 0, 82, 0
2,87406, Note_on_c, 0, 80, 64
2,87452, Note_on_c, 0, 56, 82
2,87458, Note_on_c, 0, 60, 0
2,87462, Note_on_c, 0, 80, 0
2,87492, Note_on_c, 0, 82, 58
2,87552, Note_on_c, 0, 80, 67
2,87557, Note_on_c, 0, 82, 0
2,87596, Note_on_c, 0, 60, 76
2,87631, Note_on_c, 0, 80, 0
2,87646, Note_on_c, 0, 56, 0
2,87646, Note_on_c, 0, 82, 56
2,87698, Note_on_c, 0, 80, 61
2,87709, Note_on_c, 0, 82, 0
2,87739, Note_on_c, 0, 63, 78
2,87743, Note_on_c, 0, 60, 0
2,87772, Note_on_c, 0, 80, 0
2,87792, Note_on_c, 0, 82, 59
2,87852, Note_on_c, 0, 80, 62
2,87866, Note_on_c, 0, 82, 0
2,87870, Note_on_c, 0, 63, 0
2,87890, Note_on_c, 0, 65, 70
2,87920, Note_on_c, 0, 80, 0
2,87931, Note_on_c, 0, 82, 49
2,87994, Note_on_c, 0, 80, 64
2,88035, Note_on_c, 0, 82, 0
2,88070, Note_on_c, 0, 66, 83
2,88103, Note_on_c, 0, 65, 0
2,88146, Note_on_c, 0, 80, 0
2,88229, Note_on_c, 0, 65, 74
2,88234, Note_on_c, 0, 66, 0
2,88252, Note_on_c, 0, 80, 66
2,88369, Note_on_c, 0, 65, 0
2,88369, Note_on_c, 0, 80, 0
2,88378, Note_on_c, 0, 63, 73
2,88387, Note_on_c, 0, 78, 67
2,88493, Note_on_c, 0, 78, 0
2,88502, Note_on_c, 0, 63, 0
2,88515, Note_on_c, 0, 65, 75
2,88515, Note_on_c, 0, 80, 71
2,88598, Note_on_c, 0, 65, 0
2,88662, Note_on_c, 0, 80, 0
2,88673, Note_on_c, 0, 73, 82
2,88677, Note_on_c, 0, 77, 73
2,88686, Control_c, 0, 64, 36
2,88706, Note_on_c, 0, 73, 0
2,88725, Control_c, 0, 64, 35
2,88725, Note_on_c, 0, 77, 0
2,88820, Note_on_c, 0, 80, 58
2,88981, Note_on_c, 0, 80, 0
2,88985, Note_on_c, 0, 68, 73
2,88999, Note_on_c, 0, 75, 63
2,89019, Note_on_c, 0, 68, 0
2,89058, Note_on_c, 0, 75, 0
2,89135, Note_on_c, 0, 80, 62
2,89282, Note_on_c, 0, 80, 0
2,89299, Note_on_c, 0, 65, 67
2,89308, Note_on_c, 0, 73, 64
2,89357, Control_c, 0, 64, 36
2,89443, Note_on_c, 0, 80, 58
2,89447, Note_on_c, 0, 73, 0
2,89581, Note_on_c, 0, 80, 0
2,89593, Note_on_c, 0, 65, 0
2,89617, Note_on_c, 0, 63, 64
2,89617, Note_on_c, 0, 72, 63
2,89682, Note_on_c, 0, 72, 0
2,89738, Note_on_c, 0, 70, 67
2,89749, Note_on_c, 0, 63, 0
2,89754, Note_on_c, 0, 61, 53
2,89849, Note_on_c, 0, 70, 0
2,89865, Note_on_c, 0, 61, 0
2,89897, Note_on_c, 0, 63, 60
2,89897, Note_on_c, 0, 72, 65
2,89953, Note_on_c, 0, 72, 0
2,90041, Note_on_c, 0, 75, 61
2,90054, Note_on_c, 0, 63, 0
2,90058, Note_on_c, 0, 56, 56
2,90124, Note_on_c, 0, 75, 0
2,90187, Note_on_c, 0, 56, 0
2,90187, Note_on_c, 0, 60, 65
2,90192, Note_on_c, 0, 77, 72
2,90276, Note_on_c, 0, 77, 0
2,90322, Note_on_c, 0, 78, 65
2,90326, Note_on_c, 0, 60, 0
2,90337, Note_on_c, 0, 63, 67
2,90434, Note_on_c, 0, 63, 0
2,90448, Note_on_c, 0, 78, 0
2,90480, Note_on_c, 0, 80, 70
2,90483, Note_on_c, 0, 65, 63
2,90595, Note_on_c, 0, 80, 0
2,90603, Note_on_c, 0, 65, 0
2,90617, Note_on_c, 0, 78, 69
2,90634, Note_on_c, 0, 63, 60
2,90709, Note_on_c, 0, 63, 0
2,90740, Note_on_c, 0, 78, 0
2,90767, Note_on_c, 0, 61, 63
2,90774, Note_on_c, 0, 77, 73
2,90845, Note_on_c, 0, 77, 0
2,90863, Note_on_c, 0, 61, 0
2,90909, Note_on_c, 0, 63, 67
2,90914, Note_on_c, 0, 80, 70
2,90985, Note_on_c, 0, 63, 0
2,91047, Note_on_c, 0, 80, 0
2,91064, Note_on_c, 0, 72, 74
2,91073, Note_on_c, 0, 75, 69
2,91085, Control_c, 0, 64, 37
2,91103, Note_on_c, 0, 72, 0
2,91118, Note_on_c, 0, 75, 0
2,91206, Note_on_c, 0, 80, 64
2,91354, Note_on_c, 0, 80, 0
2,91373, Note_on_c, 0, 68, 75
2,91377, Note_on_c, 0, 73, 66
2,91408, Note_on_c, 0, 68, 0
2,91469, Note_on_c, 0, 73, 0
2,91518, Note_on_c, 0, 80, 61
2,91656, Note_on_c, 0, 80, 0
2,91690, Note_on_c, 0, 72, 60
2,91699, Note_on_c, 0, 63, 62
2,91819, Note_on_c, 0, 80, 64
2,91866, Note_on_c, 0, 72, 0
2,91903, Note_on_c, 0, 80, 0
2,91932, Note_on_c, 0, 63, 0
2,91989, Note_on_c, 0, 61, 65
2,92004, Note_on_c, 0, 70, 69
2,92081, Note_on_c, 0, 70, 0
2,92104, Note_on_c, 0, 61, 0
2,92121, Note_on_c, 0, 68, 69
2,92130, Note_on_c, 0, 60, 63
2,92248, Note_on_c, 0, 60, 0
2,92282, Note_on_c, 0, 61, 57
2,92282, Note_on_c, 0, 70, 71
2,92304, Note_on_c, 0, 68, 0
2,92340, Note_on_c, 0, 70, 0
2,92415, Note_on_c, 0, 61, 0
2,92419, Note_on_c, 0, 73, 77
2,92433, Note_on_c, 0, 56, 61
2,92555, Note_on_c, 0, 73, 0
2,92563, Note_on_c, 0, 56, 0
2,92567, Note_on_c, 0, 75, 64
2,92582, Note_on_c, 0, 60, 63
2,92684, Note_on_c, 0, 75, 0
2,92703, Note_on_c, 0, 60, 0
2,92708, Note_on_c, 0, 77, 70
2,92726, Note_on_c, 0, 61, 54
2,92803, Note_on_c, 0, 77, 0
2,92863, Note_on_c, 0, 78, 71
2,92879, Note_on_c, 0, 61, 0
2,92879, Note_on_c, 0, 63, 66
2,92983, Note_on_c, 0, 78, 0
2,93000, Note_on_c, 0, 77, 66
2,93016, Note_on_c, 0, 61, 64
2,93037, Note_on_c, 0, 63, 0
2,93125, Note_on_c, 0, 61, 0
2,93125, Note_on_c, 0, 77, 0
2,93152, Note_on_c, 0, 75, 68
2,93162, Note_on_c, 0, 60, 61
2,93266, Note_on_c, 0, 60, 0
2,93278, Note_on_c, 0, 61, 67
2,93301, Note_on_c, 0, 75, 0
2,93303, Note_on_c, 0, 77, 68
2,93376, Note_on_c, 0, 61, 0
2,93431, Note_on_c, 0, 77, 0
2,93458, Note_on_c, 0, 70, 70
2,93466, Note_on_c, 0, 73, 70
2,93500, Note_on_c, 0, 70, 0
2,93580, Note_on_c, 0, 73, 0
2,93612, Note_on_c, 0, 75, 62
2,93706, Note_on_c, 0, 75, 0
2,93755, Note_on_c, 0, 67, 65
2,93776, Note_on_c, 0, 72, 68
2,93792, Note_on_c, 0, 67, 0
2,93841, Note_on_c, 0, 72, 0
2,93909, Note_on_c, 0, 75, 56
2,94066, Note_on_c, 0, 75, 0
2,94073, Note_on_c, 0, 70, 60
2,94077, Note_on_c, 0, 61, 58
2,94217, Note_on_c, 0, 70, 0
2,94233, Note_on_c, 0, 75, 60
2,94358, Note_on_c, 0, 75, 0
2,94367, Note_on_c, 0, 61, 0
2,94376, Note_on_c, 0, 60, 65
2,94387, Note_on_c, 0, 68, 67
2,94462, Note_on_c, 0, 68, 0
2,94512, Note_on_c, 0, 67, 67
2,94519, Note_on_c, 0, 60, 0
2,94530, Note_on_c, 0, 58, 64
2,94603, Note_on_c, 0, 67, 0
2,94671, Note_on_c, 0, 60, 66
2,94671, Note_on_c, 0, 68, 75
2,94722, Note_on_c, 0, 58, 0
2,94759, Note_on_c, 0, 68, 0
2,94790, Note_on_c, 0, 60, 0
2,94815, Note_on_c, 0, 72, 78
2,94826, Note_on_c, 0, 56, 66
2,94945, Note_on_c, 0, 56, 0
2,94964, Note_on_c, 0, 73, 79
2,94966, Note_on_c, 0, 72, 0
2,94973, Note_on_c, 0, 58, 69
2,95068, Note_on_c, 0, 58, 0
2,95109, Note_on_c, 0, 60, 70
2,95109, Note_on_c, 0, 75, 77
2,95127, Note_on_c, 0, 73, 0
2,95220, Note_on_c, 0, 75, 0
2,95258, Note_on_c, 0, 77, 84
2,95263, Note_on_c, 0, 61, 68
2,95269, Note_on_c, 0, 60, 0
2,95395, Note_on_c, 0, 78, 84
2,95399, Note_on_c, 0, 77, 0
2,95405, Note_on_c, 0, 63, 74
2,95418, Note_on_c, 0, 61, 0
2,95540, Note_on_c, 0, 63, 0
2,95544, Note_on_c, 0, 80, 83
2,95558, Note_on_c, 0, 65, 64
2,95578, Note_on_c, 0, 78, 0
2,95671, Note_on_c, 0, 65, 0
2,95689, Note_on_c, 0, 63, 73
2,95689, Note_on_c, 0, 82, 79
2,95693, Note_on_c, 0, 80, 0
2,95819, Note_on_c, 0, 82, 0
2,95827, Note_on_c, 0, 63, 0
2,95847, Note_on_c, 0, 72, 83
2,95851, Note_on_c, 0, 66, 75
2,95911, Note_on_c, 0, 72, 0
2,95987, Note_on_c, 0, 65, 72
2,96006, Note_on_c, 0, 66, 0
2,96135, Note_on_c, 0, 68, 89
2,96153, Note_on_c, 0, 63, 78
2,96175, Note_on_c, 0, 65, 0
2,96251, Note_on_c, 0, 68, 0
2,96277, Note_on_c, 0, 63, 0
2,96286, Note_on_c, 0, 61, 73
2,96426, Note_on_c, 0, 61, 0
2,96441, Note_on_c, 0, 66, 79
2,96449, Note_on_c, 0, 70, 91
2,96480, Control_c, 0, 64, 38
2,96522, Note_on_c, 0, 66, 0
2,96584, Note_on_c, 0, 68, 86
2,96591, Note_on_c, 0, 70, 0
2,96723, Note_on_c, 0, 68, 0
2,96732, Note_on_c, 0, 58, 69
2,96741, Note_on_c, 0, 66, 85
2,96876, Note_on_c, 0, 58, 0
2,96876, Note_on_c, 0, 68, 84
2,96880, Note_on_c, 0, 66, 0
2,96885, Note_on_c, 0, 60, 77
2,96969, Note_on_c, 0, 68, 0
2,97026, Note_on_c, 0, 77, 93
2,97032, Note_on_c, 0, 61, 74
2,97050, Note_on_c, 0, 60, 0
2,97115, Note_on_c, 0, 77, 0
2,97155, Note_on_c, 0, 61, 0
2,97179, Note_on_c, 0, 60, 80
2,97330, Note_on_c, 0, 73, 90
2,97339, Note_on_c, 0, 58, 75
2,97347, Note_on_c, 0, 60, 0
2,97396, Note_on_c, 0, 73, 0
2,97484, Note_on_c, 0, 56, 79
2,97526, Note_on_c, 0, 58, 0
2,97662, Note_on_c, 0, 68, 89
2,97671, Note_on_c, 0, 58, 79
2,97734, Note_on_c, 0, 56, 0
2,98010, Note_on_c, 0, 66, 77
2,98015, Note_on_c, 0, 68, 0
2,98099, Note_on_c, 0, 66, 0
2,98143, Note_on_c, 0, 65, 69
2,98168, Control_c, 0, 64, 37
2,98239, Note_on_c, 0, 65, 0
2,98292, Note_on_c, 0, 66, 84
2,98379, Note_on_c, 0, 66, 0
2,98438, Note_on_c, 0, 56, 75
2,98452, Note_on_c, 0, 58, 0
2,98576, Note_on_c, 0, 56, 0
2,98585, Note_on_c, 0, 54, 74
2,98585, Note_on_c, 0, 75, 84
2,98708, Note_on_c, 0, 75, 0
2,98712, Note_on_c, 0, 54, 0
2,98736, Note_on_c, 0, 58, 77
2,98888, Note_on_c, 0, 65, 77
2,98897, Note_on_c, 0, 56, 72
2,98912, Note_on_c, 0, 58, 0
2,98970, Note_on_c, 0, 65, 0
2,99033, Note_on_c, 0, 54, 75
2,99053, Note_on_c, 0, 56, 0
2,99175, Note_on_c, 0, 54, 0
2,99182, Note_on_c, 0, 53, 72
2,99186, Note_on_c, 0, 73, 86
2,99288, Note_on_c, 0, 73, 0
2,99317, Note_on_c, 0, 53, 0
2,99326, Note_on_c, 0, 56, 78
2,99487, Note_on_c, 0, 54, 73
2,99487, Note_on_c, 0, 63, 76
2,99496, Note_on_c, 0, 56, 0
2,99580, Note_on_c, 0, 63, 0
2,99629, Note_on_c, 0, 53, 73
2,99645, Note_on_c, 0, 54, 0
2,99774, Note_on_c, 0, 54, 79
2,99787, Note_on_c, 0, 72, 83
2,99795, Note_on_c, 0, 53, 0
2,99864, Note_on_c, 0, 72, 0
2,99919, Note_on_c, 0, 51, 82
2,99940, Note_on_c, 0, 54, 0
2,99971, Control_c, 0, 64, 38
2,100086, Note_on_c, 0, 53, 84
2,100097, Note_on_c, 0, 61, 78
2,100107, Note_on_c, 0, 51, 0
2,100156, Note_on_c, 0, 61, 0
2,100222, Control_c, 0, 64, 37
2,100430, Note_on_c, 0, 73, 83
2,100549, Note_on_c, 0, 73, 0
2,100556, Note_on_c, 0, 53, 0
2,100567, Note_on_c, 0, 72, 82
2,100580, Note_on_c, 0, 56, 74
2,100723, Note_on_c, 0, 58, 72
2,100724, Note_on_c, 0, 73, 80
2,100740, Note_on_c, 0, 72, 0
2,100771, Note_on_c, 0, 56, 0
2,100835, Note_on_c, 0, 58, 0
2,100863, Note_on_c, 0, 75, 76
2,100867, Note_on_c, 0, 60, 72
2,100898, Note_on_c, 0, 73, 0
2,100984, Note_on_c, 0, 75, 0
2,101018, Note_on_c, 0, 61, 74
2,101018, Note_on_c, 0, 77, 83
2,101027, Note_on_c, 0, 60, 0
2,101150, Note_on_c, 0, 78, 88
2,101154, Note_on_c, 0, 63, 74
2,101175, Note_on_c, 0, 77, 0
2,101286, Note_on_c, 0, 78, 0
2,101290, Note_on_c, 0, 63, 0
2,101305, Note_on_c, 0, 65, 78
2,101312, Note_on_c, 0, 80, 91
2,101444, Note_on_c, 0, 78, 88
2,101460, Note_on_c, 0, 63, 78
2,101471, Note_on_c, 0, 80, 0
2,101476, Note_on_c, 0, 65, 0
2,101517, Note_on_c, 0, 61, 0
2,101593, Note_on_c, 0, 77, 92
2,101605, Note_on_c, 0, 61, 77
2,101605, Note_on_c, 0, 78, 0
2,101612, Note_on_c, 0, 63, 0
2,101730, Note_on_c, 0, 78, 93
2,101738, Note_on_c, 0, 63, 88
2,101767, Note_on_c, 0, 77, 0
2,101800, Note_on_c, 0, 61, 0
2,101893, Note_on_c, 0, 72, 97
2,101898, Note_on_c, 0, 80, 85
2,101902, Note_on_c, 0, 78, 0
2,101907, Note_on_c, 0, 60, 74
2,101948, Control_c, 0, 64, 36
2,101966, Note_on_c, 0, 63, 0
2,101974, Note_on_c, 0, 72, 0
2,102036, Note_on_c, 0, 78, 84
2,102062, Note_on_c, 0, 80, 0
2,102161, Note_on_c, 0, 78, 0
2,102194, Note_on_c, 0, 68, 86
2,102201, Note_on_c, 0, 77, 88
2,102258, Note_on_c, 0, 68, 0
2,102339, Note_on_c, 0, 75, 79
2,102344, Note_on_c, 0, 77, 0
2,102479, Note_on_c, 0, 75, 0
2,102515, Note_on_c, 0, 63, 81
2,102519, Note_on_c, 0, 77, 78
2,102844, Note_on_c, 0, 61, 72
2,102879, Note_on_c, 0, 63, 0
2,102888, Note_on_c, 0, 60, 0
2,102976, Note_on_c, 0, 61, 0
2,102981, Note_on_c, 0, 60, 75
2,103080, Note_on_c, 0, 60, 0
2,103126, Note_on_c, 0, 61, 78
2,103135, Note_on_c, 0, 58, 71
2,103221, Note_on_c, 0, 61, 0
2,103226, Note_on_c, 0, 77, 0
2,103285, Note_on_c, 0, 75, 83
2,103429, Note_on_c, 0, 70, 80
2,103429, Note_on_c, 0, 73, 88
2,103429, Note_on_c, 0, 75, 0
2,103524, Note_on_c, 0, 70, 0
2,103559, Note_on_c, 0, 73, 0
2,103570, Note_on_c, 0, 77, 83
2,103712, Note_on_c, 0, 77, 0
2,103721, Note_on_c, 0, 60, 78
2,103725, Note_on_c, 0, 75, 78
2,103741, Note_on_c, 0, 58, 0
2,103840, Note_on_c, 0, 60, 0
2,103861, Note_on_c, 0, 75, 0
2,103865, Note_on_c, 0, 73, 85
2,103984, Note_on_c, 0, 73, 0
2,104013, Note_on_c, 0, 68, 82
2,104017, Note_on_c, 0, 72, 84
2,104029, Note_on_c, 0, 56, 68
2,104062, Control_c, 0, 64, 37
2,104112, Note_on_c, 0, 68, 0
2,104112, Note_on_c, 0, 72, 0
2,104159, Note_on_c, 0, 75, 75
2,104274, Note_on_c, 0, 56, 0
2,104311, Note_on_c, 0, 58, 70
2,104311, Note_on_c, 0, 73, 82
2,104356, Note_on_c, 0, 75, 0
2,104450, Note_on_c, 0, 72, 77
2,104457, Note_on_c, 0, 58, 0
2,104457, Note_on_c, 0, 73, 0
2,104554, Note_on_c, 0, 72, 0
2,104609, Note_on_c, 0, 73, 76
2,104617, Note_on_c, 0, 67, 67
2,104631, Note_on_c, 0, 51, 65
2,104691, Note_on_c, 0, 67, 0
2,104738, Note_on_c, 0, 73, 0
2,104751, Note_on_c, 0, 70, 80
2,104829, Control_c, 0, 64, 38
2,104865, Note_on_c, 0, 70, 0
2,104885, Note_on_c, 0, 51, 0
2,104903, Note_on_c, 0, 72, 91
2,104905, Note_on_c, 0, 56, 78
2,104973, Note_on_c, 0, 72, 0
2,105224, Note_on_c, 0, 75, 81
2,105235, Note_on_c, 0, 68, 75
2,105304, Note_on_c, 0, 75, 0
2,105327, Note_on_c, 0, 56, 0
2,105371, Note_on_c, 0, 66, 77
2,105383, Note_on_c, 0, 68, 0
2,105470, Note_on_c, 0, 66, 0
2,105519, Note_on_c, 0, 78, 89
2,105524, Note_on_c, 0, 68, 83
2,105665, Note_on_c, 0, 70, 69
2,105688, Note_on_c, 0, 68, 0
2,105801, Note_on_c, 0, 70, 0
2,105824, Note_on_c, 0, 72, 78
2,105829, Note_on_c, 0, 56, 86
2,105886, Note_on_c, 0, 56, 0
2,105932, Note_on_c, 0, 72, 0
2,105949, Note_on_c, 0, 78, 0
2,105949, Note_on_c, 0, 78, 36
2,105968, Note_on_c, 0, 68, 76
2,106072, Note_on_c, 0, 68, 0
2,106146, Note_on_c, 0, 73, 79
2,106151, Note_on_c, 0, 58, 82
2,106264, Note_on_c, 0, 73, 0
2,106281, Note_on_c, 0, 58, 0
2,106289, Note_on_c, 0, 56, 83
2,106289, Note_on_c, 0, 72, 80
2,106389, Note_on_c, 0, 78, 0
2,106398, Note_on_c, 0, 56, 0
2,106421, Note_on_c, 0, 54, 78
2,106430, Note_on_c, 0, 70, 81
2,106440, Note_on_c, 0, 72, 0
2,106549, Note_on_c, 0, 56, 82
2,106567, Note_on_c, 0, 72, 87
2,106571, Note_on_c, 0, 70, 0
2,106599, Note_on_c, 0, 54, 0
2,106650, Note_on_c, 0, 56, 0
2,106656, Note_on_c, 0, 72, 0
2,106702, Note_on_c, 0, 65, 91
2,106716, Note_on_c, 0, 73, 80
2,106716, Note_on_c, 0, 77, 86
2,106789, Note_on_c, 0, 65, 0
2,106789, Note_on_c, 0, 73, 0
2,106849, Note_on_c, 0, 72, 69
2,106940, Note_on_c, 0, 72, 0
2,107005, Note_on_c, 0, 61, 83
2,107023, Note_on_c, 0, 70, 75
2,107074, Note_on_c, 0, 61, 0
2,107117, Control_c, 0, 64, 39
2,107141, Note_on_c, 0, 70, 0
2,107152, Note_on_c, 0, 68, 76
2,107319, Note_on_c, 0, 70, 74
2,107323, Note_on_c, 0, 56, 83
2,107323, Note_on_c, 0, 68, 0
2,107411, Note_on_c, 0, 77, 0
2,107464, Control_c, 0, 64, 40
2,107637, Note_on_c, 0, 56, 0
2,107646, Note_on_c, 0, 54, 78
2,107752, Note_on_c, 0, 54, 0
2,107779, Note_on_c, 0, 53, 76
2,107895, Note_on_c, 0, 53, 0
2,107938, Note_on_c, 0, 70, 0
2,107940, Note_on_c, 0, 54, 77
2,107940, Note_on_c, 0, 75, 79
2,108021, Control_c, 0, 64, 39
2,108030, Note_on_c, 0, 54, 0
2,108067, Note_on_c, 0, 68, 76
2,108207, Note_on_c, 0, 68, 0
2,108226, Note_on_c, 0, 66, 78
2,108235, Note_on_c, 0, 63, 76
2,108323, Note_on_c, 0, 63, 0
2,108365, Note_on_c, 0, 70, 76
2,108412, Note_on_c, 0, 66, 0
2,108528, Note_on_c, 0, 68, 80
2,108535, Note_on_c, 0, 53, 72
2,108589, Note_on_c, 0, 75, 0
2,108632, Note_on_c, 0, 53, 0
2,108664, Note_on_c, 0, 70, 0
2,108668, Note_on_c, 0, 66, 76
2,108740, Note_on_c, 0, 68, 0
2,108806, Control_c, 0, 64, 40
2,108835, Note_on_c, 0, 73, 85
2,108853, Note_on_c, 0, 65, 70
2,108857, Note_on_c, 0, 61, 57
2,108857, Note_on_c, 0, 66, 0
2,108939, Note_on_c, 0, 61, 0
2,108959, Control_c, 0, 64, 41
2,108985, Note_on_c, 0, 68, 80
2,109005, Note_on_c, 0, 73, 0
2,109018, Control_c, 0, 64, 42
2,109031, Note_on_c, 0, 65, 0
2,109075, Control_c, 0, 64, 43
2,109132, Note_on_c, 0, 72, 87
2,109155, Note_on_c, 0, 51, 68
2,109155, Note_on_c, 0, 66, 65
2,109172, Control_c, 0, 64, 44
2,109178, Note_on_c, 0, 68, 0
2,109263, Note_on_c, 0, 66, 0
2,109268, Control_c, 0, 64, 45
2,109274, Note_on_c, 0, 65, 72
2,109279, Note_on_c, 0, 51, 0
2,109379, Note_on_c, 0, 65, 0
2,109440, Control_c, 0, 64, 44
2,109449, Note_on_c, 0, 66, 70
2,109449, Note_on_c, 0, 72, 0
2,109449, Note_on_c, 0, 75, 80
2,109458, Note_on_c, 0, 60, 65
2,109513, Note_on_c, 0, 60, 0
2,109537, Note_on_c, 0, 66, 0
2,109594, Note_on_c, 0, 63, 74
2,109663, Note_on_c, 0, 63, 0
2,109781, Note_on_c, 0, 49, 51
2,109788, Control_c, 0, 64, 43
2,109800, Note_on_c, 0, 64, 44
2,109800, Note_on_c, 0, 65, 49
2,109822, Control_c, 0, 64, 42
2,109841, Note_on_c, 0, 64, 0
2,109905, Note_on_c, 0, 49, 0
2,109952, Note_on_c, 0, 44, 50
2,110065, Note_on_c, 0, 75, 0
2,110091, Note_on_c, 0, 68, 63
2,110100, Note_on_c, 0, 49, 47
2,110116, Note_on_c, 0, 44, 0
2,110144, Note_on_c, 0, 68, 0
2,110188, Control_c, 0, 64, 41
2,110219, Note_on_c, 0, 49, 0
2,110255, Note_on_c, 0, 51, 55
2,110332, Note_on_c, 0, 51, 0
2,110396, Note_on_c, 0, 73, 64
2,110400, Note_on_c, 0, 53, 49
2,110448, Note_on_c, 0, 73, 0
2,110527, Note_on_c, 0, 53, 0
2,110547, Note_on_c, 0, 54, 47
2,110610, Control_c, 0, 64, 42
2,110680, Note_on_c, 0, 54, 0
2,110684, Note_on_c, 0, 71, 64
2,110702, Note_on_c, 0, 56, 52
2,110739, Note_on_c, 0, 71, 0
2,110839, Note_on_c, 0, 56, 0
2,110853, Note_on_c, 0, 53, 54
2,110962, Note_on_c, 0, 53, 0
2,110988, Note_on_c, 0, 70, 67
2,110997, Note_on_c, 0, 65, 0
2,111003, Note_on_c, 0, 54, 52
2,111108, Note_on_c, 0, 54, 0
2,111130, Control_c, 0, 64, 43
2,111169, Note_on_c, 0, 42, 56
2,111270, Note_on_c, 0, 42, 0
2,111291, Note_on_c, 0, 61, 51
2,111331, Note_on_c, 0, 54, 49
2,111354, Note_on_c, 0, 61, 0
2,111465, Note_on_c, 0, 53, 56
2,111472, Note_on_c, 0, 54, 0
2,111605, Note_on_c, 0, 53, 0
2,111612, Note_on_c, 0, 66, 59
2,111638, Note_on_c, 0, 54, 56
2,111663, Note_on_c, 0, 66, 0
2,111744, Note_on_c, 0, 54, 0
2,111768, Note_on_c, 0, 56, 58
2,111802, Control_c, 0, 64, 44
2,111871, Note_on_c, 0, 56, 0
2,111910, Note_on_c, 0, 65, 55
2,111930, Note_on_c, 0, 58, 48
2,111970, Note_on_c, 0, 65, 0
2,112039, Note_on_c, 0, 58, 0
2,112082, Note_on_c, 0, 54, 51
2,112193, Note_on_c, 0, 54, 0
2,112217, Note_on_c, 0, 66, 60
2,112241, Note_on_c, 0, 51, 51
2,112264, Control_c, 0, 64, 45
2,112281, Note_on_c, 0, 70, 0
2,112359, Note_on_c, 0, 51, 0
2,112380, Note_on_c, 0, 53, 58
2,112482, Note_on_c, 0, 53, 0
2,112526, Note_on_c, 0, 54, 56
2,112531, Note_on_c, 0, 66, 0
2,112535, Note_on_c, 0, 70, 73
2,112647, Note_on_c, 0, 54, 0
2,112665, Note_on_c, 0, 51, 62
2,112672, Note_on_c, 0, 66, 67
2,112709, Note_on_c, 0, 70, 0
2,112779, Note_on_c, 0, 51, 0
2,112798, Note_on_c, 0, 66, 0
2,112820, Note_on_c, 0, 63, 64
2,112826, Note_on_c, 0, 48, 53
2,112912, Note_on_c, 0, 48, 0
2,112959, Note_on_c, 0, 49, 52
2,113051, Control_c, 0, 64, 44
2,113066, Note_on_c, 0, 49, 0
2,113103, Note_on_c, 0, 63, 0
2,113108, Note_on_c, 0, 51, 55
2,113136, Note_on_c, 0, 66, 55
2,113200, Note_on_c, 0, 51, 0
2,113244, Note_on_c, 0, 48, 52
2,113270, Note_on_c, 0, 63, 55
2,113387, Note_on_c, 0, 63, 0
2,113401, Note_on_c, 0, 48, 0
2,113431, Note_on_c, 0, 56, 56
2,113435, Note_on_c, 0, 41, 53
2,113491, Note_on_c, 0, 41, 0
2,113726, Note_on_c, 0, 66, 0
2,113755, Note_on_c, 0, 56, 0
2,113759, Note_on_c, 0, 63, 59
2,113764, Note_on_c, 0, 53, 48
2,113809, Note_on_c, 0, 63, 0
2,113843, Note_on_c, 0, 53, 0
2,113886, Note_on_c, 0, 51, 57
2,114023, Note_on_c, 0, 51, 0
2,114048, Note_on_c, 0, 53, 47
2,114056, Note_on_c, 0, 68, 71
2,114165, Note_on_c, 0, 53, 0
2,114211, Note_on_c, 0, 54, 52
2,114317, Note_on_c, 0, 54, 0
2,114361, Note_on_c, 0, 60, 50
2,114366, Note_on_c, 0, 56, 48
2,114413, Note_on_c, 0, 60, 0
2,114461, Note_on_c, 0, 56, 0
2,114517, Note_on_c, 0, 53, 50
2,114623, Control_c, 0, 64, 45
2,114648, Note_on_c, 0, 53, 0
2,114681, Note_on_c, 0, 65, 64
2,114692, Note_on_c, 0, 50, 50
2,114723, Note_on_c, 0, 68, 0
2,114832, Note_on_c, 0, 50, 0
2,114839, Note_on_c, 0, 51, 63
2,114944, Note_on_c, 0, 51, 0
2,114990, Note_on_c, 0, 53, 55
2,114990, Note_on_c, 0, 68, 78
2,115003, Note_on_c, 0, 65, 0
2,115109, Note_on_c, 0, 53, 0
2,115127, Note_on_c, 0, 50, 57
2,115136, Note_on_c, 0, 65, 70
2,115236, Note_on_c, 0, 50, 0
2,115279, Note_on_c, 0, 68, 0
2,115286, Note_on_c, 0, 46, 60
2,115286, Note_on_c, 0, 62, 70
2,115293, Note_on_c, 0, 65, 0
2,115400, Note_on_c, 0, 46, 0
2,115428, Note_on_c, 0, 48, 54
2,115502, Note_on_c, 0, 48, 0
2,115565, Note_on_c, 0, 50, 55
2,115565, Note_on_c, 0, 62, 0
2,115590, Note_on_c, 0, 65, 57
2,115680, Note_on_c, 0, 50, 0
2,115717, Note_on_c, 0, 46, 55
2,115717, Note_on_c, 0, 62, 67
2,115816, Note_on_c, 0, 46, 0
2,115826, Note_on_c, 0, 62, 0
2,115874, Note_on_c, 0, 39, 58
2,115883, Note_on_c, 0, 54, 64
2,115926, Note_on_c, 0, 39, 0
2,116139, Control_c, 0, 64, 44
2,116164, Note_on_c, 0, 65, 0
2,116172, Note_on_c, 0, 54, 0
2,116218, Note_on_c, 0, 58, 60
2,116224, Note_on_c, 0, 51, 51
2,116268, Note_on_c, 0, 58, 0
2,116288, Note_on_c, 0, 51, 0
2,116341, Note_on_c, 0, 49, 57
2,116472, Note_on_c, 0, 49, 0
2,116499, Note_on_c, 0, 66, 70
2,116508, Note_on_c, 0, 51, 55
2,116626, Note_on_c, 0, 51, 0
2,116650, Note_on_c, 0, 53, 52
2,116748, Note_on_c, 0, 53, 0
2,116793, Control_c, 0, 64, 45
2,116802, Note_on_c, 0, 54, 49
2,116802, Note_on_c, 0, 58, 62
2,116854, Note_on_c, 0, 58, 0
2,116923, Note_on_c, 0, 54, 0
2,116940, Note_on_c, 0, 51, 68
2,117092, Note_on_c, 0, 51, 0
2,117105, Note_on_c, 0, 66, 0
2,117110, Note_on_c, 0, 63, 77
2,117116, Note_on_c, 0, 48, 62
2,117245, Note_on_c, 0, 65, 73
2,117252, Note_on_c, 0, 49, 65
2,117270, Note_on_c, 0, 48, 0
2,117277, Note_on_c, 0, 63, 0
2,117353, Note_on_c, 0, 49, 0
2,117382, Note_on_c, 0, 51, 74
2,117388, Note_on_c, 0, 66, 81
2,117410, Control_c, 0, 64, 46
2,117434, Note_on_c, 0, 65, 0
2,117494, Note_on_c, 0, 51, 0
2,117518, Note_on_c, 0, 63, 80
2,117518, Note_on_c, 0, 66, 0
2,117522, Note_on_c, 0, 48, 64
2,117670, Note_on_c, 0, 48, 0
2,117674, Note_on_c, 0, 44, 73
2,117676, Note_on_c, 0, 75, 86
2,117720, Note_on_c, 0, 63, 0
2,117791, Control_c, 0, 64, 45
2,117821, Note_on_c, 0, 66, 76
2,117826, Note_on_c, 0, 46, 69
2,117855, Note_on_c, 0, 44, 0
2,117916, Note_on_c, 0, 46, 0
2,117958, Note_on_c, 0, 48, 70
2,117979, Note_on_c, 0, 68, 76
2,117988, Note_on_c, 0, 66, 0
2,118059, Note_on_c, 0, 68, 0
2,118090, Note_on_c, 0, 48, 0
2,118101, Note_on_c, 0, 44, 73
2,118101, Note_on_c, 0, 63, 77
2,118185, Note_on_c, 0, 63, 0
2,118193, Control_c, 0, 64, 46
2,118235, Note_on_c, 0, 44, 0
2,118263, Note_on_c, 0, 37, 77
2,118273, Note_on_c, 0, 65, 76
2,118311, Note_on_c, 0, 37, 0
2,118339, Note_on_c, 0, 75, 0
2,118385, Control_c, 0, 64, 45
2,118416, Note_on_c, 0, 73, 77
2,118565, Note_on_c, 0, 49, 77
2,118570, Note_on_c, 0, 72, 77
2,118607, Note_on_c, 0, 73, 0
2,118701, Note_on_c, 0, 51, 79
2,118701, Note_on_c, 0, 72, 0
2,118701, Note_on_c, 0, 75, 83
2,118733, Note_on_c, 0, 49, 0
2,118774, Note_on_c, 0, 65, 0
2,118820, Note_on_c, 0, 51, 0
2,118847, Note_on_c, 0, 73, 85
2,118851, Note_on_c, 0, 53, 86
2,118910, Note_on_c, 0, 53, 0
2,118949, Note_on_c, 0, 75, 0
2,118984, Note_on_c, 0, 68, 84
2,118990, Note_on_c, 0, 73, 0
2,119158, Note_on_c, 0, 49, 72
2,119158, Note_on_c, 0, 61, 81
2,119158, Note_on_c, 0, 70, 85
2,119186, Note_on_c, 0, 68, 0
2,119214, Note_on_c, 0, 49, 0
2,119286, Note_on_c, 0, 70, 0
2,119299, Note_on_c, 0, 71, 78
2,119394, Note_on_c, 0, 71, 0
2,119448, Note_on_c, 0, 54, 74
2,119448, Note_on_c, 0, 70, 79
2,119458, Note_on_c, 0, 61, 0
2,119573, Note_on_c, 0, 70, 0
2,119589, Note_on_c, 0, 68, 84
2,119598, Note_on_c, 0, 60, 72
2,119709, Note_on_c, 0, 68, 0
2,119729, Note_on_c, 0, 66, 83
2,119736, Note_on_c, 0, 58, 71
2,119747, Note_on_c, 0, 60, 0
2,119809, Note_on_c, 0, 54, 0
2,119813, Note_on_c, 0, 66, 0
2,119860, Note_on_c, 0, 68, 88
2,119867, Note_on_c, 0, 58, 0
2,119882, Note_on_c, 0, 60, 79
2,119947, Note_on_c, 0, 68, 0
2,120006, Note_on_c, 0, 77, 91
2,120023, Note_on_c, 0, 53, 75
2,120023, Note_on_c, 0, 61, 81
2,120032, Note_on_c, 0, 60, 0
2,120094, Note_on_c, 0, 77, 0
2,120142, Note_on_c, 0, 61, 0
2,120166, Note_on_c, 0, 60, 81
2,120310, Note_on_c, 0, 60, 0
2,120315, Note_on_c, 0, 58, 76
2,120315, Note_on_c, 0, 73, 91
2,120354, Note_on_c, 0, 53, 0
2,120387, Note_on_c, 0, 73, 0
2,120457, Note_on_c, 0, 56, 81
2,120480, Note_on_c, 0, 58, 0
2,120527, Note_on_c, 0, 56, 0
2,120630, Note_on_c, 0, 68, 89
2,120636, Note_on_c, 0, 58, 74
2,120649, Note_on_c, 0, 51, 74
2,120907, Note_on_c, 0, 68, 0
2,120954, Note_on_c, 0, 51, 0
2,120965, Note_on_c, 0, 66, 79
2,120968, Note_on_c, 0, 49, 64
2,121043, Note_on_c, 0, 66, 0
2,121088, Note_on_c, 0, 65, 76
2,121182, Note_on_c, 0, 65, 0
2,121213, Note_on_c, 0, 49, 0
2,121237, Note_on_c, 0, 48, 66
2,121241, Note_on_c, 0, 66, 86
2,121315, Note_on_c, 0, 58, 0
2,121315, Note_on_c, 0, 66, 0
2,121389, Note_on_c, 0, 56, 75
2,121449, Note_on_c, 0, 48, 0
2,121532, Note_on_c, 0, 75, 85
2,121537, Note_on_c, 0, 54, 73
2,121559, Note_on_c, 0, 56, 0
2,121591, Control_c, 0, 64, 44
2,121627, Note_on_c, 0, 75, 0
2,121657, Note_on_c, 0, 54, 0
2,121677, Note_on_c, 0, 58, 71
2,121844, Note_on_c, 0, 65, 85
2,121848, Note_on_c, 0, 58, 0
2,121853, Note_on_c, 0, 49, 66
2,121853, Note_on_c, 0, 56, 74
2,121925, Note_on_c, 0, 65, 0
2,122002, Note_on_c, 0, 54, 76
2,122002, Note_on_c, 0, 56, 0
2,122140, Note_on_c, 0, 54, 0
2,122144, Note_on_c, 0, 53, 72
2,122153, Note_on_c, 0, 73, 87
2,122192, Note_on_c, 0, 49, 0
2,122192, Note_on_c, 0, 49, 3
2,122237, Note_on_c, 0, 49, 0
2,122263, Note_on_c, 0, 73, 0
2,122274, Note_on_c, 0, 53, 0
2,122296, Note_on_c, 0, 56, 73
2,122414, Note_on_c, 0, 56, 0
2,122418, Control_c, 0, 64, 45
2,122455, Note_on_c, 0, 63, 85
2,122457, Note_on_c, 0, 54, 73
2,122494, Note_on_c, 0, 44, 67
2,122562, Note_on_c, 0, 63, 0
2,122595, Note_on_c, 0, 53, 77
2,122595, Note_on_c, 0, 54, 0
2,122726, Note_on_c, 0, 53, 0
2,122749, Note_on_c, 0, 51, 78
2,122767, Note_on_c, 0, 72, 89
2,122801, Note_on_c, 0, 44, 0
2,122820, Control_c, 0, 64, 46
2,122827, Note_on_c, 0, 72, 0
2,122894, Note_on_c, 0, 54, 77
2,122900, Note_on_c, 0, 51, 0
2,123025, Note_on_c, 0, 54, 0
2,123049, Control_c, 0, 64, 45
2,123054, Note_on_c, 0, 46, 71
2,123068, Note_on_c, 0, 53, 73
2,123072, Note_on_c, 0, 61, 79
2,123163, Note_on_c, 0, 46, 0
2,123186, Note_on_c, 0, 61, 0
2,123217, Note_on_c, 0, 65, 78
2,123228, Note_on_c, 0, 56, 72
2,123233, Note_on_c, 0, 53, 0
2,123369, Note_on_c, 0, 66, 77
2,123373, Note_on_c, 0, 58, 73
2,123373, Note_on_c, 0, 65, 0
2,123403, Note_on_c, 0, 56, 0
2,123505, Note_on_c, 0, 58, 0
2,123509, Note_on_c, 0, 66, 0
2,123511, Note_on_c, 0, 68, 78
2,123527, Note_on_c, 0, 60, 64
2,123660, Note_on_c, 0, 70, 76
2,123676, Note_on_c, 0, 61, 71
2,123680, Note_on_c, 0, 60, 0
2,123680, Note_on_c, 0, 68, 0
2,123720, Control_c, 0, 64, 46
2,123761, Note_on_c, 0, 70, 0
2,123791, Note_on_c, 0, 72, 82
2,123805, Note_on_c, 0, 61, 0
2,123818, Note_on_c, 0, 60, 72
2,123877, Control_c, 0, 64, 47
2,123942, Note_on_c, 0, 73, 89
2,123947, Note_on_c, 0, 58, 72
2,123966, Note_on_c, 0, 60, 0
2,123971, Note_on_c, 0, 72, 0
2,124009, Control_c, 0, 64, 48
2,124067, Control_c, 0, 64, 49
2,124093, Note_on_c, 0, 75, 83
2,124097, Note_on_c, 0, 56, 76
2,124127, Note_on_c, 0, 73, 0
2,124132, Note_on_c, 0, 58, 0
2,124197, Note_on_c, 0, 75, 0
2,124217, Note_on_c, 0, 56, 0
2,124248, Note_on_c, 0, 55, 80
2,124256, Note_on_c, 0, 76, 94
2,124398, Note_on_c, 0, 56, 78
2,124402, Note_on_c, 0, 75, 86
2,124435, Note_on_c, 0, 55, 0
2,124435, Note_on_c, 0, 76, 0
2,124527, Control_c, 0, 64, 50
2,124530, Note_on_c, 0, 75, 0
2,124549, Note_on_c, 0, 58, 78
2,124553, Note_on_c, 0, 73, 92
2,124574, Note_on_c, 0, 56, 0
2,124605, Control_c, 0, 64, 51
2,124688, Note_on_c, 0, 75, 81
2,124692, Note_on_c, 0, 55, 78
2,124697, Note_on_c, 0, 58, 0
2,124745, Note_on_c, 0, 73, 0
2,124750, Note_on_c, 0, 55, 0
2,124804, Note_on_c, 0, 75, 0
2,124844, Note_on_c, 0, 51, 84
2,124847, Note_on_c, 0, 76, 93
2,124932, Control_c, 0, 64, 52
2,124993, Control_c, 0, 64, 53
2,124993, Note_on_c, 0, 49, 68
2,124993, Note_on_c, 0, 79, 88
2,125008, Control_c, 0, 64, 54
2,125014, Note_on_c, 0, 76, 0
2,125026, Control_c, 0, 64, 55
2,125044, Control_c, 0, 64, 56
2,125064, Control_c, 0, 64, 58
2,125085, Control_c, 0, 64, 63
2,125092, Note_on_c, 0, 79, 0
2,125102, Control_c, 0, 64, 67
2,125122, Control_c, 0, 64, 72
2,125136, Note_on_c, 0, 48, 75
2,125136, Note_on_c, 0, 80, 87
2,125143, Control_c, 0, 64, 85
2,125163, Control_c, 0, 64, 127
2,125223, Note_on_c, 0, 80, 0
2,125267, Note_on_c, 0, 49, 0
2,125276, Note_on_c, 0, 82, 86
2,125285, Note_on_c, 0, 46, 79
2,125305, Note_on_c, 0, 48, 0
2,125327, Note_on_c, 0, 51, 0
2,125338, Note_on_c, 0, 82, 0
2,125405, Note_on_c, 0, 46, 0
2,125451, Note_on_c, 0, 44, 83
2,125462, Note_on_c, 0, 73, 95
2,125564, Control_c, 0, 64, 115
2,125584, Control_c, 0, 64, 81
2,125603, Control_c, 0, 64, 64
2,125607, Note_on_c, 0, 72, 85
2,125611, Note_on_c, 0, 51, 78
2,125623, Control_c, 0, 64, 51
2,125641, Control_c, 0, 64, 39
2,125654, Note_on_c, 0, 73, 0
2,125663, Control_c, 0, 64, 36
2,125700, Note_on_c, 0, 44, 0
2,125718, Control_c, 0, 64, 37
2,125741, Note_on_c, 0, 51, 0
2,125747, Note_on_c, 0, 70, 87
2,125754, Note_on_c, 0, 53, 76
2,125754, Note_on_c, 0, 72, 0
2,125758, Control_c, 0, 64, 38
2,125871, Control_c, 0, 64, 39
2,125887, Note_on_c, 0, 54, 76
2,125887, Note_on_c, 0, 68, 91
2,125900, Note_on_c, 0, 70, 0
2,125912, Note_on_c, 0, 53, 0
2,125930, Control_c, 0, 64, 40
2,125996, Note_on_c, 0, 68, 0
2,126035, Note_on_c, 0, 75, 89
2,126042, Note_on_c, 0, 56, 83
2,126046, Control_c, 0, 64, 41
2,126064, Note_on_c, 0, 68, 28
2,126102, Note_on_c, 0, 54, 0
2,126102, Note_on_c, 0, 68, 0
2,126106, Note_on_c, 0, 75, 0
2,126191, Note_on_c, 0, 58, 82
2,126257, Note_on_c, 0, 56, 0
2,126274, Control_c, 0, 64, 42
2,126353, Note_on_c, 0, 66, 92
2,126357, Note_on_c, 0, 60, 80
2,126371, Note_on_c, 0, 58, 0
2,126427, Note_on_c, 0, 66, 0
2,126495, Note_on_c, 0, 56, 87
2,126528, Note_on_c, 0, 60, 0
2,126583, Control_c, 0, 64, 43
2,126636, Note_on_c, 0, 56, 0
2,126640, Control_c, 0, 64, 44
2,126660, Control_c, 0, 64, 46
2,126677, Control_c, 0, 64, 55
2,126682, Note_on_c, 0, 65, 89
2,126686, Note_on_c, 0, 61, 89
2,126697, Control_c, 0, 64, 65
2,126715, Control_c, 0, 64, 75
2,126737, Control_c, 0, 64, 110
2,126754, Control_c, 0, 64, 127
2,126985, Note_on_c, 0, 65, 0
2,126998, Note_on_c, 0, 61, 0
2,127101, Note_on_c, 0, 41, 88
2,127112, Note_on_c, 0, 61, 95
2,127112, Note_on_c, 0, 73, 100
2,127142, Control_c, 0, 64, 106
2,127147, Note_on_c, 0, 68, 52
2,127162, Control_c, 0, 64, 72
2,127179, Control_c, 0, 64, 56
2,127199, Control_c, 0, 64, 34
2,127219, Control_c, 0, 64, 20
2,127237, Control_c, 0, 64, 27
2,127259, Control_c, 0, 64, 36
2,127278, Control_c, 0, 64, 49
2,127294, Control_c, 0, 64, 60
2,127314, Control_c, 0, 64, 65
2,127333, Control_c, 0, 64, 69
2,127353, Control_c, 0, 64, 80
2,127362, Note_on_c, 0, 73, 0
2,127373, Control_c, 0, 64, 92
2,127392, Control_c, 0, 64, 100
2,127411, Control_c, 0, 64, 105
2,127429, Control_c, 0, 64, 115
2,127437, Note_on_c, 0, 61, 0
2,127449, Control_c, 0, 64, 127
2,127471, Note_on_c, 0, 68, 0
2,127618, Note_on_c, 0, 41, 0
2,127626, Control_c, 0, 64, 95
2,127626, Note_on_c, 0, 42, 81
2,127631, Note_on_c, 0, 63, 89
2,127631, Note_on_c, 0, 70, 95
2,127639, Control_c, 0, 64, 71
2,127651, Note_on_c, 0, 66, 61
2,127660, Control_c, 0, 64, 58
2,127681, Control_c, 0, 64, 38
2,127698, Control_c, 0, 64, 23
2,127718, Control_c, 0, 64, 27
2,127736, Control_c, 0, 64, 32
2,127755, Control_c, 0, 64, 40
2,127775, Control_c, 0, 64, 56
2,127793, Control_c, 0, 64, 64
2,127817, Control_c, 0, 64, 67
2,127833, Control_c, 0, 64, 71
2,127850, Control_c, 0, 64, 80
2,127855, Note_on_c, 0, 66, 0
2,127872, Control_c, 0, 64, 99
2,127891, Control_c, 0, 64, 127
2,127961, Note_on_c, 0, 70, 0
2,128029, Note_on_c, 0, 63, 0
2,128278, Note_on_c, 0, 42, 0
2,128304, Note_on_c, 0, 72, 96
2,128309, Note_on_c, 0, 44, 87
2,128309, Note_on_c, 0, 66, 88
2,128335, Note_on_c, 0, 68, 68
2,128408, Control_c, 0, 64, 82
2,128417, Note_on_c, 0, 70, 14
2,128430, Control_c, 0, 64, 64
2,128446, Control_c, 0, 64, 48
2,128466, Control_c, 0, 64, 28
2,128487, Control_c, 0, 64, 25
2,128504, Control_c, 0, 64, 27
2,128524, Note_on_c, 0, 70, 0
2,128528, Control_c, 0, 64, 30
2,128545, Control_c, 0, 64, 33
2,128563, Control_c, 0, 64, 36
2,128581, Control_c, 0, 64, 38
2,128603, Control_c, 0, 64, 45
2,128618, Control_c, 0, 64, 53
2,128639, Control_c, 0, 64, 59
2,128659, Control_c, 0, 64, 61
2,128677, Control_c, 0, 64, 62
2,128698, Control_c, 0, 64, 64
2,128719, Control_c, 0, 64, 66
2,128736, Control_c, 0, 64, 69
2,128756, Control_c, 0, 64, 74
2,128775, Control_c, 0, 64, 81
2,128793, Control_c, 0, 64, 90
2,128799, Note_on_c, 0, 72, 0
2,128812, Control_c, 0, 64, 99
2,128832, Control_c, 0, 64, 115
2,128850, Control_c, 0, 64, 127
2,128907, Note_on_c, 0, 66, 0
2,128942, Note_on_c, 0, 68, 0
2,129338, Note_on_c, 0, 37, 85
2,129380, Note_on_c, 0, 44, 0
2,129449, Note_on_c, 0, 61, 73
2,129517, Note_on_c, 0, 65, 73
2,129587, Note_on_c, 0, 68, 80
2,129652, Note_on_c, 0, 73, 95
2,129696, Control_c, 0, 64, 97
2,129712, Note_on_c, 0, 70, 38
2,129716, Control_c, 0, 64, 69
2,129735, Control_c, 0, 64, 53
2,129753, Note_on_c, 0, 70, 0
2,129758, Control_c, 0, 64, 27
2,129771, Control_c, 0, 64, 9
2,129791, Control_c, 0, 64, 13
2,129810, Control_c, 0, 64, 19
2,129829, Control_c, 0, 64, 24
2,129847, Control_c, 0, 64, 26
2,129887, Control_c, 0, 64, 27
2,129925, Control_c, 0, 64, 30
2,129945, Control_c, 0, 64, 35
2,129964, Control_c, 0, 64, 40
2,129983, Control_c, 0, 64, 46
2,130005, Control_c, 0, 64, 50
2,130023, Control_c, 0, 64, 52
2,130041, Control_c, 0, 64, 53
2,130060, Control_c, 0, 64, 54
2,130079, Control_c, 0, 64, 55
2,130099, Control_c, 0, 64, 56
2,130116, Control_c, 0, 64, 57
2,130483, Control_c, 0, 64, 58
2,130521, Control_c, 0, 64, 59
2,130884, Control_c, 0, 64, 60
2,130939, Control_c, 0, 64, 61
2,130997, Control_c, 0, 64, 62
2,131077, Control_c, 0, 64, 63
2,131171, Control_c, 0, 64, 64
2,131228, Control_c, 0, 64, 65
2,131343, Control_c, 0, 64, 66
2,131382, Control_c, 0, 64, 67
2,131420, Control_c, 0, 64, 68
2,131441, Control_c, 0, 64, 69
2,131459, Control_c, 0, 64, 70
2,131481, Control_c, 0, 64, 72
2,131497, Control_c, 0, 64, 75
2,131517, Control_c, 0, 64, 77
2,131536, Control_c, 0, 64, 78
2,131556, Control_c, 0, 64, 79
2,131574, Control_c, 0, 64, 80
2,131591, Control_c, 0, 64, 81
2,131611, Control_c, 0, 64, 82
2,131634, Control_c, 0, 64, 83
2,131668, Control_c, 0, 64, 84
2,131708, Control_c, 0, 64, 86
2,131727, Control_c, 0, 64, 88
2,131747, Control_c, 0, 64, 90
2,131766, Control_c, 0, 64, 92
2,131784, Control_c, 0, 64, 93
2,131804, Control_c, 0, 64, 94
2,131824, Control_c, 0, 64, 95
2,132053, Control_c, 0, 64, 96
2,132149, Control_c, 0, 64, 97
2,132189, Control_c, 0, 64, 98
2,132208, Control_c, 0, 64, 99
2,132266, Control_c, 0, 64, 100
2,132341, Control_c, 0, 64, 101
2,132388, Note_on_c, 0, 73, 0
2,132468, Note_on_c, 0, 37, 0
2,132509, Note_on_c, 0, 61, 0
2,132581, Note_on_c, 0, 68, 0
2,132592, Note_on_c, 0, 65, 0
2,132597, Control_c, 0, 64, 100
2,132613, Control_c, 0, 64, 99
2,132630, Control_c, 0, 64, 97
2,132648, Control_c, 0, 64, 95
2,132669, Control_c, 0, 64, 93
2,132688, Control_c, 0, 64, 88
2,132710, Control_c, 0, 64, 78
2,132726, Control_c, 0, 64, 66
2,132744, Control_c, 0, 64, 60
2,132766, Control_c, 0, 64, 56
2,132784, Control_c, 0, 64, 53
2,132801, Control_c, 0, 64, 48
2,132822, Control_c, 0, 64, 38
2,132841, Control_c, 0, 64, 27
2,132859, Control_c, 0, 64, 13
2,132878, Control_c, 0, 64, 0
2,132879, End_track
0, 0, End_of_file
