0, 0, Header, 1, 2, 384
1, 0, Start_track
1, 0, Tempo, 500000
1, 0, Time_signature, 4, 2, 24, 8
1, 1, End_track
2, 0, Start_track
2, 0, Title_t," ""7.7.13 Group 1"""
2, 0, Program_c, 0, 0
2, 0, Control_c, 0, 64, 0
2, 0, Control_c, 0, 66, 0
2, 0, Control_c, 0, 67, 0
2, 764, Note_on_c, 0, 77, 56
2, 767, Note_on_c, 0, 49, 32
2, 835, Note_on_c, 0, 77, 0
2, 851, Note_on_c, 0, 73, 58
2, 901, Note_on_c, 0, 73, 0
2, 927, Note_on_c, 0, 68, 58
2, 974, Note_on_c, 0, 68, 0
2, 1010, Note_on_c, 0, 73, 62
2, 1056, Note_on_c, 0, 73, 0
2, 1061, Note_on_c, 0, 61, 52
2, 1071, Note_on_c, 0, 77, 68
2, 1076, Note_on_c, 0, 49, 0
2, 1102, Note_on_c, 0, 61, 0
2, 1125, Note_on_c, 0, 77, 0
2, 1163, Note_on_c, 0, 73, 67
2, 1222, Note_on_c, 0, 73, 0
2, 1247, Note_on_c, 0, 51, 43
2, 1248, Note_on_c, 0, 78, 67
2, 1321, Note_on_c, 0, 78, 0
2, 1341, Note_on_c, 0, 73, 62
2, 1412, Note_on_c, 0, 73, 0
2, 1424, Note_on_c, 0, 78, 68
2, 1490, Note_on_c, 0, 78, 0
2, 1496, Note_on_c, 0, 73, 69
2, 1564, Note_on_c, 0, 73, 0
2, 1570, Note_on_c, 0, 61, 53
2, 1580, Note_on_c, 0, 78, 73
2, 1582, Note_on_c, 0, 51, 0
2, 1610, Note_on_c, 0, 61, 0
2, 1654, Note_on_c, 0, 78, 0
2, 1666, Note_on_c, 0, 73, 67
2, 1734, Note_on_c, 0, 73, 0
2, 1741, Note_on_c, 0, 53, 48
2, 1746, Note_on_c, 0, 80, 72
2, 1820, Note_on_c, 0, 80, 0
2, 1833, Note_on_c, 0, 73, 74
2, 1896, Note_on_c, 0, 73, 0
2, 1915, Note_on_c, 0, 80, 77
2, 1981, Note_on_c, 0, 80, 0
2, 1991, Note_on_c, 0, 73, 71
2, 2044, Note_on_c, 0, 73, 0
2, 2070, Note_on_c, 0, 80, 78
2, 2078, Note_on_c, 0, 61, 57
2, 2099, Note_on_c, 0, 53, 0
2, 2120, Note_on_c, 0, 61, 0
2, 2147, Note_on_c, 0, 80, 0
2, 2160, Note_on_c, 0, 73, 67
2, 2239, Note_on_c, 0, 73, 0
2, 2259, Note_on_c, 0, 82, 76
2, 2263, Note_on_c, 0, 54, 54
2, 2333, Note_on_c, 0, 82, 0
2, 2354, Note_on_c, 0, 73, 69
2, 2407, Note_on_c, 0, 73, 0
2, 2434, Note_on_c, 0, 82, 79
2, 2493, Note_on_c, 0, 82, 0
2, 2511, Note_on_c, 0, 73, 70
2, 2553, Note_on_c, 0, 73, 0
2, 2600, Note_on_c, 0, 82, 72
2, 2610, Note_on_c, 0, 61, 50
2, 2623, Note_on_c, 0, 54, 0
2, 2644, Note_on_c, 0, 61, 0
2, 2656, Note_on_c, 0, 82, 0
2, 2679, Note_on_c, 0, 73, 65
2, 2746, Note_on_c, 0, 73, 0
2, 2792, Note_on_c, 0, 80, 67
2, 2796, Note_on_c, 0, 53, 47
2, 2846, Note_on_c, 0, 80, 0
2, 2872, Note_on_c, 0, 73, 62
2, 2930, Note_on_c, 0, 73, 0
2, 2970, Note_on_c, 0, 80, 64
2, 3007, Note_on_c, 0, 80, 0
2, 3038, Note_on_c, 0, 73, 71
2, 3084, Note_on_c, 0, 73, 0
2, 3126, Note_on_c, 0, 61, 59
2, 3126, Note_on_c, 0, 80, 65
2, 3165, Note_on_c, 0, 61, 0
2, 3188, Note_on_c, 0, 80, 0
2, 3203, Note_on_c, 0, 53, 0
2, 3213, Note_on_c, 0, 73, 65
2, 3261, Note_on_c, 0, 73, 0
2, 3302, Note_on_c, 0, 78, 65
2, 3312, Note_on_c, 0, 51, 43
2, 3388, Note_on_c, 0, 78, 0
2, 3393, Note_on_c, 0, 77, 68
2, 3465, Note_on_c, 0, 77, 0
2, 3468, Note_on_c, 0, 75, 72
2, 3535, Note_on_c, 0, 77, 74
2, 3541, Note_on_c, 0, 75, 0
2, 3625, Note_on_c, 0, 51, 0
2, 3628, Note_on_c, 0, 78, 72
2, 3630, Note_on_c, 0, 77, 0
2, 3632, Note_on_c, 0, 60, 55
2, 3663, Note_on_c, 0, 60, 0
2, 3700, Note_on_c, 0, 78, 0
2, 3717, Note_on_c, 0, 75, 65
2, 3791, Note_on_c, 0, 75, 0
2, 3804, Note_on_c, 0, 77, 71
2, 3808, Note_on_c, 0, 49, 55
2, 3835, Note_on_c, 0, 49, 0
2, 3887, Note_on_c, 0, 77, 0
2, 3891, Note_on_c, 0, 75, 79
2, 3953, Note_on_c, 0, 75, 0
2, 3967, Note_on_c, 0, 73, 76
2, 4048, Note_on_c, 0, 75, 74
2, 4057, Note_on_c, 0, 73, 0
2, 4120, Note_on_c, 0, 75, 0
2, 4122, Note_on_c, 0, 77, 72
2, 4123, Note_on_c, 0, 61, 63
2, 4192, Note_on_c, 0, 77, 0
2, 4198, Note_on_c, 0, 73, 71
2, 4278, Note_on_c, 0, 75, 71
2, 4284, Note_on_c, 0, 73, 0
2, 4345, Note_on_c, 0, 75, 0
2, 4351, Note_on_c, 0, 77, 69
2, 4420, Note_on_c, 0, 61, 0
2, 4428, Note_on_c, 0, 77, 0
2, 4431, Note_on_c, 0, 75, 73
2, 4448, Note_on_c, 0, 60, 59
2, 4504, Note_on_c, 0, 75, 0
2, 4506, Note_on_c, 0, 73, 72
2, 4516, Note_on_c, 0, 60, 0
2, 4529, Note_on_c, 0, 58, 59
2, 4570, Note_on_c, 0, 73, 0
2, 4579, Note_on_c, 0, 58, 0
2, 4581, Note_on_c, 0, 72, 66
2, 4603, Note_on_c, 0, 56, 52
2, 4616, Note_on_c, 0, 72, 0
2, 4655, Note_on_c, 0, 56, 0
2, 4656, Note_on_c, 0, 70, 65
2, 4685, Note_on_c, 0, 58, 57
2, 4714, Note_on_c, 0, 58, 0
2, 4728, Note_on_c, 0, 70, 0
2, 4757, Note_on_c, 0, 60, 45
2, 4758, Note_on_c, 0, 68, 58
2, 4810, Note_on_c, 0, 60, 0
2, 4839, Note_on_c, 0, 56, 53
2, 4888, Note_on_c, 0, 56, 0
2, 4926, Note_on_c, 0, 51, 49
2, 4985, Note_on_c, 0, 51, 0
2, 5004, Note_on_c, 0, 56, 44
2, 5051, Note_on_c, 0, 56, 0
2, 5053, Note_on_c, 0, 68, 0
2, 5070, Note_on_c, 0, 60, 49
2, 5082, Note_on_c, 0, 80, 59
2, 5101, Note_on_c, 0, 60, 0
2, 5110, Note_on_c, 0, 80, 0
2, 5151, Note_on_c, 0, 56, 49
2, 5207, Note_on_c, 0, 56, 0
2, 5252, Note_on_c, 0, 61, 53
2, 5259, Note_on_c, 0, 70, 48
2, 5325, Note_on_c, 0, 61, 0
2, 5335, Note_on_c, 0, 56, 56
2, 5408, Note_on_c, 0, 56, 0
2, 5437, Note_on_c, 0, 61, 63
2, 5492, Note_on_c, 0, 61, 0
2, 5519, Note_on_c, 0, 56, 59
2, 5548, Note_on_c, 0, 70, 0
2, 5559, Note_on_c, 0, 56, 0
2, 5560, Note_on_c, 0, 80, 60
2, 5598, Note_on_c, 0, 80, 0
2, 5599, Note_on_c, 0, 61, 66
2, 5649, Note_on_c, 0, 61, 0
2, 5660, Note_on_c, 0, 56, 63
2, 5718, Note_on_c, 0, 56, 0
2, 5755, Note_on_c, 0, 63, 62
2, 5755, Note_on_c, 0, 72, 66
2, 5822, Note_on_c, 0, 63, 0
2, 5838, Note_on_c, 0, 56, 62
2, 5893, Note_on_c, 0, 56, 0
2, 5925, Note_on_c, 0, 63, 71
2, 5996, Note_on_c, 0, 63, 0
2, 6003, Note_on_c, 0, 56, 64
2, 6052, Note_on_c, 0, 56, 0
2, 6059, Note_on_c, 0, 72, 0
2, 6079, Note_on_c, 0, 63, 69
2, 6080, Note_on_c, 0, 80, 64
2, 6113, Note_on_c, 0, 80, 0
2, 6155, Note_on_c, 0, 63, 0
2, 6164, Note_on_c, 0, 56, 66
2, 6229, Note_on_c, 0, 56, 0
2, 6258, Note_on_c, 0, 73, 67
2, 6262, Note_on_c, 0, 65, 65
2, 6345, Note_on_c, 0, 65, 0
2, 6351, Note_on_c, 0, 56, 66
2, 6421, Note_on_c, 0, 56, 0
2, 6447, Note_on_c, 0, 65, 74
2, 6508, Note_on_c, 0, 65, 0
2, 6525, Note_on_c, 0, 56, 68
2, 6563, Note_on_c, 0, 56, 0
2, 6584, Note_on_c, 0, 80, 67
2, 6589, Note_on_c, 0, 65, 65
2, 6592, Note_on_c, 0, 73, 0
2, 6625, Note_on_c, 0, 65, 0
2, 6631, Note_on_c, 0, 80, 0
2, 6678, Note_on_c, 0, 56, 55
2, 6724, Note_on_c, 0, 56, 0
2, 6764, Note_on_c, 0, 63, 64
2, 6764, Note_on_c, 0, 72, 64
2, 6819, Note_on_c, 0, 63, 0
2, 6834, Note_on_c, 0, 56, 58
2, 6907, Note_on_c, 0, 56, 0
2, 6934, Note_on_c, 0, 63, 62
2, 7003, Note_on_c, 0, 63, 0
2, 7015, Note_on_c, 0, 56, 54
2, 7059, Note_on_c, 0, 56, 0
2, 7076, Note_on_c, 0, 80, 67
2, 7084, Note_on_c, 0, 72, 0
2, 7096, Note_on_c, 0, 63, 59
2, 7113, Note_on_c, 0, 80, 0
2, 7143, Note_on_c, 0, 63, 0
2, 7162, Note_on_c, 0, 56, 56
2, 7208, Note_on_c, 0, 56, 0
2, 7247, Note_on_c, 0, 70, 57
2, 7253, Note_on_c, 0, 61, 60
2, 7326, Note_on_c, 0, 61, 0
2, 7347, Note_on_c, 0, 60, 62
2, 7421, Note_on_c, 0, 60, 0
2, 7432, Note_on_c, 0, 58, 62
2, 7501, Note_on_c, 0, 58, 0
2, 7510, Note_on_c, 0, 60, 65
2, 7582, Note_on_c, 0, 70, 0
2, 7584, Note_on_c, 0, 60, 0
2, 7586, Note_on_c, 0, 79, 70
2, 7589, Note_on_c, 0, 61, 66
2, 7614, Note_on_c, 0, 79, 0
2, 7653, Note_on_c, 0, 61, 0
2, 7668, Note_on_c, 0, 58, 64
2, 7735, Note_on_c, 0, 58, 0
2, 7751, Note_on_c, 0, 68, 75
2, 7760, Note_on_c, 0, 60, 64
2, 7776, Note_on_c, 0, 68, 0
2, 7809, Note_on_c, 0, 60, 0
2, 7843, Note_on_c, 0, 58, 67
2, 7913, Note_on_c, 0, 58, 0
2, 7927, Note_on_c, 0, 56, 64
2, 7994, Note_on_c, 0, 56, 0
2, 8005, Note_on_c, 0, 58, 62
2, 8075, Note_on_c, 0, 58, 0
2, 8078, Note_on_c, 0, 80, 79
2, 8091, Note_on_c, 0, 60, 63
2, 8144, Note_on_c, 0, 60, 0
2, 8169, Note_on_c, 0, 56, 58
2, 8250, Note_on_c, 0, 56, 0
2, 8253, Note_on_c, 0, 58, 59
2, 8311, Note_on_c, 0, 58, 0
2, 8333, Note_on_c, 0, 59, 64
2, 8399, Note_on_c, 0, 59, 0
2, 8418, Note_on_c, 0, 58, 65
2, 8425, Note_on_c, 0, 78, 63
2, 8466, Note_on_c, 0, 80, 0
2, 8483, Note_on_c, 0, 56, 59
2, 8491, Note_on_c, 0, 58, 0
2, 8506, Note_on_c, 0, 77, 71
2, 8506, Note_on_c, 0, 78, 0
2, 8571, Note_on_c, 0, 77, 0
2, 8576, Note_on_c, 0, 54, 59
2, 8578, Note_on_c, 0, 75, 71
2, 8580, Note_on_c, 0, 56, 0
2, 8614, Note_on_c, 0, 54, 0
2, 8637, Note_on_c, 0, 53, 49
2, 8645, Note_on_c, 0, 75, 0
2, 8647, Note_on_c, 0, 77, 63
2, 8706, Note_on_c, 0, 53, 0
2, 8731, Note_on_c, 0, 77, 0
2, 8745, Note_on_c, 0, 78, 58
2, 8750, Note_on_c, 0, 51, 46
2, 8819, Note_on_c, 0, 78, 0
2, 8836, Note_on_c, 0, 75, 58
2, 8899, Note_on_c, 0, 75, 0
2, 8918, Note_on_c, 0, 70, 58
2, 8973, Note_on_c, 0, 70, 0
2, 9004, Note_on_c, 0, 75, 56
2, 9072, Note_on_c, 0, 75, 0
2, 9091, Note_on_c, 0, 78, 59
2, 9094, Note_on_c, 0, 63, 50
2, 9099, Note_on_c, 0, 51, 0
2, 9118, Note_on_c, 0, 63, 0
2, 9150, Note_on_c, 0, 78, 0
2, 9188, Note_on_c, 0, 75, 55
2, 9226, Note_on_c, 0, 75, 0
2, 9253, Note_on_c, 0, 53, 42
2, 9270, Note_on_c, 0, 80, 61
2, 9343, Note_on_c, 0, 80, 0
2, 9347, Note_on_c, 0, 75, 52
2, 9432, Note_on_c, 0, 75, 0
2, 9439, Note_on_c, 0, 80, 61
2, 9510, Note_on_c, 0, 80, 0
2, 9515, Note_on_c, 0, 75, 66
2, 9576, Note_on_c, 0, 75, 0
2, 9588, Note_on_c, 0, 63, 49
2, 9598, Note_on_c, 0, 80, 67
2, 9628, Note_on_c, 0, 53, 0
2, 9629, Note_on_c, 0, 63, 0
2, 9671, Note_on_c, 0, 80, 0
2, 9684, Note_on_c, 0, 75, 67
2, 9759, Note_on_c, 0, 75, 0
2, 9769, Note_on_c, 0, 82, 73
2, 9773, Note_on_c, 0, 54, 50
2, 9855, Note_on_c, 0, 82, 0
2, 9867, Note_on_c, 0, 75, 71
2, 9932, Note_on_c, 0, 75, 0
2, 9950, Note_on_c, 0, 82, 76
2, 10018, Note_on_c, 0, 82, 0
2, 10028, Note_on_c, 0, 75, 71
2, 10089, Note_on_c, 0, 75, 0
2, 10107, Note_on_c, 0, 63, 57
2, 10111, Note_on_c, 0, 82, 80
2, 10153, Note_on_c, 0, 63, 0
2, 10158, Note_on_c, 0, 54, 0
2, 10184, Note_on_c, 0, 82, 0
2, 10192, Note_on_c, 0, 75, 75
2, 10262, Note_on_c, 0, 75, 0
2, 10282, Note_on_c, 0, 56, 50
2, 10295, Note_on_c, 0, 83, 76
2, 10363, Note_on_c, 0, 83, 0
2, 10378, Note_on_c, 0, 75, 71
2, 10428, Note_on_c, 0, 75, 0
2, 10460, Note_on_c, 0, 83, 78
2, 10524, Note_on_c, 0, 83, 0
2, 10538, Note_on_c, 0, 75, 72
2, 10583, Note_on_c, 0, 75, 0
2, 10631, Note_on_c, 0, 63, 47
2, 10634, Note_on_c, 0, 83, 72
2, 10663, Note_on_c, 0, 63, 0
2, 10690, Note_on_c, 0, 56, 0
2, 10692, Note_on_c, 0, 83, 0
2, 10707, Note_on_c, 0, 75, 64
2, 10775, Note_on_c, 0, 75, 0
2, 10807, Note_on_c, 0, 82, 64
2, 10811, Note_on_c, 0, 54, 48
2, 10867, Note_on_c, 0, 82, 0
2, 10899, Note_on_c, 0, 75, 59
2, 10950, Note_on_c, 0, 75, 0
2, 10983, Note_on_c, 0, 82, 65
2, 11023, Note_on_c, 0, 82, 0
2, 11066, Note_on_c, 0, 75, 63
2, 11105, Note_on_c, 0, 75, 0
2, 11134, Note_on_c, 0, 63, 48
2, 11139, Note_on_c, 0, 82, 65
2, 11159, Note_on_c, 0, 63, 0
2, 11187, Note_on_c, 0, 82, 0
2, 11213, Note_on_c, 0, 54, 0
2, 11223, Note_on_c, 0, 75, 60
2, 11266, Note_on_c, 0, 75, 0
2, 11304, Note_on_c, 0, 80, 66
2, 11307, Note_on_c, 0, 53, 42
2, 11404, Note_on_c, 0, 80, 0
2, 11405, Note_on_c, 0, 78, 70
2, 11467, Note_on_c, 0, 78, 0
2, 11479, Note_on_c, 0, 77, 69
2, 11560, Note_on_c, 0, 78, 77
2, 11590, Note_on_c, 0, 77, 0
2, 11637, Note_on_c, 0, 78, 0
2, 11637, Note_on_c, 0, 80, 72
2, 11638, Note_on_c, 0, 53, 0
2, 11651, Note_on_c, 0, 62, 46
2, 11674, Note_on_c, 0, 62, 0
2, 11709, Note_on_c, 0, 80, 0
2, 11719, Note_on_c, 0, 77, 73
2, 11790, Note_on_c, 0, 77, 0
2, 11806, Note_on_c, 0, 78, 71
2, 11814, Note_on_c, 0, 51, 61
2, 11852, Note_on_c, 0, 51, 0
2, 11900, Note_on_c, 0, 77, 76
2, 11902, Note_on_c, 0, 78, 0
2, 11964, Note_on_c, 0, 77, 0
2, 11972, Note_on_c, 0, 75, 76
2, 12047, Note_on_c, 0, 77, 78
2, 12052, Note_on_c, 0, 75, 0
2, 12140, Note_on_c, 0, 63, 62
2, 12146, Note_on_c, 0, 77, 0
2, 12148, Note_on_c, 0, 78, 72
2, 12228, Note_on_c, 0, 75, 67
2, 12230, Note_on_c, 0, 78, 0
2, 12301, Note_on_c, 0, 75, 0
2, 12313, Note_on_c, 0, 77, 66
2, 12372, Note_on_c, 0, 77, 0
2, 12387, Note_on_c, 0, 78, 70
2, 12451, Note_on_c, 0, 78, 0
2, 12467, Note_on_c, 0, 77, 65
2, 12473, Note_on_c, 0, 63, 0
2, 12476, Note_on_c, 0, 61, 59
2, 12526, Note_on_c, 0, 77, 0
2, 12535, Note_on_c, 0, 61, 0
2, 12539, Note_on_c, 0, 75, 63
2, 12554, Note_on_c, 0, 60, 59
2, 12595, Note_on_c, 0, 60, 0
2, 12616, Note_on_c, 0, 75, 0
2, 12622, Note_on_c, 0, 73, 63
2, 12624, Note_on_c, 0, 58, 52
2, 12679, Note_on_c, 0, 58, 0
2, 12684, Note_on_c, 0, 73, 0
2, 12699, Note_on_c, 0, 60, 57
2, 12699, Note_on_c, 0, 72, 59
2, 12736, Note_on_c, 0, 60, 0
2, 12752, Note_on_c, 0, 72, 0
2, 12774, Note_on_c, 0, 61, 53
2, 12803, Note_on_c, 0, 70, 42
2, 12830, Note_on_c, 0, 61, 0
2, 12858, Note_on_c, 0, 58, 57
2, 12928, Note_on_c, 0, 58, 0
2, 12959, Note_on_c, 0, 53, 49
2, 13021, Note_on_c, 0, 53, 0
2, 13043, Note_on_c, 0, 58, 50
2, 13079, Note_on_c, 0, 58, 0
2, 13088, Note_on_c, 0, 70, 0
2, 13101, Note_on_c, 0, 61, 55
2, 13107, Note_on_c, 0, 82, 56
2, 13142, Note_on_c, 0, 82, 0
2, 13147, Note_on_c, 0, 61, 0
2, 13175, Note_on_c, 0, 58, 56
2, 13230, Note_on_c, 0, 58, 0
2, 13275, Note_on_c, 0, 63, 51
2, 13277, Note_on_c, 0, 72, 57
2, 13334, Note_on_c, 0, 63, 0
2, 13353, Note_on_c, 0, 58, 53
2, 13423, Note_on_c, 0, 58, 0
2, 13448, Note_on_c, 0, 63, 61
2, 13509, Note_on_c, 0, 63, 0
2, 13517, Note_on_c, 0, 58, 55
2, 13574, Note_on_c, 0, 58, 0
2, 13574, Note_on_c, 0, 72, 0
2, 13607, Note_on_c, 0, 82, 66
2, 13610, Note_on_c, 0, 63, 61
2, 13640, Note_on_c, 0, 82, 0
2, 13682, Note_on_c, 0, 63, 0
2, 13687, Note_on_c, 0, 58, 64
2, 13748, Note_on_c, 0, 58, 0
2, 13781, Note_on_c, 0, 73, 66
2, 13784, Note_on_c, 0, 65, 59
2, 13856, Note_on_c, 0, 65, 0
2, 13866, Note_on_c, 0, 58, 66
2, 13937, Note_on_c, 0, 58, 0
2, 13963, Note_on_c, 0, 65, 73
2, 14028, Note_on_c, 0, 65, 0
2, 14035, Note_on_c, 0, 58, 67
2, 14084, Note_on_c, 0, 58, 0
2, 14102, Note_on_c, 0, 73, 0
2, 14105, Note_on_c, 0, 82, 73
2, 14110, Note_on_c, 0, 65, 65
2, 14141, Note_on_c, 0, 82, 0
2, 14161, Note_on_c, 0, 65, 0
2, 14198, Note_on_c, 0, 58, 61
2, 14250, Note_on_c, 0, 58, 0
2, 14279, Note_on_c, 0, 66, 68
2, 14281, Note_on_c, 0, 75, 74
2, 14362, Note_on_c, 0, 66, 0
2, 14373, Note_on_c, 0, 58, 61
2, 14441, Note_on_c, 0, 58, 0
2, 14471, Note_on_c, 0, 66, 67
2, 14531, Note_on_c, 0, 66, 0
2, 14549, Note_on_c, 0, 58, 63
2, 14587, Note_on_c, 0, 58, 0
2, 14614, Note_on_c, 0, 75, 0
2, 14615, Note_on_c, 0, 82, 66
2, 14616, Note_on_c, 0, 66, 70
2, 14674, Note_on_c, 0, 82, 0
2, 14696, Note_on_c, 0, 58, 58
2, 14701, Note_on_c, 0, 66, 0
2, 14762, Note_on_c, 0, 58, 0
2, 14797, Note_on_c, 0, 65, 60
2, 14806, Note_on_c, 0, 73, 60
2, 14862, Note_on_c, 0, 65, 0
2, 14881, Note_on_c, 0, 58, 62
2, 14923, Note_on_c, 0, 58, 0
2, 14975, Note_on_c, 0, 65, 63
2, 15017, Note_on_c, 0, 65, 0
2, 15037, Note_on_c, 0, 58, 65
2, 15082, Note_on_c, 0, 58, 0
2, 15123, Note_on_c, 0, 65, 60
2, 15132, Note_on_c, 0, 82, 70
2, 15136, Note_on_c, 0, 73, 0
2, 15160, Note_on_c, 0, 65, 0
2, 15209, Note_on_c, 0, 58, 56
2, 15219, Note_on_c, 0, 82, 0
2, 15256, Note_on_c, 0, 58, 0
2, 15295, Note_on_c, 0, 63, 62
2, 15311, Note_on_c, 0, 72, 63
2, 15375, Note_on_c, 0, 63, 0
2, 15382, Note_on_c, 0, 61, 63
2, 15482, Note_on_c, 0, 60, 49
2, 15500, Note_on_c, 0, 61, 0
2, 15534, Note_on_c, 0, 61, 54
2, 15537, Note_on_c, 0, 60, 0
2, 15604, Note_on_c, 0, 61, 0
2, 15614, Note_on_c, 0, 63, 70
2, 15627, Note_on_c, 0, 72, 0
2, 15631, Note_on_c, 0, 81, 63
2, 15659, Note_on_c, 0, 81, 0
2, 15671, Note_on_c, 0, 63, 0
2, 15696, Note_on_c, 0, 60, 64
2, 15757, Note_on_c, 0, 60, 0
2, 15794, Note_on_c, 0, 61, 70
2, 15801, Note_on_c, 0, 70, 73
2, 15827, Note_on_c, 0, 70, 0
2, 15835, Note_on_c, 0, 61, 0
2, 15879, Note_on_c, 0, 60, 66
2, 15948, Note_on_c, 0, 60, 0
2, 15974, Note_on_c, 0, 58, 65
2, 16034, Note_on_c, 0, 58, 0
2, 16045, Note_on_c, 0, 60, 63
2, 16102, Note_on_c, 0, 60, 0
2, 16130, Note_on_c, 0, 61, 64
2, 16135, Note_on_c, 0, 82, 80
2, 16205, Note_on_c, 0, 61, 0
2, 16216, Note_on_c, 0, 58, 62
2, 16270, Note_on_c, 0, 58, 0
2, 16316, Note_on_c, 0, 64, 71
2, 16356, Note_on_c, 0, 64, 0
2, 16392, Note_on_c, 0, 62, 63
2, 16442, Note_on_c, 0, 62, 0
2, 16462, Note_on_c, 0, 80, 72
2, 16462, Note_on_c, 0, 82, 0
2, 16469, Note_on_c, 0, 60, 62
2, 16494, Note_on_c, 0, 80, 0
2, 16517, Note_on_c, 0, 60, 0
2, 16558, Note_on_c, 0, 62, 47
2, 16583, Note_on_c, 0, 62, 0
2, 16616, Note_on_c, 0, 64, 59
2, 16619, Note_on_c, 0, 79, 80
2, 16646, Note_on_c, 0, 64, 0
2, 16647, Note_on_c, 0, 79, 0
2, 16697, Note_on_c, 0, 60, 63
2, 16757, Note_on_c, 0, 60, 0
2, 16792, Note_on_c, 0, 80, 78
2, 16797, Note_on_c, 0, 65, 64
2, 16822, Note_on_c, 0, 80, 0
2, 16847, Note_on_c, 0, 65, 0
2, 16876, Note_on_c, 0, 64, 62
2, 16939, Note_on_c, 0, 64, 0
2, 16947, Note_on_c, 0, 68, 71
2, 16955, Note_on_c, 0, 65, 65
2, 16974, Note_on_c, 0, 68, 0
2, 17010, Note_on_c, 0, 65, 0
2, 17040, Note_on_c, 0, 67, 64
2, 17113, Note_on_c, 0, 67, 0
2, 17129, Note_on_c, 0, 80, 72
2, 17134, Note_on_c, 0, 65, 65
2, 17208, Note_on_c, 0, 65, 0
2, 17216, Note_on_c, 0, 63, 66
2, 17277, Note_on_c, 0, 63, 0
2, 17301, Note_on_c, 0, 62, 68
2, 17370, Note_on_c, 0, 62, 0
2, 17388, Note_on_c, 0, 60, 65
2, 17456, Note_on_c, 0, 60, 0
2, 17465, Note_on_c, 0, 58, 54
2, 17470, Note_on_c, 0, 78, 75
2, 17486, Note_on_c, 0, 80, 0
2, 17496, Note_on_c, 0, 78, 0
2, 17530, Note_on_c, 0, 58, 0
2, 17571, Note_on_c, 0, 60, 50
2, 17626, Note_on_c, 0, 60, 0
2, 17635, Note_on_c, 0, 62, 64
2, 17657, Note_on_c, 0, 77, 73
2, 17685, Note_on_c, 0, 77, 0
2, 17694, Note_on_c, 0, 62, 0
2, 17712, Note_on_c, 0, 58, 71
2, 17791, Note_on_c, 0, 58, 0
2, 17816, Note_on_c, 0, 63, 80
2, 17828, Note_on_c, 0, 78, 66
2, 17841, Note_on_c, 0, 63, 0
2, 17896, Note_on_c, 0, 77, 70
2, 17904, Note_on_c, 0, 78, 0
2, 17968, Note_on_c, 0, 77, 0
2, 17978, Note_on_c, 0, 51, 74
2, 17982, Note_on_c, 0, 75, 70
2, 18008, Note_on_c, 0, 51, 0
2, 18064, Note_on_c, 0, 77, 69
2, 18067, Note_on_c, 0, 75, 0
2, 18134, Note_on_c, 0, 77, 0
2, 18151, Note_on_c, 0, 78, 66
2, 18152, Note_on_c, 0, 63, 79
2, 18235, Note_on_c, 0, 75, 65
2, 18241, Note_on_c, 0, 78, 0
2, 18336, Note_on_c, 0, 81, 71
2, 18337, Note_on_c, 0, 75, 0
2, 18421, Note_on_c, 0, 79, 70
2, 18429, Note_on_c, 0, 81, 0
2, 18463, Note_on_c, 0, 79, 0
2, 18494, Note_on_c, 0, 63, 0
2, 18499, Note_on_c, 0, 77, 65
2, 18510, Note_on_c, 0, 61, 77
2, 18541, Note_on_c, 0, 61, 0
2, 18555, Note_on_c, 0, 77, 0
2, 18574, Note_on_c, 0, 79, 72
2, 18658, Note_on_c, 0, 79, 0
2, 18659, Note_on_c, 0, 81, 75
2, 18666, Note_on_c, 0, 60, 84
2, 18693, Note_on_c, 0, 60, 0
2, 18733, Note_on_c, 0, 81, 0
2, 18747, Note_on_c, 0, 77, 74
2, 18794, Note_on_c, 0, 77, 0
2, 18834, Note_on_c, 0, 61, 91
2, 18848, Note_on_c, 0, 82, 65
2, 18873, Note_on_c, 0, 61, 0
2, 18926, Note_on_c, 0, 82, 0
2, 18932, Note_on_c, 0, 81, 71
2, 18998, Note_on_c, 0, 49, 77
2, 19005, Note_on_c, 0, 81, 0
2, 19012, Note_on_c, 0, 82, 72
2, 19024, Note_on_c, 0, 49, 0
2, 19097, Note_on_c, 0, 82, 0
2, 19099, Note_on_c, 0, 84, 75
2, 19191, Note_on_c, 0, 61, 74
2, 19195, Note_on_c, 0, 82, 75
2, 19205, Note_on_c, 0, 84, 0
2, 19267, Note_on_c, 0, 80, 77
2, 19311, Note_on_c, 0, 82, 0
2, 19349, Note_on_c, 0, 80, 0
2, 19354, Note_on_c, 0, 79, 81
2, 19438, Note_on_c, 0, 77, 81
2, 19443, Note_on_c, 0, 79, 0
2, 19519, Note_on_c, 0, 75, 83
2, 19519, Note_on_c, 0, 77, 0
2, 19529, Note_on_c, 0, 61, 0
2, 19530, Note_on_c, 0, 60, 71
2, 19559, Note_on_c, 0, 60, 0
2, 19599, Note_on_c, 0, 75, 0
2, 19601, Note_on_c, 0, 77, 82
2, 19684, Note_on_c, 0, 58, 68
2, 19685, Note_on_c, 0, 79, 81
2, 19688, Note_on_c, 0, 77, 0
2, 19720, Note_on_c, 0, 58, 0
2, 19754, Note_on_c, 0, 75, 80
2, 19754, Note_on_c, 0, 79, 0
2, 19851, Note_on_c, 0, 60, 57
2, 19851, Note_on_c, 0, 75, 0
2, 19851, Note_on_c, 0, 80, 86
2, 19878, Note_on_c, 0, 80, 0
2, 19901, Note_on_c, 0, 60, 0
2, 19954, Note_on_c, 0, 58, 55
2, 20018, Note_on_c, 0, 68, 75
2, 20024, Note_on_c, 0, 58, 0
2, 20033, Note_on_c, 0, 56, 56
2, 20040, Note_on_c, 0, 68, 0
2, 20091, Note_on_c, 0, 56, 0
2, 20102, Note_on_c, 0, 58, 50
2, 20156, Note_on_c, 0, 58, 0
2, 20185, Note_on_c, 0, 60, 60
2, 20199, Note_on_c, 0, 80, 83
2, 20274, Note_on_c, 0, 60, 0
2, 20286, Note_on_c, 0, 56, 59
2, 20333, Note_on_c, 0, 56, 0
2, 20380, Note_on_c, 0, 62, 63
2, 20418, Note_on_c, 0, 62, 0
2, 20446, Note_on_c, 0, 60, 66
2, 20512, Note_on_c, 0, 60, 0
2, 20529, Note_on_c, 0, 58, 61
2, 20540, Note_on_c, 0, 78, 73
2, 20548, Note_on_c, 0, 80, 0
2, 20568, Note_on_c, 0, 78, 0
2, 20607, Note_on_c, 0, 58, 0
2, 20631, Note_on_c, 0, 60, 53
2, 20690, Note_on_c, 0, 60, 0
2, 20703, Note_on_c, 0, 62, 55
2, 20707, Note_on_c, 0, 77, 71
2, 20735, Note_on_c, 0, 77, 0
2, 20748, Note_on_c, 0, 62, 0
2, 20773, Note_on_c, 0, 58, 57
2, 20824, Note_on_c, 0, 58, 0
2, 20857, Note_on_c, 0, 63, 59
2, 20870, Note_on_c, 0, 78, 74
2, 20895, Note_on_c, 0, 78, 0
2, 20926, Note_on_c, 0, 63, 0
2, 20945, Note_on_c, 0, 62, 58
2, 21011, Note_on_c, 0, 62, 0
2, 21027, Note_on_c, 0, 66, 75
2, 21036, Note_on_c, 0, 63, 58
2, 21055, Note_on_c, 0, 66, 0
2, 21078, Note_on_c, 0, 63, 0
2, 21119, Note_on_c, 0, 65, 54
2, 21166, Note_on_c, 0, 65, 0
2, 21194, Note_on_c, 0, 63, 59
2, 21203, Note_on_c, 0, 78, 73
2, 21277, Note_on_c, 0, 63, 0
2, 21287, Note_on_c, 0, 61, 63
2, 21350, Note_on_c, 0, 61, 0
2, 21381, Note_on_c, 0, 60, 64
2, 21441, Note_on_c, 0, 60, 0
2, 21464, Note_on_c, 0, 58, 65
2, 21531, Note_on_c, 0, 58, 0
2, 21540, Note_on_c, 0, 77, 66
2, 21545, Note_on_c, 0, 56, 58
2, 21553, Note_on_c, 0, 78, 0
2, 21568, Note_on_c, 0, 77, 0
2, 21615, Note_on_c, 0, 56, 0
2, 21631, Note_on_c, 0, 58, 62
2, 21674, Note_on_c, 0, 58, 0
2, 21698, Note_on_c, 0, 60, 66
2, 21711, Note_on_c, 0, 75, 71
2, 21738, Note_on_c, 0, 60, 0
2, 21739, Note_on_c, 0, 75, 0
2, 21772, Note_on_c, 0, 56, 62
2, 21836, Note_on_c, 0, 56, 0
2, 21870, Note_on_c, 0, 61, 68
2, 21880, Note_on_c, 0, 77, 63
2, 21899, Note_on_c, 0, 61, 0
2, 21956, Note_on_c, 0, 77, 0
2, 21958, Note_on_c, 0, 75, 72
2, 22025, Note_on_c, 0, 75, 0
2, 22035, Note_on_c, 0, 49, 68
2, 22039, Note_on_c, 0, 73, 72
2, 22066, Note_on_c, 0, 49, 0
2, 22133, Note_on_c, 0, 73, 0
2, 22137, Note_on_c, 0, 75, 69
2, 22216, Note_on_c, 0, 75, 0
2, 22217, Note_on_c, 0, 61, 67
2, 22217, Note_on_c, 0, 77, 64
2, 22300, Note_on_c, 0, 77, 0
2, 22301, Note_on_c, 0, 73, 64
2, 22387, Note_on_c, 0, 73, 0
2, 22390, Note_on_c, 0, 79, 74
2, 22475, Note_on_c, 0, 79, 0
2, 22479, Note_on_c, 0, 77, 67
2, 22530, Note_on_c, 0, 77, 0
2, 22544, Note_on_c, 0, 61, 0
2, 22552, Note_on_c, 0, 59, 70
2, 22556, Note_on_c, 0, 75, 71
2, 22577, Note_on_c, 0, 59, 0
2, 22619, Note_on_c, 0, 75, 0
2, 22637, Note_on_c, 0, 77, 73
2, 22703, Note_on_c, 0, 77, 0
2, 22716, Note_on_c, 0, 79, 69
2, 22719, Note_on_c, 0, 58, 69
2, 22755, Note_on_c, 0, 58, 0
2, 22772, Note_on_c, 0, 79, 0
2, 22798, Note_on_c, 0, 75, 69
2, 22839, Note_on_c, 0, 75, 0
2, 22896, Note_on_c, 0, 59, 63
2, 22904, Note_on_c, 0, 80, 60
2, 22925, Note_on_c, 0, 59, 0
2, 22965, Note_on_c, 0, 80, 0
2, 22988, Note_on_c, 0, 79, 64
2, 23048, Note_on_c, 0, 79, 0
2, 23060, Note_on_c, 0, 47, 55
2, 23061, Note_on_c, 0, 80, 56
2, 23090, Note_on_c, 0, 47, 0
2, 23127, Note_on_c, 0, 80, 0
2, 23140, Note_on_c, 0, 82, 64
2, 23228, Note_on_c, 0, 82, 0
2, 23246, Note_on_c, 0, 80, 63
2, 23249, Note_on_c, 0, 59, 53
2, 23321, Note_on_c, 0, 80, 0
2, 23333, Note_on_c, 0, 78, 61
2, 23405, Note_on_c, 0, 78, 0
2, 23422, Note_on_c, 0, 77, 63
2, 23483, Note_on_c, 0, 77, 0
2, 23501, Note_on_c, 0, 75, 60
2, 23568, Note_on_c, 0, 59, 0
2, 23568, Note_on_c, 0, 75, 0
2, 23582, Note_on_c, 0, 58, 56
2, 23594, Note_on_c, 0, 73, 62
2, 23616, Note_on_c, 0, 58, 0
2, 23668, Note_on_c, 0, 73, 0
2, 23687, Note_on_c, 0, 75, 59
2, 23750, Note_on_c, 0, 75, 0
2, 23756, Note_on_c, 0, 56, 49
2, 23772, Note_on_c, 0, 77, 56
2, 23791, Note_on_c, 0, 56, 0
2, 23825, Note_on_c, 0, 77, 0
2, 23855, Note_on_c, 0, 73, 44
2, 23969, Note_on_c, 0, 73, 0
2, 23975, Note_on_c, 0, 66, 42
2, 24040, Note_on_c, 0, 54, 46
2, 24081, Note_on_c, 0, 54, 0
2, 24126, Note_on_c, 0, 49, 38
2, 24185, Note_on_c, 0, 49, 0
2, 24189, Note_on_c, 0, 54, 51
2, 24241, Note_on_c, 0, 54, 0
2, 24254, Note_on_c, 0, 66, 0
2, 24279, Note_on_c, 0, 58, 47
2, 24294, Note_on_c, 0, 78, 44
2, 24324, Note_on_c, 0, 78, 0
2, 24337, Note_on_c, 0, 58, 0
2, 24364, Note_on_c, 0, 54, 40
2, 24431, Note_on_c, 0, 54, 0
2, 24481, Note_on_c, 0, 59, 38
2, 24488, Note_on_c, 0, 68, 50
2, 24530, Note_on_c, 0, 59, 0
2, 24563, Note_on_c, 0, 54, 49
2, 24620, Note_on_c, 0, 54, 0
2, 24659, Note_on_c, 0, 59, 52
2, 24713, Note_on_c, 0, 59, 0
2, 24738, Note_on_c, 0, 54, 50
2, 24782, Note_on_c, 0, 54, 0
2, 24822, Note_on_c, 0, 78, 62
2, 24832, Note_on_c, 0, 59, 47
2, 24854, Note_on_c, 0, 59, 0
2, 24866, Note_on_c, 0, 78, 0
2, 24887, Note_on_c, 0, 54, 56
2, 24909, Note_on_c, 0, 68, 0
2, 24943, Note_on_c, 0, 54, 0
2, 24998, Note_on_c, 0, 61, 47
2, 25012, Note_on_c, 0, 70, 60
2, 25049, Note_on_c, 0, 61, 0
2, 25078, Note_on_c, 0, 54, 48
2, 25142, Note_on_c, 0, 54, 0
2, 25177, Note_on_c, 0, 61, 55
2, 25250, Note_on_c, 0, 61, 0
2, 25264, Note_on_c, 0, 54, 54
2, 25309, Note_on_c, 0, 54, 0
2, 25343, Note_on_c, 0, 70, 0
2, 25353, Note_on_c, 0, 78, 63
2, 25357, Note_on_c, 0, 61, 58
2, 25403, Note_on_c, 0, 61, 0
2, 25405, Note_on_c, 0, 78, 0
2, 25432, Note_on_c, 0, 54, 51
2, 25500, Note_on_c, 0, 54, 0
2, 25537, Note_on_c, 0, 63, 56
2, 25543, Note_on_c, 0, 71, 64
2, 25591, Note_on_c, 0, 63, 0
2, 25628, Note_on_c, 0, 54, 50
2, 25676, Note_on_c, 0, 54, 0
2, 25711, Note_on_c, 0, 63, 61
2, 25772, Note_on_c, 0, 63, 0
2, 25796, Note_on_c, 0, 54, 49
2, 25841, Note_on_c, 0, 54, 0
2, 25865, Note_on_c, 0, 71, 0
2, 25878, Note_on_c, 0, 78, 61
2, 25891, Note_on_c, 0, 63, 55
2, 25926, Note_on_c, 0, 63, 0
2, 25937, Note_on_c, 0, 78, 0
2, 25979, Note_on_c, 0, 54, 41
2, 26026, Note_on_c, 0, 54, 0
2, 26066, Note_on_c, 0, 70, 54
2, 26074, Note_on_c, 0, 61, 50
2, 26130, Note_on_c, 0, 61, 0
2, 26148, Note_on_c, 0, 54, 50
2, 26196, Note_on_c, 0, 54, 0
2, 26234, Note_on_c, 0, 61, 63
2, 26312, Note_on_c, 0, 61, 0
2, 26318, Note_on_c, 0, 54, 48
2, 26359, Note_on_c, 0, 54, 0
2, 26394, Note_on_c, 0, 70, 0
2, 26395, Note_on_c, 0, 61, 54
2, 26395, Note_on_c, 0, 78, 59
2, 26437, Note_on_c, 0, 78, 0
2, 26469, Note_on_c, 0, 61, 0
2, 26472, Note_on_c, 0, 54, 49
2, 26539, Note_on_c, 0, 54, 0
2, 26577, Note_on_c, 0, 59, 51
2, 26581, Note_on_c, 0, 68, 52
2, 26634, Note_on_c, 0, 59, 0
2, 26675, Note_on_c, 0, 58, 58
2, 26744, Note_on_c, 0, 58, 0
2, 26761, Note_on_c, 0, 56, 55
2, 26843, Note_on_c, 0, 56, 0
2, 26857, Note_on_c, 0, 58, 54
2, 26900, Note_on_c, 0, 58, 0
2, 26911, Note_on_c, 0, 59, 55
2, 26911, Note_on_c, 0, 68, 0
2, 26926, Note_on_c, 0, 77, 68
2, 26941, Note_on_c, 0, 59, 0
2, 26952, Note_on_c, 0, 77, 0
2, 26998, Note_on_c, 0, 56, 52
2, 27047, Note_on_c, 0, 56, 0
2, 27079, Note_on_c, 0, 58, 58
2, 27083, Note_on_c, 0, 66, 66
2, 27111, Note_on_c, 0, 66, 0
2, 27123, Note_on_c, 0, 58, 0
2, 27161, Note_on_c, 0, 56, 54
2, 27230, Note_on_c, 0, 56, 0
2, 27251, Note_on_c, 0, 54, 58
2, 27321, Note_on_c, 0, 54, 0
2, 27339, Note_on_c, 0, 56, 63
2, 27392, Note_on_c, 0, 56, 0
2, 27409, Note_on_c, 0, 78, 78
2, 27413, Note_on_c, 0, 58, 62
2, 27474, Note_on_c, 0, 58, 0
2, 27511, Note_on_c, 0, 54, 59
2, 27570, Note_on_c, 0, 54, 0
2, 27590, Note_on_c, 0, 56, 61
2, 27631, Note_on_c, 0, 56, 0
2, 27661, Note_on_c, 0, 58, 53
2, 27709, Note_on_c, 0, 58, 0
2, 27723, Note_on_c, 0, 77, 61
2, 27733, Note_on_c, 0, 56, 55
2, 27768, Note_on_c, 0, 78, 0
2, 27794, Note_on_c, 0, 75, 69
2, 27797, Note_on_c, 0, 77, 0
2, 27809, Note_on_c, 0, 56, 0
2, 27816, Note_on_c, 0, 54, 49
2, 27856, Note_on_c, 0, 54, 0
2, 27858, Note_on_c, 0, 75, 0
2, 27872, Note_on_c, 0, 73, 67
2, 27881, Note_on_c, 0, 53, 55
2, 27927, Note_on_c, 0, 53, 0
2, 27942, Note_on_c, 0, 73, 0
2, 27957, Note_on_c, 0, 75, 60
2, 27960, Note_on_c, 0, 51, 46
2, 28039, Note_on_c, 0, 75, 0
2, 28046, Note_on_c, 0, 51, 0
2, 28069, Note_on_c, 0, 49, 45
2, 28071, Note_on_c, 0, 77, 56
2, 28141, Note_on_c, 0, 77, 0
2, 28154, Note_on_c, 0, 73, 56
2, 28207, Note_on_c, 0, 73, 0
2, 28239, Note_on_c, 0, 68, 51
2, 28303, Note_on_c, 0, 68, 0
2, 28328, Note_on_c, 0, 73, 62
2, 28382, Note_on_c, 0, 73, 0
2, 28404, Note_on_c, 0, 61, 48
2, 28406, Note_on_c, 0, 77, 62
2, 28410, Note_on_c, 0, 49, 0
2, 28437, Note_on_c, 0, 61, 0
2, 28453, Note_on_c, 0, 77, 0
2, 28496, Note_on_c, 0, 73, 58
2, 28538, Note_on_c, 0, 73, 0
2, 28572, Note_on_c, 0, 51, 38
2, 28578, Note_on_c, 0, 78, 61
2, 28657, Note_on_c, 0, 78, 0
2, 28661, Note_on_c, 0, 73, 60
2, 28730, Note_on_c, 0, 73, 0
2, 28751, Note_on_c, 0, 78, 69
2, 28820, Note_on_c, 0, 78, 0
2, 28833, Note_on_c, 0, 73, 71
2, 28884, Note_on_c, 0, 73, 0
2, 28908, Note_on_c, 0, 61, 50
2, 28913, Note_on_c, 0, 78, 75
2, 28944, Note_on_c, 0, 61, 0
2, 28954, Note_on_c, 0, 51, 0
2, 28978, Note_on_c, 0, 78, 0
2, 28990, Note_on_c, 0, 73, 72
2, 29064, Note_on_c, 0, 73, 0
2, 29088, Note_on_c, 0, 80, 73
2, 29089, Note_on_c, 0, 53, 46
2, 29155, Note_on_c, 0, 80, 0
2, 29173, Note_on_c, 0, 73, 70
2, 29250, Note_on_c, 0, 73, 0
2, 29258, Note_on_c, 0, 80, 79
2, 29333, Note_on_c, 0, 80, 0
2, 29338, Note_on_c, 0, 73, 76
2, 29398, Note_on_c, 0, 73, 0
2, 29420, Note_on_c, 0, 61, 57
2, 29422, Note_on_c, 0, 80, 79
2, 29458, Note_on_c, 0, 61, 0
2, 29468, Note_on_c, 0, 53, 0
2, 29488, Note_on_c, 0, 80, 0
2, 29501, Note_on_c, 0, 73, 71
2, 29578, Note_on_c, 0, 73, 0
2, 29592, Note_on_c, 0, 54, 54
2, 29597, Note_on_c, 0, 82, 78
2, 29671, Note_on_c, 0, 82, 0
2, 29688, Note_on_c, 0, 73, 70
2, 29740, Note_on_c, 0, 73, 0
2, 29776, Note_on_c, 0, 82, 74
2, 29837, Note_on_c, 0, 82, 0
2, 29859, Note_on_c, 0, 73, 70
2, 29912, Note_on_c, 0, 73, 0
2, 29939, Note_on_c, 0, 61, 56
2, 29948, Note_on_c, 0, 82, 74
2, 29972, Note_on_c, 0, 54, 0
2, 29979, Note_on_c, 0, 61, 0
2, 30015, Note_on_c, 0, 82, 0
2, 30040, Note_on_c, 0, 73, 54
2, 30096, Note_on_c, 0, 73, 0
2, 30127, Note_on_c, 0, 53, 50
2, 30128, Note_on_c, 0, 80, 66
2, 30183, Note_on_c, 0, 80, 0
2, 30214, Note_on_c, 0, 73, 63
2, 30280, Note_on_c, 0, 73, 0
2, 30302, Note_on_c, 0, 80, 69
2, 30352, Note_on_c, 0, 80, 0
2, 30379, Note_on_c, 0, 73, 67
2, 30433, Note_on_c, 0, 73, 0
2, 30450, Note_on_c, 0, 61, 48
2, 30462, Note_on_c, 0, 80, 73
2, 30477, Note_on_c, 0, 61, 0
2, 30488, Note_on_c, 0, 53, 0
2, 30513, Note_on_c, 0, 80, 0
2, 30544, Note_on_c, 0, 73, 69
2, 30600, Note_on_c, 0, 73, 0
2, 30635, Note_on_c, 0, 51, 50
2, 30636, Note_on_c, 0, 78, 65
2, 30719, Note_on_c, 0, 78, 0
2, 30721, Note_on_c, 0, 77, 68
2, 30788, Note_on_c, 0, 77, 0
2, 30793, Note_on_c, 0, 75, 75
2, 30868, Note_on_c, 0, 77, 73
2, 30871, Note_on_c, 0, 75, 0
2, 30917, Note_on_c, 0, 51, 0
2, 30953, Note_on_c, 0, 77, 0
2, 30960, Note_on_c, 0, 78, 71
2, 30966, Note_on_c, 0, 60, 59
2, 30993, Note_on_c, 0, 60, 0
2, 31024, Note_on_c, 0, 78, 0
2, 31035, Note_on_c, 0, 75, 72
2, 31121, Note_on_c, 0, 75, 0
2, 31128, Note_on_c, 0, 49, 63
2, 31131, Note_on_c, 0, 77, 73
2, 31159, Note_on_c, 0, 49, 0
2, 31212, Note_on_c, 0, 77, 0
2, 31217, Note_on_c, 0, 75, 71
2, 31277, Note_on_c, 0, 75, 0
2, 31296, Note_on_c, 0, 73, 68
2, 31384, Note_on_c, 0, 75, 70
2, 31388, Note_on_c, 0, 73, 0
2, 31455, Note_on_c, 0, 75, 0
2, 31458, Note_on_c, 0, 61, 64
2, 31464, Note_on_c, 0, 77, 67
2, 31486, Note_on_c, 0, 61, 0
2, 31535, Note_on_c, 0, 77, 0
2, 31545, Note_on_c, 0, 73, 64
2, 31603, Note_on_c, 0, 73, 0
2, 31631, Note_on_c, 0, 54, 62
2, 31635, Note_on_c, 0, 75, 60
2, 31660, Note_on_c, 0, 54, 0
2, 31700, Note_on_c, 0, 75, 0
2, 31714, Note_on_c, 0, 77, 58
2, 31769, Note_on_c, 0, 77, 0
2, 31792, Note_on_c, 0, 53, 57
2, 31792, Note_on_c, 0, 75, 53
2, 31828, Note_on_c, 0, 53, 0
2, 31865, Note_on_c, 0, 75, 0
2, 31877, Note_on_c, 0, 73, 60
2, 31941, Note_on_c, 0, 73, 0
2, 31952, Note_on_c, 0, 51, 53
2, 31965, Note_on_c, 0, 72, 57
2, 31982, Note_on_c, 0, 51, 0
2, 32006, Note_on_c, 0, 72, 0
2, 32056, Note_on_c, 0, 70, 38
2, 32109, Note_on_c, 0, 70, 0
2, 32136, Note_on_c, 0, 72, 44
2, 32140, Note_on_c, 0, 56, 46
2, 32176, Note_on_c, 0, 56, 0
2, 32187, Note_on_c, 0, 72, 0
2, 32235, Note_on_c, 0, 68, 35
2, 32260, Note_on_c, 0, 68, 0
2, 32302, Note_on_c, 0, 66, 42
2, 32328, Note_on_c, 0, 66, 0
2, 32369, Note_on_c, 0, 68, 52
2, 32409, Note_on_c, 0, 68, 0
2, 32452, Note_on_c, 0, 63, 35
2, 32483, Note_on_c, 0, 63, 0
2, 32540, Note_on_c, 0, 68, 33
2, 32584, Note_on_c, 0, 68, 0
2, 32613, Note_on_c, 0, 56, 35
2, 32626, Note_on_c, 0, 72, 53
2, 32688, Note_on_c, 0, 72, 0
2, 32705, Note_on_c, 0, 56, 0
2, 32718, Note_on_c, 0, 68, 37
2, 32755, Note_on_c, 0, 68, 0
2, 32794, Note_on_c, 0, 66, 45
2, 32828, Note_on_c, 0, 66, 0
2, 32873, Note_on_c, 0, 68, 43
2, 32900, Note_on_c, 0, 68, 0
2, 32959, Note_on_c, 0, 63, 54
2, 32990, Note_on_c, 0, 63, 0
2, 33020, Note_on_c, 0, 68, 40
2, 33075, Note_on_c, 0, 68, 0
2, 33133, Note_on_c, 0, 56, 40
2, 33138, Note_on_c, 0, 73, 54
2, 33204, Note_on_c, 0, 56, 0
2, 33211, Note_on_c, 0, 73, 0
2, 33228, Note_on_c, 0, 68, 40
2, 33265, Note_on_c, 0, 68, 0
2, 33316, Note_on_c, 0, 65, 27
2, 33349, Note_on_c, 0, 65, 0
2, 33377, Note_on_c, 0, 68, 44
2, 33412, Note_on_c, 0, 68, 0
2, 33458, Note_on_c, 0, 61, 52
2, 33488, Note_on_c, 0, 61, 0
2, 33528, Note_on_c, 0, 68, 43
2, 33598, Note_on_c, 0, 68, 0
2, 33643, Note_on_c, 0, 56, 41
2, 33650, Note_on_c, 0, 73, 59
2, 33728, Note_on_c, 0, 56, 0
2, 33733, Note_on_c, 0, 73, 0
2, 33745, Note_on_c, 0, 68, 45
2, 33791, Note_on_c, 0, 68, 0
2, 33823, Note_on_c, 0, 65, 39
2, 33857, Note_on_c, 0, 65, 0
2, 33908, Note_on_c, 0, 68, 42
2, 33936, Note_on_c, 0, 68, 0
2, 33973, Note_on_c, 0, 61, 51
2, 34001, Note_on_c, 0, 61, 0
2, 34045, Note_on_c, 0, 68, 45
2, 34130, Note_on_c, 0, 56, 45
2, 34132, Note_on_c, 0, 68, 0
2, 34145, Note_on_c, 0, 78, 65
2, 34227, Note_on_c, 0, 56, 0
2, 34232, Note_on_c, 0, 78, 0
2, 34254, Note_on_c, 0, 68, 41
2, 34285, Note_on_c, 0, 68, 0
2, 34309, Note_on_c, 0, 63, 37
2, 34341, Note_on_c, 0, 63, 0
2, 34383, Note_on_c, 0, 68, 53
2, 34430, Note_on_c, 0, 68, 0
2, 34466, Note_on_c, 0, 60, 47
2, 34492, Note_on_c, 0, 60, 0
2, 34552, Note_on_c, 0, 68, 50
2, 34629, Note_on_c, 0, 56, 42
2, 34637, Note_on_c, 0, 68, 0
2, 34644, Note_on_c, 0, 78, 65
2, 34738, Note_on_c, 0, 78, 0
2, 34741, Note_on_c, 0, 56, 0
2, 34744, Note_on_c, 0, 68, 43
2, 34782, Note_on_c, 0, 68, 0
2, 34803, Note_on_c, 0, 63, 46
2, 34831, Note_on_c, 0, 63, 0
2, 34883, Note_on_c, 0, 68, 57
2, 34919, Note_on_c, 0, 68, 0
2, 34967, Note_on_c, 0, 60, 51
2, 34993, Note_on_c, 0, 60, 0
2, 35046, Note_on_c, 0, 68, 44
2, 35127, Note_on_c, 0, 68, 0
2, 35142, Note_on_c, 0, 77, 67
2, 35143, Note_on_c, 0, 56, 39
2, 35228, Note_on_c, 0, 77, 0
2, 35243, Note_on_c, 0, 68, 49
2, 35252, Note_on_c, 0, 56, 0
2, 35289, Note_on_c, 0, 68, 0
2, 35323, Note_on_c, 0, 65, 51
2, 35361, Note_on_c, 0, 65, 0
2, 35394, Note_on_c, 0, 68, 51
2, 35429, Note_on_c, 0, 68, 0
2, 35481, Note_on_c, 0, 61, 58
2, 35515, Note_on_c, 0, 61, 0
2, 35553, Note_on_c, 0, 68, 49
2, 35641, Note_on_c, 0, 68, 0
2, 35650, Note_on_c, 0, 56, 50
2, 35656, Note_on_c, 0, 77, 72
2, 35745, Note_on_c, 0, 77, 0
2, 35756, Note_on_c, 0, 56, 0
2, 35760, Note_on_c, 0, 68, 61
2, 35795, Note_on_c, 0, 68, 0
2, 35822, Note_on_c, 0, 65, 58
2, 35858, Note_on_c, 0, 65, 0
2, 35892, Note_on_c, 0, 68, 60
2, 35933, Note_on_c, 0, 68, 0
2, 35986, Note_on_c, 0, 61, 62
2, 36018, Note_on_c, 0, 61, 0
2, 36062, Note_on_c, 0, 68, 57
2, 36104, Note_on_c, 0, 68, 0
2, 36152, Note_on_c, 0, 56, 50
2, 36169, Note_on_c, 0, 79, 76
2, 36254, Note_on_c, 0, 70, 56
2, 36262, Note_on_c, 0, 79, 0
2, 36273, Note_on_c, 0, 56, 0
2, 36301, Note_on_c, 0, 70, 0
2, 36329, Note_on_c, 0, 64, 58
2, 36365, Note_on_c, 0, 64, 0
2, 36406, Note_on_c, 0, 70, 61
2, 36445, Note_on_c, 0, 70, 0
2, 36492, Note_on_c, 0, 61, 56
2, 36521, Note_on_c, 0, 61, 0
2, 36570, Note_on_c, 0, 70, 60
2, 36659, Note_on_c, 0, 56, 54
2, 36661, Note_on_c, 0, 70, 0
2, 36665, Note_on_c, 0, 79, 76
2, 36773, Note_on_c, 0, 70, 67
2, 36781, Note_on_c, 0, 56, 0
2, 36782, Note_on_c, 0, 79, 0
2, 36814, Note_on_c, 0, 70, 0
2, 36850, Note_on_c, 0, 64, 58
2, 36881, Note_on_c, 0, 64, 0
2, 36912, Note_on_c, 0, 70, 72
2, 36944, Note_on_c, 0, 70, 0
2, 37010, Note_on_c, 0, 61, 57
2, 37038, Note_on_c, 0, 61, 0
2, 37074, Note_on_c, 0, 70, 64
2, 37125, Note_on_c, 0, 70, 0
2, 37172, Note_on_c, 0, 56, 55
2, 37178, Note_on_c, 0, 80, 76
2, 37262, Note_on_c, 0, 72, 64
2, 37285, Note_on_c, 0, 56, 0
2, 37286, Note_on_c, 0, 80, 0
2, 37307, Note_on_c, 0, 72, 0
2, 37353, Note_on_c, 0, 63, 62
2, 37385, Note_on_c, 0, 63, 0
2, 37428, Note_on_c, 0, 72, 62
2, 37461, Note_on_c, 0, 72, 0
2, 37515, Note_on_c, 0, 60, 70
2, 37547, Note_on_c, 0, 60, 0
2, 37594, Note_on_c, 0, 72, 65
2, 37677, Note_on_c, 0, 72, 0
2, 37680, Note_on_c, 0, 54, 65
2, 37686, Note_on_c, 0, 80, 73
2, 37787, Note_on_c, 0, 72, 67
2, 37793, Note_on_c, 0, 54, 0
2, 37794, Note_on_c, 0, 80, 0
2, 37826, Note_on_c, 0, 72, 0
2, 37861, Note_on_c, 0, 63, 61
2, 37906, Note_on_c, 0, 63, 0
2, 37936, Note_on_c, 0, 72, 66
2, 37974, Note_on_c, 0, 72, 0
2, 38010, Note_on_c, 0, 60, 57
2, 38043, Note_on_c, 0, 60, 0
2, 38082, Note_on_c, 0, 72, 57
2, 38130, Note_on_c, 0, 72, 0
2, 38166, Note_on_c, 0, 53, 49
2, 38181, Note_on_c, 0, 80, 53
2, 38261, Note_on_c, 0, 53, 0
2, 38265, Note_on_c, 0, 80, 0
2, 38267, Note_on_c, 0, 73, 58
2, 38301, Note_on_c, 0, 73, 0
2, 38344, Note_on_c, 0, 65, 63
2, 38387, Note_on_c, 0, 65, 0
2, 38417, Note_on_c, 0, 68, 62
2, 38446, Note_on_c, 0, 68, 0
2, 38500, Note_on_c, 0, 61, 67
2, 38536, Note_on_c, 0, 61, 0
2, 38576, Note_on_c, 0, 73, 71
2, 38606, Note_on_c, 0, 73, 0
2, 38643, Note_on_c, 0, 56, 73
2, 38702, Note_on_c, 0, 56, 0
2, 38731, Note_on_c, 0, 77, 79
2, 38767, Note_on_c, 0, 77, 0
2, 38821, Note_on_c, 0, 53, 79
2, 38869, Note_on_c, 0, 80, 79
2, 38873, Note_on_c, 0, 53, 0
2, 38931, Note_on_c, 0, 80, 0
2, 38979, Note_on_c, 0, 51, 77
2, 39047, Note_on_c, 0, 51, 0
2, 39047, Note_on_c, 0, 82, 81
2, 39093, Note_on_c, 0, 82, 0
2, 39159, Note_on_c, 0, 50, 62
2, 39167, Note_on_c, 0, 83, 80
2, 39228, Note_on_c, 0, 50, 0
2, 39248, Note_on_c, 0, 82, 79
2, 39296, Note_on_c, 0, 83, 0
2, 39328, Note_on_c, 0, 53, 58
2, 39331, Note_on_c, 0, 80, 83
2, 39368, Note_on_c, 0, 82, 0
2, 39388, Note_on_c, 0, 53, 0
2, 39411, Note_on_c, 0, 78, 81
2, 39422, Note_on_c, 0, 80, 0
2, 39485, Note_on_c, 0, 58, 66
2, 39487, Note_on_c, 0, 77, 84
2, 39505, Note_on_c, 0, 78, 0
2, 39560, Note_on_c, 0, 58, 0
2, 39570, Note_on_c, 0, 75, 82
2, 39573, Note_on_c, 0, 77, 0
2, 39651, Note_on_c, 0, 75, 0
2, 39658, Note_on_c, 0, 62, 70
2, 39662, Note_on_c, 0, 77, 82
2, 39695, Note_on_c, 0, 62, 0
2, 39734, Note_on_c, 0, 78, 81
2, 39744, Note_on_c, 0, 77, 0
2, 39820, Note_on_c, 0, 80, 78
2, 39826, Note_on_c, 0, 65, 73
2, 39845, Note_on_c, 0, 78, 0
2, 39867, Note_on_c, 0, 65, 0
2, 39891, Note_on_c, 0, 80, 0
2, 39892, Note_on_c, 0, 83, 82
2, 39980, Note_on_c, 0, 82, 82
2, 39989, Note_on_c, 0, 68, 75
2, 40011, Note_on_c, 0, 83, 0
2, 40029, Note_on_c, 0, 68, 0
2, 40062, Note_on_c, 0, 80, 75
2, 40069, Note_on_c, 0, 82, 0
2, 40148, Note_on_c, 0, 80, 0
2, 40155, Note_on_c, 0, 66, 63
2, 40159, Note_on_c, 0, 82, 71
2, 40195, Note_on_c, 0, 66, 0
2, 40232, Note_on_c, 0, 75, 76
2, 40232, Note_on_c, 0, 82, 0
2, 40259, Note_on_c, 0, 75, 0
2, 40310, Note_on_c, 0, 63, 69
2, 40346, Note_on_c, 0, 63, 0
2, 40389, Note_on_c, 0, 66, 64
2, 40419, Note_on_c, 0, 66, 0
2, 40471, Note_on_c, 0, 58, 63
2, 40511, Note_on_c, 0, 58, 0
2, 40554, Note_on_c, 0, 70, 66
2, 40581, Note_on_c, 0, 70, 0
2, 40641, Note_on_c, 0, 54, 65
2, 40679, Note_on_c, 0, 54, 0
2, 40719, Note_on_c, 0, 75, 66
2, 40756, Note_on_c, 0, 75, 0
2, 40806, Note_on_c, 0, 51, 63
2, 40858, Note_on_c, 0, 51, 0
2, 40878, Note_on_c, 0, 78, 63
2, 40918, Note_on_c, 0, 78, 0
2, 40971, Note_on_c, 0, 49, 59
2, 41021, Note_on_c, 0, 49, 0
2, 41038, Note_on_c, 0, 80, 65
2, 41073, Note_on_c, 0, 80, 0
2, 41143, Note_on_c, 0, 48, 46
2, 41152, Note_on_c, 0, 81, 64
2, 41185, Note_on_c, 0, 48, 0
2, 41227, Note_on_c, 0, 81, 0
2, 41232, Note_on_c, 0, 80, 65
2, 41316, Note_on_c, 0, 51, 53
2, 41322, Note_on_c, 0, 78, 68
2, 41326, Note_on_c, 0, 80, 0
2, 41360, Note_on_c, 0, 51, 0
2, 41393, Note_on_c, 0, 78, 0
2, 41403, Note_on_c, 0, 76, 69
2, 41475, Note_on_c, 0, 56, 57
2, 41480, Note_on_c, 0, 75, 76
2, 41482, Note_on_c, 0, 76, 0
2, 41523, Note_on_c, 0, 56, 0
2, 41565, Note_on_c, 0, 75, 0
2, 41566, Note_on_c, 0, 73, 73
2, 41651, Note_on_c, 0, 60, 60
2, 41660, Note_on_c, 0, 75, 81
2, 41661, Note_on_c, 0, 73, 0
2, 41683, Note_on_c, 0, 60, 0
2, 41725, Note_on_c, 0, 75, 0
2, 41739, Note_on_c, 0, 76, 75
2, 41818, Note_on_c, 0, 78, 79
2, 41820, Note_on_c, 0, 76, 0
2, 41821, Note_on_c, 0, 63, 52
2, 41867, Note_on_c, 0, 63, 0
2, 41890, Note_on_c, 0, 81, 74
2, 41893, Note_on_c, 0, 78, 0
2, 41970, Note_on_c, 0, 66, 68
2, 41976, Note_on_c, 0, 80, 76
2, 41997, Note_on_c, 0, 66, 0
2, 42006, Note_on_c, 0, 81, 0
2, 42056, Note_on_c, 0, 80, 0
2, 42062, Note_on_c, 0, 78, 71
2, 42146, Note_on_c, 0, 78, 0
2, 42155, Note_on_c, 0, 80, 68
2, 42162, Note_on_c, 0, 64, 62
2, 42192, Note_on_c, 0, 64, 0
2, 42229, Note_on_c, 0, 80, 0
2, 42241, Note_on_c, 0, 73, 69
2, 42268, Note_on_c, 0, 73, 0
2, 42316, Note_on_c, 0, 61, 61
2, 42356, Note_on_c, 0, 61, 0
2, 42402, Note_on_c, 0, 76, 61
2, 42436, Note_on_c, 0, 76, 0
2, 42481, Note_on_c, 0, 57, 61
2, 42520, Note_on_c, 0, 57, 0
2, 42570, Note_on_c, 0, 73, 62
2, 42607, Note_on_c, 0, 73, 0
2, 42652, Note_on_c, 0, 54, 65
2, 42688, Note_on_c, 0, 54, 0
2, 42728, Note_on_c, 0, 69, 60
2, 42767, Note_on_c, 0, 69, 0
2, 42810, Note_on_c, 0, 63, 65
2, 42863, Note_on_c, 0, 63, 0
2, 42897, Note_on_c, 0, 66, 72
2, 42928, Note_on_c, 0, 66, 0
2, 42968, Note_on_c, 0, 60, 74
2, 43005, Note_on_c, 0, 60, 0
2, 43057, Note_on_c, 0, 75, 76
2, 43098, Note_on_c, 0, 75, 0
2, 43144, Note_on_c, 0, 52, 64
2, 43188, Note_on_c, 0, 52, 0
2, 43214, Note_on_c, 0, 68, 73
2, 43244, Note_on_c, 0, 68, 0
2, 43297, Note_on_c, 0, 61, 70
2, 43346, Note_on_c, 0, 61, 0
2, 43373, Note_on_c, 0, 64, 74
2, 43405, Note_on_c, 0, 64, 0
2, 43453, Note_on_c, 0, 57, 71
2, 43487, Note_on_c, 0, 57, 0
2, 43537, Note_on_c, 0, 73, 71
2, 43580, Note_on_c, 0, 73, 0
2, 43623, Note_on_c, 0, 54, 66
2, 43660, Note_on_c, 0, 54, 0
2, 43724, Note_on_c, 0, 69, 63
2, 43755, Note_on_c, 0, 69, 0
2, 43775, Note_on_c, 0, 51, 54
2, 43816, Note_on_c, 0, 51, 0
2, 43863, Note_on_c, 0, 66, 69
2, 43893, Note_on_c, 0, 66, 0
2, 43964, Note_on_c, 0, 48, 54
2, 44001, Note_on_c, 0, 48, 0
2, 44024, Note_on_c, 0, 63, 55
2, 44063, Note_on_c, 0, 63, 0
2, 44199, Note_on_c, 0, 44, 30
2, 44217, Note_on_c, 0, 60, 42
2, 44263, Note_on_c, 0, 60, 0
2, 44274, Note_on_c, 0, 44, 0
2, 44312, Note_on_c, 0, 56, 36
2, 44346, Note_on_c, 0, 56, 0
2, 44394, Note_on_c, 0, 54, 44
2, 44421, Note_on_c, 0, 54, 0
2, 44467, Note_on_c, 0, 56, 46
2, 44506, Note_on_c, 0, 56, 0
2, 44560, Note_on_c, 0, 51, 32
2, 44596, Note_on_c, 0, 51, 0
2, 44621, Note_on_c, 0, 56, 41
2, 44674, Note_on_c, 0, 56, 0
2, 44711, Note_on_c, 0, 44, 38
2, 44722, Note_on_c, 0, 60, 50
2, 44790, Note_on_c, 0, 60, 0
2, 44795, Note_on_c, 0, 44, 0
2, 44818, Note_on_c, 0, 56, 42
2, 44862, Note_on_c, 0, 56, 0
2, 44899, Note_on_c, 0, 54, 30
2, 44922, Note_on_c, 0, 54, 0
2, 44972, Note_on_c, 0, 56, 50
2, 45008, Note_on_c, 0, 56, 0
2, 45067, Note_on_c, 0, 51, 42
2, 45101, Note_on_c, 0, 51, 0
2, 45128, Note_on_c, 0, 56, 46
2, 45202, Note_on_c, 0, 56, 0
2, 45238, Note_on_c, 0, 44, 40
2, 45246, Note_on_c, 0, 61, 51
2, 45320, Note_on_c, 0, 61, 0
2, 45326, Note_on_c, 0, 44, 0
2, 45344, Note_on_c, 0, 56, 50
2, 45394, Note_on_c, 0, 56, 0
2, 45424, Note_on_c, 0, 53, 36
2, 45458, Note_on_c, 0, 53, 0
2, 45498, Note_on_c, 0, 56, 50
2, 45533, Note_on_c, 0, 56, 0
2, 45590, Note_on_c, 0, 49, 45
2, 45618, Note_on_c, 0, 49, 0
2, 45642, Note_on_c, 0, 56, 49
2, 45728, Note_on_c, 0, 56, 0
2, 45764, Note_on_c, 0, 44, 45
2, 45767, Note_on_c, 0, 61, 62
2, 45837, Note_on_c, 0, 44, 0
2, 45859, Note_on_c, 0, 61, 0
2, 45862, Note_on_c, 0, 56, 55
2, 45906, Note_on_c, 0, 56, 0
2, 45947, Note_on_c, 0, 53, 42
2, 45975, Note_on_c, 0, 53, 0
2, 46017, Note_on_c, 0, 56, 56
2, 46057, Note_on_c, 0, 56, 0
2, 46103, Note_on_c, 0, 49, 54
2, 46134, Note_on_c, 0, 49, 0
2, 46171, Note_on_c, 0, 56, 50
2, 46257, Note_on_c, 0, 56, 0
2, 46276, Note_on_c, 0, 44, 48
2, 46279, Note_on_c, 0, 66, 68
2, 46340, Note_on_c, 0, 44, 0
2, 46367, Note_on_c, 0, 66, 0
2, 46386, Note_on_c, 0, 56, 42
2, 46413, Note_on_c, 0, 56, 0
2, 46444, Note_on_c, 0, 51, 48
2, 46477, Note_on_c, 0, 51, 0
2, 46514, Note_on_c, 0, 56, 49
2, 46556, Note_on_c, 0, 56, 0
2, 46598, Note_on_c, 0, 48, 55
2, 46631, Note_on_c, 0, 48, 0
2, 46686, Note_on_c, 0, 56, 57
2, 46758, Note_on_c, 0, 56, 0
2, 46780, Note_on_c, 0, 44, 50
2, 46783, Note_on_c, 0, 66, 70
2, 46866, Note_on_c, 0, 44, 0
2, 46875, Note_on_c, 0, 66, 0
2, 46879, Note_on_c, 0, 56, 58
2, 46920, Note_on_c, 0, 56, 0
2, 46961, Note_on_c, 0, 51, 54
2, 46994, Note_on_c, 0, 51, 0
2, 47034, Note_on_c, 0, 56, 52
2, 47066, Note_on_c, 0, 56, 0
2, 47125, Note_on_c, 0, 48, 57
2, 47157, Note_on_c, 0, 48, 0
2, 47184, Note_on_c, 0, 56, 48
2, 47284, Note_on_c, 0, 56, 0
2, 47299, Note_on_c, 0, 65, 66
2, 47300, Note_on_c, 0, 44, 49
2, 47400, Note_on_c, 0, 44, 0
2, 47400, Note_on_c, 0, 56, 60
2, 47403, Note_on_c, 0, 65, 0
2, 47442, Note_on_c, 0, 56, 0
2, 47484, Note_on_c, 0, 53, 57
2, 47526, Note_on_c, 0, 53, 0
2, 47554, Note_on_c, 0, 56, 60
2, 47590, Note_on_c, 0, 56, 0
2, 47650, Note_on_c, 0, 49, 55
2, 47685, Note_on_c, 0, 49, 0
2, 47714, Note_on_c, 0, 56, 56
2, 47802, Note_on_c, 0, 56, 0
2, 47812, Note_on_c, 0, 65, 77
2, 47818, Note_on_c, 0, 44, 57
2, 47913, Note_on_c, 0, 56, 68
2, 47928, Note_on_c, 0, 65, 0
2, 47939, Note_on_c, 0, 44, 0
2, 47969, Note_on_c, 0, 56, 0
2, 47996, Note_on_c, 0, 53, 68
2, 48038, Note_on_c, 0, 53, 0
2, 48072, Note_on_c, 0, 56, 63
2, 48110, Note_on_c, 0, 56, 0
2, 48162, Note_on_c, 0, 49, 63
2, 48193, Note_on_c, 0, 49, 0
2, 48246, Note_on_c, 0, 56, 61
2, 48286, Note_on_c, 0, 56, 0
2, 48338, Note_on_c, 0, 44, 58
2, 48347, Note_on_c, 0, 67, 81
2, 48440, Note_on_c, 0, 58, 66
2, 48477, Note_on_c, 0, 67, 0
2, 48491, Note_on_c, 0, 44, 0
2, 48501, Note_on_c, 0, 58, 0
2, 48522, Note_on_c, 0, 52, 66
2, 48559, Note_on_c, 0, 52, 0
2, 48588, Note_on_c, 0, 58, 70
2, 48623, Note_on_c, 0, 58, 0
2, 48677, Note_on_c, 0, 49, 74
2, 48707, Note_on_c, 0, 49, 0
2, 48745, Note_on_c, 0, 58, 64
2, 48850, Note_on_c, 0, 44, 61
2, 48851, Note_on_c, 0, 67, 82
2, 48873, Note_on_c, 0, 58, 0
2, 48974, Note_on_c, 0, 58, 78
2, 49002, Note_on_c, 0, 67, 0
2, 49028, Note_on_c, 0, 58, 0
2, 49030, Note_on_c, 0, 44, 0
2, 49044, Note_on_c, 0, 52, 72
2, 49085, Note_on_c, 0, 52, 0
2, 49119, Note_on_c, 0, 58, 81
2, 49160, Note_on_c, 0, 58, 0
2, 49205, Note_on_c, 0, 49, 74
2, 49245, Note_on_c, 0, 49, 0
2, 49274, Note_on_c, 0, 58, 75
2, 49327, Note_on_c, 0, 58, 0
2, 49360, Note_on_c, 0, 44, 69
2, 49456, Note_on_c, 0, 48, 65
2, 49517, Note_on_c, 0, 44, 0
2, 49519, Control_c, 0, 64, 51
2, 49533, Control_c, 0, 64, 61
2, 49547, Note_on_c, 0, 51, 69
2, 49549, Control_c, 0, 64, 65
2, 49564, Control_c, 0, 64, 71
2, 49578, Note_on_c, 0, 48, 0
2, 49580, Control_c, 0, 64, 81
2, 49586, Note_on_c, 0, 51, 0
2, 49595, Control_c, 0, 64, 97
2, 49609, Control_c, 0, 64, 127
2, 49623, Note_on_c, 0, 54, 77
2, 49698, Note_on_c, 0, 57, 73
2, 49740, Note_on_c, 0, 54, 0
2, 49785, Note_on_c, 0, 60, 79
2, 49791, Note_on_c, 0, 57, 0
2, 49833, Note_on_c, 0, 60, 0
2, 49867, Note_on_c, 0, 61, 80
2, 49955, Note_on_c, 0, 64, 76
2, 49978, Note_on_c, 0, 61, 0
2, 49983, Control_c, 0, 64, 89
2, 49998, Control_c, 0, 64, 68
2, 50013, Control_c, 0, 64, 20
2, 50029, Control_c, 0, 64, 0
2, 50033, Note_on_c, 0, 67, 72
2, 50067, Note_on_c, 0, 64, 0
2, 50087, Note_on_c, 0, 67, 0
2, 50088, Note_on_c, 0, 70, 75
2, 50173, Note_on_c, 0, 73, 80
2, 50203, Note_on_c, 0, 70, 0
2, 50261, Note_on_c, 0, 76, 78
2, 50273, Note_on_c, 0, 73, 0
2, 50338, Note_on_c, 0, 76, 0
2, 50351, Note_on_c, 0, 72, 71
2, 50366, Note_on_c, 0, 44, 66
2, 50439, Note_on_c, 0, 75, 73
2, 50450, Note_on_c, 0, 72, 0
2, 50518, Control_c, 0, 64, 35
2, 50532, Note_on_c, 0, 78, 79
2, 50536, Note_on_c, 0, 75, 0
2, 50542, Control_c, 0, 64, 48
2, 50557, Control_c, 0, 64, 55
2, 50573, Control_c, 0, 64, 60
2, 50587, Control_c, 0, 64, 63
2, 50602, Control_c, 0, 64, 66
2, 50617, Note_on_c, 0, 75, 79
2, 50618, Control_c, 0, 64, 69
2, 50631, Note_on_c, 0, 44, 0
2, 50633, Control_c, 0, 64, 74
2, 50634, Note_on_c, 0, 78, 0
2, 50648, Control_c, 0, 64, 79
2, 50663, Control_c, 0, 64, 83
2, 50673, Note_on_c, 0, 75, 0
2, 50678, Control_c, 0, 64, 87
2, 50689, Note_on_c, 0, 72, 78
2, 50695, Control_c, 0, 64, 92
2, 50710, Control_c, 0, 64, 96
2, 50726, Control_c, 0, 64, 97
2, 50740, Control_c, 0, 64, 98
2, 50744, Note_on_c, 0, 72, 0
2, 50755, Control_c, 0, 64, 98
2, 50774, Note_on_c, 0, 68, 77
2, 50802, Note_on_c, 0, 68, 0
2, 50858, Note_on_c, 0, 66, 74
2, 50877, Control_c, 0, 64, 98
2, 50892, Control_c, 0, 64, 96
2, 50907, Control_c, 0, 64, 92
2, 50922, Control_c, 0, 64, 84
2, 50934, Note_on_c, 0, 63, 77
2, 50937, Control_c, 0, 64, 77
2, 50949, Note_on_c, 0, 66, 0
2, 50952, Control_c, 0, 64, 70
2, 50968, Control_c, 0, 64, 63
2, 50983, Control_c, 0, 64, 47
2, 50998, Control_c, 0, 64, 0
2, 51019, Note_on_c, 0, 60, 74
2, 51027, Note_on_c, 0, 63, 0
2, 51092, Note_on_c, 0, 60, 0
2, 51098, Note_on_c, 0, 56, 74
2, 51180, Note_on_c, 0, 60, 67
2, 51182, Note_on_c, 0, 56, 0
2, 51263, Note_on_c, 0, 63, 73
2, 51266, Note_on_c, 0, 60, 0
2, 51349, Note_on_c, 0, 56, 59
2, 51369, Note_on_c, 0, 65, 68
2, 51423, Note_on_c, 0, 63, 0
2, 51447, Note_on_c, 0, 68, 71
2, 51519, Note_on_c, 0, 73, 86
2, 51524, Note_on_c, 0, 65, 0
2, 51528, Note_on_c, 0, 68, 0
2, 51599, Note_on_c, 0, 68, 82
2, 51629, Note_on_c, 0, 56, 0
2, 51637, Note_on_c, 0, 73, 0
2, 51667, Note_on_c, 0, 68, 0
2, 51682, Note_on_c, 0, 65, 74
2, 51737, Note_on_c, 0, 65, 0
2, 51770, Note_on_c, 0, 61, 75
2, 51858, Note_on_c, 0, 58, 73
2, 51897, Note_on_c, 0, 61, 0
2, 51945, Note_on_c, 0, 55, 71
2, 51960, Note_on_c, 0, 58, 0
2, 52035, Note_on_c, 0, 52, 71
2, 52055, Note_on_c, 0, 55, 0
2, 52129, Note_on_c, 0, 49, 72
2, 52141, Note_on_c, 0, 52, 0
2, 52220, Note_on_c, 0, 52, 73
2, 52245, Note_on_c, 0, 49, 0
2, 52305, Note_on_c, 0, 52, 0
2, 52318, Note_on_c, 0, 55, 76
2, 52480, Note_on_c, 0, 44, 78
2, 52519, Note_on_c, 0, 55, 0
2, 52742, Note_on_c, 0, 49, 53
2, 52749, Note_on_c, 0, 56, 59
2, 52755, Note_on_c, 0, 73, 90
2, 52760, Note_on_c, 0, 53, 62
2, 52762, Note_on_c, 0, 65, 67
2, 52767, Note_on_c, 0, 68, 62
2, 52794, Note_on_c, 0, 56, 0
2, 52798, Note_on_c, 0, 65, 0
2, 52805, Note_on_c, 0, 68, 0
2, 52814, Note_on_c, 0, 53, 0
2, 52836, Note_on_c, 0, 73, 0
2, 52844, Note_on_c, 0, 49, 0
2, 53081, Note_on_c, 0, 56, 56
2, 53082, Note_on_c, 0, 72, 83
2, 53091, Note_on_c, 0, 51, 60
2, 53094, Note_on_c, 0, 63, 71
2, 53096, Note_on_c, 0, 54, 61
2, 53104, Note_on_c, 0, 68, 54
2, 53137, Note_on_c, 0, 56, 0
2, 53142, Note_on_c, 0, 68, 0
2, 53162, Note_on_c, 0, 63, 0
2, 53196, Note_on_c, 0, 72, 0
2, 53198, Note_on_c, 0, 54, 0
2, 53213, Note_on_c, 0, 51, 0
2, 53681, Note_on_c, 0, 49, 40
2, 53681, Note_on_c, 0, 53, 42
2, 53682, Note_on_c, 0, 56, 47
2, 53685, Note_on_c, 0, 73, 81
2, 53686, Note_on_c, 0, 68, 59
2, 53690, Note_on_c, 0, 61, 62
2, 53835, Note_on_c, 0, 44, 0
2, 54208, Control_c, 0, 64, 26
2, 54223, Control_c, 0, 64, 40
2, 54237, Control_c, 0, 64, 48
2, 54253, Control_c, 0, 64, 53
2, 54268, Control_c, 0, 64, 57
2, 54284, Control_c, 0, 64, 60
2, 54299, Control_c, 0, 64, 62
2, 54313, Control_c, 0, 64, 64
2, 54329, Control_c, 0, 64, 65
2, 54344, Control_c, 0, 64, 68
2, 54359, Control_c, 0, 64, 71
2, 54382, Control_c, 0, 64, 73
2, 54397, Control_c, 0, 64, 76
2, 54413, Control_c, 0, 64, 79
2, 54428, Control_c, 0, 64, 81
2, 54444, Control_c, 0, 64, 84
2, 54458, Control_c, 0, 64, 86
2, 54473, Control_c, 0, 64, 87
2, 54489, Control_c, 0, 64, 88
2, 54504, Control_c, 0, 64, 88
2, 55376, Control_c, 0, 64, 88
2, 55387, Note_on_c, 0, 61, 0
2, 55391, Control_c, 0, 64, 85
2, 55392, Note_on_c, 0, 73, 0
2, 55401, Note_on_c, 0, 56, 0
2, 55406, Control_c, 0, 64, 78
2, 55416, Note_on_c, 0, 68, 0
2, 55422, Control_c, 0, 64, 69
2, 55426, Note_on_c, 0, 53, 0
2, 55428, Note_on_c, 0, 49, 0
2, 55437, Control_c, 0, 64, 58
2, 55452, Control_c, 0, 64, 0
2, 56743,End_track
0, 0, End_of_file
