0, 0, Header, 1, 2, 384
1, 0, Start_track
1, 0, Tempo, 500000
1, 0, Time_signature, 4, 2, 24, 8
1, 1, End_track
2,0,Start_track
2,0, Note_on_c, 0, 68, 54
2,37, Note_on_c, 0, 68, 0
2,253, Note_on_c, 0, 70, 52
2,364, Note_on_c, 0, 68, 64
2,370, Note_on_c, 0, 70, 0
2,468, Note_on_c, 0, 66, 73
2,471, Note_on_c, 0, 68, 0
2,557, Note_on_c, 0, 66, 0
2,578, Note_on_c, 0, 68, 77
2,714, Note_on_c, 0, 77, 81
2,720, Note_on_c, 0, 68, 0
2,743, Note_on_c, 0, 77, 0
2,954, Note_on_c, 0, 73, 78
2,998, Note_on_c, 0, 73, 0
2,1209, Note_on_c, 0, 68, 64
2,1455, Note_on_c, 0, 66, 60
2,1497, Note_on_c, 0, 68, 0
2,1566, Note_on_c, 0, 66, 0
2,1570, Note_on_c, 0, 65, 62
2,1689, Note_on_c, 0, 65, 0
2,1692, Note_on_c, 0, 66, 72
2,1717, Note_on_c, 0, 66, 0
2,1932, Note_on_c, 0, 75, 67
2,1965, Note_on_c, 0, 75, 0
2,2176, Note_on_c, 0, 65, 70
2,2213, Note_on_c, 0, 65, 0
2,2421, Note_on_c, 0, 73, 68
2,2452, Note_on_c, 0, 73, 0
2,2663, Note_on_c, 0, 63, 63
2,2694, Note_on_c, 0, 63, 0
2,2901, Note_on_c, 0, 72, 68
2,2927, Note_on_c, 0, 72, 0
2,3168, Note_on_c, 0, 61, 52
2,3305, Note_on_c, 0, 61, 0
2,3421, Note_on_c, 0, 73, 50
2,3490, Note_on_c, 0, 73, 0
2,3533, Note_on_c, 0, 72, 58
2,3627, Note_on_c, 0, 72, 0
2,3644, Note_on_c, 0, 73, 53
2,3742, Note_on_c, 0, 73, 0
2,3753, Note_on_c, 0, 75, 57
2,3865, Note_on_c, 0, 75, 0
2,3874, Note_on_c, 0, 61, 64
2,3895, Note_on_c, 0, 77, 57
2,3903, Note_on_c, 0, 61, 0
2,3982, Note_on_c, 0, 77, 0
2,3990, Note_on_c, 0, 78, 57
2,4102, Note_on_c, 0, 78, 0
2,4115, Note_on_c, 0, 65, 58
2,4129, Note_on_c, 0, 80, 54
2,4226, Note_on_c, 0, 63, 57
2,4233, Note_on_c, 0, 79, 62
2,4238, Note_on_c, 0, 65, 0
2,4241, Note_on_c, 0, 80, 0
2,4329, Note_on_c, 0, 79, 0
2,4341, Note_on_c, 0, 77, 64
2,4344, Note_on_c, 0, 63, 0
2,4348, Note_on_c, 0, 61, 70
2,4432, Note_on_c, 0, 77, 0
2,4435, Note_on_c, 0, 61, 0
2,4447, Note_on_c, 0, 79, 65
2,4450, Note_on_c, 0, 63, 68
2,4546, Note_on_c, 0, 63, 0
2,4554, Note_on_c, 0, 79, 0
2,4575, Note_on_c, 0, 72, 75
2,4583, Note_on_c, 0, 80, 59
2,4603, Note_on_c, 0, 72, 0
2,4695, Note_on_c, 0, 80, 0
2,4702, Note_on_c, 0, 78, 51
2,4806, Note_on_c, 0, 68, 75
2,4814, Note_on_c, 0, 78, 0
2,4833, Note_on_c, 0, 68, 0
2,4833, Note_on_c, 0, 77, 59
2,4907, Note_on_c, 0, 77, 0
2,4934, Note_on_c, 0, 75, 62
2,5055, Note_on_c, 0, 63, 60
2,5061, Note_on_c, 0, 75, 0
2,5065, Note_on_c, 0, 77, 60
2,5312, Note_on_c, 0, 61, 63
2,5361, Note_on_c, 0, 63, 0
2,5419, Note_on_c, 0, 60, 63
2,5426, Note_on_c, 0, 61, 0
2,5527, Note_on_c, 0, 60, 0
2,5547, Note_on_c, 0, 61, 67
2,5575, Note_on_c, 0, 61, 0
2,5643, Note_on_c, 0, 75, 60
2,5648, Note_on_c, 0, 77, 0
2,5755, Note_on_c, 0, 75, 0
2,5765, Note_on_c, 0, 70, 69
2,5765, Note_on_c, 0, 73, 59
2,5793, Note_on_c, 0, 70, 0
2,5857, Note_on_c, 0, 73, 0
2,5875, Note_on_c, 0, 77, 59
2,6003, Note_on_c, 0, 60, 75
2,6016, Note_on_c, 0, 75, 63
2,6030, Note_on_c, 0, 77, 0
2,6033, Note_on_c, 0, 60, 0
2,6127, Note_on_c, 0, 73, 65
2,6159, Note_on_c, 0, 75, 0
2,6241, Note_on_c, 0, 68, 71
2,6245, Note_on_c, 0, 73, 0
2,6249, Note_on_c, 0, 72, 62
2,6265, Note_on_c, 0, 68, 0
2,6345, Note_on_c, 0, 72, 0
2,6368, Note_on_c, 0, 75, 64
2,6482, Note_on_c, 0, 58, 75
2,6496, Note_on_c, 0, 73, 68
2,6515, Note_on_c, 0, 58, 0
2,6535, Note_on_c, 0, 75, 0
2,6591, Note_on_c, 0, 73, 0
2,6593, Note_on_c, 0, 72, 66
2,6715, Note_on_c, 0, 67, 69
2,6726, Note_on_c, 0, 73, 65
2,6732, Note_on_c, 0, 72, 0
2,6748, Note_on_c, 0, 67, 0
2,6811, Note_on_c, 0, 73, 0
2,6829, Note_on_c, 0, 70, 61
2,6873, Note_on_c, 0, 70, 0
2,6956, Note_on_c, 0, 56, 48
2,6965, Note_on_c, 0, 70, 65
2,7019, Control_c, 0, 64, 40
2,7035, Control_c, 0, 64, 52
2,7051, Control_c, 0, 64, 56
2,7065, Note_on_c, 0, 56, 0
2,7066, Control_c, 0, 64, 61
2,7073, Note_on_c, 0, 72, 68
2,7082, Control_c, 0, 64, 63
2,7084, Note_on_c, 0, 70, 0
2,7096, Control_c, 0, 64, 65
2,7112, Control_c, 0, 64, 66
2,7127, Control_c, 0, 64, 67
2,7142, Control_c, 0, 64, 67
2,7180, Note_on_c, 0, 72, 0
2,7182, Note_on_c, 0, 68, 44
2,7188, Control_c, 0, 64, 67
2,7190, Note_on_c, 0, 75, 75
2,7203, Control_c, 0, 64, 65
2,7213, Note_on_c, 0, 75, 0
2,7218, Control_c, 0, 64, 60
2,7233, Control_c, 0, 64, 0
2,7268, Note_on_c, 0, 68, 0
2,7296, Note_on_c, 0, 67, 53
2,7420, Note_on_c, 0, 67, 0
2,7426, Note_on_c, 0, 78, 72
2,7433, Note_on_c, 0, 68, 68
2,7478, Note_on_c, 0, 68, 0
2,7535, Note_on_c, 0, 70, 54
2,7653, Note_on_c, 0, 70, 0
2,7669, Note_on_c, 0, 56, 69
2,7674, Note_on_c, 0, 72, 60
2,7721, Note_on_c, 0, 56, 0
2,7743, Note_on_c, 0, 72, 0
2,7764, Note_on_c, 0, 68, 56
2,7914, Note_on_c, 0, 58, 62
2,7922, Note_on_c, 0, 73, 62
2,7928, Note_on_c, 0, 68, 0
2,8004, Note_on_c, 0, 78, 0
2,8021, Note_on_c, 0, 72, 69
2,8035, Note_on_c, 0, 56, 69
2,8078, Note_on_c, 0, 58, 0
2,8092, Note_on_c, 0, 73, 0
2,8138, Note_on_c, 0, 54, 77
2,8140, Note_on_c, 0, 70, 75
2,8140, Note_on_c, 0, 72, 0
2,8151, Note_on_c, 0, 56, 0
2,8234, Note_on_c, 0, 56, 76
2,8240, Note_on_c, 0, 72, 78
2,8258, Note_on_c, 0, 54, 0
2,8348, Note_on_c, 0, 70, 0
2,8355, Note_on_c, 0, 56, 0
2,8367, Note_on_c, 0, 65, 76
2,8368, Note_on_c, 0, 72, 0
2,8368, Note_on_c, 0, 73, 56
2,8384, Note_on_c, 0, 77, 72
2,8405, Note_on_c, 0, 65, 0
2,8462, Note_on_c, 0, 73, 0
2,8478, Note_on_c, 0, 72, 71
2,8567, Note_on_c, 0, 72, 0
2,8602, Note_on_c, 0, 61, 78
2,8617, Note_on_c, 0, 70, 65
2,8638, Note_on_c, 0, 61, 0
2,8710, Note_on_c, 0, 70, 0
2,8712, Note_on_c, 0, 68, 69
2,8853, Note_on_c, 0, 56, 69
2,8861, Note_on_c, 0, 68, 0
2,8873, Note_on_c, 0, 70, 65
2,9019, Note_on_c, 0, 77, 0
2,9112, Note_on_c, 0, 54, 67
2,9184, Note_on_c, 0, 56, 0
2,9221, Note_on_c, 0, 53, 72
2,9248, Note_on_c, 0, 54, 0
2,9329, Note_on_c, 0, 54, 77
2,9330, Note_on_c, 0, 53, 0
2,9335, Note_on_c, 0, 75, 75
2,9349, Note_on_c, 0, 70, 0
2,9362, Note_on_c, 0, 54, 0
2,9449, Note_on_c, 0, 68, 55
2,9564, Note_on_c, 0, 63, 71
2,9569, Note_on_c, 0, 68, 0
2,9580, Note_on_c, 0, 66, 66
2,9594, Note_on_c, 0, 63, 0
2,9692, Note_on_c, 0, 66, 0
2,9701, Note_on_c, 0, 70, 56
2,9802, Note_on_c, 0, 53, 78
2,9825, Note_on_c, 0, 68, 66
2,9833, Note_on_c, 0, 53, 0
2,9843, Note_on_c, 0, 75, 0
2,9897, Note_on_c, 0, 70, 0
2,9932, Note_on_c, 0, 66, 67
2,9960, Note_on_c, 0, 68, 0
2,10038, Note_on_c, 0, 61, 77
2,10050, Note_on_c, 0, 66, 0
2,10050, Note_on_c, 0, 73, 78
2,10053, Note_on_c, 0, 65, 63
2,10068, Note_on_c, 0, 61, 0
2,10158, Note_on_c, 0, 68, 70
2,10188, Note_on_c, 0, 73, 0
2,10211, Note_on_c, 0, 65, 0
2,10282, Note_on_c, 0, 66, 65
2,10283, Note_on_c, 0, 51, 73
2,10287, Note_on_c, 0, 72, 79
2,10288, Note_on_c, 0, 68, 0
2,10319, Note_on_c, 0, 51, 0
2,10378, Note_on_c, 0, 66, 0
2,10394, Note_on_c, 0, 65, 70
2,10394, Note_on_c, 0, 72, 0
2,10502, Note_on_c, 0, 65, 0
2,10511, Note_on_c, 0, 66, 59
2,10512, Note_on_c, 0, 60, 66
2,10523, Note_on_c, 0, 75, 73
2,10541, Note_on_c, 0, 60, 0
2,10560, Note_on_c, 0, 66, 0
2,10629, Note_on_c, 0, 63, 56
2,10664, Note_on_c, 0, 63, 0
2,10756, Note_on_c, 0, 49, 44
2,10780, Note_on_c, 0, 65, 59
2,10830, Control_c, 0, 64, 42
2,10839, Note_on_c, 0, 49, 0
2,10845, Control_c, 0, 64, 54
2,10859, Control_c, 0, 64, 59
2,10875, Control_c, 0, 64, 63
2,10890, Control_c, 0, 64, 64
2,10905, Control_c, 0, 64, 66
2,10921, Control_c, 0, 64, 69
2,10936, Control_c, 0, 64, 70
2,10952, Control_c, 0, 64, 71
2,10980, Note_on_c, 0, 65, 0
2,10990, Note_on_c, 0, 75, 0
2,11004, Note_on_c, 0, 68, 63
2,11009, Note_on_c, 0, 61, 52
2,11028, Control_c, 0, 64, 70
2,11031, Note_on_c, 0, 68, 0
2,11043, Control_c, 0, 64, 66
2,11058, Control_c, 0, 64, 61
2,11073, Control_c, 0, 64, 41
2,11088, Control_c, 0, 64, 0
2,11096, Note_on_c, 0, 61, 0
2,11112, Note_on_c, 0, 60, 52
2,11205, Note_on_c, 0, 60, 0
2,11233, Note_on_c, 0, 61, 53
2,11237, Note_on_c, 0, 77, 73
2,11340, Note_on_c, 0, 63, 51
2,11344, Note_on_c, 0, 61, 0
2,11469, Note_on_c, 0, 65, 43
2,11480, Note_on_c, 0, 68, 57
2,11504, Note_on_c, 0, 68, 0
2,11541, Note_on_c, 0, 65, 0
2,11568, Note_on_c, 0, 61, 47
2,11573, Note_on_c, 0, 63, 0
2,11653, Note_on_c, 0, 61, 0
2,11692, Note_on_c, 0, 58, 42
2,11702, Note_on_c, 0, 73, 61
2,11768, Note_on_c, 0, 77, 0
2,11791, Note_on_c, 0, 58, 0
2,11812, Note_on_c, 0, 60, 53
2,11908, Note_on_c, 0, 60, 0
2,11921, Note_on_c, 0, 73, 0
2,11926, Note_on_c, 0, 61, 55
2,11932, Note_on_c, 0, 77, 62
2,12028, Note_on_c, 0, 73, 74
2,12030, Note_on_c, 0, 58, 55
2,12031, Note_on_c, 0, 61, 0
2,12031, Note_on_c, 0, 77, 0
2,12125, Note_on_c, 0, 58, 0
2,12146, Note_on_c, 0, 73, 0
2,12150, Note_on_c, 0, 70, 62
2,12159, Note_on_c, 0, 55, 44
2,12230, Note_on_c, 0, 55, 0
2,12273, Note_on_c, 0, 56, 52
2,12376, Note_on_c, 0, 56, 0
2,12388, Note_on_c, 0, 58, 54
2,12396, Note_on_c, 0, 70, 0
2,12404, Note_on_c, 0, 73, 64
2,12443, Note_on_c, 0, 58, 0
2,12476, Note_on_c, 0, 73, 0
2,12487, Note_on_c, 0, 70, 53
2,12494, Note_on_c, 0, 55, 44
2,12642, Note_on_c, 0, 70, 0
2,12645, Note_on_c, 0, 48, 42
2,12645, Note_on_c, 0, 63, 54
2,12698, Control_c, 0, 64, 16
2,12702, Note_on_c, 0, 48, 0
2,12711, Note_on_c, 0, 55, 0
2,12714, Control_c, 0, 64, 44
2,12729, Control_c, 0, 64, 53
2,12744, Control_c, 0, 64, 57
2,12759, Control_c, 0, 64, 59
2,12774, Control_c, 0, 64, 61
2,12792, Control_c, 0, 64, 62
2,12806, Control_c, 0, 64, 63
2,12866, Control_c, 0, 64, 62
2,12876, Note_on_c, 0, 70, 63
2,12880, Note_on_c, 0, 63, 0
2,12882, Control_c, 0, 64, 56
2,12885, Note_on_c, 0, 60, 50
2,12897, Control_c, 0, 64, 26
2,12905, Note_on_c, 0, 70, 0
2,12913, Control_c, 0, 64, 0
2,12966, Note_on_c, 0, 60, 0
2,13000, Note_on_c, 0, 58, 52
2,13097, Note_on_c, 0, 58, 0
2,13116, Note_on_c, 0, 60, 57
2,13123, Note_on_c, 0, 75, 74
2,13224, Note_on_c, 0, 60, 0
2,13238, Note_on_c, 0, 61, 55
2,13317, Note_on_c, 0, 61, 0
2,13339, Note_on_c, 0, 63, 56
2,13349, Note_on_c, 0, 67, 62
2,13376, Note_on_c, 0, 67, 0
2,13425, Note_on_c, 0, 63, 0
2,13449, Note_on_c, 0, 60, 55
2,13571, Note_on_c, 0, 56, 48
2,13574, Note_on_c, 0, 72, 64
2,13592, Note_on_c, 0, 60, 0
2,13637, Note_on_c, 0, 75, 0
2,13706, Note_on_c, 0, 58, 56
2,13710, Note_on_c, 0, 56, 0
2,13807, Note_on_c, 0, 72, 0
2,13813, Note_on_c, 0, 75, 67
2,13829, Note_on_c, 0, 58, 0
2,13832, Note_on_c, 0, 60, 57
2,13900, Note_on_c, 0, 75, 0
2,13915, Note_on_c, 0, 60, 0
2,13918, Note_on_c, 0, 72, 68
2,13938, Note_on_c, 0, 56, 55
2,14024, Note_on_c, 0, 72, 0
2,14030, Note_on_c, 0, 56, 0
2,14040, Note_on_c, 0, 68, 53
2,14058, Note_on_c, 0, 53, 43
2,14141, Note_on_c, 0, 53, 0
2,14168, Note_on_c, 0, 55, 50
2,14252, Note_on_c, 0, 55, 0
2,14259, Note_on_c, 0, 68, 0
2,14278, Note_on_c, 0, 72, 57
2,14290, Note_on_c, 0, 56, 51
2,14343, Note_on_c, 0, 56, 0
2,14350, Note_on_c, 0, 72, 0
2,14387, Note_on_c, 0, 68, 54
2,14396, Note_on_c, 0, 53, 40
2,14444, Note_on_c, 0, 53, 0
2,14502, Note_on_c, 0, 68, 0
2,14523, Note_on_c, 0, 46, 46
2,14524, Note_on_c, 0, 61, 47
2,14577, Control_c, 0, 64, 46
2,14593, Control_c, 0, 64, 55
2,14595, Note_on_c, 0, 46, 0
2,14608, Control_c, 0, 64, 59
2,14623, Control_c, 0, 64, 62
2,14639, Control_c, 0, 64, 63
2,14654, Control_c, 0, 64, 65
2,14670, Control_c, 0, 64, 65
2,14684, Control_c, 0, 64, 66
2,14731, Note_on_c, 0, 61, 0
2,14745, Note_on_c, 0, 68, 64
2,14772, Note_on_c, 0, 58, 48
2,14774, Note_on_c, 0, 68, 0
2,14791, Control_c, 0, 64, 65
2,14806, Control_c, 0, 64, 64
2,14821, Control_c, 0, 64, 62
2,14831, Note_on_c, 0, 58, 0
2,14836, Control_c, 0, 64, 58
2,14851, Control_c, 0, 64, 50
2,14866, Control_c, 0, 64, 41
2,14870, Note_on_c, 0, 56, 48
2,14881, Control_c, 0, 64, 0
2,14978, Note_on_c, 0, 56, 0
2,14986, Note_on_c, 0, 73, 82
2,14991, Note_on_c, 0, 58, 55
2,15097, Note_on_c, 0, 60, 58
2,15110, Note_on_c, 0, 58, 0
2,15195, Note_on_c, 0, 60, 0
2,15206, Note_on_c, 0, 61, 61
2,15214, Note_on_c, 0, 65, 66
2,15245, Note_on_c, 0, 65, 0
2,15296, Note_on_c, 0, 61, 0
2,15306, Note_on_c, 0, 58, 56
2,15430, Note_on_c, 0, 58, 0
2,15451, Note_on_c, 0, 55, 50
2,15461, Note_on_c, 0, 70, 64
2,15553, Note_on_c, 0, 55, 0
2,15567, Note_on_c, 0, 73, 0
2,15569, Note_on_c, 0, 72, 74
2,15570, Note_on_c, 0, 56, 59
2,15602, Note_on_c, 0, 70, 0
2,15682, Note_on_c, 0, 73, 83
2,15684, Note_on_c, 0, 72, 0
2,15686, Note_on_c, 0, 58, 65
2,15695, Note_on_c, 0, 56, 0
2,15770, Note_on_c, 0, 73, 0
2,15776, Note_on_c, 0, 70, 80
2,15784, Note_on_c, 0, 55, 60
2,15800, Note_on_c, 0, 58, 0
2,15853, Note_on_c, 0, 55, 0
2,15905, Note_on_c, 0, 82, 81
2,15917, Note_on_c, 0, 51, 35
2,15938, Note_on_c, 0, 80, 43
2,15961, Note_on_c, 0, 70, 0
2,15973, Note_on_c, 0, 80, 0
2,16026, Note_on_c, 0, 73, 71
2,16031, Note_on_c, 0, 53, 55
2,16110, Note_on_c, 0, 51, 0
2,16145, Note_on_c, 0, 55, 50
2,16150, Note_on_c, 0, 75, 73
2,16182, Note_on_c, 0, 73, 0
2,16243, Note_on_c, 0, 55, 0
2,16246, Note_on_c, 0, 51, 54
2,16251, Note_on_c, 0, 70, 68
2,16284, Note_on_c, 0, 53, 0
2,16290, Note_on_c, 0, 70, 0
2,16292, Note_on_c, 0, 75, 0
2,16372, Control_c, 0, 64, 36
2,16374, Note_on_c, 0, 44, 62
2,16378, Note_on_c, 0, 72, 74
2,16387, Control_c, 0, 64, 57
2,16403, Control_c, 0, 64, 63
2,16416, Note_on_c, 0, 51, 0
2,16418, Control_c, 0, 64, 67
2,16424, Note_on_c, 0, 44, 0
2,16434, Control_c, 0, 64, 74
2,16448, Control_c, 0, 64, 84
2,16463, Control_c, 0, 64, 97
2,16479, Control_c, 0, 64, 127
2,16491, Note_on_c, 0, 72, 0
2,16493, Note_on_c, 0, 82, 0
2,16498, Note_on_c, 0, 80, 73
2,16607, Note_on_c, 0, 79, 79
2,16610, Note_on_c, 0, 80, 0
2,16617, Note_on_c, 0, 56, 66
2,16705, Note_on_c, 0, 82, 86
2,16719, Note_on_c, 0, 79, 0
2,16721, Note_on_c, 0, 58, 75
2,16768, Control_c, 0, 64, 97
2,16782, Control_c, 0, 64, 75
2,16798, Control_c, 0, 64, 53
2,16813, Control_c, 0, 64, 0
2,16835, Note_on_c, 0, 60, 83
2,16835, Note_on_c, 0, 80, 85
2,16839, Note_on_c, 0, 56, 0
2,16862, Note_on_c, 0, 58, 0
2,16862, Note_on_c, 0, 82, 0
2,16867, Note_on_c, 0, 60, 0
2,16945, Note_on_c, 0, 75, 81
2,16963, Note_on_c, 0, 80, 0
2,17058, Note_on_c, 0, 77, 79
2,17062, Note_on_c, 0, 56, 59
2,17063, Note_on_c, 0, 68, 67
2,17063, Note_on_c, 0, 75, 0
2,17133, Note_on_c, 0, 56, 0
2,17172, Note_on_c, 0, 78, 76
2,17193, Note_on_c, 0, 77, 0
2,17304, Note_on_c, 0, 77, 81
2,17307, Note_on_c, 0, 61, 46
2,17328, Note_on_c, 0, 78, 0
2,17423, Note_on_c, 0, 75, 84
2,17430, Note_on_c, 0, 67, 68
2,17433, Note_on_c, 0, 77, 0
2,17445, Note_on_c, 0, 68, 0
2,17528, Note_on_c, 0, 73, 90
2,17531, Note_on_c, 0, 65, 67
2,17531, Note_on_c, 0, 67, 0
2,17553, Note_on_c, 0, 75, 0
2,17638, Note_on_c, 0, 75, 92
2,17653, Note_on_c, 0, 67, 71
2,17657, Note_on_c, 0, 73, 0
2,17735, Note_on_c, 0, 61, 0
2,17746, Note_on_c, 0, 65, 0
2,17763, Note_on_c, 0, 67, 0
2,17768, Note_on_c, 0, 84, 81
2,17775, Note_on_c, 0, 60, 60
2,17775, Note_on_c, 0, 68, 70
2,17779, Note_on_c, 0, 75, 0
2,17803, Note_on_c, 0, 84, 0
2,17861, Note_on_c, 0, 68, 0
2,17881, Note_on_c, 0, 66, 74
2,17986, Note_on_c, 0, 66, 0
2,17997, Note_on_c, 0, 80, 88
2,17998, Note_on_c, 0, 65, 64
2,18031, Note_on_c, 0, 60, 0
2,18038, Note_on_c, 0, 80, 0
2,18099, Note_on_c, 0, 63, 76
2,18109, Note_on_c, 0, 65, 0
2,18236, Note_on_c, 0, 65, 69
2,18237, Note_on_c, 0, 75, 83
2,18240, Note_on_c, 0, 63, 0
2,18243, Note_on_c, 0, 58, 64
2,18274, Note_on_c, 0, 58, 0
2,18463, Note_on_c, 0, 56, 70
2,18491, Note_on_c, 0, 73, 75
2,18495, Note_on_c, 0, 56, 0
2,18523, Note_on_c, 0, 75, 0
2,18589, Note_on_c, 0, 72, 74
2,18611, Note_on_c, 0, 73, 0
2,18696, Note_on_c, 0, 55, 63
2,18707, Note_on_c, 0, 73, 85
2,18714, Note_on_c, 0, 72, 0
2,18736, Note_on_c, 0, 73, 0
2,18809, Note_on_c, 0, 63, 66
2,18863, Note_on_c, 0, 65, 0
2,18926, Note_on_c, 0, 82, 83
2,18940, Note_on_c, 0, 61, 67
2,18974, Note_on_c, 0, 82, 0
2,18980, Note_on_c, 0, 63, 0
2,18984, Note_on_c, 0, 55, 0
2,19035, Note_on_c, 0, 65, 58
2,19151, Note_on_c, 0, 61, 0
2,19159, Note_on_c, 0, 65, 0
2,19165, Note_on_c, 0, 56, 54
2,19165, Note_on_c, 0, 63, 57
2,19180, Note_on_c, 0, 72, 81
2,19211, Note_on_c, 0, 72, 0
2,19282, Note_on_c, 0, 61, 64
2,19301, Note_on_c, 0, 63, 0
2,19389, Note_on_c, 0, 60, 58
2,19404, Note_on_c, 0, 61, 0
2,19413, Note_on_c, 0, 80, 80
2,19451, Note_on_c, 0, 56, 0
2,19461, Note_on_c, 0, 80, 0
2,19463, Note_on_c, 0, 60, 0
2,19476, Note_on_c, 0, 63, 70
2,19568, Note_on_c, 0, 63, 0
2,19614, Note_on_c, 0, 61, 59
2,19626, Note_on_c, 0, 70, 68
2,19642, Note_on_c, 0, 51, 48
2,19660, Note_on_c, 0, 70, 0
2,19714, Note_on_c, 0, 61, 0
2,19738, Note_on_c, 0, 60, 58
2,19859, Note_on_c, 0, 60, 0
2,19861, Note_on_c, 0, 61, 60
2,19876, Note_on_c, 0, 79, 55
2,19903, Note_on_c, 0, 79, 0
2,19964, Note_on_c, 0, 61, 0
2,19967, Note_on_c, 0, 58, 59
2,20088, Note_on_c, 0, 51, 0
2,20094, Note_on_c, 0, 58, 0
2,20118, Note_on_c, 0, 60, 61
2,20122, Note_on_c, 0, 56, 42
2,20132, Note_on_c, 0, 68, 51
2,20147, Note_on_c, 0, 60, 0
2,20203, Note_on_c, 0, 68, 0
2,20229, Note_on_c, 0, 70, 55
2,20313, Note_on_c, 0, 70, 0
2,20338, Note_on_c, 0, 63, 58
2,20356, Note_on_c, 0, 72, 54
2,20385, Note_on_c, 0, 63, 0
2,20437, Note_on_c, 0, 72, 0
2,20463, Note_on_c, 0, 73, 60
2,20566, Note_on_c, 0, 73, 0
2,20579, Note_on_c, 0, 68, 47
2,20581, Note_on_c, 0, 72, 53
2,20593, Control_c, 0, 64, 21
2,20608, Control_c, 0, 64, 43
2,20623, Control_c, 0, 64, 51
2,20639, Control_c, 0, 64, 56
2,20654, Control_c, 0, 64, 59
2,20674, Note_on_c, 0, 72, 0
2,20677, Control_c, 0, 64, 62
2,20692, Control_c, 0, 64, 64
2,20697, Note_on_c, 0, 68, 0
2,20700, Note_on_c, 0, 70, 46
2,20707, Control_c, 0, 64, 65
2,20722, Control_c, 0, 64, 67
2,20737, Control_c, 0, 64, 69
2,20747, Note_on_c, 0, 56, 0
2,20753, Control_c, 0, 64, 70
2,20768, Control_c, 0, 64, 71
2,20800, Note_on_c, 0, 70, 0
2,20801, Note_on_c, 0, 63, 50
2,20822, Note_on_c, 0, 68, 56
2,20879, Note_on_c, 0, 68, 0
2,20910, Note_on_c, 0, 72, 60
2,20921, Note_on_c, 0, 60, 47
2,20934, Control_c, 0, 64, 69
2,20950, Control_c, 0, 64, 68
2,20965, Control_c, 0, 64, 66
2,20975, Note_on_c, 0, 63, 0
2,20981, Control_c, 0, 64, 65
2,20983, Note_on_c, 0, 72, 0
2,20997, Control_c, 0, 64, 63
2,21012, Control_c, 0, 64, 60
2,21026, Control_c, 0, 64, 55
2,21033, Note_on_c, 0, 60, 0
2,21034, Note_on_c, 0, 56, 56
2,21041, Control_c, 0, 64, 47
2,21041, Note_on_c, 0, 77, 61
2,21056, Control_c, 0, 64, 35
2,21065, Note_on_c, 0, 56, 0
2,21072, Control_c, 0, 64, 0
2,21150, Note_on_c, 0, 75, 71
2,21198, Note_on_c, 0, 77, 0
2,21269, Note_on_c, 0, 59, 50
2,21270, Note_on_c, 0, 74, 66
2,21276, Note_on_c, 0, 75, 0
2,21365, Note_on_c, 0, 59, 0
2,21375, Note_on_c, 0, 56, 53
2,21375, Note_on_c, 0, 77, 72
2,21380, Note_on_c, 0, 74, 0
2,21509, Note_on_c, 0, 77, 0
2,21515, Note_on_c, 0, 53, 51
2,21518, Note_on_c, 0, 80, 73
2,21556, Note_on_c, 0, 56, 0
2,21557, Note_on_c, 0, 53, 0
2,21615, Note_on_c, 0, 78, 81
2,21639, Note_on_c, 0, 80, 0
2,21720, Note_on_c, 0, 77, 76
2,21722, Note_on_c, 0, 56, 53
2,21744, Note_on_c, 0, 78, 0
2,21817, Note_on_c, 0, 80, 78
2,21842, Note_on_c, 0, 53, 56
2,21843, Note_on_c, 0, 56, 0
2,21867, Note_on_c, 0, 80, 0
2,21955, Note_on_c, 0, 77, 0
2,21970, Note_on_c, 0, 80, 45
2,21973, Note_on_c, 0, 50, 43
2,21979, Note_on_c, 0, 53, 0
2,21992, Note_on_c, 0, 82, 73
2,22004, Note_on_c, 0, 80, 0
2,22055, Note_on_c, 0, 83, 80
2,22067, Note_on_c, 0, 82, 0
2,22244, Note_on_c, 0, 53, 49
2,22254, Note_on_c, 0, 82, 68
2,22288, Note_on_c, 0, 83, 0
2,22340, Note_on_c, 0, 56, 59
2,22347, Note_on_c, 0, 80, 78
2,22396, Note_on_c, 0, 50, 0
2,22401, Note_on_c, 0, 53, 0
2,22444, Note_on_c, 0, 82, 0
2,22469, Note_on_c, 0, 59, 66
2,22470, Note_on_c, 0, 78, 78
2,22475, Note_on_c, 0, 56, 0
2,22481, Note_on_c, 0, 80, 0
2,22491, Note_on_c, 0, 59, 0
2,22569, Note_on_c, 0, 78, 0
2,22575, Note_on_c, 0, 77, 74
2,22683, Note_on_c, 0, 77, 0
2,22688, Note_on_c, 0, 53, 58
2,22701, Note_on_c, 0, 75, 60
2,22719, Note_on_c, 0, 53, 0
2,22792, Note_on_c, 0, 75, 0
2,22797, Note_on_c, 0, 74, 62
2,22916, Note_on_c, 0, 75, 68
2,22919, Note_on_c, 0, 57, 65
2,22930, Note_on_c, 0, 54, 51
2,22949, Note_on_c, 0, 57, 0
2,22955, Note_on_c, 0, 54, 0
2,22955, Note_on_c, 0, 74, 0
2,23037, Note_on_c, 0, 78, 69
2,23052, Note_on_c, 0, 75, 0
2,23154, Note_on_c, 0, 77, 80
2,23159, Note_on_c, 0, 56, 70
2,23159, Note_on_c, 0, 59, 65
2,23183, Note_on_c, 0, 56, 0
2,23185, Note_on_c, 0, 59, 0
2,23197, Note_on_c, 0, 78, 0
2,23262, Note_on_c, 0, 75, 79
2,23292, Note_on_c, 0, 77, 0
2,23379, Note_on_c, 0, 74, 70
2,23382, Note_on_c, 0, 75, 0
2,23389, Note_on_c, 0, 58, 68
2,23416, Note_on_c, 0, 58, 0
2,23486, Note_on_c, 0, 74, 0
2,23500, Note_on_c, 0, 77, 72
2,23610, Note_on_c, 0, 77, 0
2,23622, Note_on_c, 0, 50, 50
2,23623, Note_on_c, 0, 70, 69
2,23630, Note_on_c, 0, 46, 58
2,23648, Note_on_c, 0, 50, 0
2,23655, Note_on_c, 0, 46, 0
2,23712, Note_on_c, 0, 70, 0
2,23716, Note_on_c, 0, 68, 67
2,23843, Note_on_c, 0, 68, 0
2,23867, Note_on_c, 0, 51, 36
2,23872, Note_on_c, 0, 66, 57
2,23883, Note_on_c, 0, 39, 33
2,23963, Note_on_c, 0, 66, 0
2,23981, Note_on_c, 0, 65, 53
2,24072, Note_on_c, 0, 65, 0
2,24106, Note_on_c, 0, 63, 50
2,24175, Note_on_c, 0, 63, 0
2,24179, Note_on_c, 0, 39, 0
2,24210, Note_on_c, 0, 62, 50
2,24254, Note_on_c, 0, 51, 0
2,24266, Note_on_c, 0, 62, 0
2,24324, Note_on_c, 0, 63, 50
2,24402, Note_on_c, 0, 63, 0
2,24434, Note_on_c, 0, 65, 50
2,24525, Note_on_c, 0, 65, 0
2,24547, Note_on_c, 0, 51, 54
2,24580, Note_on_c, 0, 66, 26
2,24581, Note_on_c, 0, 51, 0
2,24626, Note_on_c, 0, 66, 0
2,24680, Note_on_c, 0, 68, 37
2,24757, Note_on_c, 0, 68, 0
2,24795, Note_on_c, 0, 54, 50
2,24798, Note_on_c, 0, 70, 41
2,24889, Note_on_c, 0, 70, 0
2,24904, Note_on_c, 0, 68, 46
2,24925, Note_on_c, 0, 54, 0
2,24929, Note_on_c, 0, 53, 55
2,25015, Note_on_c, 0, 53, 0
2,25016, Note_on_c, 0, 68, 0
2,25030, Note_on_c, 0, 66, 55
2,25035, Note_on_c, 0, 51, 60
2,25121, Note_on_c, 0, 51, 0
2,25134, Note_on_c, 0, 66, 0
2,25145, Note_on_c, 0, 68, 58
2,25147, Note_on_c, 0, 53, 47
2,25230, Note_on_c, 0, 53, 0
2,25249, Note_on_c, 0, 68, 0
2,25260, Note_on_c, 0, 61, 71
2,25281, Note_on_c, 0, 70, 59
2,25299, Note_on_c, 0, 61, 0
2,25370, Note_on_c, 0, 70, 0
2,25385, Note_on_c, 0, 68, 56
2,25498, Note_on_c, 0, 58, 69
2,25504, Note_on_c, 0, 68, 0
2,25506, Note_on_c, 0, 66, 59
2,25529, Note_on_c, 0, 58, 0
2,25587, Note_on_c, 0, 66, 0
2,25606, Note_on_c, 0, 65, 60
2,25739, Note_on_c, 0, 65, 0
2,25744, Note_on_c, 0, 66, 53
2,25746, Note_on_c, 0, 53, 51
2,26007, Note_on_c, 0, 51, 55
2,26018, Note_on_c, 0, 53, 0
2,26120, Note_on_c, 0, 51, 0
2,26134, Note_on_c, 0, 49, 55
2,26205, Note_on_c, 0, 49, 0
2,26248, Note_on_c, 0, 51, 64
2,26276, Note_on_c, 0, 51, 0
2,26353, Note_on_c, 0, 65, 55
2,26431, Note_on_c, 0, 66, 0
2,26467, Note_on_c, 0, 60, 57
2,26467, Note_on_c, 0, 65, 0
2,26482, Note_on_c, 0, 63, 56
2,26492, Note_on_c, 0, 60, 0
2,26571, Note_on_c, 0, 63, 0
2,26573, Note_on_c, 0, 66, 60
2,26696, Note_on_c, 0, 49, 64
2,26712, Note_on_c, 0, 65, 64
2,26729, Note_on_c, 0, 49, 0
2,26779, Note_on_c, 0, 66, 0
2,26801, Note_on_c, 0, 65, 0
2,26813, Note_on_c, 0, 63, 66
2,26932, Note_on_c, 0, 58, 67
2,26944, Note_on_c, 0, 61, 62
2,26953, Note_on_c, 0, 63, 0
2,26963, Note_on_c, 0, 58, 0
2,27052, Note_on_c, 0, 65, 61
2,27058, Note_on_c, 0, 61, 0
2,27169, Note_on_c, 0, 48, 60
2,27181, Note_on_c, 0, 63, 64
2,27202, Note_on_c, 0, 48, 0
2,27214, Note_on_c, 0, 65, 0
2,27286, Note_on_c, 0, 61, 61
2,27295, Note_on_c, 0, 63, 0
2,27412, Note_on_c, 0, 57, 54
2,27427, Note_on_c, 0, 63, 63
2,27435, Note_on_c, 0, 61, 0
2,27444, Note_on_c, 0, 57, 0
2,27519, Note_on_c, 0, 63, 0
2,27529, Note_on_c, 0, 60, 60
2,27643, Note_on_c, 0, 46, 45
2,27674, Note_on_c, 0, 61, 53
2,27702, Note_on_c, 0, 60, 0
2,27739, Note_on_c, 0, 46, 0
2,27740, Control_c, 0, 64, 25
2,27756, Control_c, 0, 64, 44
2,27771, Control_c, 0, 64, 53
2,27776, Note_on_c, 0, 65, 63
2,27777, Note_on_c, 0, 61, 0
2,27785, Control_c, 0, 64, 58
2,27801, Control_c, 0, 64, 61
2,27816, Control_c, 0, 64, 63
2,27831, Control_c, 0, 64, 64
2,27846, Control_c, 0, 64, 65
2,27861, Control_c, 0, 64, 66
2,27877, Control_c, 0, 64, 69
2,27880, Note_on_c, 0, 65, 0
2,27889, Note_on_c, 0, 66, 63
2,27892, Control_c, 0, 64, 71
2,27907, Control_c, 0, 64, 72
2,27914, Note_on_c, 0, 58, 50
2,27964, Note_on_c, 0, 66, 0
2,27993, Note_on_c, 0, 65, 72
2,28011, Note_on_c, 0, 58, 0
2,28021, Note_on_c, 0, 57, 55
2,28030, Control_c, 0, 64, 71
2,28044, Control_c, 0, 64, 71
2,28059, Control_c, 0, 64, 70
2,28075, Control_c, 0, 64, 67
2,28090, Control_c, 0, 64, 64
2,28105, Control_c, 0, 64, 57
2,28107, Note_on_c, 0, 57, 0
2,28119, Note_on_c, 0, 73, 77
2,28120, Control_c, 0, 64, 43
2,28125, Note_on_c, 0, 65, 0
2,28135, Control_c, 0, 64, 0
2,28136, Note_on_c, 0, 58, 59
2,28225, Note_on_c, 0, 58, 0
2,28242, Note_on_c, 0, 60, 56
2,28355, Note_on_c, 0, 60, 0
2,28362, Note_on_c, 0, 65, 54
2,28366, Note_on_c, 0, 61, 55
2,28393, Note_on_c, 0, 65, 0
2,28429, Note_on_c, 0, 61, 0
2,28452, Note_on_c, 0, 58, 53
2,28557, Note_on_c, 0, 58, 0
2,28601, Note_on_c, 0, 55, 35
2,28606, Note_on_c, 0, 70, 55
2,28684, Note_on_c, 0, 55, 0
2,28709, Note_on_c, 0, 73, 0
2,28713, Note_on_c, 0, 72, 64
2,28714, Note_on_c, 0, 56, 54
2,28763, Note_on_c, 0, 70, 0
2,28817, Note_on_c, 0, 72, 0
2,28826, Note_on_c, 0, 73, 77
2,28832, Note_on_c, 0, 58, 60
2,28845, Note_on_c, 0, 56, 0
2,28901, Note_on_c, 0, 73, 0
2,28918, Note_on_c, 0, 70, 69
2,28931, Note_on_c, 0, 55, 51
2,28937, Note_on_c, 0, 58, 0
2,28999, Note_on_c, 0, 55, 0
2,29051, Note_on_c, 0, 82, 76
2,29067, Note_on_c, 0, 51, 44
2,29139, Note_on_c, 0, 70, 0
2,29173, Note_on_c, 0, 73, 63
2,29202, Note_on_c, 0, 53, 39
2,29280, Note_on_c, 0, 51, 0
2,29286, Note_on_c, 0, 55, 50
2,29294, Note_on_c, 0, 75, 67
2,29301, Note_on_c, 0, 73, 0
2,29357, Note_on_c, 0, 82, 0
2,29392, Note_on_c, 0, 55, 0
2,29402, Note_on_c, 0, 70, 58
2,29403, Note_on_c, 0, 53, 0
2,29420, Note_on_c, 0, 51, 47
2,29423, Note_on_c, 0, 75, 0
2,29488, Control_c, 0, 64, 45
2,29503, Control_c, 0, 64, 55
2,29519, Control_c, 0, 64, 61
2,29523, Note_on_c, 0, 44, 55
2,29534, Control_c, 0, 64, 65
2,29536, Note_on_c, 0, 72, 48
2,29538, Note_on_c, 0, 70, 0
2,29540, Note_on_c, 0, 51, 0
2,29550, Control_c, 0, 64, 71
2,29559, Note_on_c, 0, 44, 0
2,29560, Note_on_c, 0, 72, 0
2,29564, Control_c, 0, 64, 76
2,29579, Control_c, 0, 64, 81
2,29595, Control_c, 0, 64, 89
2,29610, Control_c, 0, 64, 97
2,29625, Control_c, 0, 64, 106
2,29641, Control_c, 0, 64, 114
2,29656, Control_c, 0, 64, 117
2,29669, Note_on_c, 0, 63, 64
2,29686, Control_c, 0, 64, 119
2,29717, Control_c, 0, 64, 121
2,29751, Note_on_c, 0, 63, 0
2,29754, Note_on_c, 0, 65, 70
2,29772, Note_on_c, 0, 56, 55
2,29822, Control_c, 0, 64, 119
2,29838, Control_c, 0, 64, 117
2,29853, Control_c, 0, 64, 110
2,29856, Note_on_c, 0, 63, 73
2,29862, Note_on_c, 0, 65, 0
2,29869, Control_c, 0, 64, 100
2,29886, Note_on_c, 0, 56, 0
2,29891, Control_c, 0, 64, 87
2,29906, Control_c, 0, 64, 76
2,29907, Note_on_c, 0, 55, 44
2,29922, Control_c, 0, 64, 69
2,29936, Control_c, 0, 64, 64
2,29952, Control_c, 0, 64, 52
2,29967, Control_c, 0, 64, 0
2,30003, Note_on_c, 0, 55, 0
2,30007, Note_on_c, 0, 72, 77
2,30019, Note_on_c, 0, 56, 62
2,30020, Note_on_c, 0, 63, 0
2,30124, Note_on_c, 0, 58, 57
2,30128, Note_on_c, 0, 56, 0
2,30234, Note_on_c, 0, 60, 48
2,30239, Note_on_c, 0, 63, 56
2,30264, Note_on_c, 0, 63, 0
2,30314, Note_on_c, 0, 60, 0
2,30334, Note_on_c, 0, 58, 0
2,30338, Note_on_c, 0, 56, 55
2,30458, Note_on_c, 0, 56, 0
2,30463, Note_on_c, 0, 68, 61
2,30485, Note_on_c, 0, 53, 43
2,30555, Note_on_c, 0, 72, 0
2,30573, Note_on_c, 0, 70, 74
2,30595, Note_on_c, 0, 53, 0
2,30597, Note_on_c, 0, 55, 56
2,30653, Note_on_c, 0, 68, 0
2,30690, Note_on_c, 0, 72, 80
2,30692, Note_on_c, 0, 56, 63
2,30697, Note_on_c, 0, 70, 0
2,30700, Note_on_c, 0, 55, 0
2,30770, Note_on_c, 0, 72, 0
2,30790, Note_on_c, 0, 68, 69
2,30801, Note_on_c, 0, 53, 55
2,30817, Note_on_c, 0, 56, 0
2,30875, Note_on_c, 0, 53, 0
2,30925, Note_on_c, 0, 80, 81
2,30928, Note_on_c, 0, 49, 45
2,30993, Note_on_c, 0, 68, 0
2,31010, Control_c, 0, 64, 30
2,31023, Control_c, 0, 64, 52
2,31035, Note_on_c, 0, 72, 71
2,31039, Control_c, 0, 64, 58
2,31041, Note_on_c, 0, 51, 53
2,31054, Control_c, 0, 64, 61
2,31059, Note_on_c, 0, 49, 0
2,31070, Control_c, 0, 64, 65
2,31084, Control_c, 0, 64, 68
2,31099, Control_c, 0, 64, 73
2,31115, Control_c, 0, 64, 76
2,31130, Control_c, 0, 64, 78
2,31136, Note_on_c, 0, 80, 0
2,31145, Control_c, 0, 64, 80
2,31151, Note_on_c, 0, 73, 73
2,31155, Note_on_c, 0, 53, 55
2,31161, Control_c, 0, 64, 82
2,31173, Note_on_c, 0, 72, 0
2,31175, Control_c, 0, 64, 83
2,31243, Note_on_c, 0, 73, 0
2,31250, Note_on_c, 0, 49, 59
2,31252, Note_on_c, 0, 68, 70
2,31261, Note_on_c, 0, 53, 0
2,31290, Note_on_c, 0, 49, 0
2,31297, Control_c, 0, 64, 81
2,31297, Note_on_c, 0, 51, 0
2,31313, Control_c, 0, 64, 71
2,31321, Note_on_c, 0, 68, 0
2,31328, Control_c, 0, 64, 59
2,31343, Control_c, 0, 64, 43
2,31359, Control_c, 0, 64, 52
2,31373, Control_c, 0, 64, 58
2,31379, Note_on_c, 0, 70, 70
2,31389, Control_c, 0, 64, 63
2,31396, Note_on_c, 0, 43, 62
2,31404, Control_c, 0, 64, 66
2,31426, Control_c, 0, 64, 68
2,31436, Note_on_c, 0, 43, 0
2,31442, Control_c, 0, 64, 71
2,31457, Control_c, 0, 64, 73
2,31473, Control_c, 0, 64, 76
2,31487, Control_c, 0, 64, 79
2,31502, Control_c, 0, 64, 82
2,31510, Note_on_c, 0, 61, 70
2,31518, Control_c, 0, 64, 84
2,31533, Control_c, 0, 64, 85
2,31550, Note_on_c, 0, 70, 0
2,31613, Note_on_c, 0, 63, 75
2,31618, Note_on_c, 0, 61, 0
2,31623, Note_on_c, 0, 55, 55
2,31686, Control_c, 0, 64, 84
2,31701, Control_c, 0, 64, 80
2,31715, Note_on_c, 0, 61, 81
2,31717, Control_c, 0, 64, 76
2,31723, Note_on_c, 0, 55, 0
2,31731, Control_c, 0, 64, 71
2,31736, Note_on_c, 0, 63, 0
2,31740, Note_on_c, 0, 53, 62
2,31746, Control_c, 0, 64, 65
2,31762, Control_c, 0, 64, 54
2,31777, Control_c, 0, 64, 0
2,31855, Note_on_c, 0, 55, 61
2,31856, Note_on_c, 0, 70, 84
2,31872, Note_on_c, 0, 53, 0
2,31884, Note_on_c, 0, 61, 0
2,31971, Note_on_c, 0, 56, 64
2,31979, Note_on_c, 0, 55, 0
2,32079, Note_on_c, 0, 56, 0
2,32090, Note_on_c, 0, 61, 72
2,32099, Note_on_c, 0, 58, 60
2,32147, Note_on_c, 0, 61, 0
2,32154, Note_on_c, 0, 58, 0
2,32215, Note_on_c, 0, 55, 64
2,32330, Note_on_c, 0, 55, 0
2,32336, Note_on_c, 0, 52, 57
2,32337, Note_on_c, 0, 67, 74
2,32340, Note_on_c, 0, 70, 0
2,32443, Note_on_c, 0, 52, 0
2,32447, Note_on_c, 0, 53, 66
2,32448, Note_on_c, 0, 68, 77
2,32502, Note_on_c, 0, 67, 0
2,32562, Note_on_c, 0, 70, 77
2,32575, Note_on_c, 0, 55, 69
2,32578, Note_on_c, 0, 68, 0
2,32597, Note_on_c, 0, 53, 0
2,32659, Note_on_c, 0, 70, 0
2,32660, Note_on_c, 0, 67, 83
2,32668, Note_on_c, 0, 52, 63
2,32674, Note_on_c, 0, 55, 0
2,32773, Note_on_c, 0, 52, 0
2,32792, Note_on_c, 0, 48, 61
2,32810, Note_on_c, 0, 79, 87
2,32906, Note_on_c, 0, 48, 0
2,32912, Control_c, 0, 64, 35
2,32916, Note_on_c, 0, 50, 57
2,32923, Note_on_c, 0, 79, 0
2,32927, Control_c, 0, 64, 50
2,32929, Note_on_c, 0, 70, 73
2,32942, Control_c, 0, 64, 59
2,32965, Control_c, 0, 64, 64
2,32980, Control_c, 0, 64, 68
2,32995, Control_c, 0, 64, 73
2,33010, Control_c, 0, 64, 78
2,33026, Control_c, 0, 64, 83
2,33041, Control_c, 0, 64, 89
2,33043, Note_on_c, 0, 72, 74
2,33047, Note_on_c, 0, 52, 61
2,33055, Note_on_c, 0, 67, 0
2,33056, Control_c, 0, 64, 96
2,33065, Note_on_c, 0, 70, 0
2,33071, Control_c, 0, 64, 105
2,33086, Control_c, 0, 64, 127
2,33113, Note_on_c, 0, 50, 0
2,33131, Note_on_c, 0, 52, 0
2,33137, Note_on_c, 0, 48, 69
2,33150, Note_on_c, 0, 67, 80
2,33156, Note_on_c, 0, 72, 0
2,33165, Note_on_c, 0, 48, 0
2,33278, Note_on_c, 0, 41, 62
2,33281, Note_on_c, 0, 68, 73
2,33331, Note_on_c, 0, 67, 0
2,33399, Note_on_c, 0, 76, 81
2,33407, Note_on_c, 0, 43, 67
2,33422, Control_c, 0, 64, 108
2,33431, Note_on_c, 0, 68, 0
2,33437, Control_c, 0, 64, 95
2,33452, Control_c, 0, 64, 84
2,33468, Control_c, 0, 64, 75
2,33483, Control_c, 0, 64, 69
2,33487, Note_on_c, 0, 41, 0
2,33497, Control_c, 0, 64, 62
2,33500, Note_on_c, 0, 44, 71
2,33509, Note_on_c, 0, 77, 88
2,33513, Control_c, 0, 64, 48
2,33528, Control_c, 0, 64, 10
2,33538, Note_on_c, 0, 43, 0
2,33543, Control_c, 0, 64, 0
2,33598, Note_on_c, 0, 76, 0
2,33608, Note_on_c, 0, 46, 71
2,33608, Note_on_c, 0, 73, 84
2,33632, Note_on_c, 0, 77, 0
2,33654, Note_on_c, 0, 44, 0
2,33745, Note_on_c, 0, 70, 86
2,33746, Note_on_c, 0, 46, 0
2,33749, Note_on_c, 0, 48, 67
2,33763, Note_on_c, 0, 73, 0
2,33844, Note_on_c, 0, 48, 0
2,33853, Note_on_c, 0, 50, 70
2,33902, Note_on_c, 0, 71, 25
2,33927, Note_on_c, 0, 71, 0
2,33971, Note_on_c, 0, 50, 0
2,33972, Note_on_c, 0, 52, 67
2,33985, Note_on_c, 0, 60, 83
2,34043, Note_on_c, 0, 60, 0
2,34097, Note_on_c, 0, 48, 57
2,34119, Note_on_c, 0, 52, 0
2,34210, Note_on_c, 0, 53, 55
2,34223, Note_on_c, 0, 61, 82
2,34265, Note_on_c, 0, 48, 0
2,34337, Note_on_c, 0, 60, 87
2,34342, Note_on_c, 0, 51, 58
2,34346, Note_on_c, 0, 70, 0
2,34365, Note_on_c, 0, 61, 0
2,34371, Note_on_c, 0, 53, 0
2,34442, Note_on_c, 0, 51, 0
2,34444, Note_on_c, 0, 49, 58
2,34452, Note_on_c, 0, 58, 88
2,34471, Note_on_c, 0, 60, 0
2,34563, Note_on_c, 0, 60, 89
2,34571, Note_on_c, 0, 51, 66
2,34593, Note_on_c, 0, 58, 0
2,34603, Note_on_c, 0, 49, 0
2,34686, Note_on_c, 0, 51, 0
2,34697, Note_on_c, 0, 68, 87
2,34699, Note_on_c, 0, 53, 62
2,34706, Note_on_c, 0, 60, 0
2,34800, Note_on_c, 0, 53, 0
2,34803, Note_on_c, 0, 51, 68
2,34919, Note_on_c, 0, 49, 68
2,34941, Note_on_c, 0, 65, 83
2,34957, Note_on_c, 0, 51, 0
2,35004, Note_on_c, 0, 65, 0
2,35019, Note_on_c, 0, 49, 0
2,35031, Note_on_c, 0, 48, 69
2,35181, Note_on_c, 0, 49, 67
2,35184, Note_on_c, 0, 48, 0
2,35204, Note_on_c, 0, 60, 74
2,35429, Note_on_c, 0, 60, 0
2,35446, Note_on_c, 0, 68, 0
2,35451, Note_on_c, 0, 58, 73
2,35469, Note_on_c, 0, 61, 32
2,35551, Note_on_c, 0, 56, 82
2,35576, Note_on_c, 0, 58, 0
2,35606, Note_on_c, 0, 61, 0
2,35643, Note_on_c, 0, 56, 0
2,35677, Note_on_c, 0, 58, 78
2,35683, Note_on_c, 0, 67, 81
2,35737, Note_on_c, 0, 67, 0
2,35778, Note_on_c, 0, 49, 0
2,35796, Note_on_c, 0, 48, 62
2,35902, Note_on_c, 0, 48, 0
2,35912, Note_on_c, 0, 67, 82
2,35916, Note_on_c, 0, 46, 60
2,35967, Note_on_c, 0, 67, 0
2,36013, Note_on_c, 0, 46, 0
2,36036, Note_on_c, 0, 49, 65
2,36147, Note_on_c, 0, 49, 0
2,36152, Note_on_c, 0, 56, 82
2,36163, Note_on_c, 0, 48, 62
2,36193, Note_on_c, 0, 56, 0
2,36236, Note_on_c, 0, 58, 0
2,36261, Note_on_c, 0, 48, 0
2,36266, Note_on_c, 0, 46, 64
2,36398, Note_on_c, 0, 44, 58
2,36400, Note_on_c, 0, 65, 76
2,36404, Note_on_c, 0, 46, 0
2,36435, Note_on_c, 0, 65, 0
2,36481, Note_on_c, 0, 44, 0
2,36504, Note_on_c, 0, 48, 59
2,36604, Note_on_c, 0, 48, 0
2,36620, Note_on_c, 0, 55, 65
2,36624, Note_on_c, 0, 46, 59
2,36627, Note_on_c, 0, 64, 71
2,36644, Note_on_c, 0, 55, 0
2,36663, Note_on_c, 0, 64, 0
2,36725, Note_on_c, 0, 46, 0
2,36734, Note_on_c, 0, 44, 62
2,36858, Note_on_c, 0, 44, 0
2,36861, Note_on_c, 0, 67, 61
2,36873, Note_on_c, 0, 46, 48
2,36873, Note_on_c, 0, 64, 41
2,36892, Note_on_c, 0, 67, 0
2,36901, Note_on_c, 0, 64, 0
2,36963, Note_on_c, 0, 43, 54
2,36965, Note_on_c, 0, 46, 0
2,37064, Note_on_c, 0, 43, 0
2,37099, Note_on_c, 0, 44, 47
2,37109, Note_on_c, 0, 53, 65
2,37116, Note_on_c, 0, 72, 51
2,37130, Note_on_c, 0, 44, 0
2,37213, Note_on_c, 0, 72, 0
2,37238, Note_on_c, 0, 70, 45
2,37346, Note_on_c, 0, 70, 0
2,37350, Note_on_c, 0, 49, 45
2,37364, Note_on_c, 0, 68, 53
2,37380, Note_on_c, 0, 49, 0
2,37451, Note_on_c, 0, 68, 0
2,37466, Note_on_c, 0, 72, 55
2,37584, Note_on_c, 0, 43, 44
2,37601, Note_on_c, 0, 72, 0
2,37608, Note_on_c, 0, 70, 64
2,37618, Note_on_c, 0, 43, 0
2,37709, Note_on_c, 0, 68, 66
2,37742, Note_on_c, 0, 70, 0
2,37807, Note_on_c, 0, 53, 0
2,37818, Note_on_c, 0, 52, 62
2,37820, Note_on_c, 0, 68, 0
2,37824, Note_on_c, 0, 67, 63
2,37831, Note_on_c, 0, 48, 48
2,37845, Note_on_c, 0, 52, 0
2,37857, Note_on_c, 0, 48, 0
2,37927, Note_on_c, 0, 67, 0
2,37935, Note_on_c, 0, 70, 61
2,38060, Note_on_c, 0, 53, 69
2,38066, Note_on_c, 0, 68, 62
2,38066, Note_on_c, 0, 70, 0
2,38070, Note_on_c, 0, 41, 57
2,38094, Note_on_c, 0, 53, 0
2,38097, Note_on_c, 0, 41, 0
2,38153, Note_on_c, 0, 68, 0
2,38164, Note_on_c, 0, 65, 65
2,38284, Note_on_c, 0, 73, 77
2,38290, Note_on_c, 0, 52, 68
2,38298, Note_on_c, 0, 46, 66
2,38320, Note_on_c, 0, 65, 0
2,38340, Note_on_c, 0, 52, 0
2,38343, Note_on_c, 0, 46, 0
2,38404, Note_on_c, 0, 70, 77
2,38442, Note_on_c, 0, 73, 0
2,38524, Note_on_c, 0, 53, 75
2,38526, Note_on_c, 0, 44, 76
2,38530, Note_on_c, 0, 72, 79
2,38550, Note_on_c, 0, 70, 0
2,38559, Note_on_c, 0, 53, 0
2,38566, Note_on_c, 0, 44, 0
2,38614, Note_on_c, 0, 72, 0
2,38627, Note_on_c, 0, 68, 81
2,38752, Note_on_c, 0, 58, 74
2,38752, Note_on_c, 0, 78, 80
2,38758, Note_on_c, 0, 49, 64
2,38772, Note_on_c, 0, 68, 0
2,38855, Note_on_c, 0, 76, 82
2,38871, Note_on_c, 0, 78, 0
2,38901, Note_on_c, 0, 58, 0
2,38912, Note_on_c, 0, 76, 0
2,38975, Note_on_c, 0, 48, 56
2,38987, Note_on_c, 0, 56, 72
2,39008, Note_on_c, 0, 76, 77
2,39015, Note_on_c, 0, 49, 0
2,39118, Note_on_c, 0, 77, 86
2,39142, Note_on_c, 0, 76, 0
2,39205, Note_on_c, 0, 55, 60
2,39223, Note_on_c, 0, 83, 85
2,39251, Note_on_c, 0, 77, 0
2,39263, Note_on_c, 0, 56, 0
2,39318, Note_on_c, 0, 53, 63
2,39321, Note_on_c, 0, 55, 0
2,39323, Note_on_c, 0, 84, 80
2,39326, Note_on_c, 0, 83, 0
2,39404, Note_on_c, 0, 84, 0
2,39459, Note_on_c, 0, 55, 60
2,39476, Note_on_c, 0, 77, 34
2,39489, Note_on_c, 0, 76, 54
2,39503, Note_on_c, 0, 77, 0
2,39543, Note_on_c, 0, 76, 0
2,39545, Note_on_c, 0, 77, 72
2,39569, Note_on_c, 0, 48, 0
2,39593, Note_on_c, 0, 76, 72
2,39599, Note_on_c, 0, 77, 0
2,39636, Note_on_c, 0, 53, 0
2,39678, Note_on_c, 0, 55, 0
2,39694, Note_on_c, 0, 58, 52
2,39839, Note_on_c, 0, 77, 75
2,39873, Note_on_c, 0, 76, 0
2,39883, Note_on_c, 0, 77, 0
2,39913, Note_on_c, 0, 58, 0
2,39948, Note_on_c, 0, 53, 31
2,39954, Note_on_c, 0, 56, 47
2,39971, Note_on_c, 0, 77, 73
2,40026, Note_on_c, 0, 53, 0
2,40075, Note_on_c, 0, 58, 51
2,40090, Note_on_c, 0, 56, 0
2,40161, Note_on_c, 0, 58, 0
2,40186, Note_on_c, 0, 60, 55
2,40272, Note_on_c, 0, 60, 0
2,40295, Note_on_c, 0, 56, 45
2,40386, Note_on_c, 0, 56, 0
2,40396, Note_on_c, 0, 77, 0
2,40412, Note_on_c, 0, 53, 51
2,40484, Note_on_c, 0, 53, 0
2,40523, Note_on_c, 0, 54, 55
2,40619, Note_on_c, 0, 54, 0
2,40652, Note_on_c, 0, 56, 52
2,40659, Note_on_c, 0, 77, 68
2,40687, Note_on_c, 0, 77, 0
2,40748, Note_on_c, 0, 56, 0
2,40766, Note_on_c, 0, 53, 49
2,40794, Note_on_c, 0, 53, 0
2,40895, Note_on_c, 0, 71, 52
2,40919, Note_on_c, 0, 50, 31
2,40974, Note_on_c, 0, 71, 0
2,40991, Note_on_c, 0, 50, 0
2,41002, Note_on_c, 0, 70, 59
2,41027, Note_on_c, 0, 51, 45
2,41105, Note_on_c, 0, 68, 69
2,41105, Note_on_c, 0, 70, 0
2,41122, Note_on_c, 0, 51, 0
2,41129, Note_on_c, 0, 53, 56
2,41203, Note_on_c, 0, 68, 0
2,41214, Note_on_c, 0, 53, 0
2,41217, Note_on_c, 0, 70, 76
2,41238, Note_on_c, 0, 50, 48
2,41320, Note_on_c, 0, 50, 0
2,41332, Note_on_c, 0, 46, 54
2,41341, Note_on_c, 0, 77, 77
2,41343, Note_on_c, 0, 70, 0
2,41366, Note_on_c, 0, 77, 0
2,41438, Note_on_c, 0, 46, 0
2,41459, Note_on_c, 0, 50, 57
2,41570, Note_on_c, 0, 50, 0
2,41576, Note_on_c, 0, 53, 49
2,41581, Note_on_c, 0, 74, 69
2,41610, Note_on_c, 0, 74, 0
2,41660, Note_on_c, 0, 53, 0
2,41689, Note_on_c, 0, 58, 54
2,41801, Note_on_c, 0, 58, 0
2,41803, Note_on_c, 0, 51, 45
2,41821, Note_on_c, 0, 68, 64
2,41936, Note_on_c, 0, 51, 0
2,41936, Note_on_c, 0, 54, 52
2,42042, Note_on_c, 0, 54, 0
2,42049, Note_on_c, 0, 58, 47
2,42060, Note_on_c, 0, 66, 63
2,42077, Note_on_c, 0, 68, 0
2,42116, Note_on_c, 0, 58, 0
2,42156, Note_on_c, 0, 62, 47
2,42171, Note_on_c, 0, 66, 0
2,42172, Note_on_c, 0, 65, 56
2,42250, Note_on_c, 0, 62, 0
2,42267, Note_on_c, 0, 65, 0
2,42285, Note_on_c, 0, 66, 66
2,42299, Note_on_c, 0, 63, 51
2,42311, Note_on_c, 0, 66, 0
2,42396, Note_on_c, 0, 63, 0
2,42405, Note_on_c, 0, 65, 49
2,42492, Note_on_c, 0, 65, 0
2,42518, Note_on_c, 0, 75, 64
2,42522, Note_on_c, 0, 66, 49
2,42555, Note_on_c, 0, 75, 0
2,42632, Note_on_c, 0, 63, 49
2,42632, Note_on_c, 0, 66, 0
2,42725, Note_on_c, 0, 63, 0
2,42748, Note_on_c, 0, 60, 44
2,42769, Note_on_c, 0, 69, 49
2,42842, Note_on_c, 0, 60, 0
2,42870, Note_on_c, 0, 69, 0
2,42880, Note_on_c, 0, 61, 48
2,42882, Note_on_c, 0, 68, 58
2,42973, Note_on_c, 0, 68, 0
2,42987, Note_on_c, 0, 66, 60
2,43008, Note_on_c, 0, 63, 44
2,43014, Note_on_c, 0, 61, 0
2,43095, Note_on_c, 0, 66, 0
2,43095, Note_on_c, 0, 68, 62
2,43105, Note_on_c, 0, 63, 0
2,43110, Note_on_c, 0, 60, 55
2,43136, Note_on_c, 0, 60, 0
2,43224, Note_on_c, 0, 75, 70
2,43230, Note_on_c, 0, 68, 0
2,43237, Note_on_c, 0, 56, 58
2,43255, Note_on_c, 0, 75, 0
2,43338, Note_on_c, 0, 44, 50
2,43453, Note_on_c, 0, 72, 70
2,43466, Note_on_c, 0, 46, 53
2,43482, Note_on_c, 0, 72, 0
2,43516, Note_on_c, 0, 44, 0
2,43562, Note_on_c, 0, 48, 60
2,43577, Note_on_c, 0, 46, 0
2,43604, Note_on_c, 0, 48, 0
2,43690, Note_on_c, 0, 66, 61
2,43712, Note_on_c, 0, 56, 0
2,43713, Note_on_c, 0, 49, 39
2,43820, Note_on_c, 0, 56, 57
2,43925, Note_on_c, 0, 66, 0
2,43938, Note_on_c, 0, 65, 56
2,43956, Note_on_c, 0, 58, 52
2,44032, Note_on_c, 0, 65, 0
2,44034, Note_on_c, 0, 58, 0
2,44037, Note_on_c, 0, 49, 0
2,44040, Note_on_c, 0, 60, 49
2,44040, Note_on_c, 0, 63, 65
2,44142, Note_on_c, 0, 63, 0
2,44163, Note_on_c, 0, 60, 0
2,44164, Note_on_c, 0, 65, 64
2,44181, Note_on_c, 0, 61, 53
2,44232, Note_on_c, 0, 56, 0
2,44264, Note_on_c, 0, 61, 0
2,44264, Note_on_c, 0, 65, 0
2,44276, Note_on_c, 0, 68, 68
2,44301, Note_on_c, 0, 51, 51
2,44384, Note_on_c, 0, 73, 78
2,44399, Note_on_c, 0, 53, 60
2,44407, Note_on_c, 0, 51, 0
2,44428, Note_on_c, 0, 68, 0
2,44505, Note_on_c, 0, 75, 82
2,44521, Note_on_c, 0, 55, 59
2,44527, Note_on_c, 0, 53, 0
2,44540, Note_on_c, 0, 73, 0
2,44626, Note_on_c, 0, 55, 0
2,44630, Note_on_c, 0, 77, 84
2,44634, Note_on_c, 0, 56, 61
2,44652, Note_on_c, 0, 75, 0
2,44748, Note_on_c, 0, 75, 92
2,44768, Note_on_c, 0, 55, 59
2,44780, Note_on_c, 0, 77, 0
2,44787, Note_on_c, 0, 56, 0
2,44852, Note_on_c, 0, 55, 0
2,44862, Note_on_c, 0, 73, 91
2,44871, Note_on_c, 0, 53, 60
2,44889, Note_on_c, 0, 75, 0
2,44970, Note_on_c, 0, 73, 0
2,44971, Note_on_c, 0, 75, 92
2,44973, Note_on_c, 0, 55, 67
2,45016, Note_on_c, 0, 53, 0
2,45017, Note_on_c, 0, 75, 0
2,45087, Note_on_c, 0, 56, 67
2,45095, Note_on_c, 0, 72, 75
2,45098, Note_on_c, 0, 84, 83
2,45107, Note_on_c, 0, 55, 0
2,45181, Note_on_c, 0, 84, 0
2,45184, Note_on_c, 0, 56, 0
2,45209, Note_on_c, 0, 55, 61
2,45337, Note_on_c, 0, 53, 68
2,45337, Note_on_c, 0, 80, 89
2,45355, Note_on_c, 0, 55, 0
2,45385, Note_on_c, 0, 80, 0
2,45426, Note_on_c, 0, 53, 0
2,45431, Note_on_c, 0, 51, 66
2,45587, Note_on_c, 0, 53, 58
2,45590, Note_on_c, 0, 75, 88
2,45618, Note_on_c, 0, 72, 0
2,45713, Note_on_c, 0, 51, 0
2,45823, Note_on_c, 0, 73, 80
2,45888, Note_on_c, 0, 75, 0
2,45925, Note_on_c, 0, 72, 84
2,45943, Note_on_c, 0, 73, 0
2,46055, Note_on_c, 0, 73, 89
2,46056, Note_on_c, 0, 70, 73
2,46087, Note_on_c, 0, 72, 0
2,46153, Note_on_c, 0, 73, 0
2,46178, Note_on_c, 0, 51, 58
2,46217, Note_on_c, 0, 53, 0
2,46278, Note_on_c, 0, 49, 60
2,46282, Note_on_c, 0, 51, 0
2,46282, Note_on_c, 0, 82, 85
2,46331, Note_on_c, 0, 82, 0
2,46392, Note_on_c, 0, 49, 0
2,46396, Note_on_c, 0, 70, 0
2,46398, Note_on_c, 0, 53, 62
2,46518, Note_on_c, 0, 72, 83
2,46521, Note_on_c, 0, 53, 0
2,46522, Note_on_c, 0, 51, 66
2,46555, Note_on_c, 0, 72, 0
2,46632, Note_on_c, 0, 49, 66
2,46637, Note_on_c, 0, 51, 0
2,46753, Note_on_c, 0, 49, 0
2,46756, Note_on_c, 0, 80, 83
2,46759, Note_on_c, 0, 48, 62
2,46759, Note_on_c, 0, 68, 81
2,46796, Note_on_c, 0, 68, 0
2,46808, Note_on_c, 0, 80, 0
2,46862, Note_on_c, 0, 48, 0
2,46878, Note_on_c, 0, 51, 64
2,46996, Note_on_c, 0, 70, 80
2,46998, Note_on_c, 0, 67, 70
2,47001, Note_on_c, 0, 49, 63
2,47025, Note_on_c, 0, 67, 0
2,47028, Note_on_c, 0, 51, 0
2,47047, Note_on_c, 0, 70, 0
2,47086, Note_on_c, 0, 49, 0
2,47104, Note_on_c, 0, 48, 56
2,47223, Note_on_c, 0, 48, 0
2,47231, Note_on_c, 0, 46, 63
2,47242, Note_on_c, 0, 70, 72
2,47248, Note_on_c, 0, 79, 67
2,47266, Note_on_c, 0, 79, 0
2,47272, Note_on_c, 0, 70, 0
2,47345, Note_on_c, 0, 46, 0
2,47346, Note_on_c, 0, 49, 43
2,47449, Note_on_c, 0, 48, 55
2,47461, Note_on_c, 0, 49, 0
2,47468, Note_on_c, 0, 63, 55
2,47468, Note_on_c, 0, 68, 64
2,47484, Note_on_c, 0, 48, 0
2,47490, Note_on_c, 0, 63, 0
2,47529, Note_on_c, 0, 68, 0
2,47572, Note_on_c, 0, 63, 62
2,47691, Note_on_c, 0, 63, 0
2,47706, Note_on_c, 0, 51, 75
2,47719, Note_on_c, 0, 65, 55
2,47751, Note_on_c, 0, 51, 0
2,47778, Note_on_c, 0, 65, 0
2,47839, Note_on_c, 0, 67, 45
2,47948, Note_on_c, 0, 54, 75
2,47950, Note_on_c, 0, 67, 0
2,47950, Note_on_c, 0, 68, 55
2,48040, Note_on_c, 0, 68, 0
2,48060, Note_on_c, 0, 70, 54
2,48169, Note_on_c, 0, 70, 0
2,48181, Note_on_c, 0, 56, 74
2,48183, Note_on_c, 0, 72, 61
2,48233, Note_on_c, 0, 56, 0
2,48259, Note_on_c, 0, 72, 0
2,48290, Note_on_c, 0, 68, 55
2,48427, Note_on_c, 0, 58, 63
2,48435, Note_on_c, 0, 68, 0
2,48448, Note_on_c, 0, 73, 59
2,48544, Note_on_c, 0, 56, 76
2,48556, Note_on_c, 0, 54, 0
2,48556, Note_on_c, 0, 72, 63
2,48566, Note_on_c, 0, 73, 0
2,48618, Note_on_c, 0, 58, 0
2,48661, Note_on_c, 0, 54, 81
2,48676, Note_on_c, 0, 56, 0
2,48676, Note_on_c, 0, 70, 72
2,48683, Note_on_c, 0, 72, 0
2,48770, Note_on_c, 0, 56, 81
2,48774, Note_on_c, 0, 72, 75
2,48782, Note_on_c, 0, 70, 0
2,48873, Note_on_c, 0, 54, 0
2,48875, Note_on_c, 0, 56, 0
2,48904, Note_on_c, 0, 65, 83
2,48911, Note_on_c, 0, 73, 74
2,48912, Note_on_c, 0, 53, 57
2,48924, Note_on_c, 0, 72, 0
2,48943, Note_on_c, 0, 65, 0
2,49034, Note_on_c, 0, 72, 73
2,49045, Note_on_c, 0, 73, 0
2,49159, Note_on_c, 0, 61, 77
2,49167, Note_on_c, 0, 70, 69
2,49171, Note_on_c, 0, 72, 0
2,49215, Note_on_c, 0, 61, 0
2,49266, Note_on_c, 0, 68, 71
2,49274, Note_on_c, 0, 70, 0
2,49414, Note_on_c, 0, 56, 69
2,49417, Note_on_c, 0, 70, 73
2,49424, Note_on_c, 0, 68, 0
2,49562, Note_on_c, 0, 53, 0
2,49670, Note_on_c, 0, 54, 67
2,49736, Note_on_c, 0, 56, 0
2,49764, Note_on_c, 0, 53, 71
2,49785, Note_on_c, 0, 54, 0
2,49867, Note_on_c, 0, 53, 0
2,49899, Note_on_c, 0, 51, 58
2,49903, Note_on_c, 0, 54, 74
2,49944, Note_on_c, 0, 54, 0
2,50018, Note_on_c, 0, 68, 65
2,50131, Note_on_c, 0, 63, 73
2,50147, Note_on_c, 0, 70, 0
2,50151, Note_on_c, 0, 66, 66
2,50152, Note_on_c, 0, 68, 0
2,50187, Note_on_c, 0, 63, 0
2,50247, Note_on_c, 0, 70, 69
2,50260, Note_on_c, 0, 66, 0
2,50374, Note_on_c, 0, 53, 76
2,50387, Note_on_c, 0, 68, 70
2,50391, Note_on_c, 0, 51, 0
2,50416, Note_on_c, 0, 53, 0
2,50426, Note_on_c, 0, 70, 0
2,50492, Note_on_c, 0, 66, 71
2,50504, Note_on_c, 0, 68, 0
2,50598, Note_on_c, 0, 66, 0
2,50619, Note_on_c, 0, 65, 65
2,50620, Note_on_c, 0, 61, 79
2,50623, Note_on_c, 0, 49, 70
2,50663, Note_on_c, 0, 61, 0
2,50666, Note_on_c, 0, 49, 0
2,50729, Note_on_c, 0, 68, 63
2,50730, Note_on_c, 0, 65, 0
2,50857, Note_on_c, 0, 51, 78
2,50875, Note_on_c, 0, 66, 70
2,50922, Note_on_c, 0, 51, 0
2,50936, Note_on_c, 0, 68, 0
2,50971, Note_on_c, 0, 65, 70
2,51028, Note_on_c, 0, 66, 0
2,51097, Note_on_c, 0, 44, 71
2,51099, Note_on_c, 0, 63, 67
2,51102, Note_on_c, 0, 60, 59
2,51105, Note_on_c, 0, 65, 0
2,51138, Note_on_c, 0, 44, 0
2,51180, Note_on_c, 0, 60, 0
2,51210, Note_on_c, 0, 66, 64
2,51212, Note_on_c, 0, 63, 0
2,51300, Note_on_c, 0, 66, 0
2,51324, Note_on_c, 0, 49, 48
2,51330, Note_on_c, 0, 65, 61
2,51341, Note_on_c, 0, 61, 46
2,51369, Note_on_c, 0, 65, 0
2,51413, Note_on_c, 0, 49, 0
2,51454, Note_on_c, 0, 51, 43
2,51534, Note_on_c, 0, 51, 0
2,51564, Note_on_c, 0, 53, 47
2,51572, Note_on_c, 0, 68, 60
2,51605, Note_on_c, 0, 68, 0
2,51654, Note_on_c, 0, 53, 0
2,51687, Note_on_c, 0, 54, 49
2,51787, Note_on_c, 0, 61, 0
2,51799, Note_on_c, 0, 54, 0
2,51802, Note_on_c, 0, 73, 65
2,51805, Note_on_c, 0, 53, 51
2,51836, Control_c, 0, 64, 13
2,51850, Control_c, 0, 64, 38
2,51865, Control_c, 0, 64, 49
2,51867, Note_on_c, 0, 73, 0
2,51881, Control_c, 0, 64, 55
2,51895, Control_c, 0, 64, 59
2,51911, Control_c, 0, 64, 62
2,51916, Note_on_c, 0, 53, 0
2,51922, Note_on_c, 0, 51, 44
2,51926, Control_c, 0, 64, 64
2,51941, Control_c, 0, 64, 66
2,51957, Control_c, 0, 64, 68
2,51972, Control_c, 0, 64, 70
2,51986, Control_c, 0, 64, 72
2,52002, Control_c, 0, 64, 73
2,52044, Note_on_c, 0, 49, 43
2,52054, Note_on_c, 0, 80, 55
2,52056, Note_on_c, 0, 51, 0
2,52104, Note_on_c, 0, 49, 0
2,52140, Control_c, 0, 64, 72
2,52142, Note_on_c, 0, 77, 59
2,52163, Control_c, 0, 64, 71
2,52164, Note_on_c, 0, 53, 45
2,52178, Control_c, 0, 64, 70
2,52194, Control_c, 0, 64, 67
2,52201, Note_on_c, 0, 80, 0
2,52208, Control_c, 0, 64, 65
2,52223, Control_c, 0, 64, 62
2,52239, Control_c, 0, 64, 59
2,52246, Note_on_c, 0, 53, 0
2,52254, Control_c, 0, 64, 55
2,52270, Control_c, 0, 64, 47
2,52270, Note_on_c, 0, 77, 0
2,52278, Note_on_c, 0, 73, 60
2,52282, Note_on_c, 0, 58, 53
2,52284, Control_c, 0, 64, 27
2,52299, Control_c, 0, 64, 0
2,52316, Note_on_c, 0, 73, 0
2,52385, Note_on_c, 0, 56, 59
2,52397, Note_on_c, 0, 58, 0
2,52498, Note_on_c, 0, 56, 0
2,52503, Note_on_c, 0, 55, 53
2,52517, Note_on_c, 0, 76, 69
2,52613, Note_on_c, 0, 73, 74
2,52619, Note_on_c, 0, 58, 63
2,52635, Note_on_c, 0, 76, 0
2,52642, Note_on_c, 0, 55, 0
2,52730, Note_on_c, 0, 58, 0
2,52737, Note_on_c, 0, 61, 62
2,52739, Note_on_c, 0, 70, 74
2,52755, Note_on_c, 0, 73, 0
2,52787, Note_on_c, 0, 70, 0
2,52837, Note_on_c, 0, 61, 0
2,52847, Note_on_c, 0, 59, 62
2,52964, Note_on_c, 0, 59, 0
2,52980, Note_on_c, 0, 58, 60
2,52993, Note_on_c, 0, 73, 75
2,53081, Note_on_c, 0, 70, 68
2,53091, Note_on_c, 0, 61, 69
2,53118, Note_on_c, 0, 73, 0
2,53134, Note_on_c, 0, 58, 0
2,53242, Note_on_c, 0, 67, 67
2,53245, Note_on_c, 0, 64, 66
2,53284, Note_on_c, 0, 61, 0
2,53293, Note_on_c, 0, 70, 0
2,53491, Note_on_c, 0, 70, 67
2,53493, Note_on_c, 0, 63, 63
2,53502, Note_on_c, 0, 64, 0
2,53581, Note_on_c, 0, 73, 80
2,53601, Note_on_c, 0, 61, 66
2,53626, Note_on_c, 0, 70, 0
2,53641, Note_on_c, 0, 63, 0
2,53656, Note_on_c, 0, 67, 0
2,53703, Note_on_c, 0, 61, 0
2,53720, Note_on_c, 0, 59, 66
2,53722, Note_on_c, 0, 76, 75
2,53759, Note_on_c, 0, 73, 0
2,53840, Note_on_c, 0, 58, 67
2,53844, Note_on_c, 0, 59, 0
2,53949, Note_on_c, 0, 56, 59
2,53966, Note_on_c, 0, 58, 0
2,53971, Note_on_c, 0, 73, 79
2,54001, Note_on_c, 0, 76, 0
2,54059, Note_on_c, 0, 56, 0
2,54069, Note_on_c, 0, 55, 58
2,54178, Note_on_c, 0, 55, 0
2,54186, Note_on_c, 0, 73, 0
2,54187, Note_on_c, 0, 56, 63
2,54195, Note_on_c, 0, 75, 78
2,54201, Note_on_c, 0, 71, 71
2,54226, Note_on_c, 0, 75, 0
2,54290, Note_on_c, 0, 56, 0
2,54320, Note_on_c, 0, 59, 58
2,54425, Note_on_c, 0, 59, 0
2,54438, Note_on_c, 0, 58, 65
2,54440, Note_on_c, 0, 80, 70
2,54504, Note_on_c, 0, 80, 0
2,54571, Note_on_c, 0, 56, 61
2,54589, Note_on_c, 0, 58, 0
2,54663, Note_on_c, 0, 56, 0
2,54672, Note_on_c, 0, 70, 73
2,54675, Note_on_c, 0, 73, 75
2,54688, Note_on_c, 0, 71, 0
2,54694, Note_on_c, 0, 55, 60
2,54745, Note_on_c, 0, 73, 0
2,54793, Note_on_c, 0, 55, 0
2,54804, Note_on_c, 0, 53, 59
2,54908, Note_on_c, 0, 53, 0
2,54920, Note_on_c, 0, 79, 69
2,54922, Note_on_c, 0, 51, 60
2,54955, Note_on_c, 0, 79, 0
2,55023, Note_on_c, 0, 51, 0
2,55034, Note_on_c, 0, 49, 57
2,55145, Note_on_c, 0, 49, 0
2,55166, Note_on_c, 0, 68, 65
2,55171, Note_on_c, 0, 70, 0
2,55176, Note_on_c, 0, 47, 48
2,55262, Control_c, 0, 64, 25
2,55268, Note_on_c, 0, 47, 0
2,55277, Note_on_c, 0, 68, 0
2,55278, Control_c, 0, 64, 47
2,55290, Note_on_c, 0, 49, 55
2,55293, Control_c, 0, 64, 55
2,55308, Control_c, 0, 64, 60
2,55324, Control_c, 0, 64, 64
2,55338, Control_c, 0, 64, 67
2,55353, Control_c, 0, 64, 72
2,55369, Control_c, 0, 64, 79
2,55384, Control_c, 0, 64, 86
2,55400, Control_c, 0, 64, 91
2,55408, Note_on_c, 0, 51, 63
2,55415, Control_c, 0, 64, 94
2,55426, Note_on_c, 0, 80, 66
2,55430, Control_c, 0, 64, 95
2,55432, Note_on_c, 0, 49, 0
2,55446, Control_c, 0, 64, 96
2,55492, Note_on_c, 0, 51, 0
2,55508, Note_on_c, 0, 47, 52
2,55523, Note_on_c, 0, 80, 0
2,55525, Note_on_c, 0, 79, 70
2,55552, Control_c, 0, 64, 95
2,55568, Control_c, 0, 64, 91
2,55582, Control_c, 0, 64, 83
2,55598, Control_c, 0, 64, 69
2,55610, Note_on_c, 0, 47, 0
2,55613, Control_c, 0, 64, 55
2,55628, Control_c, 0, 64, 0
2,55638, Note_on_c, 0, 44, 60
2,55645, Note_on_c, 0, 79, 0
2,55654, Note_on_c, 0, 80, 68
2,55667, Note_on_c, 0, 44, 0
2,55733, Note_on_c, 0, 80, 0
2,55750, Note_on_c, 0, 82, 63
2,55870, Note_on_c, 0, 56, 48
2,55875, Note_on_c, 0, 83, 60
2,55880, Note_on_c, 0, 82, 0
2,55938, Note_on_c, 0, 56, 0
2,55952, Note_on_c, 0, 83, 0
2,55988, Note_on_c, 0, 53, 45
2,55988, Note_on_c, 0, 80, 51
2,56064, Note_on_c, 0, 80, 0
2,56099, Note_on_c, 0, 49, 62
2,56108, Note_on_c, 0, 77, 52
2,56115, Note_on_c, 0, 53, 0
2,56132, Note_on_c, 0, 49, 0
2,56194, Note_on_c, 0, 77, 0
2,56207, Note_on_c, 0, 78, 59
2,56320, Note_on_c, 0, 78, 0
2,56332, Note_on_c, 0, 80, 61
2,56338, Note_on_c, 0, 59, 59
2,56415, Note_on_c, 0, 80, 0
2,56432, Note_on_c, 0, 77, 67
2,56441, Note_on_c, 0, 56, 55
2,56500, Note_on_c, 0, 59, 0
2,56548, Note_on_c, 0, 77, 0
2,56563, Note_on_c, 0, 73, 64
2,56572, Note_on_c, 0, 53, 61
2,56583, Note_on_c, 0, 56, 0
2,56601, Note_on_c, 0, 53, 0
2,56651, Note_on_c, 0, 73, 0
2,56663, Note_on_c, 0, 75, 63
2,56773, Note_on_c, 0, 75, 0
2,56803, Note_on_c, 0, 77, 55
2,56833, Note_on_c, 0, 49, 25
2,56890, Note_on_c, 0, 49, 0
2,56901, Note_on_c, 0, 73, 58
2,56911, Note_on_c, 0, 77, 0
2,56927, Note_on_c, 0, 46, 45
2,57020, Note_on_c, 0, 73, 0
2,57029, Note_on_c, 0, 42, 55
2,57031, Note_on_c, 0, 70, 58
2,57051, Note_on_c, 0, 46, 0
2,57063, Note_on_c, 0, 42, 0
2,57127, Note_on_c, 0, 70, 0
2,57145, Note_on_c, 0, 72, 58
2,57270, Note_on_c, 0, 72, 0
2,57270, Note_on_c, 0, 73, 69
2,57272, Note_on_c, 0, 58, 52
2,57366, Note_on_c, 0, 73, 0
2,57373, Note_on_c, 0, 70, 68
2,57379, Note_on_c, 0, 54, 53
2,57384, Note_on_c, 0, 58, 0
2,57496, Note_on_c, 0, 78, 67
2,57502, Note_on_c, 0, 51, 58
2,57513, Note_on_c, 0, 70, 0
2,57537, Note_on_c, 0, 54, 0
2,57544, Note_on_c, 0, 51, 0
2,57603, Note_on_c, 0, 78, 0
2,57608, Note_on_c, 0, 80, 71
2,57729, Note_on_c, 0, 82, 68
2,57730, Note_on_c, 0, 80, 0
2,57744, Note_on_c, 0, 54, 39
2,57799, Note_on_c, 0, 54, 0
2,57827, Note_on_c, 0, 82, 0
2,57846, Note_on_c, 0, 51, 51
2,57847, Note_on_c, 0, 78, 63
2,57965, Note_on_c, 0, 48, 57
2,57981, Note_on_c, 0, 75, 62
2,57982, Note_on_c, 0, 78, 0
2,57998, Note_on_c, 0, 48, 0
2,58001, Note_on_c, 0, 51, 0
2,58080, Note_on_c, 0, 75, 0
2,58086, Note_on_c, 0, 77, 67
2,58197, Note_on_c, 0, 78, 73
2,58207, Note_on_c, 0, 58, 50
2,58207, Note_on_c, 0, 77, 0
2,58307, Note_on_c, 0, 78, 0
2,58313, Note_on_c, 0, 75, 65
2,58320, Note_on_c, 0, 54, 57
2,58326, Note_on_c, 0, 58, 0
2,58414, Note_on_c, 0, 75, 0
2,58437, Note_on_c, 0, 51, 60
2,58439, Note_on_c, 0, 72, 63
2,58457, Note_on_c, 0, 54, 0
2,58474, Note_on_c, 0, 51, 0
2,58540, Note_on_c, 0, 72, 0
2,58552, Note_on_c, 0, 73, 68
2,58653, Note_on_c, 0, 73, 0
2,58670, Note_on_c, 0, 75, 59
2,58691, Note_on_c, 0, 48, 50
2,58737, Note_on_c, 0, 48, 0
2,58744, Note_on_c, 0, 75, 0
2,58761, Note_on_c, 0, 72, 62
2,58788, Note_on_c, 0, 44, 47
2,58870, Note_on_c, 0, 72, 0
2,58890, Note_on_c, 0, 68, 58
2,58906, Note_on_c, 0, 41, 45
2,58921, Note_on_c, 0, 44, 0
2,58937, Note_on_c, 0, 41, 0
2,58998, Note_on_c, 0, 68, 0
2,59006, Note_on_c, 0, 70, 64
2,59132, Note_on_c, 0, 56, 46
2,59135, Note_on_c, 0, 70, 0
2,59147, Note_on_c, 0, 72, 61
2,59193, Note_on_c, 0, 56, 0
2,59212, Note_on_c, 0, 72, 0
2,59239, Note_on_c, 0, 53, 55
2,59248, Note_on_c, 0, 68, 62
2,59347, Note_on_c, 0, 68, 0
2,59352, Note_on_c, 0, 50, 49
2,59373, Note_on_c, 0, 77, 62
2,59379, Note_on_c, 0, 53, 0
2,59392, Note_on_c, 0, 50, 0
2,59481, Note_on_c, 0, 77, 0
2,59483, Note_on_c, 0, 78, 71
2,59598, Note_on_c, 0, 80, 67
2,59602, Note_on_c, 0, 53, 42
2,59624, Note_on_c, 0, 78, 0
2,59663, Note_on_c, 0, 53, 0
2,59691, Note_on_c, 0, 77, 62
2,59699, Note_on_c, 0, 80, 0
2,59713, Note_on_c, 0, 50, 47
2,59814, Note_on_c, 0, 77, 0
2,59820, Note_on_c, 0, 46, 56
2,59833, Note_on_c, 0, 74, 62
2,59839, Note_on_c, 0, 50, 0
2,59859, Note_on_c, 0, 46, 0
2,59928, Note_on_c, 0, 74, 0
2,59930, Note_on_c, 0, 75, 67
2,60054, Note_on_c, 0, 77, 71
2,60055, Note_on_c, 0, 75, 0
2,60058, Note_on_c, 0, 56, 50
2,60132, Note_on_c, 0, 56, 0
2,60143, Note_on_c, 0, 77, 0
2,60162, Note_on_c, 0, 74, 70
2,60168, Note_on_c, 0, 53, 58
2,60275, Note_on_c, 0, 74, 0
2,60280, Note_on_c, 0, 50, 65
2,60287, Note_on_c, 0, 70, 65
2,60300, Note_on_c, 0, 53, 0
2,60316, Note_on_c, 0, 50, 0
2,60380, Note_on_c, 0, 70, 0
2,60395, Note_on_c, 0, 72, 62
2,60502, Note_on_c, 0, 72, 0
2,60514, Note_on_c, 0, 74, 58
2,60517, Note_on_c, 0, 46, 43
2,60567, Note_on_c, 0, 46, 0
2,60612, Note_on_c, 0, 74, 0
2,60619, Note_on_c, 0, 42, 47
2,60627, Note_on_c, 0, 70, 62
2,60746, Note_on_c, 0, 39, 57
2,60746, Note_on_c, 0, 70, 0
2,60750, Note_on_c, 0, 66, 65
2,60773, Note_on_c, 0, 42, 0
2,60779, Note_on_c, 0, 39, 0
2,60850, Note_on_c, 0, 66, 0
2,60859, Note_on_c, 0, 68, 66
2,60978, Note_on_c, 0, 54, 55
2,60980, Note_on_c, 0, 70, 69
2,60982, Note_on_c, 0, 68, 0
2,61076, Note_on_c, 0, 70, 0
2,61083, Note_on_c, 0, 66, 74
2,61090, Note_on_c, 0, 51, 61
2,61097, Note_on_c, 0, 54, 0
2,61211, Note_on_c, 0, 75, 68
2,61212, Note_on_c, 0, 66, 0
2,61216, Note_on_c, 0, 48, 65
2,61242, Note_on_c, 0, 51, 0
2,61243, Note_on_c, 0, 48, 0
2,61319, Note_on_c, 0, 75, 0
2,61321, Note_on_c, 0, 77, 74
2,61448, Note_on_c, 0, 78, 77
2,61450, Note_on_c, 0, 51, 46
2,61452, Note_on_c, 0, 77, 0
2,61545, Note_on_c, 0, 48, 59
2,61553, Note_on_c, 0, 75, 77
2,61554, Note_on_c, 0, 51, 0
2,61574, Note_on_c, 0, 78, 0
2,61666, Note_on_c, 0, 72, 77
2,61670, Note_on_c, 0, 44, 69
2,61677, Note_on_c, 0, 75, 0
2,61688, Note_on_c, 0, 48, 0
2,61705, Note_on_c, 0, 44, 0
2,61771, Note_on_c, 0, 73, 80
2,61782, Note_on_c, 0, 72, 0
2,61895, Note_on_c, 0, 54, 65
2,61897, Note_on_c, 0, 75, 77
2,61905, Note_on_c, 0, 73, 0
2,61987, Note_on_c, 0, 54, 0
2,62001, Note_on_c, 0, 72, 77
2,62003, Note_on_c, 0, 75, 0
2,62005, Note_on_c, 0, 51, 67
2,62128, Note_on_c, 0, 48, 74
2,62141, Note_on_c, 0, 68, 79
2,62146, Note_on_c, 0, 72, 0
2,62171, Note_on_c, 0, 51, 0
2,62176, Note_on_c, 0, 48, 0
2,62248, Note_on_c, 0, 70, 76
2,62273, Note_on_c, 0, 68, 0
2,62366, Note_on_c, 0, 44, 65
2,62373, Note_on_c, 0, 72, 75
2,62394, Note_on_c, 0, 70, 0
2,62478, Note_on_c, 0, 41, 72
2,62483, Note_on_c, 0, 68, 79
2,62512, Note_on_c, 0, 72, 0
2,62514, Note_on_c, 0, 44, 0
2,62633, Note_on_c, 0, 37, 63
2,62634, Note_on_c, 0, 65, 77
2,62659, Note_on_c, 0, 68, 0
2,62702, Note_on_c, 0, 41, 0
2,62762, Note_on_c, 0, 66, 78
2,62798, Note_on_c, 0, 65, 0
2,62878, Note_on_c, 0, 68, 77
2,62920, Note_on_c, 0, 66, 0
2,62987, Note_on_c, 0, 68, 0
2,62994, Note_on_c, 0, 65, 81
2,63117, Note_on_c, 0, 61, 73
2,63120, Note_on_c, 0, 65, 0
2,63225, Note_on_c, 0, 65, 80
2,63228, Note_on_c, 0, 61, 0
2,63337, Note_on_c, 0, 37, 0
2,63342, Note_on_c, 0, 68, 76
2,63372, Note_on_c, 0, 65, 0
2,63453, Note_on_c, 0, 70, 82
2,63488, Note_on_c, 0, 68, 0
2,63565, Note_on_c, 0, 71, 84
2,63585, Note_on_c, 0, 70, 0
2,63687, Note_on_c, 0, 70, 85
2,63710, Note_on_c, 0, 71, 0
2,63807, Note_on_c, 0, 68, 81
2,63808, Note_on_c, 0, 59, 62
2,63813, Note_on_c, 0, 70, 0
2,63898, Note_on_c, 0, 59, 0
2,63908, Note_on_c, 0, 70, 83
2,63925, Note_on_c, 0, 49, 61
2,63936, Note_on_c, 0, 68, 0
2,64016, Note_on_c, 0, 49, 0
2,64032, Note_on_c, 0, 70, 0
2,64035, Note_on_c, 0, 78, 81
2,64045, Note_on_c, 0, 58, 68
2,64059, Note_on_c, 0, 78, 0
2,64124, Note_on_c, 0, 58, 0
2,64147, Note_on_c, 0, 49, 57
2,64231, Note_on_c, 0, 49, 0
2,64259, Note_on_c, 0, 56, 61
2,64261, Note_on_c, 0, 73, 85
2,64291, Note_on_c, 0, 73, 0
2,64351, Note_on_c, 0, 56, 0
2,64370, Note_on_c, 0, 49, 58
2,64493, Note_on_c, 0, 49, 0
2,64497, Note_on_c, 0, 70, 78
2,64516, Note_on_c, 0, 54, 52
2,64642, Note_on_c, 0, 49, 45
2,64717, Note_on_c, 0, 54, 0
2,64728, Note_on_c, 0, 68, 70
2,64732, Note_on_c, 0, 49, 0
2,64744, Note_on_c, 0, 53, 50
2,64791, Note_on_c, 0, 70, 0
2,64836, Note_on_c, 0, 66, 65
2,64837, Note_on_c, 0, 68, 0
2,64842, Note_on_c, 0, 53, 0
2,64845, Note_on_c, 0, 51, 56
2,64901, Note_on_c, 0, 51, 0
2,64951, Note_on_c, 0, 68, 68
2,64955, Note_on_c, 0, 66, 0
2,64958, Note_on_c, 0, 53, 68
2,64988, Note_on_c, 0, 53, 0
2,65057, Note_on_c, 0, 68, 0
2,65062, Note_on_c, 0, 61, 62
2,65165, Note_on_c, 0, 61, 0
2,65175, Note_on_c, 0, 44, 58
2,65195, Note_on_c, 0, 65, 61
2,65221, Note_on_c, 0, 44, 0
2,65304, Note_on_c, 0, 65, 0
2,65315, Note_on_c, 0, 68, 60
2,65413, Note_on_c, 0, 68, 0
2,65423, Note_on_c, 0, 70, 64
2,65532, Note_on_c, 0, 68, 67
2,65537, Note_on_c, 0, 70, 0
2,65635, Note_on_c, 0, 68, 0
2,65647, Note_on_c, 0, 58, 54
2,65649, Note_on_c, 0, 66, 64
2,65729, Note_on_c, 0, 58, 0
2,65751, Note_on_c, 0, 68, 68
2,65759, Note_on_c, 0, 66, 0
2,65764, Note_on_c, 0, 49, 50
2,65843, Note_on_c, 0, 68, 0
2,65855, Note_on_c, 0, 49, 0
2,65869, Note_on_c, 0, 77, 71
2,65884, Note_on_c, 0, 56, 60
2,65896, Note_on_c, 0, 77, 0
2,65954, Note_on_c, 0, 56, 0
2,65997, Note_on_c, 0, 49, 51
2,66081, Note_on_c, 0, 49, 0
2,66096, Note_on_c, 0, 73, 75
2,66115, Note_on_c, 0, 54, 54
2,66126, Note_on_c, 0, 73, 0
2,66205, Note_on_c, 0, 54, 0
2,66219, Note_on_c, 0, 49, 49
2,66329, Note_on_c, 0, 49, 0
2,66338, Note_on_c, 0, 68, 64
2,66354, Note_on_c, 0, 53, 48
2,66463, Note_on_c, 0, 53, 0
2,66476, Note_on_c, 0, 49, 52
2,66564, Note_on_c, 0, 49, 0
2,66581, Note_on_c, 0, 66, 59
2,66598, Note_on_c, 0, 51, 47
2,66611, Note_on_c, 0, 68, 0
2,66673, Note_on_c, 0, 66, 0
2,66683, Note_on_c, 0, 65, 52
2,66684, Note_on_c, 0, 51, 0
2,66707, Note_on_c, 0, 49, 37
2,66746, Note_on_c, 0, 49, 0
2,66806, Note_on_c, 0, 65, 0
2,66812, Note_on_c, 0, 51, 66
2,66818, Note_on_c, 0, 66, 58
2,66842, Note_on_c, 0, 51, 0
2,66913, Note_on_c, 0, 66, 0
2,66934, Note_on_c, 0, 60, 54
2,67044, Note_on_c, 0, 60, 0
2,67047, Note_on_c, 0, 44, 49
2,67065, Note_on_c, 0, 63, 52
2,67083, Note_on_c, 0, 44, 0
2,67159, Note_on_c, 0, 63, 0
2,67168, Note_on_c, 0, 66, 58
2,67280, Note_on_c, 0, 66, 0
2,67292, Note_on_c, 0, 68, 54
2,67393, Note_on_c, 0, 68, 0
2,67403, Note_on_c, 0, 66, 62
2,67520, Note_on_c, 0, 56, 44
2,67521, Note_on_c, 0, 66, 0
2,67529, Note_on_c, 0, 65, 59
2,67591, Note_on_c, 0, 56, 0
2,67631, Note_on_c, 0, 65, 0
2,67643, Note_on_c, 0, 66, 62
2,67644, Note_on_c, 0, 44, 46
2,67738, Note_on_c, 0, 44, 0
2,67741, Note_on_c, 0, 66, 0
2,67754, Note_on_c, 0, 75, 61
2,67772, Note_on_c, 0, 54, 51
2,67777, Note_on_c, 0, 75, 0
2,67844, Note_on_c, 0, 54, 0
2,67872, Note_on_c, 0, 44, 46
2,67951, Note_on_c, 0, 44, 0
2,67980, Note_on_c, 0, 72, 62
2,67986, Note_on_c, 0, 53, 49
2,68012, Note_on_c, 0, 72, 0
2,68080, Note_on_c, 0, 53, 0
2,68097, Note_on_c, 0, 44, 47
2,68166, Note_on_c, 0, 44, 0
2,68218, Note_on_c, 0, 66, 57
2,68241, Note_on_c, 0, 51, 41
2,68335, Note_on_c, 0, 44, 38
2,68463, Note_on_c, 0, 44, 0
2,68463, Note_on_c, 0, 66, 0
2,68478, Note_on_c, 0, 65, 54
2,68503, Note_on_c, 0, 49, 46
2,68546, Note_on_c, 0, 51, 0
2,68566, Note_on_c, 0, 65, 0
2,68580, Note_on_c, 0, 63, 58
2,68587, Note_on_c, 0, 49, 0
2,68607, Note_on_c, 0, 48, 47
2,68677, Note_on_c, 0, 63, 0
2,68681, Note_on_c, 0, 48, 0
2,68698, Note_on_c, 0, 65, 61
2,68718, Note_on_c, 0, 49, 51
2,68798, Note_on_c, 0, 65, 0
2,68807, Note_on_c, 0, 44, 49
2,68807, Note_on_c, 0, 68, 63
2,68888, Note_on_c, 0, 44, 0
2,68909, Note_on_c, 0, 49, 0
2,68926, Note_on_c, 0, 70, 69
2,68934, Note_on_c, 0, 53, 53
2,68944, Note_on_c, 0, 68, 0
2,69018, Note_on_c, 0, 53, 0
2,69033, Note_on_c, 0, 51, 58
2,69038, Note_on_c, 0, 70, 0
2,69039, Note_on_c, 0, 72, 69
2,69154, Note_on_c, 0, 73, 79
2,69157, Note_on_c, 0, 53, 58
2,69174, Note_on_c, 0, 72, 0
2,69185, Note_on_c, 0, 51, 0
2,69243, Note_on_c, 0, 53, 0
2,69256, Note_on_c, 0, 44, 61
2,69258, Note_on_c, 0, 75, 78
2,69297, Note_on_c, 0, 73, 0
2,69368, Note_on_c, 0, 44, 0
2,69383, Note_on_c, 0, 56, 65
2,69387, Note_on_c, 0, 77, 78
2,69414, Note_on_c, 0, 75, 0
2,69479, Note_on_c, 0, 54, 67
2,69498, Note_on_c, 0, 75, 85
2,69508, Note_on_c, 0, 56, 0
2,69512, Note_on_c, 0, 77, 0
2,69610, Note_on_c, 0, 75, 0
2,69616, Note_on_c, 0, 78, 81
2,69618, Note_on_c, 0, 54, 0
2,69621, Note_on_c, 0, 56, 72
2,69636, Control_c, 0, 64, 22
2,69651, Control_c, 0, 64, 48
2,69665, Control_c, 0, 64, 54
2,69681, Control_c, 0, 64, 58
2,69696, Control_c, 0, 64, 62
2,69711, Control_c, 0, 64, 64
2,69717, Note_on_c, 0, 44, 60
2,69719, Note_on_c, 0, 77, 82
2,69726, Control_c, 0, 64, 68
2,69741, Control_c, 0, 64, 68
2,69748, Note_on_c, 0, 78, 0
2,69757, Control_c, 0, 64, 64
2,69760, Note_on_c, 0, 56, 0
2,69772, Control_c, 0, 64, 37
2,69786, Control_c, 0, 64, 0
2,69802, Control_c, 0, 64, 25
2,69825, Control_c, 0, 64, 45
2,69825, Note_on_c, 0, 44, 0
2,69841, Control_c, 0, 64, 56
2,69845, Note_on_c, 0, 75, 82
2,69856, Control_c, 0, 64, 62
2,69859, Note_on_c, 0, 77, 0
2,69863, Note_on_c, 0, 58, 69
2,69871, Control_c, 0, 64, 66
2,69886, Control_c, 0, 64, 69
2,69901, Control_c, 0, 64, 73
2,69907, Note_on_c, 0, 58, 0
2,69916, Control_c, 0, 64, 77
2,69931, Control_c, 0, 64, 82
2,69939, Note_on_c, 0, 75, 0
2,69946, Control_c, 0, 64, 87
2,69948, Note_on_c, 0, 73, 80
2,69954, Note_on_c, 0, 44, 68
2,69962, Control_c, 0, 64, 90
2,69977, Control_c, 0, 64, 92
2,69985, Note_on_c, 0, 44, 0
2,70007, Control_c, 0, 64, 93
2,70053, Note_on_c, 0, 73, 0
2,70092, Note_on_c, 0, 60, 59
2,70134, Note_on_c, 0, 82, 49
2,70181, Note_on_c, 0, 82, 0
2,70188, Note_on_c, 0, 80, 60
2,70206, Control_c, 0, 64, 92
2,70221, Control_c, 0, 64, 90
2,70223, Note_on_c, 0, 80, 0
2,70233, Note_on_c, 0, 61, 67
2,70236, Control_c, 0, 64, 87
2,70238, Note_on_c, 0, 78, 61
2,70251, Control_c, 0, 64, 83
2,70260, Note_on_c, 0, 60, 0
2,70266, Control_c, 0, 64, 80
2,70282, Control_c, 0, 64, 77
2,70288, Note_on_c, 0, 80, 76
2,70293, Note_on_c, 0, 78, 0
2,70297, Control_c, 0, 64, 73
2,70313, Control_c, 0, 64, 69
2,70328, Control_c, 0, 64, 66
2,70334, Note_on_c, 0, 63, 67
2,70336, Note_on_c, 0, 80, 0
2,70343, Control_c, 0, 64, 63
2,70346, Note_on_c, 0, 82, 74
2,70358, Control_c, 0, 64, 55
2,70365, Note_on_c, 0, 61, 0
2,70373, Control_c, 0, 64, 35
2,70388, Control_c, 0, 64, 0
2,70398, Note_on_c, 0, 82, 0
2,70404, Note_on_c, 0, 80, 74
2,70442, Note_on_c, 0, 60, 61
2,70463, Note_on_c, 0, 80, 0
2,70464, Note_on_c, 0, 82, 74
2,70488, Note_on_c, 0, 63, 0
2,70508, Note_on_c, 0, 80, 62
2,70512, Note_on_c, 0, 82, 0
2,70543, Note_on_c, 0, 56, 68
2,70545, Note_on_c, 0, 60, 0
2,70563, Note_on_c, 0, 80, 0
2,70566, Note_on_c, 0, 82, 72
2,70622, Note_on_c, 0, 80, 66
2,70632, Note_on_c, 0, 82, 0
2,70669, Note_on_c, 0, 60, 73
2,70701, Note_on_c, 0, 56, 0
2,70793, Note_on_c, 0, 63, 81
2,70814, Note_on_c, 0, 60, 0
2,70906, Note_on_c, 0, 65, 84
2,70916, Note_on_c, 0, 63, 0
2,71024, Note_on_c, 0, 66, 76
2,71041, Note_on_c, 0, 65, 0
2,71071, Note_on_c, 0, 80, 0
2,71142, Note_on_c, 0, 65, 76
2,71151, Note_on_c, 0, 80, 68
2,71181, Note_on_c, 0, 66, 0
2,71254, Note_on_c, 0, 63, 75
2,71269, Note_on_c, 0, 78, 73
2,71273, Note_on_c, 0, 65, 0
2,71273, Note_on_c, 0, 80, 0
2,71373, Note_on_c, 0, 65, 82
2,71385, Note_on_c, 0, 78, 0
2,71392, Note_on_c, 0, 80, 74
2,71404, Note_on_c, 0, 63, 0
2,71499, Note_on_c, 0, 65, 0
2,71508, Note_on_c, 0, 73, 86
2,71509, Note_on_c, 0, 80, 0
2,71521, Note_on_c, 0, 77, 74
2,71532, Note_on_c, 0, 73, 0
2,71618, Note_on_c, 0, 77, 0
2,71624, Note_on_c, 0, 80, 68
2,71738, Note_on_c, 0, 80, 0
2,71742, Note_on_c, 0, 68, 84
2,71755, Note_on_c, 0, 75, 69
2,71785, Note_on_c, 0, 68, 0
2,71857, Note_on_c, 0, 75, 0
2,71861, Note_on_c, 0, 80, 66
2,71979, Note_on_c, 0, 80, 0
2,71983, Note_on_c, 0, 65, 73
2,71994, Note_on_c, 0, 73, 67
2,72103, Note_on_c, 0, 80, 70
2,72128, Note_on_c, 0, 73, 0
2,72188, Note_on_c, 0, 80, 0
2,72235, Note_on_c, 0, 63, 53
2,72238, Note_on_c, 0, 72, 64
2,72295, Note_on_c, 0, 65, 0
2,72325, Note_on_c, 0, 63, 0
2,72329, Note_on_c, 0, 61, 61
2,72333, Note_on_c, 0, 72, 0
2,72341, Note_on_c, 0, 70, 64
2,72417, Note_on_c, 0, 61, 0
2,72433, Note_on_c, 0, 70, 0
2,72446, Note_on_c, 0, 63, 66
2,72449, Note_on_c, 0, 72, 67
2,72513, Note_on_c, 0, 63, 0
2,72539, Note_on_c, 0, 72, 0
2,72557, Note_on_c, 0, 75, 67
2,72569, Note_on_c, 0, 56, 56
2,72658, Note_on_c, 0, 75, 0
2,72677, Note_on_c, 0, 56, 0
2,72681, Note_on_c, 0, 60, 65
2,72685, Note_on_c, 0, 77, 69
2,72788, Note_on_c, 0, 63, 66
2,72789, Note_on_c, 0, 60, 0
2,72789, Note_on_c, 0, 78, 73
2,72798, Note_on_c, 0, 77, 0
2,72922, Note_on_c, 0, 63, 0
2,72923, Note_on_c, 0, 65, 65
2,72928, Note_on_c, 0, 80, 66
2,72934, Note_on_c, 0, 78, 0
2,73035, Note_on_c, 0, 78, 72
2,73040, Note_on_c, 0, 63, 73
2,73043, Note_on_c, 0, 65, 0
2,73059, Note_on_c, 0, 80, 0
2,73144, Note_on_c, 0, 77, 73
2,73145, Note_on_c, 0, 78, 0
2,73155, Note_on_c, 0, 63, 0
2,73160, Note_on_c, 0, 61, 68
2,73236, Note_on_c, 0, 77, 0
2,73257, Note_on_c, 0, 78, 73
2,73258, Note_on_c, 0, 63, 73
2,73279, Note_on_c, 0, 61, 0
2,73337, Note_on_c, 0, 63, 0
2,73385, Note_on_c, 0, 72, 75
2,73389, Note_on_c, 0, 75, 72
2,73393, Note_on_c, 0, 78, 0
2,73413, Note_on_c, 0, 72, 0
2,73500, Note_on_c, 0, 75, 0
2,73514, Note_on_c, 0, 80, 65
2,73617, Note_on_c, 0, 80, 0
2,73626, Note_on_c, 0, 68, 73
2,73627, Note_on_c, 0, 73, 67
2,73662, Note_on_c, 0, 68, 0
2,73749, Note_on_c, 0, 73, 0
2,73755, Note_on_c, 0, 80, 64
2,73847, Note_on_c, 0, 80, 0
2,73872, Note_on_c, 0, 72, 57
2,73891, Note_on_c, 0, 63, 59
2,73976, Note_on_c, 0, 72, 0
2,73995, Note_on_c, 0, 80, 56
2,74085, Note_on_c, 0, 80, 0
2,74115, Note_on_c, 0, 70, 55
2,74137, Note_on_c, 0, 61, 51
2,74196, Note_on_c, 0, 63, 0
2,74208, Note_on_c, 0, 70, 0
2,74216, Note_on_c, 0, 61, 0
2,74223, Note_on_c, 0, 68, 58
2,74229, Note_on_c, 0, 60, 56
2,74296, Note_on_c, 0, 60, 0
2,74324, Note_on_c, 0, 68, 0
2,74339, Note_on_c, 0, 70, 63
2,74343, Note_on_c, 0, 61, 60
2,74414, Note_on_c, 0, 70, 0
2,74446, Note_on_c, 0, 61, 0
2,74456, Note_on_c, 0, 73, 65
2,74467, Note_on_c, 0, 56, 55
2,74556, Note_on_c, 0, 56, 0
2,74565, Note_on_c, 0, 73, 0
2,74581, Note_on_c, 0, 60, 51
2,74593, Note_on_c, 0, 75, 54
2,74672, Note_on_c, 0, 75, 0
2,74685, Note_on_c, 0, 60, 0
2,74693, Note_on_c, 0, 77, 65
2,74699, Note_on_c, 0, 61, 61
2,74802, Note_on_c, 0, 77, 0
2,74812, Note_on_c, 0, 78, 67
2,74820, Note_on_c, 0, 61, 0
2,74822, Note_on_c, 0, 63, 62
2,74901, Note_on_c, 0, 78, 0
2,74914, Note_on_c, 0, 77, 71
2,74939, Note_on_c, 0, 63, 0
2,74943, Note_on_c, 0, 61, 62
2,75012, Note_on_c, 0, 77, 0
2,75023, Note_on_c, 0, 75, 67
2,75026, Note_on_c, 0, 61, 0
2,75049, Note_on_c, 0, 60, 58
2,75119, Note_on_c, 0, 75, 0
2,75125, Note_on_c, 0, 60, 0
2,75137, Note_on_c, 0, 61, 70
2,75137, Note_on_c, 0, 77, 62
2,75240, Note_on_c, 0, 61, 0
2,75272, Note_on_c, 0, 70, 72
2,75284, Note_on_c, 0, 73, 66
2,75290, Note_on_c, 0, 77, 0
2,75296, Note_on_c, 0, 70, 0
2,75377, Note_on_c, 0, 73, 0
2,75394, Note_on_c, 0, 75, 66
2,75496, Note_on_c, 0, 75, 0
2,75503, Note_on_c, 0, 67, 63
2,75519, Note_on_c, 0, 72, 61
2,75540, Note_on_c, 0, 67, 0
2,75602, Note_on_c, 0, 72, 0
2,75618, Note_on_c, 0, 75, 63
2,75729, Note_on_c, 0, 75, 0
2,75761, Note_on_c, 0, 70, 54
2,75763, Note_on_c, 0, 61, 51
2,75848, Note_on_c, 0, 70, 0
2,75864, Note_on_c, 0, 75, 54
2,75957, Note_on_c, 0, 75, 0
2,75978, Note_on_c, 0, 60, 54
2,75992, Note_on_c, 0, 68, 53
2,76002, Note_on_c, 0, 61, 0
2,76077, Note_on_c, 0, 68, 0
2,76087, Note_on_c, 0, 60, 0
2,76091, Note_on_c, 0, 67, 64
2,76100, Note_on_c, 0, 58, 54
2,76192, Note_on_c, 0, 67, 0
2,76209, Note_on_c, 0, 58, 0
2,76211, Note_on_c, 0, 68, 63
2,76222, Note_on_c, 0, 60, 59
2,76323, Note_on_c, 0, 68, 0
2,76332, Note_on_c, 0, 60, 0
2,76335, Note_on_c, 0, 72, 66
2,76338, Note_on_c, 0, 56, 51
2,76437, Note_on_c, 0, 56, 0
2,76440, Note_on_c, 0, 73, 80
2,76446, Note_on_c, 0, 58, 61
2,76459, Note_on_c, 0, 72, 0
2,76540, Note_on_c, 0, 60, 62
2,76554, Note_on_c, 0, 75, 82
2,76556, Note_on_c, 0, 58, 0
2,76587, Note_on_c, 0, 73, 0
2,76637, Note_on_c, 0, 60, 0
2,76665, Note_on_c, 0, 61, 62
2,76669, Note_on_c, 0, 77, 82
2,76685, Note_on_c, 0, 75, 0
2,76778, Note_on_c, 0, 61, 0
2,76787, Note_on_c, 0, 63, 56
2,76789, Note_on_c, 0, 78, 86
2,76827, Note_on_c, 0, 77, 0
2,76893, Note_on_c, 0, 63, 0
2,76900, Note_on_c, 0, 80, 83
2,76907, Note_on_c, 0, 65, 62
2,76973, Note_on_c, 0, 78, 0
2,77008, Note_on_c, 0, 82, 85
2,77010, Note_on_c, 0, 63, 64
2,77010, Note_on_c, 0, 65, 0
2,77031, Note_on_c, 0, 80, 0
2,77105, Note_on_c, 0, 82, 0
2,77118, Note_on_c, 0, 63, 0
2,77131, Note_on_c, 0, 72, 85
2,77139, Note_on_c, 0, 66, 70
2,77164, Note_on_c, 0, 72, 0
2,77235, Note_on_c, 0, 66, 0
2,77250, Note_on_c, 0, 65, 56
2,77371, Note_on_c, 0, 68, 85
2,77374, Note_on_c, 0, 63, 67
2,77383, Note_on_c, 0, 65, 0
2,77404, Note_on_c, 0, 68, 0
2,77483, Note_on_c, 0, 61, 63
2,77505, Note_on_c, 0, 63, 0
2,77608, Note_on_c, 0, 66, 63
2,77622, Note_on_c, 0, 70, 78
2,77629, Note_on_c, 0, 61, 0
2,77644, Control_c, 0, 64, 8
2,77647, Note_on_c, 0, 66, 0
2,77659, Control_c, 0, 64, 43
2,77675, Control_c, 0, 64, 53
2,77689, Control_c, 0, 64, 60
2,77704, Control_c, 0, 64, 64
2,77718, Note_on_c, 0, 68, 79
2,77720, Control_c, 0, 64, 69
2,77735, Control_c, 0, 64, 79
2,77751, Control_c, 0, 64, 89
2,77753, Note_on_c, 0, 70, 0
2,77765, Control_c, 0, 64, 94
2,77780, Control_c, 0, 64, 98
2,77796, Control_c, 0, 64, 102
2,77811, Control_c, 0, 64, 102
2,77840, Note_on_c, 0, 66, 86
2,77852, Note_on_c, 0, 68, 0
2,77856, Note_on_c, 0, 56, 50
2,77916, Control_c, 0, 64, 101
2,77931, Control_c, 0, 64, 97
2,77933, Note_on_c, 0, 68, 83
2,77946, Control_c, 0, 64, 87
2,77953, Note_on_c, 0, 58, 58
2,77962, Control_c, 0, 64, 76
2,77977, Control_c, 0, 64, 66
2,77993, Control_c, 0, 64, 51
2,78000, Note_on_c, 0, 66, 0
2,78008, Control_c, 0, 64, 0
2,78055, Note_on_c, 0, 61, 61
2,78057, Note_on_c, 0, 56, 0
2,78058, Note_on_c, 0, 68, 0
2,78064, Note_on_c, 0, 77, 84
2,78101, Note_on_c, 0, 58, 0
2,78103, Note_on_c, 0, 77, 0
2,78164, Note_on_c, 0, 61, 0
2,78176, Note_on_c, 0, 60, 67
2,78302, Note_on_c, 0, 58, 67
2,78304, Note_on_c, 0, 73, 95
2,78348, Note_on_c, 0, 73, 0
2,78388, Note_on_c, 0, 60, 0
2,78405, Note_on_c, 0, 58, 0
2,78407, Note_on_c, 0, 56, 61
2,78543, Note_on_c, 0, 58, 61
2,78555, Note_on_c, 0, 68, 82
2,78665, Note_on_c, 0, 56, 0
2,78798, Note_on_c, 0, 66, 76
2,78819, Note_on_c, 0, 68, 0
2,78900, Note_on_c, 0, 65, 79
2,78931, Note_on_c, 0, 66, 0
2,79017, Note_on_c, 0, 66, 89
2,79038, Note_on_c, 0, 65, 0
2,79069, Note_on_c, 0, 66, 0
2,79139, Note_on_c, 0, 56, 62
2,79175, Note_on_c, 0, 58, 0
2,79257, Note_on_c, 0, 75, 86
2,79259, Note_on_c, 0, 56, 0
2,79261, Note_on_c, 0, 54, 62
2,79307, Note_on_c, 0, 75, 0
2,79377, Note_on_c, 0, 54, 0
2,79385, Note_on_c, 0, 58, 62
2,79497, Note_on_c, 0, 58, 0
2,79499, Note_on_c, 0, 65, 84
2,79503, Note_on_c, 0, 56, 58
2,79539, Note_on_c, 0, 65, 0
2,79611, Note_on_c, 0, 54, 61
2,79619, Note_on_c, 0, 56, 0
2,79729, Note_on_c, 0, 73, 84
2,79732, Note_on_c, 0, 54, 0
2,79740, Note_on_c, 0, 53, 53
2,79783, Note_on_c, 0, 73, 0
2,79827, Note_on_c, 0, 53, 0
2,79848, Note_on_c, 0, 56, 59
2,79966, Note_on_c, 0, 63, 82
2,79983, Note_on_c, 0, 54, 62
2,80005, Note_on_c, 0, 63, 0
2,80036, Note_on_c, 0, 56, 0
2,80084, Note_on_c, 0, 53, 62
2,80088, Note_on_c, 0, 54, 0
2,80167, Note_on_c, 0, 53, 0
2,80210, Note_on_c, 0, 54, 60
2,80217, Note_on_c, 0, 72, 74
2,80248, Note_on_c, 0, 72, 0
2,80311, Note_on_c, 0, 51, 57
2,80321, Note_on_c, 0, 54, 0
2,80458, Note_on_c, 0, 51, 0
2,80469, Note_on_c, 0, 53, 54
2,80481, Note_on_c, 0, 61, 54
2,80577, Control_c, 0, 64, 35
2,80593, Control_c, 0, 64, 47
2,80595, Note_on_c, 0, 61, 0
2,80608, Control_c, 0, 64, 53
2,80622, Control_c, 0, 64, 56
2,80638, Control_c, 0, 64, 58
2,80653, Control_c, 0, 64, 59
2,80668, Control_c, 0, 64, 60
2,80712, Note_on_c, 0, 73, 55
2,80776, Control_c, 0, 64, 59
2,80792, Control_c, 0, 64, 58
2,80795, Note_on_c, 0, 73, 0
2,80806, Control_c, 0, 64, 57
2,80821, Control_c, 0, 64, 57
2,80829, Note_on_c, 0, 56, 58
2,80836, Note_on_c, 0, 72, 48
2,80837, Control_c, 0, 64, 55
2,80851, Control_c, 0, 64, 53
2,80866, Control_c, 0, 64, 51
2,80882, Control_c, 0, 64, 49
2,80897, Control_c, 0, 64, 46
2,80913, Control_c, 0, 64, 43
2,80928, Control_c, 0, 64, 40
2,80934, Note_on_c, 0, 53, 0
2,80938, Note_on_c, 0, 72, 0
2,80940, Note_on_c, 0, 58, 66
2,80942, Control_c, 0, 64, 34
2,80949, Note_on_c, 0, 73, 56
2,80958, Control_c, 0, 64, 28
2,80973, Control_c, 0, 64, 15
2,80988, Control_c, 0, 64, 0
2,81011, Note_on_c, 0, 56, 0
2,81049, Note_on_c, 0, 60, 72
2,81055, Note_on_c, 0, 75, 67
2,81057, Note_on_c, 0, 58, 0
2,81058, Note_on_c, 0, 73, 0
2,81158, Note_on_c, 0, 61, 77
2,81172, Note_on_c, 0, 75, 0
2,81177, Note_on_c, 0, 77, 68
2,81178, Note_on_c, 0, 60, 0
2,81272, Note_on_c, 0, 63, 77
2,81288, Note_on_c, 0, 78, 73
2,81295, Note_on_c, 0, 77, 0
2,81318, Note_on_c, 0, 61, 0
2,81419, Note_on_c, 0, 65, 76
2,81428, Note_on_c, 0, 63, 0
2,81429, Note_on_c, 0, 78, 0
2,81429, Note_on_c, 0, 80, 67
2,81529, Note_on_c, 0, 63, 84
2,81539, Note_on_c, 0, 78, 77
2,81567, Note_on_c, 0, 80, 0
2,81581, Note_on_c, 0, 65, 0
2,81638, Note_on_c, 0, 61, 82
2,81649, Note_on_c, 0, 77, 75
2,81662, Note_on_c, 0, 63, 0
2,81665, Note_on_c, 0, 78, 0
2,81756, Note_on_c, 0, 63, 83
2,81761, Note_on_c, 0, 78, 81
2,81788, Note_on_c, 0, 77, 0
2,81789, Note_on_c, 0, 61, 0
2,81856, Note_on_c, 0, 63, 0
2,81893, Note_on_c, 0, 72, 88
2,81894, Note_on_c, 0, 80, 75
2,81903, Note_on_c, 0, 78, 0
2,81906, Note_on_c, 0, 60, 68
2,81934, Note_on_c, 0, 72, 0
2,82011, Note_on_c, 0, 78, 74
2,82018, Note_on_c, 0, 80, 0
2,82135, Note_on_c, 0, 78, 0
2,82137, Note_on_c, 0, 68, 83
2,82140, Note_on_c, 0, 77, 72
2,82186, Note_on_c, 0, 68, 0
2,82235, Note_on_c, 0, 77, 0
2,82243, Note_on_c, 0, 75, 75
2,82387, Note_on_c, 0, 63, 74
2,82393, Note_on_c, 0, 77, 77
2,82421, Note_on_c, 0, 75, 0
2,82551, Note_on_c, 0, 60, 0
2,82637, Note_on_c, 0, 61, 71
2,82723, Note_on_c, 0, 63, 0
2,82739, Note_on_c, 0, 60, 73
2,82760, Note_on_c, 0, 61, 0
2,82857, Note_on_c, 0, 60, 0
2,82874, Note_on_c, 0, 58, 70
2,82883, Note_on_c, 0, 61, 79
2,82928, Note_on_c, 0, 61, 0
2,82993, Note_on_c, 0, 75, 73
2,83119, Note_on_c, 0, 73, 73
2,83120, Note_on_c, 0, 70, 79
2,83123, Note_on_c, 0, 77, 0
2,83145, Note_on_c, 0, 75, 0
2,83163, Note_on_c, 0, 70, 0
2,83220, Note_on_c, 0, 77, 69
2,83232, Note_on_c, 0, 73, 0
2,83345, Note_on_c, 0, 60, 77
2,83360, Note_on_c, 0, 75, 76
2,83370, Note_on_c, 0, 58, 0
2,83389, Note_on_c, 0, 60, 0
2,83398, Note_on_c, 0, 77, 0
2,83459, Note_on_c, 0, 73, 72
2,83505, Note_on_c, 0, 75, 0
2,83575, Note_on_c, 0, 72, 69
2,83581, Note_on_c, 0, 68, 78
2,83584, Note_on_c, 0, 56, 69
2,83584, Note_on_c, 0, 73, 0
2,83620, Note_on_c, 0, 68, 0
2,83622, Note_on_c, 0, 56, 0
2,83694, Note_on_c, 0, 72, 0
2,83700, Note_on_c, 0, 75, 78
2,83820, Note_on_c, 0, 58, 78
2,83837, Note_on_c, 0, 73, 75
2,83871, Note_on_c, 0, 58, 0
2,83871, Note_on_c, 0, 75, 0
2,83933, Note_on_c, 0, 73, 0
2,83942, Note_on_c, 0, 72, 69
2,84054, Note_on_c, 0, 72, 0
2,84062, Note_on_c, 0, 73, 71
2,84067, Note_on_c, 0, 67, 56
2,84071, Note_on_c, 0, 51, 65
2,84098, Note_on_c, 0, 51, 0
2,84109, Note_on_c, 0, 67, 0
2,84178, Note_on_c, 0, 70, 66
2,84189, Note_on_c, 0, 73, 0
2,84301, Note_on_c, 0, 70, 0
2,84304, Note_on_c, 0, 56, 52
2,84309, Note_on_c, 0, 72, 68
2,84364, Control_c, 0, 64, 39
2,84379, Control_c, 0, 64, 49
2,84395, Control_c, 0, 64, 54
2,84418, Control_c, 0, 64, 58
2,84434, Control_c, 0, 64, 61
2,84448, Control_c, 0, 64, 62
2,84463, Control_c, 0, 64, 63
2,84479, Control_c, 0, 64, 64
2,84494, Control_c, 0, 64, 65
2,84509, Control_c, 0, 64, 65
2,84531, Note_on_c, 0, 56, 0
2,84544, Note_on_c, 0, 72, 0
2,84552, Note_on_c, 0, 75, 70
2,84569, Control_c, 0, 64, 64
2,84569, Note_on_c, 0, 68, 51
2,84578, Note_on_c, 0, 75, 0
2,84584, Control_c, 0, 64, 62
2,84600, Control_c, 0, 64, 54
2,84615, Control_c, 0, 64, 20
2,84631, Control_c, 0, 64, 0
2,84643, Note_on_c, 0, 68, 0
2,84676, Note_on_c, 0, 67, 58
2,84783, Note_on_c, 0, 67, 0
2,84800, Note_on_c, 0, 68, 70
2,84801, Note_on_c, 0, 78, 73
2,84842, Note_on_c, 0, 68, 0
2,84896, Note_on_c, 0, 70, 57
2,85032, Note_on_c, 0, 56, 74
2,85034, Note_on_c, 0, 70, 0
2,85041, Note_on_c, 0, 72, 64
2,85084, Note_on_c, 0, 56, 0
2,85111, Note_on_c, 0, 72, 0
2,85135, Note_on_c, 0, 68, 59
2,85279, Note_on_c, 0, 58, 67
2,85297, Note_on_c, 0, 73, 68
2,85311, Note_on_c, 0, 68, 0
2,85376, Note_on_c, 0, 78, 0
2,85388, Note_on_c, 0, 56, 73
2,85404, Note_on_c, 0, 72, 66
2,85435, Note_on_c, 0, 58, 0
2,85454, Note_on_c, 0, 73, 0
2,85496, Note_on_c, 0, 54, 83
2,85518, Note_on_c, 0, 56, 0
2,85525, Note_on_c, 0, 70, 78
2,85531, Note_on_c, 0, 72, 0
2,85605, Note_on_c, 0, 56, 82
2,85619, Note_on_c, 0, 72, 79
2,85644, Note_on_c, 0, 54, 0
2,85730, Note_on_c, 0, 70, 0
2,85746, Note_on_c, 0, 65, 81
2,85756, Note_on_c, 0, 56, 0
2,85756, Note_on_c, 0, 72, 0
2,85760, Note_on_c, 0, 73, 59
2,85762, Note_on_c, 0, 77, 75
2,85780, Note_on_c, 0, 65, 0
2,85845, Note_on_c, 0, 73, 0
2,85859, Note_on_c, 0, 72, 68
2,85972, Note_on_c, 0, 72, 0
2,85986, Note_on_c, 0, 61, 80
2,86007, Note_on_c, 0, 70, 61
2,86036, Note_on_c, 0, 61, 0
2,86096, Note_on_c, 0, 70, 0
2,86097, Note_on_c, 0, 68, 67
2,86242, Note_on_c, 0, 56, 73
2,86248, Note_on_c, 0, 68, 0
2,86252, Note_on_c, 0, 70, 68
2,86384, Note_on_c, 0, 77, 0
2,86502, Note_on_c, 0, 54, 71
2,86567, Note_on_c, 0, 56, 0
2,86605, Note_on_c, 0, 53, 76
2,86636, Note_on_c, 0, 54, 0
2,86716, Note_on_c, 0, 54, 79
2,86725, Note_on_c, 0, 53, 0
2,86729, Note_on_c, 0, 75, 79
2,86745, Note_on_c, 0, 70, 0
2,86749, Note_on_c, 0, 54, 0
2,86845, Note_on_c, 0, 68, 64
2,86967, Note_on_c, 0, 63, 75
2,86969, Note_on_c, 0, 68, 0
2,86975, Note_on_c, 0, 66, 71
2,86994, Note_on_c, 0, 63, 0
2,87082, Note_on_c, 0, 66, 0
2,87086, Note_on_c, 0, 70, 66
2,87196, Note_on_c, 0, 53, 80
2,87209, Note_on_c, 0, 68, 74
2,87213, Note_on_c, 0, 75, 0
2,87245, Note_on_c, 0, 53, 0
2,87301, Note_on_c, 0, 70, 0
2,87315, Note_on_c, 0, 66, 71
2,87335, Note_on_c, 0, 68, 0
2,87434, Note_on_c, 0, 61, 74
2,87438, Note_on_c, 0, 73, 80
2,87447, Note_on_c, 0, 66, 0
2,87454, Note_on_c, 0, 65, 61
2,87460, Note_on_c, 0, 61, 0
2,87561, Note_on_c, 0, 68, 65
2,87593, Note_on_c, 0, 73, 0
2,87627, Note_on_c, 0, 65, 0
2,87684, Note_on_c, 0, 72, 78
2,87687, Note_on_c, 0, 51, 73
2,87697, Note_on_c, 0, 66, 52
2,87701, Note_on_c, 0, 68, 0
2,87720, Note_on_c, 0, 51, 0
2,87783, Note_on_c, 0, 66, 0
2,87795, Note_on_c, 0, 65, 61
2,87795, Note_on_c, 0, 72, 0
2,87914, Note_on_c, 0, 65, 0
2,87924, Note_on_c, 0, 66, 53
2,87930, Note_on_c, 0, 60, 61
2,87932, Note_on_c, 0, 75, 68
2,87972, Note_on_c, 0, 60, 0
2,88030, Note_on_c, 0, 66, 0
2,88054, Note_on_c, 0, 63, 57
2,88107, Note_on_c, 0, 63, 0
2,88196, Note_on_c, 0, 49, 39
2,88257, Note_on_c, 0, 65, 41
2,88325, Note_on_c, 0, 49, 0
2,88356, Note_on_c, 0, 44, 44
2,88474, Note_on_c, 0, 44, 0
2,88478, Note_on_c, 0, 49, 47
2,88478, Note_on_c, 0, 68, 64
2,88600, Note_on_c, 0, 51, 47
2,88607, Note_on_c, 0, 49, 0
2,88640, Note_on_c, 0, 65, 0
2,88697, Note_on_c, 0, 51, 0
2,88706, Note_on_c, 0, 73, 77
2,88715, Note_on_c, 0, 53, 47
2,88747, Note_on_c, 0, 68, 0
2,88800, Note_on_c, 0, 53, 0
2,88829, Note_on_c, 0, 54, 55
2,88920, Note_on_c, 0, 75, 0
2,88935, Note_on_c, 0, 54, 0
2,88942, Note_on_c, 0, 56, 51
2,88951, Note_on_c, 0, 71, 69
2,88987, Note_on_c, 0, 73, 0
2,89074, Note_on_c, 0, 56, 0
2,89076, Note_on_c, 0, 53, 47
2,89131, Note_on_c, 0, 53, 0
2,89184, Note_on_c, 0, 71, 0
2,89189, Note_on_c, 0, 70, 58
2,89195, Note_on_c, 0, 54, 49
2,89298, Note_on_c, 0, 54, 0
2,89318, Note_on_c, 0, 42, 51
2,89371, Note_on_c, 0, 42, 0
2,89438, Note_on_c, 0, 54, 47
2,89445, Note_on_c, 0, 61, 49
2,89490, Note_on_c, 0, 54, 0
2,89552, Note_on_c, 0, 53, 45
2,89668, Note_on_c, 0, 53, 0
2,89673, Note_on_c, 0, 54, 48
2,89676, Note_on_c, 0, 66, 66
2,89755, Note_on_c, 0, 61, 0
2,89812, Note_on_c, 0, 56, 48
2,89834, Note_on_c, 0, 54, 0
2,89915, Note_on_c, 0, 70, 0
2,89917, Note_on_c, 0, 58, 51
2,89918, Note_on_c, 0, 65, 72
2,89922, Note_on_c, 0, 56, 0
2,89961, Note_on_c, 0, 66, 0
2,90025, Note_on_c, 0, 54, 47
2,90053, Note_on_c, 0, 58, 0
2,90135, Note_on_c, 0, 54, 0
2,90169, Note_on_c, 0, 66, 69
2,90180, Note_on_c, 0, 51, 37
2,90205, Note_on_c, 0, 65, 0
2,90274, Note_on_c, 0, 51, 0
2,90294, Note_on_c, 0, 53, 49
2,90386, Note_on_c, 0, 53, 0
2,90405, Note_on_c, 0, 66, 0
2,90405, Note_on_c, 0, 70, 70
2,90410, Note_on_c, 0, 54, 54
2,90499, Note_on_c, 0, 70, 0
2,90503, Note_on_c, 0, 54, 0
2,90509, Note_on_c, 0, 66, 74
2,90512, Note_on_c, 0, 51, 58
2,90618, Note_on_c, 0, 51, 0
2,90642, Note_on_c, 0, 63, 62
2,90649, Note_on_c, 0, 66, 0
2,90650, Note_on_c, 0, 48, 46
2,90712, Note_on_c, 0, 48, 0
2,90759, Note_on_c, 0, 49, 53
2,90868, Note_on_c, 0, 49, 0
2,90877, Note_on_c, 0, 63, 0
2,90883, Note_on_c, 0, 66, 56
2,90888, Note_on_c, 0, 51, 50
2,90937, Note_on_c, 0, 51, 0
2,90968, Note_on_c, 0, 66, 0
2,90978, Note_on_c, 0, 63, 53
2,90984, Note_on_c, 0, 48, 38
2,91034, Note_on_c, 0, 48, 0
2,91121, Note_on_c, 0, 63, 0
2,91124, Control_c, 0, 64, 33
2,91126, Note_on_c, 0, 41, 43
2,91130, Note_on_c, 0, 56, 56
2,91139, Control_c, 0, 64, 43
2,91155, Control_c, 0, 64, 49
2,91168, Note_on_c, 0, 41, 0
2,91170, Control_c, 0, 64, 53
2,91185, Control_c, 0, 64, 56
2,91200, Control_c, 0, 64, 58
2,91215, Control_c, 0, 64, 59
2,91230, Control_c, 0, 64, 59
2,91276, Control_c, 0, 64, 60
2,91344, Control_c, 0, 64, 59
2,91347, Note_on_c, 0, 56, 0
2,91360, Control_c, 0, 64, 53
2,91372, Note_on_c, 0, 63, 68
2,91374, Control_c, 0, 64, 39
2,91382, Note_on_c, 0, 53, 47
2,91389, Control_c, 0, 64, 0
2,91402, Note_on_c, 0, 63, 0
2,91449, Note_on_c, 0, 53, 0
2,91489, Note_on_c, 0, 51, 47
2,91596, Note_on_c, 0, 51, 0
2,91612, Note_on_c, 0, 68, 69
2,91623, Note_on_c, 0, 53, 41
2,91722, Note_on_c, 0, 53, 0
2,91737, Note_on_c, 0, 54, 50
2,91819, Note_on_c, 0, 54, 0
2,91845, Note_on_c, 0, 56, 47
2,91858, Note_on_c, 0, 60, 62
2,91890, Note_on_c, 0, 60, 0
2,91941, Note_on_c, 0, 56, 0
2,91959, Note_on_c, 0, 53, 45
2,92071, Note_on_c, 0, 53, 0
2,92095, Note_on_c, 0, 50, 43
2,92108, Note_on_c, 0, 65, 59
2,92174, Note_on_c, 0, 68, 0
2,92222, Note_on_c, 0, 50, 0
2,92227, Note_on_c, 0, 51, 53
2,92342, Note_on_c, 0, 51, 0
2,92342, Note_on_c, 0, 53, 55
2,92342, Note_on_c, 0, 68, 63
2,92348, Note_on_c, 0, 65, 0
2,92435, Note_on_c, 0, 68, 0
2,92444, Note_on_c, 0, 53, 0
2,92447, Note_on_c, 0, 65, 69
2,92456, Note_on_c, 0, 50, 51
2,92536, Note_on_c, 0, 50, 0
2,92555, Note_on_c, 0, 65, 0
2,92566, Note_on_c, 0, 62, 65
2,92580, Note_on_c, 0, 46, 49
2,92702, Note_on_c, 0, 48, 40
2,92749, Note_on_c, 0, 46, 0
2,92769, Note_on_c, 0, 48, 0
2,92801, Note_on_c, 0, 50, 53
2,92802, Note_on_c, 0, 62, 0
2,92808, Note_on_c, 0, 65, 58
2,92878, Note_on_c, 0, 50, 0
2,92894, Note_on_c, 0, 65, 0
2,92910, Note_on_c, 0, 46, 49
2,92918, Note_on_c, 0, 62, 57
2,93033, Note_on_c, 0, 46, 0
2,93060, Note_on_c, 0, 54, 55
2,93071, Note_on_c, 0, 39, 44
2,93096, Control_c, 0, 64, 38
2,93112, Control_c, 0, 64, 49
2,93126, Control_c, 0, 64, 55
2,93141, Control_c, 0, 64, 60
2,93145, Note_on_c, 0, 39, 0
2,93157, Control_c, 0, 64, 62
2,93172, Control_c, 0, 64, 63
2,93188, Control_c, 0, 64, 64
2,93202, Control_c, 0, 64, 65
2,93217, Control_c, 0, 64, 66
2,93248, Note_on_c, 0, 62, 0
2,93286, Note_on_c, 0, 54, 0
2,93293, Control_c, 0, 64, 65
2,93301, Note_on_c, 0, 58, 58
2,93309, Control_c, 0, 64, 64
2,93321, Note_on_c, 0, 51, 51
2,93324, Control_c, 0, 64, 60
2,93330, Note_on_c, 0, 58, 0
2,93339, Control_c, 0, 64, 47
2,93355, Control_c, 0, 64, 0
2,93401, Note_on_c, 0, 51, 0
2,93429, Note_on_c, 0, 50, 52
2,93526, Note_on_c, 0, 50, 0
2,93541, Note_on_c, 0, 51, 58
2,93545, Note_on_c, 0, 66, 75
2,93660, Note_on_c, 0, 51, 0
2,93662, Note_on_c, 0, 53, 54
2,93780, Note_on_c, 0, 53, 0
2,93782, Note_on_c, 0, 58, 62
2,93793, Note_on_c, 0, 54, 55
2,93816, Note_on_c, 0, 58, 0
2,93878, Note_on_c, 0, 51, 53
2,93878, Note_on_c, 0, 54, 0
2,93998, Note_on_c, 0, 51, 0
2,94027, Note_on_c, 0, 48, 42
2,94046, Note_on_c, 0, 63, 60
2,94117, Note_on_c, 0, 66, 0
2,94136, Note_on_c, 0, 48, 0
2,94151, Note_on_c, 0, 49, 55
2,94159, Note_on_c, 0, 65, 71
2,94202, Note_on_c, 0, 63, 0
2,94260, Note_on_c, 0, 66, 75
2,94267, Note_on_c, 0, 65, 0
2,94268, Note_on_c, 0, 51, 62
2,94278, Note_on_c, 0, 49, 0
2,94348, Note_on_c, 0, 66, 0
2,94354, Note_on_c, 0, 63, 77
2,94376, Note_on_c, 0, 48, 59
2,94396, Note_on_c, 0, 51, 0
2,94463, Note_on_c, 0, 48, 0
2,94505, Note_on_c, 0, 44, 49
2,94508, Note_on_c, 0, 75, 85
2,94573, Note_on_c, 0, 63, 0
2,94626, Note_on_c, 0, 46, 52
2,94628, Note_on_c, 0, 66, 67
2,94679, Note_on_c, 0, 44, 0
2,94727, Note_on_c, 0, 48, 55
2,94748, Note_on_c, 0, 68, 68
2,94796, Note_on_c, 0, 48, 0
2,94798, Note_on_c, 0, 66, 0
2,94835, Note_on_c, 0, 44, 48
2,94850, Note_on_c, 0, 63, 69
2,94890, Note_on_c, 0, 63, 0
2,94903, Note_on_c, 0, 68, 0
2,94978, Note_on_c, 0, 46, 0
2,94978, Note_on_c, 0, 65, 69
2,94982, Note_on_c, 0, 37, 58
2,95010, Control_c, 0, 64, 41
2,95025, Control_c, 0, 64, 56
2,95029, Note_on_c, 0, 44, 0
2,95030, Note_on_c, 0, 37, 0
2,95039, Note_on_c, 0, 75, 0
2,95041, Control_c, 0, 64, 61
2,95055, Control_c, 0, 64, 65
2,95070, Control_c, 0, 64, 69
2,95086, Control_c, 0, 64, 75
2,95087, Note_on_c, 0, 65, 0
2,95095, Note_on_c, 0, 73, 76
2,95101, Control_c, 0, 64, 84
2,95117, Control_c, 0, 64, 95
2,95131, Control_c, 0, 64, 127
2,95214, Note_on_c, 0, 72, 76
2,95226, Note_on_c, 0, 73, 0
2,95227, Note_on_c, 0, 49, 62
2,95313, Note_on_c, 0, 75, 86
2,95326, Note_on_c, 0, 72, 0
2,95334, Note_on_c, 0, 51, 77
2,95427, Control_c, 0, 64, 93
2,95432, Note_on_c, 0, 49, 0
2,95441, Note_on_c, 0, 73, 91
2,95442, Note_on_c, 0, 53, 80
2,95443, Control_c, 0, 64, 71
2,95458, Control_c, 0, 64, 39
2,95466, Note_on_c, 0, 75, 0
2,95468, Note_on_c, 0, 51, 0
2,95473, Control_c, 0, 64, 0
2,95476, Note_on_c, 0, 53, 0
2,95557, Note_on_c, 0, 68, 80
2,95563, Note_on_c, 0, 73, 0
2,95673, Note_on_c, 0, 61, 72
2,95680, Note_on_c, 0, 49, 65
2,95681, Note_on_c, 0, 70, 76
2,95712, Note_on_c, 0, 68, 0
2,95761, Note_on_c, 0, 49, 0
2,95794, Note_on_c, 0, 71, 76
2,95823, Note_on_c, 0, 70, 0
2,95922, Note_on_c, 0, 70, 84
2,95924, Note_on_c, 0, 54, 48
2,95960, Note_on_c, 0, 71, 0
2,96045, Note_on_c, 0, 60, 68
2,96049, Note_on_c, 0, 68, 86
2,96064, Note_on_c, 0, 70, 0
2,96066, Note_on_c, 0, 61, 0
2,96145, Note_on_c, 0, 58, 67
2,96155, Note_on_c, 0, 66, 86
2,96166, Note_on_c, 0, 60, 0
2,96177, Note_on_c, 0, 68, 0
2,96263, Note_on_c, 0, 68, 93
2,96281, Note_on_c, 0, 66, 0
2,96282, Note_on_c, 0, 60, 75
2,96363, Note_on_c, 0, 54, 0
2,96395, Note_on_c, 0, 77, 86
2,96397, Note_on_c, 0, 58, 0
2,96400, Note_on_c, 0, 53, 62
2,96403, Note_on_c, 0, 61, 67
2,96409, Note_on_c, 0, 68, 0
2,96413, Note_on_c, 0, 60, 0
2,96438, Note_on_c, 0, 77, 0
2,96518, Note_on_c, 0, 60, 80
2,96556, Note_on_c, 0, 61, 0
2,96634, Note_on_c, 0, 73, 91
2,96635, Note_on_c, 0, 53, 0
2,96639, Note_on_c, 0, 58, 82
2,96682, Note_on_c, 0, 73, 0
2,96712, Note_on_c, 0, 60, 0
2,96736, Note_on_c, 0, 56, 76
2,96762, Note_on_c, 0, 58, 0
2,96878, Note_on_c, 0, 58, 72
2,96886, Note_on_c, 0, 68, 80
2,96887, Note_on_c, 0, 51, 73
2,96907, Note_on_c, 0, 56, 0
2,96929, Note_on_c, 0, 51, 0
2,97116, Note_on_c, 0, 49, 69
2,97131, Note_on_c, 0, 66, 77
2,97150, Note_on_c, 0, 49, 0
2,97172, Note_on_c, 0, 68, 0
2,97228, Note_on_c, 0, 65, 83
2,97272, Note_on_c, 0, 66, 0
2,97354, Note_on_c, 0, 48, 66
2,97360, Note_on_c, 0, 66, 90
2,97377, Note_on_c, 0, 65, 0
2,97400, Note_on_c, 0, 66, 0
2,97467, Note_on_c, 0, 56, 74
2,97471, Note_on_c, 0, 58, 0
2,97594, Note_on_c, 0, 54, 67
2,97603, Note_on_c, 0, 75, 90
2,97640, Note_on_c, 0, 56, 0
2,97656, Note_on_c, 0, 75, 0
2,97670, Note_on_c, 0, 48, 0
2,97704, Note_on_c, 0, 58, 66
2,97835, Note_on_c, 0, 54, 0
2,97839, Note_on_c, 0, 58, 0
2,97843, Note_on_c, 0, 65, 86
2,97844, Note_on_c, 0, 49, 52
2,97847, Note_on_c, 0, 56, 68
2,97886, Note_on_c, 0, 65, 0
2,97952, Note_on_c, 0, 54, 67
2,97980, Note_on_c, 0, 56, 0
2,98068, Note_on_c, 0, 53, 62
2,98081, Note_on_c, 0, 73, 86
2,98107, Note_on_c, 0, 54, 0
2,98142, Note_on_c, 0, 73, 0
2,98160, Note_on_c, 0, 53, 0
2,98161, Note_on_c, 0, 49, 0
2,98166, Note_on_c, 0, 56, 65
2,98300, Note_on_c, 0, 56, 0
2,98315, Note_on_c, 0, 63, 75
2,98319, Note_on_c, 0, 54, 65
2,98323, Note_on_c, 0, 44, 56
2,98366, Note_on_c, 0, 63, 0
2,98437, Note_on_c, 0, 54, 0
2,98444, Note_on_c, 0, 53, 69
2,98542, Note_on_c, 0, 51, 59
2,98556, Note_on_c, 0, 72, 77
2,98611, Note_on_c, 0, 72, 0
2,98633, Note_on_c, 0, 44, 0
2,98662, Note_on_c, 0, 53, 0
2,98679, Note_on_c, 0, 54, 63
2,98755, Note_on_c, 0, 54, 0
2,98814, Note_on_c, 0, 46, 52
2,98827, Note_on_c, 0, 53, 59
2,98832, Note_on_c, 0, 61, 64
2,98877, Control_c, 0, 64, 37
2,98893, Control_c, 0, 64, 51
2,98908, Control_c, 0, 64, 56
2,98924, Control_c, 0, 64, 59
2,98939, Control_c, 0, 64, 62
2,98942, Note_on_c, 0, 51, 0
2,98953, Control_c, 0, 64, 65
2,98962, Note_on_c, 0, 53, 0
2,98969, Control_c, 0, 64, 67
2,98972, Note_on_c, 0, 46, 0
2,98974, Note_on_c, 0, 61, 0
2,98984, Control_c, 0, 64, 69
2,98986, Note_on_c, 0, 56, 63
2,99007, Control_c, 0, 64, 72
2,99010, Note_on_c, 0, 65, 64
2,99022, Control_c, 0, 64, 74
2,99037, Control_c, 0, 64, 77
2,99052, Control_c, 0, 64, 79
2,99067, Control_c, 0, 64, 80
2,99083, Control_c, 0, 64, 81
2,99098, Control_c, 0, 64, 82
2,99106, Note_on_c, 0, 56, 0
2,99107, Note_on_c, 0, 66, 78
2,99109, Note_on_c, 0, 58, 67
2,99113, Control_c, 0, 64, 84
2,99129, Control_c, 0, 64, 84
2,99129, Note_on_c, 0, 65, 0
2,99159, Control_c, 0, 64, 85
2,99214, Note_on_c, 0, 60, 72
2,99217, Note_on_c, 0, 68, 79
2,99239, Note_on_c, 0, 58, 0
2,99296, Note_on_c, 0, 66, 0
2,99331, Note_on_c, 0, 70, 78
2,99332, Note_on_c, 0, 61, 73
2,99334, Note_on_c, 0, 60, 0
2,99337, Note_on_c, 0, 68, 0
2,99341, Control_c, 0, 64, 84
2,99355, Control_c, 0, 64, 82
2,99371, Control_c, 0, 64, 78
2,99386, Control_c, 0, 64, 74
2,99402, Control_c, 0, 64, 69
2,99417, Control_c, 0, 64, 65
2,99431, Control_c, 0, 64, 61
2,99443, Note_on_c, 0, 72, 85
2,99444, Note_on_c, 0, 60, 79
2,99447, Control_c, 0, 64, 48
2,99447, Note_on_c, 0, 70, 0
2,99450, Note_on_c, 0, 61, 0
2,99462, Control_c, 0, 64, 0
2,99562, Note_on_c, 0, 58, 73
2,99565, Note_on_c, 0, 73, 82
2,99578, Note_on_c, 0, 60, 0
2,99594, Note_on_c, 0, 72, 0
2,99661, Note_on_c, 0, 56, 67
2,99670, Note_on_c, 0, 75, 85
2,99685, Note_on_c, 0, 58, 0
2,99708, Note_on_c, 0, 73, 0
2,99789, Note_on_c, 0, 56, 0
2,99802, Note_on_c, 0, 55, 66
2,99802, Note_on_c, 0, 76, 80
2,99819, Note_on_c, 0, 75, 0
2,99898, Note_on_c, 0, 55, 0
2,99905, Note_on_c, 0, 56, 69
2,99914, Note_on_c, 0, 75, 88
2,99940, Note_on_c, 0, 76, 0
2,100020, Note_on_c, 0, 73, 85
2,100032, Note_on_c, 0, 58, 74
2,100039, Note_on_c, 0, 75, 0
2,100061, Note_on_c, 0, 56, 0
2,100094, Control_c, 0, 64, 45
2,100109, Control_c, 0, 64, 56
2,100124, Control_c, 0, 64, 61
2,100135, Note_on_c, 0, 55, 69
2,100139, Control_c, 0, 64, 64
2,100141, Note_on_c, 0, 75, 85
2,100146, Note_on_c, 0, 58, 0
2,100154, Control_c, 0, 64, 67
2,100163, Note_on_c, 0, 55, 0
2,100170, Control_c, 0, 64, 70
2,100171, Note_on_c, 0, 73, 0
2,100185, Control_c, 0, 64, 73
2,100200, Control_c, 0, 64, 74
2,100215, Control_c, 0, 64, 75
2,100264, Note_on_c, 0, 51, 69
2,100265, Note_on_c, 0, 76, 83
2,100269, Note_on_c, 0, 75, 0
2,100291, Control_c, 0, 64, 74
2,100306, Control_c, 0, 64, 72
2,100322, Control_c, 0, 64, 66
2,100336, Control_c, 0, 64, 60
2,100351, Control_c, 0, 64, 52
2,100367, Control_c, 0, 64, 38
2,100382, Control_c, 0, 64, 0
2,100382, Note_on_c, 0, 49, 71
2,100382, Note_on_c, 0, 79, 86
2,100412, Note_on_c, 0, 76, 0
2,100490, Note_on_c, 0, 80, 87
2,100500, Note_on_c, 0, 48, 76
2,100538, Note_on_c, 0, 79, 0
2,100614, Note_on_c, 0, 82, 85
2,100618, Note_on_c, 0, 46, 75
2,100618, Note_on_c, 0, 49, 0
2,100649, Note_on_c, 0, 80, 0
2,100663, Note_on_c, 0, 48, 0
2,100664, Note_on_c, 0, 51, 0
2,100734, Note_on_c, 0, 44, 70
2,100761, Note_on_c, 0, 73, 87
2,100765, Note_on_c, 0, 46, 0
2,100782, Note_on_c, 0, 82, 0
2,100862, Note_on_c, 0, 51, 68
2,100874, Note_on_c, 0, 72, 87
2,100902, Note_on_c, 0, 73, 0
2,100981, Note_on_c, 0, 53, 69
2,100993, Note_on_c, 0, 70, 84
2,101012, Note_on_c, 0, 72, 0
2,101075, Note_on_c, 0, 44, 0
2,101094, Note_on_c, 0, 68, 86
2,101095, Note_on_c, 0, 51, 0
2,101101, Note_on_c, 0, 53, 0
2,101105, Note_on_c, 0, 54, 77
2,101134, Note_on_c, 0, 70, 0
2,101221, Note_on_c, 0, 68, 0
2,101223, Note_on_c, 0, 75, 88
2,101227, Note_on_c, 0, 54, 0
2,101227, Note_on_c, 0, 56, 74
2,101268, Note_on_c, 0, 75, 0
2,101345, Note_on_c, 0, 58, 75
2,101364, Note_on_c, 0, 56, 0
2,101467, Note_on_c, 0, 66, 88
2,101474, Note_on_c, 0, 60, 74
2,101479, Note_on_c, 0, 58, 0
2,101510, Note_on_c, 0, 66, 0
2,101589, Note_on_c, 0, 60, 0
2,101595, Note_on_c, 0, 56, 68
2,101679, Note_on_c, 0, 56, 0
2,101734, Note_on_c, 0, 65, 82
2,101739, Note_on_c, 0, 61, 75
2,101775, Note_on_c, 0, 61, 0
2,101784, Control_c, 0, 64, 32
2,101800, Control_c, 0, 64, 61
2,101802, Note_on_c, 0, 65, 0
2,101814, Control_c, 0, 64, 66
2,101829, Control_c, 0, 64, 74
2,101845, Control_c, 0, 64, 84
2,101860, Control_c, 0, 64, 92
2,101876, Control_c, 0, 64, 98
2,101890, Control_c, 0, 64, 103
2,101905, Control_c, 0, 64, 103
2,101983, Control_c, 0, 64, 100
2,101999, Control_c, 0, 64, 88
2,102004, Note_on_c, 0, 41, 75
2,102004, Note_on_c, 0, 73, 91
2,102007, Note_on_c, 0, 68, 81
2,102008, Note_on_c, 0, 61, 83
2,102014, Control_c, 0, 64, 69
2,102029, Control_c, 0, 64, 45
2,102044, Control_c, 0, 64, 0
2,102160, Note_on_c, 0, 68, 0
2,102202, Note_on_c, 0, 61, 0
2,102295, Note_on_c, 0, 73, 0
2,102305, Note_on_c, 0, 42, 75
2,102311, Note_on_c, 0, 70, 87
2,102320, Note_on_c, 0, 63, 75
2,102322, Note_on_c, 0, 66, 74
2,102327, Note_on_c, 0, 41, 0
2,102406, Note_on_c, 0, 66, 0
2,102426, Note_on_c, 0, 63, 0
2,102484, Note_on_c, 0, 70, 0
2,102677, Note_on_c, 0, 44, 73
2,102681, Note_on_c, 0, 72, 80
2,102689, Note_on_c, 0, 68, 74
2,102700, Note_on_c, 0, 66, 66
2,102709, Note_on_c, 0, 42, 0
2,102767, Control_c, 0, 64, 54
2,102787, Control_c, 0, 64, 63
2,102801, Control_c, 0, 64, 66
2,102806, Note_on_c, 0, 72, 0
2,102817, Control_c, 0, 64, 71
2,102832, Control_c, 0, 64, 82
2,102840, Note_on_c, 0, 68, 0
2,102856, Control_c, 0, 64, 107
2,102859, Note_on_c, 0, 66, 0
2,102871, Control_c, 0, 64, 127
2,103243, Note_on_c, 0, 37, 58
2,103306, Note_on_c, 0, 61, 58
2,103349, Note_on_c, 0, 65, 70
2,103393, Note_on_c, 0, 68, 72
2,103449, Note_on_c, 0, 73, 85
2,103479, Control_c, 0, 64, 115
2,103483, Note_on_c, 0, 44, 0
2,103495, Control_c, 0, 64, 91
2,103510, Control_c, 0, 64, 79
2,103524, Control_c, 0, 64, 69
2,103540, Control_c, 0, 64, 62
2,103555, Control_c, 0, 64, 46
2,103571, Control_c, 0, 64, 0
2,104262, Control_c, 0, 64, 22
2,104277, Control_c, 0, 64, 36
2,104293, Control_c, 0, 64, 43
2,104308, Control_c, 0, 64, 48
2,104323, Control_c, 0, 64, 52
2,104338, Control_c, 0, 64, 56
2,104353, Control_c, 0, 64, 58
2,104368, Control_c, 0, 64, 61
2,104391, Control_c, 0, 64, 62
2,104406, Control_c, 0, 64, 64
2,104422, Control_c, 0, 64, 65
2,104436, Control_c, 0, 64, 67
2,104452, Control_c, 0, 64, 71
2,104467, Control_c, 0, 64, 74
2,104482, Control_c, 0, 64, 77
2,104497, Control_c, 0, 64, 80
2,104512, Control_c, 0, 64, 84
2,104527, Control_c, 0, 64, 89
2,104544, Control_c, 0, 64, 94
2,104559, Control_c, 0, 64, 100
2,104575, Control_c, 0, 64, 104
2,104589, Control_c, 0, 64, 106
2,104604, Control_c, 0, 64, 108
2,104620, Control_c, 0, 64, 110
2,104635, Control_c, 0, 64, 112
2,104651, Control_c, 0, 64, 115
2,104665, Control_c, 0, 64, 117
2,104680, Control_c, 0, 64, 119
2,104711, Control_c, 0, 64, 121
2,104788, Control_c, 0, 64, 124
2,104985, Control_c, 0, 64, 127
2,105296, Control_c, 0, 64, 124
2,105311, Control_c, 0, 64, 106
2,105326, Control_c, 0, 64, 91
2,105334, Note_on_c, 0, 61, 0
2,105339, Note_on_c, 0, 65, 0
2,105341, Control_c, 0, 64, 76
2,105343, Note_on_c, 0, 73, 0
2,105349, Note_on_c, 0, 68, 0
2,105350, Note_on_c, 0, 37, 0
2,105356, Control_c, 0, 64, 65
2,105373, Control_c, 0, 64, 47
2,105388, Control_c, 0, 64, 0
2,105389, End_track
0, 0, End_of_file
