0, 0, Header, 1, 2, 384
1, 0, Start_track
1, 0, Tempo, 500000
1, 0, Time_signature, 4, 2, 24, 8
1, 1, End_track
2, 0, Start_track
2, 0, Title_t, "7.7.13 Group 1"
2, 0, Program_c, 0, 0
2, 0, Control_c, 0, 64, 0
2, 0, Control_c, 0, 66, 0
2, 0, Control_c, 0, 67, 0
2, 764, Note_on_c, 0, 77, 56
2, 767, Note_on_c, 0, 49, 32
2, 835, Note_on_c, 0, 77, 0
2, 851, Note_on_c, 0, 73, 58
2, 901, Note_on_c, 0, 73, 0
2, 927, Note_on_c, 0, 68, 58
2, 974, Note_on_c, 0, 68, 0
2, 1010, Note_on_c, 0, 73, 62
2, 1056, Note_on_c, 0, 73, 0
2, 1061, Note_on_c, 0, 61, 52
2, 1071, Note_on_c, 0, 77, 68
2, 1076, Note_on_c, 0, 49, 0
2, 1102, Note_on_c, 0, 61, 0
2, 1125, Note_on_c, 0, 77, 0
2, 1163, Note_on_c, 0, 73, 67
2, 1222, Note_on_c, 0, 73, 0
2, 1247, Note_on_c, 0, 51, 43
2, 1248, Note_on_c, 0, 78, 67
2, 1321, Note_on_c, 0, 78, 0
2, 1341, Note_on_c, 0, 73, 62
2, 1412, Note_on_c, 0, 73, 0
2, 1424, Note_on_c, 0, 78, 68
2, 1490, Note_on_c, 0, 78, 0
2, 1496, Note_on_c, 0, 73, 69
2, 1564, Note_on_c, 0, 73, 0
2, 1570, Note_on_c, 0, 61, 53
2, 1580, Note_on_c, 0, 78, 73
2, 1582, Note_on_c, 0, 51, 0
2, 1610, Note_on_c, 0, 61, 0
2, 1654, Note_on_c, 0, 78, 0
2, 1666, Note_on_c, 0, 73, 67
2, 1734, Note_on_c, 0, 73, 0
2, 1741, Note_on_c, 0, 53, 48
2, 1746, Note_on_c, 0, 80, 72
2, 1820, Note_on_c, 0, 80, 0
2, 1833, Note_on_c, 0, 73, 74
2, 1896, Note_on_c, 0, 73, 0
2, 1915, Note_on_c, 0, 80, 77
2, 1981, Note_on_c, 0, 80, 0
2, 1991, Note_on_c, 0, 73, 71
2, 2044, Note_on_c, 0, 73, 0
2, 2070, Note_on_c, 0, 80, 78
2, 2078, Note_on_c, 0, 61, 57
2, 2099, Note_on_c, 0, 53, 0
2, 2120, Note_on_c, 0, 61, 0
2, 2147, Note_on_c, 0, 80, 0
2, 2160, Note_on_c, 0, 73, 67
2, 2239, Note_on_c, 0, 73, 0
2, 2259, Note_on_c, 0, 82, 76
2, 2263, Note_on_c, 0, 54, 54
2, 2333, Note_on_c, 0, 82, 0
2, 2354, Note_on_c, 0, 73, 69
2, 2407, Note_on_c, 0, 73, 0
2, 2434, Note_on_c, 0, 82, 79
2, 2493, Note_on_c, 0, 82, 0
2, 2511, Note_on_c, 0, 73, 70
2, 2553, Note_on_c, 0, 73, 0
2, 2600, Note_on_c, 0, 82, 72
2, 2610, Note_on_c, 0, 61, 50
2, 2623, Note_on_c, 0, 54, 0
2, 2644, Note_on_c, 0, 61, 0
2, 2656, Note_on_c, 0, 82, 0
2, 2679, Note_on_c, 0, 73, 65
2, 2746, Note_on_c, 0, 73, 0
2, 2792, Note_on_c, 0, 80, 67
2, 2796, Note_on_c, 0, 53, 47
2, 2846, Note_on_c, 0, 80, 0
2, 2872, Note_on_c, 0, 73, 62
2, 2930, Note_on_c, 0, 73, 0
2, 2970, Note_on_c, 0, 80, 64
2, 3007, Note_on_c, 0, 80, 0
2, 3038, Note_on_c, 0, 73, 71
2, 3084, Note_on_c, 0, 73, 0
2, 3126, Note_on_c, 0, 61, 59
2, 3126, Note_on_c, 0, 80, 65
2, 3165, Note_on_c, 0, 61, 0
2, 3188, Note_on_c, 0, 80, 0
2, 3203, Note_on_c, 0, 53, 0
2, 3213, Note_on_c, 0, 73, 65
2, 3261, Note_on_c, 0, 73, 0
2, 3302, Note_on_c, 0, 78, 65
2, 3312, Note_on_c, 0, 51, 43
2, 3388, Note_on_c, 0, 78, 0
2, 3393, Note_on_c, 0, 77, 68
2, 3465, Note_on_c, 0, 77, 0
2, 3468, Note_on_c, 0, 75, 72
2, 3535, Note_on_c, 0, 77, 74
2, 3541, Note_on_c, 0, 75, 0
2, 3625, Note_on_c, 0, 51, 0
2, 3628, Note_on_c, 0, 78, 72
2, 3630, Note_on_c, 0, 77, 0
2, 3632, Note_on_c, 0, 60, 55
2, 3663, Note_on_c, 0, 60, 0
2, 3700, Note_on_c, 0, 78, 0
2, 3717, Note_on_c, 0, 75, 65
2, 3791, Note_on_c, 0, 75, 0
2, 3804, Note_on_c, 0, 77, 71
2, 3808, Note_on_c, 0, 49, 55
2, 3835, Note_on_c, 0, 49, 0
2, 3887, Note_on_c, 0, 77, 0
2, 3891, Note_on_c, 0, 75, 79
2, 3953, Note_on_c, 0, 75, 0
2, 3967, Note_on_c, 0, 73, 76
2, 4048, Note_on_c, 0, 75, 74
2, 4057, Note_on_c, 0, 73, 0
2, 4120, Note_on_c, 0, 75, 0
2, 4122, Note_on_c, 0, 77, 72
2, 4123, Note_on_c, 0, 61, 63
2, 4192, Note_on_c, 0, 77, 0
2, 4198, Note_on_c, 0, 73, 71
2, 4278, Note_on_c, 0, 75, 71
2, 4284, Note_on_c, 0, 73, 0
2, 4345, Note_on_c, 0, 75, 0
2, 4351, Note_on_c, 0, 77, 69
2, 4420, Note_on_c, 0, 61, 0
2, 4428, Note_on_c, 0, 77, 0
2, 4431, Note_on_c, 0, 75, 73
2, 4448, Note_on_c, 0, 60, 59
2, 4504, Note_on_c, 0, 75, 0
2, 4506, Note_on_c, 0, 73, 72
2, 4516, Note_on_c, 0, 60, 0
2, 4529, Note_on_c, 0, 58, 59
2, 4570, Note_on_c, 0, 73, 0
2, 4579, Note_on_c, 0, 58, 0
2, 4581, Note_on_c, 0, 72, 66
2, 4603, Note_on_c, 0, 56, 52
2, 4616, Note_on_c, 0, 72, 0
2, 4655, Note_on_c, 0, 56, 0
2, 4656, Note_on_c, 0, 70, 65
2, 4685, Note_on_c, 0, 58, 57
2, 4714, Note_on_c, 0, 58, 0
2, 4728, Note_on_c, 0, 70, 0
2, 4757, Note_on_c, 0, 60, 45
2, 4758, Note_on_c, 0, 68, 58
2, 4810, Note_on_c, 0, 60, 0
2, 4839, Note_on_c, 0, 56, 53
2, 4888, Note_on_c, 0, 56, 0
2, 4926, Note_on_c, 0, 51, 49
2, 4985, Note_on_c, 0, 51, 0
2, 5004, Note_on_c, 0, 56, 44
2, 5051, Note_on_c, 0, 56, 0
2, 5053, Note_on_c, 0, 68, 0
2, 5070, Note_on_c, 0, 60, 49
2, 5082, Note_on_c, 0, 80, 59
2, 5101, Note_on_c, 0, 60, 0
2, 5110, Note_on_c, 0, 80, 0
2, 5151, Note_on_c, 0, 56, 49
2, 5207, Note_on_c, 0, 56, 0
2, 5252, Note_on_c, 0, 61, 53
2, 5259, Note_on_c, 0, 70, 48
2, 5325, Note_on_c, 0, 61, 0
2, 5335, Note_on_c, 0, 56, 56
2, 5408, Note_on_c, 0, 56, 0
2, 5437, Note_on_c, 0, 61, 63
2, 5492, Note_on_c, 0, 61, 0
2, 5519, Note_on_c, 0, 56, 59
2, 5548, Note_on_c, 0, 70, 0
2, 5559, Note_on_c, 0, 56, 0
2, 5560, Note_on_c, 0, 80, 60
2, 5598, Note_on_c, 0, 80, 0
2, 5599, Note_on_c, 0, 61, 66
2, 5649, Note_on_c, 0, 61, 0
2, 5660, Note_on_c, 0, 56, 63
2, 5718, Note_on_c, 0, 56, 0
2, 5755, Note_on_c, 0, 63, 62
2, 5755, Note_on_c, 0, 72, 66
2, 5822, Note_on_c, 0, 63, 0
2, 5838, Note_on_c, 0, 56, 62
2, 5893, Note_on_c, 0, 56, 0
2, 5925, Note_on_c, 0, 63, 71
2, 5996, Note_on_c, 0, 63, 0
2, 6003, Note_on_c, 0, 56, 64
2, 6052, Note_on_c, 0, 56, 0
2, 6059, Note_on_c, 0, 72, 0
2, 6079, Note_on_c, 0, 63, 69
2, 6080, Note_on_c, 0, 80, 64
2, 6113, Note_on_c, 0, 80, 0
2, 6155, Note_on_c, 0, 63, 0
2, 6164, Note_on_c, 0, 56, 66
2, 6229, Note_on_c, 0, 56, 0
2, 6258, Note_on_c, 0, 73, 67
2, 6262, Note_on_c, 0, 65, 65
2, 6345, Note_on_c, 0, 65, 0
2, 6351, Note_on_c, 0, 56, 66
2, 6421, Note_on_c, 0, 56, 0
2, 6447, Note_on_c, 0, 65, 74
2, 6508, Note_on_c, 0, 65, 0
2, 6525, Note_on_c, 0, 56, 68
2, 6563, Note_on_c, 0, 56, 0
2, 6584, Note_on_c, 0, 80, 67
2, 6589, Note_on_c, 0, 65, 65
2, 6592, Note_on_c, 0, 73, 0
2, 6625, Note_on_c, 0, 65, 0
2, 6631, Note_on_c, 0, 80, 0
2, 6678, Note_on_c, 0, 56, 55
2, 6724, Note_on_c, 0, 56, 0
2, 6764, Note_on_c, 0, 63, 64
2, 6764, Note_on_c, 0, 72, 64
2, 6819, Note_on_c, 0, 63, 0
2, 6834, Note_on_c, 0, 56, 58
2, 6907, Note_on_c, 0, 56, 0
2, 6934, Note_on_c, 0, 63, 62
2, 7003, Note_on_c, 0, 63, 0
2, 7015, Note_on_c, 0, 56, 54
2, 7059, Note_on_c, 0, 56, 0
2, 7076, Note_on_c, 0, 80, 67
2, 7084, Note_on_c, 0, 72, 0
2, 7096, Note_on_c, 0, 63, 59
2, 7113, Note_on_c, 0, 80, 0
2, 7143, Note_on_c, 0, 63, 0
2, 7162, Note_on_c, 0, 56, 56
2, 7208, Note_on_c, 0, 56, 0
2, 7247, Note_on_c, 0, 70, 57
2, 7253, Note_on_c, 0, 61, 60
2, 7326, Note_on_c, 0, 61, 0
2, 7347, Note_on_c, 0, 60, 62
2, 7421, Note_on_c, 0, 60, 0
2, 7432, Note_on_c, 0, 58, 62
2, 7501, Note_on_c, 0, 58, 0
2, 7510, Note_on_c, 0, 60, 65
2, 7582, Note_on_c, 0, 70, 0
2, 7584, Note_on_c, 0, 60, 0
2, 7586, Note_on_c, 0, 79, 70
2, 7589, Note_on_c, 0, 61, 66
2, 7614, Note_on_c, 0, 79, 0
2, 7653, Note_on_c, 0, 61, 0
2, 7668, Note_on_c, 0, 58, 64
2, 7735, Note_on_c, 0, 58, 0
2, 7751, Note_on_c, 0, 68, 75
2, 7760, Note_on_c, 0, 60, 64
2, 7776, Note_on_c, 0, 68, 0
2, 7809, Note_on_c, 0, 60, 0
2, 7843, Note_on_c, 0, 58, 67
2, 7913, Note_on_c, 0, 58, 0
2, 7927, Note_on_c, 0, 56, 64
2, 7994, Note_on_c, 0, 56, 0
2, 8005, Note_on_c, 0, 58, 62
2, 8075, Note_on_c, 0, 58, 0
2, 8078, Note_on_c, 0, 80, 79
2, 8091, Note_on_c, 0, 60, 63
2, 8144, Note_on_c, 0, 60, 0
2, 8169, Note_on_c, 0, 56, 58
2, 8250, Note_on_c, 0, 56, 0
2, 8253, Note_on_c, 0, 58, 59
2, 8311, Note_on_c, 0, 58, 0
2, 8333, Note_on_c, 0, 59, 64
2, 8399, Note_on_c, 0, 59, 0
2, 8418, Note_on_c, 0, 58, 65
2, 8425, Note_on_c, 0, 78, 63
2, 8466, Note_on_c, 0, 80, 0
2, 8483, Note_on_c, 0, 56, 59
2, 8491, Note_on_c, 0, 58, 0
2, 8506, Note_on_c, 0, 77, 71
2, 8506, Note_on_c, 0, 78, 0
2, 8571, Note_on_c, 0, 77, 0
2, 8576, Note_on_c, 0, 54, 59
2, 8578, Note_on_c, 0, 75, 71
2, 8580, Note_on_c, 0, 56, 0
2, 8614, Note_on_c, 0, 54, 0
2, 8637, Note_on_c, 0, 53, 49
2, 8645, Note_on_c, 0, 75, 0
2, 8647, Note_on_c, 0, 77, 63
2, 8706, Note_on_c, 0, 53, 0
2, 8731, Note_on_c, 0, 77, 0
2, 8745, Note_on_c, 0, 78, 58
2, 8750, Note_on_c, 0, 51, 46
2, 8819, Note_on_c, 0, 78, 0
2, 8836, Note_on_c, 0, 75, 58
2, 8899, Note_on_c, 0, 75, 0
2, 8918, Note_on_c, 0, 70, 58
2, 8973, Note_on_c, 0, 70, 0
2, 9004, Note_on_c, 0, 75, 56
2, 9072, Note_on_c, 0, 75, 0
2, 9091, Note_on_c, 0, 78, 59
2, 9094, Note_on_c, 0, 63, 50
2, 9099, Note_on_c, 0, 51, 0
2, 9118, Note_on_c, 0, 63, 0
2, 9150, Note_on_c, 0, 78, 0
2, 9188, Note_on_c, 0, 75, 55
2, 9226, Note_on_c, 0, 75, 0
2, 9253, Note_on_c, 0, 53, 42
2, 9270, Note_on_c, 0, 80, 61
2, 9343, Note_on_c, 0, 80, 0
2, 9347, Note_on_c, 0, 75, 52
2, 9432, Note_on_c, 0, 75, 0
2, 9439, Note_on_c, 0, 80, 61
2, 9510, Note_on_c, 0, 80, 0
2, 9515, Note_on_c, 0, 75, 66
2, 9576, Note_on_c, 0, 75, 0
2, 9588, Note_on_c, 0, 63, 49
2, 9598, Note_on_c, 0, 80, 67
2, 9628, Note_on_c, 0, 53, 0
2, 9629, Note_on_c, 0, 63, 0
2, 9671, Note_on_c, 0, 80, 0
2, 9684, Note_on_c, 0, 75, 67
2, 9759, Note_on_c, 0, 75, 0
2, 9769, Note_on_c, 0, 82, 73
2, 9773, Note_on_c, 0, 54, 50
2, 9855, Note_on_c, 0, 82, 0
2, 9867, Note_on_c, 0, 75, 71
2, 9932, Note_on_c, 0, 75, 0
2, 9950, Note_on_c, 0, 82, 76
2, 10018, Note_on_c, 0, 82, 0
2, 10028, Note_on_c, 0, 75, 71
2, 10089, Note_on_c, 0, 75, 0
2, 10107, Note_on_c, 0, 63, 57
2, 10111, Note_on_c, 0, 82, 80
2, 10153, Note_on_c, 0, 63, 0
2, 10158, Note_on_c, 0, 54, 0
2, 10184, Note_on_c, 0, 82, 0
2, 10192, Note_on_c, 0, 75, 75
2, 10262, Note_on_c, 0, 75, 0
2, 10282, Note_on_c, 0, 56, 50
2, 10295, Note_on_c, 0, 83, 76
2, 10363, Note_on_c, 0, 83, 0
2, 10378, Note_on_c, 0, 75, 71
2, 10428, Note_on_c, 0, 75, 0
2, 10460, Note_on_c, 0, 83, 78
2, 10524, Note_on_c, 0, 83, 0
2, 10538, Note_on_c, 0, 75, 72
2, 10583, Note_on_c, 0, 75, 0
2, 10631, Note_on_c, 0, 63, 47
2, 10634, Note_on_c, 0, 83, 72
2, 10663, Note_on_c, 0, 63, 0
2, 10690, Note_on_c, 0, 56, 0
2, 10692, Note_on_c, 0, 83, 0
2, 10707, Note_on_c, 0, 75, 64
2, 10775, Note_on_c, 0, 75, 0
2, 10807, Note_on_c, 0, 82, 64
2, 10811, Note_on_c, 0, 54, 48
2, 10867, Note_on_c, 0, 82, 0
2, 10899, Note_on_c, 0, 75, 59
2, 10950, Note_on_c, 0, 75, 0
2, 10983, Note_on_c, 0, 82, 65
2, 11023, Note_on_c, 0, 82, 0
2, 11066, Note_on_c, 0, 75, 63
2, 11105, Note_on_c, 0, 75, 0
2, 11134, Note_on_c, 0, 63, 48
2, 11139, Note_on_c, 0, 82, 65
2, 11159, Note_on_c, 0, 63, 0
2, 11187, Note_on_c, 0, 82, 0
2, 11213, Note_on_c, 0, 54, 0
2, 11223, Note_on_c, 0, 75, 60
2, 11266, Note_on_c, 0, 75, 0
2, 11304, Note_on_c, 0, 80, 66
2, 11307, Note_on_c, 0, 53, 42
2, 11404, Note_on_c, 0, 80, 0
2, 11405, Note_on_c, 0, 78, 70
2, 11467, Note_on_c, 0, 78, 0
2, 11479, Note_on_c, 0, 77, 69
2, 11560, Note_on_c, 0, 78, 77
2, 11590, Note_on_c, 0, 77, 0
2, 11637, Note_on_c, 0, 78, 0
2, 11637, Note_on_c, 0, 80, 72
2, 11638, Note_on_c, 0, 53, 0
2, 11651, Note_on_c, 0, 62, 46
2, 11674, Note_on_c, 0, 62, 0
2, 11709, Note_on_c, 0, 80, 0
2, 11719, Note_on_c, 0, 77, 73
2, 11790, Note_on_c, 0, 77, 0
2, 11806, Note_on_c, 0, 78, 71
2, 11814, Note_on_c, 0, 51, 61
2, 11852, Note_on_c, 0, 51, 0
2, 11900, Note_on_c, 0, 77, 76
2, 11902, Note_on_c, 0, 78, 0
2, 11964, Note_on_c, 0, 77, 0
2, 11972, Note_on_c, 0, 75, 76
2, 12047, Note_on_c, 0, 77, 78
2, 12052, Note_on_c, 0, 75, 0
2, 12140, Note_on_c, 0, 63, 62
2, 12146, Note_on_c, 0, 77, 0
2, 12148, Note_on_c, 0, 78, 72
2, 12228, Note_on_c, 0, 75, 67
2, 12230, Note_on_c, 0, 78, 0
2, 12301, Note_on_c, 0, 75, 0
2, 12313, Note_on_c, 0, 77, 66
2, 12372, Note_on_c, 0, 77, 0
2, 12387, Note_on_c, 0, 78, 70
2, 12451, Note_on_c, 0, 78, 0
2, 12467, Note_on_c, 0, 77, 65
2, 12473, Note_on_c, 0, 63, 0
2, 12476, Note_on_c, 0, 61, 59
2, 12526, Note_on_c, 0, 77, 0
2, 12535, Note_on_c, 0, 61, 0
2, 12539, Note_on_c, 0, 75, 63
2, 12554, Note_on_c, 0, 60, 59
2, 12595, Note_on_c, 0, 60, 0
2, 12616, Note_on_c, 0, 75, 0
2, 12622, Note_on_c, 0, 73, 63
2, 12624, Note_on_c, 0, 58, 52
2, 12679, Note_on_c, 0, 58, 0
2, 12684, Note_on_c, 0, 73, 0
2, 12699, Note_on_c, 0, 60, 57
2, 12699, Note_on_c, 0, 72, 59
2, 12736, Note_on_c, 0, 60, 0
2, 12752, Note_on_c, 0, 72, 0
2, 12774, Note_on_c, 0, 61, 53
2, 12803, Note_on_c, 0, 70, 42
2, 12830, Note_on_c, 0, 61, 0
2, 12858, Note_on_c, 0, 58, 57
2, 12928, Note_on_c, 0, 58, 0
2, 12959, Note_on_c, 0, 53, 49
2, 13021, Note_on_c, 0, 53, 0
2, 13043, Note_on_c, 0, 58, 50
2, 13079, Note_on_c, 0, 58, 0
2, 13088, Note_on_c, 0, 70, 0
2, 13101, Note_on_c, 0, 61, 55
2, 13107, Note_on_c, 0, 82, 56
2, 13142, Note_on_c, 0, 82, 0
2, 13147, Note_on_c, 0, 61, 0
2, 13175, Note_on_c, 0, 58, 56
2, 13230, Note_on_c, 0, 58, 0
2, 13275, Note_on_c, 0, 63, 51
2, 13277, Note_on_c, 0, 72, 57
2, 13334, Note_on_c, 0, 63, 0
2, 13353, Note_on_c, 0, 58, 53
2, 13423, Note_on_c, 0, 58, 0
2, 13448, Note_on_c, 0, 63, 61
2, 13509, Note_on_c, 0, 63, 0
2, 13517, Note_on_c, 0, 58, 55
2, 13574, Note_on_c, 0, 58, 0
2, 13574, Note_on_c, 0, 72, 0
2, 13607, Note_on_c, 0, 82, 66
2, 13610, Note_on_c, 0, 63, 61
2, 13640, Note_on_c, 0, 82, 0
2, 13682, Note_on_c, 0, 63, 0
2, 13687, Note_on_c, 0, 58, 64
2, 13748, Note_on_c, 0, 58, 0
2, 13781, Note_on_c, 0, 73, 66
2, 13784, Note_on_c, 0, 65, 59
2, 13856, Note_on_c, 0, 65, 0
2, 13866, Note_on_c, 0, 58, 66
2, 13937, Note_on_c, 0, 58, 0
2, 13963, Note_on_c, 0, 65, 73
2, 14028, Note_on_c, 0, 65, 0
2, 14035, Note_on_c, 0, 58, 67
2, 14084, Note_on_c, 0, 58, 0
2, 14102, Note_on_c, 0, 73, 0
2, 14105, Note_on_c, 0, 82, 73
2, 14110, Note_on_c, 0, 65, 65
2, 14141, Note_on_c, 0, 82, 0
2, 14161, Note_on_c, 0, 65, 0
2, 14198, Note_on_c, 0, 58, 61
2, 14250, Note_on_c, 0, 58, 0
2, 14279, Note_on_c, 0, 66, 68
2, 14281, Note_on_c, 0, 75, 74
2, 14362, Note_on_c, 0, 66, 0
2, 14373, Note_on_c, 0, 58, 61
2, 14441, Note_on_c, 0, 58, 0
2, 14471, Note_on_c, 0, 66, 67
2, 14531, Note_on_c, 0, 66, 0
2, 14549, Note_on_c, 0, 58, 63
2, 14587, Note_on_c, 0, 58, 0
2, 14614, Note_on_c, 0, 75, 0
2, 14615, Note_on_c, 0, 82, 66
2, 14616, Note_on_c, 0, 66, 70
2, 14674, Note_on_c, 0, 82, 0
2, 14696, Note_on_c, 0, 58, 58
2, 14701, Note_on_c, 0, 66, 0
2, 14762, Note_on_c, 0, 58, 0
2, 14797, Note_on_c, 0, 65, 60
2, 14806, Note_on_c, 0, 73, 60
2, 14862, Note_on_c, 0, 65, 0
2, 14881, Note_on_c, 0, 58, 62
2, 14923, Note_on_c, 0, 58, 0
2, 14975, Note_on_c, 0, 65, 63
2, 15017, Note_on_c, 0, 65, 0
2, 15037, Note_on_c, 0, 58, 65
2, 15082, Note_on_c, 0, 58, 0
2, 15123, Note_on_c, 0, 65, 60
2, 15132, Note_on_c, 0, 82, 70
2, 15136, Note_on_c, 0, 73, 0
2, 15160, Note_on_c, 0, 65, 0
2, 15209, Note_on_c, 0, 58, 56
2, 15219, Note_on_c, 0, 82, 0
2, 15256, Note_on_c, 0, 58, 0
2, 15295, Note_on_c, 0, 63, 62
2, 15311, Note_on_c, 0, 72, 63
2, 15375, Note_on_c, 0, 63, 0
2, 15382, Note_on_c, 0, 61, 63
2, 15482, Note_on_c, 0, 60, 49
2, 15500, Note_on_c, 0, 61, 0
2, 15534, Note_on_c, 0, 61, 54
2, 15537, Note_on_c, 0, 60, 0
2, 15604, Note_on_c, 0, 61, 0
2, 15614, Note_on_c, 0, 63, 70
2, 15627, Note_on_c, 0, 72, 0
2, 15631, Note_on_c, 0, 81, 63
2, 15659, Note_on_c, 0, 81, 0
2, 15671, Note_on_c, 0, 63, 0
2, 15696, Note_on_c, 0, 60, 64
2, 15757, Note_on_c, 0, 60, 0
2, 15794, Note_on_c, 0, 61, 70
2, 15801, Note_on_c, 0, 70, 73
2, 15827, Note_on_c, 0, 70, 0
2, 15835, Note_on_c, 0, 61, 0
2, 15879, Note_on_c, 0, 60, 66
2, 15948, Note_on_c, 0, 60, 0
2, 15974, Note_on_c, 0, 58, 65
2, 16034, Note_on_c, 0, 58, 0
2, 16045, Note_on_c, 0, 60, 63
2, 16102, Note_on_c, 0, 60, 0
2, 16130, Note_on_c, 0, 61, 64
2, 16135, Note_on_c, 0, 82, 80
2, 16205, Note_on_c, 0, 61, 0
2, 16216, Note_on_c, 0, 58, 62
2, 16270, Note_on_c, 0, 58, 0
2, 16316, Note_on_c, 0, 64, 71
2, 16356, Note_on_c, 0, 64, 0
2, 16392, Note_on_c, 0, 62, 63
2, 16442, Note_on_c, 0, 62, 0
2, 16462, Note_on_c, 0, 80, 72
2, 16462, Note_on_c, 0, 82, 0
2, 16469, Note_on_c, 0, 60, 62
2, 16494, Note_on_c, 0, 80, 0
2, 16517, Note_on_c, 0, 60, 0
2, 16558, Note_on_c, 0, 62, 47
2, 16583, Note_on_c, 0, 62, 0
2, 16616, Note_on_c, 0, 64, 59
2, 16619, Note_on_c, 0, 79, 80
2, 16646, Note_on_c, 0, 64, 0
2, 16647, Note_on_c, 0, 79, 0
2, 16697, Note_on_c, 0, 60, 63
2, 16757, Note_on_c, 0, 60, 0
2, 16792, Note_on_c, 0, 80, 78
2, 16797, Note_on_c, 0, 65, 64
2, 16822, Note_on_c, 0, 80, 0
2, 16847, Note_on_c, 0, 65, 0
2, 16876, Note_on_c, 0, 64, 62
2, 16939, Note_on_c, 0, 64, 0
2, 16947, Note_on_c, 0, 68, 71
2, 16955, Note_on_c, 0, 65, 65
2, 16974, Note_on_c, 0, 68, 0
2, 17010, Note_on_c, 0, 65, 0
2, 17040, Note_on_c, 0, 67, 64
2, 17113, Note_on_c, 0, 67, 0
2, 17129, Note_on_c, 0, 80, 72
2, 17134, Note_on_c, 0, 65, 65
2, 17208, Note_on_c, 0, 65, 0
2, 17216, Note_on_c, 0, 63, 66
2, 17277, Note_on_c, 0, 63, 0
2, 17301, Note_on_c, 0, 62, 68
2, 17370, Note_on_c, 0, 62, 0
2, 17388, Note_on_c, 0, 60, 65
2, 17456, Note_on_c, 0, 60, 0
2, 17465, Note_on_c, 0, 58, 54
2, 17470, Note_on_c, 0, 78, 75
2, 17486, Note_on_c, 0, 80, 0
2, 17496, Note_on_c, 0, 78, 0
2, 17530, Note_on_c, 0, 58, 0
2, 17571, Note_on_c, 0, 60, 50
2, 17626, Note_on_c, 0, 60, 0
2, 17635, Note_on_c, 0, 62, 64
2, 17657, Note_on_c, 0, 77, 73
2, 17685, Note_on_c, 0, 77, 0
2, 17694, Note_on_c, 0, 62, 0
2, 17712, Note_on_c, 0, 58, 71
2, 17791, Note_on_c, 0, 58, 0
2, 17816, Note_on_c, 0, 63, 80
2, 17828, Note_on_c, 0, 78, 66
2, 17841, Note_on_c, 0, 63, 0
2, 17896, Note_on_c, 0, 77, 70
2, 17904, Note_on_c, 0, 78, 0
2, 17968, Note_on_c, 0, 77, 0
2, 17978, Note_on_c, 0, 51, 74
2, 17982, Note_on_c, 0, 75, 70
2, 18008, Note_on_c, 0, 51, 0
2, 18064, Note_on_c, 0, 77, 69
2, 18067, Note_on_c, 0, 75, 0
2, 18134, Note_on_c, 0, 77, 0
2, 18151, Note_on_c, 0, 78, 66
2, 18152, Note_on_c, 0, 63, 79
2, 18235, Note_on_c, 0, 75, 65
2, 18241, Note_on_c, 0, 78, 0
2, 18336, Note_on_c, 0, 81, 71
2, 18337, Note_on_c, 0, 75, 0
2, 18421, Note_on_c, 0, 79, 70
2, 18429, Note_on_c, 0, 81, 0
2, 18463, Note_on_c, 0, 79, 0
2, 18494, Note_on_c, 0, 63, 0
2, 18499, Note_on_c, 0, 77, 65
2, 18510, Note_on_c, 0, 61, 77
2, 18541, Note_on_c, 0, 61, 0
2, 18555, Note_on_c, 0, 77, 0
2, 18574, Note_on_c, 0, 79, 72
2, 18658, Note_on_c, 0, 79, 0
2, 18659, Note_on_c, 0, 81, 75
2, 18666, Note_on_c, 0, 60, 84
2, 18693, Note_on_c, 0, 60, 0
2, 18733, Note_on_c, 0, 81, 0
2, 18747, Note_on_c, 0, 77, 74
2, 18794, Note_on_c, 0, 77, 0
2, 18834, Note_on_c, 0, 61, 91
2, 18848, Note_on_c, 0, 82, 65
2, 18873, Note_on_c, 0, 61, 0
2, 18926, Note_on_c, 0, 82, 0
2, 18932, Note_on_c, 0, 81, 71
2, 18998, Note_on_c, 0, 49, 77
2, 19005, Note_on_c, 0, 81, 0
2, 19012, Note_on_c, 0, 82, 72
2, 19024, Note_on_c, 0, 49, 0
2, 19097, Note_on_c, 0, 82, 0
2, 19099, Note_on_c, 0, 84, 75
2, 19191, Note_on_c, 0, 61, 74
2, 19195, Note_on_c, 0, 82, 75
2, 19205, Note_on_c, 0, 84, 0
2, 19267, Note_on_c, 0, 80, 77
2, 19311, Note_on_c, 0, 82, 0
2, 19349, Note_on_c, 0, 80, 0
2, 19354, Note_on_c, 0, 79, 81
2, 19438, Note_on_c, 0, 77, 81
2, 19443, Note_on_c, 0, 79, 0
2, 19519, Note_on_c, 0, 75, 83
2, 19519, Note_on_c, 0, 77, 0
2, 19529, Note_on_c, 0, 61, 0
2, 19530, Note_on_c, 0, 60, 71
2, 19559, Note_on_c, 0, 60, 0
2, 19599, Note_on_c, 0, 75, 0
2, 19601, Note_on_c, 0, 77, 82
2, 19684, Note_on_c, 0, 58, 68
2, 19685, Note_on_c, 0, 79, 81
2, 19688, Note_on_c, 0, 77, 0
2, 19720, Note_on_c, 0, 58, 0
2, 19754, Note_on_c, 0, 75, 80
2, 19754, Note_on_c, 0, 79, 0
2, 19851, Note_on_c, 0, 60, 57
2, 19851, Note_on_c, 0, 75, 0
2, 19851, Note_on_c, 0, 80, 86
2, 19878, Note_on_c, 0, 80, 0
2, 19901, Note_on_c, 0, 60, 0
2, 19954, Note_on_c, 0, 58, 55
2, 20018, Note_on_c, 0, 68, 75
2, 20024, Note_on_c, 0, 58, 0
2, 20033, Note_on_c, 0, 56, 56
2, 20040, Note_on_c, 0, 68, 0
2, 20091, Note_on_c, 0, 56, 0
2, 20102, Note_on_c, 0, 58, 50
2, 20156, Note_on_c, 0, 58, 0
2, 20185, Note_on_c, 0, 60, 60
2, 20199, Note_on_c, 0, 80, 83
2, 20274, Note_on_c, 0, 60, 0
2, 20286, Note_on_c, 0, 56, 59
2, 20333, Note_on_c, 0, 56, 0
2, 20380, Note_on_c, 0, 62, 63
2, 20418, Note_on_c, 0, 62, 0
2, 20446, Note_on_c, 0, 60, 66
2, 20512, Note_on_c, 0, 60, 0
2, 20529, Note_on_c, 0, 58, 61
2, 20540, Note_on_c, 0, 78, 73
2, 20548, Note_on_c, 0, 80, 0
2, 20568, Note_on_c, 0, 78, 0
2, 20607, Note_on_c, 0, 58, 0
2, 20631, Note_on_c, 0, 60, 53
2, 20690, Note_on_c, 0, 60, 0
2, 20703, Note_on_c, 0, 62, 55
2, 20707, Note_on_c, 0, 77, 71
2, 20735, Note_on_c, 0, 77, 0
2, 20748, Note_on_c, 0, 62, 0
2, 20773, Note_on_c, 0, 58, 57
2, 20824, Note_on_c, 0, 58, 0
2, 20857, Note_on_c, 0, 63, 59
2, 20870, Note_on_c, 0, 78, 74
2, 20895, Note_on_c, 0, 78, 0
2, 20926, Note_on_c, 0, 63, 0
2, 20945, Note_on_c, 0, 62, 58
2, 21011, Note_on_c, 0, 62, 0
2, 21027, Note_on_c, 0, 66, 75
2, 21036, Note_on_c, 0, 63, 58
2, 21055, Note_on_c, 0, 66, 0
2, 21078, Note_on_c, 0, 63, 0
2, 21119, Note_on_c, 0, 65, 54
2, 21166, Note_on_c, 0, 65, 0
2, 21194, Note_on_c, 0, 63, 59
2, 21203, Note_on_c, 0, 78, 73
2, 21277, Note_on_c, 0, 63, 0
2, 21287, Note_on_c, 0, 61, 63
2, 21350, Note_on_c, 0, 61, 0
2, 21381, Note_on_c, 0, 60, 64
2, 21441, Note_on_c, 0, 60, 0
2, 21464, Note_on_c, 0, 58, 65
2, 21531, Note_on_c, 0, 58, 0
2, 21540, Note_on_c, 0, 77, 66
2, 21545, Note_on_c, 0, 56, 58
2, 21553, Note_on_c, 0, 78, 0
2, 21568, Note_on_c, 0, 77, 0
2, 21615, Note_on_c, 0, 56, 0
2, 21631, Note_on_c, 0, 58, 62
2, 21674, Note_on_c, 0, 58, 0
2, 21698, Note_on_c, 0, 60, 66
2, 21711, Note_on_c, 0, 75, 71
2, 21738, Note_on_c, 0, 60, 0
2, 21739, Note_on_c, 0, 75, 0
2, 21772, Note_on_c, 0, 56, 62
2, 21836, Note_on_c, 0, 56, 0
2, 21870, Note_on_c, 0, 61, 68
2, 21880, Note_on_c, 0, 77, 63
2, 21899, Note_on_c, 0, 61, 0
2, 21956, Note_on_c, 0, 77, 0
2, 21958, Note_on_c, 0, 75, 72
2, 22025, Note_on_c, 0, 75, 0
2, 22035, Note_on_c, 0, 49, 68
2, 22039, Note_on_c, 0, 73, 72
2, 22066, Note_on_c, 0, 49, 0
2, 22133, Note_on_c, 0, 73, 0
2, 22137, Note_on_c, 0, 75, 69
2, 22216, Note_on_c, 0, 75, 0
2, 22217, Note_on_c, 0, 61, 67
2, 22217, Note_on_c, 0, 77, 64
2, 22300, Note_on_c, 0, 77, 0
2, 22301, Note_on_c, 0, 73, 64
2, 22387, Note_on_c, 0, 73, 0
2, 22390, Note_on_c, 0, 79, 74
2, 22475, Note_on_c, 0, 79, 0
2, 22479, Note_on_c, 0, 77, 67
2, 22530, Note_on_c, 0, 77, 0
2, 22544, Note_on_c, 0, 61, 0
2, 22552, Note_on_c, 0, 59, 70
2, 22556, Note_on_c, 0, 75, 71
2, 22577, Note_on_c, 0, 59, 0
2, 22619, Note_on_c, 0, 75, 0
2, 22637, Note_on_c, 0, 77, 73
2, 22703, Note_on_c, 0, 77, 0
2, 22716, Note_on_c, 0, 79, 69
2, 22719, Note_on_c, 0, 58, 69
2, 22755, Note_on_c, 0, 58, 0
2, 22772, Note_on_c, 0, 79, 0
2, 22798, Note_on_c, 0, 75, 69
2, 22839, Note_on_c, 0, 75, 0
2, 22896, Note_on_c, 0, 59, 63
2, 22904, Note_on_c, 0, 80, 60
2, 22925, Note_on_c, 0, 59, 0
2, 22965, Note_on_c, 0, 80, 0
2, 22988, Note_on_c, 0, 79, 64
2, 23048, Note_on_c, 0, 79, 0
2, 23060, Note_on_c, 0, 47, 55
2, 23061, Note_on_c, 0, 80, 56
2, 23090, Note_on_c, 0, 47, 0
2, 23127, Note_on_c, 0, 80, 0
2, 23140, Note_on_c, 0, 82, 64
2, 23228, Note_on_c, 0, 82, 0
2, 23246, Note_on_c, 0, 80, 63
2, 23249, Note_on_c, 0, 59, 53
2, 23321, Note_on_c, 0, 80, 0
2, 23333, Note_on_c, 0, 78, 61
2, 23405, Note_on_c, 0, 78, 0
2, 23422, Note_on_c, 0, 77, 63
2, 23483, Note_on_c, 0, 77, 0
2, 23501, Note_on_c, 0, 75, 60
2, 23568, Note_on_c, 0, 59, 0
2, 23568, Note_on_c, 0, 75, 0
2, 23582, Note_on_c, 0, 58, 56
2, 23594, Note_on_c, 0, 73, 62
2, 23616, Note_on_c, 0, 58, 0
2, 23668, Note_on_c, 0, 73, 0
2, 23687, Note_on_c, 0, 75, 59
2, 23750, Note_on_c, 0, 75, 0
2, 23756, Note_on_c, 0, 56, 49
2, 23772, Note_on_c, 0, 77, 56
2, 23791, Note_on_c, 0, 56, 0
2, 23825, Note_on_c, 0, 77, 0
2, 23855, Note_on_c, 0, 73, 44
2, 23969, Note_on_c, 0, 73, 0
2, 23975, Note_on_c, 0, 66, 42
2, 24040, Note_on_c, 0, 54, 46
2, 24081, Note_on_c, 0, 54, 0
2, 24126, Note_on_c, 0, 49, 38
2, 24185, Note_on_c, 0, 49, 0
2, 24189, Note_on_c, 0, 54, 51
2, 24241, Note_on_c, 0, 54, 0
2, 24254, Note_on_c, 0, 66, 0
2, 24279, Note_on_c, 0, 58, 47
2, 24294, Note_on_c, 0, 78, 44
2, 24324, Note_on_c, 0, 78, 0
2, 24337, Note_on_c, 0, 58, 0
2, 24364, Note_on_c, 0, 54, 40
2, 24431, Note_on_c, 0, 54, 0
2, 24481, Note_on_c, 0, 59, 38
2, 24488, Note_on_c, 0, 68, 50
2, 24530, Note_on_c, 0, 59, 0
2, 24563, Note_on_c, 0, 54, 49
2, 24620, Note_on_c, 0, 54, 0
2, 24659, Note_on_c, 0, 59, 52
2, 24713, Note_on_c, 0, 59, 0
2, 24738, Note_on_c, 0, 54, 50
2, 24782, Note_on_c, 0, 54, 0
2, 24822, Note_on_c, 0, 78, 62
2, 24832, Note_on_c, 0, 59, 47
2, 24854, Note_on_c, 0, 59, 0
2, 24866, Note_on_c, 0, 78, 0
2, 24887, Note_on_c, 0, 54, 56
2, 24909, Note_on_c, 0, 68, 0
2, 24943, Note_on_c, 0, 54, 0
2, 24998, Note_on_c, 0, 61, 47
2, 25012, Note_on_c, 0, 70, 60
2, 25049, Note_on_c, 0, 61, 0
2, 25078, Note_on_c, 0, 54, 48
2, 25142, Note_on_c, 0, 54, 0
2, 25177, Note_on_c, 0, 61, 55
2, 25250, Note_on_c, 0, 61, 0
2, 25264, Note_on_c, 0, 54, 54
2, 25309, Note_on_c, 0, 54, 0
2, 25343, Note_on_c, 0, 70, 0
2, 25353, Note_on_c, 0, 78, 63
2, 25357, Note_on_c, 0, 61, 58
2, 25403, Note_on_c, 0, 61, 0
2, 25405, Note_on_c, 0, 78, 0
2, 25432, Note_on_c, 0, 54, 51
2, 25500, Note_on_c, 0, 54, 0
2, 25537, Note_on_c, 0, 63, 56
2, 25543, Note_on_c, 0, 71, 64
2, 25591, Note_on_c, 0, 63, 0
2, 25628, Note_on_c, 0, 54, 50
2, 25676, Note_on_c, 0, 54, 0
2, 25711, Note_on_c, 0, 63, 61
2, 25772, Note_on_c, 0, 63, 0
2, 25796, Note_on_c, 0, 54, 49
2, 25841, Note_on_c, 0, 54, 0
2, 25865, Note_on_c, 0, 71, 0
2, 25878, Note_on_c, 0, 78, 61
2, 25891, Note_on_c, 0, 63, 55
2, 25926, Note_on_c, 0, 63, 0
2, 25937, Note_on_c, 0, 78, 0
2, 25979, Note_on_c, 0, 54, 41
2, 26026, Note_on_c, 0, 54, 0
2, 26066, Note_on_c, 0, 70, 54
2, 26074, Note_on_c, 0, 61, 50
2, 26130, Note_on_c, 0, 61, 0
2, 26148, Note_on_c, 0, 54, 50
2, 26196, Note_on_c, 0, 54, 0
2, 26234, Note_on_c, 0, 61, 63
2, 26312, Note_on_c, 0, 61, 0
2, 26318, Note_on_c, 0, 54, 48
2, 26359, Note_on_c, 0, 54, 0
2, 26394, Note_on_c, 0, 70, 0
2, 26395, Note_on_c, 0, 61, 54
2, 26395, Note_on_c, 0, 78, 59
2, 26437, Note_on_c, 0, 78, 0
2, 26469, Note_on_c, 0, 61, 0
2, 26472, Note_on_c, 0, 54, 49
2, 26539, Note_on_c, 0, 54, 0
2, 26577, Note_on_c, 0, 59, 51
2, 26581, Note_on_c, 0, 68, 52
2, 26634, Note_on_c, 0, 59, 0
2, 26675, Note_on_c, 0, 58, 58
2, 26744, Note_on_c, 0, 58, 0
2, 26761, Note_on_c, 0, 56, 55
2, 26843, Note_on_c, 0, 56, 0
2, 26857, Note_on_c, 0, 58, 54
2, 26900, Note_on_c, 0, 58, 0
2, 26911, Note_on_c, 0, 59, 55
2, 26911, Note_on_c, 0, 68, 0
2, 26926, Note_on_c, 0, 77, 68
2, 26941, Note_on_c, 0, 59, 0
2, 26952, Note_on_c, 0, 77, 0
2, 26998, Note_on_c, 0, 56, 52
2, 27047, Note_on_c, 0, 56, 0
2, 27079, Note_on_c, 0, 58, 58
2, 27083, Note_on_c, 0, 66, 66
2, 27111, Note_on_c, 0, 66, 0
2, 27123, Note_on_c, 0, 58, 0
2, 27161, Note_on_c, 0, 56, 54
2, 27230, Note_on_c, 0, 56, 0
2, 27251, Note_on_c, 0, 54, 58
2, 27321, Note_on_c, 0, 54, 0
2, 27339, Note_on_c, 0, 56, 63
2, 27392, Note_on_c, 0, 56, 0
2, 27409, Note_on_c, 0, 78, 78
2, 27413, Note_on_c, 0, 58, 62
2, 27474, Note_on_c, 0, 58, 0
2, 27511, Note_on_c, 0, 54, 59
2, 27570, Note_on_c, 0, 54, 0
2, 27590, Note_on_c, 0, 56, 61
2, 27631, Note_on_c, 0, 56, 0
2, 27661, Note_on_c, 0, 58, 53
2, 27709, Note_on_c, 0, 58, 0
2, 27723, Note_on_c, 0, 77, 61
2, 27733, Note_on_c, 0, 56, 55
2, 27768, Note_on_c, 0, 78, 0
2, 27794, Note_on_c, 0, 75, 69
2, 27797, Note_on_c, 0, 77, 0
2, 27809, Note_on_c, 0, 56, 0
2, 27816, Note_on_c, 0, 54, 49
2, 27856, Note_on_c, 0, 54, 0
2, 27858, Note_on_c, 0, 75, 0
2, 27872, Note_on_c, 0, 73, 67
2, 27881, Note_on_c, 0, 53, 55
2, 27927, Note_on_c, 0, 53, 0
2, 27942, Note_on_c, 0, 73, 0
2, 27957, Note_on_c, 0, 75, 60
2, 27960, Note_on_c, 0, 51, 46
2, 28039, Note_on_c, 0, 75, 0
2, 28046, Note_on_c, 0, 51, 0
2, 28069, Note_on_c, 0, 49, 45
2, 28071, Note_on_c, 0, 77, 56
2, 28141, Note_on_c, 0, 77, 0
2, 28154, Note_on_c, 0, 73, 56
2, 28207, Note_on_c, 0, 73, 0
2, 28239, Note_on_c, 0, 68, 51
2, 28303, Note_on_c, 0, 68, 0
2, 28328, Note_on_c, 0, 73, 62
2, 28382, Note_on_c, 0, 73, 0
2, 28404, Note_on_c, 0, 61, 48
2, 28406, Note_on_c, 0, 77, 62
2, 28410, Note_on_c, 0, 49, 0
2, 28437, Note_on_c, 0, 61, 0
2, 28453, Note_on_c, 0, 77, 0
2, 28496, Note_on_c, 0, 73, 58
2, 28538, Note_on_c, 0, 73, 0
2, 28572, Note_on_c, 0, 51, 38
2, 28578, Note_on_c, 0, 78, 61
2, 28657, Note_on_c, 0, 78, 0
2, 28661, Note_on_c, 0, 73, 60
2, 28730, Note_on_c, 0, 73, 0
2, 28751, Note_on_c, 0, 78, 69
2, 28820, Note_on_c, 0, 78, 0
2, 28833, Note_on_c, 0, 73, 71
2, 28884, Note_on_c, 0, 73, 0
2, 28908, Note_on_c, 0, 61, 50
2, 28913, Note_on_c, 0, 78, 75
2, 28944, Note_on_c, 0, 61, 0
2, 28954, Note_on_c, 0, 51, 0
2, 28978, Note_on_c, 0, 78, 0
2, 28990, Note_on_c, 0, 73, 72
2, 29064, Note_on_c, 0, 73, 0
2, 29088, Note_on_c, 0, 80, 73
2, 29089, Note_on_c, 0, 53, 46
2, 29155, Note_on_c, 0, 80, 0
2, 29173, Note_on_c, 0, 73, 70
2, 29250, Note_on_c, 0, 73, 0
2, 29258, Note_on_c, 0, 80, 79
2, 29333, Note_on_c, 0, 80, 0
2, 29338, Note_on_c, 0, 73, 76
2, 29398, Note_on_c, 0, 73, 0
2, 29420, Note_on_c, 0, 61, 57
2, 29422, Note_on_c, 0, 80, 79
2, 29458, Note_on_c, 0, 61, 0
2, 29468, Note_on_c, 0, 53, 0
2, 29488, Note_on_c, 0, 80, 0
2, 29501, Note_on_c, 0, 73, 71
2, 29578, Note_on_c, 0, 73, 0
2, 29592, Note_on_c, 0, 54, 54
2, 29597, Note_on_c, 0, 82, 78
2, 29671, Note_on_c, 0, 82, 0
2, 29688, Note_on_c, 0, 73, 70
2, 29740, Note_on_c, 0, 73, 0
2, 29776, Note_on_c, 0, 82, 74
2, 29837, Note_on_c, 0, 82, 0
2, 29859, Note_on_c, 0, 73, 70
2, 29912, Note_on_c, 0, 73, 0
2, 29939, Note_on_c, 0, 61, 56
2, 29948, Note_on_c, 0, 82, 74
2, 29972, Note_on_c, 0, 54, 0
2, 29979, Note_on_c, 0, 61, 0
2, 30015, Note_on_c, 0, 82, 0
2, 30040, Note_on_c, 0, 73, 54
2, 30096, Note_on_c, 0, 73, 0
2, 30127, Note_on_c, 0, 53, 50
2, 30128, Note_on_c, 0, 80, 66
2, 30183, Note_on_c, 0, 80, 0
2, 30214, Note_on_c, 0, 73, 63
2, 30280, Note_on_c, 0, 73, 0
2, 30302, Note_on_c, 0, 80, 69
2, 30352, Note_on_c, 0, 80, 0
2, 30379, Note_on_c, 0, 73, 67
2, 30433, Note_on_c, 0, 73, 0
2, 30450, Note_on_c, 0, 61, 48
2, 30462, Note_on_c, 0, 80, 73
2, 30477, Note_on_c, 0, 61, 0
2, 30488, Note_on_c, 0, 53, 0
2, 30513, Note_on_c, 0, 80, 0
2, 30544, Note_on_c, 0, 73, 69
2, 30600, Note_on_c, 0, 73, 0
2, 30635, Note_on_c, 0, 51, 50
2, 30636, Note_on_c, 0, 78, 65
2, 30719, Note_on_c, 0, 78, 0
2, 30721, Note_on_c, 0, 77, 68
2, 30788, Note_on_c, 0, 77, 0
2, 30793, Note_on_c, 0, 75, 75
2, 30868, Note_on_c, 0, 77, 73
2, 30871, Note_on_c, 0, 75, 0
2, 30917, Note_on_c, 0, 51, 0
2, 30953, Note_on_c, 0, 77, 0
2, 30960, Note_on_c, 0, 78, 71
2, 30966, Note_on_c, 0, 60, 59
2, 30993, Note_on_c, 0, 60, 0
2, 31024, Note_on_c, 0, 78, 0
2, 31035, Note_on_c, 0, 75, 72
2, 31121, Note_on_c, 0, 75, 0
2, 31128, Note_on_c, 0, 49, 63
2, 31131, Note_on_c, 0, 77, 73
2, 31159, Note_on_c, 0, 49, 0
2, 31212, Note_on_c, 0, 77, 0
2, 31217, Note_on_c, 0, 75, 71
2, 31277, Note_on_c, 0, 75, 0
2, 31296, Note_on_c, 0, 73, 68
2, 31384, Note_on_c, 0, 75, 70
2, 31388, Note_on_c, 0, 73, 0
2, 31455, Note_on_c, 0, 75, 0
2, 31458, Note_on_c, 0, 61, 64
2, 31464, Note_on_c, 0, 77, 67
2, 31486, Note_on_c, 0, 61, 0
2, 31535, Note_on_c, 0, 77, 0
2, 31545, Note_on_c, 0, 73, 64
2, 31603, Note_on_c, 0, 73, 0
2, 31631, Note_on_c, 0, 54, 62
2, 31635, Note_on_c, 0, 75, 60
2, 31660, Note_on_c, 0, 54, 0
2, 31700, Note_on_c, 0, 75, 0
2, 31714, Note_on_c, 0, 77, 58
2, 31769, Note_on_c, 0, 77, 0
2, 31792, Note_on_c, 0, 53, 57
2, 31792, Note_on_c, 0, 75, 53
2, 31828, Note_on_c, 0, 53, 0
2, 31865, Note_on_c, 0, 75, 0
2, 31877, Note_on_c, 0, 73, 60
2, 31941, Note_on_c, 0, 73, 0
2, 31952, Note_on_c, 0, 51, 53
2, 31965, Note_on_c, 0, 72, 57
2, 31982, Note_on_c, 0, 51, 0
2, 32006, Note_on_c, 0, 72, 0
2, 32056, Note_on_c, 0, 70, 38
2, 32109, Note_on_c, 0, 70, 0
2, 32136, Note_on_c, 0, 72, 44
2, 32140, Note_on_c, 0, 56, 46
2, 32176, Note_on_c, 0, 56, 0
2, 32187, Note_on_c, 0, 72, 0
2, 32235, Note_on_c, 0, 68, 35
2, 32260, Note_on_c, 0, 68, 0
2, 32302, Note_on_c, 0, 66, 42
2, 32328, Note_on_c, 0, 66, 0
2, 32369, Note_on_c, 0, 68, 52
2, 32409, Note_on_c, 0, 68, 0
2, 32452, Note_on_c, 0, 63, 35
2, 32483, Note_on_c, 0, 63, 0
2, 32540, Note_on_c, 0, 68, 33
2, 32584, Note_on_c, 0, 68, 0
2, 32613, Note_on_c, 0, 56, 35
2, 32626, Note_on_c, 0, 72, 53
2, 32688, Note_on_c, 0, 72, 0
2, 32705, Note_on_c, 0, 56, 0
2, 32718, Note_on_c, 0, 68, 37
2, 32755, Note_on_c, 0, 68, 0
2, 32794, Note_on_c, 0, 66, 45
2, 32828, Note_on_c, 0, 66, 0
2, 32873, Note_on_c, 0, 68, 43
2, 32900, Note_on_c, 0, 68, 0
2, 32959, Note_on_c, 0, 63, 54
2, 32990, Note_on_c, 0, 63, 0
2, 33020, Note_on_c, 0, 68, 40
2, 33075, Note_on_c, 0, 68, 0
2, 33133, Note_on_c, 0, 56, 40
2, 33138, Note_on_c, 0, 73, 54
2, 33204, Note_on_c, 0, 56, 0
2, 33211, Note_on_c, 0, 73, 0
2, 33228, Note_on_c, 0, 68, 40
2, 33265, Note_on_c, 0, 68, 0
2, 33316, Note_on_c, 0, 65, 27
2, 33349, Note_on_c, 0, 65, 0
2, 33377, Note_on_c, 0, 68, 44
2, 33412, Note_on_c, 0, 68, 0
2, 33458, Note_on_c, 0, 61, 52
2, 33488, Note_on_c, 0, 61, 0
2, 33528, Note_on_c, 0, 68, 43
2, 33598, Note_on_c, 0, 68, 0
2, 33643, Note_on_c, 0, 56, 41
2, 33650, Note_on_c, 0, 73, 59
2, 33728, Note_on_c, 0, 56, 0
2, 33733, Note_on_c, 0, 73, 0
2, 33745, Note_on_c, 0, 68, 45
2, 33791, Note_on_c, 0, 68, 0
2, 33823, Note_on_c, 0, 65, 39
2, 33857, Note_on_c, 0, 65, 0
2, 33908, Note_on_c, 0, 68, 42
2, 33936, Note_on_c, 0, 68, 0
2, 33973, Note_on_c, 0, 61, 51
2, 34001, Note_on_c, 0, 61, 0
2, 34045, Note_on_c, 0, 68, 45
2, 34130, Note_on_c, 0, 56, 45
2, 34132, Note_on_c, 0, 68, 0
2, 34145, Note_on_c, 0, 78, 65
2, 34227, Note_on_c, 0, 56, 0
2, 34232, Note_on_c, 0, 78, 0
2, 34254, Note_on_c, 0, 68, 41
2, 34285, Note_on_c, 0, 68, 0
2, 34309, Note_on_c, 0, 63, 37
2, 34341, Note_on_c, 0, 63, 0
2, 34383, Note_on_c, 0, 68, 53
2, 34430, Note_on_c, 0, 68, 0
2, 34466, Note_on_c, 0, 60, 47
2, 34492, Note_on_c, 0, 60, 0
2, 34552, Note_on_c, 0, 68, 50
2, 34629, Note_on_c, 0, 56, 42
2, 34637, Note_on_c, 0, 68, 0
2, 34644, Note_on_c, 0, 78, 65
2, 34738, Note_on_c, 0, 78, 0
2, 34741, Note_on_c, 0, 56, 0
2, 34744, Note_on_c, 0, 68, 43
2, 34782, Note_on_c, 0, 68, 0
2, 34803, Note_on_c, 0, 63, 46
2, 34831, Note_on_c, 0, 63, 0
2, 34883, Note_on_c, 0, 68, 57
2, 34919, Note_on_c, 0, 68, 0
2, 34967, Note_on_c, 0, 60, 51
2, 34993, Note_on_c, 0, 60, 0
2, 35046, Note_on_c, 0, 68, 44
2, 35127, Note_on_c, 0, 68, 0
2, 35142, Note_on_c, 0, 77, 67
2, 35143, Note_on_c, 0, 56, 39
2, 35228, Note_on_c, 0, 77, 0
2, 35243, Note_on_c, 0, 68, 49
2, 35252, Note_on_c, 0, 56, 0
2, 35289, Note_on_c, 0, 68, 0
2, 35323, Note_on_c, 0, 65, 51
2, 35361, Note_on_c, 0, 65, 0
2, 35394, Note_on_c, 0, 68, 51
2, 35429, Note_on_c, 0, 68, 0
2, 35481, Note_on_c, 0, 61, 58
2, 35515, Note_on_c, 0, 61, 0
2, 35553, Note_on_c, 0, 68, 49
2, 35641, Note_on_c, 0, 68, 0
2, 35650, Note_on_c, 0, 56, 50
2, 35656, Note_on_c, 0, 77, 72
2, 35745, Note_on_c, 0, 77, 0
2, 35756, Note_on_c, 0, 56, 0
2, 35760, Note_on_c, 0, 68, 61
2, 35795, Note_on_c, 0, 68, 0
2, 35822, Note_on_c, 0, 65, 58
2, 35858, Note_on_c, 0, 65, 0
2, 35892, Note_on_c, 0, 68, 60
2, 35933, Note_on_c, 0, 68, 0
2, 35986, Note_on_c, 0, 61, 62
2, 36018, Note_on_c, 0, 61, 0
2, 36062, Note_on_c, 0, 68, 57
2, 36104, Note_on_c, 0, 68, 0
2, 36152, Note_on_c, 0, 56, 50
2, 36169, Note_on_c, 0, 79, 76
2, 36254, Note_on_c, 0, 70, 56
2, 36262, Note_on_c, 0, 79, 0
2, 36273, Note_on_c, 0, 56, 0
2, 36301, Note_on_c, 0, 70, 0
2, 36329, Note_on_c, 0, 64, 58
2, 36365, Note_on_c, 0, 64, 0
2, 36406, Note_on_c, 0, 70, 61
2, 36445, Note_on_c, 0, 70, 0
2, 36492, Note_on_c, 0, 61, 56
2, 36521, Note_on_c, 0, 61, 0
2, 36570, Note_on_c, 0, 70, 60
2, 36659, Note_on_c, 0, 56, 54
2, 36661, Note_on_c, 0, 70, 0
2, 36665, Note_on_c, 0, 79, 76
2, 36773, Note_on_c, 0, 70, 67
2, 36781, Note_on_c, 0, 56, 0
2, 36782, Note_on_c, 0, 79, 0
2, 36814, Note_on_c, 0, 70, 0
2, 36850, Note_on_c, 0, 64, 58
2, 36881, Note_on_c, 0, 64, 0
2, 36912, Note_on_c, 0, 70, 72
2, 36944, Note_on_c, 0, 70, 0
2, 37010, Note_on_c, 0, 61, 57
2, 37038, Note_on_c, 0, 61, 0
2, 37074, Note_on_c, 0, 70, 64
2, 37125, Note_on_c, 0, 70, 0
2, 37172, Note_on_c, 0, 56, 55
2, 37178, Note_on_c, 0, 80, 76
2, 37262, Note_on_c, 0, 72, 64
2, 37285, Note_on_c, 0, 56, 0
2, 37286, Note_on_c, 0, 80, 0
2, 37307, Note_on_c, 0, 72, 0
2, 37353, Note_on_c, 0, 63, 62
2, 37385, Note_on_c, 0, 63, 0
2, 37428, Note_on_c, 0, 72, 62
2, 37461, Note_on_c, 0, 72, 0
2, 37515, Note_on_c, 0, 60, 70
2, 37547, Note_on_c, 0, 60, 0
2, 37594, Note_on_c, 0, 72, 65
2, 37677, Note_on_c, 0, 72, 0
2, 37680, Note_on_c, 0, 54, 65
2, 37686, Note_on_c, 0, 80, 73
2, 37787, Note_on_c, 0, 72, 67
2, 37793, Note_on_c, 0, 54, 0
2, 37794, Note_on_c, 0, 80, 0
2, 37826, Note_on_c, 0, 72, 0
2, 37861, Note_on_c, 0, 63, 61
2, 37906, Note_on_c, 0, 63, 0
2, 37936, Note_on_c, 0, 72, 66
2, 37974, Note_on_c, 0, 72, 0
2, 38010, Note_on_c, 0, 60, 57
2, 38043, Note_on_c, 0, 60, 0
2, 38082, Note_on_c, 0, 72, 57
2, 38130, Note_on_c, 0, 72, 0
2, 38166, Note_on_c, 0, 53, 49
2, 38181, Note_on_c, 0, 80, 53
2, 38261, Note_on_c, 0, 53, 0
2, 38265, Note_on_c, 0, 80, 0
2, 38267, Note_on_c, 0, 73, 58
2, 38301, Note_on_c, 0, 73, 0
2, 38344, Note_on_c, 0, 65, 63
2, 38387, Note_on_c, 0, 65, 0
2, 38417, Note_on_c, 0, 68, 62
2, 38446, Note_on_c, 0, 68, 0
2, 38500, Note_on_c, 0, 61, 67
2, 38536, Note_on_c, 0, 61, 0
2, 38576, Note_on_c, 0, 73, 71
2, 38606, Note_on_c, 0, 73, 0
2, 38643, Note_on_c, 0, 56, 73
2, 38702, Note_on_c, 0, 56, 0
2, 38731, Note_on_c, 0, 77, 79
2, 38767, Note_on_c, 0, 77, 0
2, 38821, Note_on_c, 0, 53, 79
2, 38869, Note_on_c, 0, 80, 79
2, 38873, Note_on_c, 0, 53, 0
2, 38931, Note_on_c, 0, 80, 0
2, 38979, Note_on_c, 0, 51, 77
2, 39047, Note_on_c, 0, 51, 0
2, 39047, Note_on_c, 0, 82, 81
2, 39093, Note_on_c, 0, 82, 0
2, 39159, Note_on_c, 0, 50, 62
2, 39167, Note_on_c, 0, 83, 80
2, 39228, Note_on_c, 0, 50, 0
2, 39248, Note_on_c, 0, 82, 79
2, 39296, Note_on_c, 0, 83, 0
2, 39328, Note_on_c, 0, 53, 58
2, 39331, Note_on_c, 0, 80, 83
2, 39368, Note_on_c, 0, 82, 0
2, 39388, Note_on_c, 0, 53, 0
2, 39411, Note_on_c, 0, 78, 81
2, 39422, Note_on_c, 0, 80, 0
2, 39485, Note_on_c, 0, 58, 66
2, 39487, Note_on_c, 0, 77, 84
2, 39505, Note_on_c, 0, 78, 0
2, 39560, Note_on_c, 0, 58, 0
2, 39570, Note_on_c, 0, 75, 82
2, 39573, Note_on_c, 0, 77, 0
2, 39651, Note_on_c, 0, 75, 0
2, 39658, Note_on_c, 0, 62, 70
2, 39662, Note_on_c, 0, 77, 82
2, 39695, Note_on_c, 0, 62, 0
2, 39734, Note_on_c, 0, 78, 81
2, 39744, Note_on_c, 0, 77, 0
2, 39820, Note_on_c, 0, 80, 78
2, 39826, Note_on_c, 0, 65, 73
2, 39845, Note_on_c, 0, 78, 0
2, 39867, Note_on_c, 0, 65, 0
2, 39891, Note_on_c, 0, 80, 0
2, 39892, Note_on_c, 0, 83, 82
2, 39980, Note_on_c, 0, 82, 82
2, 39989, Note_on_c, 0, 68, 75
2, 40011, Note_on_c, 0, 83, 0
2, 40029, Note_on_c, 0, 68, 0
2, 40062, Note_on_c, 0, 80, 75
2, 40069, Note_on_c, 0, 82, 0
2, 40148, Note_on_c, 0, 80, 0
2, 40155, Note_on_c, 0, 66, 63
2, 40159, Note_on_c, 0, 82, 71
2, 40195, Note_on_c, 0, 66, 0
2, 40232, Note_on_c, 0, 75, 76
2, 40232, Note_on_c, 0, 82, 0
2, 40259, Note_on_c, 0, 75, 0
2, 40310, Note_on_c, 0, 63, 69
2, 40346, Note_on_c, 0, 63, 0
2, 40389, Note_on_c, 0, 66, 64
2, 40419, Note_on_c, 0, 66, 0
2, 40471, Note_on_c, 0, 58, 63
2, 40511, Note_on_c, 0, 58, 0
2, 40554, Note_on_c, 0, 70, 66
2, 40581, Note_on_c, 0, 70, 0
2, 40641, Note_on_c, 0, 54, 65
2, 40679, Note_on_c, 0, 54, 0
2, 40719, Note_on_c, 0, 75, 66
2, 40756, Note_on_c, 0, 75, 0
2, 40806, Note_on_c, 0, 51, 63
2, 40858, Note_on_c, 0, 51, 0
2, 40878, Note_on_c, 0, 78, 63
2, 40918, Note_on_c, 0, 78, 0
2, 40971, Note_on_c, 0, 49, 59
2, 41021, Note_on_c, 0, 49, 0
2, 41038, Note_on_c, 0, 80, 65
2, 41073, Note_on_c, 0, 80, 0
2, 41143, Note_on_c, 0, 48, 46
2, 41152, Note_on_c, 0, 81, 64
2, 41185, Note_on_c, 0, 48, 0
2, 41227, Note_on_c, 0, 81, 0
2, 41232, Note_on_c, 0, 80, 65
2, 41316, Note_on_c, 0, 51, 53
2, 41322, Note_on_c, 0, 78, 68
2, 41326, Note_on_c, 0, 80, 0
2, 41360, Note_on_c, 0, 51, 0
2, 41393, Note_on_c, 0, 78, 0
2, 41403, Note_on_c, 0, 76, 69
2, 41475, Note_on_c, 0, 56, 57
2, 41480, Note_on_c, 0, 75, 76
2, 41482, Note_on_c, 0, 76, 0
2, 41523, Note_on_c, 0, 56, 0
2, 41565, Note_on_c, 0, 75, 0
2, 41566, Note_on_c, 0, 73, 73
2, 41651, Note_on_c, 0, 60, 60
2, 41660, Note_on_c, 0, 75, 81
2, 41661, Note_on_c, 0, 73, 0
2, 41683, Note_on_c, 0, 60, 0
2, 41725, Note_on_c, 0, 75, 0
2, 41739, Note_on_c, 0, 76, 75
2, 41818, Note_on_c, 0, 78, 79
2, 41820, Note_on_c, 0, 76, 0
2, 41821, Note_on_c, 0, 63, 52
2, 41867, Note_on_c, 0, 63, 0
2, 41890, Note_on_c, 0, 81, 74
2, 41893, Note_on_c, 0, 78, 0
2, 41970, Note_on_c, 0, 66, 68
2, 41976, Note_on_c, 0, 80, 76
2, 41997, Note_on_c, 0, 66, 0
2, 42006, Note_on_c, 0, 81, 0
2, 42056, Note_on_c, 0, 80, 0
2, 42062, Note_on_c, 0, 78, 71
2, 42146, Note_on_c, 0, 78, 0
2, 42155, Note_on_c, 0, 80, 68
2, 42162, Note_on_c, 0, 64, 62
2, 42192, Note_on_c, 0, 64, 0
2, 42229, Note_on_c, 0, 80, 0
2, 42241, Note_on_c, 0, 73, 69
2, 42268, Note_on_c, 0, 73, 0
2, 42316, Note_on_c, 0, 61, 61
2, 42356, Note_on_c, 0, 61, 0
2, 42402, Note_on_c, 0, 76, 61
2, 42436, Note_on_c, 0, 76, 0
2, 42481, Note_on_c, 0, 57, 61
2, 42520, Note_on_c, 0, 57, 0
2, 42570, Note_on_c, 0, 73, 62
2, 42607, Note_on_c, 0, 73, 0
2, 42652, Note_on_c, 0, 54, 65
2, 42688, Note_on_c, 0, 54, 0
2, 42728, Note_on_c, 0, 69, 60
2, 42767, Note_on_c, 0, 69, 0
2, 42810, Note_on_c, 0, 63, 65
2, 42863, Note_on_c, 0, 63, 0
2, 42897, Note_on_c, 0, 66, 72
2, 42928, Note_on_c, 0, 66, 0
2, 42968, Note_on_c, 0, 60, 74
2, 43005, Note_on_c, 0, 60, 0
2, 43057, Note_on_c, 0, 75, 76
2, 43098, Note_on_c, 0, 75, 0
2, 43144, Note_on_c, 0, 52, 64
2, 43188, Note_on_c, 0, 52, 0
2, 43214, Note_on_c, 0, 68, 73
2, 43244, Note_on_c, 0, 68, 0
2, 43297, Note_on_c, 0, 61, 70
2, 43346, Note_on_c, 0, 61, 0
2, 43373, Note_on_c, 0, 64, 74
2, 43405, Note_on_c, 0, 64, 0
2, 43453, Note_on_c, 0, 57, 71
2, 43487, Note_on_c, 0, 57, 0
2, 43537, Note_on_c, 0, 73, 71
2, 43580, Note_on_c, 0, 73, 0
2, 43623, Note_on_c, 0, 54, 66
2, 43660, Note_on_c, 0, 54, 0
2, 43724, Note_on_c, 0, 69, 63
2, 43755, Note_on_c, 0, 69, 0
2, 43775, Note_on_c, 0, 51, 54
2, 43816, Note_on_c, 0, 51, 0
2, 43863, Note_on_c, 0, 66, 69
2, 43893, Note_on_c, 0, 66, 0
2, 43964, Note_on_c, 0, 48, 54
2, 44001, Note_on_c, 0, 48, 0
2, 44024, Note_on_c, 0, 63, 55
2, 44063, Note_on_c, 0, 63, 0
2, 44199, Note_on_c, 0, 44, 30
2, 44217, Note_on_c, 0, 60, 42
2, 44263, Note_on_c, 0, 60, 0
2, 44274, Note_on_c, 0, 44, 0
2, 44312, Note_on_c, 0, 56, 36
2, 44346, Note_on_c, 0, 56, 0
2, 44394, Note_on_c, 0, 54, 44
2, 44421, Note_on_c, 0, 54, 0
2, 44467, Note_on_c, 0, 56, 46
2, 44506, Note_on_c, 0, 56, 0
2, 44560, Note_on_c, 0, 51, 32
2, 44596, Note_on_c, 0, 51, 0
2, 44621, Note_on_c, 0, 56, 41
2, 44674, Note_on_c, 0, 56, 0
2, 44711, Note_on_c, 0, 44, 38
2, 44722, Note_on_c, 0, 60, 50
2, 44790, Note_on_c, 0, 60, 0
2, 44795, Note_on_c, 0, 44, 0
2, 44818, Note_on_c, 0, 56, 42
2, 44862, Note_on_c, 0, 56, 0
2, 44899, Note_on_c, 0, 54, 30
2, 44922, Note_on_c, 0, 54, 0
2, 44972, Note_on_c, 0, 56, 50
2, 45008, Note_on_c, 0, 56, 0
2, 45067, Note_on_c, 0, 51, 42
2, 45101, Note_on_c, 0, 51, 0
2, 45128, Note_on_c, 0, 56, 46
2, 45202, Note_on_c, 0, 56, 0
2, 45238, Note_on_c, 0, 44, 40
2, 45246, Note_on_c, 0, 61, 51
2, 45320, Note_on_c, 0, 61, 0
2, 45326, Note_on_c, 0, 44, 0
2, 45344, Note_on_c, 0, 56, 50
2, 45394, Note_on_c, 0, 56, 0
2, 45424, Note_on_c, 0, 53, 36
2, 45458, Note_on_c, 0, 53, 0
2, 45498, Note_on_c, 0, 56, 50
2, 45533, Note_on_c, 0, 56, 0
2, 45590, Note_on_c, 0, 49, 45
2, 45618, Note_on_c, 0, 49, 0
2, 45642, Note_on_c, 0, 56, 49
2, 45728, Note_on_c, 0, 56, 0
2, 45764, Note_on_c, 0, 44, 45
2, 45767, Note_on_c, 0, 61, 62
2, 45837, Note_on_c, 0, 44, 0
2, 45859, Note_on_c, 0, 61, 0
2, 45862, Note_on_c, 0, 56, 55
2, 45906, Note_on_c, 0, 56, 0
2, 45947, Note_on_c, 0, 53, 42
2, 45975, Note_on_c, 0, 53, 0
2, 46017, Note_on_c, 0, 56, 56
2, 46057, Note_on_c, 0, 56, 0
2, 46103, Note_on_c, 0, 49, 54
2, 46134, Note_on_c, 0, 49, 0
2, 46171, Note_on_c, 0, 56, 50
2, 46257, Note_on_c, 0, 56, 0
2, 46276, Note_on_c, 0, 44, 48
2, 46279, Note_on_c, 0, 66, 68
2, 46340, Note_on_c, 0, 44, 0
2, 46367, Note_on_c, 0, 66, 0
2, 46386, Note_on_c, 0, 56, 42
2, 46413, Note_on_c, 0, 56, 0
2, 46444, Note_on_c, 0, 51, 48
2, 46477, Note_on_c, 0, 51, 0
2, 46514, Note_on_c, 0, 56, 49
2, 46556, Note_on_c, 0, 56, 0
2, 46598, Note_on_c, 0, 48, 55
2, 46631, Note_on_c, 0, 48, 0
2, 46686, Note_on_c, 0, 56, 57
2, 46758, Note_on_c, 0, 56, 0
2, 46780, Note_on_c, 0, 44, 50
2, 46783, Note_on_c, 0, 66, 70
2, 46866, Note_on_c, 0, 44, 0
2, 46875, Note_on_c, 0, 66, 0
2, 46879, Note_on_c, 0, 56, 58
2, 46920, Note_on_c, 0, 56, 0
2, 46961, Note_on_c, 0, 51, 54
2, 46994, Note_on_c, 0, 51, 0
2, 47034, Note_on_c, 0, 56, 52
2, 47066, Note_on_c, 0, 56, 0
2, 47125, Note_on_c, 0, 48, 57
2, 47157, Note_on_c, 0, 48, 0
2, 47184, Note_on_c, 0, 56, 48
2, 47284, Note_on_c, 0, 56, 0
2, 47299, Note_on_c, 0, 65, 66
2, 47300, Note_on_c, 0, 44, 49
2, 47400, Note_on_c, 0, 44, 0
2, 47400, Note_on_c, 0, 56, 60
2, 47403, Note_on_c, 0, 65, 0
2, 47442, Note_on_c, 0, 56, 0
2, 47484, Note_on_c, 0, 53, 57
2, 47526, Note_on_c, 0, 53, 0
2, 47554, Note_on_c, 0, 56, 60
2, 47590, Note_on_c, 0, 56, 0
2, 47650, Note_on_c, 0, 49, 55
2, 47685, Note_on_c, 0, 49, 0
2, 47714, Note_on_c, 0, 56, 56
2, 47802, Note_on_c, 0, 56, 0
2, 47812, Note_on_c, 0, 65, 77
2, 47818, Note_on_c, 0, 44, 57
2, 47913, Note_on_c, 0, 56, 68
2, 47928, Note_on_c, 0, 65, 0
2, 47939, Note_on_c, 0, 44, 0
2, 47969, Note_on_c, 0, 56, 0
2, 47996, Note_on_c, 0, 53, 68
2, 48038, Note_on_c, 0, 53, 0
2, 48072, Note_on_c, 0, 56, 63
2, 48110, Note_on_c, 0, 56, 0
2, 48162, Note_on_c, 0, 49, 63
2, 48193, Note_on_c, 0, 49, 0
2, 48246, Note_on_c, 0, 56, 61
2, 48286, Note_on_c, 0, 56, 0
2, 48338, Note_on_c, 0, 44, 58
2, 48347, Note_on_c, 0, 67, 81
2, 48440, Note_on_c, 0, 58, 66
2, 48477, Note_on_c, 0, 67, 0
2, 48491, Note_on_c, 0, 44, 0
2, 48501, Note_on_c, 0, 58, 0
2, 48522, Note_on_c, 0, 52, 66
2, 48559, Note_on_c, 0, 52, 0
2, 48588, Note_on_c, 0, 58, 70
2, 48623, Note_on_c, 0, 58, 0
2, 48677, Note_on_c, 0, 49, 74
2, 48707, Note_on_c, 0, 49, 0
2, 48745, Note_on_c, 0, 58, 64
2, 48850, Note_on_c, 0, 44, 61
2, 48851, Note_on_c, 0, 67, 82
2, 48873, Note_on_c, 0, 58, 0
2, 48974, Note_on_c, 0, 58, 78
2, 49002, Note_on_c, 0, 67, 0
2, 49028, Note_on_c, 0, 58, 0
2, 49030, Note_on_c, 0, 44, 0
2, 49044, Note_on_c, 0, 52, 72
2, 49085, Note_on_c, 0, 52, 0
2, 49119, Note_on_c, 0, 58, 81
2, 49160, Note_on_c, 0, 58, 0
2, 49205, Note_on_c, 0, 49, 74
2, 49245, Note_on_c, 0, 49, 0
2, 49274, Note_on_c, 0, 58, 75
2, 49327, Note_on_c, 0, 58, 0
2, 49360, Note_on_c, 0, 44, 69
2, 49456, Note_on_c, 0, 48, 65
2, 49517, Note_on_c, 0, 44, 0
2, 49519, Control_c, 0, 64, 51
2, 49533, Control_c, 0, 64, 61
2, 49547, Note_on_c, 0, 51, 69
2, 49549, Control_c, 0, 64, 65
2, 49564, Control_c, 0, 64, 71
2, 49578, Note_on_c, 0, 48, 0
2, 49580, Control_c, 0, 64, 81
2, 49586, Note_on_c, 0, 51, 0
2, 49595, Control_c, 0, 64, 97
2, 49609, Control_c, 0, 64, 127
2, 49623, Note_on_c, 0, 54, 77
2, 49698, Note_on_c, 0, 57, 73
2, 49740, Note_on_c, 0, 54, 0
2, 49785, Note_on_c, 0, 60, 79
2, 49791, Note_on_c, 0, 57, 0
2, 49833, Note_on_c, 0, 60, 0
2, 49867, Note_on_c, 0, 61, 80
2, 49955, Note_on_c, 0, 64, 76
2, 49978, Note_on_c, 0, 61, 0
2, 49983, Control_c, 0, 64, 89
2, 49998, Control_c, 0, 64, 68
2, 50013, Control_c, 0, 64, 20
2, 50029, Control_c, 0, 64, 0
2, 50033, Note_on_c, 0, 67, 72
2, 50067, Note_on_c, 0, 64, 0
2, 50087, Note_on_c, 0, 67, 0
2, 50088, Note_on_c, 0, 70, 75
2, 50173, Note_on_c, 0, 73, 80
2, 50203, Note_on_c, 0, 70, 0
2, 50261, Note_on_c, 0, 76, 78
2, 50273, Note_on_c, 0, 73, 0
2, 50338, Note_on_c, 0, 76, 0
2, 50351, Note_on_c, 0, 72, 71
2, 50366, Note_on_c, 0, 44, 66
2, 50439, Note_on_c, 0, 75, 73
2, 50450, Note_on_c, 0, 72, 0
2, 50518, Control_c, 0, 64, 35
2, 50532, Note_on_c, 0, 78, 79
2, 50536, Note_on_c, 0, 75, 0
2, 50542, Control_c, 0, 64, 48
2, 50557, Control_c, 0, 64, 55
2, 50573, Control_c, 0, 64, 60
2, 50587, Control_c, 0, 64, 63
2, 50602, Control_c, 0, 64, 66
2, 50617, Note_on_c, 0, 75, 79
2, 50618, Control_c, 0, 64, 69
2, 50631, Note_on_c, 0, 44, 0
2, 50633, Control_c, 0, 64, 74
2, 50634, Note_on_c, 0, 78, 0
2, 50648, Control_c, 0, 64, 79
2, 50663, Control_c, 0, 64, 83
2, 50673, Note_on_c, 0, 75, 0
2, 50678, Control_c, 0, 64, 87
2, 50689, Note_on_c, 0, 72, 78
2, 50695, Control_c, 0, 64, 92
2, 50710, Control_c, 0, 64, 96
2, 50726, Control_c, 0, 64, 97
2, 50740, Control_c, 0, 64, 98
2, 50744, Note_on_c, 0, 72, 0
2, 50755, Control_c, 0, 64, 98
2, 50774, Note_on_c, 0, 68, 77
2, 50802, Note_on_c, 0, 68, 0
2, 50858, Note_on_c, 0, 66, 74
2, 50877, Control_c, 0, 64, 98
2, 50892, Control_c, 0, 64, 96
2, 50907, Control_c, 0, 64, 92
2, 50922, Control_c, 0, 64, 84
2, 50934, Note_on_c, 0, 63, 77
2, 50937, Control_c, 0, 64, 77
2, 50949, Note_on_c, 0, 66, 0
2, 50952, Control_c, 0, 64, 70
2, 50968, Control_c, 0, 64, 63
2, 50983, Control_c, 0, 64, 47
2, 50998, Control_c, 0, 64, 0
2, 51019, Note_on_c, 0, 60, 74
2, 51027, Note_on_c, 0, 63, 0
2, 51092, Note_on_c, 0, 60, 0
2, 51098, Note_on_c, 0, 56, 74
2, 51180, Note_on_c, 0, 60, 67
2, 51182, Note_on_c, 0, 56, 0
2, 51263, Note_on_c, 0, 63, 73
2, 51266, Note_on_c, 0, 60, 0
2, 51349, Note_on_c, 0, 56, 59
2, 51369, Note_on_c, 0, 65, 68
2, 51423, Note_on_c, 0, 63, 0
2, 51447, Note_on_c, 0, 68, 71
2, 51519, Note_on_c, 0, 73, 86
2, 51524, Note_on_c, 0, 65, 0
2, 51528, Note_on_c, 0, 68, 0
2, 51599, Note_on_c, 0, 68, 82
2, 51629, Note_on_c, 0, 56, 0
2, 51637, Note_on_c, 0, 73, 0
2, 51667, Note_on_c, 0, 68, 0
2, 51682, Note_on_c, 0, 65, 74
2, 51737, Note_on_c, 0, 65, 0
2, 51770, Note_on_c, 0, 61, 75
2, 51858, Note_on_c, 0, 58, 73
2, 51897, Note_on_c, 0, 61, 0
2, 51945, Note_on_c, 0, 55, 71
2, 51960, Note_on_c, 0, 58, 0
2, 52035, Note_on_c, 0, 52, 71
2, 52055, Note_on_c, 0, 55, 0
2, 52129, Note_on_c, 0, 49, 72
2, 52141, Note_on_c, 0, 52, 0
2, 52220, Note_on_c, 0, 52, 73
2, 52245, Note_on_c, 0, 49, 0
2, 52305, Note_on_c, 0, 52, 0
2, 52318, Note_on_c, 0, 55, 76
2, 52480, Note_on_c, 0, 44, 78
2, 52519, Note_on_c, 0, 55, 0
2, 52742, Note_on_c, 0, 49, 53
2, 52749, Note_on_c, 0, 56, 59
2, 52755, Note_on_c, 0, 73, 90
2, 52760, Note_on_c, 0, 53, 62
2, 52762, Note_on_c, 0, 65, 67
2, 52767, Note_on_c, 0, 68, 62
2, 52794, Note_on_c, 0, 56, 0
2, 52798, Note_on_c, 0, 65, 0
2, 52805, Note_on_c, 0, 68, 0
2, 52814, Note_on_c, 0, 53, 0
2, 52836, Note_on_c, 0, 73, 0
2, 52844, Note_on_c, 0, 49, 0
2, 53081, Note_on_c, 0, 56, 56
2, 53082, Note_on_c, 0, 72, 83
2, 53091, Note_on_c, 0, 51, 60
2, 53094, Note_on_c, 0, 63, 71
2, 53096, Note_on_c, 0, 54, 61
2, 53104, Note_on_c, 0, 68, 54
2, 53137, Note_on_c, 0, 56, 0
2, 53142, Note_on_c, 0, 68, 0
2, 53162, Note_on_c, 0, 63, 0
2, 53196, Note_on_c, 0, 72, 0
2, 53198, Note_on_c, 0, 54, 0
2, 53213, Note_on_c, 0, 51, 0
2, 53681, Note_on_c, 0, 49, 40
2, 53681, Note_on_c, 0, 53, 42
2, 53682, Note_on_c, 0, 56, 47
2, 53685, Note_on_c, 0, 73, 81
2, 53686, Note_on_c, 0, 68, 59
2, 53690, Note_on_c, 0, 61, 62
2, 53835, Note_on_c, 0, 44, 0
2, 54208, Control_c, 0, 64, 26
2, 54223, Control_c, 0, 64, 40
2, 54237, Control_c, 0, 64, 48
2, 54253, Control_c, 0, 64, 53
2, 54268, Control_c, 0, 64, 57
2, 54284, Control_c, 0, 64, 60
2, 54299, Control_c, 0, 64, 62
2, 54313, Control_c, 0, 64, 64
2, 54329, Control_c, 0, 64, 65
2, 54344, Control_c, 0, 64, 68
2, 54359, Control_c, 0, 64, 71
2, 54382, Control_c, 0, 64, 73
2, 54397, Control_c, 0, 64, 76
2, 54413, Control_c, 0, 64, 79
2, 54428, Control_c, 0, 64, 81
2, 54444, Control_c, 0, 64, 84
2, 54458, Control_c, 0, 64, 86
2, 54473, Control_c, 0, 64, 87
2, 54489, Control_c, 0, 64, 88
2, 54504, Control_c, 0, 64, 88
2, 55376, Control_c, 0, 64, 88
2, 55387, Note_on_c, 0, 61, 0
2, 55391, Control_c, 0, 64, 85
2, 55392, Note_on_c, 0, 73, 0
2, 55401, Note_on_c, 0, 56, 0
2, 55406, Control_c, 0, 64, 78
2, 55416, Note_on_c, 0, 68, 0
2, 55422, Control_c, 0, 64, 69
2, 55426, Note_on_c, 0, 53, 0
2, 55428, Note_on_c, 0, 49, 0
2, 55437, Control_c, 0, 64, 58
2, 55452, Control_c, 0, 64, 0
2, 56743, Note_on_c, 0, 68, 54
2, 56780, Note_on_c, 0, 68, 0
2, 56996, Note_on_c, 0, 70, 52
2, 57107, Note_on_c, 0, 68, 64
2, 57113, Note_on_c, 0, 70, 0
2, 57211, Note_on_c, 0, 66, 73
2, 57214, Note_on_c, 0, 68, 0
2, 57300, Note_on_c, 0, 66, 0
2, 57321, Note_on_c, 0, 68, 77
2, 57457, Note_on_c, 0, 77, 81
2, 57463, Note_on_c, 0, 68, 0
2, 57486, Note_on_c, 0, 77, 0
2, 57697, Note_on_c, 0, 73, 78
2, 57741, Note_on_c, 0, 73, 0
2, 57952, Note_on_c, 0, 68, 64
2, 58198, Note_on_c, 0, 66, 60
2, 58240, Note_on_c, 0, 68, 0
2, 58309, Note_on_c, 0, 66, 0
2, 58313, Note_on_c, 0, 65, 62
2, 58432, Note_on_c, 0, 65, 0
2, 58435, Note_on_c, 0, 66, 72
2, 58460, Note_on_c, 0, 66, 0
2, 58675, Note_on_c, 0, 75, 67
2, 58708, Note_on_c, 0, 75, 0
2, 58919, Note_on_c, 0, 65, 70
2, 58956, Note_on_c, 0, 65, 0
2, 59164, Note_on_c, 0, 73, 68
2, 59195, Note_on_c, 0, 73, 0
2, 59406, Note_on_c, 0, 63, 63
2, 59437, Note_on_c, 0, 63, 0
2, 59644, Note_on_c, 0, 72, 68
2, 59670, Note_on_c, 0, 72, 0
2, 59911, Note_on_c, 0, 61, 52
2, 60048, Note_on_c, 0, 61, 0
2, 60164, Note_on_c, 0, 73, 50
2, 60233, Note_on_c, 0, 73, 0
2, 60276, Note_on_c, 0, 72, 58
2, 60370, Note_on_c, 0, 72, 0
2, 60387, Note_on_c, 0, 73, 53
2, 60485, Note_on_c, 0, 73, 0
2, 60496, Note_on_c, 0, 75, 57
2, 60608, Note_on_c, 0, 75, 0
2, 60617, Note_on_c, 0, 61, 64
2, 60638, Note_on_c, 0, 77, 57
2, 60646, Note_on_c, 0, 61, 0
2, 60725, Note_on_c, 0, 77, 0
2, 60733, Note_on_c, 0, 78, 57
2, 60845, Note_on_c, 0, 78, 0
2, 60858, Note_on_c, 0, 65, 58
2, 60872, Note_on_c, 0, 80, 54
2, 60969, Note_on_c, 0, 63, 57
2, 60976, Note_on_c, 0, 79, 62
2, 60981, Note_on_c, 0, 65, 0
2, 60984, Note_on_c, 0, 80, 0
2, 61072, Note_on_c, 0, 79, 0
2, 61084, Note_on_c, 0, 77, 64
2, 61087, Note_on_c, 0, 63, 0
2, 61091, Note_on_c, 0, 61, 70
2, 61175, Note_on_c, 0, 77, 0
2, 61178, Note_on_c, 0, 61, 0
2, 61190, Note_on_c, 0, 79, 65
2, 61193, Note_on_c, 0, 63, 68
2, 61289, Note_on_c, 0, 63, 0
2, 61297, Note_on_c, 0, 79, 0
2, 61318, Note_on_c, 0, 72, 75
2, 61326, Note_on_c, 0, 80, 59
2, 61346, Note_on_c, 0, 72, 0
2, 61438, Note_on_c, 0, 80, 0
2, 61445, Note_on_c, 0, 78, 51
2, 61549, Note_on_c, 0, 68, 75
2, 61557, Note_on_c, 0, 78, 0
2, 61576, Note_on_c, 0, 68, 0
2, 61576, Note_on_c, 0, 77, 59
2, 61650, Note_on_c, 0, 77, 0
2, 61677, Note_on_c, 0, 75, 62
2, 61798, Note_on_c, 0, 63, 60
2, 61804, Note_on_c, 0, 75, 0
2, 61808, Note_on_c, 0, 77, 60
2, 62055, Note_on_c, 0, 61, 63
2, 62104, Note_on_c, 0, 63, 0
2, 62162, Note_on_c, 0, 60, 63
2, 62169, Note_on_c, 0, 61, 0
2, 62270, Note_on_c, 0, 60, 0
2, 62290, Note_on_c, 0, 61, 67
2, 62318, Note_on_c, 0, 61, 0
2, 62386, Note_on_c, 0, 75, 60
2, 62391, Note_on_c, 0, 77, 0
2, 62498, Note_on_c, 0, 75, 0
2, 62508, Note_on_c, 0, 70, 69
2, 62508, Note_on_c, 0, 73, 59
2, 62536, Note_on_c, 0, 70, 0
2, 62600, Note_on_c, 0, 73, 0
2, 62618, Note_on_c, 0, 77, 59
2, 62746, Note_on_c, 0, 60, 75
2, 62759, Note_on_c, 0, 75, 63
2, 62773, Note_on_c, 0, 77, 0
2, 62776, Note_on_c, 0, 60, 0
2, 62870, Note_on_c, 0, 73, 65
2, 62902, Note_on_c, 0, 75, 0
2, 62984, Note_on_c, 0, 68, 71
2, 62988, Note_on_c, 0, 73, 0
2, 62992, Note_on_c, 0, 72, 62
2, 63008, Note_on_c, 0, 68, 0
2, 63088, Note_on_c, 0, 72, 0
2, 63111, Note_on_c, 0, 75, 64
2, 63225, Note_on_c, 0, 58, 75
2, 63239, Note_on_c, 0, 73, 68
2, 63258, Note_on_c, 0, 58, 0
2, 63278, Note_on_c, 0, 75, 0
2, 63334, Note_on_c, 0, 73, 0
2, 63336, Note_on_c, 0, 72, 66
2, 63458, Note_on_c, 0, 67, 69
2, 63469, Note_on_c, 0, 73, 65
2, 63475, Note_on_c, 0, 72, 0
2, 63491, Note_on_c, 0, 67, 0
2, 63554, Note_on_c, 0, 73, 0
2, 63572, Note_on_c, 0, 70, 61
2, 63616, Note_on_c, 0, 70, 0
2, 63699, Note_on_c, 0, 56, 48
2, 63708, Note_on_c, 0, 70, 65
2, 63762, Control_c, 0, 64, 40
2, 63778, Control_c, 0, 64, 52
2, 63794, Control_c, 0, 64, 56
2, 63808, Note_on_c, 0, 56, 0
2, 63809, Control_c, 0, 64, 61
2, 63816, Note_on_c, 0, 72, 68
2, 63825, Control_c, 0, 64, 63
2, 63827, Note_on_c, 0, 70, 0
2, 63839, Control_c, 0, 64, 65
2, 63855, Control_c, 0, 64, 66
2, 63870, Control_c, 0, 64, 67
2, 63885, Control_c, 0, 64, 67
2, 63923, Note_on_c, 0, 72, 0
2, 63925, Note_on_c, 0, 68, 44
2, 63931, Control_c, 0, 64, 67
2, 63933, Note_on_c, 0, 75, 75
2, 63946, Control_c, 0, 64, 65
2, 63956, Note_on_c, 0, 75, 0
2, 63961, Control_c, 0, 64, 60
2, 63976, Control_c, 0, 64, 0
2, 64011, Note_on_c, 0, 68, 0
2, 64039, Note_on_c, 0, 67, 53
2, 64163, Note_on_c, 0, 67, 0
2, 64169, Note_on_c, 0, 78, 72
2, 64176, Note_on_c, 0, 68, 68
2, 64221, Note_on_c, 0, 68, 0
2, 64278, Note_on_c, 0, 70, 54
2, 64396, Note_on_c, 0, 70, 0
2, 64412, Note_on_c, 0, 56, 69
2, 64417, Note_on_c, 0, 72, 60
2, 64464, Note_on_c, 0, 56, 0
2, 64486, Note_on_c, 0, 72, 0
2, 64507, Note_on_c, 0, 68, 56
2, 64657, Note_on_c, 0, 58, 62
2, 64665, Note_on_c, 0, 73, 62
2, 64671, Note_on_c, 0, 68, 0
2, 64747, Note_on_c, 0, 78, 0
2, 64764, Note_on_c, 0, 72, 69
2, 64778, Note_on_c, 0, 56, 69
2, 64821, Note_on_c, 0, 58, 0
2, 64835, Note_on_c, 0, 73, 0
2, 64881, Note_on_c, 0, 54, 77
2, 64883, Note_on_c, 0, 70, 75
2, 64883, Note_on_c, 0, 72, 0
2, 64894, Note_on_c, 0, 56, 0
2, 64977, Note_on_c, 0, 56, 76
2, 64983, Note_on_c, 0, 72, 78
2, 65001, Note_on_c, 0, 54, 0
2, 65091, Note_on_c, 0, 70, 0
2, 65098, Note_on_c, 0, 56, 0
2, 65110, Note_on_c, 0, 65, 76
2, 65111, Note_on_c, 0, 72, 0
2, 65111, Note_on_c, 0, 73, 56
2, 65127, Note_on_c, 0, 77, 72
2, 65148, Note_on_c, 0, 65, 0
2, 65205, Note_on_c, 0, 73, 0
2, 65221, Note_on_c, 0, 72, 71
2, 65310, Note_on_c, 0, 72, 0
2, 65345, Note_on_c, 0, 61, 78
2, 65360, Note_on_c, 0, 70, 65
2, 65381, Note_on_c, 0, 61, 0
2, 65453, Note_on_c, 0, 70, 0
2, 65455, Note_on_c, 0, 68, 69
2, 65596, Note_on_c, 0, 56, 69
2, 65604, Note_on_c, 0, 68, 0
2, 65616, Note_on_c, 0, 70, 65
2, 65762, Note_on_c, 0, 77, 0
2, 65855, Note_on_c, 0, 54, 67
2, 65927, Note_on_c, 0, 56, 0
2, 65964, Note_on_c, 0, 53, 72
2, 65991, Note_on_c, 0, 54, 0
2, 66072, Note_on_c, 0, 54, 77
2, 66073, Note_on_c, 0, 53, 0
2, 66078, Note_on_c, 0, 75, 75
2, 66092, Note_on_c, 0, 70, 0
2, 66105, Note_on_c, 0, 54, 0
2, 66192, Note_on_c, 0, 68, 55
2, 66307, Note_on_c, 0, 63, 71
2, 66312, Note_on_c, 0, 68, 0
2, 66323, Note_on_c, 0, 66, 66
2, 66337, Note_on_c, 0, 63, 0
2, 66435, Note_on_c, 0, 66, 0
2, 66444, Note_on_c, 0, 70, 56
2, 66545, Note_on_c, 0, 53, 78
2, 66568, Note_on_c, 0, 68, 66
2, 66576, Note_on_c, 0, 53, 0
2, 66586, Note_on_c, 0, 75, 0
2, 66640, Note_on_c, 0, 70, 0
2, 66675, Note_on_c, 0, 66, 67
2, 66703, Note_on_c, 0, 68, 0
2, 66781, Note_on_c, 0, 61, 77
2, 66793, Note_on_c, 0, 66, 0
2, 66793, Note_on_c, 0, 73, 78
2, 66796, Note_on_c, 0, 65, 63
2, 66811, Note_on_c, 0, 61, 0
2, 66901, Note_on_c, 0, 68, 70
2, 66931, Note_on_c, 0, 73, 0
2, 66954, Note_on_c, 0, 65, 0
2, 67025, Note_on_c, 0, 66, 65
2, 67026, Note_on_c, 0, 51, 73
2, 67030, Note_on_c, 0, 72, 79
2, 67031, Note_on_c, 0, 68, 0
2, 67062, Note_on_c, 0, 51, 0
2, 67121, Note_on_c, 0, 66, 0
2, 67137, Note_on_c, 0, 65, 70
2, 67137, Note_on_c, 0, 72, 0
2, 67245, Note_on_c, 0, 65, 0
2, 67254, Note_on_c, 0, 66, 59
2, 67255, Note_on_c, 0, 60, 66
2, 67266, Note_on_c, 0, 75, 73
2, 67284, Note_on_c, 0, 60, 0
2, 67303, Note_on_c, 0, 66, 0
2, 67372, Note_on_c, 0, 63, 56
2, 67407, Note_on_c, 0, 63, 0
2, 67499, Note_on_c, 0, 49, 44
2, 67523, Note_on_c, 0, 65, 59
2, 67573, Control_c, 0, 64, 42
2, 67582, Note_on_c, 0, 49, 0
2, 67588, Control_c, 0, 64, 54
2, 67602, Control_c, 0, 64, 59
2, 67618, Control_c, 0, 64, 63
2, 67633, Control_c, 0, 64, 64
2, 67648, Control_c, 0, 64, 66
2, 67664, Control_c, 0, 64, 69
2, 67679, Control_c, 0, 64, 70
2, 67695, Control_c, 0, 64, 71
2, 67723, Note_on_c, 0, 65, 0
2, 67733, Note_on_c, 0, 75, 0
2, 67747, Note_on_c, 0, 68, 63
2, 67752, Note_on_c, 0, 61, 52
2, 67771, Control_c, 0, 64, 70
2, 67774, Note_on_c, 0, 68, 0
2, 67786, Control_c, 0, 64, 66
2, 67801, Control_c, 0, 64, 61
2, 67816, Control_c, 0, 64, 41
2, 67831, Control_c, 0, 64, 0
2, 67839, Note_on_c, 0, 61, 0
2, 67855, Note_on_c, 0, 60, 52
2, 67948, Note_on_c, 0, 60, 0
2, 67976, Note_on_c, 0, 61, 53
2, 67980, Note_on_c, 0, 77, 73
2, 68083, Note_on_c, 0, 63, 51
2, 68087, Note_on_c, 0, 61, 0
2, 68212, Note_on_c, 0, 65, 43
2, 68223, Note_on_c, 0, 68, 57
2, 68247, Note_on_c, 0, 68, 0
2, 68284, Note_on_c, 0, 65, 0
2, 68311, Note_on_c, 0, 61, 47
2, 68316, Note_on_c, 0, 63, 0
2, 68396, Note_on_c, 0, 61, 0
2, 68435, Note_on_c, 0, 58, 42
2, 68445, Note_on_c, 0, 73, 61
2, 68511, Note_on_c, 0, 77, 0
2, 68534, Note_on_c, 0, 58, 0
2, 68555, Note_on_c, 0, 60, 53
2, 68651, Note_on_c, 0, 60, 0
2, 68664, Note_on_c, 0, 73, 0
2, 68669, Note_on_c, 0, 61, 55
2, 68675, Note_on_c, 0, 77, 62
2, 68771, Note_on_c, 0, 73, 74
2, 68773, Note_on_c, 0, 58, 55
2, 68774, Note_on_c, 0, 61, 0
2, 68774, Note_on_c, 0, 77, 0
2, 68868, Note_on_c, 0, 58, 0
2, 68889, Note_on_c, 0, 73, 0
2, 68893, Note_on_c, 0, 70, 62
2, 68902, Note_on_c, 0, 55, 44
2, 68973, Note_on_c, 0, 55, 0
2, 69016, Note_on_c, 0, 56, 52
2, 69119, Note_on_c, 0, 56, 0
2, 69131, Note_on_c, 0, 58, 54
2, 69139, Note_on_c, 0, 70, 0
2, 69147, Note_on_c, 0, 73, 64
2, 69186, Note_on_c, 0, 58, 0
2, 69219, Note_on_c, 0, 73, 0
2, 69230, Note_on_c, 0, 70, 53
2, 69237, Note_on_c, 0, 55, 44
2, 69385, Note_on_c, 0, 70, 0
2, 69388, Note_on_c, 0, 48, 42
2, 69388, Note_on_c, 0, 63, 54
2, 69441, Control_c, 0, 64, 16
2, 69445, Note_on_c, 0, 48, 0
2, 69454, Note_on_c, 0, 55, 0
2, 69457, Control_c, 0, 64, 44
2, 69472, Control_c, 0, 64, 53
2, 69487, Control_c, 0, 64, 57
2, 69502, Control_c, 0, 64, 59
2, 69517, Control_c, 0, 64, 61
2, 69535, Control_c, 0, 64, 62
2, 69549, Control_c, 0, 64, 63
2, 69609, Control_c, 0, 64, 62
2, 69619, Note_on_c, 0, 70, 63
2, 69623, Note_on_c, 0, 63, 0
2, 69625, Control_c, 0, 64, 56
2, 69628, Note_on_c, 0, 60, 50
2, 69640, Control_c, 0, 64, 26
2, 69648, Note_on_c, 0, 70, 0
2, 69656, Control_c, 0, 64, 0
2, 69709, Note_on_c, 0, 60, 0
2, 69743, Note_on_c, 0, 58, 52
2, 69840, Note_on_c, 0, 58, 0
2, 69859, Note_on_c, 0, 60, 57
2, 69866, Note_on_c, 0, 75, 74
2, 69967, Note_on_c, 0, 60, 0
2, 69981, Note_on_c, 0, 61, 55
2, 70060, Note_on_c, 0, 61, 0
2, 70082, Note_on_c, 0, 63, 56
2, 70092, Note_on_c, 0, 67, 62
2, 70119, Note_on_c, 0, 67, 0
2, 70168, Note_on_c, 0, 63, 0
2, 70192, Note_on_c, 0, 60, 55
2, 70314, Note_on_c, 0, 56, 48
2, 70317, Note_on_c, 0, 72, 64
2, 70335, Note_on_c, 0, 60, 0
2, 70380, Note_on_c, 0, 75, 0
2, 70449, Note_on_c, 0, 58, 56
2, 70453, Note_on_c, 0, 56, 0
2, 70550, Note_on_c, 0, 72, 0
2, 70556, Note_on_c, 0, 75, 67
2, 70572, Note_on_c, 0, 58, 0
2, 70575, Note_on_c, 0, 60, 57
2, 70643, Note_on_c, 0, 75, 0
2, 70658, Note_on_c, 0, 60, 0
2, 70661, Note_on_c, 0, 72, 68
2, 70681, Note_on_c, 0, 56, 55
2, 70767, Note_on_c, 0, 72, 0
2, 70773, Note_on_c, 0, 56, 0
2, 70783, Note_on_c, 0, 68, 53
2, 70801, Note_on_c, 0, 53, 43
2, 70884, Note_on_c, 0, 53, 0
2, 70911, Note_on_c, 0, 55, 50
2, 70995, Note_on_c, 0, 55, 0
2, 71002, Note_on_c, 0, 68, 0
2, 71021, Note_on_c, 0, 72, 57
2, 71033, Note_on_c, 0, 56, 51
2, 71086, Note_on_c, 0, 56, 0
2, 71093, Note_on_c, 0, 72, 0
2, 71130, Note_on_c, 0, 68, 54
2, 71139, Note_on_c, 0, 53, 40
2, 71187, Note_on_c, 0, 53, 0
2, 71245, Note_on_c, 0, 68, 0
2, 71266, Note_on_c, 0, 46, 46
2, 71267, Note_on_c, 0, 61, 47
2, 71320, Control_c, 0, 64, 46
2, 71336, Control_c, 0, 64, 55
2, 71338, Note_on_c, 0, 46, 0
2, 71351, Control_c, 0, 64, 59
2, 71366, Control_c, 0, 64, 62
2, 71382, Control_c, 0, 64, 63
2, 71397, Control_c, 0, 64, 65
2, 71413, Control_c, 0, 64, 65
2, 71427, Control_c, 0, 64, 66
2, 71474, Note_on_c, 0, 61, 0
2, 71488, Note_on_c, 0, 68, 64
2, 71515, Note_on_c, 0, 58, 48
2, 71517, Note_on_c, 0, 68, 0
2, 71534, Control_c, 0, 64, 65
2, 71549, Control_c, 0, 64, 64
2, 71564, Control_c, 0, 64, 62
2, 71574, Note_on_c, 0, 58, 0
2, 71579, Control_c, 0, 64, 58
2, 71594, Control_c, 0, 64, 50
2, 71609, Control_c, 0, 64, 41
2, 71613, Note_on_c, 0, 56, 48
2, 71624, Control_c, 0, 64, 0
2, 71721, Note_on_c, 0, 56, 0
2, 71729, Note_on_c, 0, 73, 82
2, 71734, Note_on_c, 0, 58, 55
2, 71840, Note_on_c, 0, 60, 58
2, 71853, Note_on_c, 0, 58, 0
2, 71938, Note_on_c, 0, 60, 0
2, 71949, Note_on_c, 0, 61, 61
2, 71957, Note_on_c, 0, 65, 66
2, 71988, Note_on_c, 0, 65, 0
2, 72039, Note_on_c, 0, 61, 0
2, 72049, Note_on_c, 0, 58, 56
2, 72173, Note_on_c, 0, 58, 0
2, 72194, Note_on_c, 0, 55, 50
2, 72204, Note_on_c, 0, 70, 64
2, 72296, Note_on_c, 0, 55, 0
2, 72310, Note_on_c, 0, 73, 0
2, 72312, Note_on_c, 0, 72, 74
2, 72313, Note_on_c, 0, 56, 59
2, 72345, Note_on_c, 0, 70, 0
2, 72425, Note_on_c, 0, 73, 83
2, 72427, Note_on_c, 0, 72, 0
2, 72429, Note_on_c, 0, 58, 65
2, 72438, Note_on_c, 0, 56, 0
2, 72513, Note_on_c, 0, 73, 0
2, 72519, Note_on_c, 0, 70, 80
2, 72527, Note_on_c, 0, 55, 60
2, 72543, Note_on_c, 0, 58, 0
2, 72596, Note_on_c, 0, 55, 0
2, 72648, Note_on_c, 0, 82, 81
2, 72660, Note_on_c, 0, 51, 35
2, 72681, Note_on_c, 0, 80, 43
2, 72704, Note_on_c, 0, 70, 0
2, 72716, Note_on_c, 0, 80, 0
2, 72769, Note_on_c, 0, 73, 71
2, 72774, Note_on_c, 0, 53, 55
2, 72853, Note_on_c, 0, 51, 0
2, 72888, Note_on_c, 0, 55, 50
2, 72893, Note_on_c, 0, 75, 73
2, 72925, Note_on_c, 0, 73, 0
2, 72986, Note_on_c, 0, 55, 0
2, 72989, Note_on_c, 0, 51, 54
2, 72994, Note_on_c, 0, 70, 68
2, 73027, Note_on_c, 0, 53, 0
2, 73033, Note_on_c, 0, 70, 0
2, 73035, Note_on_c, 0, 75, 0
2, 73115, Control_c, 0, 64, 36
2, 73117, Note_on_c, 0, 44, 62
2, 73121, Note_on_c, 0, 72, 74
2, 73130, Control_c, 0, 64, 57
2, 73146, Control_c, 0, 64, 63
2, 73159, Note_on_c, 0, 51, 0
2, 73161, Control_c, 0, 64, 67
2, 73167, Note_on_c, 0, 44, 0
2, 73177, Control_c, 0, 64, 74
2, 73191, Control_c, 0, 64, 84
2, 73206, Control_c, 0, 64, 97
2, 73222, Control_c, 0, 64, 127
2, 73234, Note_on_c, 0, 72, 0
2, 73236, Note_on_c, 0, 82, 0
2, 73241, Note_on_c, 0, 80, 73
2, 73350, Note_on_c, 0, 79, 79
2, 73353, Note_on_c, 0, 80, 0
2, 73360, Note_on_c, 0, 56, 66
2, 73448, Note_on_c, 0, 82, 86
2, 73462, Note_on_c, 0, 79, 0
2, 73464, Note_on_c, 0, 58, 75
2, 73511, Control_c, 0, 64, 97
2, 73525, Control_c, 0, 64, 75
2, 73541, Control_c, 0, 64, 53
2, 73556, Control_c, 0, 64, 0
2, 73578, Note_on_c, 0, 60, 83
2, 73578, Note_on_c, 0, 80, 85
2, 73582, Note_on_c, 0, 56, 0
2, 73605, Note_on_c, 0, 58, 0
2, 73605, Note_on_c, 0, 82, 0
2, 73610, Note_on_c, 0, 60, 0
2, 73688, Note_on_c, 0, 75, 81
2, 73706, Note_on_c, 0, 80, 0
2, 73801, Note_on_c, 0, 77, 79
2, 73805, Note_on_c, 0, 56, 59
2, 73806, Note_on_c, 0, 68, 67
2, 73806, Note_on_c, 0, 75, 0
2, 73876, Note_on_c, 0, 56, 0
2, 73915, Note_on_c, 0, 78, 76
2, 73936, Note_on_c, 0, 77, 0
2, 74047, Note_on_c, 0, 77, 81
2, 74050, Note_on_c, 0, 61, 46
2, 74071, Note_on_c, 0, 78, 0
2, 74166, Note_on_c, 0, 75, 84
2, 74173, Note_on_c, 0, 67, 68
2, 74176, Note_on_c, 0, 77, 0
2, 74188, Note_on_c, 0, 68, 0
2, 74271, Note_on_c, 0, 73, 90
2, 74274, Note_on_c, 0, 65, 67
2, 74274, Note_on_c, 0, 67, 0
2, 74296, Note_on_c, 0, 75, 0
2, 74381, Note_on_c, 0, 75, 92
2, 74396, Note_on_c, 0, 67, 71
2, 74400, Note_on_c, 0, 73, 0
2, 74478, Note_on_c, 0, 61, 0
2, 74489, Note_on_c, 0, 65, 0
2, 74506, Note_on_c, 0, 67, 0
2, 74511, Note_on_c, 0, 84, 81
2, 74518, Note_on_c, 0, 60, 60
2, 74518, Note_on_c, 0, 68, 70
2, 74522, Note_on_c, 0, 75, 0
2, 74546, Note_on_c, 0, 84, 0
2, 74604, Note_on_c, 0, 68, 0
2, 74624, Note_on_c, 0, 66, 74
2, 74729, Note_on_c, 0, 66, 0
2, 74740, Note_on_c, 0, 80, 88
2, 74741, Note_on_c, 0, 65, 64
2, 74774, Note_on_c, 0, 60, 0
2, 74781, Note_on_c, 0, 80, 0
2, 74842, Note_on_c, 0, 63, 76
2, 74852, Note_on_c, 0, 65, 0
2, 74979, Note_on_c, 0, 65, 69
2, 74980, Note_on_c, 0, 75, 83
2, 74983, Note_on_c, 0, 63, 0
2, 74986, Note_on_c, 0, 58, 64
2, 75017, Note_on_c, 0, 58, 0
2, 75206, Note_on_c, 0, 56, 70
2, 75234, Note_on_c, 0, 73, 75
2, 75238, Note_on_c, 0, 56, 0
2, 75266, Note_on_c, 0, 75, 0
2, 75332, Note_on_c, 0, 72, 74
2, 75354, Note_on_c, 0, 73, 0
2, 75439, Note_on_c, 0, 55, 63
2, 75450, Note_on_c, 0, 73, 85
2, 75457, Note_on_c, 0, 72, 0
2, 75479, Note_on_c, 0, 73, 0
2, 75552, Note_on_c, 0, 63, 66
2, 75606, Note_on_c, 0, 65, 0
2, 75669, Note_on_c, 0, 82, 83
2, 75683, Note_on_c, 0, 61, 67
2, 75717, Note_on_c, 0, 82, 0
2, 75723, Note_on_c, 0, 63, 0
2, 75727, Note_on_c, 0, 55, 0
2, 75778, Note_on_c, 0, 65, 58
2, 75894, Note_on_c, 0, 61, 0
2, 75902, Note_on_c, 0, 65, 0
2, 75908, Note_on_c, 0, 56, 54
2, 75908, Note_on_c, 0, 63, 57
2, 75923, Note_on_c, 0, 72, 81
2, 75954, Note_on_c, 0, 72, 0
2, 76025, Note_on_c, 0, 61, 64
2, 76044, Note_on_c, 0, 63, 0
2, 76132, Note_on_c, 0, 60, 58
2, 76147, Note_on_c, 0, 61, 0
2, 76156, Note_on_c, 0, 80, 80
2, 76194, Note_on_c, 0, 56, 0
2, 76204, Note_on_c, 0, 80, 0
2, 76206, Note_on_c, 0, 60, 0
2, 76219, Note_on_c, 0, 63, 70
2, 76311, Note_on_c, 0, 63, 0
2, 76357, Note_on_c, 0, 61, 59
2, 76369, Note_on_c, 0, 70, 68
2, 76385, Note_on_c, 0, 51, 48
2, 76403, Note_on_c, 0, 70, 0
2, 76457, Note_on_c, 0, 61, 0
2, 76481, Note_on_c, 0, 60, 58
2, 76602, Note_on_c, 0, 60, 0
2, 76604, Note_on_c, 0, 61, 60
2, 76619, Note_on_c, 0, 79, 55
2, 76646, Note_on_c, 0, 79, 0
2, 76707, Note_on_c, 0, 61, 0
2, 76710, Note_on_c, 0, 58, 59
2, 76831, Note_on_c, 0, 51, 0
2, 76837, Note_on_c, 0, 58, 0
2, 76861, Note_on_c, 0, 60, 61
2, 76865, Note_on_c, 0, 56, 42
2, 76875, Note_on_c, 0, 68, 51
2, 76890, Note_on_c, 0, 60, 0
2, 76946, Note_on_c, 0, 68, 0
2, 76972, Note_on_c, 0, 70, 55
2, 77056, Note_on_c, 0, 70, 0
2, 77081, Note_on_c, 0, 63, 58
2, 77099, Note_on_c, 0, 72, 54
2, 77128, Note_on_c, 0, 63, 0
2, 77180, Note_on_c, 0, 72, 0
2, 77206, Note_on_c, 0, 73, 60
2, 77309, Note_on_c, 0, 73, 0
2, 77322, Note_on_c, 0, 68, 47
2, 77324, Note_on_c, 0, 72, 53
2, 77336, Control_c, 0, 64, 21
2, 77351, Control_c, 0, 64, 43
2, 77366, Control_c, 0, 64, 51
2, 77382, Control_c, 0, 64, 56
2, 77397, Control_c, 0, 64, 59
2, 77417, Note_on_c, 0, 72, 0
2, 77420, Control_c, 0, 64, 62
2, 77435, Control_c, 0, 64, 64
2, 77440, Note_on_c, 0, 68, 0
2, 77443, Note_on_c, 0, 70, 46
2, 77450, Control_c, 0, 64, 65
2, 77465, Control_c, 0, 64, 67
2, 77480, Control_c, 0, 64, 69
2, 77490, Note_on_c, 0, 56, 0
2, 77496, Control_c, 0, 64, 70
2, 77511, Control_c, 0, 64, 71
2, 77543, Note_on_c, 0, 70, 0
2, 77544, Note_on_c, 0, 63, 50
2, 77565, Note_on_c, 0, 68, 56
2, 77622, Note_on_c, 0, 68, 0
2, 77653, Note_on_c, 0, 72, 60
2, 77664, Note_on_c, 0, 60, 47
2, 77677, Control_c, 0, 64, 69
2, 77693, Control_c, 0, 64, 68
2, 77708, Control_c, 0, 64, 66
2, 77718, Note_on_c, 0, 63, 0
2, 77724, Control_c, 0, 64, 65
2, 77726, Note_on_c, 0, 72, 0
2, 77740, Control_c, 0, 64, 63
2, 77755, Control_c, 0, 64, 60
2, 77769, Control_c, 0, 64, 55
2, 77776, Note_on_c, 0, 60, 0
2, 77777, Note_on_c, 0, 56, 56
2, 77784, Control_c, 0, 64, 47
2, 77784, Note_on_c, 0, 77, 61
2, 77799, Control_c, 0, 64, 35
2, 77808, Note_on_c, 0, 56, 0
2, 77815, Control_c, 0, 64, 0
2, 77893, Note_on_c, 0, 75, 71
2, 77941, Note_on_c, 0, 77, 0
2, 78012, Note_on_c, 0, 59, 50
2, 78013, Note_on_c, 0, 74, 66
2, 78019, Note_on_c, 0, 75, 0
2, 78108, Note_on_c, 0, 59, 0
2, 78118, Note_on_c, 0, 56, 53
2, 78118, Note_on_c, 0, 77, 72
2, 78123, Note_on_c, 0, 74, 0
2, 78252, Note_on_c, 0, 77, 0
2, 78258, Note_on_c, 0, 53, 51
2, 78261, Note_on_c, 0, 80, 73
2, 78299, Note_on_c, 0, 56, 0
2, 78300, Note_on_c, 0, 53, 0
2, 78358, Note_on_c, 0, 78, 81
2, 78382, Note_on_c, 0, 80, 0
2, 78463, Note_on_c, 0, 77, 76
2, 78465, Note_on_c, 0, 56, 53
2, 78487, Note_on_c, 0, 78, 0
2, 78560, Note_on_c, 0, 80, 78
2, 78585, Note_on_c, 0, 53, 56
2, 78586, Note_on_c, 0, 56, 0
2, 78610, Note_on_c, 0, 80, 0
2, 78698, Note_on_c, 0, 77, 0
2, 78713, Note_on_c, 0, 80, 45
2, 78716, Note_on_c, 0, 50, 43
2, 78722, Note_on_c, 0, 53, 0
2, 78735, Note_on_c, 0, 82, 73
2, 78747, Note_on_c, 0, 80, 0
2, 78798, Note_on_c, 0, 83, 80
2, 78810, Note_on_c, 0, 82, 0
2, 78987, Note_on_c, 0, 53, 49
2, 78997, Note_on_c, 0, 82, 68
2, 79031, Note_on_c, 0, 83, 0
2, 79083, Note_on_c, 0, 56, 59
2, 79090, Note_on_c, 0, 80, 78
2, 79139, Note_on_c, 0, 50, 0
2, 79144, Note_on_c, 0, 53, 0
2, 79187, Note_on_c, 0, 82, 0
2, 79212, Note_on_c, 0, 59, 66
2, 79213, Note_on_c, 0, 78, 78
2, 79218, Note_on_c, 0, 56, 0
2, 79224, Note_on_c, 0, 80, 0
2, 79234, Note_on_c, 0, 59, 0
2, 79312, Note_on_c, 0, 78, 0
2, 79318, Note_on_c, 0, 77, 74
2, 79426, Note_on_c, 0, 77, 0
2, 79431, Note_on_c, 0, 53, 58
2, 79444, Note_on_c, 0, 75, 60
2, 79462, Note_on_c, 0, 53, 0
2, 79535, Note_on_c, 0, 75, 0
2, 79540, Note_on_c, 0, 74, 62
2, 79659, Note_on_c, 0, 75, 68
2, 79662, Note_on_c, 0, 57, 65
2, 79673, Note_on_c, 0, 54, 51
2, 79692, Note_on_c, 0, 57, 0
2, 79698, Note_on_c, 0, 54, 0
2, 79698, Note_on_c, 0, 74, 0
2, 79780, Note_on_c, 0, 78, 69
2, 79795, Note_on_c, 0, 75, 0
2, 79897, Note_on_c, 0, 77, 80
2, 79902, Note_on_c, 0, 56, 70
2, 79902, Note_on_c, 0, 59, 65
2, 79926, Note_on_c, 0, 56, 0
2, 79928, Note_on_c, 0, 59, 0
2, 79940, Note_on_c, 0, 78, 0
2, 80005, Note_on_c, 0, 75, 79
2, 80035, Note_on_c, 0, 77, 0
2, 80122, Note_on_c, 0, 74, 70
2, 80125, Note_on_c, 0, 75, 0
2, 80132, Note_on_c, 0, 58, 68
2, 80159, Note_on_c, 0, 58, 0
2, 80229, Note_on_c, 0, 74, 0
2, 80243, Note_on_c, 0, 77, 72
2, 80353, Note_on_c, 0, 77, 0
2, 80365, Note_on_c, 0, 50, 50
2, 80366, Note_on_c, 0, 70, 69
2, 80373, Note_on_c, 0, 46, 58
2, 80391, Note_on_c, 0, 50, 0
2, 80398, Note_on_c, 0, 46, 0
2, 80455, Note_on_c, 0, 70, 0
2, 80459, Note_on_c, 0, 68, 67
2, 80586, Note_on_c, 0, 68, 0
2, 80610, Note_on_c, 0, 51, 36
2, 80615, Note_on_c, 0, 66, 57
2, 80626, Note_on_c, 0, 39, 33
2, 80706, Note_on_c, 0, 66, 0
2, 80724, Note_on_c, 0, 65, 53
2, 80815, Note_on_c, 0, 65, 0
2, 80849, Note_on_c, 0, 63, 50
2, 80918, Note_on_c, 0, 63, 0
2, 80922, Note_on_c, 0, 39, 0
2, 80953, Note_on_c, 0, 62, 50
2, 80997, Note_on_c, 0, 51, 0
2, 81009, Note_on_c, 0, 62, 0
2, 81067, Note_on_c, 0, 63, 50
2, 81145, Note_on_c, 0, 63, 0
2, 81177, Note_on_c, 0, 65, 50
2, 81268, Note_on_c, 0, 65, 0
2, 81290, Note_on_c, 0, 51, 54
2, 81323, Note_on_c, 0, 66, 26
2, 81324, Note_on_c, 0, 51, 0
2, 81369, Note_on_c, 0, 66, 0
2, 81423, Note_on_c, 0, 68, 37
2, 81500, Note_on_c, 0, 68, 0
2, 81538, Note_on_c, 0, 54, 50
2, 81541, Note_on_c, 0, 70, 41
2, 81632, Note_on_c, 0, 70, 0
2, 81647, Note_on_c, 0, 68, 46
2, 81668, Note_on_c, 0, 54, 0
2, 81672, Note_on_c, 0, 53, 55
2, 81758, Note_on_c, 0, 53, 0
2, 81759, Note_on_c, 0, 68, 0
2, 81773, Note_on_c, 0, 66, 55
2, 81778, Note_on_c, 0, 51, 60
2, 81864, Note_on_c, 0, 51, 0
2, 81877, Note_on_c, 0, 66, 0
2, 81888, Note_on_c, 0, 68, 58
2, 81890, Note_on_c, 0, 53, 47
2, 81973, Note_on_c, 0, 53, 0
2, 81992, Note_on_c, 0, 68, 0
2, 82003, Note_on_c, 0, 61, 71
2, 82024, Note_on_c, 0, 70, 59
2, 82042, Note_on_c, 0, 61, 0
2, 82113, Note_on_c, 0, 70, 0
2, 82128, Note_on_c, 0, 68, 56
2, 82241, Note_on_c, 0, 58, 69
2, 82247, Note_on_c, 0, 68, 0
2, 82249, Note_on_c, 0, 66, 59
2, 82272, Note_on_c, 0, 58, 0
2, 82330, Note_on_c, 0, 66, 0
2, 82349, Note_on_c, 0, 65, 60
2, 82482, Note_on_c, 0, 65, 0
2, 82487, Note_on_c, 0, 66, 53
2, 82489, Note_on_c, 0, 53, 51
2, 82750, Note_on_c, 0, 51, 55
2, 82761, Note_on_c, 0, 53, 0
2, 82863, Note_on_c, 0, 51, 0
2, 82877, Note_on_c, 0, 49, 55
2, 82948, Note_on_c, 0, 49, 0
2, 82991, Note_on_c, 0, 51, 64
2, 83019, Note_on_c, 0, 51, 0
2, 83096, Note_on_c, 0, 65, 55
2, 83174, Note_on_c, 0, 66, 0
2, 83210, Note_on_c, 0, 60, 57
2, 83210, Note_on_c, 0, 65, 0
2, 83225, Note_on_c, 0, 63, 56
2, 83235, Note_on_c, 0, 60, 0
2, 83314, Note_on_c, 0, 63, 0
2, 83316, Note_on_c, 0, 66, 60
2, 83439, Note_on_c, 0, 49, 64
2, 83455, Note_on_c, 0, 65, 64
2, 83472, Note_on_c, 0, 49, 0
2, 83522, Note_on_c, 0, 66, 0
2, 83544, Note_on_c, 0, 65, 0
2, 83556, Note_on_c, 0, 63, 66
2, 83675, Note_on_c, 0, 58, 67
2, 83687, Note_on_c, 0, 61, 62
2, 83696, Note_on_c, 0, 63, 0
2, 83706, Note_on_c, 0, 58, 0
2, 83795, Note_on_c, 0, 65, 61
2, 83801, Note_on_c, 0, 61, 0
2, 83912, Note_on_c, 0, 48, 60
2, 83924, Note_on_c, 0, 63, 64
2, 83945, Note_on_c, 0, 48, 0
2, 83957, Note_on_c, 0, 65, 0
2, 84029, Note_on_c, 0, 61, 61
2, 84038, Note_on_c, 0, 63, 0
2, 84155, Note_on_c, 0, 57, 54
2, 84170, Note_on_c, 0, 63, 63
2, 84178, Note_on_c, 0, 61, 0
2, 84187, Note_on_c, 0, 57, 0
2, 84262, Note_on_c, 0, 63, 0
2, 84272, Note_on_c, 0, 60, 60
2, 84386, Note_on_c, 0, 46, 45
2, 84417, Note_on_c, 0, 61, 53
2, 84445, Note_on_c, 0, 60, 0
2, 84482, Note_on_c, 0, 46, 0
2, 84483, Control_c, 0, 64, 25
2, 84499, Control_c, 0, 64, 44
2, 84514, Control_c, 0, 64, 53
2, 84519, Note_on_c, 0, 65, 63
2, 84520, Note_on_c, 0, 61, 0
2, 84528, Control_c, 0, 64, 58
2, 84544, Control_c, 0, 64, 61
2, 84559, Control_c, 0, 64, 63
2, 84574, Control_c, 0, 64, 64
2, 84589, Control_c, 0, 64, 65
2, 84604, Control_c, 0, 64, 66
2, 84620, Control_c, 0, 64, 69
2, 84623, Note_on_c, 0, 65, 0
2, 84632, Note_on_c, 0, 66, 63
2, 84635, Control_c, 0, 64, 71
2, 84650, Control_c, 0, 64, 72
2, 84657, Note_on_c, 0, 58, 50
2, 84707, Note_on_c, 0, 66, 0
2, 84736, Note_on_c, 0, 65, 72
2, 84754, Note_on_c, 0, 58, 0
2, 84764, Note_on_c, 0, 57, 55
2, 84773, Control_c, 0, 64, 71
2, 84787, Control_c, 0, 64, 71
2, 84802, Control_c, 0, 64, 70
2, 84818, Control_c, 0, 64, 67
2, 84833, Control_c, 0, 64, 64
2, 84848, Control_c, 0, 64, 57
2, 84850, Note_on_c, 0, 57, 0
2, 84862, Note_on_c, 0, 73, 77
2, 84863, Control_c, 0, 64, 43
2, 84868, Note_on_c, 0, 65, 0
2, 84878, Control_c, 0, 64, 0
2, 84879, Note_on_c, 0, 58, 59
2, 84968, Note_on_c, 0, 58, 0
2, 84985, Note_on_c, 0, 60, 56
2, 85098, Note_on_c, 0, 60, 0
2, 85105, Note_on_c, 0, 65, 54
2, 85109, Note_on_c, 0, 61, 55
2, 85136, Note_on_c, 0, 65, 0
2, 85172, Note_on_c, 0, 61, 0
2, 85195, Note_on_c, 0, 58, 53
2, 85300, Note_on_c, 0, 58, 0
2, 85344, Note_on_c, 0, 55, 35
2, 85349, Note_on_c, 0, 70, 55
2, 85427, Note_on_c, 0, 55, 0
2, 85452, Note_on_c, 0, 73, 0
2, 85456, Note_on_c, 0, 72, 64
2, 85457, Note_on_c, 0, 56, 54
2, 85506, Note_on_c, 0, 70, 0
2, 85560, Note_on_c, 0, 72, 0
2, 85569, Note_on_c, 0, 73, 77
2, 85575, Note_on_c, 0, 58, 60
2, 85588, Note_on_c, 0, 56, 0
2, 85644, Note_on_c, 0, 73, 0
2, 85661, Note_on_c, 0, 70, 69
2, 85674, Note_on_c, 0, 55, 51
2, 85680, Note_on_c, 0, 58, 0
2, 85742, Note_on_c, 0, 55, 0
2, 85794, Note_on_c, 0, 82, 76
2, 85810, Note_on_c, 0, 51, 44
2, 85882, Note_on_c, 0, 70, 0
2, 85916, Note_on_c, 0, 73, 63
2, 85945, Note_on_c, 0, 53, 39
2, 86023, Note_on_c, 0, 51, 0
2, 86029, Note_on_c, 0, 55, 50
2, 86037, Note_on_c, 0, 75, 67
2, 86044, Note_on_c, 0, 73, 0
2, 86100, Note_on_c, 0, 82, 0
2, 86135, Note_on_c, 0, 55, 0
2, 86145, Note_on_c, 0, 70, 58
2, 86146, Note_on_c, 0, 53, 0
2, 86163, Note_on_c, 0, 51, 47
2, 86166, Note_on_c, 0, 75, 0
2, 86231, Control_c, 0, 64, 45
2, 86246, Control_c, 0, 64, 55
2, 86262, Control_c, 0, 64, 61
2, 86266, Note_on_c, 0, 44, 55
2, 86277, Control_c, 0, 64, 65
2, 86279, Note_on_c, 0, 72, 48
2, 86281, Note_on_c, 0, 70, 0
2, 86283, Note_on_c, 0, 51, 0
2, 86293, Control_c, 0, 64, 71
2, 86302, Note_on_c, 0, 44, 0
2, 86303, Note_on_c, 0, 72, 0
2, 86307, Control_c, 0, 64, 76
2, 86322, Control_c, 0, 64, 81
2, 86338, Control_c, 0, 64, 89
2, 86353, Control_c, 0, 64, 97
2, 86368, Control_c, 0, 64, 106
2, 86384, Control_c, 0, 64, 114
2, 86399, Control_c, 0, 64, 117
2, 86412, Note_on_c, 0, 63, 64
2, 86429, Control_c, 0, 64, 119
2, 86460, Control_c, 0, 64, 121
2, 86494, Note_on_c, 0, 63, 0
2, 86497, Note_on_c, 0, 65, 70
2, 86515, Note_on_c, 0, 56, 55
2, 86565, Control_c, 0, 64, 119
2, 86581, Control_c, 0, 64, 117
2, 86596, Control_c, 0, 64, 110
2, 86599, Note_on_c, 0, 63, 73
2, 86605, Note_on_c, 0, 65, 0
2, 86612, Control_c, 0, 64, 100
2, 86629, Note_on_c, 0, 56, 0
2, 86634, Control_c, 0, 64, 87
2, 86649, Control_c, 0, 64, 76
2, 86650, Note_on_c, 0, 55, 44
2, 86665, Control_c, 0, 64, 69
2, 86679, Control_c, 0, 64, 64
2, 86695, Control_c, 0, 64, 52
2, 86710, Control_c, 0, 64, 0
2, 86746, Note_on_c, 0, 55, 0
2, 86750, Note_on_c, 0, 72, 77
2, 86762, Note_on_c, 0, 56, 62
2, 86763, Note_on_c, 0, 63, 0
2, 86867, Note_on_c, 0, 58, 57
2, 86871, Note_on_c, 0, 56, 0
2, 86977, Note_on_c, 0, 60, 48
2, 86982, Note_on_c, 0, 63, 56
2, 87007, Note_on_c, 0, 63, 0
2, 87057, Note_on_c, 0, 60, 0
2, 87077, Note_on_c, 0, 58, 0
2, 87081, Note_on_c, 0, 56, 55
2, 87201, Note_on_c, 0, 56, 0
2, 87206, Note_on_c, 0, 68, 61
2, 87228, Note_on_c, 0, 53, 43
2, 87298, Note_on_c, 0, 72, 0
2, 87316, Note_on_c, 0, 70, 74
2, 87338, Note_on_c, 0, 53, 0
2, 87340, Note_on_c, 0, 55, 56
2, 87396, Note_on_c, 0, 68, 0
2, 87433, Note_on_c, 0, 72, 80
2, 87435, Note_on_c, 0, 56, 63
2, 87440, Note_on_c, 0, 70, 0
2, 87443, Note_on_c, 0, 55, 0
2, 87513, Note_on_c, 0, 72, 0
2, 87533, Note_on_c, 0, 68, 69
2, 87544, Note_on_c, 0, 53, 55
2, 87560, Note_on_c, 0, 56, 0
2, 87618, Note_on_c, 0, 53, 0
2, 87668, Note_on_c, 0, 80, 81
2, 87671, Note_on_c, 0, 49, 45
2, 87736, Note_on_c, 0, 68, 0
2, 87753, Control_c, 0, 64, 30
2, 87766, Control_c, 0, 64, 52
2, 87778, Note_on_c, 0, 72, 71
2, 87782, Control_c, 0, 64, 58
2, 87784, Note_on_c, 0, 51, 53
2, 87797, Control_c, 0, 64, 61
2, 87802, Note_on_c, 0, 49, 0
2, 87813, Control_c, 0, 64, 65
2, 87827, Control_c, 0, 64, 68
2, 87842, Control_c, 0, 64, 73
2, 87858, Control_c, 0, 64, 76
2, 87873, Control_c, 0, 64, 78
2, 87879, Note_on_c, 0, 80, 0
2, 87888, Control_c, 0, 64, 80
2, 87894, Note_on_c, 0, 73, 73
2, 87898, Note_on_c, 0, 53, 55
2, 87904, Control_c, 0, 64, 82
2, 87916, Note_on_c, 0, 72, 0
2, 87918, Control_c, 0, 64, 83
2, 87986, Note_on_c, 0, 73, 0
2, 87993, Note_on_c, 0, 49, 59
2, 87995, Note_on_c, 0, 68, 70
2, 88004, Note_on_c, 0, 53, 0
2, 88033, Note_on_c, 0, 49, 0
2, 88040, Control_c, 0, 64, 81
2, 88040, Note_on_c, 0, 51, 0
2, 88056, Control_c, 0, 64, 71
2, 88064, Note_on_c, 0, 68, 0
2, 88071, Control_c, 0, 64, 59
2, 88086, Control_c, 0, 64, 43
2, 88102, Control_c, 0, 64, 52
2, 88116, Control_c, 0, 64, 58
2, 88122, Note_on_c, 0, 70, 70
2, 88132, Control_c, 0, 64, 63
2, 88139, Note_on_c, 0, 43, 62
2, 88147, Control_c, 0, 64, 66
2, 88169, Control_c, 0, 64, 68
2, 88179, Note_on_c, 0, 43, 0
2, 88185, Control_c, 0, 64, 71
2, 88200, Control_c, 0, 64, 73
2, 88216, Control_c, 0, 64, 76
2, 88230, Control_c, 0, 64, 79
2, 88245, Control_c, 0, 64, 82
2, 88253, Note_on_c, 0, 61, 70
2, 88261, Control_c, 0, 64, 84
2, 88276, Control_c, 0, 64, 85
2, 88293, Note_on_c, 0, 70, 0
2, 88356, Note_on_c, 0, 63, 75
2, 88361, Note_on_c, 0, 61, 0
2, 88366, Note_on_c, 0, 55, 55
2, 88429, Control_c, 0, 64, 84
2, 88444, Control_c, 0, 64, 80
2, 88458, Note_on_c, 0, 61, 81
2, 88460, Control_c, 0, 64, 76
2, 88466, Note_on_c, 0, 55, 0
2, 88474, Control_c, 0, 64, 71
2, 88479, Note_on_c, 0, 63, 0
2, 88483, Note_on_c, 0, 53, 62
2, 88489, Control_c, 0, 64, 65
2, 88505, Control_c, 0, 64, 54
2, 88520, Control_c, 0, 64, 0
2, 88598, Note_on_c, 0, 55, 61
2, 88599, Note_on_c, 0, 70, 84
2, 88615, Note_on_c, 0, 53, 0
2, 88627, Note_on_c, 0, 61, 0
2, 88714, Note_on_c, 0, 56, 64
2, 88722, Note_on_c, 0, 55, 0
2, 88822, Note_on_c, 0, 56, 0
2, 88833, Note_on_c, 0, 61, 72
2, 88842, Note_on_c, 0, 58, 60
2, 88890, Note_on_c, 0, 61, 0
2, 88897, Note_on_c, 0, 58, 0
2, 88958, Note_on_c, 0, 55, 64
2, 89073, Note_on_c, 0, 55, 0
2, 89079, Note_on_c, 0, 52, 57
2, 89080, Note_on_c, 0, 67, 74
2, 89083, Note_on_c, 0, 70, 0
2, 89186, Note_on_c, 0, 52, 0
2, 89190, Note_on_c, 0, 53, 66
2, 89191, Note_on_c, 0, 68, 77
2, 89245, Note_on_c, 0, 67, 0
2, 89305, Note_on_c, 0, 70, 77
2, 89318, Note_on_c, 0, 55, 69
2, 89321, Note_on_c, 0, 68, 0
2, 89340, Note_on_c, 0, 53, 0
2, 89402, Note_on_c, 0, 70, 0
2, 89403, Note_on_c, 0, 67, 83
2, 89411, Note_on_c, 0, 52, 63
2, 89417, Note_on_c, 0, 55, 0
2, 89516, Note_on_c, 0, 52, 0
2, 89535, Note_on_c, 0, 48, 61
2, 89553, Note_on_c, 0, 79, 87
2, 89649, Note_on_c, 0, 48, 0
2, 89655, Control_c, 0, 64, 35
2, 89659, Note_on_c, 0, 50, 57
2, 89666, Note_on_c, 0, 79, 0
2, 89670, Control_c, 0, 64, 50
2, 89672, Note_on_c, 0, 70, 73
2, 89685, Control_c, 0, 64, 59
2, 89708, Control_c, 0, 64, 64
2, 89723, Control_c, 0, 64, 68
2, 89738, Control_c, 0, 64, 73
2, 89753, Control_c, 0, 64, 78
2, 89769, Control_c, 0, 64, 83
2, 89784, Control_c, 0, 64, 89
2, 89786, Note_on_c, 0, 72, 74
2, 89790, Note_on_c, 0, 52, 61
2, 89798, Note_on_c, 0, 67, 0
2, 89799, Control_c, 0, 64, 96
2, 89808, Note_on_c, 0, 70, 0
2, 89814, Control_c, 0, 64, 105
2, 89829, Control_c, 0, 64, 127
2, 89856, Note_on_c, 0, 50, 0
2, 89874, Note_on_c, 0, 52, 0
2, 89880, Note_on_c, 0, 48, 69
2, 89893, Note_on_c, 0, 67, 80
2, 89899, Note_on_c, 0, 72, 0
2, 89908, Note_on_c, 0, 48, 0
2, 90021, Note_on_c, 0, 41, 62
2, 90024, Note_on_c, 0, 68, 73
2, 90074, Note_on_c, 0, 67, 0
2, 90142, Note_on_c, 0, 76, 81
2, 90150, Note_on_c, 0, 43, 67
2, 90165, Control_c, 0, 64, 108
2, 90174, Note_on_c, 0, 68, 0
2, 90180, Control_c, 0, 64, 95
2, 90195, Control_c, 0, 64, 84
2, 90211, Control_c, 0, 64, 75
2, 90226, Control_c, 0, 64, 69
2, 90230, Note_on_c, 0, 41, 0
2, 90240, Control_c, 0, 64, 62
2, 90243, Note_on_c, 0, 44, 71
2, 90252, Note_on_c, 0, 77, 88
2, 90256, Control_c, 0, 64, 48
2, 90271, Control_c, 0, 64, 10
2, 90281, Note_on_c, 0, 43, 0
2, 90286, Control_c, 0, 64, 0
2, 90341, Note_on_c, 0, 76, 0
2, 90351, Note_on_c, 0, 46, 71
2, 90351, Note_on_c, 0, 73, 84
2, 90375, Note_on_c, 0, 77, 0
2, 90397, Note_on_c, 0, 44, 0
2, 90488, Note_on_c, 0, 70, 86
2, 90489, Note_on_c, 0, 46, 0
2, 90492, Note_on_c, 0, 48, 67
2, 90506, Note_on_c, 0, 73, 0
2, 90587, Note_on_c, 0, 48, 0
2, 90596, Note_on_c, 0, 50, 70
2, 90645, Note_on_c, 0, 71, 25
2, 90670, Note_on_c, 0, 71, 0
2, 90714, Note_on_c, 0, 50, 0
2, 90715, Note_on_c, 0, 52, 67
2, 90728, Note_on_c, 0, 60, 83
2, 90786, Note_on_c, 0, 60, 0
2, 90840, Note_on_c, 0, 48, 57
2, 90862, Note_on_c, 0, 52, 0
2, 90953, Note_on_c, 0, 53, 55
2, 90966, Note_on_c, 0, 61, 82
2, 91008, Note_on_c, 0, 48, 0
2, 91080, Note_on_c, 0, 60, 87
2, 91085, Note_on_c, 0, 51, 58
2, 91089, Note_on_c, 0, 70, 0
2, 91108, Note_on_c, 0, 61, 0
2, 91114, Note_on_c, 0, 53, 0
2, 91185, Note_on_c, 0, 51, 0
2, 91187, Note_on_c, 0, 49, 58
2, 91195, Note_on_c, 0, 58, 88
2, 91214, Note_on_c, 0, 60, 0
2, 91306, Note_on_c, 0, 60, 89
2, 91314, Note_on_c, 0, 51, 66
2, 91336, Note_on_c, 0, 58, 0
2, 91346, Note_on_c, 0, 49, 0
2, 91429, Note_on_c, 0, 51, 0
2, 91440, Note_on_c, 0, 68, 87
2, 91442, Note_on_c, 0, 53, 62
2, 91449, Note_on_c, 0, 60, 0
2, 91543, Note_on_c, 0, 53, 0
2, 91546, Note_on_c, 0, 51, 68
2, 91662, Note_on_c, 0, 49, 68
2, 91684, Note_on_c, 0, 65, 83
2, 91700, Note_on_c, 0, 51, 0
2, 91747, Note_on_c, 0, 65, 0
2, 91762, Note_on_c, 0, 49, 0
2, 91774, Note_on_c, 0, 48, 69
2, 91924, Note_on_c, 0, 49, 67
2, 91927, Note_on_c, 0, 48, 0
2, 91947, Note_on_c, 0, 60, 74
2, 92172, Note_on_c, 0, 60, 0
2, 92189, Note_on_c, 0, 68, 0
2, 92194, Note_on_c, 0, 58, 73
2, 92212, Note_on_c, 0, 61, 32
2, 92294, Note_on_c, 0, 56, 82
2, 92319, Note_on_c, 0, 58, 0
2, 92349, Note_on_c, 0, 61, 0
2, 92386, Note_on_c, 0, 56, 0
2, 92420, Note_on_c, 0, 58, 78
2, 92426, Note_on_c, 0, 67, 81
2, 92480, Note_on_c, 0, 67, 0
2, 92521, Note_on_c, 0, 49, 0
2, 92539, Note_on_c, 0, 48, 62
2, 92645, Note_on_c, 0, 48, 0
2, 92655, Note_on_c, 0, 67, 82
2, 92659, Note_on_c, 0, 46, 60
2, 92710, Note_on_c, 0, 67, 0
2, 92756, Note_on_c, 0, 46, 0
2, 92779, Note_on_c, 0, 49, 65
2, 92890, Note_on_c, 0, 49, 0
2, 92895, Note_on_c, 0, 56, 82
2, 92906, Note_on_c, 0, 48, 62
2, 92936, Note_on_c, 0, 56, 0
2, 92979, Note_on_c, 0, 58, 0
2, 93004, Note_on_c, 0, 48, 0
2, 93009, Note_on_c, 0, 46, 64
2, 93141, Note_on_c, 0, 44, 58
2, 93143, Note_on_c, 0, 65, 76
2, 93147, Note_on_c, 0, 46, 0
2, 93178, Note_on_c, 0, 65, 0
2, 93224, Note_on_c, 0, 44, 0
2, 93247, Note_on_c, 0, 48, 59
2, 93347, Note_on_c, 0, 48, 0
2, 93363, Note_on_c, 0, 55, 65
2, 93367, Note_on_c, 0, 46, 59
2, 93370, Note_on_c, 0, 64, 71
2, 93387, Note_on_c, 0, 55, 0
2, 93406, Note_on_c, 0, 64, 0
2, 93468, Note_on_c, 0, 46, 0
2, 93477, Note_on_c, 0, 44, 62
2, 93601, Note_on_c, 0, 44, 0
2, 93604, Note_on_c, 0, 67, 61
2, 93616, Note_on_c, 0, 46, 48
2, 93616, Note_on_c, 0, 64, 41
2, 93635, Note_on_c, 0, 67, 0
2, 93644, Note_on_c, 0, 64, 0
2, 93706, Note_on_c, 0, 43, 54
2, 93708, Note_on_c, 0, 46, 0
2, 93807, Note_on_c, 0, 43, 0
2, 93842, Note_on_c, 0, 44, 47
2, 93852, Note_on_c, 0, 53, 65
2, 93859, Note_on_c, 0, 72, 51
2, 93873, Note_on_c, 0, 44, 0
2, 93956, Note_on_c, 0, 72, 0
2, 93981, Note_on_c, 0, 70, 45
2, 94089, Note_on_c, 0, 70, 0
2, 94093, Note_on_c, 0, 49, 45
2, 94107, Note_on_c, 0, 68, 53
2, 94123, Note_on_c, 0, 49, 0
2, 94194, Note_on_c, 0, 68, 0
2, 94209, Note_on_c, 0, 72, 55
2, 94327, Note_on_c, 0, 43, 44
2, 94344, Note_on_c, 0, 72, 0
2, 94351, Note_on_c, 0, 70, 64
2, 94361, Note_on_c, 0, 43, 0
2, 94452, Note_on_c, 0, 68, 66
2, 94485, Note_on_c, 0, 70, 0
2, 94550, Note_on_c, 0, 53, 0
2, 94561, Note_on_c, 0, 52, 62
2, 94563, Note_on_c, 0, 68, 0
2, 94567, Note_on_c, 0, 67, 63
2, 94574, Note_on_c, 0, 48, 48
2, 94588, Note_on_c, 0, 52, 0
2, 94600, Note_on_c, 0, 48, 0
2, 94670, Note_on_c, 0, 67, 0
2, 94678, Note_on_c, 0, 70, 61
2, 94803, Note_on_c, 0, 53, 69
2, 94809, Note_on_c, 0, 68, 62
2, 94809, Note_on_c, 0, 70, 0
2, 94813, Note_on_c, 0, 41, 57
2, 94837, Note_on_c, 0, 53, 0
2, 94840, Note_on_c, 0, 41, 0
2, 94896, Note_on_c, 0, 68, 0
2, 94907, Note_on_c, 0, 65, 65
2, 95027, Note_on_c, 0, 73, 77
2, 95033, Note_on_c, 0, 52, 68
2, 95041, Note_on_c, 0, 46, 66
2, 95063, Note_on_c, 0, 65, 0
2, 95083, Note_on_c, 0, 52, 0
2, 95086, Note_on_c, 0, 46, 0
2, 95147, Note_on_c, 0, 70, 77
2, 95185, Note_on_c, 0, 73, 0
2, 95267, Note_on_c, 0, 53, 75
2, 95269, Note_on_c, 0, 44, 76
2, 95273, Note_on_c, 0, 72, 79
2, 95293, Note_on_c, 0, 70, 0
2, 95302, Note_on_c, 0, 53, 0
2, 95309, Note_on_c, 0, 44, 0
2, 95357, Note_on_c, 0, 72, 0
2, 95370, Note_on_c, 0, 68, 81
2, 95495, Note_on_c, 0, 58, 74
2, 95495, Note_on_c, 0, 78, 80
2, 95501, Note_on_c, 0, 49, 64
2, 95515, Note_on_c, 0, 68, 0
2, 95598, Note_on_c, 0, 76, 82
2, 95614, Note_on_c, 0, 78, 0
2, 95644, Note_on_c, 0, 58, 0
2, 95655, Note_on_c, 0, 76, 0
2, 95718, Note_on_c, 0, 48, 56
2, 95730, Note_on_c, 0, 56, 72
2, 95751, Note_on_c, 0, 76, 77
2, 95758, Note_on_c, 0, 49, 0
2, 95861, Note_on_c, 0, 77, 86
2, 95885, Note_on_c, 0, 76, 0
2, 95948, Note_on_c, 0, 55, 60
2, 95966, Note_on_c, 0, 83, 85
2, 95994, Note_on_c, 0, 77, 0
2, 96006, Note_on_c, 0, 56, 0
2, 96061, Note_on_c, 0, 53, 63
2, 96064, Note_on_c, 0, 55, 0
2, 96066, Note_on_c, 0, 84, 80
2, 96069, Note_on_c, 0, 83, 0
2, 96147, Note_on_c, 0, 84, 0
2, 96202, Note_on_c, 0, 55, 60
2, 96219, Note_on_c, 0, 77, 34
2, 96232, Note_on_c, 0, 76, 54
2, 96246, Note_on_c, 0, 77, 0
2, 96286, Note_on_c, 0, 76, 0
2, 96288, Note_on_c, 0, 77, 72
2, 96312, Note_on_c, 0, 48, 0
2, 96336, Note_on_c, 0, 76, 72
2, 96342, Note_on_c, 0, 77, 0
2, 96379, Note_on_c, 0, 53, 0
2, 96421, Note_on_c, 0, 55, 0
2, 96437, Note_on_c, 0, 58, 52
2, 96582, Note_on_c, 0, 77, 75
2, 96616, Note_on_c, 0, 76, 0
2, 96626, Note_on_c, 0, 77, 0
2, 96656, Note_on_c, 0, 58, 0
2, 96691, Note_on_c, 0, 53, 31
2, 96697, Note_on_c, 0, 56, 47
2, 96714, Note_on_c, 0, 77, 73
2, 96769, Note_on_c, 0, 53, 0
2, 96818, Note_on_c, 0, 58, 51
2, 96833, Note_on_c, 0, 56, 0
2, 96904, Note_on_c, 0, 58, 0
2, 96929, Note_on_c, 0, 60, 55
2, 97015, Note_on_c, 0, 60, 0
2, 97038, Note_on_c, 0, 56, 45
2, 97129, Note_on_c, 0, 56, 0
2, 97139, Note_on_c, 0, 77, 0
2, 97155, Note_on_c, 0, 53, 51
2, 97227, Note_on_c, 0, 53, 0
2, 97266, Note_on_c, 0, 54, 55
2, 97362, Note_on_c, 0, 54, 0
2, 97395, Note_on_c, 0, 56, 52
2, 97402, Note_on_c, 0, 77, 68
2, 97430, Note_on_c, 0, 77, 0
2, 97491, Note_on_c, 0, 56, 0
2, 97509, Note_on_c, 0, 53, 49
2, 97537, Note_on_c, 0, 53, 0
2, 97638, Note_on_c, 0, 71, 52
2, 97662, Note_on_c, 0, 50, 31
2, 97717, Note_on_c, 0, 71, 0
2, 97734, Note_on_c, 0, 50, 0
2, 97745, Note_on_c, 0, 70, 59
2, 97770, Note_on_c, 0, 51, 45
2, 97848, Note_on_c, 0, 68, 69
2, 97848, Note_on_c, 0, 70, 0
2, 97865, Note_on_c, 0, 51, 0
2, 97872, Note_on_c, 0, 53, 56
2, 97946, Note_on_c, 0, 68, 0
2, 97957, Note_on_c, 0, 53, 0
2, 97960, Note_on_c, 0, 70, 76
2, 97981, Note_on_c, 0, 50, 48
2, 98063, Note_on_c, 0, 50, 0
2, 98075, Note_on_c, 0, 46, 54
2, 98084, Note_on_c, 0, 77, 77
2, 98086, Note_on_c, 0, 70, 0
2, 98109, Note_on_c, 0, 77, 0
2, 98181, Note_on_c, 0, 46, 0
2, 98202, Note_on_c, 0, 50, 57
2, 98313, Note_on_c, 0, 50, 0
2, 98319, Note_on_c, 0, 53, 49
2, 98324, Note_on_c, 0, 74, 69
2, 98353, Note_on_c, 0, 74, 0
2, 98403, Note_on_c, 0, 53, 0
2, 98432, Note_on_c, 0, 58, 54
2, 98544, Note_on_c, 0, 58, 0
2, 98546, Note_on_c, 0, 51, 45
2, 98564, Note_on_c, 0, 68, 64
2, 98679, Note_on_c, 0, 51, 0
2, 98679, Note_on_c, 0, 54, 52
2, 98785, Note_on_c, 0, 54, 0
2, 98792, Note_on_c, 0, 58, 47
2, 98803, Note_on_c, 0, 66, 63
2, 98820, Note_on_c, 0, 68, 0
2, 98859, Note_on_c, 0, 58, 0
2, 98899, Note_on_c, 0, 62, 47
2, 98914, Note_on_c, 0, 66, 0
2, 98915, Note_on_c, 0, 65, 56
2, 98993, Note_on_c, 0, 62, 0
2, 99010, Note_on_c, 0, 65, 0
2, 99028, Note_on_c, 0, 66, 66
2, 99042, Note_on_c, 0, 63, 51
2, 99054, Note_on_c, 0, 66, 0
2, 99139, Note_on_c, 0, 63, 0
2, 99148, Note_on_c, 0, 65, 49
2, 99235, Note_on_c, 0, 65, 0
2, 99261, Note_on_c, 0, 75, 64
2, 99265, Note_on_c, 0, 66, 49
2, 99298, Note_on_c, 0, 75, 0
2, 99375, Note_on_c, 0, 63, 49
2, 99375, Note_on_c, 0, 66, 0
2, 99468, Note_on_c, 0, 63, 0
2, 99491, Note_on_c, 0, 60, 44
2, 99512, Note_on_c, 0, 69, 49
2, 99585, Note_on_c, 0, 60, 0
2, 99613, Note_on_c, 0, 69, 0
2, 99623, Note_on_c, 0, 61, 48
2, 99625, Note_on_c, 0, 68, 58
2, 99716, Note_on_c, 0, 68, 0
2, 99730, Note_on_c, 0, 66, 60
2, 99751, Note_on_c, 0, 63, 44
2, 99757, Note_on_c, 0, 61, 0
2, 99838, Note_on_c, 0, 66, 0
2, 99838, Note_on_c, 0, 68, 62
2, 99848, Note_on_c, 0, 63, 0
2, 99853, Note_on_c, 0, 60, 55
2, 99879, Note_on_c, 0, 60, 0
2, 99967, Note_on_c, 0, 75, 70
2, 99973, Note_on_c, 0, 68, 0
2, 99980, Note_on_c, 0, 56, 58
2, 99998, Note_on_c, 0, 75, 0
2, 100081, Note_on_c, 0, 44, 50
2, 100196, Note_on_c, 0, 72, 70
2, 100209, Note_on_c, 0, 46, 53
2, 100225, Note_on_c, 0, 72, 0
2, 100259, Note_on_c, 0, 44, 0
2, 100305, Note_on_c, 0, 48, 60
2, 100320, Note_on_c, 0, 46, 0
2, 100347, Note_on_c, 0, 48, 0
2, 100433, Note_on_c, 0, 66, 61
2, 100455, Note_on_c, 0, 56, 0
2, 100456, Note_on_c, 0, 49, 39
2, 100563, Note_on_c, 0, 56, 57
2, 100668, Note_on_c, 0, 66, 0
2, 100681, Note_on_c, 0, 65, 56
2, 100699, Note_on_c, 0, 58, 52
2, 100775, Note_on_c, 0, 65, 0
2, 100777, Note_on_c, 0, 58, 0
2, 100780, Note_on_c, 0, 49, 0
2, 100783, Note_on_c, 0, 60, 49
2, 100783, Note_on_c, 0, 63, 65
2, 100885, Note_on_c, 0, 63, 0
2, 100906, Note_on_c, 0, 60, 0
2, 100907, Note_on_c, 0, 65, 64
2, 100924, Note_on_c, 0, 61, 53
2, 100975, Note_on_c, 0, 56, 0
2, 101007, Note_on_c, 0, 61, 0
2, 101007, Note_on_c, 0, 65, 0
2, 101019, Note_on_c, 0, 68, 68
2, 101044, Note_on_c, 0, 51, 51
2, 101127, Note_on_c, 0, 73, 78
2, 101142, Note_on_c, 0, 53, 60
2, 101150, Note_on_c, 0, 51, 0
2, 101171, Note_on_c, 0, 68, 0
2, 101248, Note_on_c, 0, 75, 82
2, 101264, Note_on_c, 0, 55, 59
2, 101270, Note_on_c, 0, 53, 0
2, 101283, Note_on_c, 0, 73, 0
2, 101369, Note_on_c, 0, 55, 0
2, 101373, Note_on_c, 0, 77, 84
2, 101377, Note_on_c, 0, 56, 61
2, 101395, Note_on_c, 0, 75, 0
2, 101491, Note_on_c, 0, 75, 92
2, 101511, Note_on_c, 0, 55, 59
2, 101523, Note_on_c, 0, 77, 0
2, 101530, Note_on_c, 0, 56, 0
2, 101595, Note_on_c, 0, 55, 0
2, 101605, Note_on_c, 0, 73, 91
2, 101614, Note_on_c, 0, 53, 60
2, 101632, Note_on_c, 0, 75, 0
2, 101713, Note_on_c, 0, 73, 0
2, 101714, Note_on_c, 0, 75, 92
2, 101716, Note_on_c, 0, 55, 67
2, 101759, Note_on_c, 0, 53, 0
2, 101760, Note_on_c, 0, 75, 0
2, 101830, Note_on_c, 0, 56, 67
2, 101838, Note_on_c, 0, 72, 75
2, 101841, Note_on_c, 0, 84, 83
2, 101850, Note_on_c, 0, 55, 0
2, 101924, Note_on_c, 0, 84, 0
2, 101927, Note_on_c, 0, 56, 0
2, 101952, Note_on_c, 0, 55, 61
2, 102080, Note_on_c, 0, 53, 68
2, 102080, Note_on_c, 0, 80, 89
2, 102098, Note_on_c, 0, 55, 0
2, 102128, Note_on_c, 0, 80, 0
2, 102169, Note_on_c, 0, 53, 0
2, 102174, Note_on_c, 0, 51, 66
2, 102330, Note_on_c, 0, 53, 58
2, 102333, Note_on_c, 0, 75, 88
2, 102361, Note_on_c, 0, 72, 0
2, 102456, Note_on_c, 0, 51, 0
2, 102566, Note_on_c, 0, 73, 80
2, 102631, Note_on_c, 0, 75, 0
2, 102668, Note_on_c, 0, 72, 84
2, 102686, Note_on_c, 0, 73, 0
2, 102798, Note_on_c, 0, 73, 89
2, 102799, Note_on_c, 0, 70, 73
2, 102830, Note_on_c, 0, 72, 0
2, 102896, Note_on_c, 0, 73, 0
2, 102921, Note_on_c, 0, 51, 58
2, 102960, Note_on_c, 0, 53, 0
2, 103021, Note_on_c, 0, 49, 60
2, 103025, Note_on_c, 0, 51, 0
2, 103025, Note_on_c, 0, 82, 85
2, 103074, Note_on_c, 0, 82, 0
2, 103135, Note_on_c, 0, 49, 0
2, 103139, Note_on_c, 0, 70, 0
2, 103141, Note_on_c, 0, 53, 62
2, 103261, Note_on_c, 0, 72, 83
2, 103264, Note_on_c, 0, 53, 0
2, 103265, Note_on_c, 0, 51, 66
2, 103298, Note_on_c, 0, 72, 0
2, 103375, Note_on_c, 0, 49, 66
2, 103380, Note_on_c, 0, 51, 0
2, 103496, Note_on_c, 0, 49, 0
2, 103499, Note_on_c, 0, 80, 83
2, 103502, Note_on_c, 0, 48, 62
2, 103502, Note_on_c, 0, 68, 81
2, 103539, Note_on_c, 0, 68, 0
2, 103551, Note_on_c, 0, 80, 0
2, 103605, Note_on_c, 0, 48, 0
2, 103621, Note_on_c, 0, 51, 64
2, 103739, Note_on_c, 0, 70, 80
2, 103741, Note_on_c, 0, 67, 70
2, 103744, Note_on_c, 0, 49, 63
2, 103768, Note_on_c, 0, 67, 0
2, 103771, Note_on_c, 0, 51, 0
2, 103790, Note_on_c, 0, 70, 0
2, 103829, Note_on_c, 0, 49, 0
2, 103847, Note_on_c, 0, 48, 56
2, 103966, Note_on_c, 0, 48, 0
2, 103974, Note_on_c, 0, 46, 63
2, 103985, Note_on_c, 0, 70, 72
2, 103991, Note_on_c, 0, 79, 67
2, 104009, Note_on_c, 0, 79, 0
2, 104015, Note_on_c, 0, 70, 0
2, 104088, Note_on_c, 0, 46, 0
2, 104089, Note_on_c, 0, 49, 43
2, 104192, Note_on_c, 0, 48, 55
2, 104204, Note_on_c, 0, 49, 0
2, 104211, Note_on_c, 0, 63, 55
2, 104211, Note_on_c, 0, 68, 64
2, 104227, Note_on_c, 0, 48, 0
2, 104233, Note_on_c, 0, 63, 0
2, 104272, Note_on_c, 0, 68, 0
2, 104315, Note_on_c, 0, 63, 62
2, 104434, Note_on_c, 0, 63, 0
2, 104449, Note_on_c, 0, 51, 75
2, 104462, Note_on_c, 0, 65, 55
2, 104494, Note_on_c, 0, 51, 0
2, 104521, Note_on_c, 0, 65, 0
2, 104582, Note_on_c, 0, 67, 45
2, 104691, Note_on_c, 0, 54, 75
2, 104693, Note_on_c, 0, 67, 0
2, 104693, Note_on_c, 0, 68, 55
2, 104783, Note_on_c, 0, 68, 0
2, 104803, Note_on_c, 0, 70, 54
2, 104912, Note_on_c, 0, 70, 0
2, 104924, Note_on_c, 0, 56, 74
2, 104926, Note_on_c, 0, 72, 61
2, 104976, Note_on_c, 0, 56, 0
2, 105002, Note_on_c, 0, 72, 0
2, 105033, Note_on_c, 0, 68, 55
2, 105170, Note_on_c, 0, 58, 63
2, 105178, Note_on_c, 0, 68, 0
2, 105191, Note_on_c, 0, 73, 59
2, 105287, Note_on_c, 0, 56, 76
2, 105299, Note_on_c, 0, 54, 0
2, 105299, Note_on_c, 0, 72, 63
2, 105309, Note_on_c, 0, 73, 0
2, 105361, Note_on_c, 0, 58, 0
2, 105404, Note_on_c, 0, 54, 81
2, 105419, Note_on_c, 0, 56, 0
2, 105419, Note_on_c, 0, 70, 72
2, 105426, Note_on_c, 0, 72, 0
2, 105513, Note_on_c, 0, 56, 81
2, 105517, Note_on_c, 0, 72, 75
2, 105525, Note_on_c, 0, 70, 0
2, 105616, Note_on_c, 0, 54, 0
2, 105618, Note_on_c, 0, 56, 0
2, 105647, Note_on_c, 0, 65, 83
2, 105654, Note_on_c, 0, 73, 74
2, 105655, Note_on_c, 0, 53, 57
2, 105667, Note_on_c, 0, 72, 0
2, 105686, Note_on_c, 0, 65, 0
2, 105777, Note_on_c, 0, 72, 73
2, 105788, Note_on_c, 0, 73, 0
2, 105902, Note_on_c, 0, 61, 77
2, 105910, Note_on_c, 0, 70, 69
2, 105914, Note_on_c, 0, 72, 0
2, 105958, Note_on_c, 0, 61, 0
2, 106009, Note_on_c, 0, 68, 71
2, 106017, Note_on_c, 0, 70, 0
2, 106157, Note_on_c, 0, 56, 69
2, 106160, Note_on_c, 0, 70, 73
2, 106167, Note_on_c, 0, 68, 0
2, 106305, Note_on_c, 0, 53, 0
2, 106413, Note_on_c, 0, 54, 67
2, 106479, Note_on_c, 0, 56, 0
2, 106507, Note_on_c, 0, 53, 71
2, 106528, Note_on_c, 0, 54, 0
2, 106610, Note_on_c, 0, 53, 0
2, 106642, Note_on_c, 0, 51, 58
2, 106646, Note_on_c, 0, 54, 74
2, 106687, Note_on_c, 0, 54, 0
2, 106761, Note_on_c, 0, 68, 65
2, 106874, Note_on_c, 0, 63, 73
2, 106890, Note_on_c, 0, 70, 0
2, 106894, Note_on_c, 0, 66, 66
2, 106895, Note_on_c, 0, 68, 0
2, 106930, Note_on_c, 0, 63, 0
2, 106990, Note_on_c, 0, 70, 69
2, 107003, Note_on_c, 0, 66, 0
2, 107117, Note_on_c, 0, 53, 76
2, 107130, Note_on_c, 0, 68, 70
2, 107134, Note_on_c, 0, 51, 0
2, 107159, Note_on_c, 0, 53, 0
2, 107169, Note_on_c, 0, 70, 0
2, 107235, Note_on_c, 0, 66, 71
2, 107247, Note_on_c, 0, 68, 0
2, 107341, Note_on_c, 0, 66, 0
2, 107362, Note_on_c, 0, 65, 65
2, 107363, Note_on_c, 0, 61, 79
2, 107366, Note_on_c, 0, 49, 70
2, 107406, Note_on_c, 0, 61, 0
2, 107409, Note_on_c, 0, 49, 0
2, 107472, Note_on_c, 0, 68, 63
2, 107473, Note_on_c, 0, 65, 0
2, 107600, Note_on_c, 0, 51, 78
2, 107618, Note_on_c, 0, 66, 70
2, 107665, Note_on_c, 0, 51, 0
2, 107679, Note_on_c, 0, 68, 0
2, 107714, Note_on_c, 0, 65, 70
2, 107771, Note_on_c, 0, 66, 0
2, 107840, Note_on_c, 0, 44, 71
2, 107842, Note_on_c, 0, 63, 67
2, 107845, Note_on_c, 0, 60, 59
2, 107848, Note_on_c, 0, 65, 0
2, 107881, Note_on_c, 0, 44, 0
2, 107923, Note_on_c, 0, 60, 0
2, 107953, Note_on_c, 0, 66, 64
2, 107955, Note_on_c, 0, 63, 0
2, 108043, Note_on_c, 0, 66, 0
2, 108067, Note_on_c, 0, 49, 48
2, 108073, Note_on_c, 0, 65, 61
2, 108084, Note_on_c, 0, 61, 46
2, 108112, Note_on_c, 0, 65, 0
2, 108156, Note_on_c, 0, 49, 0
2, 108197, Note_on_c, 0, 51, 43
2, 108277, Note_on_c, 0, 51, 0
2, 108307, Note_on_c, 0, 53, 47
2, 108315, Note_on_c, 0, 68, 60
2, 108348, Note_on_c, 0, 68, 0
2, 108397, Note_on_c, 0, 53, 0
2, 108430, Note_on_c, 0, 54, 49
2, 108530, Note_on_c, 0, 61, 0
2, 108542, Note_on_c, 0, 54, 0
2, 108545, Note_on_c, 0, 73, 65
2, 108548, Note_on_c, 0, 53, 51
2, 108579, Control_c, 0, 64, 13
2, 108593, Control_c, 0, 64, 38
2, 108608, Control_c, 0, 64, 49
2, 108610, Note_on_c, 0, 73, 0
2, 108624, Control_c, 0, 64, 55
2, 108638, Control_c, 0, 64, 59
2, 108654, Control_c, 0, 64, 62
2, 108659, Note_on_c, 0, 53, 0
2, 108665, Note_on_c, 0, 51, 44
2, 108669, Control_c, 0, 64, 64
2, 108684, Control_c, 0, 64, 66
2, 108700, Control_c, 0, 64, 68
2, 108715, Control_c, 0, 64, 70
2, 108729, Control_c, 0, 64, 72
2, 108745, Control_c, 0, 64, 73
2, 108787, Note_on_c, 0, 49, 43
2, 108797, Note_on_c, 0, 80, 55
2, 108799, Note_on_c, 0, 51, 0
2, 108847, Note_on_c, 0, 49, 0
2, 108883, Control_c, 0, 64, 72
2, 108885, Note_on_c, 0, 77, 59
2, 108906, Control_c, 0, 64, 71
2, 108907, Note_on_c, 0, 53, 45
2, 108921, Control_c, 0, 64, 70
2, 108937, Control_c, 0, 64, 67
2, 108944, Note_on_c, 0, 80, 0
2, 108951, Control_c, 0, 64, 65
2, 108966, Control_c, 0, 64, 62
2, 108982, Control_c, 0, 64, 59
2, 108989, Note_on_c, 0, 53, 0
2, 108997, Control_c, 0, 64, 55
2, 109013, Control_c, 0, 64, 47
2, 109013, Note_on_c, 0, 77, 0
2, 109021, Note_on_c, 0, 73, 60
2, 109025, Note_on_c, 0, 58, 53
2, 109027, Control_c, 0, 64, 27
2, 109042, Control_c, 0, 64, 0
2, 109059, Note_on_c, 0, 73, 0
2, 109128, Note_on_c, 0, 56, 59
2, 109140, Note_on_c, 0, 58, 0
2, 109241, Note_on_c, 0, 56, 0
2, 109246, Note_on_c, 0, 55, 53
2, 109260, Note_on_c, 0, 76, 69
2, 109356, Note_on_c, 0, 73, 74
2, 109362, Note_on_c, 0, 58, 63
2, 109378, Note_on_c, 0, 76, 0
2, 109385, Note_on_c, 0, 55, 0
2, 109473, Note_on_c, 0, 58, 0
2, 109480, Note_on_c, 0, 61, 62
2, 109482, Note_on_c, 0, 70, 74
2, 109498, Note_on_c, 0, 73, 0
2, 109530, Note_on_c, 0, 70, 0
2, 109580, Note_on_c, 0, 61, 0
2, 109590, Note_on_c, 0, 59, 62
2, 109707, Note_on_c, 0, 59, 0
2, 109723, Note_on_c, 0, 58, 60
2, 109736, Note_on_c, 0, 73, 75
2, 109824, Note_on_c, 0, 70, 68
2, 109834, Note_on_c, 0, 61, 69
2, 109861, Note_on_c, 0, 73, 0
2, 109877, Note_on_c, 0, 58, 0
2, 109985, Note_on_c, 0, 67, 67
2, 109988, Note_on_c, 0, 64, 66
2, 110027, Note_on_c, 0, 61, 0
2, 110036, Note_on_c, 0, 70, 0
2, 110234, Note_on_c, 0, 70, 67
2, 110236, Note_on_c, 0, 63, 63
2, 110245, Note_on_c, 0, 64, 0
2, 110324, Note_on_c, 0, 73, 80
2, 110344, Note_on_c, 0, 61, 66
2, 110369, Note_on_c, 0, 70, 0
2, 110384, Note_on_c, 0, 63, 0
2, 110399, Note_on_c, 0, 67, 0
2, 110446, Note_on_c, 0, 61, 0
2, 110463, Note_on_c, 0, 59, 66
2, 110465, Note_on_c, 0, 76, 75
2, 110502, Note_on_c, 0, 73, 0
2, 110583, Note_on_c, 0, 58, 67
2, 110587, Note_on_c, 0, 59, 0
2, 110692, Note_on_c, 0, 56, 59
2, 110709, Note_on_c, 0, 58, 0
2, 110714, Note_on_c, 0, 73, 79
2, 110744, Note_on_c, 0, 76, 0
2, 110802, Note_on_c, 0, 56, 0
2, 110812, Note_on_c, 0, 55, 58
2, 110921, Note_on_c, 0, 55, 0
2, 110929, Note_on_c, 0, 73, 0
2, 110930, Note_on_c, 0, 56, 63
2, 110938, Note_on_c, 0, 75, 78
2, 110944, Note_on_c, 0, 71, 71
2, 110969, Note_on_c, 0, 75, 0
2, 111033, Note_on_c, 0, 56, 0
2, 111063, Note_on_c, 0, 59, 58
2, 111168, Note_on_c, 0, 59, 0
2, 111181, Note_on_c, 0, 58, 65
2, 111183, Note_on_c, 0, 80, 70
2, 111247, Note_on_c, 0, 80, 0
2, 111314, Note_on_c, 0, 56, 61
2, 111332, Note_on_c, 0, 58, 0
2, 111406, Note_on_c, 0, 56, 0
2, 111415, Note_on_c, 0, 70, 73
2, 111418, Note_on_c, 0, 73, 75
2, 111431, Note_on_c, 0, 71, 0
2, 111437, Note_on_c, 0, 55, 60
2, 111488, Note_on_c, 0, 73, 0
2, 111536, Note_on_c, 0, 55, 0
2, 111547, Note_on_c, 0, 53, 59
2, 111651, Note_on_c, 0, 53, 0
2, 111663, Note_on_c, 0, 79, 69
2, 111665, Note_on_c, 0, 51, 60
2, 111698, Note_on_c, 0, 79, 0
2, 111766, Note_on_c, 0, 51, 0
2, 111777, Note_on_c, 0, 49, 57
2, 111888, Note_on_c, 0, 49, 0
2, 111909, Note_on_c, 0, 68, 65
2, 111914, Note_on_c, 0, 70, 0
2, 111919, Note_on_c, 0, 47, 48
2, 112005, Control_c, 0, 64, 25
2, 112011, Note_on_c, 0, 47, 0
2, 112020, Note_on_c, 0, 68, 0
2, 112021, Control_c, 0, 64, 47
2, 112033, Note_on_c, 0, 49, 55
2, 112036, Control_c, 0, 64, 55
2, 112051, Control_c, 0, 64, 60
2, 112067, Control_c, 0, 64, 64
2, 112081, Control_c, 0, 64, 67
2, 112096, Control_c, 0, 64, 72
2, 112112, Control_c, 0, 64, 79
2, 112127, Control_c, 0, 64, 86
2, 112143, Control_c, 0, 64, 91
2, 112151, Note_on_c, 0, 51, 63
2, 112158, Control_c, 0, 64, 94
2, 112169, Note_on_c, 0, 80, 66
2, 112173, Control_c, 0, 64, 95
2, 112175, Note_on_c, 0, 49, 0
2, 112189, Control_c, 0, 64, 96
2, 112235, Note_on_c, 0, 51, 0
2, 112251, Note_on_c, 0, 47, 52
2, 112266, Note_on_c, 0, 80, 0
2, 112268, Note_on_c, 0, 79, 70
2, 112295, Control_c, 0, 64, 95
2, 112311, Control_c, 0, 64, 91
2, 112325, Control_c, 0, 64, 83
2, 112341, Control_c, 0, 64, 69
2, 112353, Note_on_c, 0, 47, 0
2, 112356, Control_c, 0, 64, 55
2, 112371, Control_c, 0, 64, 0
2, 112381, Note_on_c, 0, 44, 60
2, 112388, Note_on_c, 0, 79, 0
2, 112397, Note_on_c, 0, 80, 68
2, 112410, Note_on_c, 0, 44, 0
2, 112476, Note_on_c, 0, 80, 0
2, 112493, Note_on_c, 0, 82, 63
2, 112613, Note_on_c, 0, 56, 48
2, 112618, Note_on_c, 0, 83, 60
2, 112623, Note_on_c, 0, 82, 0
2, 112681, Note_on_c, 0, 56, 0
2, 112695, Note_on_c, 0, 83, 0
2, 112731, Note_on_c, 0, 53, 45
2, 112731, Note_on_c, 0, 80, 51
2, 112807, Note_on_c, 0, 80, 0
2, 112842, Note_on_c, 0, 49, 62
2, 112851, Note_on_c, 0, 77, 52
2, 112858, Note_on_c, 0, 53, 0
2, 112875, Note_on_c, 0, 49, 0
2, 112937, Note_on_c, 0, 77, 0
2, 112950, Note_on_c, 0, 78, 59
2, 113063, Note_on_c, 0, 78, 0
2, 113075, Note_on_c, 0, 80, 61
2, 113081, Note_on_c, 0, 59, 59
2, 113158, Note_on_c, 0, 80, 0
2, 113175, Note_on_c, 0, 77, 67
2, 113184, Note_on_c, 0, 56, 55
2, 113243, Note_on_c, 0, 59, 0
2, 113291, Note_on_c, 0, 77, 0
2, 113306, Note_on_c, 0, 73, 64
2, 113315, Note_on_c, 0, 53, 61
2, 113326, Note_on_c, 0, 56, 0
2, 113344, Note_on_c, 0, 53, 0
2, 113394, Note_on_c, 0, 73, 0
2, 113406, Note_on_c, 0, 75, 63
2, 113516, Note_on_c, 0, 75, 0
2, 113546, Note_on_c, 0, 77, 55
2, 113576, Note_on_c, 0, 49, 25
2, 113633, Note_on_c, 0, 49, 0
2, 113644, Note_on_c, 0, 73, 58
2, 113654, Note_on_c, 0, 77, 0
2, 113670, Note_on_c, 0, 46, 45
2, 113763, Note_on_c, 0, 73, 0
2, 113772, Note_on_c, 0, 42, 55
2, 113774, Note_on_c, 0, 70, 58
2, 113794, Note_on_c, 0, 46, 0
2, 113806, Note_on_c, 0, 42, 0
2, 113870, Note_on_c, 0, 70, 0
2, 113888, Note_on_c, 0, 72, 58
2, 114013, Note_on_c, 0, 72, 0
2, 114013, Note_on_c, 0, 73, 69
2, 114015, Note_on_c, 0, 58, 52
2, 114109, Note_on_c, 0, 73, 0
2, 114116, Note_on_c, 0, 70, 68
2, 114122, Note_on_c, 0, 54, 53
2, 114127, Note_on_c, 0, 58, 0
2, 114239, Note_on_c, 0, 78, 67
2, 114245, Note_on_c, 0, 51, 58
2, 114256, Note_on_c, 0, 70, 0
2, 114280, Note_on_c, 0, 54, 0
2, 114287, Note_on_c, 0, 51, 0
2, 114346, Note_on_c, 0, 78, 0
2, 114351, Note_on_c, 0, 80, 71
2, 114472, Note_on_c, 0, 82, 68
2, 114473, Note_on_c, 0, 80, 0
2, 114487, Note_on_c, 0, 54, 39
2, 114542, Note_on_c, 0, 54, 0
2, 114570, Note_on_c, 0, 82, 0
2, 114589, Note_on_c, 0, 51, 51
2, 114590, Note_on_c, 0, 78, 63
2, 114708, Note_on_c, 0, 48, 57
2, 114724, Note_on_c, 0, 75, 62
2, 114725, Note_on_c, 0, 78, 0
2, 114741, Note_on_c, 0, 48, 0
2, 114744, Note_on_c, 0, 51, 0
2, 114823, Note_on_c, 0, 75, 0
2, 114829, Note_on_c, 0, 77, 67
2, 114940, Note_on_c, 0, 78, 73
2, 114950, Note_on_c, 0, 58, 50
2, 114950, Note_on_c, 0, 77, 0
2, 115050, Note_on_c, 0, 78, 0
2, 115056, Note_on_c, 0, 75, 65
2, 115063, Note_on_c, 0, 54, 57
2, 115069, Note_on_c, 0, 58, 0
2, 115157, Note_on_c, 0, 75, 0
2, 115180, Note_on_c, 0, 51, 60
2, 115182, Note_on_c, 0, 72, 63
2, 115200, Note_on_c, 0, 54, 0
2, 115217, Note_on_c, 0, 51, 0
2, 115283, Note_on_c, 0, 72, 0
2, 115295, Note_on_c, 0, 73, 68
2, 115396, Note_on_c, 0, 73, 0
2, 115413, Note_on_c, 0, 75, 59
2, 115434, Note_on_c, 0, 48, 50
2, 115480, Note_on_c, 0, 48, 0
2, 115487, Note_on_c, 0, 75, 0
2, 115504, Note_on_c, 0, 72, 62
2, 115531, Note_on_c, 0, 44, 47
2, 115613, Note_on_c, 0, 72, 0
2, 115633, Note_on_c, 0, 68, 58
2, 115649, Note_on_c, 0, 41, 45
2, 115664, Note_on_c, 0, 44, 0
2, 115680, Note_on_c, 0, 41, 0
2, 115741, Note_on_c, 0, 68, 0
2, 115749, Note_on_c, 0, 70, 64
2, 115875, Note_on_c, 0, 56, 46
2, 115878, Note_on_c, 0, 70, 0
2, 115890, Note_on_c, 0, 72, 61
2, 115936, Note_on_c, 0, 56, 0
2, 115955, Note_on_c, 0, 72, 0
2, 115982, Note_on_c, 0, 53, 55
2, 115991, Note_on_c, 0, 68, 62
2, 116090, Note_on_c, 0, 68, 0
2, 116095, Note_on_c, 0, 50, 49
2, 116116, Note_on_c, 0, 77, 62
2, 116122, Note_on_c, 0, 53, 0
2, 116135, Note_on_c, 0, 50, 0
2, 116224, Note_on_c, 0, 77, 0
2, 116226, Note_on_c, 0, 78, 71
2, 116341, Note_on_c, 0, 80, 67
2, 116345, Note_on_c, 0, 53, 42
2, 116367, Note_on_c, 0, 78, 0
2, 116406, Note_on_c, 0, 53, 0
2, 116434, Note_on_c, 0, 77, 62
2, 116442, Note_on_c, 0, 80, 0
2, 116456, Note_on_c, 0, 50, 47
2, 116557, Note_on_c, 0, 77, 0
2, 116563, Note_on_c, 0, 46, 56
2, 116576, Note_on_c, 0, 74, 62
2, 116582, Note_on_c, 0, 50, 0
2, 116602, Note_on_c, 0, 46, 0
2, 116671, Note_on_c, 0, 74, 0
2, 116673, Note_on_c, 0, 75, 67
2, 116797, Note_on_c, 0, 77, 71
2, 116798, Note_on_c, 0, 75, 0
2, 116801, Note_on_c, 0, 56, 50
2, 116875, Note_on_c, 0, 56, 0
2, 116886, Note_on_c, 0, 77, 0
2, 116905, Note_on_c, 0, 74, 70
2, 116911, Note_on_c, 0, 53, 58
2, 117018, Note_on_c, 0, 74, 0
2, 117023, Note_on_c, 0, 50, 65
2, 117030, Note_on_c, 0, 70, 65
2, 117043, Note_on_c, 0, 53, 0
2, 117059, Note_on_c, 0, 50, 0
2, 117123, Note_on_c, 0, 70, 0
2, 117138, Note_on_c, 0, 72, 62
2, 117245, Note_on_c, 0, 72, 0
2, 117257, Note_on_c, 0, 74, 58
2, 117260, Note_on_c, 0, 46, 43
2, 117310, Note_on_c, 0, 46, 0
2, 117355, Note_on_c, 0, 74, 0
2, 117362, Note_on_c, 0, 42, 47
2, 117370, Note_on_c, 0, 70, 62
2, 117489, Note_on_c, 0, 39, 57
2, 117489, Note_on_c, 0, 70, 0
2, 117493, Note_on_c, 0, 66, 65
2, 117516, Note_on_c, 0, 42, 0
2, 117522, Note_on_c, 0, 39, 0
2, 117593, Note_on_c, 0, 66, 0
2, 117602, Note_on_c, 0, 68, 66
2, 117721, Note_on_c, 0, 54, 55
2, 117723, Note_on_c, 0, 70, 69
2, 117725, Note_on_c, 0, 68, 0
2, 117819, Note_on_c, 0, 70, 0
2, 117826, Note_on_c, 0, 66, 74
2, 117833, Note_on_c, 0, 51, 61
2, 117840, Note_on_c, 0, 54, 0
2, 117954, Note_on_c, 0, 75, 68
2, 117955, Note_on_c, 0, 66, 0
2, 117959, Note_on_c, 0, 48, 65
2, 117985, Note_on_c, 0, 51, 0
2, 117986, Note_on_c, 0, 48, 0
2, 118062, Note_on_c, 0, 75, 0
2, 118064, Note_on_c, 0, 77, 74
2, 118191, Note_on_c, 0, 78, 77
2, 118193, Note_on_c, 0, 51, 46
2, 118195, Note_on_c, 0, 77, 0
2, 118288, Note_on_c, 0, 48, 59
2, 118296, Note_on_c, 0, 75, 77
2, 118297, Note_on_c, 0, 51, 0
2, 118317, Note_on_c, 0, 78, 0
2, 118409, Note_on_c, 0, 72, 77
2, 118413, Note_on_c, 0, 44, 69
2, 118420, Note_on_c, 0, 75, 0
2, 118431, Note_on_c, 0, 48, 0
2, 118448, Note_on_c, 0, 44, 0
2, 118514, Note_on_c, 0, 73, 80
2, 118525, Note_on_c, 0, 72, 0
2, 118638, Note_on_c, 0, 54, 65
2, 118640, Note_on_c, 0, 75, 77
2, 118648, Note_on_c, 0, 73, 0
2, 118730, Note_on_c, 0, 54, 0
2, 118744, Note_on_c, 0, 72, 77
2, 118746, Note_on_c, 0, 75, 0
2, 118748, Note_on_c, 0, 51, 67
2, 118871, Note_on_c, 0, 48, 74
2, 118884, Note_on_c, 0, 68, 79
2, 118889, Note_on_c, 0, 72, 0
2, 118914, Note_on_c, 0, 51, 0
2, 118919, Note_on_c, 0, 48, 0
2, 118991, Note_on_c, 0, 70, 76
2, 119016, Note_on_c, 0, 68, 0
2, 119109, Note_on_c, 0, 44, 65
2, 119116, Note_on_c, 0, 72, 75
2, 119137, Note_on_c, 0, 70, 0
2, 119221, Note_on_c, 0, 41, 72
2, 119226, Note_on_c, 0, 68, 79
2, 119255, Note_on_c, 0, 72, 0
2, 119257, Note_on_c, 0, 44, 0
2, 119376, Note_on_c, 0, 37, 63
2, 119377, Note_on_c, 0, 65, 77
2, 119402, Note_on_c, 0, 68, 0
2, 119445, Note_on_c, 0, 41, 0
2, 119505, Note_on_c, 0, 66, 78
2, 119541, Note_on_c, 0, 65, 0
2, 119621, Note_on_c, 0, 68, 77
2, 119663, Note_on_c, 0, 66, 0
2, 119730, Note_on_c, 0, 68, 0
2, 119737, Note_on_c, 0, 65, 81
2, 119860, Note_on_c, 0, 61, 73
2, 119863, Note_on_c, 0, 65, 0
2, 119968, Note_on_c, 0, 65, 80
2, 119971, Note_on_c, 0, 61, 0
2, 120080, Note_on_c, 0, 37, 0
2, 120085, Note_on_c, 0, 68, 76
2, 120115, Note_on_c, 0, 65, 0
2, 120196, Note_on_c, 0, 70, 82
2, 120231, Note_on_c, 0, 68, 0
2, 120308, Note_on_c, 0, 71, 84
2, 120328, Note_on_c, 0, 70, 0
2, 120430, Note_on_c, 0, 70, 85
2, 120453, Note_on_c, 0, 71, 0
2, 120550, Note_on_c, 0, 68, 81
2, 120551, Note_on_c, 0, 59, 62
2, 120556, Note_on_c, 0, 70, 0
2, 120641, Note_on_c, 0, 59, 0
2, 120651, Note_on_c, 0, 70, 83
2, 120668, Note_on_c, 0, 49, 61
2, 120679, Note_on_c, 0, 68, 0
2, 120759, Note_on_c, 0, 49, 0
2, 120775, Note_on_c, 0, 70, 0
2, 120778, Note_on_c, 0, 78, 81
2, 120788, Note_on_c, 0, 58, 68
2, 120802, Note_on_c, 0, 78, 0
2, 120867, Note_on_c, 0, 58, 0
2, 120890, Note_on_c, 0, 49, 57
2, 120974, Note_on_c, 0, 49, 0
2, 121002, Note_on_c, 0, 56, 61
2, 121004, Note_on_c, 0, 73, 85
2, 121034, Note_on_c, 0, 73, 0
2, 121094, Note_on_c, 0, 56, 0
2, 121113, Note_on_c, 0, 49, 58
2, 121236, Note_on_c, 0, 49, 0
2, 121240, Note_on_c, 0, 70, 78
2, 121259, Note_on_c, 0, 54, 52
2, 121385, Note_on_c, 0, 49, 45
2, 121460, Note_on_c, 0, 54, 0
2, 121471, Note_on_c, 0, 68, 70
2, 121475, Note_on_c, 0, 49, 0
2, 121487, Note_on_c, 0, 53, 50
2, 121534, Note_on_c, 0, 70, 0
2, 121579, Note_on_c, 0, 66, 65
2, 121580, Note_on_c, 0, 68, 0
2, 121585, Note_on_c, 0, 53, 0
2, 121588, Note_on_c, 0, 51, 56
2, 121644, Note_on_c, 0, 51, 0
2, 121694, Note_on_c, 0, 68, 68
2, 121698, Note_on_c, 0, 66, 0
2, 121701, Note_on_c, 0, 53, 68
2, 121731, Note_on_c, 0, 53, 0
2, 121800, Note_on_c, 0, 68, 0
2, 121805, Note_on_c, 0, 61, 62
2, 121908, Note_on_c, 0, 61, 0
2, 121918, Note_on_c, 0, 44, 58
2, 121938, Note_on_c, 0, 65, 61
2, 121964, Note_on_c, 0, 44, 0
2, 122047, Note_on_c, 0, 65, 0
2, 122058, Note_on_c, 0, 68, 60
2, 122156, Note_on_c, 0, 68, 0
2, 122166, Note_on_c, 0, 70, 64
2, 122275, Note_on_c, 0, 68, 67
2, 122280, Note_on_c, 0, 70, 0
2, 122378, Note_on_c, 0, 68, 0
2, 122390, Note_on_c, 0, 58, 54
2, 122392, Note_on_c, 0, 66, 64
2, 122472, Note_on_c, 0, 58, 0
2, 122494, Note_on_c, 0, 68, 68
2, 122502, Note_on_c, 0, 66, 0
2, 122507, Note_on_c, 0, 49, 50
2, 122586, Note_on_c, 0, 68, 0
2, 122598, Note_on_c, 0, 49, 0
2, 122612, Note_on_c, 0, 77, 71
2, 122627, Note_on_c, 0, 56, 60
2, 122639, Note_on_c, 0, 77, 0
2, 122697, Note_on_c, 0, 56, 0
2, 122740, Note_on_c, 0, 49, 51
2, 122824, Note_on_c, 0, 49, 0
2, 122839, Note_on_c, 0, 73, 75
2, 122858, Note_on_c, 0, 54, 54
2, 122869, Note_on_c, 0, 73, 0
2, 122948, Note_on_c, 0, 54, 0
2, 122962, Note_on_c, 0, 49, 49
2, 123072, Note_on_c, 0, 49, 0
2, 123081, Note_on_c, 0, 68, 64
2, 123097, Note_on_c, 0, 53, 48
2, 123206, Note_on_c, 0, 53, 0
2, 123219, Note_on_c, 0, 49, 52
2, 123307, Note_on_c, 0, 49, 0
2, 123324, Note_on_c, 0, 66, 59
2, 123341, Note_on_c, 0, 51, 47
2, 123354, Note_on_c, 0, 68, 0
2, 123416, Note_on_c, 0, 66, 0
2, 123426, Note_on_c, 0, 65, 52
2, 123427, Note_on_c, 0, 51, 0
2, 123450, Note_on_c, 0, 49, 37
2, 123489, Note_on_c, 0, 49, 0
2, 123549, Note_on_c, 0, 65, 0
2, 123555, Note_on_c, 0, 51, 66
2, 123561, Note_on_c, 0, 66, 58
2, 123585, Note_on_c, 0, 51, 0
2, 123656, Note_on_c, 0, 66, 0
2, 123677, Note_on_c, 0, 60, 54
2, 123787, Note_on_c, 0, 60, 0
2, 123790, Note_on_c, 0, 44, 49
2, 123808, Note_on_c, 0, 63, 52
2, 123826, Note_on_c, 0, 44, 0
2, 123902, Note_on_c, 0, 63, 0
2, 123911, Note_on_c, 0, 66, 58
2, 124023, Note_on_c, 0, 66, 0
2, 124035, Note_on_c, 0, 68, 54
2, 124136, Note_on_c, 0, 68, 0
2, 124146, Note_on_c, 0, 66, 62
2, 124263, Note_on_c, 0, 56, 44
2, 124264, Note_on_c, 0, 66, 0
2, 124272, Note_on_c, 0, 65, 59
2, 124334, Note_on_c, 0, 56, 0
2, 124374, Note_on_c, 0, 65, 0
2, 124386, Note_on_c, 0, 66, 62
2, 124387, Note_on_c, 0, 44, 46
2, 124481, Note_on_c, 0, 44, 0
2, 124484, Note_on_c, 0, 66, 0
2, 124497, Note_on_c, 0, 75, 61
2, 124515, Note_on_c, 0, 54, 51
2, 124520, Note_on_c, 0, 75, 0
2, 124587, Note_on_c, 0, 54, 0
2, 124615, Note_on_c, 0, 44, 46
2, 124694, Note_on_c, 0, 44, 0
2, 124723, Note_on_c, 0, 72, 62
2, 124729, Note_on_c, 0, 53, 49
2, 124755, Note_on_c, 0, 72, 0
2, 124823, Note_on_c, 0, 53, 0
2, 124840, Note_on_c, 0, 44, 47
2, 124909, Note_on_c, 0, 44, 0
2, 124961, Note_on_c, 0, 66, 57
2, 124984, Note_on_c, 0, 51, 41
2, 125078, Note_on_c, 0, 44, 38
2, 125206, Note_on_c, 0, 44, 0
2, 125206, Note_on_c, 0, 66, 0
2, 125221, Note_on_c, 0, 65, 54
2, 125246, Note_on_c, 0, 49, 46
2, 125289, Note_on_c, 0, 51, 0
2, 125309, Note_on_c, 0, 65, 0
2, 125323, Note_on_c, 0, 63, 58
2, 125330, Note_on_c, 0, 49, 0
2, 125350, Note_on_c, 0, 48, 47
2, 125420, Note_on_c, 0, 63, 0
2, 125424, Note_on_c, 0, 48, 0
2, 125441, Note_on_c, 0, 65, 61
2, 125461, Note_on_c, 0, 49, 51
2, 125541, Note_on_c, 0, 65, 0
2, 125550, Note_on_c, 0, 44, 49
2, 125550, Note_on_c, 0, 68, 63
2, 125631, Note_on_c, 0, 44, 0
2, 125652, Note_on_c, 0, 49, 0
2, 125669, Note_on_c, 0, 70, 69
2, 125677, Note_on_c, 0, 53, 53
2, 125687, Note_on_c, 0, 68, 0
2, 125761, Note_on_c, 0, 53, 0
2, 125776, Note_on_c, 0, 51, 58
2, 125781, Note_on_c, 0, 70, 0
2, 125782, Note_on_c, 0, 72, 69
2, 125897, Note_on_c, 0, 73, 79
2, 125900, Note_on_c, 0, 53, 58
2, 125917, Note_on_c, 0, 72, 0
2, 125928, Note_on_c, 0, 51, 0
2, 125986, Note_on_c, 0, 53, 0
2, 125999, Note_on_c, 0, 44, 61
2, 126001, Note_on_c, 0, 75, 78
2, 126040, Note_on_c, 0, 73, 0
2, 126111, Note_on_c, 0, 44, 0
2, 126126, Note_on_c, 0, 56, 65
2, 126130, Note_on_c, 0, 77, 78
2, 126157, Note_on_c, 0, 75, 0
2, 126222, Note_on_c, 0, 54, 67
2, 126241, Note_on_c, 0, 75, 85
2, 126251, Note_on_c, 0, 56, 0
2, 126255, Note_on_c, 0, 77, 0
2, 126353, Note_on_c, 0, 75, 0
2, 126359, Note_on_c, 0, 78, 81
2, 126361, Note_on_c, 0, 54, 0
2, 126364, Note_on_c, 0, 56, 72
2, 126379, Control_c, 0, 64, 22
2, 126394, Control_c, 0, 64, 48
2, 126408, Control_c, 0, 64, 54
2, 126424, Control_c, 0, 64, 58
2, 126439, Control_c, 0, 64, 62
2, 126454, Control_c, 0, 64, 64
2, 126460, Note_on_c, 0, 44, 60
2, 126462, Note_on_c, 0, 77, 82
2, 126469, Control_c, 0, 64, 68
2, 126484, Control_c, 0, 64, 68
2, 126491, Note_on_c, 0, 78, 0
2, 126500, Control_c, 0, 64, 64
2, 126503, Note_on_c, 0, 56, 0
2, 126515, Control_c, 0, 64, 37
2, 126529, Control_c, 0, 64, 0
2, 126545, Control_c, 0, 64, 25
2, 126568, Control_c, 0, 64, 45
2, 126568, Note_on_c, 0, 44, 0
2, 126584, Control_c, 0, 64, 56
2, 126588, Note_on_c, 0, 75, 82
2, 126599, Control_c, 0, 64, 62
2, 126602, Note_on_c, 0, 77, 0
2, 126606, Note_on_c, 0, 58, 69
2, 126614, Control_c, 0, 64, 66
2, 126629, Control_c, 0, 64, 69
2, 126644, Control_c, 0, 64, 73
2, 126650, Note_on_c, 0, 58, 0
2, 126659, Control_c, 0, 64, 77
2, 126674, Control_c, 0, 64, 82
2, 126682, Note_on_c, 0, 75, 0
2, 126689, Control_c, 0, 64, 87
2, 126691, Note_on_c, 0, 73, 80
2, 126697, Note_on_c, 0, 44, 68
2, 126705, Control_c, 0, 64, 90
2, 126720, Control_c, 0, 64, 92
2, 126728, Note_on_c, 0, 44, 0
2, 126750, Control_c, 0, 64, 93
2, 126796, Note_on_c, 0, 73, 0
2, 126835, Note_on_c, 0, 60, 59
2, 126877, Note_on_c, 0, 82, 49
2, 126924, Note_on_c, 0, 82, 0
2, 126931, Note_on_c, 0, 80, 60
2, 126949, Control_c, 0, 64, 92
2, 126964, Control_c, 0, 64, 90
2, 126966, Note_on_c, 0, 80, 0
2, 126976, Note_on_c, 0, 61, 67
2, 126979, Control_c, 0, 64, 87
2, 126981, Note_on_c, 0, 78, 61
2, 126994, Control_c, 0, 64, 83
2, 127003, Note_on_c, 0, 60, 0
2, 127009, Control_c, 0, 64, 80
2, 127025, Control_c, 0, 64, 77
2, 127031, Note_on_c, 0, 80, 76
2, 127036, Note_on_c, 0, 78, 0
2, 127040, Control_c, 0, 64, 73
2, 127056, Control_c, 0, 64, 69
2, 127071, Control_c, 0, 64, 66
2, 127077, Note_on_c, 0, 63, 67
2, 127079, Note_on_c, 0, 80, 0
2, 127086, Control_c, 0, 64, 63
2, 127089, Note_on_c, 0, 82, 74
2, 127101, Control_c, 0, 64, 55
2, 127108, Note_on_c, 0, 61, 0
2, 127116, Control_c, 0, 64, 35
2, 127131, Control_c, 0, 64, 0
2, 127141, Note_on_c, 0, 82, 0
2, 127147, Note_on_c, 0, 80, 74
2, 127185, Note_on_c, 0, 60, 61
2, 127206, Note_on_c, 0, 80, 0
2, 127207, Note_on_c, 0, 82, 74
2, 127231, Note_on_c, 0, 63, 0
2, 127251, Note_on_c, 0, 80, 62
2, 127255, Note_on_c, 0, 82, 0
2, 127286, Note_on_c, 0, 56, 68
2, 127288, Note_on_c, 0, 60, 0
2, 127306, Note_on_c, 0, 80, 0
2, 127309, Note_on_c, 0, 82, 72
2, 127365, Note_on_c, 0, 80, 66
2, 127375, Note_on_c, 0, 82, 0
2, 127412, Note_on_c, 0, 60, 73
2, 127444, Note_on_c, 0, 56, 0
2, 127536, Note_on_c, 0, 63, 81
2, 127557, Note_on_c, 0, 60, 0
2, 127649, Note_on_c, 0, 65, 84
2, 127659, Note_on_c, 0, 63, 0
2, 127767, Note_on_c, 0, 66, 76
2, 127784, Note_on_c, 0, 65, 0
2, 127814, Note_on_c, 0, 80, 0
2, 127885, Note_on_c, 0, 65, 76
2, 127894, Note_on_c, 0, 80, 68
2, 127924, Note_on_c, 0, 66, 0
2, 127997, Note_on_c, 0, 63, 75
2, 128012, Note_on_c, 0, 78, 73
2, 128016, Note_on_c, 0, 65, 0
2, 128016, Note_on_c, 0, 80, 0
2, 128116, Note_on_c, 0, 65, 82
2, 128128, Note_on_c, 0, 78, 0
2, 128135, Note_on_c, 0, 80, 74
2, 128147, Note_on_c, 0, 63, 0
2, 128242, Note_on_c, 0, 65, 0
2, 128251, Note_on_c, 0, 73, 86
2, 128252, Note_on_c, 0, 80, 0
2, 128264, Note_on_c, 0, 77, 74
2, 128275, Note_on_c, 0, 73, 0
2, 128361, Note_on_c, 0, 77, 0
2, 128367, Note_on_c, 0, 80, 68
2, 128481, Note_on_c, 0, 80, 0
2, 128485, Note_on_c, 0, 68, 84
2, 128498, Note_on_c, 0, 75, 69
2, 128528, Note_on_c, 0, 68, 0
2, 128600, Note_on_c, 0, 75, 0
2, 128604, Note_on_c, 0, 80, 66
2, 128722, Note_on_c, 0, 80, 0
2, 128726, Note_on_c, 0, 65, 73
2, 128737, Note_on_c, 0, 73, 67
2, 128846, Note_on_c, 0, 80, 70
2, 128871, Note_on_c, 0, 73, 0
2, 128931, Note_on_c, 0, 80, 0
2, 128978, Note_on_c, 0, 63, 53
2, 128981, Note_on_c, 0, 72, 64
2, 129038, Note_on_c, 0, 65, 0
2, 129068, Note_on_c, 0, 63, 0
2, 129072, Note_on_c, 0, 61, 61
2, 129076, Note_on_c, 0, 72, 0
2, 129084, Note_on_c, 0, 70, 64
2, 129160, Note_on_c, 0, 61, 0
2, 129176, Note_on_c, 0, 70, 0
2, 129189, Note_on_c, 0, 63, 66
2, 129192, Note_on_c, 0, 72, 67
2, 129256, Note_on_c, 0, 63, 0
2, 129282, Note_on_c, 0, 72, 0
2, 129300, Note_on_c, 0, 75, 67
2, 129312, Note_on_c, 0, 56, 56
2, 129401, Note_on_c, 0, 75, 0
2, 129420, Note_on_c, 0, 56, 0
2, 129424, Note_on_c, 0, 60, 65
2, 129428, Note_on_c, 0, 77, 69
2, 129531, Note_on_c, 0, 63, 66
2, 129532, Note_on_c, 0, 60, 0
2, 129532, Note_on_c, 0, 78, 73
2, 129541, Note_on_c, 0, 77, 0
2, 129665, Note_on_c, 0, 63, 0
2, 129666, Note_on_c, 0, 65, 65
2, 129671, Note_on_c, 0, 80, 66
2, 129677, Note_on_c, 0, 78, 0
2, 129778, Note_on_c, 0, 78, 72
2, 129783, Note_on_c, 0, 63, 73
2, 129786, Note_on_c, 0, 65, 0
2, 129802, Note_on_c, 0, 80, 0
2, 129887, Note_on_c, 0, 77, 73
2, 129888, Note_on_c, 0, 78, 0
2, 129898, Note_on_c, 0, 63, 0
2, 129903, Note_on_c, 0, 61, 68
2, 129979, Note_on_c, 0, 77, 0
2, 130000, Note_on_c, 0, 78, 73
2, 130001, Note_on_c, 0, 63, 73
2, 130022, Note_on_c, 0, 61, 0
2, 130080, Note_on_c, 0, 63, 0
2, 130128, Note_on_c, 0, 72, 75
2, 130132, Note_on_c, 0, 75, 72
2, 130136, Note_on_c, 0, 78, 0
2, 130156, Note_on_c, 0, 72, 0
2, 130243, Note_on_c, 0, 75, 0
2, 130257, Note_on_c, 0, 80, 65
2, 130360, Note_on_c, 0, 80, 0
2, 130369, Note_on_c, 0, 68, 73
2, 130370, Note_on_c, 0, 73, 67
2, 130405, Note_on_c, 0, 68, 0
2, 130492, Note_on_c, 0, 73, 0
2, 130498, Note_on_c, 0, 80, 64
2, 130590, Note_on_c, 0, 80, 0
2, 130615, Note_on_c, 0, 72, 57
2, 130634, Note_on_c, 0, 63, 59
2, 130719, Note_on_c, 0, 72, 0
2, 130738, Note_on_c, 0, 80, 56
2, 130828, Note_on_c, 0, 80, 0
2, 130858, Note_on_c, 0, 70, 55
2, 130880, Note_on_c, 0, 61, 51
2, 130939, Note_on_c, 0, 63, 0
2, 130951, Note_on_c, 0, 70, 0
2, 130959, Note_on_c, 0, 61, 0
2, 130966, Note_on_c, 0, 68, 58
2, 130972, Note_on_c, 0, 60, 56
2, 131039, Note_on_c, 0, 60, 0
2, 131067, Note_on_c, 0, 68, 0
2, 131082, Note_on_c, 0, 70, 63
2, 131086, Note_on_c, 0, 61, 60
2, 131157, Note_on_c, 0, 70, 0
2, 131189, Note_on_c, 0, 61, 0
2, 131199, Note_on_c, 0, 73, 65
2, 131210, Note_on_c, 0, 56, 55
2, 131299, Note_on_c, 0, 56, 0
2, 131308, Note_on_c, 0, 73, 0
2, 131324, Note_on_c, 0, 60, 51
2, 131336, Note_on_c, 0, 75, 54
2, 131415, Note_on_c, 0, 75, 0
2, 131428, Note_on_c, 0, 60, 0
2, 131436, Note_on_c, 0, 77, 65
2, 131442, Note_on_c, 0, 61, 61
2, 131545, Note_on_c, 0, 77, 0
2, 131555, Note_on_c, 0, 78, 67
2, 131563, Note_on_c, 0, 61, 0
2, 131565, Note_on_c, 0, 63, 62
2, 131644, Note_on_c, 0, 78, 0
2, 131657, Note_on_c, 0, 77, 71
2, 131682, Note_on_c, 0, 63, 0
2, 131686, Note_on_c, 0, 61, 62
2, 131755, Note_on_c, 0, 77, 0
2, 131766, Note_on_c, 0, 75, 67
2, 131769, Note_on_c, 0, 61, 0
2, 131792, Note_on_c, 0, 60, 58
2, 131862, Note_on_c, 0, 75, 0
2, 131868, Note_on_c, 0, 60, 0
2, 131880, Note_on_c, 0, 61, 70
2, 131880, Note_on_c, 0, 77, 62
2, 131983, Note_on_c, 0, 61, 0
2, 132015, Note_on_c, 0, 70, 72
2, 132027, Note_on_c, 0, 73, 66
2, 132033, Note_on_c, 0, 77, 0
2, 132039, Note_on_c, 0, 70, 0
2, 132120, Note_on_c, 0, 73, 0
2, 132137, Note_on_c, 0, 75, 66
2, 132239, Note_on_c, 0, 75, 0
2, 132246, Note_on_c, 0, 67, 63
2, 132262, Note_on_c, 0, 72, 61
2, 132283, Note_on_c, 0, 67, 0
2, 132345, Note_on_c, 0, 72, 0
2, 132361, Note_on_c, 0, 75, 63
2, 132472, Note_on_c, 0, 75, 0
2, 132504, Note_on_c, 0, 70, 54
2, 132506, Note_on_c, 0, 61, 51
2, 132591, Note_on_c, 0, 70, 0
2, 132607, Note_on_c, 0, 75, 54
2, 132700, Note_on_c, 0, 75, 0
2, 132721, Note_on_c, 0, 60, 54
2, 132735, Note_on_c, 0, 68, 53
2, 132745, Note_on_c, 0, 61, 0
2, 132820, Note_on_c, 0, 68, 0
2, 132830, Note_on_c, 0, 60, 0
2, 132834, Note_on_c, 0, 67, 64
2, 132843, Note_on_c, 0, 58, 54
2, 132935, Note_on_c, 0, 67, 0
2, 132952, Note_on_c, 0, 58, 0
2, 132954, Note_on_c, 0, 68, 63
2, 132965, Note_on_c, 0, 60, 59
2, 133066, Note_on_c, 0, 68, 0
2, 133075, Note_on_c, 0, 60, 0
2, 133078, Note_on_c, 0, 72, 66
2, 133081, Note_on_c, 0, 56, 51
2, 133180, Note_on_c, 0, 56, 0
2, 133183, Note_on_c, 0, 73, 80
2, 133189, Note_on_c, 0, 58, 61
2, 133202, Note_on_c, 0, 72, 0
2, 133283, Note_on_c, 0, 60, 62
2, 133297, Note_on_c, 0, 75, 82
2, 133299, Note_on_c, 0, 58, 0
2, 133330, Note_on_c, 0, 73, 0
2, 133380, Note_on_c, 0, 60, 0
2, 133408, Note_on_c, 0, 61, 62
2, 133412, Note_on_c, 0, 77, 82
2, 133428, Note_on_c, 0, 75, 0
2, 133521, Note_on_c, 0, 61, 0
2, 133530, Note_on_c, 0, 63, 56
2, 133532, Note_on_c, 0, 78, 86
2, 133570, Note_on_c, 0, 77, 0
2, 133636, Note_on_c, 0, 63, 0
2, 133643, Note_on_c, 0, 80, 83
2, 133650, Note_on_c, 0, 65, 62
2, 133716, Note_on_c, 0, 78, 0
2, 133751, Note_on_c, 0, 82, 85
2, 133753, Note_on_c, 0, 63, 64
2, 133753, Note_on_c, 0, 65, 0
2, 133774, Note_on_c, 0, 80, 0
2, 133848, Note_on_c, 0, 82, 0
2, 133861, Note_on_c, 0, 63, 0
2, 133874, Note_on_c, 0, 72, 85
2, 133882, Note_on_c, 0, 66, 70
2, 133907, Note_on_c, 0, 72, 0
2, 133978, Note_on_c, 0, 66, 0
2, 133993, Note_on_c, 0, 65, 56
2, 134114, Note_on_c, 0, 68, 85
2, 134117, Note_on_c, 0, 63, 67
2, 134126, Note_on_c, 0, 65, 0
2, 134147, Note_on_c, 0, 68, 0
2, 134226, Note_on_c, 0, 61, 63
2, 134248, Note_on_c, 0, 63, 0
2, 134351, Note_on_c, 0, 66, 63
2, 134365, Note_on_c, 0, 70, 78
2, 134372, Note_on_c, 0, 61, 0
2, 134387, Control_c, 0, 64, 8
2, 134390, Note_on_c, 0, 66, 0
2, 134402, Control_c, 0, 64, 43
2, 134418, Control_c, 0, 64, 53
2, 134432, Control_c, 0, 64, 60
2, 134447, Control_c, 0, 64, 64
2, 134461, Note_on_c, 0, 68, 79
2, 134463, Control_c, 0, 64, 69
2, 134478, Control_c, 0, 64, 79
2, 134494, Control_c, 0, 64, 89
2, 134496, Note_on_c, 0, 70, 0
2, 134508, Control_c, 0, 64, 94
2, 134523, Control_c, 0, 64, 98
2, 134539, Control_c, 0, 64, 102
2, 134554, Control_c, 0, 64, 102
2, 134583, Note_on_c, 0, 66, 86
2, 134595, Note_on_c, 0, 68, 0
2, 134599, Note_on_c, 0, 56, 50
2, 134659, Control_c, 0, 64, 101
2, 134674, Control_c, 0, 64, 97
2, 134676, Note_on_c, 0, 68, 83
2, 134689, Control_c, 0, 64, 87
2, 134696, Note_on_c, 0, 58, 58
2, 134705, Control_c, 0, 64, 76
2, 134720, Control_c, 0, 64, 66
2, 134736, Control_c, 0, 64, 51
2, 134743, Note_on_c, 0, 66, 0
2, 134751, Control_c, 0, 64, 0
2, 134798, Note_on_c, 0, 61, 61
2, 134800, Note_on_c, 0, 56, 0
2, 134801, Note_on_c, 0, 68, 0
2, 134807, Note_on_c, 0, 77, 84
2, 134844, Note_on_c, 0, 58, 0
2, 134846, Note_on_c, 0, 77, 0
2, 134907, Note_on_c, 0, 61, 0
2, 134919, Note_on_c, 0, 60, 67
2, 135045, Note_on_c, 0, 58, 67
2, 135047, Note_on_c, 0, 73, 95
2, 135091, Note_on_c, 0, 73, 0
2, 135131, Note_on_c, 0, 60, 0
2, 135148, Note_on_c, 0, 58, 0
2, 135150, Note_on_c, 0, 56, 61
2, 135286, Note_on_c, 0, 58, 61
2, 135298, Note_on_c, 0, 68, 82
2, 135408, Note_on_c, 0, 56, 0
2, 135541, Note_on_c, 0, 66, 76
2, 135562, Note_on_c, 0, 68, 0
2, 135643, Note_on_c, 0, 65, 79
2, 135674, Note_on_c, 0, 66, 0
2, 135760, Note_on_c, 0, 66, 89
2, 135781, Note_on_c, 0, 65, 0
2, 135812, Note_on_c, 0, 66, 0
2, 135882, Note_on_c, 0, 56, 62
2, 135918, Note_on_c, 0, 58, 0
2, 136000, Note_on_c, 0, 75, 86
2, 136002, Note_on_c, 0, 56, 0
2, 136004, Note_on_c, 0, 54, 62
2, 136050, Note_on_c, 0, 75, 0
2, 136120, Note_on_c, 0, 54, 0
2, 136128, Note_on_c, 0, 58, 62
2, 136240, Note_on_c, 0, 58, 0
2, 136242, Note_on_c, 0, 65, 84
2, 136246, Note_on_c, 0, 56, 58
2, 136282, Note_on_c, 0, 65, 0
2, 136354, Note_on_c, 0, 54, 61
2, 136362, Note_on_c, 0, 56, 0
2, 136472, Note_on_c, 0, 73, 84
2, 136475, Note_on_c, 0, 54, 0
2, 136483, Note_on_c, 0, 53, 53
2, 136526, Note_on_c, 0, 73, 0
2, 136570, Note_on_c, 0, 53, 0
2, 136591, Note_on_c, 0, 56, 59
2, 136709, Note_on_c, 0, 63, 82
2, 136726, Note_on_c, 0, 54, 62
2, 136748, Note_on_c, 0, 63, 0
2, 136779, Note_on_c, 0, 56, 0
2, 136827, Note_on_c, 0, 53, 62
2, 136831, Note_on_c, 0, 54, 0
2, 136910, Note_on_c, 0, 53, 0
2, 136953, Note_on_c, 0, 54, 60
2, 136960, Note_on_c, 0, 72, 74
2, 136991, Note_on_c, 0, 72, 0
2, 137054, Note_on_c, 0, 51, 57
2, 137064, Note_on_c, 0, 54, 0
2, 137201, Note_on_c, 0, 51, 0
2, 137212, Note_on_c, 0, 53, 54
2, 137224, Note_on_c, 0, 61, 54
2, 137320, Control_c, 0, 64, 35
2, 137336, Control_c, 0, 64, 47
2, 137338, Note_on_c, 0, 61, 0
2, 137351, Control_c, 0, 64, 53
2, 137365, Control_c, 0, 64, 56
2, 137381, Control_c, 0, 64, 58
2, 137396, Control_c, 0, 64, 59
2, 137411, Control_c, 0, 64, 60
2, 137455, Note_on_c, 0, 73, 55
2, 137519, Control_c, 0, 64, 59
2, 137535, Control_c, 0, 64, 58
2, 137538, Note_on_c, 0, 73, 0
2, 137549, Control_c, 0, 64, 57
2, 137564, Control_c, 0, 64, 57
2, 137572, Note_on_c, 0, 56, 58
2, 137579, Note_on_c, 0, 72, 48
2, 137580, Control_c, 0, 64, 55
2, 137594, Control_c, 0, 64, 53
2, 137609, Control_c, 0, 64, 51
2, 137625, Control_c, 0, 64, 49
2, 137640, Control_c, 0, 64, 46
2, 137656, Control_c, 0, 64, 43
2, 137671, Control_c, 0, 64, 40
2, 137677, Note_on_c, 0, 53, 0
2, 137681, Note_on_c, 0, 72, 0
2, 137683, Note_on_c, 0, 58, 66
2, 137685, Control_c, 0, 64, 34
2, 137692, Note_on_c, 0, 73, 56
2, 137701, Control_c, 0, 64, 28
2, 137716, Control_c, 0, 64, 15
2, 137731, Control_c, 0, 64, 0
2, 137754, Note_on_c, 0, 56, 0
2, 137792, Note_on_c, 0, 60, 72
2, 137798, Note_on_c, 0, 75, 67
2, 137800, Note_on_c, 0, 58, 0
2, 137801, Note_on_c, 0, 73, 0
2, 137901, Note_on_c, 0, 61, 77
2, 137915, Note_on_c, 0, 75, 0
2, 137920, Note_on_c, 0, 77, 68
2, 137921, Note_on_c, 0, 60, 0
2, 138015, Note_on_c, 0, 63, 77
2, 138031, Note_on_c, 0, 78, 73
2, 138038, Note_on_c, 0, 77, 0
2, 138061, Note_on_c, 0, 61, 0
2, 138162, Note_on_c, 0, 65, 76
2, 138171, Note_on_c, 0, 63, 0
2, 138172, Note_on_c, 0, 78, 0
2, 138172, Note_on_c, 0, 80, 67
2, 138272, Note_on_c, 0, 63, 84
2, 138282, Note_on_c, 0, 78, 77
2, 138310, Note_on_c, 0, 80, 0
2, 138324, Note_on_c, 0, 65, 0
2, 138381, Note_on_c, 0, 61, 82
2, 138392, Note_on_c, 0, 77, 75
2, 138405, Note_on_c, 0, 63, 0
2, 138408, Note_on_c, 0, 78, 0
2, 138499, Note_on_c, 0, 63, 83
2, 138504, Note_on_c, 0, 78, 81
2, 138531, Note_on_c, 0, 77, 0
2, 138532, Note_on_c, 0, 61, 0
2, 138599, Note_on_c, 0, 63, 0
2, 138636, Note_on_c, 0, 72, 88
2, 138637, Note_on_c, 0, 80, 75
2, 138646, Note_on_c, 0, 78, 0
2, 138649, Note_on_c, 0, 60, 68
2, 138677, Note_on_c, 0, 72, 0
2, 138754, Note_on_c, 0, 78, 74
2, 138761, Note_on_c, 0, 80, 0
2, 138878, Note_on_c, 0, 78, 0
2, 138880, Note_on_c, 0, 68, 83
2, 138883, Note_on_c, 0, 77, 72
2, 138929, Note_on_c, 0, 68, 0
2, 138978, Note_on_c, 0, 77, 0
2, 138986, Note_on_c, 0, 75, 75
2, 139130, Note_on_c, 0, 63, 74
2, 139136, Note_on_c, 0, 77, 77
2, 139164, Note_on_c, 0, 75, 0
2, 139294, Note_on_c, 0, 60, 0
2, 139380, Note_on_c, 0, 61, 71
2, 139466, Note_on_c, 0, 63, 0
2, 139482, Note_on_c, 0, 60, 73
2, 139503, Note_on_c, 0, 61, 0
2, 139600, Note_on_c, 0, 60, 0
2, 139617, Note_on_c, 0, 58, 70
2, 139626, Note_on_c, 0, 61, 79
2, 139671, Note_on_c, 0, 61, 0
2, 139736, Note_on_c, 0, 75, 73
2, 139862, Note_on_c, 0, 73, 73
2, 139863, Note_on_c, 0, 70, 79
2, 139866, Note_on_c, 0, 77, 0
2, 139888, Note_on_c, 0, 75, 0
2, 139906, Note_on_c, 0, 70, 0
2, 139963, Note_on_c, 0, 77, 69
2, 139975, Note_on_c, 0, 73, 0
2, 140088, Note_on_c, 0, 60, 77
2, 140103, Note_on_c, 0, 75, 76
2, 140113, Note_on_c, 0, 58, 0
2, 140132, Note_on_c, 0, 60, 0
2, 140141, Note_on_c, 0, 77, 0
2, 140202, Note_on_c, 0, 73, 72
2, 140248, Note_on_c, 0, 75, 0
2, 140318, Note_on_c, 0, 72, 69
2, 140324, Note_on_c, 0, 68, 78
2, 140327, Note_on_c, 0, 56, 69
2, 140327, Note_on_c, 0, 73, 0
2, 140363, Note_on_c, 0, 68, 0
2, 140365, Note_on_c, 0, 56, 0
2, 140437, Note_on_c, 0, 72, 0
2, 140443, Note_on_c, 0, 75, 78
2, 140563, Note_on_c, 0, 58, 78
2, 140580, Note_on_c, 0, 73, 75
2, 140614, Note_on_c, 0, 58, 0
2, 140614, Note_on_c, 0, 75, 0
2, 140676, Note_on_c, 0, 73, 0
2, 140685, Note_on_c, 0, 72, 69
2, 140797, Note_on_c, 0, 72, 0
2, 140805, Note_on_c, 0, 73, 71
2, 140810, Note_on_c, 0, 67, 56
2, 140814, Note_on_c, 0, 51, 65
2, 140841, Note_on_c, 0, 51, 0
2, 140852, Note_on_c, 0, 67, 0
2, 140921, Note_on_c, 0, 70, 66
2, 140932, Note_on_c, 0, 73, 0
2, 141044, Note_on_c, 0, 70, 0
2, 141047, Note_on_c, 0, 56, 52
2, 141052, Note_on_c, 0, 72, 68
2, 141107, Control_c, 0, 64, 39
2, 141122, Control_c, 0, 64, 49
2, 141138, Control_c, 0, 64, 54
2, 141161, Control_c, 0, 64, 58
2, 141177, Control_c, 0, 64, 61
2, 141191, Control_c, 0, 64, 62
2, 141206, Control_c, 0, 64, 63
2, 141222, Control_c, 0, 64, 64
2, 141237, Control_c, 0, 64, 65
2, 141252, Control_c, 0, 64, 65
2, 141274, Note_on_c, 0, 56, 0
2, 141287, Note_on_c, 0, 72, 0
2, 141295, Note_on_c, 0, 75, 70
2, 141312, Control_c, 0, 64, 64
2, 141312, Note_on_c, 0, 68, 51
2, 141321, Note_on_c, 0, 75, 0
2, 141327, Control_c, 0, 64, 62
2, 141343, Control_c, 0, 64, 54
2, 141358, Control_c, 0, 64, 20
2, 141374, Control_c, 0, 64, 0
2, 141386, Note_on_c, 0, 68, 0
2, 141419, Note_on_c, 0, 67, 58
2, 141526, Note_on_c, 0, 67, 0
2, 141543, Note_on_c, 0, 68, 70
2, 141544, Note_on_c, 0, 78, 73
2, 141585, Note_on_c, 0, 68, 0
2, 141639, Note_on_c, 0, 70, 57
2, 141775, Note_on_c, 0, 56, 74
2, 141777, Note_on_c, 0, 70, 0
2, 141784, Note_on_c, 0, 72, 64
2, 141827, Note_on_c, 0, 56, 0
2, 141854, Note_on_c, 0, 72, 0
2, 141878, Note_on_c, 0, 68, 59
2, 142022, Note_on_c, 0, 58, 67
2, 142040, Note_on_c, 0, 73, 68
2, 142054, Note_on_c, 0, 68, 0
2, 142119, Note_on_c, 0, 78, 0
2, 142131, Note_on_c, 0, 56, 73
2, 142147, Note_on_c, 0, 72, 66
2, 142178, Note_on_c, 0, 58, 0
2, 142197, Note_on_c, 0, 73, 0
2, 142239, Note_on_c, 0, 54, 83
2, 142261, Note_on_c, 0, 56, 0
2, 142268, Note_on_c, 0, 70, 78
2, 142274, Note_on_c, 0, 72, 0
2, 142348, Note_on_c, 0, 56, 82
2, 142362, Note_on_c, 0, 72, 79
2, 142387, Note_on_c, 0, 54, 0
2, 142473, Note_on_c, 0, 70, 0
2, 142489, Note_on_c, 0, 65, 81
2, 142499, Note_on_c, 0, 56, 0
2, 142499, Note_on_c, 0, 72, 0
2, 142503, Note_on_c, 0, 73, 59
2, 142505, Note_on_c, 0, 77, 75
2, 142523, Note_on_c, 0, 65, 0
2, 142588, Note_on_c, 0, 73, 0
2, 142602, Note_on_c, 0, 72, 68
2, 142715, Note_on_c, 0, 72, 0
2, 142729, Note_on_c, 0, 61, 80
2, 142750, Note_on_c, 0, 70, 61
2, 142779, Note_on_c, 0, 61, 0
2, 142839, Note_on_c, 0, 70, 0
2, 142840, Note_on_c, 0, 68, 67
2, 142985, Note_on_c, 0, 56, 73
2, 142991, Note_on_c, 0, 68, 0
2, 142995, Note_on_c, 0, 70, 68
2, 143127, Note_on_c, 0, 77, 0
2, 143245, Note_on_c, 0, 54, 71
2, 143310, Note_on_c, 0, 56, 0
2, 143348, Note_on_c, 0, 53, 76
2, 143379, Note_on_c, 0, 54, 0
2, 143459, Note_on_c, 0, 54, 79
2, 143468, Note_on_c, 0, 53, 0
2, 143472, Note_on_c, 0, 75, 79
2, 143488, Note_on_c, 0, 70, 0
2, 143492, Note_on_c, 0, 54, 0
2, 143588, Note_on_c, 0, 68, 64
2, 143710, Note_on_c, 0, 63, 75
2, 143712, Note_on_c, 0, 68, 0
2, 143718, Note_on_c, 0, 66, 71
2, 143737, Note_on_c, 0, 63, 0
2, 143825, Note_on_c, 0, 66, 0
2, 143829, Note_on_c, 0, 70, 66
2, 143939, Note_on_c, 0, 53, 80
2, 143952, Note_on_c, 0, 68, 74
2, 143956, Note_on_c, 0, 75, 0
2, 143988, Note_on_c, 0, 53, 0
2, 144044, Note_on_c, 0, 70, 0
2, 144058, Note_on_c, 0, 66, 71
2, 144078, Note_on_c, 0, 68, 0
2, 144177, Note_on_c, 0, 61, 74
2, 144181, Note_on_c, 0, 73, 80
2, 144190, Note_on_c, 0, 66, 0
2, 144197, Note_on_c, 0, 65, 61
2, 144203, Note_on_c, 0, 61, 0
2, 144304, Note_on_c, 0, 68, 65
2, 144336, Note_on_c, 0, 73, 0
2, 144370, Note_on_c, 0, 65, 0
2, 144427, Note_on_c, 0, 72, 78
2, 144430, Note_on_c, 0, 51, 73
2, 144440, Note_on_c, 0, 66, 52
2, 144444, Note_on_c, 0, 68, 0
2, 144463, Note_on_c, 0, 51, 0
2, 144526, Note_on_c, 0, 66, 0
2, 144538, Note_on_c, 0, 65, 61
2, 144538, Note_on_c, 0, 72, 0
2, 144657, Note_on_c, 0, 65, 0
2, 144667, Note_on_c, 0, 66, 53
2, 144673, Note_on_c, 0, 60, 61
2, 144675, Note_on_c, 0, 75, 68
2, 144715, Note_on_c, 0, 60, 0
2, 144773, Note_on_c, 0, 66, 0
2, 144797, Note_on_c, 0, 63, 57
2, 144850, Note_on_c, 0, 63, 0
2, 144939, Note_on_c, 0, 49, 39
2, 145000, Note_on_c, 0, 65, 41
2, 145068, Note_on_c, 0, 49, 0
2, 145099, Note_on_c, 0, 44, 44
2, 145217, Note_on_c, 0, 44, 0
2, 145221, Note_on_c, 0, 49, 47
2, 145221, Note_on_c, 0, 68, 64
2, 145343, Note_on_c, 0, 51, 47
2, 145350, Note_on_c, 0, 49, 0
2, 145383, Note_on_c, 0, 65, 0
2, 145440, Note_on_c, 0, 51, 0
2, 145449, Note_on_c, 0, 73, 77
2, 145458, Note_on_c, 0, 53, 47
2, 145490, Note_on_c, 0, 68, 0
2, 145543, Note_on_c, 0, 53, 0
2, 145572, Note_on_c, 0, 54, 55
2, 145663, Note_on_c, 0, 75, 0
2, 145678, Note_on_c, 0, 54, 0
2, 145685, Note_on_c, 0, 56, 51
2, 145694, Note_on_c, 0, 71, 69
2, 145730, Note_on_c, 0, 73, 0
2, 145817, Note_on_c, 0, 56, 0
2, 145819, Note_on_c, 0, 53, 47
2, 145874, Note_on_c, 0, 53, 0
2, 145927, Note_on_c, 0, 71, 0
2, 145932, Note_on_c, 0, 70, 58
2, 145938, Note_on_c, 0, 54, 49
2, 146041, Note_on_c, 0, 54, 0
2, 146061, Note_on_c, 0, 42, 51
2, 146114, Note_on_c, 0, 42, 0
2, 146181, Note_on_c, 0, 54, 47
2, 146188, Note_on_c, 0, 61, 49
2, 146233, Note_on_c, 0, 54, 0
2, 146295, Note_on_c, 0, 53, 45
2, 146411, Note_on_c, 0, 53, 0
2, 146416, Note_on_c, 0, 54, 48
2, 146419, Note_on_c, 0, 66, 66
2, 146498, Note_on_c, 0, 61, 0
2, 146555, Note_on_c, 0, 56, 48
2, 146577, Note_on_c, 0, 54, 0
2, 146658, Note_on_c, 0, 70, 0
2, 146660, Note_on_c, 0, 58, 51
2, 146661, Note_on_c, 0, 65, 72
2, 146665, Note_on_c, 0, 56, 0
2, 146704, Note_on_c, 0, 66, 0
2, 146768, Note_on_c, 0, 54, 47
2, 146796, Note_on_c, 0, 58, 0
2, 146878, Note_on_c, 0, 54, 0
2, 146912, Note_on_c, 0, 66, 69
2, 146923, Note_on_c, 0, 51, 37
2, 146948, Note_on_c, 0, 65, 0
2, 147017, Note_on_c, 0, 51, 0
2, 147037, Note_on_c, 0, 53, 49
2, 147129, Note_on_c, 0, 53, 0
2, 147148, Note_on_c, 0, 66, 0
2, 147148, Note_on_c, 0, 70, 70
2, 147153, Note_on_c, 0, 54, 54
2, 147242, Note_on_c, 0, 70, 0
2, 147246, Note_on_c, 0, 54, 0
2, 147252, Note_on_c, 0, 66, 74
2, 147255, Note_on_c, 0, 51, 58
2, 147361, Note_on_c, 0, 51, 0
2, 147385, Note_on_c, 0, 63, 62
2, 147392, Note_on_c, 0, 66, 0
2, 147393, Note_on_c, 0, 48, 46
2, 147455, Note_on_c, 0, 48, 0
2, 147502, Note_on_c, 0, 49, 53
2, 147611, Note_on_c, 0, 49, 0
2, 147620, Note_on_c, 0, 63, 0
2, 147626, Note_on_c, 0, 66, 56
2, 147631, Note_on_c, 0, 51, 50
2, 147680, Note_on_c, 0, 51, 0
2, 147711, Note_on_c, 0, 66, 0
2, 147721, Note_on_c, 0, 63, 53
2, 147727, Note_on_c, 0, 48, 38
2, 147777, Note_on_c, 0, 48, 0
2, 147864, Note_on_c, 0, 63, 0
2, 147867, Control_c, 0, 64, 33
2, 147869, Note_on_c, 0, 41, 43
2, 147873, Note_on_c, 0, 56, 56
2, 147882, Control_c, 0, 64, 43
2, 147898, Control_c, 0, 64, 49
2, 147911, Note_on_c, 0, 41, 0
2, 147913, Control_c, 0, 64, 53
2, 147928, Control_c, 0, 64, 56
2, 147943, Control_c, 0, 64, 58
2, 147958, Control_c, 0, 64, 59
2, 147973, Control_c, 0, 64, 59
2, 148019, Control_c, 0, 64, 60
2, 148087, Control_c, 0, 64, 59
2, 148090, Note_on_c, 0, 56, 0
2, 148103, Control_c, 0, 64, 53
2, 148115, Note_on_c, 0, 63, 68
2, 148117, Control_c, 0, 64, 39
2, 148125, Note_on_c, 0, 53, 47
2, 148132, Control_c, 0, 64, 0
2, 148145, Note_on_c, 0, 63, 0
2, 148192, Note_on_c, 0, 53, 0
2, 148232, Note_on_c, 0, 51, 47
2, 148339, Note_on_c, 0, 51, 0
2, 148355, Note_on_c, 0, 68, 69
2, 148366, Note_on_c, 0, 53, 41
2, 148465, Note_on_c, 0, 53, 0
2, 148480, Note_on_c, 0, 54, 50
2, 148562, Note_on_c, 0, 54, 0
2, 148588, Note_on_c, 0, 56, 47
2, 148601, Note_on_c, 0, 60, 62
2, 148633, Note_on_c, 0, 60, 0
2, 148684, Note_on_c, 0, 56, 0
2, 148702, Note_on_c, 0, 53, 45
2, 148814, Note_on_c, 0, 53, 0
2, 148838, Note_on_c, 0, 50, 43
2, 148851, Note_on_c, 0, 65, 59
2, 148917, Note_on_c, 0, 68, 0
2, 148965, Note_on_c, 0, 50, 0
2, 148970, Note_on_c, 0, 51, 53
2, 149085, Note_on_c, 0, 51, 0
2, 149085, Note_on_c, 0, 53, 55
2, 149085, Note_on_c, 0, 68, 63
2, 149091, Note_on_c, 0, 65, 0
2, 149178, Note_on_c, 0, 68, 0
2, 149187, Note_on_c, 0, 53, 0
2, 149190, Note_on_c, 0, 65, 69
2, 149199, Note_on_c, 0, 50, 51
2, 149279, Note_on_c, 0, 50, 0
2, 149298, Note_on_c, 0, 65, 0
2, 149309, Note_on_c, 0, 62, 65
2, 149323, Note_on_c, 0, 46, 49
2, 149445, Note_on_c, 0, 48, 40
2, 149492, Note_on_c, 0, 46, 0
2, 149512, Note_on_c, 0, 48, 0
2, 149544, Note_on_c, 0, 50, 53
2, 149545, Note_on_c, 0, 62, 0
2, 149551, Note_on_c, 0, 65, 58
2, 149621, Note_on_c, 0, 50, 0
2, 149637, Note_on_c, 0, 65, 0
2, 149653, Note_on_c, 0, 46, 49
2, 149661, Note_on_c, 0, 62, 57
2, 149776, Note_on_c, 0, 46, 0
2, 149803, Note_on_c, 0, 54, 55
2, 149814, Note_on_c, 0, 39, 44
2, 149839, Control_c, 0, 64, 38
2, 149855, Control_c, 0, 64, 49
2, 149869, Control_c, 0, 64, 55
2, 149884, Control_c, 0, 64, 60
2, 149888, Note_on_c, 0, 39, 0
2, 149900, Control_c, 0, 64, 62
2, 149915, Control_c, 0, 64, 63
2, 149931, Control_c, 0, 64, 64
2, 149945, Control_c, 0, 64, 65
2, 149960, Control_c, 0, 64, 66
2, 149991, Note_on_c, 0, 62, 0
2, 150029, Note_on_c, 0, 54, 0
2, 150036, Control_c, 0, 64, 65
2, 150044, Note_on_c, 0, 58, 58
2, 150052, Control_c, 0, 64, 64
2, 150064, Note_on_c, 0, 51, 51
2, 150067, Control_c, 0, 64, 60
2, 150073, Note_on_c, 0, 58, 0
2, 150082, Control_c, 0, 64, 47
2, 150098, Control_c, 0, 64, 0
2, 150144, Note_on_c, 0, 51, 0
2, 150172, Note_on_c, 0, 50, 52
2, 150269, Note_on_c, 0, 50, 0
2, 150284, Note_on_c, 0, 51, 58
2, 150288, Note_on_c, 0, 66, 75
2, 150403, Note_on_c, 0, 51, 0
2, 150405, Note_on_c, 0, 53, 54
2, 150523, Note_on_c, 0, 53, 0
2, 150525, Note_on_c, 0, 58, 62
2, 150536, Note_on_c, 0, 54, 55
2, 150559, Note_on_c, 0, 58, 0
2, 150621, Note_on_c, 0, 51, 53
2, 150621, Note_on_c, 0, 54, 0
2, 150741, Note_on_c, 0, 51, 0
2, 150770, Note_on_c, 0, 48, 42
2, 150789, Note_on_c, 0, 63, 60
2, 150860, Note_on_c, 0, 66, 0
2, 150879, Note_on_c, 0, 48, 0
2, 150894, Note_on_c, 0, 49, 55
2, 150902, Note_on_c, 0, 65, 71
2, 150945, Note_on_c, 0, 63, 0
2, 151003, Note_on_c, 0, 66, 75
2, 151010, Note_on_c, 0, 65, 0
2, 151011, Note_on_c, 0, 51, 62
2, 151021, Note_on_c, 0, 49, 0
2, 151091, Note_on_c, 0, 66, 0
2, 151097, Note_on_c, 0, 63, 77
2, 151119, Note_on_c, 0, 48, 59
2, 151139, Note_on_c, 0, 51, 0
2, 151206, Note_on_c, 0, 48, 0
2, 151248, Note_on_c, 0, 44, 49
2, 151251, Note_on_c, 0, 75, 85
2, 151316, Note_on_c, 0, 63, 0
2, 151369, Note_on_c, 0, 46, 52
2, 151371, Note_on_c, 0, 66, 67
2, 151422, Note_on_c, 0, 44, 0
2, 151470, Note_on_c, 0, 48, 55
2, 151491, Note_on_c, 0, 68, 68
2, 151539, Note_on_c, 0, 48, 0
2, 151541, Note_on_c, 0, 66, 0
2, 151578, Note_on_c, 0, 44, 48
2, 151593, Note_on_c, 0, 63, 69
2, 151633, Note_on_c, 0, 63, 0
2, 151646, Note_on_c, 0, 68, 0
2, 151721, Note_on_c, 0, 46, 0
2, 151721, Note_on_c, 0, 65, 69
2, 151725, Note_on_c, 0, 37, 58
2, 151753, Control_c, 0, 64, 41
2, 151768, Control_c, 0, 64, 56
2, 151772, Note_on_c, 0, 44, 0
2, 151773, Note_on_c, 0, 37, 0
2, 151782, Note_on_c, 0, 75, 0
2, 151784, Control_c, 0, 64, 61
2, 151798, Control_c, 0, 64, 65
2, 151813, Control_c, 0, 64, 69
2, 151829, Control_c, 0, 64, 75
2, 151830, Note_on_c, 0, 65, 0
2, 151838, Note_on_c, 0, 73, 76
2, 151844, Control_c, 0, 64, 84
2, 151860, Control_c, 0, 64, 95
2, 151874, Control_c, 0, 64, 127
2, 151957, Note_on_c, 0, 72, 76
2, 151969, Note_on_c, 0, 73, 0
2, 151970, Note_on_c, 0, 49, 62
2, 152056, Note_on_c, 0, 75, 86
2, 152069, Note_on_c, 0, 72, 0
2, 152077, Note_on_c, 0, 51, 77
2, 152170, Control_c, 0, 64, 93
2, 152175, Note_on_c, 0, 49, 0
2, 152184, Note_on_c, 0, 73, 91
2, 152185, Note_on_c, 0, 53, 80
2, 152186, Control_c, 0, 64, 71
2, 152201, Control_c, 0, 64, 39
2, 152209, Note_on_c, 0, 75, 0
2, 152211, Note_on_c, 0, 51, 0
2, 152216, Control_c, 0, 64, 0
2, 152219, Note_on_c, 0, 53, 0
2, 152300, Note_on_c, 0, 68, 80
2, 152306, Note_on_c, 0, 73, 0
2, 152416, Note_on_c, 0, 61, 72
2, 152423, Note_on_c, 0, 49, 65
2, 152424, Note_on_c, 0, 70, 76
2, 152455, Note_on_c, 0, 68, 0
2, 152504, Note_on_c, 0, 49, 0
2, 152537, Note_on_c, 0, 71, 76
2, 152566, Note_on_c, 0, 70, 0
2, 152665, Note_on_c, 0, 70, 84
2, 152667, Note_on_c, 0, 54, 48
2, 152703, Note_on_c, 0, 71, 0
2, 152788, Note_on_c, 0, 60, 68
2, 152792, Note_on_c, 0, 68, 86
2, 152807, Note_on_c, 0, 70, 0
2, 152809, Note_on_c, 0, 61, 0
2, 152888, Note_on_c, 0, 58, 67
2, 152898, Note_on_c, 0, 66, 86
2, 152909, Note_on_c, 0, 60, 0
2, 152920, Note_on_c, 0, 68, 0
2, 153006, Note_on_c, 0, 68, 93
2, 153024, Note_on_c, 0, 66, 0
2, 153025, Note_on_c, 0, 60, 75
2, 153106, Note_on_c, 0, 54, 0
2, 153138, Note_on_c, 0, 77, 86
2, 153140, Note_on_c, 0, 58, 0
2, 153143, Note_on_c, 0, 53, 62
2, 153146, Note_on_c, 0, 61, 67
2, 153152, Note_on_c, 0, 68, 0
2, 153156, Note_on_c, 0, 60, 0
2, 153181, Note_on_c, 0, 77, 0
2, 153261, Note_on_c, 0, 60, 80
2, 153299, Note_on_c, 0, 61, 0
2, 153377, Note_on_c, 0, 73, 91
2, 153378, Note_on_c, 0, 53, 0
2, 153382, Note_on_c, 0, 58, 82
2, 153425, Note_on_c, 0, 73, 0
2, 153455, Note_on_c, 0, 60, 0
2, 153479, Note_on_c, 0, 56, 76
2, 153505, Note_on_c, 0, 58, 0
2, 153621, Note_on_c, 0, 58, 72
2, 153629, Note_on_c, 0, 68, 80
2, 153630, Note_on_c, 0, 51, 73
2, 153650, Note_on_c, 0, 56, 0
2, 153672, Note_on_c, 0, 51, 0
2, 153859, Note_on_c, 0, 49, 69
2, 153874, Note_on_c, 0, 66, 77
2, 153893, Note_on_c, 0, 49, 0
2, 153915, Note_on_c, 0, 68, 0
2, 153971, Note_on_c, 0, 65, 83
2, 154015, Note_on_c, 0, 66, 0
2, 154097, Note_on_c, 0, 48, 66
2, 154103, Note_on_c, 0, 66, 90
2, 154120, Note_on_c, 0, 65, 0
2, 154143, Note_on_c, 0, 66, 0
2, 154210, Note_on_c, 0, 56, 74
2, 154214, Note_on_c, 0, 58, 0
2, 154337, Note_on_c, 0, 54, 67
2, 154346, Note_on_c, 0, 75, 90
2, 154383, Note_on_c, 0, 56, 0
2, 154399, Note_on_c, 0, 75, 0
2, 154413, Note_on_c, 0, 48, 0
2, 154447, Note_on_c, 0, 58, 66
2, 154578, Note_on_c, 0, 54, 0
2, 154582, Note_on_c, 0, 58, 0
2, 154586, Note_on_c, 0, 65, 86
2, 154587, Note_on_c, 0, 49, 52
2, 154590, Note_on_c, 0, 56, 68
2, 154629, Note_on_c, 0, 65, 0
2, 154695, Note_on_c, 0, 54, 67
2, 154723, Note_on_c, 0, 56, 0
2, 154811, Note_on_c, 0, 53, 62
2, 154824, Note_on_c, 0, 73, 86
2, 154850, Note_on_c, 0, 54, 0
2, 154885, Note_on_c, 0, 73, 0
2, 154903, Note_on_c, 0, 53, 0
2, 154904, Note_on_c, 0, 49, 0
2, 154909, Note_on_c, 0, 56, 65
2, 155043, Note_on_c, 0, 56, 0
2, 155058, Note_on_c, 0, 63, 75
2, 155062, Note_on_c, 0, 54, 65
2, 155066, Note_on_c, 0, 44, 56
2, 155109, Note_on_c, 0, 63, 0
2, 155180, Note_on_c, 0, 54, 0
2, 155187, Note_on_c, 0, 53, 69
2, 155285, Note_on_c, 0, 51, 59
2, 155299, Note_on_c, 0, 72, 77
2, 155354, Note_on_c, 0, 72, 0
2, 155376, Note_on_c, 0, 44, 0
2, 155405, Note_on_c, 0, 53, 0
2, 155422, Note_on_c, 0, 54, 63
2, 155498, Note_on_c, 0, 54, 0
2, 155557, Note_on_c, 0, 46, 52
2, 155570, Note_on_c, 0, 53, 59
2, 155575, Note_on_c, 0, 61, 64
2, 155620, Control_c, 0, 64, 37
2, 155636, Control_c, 0, 64, 51
2, 155651, Control_c, 0, 64, 56
2, 155667, Control_c, 0, 64, 59
2, 155682, Control_c, 0, 64, 62
2, 155685, Note_on_c, 0, 51, 0
2, 155696, Control_c, 0, 64, 65
2, 155705, Note_on_c, 0, 53, 0
2, 155712, Control_c, 0, 64, 67
2, 155715, Note_on_c, 0, 46, 0
2, 155717, Note_on_c, 0, 61, 0
2, 155727, Control_c, 0, 64, 69
2, 155729, Note_on_c, 0, 56, 63
2, 155750, Control_c, 0, 64, 72
2, 155753, Note_on_c, 0, 65, 64
2, 155765, Control_c, 0, 64, 74
2, 155780, Control_c, 0, 64, 77
2, 155795, Control_c, 0, 64, 79
2, 155810, Control_c, 0, 64, 80
2, 155826, Control_c, 0, 64, 81
2, 155841, Control_c, 0, 64, 82
2, 155849, Note_on_c, 0, 56, 0
2, 155850, Note_on_c, 0, 66, 78
2, 155852, Note_on_c, 0, 58, 67
2, 155856, Control_c, 0, 64, 84
2, 155872, Control_c, 0, 64, 84
2, 155872, Note_on_c, 0, 65, 0
2, 155902, Control_c, 0, 64, 85
2, 155957, Note_on_c, 0, 60, 72
2, 155960, Note_on_c, 0, 68, 79
2, 155982, Note_on_c, 0, 58, 0
2, 156039, Note_on_c, 0, 66, 0
2, 156074, Note_on_c, 0, 70, 78
2, 156075, Note_on_c, 0, 61, 73
2, 156077, Note_on_c, 0, 60, 0
2, 156080, Note_on_c, 0, 68, 0
2, 156084, Control_c, 0, 64, 84
2, 156098, Control_c, 0, 64, 82
2, 156114, Control_c, 0, 64, 78
2, 156129, Control_c, 0, 64, 74
2, 156145, Control_c, 0, 64, 69
2, 156160, Control_c, 0, 64, 65
2, 156174, Control_c, 0, 64, 61
2, 156186, Note_on_c, 0, 72, 85
2, 156187, Note_on_c, 0, 60, 79
2, 156190, Control_c, 0, 64, 48
2, 156190, Note_on_c, 0, 70, 0
2, 156193, Note_on_c, 0, 61, 0
2, 156205, Control_c, 0, 64, 0
2, 156305, Note_on_c, 0, 58, 73
2, 156308, Note_on_c, 0, 73, 82
2, 156321, Note_on_c, 0, 60, 0
2, 156337, Note_on_c, 0, 72, 0
2, 156404, Note_on_c, 0, 56, 67
2, 156413, Note_on_c, 0, 75, 85
2, 156428, Note_on_c, 0, 58, 0
2, 156451, Note_on_c, 0, 73, 0
2, 156532, Note_on_c, 0, 56, 0
2, 156545, Note_on_c, 0, 55, 66
2, 156545, Note_on_c, 0, 76, 80
2, 156562, Note_on_c, 0, 75, 0
2, 156641, Note_on_c, 0, 55, 0
2, 156648, Note_on_c, 0, 56, 69
2, 156657, Note_on_c, 0, 75, 88
2, 156683, Note_on_c, 0, 76, 0
2, 156763, Note_on_c, 0, 73, 85
2, 156775, Note_on_c, 0, 58, 74
2, 156782, Note_on_c, 0, 75, 0
2, 156804, Note_on_c, 0, 56, 0
2, 156837, Control_c, 0, 64, 45
2, 156852, Control_c, 0, 64, 56
2, 156867, Control_c, 0, 64, 61
2, 156878, Note_on_c, 0, 55, 69
2, 156882, Control_c, 0, 64, 64
2, 156884, Note_on_c, 0, 75, 85
2, 156889, Note_on_c, 0, 58, 0
2, 156897, Control_c, 0, 64, 67
2, 156906, Note_on_c, 0, 55, 0
2, 156913, Control_c, 0, 64, 70
2, 156914, Note_on_c, 0, 73, 0
2, 156928, Control_c, 0, 64, 73
2, 156943, Control_c, 0, 64, 74
2, 156958, Control_c, 0, 64, 75
2, 157007, Note_on_c, 0, 51, 69
2, 157008, Note_on_c, 0, 76, 83
2, 157012, Note_on_c, 0, 75, 0
2, 157034, Control_c, 0, 64, 74
2, 157049, Control_c, 0, 64, 72
2, 157065, Control_c, 0, 64, 66
2, 157079, Control_c, 0, 64, 60
2, 157094, Control_c, 0, 64, 52
2, 157110, Control_c, 0, 64, 38
2, 157125, Control_c, 0, 64, 0
2, 157125, Note_on_c, 0, 49, 71
2, 157125, Note_on_c, 0, 79, 86
2, 157155, Note_on_c, 0, 76, 0
2, 157233, Note_on_c, 0, 80, 87
2, 157243, Note_on_c, 0, 48, 76
2, 157281, Note_on_c, 0, 79, 0
2, 157357, Note_on_c, 0, 82, 85
2, 157361, Note_on_c, 0, 46, 75
2, 157361, Note_on_c, 0, 49, 0
2, 157392, Note_on_c, 0, 80, 0
2, 157406, Note_on_c, 0, 48, 0
2, 157407, Note_on_c, 0, 51, 0
2, 157477, Note_on_c, 0, 44, 70
2, 157504, Note_on_c, 0, 73, 87
2, 157508, Note_on_c, 0, 46, 0
2, 157525, Note_on_c, 0, 82, 0
2, 157605, Note_on_c, 0, 51, 68
2, 157617, Note_on_c, 0, 72, 87
2, 157645, Note_on_c, 0, 73, 0
2, 157724, Note_on_c, 0, 53, 69
2, 157736, Note_on_c, 0, 70, 84
2, 157755, Note_on_c, 0, 72, 0
2, 157818, Note_on_c, 0, 44, 0
2, 157837, Note_on_c, 0, 68, 86
2, 157838, Note_on_c, 0, 51, 0
2, 157844, Note_on_c, 0, 53, 0
2, 157848, Note_on_c, 0, 54, 77
2, 157877, Note_on_c, 0, 70, 0
2, 157964, Note_on_c, 0, 68, 0
2, 157966, Note_on_c, 0, 75, 88
2, 157970, Note_on_c, 0, 54, 0
2, 157970, Note_on_c, 0, 56, 74
2, 158011, Note_on_c, 0, 75, 0
2, 158088, Note_on_c, 0, 58, 75
2, 158107, Note_on_c, 0, 56, 0
2, 158210, Note_on_c, 0, 66, 88
2, 158217, Note_on_c, 0, 60, 74
2, 158222, Note_on_c, 0, 58, 0
2, 158253, Note_on_c, 0, 66, 0
2, 158332, Note_on_c, 0, 60, 0
2, 158338, Note_on_c, 0, 56, 68
2, 158422, Note_on_c, 0, 56, 0
2, 158477, Note_on_c, 0, 65, 82
2, 158482, Note_on_c, 0, 61, 75
2, 158518, Note_on_c, 0, 61, 0
2, 158527, Control_c, 0, 64, 32
2, 158543, Control_c, 0, 64, 61
2, 158545, Note_on_c, 0, 65, 0
2, 158557, Control_c, 0, 64, 66
2, 158572, Control_c, 0, 64, 74
2, 158588, Control_c, 0, 64, 84
2, 158603, Control_c, 0, 64, 92
2, 158619, Control_c, 0, 64, 98
2, 158633, Control_c, 0, 64, 103
2, 158648, Control_c, 0, 64, 103
2, 158726, Control_c, 0, 64, 100
2, 158742, Control_c, 0, 64, 88
2, 158747, Note_on_c, 0, 41, 75
2, 158747, Note_on_c, 0, 73, 91
2, 158750, Note_on_c, 0, 68, 81
2, 158751, Note_on_c, 0, 61, 83
2, 158757, Control_c, 0, 64, 69
2, 158772, Control_c, 0, 64, 45
2, 158787, Control_c, 0, 64, 0
2, 158903, Note_on_c, 0, 68, 0
2, 158945, Note_on_c, 0, 61, 0
2, 159038, Note_on_c, 0, 73, 0
2, 159048, Note_on_c, 0, 42, 75
2, 159054, Note_on_c, 0, 70, 87
2, 159063, Note_on_c, 0, 63, 75
2, 159065, Note_on_c, 0, 66, 74
2, 159070, Note_on_c, 0, 41, 0
2, 159149, Note_on_c, 0, 66, 0
2, 159169, Note_on_c, 0, 63, 0
2, 159227, Note_on_c, 0, 70, 0
2, 159420, Note_on_c, 0, 44, 73
2, 159424, Note_on_c, 0, 72, 80
2, 159432, Note_on_c, 0, 68, 74
2, 159443, Note_on_c, 0, 66, 66
2, 159452, Note_on_c, 0, 42, 0
2, 159510, Control_c, 0, 64, 54
2, 159530, Control_c, 0, 64, 63
2, 159544, Control_c, 0, 64, 66
2, 159549, Note_on_c, 0, 72, 0
2, 159560, Control_c, 0, 64, 71
2, 159575, Control_c, 0, 64, 82
2, 159583, Note_on_c, 0, 68, 0
2, 159599, Control_c, 0, 64, 107
2, 159602, Note_on_c, 0, 66, 0
2, 159614, Control_c, 0, 64, 127
2, 159986, Note_on_c, 0, 37, 58
2, 160049, Note_on_c, 0, 61, 58
2, 160092, Note_on_c, 0, 65, 70
2, 160136, Note_on_c, 0, 68, 72
2, 160192, Note_on_c, 0, 73, 85
2, 160222, Control_c, 0, 64, 115
2, 160226, Note_on_c, 0, 44, 0
2, 160238, Control_c, 0, 64, 91
2, 160253, Control_c, 0, 64, 79
2, 160267, Control_c, 0, 64, 69
2, 160283, Control_c, 0, 64, 62
2, 160298, Control_c, 0, 64, 46
2, 160314, Control_c, 0, 64, 0
2, 161005, Control_c, 0, 64, 22
2, 161020, Control_c, 0, 64, 36
2, 161036, Control_c, 0, 64, 43
2, 161051, Control_c, 0, 64, 48
2, 161066, Control_c, 0, 64, 52
2, 161081, Control_c, 0, 64, 56
2, 161096, Control_c, 0, 64, 58
2, 161111, Control_c, 0, 64, 61
2, 161134, Control_c, 0, 64, 62
2, 161149, Control_c, 0, 64, 64
2, 161165, Control_c, 0, 64, 65
2, 161179, Control_c, 0, 64, 67
2, 161195, Control_c, 0, 64, 71
2, 161210, Control_c, 0, 64, 74
2, 161225, Control_c, 0, 64, 77
2, 161240, Control_c, 0, 64, 80
2, 161255, Control_c, 0, 64, 84
2, 161270, Control_c, 0, 64, 89
2, 161287, Control_c, 0, 64, 94
2, 161302, Control_c, 0, 64, 100
2, 161318, Control_c, 0, 64, 104
2, 161332, Control_c, 0, 64, 106
2, 161347, Control_c, 0, 64, 108
2, 161363, Control_c, 0, 64, 110
2, 161378, Control_c, 0, 64, 112
2, 161394, Control_c, 0, 64, 115
2, 161408, Control_c, 0, 64, 117
2, 161423, Control_c, 0, 64, 119
2, 161454, Control_c, 0, 64, 121
2, 161531, Control_c, 0, 64, 124
2, 161728, Control_c, 0, 64, 127
2, 162039, Control_c, 0, 64, 124
2, 162054, Control_c, 0, 64, 106
2, 162069, Control_c, 0, 64, 91
2, 162077, Note_on_c, 0, 61, 0
2, 162082, Note_on_c, 0, 65, 0
2, 162084, Control_c, 0, 64, 76
2, 162086, Note_on_c, 0, 73, 0
2, 162092, Note_on_c, 0, 68, 0
2, 162093, Note_on_c, 0, 37, 0
2, 162099, Control_c, 0, 64, 65
2, 162116, Control_c, 0, 64, 47
2, 162131, Control_c, 0, 64, 0
2, 162132, End_track
0, 0, End_of_file
