0, 0, Header, 1, 2, 480
1, 0, Start_track
1, 0, Tempo, 500000
1, 0, Time_signature, 4, 2, 24, 8
1, 1, End_track
2, 0, Start_track
2, 0, Program_c, 0, 0
2, 0, Control_c, 0, 64, 47
2, 126, Control_c, 0, 64, 47
2, 164, Control_c, 0, 64, 46
2, 183, Control_c, 0, 64, 45
2, 202, Control_c, 0, 64, 44
2, 221, Control_c, 0, 64, 43
2, 241, Control_c, 0, 64, 41
2, 260, Control_c, 0, 64, 39
2, 279, Control_c, 0, 64, 37
2, 298, Control_c, 0, 64, 35
2, 315, Control_c, 0, 64, 31
2, 334, Control_c, 0, 64, 25
2, 353, Control_c, 0, 64, 11
2, 372, Control_c, 0, 64, 0
2, 921, Note_on_c, 0, 77, 57
2, 930, Note_on_c, 0, 49, 44
2, 993, Note_on_c, 0, 77, 0
2, 1008, Note_on_c, 0, 73, 61
2, 1060, Note_on_c, 0, 73, 0
2, 1106, Note_on_c, 0, 68, 58
2, 1171, Note_on_c, 0, 68, 0
2, 1197, Note_on_c, 0, 73, 62
2, 1251, Note_on_c, 0, 73, 0
2, 1284, Note_on_c, 0, 77, 61
2, 1289, Note_on_c, 0, 49, 0
2, 1305, Note_on_c, 0, 61, 52
2, 1330, Note_on_c, 0, 77, 0
2, 1348, Note_on_c, 0, 61, 0
2, 1385, Note_on_c, 0, 73, 57
2, 1432, Note_on_c, 0, 73, 0
2, 1484, Note_on_c, 0, 51, 38
2, 1487, Note_on_c, 0, 78, 68
2, 1535, Note_on_c, 0, 78, 0
2, 1583, Note_on_c, 0, 73, 54
2, 1634, Note_on_c, 0, 73, 0
2, 1671, Note_on_c, 0, 78, 73
2, 1729, Note_on_c, 0, 78, 0
2, 1768, Note_on_c, 0, 73, 68
2, 1840, Note_on_c, 0, 73, 0
2, 1847, Note_on_c, 0, 51, 0
2, 1863, Note_on_c, 0, 61, 50
2, 1866, Note_on_c, 0, 78, 77
2, 1905, Note_on_c, 0, 61, 0
2, 1923, Note_on_c, 0, 78, 0
2, 1969, Note_on_c, 0, 73, 67
2, 2019, Note_on_c, 0, 73, 0
2, 2059, Note_on_c, 0, 80, 79
2, 2071, Note_on_c, 0, 53, 48
2, 2105, Note_on_c, 0, 80, 0
2, 2154, Note_on_c, 0, 73, 71
2, 2224, Note_on_c, 0, 73, 0
2, 2243, Note_on_c, 0, 80, 85
2, 2304, Note_on_c, 0, 80, 0
2, 2343, Note_on_c, 0, 73, 76
2, 2408, Note_on_c, 0, 73, 0
2, 2412, Note_on_c, 0, 53, 0
2, 2427, Note_on_c, 0, 80, 89
2, 2433, Note_on_c, 0, 61, 48
2, 2479, Note_on_c, 0, 61, 0
2, 2496, Note_on_c, 0, 80, 0
2, 2529, Note_on_c, 0, 73, 81
2, 2600, Note_on_c, 0, 73, 0
2, 2630, Note_on_c, 0, 82, 87
2, 2636, Note_on_c, 0, 54, 55
2, 2691, Note_on_c, 0, 82, 0
2, 2729, Note_on_c, 0, 73, 79
2, 2801, Note_on_c, 0, 73, 0
2, 2829, Note_on_c, 0, 82, 81
2, 2877, Note_on_c, 0, 82, 0
2, 2927, Note_on_c, 0, 73, 75
2, 2989, Note_on_c, 0, 73, 0
2, 3020, Note_on_c, 0, 82, 74
2, 3028, Note_on_c, 0, 61, 47
2, 3035, Note_on_c, 0, 54, 0
2, 3064, Note_on_c, 0, 82, 0
2, 3078, Note_on_c, 0, 61, 0
2, 3125, Note_on_c, 0, 73, 64
2, 3176, Note_on_c, 0, 73, 0
2, 3220, Note_on_c, 0, 80, 72
2, 3224, Note_on_c, 0, 53, 46
2, 3270, Note_on_c, 0, 80, 0
2, 3313, Note_on_c, 0, 73, 64
2, 3385, Note_on_c, 0, 73, 0
2, 3406, Note_on_c, 0, 80, 70
2, 3465, Note_on_c, 0, 80, 0
2, 3505, Note_on_c, 0, 73, 61
2, 3560, Note_on_c, 0, 73, 0
2, 3570, Note_on_c, 0, 53, 0
2, 3594, Note_on_c, 0, 80, 70
2, 3605, Note_on_c, 0, 61, 42
2, 3636, Note_on_c, 0, 80, 0
2, 3676, Note_on_c, 0, 61, 0
2, 3701, Note_on_c, 0, 73, 57
2, 3768, Note_on_c, 0, 73, 0
2, 3802, Note_on_c, 0, 78, 58
2, 3807, Note_on_c, 0, 51, 44
2, 3910, Note_on_c, 0, 77, 62
2, 3910, Note_on_c, 0, 78, 0
2, 4006, Note_on_c, 0, 77, 0
2, 4007, Note_on_c, 0, 75, 73
2, 4112, Note_on_c, 0, 77, 68
2, 4114, Note_on_c, 0, 75, 0
2, 4174, Note_on_c, 0, 60, 47
2, 4204, Note_on_c, 0, 78, 74
2, 4224, Note_on_c, 0, 51, 0
2, 4228, Note_on_c, 0, 77, 0
2, 4237, Note_on_c, 0, 60, 0
2, 4292, Note_on_c, 0, 78, 0
2, 4305, Note_on_c, 0, 75, 65
2, 4384, Note_on_c, 0, 75, 0
2, 4390, Note_on_c, 0, 77, 74
2, 4402, Note_on_c, 0, 49, 53
2, 4440, Note_on_c, 0, 49, 0
2, 4484, Note_on_c, 0, 77, 0
2, 4487, Note_on_c, 0, 75, 74
2, 4574, Note_on_c, 0, 75, 0
2, 4592, Note_on_c, 0, 73, 72
2, 4687, Note_on_c, 0, 73, 0
2, 4692, Note_on_c, 0, 75, 71
2, 4787, Note_on_c, 0, 61, 63
2, 4787, Note_on_c, 0, 75, 0
2, 4797, Note_on_c, 0, 77, 66
2, 4891, Note_on_c, 0, 73, 63
2, 4891, Note_on_c, 0, 77, 0
2, 4909, Control_c, 0, 64, 46
2, 4928, Control_c, 0, 64, 64
2, 4948, Control_c, 0, 64, 70
2, 4966, Control_c, 0, 64, 79
2, 4978, Note_on_c, 0, 75, 68
2, 4986, Control_c, 0, 64, 95
2, 4987, Note_on_c, 0, 73, 0
2, 5005, Control_c, 0, 64, 127
2, 5072, Note_on_c, 0, 75, 0
2, 5077, Note_on_c, 0, 77, 71
2, 5092, Note_on_c, 0, 61, 0
2, 5139, Control_c, 0, 64, 106
2, 5156, Note_on_c, 0, 60, 55
2, 5159, Control_c, 0, 64, 81
2, 5166, Note_on_c, 0, 75, 75
2, 5172, Note_on_c, 0, 77, 0
2, 5177, Control_c, 0, 64, 66
2, 5197, Control_c, 0, 64, 30
2, 5216, Control_c, 0, 64, 0
2, 5220, Note_on_c, 0, 60, 0
2, 5251, Note_on_c, 0, 58, 60
2, 5254, Note_on_c, 0, 73, 79
2, 5271, Note_on_c, 0, 75, 0
2, 5307, Note_on_c, 0, 58, 0
2, 5316, Note_on_c, 0, 73, 0
2, 5349, Note_on_c, 0, 72, 75
2, 5350, Note_on_c, 0, 56, 61
2, 5429, Note_on_c, 0, 72, 0
2, 5433, Note_on_c, 0, 56, 0
2, 5439, Note_on_c, 0, 70, 76
2, 5448, Note_on_c, 0, 58, 54
2, 5511, Note_on_c, 0, 58, 0
2, 5524, Note_on_c, 0, 68, 76
2, 5524, Note_on_c, 0, 70, 0
2, 5560, Note_on_c, 0, 60, 58
2, 5616, Note_on_c, 0, 60, 0
2, 5643, Note_on_c, 0, 56, 62
2, 5700, Note_on_c, 0, 56, 0
2, 5733, Note_on_c, 0, 51, 57
2, 5819, Note_on_c, 0, 56, 64
2, 5828, Note_on_c, 0, 51, 0
2, 5879, Note_on_c, 0, 68, 0
2, 5880, Note_on_c, 0, 56, 0
2, 5927, Note_on_c, 0, 80, 61
2, 5934, Note_on_c, 0, 60, 60
2, 5955, Note_on_c, 0, 80, 0
2, 5972, Note_on_c, 0, 60, 0
2, 6031, Note_on_c, 0, 56, 59
2, 6083, Note_on_c, 0, 56, 0
2, 6116, Note_on_c, 0, 70, 73
2, 6142, Note_on_c, 0, 61, 50
2, 6196, Note_on_c, 0, 61, 0
2, 6219, Note_on_c, 0, 56, 62
2, 6287, Note_on_c, 0, 56, 0
2, 6326, Note_on_c, 0, 61, 61
2, 6395, Note_on_c, 0, 61, 0
2, 6431, Note_on_c, 0, 56, 63
2, 6470, Note_on_c, 0, 70, 0
2, 6485, Note_on_c, 0, 56, 0
2, 6486, Note_on_c, 0, 80, 70
2, 6521, Note_on_c, 0, 80, 0
2, 6525, Note_on_c, 0, 61, 68
2, 6572, Note_on_c, 0, 61, 0
2, 6615, Note_on_c, 0, 56, 68
2, 6673, Note_on_c, 0, 56, 0
2, 6690, Note_on_c, 0, 72, 80
2, 6711, Note_on_c, 0, 63, 67
2, 6776, Note_on_c, 0, 63, 0
2, 6806, Note_on_c, 0, 56, 73
2, 6867, Note_on_c, 0, 56, 0
2, 6898, Note_on_c, 0, 63, 76
2, 6963, Note_on_c, 0, 63, 0
2, 6993, Note_on_c, 0, 56, 75
2, 7059, Note_on_c, 0, 72, 0
2, 7071, Note_on_c, 0, 56, 0
2, 7083, Note_on_c, 0, 63, 76
2, 7085, Note_on_c, 0, 80, 77
2, 7116, Note_on_c, 0, 80, 0
2, 7168, Note_on_c, 0, 63, 0
2, 7176, Note_on_c, 0, 56, 71
2, 7254, Note_on_c, 0, 56, 0
2, 7282, Note_on_c, 0, 73, 85
2, 7289, Note_on_c, 0, 65, 62
2, 7350, Note_on_c, 0, 65, 0
2, 7380, Note_on_c, 0, 56, 75
2, 7430, Note_on_c, 0, 56, 0
2, 7480, Note_on_c, 0, 65, 67
2, 7532, Note_on_c, 0, 65, 0
2, 7560, Note_on_c, 0, 56, 73
2, 7627, Note_on_c, 0, 56, 0
2, 7660, Note_on_c, 0, 80, 69
2, 7666, Note_on_c, 0, 65, 67
2, 7672, Note_on_c, 0, 73, 0
2, 7698, Note_on_c, 0, 80, 0
2, 7717, Note_on_c, 0, 65, 0
2, 7759, Note_on_c, 0, 56, 73
2, 7831, Note_on_c, 0, 56, 0
2, 7860, Note_on_c, 0, 72, 73
2, 7865, Note_on_c, 0, 63, 68
2, 7922, Note_on_c, 0, 63, 0
2, 7966, Note_on_c, 0, 56, 67
2, 8015, Note_on_c, 0, 56, 0
2, 8057, Note_on_c, 0, 63, 70
2, 8111, Note_on_c, 0, 63, 0
2, 8156, Note_on_c, 0, 56, 66
2, 8205, Note_on_c, 0, 56, 0
2, 8212, Note_on_c, 0, 72, 0
2, 8239, Note_on_c, 0, 80, 64
2, 8255, Note_on_c, 0, 63, 63
2, 8276, Note_on_c, 0, 80, 0
2, 8307, Note_on_c, 0, 63, 0
2, 8336, Note_on_c, 0, 56, 54
2, 8408, Note_on_c, 0, 56, 0
2, 8446, Note_on_c, 0, 61, 62
2, 8446, Note_on_c, 0, 70, 72
2, 8527, Note_on_c, 0, 61, 0
2, 8557, Note_on_c, 0, 60, 60
2, 8622, Note_on_c, 0, 60, 0
2, 8650, Note_on_c, 0, 58, 59
2, 8738, Note_on_c, 0, 58, 0
2, 8748, Note_on_c, 0, 60, 64
2, 8799, Note_on_c, 0, 60, 0
2, 8802, Note_on_c, 0, 70, 0
2, 8832, Note_on_c, 0, 79, 61
2, 8836, Note_on_c, 0, 61, 69
2, 8880, Note_on_c, 0, 79, 0
2, 8904, Note_on_c, 0, 61, 0
2, 8934, Note_on_c, 0, 58, 55
2, 9008, Note_on_c, 0, 58, 0
2, 9017, Note_on_c, 0, 68, 68
2, 9036, Note_on_c, 0, 60, 61
2, 9046, Note_on_c, 0, 68, 0
2, 9088, Note_on_c, 0, 60, 0
2, 9133, Note_on_c, 0, 58, 68
2, 9195, Note_on_c, 0, 58, 0
2, 9229, Note_on_c, 0, 56, 67
2, 9325, Note_on_c, 0, 56, 0
2, 9325, Note_on_c, 0, 58, 66
2, 9377, Note_on_c, 0, 58, 0
2, 9413, Note_on_c, 0, 80, 83
2, 9431, Note_on_c, 0, 60, 62
2, 9504, Note_on_c, 0, 60, 0
2, 9518, Note_on_c, 0, 56, 66
2, 9609, Note_on_c, 0, 58, 68
2, 9625, Note_on_c, 0, 56, 0
2, 9683, Note_on_c, 0, 58, 0
2, 9712, Note_on_c, 0, 59, 74
2, 9773, Note_on_c, 0, 59, 0
2, 9808, Note_on_c, 0, 58, 64
2, 9813, Note_on_c, 0, 78, 74
2, 9857, Note_on_c, 0, 80, 0
2, 9880, Note_on_c, 0, 58, 0
2, 9884, Note_on_c, 0, 56, 67
2, 9890, Note_on_c, 0, 78, 0
2, 9911, Note_on_c, 0, 77, 76
2, 9980, Note_on_c, 0, 77, 0
2, 9984, Note_on_c, 0, 75, 75
2, 10006, Note_on_c, 0, 54, 60
2, 10023, Note_on_c, 0, 56, 0
2, 10066, Note_on_c, 0, 54, 0
2, 10083, Note_on_c, 0, 75, 0
2, 10098, Note_on_c, 0, 77, 64
2, 10105, Note_on_c, 0, 53, 57
2, 10181, Note_on_c, 0, 53, 0
2, 10196, Note_on_c, 0, 78, 62
2, 10208, Note_on_c, 0, 51, 58
2, 10224, Note_on_c, 0, 77, 0
2, 10299, Note_on_c, 0, 75, 70
2, 10303, Note_on_c, 0, 78, 0
2, 10347, Note_on_c, 0, 75, 0
2, 10383, Note_on_c, 0, 70, 66
2, 10481, Note_on_c, 0, 70, 0
2, 10488, Note_on_c, 0, 75, 66
2, 10574, Note_on_c, 0, 75, 0
2, 10575, Note_on_c, 0, 78, 71
2, 10578, Note_on_c, 0, 51, 0
2, 10580, Note_on_c, 0, 63, 52
2, 10615, Note_on_c, 0, 63, 0
2, 10637, Note_on_c, 0, 78, 0
2, 10673, Note_on_c, 0, 75, 64
2, 10739, Note_on_c, 0, 75, 0
2, 10762, Note_on_c, 0, 53, 47
2, 10778, Note_on_c, 0, 80, 74
2, 10831, Note_on_c, 0, 80, 0
2, 10876, Note_on_c, 0, 75, 64
2, 10924, Note_on_c, 0, 75, 0
2, 10961, Note_on_c, 0, 80, 80
2, 11030, Note_on_c, 0, 80, 0
2, 11056, Note_on_c, 0, 75, 77
2, 11126, Note_on_c, 0, 75, 0
2, 11132, Note_on_c, 0, 53, 0
2, 11146, Note_on_c, 0, 63, 52
2, 11149, Note_on_c, 0, 80, 85
2, 11200, Note_on_c, 0, 63, 0
2, 11220, Note_on_c, 0, 80, 0
2, 11250, Note_on_c, 0, 75, 80
2, 11321, Note_on_c, 0, 75, 0
2, 11341, Note_on_c, 0, 54, 48
2, 11344, Note_on_c, 0, 82, 87
2, 11412, Note_on_c, 0, 82, 0
2, 11439, Note_on_c, 0, 75, 84
2, 11514, Note_on_c, 0, 75, 0
2, 11529, Note_on_c, 0, 82, 91
2, 11609, Note_on_c, 0, 82, 0
2, 11626, Note_on_c, 0, 75, 83
2, 11702, Note_on_c, 0, 75, 0
2, 11712, Note_on_c, 0, 63, 54
2, 11713, Note_on_c, 0, 54, 0
2, 11718, Note_on_c, 0, 82, 94
2, 11758, Note_on_c, 0, 63, 0
2, 11790, Note_on_c, 0, 82, 0
2, 11814, Note_on_c, 0, 75, 83
2, 11893, Note_on_c, 0, 75, 0
2, 11908, Note_on_c, 0, 56, 56
2, 11919, Note_on_c, 0, 83, 92
2, 11983, Note_on_c, 0, 83, 0
2, 12012, Note_on_c, 0, 75, 84
2, 12088, Note_on_c, 0, 75, 0
2, 12113, Note_on_c, 0, 83, 85
2, 12186, Note_on_c, 0, 83, 0
2, 12213, Note_on_c, 0, 75, 82
2, 12286, Note_on_c, 0, 63, 44
2, 12288, Note_on_c, 0, 75, 0
2, 12301, Note_on_c, 0, 56, 0
2, 12314, Note_on_c, 0, 83, 81
2, 12325, Note_on_c, 0, 63, 0
2, 12385, Note_on_c, 0, 83, 0
2, 12414, Note_on_c, 0, 75, 72
2, 12483, Note_on_c, 0, 75, 0
2, 12493, Note_on_c, 0, 54, 52
2, 12513, Note_on_c, 0, 82, 78
2, 12586, Note_on_c, 0, 82, 0
2, 12609, Note_on_c, 0, 75, 71
2, 12674, Note_on_c, 0, 75, 0
2, 12697, Note_on_c, 0, 82, 74
2, 12751, Note_on_c, 0, 82, 0
2, 12799, Note_on_c, 0, 75, 66
2, 12846, Note_on_c, 0, 75, 0
2, 12884, Note_on_c, 0, 82, 73
2, 12903, Note_on_c, 0, 63, 44
2, 12906, Note_on_c, 0, 54, 0
2, 12936, Note_on_c, 0, 82, 0
2, 12963, Note_on_c, 0, 63, 0
2, 12979, Note_on_c, 0, 75, 66
2, 13053, Note_on_c, 0, 75, 0
2, 13080, Note_on_c, 0, 80, 69
2, 13096, Note_on_c, 0, 53, 42
2, 13175, Note_on_c, 0, 78, 69
2, 13193, Note_on_c, 0, 80, 0
2, 13254, Note_on_c, 0, 78, 0
2, 13269, Note_on_c, 0, 77, 74
2, 13358, Note_on_c, 0, 77, 0
2, 13368, Note_on_c, 0, 78, 72
2, 13463, Note_on_c, 0, 78, 0
2, 13463, Note_on_c, 0, 80, 76
2, 13482, Note_on_c, 0, 62, 47
2, 13499, Note_on_c, 0, 53, 0
2, 13514, Note_on_c, 0, 62, 0
2, 13531, Note_on_c, 0, 80, 0
2, 13560, Note_on_c, 0, 77, 67
2, 13643, Note_on_c, 0, 77, 0
2, 13656, Note_on_c, 0, 78, 70
2, 13662, Note_on_c, 0, 51, 52
2, 13696, Note_on_c, 0, 51, 0
2, 13761, Note_on_c, 0, 77, 67
2, 13771, Note_on_c, 0, 78, 0
2, 13842, Note_on_c, 0, 77, 0
2, 13859, Note_on_c, 0, 75, 73
2, 13953, Note_on_c, 0, 75, 0
2, 13968, Note_on_c, 0, 77, 62
2, 14054, Note_on_c, 0, 78, 72
2, 14058, Note_on_c, 0, 63, 66
2, 14094, Note_on_c, 0, 77, 0
2, 14146, Note_on_c, 0, 78, 0
2, 14156, Note_on_c, 0, 75, 74
2, 14164, Control_c, 0, 64, 25
2, 14183, Control_c, 0, 64, 57
2, 14203, Control_c, 0, 64, 65
2, 14222, Control_c, 0, 64, 71
2, 14241, Control_c, 0, 64, 82
2, 14249, Note_on_c, 0, 77, 72
2, 14260, Control_c, 0, 64, 102
2, 14262, Note_on_c, 0, 75, 0
2, 14280, Control_c, 0, 64, 127
2, 14288, Note_on_c, 0, 63, 0
2, 14348, Note_on_c, 0, 78, 68
2, 14371, Note_on_c, 0, 77, 0
2, 14425, Note_on_c, 0, 78, 0
2, 14439, Note_on_c, 0, 61, 53
2, 14446, Note_on_c, 0, 77, 66
2, 14471, Control_c, 0, 64, 121
2, 14488, Note_on_c, 0, 61, 0
2, 14491, Control_c, 0, 64, 91
2, 14509, Control_c, 0, 64, 77
2, 14527, Note_on_c, 0, 75, 75
2, 14529, Control_c, 0, 64, 68
2, 14543, Note_on_c, 0, 77, 0
2, 14548, Control_c, 0, 64, 61
2, 14553, Note_on_c, 0, 60, 62
2, 14568, Control_c, 0, 64, 48
2, 14586, Control_c, 0, 64, 35
2, 14604, Note_on_c, 0, 60, 0
2, 14606, Control_c, 0, 64, 18
2, 14613, Note_on_c, 0, 73, 79
2, 14625, Control_c, 0, 64, 0
2, 14644, Note_on_c, 0, 75, 0
2, 14646, Note_on_c, 0, 58, 56
2, 14694, Note_on_c, 0, 73, 0
2, 14707, Note_on_c, 0, 72, 78
2, 14712, Note_on_c, 0, 58, 0
2, 14735, Note_on_c, 0, 60, 56
2, 14790, Note_on_c, 0, 60, 0
2, 14792, Note_on_c, 0, 72, 0
2, 14810, Note_on_c, 0, 70, 78
2, 14822, Note_on_c, 0, 61, 61
2, 14886, Note_on_c, 0, 61, 0
2, 14912, Note_on_c, 0, 58, 64
2, 14976, Note_on_c, 0, 58, 0
2, 15020, Note_on_c, 0, 53, 52
2, 15084, Note_on_c, 0, 53, 0
2, 15105, Note_on_c, 0, 58, 57
2, 15165, Note_on_c, 0, 70, 0
2, 15171, Note_on_c, 0, 58, 0
2, 15202, Note_on_c, 0, 82, 68
2, 15203, Note_on_c, 0, 61, 56
2, 15238, Note_on_c, 0, 82, 0
2, 15279, Note_on_c, 0, 61, 0
2, 15305, Note_on_c, 0, 58, 51
2, 15364, Note_on_c, 0, 58, 0
2, 15389, Note_on_c, 0, 72, 74
2, 15401, Note_on_c, 0, 63, 56
2, 15467, Note_on_c, 0, 63, 0
2, 15491, Note_on_c, 0, 58, 56
2, 15558, Note_on_c, 0, 58, 0
2, 15603, Note_on_c, 0, 63, 66
2, 15656, Note_on_c, 0, 63, 0
2, 15699, Note_on_c, 0, 58, 57
2, 15754, Note_on_c, 0, 72, 0
2, 15757, Note_on_c, 0, 58, 0
2, 15787, Note_on_c, 0, 63, 66
2, 15789, Note_on_c, 0, 82, 70
2, 15826, Note_on_c, 0, 82, 0
2, 15843, Note_on_c, 0, 63, 0
2, 15868, Note_on_c, 0, 58, 71
2, 15939, Note_on_c, 0, 58, 0
2, 15977, Note_on_c, 0, 73, 80
2, 15995, Note_on_c, 0, 65, 53
2, 16047, Note_on_c, 0, 65, 0
2, 16082, Note_on_c, 0, 58, 69
2, 16136, Note_on_c, 0, 58, 0
2, 16169, Note_on_c, 0, 65, 69
2, 16229, Note_on_c, 0, 65, 0
2, 16262, Note_on_c, 0, 58, 73
2, 16328, Note_on_c, 0, 58, 0
2, 16357, Note_on_c, 0, 65, 74
2, 16371, Note_on_c, 0, 73, 0
2, 16371, Note_on_c, 0, 82, 82
2, 16409, Note_on_c, 0, 82, 0
2, 16418, Note_on_c, 0, 65, 0
2, 16461, Note_on_c, 0, 58, 67
2, 16547, Note_on_c, 0, 58, 0
2, 16561, Note_on_c, 0, 75, 88
2, 16574, Note_on_c, 0, 66, 74
2, 16633, Note_on_c, 0, 66, 0
2, 16682, Note_on_c, 0, 58, 63
2, 16730, Note_on_c, 0, 58, 0
2, 16771, Note_on_c, 0, 66, 67
2, 16825, Note_on_c, 0, 66, 0
2, 16850, Note_on_c, 0, 58, 66
2, 16915, Note_on_c, 0, 58, 0
2, 16957, Note_on_c, 0, 66, 71
2, 16967, Note_on_c, 0, 82, 66
2, 16972, Note_on_c, 0, 75, 0
2, 17002, Note_on_c, 0, 82, 0
2, 17019, Note_on_c, 0, 66, 0
2, 17058, Note_on_c, 0, 58, 64
2, 17120, Note_on_c, 0, 58, 0
2, 17154, Note_on_c, 0, 73, 68
2, 17166, Note_on_c, 0, 65, 63
2, 17225, Note_on_c, 0, 65, 0
2, 17268, Note_on_c, 0, 58, 66
2, 17311, Note_on_c, 0, 58, 0
2, 17358, Note_on_c, 0, 65, 65
2, 17406, Note_on_c, 0, 65, 0
2, 17445, Note_on_c, 0, 58, 60
2, 17490, Note_on_c, 0, 58, 0
2, 17537, Note_on_c, 0, 82, 58
2, 17538, Note_on_c, 0, 65, 60
2, 17538, Note_on_c, 0, 73, 0
2, 17577, Note_on_c, 0, 82, 0
2, 17581, Note_on_c, 0, 65, 0
2, 17632, Note_on_c, 0, 58, 59
2, 17702, Note_on_c, 0, 58, 0
2, 17706, Note_on_c, 0, 72, 66
2, 17736, Note_on_c, 0, 63, 67
2, 17791, Note_on_c, 0, 63, 0
2, 17822, Note_on_c, 0, 61, 66
2, 17891, Note_on_c, 0, 61, 0
2, 17919, Note_on_c, 0, 60, 50
2, 18011, Note_on_c, 0, 60, 0
2, 18020, Note_on_c, 0, 61, 62
2, 18073, Note_on_c, 0, 61, 0
2, 18075, Note_on_c, 0, 72, 0
2, 18100, Note_on_c, 0, 63, 62
2, 18107, Note_on_c, 0, 81, 63
2, 18142, Note_on_c, 0, 81, 0
2, 18143, Note_on_c, 0, 63, 0
2, 18168, Note_on_c, 0, 60, 61
2, 18220, Note_on_c, 0, 60, 0
2, 18270, Note_on_c, 0, 61, 68
2, 18295, Note_on_c, 0, 70, 67
2, 18324, Note_on_c, 0, 61, 0
2, 18331, Note_on_c, 0, 70, 0
2, 18355, Note_on_c, 0, 60, 64
2, 18448, Note_on_c, 0, 60, 0
2, 18459, Note_on_c, 0, 58, 62
2, 18569, Note_on_c, 0, 60, 61
2, 18578, Note_on_c, 0, 58, 0
2, 18627, Note_on_c, 0, 60, 0
2, 18662, Note_on_c, 0, 82, 100
2, 18665, Note_on_c, 0, 61, 69
2, 18754, Note_on_c, 0, 58, 61
2, 18757, Note_on_c, 0, 61, 0
2, 18873, Note_on_c, 0, 58, 0
2, 18891, Note_on_c, 0, 64, 64
2, 18978, Note_on_c, 0, 64, 0
2, 18992, Note_on_c, 0, 62, 69
2, 19063, Note_on_c, 0, 62, 0
2, 19082, Note_on_c, 0, 80, 82
2, 19088, Note_on_c, 0, 60, 67
2, 19102, Note_on_c, 0, 82, 0
2, 19110, Note_on_c, 0, 80, 0
2, 19178, Note_on_c, 0, 60, 0
2, 19186, Note_on_c, 0, 62, 69
2, 19224, Note_on_c, 0, 62, 0
2, 19270, Note_on_c, 0, 64, 67
2, 19282, Note_on_c, 0, 79, 83
2, 19314, Note_on_c, 0, 79, 0
2, 19326, Note_on_c, 0, 64, 0
2, 19363, Note_on_c, 0, 60, 69
2, 19433, Note_on_c, 0, 60, 0
2, 19469, Note_on_c, 0, 65, 65
2, 19477, Note_on_c, 0, 80, 84
2, 19508, Note_on_c, 0, 80, 0
2, 19533, Note_on_c, 0, 65, 0
2, 19561, Note_on_c, 0, 64, 68
2, 19623, Note_on_c, 0, 64, 0
2, 19663, Note_on_c, 0, 65, 76
2, 19668, Note_on_c, 0, 68, 74
2, 19721, Note_on_c, 0, 68, 0
2, 19749, Note_on_c, 0, 65, 0
2, 19773, Note_on_c, 0, 67, 66
2, 19822, Note_on_c, 0, 67, 0
2, 19860, Note_on_c, 0, 80, 97
2, 19870, Note_on_c, 0, 65, 72
2, 19941, Note_on_c, 0, 65, 0
2, 19970, Note_on_c, 0, 63, 72
2, 20042, Note_on_c, 0, 63, 0
2, 20070, Note_on_c, 0, 62, 73
2, 20147, Note_on_c, 0, 62, 0
2, 20175, Note_on_c, 0, 60, 66
2, 20247, Note_on_c, 0, 60, 0
2, 20265, Note_on_c, 0, 58, 66
2, 20268, Note_on_c, 0, 78, 82
2, 20297, Note_on_c, 0, 78, 0
2, 20298, Note_on_c, 0, 80, 0
2, 20383, Note_on_c, 0, 60, 67
2, 20393, Note_on_c, 0, 58, 0
2, 20431, Note_on_c, 0, 60, 0
2, 20462, Note_on_c, 0, 62, 66
2, 20478, Note_on_c, 0, 77, 71
2, 20510, Note_on_c, 0, 62, 0
2, 20515, Note_on_c, 0, 77, 0
2, 20568, Note_on_c, 0, 58, 54
2, 20653, Note_on_c, 0, 63, 75
2, 20663, Note_on_c, 0, 58, 0
2, 20666, Note_on_c, 0, 78, 74
2, 20687, Note_on_c, 0, 63, 0
2, 20764, Note_on_c, 0, 78, 0
2, 20770, Note_on_c, 0, 77, 69
2, 20841, Note_on_c, 0, 77, 0
2, 20846, Note_on_c, 0, 51, 61
2, 20863, Note_on_c, 0, 75, 75
2, 20885, Note_on_c, 0, 51, 0
2, 20944, Note_on_c, 0, 75, 0
2, 20971, Note_on_c, 0, 77, 68
2, 21036, Note_on_c, 0, 63, 76
2, 21059, Note_on_c, 0, 78, 72
2, 21060, Note_on_c, 0, 77, 0
2, 21123, Note_on_c, 0, 78, 0
2, 21145, Note_on_c, 0, 75, 70
2, 21214, Note_on_c, 0, 75, 0
2, 21253, Note_on_c, 0, 81, 86
2, 21341, Note_on_c, 0, 79, 84
2, 21348, Note_on_c, 0, 81, 0
2, 21416, Note_on_c, 0, 79, 0
2, 21427, Note_on_c, 0, 77, 80
2, 21452, Note_on_c, 0, 63, 0
2, 21455, Note_on_c, 0, 61, 62
2, 21492, Note_on_c, 0, 61, 0
2, 21526, Note_on_c, 0, 79, 86
2, 21527, Note_on_c, 0, 77, 0
2, 21624, Note_on_c, 0, 81, 82
2, 21638, Note_on_c, 0, 60, 63
2, 21647, Note_on_c, 0, 79, 0
2, 21672, Note_on_c, 0, 60, 0
2, 21693, Note_on_c, 0, 81, 0
2, 21719, Note_on_c, 0, 77, 78
2, 21804, Note_on_c, 0, 77, 0
2, 21821, Note_on_c, 0, 82, 81
2, 21828, Note_on_c, 0, 61, 65
2, 21862, Note_on_c, 0, 61, 0
2, 21893, Note_on_c, 0, 82, 0
2, 21919, Note_on_c, 0, 81, 78
2, 22002, Note_on_c, 0, 81, 0
2, 22017, Note_on_c, 0, 49, 57
2, 22019, Note_on_c, 0, 82, 77
2, 22065, Note_on_c, 0, 49, 0
2, 22111, Note_on_c, 0, 82, 0
2, 22116, Note_on_c, 0, 84, 75
2, 22219, Note_on_c, 0, 61, 54
2, 22222, Note_on_c, 0, 82, 83
2, 22223, Note_on_c, 0, 84, 0
2, 22312, Note_on_c, 0, 80, 81
2, 22367, Note_on_c, 0, 82, 0
2, 22413, Note_on_c, 0, 79, 74
2, 22429, Note_on_c, 0, 80, 0
2, 22430, Note_on_c, 0, 77, 61
2, 22457, Note_on_c, 0, 77, 0
2, 22474, Note_on_c, 0, 79, 0
2, 22510, Note_on_c, 0, 77, 82
2, 22556, Note_on_c, 0, 61, 0
2, 22600, Note_on_c, 0, 75, 90
2, 22606, Note_on_c, 0, 60, 45
2, 22606, Note_on_c, 0, 77, 0
2, 22640, Note_on_c, 0, 60, 0
2, 22704, Note_on_c, 0, 77, 71
2, 22706, Note_on_c, 0, 75, 0
2, 22793, Note_on_c, 0, 58, 54
2, 22799, Note_on_c, 0, 79, 76
2, 22805, Note_on_c, 0, 77, 0
2, 22831, Note_on_c, 0, 58, 0
2, 22875, Note_on_c, 0, 79, 0
2, 22886, Note_on_c, 0, 75, 66
2, 22946, Note_on_c, 0, 75, 0
2, 22982, Note_on_c, 0, 80, 81
2, 22989, Note_on_c, 0, 60, 53
2, 23012, Note_on_c, 0, 80, 0
2, 23048, Note_on_c, 0, 60, 0
2, 23086, Note_on_c, 0, 58, 61
2, 23161, Note_on_c, 0, 58, 0
2, 23178, Note_on_c, 0, 68, 68
2, 23181, Note_on_c, 0, 56, 61
2, 23210, Note_on_c, 0, 68, 0
2, 23287, Note_on_c, 0, 58, 60
2, 23295, Note_on_c, 0, 56, 0
2, 23331, Note_on_c, 0, 58, 0
2, 23370, Note_on_c, 0, 80, 91
2, 23373, Note_on_c, 0, 60, 65
2, 23439, Note_on_c, 0, 60, 0
2, 23464, Note_on_c, 0, 56, 64
2, 23565, Note_on_c, 0, 56, 0
2, 23581, Note_on_c, 0, 62, 63
2, 23645, Note_on_c, 0, 62, 0
2, 23689, Note_on_c, 0, 60, 61
2, 23745, Note_on_c, 0, 60, 0
2, 23779, Note_on_c, 0, 78, 75
2, 23782, Note_on_c, 0, 58, 55
2, 23805, Note_on_c, 0, 80, 0
2, 23809, Note_on_c, 0, 78, 0
2, 23884, Note_on_c, 0, 60, 60
2, 23888, Note_on_c, 0, 58, 0
2, 23936, Note_on_c, 0, 60, 0
2, 23972, Note_on_c, 0, 77, 73
2, 23979, Note_on_c, 0, 62, 61
2, 24011, Note_on_c, 0, 77, 0
2, 24045, Note_on_c, 0, 62, 0
2, 24063, Note_on_c, 0, 58, 56
2, 24128, Note_on_c, 0, 58, 0
2, 24175, Note_on_c, 0, 63, 60
2, 24177, Note_on_c, 0, 78, 76
2, 24208, Note_on_c, 0, 78, 0
2, 24228, Note_on_c, 0, 63, 0
2, 24282, Note_on_c, 0, 62, 60
2, 24336, Note_on_c, 0, 62, 0
2, 24366, Note_on_c, 0, 63, 70
2, 24366, Note_on_c, 0, 66, 55
2, 24406, Note_on_c, 0, 66, 0
2, 24445, Note_on_c, 0, 63, 0
2, 24476, Note_on_c, 0, 65, 68
2, 24542, Note_on_c, 0, 65, 0
2, 24559, Note_on_c, 0, 78, 86
2, 24577, Note_on_c, 0, 63, 66
2, 24665, Note_on_c, 0, 61, 69
2, 24674, Note_on_c, 0, 63, 0
2, 24731, Note_on_c, 0, 61, 0
2, 24768, Note_on_c, 0, 60, 72
2, 24839, Note_on_c, 0, 60, 0
2, 24859, Note_on_c, 0, 58, 69
2, 24933, Note_on_c, 0, 58, 0
2, 24950, Note_on_c, 0, 56, 70
2, 24959, Note_on_c, 0, 77, 72
2, 24966, Note_on_c, 0, 78, 0
2, 24995, Note_on_c, 0, 77, 0
2, 25045, Note_on_c, 0, 56, 0
2, 25058, Note_on_c, 0, 58, 67
2, 25104, Note_on_c, 0, 58, 0
2, 25145, Note_on_c, 0, 60, 64
2, 25159, Note_on_c, 0, 75, 77
2, 25192, Note_on_c, 0, 75, 0
2, 25199, Note_on_c, 0, 60, 0
2, 25252, Note_on_c, 0, 56, 61
2, 25337, Note_on_c, 0, 56, 0
2, 25353, Note_on_c, 0, 77, 69
2, 25365, Note_on_c, 0, 61, 62
2, 25399, Note_on_c, 0, 61, 0
2, 25439, Note_on_c, 0, 77, 0
2, 25449, Note_on_c, 0, 75, 68
2, 25533, Note_on_c, 0, 75, 0
2, 25548, Note_on_c, 0, 73, 67
2, 25551, Note_on_c, 0, 49, 58
2, 25592, Note_on_c, 0, 49, 0
2, 25647, Note_on_c, 0, 75, 69
2, 25649, Note_on_c, 0, 73, 0
2, 25742, Note_on_c, 0, 61, 62
2, 25743, Note_on_c, 0, 75, 0
2, 25747, Note_on_c, 0, 77, 68
2, 25840, Note_on_c, 0, 77, 0
2, 25855, Note_on_c, 0, 73, 74
2, 25953, Note_on_c, 0, 79, 84
2, 25955, Note_on_c, 0, 73, 0
2, 26047, Note_on_c, 0, 77, 78
2, 26059, Note_on_c, 0, 79, 0
2, 26136, Note_on_c, 0, 59, 46
2, 26139, Note_on_c, 0, 61, 0
2, 26140, Note_on_c, 0, 75, 81
2, 26143, Note_on_c, 0, 77, 0
2, 26170, Note_on_c, 0, 59, 0
2, 26236, Note_on_c, 0, 77, 81
2, 26256, Note_on_c, 0, 75, 0
2, 26335, Note_on_c, 0, 79, 83
2, 26340, Note_on_c, 0, 77, 0
2, 26341, Note_on_c, 0, 58, 46
2, 26373, Note_on_c, 0, 58, 0
2, 26423, Note_on_c, 0, 75, 79
2, 26426, Note_on_c, 0, 79, 0
2, 26522, Note_on_c, 0, 80, 83
2, 26533, Note_on_c, 0, 75, 0
2, 26544, Note_on_c, 0, 59, 53
2, 26583, Note_on_c, 0, 59, 0
2, 26597, Note_on_c, 0, 80, 0
2, 26614, Note_on_c, 0, 79, 79
2, 26709, Note_on_c, 0, 80, 77
2, 26714, Note_on_c, 0, 79, 0
2, 26734, Note_on_c, 0, 47, 41
2, 26772, Note_on_c, 0, 47, 0
2, 26804, Note_on_c, 0, 80, 0
2, 26812, Note_on_c, 0, 82, 78
2, 26912, Note_on_c, 0, 80, 78
2, 26932, Note_on_c, 0, 59, 52
2, 26962, Note_on_c, 0, 82, 0
2, 27011, Note_on_c, 0, 78, 74
2, 27043, Note_on_c, 0, 80, 0
2, 27093, Note_on_c, 0, 78, 0
2, 27106, Note_on_c, 0, 77, 69
2, 27193, Note_on_c, 0, 77, 0
2, 27208, Note_on_c, 0, 75, 72
2, 27293, Note_on_c, 0, 75, 0
2, 27302, Note_on_c, 0, 59, 0
2, 27305, Note_on_c, 0, 73, 68
2, 27325, Note_on_c, 0, 58, 41
2, 27359, Note_on_c, 0, 58, 0
2, 27413, Note_on_c, 0, 73, 0
2, 27422, Note_on_c, 0, 75, 64
2, 27510, Note_on_c, 0, 56, 51
2, 27513, Note_on_c, 0, 75, 0
2, 27538, Note_on_c, 0, 77, 48
2, 27547, Note_on_c, 0, 56, 0
2, 27592, Note_on_c, 0, 77, 0
2, 27604, Note_on_c, 0, 73, 53
2, 27704, Note_on_c, 0, 73, 0
2, 27714, Note_on_c, 0, 58, 35
2, 27716, Note_on_c, 0, 66, 54
2, 27769, Note_on_c, 0, 58, 0
2, 27802, Note_on_c, 0, 54, 49
2, 27865, Note_on_c, 0, 54, 0
2, 27914, Note_on_c, 0, 49, 45
2, 27983, Note_on_c, 0, 54, 55
2, 27984, Note_on_c, 0, 49, 0
2, 28059, Note_on_c, 0, 54, 0
2, 28061, Note_on_c, 0, 66, 0
2, 28101, Note_on_c, 0, 78, 51
2, 28106, Note_on_c, 0, 58, 51
2, 28131, Note_on_c, 0, 78, 0
2, 28175, Note_on_c, 0, 58, 0
2, 28206, Note_on_c, 0, 54, 53
2, 28266, Note_on_c, 0, 54, 0
2, 28295, Note_on_c, 0, 68, 62
2, 28322, Note_on_c, 0, 59, 51
2, 28374, Note_on_c, 0, 59, 0
2, 28395, Note_on_c, 0, 54, 60
2, 28458, Note_on_c, 0, 54, 0
2, 28503, Note_on_c, 0, 59, 63
2, 28566, Note_on_c, 0, 59, 0
2, 28601, Note_on_c, 0, 54, 60
2, 28644, Note_on_c, 0, 68, 0
2, 28655, Note_on_c, 0, 54, 0
2, 28672, Note_on_c, 0, 78, 63
2, 28695, Note_on_c, 0, 59, 66
2, 28707, Note_on_c, 0, 78, 0
2, 28741, Note_on_c, 0, 59, 0
2, 28780, Note_on_c, 0, 54, 68
2, 28852, Note_on_c, 0, 54, 0
2, 28866, Note_on_c, 0, 70, 80
2, 28889, Note_on_c, 0, 61, 66
2, 28946, Note_on_c, 0, 61, 0
2, 28986, Note_on_c, 0, 54, 67
2, 29035, Note_on_c, 0, 54, 0
2, 29072, Note_on_c, 0, 61, 68
2, 29132, Note_on_c, 0, 61, 0
2, 29157, Note_on_c, 0, 54, 71
2, 29217, Note_on_c, 0, 54, 0
2, 29255, Note_on_c, 0, 61, 71
2, 29259, Note_on_c, 0, 78, 63
2, 29265, Note_on_c, 0, 70, 0
2, 29295, Note_on_c, 0, 78, 0
2, 29327, Note_on_c, 0, 61, 0
2, 29353, Note_on_c, 0, 54, 67
2, 29415, Note_on_c, 0, 54, 0
2, 29448, Note_on_c, 0, 71, 75
2, 29464, Note_on_c, 0, 63, 65
2, 29523, Note_on_c, 0, 63, 0
2, 29557, Note_on_c, 0, 54, 66
2, 29609, Note_on_c, 0, 54, 0
2, 29658, Note_on_c, 0, 63, 65
2, 29723, Note_on_c, 0, 63, 0
2, 29748, Note_on_c, 0, 54, 62
2, 29812, Note_on_c, 0, 54, 0
2, 29829, Note_on_c, 0, 71, 0
2, 29843, Note_on_c, 0, 78, 63
2, 29858, Note_on_c, 0, 63, 65
2, 29877, Note_on_c, 0, 78, 0
2, 29913, Note_on_c, 0, 63, 0
2, 29951, Note_on_c, 0, 54, 64
2, 30006, Note_on_c, 0, 54, 0
2, 30033, Note_on_c, 0, 70, 72
2, 30046, Note_on_c, 0, 61, 62
2, 30102, Note_on_c, 0, 61, 0
2, 30139, Note_on_c, 0, 54, 63
2, 30199, Note_on_c, 0, 54, 0
2, 30233, Note_on_c, 0, 61, 66
2, 30293, Note_on_c, 0, 61, 0
2, 30342, Note_on_c, 0, 54, 61
2, 30395, Note_on_c, 0, 54, 0
2, 30423, Note_on_c, 0, 61, 66
2, 30429, Note_on_c, 0, 70, 0
2, 30430, Note_on_c, 0, 78, 58
2, 30467, Note_on_c, 0, 78, 0
2, 30498, Note_on_c, 0, 61, 0
2, 30517, Note_on_c, 0, 54, 58
2, 30604, Note_on_c, 0, 54, 0
2, 30614, Note_on_c, 0, 68, 69
2, 30640, Note_on_c, 0, 59, 62
2, 30692, Note_on_c, 0, 59, 0
2, 30716, Note_on_c, 0, 58, 62
2, 30766, Note_on_c, 0, 58, 0
2, 30809, Note_on_c, 0, 56, 70
2, 30888, Note_on_c, 0, 56, 0
2, 30906, Note_on_c, 0, 58, 53
2, 30950, Note_on_c, 0, 68, 0
2, 30953, Note_on_c, 0, 58, 0
2, 30978, Note_on_c, 0, 59, 67
2, 30985, Note_on_c, 0, 77, 54
2, 31031, Note_on_c, 0, 77, 0
2, 31040, Note_on_c, 0, 59, 0
2, 31072, Note_on_c, 0, 56, 64
2, 31142, Note_on_c, 0, 56, 0
2, 31170, Note_on_c, 0, 66, 58
2, 31171, Note_on_c, 0, 58, 66
2, 31208, Note_on_c, 0, 66, 0
2, 31225, Note_on_c, 0, 58, 0
2, 31278, Note_on_c, 0, 54, 63
2, 31362, Note_on_c, 0, 56, 67
2, 31367, Note_on_c, 0, 54, 0
2, 31488, Note_on_c, 0, 56, 0
2, 31491, Note_on_c, 0, 58, 53
2, 31578, Note_on_c, 0, 78, 77
2, 31688, Note_on_c, 0, 58, 0
2, 31725, Note_on_c, 0, 54, 53
2, 31858, Note_on_c, 0, 54, 0
2, 31881, Note_on_c, 0, 56, 58
2, 31904, Control_c, 0, 64, 15
2, 31924, Control_c, 0, 64, 35
2, 31936, Note_on_c, 0, 56, 0
2, 31942, Control_c, 0, 64, 46
2, 31962, Control_c, 0, 64, 57
2, 31967, Note_on_c, 0, 58, 66
2, 31981, Control_c, 0, 64, 64
2, 32000, Control_c, 0, 64, 68
2, 32016, Note_on_c, 0, 78, 0
2, 32019, Control_c, 0, 64, 72
2, 32028, Note_on_c, 0, 58, 0
2, 32038, Control_c, 0, 64, 74
2, 32056, Note_on_c, 0, 56, 63
2, 32058, Control_c, 0, 64, 74
2, 32076, Control_c, 0, 64, 75
2, 32096, Control_c, 0, 64, 76
2, 32115, Control_c, 0, 64, 77
2, 32120, Note_on_c, 0, 77, 29
2, 32134, Control_c, 0, 64, 79
2, 32147, Note_on_c, 0, 54, 70
2, 32153, Control_c, 0, 64, 79
2, 32157, Note_on_c, 0, 56, 0
2, 32173, Control_c, 0, 64, 80
2, 32187, Note_on_c, 0, 54, 0
2, 32192, Control_c, 0, 64, 79
2, 32211, Control_c, 0, 64, 79
2, 32230, Control_c, 0, 64, 78
2, 32230, Note_on_c, 0, 75, 73
2, 32235, Note_on_c, 0, 77, 0
2, 32257, Note_on_c, 0, 53, 59
2, 32268, Control_c, 0, 64, 78
2, 32288, Control_c, 0, 64, 76
2, 32299, Note_on_c, 0, 75, 0
2, 32307, Control_c, 0, 64, 74
2, 32307, Note_on_c, 0, 53, 0
2, 32326, Note_on_c, 0, 73, 68
2, 32327, Control_c, 0, 64, 72
2, 32345, Control_c, 0, 64, 71
2, 32365, Control_c, 0, 64, 70
2, 32370, Note_on_c, 0, 51, 38
2, 32381, Note_on_c, 0, 73, 0
2, 32384, Control_c, 0, 64, 67
2, 32404, Control_c, 0, 64, 63
2, 32406, Note_on_c, 0, 51, 0
2, 32415, Note_on_c, 0, 49, 57
2, 32422, Control_c, 0, 64, 60
2, 32429, Note_on_c, 0, 75, 40
2, 32442, Control_c, 0, 64, 59
2, 32461, Control_c, 0, 64, 58
2, 32467, Note_on_c, 0, 75, 0
2, 32480, Control_c, 0, 64, 53
2, 32481, Note_on_c, 0, 77, 67
2, 32499, Control_c, 0, 64, 39
2, 32518, Control_c, 0, 64, 0
2, 32569, Note_on_c, 0, 77, 0
2, 32582, Note_on_c, 0, 73, 61
2, 32627, Note_on_c, 0, 73, 0
2, 32663, Note_on_c, 0, 68, 65
2, 32746, Note_on_c, 0, 68, 0
2, 32764, Note_on_c, 0, 73, 62
2, 32827, Note_on_c, 0, 49, 0
2, 32828, Note_on_c, 0, 73, 0
2, 32856, Note_on_c, 0, 77, 60
2, 32862, Note_on_c, 0, 61, 45
2, 32897, Note_on_c, 0, 61, 0
2, 32900, Note_on_c, 0, 77, 0
2, 32957, Note_on_c, 0, 73, 60
2, 33004, Note_on_c, 0, 73, 0
2, 33031, Note_on_c, 0, 51, 39
2, 33053, Note_on_c, 0, 78, 69
2, 33109, Note_on_c, 0, 78, 0
2, 33149, Note_on_c, 0, 73, 60
2, 33221, Note_on_c, 0, 73, 0
2, 33243, Note_on_c, 0, 78, 74
2, 33312, Note_on_c, 0, 78, 0
2, 33346, Note_on_c, 0, 73, 71
2, 33404, Note_on_c, 0, 51, 0
2, 33413, Note_on_c, 0, 73, 0
2, 33425, Note_on_c, 0, 61, 36
2, 33441, Note_on_c, 0, 78, 78
2, 33468, Note_on_c, 0, 61, 0
2, 33504, Note_on_c, 0, 78, 0
2, 33542, Note_on_c, 0, 73, 73
2, 33610, Note_on_c, 0, 53, 49
2, 33611, Note_on_c, 0, 73, 0
2, 33642, Note_on_c, 0, 80, 83
2, 33702, Note_on_c, 0, 80, 0
2, 33737, Note_on_c, 0, 73, 79
2, 33815, Note_on_c, 0, 73, 0
2, 33828, Note_on_c, 0, 80, 86
2, 33898, Note_on_c, 0, 80, 0
2, 33928, Note_on_c, 0, 73, 84
2, 33978, Note_on_c, 0, 53, 0
2, 34001, Note_on_c, 0, 61, 48
2, 34012, Note_on_c, 0, 73, 0
2, 34020, Note_on_c, 0, 80, 89
2, 34050, Note_on_c, 0, 61, 0
2, 34088, Note_on_c, 0, 80, 0
2, 34124, Note_on_c, 0, 73, 87
2, 34209, Note_on_c, 0, 73, 0
2, 34210, Note_on_c, 0, 54, 52
2, 34223, Note_on_c, 0, 82, 90
2, 34287, Note_on_c, 0, 82, 0
2, 34320, Note_on_c, 0, 73, 87
2, 34398, Note_on_c, 0, 73, 0
2, 34414, Note_on_c, 0, 82, 85
2, 34475, Note_on_c, 0, 82, 0
2, 34512, Note_on_c, 0, 73, 79
2, 34584, Note_on_c, 0, 73, 0
2, 34598, Note_on_c, 0, 61, 42
2, 34607, Note_on_c, 0, 54, 0
2, 34610, Note_on_c, 0, 82, 79
2, 34658, Note_on_c, 0, 82, 0
2, 34660, Note_on_c, 0, 61, 0
2, 34713, Note_on_c, 0, 73, 65
2, 34768, Note_on_c, 0, 73, 0
2, 34793, Note_on_c, 0, 53, 44
2, 34804, Note_on_c, 0, 80, 78
2, 34849, Note_on_c, 0, 80, 0
2, 34899, Note_on_c, 0, 73, 67
2, 34969, Note_on_c, 0, 73, 0
2, 34986, Note_on_c, 0, 80, 70
2, 35049, Note_on_c, 0, 80, 0
2, 35090, Note_on_c, 0, 73, 61
2, 35160, Note_on_c, 0, 53, 0
2, 35161, Note_on_c, 0, 73, 0
2, 35189, Note_on_c, 0, 80, 69
2, 35193, Note_on_c, 0, 61, 34
2, 35241, Note_on_c, 0, 80, 0
2, 35259, Note_on_c, 0, 61, 0
2, 35310, Note_on_c, 0, 73, 56
2, 35391, Note_on_c, 0, 51, 45
2, 35404, Note_on_c, 0, 78, 55
2, 35408, Note_on_c, 0, 73, 0
2, 35498, Note_on_c, 0, 77, 65
2, 35503, Note_on_c, 0, 78, 0
2, 35578, Note_on_c, 0, 77, 0
2, 35587, Note_on_c, 0, 75, 74
2, 35667, Note_on_c, 0, 78, 73
2, 35681, Note_on_c, 0, 75, 0
2, 35763, Note_on_c, 0, 77, 30
2, 35772, Note_on_c, 0, 60, 39
2, 35795, Note_on_c, 0, 77, 0
2, 35807, Note_on_c, 0, 51, 0
2, 35811, Note_on_c, 0, 60, 0
2, 35855, Note_on_c, 0, 78, 0
2, 35868, Note_on_c, 0, 75, 65
2, 35913, Note_on_c, 0, 75, 0
2, 35953, Note_on_c, 0, 77, 58
2, 35967, Note_on_c, 0, 49, 54
2, 36044, Note_on_c, 0, 75, 75
2, 36057, Note_on_c, 0, 77, 0
2, 36091, Control_c, 0, 64, 52
2, 36109, Control_c, 0, 64, 62
2, 36127, Note_on_c, 0, 75, 0
2, 36129, Control_c, 0, 64, 65
2, 36140, Note_on_c, 0, 73, 70
2, 36148, Control_c, 0, 64, 67
2, 36168, Control_c, 0, 64, 70
2, 36184, Note_on_c, 0, 49, 0
2, 36186, Control_c, 0, 64, 73
2, 36206, Control_c, 0, 64, 74
2, 36225, Control_c, 0, 64, 73
2, 36231, Note_on_c, 0, 75, 72
2, 36237, Note_on_c, 0, 73, 0
2, 36244, Control_c, 0, 64, 69
2, 36263, Control_c, 0, 64, 65
2, 36283, Control_c, 0, 64, 58
2, 36302, Control_c, 0, 64, 45
2, 36309, Note_on_c, 0, 75, 0
2, 36321, Control_c, 0, 64, 0
2, 36330, Note_on_c, 0, 61, 59
2, 36335, Note_on_c, 0, 77, 71
2, 36365, Note_on_c, 0, 61, 0
2, 36423, Note_on_c, 0, 77, 0
2, 36434, Note_on_c, 0, 73, 62
2, 36514, Note_on_c, 0, 73, 0
2, 36529, Note_on_c, 0, 75, 68
2, 36536, Note_on_c, 0, 54, 54
2, 36575, Note_on_c, 0, 54, 0
2, 36589, Note_on_c, 0, 75, 0
2, 36631, Note_on_c, 0, 77, 60
2, 36717, Note_on_c, 0, 77, 0
2, 36725, Note_on_c, 0, 75, 67
2, 36729, Note_on_c, 0, 53, 51
2, 36767, Note_on_c, 0, 53, 0
2, 36813, Note_on_c, 0, 75, 0
2, 36816, Note_on_c, 0, 73, 64
2, 36872, Note_on_c, 0, 73, 0
2, 36899, Note_on_c, 0, 72, 63
2, 36915, Note_on_c, 0, 51, 55
2, 36958, Note_on_c, 0, 51, 0
2, 36969, Note_on_c, 0, 72, 0
2, 36997, Note_on_c, 0, 70, 70
2, 37060, Note_on_c, 0, 70, 0
2, 37109, Note_on_c, 0, 72, 65
2, 37110, Note_on_c, 0, 56, 51
2, 37145, Note_on_c, 0, 56, 0
2, 37159, Note_on_c, 0, 72, 0
2, 37199, Note_on_c, 0, 68, 60
2, 37233, Note_on_c, 0, 68, 0
2, 37298, Note_on_c, 0, 66, 48
2, 37333, Note_on_c, 0, 66, 0
2, 37388, Note_on_c, 0, 68, 64
2, 37424, Note_on_c, 0, 68, 0
2, 37504, Note_on_c, 0, 63, 32
2, 37544, Note_on_c, 0, 63, 0
2, 37568, Note_on_c, 0, 68, 57
2, 37617, Note_on_c, 0, 68, 0
2, 37681, Note_on_c, 0, 56, 54
2, 37690, Note_on_c, 0, 72, 59
2, 37721, Note_on_c, 0, 56, 0
2, 37749, Note_on_c, 0, 72, 0
2, 37773, Note_on_c, 0, 68, 60
2, 37809, Note_on_c, 0, 68, 0
2, 37865, Note_on_c, 0, 66, 51
2, 37910, Note_on_c, 0, 66, 0
2, 37973, Note_on_c, 0, 68, 62
2, 38016, Note_on_c, 0, 68, 0
2, 38061, Note_on_c, 0, 63, 47
2, 38095, Note_on_c, 0, 63, 0
2, 38170, Note_on_c, 0, 68, 59
2, 38214, Note_on_c, 0, 68, 0
2, 38248, Note_on_c, 0, 56, 56
2, 38274, Note_on_c, 0, 73, 60
2, 38288, Note_on_c, 0, 56, 0
2, 38335, Note_on_c, 0, 73, 0
2, 38374, Note_on_c, 0, 68, 51
2, 38410, Note_on_c, 0, 68, 0
2, 38455, Note_on_c, 0, 65, 43
2, 38487, Note_on_c, 0, 65, 0
2, 38546, Note_on_c, 0, 68, 59
2, 38589, Note_on_c, 0, 68, 0
2, 38647, Note_on_c, 0, 61, 50
2, 38678, Note_on_c, 0, 61, 0
2, 38735, Note_on_c, 0, 68, 62
2, 38781, Note_on_c, 0, 68, 0
2, 38838, Note_on_c, 0, 56, 57
2, 38842, Note_on_c, 0, 73, 65
2, 38878, Note_on_c, 0, 56, 0
2, 38903, Note_on_c, 0, 73, 0
2, 38944, Note_on_c, 0, 68, 57
2, 38985, Note_on_c, 0, 68, 0
2, 39043, Note_on_c, 0, 65, 43
2, 39074, Note_on_c, 0, 65, 0
2, 39134, Note_on_c, 0, 68, 58
2, 39180, Note_on_c, 0, 68, 0
2, 39244, Note_on_c, 0, 61, 48
2, 39277, Note_on_c, 0, 61, 0
2, 39327, Note_on_c, 0, 68, 57
2, 39358, Note_on_c, 0, 68, 0
2, 39436, Note_on_c, 0, 56, 64
2, 39443, Note_on_c, 0, 78, 68
2, 39473, Note_on_c, 0, 56, 0
2, 39482, Note_on_c, 0, 78, 0
2, 39521, Note_on_c, 0, 68, 62
2, 39559, Note_on_c, 0, 68, 0
2, 39648, Note_on_c, 0, 63, 50
2, 39686, Note_on_c, 0, 63, 0
2, 39722, Note_on_c, 0, 68, 58
2, 39756, Note_on_c, 0, 68, 0
2, 39843, Note_on_c, 0, 60, 48
2, 39881, Note_on_c, 0, 60, 0
2, 39933, Note_on_c, 0, 68, 58
2, 39977, Note_on_c, 0, 68, 0
2, 40036, Note_on_c, 0, 78, 70
2, 40042, Note_on_c, 0, 56, 55
2, 40078, Note_on_c, 0, 56, 0
2, 40098, Note_on_c, 0, 78, 0
2, 40138, Note_on_c, 0, 68, 59
2, 40173, Note_on_c, 0, 68, 0
2, 40242, Note_on_c, 0, 63, 47
2, 40285, Note_on_c, 0, 63, 0
2, 40324, Note_on_c, 0, 68, 55
2, 40369, Note_on_c, 0, 68, 0
2, 40416, Note_on_c, 0, 60, 44
2, 40451, Note_on_c, 0, 60, 0
2, 40516, Note_on_c, 0, 68, 59
2, 40570, Note_on_c, 0, 68, 0
2, 40618, Note_on_c, 0, 56, 57
2, 40618, Note_on_c, 0, 77, 63
2, 40656, Note_on_c, 0, 56, 0
2, 40679, Note_on_c, 0, 77, 0
2, 40719, Note_on_c, 0, 68, 60
2, 40755, Note_on_c, 0, 68, 0
2, 40814, Note_on_c, 0, 65, 52
2, 40847, Note_on_c, 0, 65, 0
2, 40905, Note_on_c, 0, 68, 56
2, 40945, Note_on_c, 0, 68, 0
2, 41000, Note_on_c, 0, 61, 62
2, 41033, Note_on_c, 0, 61, 0
2, 41088, Note_on_c, 0, 68, 60
2, 41147, Note_on_c, 0, 68, 0
2, 41195, Note_on_c, 0, 56, 71
2, 41195, Note_on_c, 0, 77, 71
2, 41235, Note_on_c, 0, 56, 0
2, 41262, Note_on_c, 0, 77, 0
2, 41293, Note_on_c, 0, 68, 67
2, 41324, Note_on_c, 0, 68, 0
2, 41400, Note_on_c, 0, 65, 56
2, 41437, Note_on_c, 0, 65, 0
2, 41484, Note_on_c, 0, 68, 66
2, 41523, Note_on_c, 0, 68, 0
2, 41579, Note_on_c, 0, 61, 67
2, 41611, Note_on_c, 0, 61, 0
2, 41676, Note_on_c, 0, 68, 76
2, 41729, Note_on_c, 0, 68, 0
2, 41774, Note_on_c, 0, 56, 74
2, 41780, Note_on_c, 0, 79, 81
2, 41815, Note_on_c, 0, 56, 0
2, 41868, Note_on_c, 0, 79, 0
2, 41888, Note_on_c, 0, 70, 74
2, 41926, Note_on_c, 0, 70, 0
2, 41987, Note_on_c, 0, 64, 63
2, 42022, Note_on_c, 0, 64, 0
2, 42065, Note_on_c, 0, 70, 70
2, 42113, Note_on_c, 0, 70, 0
2, 42172, Note_on_c, 0, 61, 79
2, 42207, Note_on_c, 0, 61, 0
2, 42254, Note_on_c, 0, 70, 77
2, 42317, Note_on_c, 0, 70, 0
2, 42355, Note_on_c, 0, 79, 87
2, 42368, Note_on_c, 0, 56, 83
2, 42406, Note_on_c, 0, 56, 0
2, 42433, Note_on_c, 0, 79, 0
2, 42467, Note_on_c, 0, 70, 77
2, 42500, Note_on_c, 0, 70, 0
2, 42557, Note_on_c, 0, 64, 78
2, 42597, Note_on_c, 0, 64, 0
2, 42649, Note_on_c, 0, 70, 70
2, 42697, Note_on_c, 0, 70, 0
2, 42735, Note_on_c, 0, 61, 72
2, 42773, Note_on_c, 0, 61, 0
2, 42825, Note_on_c, 0, 70, 75
2, 42882, Note_on_c, 0, 70, 0
2, 42922, Note_on_c, 0, 80, 92
2, 42923, Note_on_c, 0, 56, 79
2, 42963, Note_on_c, 0, 56, 0
2, 43037, Note_on_c, 0, 80, 0
2, 43046, Note_on_c, 0, 72, 65
2, 43082, Note_on_c, 0, 72, 0
2, 43128, Note_on_c, 0, 63, 69
2, 43167, Note_on_c, 0, 63, 0
2, 43223, Note_on_c, 0, 72, 66
2, 43270, Note_on_c, 0, 72, 0
2, 43313, Note_on_c, 0, 60, 71
2, 43352, Note_on_c, 0, 60, 0
2, 43415, Note_on_c, 0, 72, 80
2, 43486, Note_on_c, 0, 72, 0
2, 43510, Note_on_c, 0, 80, 95
2, 43515, Note_on_c, 0, 54, 79
2, 43553, Note_on_c, 0, 54, 0
2, 43620, Note_on_c, 0, 72, 81
2, 43639, Note_on_c, 0, 80, 0
2, 43656, Note_on_c, 0, 72, 0
2, 43719, Note_on_c, 0, 63, 67
2, 43763, Note_on_c, 0, 63, 0
2, 43816, Note_on_c, 0, 72, 73
2, 43859, Note_on_c, 0, 72, 0
2, 43901, Note_on_c, 0, 60, 61
2, 43937, Note_on_c, 0, 60, 0
2, 43997, Note_on_c, 0, 72, 69
2, 44047, Note_on_c, 0, 72, 0
2, 44104, Note_on_c, 0, 80, 68
2, 44107, Note_on_c, 0, 53, 45
2, 44133, Control_c, 0, 64, 55
2, 44144, Note_on_c, 0, 53, 0
2, 44151, Control_c, 0, 64, 66
2, 44171, Control_c, 0, 64, 72
2, 44190, Control_c, 0, 64, 79
2, 44209, Control_c, 0, 64, 82
2, 44209, Note_on_c, 0, 73, 70
2, 44215, Note_on_c, 0, 80, 0
2, 44228, Control_c, 0, 64, 82
2, 44248, Control_c, 0, 64, 81
2, 44253, Note_on_c, 0, 73, 0
2, 44267, Control_c, 0, 64, 76
2, 44286, Control_c, 0, 64, 70
2, 44293, Note_on_c, 0, 65, 57
2, 44305, Control_c, 0, 64, 65
2, 44325, Control_c, 0, 64, 63
2, 44325, Note_on_c, 0, 65, 0
2, 44343, Control_c, 0, 64, 59
2, 44363, Control_c, 0, 64, 54
2, 44382, Control_c, 0, 64, 43
2, 44394, Note_on_c, 0, 68, 63
2, 44402, Control_c, 0, 64, 0
2, 44429, Note_on_c, 0, 68, 0
2, 44482, Note_on_c, 0, 61, 77
2, 44516, Note_on_c, 0, 61, 0
2, 44585, Note_on_c, 0, 73, 82
2, 44639, Note_on_c, 0, 73, 0
2, 44670, Note_on_c, 0, 56, 82
2, 44723, Note_on_c, 0, 56, 0
2, 44764, Note_on_c, 0, 77, 85
2, 44824, Note_on_c, 0, 77, 0
2, 44857, Note_on_c, 0, 53, 83
2, 44900, Note_on_c, 0, 53, 0
2, 44953, Note_on_c, 0, 80, 90
2, 45020, Note_on_c, 0, 80, 0
2, 45050, Note_on_c, 0, 51, 77
2, 45090, Note_on_c, 0, 51, 0
2, 45134, Note_on_c, 0, 82, 80
2, 45208, Note_on_c, 0, 82, 0
2, 45228, Note_on_c, 0, 83, 76
2, 45254, Note_on_c, 0, 50, 62
2, 45300, Note_on_c, 0, 50, 0
2, 45331, Note_on_c, 0, 83, 0
2, 45333, Note_on_c, 0, 82, 81
2, 45421, Note_on_c, 0, 80, 82
2, 45433, Note_on_c, 0, 53, 62
2, 45476, Note_on_c, 0, 53, 0
2, 45488, Note_on_c, 0, 82, 0
2, 45515, Note_on_c, 0, 78, 79
2, 45551, Note_on_c, 0, 80, 0
2, 45600, Note_on_c, 0, 78, 0
2, 45614, Note_on_c, 0, 77, 83
2, 45616, Note_on_c, 0, 58, 53
2, 45650, Note_on_c, 0, 58, 0
2, 45708, Note_on_c, 0, 75, 89
2, 45720, Note_on_c, 0, 77, 0
2, 45800, Note_on_c, 0, 62, 63
2, 45803, Note_on_c, 0, 75, 0
2, 45813, Note_on_c, 0, 77, 89
2, 45842, Note_on_c, 0, 62, 0
2, 45905, Note_on_c, 0, 78, 89
2, 45923, Note_on_c, 0, 77, 0
2, 45992, Note_on_c, 0, 65, 60
2, 45998, Note_on_c, 0, 80, 88
2, 46025, Note_on_c, 0, 65, 0
2, 46044, Note_on_c, 0, 78, 0
2, 46099, Note_on_c, 0, 83, 82
2, 46106, Note_on_c, 0, 80, 0
2, 46182, Note_on_c, 0, 68, 67
2, 46201, Note_on_c, 0, 82, 81
2, 46213, Note_on_c, 0, 68, 0
2, 46222, Note_on_c, 0, 83, 0
2, 46291, Note_on_c, 0, 80, 80
2, 46311, Note_on_c, 0, 82, 0
2, 46392, Note_on_c, 0, 66, 59
2, 46392, Note_on_c, 0, 82, 84
2, 46413, Note_on_c, 0, 80, 0
2, 46430, Note_on_c, 0, 66, 0
2, 46488, Note_on_c, 0, 75, 79
2, 46492, Note_on_c, 0, 82, 0
2, 46535, Note_on_c, 0, 75, 0
2, 46574, Note_on_c, 0, 63, 66
2, 46610, Note_on_c, 0, 63, 0
2, 46679, Note_on_c, 0, 66, 61
2, 46731, Note_on_c, 0, 66, 0
2, 46770, Note_on_c, 0, 58, 57
2, 46804, Note_on_c, 0, 58, 0
2, 46864, Note_on_c, 0, 70, 71
2, 46902, Note_on_c, 0, 70, 0
2, 46963, Note_on_c, 0, 54, 61
2, 47001, Note_on_c, 0, 54, 0
2, 47047, Note_on_c, 0, 75, 68
2, 47085, Note_on_c, 0, 75, 0
2, 47157, Note_on_c, 0, 51, 54
2, 47195, Note_on_c, 0, 51, 0
2, 47236, Note_on_c, 0, 78, 69
2, 47289, Note_on_c, 0, 78, 0
2, 47334, Note_on_c, 0, 49, 64
2, 47373, Note_on_c, 0, 49, 0
2, 47453, Note_on_c, 0, 80, 59
2, 47523, Note_on_c, 0, 80, 0
2, 47535, Note_on_c, 0, 81, 69
2, 47536, Note_on_c, 0, 48, 39
2, 47577, Note_on_c, 0, 48, 0
2, 47638, Note_on_c, 0, 81, 0
2, 47643, Note_on_c, 0, 80, 73
2, 47716, Note_on_c, 0, 51, 38
2, 47727, Note_on_c, 0, 78, 74
2, 47753, Note_on_c, 0, 51, 0
2, 47754, Note_on_c, 0, 80, 0
2, 47800, Note_on_c, 0, 78, 0
2, 47822, Note_on_c, 0, 76, 76
2, 47890, Note_on_c, 0, 56, 56
2, 47911, Note_on_c, 0, 76, 0
2, 47912, Note_on_c, 0, 75, 79
2, 47928, Note_on_c, 0, 56, 0
2, 48003, Note_on_c, 0, 75, 0
2, 48015, Note_on_c, 0, 73, 76
2, 48096, Note_on_c, 0, 60, 53
2, 48107, Note_on_c, 0, 75, 75
2, 48112, Note_on_c, 0, 73, 0
2, 48135, Note_on_c, 0, 60, 0
2, 48173, Note_on_c, 0, 75, 0
2, 48206, Note_on_c, 0, 76, 74
2, 48276, Note_on_c, 0, 63, 60
2, 48288, Note_on_c, 0, 78, 82
2, 48289, Note_on_c, 0, 76, 0
2, 48314, Note_on_c, 0, 63, 0
2, 48378, Note_on_c, 0, 81, 81
2, 48385, Note_on_c, 0, 78, 0
2, 48477, Note_on_c, 0, 80, 79
2, 48483, Note_on_c, 0, 81, 0
2, 48494, Note_on_c, 0, 66, 43
2, 48527, Note_on_c, 0, 66, 0
2, 48557, Note_on_c, 0, 78, 76
2, 48576, Note_on_c, 0, 80, 0
2, 48653, Note_on_c, 0, 80, 89
2, 48667, Note_on_c, 0, 78, 0
2, 48675, Note_on_c, 0, 64, 68
2, 48715, Note_on_c, 0, 64, 0
2, 48752, Note_on_c, 0, 80, 0
2, 48753, Note_on_c, 0, 73, 73
2, 48790, Note_on_c, 0, 73, 0
2, 48854, Note_on_c, 0, 61, 75
2, 48889, Note_on_c, 0, 61, 0
2, 48946, Note_on_c, 0, 76, 77
2, 48990, Note_on_c, 0, 76, 0
2, 49045, Note_on_c, 0, 57, 73
2, 49078, Note_on_c, 0, 57, 0
2, 49136, Note_on_c, 0, 73, 80
2, 49197, Note_on_c, 0, 73, 0
2, 49232, Note_on_c, 0, 54, 75
2, 49273, Note_on_c, 0, 54, 0
2, 49314, Note_on_c, 0, 69, 78
2, 49347, Note_on_c, 0, 69, 0
2, 49410, Note_on_c, 0, 63, 76
2, 49455, Note_on_c, 0, 63, 0
2, 49500, Note_on_c, 0, 66, 76
2, 49548, Note_on_c, 0, 66, 0
2, 49598, Note_on_c, 0, 60, 83
2, 49635, Note_on_c, 0, 60, 0
2, 49707, Note_on_c, 0, 75, 85
2, 49760, Note_on_c, 0, 75, 0
2, 49785, Note_on_c, 0, 52, 78
2, 49821, Note_on_c, 0, 52, 0
2, 49893, Note_on_c, 0, 68, 82
2, 49940, Note_on_c, 0, 68, 0
2, 49979, Note_on_c, 0, 61, 77
2, 50017, Note_on_c, 0, 61, 0
2, 50072, Note_on_c, 0, 64, 74
2, 50130, Note_on_c, 0, 64, 0
2, 50172, Note_on_c, 0, 57, 71
2, 50207, Note_on_c, 0, 57, 0
2, 50263, Note_on_c, 0, 73, 71
2, 50301, Note_on_c, 0, 73, 0
2, 50360, Note_on_c, 0, 54, 74
2, 50394, Note_on_c, 0, 54, 0
2, 50455, Note_on_c, 0, 69, 71
2, 50496, Note_on_c, 0, 69, 0
2, 50537, Note_on_c, 0, 51, 63
2, 50578, Note_on_c, 0, 51, 0
2, 50654, Note_on_c, 0, 66, 64
2, 50692, Note_on_c, 0, 66, 0
2, 50720, Note_on_c, 0, 48, 62
2, 50760, Note_on_c, 0, 48, 0
2, 50836, Note_on_c, 0, 63, 54
2, 50876, Note_on_c, 0, 63, 0
2, 50917, Note_on_c, 0, 44, 66
2, 50929, Note_on_c, 0, 60, 60
2, 50964, Note_on_c, 0, 44, 0
2, 50988, Note_on_c, 0, 60, 0
2, 51030, Note_on_c, 0, 56, 54
2, 51061, Note_on_c, 0, 56, 0
2, 51121, Note_on_c, 0, 54, 58
2, 51162, Note_on_c, 0, 54, 0
2, 51220, Note_on_c, 0, 56, 54
2, 51269, Note_on_c, 0, 56, 0
2, 51304, Note_on_c, 0, 51, 52
2, 51336, Note_on_c, 0, 51, 0
2, 51404, Note_on_c, 0, 56, 53
2, 51450, Note_on_c, 0, 56, 0
2, 51490, Note_on_c, 0, 44, 57
2, 51515, Note_on_c, 0, 60, 59
2, 51534, Note_on_c, 0, 44, 0
2, 51568, Note_on_c, 0, 60, 0
2, 51612, Note_on_c, 0, 56, 47
2, 51651, Note_on_c, 0, 56, 0
2, 51690, Note_on_c, 0, 54, 53
2, 51726, Note_on_c, 0, 54, 0
2, 51790, Note_on_c, 0, 56, 54
2, 51835, Note_on_c, 0, 56, 0
2, 51884, Note_on_c, 0, 51, 52
2, 51923, Note_on_c, 0, 51, 0
2, 51989, Note_on_c, 0, 56, 53
2, 52051, Note_on_c, 0, 56, 0
2, 52078, Note_on_c, 0, 44, 60
2, 52102, Note_on_c, 0, 61, 59
2, 52122, Note_on_c, 0, 44, 0
2, 52156, Note_on_c, 0, 61, 0
2, 52195, Note_on_c, 0, 56, 56
2, 52237, Note_on_c, 0, 56, 0
2, 52288, Note_on_c, 0, 53, 52
2, 52330, Note_on_c, 0, 53, 0
2, 52379, Note_on_c, 0, 56, 54
2, 52422, Note_on_c, 0, 56, 0
2, 52480, Note_on_c, 0, 49, 55
2, 52515, Note_on_c, 0, 49, 0
2, 52555, Note_on_c, 0, 56, 61
2, 52609, Note_on_c, 0, 56, 0
2, 52672, Note_on_c, 0, 44, 65
2, 52674, Note_on_c, 0, 61, 64
2, 52709, Note_on_c, 0, 44, 0
2, 52729, Note_on_c, 0, 61, 0
2, 52766, Note_on_c, 0, 56, 53
2, 52808, Note_on_c, 0, 56, 0
2, 52876, Note_on_c, 0, 53, 49
2, 52909, Note_on_c, 0, 53, 0
2, 52955, Note_on_c, 0, 56, 45
2, 53010, Note_on_c, 0, 56, 0
2, 53065, Note_on_c, 0, 49, 56
2, 53104, Note_on_c, 0, 49, 0
2, 53160, Note_on_c, 0, 56, 40
2, 53211, Note_on_c, 0, 56, 0
2, 53269, Note_on_c, 0, 44, 50
2, 53275, Note_on_c, 0, 66, 52
2, 53315, Note_on_c, 0, 44, 0
2, 53320, Note_on_c, 0, 66, 0
2, 53355, Note_on_c, 0, 56, 54
2, 53397, Note_on_c, 0, 56, 0
2, 53475, Note_on_c, 0, 51, 45
2, 53513, Note_on_c, 0, 51, 0
2, 53553, Note_on_c, 0, 56, 54
2, 53595, Note_on_c, 0, 56, 0
2, 53660, Note_on_c, 0, 48, 56
2, 53702, Note_on_c, 0, 48, 0
2, 53745, Note_on_c, 0, 56, 59
2, 53806, Note_on_c, 0, 56, 0
2, 53861, Note_on_c, 0, 66, 65
2, 53867, Note_on_c, 0, 44, 54
2, 53910, Note_on_c, 0, 44, 0
2, 53927, Note_on_c, 0, 66, 0
2, 53969, Note_on_c, 0, 56, 55
2, 54008, Note_on_c, 0, 56, 0
2, 54061, Note_on_c, 0, 51, 48
2, 54103, Note_on_c, 0, 51, 0
2, 54165, Note_on_c, 0, 56, 56
2, 54210, Note_on_c, 0, 56, 0
2, 54244, Note_on_c, 0, 48, 57
2, 54287, Note_on_c, 0, 48, 0
2, 54351, Note_on_c, 0, 56, 62
2, 54412, Note_on_c, 0, 56, 0
2, 54447, Note_on_c, 0, 44, 57
2, 54453, Note_on_c, 0, 65, 64
2, 54491, Note_on_c, 0, 44, 0
2, 54527, Note_on_c, 0, 65, 0
2, 54566, Note_on_c, 0, 56, 52
2, 54599, Note_on_c, 0, 56, 0
2, 54644, Note_on_c, 0, 53, 56
2, 54684, Note_on_c, 0, 53, 0
2, 54733, Note_on_c, 0, 56, 56
2, 54784, Note_on_c, 0, 56, 0
2, 54831, Note_on_c, 0, 49, 66
2, 54871, Note_on_c, 0, 49, 0
2, 54908, Note_on_c, 0, 56, 67
2, 54981, Note_on_c, 0, 56, 0
2, 55014, Note_on_c, 0, 65, 68
2, 55026, Note_on_c, 0, 44, 67
2, 55066, Note_on_c, 0, 44, 0
2, 55092, Note_on_c, 0, 65, 0
2, 55130, Note_on_c, 0, 56, 57
2, 55170, Note_on_c, 0, 56, 0
2, 55212, Note_on_c, 0, 53, 69
2, 55249, Note_on_c, 0, 53, 0
2, 55296, Note_on_c, 0, 56, 66
2, 55350, Note_on_c, 0, 56, 0
2, 55394, Note_on_c, 0, 49, 76
2, 55433, Note_on_c, 0, 49, 0
2, 55480, Note_on_c, 0, 56, 75
2, 55551, Note_on_c, 0, 56, 0
2, 55584, Note_on_c, 0, 67, 75
2, 55595, Note_on_c, 0, 44, 69
2, 55640, Note_on_c, 0, 44, 0
2, 55672, Note_on_c, 0, 67, 0
2, 55691, Note_on_c, 0, 58, 61
2, 55731, Note_on_c, 0, 58, 0
2, 55788, Note_on_c, 0, 52, 63
2, 55830, Note_on_c, 0, 52, 0
2, 55864, Note_on_c, 0, 58, 55
2, 55932, Note_on_c, 0, 58, 0
2, 55971, Note_on_c, 0, 49, 72
2, 56007, Note_on_c, 0, 49, 0
2, 56054, Note_on_c, 0, 58, 72
2, 56116, Note_on_c, 0, 58, 0
2, 56158, Note_on_c, 0, 67, 76
2, 56159, Note_on_c, 0, 44, 76
2, 56208, Note_on_c, 0, 44, 0
2, 56245, Note_on_c, 0, 67, 0
2, 56261, Note_on_c, 0, 58, 69
2, 56310, Note_on_c, 0, 58, 0
2, 56360, Note_on_c, 0, 52, 58
2, 56399, Note_on_c, 0, 52, 0
2, 56450, Note_on_c, 0, 58, 60
2, 56489, Note_on_c, 0, 58, 0
2, 56531, Note_on_c, 0, 49, 64
2, 56572, Note_on_c, 0, 49, 0
2, 56638, Note_on_c, 0, 58, 55
2, 56678, Note_on_c, 0, 58, 0
2, 56741, Note_on_c, 0, 44, 54
2, 56839, Note_on_c, 0, 48, 57
2, 56861, Control_c, 0, 64, 35
2, 56880, Control_c, 0, 64, 59
2, 56899, Control_c, 0, 64, 64
2, 56918, Control_c, 0, 64, 67
2, 56938, Control_c, 0, 64, 70
2, 56938, Note_on_c, 0, 51, 67
2, 56945, Note_on_c, 0, 44, 0
2, 56957, Control_c, 0, 64, 76
2, 56959, Note_on_c, 0, 48, 0
2, 56976, Control_c, 0, 64, 88
2, 56995, Control_c, 0, 64, 118
2, 56998, Note_on_c, 0, 51, 0
2, 57015, Control_c, 0, 64, 127
2, 57019, Note_on_c, 0, 54, 70
2, 57122, Note_on_c, 0, 57, 74
2, 57146, Note_on_c, 0, 54, 0
2, 57234, Note_on_c, 0, 60, 74
2, 57258, Note_on_c, 0, 57, 0
2, 57285, Note_on_c, 0, 60, 0
2, 57305, Note_on_c, 0, 61, 73
2, 57398, Control_c, 0, 64, 111
2, 57402, Note_on_c, 0, 64, 79
2, 57418, Control_c, 0, 64, 83
2, 57437, Control_c, 0, 64, 69
2, 57456, Control_c, 0, 64, 56
2, 57475, Control_c, 0, 64, 0
2, 57495, Note_on_c, 0, 67, 77
2, 57563, Note_on_c, 0, 64, 0
2, 57573, Note_on_c, 0, 70, 86
2, 57584, Note_on_c, 0, 67, 0
2, 57635, Note_on_c, 0, 61, 0
2, 57673, Note_on_c, 0, 73, 83
2, 57713, Note_on_c, 0, 70, 0
2, 57765, Note_on_c, 0, 76, 76
2, 57809, Note_on_c, 0, 73, 0
2, 57852, Note_on_c, 0, 76, 0
2, 57853, Note_on_c, 0, 44, 63
2, 57874, Note_on_c, 0, 72, 76
2, 57960, Note_on_c, 0, 75, 82
2, 57978, Note_on_c, 0, 72, 0
2, 58031, Control_c, 0, 64, 28
2, 58051, Control_c, 0, 64, 58
2, 58054, Note_on_c, 0, 78, 82
2, 58061, Note_on_c, 0, 75, 0
2, 58069, Control_c, 0, 64, 67
2, 58089, Control_c, 0, 64, 76
2, 58108, Control_c, 0, 64, 92
2, 58128, Control_c, 0, 64, 127
2, 58134, Note_on_c, 0, 44, 0
2, 58151, Note_on_c, 0, 75, 87
2, 58192, Note_on_c, 0, 78, 0
2, 58218, Note_on_c, 0, 75, 0
2, 58246, Note_on_c, 0, 72, 86
2, 58344, Note_on_c, 0, 68, 86
2, 58346, Note_on_c, 0, 72, 0
2, 58445, Note_on_c, 0, 66, 72
2, 58468, Note_on_c, 0, 68, 0
2, 58511, Control_c, 0, 64, 98
2, 58531, Control_c, 0, 64, 82
2, 58544, Note_on_c, 0, 66, 0
2, 58545, Note_on_c, 0, 63, 80
2, 58549, Control_c, 0, 64, 68
2, 58569, Control_c, 0, 64, 50
2, 58588, Control_c, 0, 64, 0
2, 58637, Note_on_c, 0, 60, 75
2, 58645, Note_on_c, 0, 63, 0
2, 58751, Note_on_c, 0, 60, 0
2, 58769, Note_on_c, 0, 58, 54
2, 58774, Note_on_c, 0, 56, 61
2, 58830, Note_on_c, 0, 60, 73
2, 58850, Note_on_c, 0, 58, 0
2, 58862, Note_on_c, 0, 56, 0
2, 58939, Note_on_c, 0, 60, 0
2, 58939, Note_on_c, 0, 63, 75
2, 59014, Note_on_c, 0, 56, 69
2, 59019, Note_on_c, 0, 65, 72
2, 59066, Note_on_c, 0, 63, 0
2, 59115, Note_on_c, 0, 68, 81
2, 59166, Control_c, 0, 64, 9
2, 59167, Note_on_c, 0, 65, 0
2, 59186, Control_c, 0, 64, 57
2, 59205, Control_c, 0, 64, 65
2, 59211, Note_on_c, 0, 73, 85
2, 59221, Note_on_c, 0, 68, 0
2, 59225, Control_c, 0, 64, 68
2, 59243, Control_c, 0, 64, 76
2, 59263, Control_c, 0, 64, 89
2, 59282, Control_c, 0, 64, 127
2, 59306, Note_on_c, 0, 56, 0
2, 59312, Note_on_c, 0, 68, 83
2, 59400, Note_on_c, 0, 73, 0
2, 59411, Note_on_c, 0, 65, 78
2, 59466, Note_on_c, 0, 68, 0
2, 59507, Note_on_c, 0, 61, 82
2, 59540, Note_on_c, 0, 65, 0
2, 59608, Note_on_c, 0, 58, 82
2, 59614, Note_on_c, 0, 61, 0
2, 59667, Control_c, 0, 64, 116
2, 59686, Control_c, 0, 64, 86
2, 59706, Control_c, 0, 64, 72
2, 59713, Note_on_c, 0, 55, 77
2, 59723, Note_on_c, 0, 58, 0
2, 59724, Control_c, 0, 64, 64
2, 59744, Control_c, 0, 64, 52
2, 59763, Control_c, 0, 64, 28
2, 59782, Control_c, 0, 64, 0
2, 59820, Note_on_c, 0, 52, 73
2, 59848, Note_on_c, 0, 55, 0
2, 59902, Note_on_c, 0, 49, 81
2, 59911, Note_on_c, 0, 52, 0
2, 60026, Note_on_c, 0, 52, 79
2, 60050, Note_on_c, 0, 49, 0
2, 60129, Note_on_c, 0, 52, 0
2, 60149, Note_on_c, 0, 55, 79
2, 60269, Note_on_c, 0, 55, 0
2, 60277, Note_on_c, 0, 44, 76
2, 60559, Note_on_c, 0, 49, 61
2, 60567, Note_on_c, 0, 73, 74
2, 60572, Note_on_c, 0, 53, 51
2, 60572, Note_on_c, 0, 65, 59
2, 60576, Note_on_c, 0, 56, 51
2, 60583, Note_on_c, 0, 68, 55
2, 60596, Note_on_c, 0, 65, 0
2, 60602, Note_on_c, 0, 53, 0
2, 60607, Note_on_c, 0, 68, 0
2, 60610, Note_on_c, 0, 56, 0
2, 60611, Note_on_c, 0, 49, 0
2, 60611, Note_on_c, 0, 73, 0
2, 60882, Note_on_c, 0, 51, 53
2, 60883, Note_on_c, 0, 54, 60
2, 60885, Note_on_c, 0, 72, 78
2, 60887, Note_on_c, 0, 56, 56
2, 60903, Note_on_c, 0, 63, 59
2, 60903, Note_on_c, 0, 68, 67
2, 60907, Note_on_c, 0, 44, 0
2, 60933, Note_on_c, 0, 51, 0
2, 60933, Note_on_c, 0, 54, 0
2, 60933, Note_on_c, 0, 56, 0
2, 60933, Note_on_c, 0, 68, 0
2, 60940, Note_on_c, 0, 63, 0
2, 60944, Note_on_c, 0, 72, 0
2, 61430, Note_on_c, 0, 73, 80
2, 61442, Note_on_c, 0, 56, 47
2, 61450, Note_on_c, 0, 53, 42
2, 61452, Note_on_c, 0, 68, 61
2, 61458, Note_on_c, 0, 49, 45
2, 61464, Note_on_c, 0, 61, 49
2, 62044, Control_c, 0, 64, 36
2, 62064, Control_c, 0, 64, 49
2, 62083, Control_c, 0, 64, 55
2, 62103, Control_c, 0, 64, 57
2, 62121, Control_c, 0, 64, 58
2, 62160, Control_c, 0, 64, 59
2, 62179, Control_c, 0, 64, 61
2, 62198, Control_c, 0, 64, 62
2, 62218, Control_c, 0, 64, 63
2, 62237, Control_c, 0, 64, 64
2, 62256, Control_c, 0, 64, 64
2, 62275, Control_c, 0, 64, 65
2, 62295, Control_c, 0, 64, 67
2, 62313, Control_c, 0, 64, 69
2, 62333, Control_c, 0, 64, 73
2, 62352, Control_c, 0, 64, 78
2, 62372, Control_c, 0, 64, 85
2, 62391, Control_c, 0, 64, 91
2, 62411, Control_c, 0, 64, 100
2, 62430, Control_c, 0, 64, 112
2, 62449, Control_c, 0, 64, 127
2, 62552, Note_on_c, 0, 56, 0
2, 62556, Note_on_c, 0, 61, 0
2, 62578, Note_on_c, 0, 73, 0
2, 62599, Note_on_c, 0, 68, 0
2, 62616, Note_on_c, 0, 53, 0
2, 62628, Note_on_c, 0, 49, 0
2, 63370, Control_c, 0, 64, 107
2, 63389, Control_c, 0, 64, 96
2, 63408, Control_c, 0, 64, 87
2, 63427, Control_c, 0, 64, 78
2, 63447, Control_c, 0, 64, 71
2, 63466, Control_c, 0, 64, 65
2, 63484, Control_c, 0, 64, 60
2, 63504, Control_c, 0, 64, 54
2, 63523, Control_c, 0, 64, 52
2, 63543, Control_c, 0, 64, 51
2, 63561, Control_c, 0, 64, 49
2, 63581, Control_c, 0, 64, 44
2, 63600, Control_c, 0, 64, 38
2, 63619, Control_c, 0, 64, 32
2, 63638, Control_c, 0, 64, 31
2, 63753, Control_c, 0, 64, 32
2, 63773, Control_c, 0, 64, 32
2, 63792, Control_c, 0, 64, 33
2, 63830, Control_c, 0, 64, 34
2, 63850, Control_c, 0, 64, 36
2, 63869, Control_c, 0, 64, 39
2, 63888, Control_c, 0, 64, 42
2, 63907, Control_c, 0, 64, 44
2, 63927, Control_c, 0, 64, 46
2, 63946, Control_c, 0, 64, 47
2, 63964, Control_c, 0, 64, 48
2, 63984, Control_c, 0, 64, 49
2, 64003, Control_c, 0, 64, 49
2, 64041, Control_c, 0, 64, 50
2, 64157, Control_c, 0, 64, 50
2, 64349, Control_c, 0, 64, 51
2, 64618, Control_c, 0, 64, 51
2, 65789, Control_c, 0, 64, 52
2, 65961, Control_c, 0, 64, 52
2, 66038, Control_c, 0, 64, 53
2, 66115, Control_c, 0, 64, 53
2, 66135, Control_c, 0, 64, 54
2, 66173, Control_c, 0, 64, 54
2, 66192, Control_c, 0, 64, 55
2, 67344, Control_c, 0, 64, 55
2, 67421, Control_c, 0, 64, 56
2, 67478, Control_c, 0, 64, 55
2, 67498, Control_c, 0, 64, 52
2, 67517, Control_c, 0, 64, 47
2, 67536, Control_c, 0, 64, 44
2, 67555, Control_c, 0, 64, 43
2, 67575, Control_c, 0, 64, 42
2, 67593, Control_c, 0, 64, 40
2, 67613, Control_c, 0, 64, 38
2, 67632, Control_c, 0, 64, 36
2, 67652, Control_c, 0, 64, 35
2, 67670, Control_c, 0, 64, 34
2, 67690, Control_c, 0, 64, 32
2, 67709, Control_c, 0, 64, 26
2, 67728, Control_c, 0, 64, 9
2, 67747, Control_c, 0, 64, 0
2, 67779, Note_on_c, 0, 68, 64
2, 67804, Note_on_c, 0, 68, 0
2, 68089, Note_on_c, 0, 70, 74
2, 68186, Note_on_c, 0, 70, 0
2, 68208, Note_on_c, 0, 68, 70
2, 68296, Note_on_c, 0, 68, 0
2, 68338, Note_on_c, 0, 66, 65
2, 68425, Note_on_c, 0, 66, 0
2, 68465, Note_on_c, 0, 68, 71
2, 68563, Note_on_c, 0, 68, 0
2, 68613, Note_on_c, 0, 77, 79
2, 68647, Note_on_c, 0, 77, 0
2, 68888, Note_on_c, 0, 73, 77
2, 68917, Note_on_c, 0, 73, 0
2, 69186, Note_on_c, 0, 68, 81
2, 69470, Note_on_c, 0, 68, 0
2, 69491, Note_on_c, 0, 66, 64
2, 69568, Note_on_c, 0, 66, 0
2, 69608, Note_on_c, 0, 65, 66
2, 69699, Note_on_c, 0, 65, 0
2, 69743, Note_on_c, 0, 66, 79
2, 69771, Note_on_c, 0, 66, 0
2, 70022, Note_on_c, 0, 75, 77
2, 70051, Note_on_c, 0, 75, 0
2, 70307, Note_on_c, 0, 65, 75
2, 70345, Note_on_c, 0, 65, 0
2, 70589, Note_on_c, 0, 73, 73
2, 70625, Note_on_c, 0, 73, 0
2, 70874, Note_on_c, 0, 63, 72
2, 70908, Note_on_c, 0, 63, 0
2, 71159, Note_on_c, 0, 72, 70
2, 71191, Note_on_c, 0, 72, 0
2, 71439, Note_on_c, 0, 61, 75
2, 71469, Note_on_c, 0, 61, 0
2, 71733, Note_on_c, 0, 73, 66
2, 71819, Note_on_c, 0, 73, 0
2, 71858, Note_on_c, 0, 72, 59
2, 71971, Note_on_c, 0, 72, 0
2, 71994, Note_on_c, 0, 73, 63
2, 72110, Note_on_c, 0, 73, 0
2, 72117, Note_on_c, 0, 75, 67
2, 72206, Note_on_c, 0, 75, 0
2, 72252, Note_on_c, 0, 61, 63
2, 72260, Note_on_c, 0, 77, 62
2, 72290, Note_on_c, 0, 61, 0
2, 72383, Note_on_c, 0, 77, 0
2, 72387, Note_on_c, 0, 78, 61
2, 72511, Note_on_c, 0, 78, 0
2, 72535, Note_on_c, 0, 65, 65
2, 72535, Note_on_c, 0, 80, 63
2, 72634, Note_on_c, 0, 65, 0
2, 72661, Note_on_c, 0, 79, 71
2, 72666, Note_on_c, 0, 63, 75
2, 72702, Note_on_c, 0, 80, 0
2, 72763, Note_on_c, 0, 63, 0
2, 72765, Note_on_c, 0, 79, 0
2, 72789, Note_on_c, 0, 61, 71
2, 72795, Note_on_c, 0, 77, 69
2, 72892, Note_on_c, 0, 77, 0
2, 72914, Note_on_c, 0, 79, 77
2, 72915, Note_on_c, 0, 63, 76
2, 72948, Note_on_c, 0, 61, 0
2, 73009, Note_on_c, 0, 63, 0
2, 73029, Note_on_c, 0, 79, 0
2, 73049, Note_on_c, 0, 80, 80
2, 73055, Note_on_c, 0, 72, 57
2, 73083, Note_on_c, 0, 72, 0
2, 73176, Note_on_c, 0, 78, 79
2, 73207, Note_on_c, 0, 80, 0
2, 73266, Note_on_c, 0, 78, 0
2, 73295, Note_on_c, 0, 77, 72
2, 73304, Note_on_c, 0, 68, 68
2, 73332, Note_on_c, 0, 68, 0
2, 73416, Note_on_c, 0, 77, 0
2, 73425, Note_on_c, 0, 75, 73
2, 73558, Note_on_c, 0, 75, 0
2, 73562, Note_on_c, 0, 63, 75
2, 73565, Note_on_c, 0, 77, 74
2, 73848, Note_on_c, 0, 63, 0
2, 73850, Note_on_c, 0, 61, 61
2, 73951, Note_on_c, 0, 61, 0
2, 73970, Note_on_c, 0, 60, 61
2, 74100, Note_on_c, 0, 61, 80
2, 74106, Note_on_c, 0, 60, 0
2, 74128, Note_on_c, 0, 61, 0
2, 74246, Note_on_c, 0, 75, 66
2, 74260, Note_on_c, 0, 77, 0
2, 74367, Note_on_c, 0, 70, 67
2, 74379, Note_on_c, 0, 73, 69
2, 74384, Note_on_c, 0, 75, 0
2, 74399, Note_on_c, 0, 70, 0
2, 74494, Note_on_c, 0, 73, 0
2, 74510, Note_on_c, 0, 77, 70
2, 74632, Note_on_c, 0, 77, 0
2, 74636, Note_on_c, 0, 60, 65
2, 74642, Note_on_c, 0, 75, 77
2, 74673, Note_on_c, 0, 60, 0
2, 74755, Note_on_c, 0, 73, 76
2, 74791, Note_on_c, 0, 75, 0
2, 74860, Note_on_c, 0, 73, 0
2, 74886, Note_on_c, 0, 72, 72
2, 74899, Note_on_c, 0, 68, 60
2, 74932, Note_on_c, 0, 68, 0
2, 75001, Note_on_c, 0, 72, 0
2, 75012, Note_on_c, 0, 75, 74
2, 75145, Note_on_c, 0, 58, 56
2, 75146, Note_on_c, 0, 73, 68
2, 75186, Note_on_c, 0, 58, 0
2, 75214, Note_on_c, 0, 75, 0
2, 75227, Note_on_c, 0, 73, 0
2, 75261, Note_on_c, 0, 72, 74
2, 75358, Note_on_c, 0, 72, 0
2, 75390, Note_on_c, 0, 67, 53
2, 75398, Note_on_c, 0, 73, 71
2, 75419, Note_on_c, 0, 67, 0
2, 75479, Note_on_c, 0, 73, 0
2, 75516, Note_on_c, 0, 70, 73
2, 75553, Note_on_c, 0, 70, 0
2, 75636, Note_on_c, 0, 70, 78
2, 75637, Note_on_c, 0, 56, 61
2, 75676, Note_on_c, 0, 56, 0
2, 75679, Control_c, 0, 64, 51
2, 75697, Control_c, 0, 64, 60
2, 75717, Control_c, 0, 64, 58
2, 75719, Note_on_c, 0, 70, 0
2, 75736, Control_c, 0, 64, 48
2, 75756, Control_c, 0, 64, 0
2, 75770, Note_on_c, 0, 72, 70
2, 75804, Note_on_c, 0, 72, 0
2, 75902, Note_on_c, 0, 68, 68
2, 75902, Note_on_c, 0, 75, 77
2, 75929, Note_on_c, 0, 75, 0
2, 75965, Note_on_c, 0, 68, 0
2, 76022, Note_on_c, 0, 67, 65
2, 76106, Note_on_c, 0, 67, 0
2, 76153, Note_on_c, 0, 78, 86
2, 76161, Note_on_c, 0, 68, 74
2, 76251, Note_on_c, 0, 68, 0
2, 76289, Note_on_c, 0, 70, 62
2, 76396, Note_on_c, 0, 70, 0
2, 76418, Note_on_c, 0, 72, 65
2, 76428, Note_on_c, 0, 56, 76
2, 76455, Note_on_c, 0, 56, 0
2, 76488, Note_on_c, 0, 72, 0
2, 76552, Note_on_c, 0, 68, 61
2, 76654, Note_on_c, 0, 68, 0
2, 76704, Note_on_c, 0, 73, 66
2, 76705, Note_on_c, 0, 58, 79
2, 76805, Note_on_c, 0, 58, 0
2, 76816, Note_on_c, 0, 73, 0
2, 76836, Note_on_c, 0, 72, 62
2, 76838, Note_on_c, 0, 56, 75
2, 76940, Note_on_c, 0, 72, 0
2, 76965, Note_on_c, 0, 56, 0
2, 76965, Note_on_c, 0, 70, 69
2, 76970, Note_on_c, 0, 54, 70
2, 77078, Note_on_c, 0, 70, 0
2, 77078, Note_on_c, 0, 78, 0
2, 77090, Note_on_c, 0, 72, 71
2, 77097, Note_on_c, 0, 56, 78
2, 77114, Note_on_c, 0, 54, 0
2, 77187, Note_on_c, 0, 72, 0
2, 77202, Note_on_c, 0, 56, 0
2, 77223, Note_on_c, 0, 65, 74
2, 77233, Note_on_c, 0, 73, 80
2, 77233, Note_on_c, 0, 77, 82
2, 77253, Note_on_c, 0, 65, 0
2, 77295, Note_on_c, 0, 73, 0
2, 77360, Note_on_c, 0, 72, 67
2, 77462, Note_on_c, 0, 72, 0
2, 77496, Note_on_c, 0, 61, 71
2, 77498, Note_on_c, 0, 70, 74
2, 77526, Note_on_c, 0, 61, 0
2, 77599, Note_on_c, 0, 70, 0
2, 77636, Note_on_c, 0, 68, 71
2, 77767, Note_on_c, 0, 68, 0
2, 77781, Note_on_c, 0, 56, 84
2, 77791, Note_on_c, 0, 70, 79
2, 77982, Note_on_c, 0, 77, 0
2, 78069, Note_on_c, 0, 54, 66
2, 78073, Note_on_c, 0, 56, 0
2, 78186, Note_on_c, 0, 54, 0
2, 78194, Note_on_c, 0, 53, 66
2, 78325, Note_on_c, 0, 54, 74
2, 78327, Note_on_c, 0, 53, 0
2, 78327, Note_on_c, 0, 75, 84
2, 78329, Note_on_c, 0, 70, 0
2, 78365, Note_on_c, 0, 54, 0
2, 78470, Note_on_c, 0, 68, 67
2, 78577, Note_on_c, 0, 68, 0
2, 78605, Note_on_c, 0, 66, 65
2, 78610, Note_on_c, 0, 63, 60
2, 78647, Note_on_c, 0, 63, 0
2, 78714, Note_on_c, 0, 66, 0
2, 78731, Note_on_c, 0, 70, 62
2, 78869, Note_on_c, 0, 68, 66
2, 78880, Note_on_c, 0, 53, 41
2, 78917, Note_on_c, 0, 53, 0
2, 78920, Note_on_c, 0, 75, 0
2, 78986, Note_on_c, 0, 70, 0
2, 78992, Note_on_c, 0, 66, 61
2, 79009, Note_on_c, 0, 68, 0
2, 79114, Note_on_c, 0, 66, 0
2, 79116, Note_on_c, 0, 61, 47
2, 79123, Note_on_c, 0, 73, 66
2, 79141, Note_on_c, 0, 65, 57
2, 79157, Note_on_c, 0, 61, 0
2, 79258, Note_on_c, 0, 68, 67
2, 79345, Note_on_c, 0, 68, 0
2, 79348, Note_on_c, 0, 65, 0
2, 79378, Note_on_c, 0, 66, 63
2, 79387, Note_on_c, 0, 51, 47
2, 79388, Note_on_c, 0, 72, 74
2, 79434, Note_on_c, 0, 73, 0
2, 79445, Note_on_c, 0, 51, 0
2, 79478, Note_on_c, 0, 66, 0
2, 79512, Note_on_c, 0, 65, 63
2, 79605, Note_on_c, 0, 65, 0
2, 79638, Note_on_c, 0, 75, 74
2, 79642, Note_on_c, 0, 66, 62
2, 79649, Note_on_c, 0, 60, 30
2, 79696, Note_on_c, 0, 60, 0
2, 79747, Note_on_c, 0, 66, 0
2, 79750, Note_on_c, 0, 72, 0
2, 79772, Note_on_c, 0, 63, 62
2, 79884, Note_on_c, 0, 63, 0
2, 79907, Note_on_c, 0, 49, 50
2, 79907, Note_on_c, 0, 65, 52
2, 79941, Control_c, 0, 64, 45
2, 79959, Control_c, 0, 64, 64
2, 79977, Note_on_c, 0, 49, 0
2, 79978, Control_c, 0, 64, 74
2, 79998, Control_c, 0, 64, 95
2, 80016, Control_c, 0, 64, 127
2, 80151, Control_c, 0, 64, 90
2, 80170, Control_c, 0, 64, 72
2, 80186, Note_on_c, 0, 68, 58
2, 80190, Control_c, 0, 64, 61
2, 80197, Note_on_c, 0, 61, 57
2, 80197, Note_on_c, 0, 75, 0
2, 80209, Control_c, 0, 64, 0
2, 80224, Note_on_c, 0, 68, 0
2, 80309, Note_on_c, 0, 61, 0
2, 80335, Note_on_c, 0, 60, 52
2, 80450, Note_on_c, 0, 77, 73
2, 80469, Note_on_c, 0, 60, 0
2, 80470, Note_on_c, 0, 61, 58
2, 80541, Note_on_c, 0, 65, 0
2, 80587, Note_on_c, 0, 63, 65
2, 80597, Note_on_c, 0, 61, 0
2, 80707, Note_on_c, 0, 63, 0
2, 80719, Note_on_c, 0, 65, 59
2, 80720, Note_on_c, 0, 68, 72
2, 80756, Note_on_c, 0, 68, 0
2, 80813, Note_on_c, 0, 65, 0
2, 80852, Note_on_c, 0, 61, 64
2, 80974, Note_on_c, 0, 58, 55
2, 80977, Note_on_c, 0, 73, 68
2, 80990, Note_on_c, 0, 61, 0
2, 81041, Note_on_c, 0, 77, 0
2, 81094, Note_on_c, 0, 58, 0
2, 81109, Note_on_c, 0, 60, 63
2, 81232, Note_on_c, 0, 60, 0
2, 81233, Note_on_c, 0, 77, 80
2, 81242, Note_on_c, 0, 61, 65
2, 81250, Note_on_c, 0, 73, 0
2, 81359, Note_on_c, 0, 73, 82
2, 81367, Note_on_c, 0, 58, 64
2, 81370, Note_on_c, 0, 61, 0
2, 81371, Note_on_c, 0, 77, 0
2, 81480, Note_on_c, 0, 58, 0
2, 81496, Note_on_c, 0, 70, 79
2, 81514, Note_on_c, 0, 55, 54
2, 81524, Note_on_c, 0, 73, 0
2, 81636, Note_on_c, 0, 56, 61
2, 81640, Note_on_c, 0, 55, 0
2, 81741, Note_on_c, 0, 70, 0
2, 81742, Note_on_c, 0, 56, 0
2, 81745, Note_on_c, 0, 58, 63
2, 81750, Note_on_c, 0, 73, 73
2, 81863, Note_on_c, 0, 58, 0
2, 81876, Note_on_c, 0, 70, 70
2, 81876, Note_on_c, 0, 73, 0
2, 81894, Note_on_c, 0, 55, 52
2, 81971, Note_on_c, 0, 55, 0
2, 82006, Note_on_c, 0, 70, 0
2, 82010, Note_on_c, 0, 63, 60
2, 82019, Note_on_c, 0, 48, 49
2, 82053, Control_c, 0, 64, 51
2, 82072, Control_c, 0, 64, 63
2, 82091, Control_c, 0, 64, 70
2, 82111, Control_c, 0, 64, 81
2, 82130, Control_c, 0, 64, 105
2, 82135, Note_on_c, 0, 48, 0
2, 82149, Control_c, 0, 64, 127
2, 82265, Control_c, 0, 64, 91
2, 82283, Control_c, 0, 64, 71
2, 82290, Note_on_c, 0, 70, 66
2, 82301, Note_on_c, 0, 60, 48
2, 82303, Control_c, 0, 64, 55
2, 82322, Control_c, 0, 64, 0
2, 82325, Note_on_c, 0, 70, 0
2, 82397, Note_on_c, 0, 60, 0
2, 82425, Note_on_c, 0, 58, 55
2, 82537, Note_on_c, 0, 58, 0
2, 82562, Note_on_c, 0, 75, 80
2, 82572, Note_on_c, 0, 60, 53
2, 82678, Note_on_c, 0, 60, 0
2, 82699, Note_on_c, 0, 61, 57
2, 82763, Note_on_c, 0, 63, 0
2, 82822, Note_on_c, 0, 67, 59
2, 82823, Note_on_c, 0, 63, 44
2, 82835, Note_on_c, 0, 61, 0
2, 82867, Note_on_c, 0, 67, 0
2, 82927, Note_on_c, 0, 63, 0
2, 82967, Note_on_c, 0, 60, 55
2, 83093, Note_on_c, 0, 56, 55
2, 83101, Note_on_c, 0, 60, 0
2, 83105, Note_on_c, 0, 72, 69
2, 83155, Note_on_c, 0, 75, 0
2, 83231, Note_on_c, 0, 58, 61
2, 83244, Note_on_c, 0, 56, 0
2, 83339, Note_on_c, 0, 58, 0
2, 83360, Note_on_c, 0, 75, 80
2, 83372, Note_on_c, 0, 60, 60
2, 83375, Note_on_c, 0, 72, 0
2, 83489, Note_on_c, 0, 60, 0
2, 83491, Note_on_c, 0, 56, 69
2, 83495, Note_on_c, 0, 72, 80
2, 83503, Note_on_c, 0, 75, 0
2, 83615, Note_on_c, 0, 56, 0
2, 83615, Note_on_c, 0, 68, 79
2, 83623, Note_on_c, 0, 72, 0
2, 83626, Note_on_c, 0, 53, 62
2, 83747, Note_on_c, 0, 55, 69
2, 83757, Note_on_c, 0, 53, 0
2, 83848, Note_on_c, 0, 55, 0
2, 83868, Note_on_c, 0, 56, 65
2, 83871, Note_on_c, 0, 68, 0
2, 83873, Note_on_c, 0, 72, 72
2, 83956, Note_on_c, 0, 56, 0
2, 83993, Note_on_c, 0, 72, 0
2, 84001, Note_on_c, 0, 68, 77
2, 84005, Note_on_c, 0, 53, 60
2, 84093, Note_on_c, 0, 68, 0
2, 84115, Note_on_c, 0, 53, 0
2, 84132, Note_on_c, 0, 61, 66
2, 84147, Note_on_c, 0, 46, 56
2, 84184, Control_c, 0, 64, 51
2, 84199, Note_on_c, 0, 46, 0
2, 84202, Control_c, 0, 64, 68
2, 84222, Control_c, 0, 64, 76
2, 84241, Control_c, 0, 64, 90
2, 84261, Control_c, 0, 64, 107
2, 84279, Control_c, 0, 64, 127
2, 84375, Control_c, 0, 64, 116
2, 84395, Control_c, 0, 64, 87
2, 84413, Control_c, 0, 64, 67
2, 84413, Note_on_c, 0, 68, 63
2, 84422, Note_on_c, 0, 58, 55
2, 84433, Control_c, 0, 64, 44
2, 84451, Note_on_c, 0, 68, 0
2, 84452, Control_c, 0, 64, 0
2, 84494, Note_on_c, 0, 58, 0
2, 84542, Note_on_c, 0, 56, 61
2, 84677, Note_on_c, 0, 58, 54
2, 84689, Note_on_c, 0, 73, 73
2, 84691, Note_on_c, 0, 61, 0
2, 84698, Note_on_c, 0, 56, 0
2, 84763, Note_on_c, 0, 58, 0
2, 84795, Note_on_c, 0, 60, 57
2, 84923, Note_on_c, 0, 60, 0
2, 84935, Note_on_c, 0, 61, 62
2, 84962, Note_on_c, 0, 65, 57
2, 85000, Note_on_c, 0, 65, 0
2, 85068, Note_on_c, 0, 58, 54
2, 85069, Note_on_c, 0, 61, 0
2, 85199, Note_on_c, 0, 58, 0
2, 85213, Note_on_c, 0, 70, 70
2, 85226, Note_on_c, 0, 55, 49
2, 85258, Note_on_c, 0, 73, 0
2, 85343, Note_on_c, 0, 72, 81
2, 85352, Note_on_c, 0, 55, 0
2, 85352, Note_on_c, 0, 56, 68
2, 85394, Note_on_c, 0, 70, 0
2, 85470, Note_on_c, 0, 58, 71
2, 85473, Note_on_c, 0, 56, 0
2, 85478, Note_on_c, 0, 73, 89
2, 85518, Note_on_c, 0, 72, 0
2, 85565, Note_on_c, 0, 58, 0
2, 85589, Note_on_c, 0, 73, 0
2, 85598, Note_on_c, 0, 55, 68
2, 85599, Note_on_c, 0, 70, 94
2, 85719, Note_on_c, 0, 55, 0
2, 85722, Note_on_c, 0, 51, 60
2, 85731, Note_on_c, 0, 82, 95
2, 85763, Note_on_c, 0, 70, 0
2, 85862, Note_on_c, 0, 53, 65
2, 85866, Note_on_c, 0, 73, 80
2, 85867, Note_on_c, 0, 51, 0
2, 85968, Note_on_c, 0, 53, 0
2, 85987, Note_on_c, 0, 73, 0
2, 85998, Note_on_c, 0, 75, 70
2, 86002, Note_on_c, 0, 55, 59
2, 86087, Note_on_c, 0, 55, 0
2, 86103, Note_on_c, 0, 75, 0
2, 86108, Note_on_c, 0, 51, 60
2, 86123, Note_on_c, 0, 70, 72
2, 86232, Note_on_c, 0, 51, 0
2, 86262, Note_on_c, 0, 44, 55
2, 86269, Note_on_c, 0, 72, 70
2, 86282, Note_on_c, 0, 70, 0
2, 86296, Control_c, 0, 64, 32
2, 86317, Control_c, 0, 64, 65
2, 86336, Control_c, 0, 64, 73
2, 86338, Note_on_c, 0, 72, 0
2, 86356, Control_c, 0, 64, 91
2, 86375, Control_c, 0, 64, 127
2, 86404, Note_on_c, 0, 80, 68
2, 86454, Note_on_c, 0, 44, 0
2, 86454, Note_on_c, 0, 82, 0
2, 86506, Note_on_c, 0, 56, 66
2, 86525, Note_on_c, 0, 80, 0
2, 86532, Note_on_c, 0, 79, 80
2, 86585, Control_c, 0, 64, 112
2, 86603, Control_c, 0, 64, 93
2, 86614, Note_on_c, 0, 56, 0
2, 86623, Control_c, 0, 64, 77
2, 86642, Control_c, 0, 64, 68
2, 86654, Note_on_c, 0, 82, 85
2, 86659, Note_on_c, 0, 58, 62
2, 86660, Control_c, 0, 64, 61
2, 86666, Note_on_c, 0, 79, 0
2, 86680, Control_c, 0, 64, 52
2, 86699, Control_c, 0, 64, 45
2, 86719, Control_c, 0, 64, 39
2, 86737, Control_c, 0, 64, 24
2, 86757, Control_c, 0, 64, 0
2, 86773, Note_on_c, 0, 58, 0
2, 86778, Note_on_c, 0, 60, 60
2, 86783, Note_on_c, 0, 80, 86
2, 86803, Note_on_c, 0, 82, 0
2, 86814, Note_on_c, 0, 60, 0
2, 86906, Note_on_c, 0, 75, 79
2, 86967, Note_on_c, 0, 80, 0
2, 87027, Note_on_c, 0, 75, 0
2, 87039, Note_on_c, 0, 77, 80
2, 87050, Note_on_c, 0, 68, 84
2, 87062, Note_on_c, 0, 56, 68
2, 87098, Note_on_c, 0, 56, 0
2, 87173, Note_on_c, 0, 78, 82
2, 87201, Note_on_c, 0, 77, 0
2, 87293, Note_on_c, 0, 68, 0
2, 87307, Note_on_c, 0, 61, 59
2, 87325, Note_on_c, 0, 77, 71
2, 87394, Note_on_c, 0, 78, 0
2, 87427, Note_on_c, 0, 77, 0
2, 87442, Note_on_c, 0, 75, 82
2, 87458, Note_on_c, 0, 67, 53
2, 87557, Note_on_c, 0, 67, 0
2, 87570, Note_on_c, 0, 65, 59
2, 87570, Note_on_c, 0, 75, 0
2, 87572, Note_on_c, 0, 73, 82
2, 87579, Note_on_c, 0, 61, 0
2, 87644, Note_on_c, 0, 65, 0
2, 87650, Note_on_c, 0, 73, 0
2, 87688, Note_on_c, 0, 75, 86
2, 87695, Note_on_c, 0, 67, 71
2, 87778, Note_on_c, 0, 75, 0
2, 87809, Note_on_c, 0, 67, 0
2, 87827, Note_on_c, 0, 84, 91
2, 87829, Note_on_c, 0, 68, 66
2, 87844, Note_on_c, 0, 60, 54
2, 87851, Note_on_c, 0, 84, 0
2, 87898, Note_on_c, 0, 68, 0
2, 87955, Note_on_c, 0, 66, 67
2, 88057, Note_on_c, 0, 66, 0
2, 88087, Note_on_c, 0, 80, 91
2, 88098, Note_on_c, 0, 65, 61
2, 88114, Note_on_c, 0, 80, 0
2, 88195, Note_on_c, 0, 65, 0
2, 88216, Note_on_c, 0, 60, 0
2, 88223, Note_on_c, 0, 63, 70
2, 88339, Note_on_c, 0, 63, 0
2, 88356, Note_on_c, 0, 75, 91
2, 88361, Note_on_c, 0, 65, 53
2, 88379, Note_on_c, 0, 58, 54
2, 88415, Note_on_c, 0, 58, 0
2, 88644, Note_on_c, 0, 56, 63
2, 88651, Note_on_c, 0, 73, 77
2, 88666, Note_on_c, 0, 75, 0
2, 88683, Note_on_c, 0, 56, 0
2, 88745, Note_on_c, 0, 73, 0
2, 88774, Note_on_c, 0, 72, 79
2, 88875, Note_on_c, 0, 72, 0
2, 88909, Note_on_c, 0, 55, 55
2, 88911, Note_on_c, 0, 73, 77
2, 88942, Note_on_c, 0, 73, 0
2, 89028, Note_on_c, 0, 65, 0
2, 89038, Note_on_c, 0, 63, 63
2, 89173, Note_on_c, 0, 82, 86
2, 89182, Note_on_c, 0, 55, 0
2, 89193, Note_on_c, 0, 61, 50
2, 89199, Note_on_c, 0, 82, 0
2, 89226, Note_on_c, 0, 63, 0
2, 89317, Note_on_c, 0, 65, 66
2, 89378, Note_on_c, 0, 61, 0
2, 89412, Note_on_c, 0, 65, 0
2, 89436, Note_on_c, 0, 72, 80
2, 89452, Note_on_c, 0, 63, 64
2, 89475, Note_on_c, 0, 56, 53
2, 89477, Note_on_c, 0, 72, 0
2, 89585, Note_on_c, 0, 61, 64
2, 89599, Note_on_c, 0, 63, 0
2, 89686, Note_on_c, 0, 61, 0
2, 89715, Note_on_c, 0, 60, 62
2, 89717, Note_on_c, 0, 80, 80
2, 89753, Note_on_c, 0, 80, 0
2, 89780, Note_on_c, 0, 56, 0
2, 89818, Note_on_c, 0, 60, 0
2, 89842, Note_on_c, 0, 63, 70
2, 89945, Note_on_c, 0, 63, 0
2, 89971, Note_on_c, 0, 70, 69
2, 89978, Note_on_c, 0, 61, 59
2, 89979, Note_on_c, 0, 51, 51
2, 90040, Note_on_c, 0, 70, 0
2, 90071, Note_on_c, 0, 61, 0
2, 90164, Note_on_c, 0, 62, 22
2, 90165, Note_on_c, 0, 60, 25
2, 90210, Note_on_c, 0, 62, 0
2, 90217, Note_on_c, 0, 60, 0
2, 90234, Note_on_c, 0, 61, 59
2, 90241, Note_on_c, 0, 79, 73
2, 90280, Note_on_c, 0, 79, 0
2, 90331, Note_on_c, 0, 61, 0
2, 90382, Note_on_c, 0, 58, 60
2, 90491, Note_on_c, 0, 58, 0
2, 90513, Note_on_c, 0, 56, 53
2, 90517, Note_on_c, 0, 68, 62
2, 90519, Note_on_c, 0, 51, 0
2, 90540, Note_on_c, 0, 60, 42
2, 90577, Note_on_c, 0, 60, 0
2, 90627, Note_on_c, 0, 68, 0
2, 90642, Note_on_c, 0, 70, 72
2, 90734, Note_on_c, 0, 70, 0
2, 90778, Note_on_c, 0, 63, 58
2, 90780, Note_on_c, 0, 72, 68
2, 90817, Note_on_c, 0, 63, 0
2, 90870, Note_on_c, 0, 72, 0
2, 90911, Note_on_c, 0, 73, 64
2, 91017, Note_on_c, 0, 73, 0
2, 91044, Note_on_c, 0, 72, 60
2, 91053, Note_on_c, 0, 68, 56
2, 91130, Control_c, 0, 64, 43
2, 91134, Note_on_c, 0, 72, 0
2, 91150, Control_c, 0, 64, 63
2, 91169, Control_c, 0, 64, 68
2, 91174, Note_on_c, 0, 70, 70
2, 91175, Note_on_c, 0, 68, 0
2, 91189, Control_c, 0, 64, 76
2, 91207, Control_c, 0, 64, 86
2, 91227, Control_c, 0, 64, 95
2, 91246, Control_c, 0, 64, 103
2, 91258, Note_on_c, 0, 70, 0
2, 91266, Control_c, 0, 64, 112
2, 91284, Control_c, 0, 64, 127
2, 91311, Note_on_c, 0, 56, 0
2, 91311, Note_on_c, 0, 68, 73
2, 91317, Note_on_c, 0, 63, 58
2, 91400, Control_c, 0, 64, 118
2, 91418, Control_c, 0, 64, 100
2, 91425, Note_on_c, 0, 72, 74
2, 91434, Note_on_c, 0, 68, 0
2, 91438, Control_c, 0, 64, 84
2, 91445, Note_on_c, 0, 60, 53
2, 91457, Control_c, 0, 64, 73
2, 91476, Control_c, 0, 64, 66
2, 91492, Note_on_c, 0, 63, 0
2, 91495, Control_c, 0, 64, 61
2, 91515, Control_c, 0, 64, 54
2, 91534, Control_c, 0, 64, 44
2, 91553, Control_c, 0, 64, 29
2, 91567, Note_on_c, 0, 77, 69
2, 91570, Note_on_c, 0, 72, 0
2, 91572, Control_c, 0, 64, 0
2, 91580, Note_on_c, 0, 60, 0
2, 91583, Note_on_c, 0, 56, 55
2, 91703, Note_on_c, 0, 75, 78
2, 91739, Note_on_c, 0, 77, 0
2, 91797, Note_on_c, 0, 56, 0
2, 91806, Note_on_c, 0, 75, 0
2, 91827, Note_on_c, 0, 74, 80
2, 91839, Note_on_c, 0, 59, 64
2, 91950, Note_on_c, 0, 77, 88
2, 91954, Note_on_c, 0, 74, 0
2, 91960, Note_on_c, 0, 56, 68
2, 91977, Note_on_c, 0, 59, 0
2, 92089, Note_on_c, 0, 53, 63
2, 92089, Note_on_c, 0, 80, 92
2, 92090, Note_on_c, 0, 56, 0
2, 92099, Note_on_c, 0, 77, 0
2, 92214, Note_on_c, 0, 78, 89
2, 92260, Note_on_c, 0, 80, 0
2, 92314, Note_on_c, 0, 53, 0
2, 92319, Note_on_c, 0, 56, 68
2, 92325, Note_on_c, 0, 78, 0
2, 92328, Note_on_c, 0, 77, 86
2, 92362, Control_c, 0, 64, 29
2, 92381, Control_c, 0, 64, 58
2, 92401, Control_c, 0, 64, 68
2, 92420, Control_c, 0, 64, 78
2, 92439, Control_c, 0, 64, 98
2, 92457, Note_on_c, 0, 80, 84
2, 92458, Control_c, 0, 64, 127
2, 92466, Note_on_c, 0, 56, 0
2, 92475, Note_on_c, 0, 53, 51
2, 92483, Note_on_c, 0, 77, 0
2, 92522, Note_on_c, 0, 80, 0
2, 92609, Note_on_c, 0, 50, 56
2, 92609, Note_on_c, 0, 80, 78
2, 92631, Control_c, 0, 64, 109
2, 92633, Note_on_c, 0, 53, 0
2, 92650, Control_c, 0, 64, 91
2, 92663, Note_on_c, 0, 82, 78
2, 92670, Control_c, 0, 64, 76
2, 92689, Control_c, 0, 64, 68
2, 92708, Control_c, 0, 64, 62
2, 92715, Note_on_c, 0, 80, 0
2, 92717, Note_on_c, 0, 83, 80
2, 92727, Control_c, 0, 64, 53
2, 92747, Control_c, 0, 64, 47
2, 92755, Note_on_c, 0, 82, 0
2, 92766, Control_c, 0, 64, 45
2, 92785, Control_c, 0, 64, 42
2, 92804, Control_c, 0, 64, 31
2, 92824, Control_c, 0, 64, 0
2, 92903, Note_on_c, 0, 53, 55
2, 92908, Note_on_c, 0, 82, 78
2, 92960, Note_on_c, 0, 83, 0
2, 93031, Note_on_c, 0, 56, 64
2, 93039, Note_on_c, 0, 80, 87
2, 93053, Note_on_c, 0, 50, 0
2, 93110, Note_on_c, 0, 53, 0
2, 93162, Note_on_c, 0, 56, 0
2, 93170, Note_on_c, 0, 59, 64
2, 93170, Note_on_c, 0, 82, 0
2, 93171, Note_on_c, 0, 78, 77
2, 93238, Note_on_c, 0, 80, 0
2, 93281, Note_on_c, 0, 78, 0
2, 93290, Note_on_c, 0, 77, 76
2, 93417, Note_on_c, 0, 53, 44
2, 93437, Note_on_c, 0, 77, 0
2, 93440, Note_on_c, 0, 75, 74
2, 93453, Note_on_c, 0, 53, 0
2, 93525, Note_on_c, 0, 75, 0
2, 93558, Note_on_c, 0, 74, 62
2, 93672, Note_on_c, 0, 54, 52
2, 93678, Note_on_c, 0, 74, 0
2, 93682, Note_on_c, 0, 59, 0
2, 93685, Note_on_c, 0, 58, 48
2, 93696, Note_on_c, 0, 75, 69
2, 93718, Note_on_c, 0, 58, 0
2, 93727, Note_on_c, 0, 54, 0
2, 93820, Note_on_c, 0, 78, 72
2, 93833, Note_on_c, 0, 75, 0
2, 93937, Note_on_c, 0, 78, 0
2, 93950, Note_on_c, 0, 56, 55
2, 93953, Note_on_c, 0, 77, 70
2, 93966, Note_on_c, 0, 59, 38
2, 93984, Note_on_c, 0, 56, 0
2, 94005, Note_on_c, 0, 59, 0
2, 94068, Note_on_c, 0, 75, 81
2, 94113, Note_on_c, 0, 77, 0
2, 94174, Note_on_c, 0, 75, 0
2, 94197, Note_on_c, 0, 74, 69
2, 94222, Note_on_c, 0, 58, 39
2, 94263, Note_on_c, 0, 58, 0
2, 94286, Note_on_c, 0, 74, 0
2, 94323, Note_on_c, 0, 77, 64
2, 94434, Note_on_c, 0, 77, 0
2, 94459, Note_on_c, 0, 70, 69
2, 94469, Note_on_c, 0, 50, 50
2, 94485, Note_on_c, 0, 46, 42
2, 94504, Note_on_c, 0, 50, 0
2, 94534, Note_on_c, 0, 46, 0
2, 94554, Note_on_c, 0, 70, 0
2, 94587, Note_on_c, 0, 68, 64
2, 94693, Note_on_c, 0, 68, 0
2, 94726, Note_on_c, 0, 66, 58
2, 94735, Note_on_c, 0, 51, 44
2, 94741, Note_on_c, 0, 39, 52
2, 94836, Note_on_c, 0, 66, 0
2, 94857, Note_on_c, 0, 65, 58
2, 94960, Note_on_c, 0, 65, 0
2, 94989, Note_on_c, 0, 63, 57
2, 95047, Control_c, 0, 64, 18
2, 95067, Control_c, 0, 64, 48
2, 95086, Control_c, 0, 64, 58
2, 95100, Note_on_c, 0, 63, 0
2, 95105, Control_c, 0, 64, 62
2, 95111, Note_on_c, 0, 62, 56
2, 95124, Control_c, 0, 64, 63
2, 95138, Note_on_c, 0, 39, 0
2, 95144, Control_c, 0, 64, 64
2, 95163, Control_c, 0, 64, 64
2, 95195, Note_on_c, 0, 51, 0
2, 95201, Control_c, 0, 64, 64
2, 95206, Note_on_c, 0, 62, 0
2, 95221, Control_c, 0, 64, 62
2, 95239, Control_c, 0, 64, 55
2, 95243, Note_on_c, 0, 63, 65
2, 95259, Control_c, 0, 64, 42
2, 95278, Control_c, 0, 64, 20
2, 95298, Control_c, 0, 64, 0
2, 95330, Note_on_c, 0, 63, 0
2, 95383, Note_on_c, 0, 65, 34
2, 95465, Note_on_c, 0, 65, 0
2, 95507, Note_on_c, 0, 66, 61
2, 95523, Note_on_c, 0, 51, 64
2, 95560, Note_on_c, 0, 51, 0
2, 95630, Note_on_c, 0, 66, 0
2, 95652, Note_on_c, 0, 68, 59
2, 95782, Note_on_c, 0, 68, 0
2, 95794, Note_on_c, 0, 54, 71
2, 95801, Note_on_c, 0, 70, 68
2, 95883, Note_on_c, 0, 54, 0
2, 95921, Note_on_c, 0, 53, 68
2, 95926, Note_on_c, 0, 68, 75
2, 95943, Note_on_c, 0, 70, 0
2, 96022, Note_on_c, 0, 53, 0
2, 96048, Note_on_c, 0, 68, 0
2, 96050, Note_on_c, 0, 51, 67
2, 96063, Note_on_c, 0, 66, 76
2, 96175, Note_on_c, 0, 53, 73
2, 96181, Note_on_c, 0, 68, 83
2, 96184, Note_on_c, 0, 51, 0
2, 96205, Note_on_c, 0, 66, 0
2, 96271, Note_on_c, 0, 53, 0
2, 96286, Note_on_c, 0, 68, 0
2, 96315, Note_on_c, 0, 70, 80
2, 96316, Note_on_c, 0, 61, 77
2, 96355, Note_on_c, 0, 61, 0
2, 96438, Note_on_c, 0, 68, 75
2, 96498, Note_on_c, 0, 70, 0
2, 96573, Note_on_c, 0, 66, 75
2, 96577, Note_on_c, 0, 58, 71
2, 96605, Note_on_c, 0, 68, 0
2, 96607, Note_on_c, 0, 58, 0
2, 96667, Note_on_c, 0, 66, 0
2, 96704, Note_on_c, 0, 65, 69
2, 96858, Note_on_c, 0, 53, 72
2, 96858, Note_on_c, 0, 66, 76
2, 96876, Note_on_c, 0, 65, 0
2, 97142, Note_on_c, 0, 51, 69
2, 97145, Note_on_c, 0, 53, 0
2, 97259, Note_on_c, 0, 51, 0
2, 97278, Note_on_c, 0, 49, 66
2, 97405, Note_on_c, 0, 51, 66
2, 97413, Note_on_c, 0, 49, 0
2, 97441, Note_on_c, 0, 51, 0
2, 97523, Note_on_c, 0, 66, 0
2, 97533, Note_on_c, 0, 65, 62
2, 97657, Note_on_c, 0, 65, 0
2, 97665, Note_on_c, 0, 63, 67
2, 97668, Note_on_c, 0, 60, 60
2, 97705, Note_on_c, 0, 60, 0
2, 97781, Note_on_c, 0, 63, 0
2, 97785, Note_on_c, 0, 66, 70
2, 97920, Note_on_c, 0, 49, 64
2, 97925, Note_on_c, 0, 65, 67
2, 97925, Note_on_c, 0, 66, 0
2, 97960, Note_on_c, 0, 49, 0
2, 98050, Note_on_c, 0, 65, 0
2, 98058, Note_on_c, 0, 63, 65
2, 98188, Note_on_c, 0, 58, 53
2, 98189, Note_on_c, 0, 61, 63
2, 98189, Note_on_c, 0, 63, 0
2, 98226, Note_on_c, 0, 58, 0
2, 98289, Note_on_c, 0, 61, 0
2, 98310, Note_on_c, 0, 65, 66
2, 98451, Note_on_c, 0, 63, 62
2, 98466, Note_on_c, 0, 48, 48
2, 98468, Note_on_c, 0, 65, 0
2, 98508, Note_on_c, 0, 48, 0
2, 98570, Note_on_c, 0, 63, 0
2, 98575, Note_on_c, 0, 61, 63
2, 98707, Note_on_c, 0, 61, 0
2, 98719, Note_on_c, 0, 63, 60
2, 98725, Note_on_c, 0, 57, 50
2, 98757, Note_on_c, 0, 57, 0
2, 98793, Note_on_c, 0, 63, 0
2, 98836, Note_on_c, 0, 60, 56
2, 98973, Note_on_c, 0, 60, 0
2, 98981, Note_on_c, 0, 61, 56
2, 98987, Note_on_c, 0, 46, 39
2, 99022, Control_c, 0, 64, 38
2, 99041, Control_c, 0, 64, 61
2, 99047, Note_on_c, 0, 46, 0
2, 99061, Control_c, 0, 64, 66
2, 99079, Control_c, 0, 64, 72
2, 99099, Control_c, 0, 64, 83
2, 99115, Note_on_c, 0, 61, 0
2, 99118, Control_c, 0, 64, 103
2, 99123, Note_on_c, 0, 65, 54
2, 99138, Control_c, 0, 64, 127
2, 99258, Note_on_c, 0, 66, 60
2, 99263, Note_on_c, 0, 58, 57
2, 99265, Note_on_c, 0, 65, 0
2, 99310, Control_c, 0, 64, 103
2, 99329, Control_c, 0, 64, 90
2, 99344, Note_on_c, 0, 66, 0
2, 99348, Control_c, 0, 64, 79
2, 99354, Note_on_c, 0, 58, 0
2, 99367, Control_c, 0, 64, 70
2, 99386, Note_on_c, 0, 57, 51
2, 99387, Control_c, 0, 64, 64
2, 99388, Note_on_c, 0, 65, 66
2, 99406, Control_c, 0, 64, 58
2, 99425, Control_c, 0, 64, 54
2, 99444, Control_c, 0, 64, 51
2, 99464, Control_c, 0, 64, 46
2, 99483, Control_c, 0, 64, 36
2, 99502, Control_c, 0, 64, 19
2, 99504, Note_on_c, 0, 65, 0
2, 99520, Note_on_c, 0, 58, 59
2, 99521, Control_c, 0, 64, 0
2, 99522, Note_on_c, 0, 73, 75
2, 99531, Note_on_c, 0, 57, 0
2, 99631, Note_on_c, 0, 58, 0
2, 99640, Note_on_c, 0, 60, 65
2, 99773, Note_on_c, 0, 60, 0
2, 99783, Note_on_c, 0, 65, 60
2, 99791, Note_on_c, 0, 61, 63
2, 99819, Note_on_c, 0, 65, 0
2, 99914, Note_on_c, 0, 58, 61
2, 99919, Note_on_c, 0, 61, 0
2, 100033, Note_on_c, 0, 58, 0
2, 100035, Note_on_c, 0, 70, 75
2, 100060, Note_on_c, 0, 55, 49
2, 100125, Note_on_c, 0, 73, 0
2, 100160, Note_on_c, 0, 72, 76
2, 100189, Note_on_c, 0, 56, 67
2, 100196, Note_on_c, 0, 55, 0
2, 100198, Note_on_c, 0, 70, 0
2, 100289, Note_on_c, 0, 73, 83
2, 100316, Note_on_c, 0, 58, 68
2, 100322, Note_on_c, 0, 56, 0
2, 100326, Note_on_c, 0, 72, 0
2, 100396, Note_on_c, 0, 73, 0
2, 100402, Note_on_c, 0, 70, 87
2, 100411, Note_on_c, 0, 58, 0
2, 100434, Note_on_c, 0, 55, 65
2, 100547, Note_on_c, 0, 82, 89
2, 100557, Note_on_c, 0, 51, 54
2, 100567, Note_on_c, 0, 55, 0
2, 100596, Note_on_c, 0, 70, 0
2, 100685, Note_on_c, 0, 53, 62
2, 100685, Note_on_c, 0, 73, 80
2, 100687, Note_on_c, 0, 51, 0
2, 100788, Note_on_c, 0, 53, 0
2, 100810, Note_on_c, 0, 75, 75
2, 100827, Note_on_c, 0, 55, 56
2, 100838, Note_on_c, 0, 73, 0
2, 100902, Note_on_c, 0, 55, 0
2, 100911, Note_on_c, 0, 82, 0
2, 100939, Note_on_c, 0, 70, 72
2, 100941, Note_on_c, 0, 51, 54
2, 101016, Note_on_c, 0, 75, 0
2, 101027, Note_on_c, 0, 70, 0
2, 101071, Note_on_c, 0, 72, 67
2, 101075, Control_c, 0, 64, 41
2, 101077, Note_on_c, 0, 51, 0
2, 101089, Note_on_c, 0, 44, 49
2, 101095, Control_c, 0, 64, 65
2, 101114, Control_c, 0, 64, 76
2, 101126, Note_on_c, 0, 72, 0
2, 101128, Note_on_c, 0, 44, 0
2, 101133, Control_c, 0, 64, 105
2, 101152, Control_c, 0, 64, 127
2, 101210, Note_on_c, 0, 63, 60
2, 101325, Note_on_c, 0, 63, 0
2, 101356, Note_on_c, 0, 65, 61
2, 101357, Note_on_c, 0, 56, 65
2, 101363, Control_c, 0, 64, 106
2, 101383, Control_c, 0, 64, 84
2, 101402, Control_c, 0, 64, 70
2, 101421, Control_c, 0, 64, 59
2, 101440, Control_c, 0, 64, 0
2, 101454, Note_on_c, 0, 65, 0
2, 101458, Note_on_c, 0, 56, 0
2, 101475, Note_on_c, 0, 63, 72
2, 101480, Note_on_c, 0, 55, 57
2, 101605, Note_on_c, 0, 63, 0
2, 101617, Note_on_c, 0, 72, 78
2, 101619, Note_on_c, 0, 56, 64
2, 101625, Note_on_c, 0, 55, 0
2, 101745, Note_on_c, 0, 58, 59
2, 101748, Note_on_c, 0, 56, 0
2, 101864, Note_on_c, 0, 58, 0
2, 101894, Note_on_c, 0, 63, 64
2, 101906, Note_on_c, 0, 60, 58
2, 101933, Note_on_c, 0, 63, 0
2, 101997, Note_on_c, 0, 60, 0
2, 102024, Note_on_c, 0, 56, 65
2, 102155, Note_on_c, 0, 56, 0
2, 102161, Note_on_c, 0, 53, 53
2, 102161, Note_on_c, 0, 68, 69
2, 102208, Note_on_c, 0, 72, 0
2, 102283, Note_on_c, 0, 70, 78
2, 102290, Note_on_c, 0, 55, 62
2, 102306, Note_on_c, 0, 53, 0
2, 102318, Note_on_c, 0, 68, 0
2, 102403, Note_on_c, 0, 55, 0
2, 102409, Note_on_c, 0, 56, 69
2, 102420, Note_on_c, 0, 72, 85
2, 102445, Note_on_c, 0, 70, 0
2, 102508, Note_on_c, 0, 72, 0
2, 102524, Note_on_c, 0, 56, 0
2, 102543, Note_on_c, 0, 53, 59
2, 102543, Note_on_c, 0, 68, 85
2, 102669, Note_on_c, 0, 49, 58
2, 102681, Note_on_c, 0, 80, 84
2, 102683, Note_on_c, 0, 53, 0
2, 102739, Note_on_c, 0, 68, 0
2, 102808, Note_on_c, 0, 72, 68
2, 102811, Note_on_c, 0, 51, 59
2, 102829, Note_on_c, 0, 49, 0
2, 102929, Note_on_c, 0, 51, 0
2, 102940, Note_on_c, 0, 73, 69
2, 102952, Note_on_c, 0, 72, 0
2, 102968, Note_on_c, 0, 53, 53
2, 103009, Note_on_c, 0, 80, 0
2, 103078, Note_on_c, 0, 68, 65
2, 103081, Note_on_c, 0, 53, 0
2, 103105, Note_on_c, 0, 49, 54
2, 103159, Note_on_c, 0, 73, 0
2, 103176, Note_on_c, 0, 68, 0
2, 103185, Note_on_c, 0, 49, 0
2, 103215, Note_on_c, 0, 43, 51
2, 103222, Note_on_c, 0, 70, 68
2, 103246, Control_c, 0, 64, 44
2, 103265, Control_c, 0, 64, 60
2, 103284, Control_c, 0, 64, 64
2, 103304, Control_c, 0, 64, 68
2, 103306, Note_on_c, 0, 70, 0
2, 103323, Control_c, 0, 64, 74
2, 103342, Control_c, 0, 64, 84
2, 103356, Note_on_c, 0, 61, 69
2, 103361, Control_c, 0, 64, 94
2, 103379, Note_on_c, 0, 43, 0
2, 103381, Control_c, 0, 64, 107
2, 103399, Control_c, 0, 64, 127
2, 103453, Note_on_c, 0, 61, 0
2, 103458, Control_c, 0, 64, 115
2, 103476, Control_c, 0, 64, 98
2, 103496, Control_c, 0, 64, 84
2, 103497, Note_on_c, 0, 63, 65
2, 103512, Note_on_c, 0, 55, 56
2, 103515, Control_c, 0, 64, 73
2, 103534, Control_c, 0, 64, 64
2, 103553, Control_c, 0, 64, 55
2, 103572, Control_c, 0, 64, 41
2, 103580, Note_on_c, 0, 63, 0
2, 103581, Note_on_c, 0, 55, 0
2, 103592, Control_c, 0, 64, 34
2, 103606, Note_on_c, 0, 61, 66
2, 103610, Control_c, 0, 64, 32
2, 103630, Control_c, 0, 64, 28
2, 103639, Note_on_c, 0, 53, 57
2, 103649, Control_c, 0, 64, 13
2, 103668, Control_c, 0, 64, 0
2, 103743, Note_on_c, 0, 61, 0
2, 103761, Note_on_c, 0, 70, 77
2, 103772, Note_on_c, 0, 53, 0
2, 103775, Note_on_c, 0, 55, 53
2, 103890, Note_on_c, 0, 55, 0
2, 103908, Note_on_c, 0, 56, 64
2, 104026, Note_on_c, 0, 56, 0
2, 104041, Note_on_c, 0, 58, 57
2, 104045, Note_on_c, 0, 61, 62
2, 104079, Note_on_c, 0, 61, 0
2, 104141, Note_on_c, 0, 58, 0
2, 104163, Note_on_c, 0, 55, 60
2, 104305, Note_on_c, 0, 52, 51
2, 104309, Note_on_c, 0, 55, 0
2, 104326, Note_on_c, 0, 67, 59
2, 104372, Note_on_c, 0, 70, 0
2, 104426, Note_on_c, 0, 53, 62
2, 104444, Note_on_c, 0, 52, 0
2, 104446, Note_on_c, 0, 68, 79
2, 104492, Note_on_c, 0, 67, 0
2, 104529, Note_on_c, 0, 53, 0
2, 104565, Note_on_c, 0, 55, 64
2, 104577, Note_on_c, 0, 70, 74
2, 104606, Note_on_c, 0, 68, 0
2, 104669, Note_on_c, 0, 70, 0
2, 104672, Note_on_c, 0, 55, 0
2, 104696, Note_on_c, 0, 52, 63
2, 104702, Note_on_c, 0, 67, 62
2, 104794, Note_on_c, 0, 52, 0
2, 104836, Note_on_c, 0, 67, 0
2, 104841, Note_on_c, 0, 79, 79
2, 104842, Note_on_c, 0, 48, 50
2, 104935, Note_on_c, 0, 48, 0
2, 104968, Note_on_c, 0, 70, 74
2, 104978, Note_on_c, 0, 50, 58
2, 105049, Note_on_c, 0, 50, 0
2, 105097, Note_on_c, 0, 72, 65
2, 105106, Note_on_c, 0, 70, 0
2, 105112, Note_on_c, 0, 52, 56
2, 105168, Note_on_c, 0, 72, 0
2, 105197, Note_on_c, 0, 52, 0
2, 105218, Note_on_c, 0, 48, 52
2, 105244, Note_on_c, 0, 67, 57
2, 105271, Note_on_c, 0, 79, 0
2, 105288, Note_on_c, 0, 48, 0
2, 105362, Note_on_c, 0, 68, 68
2, 105363, Note_on_c, 0, 67, 0
2, 105369, Note_on_c, 0, 41, 43
2, 105499, Note_on_c, 0, 76, 64
2, 105504, Note_on_c, 0, 43, 61
2, 105518, Note_on_c, 0, 41, 0
2, 105550, Control_c, 0, 64, 9
2, 105569, Control_c, 0, 64, 11
2, 105578, Note_on_c, 0, 68, 0
2, 105605, Control_c, 0, 64, 13
2, 105620, Note_on_c, 0, 44, 65
2, 105625, Note_on_c, 0, 77, 77
2, 105627, Note_on_c, 0, 43, 0
2, 105644, Control_c, 0, 64, 15
2, 105663, Control_c, 0, 64, 17
2, 105676, Note_on_c, 0, 76, 0
2, 105682, Control_c, 0, 64, 18
2, 105702, Control_c, 0, 64, 19
2, 105721, Control_c, 0, 64, 21
2, 105740, Control_c, 0, 64, 22
2, 105745, Note_on_c, 0, 73, 81
2, 105753, Note_on_c, 0, 77, 0
2, 105754, Note_on_c, 0, 46, 75
2, 105779, Control_c, 0, 64, 23
2, 105787, Note_on_c, 0, 44, 0
2, 105869, Note_on_c, 0, 46, 0
2, 105874, Control_c, 0, 64, 24
2, 105892, Note_on_c, 0, 70, 85
2, 105904, Note_on_c, 0, 48, 71
2, 105908, Note_on_c, 0, 73, 0
2, 105913, Control_c, 0, 64, 25
2, 105970, Control_c, 0, 64, 26
2, 106001, Note_on_c, 0, 50, 80
2, 106017, Note_on_c, 0, 48, 0
2, 106152, Note_on_c, 0, 52, 71
2, 106154, Note_on_c, 0, 60, 73
2, 106158, Note_on_c, 0, 50, 0
2, 106192, Note_on_c, 0, 60, 0
2, 106265, Note_on_c, 0, 52, 0
2, 106283, Note_on_c, 0, 48, 72
2, 106398, Note_on_c, 0, 48, 0
2, 106425, Note_on_c, 0, 61, 75
2, 106428, Note_on_c, 0, 53, 68
2, 106431, Control_c, 0, 64, 25
2, 106545, Note_on_c, 0, 61, 0
2, 106559, Note_on_c, 0, 60, 77
2, 106564, Note_on_c, 0, 51, 70
2, 106572, Note_on_c, 0, 53, 0
2, 106612, Note_on_c, 0, 70, 0
2, 106676, Note_on_c, 0, 51, 0
2, 106695, Note_on_c, 0, 58, 80
2, 106696, Note_on_c, 0, 49, 66
2, 106699, Note_on_c, 0, 60, 0
2, 106788, Note_on_c, 0, 58, 0
2, 106814, Note_on_c, 0, 51, 72
2, 106814, Note_on_c, 0, 60, 75
2, 106863, Note_on_c, 0, 49, 0
2, 106934, Note_on_c, 0, 60, 0
2, 106936, Note_on_c, 0, 51, 0
2, 106955, Note_on_c, 0, 68, 84
2, 106957, Note_on_c, 0, 53, 74
2, 106990, Control_c, 0, 64, 24
2, 107067, Control_c, 0, 64, 23
2, 107081, Note_on_c, 0, 51, 69
2, 107081, Note_on_c, 0, 53, 0
2, 107216, Note_on_c, 0, 65, 68
2, 107228, Note_on_c, 0, 49, 71
2, 107239, Control_c, 0, 64, 22
2, 107255, Note_on_c, 0, 51, 0
2, 107255, Note_on_c, 0, 65, 0
2, 107354, Note_on_c, 0, 49, 0
2, 107358, Note_on_c, 0, 48, 68
2, 107504, Note_on_c, 0, 48, 0
2, 107517, Note_on_c, 0, 49, 81
2, 107519, Note_on_c, 0, 60, 74
2, 107527, Control_c, 0, 64, 21
2, 107547, Control_c, 0, 64, 20
2, 107566, Control_c, 0, 64, 11
2, 107585, Control_c, 0, 64, 0
2, 107719, Control_c, 0, 64, 18
2, 107739, Control_c, 0, 64, 44
2, 107758, Control_c, 0, 64, 57
2, 107778, Control_c, 0, 64, 62
2, 107796, Control_c, 0, 64, 62
2, 107799, Note_on_c, 0, 60, 0
2, 107816, Control_c, 0, 64, 61
2, 107826, Note_on_c, 0, 58, 65
2, 107835, Control_c, 0, 64, 60
2, 107840, Note_on_c, 0, 68, 0
2, 107854, Control_c, 0, 64, 58
2, 107873, Control_c, 0, 64, 56
2, 107892, Control_c, 0, 64, 55
2, 107913, Note_on_c, 0, 58, 0
2, 107930, Control_c, 0, 64, 54
2, 107948, Note_on_c, 0, 56, 73
2, 107950, Control_c, 0, 64, 53
2, 107969, Control_c, 0, 64, 52
2, 107988, Control_c, 0, 64, 51
2, 108007, Control_c, 0, 64, 50
2, 108025, Note_on_c, 0, 56, 0
2, 108027, Control_c, 0, 64, 48
2, 108046, Control_c, 0, 64, 44
2, 108065, Control_c, 0, 64, 38
2, 108082, Note_on_c, 0, 58, 67
2, 108084, Control_c, 0, 64, 33
2, 108084, Note_on_c, 0, 67, 81
2, 108104, Control_c, 0, 64, 29
2, 108112, Note_on_c, 0, 67, 0
2, 108114, Note_on_c, 0, 58, 0
2, 108123, Control_c, 0, 64, 27
2, 108142, Control_c, 0, 64, 24
2, 108161, Control_c, 0, 64, 23
2, 108168, Note_on_c, 0, 49, 0
2, 108181, Control_c, 0, 64, 22
2, 108202, Note_on_c, 0, 48, 63
2, 108276, Control_c, 0, 64, 21
2, 108318, Note_on_c, 0, 48, 0
2, 108340, Note_on_c, 0, 67, 86
2, 108341, Note_on_c, 0, 46, 65
2, 108353, Control_c, 0, 64, 20
2, 108367, Note_on_c, 0, 67, 0
2, 108372, Control_c, 0, 64, 17
2, 108395, Control_c, 0, 64, 9
2, 108482, Note_on_c, 0, 49, 73
2, 108486, Control_c, 0, 64, 0
2, 108522, Note_on_c, 0, 46, 0
2, 108586, Note_on_c, 0, 49, 0
2, 108605, Note_on_c, 0, 56, 90
2, 108612, Note_on_c, 0, 48, 67
2, 108656, Note_on_c, 0, 56, 0
2, 108736, Note_on_c, 0, 48, 0
2, 108739, Note_on_c, 0, 46, 71
2, 108856, Note_on_c, 0, 46, 0
2, 108879, Note_on_c, 0, 44, 60
2, 108885, Note_on_c, 0, 65, 82
2, 108920, Note_on_c, 0, 65, 0
2, 108967, Note_on_c, 0, 44, 0
2, 109004, Note_on_c, 0, 48, 69
2, 109116, Note_on_c, 0, 48, 0
2, 109143, Note_on_c, 0, 46, 63
2, 109151, Note_on_c, 0, 55, 75
2, 109154, Note_on_c, 0, 64, 70
2, 109185, Note_on_c, 0, 55, 0
2, 109196, Note_on_c, 0, 64, 0
2, 109255, Note_on_c, 0, 46, 0
2, 109274, Note_on_c, 0, 44, 63
2, 109410, Control_c, 0, 64, 9
2, 109421, Note_on_c, 0, 46, 64
2, 109424, Note_on_c, 0, 67, 66
2, 109430, Note_on_c, 0, 44, 0
2, 109437, Note_on_c, 0, 64, 40
2, 109466, Note_on_c, 0, 67, 0
2, 109470, Note_on_c, 0, 64, 0
2, 109487, Control_c, 0, 64, 11
2, 109495, Note_on_c, 0, 46, 0
2, 109546, Note_on_c, 0, 43, 61
2, 109698, Note_on_c, 0, 43, 0
2, 109704, Note_on_c, 0, 72, 70
2, 109716, Note_on_c, 0, 44, 50
2, 109743, Note_on_c, 0, 53, 28
2, 109776, Note_on_c, 0, 44, 0
2, 109837, Note_on_c, 0, 70, 78
2, 109855, Note_on_c, 0, 72, 0
2, 109979, Note_on_c, 0, 68, 79
2, 109996, Note_on_c, 0, 48, 58
2, 110005, Control_c, 0, 64, 13
2, 110019, Note_on_c, 0, 70, 0
2, 110037, Note_on_c, 0, 48, 0
2, 110107, Note_on_c, 0, 72, 84
2, 110112, Note_on_c, 0, 68, 0
2, 110252, Note_on_c, 0, 43, 52
2, 110253, Note_on_c, 0, 70, 79
2, 110264, Note_on_c, 0, 72, 0
2, 110290, Note_on_c, 0, 43, 0
2, 110379, Note_on_c, 0, 68, 75
2, 110398, Note_on_c, 0, 70, 0
2, 110467, Note_on_c, 0, 68, 0
2, 110508, Note_on_c, 0, 48, 49
2, 110513, Note_on_c, 0, 52, 46
2, 110514, Note_on_c, 0, 67, 61
2, 110529, Note_on_c, 0, 53, 0
2, 110553, Note_on_c, 0, 48, 0
2, 110554, Note_on_c, 0, 52, 0
2, 110620, Note_on_c, 0, 67, 0
2, 110642, Note_on_c, 0, 70, 68
2, 110785, Note_on_c, 0, 41, 46
2, 110791, Note_on_c, 0, 68, 66
2, 110810, Note_on_c, 0, 53, 23
2, 110823, Note_on_c, 0, 70, 0
2, 110824, Note_on_c, 0, 41, 0
2, 110860, Note_on_c, 0, 53, 0
2, 110861, Note_on_c, 0, 68, 0
2, 110915, Note_on_c, 0, 65, 62
2, 110993, Note_on_c, 0, 65, 0
2, 111035, Note_on_c, 0, 52, 60
2, 111043, Note_on_c, 0, 46, 55
2, 111047, Note_on_c, 0, 73, 73
2, 111078, Note_on_c, 0, 46, 0
2, 111078, Note_on_c, 0, 52, 0
2, 111135, Note_on_c, 0, 73, 0
2, 111168, Note_on_c, 0, 70, 78
2, 111251, Note_on_c, 0, 70, 0
2, 111301, Note_on_c, 0, 72, 86
2, 111306, Note_on_c, 0, 53, 78
2, 111315, Note_on_c, 0, 44, 68
2, 111337, Note_on_c, 0, 53, 0
2, 111352, Note_on_c, 0, 44, 0
2, 111407, Note_on_c, 0, 72, 0
2, 111435, Note_on_c, 0, 68, 79
2, 111443, Control_c, 0, 64, 11
2, 111482, Control_c, 0, 64, 0
2, 111515, Note_on_c, 0, 68, 0
2, 111573, Note_on_c, 0, 78, 83
2, 111577, Note_on_c, 0, 58, 77
2, 111580, Note_on_c, 0, 49, 69
2, 111607, Note_on_c, 0, 58, 0
2, 111621, Note_on_c, 0, 49, 0
2, 111692, Note_on_c, 0, 78, 0
2, 111697, Note_on_c, 0, 76, 83
2, 111762, Note_on_c, 0, 76, 0
2, 111848, Note_on_c, 0, 48, 44
2, 111848, Note_on_c, 0, 76, 76
2, 111860, Note_on_c, 0, 56, 59
2, 111977, Note_on_c, 0, 77, 82
2, 111988, Note_on_c, 0, 76, 0
2, 112087, Note_on_c, 0, 56, 0
2, 112099, Note_on_c, 0, 77, 0
2, 112102, Note_on_c, 0, 55, 52
2, 112114, Note_on_c, 0, 83, 77
2, 112176, Control_c, 0, 64, 36
2, 112195, Control_c, 0, 64, 62
2, 112202, Note_on_c, 0, 55, 0
2, 112214, Control_c, 0, 64, 68
2, 112230, Note_on_c, 0, 53, 47
2, 112236, Control_c, 0, 64, 81
2, 112236, Note_on_c, 0, 84, 71
2, 112241, Note_on_c, 0, 83, 0
2, 112255, Control_c, 0, 64, 127
2, 112272, Note_on_c, 0, 84, 0
2, 112371, Note_on_c, 0, 55, 53
2, 112390, Note_on_c, 0, 77, 66
2, 112409, Control_c, 0, 64, 92
2, 112425, Note_on_c, 0, 77, 0
2, 112429, Control_c, 0, 64, 76
2, 112436, Note_on_c, 0, 76, 70
2, 112447, Control_c, 0, 64, 66
2, 112467, Control_c, 0, 64, 52
2, 112476, Note_on_c, 0, 76, 0
2, 112486, Control_c, 0, 64, 0
2, 112493, Note_on_c, 0, 77, 77
2, 112495, Note_on_c, 0, 53, 0
2, 112525, Note_on_c, 0, 77, 0
2, 112542, Note_on_c, 0, 76, 78
2, 112633, Note_on_c, 0, 48, 0
2, 112665, Note_on_c, 0, 55, 0
2, 112688, Note_on_c, 0, 58, 58
2, 112819, Note_on_c, 0, 77, 71
2, 112824, Note_on_c, 0, 76, 0
2, 112860, Note_on_c, 0, 77, 0
2, 112921, Note_on_c, 0, 58, 0
2, 112942, Note_on_c, 0, 56, 51
2, 112964, Note_on_c, 0, 77, 66
2, 112976, Note_on_c, 0, 53, 42
2, 113078, Note_on_c, 0, 58, 55
2, 113090, Note_on_c, 0, 53, 0
2, 113121, Note_on_c, 0, 56, 0
2, 113199, Note_on_c, 0, 58, 0
2, 113227, Note_on_c, 0, 60, 57
2, 113244, Note_on_c, 0, 77, 0
2, 113310, Note_on_c, 0, 60, 0
2, 113378, Note_on_c, 0, 56, 44
2, 113444, Note_on_c, 0, 56, 0
2, 113516, Note_on_c, 0, 53, 41
2, 113632, Note_on_c, 0, 53, 0
2, 113637, Note_on_c, 0, 54, 64
2, 113720, Note_on_c, 0, 54, 0
2, 113766, Note_on_c, 0, 77, 73
2, 113771, Note_on_c, 0, 56, 60
2, 113797, Note_on_c, 0, 77, 0
2, 113857, Note_on_c, 0, 56, 0
2, 113884, Note_on_c, 0, 53, 68
2, 114007, Note_on_c, 0, 53, 0
2, 114030, Note_on_c, 0, 50, 47
2, 114037, Note_on_c, 0, 71, 61
2, 114140, Note_on_c, 0, 50, 0
2, 114151, Note_on_c, 0, 51, 57
2, 114162, Note_on_c, 0, 70, 65
2, 114175, Note_on_c, 0, 71, 0
2, 114242, Note_on_c, 0, 51, 0
2, 114245, Note_on_c, 0, 70, 0
2, 114285, Note_on_c, 0, 53, 66
2, 114291, Note_on_c, 0, 68, 74
2, 114373, Note_on_c, 0, 53, 0
2, 114387, Note_on_c, 0, 68, 0
2, 114424, Note_on_c, 0, 70, 68
2, 114435, Note_on_c, 0, 49, 39
2, 114513, Note_on_c, 0, 70, 0
2, 114540, Note_on_c, 0, 49, 0
2, 114551, Note_on_c, 0, 77, 76
2, 114596, Note_on_c, 0, 77, 0
2, 114602, Note_on_c, 0, 46, 57
2, 114711, Note_on_c, 0, 50, 62
2, 114736, Note_on_c, 0, 46, 0
2, 114824, Note_on_c, 0, 74, 65
2, 114838, Note_on_c, 0, 53, 66
2, 114839, Note_on_c, 0, 50, 0
2, 114860, Note_on_c, 0, 74, 0
2, 114934, Note_on_c, 0, 53, 0
2, 114969, Note_on_c, 0, 58, 59
2, 115086, Note_on_c, 0, 58, 0
2, 115104, Note_on_c, 0, 51, 45
2, 115114, Note_on_c, 0, 68, 72
2, 115207, Note_on_c, 0, 51, 0
2, 115216, Note_on_c, 0, 54, 66
2, 115349, Note_on_c, 0, 58, 61
2, 115363, Note_on_c, 0, 54, 0
2, 115383, Note_on_c, 0, 66, 76
2, 115407, Note_on_c, 0, 68, 0
2, 115438, Note_on_c, 0, 58, 0
2, 115470, Note_on_c, 0, 66, 0
2, 115496, Note_on_c, 0, 62, 55
2, 115504, Note_on_c, 0, 65, 66
2, 115573, Note_on_c, 0, 62, 0
2, 115606, Note_on_c, 0, 65, 0
2, 115641, Note_on_c, 0, 66, 65
2, 115653, Note_on_c, 0, 63, 49
2, 115674, Note_on_c, 0, 66, 0
2, 115732, Note_on_c, 0, 63, 0
2, 115771, Note_on_c, 0, 65, 57
2, 115895, Note_on_c, 0, 65, 0
2, 115905, Note_on_c, 0, 75, 73
2, 115916, Note_on_c, 0, 66, 61
2, 115937, Note_on_c, 0, 75, 0
2, 116043, Note_on_c, 0, 63, 62
2, 116046, Note_on_c, 0, 66, 0
2, 116142, Note_on_c, 0, 63, 0
2, 116162, Note_on_c, 0, 69, 79
2, 116171, Note_on_c, 0, 60, 55
2, 116290, Note_on_c, 0, 68, 69
2, 116297, Note_on_c, 0, 61, 63
2, 116298, Note_on_c, 0, 60, 0
2, 116307, Note_on_c, 0, 69, 0
2, 116417, Note_on_c, 0, 68, 0
2, 116420, Note_on_c, 0, 61, 0
2, 116421, Note_on_c, 0, 63, 66
2, 116421, Note_on_c, 0, 66, 74
2, 116476, Control_c, 0, 64, 47
2, 116495, Control_c, 0, 64, 63
2, 116514, Control_c, 0, 64, 69
2, 116533, Control_c, 0, 64, 78
2, 116535, Note_on_c, 0, 66, 0
2, 116543, Note_on_c, 0, 63, 0
2, 116550, Note_on_c, 0, 68, 83
2, 116553, Control_c, 0, 64, 95
2, 116560, Note_on_c, 0, 60, 51
2, 116571, Control_c, 0, 64, 127
2, 116594, Note_on_c, 0, 60, 0
2, 116621, Note_on_c, 0, 68, 0
2, 116648, Control_c, 0, 64, 107
2, 116668, Control_c, 0, 64, 78
2, 116673, Note_on_c, 0, 75, 84
2, 116686, Note_on_c, 0, 56, 68
2, 116687, Control_c, 0, 64, 63
2, 116703, Note_on_c, 0, 75, 0
2, 116705, Control_c, 0, 64, 0
2, 116803, Note_on_c, 0, 44, 52
2, 116938, Note_on_c, 0, 72, 73
2, 116943, Note_on_c, 0, 46, 55
2, 116975, Note_on_c, 0, 72, 0
2, 117016, Note_on_c, 0, 56, 0
2, 117021, Note_on_c, 0, 44, 0
2, 117072, Note_on_c, 0, 48, 61
2, 117089, Note_on_c, 0, 46, 0
2, 117213, Note_on_c, 0, 66, 60
2, 117218, Note_on_c, 0, 48, 0
2, 117222, Note_on_c, 0, 49, 66
2, 117329, Note_on_c, 0, 49, 0
2, 117352, Note_on_c, 0, 56, 67
2, 117424, Note_on_c, 0, 66, 0
2, 117457, Note_on_c, 0, 65, 59
2, 117475, Note_on_c, 0, 56, 0
2, 117491, Note_on_c, 0, 58, 65
2, 117596, Note_on_c, 0, 58, 0
2, 117598, Note_on_c, 0, 63, 76
2, 117603, Note_on_c, 0, 65, 0
2, 117609, Note_on_c, 0, 60, 69
2, 117684, Note_on_c, 0, 63, 0
2, 117731, Note_on_c, 0, 65, 70
2, 117734, Note_on_c, 0, 61, 70
2, 117739, Note_on_c, 0, 60, 0
2, 117843, Note_on_c, 0, 61, 0
2, 117849, Note_on_c, 0, 65, 0
2, 117853, Note_on_c, 0, 68, 77
2, 117860, Note_on_c, 0, 51, 65
2, 117980, Note_on_c, 0, 68, 0
2, 117982, Note_on_c, 0, 51, 0
2, 117994, Note_on_c, 0, 73, 80
2, 117996, Note_on_c, 0, 53, 69
2, 118107, Note_on_c, 0, 73, 0
2, 118121, Note_on_c, 0, 75, 88
2, 118125, Note_on_c, 0, 55, 74
2, 118143, Note_on_c, 0, 53, 0
2, 118248, Note_on_c, 0, 56, 80
2, 118251, Note_on_c, 0, 77, 89
2, 118252, Note_on_c, 0, 55, 0
2, 118266, Note_on_c, 0, 75, 0
2, 118378, Note_on_c, 0, 75, 88
2, 118382, Note_on_c, 0, 55, 79
2, 118400, Note_on_c, 0, 56, 0
2, 118400, Note_on_c, 0, 77, 0
2, 118503, Note_on_c, 0, 55, 0
2, 118503, Note_on_c, 0, 73, 92
2, 118507, Note_on_c, 0, 53, 70
2, 118520, Note_on_c, 0, 75, 0
2, 118534, Control_c, 0, 64, 48
2, 118554, Control_c, 0, 64, 64
2, 118573, Control_c, 0, 64, 70
2, 118593, Control_c, 0, 64, 76
2, 118611, Control_c, 0, 64, 83
2, 118627, Note_on_c, 0, 55, 80
2, 118627, Note_on_c, 0, 75, 95
2, 118631, Control_c, 0, 64, 88
2, 118650, Control_c, 0, 64, 91
2, 118653, Note_on_c, 0, 53, 0
2, 118669, Control_c, 0, 64, 93
2, 118680, Note_on_c, 0, 73, 0
2, 118688, Control_c, 0, 64, 93
2, 118696, Note_on_c, 0, 75, 0
2, 118708, Control_c, 0, 64, 87
2, 118727, Control_c, 0, 64, 74
2, 118746, Control_c, 0, 64, 61
2, 118758, Note_on_c, 0, 55, 0
2, 118759, Note_on_c, 0, 56, 83
2, 118762, Note_on_c, 0, 72, 87
2, 118763, Note_on_c, 0, 84, 94
2, 118765, Control_c, 0, 64, 0
2, 118813, Note_on_c, 0, 84, 0
2, 118852, Note_on_c, 0, 56, 0
2, 118885, Note_on_c, 0, 55, 77
2, 119025, Note_on_c, 0, 80, 89
2, 119031, Note_on_c, 0, 53, 77
2, 119044, Note_on_c, 0, 55, 0
2, 119050, Note_on_c, 0, 80, 0
2, 119086, Note_on_c, 0, 72, 0
2, 119143, Note_on_c, 0, 51, 73
2, 119148, Note_on_c, 0, 53, 0
2, 119289, Note_on_c, 0, 53, 84
2, 119298, Note_on_c, 0, 75, 93
2, 119354, Note_on_c, 0, 51, 0
2, 119583, Control_c, 0, 64, 11
2, 119602, Control_c, 0, 64, 58
2, 119603, Note_on_c, 0, 73, 84
2, 119622, Control_c, 0, 64, 66
2, 119641, Control_c, 0, 64, 71
2, 119659, Note_on_c, 0, 75, 0
2, 119660, Control_c, 0, 64, 76
2, 119679, Control_c, 0, 64, 80
2, 119699, Control_c, 0, 64, 81
2, 119700, Note_on_c, 0, 73, 0
2, 119718, Control_c, 0, 64, 80
2, 119722, Note_on_c, 0, 72, 87
2, 119737, Control_c, 0, 64, 78
2, 119756, Control_c, 0, 64, 74
2, 119775, Control_c, 0, 64, 70
2, 119794, Control_c, 0, 64, 65
2, 119813, Control_c, 0, 64, 59
2, 119833, Control_c, 0, 64, 32
2, 119852, Control_c, 0, 64, 0
2, 119865, Note_on_c, 0, 70, 78
2, 119866, Note_on_c, 0, 73, 76
2, 119870, Note_on_c, 0, 72, 0
2, 119937, Note_on_c, 0, 73, 0
2, 120003, Note_on_c, 0, 51, 68
2, 120033, Note_on_c, 0, 53, 0
2, 120135, Note_on_c, 0, 49, 70
2, 120135, Note_on_c, 0, 82, 85
2, 120149, Note_on_c, 0, 51, 0
2, 120178, Note_on_c, 0, 82, 0
2, 120228, Note_on_c, 0, 49, 0
2, 120270, Note_on_c, 0, 53, 72
2, 120397, Note_on_c, 0, 72, 79
2, 120399, Note_on_c, 0, 51, 70
2, 120400, Note_on_c, 0, 53, 0
2, 120401, Note_on_c, 0, 70, 0
2, 120428, Note_on_c, 0, 72, 0
2, 120527, Note_on_c, 0, 51, 0
2, 120537, Note_on_c, 0, 49, 68
2, 120663, Note_on_c, 0, 48, 62
2, 120663, Note_on_c, 0, 49, 0
2, 120664, Note_on_c, 0, 80, 81
2, 120672, Note_on_c, 0, 68, 77
2, 120693, Note_on_c, 0, 80, 0
2, 120703, Note_on_c, 0, 68, 0
2, 120779, Note_on_c, 0, 48, 0
2, 120800, Note_on_c, 0, 51, 64
2, 120922, Note_on_c, 0, 67, 66
2, 120930, Note_on_c, 0, 51, 0
2, 120930, Note_on_c, 0, 70, 67
2, 120931, Note_on_c, 0, 49, 66
2, 120959, Note_on_c, 0, 67, 0
2, 120962, Note_on_c, 0, 70, 0
2, 121041, Note_on_c, 0, 49, 0
2, 121049, Note_on_c, 0, 48, 58
2, 121175, Note_on_c, 0, 48, 0
2, 121187, Note_on_c, 0, 46, 63
2, 121205, Note_on_c, 0, 70, 65
2, 121240, Note_on_c, 0, 70, 0
2, 121339, Note_on_c, 0, 49, 58
2, 121344, Note_on_c, 0, 46, 0
2, 121462, Note_on_c, 0, 68, 58
2, 121464, Note_on_c, 0, 48, 52
2, 121466, Note_on_c, 0, 63, 54
2, 121473, Note_on_c, 0, 49, 0
2, 121503, Note_on_c, 0, 48, 0
2, 121503, Note_on_c, 0, 63, 0
2, 121603, Note_on_c, 0, 63, 60
2, 121646, Note_on_c, 0, 68, 0
2, 121669, Note_on_c, 0, 63, 0
2, 121713, Note_on_c, 0, 51, 60
2, 121718, Note_on_c, 0, 65, 63
2, 121751, Note_on_c, 0, 51, 0
2, 121807, Note_on_c, 0, 65, 0
2, 121848, Note_on_c, 0, 67, 61
2, 121985, Note_on_c, 0, 67, 0
2, 121989, Note_on_c, 0, 54, 67
2, 121993, Note_on_c, 0, 68, 60
2, 122118, Note_on_c, 0, 70, 58
2, 122128, Note_on_c, 0, 68, 0
2, 122253, Note_on_c, 0, 56, 76
2, 122266, Note_on_c, 0, 72, 65
2, 122282, Note_on_c, 0, 70, 0
2, 122293, Note_on_c, 0, 56, 0
2, 122358, Note_on_c, 0, 72, 0
2, 122395, Note_on_c, 0, 68, 71
2, 122511, Note_on_c, 0, 68, 0
2, 122541, Note_on_c, 0, 73, 64
2, 122542, Note_on_c, 0, 58, 70
2, 122675, Note_on_c, 0, 56, 82
2, 122675, Note_on_c, 0, 72, 73
2, 122681, Note_on_c, 0, 73, 0
2, 122682, Note_on_c, 0, 54, 0
2, 122736, Note_on_c, 0, 58, 0
2, 122802, Note_on_c, 0, 70, 84
2, 122808, Note_on_c, 0, 54, 81
2, 122808, Note_on_c, 0, 72, 0
2, 122811, Note_on_c, 0, 56, 0
2, 122923, Note_on_c, 0, 70, 0
2, 122928, Note_on_c, 0, 72, 89
2, 122930, Note_on_c, 0, 56, 77
2, 122950, Note_on_c, 0, 54, 0
2, 123057, Note_on_c, 0, 65, 74
2, 123058, Note_on_c, 0, 53, 73
2, 123064, Note_on_c, 0, 73, 85
2, 123071, Note_on_c, 0, 72, 0
2, 123082, Note_on_c, 0, 56, 0
2, 123094, Note_on_c, 0, 65, 0
2, 123166, Note_on_c, 0, 73, 0
2, 123190, Note_on_c, 0, 72, 77
2, 123339, Note_on_c, 0, 61, 62
2, 123346, Note_on_c, 0, 70, 81
2, 123354, Note_on_c, 0, 72, 0
2, 123372, Note_on_c, 0, 61, 0
2, 123471, Note_on_c, 0, 68, 76
2, 123482, Note_on_c, 0, 70, 0
2, 123608, Note_on_c, 0, 56, 70
2, 123618, Note_on_c, 0, 70, 81
2, 123621, Note_on_c, 0, 68, 0
2, 123714, Note_on_c, 0, 53, 0
2, 123909, Note_on_c, 0, 54, 71
2, 123966, Note_on_c, 0, 56, 0
2, 124030, Note_on_c, 0, 53, 69
2, 124030, Note_on_c, 0, 54, 0
2, 124170, Note_on_c, 0, 54, 62
2, 124172, Note_on_c, 0, 53, 0
2, 124180, Note_on_c, 0, 51, 54
2, 124215, Note_on_c, 0, 54, 0
2, 124282, Note_on_c, 0, 68, 64
2, 124369, Note_on_c, 0, 70, 0
2, 124410, Note_on_c, 0, 68, 0
2, 124422, Note_on_c, 0, 66, 65
2, 124436, Note_on_c, 0, 63, 57
2, 124465, Note_on_c, 0, 63, 0
2, 124551, Note_on_c, 0, 70, 67
2, 124560, Note_on_c, 0, 66, 0
2, 124690, Note_on_c, 0, 53, 50
2, 124694, Note_on_c, 0, 70, 0
2, 124699, Note_on_c, 0, 68, 68
2, 124725, Note_on_c, 0, 53, 0
2, 124834, Note_on_c, 0, 66, 60
2, 124855, Note_on_c, 0, 68, 0
2, 124922, Note_on_c, 0, 66, 0
2, 124940, Note_on_c, 0, 51, 0
2, 124945, Note_on_c, 0, 49, 58
2, 124956, Note_on_c, 0, 61, 45
2, 124966, Note_on_c, 0, 65, 58
2, 124991, Note_on_c, 0, 49, 0
2, 124993, Note_on_c, 0, 61, 0
2, 125065, Note_on_c, 0, 65, 0
2, 125098, Note_on_c, 0, 68, 65
2, 125219, Note_on_c, 0, 51, 57
2, 125223, Note_on_c, 0, 68, 0
2, 125236, Note_on_c, 0, 66, 65
2, 125260, Note_on_c, 0, 51, 0
2, 125346, Note_on_c, 0, 66, 0
2, 125364, Note_on_c, 0, 65, 57
2, 125470, Note_on_c, 0, 65, 0
2, 125491, Note_on_c, 0, 63, 65
2, 125494, Note_on_c, 0, 44, 52
2, 125539, Note_on_c, 0, 60, 41
2, 125541, Note_on_c, 0, 44, 0
2, 125582, Note_on_c, 0, 60, 0
2, 125630, Note_on_c, 0, 66, 61
2, 125631, Note_on_c, 0, 63, 0
2, 125711, Note_on_c, 0, 66, 0
2, 125776, Note_on_c, 0, 49, 47
2, 125776, Note_on_c, 0, 61, 53
2, 125784, Note_on_c, 0, 65, 42
2, 125813, Note_on_c, 0, 61, 0
2, 125817, Note_on_c, 0, 65, 0
2, 125907, Note_on_c, 0, 51, 57
2, 125934, Note_on_c, 0, 49, 0
2, 126017, Note_on_c, 0, 51, 0
2, 126036, Note_on_c, 0, 68, 77
2, 126040, Note_on_c, 0, 53, 62
2, 126063, Note_on_c, 0, 68, 0
2, 126168, Note_on_c, 0, 53, 0
2, 126171, Note_on_c, 0, 54, 69
2, 126278, Note_on_c, 0, 54, 0
2, 126307, Note_on_c, 0, 73, 77
2, 126314, Note_on_c, 0, 53, 62
2, 126437, Note_on_c, 0, 51, 71
2, 126441, Note_on_c, 0, 53, 0
2, 126561, Note_on_c, 0, 51, 0
2, 126570, Note_on_c, 0, 49, 71
2, 126578, Note_on_c, 0, 80, 83
2, 126599, Note_on_c, 0, 73, 0
2, 126696, Note_on_c, 0, 53, 71
2, 126698, Note_on_c, 0, 77, 84
2, 126704, Note_on_c, 0, 49, 0
2, 126734, Note_on_c, 0, 80, 0
2, 126796, Note_on_c, 0, 53, 0
2, 126835, Note_on_c, 0, 58, 72
2, 126838, Note_on_c, 0, 73, 84
2, 126856, Note_on_c, 0, 77, 0
2, 126953, Note_on_c, 0, 56, 76
2, 126953, Note_on_c, 0, 58, 0
2, 127083, Note_on_c, 0, 55, 75
2, 127101, Note_on_c, 0, 76, 82
2, 127119, Note_on_c, 0, 73, 0
2, 127160, Note_on_c, 0, 56, 0
2, 127215, Note_on_c, 0, 58, 78
2, 127233, Note_on_c, 0, 73, 89
2, 127245, Note_on_c, 0, 76, 0
2, 127248, Note_on_c, 0, 55, 0
2, 127353, Note_on_c, 0, 58, 0
2, 127361, Note_on_c, 0, 61, 81
2, 127361, Note_on_c, 0, 70, 91
2, 127414, Note_on_c, 0, 73, 0
2, 127489, Note_on_c, 0, 59, 81
2, 127495, Note_on_c, 0, 61, 0
2, 127614, Note_on_c, 0, 58, 79
2, 127616, Note_on_c, 0, 59, 0
2, 127630, Note_on_c, 0, 73, 85
2, 127664, Note_on_c, 0, 70, 0
2, 127752, Note_on_c, 0, 61, 76
2, 127756, Note_on_c, 0, 70, 92
2, 127792, Note_on_c, 0, 58, 0
2, 127812, Note_on_c, 0, 73, 0
2, 127896, Note_on_c, 0, 64, 74
2, 127903, Note_on_c, 0, 67, 81
2, 127947, Note_on_c, 0, 61, 0
2, 127959, Note_on_c, 0, 70, 0
2, 128091, Control_c, 0, 64, 49
2, 128111, Control_c, 0, 64, 63
2, 128130, Control_c, 0, 64, 69
2, 128150, Control_c, 0, 64, 81
2, 128168, Control_c, 0, 64, 102
2, 128187, Control_c, 0, 64, 127
2, 128203, Note_on_c, 0, 70, 89
2, 128205, Note_on_c, 0, 63, 76
2, 128226, Note_on_c, 0, 64, 0
2, 128263, Note_on_c, 0, 67, 0
2, 128302, Control_c, 0, 64, 123
2, 128322, Control_c, 0, 64, 95
2, 128327, Note_on_c, 0, 61, 74
2, 128327, Note_on_c, 0, 73, 93
2, 128341, Control_c, 0, 64, 81
2, 128352, Note_on_c, 0, 70, 0
2, 128361, Control_c, 0, 64, 70
2, 128362, Note_on_c, 0, 63, 0
2, 128379, Control_c, 0, 64, 62
2, 128399, Control_c, 0, 64, 50
2, 128418, Control_c, 0, 64, 34
2, 128437, Control_c, 0, 64, 29
2, 128443, Note_on_c, 0, 61, 0
2, 128456, Control_c, 0, 64, 20
2, 128458, Note_on_c, 0, 59, 70
2, 128460, Note_on_c, 0, 76, 86
2, 128476, Control_c, 0, 64, 0
2, 128477, Note_on_c, 0, 73, 0
2, 128596, Note_on_c, 0, 58, 68
2, 128602, Note_on_c, 0, 59, 0
2, 128722, Note_on_c, 0, 56, 70
2, 128735, Note_on_c, 0, 58, 0
2, 128735, Note_on_c, 0, 73, 66
2, 128766, Note_on_c, 0, 73, 0
2, 128842, Note_on_c, 0, 56, 0
2, 128857, Note_on_c, 0, 55, 62
2, 128975, Note_on_c, 0, 76, 0
2, 128993, Note_on_c, 0, 75, 86
2, 128994, Note_on_c, 0, 71, 85
2, 129001, Note_on_c, 0, 56, 71
2, 129009, Note_on_c, 0, 55, 0
2, 129019, Note_on_c, 0, 75, 0
2, 129095, Note_on_c, 0, 56, 0
2, 129130, Note_on_c, 0, 59, 70
2, 129277, Note_on_c, 0, 58, 70
2, 129278, Note_on_c, 0, 59, 0
2, 129283, Note_on_c, 0, 80, 68
2, 129320, Note_on_c, 0, 80, 0
2, 129406, Note_on_c, 0, 56, 67
2, 129417, Note_on_c, 0, 58, 0
2, 129526, Note_on_c, 0, 56, 0
2, 129543, Note_on_c, 0, 70, 77
2, 129547, Note_on_c, 0, 55, 64
2, 129553, Note_on_c, 0, 73, 71
2, 129559, Note_on_c, 0, 71, 0
2, 129624, Note_on_c, 0, 73, 0
2, 129653, Note_on_c, 0, 55, 0
2, 129673, Note_on_c, 0, 53, 68
2, 129801, Note_on_c, 0, 51, 63
2, 129806, Note_on_c, 0, 53, 0
2, 129824, Note_on_c, 0, 79, 67
2, 129863, Note_on_c, 0, 79, 0
2, 129918, Note_on_c, 0, 51, 0
2, 129930, Note_on_c, 0, 49, 65
2, 130044, Note_on_c, 0, 70, 0
2, 130049, Control_c, 0, 64, 9
2, 130077, Note_on_c, 0, 49, 0
2, 130078, Note_on_c, 0, 68, 72
2, 130080, Note_on_c, 0, 47, 60
2, 130116, Note_on_c, 0, 68, 0
2, 130212, Note_on_c, 0, 49, 73
2, 130230, Note_on_c, 0, 47, 0
2, 130353, Note_on_c, 0, 49, 0
2, 130353, Note_on_c, 0, 51, 66
2, 130361, Note_on_c, 0, 80, 77
2, 130451, Note_on_c, 0, 51, 0
2, 130455, Note_on_c, 0, 80, 0
2, 130478, Note_on_c, 0, 79, 87
2, 130486, Note_on_c, 0, 47, 72
2, 130587, Control_c, 0, 64, 0
2, 130592, Note_on_c, 0, 47, 0
2, 130613, Note_on_c, 0, 80, 90
2, 130622, Note_on_c, 0, 44, 66
2, 130657, Note_on_c, 0, 79, 0
2, 130661, Note_on_c, 0, 44, 0
2, 130741, Note_on_c, 0, 82, 92
2, 130756, Note_on_c, 0, 80, 0
2, 130871, Note_on_c, 0, 83, 84
2, 130879, Note_on_c, 0, 56, 73
2, 130901, Note_on_c, 0, 82, 0
2, 130994, Note_on_c, 0, 53, 70
2, 130999, Note_on_c, 0, 80, 94
2, 131000, Note_on_c, 0, 56, 0
2, 131032, Note_on_c, 0, 83, 0
2, 131114, Note_on_c, 0, 80, 0
2, 131133, Note_on_c, 0, 49, 71
2, 131134, Note_on_c, 0, 77, 78
2, 131136, Note_on_c, 0, 53, 0
2, 131177, Note_on_c, 0, 49, 0
2, 131267, Note_on_c, 0, 78, 85
2, 131286, Note_on_c, 0, 77, 0
2, 131398, Note_on_c, 0, 80, 85
2, 131408, Note_on_c, 0, 59, 65
2, 131439, Note_on_c, 0, 78, 0
2, 131514, Note_on_c, 0, 59, 0
2, 131522, Note_on_c, 0, 77, 77
2, 131530, Note_on_c, 0, 56, 73
2, 131579, Note_on_c, 0, 80, 0
2, 131647, Note_on_c, 0, 77, 0
2, 131658, Note_on_c, 0, 73, 75
2, 131662, Note_on_c, 0, 53, 64
2, 131681, Note_on_c, 0, 56, 0
2, 131701, Note_on_c, 0, 53, 0
2, 131764, Note_on_c, 0, 73, 0
2, 131784, Note_on_c, 0, 75, 80
2, 131915, Note_on_c, 0, 49, 67
2, 131924, Note_on_c, 0, 77, 70
2, 131926, Note_on_c, 0, 75, 0
2, 132028, Note_on_c, 0, 77, 0
2, 132038, Note_on_c, 0, 49, 0
2, 132040, Note_on_c, 0, 73, 72
2, 132049, Note_on_c, 0, 46, 59
2, 132172, Note_on_c, 0, 42, 66
2, 132175, Note_on_c, 0, 70, 69
2, 132177, Note_on_c, 0, 46, 0
2, 132201, Note_on_c, 0, 73, 0
2, 132210, Note_on_c, 0, 42, 0
2, 132276, Note_on_c, 0, 70, 0
2, 132294, Note_on_c, 0, 72, 68
2, 132430, Note_on_c, 0, 58, 62
2, 132441, Note_on_c, 0, 73, 73
2, 132472, Note_on_c, 0, 72, 0
2, 132531, Note_on_c, 0, 73, 0
2, 132554, Note_on_c, 0, 58, 0
2, 132557, Note_on_c, 0, 54, 66
2, 132572, Note_on_c, 0, 70, 76
2, 132672, Note_on_c, 0, 54, 0
2, 132681, Note_on_c, 0, 51, 51
2, 132711, Note_on_c, 0, 78, 76
2, 132712, Note_on_c, 0, 70, 0
2, 132726, Note_on_c, 0, 51, 0
2, 132841, Note_on_c, 0, 80, 88
2, 132858, Note_on_c, 0, 78, 0
2, 132962, Note_on_c, 0, 82, 92
2, 132976, Note_on_c, 0, 54, 66
2, 132999, Note_on_c, 0, 80, 0
2, 133087, Note_on_c, 0, 78, 84
2, 133095, Note_on_c, 0, 51, 65
2, 133111, Note_on_c, 0, 54, 0
2, 133168, Note_on_c, 0, 82, 0
2, 133221, Note_on_c, 0, 48, 59
2, 133222, Note_on_c, 0, 51, 0
2, 133227, Note_on_c, 0, 75, 88
2, 133232, Note_on_c, 0, 78, 0
2, 133241, Note_on_c, 0, 82, 52
2, 133260, Note_on_c, 0, 48, 0
2, 133293, Note_on_c, 0, 82, 0
2, 133357, Note_on_c, 0, 77, 77
2, 133375, Note_on_c, 0, 75, 0
2, 133491, Note_on_c, 0, 78, 86
2, 133492, Note_on_c, 0, 58, 56
2, 133533, Note_on_c, 0, 77, 0
2, 133582, Note_on_c, 0, 78, 0
2, 133603, Note_on_c, 0, 58, 0
2, 133604, Note_on_c, 0, 75, 80
2, 133618, Note_on_c, 0, 54, 64
2, 133732, Note_on_c, 0, 75, 0
2, 133743, Note_on_c, 0, 51, 60
2, 133749, Note_on_c, 0, 72, 73
2, 133755, Note_on_c, 0, 54, 0
2, 133778, Note_on_c, 0, 51, 0
2, 133874, Note_on_c, 0, 72, 0
2, 133881, Note_on_c, 0, 73, 77
2, 134013, Note_on_c, 0, 48, 49
2, 134014, Note_on_c, 0, 75, 77
2, 134029, Note_on_c, 0, 73, 0
2, 134126, Note_on_c, 0, 48, 0
2, 134132, Note_on_c, 0, 44, 57
2, 134135, Note_on_c, 0, 72, 66
2, 134182, Note_on_c, 0, 75, 0
2, 134226, Note_on_c, 0, 72, 0
2, 134258, Note_on_c, 0, 44, 0
2, 134268, Note_on_c, 0, 41, 46
2, 134272, Note_on_c, 0, 68, 68
2, 134305, Note_on_c, 0, 41, 0
2, 134367, Note_on_c, 0, 68, 0
2, 134383, Note_on_c, 0, 70, 70
2, 134516, Note_on_c, 0, 72, 65
2, 134518, Note_on_c, 0, 56, 61
2, 134521, Note_on_c, 0, 70, 0
2, 134595, Note_on_c, 0, 72, 0
2, 134638, Note_on_c, 0, 56, 0
2, 134648, Note_on_c, 0, 53, 58
2, 134648, Note_on_c, 0, 68, 68
2, 134736, Note_on_c, 0, 68, 0
2, 134755, Note_on_c, 0, 53, 0
2, 134770, Note_on_c, 0, 50, 56
2, 134796, Note_on_c, 0, 77, 70
2, 134818, Note_on_c, 0, 50, 0
2, 134918, Note_on_c, 0, 78, 73
2, 134940, Note_on_c, 0, 77, 0
2, 135025, Note_on_c, 0, 53, 66
2, 135052, Note_on_c, 0, 80, 80
2, 135075, Note_on_c, 0, 78, 0
2, 135125, Note_on_c, 0, 53, 0
2, 135156, Note_on_c, 0, 50, 59
2, 135172, Note_on_c, 0, 77, 77
2, 135201, Note_on_c, 0, 80, 0
2, 135266, Note_on_c, 0, 77, 0
2, 135289, Note_on_c, 0, 46, 62
2, 135289, Note_on_c, 0, 50, 0
2, 135302, Note_on_c, 0, 74, 76
2, 135323, Note_on_c, 0, 46, 0
2, 135429, Note_on_c, 0, 75, 77
2, 135437, Note_on_c, 0, 74, 0
2, 135558, Note_on_c, 0, 77, 73
2, 135571, Note_on_c, 0, 56, 63
2, 135572, Note_on_c, 0, 75, 0
2, 135680, Note_on_c, 0, 56, 0
2, 135682, Note_on_c, 0, 74, 69
2, 135688, Note_on_c, 0, 77, 0
2, 135691, Note_on_c, 0, 53, 63
2, 135800, Note_on_c, 0, 74, 0
2, 135820, Note_on_c, 0, 70, 73
2, 135821, Note_on_c, 0, 50, 58
2, 135823, Note_on_c, 0, 53, 0
2, 135860, Note_on_c, 0, 50, 0
2, 135916, Note_on_c, 0, 70, 0
2, 135953, Note_on_c, 0, 72, 66
2, 136068, Note_on_c, 0, 72, 0
2, 136073, Note_on_c, 0, 46, 55
2, 136082, Note_on_c, 0, 74, 66
2, 136181, Note_on_c, 0, 74, 0
2, 136183, Note_on_c, 0, 46, 0
2, 136204, Note_on_c, 0, 70, 70
2, 136210, Note_on_c, 0, 42, 52
2, 136320, Note_on_c, 0, 39, 59
2, 136323, Note_on_c, 0, 42, 0
2, 136323, Note_on_c, 0, 70, 0
2, 136352, Note_on_c, 0, 66, 61
2, 136365, Note_on_c, 0, 39, 0
2, 136458, Note_on_c, 0, 66, 0
2, 136473, Note_on_c, 0, 68, 68
2, 136595, Note_on_c, 0, 68, 0
2, 136600, Note_on_c, 0, 70, 71
2, 136617, Note_on_c, 0, 54, 55
2, 136682, Note_on_c, 0, 70, 0
2, 136728, Note_on_c, 0, 66, 71
2, 136741, Note_on_c, 0, 54, 0
2, 136749, Note_on_c, 0, 51, 57
2, 136844, Note_on_c, 0, 51, 0
2, 136849, Note_on_c, 0, 66, 0
2, 136871, Note_on_c, 0, 48, 55
2, 136873, Note_on_c, 0, 75, 68
2, 136913, Note_on_c, 0, 48, 0
2, 136984, Note_on_c, 0, 75, 0
2, 136998, Note_on_c, 0, 77, 68
2, 137098, Note_on_c, 0, 77, 0
2, 137126, Note_on_c, 0, 78, 67
2, 137140, Note_on_c, 0, 51, 56
2, 137210, Note_on_c, 0, 51, 0
2, 137247, Note_on_c, 0, 75, 70
2, 137267, Note_on_c, 0, 48, 50
2, 137304, Note_on_c, 0, 78, 0
2, 137334, Note_on_c, 0, 75, 0
2, 137381, Note_on_c, 0, 48, 0
2, 137385, Note_on_c, 0, 72, 66
2, 137389, Note_on_c, 0, 44, 51
2, 137431, Note_on_c, 0, 44, 0
2, 137510, Note_on_c, 0, 73, 60
2, 137512, Note_on_c, 0, 72, 0
2, 137645, Note_on_c, 0, 73, 0
2, 137651, Note_on_c, 0, 75, 66
2, 137665, Note_on_c, 0, 54, 51
2, 137744, Note_on_c, 0, 54, 0
2, 137763, Note_on_c, 0, 51, 59
2, 137781, Note_on_c, 0, 72, 70
2, 137797, Note_on_c, 0, 75, 0
2, 137870, Note_on_c, 0, 72, 0
2, 137900, Note_on_c, 0, 51, 0
2, 137908, Note_on_c, 0, 48, 46
2, 137918, Note_on_c, 0, 68, 63
2, 137944, Note_on_c, 0, 48, 0
2, 138014, Note_on_c, 0, 68, 0
2, 138043, Note_on_c, 0, 70, 61
2, 138168, Note_on_c, 0, 70, 0
2, 138169, Note_on_c, 0, 44, 50
2, 138184, Note_on_c, 0, 72, 62
2, 138262, Note_on_c, 0, 44, 0
2, 138302, Note_on_c, 0, 41, 47
2, 138304, Note_on_c, 0, 68, 58
2, 138304, Note_on_c, 0, 72, 0
2, 138394, Note_on_c, 0, 68, 0
2, 138417, Note_on_c, 0, 41, 0
2, 138438, Note_on_c, 0, 37, 43
2, 138453, Note_on_c, 0, 65, 46
2, 138551, Note_on_c, 0, 65, 0
2, 138560, Note_on_c, 0, 66, 59
2, 138674, Note_on_c, 0, 66, 0
2, 138688, Note_on_c, 0, 68, 58
2, 138724, Control_c, 0, 64, 37
2, 138744, Control_c, 0, 64, 57
2, 138763, Control_c, 0, 64, 62
2, 138775, Note_on_c, 0, 68, 0
2, 138783, Control_c, 0, 64, 65
2, 138801, Control_c, 0, 64, 68
2, 138821, Control_c, 0, 64, 74
2, 138829, Note_on_c, 0, 65, 57
2, 138840, Control_c, 0, 64, 84
2, 138858, Control_c, 0, 64, 97
2, 138878, Control_c, 0, 64, 114
2, 138897, Control_c, 0, 64, 127
2, 138900, Note_on_c, 0, 37, 0
2, 138928, Note_on_c, 0, 65, 0
2, 138956, Note_on_c, 0, 61, 63
2, 138974, Control_c, 0, 64, 110
2, 138993, Control_c, 0, 64, 93
2, 139012, Control_c, 0, 64, 75
2, 139032, Control_c, 0, 64, 65
2, 139038, Note_on_c, 0, 61, 0
2, 139051, Control_c, 0, 64, 52
2, 139070, Control_c, 0, 64, 31
2, 139083, Note_on_c, 0, 65, 59
2, 139089, Control_c, 0, 64, 20
2, 139109, Control_c, 0, 64, 9
2, 139128, Control_c, 0, 64, 0
2, 139178, Note_on_c, 0, 65, 0
2, 139207, Note_on_c, 0, 68, 66
2, 139275, Note_on_c, 0, 68, 0
2, 139340, Note_on_c, 0, 70, 69
2, 139438, Note_on_c, 0, 70, 0
2, 139471, Note_on_c, 0, 71, 68
2, 139560, Note_on_c, 0, 71, 0
2, 139593, Note_on_c, 0, 70, 62
2, 139679, Note_on_c, 0, 70, 0
2, 139728, Note_on_c, 0, 59, 62
2, 139729, Note_on_c, 0, 68, 69
2, 139771, Note_on_c, 0, 59, 0
2, 139818, Note_on_c, 0, 68, 0
2, 139850, Note_on_c, 0, 70, 65
2, 139851, Note_on_c, 0, 49, 58
2, 139923, Note_on_c, 0, 70, 0
2, 139960, Note_on_c, 0, 49, 0
2, 139977, Note_on_c, 0, 78, 64
2, 139999, Note_on_c, 0, 58, 62
2, 140011, Note_on_c, 0, 78, 0
2, 140057, Note_on_c, 0, 58, 0
2, 140121, Note_on_c, 0, 49, 59
2, 140207, Control_c, 0, 64, 9
2, 140248, Note_on_c, 0, 49, 0
2, 140256, Note_on_c, 0, 73, 67
2, 140281, Note_on_c, 0, 56, 57
2, 140286, Note_on_c, 0, 73, 0
2, 140363, Note_on_c, 0, 56, 0
2, 140406, Note_on_c, 0, 49, 58
2, 140523, Note_on_c, 0, 49, 0
2, 140528, Note_on_c, 0, 70, 74
2, 140548, Note_on_c, 0, 54, 53
2, 140610, Control_c, 0, 64, 11
2, 140629, Control_c, 0, 64, 27
2, 140648, Control_c, 0, 64, 47
2, 140652, Note_on_c, 0, 54, 0
2, 140667, Control_c, 0, 64, 60
2, 140683, Note_on_c, 0, 49, 58
2, 140687, Control_c, 0, 64, 63
2, 140706, Control_c, 0, 64, 65
2, 140725, Control_c, 0, 64, 66
2, 140744, Control_c, 0, 64, 68
2, 140764, Control_c, 0, 64, 68
2, 140796, Note_on_c, 0, 49, 0
2, 140802, Control_c, 0, 64, 66
2, 140811, Note_on_c, 0, 53, 58
2, 140821, Control_c, 0, 64, 64
2, 140823, Note_on_c, 0, 68, 71
2, 140841, Control_c, 0, 64, 60
2, 140859, Control_c, 0, 64, 55
2, 140879, Control_c, 0, 64, 50
2, 140894, Note_on_c, 0, 53, 0
2, 140898, Control_c, 0, 64, 44
2, 140898, Note_on_c, 0, 70, 0
2, 140917, Control_c, 0, 64, 38
2, 140934, Note_on_c, 0, 51, 55
2, 140936, Control_c, 0, 64, 34
2, 140942, Note_on_c, 0, 68, 0
2, 140946, Note_on_c, 0, 66, 74
2, 140956, Control_c, 0, 64, 31
2, 140975, Control_c, 0, 64, 28
2, 140994, Control_c, 0, 64, 25
2, 141013, Control_c, 0, 64, 20
2, 141033, Control_c, 0, 64, 13
2, 141051, Control_c, 0, 64, 0
2, 141053, Note_on_c, 0, 66, 0
2, 141059, Note_on_c, 0, 51, 0
2, 141065, Note_on_c, 0, 53, 58
2, 141079, Note_on_c, 0, 68, 75
2, 141104, Note_on_c, 0, 53, 0
2, 141146, Note_on_c, 0, 68, 0
2, 141201, Note_on_c, 0, 61, 65
2, 141331, Note_on_c, 0, 44, 52
2, 141331, Note_on_c, 0, 61, 0
2, 141341, Note_on_c, 0, 65, 59
2, 141369, Note_on_c, 0, 44, 0
2, 141441, Note_on_c, 0, 65, 0
2, 141466, Note_on_c, 0, 68, 73
2, 141590, Note_on_c, 0, 68, 0
2, 141601, Note_on_c, 0, 70, 75
2, 141693, Note_on_c, 0, 70, 0
2, 141727, Note_on_c, 0, 68, 78
2, 141812, Note_on_c, 0, 68, 0
2, 141844, Note_on_c, 0, 58, 59
2, 141852, Note_on_c, 0, 66, 71
2, 141906, Note_on_c, 0, 58, 0
2, 141948, Note_on_c, 0, 66, 0
2, 141972, Note_on_c, 0, 68, 73
2, 141981, Note_on_c, 0, 49, 52
2, 142058, Note_on_c, 0, 68, 0
2, 142092, Note_on_c, 0, 49, 0
2, 142110, Note_on_c, 0, 77, 72
2, 142122, Note_on_c, 0, 56, 67
2, 142142, Note_on_c, 0, 77, 0
2, 142185, Note_on_c, 0, 56, 0
2, 142250, Note_on_c, 0, 49, 62
2, 142358, Note_on_c, 0, 49, 0
2, 142377, Note_on_c, 0, 73, 81
2, 142397, Note_on_c, 0, 54, 57
2, 142411, Note_on_c, 0, 73, 0
2, 142482, Note_on_c, 0, 54, 0
2, 142515, Note_on_c, 0, 49, 60
2, 142639, Note_on_c, 0, 49, 0
2, 142656, Note_on_c, 0, 53, 55
2, 142657, Note_on_c, 0, 68, 78
2, 142740, Control_c, 0, 64, 13
2, 142760, Control_c, 0, 64, 44
2, 142776, Note_on_c, 0, 53, 0
2, 142778, Control_c, 0, 64, 59
2, 142792, Note_on_c, 0, 49, 58
2, 142798, Control_c, 0, 64, 63
2, 142817, Control_c, 0, 64, 66
2, 142837, Control_c, 0, 64, 70
2, 142855, Control_c, 0, 64, 77
2, 142875, Control_c, 0, 64, 91
2, 142894, Control_c, 0, 64, 106
2, 142913, Control_c, 0, 64, 112
2, 142920, Note_on_c, 0, 49, 0
2, 142925, Note_on_c, 0, 66, 70
2, 142929, Note_on_c, 0, 51, 61
2, 142932, Control_c, 0, 64, 103
2, 142952, Control_c, 0, 64, 86
2, 142961, Note_on_c, 0, 68, 0
2, 142971, Control_c, 0, 64, 71
2, 142989, Control_c, 0, 64, 62
2, 143009, Control_c, 0, 64, 39
2, 143014, Note_on_c, 0, 66, 0
2, 143026, Control_c, 0, 64, 34
2, 143033, Note_on_c, 0, 51, 0
2, 143041, Note_on_c, 0, 65, 70
2, 143057, Note_on_c, 0, 49, 66
2, 143133, Note_on_c, 0, 65, 0
2, 143161, Control_c, 0, 64, 34
2, 143178, Note_on_c, 0, 66, 67
2, 143184, Note_on_c, 0, 51, 61
2, 143203, Note_on_c, 0, 49, 0
2, 143218, Control_c, 0, 64, 33
2, 143222, Note_on_c, 0, 51, 0
2, 143263, Note_on_c, 0, 66, 0
2, 143295, Control_c, 0, 64, 32
2, 143310, Note_on_c, 0, 60, 61
2, 143406, Note_on_c, 0, 60, 0
2, 143438, Note_on_c, 0, 44, 51
2, 143449, Note_on_c, 0, 63, 61
2, 143478, Note_on_c, 0, 44, 0
2, 143560, Note_on_c, 0, 63, 0
2, 143578, Note_on_c, 0, 66, 61
2, 143707, Note_on_c, 0, 66, 0
2, 143714, Note_on_c, 0, 68, 72
2, 143844, Note_on_c, 0, 66, 72
2, 143877, Note_on_c, 0, 68, 0
2, 143924, Note_on_c, 0, 66, 0
2, 143967, Note_on_c, 0, 65, 69
2, 143971, Note_on_c, 0, 56, 62
2, 144036, Note_on_c, 0, 56, 0
2, 144060, Note_on_c, 0, 65, 0
2, 144084, Control_c, 0, 64, 33
2, 144090, Note_on_c, 0, 66, 68
2, 144115, Note_on_c, 0, 44, 49
2, 144171, Note_on_c, 0, 66, 0
2, 144213, Note_on_c, 0, 75, 77
2, 144219, Note_on_c, 0, 44, 0
2, 144242, Note_on_c, 0, 54, 65
2, 144242, Note_on_c, 0, 75, 0
2, 144338, Note_on_c, 0, 54, 0
2, 144361, Note_on_c, 0, 44, 63
2, 144449, Control_c, 0, 64, 34
2, 144473, Note_on_c, 0, 72, 74
2, 144488, Note_on_c, 0, 44, 0
2, 144501, Note_on_c, 0, 53, 59
2, 144508, Note_on_c, 0, 72, 0
2, 144570, Note_on_c, 0, 53, 0
2, 144641, Note_on_c, 0, 44, 54
2, 144744, Note_on_c, 0, 44, 0
2, 144746, Note_on_c, 0, 66, 61
2, 144751, Note_on_c, 0, 51, 52
2, 144871, Note_on_c, 0, 51, 0
2, 144885, Note_on_c, 0, 44, 58
2, 145008, Note_on_c, 0, 49, 60
2, 145011, Note_on_c, 0, 66, 0
2, 145016, Note_on_c, 0, 44, 0
2, 145022, Note_on_c, 0, 65, 54
2, 145025, Control_c, 0, 64, 34
2, 145132, Note_on_c, 0, 48, 59
2, 145133, Note_on_c, 0, 49, 0
2, 145136, Note_on_c, 0, 65, 0
2, 145146, Note_on_c, 0, 63, 64
2, 145160, Control_c, 0, 64, 35
2, 145249, Note_on_c, 0, 63, 0
2, 145258, Note_on_c, 0, 48, 0
2, 145268, Note_on_c, 0, 49, 65
2, 145279, Note_on_c, 0, 65, 65
2, 145367, Note_on_c, 0, 65, 0
2, 145389, Note_on_c, 0, 49, 0
2, 145396, Note_on_c, 0, 68, 72
2, 145401, Note_on_c, 0, 44, 53
2, 145524, Note_on_c, 0, 68, 0
2, 145526, Note_on_c, 0, 70, 73
2, 145536, Note_on_c, 0, 53, 65
2, 145547, Note_on_c, 0, 44, 0
2, 145616, Note_on_c, 0, 70, 0
2, 145650, Note_on_c, 0, 53, 0
2, 145651, Note_on_c, 0, 72, 76
2, 145652, Note_on_c, 0, 51, 65
2, 145776, Note_on_c, 0, 51, 0
2, 145786, Note_on_c, 0, 73, 75
2, 145789, Note_on_c, 0, 53, 67
2, 145795, Note_on_c, 0, 72, 0
2, 145885, Note_on_c, 0, 53, 0
2, 145903, Note_on_c, 0, 75, 86
2, 145904, Note_on_c, 0, 44, 68
2, 145920, Note_on_c, 0, 73, 0
2, 146033, Note_on_c, 0, 77, 82
2, 146038, Note_on_c, 0, 75, 0
2, 146041, Note_on_c, 0, 44, 0
2, 146042, Note_on_c, 0, 56, 74
2, 146099, Control_c, 0, 64, 34
2, 146119, Control_c, 0, 64, 31
2, 146137, Control_c, 0, 64, 19
2, 146148, Note_on_c, 0, 77, 0
2, 146155, Note_on_c, 0, 54, 74
2, 146157, Control_c, 0, 64, 0
2, 146159, Note_on_c, 0, 56, 0
2, 146163, Note_on_c, 0, 75, 85
2, 146283, Note_on_c, 0, 54, 0
2, 146287, Note_on_c, 0, 56, 81
2, 146295, Note_on_c, 0, 78, 83
2, 146320, Note_on_c, 0, 75, 0
2, 146388, Note_on_c, 0, 56, 0
2, 146400, Note_on_c, 0, 44, 74
2, 146412, Note_on_c, 0, 77, 82
2, 146509, Note_on_c, 0, 78, 0
2, 146525, Note_on_c, 0, 44, 0
2, 146538, Note_on_c, 0, 75, 82
2, 146554, Note_on_c, 0, 58, 70
2, 146560, Note_on_c, 0, 77, 0
2, 146579, Control_c, 0, 64, 54
2, 146599, Control_c, 0, 64, 77
2, 146611, Note_on_c, 0, 75, 0
2, 146617, Control_c, 0, 64, 104
2, 146637, Control_c, 0, 64, 127
2, 146641, Note_on_c, 0, 73, 73
2, 146645, Note_on_c, 0, 58, 0
2, 146671, Note_on_c, 0, 44, 74
2, 146673, Note_on_c, 0, 73, 0
2, 146734, Note_on_c, 0, 44, 0
2, 146818, Note_on_c, 0, 60, 68
2, 146823, Note_on_c, 0, 79, 67
2, 146848, Control_c, 0, 64, 90
2, 146867, Control_c, 0, 64, 76
2, 146871, Note_on_c, 0, 79, 0
2, 146878, Note_on_c, 0, 80, 77
2, 146886, Control_c, 0, 64, 67
2, 146905, Control_c, 0, 64, 59
2, 146920, Note_on_c, 0, 60, 0
2, 146922, Note_on_c, 0, 61, 65
2, 146925, Control_c, 0, 64, 49
2, 146938, Note_on_c, 0, 80, 0
2, 146944, Control_c, 0, 64, 47
2, 146946, Note_on_c, 0, 82, 70
2, 146963, Control_c, 0, 64, 46
2, 146978, Note_on_c, 0, 82, 0
2, 146982, Control_c, 0, 64, 43
2, 147002, Control_c, 0, 64, 39
2, 147002, Note_on_c, 0, 80, 79
2, 147021, Control_c, 0, 64, 33
2, 147040, Control_c, 0, 64, 29
2, 147052, Note_on_c, 0, 63, 70
2, 147056, Note_on_c, 0, 61, 0
2, 147059, Control_c, 0, 64, 26
2, 147060, Note_on_c, 0, 80, 0
2, 147068, Note_on_c, 0, 82, 74
2, 147077, Control_c, 0, 64, 21
2, 147095, Control_c, 0, 64, 9
2, 147115, Control_c, 0, 64, 0
2, 147124, Note_on_c, 0, 82, 0
2, 147130, Note_on_c, 0, 80, 78
2, 147169, Note_on_c, 0, 63, 0
2, 147172, Note_on_c, 0, 60, 69
2, 147190, Note_on_c, 0, 82, 69
2, 147197, Note_on_c, 0, 80, 0
2, 147227, Note_on_c, 0, 82, 0
2, 147244, Note_on_c, 0, 80, 72
2, 147302, Note_on_c, 0, 80, 0
2, 147304, Note_on_c, 0, 56, 75
2, 147305, Note_on_c, 0, 60, 0
2, 147311, Note_on_c, 0, 82, 81
2, 147346, Note_on_c, 0, 82, 0
2, 147374, Note_on_c, 0, 80, 74
2, 147431, Note_on_c, 0, 56, 0
2, 147431, Note_on_c, 0, 60, 74
2, 147431, Note_on_c, 0, 80, 0
2, 147435, Note_on_c, 0, 82, 66
2, 147467, Note_on_c, 0, 82, 0
2, 147480, Note_on_c, 0, 80, 69
2, 147532, Note_on_c, 0, 80, 0
2, 147538, Note_on_c, 0, 82, 77
2, 147562, Note_on_c, 0, 63, 82
2, 147581, Note_on_c, 0, 60, 0
2, 147584, Note_on_c, 0, 82, 0
2, 147604, Note_on_c, 0, 80, 75
2, 147658, Note_on_c, 0, 82, 79
2, 147659, Note_on_c, 0, 63, 0
2, 147660, Note_on_c, 0, 80, 0
2, 147678, Note_on_c, 0, 65, 78
2, 147707, Note_on_c, 0, 82, 0
2, 147720, Note_on_c, 0, 80, 66
2, 147769, Control_c, 0, 64, 46
2, 147772, Note_on_c, 0, 80, 0
2, 147776, Note_on_c, 0, 82, 79
2, 147788, Control_c, 0, 64, 65
2, 147805, Note_on_c, 0, 66, 83
2, 147808, Control_c, 0, 64, 78
2, 147814, Note_on_c, 0, 65, 0
2, 147824, Note_on_c, 0, 82, 0
2, 147827, Control_c, 0, 64, 106
2, 147846, Control_c, 0, 64, 127
2, 147855, Note_on_c, 0, 80, 82
2, 147867, Note_on_c, 0, 66, 0
2, 147897, Note_on_c, 0, 80, 0
2, 147904, Control_c, 0, 64, 84
2, 147923, Control_c, 0, 64, 66
2, 147934, Note_on_c, 0, 65, 76
2, 147942, Control_c, 0, 64, 39
2, 147958, Note_on_c, 0, 80, 84
2, 147962, Control_c, 0, 64, 0
2, 148020, Note_on_c, 0, 65, 0
2, 148055, Note_on_c, 0, 63, 71
2, 148082, Note_on_c, 0, 78, 87
2, 148087, Note_on_c, 0, 80, 0
2, 148197, Note_on_c, 0, 65, 71
2, 148199, Note_on_c, 0, 80, 90
2, 148203, Note_on_c, 0, 78, 0
2, 148235, Note_on_c, 0, 63, 0
2, 148293, Note_on_c, 0, 65, 0
2, 148302, Note_on_c, 0, 80, 0
2, 148327, Note_on_c, 0, 77, 82
2, 148339, Note_on_c, 0, 73, 73
2, 148371, Note_on_c, 0, 73, 0
2, 148444, Note_on_c, 0, 77, 0
2, 148452, Note_on_c, 0, 80, 83
2, 148578, Note_on_c, 0, 68, 73
2, 148591, Note_on_c, 0, 75, 83
2, 148600, Note_on_c, 0, 80, 0
2, 148604, Note_on_c, 0, 68, 0
2, 148714, Note_on_c, 0, 75, 0
2, 148728, Note_on_c, 0, 80, 80
2, 148861, Note_on_c, 0, 73, 67
2, 148861, Note_on_c, 0, 80, 0
2, 148865, Note_on_c, 0, 65, 64
2, 148920, Control_c, 0, 64, 29
2, 148939, Control_c, 0, 64, 57
2, 148958, Control_c, 0, 64, 66
2, 148977, Control_c, 0, 64, 71
2, 148992, Note_on_c, 0, 80, 78
2, 148997, Control_c, 0, 64, 78
2, 149015, Control_c, 0, 64, 88
2, 149035, Control_c, 0, 64, 97
2, 149054, Control_c, 0, 64, 104
2, 149063, Note_on_c, 0, 73, 0
2, 149074, Control_c, 0, 64, 107
2, 149111, Control_c, 0, 64, 105
2, 149131, Control_c, 0, 64, 101
2, 149131, Note_on_c, 0, 80, 0
2, 149132, Note_on_c, 0, 72, 76
2, 149139, Note_on_c, 0, 63, 68
2, 149149, Control_c, 0, 64, 95
2, 149149, Note_on_c, 0, 65, 0
2, 149169, Control_c, 0, 64, 88
2, 149188, Control_c, 0, 64, 78
2, 149208, Control_c, 0, 64, 69
2, 149226, Control_c, 0, 64, 63
2, 149246, Control_c, 0, 64, 56
2, 149250, Note_on_c, 0, 72, 0
2, 149252, Note_on_c, 0, 70, 80
2, 149262, Note_on_c, 0, 63, 0
2, 149265, Control_c, 0, 64, 47
2, 149277, Note_on_c, 0, 61, 63
2, 149284, Control_c, 0, 64, 40
2, 149303, Control_c, 0, 64, 37
2, 149323, Control_c, 0, 64, 34
2, 149342, Control_c, 0, 64, 27
2, 149344, Note_on_c, 0, 70, 0
2, 149361, Control_c, 0, 64, 18
2, 149378, Note_on_c, 0, 72, 79
2, 149380, Control_c, 0, 64, 0
2, 149397, Note_on_c, 0, 63, 72
2, 149399, Note_on_c, 0, 61, 0
2, 149453, Note_on_c, 0, 72, 0
2, 149504, Note_on_c, 0, 75, 75
2, 149516, Note_on_c, 0, 63, 0
2, 149521, Note_on_c, 0, 56, 59
2, 149615, Note_on_c, 0, 75, 0
2, 149644, Note_on_c, 0, 60, 65
2, 149644, Note_on_c, 0, 77, 71
2, 149659, Note_on_c, 0, 56, 0
2, 149771, Note_on_c, 0, 77, 0
2, 149772, Note_on_c, 0, 78, 77
2, 149782, Note_on_c, 0, 63, 77
2, 149809, Note_on_c, 0, 60, 0
2, 149892, Note_on_c, 0, 78, 0
2, 149902, Note_on_c, 0, 80, 81
2, 149911, Note_on_c, 0, 63, 0
2, 149916, Note_on_c, 0, 65, 82
2, 150026, Note_on_c, 0, 78, 77
2, 150046, Note_on_c, 0, 63, 82
2, 150047, Note_on_c, 0, 65, 0
2, 150083, Note_on_c, 0, 80, 0
2, 150124, Note_on_c, 0, 78, 0
2, 150147, Note_on_c, 0, 63, 0
2, 150164, Note_on_c, 0, 77, 73
2, 150170, Note_on_c, 0, 61, 82
2, 150268, Note_on_c, 0, 77, 0
2, 150288, Note_on_c, 0, 80, 82
2, 150293, Note_on_c, 0, 63, 79
2, 150334, Note_on_c, 0, 61, 0
2, 150392, Note_on_c, 0, 63, 0
2, 150420, Note_on_c, 0, 75, 84
2, 150423, Note_on_c, 0, 80, 0
2, 150427, Note_on_c, 0, 72, 83
2, 150459, Note_on_c, 0, 72, 0
2, 150523, Note_on_c, 0, 75, 0
2, 150547, Note_on_c, 0, 80, 80
2, 150667, Note_on_c, 0, 80, 0
2, 150678, Note_on_c, 0, 73, 77
2, 150692, Note_on_c, 0, 68, 79
2, 150717, Note_on_c, 0, 68, 0
2, 150790, Note_on_c, 0, 73, 0
2, 150846, Note_on_c, 0, 79, 55
2, 150894, Note_on_c, 0, 79, 0
2, 150954, Note_on_c, 0, 72, 69
2, 150961, Note_on_c, 0, 63, 66
2, 150995, Control_c, 0, 64, 51
2, 151013, Control_c, 0, 64, 64
2, 151032, Control_c, 0, 64, 70
2, 151052, Control_c, 0, 64, 80
2, 151070, Control_c, 0, 64, 97
2, 151079, Note_on_c, 0, 72, 0
2, 151079, Note_on_c, 0, 80, 78
2, 151090, Control_c, 0, 64, 127
2, 151204, Note_on_c, 0, 80, 0
2, 151211, Note_on_c, 0, 70, 79
2, 151231, Note_on_c, 0, 61, 69
2, 151231, Note_on_c, 0, 63, 0
2, 151244, Control_c, 0, 64, 89
2, 151263, Control_c, 0, 64, 73
2, 151282, Control_c, 0, 64, 64
2, 151301, Control_c, 0, 64, 51
2, 151306, Note_on_c, 0, 70, 0
2, 151321, Control_c, 0, 64, 39
2, 151332, Note_on_c, 0, 61, 0
2, 151337, Note_on_c, 0, 68, 76
2, 151339, Control_c, 0, 64, 36
2, 151343, Note_on_c, 0, 60, 66
2, 151359, Control_c, 0, 64, 34
2, 151378, Control_c, 0, 64, 28
2, 151398, Control_c, 0, 64, 17
2, 151416, Control_c, 0, 64, 0
2, 151436, Note_on_c, 0, 68, 0
2, 151464, Note_on_c, 0, 60, 0
2, 151465, Note_on_c, 0, 70, 69
2, 151477, Note_on_c, 0, 61, 64
2, 151543, Note_on_c, 0, 70, 0
2, 151578, Note_on_c, 0, 61, 0
2, 151600, Note_on_c, 0, 73, 64
2, 151609, Note_on_c, 0, 56, 53
2, 151721, Note_on_c, 0, 75, 70
2, 151732, Note_on_c, 0, 56, 0
2, 151736, Note_on_c, 0, 60, 55
2, 151763, Note_on_c, 0, 73, 0
2, 151791, Note_on_c, 0, 75, 0
2, 151845, Note_on_c, 0, 77, 67
2, 151849, Note_on_c, 0, 61, 67
2, 151852, Note_on_c, 0, 60, 0
2, 151948, Note_on_c, 0, 77, 0
2, 151954, Note_on_c, 0, 61, 0
2, 151985, Note_on_c, 0, 63, 66
2, 151988, Note_on_c, 0, 78, 68
2, 152075, Note_on_c, 0, 78, 0
2, 152076, Note_on_c, 0, 63, 0
2, 152103, Note_on_c, 0, 77, 66
2, 152118, Note_on_c, 0, 61, 59
2, 152218, Note_on_c, 0, 77, 0
2, 152219, Note_on_c, 0, 61, 0
2, 152241, Note_on_c, 0, 75, 63
2, 152248, Note_on_c, 0, 60, 56
2, 152354, Note_on_c, 0, 75, 0
2, 152363, Note_on_c, 0, 60, 0
2, 152368, Note_on_c, 0, 77, 59
2, 152375, Note_on_c, 0, 61, 59
2, 152481, Note_on_c, 0, 77, 0
2, 152487, Note_on_c, 0, 61, 0
2, 152505, Note_on_c, 0, 73, 59
2, 152528, Note_on_c, 0, 70, 42
2, 152565, Note_on_c, 0, 70, 0
2, 152607, Note_on_c, 0, 73, 0
2, 152635, Note_on_c, 0, 75, 60
2, 152732, Note_on_c, 0, 75, 0
2, 152760, Note_on_c, 0, 72, 67
2, 152773, Note_on_c, 0, 67, 59
2, 152809, Note_on_c, 0, 67, 0
2, 152851, Note_on_c, 0, 72, 0
2, 152887, Note_on_c, 0, 75, 62
2, 152995, Note_on_c, 0, 75, 0
2, 153029, Control_c, 0, 64, 36
2, 153031, Note_on_c, 0, 61, 52
2, 153031, Note_on_c, 0, 70, 54
2, 153049, Control_c, 0, 64, 56
2, 153067, Control_c, 0, 64, 63
2, 153087, Control_c, 0, 64, 66
2, 153106, Control_c, 0, 64, 70
2, 153125, Control_c, 0, 64, 77
2, 153144, Control_c, 0, 64, 90
2, 153157, Note_on_c, 0, 75, 59
2, 153161, Note_on_c, 0, 70, 0
2, 153164, Control_c, 0, 64, 111
2, 153183, Control_c, 0, 64, 127
2, 153270, Note_on_c, 0, 61, 0
2, 153298, Control_c, 0, 64, 97
2, 153314, Note_on_c, 0, 60, 46
2, 153317, Note_on_c, 0, 68, 57
2, 153317, Note_on_c, 0, 75, 0
2, 153318, Control_c, 0, 64, 79
2, 153336, Control_c, 0, 64, 68
2, 153356, Control_c, 0, 64, 61
2, 153372, Note_on_c, 0, 68, 0
2, 153375, Control_c, 0, 64, 50
2, 153376, Note_on_c, 0, 60, 0
2, 153395, Control_c, 0, 64, 48
2, 153413, Control_c, 0, 64, 47
2, 153417, Note_on_c, 0, 58, 52
2, 153432, Control_c, 0, 64, 46
2, 153439, Note_on_c, 0, 67, 54
2, 153452, Control_c, 0, 64, 44
2, 153470, Control_c, 0, 64, 41
2, 153482, Note_on_c, 0, 58, 0
2, 153490, Control_c, 0, 64, 38
2, 153490, Note_on_c, 0, 67, 0
2, 153509, Control_c, 0, 64, 36
2, 153529, Control_c, 0, 64, 36
2, 153543, Note_on_c, 0, 60, 47
2, 153566, Note_on_c, 0, 68, 52
2, 153568, Control_c, 0, 64, 35
2, 153586, Control_c, 0, 64, 33
2, 153595, Note_on_c, 0, 68, 0
2, 153605, Control_c, 0, 64, 32
2, 153624, Control_c, 0, 64, 30
2, 153636, Note_on_c, 0, 60, 0
2, 153644, Control_c, 0, 64, 29
2, 153663, Control_c, 0, 64, 29
2, 153677, Note_on_c, 0, 72, 66
2, 153682, Note_on_c, 0, 56, 55
2, 153759, Control_c, 0, 64, 28
2, 153765, Note_on_c, 0, 72, 0
2, 153798, Control_c, 0, 64, 27
2, 153799, Note_on_c, 0, 73, 66
2, 153807, Note_on_c, 0, 56, 0
2, 153810, Note_on_c, 0, 58, 57
2, 153889, Note_on_c, 0, 58, 0
2, 153901, Note_on_c, 0, 73, 0
2, 153915, Note_on_c, 0, 75, 72
2, 153941, Note_on_c, 0, 60, 54
2, 153984, Note_on_c, 0, 75, 0
2, 154008, Note_on_c, 0, 60, 0
2, 154042, Note_on_c, 0, 77, 62
2, 154053, Note_on_c, 0, 61, 57
2, 154122, Note_on_c, 0, 77, 0
2, 154163, Note_on_c, 0, 78, 68
2, 154175, Note_on_c, 0, 63, 60
2, 154203, Note_on_c, 0, 61, 0
2, 154254, Note_on_c, 0, 63, 0
2, 154259, Note_on_c, 0, 78, 0
2, 154297, Note_on_c, 0, 80, 61
2, 154317, Note_on_c, 0, 65, 49
2, 154376, Note_on_c, 0, 65, 0
2, 154414, Note_on_c, 0, 82, 66
2, 154422, Note_on_c, 0, 63, 51
2, 154439, Note_on_c, 0, 80, 0
2, 154503, Note_on_c, 0, 82, 0
2, 154557, Note_on_c, 0, 72, 67
2, 154573, Note_on_c, 0, 63, 0
2, 154574, Note_on_c, 0, 66, 56
2, 154588, Note_on_c, 0, 72, 0
2, 154626, Note_on_c, 0, 66, 0
2, 154684, Note_on_c, 0, 65, 56
2, 154803, Note_on_c, 0, 65, 0
2, 154813, Note_on_c, 0, 63, 61
2, 154821, Note_on_c, 0, 68, 57
2, 154854, Note_on_c, 0, 68, 0
2, 154944, Note_on_c, 0, 61, 52
2, 154969, Note_on_c, 0, 63, 0
2, 155073, Note_on_c, 0, 61, 0
2, 155092, Note_on_c, 0, 70, 73
2, 155096, Note_on_c, 0, 66, 44
2, 155131, Note_on_c, 0, 66, 0
2, 155198, Note_on_c, 0, 70, 0
2, 155217, Control_c, 0, 64, 27
2, 155218, Note_on_c, 0, 68, 68
2, 155291, Note_on_c, 0, 68, 0
2, 155358, Note_on_c, 0, 66, 60
2, 155360, Note_on_c, 0, 58, 48
2, 155440, Note_on_c, 0, 66, 0
2, 155448, Note_on_c, 0, 58, 0
2, 155477, Note_on_c, 0, 68, 70
2, 155494, Note_on_c, 0, 60, 54
2, 155546, Note_on_c, 0, 68, 0
2, 155564, Note_on_c, 0, 60, 0
2, 155606, Note_on_c, 0, 61, 57
2, 155621, Note_on_c, 0, 77, 71
2, 155653, Note_on_c, 0, 77, 0
2, 155686, Note_on_c, 0, 61, 0
2, 155696, Control_c, 0, 64, 26
2, 155741, Note_on_c, 0, 60, 53
2, 155792, Control_c, 0, 64, 25
2, 155840, Note_on_c, 0, 60, 0
2, 155882, Note_on_c, 0, 73, 76
2, 155886, Note_on_c, 0, 58, 55
2, 155910, Note_on_c, 0, 73, 0
2, 155957, Note_on_c, 0, 58, 0
2, 156004, Control_c, 0, 64, 24
2, 156010, Note_on_c, 0, 56, 57
2, 156167, Note_on_c, 0, 68, 80
2, 156172, Note_on_c, 0, 58, 51
2, 156187, Note_on_c, 0, 56, 0
2, 156454, Note_on_c, 0, 68, 0
2, 156470, Note_on_c, 0, 66, 69
2, 156548, Note_on_c, 0, 66, 0
2, 156593, Note_on_c, 0, 65, 70
2, 156671, Note_on_c, 0, 65, 0
2, 156732, Note_on_c, 0, 66, 71
2, 156761, Note_on_c, 0, 66, 0
2, 156829, Control_c, 0, 64, 23
2, 156853, Note_on_c, 0, 58, 0
2, 156869, Note_on_c, 0, 56, 57
2, 156990, Note_on_c, 0, 75, 80
2, 157000, Note_on_c, 0, 56, 0
2, 157001, Note_on_c, 0, 54, 53
2, 157014, Note_on_c, 0, 75, 0
2, 157089, Note_on_c, 0, 54, 0
2, 157118, Control_c, 0, 64, 22
2, 157119, Note_on_c, 0, 58, 58
2, 157251, Note_on_c, 0, 56, 65
2, 157264, Note_on_c, 0, 58, 0
2, 157264, Note_on_c, 0, 65, 66
2, 157300, Note_on_c, 0, 65, 0
2, 157375, Note_on_c, 0, 54, 60
2, 157377, Note_on_c, 0, 56, 0
2, 157485, Note_on_c, 0, 54, 0
2, 157511, Note_on_c, 0, 53, 55
2, 157529, Note_on_c, 0, 73, 68
2, 157565, Note_on_c, 0, 73, 0
2, 157617, Control_c, 0, 64, 21
2, 157628, Note_on_c, 0, 53, 0
2, 157640, Note_on_c, 0, 56, 60
2, 157776, Note_on_c, 0, 54, 59
2, 157781, Note_on_c, 0, 56, 0
2, 157795, Note_on_c, 0, 63, 62
2, 157847, Note_on_c, 0, 63, 0
2, 157894, Note_on_c, 0, 54, 0
2, 157916, Note_on_c, 0, 53, 41
2, 158020, Control_c, 0, 64, 20
2, 158038, Note_on_c, 0, 53, 0
2, 158040, Control_c, 0, 64, 19
2, 158052, Note_on_c, 0, 54, 63
2, 158059, Control_c, 0, 64, 18
2, 158059, Note_on_c, 0, 72, 72
2, 158078, Control_c, 0, 64, 15
2, 158096, Note_on_c, 0, 72, 0
2, 158097, Control_c, 0, 64, 9
2, 158117, Control_c, 0, 64, 0
2, 158155, Note_on_c, 0, 54, 0
2, 158195, Note_on_c, 0, 51, 46
2, 158308, Note_on_c, 0, 51, 0
2, 158315, Note_on_c, 0, 61, 66
2, 158325, Note_on_c, 0, 53, 57
2, 158349, Note_on_c, 0, 61, 0
2, 158622, Note_on_c, 0, 73, 62
2, 158711, Note_on_c, 0, 73, 0
2, 158739, Note_on_c, 0, 56, 53
2, 158747, Note_on_c, 0, 72, 60
2, 158758, Note_on_c, 0, 53, 0
2, 158835, Note_on_c, 0, 72, 0
2, 158875, Note_on_c, 0, 73, 67
2, 158879, Note_on_c, 0, 58, 55
2, 158884, Note_on_c, 0, 56, 0
2, 158988, Note_on_c, 0, 58, 0
2, 158998, Note_on_c, 0, 73, 0
2, 158998, Note_on_c, 0, 75, 62
2, 159019, Note_on_c, 0, 60, 56
2, 159091, Note_on_c, 0, 75, 0
2, 159125, Note_on_c, 0, 77, 67
2, 159134, Note_on_c, 0, 60, 0
2, 159138, Note_on_c, 0, 61, 64
2, 159254, Note_on_c, 0, 77, 0
2, 159259, Note_on_c, 0, 78, 71
2, 159275, Note_on_c, 0, 63, 66
2, 159387, Note_on_c, 0, 63, 0
2, 159389, Note_on_c, 0, 80, 74
2, 159395, Note_on_c, 0, 65, 67
2, 159396, Note_on_c, 0, 78, 0
2, 159514, Note_on_c, 0, 78, 83
2, 159520, Note_on_c, 0, 63, 82
2, 159529, Note_on_c, 0, 65, 0
2, 159548, Note_on_c, 0, 61, 0
2, 159566, Note_on_c, 0, 80, 0
2, 159637, Note_on_c, 0, 77, 84
2, 159637, Note_on_c, 0, 78, 0
2, 159655, Note_on_c, 0, 63, 0
2, 159664, Note_on_c, 0, 61, 78
2, 159767, Note_on_c, 0, 78, 85
2, 159781, Note_on_c, 0, 63, 78
2, 159801, Note_on_c, 0, 61, 0
2, 159807, Note_on_c, 0, 77, 0
2, 159888, Note_on_c, 0, 63, 0
2, 159900, Note_on_c, 0, 80, 88
2, 159906, Note_on_c, 0, 72, 79
2, 159924, Note_on_c, 0, 60, 63
2, 159932, Note_on_c, 0, 78, 0
2, 159943, Note_on_c, 0, 72, 0
2, 160027, Note_on_c, 0, 78, 82
2, 160073, Note_on_c, 0, 80, 0
2, 160137, Note_on_c, 0, 78, 0
2, 160160, Note_on_c, 0, 77, 75
2, 160178, Note_on_c, 0, 68, 75
2, 160209, Note_on_c, 0, 68, 0
2, 160296, Note_on_c, 0, 75, 80
2, 160296, Note_on_c, 0, 77, 0
2, 160437, Note_on_c, 0, 77, 76
2, 160439, Note_on_c, 0, 75, 0
2, 160451, Note_on_c, 0, 63, 72
2, 160602, Note_on_c, 0, 60, 0
2, 160750, Note_on_c, 0, 61, 70
2, 160780, Note_on_c, 0, 63, 0
2, 160910, Note_on_c, 0, 60, 57
2, 160954, Note_on_c, 0, 61, 0
2, 161005, Note_on_c, 0, 61, 49
2, 161011, Note_on_c, 0, 60, 0
2, 161036, Note_on_c, 0, 58, 35
2, 161074, Note_on_c, 0, 61, 0
2, 161140, Note_on_c, 0, 75, 69
2, 161150, Note_on_c, 0, 77, 0
2, 161273, Note_on_c, 0, 73, 75
2, 161288, Note_on_c, 0, 70, 58
2, 161292, Note_on_c, 0, 75, 0
2, 161316, Note_on_c, 0, 70, 0
2, 161389, Note_on_c, 0, 73, 0
2, 161409, Note_on_c, 0, 77, 74
2, 161526, Note_on_c, 0, 77, 0
2, 161544, Note_on_c, 0, 60, 56
2, 161545, Note_on_c, 0, 75, 77
2, 161588, Note_on_c, 0, 60, 0
2, 161666, Note_on_c, 0, 73, 74
2, 161720, Note_on_c, 0, 75, 0
2, 161766, Note_on_c, 0, 73, 0
2, 161790, Note_on_c, 0, 68, 62
2, 161797, Note_on_c, 0, 72, 72
2, 161798, Note_on_c, 0, 58, 0
2, 161799, Note_on_c, 0, 56, 61
2, 161817, Note_on_c, 0, 68, 0
2, 161840, Note_on_c, 0, 56, 0
2, 161905, Note_on_c, 0, 72, 0
2, 161931, Note_on_c, 0, 75, 75
2, 162065, Note_on_c, 0, 58, 56
2, 162071, Note_on_c, 0, 73, 72
2, 162094, Note_on_c, 0, 58, 0
2, 162103, Note_on_c, 0, 75, 0
2, 162144, Note_on_c, 0, 73, 0
2, 162178, Note_on_c, 0, 72, 74
2, 162266, Note_on_c, 0, 72, 0
2, 162318, Note_on_c, 0, 73, 71
2, 162332, Note_on_c, 0, 51, 52
2, 162338, Note_on_c, 0, 67, 57
2, 162379, Note_on_c, 0, 67, 0
2, 162381, Note_on_c, 0, 51, 0
2, 162431, Note_on_c, 0, 70, 76
2, 162438, Note_on_c, 0, 73, 0
2, 162537, Note_on_c, 0, 70, 0
2, 162569, Note_on_c, 0, 56, 70
2, 162570, Note_on_c, 0, 72, 79
2, 162574, Note_on_c, 0, 68, 68
2, 162604, Note_on_c, 0, 56, 0
2, 162605, Note_on_c, 0, 68, 0
2, 162607, Note_on_c, 0, 72, 0
2, 162855, Note_on_c, 0, 68, 67
2, 162860, Note_on_c, 0, 75, 83
2, 162886, Note_on_c, 0, 75, 0
2, 162972, Note_on_c, 0, 68, 0
2, 162985, Note_on_c, 0, 66, 74
2, 163103, Note_on_c, 0, 66, 0
2, 163120, Note_on_c, 0, 78, 82
2, 163128, Note_on_c, 0, 68, 72
2, 163214, Note_on_c, 0, 68, 0
2, 163263, Note_on_c, 0, 70, 65
2, 163384, Note_on_c, 0, 70, 0
2, 163403, Note_on_c, 0, 56, 74
2, 163408, Note_on_c, 0, 72, 71
2, 163436, Note_on_c, 0, 56, 0
2, 163489, Note_on_c, 0, 72, 0
2, 163530, Note_on_c, 0, 68, 72
2, 163633, Note_on_c, 0, 68, 0
2, 163673, Note_on_c, 0, 58, 73
2, 163679, Note_on_c, 0, 73, 70
2, 163800, Note_on_c, 0, 73, 0
2, 163805, Note_on_c, 0, 72, 75
2, 163810, Note_on_c, 0, 56, 78
2, 163826, Note_on_c, 0, 58, 0
2, 163932, Note_on_c, 0, 56, 0
2, 163937, Note_on_c, 0, 72, 0
2, 163939, Note_on_c, 0, 54, 78
2, 163941, Note_on_c, 0, 70, 79
2, 164045, Note_on_c, 0, 78, 0
2, 164061, Note_on_c, 0, 56, 77
2, 164065, Note_on_c, 0, 72, 81
2, 164067, Note_on_c, 0, 70, 0
2, 164076, Note_on_c, 0, 54, 0
2, 164164, Note_on_c, 0, 72, 0
2, 164180, Note_on_c, 0, 56, 0
2, 164190, Note_on_c, 0, 65, 70
2, 164192, Note_on_c, 0, 77, 86
2, 164199, Note_on_c, 0, 73, 81
2, 164221, Note_on_c, 0, 65, 0
2, 164268, Note_on_c, 0, 73, 0
2, 164322, Note_on_c, 0, 72, 75
2, 164429, Note_on_c, 0, 72, 0
2, 164478, Note_on_c, 0, 70, 78
2, 164479, Note_on_c, 0, 61, 71
2, 164509, Note_on_c, 0, 61, 0
2, 164580, Note_on_c, 0, 70, 0
2, 164596, Note_on_c, 0, 68, 82
2, 164749, Note_on_c, 0, 56, 84
2, 164754, Note_on_c, 0, 70, 86
2, 164776, Note_on_c, 0, 68, 0
2, 164944, Note_on_c, 0, 77, 0
2, 165040, Note_on_c, 0, 54, 73
2, 165066, Note_on_c, 0, 56, 0
2, 165169, Note_on_c, 0, 54, 0
2, 165173, Note_on_c, 0, 53, 67
2, 165293, Note_on_c, 0, 53, 0
2, 165306, Note_on_c, 0, 54, 74
2, 165323, Note_on_c, 0, 75, 87
2, 165330, Note_on_c, 0, 70, 0
2, 165345, Note_on_c, 0, 54, 0
2, 165461, Note_on_c, 0, 68, 71
2, 165564, Note_on_c, 0, 68, 0
2, 165583, Note_on_c, 0, 66, 71
2, 165586, Note_on_c, 0, 63, 58
2, 165626, Note_on_c, 0, 63, 0
2, 165687, Note_on_c, 0, 66, 0
2, 165703, Note_on_c, 0, 70, 72
2, 165848, Note_on_c, 0, 68, 71
2, 165849, Note_on_c, 0, 53, 44
2, 165886, Note_on_c, 0, 53, 0
2, 165893, Note_on_c, 0, 75, 0
2, 165979, Note_on_c, 0, 66, 68
2, 165983, Note_on_c, 0, 70, 0
2, 166021, Note_on_c, 0, 68, 0
2, 166106, Note_on_c, 0, 73, 72
2, 166114, Note_on_c, 0, 61, 47
2, 166114, Note_on_c, 0, 66, 0
2, 166125, Note_on_c, 0, 65, 61
2, 166161, Note_on_c, 0, 61, 0
2, 166238, Note_on_c, 0, 68, 68
2, 166334, Note_on_c, 0, 68, 0
2, 166344, Note_on_c, 0, 65, 0
2, 166358, Note_on_c, 0, 66, 58
2, 166380, Note_on_c, 0, 51, 50
2, 166384, Note_on_c, 0, 72, 71
2, 166408, Note_on_c, 0, 73, 0
2, 166429, Note_on_c, 0, 51, 0
2, 166450, Note_on_c, 0, 66, 0
2, 166510, Note_on_c, 0, 65, 58
2, 166625, Note_on_c, 0, 75, 76
2, 166631, Note_on_c, 0, 65, 0
2, 166687, Note_on_c, 0, 66, 49
2, 166783, Note_on_c, 0, 63, 62
2, 166815, Note_on_c, 0, 66, 0
2, 166826, Note_on_c, 0, 72, 0
2, 166909, Note_on_c, 0, 63, 0
2, 166911, Note_on_c, 0, 49, 49
2, 166917, Note_on_c, 0, 65, 50
2, 167031, Note_on_c, 0, 49, 0
2, 167059, Note_on_c, 0, 44, 51
2, 167184, Note_on_c, 0, 68, 69
2, 167200, Note_on_c, 0, 49, 61
2, 167222, Note_on_c, 0, 44, 0
2, 167239, Note_on_c, 0, 75, 0
2, 167323, Note_on_c, 0, 51, 66
2, 167344, Note_on_c, 0, 49, 0
2, 167446, Note_on_c, 0, 51, 0
2, 167450, Note_on_c, 0, 73, 77
2, 167454, Note_on_c, 0, 53, 74
2, 167575, Note_on_c, 0, 54, 79
2, 167584, Note_on_c, 0, 53, 0
2, 167664, Note_on_c, 0, 65, 0
2, 167678, Note_on_c, 0, 68, 0
2, 167715, Note_on_c, 0, 56, 72
2, 167721, Note_on_c, 0, 71, 82
2, 167749, Note_on_c, 0, 54, 0
2, 167755, Note_on_c, 0, 73, 0
2, 167825, Note_on_c, 0, 56, 0
2, 167837, Note_on_c, 0, 53, 76
2, 167986, Note_on_c, 0, 54, 70
2, 167990, Note_on_c, 0, 53, 0
2, 168005, Note_on_c, 0, 70, 79
2, 168012, Note_on_c, 0, 71, 0
2, 168038, Note_on_c, 0, 54, 0
2, 168043, Control_c, 0, 64, 42
2, 168062, Control_c, 0, 64, 57
2, 168081, Control_c, 0, 64, 64
2, 168100, Control_c, 0, 64, 71
2, 168120, Control_c, 0, 64, 84
2, 168120, Note_on_c, 0, 42, 67
2, 168139, Control_c, 0, 64, 112
2, 168158, Control_c, 0, 64, 127
2, 168207, Note_on_c, 0, 42, 0
2, 168259, Note_on_c, 0, 54, 69
2, 168290, Note_on_c, 0, 61, 61
2, 168311, Control_c, 0, 64, 118
2, 168317, Note_on_c, 0, 54, 0
2, 168331, Control_c, 0, 64, 91
2, 168349, Control_c, 0, 64, 77
2, 168369, Control_c, 0, 64, 68
2, 168375, Note_on_c, 0, 53, 62
2, 168388, Control_c, 0, 64, 62
2, 168408, Control_c, 0, 64, 56
2, 168426, Control_c, 0, 64, 52
2, 168446, Control_c, 0, 64, 50
2, 168465, Control_c, 0, 64, 47
2, 168485, Control_c, 0, 64, 45
2, 168503, Control_c, 0, 64, 42
2, 168523, Control_c, 0, 64, 39
2, 168528, Note_on_c, 0, 53, 0
2, 168540, Note_on_c, 0, 54, 66
2, 168540, Note_on_c, 0, 66, 71
2, 168542, Control_c, 0, 64, 37
2, 168561, Control_c, 0, 64, 36
2, 168580, Control_c, 0, 64, 34
2, 168600, Control_c, 0, 64, 32
2, 168600, Note_on_c, 0, 61, 0
2, 168619, Control_c, 0, 64, 28
2, 168638, Control_c, 0, 64, 25
2, 168657, Control_c, 0, 64, 24
2, 168680, Note_on_c, 0, 56, 67
2, 168695, Control_c, 0, 64, 23
2, 168702, Note_on_c, 0, 54, 0
2, 168714, Control_c, 0, 64, 22
2, 168734, Control_c, 0, 64, 20
2, 168753, Control_c, 0, 64, 15
2, 168772, Control_c, 0, 64, 9
2, 168791, Control_c, 0, 64, 0
2, 168806, Note_on_c, 0, 56, 0
2, 168807, Note_on_c, 0, 65, 64
2, 168819, Note_on_c, 0, 58, 55
2, 168824, Note_on_c, 0, 66, 0
2, 168937, Note_on_c, 0, 58, 0
2, 168945, Note_on_c, 0, 54, 65
2, 169071, Note_on_c, 0, 54, 0
2, 169077, Note_on_c, 0, 51, 54
2, 169087, Note_on_c, 0, 66, 69
2, 169093, Note_on_c, 0, 70, 0
2, 169144, Note_on_c, 0, 65, 0
2, 169197, Note_on_c, 0, 51, 0
2, 169218, Note_on_c, 0, 53, 60
2, 169337, Note_on_c, 0, 53, 0
2, 169350, Note_on_c, 0, 54, 65
2, 169352, Note_on_c, 0, 70, 80
2, 169366, Note_on_c, 0, 66, 0
2, 169486, Note_on_c, 0, 51, 58
2, 169486, Note_on_c, 0, 66, 77
2, 169486, Note_on_c, 0, 70, 0
2, 169509, Note_on_c, 0, 54, 0
2, 169617, Note_on_c, 0, 51, 0
2, 169617, Note_on_c, 0, 63, 76
2, 169625, Note_on_c, 0, 66, 0
2, 169640, Note_on_c, 0, 48, 51
2, 169758, Note_on_c, 0, 49, 66
2, 169761, Note_on_c, 0, 48, 0
2, 169890, Note_on_c, 0, 51, 58
2, 169892, Note_on_c, 0, 63, 0
2, 169892, Note_on_c, 0, 66, 72
2, 169893, Note_on_c, 0, 49, 0
2, 169984, Note_on_c, 0, 51, 0
2, 170015, Note_on_c, 0, 66, 0
2, 170017, Note_on_c, 0, 48, 53
2, 170022, Note_on_c, 0, 63, 76
2, 170121, Note_on_c, 0, 48, 0
2, 170134, Note_on_c, 0, 63, 0
2, 170153, Note_on_c, 0, 56, 72
2, 170164, Note_on_c, 0, 41, 62
2, 170173, Control_c, 0, 64, 46
2, 170192, Control_c, 0, 64, 65
2, 170211, Control_c, 0, 64, 72
2, 170214, Note_on_c, 0, 41, 0
2, 170230, Control_c, 0, 64, 89
2, 170250, Control_c, 0, 64, 127
2, 170404, Control_c, 0, 64, 101
2, 170422, Control_c, 0, 64, 74
2, 170438, Note_on_c, 0, 53, 59
2, 170442, Control_c, 0, 64, 58
2, 170444, Note_on_c, 0, 63, 66
2, 170461, Control_c, 0, 64, 0
2, 170475, Note_on_c, 0, 63, 0
2, 170523, Note_on_c, 0, 53, 0
2, 170567, Note_on_c, 0, 51, 60
2, 170695, Note_on_c, 0, 51, 0
2, 170710, Note_on_c, 0, 68, 85
2, 170722, Note_on_c, 0, 53, 57
2, 170835, Note_on_c, 0, 53, 0
2, 170836, Note_on_c, 0, 56, 0
2, 170859, Note_on_c, 0, 54, 62
2, 170987, Note_on_c, 0, 56, 65
2, 170989, Note_on_c, 0, 60, 62
2, 171001, Note_on_c, 0, 54, 0
2, 171034, Note_on_c, 0, 60, 0
2, 171110, Note_on_c, 0, 56, 0
2, 171124, Note_on_c, 0, 53, 66
2, 171273, Note_on_c, 0, 50, 55
2, 171279, Note_on_c, 0, 65, 67
2, 171287, Note_on_c, 0, 53, 0
2, 171310, Note_on_c, 0, 68, 0
2, 171404, Note_on_c, 0, 51, 64
2, 171410, Note_on_c, 0, 50, 0
2, 171502, Note_on_c, 0, 51, 0
2, 171530, Note_on_c, 0, 53, 67
2, 171546, Note_on_c, 0, 68, 84
2, 171556, Note_on_c, 0, 65, 0
2, 171633, Note_on_c, 0, 53, 0
2, 171660, Note_on_c, 0, 68, 0
2, 171661, Note_on_c, 0, 65, 74
2, 171665, Note_on_c, 0, 50, 76
2, 171762, Note_on_c, 0, 50, 0
2, 171784, Note_on_c, 0, 65, 0
2, 171789, Note_on_c, 0, 62, 69
2, 171796, Note_on_c, 0, 46, 67
2, 171918, Note_on_c, 0, 48, 70
2, 171934, Note_on_c, 0, 46, 0
2, 171996, Note_on_c, 0, 48, 0
2, 172033, Note_on_c, 0, 50, 68
2, 172040, Note_on_c, 0, 62, 0
2, 172064, Note_on_c, 0, 65, 59
2, 172129, Note_on_c, 0, 50, 0
2, 172170, Note_on_c, 0, 65, 0
2, 172189, Note_on_c, 0, 62, 62
2, 172291, Note_on_c, 0, 62, 0
2, 172324, Note_on_c, 0, 39, 60
2, 172325, Control_c, 0, 64, 47
2, 172330, Note_on_c, 0, 54, 68
2, 172343, Control_c, 0, 64, 62
2, 172363, Control_c, 0, 64, 67
2, 172371, Note_on_c, 0, 39, 0
2, 172382, Control_c, 0, 64, 76
2, 172401, Control_c, 0, 64, 93
2, 172420, Control_c, 0, 64, 127
2, 172574, Control_c, 0, 64, 96
2, 172593, Control_c, 0, 64, 79
2, 172612, Control_c, 0, 64, 69
2, 172615, Note_on_c, 0, 58, 66
2, 172621, Note_on_c, 0, 51, 56
2, 172631, Control_c, 0, 64, 62
2, 172651, Control_c, 0, 64, 48
2, 172655, Note_on_c, 0, 58, 0
2, 172669, Control_c, 0, 64, 36
2, 172689, Control_c, 0, 64, 31
2, 172694, Note_on_c, 0, 51, 0
2, 172708, Control_c, 0, 64, 27
2, 172728, Control_c, 0, 64, 24
2, 172746, Control_c, 0, 64, 21
2, 172747, Note_on_c, 0, 50, 57
2, 172766, Control_c, 0, 64, 18
2, 172785, Control_c, 0, 64, 17
2, 172822, Control_c, 0, 64, 15
2, 172871, Note_on_c, 0, 54, 0
2, 172886, Note_on_c, 0, 66, 71
2, 172895, Note_on_c, 0, 50, 0
2, 172899, Note_on_c, 0, 51, 59
2, 172994, Note_on_c, 0, 51, 0
2, 173014, Control_c, 0, 64, 17
2, 173031, Note_on_c, 0, 53, 63
2, 173091, Control_c, 0, 64, 18
2, 173110, Control_c, 0, 64, 19
2, 173130, Control_c, 0, 64, 20
2, 173130, Note_on_c, 0, 53, 0
2, 173149, Control_c, 0, 64, 24
2, 173165, Note_on_c, 0, 54, 64
2, 173165, Note_on_c, 0, 58, 63
2, 173168, Control_c, 0, 64, 28
2, 173187, Control_c, 0, 64, 29
2, 173201, Note_on_c, 0, 58, 0
2, 173207, Control_c, 0, 64, 30
2, 173284, Control_c, 0, 64, 31
2, 173300, Note_on_c, 0, 51, 61
2, 173320, Note_on_c, 0, 54, 0
2, 173322, Control_c, 0, 64, 31
2, 173379, Control_c, 0, 64, 32
2, 173399, Control_c, 0, 64, 33
2, 173415, Note_on_c, 0, 51, 0
2, 173418, Control_c, 0, 64, 34
2, 173428, Note_on_c, 0, 63, 66
2, 173436, Control_c, 0, 64, 34
2, 173441, Note_on_c, 0, 48, 50
2, 173475, Control_c, 0, 64, 35
2, 173496, Note_on_c, 0, 66, 0
2, 173513, Control_c, 0, 64, 35
2, 173558, Note_on_c, 0, 65, 69
2, 173570, Note_on_c, 0, 49, 68
2, 173571, Control_c, 0, 64, 36
2, 173578, Note_on_c, 0, 48, 0
2, 173590, Control_c, 0, 64, 37
2, 173602, Note_on_c, 0, 63, 0
2, 173610, Control_c, 0, 64, 37
2, 173629, Control_c, 0, 64, 38
2, 173671, Control_c, 0, 64, 38
2, 173687, Note_on_c, 0, 66, 77
2, 173696, Note_on_c, 0, 51, 67
2, 173702, Note_on_c, 0, 49, 0
2, 173709, Control_c, 0, 64, 39
2, 173725, Note_on_c, 0, 65, 0
2, 173729, Control_c, 0, 64, 40
2, 173748, Control_c, 0, 64, 40
2, 173767, Control_c, 0, 64, 41
2, 173786, Control_c, 0, 64, 41
2, 173791, Note_on_c, 0, 51, 0
2, 173802, Note_on_c, 0, 66, 0
2, 173806, Control_c, 0, 64, 42
2, 173815, Note_on_c, 0, 48, 69
2, 173821, Note_on_c, 0, 63, 80
2, 173844, Control_c, 0, 64, 43
2, 173863, Control_c, 0, 64, 43
2, 173883, Control_c, 0, 64, 44
2, 173901, Control_c, 0, 64, 44
2, 173938, Note_on_c, 0, 48, 0
2, 173943, Note_on_c, 0, 44, 65
2, 173959, Note_on_c, 0, 75, 86
2, 173974, Note_on_c, 0, 63, 0
2, 173978, Control_c, 0, 64, 44
2, 173998, Control_c, 0, 64, 42
2, 174017, Control_c, 0, 64, 38
2, 174035, Control_c, 0, 64, 27
2, 174055, Control_c, 0, 64, 0
2, 174080, Note_on_c, 0, 46, 65
2, 174088, Note_on_c, 0, 44, 0
2, 174095, Note_on_c, 0, 66, 71
2, 174170, Note_on_c, 0, 46, 0
2, 174211, Note_on_c, 0, 48, 60
2, 174214, Note_on_c, 0, 66, 0
2, 174219, Note_on_c, 0, 68, 68
2, 174308, Note_on_c, 0, 48, 0
2, 174333, Note_on_c, 0, 68, 0
2, 174345, Note_on_c, 0, 44, 58
2, 174354, Note_on_c, 0, 63, 59
2, 174449, Note_on_c, 0, 44, 0
2, 174484, Note_on_c, 0, 37, 59
2, 174490, Note_on_c, 0, 65, 61
2, 174514, Note_on_c, 0, 63, 0
2, 174515, Control_c, 0, 64, 43
2, 174535, Control_c, 0, 64, 73
2, 174554, Control_c, 0, 64, 89
2, 174567, Note_on_c, 0, 65, 0
2, 174574, Control_c, 0, 64, 127
2, 174633, Note_on_c, 0, 73, 69
2, 174687, Note_on_c, 0, 37, 0
2, 174705, Note_on_c, 0, 75, 0
2, 174753, Note_on_c, 0, 49, 66
2, 174756, Note_on_c, 0, 72, 75
2, 174792, Note_on_c, 0, 73, 0
2, 174842, Note_on_c, 0, 49, 0
2, 174870, Note_on_c, 0, 75, 82
2, 174886, Note_on_c, 0, 72, 0
2, 174895, Control_c, 0, 64, 108
2, 174904, Note_on_c, 0, 51, 57
2, 174914, Control_c, 0, 64, 83
2, 174934, Control_c, 0, 64, 70
2, 174952, Control_c, 0, 64, 59
2, 174972, Control_c, 0, 64, 0
2, 175010, Note_on_c, 0, 73, 84
2, 175015, Note_on_c, 0, 53, 69
2, 175017, Note_on_c, 0, 51, 0
2, 175024, Note_on_c, 0, 75, 0
2, 175049, Note_on_c, 0, 53, 0
2, 175110, Note_on_c, 0, 73, 0
2, 175149, Note_on_c, 0, 68, 76
2, 175262, Note_on_c, 0, 68, 0
2, 175280, Note_on_c, 0, 70, 76
2, 175284, Note_on_c, 0, 61, 83
2, 175297, Note_on_c, 0, 49, 64
2, 175331, Note_on_c, 0, 49, 0
2, 175412, Note_on_c, 0, 71, 74
2, 175425, Note_on_c, 0, 70, 0
2, 175560, Note_on_c, 0, 54, 58
2, 175568, Note_on_c, 0, 70, 73
2, 175581, Note_on_c, 0, 61, 0
2, 175581, Note_on_c, 0, 71, 0
2, 175698, Note_on_c, 0, 68, 78
2, 175708, Note_on_c, 0, 70, 0
2, 175714, Note_on_c, 0, 60, 53
2, 175760, Control_c, 0, 64, 18
2, 175778, Control_c, 0, 64, 31
2, 175797, Control_c, 0, 64, 35
2, 175803, Note_on_c, 0, 68, 0
2, 175813, Note_on_c, 0, 60, 0
2, 175817, Control_c, 0, 64, 35
2, 175819, Note_on_c, 0, 58, 63
2, 175829, Note_on_c, 0, 66, 81
2, 175835, Note_on_c, 0, 54, 0
2, 175874, Control_c, 0, 64, 35
2, 175894, Control_c, 0, 64, 34
2, 175895, Note_on_c, 0, 58, 0
2, 175912, Control_c, 0, 64, 34
2, 175952, Note_on_c, 0, 60, 70
2, 175957, Note_on_c, 0, 66, 0
2, 175964, Note_on_c, 0, 68, 84
2, 176047, Control_c, 0, 64, 33
2, 176051, Note_on_c, 0, 68, 0
2, 176079, Note_on_c, 0, 60, 0
2, 176086, Control_c, 0, 64, 32
2, 176091, Note_on_c, 0, 61, 63
2, 176092, Note_on_c, 0, 77, 89
2, 176103, Note_on_c, 0, 53, 51
2, 176104, Control_c, 0, 64, 30
2, 176121, Note_on_c, 0, 77, 0
2, 176124, Control_c, 0, 64, 27
2, 176143, Control_c, 0, 64, 22
2, 176163, Control_c, 0, 64, 21
2, 176166, Note_on_c, 0, 61, 0
2, 176181, Control_c, 0, 64, 20
2, 176229, Note_on_c, 0, 60, 59
2, 176334, Note_on_c, 0, 60, 0
2, 176351, Note_on_c, 0, 58, 59
2, 176360, Note_on_c, 0, 73, 75
2, 176389, Note_on_c, 0, 73, 0
2, 176447, Note_on_c, 0, 53, 0
2, 176482, Note_on_c, 0, 56, 67
2, 176488, Note_on_c, 0, 58, 0
2, 176600, Note_on_c, 0, 56, 0
2, 176627, Note_on_c, 0, 68, 84
2, 176630, Note_on_c, 0, 51, 54
2, 176633, Note_on_c, 0, 58, 59
2, 176673, Note_on_c, 0, 51, 0
2, 176919, Note_on_c, 0, 49, 58
2, 176919, Note_on_c, 0, 66, 77
2, 176934, Note_on_c, 0, 68, 0
2, 176960, Note_on_c, 0, 49, 0
2, 177016, Note_on_c, 0, 66, 0
2, 177050, Note_on_c, 0, 65, 69
2, 177155, Note_on_c, 0, 65, 0
2, 177179, Note_on_c, 0, 48, 54
2, 177183, Note_on_c, 0, 66, 73
2, 177217, Note_on_c, 0, 66, 0
2, 177282, Note_on_c, 0, 58, 0
2, 177316, Note_on_c, 0, 56, 67
2, 177442, Note_on_c, 0, 48, 0
2, 177453, Note_on_c, 0, 75, 76
2, 177456, Note_on_c, 0, 54, 58
2, 177472, Note_on_c, 0, 56, 0
2, 177482, Note_on_c, 0, 75, 0
2, 177582, Note_on_c, 0, 58, 68
2, 177622, Note_on_c, 0, 54, 0
2, 177642, Control_c, 0, 64, 21
2, 177703, Note_on_c, 0, 58, 0
2, 177709, Note_on_c, 0, 56, 67
2, 177721, Note_on_c, 0, 65, 67
2, 177738, Control_c, 0, 64, 22
2, 177741, Note_on_c, 0, 49, 52
2, 177754, Note_on_c, 0, 65, 0
2, 177842, Note_on_c, 0, 54, 60
2, 177861, Note_on_c, 0, 56, 0
2, 177986, Note_on_c, 0, 73, 74
2, 177987, Note_on_c, 0, 53, 48
2, 177988, Note_on_c, 0, 54, 0
2, 178013, Note_on_c, 0, 49, 0
2, 178027, Note_on_c, 0, 73, 0
2, 178095, Note_on_c, 0, 53, 0
2, 178120, Note_on_c, 0, 56, 65
2, 178141, Control_c, 0, 64, 23
2, 178199, Control_c, 0, 64, 24
2, 178218, Control_c, 0, 64, 25
2, 178234, Note_on_c, 0, 56, 0
2, 178236, Control_c, 0, 64, 27
2, 178240, Note_on_c, 0, 63, 62
2, 178245, Note_on_c, 0, 54, 67
2, 178256, Control_c, 0, 64, 27
2, 178264, Note_on_c, 0, 44, 48
2, 178275, Control_c, 0, 64, 28
2, 178295, Control_c, 0, 64, 29
2, 178303, Note_on_c, 0, 63, 0
2, 178333, Note_on_c, 0, 54, 0
2, 178395, Note_on_c, 0, 53, 60
2, 178467, Control_c, 0, 64, 29
2, 178496, Note_on_c, 0, 53, 0
2, 178507, Control_c, 0, 64, 30
2, 178524, Note_on_c, 0, 72, 68
2, 178526, Note_on_c, 0, 51, 60
2, 178564, Note_on_c, 0, 72, 0
2, 178583, Note_on_c, 0, 44, 0
2, 178662, Note_on_c, 0, 54, 60
2, 178665, Note_on_c, 0, 51, 0
2, 178735, Control_c, 0, 64, 31
2, 178803, Note_on_c, 0, 53, 59
2, 178805, Note_on_c, 0, 54, 0
2, 178805, Note_on_c, 0, 61, 54
2, 178810, Note_on_c, 0, 46, 37
2, 178812, Control_c, 0, 64, 31
2, 178831, Control_c, 0, 64, 32
2, 178850, Control_c, 0, 64, 32
2, 178862, Note_on_c, 0, 46, 0
2, 178869, Control_c, 0, 64, 33
2, 178898, Note_on_c, 0, 61, 0
2, 178927, Control_c, 0, 64, 34
2, 178930, Note_on_c, 0, 53, 0
2, 178933, Note_on_c, 0, 65, 59
2, 178946, Note_on_c, 0, 56, 63
2, 179059, Note_on_c, 0, 66, 70
2, 179065, Note_on_c, 0, 65, 0
2, 179082, Note_on_c, 0, 58, 60
2, 179120, Note_on_c, 0, 56, 0
2, 179186, Note_on_c, 0, 68, 81
2, 179196, Note_on_c, 0, 58, 0
2, 179206, Note_on_c, 0, 60, 68
2, 179216, Note_on_c, 0, 66, 0
2, 179315, Note_on_c, 0, 70, 82
2, 179332, Note_on_c, 0, 61, 72
2, 179344, Note_on_c, 0, 60, 0
2, 179375, Note_on_c, 0, 68, 0
2, 179419, Note_on_c, 0, 70, 0
2, 179442, Note_on_c, 0, 61, 0
2, 179449, Note_on_c, 0, 72, 89
2, 179468, Note_on_c, 0, 60, 72
2, 179488, Control_c, 0, 64, 32
2, 179507, Control_c, 0, 64, 30
2, 179526, Control_c, 0, 64, 28
2, 179545, Control_c, 0, 64, 22
2, 179565, Control_c, 0, 64, 0
2, 179589, Note_on_c, 0, 73, 86
2, 179591, Note_on_c, 0, 60, 0
2, 179595, Note_on_c, 0, 58, 69
2, 179605, Note_on_c, 0, 72, 0
2, 179711, Note_on_c, 0, 75, 91
2, 179720, Note_on_c, 0, 56, 72
2, 179737, Note_on_c, 0, 58, 0
2, 179754, Note_on_c, 0, 73, 0
2, 179842, Note_on_c, 0, 76, 83
2, 179851, Note_on_c, 0, 56, 0
2, 179855, Note_on_c, 0, 55, 71
2, 179873, Note_on_c, 0, 75, 0
2, 179978, Note_on_c, 0, 56, 77
2, 179979, Note_on_c, 0, 75, 92
2, 180001, Note_on_c, 0, 55, 0
2, 180040, Note_on_c, 0, 76, 0
2, 180064, Control_c, 0, 64, 55
2, 180083, Control_c, 0, 64, 64
2, 180101, Note_on_c, 0, 58, 80
2, 180102, Control_c, 0, 64, 69
2, 180108, Note_on_c, 0, 73, 89
2, 180109, Note_on_c, 0, 56, 0
2, 180122, Control_c, 0, 64, 78
2, 180128, Note_on_c, 0, 75, 0
2, 180140, Control_c, 0, 64, 104
2, 180160, Control_c, 0, 64, 127
2, 180225, Note_on_c, 0, 55, 79
2, 180235, Note_on_c, 0, 58, 0
2, 180242, Note_on_c, 0, 75, 98
2, 180268, Note_on_c, 0, 55, 0
2, 180283, Note_on_c, 0, 73, 0
2, 180337, Note_on_c, 0, 75, 0
2, 180366, Note_on_c, 0, 76, 89
2, 180371, Control_c, 0, 64, 96
2, 180380, Note_on_c, 0, 51, 75
2, 180390, Control_c, 0, 64, 73
2, 180410, Control_c, 0, 64, 51
2, 180428, Control_c, 0, 64, 0
2, 180489, Note_on_c, 0, 49, 73
2, 180496, Note_on_c, 0, 79, 90
2, 180510, Note_on_c, 0, 76, 0
2, 180624, Note_on_c, 0, 49, 0
2, 180629, Note_on_c, 0, 48, 69
2, 180633, Note_on_c, 0, 80, 89
2, 180635, Note_on_c, 0, 79, 0
2, 180695, Control_c, 0, 64, 27
2, 180700, Note_on_c, 0, 51, 0
2, 180713, Control_c, 0, 64, 64
2, 180733, Control_c, 0, 64, 70
2, 180752, Control_c, 0, 64, 78
2, 180756, Note_on_c, 0, 82, 83
2, 180760, Note_on_c, 0, 80, 0
2, 180770, Note_on_c, 0, 46, 72
2, 180771, Control_c, 0, 64, 89
2, 180773, Note_on_c, 0, 48, 0
2, 180790, Control_c, 0, 64, 107
2, 180810, Control_c, 0, 64, 127
2, 180851, Note_on_c, 0, 82, 0
2, 180901, Note_on_c, 0, 73, 79
2, 180911, Note_on_c, 0, 44, 68
2, 180964, Control_c, 0, 64, 107
2, 180982, Control_c, 0, 64, 86
2, 180999, Control_c, 0, 64, 72
2, 181014, Note_on_c, 0, 46, 0
2, 181014, Note_on_c, 0, 73, 0
2, 181018, Control_c, 0, 64, 63
2, 181025, Note_on_c, 0, 72, 83
2, 181036, Note_on_c, 0, 51, 72
2, 181037, Control_c, 0, 64, 47
2, 181056, Control_c, 0, 64, 0
2, 181106, Note_on_c, 0, 44, 0
2, 181163, Note_on_c, 0, 70, 88
2, 181171, Note_on_c, 0, 72, 0
2, 181172, Note_on_c, 0, 53, 75
2, 181174, Note_on_c, 0, 51, 0
2, 181268, Note_on_c, 0, 53, 0
2, 181288, Note_on_c, 0, 68, 90
2, 181302, Note_on_c, 0, 54, 74
2, 181318, Note_on_c, 0, 70, 0
2, 181393, Note_on_c, 0, 68, 0
2, 181430, Note_on_c, 0, 56, 78
2, 181432, Note_on_c, 0, 75, 90
2, 181451, Note_on_c, 0, 54, 0
2, 181457, Note_on_c, 0, 75, 0
2, 181528, Note_on_c, 0, 56, 0
2, 181550, Note_on_c, 0, 58, 81
2, 181673, Note_on_c, 0, 58, 0
2, 181689, Note_on_c, 0, 60, 65
2, 181689, Note_on_c, 0, 66, 89
2, 181739, Note_on_c, 0, 66, 0
2, 181845, Note_on_c, 0, 56, 78
2, 181856, Note_on_c, 0, 60, 0
2, 181916, Note_on_c, 0, 56, 0
2, 181978, Note_on_c, 0, 65, 80
2, 181988, Note_on_c, 0, 61, 74
2, 182021, Note_on_c, 0, 61, 0
2, 182039, Note_on_c, 0, 65, 0
2, 182293, Note_on_c, 0, 68, 80
2, 182294, Note_on_c, 0, 41, 71
2, 182296, Note_on_c, 0, 73, 80
2, 182299, Note_on_c, 0, 61, 72
2, 182339, Note_on_c, 0, 41, 0
2, 182341, Note_on_c, 0, 61, 0
2, 182349, Note_on_c, 0, 68, 0
2, 182381, Note_on_c, 0, 73, 0
2, 182638, Note_on_c, 0, 42, 70
2, 182638, Note_on_c, 0, 70, 80
2, 182639, Note_on_c, 0, 63, 71
2, 182642, Note_on_c, 0, 66, 72
2, 182683, Note_on_c, 0, 42, 0
2, 182700, Note_on_c, 0, 66, 0
2, 182707, Note_on_c, 0, 70, 0
2, 183044, Note_on_c, 0, 72, 80
2, 183046, Note_on_c, 0, 68, 70
2, 183049, Note_on_c, 0, 66, 68
2, 183050, Note_on_c, 0, 44, 70
2, 183095, Note_on_c, 0, 44, 0
2, 183106, Note_on_c, 0, 63, 0
2, 183121, Note_on_c, 0, 68, 0
2, 183132, Note_on_c, 0, 66, 0
2, 183139, Note_on_c, 0, 72, 0
2, 183736, Note_on_c, 0, 73, 79
2, 183747, Note_on_c, 0, 68, 66
2, 183751, Note_on_c, 0, 37, 67
2, 183756, Note_on_c, 0, 65, 61
2, 183760, Note_on_c, 0, 61, 68
2, 185517, Control_c, 0, 64, 18
2, 185537, Control_c, 0, 64, 30
2, 185556, Control_c, 0, 64, 42
2, 185575, Control_c, 0, 64, 50
2, 185594, Control_c, 0, 64, 53
2, 185614, Control_c, 0, 64, 55
2, 185632, Control_c, 0, 64, 56
2, 185652, Control_c, 0, 64, 57
2, 185671, Control_c, 0, 64, 58
2, 185690, Control_c, 0, 64, 59
2, 185709, Control_c, 0, 64, 60
2, 185728, Control_c, 0, 64, 60
2, 185748, Control_c, 0, 64, 61
2, 185767, Control_c, 0, 64, 62
2, 185786, Control_c, 0, 64, 63
2, 185805, Control_c, 0, 64, 63
2, 185843, Control_c, 0, 64, 64
2, 185863, Control_c, 0, 64, 65
2, 185882, Control_c, 0, 64, 65
2, 185902, Control_c, 0, 64, 66
2, 185920, Control_c, 0, 64, 67
2, 185940, Control_c, 0, 64, 69
2, 185959, Control_c, 0, 64, 71
2, 185978, Control_c, 0, 64, 74
2, 185997, Control_c, 0, 64, 77
2, 186017, Control_c, 0, 64, 81
2, 186036, Control_c, 0, 64, 84
2, 186055, Control_c, 0, 64, 89
2, 186074, Control_c, 0, 64, 95
2, 186094, Control_c, 0, 64, 105
2, 186112, Control_c, 0, 64, 127
2, 186224, Note_on_c, 0, 37, 0
2, 186226, Note_on_c, 0, 61, 0
2, 186234, Note_on_c, 0, 65, 0
2, 186237, Note_on_c, 0, 73, 0
2, 186255, Note_on_c, 0, 68, 0
2, 186533, Control_c, 0, 64, 117
2, 186552, Control_c, 0, 64, 102
2, 186572, Control_c, 0, 64, 93
2, 186591, Control_c, 0, 64, 88
2, 186609, Control_c, 0, 64, 84
2, 186629, Control_c, 0, 64, 80
2, 186648, Control_c, 0, 64, 75
2, 186667, Control_c, 0, 64, 71
2, 186686, Control_c, 0, 64, 67
2, 186706, Control_c, 0, 64, 65
2, 186725, Control_c, 0, 64, 64
2, 186744, Control_c, 0, 64, 63
2, 186763, Control_c, 0, 64, 62
2, 186783, Control_c, 0, 64, 61
2, 186802, Control_c, 0, 64, 60
2, 186821, Control_c, 0, 64, 58
2, 186840, Control_c, 0, 64, 56
2, 186860, Control_c, 0, 64, 52
2, 186878, Control_c, 0, 64, 48
2, 186898, Control_c, 0, 64, 44
2, 186917, Control_c, 0, 64, 43
2, 186937, Control_c, 0, 64, 41
2, 186955, Control_c, 0, 64, 41
2, 186975, Control_c, 0, 64, 40
2, 187013, Control_c, 0, 64, 40
2, 187109, Control_c, 0, 64, 39
2, 187110, End_track
0, 0, End_of_file
