0, 0, Header, 1, 2, 480
1, 0, Start_track
1, 0, Tempo, 500000
1, 0, Time_signature, 4, 2, 24, 8
1, 1, End_track
2, 0, Start_track
2, 0, Program_c, 0, 0
2, 0, Control_c, 0, 64, 47
2, 126, Control_c, 0, 64, 47
2, 164, Control_c, 0, 64, 46
2, 183, Control_c, 0, 64, 45
2, 202, Control_c, 0, 64, 44
2, 221, Control_c, 0, 64, 43
2, 241, Control_c, 0, 64, 41
2, 260, Control_c, 0, 64, 39
2, 279, Control_c, 0, 64, 37
2, 298, Control_c, 0, 64, 35
2, 315, Control_c, 0, 64, 31
2, 334, Control_c, 0, 64, 25
2, 353, Control_c, 0, 64, 11
2, 372, Control_c, 0, 64, 0
2, 921, Note_on_c, 0, 77, 57
2, 930, Note_on_c, 0, 49, 44
2, 993, Note_on_c, 0, 77, 0
2, 1008, Note_on_c, 0, 73, 61
2, 1060, Note_on_c, 0, 73, 0
2, 1106, Note_on_c, 0, 68, 58
2, 1171, Note_on_c, 0, 68, 0
2, 1197, Note_on_c, 0, 73, 62
2, 1251, Note_on_c, 0, 73, 0
2, 1284, Note_on_c, 0, 77, 61
2, 1289, Note_on_c, 0, 49, 0
2, 1305, Note_on_c, 0, 61, 52
2, 1330, Note_on_c, 0, 77, 0
2, 1348, Note_on_c, 0, 61, 0
2, 1385, Note_on_c, 0, 73, 57
2, 1432, Note_on_c, 0, 73, 0
2, 1484, Note_on_c, 0, 51, 38
2, 1487, Note_on_c, 0, 78, 68
2, 1535, Note_on_c, 0, 78, 0
2, 1583, Note_on_c, 0, 73, 54
2, 1634, Note_on_c, 0, 73, 0
2, 1671, Note_on_c, 0, 78, 73
2, 1729, Note_on_c, 0, 78, 0
2, 1768, Note_on_c, 0, 73, 68
2, 1840, Note_on_c, 0, 73, 0
2, 1847, Note_on_c, 0, 51, 0
2, 1863, Note_on_c, 0, 61, 50
2, 1866, Note_on_c, 0, 78, 77
2, 1905, Note_on_c, 0, 61, 0
2, 1923, Note_on_c, 0, 78, 0
2, 1969, Note_on_c, 0, 73, 67
2, 2019, Note_on_c, 0, 73, 0
2, 2059, Note_on_c, 0, 80, 79
2, 2071, Note_on_c, 0, 53, 48
2, 2105, Note_on_c, 0, 80, 0
2, 2154, Note_on_c, 0, 73, 71
2, 2224, Note_on_c, 0, 73, 0
2, 2243, Note_on_c, 0, 80, 85
2, 2304, Note_on_c, 0, 80, 0
2, 2343, Note_on_c, 0, 73, 76
2, 2408, Note_on_c, 0, 73, 0
2, 2412, Note_on_c, 0, 53, 0
2, 2427, Note_on_c, 0, 80, 89
2, 2433, Note_on_c, 0, 61, 48
2, 2479, Note_on_c, 0, 61, 0
2, 2496, Note_on_c, 0, 80, 0
2, 2529, Note_on_c, 0, 73, 81
2, 2600, Note_on_c, 0, 73, 0
2, 2630, Note_on_c, 0, 82, 87
2, 2636, Note_on_c, 0, 54, 55
2, 2691, Note_on_c, 0, 82, 0
2, 2729, Note_on_c, 0, 73, 79
2, 2801, Note_on_c, 0, 73, 0
2, 2829, Note_on_c, 0, 82, 81
2, 2877, Note_on_c, 0, 82, 0
2, 2927, Note_on_c, 0, 73, 75
2, 2989, Note_on_c, 0, 73, 0
2, 3020, Note_on_c, 0, 82, 74
2, 3028, Note_on_c, 0, 61, 47
2, 3035, Note_on_c, 0, 54, 0
2, 3064, Note_on_c, 0, 82, 0
2, 3078, Note_on_c, 0, 61, 0
2, 3125, Note_on_c, 0, 73, 64
2, 3176, Note_on_c, 0, 73, 0
2, 3220, Note_on_c, 0, 80, 72
2, 3224, Note_on_c, 0, 53, 46
2, 3270, Note_on_c, 0, 80, 0
2, 3313, Note_on_c, 0, 73, 64
2, 3385, Note_on_c, 0, 73, 0
2, 3406, Note_on_c, 0, 80, 70
2, 3465, Note_on_c, 0, 80, 0
2, 3505, Note_on_c, 0, 73, 61
2, 3560, Note_on_c, 0, 73, 0
2, 3570, Note_on_c, 0, 53, 0
2, 3594, Note_on_c, 0, 80, 70
2, 3605, Note_on_c, 0, 61, 42
2, 3636, Note_on_c, 0, 80, 0
2, 3676, Note_on_c, 0, 61, 0
2, 3701, Note_on_c, 0, 73, 57
2, 3768, Note_on_c, 0, 73, 0
2, 3802, Note_on_c, 0, 78, 58
2, 3807, Note_on_c, 0, 51, 44
2, 3910, Note_on_c, 0, 77, 62
2, 3910, Note_on_c, 0, 78, 0
2, 4006, Note_on_c, 0, 77, 0
2, 4007, Note_on_c, 0, 75, 73
2, 4112, Note_on_c, 0, 77, 68
2, 4114, Note_on_c, 0, 75, 0
2, 4174, Note_on_c, 0, 60, 47
2, 4204, Note_on_c, 0, 78, 74
2, 4224, Note_on_c, 0, 51, 0
2, 4228, Note_on_c, 0, 77, 0
2, 4237, Note_on_c, 0, 60, 0
2, 4292, Note_on_c, 0, 78, 0
2, 4305, Note_on_c, 0, 75, 65
2, 4384, Note_on_c, 0, 75, 0
2, 4390, Note_on_c, 0, 77, 74
2, 4402, Note_on_c, 0, 49, 53
2, 4440, Note_on_c, 0, 49, 0
2, 4484, Note_on_c, 0, 77, 0
2, 4487, Note_on_c, 0, 75, 74
2, 4574, Note_on_c, 0, 75, 0
2, 4592, Note_on_c, 0, 73, 72
2, 4687, Note_on_c, 0, 73, 0
2, 4692, Note_on_c, 0, 75, 71
2, 4787, Note_on_c, 0, 61, 63
2, 4787, Note_on_c, 0, 75, 0
2, 4797, Note_on_c, 0, 77, 66
2, 4891, Note_on_c, 0, 73, 63
2, 4891, Note_on_c, 0, 77, 0
2, 4909, Control_c, 0, 64, 46
2, 4928, Control_c, 0, 64, 64
2, 4948, Control_c, 0, 64, 70
2, 4966, Control_c, 0, 64, 79
2, 4978, Note_on_c, 0, 75, 68
2, 4986, Control_c, 0, 64, 95
2, 4987, Note_on_c, 0, 73, 0
2, 5005, Control_c, 0, 64, 127
2, 5072, Note_on_c, 0, 75, 0
2, 5077, Note_on_c, 0, 77, 71
2, 5092, Note_on_c, 0, 61, 0
2, 5139, Control_c, 0, 64, 106
2, 5156, Note_on_c, 0, 60, 55
2, 5159, Control_c, 0, 64, 81
2, 5166, Note_on_c, 0, 75, 75
2, 5172, Note_on_c, 0, 77, 0
2, 5177, Control_c, 0, 64, 66
2, 5197, Control_c, 0, 64, 30
2, 5216, Control_c, 0, 64, 0
2, 5220, Note_on_c, 0, 60, 0
2, 5251, Note_on_c, 0, 58, 60
2, 5254, Note_on_c, 0, 73, 79
2, 5271, Note_on_c, 0, 75, 0
2, 5307, Note_on_c, 0, 58, 0
2, 5316, Note_on_c, 0, 73, 0
2, 5349, Note_on_c, 0, 72, 75
2, 5350, Note_on_c, 0, 56, 61
2, 5429, Note_on_c, 0, 72, 0
2, 5433, Note_on_c, 0, 56, 0
2, 5439, Note_on_c, 0, 70, 76
2, 5448, Note_on_c, 0, 58, 54
2, 5511, Note_on_c, 0, 58, 0
2, 5524, Note_on_c, 0, 68, 76
2, 5524, Note_on_c, 0, 70, 0
2, 5560, Note_on_c, 0, 60, 58
2, 5616, Note_on_c, 0, 60, 0
2, 5643, Note_on_c, 0, 56, 62
2, 5700, Note_on_c, 0, 56, 0
2, 5733, Note_on_c, 0, 51, 57
2, 5819, Note_on_c, 0, 56, 64
2, 5828, Note_on_c, 0, 51, 0
2, 5879, Note_on_c, 0, 68, 0
2, 5880, Note_on_c, 0, 56, 0
2, 5927, Note_on_c, 0, 80, 61
2, 5934, Note_on_c, 0, 60, 60
2, 5955, Note_on_c, 0, 80, 0
2, 5972, Note_on_c, 0, 60, 0
2, 6031, Note_on_c, 0, 56, 59
2, 6083, Note_on_c, 0, 56, 0
2, 6116, Note_on_c, 0, 70, 73
2, 6142, Note_on_c, 0, 61, 50
2, 6196, Note_on_c, 0, 61, 0
2, 6219, Note_on_c, 0, 56, 62
2, 6287, Note_on_c, 0, 56, 0
2, 6326, Note_on_c, 0, 61, 61
2, 6395, Note_on_c, 0, 61, 0
2, 6431, Note_on_c, 0, 56, 63
2, 6470, Note_on_c, 0, 70, 0
2, 6485, Note_on_c, 0, 56, 0
2, 6486, Note_on_c, 0, 80, 70
2, 6521, Note_on_c, 0, 80, 0
2, 6525, Note_on_c, 0, 61, 68
2, 6572, Note_on_c, 0, 61, 0
2, 6615, Note_on_c, 0, 56, 68
2, 6673, Note_on_c, 0, 56, 0
2, 6690, Note_on_c, 0, 72, 80
2, 6711, Note_on_c, 0, 63, 67
2, 6776, Note_on_c, 0, 63, 0
2, 6806, Note_on_c, 0, 56, 73
2, 6867, Note_on_c, 0, 56, 0
2, 6898, Note_on_c, 0, 63, 76
2, 6963, Note_on_c, 0, 63, 0
2, 6993, Note_on_c, 0, 56, 75
2, 7059, Note_on_c, 0, 72, 0
2, 7071, Note_on_c, 0, 56, 0
2, 7083, Note_on_c, 0, 63, 76
2, 7085, Note_on_c, 0, 80, 77
2, 7116, Note_on_c, 0, 80, 0
2, 7168, Note_on_c, 0, 63, 0
2, 7176, Note_on_c, 0, 56, 71
2, 7254, Note_on_c, 0, 56, 0
2, 7282, Note_on_c, 0, 73, 85
2, 7289, Note_on_c, 0, 65, 62
2, 7350, Note_on_c, 0, 65, 0
2, 7380, Note_on_c, 0, 56, 75
2, 7430, Note_on_c, 0, 56, 0
2, 7480, Note_on_c, 0, 65, 67
2, 7532, Note_on_c, 0, 65, 0
2, 7560, Note_on_c, 0, 56, 73
2, 7627, Note_on_c, 0, 56, 0
2, 7660, Note_on_c, 0, 80, 69
2, 7666, Note_on_c, 0, 65, 67
2, 7672, Note_on_c, 0, 73, 0
2, 7698, Note_on_c, 0, 80, 0
2, 7717, Note_on_c, 0, 65, 0
2, 7759, Note_on_c, 0, 56, 73
2, 7831, Note_on_c, 0, 56, 0
2, 7860, Note_on_c, 0, 72, 73
2, 7865, Note_on_c, 0, 63, 68
2, 7922, Note_on_c, 0, 63, 0
2, 7966, Note_on_c, 0, 56, 67
2, 8015, Note_on_c, 0, 56, 0
2, 8057, Note_on_c, 0, 63, 70
2, 8111, Note_on_c, 0, 63, 0
2, 8156, Note_on_c, 0, 56, 66
2, 8205, Note_on_c, 0, 56, 0
2, 8212, Note_on_c, 0, 72, 0
2, 8239, Note_on_c, 0, 80, 64
2, 8255, Note_on_c, 0, 63, 63
2, 8276, Note_on_c, 0, 80, 0
2, 8307, Note_on_c, 0, 63, 0
2, 8336, Note_on_c, 0, 56, 54
2, 8408, Note_on_c, 0, 56, 0
2, 8446, Note_on_c, 0, 61, 62
2, 8446, Note_on_c, 0, 70, 72
2, 8527, Note_on_c, 0, 61, 0
2, 8557, Note_on_c, 0, 60, 60
2, 8622, Note_on_c, 0, 60, 0
2, 8650, Note_on_c, 0, 58, 59
2, 8738, Note_on_c, 0, 58, 0
2, 8748, Note_on_c, 0, 60, 64
2, 8799, Note_on_c, 0, 60, 0
2, 8802, Note_on_c, 0, 70, 0
2, 8832, Note_on_c, 0, 79, 61
2, 8836, Note_on_c, 0, 61, 69
2, 8880, Note_on_c, 0, 79, 0
2, 8904, Note_on_c, 0, 61, 0
2, 8934, Note_on_c, 0, 58, 55
2, 9008, Note_on_c, 0, 58, 0
2, 9017, Note_on_c, 0, 68, 68
2, 9036, Note_on_c, 0, 60, 61
2, 9046, Note_on_c, 0, 68, 0
2, 9088, Note_on_c, 0, 60, 0
2, 9133, Note_on_c, 0, 58, 68
2, 9195, Note_on_c, 0, 58, 0
2, 9229, Note_on_c, 0, 56, 67
2, 9325, Note_on_c, 0, 56, 0
2, 9325, Note_on_c, 0, 58, 66
2, 9377, Note_on_c, 0, 58, 0
2, 9413, Note_on_c, 0, 80, 83
2, 9431, Note_on_c, 0, 60, 62
2, 9504, Note_on_c, 0, 60, 0
2, 9518, Note_on_c, 0, 56, 66
2, 9609, Note_on_c, 0, 58, 68
2, 9625, Note_on_c, 0, 56, 0
2, 9683, Note_on_c, 0, 58, 0
2, 9712, Note_on_c, 0, 59, 74
2, 9773, Note_on_c, 0, 59, 0
2, 9808, Note_on_c, 0, 58, 64
2, 9813, Note_on_c, 0, 78, 74
2, 9857, Note_on_c, 0, 80, 0
2, 9880, Note_on_c, 0, 58, 0
2, 9884, Note_on_c, 0, 56, 67
2, 9890, Note_on_c, 0, 78, 0
2, 9911, Note_on_c, 0, 77, 76
2, 9980, Note_on_c, 0, 77, 0
2, 9984, Note_on_c, 0, 75, 75
2, 10006, Note_on_c, 0, 54, 60
2, 10023, Note_on_c, 0, 56, 0
2, 10066, Note_on_c, 0, 54, 0
2, 10083, Note_on_c, 0, 75, 0
2, 10098, Note_on_c, 0, 77, 64
2, 10105, Note_on_c, 0, 53, 57
2, 10181, Note_on_c, 0, 53, 0
2, 10196, Note_on_c, 0, 78, 62
2, 10208, Note_on_c, 0, 51, 58
2, 10224, Note_on_c, 0, 77, 0
2, 10299, Note_on_c, 0, 75, 70
2, 10303, Note_on_c, 0, 78, 0
2, 10347, Note_on_c, 0, 75, 0
2, 10383, Note_on_c, 0, 70, 66
2, 10481, Note_on_c, 0, 70, 0
2, 10488, Note_on_c, 0, 75, 66
2, 10574, Note_on_c, 0, 75, 0
2, 10575, Note_on_c, 0, 78, 71
2, 10578, Note_on_c, 0, 51, 0
2, 10580, Note_on_c, 0, 63, 52
2, 10615, Note_on_c, 0, 63, 0
2, 10637, Note_on_c, 0, 78, 0
2, 10673, Note_on_c, 0, 75, 64
2, 10739, Note_on_c, 0, 75, 0
2, 10762, Note_on_c, 0, 53, 47
2, 10778, Note_on_c, 0, 80, 74
2, 10831, Note_on_c, 0, 80, 0
2, 10876, Note_on_c, 0, 75, 64
2, 10924, Note_on_c, 0, 75, 0
2, 10961, Note_on_c, 0, 80, 80
2, 11030, Note_on_c, 0, 80, 0
2, 11056, Note_on_c, 0, 75, 77
2, 11126, Note_on_c, 0, 75, 0
2, 11132, Note_on_c, 0, 53, 0
2, 11146, Note_on_c, 0, 63, 52
2, 11149, Note_on_c, 0, 80, 85
2, 11200, Note_on_c, 0, 63, 0
2, 11220, Note_on_c, 0, 80, 0
2, 11250, Note_on_c, 0, 75, 80
2, 11321, Note_on_c, 0, 75, 0
2, 11341, Note_on_c, 0, 54, 48
2, 11344, Note_on_c, 0, 82, 87
2, 11412, Note_on_c, 0, 82, 0
2, 11439, Note_on_c, 0, 75, 84
2, 11514, Note_on_c, 0, 75, 0
2, 11529, Note_on_c, 0, 82, 91
2, 11609, Note_on_c, 0, 82, 0
2, 11626, Note_on_c, 0, 75, 83
2, 11702, Note_on_c, 0, 75, 0
2, 11712, Note_on_c, 0, 63, 54
2, 11713, Note_on_c, 0, 54, 0
2, 11718, Note_on_c, 0, 82, 94
2, 11758, Note_on_c, 0, 63, 0
2, 11790, Note_on_c, 0, 82, 0
2, 11814, Note_on_c, 0, 75, 83
2, 11893, Note_on_c, 0, 75, 0
2, 11908, Note_on_c, 0, 56, 56
2, 11919, Note_on_c, 0, 83, 92
2, 11983, Note_on_c, 0, 83, 0
2, 12012, Note_on_c, 0, 75, 84
2, 12088, Note_on_c, 0, 75, 0
2, 12113, Note_on_c, 0, 83, 85
2, 12186, Note_on_c, 0, 83, 0
2, 12213, Note_on_c, 0, 75, 82
2, 12286, Note_on_c, 0, 63, 44
2, 12288, Note_on_c, 0, 75, 0
2, 12301, Note_on_c, 0, 56, 0
2, 12314, Note_on_c, 0, 83, 81
2, 12325, Note_on_c, 0, 63, 0
2, 12385, Note_on_c, 0, 83, 0
2, 12414, Note_on_c, 0, 75, 72
2, 12483, Note_on_c, 0, 75, 0
2, 12493, Note_on_c, 0, 54, 52
2, 12513, Note_on_c, 0, 82, 78
2, 12586, Note_on_c, 0, 82, 0
2, 12609, Note_on_c, 0, 75, 71
2, 12674, Note_on_c, 0, 75, 0
2, 12697, Note_on_c, 0, 82, 74
2, 12751, Note_on_c, 0, 82, 0
2, 12799, Note_on_c, 0, 75, 66
2, 12846, Note_on_c, 0, 75, 0
2, 12884, Note_on_c, 0, 82, 73
2, 12903, Note_on_c, 0, 63, 44
2, 12906, Note_on_c, 0, 54, 0
2, 12936, Note_on_c, 0, 82, 0
2, 12963, Note_on_c, 0, 63, 0
2, 12979, Note_on_c, 0, 75, 66
2, 13053, Note_on_c, 0, 75, 0
2, 13080, Note_on_c, 0, 80, 69
2, 13096, Note_on_c, 0, 53, 42
2, 13175, Note_on_c, 0, 78, 69
2, 13193, Note_on_c, 0, 80, 0
2, 13254, Note_on_c, 0, 78, 0
2, 13269, Note_on_c, 0, 77, 74
2, 13358, Note_on_c, 0, 77, 0
2, 13368, Note_on_c, 0, 78, 72
2, 13463, Note_on_c, 0, 78, 0
2, 13463, Note_on_c, 0, 80, 76
2, 13482, Note_on_c, 0, 62, 47
2, 13499, Note_on_c, 0, 53, 0
2, 13514, Note_on_c, 0, 62, 0
2, 13531, Note_on_c, 0, 80, 0
2, 13560, Note_on_c, 0, 77, 67
2, 13643, Note_on_c, 0, 77, 0
2, 13656, Note_on_c, 0, 78, 70
2, 13662, Note_on_c, 0, 51, 52
2, 13696, Note_on_c, 0, 51, 0
2, 13761, Note_on_c, 0, 77, 67
2, 13771, Note_on_c, 0, 78, 0
2, 13842, Note_on_c, 0, 77, 0
2, 13859, Note_on_c, 0, 75, 73
2, 13953, Note_on_c, 0, 75, 0
2, 13968, Note_on_c, 0, 77, 62
2, 14054, Note_on_c, 0, 78, 72
2, 14058, Note_on_c, 0, 63, 66
2, 14094, Note_on_c, 0, 77, 0
2, 14146, Note_on_c, 0, 78, 0
2, 14156, Note_on_c, 0, 75, 74
2, 14164, Control_c, 0, 64, 25
2, 14183, Control_c, 0, 64, 57
2, 14203, Control_c, 0, 64, 65
2, 14222, Control_c, 0, 64, 71
2, 14241, Control_c, 0, 64, 82
2, 14249, Note_on_c, 0, 77, 72
2, 14260, Control_c, 0, 64, 102
2, 14262, Note_on_c, 0, 75, 0
2, 14280, Control_c, 0, 64, 127
2, 14288, Note_on_c, 0, 63, 0
2, 14348, Note_on_c, 0, 78, 68
2, 14371, Note_on_c, 0, 77, 0
2, 14425, Note_on_c, 0, 78, 0
2, 14439, Note_on_c, 0, 61, 53
2, 14446, Note_on_c, 0, 77, 66
2, 14471, Control_c, 0, 64, 121
2, 14488, Note_on_c, 0, 61, 0
2, 14491, Control_c, 0, 64, 91
2, 14509, Control_c, 0, 64, 77
2, 14527, Note_on_c, 0, 75, 75
2, 14529, Control_c, 0, 64, 68
2, 14543, Note_on_c, 0, 77, 0
2, 14548, Control_c, 0, 64, 61
2, 14553, Note_on_c, 0, 60, 62
2, 14568, Control_c, 0, 64, 48
2, 14586, Control_c, 0, 64, 35
2, 14604, Note_on_c, 0, 60, 0
2, 14606, Control_c, 0, 64, 18
2, 14613, Note_on_c, 0, 73, 79
2, 14625, Control_c, 0, 64, 0
2, 14644, Note_on_c, 0, 75, 0
2, 14646, Note_on_c, 0, 58, 56
2, 14694, Note_on_c, 0, 73, 0
2, 14707, Note_on_c, 0, 72, 78
2, 14712, Note_on_c, 0, 58, 0
2, 14735, Note_on_c, 0, 60, 56
2, 14790, Note_on_c, 0, 60, 0
2, 14792, Note_on_c, 0, 72, 0
2, 14810, Note_on_c, 0, 70, 78
2, 14822, Note_on_c, 0, 61, 61
2, 14886, Note_on_c, 0, 61, 0
2, 14912, Note_on_c, 0, 58, 64
2, 14976, Note_on_c, 0, 58, 0
2, 15020, Note_on_c, 0, 53, 52
2, 15084, Note_on_c, 0, 53, 0
2, 15105, Note_on_c, 0, 58, 57
2, 15165, Note_on_c, 0, 70, 0
2, 15171, Note_on_c, 0, 58, 0
2, 15202, Note_on_c, 0, 82, 68
2, 15203, Note_on_c, 0, 61, 56
2, 15238, Note_on_c, 0, 82, 0
2, 15279, Note_on_c, 0, 61, 0
2, 15305, Note_on_c, 0, 58, 51
2, 15364, Note_on_c, 0, 58, 0
2, 15389, Note_on_c, 0, 72, 74
2, 15401, Note_on_c, 0, 63, 56
2, 15467, Note_on_c, 0, 63, 0
2, 15491, Note_on_c, 0, 58, 56
2, 15558, Note_on_c, 0, 58, 0
2, 15603, Note_on_c, 0, 63, 66
2, 15656, Note_on_c, 0, 63, 0
2, 15699, Note_on_c, 0, 58, 57
2, 15754, Note_on_c, 0, 72, 0
2, 15757, Note_on_c, 0, 58, 0
2, 15787, Note_on_c, 0, 63, 66
2, 15789, Note_on_c, 0, 82, 70
2, 15826, Note_on_c, 0, 82, 0
2, 15843, Note_on_c, 0, 63, 0
2, 15868, Note_on_c, 0, 58, 71
2, 15939, Note_on_c, 0, 58, 0
2, 15977, Note_on_c, 0, 73, 80
2, 15995, Note_on_c, 0, 65, 53
2, 16047, Note_on_c, 0, 65, 0
2, 16082, Note_on_c, 0, 58, 69
2, 16136, Note_on_c, 0, 58, 0
2, 16169, Note_on_c, 0, 65, 69
2, 16229, Note_on_c, 0, 65, 0
2, 16262, Note_on_c, 0, 58, 73
2, 16328, Note_on_c, 0, 58, 0
2, 16357, Note_on_c, 0, 65, 74
2, 16371, Note_on_c, 0, 73, 0
2, 16371, Note_on_c, 0, 82, 82
2, 16409, Note_on_c, 0, 82, 0
2, 16418, Note_on_c, 0, 65, 0
2, 16461, Note_on_c, 0, 58, 67
2, 16547, Note_on_c, 0, 58, 0
2, 16561, Note_on_c, 0, 75, 88
2, 16574, Note_on_c, 0, 66, 74
2, 16633, Note_on_c, 0, 66, 0
2, 16682, Note_on_c, 0, 58, 63
2, 16730, Note_on_c, 0, 58, 0
2, 16771, Note_on_c, 0, 66, 67
2, 16825, Note_on_c, 0, 66, 0
2, 16850, Note_on_c, 0, 58, 66
2, 16915, Note_on_c, 0, 58, 0
2, 16957, Note_on_c, 0, 66, 71
2, 16967, Note_on_c, 0, 82, 66
2, 16972, Note_on_c, 0, 75, 0
2, 17002, Note_on_c, 0, 82, 0
2, 17019, Note_on_c, 0, 66, 0
2, 17058, Note_on_c, 0, 58, 64
2, 17120, Note_on_c, 0, 58, 0
2, 17154, Note_on_c, 0, 73, 68
2, 17166, Note_on_c, 0, 65, 63
2, 17225, Note_on_c, 0, 65, 0
2, 17268, Note_on_c, 0, 58, 66
2, 17311, Note_on_c, 0, 58, 0
2, 17358, Note_on_c, 0, 65, 65
2, 17406, Note_on_c, 0, 65, 0
2, 17445, Note_on_c, 0, 58, 60
2, 17490, Note_on_c, 0, 58, 0
2, 17537, Note_on_c, 0, 82, 58
2, 17538, Note_on_c, 0, 65, 60
2, 17538, Note_on_c, 0, 73, 0
2, 17577, Note_on_c, 0, 82, 0
2, 17581, Note_on_c, 0, 65, 0
2, 17632, Note_on_c, 0, 58, 59
2, 17702, Note_on_c, 0, 58, 0
2, 17706, Note_on_c, 0, 72, 66
2, 17736, Note_on_c, 0, 63, 67
2, 17791, Note_on_c, 0, 63, 0
2, 17822, Note_on_c, 0, 61, 66
2, 17891, Note_on_c, 0, 61, 0
2, 17919, Note_on_c, 0, 60, 50
2, 18011, Note_on_c, 0, 60, 0
2, 18020, Note_on_c, 0, 61, 62
2, 18073, Note_on_c, 0, 61, 0
2, 18075, Note_on_c, 0, 72, 0
2, 18100, Note_on_c, 0, 63, 62
2, 18107, Note_on_c, 0, 81, 63
2, 18142, Note_on_c, 0, 81, 0
2, 18143, Note_on_c, 0, 63, 0
2, 18168, Note_on_c, 0, 60, 61
2, 18220, Note_on_c, 0, 60, 0
2, 18270, Note_on_c, 0, 61, 68
2, 18295, Note_on_c, 0, 70, 67
2, 18324, Note_on_c, 0, 61, 0
2, 18331, Note_on_c, 0, 70, 0
2, 18355, Note_on_c, 0, 60, 64
2, 18448, Note_on_c, 0, 60, 0
2, 18459, Note_on_c, 0, 58, 62
2, 18569, Note_on_c, 0, 60, 61
2, 18578, Note_on_c, 0, 58, 0
2, 18627, Note_on_c, 0, 60, 0
2, 18662, Note_on_c, 0, 82, 100
2, 18665, Note_on_c, 0, 61, 69
2, 18754, Note_on_c, 0, 58, 61
2, 18757, Note_on_c, 0, 61, 0
2, 18873, Note_on_c, 0, 58, 0
2, 18891, Note_on_c, 0, 64, 64
2, 18978, Note_on_c, 0, 64, 0
2, 18992, Note_on_c, 0, 62, 69
2, 19063, Note_on_c, 0, 62, 0
2, 19082, Note_on_c, 0, 80, 82
2, 19088, Note_on_c, 0, 60, 67
2, 19102, Note_on_c, 0, 82, 0
2, 19110, Note_on_c, 0, 80, 0
2, 19178, Note_on_c, 0, 60, 0
2, 19186, Note_on_c, 0, 62, 69
2, 19224, Note_on_c, 0, 62, 0
2, 19270, Note_on_c, 0, 64, 67
2, 19282, Note_on_c, 0, 79, 83
2, 19314, Note_on_c, 0, 79, 0
2, 19326, Note_on_c, 0, 64, 0
2, 19363, Note_on_c, 0, 60, 69
2, 19433, Note_on_c, 0, 60, 0
2, 19469, Note_on_c, 0, 65, 65
2, 19477, Note_on_c, 0, 80, 84
2, 19508, Note_on_c, 0, 80, 0
2, 19533, Note_on_c, 0, 65, 0
2, 19561, Note_on_c, 0, 64, 68
2, 19623, Note_on_c, 0, 64, 0
2, 19663, Note_on_c, 0, 65, 76
2, 19668, Note_on_c, 0, 68, 74
2, 19721, Note_on_c, 0, 68, 0
2, 19749, Note_on_c, 0, 65, 0
2, 19773, Note_on_c, 0, 67, 66
2, 19822, Note_on_c, 0, 67, 0
2, 19860, Note_on_c, 0, 80, 97
2, 19870, Note_on_c, 0, 65, 72
2, 19941, Note_on_c, 0, 65, 0
2, 19970, Note_on_c, 0, 63, 72
2, 20042, Note_on_c, 0, 63, 0
2, 20070, Note_on_c, 0, 62, 73
2, 20147, Note_on_c, 0, 62, 0
2, 20175, Note_on_c, 0, 60, 66
2, 20247, Note_on_c, 0, 60, 0
2, 20265, Note_on_c, 0, 58, 66
2, 20268, Note_on_c, 0, 78, 82
2, 20297, Note_on_c, 0, 78, 0
2, 20298, Note_on_c, 0, 80, 0
2, 20383, Note_on_c, 0, 60, 67
2, 20393, Note_on_c, 0, 58, 0
2, 20431, Note_on_c, 0, 60, 0
2, 20462, Note_on_c, 0, 62, 66
2, 20478, Note_on_c, 0, 77, 71
2, 20510, Note_on_c, 0, 62, 0
2, 20515, Note_on_c, 0, 77, 0
2, 20568, Note_on_c, 0, 58, 54
2, 20653, Note_on_c, 0, 63, 75
2, 20663, Note_on_c, 0, 58, 0
2, 20666, Note_on_c, 0, 78, 74
2, 20687, Note_on_c, 0, 63, 0
2, 20764, Note_on_c, 0, 78, 0
2, 20770, Note_on_c, 0, 77, 69
2, 20841, Note_on_c, 0, 77, 0
2, 20846, Note_on_c, 0, 51, 61
2, 20863, Note_on_c, 0, 75, 75
2, 20885, Note_on_c, 0, 51, 0
2, 20944, Note_on_c, 0, 75, 0
2, 20971, Note_on_c, 0, 77, 68
2, 21036, Note_on_c, 0, 63, 76
2, 21059, Note_on_c, 0, 78, 72
2, 21060, Note_on_c, 0, 77, 0
2, 21123, Note_on_c, 0, 78, 0
2, 21145, Note_on_c, 0, 75, 70
2, 21214, Note_on_c, 0, 75, 0
2, 21253, Note_on_c, 0, 81, 86
2, 21341, Note_on_c, 0, 79, 84
2, 21348, Note_on_c, 0, 81, 0
2, 21416, Note_on_c, 0, 79, 0
2, 21427, Note_on_c, 0, 77, 80
2, 21452, Note_on_c, 0, 63, 0
2, 21455, Note_on_c, 0, 61, 62
2, 21492, Note_on_c, 0, 61, 0
2, 21526, Note_on_c, 0, 79, 86
2, 21527, Note_on_c, 0, 77, 0
2, 21624, Note_on_c, 0, 81, 82
2, 21638, Note_on_c, 0, 60, 63
2, 21647, Note_on_c, 0, 79, 0
2, 21672, Note_on_c, 0, 60, 0
2, 21693, Note_on_c, 0, 81, 0
2, 21719, Note_on_c, 0, 77, 78
2, 21804, Note_on_c, 0, 77, 0
2, 21821, Note_on_c, 0, 82, 81
2, 21828, Note_on_c, 0, 61, 65
2, 21862, Note_on_c, 0, 61, 0
2, 21893, Note_on_c, 0, 82, 0
2, 21919, Note_on_c, 0, 81, 78
2, 22002, Note_on_c, 0, 81, 0
2, 22017, Note_on_c, 0, 49, 57
2, 22019, Note_on_c, 0, 82, 77
2, 22065, Note_on_c, 0, 49, 0
2, 22111, Note_on_c, 0, 82, 0
2, 22116, Note_on_c, 0, 84, 75
2, 22219, Note_on_c, 0, 61, 54
2, 22222, Note_on_c, 0, 82, 83
2, 22223, Note_on_c, 0, 84, 0
2, 22312, Note_on_c, 0, 80, 81
2, 22367, Note_on_c, 0, 82, 0
2, 22413, Note_on_c, 0, 79, 74
2, 22429, Note_on_c, 0, 80, 0
2, 22430, Note_on_c, 0, 77, 61
2, 22457, Note_on_c, 0, 77, 0
2, 22474, Note_on_c, 0, 79, 0
2, 22510, Note_on_c, 0, 77, 82
2, 22556, Note_on_c, 0, 61, 0
2, 22600, Note_on_c, 0, 75, 90
2, 22606, Note_on_c, 0, 60, 45
2, 22606, Note_on_c, 0, 77, 0
2, 22640, Note_on_c, 0, 60, 0
2, 22704, Note_on_c, 0, 77, 71
2, 22706, Note_on_c, 0, 75, 0
2, 22793, Note_on_c, 0, 58, 54
2, 22799, Note_on_c, 0, 79, 76
2, 22805, Note_on_c, 0, 77, 0
2, 22831, Note_on_c, 0, 58, 0
2, 22875, Note_on_c, 0, 79, 0
2, 22886, Note_on_c, 0, 75, 66
2, 22946, Note_on_c, 0, 75, 0
2, 22982, Note_on_c, 0, 80, 81
2, 22989, Note_on_c, 0, 60, 53
2, 23012, Note_on_c, 0, 80, 0
2, 23048, Note_on_c, 0, 60, 0
2, 23086, Note_on_c, 0, 58, 61
2, 23161, Note_on_c, 0, 58, 0
2, 23178, Note_on_c, 0, 68, 68
2, 23181, Note_on_c, 0, 56, 61
2, 23210, Note_on_c, 0, 68, 0
2, 23287, Note_on_c, 0, 58, 60
2, 23295, Note_on_c, 0, 56, 0
2, 23331, Note_on_c, 0, 58, 0
2, 23370, Note_on_c, 0, 80, 91
2, 23373, Note_on_c, 0, 60, 65
2, 23439, Note_on_c, 0, 60, 0
2, 23464, Note_on_c, 0, 56, 64
2, 23565, Note_on_c, 0, 56, 0
2, 23581, Note_on_c, 0, 62, 63
2, 23645, Note_on_c, 0, 62, 0
2, 23689, Note_on_c, 0, 60, 61
2, 23745, Note_on_c, 0, 60, 0
2, 23779, Note_on_c, 0, 78, 75
2, 23782, Note_on_c, 0, 58, 55
2, 23805, Note_on_c, 0, 80, 0
2, 23809, Note_on_c, 0, 78, 0
2, 23884, Note_on_c, 0, 60, 60
2, 23888, Note_on_c, 0, 58, 0
2, 23936, Note_on_c, 0, 60, 0
2, 23972, Note_on_c, 0, 77, 73
2, 23979, Note_on_c, 0, 62, 61
2, 24011, Note_on_c, 0, 77, 0
2, 24045, Note_on_c, 0, 62, 0
2, 24063, Note_on_c, 0, 58, 56
2, 24128, Note_on_c, 0, 58, 0
2, 24175, Note_on_c, 0, 63, 60
2, 24177, Note_on_c, 0, 78, 76
2, 24208, Note_on_c, 0, 78, 0
2, 24228, Note_on_c, 0, 63, 0
2, 24282, Note_on_c, 0, 62, 60
2, 24336, Note_on_c, 0, 62, 0
2, 24366, Note_on_c, 0, 63, 70
2, 24366, Note_on_c, 0, 66, 55
2, 24406, Note_on_c, 0, 66, 0
2, 24445, Note_on_c, 0, 63, 0
2, 24476, Note_on_c, 0, 65, 68
2, 24542, Note_on_c, 0, 65, 0
2, 24559, Note_on_c, 0, 78, 86
2, 24577, Note_on_c, 0, 63, 66
2, 24665, Note_on_c, 0, 61, 69
2, 24674, Note_on_c, 0, 63, 0
2, 24731, Note_on_c, 0, 61, 0
2, 24768, Note_on_c, 0, 60, 72
2, 24839, Note_on_c, 0, 60, 0
2, 24859, Note_on_c, 0, 58, 69
2, 24933, Note_on_c, 0, 58, 0
2, 24950, Note_on_c, 0, 56, 70
2, 24959, Note_on_c, 0, 77, 72
2, 24966, Note_on_c, 0, 78, 0
2, 24995, Note_on_c, 0, 77, 0
2, 25045, Note_on_c, 0, 56, 0
2, 25058, Note_on_c, 0, 58, 67
2, 25104, Note_on_c, 0, 58, 0
2, 25145, Note_on_c, 0, 60, 64
2, 25159, Note_on_c, 0, 75, 77
2, 25192, Note_on_c, 0, 75, 0
2, 25199, Note_on_c, 0, 60, 0
2, 25252, Note_on_c, 0, 56, 61
2, 25337, Note_on_c, 0, 56, 0
2, 25353, Note_on_c, 0, 77, 69
2, 25365, Note_on_c, 0, 61, 62
2, 25399, Note_on_c, 0, 61, 0
2, 25439, Note_on_c, 0, 77, 0
2, 25449, Note_on_c, 0, 75, 68
2, 25533, Note_on_c, 0, 75, 0
2, 25548, Note_on_c, 0, 73, 67
2, 25551, Note_on_c, 0, 49, 58
2, 25592, Note_on_c, 0, 49, 0
2, 25647, Note_on_c, 0, 75, 69
2, 25649, Note_on_c, 0, 73, 0
2, 25742, Note_on_c, 0, 61, 62
2, 25743, Note_on_c, 0, 75, 0
2, 25747, Note_on_c, 0, 77, 68
2, 25840, Note_on_c, 0, 77, 0
2, 25855, Note_on_c, 0, 73, 74
2, 25953, Note_on_c, 0, 79, 84
2, 25955, Note_on_c, 0, 73, 0
2, 26047, Note_on_c, 0, 77, 78
2, 26059, Note_on_c, 0, 79, 0
2, 26136, Note_on_c, 0, 59, 46
2, 26139, Note_on_c, 0, 61, 0
2, 26140, Note_on_c, 0, 75, 81
2, 26143, Note_on_c, 0, 77, 0
2, 26170, Note_on_c, 0, 59, 0
2, 26236, Note_on_c, 0, 77, 81
2, 26256, Note_on_c, 0, 75, 0
2, 26335, Note_on_c, 0, 79, 83
2, 26340, Note_on_c, 0, 77, 0
2, 26341, Note_on_c, 0, 58, 46
2, 26373, Note_on_c, 0, 58, 0
2, 26423, Note_on_c, 0, 75, 79
2, 26426, Note_on_c, 0, 79, 0
2, 26522, Note_on_c, 0, 80, 83
2, 26533, Note_on_c, 0, 75, 0
2, 26544, Note_on_c, 0, 59, 53
2, 26583, Note_on_c, 0, 59, 0
2, 26597, Note_on_c, 0, 80, 0
2, 26614, Note_on_c, 0, 79, 79
2, 26709, Note_on_c, 0, 80, 77
2, 26714, Note_on_c, 0, 79, 0
2, 26734, Note_on_c, 0, 47, 41
2, 26772, Note_on_c, 0, 47, 0
2, 26804, Note_on_c, 0, 80, 0
2, 26812, Note_on_c, 0, 82, 78
2, 26912, Note_on_c, 0, 80, 78
2, 26932, Note_on_c, 0, 59, 52
2, 26962, Note_on_c, 0, 82, 0
2, 27011, Note_on_c, 0, 78, 74
2, 27043, Note_on_c, 0, 80, 0
2, 27093, Note_on_c, 0, 78, 0
2, 27106, Note_on_c, 0, 77, 69
2, 27193, Note_on_c, 0, 77, 0
2, 27208, Note_on_c, 0, 75, 72
2, 27293, Note_on_c, 0, 75, 0
2, 27302, Note_on_c, 0, 59, 0
2, 27305, Note_on_c, 0, 73, 68
2, 27325, Note_on_c, 0, 58, 41
2, 27359, Note_on_c, 0, 58, 0
2, 27413, Note_on_c, 0, 73, 0
2, 27422, Note_on_c, 0, 75, 64
2, 27510, Note_on_c, 0, 56, 51
2, 27513, Note_on_c, 0, 75, 0
2, 27538, Note_on_c, 0, 77, 48
2, 27547, Note_on_c, 0, 56, 0
2, 27592, Note_on_c, 0, 77, 0
2, 27604, Note_on_c, 0, 73, 53
2, 27704, Note_on_c, 0, 73, 0
2, 27714, Note_on_c, 0, 58, 35
2, 27716, Note_on_c, 0, 66, 54
2, 27769, Note_on_c, 0, 58, 0
2, 27802, Note_on_c, 0, 54, 49
2, 27865, Note_on_c, 0, 54, 0
2, 27914, Note_on_c, 0, 49, 45
2, 27983, Note_on_c, 0, 54, 55
2, 27984, Note_on_c, 0, 49, 0
2, 28059, Note_on_c, 0, 54, 0
2, 28061, Note_on_c, 0, 66, 0
2, 28101, Note_on_c, 0, 78, 51
2, 28106, Note_on_c, 0, 58, 51
2, 28131, Note_on_c, 0, 78, 0
2, 28175, Note_on_c, 0, 58, 0
2, 28206, Note_on_c, 0, 54, 53
2, 28266, Note_on_c, 0, 54, 0
2, 28295, Note_on_c, 0, 68, 62
2, 28322, Note_on_c, 0, 59, 51
2, 28374, Note_on_c, 0, 59, 0
2, 28395, Note_on_c, 0, 54, 60
2, 28458, Note_on_c, 0, 54, 0
2, 28503, Note_on_c, 0, 59, 63
2, 28566, Note_on_c, 0, 59, 0
2, 28601, Note_on_c, 0, 54, 60
2, 28644, Note_on_c, 0, 68, 0
2, 28655, Note_on_c, 0, 54, 0
2, 28672, Note_on_c, 0, 78, 63
2, 28695, Note_on_c, 0, 59, 66
2, 28707, Note_on_c, 0, 78, 0
2, 28741, Note_on_c, 0, 59, 0
2, 28780, Note_on_c, 0, 54, 68
2, 28852, Note_on_c, 0, 54, 0
2, 28866, Note_on_c, 0, 70, 80
2, 28889, Note_on_c, 0, 61, 66
2, 28946, Note_on_c, 0, 61, 0
2, 28986, Note_on_c, 0, 54, 67
2, 29035, Note_on_c, 0, 54, 0
2, 29072, Note_on_c, 0, 61, 68
2, 29132, Note_on_c, 0, 61, 0
2, 29157, Note_on_c, 0, 54, 71
2, 29217, Note_on_c, 0, 54, 0
2, 29255, Note_on_c, 0, 61, 71
2, 29259, Note_on_c, 0, 78, 63
2, 29265, Note_on_c, 0, 70, 0
2, 29295, Note_on_c, 0, 78, 0
2, 29327, Note_on_c, 0, 61, 0
2, 29353, Note_on_c, 0, 54, 67
2, 29415, Note_on_c, 0, 54, 0
2, 29448, Note_on_c, 0, 71, 75
2, 29464, Note_on_c, 0, 63, 65
2, 29523, Note_on_c, 0, 63, 0
2, 29557, Note_on_c, 0, 54, 66
2, 29609, Note_on_c, 0, 54, 0
2, 29658, Note_on_c, 0, 63, 65
2, 29723, Note_on_c, 0, 63, 0
2, 29748, Note_on_c, 0, 54, 62
2, 29812, Note_on_c, 0, 54, 0
2, 29829, Note_on_c, 0, 71, 0
2, 29843, Note_on_c, 0, 78, 63
2, 29858, Note_on_c, 0, 63, 65
2, 29877, Note_on_c, 0, 78, 0
2, 29913, Note_on_c, 0, 63, 0
2, 29951, Note_on_c, 0, 54, 64
2, 30006, Note_on_c, 0, 54, 0
2, 30033, Note_on_c, 0, 70, 72
2, 30046, Note_on_c, 0, 61, 62
2, 30102, Note_on_c, 0, 61, 0
2, 30139, Note_on_c, 0, 54, 63
2, 30199, Note_on_c, 0, 54, 0
2, 30233, Note_on_c, 0, 61, 66
2, 30293, Note_on_c, 0, 61, 0
2, 30342, Note_on_c, 0, 54, 61
2, 30395, Note_on_c, 0, 54, 0
2, 30423, Note_on_c, 0, 61, 66
2, 30429, Note_on_c, 0, 70, 0
2, 30430, Note_on_c, 0, 78, 58
2, 30467, Note_on_c, 0, 78, 0
2, 30498, Note_on_c, 0, 61, 0
2, 30517, Note_on_c, 0, 54, 58
2, 30604, Note_on_c, 0, 54, 0
2, 30614, Note_on_c, 0, 68, 69
2, 30640, Note_on_c, 0, 59, 62
2, 30692, Note_on_c, 0, 59, 0
2, 30716, Note_on_c, 0, 58, 62
2, 30766, Note_on_c, 0, 58, 0
2, 30809, Note_on_c, 0, 56, 70
2, 30888, Note_on_c, 0, 56, 0
2, 30906, Note_on_c, 0, 58, 53
2, 30950, Note_on_c, 0, 68, 0
2, 30953, Note_on_c, 0, 58, 0
2, 30978, Note_on_c, 0, 59, 67
2, 30985, Note_on_c, 0, 77, 54
2, 31031, Note_on_c, 0, 77, 0
2, 31040, Note_on_c, 0, 59, 0
2, 31072, Note_on_c, 0, 56, 64
2, 31142, Note_on_c, 0, 56, 0
2, 31170, Note_on_c, 0, 66, 58
2, 31171, Note_on_c, 0, 58, 66
2, 31208, Note_on_c, 0, 66, 0
2, 31225, Note_on_c, 0, 58, 0
2, 31278, Note_on_c, 0, 54, 63
2, 31362, Note_on_c, 0, 56, 67
2, 31367, Note_on_c, 0, 54, 0
2, 31488, Note_on_c, 0, 56, 0
2, 31491, Note_on_c, 0, 58, 53
2, 31578, Note_on_c, 0, 78, 77
2, 31688, Note_on_c, 0, 58, 0
2, 31725, Note_on_c, 0, 54, 53
2, 31858, Note_on_c, 0, 54, 0
2, 31881, Note_on_c, 0, 56, 58
2, 31904, Control_c, 0, 64, 15
2, 31924, Control_c, 0, 64, 35
2, 31936, Note_on_c, 0, 56, 0
2, 31942, Control_c, 0, 64, 46
2, 31962, Control_c, 0, 64, 57
2, 31967, Note_on_c, 0, 58, 66
2, 31981, Control_c, 0, 64, 64
2, 32000, Control_c, 0, 64, 68
2, 32016, Note_on_c, 0, 78, 0
2, 32019, Control_c, 0, 64, 72
2, 32028, Note_on_c, 0, 58, 0
2, 32038, Control_c, 0, 64, 74
2, 32056, Note_on_c, 0, 56, 63
2, 32058, Control_c, 0, 64, 74
2, 32076, Control_c, 0, 64, 75
2, 32096, Control_c, 0, 64, 76
2, 32115, Control_c, 0, 64, 77
2, 32120, Note_on_c, 0, 77, 29
2, 32134, Control_c, 0, 64, 79
2, 32147, Note_on_c, 0, 54, 70
2, 32153, Control_c, 0, 64, 79
2, 32157, Note_on_c, 0, 56, 0
2, 32173, Control_c, 0, 64, 80
2, 32187, Note_on_c, 0, 54, 0
2, 32192, Control_c, 0, 64, 79
2, 32211, Control_c, 0, 64, 79
2, 32230, Control_c, 0, 64, 78
2, 32230, Note_on_c, 0, 75, 73
2, 32235, Note_on_c, 0, 77, 0
2, 32257, Note_on_c, 0, 53, 59
2, 32268, Control_c, 0, 64, 78
2, 32288, Control_c, 0, 64, 76
2, 32299, Note_on_c, 0, 75, 0
2, 32307, Control_c, 0, 64, 74
2, 32307, Note_on_c, 0, 53, 0
2, 32326, Note_on_c, 0, 73, 68
2, 32327, Control_c, 0, 64, 72
2, 32345, Control_c, 0, 64, 71
2, 32365, Control_c, 0, 64, 70
2, 32370, Note_on_c, 0, 51, 38
2, 32381, Note_on_c, 0, 73, 0
2, 32384, Control_c, 0, 64, 67
2, 32404, Control_c, 0, 64, 63
2, 32406, Note_on_c, 0, 51, 0
2, 32415, Note_on_c, 0, 49, 57
2, 32422, Control_c, 0, 64, 60
2, 32429, Note_on_c, 0, 75, 40
2, 32442, Control_c, 0, 64, 59
2, 32461, Control_c, 0, 64, 58
2, 32467, Note_on_c, 0, 75, 0
2, 32480, Control_c, 0, 64, 53
2, 32481, Note_on_c, 0, 77, 67
2, 32499, Control_c, 0, 64, 39
2, 32518, Control_c, 0, 64, 0
2, 32569, Note_on_c, 0, 77, 0
2, 32582, Note_on_c, 0, 73, 61
2, 32627, Note_on_c, 0, 73, 0
2, 32663, Note_on_c, 0, 68, 65
2, 32746, Note_on_c, 0, 68, 0
2, 32764, Note_on_c, 0, 73, 62
2, 32827, Note_on_c, 0, 49, 0
2, 32828, Note_on_c, 0, 73, 0
2, 32856, Note_on_c, 0, 77, 60
2, 32862, Note_on_c, 0, 61, 45
2, 32897, Note_on_c, 0, 61, 0
2, 32900, Note_on_c, 0, 77, 0
2, 32957, Note_on_c, 0, 73, 60
2, 33004, Note_on_c, 0, 73, 0
2, 33031, Note_on_c, 0, 51, 39
2, 33053, Note_on_c, 0, 78, 69
2, 33109, Note_on_c, 0, 78, 0
2, 33149, Note_on_c, 0, 73, 60
2, 33221, Note_on_c, 0, 73, 0
2, 33243, Note_on_c, 0, 78, 74
2, 33312, Note_on_c, 0, 78, 0
2, 33346, Note_on_c, 0, 73, 71
2, 33404, Note_on_c, 0, 51, 0
2, 33413, Note_on_c, 0, 73, 0
2, 33425, Note_on_c, 0, 61, 36
2, 33441, Note_on_c, 0, 78, 78
2, 33468, Note_on_c, 0, 61, 0
2, 33504, Note_on_c, 0, 78, 0
2, 33542, Note_on_c, 0, 73, 73
2, 33610, Note_on_c, 0, 53, 49
2, 33611, Note_on_c, 0, 73, 0
2, 33642, Note_on_c, 0, 80, 83
2, 33702, Note_on_c, 0, 80, 0
2, 33737, Note_on_c, 0, 73, 79
2, 33815, Note_on_c, 0, 73, 0
2, 33828, Note_on_c, 0, 80, 86
2, 33898, Note_on_c, 0, 80, 0
2, 33928, Note_on_c, 0, 73, 84
2, 33978, Note_on_c, 0, 53, 0
2, 34001, Note_on_c, 0, 61, 48
2, 34012, Note_on_c, 0, 73, 0
2, 34020, Note_on_c, 0, 80, 89
2, 34050, Note_on_c, 0, 61, 0
2, 34088, Note_on_c, 0, 80, 0
2, 34124, Note_on_c, 0, 73, 87
2, 34209, Note_on_c, 0, 73, 0
2, 34210, Note_on_c, 0, 54, 52
2, 34223, Note_on_c, 0, 82, 90
2, 34287, Note_on_c, 0, 82, 0
2, 34320, Note_on_c, 0, 73, 87
2, 34398, Note_on_c, 0, 73, 0
2, 34414, Note_on_c, 0, 82, 85
2, 34475, Note_on_c, 0, 82, 0
2, 34512, Note_on_c, 0, 73, 79
2, 34584, Note_on_c, 0, 73, 0
2, 34598, Note_on_c, 0, 61, 42
2, 34607, Note_on_c, 0, 54, 0
2, 34610, Note_on_c, 0, 82, 79
2, 34658, Note_on_c, 0, 82, 0
2, 34660, Note_on_c, 0, 61, 0
2, 34713, Note_on_c, 0, 73, 65
2, 34768, Note_on_c, 0, 73, 0
2, 34793, Note_on_c, 0, 53, 44
2, 34804, Note_on_c, 0, 80, 78
2, 34849, Note_on_c, 0, 80, 0
2, 34899, Note_on_c, 0, 73, 67
2, 34969, Note_on_c, 0, 73, 0
2, 34986, Note_on_c, 0, 80, 70
2, 35049, Note_on_c, 0, 80, 0
2, 35090, Note_on_c, 0, 73, 61
2, 35160, Note_on_c, 0, 53, 0
2, 35161, Note_on_c, 0, 73, 0
2, 35189, Note_on_c, 0, 80, 69
2, 35193, Note_on_c, 0, 61, 34
2, 35241, Note_on_c, 0, 80, 0
2, 35259, Note_on_c, 0, 61, 0
2, 35310, Note_on_c, 0, 73, 56
2, 35391, Note_on_c, 0, 51, 45
2, 35404, Note_on_c, 0, 78, 55
2, 35408, Note_on_c, 0, 73, 0
2, 35498, Note_on_c, 0, 77, 65
2, 35503, Note_on_c, 0, 78, 0
2, 35578, Note_on_c, 0, 77, 0
2, 35587, Note_on_c, 0, 75, 74
2, 35667, Note_on_c, 0, 78, 73
2, 35681, Note_on_c, 0, 75, 0
2, 35763, Note_on_c, 0, 77, 30
2, 35772, Note_on_c, 0, 60, 39
2, 35795, Note_on_c, 0, 77, 0
2, 35807, Note_on_c, 0, 51, 0
2, 35811, Note_on_c, 0, 60, 0
2, 35855, Note_on_c, 0, 78, 0
2, 35868, Note_on_c, 0, 75, 65
2, 35913, Note_on_c, 0, 75, 0
2, 35953, Note_on_c, 0, 77, 58
2, 35967, Note_on_c, 0, 49, 54
2, 36044, Note_on_c, 0, 75, 75
2, 36057, Note_on_c, 0, 77, 0
2, 36091, Control_c, 0, 64, 52
2, 36109, Control_c, 0, 64, 62
2, 36127, Note_on_c, 0, 75, 0
2, 36129, Control_c, 0, 64, 65
2, 36140, Note_on_c, 0, 73, 70
2, 36148, Control_c, 0, 64, 67
2, 36168, Control_c, 0, 64, 70
2, 36184, Note_on_c, 0, 49, 0
2, 36186, Control_c, 0, 64, 73
2, 36206, Control_c, 0, 64, 74
2, 36225, Control_c, 0, 64, 73
2, 36231, Note_on_c, 0, 75, 72
2, 36237, Note_on_c, 0, 73, 0
2, 36244, Control_c, 0, 64, 69
2, 36263, Control_c, 0, 64, 65
2, 36283, Control_c, 0, 64, 58
2, 36302, Control_c, 0, 64, 45
2, 36309, Note_on_c, 0, 75, 0
2, 36321, Control_c, 0, 64, 0
2, 36330, Note_on_c, 0, 61, 59
2, 36335, Note_on_c, 0, 77, 71
2, 36365, Note_on_c, 0, 61, 0
2, 36423, Note_on_c, 0, 77, 0
2, 36434, Note_on_c, 0, 73, 62
2, 36514, Note_on_c, 0, 73, 0
2, 36529, Note_on_c, 0, 75, 68
2, 36536, Note_on_c, 0, 54, 54
2, 36575, Note_on_c, 0, 54, 0
2, 36589, Note_on_c, 0, 75, 0
2, 36631, Note_on_c, 0, 77, 60
2, 36717, Note_on_c, 0, 77, 0
2, 36725, Note_on_c, 0, 75, 67
2, 36729, Note_on_c, 0, 53, 51
2, 36767, Note_on_c, 0, 53, 0
2, 36813, Note_on_c, 0, 75, 0
2, 36816, Note_on_c, 0, 73, 64
2, 36872, Note_on_c, 0, 73, 0
2, 36899, Note_on_c, 0, 72, 63
2, 36915, Note_on_c, 0, 51, 55
2, 36958, Note_on_c, 0, 51, 0
2, 36969, Note_on_c, 0, 72, 0
2, 36997, Note_on_c, 0, 70, 70
2, 37060, Note_on_c, 0, 70, 0
2, 37109, Note_on_c, 0, 72, 65
2, 37110, Note_on_c, 0, 56, 51
2, 37145, Note_on_c, 0, 56, 0
2, 37159, Note_on_c, 0, 72, 0
2, 37199, Note_on_c, 0, 68, 60
2, 37233, Note_on_c, 0, 68, 0
2, 37298, Note_on_c, 0, 66, 48
2, 37333, Note_on_c, 0, 66, 0
2, 37388, Note_on_c, 0, 68, 64
2, 37424, Note_on_c, 0, 68, 0
2, 37504, Note_on_c, 0, 63, 32
2, 37544, Note_on_c, 0, 63, 0
2, 37568, Note_on_c, 0, 68, 57
2, 37617, Note_on_c, 0, 68, 0
2, 37681, Note_on_c, 0, 56, 54
2, 37690, Note_on_c, 0, 72, 59
2, 37721, Note_on_c, 0, 56, 0
2, 37749, Note_on_c, 0, 72, 0
2, 37773, Note_on_c, 0, 68, 60
2, 37809, Note_on_c, 0, 68, 0
2, 37865, Note_on_c, 0, 66, 51
2, 37910, Note_on_c, 0, 66, 0
2, 37973, Note_on_c, 0, 68, 62
2, 38016, Note_on_c, 0, 68, 0
2, 38061, Note_on_c, 0, 63, 47
2, 38095, Note_on_c, 0, 63, 0
2, 38170, Note_on_c, 0, 68, 59
2, 38214, Note_on_c, 0, 68, 0
2, 38248, Note_on_c, 0, 56, 56
2, 38274, Note_on_c, 0, 73, 60
2, 38288, Note_on_c, 0, 56, 0
2, 38335, Note_on_c, 0, 73, 0
2, 38374, Note_on_c, 0, 68, 51
2, 38410, Note_on_c, 0, 68, 0
2, 38455, Note_on_c, 0, 65, 43
2, 38487, Note_on_c, 0, 65, 0
2, 38546, Note_on_c, 0, 68, 59
2, 38589, Note_on_c, 0, 68, 0
2, 38647, Note_on_c, 0, 61, 50
2, 38678, Note_on_c, 0, 61, 0
2, 38735, Note_on_c, 0, 68, 62
2, 38781, Note_on_c, 0, 68, 0
2, 38838, Note_on_c, 0, 56, 57
2, 38842, Note_on_c, 0, 73, 65
2, 38878, Note_on_c, 0, 56, 0
2, 38903, Note_on_c, 0, 73, 0
2, 38944, Note_on_c, 0, 68, 57
2, 38985, Note_on_c, 0, 68, 0
2, 39043, Note_on_c, 0, 65, 43
2, 39074, Note_on_c, 0, 65, 0
2, 39134, Note_on_c, 0, 68, 58
2, 39180, Note_on_c, 0, 68, 0
2, 39244, Note_on_c, 0, 61, 48
2, 39277, Note_on_c, 0, 61, 0
2, 39327, Note_on_c, 0, 68, 57
2, 39358, Note_on_c, 0, 68, 0
2, 39436, Note_on_c, 0, 56, 64
2, 39443, Note_on_c, 0, 78, 68
2, 39473, Note_on_c, 0, 56, 0
2, 39482, Note_on_c, 0, 78, 0
2, 39521, Note_on_c, 0, 68, 62
2, 39559, Note_on_c, 0, 68, 0
2, 39648, Note_on_c, 0, 63, 50
2, 39686, Note_on_c, 0, 63, 0
2, 39722, Note_on_c, 0, 68, 58
2, 39756, Note_on_c, 0, 68, 0
2, 39843, Note_on_c, 0, 60, 48
2, 39881, Note_on_c, 0, 60, 0
2, 39933, Note_on_c, 0, 68, 58
2, 39977, Note_on_c, 0, 68, 0
2, 40036, Note_on_c, 0, 78, 70
2, 40042, Note_on_c, 0, 56, 55
2, 40078, Note_on_c, 0, 56, 0
2, 40098, Note_on_c, 0, 78, 0
2, 40138, Note_on_c, 0, 68, 59
2, 40173, Note_on_c, 0, 68, 0
2, 40242, Note_on_c, 0, 63, 47
2, 40285, Note_on_c, 0, 63, 0
2, 40324, Note_on_c, 0, 68, 55
2, 40369, Note_on_c, 0, 68, 0
2, 40416, Note_on_c, 0, 60, 44
2, 40451, Note_on_c, 0, 60, 0
2, 40516, Note_on_c, 0, 68, 59
2, 40570, Note_on_c, 0, 68, 0
2, 40618, Note_on_c, 0, 56, 57
2, 40618, Note_on_c, 0, 77, 63
2, 40656, Note_on_c, 0, 56, 0
2, 40679, Note_on_c, 0, 77, 0
2, 40719, Note_on_c, 0, 68, 60
2, 40755, Note_on_c, 0, 68, 0
2, 40814, Note_on_c, 0, 65, 52
2, 40847, Note_on_c, 0, 65, 0
2, 40905, Note_on_c, 0, 68, 56
2, 40945, Note_on_c, 0, 68, 0
2, 41000, Note_on_c, 0, 61, 62
2, 41033, Note_on_c, 0, 61, 0
2, 41088, Note_on_c, 0, 68, 60
2, 41147, Note_on_c, 0, 68, 0
2, 41195, Note_on_c, 0, 56, 71
2, 41195, Note_on_c, 0, 77, 71
2, 41235, Note_on_c, 0, 56, 0
2, 41262, Note_on_c, 0, 77, 0
2, 41293, Note_on_c, 0, 68, 67
2, 41324, Note_on_c, 0, 68, 0
2, 41400, Note_on_c, 0, 65, 56
2, 41437, Note_on_c, 0, 65, 0
2, 41484, Note_on_c, 0, 68, 66
2, 41523, Note_on_c, 0, 68, 0
2, 41579, Note_on_c, 0, 61, 67
2, 41611, Note_on_c, 0, 61, 0
2, 41676, Note_on_c, 0, 68, 76
2, 41729, Note_on_c, 0, 68, 0
2, 41774, Note_on_c, 0, 56, 74
2, 41780, Note_on_c, 0, 79, 81
2, 41815, Note_on_c, 0, 56, 0
2, 41868, Note_on_c, 0, 79, 0
2, 41888, Note_on_c, 0, 70, 74
2, 41926, Note_on_c, 0, 70, 0
2, 41987, Note_on_c, 0, 64, 63
2, 42022, Note_on_c, 0, 64, 0
2, 42065, Note_on_c, 0, 70, 70
2, 42113, Note_on_c, 0, 70, 0
2, 42172, Note_on_c, 0, 61, 79
2, 42207, Note_on_c, 0, 61, 0
2, 42254, Note_on_c, 0, 70, 77
2, 42317, Note_on_c, 0, 70, 0
2, 42355, Note_on_c, 0, 79, 87
2, 42368, Note_on_c, 0, 56, 83
2, 42406, Note_on_c, 0, 56, 0
2, 42433, Note_on_c, 0, 79, 0
2, 42467, Note_on_c, 0, 70, 77
2, 42500, Note_on_c, 0, 70, 0
2, 42557, Note_on_c, 0, 64, 78
2, 42597, Note_on_c, 0, 64, 0
2, 42649, Note_on_c, 0, 70, 70
2, 42697, Note_on_c, 0, 70, 0
2, 42735, Note_on_c, 0, 61, 72
2, 42773, Note_on_c, 0, 61, 0
2, 42825, Note_on_c, 0, 70, 75
2, 42882, Note_on_c, 0, 70, 0
2, 42922, Note_on_c, 0, 80, 92
2, 42923, Note_on_c, 0, 56, 79
2, 42963, Note_on_c, 0, 56, 0
2, 43037, Note_on_c, 0, 80, 0
2, 43046, Note_on_c, 0, 72, 65
2, 43082, Note_on_c, 0, 72, 0
2, 43128, Note_on_c, 0, 63, 69
2, 43167, Note_on_c, 0, 63, 0
2, 43223, Note_on_c, 0, 72, 66
2, 43270, Note_on_c, 0, 72, 0
2, 43313, Note_on_c, 0, 60, 71
2, 43352, Note_on_c, 0, 60, 0
2, 43415, Note_on_c, 0, 72, 80
2, 43486, Note_on_c, 0, 72, 0
2, 43510, Note_on_c, 0, 80, 95
2, 43515, Note_on_c, 0, 54, 79
2, 43553, Note_on_c, 0, 54, 0
2, 43620, Note_on_c, 0, 72, 81
2, 43639, Note_on_c, 0, 80, 0
2, 43656, Note_on_c, 0, 72, 0
2, 43719, Note_on_c, 0, 63, 67
2, 43763, Note_on_c, 0, 63, 0
2, 43816, Note_on_c, 0, 72, 73
2, 43859, Note_on_c, 0, 72, 0
2, 43901, Note_on_c, 0, 60, 61
2, 43937, Note_on_c, 0, 60, 0
2, 43997, Note_on_c, 0, 72, 69
2, 44047, Note_on_c, 0, 72, 0
2, 44104, Note_on_c, 0, 80, 68
2, 44107, Note_on_c, 0, 53, 45
2, 44133, Control_c, 0, 64, 55
2, 44144, Note_on_c, 0, 53, 0
2, 44151, Control_c, 0, 64, 66
2, 44171, Control_c, 0, 64, 72
2, 44190, Control_c, 0, 64, 79
2, 44209, Control_c, 0, 64, 82
2, 44209, Note_on_c, 0, 73, 70
2, 44215, Note_on_c, 0, 80, 0
2, 44228, Control_c, 0, 64, 82
2, 44248, Control_c, 0, 64, 81
2, 44253, Note_on_c, 0, 73, 0
2, 44267, Control_c, 0, 64, 76
2, 44286, Control_c, 0, 64, 70
2, 44293, Note_on_c, 0, 65, 57
2, 44305, Control_c, 0, 64, 65
2, 44325, Control_c, 0, 64, 63
2, 44325, Note_on_c, 0, 65, 0
2, 44343, Control_c, 0, 64, 59
2, 44363, Control_c, 0, 64, 54
2, 44382, Control_c, 0, 64, 43
2, 44394, Note_on_c, 0, 68, 63
2, 44402, Control_c, 0, 64, 0
2, 44429, Note_on_c, 0, 68, 0
2, 44482, Note_on_c, 0, 61, 77
2, 44516, Note_on_c, 0, 61, 0
2, 44585, Note_on_c, 0, 73, 82
2, 44639, Note_on_c, 0, 73, 0
2, 44670, Note_on_c, 0, 56, 82
2, 44723, Note_on_c, 0, 56, 0
2, 44764, Note_on_c, 0, 77, 85
2, 44824, Note_on_c, 0, 77, 0
2, 44857, Note_on_c, 0, 53, 83
2, 44900, Note_on_c, 0, 53, 0
2, 44953, Note_on_c, 0, 80, 90
2, 45020, Note_on_c, 0, 80, 0
2, 45050, Note_on_c, 0, 51, 77
2, 45090, Note_on_c, 0, 51, 0
2, 45134, Note_on_c, 0, 82, 80
2, 45208, Note_on_c, 0, 82, 0
2, 45228, Note_on_c, 0, 83, 76
2, 45254, Note_on_c, 0, 50, 62
2, 45300, Note_on_c, 0, 50, 0
2, 45331, Note_on_c, 0, 83, 0
2, 45333, Note_on_c, 0, 82, 81
2, 45421, Note_on_c, 0, 80, 82
2, 45433, Note_on_c, 0, 53, 62
2, 45476, Note_on_c, 0, 53, 0
2, 45488, Note_on_c, 0, 82, 0
2, 45515, Note_on_c, 0, 78, 79
2, 45551, Note_on_c, 0, 80, 0
2, 45600, Note_on_c, 0, 78, 0
2, 45614, Note_on_c, 0, 77, 83
2, 45616, Note_on_c, 0, 58, 53
2, 45650, Note_on_c, 0, 58, 0
2, 45708, Note_on_c, 0, 75, 89
2, 45720, Note_on_c, 0, 77, 0
2, 45800, Note_on_c, 0, 62, 63
2, 45803, Note_on_c, 0, 75, 0
2, 45813, Note_on_c, 0, 77, 89
2, 45842, Note_on_c, 0, 62, 0
2, 45905, Note_on_c, 0, 78, 89
2, 45923, Note_on_c, 0, 77, 0
2, 45992, Note_on_c, 0, 65, 60
2, 45998, Note_on_c, 0, 80, 88
2, 46025, Note_on_c, 0, 65, 0
2, 46044, Note_on_c, 0, 78, 0
2, 46099, Note_on_c, 0, 83, 82
2, 46106, Note_on_c, 0, 80, 0
2, 46182, Note_on_c, 0, 68, 67
2, 46201, Note_on_c, 0, 82, 81
2, 46213, Note_on_c, 0, 68, 0
2, 46222, Note_on_c, 0, 83, 0
2, 46291, Note_on_c, 0, 80, 80
2, 46311, Note_on_c, 0, 82, 0
2, 46392, Note_on_c, 0, 66, 59
2, 46392, Note_on_c, 0, 82, 84
2, 46413, Note_on_c, 0, 80, 0
2, 46430, Note_on_c, 0, 66, 0
2, 46488, Note_on_c, 0, 75, 79
2, 46492, Note_on_c, 0, 82, 0
2, 46535, Note_on_c, 0, 75, 0
2, 46574, Note_on_c, 0, 63, 66
2, 46610, Note_on_c, 0, 63, 0
2, 46679, Note_on_c, 0, 66, 61
2, 46731, Note_on_c, 0, 66, 0
2, 46770, Note_on_c, 0, 58, 57
2, 46804, Note_on_c, 0, 58, 0
2, 46864, Note_on_c, 0, 70, 71
2, 46902, Note_on_c, 0, 70, 0
2, 46963, Note_on_c, 0, 54, 61
2, 47001, Note_on_c, 0, 54, 0
2, 47047, Note_on_c, 0, 75, 68
2, 47085, Note_on_c, 0, 75, 0
2, 47157, Note_on_c, 0, 51, 54
2, 47195, Note_on_c, 0, 51, 0
2, 47236, Note_on_c, 0, 78, 69
2, 47289, Note_on_c, 0, 78, 0
2, 47334, Note_on_c, 0, 49, 64
2, 47373, Note_on_c, 0, 49, 0
2, 47453, Note_on_c, 0, 80, 59
2, 47523, Note_on_c, 0, 80, 0
2, 47535, Note_on_c, 0, 81, 69
2, 47536, Note_on_c, 0, 48, 39
2, 47577, Note_on_c, 0, 48, 0
2, 47638, Note_on_c, 0, 81, 0
2, 47643, Note_on_c, 0, 80, 73
2, 47716, Note_on_c, 0, 51, 38
2, 47727, Note_on_c, 0, 78, 74
2, 47753, Note_on_c, 0, 51, 0
2, 47754, Note_on_c, 0, 80, 0
2, 47800, Note_on_c, 0, 78, 0
2, 47822, Note_on_c, 0, 76, 76
2, 47890, Note_on_c, 0, 56, 56
2, 47911, Note_on_c, 0, 76, 0
2, 47912, Note_on_c, 0, 75, 79
2, 47928, Note_on_c, 0, 56, 0
2, 48003, Note_on_c, 0, 75, 0
2, 48015, Note_on_c, 0, 73, 76
2, 48096, Note_on_c, 0, 60, 53
2, 48107, Note_on_c, 0, 75, 75
2, 48112, Note_on_c, 0, 73, 0
2, 48135, Note_on_c, 0, 60, 0
2, 48173, Note_on_c, 0, 75, 0
2, 48206, Note_on_c, 0, 76, 74
2, 48276, Note_on_c, 0, 63, 60
2, 48288, Note_on_c, 0, 78, 82
2, 48289, Note_on_c, 0, 76, 0
2, 48314, Note_on_c, 0, 63, 0
2, 48378, Note_on_c, 0, 81, 81
2, 48385, Note_on_c, 0, 78, 0
2, 48477, Note_on_c, 0, 80, 79
2, 48483, Note_on_c, 0, 81, 0
2, 48494, Note_on_c, 0, 66, 43
2, 48527, Note_on_c, 0, 66, 0
2, 48557, Note_on_c, 0, 78, 76
2, 48576, Note_on_c, 0, 80, 0
2, 48653, Note_on_c, 0, 80, 89
2, 48667, Note_on_c, 0, 78, 0
2, 48675, Note_on_c, 0, 64, 68
2, 48715, Note_on_c, 0, 64, 0
2, 48752, Note_on_c, 0, 80, 0
2, 48753, Note_on_c, 0, 73, 73
2, 48790, Note_on_c, 0, 73, 0
2, 48854, Note_on_c, 0, 61, 75
2, 48889, Note_on_c, 0, 61, 0
2, 48946, Note_on_c, 0, 76, 77
2, 48990, Note_on_c, 0, 76, 0
2, 49045, Note_on_c, 0, 57, 73
2, 49078, Note_on_c, 0, 57, 0
2, 49136, Note_on_c, 0, 73, 80
2, 49197, Note_on_c, 0, 73, 0
2, 49232, Note_on_c, 0, 54, 75
2, 49273, Note_on_c, 0, 54, 0
2, 49314, Note_on_c, 0, 69, 78
2, 49347, Note_on_c, 0, 69, 0
2, 49410, Note_on_c, 0, 63, 76
2, 49455, Note_on_c, 0, 63, 0
2, 49500, Note_on_c, 0, 66, 76
2, 49548, Note_on_c, 0, 66, 0
2, 49598, Note_on_c, 0, 60, 83
2, 49635, Note_on_c, 0, 60, 0
2, 49707, Note_on_c, 0, 75, 85
2, 49760, Note_on_c, 0, 75, 0
2, 49785, Note_on_c, 0, 52, 78
2, 49821, Note_on_c, 0, 52, 0
2, 49893, Note_on_c, 0, 68, 82
2, 49940, Note_on_c, 0, 68, 0
2, 49979, Note_on_c, 0, 61, 77
2, 50017, Note_on_c, 0, 61, 0
2, 50072, Note_on_c, 0, 64, 74
2, 50130, Note_on_c, 0, 64, 0
2, 50172, Note_on_c, 0, 57, 71
2, 50207, Note_on_c, 0, 57, 0
2, 50263, Note_on_c, 0, 73, 71
2, 50301, Note_on_c, 0, 73, 0
2, 50360, Note_on_c, 0, 54, 74
2, 50394, Note_on_c, 0, 54, 0
2, 50455, Note_on_c, 0, 69, 71
2, 50496, Note_on_c, 0, 69, 0
2, 50537, Note_on_c, 0, 51, 63
2, 50578, Note_on_c, 0, 51, 0
2, 50654, Note_on_c, 0, 66, 64
2, 50692, Note_on_c, 0, 66, 0
2, 50720, Note_on_c, 0, 48, 62
2, 50760, Note_on_c, 0, 48, 0
2, 50836, Note_on_c, 0, 63, 54
2, 50876, Note_on_c, 0, 63, 0
2, 50917, Note_on_c, 0, 44, 66
2, 50929, Note_on_c, 0, 60, 60
2, 50964, Note_on_c, 0, 44, 0
2, 50988, Note_on_c, 0, 60, 0
2, 51030, Note_on_c, 0, 56, 54
2, 51061, Note_on_c, 0, 56, 0
2, 51121, Note_on_c, 0, 54, 58
2, 51162, Note_on_c, 0, 54, 0
2, 51220, Note_on_c, 0, 56, 54
2, 51269, Note_on_c, 0, 56, 0
2, 51304, Note_on_c, 0, 51, 52
2, 51336, Note_on_c, 0, 51, 0
2, 51404, Note_on_c, 0, 56, 53
2, 51450, Note_on_c, 0, 56, 0
2, 51490, Note_on_c, 0, 44, 57
2, 51515, Note_on_c, 0, 60, 59
2, 51534, Note_on_c, 0, 44, 0
2, 51568, Note_on_c, 0, 60, 0
2, 51612, Note_on_c, 0, 56, 47
2, 51651, Note_on_c, 0, 56, 0
2, 51690, Note_on_c, 0, 54, 53
2, 51726, Note_on_c, 0, 54, 0
2, 51790, Note_on_c, 0, 56, 54
2, 51835, Note_on_c, 0, 56, 0
2, 51884, Note_on_c, 0, 51, 52
2, 51923, Note_on_c, 0, 51, 0
2, 51989, Note_on_c, 0, 56, 53
2, 52051, Note_on_c, 0, 56, 0
2, 52078, Note_on_c, 0, 44, 60
2, 52102, Note_on_c, 0, 61, 59
2, 52122, Note_on_c, 0, 44, 0
2, 52156, Note_on_c, 0, 61, 0
2, 52195, Note_on_c, 0, 56, 56
2, 52237, Note_on_c, 0, 56, 0
2, 52288, Note_on_c, 0, 53, 52
2, 52330, Note_on_c, 0, 53, 0
2, 52379, Note_on_c, 0, 56, 54
2, 52422, Note_on_c, 0, 56, 0
2, 52480, Note_on_c, 0, 49, 55
2, 52515, Note_on_c, 0, 49, 0
2, 52555, Note_on_c, 0, 56, 61
2, 52609, Note_on_c, 0, 56, 0
2, 52672, Note_on_c, 0, 44, 65
2, 52674, Note_on_c, 0, 61, 64
2, 52709, Note_on_c, 0, 44, 0
2, 52729, Note_on_c, 0, 61, 0
2, 52766, Note_on_c, 0, 56, 53
2, 52808, Note_on_c, 0, 56, 0
2, 52876, Note_on_c, 0, 53, 49
2, 52909, Note_on_c, 0, 53, 0
2, 52955, Note_on_c, 0, 56, 45
2, 53010, Note_on_c, 0, 56, 0
2, 53065, Note_on_c, 0, 49, 56
2, 53104, Note_on_c, 0, 49, 0
2, 53160, Note_on_c, 0, 56, 40
2, 53211, Note_on_c, 0, 56, 0
2, 53269, Note_on_c, 0, 44, 50
2, 53275, Note_on_c, 0, 66, 52
2, 53315, Note_on_c, 0, 44, 0
2, 53320, Note_on_c, 0, 66, 0
2, 53355, Note_on_c, 0, 56, 54
2, 53397, Note_on_c, 0, 56, 0
2, 53475, Note_on_c, 0, 51, 45
2, 53513, Note_on_c, 0, 51, 0
2, 53553, Note_on_c, 0, 56, 54
2, 53595, Note_on_c, 0, 56, 0
2, 53660, Note_on_c, 0, 48, 56
2, 53702, Note_on_c, 0, 48, 0
2, 53745, Note_on_c, 0, 56, 59
2, 53806, Note_on_c, 0, 56, 0
2, 53861, Note_on_c, 0, 66, 65
2, 53867, Note_on_c, 0, 44, 54
2, 53910, Note_on_c, 0, 44, 0
2, 53927, Note_on_c, 0, 66, 0
2, 53969, Note_on_c, 0, 56, 55
2, 54008, Note_on_c, 0, 56, 0
2, 54061, Note_on_c, 0, 51, 48
2, 54103, Note_on_c, 0, 51, 0
2, 54165, Note_on_c, 0, 56, 56
2, 54210, Note_on_c, 0, 56, 0
2, 54244, Note_on_c, 0, 48, 57
2, 54287, Note_on_c, 0, 48, 0
2, 54351, Note_on_c, 0, 56, 62
2, 54412, Note_on_c, 0, 56, 0
2, 54447, Note_on_c, 0, 44, 57
2, 54453, Note_on_c, 0, 65, 64
2, 54491, Note_on_c, 0, 44, 0
2, 54527, Note_on_c, 0, 65, 0
2, 54566, Note_on_c, 0, 56, 52
2, 54599, Note_on_c, 0, 56, 0
2, 54644, Note_on_c, 0, 53, 56
2, 54684, Note_on_c, 0, 53, 0
2, 54733, Note_on_c, 0, 56, 56
2, 54784, Note_on_c, 0, 56, 0
2, 54831, Note_on_c, 0, 49, 66
2, 54871, Note_on_c, 0, 49, 0
2, 54908, Note_on_c, 0, 56, 67
2, 54981, Note_on_c, 0, 56, 0
2, 55014, Note_on_c, 0, 65, 68
2, 55026, Note_on_c, 0, 44, 67
2, 55066, Note_on_c, 0, 44, 0
2, 55092, Note_on_c, 0, 65, 0
2, 55130, Note_on_c, 0, 56, 57
2, 55170, Note_on_c, 0, 56, 0
2, 55212, Note_on_c, 0, 53, 69
2, 55249, Note_on_c, 0, 53, 0
2, 55296, Note_on_c, 0, 56, 66
2, 55350, Note_on_c, 0, 56, 0
2, 55394, Note_on_c, 0, 49, 76
2, 55433, Note_on_c, 0, 49, 0
2, 55480, Note_on_c, 0, 56, 75
2, 55551, Note_on_c, 0, 56, 0
2, 55584, Note_on_c, 0, 67, 75
2, 55595, Note_on_c, 0, 44, 69
2, 55640, Note_on_c, 0, 44, 0
2, 55672, Note_on_c, 0, 67, 0
2, 55691, Note_on_c, 0, 58, 61
2, 55731, Note_on_c, 0, 58, 0
2, 55788, Note_on_c, 0, 52, 63
2, 55830, Note_on_c, 0, 52, 0
2, 55864, Note_on_c, 0, 58, 55
2, 55932, Note_on_c, 0, 58, 0
2, 55971, Note_on_c, 0, 49, 72
2, 56007, Note_on_c, 0, 49, 0
2, 56054, Note_on_c, 0, 58, 72
2, 56116, Note_on_c, 0, 58, 0
2, 56158, Note_on_c, 0, 67, 76
2, 56159, Note_on_c, 0, 44, 76
2, 56208, Note_on_c, 0, 44, 0
2, 56245, Note_on_c, 0, 67, 0
2, 56261, Note_on_c, 0, 58, 69
2, 56310, Note_on_c, 0, 58, 0
2, 56360, Note_on_c, 0, 52, 58
2, 56399, Note_on_c, 0, 52, 0
2, 56450, Note_on_c, 0, 58, 60
2, 56489, Note_on_c, 0, 58, 0
2, 56531, Note_on_c, 0, 49, 64
2, 56572, Note_on_c, 0, 49, 0
2, 56638, Note_on_c, 0, 58, 55
2, 56678, Note_on_c, 0, 58, 0
2, 56741, Note_on_c, 0, 44, 54
2, 56839, Note_on_c, 0, 48, 57
2, 56861, Control_c, 0, 64, 35
2, 56880, Control_c, 0, 64, 59
2, 56899, Control_c, 0, 64, 64
2, 56918, Control_c, 0, 64, 67
2, 56938, Control_c, 0, 64, 70
2, 56938, Note_on_c, 0, 51, 67
2, 56945, Note_on_c, 0, 44, 0
2, 56957, Control_c, 0, 64, 76
2, 56959, Note_on_c, 0, 48, 0
2, 56976, Control_c, 0, 64, 88
2, 56995, Control_c, 0, 64, 118
2, 56998, Note_on_c, 0, 51, 0
2, 57015, Control_c, 0, 64, 127
2, 57019, Note_on_c, 0, 54, 70
2, 57122, Note_on_c, 0, 57, 74
2, 57146, Note_on_c, 0, 54, 0
2, 57234, Note_on_c, 0, 60, 74
2, 57258, Note_on_c, 0, 57, 0
2, 57285, Note_on_c, 0, 60, 0
2, 57305, Note_on_c, 0, 61, 73
2, 57398, Control_c, 0, 64, 111
2, 57402, Note_on_c, 0, 64, 79
2, 57418, Control_c, 0, 64, 83
2, 57437, Control_c, 0, 64, 69
2, 57456, Control_c, 0, 64, 56
2, 57475, Control_c, 0, 64, 0
2, 57495, Note_on_c, 0, 67, 77
2, 57563, Note_on_c, 0, 64, 0
2, 57573, Note_on_c, 0, 70, 86
2, 57584, Note_on_c, 0, 67, 0
2, 57635, Note_on_c, 0, 61, 0
2, 57673, Note_on_c, 0, 73, 83
2, 57713, Note_on_c, 0, 70, 0
2, 57765, Note_on_c, 0, 76, 76
2, 57809, Note_on_c, 0, 73, 0
2, 57852, Note_on_c, 0, 76, 0
2, 57853, Note_on_c, 0, 44, 63
2, 57874, Note_on_c, 0, 72, 76
2, 57960, Note_on_c, 0, 75, 82
2, 57978, Note_on_c, 0, 72, 0
2, 58031, Control_c, 0, 64, 28
2, 58051, Control_c, 0, 64, 58
2, 58054, Note_on_c, 0, 78, 82
2, 58061, Note_on_c, 0, 75, 0
2, 58069, Control_c, 0, 64, 67
2, 58089, Control_c, 0, 64, 76
2, 58108, Control_c, 0, 64, 92
2, 58128, Control_c, 0, 64, 127
2, 58134, Note_on_c, 0, 44, 0
2, 58151, Note_on_c, 0, 75, 87
2, 58192, Note_on_c, 0, 78, 0
2, 58218, Note_on_c, 0, 75, 0
2, 58246, Note_on_c, 0, 72, 86
2, 58344, Note_on_c, 0, 68, 86
2, 58346, Note_on_c, 0, 72, 0
2, 58445, Note_on_c, 0, 66, 72
2, 58468, Note_on_c, 0, 68, 0
2, 58511, Control_c, 0, 64, 98
2, 58531, Control_c, 0, 64, 82
2, 58544, Note_on_c, 0, 66, 0
2, 58545, Note_on_c, 0, 63, 80
2, 58549, Control_c, 0, 64, 68
2, 58569, Control_c, 0, 64, 50
2, 58588, Control_c, 0, 64, 0
2, 58637, Note_on_c, 0, 60, 75
2, 58645, Note_on_c, 0, 63, 0
2, 58751, Note_on_c, 0, 60, 0
2, 58769, Note_on_c, 0, 58, 54
2, 58774, Note_on_c, 0, 56, 61
2, 58830, Note_on_c, 0, 60, 73
2, 58850, Note_on_c, 0, 58, 0
2, 58862, Note_on_c, 0, 56, 0
2, 58939, Note_on_c, 0, 60, 0
2, 58939, Note_on_c, 0, 63, 75
2, 59014, Note_on_c, 0, 56, 69
2, 59019, Note_on_c, 0, 65, 72
2, 59066, Note_on_c, 0, 63, 0
2, 59115, Note_on_c, 0, 68, 81
2, 59166, Control_c, 0, 64, 9
2, 59167, Note_on_c, 0, 65, 0
2, 59186, Control_c, 0, 64, 57
2, 59205, Control_c, 0, 64, 65
2, 59211, Note_on_c, 0, 73, 85
2, 59221, Note_on_c, 0, 68, 0
2, 59225, Control_c, 0, 64, 68
2, 59243, Control_c, 0, 64, 76
2, 59263, Control_c, 0, 64, 89
2, 59282, Control_c, 0, 64, 127
2, 59306, Note_on_c, 0, 56, 0
2, 59312, Note_on_c, 0, 68, 83
2, 59400, Note_on_c, 0, 73, 0
2, 59411, Note_on_c, 0, 65, 78
2, 59466, Note_on_c, 0, 68, 0
2, 59507, Note_on_c, 0, 61, 82
2, 59540, Note_on_c, 0, 65, 0
2, 59608, Note_on_c, 0, 58, 82
2, 59614, Note_on_c, 0, 61, 0
2, 59667, Control_c, 0, 64, 116
2, 59686, Control_c, 0, 64, 86
2, 59706, Control_c, 0, 64, 72
2, 59713, Note_on_c, 0, 55, 77
2, 59723, Note_on_c, 0, 58, 0
2, 59724, Control_c, 0, 64, 64
2, 59744, Control_c, 0, 64, 52
2, 59763, Control_c, 0, 64, 28
2, 59782, Control_c, 0, 64, 0
2, 59820, Note_on_c, 0, 52, 73
2, 59848, Note_on_c, 0, 55, 0
2, 59902, Note_on_c, 0, 49, 81
2, 59911, Note_on_c, 0, 52, 0
2, 60026, Note_on_c, 0, 52, 79
2, 60050, Note_on_c, 0, 49, 0
2, 60129, Note_on_c, 0, 52, 0
2, 60149, Note_on_c, 0, 55, 79
2, 60269, Note_on_c, 0, 55, 0
2, 60277, Note_on_c, 0, 44, 76
2, 60559, Note_on_c, 0, 49, 61
2, 60567, Note_on_c, 0, 73, 74
2, 60572, Note_on_c, 0, 53, 51
2, 60572, Note_on_c, 0, 65, 59
2, 60576, Note_on_c, 0, 56, 51
2, 60583, Note_on_c, 0, 68, 55
2, 60596, Note_on_c, 0, 65, 0
2, 60602, Note_on_c, 0, 53, 0
2, 60607, Note_on_c, 0, 68, 0
2, 60610, Note_on_c, 0, 56, 0
2, 60611, Note_on_c, 0, 49, 0
2, 60611, Note_on_c, 0, 73, 0
2, 60882, Note_on_c, 0, 51, 53
2, 60883, Note_on_c, 0, 54, 60
2, 60885, Note_on_c, 0, 72, 78
2, 60887, Note_on_c, 0, 56, 56
2, 60903, Note_on_c, 0, 63, 59
2, 60903, Note_on_c, 0, 68, 67
2, 60907, Note_on_c, 0, 44, 0
2, 60933, Note_on_c, 0, 51, 0
2, 60933, Note_on_c, 0, 54, 0
2, 60933, Note_on_c, 0, 56, 0
2, 60933, Note_on_c, 0, 68, 0
2, 60940, Note_on_c, 0, 63, 0
2, 60944, Note_on_c, 0, 72, 0
2, 61430, Note_on_c, 0, 73, 80
2, 61442, Note_on_c, 0, 56, 47
2, 61450, Note_on_c, 0, 53, 42
2, 61452, Note_on_c, 0, 68, 61
2, 61458, Note_on_c, 0, 49, 45
2, 61464, Note_on_c, 0, 61, 49
2, 62044, Control_c, 0, 64, 36
2, 62064, Control_c, 0, 64, 49
2, 62083, Control_c, 0, 64, 55
2, 62103, Control_c, 0, 64, 57
2, 62121, Control_c, 0, 64, 58
2, 62160, Control_c, 0, 64, 59
2, 62179, Control_c, 0, 64, 61
2, 62198, Control_c, 0, 64, 62
2, 62218, Control_c, 0, 64, 63
2, 62237, Control_c, 0, 64, 64
2, 62256, Control_c, 0, 64, 64
2, 62275, Control_c, 0, 64, 65
2, 62295, Control_c, 0, 64, 67
2, 62313, Control_c, 0, 64, 69
2, 62333, Control_c, 0, 64, 73
2, 62352, Control_c, 0, 64, 78
2, 62372, Control_c, 0, 64, 85
2, 62391, Control_c, 0, 64, 91
2, 62411, Control_c, 0, 64, 100
2, 62430, Control_c, 0, 64, 112
2, 62449, Control_c, 0, 64, 127
2, 62552, Note_on_c, 0, 56, 0
2, 62556, Note_on_c, 0, 61, 0
2, 62578, Note_on_c, 0, 73, 0
2, 62599, Note_on_c, 0, 68, 0
2, 62616, Note_on_c, 0, 53, 0
2, 62628, Note_on_c, 0, 49, 0
2, 63370, Control_c, 0, 64, 107
2, 63389, Control_c, 0, 64, 96
2, 63408, Control_c, 0, 64, 87
2, 63427, Control_c, 0, 64, 78
2, 63447, Control_c, 0, 64, 71
2, 63466, Control_c, 0, 64, 65
2, 63484, Control_c, 0, 64, 60
2, 63504, Control_c, 0, 64, 54
2, 63523, Control_c, 0, 64, 52
2, 63543, Control_c, 0, 64, 51
2, 63561, Control_c, 0, 64, 49
2, 63581, Control_c, 0, 64, 44
2, 63600, Control_c, 0, 64, 38
2, 63619, Control_c, 0, 64, 32
2, 63638, Control_c, 0, 64, 31
2, 63753, Control_c, 0, 64, 32
2, 63773, Control_c, 0, 64, 32
2, 63792, Control_c, 0, 64, 33
2, 63830, Control_c, 0, 64, 34
2, 63850, Control_c, 0, 64, 36
2, 63869, Control_c, 0, 64, 39
2, 63888, Control_c, 0, 64, 42
2, 63907, Control_c, 0, 64, 44
2, 63927, Control_c, 0, 64, 46
2, 63946, Control_c, 0, 64, 47
2, 63964, Control_c, 0, 64, 48
2, 63984, Control_c, 0, 64, 49
2, 64003, Control_c, 0, 64, 49
2, 64041, Control_c, 0, 64, 50
2, 64157, Control_c, 0, 64, 50
2, 64349, Control_c, 0, 64, 51
2, 64618, Control_c, 0, 64, 51
2, 65789, Control_c, 0, 64, 52
2, 65961, Control_c, 0, 64, 52
2, 66038, Control_c, 0, 64, 53
2, 66115, Control_c, 0, 64, 53
2, 66135, Control_c, 0, 64, 54
2, 66173, Control_c, 0, 64, 54
2, 66192, Control_c, 0, 64, 55
2, 67344, Control_c, 0, 64, 55
2, 67421, Control_c, 0, 64, 56
2, 67478, Control_c, 0, 64, 55
2, 67498, Control_c, 0, 64, 52
2, 67517, Control_c, 0, 64, 47
2, 67536, Control_c, 0, 64, 44
2, 67555, Control_c, 0, 64, 43
2, 67575, Control_c, 0, 64, 42
2, 67593, Control_c, 0, 64, 40
2, 67613, Control_c, 0, 64, 38
2, 67632, Control_c, 0, 64, 36
2, 67652, Control_c, 0, 64, 35
2, 67670, Control_c, 0, 64, 34
2, 67690, Control_c, 0, 64, 32
2, 67709, Control_c, 0, 64, 26
2, 67728, Control_c, 0, 64, 9
2, 67747, Control_c, 0, 64, 0
2, 67779,End_track
0, 0, End_of_file
