0, 0, Header, 1, 2, 480
1, 0, Start_track
1, 0, Tempo, 500000
1, 0, Time_signature, 4, 2, 24, 8
1, 1, End_track
2,0,Start_track
2,0, Note_on_c, 0, 68, 64
2,25, Note_on_c, 0, 68, 0
2,310, Note_on_c, 0, 70, 74
2,407, Note_on_c, 0, 70, 0
2,429, Note_on_c, 0, 68, 70
2,517, Note_on_c, 0, 68, 0
2,559, Note_on_c, 0, 66, 65
2,646, Note_on_c, 0, 66, 0
2,686, Note_on_c, 0, 68, 71
2,784, Note_on_c, 0, 68, 0
2,834, Note_on_c, 0, 77, 79
2,868, Note_on_c, 0, 77, 0
2,1109, Note_on_c, 0, 73, 77
2,1138, Note_on_c, 0, 73, 0
2,1407, Note_on_c, 0, 68, 81
2,1691, Note_on_c, 0, 68, 0
2,1712, Note_on_c, 0, 66, 64
2,1789, Note_on_c, 0, 66, 0
2,1829, Note_on_c, 0, 65, 66
2,1920, Note_on_c, 0, 65, 0
2,1964, Note_on_c, 0, 66, 79
2,1992, Note_on_c, 0, 66, 0
2,2243, Note_on_c, 0, 75, 77
2,2272, Note_on_c, 0, 75, 0
2,2528, Note_on_c, 0, 65, 75
2,2566, Note_on_c, 0, 65, 0
2,2810, Note_on_c, 0, 73, 73
2,2846, Note_on_c, 0, 73, 0
2,3095, Note_on_c, 0, 63, 72
2,3129, Note_on_c, 0, 63, 0
2,3380, Note_on_c, 0, 72, 70
2,3412, Note_on_c, 0, 72, 0
2,3660, Note_on_c, 0, 61, 75
2,3690, Note_on_c, 0, 61, 0
2,3954, Note_on_c, 0, 73, 66
2,4040, Note_on_c, 0, 73, 0
2,4079, Note_on_c, 0, 72, 59
2,4192, Note_on_c, 0, 72, 0
2,4215, Note_on_c, 0, 73, 63
2,4331, Note_on_c, 0, 73, 0
2,4338, Note_on_c, 0, 75, 67
2,4427, Note_on_c, 0, 75, 0
2,4473, Note_on_c, 0, 61, 63
2,4481, Note_on_c, 0, 77, 62
2,4511, Note_on_c, 0, 61, 0
2,4604, Note_on_c, 0, 77, 0
2,4608, Note_on_c, 0, 78, 61
2,4732, Note_on_c, 0, 78, 0
2,4756, Note_on_c, 0, 65, 65
2,4756, Note_on_c, 0, 80, 63
2,4855, Note_on_c, 0, 65, 0
2,4882, Note_on_c, 0, 79, 71
2,4887, Note_on_c, 0, 63, 75
2,4923, Note_on_c, 0, 80, 0
2,4984, Note_on_c, 0, 63, 0
2,4986, Note_on_c, 0, 79, 0
2,5010, Note_on_c, 0, 61, 71
2,5016, Note_on_c, 0, 77, 69
2,5113, Note_on_c, 0, 77, 0
2,5135, Note_on_c, 0, 79, 77
2,5136, Note_on_c, 0, 63, 76
2,5169, Note_on_c, 0, 61, 0
2,5230, Note_on_c, 0, 63, 0
2,5250, Note_on_c, 0, 79, 0
2,5270, Note_on_c, 0, 80, 80
2,5276, Note_on_c, 0, 72, 57
2,5304, Note_on_c, 0, 72, 0
2,5397, Note_on_c, 0, 78, 79
2,5428, Note_on_c, 0, 80, 0
2,5487, Note_on_c, 0, 78, 0
2,5516, Note_on_c, 0, 77, 72
2,5525, Note_on_c, 0, 68, 68
2,5553, Note_on_c, 0, 68, 0
2,5637, Note_on_c, 0, 77, 0
2,5646, Note_on_c, 0, 75, 73
2,5779, Note_on_c, 0, 75, 0
2,5783, Note_on_c, 0, 63, 75
2,5786, Note_on_c, 0, 77, 74
2,6069, Note_on_c, 0, 63, 0
2,6071, Note_on_c, 0, 61, 61
2,6172, Note_on_c, 0, 61, 0
2,6191, Note_on_c, 0, 60, 61
2,6321, Note_on_c, 0, 61, 80
2,6327, Note_on_c, 0, 60, 0
2,6349, Note_on_c, 0, 61, 0
2,6467, Note_on_c, 0, 75, 66
2,6481, Note_on_c, 0, 77, 0
2,6588, Note_on_c, 0, 70, 67
2,6600, Note_on_c, 0, 73, 69
2,6605, Note_on_c, 0, 75, 0
2,6620, Note_on_c, 0, 70, 0
2,6715, Note_on_c, 0, 73, 0
2,6731, Note_on_c, 0, 77, 70
2,6853, Note_on_c, 0, 77, 0
2,6857, Note_on_c, 0, 60, 65
2,6863, Note_on_c, 0, 75, 77
2,6894, Note_on_c, 0, 60, 0
2,6976, Note_on_c, 0, 73, 76
2,7012, Note_on_c, 0, 75, 0
2,7081, Note_on_c, 0, 73, 0
2,7107, Note_on_c, 0, 72, 72
2,7120, Note_on_c, 0, 68, 60
2,7153, Note_on_c, 0, 68, 0
2,7222, Note_on_c, 0, 72, 0
2,7233, Note_on_c, 0, 75, 74
2,7366, Note_on_c, 0, 58, 56
2,7367, Note_on_c, 0, 73, 68
2,7407, Note_on_c, 0, 58, 0
2,7435, Note_on_c, 0, 75, 0
2,7448, Note_on_c, 0, 73, 0
2,7482, Note_on_c, 0, 72, 74
2,7579, Note_on_c, 0, 72, 0
2,7611, Note_on_c, 0, 67, 53
2,7619, Note_on_c, 0, 73, 71
2,7640, Note_on_c, 0, 67, 0
2,7700, Note_on_c, 0, 73, 0
2,7737, Note_on_c, 0, 70, 73
2,7774, Note_on_c, 0, 70, 0
2,7857, Note_on_c, 0, 70, 78
2,7858, Note_on_c, 0, 56, 61
2,7897, Note_on_c, 0, 56, 0
2,7900, Control_c, 0, 64, 51
2,7918, Control_c, 0, 64, 60
2,7938, Control_c, 0, 64, 58
2,7940, Note_on_c, 0, 70, 0
2,7957, Control_c, 0, 64, 48
2,7977, Control_c, 0, 64, 0
2,7991, Note_on_c, 0, 72, 70
2,8025, Note_on_c, 0, 72, 0
2,8123, Note_on_c, 0, 68, 68
2,8123, Note_on_c, 0, 75, 77
2,8150, Note_on_c, 0, 75, 0
2,8186, Note_on_c, 0, 68, 0
2,8243, Note_on_c, 0, 67, 65
2,8327, Note_on_c, 0, 67, 0
2,8374, Note_on_c, 0, 78, 86
2,8382, Note_on_c, 0, 68, 74
2,8472, Note_on_c, 0, 68, 0
2,8510, Note_on_c, 0, 70, 62
2,8617, Note_on_c, 0, 70, 0
2,8639, Note_on_c, 0, 72, 65
2,8649, Note_on_c, 0, 56, 76
2,8676, Note_on_c, 0, 56, 0
2,8709, Note_on_c, 0, 72, 0
2,8773, Note_on_c, 0, 68, 61
2,8875, Note_on_c, 0, 68, 0
2,8925, Note_on_c, 0, 73, 66
2,8926, Note_on_c, 0, 58, 79
2,9026, Note_on_c, 0, 58, 0
2,9037, Note_on_c, 0, 73, 0
2,9057, Note_on_c, 0, 72, 62
2,9059, Note_on_c, 0, 56, 75
2,9161, Note_on_c, 0, 72, 0
2,9186, Note_on_c, 0, 56, 0
2,9186, Note_on_c, 0, 70, 69
2,9191, Note_on_c, 0, 54, 70
2,9299, Note_on_c, 0, 70, 0
2,9299, Note_on_c, 0, 78, 0
2,9311, Note_on_c, 0, 72, 71
2,9318, Note_on_c, 0, 56, 78
2,9335, Note_on_c, 0, 54, 0
2,9408, Note_on_c, 0, 72, 0
2,9423, Note_on_c, 0, 56, 0
2,9444, Note_on_c, 0, 65, 74
2,9454, Note_on_c, 0, 73, 80
2,9454, Note_on_c, 0, 77, 82
2,9474, Note_on_c, 0, 65, 0
2,9516, Note_on_c, 0, 73, 0
2,9581, Note_on_c, 0, 72, 67
2,9683, Note_on_c, 0, 72, 0
2,9717, Note_on_c, 0, 61, 71
2,9719, Note_on_c, 0, 70, 74
2,9747, Note_on_c, 0, 61, 0
2,9820, Note_on_c, 0, 70, 0
2,9857, Note_on_c, 0, 68, 71
2,9988, Note_on_c, 0, 68, 0
2,10002, Note_on_c, 0, 56, 84
2,10012, Note_on_c, 0, 70, 79
2,10203, Note_on_c, 0, 77, 0
2,10290, Note_on_c, 0, 54, 66
2,10294, Note_on_c, 0, 56, 0
2,10407, Note_on_c, 0, 54, 0
2,10415, Note_on_c, 0, 53, 66
2,10546, Note_on_c, 0, 54, 74
2,10548, Note_on_c, 0, 53, 0
2,10548, Note_on_c, 0, 75, 84
2,10550, Note_on_c, 0, 70, 0
2,10586, Note_on_c, 0, 54, 0
2,10691, Note_on_c, 0, 68, 67
2,10798, Note_on_c, 0, 68, 0
2,10826, Note_on_c, 0, 66, 65
2,10831, Note_on_c, 0, 63, 60
2,10868, Note_on_c, 0, 63, 0
2,10935, Note_on_c, 0, 66, 0
2,10952, Note_on_c, 0, 70, 62
2,11090, Note_on_c, 0, 68, 66
2,11101, Note_on_c, 0, 53, 41
2,11138, Note_on_c, 0, 53, 0
2,11141, Note_on_c, 0, 75, 0
2,11207, Note_on_c, 0, 70, 0
2,11213, Note_on_c, 0, 66, 61
2,11230, Note_on_c, 0, 68, 0
2,11335, Note_on_c, 0, 66, 0
2,11337, Note_on_c, 0, 61, 47
2,11344, Note_on_c, 0, 73, 66
2,11362, Note_on_c, 0, 65, 57
2,11378, Note_on_c, 0, 61, 0
2,11479, Note_on_c, 0, 68, 67
2,11566, Note_on_c, 0, 68, 0
2,11569, Note_on_c, 0, 65, 0
2,11599, Note_on_c, 0, 66, 63
2,11608, Note_on_c, 0, 51, 47
2,11609, Note_on_c, 0, 72, 74
2,11655, Note_on_c, 0, 73, 0
2,11666, Note_on_c, 0, 51, 0
2,11699, Note_on_c, 0, 66, 0
2,11733, Note_on_c, 0, 65, 63
2,11826, Note_on_c, 0, 65, 0
2,11859, Note_on_c, 0, 75, 74
2,11863, Note_on_c, 0, 66, 62
2,11870, Note_on_c, 0, 60, 30
2,11917, Note_on_c, 0, 60, 0
2,11968, Note_on_c, 0, 66, 0
2,11971, Note_on_c, 0, 72, 0
2,11993, Note_on_c, 0, 63, 62
2,12105, Note_on_c, 0, 63, 0
2,12128, Note_on_c, 0, 49, 50
2,12128, Note_on_c, 0, 65, 52
2,12162, Control_c, 0, 64, 45
2,12180, Control_c, 0, 64, 64
2,12198, Note_on_c, 0, 49, 0
2,12199, Control_c, 0, 64, 74
2,12219, Control_c, 0, 64, 95
2,12237, Control_c, 0, 64, 127
2,12372, Control_c, 0, 64, 90
2,12391, Control_c, 0, 64, 72
2,12407, Note_on_c, 0, 68, 58
2,12411, Control_c, 0, 64, 61
2,12418, Note_on_c, 0, 61, 57
2,12418, Note_on_c, 0, 75, 0
2,12430, Control_c, 0, 64, 0
2,12445, Note_on_c, 0, 68, 0
2,12530, Note_on_c, 0, 61, 0
2,12556, Note_on_c, 0, 60, 52
2,12671, Note_on_c, 0, 77, 73
2,12690, Note_on_c, 0, 60, 0
2,12691, Note_on_c, 0, 61, 58
2,12762, Note_on_c, 0, 65, 0
2,12808, Note_on_c, 0, 63, 65
2,12818, Note_on_c, 0, 61, 0
2,12928, Note_on_c, 0, 63, 0
2,12940, Note_on_c, 0, 65, 59
2,12941, Note_on_c, 0, 68, 72
2,12977, Note_on_c, 0, 68, 0
2,13034, Note_on_c, 0, 65, 0
2,13073, Note_on_c, 0, 61, 64
2,13195, Note_on_c, 0, 58, 55
2,13198, Note_on_c, 0, 73, 68
2,13211, Note_on_c, 0, 61, 0
2,13262, Note_on_c, 0, 77, 0
2,13315, Note_on_c, 0, 58, 0
2,13330, Note_on_c, 0, 60, 63
2,13453, Note_on_c, 0, 60, 0
2,13454, Note_on_c, 0, 77, 80
2,13463, Note_on_c, 0, 61, 65
2,13471, Note_on_c, 0, 73, 0
2,13580, Note_on_c, 0, 73, 82
2,13588, Note_on_c, 0, 58, 64
2,13591, Note_on_c, 0, 61, 0
2,13592, Note_on_c, 0, 77, 0
2,13701, Note_on_c, 0, 58, 0
2,13717, Note_on_c, 0, 70, 79
2,13735, Note_on_c, 0, 55, 54
2,13745, Note_on_c, 0, 73, 0
2,13857, Note_on_c, 0, 56, 61
2,13861, Note_on_c, 0, 55, 0
2,13962, Note_on_c, 0, 70, 0
2,13963, Note_on_c, 0, 56, 0
2,13966, Note_on_c, 0, 58, 63
2,13971, Note_on_c, 0, 73, 73
2,14084, Note_on_c, 0, 58, 0
2,14097, Note_on_c, 0, 70, 70
2,14097, Note_on_c, 0, 73, 0
2,14115, Note_on_c, 0, 55, 52
2,14192, Note_on_c, 0, 55, 0
2,14227, Note_on_c, 0, 70, 0
2,14231, Note_on_c, 0, 63, 60
2,14240, Note_on_c, 0, 48, 49
2,14274, Control_c, 0, 64, 51
2,14293, Control_c, 0, 64, 63
2,14312, Control_c, 0, 64, 70
2,14332, Control_c, 0, 64, 81
2,14351, Control_c, 0, 64, 105
2,14356, Note_on_c, 0, 48, 0
2,14370, Control_c, 0, 64, 127
2,14486, Control_c, 0, 64, 91
2,14504, Control_c, 0, 64, 71
2,14511, Note_on_c, 0, 70, 66
2,14522, Note_on_c, 0, 60, 48
2,14524, Control_c, 0, 64, 55
2,14543, Control_c, 0, 64, 0
2,14546, Note_on_c, 0, 70, 0
2,14618, Note_on_c, 0, 60, 0
2,14646, Note_on_c, 0, 58, 55
2,14758, Note_on_c, 0, 58, 0
2,14783, Note_on_c, 0, 75, 80
2,14793, Note_on_c, 0, 60, 53
2,14899, Note_on_c, 0, 60, 0
2,14920, Note_on_c, 0, 61, 57
2,14984, Note_on_c, 0, 63, 0
2,15043, Note_on_c, 0, 67, 59
2,15044, Note_on_c, 0, 63, 44
2,15056, Note_on_c, 0, 61, 0
2,15088, Note_on_c, 0, 67, 0
2,15148, Note_on_c, 0, 63, 0
2,15188, Note_on_c, 0, 60, 55
2,15314, Note_on_c, 0, 56, 55
2,15322, Note_on_c, 0, 60, 0
2,15326, Note_on_c, 0, 72, 69
2,15376, Note_on_c, 0, 75, 0
2,15452, Note_on_c, 0, 58, 61
2,15465, Note_on_c, 0, 56, 0
2,15560, Note_on_c, 0, 58, 0
2,15581, Note_on_c, 0, 75, 80
2,15593, Note_on_c, 0, 60, 60
2,15596, Note_on_c, 0, 72, 0
2,15710, Note_on_c, 0, 60, 0
2,15712, Note_on_c, 0, 56, 69
2,15716, Note_on_c, 0, 72, 80
2,15724, Note_on_c, 0, 75, 0
2,15836, Note_on_c, 0, 56, 0
2,15836, Note_on_c, 0, 68, 79
2,15844, Note_on_c, 0, 72, 0
2,15847, Note_on_c, 0, 53, 62
2,15968, Note_on_c, 0, 55, 69
2,15978, Note_on_c, 0, 53, 0
2,16069, Note_on_c, 0, 55, 0
2,16089, Note_on_c, 0, 56, 65
2,16092, Note_on_c, 0, 68, 0
2,16094, Note_on_c, 0, 72, 72
2,16177, Note_on_c, 0, 56, 0
2,16214, Note_on_c, 0, 72, 0
2,16222, Note_on_c, 0, 68, 77
2,16226, Note_on_c, 0, 53, 60
2,16314, Note_on_c, 0, 68, 0
2,16336, Note_on_c, 0, 53, 0
2,16353, Note_on_c, 0, 61, 66
2,16368, Note_on_c, 0, 46, 56
2,16405, Control_c, 0, 64, 51
2,16420, Note_on_c, 0, 46, 0
2,16423, Control_c, 0, 64, 68
2,16443, Control_c, 0, 64, 76
2,16462, Control_c, 0, 64, 90
2,16482, Control_c, 0, 64, 107
2,16500, Control_c, 0, 64, 127
2,16596, Control_c, 0, 64, 116
2,16616, Control_c, 0, 64, 87
2,16634, Control_c, 0, 64, 67
2,16634, Note_on_c, 0, 68, 63
2,16643, Note_on_c, 0, 58, 55
2,16654, Control_c, 0, 64, 44
2,16672, Note_on_c, 0, 68, 0
2,16673, Control_c, 0, 64, 0
2,16715, Note_on_c, 0, 58, 0
2,16763, Note_on_c, 0, 56, 61
2,16898, Note_on_c, 0, 58, 54
2,16910, Note_on_c, 0, 73, 73
2,16912, Note_on_c, 0, 61, 0
2,16919, Note_on_c, 0, 56, 0
2,16984, Note_on_c, 0, 58, 0
2,17016, Note_on_c, 0, 60, 57
2,17144, Note_on_c, 0, 60, 0
2,17156, Note_on_c, 0, 61, 62
2,17183, Note_on_c, 0, 65, 57
2,17221, Note_on_c, 0, 65, 0
2,17289, Note_on_c, 0, 58, 54
2,17290, Note_on_c, 0, 61, 0
2,17420, Note_on_c, 0, 58, 0
2,17434, Note_on_c, 0, 70, 70
2,17447, Note_on_c, 0, 55, 49
2,17479, Note_on_c, 0, 73, 0
2,17564, Note_on_c, 0, 72, 81
2,17573, Note_on_c, 0, 55, 0
2,17573, Note_on_c, 0, 56, 68
2,17615, Note_on_c, 0, 70, 0
2,17691, Note_on_c, 0, 58, 71
2,17694, Note_on_c, 0, 56, 0
2,17699, Note_on_c, 0, 73, 89
2,17739, Note_on_c, 0, 72, 0
2,17786, Note_on_c, 0, 58, 0
2,17810, Note_on_c, 0, 73, 0
2,17819, Note_on_c, 0, 55, 68
2,17820, Note_on_c, 0, 70, 94
2,17940, Note_on_c, 0, 55, 0
2,17943, Note_on_c, 0, 51, 60
2,17952, Note_on_c, 0, 82, 95
2,17984, Note_on_c, 0, 70, 0
2,18083, Note_on_c, 0, 53, 65
2,18087, Note_on_c, 0, 73, 80
2,18088, Note_on_c, 0, 51, 0
2,18189, Note_on_c, 0, 53, 0
2,18208, Note_on_c, 0, 73, 0
2,18219, Note_on_c, 0, 75, 70
2,18223, Note_on_c, 0, 55, 59
2,18308, Note_on_c, 0, 55, 0
2,18324, Note_on_c, 0, 75, 0
2,18329, Note_on_c, 0, 51, 60
2,18344, Note_on_c, 0, 70, 72
2,18453, Note_on_c, 0, 51, 0
2,18483, Note_on_c, 0, 44, 55
2,18490, Note_on_c, 0, 72, 70
2,18503, Note_on_c, 0, 70, 0
2,18517, Control_c, 0, 64, 32
2,18538, Control_c, 0, 64, 65
2,18557, Control_c, 0, 64, 73
2,18559, Note_on_c, 0, 72, 0
2,18577, Control_c, 0, 64, 91
2,18596, Control_c, 0, 64, 127
2,18625, Note_on_c, 0, 80, 68
2,18675, Note_on_c, 0, 44, 0
2,18675, Note_on_c, 0, 82, 0
2,18727, Note_on_c, 0, 56, 66
2,18746, Note_on_c, 0, 80, 0
2,18753, Note_on_c, 0, 79, 80
2,18806, Control_c, 0, 64, 112
2,18824, Control_c, 0, 64, 93
2,18835, Note_on_c, 0, 56, 0
2,18844, Control_c, 0, 64, 77
2,18863, Control_c, 0, 64, 68
2,18875, Note_on_c, 0, 82, 85
2,18880, Note_on_c, 0, 58, 62
2,18881, Control_c, 0, 64, 61
2,18887, Note_on_c, 0, 79, 0
2,18901, Control_c, 0, 64, 52
2,18920, Control_c, 0, 64, 45
2,18940, Control_c, 0, 64, 39
2,18958, Control_c, 0, 64, 24
2,18978, Control_c, 0, 64, 0
2,18994, Note_on_c, 0, 58, 0
2,18999, Note_on_c, 0, 60, 60
2,19004, Note_on_c, 0, 80, 86
2,19024, Note_on_c, 0, 82, 0
2,19035, Note_on_c, 0, 60, 0
2,19127, Note_on_c, 0, 75, 79
2,19188, Note_on_c, 0, 80, 0
2,19248, Note_on_c, 0, 75, 0
2,19260, Note_on_c, 0, 77, 80
2,19271, Note_on_c, 0, 68, 84
2,19283, Note_on_c, 0, 56, 68
2,19319, Note_on_c, 0, 56, 0
2,19394, Note_on_c, 0, 78, 82
2,19422, Note_on_c, 0, 77, 0
2,19514, Note_on_c, 0, 68, 0
2,19528, Note_on_c, 0, 61, 59
2,19546, Note_on_c, 0, 77, 71
2,19615, Note_on_c, 0, 78, 0
2,19648, Note_on_c, 0, 77, 0
2,19663, Note_on_c, 0, 75, 82
2,19679, Note_on_c, 0, 67, 53
2,19778, Note_on_c, 0, 67, 0
2,19791, Note_on_c, 0, 65, 59
2,19791, Note_on_c, 0, 75, 0
2,19793, Note_on_c, 0, 73, 82
2,19800, Note_on_c, 0, 61, 0
2,19865, Note_on_c, 0, 65, 0
2,19871, Note_on_c, 0, 73, 0
2,19909, Note_on_c, 0, 75, 86
2,19916, Note_on_c, 0, 67, 71
2,19999, Note_on_c, 0, 75, 0
2,20030, Note_on_c, 0, 67, 0
2,20048, Note_on_c, 0, 84, 91
2,20050, Note_on_c, 0, 68, 66
2,20065, Note_on_c, 0, 60, 54
2,20072, Note_on_c, 0, 84, 0
2,20119, Note_on_c, 0, 68, 0
2,20176, Note_on_c, 0, 66, 67
2,20278, Note_on_c, 0, 66, 0
2,20308, Note_on_c, 0, 80, 91
2,20319, Note_on_c, 0, 65, 61
2,20335, Note_on_c, 0, 80, 0
2,20416, Note_on_c, 0, 65, 0
2,20437, Note_on_c, 0, 60, 0
2,20444, Note_on_c, 0, 63, 70
2,20560, Note_on_c, 0, 63, 0
2,20577, Note_on_c, 0, 75, 91
2,20582, Note_on_c, 0, 65, 53
2,20600, Note_on_c, 0, 58, 54
2,20636, Note_on_c, 0, 58, 0
2,20865, Note_on_c, 0, 56, 63
2,20872, Note_on_c, 0, 73, 77
2,20887, Note_on_c, 0, 75, 0
2,20904, Note_on_c, 0, 56, 0
2,20966, Note_on_c, 0, 73, 0
2,20995, Note_on_c, 0, 72, 79
2,21096, Note_on_c, 0, 72, 0
2,21130, Note_on_c, 0, 55, 55
2,21132, Note_on_c, 0, 73, 77
2,21163, Note_on_c, 0, 73, 0
2,21249, Note_on_c, 0, 65, 0
2,21259, Note_on_c, 0, 63, 63
2,21394, Note_on_c, 0, 82, 86
2,21403, Note_on_c, 0, 55, 0
2,21414, Note_on_c, 0, 61, 50
2,21420, Note_on_c, 0, 82, 0
2,21447, Note_on_c, 0, 63, 0
2,21538, Note_on_c, 0, 65, 66
2,21599, Note_on_c, 0, 61, 0
2,21633, Note_on_c, 0, 65, 0
2,21657, Note_on_c, 0, 72, 80
2,21673, Note_on_c, 0, 63, 64
2,21696, Note_on_c, 0, 56, 53
2,21698, Note_on_c, 0, 72, 0
2,21806, Note_on_c, 0, 61, 64
2,21820, Note_on_c, 0, 63, 0
2,21907, Note_on_c, 0, 61, 0
2,21936, Note_on_c, 0, 60, 62
2,21938, Note_on_c, 0, 80, 80
2,21974, Note_on_c, 0, 80, 0
2,22001, Note_on_c, 0, 56, 0
2,22039, Note_on_c, 0, 60, 0
2,22063, Note_on_c, 0, 63, 70
2,22166, Note_on_c, 0, 63, 0
2,22192, Note_on_c, 0, 70, 69
2,22199, Note_on_c, 0, 61, 59
2,22200, Note_on_c, 0, 51, 51
2,22261, Note_on_c, 0, 70, 0
2,22292, Note_on_c, 0, 61, 0
2,22385, Note_on_c, 0, 62, 22
2,22386, Note_on_c, 0, 60, 25
2,22431, Note_on_c, 0, 62, 0
2,22438, Note_on_c, 0, 60, 0
2,22455, Note_on_c, 0, 61, 59
2,22462, Note_on_c, 0, 79, 73
2,22501, Note_on_c, 0, 79, 0
2,22552, Note_on_c, 0, 61, 0
2,22603, Note_on_c, 0, 58, 60
2,22712, Note_on_c, 0, 58, 0
2,22734, Note_on_c, 0, 56, 53
2,22738, Note_on_c, 0, 68, 62
2,22740, Note_on_c, 0, 51, 0
2,22761, Note_on_c, 0, 60, 42
2,22798, Note_on_c, 0, 60, 0
2,22848, Note_on_c, 0, 68, 0
2,22863, Note_on_c, 0, 70, 72
2,22955, Note_on_c, 0, 70, 0
2,22999, Note_on_c, 0, 63, 58
2,23001, Note_on_c, 0, 72, 68
2,23038, Note_on_c, 0, 63, 0
2,23091, Note_on_c, 0, 72, 0
2,23132, Note_on_c, 0, 73, 64
2,23238, Note_on_c, 0, 73, 0
2,23265, Note_on_c, 0, 72, 60
2,23274, Note_on_c, 0, 68, 56
2,23351, Control_c, 0, 64, 43
2,23355, Note_on_c, 0, 72, 0
2,23371, Control_c, 0, 64, 63
2,23390, Control_c, 0, 64, 68
2,23395, Note_on_c, 0, 70, 70
2,23396, Note_on_c, 0, 68, 0
2,23410, Control_c, 0, 64, 76
2,23428, Control_c, 0, 64, 86
2,23448, Control_c, 0, 64, 95
2,23467, Control_c, 0, 64, 103
2,23479, Note_on_c, 0, 70, 0
2,23487, Control_c, 0, 64, 112
2,23505, Control_c, 0, 64, 127
2,23532, Note_on_c, 0, 56, 0
2,23532, Note_on_c, 0, 68, 73
2,23538, Note_on_c, 0, 63, 58
2,23621, Control_c, 0, 64, 118
2,23639, Control_c, 0, 64, 100
2,23646, Note_on_c, 0, 72, 74
2,23655, Note_on_c, 0, 68, 0
2,23659, Control_c, 0, 64, 84
2,23666, Note_on_c, 0, 60, 53
2,23678, Control_c, 0, 64, 73
2,23697, Control_c, 0, 64, 66
2,23713, Note_on_c, 0, 63, 0
2,23716, Control_c, 0, 64, 61
2,23736, Control_c, 0, 64, 54
2,23755, Control_c, 0, 64, 44
2,23774, Control_c, 0, 64, 29
2,23788, Note_on_c, 0, 77, 69
2,23791, Note_on_c, 0, 72, 0
2,23793, Control_c, 0, 64, 0
2,23801, Note_on_c, 0, 60, 0
2,23804, Note_on_c, 0, 56, 55
2,23924, Note_on_c, 0, 75, 78
2,23960, Note_on_c, 0, 77, 0
2,24018, Note_on_c, 0, 56, 0
2,24027, Note_on_c, 0, 75, 0
2,24048, Note_on_c, 0, 74, 80
2,24060, Note_on_c, 0, 59, 64
2,24171, Note_on_c, 0, 77, 88
2,24175, Note_on_c, 0, 74, 0
2,24181, Note_on_c, 0, 56, 68
2,24198, Note_on_c, 0, 59, 0
2,24310, Note_on_c, 0, 53, 63
2,24310, Note_on_c, 0, 80, 92
2,24311, Note_on_c, 0, 56, 0
2,24320, Note_on_c, 0, 77, 0
2,24435, Note_on_c, 0, 78, 89
2,24481, Note_on_c, 0, 80, 0
2,24535, Note_on_c, 0, 53, 0
2,24540, Note_on_c, 0, 56, 68
2,24546, Note_on_c, 0, 78, 0
2,24549, Note_on_c, 0, 77, 86
2,24583, Control_c, 0, 64, 29
2,24602, Control_c, 0, 64, 58
2,24622, Control_c, 0, 64, 68
2,24641, Control_c, 0, 64, 78
2,24660, Control_c, 0, 64, 98
2,24678, Note_on_c, 0, 80, 84
2,24679, Control_c, 0, 64, 127
2,24687, Note_on_c, 0, 56, 0
2,24696, Note_on_c, 0, 53, 51
2,24704, Note_on_c, 0, 77, 0
2,24743, Note_on_c, 0, 80, 0
2,24830, Note_on_c, 0, 50, 56
2,24830, Note_on_c, 0, 80, 78
2,24852, Control_c, 0, 64, 109
2,24854, Note_on_c, 0, 53, 0
2,24871, Control_c, 0, 64, 91
2,24884, Note_on_c, 0, 82, 78
2,24891, Control_c, 0, 64, 76
2,24910, Control_c, 0, 64, 68
2,24929, Control_c, 0, 64, 62
2,24936, Note_on_c, 0, 80, 0
2,24938, Note_on_c, 0, 83, 80
2,24948, Control_c, 0, 64, 53
2,24968, Control_c, 0, 64, 47
2,24976, Note_on_c, 0, 82, 0
2,24987, Control_c, 0, 64, 45
2,25006, Control_c, 0, 64, 42
2,25025, Control_c, 0, 64, 31
2,25045, Control_c, 0, 64, 0
2,25124, Note_on_c, 0, 53, 55
2,25129, Note_on_c, 0, 82, 78
2,25181, Note_on_c, 0, 83, 0
2,25252, Note_on_c, 0, 56, 64
2,25260, Note_on_c, 0, 80, 87
2,25274, Note_on_c, 0, 50, 0
2,25331, Note_on_c, 0, 53, 0
2,25383, Note_on_c, 0, 56, 0
2,25391, Note_on_c, 0, 59, 64
2,25391, Note_on_c, 0, 82, 0
2,25392, Note_on_c, 0, 78, 77
2,25459, Note_on_c, 0, 80, 0
2,25502, Note_on_c, 0, 78, 0
2,25511, Note_on_c, 0, 77, 76
2,25638, Note_on_c, 0, 53, 44
2,25658, Note_on_c, 0, 77, 0
2,25661, Note_on_c, 0, 75, 74
2,25674, Note_on_c, 0, 53, 0
2,25746, Note_on_c, 0, 75, 0
2,25779, Note_on_c, 0, 74, 62
2,25893, Note_on_c, 0, 54, 52
2,25899, Note_on_c, 0, 74, 0
2,25903, Note_on_c, 0, 59, 0
2,25906, Note_on_c, 0, 58, 48
2,25917, Note_on_c, 0, 75, 69
2,25939, Note_on_c, 0, 58, 0
2,25948, Note_on_c, 0, 54, 0
2,26041, Note_on_c, 0, 78, 72
2,26054, Note_on_c, 0, 75, 0
2,26158, Note_on_c, 0, 78, 0
2,26171, Note_on_c, 0, 56, 55
2,26174, Note_on_c, 0, 77, 70
2,26187, Note_on_c, 0, 59, 38
2,26205, Note_on_c, 0, 56, 0
2,26226, Note_on_c, 0, 59, 0
2,26289, Note_on_c, 0, 75, 81
2,26334, Note_on_c, 0, 77, 0
2,26395, Note_on_c, 0, 75, 0
2,26418, Note_on_c, 0, 74, 69
2,26443, Note_on_c, 0, 58, 39
2,26484, Note_on_c, 0, 58, 0
2,26507, Note_on_c, 0, 74, 0
2,26544, Note_on_c, 0, 77, 64
2,26655, Note_on_c, 0, 77, 0
2,26680, Note_on_c, 0, 70, 69
2,26690, Note_on_c, 0, 50, 50
2,26706, Note_on_c, 0, 46, 42
2,26725, Note_on_c, 0, 50, 0
2,26755, Note_on_c, 0, 46, 0
2,26775, Note_on_c, 0, 70, 0
2,26808, Note_on_c, 0, 68, 64
2,26914, Note_on_c, 0, 68, 0
2,26947, Note_on_c, 0, 66, 58
2,26956, Note_on_c, 0, 51, 44
2,26962, Note_on_c, 0, 39, 52
2,27057, Note_on_c, 0, 66, 0
2,27078, Note_on_c, 0, 65, 58
2,27181, Note_on_c, 0, 65, 0
2,27210, Note_on_c, 0, 63, 57
2,27268, Control_c, 0, 64, 18
2,27288, Control_c, 0, 64, 48
2,27307, Control_c, 0, 64, 58
2,27321, Note_on_c, 0, 63, 0
2,27326, Control_c, 0, 64, 62
2,27332, Note_on_c, 0, 62, 56
2,27345, Control_c, 0, 64, 63
2,27359, Note_on_c, 0, 39, 0
2,27365, Control_c, 0, 64, 64
2,27384, Control_c, 0, 64, 64
2,27416, Note_on_c, 0, 51, 0
2,27422, Control_c, 0, 64, 64
2,27427, Note_on_c, 0, 62, 0
2,27442, Control_c, 0, 64, 62
2,27460, Control_c, 0, 64, 55
2,27464, Note_on_c, 0, 63, 65
2,27480, Control_c, 0, 64, 42
2,27499, Control_c, 0, 64, 20
2,27519, Control_c, 0, 64, 0
2,27551, Note_on_c, 0, 63, 0
2,27604, Note_on_c, 0, 65, 34
2,27686, Note_on_c, 0, 65, 0
2,27728, Note_on_c, 0, 66, 61
2,27744, Note_on_c, 0, 51, 64
2,27781, Note_on_c, 0, 51, 0
2,27851, Note_on_c, 0, 66, 0
2,27873, Note_on_c, 0, 68, 59
2,28003, Note_on_c, 0, 68, 0
2,28015, Note_on_c, 0, 54, 71
2,28022, Note_on_c, 0, 70, 68
2,28104, Note_on_c, 0, 54, 0
2,28142, Note_on_c, 0, 53, 68
2,28147, Note_on_c, 0, 68, 75
2,28164, Note_on_c, 0, 70, 0
2,28243, Note_on_c, 0, 53, 0
2,28269, Note_on_c, 0, 68, 0
2,28271, Note_on_c, 0, 51, 67
2,28284, Note_on_c, 0, 66, 76
2,28396, Note_on_c, 0, 53, 73
2,28402, Note_on_c, 0, 68, 83
2,28405, Note_on_c, 0, 51, 0
2,28426, Note_on_c, 0, 66, 0
2,28492, Note_on_c, 0, 53, 0
2,28507, Note_on_c, 0, 68, 0
2,28536, Note_on_c, 0, 70, 80
2,28537, Note_on_c, 0, 61, 77
2,28576, Note_on_c, 0, 61, 0
2,28659, Note_on_c, 0, 68, 75
2,28719, Note_on_c, 0, 70, 0
2,28794, Note_on_c, 0, 66, 75
2,28798, Note_on_c, 0, 58, 71
2,28826, Note_on_c, 0, 68, 0
2,28828, Note_on_c, 0, 58, 0
2,28888, Note_on_c, 0, 66, 0
2,28925, Note_on_c, 0, 65, 69
2,29079, Note_on_c, 0, 53, 72
2,29079, Note_on_c, 0, 66, 76
2,29097, Note_on_c, 0, 65, 0
2,29363, Note_on_c, 0, 51, 69
2,29366, Note_on_c, 0, 53, 0
2,29480, Note_on_c, 0, 51, 0
2,29499, Note_on_c, 0, 49, 66
2,29626, Note_on_c, 0, 51, 66
2,29634, Note_on_c, 0, 49, 0
2,29662, Note_on_c, 0, 51, 0
2,29744, Note_on_c, 0, 66, 0
2,29754, Note_on_c, 0, 65, 62
2,29878, Note_on_c, 0, 65, 0
2,29886, Note_on_c, 0, 63, 67
2,29889, Note_on_c, 0, 60, 60
2,29926, Note_on_c, 0, 60, 0
2,30002, Note_on_c, 0, 63, 0
2,30006, Note_on_c, 0, 66, 70
2,30141, Note_on_c, 0, 49, 64
2,30146, Note_on_c, 0, 65, 67
2,30146, Note_on_c, 0, 66, 0
2,30181, Note_on_c, 0, 49, 0
2,30271, Note_on_c, 0, 65, 0
2,30279, Note_on_c, 0, 63, 65
2,30409, Note_on_c, 0, 58, 53
2,30410, Note_on_c, 0, 61, 63
2,30410, Note_on_c, 0, 63, 0
2,30447, Note_on_c, 0, 58, 0
2,30510, Note_on_c, 0, 61, 0
2,30531, Note_on_c, 0, 65, 66
2,30672, Note_on_c, 0, 63, 62
2,30687, Note_on_c, 0, 48, 48
2,30689, Note_on_c, 0, 65, 0
2,30729, Note_on_c, 0, 48, 0
2,30791, Note_on_c, 0, 63, 0
2,30796, Note_on_c, 0, 61, 63
2,30928, Note_on_c, 0, 61, 0
2,30940, Note_on_c, 0, 63, 60
2,30946, Note_on_c, 0, 57, 50
2,30978, Note_on_c, 0, 57, 0
2,31014, Note_on_c, 0, 63, 0
2,31057, Note_on_c, 0, 60, 56
2,31194, Note_on_c, 0, 60, 0
2,31202, Note_on_c, 0, 61, 56
2,31208, Note_on_c, 0, 46, 39
2,31243, Control_c, 0, 64, 38
2,31262, Control_c, 0, 64, 61
2,31268, Note_on_c, 0, 46, 0
2,31282, Control_c, 0, 64, 66
2,31300, Control_c, 0, 64, 72
2,31320, Control_c, 0, 64, 83
2,31336, Note_on_c, 0, 61, 0
2,31339, Control_c, 0, 64, 103
2,31344, Note_on_c, 0, 65, 54
2,31359, Control_c, 0, 64, 127
2,31479, Note_on_c, 0, 66, 60
2,31484, Note_on_c, 0, 58, 57
2,31486, Note_on_c, 0, 65, 0
2,31531, Control_c, 0, 64, 103
2,31550, Control_c, 0, 64, 90
2,31565, Note_on_c, 0, 66, 0
2,31569, Control_c, 0, 64, 79
2,31575, Note_on_c, 0, 58, 0
2,31588, Control_c, 0, 64, 70
2,31607, Note_on_c, 0, 57, 51
2,31608, Control_c, 0, 64, 64
2,31609, Note_on_c, 0, 65, 66
2,31627, Control_c, 0, 64, 58
2,31646, Control_c, 0, 64, 54
2,31665, Control_c, 0, 64, 51
2,31685, Control_c, 0, 64, 46
2,31704, Control_c, 0, 64, 36
2,31723, Control_c, 0, 64, 19
2,31725, Note_on_c, 0, 65, 0
2,31741, Note_on_c, 0, 58, 59
2,31742, Control_c, 0, 64, 0
2,31743, Note_on_c, 0, 73, 75
2,31752, Note_on_c, 0, 57, 0
2,31852, Note_on_c, 0, 58, 0
2,31861, Note_on_c, 0, 60, 65
2,31994, Note_on_c, 0, 60, 0
2,32004, Note_on_c, 0, 65, 60
2,32012, Note_on_c, 0, 61, 63
2,32040, Note_on_c, 0, 65, 0
2,32135, Note_on_c, 0, 58, 61
2,32140, Note_on_c, 0, 61, 0
2,32254, Note_on_c, 0, 58, 0
2,32256, Note_on_c, 0, 70, 75
2,32281, Note_on_c, 0, 55, 49
2,32346, Note_on_c, 0, 73, 0
2,32381, Note_on_c, 0, 72, 76
2,32410, Note_on_c, 0, 56, 67
2,32417, Note_on_c, 0, 55, 0
2,32419, Note_on_c, 0, 70, 0
2,32510, Note_on_c, 0, 73, 83
2,32537, Note_on_c, 0, 58, 68
2,32543, Note_on_c, 0, 56, 0
2,32547, Note_on_c, 0, 72, 0
2,32617, Note_on_c, 0, 73, 0
2,32623, Note_on_c, 0, 70, 87
2,32632, Note_on_c, 0, 58, 0
2,32655, Note_on_c, 0, 55, 65
2,32768, Note_on_c, 0, 82, 89
2,32778, Note_on_c, 0, 51, 54
2,32788, Note_on_c, 0, 55, 0
2,32817, Note_on_c, 0, 70, 0
2,32906, Note_on_c, 0, 53, 62
2,32906, Note_on_c, 0, 73, 80
2,32908, Note_on_c, 0, 51, 0
2,33009, Note_on_c, 0, 53, 0
2,33031, Note_on_c, 0, 75, 75
2,33048, Note_on_c, 0, 55, 56
2,33059, Note_on_c, 0, 73, 0
2,33123, Note_on_c, 0, 55, 0
2,33132, Note_on_c, 0, 82, 0
2,33160, Note_on_c, 0, 70, 72
2,33162, Note_on_c, 0, 51, 54
2,33237, Note_on_c, 0, 75, 0
2,33248, Note_on_c, 0, 70, 0
2,33292, Note_on_c, 0, 72, 67
2,33296, Control_c, 0, 64, 41
2,33298, Note_on_c, 0, 51, 0
2,33310, Note_on_c, 0, 44, 49
2,33316, Control_c, 0, 64, 65
2,33335, Control_c, 0, 64, 76
2,33347, Note_on_c, 0, 72, 0
2,33349, Note_on_c, 0, 44, 0
2,33354, Control_c, 0, 64, 105
2,33373, Control_c, 0, 64, 127
2,33431, Note_on_c, 0, 63, 60
2,33546, Note_on_c, 0, 63, 0
2,33577, Note_on_c, 0, 65, 61
2,33578, Note_on_c, 0, 56, 65
2,33584, Control_c, 0, 64, 106
2,33604, Control_c, 0, 64, 84
2,33623, Control_c, 0, 64, 70
2,33642, Control_c, 0, 64, 59
2,33661, Control_c, 0, 64, 0
2,33675, Note_on_c, 0, 65, 0
2,33679, Note_on_c, 0, 56, 0
2,33696, Note_on_c, 0, 63, 72
2,33701, Note_on_c, 0, 55, 57
2,33826, Note_on_c, 0, 63, 0
2,33838, Note_on_c, 0, 72, 78
2,33840, Note_on_c, 0, 56, 64
2,33846, Note_on_c, 0, 55, 0
2,33966, Note_on_c, 0, 58, 59
2,33969, Note_on_c, 0, 56, 0
2,34085, Note_on_c, 0, 58, 0
2,34115, Note_on_c, 0, 63, 64
2,34127, Note_on_c, 0, 60, 58
2,34154, Note_on_c, 0, 63, 0
2,34218, Note_on_c, 0, 60, 0
2,34245, Note_on_c, 0, 56, 65
2,34376, Note_on_c, 0, 56, 0
2,34382, Note_on_c, 0, 53, 53
2,34382, Note_on_c, 0, 68, 69
2,34429, Note_on_c, 0, 72, 0
2,34504, Note_on_c, 0, 70, 78
2,34511, Note_on_c, 0, 55, 62
2,34527, Note_on_c, 0, 53, 0
2,34539, Note_on_c, 0, 68, 0
2,34624, Note_on_c, 0, 55, 0
2,34630, Note_on_c, 0, 56, 69
2,34641, Note_on_c, 0, 72, 85
2,34666, Note_on_c, 0, 70, 0
2,34729, Note_on_c, 0, 72, 0
2,34745, Note_on_c, 0, 56, 0
2,34764, Note_on_c, 0, 53, 59
2,34764, Note_on_c, 0, 68, 85
2,34890, Note_on_c, 0, 49, 58
2,34902, Note_on_c, 0, 80, 84
2,34904, Note_on_c, 0, 53, 0
2,34960, Note_on_c, 0, 68, 0
2,35029, Note_on_c, 0, 72, 68
2,35032, Note_on_c, 0, 51, 59
2,35050, Note_on_c, 0, 49, 0
2,35150, Note_on_c, 0, 51, 0
2,35161, Note_on_c, 0, 73, 69
2,35173, Note_on_c, 0, 72, 0
2,35189, Note_on_c, 0, 53, 53
2,35230, Note_on_c, 0, 80, 0
2,35299, Note_on_c, 0, 68, 65
2,35302, Note_on_c, 0, 53, 0
2,35326, Note_on_c, 0, 49, 54
2,35380, Note_on_c, 0, 73, 0
2,35397, Note_on_c, 0, 68, 0
2,35406, Note_on_c, 0, 49, 0
2,35436, Note_on_c, 0, 43, 51
2,35443, Note_on_c, 0, 70, 68
2,35467, Control_c, 0, 64, 44
2,35486, Control_c, 0, 64, 60
2,35505, Control_c, 0, 64, 64
2,35525, Control_c, 0, 64, 68
2,35527, Note_on_c, 0, 70, 0
2,35544, Control_c, 0, 64, 74
2,35563, Control_c, 0, 64, 84
2,35577, Note_on_c, 0, 61, 69
2,35582, Control_c, 0, 64, 94
2,35600, Note_on_c, 0, 43, 0
2,35602, Control_c, 0, 64, 107
2,35620, Control_c, 0, 64, 127
2,35674, Note_on_c, 0, 61, 0
2,35679, Control_c, 0, 64, 115
2,35697, Control_c, 0, 64, 98
2,35717, Control_c, 0, 64, 84
2,35718, Note_on_c, 0, 63, 65
2,35733, Note_on_c, 0, 55, 56
2,35736, Control_c, 0, 64, 73
2,35755, Control_c, 0, 64, 64
2,35774, Control_c, 0, 64, 55
2,35793, Control_c, 0, 64, 41
2,35801, Note_on_c, 0, 63, 0
2,35802, Note_on_c, 0, 55, 0
2,35813, Control_c, 0, 64, 34
2,35827, Note_on_c, 0, 61, 66
2,35831, Control_c, 0, 64, 32
2,35851, Control_c, 0, 64, 28
2,35860, Note_on_c, 0, 53, 57
2,35870, Control_c, 0, 64, 13
2,35889, Control_c, 0, 64, 0
2,35964, Note_on_c, 0, 61, 0
2,35982, Note_on_c, 0, 70, 77
2,35993, Note_on_c, 0, 53, 0
2,35996, Note_on_c, 0, 55, 53
2,36111, Note_on_c, 0, 55, 0
2,36129, Note_on_c, 0, 56, 64
2,36247, Note_on_c, 0, 56, 0
2,36262, Note_on_c, 0, 58, 57
2,36266, Note_on_c, 0, 61, 62
2,36300, Note_on_c, 0, 61, 0
2,36362, Note_on_c, 0, 58, 0
2,36384, Note_on_c, 0, 55, 60
2,36526, Note_on_c, 0, 52, 51
2,36530, Note_on_c, 0, 55, 0
2,36547, Note_on_c, 0, 67, 59
2,36593, Note_on_c, 0, 70, 0
2,36647, Note_on_c, 0, 53, 62
2,36665, Note_on_c, 0, 52, 0
2,36667, Note_on_c, 0, 68, 79
2,36713, Note_on_c, 0, 67, 0
2,36750, Note_on_c, 0, 53, 0
2,36786, Note_on_c, 0, 55, 64
2,36798, Note_on_c, 0, 70, 74
2,36827, Note_on_c, 0, 68, 0
2,36890, Note_on_c, 0, 70, 0
2,36893, Note_on_c, 0, 55, 0
2,36917, Note_on_c, 0, 52, 63
2,36923, Note_on_c, 0, 67, 62
2,37015, Note_on_c, 0, 52, 0
2,37057, Note_on_c, 0, 67, 0
2,37062, Note_on_c, 0, 79, 79
2,37063, Note_on_c, 0, 48, 50
2,37156, Note_on_c, 0, 48, 0
2,37189, Note_on_c, 0, 70, 74
2,37199, Note_on_c, 0, 50, 58
2,37270, Note_on_c, 0, 50, 0
2,37318, Note_on_c, 0, 72, 65
2,37327, Note_on_c, 0, 70, 0
2,37333, Note_on_c, 0, 52, 56
2,37389, Note_on_c, 0, 72, 0
2,37418, Note_on_c, 0, 52, 0
2,37439, Note_on_c, 0, 48, 52
2,37465, Note_on_c, 0, 67, 57
2,37492, Note_on_c, 0, 79, 0
2,37509, Note_on_c, 0, 48, 0
2,37583, Note_on_c, 0, 68, 68
2,37584, Note_on_c, 0, 67, 0
2,37590, Note_on_c, 0, 41, 43
2,37720, Note_on_c, 0, 76, 64
2,37725, Note_on_c, 0, 43, 61
2,37739, Note_on_c, 0, 41, 0
2,37771, Control_c, 0, 64, 9
2,37790, Control_c, 0, 64, 11
2,37799, Note_on_c, 0, 68, 0
2,37826, Control_c, 0, 64, 13
2,37841, Note_on_c, 0, 44, 65
2,37846, Note_on_c, 0, 77, 77
2,37848, Note_on_c, 0, 43, 0
2,37865, Control_c, 0, 64, 15
2,37884, Control_c, 0, 64, 17
2,37897, Note_on_c, 0, 76, 0
2,37903, Control_c, 0, 64, 18
2,37923, Control_c, 0, 64, 19
2,37942, Control_c, 0, 64, 21
2,37961, Control_c, 0, 64, 22
2,37966, Note_on_c, 0, 73, 81
2,37974, Note_on_c, 0, 77, 0
2,37975, Note_on_c, 0, 46, 75
2,38000, Control_c, 0, 64, 23
2,38008, Note_on_c, 0, 44, 0
2,38090, Note_on_c, 0, 46, 0
2,38095, Control_c, 0, 64, 24
2,38113, Note_on_c, 0, 70, 85
2,38125, Note_on_c, 0, 48, 71
2,38129, Note_on_c, 0, 73, 0
2,38134, Control_c, 0, 64, 25
2,38191, Control_c, 0, 64, 26
2,38222, Note_on_c, 0, 50, 80
2,38238, Note_on_c, 0, 48, 0
2,38373, Note_on_c, 0, 52, 71
2,38375, Note_on_c, 0, 60, 73
2,38379, Note_on_c, 0, 50, 0
2,38413, Note_on_c, 0, 60, 0
2,38486, Note_on_c, 0, 52, 0
2,38504, Note_on_c, 0, 48, 72
2,38619, Note_on_c, 0, 48, 0
2,38646, Note_on_c, 0, 61, 75
2,38649, Note_on_c, 0, 53, 68
2,38652, Control_c, 0, 64, 25
2,38766, Note_on_c, 0, 61, 0
2,38780, Note_on_c, 0, 60, 77
2,38785, Note_on_c, 0, 51, 70
2,38793, Note_on_c, 0, 53, 0
2,38833, Note_on_c, 0, 70, 0
2,38897, Note_on_c, 0, 51, 0
2,38916, Note_on_c, 0, 58, 80
2,38917, Note_on_c, 0, 49, 66
2,38920, Note_on_c, 0, 60, 0
2,39009, Note_on_c, 0, 58, 0
2,39035, Note_on_c, 0, 51, 72
2,39035, Note_on_c, 0, 60, 75
2,39084, Note_on_c, 0, 49, 0
2,39155, Note_on_c, 0, 60, 0
2,39157, Note_on_c, 0, 51, 0
2,39176, Note_on_c, 0, 68, 84
2,39178, Note_on_c, 0, 53, 74
2,39211, Control_c, 0, 64, 24
2,39288, Control_c, 0, 64, 23
2,39302, Note_on_c, 0, 51, 69
2,39302, Note_on_c, 0, 53, 0
2,39437, Note_on_c, 0, 65, 68
2,39449, Note_on_c, 0, 49, 71
2,39460, Control_c, 0, 64, 22
2,39476, Note_on_c, 0, 51, 0
2,39476, Note_on_c, 0, 65, 0
2,39575, Note_on_c, 0, 49, 0
2,39579, Note_on_c, 0, 48, 68
2,39725, Note_on_c, 0, 48, 0
2,39738, Note_on_c, 0, 49, 81
2,39740, Note_on_c, 0, 60, 74
2,39748, Control_c, 0, 64, 21
2,39768, Control_c, 0, 64, 20
2,39787, Control_c, 0, 64, 11
2,39806, Control_c, 0, 64, 0
2,39940, Control_c, 0, 64, 18
2,39960, Control_c, 0, 64, 44
2,39979, Control_c, 0, 64, 57
2,39999, Control_c, 0, 64, 62
2,40017, Control_c, 0, 64, 62
2,40020, Note_on_c, 0, 60, 0
2,40037, Control_c, 0, 64, 61
2,40047, Note_on_c, 0, 58, 65
2,40056, Control_c, 0, 64, 60
2,40061, Note_on_c, 0, 68, 0
2,40075, Control_c, 0, 64, 58
2,40094, Control_c, 0, 64, 56
2,40113, Control_c, 0, 64, 55
2,40134, Note_on_c, 0, 58, 0
2,40151, Control_c, 0, 64, 54
2,40169, Note_on_c, 0, 56, 73
2,40171, Control_c, 0, 64, 53
2,40190, Control_c, 0, 64, 52
2,40209, Control_c, 0, 64, 51
2,40228, Control_c, 0, 64, 50
2,40246, Note_on_c, 0, 56, 0
2,40248, Control_c, 0, 64, 48
2,40267, Control_c, 0, 64, 44
2,40286, Control_c, 0, 64, 38
2,40303, Note_on_c, 0, 58, 67
2,40305, Control_c, 0, 64, 33
2,40305, Note_on_c, 0, 67, 81
2,40325, Control_c, 0, 64, 29
2,40333, Note_on_c, 0, 67, 0
2,40335, Note_on_c, 0, 58, 0
2,40344, Control_c, 0, 64, 27
2,40363, Control_c, 0, 64, 24
2,40382, Control_c, 0, 64, 23
2,40389, Note_on_c, 0, 49, 0
2,40402, Control_c, 0, 64, 22
2,40423, Note_on_c, 0, 48, 63
2,40497, Control_c, 0, 64, 21
2,40539, Note_on_c, 0, 48, 0
2,40561, Note_on_c, 0, 67, 86
2,40562, Note_on_c, 0, 46, 65
2,40574, Control_c, 0, 64, 20
2,40588, Note_on_c, 0, 67, 0
2,40593, Control_c, 0, 64, 17
2,40616, Control_c, 0, 64, 9
2,40703, Note_on_c, 0, 49, 73
2,40707, Control_c, 0, 64, 0
2,40743, Note_on_c, 0, 46, 0
2,40807, Note_on_c, 0, 49, 0
2,40826, Note_on_c, 0, 56, 90
2,40833, Note_on_c, 0, 48, 67
2,40877, Note_on_c, 0, 56, 0
2,40957, Note_on_c, 0, 48, 0
2,40960, Note_on_c, 0, 46, 71
2,41077, Note_on_c, 0, 46, 0
2,41100, Note_on_c, 0, 44, 60
2,41106, Note_on_c, 0, 65, 82
2,41141, Note_on_c, 0, 65, 0
2,41188, Note_on_c, 0, 44, 0
2,41225, Note_on_c, 0, 48, 69
2,41337, Note_on_c, 0, 48, 0
2,41364, Note_on_c, 0, 46, 63
2,41372, Note_on_c, 0, 55, 75
2,41375, Note_on_c, 0, 64, 70
2,41406, Note_on_c, 0, 55, 0
2,41417, Note_on_c, 0, 64, 0
2,41476, Note_on_c, 0, 46, 0
2,41495, Note_on_c, 0, 44, 63
2,41631, Control_c, 0, 64, 9
2,41642, Note_on_c, 0, 46, 64
2,41645, Note_on_c, 0, 67, 66
2,41651, Note_on_c, 0, 44, 0
2,41658, Note_on_c, 0, 64, 40
2,41687, Note_on_c, 0, 67, 0
2,41691, Note_on_c, 0, 64, 0
2,41708, Control_c, 0, 64, 11
2,41716, Note_on_c, 0, 46, 0
2,41767, Note_on_c, 0, 43, 61
2,41919, Note_on_c, 0, 43, 0
2,41925, Note_on_c, 0, 72, 70
2,41937, Note_on_c, 0, 44, 50
2,41964, Note_on_c, 0, 53, 28
2,41997, Note_on_c, 0, 44, 0
2,42058, Note_on_c, 0, 70, 78
2,42076, Note_on_c, 0, 72, 0
2,42200, Note_on_c, 0, 68, 79
2,42217, Note_on_c, 0, 48, 58
2,42226, Control_c, 0, 64, 13
2,42240, Note_on_c, 0, 70, 0
2,42258, Note_on_c, 0, 48, 0
2,42328, Note_on_c, 0, 72, 84
2,42333, Note_on_c, 0, 68, 0
2,42473, Note_on_c, 0, 43, 52
2,42474, Note_on_c, 0, 70, 79
2,42485, Note_on_c, 0, 72, 0
2,42511, Note_on_c, 0, 43, 0
2,42600, Note_on_c, 0, 68, 75
2,42619, Note_on_c, 0, 70, 0
2,42688, Note_on_c, 0, 68, 0
2,42729, Note_on_c, 0, 48, 49
2,42734, Note_on_c, 0, 52, 46
2,42735, Note_on_c, 0, 67, 61
2,42750, Note_on_c, 0, 53, 0
2,42774, Note_on_c, 0, 48, 0
2,42775, Note_on_c, 0, 52, 0
2,42841, Note_on_c, 0, 67, 0
2,42863, Note_on_c, 0, 70, 68
2,43006, Note_on_c, 0, 41, 46
2,43012, Note_on_c, 0, 68, 66
2,43031, Note_on_c, 0, 53, 23
2,43044, Note_on_c, 0, 70, 0
2,43045, Note_on_c, 0, 41, 0
2,43081, Note_on_c, 0, 53, 0
2,43082, Note_on_c, 0, 68, 0
2,43136, Note_on_c, 0, 65, 62
2,43214, Note_on_c, 0, 65, 0
2,43256, Note_on_c, 0, 52, 60
2,43264, Note_on_c, 0, 46, 55
2,43268, Note_on_c, 0, 73, 73
2,43299, Note_on_c, 0, 46, 0
2,43299, Note_on_c, 0, 52, 0
2,43356, Note_on_c, 0, 73, 0
2,43389, Note_on_c, 0, 70, 78
2,43472, Note_on_c, 0, 70, 0
2,43522, Note_on_c, 0, 72, 86
2,43527, Note_on_c, 0, 53, 78
2,43536, Note_on_c, 0, 44, 68
2,43558, Note_on_c, 0, 53, 0
2,43573, Note_on_c, 0, 44, 0
2,43628, Note_on_c, 0, 72, 0
2,43656, Note_on_c, 0, 68, 79
2,43664, Control_c, 0, 64, 11
2,43703, Control_c, 0, 64, 0
2,43736, Note_on_c, 0, 68, 0
2,43794, Note_on_c, 0, 78, 83
2,43798, Note_on_c, 0, 58, 77
2,43801, Note_on_c, 0, 49, 69
2,43828, Note_on_c, 0, 58, 0
2,43842, Note_on_c, 0, 49, 0
2,43913, Note_on_c, 0, 78, 0
2,43918, Note_on_c, 0, 76, 83
2,43983, Note_on_c, 0, 76, 0
2,44069, Note_on_c, 0, 48, 44
2,44069, Note_on_c, 0, 76, 76
2,44081, Note_on_c, 0, 56, 59
2,44198, Note_on_c, 0, 77, 82
2,44209, Note_on_c, 0, 76, 0
2,44308, Note_on_c, 0, 56, 0
2,44320, Note_on_c, 0, 77, 0
2,44323, Note_on_c, 0, 55, 52
2,44335, Note_on_c, 0, 83, 77
2,44397, Control_c, 0, 64, 36
2,44416, Control_c, 0, 64, 62
2,44423, Note_on_c, 0, 55, 0
2,44435, Control_c, 0, 64, 68
2,44451, Note_on_c, 0, 53, 47
2,44457, Control_c, 0, 64, 81
2,44457, Note_on_c, 0, 84, 71
2,44462, Note_on_c, 0, 83, 0
2,44476, Control_c, 0, 64, 127
2,44493, Note_on_c, 0, 84, 0
2,44592, Note_on_c, 0, 55, 53
2,44611, Note_on_c, 0, 77, 66
2,44630, Control_c, 0, 64, 92
2,44646, Note_on_c, 0, 77, 0
2,44650, Control_c, 0, 64, 76
2,44657, Note_on_c, 0, 76, 70
2,44668, Control_c, 0, 64, 66
2,44688, Control_c, 0, 64, 52
2,44697, Note_on_c, 0, 76, 0
2,44707, Control_c, 0, 64, 0
2,44714, Note_on_c, 0, 77, 77
2,44716, Note_on_c, 0, 53, 0
2,44746, Note_on_c, 0, 77, 0
2,44763, Note_on_c, 0, 76, 78
2,44854, Note_on_c, 0, 48, 0
2,44886, Note_on_c, 0, 55, 0
2,44909, Note_on_c, 0, 58, 58
2,45040, Note_on_c, 0, 77, 71
2,45045, Note_on_c, 0, 76, 0
2,45081, Note_on_c, 0, 77, 0
2,45142, Note_on_c, 0, 58, 0
2,45163, Note_on_c, 0, 56, 51
2,45185, Note_on_c, 0, 77, 66
2,45197, Note_on_c, 0, 53, 42
2,45299, Note_on_c, 0, 58, 55
2,45311, Note_on_c, 0, 53, 0
2,45342, Note_on_c, 0, 56, 0
2,45420, Note_on_c, 0, 58, 0
2,45448, Note_on_c, 0, 60, 57
2,45465, Note_on_c, 0, 77, 0
2,45531, Note_on_c, 0, 60, 0
2,45599, Note_on_c, 0, 56, 44
2,45665, Note_on_c, 0, 56, 0
2,45737, Note_on_c, 0, 53, 41
2,45853, Note_on_c, 0, 53, 0
2,45858, Note_on_c, 0, 54, 64
2,45941, Note_on_c, 0, 54, 0
2,45987, Note_on_c, 0, 77, 73
2,45992, Note_on_c, 0, 56, 60
2,46018, Note_on_c, 0, 77, 0
2,46078, Note_on_c, 0, 56, 0
2,46105, Note_on_c, 0, 53, 68
2,46228, Note_on_c, 0, 53, 0
2,46251, Note_on_c, 0, 50, 47
2,46258, Note_on_c, 0, 71, 61
2,46361, Note_on_c, 0, 50, 0
2,46372, Note_on_c, 0, 51, 57
2,46383, Note_on_c, 0, 70, 65
2,46396, Note_on_c, 0, 71, 0
2,46463, Note_on_c, 0, 51, 0
2,46466, Note_on_c, 0, 70, 0
2,46506, Note_on_c, 0, 53, 66
2,46512, Note_on_c, 0, 68, 74
2,46594, Note_on_c, 0, 53, 0
2,46608, Note_on_c, 0, 68, 0
2,46645, Note_on_c, 0, 70, 68
2,46656, Note_on_c, 0, 49, 39
2,46734, Note_on_c, 0, 70, 0
2,46761, Note_on_c, 0, 49, 0
2,46772, Note_on_c, 0, 77, 76
2,46817, Note_on_c, 0, 77, 0
2,46823, Note_on_c, 0, 46, 57
2,46932, Note_on_c, 0, 50, 62
2,46957, Note_on_c, 0, 46, 0
2,47045, Note_on_c, 0, 74, 65
2,47059, Note_on_c, 0, 53, 66
2,47060, Note_on_c, 0, 50, 0
2,47081, Note_on_c, 0, 74, 0
2,47155, Note_on_c, 0, 53, 0
2,47190, Note_on_c, 0, 58, 59
2,47307, Note_on_c, 0, 58, 0
2,47325, Note_on_c, 0, 51, 45
2,47335, Note_on_c, 0, 68, 72
2,47428, Note_on_c, 0, 51, 0
2,47437, Note_on_c, 0, 54, 66
2,47570, Note_on_c, 0, 58, 61
2,47584, Note_on_c, 0, 54, 0
2,47604, Note_on_c, 0, 66, 76
2,47628, Note_on_c, 0, 68, 0
2,47659, Note_on_c, 0, 58, 0
2,47691, Note_on_c, 0, 66, 0
2,47717, Note_on_c, 0, 62, 55
2,47725, Note_on_c, 0, 65, 66
2,47794, Note_on_c, 0, 62, 0
2,47827, Note_on_c, 0, 65, 0
2,47862, Note_on_c, 0, 66, 65
2,47874, Note_on_c, 0, 63, 49
2,47895, Note_on_c, 0, 66, 0
2,47953, Note_on_c, 0, 63, 0
2,47992, Note_on_c, 0, 65, 57
2,48116, Note_on_c, 0, 65, 0
2,48126, Note_on_c, 0, 75, 73
2,48137, Note_on_c, 0, 66, 61
2,48158, Note_on_c, 0, 75, 0
2,48264, Note_on_c, 0, 63, 62
2,48267, Note_on_c, 0, 66, 0
2,48363, Note_on_c, 0, 63, 0
2,48383, Note_on_c, 0, 69, 79
2,48392, Note_on_c, 0, 60, 55
2,48511, Note_on_c, 0, 68, 69
2,48518, Note_on_c, 0, 61, 63
2,48519, Note_on_c, 0, 60, 0
2,48528, Note_on_c, 0, 69, 0
2,48638, Note_on_c, 0, 68, 0
2,48641, Note_on_c, 0, 61, 0
2,48642, Note_on_c, 0, 63, 66
2,48642, Note_on_c, 0, 66, 74
2,48697, Control_c, 0, 64, 47
2,48716, Control_c, 0, 64, 63
2,48735, Control_c, 0, 64, 69
2,48754, Control_c, 0, 64, 78
2,48756, Note_on_c, 0, 66, 0
2,48764, Note_on_c, 0, 63, 0
2,48771, Note_on_c, 0, 68, 83
2,48774, Control_c, 0, 64, 95
2,48781, Note_on_c, 0, 60, 51
2,48792, Control_c, 0, 64, 127
2,48815, Note_on_c, 0, 60, 0
2,48842, Note_on_c, 0, 68, 0
2,48869, Control_c, 0, 64, 107
2,48889, Control_c, 0, 64, 78
2,48894, Note_on_c, 0, 75, 84
2,48907, Note_on_c, 0, 56, 68
2,48908, Control_c, 0, 64, 63
2,48924, Note_on_c, 0, 75, 0
2,48926, Control_c, 0, 64, 0
2,49024, Note_on_c, 0, 44, 52
2,49159, Note_on_c, 0, 72, 73
2,49164, Note_on_c, 0, 46, 55
2,49196, Note_on_c, 0, 72, 0
2,49237, Note_on_c, 0, 56, 0
2,49242, Note_on_c, 0, 44, 0
2,49293, Note_on_c, 0, 48, 61
2,49310, Note_on_c, 0, 46, 0
2,49434, Note_on_c, 0, 66, 60
2,49439, Note_on_c, 0, 48, 0
2,49443, Note_on_c, 0, 49, 66
2,49550, Note_on_c, 0, 49, 0
2,49573, Note_on_c, 0, 56, 67
2,49645, Note_on_c, 0, 66, 0
2,49678, Note_on_c, 0, 65, 59
2,49696, Note_on_c, 0, 56, 0
2,49712, Note_on_c, 0, 58, 65
2,49817, Note_on_c, 0, 58, 0
2,49819, Note_on_c, 0, 63, 76
2,49824, Note_on_c, 0, 65, 0
2,49830, Note_on_c, 0, 60, 69
2,49905, Note_on_c, 0, 63, 0
2,49952, Note_on_c, 0, 65, 70
2,49955, Note_on_c, 0, 61, 70
2,49960, Note_on_c, 0, 60, 0
2,50064, Note_on_c, 0, 61, 0
2,50070, Note_on_c, 0, 65, 0
2,50074, Note_on_c, 0, 68, 77
2,50081, Note_on_c, 0, 51, 65
2,50201, Note_on_c, 0, 68, 0
2,50203, Note_on_c, 0, 51, 0
2,50215, Note_on_c, 0, 73, 80
2,50217, Note_on_c, 0, 53, 69
2,50328, Note_on_c, 0, 73, 0
2,50342, Note_on_c, 0, 75, 88
2,50346, Note_on_c, 0, 55, 74
2,50364, Note_on_c, 0, 53, 0
2,50469, Note_on_c, 0, 56, 80
2,50472, Note_on_c, 0, 77, 89
2,50473, Note_on_c, 0, 55, 0
2,50487, Note_on_c, 0, 75, 0
2,50599, Note_on_c, 0, 75, 88
2,50603, Note_on_c, 0, 55, 79
2,50621, Note_on_c, 0, 56, 0
2,50621, Note_on_c, 0, 77, 0
2,50724, Note_on_c, 0, 55, 0
2,50724, Note_on_c, 0, 73, 92
2,50728, Note_on_c, 0, 53, 70
2,50741, Note_on_c, 0, 75, 0
2,50755, Control_c, 0, 64, 48
2,50775, Control_c, 0, 64, 64
2,50794, Control_c, 0, 64, 70
2,50814, Control_c, 0, 64, 76
2,50832, Control_c, 0, 64, 83
2,50848, Note_on_c, 0, 55, 80
2,50848, Note_on_c, 0, 75, 95
2,50852, Control_c, 0, 64, 88
2,50871, Control_c, 0, 64, 91
2,50874, Note_on_c, 0, 53, 0
2,50890, Control_c, 0, 64, 93
2,50901, Note_on_c, 0, 73, 0
2,50909, Control_c, 0, 64, 93
2,50917, Note_on_c, 0, 75, 0
2,50929, Control_c, 0, 64, 87
2,50948, Control_c, 0, 64, 74
2,50967, Control_c, 0, 64, 61
2,50979, Note_on_c, 0, 55, 0
2,50980, Note_on_c, 0, 56, 83
2,50983, Note_on_c, 0, 72, 87
2,50984, Note_on_c, 0, 84, 94
2,50986, Control_c, 0, 64, 0
2,51034, Note_on_c, 0, 84, 0
2,51073, Note_on_c, 0, 56, 0
2,51106, Note_on_c, 0, 55, 77
2,51246, Note_on_c, 0, 80, 89
2,51252, Note_on_c, 0, 53, 77
2,51265, Note_on_c, 0, 55, 0
2,51271, Note_on_c, 0, 80, 0
2,51307, Note_on_c, 0, 72, 0
2,51364, Note_on_c, 0, 51, 73
2,51369, Note_on_c, 0, 53, 0
2,51510, Note_on_c, 0, 53, 84
2,51519, Note_on_c, 0, 75, 93
2,51575, Note_on_c, 0, 51, 0
2,51804, Control_c, 0, 64, 11
2,51823, Control_c, 0, 64, 58
2,51824, Note_on_c, 0, 73, 84
2,51843, Control_c, 0, 64, 66
2,51862, Control_c, 0, 64, 71
2,51880, Note_on_c, 0, 75, 0
2,51881, Control_c, 0, 64, 76
2,51900, Control_c, 0, 64, 80
2,51920, Control_c, 0, 64, 81
2,51921, Note_on_c, 0, 73, 0
2,51939, Control_c, 0, 64, 80
2,51943, Note_on_c, 0, 72, 87
2,51958, Control_c, 0, 64, 78
2,51977, Control_c, 0, 64, 74
2,51996, Control_c, 0, 64, 70
2,52015, Control_c, 0, 64, 65
2,52034, Control_c, 0, 64, 59
2,52054, Control_c, 0, 64, 32
2,52073, Control_c, 0, 64, 0
2,52086, Note_on_c, 0, 70, 78
2,52087, Note_on_c, 0, 73, 76
2,52091, Note_on_c, 0, 72, 0
2,52158, Note_on_c, 0, 73, 0
2,52224, Note_on_c, 0, 51, 68
2,52254, Note_on_c, 0, 53, 0
2,52356, Note_on_c, 0, 49, 70
2,52356, Note_on_c, 0, 82, 85
2,52370, Note_on_c, 0, 51, 0
2,52399, Note_on_c, 0, 82, 0
2,52449, Note_on_c, 0, 49, 0
2,52491, Note_on_c, 0, 53, 72
2,52618, Note_on_c, 0, 72, 79
2,52620, Note_on_c, 0, 51, 70
2,52621, Note_on_c, 0, 53, 0
2,52622, Note_on_c, 0, 70, 0
2,52649, Note_on_c, 0, 72, 0
2,52748, Note_on_c, 0, 51, 0
2,52758, Note_on_c, 0, 49, 68
2,52884, Note_on_c, 0, 48, 62
2,52884, Note_on_c, 0, 49, 0
2,52885, Note_on_c, 0, 80, 81
2,52893, Note_on_c, 0, 68, 77
2,52914, Note_on_c, 0, 80, 0
2,52924, Note_on_c, 0, 68, 0
2,53000, Note_on_c, 0, 48, 0
2,53021, Note_on_c, 0, 51, 64
2,53143, Note_on_c, 0, 67, 66
2,53151, Note_on_c, 0, 51, 0
2,53151, Note_on_c, 0, 70, 67
2,53152, Note_on_c, 0, 49, 66
2,53180, Note_on_c, 0, 67, 0
2,53183, Note_on_c, 0, 70, 0
2,53262, Note_on_c, 0, 49, 0
2,53270, Note_on_c, 0, 48, 58
2,53396, Note_on_c, 0, 48, 0
2,53408, Note_on_c, 0, 46, 63
2,53426, Note_on_c, 0, 70, 65
2,53461, Note_on_c, 0, 70, 0
2,53560, Note_on_c, 0, 49, 58
2,53565, Note_on_c, 0, 46, 0
2,53683, Note_on_c, 0, 68, 58
2,53685, Note_on_c, 0, 48, 52
2,53687, Note_on_c, 0, 63, 54
2,53694, Note_on_c, 0, 49, 0
2,53724, Note_on_c, 0, 48, 0
2,53724, Note_on_c, 0, 63, 0
2,53824, Note_on_c, 0, 63, 60
2,53867, Note_on_c, 0, 68, 0
2,53890, Note_on_c, 0, 63, 0
2,53934, Note_on_c, 0, 51, 60
2,53939, Note_on_c, 0, 65, 63
2,53972, Note_on_c, 0, 51, 0
2,54028, Note_on_c, 0, 65, 0
2,54069, Note_on_c, 0, 67, 61
2,54206, Note_on_c, 0, 67, 0
2,54210, Note_on_c, 0, 54, 67
2,54214, Note_on_c, 0, 68, 60
2,54339, Note_on_c, 0, 70, 58
2,54349, Note_on_c, 0, 68, 0
2,54474, Note_on_c, 0, 56, 76
2,54487, Note_on_c, 0, 72, 65
2,54503, Note_on_c, 0, 70, 0
2,54514, Note_on_c, 0, 56, 0
2,54579, Note_on_c, 0, 72, 0
2,54616, Note_on_c, 0, 68, 71
2,54732, Note_on_c, 0, 68, 0
2,54762, Note_on_c, 0, 73, 64
2,54763, Note_on_c, 0, 58, 70
2,54896, Note_on_c, 0, 56, 82
2,54896, Note_on_c, 0, 72, 73
2,54902, Note_on_c, 0, 73, 0
2,54903, Note_on_c, 0, 54, 0
2,54957, Note_on_c, 0, 58, 0
2,55023, Note_on_c, 0, 70, 84
2,55029, Note_on_c, 0, 54, 81
2,55029, Note_on_c, 0, 72, 0
2,55032, Note_on_c, 0, 56, 0
2,55144, Note_on_c, 0, 70, 0
2,55149, Note_on_c, 0, 72, 89
2,55151, Note_on_c, 0, 56, 77
2,55171, Note_on_c, 0, 54, 0
2,55278, Note_on_c, 0, 65, 74
2,55279, Note_on_c, 0, 53, 73
2,55285, Note_on_c, 0, 73, 85
2,55292, Note_on_c, 0, 72, 0
2,55303, Note_on_c, 0, 56, 0
2,55315, Note_on_c, 0, 65, 0
2,55387, Note_on_c, 0, 73, 0
2,55411, Note_on_c, 0, 72, 77
2,55560, Note_on_c, 0, 61, 62
2,55567, Note_on_c, 0, 70, 81
2,55575, Note_on_c, 0, 72, 0
2,55593, Note_on_c, 0, 61, 0
2,55692, Note_on_c, 0, 68, 76
2,55703, Note_on_c, 0, 70, 0
2,55829, Note_on_c, 0, 56, 70
2,55839, Note_on_c, 0, 70, 81
2,55842, Note_on_c, 0, 68, 0
2,55935, Note_on_c, 0, 53, 0
2,56130, Note_on_c, 0, 54, 71
2,56187, Note_on_c, 0, 56, 0
2,56251, Note_on_c, 0, 53, 69
2,56251, Note_on_c, 0, 54, 0
2,56391, Note_on_c, 0, 54, 62
2,56393, Note_on_c, 0, 53, 0
2,56401, Note_on_c, 0, 51, 54
2,56436, Note_on_c, 0, 54, 0
2,56503, Note_on_c, 0, 68, 64
2,56590, Note_on_c, 0, 70, 0
2,56631, Note_on_c, 0, 68, 0
2,56643, Note_on_c, 0, 66, 65
2,56657, Note_on_c, 0, 63, 57
2,56686, Note_on_c, 0, 63, 0
2,56772, Note_on_c, 0, 70, 67
2,56781, Note_on_c, 0, 66, 0
2,56911, Note_on_c, 0, 53, 50
2,56915, Note_on_c, 0, 70, 0
2,56920, Note_on_c, 0, 68, 68
2,56946, Note_on_c, 0, 53, 0
2,57055, Note_on_c, 0, 66, 60
2,57076, Note_on_c, 0, 68, 0
2,57143, Note_on_c, 0, 66, 0
2,57161, Note_on_c, 0, 51, 0
2,57166, Note_on_c, 0, 49, 58
2,57177, Note_on_c, 0, 61, 45
2,57187, Note_on_c, 0, 65, 58
2,57212, Note_on_c, 0, 49, 0
2,57214, Note_on_c, 0, 61, 0
2,57286, Note_on_c, 0, 65, 0
2,57319, Note_on_c, 0, 68, 65
2,57440, Note_on_c, 0, 51, 57
2,57444, Note_on_c, 0, 68, 0
2,57457, Note_on_c, 0, 66, 65
2,57481, Note_on_c, 0, 51, 0
2,57567, Note_on_c, 0, 66, 0
2,57585, Note_on_c, 0, 65, 57
2,57691, Note_on_c, 0, 65, 0
2,57712, Note_on_c, 0, 63, 65
2,57715, Note_on_c, 0, 44, 52
2,57760, Note_on_c, 0, 60, 41
2,57762, Note_on_c, 0, 44, 0
2,57803, Note_on_c, 0, 60, 0
2,57851, Note_on_c, 0, 66, 61
2,57852, Note_on_c, 0, 63, 0
2,57932, Note_on_c, 0, 66, 0
2,57997, Note_on_c, 0, 49, 47
2,57997, Note_on_c, 0, 61, 53
2,58005, Note_on_c, 0, 65, 42
2,58034, Note_on_c, 0, 61, 0
2,58038, Note_on_c, 0, 65, 0
2,58128, Note_on_c, 0, 51, 57
2,58155, Note_on_c, 0, 49, 0
2,58238, Note_on_c, 0, 51, 0
2,58257, Note_on_c, 0, 68, 77
2,58261, Note_on_c, 0, 53, 62
2,58284, Note_on_c, 0, 68, 0
2,58389, Note_on_c, 0, 53, 0
2,58392, Note_on_c, 0, 54, 69
2,58499, Note_on_c, 0, 54, 0
2,58528, Note_on_c, 0, 73, 77
2,58535, Note_on_c, 0, 53, 62
2,58658, Note_on_c, 0, 51, 71
2,58662, Note_on_c, 0, 53, 0
2,58782, Note_on_c, 0, 51, 0
2,58791, Note_on_c, 0, 49, 71
2,58799, Note_on_c, 0, 80, 83
2,58820, Note_on_c, 0, 73, 0
2,58917, Note_on_c, 0, 53, 71
2,58919, Note_on_c, 0, 77, 84
2,58925, Note_on_c, 0, 49, 0
2,58955, Note_on_c, 0, 80, 0
2,59017, Note_on_c, 0, 53, 0
2,59056, Note_on_c, 0, 58, 72
2,59059, Note_on_c, 0, 73, 84
2,59077, Note_on_c, 0, 77, 0
2,59174, Note_on_c, 0, 56, 76
2,59174, Note_on_c, 0, 58, 0
2,59304, Note_on_c, 0, 55, 75
2,59322, Note_on_c, 0, 76, 82
2,59340, Note_on_c, 0, 73, 0
2,59381, Note_on_c, 0, 56, 0
2,59436, Note_on_c, 0, 58, 78
2,59454, Note_on_c, 0, 73, 89
2,59466, Note_on_c, 0, 76, 0
2,59469, Note_on_c, 0, 55, 0
2,59574, Note_on_c, 0, 58, 0
2,59582, Note_on_c, 0, 61, 81
2,59582, Note_on_c, 0, 70, 91
2,59635, Note_on_c, 0, 73, 0
2,59710, Note_on_c, 0, 59, 81
2,59716, Note_on_c, 0, 61, 0
2,59835, Note_on_c, 0, 58, 79
2,59837, Note_on_c, 0, 59, 0
2,59851, Note_on_c, 0, 73, 85
2,59885, Note_on_c, 0, 70, 0
2,59973, Note_on_c, 0, 61, 76
2,59977, Note_on_c, 0, 70, 92
2,60013, Note_on_c, 0, 58, 0
2,60033, Note_on_c, 0, 73, 0
2,60117, Note_on_c, 0, 64, 74
2,60124, Note_on_c, 0, 67, 81
2,60168, Note_on_c, 0, 61, 0
2,60180, Note_on_c, 0, 70, 0
2,60312, Control_c, 0, 64, 49
2,60332, Control_c, 0, 64, 63
2,60351, Control_c, 0, 64, 69
2,60371, Control_c, 0, 64, 81
2,60389, Control_c, 0, 64, 102
2,60408, Control_c, 0, 64, 127
2,60424, Note_on_c, 0, 70, 89
2,60426, Note_on_c, 0, 63, 76
2,60447, Note_on_c, 0, 64, 0
2,60484, Note_on_c, 0, 67, 0
2,60523, Control_c, 0, 64, 123
2,60543, Control_c, 0, 64, 95
2,60548, Note_on_c, 0, 61, 74
2,60548, Note_on_c, 0, 73, 93
2,60562, Control_c, 0, 64, 81
2,60573, Note_on_c, 0, 70, 0
2,60582, Control_c, 0, 64, 70
2,60583, Note_on_c, 0, 63, 0
2,60600, Control_c, 0, 64, 62
2,60620, Control_c, 0, 64, 50
2,60639, Control_c, 0, 64, 34
2,60658, Control_c, 0, 64, 29
2,60664, Note_on_c, 0, 61, 0
2,60677, Control_c, 0, 64, 20
2,60679, Note_on_c, 0, 59, 70
2,60681, Note_on_c, 0, 76, 86
2,60697, Control_c, 0, 64, 0
2,60698, Note_on_c, 0, 73, 0
2,60817, Note_on_c, 0, 58, 68
2,60823, Note_on_c, 0, 59, 0
2,60943, Note_on_c, 0, 56, 70
2,60956, Note_on_c, 0, 58, 0
2,60956, Note_on_c, 0, 73, 66
2,60987, Note_on_c, 0, 73, 0
2,61063, Note_on_c, 0, 56, 0
2,61078, Note_on_c, 0, 55, 62
2,61196, Note_on_c, 0, 76, 0
2,61214, Note_on_c, 0, 75, 86
2,61215, Note_on_c, 0, 71, 85
2,61222, Note_on_c, 0, 56, 71
2,61230, Note_on_c, 0, 55, 0
2,61240, Note_on_c, 0, 75, 0
2,61316, Note_on_c, 0, 56, 0
2,61351, Note_on_c, 0, 59, 70
2,61498, Note_on_c, 0, 58, 70
2,61499, Note_on_c, 0, 59, 0
2,61504, Note_on_c, 0, 80, 68
2,61541, Note_on_c, 0, 80, 0
2,61627, Note_on_c, 0, 56, 67
2,61638, Note_on_c, 0, 58, 0
2,61747, Note_on_c, 0, 56, 0
2,61764, Note_on_c, 0, 70, 77
2,61768, Note_on_c, 0, 55, 64
2,61774, Note_on_c, 0, 73, 71
2,61780, Note_on_c, 0, 71, 0
2,61845, Note_on_c, 0, 73, 0
2,61874, Note_on_c, 0, 55, 0
2,61894, Note_on_c, 0, 53, 68
2,62022, Note_on_c, 0, 51, 63
2,62027, Note_on_c, 0, 53, 0
2,62045, Note_on_c, 0, 79, 67
2,62084, Note_on_c, 0, 79, 0
2,62139, Note_on_c, 0, 51, 0
2,62151, Note_on_c, 0, 49, 65
2,62265, Note_on_c, 0, 70, 0
2,62270, Control_c, 0, 64, 9
2,62298, Note_on_c, 0, 49, 0
2,62299, Note_on_c, 0, 68, 72
2,62301, Note_on_c, 0, 47, 60
2,62337, Note_on_c, 0, 68, 0
2,62433, Note_on_c, 0, 49, 73
2,62451, Note_on_c, 0, 47, 0
2,62574, Note_on_c, 0, 49, 0
2,62574, Note_on_c, 0, 51, 66
2,62582, Note_on_c, 0, 80, 77
2,62672, Note_on_c, 0, 51, 0
2,62676, Note_on_c, 0, 80, 0
2,62699, Note_on_c, 0, 79, 87
2,62707, Note_on_c, 0, 47, 72
2,62808, Control_c, 0, 64, 0
2,62813, Note_on_c, 0, 47, 0
2,62834, Note_on_c, 0, 80, 90
2,62843, Note_on_c, 0, 44, 66
2,62878, Note_on_c, 0, 79, 0
2,62882, Note_on_c, 0, 44, 0
2,62962, Note_on_c, 0, 82, 92
2,62977, Note_on_c, 0, 80, 0
2,63092, Note_on_c, 0, 83, 84
2,63100, Note_on_c, 0, 56, 73
2,63122, Note_on_c, 0, 82, 0
2,63215, Note_on_c, 0, 53, 70
2,63220, Note_on_c, 0, 80, 94
2,63221, Note_on_c, 0, 56, 0
2,63253, Note_on_c, 0, 83, 0
2,63335, Note_on_c, 0, 80, 0
2,63354, Note_on_c, 0, 49, 71
2,63355, Note_on_c, 0, 77, 78
2,63357, Note_on_c, 0, 53, 0
2,63398, Note_on_c, 0, 49, 0
2,63488, Note_on_c, 0, 78, 85
2,63507, Note_on_c, 0, 77, 0
2,63619, Note_on_c, 0, 80, 85
2,63629, Note_on_c, 0, 59, 65
2,63660, Note_on_c, 0, 78, 0
2,63735, Note_on_c, 0, 59, 0
2,63743, Note_on_c, 0, 77, 77
2,63751, Note_on_c, 0, 56, 73
2,63800, Note_on_c, 0, 80, 0
2,63868, Note_on_c, 0, 77, 0
2,63879, Note_on_c, 0, 73, 75
2,63883, Note_on_c, 0, 53, 64
2,63902, Note_on_c, 0, 56, 0
2,63922, Note_on_c, 0, 53, 0
2,63985, Note_on_c, 0, 73, 0
2,64005, Note_on_c, 0, 75, 80
2,64136, Note_on_c, 0, 49, 67
2,64145, Note_on_c, 0, 77, 70
2,64147, Note_on_c, 0, 75, 0
2,64249, Note_on_c, 0, 77, 0
2,64259, Note_on_c, 0, 49, 0
2,64261, Note_on_c, 0, 73, 72
2,64270, Note_on_c, 0, 46, 59
2,64393, Note_on_c, 0, 42, 66
2,64396, Note_on_c, 0, 70, 69
2,64398, Note_on_c, 0, 46, 0
2,64422, Note_on_c, 0, 73, 0
2,64431, Note_on_c, 0, 42, 0
2,64497, Note_on_c, 0, 70, 0
2,64515, Note_on_c, 0, 72, 68
2,64651, Note_on_c, 0, 58, 62
2,64662, Note_on_c, 0, 73, 73
2,64693, Note_on_c, 0, 72, 0
2,64752, Note_on_c, 0, 73, 0
2,64775, Note_on_c, 0, 58, 0
2,64778, Note_on_c, 0, 54, 66
2,64793, Note_on_c, 0, 70, 76
2,64893, Note_on_c, 0, 54, 0
2,64902, Note_on_c, 0, 51, 51
2,64932, Note_on_c, 0, 78, 76
2,64933, Note_on_c, 0, 70, 0
2,64947, Note_on_c, 0, 51, 0
2,65062, Note_on_c, 0, 80, 88
2,65079, Note_on_c, 0, 78, 0
2,65183, Note_on_c, 0, 82, 92
2,65197, Note_on_c, 0, 54, 66
2,65220, Note_on_c, 0, 80, 0
2,65308, Note_on_c, 0, 78, 84
2,65316, Note_on_c, 0, 51, 65
2,65332, Note_on_c, 0, 54, 0
2,65389, Note_on_c, 0, 82, 0
2,65442, Note_on_c, 0, 48, 59
2,65443, Note_on_c, 0, 51, 0
2,65448, Note_on_c, 0, 75, 88
2,65453, Note_on_c, 0, 78, 0
2,65462, Note_on_c, 0, 82, 52
2,65481, Note_on_c, 0, 48, 0
2,65514, Note_on_c, 0, 82, 0
2,65578, Note_on_c, 0, 77, 77
2,65596, Note_on_c, 0, 75, 0
2,65712, Note_on_c, 0, 78, 86
2,65713, Note_on_c, 0, 58, 56
2,65754, Note_on_c, 0, 77, 0
2,65803, Note_on_c, 0, 78, 0
2,65824, Note_on_c, 0, 58, 0
2,65825, Note_on_c, 0, 75, 80
2,65839, Note_on_c, 0, 54, 64
2,65953, Note_on_c, 0, 75, 0
2,65964, Note_on_c, 0, 51, 60
2,65970, Note_on_c, 0, 72, 73
2,65976, Note_on_c, 0, 54, 0
2,65999, Note_on_c, 0, 51, 0
2,66095, Note_on_c, 0, 72, 0
2,66102, Note_on_c, 0, 73, 77
2,66234, Note_on_c, 0, 48, 49
2,66235, Note_on_c, 0, 75, 77
2,66250, Note_on_c, 0, 73, 0
2,66347, Note_on_c, 0, 48, 0
2,66353, Note_on_c, 0, 44, 57
2,66356, Note_on_c, 0, 72, 66
2,66403, Note_on_c, 0, 75, 0
2,66447, Note_on_c, 0, 72, 0
2,66479, Note_on_c, 0, 44, 0
2,66489, Note_on_c, 0, 41, 46
2,66493, Note_on_c, 0, 68, 68
2,66526, Note_on_c, 0, 41, 0
2,66588, Note_on_c, 0, 68, 0
2,66604, Note_on_c, 0, 70, 70
2,66737, Note_on_c, 0, 72, 65
2,66739, Note_on_c, 0, 56, 61
2,66742, Note_on_c, 0, 70, 0
2,66816, Note_on_c, 0, 72, 0
2,66859, Note_on_c, 0, 56, 0
2,66869, Note_on_c, 0, 53, 58
2,66869, Note_on_c, 0, 68, 68
2,66957, Note_on_c, 0, 68, 0
2,66976, Note_on_c, 0, 53, 0
2,66991, Note_on_c, 0, 50, 56
2,67017, Note_on_c, 0, 77, 70
2,67039, Note_on_c, 0, 50, 0
2,67139, Note_on_c, 0, 78, 73
2,67161, Note_on_c, 0, 77, 0
2,67246, Note_on_c, 0, 53, 66
2,67273, Note_on_c, 0, 80, 80
2,67296, Note_on_c, 0, 78, 0
2,67346, Note_on_c, 0, 53, 0
2,67377, Note_on_c, 0, 50, 59
2,67393, Note_on_c, 0, 77, 77
2,67422, Note_on_c, 0, 80, 0
2,67487, Note_on_c, 0, 77, 0
2,67510, Note_on_c, 0, 46, 62
2,67510, Note_on_c, 0, 50, 0
2,67523, Note_on_c, 0, 74, 76
2,67544, Note_on_c, 0, 46, 0
2,67650, Note_on_c, 0, 75, 77
2,67658, Note_on_c, 0, 74, 0
2,67779, Note_on_c, 0, 77, 73
2,67792, Note_on_c, 0, 56, 63
2,67793, Note_on_c, 0, 75, 0
2,67901, Note_on_c, 0, 56, 0
2,67903, Note_on_c, 0, 74, 69
2,67909, Note_on_c, 0, 77, 0
2,67912, Note_on_c, 0, 53, 63
2,68021, Note_on_c, 0, 74, 0
2,68041, Note_on_c, 0, 70, 73
2,68042, Note_on_c, 0, 50, 58
2,68044, Note_on_c, 0, 53, 0
2,68081, Note_on_c, 0, 50, 0
2,68137, Note_on_c, 0, 70, 0
2,68174, Note_on_c, 0, 72, 66
2,68289, Note_on_c, 0, 72, 0
2,68294, Note_on_c, 0, 46, 55
2,68303, Note_on_c, 0, 74, 66
2,68402, Note_on_c, 0, 74, 0
2,68404, Note_on_c, 0, 46, 0
2,68425, Note_on_c, 0, 70, 70
2,68431, Note_on_c, 0, 42, 52
2,68541, Note_on_c, 0, 39, 59
2,68544, Note_on_c, 0, 42, 0
2,68544, Note_on_c, 0, 70, 0
2,68573, Note_on_c, 0, 66, 61
2,68586, Note_on_c, 0, 39, 0
2,68679, Note_on_c, 0, 66, 0
2,68694, Note_on_c, 0, 68, 68
2,68816, Note_on_c, 0, 68, 0
2,68821, Note_on_c, 0, 70, 71
2,68838, Note_on_c, 0, 54, 55
2,68903, Note_on_c, 0, 70, 0
2,68949, Note_on_c, 0, 66, 71
2,68962, Note_on_c, 0, 54, 0
2,68970, Note_on_c, 0, 51, 57
2,69065, Note_on_c, 0, 51, 0
2,69070, Note_on_c, 0, 66, 0
2,69092, Note_on_c, 0, 48, 55
2,69094, Note_on_c, 0, 75, 68
2,69134, Note_on_c, 0, 48, 0
2,69205, Note_on_c, 0, 75, 0
2,69219, Note_on_c, 0, 77, 68
2,69319, Note_on_c, 0, 77, 0
2,69347, Note_on_c, 0, 78, 67
2,69361, Note_on_c, 0, 51, 56
2,69431, Note_on_c, 0, 51, 0
2,69468, Note_on_c, 0, 75, 70
2,69488, Note_on_c, 0, 48, 50
2,69525, Note_on_c, 0, 78, 0
2,69555, Note_on_c, 0, 75, 0
2,69602, Note_on_c, 0, 48, 0
2,69606, Note_on_c, 0, 72, 66
2,69610, Note_on_c, 0, 44, 51
2,69652, Note_on_c, 0, 44, 0
2,69731, Note_on_c, 0, 73, 60
2,69733, Note_on_c, 0, 72, 0
2,69866, Note_on_c, 0, 73, 0
2,69872, Note_on_c, 0, 75, 66
2,69886, Note_on_c, 0, 54, 51
2,69965, Note_on_c, 0, 54, 0
2,69984, Note_on_c, 0, 51, 59
2,70002, Note_on_c, 0, 72, 70
2,70018, Note_on_c, 0, 75, 0
2,70091, Note_on_c, 0, 72, 0
2,70121, Note_on_c, 0, 51, 0
2,70129, Note_on_c, 0, 48, 46
2,70139, Note_on_c, 0, 68, 63
2,70165, Note_on_c, 0, 48, 0
2,70235, Note_on_c, 0, 68, 0
2,70264, Note_on_c, 0, 70, 61
2,70389, Note_on_c, 0, 70, 0
2,70390, Note_on_c, 0, 44, 50
2,70405, Note_on_c, 0, 72, 62
2,70483, Note_on_c, 0, 44, 0
2,70523, Note_on_c, 0, 41, 47
2,70525, Note_on_c, 0, 68, 58
2,70525, Note_on_c, 0, 72, 0
2,70615, Note_on_c, 0, 68, 0
2,70638, Note_on_c, 0, 41, 0
2,70659, Note_on_c, 0, 37, 43
2,70674, Note_on_c, 0, 65, 46
2,70772, Note_on_c, 0, 65, 0
2,70781, Note_on_c, 0, 66, 59
2,70895, Note_on_c, 0, 66, 0
2,70909, Note_on_c, 0, 68, 58
2,70945, Control_c, 0, 64, 37
2,70965, Control_c, 0, 64, 57
2,70984, Control_c, 0, 64, 62
2,70996, Note_on_c, 0, 68, 0
2,71004, Control_c, 0, 64, 65
2,71022, Control_c, 0, 64, 68
2,71042, Control_c, 0, 64, 74
2,71050, Note_on_c, 0, 65, 57
2,71061, Control_c, 0, 64, 84
2,71079, Control_c, 0, 64, 97
2,71099, Control_c, 0, 64, 114
2,71118, Control_c, 0, 64, 127
2,71121, Note_on_c, 0, 37, 0
2,71149, Note_on_c, 0, 65, 0
2,71177, Note_on_c, 0, 61, 63
2,71195, Control_c, 0, 64, 110
2,71214, Control_c, 0, 64, 93
2,71233, Control_c, 0, 64, 75
2,71253, Control_c, 0, 64, 65
2,71259, Note_on_c, 0, 61, 0
2,71272, Control_c, 0, 64, 52
2,71291, Control_c, 0, 64, 31
2,71304, Note_on_c, 0, 65, 59
2,71310, Control_c, 0, 64, 20
2,71330, Control_c, 0, 64, 9
2,71349, Control_c, 0, 64, 0
2,71399, Note_on_c, 0, 65, 0
2,71428, Note_on_c, 0, 68, 66
2,71496, Note_on_c, 0, 68, 0
2,71561, Note_on_c, 0, 70, 69
2,71659, Note_on_c, 0, 70, 0
2,71692, Note_on_c, 0, 71, 68
2,71781, Note_on_c, 0, 71, 0
2,71814, Note_on_c, 0, 70, 62
2,71900, Note_on_c, 0, 70, 0
2,71949, Note_on_c, 0, 59, 62
2,71950, Note_on_c, 0, 68, 69
2,71992, Note_on_c, 0, 59, 0
2,72039, Note_on_c, 0, 68, 0
2,72071, Note_on_c, 0, 70, 65
2,72072, Note_on_c, 0, 49, 58
2,72144, Note_on_c, 0, 70, 0
2,72181, Note_on_c, 0, 49, 0
2,72198, Note_on_c, 0, 78, 64
2,72220, Note_on_c, 0, 58, 62
2,72232, Note_on_c, 0, 78, 0
2,72278, Note_on_c, 0, 58, 0
2,72342, Note_on_c, 0, 49, 59
2,72428, Control_c, 0, 64, 9
2,72469, Note_on_c, 0, 49, 0
2,72477, Note_on_c, 0, 73, 67
2,72502, Note_on_c, 0, 56, 57
2,72507, Note_on_c, 0, 73, 0
2,72584, Note_on_c, 0, 56, 0
2,72627, Note_on_c, 0, 49, 58
2,72744, Note_on_c, 0, 49, 0
2,72749, Note_on_c, 0, 70, 74
2,72769, Note_on_c, 0, 54, 53
2,72831, Control_c, 0, 64, 11
2,72850, Control_c, 0, 64, 27
2,72869, Control_c, 0, 64, 47
2,72873, Note_on_c, 0, 54, 0
2,72888, Control_c, 0, 64, 60
2,72904, Note_on_c, 0, 49, 58
2,72908, Control_c, 0, 64, 63
2,72927, Control_c, 0, 64, 65
2,72946, Control_c, 0, 64, 66
2,72965, Control_c, 0, 64, 68
2,72985, Control_c, 0, 64, 68
2,73017, Note_on_c, 0, 49, 0
2,73023, Control_c, 0, 64, 66
2,73032, Note_on_c, 0, 53, 58
2,73042, Control_c, 0, 64, 64
2,73044, Note_on_c, 0, 68, 71
2,73062, Control_c, 0, 64, 60
2,73080, Control_c, 0, 64, 55
2,73100, Control_c, 0, 64, 50
2,73115, Note_on_c, 0, 53, 0
2,73119, Control_c, 0, 64, 44
2,73119, Note_on_c, 0, 70, 0
2,73138, Control_c, 0, 64, 38
2,73155, Note_on_c, 0, 51, 55
2,73157, Control_c, 0, 64, 34
2,73163, Note_on_c, 0, 68, 0
2,73167, Note_on_c, 0, 66, 74
2,73177, Control_c, 0, 64, 31
2,73196, Control_c, 0, 64, 28
2,73215, Control_c, 0, 64, 25
2,73234, Control_c, 0, 64, 20
2,73254, Control_c, 0, 64, 13
2,73272, Control_c, 0, 64, 0
2,73274, Note_on_c, 0, 66, 0
2,73280, Note_on_c, 0, 51, 0
2,73286, Note_on_c, 0, 53, 58
2,73300, Note_on_c, 0, 68, 75
2,73325, Note_on_c, 0, 53, 0
2,73367, Note_on_c, 0, 68, 0
2,73422, Note_on_c, 0, 61, 65
2,73552, Note_on_c, 0, 44, 52
2,73552, Note_on_c, 0, 61, 0
2,73562, Note_on_c, 0, 65, 59
2,73590, Note_on_c, 0, 44, 0
2,73662, Note_on_c, 0, 65, 0
2,73687, Note_on_c, 0, 68, 73
2,73811, Note_on_c, 0, 68, 0
2,73822, Note_on_c, 0, 70, 75
2,73914, Note_on_c, 0, 70, 0
2,73948, Note_on_c, 0, 68, 78
2,74033, Note_on_c, 0, 68, 0
2,74065, Note_on_c, 0, 58, 59
2,74073, Note_on_c, 0, 66, 71
2,74127, Note_on_c, 0, 58, 0
2,74169, Note_on_c, 0, 66, 0
2,74193, Note_on_c, 0, 68, 73
2,74202, Note_on_c, 0, 49, 52
2,74279, Note_on_c, 0, 68, 0
2,74313, Note_on_c, 0, 49, 0
2,74331, Note_on_c, 0, 77, 72
2,74343, Note_on_c, 0, 56, 67
2,74363, Note_on_c, 0, 77, 0
2,74406, Note_on_c, 0, 56, 0
2,74471, Note_on_c, 0, 49, 62
2,74579, Note_on_c, 0, 49, 0
2,74598, Note_on_c, 0, 73, 81
2,74618, Note_on_c, 0, 54, 57
2,74632, Note_on_c, 0, 73, 0
2,74703, Note_on_c, 0, 54, 0
2,74736, Note_on_c, 0, 49, 60
2,74860, Note_on_c, 0, 49, 0
2,74877, Note_on_c, 0, 53, 55
2,74878, Note_on_c, 0, 68, 78
2,74961, Control_c, 0, 64, 13
2,74981, Control_c, 0, 64, 44
2,74997, Note_on_c, 0, 53, 0
2,74999, Control_c, 0, 64, 59
2,75013, Note_on_c, 0, 49, 58
2,75019, Control_c, 0, 64, 63
2,75038, Control_c, 0, 64, 66
2,75058, Control_c, 0, 64, 70
2,75076, Control_c, 0, 64, 77
2,75096, Control_c, 0, 64, 91
2,75115, Control_c, 0, 64, 106
2,75134, Control_c, 0, 64, 112
2,75141, Note_on_c, 0, 49, 0
2,75146, Note_on_c, 0, 66, 70
2,75150, Note_on_c, 0, 51, 61
2,75153, Control_c, 0, 64, 103
2,75173, Control_c, 0, 64, 86
2,75182, Note_on_c, 0, 68, 0
2,75192, Control_c, 0, 64, 71
2,75210, Control_c, 0, 64, 62
2,75230, Control_c, 0, 64, 39
2,75235, Note_on_c, 0, 66, 0
2,75247, Control_c, 0, 64, 34
2,75254, Note_on_c, 0, 51, 0
2,75262, Note_on_c, 0, 65, 70
2,75278, Note_on_c, 0, 49, 66
2,75354, Note_on_c, 0, 65, 0
2,75382, Control_c, 0, 64, 34
2,75399, Note_on_c, 0, 66, 67
2,75405, Note_on_c, 0, 51, 61
2,75424, Note_on_c, 0, 49, 0
2,75439, Control_c, 0, 64, 33
2,75443, Note_on_c, 0, 51, 0
2,75484, Note_on_c, 0, 66, 0
2,75516, Control_c, 0, 64, 32
2,75531, Note_on_c, 0, 60, 61
2,75627, Note_on_c, 0, 60, 0
2,75659, Note_on_c, 0, 44, 51
2,75670, Note_on_c, 0, 63, 61
2,75699, Note_on_c, 0, 44, 0
2,75781, Note_on_c, 0, 63, 0
2,75799, Note_on_c, 0, 66, 61
2,75928, Note_on_c, 0, 66, 0
2,75935, Note_on_c, 0, 68, 72
2,76065, Note_on_c, 0, 66, 72
2,76098, Note_on_c, 0, 68, 0
2,76145, Note_on_c, 0, 66, 0
2,76188, Note_on_c, 0, 65, 69
2,76192, Note_on_c, 0, 56, 62
2,76257, Note_on_c, 0, 56, 0
2,76281, Note_on_c, 0, 65, 0
2,76305, Control_c, 0, 64, 33
2,76311, Note_on_c, 0, 66, 68
2,76336, Note_on_c, 0, 44, 49
2,76392, Note_on_c, 0, 66, 0
2,76434, Note_on_c, 0, 75, 77
2,76440, Note_on_c, 0, 44, 0
2,76463, Note_on_c, 0, 54, 65
2,76463, Note_on_c, 0, 75, 0
2,76559, Note_on_c, 0, 54, 0
2,76582, Note_on_c, 0, 44, 63
2,76670, Control_c, 0, 64, 34
2,76694, Note_on_c, 0, 72, 74
2,76709, Note_on_c, 0, 44, 0
2,76722, Note_on_c, 0, 53, 59
2,76729, Note_on_c, 0, 72, 0
2,76791, Note_on_c, 0, 53, 0
2,76862, Note_on_c, 0, 44, 54
2,76965, Note_on_c, 0, 44, 0
2,76967, Note_on_c, 0, 66, 61
2,76972, Note_on_c, 0, 51, 52
2,77092, Note_on_c, 0, 51, 0
2,77106, Note_on_c, 0, 44, 58
2,77229, Note_on_c, 0, 49, 60
2,77232, Note_on_c, 0, 66, 0
2,77237, Note_on_c, 0, 44, 0
2,77243, Note_on_c, 0, 65, 54
2,77246, Control_c, 0, 64, 34
2,77353, Note_on_c, 0, 48, 59
2,77354, Note_on_c, 0, 49, 0
2,77357, Note_on_c, 0, 65, 0
2,77367, Note_on_c, 0, 63, 64
2,77381, Control_c, 0, 64, 35
2,77470, Note_on_c, 0, 63, 0
2,77479, Note_on_c, 0, 48, 0
2,77489, Note_on_c, 0, 49, 65
2,77500, Note_on_c, 0, 65, 65
2,77588, Note_on_c, 0, 65, 0
2,77610, Note_on_c, 0, 49, 0
2,77617, Note_on_c, 0, 68, 72
2,77622, Note_on_c, 0, 44, 53
2,77745, Note_on_c, 0, 68, 0
2,77747, Note_on_c, 0, 70, 73
2,77757, Note_on_c, 0, 53, 65
2,77768, Note_on_c, 0, 44, 0
2,77837, Note_on_c, 0, 70, 0
2,77871, Note_on_c, 0, 53, 0
2,77872, Note_on_c, 0, 72, 76
2,77873, Note_on_c, 0, 51, 65
2,77997, Note_on_c, 0, 51, 0
2,78007, Note_on_c, 0, 73, 75
2,78010, Note_on_c, 0, 53, 67
2,78016, Note_on_c, 0, 72, 0
2,78106, Note_on_c, 0, 53, 0
2,78124, Note_on_c, 0, 75, 86
2,78125, Note_on_c, 0, 44, 68
2,78141, Note_on_c, 0, 73, 0
2,78254, Note_on_c, 0, 77, 82
2,78259, Note_on_c, 0, 75, 0
2,78262, Note_on_c, 0, 44, 0
2,78263, Note_on_c, 0, 56, 74
2,78320, Control_c, 0, 64, 34
2,78340, Control_c, 0, 64, 31
2,78358, Control_c, 0, 64, 19
2,78369, Note_on_c, 0, 77, 0
2,78376, Note_on_c, 0, 54, 74
2,78378, Control_c, 0, 64, 0
2,78380, Note_on_c, 0, 56, 0
2,78384, Note_on_c, 0, 75, 85
2,78504, Note_on_c, 0, 54, 0
2,78508, Note_on_c, 0, 56, 81
2,78516, Note_on_c, 0, 78, 83
2,78541, Note_on_c, 0, 75, 0
2,78609, Note_on_c, 0, 56, 0
2,78621, Note_on_c, 0, 44, 74
2,78633, Note_on_c, 0, 77, 82
2,78730, Note_on_c, 0, 78, 0
2,78746, Note_on_c, 0, 44, 0
2,78759, Note_on_c, 0, 75, 82
2,78775, Note_on_c, 0, 58, 70
2,78781, Note_on_c, 0, 77, 0
2,78800, Control_c, 0, 64, 54
2,78820, Control_c, 0, 64, 77
2,78832, Note_on_c, 0, 75, 0
2,78838, Control_c, 0, 64, 104
2,78858, Control_c, 0, 64, 127
2,78862, Note_on_c, 0, 73, 73
2,78866, Note_on_c, 0, 58, 0
2,78892, Note_on_c, 0, 44, 74
2,78894, Note_on_c, 0, 73, 0
2,78955, Note_on_c, 0, 44, 0
2,79039, Note_on_c, 0, 60, 68
2,79044, Note_on_c, 0, 79, 67
2,79069, Control_c, 0, 64, 90
2,79088, Control_c, 0, 64, 76
2,79092, Note_on_c, 0, 79, 0
2,79099, Note_on_c, 0, 80, 77
2,79107, Control_c, 0, 64, 67
2,79126, Control_c, 0, 64, 59
2,79141, Note_on_c, 0, 60, 0
2,79143, Note_on_c, 0, 61, 65
2,79146, Control_c, 0, 64, 49
2,79159, Note_on_c, 0, 80, 0
2,79165, Control_c, 0, 64, 47
2,79167, Note_on_c, 0, 82, 70
2,79184, Control_c, 0, 64, 46
2,79199, Note_on_c, 0, 82, 0
2,79203, Control_c, 0, 64, 43
2,79223, Control_c, 0, 64, 39
2,79223, Note_on_c, 0, 80, 79
2,79242, Control_c, 0, 64, 33
2,79261, Control_c, 0, 64, 29
2,79273, Note_on_c, 0, 63, 70
2,79277, Note_on_c, 0, 61, 0
2,79280, Control_c, 0, 64, 26
2,79281, Note_on_c, 0, 80, 0
2,79289, Note_on_c, 0, 82, 74
2,79298, Control_c, 0, 64, 21
2,79316, Control_c, 0, 64, 9
2,79336, Control_c, 0, 64, 0
2,79345, Note_on_c, 0, 82, 0
2,79351, Note_on_c, 0, 80, 78
2,79390, Note_on_c, 0, 63, 0
2,79393, Note_on_c, 0, 60, 69
2,79411, Note_on_c, 0, 82, 69
2,79418, Note_on_c, 0, 80, 0
2,79448, Note_on_c, 0, 82, 0
2,79465, Note_on_c, 0, 80, 72
2,79523, Note_on_c, 0, 80, 0
2,79525, Note_on_c, 0, 56, 75
2,79526, Note_on_c, 0, 60, 0
2,79532, Note_on_c, 0, 82, 81
2,79567, Note_on_c, 0, 82, 0
2,79595, Note_on_c, 0, 80, 74
2,79652, Note_on_c, 0, 56, 0
2,79652, Note_on_c, 0, 60, 74
2,79652, Note_on_c, 0, 80, 0
2,79656, Note_on_c, 0, 82, 66
2,79688, Note_on_c, 0, 82, 0
2,79701, Note_on_c, 0, 80, 69
2,79753, Note_on_c, 0, 80, 0
2,79759, Note_on_c, 0, 82, 77
2,79783, Note_on_c, 0, 63, 82
2,79802, Note_on_c, 0, 60, 0
2,79805, Note_on_c, 0, 82, 0
2,79825, Note_on_c, 0, 80, 75
2,79879, Note_on_c, 0, 82, 79
2,79880, Note_on_c, 0, 63, 0
2,79881, Note_on_c, 0, 80, 0
2,79899, Note_on_c, 0, 65, 78
2,79928, Note_on_c, 0, 82, 0
2,79941, Note_on_c, 0, 80, 66
2,79990, Control_c, 0, 64, 46
2,79993, Note_on_c, 0, 80, 0
2,79997, Note_on_c, 0, 82, 79
2,80009, Control_c, 0, 64, 65
2,80026, Note_on_c, 0, 66, 83
2,80029, Control_c, 0, 64, 78
2,80035, Note_on_c, 0, 65, 0
2,80045, Note_on_c, 0, 82, 0
2,80048, Control_c, 0, 64, 106
2,80067, Control_c, 0, 64, 127
2,80076, Note_on_c, 0, 80, 82
2,80088, Note_on_c, 0, 66, 0
2,80118, Note_on_c, 0, 80, 0
2,80125, Control_c, 0, 64, 84
2,80144, Control_c, 0, 64, 66
2,80155, Note_on_c, 0, 65, 76
2,80163, Control_c, 0, 64, 39
2,80179, Note_on_c, 0, 80, 84
2,80183, Control_c, 0, 64, 0
2,80241, Note_on_c, 0, 65, 0
2,80276, Note_on_c, 0, 63, 71
2,80303, Note_on_c, 0, 78, 87
2,80308, Note_on_c, 0, 80, 0
2,80418, Note_on_c, 0, 65, 71
2,80420, Note_on_c, 0, 80, 90
2,80424, Note_on_c, 0, 78, 0
2,80456, Note_on_c, 0, 63, 0
2,80514, Note_on_c, 0, 65, 0
2,80523, Note_on_c, 0, 80, 0
2,80548, Note_on_c, 0, 77, 82
2,80560, Note_on_c, 0, 73, 73
2,80592, Note_on_c, 0, 73, 0
2,80665, Note_on_c, 0, 77, 0
2,80673, Note_on_c, 0, 80, 83
2,80799, Note_on_c, 0, 68, 73
2,80812, Note_on_c, 0, 75, 83
2,80821, Note_on_c, 0, 80, 0
2,80825, Note_on_c, 0, 68, 0
2,80935, Note_on_c, 0, 75, 0
2,80949, Note_on_c, 0, 80, 80
2,81082, Note_on_c, 0, 73, 67
2,81082, Note_on_c, 0, 80, 0
2,81086, Note_on_c, 0, 65, 64
2,81141, Control_c, 0, 64, 29
2,81160, Control_c, 0, 64, 57
2,81179, Control_c, 0, 64, 66
2,81198, Control_c, 0, 64, 71
2,81213, Note_on_c, 0, 80, 78
2,81218, Control_c, 0, 64, 78
2,81236, Control_c, 0, 64, 88
2,81256, Control_c, 0, 64, 97
2,81275, Control_c, 0, 64, 104
2,81284, Note_on_c, 0, 73, 0
2,81295, Control_c, 0, 64, 107
2,81332, Control_c, 0, 64, 105
2,81352, Control_c, 0, 64, 101
2,81352, Note_on_c, 0, 80, 0
2,81353, Note_on_c, 0, 72, 76
2,81360, Note_on_c, 0, 63, 68
2,81370, Control_c, 0, 64, 95
2,81370, Note_on_c, 0, 65, 0
2,81390, Control_c, 0, 64, 88
2,81409, Control_c, 0, 64, 78
2,81429, Control_c, 0, 64, 69
2,81447, Control_c, 0, 64, 63
2,81467, Control_c, 0, 64, 56
2,81471, Note_on_c, 0, 72, 0
2,81473, Note_on_c, 0, 70, 80
2,81483, Note_on_c, 0, 63, 0
2,81486, Control_c, 0, 64, 47
2,81498, Note_on_c, 0, 61, 63
2,81505, Control_c, 0, 64, 40
2,81524, Control_c, 0, 64, 37
2,81544, Control_c, 0, 64, 34
2,81563, Control_c, 0, 64, 27
2,81565, Note_on_c, 0, 70, 0
2,81582, Control_c, 0, 64, 18
2,81599, Note_on_c, 0, 72, 79
2,81601, Control_c, 0, 64, 0
2,81618, Note_on_c, 0, 63, 72
2,81620, Note_on_c, 0, 61, 0
2,81674, Note_on_c, 0, 72, 0
2,81725, Note_on_c, 0, 75, 75
2,81737, Note_on_c, 0, 63, 0
2,81742, Note_on_c, 0, 56, 59
2,81836, Note_on_c, 0, 75, 0
2,81865, Note_on_c, 0, 60, 65
2,81865, Note_on_c, 0, 77, 71
2,81880, Note_on_c, 0, 56, 0
2,81992, Note_on_c, 0, 77, 0
2,81993, Note_on_c, 0, 78, 77
2,82003, Note_on_c, 0, 63, 77
2,82030, Note_on_c, 0, 60, 0
2,82113, Note_on_c, 0, 78, 0
2,82123, Note_on_c, 0, 80, 81
2,82132, Note_on_c, 0, 63, 0
2,82137, Note_on_c, 0, 65, 82
2,82247, Note_on_c, 0, 78, 77
2,82267, Note_on_c, 0, 63, 82
2,82268, Note_on_c, 0, 65, 0
2,82304, Note_on_c, 0, 80, 0
2,82345, Note_on_c, 0, 78, 0
2,82368, Note_on_c, 0, 63, 0
2,82385, Note_on_c, 0, 77, 73
2,82391, Note_on_c, 0, 61, 82
2,82489, Note_on_c, 0, 77, 0
2,82509, Note_on_c, 0, 80, 82
2,82514, Note_on_c, 0, 63, 79
2,82555, Note_on_c, 0, 61, 0
2,82613, Note_on_c, 0, 63, 0
2,82641, Note_on_c, 0, 75, 84
2,82644, Note_on_c, 0, 80, 0
2,82648, Note_on_c, 0, 72, 83
2,82680, Note_on_c, 0, 72, 0
2,82744, Note_on_c, 0, 75, 0
2,82768, Note_on_c, 0, 80, 80
2,82888, Note_on_c, 0, 80, 0
2,82899, Note_on_c, 0, 73, 77
2,82913, Note_on_c, 0, 68, 79
2,82938, Note_on_c, 0, 68, 0
2,83011, Note_on_c, 0, 73, 0
2,83067, Note_on_c, 0, 79, 55
2,83115, Note_on_c, 0, 79, 0
2,83175, Note_on_c, 0, 72, 69
2,83182, Note_on_c, 0, 63, 66
2,83216, Control_c, 0, 64, 51
2,83234, Control_c, 0, 64, 64
2,83253, Control_c, 0, 64, 70
2,83273, Control_c, 0, 64, 80
2,83291, Control_c, 0, 64, 97
2,83300, Note_on_c, 0, 72, 0
2,83300, Note_on_c, 0, 80, 78
2,83311, Control_c, 0, 64, 127
2,83425, Note_on_c, 0, 80, 0
2,83432, Note_on_c, 0, 70, 79
2,83452, Note_on_c, 0, 61, 69
2,83452, Note_on_c, 0, 63, 0
2,83465, Control_c, 0, 64, 89
2,83484, Control_c, 0, 64, 73
2,83503, Control_c, 0, 64, 64
2,83522, Control_c, 0, 64, 51
2,83527, Note_on_c, 0, 70, 0
2,83542, Control_c, 0, 64, 39
2,83553, Note_on_c, 0, 61, 0
2,83558, Note_on_c, 0, 68, 76
2,83560, Control_c, 0, 64, 36
2,83564, Note_on_c, 0, 60, 66
2,83580, Control_c, 0, 64, 34
2,83599, Control_c, 0, 64, 28
2,83619, Control_c, 0, 64, 17
2,83637, Control_c, 0, 64, 0
2,83657, Note_on_c, 0, 68, 0
2,83685, Note_on_c, 0, 60, 0
2,83686, Note_on_c, 0, 70, 69
2,83698, Note_on_c, 0, 61, 64
2,83764, Note_on_c, 0, 70, 0
2,83799, Note_on_c, 0, 61, 0
2,83821, Note_on_c, 0, 73, 64
2,83830, Note_on_c, 0, 56, 53
2,83942, Note_on_c, 0, 75, 70
2,83953, Note_on_c, 0, 56, 0
2,83957, Note_on_c, 0, 60, 55
2,83984, Note_on_c, 0, 73, 0
2,84012, Note_on_c, 0, 75, 0
2,84066, Note_on_c, 0, 77, 67
2,84070, Note_on_c, 0, 61, 67
2,84073, Note_on_c, 0, 60, 0
2,84169, Note_on_c, 0, 77, 0
2,84175, Note_on_c, 0, 61, 0
2,84206, Note_on_c, 0, 63, 66
2,84209, Note_on_c, 0, 78, 68
2,84296, Note_on_c, 0, 78, 0
2,84297, Note_on_c, 0, 63, 0
2,84324, Note_on_c, 0, 77, 66
2,84339, Note_on_c, 0, 61, 59
2,84439, Note_on_c, 0, 77, 0
2,84440, Note_on_c, 0, 61, 0
2,84462, Note_on_c, 0, 75, 63
2,84469, Note_on_c, 0, 60, 56
2,84575, Note_on_c, 0, 75, 0
2,84584, Note_on_c, 0, 60, 0
2,84589, Note_on_c, 0, 77, 59
2,84596, Note_on_c, 0, 61, 59
2,84702, Note_on_c, 0, 77, 0
2,84708, Note_on_c, 0, 61, 0
2,84726, Note_on_c, 0, 73, 59
2,84749, Note_on_c, 0, 70, 42
2,84786, Note_on_c, 0, 70, 0
2,84828, Note_on_c, 0, 73, 0
2,84856, Note_on_c, 0, 75, 60
2,84953, Note_on_c, 0, 75, 0
2,84981, Note_on_c, 0, 72, 67
2,84994, Note_on_c, 0, 67, 59
2,85030, Note_on_c, 0, 67, 0
2,85072, Note_on_c, 0, 72, 0
2,85108, Note_on_c, 0, 75, 62
2,85216, Note_on_c, 0, 75, 0
2,85250, Control_c, 0, 64, 36
2,85252, Note_on_c, 0, 61, 52
2,85252, Note_on_c, 0, 70, 54
2,85270, Control_c, 0, 64, 56
2,85288, Control_c, 0, 64, 63
2,85308, Control_c, 0, 64, 66
2,85327, Control_c, 0, 64, 70
2,85346, Control_c, 0, 64, 77
2,85365, Control_c, 0, 64, 90
2,85378, Note_on_c, 0, 75, 59
2,85382, Note_on_c, 0, 70, 0
2,85385, Control_c, 0, 64, 111
2,85404, Control_c, 0, 64, 127
2,85491, Note_on_c, 0, 61, 0
2,85519, Control_c, 0, 64, 97
2,85535, Note_on_c, 0, 60, 46
2,85538, Note_on_c, 0, 68, 57
2,85538, Note_on_c, 0, 75, 0
2,85539, Control_c, 0, 64, 79
2,85557, Control_c, 0, 64, 68
2,85577, Control_c, 0, 64, 61
2,85593, Note_on_c, 0, 68, 0
2,85596, Control_c, 0, 64, 50
2,85597, Note_on_c, 0, 60, 0
2,85616, Control_c, 0, 64, 48
2,85634, Control_c, 0, 64, 47
2,85638, Note_on_c, 0, 58, 52
2,85653, Control_c, 0, 64, 46
2,85660, Note_on_c, 0, 67, 54
2,85673, Control_c, 0, 64, 44
2,85691, Control_c, 0, 64, 41
2,85703, Note_on_c, 0, 58, 0
2,85711, Control_c, 0, 64, 38
2,85711, Note_on_c, 0, 67, 0
2,85730, Control_c, 0, 64, 36
2,85750, Control_c, 0, 64, 36
2,85764, Note_on_c, 0, 60, 47
2,85787, Note_on_c, 0, 68, 52
2,85789, Control_c, 0, 64, 35
2,85807, Control_c, 0, 64, 33
2,85816, Note_on_c, 0, 68, 0
2,85826, Control_c, 0, 64, 32
2,85845, Control_c, 0, 64, 30
2,85857, Note_on_c, 0, 60, 0
2,85865, Control_c, 0, 64, 29
2,85884, Control_c, 0, 64, 29
2,85898, Note_on_c, 0, 72, 66
2,85903, Note_on_c, 0, 56, 55
2,85980, Control_c, 0, 64, 28
2,85986, Note_on_c, 0, 72, 0
2,86019, Control_c, 0, 64, 27
2,86020, Note_on_c, 0, 73, 66
2,86028, Note_on_c, 0, 56, 0
2,86031, Note_on_c, 0, 58, 57
2,86110, Note_on_c, 0, 58, 0
2,86122, Note_on_c, 0, 73, 0
2,86136, Note_on_c, 0, 75, 72
2,86162, Note_on_c, 0, 60, 54
2,86205, Note_on_c, 0, 75, 0
2,86229, Note_on_c, 0, 60, 0
2,86263, Note_on_c, 0, 77, 62
2,86274, Note_on_c, 0, 61, 57
2,86343, Note_on_c, 0, 77, 0
2,86384, Note_on_c, 0, 78, 68
2,86396, Note_on_c, 0, 63, 60
2,86424, Note_on_c, 0, 61, 0
2,86475, Note_on_c, 0, 63, 0
2,86480, Note_on_c, 0, 78, 0
2,86518, Note_on_c, 0, 80, 61
2,86538, Note_on_c, 0, 65, 49
2,86597, Note_on_c, 0, 65, 0
2,86635, Note_on_c, 0, 82, 66
2,86643, Note_on_c, 0, 63, 51
2,86660, Note_on_c, 0, 80, 0
2,86724, Note_on_c, 0, 82, 0
2,86778, Note_on_c, 0, 72, 67
2,86794, Note_on_c, 0, 63, 0
2,86795, Note_on_c, 0, 66, 56
2,86809, Note_on_c, 0, 72, 0
2,86847, Note_on_c, 0, 66, 0
2,86905, Note_on_c, 0, 65, 56
2,87024, Note_on_c, 0, 65, 0
2,87034, Note_on_c, 0, 63, 61
2,87042, Note_on_c, 0, 68, 57
2,87075, Note_on_c, 0, 68, 0
2,87165, Note_on_c, 0, 61, 52
2,87190, Note_on_c, 0, 63, 0
2,87294, Note_on_c, 0, 61, 0
2,87313, Note_on_c, 0, 70, 73
2,87317, Note_on_c, 0, 66, 44
2,87352, Note_on_c, 0, 66, 0
2,87419, Note_on_c, 0, 70, 0
2,87438, Control_c, 0, 64, 27
2,87439, Note_on_c, 0, 68, 68
2,87512, Note_on_c, 0, 68, 0
2,87579, Note_on_c, 0, 66, 60
2,87581, Note_on_c, 0, 58, 48
2,87661, Note_on_c, 0, 66, 0
2,87669, Note_on_c, 0, 58, 0
2,87698, Note_on_c, 0, 68, 70
2,87715, Note_on_c, 0, 60, 54
2,87767, Note_on_c, 0, 68, 0
2,87785, Note_on_c, 0, 60, 0
2,87827, Note_on_c, 0, 61, 57
2,87842, Note_on_c, 0, 77, 71
2,87874, Note_on_c, 0, 77, 0
2,87907, Note_on_c, 0, 61, 0
2,87917, Control_c, 0, 64, 26
2,87962, Note_on_c, 0, 60, 53
2,88013, Control_c, 0, 64, 25
2,88061, Note_on_c, 0, 60, 0
2,88103, Note_on_c, 0, 73, 76
2,88107, Note_on_c, 0, 58, 55
2,88131, Note_on_c, 0, 73, 0
2,88178, Note_on_c, 0, 58, 0
2,88225, Control_c, 0, 64, 24
2,88231, Note_on_c, 0, 56, 57
2,88388, Note_on_c, 0, 68, 80
2,88393, Note_on_c, 0, 58, 51
2,88408, Note_on_c, 0, 56, 0
2,88675, Note_on_c, 0, 68, 0
2,88691, Note_on_c, 0, 66, 69
2,88769, Note_on_c, 0, 66, 0
2,88814, Note_on_c, 0, 65, 70
2,88892, Note_on_c, 0, 65, 0
2,88953, Note_on_c, 0, 66, 71
2,88982, Note_on_c, 0, 66, 0
2,89050, Control_c, 0, 64, 23
2,89074, Note_on_c, 0, 58, 0
2,89090, Note_on_c, 0, 56, 57
2,89211, Note_on_c, 0, 75, 80
2,89221, Note_on_c, 0, 56, 0
2,89222, Note_on_c, 0, 54, 53
2,89235, Note_on_c, 0, 75, 0
2,89310, Note_on_c, 0, 54, 0
2,89339, Control_c, 0, 64, 22
2,89340, Note_on_c, 0, 58, 58
2,89472, Note_on_c, 0, 56, 65
2,89485, Note_on_c, 0, 58, 0
2,89485, Note_on_c, 0, 65, 66
2,89521, Note_on_c, 0, 65, 0
2,89596, Note_on_c, 0, 54, 60
2,89598, Note_on_c, 0, 56, 0
2,89706, Note_on_c, 0, 54, 0
2,89732, Note_on_c, 0, 53, 55
2,89750, Note_on_c, 0, 73, 68
2,89786, Note_on_c, 0, 73, 0
2,89838, Control_c, 0, 64, 21
2,89849, Note_on_c, 0, 53, 0
2,89861, Note_on_c, 0, 56, 60
2,89997, Note_on_c, 0, 54, 59
2,90002, Note_on_c, 0, 56, 0
2,90016, Note_on_c, 0, 63, 62
2,90068, Note_on_c, 0, 63, 0
2,90115, Note_on_c, 0, 54, 0
2,90137, Note_on_c, 0, 53, 41
2,90241, Control_c, 0, 64, 20
2,90259, Note_on_c, 0, 53, 0
2,90261, Control_c, 0, 64, 19
2,90273, Note_on_c, 0, 54, 63
2,90280, Control_c, 0, 64, 18
2,90280, Note_on_c, 0, 72, 72
2,90299, Control_c, 0, 64, 15
2,90317, Note_on_c, 0, 72, 0
2,90318, Control_c, 0, 64, 9
2,90338, Control_c, 0, 64, 0
2,90376, Note_on_c, 0, 54, 0
2,90416, Note_on_c, 0, 51, 46
2,90529, Note_on_c, 0, 51, 0
2,90536, Note_on_c, 0, 61, 66
2,90546, Note_on_c, 0, 53, 57
2,90570, Note_on_c, 0, 61, 0
2,90843, Note_on_c, 0, 73, 62
2,90932, Note_on_c, 0, 73, 0
2,90960, Note_on_c, 0, 56, 53
2,90968, Note_on_c, 0, 72, 60
2,90979, Note_on_c, 0, 53, 0
2,91056, Note_on_c, 0, 72, 0
2,91096, Note_on_c, 0, 73, 67
2,91100, Note_on_c, 0, 58, 55
2,91105, Note_on_c, 0, 56, 0
2,91209, Note_on_c, 0, 58, 0
2,91219, Note_on_c, 0, 73, 0
2,91219, Note_on_c, 0, 75, 62
2,91240, Note_on_c, 0, 60, 56
2,91312, Note_on_c, 0, 75, 0
2,91346, Note_on_c, 0, 77, 67
2,91355, Note_on_c, 0, 60, 0
2,91359, Note_on_c, 0, 61, 64
2,91475, Note_on_c, 0, 77, 0
2,91480, Note_on_c, 0, 78, 71
2,91496, Note_on_c, 0, 63, 66
2,91608, Note_on_c, 0, 63, 0
2,91610, Note_on_c, 0, 80, 74
2,91616, Note_on_c, 0, 65, 67
2,91617, Note_on_c, 0, 78, 0
2,91735, Note_on_c, 0, 78, 83
2,91741, Note_on_c, 0, 63, 82
2,91750, Note_on_c, 0, 65, 0
2,91769, Note_on_c, 0, 61, 0
2,91787, Note_on_c, 0, 80, 0
2,91858, Note_on_c, 0, 77, 84
2,91858, Note_on_c, 0, 78, 0
2,91876, Note_on_c, 0, 63, 0
2,91885, Note_on_c, 0, 61, 78
2,91988, Note_on_c, 0, 78, 85
2,92002, Note_on_c, 0, 63, 78
2,92022, Note_on_c, 0, 61, 0
2,92028, Note_on_c, 0, 77, 0
2,92109, Note_on_c, 0, 63, 0
2,92121, Note_on_c, 0, 80, 88
2,92127, Note_on_c, 0, 72, 79
2,92145, Note_on_c, 0, 60, 63
2,92153, Note_on_c, 0, 78, 0
2,92164, Note_on_c, 0, 72, 0
2,92248, Note_on_c, 0, 78, 82
2,92294, Note_on_c, 0, 80, 0
2,92358, Note_on_c, 0, 78, 0
2,92381, Note_on_c, 0, 77, 75
2,92399, Note_on_c, 0, 68, 75
2,92430, Note_on_c, 0, 68, 0
2,92517, Note_on_c, 0, 75, 80
2,92517, Note_on_c, 0, 77, 0
2,92658, Note_on_c, 0, 77, 76
2,92660, Note_on_c, 0, 75, 0
2,92672, Note_on_c, 0, 63, 72
2,92823, Note_on_c, 0, 60, 0
2,92971, Note_on_c, 0, 61, 70
2,93001, Note_on_c, 0, 63, 0
2,93131, Note_on_c, 0, 60, 57
2,93175, Note_on_c, 0, 61, 0
2,93226, Note_on_c, 0, 61, 49
2,93232, Note_on_c, 0, 60, 0
2,93257, Note_on_c, 0, 58, 35
2,93295, Note_on_c, 0, 61, 0
2,93361, Note_on_c, 0, 75, 69
2,93371, Note_on_c, 0, 77, 0
2,93494, Note_on_c, 0, 73, 75
2,93509, Note_on_c, 0, 70, 58
2,93513, Note_on_c, 0, 75, 0
2,93537, Note_on_c, 0, 70, 0
2,93610, Note_on_c, 0, 73, 0
2,93630, Note_on_c, 0, 77, 74
2,93747, Note_on_c, 0, 77, 0
2,93765, Note_on_c, 0, 60, 56
2,93766, Note_on_c, 0, 75, 77
2,93809, Note_on_c, 0, 60, 0
2,93887, Note_on_c, 0, 73, 74
2,93941, Note_on_c, 0, 75, 0
2,93987, Note_on_c, 0, 73, 0
2,94011, Note_on_c, 0, 68, 62
2,94018, Note_on_c, 0, 72, 72
2,94019, Note_on_c, 0, 58, 0
2,94020, Note_on_c, 0, 56, 61
2,94038, Note_on_c, 0, 68, 0
2,94061, Note_on_c, 0, 56, 0
2,94126, Note_on_c, 0, 72, 0
2,94152, Note_on_c, 0, 75, 75
2,94286, Note_on_c, 0, 58, 56
2,94292, Note_on_c, 0, 73, 72
2,94315, Note_on_c, 0, 58, 0
2,94324, Note_on_c, 0, 75, 0
2,94365, Note_on_c, 0, 73, 0
2,94399, Note_on_c, 0, 72, 74
2,94487, Note_on_c, 0, 72, 0
2,94539, Note_on_c, 0, 73, 71
2,94553, Note_on_c, 0, 51, 52
2,94559, Note_on_c, 0, 67, 57
2,94600, Note_on_c, 0, 67, 0
2,94602, Note_on_c, 0, 51, 0
2,94652, Note_on_c, 0, 70, 76
2,94659, Note_on_c, 0, 73, 0
2,94758, Note_on_c, 0, 70, 0
2,94790, Note_on_c, 0, 56, 70
2,94791, Note_on_c, 0, 72, 79
2,94795, Note_on_c, 0, 68, 68
2,94825, Note_on_c, 0, 56, 0
2,94826, Note_on_c, 0, 68, 0
2,94828, Note_on_c, 0, 72, 0
2,95076, Note_on_c, 0, 68, 67
2,95081, Note_on_c, 0, 75, 83
2,95107, Note_on_c, 0, 75, 0
2,95193, Note_on_c, 0, 68, 0
2,95206, Note_on_c, 0, 66, 74
2,95324, Note_on_c, 0, 66, 0
2,95341, Note_on_c, 0, 78, 82
2,95349, Note_on_c, 0, 68, 72
2,95435, Note_on_c, 0, 68, 0
2,95484, Note_on_c, 0, 70, 65
2,95605, Note_on_c, 0, 70, 0
2,95624, Note_on_c, 0, 56, 74
2,95629, Note_on_c, 0, 72, 71
2,95657, Note_on_c, 0, 56, 0
2,95710, Note_on_c, 0, 72, 0
2,95751, Note_on_c, 0, 68, 72
2,95854, Note_on_c, 0, 68, 0
2,95894, Note_on_c, 0, 58, 73
2,95900, Note_on_c, 0, 73, 70
2,96021, Note_on_c, 0, 73, 0
2,96026, Note_on_c, 0, 72, 75
2,96031, Note_on_c, 0, 56, 78
2,96047, Note_on_c, 0, 58, 0
2,96153, Note_on_c, 0, 56, 0
2,96158, Note_on_c, 0, 72, 0
2,96160, Note_on_c, 0, 54, 78
2,96162, Note_on_c, 0, 70, 79
2,96266, Note_on_c, 0, 78, 0
2,96282, Note_on_c, 0, 56, 77
2,96286, Note_on_c, 0, 72, 81
2,96288, Note_on_c, 0, 70, 0
2,96297, Note_on_c, 0, 54, 0
2,96385, Note_on_c, 0, 72, 0
2,96401, Note_on_c, 0, 56, 0
2,96411, Note_on_c, 0, 65, 70
2,96413, Note_on_c, 0, 77, 86
2,96420, Note_on_c, 0, 73, 81
2,96442, Note_on_c, 0, 65, 0
2,96489, Note_on_c, 0, 73, 0
2,96543, Note_on_c, 0, 72, 75
2,96650, Note_on_c, 0, 72, 0
2,96699, Note_on_c, 0, 70, 78
2,96700, Note_on_c, 0, 61, 71
2,96730, Note_on_c, 0, 61, 0
2,96801, Note_on_c, 0, 70, 0
2,96817, Note_on_c, 0, 68, 82
2,96970, Note_on_c, 0, 56, 84
2,96975, Note_on_c, 0, 70, 86
2,96997, Note_on_c, 0, 68, 0
2,97165, Note_on_c, 0, 77, 0
2,97261, Note_on_c, 0, 54, 73
2,97287, Note_on_c, 0, 56, 0
2,97390, Note_on_c, 0, 54, 0
2,97394, Note_on_c, 0, 53, 67
2,97514, Note_on_c, 0, 53, 0
2,97527, Note_on_c, 0, 54, 74
2,97544, Note_on_c, 0, 75, 87
2,97551, Note_on_c, 0, 70, 0
2,97566, Note_on_c, 0, 54, 0
2,97682, Note_on_c, 0, 68, 71
2,97785, Note_on_c, 0, 68, 0
2,97804, Note_on_c, 0, 66, 71
2,97807, Note_on_c, 0, 63, 58
2,97847, Note_on_c, 0, 63, 0
2,97908, Note_on_c, 0, 66, 0
2,97924, Note_on_c, 0, 70, 72
2,98069, Note_on_c, 0, 68, 71
2,98070, Note_on_c, 0, 53, 44
2,98107, Note_on_c, 0, 53, 0
2,98114, Note_on_c, 0, 75, 0
2,98200, Note_on_c, 0, 66, 68
2,98204, Note_on_c, 0, 70, 0
2,98242, Note_on_c, 0, 68, 0
2,98327, Note_on_c, 0, 73, 72
2,98335, Note_on_c, 0, 61, 47
2,98335, Note_on_c, 0, 66, 0
2,98346, Note_on_c, 0, 65, 61
2,98382, Note_on_c, 0, 61, 0
2,98459, Note_on_c, 0, 68, 68
2,98555, Note_on_c, 0, 68, 0
2,98565, Note_on_c, 0, 65, 0
2,98579, Note_on_c, 0, 66, 58
2,98601, Note_on_c, 0, 51, 50
2,98605, Note_on_c, 0, 72, 71
2,98629, Note_on_c, 0, 73, 0
2,98650, Note_on_c, 0, 51, 0
2,98671, Note_on_c, 0, 66, 0
2,98731, Note_on_c, 0, 65, 58
2,98846, Note_on_c, 0, 75, 76
2,98852, Note_on_c, 0, 65, 0
2,98908, Note_on_c, 0, 66, 49
2,99004, Note_on_c, 0, 63, 62
2,99036, Note_on_c, 0, 66, 0
2,99047, Note_on_c, 0, 72, 0
2,99130, Note_on_c, 0, 63, 0
2,99132, Note_on_c, 0, 49, 49
2,99138, Note_on_c, 0, 65, 50
2,99252, Note_on_c, 0, 49, 0
2,99280, Note_on_c, 0, 44, 51
2,99405, Note_on_c, 0, 68, 69
2,99421, Note_on_c, 0, 49, 61
2,99443, Note_on_c, 0, 44, 0
2,99460, Note_on_c, 0, 75, 0
2,99544, Note_on_c, 0, 51, 66
2,99565, Note_on_c, 0, 49, 0
2,99667, Note_on_c, 0, 51, 0
2,99671, Note_on_c, 0, 73, 77
2,99675, Note_on_c, 0, 53, 74
2,99796, Note_on_c, 0, 54, 79
2,99805, Note_on_c, 0, 53, 0
2,99885, Note_on_c, 0, 65, 0
2,99899, Note_on_c, 0, 68, 0
2,99936, Note_on_c, 0, 56, 72
2,99942, Note_on_c, 0, 71, 82
2,99970, Note_on_c, 0, 54, 0
2,99976, Note_on_c, 0, 73, 0
2,100046, Note_on_c, 0, 56, 0
2,100058, Note_on_c, 0, 53, 76
2,100207, Note_on_c, 0, 54, 70
2,100211, Note_on_c, 0, 53, 0
2,100226, Note_on_c, 0, 70, 79
2,100233, Note_on_c, 0, 71, 0
2,100259, Note_on_c, 0, 54, 0
2,100264, Control_c, 0, 64, 42
2,100283, Control_c, 0, 64, 57
2,100302, Control_c, 0, 64, 64
2,100321, Control_c, 0, 64, 71
2,100341, Control_c, 0, 64, 84
2,100341, Note_on_c, 0, 42, 67
2,100360, Control_c, 0, 64, 112
2,100379, Control_c, 0, 64, 127
2,100428, Note_on_c, 0, 42, 0
2,100480, Note_on_c, 0, 54, 69
2,100511, Note_on_c, 0, 61, 61
2,100532, Control_c, 0, 64, 118
2,100538, Note_on_c, 0, 54, 0
2,100552, Control_c, 0, 64, 91
2,100570, Control_c, 0, 64, 77
2,100590, Control_c, 0, 64, 68
2,100596, Note_on_c, 0, 53, 62
2,100609, Control_c, 0, 64, 62
2,100629, Control_c, 0, 64, 56
2,100647, Control_c, 0, 64, 52
2,100667, Control_c, 0, 64, 50
2,100686, Control_c, 0, 64, 47
2,100706, Control_c, 0, 64, 45
2,100724, Control_c, 0, 64, 42
2,100744, Control_c, 0, 64, 39
2,100749, Note_on_c, 0, 53, 0
2,100761, Note_on_c, 0, 54, 66
2,100761, Note_on_c, 0, 66, 71
2,100763, Control_c, 0, 64, 37
2,100782, Control_c, 0, 64, 36
2,100801, Control_c, 0, 64, 34
2,100821, Control_c, 0, 64, 32
2,100821, Note_on_c, 0, 61, 0
2,100840, Control_c, 0, 64, 28
2,100859, Control_c, 0, 64, 25
2,100878, Control_c, 0, 64, 24
2,100901, Note_on_c, 0, 56, 67
2,100916, Control_c, 0, 64, 23
2,100923, Note_on_c, 0, 54, 0
2,100935, Control_c, 0, 64, 22
2,100955, Control_c, 0, 64, 20
2,100974, Control_c, 0, 64, 15
2,100993, Control_c, 0, 64, 9
2,101012, Control_c, 0, 64, 0
2,101027, Note_on_c, 0, 56, 0
2,101028, Note_on_c, 0, 65, 64
2,101040, Note_on_c, 0, 58, 55
2,101045, Note_on_c, 0, 66, 0
2,101158, Note_on_c, 0, 58, 0
2,101166, Note_on_c, 0, 54, 65
2,101292, Note_on_c, 0, 54, 0
2,101298, Note_on_c, 0, 51, 54
2,101308, Note_on_c, 0, 66, 69
2,101314, Note_on_c, 0, 70, 0
2,101365, Note_on_c, 0, 65, 0
2,101418, Note_on_c, 0, 51, 0
2,101439, Note_on_c, 0, 53, 60
2,101558, Note_on_c, 0, 53, 0
2,101571, Note_on_c, 0, 54, 65
2,101573, Note_on_c, 0, 70, 80
2,101587, Note_on_c, 0, 66, 0
2,101707, Note_on_c, 0, 51, 58
2,101707, Note_on_c, 0, 66, 77
2,101707, Note_on_c, 0, 70, 0
2,101730, Note_on_c, 0, 54, 0
2,101838, Note_on_c, 0, 51, 0
2,101838, Note_on_c, 0, 63, 76
2,101846, Note_on_c, 0, 66, 0
2,101861, Note_on_c, 0, 48, 51
2,101979, Note_on_c, 0, 49, 66
2,101982, Note_on_c, 0, 48, 0
2,102111, Note_on_c, 0, 51, 58
2,102113, Note_on_c, 0, 63, 0
2,102113, Note_on_c, 0, 66, 72
2,102114, Note_on_c, 0, 49, 0
2,102205, Note_on_c, 0, 51, 0
2,102236, Note_on_c, 0, 66, 0
2,102238, Note_on_c, 0, 48, 53
2,102243, Note_on_c, 0, 63, 76
2,102342, Note_on_c, 0, 48, 0
2,102355, Note_on_c, 0, 63, 0
2,102374, Note_on_c, 0, 56, 72
2,102385, Note_on_c, 0, 41, 62
2,102394, Control_c, 0, 64, 46
2,102413, Control_c, 0, 64, 65
2,102432, Control_c, 0, 64, 72
2,102435, Note_on_c, 0, 41, 0
2,102451, Control_c, 0, 64, 89
2,102471, Control_c, 0, 64, 127
2,102625, Control_c, 0, 64, 101
2,102643, Control_c, 0, 64, 74
2,102659, Note_on_c, 0, 53, 59
2,102663, Control_c, 0, 64, 58
2,102665, Note_on_c, 0, 63, 66
2,102682, Control_c, 0, 64, 0
2,102696, Note_on_c, 0, 63, 0
2,102744, Note_on_c, 0, 53, 0
2,102788, Note_on_c, 0, 51, 60
2,102916, Note_on_c, 0, 51, 0
2,102931, Note_on_c, 0, 68, 85
2,102943, Note_on_c, 0, 53, 57
2,103056, Note_on_c, 0, 53, 0
2,103057, Note_on_c, 0, 56, 0
2,103080, Note_on_c, 0, 54, 62
2,103208, Note_on_c, 0, 56, 65
2,103210, Note_on_c, 0, 60, 62
2,103222, Note_on_c, 0, 54, 0
2,103255, Note_on_c, 0, 60, 0
2,103331, Note_on_c, 0, 56, 0
2,103345, Note_on_c, 0, 53, 66
2,103494, Note_on_c, 0, 50, 55
2,103500, Note_on_c, 0, 65, 67
2,103508, Note_on_c, 0, 53, 0
2,103531, Note_on_c, 0, 68, 0
2,103625, Note_on_c, 0, 51, 64
2,103631, Note_on_c, 0, 50, 0
2,103723, Note_on_c, 0, 51, 0
2,103751, Note_on_c, 0, 53, 67
2,103767, Note_on_c, 0, 68, 84
2,103777, Note_on_c, 0, 65, 0
2,103854, Note_on_c, 0, 53, 0
2,103881, Note_on_c, 0, 68, 0
2,103882, Note_on_c, 0, 65, 74
2,103886, Note_on_c, 0, 50, 76
2,103983, Note_on_c, 0, 50, 0
2,104005, Note_on_c, 0, 65, 0
2,104010, Note_on_c, 0, 62, 69
2,104017, Note_on_c, 0, 46, 67
2,104139, Note_on_c, 0, 48, 70
2,104155, Note_on_c, 0, 46, 0
2,104217, Note_on_c, 0, 48, 0
2,104254, Note_on_c, 0, 50, 68
2,104261, Note_on_c, 0, 62, 0
2,104285, Note_on_c, 0, 65, 59
2,104350, Note_on_c, 0, 50, 0
2,104391, Note_on_c, 0, 65, 0
2,104410, Note_on_c, 0, 62, 62
2,104512, Note_on_c, 0, 62, 0
2,104545, Note_on_c, 0, 39, 60
2,104546, Control_c, 0, 64, 47
2,104551, Note_on_c, 0, 54, 68
2,104564, Control_c, 0, 64, 62
2,104584, Control_c, 0, 64, 67
2,104592, Note_on_c, 0, 39, 0
2,104603, Control_c, 0, 64, 76
2,104622, Control_c, 0, 64, 93
2,104641, Control_c, 0, 64, 127
2,104795, Control_c, 0, 64, 96
2,104814, Control_c, 0, 64, 79
2,104833, Control_c, 0, 64, 69
2,104836, Note_on_c, 0, 58, 66
2,104842, Note_on_c, 0, 51, 56
2,104852, Control_c, 0, 64, 62
2,104872, Control_c, 0, 64, 48
2,104876, Note_on_c, 0, 58, 0
2,104890, Control_c, 0, 64, 36
2,104910, Control_c, 0, 64, 31
2,104915, Note_on_c, 0, 51, 0
2,104929, Control_c, 0, 64, 27
2,104949, Control_c, 0, 64, 24
2,104967, Control_c, 0, 64, 21
2,104968, Note_on_c, 0, 50, 57
2,104987, Control_c, 0, 64, 18
2,105006, Control_c, 0, 64, 17
2,105043, Control_c, 0, 64, 15
2,105092, Note_on_c, 0, 54, 0
2,105107, Note_on_c, 0, 66, 71
2,105116, Note_on_c, 0, 50, 0
2,105120, Note_on_c, 0, 51, 59
2,105215, Note_on_c, 0, 51, 0
2,105235, Control_c, 0, 64, 17
2,105252, Note_on_c, 0, 53, 63
2,105312, Control_c, 0, 64, 18
2,105331, Control_c, 0, 64, 19
2,105351, Control_c, 0, 64, 20
2,105351, Note_on_c, 0, 53, 0
2,105370, Control_c, 0, 64, 24
2,105386, Note_on_c, 0, 54, 64
2,105386, Note_on_c, 0, 58, 63
2,105389, Control_c, 0, 64, 28
2,105408, Control_c, 0, 64, 29
2,105422, Note_on_c, 0, 58, 0
2,105428, Control_c, 0, 64, 30
2,105505, Control_c, 0, 64, 31
2,105521, Note_on_c, 0, 51, 61
2,105541, Note_on_c, 0, 54, 0
2,105543, Control_c, 0, 64, 31
2,105600, Control_c, 0, 64, 32
2,105620, Control_c, 0, 64, 33
2,105636, Note_on_c, 0, 51, 0
2,105639, Control_c, 0, 64, 34
2,105649, Note_on_c, 0, 63, 66
2,105657, Control_c, 0, 64, 34
2,105662, Note_on_c, 0, 48, 50
2,105696, Control_c, 0, 64, 35
2,105717, Note_on_c, 0, 66, 0
2,105734, Control_c, 0, 64, 35
2,105779, Note_on_c, 0, 65, 69
2,105791, Note_on_c, 0, 49, 68
2,105792, Control_c, 0, 64, 36
2,105799, Note_on_c, 0, 48, 0
2,105811, Control_c, 0, 64, 37
2,105823, Note_on_c, 0, 63, 0
2,105831, Control_c, 0, 64, 37
2,105850, Control_c, 0, 64, 38
2,105892, Control_c, 0, 64, 38
2,105908, Note_on_c, 0, 66, 77
2,105917, Note_on_c, 0, 51, 67
2,105923, Note_on_c, 0, 49, 0
2,105930, Control_c, 0, 64, 39
2,105946, Note_on_c, 0, 65, 0
2,105950, Control_c, 0, 64, 40
2,105969, Control_c, 0, 64, 40
2,105988, Control_c, 0, 64, 41
2,106007, Control_c, 0, 64, 41
2,106012, Note_on_c, 0, 51, 0
2,106023, Note_on_c, 0, 66, 0
2,106027, Control_c, 0, 64, 42
2,106036, Note_on_c, 0, 48, 69
2,106042, Note_on_c, 0, 63, 80
2,106065, Control_c, 0, 64, 43
2,106084, Control_c, 0, 64, 43
2,106104, Control_c, 0, 64, 44
2,106122, Control_c, 0, 64, 44
2,106159, Note_on_c, 0, 48, 0
2,106164, Note_on_c, 0, 44, 65
2,106180, Note_on_c, 0, 75, 86
2,106195, Note_on_c, 0, 63, 0
2,106199, Control_c, 0, 64, 44
2,106219, Control_c, 0, 64, 42
2,106238, Control_c, 0, 64, 38
2,106256, Control_c, 0, 64, 27
2,106276, Control_c, 0, 64, 0
2,106301, Note_on_c, 0, 46, 65
2,106309, Note_on_c, 0, 44, 0
2,106316, Note_on_c, 0, 66, 71
2,106391, Note_on_c, 0, 46, 0
2,106432, Note_on_c, 0, 48, 60
2,106435, Note_on_c, 0, 66, 0
2,106440, Note_on_c, 0, 68, 68
2,106529, Note_on_c, 0, 48, 0
2,106554, Note_on_c, 0, 68, 0
2,106566, Note_on_c, 0, 44, 58
2,106575, Note_on_c, 0, 63, 59
2,106670, Note_on_c, 0, 44, 0
2,106705, Note_on_c, 0, 37, 59
2,106711, Note_on_c, 0, 65, 61
2,106735, Note_on_c, 0, 63, 0
2,106736, Control_c, 0, 64, 43
2,106756, Control_c, 0, 64, 73
2,106775, Control_c, 0, 64, 89
2,106788, Note_on_c, 0, 65, 0
2,106795, Control_c, 0, 64, 127
2,106854, Note_on_c, 0, 73, 69
2,106908, Note_on_c, 0, 37, 0
2,106926, Note_on_c, 0, 75, 0
2,106974, Note_on_c, 0, 49, 66
2,106977, Note_on_c, 0, 72, 75
2,107013, Note_on_c, 0, 73, 0
2,107063, Note_on_c, 0, 49, 0
2,107091, Note_on_c, 0, 75, 82
2,107107, Note_on_c, 0, 72, 0
2,107116, Control_c, 0, 64, 108
2,107125, Note_on_c, 0, 51, 57
2,107135, Control_c, 0, 64, 83
2,107155, Control_c, 0, 64, 70
2,107173, Control_c, 0, 64, 59
2,107193, Control_c, 0, 64, 0
2,107231, Note_on_c, 0, 73, 84
2,107236, Note_on_c, 0, 53, 69
2,107238, Note_on_c, 0, 51, 0
2,107245, Note_on_c, 0, 75, 0
2,107270, Note_on_c, 0, 53, 0
2,107331, Note_on_c, 0, 73, 0
2,107370, Note_on_c, 0, 68, 76
2,107483, Note_on_c, 0, 68, 0
2,107501, Note_on_c, 0, 70, 76
2,107505, Note_on_c, 0, 61, 83
2,107518, Note_on_c, 0, 49, 64
2,107552, Note_on_c, 0, 49, 0
2,107633, Note_on_c, 0, 71, 74
2,107646, Note_on_c, 0, 70, 0
2,107781, Note_on_c, 0, 54, 58
2,107789, Note_on_c, 0, 70, 73
2,107802, Note_on_c, 0, 61, 0
2,107802, Note_on_c, 0, 71, 0
2,107919, Note_on_c, 0, 68, 78
2,107929, Note_on_c, 0, 70, 0
2,107935, Note_on_c, 0, 60, 53
2,107981, Control_c, 0, 64, 18
2,107999, Control_c, 0, 64, 31
2,108018, Control_c, 0, 64, 35
2,108024, Note_on_c, 0, 68, 0
2,108034, Note_on_c, 0, 60, 0
2,108038, Control_c, 0, 64, 35
2,108040, Note_on_c, 0, 58, 63
2,108050, Note_on_c, 0, 66, 81
2,108056, Note_on_c, 0, 54, 0
2,108095, Control_c, 0, 64, 35
2,108115, Control_c, 0, 64, 34
2,108116, Note_on_c, 0, 58, 0
2,108133, Control_c, 0, 64, 34
2,108173, Note_on_c, 0, 60, 70
2,108178, Note_on_c, 0, 66, 0
2,108185, Note_on_c, 0, 68, 84
2,108268, Control_c, 0, 64, 33
2,108272, Note_on_c, 0, 68, 0
2,108300, Note_on_c, 0, 60, 0
2,108307, Control_c, 0, 64, 32
2,108312, Note_on_c, 0, 61, 63
2,108313, Note_on_c, 0, 77, 89
2,108324, Note_on_c, 0, 53, 51
2,108325, Control_c, 0, 64, 30
2,108342, Note_on_c, 0, 77, 0
2,108345, Control_c, 0, 64, 27
2,108364, Control_c, 0, 64, 22
2,108384, Control_c, 0, 64, 21
2,108387, Note_on_c, 0, 61, 0
2,108402, Control_c, 0, 64, 20
2,108450, Note_on_c, 0, 60, 59
2,108555, Note_on_c, 0, 60, 0
2,108572, Note_on_c, 0, 58, 59
2,108581, Note_on_c, 0, 73, 75
2,108610, Note_on_c, 0, 73, 0
2,108668, Note_on_c, 0, 53, 0
2,108703, Note_on_c, 0, 56, 67
2,108709, Note_on_c, 0, 58, 0
2,108821, Note_on_c, 0, 56, 0
2,108848, Note_on_c, 0, 68, 84
2,108851, Note_on_c, 0, 51, 54
2,108854, Note_on_c, 0, 58, 59
2,108894, Note_on_c, 0, 51, 0
2,109140, Note_on_c, 0, 49, 58
2,109140, Note_on_c, 0, 66, 77
2,109155, Note_on_c, 0, 68, 0
2,109181, Note_on_c, 0, 49, 0
2,109237, Note_on_c, 0, 66, 0
2,109271, Note_on_c, 0, 65, 69
2,109376, Note_on_c, 0, 65, 0
2,109400, Note_on_c, 0, 48, 54
2,109404, Note_on_c, 0, 66, 73
2,109438, Note_on_c, 0, 66, 0
2,109503, Note_on_c, 0, 58, 0
2,109537, Note_on_c, 0, 56, 67
2,109663, Note_on_c, 0, 48, 0
2,109674, Note_on_c, 0, 75, 76
2,109677, Note_on_c, 0, 54, 58
2,109693, Note_on_c, 0, 56, 0
2,109703, Note_on_c, 0, 75, 0
2,109803, Note_on_c, 0, 58, 68
2,109843, Note_on_c, 0, 54, 0
2,109863, Control_c, 0, 64, 21
2,109924, Note_on_c, 0, 58, 0
2,109930, Note_on_c, 0, 56, 67
2,109942, Note_on_c, 0, 65, 67
2,109959, Control_c, 0, 64, 22
2,109962, Note_on_c, 0, 49, 52
2,109975, Note_on_c, 0, 65, 0
2,110063, Note_on_c, 0, 54, 60
2,110082, Note_on_c, 0, 56, 0
2,110207, Note_on_c, 0, 73, 74
2,110208, Note_on_c, 0, 53, 48
2,110209, Note_on_c, 0, 54, 0
2,110234, Note_on_c, 0, 49, 0
2,110248, Note_on_c, 0, 73, 0
2,110316, Note_on_c, 0, 53, 0
2,110341, Note_on_c, 0, 56, 65
2,110362, Control_c, 0, 64, 23
2,110420, Control_c, 0, 64, 24
2,110439, Control_c, 0, 64, 25
2,110455, Note_on_c, 0, 56, 0
2,110457, Control_c, 0, 64, 27
2,110461, Note_on_c, 0, 63, 62
2,110466, Note_on_c, 0, 54, 67
2,110477, Control_c, 0, 64, 27
2,110485, Note_on_c, 0, 44, 48
2,110496, Control_c, 0, 64, 28
2,110516, Control_c, 0, 64, 29
2,110524, Note_on_c, 0, 63, 0
2,110554, Note_on_c, 0, 54, 0
2,110616, Note_on_c, 0, 53, 60
2,110688, Control_c, 0, 64, 29
2,110717, Note_on_c, 0, 53, 0
2,110728, Control_c, 0, 64, 30
2,110745, Note_on_c, 0, 72, 68
2,110747, Note_on_c, 0, 51, 60
2,110785, Note_on_c, 0, 72, 0
2,110804, Note_on_c, 0, 44, 0
2,110883, Note_on_c, 0, 54, 60
2,110886, Note_on_c, 0, 51, 0
2,110956, Control_c, 0, 64, 31
2,111024, Note_on_c, 0, 53, 59
2,111026, Note_on_c, 0, 54, 0
2,111026, Note_on_c, 0, 61, 54
2,111031, Note_on_c, 0, 46, 37
2,111033, Control_c, 0, 64, 31
2,111052, Control_c, 0, 64, 32
2,111071, Control_c, 0, 64, 32
2,111083, Note_on_c, 0, 46, 0
2,111090, Control_c, 0, 64, 33
2,111119, Note_on_c, 0, 61, 0
2,111148, Control_c, 0, 64, 34
2,111151, Note_on_c, 0, 53, 0
2,111154, Note_on_c, 0, 65, 59
2,111167, Note_on_c, 0, 56, 63
2,111280, Note_on_c, 0, 66, 70
2,111286, Note_on_c, 0, 65, 0
2,111303, Note_on_c, 0, 58, 60
2,111341, Note_on_c, 0, 56, 0
2,111407, Note_on_c, 0, 68, 81
2,111417, Note_on_c, 0, 58, 0
2,111427, Note_on_c, 0, 60, 68
2,111437, Note_on_c, 0, 66, 0
2,111536, Note_on_c, 0, 70, 82
2,111553, Note_on_c, 0, 61, 72
2,111565, Note_on_c, 0, 60, 0
2,111596, Note_on_c, 0, 68, 0
2,111640, Note_on_c, 0, 70, 0
2,111663, Note_on_c, 0, 61, 0
2,111670, Note_on_c, 0, 72, 89
2,111689, Note_on_c, 0, 60, 72
2,111709, Control_c, 0, 64, 32
2,111728, Control_c, 0, 64, 30
2,111747, Control_c, 0, 64, 28
2,111766, Control_c, 0, 64, 22
2,111786, Control_c, 0, 64, 0
2,111810, Note_on_c, 0, 73, 86
2,111812, Note_on_c, 0, 60, 0
2,111816, Note_on_c, 0, 58, 69
2,111826, Note_on_c, 0, 72, 0
2,111932, Note_on_c, 0, 75, 91
2,111941, Note_on_c, 0, 56, 72
2,111958, Note_on_c, 0, 58, 0
2,111975, Note_on_c, 0, 73, 0
2,112063, Note_on_c, 0, 76, 83
2,112072, Note_on_c, 0, 56, 0
2,112076, Note_on_c, 0, 55, 71
2,112094, Note_on_c, 0, 75, 0
2,112199, Note_on_c, 0, 56, 77
2,112200, Note_on_c, 0, 75, 92
2,112222, Note_on_c, 0, 55, 0
2,112261, Note_on_c, 0, 76, 0
2,112285, Control_c, 0, 64, 55
2,112304, Control_c, 0, 64, 64
2,112322, Note_on_c, 0, 58, 80
2,112323, Control_c, 0, 64, 69
2,112329, Note_on_c, 0, 73, 89
2,112330, Note_on_c, 0, 56, 0
2,112343, Control_c, 0, 64, 78
2,112349, Note_on_c, 0, 75, 0
2,112361, Control_c, 0, 64, 104
2,112381, Control_c, 0, 64, 127
2,112446, Note_on_c, 0, 55, 79
2,112456, Note_on_c, 0, 58, 0
2,112463, Note_on_c, 0, 75, 98
2,112489, Note_on_c, 0, 55, 0
2,112504, Note_on_c, 0, 73, 0
2,112558, Note_on_c, 0, 75, 0
2,112587, Note_on_c, 0, 76, 89
2,112592, Control_c, 0, 64, 96
2,112601, Note_on_c, 0, 51, 75
2,112611, Control_c, 0, 64, 73
2,112631, Control_c, 0, 64, 51
2,112649, Control_c, 0, 64, 0
2,112710, Note_on_c, 0, 49, 73
2,112717, Note_on_c, 0, 79, 90
2,112731, Note_on_c, 0, 76, 0
2,112845, Note_on_c, 0, 49, 0
2,112850, Note_on_c, 0, 48, 69
2,112854, Note_on_c, 0, 80, 89
2,112856, Note_on_c, 0, 79, 0
2,112916, Control_c, 0, 64, 27
2,112921, Note_on_c, 0, 51, 0
2,112934, Control_c, 0, 64, 64
2,112954, Control_c, 0, 64, 70
2,112973, Control_c, 0, 64, 78
2,112977, Note_on_c, 0, 82, 83
2,112981, Note_on_c, 0, 80, 0
2,112991, Note_on_c, 0, 46, 72
2,112992, Control_c, 0, 64, 89
2,112994, Note_on_c, 0, 48, 0
2,113011, Control_c, 0, 64, 107
2,113031, Control_c, 0, 64, 127
2,113072, Note_on_c, 0, 82, 0
2,113122, Note_on_c, 0, 73, 79
2,113132, Note_on_c, 0, 44, 68
2,113185, Control_c, 0, 64, 107
2,113203, Control_c, 0, 64, 86
2,113220, Control_c, 0, 64, 72
2,113235, Note_on_c, 0, 46, 0
2,113235, Note_on_c, 0, 73, 0
2,113239, Control_c, 0, 64, 63
2,113246, Note_on_c, 0, 72, 83
2,113257, Note_on_c, 0, 51, 72
2,113258, Control_c, 0, 64, 47
2,113277, Control_c, 0, 64, 0
2,113327, Note_on_c, 0, 44, 0
2,113384, Note_on_c, 0, 70, 88
2,113392, Note_on_c, 0, 72, 0
2,113393, Note_on_c, 0, 53, 75
2,113395, Note_on_c, 0, 51, 0
2,113489, Note_on_c, 0, 53, 0
2,113509, Note_on_c, 0, 68, 90
2,113523, Note_on_c, 0, 54, 74
2,113539, Note_on_c, 0, 70, 0
2,113614, Note_on_c, 0, 68, 0
2,113651, Note_on_c, 0, 56, 78
2,113653, Note_on_c, 0, 75, 90
2,113672, Note_on_c, 0, 54, 0
2,113678, Note_on_c, 0, 75, 0
2,113749, Note_on_c, 0, 56, 0
2,113771, Note_on_c, 0, 58, 81
2,113894, Note_on_c, 0, 58, 0
2,113910, Note_on_c, 0, 60, 65
2,113910, Note_on_c, 0, 66, 89
2,113960, Note_on_c, 0, 66, 0
2,114066, Note_on_c, 0, 56, 78
2,114077, Note_on_c, 0, 60, 0
2,114137, Note_on_c, 0, 56, 0
2,114199, Note_on_c, 0, 65, 80
2,114209, Note_on_c, 0, 61, 74
2,114242, Note_on_c, 0, 61, 0
2,114260, Note_on_c, 0, 65, 0
2,114514, Note_on_c, 0, 68, 80
2,114515, Note_on_c, 0, 41, 71
2,114517, Note_on_c, 0, 73, 80
2,114520, Note_on_c, 0, 61, 72
2,114560, Note_on_c, 0, 41, 0
2,114562, Note_on_c, 0, 61, 0
2,114570, Note_on_c, 0, 68, 0
2,114602, Note_on_c, 0, 73, 0
2,114859, Note_on_c, 0, 42, 70
2,114859, Note_on_c, 0, 70, 80
2,114860, Note_on_c, 0, 63, 71
2,114863, Note_on_c, 0, 66, 72
2,114904, Note_on_c, 0, 42, 0
2,114921, Note_on_c, 0, 66, 0
2,114928, Note_on_c, 0, 70, 0
2,115265, Note_on_c, 0, 72, 80
2,115267, Note_on_c, 0, 68, 70
2,115270, Note_on_c, 0, 66, 68
2,115271, Note_on_c, 0, 44, 70
2,115316, Note_on_c, 0, 44, 0
2,115327, Note_on_c, 0, 63, 0
2,115342, Note_on_c, 0, 68, 0
2,115353, Note_on_c, 0, 66, 0
2,115360, Note_on_c, 0, 72, 0
2,115957, Note_on_c, 0, 73, 79
2,115968, Note_on_c, 0, 68, 66
2,115972, Note_on_c, 0, 37, 67
2,115977, Note_on_c, 0, 65, 61
2,115981, Note_on_c, 0, 61, 68
2,117738, Control_c, 0, 64, 18
2,117758, Control_c, 0, 64, 30
2,117777, Control_c, 0, 64, 42
2,117796, Control_c, 0, 64, 50
2,117815, Control_c, 0, 64, 53
2,117835, Control_c, 0, 64, 55
2,117853, Control_c, 0, 64, 56
2,117873, Control_c, 0, 64, 57
2,117892, Control_c, 0, 64, 58
2,117911, Control_c, 0, 64, 59
2,117930, Control_c, 0, 64, 60
2,117949, Control_c, 0, 64, 60
2,117969, Control_c, 0, 64, 61
2,117988, Control_c, 0, 64, 62
2,118007, Control_c, 0, 64, 63
2,118026, Control_c, 0, 64, 63
2,118064, Control_c, 0, 64, 64
2,118084, Control_c, 0, 64, 65
2,118103, Control_c, 0, 64, 65
2,118123, Control_c, 0, 64, 66
2,118141, Control_c, 0, 64, 67
2,118161, Control_c, 0, 64, 69
2,118180, Control_c, 0, 64, 71
2,118199, Control_c, 0, 64, 74
2,118218, Control_c, 0, 64, 77
2,118238, Control_c, 0, 64, 81
2,118257, Control_c, 0, 64, 84
2,118276, Control_c, 0, 64, 89
2,118295, Control_c, 0, 64, 95
2,118315, Control_c, 0, 64, 105
2,118333, Control_c, 0, 64, 127
2,118445, Note_on_c, 0, 37, 0
2,118447, Note_on_c, 0, 61, 0
2,118455, Note_on_c, 0, 65, 0
2,118458, Note_on_c, 0, 73, 0
2,118476, Note_on_c, 0, 68, 0
2,118754, Control_c, 0, 64, 117
2,118773, Control_c, 0, 64, 102
2,118793, Control_c, 0, 64, 93
2,118812, Control_c, 0, 64, 88
2,118830, Control_c, 0, 64, 84
2,118850, Control_c, 0, 64, 80
2,118869, Control_c, 0, 64, 75
2,118888, Control_c, 0, 64, 71
2,118907, Control_c, 0, 64, 67
2,118927, Control_c, 0, 64, 65
2,118946, Control_c, 0, 64, 64
2,118965, Control_c, 0, 64, 63
2,118984, Control_c, 0, 64, 62
2,119004, Control_c, 0, 64, 61
2,119023, Control_c, 0, 64, 60
2,119042, Control_c, 0, 64, 58
2,119061, Control_c, 0, 64, 56
2,119081, Control_c, 0, 64, 52
2,119099, Control_c, 0, 64, 48
2,119119, Control_c, 0, 64, 44
2,119138, Control_c, 0, 64, 43
2,119158, Control_c, 0, 64, 41
2,119176, Control_c, 0, 64, 41
2,119196, Control_c, 0, 64, 40
2,119234, Control_c, 0, 64, 40
2,119330, Control_c, 0, 64, 39
2,119331, End_track
0, 0, End_of_file
