0, 0, Header, 1, 2, 384
1, 0, Start_track
1, 0, Tempo, 500000
1, 0, Time_signature, 4, 2, 24, 8
1, 1, End_track
2, 0, Start_track
2, 0, Title_t, "performer 4"
2, 0, Program_c, 0, 0
2, 0, Control_c, 0, 64, 0
2, 0, Control_c, 0, 66, 0
2, 0, Control_c, 0, 67, 127
2, 750, Note_on_c, 0, 68, 46
2, 759, Note_on_c, 0, 49, 42
2, 1058, Note_on_c, 0, 66, 50
2, 1322, Note_on_c, 0, 64, 55
2, 1580, Note_on_c, 0, 63, 54
2, 1649, Note_on_c, 0, 64, 0
2, 1723, Note_on_c, 0, 66, 0
2, 1828, Note_on_c, 0, 64, 56
2, 1892, Note_on_c, 0, 63, 0
2, 2066, Note_on_c, 0, 61, 58
2, 2068, Note_on_c, 0, 64, 0
2, 2311, Note_on_c, 0, 64, 59
2, 2353, Note_on_c, 0, 68, 0
2, 2374, Note_on_c, 0, 68, 42
2, 2389, Note_on_c, 0, 61, 0
2, 2499, Note_on_c, 0, 73, 68
2, 3207, Note_on_c, 0, 71, 60
2, 3261, Note_on_c, 0, 68, 0
2, 3462, Note_on_c, 0, 66, 58
2, 3474, Note_on_c, 0, 69, 61
2, 3507, Note_on_c, 0, 71, 0
2, 3515, Note_on_c, 0, 73, 0
2, 3752, Note_on_c, 0, 64, 0
2, 3982, Note_on_c, 0, 68, 61
2, 3991, Note_on_c, 0, 64, 43
2, 3994, Note_on_c, 0, 56, 42
2, 4159, Note_on_c, 0, 69, 0
2, 4215, Note_on_c, 0, 54, 56
2, 4263, Note_on_c, 0, 66, 0
2, 4441, Note_on_c, 0, 52, 65
2, 4536, Note_on_c, 0, 54, 0
2, 4649, Control_c, 0, 67, 123
2, 4662, Note_on_c, 0, 51, 69
2, 4664, Control_c, 0, 67, 109
2, 4680, Control_c, 0, 67, 94
2, 4695, Control_c, 0, 67, 81
2, 4710, Control_c, 0, 67, 68
2, 4712, Note_on_c, 0, 52, 0
2, 4725, Control_c, 0, 67, 57
2, 4740, Control_c, 0, 67, 45
2, 4755, Control_c, 0, 67, 33
2, 4771, Control_c, 0, 67, 20
2, 4786, Control_c, 0, 67, 8
2, 4801, Control_c, 0, 67, 0
2, 4897, Note_on_c, 0, 52, 67
2, 4963, Note_on_c, 0, 51, 0
2, 4965, Note_on_c, 0, 49, 0
2, 5104, Note_on_c, 0, 49, 63
2, 5150, Note_on_c, 0, 56, 0
2, 5192, Note_on_c, 0, 52, 0
2, 5379, Note_on_c, 0, 61, 63
2, 6025, Note_on_c, 0, 59, 61
2, 6086, Note_on_c, 0, 61, 0
2, 6300, Note_on_c, 0, 66, 67
2, 6314, Note_on_c, 0, 57, 56
2, 6336, Note_on_c, 0, 64, 0
2, 6351, Note_on_c, 0, 59, 0
2, 6460, Note_on_c, 0, 68, 0
2, 6786, Note_on_c, 0, 75, 71
2, 6808, Note_on_c, 0, 48, 50
2, 6816, Note_on_c, 0, 56, 54
2, 6865, Note_on_c, 0, 49, 0
2, 6918, Note_on_c, 0, 57, 0
2, 7033, Note_on_c, 0, 73, 69
2, 7256, Note_on_c, 0, 72, 68
2, 7318, Note_on_c, 0, 73, 0
2, 7463, Note_on_c, 0, 70, 70
2, 7485, Note_on_c, 0, 72, 0
2, 7703, Note_on_c, 0, 72, 65
2, 7731, Note_on_c, 0, 70, 0
2, 7767, Control_c, 0, 64, 47
2, 7782, Control_c, 0, 64, 64
2, 7798, Control_c, 0, 64, 70
2, 7813, Control_c, 0, 64, 77
2, 7828, Control_c, 0, 64, 84
2, 7843, Control_c, 0, 64, 90
2, 7858, Control_c, 0, 64, 93
2, 7873, Control_c, 0, 64, 95
2, 7888, Control_c, 0, 64, 97
2, 7903, Control_c, 0, 64, 99
2, 7908, Note_on_c, 0, 68, 72
2, 7919, Control_c, 0, 64, 101
2, 7929, Note_on_c, 0, 72, 0
2, 7934, Control_c, 0, 64, 102
2, 7949, Note_on_c, 0, 75, 0
2, 7960, Note_on_c, 0, 66, 0
2, 8005, Note_on_c, 0, 68, 0
2, 8010, Control_c, 0, 64, 101
2, 8025, Control_c, 0, 64, 101
2, 8040, Control_c, 0, 64, 100
2, 8055, Control_c, 0, 64, 99
2, 8115, Control_c, 0, 64, 99
2, 8118, Note_on_c, 0, 68, 74
2, 8131, Control_c, 0, 64, 98
2, 8146, Control_c, 0, 64, 95
2, 8162, Control_c, 0, 64, 93
2, 8177, Control_c, 0, 64, 91
2, 8190, Note_on_c, 0, 75, 76
2, 8192, Control_c, 0, 64, 90
2, 8208, Control_c, 0, 64, 88
2, 8223, Control_c, 0, 64, 84
2, 8239, Control_c, 0, 64, 76
2, 8253, Control_c, 0, 64, 63
2, 8268, Control_c, 0, 64, 0
2, 8281, Note_on_c, 0, 80, 83
2, 8550, Control_c, 0, 64, 55
2, 8566, Control_c, 0, 64, 66
2, 8580, Control_c, 0, 64, 75
2, 8595, Control_c, 0, 64, 86
2, 8611, Control_c, 0, 64, 99
2, 8626, Control_c, 0, 64, 113
2, 8642, Control_c, 0, 64, 115
2, 8657, Control_c, 0, 64, 115
2, 8800, Note_on_c, 0, 48, 0
2, 8839, Control_c, 0, 64, 114
2, 8869, Control_c, 0, 64, 114
2, 8931, Note_on_c, 0, 78, 80
2, 8944, Control_c, 0, 64, 113
2, 8955, Note_on_c, 0, 75, 0
2, 8960, Control_c, 0, 64, 113
2, 8975, Control_c, 0, 64, 112
2, 9006, Control_c, 0, 64, 112
2, 9021, Control_c, 0, 64, 111
2, 9037, Control_c, 0, 64, 111
2, 9043, Note_on_c, 0, 68, 0
2, 9051, Control_c, 0, 64, 109
2, 9066, Control_c, 0, 64, 108
2, 9097, Control_c, 0, 64, 107
2, 9112, Control_c, 0, 64, 106
2, 9128, Control_c, 0, 64, 105
2, 9149, Control_c, 0, 64, 100
2, 9150, Note_on_c, 0, 56, 0
2, 9165, Control_c, 0, 64, 92
2, 9180, Control_c, 0, 64, 80
2, 9188, Note_on_c, 0, 76, 76
2, 9194, Note_on_c, 0, 68, 50
2, 9195, Control_c, 0, 64, 63
2, 9197, Note_on_c, 0, 73, 66
2, 9207, Note_on_c, 0, 49, 46
2, 9211, Control_c, 0, 64, 0
2, 9214, Note_on_c, 0, 61, 53
2, 9290, Note_on_c, 0, 78, 0
2, 9309, Note_on_c, 0, 80, 0
2, 9333, Control_c, 0, 64, 19
2, 9348, Control_c, 0, 64, 63
2, 9364, Control_c, 0, 64, 74
2, 9378, Control_c, 0, 64, 90
2, 9393, Control_c, 0, 64, 127
2, 9400, Note_on_c, 0, 49, 0
2, 9427, Note_on_c, 0, 68, 0
2, 9441, Note_on_c, 0, 61, 0
2, 9473, Note_on_c, 0, 73, 0
2, 9586, Note_on_c, 0, 68, 51
2, 9622, Control_c, 0, 64, 118
2, 9633, Note_on_c, 0, 56, 51
2, 9635, Note_on_c, 0, 72, 65
2, 9638, Control_c, 0, 64, 108
2, 9648, Note_on_c, 0, 63, 63
2, 9652, Control_c, 0, 64, 100
2, 9667, Control_c, 0, 64, 93
2, 9678, Note_on_c, 0, 75, 72
2, 9683, Control_c, 0, 64, 86
2, 9698, Control_c, 0, 64, 77
2, 9712, Control_c, 0, 64, 68
2, 9713, Note_on_c, 0, 76, 0
2, 9728, Control_c, 0, 64, 53
2, 9743, Control_c, 0, 64, 0
2, 9872, Note_on_c, 0, 61, 65
2, 10109, Note_on_c, 0, 60, 62
2, 10230, Note_on_c, 0, 61, 0
2, 10303, Note_on_c, 0, 58, 69
2, 10338, Note_on_c, 0, 60, 0
2, 10529, Note_on_c, 0, 60, 69
2, 10575, Note_on_c, 0, 56, 0
2, 10592, Note_on_c, 0, 58, 0
2, 10740, Note_on_c, 0, 56, 67
2, 10828, Note_on_c, 0, 63, 0
2, 11008, Note_on_c, 0, 66, 71
2, 11062, Note_on_c, 0, 60, 0
2, 11277, Control_c, 0, 64, 40
2, 11293, Control_c, 0, 64, 64
2, 11308, Control_c, 0, 64, 70
2, 11324, Control_c, 0, 64, 75
2, 11338, Control_c, 0, 64, 80
2, 11353, Control_c, 0, 64, 85
2, 11369, Control_c, 0, 64, 89
2, 11384, Control_c, 0, 64, 92
2, 11398, Control_c, 0, 64, 96
2, 11414, Control_c, 0, 64, 98
2, 11429, Control_c, 0, 64, 98
2, 11466, Note_on_c, 0, 68, 0
2, 11482, Control_c, 0, 64, 99
2, 11509, Note_on_c, 0, 72, 0
2, 11543, Control_c, 0, 64, 98
2, 11574, Control_c, 0, 64, 98
2, 11634, Control_c, 0, 64, 97
2, 11648, Note_on_c, 0, 64, 77
2, 11650, Control_c, 0, 64, 96
2, 11665, Control_c, 0, 64, 95
2, 11679, Control_c, 0, 64, 93
2, 11695, Control_c, 0, 64, 93
2, 11710, Control_c, 0, 64, 92
2, 11725, Control_c, 0, 64, 92
2, 11740, Control_c, 0, 64, 90
2, 11755, Control_c, 0, 64, 88
2, 11771, Control_c, 0, 64, 85
2, 11774, Note_on_c, 0, 66, 0
2, 11786, Control_c, 0, 64, 80
2, 11802, Control_c, 0, 64, 73
2, 11818, Control_c, 0, 64, 66
2, 11832, Control_c, 0, 64, 52
2, 11848, Control_c, 0, 64, 24
2, 11863, Control_c, 0, 64, 0
2, 11969, Note_on_c, 0, 80, 83
2, 11979, Note_on_c, 0, 72, 71
2, 11982, Note_on_c, 0, 63, 63
2, 11984, Note_on_c, 0, 68, 67
2, 12024, Note_on_c, 0, 64, 0
2, 12094, Note_on_c, 0, 75, 0
2, 12197, Control_c, 0, 64, 60
2, 12220, Control_c, 0, 64, 69
2, 12235, Control_c, 0, 64, 77
2, 12250, Control_c, 0, 64, 87
2, 12265, Control_c, 0, 64, 95
2, 12280, Control_c, 0, 64, 100
2, 12296, Control_c, 0, 64, 100
2, 12327, Control_c, 0, 64, 100
2, 12355, Note_on_c, 0, 68, 0
2, 12372, Control_c, 0, 64, 100
2, 12418, Control_c, 0, 64, 100
2, 12433, Control_c, 0, 64, 99
2, 12448, Control_c, 0, 64, 98
2, 12463, Control_c, 0, 64, 98
2, 12478, Control_c, 0, 64, 97
2, 12494, Control_c, 0, 64, 97
2, 12509, Control_c, 0, 64, 96
2, 12524, Control_c, 0, 64, 95
2, 12539, Control_c, 0, 64, 94
2, 12554, Control_c, 0, 64, 93
2, 12569, Control_c, 0, 64, 92
2, 12584, Control_c, 0, 64, 91
2, 12594, Note_on_c, 0, 73, 76
2, 12599, Control_c, 0, 64, 88
2, 12604, Note_on_c, 0, 69, 60
2, 12607, Note_on_c, 0, 64, 56
2, 12615, Control_c, 0, 64, 83
2, 12631, Control_c, 0, 64, 74
2, 12646, Note_on_c, 0, 72, 0
2, 12647, Control_c, 0, 64, 63
2, 12662, Control_c, 0, 64, 0
2, 12675, Note_on_c, 0, 63, 0
2, 12867, Note_on_c, 0, 72, 71
2, 12999, Note_on_c, 0, 80, 0
2, 13002, Note_on_c, 0, 73, 0
2, 13115, Note_on_c, 0, 73, 75
2, 13226, Note_on_c, 0, 72, 0
2, 13340, Note_on_c, 0, 76, 75
2, 13343, Note_on_c, 0, 73, 0
2, 13632, Note_on_c, 0, 81, 75
2, 13828, Note_on_c, 0, 69, 0
2, 13833, Control_c, 0, 64, 57
2, 13840, Note_on_c, 0, 76, 0
2, 13849, Control_c, 0, 64, 67
2, 13863, Control_c, 0, 64, 75
2, 13878, Control_c, 0, 64, 86
2, 13894, Control_c, 0, 64, 102
2, 13909, Control_c, 0, 64, 127
2, 13984, Control_c, 0, 64, 123
2, 13999, Control_c, 0, 64, 121
2, 14015, Control_c, 0, 64, 119
2, 14030, Control_c, 0, 64, 116
2, 14046, Control_c, 0, 64, 113
2, 14060, Control_c, 0, 64, 109
2, 14075, Control_c, 0, 64, 105
2, 14091, Control_c, 0, 64, 101
2, 14106, Control_c, 0, 64, 100
2, 14121, Control_c, 0, 64, 99
2, 14137, Control_c, 0, 64, 98
2, 14152, Control_c, 0, 64, 97
2, 14167, Control_c, 0, 64, 94
2, 14182, Control_c, 0, 64, 91
2, 14197, Control_c, 0, 64, 87
2, 14210, Note_on_c, 0, 54, 45
2, 14213, Control_c, 0, 64, 82
2, 14216, Note_on_c, 0, 69, 51
2, 14222, Note_on_c, 0, 63, 47
2, 14228, Control_c, 0, 64, 74
2, 14244, Control_c, 0, 64, 64
2, 14259, Control_c, 0, 64, 39
2, 14274, Control_c, 0, 64, 0
2, 14329, Note_on_c, 0, 64, 0
2, 14359, Note_on_c, 0, 56, 0
2, 14487, Control_c, 0, 64, 33
2, 14497, Note_on_c, 0, 80, 64
2, 14502, Control_c, 0, 64, 59
2, 14525, Control_c, 0, 64, 66
2, 14540, Control_c, 0, 64, 70
2, 14555, Control_c, 0, 64, 77
2, 14571, Control_c, 0, 64, 81
2, 14586, Control_c, 0, 64, 85
2, 14601, Control_c, 0, 64, 86
2, 14631, Control_c, 0, 64, 85
2, 14748, Note_on_c, 0, 78, 68
2, 14773, Note_on_c, 0, 81, 0
2, 14802, Note_on_c, 0, 80, 0
2, 14844, Control_c, 0, 64, 85
2, 14859, Control_c, 0, 64, 84
2, 14874, Control_c, 0, 64, 84
2, 14890, Control_c, 0, 64, 83
2, 14904, Control_c, 0, 64, 83
2, 14919, Control_c, 0, 64, 82
2, 14935, Control_c, 0, 64, 81
2, 14950, Control_c, 0, 64, 81
2, 14953, Note_on_c, 0, 78, 0
2, 14966, Control_c, 0, 64, 80
2, 14971, Note_on_c, 0, 76, 62
2, 15026, Control_c, 0, 64, 79
2, 15041, Control_c, 0, 64, 79
2, 15057, Control_c, 0, 64, 78
2, 15072, Control_c, 0, 64, 77
2, 15088, Control_c, 0, 64, 76
2, 15103, Control_c, 0, 64, 76
2, 15179, Control_c, 0, 64, 75
2, 15182, Note_on_c, 0, 75, 70
2, 15210, Control_c, 0, 64, 75
2, 15225, Control_c, 0, 64, 74
2, 15240, Control_c, 0, 64, 73
2, 15255, Control_c, 0, 64, 73
2, 15265, Note_on_c, 0, 76, 0
2, 15270, Control_c, 0, 64, 72
2, 15293, Control_c, 0, 64, 71
2, 15308, Control_c, 0, 64, 71
2, 15324, Control_c, 0, 64, 70
2, 15338, Control_c, 0, 64, 69
2, 15353, Control_c, 0, 64, 68
2, 15369, Control_c, 0, 64, 68
2, 15384, Control_c, 0, 64, 67
2, 15399, Control_c, 0, 64, 67
2, 15405, Note_on_c, 0, 73, 67
2, 15414, Control_c, 0, 64, 66
2, 15429, Control_c, 0, 64, 66
2, 15460, Control_c, 0, 64, 65
2, 15469, Note_on_c, 0, 75, 0
2, 15490, Control_c, 0, 64, 65
2, 15505, Control_c, 0, 64, 64
2, 15536, Control_c, 0, 64, 64
2, 15566, Control_c, 0, 64, 63
2, 15581, Control_c, 0, 64, 63
2, 15596, Control_c, 0, 64, 62
2, 15612, Control_c, 0, 64, 62
2, 15626, Control_c, 0, 64, 61
2, 15641, Control_c, 0, 64, 58
2, 15657, Control_c, 0, 64, 56
2, 15659, Note_on_c, 0, 68, 53
2, 15661, Note_on_c, 0, 71, 60
2, 15671, Control_c, 0, 64, 52
2, 15687, Control_c, 0, 64, 47
2, 15702, Control_c, 0, 64, 40
2, 15714, Note_on_c, 0, 69, 0
2, 15717, Control_c, 0, 64, 29
2, 15733, Control_c, 0, 64, 12
2, 15748, Control_c, 0, 64, 0
2, 15833, Note_on_c, 0, 73, 0
2, 15902, Note_on_c, 0, 69, 62
2, 15979, Note_on_c, 0, 71, 0
2, 16140, Note_on_c, 0, 71, 61
2, 16218, Note_on_c, 0, 69, 0
2, 16369, Note_on_c, 0, 75, 74
2, 16395, Control_c, 0, 64, 24
2, 16411, Control_c, 0, 64, 41
2, 16426, Control_c, 0, 64, 46
2, 16440, Control_c, 0, 64, 48
2, 16454, Note_on_c, 0, 68, 0
2, 16502, Control_c, 0, 64, 48
2, 16516, Control_c, 0, 64, 49
2, 16532, Control_c, 0, 64, 49
2, 16547, Control_c, 0, 64, 51
2, 16562, Control_c, 0, 64, 53
2, 16578, Control_c, 0, 64, 54
2, 16592, Control_c, 0, 64, 56
2, 16608, Control_c, 0, 64, 58
2, 16623, Control_c, 0, 64, 60
2, 16637, Control_c, 0, 64, 62
2, 16653, Control_c, 0, 64, 65
2, 16657, Note_on_c, 0, 80, 75
2, 16668, Control_c, 0, 64, 67
2, 16684, Control_c, 0, 64, 70
2, 16699, Control_c, 0, 64, 73
2, 16715, Control_c, 0, 64, 77
2, 16731, Control_c, 0, 64, 81
2, 16745, Control_c, 0, 64, 84
2, 16745, Note_on_c, 0, 71, 0
2, 16760, Control_c, 0, 64, 87
2, 16766, Note_on_c, 0, 75, 0
2, 16776, Control_c, 0, 64, 87
2, 16890, Control_c, 0, 64, 87
2, 16905, Control_c, 0, 64, 86
2, 16920, Control_c, 0, 64, 85
2, 16935, Control_c, 0, 64, 84
2, 16965, Control_c, 0, 64, 84
2, 16980, Control_c, 0, 64, 83
2, 16995, Control_c, 0, 64, 82
2, 17011, Control_c, 0, 64, 81
2, 17026, Control_c, 0, 64, 80
2, 17041, Control_c, 0, 64, 80
2, 17071, Control_c, 0, 64, 79
2, 17087, Control_c, 0, 64, 78
2, 17102, Control_c, 0, 64, 77
2, 17117, Control_c, 0, 64, 76
2, 17133, Control_c, 0, 64, 75
2, 17148, Control_c, 0, 64, 73
2, 17162, Control_c, 0, 64, 70
2, 17178, Control_c, 0, 64, 66
2, 17190, Note_on_c, 0, 61, 49
2, 17191, Note_on_c, 0, 68, 62
2, 17193, Control_c, 0, 64, 59
2, 17197, Note_on_c, 0, 52, 41
2, 17209, Control_c, 0, 64, 35
2, 17224, Control_c, 0, 64, 0
2, 17298, Note_on_c, 0, 54, 0
2, 17298, Note_on_c, 0, 63, 0
2, 17435, Control_c, 0, 64, 8
2, 17451, Control_c, 0, 64, 56
2, 17466, Control_c, 0, 64, 65
2, 17481, Control_c, 0, 64, 70
2, 17497, Control_c, 0, 64, 75
2, 17497, Note_on_c, 0, 78, 62
2, 17512, Control_c, 0, 64, 79
2, 17528, Control_c, 0, 64, 82
2, 17543, Control_c, 0, 64, 84
2, 17558, Control_c, 0, 64, 85
2, 17573, Note_on_c, 0, 80, 0
2, 17612, Control_c, 0, 64, 85
2, 17627, Control_c, 0, 64, 86
2, 17642, Control_c, 0, 64, 87
2, 17653, Note_on_c, 0, 78, 0
2, 17759, Note_on_c, 0, 76, 59
2, 17778, Control_c, 0, 64, 86
2, 17793, Control_c, 0, 64, 86
2, 17809, Control_c, 0, 64, 85
2, 17839, Control_c, 0, 64, 85
2, 17854, Control_c, 0, 64, 84
2, 17869, Control_c, 0, 64, 83
2, 17885, Control_c, 0, 64, 82
2, 17900, Control_c, 0, 64, 81
2, 17930, Control_c, 0, 64, 81
2, 17960, Control_c, 0, 64, 80
2, 17973, Note_on_c, 0, 75, 65
2, 17976, Control_c, 0, 64, 80
2, 17990, Control_c, 0, 64, 79
2, 18006, Control_c, 0, 64, 79
2, 18021, Control_c, 0, 64, 78
2, 18036, Control_c, 0, 64, 78
2, 18081, Control_c, 0, 64, 77
2, 18173, Control_c, 0, 64, 77
2, 18194, Note_on_c, 0, 73, 63
2, 18202, Control_c, 0, 64, 76
2, 18218, Control_c, 0, 64, 76
2, 18233, Control_c, 0, 64, 75
2, 18249, Control_c, 0, 64, 74
2, 18264, Control_c, 0, 64, 74
2, 18279, Control_c, 0, 64, 73
2, 18331, Note_on_c, 0, 76, 0
2, 18364, Control_c, 0, 64, 73
2, 18423, Note_on_c, 0, 71, 54
2, 18425, Control_c, 0, 64, 72
2, 18426, Note_on_c, 0, 75, 0
2, 18455, Control_c, 0, 64, 72
2, 18469, Note_on_c, 0, 68, 0
2, 18486, Control_c, 0, 64, 71
2, 18501, Control_c, 0, 64, 71
2, 18515, Control_c, 0, 64, 70
2, 18531, Control_c, 0, 64, 70
2, 18546, Control_c, 0, 64, 69
2, 18560, Control_c, 0, 64, 68
2, 18576, Control_c, 0, 64, 68
2, 18591, Control_c, 0, 64, 67
2, 18604, Note_on_c, 0, 73, 0
2, 18607, Control_c, 0, 64, 66
2, 18622, Control_c, 0, 64, 66
2, 18637, Control_c, 0, 64, 65
2, 18652, Control_c, 0, 64, 64
2, 18660, Note_on_c, 0, 69, 50
2, 18667, Control_c, 0, 64, 61
2, 18667, Note_on_c, 0, 66, 44
2, 18682, Control_c, 0, 64, 55
2, 18694, Note_on_c, 0, 71, 0
2, 18698, Control_c, 0, 64, 42
2, 18713, Control_c, 0, 64, 0
2, 18887, Note_on_c, 0, 68, 56
2, 18965, Note_on_c, 0, 69, 0
2, 19132, Note_on_c, 0, 69, 46
2, 19192, Note_on_c, 0, 68, 0
2, 19361, Note_on_c, 0, 73, 56
2, 19662, Note_on_c, 0, 78, 62
2, 19679, Control_c, 0, 64, 49
2, 19694, Control_c, 0, 64, 63
2, 19709, Control_c, 0, 64, 67
2, 19725, Control_c, 0, 64, 71
2, 19739, Control_c, 0, 64, 75
2, 19747, Note_on_c, 0, 69, 0
2, 19754, Control_c, 0, 64, 80
2, 19770, Control_c, 0, 64, 86
2, 19785, Control_c, 0, 64, 93
2, 19800, Control_c, 0, 64, 104
2, 19807, Note_on_c, 0, 73, 0
2, 19815, Control_c, 0, 64, 112
2, 19826, Note_on_c, 0, 61, 0
2, 19830, Control_c, 0, 64, 113
2, 19846, Control_c, 0, 64, 113
2, 19854, Note_on_c, 0, 52, 0
2, 19860, Note_on_c, 0, 66, 0
2, 19861, Control_c, 0, 64, 112
2, 19959, Control_c, 0, 64, 111
2, 19975, Control_c, 0, 64, 110
2, 19990, Control_c, 0, 64, 110
2, 20037, Control_c, 0, 64, 109
2, 20053, Control_c, 0, 64, 108
2, 20068, Control_c, 0, 64, 105
2, 20084, Control_c, 0, 64, 103
2, 20098, Control_c, 0, 64, 101
2, 20113, Control_c, 0, 64, 100
2, 20129, Control_c, 0, 64, 99
2, 20144, Control_c, 0, 64, 97
2, 20159, Control_c, 0, 64, 94
2, 20174, Control_c, 0, 64, 89
2, 20178, Note_on_c, 0, 66, 55
2, 20189, Control_c, 0, 64, 81
2, 20191, Note_on_c, 0, 51, 43
2, 20193, Note_on_c, 0, 59, 46
2, 20205, Control_c, 0, 64, 71
2, 20220, Control_c, 0, 64, 54
2, 20235, Control_c, 0, 64, 0
2, 20448, Control_c, 0, 64, 53
2, 20462, Control_c, 0, 64, 64
2, 20477, Control_c, 0, 64, 69
2, 20488, Note_on_c, 0, 76, 55
2, 20493, Control_c, 0, 64, 74
2, 20508, Control_c, 0, 64, 79
2, 20524, Control_c, 0, 64, 84
2, 20539, Control_c, 0, 64, 91
2, 20554, Control_c, 0, 64, 95
2, 20570, Control_c, 0, 64, 97
2, 20698, Control_c, 0, 64, 97
2, 20717, Note_on_c, 0, 75, 61
2, 20729, Control_c, 0, 64, 96
2, 20731, Note_on_c, 0, 78, 0
2, 20749, Note_on_c, 0, 76, 0
2, 20789, Control_c, 0, 64, 96
2, 20820, Control_c, 0, 64, 95
2, 20851, Control_c, 0, 64, 95
2, 20881, Control_c, 0, 64, 94
2, 20911, Control_c, 0, 64, 94
2, 20942, Note_on_c, 0, 73, 56
2, 20959, Note_on_c, 0, 75, 0
2, 20984, Note_on_c, 0, 73, 0
2, 21033, Control_c, 0, 64, 93
2, 21109, Control_c, 0, 64, 93
2, 21166, Note_on_c, 0, 71, 54
2, 21215, Note_on_c, 0, 66, 0
2, 21216, Control_c, 0, 64, 92
2, 21246, Control_c, 0, 64, 92
2, 21261, Control_c, 0, 64, 91
2, 21276, Control_c, 0, 64, 91
2, 21292, Control_c, 0, 64, 90
2, 21306, Control_c, 0, 64, 89
2, 21321, Control_c, 0, 64, 88
2, 21337, Control_c, 0, 64, 88
2, 21352, Control_c, 0, 64, 87
2, 21368, Control_c, 0, 64, 87
2, 21376, Note_on_c, 0, 51, 0
2, 21382, Control_c, 0, 64, 86
2, 21386, Note_on_c, 0, 69, 54
2, 21397, Control_c, 0, 64, 86
2, 21413, Control_c, 0, 64, 85
2, 21435, Control_c, 0, 64, 85
2, 21451, Control_c, 0, 64, 84
2, 21466, Control_c, 0, 64, 83
2, 21481, Control_c, 0, 64, 83
2, 21497, Control_c, 0, 64, 82
2, 21511, Control_c, 0, 64, 81
2, 21527, Control_c, 0, 64, 81
2, 21541, Control_c, 0, 64, 80
2, 21550, Note_on_c, 0, 71, 0
2, 21556, Control_c, 0, 64, 80
2, 21572, Control_c, 0, 64, 79
2, 21587, Control_c, 0, 64, 79
2, 21602, Control_c, 0, 64, 78
2, 21607, Note_on_c, 0, 52, 37
2, 21618, Control_c, 0, 64, 76
2, 21633, Control_c, 0, 64, 72
2, 21642, Note_on_c, 0, 64, 43
2, 21642, Note_on_c, 0, 68, 52
2, 21649, Control_c, 0, 64, 66
2, 21664, Control_c, 0, 64, 53
2, 21679, Control_c, 0, 64, 0
2, 21765, Note_on_c, 0, 69, 0
2, 21874, Note_on_c, 0, 57, 44
2, 21876, Control_c, 0, 64, 47
2, 21892, Control_c, 0, 64, 59
2, 21907, Control_c, 0, 64, 63
2, 21922, Control_c, 0, 64, 63
2, 21997, Control_c, 0, 64, 63
2, 22044, Control_c, 0, 64, 62
2, 22073, Control_c, 0, 64, 62
2, 22104, Control_c, 0, 64, 61
2, 22113, Note_on_c, 0, 56, 56
2, 22119, Control_c, 0, 64, 61
2, 22125, Note_on_c, 0, 57, 0
2, 22150, Control_c, 0, 64, 60
2, 22180, Control_c, 0, 64, 60
2, 22249, Control_c, 0, 64, 59
2, 22264, Control_c, 0, 64, 59
2, 22278, Control_c, 0, 64, 58
2, 22294, Control_c, 0, 64, 57
2, 22309, Control_c, 0, 64, 57
2, 22325, Control_c, 0, 64, 56
2, 22340, Control_c, 0, 64, 56
2, 22342, Note_on_c, 0, 54, 61
2, 22354, Control_c, 0, 64, 55
2, 22370, Control_c, 0, 64, 54
2, 22385, Control_c, 0, 64, 53
2, 22395, Note_on_c, 0, 56, 0
2, 22400, Control_c, 0, 64, 51
2, 22416, Control_c, 0, 64, 49
2, 22431, Control_c, 0, 64, 47
2, 22447, Control_c, 0, 64, 46
2, 22462, Control_c, 0, 64, 44
2, 22477, Control_c, 0, 64, 44
2, 22522, Control_c, 0, 64, 43
2, 22553, Control_c, 0, 64, 43
2, 22565, Note_on_c, 0, 56, 60
2, 22584, Control_c, 0, 64, 42
2, 22594, Note_on_c, 0, 52, 0
2, 22599, Control_c, 0, 64, 41
2, 22629, Control_c, 0, 64, 40
2, 22660, Control_c, 0, 64, 40
2, 22675, Control_c, 0, 64, 39
2, 22705, Control_c, 0, 64, 38
2, 22718, Note_on_c, 0, 54, 0
2, 22720, Control_c, 0, 64, 37
2, 22736, Control_c, 0, 64, 36
2, 22751, Control_c, 0, 64, 33
2, 22767, Control_c, 0, 64, 28
2, 22782, Control_c, 0, 64, 20
2, 22788, Note_on_c, 0, 52, 61
2, 22797, Control_c, 0, 64, 8
2, 22813, Control_c, 0, 64, 0
2, 22852, Note_on_c, 0, 59, 0
2, 22864, Note_on_c, 0, 64, 0
2, 22877, Note_on_c, 0, 56, 0
2, 23113, Note_on_c, 0, 64, 62
2, 23791, Note_on_c, 0, 66, 62
2, 23813, Note_on_c, 0, 63, 56
2, 23848, Note_on_c, 0, 64, 0
2, 23919, Note_on_c, 0, 68, 0
2, 24076, Note_on_c, 0, 61, 52
2, 24088, Note_on_c, 0, 69, 64
2, 24121, Note_on_c, 0, 63, 0
2, 24170, Note_on_c, 0, 66, 0
2, 24197, Control_c, 0, 64, 20
2, 24213, Control_c, 0, 64, 36
2, 24228, Control_c, 0, 64, 48
2, 24242, Control_c, 0, 64, 57
2, 24258, Control_c, 0, 64, 62
2, 24273, Control_c, 0, 64, 65
2, 24289, Control_c, 0, 64, 67
2, 24304, Control_c, 0, 64, 69
2, 24318, Control_c, 0, 64, 71
2, 24327, Note_on_c, 0, 52, 0
2, 24334, Control_c, 0, 64, 75
2, 24349, Control_c, 0, 64, 78
2, 24365, Control_c, 0, 64, 80
2, 24380, Control_c, 0, 64, 81
2, 24486, Control_c, 0, 64, 80
2, 24509, Control_c, 0, 64, 79
2, 24525, Control_c, 0, 64, 79
2, 24539, Control_c, 0, 64, 78
2, 24554, Control_c, 0, 64, 78
2, 24570, Control_c, 0, 64, 77
2, 24585, Control_c, 0, 64, 76
2, 24594, Note_on_c, 0, 60, 50
2, 24599, Control_c, 0, 64, 74
2, 24601, Note_on_c, 0, 51, 51
2, 24615, Control_c, 0, 64, 70
2, 24630, Control_c, 0, 64, 65
2, 24646, Control_c, 0, 64, 55
2, 24660, Control_c, 0, 64, 27
2, 24675, Control_c, 0, 64, 0
2, 24740, Note_on_c, 0, 61, 0
2, 24831, Note_on_c, 0, 68, 62
2, 25071, Note_on_c, 0, 69, 0
2, 25075, Note_on_c, 0, 66, 64
2, 25307, Note_on_c, 0, 64, 51
2, 25321, Note_on_c, 0, 68, 0
2, 25383, Note_on_c, 0, 66, 0
2, 25526, Note_on_c, 0, 66, 62
2, 25566, Control_c, 0, 64, 28
2, 25580, Control_c, 0, 64, 56
2, 25583, Note_on_c, 0, 64, 0
2, 25595, Control_c, 0, 64, 63
2, 25611, Control_c, 0, 64, 66
2, 25626, Control_c, 0, 64, 68
2, 25641, Control_c, 0, 64, 70
2, 25657, Control_c, 0, 64, 71
2, 25672, Control_c, 0, 64, 72
2, 25688, Control_c, 0, 64, 73
2, 25702, Control_c, 0, 64, 73
2, 25762, Note_on_c, 0, 63, 63
2, 25870, Control_c, 0, 64, 73
2, 25901, Control_c, 0, 64, 72
2, 25908, Note_on_c, 0, 66, 0
2, 25916, Control_c, 0, 64, 72
2, 25931, Control_c, 0, 64, 71
2, 25946, Control_c, 0, 64, 71
2, 25961, Control_c, 0, 64, 70
2, 25977, Control_c, 0, 64, 69
2, 25992, Control_c, 0, 64, 68
2, 26007, Control_c, 0, 64, 67
2, 26007, Note_on_c, 0, 56, 59
2, 26012, Note_on_c, 0, 75, 72
2, 26022, Control_c, 0, 64, 65
2, 26045, Control_c, 0, 64, 61
2, 26060, Control_c, 0, 64, 50
2, 26075, Control_c, 0, 64, 0
2, 26228, Note_on_c, 0, 51, 0
2, 26247, Note_on_c, 0, 73, 72
2, 26287, Control_c, 0, 64, 42
2, 26302, Control_c, 0, 64, 55
2, 26317, Control_c, 0, 64, 62
2, 26333, Control_c, 0, 64, 64
2, 26347, Control_c, 0, 64, 64
2, 26482, Note_on_c, 0, 72, 72
2, 26669, Note_on_c, 0, 63, 0
2, 26684, Control_c, 0, 64, 65
2, 26700, Note_on_c, 0, 70, 75
2, 26705, Note_on_c, 0, 54, 60
2, 26713, Note_on_c, 0, 73, 0
2, 26729, Control_c, 0, 64, 65
2, 26734, Note_on_c, 0, 56, 0
2, 26746, Note_on_c, 0, 75, 0
2, 26774, Control_c, 0, 64, 66
2, 26809, Note_on_c, 0, 72, 0
2, 26904, Control_c, 0, 64, 64
2, 26919, Control_c, 0, 64, 58
2, 26935, Control_c, 0, 64, 33
2, 26947, Note_on_c, 0, 56, 63
2, 26950, Control_c, 0, 64, 0
2, 26952, Note_on_c, 0, 72, 73
2, 27026, Note_on_c, 0, 70, 0
2, 27057, Control_c, 0, 64, 46
2, 27071, Control_c, 0, 64, 62
2, 27087, Control_c, 0, 64, 69
2, 27091, Note_on_c, 0, 54, 0
2, 27102, Control_c, 0, 64, 75
2, 27116, Control_c, 0, 64, 82
2, 27132, Control_c, 0, 64, 89
2, 27147, Control_c, 0, 64, 97
2, 27162, Control_c, 0, 64, 100
2, 27178, Control_c, 0, 64, 101
2, 27182, Note_on_c, 0, 68, 77
2, 27183, Note_on_c, 0, 72, 0
2, 27192, Control_c, 0, 64, 100
2, 27238, Control_c, 0, 64, 101
2, 27299, Control_c, 0, 64, 100
2, 27313, Control_c, 0, 64, 100
2, 27360, Control_c, 0, 64, 99
2, 27376, Control_c, 0, 64, 99
2, 27391, Control_c, 0, 64, 98
2, 27407, Control_c, 0, 64, 97
2, 27421, Control_c, 0, 64, 96
2, 27436, Control_c, 0, 64, 93
2, 27452, Control_c, 0, 64, 86
2, 27467, Control_c, 0, 64, 76
2, 27471, Note_on_c, 0, 81, 80
2, 27479, Note_on_c, 0, 49, 63
2, 27482, Control_c, 0, 64, 65
2, 27497, Control_c, 0, 64, 34
2, 27512, Control_c, 0, 64, 0
2, 27609, Note_on_c, 0, 56, 0
2, 27672, Control_c, 0, 64, 43
2, 27688, Control_c, 0, 64, 58
2, 27702, Control_c, 0, 64, 63
2, 27717, Control_c, 0, 64, 65
2, 27733, Control_c, 0, 64, 66
2, 27748, Control_c, 0, 64, 68
2, 27763, Control_c, 0, 64, 71
2, 27765, Note_on_c, 0, 80, 79
2, 27778, Control_c, 0, 64, 75
2, 27793, Control_c, 0, 64, 80
2, 27809, Control_c, 0, 64, 84
2, 27824, Control_c, 0, 64, 88
2, 27839, Control_c, 0, 64, 89
2, 27889, Note_on_c, 0, 60, 0
2, 27900, Control_c, 0, 64, 90
2, 27976, Control_c, 0, 64, 89
2, 27987, Note_on_c, 0, 78, 77
2, 28066, Note_on_c, 0, 68, 0
2, 28097, Control_c, 0, 64, 89
2, 28157, Control_c, 0, 64, 88
2, 28173, Control_c, 0, 64, 83
2, 28189, Control_c, 0, 64, 72
2, 28193, Note_on_c, 0, 61, 68
2, 28205, Control_c, 0, 64, 37
2, 28214, Note_on_c, 0, 76, 71
2, 28216, Note_on_c, 0, 80, 0
2, 28220, Control_c, 0, 64, 0
2, 28253, Note_on_c, 0, 81, 0
2, 28290, Note_on_c, 0, 78, 0
2, 28311, Control_c, 0, 64, 56
2, 28327, Control_c, 0, 64, 65
2, 28349, Control_c, 0, 64, 69
2, 28365, Control_c, 0, 64, 73
2, 28380, Control_c, 0, 64, 76
2, 28394, Control_c, 0, 64, 79
2, 28397, Note_on_c, 0, 61, 0
2, 28410, Control_c, 0, 64, 80
2, 28425, Control_c, 0, 64, 78
2, 28440, Control_c, 0, 64, 72
2, 28456, Control_c, 0, 64, 63
2, 28463, Note_on_c, 0, 63, 73
2, 28471, Control_c, 0, 64, 0
2, 28476, Note_on_c, 0, 78, 69
2, 28535, Note_on_c, 0, 76, 0
2, 28593, Control_c, 0, 64, 57
2, 28608, Control_c, 0, 64, 67
2, 28623, Control_c, 0, 64, 74
2, 28638, Control_c, 0, 64, 82
2, 28654, Control_c, 0, 64, 89
2, 28669, Control_c, 0, 64, 95
2, 28683, Control_c, 0, 64, 98
2, 28696, Note_on_c, 0, 75, 75
2, 28714, Control_c, 0, 64, 97
2, 28714, Note_on_c, 0, 78, 0
2, 28730, Control_c, 0, 64, 97
2, 28741, Note_on_c, 0, 63, 0
2, 28790, Control_c, 0, 64, 96
2, 28806, Control_c, 0, 64, 96
2, 28821, Control_c, 0, 64, 95
2, 28867, Control_c, 0, 64, 95
2, 28881, Control_c, 0, 64, 92
2, 28897, Control_c, 0, 64, 86
2, 28912, Control_c, 0, 64, 75
2, 28927, Control_c, 0, 64, 64
2, 28939, Note_on_c, 0, 76, 63
2, 28942, Control_c, 0, 64, 0
2, 28959, Note_on_c, 0, 61, 65
2, 28971, Note_on_c, 0, 75, 0
2, 29065, Control_c, 0, 64, 39
2, 29080, Control_c, 0, 64, 53
2, 29096, Control_c, 0, 64, 59
2, 29117, Control_c, 0, 64, 62
2, 29133, Control_c, 0, 64, 63
2, 29148, Control_c, 0, 64, 64
2, 29198, Note_on_c, 0, 75, 68
2, 29299, Control_c, 0, 64, 65
2, 29405, Control_c, 0, 64, 64
2, 29426, Note_on_c, 0, 73, 66
2, 29512, Control_c, 0, 64, 64
2, 29633, Control_c, 0, 64, 63
2, 29640, Note_on_c, 0, 71, 59
2, 29648, Control_c, 0, 64, 61
2, 29655, Note_on_c, 0, 51, 62
2, 29663, Control_c, 0, 64, 56
2, 29678, Control_c, 0, 64, 45
2, 29690, Note_on_c, 0, 75, 0
2, 29694, Control_c, 0, 64, 15
2, 29709, Control_c, 0, 64, 0
2, 29716, Note_on_c, 0, 73, 0
2, 29762, Note_on_c, 0, 49, 0
2, 29912, Note_on_c, 0, 52, 59
2, 29912, Note_on_c, 0, 73, 67
2, 29959, Note_on_c, 0, 51, 0
2, 30019, Note_on_c, 0, 71, 0
2, 30098, Control_c, 0, 64, 27
2, 30113, Control_c, 0, 64, 56
2, 30129, Control_c, 0, 64, 64
2, 30144, Control_c, 0, 64, 67
2, 30145, Note_on_c, 0, 70, 61
2, 30158, Control_c, 0, 64, 70
2, 30174, Control_c, 0, 64, 73
2, 30189, Control_c, 0, 64, 75
2, 30205, Control_c, 0, 64, 76
2, 30271, Note_on_c, 0, 61, 0
2, 30315, Control_c, 0, 64, 75
2, 30330, Control_c, 0, 64, 75
2, 30344, Control_c, 0, 64, 74
2, 30360, Control_c, 0, 64, 74
2, 30375, Control_c, 0, 64, 72
2, 30391, Control_c, 0, 64, 69
2, 30400, Note_on_c, 0, 67, 65
2, 30406, Control_c, 0, 64, 64
2, 30415, Note_on_c, 0, 46, 54
2, 30421, Control_c, 0, 64, 47
2, 30437, Control_c, 0, 64, 0
2, 30477, Note_on_c, 0, 52, 0
2, 30588, Control_c, 0, 64, 39
2, 30593, Note_on_c, 0, 73, 0
2, 30604, Control_c, 0, 64, 60
2, 30617, Note_on_c, 0, 70, 0
2, 30618, Control_c, 0, 64, 67
2, 30634, Control_c, 0, 64, 71
2, 30651, Note_on_c, 0, 51, 60
2, 30657, Control_c, 0, 64, 75
2, 30673, Control_c, 0, 64, 77
2, 30688, Control_c, 0, 64, 78
2, 30779, Control_c, 0, 64, 77
2, 30824, Control_c, 0, 64, 77
2, 30855, Control_c, 0, 64, 76
2, 30871, Control_c, 0, 64, 75
2, 30871, Note_on_c, 0, 49, 61
2, 30888, Control_c, 0, 64, 75
2, 30904, Control_c, 0, 64, 74
2, 30933, Control_c, 0, 64, 75
2, 31093, Note_on_c, 0, 68, 65
2, 31093, Note_on_c, 0, 75, 72
2, 31097, Note_on_c, 0, 47, 62
2, 31117, Note_on_c, 0, 67, 0
2, 31146, Control_c, 0, 64, 75
2, 31175, Note_on_c, 0, 49, 0
2, 31191, Control_c, 0, 64, 75
2, 31192, Note_on_c, 0, 76, 0
2, 31246, Note_on_c, 0, 51, 0
2, 31268, Control_c, 0, 64, 75
2, 31298, Control_c, 0, 64, 74
2, 31313, Control_c, 0, 64, 68
2, 31328, Control_c, 0, 64, 56
2, 31344, Control_c, 0, 64, 0
2, 31346, Note_on_c, 0, 70, 68
2, 31350, Note_on_c, 0, 73, 79
2, 31355, Note_on_c, 0, 49, 66
2, 31369, Note_on_c, 0, 68, 0
2, 31375, Note_on_c, 0, 46, 0
2, 31381, Note_on_c, 0, 75, 0
2, 31432, Note_on_c, 0, 47, 0
2, 31489, Control_c, 0, 64, 51
2, 31504, Control_c, 0, 64, 63
2, 31519, Control_c, 0, 64, 68
2, 31534, Control_c, 0, 64, 72
2, 31550, Control_c, 0, 64, 75
2, 31565, Control_c, 0, 64, 76
2, 31576, Note_on_c, 0, 46, 75
2, 31598, Note_on_c, 0, 73, 0
2, 31671, Control_c, 0, 64, 75
2, 31686, Control_c, 0, 64, 74
2, 31717, Control_c, 0, 64, 74
2, 31777, Control_c, 0, 64, 73
2, 31793, Control_c, 0, 64, 72
2, 31808, Control_c, 0, 64, 70
2, 31822, Note_on_c, 0, 73, 72
2, 31824, Control_c, 0, 64, 67
2, 31829, Note_on_c, 0, 63, 65
2, 31831, Note_on_c, 0, 43, 61
2, 31838, Control_c, 0, 64, 63
2, 31853, Control_c, 0, 64, 48
2, 31864, Note_on_c, 0, 49, 0
2, 31869, Control_c, 0, 64, 0
2, 31940, Note_on_c, 0, 70, 0
2, 32069, Note_on_c, 0, 47, 66
2, 32091, Note_on_c, 0, 46, 0
2, 32297, Note_on_c, 0, 46, 71
2, 32392, Note_on_c, 0, 47, 0
2, 32523, Note_on_c, 0, 44, 62
2, 32525, Note_on_c, 0, 65, 60
2, 32525, Note_on_c, 0, 71, 62
2, 32576, Note_on_c, 0, 46, 0
2, 32606, Note_on_c, 0, 63, 0
2, 32625, Note_on_c, 0, 43, 0
2, 32780, Note_on_c, 0, 46, 62
2, 32782, Note_on_c, 0, 70, 66
2, 32805, Note_on_c, 0, 67, 62
2, 32811, Note_on_c, 0, 44, 0
2, 32851, Note_on_c, 0, 65, 0
2, 32892, Note_on_c, 0, 71, 0
2, 32907, Note_on_c, 0, 73, 0
2, 33037, Note_on_c, 0, 43, 56
2, 33361, Note_on_c, 0, 37, 64
2, 33452, Note_on_c, 0, 43, 0
2, 33620, Note_on_c, 0, 68, 60
2, 33638, Note_on_c, 0, 67, 0
2, 33874, Note_on_c, 0, 67, 60
2, 33957, Note_on_c, 0, 68, 0
2, 33973, Note_on_c, 0, 46, 0
2, 34081, Control_c, 0, 64, 19
2, 34092, Note_on_c, 0, 65, 61
2, 34096, Control_c, 0, 64, 32
2, 34112, Control_c, 0, 64, 41
2, 34127, Control_c, 0, 64, 47
2, 34142, Control_c, 0, 64, 51
2, 34157, Control_c, 0, 64, 55
2, 34172, Control_c, 0, 64, 57
2, 34187, Note_on_c, 0, 67, 0
2, 34188, Control_c, 0, 64, 58
2, 34203, Control_c, 0, 64, 59
2, 34233, Control_c, 0, 64, 59
2, 34264, Control_c, 0, 64, 60
2, 34279, Control_c, 0, 64, 61
2, 34294, Control_c, 0, 64, 62
2, 34310, Control_c, 0, 64, 62
2, 34323, Note_on_c, 0, 67, 63
2, 34325, Control_c, 0, 64, 63
2, 34340, Control_c, 0, 64, 64
2, 34350, Note_on_c, 0, 65, 0
2, 34353, Control_c, 0, 64, 64
2, 34368, Control_c, 0, 64, 65
2, 34383, Control_c, 0, 64, 65
2, 34399, Control_c, 0, 64, 66
2, 34414, Control_c, 0, 64, 67
2, 34429, Control_c, 0, 64, 68
2, 34444, Control_c, 0, 64, 69
2, 34459, Control_c, 0, 64, 70
2, 34475, Control_c, 0, 64, 70
2, 34497, Control_c, 0, 64, 71
2, 34554, Note_on_c, 0, 63, 63
2, 34598, Note_on_c, 0, 67, 0
2, 34609, Note_on_c, 0, 70, 0
2, 34635, Control_c, 0, 64, 70
2, 34664, Control_c, 0, 64, 70
2, 34680, Control_c, 0, 64, 69
2, 34694, Control_c, 0, 64, 69
2, 34709, Control_c, 0, 64, 68
2, 34725, Control_c, 0, 64, 68
2, 34741, Note_on_c, 0, 67, 54
2, 34757, Control_c, 0, 64, 67
2, 34787, Control_c, 0, 64, 67
2, 34802, Control_c, 0, 64, 66
2, 34817, Control_c, 0, 64, 66
2, 34819, Note_on_c, 0, 70, 74
2, 34833, Control_c, 0, 64, 65
2, 34848, Control_c, 0, 64, 65
2, 34863, Control_c, 0, 64, 64
2, 34872, Note_on_c, 0, 63, 0
2, 34878, Control_c, 0, 64, 62
2, 34893, Control_c, 0, 64, 60
2, 34908, Control_c, 0, 64, 58
2, 34922, Note_on_c, 0, 75, 75
2, 34923, Control_c, 0, 64, 55
2, 34938, Control_c, 0, 64, 54
2, 34969, Control_c, 0, 64, 54
2, 34984, Control_c, 0, 64, 53
2, 34999, Control_c, 0, 64, 52
2, 35014, Control_c, 0, 64, 51
2, 35090, Control_c, 0, 64, 52
2, 35105, Control_c, 0, 64, 54
2, 35121, Control_c, 0, 64, 56
2, 35136, Control_c, 0, 64, 58
2, 35151, Control_c, 0, 64, 60
2, 35166, Control_c, 0, 64, 62
2, 35181, Control_c, 0, 64, 63
2, 35197, Control_c, 0, 64, 65
2, 35205, Note_on_c, 0, 49, 56
2, 35212, Control_c, 0, 64, 67
2, 35227, Control_c, 0, 64, 69
2, 35243, Control_c, 0, 64, 73
2, 35265, Control_c, 0, 64, 75
2, 35281, Control_c, 0, 64, 77
2, 35287, Note_on_c, 0, 37, 0
2, 35295, Control_c, 0, 64, 78
2, 35402, Control_c, 0, 64, 77
2, 35417, Control_c, 0, 64, 77
2, 35467, Note_on_c, 0, 47, 62
2, 35478, Control_c, 0, 64, 76
2, 35493, Control_c, 0, 64, 76
2, 35499, Note_on_c, 0, 49, 0
2, 35508, Control_c, 0, 64, 75
2, 35524, Control_c, 0, 64, 75
2, 35538, Control_c, 0, 64, 74
2, 35570, Control_c, 0, 64, 74
2, 35585, Control_c, 0, 64, 73
2, 35601, Control_c, 0, 64, 73
2, 35616, Control_c, 0, 64, 72
2, 35631, Control_c, 0, 64, 71
2, 35646, Control_c, 0, 64, 71
2, 35653, Note_on_c, 0, 46, 71
2, 35661, Control_c, 0, 64, 70
2, 35677, Control_c, 0, 64, 70
2, 35692, Control_c, 0, 64, 69
2, 35707, Control_c, 0, 64, 69
2, 35722, Control_c, 0, 64, 68
2, 35726, Note_on_c, 0, 47, 0
2, 35737, Control_c, 0, 64, 67
2, 35753, Control_c, 0, 64, 66
2, 35767, Control_c, 0, 64, 65
2, 35782, Control_c, 0, 64, 64
2, 35798, Control_c, 0, 64, 63
2, 35813, Control_c, 0, 64, 63
2, 35828, Control_c, 0, 64, 62
2, 35843, Control_c, 0, 64, 61
2, 35858, Control_c, 0, 64, 60
2, 35874, Control_c, 0, 64, 59
2, 35889, Control_c, 0, 64, 58
2, 35898, Note_on_c, 0, 47, 69
2, 35901, Control_c, 0, 64, 57
2, 35901, Note_on_c, 0, 68, 69
2, 35916, Control_c, 0, 64, 56
2, 35932, Control_c, 0, 64, 54
2, 35947, Control_c, 0, 64, 52
2, 35963, Control_c, 0, 64, 48
2, 35964, Note_on_c, 0, 70, 0
2, 35969, Note_on_c, 0, 67, 0
2, 35971, Note_on_c, 0, 46, 0
2, 35977, Control_c, 0, 64, 43
2, 35992, Control_c, 0, 64, 39
2, 36008, Control_c, 0, 64, 37
2, 36031, Control_c, 0, 64, 35
2, 36047, Control_c, 0, 64, 33
2, 36061, Control_c, 0, 64, 31
2, 36076, Control_c, 0, 64, 29
2, 36092, Control_c, 0, 64, 25
2, 36106, Control_c, 0, 64, 22
2, 36122, Control_c, 0, 64, 20
2, 36127, Note_on_c, 0, 44, 71
2, 36137, Control_c, 0, 64, 18
2, 36152, Control_c, 0, 64, 16
2, 36168, Control_c, 0, 64, 15
2, 36182, Control_c, 0, 64, 14
2, 36198, Control_c, 0, 64, 12
2, 36213, Control_c, 0, 64, 10
2, 36224, Note_on_c, 0, 47, 0
2, 36228, Control_c, 0, 64, 8
2, 36244, Control_c, 0, 64, 0
2, 36414, Note_on_c, 0, 52, 68
2, 36561, Note_on_c, 0, 44, 0
2, 36657, Note_on_c, 0, 72, 68
2, 36736, Note_on_c, 0, 75, 0
2, 36912, Note_on_c, 0, 73, 71
2, 37090, Note_on_c, 0, 72, 0
2, 37130, Note_on_c, 0, 75, 70
2, 37136, Note_on_c, 0, 51, 59
2, 37290, Note_on_c, 0, 52, 0
2, 37325, Note_on_c, 0, 73, 0
2, 37372, Note_on_c, 0, 49, 56
2, 37378, Note_on_c, 0, 76, 58
2, 37439, Note_on_c, 0, 75, 0
2, 37454, Note_on_c, 0, 51, 0
2, 37603, Note_on_c, 0, 75, 60
2, 37694, Note_on_c, 0, 76, 0
2, 37847, Note_on_c, 0, 51, 50
2, 37847, Note_on_c, 0, 71, 53
2, 37912, Note_on_c, 0, 75, 0
2, 37962, Note_on_c, 0, 49, 0
2, 38143, Control_c, 0, 64, 48
2, 38158, Control_c, 0, 64, 60
2, 38174, Control_c, 0, 64, 64
2, 38188, Control_c, 0, 64, 66
2, 38203, Control_c, 0, 64, 68
2, 38219, Control_c, 0, 64, 70
2, 38234, Control_c, 0, 64, 73
2, 38250, Control_c, 0, 64, 76
2, 38265, Control_c, 0, 64, 80
2, 38280, Control_c, 0, 64, 85
2, 38295, Control_c, 0, 64, 89
2, 38310, Control_c, 0, 64, 92
2, 38333, Control_c, 0, 64, 94
2, 38439, Control_c, 0, 64, 93
2, 38531, Control_c, 0, 64, 92
2, 38540, Note_on_c, 0, 73, 57
2, 38546, Control_c, 0, 64, 92
2, 38560, Control_c, 0, 64, 91
2, 38577, Note_on_c, 0, 71, 0
2, 38591, Control_c, 0, 64, 91
2, 38607, Control_c, 0, 64, 90
2, 38622, Control_c, 0, 64, 90
2, 38636, Control_c, 0, 64, 89
2, 38652, Control_c, 0, 64, 88
2, 38667, Control_c, 0, 64, 87
2, 38682, Control_c, 0, 64, 86
2, 38698, Control_c, 0, 64, 85
2, 38712, Control_c, 0, 64, 84
2, 38728, Control_c, 0, 64, 82
2, 38743, Control_c, 0, 64, 80
2, 38757, Control_c, 0, 64, 79
2, 38773, Control_c, 0, 64, 77
2, 38788, Control_c, 0, 64, 74
2, 38803, Control_c, 0, 64, 67
2, 38818, Note_on_c, 0, 39, 40
2, 38819, Control_c, 0, 64, 55
2, 38834, Note_on_c, 0, 70, 57
2, 38835, Control_c, 0, 64, 0
2, 38866, Note_on_c, 0, 67, 30
2, 38927, Note_on_c, 0, 68, 0
2, 38972, Control_c, 0, 64, 20
2, 38986, Control_c, 0, 64, 60
2, 39001, Control_c, 0, 64, 68
2, 39008, Note_on_c, 0, 73, 0
2, 39017, Control_c, 0, 64, 78
2, 39032, Control_c, 0, 64, 89
2, 39048, Control_c, 0, 64, 101
2, 39053, Note_on_c, 0, 70, 0
2, 39063, Control_c, 0, 64, 112
2, 39063, Note_on_c, 0, 67, 0
2, 39078, Control_c, 0, 64, 113
2, 39101, Control_c, 0, 64, 111
2, 39116, Control_c, 0, 64, 110
2, 39192, Control_c, 0, 64, 109
2, 39207, Control_c, 0, 64, 108
2, 39222, Control_c, 0, 64, 107
2, 39237, Control_c, 0, 64, 106
2, 39268, Control_c, 0, 64, 105
2, 39283, Control_c, 0, 64, 104
2, 39299, Control_c, 0, 64, 102
2, 39313, Control_c, 0, 64, 99
2, 39322, Note_on_c, 0, 44, 47
2, 39329, Control_c, 0, 64, 96
2, 39344, Control_c, 0, 64, 94
2, 39344, Note_on_c, 0, 59, 53
2, 39359, Control_c, 0, 64, 93
2, 39375, Control_c, 0, 64, 91
2, 39387, Note_on_c, 0, 39, 0
2, 39390, Control_c, 0, 64, 89
2, 39405, Control_c, 0, 64, 85
2, 39420, Control_c, 0, 64, 81
2, 39435, Control_c, 0, 64, 76
2, 39439, Note_on_c, 0, 61, 55
2, 39451, Control_c, 0, 64, 72
2, 39466, Control_c, 0, 64, 69
2, 39480, Control_c, 0, 64, 67
2, 39496, Control_c, 0, 64, 66
2, 39511, Control_c, 0, 64, 65
2, 39527, Control_c, 0, 64, 64
2, 39529, Note_on_c, 0, 63, 53
2, 39542, Control_c, 0, 64, 63
2, 39556, Control_c, 0, 64, 61
2, 39572, Control_c, 0, 64, 60
2, 39587, Control_c, 0, 64, 59
2, 39601, Control_c, 0, 64, 58
2, 39617, Control_c, 0, 64, 57
2, 39629, Note_on_c, 0, 49, 41
2, 39632, Control_c, 0, 64, 56
2, 39636, Note_on_c, 0, 68, 45
2, 39648, Control_c, 0, 64, 56
2, 39653, Note_on_c, 0, 61, 0
2, 39664, Control_c, 0, 64, 55
2, 39679, Control_c, 0, 64, 54
2, 39695, Control_c, 0, 64, 53
2, 39709, Control_c, 0, 64, 52
2, 39725, Control_c, 0, 64, 51
2, 39740, Control_c, 0, 64, 49
2, 39755, Control_c, 0, 64, 48
2, 39771, Control_c, 0, 64, 47
2, 39785, Control_c, 0, 64, 46
2, 39800, Control_c, 0, 64, 46
2, 39816, Control_c, 0, 64, 45
2, 39830, Control_c, 0, 64, 45
2, 39846, Control_c, 0, 64, 44
2, 39869, Control_c, 0, 64, 42
2, 39883, Note_on_c, 0, 47, 54
2, 39885, Control_c, 0, 64, 41
2, 39900, Control_c, 0, 64, 40
2, 39914, Control_c, 0, 64, 40
2, 39930, Control_c, 0, 64, 39
2, 39933, Note_on_c, 0, 49, 0
2, 39945, Control_c, 0, 64, 38
2, 39960, Control_c, 0, 64, 37
2, 39976, Control_c, 0, 64, 36
2, 39990, Control_c, 0, 64, 36
2, 40021, Control_c, 0, 64, 35
2, 40051, Control_c, 0, 64, 34
2, 40071, Control_c, 0, 64, 33
2, 40086, Control_c, 0, 64, 33
2, 40101, Control_c, 0, 64, 32
2, 40117, Control_c, 0, 64, 32
2, 40131, Control_c, 0, 64, 31
2, 40131, Note_on_c, 0, 46, 59
2, 40177, Control_c, 0, 64, 31
2, 40177, Note_on_c, 0, 47, 0
2, 40239, Control_c, 0, 64, 30
2, 40268, Control_c, 0, 64, 30
2, 40379, Note_on_c, 0, 47, 60
2, 40444, Note_on_c, 0, 46, 0
2, 40452, Note_on_c, 0, 44, 0
2, 40601, Note_on_c, 0, 44, 52
2, 40695, Note_on_c, 0, 47, 0
2, 40827, Note_on_c, 0, 51, 0
2, 40877, Note_on_c, 0, 47, 56
2, 41107, Note_on_c, 0, 51, 58
2, 41128, Note_on_c, 0, 47, 0
2, 41368, Note_on_c, 0, 56, 51
2, 41430, Note_on_c, 0, 51, 0
2, 41442, Control_c, 0, 64, 30
2, 41578, Control_c, 0, 64, 31
2, 41596, Note_on_c, 0, 52, 55
2, 41629, Note_on_c, 0, 56, 0
2, 41654, Control_c, 0, 64, 31
2, 41715, Control_c, 0, 64, 32
2, 41745, Control_c, 0, 64, 32
2, 41806, Control_c, 0, 64, 33
2, 41852, Note_on_c, 0, 71, 62
2, 41859, Note_on_c, 0, 59, 0
2, 41873, Note_on_c, 0, 54, 43
2, 41894, Note_on_c, 0, 52, 0
2, 41973, Control_c, 0, 64, 33
2, 41975, Note_on_c, 0, 68, 0
2, 41988, Note_on_c, 0, 63, 0
2, 42034, Control_c, 0, 64, 34
2, 42085, Note_on_c, 0, 51, 55
2, 42110, Control_c, 0, 64, 34
2, 42141, Control_c, 0, 64, 35
2, 42151, Note_on_c, 0, 54, 0
2, 42157, Control_c, 0, 64, 35
2, 42179, Control_c, 0, 64, 36
2, 42194, Control_c, 0, 64, 36
2, 42209, Control_c, 0, 64, 37
2, 42255, Control_c, 0, 64, 38
2, 42286, Control_c, 0, 64, 38
2, 42316, Control_c, 0, 64, 39
2, 42347, Control_c, 0, 64, 39
2, 42356, Note_on_c, 0, 49, 55
2, 42366, Note_on_c, 0, 52, 51
2, 42392, Control_c, 0, 64, 40
2, 42407, Control_c, 0, 64, 40
2, 42416, Note_on_c, 0, 51, 0
2, 42468, Control_c, 0, 64, 41
2, 42483, Control_c, 0, 64, 41
2, 42559, Control_c, 0, 64, 42
2, 42594, Note_on_c, 0, 68, 63
2, 42616, Note_on_c, 0, 51, 59
2, 42649, Note_on_c, 0, 49, 0
2, 42702, Note_on_c, 0, 71, 0
2, 42757, Control_c, 0, 64, 42
2, 42846, Note_on_c, 0, 49, 61
2, 42851, Note_on_c, 0, 70, 72
2, 43051, Control_c, 0, 64, 43
2, 43071, Note_on_c, 0, 47, 57
2, 43079, Note_on_c, 0, 73, 79
2, 43126, Note_on_c, 0, 49, 0
2, 43154, Note_on_c, 0, 51, 0
2, 43176, Note_on_c, 0, 68, 0
2, 43314, Note_on_c, 0, 49, 58
2, 43321, Note_on_c, 0, 76, 75
2, 43338, Note_on_c, 0, 44, 0
2, 43426, Note_on_c, 0, 73, 0
2, 43462, Note_on_c, 0, 70, 0
2, 43545, Note_on_c, 0, 46, 70
2, 43620, Note_on_c, 0, 47, 0
2, 43662, Note_on_c, 0, 52, 0
2, 43819, Control_c, 0, 64, 41
2, 43835, Control_c, 0, 64, 38
2, 43850, Control_c, 0, 64, 32
2, 43864, Control_c, 0, 64, 0
2, 43871, Note_on_c, 0, 54, 66
2, 43908, Note_on_c, 0, 49, 0
2, 44126, Note_on_c, 0, 75, 75
2, 44167, Note_on_c, 0, 76, 0
2, 44356, Note_on_c, 0, 76, 77
2, 44549, Note_on_c, 0, 75, 0
2, 44595, Note_on_c, 0, 80, 76
2, 44610, Note_on_c, 0, 56, 59
2, 44659, Note_on_c, 0, 54, 0
2, 44682, Note_on_c, 0, 76, 0
2, 44926, Note_on_c, 0, 78, 72
2, 44941, Note_on_c, 0, 58, 56
2, 44965, Note_on_c, 0, 80, 0
2, 44982, Note_on_c, 0, 56, 0
2, 45087, Control_c, 0, 64, 36
2, 45102, Control_c, 0, 64, 60
2, 45116, Control_c, 0, 64, 67
2, 45132, Control_c, 0, 64, 72
2, 45147, Control_c, 0, 64, 79
2, 45162, Control_c, 0, 64, 86
2, 45177, Control_c, 0, 64, 91
2, 45192, Control_c, 0, 64, 96
2, 45208, Control_c, 0, 64, 98
2, 45261, Control_c, 0, 64, 98
2, 45337, Control_c, 0, 64, 97
2, 45352, Control_c, 0, 64, 96
2, 45365, Note_on_c, 0, 58, 0
2, 45367, Control_c, 0, 64, 94
2, 45382, Control_c, 0, 64, 93
2, 45429, Control_c, 0, 64, 92
2, 45445, Control_c, 0, 64, 91
2, 45460, Control_c, 0, 64, 88
2, 45474, Control_c, 0, 64, 86
2, 45490, Control_c, 0, 64, 82
2, 45498, Note_on_c, 0, 75, 68
2, 45505, Control_c, 0, 64, 79
2, 45513, Note_on_c, 0, 59, 51
2, 45520, Control_c, 0, 64, 74
2, 45535, Control_c, 0, 64, 66
2, 45550, Control_c, 0, 64, 54
2, 45566, Control_c, 0, 64, 0
2, 45601, Note_on_c, 0, 46, 0
2, 45609, Note_on_c, 0, 78, 0
2, 45743, Note_on_c, 0, 73, 58
2, 45764, Control_c, 0, 64, 44
2, 45779, Control_c, 0, 64, 63
2, 45794, Control_c, 0, 64, 70
2, 45809, Control_c, 0, 64, 77
2, 45824, Control_c, 0, 64, 84
2, 45840, Control_c, 0, 64, 91
2, 45855, Control_c, 0, 64, 94
2, 45870, Control_c, 0, 64, 95
2, 45885, Control_c, 0, 64, 94
2, 45900, Control_c, 0, 64, 93
2, 45915, Control_c, 0, 64, 92
2, 45930, Control_c, 0, 64, 92
2, 45961, Control_c, 0, 64, 91
2, 45967, Note_on_c, 0, 71, 59
2, 45976, Control_c, 0, 64, 89
2, 45991, Control_c, 0, 64, 87
2, 46014, Control_c, 0, 64, 85
2, 46029, Control_c, 0, 64, 83
2, 46045, Control_c, 0, 64, 82
2, 46060, Control_c, 0, 64, 82
2, 46075, Control_c, 0, 64, 81
2, 46090, Control_c, 0, 64, 80
2, 46105, Control_c, 0, 64, 80
2, 46121, Control_c, 0, 64, 79
2, 46135, Control_c, 0, 64, 79
2, 46181, Control_c, 0, 64, 78
2, 46194, Note_on_c, 0, 73, 0
2, 46219, Note_on_c, 0, 70, 43
2, 46238, Note_on_c, 0, 71, 0
2, 46258, Control_c, 0, 64, 78
2, 46304, Control_c, 0, 64, 77
2, 46334, Control_c, 0, 64, 77
2, 46349, Control_c, 0, 64, 76
2, 46364, Control_c, 0, 64, 74
2, 46379, Control_c, 0, 64, 73
2, 46394, Control_c, 0, 64, 73
2, 46410, Control_c, 0, 64, 72
2, 46425, Control_c, 0, 64, 71
2, 46440, Control_c, 0, 64, 70
2, 46455, Control_c, 0, 64, 69
2, 46470, Control_c, 0, 64, 68
2, 46470, Note_on_c, 0, 71, 45
2, 46486, Control_c, 0, 64, 67
2, 46501, Control_c, 0, 64, 67
2, 46515, Control_c, 0, 64, 66
2, 46531, Control_c, 0, 64, 65
2, 46546, Control_c, 0, 64, 65
2, 46552, Note_on_c, 0, 70, 0
2, 46562, Control_c, 0, 64, 64
2, 46577, Control_c, 0, 64, 63
2, 46592, Control_c, 0, 64, 63
2, 46623, Control_c, 0, 64, 62
2, 46653, Control_c, 0, 64, 62
2, 46668, Control_c, 0, 64, 61
2, 46684, Control_c, 0, 64, 60
2, 46691, Note_on_c, 0, 66, 57
2, 46699, Control_c, 0, 64, 59
2, 46714, Control_c, 0, 64, 57
2, 46729, Control_c, 0, 64, 56
2, 46744, Control_c, 0, 64, 53
2, 46760, Control_c, 0, 64, 49
2, 46782, Control_c, 0, 64, 43
2, 46798, Control_c, 0, 64, 32
2, 46813, Control_c, 0, 64, 15
2, 46828, Control_c, 0, 64, 0
2, 46928, Note_on_c, 0, 63, 51
2, 46968, Note_on_c, 0, 59, 0
2, 47170, Note_on_c, 0, 59, 51
2, 47392, Note_on_c, 0, 57, 51
2, 47509, Note_on_c, 0, 59, 0
2, 47523, Note_on_c, 0, 75, 0
2, 47636, Note_on_c, 0, 56, 57
2, 47695, Note_on_c, 0, 57, 0
2, 47870, Note_on_c, 0, 63, 0
2, 47891, Note_on_c, 0, 57, 50
2, 47895, Note_on_c, 0, 56, 0
2, 47898, Note_on_c, 0, 73, 66
2, 48091, Note_on_c, 0, 71, 0
2, 48109, Note_on_c, 0, 54, 54
2, 48316, Note_on_c, 0, 57, 0
2, 48363, Note_on_c, 0, 51, 63
2, 48519, Note_on_c, 0, 54, 0
2, 48583, Note_on_c, 0, 66, 0
2, 48594, Note_on_c, 0, 70, 72
2, 48620, Note_on_c, 0, 52, 54
2, 48685, Note_on_c, 0, 51, 0
2, 48820, Note_on_c, 0, 73, 0
2, 48829, Note_on_c, 0, 72, 68
2, 48831, Note_on_c, 0, 51, 58
2, 48848, Note_on_c, 0, 70, 0
2, 48907, Note_on_c, 0, 52, 0
2, 49048, Note_on_c, 0, 75, 79
2, 49051, Note_on_c, 0, 49, 61
2, 49116, Note_on_c, 0, 51, 0
2, 49290, Note_on_c, 0, 78, 81
2, 49291, Note_on_c, 0, 51, 62
2, 49345, Note_on_c, 0, 49, 0
2, 49525, Note_on_c, 0, 48, 62
2, 49525, Note_on_c, 0, 80, 81
2, 49791, Note_on_c, 0, 81, 73
2, 49800, Note_on_c, 0, 44, 59
2, 49872, Note_on_c, 0, 80, 0
2, 49880, Note_on_c, 0, 48, 0
2, 49883, Note_on_c, 0, 78, 0
2, 50036, Note_on_c, 0, 80, 73
2, 50110, Note_on_c, 0, 72, 0
2, 50270, Note_on_c, 0, 78, 71
2, 50488, Note_on_c, 0, 76, 65
2, 50506, Note_on_c, 0, 46, 55
2, 50560, Note_on_c, 0, 75, 0
2, 50565, Note_on_c, 0, 78, 0
2, 50577, Note_on_c, 0, 80, 0
2, 50758, Note_on_c, 0, 48, 60
2, 50763, Note_on_c, 0, 78, 69
2, 50766, Note_on_c, 0, 44, 0
2, 50791, Note_on_c, 0, 81, 0
2, 50849, Note_on_c, 0, 76, 0
2, 50852, Note_on_c, 0, 46, 0
2, 50999, Note_on_c, 0, 75, 68
2, 51005, Note_on_c, 0, 78, 0
2, 51254, Note_on_c, 0, 76, 59
2, 51264, Note_on_c, 0, 49, 51
2, 51302, Note_on_c, 0, 75, 0
2, 51306, Note_on_c, 0, 48, 0
2, 51366, Note_on_c, 0, 51, 0
2, 51500, Note_on_c, 0, 75, 61
2, 51730, Note_on_c, 0, 73, 63
2, 51955, Note_on_c, 0, 72, 61
2, 51986, Note_on_c, 0, 75, 0
2, 52012, Note_on_c, 0, 73, 0
2, 52213, Note_on_c, 0, 73, 64
2, 52247, Note_on_c, 0, 72, 0
2, 52453, Note_on_c, 0, 68, 54
2, 52711, Note_on_c, 0, 64, 49
2, 52967, Note_on_c, 0, 51, 56
2, 53045, Note_on_c, 0, 49, 0
2, 53212, Note_on_c, 0, 51, 0
2, 53215, Note_on_c, 0, 52, 62
2, 53463, Note_on_c, 0, 54, 58
2, 53539, Note_on_c, 0, 52, 0
2, 53691, Note_on_c, 0, 56, 62
2, 53747, Note_on_c, 0, 54, 0
2, 53926, Note_on_c, 0, 57, 72
2, 53969, Note_on_c, 0, 64, 0
2, 53984, Note_on_c, 0, 73, 0
2, 53988, Note_on_c, 0, 56, 0
2, 53991, Note_on_c, 0, 68, 0
2, 54193, Note_on_c, 0, 59, 79
2, 54248, Note_on_c, 0, 57, 0
2, 54433, Note_on_c, 0, 74, 75
2, 54494, Note_on_c, 0, 76, 0
2, 54698, Note_on_c, 0, 77, 76
2, 54909, Note_on_c, 0, 80, 82
2, 54921, Note_on_c, 0, 61, 58
2, 55169, Note_on_c, 0, 59, 0
2, 55172, Note_on_c, 0, 83, 76
2, 55176, Note_on_c, 0, 62, 56
2, 55229, Note_on_c, 0, 61, 0
2, 55356, Note_on_c, 0, 80, 0
2, 55403, Note_on_c, 0, 59, 63
2, 55681, Note_on_c, 0, 53, 60
2, 55721, Note_on_c, 0, 74, 0
2, 55766, Note_on_c, 0, 77, 0
2, 55918, Note_on_c, 0, 74, 63
2, 55943, Note_on_c, 0, 83, 0
2, 56174, Note_on_c, 0, 73, 59
2, 56175, Note_on_c, 0, 56, 49
2, 56198, Note_on_c, 0, 59, 0
2, 56226, Note_on_c, 0, 74, 0
2, 56359, Note_on_c, 0, 62, 0
2, 56404, Note_on_c, 0, 71, 56
2, 56652, Note_on_c, 0, 61, 45
2, 56659, Note_on_c, 0, 69, 53
2, 56670, Note_on_c, 0, 71, 0
2, 56697, Note_on_c, 0, 73, 0
2, 56730, Note_on_c, 0, 56, 0
2, 56880, Note_on_c, 0, 68, 56
2, 56957, Note_on_c, 0, 69, 0
2, 57122, Note_on_c, 0, 54, 43
2, 57152, Note_on_c, 0, 69, 52
2, 57173, Note_on_c, 0, 53, 0
2, 57238, Note_on_c, 0, 68, 0
2, 57417, Note_on_c, 0, 59, 36
2, 57675, Note_on_c, 0, 57, 50
2, 57746, Note_on_c, 0, 59, 0
2, 57883, Note_on_c, 0, 56, 61
2, 57930, Note_on_c, 0, 57, 0
2, 58129, Note_on_c, 0, 57, 67
2, 58156, Note_on_c, 0, 54, 0
2, 58173, Note_on_c, 0, 56, 0
2, 58370, Note_on_c, 0, 54, 65
2, 58385, Note_on_c, 0, 61, 0
2, 58563, Note_on_c, 0, 57, 0
2, 58635, Note_on_c, 0, 66, 58
2, 58853, Note_on_c, 0, 68, 68
2, 58931, Note_on_c, 0, 69, 0
2, 59107, Note_on_c, 0, 69, 67
2, 59224, Note_on_c, 0, 68, 0
2, 59292, Note_on_c, 0, 66, 0
2, 59333, Note_on_c, 0, 73, 74
2, 59364, Note_on_c, 0, 64, 61
2, 59590, Note_on_c, 0, 63, 61
2, 59596, Note_on_c, 0, 78, 76
2, 59603, Note_on_c, 0, 64, 0
2, 59784, Note_on_c, 0, 54, 0
2, 59804, Note_on_c, 0, 73, 0
2, 59835, Note_on_c, 0, 61, 60
2, 59909, Note_on_c, 0, 63, 0
2, 60081, Note_on_c, 0, 56, 55
2, 60088, Note_on_c, 0, 59, 63
2, 60171, Note_on_c, 0, 61, 0
2, 60350, Note_on_c, 0, 76, 65
2, 60577, Note_on_c, 0, 75, 72
2, 60678, Note_on_c, 0, 76, 0
2, 60810, Note_on_c, 0, 57, 56
2, 60812, Note_on_c, 0, 61, 59
2, 60813, Note_on_c, 0, 73, 70
2, 60863, Note_on_c, 0, 69, 0
2, 60865, Note_on_c, 0, 59, 0
2, 60927, Note_on_c, 0, 56, 0
2, 61063, Note_on_c, 0, 71, 65
2, 61067, Note_on_c, 0, 63, 59
2, 61074, Note_on_c, 0, 59, 69
2, 61103, Note_on_c, 0, 75, 0
2, 61115, Note_on_c, 0, 73, 0
2, 61119, Note_on_c, 0, 78, 0
2, 61173, Note_on_c, 0, 57, 0
2, 61266, Note_on_c, 0, 61, 0
2, 61317, Note_on_c, 0, 69, 63
2, 61372, Note_on_c, 0, 71, 0
2, 61564, Note_on_c, 0, 68, 67
2, 61566, Note_on_c, 0, 52, 59
2, 61598, Note_on_c, 0, 69, 0
2, 61749, Note_on_c, 0, 59, 0
2, 61809, Note_on_c, 0, 66, 72
2, 61843, Note_on_c, 0, 68, 0
2, 62036, Note_on_c, 0, 68, 70
2, 62220, Note_on_c, 0, 66, 0
2, 62274, Note_on_c, 0, 56, 54
2, 62282, Note_on_c, 0, 71, 68
2, 62347, Note_on_c, 0, 63, 0
2, 62549, Note_on_c, 0, 76, 68
2, 62563, Note_on_c, 0, 61, 53
2, 62592, Note_on_c, 0, 68, 0
2, 62675, Note_on_c, 0, 71, 0
2, 62779, Note_on_c, 0, 60, 63
2, 62912, Note_on_c, 0, 61, 0
2, 63079, Note_on_c, 0, 61, 59
2, 63118, Note_on_c, 0, 60, 0
2, 63202, Note_on_c, 0, 56, 0
2, 63338, Note_on_c, 0, 75, 65
2, 63566, Note_on_c, 0, 73, 64
2, 63801, Note_on_c, 0, 71, 57
2, 63818, Note_on_c, 0, 51, 52
2, 63834, Note_on_c, 0, 52, 0
2, 63876, Note_on_c, 0, 75, 0
2, 64029, Note_on_c, 0, 71, 0
2, 64037, Note_on_c, 0, 73, 0
2, 64048, Note_on_c, 0, 69, 58
2, 64053, Note_on_c, 0, 49, 49
2, 64137, Note_on_c, 0, 51, 0
2, 64282, Note_on_c, 0, 68, 57
2, 64373, Note_on_c, 0, 69, 0
2, 64441, Note_on_c, 0, 76, 0
2, 64542, Note_on_c, 0, 66, 57
2, 64549, Note_on_c, 0, 51, 57
2, 64670, Note_on_c, 0, 49, 0
2, 64772, Note_on_c, 0, 64, 58
2, 64853, Note_on_c, 0, 66, 0
2, 64856, Note_on_c, 0, 68, 0
2, 65010, Note_on_c, 0, 66, 64
2, 65246, Note_on_c, 0, 69, 68
2, 65252, Note_on_c, 0, 60, 47
2, 65256, Note_on_c, 0, 64, 0
2, 65318, Note_on_c, 0, 61, 0
2, 65353, Note_on_c, 0, 66, 0
2, 65510, Note_on_c, 0, 75, 68
2, 65531, Note_on_c, 0, 61, 51
2, 65546, Note_on_c, 0, 60, 0
2, 65684, Note_on_c, 0, 69, 0
2, 65741, Note_on_c, 0, 58, 57
2, 65799, Note_on_c, 0, 61, 0
2, 66018, Note_on_c, 0, 60, 53
2, 66034, Note_on_c, 0, 56, 53
2, 66068, Note_on_c, 0, 58, 0
2, 66097, Note_on_c, 0, 51, 0
2, 66270, Note_on_c, 0, 73, 60
2, 66516, Note_on_c, 0, 72, 59
2, 66561, Note_on_c, 0, 75, 0
2, 66563, Note_on_c, 0, 73, 0
2, 66756, Note_on_c, 0, 70, 63
2, 66759, Note_on_c, 0, 58, 48
2, 66759, Note_on_c, 0, 61, 54
2, 66818, Note_on_c, 0, 60, 0
2, 66864, Note_on_c, 0, 72, 0
2, 66881, Note_on_c, 0, 56, 0
2, 67001, Note_on_c, 0, 68, 55
2, 67032, Note_on_c, 0, 63, 54
2, 67047, Note_on_c, 0, 60, 54
2, 67081, Note_on_c, 0, 61, 0
2, 67090, Note_on_c, 0, 58, 0
2, 67114, Note_on_c, 0, 70, 0
2, 67252, Note_on_c, 0, 66, 58
2, 67531, Note_on_c, 0, 61, 60
2, 67545, Note_on_c, 0, 64, 53
2, 67608, Note_on_c, 0, 66, 0
2, 67619, Note_on_c, 0, 63, 0
2, 67629, Note_on_c, 0, 60, 0
2, 67634, Note_on_c, 0, 68, 0
2, 67759, Note_on_c, 0, 63, 50
2, 67854, Note_on_c, 0, 64, 0
2, 68008, Note_on_c, 0, 64, 50
2, 68228, Note_on_c, 0, 63, 0
2, 68234, Note_on_c, 0, 68, 54
2, 68252, Note_on_c, 0, 59, 53
2, 68489, Note_on_c, 0, 73, 60
2, 68498, Note_on_c, 0, 57, 57
2, 68567, Note_on_c, 0, 59, 0
2, 68659, Note_on_c, 0, 68, 0
2, 68729, Note_on_c, 0, 56, 57
2, 68777, Note_on_c, 0, 57, 0
2, 68985, Note_on_c, 0, 57, 56
2, 69003, Note_on_c, 0, 54, 57
2, 69035, Note_on_c, 0, 56, 0
2, 69228, Note_on_c, 0, 71, 61
2, 69465, Note_on_c, 0, 69, 67
2, 69508, Note_on_c, 0, 71, 0
2, 69695, Note_on_c, 0, 68, 65
2, 69705, Note_on_c, 0, 59, 57
2, 69750, Note_on_c, 0, 61, 0
2, 69761, Note_on_c, 0, 69, 0
2, 69945, Note_on_c, 0, 61, 63
2, 69949, Note_on_c, 0, 69, 69
2, 69962, Note_on_c, 0, 64, 0
2, 70025, Note_on_c, 0, 59, 0
2, 70073, Note_on_c, 0, 68, 0
2, 70148, Note_on_c, 0, 69, 0
2, 70189, Note_on_c, 0, 66, 64
2, 70278, Note_on_c, 0, 57, 0
2, 70425, Note_on_c, 0, 62, 55
2, 70437, Note_on_c, 0, 78, 76
2, 70545, Note_on_c, 0, 61, 0
2, 70587, Note_on_c, 0, 73, 0
2, 70671, Note_on_c, 0, 76, 74
2, 70895, Note_on_c, 0, 74, 77
2, 70936, Note_on_c, 0, 76, 0
2, 71109, Note_on_c, 0, 52, 53
2, 71109, Note_on_c, 0, 73, 75
2, 71153, Note_on_c, 0, 54, 0
2, 71185, Note_on_c, 0, 74, 0
2, 71269, Note_on_c, 0, 66, 0
2, 71360, Note_on_c, 0, 74, 79
2, 71361, Note_on_c, 0, 54, 70
2, 71442, Note_on_c, 0, 52, 0
2, 71467, Note_on_c, 0, 78, 0
2, 71561, Note_on_c, 0, 73, 0
2, 71573, Note_on_c, 0, 69, 62
2, 71624, Note_on_c, 0, 74, 0
2, 71829, Note_on_c, 0, 81, 78
2, 71840, Note_on_c, 0, 60, 61
2, 71843, Note_on_c, 0, 51, 64
2, 71899, Note_on_c, 0, 54, 0
2, 71923, Note_on_c, 0, 62, 0
2, 72066, Note_on_c, 0, 80, 73
2, 72299, Note_on_c, 0, 78, 77
2, 72529, Note_on_c, 0, 76, 75
2, 72532, Note_on_c, 0, 54, 64
2, 72562, Note_on_c, 0, 80, 0
2, 72615, Note_on_c, 0, 78, 0
2, 72624, Note_on_c, 0, 81, 0
2, 72775, Note_on_c, 0, 57, 73
2, 72788, Note_on_c, 0, 78, 80
2, 72811, Note_on_c, 0, 51, 0
2, 72865, Note_on_c, 0, 54, 0
2, 72877, Note_on_c, 0, 76, 0
2, 73025, Note_on_c, 0, 75, 83
2, 73061, Note_on_c, 0, 69, 0
2, 73123, Note_on_c, 0, 78, 0
2, 73342, Note_on_c, 0, 84, 81
2, 73361, Note_on_c, 0, 66, 62
2, 73466, Note_on_c, 0, 57, 0
2, 73515, Control_c, 0, 64, 55
2, 73531, Control_c, 0, 64, 65
2, 73535, Note_on_c, 0, 60, 0
2, 73546, Control_c, 0, 64, 70
2, 73560, Control_c, 0, 64, 75
2, 73576, Control_c, 0, 64, 78
2, 73591, Control_c, 0, 64, 79
2, 73606, Control_c, 0, 64, 80
2, 73611, Note_on_c, 0, 56, 61
2, 73675, Control_c, 0, 64, 80
2, 73690, Control_c, 0, 64, 81
2, 73705, Control_c, 0, 64, 81
2, 73736, Control_c, 0, 64, 81
2, 73766, Control_c, 0, 64, 80
2, 73826, Control_c, 0, 64, 80
2, 73841, Control_c, 0, 64, 79
2, 73850, Note_on_c, 0, 54, 73
2, 73857, Control_c, 0, 64, 79
2, 73872, Control_c, 0, 64, 78
2, 73887, Control_c, 0, 64, 78
2, 73917, Control_c, 0, 64, 77
2, 73922, Note_on_c, 0, 66, 0
2, 73932, Control_c, 0, 64, 76
2, 73947, Control_c, 0, 64, 75
2, 73962, Control_c, 0, 64, 74
2, 73978, Control_c, 0, 64, 73
2, 74009, Control_c, 0, 64, 73
2, 74039, Control_c, 0, 64, 72
2, 74050, Note_on_c, 0, 56, 0
2, 74067, Note_on_c, 0, 52, 70
2, 74070, Control_c, 0, 64, 72
2, 74094, Note_on_c, 0, 54, 0
2, 74115, Control_c, 0, 64, 71
2, 74177, Control_c, 0, 64, 71
2, 74314, Control_c, 0, 64, 68
2, 74319, Note_on_c, 0, 54, 63
2, 74329, Control_c, 0, 64, 61
2, 74336, Note_on_c, 0, 80, 81
2, 74344, Control_c, 0, 64, 12
2, 74359, Control_c, 0, 64, 0
2, 74434, Note_on_c, 0, 52, 0
2, 74442, Control_c, 0, 64, 36
2, 74458, Control_c, 0, 64, 59
2, 74473, Control_c, 0, 64, 66
2, 74489, Control_c, 0, 64, 71
2, 74504, Control_c, 0, 64, 76
2, 74519, Control_c, 0, 64, 79
2, 74534, Control_c, 0, 64, 80
2, 74566, Note_on_c, 0, 51, 74
2, 74644, Note_on_c, 0, 54, 0
2, 74670, Control_c, 0, 64, 79
2, 74686, Control_c, 0, 64, 79
2, 74701, Control_c, 0, 64, 78
2, 74731, Control_c, 0, 64, 78
2, 74748, Note_on_c, 0, 80, 0
2, 74761, Control_c, 0, 64, 77
2, 74777, Control_c, 0, 64, 76
2, 74791, Control_c, 0, 64, 76
2, 74807, Control_c, 0, 64, 75
2, 74822, Control_c, 0, 64, 74
2, 74837, Control_c, 0, 64, 73
2, 74840, Note_on_c, 0, 80, 85
2, 74852, Control_c, 0, 64, 71
2, 74852, Note_on_c, 0, 52, 58
2, 74867, Control_c, 0, 64, 69
2, 74883, Control_c, 0, 64, 66
2, 74899, Control_c, 0, 64, 64
2, 74908, Note_on_c, 0, 84, 0
2, 74914, Control_c, 0, 64, 62
2, 74930, Control_c, 0, 64, 62
2, 74966, Note_on_c, 0, 51, 0
2, 75004, Control_c, 0, 64, 61
2, 75020, Control_c, 0, 64, 61
2, 75035, Control_c, 0, 64, 60
2, 75051, Control_c, 0, 64, 60
2, 75075, Note_on_c, 0, 51, 71
2, 75081, Control_c, 0, 64, 59
2, 75112, Control_c, 0, 64, 59
2, 75143, Control_c, 0, 64, 58
2, 75195, Control_c, 0, 64, 58
2, 75211, Control_c, 0, 64, 57
2, 75225, Control_c, 0, 64, 57
2, 75269, Control_c, 0, 64, 56
2, 75299, Note_on_c, 0, 49, 70
2, 75300, Control_c, 0, 64, 55
2, 75315, Control_c, 0, 64, 54
2, 75330, Control_c, 0, 64, 53
2, 75346, Control_c, 0, 64, 50
2, 75359, Note_on_c, 0, 52, 0
2, 75361, Control_c, 0, 64, 48
2, 75376, Control_c, 0, 64, 47
2, 75391, Control_c, 0, 64, 46
2, 75406, Control_c, 0, 64, 45
2, 75422, Control_c, 0, 64, 44
2, 75437, Control_c, 0, 64, 44
2, 75468, Control_c, 0, 64, 43
2, 75482, Control_c, 0, 64, 43
2, 75498, Control_c, 0, 64, 42
2, 75513, Control_c, 0, 64, 40
2, 75525, Note_on_c, 0, 76, 70
2, 75528, Control_c, 0, 64, 39
2, 75535, Note_on_c, 0, 51, 0
2, 75536, Note_on_c, 0, 47, 63
2, 75544, Control_c, 0, 64, 38
2, 75559, Control_c, 0, 64, 37
2, 75605, Note_on_c, 0, 49, 0
2, 75665, Control_c, 0, 64, 37
2, 75742, Control_c, 0, 64, 36
2, 75775, Note_on_c, 0, 72, 68
2, 75776, Note_on_c, 0, 49, 56
2, 75786, Note_on_c, 0, 75, 0
2, 75939, Control_c, 0, 64, 36
2, 75993, Note_on_c, 0, 47, 0
2, 76002, Note_on_c, 0, 45, 67
2, 76153, Note_on_c, 0, 49, 0
2, 76336, Note_on_c, 0, 73, 69
2, 76341, Note_on_c, 0, 57, 65
2, 76373, Control_c, 0, 64, 35
2, 76400, Note_on_c, 0, 72, 0
2, 76402, Control_c, 0, 64, 35
2, 76419, Note_on_c, 0, 76, 0
2, 76424, Note_on_c, 0, 45, 0
2, 76433, Control_c, 0, 64, 34
2, 76559, Note_on_c, 0, 80, 0
2, 76602, Note_on_c, 0, 78, 68
2, 76847, Note_on_c, 0, 76, 68
2, 76904, Note_on_c, 0, 78, 0
2, 77076, Note_on_c, 0, 75, 73
2, 77139, Note_on_c, 0, 76, 0
2, 77313, Note_on_c, 0, 76, 70
2, 77433, Note_on_c, 0, 73, 0
2, 77436, Note_on_c, 0, 75, 0
2, 77553, Note_on_c, 0, 73, 72
2, 77813, Note_on_c, 0, 78, 71
2, 77970, Note_on_c, 0, 76, 0
2, 78044, Note_on_c, 0, 56, 58
2, 78177, Note_on_c, 0, 57, 0
2, 78182, Control_c, 0, 64, 34
2, 78295, Note_on_c, 0, 54, 66
2, 78501, Note_on_c, 0, 72, 69
2, 78523, Note_on_c, 0, 52, 55
2, 78568, Note_on_c, 0, 56, 0
2, 78577, Note_on_c, 0, 54, 0
2, 78690, Control_c, 0, 64, 33
2, 78761, Note_on_c, 0, 75, 74
2, 78766, Control_c, 0, 64, 33
2, 78769, Note_on_c, 0, 73, 0
2, 78774, Note_on_c, 0, 54, 66
2, 78936, Control_c, 0, 64, 32
2, 78964, Note_on_c, 0, 52, 0
2, 78998, Note_on_c, 0, 51, 68
2, 79013, Control_c, 0, 64, 32
2, 79125, Note_on_c, 0, 54, 0
2, 79157, Control_c, 0, 64, 31
2, 79295, Control_c, 0, 64, 31
2, 79319, Note_on_c, 0, 68, 70
2, 79325, Note_on_c, 0, 60, 62
2, 79370, Control_c, 0, 64, 30
2, 79400, Control_c, 0, 64, 30
2, 79403, Note_on_c, 0, 75, 0
2, 79431, Control_c, 0, 64, 29
2, 79435, Note_on_c, 0, 51, 0
2, 79476, Control_c, 0, 64, 28
2, 79480, Note_on_c, 0, 72, 0
2, 79506, Control_c, 0, 64, 28
2, 79537, Control_c, 0, 64, 27
2, 79567, Control_c, 0, 64, 27
2, 79573, Note_on_c, 0, 76, 64
2, 79597, Control_c, 0, 64, 26
2, 79643, Control_c, 0, 64, 25
2, 79673, Control_c, 0, 64, 25
2, 79735, Control_c, 0, 64, 24
2, 79764, Control_c, 0, 64, 23
2, 79803, Control_c, 0, 64, 22
2, 79811, Note_on_c, 0, 75, 66
2, 79850, Control_c, 0, 64, 21
2, 79892, Note_on_c, 0, 76, 0
2, 79895, Control_c, 0, 64, 21
2, 79896, Note_on_c, 0, 78, 0
2, 80047, Control_c, 0, 64, 20
2, 80050, Note_on_c, 0, 73, 66
2, 80123, Note_on_c, 0, 75, 0
2, 80288, Note_on_c, 0, 75, 68
2, 80386, Note_on_c, 0, 68, 0
2, 80520, Note_on_c, 0, 68, 62
2, 80782, Note_on_c, 0, 76, 67
2, 80805, Note_on_c, 0, 61, 42
2, 80871, Note_on_c, 0, 60, 0
2, 80906, Note_on_c, 0, 73, 0
2, 80918, Note_on_c, 0, 75, 0
2, 81027, Note_on_c, 0, 59, 60
2, 81263, Note_on_c, 0, 57, 63
2, 81313, Note_on_c, 0, 59, 0
2, 81508, Note_on_c, 0, 73, 69
2, 81513, Note_on_c, 0, 56, 53
2, 81567, Note_on_c, 0, 57, 0
2, 81705, Note_on_c, 0, 61, 0
2, 81754, Note_on_c, 0, 66, 66
2, 81762, Note_on_c, 0, 57, 59
2, 81808, Note_on_c, 0, 56, 0
2, 81848, Note_on_c, 0, 73, 0
2, 81850, Note_on_c, 0, 68, 0
2, 81988, Note_on_c, 0, 68, 67
2, 81994, Note_on_c, 0, 54, 62
2, 82043, Note_on_c, 0, 66, 0
2, 82074, Note_on_c, 0, 57, 0
2, 82084, Control_c, 0, 64, 21
2, 82299, Note_on_c, 0, 69, 72
2, 82303, Note_on_c, 0, 66, 65
2, 82349, Note_on_c, 0, 68, 0
2, 82429, Note_on_c, 0, 54, 0
2, 82553, Note_on_c, 0, 75, 77
2, 82681, Note_on_c, 0, 76, 0
2, 82797, Note_on_c, 0, 76, 75
2, 82850, Note_on_c, 0, 75, 0
2, 83030, Note_on_c, 0, 78, 78
2, 83195, Note_on_c, 0, 76, 0
2, 83288, Note_on_c, 0, 80, 80
2, 83343, Note_on_c, 0, 78, 0
2, 83559, Note_on_c, 0, 81, 76
2, 83656, Note_on_c, 0, 80, 0
2, 83658, Control_c, 0, 64, 21
2, 83673, Control_c, 0, 64, 29
2, 83689, Control_c, 0, 64, 37
2, 83704, Control_c, 0, 64, 43
2, 83718, Control_c, 0, 64, 49
2, 83734, Control_c, 0, 64, 53
2, 83749, Control_c, 0, 64, 59
2, 83749, Note_on_c, 0, 69, 0
2, 83763, Control_c, 0, 64, 63
2, 83779, Control_c, 0, 64, 67
2, 83794, Control_c, 0, 64, 71
2, 83810, Control_c, 0, 64, 76
2, 83825, Control_c, 0, 64, 80
2, 83839, Control_c, 0, 64, 83
2, 83855, Control_c, 0, 64, 84
2, 83870, Control_c, 0, 64, 83
2, 83879, Note_on_c, 0, 73, 76
2, 83885, Control_c, 0, 64, 82
2, 83900, Note_on_c, 0, 68, 60
2, 83902, Control_c, 0, 64, 81
2, 83916, Note_on_c, 0, 81, 0
2, 83917, Control_c, 0, 64, 80
2, 83947, Control_c, 0, 64, 80
2, 83978, Control_c, 0, 64, 79
2, 83993, Control_c, 0, 64, 78
2, 84009, Control_c, 0, 64, 76
2, 84023, Control_c, 0, 64, 75
2, 84038, Control_c, 0, 64, 74
2, 84054, Control_c, 0, 64, 73
2, 84069, Control_c, 0, 64, 71
2, 84079, Note_on_c, 0, 64, 57
2, 84083, Control_c, 0, 64, 70
2, 84099, Control_c, 0, 64, 69
2, 84114, Control_c, 0, 64, 68
2, 84130, Control_c, 0, 64, 67
2, 84131, Note_on_c, 0, 66, 0
2, 84159, Control_c, 0, 64, 66
2, 84175, Control_c, 0, 64, 66
2, 84180, Note_on_c, 0, 73, 0
2, 84183, Note_on_c, 0, 72, 68
2, 84190, Control_c, 0, 64, 65
2, 84221, Control_c, 0, 64, 65
2, 84235, Control_c, 0, 64, 64
2, 84248, Note_on_c, 0, 73, 71
2, 84251, Control_c, 0, 64, 64
2, 84251, Note_on_c, 0, 72, 0
2, 84266, Control_c, 0, 64, 63
2, 84281, Control_c, 0, 64, 62
2, 84296, Control_c, 0, 64, 61
2, 84311, Control_c, 0, 64, 60
2, 84311, Note_on_c, 0, 63, 60
2, 84312, Note_on_c, 0, 72, 68
2, 84327, Control_c, 0, 64, 60
2, 84328, Note_on_c, 0, 73, 0
2, 84342, Control_c, 0, 64, 59
2, 84357, Control_c, 0, 64, 58
2, 84373, Control_c, 0, 64, 57
2, 84410, Control_c, 0, 64, 56
2, 84423, Note_on_c, 0, 64, 0
2, 84425, Control_c, 0, 64, 56
2, 84440, Control_c, 0, 64, 55
2, 84456, Control_c, 0, 64, 55
2, 84471, Control_c, 0, 64, 54
2, 84485, Control_c, 0, 64, 54
2, 84501, Control_c, 0, 64, 53
2, 84516, Control_c, 0, 64, 53
2, 84532, Control_c, 0, 64, 52
2, 84547, Control_c, 0, 64, 51
2, 84561, Note_on_c, 0, 61, 62
2, 84562, Control_c, 0, 64, 49
2, 84578, Control_c, 0, 64, 47
2, 84593, Control_c, 0, 64, 44
2, 84608, Control_c, 0, 64, 40
2, 84623, Control_c, 0, 64, 36
2, 84638, Control_c, 0, 64, 28
2, 84654, Control_c, 0, 64, 15
2, 84655, Note_on_c, 0, 73, 69
2, 84667, Note_on_c, 0, 63, 0
2, 84669, Control_c, 0, 64, 0
2, 84712, Note_on_c, 0, 72, 0
2, 84824, Note_on_c, 0, 60, 50
2, 84825, Note_on_c, 0, 75, 75
2, 84853, Note_on_c, 0, 61, 0
2, 84883, Note_on_c, 0, 73, 0
2, 84989, Control_c, 0, 64, 24
2, 85003, Control_c, 0, 64, 60
2, 85019, Control_c, 0, 64, 67
2, 85034, Control_c, 0, 64, 73
2, 85049, Control_c, 0, 64, 81
2, 85055, Note_on_c, 0, 58, 65
2, 85064, Control_c, 0, 64, 88
2, 85079, Control_c, 0, 64, 95
2, 85095, Control_c, 0, 64, 101
2, 85110, Control_c, 0, 64, 102
2, 85112, Note_on_c, 0, 60, 0
2, 85122, Note_on_c, 0, 75, 0
2, 85124, Control_c, 0, 64, 101
2, 85140, Control_c, 0, 64, 99
2, 85155, Control_c, 0, 64, 98
2, 85194, Control_c, 0, 64, 99
2, 85224, Control_c, 0, 64, 98
2, 85239, Control_c, 0, 64, 97
2, 85254, Control_c, 0, 64, 94
2, 85269, Control_c, 0, 64, 92
2, 85285, Control_c, 0, 64, 92
2, 85309, Note_on_c, 0, 68, 0
2, 85316, Control_c, 0, 64, 91
2, 85327, Note_on_c, 0, 60, 64
2, 85330, Note_on_c, 0, 56, 62
2, 85331, Control_c, 0, 64, 90
2, 85346, Control_c, 0, 64, 87
2, 85361, Control_c, 0, 64, 84
2, 85377, Control_c, 0, 64, 81
2, 85392, Control_c, 0, 64, 77
2, 85407, Control_c, 0, 64, 74
2, 85413, Note_on_c, 0, 61, 63
2, 85422, Control_c, 0, 64, 70
2, 85437, Control_c, 0, 64, 68
2, 85452, Control_c, 0, 64, 66
2, 85467, Control_c, 0, 64, 65
2, 85482, Control_c, 0, 64, 64
2, 85491, Note_on_c, 0, 63, 66
2, 85498, Control_c, 0, 64, 64
2, 85513, Control_c, 0, 64, 63
2, 85530, Control_c, 0, 64, 63
2, 85537, Note_on_c, 0, 58, 0
2, 85545, Control_c, 0, 64, 62
2, 85559, Control_c, 0, 64, 61
2, 85571, Note_on_c, 0, 66, 64
2, 85574, Note_on_c, 0, 61, 0
2, 85575, Control_c, 0, 64, 60
2, 85590, Control_c, 0, 64, 59
2, 85596, Note_on_c, 0, 54, 50
2, 85605, Control_c, 0, 64, 58
2, 85621, Control_c, 0, 64, 57
2, 85632, Note_on_c, 0, 56, 0
2, 85635, Control_c, 0, 64, 56
2, 85651, Control_c, 0, 64, 54
2, 85666, Control_c, 0, 64, 53
2, 85681, Control_c, 0, 64, 53
2, 85697, Control_c, 0, 64, 52
2, 85728, Control_c, 0, 64, 52
2, 85742, Control_c, 0, 64, 51
2, 85757, Control_c, 0, 64, 50
2, 85773, Control_c, 0, 64, 50
2, 85788, Control_c, 0, 64, 49
2, 85803, Control_c, 0, 64, 49
2, 85819, Control_c, 0, 64, 48
2, 85819, Note_on_c, 0, 54, 0
2, 85827, Note_on_c, 0, 52, 50
2, 85849, Control_c, 0, 64, 48
2, 85864, Control_c, 0, 64, 47
2, 85894, Control_c, 0, 64, 47
2, 85947, Control_c, 0, 64, 46
2, 85962, Control_c, 0, 64, 46
2, 86054, Note_on_c, 0, 51, 56
2, 86069, Control_c, 0, 64, 45
2, 86099, Control_c, 0, 64, 45
2, 86157, Note_on_c, 0, 52, 0
2, 86190, Control_c, 0, 64, 44
2, 86283, Note_on_c, 0, 49, 63
2, 86327, Control_c, 0, 64, 44
2, 86419, Control_c, 0, 64, 43
2, 86461, Note_on_c, 0, 51, 0
2, 86509, Note_on_c, 0, 47, 59
2, 86525, Control_c, 0, 64, 43
2, 86561, Note_on_c, 0, 49, 0
2, 86759, Note_on_c, 0, 45, 50
2, 86831, Note_on_c, 0, 47, 0
2, 87009, Note_on_c, 0, 64, 53
2, 87064, Note_on_c, 0, 63, 0
2, 87233, Note_on_c, 0, 63, 54
2, 87361, Note_on_c, 0, 64, 0
2, 87463, Note_on_c, 0, 47, 53
2, 87468, Note_on_c, 0, 61, 54
2, 87557, Note_on_c, 0, 63, 0
2, 87717, Note_on_c, 0, 44, 55
2, 87722, Note_on_c, 0, 63, 63
2, 87769, Note_on_c, 0, 45, 0
2, 87808, Note_on_c, 0, 66, 0
2, 87828, Note_on_c, 0, 60, 0
2, 87939, Note_on_c, 0, 60, 62
2, 88064, Note_on_c, 0, 61, 0
2, 88177, Note_on_c, 0, 42, 61
2, 88191, Note_on_c, 0, 69, 63
2, 88228, Note_on_c, 0, 44, 0
2, 88255, Note_on_c, 0, 63, 0
2, 88336, Note_on_c, 0, 47, 0
2, 88436, Note_on_c, 0, 68, 61
2, 88665, Note_on_c, 0, 66, 65
2, 88887, Note_on_c, 0, 44, 64
2, 88890, Note_on_c, 0, 64, 66
2, 89007, Note_on_c, 0, 66, 0
2, 89080, Note_on_c, 0, 68, 0
2, 89094, Note_on_c, 0, 60, 0
2, 89100, Control_c, 0, 64, 43
2, 89109, Note_on_c, 0, 69, 0
2, 89119, Note_on_c, 0, 40, 61
2, 89123, Note_on_c, 0, 66, 75
2, 89161, Control_c, 0, 64, 44
2, 89197, Note_on_c, 0, 42, 0
2, 89221, Control_c, 0, 64, 44
2, 89234, Note_on_c, 0, 64, 0
2, 89354, Note_on_c, 0, 63, 70
2, 89593, Note_on_c, 0, 39, 65
2, 89599, Note_on_c, 0, 72, 70
2, 89640, Note_on_c, 0, 40, 0
2, 89642, Note_on_c, 0, 66, 0
2, 89847, Note_on_c, 0, 69, 67
2, 90036, Control_c, 0, 64, 44
2, 90066, Note_on_c, 0, 68, 71
2, 90130, Note_on_c, 0, 69, 0
2, 90269, Note_on_c, 0, 40, 66
2, 90281, Note_on_c, 0, 66, 69
2, 90369, Note_on_c, 0, 68, 0
2, 90377, Note_on_c, 0, 44, 0
2, 90501, Note_on_c, 0, 42, 76
2, 90517, Note_on_c, 0, 68, 72
2, 90557, Note_on_c, 0, 40, 0
2, 90562, Note_on_c, 0, 63, 0
2, 90562, Note_on_c, 0, 72, 0
2, 90660, Note_on_c, 0, 66, 0
2, 90681, Control_c, 0, 64, 45
2, 90695, Control_c, 0, 64, 49
2, 90710, Control_c, 0, 64, 52
2, 90726, Control_c, 0, 64, 55
2, 90741, Control_c, 0, 64, 57
2, 90757, Control_c, 0, 64, 59
2, 90758, Note_on_c, 0, 63, 72
2, 90771, Control_c, 0, 64, 60
2, 90786, Control_c, 0, 64, 62
2, 90802, Control_c, 0, 64, 62
2, 90892, Control_c, 0, 64, 62
2, 90907, Control_c, 0, 64, 61
2, 90923, Control_c, 0, 64, 61
2, 90938, Control_c, 0, 64, 60
2, 90954, Control_c, 0, 64, 59
2, 90969, Control_c, 0, 64, 58
2, 90984, Control_c, 0, 64, 57
2, 90994, Note_on_c, 0, 36, 69
2, 91000, Control_c, 0, 64, 57
2, 91002, Note_on_c, 0, 75, 80
2, 91014, Control_c, 0, 64, 56
2, 91029, Control_c, 0, 64, 56
2, 91036, Note_on_c, 0, 68, 0
2, 91045, Control_c, 0, 64, 55
2, 91060, Control_c, 0, 64, 55
2, 91076, Control_c, 0, 64, 54
2, 91090, Control_c, 0, 64, 54
2, 91105, Control_c, 0, 64, 53
2, 91166, Control_c, 0, 64, 53
2, 91181, Note_on_c, 0, 42, 0
2, 91204, Note_on_c, 0, 39, 0
2, 91223, Note_on_c, 0, 73, 75
2, 91469, Note_on_c, 0, 72, 78
2, 91612, Note_on_c, 0, 73, 0
2, 91700, Note_on_c, 0, 70, 75
2, 91704, Note_on_c, 0, 39, 71
2, 91747, Control_c, 0, 64, 52
2, 91774, Note_on_c, 0, 72, 0
2, 91778, Control_c, 0, 64, 52
2, 91824, Note_on_c, 0, 63, 0
2, 91884, Control_c, 0, 64, 51
2, 91915, Control_c, 0, 64, 51
2, 91923, Note_on_c, 0, 36, 0
2, 91930, Control_c, 0, 64, 50
2, 91945, Control_c, 0, 64, 50
2, 91955, Note_on_c, 0, 42, 76
2, 91960, Control_c, 0, 64, 49
2, 91960, Note_on_c, 0, 72, 79
2, 91977, Note_on_c, 0, 75, 0
2, 92005, Control_c, 0, 64, 49
2, 92047, Note_on_c, 0, 70, 0
2, 92052, Control_c, 0, 64, 50
2, 92066, Control_c, 0, 64, 53
2, 92090, Control_c, 0, 64, 55
2, 92090, Note_on_c, 0, 39, 0
2, 92105, Control_c, 0, 64, 57
2, 92120, Control_c, 0, 64, 60
2, 92136, Control_c, 0, 64, 62
2, 92151, Control_c, 0, 64, 63
2, 92165, Control_c, 0, 64, 65
2, 92181, Control_c, 0, 64, 67
2, 92197, Control_c, 0, 64, 70
2, 92205, Note_on_c, 0, 68, 76
2, 92212, Control_c, 0, 64, 75
2, 92219, Note_on_c, 0, 72, 0
2, 92227, Control_c, 0, 64, 80
2, 92242, Control_c, 0, 64, 84
2, 92258, Control_c, 0, 64, 85
2, 92273, Control_c, 0, 64, 85
2, 92289, Control_c, 0, 64, 83
2, 92303, Control_c, 0, 64, 82
2, 92318, Control_c, 0, 64, 82
2, 92364, Control_c, 0, 64, 81
2, 92380, Control_c, 0, 64, 79
2, 92395, Control_c, 0, 64, 77
2, 92411, Control_c, 0, 64, 75
2, 92425, Control_c, 0, 64, 74
2, 92456, Control_c, 0, 64, 74
2, 92487, Control_c, 0, 64, 73
2, 92501, Control_c, 0, 64, 72
2, 92516, Control_c, 0, 64, 71
2, 92532, Control_c, 0, 64, 69
2, 92547, Control_c, 0, 64, 66
2, 92562, Control_c, 0, 64, 63
2, 92577, Control_c, 0, 64, 60
2, 92585, Note_on_c, 0, 80, 87
2, 92592, Control_c, 0, 64, 55
2, 92605, Note_on_c, 0, 40, 63
2, 92608, Control_c, 0, 64, 43
2, 92622, Control_c, 0, 64, 0
2, 92655, Note_on_c, 0, 42, 0
2, 92804, Control_c, 0, 64, 52
2, 92820, Control_c, 0, 64, 63
2, 92835, Control_c, 0, 64, 69
2, 92858, Control_c, 0, 64, 74
2, 92873, Control_c, 0, 64, 78
2, 92889, Control_c, 0, 64, 81
2, 92905, Control_c, 0, 64, 82
2, 92918, Note_on_c, 0, 40, 0
2, 92920, Control_c, 0, 64, 81
2, 92920, Note_on_c, 0, 68, 0
2, 92923, Note_on_c, 0, 52, 71
2, 92935, Control_c, 0, 64, 81
2, 92950, Control_c, 0, 64, 80
2, 92981, Control_c, 0, 64, 80
2, 93011, Control_c, 0, 64, 79
2, 93026, Control_c, 0, 64, 78
2, 93041, Control_c, 0, 64, 77
2, 93102, Control_c, 0, 64, 76
2, 93132, Control_c, 0, 64, 76
2, 93147, Control_c, 0, 64, 75
2, 93165, Note_on_c, 0, 54, 65
2, 93178, Control_c, 0, 64, 75
2, 93181, Note_on_c, 0, 78, 71
2, 93209, Control_c, 0, 64, 74
2, 93224, Control_c, 0, 64, 73
2, 93232, Note_on_c, 0, 52, 0
2, 93239, Control_c, 0, 64, 72
2, 93255, Control_c, 0, 64, 72
2, 93269, Control_c, 0, 64, 71
2, 93284, Control_c, 0, 64, 71
2, 93300, Control_c, 0, 64, 70
2, 93315, Control_c, 0, 64, 70
2, 93331, Control_c, 0, 64, 69
2, 93360, Control_c, 0, 64, 69
2, 93376, Control_c, 0, 64, 68
2, 93391, Control_c, 0, 64, 68
2, 93392, Note_on_c, 0, 76, 71
2, 93403, Note_on_c, 0, 56, 62
2, 93407, Control_c, 0, 64, 67
2, 93421, Control_c, 0, 64, 66
2, 93436, Control_c, 0, 64, 66
2, 93452, Control_c, 0, 64, 65
2, 93457, Note_on_c, 0, 80, 0
2, 93466, Control_c, 0, 64, 64
2, 93481, Control_c, 0, 64, 64
2, 93498, Note_on_c, 0, 54, 0
2, 93528, Control_c, 0, 64, 63
2, 93557, Control_c, 0, 64, 63
2, 93588, Control_c, 0, 64, 62
2, 93626, Control_c, 0, 64, 62
2, 93636, Note_on_c, 0, 57, 62
2, 93636, Note_on_c, 0, 75, 80
2, 93638, Note_on_c, 0, 78, 0
2, 93657, Control_c, 0, 64, 61
2, 93687, Control_c, 0, 64, 61
2, 93717, Control_c, 0, 64, 60
2, 93720, Note_on_c, 0, 56, 0
2, 93728, Note_on_c, 0, 76, 0
2, 93749, Control_c, 0, 64, 60
2, 93794, Control_c, 0, 64, 59
2, 93825, Control_c, 0, 64, 59
2, 93840, Control_c, 0, 64, 58
2, 93853, Note_on_c, 0, 73, 77
2, 93856, Note_on_c, 0, 54, 66
2, 93870, Control_c, 0, 64, 58
2, 93885, Control_c, 0, 64, 57
2, 93900, Control_c, 0, 64, 56
2, 93915, Control_c, 0, 64, 55
2, 93931, Control_c, 0, 64, 55
2, 93946, Control_c, 0, 64, 54
2, 93960, Note_on_c, 0, 57, 0
2, 94007, Control_c, 0, 64, 54
2, 94037, Control_c, 0, 64, 53
2, 94053, Control_c, 0, 64, 53
2, 94067, Control_c, 0, 64, 52
2, 94079, Note_on_c, 0, 72, 70
2, 94082, Control_c, 0, 64, 52
2, 94089, Note_on_c, 0, 51, 64
2, 94098, Control_c, 0, 64, 51
2, 94113, Control_c, 0, 64, 51
2, 94129, Control_c, 0, 64, 50
2, 94144, Control_c, 0, 64, 49
2, 94144, Note_on_c, 0, 73, 0
2, 94152, Note_on_c, 0, 54, 0
2, 94159, Control_c, 0, 64, 48
2, 94170, Note_on_c, 0, 75, 0
2, 94175, Control_c, 0, 64, 48
2, 94189, Control_c, 0, 64, 47
2, 94220, Control_c, 0, 64, 47
2, 94250, Control_c, 0, 64, 46
2, 94265, Control_c, 0, 64, 45
2, 94280, Control_c, 0, 64, 45
2, 94296, Control_c, 0, 64, 44
2, 94310, Control_c, 0, 64, 44
2, 94315, Note_on_c, 0, 52, 61
2, 94315, Note_on_c, 0, 73, 78
2, 94325, Control_c, 0, 64, 43
2, 94341, Control_c, 0, 64, 42
2, 94356, Control_c, 0, 64, 42
2, 94361, Note_on_c, 0, 51, 0
2, 94372, Control_c, 0, 64, 41
2, 94410, Control_c, 0, 64, 41
2, 94421, Note_on_c, 0, 72, 0
2, 94440, Control_c, 0, 64, 40
2, 94515, Control_c, 0, 64, 40
2, 94525, Note_on_c, 0, 54, 64
2, 94530, Control_c, 0, 64, 39
2, 94536, Note_on_c, 0, 75, 76
2, 94546, Control_c, 0, 64, 39
2, 94546, Note_on_c, 0, 52, 0
2, 94561, Control_c, 0, 64, 38
2, 94621, Note_on_c, 0, 73, 0
2, 94622, Control_c, 0, 64, 38
2, 94754, Note_on_c, 0, 78, 73
2, 94757, Note_on_c, 0, 51, 69
2, 94761, Control_c, 0, 64, 37
2, 94820, Note_on_c, 0, 75, 0
2, 95008, Note_on_c, 0, 69, 68
2, 95011, Note_on_c, 0, 48, 62
2, 95017, Note_on_c, 0, 54, 0
2, 95073, Note_on_c, 0, 51, 0
2, 95090, Note_on_c, 0, 78, 0
2, 95181, Control_c, 0, 64, 37
2, 95212, Control_c, 0, 64, 36
2, 95227, Control_c, 0, 64, 36
2, 95242, Control_c, 0, 64, 35
2, 95249, Note_on_c, 0, 49, 66
2, 95257, Control_c, 0, 64, 34
2, 95274, Control_c, 0, 64, 33
2, 95288, Control_c, 0, 64, 32
2, 95293, Note_on_c, 0, 48, 0
2, 95303, Control_c, 0, 64, 31
2, 95319, Control_c, 0, 64, 31
2, 95349, Control_c, 0, 64, 30
2, 95502, Note_on_c, 0, 51, 69
2, 95573, Note_on_c, 0, 49, 0
2, 95732, Note_on_c, 0, 48, 62
2, 95738, Note_on_c, 0, 68, 73
2, 95778, Note_on_c, 0, 51, 0
2, 95810, Note_on_c, 0, 69, 0
2, 95853, Control_c, 0, 64, 24
2, 95869, Control_c, 0, 64, 0
2, 95977, Note_on_c, 0, 69, 65
2, 95980, Note_on_c, 0, 44, 63
2, 96014, Note_on_c, 0, 68, 0
2, 96052, Note_on_c, 0, 48, 0
2, 96107, Control_c, 0, 64, 50
2, 96122, Control_c, 0, 64, 63
2, 96136, Control_c, 0, 64, 69
2, 96152, Control_c, 0, 64, 73
2, 96167, Control_c, 0, 64, 76
2, 96183, Control_c, 0, 64, 78
2, 96198, Control_c, 0, 64, 78
2, 96215, Note_on_c, 0, 46, 70
2, 96226, Note_on_c, 0, 66, 78
2, 96229, Control_c, 0, 64, 78
2, 96262, Note_on_c, 0, 69, 0
2, 96289, Note_on_c, 0, 66, 0
2, 96336, Note_on_c, 0, 44, 0
2, 96351, Control_c, 0, 64, 78
2, 96366, Control_c, 0, 64, 79
2, 96381, Control_c, 0, 64, 79
2, 96396, Control_c, 0, 64, 80
2, 96411, Control_c, 0, 64, 81
2, 96427, Control_c, 0, 64, 81
2, 96502, Control_c, 0, 64, 81
2, 96517, Control_c, 0, 64, 80
2, 96532, Control_c, 0, 64, 79
2, 96548, Control_c, 0, 64, 77
2, 96563, Control_c, 0, 64, 75
2, 96568, Note_on_c, 0, 81, 80
2, 96577, Control_c, 0, 64, 74
2, 96593, Control_c, 0, 64, 73
2, 96601, Note_on_c, 0, 48, 64
2, 96608, Control_c, 0, 64, 72
2, 96624, Control_c, 0, 64, 72
2, 96639, Control_c, 0, 64, 71
2, 96653, Control_c, 0, 64, 70
2, 96669, Control_c, 0, 64, 68
2, 96674, Note_on_c, 0, 46, 0
2, 96684, Control_c, 0, 64, 67
2, 96707, Control_c, 0, 64, 65
2, 96722, Control_c, 0, 64, 64
2, 96737, Control_c, 0, 64, 63
2, 96753, Control_c, 0, 64, 62
2, 96789, Control_c, 0, 64, 62
2, 96804, Control_c, 0, 64, 61
2, 96833, Note_on_c, 0, 49, 66
2, 96835, Control_c, 0, 64, 61
2, 96865, Control_c, 0, 64, 60
2, 96880, Control_c, 0, 64, 60
2, 96893, Note_on_c, 0, 48, 0
2, 96911, Control_c, 0, 64, 59
2, 96941, Control_c, 0, 64, 58
2, 96956, Control_c, 0, 64, 58
2, 96972, Control_c, 0, 64, 57
2, 96987, Control_c, 0, 64, 56
2, 97002, Control_c, 0, 64, 55
2, 97018, Control_c, 0, 64, 55
2, 97033, Control_c, 0, 64, 54
2, 97064, Control_c, 0, 64, 53
2, 97065, Note_on_c, 0, 51, 69
2, 97079, Control_c, 0, 64, 53
2, 97095, Control_c, 0, 64, 52
2, 97109, Control_c, 0, 64, 50
2, 97124, Control_c, 0, 64, 49
2, 97140, Control_c, 0, 64, 48
2, 97140, Note_on_c, 0, 49, 0
2, 97155, Control_c, 0, 64, 48
2, 97216, Control_c, 0, 64, 47
2, 97297, Note_on_c, 0, 52, 67
2, 97307, Control_c, 0, 64, 47
2, 97342, Note_on_c, 0, 51, 0
2, 97352, Control_c, 0, 64, 46
2, 97368, Control_c, 0, 64, 46
2, 97398, Control_c, 0, 64, 45
2, 97413, Control_c, 0, 64, 45
2, 97428, Control_c, 0, 64, 44
2, 97443, Control_c, 0, 64, 43
2, 97467, Control_c, 0, 64, 42
2, 97482, Control_c, 0, 64, 40
2, 97497, Control_c, 0, 64, 39
2, 97512, Control_c, 0, 64, 38
2, 97528, Control_c, 0, 64, 37
2, 97542, Control_c, 0, 64, 36
2, 97550, Note_on_c, 0, 80, 74
2, 97557, Control_c, 0, 64, 35
2, 97565, Note_on_c, 0, 54, 60
2, 97573, Control_c, 0, 64, 34
2, 97603, Control_c, 0, 64, 34
2, 97611, Note_on_c, 0, 52, 0
2, 97623, Note_on_c, 0, 81, 0
2, 97724, Control_c, 0, 64, 34
2, 97792, Note_on_c, 0, 56, 60
2, 97800, Note_on_c, 0, 78, 73
2, 97854, Note_on_c, 0, 80, 0
2, 97862, Control_c, 0, 64, 35
2, 97893, Control_c, 0, 64, 35
2, 97908, Control_c, 0, 64, 36
2, 97922, Control_c, 0, 64, 37
2, 97938, Control_c, 0, 64, 37
2, 97950, Note_on_c, 0, 54, 0
2, 98015, Control_c, 0, 64, 38
2, 98041, Note_on_c, 0, 58, 69
2, 98042, Note_on_c, 0, 76, 69
2, 98078, Note_on_c, 0, 78, 0
2, 98256, Note_on_c, 0, 56, 0
2, 98296, Note_on_c, 0, 75, 83
2, 98300, Note_on_c, 0, 60, 64
2, 98327, Control_c, 0, 64, 38
2, 98358, Note_on_c, 0, 76, 0
2, 98385, Note_on_c, 0, 58, 0
2, 98580, Note_on_c, 0, 76, 73
2, 98597, Note_on_c, 0, 61, 55
2, 98644, Note_on_c, 0, 75, 0
2, 98653, Note_on_c, 0, 60, 0
2, 98848, Note_on_c, 0, 59, 53
2, 98855, Note_on_c, 0, 75, 62
2, 98889, Note_on_c, 0, 61, 0
2, 99077, Note_on_c, 0, 73, 63
2, 99080, Note_on_c, 0, 57, 48
2, 99168, Note_on_c, 0, 59, 0
2, 99200, Control_c, 0, 64, 38
2, 99230, Control_c, 0, 64, 37
2, 99244, Note_on_c, 0, 75, 0
2, 99300, Note_on_c, 0, 72, 55
2, 99306, Control_c, 0, 64, 37
2, 99315, Note_on_c, 0, 56, 47
2, 99339, Note_on_c, 0, 73, 0
2, 99362, Note_on_c, 0, 57, 0
2, 99367, Control_c, 0, 64, 36
2, 99490, Control_c, 0, 64, 36
2, 99575, Note_on_c, 0, 73, 58
2, 99586, Note_on_c, 0, 57, 52
2, 99623, Note_on_c, 0, 56, 0
2, 99638, Note_on_c, 0, 72, 0
2, 99816, Control_c, 0, 64, 37
2, 99831, Control_c, 0, 64, 39
2, 99847, Control_c, 0, 64, 41
2, 99862, Control_c, 0, 64, 44
2, 99869, Note_on_c, 0, 81, 65
2, 99876, Control_c, 0, 64, 47
2, 99892, Control_c, 0, 64, 50
2, 99892, Note_on_c, 0, 54, 48
2, 99907, Control_c, 0, 64, 54
2, 99922, Control_c, 0, 64, 57
2, 99935, Note_on_c, 0, 57, 0
2, 99938, Control_c, 0, 64, 60
2, 99953, Control_c, 0, 64, 63
2, 99969, Control_c, 0, 64, 66
2, 99983, Control_c, 0, 64, 69
2, 99997, Note_on_c, 0, 73, 0
2, 99998, Control_c, 0, 64, 74
2, 100014, Control_c, 0, 64, 78
2, 100029, Control_c, 0, 64, 81
2, 100036, Note_on_c, 0, 76, 0
2, 100044, Control_c, 0, 64, 82
2, 100074, Control_c, 0, 64, 81
2, 100090, Control_c, 0, 64, 80
2, 100150, Control_c, 0, 64, 79
2, 100165, Control_c, 0, 64, 79
2, 100181, Control_c, 0, 64, 77
2, 100196, Control_c, 0, 64, 76
2, 100211, Control_c, 0, 64, 74
2, 100223, Note_on_c, 0, 56, 54
2, 100225, Note_on_c, 0, 73, 69
2, 100226, Control_c, 0, 64, 73
2, 100257, Control_c, 0, 64, 72
2, 100272, Control_c, 0, 64, 72
2, 100289, Control_c, 0, 64, 70
2, 100303, Control_c, 0, 64, 68
2, 100303, Note_on_c, 0, 54, 0
2, 100318, Control_c, 0, 64, 66
2, 100334, Control_c, 0, 64, 63
2, 100341, Note_on_c, 0, 76, 69
2, 100349, Control_c, 0, 64, 62
2, 100364, Control_c, 0, 64, 61
2, 100379, Control_c, 0, 64, 61
2, 100382, Note_on_c, 0, 81, 0
2, 100394, Control_c, 0, 64, 59
2, 100410, Control_c, 0, 64, 53
2, 100425, Control_c, 0, 64, 38
2, 100439, Control_c, 0, 64, 14
2, 100455, Control_c, 0, 64, 0
2, 100842, Control_c, 0, 64, 43
2, 100858, Control_c, 0, 64, 57
2, 100873, Control_c, 0, 64, 61
2, 100889, Control_c, 0, 64, 62
2, 100904, Control_c, 0, 64, 63
2, 100934, Control_c, 0, 64, 63
2, 100964, Control_c, 0, 64, 64
2, 101055, Control_c, 0, 64, 64
2, 101064, Note_on_c, 0, 78, 62
2, 101152, Note_on_c, 0, 76, 0
2, 101269, Control_c, 0, 64, 64
2, 101338, Control_c, 0, 64, 63
2, 101353, Control_c, 0, 64, 63
2, 101383, Control_c, 0, 64, 62
2, 101387, Note_on_c, 0, 44, 40
2, 101387, Note_on_c, 0, 76, 62
2, 101398, Control_c, 0, 64, 61
2, 101405, Note_on_c, 0, 73, 0
2, 101411, Note_on_c, 0, 72, 49
2, 101413, Control_c, 0, 64, 61
2, 101428, Control_c, 0, 64, 60
2, 101443, Control_c, 0, 64, 58
2, 101459, Control_c, 0, 64, 57
2, 101474, Control_c, 0, 64, 55
2, 101489, Control_c, 0, 64, 53
2, 101503, Note_on_c, 0, 75, 69
2, 101504, Control_c, 0, 64, 52
2, 101519, Control_c, 0, 64, 52
2, 101535, Control_c, 0, 64, 51
2, 101542, Note_on_c, 0, 76, 0
2, 101550, Control_c, 0, 64, 50
2, 101564, Control_c, 0, 64, 49
2, 101580, Control_c, 0, 64, 47
2, 101587, Note_on_c, 0, 75, 0
2, 101590, Note_on_c, 0, 73, 67
2, 101595, Control_c, 0, 64, 46
2, 101600, Note_on_c, 0, 78, 0
2, 101610, Control_c, 0, 64, 45
2, 101625, Control_c, 0, 64, 44
2, 101640, Control_c, 0, 64, 44
2, 101656, Control_c, 0, 64, 43
2, 101668, Note_on_c, 0, 75, 72
2, 101671, Control_c, 0, 64, 43
2, 101687, Control_c, 0, 64, 42
2, 101702, Control_c, 0, 64, 41
2, 101717, Control_c, 0, 64, 41
2, 101733, Control_c, 0, 64, 40
2, 101738, Note_on_c, 0, 73, 0
2, 101747, Control_c, 0, 64, 40
2, 101778, Control_c, 0, 64, 39
2, 101808, Control_c, 0, 64, 39
2, 101838, Control_c, 0, 64, 38
2, 102178, Note_on_c, 0, 73, 68
2, 102185, Note_on_c, 0, 46, 50
2, 102231, Note_on_c, 0, 75, 0
2, 102259, Note_on_c, 0, 72, 0
2, 102260, Note_on_c, 0, 56, 0
2, 102275, Note_on_c, 0, 44, 0
2, 102466, Note_on_c, 0, 71, 60
2, 102476, Note_on_c, 0, 56, 48
2, 102697, Note_on_c, 0, 55, 48
2, 102705, Note_on_c, 0, 70, 62
2, 102716, Note_on_c, 0, 56, 0
2, 102742, Note_on_c, 0, 71, 0
2, 102745, Control_c, 0, 64, 38
2, 102933, Note_on_c, 0, 68, 60
2, 102934, Note_on_c, 0, 55, 0
2, 102955, Note_on_c, 0, 56, 46
2, 102979, Note_on_c, 0, 70, 0
2, 103163, Note_on_c, 0, 67, 60
2, 103191, Note_on_c, 0, 58, 49
2, 103200, Note_on_c, 0, 68, 0
2, 103218, Note_on_c, 0, 56, 0
2, 103412, Note_on_c, 0, 68, 63
2, 103423, Note_on_c, 0, 51, 46
2, 103466, Note_on_c, 0, 67, 0
2, 103668, Note_on_c, 0, 58, 0
2, 103673, Note_on_c, 0, 52, 51
2, 103677, Note_on_c, 0, 67, 61
2, 103735, Note_on_c, 0, 51, 0
2, 103750, Note_on_c, 0, 68, 0
2, 103959, Control_c, 0, 64, 38
2, 104249, Control_c, 0, 64, 39
2, 104389, Note_on_c, 0, 47, 53
2, 104398, Note_on_c, 0, 76, 68
2, 104529, Note_on_c, 0, 46, 0
2, 104557, Note_on_c, 0, 73, 0
2, 104679, Note_on_c, 0, 49, 61
2, 104679, Note_on_c, 0, 75, 74
2, 104756, Note_on_c, 0, 47, 0
2, 104772, Note_on_c, 0, 76, 0
2, 105147, Note_on_c, 0, 43, 59
2, 105175, Note_on_c, 0, 76, 75
2, 105265, Note_on_c, 0, 75, 0
2, 105406, Note_on_c, 0, 68, 69
2, 105421, Note_on_c, 0, 51, 64
2, 105438, Note_on_c, 0, 49, 0
2, 105596, Note_on_c, 0, 67, 0
2, 105641, Note_on_c, 0, 70, 72
2, 105650, Note_on_c, 0, 49, 64
2, 105710, Note_on_c, 0, 68, 0
2, 105783, Control_c, 0, 64, 39
2, 105848, Note_on_c, 0, 52, 0
2, 105851, Note_on_c, 0, 68, 67
2, 105860, Note_on_c, 0, 47, 59
2, 105894, Note_on_c, 0, 51, 0
2, 105924, Note_on_c, 0, 70, 0
2, 105925, Note_on_c, 0, 49, 0
2, 106079, Note_on_c, 0, 71, 72
2, 106089, Note_on_c, 0, 49, 61
2, 106104, Note_on_c, 0, 68, 0
2, 106227, Note_on_c, 0, 47, 0
2, 106307, Note_on_c, 0, 52, 64
2, 106308, Note_on_c, 0, 70, 78
2, 106340, Control_c, 0, 64, 40
2, 106341, Note_on_c, 0, 71, 0
2, 106385, Control_c, 0, 64, 40
2, 106470, Note_on_c, 0, 49, 0
2, 106476, Control_c, 0, 64, 41
2, 106500, Note_on_c, 0, 70, 0
2, 106507, Control_c, 0, 64, 41
2, 106581, Note_on_c, 0, 70, 84
2, 106592, Note_on_c, 0, 55, 67
2, 106659, Control_c, 0, 64, 42
2, 106661, Note_on_c, 0, 52, 0
2, 106788, Control_c, 0, 64, 42
2, 106803, Control_c, 0, 64, 43
2, 106834, Control_c, 0, 64, 43
2, 106850, Control_c, 0, 64, 44
2, 106865, Control_c, 0, 64, 44
2, 106880, Control_c, 0, 64, 45
2, 106896, Control_c, 0, 64, 45
2, 106910, Control_c, 0, 64, 46
2, 106925, Control_c, 0, 64, 46
2, 106956, Control_c, 0, 64, 47
2, 106986, Control_c, 0, 64, 47
2, 107184, Control_c, 0, 64, 47
2, 107238, Note_on_c, 0, 44, 64
2, 107244, Control_c, 0, 64, 46
2, 107244, Note_on_c, 0, 72, 75
2, 107260, Control_c, 0, 64, 46
2, 107275, Control_c, 0, 64, 45
2, 107320, Control_c, 0, 64, 45
2, 107330, Note_on_c, 0, 43, 0
2, 107365, Control_c, 0, 64, 44
2, 107427, Control_c, 0, 64, 44
2, 107450, Control_c, 0, 64, 43
2, 107465, Control_c, 0, 64, 40
2, 107480, Control_c, 0, 64, 36
2, 107495, Control_c, 0, 64, 24
2, 107510, Control_c, 0, 64, 0
2, 107539, Note_on_c, 0, 46, 73
2, 107544, Note_on_c, 0, 73, 83
2, 107591, Note_on_c, 0, 76, 0
2, 107613, Note_on_c, 0, 44, 0
2, 107637, Note_on_c, 0, 72, 0
2, 107678, Control_c, 0, 64, 50
2, 107694, Control_c, 0, 64, 64
2, 107702, Note_on_c, 0, 55, 0
2, 107709, Control_c, 0, 64, 70
2, 107724, Control_c, 0, 64, 77
2, 107740, Control_c, 0, 64, 84
2, 107754, Control_c, 0, 64, 91
2, 107770, Control_c, 0, 64, 98
2, 107785, Control_c, 0, 64, 103
2, 107815, Control_c, 0, 64, 102
2, 107830, Control_c, 0, 64, 102
2, 107876, Control_c, 0, 64, 102
2, 107906, Control_c, 0, 64, 102
2, 107921, Control_c, 0, 64, 101
2, 107937, Control_c, 0, 64, 100
2, 107952, Control_c, 0, 64, 99
2, 107997, Control_c, 0, 64, 98
2, 108012, Control_c, 0, 64, 97
2, 108027, Control_c, 0, 64, 96
2, 108042, Control_c, 0, 64, 95
2, 108058, Control_c, 0, 64, 94
2, 108073, Control_c, 0, 64, 93
2, 108089, Control_c, 0, 64, 92
2, 108104, Control_c, 0, 64, 90
2, 108119, Control_c, 0, 64, 86
2, 108135, Control_c, 0, 64, 81
2, 108146, Note_on_c, 0, 79, 83
2, 108149, Control_c, 0, 64, 73
2, 108164, Control_c, 0, 64, 64
2, 108177, Note_on_c, 0, 39, 67
2, 108180, Control_c, 0, 64, 33
2, 108195, Control_c, 0, 64, 0
2, 108278, Note_on_c, 0, 46, 0
2, 108514, Note_on_c, 0, 75, 79
2, 108598, Control_c, 0, 64, 12
2, 108602, Note_on_c, 0, 73, 0
2, 108614, Control_c, 0, 64, 22
2, 108629, Control_c, 0, 64, 31
2, 108643, Control_c, 0, 64, 39
2, 108659, Control_c, 0, 64, 46
2, 108674, Control_c, 0, 64, 52
2, 108690, Control_c, 0, 64, 57
2, 108705, Control_c, 0, 64, 60
2, 108720, Control_c, 0, 64, 63
2, 108735, Control_c, 0, 64, 65
2, 108750, Control_c, 0, 64, 67
2, 108765, Control_c, 0, 64, 69
2, 108771, Note_on_c, 0, 76, 69
2, 108780, Control_c, 0, 64, 71
2, 108795, Control_c, 0, 64, 73
2, 108804, Note_on_c, 0, 75, 0
2, 108811, Control_c, 0, 64, 75
2, 108826, Control_c, 0, 64, 76
2, 108841, Control_c, 0, 64, 77
2, 108856, Control_c, 0, 64, 78
2, 108871, Control_c, 0, 64, 79
2, 108886, Control_c, 0, 64, 79
2, 108902, Control_c, 0, 64, 80
2, 108913, Note_on_c, 0, 39, 0
2, 108917, Control_c, 0, 64, 81
2, 108933, Control_c, 0, 64, 81
2, 108947, Control_c, 0, 64, 82
2, 109002, Note_on_c, 0, 75, 79
2, 109058, Note_on_c, 0, 76, 0
2, 109123, Control_c, 0, 64, 81
2, 109134, Note_on_c, 0, 70, 0
2, 109198, Control_c, 0, 64, 81
2, 109240, Note_on_c, 0, 73, 73
2, 109244, Control_c, 0, 64, 80
2, 109291, Control_c, 0, 64, 80
2, 109321, Control_c, 0, 64, 79
2, 109413, Control_c, 0, 64, 79
2, 109458, Control_c, 0, 64, 78
2, 109464, Note_on_c, 0, 71, 71
2, 109504, Control_c, 0, 64, 78
2, 109519, Control_c, 0, 64, 77
2, 109519, Note_on_c, 0, 75, 0
2, 109550, Control_c, 0, 64, 77
2, 109562, Note_on_c, 0, 73, 0
2, 109580, Control_c, 0, 64, 76
2, 109656, Control_c, 0, 64, 76
2, 109671, Control_c, 0, 64, 75
2, 109694, Note_on_c, 0, 70, 72
2, 109701, Control_c, 0, 64, 75
2, 109716, Control_c, 0, 64, 74
2, 109732, Control_c, 0, 64, 73
2, 109754, Control_c, 0, 64, 73
2, 109770, Control_c, 0, 64, 72
2, 109785, Control_c, 0, 64, 71
2, 109800, Control_c, 0, 64, 71
2, 109816, Control_c, 0, 64, 70
2, 109845, Control_c, 0, 64, 69
2, 109860, Control_c, 0, 64, 69
2, 109875, Control_c, 0, 64, 68
2, 109891, Control_c, 0, 64, 66
2, 109905, Control_c, 0, 64, 66
2, 109920, Control_c, 0, 64, 65
2, 109921, Note_on_c, 0, 68, 74
2, 109951, Control_c, 0, 64, 65
2, 109981, Control_c, 0, 64, 64
2, 110012, Control_c, 0, 64, 64
2, 110032, Note_on_c, 0, 70, 0
2, 110042, Control_c, 0, 64, 63
2, 110103, Control_c, 0, 64, 63
2, 110134, Control_c, 0, 64, 62
2, 110164, Control_c, 0, 64, 62
2, 110168, Note_on_c, 0, 67, 68
2, 110195, Control_c, 0, 64, 61
2, 110218, Note_on_c, 0, 68, 0
2, 110226, Control_c, 0, 64, 61
2, 110256, Control_c, 0, 64, 60
2, 110302, Control_c, 0, 64, 60
2, 110317, Control_c, 0, 64, 59
2, 110362, Control_c, 0, 64, 59
2, 110384, Note_on_c, 0, 65, 69
2, 110432, Note_on_c, 0, 67, 0
2, 110483, Control_c, 0, 64, 58
2, 110597, Control_c, 0, 64, 58
2, 110646, Note_on_c, 0, 72, 67
2, 110650, Note_on_c, 0, 80, 70
2, 110658, Note_on_c, 0, 66, 57
2, 110679, Note_on_c, 0, 79, 0
2, 110688, Note_on_c, 0, 65, 0
2, 110726, Note_on_c, 0, 71, 0
2, 110825, Control_c, 0, 64, 58
2, 110856, Control_c, 0, 64, 59
2, 110885, Control_c, 0, 64, 59
2, 110899, Note_on_c, 0, 63, 70
2, 110901, Control_c, 0, 64, 60
2, 110916, Control_c, 0, 64, 60
2, 110933, Control_c, 0, 64, 61
2, 110948, Control_c, 0, 64, 62
2, 110963, Control_c, 0, 64, 63
2, 110993, Control_c, 0, 64, 63
2, 111024, Control_c, 0, 64, 64
2, 111035, Note_on_c, 0, 66, 0
2, 111069, Control_c, 0, 64, 63
2, 111115, Control_c, 0, 64, 63
2, 111146, Control_c, 0, 64, 62
2, 111161, Control_c, 0, 64, 62
2, 111191, Control_c, 0, 64, 61
2, 111206, Control_c, 0, 64, 61
2, 111213, Note_on_c, 0, 73, 74
2, 111222, Control_c, 0, 64, 60
2, 111236, Control_c, 0, 64, 60
2, 111236, Note_on_c, 0, 64, 53
2, 111252, Control_c, 0, 64, 59
2, 111267, Control_c, 0, 64, 59
2, 111294, Note_on_c, 0, 72, 0
2, 111305, Control_c, 0, 64, 58
2, 111314, Note_on_c, 0, 63, 0
2, 111350, Control_c, 0, 64, 58
2, 111396, Control_c, 0, 64, 57
2, 111441, Control_c, 0, 64, 57
2, 111470, Note_on_c, 0, 63, 46
2, 111479, Note_on_c, 0, 71, 55
2, 111488, Control_c, 0, 64, 56
2, 111517, Control_c, 0, 64, 56
2, 111518, Note_on_c, 0, 80, 0
2, 111540, Note_on_c, 0, 64, 0
2, 111548, Control_c, 0, 64, 55
2, 111624, Control_c, 0, 64, 55
2, 111708, Note_on_c, 0, 61, 56
2, 111708, Note_on_c, 0, 69, 51
2, 111733, Note_on_c, 0, 71, 0
2, 111873, Note_on_c, 0, 63, 0
2, 111952, Note_on_c, 0, 68, 60
2, 111972, Note_on_c, 0, 59, 50
2, 111975, Note_on_c, 0, 69, 0
2, 111992, Note_on_c, 0, 61, 0
2, 112213, Note_on_c, 0, 57, 51
2, 112217, Note_on_c, 0, 66, 49
2, 112243, Note_on_c, 0, 59, 0
2, 112244, Note_on_c, 0, 68, 0
2, 112469, Note_on_c, 0, 69, 54
2, 112498, Note_on_c, 0, 54, 44
2, 112504, Note_on_c, 0, 57, 0
2, 112564, Note_on_c, 0, 66, 0
2, 112746, Note_on_c, 0, 54, 0
2, 112753, Note_on_c, 0, 64, 49
2, 112770, Note_on_c, 0, 56, 39
2, 112802, Control_c, 0, 64, 54
2, 112841, Control_c, 0, 64, 54
2, 112857, Control_c, 0, 64, 53
2, 112933, Control_c, 0, 64, 53
2, 112945, Note_on_c, 0, 69, 0
2, 113020, Note_on_c, 0, 51, 52
2, 113039, Control_c, 0, 64, 52
2, 113084, Note_on_c, 0, 56, 0
2, 113298, Control_c, 0, 64, 52
2, 113320, Note_on_c, 0, 52, 51
2, 113373, Note_on_c, 0, 51, 0
2, 113663, Note_on_c, 0, 75, 64
2, 113664, Note_on_c, 0, 66, 49
2, 113677, Note_on_c, 0, 49, 47
2, 113686, Control_c, 0, 64, 52
2, 113768, Note_on_c, 0, 73, 0
2, 113776, Control_c, 0, 64, 53
2, 113778, Note_on_c, 0, 64, 0
2, 113791, Control_c, 0, 64, 55
2, 113806, Control_c, 0, 64, 58
2, 113822, Control_c, 0, 64, 60
2, 113837, Control_c, 0, 64, 62
2, 113852, Control_c, 0, 64, 64
2, 113867, Control_c, 0, 64, 67
2, 113882, Control_c, 0, 64, 70
2, 113898, Control_c, 0, 64, 74
2, 113912, Control_c, 0, 64, 77
2, 113928, Control_c, 0, 64, 78
2, 113958, Control_c, 0, 64, 78
2, 113974, Control_c, 0, 64, 77
2, 113989, Control_c, 0, 64, 76
2, 114020, Control_c, 0, 64, 75
2, 114035, Control_c, 0, 64, 75
2, 114044, Note_on_c, 0, 72, 66
2, 114050, Control_c, 0, 64, 74
2, 114052, Note_on_c, 0, 63, 45
2, 114065, Control_c, 0, 64, 71
2, 114066, Note_on_c, 0, 44, 42
2, 114080, Control_c, 0, 64, 68
2, 114096, Control_c, 0, 64, 64
2, 114110, Control_c, 0, 64, 58
2, 114111, Note_on_c, 0, 66, 0
2, 114125, Control_c, 0, 64, 50
2, 114141, Control_c, 0, 64, 43
2, 114142, Note_on_c, 0, 49, 0
2, 114156, Control_c, 0, 64, 39
2, 114171, Control_c, 0, 64, 35
2, 114186, Control_c, 0, 64, 25
2, 114202, Control_c, 0, 64, 0
2, 114231, Note_on_c, 0, 52, 0
2, 114451, Note_on_c, 0, 66, 48
2, 114478, Note_on_c, 0, 56, 30
2, 114514, Control_c, 0, 64, 10
2, 114530, Control_c, 0, 64, 28
2, 114544, Control_c, 0, 64, 38
2, 114554, Note_on_c, 0, 75, 0
2, 114559, Control_c, 0, 64, 47
2, 114575, Control_c, 0, 64, 54
2, 114590, Control_c, 0, 64, 59
2, 114605, Control_c, 0, 64, 64
2, 114620, Control_c, 0, 64, 67
2, 114635, Control_c, 0, 64, 71
2, 114651, Control_c, 0, 64, 76
2, 114666, Control_c, 0, 64, 81
2, 114681, Control_c, 0, 64, 84
2, 114696, Control_c, 0, 64, 86
2, 114711, Control_c, 0, 64, 86
2, 114726, Control_c, 0, 64, 85
2, 114741, Control_c, 0, 64, 85
2, 114756, Control_c, 0, 64, 84
2, 114802, Control_c, 0, 64, 84
2, 114818, Control_c, 0, 64, 82
2, 114833, Control_c, 0, 64, 81
2, 114849, Control_c, 0, 64, 80
2, 114864, Control_c, 0, 64, 79
2, 114878, Control_c, 0, 64, 78
2, 114894, Control_c, 0, 64, 77
2, 114896, Note_on_c, 0, 73, 66
2, 114908, Note_on_c, 0, 61, 52
2, 114909, Control_c, 0, 64, 74
2, 114919, Note_on_c, 0, 49, 52
2, 114924, Control_c, 0, 64, 72
2, 114930, Note_on_c, 0, 63, 0
2, 114940, Control_c, 0, 64, 68
2, 114954, Control_c, 0, 64, 64
2, 114956, Note_on_c, 0, 56, 0
2, 114970, Control_c, 0, 64, 58
2, 114970, Note_on_c, 0, 72, 0
2, 114985, Control_c, 0, 64, 52
2, 115000, Control_c, 0, 64, 49
2, 115017, Control_c, 0, 64, 48
2, 115024, Note_on_c, 0, 44, 0
2, 115031, Control_c, 0, 64, 48
2, 115077, Control_c, 0, 64, 47
2, 115160, Control_c, 0, 64, 48
2, 115251, Control_c, 0, 64, 48
2, 115308, Note_on_c, 0, 68, 49
2, 115646, Control_c, 0, 64, 48
2, 115656, Note_on_c, 0, 69, 48
2, 115671, Note_on_c, 0, 54, 41
2, 115710, Note_on_c, 0, 68, 0
2, 115746, Note_on_c, 0, 66, 0
2, 115813, Control_c, 0, 64, 47
2, 115943, Control_c, 0, 64, 47
2, 116050, Control_c, 0, 64, 46
2, 116064, Note_on_c, 0, 66, 45
2, 116155, Control_c, 0, 64, 46
2, 116169, Note_on_c, 0, 61, 0
2, 116246, Control_c, 0, 64, 45
2, 116293, Control_c, 0, 64, 45
2, 116338, Control_c, 0, 64, 44
2, 116383, Control_c, 0, 64, 44
2, 116414, Control_c, 0, 64, 43
2, 116444, Control_c, 0, 64, 43
2, 116474, Control_c, 0, 64, 42
2, 116490, Control_c, 0, 64, 42
2, 116536, Control_c, 0, 64, 41
2, 116539, Note_on_c, 0, 63, 38
2, 116556, Note_on_c, 0, 57, 36
2, 116596, Control_c, 0, 64, 41
2, 116604, Note_on_c, 0, 69, 0
2, 116627, Control_c, 0, 64, 40
2, 116636, Note_on_c, 0, 54, 0
2, 117097, Note_on_c, 0, 72, 45
2, 117212, Control_c, 0, 64, 41
2, 117227, Control_c, 0, 64, 43
2, 117228, Note_on_c, 0, 73, 0
2, 117242, Control_c, 0, 64, 45
2, 117258, Control_c, 0, 64, 47
2, 117272, Control_c, 0, 64, 49
2, 117288, Control_c, 0, 64, 51
2, 117303, Control_c, 0, 64, 53
2, 117318, Control_c, 0, 64, 55
2, 117334, Control_c, 0, 64, 57
2, 117349, Control_c, 0, 64, 60
2, 117364, Control_c, 0, 64, 62
2, 117380, Control_c, 0, 64, 63
2, 117395, Control_c, 0, 64, 65
2, 117410, Control_c, 0, 64, 67
2, 117432, Control_c, 0, 64, 69
2, 117448, Control_c, 0, 64, 72
2, 117463, Control_c, 0, 64, 76
2, 117478, Control_c, 0, 64, 79
2, 117495, Control_c, 0, 64, 83
2, 117509, Control_c, 0, 64, 86
2, 117509, Note_on_c, 0, 63, 0
2, 117524, Control_c, 0, 64, 89
2, 117540, Control_c, 0, 64, 92
2, 117555, Control_c, 0, 64, 93
2, 117585, Control_c, 0, 64, 93
2, 117631, Control_c, 0, 64, 92
2, 117645, Control_c, 0, 64, 91
2, 117661, Control_c, 0, 64, 90
2, 117676, Control_c, 0, 64, 90
2, 117692, Control_c, 0, 64, 89
2, 117707, Control_c, 0, 64, 89
2, 117722, Control_c, 0, 64, 88
2, 117738, Control_c, 0, 64, 87
2, 117752, Control_c, 0, 64, 85
2, 117768, Control_c, 0, 64, 83
2, 117783, Control_c, 0, 64, 81
2, 117798, Control_c, 0, 64, 79
2, 117814, Control_c, 0, 64, 77
2, 117829, Control_c, 0, 64, 75
2, 117832, Note_on_c, 0, 65, 26
2, 117832, Note_on_c, 0, 73, 45
2, 117839, Note_on_c, 0, 68, 34
2, 117841, Note_on_c, 0, 56, 33
2, 117843, Control_c, 0, 64, 72
2, 117859, Control_c, 0, 64, 69
2, 117874, Control_c, 0, 64, 66
2, 117890, Control_c, 0, 64, 63
2, 117905, Control_c, 0, 64, 62
2, 117919, Control_c, 0, 64, 61
2, 117937, Note_on_c, 0, 72, 0
2, 117964, Control_c, 0, 64, 61
2, 117980, Control_c, 0, 64, 60
2, 117980, Note_on_c, 0, 57, 0
2, 117995, Control_c, 0, 64, 60
2, 117997, Note_on_c, 0, 66, 0
2, 118011, Control_c, 0, 64, 59
2, 118026, Control_c, 0, 64, 57
2, 118040, Control_c, 0, 64, 56
2, 118056, Control_c, 0, 64, 55
2, 118071, Control_c, 0, 64, 55
2, 118086, Control_c, 0, 64, 54
2, 118116, Control_c, 0, 64, 54
2, 118147, Control_c, 0, 64, 53
2, 118162, Control_c, 0, 64, 53
2, 118178, Control_c, 0, 64, 52
2, 118231, Control_c, 0, 64, 52
2, 118261, Control_c, 0, 64, 51
2, 118292, Control_c, 0, 64, 51
2, 118323, Control_c, 0, 64, 50
2, 118353, Control_c, 0, 64, 50
2, 118444, Control_c, 0, 64, 49
2, 118642, Control_c, 0, 64, 49
2, 118673, Control_c, 0, 64, 48
2, 118718, Control_c, 0, 64, 48
2, 118749, Control_c, 0, 64, 47
2, 118763, Control_c, 0, 64, 47
2, 118839, Control_c, 0, 64, 46
2, 118999, Control_c, 0, 64, 47
2, 119029, Control_c, 0, 64, 48
2, 119044, Control_c, 0, 64, 49
2, 119060, Control_c, 0, 64, 50
2, 119075, Control_c, 0, 64, 51
2, 119090, Control_c, 0, 64, 52
2, 119105, Control_c, 0, 64, 53
2, 119121, Control_c, 0, 64, 54
2, 119137, Control_c, 0, 64, 56
2, 119152, Control_c, 0, 64, 57
2, 119168, Control_c, 0, 64, 59
2, 119183, Control_c, 0, 64, 60
2, 119197, Control_c, 0, 64, 62
2, 119213, Control_c, 0, 64, 63
2, 119228, Control_c, 0, 64, 65
2, 119243, Control_c, 0, 64, 66
2, 119258, Control_c, 0, 64, 67
2, 119273, Control_c, 0, 64, 69
2, 119289, Control_c, 0, 64, 71
2, 119304, Control_c, 0, 64, 72
2, 119319, Control_c, 0, 64, 74
2, 119334, Control_c, 0, 64, 76
2, 119349, Control_c, 0, 64, 77
2, 119364, Control_c, 0, 64, 79
2, 119380, Control_c, 0, 64, 80
2, 119395, Control_c, 0, 64, 82
2, 119410, Control_c, 0, 64, 84
2, 119425, Control_c, 0, 64, 86
2, 119440, Control_c, 0, 64, 88
2, 119456, Control_c, 0, 64, 89
2, 119471, Control_c, 0, 64, 89
2, 119502, Control_c, 0, 64, 90
2, 119532, Control_c, 0, 64, 91
2, 119547, Control_c, 0, 64, 91
2, 119651, Note_on_c, 0, 49, 0
2, 119653, Control_c, 0, 64, 91
2, 119662, Note_on_c, 0, 56, 0
2, 119683, Control_c, 0, 64, 90
2, 119699, Control_c, 0, 64, 90
2, 119715, Note_on_c, 0, 65, 0
2, 119737, Control_c, 0, 64, 89
2, 119752, Control_c, 0, 64, 89
2, 119760, Note_on_c, 0, 73, 0
2, 119768, Control_c, 0, 64, 88
2, 119783, Control_c, 0, 64, 88
2, 119798, Control_c, 0, 64, 87
2, 119809, Note_on_c, 0, 68, 0
2, 119843, Control_c, 0, 64, 87
2, 119874, Control_c, 0, 64, 86
2, 119890, Control_c, 0, 64, 86
2, 119905, Control_c, 0, 64, 85
2, 119920, Control_c, 0, 64, 85
2, 119936, Control_c, 0, 64, 84
2, 119951, Control_c, 0, 64, 84
2, 119966, Control_c, 0, 64, 83
2, 119982, Control_c, 0, 64, 83
2, 119996, Control_c, 0, 64, 82
2, 120012, Control_c, 0, 64, 81
2, 120027, Control_c, 0, 64, 81
2, 120042, Control_c, 0, 64, 80
2, 120058, Control_c, 0, 64, 80
2, 120073, Control_c, 0, 64, 79
2, 120088, Control_c, 0, 64, 78
2, 120103, Control_c, 0, 64, 77
2, 120118, Control_c, 0, 64, 76
2, 120134, Control_c, 0, 64, 75
2, 120149, Control_c, 0, 64, 74
2, 120164, Control_c, 0, 64, 72
2, 120179, Control_c, 0, 64, 69
2, 120194, Control_c, 0, 64, 68
2, 120210, Control_c, 0, 64, 67
2, 120225, Control_c, 0, 64, 67
2, 120270, Control_c, 0, 64, 66
2, 120300, Control_c, 0, 64, 66
2, 120361, Control_c, 0, 64, 65
2, 120376, Control_c, 0, 64, 65
2, 120391, Control_c, 0, 64, 64
2, 120422, Control_c, 0, 64, 64
2, 120437, Control_c, 0, 64, 63
2, 120468, Control_c, 0, 64, 63
2, 120482, Control_c, 0, 64, 62
2, 120520, Control_c, 0, 64, 62
2, 120536, Control_c, 0, 64, 61
2, 120551, Control_c, 0, 64, 60
2, 120566, Control_c, 0, 64, 59
2, 120581, Control_c, 0, 64, 58
2, 120596, Control_c, 0, 64, 57
2, 120612, Control_c, 0, 64, 56
2, 120627, Control_c, 0, 64, 55
2, 120641, Control_c, 0, 64, 54
2, 120657, Control_c, 0, 64, 53
2, 120672, Control_c, 0, 64, 51
2, 120688, Control_c, 0, 64, 50
2, 120703, Control_c, 0, 64, 48
2, 120717, Control_c, 0, 64, 47
2, 120733, Control_c, 0, 64, 46
2, 120748, Control_c, 0, 64, 45
2, 120764, Control_c, 0, 64, 43
2, 120780, Control_c, 0, 64, 41
2, 120794, Control_c, 0, 64, 39
2, 120810, Control_c, 0, 64, 37
2, 120825, Control_c, 0, 64, 37
2, 120840, Control_c, 0, 64, 36
2, 120856, Control_c, 0, 64, 36
2, 120871, Control_c, 0, 64, 35
2, 120885, Control_c, 0, 64, 35
2, 120901, Control_c, 0, 64, 34
2, 121053, Control_c, 0, 64, 34
2, 121251, Control_c, 0, 64, 35
2, 121638, Control_c, 0, 64, 34
2, 121866, Control_c, 0, 64, 34
2, 121881, Control_c, 0, 64, 33
2, 121897, Control_c, 0, 64, 32
2, 121911, Control_c, 0, 64, 29
2, 121926, Control_c, 0, 64, 24
2, 121942, Control_c, 0, 64, 15
2, 121957, Control_c, 0, 64, 0
2, 122002, Control_c, 0, 67, 9
2, 122018, Control_c, 0, 67, 20
2, 122041, Control_c, 0, 67, 36
2, 122057, Control_c, 0, 67, 56
2, 122071, Control_c, 0, 67, 75
2, 122086, Control_c, 0, 67, 97
2, 122102, Control_c, 0, 67, 115
2, 122116, Control_c, 0, 67, 127
2, 124306, Note_on_c, 0, 49, 30
2, 126834, Note_on_c, 0, 48, 34
2, 127065, Note_on_c, 0, 49, 0
2, 127977, Note_on_c, 0, 52, 43
2, 128133, Note_on_c, 0, 48, 0
2, 129163, Note_on_c, 0, 51, 45
2, 129319, Note_on_c, 0, 52, 0
2, 131556, Note_on_c, 0, 56, 44
2, 131592, Note_on_c, 0, 49, 32
2, 131755, Note_on_c, 0, 51, 0
2, 132126, Note_on_c, 0, 51, 37
2, 132220, Note_on_c, 0, 49, 0
2, 132724, Note_on_c, 0, 52, 41
2, 132794, Note_on_c, 0, 51, 0
2, 133840, Note_on_c, 0, 55, 51
2, 134057, Note_on_c, 0, 56, 0
2, 134350, Note_on_c, 0, 51, 40
2, 134585, Note_on_c, 0, 49, 41
2, 134604, Note_on_c, 0, 51, 0
2, 134901, Note_on_c, 0, 59, 68
2, 134927, Note_on_c, 0, 51, 47
2, 134993, Note_on_c, 0, 49, 0
2, 135002, Note_on_c, 0, 52, 0
2, 135047, Note_on_c, 0, 55, 0
2, 135424, Note_on_c, 0, 56, 46
2, 135505, Note_on_c, 0, 51, 0
2, 135940, Note_on_c, 0, 58, 58
2, 135962, Note_on_c, 0, 49, 41
2, 136075, Note_on_c, 0, 59, 0
2, 136102, Note_on_c, 0, 56, 0
2, 136400, Note_on_c, 0, 51, 40
2, 136534, Note_on_c, 0, 49, 0
2, 136620, Note_on_c, 0, 52, 48
2, 136718, Note_on_c, 0, 51, 0
2, 136941, Note_on_c, 0, 54, 43
2, 136993, Note_on_c, 0, 52, 0
2, 137919, Note_on_c, 0, 56, 48
2, 138057, Note_on_c, 0, 58, 0
2, 138431, Note_on_c, 0, 52, 44
2, 138469, Note_on_c, 0, 54, 0
2, 138949, Note_on_c, 0, 61, 67
2, 138958, Note_on_c, 0, 51, 47
2, 138976, Note_on_c, 0, 57, 50
2, 139039, Note_on_c, 0, 52, 0
2, 139064, Note_on_c, 0, 56, 0
2, 139429, Note_on_c, 0, 49, 40
2, 139468, Note_on_c, 0, 51, 0
2, 139922, Note_on_c, 0, 60, 60
2, 139931, Note_on_c, 0, 51, 49
2, 140003, Note_on_c, 0, 49, 0
2, 140016, Note_on_c, 0, 61, 0
2, 140392, Note_on_c, 0, 56, 50
2, 140445, Note_on_c, 0, 57, 0
2, 140610, Note_on_c, 0, 54, 60
2, 140637, Note_on_c, 0, 56, 0
2, 140895, Note_on_c, 0, 64, 72
2, 140924, Note_on_c, 0, 56, 49
2, 140927, Note_on_c, 0, 49, 40
2, 140978, Note_on_c, 0, 54, 0
2, 140990, Note_on_c, 0, 60, 0
2, 141032, Note_on_c, 0, 51, 0
2, 141406, Note_on_c, 0, 61, 54
2, 141425, Note_on_c, 0, 56, 0
2, 141832, Note_on_c, 0, 61, 0
2, 141880, Note_on_c, 0, 63, 58
2, 141889, Note_on_c, 0, 54, 40
2, 141928, Note_on_c, 0, 64, 0
2, 142351, Note_on_c, 0, 56, 41
2, 142379, Note_on_c, 0, 47, 39
2, 142433, Note_on_c, 0, 49, 0
2, 142484, Note_on_c, 0, 56, 0
2, 142555, Note_on_c, 0, 57, 49
2, 142832, Note_on_c, 0, 59, 50
2, 142844, Note_on_c, 0, 45, 40
2, 142867, Note_on_c, 0, 47, 0
2, 142868, Note_on_c, 0, 57, 0
2, 143333, Note_on_c, 0, 44, 45
2, 143366, Note_on_c, 0, 45, 0
2, 143834, Note_on_c, 0, 63, 0
2, 143856, Note_on_c, 0, 61, 51
2, 143874, Note_on_c, 0, 45, 36
2, 143946, Note_on_c, 0, 44, 0
2, 143948, Note_on_c, 0, 54, 0
2, 144372, Note_on_c, 0, 57, 49
2, 144406, Control_c, 0, 64, 27
2, 144421, Control_c, 0, 64, 58
2, 144436, Control_c, 0, 64, 65
2, 144436, Note_on_c, 0, 59, 0
2, 144451, Control_c, 0, 64, 69
2, 144466, Control_c, 0, 64, 74
2, 144482, Control_c, 0, 64, 78
2, 144497, Control_c, 0, 64, 81
2, 144512, Control_c, 0, 64, 84
2, 144528, Control_c, 0, 64, 85
2, 144543, Control_c, 0, 64, 86
2, 144558, Control_c, 0, 64, 85
2, 144650, Control_c, 0, 64, 85
2, 144665, Control_c, 0, 64, 84
2, 144679, Control_c, 0, 64, 83
2, 144726, Control_c, 0, 64, 83
2, 144740, Control_c, 0, 64, 82
2, 144755, Control_c, 0, 64, 81
2, 144771, Control_c, 0, 64, 79
2, 144786, Control_c, 0, 64, 77
2, 144802, Control_c, 0, 64, 75
2, 144817, Control_c, 0, 64, 73
2, 144831, Control_c, 0, 64, 71
2, 144847, Control_c, 0, 64, 68
2, 144861, Note_on_c, 0, 46, 38
2, 144861, Note_on_c, 0, 66, 57
2, 144862, Control_c, 0, 64, 66
2, 144875, Note_on_c, 0, 56, 39
2, 144876, Control_c, 0, 64, 63
2, 144892, Control_c, 0, 64, 59
2, 144907, Control_c, 0, 64, 53
2, 144923, Control_c, 0, 64, 43
2, 144927, Note_on_c, 0, 57, 0
2, 144932, Note_on_c, 0, 45, 0
2, 144938, Control_c, 0, 64, 18
2, 144953, Control_c, 0, 64, 0
2, 145023, Note_on_c, 0, 61, 0
2, 145373, Note_on_c, 0, 54, 46
2, 145430, Note_on_c, 0, 56, 0
2, 145833, Note_on_c, 0, 48, 46
2, 145836, Note_on_c, 0, 56, 42
2, 145918, Note_on_c, 0, 46, 0
2, 145923, Note_on_c, 0, 54, 0
2, 146355, Note_on_c, 0, 64, 52
2, 146827, Note_on_c, 0, 63, 54
2, 146832, Note_on_c, 0, 49, 33
2, 146844, Note_on_c, 0, 54, 41
2, 146928, Note_on_c, 0, 48, 0
2, 146941, Note_on_c, 0, 56, 0
2, 146959, Note_on_c, 0, 64, 0
2, 146960, Note_on_c, 0, 66, 0
2, 147323, Note_on_c, 0, 61, 55
2, 147334, Note_on_c, 0, 52, 38
2, 147356, Note_on_c, 0, 54, 0
2, 147432, Control_c, 0, 64, 30
2, 147435, Note_on_c, 0, 63, 0
2, 147448, Control_c, 0, 64, 54
2, 147462, Control_c, 0, 64, 63
2, 147477, Control_c, 0, 64, 67
2, 147493, Control_c, 0, 64, 71
2, 147508, Control_c, 0, 64, 74
2, 147524, Control_c, 0, 64, 77
2, 147538, Control_c, 0, 64, 79
2, 147553, Control_c, 0, 64, 81
2, 147569, Control_c, 0, 64, 82
2, 147584, Control_c, 0, 64, 84
2, 147599, Control_c, 0, 64, 84
2, 147645, Control_c, 0, 64, 85
2, 147660, Control_c, 0, 64, 85
2, 147674, Control_c, 0, 64, 86
2, 147705, Control_c, 0, 64, 85
2, 147710, Note_on_c, 0, 61, 0
2, 147797, Control_c, 0, 64, 85
2, 147844, Control_c, 0, 64, 84
2, 147848, Note_on_c, 0, 61, 53
2, 147851, Note_on_c, 0, 44, 47
2, 147858, Control_c, 0, 64, 83
2, 147860, Note_on_c, 0, 51, 48
2, 147873, Control_c, 0, 64, 80
2, 147889, Control_c, 0, 64, 74
2, 147903, Control_c, 0, 64, 66
2, 147914, Note_on_c, 0, 52, 0
2, 147918, Control_c, 0, 64, 51
2, 147934, Control_c, 0, 64, 0
2, 147948, Note_on_c, 0, 49, 0
2, 148276, Control_c, 0, 64, 30
2, 148292, Control_c, 0, 64, 54
2, 148306, Control_c, 0, 64, 62
2, 148322, Control_c, 0, 64, 65
2, 148337, Control_c, 0, 64, 66
2, 148352, Control_c, 0, 64, 67
2, 148365, Note_on_c, 0, 45, 54
2, 148368, Control_c, 0, 64, 69
2, 148382, Control_c, 0, 64, 70
2, 148397, Control_c, 0, 64, 73
2, 148413, Control_c, 0, 64, 76
2, 148428, Control_c, 0, 64, 79
2, 148435, Note_on_c, 0, 44, 0
2, 148444, Control_c, 0, 64, 81
2, 148444, Control_c, 0, 67, 124
2, 148458, Control_c, 0, 64, 83
2, 148458, Control_c, 0, 67, 119
2, 148473, Control_c, 0, 64, 84
2, 148473, Control_c, 0, 67, 112
2, 148489, Control_c, 0, 67, 104
2, 148504, Control_c, 0, 67, 95
2, 148518, Control_c, 0, 67, 87
2, 148534, Control_c, 0, 67, 79
2, 148549, Control_c, 0, 67, 68
2, 148565, Control_c, 0, 67, 56
2, 148580, Control_c, 0, 67, 42
2, 148594, Control_c, 0, 67, 29
2, 148611, Control_c, 0, 67, 19
2, 148626, Control_c, 0, 64, 85
2, 148626, Control_c, 0, 67, 11
2, 148642, Control_c, 0, 67, 0
2, 148778, Control_c, 0, 64, 84
2, 148809, Control_c, 0, 64, 84
2, 148823, Control_c, 0, 64, 82
2, 148838, Control_c, 0, 64, 78
2, 148854, Control_c, 0, 64, 73
2, 148863, Note_on_c, 0, 68, 76
2, 148869, Control_c, 0, 64, 65
2, 148876, Note_on_c, 0, 47, 52
2, 148880, Note_on_c, 0, 59, 57
2, 148885, Control_c, 0, 64, 51
2, 148900, Control_c, 0, 64, 0
2, 148966, Note_on_c, 0, 45, 0
2, 148996, Note_on_c, 0, 61, 0
2, 149135, Control_c, 0, 64, 12
2, 149150, Control_c, 0, 64, 49
2, 149166, Control_c, 0, 64, 58
2, 149181, Control_c, 0, 64, 63
2, 149196, Control_c, 0, 64, 67
2, 149212, Control_c, 0, 64, 71
2, 149226, Control_c, 0, 64, 75
2, 149242, Control_c, 0, 64, 79
2, 149257, Control_c, 0, 64, 84
2, 149272, Control_c, 0, 64, 88
2, 149272, Note_on_c, 0, 51, 0
2, 149288, Control_c, 0, 64, 90
2, 149302, Control_c, 0, 64, 92
2, 149348, Control_c, 0, 64, 91
2, 149363, Note_on_c, 0, 50, 52
2, 149486, Control_c, 0, 64, 91
2, 149562, Control_c, 0, 64, 90
2, 149591, Control_c, 0, 64, 90
2, 149607, Control_c, 0, 64, 89
2, 149622, Control_c, 0, 64, 89
2, 149637, Control_c, 0, 64, 87
2, 149653, Control_c, 0, 64, 86
2, 149667, Control_c, 0, 64, 83
2, 149683, Control_c, 0, 64, 81
2, 149706, Control_c, 0, 64, 80
2, 149722, Control_c, 0, 64, 79
2, 149737, Control_c, 0, 64, 78
2, 149796, Control_c, 0, 64, 77
2, 149812, Control_c, 0, 64, 77
2, 149826, Note_on_c, 0, 65, 72
2, 149827, Control_c, 0, 64, 75
2, 149843, Control_c, 0, 64, 72
2, 149846, Note_on_c, 0, 49, 48
2, 149852, Note_on_c, 0, 61, 53
2, 149858, Control_c, 0, 64, 67
2, 149872, Control_c, 0, 64, 59
2, 149882, Note_on_c, 0, 50, 0
2, 149888, Control_c, 0, 64, 25
2, 149892, Note_on_c, 0, 59, 0
2, 149903, Control_c, 0, 64, 0
2, 149965, Note_on_c, 0, 68, 0
2, 150116, Control_c, 0, 64, 25
2, 150131, Control_c, 0, 64, 39
2, 150146, Control_c, 0, 64, 48
2, 150162, Control_c, 0, 64, 54
2, 150177, Control_c, 0, 64, 59
2, 150192, Control_c, 0, 64, 63
2, 150207, Control_c, 0, 64, 65
2, 150222, Control_c, 0, 64, 67
2, 150237, Control_c, 0, 64, 70
2, 150254, Control_c, 0, 64, 72
2, 150269, Control_c, 0, 64, 74
2, 150284, Note_on_c, 0, 45, 52
2, 150285, Control_c, 0, 64, 75
2, 150295, Note_on_c, 0, 47, 0
2, 150299, Control_c, 0, 64, 77
2, 150390, Control_c, 0, 64, 77
2, 150535, Control_c, 0, 64, 77
2, 150640, Control_c, 0, 64, 76
2, 150656, Control_c, 0, 64, 76
2, 150687, Control_c, 0, 64, 75
2, 150702, Control_c, 0, 64, 75
2, 150716, Control_c, 0, 64, 74
2, 150732, Control_c, 0, 64, 72
2, 150747, Control_c, 0, 64, 70
2, 150758, Note_on_c, 0, 69, 73
2, 150762, Control_c, 0, 64, 66
2, 150765, Note_on_c, 0, 66, 66
2, 150769, Note_on_c, 0, 44, 55
2, 150777, Control_c, 0, 64, 61
2, 150792, Control_c, 0, 64, 52
2, 150796, Note_on_c, 0, 45, 0
2, 150808, Control_c, 0, 64, 44
2, 150823, Control_c, 0, 64, 43
2, 150856, Note_on_c, 0, 65, 0
2, 150899, Control_c, 0, 64, 44
2, 150902, Note_on_c, 0, 61, 0
2, 150914, Control_c, 0, 64, 45
2, 150930, Control_c, 0, 64, 48
2, 150945, Control_c, 0, 64, 51
2, 150960, Control_c, 0, 64, 53
2, 150975, Control_c, 0, 64, 54
2, 150990, Control_c, 0, 64, 56
2, 151006, Control_c, 0, 64, 58
2, 151021, Control_c, 0, 64, 59
2, 151036, Control_c, 0, 64, 61
2, 151051, Control_c, 0, 64, 63
2, 151067, Control_c, 0, 64, 65
2, 151083, Control_c, 0, 64, 67
2, 151098, Control_c, 0, 64, 69
2, 151113, Control_c, 0, 64, 71
2, 151129, Control_c, 0, 64, 72
2, 151143, Control_c, 0, 64, 73
2, 151158, Control_c, 0, 64, 74
2, 151242, Note_on_c, 0, 42, 66
2, 151279, Note_on_c, 0, 44, 0
2, 151348, Note_on_c, 0, 49, 0
2, 151406, Control_c, 0, 64, 73
2, 151513, Control_c, 0, 64, 73
2, 151558, Control_c, 0, 64, 72
2, 151603, Control_c, 0, 64, 72
2, 151619, Control_c, 0, 64, 71
2, 151634, Control_c, 0, 64, 71
2, 151650, Control_c, 0, 64, 70
2, 151665, Control_c, 0, 64, 69
2, 151680, Control_c, 0, 64, 68
2, 151695, Control_c, 0, 64, 66
2, 151710, Control_c, 0, 64, 64
2, 151725, Control_c, 0, 64, 58
2, 151741, Control_c, 0, 64, 44
2, 151756, Control_c, 0, 64, 18
2, 151763, Note_on_c, 0, 49, 62
2, 151763, Note_on_c, 0, 68, 76
2, 151772, Control_c, 0, 64, 0
2, 151788, Note_on_c, 0, 69, 0
2, 151818, Note_on_c, 0, 42, 0
2, 152007, Control_c, 0, 64, 25
2, 152023, Control_c, 0, 64, 49
2, 152038, Control_c, 0, 64, 58
2, 152053, Control_c, 0, 64, 63
2, 152068, Control_c, 0, 64, 65
2, 152083, Control_c, 0, 64, 66
2, 152099, Control_c, 0, 64, 68
2, 152114, Control_c, 0, 64, 69
2, 152130, Control_c, 0, 64, 71
2, 152145, Control_c, 0, 64, 72
2, 152160, Control_c, 0, 64, 73
2, 152175, Control_c, 0, 64, 74
2, 152205, Control_c, 0, 64, 74
2, 152251, Control_c, 0, 64, 75
2, 152266, Control_c, 0, 64, 75
2, 152276, Note_on_c, 0, 64, 59
2, 152281, Control_c, 0, 64, 76
2, 152297, Control_c, 0, 64, 77
2, 152312, Control_c, 0, 64, 78
2, 152326, Control_c, 0, 64, 79
2, 152342, Control_c, 0, 64, 80
2, 152357, Control_c, 0, 64, 81
2, 152372, Control_c, 0, 64, 82
2, 152383, Note_on_c, 0, 66, 0
2, 152387, Control_c, 0, 64, 83
2, 152402, Control_c, 0, 64, 84
2, 152418, Control_c, 0, 64, 85
2, 152433, Control_c, 0, 64, 87
2, 152447, Control_c, 0, 64, 88
2, 152463, Control_c, 0, 64, 89
2, 152478, Control_c, 0, 64, 89
2, 152494, Control_c, 0, 64, 90
2, 152509, Control_c, 0, 64, 90
2, 152585, Control_c, 0, 64, 90
2, 152631, Control_c, 0, 64, 89
2, 152707, Control_c, 0, 64, 88
2, 152722, Control_c, 0, 64, 88
2, 152738, Control_c, 0, 64, 86
2, 152760, Control_c, 0, 64, 83
2, 152776, Control_c, 0, 64, 78
2, 152776, Note_on_c, 0, 73, 84
2, 152790, Note_on_c, 0, 66, 62
2, 152791, Control_c, 0, 64, 70
2, 152795, Note_on_c, 0, 63, 63
2, 152799, Note_on_c, 0, 45, 51
2, 152806, Control_c, 0, 64, 59
2, 152821, Control_c, 0, 64, 0
2, 152835, Note_on_c, 0, 68, 0
2, 152867, Note_on_c, 0, 64, 0
2, 153032, Control_c, 0, 64, 39
2, 153047, Control_c, 0, 64, 56
2, 153063, Control_c, 0, 64, 62
2, 153078, Control_c, 0, 64, 65
2, 153093, Control_c, 0, 64, 68
2, 153108, Control_c, 0, 64, 71
2, 153123, Control_c, 0, 64, 73
2, 153139, Control_c, 0, 64, 76
2, 153154, Control_c, 0, 64, 78
2, 153169, Control_c, 0, 64, 79
2, 153184, Control_c, 0, 64, 79
2, 153215, Control_c, 0, 64, 80
2, 153270, Note_on_c, 0, 61, 63
2, 153291, Control_c, 0, 64, 80
2, 153321, Control_c, 0, 64, 81
2, 153337, Control_c, 0, 64, 82
2, 153352, Control_c, 0, 64, 83
2, 153366, Control_c, 0, 64, 83
2, 153382, Control_c, 0, 64, 84
2, 153382, Note_on_c, 0, 63, 0
2, 153397, Control_c, 0, 64, 85
2, 153413, Control_c, 0, 64, 86
2, 153427, Control_c, 0, 64, 86
2, 153442, Control_c, 0, 64, 87
2, 153458, Control_c, 0, 64, 87
2, 153473, Control_c, 0, 64, 88
2, 153489, Control_c, 0, 64, 89
2, 153518, Control_c, 0, 64, 89
2, 153536, Note_on_c, 0, 73, 0
2, 153650, Control_c, 0, 64, 89
2, 153725, Control_c, 0, 64, 87
2, 153741, Control_c, 0, 64, 84
2, 153743, Note_on_c, 0, 72, 79
2, 153756, Control_c, 0, 64, 78
2, 153765, Note_on_c, 0, 63, 69
2, 153772, Control_c, 0, 64, 68
2, 153777, Note_on_c, 0, 61, 0
2, 153786, Control_c, 0, 64, 53
2, 153801, Control_c, 0, 64, 0
2, 153923, Control_c, 0, 64, 42
2, 153938, Control_c, 0, 64, 59
2, 153953, Control_c, 0, 64, 66
2, 153969, Control_c, 0, 64, 73
2, 153984, Control_c, 0, 64, 82
2, 153999, Control_c, 0, 64, 91
2, 154014, Control_c, 0, 64, 101
2, 154029, Control_c, 0, 64, 110
2, 154059, Control_c, 0, 64, 108
2, 154070, Note_on_c, 0, 66, 0
2, 154074, Control_c, 0, 64, 107
2, 154090, Control_c, 0, 64, 107
2, 154150, Control_c, 0, 64, 106
2, 154165, Control_c, 0, 64, 106
2, 154212, Control_c, 0, 64, 105
2, 154227, Control_c, 0, 64, 105
2, 154242, Control_c, 0, 64, 104
2, 154245, Note_on_c, 0, 44, 64
2, 154257, Control_c, 0, 64, 104
2, 154332, Note_on_c, 0, 45, 0
2, 154340, Note_on_c, 0, 63, 0
2, 154523, Control_c, 0, 64, 103
2, 154554, Control_c, 0, 64, 103
2, 154570, Control_c, 0, 64, 102
2, 154584, Control_c, 0, 64, 101
2, 154599, Control_c, 0, 64, 101
2, 154615, Control_c, 0, 64, 100
2, 154630, Control_c, 0, 64, 100
2, 154645, Control_c, 0, 64, 98
2, 154661, Control_c, 0, 64, 96
2, 154676, Control_c, 0, 64, 94
2, 154692, Control_c, 0, 64, 89
2, 154706, Control_c, 0, 64, 80
2, 154721, Control_c, 0, 64, 70
2, 154722, Note_on_c, 0, 76, 79
2, 154725, Note_on_c, 0, 73, 71
2, 154737, Control_c, 0, 64, 58
2, 154737, Note_on_c, 0, 68, 62
2, 154752, Control_c, 0, 64, 0
2, 154752, Note_on_c, 0, 42, 52
2, 154815, Note_on_c, 0, 44, 0
2, 154829, Note_on_c, 0, 72, 0
2, 154918, Control_c, 0, 64, 33
2, 154934, Control_c, 0, 64, 43
2, 154949, Control_c, 0, 64, 49
2, 154964, Control_c, 0, 64, 54
2, 154979, Control_c, 0, 64, 57
2, 154994, Control_c, 0, 64, 59
2, 155010, Control_c, 0, 64, 61
2, 155025, Control_c, 0, 64, 62
2, 155040, Control_c, 0, 64, 63
2, 155063, Control_c, 0, 64, 63
2, 155078, Control_c, 0, 64, 64
2, 155094, Control_c, 0, 64, 64
2, 155109, Control_c, 0, 64, 65
2, 155123, Control_c, 0, 64, 65
2, 155139, Control_c, 0, 64, 66
2, 155154, Control_c, 0, 64, 67
2, 155210, Note_on_c, 0, 40, 59
2, 155244, Note_on_c, 0, 42, 0
2, 155262, Control_c, 0, 64, 66
2, 155291, Note_on_c, 0, 49, 0
2, 155322, Control_c, 0, 64, 66
2, 155352, Control_c, 0, 64, 65
2, 155505, Control_c, 0, 64, 65
2, 155565, Control_c, 0, 64, 64
2, 155626, Control_c, 0, 64, 64
2, 155657, Control_c, 0, 64, 63
2, 155686, Control_c, 0, 64, 63
2, 155702, Control_c, 0, 64, 62
2, 155717, Control_c, 0, 64, 61
2, 155718, Note_on_c, 0, 75, 66
2, 155729, Note_on_c, 0, 42, 52
2, 155733, Control_c, 0, 64, 58
2, 155747, Control_c, 0, 64, 51
2, 155762, Control_c, 0, 64, 31
2, 155776, Note_on_c, 0, 40, 0
2, 155778, Control_c, 0, 64, 0
2, 155871, Note_on_c, 0, 76, 0
2, 156091, Control_c, 0, 64, 39
2, 156106, Control_c, 0, 64, 52
2, 156120, Control_c, 0, 64, 57
2, 156136, Control_c, 0, 64, 60
2, 156151, Control_c, 0, 64, 62
2, 156166, Control_c, 0, 64, 63
2, 156182, Control_c, 0, 64, 64
2, 156196, Control_c, 0, 64, 65
2, 156212, Control_c, 0, 64, 66
2, 156227, Control_c, 0, 64, 67
2, 156227, Note_on_c, 0, 69, 48
2, 156242, Control_c, 0, 64, 68
2, 156258, Control_c, 0, 64, 69
2, 156272, Control_c, 0, 64, 70
2, 156275, Note_on_c, 0, 68, 0
2, 156278, Note_on_c, 0, 73, 0
2, 156287, Control_c, 0, 64, 70
2, 156318, Control_c, 0, 64, 71
2, 156379, Control_c, 0, 64, 71
2, 156577, Control_c, 0, 64, 71
2, 156630, Control_c, 0, 64, 70
2, 156660, Control_c, 0, 64, 70
2, 156675, Control_c, 0, 64, 69
2, 156691, Control_c, 0, 64, 69
2, 156705, Control_c, 0, 64, 68
2, 156718, Note_on_c, 0, 44, 44
2, 156720, Control_c, 0, 64, 67
2, 156724, Note_on_c, 0, 71, 46
2, 156735, Control_c, 0, 64, 65
2, 156750, Control_c, 0, 64, 61
2, 156752, Note_on_c, 0, 68, 35
2, 156765, Control_c, 0, 64, 50
2, 156781, Control_c, 0, 64, 21
2, 156796, Control_c, 0, 64, 0
2, 156827, Note_on_c, 0, 42, 0
2, 156908, Note_on_c, 0, 69, 0
2, 157070, Control_c, 0, 64, 42
2, 157085, Control_c, 0, 64, 55
2, 157101, Control_c, 0, 64, 61
2, 157116, Control_c, 0, 64, 64
2, 157132, Control_c, 0, 64, 65
2, 157146, Control_c, 0, 64, 67
2, 157161, Control_c, 0, 64, 68
2, 157177, Control_c, 0, 64, 69
2, 157192, Control_c, 0, 64, 70
2, 157207, Control_c, 0, 64, 71
2, 157207, Note_on_c, 0, 66, 46
2, 157223, Control_c, 0, 64, 73
2, 157237, Control_c, 0, 64, 74
2, 157253, Control_c, 0, 64, 75
2, 157268, Control_c, 0, 64, 75
2, 157282, Control_c, 0, 64, 76
2, 157298, Control_c, 0, 64, 76
2, 157313, Control_c, 0, 64, 77
2, 157328, Control_c, 0, 64, 77
2, 157339, Note_on_c, 0, 68, 0
2, 157344, Control_c, 0, 64, 78
2, 157358, Note_on_c, 0, 75, 0
2, 157413, Control_c, 0, 64, 78
2, 157626, Control_c, 0, 64, 78
2, 157657, Control_c, 0, 64, 77
2, 157672, Control_c, 0, 64, 76
2, 157687, Control_c, 0, 64, 73
2, 157691, Note_on_c, 0, 73, 54
2, 157692, Note_on_c, 0, 65, 45
2, 157700, Note_on_c, 0, 45, 41
2, 157703, Control_c, 0, 64, 67
2, 157718, Control_c, 0, 64, 56
2, 157733, Control_c, 0, 64, 0
2, 157796, Note_on_c, 0, 44, 0
2, 157804, Note_on_c, 0, 66, 0
2, 157840, Note_on_c, 0, 71, 0
2, 157884, Control_c, 0, 64, 33
2, 157900, Control_c, 0, 64, 51
2, 157915, Control_c, 0, 64, 59
2, 157930, Control_c, 0, 64, 63
2, 157945, Control_c, 0, 64, 65
2, 157960, Control_c, 0, 64, 68
2, 157976, Control_c, 0, 64, 70
2, 157991, Control_c, 0, 64, 72
2, 158005, Control_c, 0, 64, 74
2, 158021, Control_c, 0, 64, 76
2, 158036, Control_c, 0, 64, 77
2, 158067, Control_c, 0, 64, 78
2, 158112, Control_c, 0, 64, 78
2, 158135, Control_c, 0, 64, 79
2, 158165, Control_c, 0, 64, 78
2, 158181, Control_c, 0, 64, 75
2, 158194, Note_on_c, 0, 61, 49
2, 158196, Control_c, 0, 64, 69
2, 158205, Note_on_c, 0, 44, 40
2, 158211, Control_c, 0, 64, 60
2, 158226, Control_c, 0, 64, 26
2, 158241, Control_c, 0, 64, 0
2, 158283, Note_on_c, 0, 65, 0
2, 158287, Control_c, 0, 64, 31
2, 158287, Note_on_c, 0, 45, 0
2, 158302, Control_c, 0, 64, 47
2, 158317, Control_c, 0, 64, 57
2, 158333, Control_c, 0, 64, 63
2, 158348, Control_c, 0, 64, 67
2, 158363, Control_c, 0, 64, 72
2, 158379, Control_c, 0, 64, 81
2, 158394, Control_c, 0, 64, 90
2, 158404, Note_on_c, 0, 61, 0
2, 158410, Control_c, 0, 64, 100
2, 158424, Control_c, 0, 64, 110
2, 158439, Control_c, 0, 64, 111
2, 158455, Control_c, 0, 64, 109
2, 158470, Control_c, 0, 64, 108
2, 158485, Control_c, 0, 64, 109
2, 158501, Control_c, 0, 64, 110
2, 158547, Control_c, 0, 64, 109
2, 158653, Control_c, 0, 64, 110
2, 158668, Control_c, 0, 64, 109
2, 158683, Control_c, 0, 64, 107
2, 158699, Control_c, 0, 64, 98
2, 158714, Control_c, 0, 64, 87
2, 158728, Control_c, 0, 64, 74
2, 158730, Note_on_c, 0, 69, 46
2, 158734, Note_on_c, 0, 45, 46
2, 158740, Note_on_c, 0, 66, 54
2, 158744, Control_c, 0, 64, 61
2, 158759, Control_c, 0, 64, 25
2, 158774, Control_c, 0, 64, 0
2, 158800, Note_on_c, 0, 44, 0
2, 158804, Control_c, 0, 64, 33
2, 158820, Control_c, 0, 64, 46
2, 158835, Control_c, 0, 64, 54
2, 158850, Control_c, 0, 64, 59
2, 158865, Control_c, 0, 64, 63
2, 158880, Control_c, 0, 64, 67
2, 158904, Control_c, 0, 64, 72
2, 158919, Control_c, 0, 64, 79
2, 158934, Control_c, 0, 64, 86
2, 158949, Control_c, 0, 64, 92
2, 158964, Control_c, 0, 64, 97
2, 158979, Control_c, 0, 64, 100
2, 159025, Control_c, 0, 64, 99
2, 159055, Control_c, 0, 64, 100
2, 159085, Control_c, 0, 64, 99
2, 159101, Control_c, 0, 64, 99
2, 159177, Control_c, 0, 64, 98
2, 159192, Control_c, 0, 64, 94
2, 159207, Control_c, 0, 64, 86
2, 159222, Control_c, 0, 64, 73
2, 159237, Control_c, 0, 64, 60
2, 159247, Note_on_c, 0, 75, 65
2, 159253, Control_c, 0, 64, 0
2, 159265, Note_on_c, 0, 47, 50
2, 159272, Note_on_c, 0, 45, 0
2, 159330, Control_c, 0, 64, 14
2, 159345, Control_c, 0, 64, 46
2, 159360, Control_c, 0, 64, 58
2, 159376, Control_c, 0, 64, 64
2, 159390, Control_c, 0, 64, 69
2, 159403, Note_on_c, 0, 69, 0
2, 159405, Control_c, 0, 64, 76
2, 159421, Control_c, 0, 64, 84
2, 159436, Control_c, 0, 64, 95
2, 159452, Control_c, 0, 64, 105
2, 159467, Control_c, 0, 64, 110
2, 159482, Control_c, 0, 64, 110
2, 159495, Note_on_c, 0, 66, 0
2, 159497, Control_c, 0, 64, 108
2, 159512, Control_c, 0, 64, 108
2, 159527, Control_c, 0, 64, 109
2, 159542, Control_c, 0, 64, 110
2, 159557, Control_c, 0, 64, 110
2, 159573, Control_c, 0, 64, 110
2, 159588, Control_c, 0, 64, 109
2, 159603, Control_c, 0, 64, 109
2, 159672, Control_c, 0, 64, 108
2, 159687, Control_c, 0, 64, 108
2, 159702, Control_c, 0, 64, 107
2, 159717, Control_c, 0, 64, 105
2, 159733, Control_c, 0, 64, 101
2, 159747, Control_c, 0, 64, 92
2, 159762, Control_c, 0, 64, 78
2, 159767, Note_on_c, 0, 76, 62
2, 159770, Note_on_c, 0, 68, 48
2, 159778, Control_c, 0, 64, 64
2, 159789, Note_on_c, 0, 64, 48
2, 159793, Control_c, 0, 64, 18
2, 159803, Note_on_c, 0, 49, 40
2, 159808, Control_c, 0, 64, 0
2, 159838, Note_on_c, 0, 75, 0
2, 159842, Note_on_c, 0, 47, 0
2, 159842, Note_on_c, 0, 73, 0
2, 159899, Control_c, 0, 64, 41
2, 159914, Control_c, 0, 64, 55
2, 159930, Control_c, 0, 64, 62
2, 159945, Control_c, 0, 64, 67
2, 159959, Control_c, 0, 64, 72
2, 159975, Control_c, 0, 64, 78
2, 159990, Control_c, 0, 64, 84
2, 160005, Control_c, 0, 64, 91
2, 160021, Control_c, 0, 64, 96
2, 160035, Control_c, 0, 64, 99
2, 160143, Control_c, 0, 64, 99
2, 160203, Control_c, 0, 64, 98
2, 160219, Control_c, 0, 64, 93
2, 160234, Control_c, 0, 64, 84
2, 160250, Control_c, 0, 64, 71
2, 160265, Control_c, 0, 64, 57
2, 160271, Note_on_c, 0, 75, 62
2, 160280, Control_c, 0, 64, 0
2, 160287, Note_on_c, 0, 47, 49
2, 160341, Control_c, 0, 64, 29
2, 160356, Control_c, 0, 64, 45
2, 160372, Control_c, 0, 64, 56
2, 160383, Note_on_c, 0, 49, 0
2, 160386, Control_c, 0, 64, 62
2, 160395, Note_on_c, 0, 68, 0
2, 160401, Control_c, 0, 64, 66
2, 160417, Control_c, 0, 64, 69
2, 160439, Control_c, 0, 64, 74
2, 160455, Control_c, 0, 64, 80
2, 160470, Control_c, 0, 64, 85
2, 160485, Control_c, 0, 64, 90
2, 160500, Control_c, 0, 64, 93
2, 160515, Control_c, 0, 64, 94
2, 160699, Control_c, 0, 64, 93
2, 160714, Control_c, 0, 64, 92
2, 160730, Control_c, 0, 64, 88
2, 160744, Control_c, 0, 64, 82
2, 160759, Control_c, 0, 64, 72
2, 160775, Control_c, 0, 64, 59
2, 160779, Note_on_c, 0, 73, 59
2, 160783, Note_on_c, 0, 69, 47
2, 160790, Control_c, 0, 64, 0
2, 160797, Note_on_c, 0, 49, 46
2, 160820, Note_on_c, 0, 47, 0
2, 160830, Note_on_c, 0, 76, 0
2, 160848, Note_on_c, 0, 75, 0
2, 160880, Control_c, 0, 64, 25
2, 160897, Control_c, 0, 64, 50
2, 160912, Control_c, 0, 64, 61
2, 160927, Control_c, 0, 64, 65
2, 160943, Control_c, 0, 64, 68
2, 160958, Control_c, 0, 64, 72
2, 160973, Control_c, 0, 64, 77
2, 160988, Control_c, 0, 64, 81
2, 161003, Control_c, 0, 64, 85
2, 161019, Control_c, 0, 64, 87
2, 161254, Control_c, 0, 64, 87
2, 161269, Control_c, 0, 64, 86
2, 161279, Note_on_c, 0, 51, 66
2, 161284, Control_c, 0, 64, 86
2, 161313, Control_c, 0, 64, 85
2, 161386, Note_on_c, 0, 49, 0
2, 161481, Control_c, 0, 64, 85
2, 161602, Control_c, 0, 64, 84
2, 161633, Control_c, 0, 64, 84
2, 161647, Control_c, 0, 64, 83
2, 161663, Control_c, 0, 64, 83
2, 161678, Control_c, 0, 64, 82
2, 161694, Control_c, 0, 64, 80
2, 161709, Control_c, 0, 64, 79
2, 161725, Control_c, 0, 64, 78
2, 161740, Control_c, 0, 64, 77
2, 161755, Control_c, 0, 64, 76
2, 161771, Control_c, 0, 64, 74
2, 161786, Control_c, 0, 64, 70
2, 161801, Control_c, 0, 64, 66
2, 161816, Control_c, 0, 64, 60
2, 161831, Control_c, 0, 64, 51
2, 161846, Control_c, 0, 64, 40
2, 161848, Note_on_c, 0, 52, 63
2, 161852, Note_on_c, 0, 71, 54
2, 161861, Control_c, 0, 64, 33
2, 161876, Control_c, 0, 64, 12
2, 161892, Control_c, 0, 64, 0
2, 161898, Note_on_c, 0, 69, 0
2, 161907, Note_on_c, 0, 51, 0
2, 162097, Control_c, 0, 64, 46
2, 162112, Control_c, 0, 64, 59
2, 162127, Control_c, 0, 64, 64
2, 162143, Control_c, 0, 64, 68
2, 162157, Control_c, 0, 64, 72
2, 162173, Control_c, 0, 64, 78
2, 162188, Control_c, 0, 64, 83
2, 162203, Control_c, 0, 64, 88
2, 162219, Control_c, 0, 64, 94
2, 162234, Control_c, 0, 64, 98
2, 162250, Control_c, 0, 64, 99
2, 162295, Control_c, 0, 64, 100
2, 162325, Control_c, 0, 64, 100
2, 162411, Note_on_c, 0, 68, 71
2, 162446, Control_c, 0, 64, 100
2, 162599, Control_c, 0, 64, 99
2, 162706, Control_c, 0, 64, 99
2, 162747, Note_on_c, 0, 68, 0
2, 162778, Note_on_c, 0, 71, 0
2, 162780, Note_on_c, 0, 73, 0
2, 162835, Control_c, 0, 64, 98
2, 162896, Control_c, 0, 64, 98
2, 162925, Control_c, 0, 64, 97
2, 162972, Control_c, 0, 64, 97
2, 162987, Control_c, 0, 64, 96
2, 163001, Control_c, 0, 64, 92
2, 163001, Note_on_c, 0, 73, 60
2, 163007, Note_on_c, 0, 56, 75
2, 163015, Note_on_c, 0, 68, 59
2, 163017, Control_c, 0, 64, 85
2, 163017, Note_on_c, 0, 49, 59
2, 163017, Note_on_c, 0, 66, 55
2, 163032, Control_c, 0, 64, 75
2, 163047, Control_c, 0, 64, 62
2, 163062, Control_c, 0, 64, 0
2, 163072, Note_on_c, 0, 64, 0
2, 163174, Note_on_c, 0, 52, 0
2, 163306, Control_c, 0, 64, 50
2, 163321, Control_c, 0, 64, 62
2, 163336, Control_c, 0, 64, 66
2, 163352, Control_c, 0, 64, 70
2, 163367, Control_c, 0, 64, 74
2, 163383, Control_c, 0, 64, 77
2, 163398, Control_c, 0, 64, 81
2, 163414, Control_c, 0, 64, 85
2, 163428, Control_c, 0, 64, 88
2, 163443, Control_c, 0, 64, 90
2, 163459, Control_c, 0, 64, 91
2, 163536, Note_on_c, 0, 64, 45
2, 163542, Control_c, 0, 64, 90
2, 163544, Note_on_c, 0, 73, 0
2, 163573, Control_c, 0, 64, 90
2, 163606, Note_on_c, 0, 66, 0
2, 163634, Control_c, 0, 64, 89
2, 163694, Control_c, 0, 64, 89
2, 163724, Control_c, 0, 64, 88
2, 163831, Control_c, 0, 64, 88
2, 163861, Control_c, 0, 64, 87
2, 163876, Control_c, 0, 64, 87
2, 163906, Control_c, 0, 64, 86
2, 163952, Control_c, 0, 64, 86
2, 163998, Control_c, 0, 64, 85
2, 164004, Note_on_c, 0, 55, 69
2, 164005, Note_on_c, 0, 63, 56
2, 164014, Control_c, 0, 64, 83
2, 164016, Note_on_c, 0, 75, 52
2, 164017, Note_on_c, 0, 70, 56
2, 164028, Control_c, 0, 64, 80
2, 164043, Control_c, 0, 64, 74
2, 164059, Control_c, 0, 64, 64
2, 164074, Control_c, 0, 64, 39
2, 164090, Control_c, 0, 64, 0
2, 164090, Note_on_c, 0, 64, 0
2, 164111, Note_on_c, 0, 56, 0
2, 164134, Note_on_c, 0, 68, 0
2, 164279, Control_c, 0, 64, 37
2, 164295, Control_c, 0, 64, 54
2, 164310, Control_c, 0, 64, 62
2, 164310, Note_on_c, 0, 75, 0
2, 164325, Control_c, 0, 64, 65
2, 164340, Control_c, 0, 64, 68
2, 164355, Control_c, 0, 64, 70
2, 164371, Control_c, 0, 64, 73
2, 164387, Control_c, 0, 64, 75
2, 164402, Control_c, 0, 64, 76
2, 164417, Control_c, 0, 64, 77
2, 164560, Note_on_c, 0, 47, 57
2, 164615, Control_c, 0, 64, 77
2, 164622, Note_on_c, 0, 49, 0
2, 164645, Control_c, 0, 64, 78
2, 164675, Control_c, 0, 64, 78
2, 164691, Control_c, 0, 64, 79
2, 164706, Control_c, 0, 64, 80
2, 164721, Control_c, 0, 64, 80
2, 164736, Control_c, 0, 64, 81
2, 164766, Control_c, 0, 64, 81
2, 164949, Control_c, 0, 64, 81
2, 164964, Control_c, 0, 64, 79
2, 164980, Control_c, 0, 64, 76
2, 164984, Note_on_c, 0, 46, 55
2, 164995, Control_c, 0, 64, 68
2, 164996, Note_on_c, 0, 59, 75
2, 165011, Control_c, 0, 64, 54
2, 165011, Note_on_c, 0, 68, 60
2, 165026, Control_c, 0, 64, 0
2, 165030, Note_on_c, 0, 47, 0
2, 165062, Note_on_c, 0, 55, 0
2, 165104, Note_on_c, 0, 63, 0
2, 165126, Note_on_c, 0, 70, 0
2, 165168, Control_c, 0, 64, 36
2, 165184, Control_c, 0, 64, 59
2, 165199, Control_c, 0, 64, 66
2, 165215, Control_c, 0, 64, 71
2, 165230, Control_c, 0, 64, 76
2, 165245, Control_c, 0, 64, 79
2, 165260, Control_c, 0, 64, 82
2, 165275, Control_c, 0, 64, 83
2, 165381, Control_c, 0, 64, 83
2, 165396, Control_c, 0, 64, 84
2, 165427, Control_c, 0, 64, 84
2, 165442, Control_c, 0, 64, 83
2, 165457, Control_c, 0, 64, 79
2, 165472, Control_c, 0, 64, 70
2, 165487, Control_c, 0, 64, 56
2, 165502, Control_c, 0, 64, 0
2, 165508, Note_on_c, 0, 44, 43
2, 165561, Note_on_c, 0, 46, 0
2, 165610, Control_c, 0, 64, 44
2, 165624, Control_c, 0, 64, 60
2, 165639, Control_c, 0, 64, 65
2, 165655, Control_c, 0, 64, 68
2, 165670, Control_c, 0, 64, 70
2, 165685, Control_c, 0, 64, 73
2, 165701, Control_c, 0, 64, 75
2, 165715, Control_c, 0, 64, 77
2, 165731, Control_c, 0, 64, 78
2, 165876, Control_c, 0, 64, 77
2, 165906, Control_c, 0, 64, 77
2, 165921, Control_c, 0, 64, 76
2, 165937, Control_c, 0, 64, 74
2, 165951, Control_c, 0, 64, 69
2, 165966, Control_c, 0, 64, 63
2, 165982, Control_c, 0, 64, 40
2, 165997, Control_c, 0, 64, 0
2, 165997, Note_on_c, 0, 58, 67
2, 166002, Note_on_c, 0, 49, 54
2, 166090, Note_on_c, 0, 59, 0
2, 166105, Note_on_c, 0, 44, 0
2, 166149, Control_c, 0, 64, 33
2, 166164, Control_c, 0, 64, 57
2, 166165, Note_on_c, 0, 68, 0
2, 166180, Control_c, 0, 64, 65
2, 166195, Control_c, 0, 64, 69
2, 166211, Control_c, 0, 64, 74
2, 166225, Control_c, 0, 64, 80
2, 166240, Control_c, 0, 64, 84
2, 166256, Control_c, 0, 64, 89
2, 166271, Control_c, 0, 64, 91
2, 166361, Control_c, 0, 64, 91
2, 166407, Control_c, 0, 64, 90
2, 166453, Control_c, 0, 64, 90
2, 166468, Control_c, 0, 64, 89
2, 166483, Control_c, 0, 64, 89
2, 166511, Note_on_c, 0, 76, 50
2, 166559, Control_c, 0, 64, 88
2, 166597, Control_c, 0, 64, 88
2, 166628, Control_c, 0, 64, 87
2, 166674, Control_c, 0, 64, 87
2, 166857, Control_c, 0, 64, 86
2, 166902, Control_c, 0, 64, 86
2, 166917, Control_c, 0, 64, 85
2, 166933, Control_c, 0, 64, 85
2, 166948, Control_c, 0, 64, 83
2, 166957, Note_on_c, 0, 67, 46
2, 166961, Note_on_c, 0, 75, 59
2, 166963, Control_c, 0, 64, 80
2, 166971, Note_on_c, 0, 51, 50
2, 166979, Control_c, 0, 64, 74
2, 166993, Control_c, 0, 64, 64
2, 167008, Control_c, 0, 64, 39
2, 167024, Control_c, 0, 64, 0
2, 167047, Note_on_c, 0, 76, 0
2, 167059, Note_on_c, 0, 49, 0
2, 167266, Control_c, 0, 64, 26
2, 167281, Control_c, 0, 64, 49
2, 167297, Control_c, 0, 64, 58
2, 167312, Control_c, 0, 64, 63
2, 167327, Control_c, 0, 64, 64
2, 167350, Control_c, 0, 64, 66
2, 167365, Control_c, 0, 64, 67
2, 167381, Control_c, 0, 64, 68
2, 167396, Control_c, 0, 64, 70
2, 167411, Control_c, 0, 64, 72
2, 167426, Control_c, 0, 64, 74
2, 167441, Control_c, 0, 64, 76
2, 167458, Control_c, 0, 64, 78
2, 167470, Note_on_c, 0, 73, 58
2, 167473, Control_c, 0, 64, 80
2, 167488, Control_c, 0, 64, 81
2, 167503, Control_c, 0, 64, 83
2, 167518, Control_c, 0, 64, 85
2, 167534, Control_c, 0, 64, 87
2, 167545, Note_on_c, 0, 58, 0
2, 167549, Control_c, 0, 64, 88
2, 167563, Control_c, 0, 64, 90
2, 167576, Note_on_c, 0, 75, 0
2, 167579, Control_c, 0, 64, 91
2, 167594, Control_c, 0, 64, 91
2, 167600, Note_on_c, 0, 67, 0
2, 167610, Control_c, 0, 64, 92
2, 167625, Control_c, 0, 64, 92
2, 167655, Control_c, 0, 64, 93
2, 167731, Control_c, 0, 64, 93
2, 167823, Control_c, 0, 64, 93
2, 167928, Control_c, 0, 64, 92
2, 167944, Control_c, 0, 64, 89
2, 167953, Note_on_c, 0, 71, 60
2, 167959, Control_c, 0, 64, 84
2, 167967, Note_on_c, 0, 68, 49
2, 167974, Control_c, 0, 64, 75
2, 167975, Note_on_c, 0, 56, 39
2, 167978, Note_on_c, 0, 44, 37
2, 167989, Control_c, 0, 64, 64
2, 168004, Control_c, 0, 64, 33
2, 168020, Control_c, 0, 64, 0
2, 168033, Note_on_c, 0, 73, 0
2, 168085, Note_on_c, 0, 51, 0
2, 168134, Control_c, 0, 64, 20
2, 168149, Control_c, 0, 64, 50
2, 168164, Control_c, 0, 64, 60
2, 168179, Control_c, 0, 64, 65
2, 168194, Control_c, 0, 64, 68
2, 168210, Control_c, 0, 64, 73
2, 168225, Control_c, 0, 64, 79
2, 168240, Control_c, 0, 64, 85
2, 168255, Control_c, 0, 64, 93
2, 168271, Control_c, 0, 64, 99
2, 168286, Control_c, 0, 64, 101
2, 168317, Control_c, 0, 64, 101
2, 168362, Control_c, 0, 64, 101
2, 168393, Control_c, 0, 64, 100
2, 168407, Control_c, 0, 64, 95
2, 168413, Note_on_c, 0, 56, 0
2, 168423, Control_c, 0, 64, 86
2, 168438, Control_c, 0, 64, 75
2, 168444, Note_on_c, 0, 75, 73
2, 168454, Control_c, 0, 64, 63
2, 168469, Control_c, 0, 64, 48
2, 168483, Control_c, 0, 64, 45
2, 168490, Note_on_c, 0, 57, 44
2, 168499, Control_c, 0, 64, 49
2, 168514, Control_c, 0, 64, 55
2, 168530, Control_c, 0, 64, 59
2, 168545, Control_c, 0, 64, 62
2, 168559, Control_c, 0, 64, 65
2, 168575, Control_c, 0, 64, 69
2, 168590, Control_c, 0, 64, 74
2, 168602, Note_on_c, 0, 44, 0
2, 168605, Control_c, 0, 64, 78
2, 168621, Control_c, 0, 64, 83
2, 168636, Control_c, 0, 64, 88
2, 168652, Control_c, 0, 64, 91
2, 168666, Control_c, 0, 64, 92
2, 168773, Control_c, 0, 64, 92
2, 168848, Control_c, 0, 64, 91
2, 168917, Control_c, 0, 64, 91
2, 168933, Control_c, 0, 64, 89
2, 168947, Control_c, 0, 64, 86
2, 168962, Control_c, 0, 64, 80
2, 168978, Control_c, 0, 64, 73
2, 168981, Note_on_c, 0, 80, 70
2, 168993, Control_c, 0, 64, 64
2, 168996, Note_on_c, 0, 59, 49
2, 169006, Note_on_c, 0, 56, 40
2, 169008, Control_c, 0, 64, 48
2, 169023, Control_c, 0, 64, 0
2, 169062, Note_on_c, 0, 68, 0
2, 169094, Note_on_c, 0, 57, 0
2, 169115, Control_c, 0, 64, 14
2, 169131, Control_c, 0, 64, 38
2, 169135, Note_on_c, 0, 71, 0
2, 169146, Control_c, 0, 64, 49
2, 169161, Control_c, 0, 64, 57
2, 169177, Control_c, 0, 64, 62
2, 169191, Control_c, 0, 64, 66
2, 169204, Note_on_c, 0, 75, 0
2, 169206, Control_c, 0, 64, 69
2, 169222, Control_c, 0, 64, 72
2, 169237, Control_c, 0, 64, 76
2, 169252, Control_c, 0, 64, 79
2, 169267, Control_c, 0, 64, 82
2, 169282, Control_c, 0, 64, 84
2, 169298, Control_c, 0, 64, 86
2, 169343, Control_c, 0, 64, 86
2, 169450, Control_c, 0, 64, 86
2, 169464, Control_c, 0, 64, 85
2, 169479, Control_c, 0, 64, 81
2, 169495, Control_c, 0, 64, 74
2, 169510, Control_c, 0, 64, 63
2, 169525, Control_c, 0, 64, 42
2, 169530, Note_on_c, 0, 54, 62
2, 169541, Control_c, 0, 64, 22
2, 169556, Control_c, 0, 64, 23
2, 169571, Control_c, 0, 64, 32
2, 169586, Control_c, 0, 64, 42
2, 169601, Control_c, 0, 64, 50
2, 169617, Control_c, 0, 64, 56
2, 169617, Note_on_c, 0, 56, 0
2, 169632, Control_c, 0, 64, 61
2, 169654, Control_c, 0, 64, 64
2, 169669, Control_c, 0, 64, 66
2, 169684, Control_c, 0, 64, 69
2, 169700, Control_c, 0, 64, 71
2, 169715, Control_c, 0, 64, 74
2, 169731, Control_c, 0, 64, 76
2, 169746, Control_c, 0, 64, 77
2, 169761, Control_c, 0, 64, 78
2, 169867, Control_c, 0, 64, 77
2, 169990, Control_c, 0, 64, 76
2, 170005, Control_c, 0, 64, 74
2, 170020, Control_c, 0, 64, 71
2, 170021, Note_on_c, 0, 53, 64
2, 170035, Control_c, 0, 64, 63
2, 170048, Note_on_c, 0, 61, 53
2, 170051, Control_c, 0, 64, 42
2, 170066, Control_c, 0, 64, 0
2, 170113, Note_on_c, 0, 54, 0
2, 170130, Note_on_c, 0, 59, 0
2, 170354, Control_c, 0, 64, 41
2, 170370, Control_c, 0, 64, 54
2, 170385, Control_c, 0, 64, 60
2, 170400, Control_c, 0, 64, 63
2, 170422, Control_c, 0, 64, 64
2, 170437, Control_c, 0, 64, 65
2, 170453, Control_c, 0, 64, 66
2, 170468, Control_c, 0, 64, 66
2, 170483, Control_c, 0, 64, 67
2, 170498, Control_c, 0, 64, 68
2, 170513, Control_c, 0, 64, 69
2, 170522, Note_on_c, 0, 78, 68
2, 170528, Control_c, 0, 64, 70
2, 170544, Control_c, 0, 64, 70
2, 170559, Control_c, 0, 64, 71
2, 170575, Control_c, 0, 64, 71
2, 170589, Control_c, 0, 64, 72
2, 170604, Control_c, 0, 64, 73
2, 170620, Control_c, 0, 64, 74
2, 170622, Note_on_c, 0, 80, 0
2, 170635, Control_c, 0, 64, 75
2, 170651, Control_c, 0, 64, 76
2, 170666, Control_c, 0, 64, 77
2, 170681, Control_c, 0, 64, 77
2, 170711, Control_c, 0, 64, 78
2, 170743, Control_c, 0, 64, 78
2, 170757, Control_c, 0, 64, 79
2, 170819, Control_c, 0, 64, 79
2, 170925, Control_c, 0, 64, 79
2, 170940, Control_c, 0, 64, 78
2, 170955, Control_c, 0, 64, 74
2, 170971, Control_c, 0, 64, 67
2, 170986, Control_c, 0, 64, 44
2, 170998, Note_on_c, 0, 80, 75
2, 170999, Note_on_c, 0, 57, 68
2, 171001, Control_c, 0, 64, 0
2, 171081, Note_on_c, 0, 53, 0
2, 171137, Control_c, 0, 64, 36
2, 171152, Control_c, 0, 64, 59
2, 171167, Control_c, 0, 64, 66
2, 171191, Control_c, 0, 64, 71
2, 171206, Control_c, 0, 64, 76
2, 171221, Control_c, 0, 64, 79
2, 171236, Control_c, 0, 64, 82
2, 171252, Control_c, 0, 64, 83
2, 171266, Control_c, 0, 64, 84
2, 171280, Note_on_c, 0, 61, 0
2, 171328, Control_c, 0, 64, 84
2, 171450, Control_c, 0, 64, 84
2, 171465, Control_c, 0, 64, 81
2, 171479, Control_c, 0, 64, 74
2, 171495, Control_c, 0, 64, 65
2, 171502, Note_on_c, 0, 61, 67
2, 171510, Control_c, 0, 64, 21
2, 171514, Note_on_c, 0, 81, 75
2, 171525, Control_c, 0, 64, 0
2, 171602, Control_c, 0, 64, 41
2, 171618, Control_c, 0, 64, 55
2, 171633, Control_c, 0, 64, 61
2, 171648, Control_c, 0, 64, 65
2, 171663, Control_c, 0, 64, 68
2, 171672, Note_on_c, 0, 78, 0
2, 171678, Control_c, 0, 64, 71
2, 171694, Control_c, 0, 64, 75
2, 171708, Control_c, 0, 64, 78
2, 171723, Control_c, 0, 64, 81
2, 171739, Control_c, 0, 64, 83
2, 171921, Control_c, 0, 64, 83
2, 171975, Control_c, 0, 64, 83
2, 171990, Control_c, 0, 64, 79
2, 172005, Control_c, 0, 64, 72
2, 172018, Note_on_c, 0, 63, 66
2, 172021, Control_c, 0, 64, 61
2, 172024, Note_on_c, 0, 56, 51
2, 172029, Note_on_c, 0, 83, 67
2, 172035, Control_c, 0, 64, 0
2, 172079, Note_on_c, 0, 80, 0
2, 172090, Note_on_c, 0, 57, 0
2, 172094, Note_on_c, 0, 61, 0
2, 172155, Note_on_c, 0, 81, 0
2, 172172, Control_c, 0, 64, 43
2, 172186, Control_c, 0, 64, 55
2, 172201, Control_c, 0, 64, 60
2, 172217, Control_c, 0, 64, 63
2, 172232, Control_c, 0, 64, 64
2, 172246, Control_c, 0, 64, 64
2, 172262, Control_c, 0, 64, 65
2, 172293, Control_c, 0, 64, 65
2, 172308, Control_c, 0, 64, 66
2, 172353, Control_c, 0, 64, 66
2, 172385, Control_c, 0, 64, 67
2, 172400, Control_c, 0, 64, 67
2, 172415, Control_c, 0, 64, 68
2, 172430, Control_c, 0, 64, 69
2, 172445, Control_c, 0, 64, 71
2, 172461, Control_c, 0, 64, 72
2, 172476, Control_c, 0, 64, 71
2, 172492, Control_c, 0, 64, 67
2, 172506, Control_c, 0, 64, 59
2, 172521, Control_c, 0, 64, 38
2, 172537, Control_c, 0, 64, 27
2, 172542, Note_on_c, 0, 61, 67
2, 172567, Control_c, 0, 64, 34
2, 172583, Control_c, 0, 64, 44
2, 172598, Control_c, 0, 64, 52
2, 172614, Control_c, 0, 64, 57
2, 172628, Control_c, 0, 64, 61
2, 172643, Control_c, 0, 64, 64
2, 172657, Note_on_c, 0, 63, 0
2, 172659, Control_c, 0, 64, 67
2, 172673, Control_c, 0, 64, 70
2, 172688, Control_c, 0, 64, 74
2, 172704, Control_c, 0, 64, 77
2, 172719, Control_c, 0, 64, 79
2, 172742, Control_c, 0, 64, 81
2, 172773, Control_c, 0, 64, 81
2, 172819, Control_c, 0, 64, 82
2, 172954, Control_c, 0, 64, 82
2, 172970, Control_c, 0, 64, 83
2, 172985, Control_c, 0, 64, 83
2, 173000, Control_c, 0, 64, 82
2, 173016, Control_c, 0, 64, 77
2, 173030, Control_c, 0, 64, 69
2, 173045, Control_c, 0, 64, 56
2, 173061, Control_c, 0, 64, 0
2, 173066, Note_on_c, 0, 63, 74
2, 173152, Control_c, 0, 64, 39
2, 173166, Control_c, 0, 64, 53
2, 173182, Note_on_c, 0, 61, 0
2, 173183, Control_c, 0, 64, 61
2, 173198, Control_c, 0, 64, 64
2, 173214, Control_c, 0, 64, 66
2, 173229, Control_c, 0, 64, 68
2, 173244, Control_c, 0, 64, 72
2, 173259, Control_c, 0, 64, 75
2, 173274, Control_c, 0, 64, 79
2, 173290, Control_c, 0, 64, 82
2, 173305, Control_c, 0, 64, 82
2, 173350, Control_c, 0, 64, 83
2, 173472, Control_c, 0, 64, 82
2, 173487, Control_c, 0, 64, 79
2, 173510, Control_c, 0, 64, 72
2, 173524, Control_c, 0, 64, 66
2, 173540, Control_c, 0, 64, 58
2, 173555, Control_c, 0, 64, 54
2, 173571, Control_c, 0, 64, 55
2, 173585, Note_on_c, 0, 65, 70
2, 173586, Control_c, 0, 64, 58
2, 173601, Control_c, 0, 64, 62
2, 173617, Control_c, 0, 64, 64
2, 173631, Control_c, 0, 64, 66
2, 173640, Note_on_c, 0, 63, 0
2, 173646, Control_c, 0, 64, 69
2, 173662, Control_c, 0, 64, 73
2, 173677, Control_c, 0, 64, 78
2, 173683, Note_on_c, 0, 83, 0
2, 173693, Control_c, 0, 64, 83
2, 173708, Control_c, 0, 64, 87
2, 173723, Control_c, 0, 64, 89
2, 173844, Control_c, 0, 64, 89
2, 173874, Control_c, 0, 64, 88
2, 173890, Control_c, 0, 64, 88
2, 174013, Control_c, 0, 64, 87
2, 174027, Control_c, 0, 64, 87
2, 174042, Control_c, 0, 64, 86
2, 174058, Control_c, 0, 64, 86
2, 174103, Control_c, 0, 64, 85
2, 174118, Control_c, 0, 64, 83
2, 174134, Control_c, 0, 64, 76
2, 174141, Note_on_c, 0, 66, 73
2, 174149, Control_c, 0, 64, 66
2, 174158, Note_on_c, 0, 54, 61
2, 174163, Control_c, 0, 64, 36
2, 174179, Control_c, 0, 64, 0
2, 174210, Note_on_c, 0, 65, 0
2, 174212, Note_on_c, 0, 56, 0
2, 174293, Control_c, 0, 64, 26
2, 174308, Control_c, 0, 64, 59
2, 174323, Control_c, 0, 64, 68
2, 174339, Control_c, 0, 64, 77
2, 174354, Control_c, 0, 64, 88
2, 174370, Control_c, 0, 64, 100
2, 174385, Control_c, 0, 64, 114
2, 174400, Control_c, 0, 64, 115
2, 174416, Control_c, 0, 64, 112
2, 174431, Control_c, 0, 64, 110
2, 174461, Control_c, 0, 64, 111
2, 174521, Control_c, 0, 64, 110
2, 174659, Control_c, 0, 64, 110
2, 174674, Control_c, 0, 64, 108
2, 174690, Control_c, 0, 64, 107
2, 174704, Control_c, 0, 64, 106
2, 174719, Control_c, 0, 64, 106
2, 174737, Note_on_c, 0, 81, 72
2, 174749, Note_on_c, 0, 78, 16
2, 174808, Note_on_c, 0, 78, 0
2, 174872, Control_c, 0, 64, 105
2, 174887, Control_c, 0, 64, 105
2, 174903, Control_c, 0, 64, 104
2, 175123, Control_c, 0, 64, 104
2, 175153, Control_c, 0, 64, 103
2, 175184, Control_c, 0, 64, 103
2, 175320, Control_c, 0, 64, 102
2, 175335, Control_c, 0, 64, 101
2, 175350, Control_c, 0, 64, 99
2, 175364, Note_on_c, 0, 61, 81
2, 175365, Control_c, 0, 64, 95
2, 175380, Note_on_c, 0, 80, 61
2, 175381, Control_c, 0, 64, 88
2, 175386, Note_on_c, 0, 69, 45
2, 175396, Control_c, 0, 64, 77
2, 175407, Note_on_c, 0, 66, 0
2, 175413, Control_c, 0, 64, 67
2, 175428, Control_c, 0, 64, 47
2, 175444, Control_c, 0, 64, 0
2, 175641, Control_c, 0, 64, 21
2, 175658, Control_c, 0, 64, 53
2, 175673, Control_c, 0, 64, 63
2, 175689, Control_c, 0, 64, 68
2, 175704, Control_c, 0, 64, 74
2, 175718, Control_c, 0, 64, 79
2, 175734, Control_c, 0, 64, 84
2, 175749, Control_c, 0, 64, 89
2, 175765, Control_c, 0, 64, 93
2, 175779, Control_c, 0, 64, 96
2, 175801, Control_c, 0, 64, 97
2, 175893, Control_c, 0, 64, 97
2, 175929, Note_on_c, 0, 81, 0
2, 175945, Note_on_c, 0, 78, 61
2, 175969, Control_c, 0, 64, 96
2, 175983, Control_c, 0, 64, 96
2, 176000, Note_on_c, 0, 69, 0
2, 176028, Note_on_c, 0, 80, 0
2, 176059, Control_c, 0, 64, 95
2, 176393, Control_c, 0, 64, 94
2, 176409, Control_c, 0, 64, 88
2, 176410, Note_on_c, 0, 60, 75
2, 176410, Note_on_c, 0, 80, 68
2, 176420, Note_on_c, 0, 68, 53
2, 176424, Control_c, 0, 64, 77
2, 176439, Control_c, 0, 64, 59
2, 176455, Control_c, 0, 64, 0
2, 176465, Note_on_c, 0, 78, 0
2, 176498, Note_on_c, 0, 61, 0
2, 176615, Control_c, 0, 64, 41
2, 176630, Control_c, 0, 64, 58
2, 176646, Control_c, 0, 64, 63
2, 176661, Control_c, 0, 64, 67
2, 176675, Control_c, 0, 64, 69
2, 176691, Control_c, 0, 64, 70
2, 176694, Note_on_c, 0, 78, 55
2, 176706, Control_c, 0, 64, 71
2, 176721, Control_c, 0, 64, 71
2, 176737, Control_c, 0, 64, 72
2, 176752, Control_c, 0, 64, 72
2, 176768, Control_c, 0, 64, 73
2, 176768, Note_on_c, 0, 80, 0
2, 176797, Control_c, 0, 64, 73
2, 176805, Note_on_c, 0, 78, 0
2, 176941, Note_on_c, 0, 76, 57
2, 176942, Note_on_c, 0, 54, 0
2, 176944, Note_on_c, 0, 56, 50
2, 176964, Control_c, 0, 64, 74
2, 177024, Control_c, 0, 64, 74
2, 177055, Control_c, 0, 64, 75
2, 177070, Control_c, 0, 64, 76
2, 177086, Control_c, 0, 64, 77
2, 177101, Control_c, 0, 64, 78
2, 177116, Control_c, 0, 64, 79
2, 177132, Control_c, 0, 64, 80
2, 177147, Control_c, 0, 64, 81
2, 177161, Control_c, 0, 64, 82
2, 177171, Note_on_c, 0, 54, 55
2, 177177, Control_c, 0, 64, 83
2, 177177, Note_on_c, 0, 75, 66
2, 177181, Note_on_c, 0, 60, 0
2, 177192, Control_c, 0, 64, 84
2, 177208, Control_c, 0, 64, 84
2, 177223, Control_c, 0, 64, 85
2, 177428, Control_c, 0, 64, 84
2, 177444, Control_c, 0, 64, 80
2, 177459, Control_c, 0, 64, 72
2, 177468, Note_on_c, 0, 64, 77
2, 177470, Note_on_c, 0, 52, 63
2, 177470, Note_on_c, 0, 73, 63
2, 177473, Control_c, 0, 64, 61
2, 177489, Control_c, 0, 64, 0
2, 177523, Note_on_c, 0, 54, 0
2, 177530, Note_on_c, 0, 76, 0
2, 177541, Note_on_c, 0, 75, 0
2, 177553, Note_on_c, 0, 56, 0
2, 177589, Note_on_c, 0, 68, 0
2, 177640, Control_c, 0, 64, 30
2, 177656, Control_c, 0, 64, 48
2, 177670, Control_c, 0, 64, 56
2, 177686, Control_c, 0, 64, 59
2, 177701, Control_c, 0, 64, 61
2, 177709, Note_on_c, 0, 71, 54
2, 177716, Control_c, 0, 64, 62
2, 177732, Control_c, 0, 64, 62
2, 177746, Control_c, 0, 64, 63
2, 177761, Control_c, 0, 64, 63
2, 177777, Control_c, 0, 64, 64
2, 177791, Control_c, 0, 64, 64
2, 177807, Control_c, 0, 64, 65
2, 177837, Control_c, 0, 64, 65
2, 177868, Control_c, 0, 64, 66
2, 177956, Note_on_c, 0, 71, 0
2, 177958, Note_on_c, 0, 69, 49
2, 177967, Note_on_c, 0, 54, 52
2, 178104, Control_c, 0, 64, 66
2, 178119, Control_c, 0, 64, 67
2, 178135, Control_c, 0, 64, 67
2, 178150, Control_c, 0, 64, 68
2, 178166, Control_c, 0, 64, 68
2, 178175, Note_on_c, 0, 68, 56
2, 178179, Note_on_c, 0, 69, 0
2, 178181, Note_on_c, 0, 56, 56
2, 178187, Note_on_c, 0, 64, 0
2, 178195, Control_c, 0, 64, 69
2, 178393, Control_c, 0, 64, 68
2, 178409, Control_c, 0, 64, 68
2, 178424, Control_c, 0, 64, 66
2, 178438, Control_c, 0, 64, 64
2, 178446, Note_on_c, 0, 54, 0
2, 178447, Note_on_c, 0, 66, 58
2, 178454, Control_c, 0, 64, 62
2, 178455, Note_on_c, 0, 63, 62
2, 178463, Note_on_c, 0, 57, 59
2, 178469, Control_c, 0, 64, 59
2, 178481, Note_on_c, 0, 52, 0
2, 178485, Control_c, 0, 64, 57
2, 178496, Note_on_c, 0, 56, 0
2, 178500, Control_c, 0, 64, 55
2, 178519, Note_on_c, 0, 68, 0
2, 178606, Control_c, 0, 64, 56
2, 178621, Control_c, 0, 64, 56
2, 178651, Control_c, 0, 64, 57
2, 178697, Control_c, 0, 64, 57
2, 178757, Control_c, 0, 64, 58
2, 178902, Control_c, 0, 64, 58
2, 178955, Note_on_c, 0, 54, 47
2, 178955, Note_on_c, 0, 69, 47
2, 179010, Note_on_c, 0, 66, 0
2, 179424, Note_on_c, 0, 54, 0
2, 179424, Note_on_c, 0, 56, 52
2, 179424, Note_on_c, 0, 57, 0
2, 179433, Note_on_c, 0, 68, 43
2, 179435, Note_on_c, 0, 71, 51
2, 179466, Note_on_c, 0, 69, 0
2, 179763, Control_c, 0, 64, 59
2, 179792, Control_c, 0, 64, 59
2, 179808, Control_c, 0, 64, 60
2, 179823, Control_c, 0, 64, 60
2, 179838, Control_c, 0, 64, 61
2, 179853, Control_c, 0, 64, 62
2, 179868, Control_c, 0, 64, 63
2, 179884, Control_c, 0, 64, 64
2, 179899, Control_c, 0, 64, 66
2, 179914, Control_c, 0, 64, 68
2, 179929, Control_c, 0, 64, 71
2, 179944, Control_c, 0, 64, 76
2, 179959, Control_c, 0, 64, 81
2, 179970, Note_on_c, 0, 66, 51
2, 179975, Control_c, 0, 64, 87
2, 179990, Control_c, 0, 64, 93
2, 180006, Control_c, 0, 64, 99
2, 180021, Control_c, 0, 64, 102
2, 180035, Control_c, 0, 64, 102
2, 180059, Note_on_c, 0, 63, 0
2, 180060, Note_on_c, 0, 68, 0
2, 180213, Note_on_c, 0, 73, 0
2, 180218, Control_c, 0, 64, 102
2, 180233, Control_c, 0, 64, 101
2, 180263, Control_c, 0, 64, 101
2, 180309, Control_c, 0, 64, 100
2, 180325, Control_c, 0, 64, 99
2, 180370, Control_c, 0, 64, 99
2, 180385, Control_c, 0, 64, 98
2, 180400, Control_c, 0, 64, 97
2, 180423, Control_c, 0, 64, 96
2, 180438, Control_c, 0, 64, 95
2, 180454, Control_c, 0, 64, 94
2, 180468, Control_c, 0, 64, 94
2, 180484, Control_c, 0, 64, 93
2, 180499, Control_c, 0, 64, 92
2, 180514, Control_c, 0, 64, 90
2, 180530, Control_c, 0, 64, 89
2, 180532, Note_on_c, 0, 65, 45
2, 180534, Note_on_c, 0, 49, 46
2, 180536, Note_on_c, 0, 61, 47
2, 180544, Control_c, 0, 64, 87
2, 180560, Control_c, 0, 64, 86
2, 180564, Note_on_c, 0, 66, 0
2, 180576, Control_c, 0, 64, 84
2, 180591, Control_c, 0, 64, 80
2, 180607, Control_c, 0, 64, 76
2, 180622, Control_c, 0, 64, 71
2, 180636, Control_c, 0, 64, 65
2, 180652, Control_c, 0, 64, 58
2, 180667, Control_c, 0, 64, 50
2, 180682, Control_c, 0, 64, 48
2, 180684, Note_on_c, 0, 56, 0
2, 180697, Control_c, 0, 64, 47
2, 180712, Control_c, 0, 64, 45
2, 180728, Control_c, 0, 64, 37
2, 180743, Control_c, 0, 64, 0
2, 181082, Note_on_c, 0, 73, 54
2, 181151, Note_on_c, 0, 71, 0
2, 181600, Note_on_c, 0, 66, 47
2, 181604, Note_on_c, 0, 71, 55
2, 181662, Note_on_c, 0, 65, 0
2, 181766, Note_on_c, 0, 73, 0
2, 181800, Control_c, 0, 64, 21
2, 181815, Control_c, 0, 64, 42
2, 181830, Control_c, 0, 64, 50
2, 181846, Control_c, 0, 64, 52
2, 181861, Control_c, 0, 64, 53
2, 182112, Note_on_c, 0, 69, 47
2, 182115, Note_on_c, 0, 71, 0
2, 182569, Control_c, 0, 64, 53
2, 182622, Note_on_c, 0, 68, 54
2, 182690, Control_c, 0, 64, 54
2, 182720, Note_on_c, 0, 69, 0
2, 182728, Control_c, 0, 64, 54
2, 182758, Control_c, 0, 64, 55
2, 182774, Control_c, 0, 64, 55
2, 182788, Control_c, 0, 64, 56
2, 182804, Control_c, 0, 64, 56
2, 182819, Control_c, 0, 64, 57
2, 182833, Control_c, 0, 64, 58
2, 182849, Control_c, 0, 64, 60
2, 182864, Control_c, 0, 64, 61
2, 182879, Control_c, 0, 64, 62
2, 182895, Control_c, 0, 64, 63
2, 182910, Control_c, 0, 64, 64
2, 182925, Control_c, 0, 64, 65
2, 182940, Control_c, 0, 64, 66
2, 182955, Control_c, 0, 64, 68
2, 182971, Control_c, 0, 64, 69
2, 182986, Control_c, 0, 64, 71
2, 183000, Control_c, 0, 64, 73
2, 183016, Control_c, 0, 64, 75
2, 183032, Control_c, 0, 64, 77
2, 183048, Control_c, 0, 64, 80
2, 183063, Control_c, 0, 64, 83
2, 183077, Control_c, 0, 64, 86
2, 183093, Control_c, 0, 64, 89
2, 183108, Control_c, 0, 64, 93
2, 183124, Control_c, 0, 64, 97
2, 183126, Note_on_c, 0, 64, 47
2, 183139, Control_c, 0, 64, 99
2, 183153, Control_c, 0, 64, 100
2, 183215, Control_c, 0, 64, 101
2, 183457, Control_c, 0, 64, 100
2, 183526, Control_c, 0, 64, 100
2, 183555, Control_c, 0, 64, 99
2, 183559, Note_on_c, 0, 61, 0
2, 183601, Control_c, 0, 64, 98
2, 183617, Control_c, 0, 64, 95
2, 183631, Control_c, 0, 64, 90
2, 183644, Note_on_c, 0, 47, 51
2, 183647, Control_c, 0, 64, 82
2, 183653, Note_on_c, 0, 70, 56
2, 183662, Control_c, 0, 64, 71
2, 183677, Control_c, 0, 64, 60
2, 183693, Control_c, 0, 64, 10
2, 183708, Control_c, 0, 64, 0
2, 183737, Note_on_c, 0, 66, 0
2, 183761, Note_on_c, 0, 49, 0
2, 183785, Note_on_c, 0, 68, 0
2, 183813, Control_c, 0, 64, 23
2, 183828, Control_c, 0, 64, 36
2, 183843, Control_c, 0, 64, 44
2, 183859, Control_c, 0, 64, 50
2, 183873, Control_c, 0, 64, 55
2, 183888, Control_c, 0, 64, 60
2, 183904, Control_c, 0, 64, 62
2, 183919, Control_c, 0, 64, 65
2, 183935, Control_c, 0, 64, 67
2, 183950, Control_c, 0, 64, 70
2, 183965, Control_c, 0, 64, 73
2, 183981, Control_c, 0, 64, 76
2, 183995, Control_c, 0, 64, 79
2, 184011, Control_c, 0, 64, 81
2, 184026, Control_c, 0, 64, 83
2, 184041, Control_c, 0, 64, 83
2, 184071, Control_c, 0, 64, 84
2, 184146, Note_on_c, 0, 71, 52
2, 184207, Control_c, 0, 64, 84
2, 184251, Note_on_c, 0, 70, 0
2, 184611, Control_c, 0, 64, 84
2, 184626, Control_c, 0, 64, 83
2, 184641, Control_c, 0, 64, 82
2, 184657, Control_c, 0, 64, 81
2, 184671, Note_on_c, 0, 73, 60
2, 184672, Control_c, 0, 64, 77
2, 184680, Note_on_c, 0, 49, 47
2, 184687, Control_c, 0, 64, 73
2, 184689, Note_on_c, 0, 46, 44
2, 184692, Note_on_c, 0, 54, 43
2, 184702, Control_c, 0, 64, 66
2, 184717, Control_c, 0, 64, 54
2, 184733, Control_c, 0, 64, 0
2, 184780, Note_on_c, 0, 47, 0
2, 184816, Note_on_c, 0, 71, 0
2, 184885, Control_c, 0, 64, 16
2, 184901, Control_c, 0, 64, 34
2, 184915, Control_c, 0, 64, 45
2, 184931, Control_c, 0, 64, 52
2, 184946, Control_c, 0, 64, 58
2, 184960, Control_c, 0, 64, 62
2, 184976, Control_c, 0, 64, 64
2, 184991, Control_c, 0, 64, 67
2, 185006, Control_c, 0, 64, 70
2, 185029, Control_c, 0, 64, 73
2, 185044, Control_c, 0, 64, 77
2, 185060, Control_c, 0, 64, 80
2, 185075, Control_c, 0, 64, 82
2, 185091, Control_c, 0, 64, 84
2, 185106, Control_c, 0, 64, 85
2, 185121, Control_c, 0, 64, 85
2, 185137, Control_c, 0, 64, 86
2, 185152, Control_c, 0, 64, 87
2, 185166, Control_c, 0, 64, 87
2, 185191, Note_on_c, 0, 56, 60
2, 185286, Note_on_c, 0, 73, 0
2, 185294, Note_on_c, 0, 54, 0
2, 185352, Note_on_c, 0, 49, 0
2, 185369, Note_on_c, 0, 46, 0
2, 185607, Control_c, 0, 64, 87
2, 185638, Control_c, 0, 64, 86
2, 185669, Control_c, 0, 64, 85
2, 185683, Control_c, 0, 64, 84
2, 185687, Note_on_c, 0, 63, 56
2, 185692, Note_on_c, 0, 71, 60
2, 185699, Control_c, 0, 64, 81
2, 185708, Note_on_c, 0, 58, 50
2, 185714, Control_c, 0, 64, 78
2, 185714, Note_on_c, 0, 51, 56
2, 185729, Control_c, 0, 64, 73
2, 185729, Note_on_c, 0, 54, 46
2, 185743, Control_c, 0, 64, 68
2, 185758, Control_c, 0, 64, 62
2, 185781, Control_c, 0, 64, 50
2, 185796, Control_c, 0, 64, 37
2, 185810, Control_c, 0, 64, 28
2, 185825, Note_on_c, 0, 64, 0
2, 185826, Control_c, 0, 64, 23
2, 185841, Control_c, 0, 64, 16
2, 185846, Note_on_c, 0, 56, 0
2, 185856, Control_c, 0, 64, 12
2, 185872, Control_c, 0, 64, 10
2, 185917, Control_c, 0, 64, 12
2, 185932, Control_c, 0, 64, 25
2, 185948, Control_c, 0, 64, 34
2, 185962, Control_c, 0, 64, 41
2, 185978, Control_c, 0, 64, 46
2, 185993, Control_c, 0, 64, 51
2, 186008, Control_c, 0, 64, 54
2, 186024, Control_c, 0, 64, 57
2, 186039, Control_c, 0, 64, 59
2, 186054, Control_c, 0, 64, 61
2, 186070, Control_c, 0, 64, 63
2, 186085, Control_c, 0, 64, 64
2, 186100, Control_c, 0, 64, 65
2, 186115, Control_c, 0, 64, 66
2, 186130, Control_c, 0, 64, 66
2, 186145, Control_c, 0, 64, 67
2, 186160, Control_c, 0, 64, 68
2, 186175, Control_c, 0, 64, 68
2, 186191, Control_c, 0, 64, 69
2, 186206, Control_c, 0, 64, 70
2, 186221, Control_c, 0, 64, 70
2, 186225, Note_on_c, 0, 59, 57
2, 186236, Control_c, 0, 64, 71
2, 186251, Control_c, 0, 64, 72
2, 186267, Control_c, 0, 64, 72
2, 186274, Note_on_c, 0, 54, 0
2, 186280, Note_on_c, 0, 58, 0
2, 186282, Control_c, 0, 64, 73
2, 186299, Control_c, 0, 64, 73
2, 186313, Control_c, 0, 64, 74
2, 186328, Control_c, 0, 64, 74
2, 186359, Control_c, 0, 64, 75
2, 186443, Note_on_c, 0, 63, 0
2, 186640, Control_c, 0, 64, 74
2, 186669, Control_c, 0, 64, 74
2, 186684, Control_c, 0, 64, 73
2, 186700, Control_c, 0, 64, 73
2, 186715, Control_c, 0, 64, 72
2, 186730, Control_c, 0, 64, 70
2, 186746, Control_c, 0, 64, 68
2, 186749, Note_on_c, 0, 64, 52
2, 186757, Note_on_c, 0, 61, 40
2, 186760, Control_c, 0, 64, 67
2, 186761, Note_on_c, 0, 49, 44
2, 186772, Note_on_c, 0, 52, 41
2, 186775, Control_c, 0, 64, 65
2, 186791, Control_c, 0, 64, 63
2, 186806, Control_c, 0, 64, 61
2, 186822, Control_c, 0, 64, 60
2, 186837, Control_c, 0, 64, 58
2, 186847, Note_on_c, 0, 51, 0
2, 186851, Control_c, 0, 64, 56
2, 186867, Control_c, 0, 64, 55
2, 186882, Control_c, 0, 64, 54
2, 186898, Control_c, 0, 64, 53
2, 186988, Control_c, 0, 64, 53
2, 187079, Control_c, 0, 64, 52
2, 187157, Control_c, 0, 64, 52
2, 187171, Control_c, 0, 64, 51
2, 187187, Control_c, 0, 64, 51
2, 187202, Control_c, 0, 64, 50
2, 187216, Control_c, 0, 64, 48
2, 187232, Control_c, 0, 64, 47
2, 187247, Control_c, 0, 64, 46
2, 187263, Control_c, 0, 64, 45
2, 187283, Note_on_c, 0, 51, 52
2, 187316, Control_c, 0, 64, 45
2, 187349, Note_on_c, 0, 52, 0
2, 187407, Control_c, 0, 64, 44
2, 187822, Note_on_c, 0, 70, 57
2, 187843, Note_on_c, 0, 52, 44
2, 187938, Note_on_c, 0, 71, 0
2, 187960, Note_on_c, 0, 51, 0
2, 188160, Control_c, 0, 64, 45
2, 188413, Note_on_c, 0, 54, 45
2, 188434, Control_c, 0, 64, 45
2, 188482, Note_on_c, 0, 59, 0
2, 188494, Control_c, 0, 64, 46
2, 188555, Control_c, 0, 64, 46
2, 188601, Control_c, 0, 64, 47
2, 188677, Control_c, 0, 64, 47
2, 188933, Note_on_c, 0, 71, 49
2, 188938, Note_on_c, 0, 47, 40
2, 188944, Note_on_c, 0, 56, 32
2, 189024, Note_on_c, 0, 54, 0
2, 189031, Note_on_c, 0, 52, 0
2, 189043, Note_on_c, 0, 49, 0
2, 189044, Note_on_c, 0, 61, 0
2, 189084, Note_on_c, 0, 70, 0
2, 189369, Control_c, 0, 64, 48
2, 189435, Note_on_c, 0, 63, 48
2, 189467, Note_on_c, 0, 54, 38
2, 189470, Note_on_c, 0, 64, 0
2, 189519, Note_on_c, 0, 56, 0
2, 189681, Control_c, 0, 64, 48
2, 189879, Control_c, 0, 64, 49
2, 189979, Note_on_c, 0, 64, 64
2, 189988, Note_on_c, 0, 56, 47
2, 190031, Control_c, 0, 64, 49
2, 190058, Note_on_c, 0, 63, 0
2, 190077, Note_on_c, 0, 54, 0
2, 190184, Control_c, 0, 64, 50
2, 190229, Control_c, 0, 64, 50
2, 190244, Control_c, 0, 64, 51
2, 190260, Control_c, 0, 64, 52
2, 190275, Control_c, 0, 64, 52
2, 190289, Control_c, 0, 64, 53
2, 190305, Control_c, 0, 64, 54
2, 190320, Control_c, 0, 64, 55
2, 190336, Control_c, 0, 64, 55
2, 190365, Control_c, 0, 64, 56
2, 190404, Control_c, 0, 64, 56
2, 190451, Control_c, 0, 64, 57
2, 190496, Control_c, 0, 64, 58
2, 190496, Note_on_c, 0, 66, 55
2, 190508, Note_on_c, 0, 57, 37
2, 190511, Control_c, 0, 64, 58
2, 190526, Control_c, 0, 64, 59
2, 190542, Control_c, 0, 64, 61
2, 190557, Control_c, 0, 64, 62
2, 190573, Control_c, 0, 64, 64
2, 190578, Note_on_c, 0, 56, 0
2, 190588, Control_c, 0, 64, 66
2, 190602, Control_c, 0, 64, 69
2, 190618, Control_c, 0, 64, 75
2, 190633, Control_c, 0, 64, 82
2, 190648, Control_c, 0, 64, 90
2, 190664, Control_c, 0, 64, 98
2, 190678, Control_c, 0, 64, 105
2, 190694, Control_c, 0, 64, 106
2, 190724, Note_on_c, 0, 68, 61
2, 190762, Note_on_c, 0, 57, 0
2, 190773, Note_on_c, 0, 66, 0
2, 190845, Control_c, 0, 64, 105
2, 190875, Control_c, 0, 64, 105
2, 190891, Control_c, 0, 64, 104
2, 190906, Control_c, 0, 64, 103
2, 190921, Control_c, 0, 64, 102
2, 190936, Control_c, 0, 64, 101
2, 190951, Control_c, 0, 64, 99
2, 190966, Control_c, 0, 64, 96
2, 190982, Control_c, 0, 64, 91
2, 190997, Control_c, 0, 64, 84
2, 190997, Note_on_c, 0, 66, 63
2, 191002, Note_on_c, 0, 63, 58
2, 191013, Control_c, 0, 64, 75
2, 191028, Control_c, 0, 64, 63
2, 191028, Note_on_c, 0, 59, 40
2, 191043, Control_c, 0, 64, 38
2, 191057, Note_on_c, 0, 64, 0
2, 191058, Control_c, 0, 64, 0
2, 191107, Note_on_c, 0, 68, 0
2, 191172, Control_c, 0, 64, 40
2, 191187, Control_c, 0, 64, 54
2, 191202, Control_c, 0, 64, 61
2, 191219, Control_c, 0, 64, 66
2, 191233, Control_c, 0, 64, 71
2, 191248, Control_c, 0, 64, 78
2, 191264, Control_c, 0, 64, 85
2, 191272, Note_on_c, 0, 66, 0
2, 191279, Control_c, 0, 64, 92
2, 191295, Control_c, 0, 64, 98
2, 191309, Control_c, 0, 64, 101
2, 191340, Control_c, 0, 64, 100
2, 191431, Control_c, 0, 64, 99
2, 191446, Control_c, 0, 64, 99
2, 191497, Note_on_c, 0, 56, 53
2, 191500, Note_on_c, 0, 73, 74
2, 191502, Note_on_c, 0, 47, 0
2, 191507, Control_c, 0, 64, 98
2, 191538, Control_c, 0, 64, 98
2, 191542, Note_on_c, 0, 71, 0
2, 191598, Control_c, 0, 64, 97
2, 191629, Control_c, 0, 64, 97
2, 191765, Control_c, 0, 64, 96
2, 191780, Control_c, 0, 64, 96
2, 191795, Control_c, 0, 64, 95
2, 191811, Control_c, 0, 64, 95
2, 191826, Control_c, 0, 64, 94
2, 191841, Control_c, 0, 64, 94
2, 191857, Control_c, 0, 64, 93
2, 191872, Control_c, 0, 64, 93
2, 191886, Control_c, 0, 64, 92
2, 191902, Control_c, 0, 64, 91
2, 191917, Control_c, 0, 64, 90
2, 191940, Control_c, 0, 64, 87
2, 191955, Control_c, 0, 64, 82
2, 191971, Control_c, 0, 64, 73
2, 191979, Note_on_c, 0, 75, 77
2, 191985, Control_c, 0, 64, 60
2, 191992, Note_on_c, 0, 54, 48
2, 191998, Note_on_c, 0, 71, 60
2, 192000, Control_c, 0, 64, 28
2, 192000, Note_on_c, 0, 68, 56
2, 192016, Control_c, 0, 64, 0
2, 192069, Note_on_c, 0, 56, 0
2, 192074, Note_on_c, 0, 63, 0
2, 192094, Control_c, 0, 64, 29
2, 192109, Control_c, 0, 64, 43
2, 192124, Control_c, 0, 64, 51
2, 192139, Control_c, 0, 64, 58
2, 192154, Control_c, 0, 64, 63
2, 192169, Control_c, 0, 64, 66
2, 192185, Control_c, 0, 64, 71
2, 192200, Control_c, 0, 64, 76
2, 192215, Control_c, 0, 64, 81
2, 192227, Note_on_c, 0, 73, 0
2, 192230, Control_c, 0, 64, 86
2, 192245, Control_c, 0, 64, 90
2, 192261, Control_c, 0, 64, 92
2, 192276, Control_c, 0, 64, 93
2, 192446, Control_c, 0, 64, 92
2, 192461, Control_c, 0, 64, 87
2, 192476, Control_c, 0, 64, 78
2, 192486, Note_on_c, 0, 52, 59
2, 192490, Note_on_c, 0, 76, 66
2, 192491, Control_c, 0, 64, 68
2, 192496, Note_on_c, 0, 75, 0
2, 192506, Control_c, 0, 64, 50
2, 192521, Control_c, 0, 64, 22
2, 192537, Control_c, 0, 64, 21
2, 192551, Control_c, 0, 64, 25
2, 192559, Note_on_c, 0, 54, 0
2, 192567, Control_c, 0, 64, 38
2, 192582, Control_c, 0, 64, 48
2, 192597, Control_c, 0, 64, 54
2, 192613, Control_c, 0, 64, 60
2, 192627, Control_c, 0, 64, 63
2, 192642, Control_c, 0, 64, 66
2, 192657, Note_on_c, 0, 59, 0
2, 192658, Control_c, 0, 64, 69
2, 192673, Control_c, 0, 64, 72
2, 192689, Control_c, 0, 64, 76
2, 192711, Control_c, 0, 64, 79
2, 192727, Control_c, 0, 64, 82
2, 192742, Control_c, 0, 64, 84
2, 192864, Control_c, 0, 64, 83
2, 192895, Control_c, 0, 64, 83
2, 192926, Control_c, 0, 64, 82
2, 192955, Control_c, 0, 64, 81
2, 192971, Control_c, 0, 64, 80
2, 192985, Control_c, 0, 64, 78
2, 193000, Control_c, 0, 64, 76
2, 193016, Control_c, 0, 64, 72
2, 193031, Control_c, 0, 64, 66
2, 193032, Note_on_c, 0, 66, 63
2, 193041, Note_on_c, 0, 59, 58
2, 193047, Control_c, 0, 64, 60
2, 193061, Control_c, 0, 64, 45
2, 193076, Control_c, 0, 64, 25
2, 193092, Control_c, 0, 64, 0
2, 193105, Note_on_c, 0, 52, 0
2, 193136, Note_on_c, 0, 71, 0
2, 193140, Note_on_c, 0, 68, 0
2, 193259, Control_c, 0, 64, 32
2, 193274, Control_c, 0, 64, 47
2, 193290, Control_c, 0, 64, 56
2, 193304, Control_c, 0, 64, 61
2, 193319, Control_c, 0, 64, 64
2, 193335, Control_c, 0, 64, 66
2, 193350, Control_c, 0, 64, 69
2, 193366, Control_c, 0, 64, 72
2, 193380, Control_c, 0, 64, 75
2, 193395, Control_c, 0, 64, 78
2, 193411, Control_c, 0, 64, 81
2, 193426, Control_c, 0, 64, 83
2, 193441, Control_c, 0, 64, 83
2, 193464, Control_c, 0, 64, 84
2, 193494, Control_c, 0, 64, 84
2, 193525, Control_c, 0, 64, 85
2, 193565, Note_on_c, 0, 73, 50
2, 193599, Control_c, 0, 64, 85
2, 193627, Note_on_c, 0, 76, 0
2, 193859, Control_c, 0, 64, 85
2, 193874, Control_c, 0, 64, 84
2, 193965, Control_c, 0, 64, 84
2, 193980, Control_c, 0, 64, 83
2, 193995, Control_c, 0, 64, 83
2, 194011, Control_c, 0, 64, 82
2, 194026, Control_c, 0, 64, 81
2, 194026, Note_on_c, 0, 75, 53
2, 194041, Control_c, 0, 64, 79
2, 194041, Note_on_c, 0, 47, 42
2, 194051, Note_on_c, 0, 71, 47
2, 194057, Control_c, 0, 64, 75
2, 194072, Control_c, 0, 64, 69
2, 194088, Control_c, 0, 64, 60
2, 194102, Control_c, 0, 64, 32
2, 194117, Control_c, 0, 64, 0
2, 194177, Note_on_c, 0, 73, 0
2, 194338, Control_c, 0, 64, 38
2, 194353, Control_c, 0, 64, 51
2, 194368, Control_c, 0, 64, 57
2, 194383, Control_c, 0, 64, 61
2, 194398, Control_c, 0, 64, 63
2, 194414, Control_c, 0, 64, 64
2, 194429, Control_c, 0, 64, 66
2, 194444, Control_c, 0, 64, 67
2, 194459, Control_c, 0, 64, 68
2, 194474, Control_c, 0, 64, 70
2, 194491, Control_c, 0, 64, 72
2, 194506, Control_c, 0, 64, 73
2, 194521, Control_c, 0, 64, 75
2, 194537, Control_c, 0, 64, 76
2, 194551, Control_c, 0, 64, 77
2, 194567, Control_c, 0, 64, 78
2, 194573, Note_on_c, 0, 71, 0
2, 194582, Control_c, 0, 64, 79
2, 194596, Control_c, 0, 64, 79
2, 194599, Note_on_c, 0, 69, 43
2, 194612, Control_c, 0, 64, 80
2, 194627, Control_c, 0, 64, 81
2, 194642, Control_c, 0, 64, 82
2, 194658, Control_c, 0, 64, 82
2, 194672, Control_c, 0, 64, 83
2, 194688, Control_c, 0, 64, 83
2, 194703, Control_c, 0, 64, 84
2, 194718, Control_c, 0, 64, 84
2, 194726, Note_on_c, 0, 69, 0
2, 194792, Note_on_c, 0, 66, 0
2, 194793, Control_c, 0, 64, 85
2, 194824, Control_c, 0, 64, 85
2, 195090, Control_c, 0, 64, 85
2, 195137, Control_c, 0, 64, 84
2, 195151, Control_c, 0, 64, 82
2, 195167, Control_c, 0, 64, 79
2, 195170, Note_on_c, 0, 52, 41
2, 195170, Note_on_c, 0, 76, 40
2, 195176, Note_on_c, 0, 68, 42
2, 195182, Control_c, 0, 64, 73
2, 195197, Control_c, 0, 64, 66
2, 195204, Note_on_c, 0, 64, 31
2, 195213, Control_c, 0, 64, 54
2, 195228, Control_c, 0, 64, 0
2, 195258, Note_on_c, 0, 47, 0
2, 195296, Note_on_c, 0, 75, 0
2, 195396, Control_c, 0, 64, 34
2, 195411, Control_c, 0, 64, 50
2, 195426, Control_c, 0, 64, 57
2, 195441, Control_c, 0, 64, 62
2, 195457, Control_c, 0, 64, 65
2, 195472, Control_c, 0, 64, 67
2, 195488, Control_c, 0, 64, 69
2, 195503, Control_c, 0, 64, 72
2, 195517, Control_c, 0, 64, 75
2, 195533, Control_c, 0, 64, 78
2, 195548, Control_c, 0, 64, 81
2, 195564, Control_c, 0, 64, 82
2, 195579, Control_c, 0, 64, 83
2, 195609, Control_c, 0, 64, 84
2, 195638, Control_c, 0, 64, 84
2, 195705, Note_on_c, 0, 75, 47
2, 195780, Note_on_c, 0, 76, 0
2, 196134, Control_c, 0, 64, 84
2, 196194, Control_c, 0, 64, 83
2, 196202, Note_on_c, 0, 64, 0
2, 196210, Control_c, 0, 64, 82
2, 196218, Note_on_c, 0, 57, 47
2, 196223, Note_on_c, 0, 61, 52
2, 196225, Control_c, 0, 64, 79
2, 196239, Control_c, 0, 64, 73
2, 196240, Note_on_c, 0, 76, 42
2, 196255, Control_c, 0, 64, 66
2, 196270, Control_c, 0, 64, 53
2, 196273, Note_on_c, 0, 68, 0
2, 196286, Control_c, 0, 64, 0
2, 196308, Note_on_c, 0, 75, 0
2, 196317, Note_on_c, 0, 52, 0
2, 196370, Note_on_c, 0, 59, 0
2, 196408, Control_c, 0, 64, 19
2, 196423, Control_c, 0, 64, 36
2, 196437, Control_c, 0, 64, 45
2, 196453, Control_c, 0, 64, 51
2, 196468, Control_c, 0, 64, 55
2, 196482, Control_c, 0, 64, 58
2, 196498, Control_c, 0, 64, 62
2, 196513, Control_c, 0, 64, 63
2, 196529, Control_c, 0, 64, 65
2, 196551, Control_c, 0, 64, 67
2, 196567, Control_c, 0, 64, 68
2, 196582, Control_c, 0, 64, 70
2, 196597, Control_c, 0, 64, 72
2, 196613, Control_c, 0, 64, 73
2, 196627, Control_c, 0, 64, 74
2, 196642, Control_c, 0, 64, 75
2, 196658, Control_c, 0, 64, 75
2, 196673, Control_c, 0, 64, 76
2, 196689, Control_c, 0, 64, 76
2, 196703, Control_c, 0, 64, 77
2, 196718, Control_c, 0, 64, 77
2, 196734, Control_c, 0, 64, 78
2, 196787, Note_on_c, 0, 78, 43
2, 196810, Control_c, 0, 64, 78
2, 196824, Control_c, 0, 64, 79
2, 196847, Note_on_c, 0, 76, 0
2, 196855, Control_c, 0, 64, 79
2, 196886, Control_c, 0, 64, 80
2, 196915, Control_c, 0, 64, 80
2, 196931, Control_c, 0, 64, 81
2, 196947, Control_c, 0, 64, 81
2, 197023, Control_c, 0, 64, 82
2, 197236, Control_c, 0, 64, 81
2, 197266, Control_c, 0, 64, 80
2, 197276, Note_on_c, 0, 56, 35
2, 197280, Note_on_c, 0, 60, 52
2, 197281, Control_c, 0, 64, 79
2, 197297, Control_c, 0, 64, 76
2, 197306, Note_on_c, 0, 80, 57
2, 197319, Control_c, 0, 64, 72
2, 197334, Control_c, 0, 64, 64
2, 197349, Control_c, 0, 64, 51
2, 197361, Note_on_c, 0, 78, 0
2, 197365, Control_c, 0, 64, 30
2, 197380, Control_c, 0, 64, 21
2, 197393, Note_on_c, 0, 57, 0
2, 197395, Control_c, 0, 64, 15
2, 197411, Control_c, 0, 64, 10
2, 197427, Note_on_c, 0, 61, 0
2, 197456, Control_c, 0, 64, 12
2, 197470, Control_c, 0, 64, 26
2, 197486, Control_c, 0, 64, 36
2, 197501, Control_c, 0, 64, 43
2, 197516, Control_c, 0, 64, 48
2, 197532, Control_c, 0, 64, 51
2, 197546, Control_c, 0, 64, 55
2, 197561, Control_c, 0, 64, 57
2, 197572, Note_on_c, 0, 78, 57
2, 197577, Control_c, 0, 64, 59
2, 197592, Control_c, 0, 64, 61
2, 197608, Control_c, 0, 64, 63
2, 197616, Note_on_c, 0, 80, 0
2, 197622, Control_c, 0, 64, 64
2, 197637, Control_c, 0, 64, 65
2, 197653, Control_c, 0, 64, 66
2, 197667, Control_c, 0, 64, 67
2, 197682, Control_c, 0, 64, 68
2, 197698, Control_c, 0, 64, 69
2, 197713, Control_c, 0, 64, 70
2, 197729, Control_c, 0, 64, 71
2, 197744, Control_c, 0, 64, 71
2, 197759, Control_c, 0, 64, 72
2, 197820, Note_on_c, 0, 80, 61
2, 198045, Note_on_c, 0, 81, 56
2, 198132, Note_on_c, 0, 80, 0
2, 198300, Control_c, 0, 64, 71
2, 198306, Note_on_c, 0, 61, 48
2, 198309, Note_on_c, 0, 80, 53
2, 198315, Control_c, 0, 64, 69
2, 198322, Note_on_c, 0, 64, 52
2, 198331, Control_c, 0, 64, 66
2, 198346, Control_c, 0, 64, 62
2, 198361, Control_c, 0, 64, 55
2, 198377, Control_c, 0, 64, 47
2, 198379, Note_on_c, 0, 78, 0
2, 198391, Control_c, 0, 64, 40
2, 198405, Note_on_c, 0, 81, 0
2, 198407, Control_c, 0, 64, 38
2, 198422, Control_c, 0, 64, 37
2, 198436, Note_on_c, 0, 60, 0
2, 198482, Control_c, 0, 64, 38
2, 198498, Control_c, 0, 64, 41
2, 198512, Control_c, 0, 64, 45
2, 198528, Control_c, 0, 64, 48
2, 198543, Control_c, 0, 64, 51
2, 198558, Control_c, 0, 64, 53
2, 198571, Note_on_c, 0, 56, 0
2, 198574, Control_c, 0, 64, 54
2, 198576, Note_on_c, 0, 78, 50
2, 198590, Control_c, 0, 64, 56
2, 198605, Control_c, 0, 64, 58
2, 198620, Control_c, 0, 64, 59
2, 198635, Control_c, 0, 64, 60
2, 198651, Control_c, 0, 64, 61
2, 198666, Control_c, 0, 64, 62
2, 198681, Control_c, 0, 64, 63
2, 198696, Control_c, 0, 64, 63
2, 198711, Control_c, 0, 64, 64
2, 198727, Control_c, 0, 64, 65
2, 198741, Control_c, 0, 64, 65
2, 198756, Control_c, 0, 64, 66
2, 198772, Control_c, 0, 64, 66
2, 198774, Note_on_c, 0, 80, 0
2, 198787, Control_c, 0, 64, 67
2, 198802, Control_c, 0, 64, 67
2, 198805, Note_on_c, 0, 76, 60
2, 198840, Control_c, 0, 64, 68
2, 198886, Control_c, 0, 64, 68
2, 198888, Note_on_c, 0, 78, 0
2, 199035, Note_on_c, 0, 80, 59
2, 199280, Control_c, 0, 64, 68
2, 199293, Note_on_c, 0, 78, 59
2, 199296, Control_c, 0, 64, 67
2, 199299, Note_on_c, 0, 63, 51
2, 199311, Control_c, 0, 64, 66
2, 199327, Control_c, 0, 64, 64
2, 199342, Control_c, 0, 64, 61
2, 199356, Control_c, 0, 64, 55
2, 199369, Note_on_c, 0, 80, 0
2, 199371, Note_on_c, 0, 76, 0
2, 199372, Control_c, 0, 64, 44
2, 199387, Control_c, 0, 64, 22
2, 199401, Note_on_c, 0, 64, 0
2, 199404, Control_c, 0, 64, 0
2, 199525, Control_c, 0, 64, 18
2, 199540, Control_c, 0, 64, 37
2, 199542, Note_on_c, 0, 76, 52
2, 199555, Control_c, 0, 64, 46
2, 199571, Control_c, 0, 64, 52
2, 199585, Control_c, 0, 64, 56
2, 199609, Control_c, 0, 64, 59
2, 199617, Note_on_c, 0, 78, 0
2, 199624, Control_c, 0, 64, 61
2, 199639, Control_c, 0, 64, 62
2, 199655, Control_c, 0, 64, 63
2, 199669, Control_c, 0, 64, 64
2, 199685, Control_c, 0, 64, 65
2, 199700, Control_c, 0, 64, 65
2, 199730, Control_c, 0, 64, 66
2, 199745, Control_c, 0, 64, 66
2, 199784, Note_on_c, 0, 78, 55
2, 199911, Control_c, 0, 64, 67
2, 200007, Note_on_c, 0, 80, 56
2, 200044, Note_on_c, 0, 78, 0
2, 200246, Note_on_c, 0, 60, 39
2, 200248, Control_c, 0, 64, 66
2, 200259, Note_on_c, 0, 78, 52
2, 200263, Control_c, 0, 64, 65
2, 200278, Control_c, 0, 64, 62
2, 200294, Control_c, 0, 64, 57
2, 200307, Note_on_c, 0, 61, 0
2, 200308, Control_c, 0, 64, 47
2, 200324, Control_c, 0, 64, 32
2, 200327, Note_on_c, 0, 80, 0
2, 200339, Control_c, 0, 64, 19
2, 200351, Note_on_c, 0, 76, 0
2, 200353, Control_c, 0, 64, 16
2, 200391, Control_c, 0, 64, 24
2, 200407, Control_c, 0, 64, 36
2, 200422, Control_c, 0, 64, 44
2, 200437, Control_c, 0, 64, 49
2, 200453, Control_c, 0, 64, 53
2, 200468, Control_c, 0, 64, 56
2, 200484, Control_c, 0, 64, 60
2, 200492, Note_on_c, 0, 76, 42
2, 200499, Control_c, 0, 64, 63
2, 200513, Control_c, 0, 64, 65
2, 200529, Control_c, 0, 64, 68
2, 200544, Control_c, 0, 64, 71
2, 200558, Control_c, 0, 64, 74
2, 200574, Control_c, 0, 64, 77
2, 200589, Control_c, 0, 64, 80
2, 200605, Control_c, 0, 64, 82
2, 200620, Control_c, 0, 64, 83
2, 200634, Control_c, 0, 64, 84
2, 200680, Control_c, 0, 64, 84
2, 200710, Control_c, 0, 64, 85
2, 200716, Note_on_c, 0, 75, 54
2, 200771, Control_c, 0, 64, 85
2, 200771, Note_on_c, 0, 78, 0
2, 200778, Note_on_c, 0, 76, 0
2, 200939, Control_c, 0, 64, 86
2, 200956, Note_on_c, 0, 78, 59
2, 201138, Control_c, 0, 64, 85
2, 201175, Control_c, 0, 64, 84
2, 201190, Control_c, 0, 64, 82
2, 201205, Control_c, 0, 64, 77
2, 201205, Note_on_c, 0, 76, 59
2, 201208, Note_on_c, 0, 61, 49
2, 201218, Note_on_c, 0, 75, 0
2, 201220, Control_c, 0, 64, 69
2, 201235, Control_c, 0, 64, 61
2, 201236, Note_on_c, 0, 78, 0
2, 201251, Control_c, 0, 64, 40
2, 201266, Control_c, 0, 64, 24
2, 201281, Control_c, 0, 64, 22
2, 201305, Note_on_c, 0, 63, 0
2, 201312, Control_c, 0, 64, 25
2, 201321, Note_on_c, 0, 60, 0
2, 201327, Control_c, 0, 64, 38
2, 201342, Control_c, 0, 64, 46
2, 201357, Control_c, 0, 64, 52
2, 201373, Control_c, 0, 64, 56
2, 201388, Control_c, 0, 64, 59
2, 201402, Control_c, 0, 64, 62
2, 201418, Control_c, 0, 64, 64
2, 201433, Control_c, 0, 64, 67
2, 201436, Note_on_c, 0, 75, 61
2, 201449, Control_c, 0, 64, 71
2, 201462, Note_on_c, 0, 76, 0
2, 201464, Control_c, 0, 64, 76
2, 201478, Control_c, 0, 64, 81
2, 201494, Control_c, 0, 64, 86
2, 201509, Control_c, 0, 64, 89
2, 201525, Control_c, 0, 64, 91
2, 201539, Control_c, 0, 64, 92
2, 201600, Control_c, 0, 64, 93
2, 201661, Note_on_c, 0, 76, 63
2, 201691, Control_c, 0, 64, 92
2, 201718, Note_on_c, 0, 75, 0
2, 201752, Control_c, 0, 64, 92
2, 201892, Note_on_c, 0, 78, 63
2, 201933, Note_on_c, 0, 76, 0
2, 201943, Control_c, 0, 64, 91
2, 201973, Control_c, 0, 64, 91
2, 202064, Control_c, 0, 64, 90
2, 202095, Control_c, 0, 64, 90
2, 202125, Control_c, 0, 64, 89
2, 202140, Control_c, 0, 64, 87
2, 202148, Note_on_c, 0, 68, 72
2, 202155, Control_c, 0, 64, 85
2, 202168, Note_on_c, 0, 76, 56
2, 202170, Control_c, 0, 64, 81
2, 202185, Control_c, 0, 64, 77
2, 202200, Control_c, 0, 64, 70
2, 202216, Control_c, 0, 64, 63
2, 202231, Control_c, 0, 64, 48
2, 202246, Control_c, 0, 64, 25
2, 202261, Control_c, 0, 64, 8
2, 202276, Control_c, 0, 64, 0
2, 202321, Control_c, 0, 64, 15
2, 202330, Note_on_c, 0, 78, 0
2, 202337, Control_c, 0, 64, 35
2, 202352, Control_c, 0, 64, 44
2, 202368, Control_c, 0, 64, 51
2, 202378, Note_on_c, 0, 75, 62
2, 202382, Control_c, 0, 64, 55
2, 202397, Control_c, 0, 64, 59
2, 202413, Control_c, 0, 64, 63
2, 202428, Control_c, 0, 64, 65
2, 202444, Control_c, 0, 64, 68
2, 202445, Note_on_c, 0, 76, 0
2, 202458, Control_c, 0, 64, 72
2, 202473, Control_c, 0, 64, 76
2, 202489, Control_c, 0, 64, 80
2, 202504, Control_c, 0, 64, 85
2, 202519, Control_c, 0, 64, 89
2, 202535, Control_c, 0, 64, 92
2, 202550, Control_c, 0, 64, 94
2, 202566, Control_c, 0, 64, 94
2, 202601, Note_on_c, 0, 73, 59
2, 202655, Note_on_c, 0, 75, 0
2, 202801, Control_c, 0, 64, 94
2, 202837, Note_on_c, 0, 76, 61
2, 202924, Control_c, 0, 64, 93
2, 203029, Control_c, 0, 64, 93
2, 203045, Control_c, 0, 64, 92
2, 203060, Control_c, 0, 64, 89
2, 203075, Control_c, 0, 64, 83
2, 203090, Control_c, 0, 64, 75
2, 203098, Note_on_c, 0, 67, 66
2, 203105, Control_c, 0, 64, 65
2, 203110, Note_on_c, 0, 75, 56
2, 203120, Control_c, 0, 64, 53
2, 203122, Note_on_c, 0, 73, 0
2, 203136, Control_c, 0, 64, 42
2, 203166, Control_c, 0, 64, 44
2, 203181, Control_c, 0, 64, 50
2, 203188, Note_on_c, 0, 68, 0
2, 203196, Control_c, 0, 64, 55
2, 203212, Control_c, 0, 64, 59
2, 203226, Control_c, 0, 64, 62
2, 203241, Control_c, 0, 64, 64
2, 203257, Control_c, 0, 64, 67
2, 203272, Control_c, 0, 64, 70
2, 203288, Control_c, 0, 64, 75
2, 203302, Control_c, 0, 64, 80
2, 203317, Control_c, 0, 64, 85
2, 203331, Note_on_c, 0, 73, 51
2, 203333, Control_c, 0, 64, 89
2, 203348, Control_c, 0, 64, 91
2, 203352, Note_on_c, 0, 75, 0
2, 203364, Control_c, 0, 64, 91
2, 203426, Note_on_c, 0, 76, 0
2, 203539, Control_c, 0, 64, 92
2, 203570, Control_c, 0, 64, 91
2, 203585, Control_c, 0, 64, 89
2, 203586, Note_on_c, 0, 75, 58
2, 203598, Note_on_c, 0, 59, 47
2, 203599, Control_c, 0, 64, 83
2, 203615, Control_c, 0, 64, 75
2, 203630, Control_c, 0, 64, 66
2, 203646, Control_c, 0, 64, 56
2, 203660, Control_c, 0, 64, 51
2, 203675, Control_c, 0, 64, 52
2, 203688, Note_on_c, 0, 61, 0
2, 203691, Control_c, 0, 64, 56
2, 203706, Control_c, 0, 64, 59
2, 203721, Control_c, 0, 64, 63
2, 203736, Control_c, 0, 64, 65
2, 203751, Control_c, 0, 64, 67
2, 203764, Note_on_c, 0, 75, 0
2, 203767, Control_c, 0, 64, 70
2, 203780, Note_on_c, 0, 76, 53
2, 203782, Control_c, 0, 64, 73
2, 203797, Control_c, 0, 64, 76
2, 203813, Control_c, 0, 64, 78
2, 203828, Control_c, 0, 64, 80
2, 203844, Control_c, 0, 64, 82
2, 203858, Control_c, 0, 64, 83
2, 203873, Control_c, 0, 64, 83
2, 203949, Control_c, 0, 64, 83
2, 203965, Control_c, 0, 64, 82
2, 203979, Control_c, 0, 64, 80
2, 203994, Control_c, 0, 64, 77
2, 204010, Control_c, 0, 64, 72
2, 204020, Note_on_c, 0, 71, 67
2, 204025, Control_c, 0, 64, 65
2, 204039, Note_on_c, 0, 75, 63
2, 204040, Control_c, 0, 64, 55
2, 204042, Note_on_c, 0, 58, 50
2, 204056, Control_c, 0, 64, 26
2, 204066, Note_on_c, 0, 76, 0
2, 204070, Control_c, 0, 64, 0
2, 204089, Note_on_c, 0, 59, 0
2, 204097, Note_on_c, 0, 67, 0
2, 204097, Note_on_c, 0, 73, 0
2, 204132, Control_c, 0, 64, 39
2, 204146, Control_c, 0, 64, 52
2, 204161, Control_c, 0, 64, 60
2, 204177, Control_c, 0, 64, 64
2, 204192, Control_c, 0, 64, 67
2, 204208, Control_c, 0, 64, 71
2, 204230, Control_c, 0, 64, 74
2, 204246, Control_c, 0, 64, 76
2, 204261, Control_c, 0, 64, 78
2, 204271, Note_on_c, 0, 73, 49
2, 204275, Control_c, 0, 64, 79
2, 204386, Note_on_c, 0, 71, 0
2, 204427, Control_c, 0, 64, 79
2, 204458, Control_c, 0, 64, 80
2, 204489, Control_c, 0, 64, 79
2, 204494, Note_on_c, 0, 75, 0
2, 204504, Control_c, 0, 64, 77
2, 204508, Note_on_c, 0, 56, 49
2, 204519, Control_c, 0, 64, 74
2, 204519, Note_on_c, 0, 71, 53
2, 204534, Control_c, 0, 64, 69
2, 204549, Control_c, 0, 64, 63
2, 204558, Note_on_c, 0, 58, 0
2, 204565, Control_c, 0, 64, 50
2, 204575, Note_on_c, 0, 73, 0
2, 204580, Control_c, 0, 64, 21
2, 204595, Control_c, 0, 64, 0
2, 204656, Control_c, 0, 64, 12
2, 204671, Control_c, 0, 64, 36
2, 204687, Control_c, 0, 64, 50
2, 204701, Control_c, 0, 64, 58
2, 204716, Control_c, 0, 64, 63
2, 204732, Control_c, 0, 64, 65
2, 204747, Control_c, 0, 64, 68
2, 204748, Note_on_c, 0, 75, 55
2, 204762, Control_c, 0, 64, 70
2, 204777, Control_c, 0, 64, 72
2, 204792, Control_c, 0, 64, 74
2, 204808, Control_c, 0, 64, 76
2, 204822, Control_c, 0, 64, 77
2, 204837, Control_c, 0, 64, 79
2, 204853, Control_c, 0, 64, 79
2, 204884, Control_c, 0, 64, 80
2, 204898, Control_c, 0, 64, 80
2, 204929, Control_c, 0, 64, 81
2, 204959, Control_c, 0, 64, 79
2, 204975, Control_c, 0, 64, 75
2, 204997, Control_c, 0, 64, 66
2, 205013, Control_c, 0, 64, 50
2, 205018, Note_on_c, 0, 73, 58
2, 205020, Note_on_c, 0, 70, 70
2, 205028, Control_c, 0, 64, 0
2, 205068, Note_on_c, 0, 71, 0
2, 205116, Note_on_c, 0, 75, 0
2, 205119, Control_c, 0, 64, 41
2, 205135, Control_c, 0, 64, 56
2, 205151, Control_c, 0, 64, 63
2, 205167, Control_c, 0, 64, 68
2, 205182, Control_c, 0, 64, 74
2, 205197, Control_c, 0, 64, 82
2, 205213, Control_c, 0, 64, 92
2, 205227, Control_c, 0, 64, 102
2, 205242, Control_c, 0, 64, 107
2, 205256, Note_on_c, 0, 71, 49
2, 205258, Control_c, 0, 64, 107
2, 205272, Control_c, 0, 64, 106
2, 205288, Control_c, 0, 64, 105
2, 205304, Note_on_c, 0, 73, 0
2, 205314, Note_on_c, 0, 70, 0
2, 205379, Control_c, 0, 64, 106
2, 205394, Control_c, 0, 64, 106
2, 205410, Control_c, 0, 64, 107
2, 205424, Control_c, 0, 64, 108
2, 205439, Control_c, 0, 64, 107
2, 205455, Control_c, 0, 64, 101
2, 205466, Note_on_c, 0, 56, 0
2, 205470, Control_c, 0, 64, 91
2, 205486, Control_c, 0, 64, 80
2, 205494, Note_on_c, 0, 73, 55
2, 205500, Control_c, 0, 64, 68
2, 205503, Note_on_c, 0, 55, 36
2, 205515, Control_c, 0, 64, 53
2, 205531, Control_c, 0, 64, 46
2, 205546, Control_c, 0, 64, 47
2, 205557, Note_on_c, 0, 71, 0
2, 205561, Control_c, 0, 64, 53
2, 205577, Control_c, 0, 64, 58
2, 205591, Control_c, 0, 64, 61
2, 205607, Control_c, 0, 64, 64
2, 205622, Control_c, 0, 64, 66
2, 205637, Control_c, 0, 64, 68
2, 205653, Control_c, 0, 64, 72
2, 205667, Control_c, 0, 64, 75
2, 205682, Control_c, 0, 64, 77
2, 205698, Control_c, 0, 64, 79
2, 205713, Control_c, 0, 64, 79
2, 205716, Note_on_c, 0, 75, 59
2, 205751, Note_on_c, 0, 53, 35
2, 205760, Note_on_c, 0, 73, 0
2, 205766, Note_on_c, 0, 55, 0
2, 205903, Control_c, 0, 64, 78
2, 205918, Control_c, 0, 64, 75
2, 205934, Control_c, 0, 64, 70
2, 205949, Control_c, 0, 64, 62
2, 205966, Control_c, 0, 64, 41
2, 205974, Note_on_c, 0, 55, 45
2, 205977, Note_on_c, 0, 73, 56
2, 205980, Control_c, 0, 64, 0
2, 206020, Note_on_c, 0, 75, 0
2, 206021, Note_on_c, 0, 53, 0
2, 206102, Control_c, 0, 64, 21
2, 206116, Control_c, 0, 64, 40
2, 206132, Control_c, 0, 64, 48
2, 206147, Control_c, 0, 64, 53
2, 206162, Control_c, 0, 64, 57
2, 206178, Control_c, 0, 64, 59
2, 206182, Note_on_c, 0, 71, 44
2, 206192, Control_c, 0, 64, 62
2, 206208, Control_c, 0, 64, 63
2, 206223, Control_c, 0, 64, 65
2, 206237, Control_c, 0, 64, 67
2, 206237, Note_on_c, 0, 73, 0
2, 206253, Control_c, 0, 64, 69
2, 206268, Control_c, 0, 64, 71
2, 206283, Control_c, 0, 64, 73
2, 206299, Control_c, 0, 64, 74
2, 206313, Control_c, 0, 64, 74
2, 206329, Control_c, 0, 64, 75
2, 206359, Control_c, 0, 64, 75
2, 206421, Note_on_c, 0, 70, 62
2, 206442, Note_on_c, 0, 71, 0
2, 206653, Note_on_c, 0, 73, 62
2, 206702, Control_c, 0, 64, 75
2, 206870, Control_c, 0, 64, 73
2, 206883, Note_on_c, 0, 71, 58
2, 206885, Control_c, 0, 64, 68
2, 206900, Control_c, 0, 64, 62
2, 206911, Note_on_c, 0, 56, 38
2, 206915, Control_c, 0, 64, 42
2, 206931, Control_c, 0, 64, 0
2, 206958, Note_on_c, 0, 73, 0
2, 207067, Control_c, 0, 64, 19
2, 207069, Note_on_c, 0, 55, 0
2, 207081, Control_c, 0, 64, 42
2, 207097, Control_c, 0, 64, 52
2, 207109, Note_on_c, 0, 58, 55
2, 207112, Control_c, 0, 64, 57
2, 207128, Control_c, 0, 64, 59
2, 207129, Note_on_c, 0, 56, 0
2, 207143, Control_c, 0, 64, 60
2, 207157, Control_c, 0, 64, 61
2, 207173, Control_c, 0, 64, 61
2, 207203, Control_c, 0, 64, 62
2, 207264, Control_c, 0, 64, 62
2, 207367, Note_on_c, 0, 63, 55
2, 207372, Note_on_c, 0, 56, 45
2, 207378, Control_c, 0, 64, 62
2, 207393, Note_on_c, 0, 58, 0
2, 207475, Note_on_c, 0, 70, 0
2, 207485, Control_c, 0, 64, 61
2, 207577, Note_on_c, 0, 56, 0
2, 207585, Note_on_c, 0, 55, 44
2, 207668, Control_c, 0, 64, 61
2, 207759, Control_c, 0, 64, 60
2, 207775, Control_c, 0, 64, 60
2, 207790, Control_c, 0, 64, 59
2, 207812, Note_on_c, 0, 68, 61
2, 207815, Note_on_c, 0, 56, 46
2, 207820, Control_c, 0, 64, 59
2, 207835, Control_c, 0, 64, 58
2, 207851, Control_c, 0, 64, 57
2, 207880, Control_c, 0, 64, 57
2, 207883, Note_on_c, 0, 55, 0
2, 207958, Note_on_c, 0, 63, 0
2, 208035, Note_on_c, 0, 57, 51
2, 208035, Note_on_c, 0, 73, 65
2, 208090, Note_on_c, 0, 56, 0
2, 208265, Note_on_c, 0, 57, 0
2, 208265, Note_on_c, 0, 75, 73
2, 208267, Note_on_c, 0, 59, 57
2, 208289, Note_on_c, 0, 71, 0
2, 208482, Note_on_c, 0, 56, 55
2, 208499, Note_on_c, 0, 71, 67
2, 208511, Note_on_c, 0, 59, 0
2, 208530, Note_on_c, 0, 75, 0
2, 208546, Note_on_c, 0, 73, 0
2, 208678, Control_c, 0, 64, 57
2, 208708, Control_c, 0, 64, 58
2, 208726, Note_on_c, 0, 73, 69
2, 208735, Note_on_c, 0, 57, 55
2, 208739, Control_c, 0, 64, 58
2, 208744, Note_on_c, 0, 56, 0
2, 208767, Note_on_c, 0, 71, 0
2, 208770, Control_c, 0, 64, 59
2, 208815, Control_c, 0, 64, 59
2, 208853, Control_c, 0, 64, 60
2, 208946, Note_on_c, 0, 59, 60
2, 208952, Note_on_c, 0, 57, 0
2, 209181, Note_on_c, 0, 57, 56
2, 209190, Note_on_c, 0, 66, 59
2, 209224, Note_on_c, 0, 59, 0
2, 209234, Control_c, 0, 64, 60
2, 209398, Note_on_c, 0, 56, 55
2, 209408, Note_on_c, 0, 57, 0
2, 209409, Note_on_c, 0, 64, 59
2, 209438, Note_on_c, 0, 66, 0
2, 209471, Note_on_c, 0, 68, 0
2, 209643, Note_on_c, 0, 66, 72
2, 209647, Note_on_c, 0, 64, 0
2, 209650, Note_on_c, 0, 58, 59
2, 209726, Note_on_c, 0, 56, 0
2, 209774, Control_c, 0, 64, 61
2, 209862, Note_on_c, 0, 59, 64
2, 209897, Note_on_c, 0, 58, 0
2, 210088, Note_on_c, 0, 61, 57
2, 210095, Note_on_c, 0, 76, 76
2, 210130, Note_on_c, 0, 73, 0
2, 210147, Note_on_c, 0, 59, 0
2, 210282, Note_on_c, 0, 58, 58
2, 210327, Note_on_c, 0, 61, 0
2, 210511, Control_c, 0, 64, 60
2, 210546, Note_on_c, 0, 59, 58
2, 210557, Note_on_c, 0, 75, 77
2, 210589, Note_on_c, 0, 76, 0
2, 210595, Note_on_c, 0, 58, 0
2, 210694, Control_c, 0, 64, 60
2, 210763, Note_on_c, 0, 61, 62
2, 210771, Note_on_c, 0, 59, 0
2, 211003, Note_on_c, 0, 59, 55
2, 211017, Note_on_c, 0, 64, 70
2, 211047, Note_on_c, 0, 66, 0
2, 211052, Note_on_c, 0, 61, 0
2, 211220, Note_on_c, 0, 58, 64
2, 211235, Note_on_c, 0, 66, 75
2, 211254, Note_on_c, 0, 59, 0
2, 211256, Note_on_c, 0, 64, 0
2, 211431, Control_c, 0, 64, 59
2, 211462, Control_c, 0, 64, 59
2, 211474, Note_on_c, 0, 68, 74
2, 211477, Note_on_c, 0, 60, 63
2, 211493, Control_c, 0, 64, 58
2, 211499, Note_on_c, 0, 66, 0
2, 211507, Control_c, 0, 64, 57
2, 211522, Control_c, 0, 64, 57
2, 211538, Control_c, 0, 64, 56
2, 211553, Control_c, 0, 64, 55
2, 211568, Control_c, 0, 64, 54
2, 211583, Control_c, 0, 64, 53
2, 211598, Control_c, 0, 64, 52
2, 211614, Control_c, 0, 64, 50
2, 211629, Control_c, 0, 64, 50
2, 211643, Control_c, 0, 64, 49
2, 211692, Note_on_c, 0, 61, 66
2, 211725, Note_on_c, 0, 60, 0
2, 211751, Control_c, 0, 64, 49
2, 211858, Control_c, 0, 64, 48
2, 211888, Control_c, 0, 64, 47
2, 211911, Control_c, 0, 64, 46
2, 211927, Control_c, 0, 64, 42
2, 211933, Note_on_c, 0, 78, 79
2, 211934, Note_on_c, 0, 63, 64
2, 211942, Control_c, 0, 64, 36
2, 211956, Control_c, 0, 64, 27
2, 211972, Control_c, 0, 64, 16
2, 211987, Control_c, 0, 64, 0
2, 212001, Note_on_c, 0, 75, 0
2, 212079, Note_on_c, 0, 61, 0
2, 212144, Note_on_c, 0, 60, 66
2, 212160, Note_on_c, 0, 63, 0
2, 212191, Note_on_c, 0, 58, 0
2, 212430, Note_on_c, 0, 76, 77
2, 212433, Note_on_c, 0, 61, 53
2, 212471, Note_on_c, 0, 60, 0
2, 212543, Note_on_c, 0, 78, 0
2, 212913, Note_on_c, 0, 49, 40
2, 213143, Note_on_c, 0, 51, 56
2, 213155, Note_on_c, 0, 49, 0
2, 213415, Note_on_c, 0, 51, 0
2, 213423, Note_on_c, 0, 73, 71
2, 213435, Note_on_c, 0, 52, 50
2, 213895, Note_on_c, 0, 54, 50
2, 213935, Note_on_c, 0, 52, 0
2, 213995, Control_c, 0, 64, 48
2, 214011, Control_c, 0, 64, 60
2, 214026, Control_c, 0, 64, 65
2, 214042, Control_c, 0, 64, 67
2, 214057, Control_c, 0, 64, 70
2, 214072, Control_c, 0, 64, 73
2, 214088, Control_c, 0, 64, 75
2, 214097, Note_on_c, 0, 61, 0
2, 214102, Control_c, 0, 64, 76
2, 214118, Control_c, 0, 64, 77
2, 214202, Control_c, 0, 64, 76
2, 214232, Control_c, 0, 64, 75
2, 214248, Control_c, 0, 64, 75
2, 214262, Control_c, 0, 64, 74
2, 214308, Control_c, 0, 64, 74
2, 214323, Control_c, 0, 64, 73
2, 214338, Control_c, 0, 64, 70
2, 214353, Control_c, 0, 64, 65
2, 214363, Note_on_c, 0, 72, 68
2, 214369, Control_c, 0, 64, 56
2, 214375, Note_on_c, 0, 56, 50
2, 214384, Control_c, 0, 64, 34
2, 214400, Control_c, 0, 64, 0
2, 214407, Note_on_c, 0, 54, 0
2, 214450, Note_on_c, 0, 73, 0
2, 214596, Control_c, 0, 64, 34
2, 214605, Note_on_c, 0, 54, 51
2, 214611, Control_c, 0, 64, 50
2, 214621, Note_on_c, 0, 56, 0
2, 214626, Control_c, 0, 64, 57
2, 214642, Control_c, 0, 64, 60
2, 214657, Control_c, 0, 64, 62
2, 214671, Control_c, 0, 64, 63
2, 214809, Control_c, 0, 64, 62
2, 214832, Note_on_c, 0, 56, 49
2, 214840, Control_c, 0, 64, 62
2, 214842, Note_on_c, 0, 75, 63
2, 214869, Control_c, 0, 64, 61
2, 214900, Control_c, 0, 64, 61
2, 214902, Note_on_c, 0, 54, 0
2, 214932, Note_on_c, 0, 76, 0
2, 214984, Control_c, 0, 64, 60
2, 215015, Control_c, 0, 64, 60
2, 215043, Note_on_c, 0, 56, 0
2, 215045, Control_c, 0, 64, 59
2, 215045, Note_on_c, 0, 57, 52
2, 215181, Control_c, 0, 64, 59
2, 215212, Control_c, 0, 64, 58
2, 215272, Control_c, 0, 64, 58
2, 215295, Note_on_c, 0, 76, 75
2, 215302, Control_c, 0, 64, 57
2, 215307, Note_on_c, 0, 56, 53
2, 215318, Control_c, 0, 64, 57
2, 215395, Note_on_c, 0, 57, 0
2, 215438, Note_on_c, 0, 75, 0
2, 215469, Control_c, 0, 64, 57
2, 215485, Control_c, 0, 64, 58
2, 215500, Control_c, 0, 64, 58
2, 215506, Note_on_c, 0, 54, 53
2, 215515, Control_c, 0, 64, 59
2, 215531, Control_c, 0, 64, 59
2, 215546, Control_c, 0, 64, 60
2, 215562, Control_c, 0, 64, 60
2, 215577, Control_c, 0, 64, 61
2, 215577, Note_on_c, 0, 56, 0
2, 215739, Note_on_c, 0, 73, 67
2, 215761, Note_on_c, 0, 52, 56
2, 215763, Note_on_c, 0, 54, 0
2, 215798, Control_c, 0, 64, 60
2, 215962, Note_on_c, 0, 56, 50
2, 215980, Control_c, 0, 64, 61
2, 216026, Control_c, 0, 64, 61
2, 216191, Note_on_c, 0, 52, 0
2, 216204, Note_on_c, 0, 54, 52
2, 216206, Note_on_c, 0, 75, 76
2, 216221, Note_on_c, 0, 73, 0
2, 216252, Note_on_c, 0, 76, 0
2, 216420, Note_on_c, 0, 56, 0
2, 216420, Note_on_c, 0, 72, 0
2, 216422, Note_on_c, 0, 52, 59
2, 216451, Control_c, 0, 64, 62
2, 216451, Note_on_c, 0, 54, 0
2, 216647, Note_on_c, 0, 54, 53
2, 216647, Note_on_c, 0, 68, 0
2, 216653, Note_on_c, 0, 72, 62
2, 216733, Control_c, 0, 64, 61
2, 216852, Note_on_c, 0, 56, 56
2, 216861, Note_on_c, 0, 54, 0
2, 216876, Note_on_c, 0, 70, 62
2, 216901, Note_on_c, 0, 72, 0
2, 216915, Control_c, 0, 64, 61
2, 216991, Control_c, 0, 64, 60
2, 217096, Note_on_c, 0, 72, 73
2, 217100, Note_on_c, 0, 54, 62
2, 217104, Note_on_c, 0, 70, 0
2, 217106, Note_on_c, 0, 52, 0
2, 217248, Note_on_c, 0, 75, 0
2, 217293, Note_on_c, 0, 56, 0
2, 217311, Note_on_c, 0, 52, 64
2, 217333, Control_c, 0, 64, 60
2, 217379, Control_c, 0, 64, 59
2, 217394, Control_c, 0, 64, 59
2, 217424, Control_c, 0, 64, 58
2, 217456, Control_c, 0, 64, 58
2, 217544, Note_on_c, 0, 75, 78
2, 217546, Note_on_c, 0, 51, 60
2, 217553, Note_on_c, 0, 54, 0
2, 217609, Note_on_c, 0, 52, 0
2, 217670, Note_on_c, 0, 72, 0
2, 217761, Note_on_c, 0, 54, 62
2, 217851, Control_c, 0, 64, 58
2, 217972, Control_c, 0, 64, 59
2, 218022, Note_on_c, 0, 80, 76
2, 218023, Note_on_c, 0, 52, 63
2, 218127, Note_on_c, 0, 51, 0
2, 218147, Control_c, 0, 64, 59
2, 218208, Control_c, 0, 64, 60
2, 218224, Note_on_c, 0, 54, 0
2, 218235, Note_on_c, 0, 51, 66
2, 218255, Control_c, 0, 64, 60
2, 218258, Note_on_c, 0, 78, 74
2, 218282, Note_on_c, 0, 52, 0
2, 218288, Note_on_c, 0, 80, 0
2, 218376, Control_c, 0, 64, 60
2, 218391, Control_c, 0, 64, 59
2, 218406, Control_c, 0, 64, 59
2, 218436, Control_c, 0, 64, 58
2, 218452, Control_c, 0, 64, 57
2, 218465, Note_on_c, 0, 80, 75
2, 218467, Control_c, 0, 64, 57
2, 218474, Note_on_c, 0, 52, 59
2, 218482, Control_c, 0, 64, 56
2, 218527, Control_c, 0, 64, 55
2, 218576, Note_on_c, 0, 78, 0
2, 218683, Note_on_c, 0, 54, 67
2, 218683, Note_on_c, 0, 81, 80
2, 218691, Note_on_c, 0, 80, 0
2, 218729, Note_on_c, 0, 52, 0
2, 218755, Control_c, 0, 64, 56
2, 218775, Note_on_c, 0, 51, 0
2, 218802, Control_c, 0, 64, 56
2, 218839, Control_c, 0, 64, 57
2, 218900, Control_c, 0, 64, 57
2, 218919, Note_on_c, 0, 80, 78
2, 218921, Note_on_c, 0, 73, 73
2, 218928, Note_on_c, 0, 52, 68
2, 218956, Note_on_c, 0, 75, 0
2, 218976, Control_c, 0, 64, 56
2, 218977, Note_on_c, 0, 54, 0
2, 218991, Control_c, 0, 64, 54
2, 219007, Control_c, 0, 64, 51
2, 219021, Control_c, 0, 64, 47
2, 219036, Control_c, 0, 64, 41
2, 219052, Control_c, 0, 64, 27
2, 219068, Control_c, 0, 64, 0
2, 219136, Note_on_c, 0, 57, 61
2, 219144, Note_on_c, 0, 78, 76
2, 219172, Note_on_c, 0, 81, 0
2, 219361, Note_on_c, 0, 57, 0
2, 219364, Note_on_c, 0, 56, 57
2, 219374, Note_on_c, 0, 76, 69
2, 219399, Note_on_c, 0, 80, 0
2, 219446, Note_on_c, 0, 78, 0
2, 219566, Note_on_c, 0, 57, 62
2, 219586, Note_on_c, 0, 80, 79
2, 219632, Note_on_c, 0, 52, 0
2, 219780, Note_on_c, 0, 56, 0
2, 219802, Note_on_c, 0, 51, 64
2, 219805, Note_on_c, 0, 78, 75
2, 219852, Note_on_c, 0, 76, 0
2, 220029, Note_on_c, 0, 49, 56
2, 220031, Note_on_c, 0, 76, 70
2, 220089, Note_on_c, 0, 51, 0
2, 220094, Control_c, 0, 64, 19
2, 220109, Control_c, 0, 64, 33
2, 220110, Note_on_c, 0, 78, 0
2, 220125, Control_c, 0, 64, 44
2, 220140, Control_c, 0, 64, 50
2, 220142, Note_on_c, 0, 80, 0
2, 220155, Control_c, 0, 64, 54
2, 220170, Control_c, 0, 64, 56
2, 220185, Control_c, 0, 64, 57
2, 220201, Control_c, 0, 64, 58
2, 220215, Control_c, 0, 64, 58
2, 220230, Control_c, 0, 64, 59
2, 220235, Note_on_c, 0, 51, 65
2, 220241, Note_on_c, 0, 78, 74
2, 220261, Control_c, 0, 64, 59
2, 220276, Control_c, 0, 64, 60
2, 220306, Control_c, 0, 64, 60
2, 220337, Control_c, 0, 64, 61
2, 220361, Control_c, 0, 64, 61
2, 220375, Control_c, 0, 64, 62
2, 220390, Control_c, 0, 64, 63
2, 220406, Control_c, 0, 64, 64
2, 220432, Note_on_c, 0, 49, 0
2, 220435, Control_c, 0, 64, 64
2, 220457, Note_on_c, 0, 80, 77
2, 220458, Note_on_c, 0, 52, 63
2, 220486, Note_on_c, 0, 51, 0
2, 220511, Control_c, 0, 64, 65
2, 220534, Note_on_c, 0, 78, 0
2, 220587, Note_on_c, 0, 73, 0
2, 220588, Note_on_c, 0, 76, 0
2, 220618, Control_c, 0, 64, 65
2, 220649, Control_c, 0, 64, 64
2, 220664, Control_c, 0, 64, 61
2, 220676, Note_on_c, 0, 51, 70
2, 220680, Control_c, 0, 64, 54
2, 220685, Note_on_c, 0, 78, 72
2, 220692, Note_on_c, 0, 72, 67
2, 220695, Control_c, 0, 64, 31
2, 220710, Control_c, 0, 64, 0
2, 220750, Note_on_c, 0, 52, 0
2, 220878, Control_c, 0, 64, 8
2, 220893, Control_c, 0, 64, 47
2, 220905, Note_on_c, 0, 56, 65
2, 220908, Control_c, 0, 64, 59
2, 220909, Note_on_c, 0, 76, 78
2, 220924, Control_c, 0, 64, 64
2, 220938, Control_c, 0, 64, 67
2, 220949, Note_on_c, 0, 72, 0
2, 220953, Control_c, 0, 64, 70
2, 220969, Control_c, 0, 64, 74
2, 220983, Control_c, 0, 64, 77
2, 220999, Control_c, 0, 64, 79
2, 221014, Control_c, 0, 64, 81
2, 221018, Note_on_c, 0, 80, 0
2, 221021, Note_on_c, 0, 57, 0
2, 221029, Control_c, 0, 64, 82
2, 221045, Control_c, 0, 64, 83
2, 221059, Control_c, 0, 64, 84
2, 221074, Control_c, 0, 64, 84
2, 221086, Note_on_c, 0, 78, 0
2, 221090, Control_c, 0, 64, 85
2, 221129, Control_c, 0, 64, 81
2, 221136, Note_on_c, 0, 71, 74
2, 221137, Note_on_c, 0, 54, 69
2, 221143, Control_c, 0, 64, 74
2, 221146, Note_on_c, 0, 75, 80
2, 221159, Control_c, 0, 64, 64
2, 221160, Note_on_c, 0, 56, 0
2, 221174, Control_c, 0, 64, 33
2, 221174, Note_on_c, 0, 76, 0
2, 221189, Control_c, 0, 64, 0
2, 221250, Control_c, 0, 64, 28
2, 221265, Control_c, 0, 64, 45
2, 221280, Control_c, 0, 64, 56
2, 221295, Control_c, 0, 64, 62
2, 221310, Control_c, 0, 64, 66
2, 221326, Control_c, 0, 64, 70
2, 221341, Control_c, 0, 64, 75
2, 221355, Control_c, 0, 64, 81
2, 221356, Note_on_c, 0, 78, 84
2, 221371, Control_c, 0, 64, 87
2, 221371, Note_on_c, 0, 56, 63
2, 221386, Control_c, 0, 64, 91
2, 221401, Control_c, 0, 64, 94
2, 221416, Control_c, 0, 64, 95
2, 221431, Control_c, 0, 64, 94
2, 221447, Control_c, 0, 64, 94
2, 221468, Note_on_c, 0, 54, 0
2, 221524, Control_c, 0, 64, 93
2, 221554, Control_c, 0, 64, 93
2, 221570, Control_c, 0, 64, 89
2, 221584, Control_c, 0, 64, 81
2, 221587, Note_on_c, 0, 75, 0
2, 221600, Control_c, 0, 64, 71
2, 221615, Control_c, 0, 64, 58
2, 221615, Note_on_c, 0, 77, 80
2, 221620, Note_on_c, 0, 49, 77
2, 221630, Control_c, 0, 64, 0
2, 221658, Note_on_c, 0, 51, 0
2, 221667, Note_on_c, 0, 71, 0
2, 221679, Note_on_c, 0, 78, 0
2, 221756, Note_on_c, 0, 56, 0
2, 221768, Control_c, 0, 64, 48
2, 221782, Control_c, 0, 64, 62
2, 221798, Control_c, 0, 64, 69
2, 221813, Control_c, 0, 64, 77
2, 221827, Control_c, 0, 64, 86
2, 221843, Control_c, 0, 64, 97
2, 221847, Note_on_c, 0, 71, 66
2, 221858, Control_c, 0, 64, 110
2, 221881, Control_c, 0, 64, 114
2, 221896, Control_c, 0, 64, 113
2, 221911, Control_c, 0, 64, 112
2, 221958, Control_c, 0, 64, 114
2, 221973, Control_c, 0, 64, 115
2, 221987, Control_c, 0, 64, 116
2, 222018, Control_c, 0, 64, 113
2, 222032, Control_c, 0, 64, 101
2, 222048, Control_c, 0, 64, 87
2, 222063, Control_c, 0, 64, 72
2, 222079, Control_c, 0, 64, 55
2, 222084, Note_on_c, 0, 61, 83
2, 222087, Note_on_c, 0, 73, 68
2, 222094, Control_c, 0, 64, 0
2, 222150, Note_on_c, 0, 49, 0
2, 222154, Control_c, 0, 64, 46
2, 222169, Control_c, 0, 64, 59
2, 222184, Control_c, 0, 64, 66
2, 222200, Control_c, 0, 64, 74
2, 222215, Control_c, 0, 64, 88
2, 222230, Control_c, 0, 64, 105
2, 222245, Control_c, 0, 64, 127
2, 222294, Note_on_c, 0, 77, 0
2, 222299, Note_on_c, 0, 74, 71
2, 222333, Note_on_c, 0, 73, 0
2, 222504, Control_c, 0, 64, 121
2, 222520, Control_c, 0, 64, 101
2, 222535, Control_c, 0, 64, 82
2, 222541, Note_on_c, 0, 66, 86
2, 222550, Control_c, 0, 64, 66
2, 222556, Note_on_c, 0, 81, 67
2, 222566, Control_c, 0, 64, 20
2, 222575, Note_on_c, 0, 71, 0
2, 222575, Note_on_c, 0, 73, 57
2, 222577, Note_on_c, 0, 74, 0
2, 222581, Control_c, 0, 64, 0
2, 222642, Control_c, 0, 64, 48
2, 222664, Control_c, 0, 64, 63
2, 222679, Control_c, 0, 64, 71
2, 222682, Note_on_c, 0, 61, 0
2, 222694, Control_c, 0, 64, 82
2, 222709, Control_c, 0, 64, 100
2, 222725, Control_c, 0, 64, 127
2, 222795, Note_on_c, 0, 73, 0
2, 222798, Note_on_c, 0, 71, 65
2, 222819, Note_on_c, 0, 81, 0
2, 222911, Note_on_c, 0, 66, 0
2, 223000, Control_c, 0, 64, 111
2, 223010, Note_on_c, 0, 66, 86
2, 223014, Control_c, 0, 64, 95
2, 223029, Control_c, 0, 64, 83
2, 223030, Note_on_c, 0, 69, 72
2, 223045, Control_c, 0, 64, 74
2, 223060, Control_c, 0, 64, 67
2, 223075, Control_c, 0, 64, 66
2, 223090, Control_c, 0, 64, 68
2, 223105, Control_c, 0, 64, 70
2, 223121, Control_c, 0, 64, 75
2, 223136, Control_c, 0, 64, 80
2, 223151, Control_c, 0, 64, 87
2, 223153, Note_on_c, 0, 71, 0
2, 223168, Control_c, 0, 64, 98
2, 223183, Control_c, 0, 64, 108
2, 223198, Control_c, 0, 64, 112
2, 223213, Control_c, 0, 64, 112
2, 223228, Control_c, 0, 64, 111
2, 223235, Note_on_c, 0, 73, 68
2, 223259, Control_c, 0, 64, 112
2, 223273, Control_c, 0, 64, 115
2, 223283, Note_on_c, 0, 69, 0
2, 223289, Control_c, 0, 64, 117
2, 223298, Note_on_c, 0, 66, 0
2, 223304, Control_c, 0, 64, 117
2, 223334, Control_c, 0, 64, 118
2, 223349, Control_c, 0, 64, 124
2, 223365, Control_c, 0, 64, 127
2, 223448, Control_c, 0, 64, 108
2, 223454, Note_on_c, 0, 66, 84
2, 223463, Control_c, 0, 64, 93
2, 223466, Note_on_c, 0, 80, 69
2, 223478, Note_on_c, 0, 71, 60
2, 223479, Control_c, 0, 64, 75
2, 223494, Control_c, 0, 64, 59
2, 223509, Control_c, 0, 64, 0
2, 223556, Note_on_c, 0, 73, 0
2, 223569, Control_c, 0, 64, 33
2, 223584, Control_c, 0, 64, 55
2, 223599, Control_c, 0, 64, 64
2, 223614, Control_c, 0, 64, 70
2, 223629, Control_c, 0, 64, 79
2, 223645, Control_c, 0, 64, 90
2, 223660, Control_c, 0, 64, 104
2, 223672, Note_on_c, 0, 69, 57
2, 223675, Control_c, 0, 64, 119
2, 223691, Control_c, 0, 64, 117
2, 223706, Control_c, 0, 64, 115
2, 223722, Control_c, 0, 64, 114
2, 223745, Note_on_c, 0, 71, 0
2, 223767, Control_c, 0, 64, 115
2, 223782, Control_c, 0, 64, 116
2, 223812, Control_c, 0, 64, 118
2, 223827, Control_c, 0, 64, 124
2, 223843, Control_c, 0, 64, 127
2, 223872, Control_c, 0, 64, 114
2, 223888, Control_c, 0, 64, 98
2, 223897, Note_on_c, 0, 71, 50
2, 223903, Control_c, 0, 64, 80
2, 223906, Note_on_c, 0, 65, 66
2, 223919, Control_c, 0, 64, 66
2, 223933, Control_c, 0, 64, 39
2, 223948, Control_c, 0, 64, 0
2, 223995, Control_c, 0, 64, 37
2, 224011, Control_c, 0, 64, 53
2, 224026, Control_c, 0, 64, 61
2, 224031, Note_on_c, 0, 69, 0
2, 224041, Control_c, 0, 64, 65
2, 224056, Control_c, 0, 64, 69
2, 224071, Control_c, 0, 64, 75
2, 224086, Control_c, 0, 64, 80
2, 224100, Note_on_c, 0, 73, 62
2, 224101, Control_c, 0, 64, 86
2, 224105, Note_on_c, 0, 63, 69
2, 224106, Note_on_c, 0, 66, 0
2, 224116, Control_c, 0, 64, 89
2, 224132, Control_c, 0, 64, 91
2, 224147, Control_c, 0, 64, 92
2, 224155, Note_on_c, 0, 65, 0
2, 224162, Control_c, 0, 64, 91
2, 224177, Control_c, 0, 64, 91
2, 224191, Note_on_c, 0, 71, 0
2, 224201, Control_c, 0, 64, 90
2, 224216, Control_c, 0, 64, 90
2, 224231, Control_c, 0, 64, 88
2, 224246, Control_c, 0, 64, 87
2, 224261, Control_c, 0, 64, 84
2, 224276, Control_c, 0, 64, 81
2, 224291, Control_c, 0, 64, 78
2, 224306, Control_c, 0, 64, 74
2, 224322, Control_c, 0, 64, 69
2, 224337, Control_c, 0, 64, 64
2, 224352, Control_c, 0, 64, 61
2, 224360, Note_on_c, 0, 65, 69
2, 224367, Control_c, 0, 64, 60
2, 224371, Note_on_c, 0, 71, 53
2, 224409, Note_on_c, 0, 63, 0
2, 224436, Note_on_c, 0, 73, 0
2, 224520, Control_c, 0, 64, 60
2, 224535, Control_c, 0, 64, 61
2, 224549, Control_c, 0, 64, 61
2, 224575, Note_on_c, 0, 69, 55
2, 224716, Control_c, 0, 64, 62
2, 224720, Note_on_c, 0, 71, 0
2, 224763, Control_c, 0, 64, 62
2, 224818, Note_on_c, 0, 68, 62
2, 224843, Note_on_c, 0, 69, 0
2, 225023, Note_on_c, 0, 71, 52
2, 225242, Control_c, 0, 64, 62
2, 225271, Control_c, 0, 64, 61
2, 225296, Note_on_c, 0, 66, 56
2, 225297, Note_on_c, 0, 69, 47
2, 225314, Note_on_c, 0, 65, 0
2, 225333, Control_c, 0, 64, 61
2, 225342, Note_on_c, 0, 68, 0
2, 225347, Control_c, 0, 64, 60
2, 225361, Note_on_c, 0, 71, 0
2, 225363, Control_c, 0, 64, 59
2, 225378, Control_c, 0, 64, 57
2, 225393, Control_c, 0, 64, 53
2, 225409, Control_c, 0, 64, 47
2, 225424, Control_c, 0, 64, 38
2, 225440, Control_c, 0, 64, 28
2, 225455, Control_c, 0, 64, 24
2, 225469, Control_c, 0, 64, 23
2, 225545, Control_c, 0, 64, 24
2, 225576, Control_c, 0, 64, 25
2, 225591, Control_c, 0, 64, 31
2, 225607, Control_c, 0, 64, 33
2, 225623, Control_c, 0, 64, 35
2, 225638, Control_c, 0, 64, 37
2, 225653, Control_c, 0, 64, 40
2, 225668, Control_c, 0, 64, 43
2, 225684, Control_c, 0, 64, 47
2, 225699, Control_c, 0, 64, 51
2, 225721, Control_c, 0, 64, 54
2, 225736, Control_c, 0, 64, 57
2, 225751, Control_c, 0, 64, 61
2, 225751, Note_on_c, 0, 78, 57
2, 225752, Note_on_c, 0, 54, 48
2, 225767, Control_c, 0, 64, 64
2, 225782, Control_c, 0, 64, 67
2, 225798, Control_c, 0, 64, 70
2, 225813, Control_c, 0, 64, 74
2, 225827, Control_c, 0, 64, 80
2, 225844, Control_c, 0, 64, 86
2, 225858, Control_c, 0, 64, 91
2, 225873, Control_c, 0, 64, 96
2, 225889, Control_c, 0, 64, 101
2, 225904, Control_c, 0, 64, 103
2, 225920, Control_c, 0, 64, 104
2, 225935, Control_c, 0, 64, 105
2, 225950, Control_c, 0, 64, 105
2, 225961, Note_on_c, 0, 56, 60
2, 225961, Note_on_c, 0, 80, 0
2, 225964, Note_on_c, 0, 76, 66
2, 225966, Control_c, 0, 64, 106
2, 225980, Control_c, 0, 64, 108
2, 225991, Note_on_c, 0, 54, 0
2, 225995, Control_c, 0, 64, 111
2, 226009, Note_on_c, 0, 78, 0
2, 226011, Control_c, 0, 64, 113
2, 226026, Control_c, 0, 64, 115
2, 226041, Note_on_c, 0, 76, 0
2, 226042, Control_c, 0, 64, 116
2, 226056, Control_c, 0, 64, 118
2, 226071, Control_c, 0, 64, 121
2, 226087, Control_c, 0, 64, 127
2, 226163, Control_c, 0, 64, 110
2, 226178, Control_c, 0, 64, 95
2, 226192, Control_c, 0, 64, 80
2, 226201, Note_on_c, 0, 74, 66
2, 226204, Note_on_c, 0, 54, 58
2, 226204, Note_on_c, 0, 57, 55
2, 226208, Control_c, 0, 64, 63
2, 226223, Control_c, 0, 64, 0
2, 226244, Note_on_c, 0, 56, 0
2, 226375, Control_c, 0, 64, 45
2, 226390, Control_c, 0, 64, 57
2, 226400, Note_on_c, 0, 73, 71
2, 226406, Control_c, 0, 64, 62
2, 226421, Control_c, 0, 64, 65
2, 226436, Control_c, 0, 64, 66
2, 226452, Control_c, 0, 64, 68
2, 226467, Control_c, 0, 64, 70
2, 226483, Control_c, 0, 64, 73
2, 226505, Control_c, 0, 64, 75
2, 226521, Control_c, 0, 64, 78
2, 226536, Control_c, 0, 64, 80
2, 226550, Control_c, 0, 64, 81
2, 226617, Note_on_c, 0, 59, 72
2, 226621, Note_on_c, 0, 66, 0
2, 226621, Note_on_c, 0, 71, 73
2, 226687, Note_on_c, 0, 69, 0
2, 226816, Note_on_c, 0, 69, 68
2, 226834, Note_on_c, 0, 73, 0
2, 226857, Note_on_c, 0, 71, 0
2, 226989, Control_c, 0, 64, 79
2, 227005, Control_c, 0, 64, 75
2, 227020, Control_c, 0, 64, 67
2, 227035, Control_c, 0, 64, 46
2, 227045, Note_on_c, 0, 61, 61
2, 227049, Note_on_c, 0, 53, 58
2, 227051, Control_c, 0, 64, 0
2, 227051, Note_on_c, 0, 68, 78
2, 227100, Note_on_c, 0, 59, 0
2, 227109, Note_on_c, 0, 69, 0
2, 227113, Note_on_c, 0, 54, 0
2, 227188, Note_on_c, 0, 74, 0
2, 227227, Note_on_c, 0, 57, 0
2, 227248, Control_c, 0, 64, 21
2, 227271, Control_c, 0, 64, 52
2, 227280, Note_on_c, 0, 59, 62
2, 227287, Control_c, 0, 64, 61
2, 227302, Control_c, 0, 64, 64
2, 227309, Note_on_c, 0, 61, 0
2, 227318, Control_c, 0, 64, 66
2, 227333, Control_c, 0, 64, 67
2, 227347, Control_c, 0, 64, 68
2, 227363, Control_c, 0, 64, 68
2, 227393, Control_c, 0, 64, 69
2, 227509, Note_on_c, 0, 73, 81
2, 227514, Note_on_c, 0, 61, 63
2, 227590, Control_c, 0, 64, 69
2, 227621, Control_c, 0, 64, 70
2, 227644, Note_on_c, 0, 61, 0
2, 227652, Control_c, 0, 64, 70
2, 227666, Control_c, 0, 64, 71
2, 227682, Control_c, 0, 64, 71
2, 227697, Control_c, 0, 64, 72
2, 227707, Note_on_c, 0, 59, 0
2, 227712, Control_c, 0, 64, 72
2, 227716, Note_on_c, 0, 62, 59
2, 227742, Control_c, 0, 64, 73
2, 227849, Control_c, 0, 64, 73
2, 227895, Control_c, 0, 64, 73
2, 227909, Control_c, 0, 64, 71
2, 227925, Control_c, 0, 64, 67
2, 227940, Control_c, 0, 64, 58
2, 227955, Control_c, 0, 64, 0
2, 227960, Note_on_c, 0, 78, 85
2, 227965, Note_on_c, 0, 57, 57
2, 227965, Note_on_c, 0, 61, 57
2, 228013, Note_on_c, 0, 62, 0
2, 228013, Note_on_c, 0, 73, 0
2, 228045, Note_on_c, 0, 53, 0
2, 228115, Control_c, 0, 64, 28
2, 228131, Control_c, 0, 64, 57
2, 228146, Control_c, 0, 64, 65
2, 228161, Control_c, 0, 64, 69
2, 228176, Control_c, 0, 64, 73
2, 228190, Note_on_c, 0, 59, 64
2, 228191, Control_c, 0, 64, 76
2, 228198, Note_on_c, 0, 57, 0
2, 228207, Control_c, 0, 64, 79
2, 228222, Control_c, 0, 64, 80
2, 228232, Note_on_c, 0, 60, 15
2, 228233, Note_on_c, 0, 60, 0
2, 228236, Control_c, 0, 64, 80
2, 228272, Note_on_c, 0, 61, 0
2, 228318, Note_on_c, 0, 78, 0
2, 228409, Note_on_c, 0, 78, 83
2, 228416, Note_on_c, 0, 57, 60
2, 228457, Note_on_c, 0, 59, 0
2, 228604, Note_on_c, 0, 61, 61
2, 228753, Control_c, 0, 64, 81
2, 228753, Note_on_c, 0, 78, 0
2, 228784, Control_c, 0, 64, 81
2, 228838, Control_c, 0, 64, 78
2, 228852, Control_c, 0, 64, 72
2, 228858, Note_on_c, 0, 78, 78
2, 228860, Note_on_c, 0, 59, 53
2, 228867, Control_c, 0, 64, 61
2, 228883, Control_c, 0, 64, 0
2, 228885, Note_on_c, 0, 56, 54
2, 228895, Note_on_c, 0, 57, 0
2, 228907, Note_on_c, 0, 61, 0
2, 229004, Note_on_c, 0, 68, 0
2, 229005, Control_c, 0, 64, 27
2, 229020, Control_c, 0, 64, 52
2, 229035, Control_c, 0, 64, 62
2, 229051, Control_c, 0, 64, 65
2, 229066, Control_c, 0, 64, 67
2, 229070, Note_on_c, 0, 57, 59
2, 229081, Control_c, 0, 64, 69
2, 229086, Note_on_c, 0, 59, 0
2, 229096, Control_c, 0, 64, 71
2, 229111, Control_c, 0, 64, 74
2, 229127, Control_c, 0, 64, 75
2, 229142, Control_c, 0, 64, 76
2, 229158, Control_c, 0, 64, 77
2, 229218, Control_c, 0, 64, 77
2, 229233, Control_c, 0, 64, 78
2, 229249, Control_c, 0, 64, 79
2, 229279, Control_c, 0, 64, 75
2, 229294, Control_c, 0, 64, 69
2, 229300, Note_on_c, 0, 76, 72
2, 229301, Note_on_c, 0, 59, 62
2, 229309, Control_c, 0, 64, 58
2, 229325, Control_c, 0, 64, 0
2, 229385, Control_c, 0, 64, 16
2, 229401, Control_c, 0, 64, 44
2, 229415, Control_c, 0, 64, 56
2, 229430, Control_c, 0, 64, 63
2, 229446, Control_c, 0, 64, 67
2, 229461, Control_c, 0, 64, 72
2, 229476, Control_c, 0, 64, 77
2, 229491, Control_c, 0, 64, 82
2, 229506, Control_c, 0, 64, 86
2, 229507, Note_on_c, 0, 61, 59
2, 229512, Note_on_c, 0, 74, 71
2, 229516, Note_on_c, 0, 59, 0
2, 229522, Control_c, 0, 64, 88
2, 229536, Control_c, 0, 64, 90
2, 229549, Note_on_c, 0, 76, 0
2, 229551, Control_c, 0, 64, 91
2, 229579, Note_on_c, 0, 78, 0
2, 229682, Control_c, 0, 64, 90
2, 229696, Control_c, 0, 64, 85
2, 229709, Note_on_c, 0, 57, 0
2, 229711, Control_c, 0, 64, 76
2, 229728, Control_c, 0, 64, 64
2, 229732, Note_on_c, 0, 76, 69
2, 229742, Note_on_c, 0, 59, 59
2, 229743, Control_c, 0, 64, 21
2, 229759, Control_c, 0, 64, 0
2, 229788, Note_on_c, 0, 61, 0
2, 229845, Note_on_c, 0, 74, 0
2, 229864, Control_c, 0, 64, 12
2, 229880, Control_c, 0, 64, 50
2, 229895, Control_c, 0, 64, 59
2, 229910, Control_c, 0, 64, 63
2, 229925, Control_c, 0, 64, 66
2, 229940, Control_c, 0, 64, 68
2, 229944, Note_on_c, 0, 57, 58
2, 229955, Control_c, 0, 64, 71
2, 229971, Control_c, 0, 64, 74
2, 229985, Note_on_c, 0, 56, 0
2, 229986, Control_c, 0, 64, 77
2, 229991, Note_on_c, 0, 59, 0
2, 230001, Control_c, 0, 64, 80
2, 230016, Control_c, 0, 64, 82
2, 230031, Control_c, 0, 64, 83
2, 230123, Control_c, 0, 64, 81
2, 230138, Control_c, 0, 64, 77
2, 230153, Control_c, 0, 64, 73
2, 230169, Control_c, 0, 64, 67
2, 230175, Note_on_c, 0, 56, 68
2, 230183, Control_c, 0, 64, 61
2, 230199, Control_c, 0, 64, 56
2, 230206, Note_on_c, 0, 57, 0
2, 230229, Control_c, 0, 64, 57
2, 230245, Control_c, 0, 64, 59
2, 230259, Control_c, 0, 64, 61
2, 230274, Control_c, 0, 64, 62
2, 230290, Control_c, 0, 64, 64
2, 230305, Control_c, 0, 64, 65
2, 230321, Control_c, 0, 64, 66
2, 230341, Control_c, 0, 64, 68
2, 230356, Control_c, 0, 64, 70
2, 230372, Control_c, 0, 64, 72
2, 230382, Note_on_c, 0, 59, 65
2, 230386, Control_c, 0, 64, 73
2, 230401, Control_c, 0, 64, 74
2, 230523, Control_c, 0, 64, 74
2, 230540, Control_c, 0, 64, 71
2, 230555, Control_c, 0, 64, 67
2, 230570, Control_c, 0, 64, 59
2, 230585, Control_c, 0, 64, 28
2, 230586, Note_on_c, 0, 59, 0
2, 230600, Control_c, 0, 64, 0
2, 230605, Note_on_c, 0, 57, 54
2, 230614, Note_on_c, 0, 56, 0
2, 230624, Note_on_c, 0, 54, 55
2, 230721, Control_c, 0, 64, 28
2, 230737, Control_c, 0, 64, 50
2, 230752, Control_c, 0, 64, 58
2, 230767, Control_c, 0, 64, 62
2, 230782, Control_c, 0, 64, 64
2, 230797, Control_c, 0, 64, 65
2, 230812, Control_c, 0, 64, 67
2, 230815, Note_on_c, 0, 56, 60
2, 230827, Control_c, 0, 64, 69
2, 230842, Control_c, 0, 64, 70
2, 230858, Control_c, 0, 64, 72
2, 230873, Control_c, 0, 64, 72
2, 230876, Note_on_c, 0, 57, 0
2, 230919, Control_c, 0, 64, 73
2, 231011, Control_c, 0, 64, 73
2, 231050, Note_on_c, 0, 56, 0
2, 231062, Note_on_c, 0, 74, 72
2, 231072, Note_on_c, 0, 57, 59
2, 231256, Note_on_c, 0, 57, 0
2, 231278, Note_on_c, 0, 59, 58
2, 231279, Note_on_c, 0, 73, 71
2, 231327, Note_on_c, 0, 74, 0
2, 231342, Note_on_c, 0, 76, 0
2, 231505, Control_c, 0, 64, 73
2, 231520, Control_c, 0, 64, 70
2, 231529, Note_on_c, 0, 69, 82
2, 231535, Control_c, 0, 64, 65
2, 231540, Note_on_c, 0, 74, 65
2, 231550, Control_c, 0, 64, 54
2, 231551, Note_on_c, 0, 57, 53
2, 231551, Note_on_c, 0, 59, 0
2, 231566, Control_c, 0, 64, 0
2, 231613, Note_on_c, 0, 73, 0
2, 231737, Note_on_c, 0, 57, 0
2, 231747, Control_c, 0, 64, 14
2, 231756, Note_on_c, 0, 59, 68
2, 231762, Control_c, 0, 64, 50
2, 231778, Control_c, 0, 64, 59
2, 231793, Control_c, 0, 64, 63
2, 231809, Control_c, 0, 64, 65
2, 231824, Control_c, 0, 64, 67
2, 231839, Control_c, 0, 64, 69
2, 231855, Control_c, 0, 64, 70
2, 231876, Control_c, 0, 64, 72
2, 231892, Control_c, 0, 64, 73
2, 231964, Note_on_c, 0, 61, 71
2, 231985, Note_on_c, 0, 59, 0
2, 232170, Note_on_c, 0, 62, 62
2, 232216, Note_on_c, 0, 61, 0
2, 232258, Control_c, 0, 64, 73
2, 232364, Control_c, 0, 64, 74
2, 232394, Control_c, 0, 64, 72
2, 232410, Control_c, 0, 64, 68
2, 232425, Control_c, 0, 64, 61
2, 232435, Note_on_c, 0, 68, 81
2, 232440, Control_c, 0, 64, 30
2, 232446, Note_on_c, 0, 64, 61
2, 232455, Control_c, 0, 64, 0
2, 232488, Note_on_c, 0, 62, 0
2, 232527, Note_on_c, 0, 69, 0
2, 232576, Control_c, 0, 64, 51
2, 232591, Control_c, 0, 64, 63
2, 232607, Control_c, 0, 64, 68
2, 232615, Note_on_c, 0, 64, 0
2, 232622, Control_c, 0, 64, 73
2, 232644, Control_c, 0, 64, 79
2, 232651, Note_on_c, 0, 62, 53
2, 232660, Control_c, 0, 64, 83
2, 232675, Control_c, 0, 64, 86
2, 232687, Note_on_c, 0, 54, 0
2, 232691, Control_c, 0, 64, 88
2, 232706, Control_c, 0, 64, 88
2, 232783, Control_c, 0, 64, 89
2, 232828, Control_c, 0, 64, 89
2, 232842, Control_c, 0, 64, 90
2, 232858, Control_c, 0, 64, 91
2, 232873, Control_c, 0, 64, 90
2, 232889, Control_c, 0, 64, 84
2, 232895, Note_on_c, 0, 64, 75
2, 232903, Note_on_c, 0, 52, 70
2, 232904, Control_c, 0, 64, 73
2, 232918, Control_c, 0, 64, 59
2, 232934, Control_c, 0, 64, 0
2, 233026, Control_c, 0, 64, 30
2, 233041, Control_c, 0, 64, 56
2, 233057, Control_c, 0, 64, 64
2, 233057, Note_on_c, 0, 74, 0
2, 233071, Control_c, 0, 64, 67
2, 233087, Control_c, 0, 64, 71
2, 233102, Control_c, 0, 64, 74
2, 233117, Control_c, 0, 64, 77
2, 233123, Note_on_c, 0, 66, 68
2, 233133, Control_c, 0, 64, 79
2, 233148, Control_c, 0, 64, 80
2, 233193, Control_c, 0, 64, 81
2, 233222, Note_on_c, 0, 64, 0
2, 233255, Control_c, 0, 64, 81
2, 233284, Control_c, 0, 64, 80
2, 233300, Control_c, 0, 64, 75
2, 233315, Control_c, 0, 64, 68
2, 233331, Control_c, 0, 64, 51
2, 233345, Control_c, 0, 64, 0
2, 233345, Note_on_c, 0, 57, 80
2, 233371, Note_on_c, 0, 73, 66
2, 233379, Note_on_c, 0, 66, 0
2, 233383, Note_on_c, 0, 62, 0
2, 233390, Note_on_c, 0, 64, 39
2, 233417, Note_on_c, 0, 68, 0
2, 233474, Control_c, 0, 64, 33
2, 233490, Control_c, 0, 64, 59
2, 233505, Control_c, 0, 64, 67
2, 233520, Control_c, 0, 64, 74
2, 233527, Note_on_c, 0, 52, 0
2, 233536, Control_c, 0, 64, 82
2, 233551, Control_c, 0, 64, 91
2, 233566, Control_c, 0, 64, 102
2, 233581, Control_c, 0, 64, 107
2, 233595, Note_on_c, 0, 57, 0
2, 233597, Note_on_c, 0, 62, 54
2, 233612, Control_c, 0, 64, 106
2, 233627, Control_c, 0, 64, 106
2, 233687, Control_c, 0, 64, 106
2, 233702, Control_c, 0, 64, 107
2, 233710, Note_on_c, 0, 64, 0
2, 233717, Control_c, 0, 64, 109
2, 233733, Control_c, 0, 64, 111
2, 233748, Control_c, 0, 64, 113
2, 233750, Note_on_c, 0, 62, 0
2, 233762, Control_c, 0, 64, 112
2, 233778, Control_c, 0, 64, 104
2, 233793, Control_c, 0, 64, 91
2, 233807, Note_on_c, 0, 57, 69
2, 233810, Control_c, 0, 64, 77
2, 233817, Note_on_c, 0, 61, 72
2, 233825, Control_c, 0, 64, 64
2, 233840, Control_c, 0, 64, 36
2, 233856, Control_c, 0, 64, 16
2, 233870, Control_c, 0, 64, 19
2, 233886, Control_c, 0, 64, 37
2, 233901, Control_c, 0, 64, 51
2, 233915, Control_c, 0, 64, 59
2, 233931, Control_c, 0, 64, 65
2, 233946, Control_c, 0, 64, 70
2, 233961, Control_c, 0, 64, 78
2, 233977, Control_c, 0, 64, 88
2, 233991, Control_c, 0, 64, 98
2, 234007, Control_c, 0, 64, 106
2, 234016, Note_on_c, 0, 64, 72
2, 234022, Control_c, 0, 64, 107
2, 234037, Control_c, 0, 64, 106
2, 234053, Control_c, 0, 64, 105
2, 234119, Note_on_c, 0, 64, 0
2, 234133, Note_on_c, 0, 57, 0
2, 234196, Control_c, 0, 64, 106
2, 234212, Control_c, 0, 64, 106
2, 234227, Control_c, 0, 64, 107
2, 234258, Control_c, 0, 64, 106
2, 234273, Control_c, 0, 64, 100
2, 234288, Control_c, 0, 64, 87
2, 234300, Note_on_c, 0, 78, 81
2, 234303, Control_c, 0, 64, 74
2, 234309, Note_on_c, 0, 71, 72
2, 234318, Control_c, 0, 64, 58
2, 234321, Note_on_c, 0, 62, 54
2, 234333, Control_c, 0, 64, 0
2, 234335, Note_on_c, 0, 57, 58
2, 234376, Note_on_c, 0, 61, 0
2, 234409, Control_c, 0, 64, 15
2, 234417, Note_on_c, 0, 73, 0
2, 234424, Control_c, 0, 64, 51
2, 234439, Control_c, 0, 64, 62
2, 234455, Control_c, 0, 64, 66
2, 234470, Control_c, 0, 64, 71
2, 234484, Control_c, 0, 64, 76
2, 234500, Control_c, 0, 64, 80
2, 234512, Note_on_c, 0, 61, 61
2, 234512, Note_on_c, 0, 62, 0
2, 234515, Control_c, 0, 64, 82
2, 234530, Control_c, 0, 64, 83
2, 234591, Control_c, 0, 64, 83
2, 234607, Control_c, 0, 64, 84
2, 234622, Control_c, 0, 64, 84
2, 234637, Control_c, 0, 64, 85
2, 234653, Control_c, 0, 64, 85
2, 234668, Control_c, 0, 64, 86
2, 234683, Control_c, 0, 64, 86
2, 234699, Control_c, 0, 64, 83
2, 234713, Control_c, 0, 64, 75
2, 234729, Control_c, 0, 64, 66
2, 234740, Note_on_c, 0, 62, 62
2, 234744, Control_c, 0, 64, 50
2, 234751, Note_on_c, 0, 56, 59
2, 234759, Control_c, 0, 64, 28
2, 234775, Control_c, 0, 64, 27
2, 234789, Control_c, 0, 64, 31
2, 234804, Control_c, 0, 64, 43
2, 234820, Control_c, 0, 64, 53
2, 234835, Control_c, 0, 64, 59
2, 234840, Note_on_c, 0, 62, 0
2, 234851, Control_c, 0, 64, 63
2, 234866, Control_c, 0, 64, 66
2, 234881, Control_c, 0, 64, 69
2, 234897, Control_c, 0, 64, 73
2, 234911, Control_c, 0, 64, 77
2, 234927, Control_c, 0, 64, 79
2, 234954, Note_on_c, 0, 64, 72
2, 234960, Note_on_c, 0, 54, 66
2, 235002, Note_on_c, 0, 56, 0
2, 235026, Note_on_c, 0, 61, 0
2, 235026, Note_on_c, 0, 64, 0
2, 235049, Note_on_c, 0, 57, 0
2, 235071, Control_c, 0, 64, 78
2, 235132, Control_c, 0, 64, 78
2, 235147, Control_c, 0, 64, 76
2, 235162, Control_c, 0, 64, 71
2, 235177, Control_c, 0, 64, 64
2, 235192, Control_c, 0, 64, 47
2, 235202, Note_on_c, 0, 62, 49
2, 235207, Note_on_c, 0, 76, 70
2, 235208, Control_c, 0, 64, 0
2, 235215, Note_on_c, 0, 56, 58
2, 235251, Note_on_c, 0, 54, 0
2, 235404, Control_c, 0, 64, 46
2, 235406, Note_on_c, 0, 61, 62
2, 235420, Control_c, 0, 64, 57
2, 235435, Control_c, 0, 64, 61
2, 235452, Control_c, 0, 64, 63
2, 235466, Note_on_c, 0, 62, 0
2, 235467, Control_c, 0, 64, 64
2, 235481, Control_c, 0, 64, 64
2, 235497, Control_c, 0, 64, 65
2, 235512, Control_c, 0, 64, 65
2, 235543, Control_c, 0, 64, 66
2, 235573, Control_c, 0, 64, 66
2, 235588, Control_c, 0, 64, 67
2, 235631, Note_on_c, 0, 59, 65
2, 235649, Control_c, 0, 64, 67
2, 235668, Note_on_c, 0, 61, 0
2, 235851, Note_on_c, 0, 62, 47
2, 236007, Control_c, 0, 64, 67
2, 236021, Control_c, 0, 64, 66
2, 236036, Control_c, 0, 64, 64
2, 236052, Control_c, 0, 64, 58
2, 236067, Control_c, 0, 64, 42
2, 236081, Note_on_c, 0, 57, 63
2, 236082, Control_c, 0, 64, 0
2, 236087, Note_on_c, 0, 61, 71
2, 236101, Note_on_c, 0, 62, 0
2, 236106, Note_on_c, 0, 56, 0
2, 236148, Note_on_c, 0, 59, 0
2, 236279, Note_on_c, 0, 59, 66
2, 236296, Control_c, 0, 64, 46
2, 236303, Note_on_c, 0, 61, 0
2, 236311, Control_c, 0, 64, 59
2, 236326, Control_c, 0, 64, 63
2, 236333, Note_on_c, 0, 78, 0
2, 236341, Control_c, 0, 64, 65
2, 236356, Control_c, 0, 64, 66
2, 236371, Control_c, 0, 64, 67
2, 236386, Control_c, 0, 64, 68
2, 236401, Control_c, 0, 64, 69
2, 236417, Control_c, 0, 64, 69
2, 236444, Note_on_c, 0, 76, 0
2, 236447, Control_c, 0, 64, 70
2, 236501, Control_c, 0, 64, 70
2, 236523, Note_on_c, 0, 64, 80
2, 236540, Note_on_c, 0, 61, 58
2, 236623, Control_c, 0, 64, 71
2, 236698, Note_on_c, 0, 64, 0
2, 236714, Control_c, 0, 64, 71
2, 236716, Note_on_c, 0, 61, 0
2, 236720, Note_on_c, 0, 62, 57
2, 236729, Control_c, 0, 64, 72
2, 236731, Note_on_c, 0, 78, 81
2, 236759, Control_c, 0, 64, 73
2, 236775, Control_c, 0, 64, 73
2, 236789, Control_c, 0, 64, 74
2, 236804, Control_c, 0, 64, 75
2, 236820, Control_c, 0, 64, 75
2, 236851, Control_c, 0, 64, 76
2, 236866, Control_c, 0, 64, 77
2, 236880, Control_c, 0, 64, 77
2, 236896, Control_c, 0, 64, 78
2, 236911, Control_c, 0, 64, 77
2, 236927, Control_c, 0, 64, 73
2, 236942, Control_c, 0, 64, 65
2, 236948, Note_on_c, 0, 59, 0
2, 236957, Control_c, 0, 64, 37
2, 236967, Note_on_c, 0, 69, 71
2, 236970, Note_on_c, 0, 61, 60
2, 236973, Control_c, 0, 64, 0
2, 236974, Note_on_c, 0, 76, 74
2, 236980, Note_on_c, 0, 54, 59
2, 237081, Note_on_c, 0, 57, 0
2, 237086, Note_on_c, 0, 71, 0
2, 237171, Control_c, 0, 64, 44
2, 237186, Control_c, 0, 64, 57
2, 237198, Note_on_c, 0, 74, 80
2, 237199, Note_on_c, 0, 59, 67
2, 237201, Control_c, 0, 64, 62
2, 237213, Note_on_c, 0, 62, 0
2, 237216, Control_c, 0, 64, 64
2, 237223, Note_on_c, 0, 69, 0
2, 237238, Control_c, 0, 64, 66
2, 237252, Note_on_c, 0, 76, 0
2, 237254, Control_c, 0, 64, 67
2, 237254, Note_on_c, 0, 61, 0
2, 237260, Note_on_c, 0, 78, 0
2, 237269, Control_c, 0, 64, 68
2, 237284, Control_c, 0, 64, 69
2, 237300, Control_c, 0, 64, 70
2, 237315, Control_c, 0, 64, 71
2, 237331, Control_c, 0, 64, 72
2, 237346, Control_c, 0, 64, 72
2, 237376, Control_c, 0, 64, 73
2, 237391, Control_c, 0, 64, 73
2, 237394, Note_on_c, 0, 57, 64
2, 237407, Control_c, 0, 64, 74
2, 237412, Note_on_c, 0, 69, 79
2, 237415, Note_on_c, 0, 73, 80
2, 237421, Control_c, 0, 64, 74
2, 237425, Note_on_c, 0, 59, 0
2, 237436, Control_c, 0, 64, 75
2, 237459, Note_on_c, 0, 74, 0
2, 237528, Control_c, 0, 64, 75
2, 237557, Control_c, 0, 64, 76
2, 237588, Control_c, 0, 64, 76
2, 237595, Note_on_c, 0, 61, 67
2, 237603, Control_c, 0, 64, 77
2, 237610, Note_on_c, 0, 57, 0
2, 237619, Control_c, 0, 64, 77
2, 237624, Note_on_c, 0, 61, 0
2, 237633, Control_c, 0, 64, 78
2, 237637, Note_on_c, 0, 76, 77
2, 237649, Control_c, 0, 64, 78
2, 237650, Note_on_c, 0, 54, 0
2, 237664, Control_c, 0, 64, 79
2, 237678, Note_on_c, 0, 69, 0
2, 237728, Note_on_c, 0, 73, 0
2, 237801, Control_c, 0, 64, 79
2, 237847, Control_c, 0, 64, 78
2, 237862, Control_c, 0, 64, 74
2, 237877, Control_c, 0, 64, 67
2, 237879, Note_on_c, 0, 74, 80
2, 237890, Note_on_c, 0, 69, 68
2, 237893, Control_c, 0, 64, 52
2, 237897, Note_on_c, 0, 47, 63
2, 237902, Note_on_c, 0, 59, 62
2, 237908, Control_c, 0, 64, 0
2, 237999, Note_on_c, 0, 76, 0
2, 238126, Note_on_c, 0, 73, 77
2, 238174, Control_c, 0, 64, 20
2, 238180, Note_on_c, 0, 74, 0
2, 238188, Control_c, 0, 64, 31
2, 238203, Control_c, 0, 64, 39
2, 238219, Control_c, 0, 64, 44
2, 238234, Control_c, 0, 64, 50
2, 238250, Control_c, 0, 64, 53
2, 238264, Control_c, 0, 64, 55
2, 238279, Control_c, 0, 64, 56
2, 238295, Control_c, 0, 64, 57
2, 238310, Control_c, 0, 64, 57
2, 238326, Control_c, 0, 64, 58
2, 238333, Note_on_c, 0, 74, 72
2, 238339, Note_on_c, 0, 68, 66
2, 238340, Control_c, 0, 64, 59
2, 238399, Note_on_c, 0, 69, 0
2, 238473, Note_on_c, 0, 73, 0
2, 238476, Control_c, 0, 64, 59
2, 238537, Note_on_c, 0, 76, 70
2, 238538, Control_c, 0, 64, 60
2, 238541, Note_on_c, 0, 68, 0
2, 238544, Note_on_c, 0, 66, 57
2, 238627, Note_on_c, 0, 74, 0
2, 238644, Control_c, 0, 64, 60
2, 238705, Control_c, 0, 64, 59
2, 238721, Control_c, 0, 64, 55
2, 238737, Control_c, 0, 64, 49
2, 238752, Control_c, 0, 64, 39
2, 238768, Control_c, 0, 64, 0
2, 238771, Note_on_c, 0, 52, 57
2, 238781, Note_on_c, 0, 68, 61
2, 238785, Note_on_c, 0, 74, 63
2, 238823, Note_on_c, 0, 47, 0
2, 238855, Note_on_c, 0, 66, 0
2, 238896, Note_on_c, 0, 76, 0
2, 238972, Control_c, 0, 64, 43
2, 238978, Note_on_c, 0, 74, 0
2, 238984, Note_on_c, 0, 73, 67
2, 238986, Control_c, 0, 64, 55
2, 239001, Control_c, 0, 64, 60
2, 239017, Control_c, 0, 64, 62
2, 239031, Control_c, 0, 64, 63
2, 239047, Control_c, 0, 64, 64
2, 239062, Control_c, 0, 64, 64
2, 239077, Control_c, 0, 64, 65
2, 239093, Control_c, 0, 64, 66
2, 239107, Control_c, 0, 64, 67
2, 239122, Control_c, 0, 64, 68
2, 239138, Control_c, 0, 64, 69
2, 239153, Control_c, 0, 64, 69
2, 239169, Control_c, 0, 64, 70
2, 239183, Control_c, 0, 64, 70
2, 239203, Note_on_c, 0, 71, 69
2, 239214, Control_c, 0, 64, 71
2, 239241, Note_on_c, 0, 73, 0
2, 239263, Note_on_c, 0, 59, 0
2, 239274, Control_c, 0, 64, 71
2, 239412, Control_c, 0, 64, 72
2, 239413, Note_on_c, 0, 74, 73
2, 239441, Control_c, 0, 64, 72
2, 239472, Control_c, 0, 64, 73
2, 239532, Note_on_c, 0, 71, 0
2, 239533, Control_c, 0, 64, 73
2, 239572, Control_c, 0, 64, 74
2, 239587, Control_c, 0, 64, 74
2, 239618, Control_c, 0, 64, 72
2, 239634, Control_c, 0, 64, 67
2, 239650, Control_c, 0, 64, 54
2, 239666, Control_c, 0, 64, 0
2, 239669, Note_on_c, 0, 73, 83
2, 239677, Note_on_c, 0, 57, 43
2, 239680, Note_on_c, 0, 45, 52
2, 239702, Note_on_c, 0, 52, 0
2, 239711, Note_on_c, 0, 74, 0
2, 239803, Control_c, 0, 64, 34
2, 239818, Control_c, 0, 64, 56
2, 239833, Control_c, 0, 64, 63
2, 239849, Control_c, 0, 64, 66
2, 239864, Control_c, 0, 64, 69
2, 239879, Control_c, 0, 64, 71
2, 239889, Note_on_c, 0, 56, 57
2, 239894, Control_c, 0, 64, 73
2, 239909, Control_c, 0, 64, 74
2, 239917, Note_on_c, 0, 57, 0
2, 240102, Note_on_c, 0, 68, 0
2, 240109, Note_on_c, 0, 54, 60
2, 240111, Note_on_c, 0, 61, 59
2, 240121, Note_on_c, 0, 56, 0
2, 240197, Control_c, 0, 64, 73
2, 240292, Note_on_c, 0, 54, 0
2, 240323, Note_on_c, 0, 52, 64
2, 240326, Note_on_c, 0, 63, 69
2, 240377, Note_on_c, 0, 61, 0
2, 240540, Control_c, 0, 64, 72
2, 240549, Note_on_c, 0, 64, 67
2, 240554, Control_c, 0, 64, 70
2, 240557, Note_on_c, 0, 51, 65
2, 240570, Control_c, 0, 64, 64
2, 240585, Control_c, 0, 64, 38
2, 240601, Control_c, 0, 64, 0
2, 240627, Note_on_c, 0, 52, 0
2, 240628, Note_on_c, 0, 63, 0
2, 240752, Note_on_c, 0, 49, 63
2, 240807, Note_on_c, 0, 51, 0
2, 240995, Note_on_c, 0, 66, 73
2, 241003, Note_on_c, 0, 48, 59
2, 241039, Note_on_c, 0, 49, 0
2, 241099, Note_on_c, 0, 64, 0
2, 241191, Note_on_c, 0, 73, 0
2, 241214, Note_on_c, 0, 49, 65
2, 241258, Note_on_c, 0, 45, 0
2, 241276, Note_on_c, 0, 48, 0
2, 241452, Note_on_c, 0, 72, 80
2, 241465, Note_on_c, 0, 68, 72
2, 241466, Note_on_c, 0, 51, 75
2, 241472, Note_on_c, 0, 44, 70
2, 241521, Note_on_c, 0, 49, 0
2, 241527, Note_on_c, 0, 66, 0
2, 241672, Control_c, 0, 64, 51
2, 241688, Control_c, 0, 64, 61
2, 241702, Control_c, 0, 64, 64
2, 241716, Note_on_c, 0, 66, 64
2, 241717, Control_c, 0, 64, 66
2, 241733, Control_c, 0, 64, 68
2, 241748, Control_c, 0, 64, 70
2, 241760, Note_on_c, 0, 68, 0
2, 241764, Control_c, 0, 64, 71
2, 241778, Control_c, 0, 64, 72
2, 241793, Control_c, 0, 64, 73
2, 241824, Control_c, 0, 64, 73
2, 241839, Control_c, 0, 64, 74
2, 241862, Control_c, 0, 64, 75
2, 241893, Control_c, 0, 64, 73
2, 241907, Control_c, 0, 64, 67
2, 241923, Control_c, 0, 64, 53
2, 241937, Note_on_c, 0, 56, 85
2, 241938, Control_c, 0, 64, 0
2, 241946, Note_on_c, 0, 68, 65
2, 242002, Note_on_c, 0, 51, 0
2, 242007, Note_on_c, 0, 44, 0
2, 242030, Control_c, 0, 64, 46
2, 242046, Control_c, 0, 64, 59
2, 242061, Control_c, 0, 64, 66
2, 242076, Control_c, 0, 64, 71
2, 242091, Control_c, 0, 64, 78
2, 242106, Control_c, 0, 64, 84
2, 242122, Control_c, 0, 64, 90
2, 242127, Note_on_c, 0, 72, 0
2, 242133, Note_on_c, 0, 66, 0
2, 242136, Control_c, 0, 64, 94
2, 242151, Control_c, 0, 64, 97
2, 242163, Note_on_c, 0, 69, 71
2, 242167, Control_c, 0, 64, 97
2, 242212, Note_on_c, 0, 68, 0
2, 242304, Control_c, 0, 64, 98
2, 242319, Control_c, 0, 64, 99
2, 242334, Control_c, 0, 64, 100
2, 242349, Control_c, 0, 64, 98
2, 242365, Control_c, 0, 64, 87
2, 242380, Control_c, 0, 64, 73
2, 242395, Control_c, 0, 64, 56
2, 242396, Note_on_c, 0, 61, 85
2, 242410, Control_c, 0, 64, 0
2, 242413, Note_on_c, 0, 76, 68
2, 242423, Note_on_c, 0, 68, 64
2, 242457, Note_on_c, 0, 69, 0
2, 242486, Control_c, 0, 64, 50
2, 242501, Control_c, 0, 64, 63
2, 242502, Note_on_c, 0, 56, 0
2, 242516, Control_c, 0, 64, 70
2, 242532, Control_c, 0, 64, 80
2, 242546, Control_c, 0, 64, 94
2, 242562, Control_c, 0, 64, 117
2, 242577, Control_c, 0, 64, 127
2, 242625, Note_on_c, 0, 66, 62
2, 242664, Note_on_c, 0, 68, 0
2, 242701, Note_on_c, 0, 61, 0
2, 242844, Control_c, 0, 64, 105
2, 242851, Note_on_c, 0, 61, 84
2, 242859, Control_c, 0, 64, 88
2, 242872, Note_on_c, 0, 64, 69
2, 242874, Control_c, 0, 64, 73
2, 242890, Control_c, 0, 64, 60
2, 242904, Control_c, 0, 64, 33
2, 242912, Note_on_c, 0, 66, 0
2, 242920, Control_c, 0, 64, 33
2, 242935, Control_c, 0, 64, 36
2, 242950, Control_c, 0, 64, 48
2, 242966, Control_c, 0, 64, 57
2, 242980, Control_c, 0, 64, 64
2, 242995, Control_c, 0, 64, 69
2, 243011, Control_c, 0, 64, 78
2, 243026, Control_c, 0, 64, 89
2, 243042, Control_c, 0, 64, 102
2, 243056, Control_c, 0, 64, 114
2, 243071, Control_c, 0, 64, 113
2, 243076, Note_on_c, 0, 68, 68
2, 243087, Control_c, 0, 64, 111
2, 243096, Note_on_c, 0, 76, 0
2, 243130, Note_on_c, 0, 61, 0
2, 243147, Control_c, 0, 64, 112
2, 243163, Control_c, 0, 64, 112
2, 243178, Control_c, 0, 64, 113
2, 243193, Control_c, 0, 64, 114
2, 243209, Control_c, 0, 64, 116
2, 243224, Control_c, 0, 64, 116
2, 243254, Control_c, 0, 64, 113
2, 243269, Control_c, 0, 64, 104
2, 243285, Control_c, 0, 64, 92
2, 243300, Control_c, 0, 64, 78
2, 243302, Note_on_c, 0, 61, 80
2, 243314, Control_c, 0, 64, 62
2, 243315, Note_on_c, 0, 75, 63
2, 243317, Note_on_c, 0, 64, 0
2, 243319, Note_on_c, 0, 66, 64
2, 243330, Control_c, 0, 64, 21
2, 243345, Control_c, 0, 64, 0
2, 243414, Control_c, 0, 64, 33
2, 243429, Control_c, 0, 64, 52
2, 243444, Control_c, 0, 64, 61
2, 243459, Control_c, 0, 64, 66
2, 243474, Control_c, 0, 64, 70
2, 243490, Control_c, 0, 64, 76
2, 243505, Control_c, 0, 64, 83
2, 243521, Control_c, 0, 64, 89
2, 243533, Note_on_c, 0, 68, 0
2, 243536, Control_c, 0, 64, 95
2, 243546, Note_on_c, 0, 64, 58
2, 243551, Control_c, 0, 64, 98
2, 243595, Note_on_c, 0, 66, 0
2, 243658, Control_c, 0, 64, 98
2, 243673, Control_c, 0, 64, 99
2, 243689, Control_c, 0, 64, 99
2, 243704, Control_c, 0, 64, 99
2, 243720, Control_c, 0, 64, 96
2, 243735, Control_c, 0, 64, 87
2, 243749, Control_c, 0, 64, 76
2, 243765, Control_c, 0, 64, 66
2, 243768, Note_on_c, 0, 66, 54
2, 243772, Note_on_c, 0, 60, 61
2, 243780, Control_c, 0, 64, 51
2, 243795, Control_c, 0, 64, 35
2, 243811, Control_c, 0, 64, 35
2, 243841, Control_c, 0, 64, 37
2, 243856, Control_c, 0, 64, 44
2, 243868, Note_on_c, 0, 61, 0
2, 243871, Control_c, 0, 64, 50
2, 243887, Control_c, 0, 64, 54
2, 243901, Control_c, 0, 64, 56
2, 243916, Control_c, 0, 64, 58
2, 243932, Control_c, 0, 64, 60
2, 243946, Control_c, 0, 64, 61
2, 243962, Control_c, 0, 64, 62
2, 243968, Note_on_c, 0, 58, 66
2, 243970, Note_on_c, 0, 68, 57
2, 243977, Control_c, 0, 64, 62
2, 244002, Note_on_c, 0, 60, 0
2, 244007, Note_on_c, 0, 66, 0
2, 244056, Note_on_c, 0, 64, 0
2, 244167, Control_c, 0, 64, 63
2, 244211, Note_on_c, 0, 60, 62
2, 244226, Note_on_c, 0, 66, 57
2, 244263, Note_on_c, 0, 58, 0
2, 244273, Control_c, 0, 64, 62
2, 244410, Note_on_c, 0, 68, 0
2, 244441, Note_on_c, 0, 64, 61
2, 244624, Control_c, 0, 64, 62
2, 244640, Control_c, 0, 64, 60
2, 244655, Control_c, 0, 64, 55
2, 244661, Note_on_c, 0, 64, 0
2, 244669, Control_c, 0, 64, 35
2, 244673, Note_on_c, 0, 63, 66
2, 244685, Control_c, 0, 64, 0
2, 244704, Note_on_c, 0, 66, 0
2, 244881, Note_on_c, 0, 66, 58
2, 244882, Control_c, 0, 64, 35
2, 244897, Control_c, 0, 64, 56
2, 244912, Control_c, 0, 64, 61
2, 244935, Control_c, 0, 64, 64
2, 244944, Note_on_c, 0, 60, 0
2, 244950, Control_c, 0, 64, 65
2, 244966, Control_c, 0, 64, 67
2, 244981, Control_c, 0, 64, 69
2, 244996, Control_c, 0, 64, 71
2, 245011, Control_c, 0, 64, 74
2, 245026, Control_c, 0, 64, 77
2, 245041, Control_c, 0, 64, 80
2, 245056, Control_c, 0, 64, 83
2, 245071, Control_c, 0, 64, 85
2, 245086, Control_c, 0, 64, 86
2, 245101, Control_c, 0, 64, 81
2, 245114, Control_c, 0, 64, 73
2, 245130, Control_c, 0, 64, 61
2, 245141, Note_on_c, 0, 61, 62
2, 245144, Note_on_c, 0, 64, 71
2, 245145, Control_c, 0, 64, 0
2, 245193, Note_on_c, 0, 63, 0
2, 245220, Note_on_c, 0, 66, 0
2, 245282, Control_c, 0, 64, 31
2, 245298, Control_c, 0, 64, 49
2, 245313, Control_c, 0, 64, 58
2, 245329, Control_c, 0, 64, 61
2, 245341, Note_on_c, 0, 63, 70
2, 245344, Control_c, 0, 64, 63
2, 245358, Control_c, 0, 64, 65
2, 245374, Control_c, 0, 64, 66
2, 245383, Note_on_c, 0, 64, 0
2, 245389, Control_c, 0, 64, 68
2, 245404, Control_c, 0, 64, 70
2, 245420, Control_c, 0, 64, 72
2, 245434, Control_c, 0, 64, 74
2, 245450, Control_c, 0, 64, 75
2, 245465, Control_c, 0, 64, 76
2, 245526, Control_c, 0, 64, 76
2, 245541, Control_c, 0, 64, 77
2, 245555, Control_c, 0, 64, 77
2, 245582, Note_on_c, 0, 68, 83
2, 245588, Note_on_c, 0, 63, 0
2, 245590, Note_on_c, 0, 64, 69
2, 245601, Control_c, 0, 64, 78
2, 245698, Note_on_c, 0, 75, 0
2, 245715, Control_c, 0, 64, 78
2, 245731, Control_c, 0, 64, 79
2, 245746, Control_c, 0, 64, 79
2, 245761, Control_c, 0, 64, 80
2, 245772, Note_on_c, 0, 66, 78
2, 245776, Control_c, 0, 64, 81
2, 245791, Control_c, 0, 64, 82
2, 245807, Control_c, 0, 64, 84
2, 245810, Note_on_c, 0, 64, 0
2, 245822, Control_c, 0, 64, 85
2, 245836, Control_c, 0, 64, 86
2, 245852, Control_c, 0, 64, 86
2, 245867, Control_c, 0, 64, 87
2, 245958, Control_c, 0, 64, 83
2, 245974, Control_c, 0, 64, 77
2, 245989, Control_c, 0, 64, 67
2, 246003, Control_c, 0, 64, 44
2, 246010, Note_on_c, 0, 57, 58
2, 246013, Note_on_c, 0, 73, 81
2, 246017, Note_on_c, 0, 66, 0
2, 246019, Control_c, 0, 64, 0
2, 246022, Note_on_c, 0, 64, 61
2, 246088, Note_on_c, 0, 61, 0
2, 246102, Note_on_c, 0, 68, 0
2, 246142, Control_c, 0, 64, 50
2, 246156, Control_c, 0, 64, 63
2, 246172, Control_c, 0, 64, 68
2, 246187, Control_c, 0, 64, 73
2, 246202, Control_c, 0, 64, 79
2, 246218, Control_c, 0, 64, 84
2, 246222, Note_on_c, 0, 63, 70
2, 246233, Control_c, 0, 64, 88
2, 246246, Note_on_c, 0, 73, 0
2, 246249, Control_c, 0, 64, 91
2, 246264, Control_c, 0, 64, 92
2, 246297, Note_on_c, 0, 64, 0
2, 246324, Control_c, 0, 64, 93
2, 246354, Control_c, 0, 64, 93
2, 246370, Control_c, 0, 64, 94
2, 246385, Control_c, 0, 64, 95
2, 246399, Control_c, 0, 64, 97
2, 246415, Control_c, 0, 64, 99
2, 246430, Control_c, 0, 64, 96
2, 246446, Control_c, 0, 64, 88
2, 246448, Note_on_c, 0, 73, 85
2, 246462, Note_on_c, 0, 61, 70
2, 246469, Control_c, 0, 64, 74
2, 246483, Control_c, 0, 64, 61
2, 246499, Control_c, 0, 64, 25
2, 246514, Control_c, 0, 64, 0
2, 246514, Note_on_c, 0, 63, 0
2, 246545, Control_c, 0, 64, 32
2, 246559, Control_c, 0, 64, 50
2, 246576, Control_c, 0, 64, 62
2, 246591, Control_c, 0, 64, 68
2, 246607, Control_c, 0, 64, 75
2, 246621, Control_c, 0, 64, 84
2, 246625, Note_on_c, 0, 57, 0
2, 246636, Control_c, 0, 64, 93
2, 246652, Control_c, 0, 64, 103
2, 246667, Control_c, 0, 64, 108
2, 246670, Note_on_c, 0, 64, 74
2, 246682, Control_c, 0, 64, 106
2, 246697, Control_c, 0, 64, 105
2, 246713, Note_on_c, 0, 73, 0
2, 246849, Control_c, 0, 64, 105
2, 246864, Control_c, 0, 64, 100
2, 246879, Control_c, 0, 64, 89
2, 246894, Control_c, 0, 64, 74
2, 246900, Note_on_c, 0, 73, 78
2, 246909, Control_c, 0, 64, 60
2, 246909, Note_on_c, 0, 63, 65
2, 246923, Note_on_c, 0, 54, 47
2, 246926, Control_c, 0, 64, 12
2, 246941, Control_c, 0, 64, 0
2, 246944, Note_on_c, 0, 61, 0
2, 247001, Control_c, 0, 64, 27
2, 247017, Control_c, 0, 64, 43
2, 247026, Note_on_c, 0, 64, 0
2, 247032, Control_c, 0, 64, 53
2, 247047, Control_c, 0, 64, 58
2, 247062, Control_c, 0, 64, 62
2, 247077, Control_c, 0, 64, 63
2, 247093, Control_c, 0, 64, 65
2, 247108, Control_c, 0, 64, 67
2, 247116, Note_on_c, 0, 61, 74
2, 247122, Control_c, 0, 64, 68
2, 247138, Control_c, 0, 64, 70
2, 247153, Control_c, 0, 64, 72
2, 247161, Note_on_c, 0, 63, 0
2, 247169, Control_c, 0, 64, 74
2, 247184, Control_c, 0, 64, 74
2, 247199, Control_c, 0, 64, 75
2, 247267, Control_c, 0, 64, 74
2, 247282, Control_c, 0, 64, 74
2, 247298, Control_c, 0, 64, 73
2, 247313, Control_c, 0, 64, 73
2, 247337, Note_on_c, 0, 71, 73
2, 247351, Note_on_c, 0, 63, 67
2, 247358, Control_c, 0, 64, 72
2, 247420, Control_c, 0, 64, 72
2, 247434, Control_c, 0, 64, 71
2, 247450, Control_c, 0, 64, 71
2, 247465, Control_c, 0, 64, 70
2, 247479, Note_on_c, 0, 61, 0
2, 247480, Control_c, 0, 64, 70
2, 247537, Note_on_c, 0, 63, 0
2, 247551, Note_on_c, 0, 64, 67
2, 247551, Note_on_c, 0, 69, 70
2, 247558, Note_on_c, 0, 73, 0
2, 247588, Note_on_c, 0, 71, 0
2, 247767, Note_on_c, 0, 56, 61
2, 247787, Note_on_c, 0, 71, 67
2, 247788, Note_on_c, 0, 64, 0
2, 247792, Note_on_c, 0, 62, 50
2, 247800, Control_c, 0, 64, 69
2, 247815, Control_c, 0, 64, 68
2, 247828, Note_on_c, 0, 54, 0
2, 247830, Control_c, 0, 64, 66
2, 247830, Note_on_c, 0, 69, 0
2, 247846, Control_c, 0, 64, 63
2, 247861, Control_c, 0, 64, 60
2, 247876, Control_c, 0, 64, 57
2, 247891, Control_c, 0, 64, 56
2, 247937, Control_c, 0, 64, 57
2, 247952, Control_c, 0, 64, 57
2, 247967, Control_c, 0, 64, 58
2, 247982, Control_c, 0, 64, 58
2, 248002, Note_on_c, 0, 61, 71
2, 248006, Control_c, 0, 64, 59
2, 248020, Control_c, 0, 64, 59
2, 248066, Control_c, 0, 64, 60
2, 248133, Note_on_c, 0, 62, 0
2, 248172, Control_c, 0, 64, 58
2, 248187, Control_c, 0, 64, 54
2, 248202, Control_c, 0, 64, 44
2, 248218, Control_c, 0, 64, 23
2, 248229, Note_on_c, 0, 59, 78
2, 248233, Control_c, 0, 64, 0
2, 248355, Control_c, 0, 64, 24
2, 248371, Control_c, 0, 64, 48
2, 248385, Control_c, 0, 64, 58
2, 248400, Control_c, 0, 64, 64
2, 248416, Control_c, 0, 64, 67
2, 248430, Control_c, 0, 64, 70
2, 248430, Note_on_c, 0, 62, 64
2, 248446, Control_c, 0, 64, 73
2, 248461, Control_c, 0, 64, 77
2, 248476, Control_c, 0, 64, 79
2, 248477, Note_on_c, 0, 61, 0
2, 248492, Control_c, 0, 64, 81
2, 248506, Control_c, 0, 64, 82
2, 248553, Control_c, 0, 64, 83
2, 248569, Control_c, 0, 64, 83
2, 248584, Control_c, 0, 64, 84
2, 248598, Control_c, 0, 64, 84
2, 248614, Control_c, 0, 64, 85
2, 248644, Control_c, 0, 64, 82
2, 248659, Control_c, 0, 64, 75
2, 248670, Note_on_c, 0, 53, 72
2, 248674, Control_c, 0, 64, 63
2, 248681, Note_on_c, 0, 61, 64
2, 248690, Control_c, 0, 64, 16
2, 248696, Note_on_c, 0, 59, 0
2, 248705, Control_c, 0, 64, 0
2, 248723, Note_on_c, 0, 62, 0
2, 248726, Note_on_c, 0, 56, 0
2, 248804, Control_c, 0, 64, 25
2, 248819, Control_c, 0, 64, 54
2, 248834, Control_c, 0, 64, 63
2, 248850, Control_c, 0, 64, 68
2, 248864, Control_c, 0, 64, 74
2, 248878, Control_c, 0, 64, 82
2, 248894, Control_c, 0, 64, 88
2, 248908, Note_on_c, 0, 59, 78
2, 248909, Control_c, 0, 64, 94
2, 248924, Control_c, 0, 64, 98
2, 248939, Control_c, 0, 64, 99
2, 248980, Note_on_c, 0, 61, 0
2, 249016, Control_c, 0, 64, 99
2, 249031, Control_c, 0, 64, 100
2, 249046, Control_c, 0, 64, 101
2, 249061, Control_c, 0, 64, 103
2, 249076, Control_c, 0, 64, 105
2, 249092, Control_c, 0, 64, 108
2, 249122, Control_c, 0, 64, 105
2, 249138, Control_c, 0, 64, 96
2, 249152, Control_c, 0, 64, 83
2, 249156, Note_on_c, 0, 49, 80
2, 249159, Note_on_c, 0, 61, 70
2, 249168, Control_c, 0, 64, 69
2, 249173, Note_on_c, 0, 59, 0
2, 249183, Control_c, 0, 64, 49
2, 249197, Control_c, 0, 64, 0
2, 249243, Control_c, 0, 64, 28
2, 249259, Control_c, 0, 64, 49
2, 249273, Control_c, 0, 64, 60
2, 249289, Control_c, 0, 64, 66
2, 249304, Control_c, 0, 64, 72
2, 249319, Control_c, 0, 64, 79
2, 249335, Control_c, 0, 64, 86
2, 249337, Note_on_c, 0, 71, 0
2, 249349, Control_c, 0, 64, 92
2, 249357, Note_on_c, 0, 62, 64
2, 249364, Control_c, 0, 64, 96
2, 249381, Control_c, 0, 64, 98
2, 249403, Note_on_c, 0, 61, 0
2, 249488, Control_c, 0, 64, 98
2, 249502, Control_c, 0, 64, 99
2, 249541, Control_c, 0, 64, 96
2, 249556, Control_c, 0, 64, 89
2, 249572, Control_c, 0, 64, 77
2, 249586, Control_c, 0, 64, 63
2, 249600, Note_on_c, 0, 54, 85
2, 249601, Control_c, 0, 64, 0
2, 249615, Note_on_c, 0, 69, 69
2, 249623, Note_on_c, 0, 61, 62
2, 249629, Note_on_c, 0, 53, 0
2, 249658, Note_on_c, 0, 62, 0
2, 249753, Control_c, 0, 64, 33
2, 249769, Control_c, 0, 64, 60
2, 249784, Control_c, 0, 64, 67
2, 249798, Control_c, 0, 64, 73
2, 249814, Control_c, 0, 64, 80
2, 249829, Control_c, 0, 64, 88
2, 249829, Note_on_c, 0, 64, 73
2, 249843, Control_c, 0, 64, 94
2, 249853, Note_on_c, 0, 61, 0
2, 249859, Control_c, 0, 64, 99
2, 249863, Note_on_c, 0, 54, 0
2, 249874, Control_c, 0, 64, 101
2, 249923, Control_c, 0, 64, 102
2, 249938, Control_c, 0, 64, 102
2, 249953, Control_c, 0, 64, 104
2, 249969, Control_c, 0, 64, 107
2, 249984, Control_c, 0, 64, 110
2, 249999, Control_c, 0, 64, 111
2, 250014, Control_c, 0, 64, 107
2, 250029, Control_c, 0, 64, 96
2, 250039, Note_on_c, 0, 54, 90
2, 250044, Control_c, 0, 64, 80
2, 250059, Control_c, 0, 64, 66
2, 250063, Note_on_c, 0, 63, 72
2, 250074, Control_c, 0, 64, 37
2, 250090, Control_c, 0, 64, 0
2, 250120, Control_c, 0, 64, 25
2, 250135, Control_c, 0, 64, 47
2, 250150, Control_c, 0, 64, 60
2, 250166, Control_c, 0, 64, 66
2, 250172, Note_on_c, 0, 69, 0
2, 250181, Control_c, 0, 64, 73
2, 250197, Control_c, 0, 64, 81
2, 250213, Control_c, 0, 64, 91
2, 250227, Control_c, 0, 64, 102
2, 250243, Control_c, 0, 64, 109
2, 250256, Note_on_c, 0, 54, 0
2, 250258, Control_c, 0, 64, 109
2, 250272, Control_c, 0, 64, 108
2, 250287, Note_on_c, 0, 61, 73
2, 250303, Note_on_c, 0, 64, 0
2, 250372, Control_c, 0, 64, 107
2, 250418, Control_c, 0, 64, 108
2, 250433, Control_c, 0, 64, 108
2, 250449, Control_c, 0, 64, 109
2, 250479, Control_c, 0, 64, 105
2, 250494, Control_c, 0, 64, 96
2, 250509, Control_c, 0, 64, 84
2, 250525, Control_c, 0, 64, 70
2, 250525, Note_on_c, 0, 63, 0
2, 250539, Note_on_c, 0, 56, 75
2, 250540, Control_c, 0, 64, 54
2, 250540, Note_on_c, 0, 54, 72
2, 250540, Note_on_c, 0, 60, 79
2, 250541, Note_on_c, 0, 68, 80
2, 250554, Control_c, 0, 64, 0
2, 250627, Note_on_c, 0, 61, 0
2, 250632, Note_on_c, 0, 49, 0
2, 250635, Control_c, 0, 64, 14
2, 250650, Control_c, 0, 64, 27
2, 250666, Control_c, 0, 64, 36
2, 250681, Control_c, 0, 64, 43
2, 250695, Control_c, 0, 64, 48
2, 250711, Control_c, 0, 64, 51
2, 250726, Control_c, 0, 64, 53
2, 250741, Control_c, 0, 64, 54
2, 250751, Note_on_c, 0, 54, 0
2, 250757, Control_c, 0, 64, 56
2, 250771, Control_c, 0, 64, 58
2, 250787, Control_c, 0, 64, 61
2, 250802, Control_c, 0, 64, 63
2, 250817, Control_c, 0, 64, 65
2, 250833, Control_c, 0, 64, 68
2, 250847, Control_c, 0, 64, 71
2, 250862, Control_c, 0, 64, 74
2, 250878, Control_c, 0, 64, 79
2, 250893, Control_c, 0, 64, 81
2, 250909, Control_c, 0, 64, 82
2, 250939, Control_c, 0, 64, 82
2, 250955, Control_c, 0, 64, 81
2, 250969, Control_c, 0, 64, 80
2, 250982, Note_on_c, 0, 44, 72
2, 250985, Control_c, 0, 64, 79
2, 250993, Note_on_c, 0, 52, 73
2, 251000, Control_c, 0, 64, 78
2, 251015, Control_c, 0, 64, 77
2, 251031, Control_c, 0, 64, 77
2, 251046, Control_c, 0, 64, 75
2, 251061, Control_c, 0, 64, 75
2, 251084, Control_c, 0, 64, 74
2, 251099, Control_c, 0, 64, 74
2, 251109, Note_on_c, 0, 44, 0
2, 251200, Note_on_c, 0, 51, 84
2, 251248, Note_on_c, 0, 52, 0
2, 251280, Control_c, 0, 64, 73
2, 251340, Control_c, 0, 64, 74
2, 251371, Control_c, 0, 64, 74
2, 251447, Control_c, 0, 64, 73
2, 251461, Note_on_c, 0, 52, 74
2, 251462, Control_c, 0, 64, 71
2, 251463, Note_on_c, 0, 61, 73
2, 251467, Note_on_c, 0, 49, 71
2, 251477, Control_c, 0, 64, 65
2, 251490, Note_on_c, 0, 51, 0
2, 251492, Control_c, 0, 64, 52
2, 251508, Control_c, 0, 64, 0
2, 251515, Note_on_c, 0, 60, 0
2, 251751, Control_c, 0, 64, 33
2, 251766, Control_c, 0, 64, 58
2, 251773, Note_on_c, 0, 49, 0
2, 251781, Control_c, 0, 64, 65
2, 251797, Control_c, 0, 64, 68
2, 251811, Control_c, 0, 64, 71
2, 251827, Control_c, 0, 64, 74
2, 251850, Control_c, 0, 64, 75
2, 251866, Control_c, 0, 64, 77
2, 251881, Control_c, 0, 64, 78
2, 251896, Control_c, 0, 64, 79
2, 251912, Control_c, 0, 64, 80
2, 251918, Note_on_c, 0, 49, 74
2, 251926, Control_c, 0, 64, 81
2, 251941, Control_c, 0, 64, 81
2, 251957, Control_c, 0, 64, 82
2, 251972, Control_c, 0, 64, 84
2, 251988, Control_c, 0, 64, 85
2, 251994, Note_on_c, 0, 61, 0
2, 252003, Control_c, 0, 64, 86
2, 252018, Control_c, 0, 64, 87
2, 252034, Control_c, 0, 64, 87
2, 252048, Control_c, 0, 64, 88
2, 252080, Note_on_c, 0, 56, 0
2, 252098, Note_on_c, 0, 49, 0
2, 252260, Control_c, 0, 64, 88
2, 252291, Control_c, 0, 64, 89
2, 252306, Control_c, 0, 64, 90
2, 252321, Control_c, 0, 64, 91
2, 252336, Control_c, 0, 64, 92
2, 252352, Control_c, 0, 64, 91
2, 252367, Control_c, 0, 64, 88
2, 252382, Control_c, 0, 64, 80
2, 252388, Note_on_c, 0, 75, 99
2, 252396, Note_on_c, 0, 63, 86
2, 252398, Control_c, 0, 64, 70
2, 252404, Note_on_c, 0, 55, 81
2, 252409, Note_on_c, 0, 51, 73
2, 252411, Note_on_c, 0, 49, 67
2, 252412, Control_c, 0, 64, 54
2, 252428, Control_c, 0, 64, 0
2, 252449, Note_on_c, 0, 52, 0
2, 252579, Control_c, 0, 64, 45
2, 252595, Control_c, 0, 64, 63
2, 252617, Control_c, 0, 64, 70
2, 252633, Control_c, 0, 64, 77
2, 252648, Control_c, 0, 64, 84
2, 252664, Control_c, 0, 64, 88
2, 252680, Control_c, 0, 64, 92
2, 252694, Control_c, 0, 64, 93
2, 252710, Control_c, 0, 64, 94
2, 252725, Control_c, 0, 64, 94
2, 252733, Note_on_c, 0, 63, 0
2, 252739, Control_c, 0, 64, 95
2, 252755, Control_c, 0, 64, 96
2, 252770, Control_c, 0, 64, 92
2, 252786, Control_c, 0, 64, 83
2, 252801, Control_c, 0, 64, 73
2, 252816, Control_c, 0, 64, 62
2, 252832, Control_c, 0, 64, 41
2, 252838, Note_on_c, 0, 47, 71
2, 252847, Control_c, 0, 64, 34
2, 252847, Note_on_c, 0, 63, 74
2, 252862, Control_c, 0, 64, 36
2, 252872, Note_on_c, 0, 49, 0
2, 252878, Control_c, 0, 64, 47
2, 252878, Note_on_c, 0, 51, 0
2, 252892, Control_c, 0, 64, 54
2, 252908, Control_c, 0, 64, 60
2, 252923, Control_c, 0, 64, 64
2, 252937, Control_c, 0, 64, 67
2, 252953, Control_c, 0, 64, 72
2, 252963, Note_on_c, 0, 68, 0
2, 252968, Control_c, 0, 64, 77
2, 252983, Control_c, 0, 64, 83
2, 252999, Control_c, 0, 64, 87
2, 253013, Control_c, 0, 64, 90
2, 253029, Control_c, 0, 64, 91
2, 253029, Note_on_c, 0, 55, 0
2, 253041, Note_on_c, 0, 46, 74
2, 253089, Control_c, 0, 64, 91
2, 253097, Note_on_c, 0, 47, 0
2, 253180, Control_c, 0, 64, 92
2, 253196, Control_c, 0, 64, 92
2, 253211, Control_c, 0, 64, 93
2, 253226, Control_c, 0, 64, 91
2, 253241, Control_c, 0, 64, 84
2, 253256, Control_c, 0, 64, 73
2, 253272, Control_c, 0, 64, 58
2, 253277, Note_on_c, 0, 46, 0
2, 253278, Note_on_c, 0, 47, 70
2, 253281, Note_on_c, 0, 68, 73
2, 253284, Note_on_c, 0, 56, 67
2, 253287, Control_c, 0, 64, 0
2, 253346, Note_on_c, 0, 63, 0
2, 253431, Control_c, 0, 64, 36
2, 253446, Control_c, 0, 64, 49
2, 253461, Control_c, 0, 64, 54
2, 253478, Control_c, 0, 64, 57
2, 253479, Note_on_c, 0, 46, 70
2, 253494, Control_c, 0, 64, 58
2, 253496, Note_on_c, 0, 70, 73
2, 253504, Note_on_c, 0, 47, 0
2, 253510, Control_c, 0, 64, 59
2, 253525, Control_c, 0, 64, 60
2, 253539, Control_c, 0, 64, 61
2, 253567, Note_on_c, 0, 68, 0
2, 253707, Control_c, 0, 64, 62
2, 253712, Note_on_c, 0, 71, 74
2, 253719, Note_on_c, 0, 44, 69
2, 253722, Control_c, 0, 64, 62
2, 253724, Note_on_c, 0, 70, 0
2, 253736, Control_c, 0, 64, 63
2, 253752, Control_c, 0, 64, 65
2, 253752, Note_on_c, 0, 46, 0
2, 253767, Control_c, 0, 64, 66
2, 253782, Control_c, 0, 64, 69
2, 253798, Control_c, 0, 64, 72
2, 253813, Control_c, 0, 64, 76
2, 253829, Control_c, 0, 64, 80
2, 253844, Control_c, 0, 64, 84
2, 253858, Control_c, 0, 64, 87
2, 253874, Control_c, 0, 64, 90
2, 253883, Note_on_c, 0, 56, 0
2, 253889, Control_c, 0, 64, 93
2, 253904, Control_c, 0, 64, 95
2, 253912, Note_on_c, 0, 47, 78
2, 253917, Note_on_c, 0, 44, 0
2, 253920, Control_c, 0, 64, 97
2, 253965, Control_c, 0, 64, 97
2, 253995, Control_c, 0, 64, 98
2, 254010, Control_c, 0, 64, 99
2, 254026, Control_c, 0, 64, 100
2, 254041, Control_c, 0, 64, 100
2, 254056, Control_c, 0, 64, 101
2, 254071, Control_c, 0, 64, 102
2, 254086, Control_c, 0, 64, 103
2, 254101, Control_c, 0, 64, 102
2, 254117, Control_c, 0, 64, 94
2, 254132, Control_c, 0, 64, 79
2, 254155, Control_c, 0, 64, 64
2, 254160, Note_on_c, 0, 46, 71
2, 254166, Note_on_c, 0, 74, 86
2, 254167, Note_on_c, 0, 53, 66
2, 254170, Control_c, 0, 64, 0
2, 254192, Note_on_c, 0, 75, 0
2, 254198, Note_on_c, 0, 47, 0
2, 254323, Control_c, 0, 64, 36
2, 254338, Control_c, 0, 64, 53
2, 254354, Control_c, 0, 64, 61
2, 254369, Control_c, 0, 64, 64
2, 254372, Note_on_c, 0, 44, 67
2, 254383, Control_c, 0, 64, 66
2, 254399, Control_c, 0, 64, 68
2, 254414, Control_c, 0, 64, 71
2, 254417, Note_on_c, 0, 46, 0
2, 254429, Control_c, 0, 64, 74
2, 254444, Control_c, 0, 64, 76
2, 254459, Control_c, 0, 64, 78
2, 254475, Control_c, 0, 64, 78
2, 254490, Control_c, 0, 64, 79
2, 254580, Control_c, 0, 64, 79
2, 254600, Note_on_c, 0, 46, 75
2, 254622, Note_on_c, 0, 70, 81
2, 254627, Control_c, 0, 64, 80
2, 254664, Note_on_c, 0, 44, 0
2, 254707, Note_on_c, 0, 71, 0
2, 254763, Control_c, 0, 64, 80
2, 254778, Control_c, 0, 64, 81
2, 254794, Control_c, 0, 64, 81
2, 254806, Note_on_c, 0, 47, 75
2, 254824, Control_c, 0, 64, 82
2, 254839, Control_c, 0, 64, 82
2, 254842, Note_on_c, 0, 46, 0
2, 254900, Control_c, 0, 64, 83
2, 254954, Control_c, 0, 64, 83
2, 254983, Control_c, 0, 64, 84
2, 254999, Control_c, 0, 64, 84
2, 255014, Control_c, 0, 64, 85
2, 255030, Control_c, 0, 64, 84
2, 255040, Note_on_c, 0, 78, 92
2, 255044, Control_c, 0, 64, 82
2, 255045, Note_on_c, 0, 46, 79
2, 255046, Note_on_c, 0, 75, 80
2, 255059, Control_c, 0, 64, 75
2, 255075, Control_c, 0, 64, 64
2, 255090, Control_c, 0, 64, 0
2, 255097, Note_on_c, 0, 74, 0
2, 255147, Note_on_c, 0, 70, 0
2, 255168, Note_on_c, 0, 47, 0
2, 255220, Note_on_c, 0, 44, 70
2, 255258, Note_on_c, 0, 46, 0
2, 255303, Control_c, 0, 64, 33
2, 255319, Control_c, 0, 64, 53
2, 255334, Control_c, 0, 64, 59
2, 255349, Control_c, 0, 64, 61
2, 255364, Control_c, 0, 64, 63
2, 255379, Control_c, 0, 64, 63
2, 255387, Note_on_c, 0, 75, 0
2, 255394, Control_c, 0, 64, 64
2, 255409, Control_c, 0, 64, 64
2, 255440, Control_c, 0, 64, 65
2, 255470, Control_c, 0, 64, 65
2, 255473, Note_on_c, 0, 42, 66
2, 255491, Note_on_c, 0, 75, 84
2, 255500, Control_c, 0, 64, 66
2, 255516, Control_c, 0, 64, 66
2, 255526, Note_on_c, 0, 44, 0
2, 255531, Control_c, 0, 64, 67
2, 255547, Control_c, 0, 64, 67
2, 255562, Control_c, 0, 64, 68
2, 255577, Control_c, 0, 64, 68
2, 255593, Control_c, 0, 64, 69
2, 255607, Control_c, 0, 64, 70
2, 255622, Control_c, 0, 64, 71
2, 255637, Control_c, 0, 64, 72
2, 255649, Control_c, 0, 64, 73
2, 255664, Control_c, 0, 64, 74
2, 255664, Note_on_c, 0, 46, 77
2, 255683, Control_c, 0, 64, 75
2, 255699, Control_c, 0, 64, 76
2, 255714, Control_c, 0, 64, 78
2, 255730, Control_c, 0, 64, 79
2, 255745, Control_c, 0, 64, 79
2, 255759, Control_c, 0, 64, 80
2, 255790, Control_c, 0, 64, 81
2, 255804, Control_c, 0, 64, 81
2, 255820, Control_c, 0, 64, 83
2, 255833, Note_on_c, 0, 75, 0
2, 255835, Control_c, 0, 64, 84
2, 255851, Control_c, 0, 64, 85
2, 255859, Note_on_c, 0, 78, 0
2, 255866, Control_c, 0, 64, 87
2, 255896, Control_c, 0, 64, 82
2, 255910, Note_on_c, 0, 77, 86
2, 255911, Control_c, 0, 64, 71
2, 255918, Note_on_c, 0, 44, 71
2, 255920, Note_on_c, 0, 75, 85
2, 255928, Control_c, 0, 64, 51
2, 255942, Note_on_c, 0, 46, 0
2, 255943, Control_c, 0, 64, 0
2, 255949, Note_on_c, 0, 42, 0
2, 256095, Control_c, 0, 64, 46
2, 256109, Control_c, 0, 64, 59
2, 256124, Control_c, 0, 64, 63
2, 256128, Note_on_c, 0, 42, 78
2, 256140, Control_c, 0, 64, 65
2, 256155, Control_c, 0, 64, 66
2, 256156, Note_on_c, 0, 44, 0
2, 256171, Control_c, 0, 64, 67
2, 256185, Control_c, 0, 64, 68
2, 256200, Control_c, 0, 64, 69
2, 256216, Control_c, 0, 64, 70
2, 256231, Control_c, 0, 64, 72
2, 256246, Control_c, 0, 64, 73
2, 256261, Control_c, 0, 64, 73
2, 256276, Control_c, 0, 64, 74
2, 256336, Control_c, 0, 64, 74
2, 256346, Note_on_c, 0, 73, 82
2, 256351, Note_on_c, 0, 44, 71
2, 256381, Control_c, 0, 64, 75
2, 256545, Note_on_c, 0, 46, 71
2, 256560, Note_on_c, 0, 72, 79
2, 256562, Note_on_c, 0, 75, 0
2, 256574, Note_on_c, 0, 44, 0
2, 256615, Note_on_c, 0, 73, 0
2, 256769, Control_c, 0, 64, 74
2, 256781, Note_on_c, 0, 44, 66
2, 256785, Control_c, 0, 64, 73
2, 256794, Note_on_c, 0, 76, 77
2, 256795, Note_on_c, 0, 73, 80
2, 256800, Control_c, 0, 64, 69
2, 256816, Control_c, 0, 64, 63
2, 256830, Control_c, 0, 64, 51
2, 256845, Control_c, 0, 64, 36
2, 256856, Note_on_c, 0, 72, 0
2, 256861, Control_c, 0, 64, 0
2, 256871, Note_on_c, 0, 46, 0
2, 256874, Note_on_c, 0, 77, 0
2, 256985, Note_on_c, 0, 47, 74
2, 257027, Control_c, 0, 64, 8
2, 257042, Control_c, 0, 64, 41
2, 257058, Control_c, 0, 64, 48
2, 257072, Control_c, 0, 64, 52
2, 257087, Control_c, 0, 64, 57
2, 257103, Control_c, 0, 64, 61
2, 257104, Note_on_c, 0, 42, 0
2, 257118, Control_c, 0, 64, 63
2, 257134, Control_c, 0, 64, 64
2, 257149, Control_c, 0, 64, 65
2, 257164, Control_c, 0, 64, 65
2, 257180, Control_c, 0, 64, 66
2, 257185, Note_on_c, 0, 44, 0
2, 257201, Control_c, 0, 64, 66
2, 257214, Note_on_c, 0, 46, 76
2, 257293, Control_c, 0, 64, 67
2, 257340, Control_c, 0, 64, 67
2, 257355, Control_c, 0, 64, 68
2, 257381, Note_on_c, 0, 47, 0
2, 257415, Control_c, 0, 64, 68
2, 257417, Note_on_c, 0, 44, 79
2, 257444, Note_on_c, 0, 46, 0
2, 257445, Control_c, 0, 64, 69
2, 257461, Control_c, 0, 64, 69
2, 257476, Control_c, 0, 64, 70
2, 257491, Control_c, 0, 64, 71
2, 257507, Control_c, 0, 64, 72
2, 257521, Control_c, 0, 64, 72
2, 257537, Control_c, 0, 64, 73
2, 257552, Control_c, 0, 64, 74
2, 257568, Control_c, 0, 64, 75
2, 257584, Control_c, 0, 64, 77
2, 257597, Control_c, 0, 64, 77
2, 257611, Control_c, 0, 64, 76
2, 257627, Control_c, 0, 64, 72
2, 257642, Control_c, 0, 64, 64
2, 257657, Control_c, 0, 64, 39
2, 257671, Note_on_c, 0, 75, 78
2, 257673, Control_c, 0, 64, 0
2, 257676, Note_on_c, 0, 43, 81
2, 257712, Note_on_c, 0, 44, 0
2, 257716, Note_on_c, 0, 53, 0
2, 257743, Note_on_c, 0, 73, 0
2, 257885, Control_c, 0, 64, 55
2, 257901, Control_c, 0, 64, 65
2, 257915, Control_c, 0, 64, 70
2, 257927, Note_on_c, 0, 73, 65
2, 257930, Control_c, 0, 64, 75
2, 257946, Control_c, 0, 64, 79
2, 257961, Control_c, 0, 64, 83
2, 257985, Control_c, 0, 64, 86
2, 257997, Note_on_c, 0, 75, 0
2, 257999, Control_c, 0, 64, 89
2, 258014, Control_c, 0, 64, 91
2, 258030, Control_c, 0, 64, 93
2, 258045, Control_c, 0, 64, 94
2, 258060, Control_c, 0, 64, 94
2, 258090, Control_c, 0, 64, 95
2, 258121, Control_c, 0, 64, 96
2, 258135, Control_c, 0, 64, 98
2, 258151, Control_c, 0, 64, 95
2, 258156, Note_on_c, 0, 51, 88
2, 258166, Control_c, 0, 64, 87
2, 258170, Note_on_c, 0, 75, 72
2, 258182, Control_c, 0, 64, 74
2, 258197, Control_c, 0, 64, 59
2, 258211, Control_c, 0, 64, 0
2, 258216, Note_on_c, 0, 76, 0
2, 258287, Control_c, 0, 64, 37
2, 258303, Control_c, 0, 64, 55
2, 258318, Control_c, 0, 64, 63
2, 258332, Control_c, 0, 64, 68
2, 258348, Control_c, 0, 64, 74
2, 258363, Control_c, 0, 64, 81
2, 258380, Control_c, 0, 64, 87
2, 258385, Note_on_c, 0, 76, 64
2, 258395, Control_c, 0, 64, 94
2, 258410, Control_c, 0, 64, 99
2, 258422, Note_on_c, 0, 75, 0
2, 258426, Control_c, 0, 64, 102
2, 258485, Control_c, 0, 64, 103
2, 258516, Control_c, 0, 64, 103
2, 258531, Control_c, 0, 64, 104
2, 258547, Control_c, 0, 64, 105
2, 258559, Note_on_c, 0, 51, 0
2, 258562, Control_c, 0, 64, 106
2, 258577, Control_c, 0, 64, 103
2, 258592, Note_on_c, 0, 56, 90
2, 258593, Control_c, 0, 64, 93
2, 258594, Note_on_c, 0, 44, 74
2, 258608, Control_c, 0, 64, 79
2, 258610, Note_on_c, 0, 75, 78
2, 258613, Note_on_c, 0, 71, 67
2, 258624, Control_c, 0, 64, 63
2, 258630, Note_on_c, 0, 43, 0
2, 258638, Control_c, 0, 64, 0
2, 258643, Note_on_c, 0, 76, 0
2, 258652, Note_on_c, 0, 73, 0
2, 258752, Control_c, 0, 64, 34
2, 258767, Control_c, 0, 64, 59
2, 258783, Control_c, 0, 64, 66
2, 258797, Control_c, 0, 64, 71
2, 258812, Control_c, 0, 64, 78
2, 258828, Control_c, 0, 64, 84
2, 258842, Note_on_c, 0, 73, 73
2, 258843, Control_c, 0, 64, 90
2, 258858, Control_c, 0, 64, 96
2, 258874, Control_c, 0, 64, 99
2, 258889, Control_c, 0, 64, 101
2, 258890, Note_on_c, 0, 56, 0
2, 258913, Note_on_c, 0, 71, 0
2, 258934, Control_c, 0, 64, 101
2, 258950, Control_c, 0, 64, 102
2, 258965, Control_c, 0, 64, 103
2, 258980, Control_c, 0, 64, 104
2, 259010, Control_c, 0, 64, 101
2, 259025, Control_c, 0, 64, 91
2, 259031, Note_on_c, 0, 75, 0
2, 259039, Note_on_c, 0, 56, 83
2, 259040, Control_c, 0, 64, 77
2, 259055, Control_c, 0, 64, 58
2, 259055, Note_on_c, 0, 71, 61
2, 259071, Control_c, 0, 64, 0
2, 259117, Note_on_c, 0, 73, 0
2, 259147, Control_c, 0, 64, 28
2, 259162, Control_c, 0, 64, 53
2, 259176, Control_c, 0, 64, 61
2, 259192, Control_c, 0, 64, 65
2, 259208, Control_c, 0, 64, 68
2, 259224, Control_c, 0, 64, 73
2, 259239, Control_c, 0, 64, 77
2, 259254, Control_c, 0, 64, 82
2, 259258, Note_on_c, 0, 75, 74
2, 259270, Control_c, 0, 64, 87
2, 259284, Control_c, 0, 64, 91
2, 259295, Note_on_c, 0, 56, 0
2, 259300, Control_c, 0, 64, 93
2, 259315, Control_c, 0, 64, 95
2, 259391, Control_c, 0, 64, 95
2, 259422, Control_c, 0, 64, 94
2, 259437, Control_c, 0, 64, 87
2, 259451, Control_c, 0, 64, 75
2, 259466, Note_on_c, 0, 56, 83
2, 259467, Control_c, 0, 64, 60
2, 259475, Note_on_c, 0, 73, 71
2, 259477, Note_on_c, 0, 70, 72
2, 259478, Note_on_c, 0, 46, 69
2, 259482, Control_c, 0, 64, 0
2, 259512, Note_on_c, 0, 71, 0
2, 259518, Note_on_c, 0, 75, 0
2, 259533, Note_on_c, 0, 44, 0
2, 259626, Control_c, 0, 64, 40
2, 259641, Control_c, 0, 64, 56
2, 259656, Control_c, 0, 64, 61
2, 259664, Note_on_c, 0, 71, 62
2, 259671, Control_c, 0, 64, 64
2, 259686, Control_c, 0, 64, 66
2, 259702, Control_c, 0, 64, 68
2, 259717, Control_c, 0, 64, 70
2, 259732, Control_c, 0, 64, 72
2, 259733, Note_on_c, 0, 73, 0
2, 259747, Control_c, 0, 64, 73
2, 259896, Note_on_c, 0, 54, 77
2, 259914, Note_on_c, 0, 73, 73
2, 259929, Note_on_c, 0, 56, 0
2, 259971, Note_on_c, 0, 71, 0
2, 260005, Control_c, 0, 64, 72
2, 260091, Note_on_c, 0, 75, 76
2, 260094, Note_on_c, 0, 52, 79
2, 260099, Control_c, 0, 64, 72
2, 260126, Note_on_c, 0, 73, 0
2, 260128, Note_on_c, 0, 54, 0
2, 260319, Control_c, 0, 64, 70
2, 260324, Note_on_c, 0, 54, 69
2, 260328, Note_on_c, 0, 51, 70
2, 260328, Note_on_c, 0, 69, 74
2, 260328, Note_on_c, 0, 73, 81
2, 260335, Control_c, 0, 64, 68
2, 260350, Control_c, 0, 64, 61
2, 260362, Note_on_c, 0, 75, 0
2, 260365, Control_c, 0, 64, 41
2, 260376, Note_on_c, 0, 52, 0
2, 260381, Control_c, 0, 64, 0
2, 260454, Note_on_c, 0, 70, 0
2, 260460, Note_on_c, 0, 46, 0
2, 260525, Note_on_c, 0, 76, 79
2, 260582, Note_on_c, 0, 73, 0
2, 260656, Control_c, 0, 64, 26
2, 260670, Control_c, 0, 64, 50
2, 260685, Control_c, 0, 64, 57
2, 260701, Control_c, 0, 64, 59
2, 260715, Control_c, 0, 64, 60
2, 260730, Control_c, 0, 64, 61
2, 260746, Control_c, 0, 64, 62
2, 260761, Control_c, 0, 64, 62
2, 260763, Note_on_c, 0, 75, 78
2, 260777, Control_c, 0, 64, 63
2, 260793, Control_c, 0, 64, 63
2, 260809, Control_c, 0, 64, 64
2, 260824, Control_c, 0, 64, 65
2, 260840, Control_c, 0, 64, 66
2, 260856, Control_c, 0, 64, 67
2, 260871, Control_c, 0, 64, 68
2, 260887, Control_c, 0, 64, 69
2, 260901, Control_c, 0, 64, 70
2, 260916, Control_c, 0, 64, 71
2, 260930, Note_on_c, 0, 76, 0
2, 260932, Control_c, 0, 64, 71
2, 260944, Note_on_c, 0, 73, 80
2, 260946, Control_c, 0, 64, 72
2, 260961, Control_c, 0, 64, 72
2, 260965, Note_on_c, 0, 75, 0
2, 260977, Control_c, 0, 64, 73
2, 261008, Control_c, 0, 64, 73
2, 261037, Control_c, 0, 64, 74
2, 261061, Control_c, 0, 64, 74
2, 261076, Control_c, 0, 64, 75
2, 261092, Control_c, 0, 64, 76
2, 261106, Control_c, 0, 64, 77
2, 261137, Control_c, 0, 64, 75
2, 261151, Control_c, 0, 64, 69
2, 261167, Control_c, 0, 64, 56
2, 261180, Note_on_c, 0, 72, 75
2, 261181, Note_on_c, 0, 44, 79
2, 261182, Control_c, 0, 64, 0
2, 261214, Note_on_c, 0, 73, 0
2, 261306, Note_on_c, 0, 69, 0
2, 261334, Control_c, 0, 64, 30
2, 261346, Note_on_c, 0, 69, 18
2, 261349, Control_c, 0, 64, 55
2, 261363, Control_c, 0, 64, 63
2, 261379, Control_c, 0, 64, 66
2, 261386, Note_on_c, 0, 44, 0
2, 261394, Control_c, 0, 64, 68
2, 261403, Note_on_c, 0, 57, 79
2, 261410, Control_c, 0, 64, 69
2, 261425, Control_c, 0, 64, 71
2, 261440, Control_c, 0, 64, 72
2, 261449, Note_on_c, 0, 54, 0
2, 261456, Control_c, 0, 64, 72
2, 261539, Note_on_c, 0, 51, 0
2, 261615, Note_on_c, 0, 56, 74
2, 261615, Note_on_c, 0, 63, 83
2, 261649, Note_on_c, 0, 57, 0
2, 261650, Note_on_c, 0, 69, 0
2, 261805, Control_c, 0, 64, 73
2, 261808, Note_on_c, 0, 54, 67
2, 261829, Control_c, 0, 64, 73
2, 261843, Control_c, 0, 64, 74
2, 261859, Control_c, 0, 64, 74
2, 261873, Note_on_c, 0, 56, 0
2, 261874, Control_c, 0, 64, 75
2, 261890, Control_c, 0, 64, 76
2, 261905, Control_c, 0, 64, 77
2, 261919, Control_c, 0, 64, 78
2, 261935, Control_c, 0, 64, 80
2, 261950, Control_c, 0, 64, 82
2, 261965, Control_c, 0, 64, 84
2, 261981, Control_c, 0, 64, 86
2, 261995, Control_c, 0, 64, 81
2, 262011, Control_c, 0, 64, 70
2, 262026, Control_c, 0, 64, 52
2, 262036, Note_on_c, 0, 53, 73
2, 262041, Control_c, 0, 64, 0
2, 262042, Note_on_c, 0, 68, 81
2, 262047, Note_on_c, 0, 71, 77
2, 262072, Note_on_c, 0, 72, 0
2, 262130, Note_on_c, 0, 54, 0
2, 262144, Note_on_c, 0, 63, 0
2, 262208, Control_c, 0, 64, 44
2, 262223, Control_c, 0, 64, 56
2, 262238, Control_c, 0, 64, 61
2, 262244, Note_on_c, 0, 51, 77
2, 262254, Control_c, 0, 64, 63
2, 262269, Control_c, 0, 64, 65
2, 262284, Control_c, 0, 64, 67
2, 262294, Note_on_c, 0, 53, 0
2, 262300, Control_c, 0, 64, 68
2, 262315, Control_c, 0, 64, 69
2, 262322, Note_on_c, 0, 68, 0
2, 262330, Control_c, 0, 64, 70
2, 262467, Control_c, 0, 64, 70
2, 262468, Note_on_c, 0, 53, 74
2, 262477, Note_on_c, 0, 68, 84
2, 262574, Control_c, 0, 64, 71
2, 262596, Control_c, 0, 64, 72
2, 262612, Control_c, 0, 64, 73
2, 262627, Control_c, 0, 64, 76
2, 262642, Control_c, 0, 64, 79
2, 262657, Control_c, 0, 64, 82
2, 262666, Note_on_c, 0, 49, 82
2, 262672, Control_c, 0, 64, 85
2, 262688, Control_c, 0, 64, 88
2, 262690, Note_on_c, 0, 51, 0
2, 262696, Note_on_c, 0, 53, 0
2, 262703, Control_c, 0, 64, 90
2, 262718, Control_c, 0, 64, 93
2, 262723, Note_on_c, 0, 68, 0
2, 262734, Control_c, 0, 64, 96
2, 262749, Control_c, 0, 64, 97
2, 262763, Control_c, 0, 64, 98
2, 262779, Control_c, 0, 64, 98
2, 262794, Control_c, 0, 64, 99
2, 262810, Control_c, 0, 64, 99
2, 262825, Control_c, 0, 64, 100
2, 262839, Control_c, 0, 64, 99
2, 262855, Control_c, 0, 64, 90
2, 262870, Control_c, 0, 64, 77
2, 262885, Control_c, 0, 64, 62
2, 262901, Control_c, 0, 64, 0
2, 262903, Note_on_c, 0, 54, 83
2, 262906, Note_on_c, 0, 68, 87
2, 262907, Note_on_c, 0, 70, 88
2, 262936, Note_on_c, 0, 71, 0
2, 262984, Note_on_c, 0, 49, 0
2, 263052, Control_c, 0, 64, 38
2, 263067, Control_c, 0, 64, 50
2, 263082, Control_c, 0, 64, 55
2, 263098, Control_c, 0, 64, 59
2, 263101, Note_on_c, 0, 53, 81
2, 263113, Control_c, 0, 64, 61
2, 263128, Control_c, 0, 64, 62
2, 263141, Note_on_c, 0, 54, 0
2, 263143, Control_c, 0, 64, 63
2, 263204, Control_c, 0, 64, 62
2, 263220, Control_c, 0, 64, 62
2, 263235, Control_c, 0, 64, 61
2, 263265, Control_c, 0, 64, 61
2, 263296, Control_c, 0, 64, 60
2, 263317, Note_on_c, 0, 54, 84
2, 263327, Control_c, 0, 64, 60
2, 263327, Note_on_c, 0, 66, 88
2, 263380, Control_c, 0, 64, 59
2, 263395, Control_c, 0, 64, 59
2, 263456, Control_c, 0, 64, 58
2, 263462, Note_on_c, 0, 53, 0
2, 263537, Note_on_c, 0, 56, 76
2, 263547, Note_on_c, 0, 65, 85
2, 263586, Note_on_c, 0, 68, 0
2, 263594, Note_on_c, 0, 70, 0
2, 263610, Note_on_c, 0, 66, 0
2, 263640, Control_c, 0, 64, 59
2, 263731, Control_c, 0, 64, 58
2, 263746, Control_c, 0, 64, 56
2, 263761, Control_c, 0, 64, 50
2, 263774, Note_on_c, 0, 66, 83
2, 263776, Control_c, 0, 64, 27
2, 263776, Note_on_c, 0, 69, 76
2, 263785, Note_on_c, 0, 57, 83
2, 263791, Control_c, 0, 64, 0
2, 263818, Note_on_c, 0, 65, 0
2, 263827, Note_on_c, 0, 54, 0
2, 263858, Note_on_c, 0, 56, 0
2, 263986, Note_on_c, 0, 56, 84
2, 264005, Control_c, 0, 64, 34
2, 264019, Control_c, 0, 64, 52
2, 264034, Control_c, 0, 64, 58
2, 264046, Note_on_c, 0, 57, 0
2, 264050, Control_c, 0, 64, 61
2, 264065, Control_c, 0, 64, 63
2, 264081, Control_c, 0, 64, 64
2, 264095, Control_c, 0, 64, 67
2, 264110, Control_c, 0, 64, 69
2, 264134, Control_c, 0, 64, 72
2, 264149, Control_c, 0, 64, 76
2, 264165, Control_c, 0, 64, 79
2, 264180, Control_c, 0, 64, 82
2, 264195, Control_c, 0, 64, 84
2, 264210, Control_c, 0, 64, 86
2, 264225, Control_c, 0, 64, 88
2, 264237, Note_on_c, 0, 57, 97
2, 264241, Control_c, 0, 64, 89
2, 264255, Control_c, 0, 64, 90
2, 264270, Control_c, 0, 64, 91
2, 264283, Note_on_c, 0, 56, 0
2, 264316, Control_c, 0, 64, 91
2, 264347, Control_c, 0, 64, 92
2, 264363, Control_c, 0, 64, 94
2, 264377, Control_c, 0, 64, 95
2, 264392, Control_c, 0, 64, 97
2, 264408, Control_c, 0, 64, 97
2, 264419, Note_on_c, 0, 57, 0
2, 264423, Control_c, 0, 64, 98
2, 264468, Control_c, 0, 64, 98
2, 264470, Note_on_c, 0, 59, 92
2, 264517, Control_c, 0, 64, 99
2, 264531, Control_c, 0, 64, 100
2, 264546, Control_c, 0, 64, 101
2, 264562, Control_c, 0, 64, 103
2, 264577, Control_c, 0, 64, 106
2, 264591, Control_c, 0, 64, 108
2, 264607, Control_c, 0, 64, 110
2, 264622, Control_c, 0, 64, 110
2, 264640, Control_c, 0, 64, 111
2, 264655, Control_c, 0, 64, 111
2, 264670, Control_c, 0, 64, 112
2, 264685, Control_c, 0, 64, 113
2, 264700, Control_c, 0, 64, 114
2, 264716, Control_c, 0, 64, 114
2, 264746, Control_c, 0, 64, 117
2, 264761, Control_c, 0, 64, 122
2, 264776, Control_c, 0, 64, 127
2, 264813, Note_on_c, 0, 66, 0
2, 264830, Note_on_c, 0, 37, 99
2, 264832, Note_on_c, 0, 66, 50
2, 264837, Note_on_c, 0, 61, 88
2, 264838, Control_c, 0, 64, 108
2, 264838, Note_on_c, 0, 68, 80
2, 264853, Control_c, 0, 64, 92
2, 264868, Control_c, 0, 64, 77
2, 264878, Note_on_c, 0, 59, 0
2, 264883, Control_c, 0, 64, 63
2, 264906, Control_c, 0, 64, 0
2, 264934, Note_on_c, 0, 69, 0
2, 265119, Control_c, 0, 64, 49
2, 265134, Control_c, 0, 64, 61
2, 265150, Control_c, 0, 64, 64
2, 265165, Control_c, 0, 64, 67
2, 265180, Control_c, 0, 64, 68
2, 265196, Control_c, 0, 64, 69
2, 265205, Note_on_c, 0, 60, 79
2, 265226, Control_c, 0, 64, 69
2, 265241, Control_c, 0, 64, 70
2, 265246, Note_on_c, 0, 61, 0
2, 265256, Control_c, 0, 64, 71
2, 265272, Control_c, 0, 64, 72
2, 265377, Control_c, 0, 64, 72
2, 265430, Note_on_c, 0, 61, 87
2, 265437, Note_on_c, 0, 66, 0
2, 265486, Note_on_c, 0, 60, 0
2, 265529, Control_c, 0, 64, 72
2, 265560, Control_c, 0, 64, 73
2, 265620, Note_on_c, 0, 63, 88
2, 265636, Control_c, 0, 64, 74
2, 265651, Control_c, 0, 64, 75
2, 265671, Note_on_c, 0, 61, 0
2, 265674, Control_c, 0, 64, 76
2, 265689, Control_c, 0, 64, 77
2, 265704, Control_c, 0, 64, 79
2, 265719, Control_c, 0, 64, 80
2, 265734, Control_c, 0, 64, 81
2, 265750, Control_c, 0, 64, 83
2, 265766, Control_c, 0, 64, 84
2, 265781, Control_c, 0, 64, 84
2, 265797, Control_c, 0, 64, 77
2, 265812, Control_c, 0, 64, 65
2, 265827, Control_c, 0, 64, 21
2, 265842, Control_c, 0, 64, 0
2, 265852, Note_on_c, 0, 64, 86
2, 265935, Note_on_c, 0, 63, 0
2, 265963, Control_c, 0, 64, 36
2, 265978, Control_c, 0, 64, 58
2, 265994, Control_c, 0, 64, 64
2, 266009, Control_c, 0, 64, 67
2, 266023, Control_c, 0, 64, 69
2, 266039, Control_c, 0, 64, 72
2, 266054, Control_c, 0, 64, 73
2, 266066, Note_on_c, 0, 63, 76
2, 266070, Control_c, 0, 64, 75
2, 266085, Control_c, 0, 64, 76
2, 266100, Control_c, 0, 64, 77
2, 266116, Control_c, 0, 64, 78
2, 266124, Note_on_c, 0, 64, 0
2, 266131, Control_c, 0, 64, 79
2, 266146, Control_c, 0, 64, 81
2, 266161, Control_c, 0, 64, 83
2, 266176, Control_c, 0, 64, 85
2, 266192, Control_c, 0, 64, 87
2, 266207, Control_c, 0, 64, 90
2, 266221, Control_c, 0, 64, 92
2, 266237, Control_c, 0, 64, 95
2, 266252, Control_c, 0, 64, 97
2, 266268, Control_c, 0, 64, 99
2, 266276, Note_on_c, 0, 64, 87
2, 266282, Control_c, 0, 64, 100
2, 266297, Control_c, 0, 64, 102
2, 266313, Control_c, 0, 64, 103
2, 266328, Control_c, 0, 64, 105
2, 266343, Control_c, 0, 64, 106
2, 266358, Control_c, 0, 64, 107
2, 266373, Control_c, 0, 64, 108
2, 266384, Note_on_c, 0, 63, 0
2, 266389, Control_c, 0, 64, 109
2, 266394, Note_on_c, 0, 68, 0
2, 266403, Control_c, 0, 64, 111
2, 266418, Control_c, 0, 64, 113
2, 266442, Control_c, 0, 64, 116
2, 266457, Control_c, 0, 64, 119
2, 266473, Control_c, 0, 64, 121
2, 266476, Note_on_c, 0, 66, 82
2, 266487, Control_c, 0, 64, 122
2, 266502, Control_c, 0, 64, 124
2, 266518, Control_c, 0, 64, 127
2, 266685, Control_c, 0, 64, 108
2, 266694, Note_on_c, 0, 37, 0
2, 266700, Control_c, 0, 64, 86
2, 266713, Note_on_c, 0, 36, 96
2, 266715, Control_c, 0, 64, 68
2, 266730, Control_c, 0, 64, 0
2, 266744, Note_on_c, 0, 63, 76
2, 266746, Note_on_c, 0, 68, 75
2, 266760, Note_on_c, 0, 38, 30
2, 266761, Note_on_c, 0, 38, 0
2, 266779, Note_on_c, 0, 64, 0
2, 266788, Note_on_c, 0, 66, 0
2, 266883, Control_c, 0, 64, 23
2, 266898, Control_c, 0, 64, 55
2, 266913, Control_c, 0, 64, 62
2, 266928, Control_c, 0, 64, 65
2, 266943, Control_c, 0, 64, 67
2, 266957, Note_on_c, 0, 66, 68
2, 266959, Control_c, 0, 64, 68
2, 266974, Control_c, 0, 64, 70
2, 266990, Control_c, 0, 64, 73
2, 267001, Note_on_c, 0, 68, 0
2, 267004, Control_c, 0, 64, 76
2, 267019, Control_c, 0, 64, 79
2, 267035, Control_c, 0, 64, 80
2, 267049, Control_c, 0, 64, 82
2, 267064, Control_c, 0, 64, 83
2, 267095, Control_c, 0, 64, 83
2, 267111, Control_c, 0, 64, 84
2, 267125, Control_c, 0, 64, 85
2, 267140, Control_c, 0, 64, 86
2, 267156, Control_c, 0, 64, 87
2, 267171, Control_c, 0, 64, 87
2, 267177, Note_on_c, 0, 44, 93
2, 267187, Control_c, 0, 64, 88
2, 267203, Note_on_c, 0, 68, 73
2, 267209, Control_c, 0, 64, 88
2, 267224, Control_c, 0, 64, 89
2, 267240, Control_c, 0, 64, 91
2, 267254, Control_c, 0, 64, 94
2, 267270, Control_c, 0, 64, 96
2, 267285, Control_c, 0, 64, 98
2, 267300, Control_c, 0, 64, 100
2, 267317, Control_c, 0, 64, 102
2, 267331, Control_c, 0, 64, 104
2, 267347, Control_c, 0, 64, 106
2, 267362, Control_c, 0, 64, 109
2, 267372, Note_on_c, 0, 66, 0
2, 267377, Control_c, 0, 64, 110
2, 267387, Note_on_c, 0, 69, 69
2, 267393, Control_c, 0, 64, 111
2, 267424, Control_c, 0, 64, 111
2, 267428, Note_on_c, 0, 68, 0
2, 267454, Control_c, 0, 64, 112
2, 267484, Control_c, 0, 64, 113
2, 267499, Control_c, 0, 64, 114
2, 267515, Control_c, 0, 64, 115
2, 267530, Control_c, 0, 64, 116
2, 267546, Control_c, 0, 64, 118
2, 267560, Control_c, 0, 64, 119
2, 267575, Control_c, 0, 64, 116
2, 267576, Note_on_c, 0, 44, 0
2, 267591, Control_c, 0, 64, 104
2, 267606, Control_c, 0, 64, 89
2, 267621, Control_c, 0, 64, 72
2, 267626, Note_on_c, 0, 40, 84
2, 267629, Note_on_c, 0, 49, 93
2, 267636, Control_c, 0, 64, 48
2, 267645, Note_on_c, 0, 36, 0
2, 267647, Note_on_c, 0, 61, 72
2, 267651, Control_c, 0, 64, 0
2, 267653, Note_on_c, 0, 68, 69
2, 267687, Note_on_c, 0, 63, 0
2, 267818, Control_c, 0, 64, 28
2, 267834, Control_c, 0, 64, 50
2, 267849, Control_c, 0, 64, 56
2, 267858, Note_on_c, 0, 66, 65
2, 267864, Control_c, 0, 64, 59
2, 267880, Control_c, 0, 64, 61
2, 267894, Control_c, 0, 64, 63
2, 267895, Note_on_c, 0, 49, 0
2, 267910, Control_c, 0, 64, 64
2, 267925, Control_c, 0, 64, 65
2, 267940, Control_c, 0, 64, 65
2, 267977, Control_c, 0, 64, 66
2, 267981, Note_on_c, 0, 69, 0
2, 268008, Control_c, 0, 64, 67
2, 268023, Control_c, 0, 64, 68
2, 268039, Control_c, 0, 64, 70
2, 268054, Control_c, 0, 64, 72
2, 268070, Control_c, 0, 64, 73
2, 268071, Note_on_c, 0, 68, 0
2, 268083, Control_c, 0, 64, 75
2, 268097, Control_c, 0, 64, 76
2, 268097, Note_on_c, 0, 49, 90
2, 268101, Note_on_c, 0, 64, 65
2, 268147, Note_on_c, 0, 66, 0
2, 268188, Control_c, 0, 64, 76
2, 268276, Note_on_c, 0, 61, 0
2, 268296, Control_c, 0, 64, 77
2, 268329, Note_on_c, 0, 68, 68
2, 268387, Control_c, 0, 64, 78
2, 268391, Note_on_c, 0, 49, 0
2, 268402, Control_c, 0, 64, 79
2, 268417, Control_c, 0, 64, 80
2, 268433, Control_c, 0, 64, 82
2, 268448, Control_c, 0, 64, 83
2, 268463, Control_c, 0, 64, 85
2, 268478, Control_c, 0, 64, 87
2, 268493, Control_c, 0, 64, 89
2, 268508, Control_c, 0, 64, 88
2, 268523, Control_c, 0, 64, 77
2, 268538, Control_c, 0, 64, 64
2, 268539, Note_on_c, 0, 39, 85
2, 268541, Note_on_c, 0, 49, 90
2, 268554, Control_c, 0, 64, 0
2, 268554, Note_on_c, 0, 66, 72
2, 268560, Note_on_c, 0, 64, 0
2, 268569, Note_on_c, 0, 63, 43
2, 268636, Note_on_c, 0, 40, 0
2, 268695, Note_on_c, 0, 68, 0
2, 268722, Control_c, 0, 64, 47
2, 268743, Control_c, 0, 64, 59
2, 268759, Control_c, 0, 64, 63
2, 268774, Control_c, 0, 64, 64
2, 268776, Note_on_c, 0, 64, 62
2, 268789, Control_c, 0, 64, 66
2, 268805, Control_c, 0, 64, 68
2, 268812, Note_on_c, 0, 66, 0
2, 268819, Control_c, 0, 64, 71
2, 268835, Control_c, 0, 64, 75
2, 268850, Control_c, 0, 64, 78
2, 268865, Control_c, 0, 64, 81
2, 268881, Control_c, 0, 64, 84
2, 268887, Note_on_c, 0, 49, 0
2, 268892, Note_on_c, 0, 46, 31
2, 268895, Control_c, 0, 64, 85
2, 268910, Control_c, 0, 64, 87
2, 268926, Control_c, 0, 64, 86
2, 268941, Control_c, 0, 64, 80
2, 268957, Control_c, 0, 64, 70
2, 268959, Note_on_c, 0, 46, 0
2, 268972, Control_c, 0, 64, 52
2, 268972, Note_on_c, 0, 48, 88
2, 268987, Control_c, 0, 64, 0
2, 269002, Note_on_c, 0, 66, 68
2, 269125, Control_c, 0, 64, 41
2, 269140, Control_c, 0, 64, 54
2, 269156, Control_c, 0, 64, 60
2, 269170, Control_c, 0, 64, 63
2, 269185, Control_c, 0, 64, 64
2, 269196, Note_on_c, 0, 46, 84
2, 269201, Control_c, 0, 64, 64
2, 269215, Note_on_c, 0, 68, 62
2, 269233, Note_on_c, 0, 64, 0
2, 269251, Note_on_c, 0, 66, 0
2, 269255, Note_on_c, 0, 48, 0
2, 269277, Control_c, 0, 64, 65
2, 269292, Control_c, 0, 64, 65
2, 269307, Control_c, 0, 64, 66
2, 269322, Control_c, 0, 64, 68
2, 269337, Control_c, 0, 64, 70
2, 269353, Control_c, 0, 64, 72
2, 269367, Control_c, 0, 64, 71
2, 269382, Control_c, 0, 64, 67
2, 269398, Control_c, 0, 64, 60
2, 269413, Control_c, 0, 64, 34
2, 269428, Control_c, 0, 64, 0
2, 269431, Note_on_c, 0, 48, 86
2, 269448, Note_on_c, 0, 66, 72
2, 269486, Note_on_c, 0, 68, 0
2, 269505, Note_on_c, 0, 46, 0
2, 269566, Note_on_c, 0, 63, 0
2, 269634, Control_c, 0, 64, 25
2, 269649, Control_c, 0, 64, 54
2, 269657, Note_on_c, 0, 64, 69
2, 269663, Control_c, 0, 64, 62
2, 269679, Control_c, 0, 64, 67
2, 269694, Control_c, 0, 64, 70
2, 269704, Note_on_c, 0, 66, 0
2, 269708, Control_c, 0, 64, 74
2, 269724, Control_c, 0, 64, 77
2, 269739, Control_c, 0, 64, 80
2, 269755, Control_c, 0, 64, 83
2, 269770, Control_c, 0, 64, 86
2, 269785, Control_c, 0, 64, 89
2, 269801, Control_c, 0, 64, 91
2, 269816, Control_c, 0, 64, 93
2, 269831, Control_c, 0, 64, 94
2, 269878, Control_c, 0, 64, 94
2, 269883, Note_on_c, 0, 63, 76
2, 269907, Control_c, 0, 64, 95
2, 269924, Note_on_c, 0, 64, 0
2, 269925, Note_on_c, 0, 48, 0
2, 269938, Control_c, 0, 64, 95
2, 269954, Control_c, 0, 64, 96
2, 269969, Control_c, 0, 64, 97
2, 269984, Control_c, 0, 64, 98
2, 270000, Control_c, 0, 64, 99
2, 270014, Control_c, 0, 64, 100
2, 270062, Control_c, 0, 64, 101
2, 270072, Note_on_c, 0, 66, 82
2, 270110, Note_on_c, 0, 63, 0
2, 270123, Control_c, 0, 64, 101
2, 270168, Control_c, 0, 64, 102
2, 270213, Control_c, 0, 64, 102
2, 270229, Control_c, 0, 64, 103
2, 270244, Control_c, 0, 64, 103
2, 270259, Control_c, 0, 64, 104
2, 270283, Control_c, 0, 64, 102
2, 270297, Control_c, 0, 64, 94
2, 270313, Control_c, 0, 64, 78
2, 270317, Note_on_c, 0, 37, 83
2, 270323, Note_on_c, 0, 49, 90
2, 270323, Note_on_c, 0, 73, 88
2, 270328, Control_c, 0, 64, 62
2, 270337, Note_on_c, 0, 64, 77
2, 270343, Control_c, 0, 64, 0
2, 270373, Note_on_c, 0, 39, 0
2, 270407, Note_on_c, 0, 66, 0
2, 270467, Control_c, 0, 64, 38
2, 270482, Control_c, 0, 64, 55
2, 270497, Control_c, 0, 64, 61
2, 270512, Control_c, 0, 64, 63
2, 270527, Control_c, 0, 64, 64
2, 270543, Control_c, 0, 64, 65
2, 270557, Control_c, 0, 64, 65
2, 270562, Note_on_c, 0, 63, 66
2, 270566, Note_on_c, 0, 37, 0
2, 270588, Control_c, 0, 64, 65
2, 270661, Note_on_c, 0, 64, 0
2, 270664, Control_c, 0, 64, 65
2, 270752, Note_on_c, 0, 37, 86
2, 270781, Note_on_c, 0, 64, 72
2, 270802, Control_c, 0, 64, 66
2, 270893, Control_c, 0, 64, 66
2, 270939, Control_c, 0, 64, 67
2, 270939, Note_on_c, 0, 39, 79
2, 270955, Note_on_c, 0, 63, 0
2, 270961, Note_on_c, 0, 66, 73
2, 270969, Control_c, 0, 64, 67
2, 270987, Note_on_c, 0, 37, 0
2, 271022, Note_on_c, 0, 64, 0
2, 271068, Control_c, 0, 64, 68
2, 271099, Control_c, 0, 64, 69
2, 271114, Control_c, 0, 64, 70
2, 271129, Control_c, 0, 64, 71
2, 271144, Control_c, 0, 64, 70
2, 271159, Control_c, 0, 64, 67
2, 271174, Control_c, 0, 64, 57
2, 271187, Note_on_c, 0, 40, 72
2, 271190, Control_c, 0, 64, 0
2, 271200, Note_on_c, 0, 64, 75
2, 271231, Note_on_c, 0, 39, 0
2, 271271, Note_on_c, 0, 66, 0
2, 271416, Note_on_c, 0, 63, 80
2, 271426, Note_on_c, 0, 64, 0
2, 271432, Control_c, 0, 64, 38
2, 271447, Control_c, 0, 64, 53
2, 271463, Control_c, 0, 64, 58
2, 271477, Control_c, 0, 64, 60
2, 271492, Control_c, 0, 64, 60
2, 271509, Control_c, 0, 64, 61
2, 271524, Control_c, 0, 64, 62
2, 271540, Control_c, 0, 64, 64
2, 271555, Control_c, 0, 64, 66
2, 271570, Control_c, 0, 64, 70
2, 271585, Control_c, 0, 64, 74
2, 271600, Control_c, 0, 64, 76
2, 271615, Control_c, 0, 64, 72
2, 271616, Note_on_c, 0, 42, 85
2, 271624, Note_on_c, 0, 61, 85
2, 271630, Control_c, 0, 64, 64
2, 271635, Note_on_c, 0, 63, 0
2, 271645, Control_c, 0, 64, 32
2, 271654, Note_on_c, 0, 40, 0
2, 271661, Control_c, 0, 64, 0
2, 271753, Control_c, 0, 64, 46
2, 271767, Control_c, 0, 64, 61
2, 271783, Control_c, 0, 64, 65
2, 271798, Control_c, 0, 64, 69
2, 271818, Control_c, 0, 64, 73
2, 271833, Note_on_c, 0, 64, 82
2, 271834, Control_c, 0, 64, 77
2, 271839, Note_on_c, 0, 73, 0
2, 271848, Control_c, 0, 64, 82
2, 271863, Control_c, 0, 64, 87
2, 271866, Note_on_c, 0, 61, 0
2, 271879, Control_c, 0, 64, 91
2, 271894, Control_c, 0, 64, 92
2, 271955, Control_c, 0, 64, 94
2, 271970, Control_c, 0, 64, 96
2, 271986, Control_c, 0, 64, 101
2, 272001, Control_c, 0, 64, 107
2, 272016, Control_c, 0, 64, 110
2, 272032, Control_c, 0, 64, 108
2, 272046, Control_c, 0, 64, 96
2, 272061, Control_c, 0, 64, 82
2, 272072, Note_on_c, 0, 72, 77
2, 272077, Control_c, 0, 64, 66
2, 272087, Note_on_c, 0, 63, 89
2, 272092, Control_c, 0, 64, 24
2, 272097, Note_on_c, 0, 44, 75
2, 272108, Control_c, 0, 64, 0
2, 272129, Note_on_c, 0, 64, 0
2, 272138, Note_on_c, 0, 42, 0
2, 272144, Note_on_c, 0, 49, 0
2, 272182, Control_c, 0, 64, 20
2, 272198, Control_c, 0, 64, 40
2, 272213, Control_c, 0, 64, 51
2, 272229, Control_c, 0, 64, 58
2, 272243, Control_c, 0, 64, 62
2, 272258, Control_c, 0, 64, 64
2, 272274, Control_c, 0, 64, 66
2, 272285, Note_on_c, 0, 42, 76
2, 272289, Control_c, 0, 64, 67
2, 272304, Control_c, 0, 64, 68
2, 272321, Control_c, 0, 64, 68
2, 272335, Note_on_c, 0, 44, 0
2, 272351, Control_c, 0, 64, 68
2, 272381, Control_c, 0, 64, 67
2, 272396, Control_c, 0, 64, 67
2, 272427, Control_c, 0, 64, 66
2, 272472, Control_c, 0, 64, 66
2, 272531, Note_on_c, 0, 68, 86
2, 272534, Note_on_c, 0, 44, 80
2, 272550, Note_on_c, 0, 63, 0
2, 272730, Note_on_c, 0, 45, 75
2, 272769, Note_on_c, 0, 44, 0
2, 272812, Control_c, 0, 64, 65
2, 272903, Control_c, 0, 64, 64
2, 272919, Control_c, 0, 64, 61
2, 272934, Control_c, 0, 64, 53
2, 272949, Control_c, 0, 64, 43
2, 272953, Note_on_c, 0, 76, 90
2, 272957, Note_on_c, 0, 73, 81
2, 272964, Control_c, 0, 64, 23
2, 272975, Note_on_c, 0, 44, 74
2, 272979, Control_c, 0, 64, 0
2, 272980, Note_on_c, 0, 72, 0
2, 272987, Note_on_c, 0, 42, 0
2, 273056, Note_on_c, 0, 45, 0
2, 273100, Control_c, 0, 64, 14
2, 273116, Control_c, 0, 64, 36
2, 273132, Control_c, 0, 64, 49
2, 273147, Control_c, 0, 64, 57
2, 273163, Control_c, 0, 64, 60
2, 273169, Note_on_c, 0, 42, 75
2, 273178, Control_c, 0, 64, 62
2, 273193, Control_c, 0, 64, 62
2, 273208, Control_c, 0, 64, 63
2, 273223, Control_c, 0, 64, 63
2, 273238, Control_c, 0, 64, 64
2, 273244, Note_on_c, 0, 73, 0
2, 273251, Note_on_c, 0, 44, 0
2, 273368, Control_c, 0, 64, 64
2, 273407, Note_on_c, 0, 40, 70
2, 273412, Note_on_c, 0, 73, 81
2, 273434, Note_on_c, 0, 42, 0
2, 273522, Note_on_c, 0, 68, 0
2, 273591, Note_on_c, 0, 44, 76
2, 273641, Control_c, 0, 64, 65
2, 273671, Control_c, 0, 64, 65
2, 273687, Control_c, 0, 64, 66
2, 273701, Control_c, 0, 64, 67
2, 273705, Note_on_c, 0, 73, 0
2, 273717, Control_c, 0, 64, 69
2, 273732, Control_c, 0, 64, 71
2, 273747, Control_c, 0, 64, 74
2, 273763, Control_c, 0, 64, 76
2, 273777, Control_c, 0, 64, 77
2, 273793, Control_c, 0, 64, 74
2, 273808, Control_c, 0, 64, 69
2, 273819, Note_on_c, 0, 42, 80
2, 273820, Note_on_c, 0, 73, 84
2, 273821, Note_on_c, 0, 75, 87
2, 273823, Control_c, 0, 64, 60
2, 273839, Control_c, 0, 64, 25
2, 273853, Control_c, 0, 64, 0
2, 273860, Note_on_c, 0, 76, 0
2, 273866, Note_on_c, 0, 40, 0
2, 274021, Note_on_c, 0, 40, 72
2, 274034, Note_on_c, 0, 44, 0
2, 274055, Note_on_c, 0, 42, 0
2, 274197, Control_c, 0, 64, 12
2, 274211, Control_c, 0, 64, 15
2, 274227, Control_c, 0, 64, 18
2, 274243, Control_c, 0, 64, 20
2, 274255, Note_on_c, 0, 42, 73
2, 274256, Control_c, 0, 64, 21
2, 274258, Note_on_c, 0, 72, 77
2, 274271, Control_c, 0, 64, 22
2, 274288, Note_on_c, 0, 73, 0
2, 274301, Control_c, 0, 64, 23
2, 274453, Control_c, 0, 64, 22
2, 274459, Note_on_c, 0, 44, 71
2, 274464, Note_on_c, 0, 70, 75
2, 274480, Note_on_c, 0, 42, 0
2, 274484, Control_c, 0, 64, 20
2, 274498, Control_c, 0, 64, 8
2, 274509, Note_on_c, 0, 72, 0
2, 274513, Control_c, 0, 64, 0
2, 274677, Note_on_c, 0, 42, 73
2, 274684, Note_on_c, 0, 40, 0
2, 274684, Note_on_c, 0, 72, 79
2, 274893, Note_on_c, 0, 40, 71
2, 274893, Note_on_c, 0, 73, 77
2, 274915, Control_c, 0, 64, 8
2, 274917, Note_on_c, 0, 44, 0
2, 274930, Control_c, 0, 64, 15
2, 274942, Note_on_c, 0, 75, 0
2, 274945, Control_c, 0, 64, 20
2, 274960, Control_c, 0, 64, 25
2, 274976, Control_c, 0, 64, 30
2, 274990, Control_c, 0, 64, 36
2, 275005, Control_c, 0, 64, 39
2, 275021, Control_c, 0, 64, 41
2, 275036, Control_c, 0, 64, 42
2, 275097, Control_c, 0, 64, 42
2, 275099, Note_on_c, 0, 75, 85
2, 275104, Note_on_c, 0, 39, 79
2, 275104, Note_on_c, 0, 42, 0
2, 275124, Note_on_c, 0, 72, 0
2, 275150, Note_on_c, 0, 40, 0
2, 275173, Control_c, 0, 64, 43
2, 275174, Note_on_c, 0, 73, 0
2, 275221, Note_on_c, 0, 70, 0
2, 275233, Control_c, 0, 64, 43
2, 275249, Control_c, 0, 64, 44
2, 275293, Note_on_c, 0, 42, 81
2, 275298, Note_on_c, 0, 72, 78
2, 275324, Control_c, 0, 64, 44
2, 275370, Control_c, 0, 64, 45
2, 275385, Control_c, 0, 64, 46
2, 275400, Control_c, 0, 64, 48
2, 275416, Control_c, 0, 64, 50
2, 275431, Control_c, 0, 64, 54
2, 275434, Note_on_c, 0, 39, 0
2, 275447, Control_c, 0, 64, 56
2, 275461, Control_c, 0, 64, 55
2, 275476, Control_c, 0, 64, 50
2, 275492, Control_c, 0, 64, 41
2, 275507, Control_c, 0, 64, 19
2, 275521, Note_on_c, 0, 40, 80
2, 275522, Control_c, 0, 64, 0
2, 275536, Note_on_c, 0, 68, 77
2, 275571, Note_on_c, 0, 42, 0
2, 275669, Note_on_c, 0, 72, 0
2, 275697, Control_c, 0, 64, 32
2, 275712, Control_c, 0, 64, 60
2, 275728, Control_c, 0, 64, 67
2, 275743, Control_c, 0, 64, 72
2, 275758, Control_c, 0, 64, 78
2, 275764, Note_on_c, 0, 66, 73
2, 275773, Control_c, 0, 64, 83
2, 275788, Control_c, 0, 64, 85
2, 275803, Control_c, 0, 64, 87
2, 275808, Note_on_c, 0, 68, 0
2, 275819, Control_c, 0, 64, 87
2, 275864, Control_c, 0, 64, 87
2, 275879, Control_c, 0, 64, 87
2, 275909, Control_c, 0, 64, 88
2, 275924, Control_c, 0, 64, 89
2, 275955, Control_c, 0, 64, 89
2, 275970, Control_c, 0, 64, 85
2, 275985, Control_c, 0, 64, 78
2, 276000, Control_c, 0, 64, 68
2, 276016, Control_c, 0, 64, 51
2, 276030, Note_on_c, 0, 68, 69
2, 276031, Control_c, 0, 64, 0
2, 276048, Note_on_c, 0, 52, 92
2, 276053, Note_on_c, 0, 66, 0
2, 276121, Control_c, 0, 64, 16
2, 276137, Control_c, 0, 64, 54
2, 276152, Control_c, 0, 64, 64
2, 276168, Control_c, 0, 64, 71
2, 276178, Note_on_c, 0, 40, 0
2, 276183, Control_c, 0, 64, 78
2, 276198, Control_c, 0, 64, 87
2, 276214, Control_c, 0, 64, 99
2, 276228, Control_c, 0, 64, 112
2, 276230, Note_on_c, 0, 75, 0
2, 276238, Note_on_c, 0, 69, 72
2, 276243, Control_c, 0, 64, 116
2, 276259, Control_c, 0, 64, 114
2, 276268, Note_on_c, 0, 68, 0
2, 276290, Control_c, 0, 64, 115
2, 276304, Control_c, 0, 64, 116
2, 276319, Control_c, 0, 64, 118
2, 276335, Control_c, 0, 64, 121
2, 276350, Control_c, 0, 64, 127
2, 276465, Control_c, 0, 64, 105
2, 276480, Control_c, 0, 64, 86
2, 276495, Control_c, 0, 64, 68
2, 276496, Note_on_c, 0, 57, 90
2, 276503, Note_on_c, 0, 73, 69
2, 276510, Control_c, 0, 64, 43
2, 276516, Note_on_c, 0, 68, 65
2, 276525, Control_c, 0, 64, 0
2, 276535, Note_on_c, 0, 52, 0
2, 276544, Note_on_c, 0, 69, 0
2, 276586, Control_c, 0, 64, 41
2, 276601, Control_c, 0, 64, 57
2, 276617, Control_c, 0, 64, 64
2, 276632, Control_c, 0, 64, 69
2, 276648, Control_c, 0, 64, 74
2, 276662, Control_c, 0, 64, 80
2, 276677, Control_c, 0, 64, 86
2, 276693, Control_c, 0, 64, 91
2, 276705, Note_on_c, 0, 66, 65
2, 276708, Control_c, 0, 64, 98
2, 276723, Control_c, 0, 64, 103
2, 276738, Control_c, 0, 64, 106
2, 276753, Control_c, 0, 64, 107
2, 276785, Note_on_c, 0, 57, 0
2, 276799, Control_c, 0, 64, 107
2, 276814, Control_c, 0, 64, 108
2, 276829, Control_c, 0, 64, 110
2, 276844, Control_c, 0, 64, 113
2, 276860, Control_c, 0, 64, 116
2, 276874, Control_c, 0, 64, 119
2, 276887, Note_on_c, 0, 68, 0
2, 276890, Control_c, 0, 64, 122
2, 276920, Control_c, 0, 64, 111
2, 276936, Control_c, 0, 64, 96
2, 276950, Control_c, 0, 64, 82
2, 276953, Note_on_c, 0, 57, 91
2, 276959, Note_on_c, 0, 64, 61
2, 276965, Control_c, 0, 64, 69
2, 276981, Control_c, 0, 64, 58
2, 276996, Control_c, 0, 64, 51
2, 277027, Control_c, 0, 64, 55
2, 277042, Control_c, 0, 64, 60
2, 277057, Control_c, 0, 64, 63
2, 277057, Note_on_c, 0, 66, 0
2, 277072, Control_c, 0, 64, 66
2, 277088, Control_c, 0, 64, 69
2, 277103, Control_c, 0, 64, 73
2, 277118, Control_c, 0, 64, 79
2, 277124, Note_on_c, 0, 57, 0
2, 277134, Control_c, 0, 64, 84
2, 277148, Control_c, 0, 64, 88
2, 277163, Control_c, 0, 64, 93
2, 277164, Note_on_c, 0, 68, 65
2, 277186, Control_c, 0, 64, 98
2, 277201, Control_c, 0, 64, 100
2, 277217, Control_c, 0, 64, 101
2, 277263, Control_c, 0, 64, 102
2, 277278, Control_c, 0, 64, 103
2, 277294, Control_c, 0, 64, 104
2, 277308, Control_c, 0, 64, 107
2, 277323, Control_c, 0, 64, 109
2, 277339, Control_c, 0, 64, 111
2, 277354, Control_c, 0, 64, 112
2, 277357, Note_on_c, 0, 64, 0
2, 277370, Control_c, 0, 64, 108
2, 277384, Control_c, 0, 64, 99
2, 277399, Control_c, 0, 64, 87
2, 277407, Note_on_c, 0, 57, 83
2, 277415, Control_c, 0, 64, 74
2, 277430, Control_c, 0, 64, 63
2, 277430, Note_on_c, 0, 66, 62
2, 277445, Control_c, 0, 64, 39
2, 277461, Control_c, 0, 64, 32
2, 277492, Control_c, 0, 64, 32
2, 277507, Control_c, 0, 64, 41
2, 277521, Control_c, 0, 64, 51
2, 277537, Control_c, 0, 64, 60
2, 277552, Control_c, 0, 64, 64
2, 277568, Control_c, 0, 64, 68
2, 277583, Control_c, 0, 64, 72
2, 277597, Control_c, 0, 64, 77
2, 277613, Control_c, 0, 64, 82
2, 277628, Control_c, 0, 64, 85
2, 277629, Note_on_c, 0, 64, 63
2, 277643, Control_c, 0, 64, 89
2, 277654, Note_on_c, 0, 66, 0
2, 277658, Control_c, 0, 64, 91
2, 277673, Control_c, 0, 64, 94
2, 277689, Control_c, 0, 64, 96
2, 277693, Note_on_c, 0, 68, 0
2, 277704, Control_c, 0, 64, 97
2, 277718, Control_c, 0, 64, 99
2, 277734, Control_c, 0, 64, 100
2, 277749, Control_c, 0, 64, 102
2, 277764, Control_c, 0, 64, 104
2, 277780, Control_c, 0, 64, 105
2, 277794, Control_c, 0, 64, 104
2, 277810, Control_c, 0, 64, 100
2, 277822, Note_on_c, 0, 56, 77
2, 277825, Control_c, 0, 64, 92
2, 277837, Note_on_c, 0, 66, 74
2, 277840, Control_c, 0, 64, 81
2, 277856, Control_c, 0, 64, 69
2, 277870, Control_c, 0, 64, 62
2, 277885, Control_c, 0, 64, 56
2, 277906, Note_on_c, 0, 57, 0
2, 277916, Control_c, 0, 64, 57
2, 277932, Control_c, 0, 64, 60
2, 277954, Control_c, 0, 64, 62
2, 277970, Control_c, 0, 64, 63
2, 277999, Control_c, 0, 64, 63
2, 278015, Control_c, 0, 64, 64
2, 278030, Control_c, 0, 64, 64
2, 278033, Note_on_c, 0, 54, 80
2, 278044, Note_on_c, 0, 68, 70
2, 278047, Control_c, 0, 64, 65
2, 278062, Control_c, 0, 64, 66
2, 278077, Control_c, 0, 64, 67
2, 278090, Note_on_c, 0, 73, 0
2, 278093, Control_c, 0, 64, 68
2, 278104, Note_on_c, 0, 56, 0
2, 278106, Note_on_c, 0, 66, 0
2, 278107, Control_c, 0, 64, 69
2, 278122, Control_c, 0, 64, 70
2, 278138, Control_c, 0, 64, 70
2, 278152, Control_c, 0, 64, 71
2, 278168, Control_c, 0, 64, 72
2, 278198, Control_c, 0, 64, 71
2, 278214, Control_c, 0, 64, 70
2, 278228, Control_c, 0, 64, 67
2, 278243, Control_c, 0, 64, 61
2, 278259, Control_c, 0, 64, 38
2, 278274, Control_c, 0, 64, 0
2, 278279, Note_on_c, 0, 56, 75
2, 278283, Note_on_c, 0, 72, 67
2, 278293, Note_on_c, 0, 66, 70
2, 278298, Note_on_c, 0, 64, 0
2, 278308, Note_on_c, 0, 54, 0
2, 278457, Control_c, 0, 64, 10
2, 278468, Note_on_c, 0, 68, 0
2, 278472, Control_c, 0, 64, 54
2, 278488, Control_c, 0, 64, 63
2, 278503, Control_c, 0, 64, 65
2, 278512, Note_on_c, 0, 64, 65
2, 278514, Note_on_c, 0, 66, 0
2, 278517, Control_c, 0, 64, 66
2, 278533, Control_c, 0, 64, 68
2, 278548, Control_c, 0, 64, 70
2, 278562, Control_c, 0, 64, 73
2, 278578, Control_c, 0, 64, 78
2, 278593, Control_c, 0, 64, 84
2, 278609, Control_c, 0, 64, 89
2, 278624, Control_c, 0, 64, 95
2, 278638, Control_c, 0, 64, 99
2, 278654, Control_c, 0, 64, 95
2, 278669, Control_c, 0, 64, 85
2, 278683, Control_c, 0, 64, 73
2, 278699, Control_c, 0, 64, 58
2, 278717, Note_on_c, 0, 44, 76
2, 278722, Control_c, 0, 64, 25
2, 278736, Note_on_c, 0, 63, 67
2, 278738, Control_c, 0, 64, 0
2, 278783, Control_c, 0, 64, 24
2, 278798, Control_c, 0, 64, 44
2, 278814, Control_c, 0, 64, 52
2, 278818, Note_on_c, 0, 64, 0
2, 278823, Note_on_c, 0, 56, 0
2, 278829, Control_c, 0, 64, 56
2, 278843, Control_c, 0, 64, 59
2, 278859, Control_c, 0, 64, 62
2, 278875, Control_c, 0, 64, 64
2, 278891, Control_c, 0, 64, 67
2, 278906, Control_c, 0, 64, 71
2, 278921, Control_c, 0, 64, 75
2, 278933, Note_on_c, 0, 66, 67
2, 278937, Control_c, 0, 64, 79
2, 278951, Control_c, 0, 64, 83
2, 278967, Control_c, 0, 64, 87
2, 278982, Control_c, 0, 64, 90
2, 278996, Control_c, 0, 64, 93
2, 279012, Control_c, 0, 64, 97
2, 279020, Note_on_c, 0, 63, 0
2, 279027, Control_c, 0, 64, 101
2, 279042, Control_c, 0, 64, 104
2, 279058, Control_c, 0, 64, 105
2, 279072, Control_c, 0, 64, 102
2, 279088, Control_c, 0, 64, 92
2, 279103, Control_c, 0, 64, 80
2, 279118, Control_c, 0, 64, 64
2, 279132, Note_on_c, 0, 66, 0
2, 279134, Control_c, 0, 64, 37
2, 279138, Note_on_c, 0, 49, 83
2, 279148, Control_c, 0, 64, 0
2, 279151, Note_on_c, 0, 64, 75
2, 279197, Note_on_c, 0, 44, 0
2, 279210, Control_c, 0, 64, 10
2, 279225, Control_c, 0, 64, 41
2, 279240, Control_c, 0, 64, 51
2, 279256, Control_c, 0, 64, 58
2, 279270, Control_c, 0, 64, 62
2, 279285, Control_c, 0, 64, 65
2, 279301, Control_c, 0, 64, 68
2, 279316, Control_c, 0, 64, 70
2, 279331, Control_c, 0, 64, 74
2, 279346, Control_c, 0, 64, 78
2, 279351, Note_on_c, 0, 68, 74
2, 279355, Note_on_c, 0, 64, 0
2, 279361, Control_c, 0, 64, 82
2, 279377, Control_c, 0, 64, 86
2, 279392, Control_c, 0, 64, 89
2, 279407, Control_c, 0, 64, 93
2, 279422, Control_c, 0, 64, 95
2, 279437, Control_c, 0, 64, 97
2, 279449, Note_on_c, 0, 72, 0
2, 279453, Control_c, 0, 64, 99
2, 279468, Control_c, 0, 64, 101
2, 279491, Control_c, 0, 64, 104
2, 279506, Control_c, 0, 64, 105
2, 279521, Control_c, 0, 64, 100
2, 279536, Control_c, 0, 64, 86
2, 279551, Control_c, 0, 64, 73
2, 279553, Note_on_c, 0, 47, 79
2, 279561, Note_on_c, 0, 73, 78
2, 279567, Control_c, 0, 64, 59
2, 279568, Note_on_c, 0, 69, 74
2, 279582, Control_c, 0, 64, 32
2, 279597, Control_c, 0, 64, 28
2, 279598, Note_on_c, 0, 68, 0
2, 279612, Control_c, 0, 64, 28
2, 279627, Control_c, 0, 64, 36
2, 279642, Control_c, 0, 64, 48
2, 279658, Control_c, 0, 64, 54
2, 279673, Control_c, 0, 64, 59
2, 279690, Control_c, 0, 64, 62
2, 279705, Control_c, 0, 64, 65
2, 279719, Control_c, 0, 64, 67
2, 279735, Control_c, 0, 64, 71
2, 279750, Control_c, 0, 64, 75
2, 279760, Note_on_c, 0, 75, 79
2, 279764, Control_c, 0, 64, 79
2, 279780, Control_c, 0, 64, 83
2, 279784, Note_on_c, 0, 71, 69
2, 279788, Note_on_c, 0, 69, 0
2, 279795, Control_c, 0, 64, 86
2, 279811, Control_c, 0, 64, 89
2, 279814, Note_on_c, 0, 73, 0
2, 279826, Control_c, 0, 64, 91
2, 279840, Control_c, 0, 64, 94
2, 279856, Control_c, 0, 64, 96
2, 279871, Control_c, 0, 64, 99
2, 279887, Control_c, 0, 64, 102
2, 279902, Control_c, 0, 64, 103
2, 279916, Control_c, 0, 64, 101
2, 279932, Control_c, 0, 64, 96
2, 279947, Control_c, 0, 64, 86
2, 279961, Control_c, 0, 64, 71
2, 279968, Note_on_c, 0, 45, 63
2, 279974, Note_on_c, 0, 76, 70
2, 279977, Control_c, 0, 64, 54
2, 279983, Note_on_c, 0, 75, 0
2, 279989, Note_on_c, 0, 73, 69
2, 279990, Note_on_c, 0, 47, 0
2, 279992, Control_c, 0, 64, 0
2, 280100, Note_on_c, 0, 71, 0
2, 280162, Note_on_c, 0, 76, 0
2, 280175, Control_c, 0, 64, 54
2, 280179, Note_on_c, 0, 75, 68
2, 280190, Control_c, 0, 64, 63
2, 280205, Control_c, 0, 64, 67
2, 280221, Control_c, 0, 64, 69
2, 280236, Control_c, 0, 64, 70
2, 280258, Control_c, 0, 64, 71
2, 280273, Control_c, 0, 64, 73
2, 280289, Control_c, 0, 64, 76
2, 280304, Control_c, 0, 64, 80
2, 280319, Control_c, 0, 64, 85
2, 280335, Control_c, 0, 64, 90
2, 280350, Control_c, 0, 64, 93
2, 280356, Note_on_c, 0, 73, 0
2, 280365, Control_c, 0, 64, 91
2, 280380, Control_c, 0, 64, 82
2, 280395, Control_c, 0, 64, 72
2, 280399, Note_on_c, 0, 72, 60
2, 280400, Note_on_c, 0, 78, 67
2, 280411, Control_c, 0, 64, 62
2, 280426, Control_c, 0, 64, 46
2, 280438, Note_on_c, 0, 75, 0
2, 280441, Control_c, 0, 64, 38
2, 280471, Control_c, 0, 64, 42
2, 280487, Control_c, 0, 64, 50
2, 280503, Control_c, 0, 64, 56
2, 280518, Control_c, 0, 64, 60
2, 280534, Control_c, 0, 64, 63
2, 280549, Control_c, 0, 64, 64
2, 280563, Control_c, 0, 64, 66
2, 280579, Control_c, 0, 64, 69
2, 280588, Note_on_c, 0, 72, 0
2, 280594, Control_c, 0, 64, 73
2, 280603, Note_on_c, 0, 73, 59
2, 280609, Control_c, 0, 64, 76
2, 280616, Note_on_c, 0, 78, 0
2, 280624, Control_c, 0, 64, 80
2, 280639, Control_c, 0, 64, 83
2, 280655, Control_c, 0, 64, 85
2, 280670, Control_c, 0, 64, 88
2, 280684, Control_c, 0, 64, 92
2, 280700, Control_c, 0, 64, 97
2, 280715, Control_c, 0, 64, 103
2, 280731, Control_c, 0, 64, 108
2, 280746, Control_c, 0, 64, 108
2, 280760, Control_c, 0, 64, 107
2, 280776, Control_c, 0, 64, 101
2, 280791, Control_c, 0, 64, 87
2, 280805, Control_c, 0, 64, 72
2, 280820, Note_on_c, 0, 80, 62
2, 280821, Control_c, 0, 64, 51
2, 280824, Note_on_c, 0, 45, 0
2, 280826, Note_on_c, 0, 48, 47
2, 280833, Note_on_c, 0, 44, 55
2, 280836, Control_c, 0, 64, 0
2, 280839, Note_on_c, 0, 75, 63
2, 280840, Note_on_c, 0, 73, 0
2, 280864, Note_on_c, 0, 49, 0
2, 280974, Control_c, 0, 64, 33
2, 280989, Control_c, 0, 64, 56
2, 281004, Control_c, 0, 64, 63
2, 281026, Control_c, 0, 64, 65
2, 281041, Control_c, 0, 64, 66
2, 281041, Note_on_c, 0, 78, 59
2, 281057, Control_c, 0, 64, 68
2, 281072, Control_c, 0, 64, 72
2, 281075, Note_on_c, 0, 80, 0
2, 281088, Control_c, 0, 64, 77
2, 281102, Control_c, 0, 64, 83
2, 281117, Control_c, 0, 64, 87
2, 281133, Control_c, 0, 64, 88
2, 281148, Control_c, 0, 64, 88
2, 281163, Control_c, 0, 64, 86
2, 281179, Control_c, 0, 64, 83
2, 281194, Control_c, 0, 64, 79
2, 281210, Control_c, 0, 64, 73
2, 281224, Control_c, 0, 64, 66
2, 281239, Control_c, 0, 64, 62
2, 281255, Control_c, 0, 64, 62
2, 281258, Note_on_c, 0, 80, 70
2, 281270, Control_c, 0, 64, 63
2, 281279, Note_on_c, 0, 56, 80
2, 281285, Control_c, 0, 64, 64
2, 281300, Control_c, 0, 64, 66
2, 281315, Control_c, 0, 64, 68
2, 281330, Note_on_c, 0, 44, 0
2, 281332, Control_c, 0, 64, 72
2, 281338, Note_on_c, 0, 48, 0
2, 281347, Control_c, 0, 64, 75
2, 281362, Control_c, 0, 64, 78
2, 281377, Control_c, 0, 64, 81
2, 281392, Control_c, 0, 64, 84
2, 281408, Control_c, 0, 64, 86
2, 281423, Control_c, 0, 64, 89
2, 281438, Control_c, 0, 64, 92
2, 281453, Control_c, 0, 64, 94
2, 281468, Control_c, 0, 64, 96
2, 281483, Control_c, 0, 64, 97
2, 281485, Note_on_c, 0, 81, 66
2, 281499, Control_c, 0, 64, 98
2, 281514, Control_c, 0, 64, 99
2, 281542, Note_on_c, 0, 80, 0
2, 281544, Control_c, 0, 64, 99
2, 281545, Note_on_c, 0, 75, 0
2, 281574, Control_c, 0, 64, 100
2, 281589, Control_c, 0, 64, 102
2, 281604, Control_c, 0, 64, 104
2, 281620, Control_c, 0, 64, 106
2, 281635, Control_c, 0, 64, 109
2, 281650, Control_c, 0, 64, 110
2, 281665, Control_c, 0, 64, 109
2, 281680, Control_c, 0, 64, 101
2, 281696, Control_c, 0, 64, 88
2, 281711, Control_c, 0, 64, 75
2, 281713, Note_on_c, 0, 52, 68
2, 281716, Note_on_c, 0, 61, 80
2, 281722, Note_on_c, 0, 78, 0
2, 281722, Note_on_c, 0, 80, 65
2, 281725, Control_c, 0, 64, 61
2, 281741, Control_c, 0, 64, 15
2, 281742, Note_on_c, 0, 73, 43
2, 281756, Control_c, 0, 64, 0
2, 281773, Note_on_c, 0, 56, 0
2, 281810, Control_c, 0, 64, 31
2, 281825, Control_c, 0, 64, 47
2, 281840, Control_c, 0, 64, 57
2, 281856, Control_c, 0, 64, 64
2, 281870, Control_c, 0, 64, 67
2, 281885, Control_c, 0, 64, 72
2, 281901, Control_c, 0, 64, 78
2, 281916, Control_c, 0, 64, 84
2, 281932, Control_c, 0, 64, 89
2, 281944, Note_on_c, 0, 61, 0
2, 281946, Control_c, 0, 64, 94
2, 281946, Note_on_c, 0, 78, 59
2, 281961, Control_c, 0, 64, 97
2, 281977, Control_c, 0, 64, 98
2, 281986, Note_on_c, 0, 81, 0
2, 281992, Control_c, 0, 64, 99
2, 282008, Control_c, 0, 64, 100
2, 282022, Control_c, 0, 64, 101
2, 282037, Control_c, 0, 64, 102
2, 282053, Control_c, 0, 64, 104
2, 282068, Control_c, 0, 64, 106
2, 282083, Control_c, 0, 64, 107
2, 282114, Control_c, 0, 64, 103
2, 282123, Note_on_c, 0, 80, 0
2, 282130, Control_c, 0, 64, 95
2, 282145, Control_c, 0, 64, 84
2, 282160, Control_c, 0, 64, 72
2, 282160, Note_on_c, 0, 61, 75
2, 282167, Note_on_c, 0, 76, 62
2, 282176, Control_c, 0, 64, 63
2, 282190, Control_c, 0, 64, 56
2, 282204, Note_on_c, 0, 78, 0
2, 282205, Control_c, 0, 64, 56
2, 282221, Control_c, 0, 64, 58
2, 282236, Control_c, 0, 64, 60
2, 282252, Control_c, 0, 64, 63
2, 282267, Control_c, 0, 64, 66
2, 282282, Control_c, 0, 64, 70
2, 282297, Control_c, 0, 64, 75
2, 282312, Control_c, 0, 64, 81
2, 282328, Control_c, 0, 64, 86
2, 282343, Control_c, 0, 64, 90
2, 282358, Control_c, 0, 64, 93
2, 282373, Control_c, 0, 64, 95
2, 282379, Note_on_c, 0, 80, 67
2, 282388, Control_c, 0, 64, 97
2, 282403, Control_c, 0, 64, 98
2, 282418, Control_c, 0, 64, 100
2, 282433, Control_c, 0, 64, 100
2, 282437, Note_on_c, 0, 61, 0
2, 282464, Control_c, 0, 64, 101
2, 282479, Control_c, 0, 64, 102
2, 282494, Control_c, 0, 64, 103
2, 282509, Control_c, 0, 64, 104
2, 282524, Control_c, 0, 64, 105
2, 282539, Note_on_c, 0, 76, 0
2, 282540, Control_c, 0, 64, 104
2, 282563, Control_c, 0, 64, 99
2, 282578, Control_c, 0, 64, 88
2, 282593, Control_c, 0, 64, 72
2, 282594, Note_on_c, 0, 61, 67
2, 282599, Note_on_c, 0, 51, 73
2, 282601, Note_on_c, 0, 78, 61
2, 282609, Control_c, 0, 64, 58
2, 282624, Control_c, 0, 64, 0
2, 282648, Note_on_c, 0, 52, 0
2, 282684, Control_c, 0, 64, 14
2, 282700, Control_c, 0, 64, 40
2, 282714, Control_c, 0, 64, 53
2, 282730, Control_c, 0, 64, 61
2, 282745, Control_c, 0, 64, 65
2, 282760, Control_c, 0, 64, 69
2, 282776, Control_c, 0, 64, 74
2, 282790, Control_c, 0, 64, 80
2, 282805, Control_c, 0, 64, 85
2, 282820, Note_on_c, 0, 76, 59
2, 282821, Control_c, 0, 64, 89
2, 282835, Control_c, 0, 64, 92
2, 282835, Note_on_c, 0, 78, 0
2, 282851, Control_c, 0, 64, 94
2, 282866, Control_c, 0, 64, 95
2, 282872, Note_on_c, 0, 80, 0
2, 282881, Control_c, 0, 64, 97
2, 282897, Control_c, 0, 64, 99
2, 282912, Control_c, 0, 64, 100
2, 282928, Control_c, 0, 64, 102
2, 282943, Control_c, 0, 64, 103
2, 282958, Control_c, 0, 64, 102
2, 282974, Control_c, 0, 64, 96
2, 282989, Control_c, 0, 64, 85
2, 283004, Control_c, 0, 64, 71
2, 283019, Control_c, 0, 64, 59
2, 283027, Note_on_c, 0, 60, 68
2, 283034, Control_c, 0, 64, 42
2, 283043, Note_on_c, 0, 78, 59
2, 283050, Control_c, 0, 64, 39
2, 283065, Control_c, 0, 64, 40
2, 283080, Control_c, 0, 64, 45
2, 283096, Control_c, 0, 64, 52
2, 283102, Note_on_c, 0, 61, 0
2, 283111, Control_c, 0, 64, 58
2, 283126, Control_c, 0, 64, 61
2, 283141, Control_c, 0, 64, 64
2, 283156, Control_c, 0, 64, 67
2, 283172, Control_c, 0, 64, 69
2, 283187, Control_c, 0, 64, 71
2, 283202, Control_c, 0, 64, 73
2, 283217, Control_c, 0, 64, 75
2, 283221, Note_on_c, 0, 80, 61
2, 283232, Control_c, 0, 64, 76
2, 283233, Note_on_c, 0, 58, 73
2, 283239, Note_on_c, 0, 76, 0
2, 283261, Note_on_c, 0, 60, 0
2, 283263, Control_c, 0, 64, 75
2, 283266, Note_on_c, 0, 78, 0
2, 283308, Control_c, 0, 64, 75
2, 283331, Control_c, 0, 64, 74
2, 283361, Control_c, 0, 64, 74
2, 283392, Control_c, 0, 64, 73
2, 283423, Control_c, 0, 64, 72
2, 283437, Control_c, 0, 64, 69
2, 283449, Note_on_c, 0, 58, 0
2, 283453, Control_c, 0, 64, 65
2, 283458, Note_on_c, 0, 60, 57
2, 283467, Note_on_c, 0, 78, 60
2, 283468, Control_c, 0, 64, 56
2, 283482, Control_c, 0, 64, 43
2, 283498, Control_c, 0, 64, 20
2, 283513, Control_c, 0, 64, 0
2, 283657, Note_on_c, 0, 76, 63
2, 283679, Note_on_c, 0, 80, 0
2, 283722, Note_on_c, 0, 78, 0
2, 283741, Control_c, 0, 64, 8
2, 283756, Control_c, 0, 64, 54
2, 283772, Control_c, 0, 64, 63
2, 283787, Control_c, 0, 64, 65
2, 283802, Control_c, 0, 64, 67
2, 283818, Control_c, 0, 64, 68
2, 283833, Control_c, 0, 64, 69
2, 283849, Control_c, 0, 64, 71
2, 283863, Control_c, 0, 64, 73
2, 283872, Note_on_c, 0, 75, 70
2, 283878, Control_c, 0, 64, 76
2, 283894, Control_c, 0, 64, 78
2, 283897, Note_on_c, 0, 76, 0
2, 283909, Control_c, 0, 64, 81
2, 283924, Control_c, 0, 64, 83
2, 283926, Note_on_c, 0, 60, 0
2, 283936, Note_on_c, 0, 73, 0
2, 283939, Control_c, 0, 64, 84
2, 284000, Control_c, 0, 64, 85
2, 284016, Control_c, 0, 64, 85
2, 284031, Control_c, 0, 64, 86
2, 284045, Control_c, 0, 64, 87
2, 284061, Control_c, 0, 64, 88
2, 284075, Note_on_c, 0, 78, 64
2, 284076, Control_c, 0, 64, 88
2, 284099, Control_c, 0, 64, 89
2, 284114, Control_c, 0, 64, 89
2, 284129, Control_c, 0, 64, 90
2, 284144, Control_c, 0, 64, 91
2, 284144, Note_on_c, 0, 75, 0
2, 284159, Control_c, 0, 64, 92
2, 284175, Control_c, 0, 64, 94
2, 284190, Control_c, 0, 64, 96
2, 284205, Control_c, 0, 64, 99
2, 284221, Control_c, 0, 64, 101
2, 284236, Control_c, 0, 64, 102
2, 284266, Control_c, 0, 64, 95
2, 284281, Control_c, 0, 64, 83
2, 284297, Control_c, 0, 64, 68
2, 284312, Control_c, 0, 64, 41
2, 284319, Note_on_c, 0, 49, 65
2, 284324, Note_on_c, 0, 61, 60
2, 284328, Control_c, 0, 64, 0
2, 284331, Note_on_c, 0, 76, 65
2, 284339, Note_on_c, 0, 51, 0
2, 284434, Control_c, 0, 64, 44
2, 284449, Control_c, 0, 64, 55
2, 284464, Control_c, 0, 64, 60
2, 284479, Control_c, 0, 64, 63
2, 284495, Control_c, 0, 64, 65
2, 284510, Control_c, 0, 64, 67
2, 284524, Control_c, 0, 64, 70
2, 284534, Note_on_c, 0, 76, 0
2, 284539, Note_on_c, 0, 75, 65
2, 284540, Control_c, 0, 64, 73
2, 284555, Control_c, 0, 64, 77
2, 284570, Note_on_c, 0, 78, 0
2, 284571, Control_c, 0, 64, 82
2, 284586, Control_c, 0, 64, 85
2, 284602, Control_c, 0, 64, 88
2, 284618, Control_c, 0, 64, 91
2, 284632, Control_c, 0, 64, 94
2, 284648, Control_c, 0, 64, 97
2, 284663, Control_c, 0, 64, 100
2, 284677, Control_c, 0, 64, 102
2, 284693, Control_c, 0, 64, 102
2, 284708, Control_c, 0, 64, 100
2, 284723, Control_c, 0, 64, 92
2, 284739, Control_c, 0, 64, 80
2, 284753, Control_c, 0, 64, 67
2, 284756, Note_on_c, 0, 76, 66
2, 284757, Note_on_c, 0, 52, 73
2, 284769, Control_c, 0, 64, 51
2, 284784, Control_c, 0, 64, 36
2, 284799, Control_c, 0, 64, 36
2, 284803, Note_on_c, 0, 75, 0
2, 284806, Note_on_c, 0, 49, 0
2, 284815, Control_c, 0, 64, 38
2, 284829, Control_c, 0, 64, 47
2, 284844, Control_c, 0, 64, 54
2, 284868, Control_c, 0, 64, 59
2, 284882, Control_c, 0, 64, 63
2, 284898, Control_c, 0, 64, 66
2, 284913, Control_c, 0, 64, 69
2, 284929, Control_c, 0, 64, 73
2, 284944, Control_c, 0, 64, 77
2, 284958, Control_c, 0, 64, 81
2, 284974, Control_c, 0, 64, 85
2, 284987, Note_on_c, 0, 78, 65
2, 284989, Control_c, 0, 64, 88
2, 285004, Control_c, 0, 64, 90
2, 285020, Control_c, 0, 64, 93
2, 285035, Control_c, 0, 64, 95
2, 285036, Note_on_c, 0, 76, 0
2, 285050, Control_c, 0, 64, 97
2, 285065, Control_c, 0, 64, 98
2, 285080, Control_c, 0, 64, 99
2, 285095, Control_c, 0, 64, 100
2, 285110, Control_c, 0, 64, 102
2, 285125, Control_c, 0, 64, 103
2, 285141, Control_c, 0, 64, 102
2, 285156, Control_c, 0, 64, 94
2, 285172, Control_c, 0, 64, 81
2, 285187, Control_c, 0, 64, 66
2, 285194, Note_on_c, 0, 57, 75
2, 285202, Control_c, 0, 64, 22
2, 285209, Note_on_c, 0, 76, 71
2, 285218, Control_c, 0, 64, 0
2, 285231, Note_on_c, 0, 52, 0
2, 285271, Note_on_c, 0, 78, 0
2, 285278, Control_c, 0, 64, 43
2, 285293, Control_c, 0, 64, 56
2, 285308, Control_c, 0, 64, 64
2, 285323, Control_c, 0, 64, 69
2, 285339, Control_c, 0, 64, 75
2, 285354, Control_c, 0, 64, 83
2, 285369, Control_c, 0, 64, 91
2, 285384, Control_c, 0, 64, 98
2, 285390, Note_on_c, 0, 57, 0
2, 285399, Control_c, 0, 64, 103
2, 285406, Note_on_c, 0, 74, 69
2, 285416, Control_c, 0, 64, 103
2, 285446, Note_on_c, 0, 76, 0
2, 285462, Control_c, 0, 64, 104
2, 285476, Control_c, 0, 64, 104
2, 285492, Control_c, 0, 64, 106
2, 285507, Control_c, 0, 64, 107
2, 285521, Control_c, 0, 64, 108
2, 285537, Control_c, 0, 64, 109
2, 285552, Control_c, 0, 64, 110
2, 285583, Control_c, 0, 64, 105
2, 285597, Control_c, 0, 64, 95
2, 285613, Control_c, 0, 64, 85
2, 285628, Note_on_c, 0, 57, 78
2, 285636, Control_c, 0, 64, 72
2, 285641, Note_on_c, 0, 73, 73
2, 285652, Control_c, 0, 64, 64
2, 285667, Control_c, 0, 64, 59
2, 285670, Note_on_c, 0, 74, 0
2, 285697, Control_c, 0, 64, 61
2, 285712, Control_c, 0, 64, 63
2, 285726, Control_c, 0, 64, 65
2, 285741, Control_c, 0, 64, 69
2, 285756, Control_c, 0, 64, 75
2, 285772, Control_c, 0, 64, 83
2, 285786, Note_on_c, 0, 61, 0
2, 285787, Control_c, 0, 64, 92
2, 285795, Note_on_c, 0, 57, 0
2, 285801, Control_c, 0, 64, 103
2, 285817, Control_c, 0, 64, 109
2, 285832, Control_c, 0, 64, 108
2, 285842, Note_on_c, 0, 76, 70
2, 285848, Control_c, 0, 64, 108
2, 285882, Note_on_c, 0, 73, 0
2, 285923, Control_c, 0, 64, 108
2, 285939, Control_c, 0, 64, 109
2, 285954, Control_c, 0, 64, 109
2, 285970, Control_c, 0, 64, 110
2, 285985, Control_c, 0, 64, 110
2, 286000, Control_c, 0, 64, 111
2, 286015, Control_c, 0, 64, 111
2, 286030, Control_c, 0, 64, 104
2, 286045, Control_c, 0, 64, 90
2, 286058, Note_on_c, 0, 59, 76
2, 286060, Control_c, 0, 64, 75
2, 286063, Note_on_c, 0, 57, 73
2, 286073, Note_on_c, 0, 74, 73
2, 286075, Control_c, 0, 64, 62
2, 286091, Control_c, 0, 64, 36
2, 286106, Control_c, 0, 64, 25
2, 286136, Control_c, 0, 64, 27
2, 286151, Control_c, 0, 64, 41
2, 286166, Control_c, 0, 64, 51
2, 286182, Control_c, 0, 64, 58
2, 286197, Control_c, 0, 64, 62
2, 286212, Control_c, 0, 64, 65
2, 286227, Control_c, 0, 64, 68
2, 286243, Control_c, 0, 64, 71
2, 286259, Control_c, 0, 64, 75
2, 286264, Note_on_c, 0, 74, 0
2, 286270, Note_on_c, 0, 73, 68
2, 286274, Control_c, 0, 64, 79
2, 286290, Control_c, 0, 64, 83
2, 286305, Control_c, 0, 64, 86
2, 286319, Control_c, 0, 64, 89
2, 286335, Control_c, 0, 64, 91
2, 286350, Control_c, 0, 64, 93
2, 286364, Control_c, 0, 64, 94
2, 286380, Control_c, 0, 64, 95
2, 286403, Control_c, 0, 64, 96
2, 286419, Control_c, 0, 64, 98
2, 286434, Control_c, 0, 64, 100
2, 286449, Control_c, 0, 64, 102
2, 286464, Control_c, 0, 64, 97
2, 286479, Control_c, 0, 64, 83
2, 286480, Note_on_c, 0, 56, 80
2, 286480, Note_on_c, 0, 66, 74
2, 286492, Note_on_c, 0, 74, 71
2, 286494, Control_c, 0, 64, 66
2, 286509, Control_c, 0, 64, 0
2, 286518, Note_on_c, 0, 76, 0
2, 286565, Note_on_c, 0, 57, 0
2, 286661, Control_c, 0, 64, 39
2, 286676, Control_c, 0, 64, 58
2, 286692, Control_c, 0, 64, 63
2, 286694, Note_on_c, 0, 73, 0
2, 286696, Note_on_c, 0, 76, 67
2, 286700, Note_on_c, 0, 54, 67
2, 286706, Control_c, 0, 64, 66
2, 286721, Control_c, 0, 64, 69
2, 286734, Note_on_c, 0, 56, 0
2, 286737, Control_c, 0, 64, 73
2, 286738, Note_on_c, 0, 74, 0
2, 286752, Control_c, 0, 64, 76
2, 286768, Control_c, 0, 64, 80
2, 286783, Control_c, 0, 64, 83
2, 286798, Control_c, 0, 64, 86
2, 286814, Control_c, 0, 64, 89
2, 286828, Control_c, 0, 64, 92
2, 286843, Control_c, 0, 64, 95
2, 286859, Control_c, 0, 64, 94
2, 286874, Control_c, 0, 64, 88
2, 286890, Control_c, 0, 64, 74
2, 286904, Control_c, 0, 64, 59
2, 286919, Control_c, 0, 64, 0
2, 286936, Note_on_c, 0, 56, 62
2, 286936, Note_on_c, 0, 71, 69
2, 286943, Note_on_c, 0, 74, 72
2, 286981, Note_on_c, 0, 54, 0
2, 287002, Note_on_c, 0, 66, 0
2, 287003, Note_on_c, 0, 76, 0
2, 287073, Control_c, 0, 64, 43
2, 287088, Control_c, 0, 64, 62
2, 287103, Control_c, 0, 64, 66
2, 287118, Control_c, 0, 64, 69
2, 287133, Control_c, 0, 64, 72
2, 287148, Control_c, 0, 64, 76
2, 287161, Note_on_c, 0, 73, 67
2, 287171, Control_c, 0, 64, 80
2, 287186, Control_c, 0, 64, 85
2, 287201, Control_c, 0, 64, 91
2, 287208, Note_on_c, 0, 71, 0
2, 287217, Control_c, 0, 64, 97
2, 287232, Control_c, 0, 64, 102
2, 287248, Control_c, 0, 64, 106
2, 287293, Control_c, 0, 64, 103
2, 287308, Control_c, 0, 64, 96
2, 287323, Control_c, 0, 64, 85
2, 287338, Control_c, 0, 64, 72
2, 287340, Note_on_c, 0, 74, 0
2, 287353, Control_c, 0, 64, 60
2, 287369, Control_c, 0, 64, 39
2, 287384, Control_c, 0, 64, 36
2, 287390, Note_on_c, 0, 71, 66
2, 287391, Note_on_c, 0, 66, 65
2, 287399, Control_c, 0, 64, 37
2, 287414, Control_c, 0, 64, 48
2, 287429, Control_c, 0, 64, 55
2, 287437, Note_on_c, 0, 73, 0
2, 287444, Control_c, 0, 64, 61
2, 287460, Control_c, 0, 64, 66
2, 287475, Control_c, 0, 64, 70
2, 287490, Control_c, 0, 64, 77
2, 287505, Control_c, 0, 64, 84
2, 287520, Control_c, 0, 64, 92
2, 287536, Control_c, 0, 64, 97
2, 287550, Control_c, 0, 64, 100
2, 287563, Note_on_c, 0, 71, 0
2, 287573, Note_on_c, 0, 74, 72
2, 287612, Control_c, 0, 64, 101
2, 287626, Control_c, 0, 64, 102
2, 287641, Control_c, 0, 64, 102
2, 287657, Control_c, 0, 64, 103
2, 287671, Note_on_c, 0, 66, 0
2, 287672, Control_c, 0, 64, 103
2, 287703, Control_c, 0, 64, 103
2, 287718, Control_c, 0, 64, 95
2, 287734, Control_c, 0, 64, 84
2, 287748, Control_c, 0, 64, 72
2, 287763, Control_c, 0, 64, 60
2, 287779, Control_c, 0, 64, 42
2, 287784, Note_on_c, 0, 73, 61
2, 287796, Control_c, 0, 64, 40
2, 287807, Note_on_c, 0, 65, 51
2, 287812, Control_c, 0, 64, 43
2, 287812, Note_on_c, 0, 71, 68
2, 287816, Note_on_c, 0, 74, 0
2, 287826, Control_c, 0, 64, 52
2, 287842, Control_c, 0, 64, 58
2, 287857, Control_c, 0, 64, 63
2, 287872, Control_c, 0, 64, 68
2, 287877, Note_on_c, 0, 73, 0
2, 287889, Control_c, 0, 64, 73
2, 287904, Control_c, 0, 64, 81
2, 287919, Control_c, 0, 64, 89
2, 287941, Control_c, 0, 64, 96
2, 287945, Note_on_c, 0, 71, 0
2, 287956, Control_c, 0, 64, 99
2, 287972, Control_c, 0, 64, 99
2, 288033, Note_on_c, 0, 71, 58
2, 288048, Control_c, 0, 64, 100
2, 288062, Control_c, 0, 64, 100
2, 288093, Control_c, 0, 64, 101
2, 288108, Control_c, 0, 64, 101
2, 288123, Control_c, 0, 64, 102
2, 288138, Control_c, 0, 64, 103
2, 288153, Control_c, 0, 64, 105
2, 288169, Control_c, 0, 64, 106
2, 288183, Control_c, 0, 64, 104
2, 288198, Control_c, 0, 64, 95
2, 288214, Control_c, 0, 64, 82
2, 288229, Control_c, 0, 64, 69
2, 288238, Note_on_c, 0, 65, 0
2, 288238, Note_on_c, 0, 73, 64
2, 288242, Note_on_c, 0, 49, 61
2, 288245, Control_c, 0, 64, 50
2, 288250, Note_on_c, 0, 69, 57
2, 288259, Control_c, 0, 64, 26
2, 288274, Control_c, 0, 64, 25
2, 288274, Note_on_c, 0, 71, 0
2, 288305, Control_c, 0, 64, 34
2, 288319, Control_c, 0, 64, 47
2, 288335, Control_c, 0, 64, 55
2, 288350, Control_c, 0, 64, 61
2, 288366, Control_c, 0, 64, 66
2, 288381, Control_c, 0, 64, 71
2, 288396, Control_c, 0, 64, 77
2, 288412, Control_c, 0, 64, 83
2, 288412, Note_on_c, 0, 74, 63
2, 288426, Control_c, 0, 64, 89
2, 288439, Note_on_c, 0, 68, 66
2, 288442, Control_c, 0, 64, 93
2, 288448, Note_on_c, 0, 73, 0
2, 288457, Control_c, 0, 64, 96
2, 288470, Note_on_c, 0, 69, 0
2, 288472, Control_c, 0, 64, 96
2, 288488, Control_c, 0, 64, 97
2, 288503, Control_c, 0, 64, 98
2, 288517, Control_c, 0, 64, 100
2, 288535, Control_c, 0, 64, 102
2, 288548, Note_on_c, 0, 68, 0
2, 288550, Control_c, 0, 64, 104
2, 288566, Control_c, 0, 64, 105
2, 288581, Control_c, 0, 64, 100
2, 288596, Control_c, 0, 64, 89
2, 288611, Control_c, 0, 64, 75
2, 288626, Control_c, 0, 64, 62
2, 288642, Control_c, 0, 64, 33
2, 288649, Note_on_c, 0, 54, 71
2, 288657, Control_c, 0, 64, 12
2, 288662, Note_on_c, 0, 66, 52
2, 288663, Note_on_c, 0, 69, 52
2, 288664, Note_on_c, 0, 74, 0
2, 288667, Note_on_c, 0, 73, 65
2, 288671, Control_c, 0, 64, 14
2, 288687, Control_c, 0, 64, 30
2, 288710, Control_c, 0, 64, 45
2, 288720, Note_on_c, 0, 56, 0
2, 288726, Control_c, 0, 64, 54
2, 288731, Note_on_c, 0, 49, 0
2, 288741, Control_c, 0, 64, 61
2, 288757, Control_c, 0, 64, 65
2, 288772, Control_c, 0, 64, 69
2, 288786, Control_c, 0, 64, 75
2, 288802, Control_c, 0, 64, 81
2, 288817, Control_c, 0, 64, 87
2, 288832, Control_c, 0, 64, 92
2, 288834, Note_on_c, 0, 69, 0
2, 288848, Control_c, 0, 64, 95
2, 288863, Control_c, 0, 64, 96
2, 288870, Note_on_c, 0, 71, 66
2, 288879, Control_c, 0, 64, 97
2, 288892, Note_on_c, 0, 73, 0
2, 288894, Control_c, 0, 64, 99
2, 288908, Control_c, 0, 64, 100
2, 288924, Control_c, 0, 64, 101
2, 288930, Note_on_c, 0, 54, 0
2, 288939, Control_c, 0, 64, 103
2, 288955, Control_c, 0, 64, 104
2, 288969, Control_c, 0, 64, 106
2, 288984, Control_c, 0, 64, 107
2, 289015, Control_c, 0, 64, 102
2, 289030, Control_c, 0, 64, 92
2, 289045, Control_c, 0, 64, 79
2, 289060, Control_c, 0, 64, 66
2, 289062, Note_on_c, 0, 54, 65
2, 289076, Control_c, 0, 64, 48
2, 289085, Note_on_c, 0, 69, 65
2, 289091, Control_c, 0, 64, 36
2, 289092, Note_on_c, 0, 71, 0
2, 289121, Control_c, 0, 64, 40
2, 289136, Control_c, 0, 64, 50
2, 289151, Control_c, 0, 64, 57
2, 289166, Control_c, 0, 64, 62
2, 289181, Control_c, 0, 64, 65
2, 289197, Control_c, 0, 64, 70
2, 289212, Control_c, 0, 64, 76
2, 289227, Control_c, 0, 64, 81
2, 289234, Note_on_c, 0, 59, 0
2, 289242, Control_c, 0, 64, 87
2, 289257, Control_c, 0, 64, 91
2, 289270, Note_on_c, 0, 73, 65
2, 289272, Control_c, 0, 64, 93
2, 289300, Note_on_c, 0, 69, 0
2, 289314, Note_on_c, 0, 54, 0
2, 289364, Control_c, 0, 64, 94
2, 289395, Control_c, 0, 64, 95
2, 289410, Control_c, 0, 64, 96
2, 289425, Control_c, 0, 64, 98
2, 289440, Control_c, 0, 64, 98
2, 289455, Control_c, 0, 64, 96
2, 289478, Control_c, 0, 64, 87
2, 289493, Control_c, 0, 64, 73
2, 289493, Note_on_c, 0, 54, 50
2, 289500, Note_on_c, 0, 56, 49
2, 289505, Note_on_c, 0, 59, 56
2, 289505, Note_on_c, 0, 68, 59
2, 289508, Control_c, 0, 64, 55
2, 289517, Note_on_c, 0, 71, 58
2, 289525, Control_c, 0, 64, 0
2, 289541, Note_on_c, 0, 73, 0
2, 289559, Note_on_c, 0, 66, 0
2, 289709, Note_on_c, 0, 71, 0
2, 289720, Note_on_c, 0, 69, 58
2, 289722, Control_c, 0, 64, 55
2, 289737, Control_c, 0, 64, 63
2, 289752, Control_c, 0, 64, 65
2, 289768, Control_c, 0, 64, 67
2, 289783, Control_c, 0, 64, 68
2, 289799, Control_c, 0, 64, 69
2, 289813, Control_c, 0, 64, 71
2, 289828, Control_c, 0, 64, 73
2, 289844, Control_c, 0, 64, 76
2, 289859, Control_c, 0, 64, 79
2, 289889, Control_c, 0, 64, 75
2, 289904, Control_c, 0, 64, 67
2, 289915, Note_on_c, 0, 53, 48
2, 289920, Control_c, 0, 64, 49
2, 289933, Note_on_c, 0, 69, 0
2, 289935, Control_c, 0, 64, 0
2, 289937, Note_on_c, 0, 71, 53
2, 289985, Note_on_c, 0, 59, 0
2, 290056, Control_c, 0, 64, 25
2, 290071, Control_c, 0, 64, 51
2, 290086, Control_c, 0, 64, 59
2, 290101, Control_c, 0, 64, 62
2, 290109, Note_on_c, 0, 71, 0
2, 290117, Control_c, 0, 64, 63
2, 290117, Note_on_c, 0, 51, 57
2, 290117, Note_on_c, 0, 73, 64
2, 290119, Note_on_c, 0, 54, 0
2, 290129, Note_on_c, 0, 53, 0
2, 290132, Control_c, 0, 64, 64
2, 290147, Control_c, 0, 64, 66
2, 290147, Note_on_c, 0, 56, 0
2, 290163, Control_c, 0, 64, 68
2, 290178, Control_c, 0, 64, 70
2, 290192, Control_c, 0, 64, 73
2, 290208, Control_c, 0, 64, 76
2, 290223, Control_c, 0, 64, 77
2, 290261, Control_c, 0, 64, 74
2, 290277, Control_c, 0, 64, 69
2, 290291, Control_c, 0, 64, 60
2, 290306, Control_c, 0, 64, 31
2, 290322, Control_c, 0, 64, 0
2, 290348, Note_on_c, 0, 51, 0
2, 290352, Note_on_c, 0, 56, 51
2, 290354, Note_on_c, 0, 68, 0
2, 290361, Note_on_c, 0, 61, 48
2, 290361, Note_on_c, 0, 71, 60
2, 290366, Note_on_c, 0, 53, 44
2, 290483, Note_on_c, 0, 73, 0
2, 290563, Note_on_c, 0, 71, 0
2, 290566, Control_c, 0, 64, 46
2, 290576, Note_on_c, 0, 69, 47
2, 290581, Control_c, 0, 64, 57
2, 290597, Control_c, 0, 64, 61
2, 290612, Control_c, 0, 64, 63
2, 290627, Control_c, 0, 64, 64
2, 290642, Control_c, 0, 64, 65
2, 290657, Control_c, 0, 64, 67
2, 290672, Control_c, 0, 64, 70
2, 290688, Control_c, 0, 64, 74
2, 290703, Control_c, 0, 64, 77
2, 290718, Control_c, 0, 64, 80
2, 290733, Control_c, 0, 64, 82
2, 290748, Control_c, 0, 64, 82
2, 290771, Note_on_c, 0, 68, 57
2, 290771, Note_on_c, 0, 69, 0
2, 290840, Control_c, 0, 64, 83
2, 290972, Note_on_c, 0, 71, 58
2, 290980, Note_on_c, 0, 68, 0
2, 291029, Control_c, 0, 64, 83
2, 291045, Control_c, 0, 64, 84
2, 291059, Control_c, 0, 64, 84
2, 291075, Control_c, 0, 64, 85
2, 291090, Control_c, 0, 64, 85
2, 291105, Control_c, 0, 64, 85
2, 291122, Control_c, 0, 64, 84
2, 291136, Control_c, 0, 64, 81
2, 291151, Control_c, 0, 64, 74
2, 291168, Control_c, 0, 64, 66
2, 291177, Note_on_c, 0, 53, 0
2, 291183, Control_c, 0, 64, 48
2, 291196, Note_on_c, 0, 54, 48
2, 291196, Note_on_c, 0, 57, 48
2, 291199, Control_c, 0, 64, 0
2, 291199, Note_on_c, 0, 56, 0
2, 291208, Note_on_c, 0, 69, 58
2, 291254, Note_on_c, 0, 71, 0
2, 291350, Control_c, 0, 64, 14
2, 291365, Control_c, 0, 64, 48
2, 291380, Control_c, 0, 64, 59
2, 291396, Control_c, 0, 64, 63
2, 291410, Control_c, 0, 64, 65
2, 291416, Note_on_c, 0, 68, 55
2, 291425, Control_c, 0, 64, 67
2, 291441, Control_c, 0, 64, 70
2, 291456, Control_c, 0, 64, 72
2, 291471, Control_c, 0, 64, 75
2, 291486, Control_c, 0, 64, 77
2, 291501, Control_c, 0, 64, 79
2, 291517, Control_c, 0, 64, 81
2, 291532, Control_c, 0, 64, 81
2, 291547, Control_c, 0, 64, 82
2, 291612, Note_on_c, 0, 57, 0
2, 291624, Note_on_c, 0, 54, 0
2, 291632, Note_on_c, 0, 66, 52
2, 291699, Control_c, 0, 64, 82
2, 291730, Control_c, 0, 64, 83
2, 291761, Control_c, 0, 64, 83
2, 291762, Note_on_c, 0, 68, 0
2, 291823, Note_on_c, 0, 65, 53
2, 291825, Note_on_c, 0, 66, 0
2, 291844, Control_c, 0, 64, 84
2, 291875, Control_c, 0, 64, 84
2, 291934, Control_c, 0, 64, 85
2, 291965, Control_c, 0, 64, 86
2, 291981, Control_c, 0, 64, 87
2, 291997, Control_c, 0, 64, 87
2, 292011, Control_c, 0, 64, 86
2, 292026, Control_c, 0, 64, 81
2, 292042, Control_c, 0, 64, 72
2, 292050, Note_on_c, 0, 66, 59
2, 292051, Note_on_c, 0, 54, 48
2, 292056, Control_c, 0, 64, 63
2, 292060, Note_on_c, 0, 61, 0
2, 292071, Control_c, 0, 64, 43
2, 292086, Note_on_c, 0, 65, 0
2, 292087, Control_c, 0, 64, 0
2, 292163, Control_c, 0, 64, 25
2, 292178, Control_c, 0, 64, 43
2, 292194, Control_c, 0, 64, 52
2, 292208, Control_c, 0, 64, 57
2, 292223, Control_c, 0, 64, 60
2, 292239, Control_c, 0, 64, 63
2, 292254, Control_c, 0, 64, 65
2, 292268, Control_c, 0, 64, 67
2, 292276, Note_on_c, 0, 61, 54
2, 292284, Control_c, 0, 64, 71
2, 292299, Control_c, 0, 64, 76
2, 292315, Control_c, 0, 64, 80
2, 292330, Control_c, 0, 64, 85
2, 292345, Control_c, 0, 64, 88
2, 292361, Control_c, 0, 64, 90
2, 292376, Control_c, 0, 64, 90
2, 292406, Control_c, 0, 64, 91
2, 292421, Control_c, 0, 64, 91
2, 292427, Note_on_c, 0, 61, 0
2, 292437, Control_c, 0, 64, 92
2, 292452, Control_c, 0, 64, 92
2, 292458, Note_on_c, 0, 59, 58
2, 292466, Control_c, 0, 64, 93
2, 292482, Control_c, 0, 64, 93
2, 292497, Control_c, 0, 64, 94
2, 292512, Control_c, 0, 64, 94
2, 292528, Control_c, 0, 64, 95
2, 292566, Control_c, 0, 64, 96
2, 292581, Control_c, 0, 64, 97
2, 292594, Note_on_c, 0, 59, 0
2, 292596, Control_c, 0, 64, 98
2, 292611, Control_c, 0, 64, 98
2, 292642, Control_c, 0, 64, 99
2, 292656, Note_on_c, 0, 57, 57
2, 292671, Control_c, 0, 64, 100
2, 292687, Control_c, 0, 64, 101
2, 292702, Control_c, 0, 64, 102
2, 292718, Control_c, 0, 64, 103
2, 292778, Control_c, 0, 64, 104
2, 292810, Control_c, 0, 64, 104
2, 292825, Control_c, 0, 64, 105
2, 292841, Control_c, 0, 64, 106
2, 292870, Control_c, 0, 64, 102
2, 292886, Control_c, 0, 64, 94
2, 292888, Note_on_c, 0, 73, 79
2, 292895, Note_on_c, 0, 57, 0
2, 292900, Control_c, 0, 64, 83
2, 292901, Note_on_c, 0, 68, 67
2, 292907, Note_on_c, 0, 54, 0
2, 292907, Note_on_c, 0, 56, 57
2, 292916, Control_c, 0, 64, 71
2, 292931, Control_c, 0, 64, 56
2, 292943, Note_on_c, 0, 66, 0
2, 292946, Control_c, 0, 64, 0
2, 292977, Note_on_c, 0, 69, 0
2, 293038, Control_c, 0, 64, 34
2, 293052, Control_c, 0, 64, 44
2, 293067, Control_c, 0, 64, 50
2, 293083, Control_c, 0, 64, 55
2, 293097, Control_c, 0, 64, 59
2, 293109, Note_on_c, 0, 54, 51
2, 293112, Control_c, 0, 64, 62
2, 293128, Control_c, 0, 64, 65
2, 293143, Control_c, 0, 64, 67
2, 293159, Control_c, 0, 64, 69
2, 293174, Control_c, 0, 64, 72
2, 293189, Control_c, 0, 64, 74
2, 293205, Control_c, 0, 64, 74
2, 293220, Control_c, 0, 64, 75
2, 293235, Control_c, 0, 64, 74
2, 293265, Control_c, 0, 64, 74
2, 293281, Control_c, 0, 64, 73
2, 293299, Note_on_c, 0, 54, 0
2, 293315, Note_on_c, 0, 52, 57
2, 293529, Note_on_c, 0, 51, 59
2, 293537, Note_on_c, 0, 52, 0
2, 293591, Control_c, 0, 64, 74
2, 293639, Control_c, 0, 64, 74
2, 293668, Control_c, 0, 64, 75
2, 293699, Control_c, 0, 64, 72
2, 293715, Control_c, 0, 64, 67
2, 293730, Control_c, 0, 64, 62
2, 293744, Control_c, 0, 64, 56
2, 293760, Control_c, 0, 64, 55
2, 293761, Note_on_c, 0, 52, 64
2, 293775, Control_c, 0, 64, 56
2, 293785, Note_on_c, 0, 68, 0
2, 293790, Control_c, 0, 64, 58
2, 293791, Note_on_c, 0, 51, 0
2, 293806, Control_c, 0, 64, 61
2, 293820, Control_c, 0, 64, 63
2, 293836, Control_c, 0, 64, 64
2, 293851, Control_c, 0, 64, 65
2, 293866, Control_c, 0, 64, 66
2, 293881, Control_c, 0, 64, 67
2, 293896, Control_c, 0, 64, 69
2, 293911, Control_c, 0, 64, 73
2, 293927, Control_c, 0, 64, 77
2, 293941, Control_c, 0, 64, 81
2, 293957, Control_c, 0, 64, 85
2, 293966, Note_on_c, 0, 68, 67
2, 293972, Control_c, 0, 64, 88
2, 293987, Control_c, 0, 64, 91
2, 294003, Control_c, 0, 64, 93
2, 294018, Control_c, 0, 64, 95
2, 294032, Control_c, 0, 64, 97
2, 294048, Control_c, 0, 64, 101
2, 294063, Control_c, 0, 64, 104
2, 294086, Control_c, 0, 64, 107
2, 294101, Control_c, 0, 64, 106
2, 294117, Control_c, 0, 64, 100
2, 294132, Control_c, 0, 64, 89
2, 294147, Control_c, 0, 64, 77
2, 294162, Control_c, 0, 64, 66
2, 294169, Note_on_c, 0, 49, 54
2, 294174, Note_on_c, 0, 66, 61
2, 294177, Control_c, 0, 64, 54
2, 294192, Control_c, 0, 64, 47
2, 294223, Control_c, 0, 64, 49
2, 294238, Control_c, 0, 64, 54
2, 294253, Control_c, 0, 64, 59
2, 294254, Note_on_c, 0, 56, 0
2, 294268, Control_c, 0, 64, 63
2, 294284, Control_c, 0, 64, 65
2, 294299, Control_c, 0, 64, 69
2, 294315, Control_c, 0, 64, 73
2, 294330, Control_c, 0, 64, 77
2, 294345, Control_c, 0, 64, 82
2, 294360, Control_c, 0, 64, 86
2, 294375, Control_c, 0, 64, 89
2, 294379, Note_on_c, 0, 64, 61
2, 294390, Control_c, 0, 64, 91
2, 294394, Note_on_c, 0, 66, 0
2, 294401, Note_on_c, 0, 73, 0
2, 294406, Control_c, 0, 64, 92
2, 294421, Control_c, 0, 64, 93
2, 294467, Control_c, 0, 64, 94
2, 294483, Control_c, 0, 64, 95
2, 294498, Control_c, 0, 64, 98
2, 294512, Control_c, 0, 64, 99
2, 294528, Control_c, 0, 64, 98
2, 294543, Control_c, 0, 64, 91
2, 294559, Control_c, 0, 64, 79
2, 294574, Control_c, 0, 64, 68
2, 294586, Note_on_c, 0, 64, 0
2, 294588, Control_c, 0, 64, 54
2, 294589, Note_on_c, 0, 63, 62
2, 294590, Note_on_c, 0, 72, 80
2, 294600, Note_on_c, 0, 56, 66
2, 294604, Control_c, 0, 64, 35
2, 294619, Control_c, 0, 64, 32
2, 294650, Control_c, 0, 64, 33
2, 294660, Note_on_c, 0, 52, 0
2, 294664, Control_c, 0, 64, 43
2, 294680, Control_c, 0, 64, 52
2, 294682, Note_on_c, 0, 49, 0
2, 294690, Note_on_c, 0, 68, 0
2, 294695, Control_c, 0, 64, 59
2, 294710, Control_c, 0, 64, 63
2, 294715, Note_on_c, 0, 63, 0
2, 294725, Control_c, 0, 64, 66
2, 294740, Control_c, 0, 64, 70
2, 294756, Control_c, 0, 64, 75
2, 294771, Control_c, 0, 64, 78
2, 294786, Control_c, 0, 64, 82
2, 294801, Control_c, 0, 64, 86
2, 294816, Control_c, 0, 64, 90
2, 294819, Note_on_c, 0, 69, 69
2, 294831, Control_c, 0, 64, 94
2, 294855, Control_c, 0, 64, 98
2, 294870, Control_c, 0, 64, 100
2, 294885, Control_c, 0, 64, 101
2, 294916, Control_c, 0, 64, 100
2, 294930, Control_c, 0, 64, 99
2, 294945, Control_c, 0, 64, 95
2, 294962, Control_c, 0, 64, 88
2, 294977, Control_c, 0, 64, 77
2, 294992, Control_c, 0, 64, 69
2, 295007, Control_c, 0, 64, 61
2, 295022, Control_c, 0, 64, 53
2, 295031, Note_on_c, 0, 68, 69
2, 295032, Note_on_c, 0, 44, 68
2, 295038, Control_c, 0, 64, 53
2, 295053, Control_c, 0, 64, 53
2, 295068, Control_c, 0, 64, 56
2, 295083, Control_c, 0, 64, 59
2, 295097, Note_on_c, 0, 72, 0
2, 295098, Control_c, 0, 64, 62
2, 295114, Control_c, 0, 64, 64
2, 295128, Control_c, 0, 64, 65
2, 295131, Note_on_c, 0, 69, 0
2, 295143, Control_c, 0, 64, 67
2, 295159, Control_c, 0, 64, 69
2, 295174, Control_c, 0, 64, 71
2, 295189, Control_c, 0, 64, 73
2, 295204, Control_c, 0, 64, 75
2, 295219, Control_c, 0, 64, 77
2, 295221, Note_on_c, 0, 66, 75
2, 295235, Control_c, 0, 64, 80
2, 295251, Control_c, 0, 64, 81
2, 295292, Note_on_c, 0, 68, 0
2, 295327, Control_c, 0, 64, 82
2, 295342, Control_c, 0, 64, 83
2, 295357, Control_c, 0, 64, 84
2, 295372, Control_c, 0, 64, 83
2, 295387, Control_c, 0, 64, 77
2, 295403, Control_c, 0, 64, 70
2, 295418, Control_c, 0, 64, 60
2, 295434, Control_c, 0, 64, 43
2, 295434, Note_on_c, 0, 49, 80
2, 295442, Note_on_c, 0, 76, 74
2, 295446, Note_on_c, 0, 64, 68
2, 295449, Control_c, 0, 64, 37
2, 295493, Note_on_c, 0, 66, 0
2, 295494, Control_c, 0, 64, 44
2, 295509, Control_c, 0, 64, 51
2, 295525, Control_c, 0, 64, 57
2, 295525, Note_on_c, 0, 44, 0
2, 295540, Control_c, 0, 64, 62
2, 295556, Control_c, 0, 64, 64
2, 295570, Control_c, 0, 64, 67
2, 295585, Control_c, 0, 64, 69
2, 295601, Control_c, 0, 64, 72
2, 295623, Control_c, 0, 64, 74
2, 295639, Control_c, 0, 64, 77
2, 295647, Note_on_c, 0, 68, 69
2, 295653, Control_c, 0, 64, 79
2, 295668, Control_c, 0, 64, 80
2, 295684, Control_c, 0, 64, 81
2, 295687, Note_on_c, 0, 49, 0
2, 295715, Control_c, 0, 64, 81
2, 295730, Control_c, 0, 64, 82
2, 295745, Control_c, 0, 64, 83
2, 295761, Control_c, 0, 64, 85
2, 295775, Control_c, 0, 64, 86
2, 295790, Control_c, 0, 64, 85
2, 295806, Control_c, 0, 64, 83
2, 295821, Control_c, 0, 64, 80
2, 295837, Control_c, 0, 64, 79
2, 295851, Control_c, 0, 64, 79
2, 295875, Note_on_c, 0, 49, 66
2, 295885, Note_on_c, 0, 73, 81
2, 295891, Note_on_c, 0, 68, 0
2, 295911, Control_c, 0, 64, 79
2, 295958, Control_c, 0, 64, 80
2, 295987, Control_c, 0, 64, 80
2, 296003, Control_c, 0, 64, 81
2, 296005, Note_on_c, 0, 49, 0
2, 296034, Control_c, 0, 64, 81
2, 296048, Control_c, 0, 64, 82
2, 296051, Note_on_c, 0, 71, 74
2, 296063, Control_c, 0, 64, 82
2, 296080, Control_c, 0, 64, 83
2, 296097, Control_c, 0, 64, 84
2, 296099, Note_on_c, 0, 76, 0
2, 296189, Control_c, 0, 64, 85
2, 296190, Note_on_c, 0, 73, 0
2, 296248, Note_on_c, 0, 64, 0
2, 296249, Control_c, 0, 64, 81
2, 296264, Control_c, 0, 64, 75
2, 296279, Control_c, 0, 64, 65
2, 296279, Note_on_c, 0, 54, 66
2, 296285, Note_on_c, 0, 49, 62
2, 296294, Control_c, 0, 64, 49
2, 296298, Note_on_c, 0, 75, 80
2, 296305, Note_on_c, 0, 69, 57
2, 296307, Note_on_c, 0, 56, 0
2, 296310, Control_c, 0, 64, 25
2, 296325, Control_c, 0, 64, 22
2, 296327, Note_on_c, 0, 71, 0
2, 296340, Control_c, 0, 64, 21
2, 296356, Control_c, 0, 64, 25
2, 296371, Control_c, 0, 64, 40
2, 296394, Control_c, 0, 64, 50
2, 296409, Control_c, 0, 64, 56
2, 296423, Control_c, 0, 64, 59
2, 296439, Control_c, 0, 64, 61
2, 296454, Control_c, 0, 64, 63
2, 296470, Control_c, 0, 64, 65
2, 296485, Control_c, 0, 64, 67
2, 296487, Note_on_c, 0, 68, 73
2, 296499, Control_c, 0, 64, 71
2, 296515, Control_c, 0, 64, 75
2, 296530, Control_c, 0, 64, 77
2, 296534, Note_on_c, 0, 69, 0
2, 296544, Control_c, 0, 64, 78
2, 296591, Control_c, 0, 64, 79
2, 296606, Control_c, 0, 64, 79
2, 296620, Control_c, 0, 64, 81
2, 296636, Control_c, 0, 64, 82
2, 296651, Control_c, 0, 64, 80
2, 296667, Control_c, 0, 64, 74
2, 296682, Control_c, 0, 64, 64
2, 296696, Control_c, 0, 64, 47
2, 296712, Control_c, 0, 64, 34
2, 296715, Note_on_c, 0, 48, 60
2, 296722, Note_on_c, 0, 69, 74
2, 296727, Control_c, 0, 64, 34
2, 296741, Control_c, 0, 64, 34
2, 296757, Control_c, 0, 64, 42
2, 296772, Control_c, 0, 64, 50
2, 296774, Note_on_c, 0, 68, 0
2, 296788, Control_c, 0, 64, 54
2, 296803, Control_c, 0, 64, 56
2, 296817, Control_c, 0, 64, 58
2, 296833, Control_c, 0, 64, 59
2, 296838, Note_on_c, 0, 49, 0
2, 296848, Control_c, 0, 64, 61
2, 296863, Control_c, 0, 64, 63
2, 296879, Control_c, 0, 64, 65
2, 296895, Control_c, 0, 64, 67
2, 296904, Note_on_c, 0, 46, 74
2, 296908, Note_on_c, 0, 66, 70
2, 296911, Control_c, 0, 64, 70
2, 296925, Control_c, 0, 64, 73
2, 296940, Control_c, 0, 64, 75
2, 296952, Note_on_c, 0, 48, 0
2, 296956, Control_c, 0, 64, 76
2, 296970, Control_c, 0, 64, 77
2, 296984, Note_on_c, 0, 69, 0
2, 297001, Control_c, 0, 64, 77
2, 297062, Control_c, 0, 64, 78
2, 297092, Control_c, 0, 64, 77
2, 297108, Control_c, 0, 64, 76
2, 297123, Control_c, 0, 64, 74
2, 297126, Note_on_c, 0, 51, 76
2, 297128, Note_on_c, 0, 48, 65
2, 297131, Note_on_c, 0, 68, 75
2, 297138, Control_c, 0, 64, 70
2, 297161, Control_c, 0, 64, 64
2, 297175, Control_c, 0, 64, 41
2, 297191, Control_c, 0, 64, 0
2, 297197, Note_on_c, 0, 46, 0
2, 297199, Note_on_c, 0, 54, 0
2, 297223, Note_on_c, 0, 66, 0
2, 297328, Note_on_c, 0, 49, 76
2, 297404, Control_c, 0, 64, 45
2, 297419, Control_c, 0, 64, 55
2, 297425, Note_on_c, 0, 51, 0
2, 297435, Control_c, 0, 64, 57
2, 297450, Control_c, 0, 64, 58
2, 297459, Note_on_c, 0, 48, 0
2, 297464, Control_c, 0, 64, 58
2, 297511, Control_c, 0, 64, 59
2, 297533, Note_on_c, 0, 51, 79
2, 297540, Control_c, 0, 64, 59
2, 297556, Control_c, 0, 64, 60
2, 297571, Control_c, 0, 64, 60
2, 297579, Note_on_c, 0, 49, 0
2, 297601, Control_c, 0, 64, 61
2, 297632, Control_c, 0, 64, 61
2, 297661, Control_c, 0, 64, 62
2, 297677, Control_c, 0, 64, 63
2, 297692, Control_c, 0, 64, 65
2, 297709, Control_c, 0, 64, 67
2, 297723, Note_on_c, 0, 48, 83
2, 297724, Control_c, 0, 64, 70
2, 297739, Control_c, 0, 64, 73
2, 297743, Note_on_c, 0, 51, 0
2, 297755, Control_c, 0, 64, 76
2, 297769, Control_c, 0, 64, 79
2, 297784, Control_c, 0, 64, 82
2, 297798, Note_on_c, 0, 68, 0
2, 297800, Control_c, 0, 64, 84
2, 297814, Control_c, 0, 64, 86
2, 297830, Control_c, 0, 64, 88
2, 297844, Note_on_c, 0, 48, 0
2, 297845, Control_c, 0, 64, 90
2, 297860, Control_c, 0, 64, 92
2, 297876, Control_c, 0, 64, 95
2, 297890, Control_c, 0, 64, 97
2, 297905, Control_c, 0, 64, 99
2, 297929, Control_c, 0, 64, 99
2, 297944, Control_c, 0, 64, 93
2, 297960, Control_c, 0, 64, 81
2, 297962, Note_on_c, 0, 52, 89
2, 297965, Note_on_c, 0, 40, 81
2, 297974, Control_c, 0, 64, 68
2, 297990, Control_c, 0, 64, 38
2, 298005, Control_c, 0, 64, 0
2, 298142, Control_c, 0, 64, 22
2, 298157, Control_c, 0, 64, 48
2, 298161, Note_on_c, 0, 51, 80
2, 298172, Control_c, 0, 64, 57
2, 298188, Control_c, 0, 64, 61
2, 298203, Control_c, 0, 64, 63
2, 298218, Control_c, 0, 64, 64
2, 298223, Note_on_c, 0, 52, 0
2, 298233, Control_c, 0, 64, 64
2, 298248, Control_c, 0, 64, 65
2, 298263, Control_c, 0, 64, 66
2, 298279, Control_c, 0, 64, 66
2, 298294, Control_c, 0, 64, 67
2, 298310, Control_c, 0, 64, 67
2, 298325, Control_c, 0, 64, 68
2, 298340, Control_c, 0, 64, 68
2, 298343, Note_on_c, 0, 40, 0
2, 298355, Control_c, 0, 64, 69
2, 298370, Control_c, 0, 64, 69
2, 298377, Note_on_c, 0, 73, 91
2, 298384, Note_on_c, 0, 52, 80
2, 298385, Control_c, 0, 64, 70
2, 298416, Control_c, 0, 64, 70
2, 298423, Note_on_c, 0, 51, 0
2, 298431, Control_c, 0, 64, 71
2, 298446, Control_c, 0, 64, 72
2, 298461, Control_c, 0, 64, 73
2, 298477, Control_c, 0, 64, 75
2, 298492, Control_c, 0, 64, 77
2, 298507, Control_c, 0, 64, 80
2, 298522, Control_c, 0, 64, 84
2, 298538, Control_c, 0, 64, 89
2, 298554, Control_c, 0, 64, 94
2, 298564, Note_on_c, 0, 72, 84
2, 298569, Control_c, 0, 64, 99
2, 298569, Note_on_c, 0, 54, 72
2, 298584, Control_c, 0, 64, 103
2, 298600, Control_c, 0, 64, 104
2, 298611, Note_on_c, 0, 75, 0
2, 298612, Note_on_c, 0, 52, 0
2, 298637, Note_on_c, 0, 73, 0
2, 298645, Control_c, 0, 64, 105
2, 298659, Control_c, 0, 64, 105
2, 298675, Control_c, 0, 64, 106
2, 298697, Control_c, 0, 64, 107
2, 298713, Control_c, 0, 64, 108
2, 298728, Control_c, 0, 64, 109
2, 298743, Control_c, 0, 64, 110
2, 298774, Control_c, 0, 64, 103
2, 298790, Control_c, 0, 64, 90
2, 298804, Control_c, 0, 64, 74
2, 298815, Note_on_c, 0, 73, 88
2, 298817, Note_on_c, 0, 52, 79
2, 298817, Note_on_c, 0, 80, 90
2, 298819, Control_c, 0, 64, 54
2, 298835, Control_c, 0, 64, 0
2, 298835, Note_on_c, 0, 54, 0
2, 298856, Note_on_c, 0, 72, 0
2, 298956, Control_c, 0, 64, 47
2, 298971, Control_c, 0, 64, 60
2, 298987, Control_c, 0, 64, 64
2, 298999, Note_on_c, 0, 51, 78
2, 299001, Control_c, 0, 64, 66
2, 299016, Control_c, 0, 64, 67
2, 299032, Control_c, 0, 64, 69
2, 299047, Control_c, 0, 64, 71
2, 299054, Note_on_c, 0, 52, 0
2, 299062, Control_c, 0, 64, 73
2, 299077, Control_c, 0, 64, 74
2, 299123, Control_c, 0, 64, 73
2, 299135, Note_on_c, 0, 80, 0
2, 299154, Control_c, 0, 64, 73
2, 299214, Note_on_c, 0, 45, 67
2, 299230, Note_on_c, 0, 49, 71
2, 299239, Note_on_c, 0, 80, 95
2, 299245, Control_c, 0, 64, 73
2, 299275, Control_c, 0, 64, 74
2, 299305, Control_c, 0, 64, 74
2, 299317, Note_on_c, 0, 51, 0
2, 299321, Control_c, 0, 64, 75
2, 299336, Control_c, 0, 64, 75
2, 299352, Control_c, 0, 64, 76
2, 299367, Control_c, 0, 64, 77
2, 299382, Control_c, 0, 64, 80
2, 299398, Control_c, 0, 64, 83
2, 299406, Note_on_c, 0, 45, 0
2, 299413, Control_c, 0, 64, 87
2, 299428, Control_c, 0, 64, 92
2, 299432, Note_on_c, 0, 52, 79
2, 299443, Control_c, 0, 64, 99
2, 299465, Control_c, 0, 64, 106
2, 299481, Control_c, 0, 64, 109
2, 299496, Control_c, 0, 64, 109
2, 299501, Note_on_c, 0, 52, 0
2, 299541, Control_c, 0, 64, 110
2, 299557, Control_c, 0, 64, 110
2, 299558, Note_on_c, 0, 80, 0
2, 299572, Control_c, 0, 64, 111
2, 299581, Note_on_c, 0, 49, 0
2, 299588, Control_c, 0, 64, 111
2, 299603, Control_c, 0, 64, 104
2, 299618, Control_c, 0, 64, 90
2, 299634, Control_c, 0, 64, 74
2, 299636, Note_on_c, 0, 51, 84
2, 299648, Control_c, 0, 64, 52
2, 299651, Note_on_c, 0, 39, 65
2, 299651, Note_on_c, 0, 80, 97
2, 299663, Control_c, 0, 64, 0
2, 299828, Control_c, 0, 64, 39
2, 299843, Control_c, 0, 64, 54
2, 299846, Note_on_c, 0, 49, 78
2, 299852, Note_on_c, 0, 73, 0
2, 299858, Control_c, 0, 64, 59
2, 299874, Control_c, 0, 64, 61
2, 299889, Control_c, 0, 64, 61
2, 299897, Note_on_c, 0, 51, 0
2, 299919, Control_c, 0, 64, 62
2, 299934, Control_c, 0, 64, 62
2, 300055, Note_on_c, 0, 78, 85
2, 300056, Note_on_c, 0, 70, 93
2, 300062, Note_on_c, 0, 51, 81
2, 300178, Control_c, 0, 64, 63
2, 300194, Control_c, 0, 64, 63
2, 300207, Note_on_c, 0, 51, 0
2, 300209, Control_c, 0, 64, 64
2, 300231, Control_c, 0, 64, 64
2, 300248, Note_on_c, 0, 39, 0
2, 300258, Note_on_c, 0, 52, 77
2, 300262, Control_c, 0, 64, 65
2, 300270, Note_on_c, 0, 76, 84
2, 300277, Control_c, 0, 64, 66
2, 300277, Note_on_c, 0, 80, 0
2, 300292, Control_c, 0, 64, 66
2, 300297, Note_on_c, 0, 49, 0
2, 300305, Note_on_c, 0, 78, 0
2, 300307, Control_c, 0, 64, 68
2, 300323, Control_c, 0, 64, 69
2, 300337, Control_c, 0, 64, 71
2, 300351, Control_c, 0, 64, 73
2, 300367, Control_c, 0, 64, 74
2, 300382, Control_c, 0, 64, 75
2, 300398, Control_c, 0, 64, 76
2, 300458, Control_c, 0, 64, 75
2, 300474, Control_c, 0, 64, 71
2, 300488, Control_c, 0, 64, 62
2, 300493, Note_on_c, 0, 51, 82
2, 300495, Note_on_c, 0, 78, 88
2, 300498, Note_on_c, 0, 75, 83
2, 300503, Control_c, 0, 64, 0
2, 300527, Note_on_c, 0, 52, 0
2, 300530, Note_on_c, 0, 76, 0
2, 300533, Note_on_c, 0, 70, 0
2, 300691, Note_on_c, 0, 49, 81
2, 300730, Note_on_c, 0, 75, 0
2, 300747, Control_c, 0, 64, 46
2, 300762, Control_c, 0, 64, 55
2, 300762, Note_on_c, 0, 51, 0
2, 300777, Control_c, 0, 64, 58
2, 300792, Control_c, 0, 64, 60
2, 300807, Control_c, 0, 64, 61
2, 300822, Control_c, 0, 64, 63
2, 300838, Control_c, 0, 64, 64
2, 300853, Control_c, 0, 64, 67
2, 300868, Control_c, 0, 64, 70
2, 300883, Control_c, 0, 64, 71
2, 300898, Control_c, 0, 64, 67
2, 300914, Control_c, 0, 64, 60
2, 300923, Note_on_c, 0, 48, 82
2, 300929, Control_c, 0, 64, 45
2, 300930, Note_on_c, 0, 44, 76
2, 300930, Note_on_c, 0, 75, 94
2, 300944, Control_c, 0, 64, 38
2, 300974, Control_c, 0, 64, 39
2, 300974, Note_on_c, 0, 49, 0
2, 300998, Control_c, 0, 64, 46
2, 301010, Note_on_c, 0, 78, 0
2, 301013, Control_c, 0, 64, 53
2, 301028, Control_c, 0, 64, 58
2, 301044, Control_c, 0, 64, 63
2, 301059, Control_c, 0, 64, 68
2, 301074, Control_c, 0, 64, 73
2, 301089, Control_c, 0, 64, 79
2, 301104, Control_c, 0, 64, 86
2, 301120, Control_c, 0, 64, 93
2, 301135, Control_c, 0, 64, 99
2, 301150, Control_c, 0, 64, 104
2, 301160, Note_on_c, 0, 51, 89
2, 301166, Control_c, 0, 64, 106
2, 301166, Note_on_c, 0, 75, 0
2, 301171, Note_on_c, 0, 48, 0
2, 301181, Control_c, 0, 64, 108
2, 301196, Control_c, 0, 64, 109
2, 301204, Note_on_c, 0, 51, 0
2, 301211, Control_c, 0, 64, 111
2, 301224, Note_on_c, 0, 44, 0
2, 301226, Control_c, 0, 64, 114
2, 301242, Control_c, 0, 64, 116
2, 301256, Control_c, 0, 64, 118
2, 301271, Control_c, 0, 64, 120
2, 301287, Control_c, 0, 64, 127
2, 301499, Control_c, 0, 64, 106
2, 301515, Control_c, 0, 64, 88
2, 301525, Note_on_c, 0, 76, 87
2, 301529, Note_on_c, 0, 75, 84
2, 301530, Control_c, 0, 64, 72
2, 301533, Note_on_c, 0, 49, 83
2, 301537, Note_on_c, 0, 37, 86
2, 301545, Control_c, 0, 64, 52
2, 301560, Control_c, 0, 64, 0
2, 301666, Control_c, 0, 64, 20
2, 301682, Control_c, 0, 64, 54
2, 301692, Note_on_c, 0, 37, 0
2, 301697, Control_c, 0, 64, 65
2, 301712, Control_c, 0, 64, 70
2, 301727, Control_c, 0, 64, 77
2, 301742, Control_c, 0, 64, 85
2, 301765, Control_c, 0, 64, 94
2, 301780, Control_c, 0, 64, 103
2, 301796, Control_c, 0, 64, 106
2, 301803, Note_on_c, 0, 49, 0
2, 301812, Control_c, 0, 64, 106
2, 301857, Control_c, 0, 64, 106
2, 301874, Control_c, 0, 64, 107
2, 301888, Control_c, 0, 64, 107
2, 301903, Control_c, 0, 64, 108
2, 301934, Control_c, 0, 64, 108
2, 301949, Control_c, 0, 64, 108
2, 301964, Control_c, 0, 64, 102
2, 301979, Control_c, 0, 64, 91
2, 301995, Control_c, 0, 64, 81
2, 302001, Note_on_c, 0, 52, 87
2, 302010, Control_c, 0, 64, 71
2, 302018, Note_on_c, 0, 73, 82
2, 302025, Control_c, 0, 64, 66
2, 302040, Control_c, 0, 64, 66
2, 302045, Note_on_c, 0, 75, 0
2, 302055, Control_c, 0, 64, 67
2, 302070, Control_c, 0, 64, 69
2, 302086, Control_c, 0, 64, 70
2, 302101, Control_c, 0, 64, 73
2, 302114, Control_c, 0, 64, 75
2, 302130, Control_c, 0, 64, 78
2, 302145, Control_c, 0, 64, 81
2, 302161, Control_c, 0, 64, 84
2, 302175, Control_c, 0, 64, 87
2, 302190, Control_c, 0, 64, 89
2, 302206, Control_c, 0, 64, 90
2, 302221, Control_c, 0, 64, 91
2, 302227, Note_on_c, 0, 71, 74
2, 302236, Control_c, 0, 64, 90
2, 302249, Note_on_c, 0, 73, 0
2, 302342, Control_c, 0, 64, 91
2, 302357, Control_c, 0, 64, 92
2, 302372, Control_c, 0, 64, 93
2, 302387, Control_c, 0, 64, 93
2, 302403, Control_c, 0, 64, 92
2, 302418, Control_c, 0, 64, 85
2, 302433, Control_c, 0, 64, 72
2, 302448, Control_c, 0, 64, 52
2, 302449, Note_on_c, 0, 57, 85
2, 302454, Note_on_c, 0, 73, 83
2, 302463, Control_c, 0, 64, 0
2, 302489, Note_on_c, 0, 71, 0
2, 302587, Note_on_c, 0, 52, 0
2, 302638, Control_c, 0, 64, 37
2, 302654, Control_c, 0, 64, 59
2, 302669, Control_c, 0, 64, 65
2, 302684, Control_c, 0, 64, 67
2, 302699, Control_c, 0, 64, 68
2, 302714, Control_c, 0, 64, 69
2, 302729, Control_c, 0, 64, 70
2, 302744, Control_c, 0, 64, 71
2, 302759, Control_c, 0, 64, 72
2, 302775, Control_c, 0, 64, 74
2, 302775, Note_on_c, 0, 57, 0
2, 302790, Control_c, 0, 64, 77
2, 302806, Control_c, 0, 64, 79
2, 302821, Control_c, 0, 64, 81
2, 302835, Control_c, 0, 64, 83
2, 302851, Control_c, 0, 64, 84
2, 302866, Control_c, 0, 64, 84
2, 302882, Control_c, 0, 64, 85
2, 302892, Note_on_c, 0, 57, 87
2, 302897, Control_c, 0, 64, 86
2, 302912, Control_c, 0, 64, 87
2, 302927, Control_c, 0, 64, 88
2, 302942, Control_c, 0, 64, 89
2, 302957, Control_c, 0, 64, 91
2, 302973, Control_c, 0, 64, 92
2, 302988, Control_c, 0, 64, 94
2, 303003, Control_c, 0, 64, 96
2, 303018, Control_c, 0, 64, 98
2, 303033, Control_c, 0, 64, 98
2, 303049, Control_c, 0, 64, 99
2, 303064, Control_c, 0, 64, 99
2, 303079, Control_c, 0, 64, 100
2, 303090, Note_on_c, 0, 57, 0
2, 303094, Control_c, 0, 64, 100
2, 303125, Control_c, 0, 64, 101
2, 303201, Control_c, 0, 64, 101
2, 303215, Control_c, 0, 64, 102
2, 303228, Control_c, 0, 64, 102
2, 303243, Control_c, 0, 64, 103
2, 303259, Control_c, 0, 64, 103
2, 303274, Control_c, 0, 64, 101
2, 303297, Control_c, 0, 64, 93
2, 303299, Note_on_c, 0, 75, 92
2, 303306, Note_on_c, 0, 71, 82
2, 303312, Control_c, 0, 64, 81
2, 303313, Note_on_c, 0, 57, 84
2, 303328, Control_c, 0, 64, 67
2, 303341, Note_on_c, 0, 76, 0
2, 303342, Control_c, 0, 64, 43
2, 303357, Control_c, 0, 64, 0
2, 303392, Note_on_c, 0, 73, 0
2, 303525, Control_c, 0, 64, 31
2, 303541, Control_c, 0, 64, 55
2, 303556, Control_c, 0, 64, 62
2, 303571, Control_c, 0, 64, 66
2, 303586, Control_c, 0, 64, 69
2, 303601, Control_c, 0, 64, 72
2, 303617, Control_c, 0, 64, 75
2, 303632, Control_c, 0, 64, 79
2, 303646, Control_c, 0, 64, 82
2, 303662, Control_c, 0, 64, 86
2, 303677, Control_c, 0, 64, 91
2, 303693, Control_c, 0, 64, 94
2, 303708, Control_c, 0, 64, 89
2, 303723, Control_c, 0, 64, 78
2, 303731, Note_on_c, 0, 59, 89
2, 303735, Note_on_c, 0, 55, 77
2, 303739, Control_c, 0, 64, 66
2, 303739, Note_on_c, 0, 57, 0
2, 303754, Control_c, 0, 64, 43
2, 303769, Control_c, 0, 64, 0
2, 303815, Control_c, 0, 64, 19
2, 303830, Control_c, 0, 64, 43
2, 303844, Control_c, 0, 64, 56
2, 303860, Control_c, 0, 64, 63
2, 303875, Control_c, 0, 64, 67
2, 303891, Control_c, 0, 64, 71
2, 303905, Control_c, 0, 64, 76
2, 303920, Control_c, 0, 64, 80
2, 303924, Note_on_c, 0, 54, 83
2, 303936, Control_c, 0, 64, 83
2, 303951, Control_c, 0, 64, 85
2, 303959, Note_on_c, 0, 55, 0
2, 303959, Note_on_c, 0, 59, 0
2, 303966, Control_c, 0, 64, 86
2, 303981, Control_c, 0, 64, 87
2, 303996, Control_c, 0, 64, 89
2, 304012, Control_c, 0, 64, 90
2, 304027, Control_c, 0, 64, 92
2, 304042, Control_c, 0, 64, 93
2, 304065, Control_c, 0, 64, 94
2, 304066, Note_on_c, 0, 71, 0
2, 304080, Control_c, 0, 64, 96
2, 304096, Control_c, 0, 64, 97
2, 304110, Control_c, 0, 64, 98
2, 304125, Control_c, 0, 64, 99
2, 304141, Control_c, 0, 64, 100
2, 304156, Control_c, 0, 64, 101
2, 304172, Control_c, 0, 64, 102
2, 304186, Control_c, 0, 64, 103
2, 304217, Control_c, 0, 64, 99
2, 304232, Control_c, 0, 64, 89
2, 304233, Note_on_c, 0, 71, 93
2, 304233, Note_on_c, 0, 79, 89
2, 304239, Note_on_c, 0, 52, 75
2, 304241, Note_on_c, 0, 64, 84
2, 304248, Control_c, 0, 64, 74
2, 304264, Control_c, 0, 64, 57
2, 304265, Note_on_c, 0, 54, 0
2, 304279, Control_c, 0, 64, 0
2, 304306, Note_on_c, 0, 75, 0
2, 304415, Control_c, 0, 64, 52
2, 304430, Control_c, 0, 64, 62
2, 304445, Control_c, 0, 64, 66
2, 304461, Control_c, 0, 64, 69
2, 304476, Control_c, 0, 64, 73
2, 304491, Control_c, 0, 64, 77
2, 304506, Control_c, 0, 64, 80
2, 304521, Control_c, 0, 64, 84
2, 304525, Note_on_c, 0, 64, 0
2, 304537, Control_c, 0, 64, 87
2, 304552, Control_c, 0, 64, 89
2, 304568, Control_c, 0, 64, 91
2, 304583, Control_c, 0, 64, 91
2, 304597, Control_c, 0, 64, 92
2, 304628, Control_c, 0, 64, 92
2, 304659, Control_c, 0, 64, 93
2, 304674, Control_c, 0, 64, 93
2, 304689, Control_c, 0, 64, 94
2, 304704, Control_c, 0, 64, 95
2, 304705, Note_on_c, 0, 64, 90
2, 304719, Control_c, 0, 64, 95
2, 304735, Control_c, 0, 64, 96
2, 304749, Control_c, 0, 64, 97
2, 304764, Control_c, 0, 64, 98
2, 304768, Note_on_c, 0, 79, 0
2, 304780, Control_c, 0, 64, 99
2, 304795, Control_c, 0, 64, 100
2, 304811, Control_c, 0, 64, 100
2, 304833, Control_c, 0, 64, 101
2, 304849, Control_c, 0, 64, 101
2, 304864, Control_c, 0, 64, 102
2, 304879, Control_c, 0, 64, 103
2, 304895, Control_c, 0, 64, 104
2, 304901, Note_on_c, 0, 64, 0
2, 304924, Control_c, 0, 64, 105
2, 304955, Control_c, 0, 64, 105
2, 304986, Control_c, 0, 64, 106
2, 305031, Control_c, 0, 64, 107
2, 305046, Control_c, 0, 64, 108
2, 305093, Control_c, 0, 64, 103
2, 305108, Control_c, 0, 64, 92
2, 305123, Control_c, 0, 64, 77
2, 305132, Note_on_c, 0, 70, 84
2, 305132, Note_on_c, 0, 78, 86
2, 305133, Note_on_c, 0, 64, 87
2, 305139, Control_c, 0, 64, 62
2, 305154, Control_c, 0, 64, 0
2, 305191, Note_on_c, 0, 71, 0
2, 305245, Control_c, 0, 64, 41
2, 305249, Note_on_c, 0, 52, 0
2, 305260, Control_c, 0, 64, 60
2, 305275, Control_c, 0, 64, 65
2, 305291, Control_c, 0, 64, 69
2, 305306, Control_c, 0, 64, 74
2, 305321, Control_c, 0, 64, 79
2, 305336, Control_c, 0, 64, 84
2, 305351, Control_c, 0, 64, 90
2, 305366, Control_c, 0, 64, 96
2, 305382, Control_c, 0, 64, 101
2, 305396, Control_c, 0, 64, 104
2, 305412, Control_c, 0, 64, 106
2, 305427, Control_c, 0, 64, 106
2, 305442, Control_c, 0, 64, 107
2, 305458, Control_c, 0, 64, 108
2, 305472, Control_c, 0, 64, 109
2, 305488, Control_c, 0, 64, 110
2, 305503, Control_c, 0, 64, 108
2, 305518, Control_c, 0, 64, 98
2, 305534, Control_c, 0, 64, 86
2, 305549, Control_c, 0, 64, 72
2, 305562, Note_on_c, 0, 62, 78
2, 305563, Control_c, 0, 64, 57
2, 305563, Note_on_c, 0, 54, 75
2, 305579, Control_c, 0, 64, 40
2, 305601, Control_c, 0, 64, 40
2, 305603, Note_on_c, 0, 64, 0
2, 305617, Control_c, 0, 64, 42
2, 305632, Control_c, 0, 64, 49
2, 305648, Control_c, 0, 64, 56
2, 305663, Control_c, 0, 64, 61
2, 305677, Control_c, 0, 64, 66
2, 305693, Control_c, 0, 64, 70
2, 305708, Control_c, 0, 64, 76
2, 305722, Control_c, 0, 64, 83
2, 305738, Control_c, 0, 64, 90
2, 305753, Control_c, 0, 64, 97
2, 305755, Note_on_c, 0, 61, 84
2, 305769, Control_c, 0, 64, 101
2, 305784, Control_c, 0, 64, 102
2, 305815, Control_c, 0, 64, 103
2, 305824, Note_on_c, 0, 62, 0
2, 305830, Control_c, 0, 64, 103
2, 305845, Control_c, 0, 64, 104
2, 305861, Control_c, 0, 64, 105
2, 305875, Control_c, 0, 64, 107
2, 305883, Note_on_c, 0, 61, 0
2, 305891, Control_c, 0, 64, 108
2, 305906, Control_c, 0, 64, 109
2, 305921, Control_c, 0, 64, 110
2, 305937, Control_c, 0, 64, 108
2, 305952, Control_c, 0, 64, 99
2, 305968, Control_c, 0, 64, 85
2, 305983, Control_c, 0, 64, 69
2, 305996, Note_on_c, 0, 66, 89
2, 305998, Control_c, 0, 64, 25
2, 306000, Note_on_c, 0, 78, 0
2, 306005, Note_on_c, 0, 74, 78
2, 306014, Control_c, 0, 64, 0
2, 306015, Note_on_c, 0, 59, 80
2, 306034, Note_on_c, 0, 70, 0
2, 306135, Control_c, 0, 64, 21
2, 306150, Control_c, 0, 64, 55
2, 306164, Control_c, 0, 64, 64
2, 306180, Control_c, 0, 64, 69
2, 306195, Control_c, 0, 64, 75
2, 306211, Control_c, 0, 64, 82
2, 306226, Control_c, 0, 64, 89
2, 306240, Control_c, 0, 64, 96
2, 306250, Note_on_c, 0, 59, 0
2, 306256, Control_c, 0, 64, 102
2, 306271, Control_c, 0, 64, 104
2, 306332, Control_c, 0, 64, 105
2, 306347, Control_c, 0, 64, 106
2, 306370, Control_c, 0, 64, 107
2, 306385, Control_c, 0, 64, 109
2, 306400, Control_c, 0, 64, 110
2, 306416, Control_c, 0, 64, 112
2, 306431, Control_c, 0, 64, 114
2, 306432, Note_on_c, 0, 59, 87
2, 306445, Control_c, 0, 64, 114
2, 306461, Control_c, 0, 64, 115
2, 306476, Control_c, 0, 64, 115
2, 306507, Control_c, 0, 64, 116
2, 306552, Control_c, 0, 64, 116
2, 306566, Control_c, 0, 64, 117
2, 306576, Note_on_c, 0, 59, 0
2, 306582, Control_c, 0, 64, 117
2, 306597, Control_c, 0, 64, 118
2, 306613, Control_c, 0, 64, 119
2, 306628, Control_c, 0, 64, 123
2, 306643, Control_c, 0, 64, 127
2, 306753, Note_on_c, 0, 66, 0
2, 306781, Control_c, 0, 64, 112
2, 306796, Control_c, 0, 64, 94
2, 306812, Control_c, 0, 64, 76
2, 306827, Control_c, 0, 64, 48
2, 306837, Note_on_c, 0, 59, 81
2, 306839, Note_on_c, 0, 65, 75
2, 306839, Note_on_c, 0, 73, 77
2, 306841, Control_c, 0, 64, 0
2, 306859, Note_on_c, 0, 74, 0
2, 306934, Control_c, 0, 64, 43
2, 306948, Control_c, 0, 64, 62
2, 306963, Control_c, 0, 64, 69
2, 306979, Control_c, 0, 64, 77
2, 306994, Control_c, 0, 64, 88
2, 307009, Control_c, 0, 64, 101
2, 307024, Control_c, 0, 64, 114
2, 307028, Note_on_c, 0, 54, 0
2, 307039, Control_c, 0, 64, 115
2, 307055, Control_c, 0, 64, 114
2, 307100, Control_c, 0, 64, 114
2, 307115, Control_c, 0, 64, 115
2, 307139, Control_c, 0, 64, 115
2, 307153, Control_c, 0, 64, 116
2, 307169, Control_c, 0, 64, 118
2, 307184, Control_c, 0, 64, 118
2, 307199, Control_c, 0, 64, 119
2, 307214, Control_c, 0, 64, 111
2, 307229, Control_c, 0, 64, 97
2, 307243, Control_c, 0, 64, 81
2, 307250, Note_on_c, 0, 57, 72
2, 307250, Note_on_c, 0, 61, 72
2, 307259, Control_c, 0, 64, 63
2, 307276, Control_c, 0, 64, 0
2, 307278, Note_on_c, 0, 59, 0
2, 307337, Control_c, 0, 64, 30
2, 307352, Control_c, 0, 64, 52
2, 307367, Control_c, 0, 64, 63
2, 307382, Control_c, 0, 64, 68
2, 307397, Control_c, 0, 64, 75
2, 307413, Control_c, 0, 64, 83
2, 307428, Control_c, 0, 64, 92
2, 307429, Note_on_c, 0, 65, 0
2, 307444, Control_c, 0, 64, 101
2, 307451, Note_on_c, 0, 56, 79
2, 307459, Control_c, 0, 64, 106
2, 307474, Control_c, 0, 64, 105
2, 307483, Note_on_c, 0, 57, 0
2, 307550, Control_c, 0, 64, 106
2, 307612, Control_c, 0, 64, 106
2, 307627, Control_c, 0, 64, 107
2, 307642, Control_c, 0, 64, 108
2, 307657, Control_c, 0, 64, 110
2, 307688, Control_c, 0, 64, 100
2, 307703, Control_c, 0, 64, 85
2, 307706, Note_on_c, 0, 57, 78
2, 307710, Note_on_c, 0, 49, 73
2, 307710, Note_on_c, 0, 66, 72
2, 307711, Note_on_c, 0, 69, 72
2, 307717, Control_c, 0, 64, 66
2, 307733, Control_c, 0, 64, 0
2, 307733, Note_on_c, 0, 56, 0
2, 307786, Note_on_c, 0, 61, 0
2, 307854, Control_c, 0, 64, 52
2, 307869, Control_c, 0, 64, 63
2, 307885, Control_c, 0, 64, 68
2, 307908, Control_c, 0, 64, 74
2, 307917, Note_on_c, 0, 56, 79
2, 307924, Control_c, 0, 64, 80
2, 307938, Control_c, 0, 64, 86
2, 307947, Note_on_c, 0, 66, 0
2, 307953, Control_c, 0, 64, 91
2, 307956, Note_on_c, 0, 57, 0
2, 307969, Control_c, 0, 64, 95
2, 307983, Control_c, 0, 64, 99
2, 307998, Control_c, 0, 64, 99
2, 308014, Control_c, 0, 64, 100
2, 308045, Control_c, 0, 64, 100
2, 308059, Control_c, 0, 64, 101
2, 308074, Control_c, 0, 64, 101
2, 308105, Control_c, 0, 64, 102
2, 308128, Note_on_c, 0, 54, 82
2, 308131, Note_on_c, 0, 66, 78
2, 308150, Control_c, 0, 64, 102
2, 308166, Control_c, 0, 64, 103
2, 308180, Control_c, 0, 64, 103
2, 308199, Note_on_c, 0, 56, 0
2, 308299, Note_on_c, 0, 52, 79
2, 308327, Note_on_c, 0, 66, 0
2, 308333, Control_c, 0, 64, 104
2, 308345, Note_on_c, 0, 54, 0
2, 308364, Control_c, 0, 64, 104
2, 308509, Note_on_c, 0, 49, 0
2, 308516, Control_c, 0, 64, 104
2, 308532, Control_c, 0, 64, 100
2, 308547, Control_c, 0, 64, 89
2, 308547, Note_on_c, 0, 51, 78
2, 308547, Note_on_c, 0, 68, 81
2, 308550, Note_on_c, 0, 48, 80
2, 308550, Note_on_c, 0, 66, 77
2, 308562, Control_c, 0, 64, 74
2, 308577, Control_c, 0, 64, 55
2, 308578, Note_on_c, 0, 52, 0
2, 308592, Control_c, 0, 64, 0
2, 308595, Note_on_c, 0, 69, 0
2, 308803, Note_on_c, 0, 68, 0
2, 308828, Control_c, 0, 64, 54
2, 308844, Control_c, 0, 64, 63
2, 308859, Control_c, 0, 64, 66
2, 308874, Control_c, 0, 64, 68
2, 308890, Control_c, 0, 64, 69
2, 308904, Control_c, 0, 64, 70
2, 308919, Control_c, 0, 64, 72
2, 308927, Note_on_c, 0, 73, 0
2, 308935, Control_c, 0, 64, 75
2, 308948, Note_on_c, 0, 68, 78
2, 308950, Control_c, 0, 64, 77
2, 308955, Note_on_c, 0, 64, 79
2, 308966, Control_c, 0, 64, 80
2, 308980, Control_c, 0, 64, 82
2, 308995, Control_c, 0, 64, 84
2, 309011, Control_c, 0, 64, 86
2, 309013, Note_on_c, 0, 66, 0
2, 309025, Control_c, 0, 64, 88
2, 309040, Control_c, 0, 64, 90
2, 309056, Control_c, 0, 64, 91
2, 309071, Control_c, 0, 64, 93
2, 309087, Control_c, 0, 64, 95
2, 309101, Control_c, 0, 64, 97
2, 309116, Control_c, 0, 64, 100
2, 309132, Control_c, 0, 64, 102
2, 309144, Note_on_c, 0, 63, 75
2, 309147, Control_c, 0, 64, 103
2, 309163, Control_c, 0, 64, 104
2, 309179, Control_c, 0, 64, 105
2, 309186, Note_on_c, 0, 64, 0
2, 309194, Control_c, 0, 64, 108
2, 309209, Control_c, 0, 64, 110
2, 309224, Control_c, 0, 64, 114
2, 309239, Control_c, 0, 64, 118
2, 309254, Control_c, 0, 64, 127
2, 309285, Control_c, 0, 64, 116
2, 309300, Control_c, 0, 64, 102
2, 309315, Control_c, 0, 64, 87
2, 309330, Control_c, 0, 64, 73
2, 309345, Control_c, 0, 64, 50
2, 309360, Control_c, 0, 64, 0
2, 309372, Note_on_c, 0, 48, 0
2, 309373, Note_on_c, 0, 52, 83
2, 309386, Note_on_c, 0, 64, 79
2, 309390, Note_on_c, 0, 73, 80
2, 309406, Note_on_c, 0, 51, 0
2, 309443, Note_on_c, 0, 63, 0
2, 309566, Control_c, 0, 64, 58
2, 309581, Control_c, 0, 64, 66
2, 309596, Control_c, 0, 64, 72
2, 309611, Control_c, 0, 64, 79
2, 309626, Control_c, 0, 64, 86
2, 309642, Control_c, 0, 64, 93
2, 309657, Control_c, 0, 64, 100
2, 309672, Control_c, 0, 64, 106
2, 309676, Note_on_c, 0, 73, 0
2, 309688, Control_c, 0, 64, 107
2, 309717, Control_c, 0, 64, 108
2, 309733, Control_c, 0, 64, 109
2, 309748, Control_c, 0, 64, 110
2, 309764, Control_c, 0, 64, 111
2, 309810, Control_c, 0, 64, 111
2, 309817, Note_on_c, 0, 56, 91
2, 309820, Note_on_c, 0, 73, 84
2, 309824, Control_c, 0, 64, 112
2, 309839, Control_c, 0, 64, 112
2, 309855, Control_c, 0, 64, 113
2, 309869, Control_c, 0, 64, 114
2, 309885, Control_c, 0, 64, 116
2, 309900, Control_c, 0, 64, 117
2, 309915, Control_c, 0, 64, 118
2, 309931, Control_c, 0, 64, 118
2, 309945, Control_c, 0, 64, 119
2, 309960, Control_c, 0, 64, 121
2, 309976, Control_c, 0, 64, 122
2, 309990, Control_c, 0, 64, 127
2, 309998, Note_on_c, 0, 52, 0
2, 310045, Note_on_c, 0, 73, 0
2, 310187, Control_c, 0, 64, 113
2, 310211, Control_c, 0, 64, 91
2, 310226, Control_c, 0, 64, 72
2, 310226, Note_on_c, 0, 64, 0
2, 310238, Note_on_c, 0, 51, 76
2, 310241, Control_c, 0, 64, 37
2, 310244, Note_on_c, 0, 63, 89
2, 310254, Note_on_c, 0, 73, 77
2, 310256, Control_c, 0, 64, 0
2, 310257, Note_on_c, 0, 66, 75
2, 310278, Note_on_c, 0, 68, 0
2, 310302, Note_on_c, 0, 56, 0
2, 310362, Control_c, 0, 64, 54
2, 310377, Control_c, 0, 64, 67
2, 310392, Control_c, 0, 64, 76
2, 310407, Control_c, 0, 64, 91
2, 310423, Control_c, 0, 64, 105
2, 310437, Control_c, 0, 64, 115
2, 310453, Control_c, 0, 64, 112
2, 310468, Control_c, 0, 64, 111
2, 310499, Control_c, 0, 64, 112
2, 310514, Control_c, 0, 64, 113
2, 310559, Control_c, 0, 64, 114
2, 310562, Note_on_c, 0, 63, 0
2, 310590, Control_c, 0, 64, 114
2, 310605, Control_c, 0, 64, 116
2, 310621, Control_c, 0, 64, 118
2, 310635, Control_c, 0, 64, 119
2, 310651, Control_c, 0, 64, 122
2, 310666, Control_c, 0, 64, 120
2, 310681, Control_c, 0, 64, 107
2, 310697, Control_c, 0, 64, 93
2, 310697, Note_on_c, 0, 63, 88
2, 310711, Control_c, 0, 64, 78
2, 310713, Note_on_c, 0, 72, 80
2, 310726, Control_c, 0, 64, 66
2, 310742, Control_c, 0, 64, 56
2, 310757, Control_c, 0, 64, 53
2, 310773, Control_c, 0, 64, 57
2, 310787, Control_c, 0, 64, 62
2, 310802, Control_c, 0, 64, 66
2, 310804, Note_on_c, 0, 73, 0
2, 310819, Control_c, 0, 64, 74
2, 310834, Control_c, 0, 64, 85
2, 310850, Control_c, 0, 64, 101
2, 310865, Control_c, 0, 64, 127
2, 310895, Control_c, 0, 64, 124
2, 310910, Control_c, 0, 64, 121
2, 310936, Note_on_c, 0, 70, 84
2, 311003, Note_on_c, 0, 63, 0
2, 311013, Note_on_c, 0, 72, 0
2, 311039, Control_c, 0, 64, 121
2, 311055, Control_c, 0, 64, 124
2, 311070, Control_c, 0, 64, 127
2, 311114, Control_c, 0, 64, 116
2, 311130, Control_c, 0, 64, 99
2, 311145, Control_c, 0, 64, 74
2, 311153, Note_on_c, 0, 63, 87
2, 311153, Note_on_c, 0, 66, 0
2, 311158, Note_on_c, 0, 78, 83
2, 311159, Control_c, 0, 64, 42
2, 311163, Note_on_c, 0, 72, 79
2, 311175, Control_c, 0, 64, 0
2, 311204, Note_on_c, 0, 70, 0
2, 311281, Control_c, 0, 64, 12
2, 311289, Note_on_c, 0, 78, 0
2, 311297, Control_c, 0, 64, 60
2, 311312, Control_c, 0, 64, 69
2, 311326, Control_c, 0, 64, 77
2, 311342, Control_c, 0, 64, 89
2, 311357, Control_c, 0, 64, 98
2, 311373, Control_c, 0, 64, 102
2, 311388, Control_c, 0, 64, 101
2, 311394, Note_on_c, 0, 73, 84
2, 311403, Control_c, 0, 64, 101
2, 311419, Control_c, 0, 64, 101
2, 311431, Note_on_c, 0, 72, 0
2, 311433, Control_c, 0, 64, 102
2, 311449, Control_c, 0, 64, 105
2, 311464, Control_c, 0, 64, 107
2, 311472, Note_on_c, 0, 73, 0
2, 311478, Control_c, 0, 64, 108
2, 311494, Control_c, 0, 64, 109
2, 311509, Control_c, 0, 64, 111
2, 311524, Control_c, 0, 64, 113
2, 311540, Control_c, 0, 64, 116
2, 311554, Control_c, 0, 64, 121
2, 311570, Control_c, 0, 64, 127
2, 311616, Control_c, 0, 64, 122
2, 311632, Control_c, 0, 64, 102
2, 311647, Control_c, 0, 64, 84
2, 311649, Note_on_c, 0, 78, 90
2, 311651, Note_on_c, 0, 66, 86
2, 311654, Note_on_c, 0, 61, 85
2, 311655, Note_on_c, 0, 75, 84
2, 311662, Control_c, 0, 64, 63
2, 311677, Control_c, 0, 64, 0
2, 311696, Note_on_c, 0, 63, 0
2, 311806, Control_c, 0, 64, 46
2, 311822, Control_c, 0, 64, 64
2, 311832, Note_on_c, 0, 66, 0
2, 311837, Control_c, 0, 64, 71
2, 311853, Control_c, 0, 64, 80
2, 311868, Control_c, 0, 64, 91
2, 311883, Control_c, 0, 64, 105
2, 311899, Control_c, 0, 64, 112
2, 311914, Control_c, 0, 64, 111
2, 311939, Note_on_c, 0, 60, 80
2, 311944, Control_c, 0, 64, 112
2, 311955, Note_on_c, 0, 68, 90
2, 311959, Control_c, 0, 64, 114
2, 311975, Control_c, 0, 64, 116
2, 311990, Control_c, 0, 64, 120
2, 311992, Note_on_c, 0, 61, 0
2, 312004, Control_c, 0, 64, 127
2, 312005, Note_on_c, 0, 60, 0
2, 312021, Note_on_c, 0, 51, 0
2, 312050, Note_on_c, 0, 78, 0
2, 312225, Note_on_c, 0, 75, 0
2, 312244, Note_on_c, 0, 68, 0
2, 312415, Control_c, 0, 64, 96
2, 312430, Control_c, 0, 64, 78
2, 312434, Note_on_c, 0, 78, 87
2, 312439, Note_on_c, 0, 61, 85
2, 312441, Note_on_c, 0, 69, 83
2, 312441, Note_on_c, 0, 75, 78
2, 312445, Control_c, 0, 64, 62
2, 312449, Note_on_c, 0, 49, 72
2, 312461, Control_c, 0, 64, 0
2, 312605, Control_c, 0, 64, 44
2, 312620, Control_c, 0, 64, 63
2, 312635, Control_c, 0, 64, 69
2, 312651, Control_c, 0, 64, 77
2, 312666, Control_c, 0, 64, 85
2, 312681, Control_c, 0, 64, 94
2, 312697, Control_c, 0, 64, 102
2, 312711, Control_c, 0, 64, 105
2, 312787, Control_c, 0, 64, 106
2, 312801, Note_on_c, 0, 78, 0
2, 312818, Control_c, 0, 64, 106
2, 312833, Control_c, 0, 64, 107
2, 312847, Control_c, 0, 64, 107
2, 312863, Control_c, 0, 64, 109
2, 312878, Control_c, 0, 64, 111
2, 312893, Control_c, 0, 64, 113
2, 312908, Control_c, 0, 64, 113
2, 312923, Control_c, 0, 64, 114
2, 312939, Control_c, 0, 64, 115
2, 312954, Control_c, 0, 64, 116
2, 312969, Control_c, 0, 64, 117
2, 312984, Control_c, 0, 64, 118
2, 312999, Control_c, 0, 64, 114
2, 313009, Note_on_c, 0, 76, 79
2, 313011, Note_on_c, 0, 73, 85
2, 313015, Control_c, 0, 64, 99
2, 313018, Note_on_c, 0, 52, 77
2, 313018, Note_on_c, 0, 68, 72
2, 313030, Control_c, 0, 64, 78
2, 313041, Note_on_c, 0, 75, 0
2, 313045, Control_c, 0, 64, 61
2, 313055, Note_on_c, 0, 69, 0
2, 313061, Control_c, 0, 64, 0
2, 313066, Note_on_c, 0, 49, 0
2, 313111, Note_on_c, 0, 68, 0
2, 313137, Control_c, 0, 64, 51
2, 313152, Control_c, 0, 64, 66
2, 313166, Control_c, 0, 64, 75
2, 313182, Control_c, 0, 64, 86
2, 313197, Control_c, 0, 64, 100
2, 313213, Control_c, 0, 64, 111
2, 313228, Control_c, 0, 64, 109
2, 313242, Control_c, 0, 64, 107
2, 313256, Note_on_c, 0, 75, 82
2, 313258, Control_c, 0, 64, 107
2, 313259, Note_on_c, 0, 72, 78
2, 313274, Note_on_c, 0, 66, 76
2, 313286, Note_on_c, 0, 73, 0
2, 313293, Note_on_c, 0, 76, 0
2, 313297, Control_c, 0, 64, 107
2, 313389, Note_on_c, 0, 66, 0
2, 313402, Control_c, 0, 64, 108
2, 313464, Control_c, 0, 64, 106
2, 313478, Control_c, 0, 64, 97
2, 313494, Control_c, 0, 64, 80
2, 313500, Note_on_c, 0, 76, 82
2, 313509, Control_c, 0, 64, 63
2, 313509, Note_on_c, 0, 57, 78
2, 313512, Note_on_c, 0, 68, 80
2, 313513, Note_on_c, 0, 73, 84
2, 313523, Control_c, 0, 64, 0
2, 313533, Note_on_c, 0, 75, 0
2, 313542, Note_on_c, 0, 72, 0
2, 313558, Note_on_c, 0, 52, 0
2, 313661, Control_c, 0, 64, 52
2, 313676, Control_c, 0, 64, 64
2, 313691, Control_c, 0, 64, 69
2, 313706, Control_c, 0, 64, 76
2, 313721, Control_c, 0, 64, 83
2, 313736, Control_c, 0, 64, 90
2, 313751, Control_c, 0, 64, 95
2, 313762, Note_on_c, 0, 76, 0
2, 313766, Control_c, 0, 64, 98
2, 313782, Control_c, 0, 64, 99
2, 313785, Note_on_c, 0, 68, 0
2, 313797, Control_c, 0, 64, 99
2, 313805, Note_on_c, 0, 57, 0
2, 313813, Control_c, 0, 64, 100
2, 313828, Control_c, 0, 64, 101
2, 313843, Control_c, 0, 64, 102
2, 313859, Control_c, 0, 64, 104
2, 313874, Control_c, 0, 64, 105
2, 313904, Control_c, 0, 64, 106
2, 313919, Control_c, 0, 64, 106
2, 313930, Note_on_c, 0, 57, 75
2, 313934, Control_c, 0, 64, 107
2, 313941, Note_on_c, 0, 66, 79
2, 313945, Note_on_c, 0, 75, 81
2, 313949, Control_c, 0, 64, 108
2, 313964, Control_c, 0, 64, 111
2, 313980, Control_c, 0, 64, 112
2, 313984, Note_on_c, 0, 73, 0
2, 313995, Control_c, 0, 64, 112
2, 314010, Control_c, 0, 64, 113
2, 314025, Control_c, 0, 64, 114
2, 314047, Control_c, 0, 64, 116
2, 314060, Note_on_c, 0, 66, 0
2, 314063, Control_c, 0, 64, 119
2, 314078, Control_c, 0, 64, 123
2, 314095, Control_c, 0, 64, 127
2, 314158, Note_on_c, 0, 73, 89
2, 314164, Note_on_c, 0, 57, 0
2, 314167, Note_on_c, 0, 64, 80
2, 314195, Note_on_c, 0, 75, 0
2, 314245, Note_on_c, 0, 64, 0
2, 314302, Note_on_c, 0, 61, 0
2, 314383, Control_c, 0, 64, 117
2, 314398, Control_c, 0, 64, 92
2, 314413, Note_on_c, 0, 60, 87
2, 314414, Control_c, 0, 64, 73
2, 314415, Note_on_c, 0, 75, 83
2, 314420, Note_on_c, 0, 63, 82
2, 314429, Control_c, 0, 64, 47
2, 314430, Note_on_c, 0, 73, 0
2, 314433, Note_on_c, 0, 57, 71
2, 314444, Control_c, 0, 64, 0
2, 314450, Note_on_c, 0, 66, 63
2, 314550, Control_c, 0, 64, 23
2, 314565, Control_c, 0, 64, 57
2, 314580, Control_c, 0, 64, 64
2, 314595, Control_c, 0, 64, 69
2, 314611, Control_c, 0, 64, 72
2, 314626, Control_c, 0, 64, 75
2, 314641, Control_c, 0, 64, 76
2, 314733, Control_c, 0, 64, 76
2, 314763, Control_c, 0, 64, 77
2, 314778, Control_c, 0, 64, 78
2, 314793, Control_c, 0, 64, 79
2, 314816, Control_c, 0, 64, 82
2, 314831, Control_c, 0, 64, 85
2, 314846, Control_c, 0, 64, 87
2, 314861, Control_c, 0, 64, 90
2, 314876, Control_c, 0, 64, 92
2, 314877, Note_on_c, 0, 72, 76
2, 314892, Control_c, 0, 64, 94
2, 314904, Note_on_c, 0, 56, 82
2, 314907, Control_c, 0, 64, 96
2, 314922, Note_on_c, 0, 75, 0
2, 314923, Control_c, 0, 64, 98
2, 314939, Control_c, 0, 64, 99
2, 314954, Control_c, 0, 64, 101
2, 314969, Control_c, 0, 64, 103
2, 314984, Control_c, 0, 64, 105
2, 314999, Control_c, 0, 64, 107
2, 315015, Control_c, 0, 64, 109
2, 315029, Control_c, 0, 64, 112
2, 315044, Control_c, 0, 64, 114
2, 315060, Control_c, 0, 64, 116
2, 315075, Control_c, 0, 64, 118
2, 315091, Control_c, 0, 64, 119
2, 315105, Note_on_c, 0, 54, 80
2, 315106, Control_c, 0, 64, 121
2, 315121, Control_c, 0, 64, 127
2, 315134, Note_on_c, 0, 63, 0
2, 315162, Note_on_c, 0, 57, 0
2, 315348, Control_c, 0, 64, 112
2, 315363, Control_c, 0, 64, 93
2, 315379, Control_c, 0, 64, 75
2, 315394, Control_c, 0, 64, 51
2, 315398, Note_on_c, 0, 64, 86
2, 315403, Note_on_c, 0, 68, 59
2, 315409, Note_on_c, 0, 73, 79
2, 315410, Control_c, 0, 64, 0
2, 315415, Note_on_c, 0, 56, 0
2, 315418, Note_on_c, 0, 52, 69
2, 315443, Note_on_c, 0, 54, 0
2, 315500, Control_c, 0, 64, 23
2, 315515, Control_c, 0, 64, 59
2, 315531, Control_c, 0, 64, 67
2, 315546, Control_c, 0, 64, 75
2, 315549, Note_on_c, 0, 72, 0
2, 315561, Control_c, 0, 64, 82
2, 315561, Note_on_c, 0, 66, 0
2, 315584, Control_c, 0, 64, 87
2, 315599, Control_c, 0, 64, 89
2, 315629, Control_c, 0, 64, 88
2, 315644, Control_c, 0, 64, 87
2, 315650, Note_on_c, 0, 51, 78
2, 315690, Note_on_c, 0, 60, 0
2, 315698, Note_on_c, 0, 52, 0
2, 315854, Note_on_c, 0, 49, 80
2, 315859, Control_c, 0, 64, 87
2, 315890, Control_c, 0, 64, 86
2, 315935, Control_c, 0, 64, 86
2, 315995, Control_c, 0, 64, 86
2, 316023, Note_on_c, 0, 51, 0
2, 316045, Note_on_c, 0, 47, 82
2, 316069, Note_on_c, 0, 49, 0
2, 316103, Control_c, 0, 64, 86
2, 316179, Control_c, 0, 64, 86
2, 316193, Control_c, 0, 64, 87
2, 316209, Control_c, 0, 64, 87
2, 316239, Control_c, 0, 64, 85
2, 316255, Control_c, 0, 64, 80
2, 316269, Control_c, 0, 64, 70
2, 316284, Control_c, 0, 64, 59
2, 316300, Control_c, 0, 64, 0
2, 316307, Note_on_c, 0, 46, 82
2, 316354, Note_on_c, 0, 47, 0
2, 316474, Control_c, 0, 64, 21
2, 316490, Control_c, 0, 64, 57
2, 316505, Control_c, 0, 64, 64
2, 316520, Control_c, 0, 64, 67
2, 316536, Control_c, 0, 64, 70
2, 316552, Control_c, 0, 64, 73
2, 316567, Control_c, 0, 64, 75
2, 316582, Control_c, 0, 64, 77
2, 316597, Control_c, 0, 64, 79
2, 316613, Control_c, 0, 64, 79
2, 316781, Note_on_c, 0, 49, 78
2, 316901, Control_c, 0, 64, 80
2, 316931, Control_c, 0, 64, 80
2, 316961, Control_c, 0, 64, 81
2, 316977, Control_c, 0, 64, 82
2, 316992, Control_c, 0, 64, 84
2, 317007, Control_c, 0, 64, 85
2, 317023, Control_c, 0, 64, 86
2, 317037, Control_c, 0, 64, 86
2, 317053, Control_c, 0, 64, 87
2, 317099, Control_c, 0, 64, 87
2, 317120, Control_c, 0, 64, 88
2, 317136, Control_c, 0, 64, 89
2, 317151, Control_c, 0, 64, 90
2, 317166, Control_c, 0, 64, 91
2, 317182, Control_c, 0, 64, 93
2, 317197, Control_c, 0, 64, 95
2, 317213, Control_c, 0, 64, 95
2, 317228, Control_c, 0, 64, 93
2, 317242, Control_c, 0, 64, 84
2, 317256, Note_on_c, 0, 54, 77
2, 317258, Control_c, 0, 64, 69
2, 317258, Note_on_c, 0, 45, 68
2, 317261, Note_on_c, 0, 66, 79
2, 317262, Note_on_c, 0, 63, 74
2, 317273, Control_c, 0, 64, 39
2, 317289, Control_c, 0, 64, 0
2, 317294, Note_on_c, 0, 49, 0
2, 317300, Note_on_c, 0, 64, 0
2, 317310, Note_on_c, 0, 46, 0
2, 317311, Note_on_c, 0, 68, 0
2, 317426, Control_c, 0, 64, 36
2, 317441, Control_c, 0, 64, 62
2, 317457, Control_c, 0, 64, 66
2, 317471, Control_c, 0, 64, 69
2, 317486, Control_c, 0, 64, 71
2, 317502, Control_c, 0, 64, 72
2, 317503, Note_on_c, 0, 54, 0
2, 317517, Control_c, 0, 64, 73
2, 317533, Control_c, 0, 64, 74
2, 317547, Control_c, 0, 64, 77
2, 317562, Control_c, 0, 64, 79
2, 317578, Control_c, 0, 64, 82
2, 317593, Control_c, 0, 64, 85
2, 317609, Control_c, 0, 64, 86
2, 317623, Control_c, 0, 64, 87
2, 317638, Control_c, 0, 64, 88
2, 317669, Control_c, 0, 64, 88
2, 317683, Control_c, 0, 64, 89
2, 317699, Control_c, 0, 64, 89
2, 317718, Note_on_c, 0, 61, 74
2, 317724, Note_on_c, 0, 54, 77
2, 317790, Control_c, 0, 64, 90
2, 317805, Control_c, 0, 64, 91
2, 317809, Note_on_c, 0, 63, 0
2, 317821, Control_c, 0, 64, 93
2, 317836, Control_c, 0, 64, 96
2, 317852, Control_c, 0, 64, 98
2, 317867, Control_c, 0, 64, 99
2, 317889, Control_c, 0, 64, 100
2, 317900, Note_on_c, 0, 73, 0
2, 317904, Control_c, 0, 64, 100
2, 317913, Note_on_c, 0, 54, 0
2, 317919, Control_c, 0, 64, 101
2, 317935, Control_c, 0, 64, 102
2, 317950, Control_c, 0, 64, 103
2, 317980, Control_c, 0, 64, 103
2, 317995, Control_c, 0, 64, 104
2, 318001, Note_on_c, 0, 66, 0
2, 318010, Control_c, 0, 64, 105
2, 318025, Control_c, 0, 64, 106
2, 318071, Control_c, 0, 64, 106
2, 318085, Control_c, 0, 64, 107
2, 318101, Control_c, 0, 64, 108
2, 318116, Control_c, 0, 64, 109
2, 318132, Control_c, 0, 64, 109
2, 318147, Control_c, 0, 64, 110
2, 318161, Control_c, 0, 64, 110
2, 318193, Control_c, 0, 64, 106
2, 318209, Control_c, 0, 64, 96
2, 318224, Control_c, 0, 64, 83
2, 318224, Note_on_c, 0, 72, 84
2, 318236, Note_on_c, 0, 63, 81
2, 318236, Note_on_c, 0, 66, 76
2, 318239, Control_c, 0, 64, 70
2, 318239, Note_on_c, 0, 54, 78
2, 318255, Control_c, 0, 64, 52
2, 318269, Control_c, 0, 64, 0
2, 318269, Note_on_c, 0, 61, 0
2, 318330, Control_c, 0, 64, 37
2, 318345, Control_c, 0, 64, 52
2, 318360, Control_c, 0, 64, 62
2, 318376, Control_c, 0, 64, 68
2, 318390, Control_c, 0, 64, 75
2, 318405, Control_c, 0, 64, 85
2, 318421, Control_c, 0, 64, 96
2, 318436, Control_c, 0, 64, 106
2, 318451, Control_c, 0, 64, 109
2, 318466, Control_c, 0, 64, 107
2, 318481, Control_c, 0, 64, 107
2, 318557, Control_c, 0, 64, 107
2, 318575, Note_on_c, 0, 54, 0
2, 318588, Control_c, 0, 64, 108
2, 318619, Control_c, 0, 64, 108
2, 318634, Control_c, 0, 64, 109
2, 318660, Note_on_c, 0, 45, 0
2, 318662, Note_on_c, 0, 44, 68
2, 318680, Note_on_c, 0, 53, 75
2, 318701, Note_on_c, 0, 64, 65
2, 318746, Note_on_c, 0, 63, 0
2, 318839, Control_c, 0, 64, 109
2, 318860, Note_on_c, 0, 66, 0
2, 318869, Control_c, 0, 64, 110
2, 318884, Control_c, 0, 64, 111
2, 318900, Control_c, 0, 64, 111
2, 318920, Note_on_c, 0, 51, 86
2, 318924, Note_on_c, 0, 42, 79
2, 318942, Note_on_c, 0, 53, 0
2, 318974, Note_on_c, 0, 66, 57
2, 318994, Note_on_c, 0, 44, 0
2, 319007, Control_c, 0, 64, 112
2, 319013, Note_on_c, 0, 72, 0
2, 319023, Control_c, 0, 64, 112
2, 319034, Note_on_c, 0, 42, 0
2, 319034, Note_on_c, 0, 64, 0
2, 319037, Control_c, 0, 64, 114
2, 319053, Control_c, 0, 64, 116
2, 319068, Control_c, 0, 64, 118
2, 319083, Control_c, 0, 64, 120
2, 319099, Control_c, 0, 64, 122
2, 319114, Control_c, 0, 64, 127
2, 319159, Control_c, 0, 64, 119
2, 319175, Control_c, 0, 64, 106
2, 319175, Note_on_c, 0, 41, 78
2, 319176, Note_on_c, 0, 71, 78
2, 319181, Note_on_c, 0, 68, 79
2, 319183, Note_on_c, 0, 49, 82
2, 319190, Control_c, 0, 64, 92
2, 319193, Note_on_c, 0, 51, 0
2, 319205, Control_c, 0, 64, 76
2, 319221, Control_c, 0, 64, 53
2, 319235, Control_c, 0, 64, 0
2, 319264, Note_on_c, 0, 66, 0
2, 319402, Control_c, 0, 64, 43
2, 319426, Control_c, 0, 64, 62
2, 319441, Control_c, 0, 64, 69
2, 319456, Control_c, 0, 64, 73
2, 319471, Control_c, 0, 64, 77
2, 319486, Control_c, 0, 64, 79
2, 319501, Control_c, 0, 64, 82
2, 319516, Control_c, 0, 64, 84
2, 319532, Control_c, 0, 64, 87
2, 319542, Note_on_c, 0, 68, 0
2, 319547, Control_c, 0, 64, 92
2, 319562, Control_c, 0, 64, 95
2, 319577, Control_c, 0, 64, 97
2, 319592, Control_c, 0, 64, 98
2, 319632, Note_on_c, 0, 68, 86
2, 319638, Control_c, 0, 64, 98
2, 319653, Control_c, 0, 64, 99
2, 319668, Control_c, 0, 64, 100
2, 319683, Control_c, 0, 64, 101
2, 319698, Control_c, 0, 64, 102
2, 319713, Control_c, 0, 64, 103
2, 319729, Control_c, 0, 64, 104
2, 319744, Control_c, 0, 64, 104
2, 319759, Control_c, 0, 64, 105
2, 319775, Control_c, 0, 64, 107
2, 319784, Note_on_c, 0, 68, 0
2, 319790, Control_c, 0, 64, 109
2, 319804, Control_c, 0, 64, 110
2, 319820, Control_c, 0, 64, 111
2, 319836, Control_c, 0, 64, 112
2, 319852, Control_c, 0, 64, 113
2, 319867, Control_c, 0, 64, 115
2, 319881, Control_c, 0, 64, 118
2, 319897, Control_c, 0, 64, 121
2, 319912, Control_c, 0, 64, 127
2, 320003, Control_c, 0, 64, 111
2, 320019, Control_c, 0, 64, 92
2, 320034, Control_c, 0, 64, 74
2, 320050, Control_c, 0, 64, 42
2, 320050, Note_on_c, 0, 68, 81
2, 320051, Note_on_c, 0, 70, 75
2, 320053, Note_on_c, 0, 42, 70
2, 320065, Control_c, 0, 64, 0
2, 320070, Note_on_c, 0, 41, 0
2, 320086, Note_on_c, 0, 71, 0
2, 320155, Control_c, 0, 64, 37
2, 320171, Control_c, 0, 64, 62
2, 320193, Control_c, 0, 64, 69
2, 320209, Control_c, 0, 64, 75
2, 320224, Control_c, 0, 64, 82
2, 320239, Control_c, 0, 64, 86
2, 320255, Control_c, 0, 64, 90
2, 320269, Control_c, 0, 64, 93
2, 320284, Control_c, 0, 64, 95
2, 320300, Control_c, 0, 64, 98
2, 320315, Control_c, 0, 64, 101
2, 320331, Control_c, 0, 64, 102
2, 320345, Control_c, 0, 64, 103
2, 320376, Control_c, 0, 64, 104
2, 320391, Control_c, 0, 64, 106
2, 320406, Control_c, 0, 64, 107
2, 320421, Control_c, 0, 64, 108
2, 320436, Control_c, 0, 64, 108
2, 320452, Control_c, 0, 64, 109
2, 320466, Control_c, 0, 64, 110
2, 320481, Control_c, 0, 64, 111
2, 320486, Note_on_c, 0, 66, 77
2, 320495, Note_on_c, 0, 61, 67
2, 320497, Control_c, 0, 64, 111
2, 320512, Control_c, 0, 64, 112
2, 320518, Note_on_c, 0, 68, 0
2, 320542, Control_c, 0, 64, 112
2, 320573, Control_c, 0, 64, 113
2, 320618, Control_c, 0, 64, 113
2, 320633, Control_c, 0, 64, 115
2, 320650, Control_c, 0, 64, 118
2, 320665, Control_c, 0, 64, 122
2, 320680, Control_c, 0, 64, 127
2, 320692, Note_on_c, 0, 64, 74
2, 320738, Note_on_c, 0, 70, 0
2, 320771, Note_on_c, 0, 61, 0
2, 320772, Note_on_c, 0, 66, 0
2, 320863, Control_c, 0, 64, 115
2, 320878, Control_c, 0, 64, 97
2, 320893, Control_c, 0, 64, 78
2, 320908, Control_c, 0, 64, 62
2, 320923, Control_c, 0, 64, 0
2, 320933, Note_on_c, 0, 69, 82
2, 320934, Note_on_c, 0, 51, 76
2, 320942, Note_on_c, 0, 66, 76
2, 320955, Note_on_c, 0, 63, 72
2, 321000, Note_on_c, 0, 64, 0
2, 321029, Note_on_c, 0, 49, 0
2, 321098, Control_c, 0, 64, 19
2, 321113, Control_c, 0, 64, 57
2, 321129, Control_c, 0, 64, 64
2, 321144, Control_c, 0, 64, 69
2, 321147, Note_on_c, 0, 66, 0
2, 321159, Control_c, 0, 64, 74
2, 321175, Control_c, 0, 64, 80
2, 321189, Control_c, 0, 64, 86
2, 321204, Control_c, 0, 64, 92
2, 321220, Control_c, 0, 64, 99
2, 321235, Control_c, 0, 64, 103
2, 321251, Control_c, 0, 64, 105
2, 321284, Note_on_c, 0, 63, 0
2, 321296, Control_c, 0, 64, 106
2, 321310, Control_c, 0, 64, 107
2, 321325, Control_c, 0, 64, 108
2, 321398, Note_on_c, 0, 61, 73
2, 321401, Note_on_c, 0, 66, 81
2, 321479, Control_c, 0, 64, 108
2, 321509, Control_c, 0, 64, 109
2, 321511, Note_on_c, 0, 69, 0
2, 321524, Control_c, 0, 64, 109
2, 321544, Note_on_c, 0, 66, 0
2, 321554, Control_c, 0, 64, 110
2, 321570, Control_c, 0, 64, 110
2, 321585, Control_c, 0, 64, 111
2, 321600, Control_c, 0, 64, 112
2, 321615, Control_c, 0, 64, 113
2, 321630, Control_c, 0, 64, 114
2, 321676, Control_c, 0, 64, 115
2, 321692, Control_c, 0, 64, 115
2, 321707, Control_c, 0, 64, 116
2, 321745, Control_c, 0, 64, 116
2, 321759, Control_c, 0, 64, 118
2, 321775, Control_c, 0, 64, 121
2, 321790, Control_c, 0, 64, 123
2, 321805, Control_c, 0, 64, 111
2, 321821, Control_c, 0, 64, 92
2, 321835, Control_c, 0, 64, 73
2, 321838, Note_on_c, 0, 68, 73
2, 321844, Note_on_c, 0, 66, 65
2, 321846, Note_on_c, 0, 60, 57
2, 321851, Control_c, 0, 64, 0
2, 321857, Note_on_c, 0, 44, 75
2, 321919, Note_on_c, 0, 42, 0
2, 321957, Control_c, 0, 64, 59
2, 321973, Control_c, 0, 64, 70
2, 321988, Control_c, 0, 64, 82
2, 322003, Control_c, 0, 64, 100
2, 322019, Control_c, 0, 64, 127
2, 322049, Control_c, 0, 64, 121
2, 322064, Control_c, 0, 64, 119
2, 322078, Control_c, 0, 64, 120
2, 322094, Control_c, 0, 64, 122
2, 322104, Note_on_c, 0, 61, 0
2, 322108, Note_on_c, 0, 51, 0
2, 322109, Control_c, 0, 64, 123
2, 322154, Control_c, 0, 64, 124
2, 322200, Control_c, 0, 64, 127
2, 322276, Control_c, 0, 64, 115
2, 322293, Control_c, 0, 64, 95
2, 322310, Control_c, 0, 64, 76
2, 322326, Control_c, 0, 64, 49
2, 322329, Note_on_c, 0, 51, 88
2, 322338, Note_on_c, 0, 64, 63
2, 322341, Control_c, 0, 64, 0
2, 322477, Control_c, 0, 64, 61
2, 322501, Control_c, 0, 64, 69
2, 322507, Note_on_c, 0, 66, 0
2, 322516, Control_c, 0, 64, 75
2, 322531, Control_c, 0, 64, 81
2, 322540, Note_on_c, 0, 60, 0
2, 322546, Control_c, 0, 64, 84
2, 322546, Note_on_c, 0, 63, 67
2, 322562, Control_c, 0, 64, 86
2, 322577, Control_c, 0, 64, 86
2, 322592, Control_c, 0, 64, 87
2, 322598, Note_on_c, 0, 64, 0
2, 322607, Control_c, 0, 64, 88
2, 322622, Control_c, 0, 64, 90
2, 322637, Control_c, 0, 64, 93
2, 322653, Control_c, 0, 64, 96
2, 322668, Control_c, 0, 64, 98
2, 322683, Control_c, 0, 64, 100
2, 322698, Control_c, 0, 64, 102
2, 322713, Control_c, 0, 64, 104
2, 322728, Control_c, 0, 64, 104
2, 322743, Control_c, 0, 64, 101
2, 322758, Control_c, 0, 64, 90
2, 322774, Control_c, 0, 64, 75
2, 322789, Control_c, 0, 64, 57
2, 322791, Note_on_c, 0, 56, 80
2, 322800, Note_on_c, 0, 64, 57
2, 322804, Control_c, 0, 64, 0
2, 322806, Note_on_c, 0, 61, 60
2, 322813, Note_on_c, 0, 63, 0
2, 322869, Note_on_c, 0, 51, 0
2, 322972, Control_c, 0, 64, 50
2, 322987, Control_c, 0, 64, 64
2, 323002, Control_c, 0, 64, 73
2, 323017, Control_c, 0, 64, 82
2, 323032, Control_c, 0, 64, 91
2, 323048, Control_c, 0, 64, 99
2, 323063, Control_c, 0, 64, 104
2, 323077, Control_c, 0, 64, 104
2, 323125, Control_c, 0, 64, 106
2, 323128, Note_on_c, 0, 56, 0
2, 323140, Control_c, 0, 64, 107
2, 323154, Control_c, 0, 64, 107
2, 323170, Control_c, 0, 64, 108
2, 323275, Note_on_c, 0, 56, 88
2, 323329, Control_c, 0, 64, 108
2, 323344, Control_c, 0, 64, 109
2, 323359, Control_c, 0, 64, 110
2, 323375, Control_c, 0, 64, 111
2, 323390, Control_c, 0, 64, 112
2, 323406, Control_c, 0, 64, 114
2, 323421, Control_c, 0, 64, 116
2, 323436, Control_c, 0, 64, 118
2, 323451, Control_c, 0, 64, 119
2, 323466, Control_c, 0, 64, 122
2, 323474, Note_on_c, 0, 56, 0
2, 323482, Control_c, 0, 64, 124
2, 323497, Control_c, 0, 64, 127
2, 323694, Control_c, 0, 64, 109
2, 323709, Control_c, 0, 64, 88
2, 323714, Note_on_c, 0, 51, 31
2, 323724, Control_c, 0, 64, 69
2, 323725, Note_on_c, 0, 56, 90
2, 323725, Note_on_c, 0, 70, 83
2, 323739, Control_c, 0, 64, 0
2, 323823, Note_on_c, 0, 51, 0
2, 323830, Control_c, 0, 64, 59
2, 323831, Note_on_c, 0, 68, 0
2, 323840, Note_on_c, 0, 64, 0
2, 323846, Control_c, 0, 64, 73
2, 323861, Control_c, 0, 64, 88
2, 323876, Control_c, 0, 64, 127
2, 324128, Control_c, 0, 64, 107
2, 324143, Control_c, 0, 64, 87
2, 324157, Control_c, 0, 64, 69
2, 324173, Control_c, 0, 64, 53
2, 324181, Note_on_c, 0, 66, 80
2, 324186, Control_c, 0, 64, 40
2, 324186, Note_on_c, 0, 54, 81
2, 324217, Control_c, 0, 64, 43
2, 324221, Note_on_c, 0, 56, 0
2, 324232, Control_c, 0, 64, 52
2, 324247, Control_c, 0, 64, 59
2, 324263, Control_c, 0, 64, 65
2, 324278, Control_c, 0, 64, 71
2, 324293, Control_c, 0, 64, 80
2, 324308, Control_c, 0, 64, 93
2, 324311, Note_on_c, 0, 61, 0
2, 324323, Control_c, 0, 64, 114
2, 324339, Control_c, 0, 64, 127
2, 324374, Note_on_c, 0, 52, 87
2, 324382, Note_on_c, 0, 68, 84
2, 324409, Note_on_c, 0, 53, 50
2, 324417, Note_on_c, 0, 54, 0
2, 324434, Note_on_c, 0, 53, 0
2, 324440, Note_on_c, 0, 70, 0
2, 324565, Control_c, 0, 64, 104
2, 324581, Control_c, 0, 64, 84
2, 324596, Control_c, 0, 64, 65
2, 324611, Control_c, 0, 64, 0
2, 324623, Note_on_c, 0, 72, 82
2, 324632, Note_on_c, 0, 54, 85
2, 324635, Note_on_c, 0, 69, 73
2, 324638, Note_on_c, 0, 63, 75
2, 324641, Note_on_c, 0, 68, 0
2, 324684, Note_on_c, 0, 66, 0
2, 324686, Note_on_c, 0, 52, 0
2, 324780, Control_c, 0, 64, 57
2, 324802, Control_c, 0, 64, 68
2, 324818, Control_c, 0, 64, 77
2, 324819, Note_on_c, 0, 54, 0
2, 324833, Control_c, 0, 64, 91
2, 324847, Control_c, 0, 64, 106
2, 324863, Control_c, 0, 64, 119
2, 324877, Note_on_c, 0, 69, 0
2, 324878, Control_c, 0, 64, 115
2, 324894, Control_c, 0, 64, 113
2, 324909, Control_c, 0, 64, 114
2, 324923, Control_c, 0, 64, 115
2, 324939, Control_c, 0, 64, 117
2, 324954, Control_c, 0, 64, 119
2, 324970, Control_c, 0, 64, 123
2, 324985, Control_c, 0, 64, 127
2, 325061, Control_c, 0, 64, 112
2, 325076, Control_c, 0, 64, 91
2, 325091, Control_c, 0, 64, 73
2, 325098, Note_on_c, 0, 54, 88
2, 325105, Note_on_c, 0, 68, 82
2, 325106, Control_c, 0, 64, 40
2, 325121, Control_c, 0, 64, 0
2, 325182, Control_c, 0, 64, 48
2, 325197, Control_c, 0, 64, 63
2, 325213, Control_c, 0, 64, 72
2, 325224, Note_on_c, 0, 63, 0
2, 325228, Control_c, 0, 64, 82
2, 325243, Control_c, 0, 64, 95
2, 325258, Control_c, 0, 64, 109
2, 325273, Control_c, 0, 64, 112
2, 325276, Note_on_c, 0, 72, 0
2, 325289, Control_c, 0, 64, 109
2, 325304, Control_c, 0, 64, 108
2, 325319, Control_c, 0, 64, 109
2, 325323, Note_on_c, 0, 54, 0
2, 325334, Control_c, 0, 64, 109
2, 325440, Control_c, 0, 64, 110
2, 325455, Control_c, 0, 64, 111
2, 325470, Control_c, 0, 64, 112
2, 325485, Control_c, 0, 64, 113
2, 325501, Control_c, 0, 64, 114
2, 325516, Control_c, 0, 64, 114
2, 325547, Control_c, 0, 64, 112
2, 325571, Control_c, 0, 64, 105
2, 325576, Note_on_c, 0, 54, 88
2, 325576, Note_on_c, 0, 73, 94
2, 325583, Note_on_c, 0, 61, 82
2, 325586, Control_c, 0, 64, 95
2, 325601, Control_c, 0, 64, 81
2, 325616, Control_c, 0, 64, 66
2, 325631, Control_c, 0, 64, 0
2, 325813, Control_c, 0, 64, 55
2, 325828, Control_c, 0, 64, 66
2, 325843, Control_c, 0, 64, 73
2, 325859, Control_c, 0, 64, 80
2, 325874, Control_c, 0, 64, 84
2, 325889, Control_c, 0, 64, 86
2, 325904, Control_c, 0, 64, 86
2, 325909, Note_on_c, 0, 61, 0
2, 325919, Control_c, 0, 64, 87
2, 325935, Control_c, 0, 64, 89
2, 325950, Control_c, 0, 64, 92
2, 325965, Control_c, 0, 64, 97
2, 325980, Control_c, 0, 64, 103
2, 325995, Control_c, 0, 64, 103
2, 326005, Note_on_c, 0, 52, 80
2, 326005, Note_on_c, 0, 61, 82
2, 326011, Control_c, 0, 64, 92
2, 326018, Note_on_c, 0, 64, 79
2, 326025, Control_c, 0, 64, 76
2, 326040, Control_c, 0, 64, 44
2, 326056, Control_c, 0, 64, 0
2, 326064, Note_on_c, 0, 68, 0
2, 326072, Note_on_c, 0, 54, 0
2, 326192, Control_c, 0, 64, 60
2, 326207, Control_c, 0, 64, 69
2, 326216, Note_on_c, 0, 51, 85
2, 326222, Control_c, 0, 64, 76
2, 326237, Control_c, 0, 64, 83
2, 326253, Control_c, 0, 64, 88
2, 326259, Note_on_c, 0, 52, 0
2, 326268, Control_c, 0, 64, 90
2, 326283, Control_c, 0, 64, 91
2, 326337, Control_c, 0, 64, 92
2, 326352, Control_c, 0, 64, 95
2, 326366, Control_c, 0, 64, 102
2, 326384, Control_c, 0, 64, 108
2, 326399, Control_c, 0, 64, 109
2, 326414, Control_c, 0, 64, 104
2, 326429, Control_c, 0, 64, 90
2, 326444, Control_c, 0, 64, 73
2, 326459, Control_c, 0, 64, 50
2, 326473, Note_on_c, 0, 69, 81
2, 326474, Control_c, 0, 64, 0
2, 326475, Note_on_c, 0, 66, 82
2, 326495, Note_on_c, 0, 52, 80
2, 326495, Note_on_c, 0, 61, 0
2, 326499, Note_on_c, 0, 51, 0
2, 326501, Note_on_c, 0, 64, 0
2, 326611, Control_c, 0, 64, 59
2, 326626, Control_c, 0, 64, 72
2, 326641, Control_c, 0, 64, 85
2, 326657, Control_c, 0, 64, 105
2, 326672, Control_c, 0, 64, 127
2, 326702, Control_c, 0, 64, 121
2, 326717, Note_on_c, 0, 66, 0
2, 326733, Control_c, 0, 64, 123
2, 326748, Control_c, 0, 64, 127
2, 326754, Note_on_c, 0, 69, 0
2, 326884, Control_c, 0, 64, 106
2, 326900, Control_c, 0, 64, 85
2, 326911, Note_on_c, 0, 66, 80
2, 326913, Note_on_c, 0, 69, 79
2, 326915, Control_c, 0, 64, 66
2, 326931, Control_c, 0, 64, 0
2, 326936, Note_on_c, 0, 51, 79
2, 327001, Note_on_c, 0, 52, 0
2, 327006, Control_c, 0, 64, 47
2, 327021, Control_c, 0, 64, 69
2, 327036, Control_c, 0, 64, 83
2, 327052, Control_c, 0, 64, 111
2, 327066, Control_c, 0, 64, 127
2, 327117, Note_on_c, 0, 49, 83
2, 327157, Note_on_c, 0, 69, 0
2, 327160, Note_on_c, 0, 51, 0
2, 327197, Note_on_c, 0, 73, 0
2, 327313, Note_on_c, 0, 66, 0
2, 327318, Control_c, 0, 64, 95
2, 327334, Control_c, 0, 64, 74
2, 327349, Control_c, 0, 64, 47
2, 327362, Note_on_c, 0, 72, 90
2, 327364, Control_c, 0, 64, 0
2, 327367, Note_on_c, 0, 51, 85
2, 327372, Note_on_c, 0, 69, 83
2, 327377, Note_on_c, 0, 66, 74
2, 327436, Note_on_c, 0, 49, 0
2, 327456, Control_c, 0, 64, 54
2, 327471, Control_c, 0, 64, 69
2, 327486, Control_c, 0, 64, 84
2, 327502, Control_c, 0, 64, 113
2, 327516, Control_c, 0, 64, 127
2, 327519, Note_on_c, 0, 44, 0
2, 327775, Note_on_c, 0, 64, 78
2, 327776, Control_c, 0, 64, 107
2, 327784, Note_on_c, 0, 68, 81
2, 327790, Control_c, 0, 64, 85
2, 327804, Note_on_c, 0, 44, 84
2, 327805, Control_c, 0, 64, 67
2, 327821, Control_c, 0, 64, 0
2, 327836, Note_on_c, 0, 66, 0
2, 327853, Note_on_c, 0, 64, 0
2, 327898, Note_on_c, 0, 69, 0
2, 327919, Control_c, 0, 64, 56
2, 327935, Control_c, 0, 64, 69
2, 327950, Control_c, 0, 64, 81
2, 327964, Control_c, 0, 64, 98
2, 327980, Control_c, 0, 64, 127
2, 328009, Note_on_c, 0, 66, 87
2, 328010, Note_on_c, 0, 63, 80
2, 328043, Note_on_c, 0, 68, 0
2, 328055, Note_on_c, 0, 72, 0
2, 328112, Note_on_c, 0, 66, 0
2, 328238, Note_on_c, 0, 63, 0
2, 328252, Control_c, 0, 64, 102
2, 328268, Control_c, 0, 64, 80
2, 328282, Control_c, 0, 64, 62
2, 328298, Control_c, 0, 64, 0
2, 328312, Note_on_c, 0, 76, 89
2, 328316, Note_on_c, 0, 64, 87
2, 328318, Note_on_c, 0, 49, 78
2, 328318, Note_on_c, 0, 68, 82
2, 328417, Control_c, 0, 64, 50
2, 328417, Note_on_c, 0, 51, 0
2, 328432, Control_c, 0, 64, 65
2, 328447, Control_c, 0, 64, 73
2, 328463, Control_c, 0, 64, 88
2, 328477, Control_c, 0, 64, 106
2, 328492, Control_c, 0, 64, 127
2, 328551, Note_on_c, 0, 49, 0
2, 328559, Note_on_c, 0, 64, 0
2, 328773, Control_c, 0, 64, 102
2, 328786, Note_on_c, 0, 49, 81
2, 328789, Control_c, 0, 64, 81
2, 328803, Note_on_c, 0, 70, 84
2, 328804, Control_c, 0, 64, 63
2, 328811, Note_on_c, 0, 66, 68
2, 328819, Control_c, 0, 64, 0
2, 328889, Note_on_c, 0, 68, 0
2, 328896, Control_c, 0, 64, 46
2, 328912, Control_c, 0, 64, 63
2, 328926, Control_c, 0, 64, 71
2, 328941, Control_c, 0, 64, 82
2, 328957, Control_c, 0, 64, 99
2, 328972, Control_c, 0, 64, 127
2, 329065, Note_on_c, 0, 72, 85
2, 329069, Note_on_c, 0, 68, 89
2, 329092, Note_on_c, 0, 70, 0
2, 329100, Note_on_c, 0, 66, 0
2, 329104, Note_on_c, 0, 49, 0
2, 329380, Note_on_c, 0, 72, 0
2, 329381, Note_on_c, 0, 68, 0
2, 329425, Note_on_c, 0, 43, 81
2, 329429, Note_on_c, 0, 73, 90
2, 329432, Note_on_c, 0, 49, 78
2, 329437, Note_on_c, 0, 70, 73
2, 329451, Control_c, 0, 64, 107
2, 329461, Note_on_c, 0, 44, 0
2, 329467, Control_c, 0, 64, 89
2, 329481, Control_c, 0, 64, 73
2, 329496, Control_c, 0, 64, 53
2, 329512, Control_c, 0, 64, 0
2, 329847, Control_c, 0, 64, 38
2, 329863, Control_c, 0, 64, 52
2, 329878, Control_c, 0, 64, 56
2, 329892, Control_c, 0, 64, 59
2, 329908, Control_c, 0, 64, 61
2, 329923, Control_c, 0, 64, 63
2, 329938, Control_c, 0, 64, 64
2, 329954, Control_c, 0, 64, 65
2, 329968, Control_c, 0, 64, 66
2, 330017, Note_on_c, 0, 47, 77
2, 330073, Note_on_c, 0, 49, 0
2, 330173, Control_c, 0, 64, 66
2, 330266, Note_on_c, 0, 46, 78
2, 330303, Note_on_c, 0, 47, 0
2, 330310, Note_on_c, 0, 70, 0
2, 330446, Control_c, 0, 64, 65
2, 330588, Note_on_c, 0, 76, 0
2, 330624, Note_on_c, 0, 75, 79
2, 330627, Note_on_c, 0, 63, 80
2, 330629, Note_on_c, 0, 51, 79
2, 330630, Control_c, 0, 64, 64
2, 330631, Note_on_c, 0, 70, 80
2, 330645, Control_c, 0, 64, 62
2, 330660, Control_c, 0, 64, 54
2, 330665, Note_on_c, 0, 73, 0
2, 330676, Control_c, 0, 64, 39
2, 330677, Note_on_c, 0, 46, 0
2, 330690, Control_c, 0, 64, 0
2, 331093, Control_c, 0, 64, 10
2, 331109, Control_c, 0, 64, 55
2, 331124, Control_c, 0, 64, 64
2, 331131, Note_on_c, 0, 73, 81
2, 331138, Control_c, 0, 64, 68
2, 331154, Control_c, 0, 64, 73
2, 331169, Control_c, 0, 64, 77
2, 331185, Control_c, 0, 64, 83
2, 331200, Control_c, 0, 64, 87
2, 331214, Control_c, 0, 64, 90
2, 331230, Control_c, 0, 64, 92
2, 331294, Note_on_c, 0, 75, 0
2, 331297, Note_on_c, 0, 70, 0
2, 331443, Control_c, 0, 64, 92
2, 331458, Control_c, 0, 64, 91
2, 331474, Control_c, 0, 64, 91
2, 331489, Control_c, 0, 64, 90
2, 331550, Control_c, 0, 64, 90
2, 331602, Note_on_c, 0, 44, 60
2, 331611, Control_c, 0, 64, 88
2, 331624, Note_on_c, 0, 72, 77
2, 331625, Note_on_c, 0, 68, 73
2, 331627, Control_c, 0, 64, 84
2, 331642, Control_c, 0, 64, 76
2, 331648, Note_on_c, 0, 43, 0
2, 331656, Control_c, 0, 64, 67
2, 331672, Control_c, 0, 64, 54
2, 331687, Control_c, 0, 64, 19
2, 331690, Note_on_c, 0, 73, 0
2, 331709, Control_c, 0, 64, 0
2, 331831, Control_c, 0, 64, 28
2, 331837, Note_on_c, 0, 51, 0
2, 331846, Control_c, 0, 64, 41
2, 331861, Control_c, 0, 64, 52
2, 331877, Control_c, 0, 64, 59
2, 331892, Control_c, 0, 64, 62
2, 331907, Control_c, 0, 64, 65
2, 331914, Note_on_c, 0, 52, 64
2, 331922, Control_c, 0, 64, 66
2, 331937, Control_c, 0, 64, 68
2, 331953, Control_c, 0, 64, 69
2, 331968, Control_c, 0, 64, 69
2, 331983, Control_c, 0, 64, 70
2, 332058, Control_c, 0, 64, 69
2, 332105, Control_c, 0, 64, 69
2, 332121, Control_c, 0, 64, 68
2, 332136, Control_c, 0, 64, 68
2, 332177, Note_on_c, 0, 54, 75
2, 332229, Note_on_c, 0, 52, 0
2, 332349, Control_c, 0, 64, 68
2, 332507, Note_on_c, 0, 68, 0
2, 332523, Control_c, 0, 64, 68
2, 332614, Control_c, 0, 64, 67
2, 332721, Note_on_c, 0, 63, 0
2, 332753, Note_on_c, 0, 73, 74
2, 332756, Note_on_c, 0, 64, 61
2, 332756, Note_on_c, 0, 68, 63
2, 332811, Note_on_c, 0, 72, 0
2, 332903, Control_c, 0, 64, 67
2, 332977, Note_on_c, 0, 52, 63
2, 333028, Note_on_c, 0, 54, 0
2, 333041, Control_c, 0, 64, 66
2, 333162, Control_c, 0, 64, 66
2, 333223, Control_c, 0, 64, 65
2, 333241, Note_on_c, 0, 51, 75
2, 333246, Control_c, 0, 64, 65
2, 333261, Control_c, 0, 64, 64
2, 333291, Control_c, 0, 64, 64
2, 333333, Note_on_c, 0, 52, 0
2, 333458, Control_c, 0, 64, 64
2, 333479, Note_on_c, 0, 49, 71
2, 333492, Note_on_c, 0, 64, 0
2, 333562, Note_on_c, 0, 51, 0
2, 333809, Control_c, 0, 64, 64
2, 333869, Note_on_c, 0, 56, 71
2, 333870, Control_c, 0, 64, 63
2, 333877, Note_on_c, 0, 63, 65
2, 333885, Control_c, 0, 64, 63
2, 333899, Control_c, 0, 64, 62
2, 333915, Control_c, 0, 64, 60
2, 333924, Note_on_c, 0, 49, 0
2, 333930, Control_c, 0, 64, 59
2, 333946, Control_c, 0, 64, 58
2, 333961, Control_c, 0, 64, 58
2, 334059, Control_c, 0, 64, 58
2, 334075, Control_c, 0, 64, 59
2, 334090, Control_c, 0, 64, 60
2, 334106, Control_c, 0, 64, 60
2, 334135, Control_c, 0, 64, 61
2, 334166, Control_c, 0, 64, 61
2, 334348, Control_c, 0, 64, 61
2, 334873, Control_c, 0, 64, 61
2, 334950, Control_c, 0, 64, 62
2, 335040, Control_c, 0, 64, 62
2, 335044, Note_on_c, 0, 72, 66
2, 335071, Control_c, 0, 64, 63
2, 335116, Control_c, 0, 64, 63
2, 335147, Control_c, 0, 64, 64
2, 335161, Control_c, 0, 64, 64
2, 335176, Control_c, 0, 64, 66
2, 335192, Control_c, 0, 64, 67
2, 335206, Control_c, 0, 64, 70
2, 335221, Control_c, 0, 64, 72
2, 335226, Note_on_c, 0, 73, 0
2, 335237, Control_c, 0, 64, 74
2, 335252, Control_c, 0, 64, 77
2, 335268, Control_c, 0, 64, 81
2, 335283, Control_c, 0, 64, 87
2, 335298, Control_c, 0, 64, 94
2, 335314, Control_c, 0, 64, 100
2, 335328, Control_c, 0, 64, 104
2, 335328, Note_on_c, 0, 68, 0
2, 335344, Control_c, 0, 64, 104
2, 335577, Note_on_c, 0, 63, 0
2, 335683, Note_on_c, 0, 64, 49
2, 335718, Control_c, 0, 64, 105
2, 335808, Control_c, 0, 64, 105
2, 336035, Note_on_c, 0, 66, 56
2, 336067, Control_c, 0, 64, 105
2, 336137, Note_on_c, 0, 64, 0
2, 336143, Control_c, 0, 64, 104
2, 336166, Note_on_c, 0, 56, 0
2, 336350, Control_c, 0, 64, 104
2, 336379, Control_c, 0, 64, 103
2, 336395, Control_c, 0, 64, 102
2, 336410, Control_c, 0, 64, 102
2, 336426, Control_c, 0, 64, 101
2, 336440, Control_c, 0, 64, 100
2, 336455, Control_c, 0, 64, 100
2, 336471, Control_c, 0, 64, 99
2, 336486, Control_c, 0, 64, 98
2, 336500, Control_c, 0, 64, 97
2, 336516, Control_c, 0, 64, 95
2, 336531, Control_c, 0, 64, 93
2, 336539, Note_on_c, 0, 65, 56
2, 336540, Note_on_c, 0, 73, 61
2, 336546, Note_on_c, 0, 68, 56
2, 336547, Control_c, 0, 64, 89
2, 336562, Control_c, 0, 64, 86
2, 336569, Note_on_c, 0, 57, 44
2, 336572, Note_on_c, 0, 49, 45
2, 336576, Control_c, 0, 64, 82
2, 336592, Control_c, 0, 64, 79
2, 336607, Control_c, 0, 64, 75
2, 336615, Note_on_c, 0, 66, 0
2, 336623, Control_c, 0, 64, 72
2, 336638, Control_c, 0, 64, 67
2, 336652, Control_c, 0, 64, 64
2, 336668, Control_c, 0, 64, 63
2, 336683, Control_c, 0, 64, 62
2, 336698, Control_c, 0, 64, 61
2, 336718, Note_on_c, 0, 72, 0
2, 336723, Note_on_c, 0, 44, 0
2, 336729, Control_c, 0, 64, 62
2, 336760, Control_c, 0, 64, 62
2, 336761, Note_on_c, 0, 66, 19
2, 336774, Control_c, 0, 64, 63
2, 336790, Control_c, 0, 64, 64
2, 336807, Control_c, 0, 64, 65
2, 336810, Note_on_c, 0, 66, 0
2, 336822, Control_c, 0, 64, 65
2, 336837, Control_c, 0, 64, 66
2, 336852, Control_c, 0, 64, 67
2, 336868, Control_c, 0, 64, 68
2, 336883, Control_c, 0, 64, 69
2, 336898, Control_c, 0, 64, 70
2, 336973, Control_c, 0, 64, 69
2, 337004, Control_c, 0, 64, 69
2, 337036, Control_c, 0, 64, 68
2, 337051, Control_c, 0, 64, 67
2, 337134, Control_c, 0, 64, 67
2, 337209, Control_c, 0, 64, 66
2, 337240, Control_c, 0, 64, 66
2, 337270, Control_c, 0, 64, 65
2, 337285, Note_on_c, 0, 61, 65
2, 337330, Control_c, 0, 64, 65
2, 337407, Control_c, 0, 64, 65
2, 337437, Control_c, 0, 64, 66
2, 337452, Control_c, 0, 64, 66
2, 337468, Control_c, 0, 64, 67
2, 337469, Note_on_c, 0, 65, 0
2, 337483, Control_c, 0, 64, 67
2, 337499, Control_c, 0, 64, 68
2, 337514, Control_c, 0, 64, 69
2, 337529, Control_c, 0, 64, 69
2, 337544, Control_c, 0, 64, 70
2, 337635, Control_c, 0, 64, 69
2, 337665, Control_c, 0, 64, 69
2, 337680, Control_c, 0, 64, 68
2, 337726, Control_c, 0, 64, 68
2, 337771, Control_c, 0, 64, 67
2, 337817, Control_c, 0, 64, 67
2, 337832, Control_c, 0, 64, 66
2, 337837, Note_on_c, 0, 66, 69
2, 337857, Control_c, 0, 64, 66
2, 337872, Control_c, 0, 64, 65
2, 337887, Control_c, 0, 64, 65
2, 337994, Note_on_c, 0, 68, 0
2, 338052, Control_c, 0, 64, 64
2, 338369, Note_on_c, 0, 56, 43
2, 338422, Note_on_c, 0, 57, 0
2, 338569, Control_c, 0, 64, 65
2, 338599, Note_on_c, 0, 57, 49
2, 338645, Note_on_c, 0, 56, 0
2, 338775, Control_c, 0, 64, 64
2, 338851, Control_c, 0, 64, 64
2, 338882, Control_c, 0, 64, 63
2, 338904, Note_on_c, 0, 65, 62
2, 338911, Note_on_c, 0, 59, 44
2, 338927, Control_c, 0, 64, 63
2, 338943, Control_c, 0, 64, 62
2, 338945, Note_on_c, 0, 57, 0
2, 338972, Control_c, 0, 64, 62
2, 339013, Note_on_c, 0, 66, 0
2, 339048, Control_c, 0, 64, 63
2, 339064, Control_c, 0, 64, 64
2, 339079, Control_c, 0, 64, 66
2, 339094, Control_c, 0, 64, 68
2, 339110, Control_c, 0, 64, 72
2, 339125, Control_c, 0, 64, 77
2, 339141, Control_c, 0, 64, 83
2, 339155, Control_c, 0, 64, 90
2, 339170, Control_c, 0, 64, 95
2, 339186, Control_c, 0, 64, 96
2, 339193, Note_on_c, 0, 61, 0
2, 339201, Control_c, 0, 64, 96
2, 339217, Control_c, 0, 64, 95
2, 339231, Control_c, 0, 64, 95
2, 339262, Control_c, 0, 64, 94
2, 339276, Control_c, 0, 64, 92
2, 339291, Control_c, 0, 64, 91
2, 339307, Control_c, 0, 64, 91
2, 339322, Control_c, 0, 64, 89
2, 339338, Control_c, 0, 64, 87
2, 339353, Control_c, 0, 64, 85
2, 339367, Control_c, 0, 64, 85
2, 339422, Control_c, 0, 64, 84
2, 339436, Control_c, 0, 64, 83
2, 339451, Control_c, 0, 64, 80
2, 339467, Control_c, 0, 64, 75
2, 339482, Control_c, 0, 64, 68
2, 339498, Control_c, 0, 64, 61
2, 339507, Note_on_c, 0, 61, 56
2, 339513, Control_c, 0, 64, 53
2, 339525, Note_on_c, 0, 57, 43
2, 339528, Control_c, 0, 64, 47
2, 339544, Control_c, 0, 64, 42
2, 339559, Control_c, 0, 64, 38
2, 339574, Control_c, 0, 64, 38
2, 339589, Control_c, 0, 64, 39
2, 339594, Note_on_c, 0, 59, 0
2, 339604, Control_c, 0, 64, 48
2, 339620, Control_c, 0, 64, 56
2, 339635, Control_c, 0, 64, 61
2, 339650, Control_c, 0, 64, 64
2, 339665, Control_c, 0, 64, 67
2, 339680, Control_c, 0, 64, 69
2, 339695, Control_c, 0, 64, 72
2, 339711, Control_c, 0, 64, 75
2, 339726, Control_c, 0, 64, 78
2, 339741, Control_c, 0, 64, 83
2, 339756, Control_c, 0, 64, 89
2, 339771, Control_c, 0, 64, 92
2, 339817, Control_c, 0, 64, 91
2, 339832, Control_c, 0, 64, 91
2, 339847, Control_c, 0, 64, 90
2, 339863, Control_c, 0, 64, 90
2, 340014, Control_c, 0, 64, 89
2, 340030, Control_c, 0, 64, 88
2, 340045, Control_c, 0, 64, 87
2, 340061, Control_c, 0, 64, 83
2, 340075, Control_c, 0, 64, 79
2, 340093, Control_c, 0, 64, 73
2, 340108, Control_c, 0, 64, 65
2, 340109, Note_on_c, 0, 69, 65
2, 340115, Note_on_c, 0, 66, 59
2, 340122, Control_c, 0, 64, 57
2, 340127, Note_on_c, 0, 56, 44
2, 340138, Control_c, 0, 64, 49
2, 340160, Control_c, 0, 64, 44
2, 340167, Note_on_c, 0, 61, 0
2, 340176, Control_c, 0, 64, 37
2, 340188, Note_on_c, 0, 65, 0
2, 340191, Control_c, 0, 64, 20
2, 340193, Note_on_c, 0, 57, 0
2, 340206, Control_c, 0, 64, 0
2, 340253, Control_c, 0, 64, 28
2, 340268, Control_c, 0, 64, 47
2, 340282, Control_c, 0, 64, 57
2, 340298, Control_c, 0, 64, 63
2, 340313, Control_c, 0, 64, 67
2, 340328, Control_c, 0, 64, 72
2, 340344, Control_c, 0, 64, 77
2, 340359, Control_c, 0, 64, 82
2, 340375, Control_c, 0, 64, 88
2, 340390, Control_c, 0, 64, 94
2, 340405, Control_c, 0, 64, 102
2, 340421, Control_c, 0, 64, 106
2, 340428, Note_on_c, 0, 66, 0
2, 340451, Control_c, 0, 64, 106
2, 340526, Control_c, 0, 64, 105
2, 340587, Control_c, 0, 64, 106
2, 340618, Control_c, 0, 64, 106
2, 340723, Control_c, 0, 64, 106
2, 340739, Control_c, 0, 64, 105
2, 340754, Control_c, 0, 64, 104
2, 340770, Control_c, 0, 64, 99
2, 340779, Note_on_c, 0, 66, 55
2, 340782, Note_on_c, 0, 54, 49
2, 340784, Control_c, 0, 64, 91
2, 340799, Control_c, 0, 64, 81
2, 340815, Control_c, 0, 64, 70
2, 340827, Note_on_c, 0, 56, 0
2, 340830, Control_c, 0, 64, 58
2, 340845, Control_c, 0, 64, 35
2, 340861, Control_c, 0, 64, 33
2, 340876, Control_c, 0, 64, 32
2, 340892, Control_c, 0, 64, 31
2, 340928, Control_c, 0, 64, 41
2, 340944, Control_c, 0, 64, 51
2, 340959, Control_c, 0, 64, 58
2, 340974, Control_c, 0, 64, 63
2, 340989, Control_c, 0, 64, 66
2, 341004, Control_c, 0, 64, 71
2, 341020, Control_c, 0, 64, 77
2, 341035, Control_c, 0, 64, 86
2, 341051, Control_c, 0, 64, 97
2, 341066, Control_c, 0, 64, 108
2, 341081, Control_c, 0, 64, 109
2, 341096, Control_c, 0, 64, 108
2, 341115, Note_on_c, 0, 66, 0
2, 341127, Control_c, 0, 64, 109
2, 341234, Control_c, 0, 64, 109
2, 341250, Control_c, 0, 64, 110
2, 341264, Control_c, 0, 64, 110
2, 341325, Control_c, 0, 64, 110
2, 341341, Control_c, 0, 64, 109
2, 341371, Control_c, 0, 64, 109
2, 341386, Control_c, 0, 64, 108
2, 341431, Control_c, 0, 64, 107
2, 341477, Control_c, 0, 64, 107
2, 341492, Control_c, 0, 64, 106
2, 341507, Control_c, 0, 64, 104
2, 341522, Control_c, 0, 64, 102
2, 341538, Control_c, 0, 64, 99
2, 341553, Control_c, 0, 64, 95
2, 341564, Note_on_c, 0, 68, 64
2, 341567, Control_c, 0, 64, 92
2, 341571, Note_on_c, 0, 66, 52
2, 341583, Control_c, 0, 64, 89
2, 341589, Note_on_c, 0, 61, 48
2, 341598, Control_c, 0, 64, 87
2, 341613, Control_c, 0, 64, 85
2, 341628, Control_c, 0, 64, 84
2, 341643, Control_c, 0, 64, 82
2, 341656, Note_on_c, 0, 54, 0
2, 341659, Control_c, 0, 64, 79
2, 341665, Note_on_c, 0, 69, 0
2, 341674, Control_c, 0, 64, 77
2, 341697, Control_c, 0, 64, 73
2, 341712, Control_c, 0, 64, 71
2, 341727, Control_c, 0, 64, 68
2, 341742, Control_c, 0, 64, 66
2, 341757, Control_c, 0, 64, 65
2, 341773, Control_c, 0, 64, 64
2, 341788, Control_c, 0, 64, 64
2, 341879, Control_c, 0, 64, 64
2, 341894, Control_c, 0, 64, 65
2, 341924, Control_c, 0, 64, 65
2, 341941, Control_c, 0, 64, 66
2, 341956, Control_c, 0, 64, 66
2, 341972, Control_c, 0, 64, 67
2, 341987, Control_c, 0, 64, 68
2, 342001, Control_c, 0, 64, 69
2, 342139, Control_c, 0, 64, 68
2, 342170, Control_c, 0, 64, 68
2, 342230, Control_c, 0, 64, 67
2, 342275, Control_c, 0, 64, 67
2, 342321, Control_c, 0, 64, 66
2, 342351, Control_c, 0, 64, 66
2, 342381, Control_c, 0, 64, 65
2, 342396, Control_c, 0, 64, 65
2, 342412, Control_c, 0, 64, 64
2, 342427, Control_c, 0, 64, 62
2, 342436, Note_on_c, 0, 59, 37
2, 342442, Control_c, 0, 64, 57
2, 342465, Control_c, 0, 64, 48
2, 342480, Control_c, 0, 64, 36
2, 342496, Control_c, 0, 64, 25
2, 342511, Control_c, 0, 64, 21
2, 342541, Control_c, 0, 64, 22
2, 342556, Control_c, 0, 64, 30
2, 342565, Note_on_c, 0, 61, 0
2, 342573, Control_c, 0, 64, 46
2, 342587, Control_c, 0, 64, 58
2, 342602, Control_c, 0, 64, 65
2, 342618, Control_c, 0, 64, 70
2, 342633, Control_c, 0, 64, 74
2, 342648, Control_c, 0, 64, 77
2, 342663, Control_c, 0, 64, 78
2, 342678, Control_c, 0, 64, 78
2, 342694, Control_c, 0, 64, 79
2, 342709, Control_c, 0, 64, 81
2, 342724, Control_c, 0, 64, 83
2, 342739, Control_c, 0, 64, 85
2, 342771, Control_c, 0, 64, 85
2, 342786, Control_c, 0, 64, 84
2, 342827, Note_on_c, 0, 57, 43
2, 342846, Control_c, 0, 64, 84
2, 342892, Note_on_c, 0, 59, 0
2, 342922, Control_c, 0, 64, 83
2, 342953, Control_c, 0, 64, 83
2, 342967, Control_c, 0, 64, 82
2, 342998, Control_c, 0, 64, 82
2, 343014, Control_c, 0, 64, 81
2, 343043, Control_c, 0, 64, 81
2, 343120, Control_c, 0, 64, 80
2, 343136, Control_c, 0, 64, 80
2, 343151, Control_c, 0, 64, 79
2, 343264, Control_c, 0, 64, 79
2, 343295, Control_c, 0, 64, 78
2, 343310, Note_on_c, 0, 65, 37
2, 343319, Note_on_c, 0, 56, 39
2, 343325, Control_c, 0, 64, 78
2, 343355, Control_c, 0, 64, 77
2, 343371, Control_c, 0, 64, 76
2, 343385, Control_c, 0, 64, 76
2, 343400, Control_c, 0, 64, 75
2, 343416, Control_c, 0, 64, 74
2, 343423, Note_on_c, 0, 66, 0
2, 343430, Control_c, 0, 64, 74
2, 343444, Note_on_c, 0, 57, 0
2, 343445, Control_c, 0, 64, 73
2, 343461, Control_c, 0, 64, 72
2, 343476, Control_c, 0, 64, 72
2, 343507, Control_c, 0, 64, 71
2, 343552, Control_c, 0, 64, 71
2, 343567, Control_c, 0, 64, 70
2, 343584, Control_c, 0, 64, 70
2, 343674, Control_c, 0, 64, 69
2, 343720, Control_c, 0, 64, 69
2, 343750, Control_c, 0, 64, 68
2, 343887, Control_c, 0, 64, 68
2, 343918, Control_c, 0, 64, 67
2, 343963, Control_c, 0, 64, 67
2, 344046, Control_c, 0, 64, 66
2, 344108, Control_c, 0, 64, 66
2, 344185, Note_on_c, 0, 63, 45
2, 344214, Control_c, 0, 64, 65
2, 344224, Note_on_c, 0, 54, 34
2, 344244, Control_c, 0, 64, 65
2, 344320, Control_c, 0, 64, 64
2, 344336, Control_c, 0, 64, 64
2, 344350, Control_c, 0, 64, 63
2, 344374, Note_on_c, 0, 65, 0
2, 344396, Control_c, 0, 64, 63
2, 344458, Note_on_c, 0, 56, 0
2, 344503, Control_c, 0, 64, 62
2, 344716, Control_c, 0, 64, 62
2, 344747, Control_c, 0, 64, 61
2, 344785, Control_c, 0, 64, 61
2, 344815, Control_c, 0, 64, 60
2, 345013, Control_c, 0, 64, 60
2, 345119, Control_c, 0, 64, 60
2, 345553, Control_c, 0, 64, 60
2, 345554, Note_on_c, 0, 65, 38
2, 345573, Note_on_c, 0, 56, 31
2, 345676, Note_on_c, 0, 63, 0
2, 345749, Note_on_c, 0, 54, 0
2, 345872, Control_c, 0, 64, 59
2, 345886, Control_c, 0, 64, 59
2, 345902, Control_c, 0, 64, 58
2, 345917, Control_c, 0, 64, 57
2, 345933, Control_c, 0, 64, 56
2, 345948, Control_c, 0, 64, 55
2, 345962, Control_c, 0, 64, 54
2, 345978, Control_c, 0, 64, 53
2, 345993, Control_c, 0, 64, 52
2, 346008, Control_c, 0, 64, 51
2, 346023, Control_c, 0, 64, 49
2, 346040, Control_c, 0, 64, 49
2, 346056, Control_c, 0, 64, 48
2, 346070, Control_c, 0, 64, 47
2, 346085, Control_c, 0, 64, 45
2, 346101, Control_c, 0, 64, 42
2, 346115, Control_c, 0, 64, 39
2, 346131, Control_c, 0, 64, 35
2, 346146, Control_c, 0, 64, 28
2, 346161, Control_c, 0, 64, 21
2, 346177, Control_c, 0, 64, 8
2, 346191, Control_c, 0, 64, 0
2, 346777, Control_c, 0, 64, 16
2, 346792, Control_c, 0, 64, 35
2, 346807, Control_c, 0, 64, 42
2, 346823, Control_c, 0, 64, 46
2, 346838, Control_c, 0, 64, 49
2, 346854, Control_c, 0, 64, 51
2, 346869, Control_c, 0, 64, 52
2, 346883, Control_c, 0, 64, 54
2, 346899, Control_c, 0, 64, 55
2, 346914, Control_c, 0, 64, 57
2, 346930, Control_c, 0, 64, 59
2, 346945, Control_c, 0, 64, 61
2, 346960, Control_c, 0, 64, 62
2, 346976, Control_c, 0, 64, 63
2, 346993, Control_c, 0, 64, 64
2, 347009, Control_c, 0, 64, 64
2, 347025, Control_c, 0, 64, 65
2, 347041, Control_c, 0, 64, 67
2, 347056, Control_c, 0, 64, 68
2, 347079, Control_c, 0, 64, 70
2, 347094, Control_c, 0, 64, 72
2, 347108, Control_c, 0, 64, 74
2, 347124, Control_c, 0, 64, 76
2, 347139, Control_c, 0, 64, 77
2, 347154, Control_c, 0, 64, 79
2, 347170, Control_c, 0, 64, 81
2, 347184, Control_c, 0, 64, 83
2, 347200, Control_c, 0, 64, 85
2, 347215, Control_c, 0, 64, 86
2, 347230, Control_c, 0, 64, 88
2, 347246, Control_c, 0, 64, 89
2, 347261, Control_c, 0, 64, 90
2, 347337, Control_c, 0, 64, 91
2, 347352, Control_c, 0, 64, 92
2, 347368, Control_c, 0, 64, 95
2, 347382, Control_c, 0, 64, 99
2, 347398, Control_c, 0, 64, 101
2, 347413, Control_c, 0, 64, 102
2, 347503, Control_c, 0, 64, 103
2, 347519, Control_c, 0, 64, 104
2, 347534, Control_c, 0, 64, 106
2, 347549, Control_c, 0, 64, 109
2, 347565, Control_c, 0, 64, 111
2, 347579, Control_c, 0, 64, 112
2, 347594, Control_c, 0, 64, 114
2, 347610, Control_c, 0, 64, 116
2, 347625, Control_c, 0, 64, 127
2, 348718, Note_on_c, 0, 56, 0
2, 348722, Note_on_c, 0, 49, 0
2, 348729, Note_on_c, 0, 65, 0
2, 348789, Note_on_c, 0, 73, 0
2, 348850, Note_on_c, 0, 68, 0
2, 348981, Control_c, 0, 64, 122
2, 348996, Control_c, 0, 64, 121
2, 349011, Control_c, 0, 64, 119
2, 349026, Control_c, 0, 64, 118
2, 349042, Control_c, 0, 64, 116
2, 349057, Control_c, 0, 64, 114
2, 349072, Control_c, 0, 64, 113
2, 349087, Control_c, 0, 64, 111
2, 349102, Control_c, 0, 64, 110
2, 349117, Control_c, 0, 64, 110
2, 349132, Control_c, 0, 64, 108
2, 349147, Control_c, 0, 64, 107
2, 349163, Control_c, 0, 64, 106
2, 349178, Control_c, 0, 64, 106
2, 349193, Control_c, 0, 64, 105
2, 349208, Control_c, 0, 64, 104
2, 349223, Control_c, 0, 64, 103
2, 349239, Control_c, 0, 64, 102
2, 349254, Control_c, 0, 64, 101
2, 349299, Control_c, 0, 64, 100
2, 349315, Control_c, 0, 64, 98
2, 349331, Control_c, 0, 64, 97
2, 349346, Control_c, 0, 64, 95
2, 349362, Control_c, 0, 64, 93
2, 349384, Control_c, 0, 64, 92
2, 349400, Control_c, 0, 64, 90
2, 349415, Control_c, 0, 64, 88
2, 349430, Control_c, 0, 64, 87
2, 349445, Control_c, 0, 64, 86
2, 349460, Control_c, 0, 64, 85
2, 349476, Control_c, 0, 64, 84
2, 349492, Control_c, 0, 64, 83
2, 349506, Control_c, 0, 64, 81
2, 349522, Control_c, 0, 64, 81
2, 349537, Control_c, 0, 64, 80
2, 349553, Control_c, 0, 64, 80
2, 349567, Control_c, 0, 64, 79
2, 349582, Control_c, 0, 64, 78
2, 349598, Control_c, 0, 64, 77
2, 349613, Control_c, 0, 64, 76
2, 349629, Control_c, 0, 64, 75
2, 349643, Control_c, 0, 64, 74
2, 349658, Control_c, 0, 64, 73
2, 349674, Control_c, 0, 64, 72
2, 349689, Control_c, 0, 64, 71
2, 349704, Control_c, 0, 64, 71
2, 349719, Control_c, 0, 64, 70
2, 349750, Control_c, 0, 64, 69
2, 349764, Control_c, 0, 64, 68
2, 349779, Control_c, 0, 64, 68
2, 349795, Control_c, 0, 64, 67
2, 349810, Control_c, 0, 64, 67
2, 349841, Control_c, 0, 64, 66
2, 349856, Control_c, 0, 64, 66
2, 349902, Control_c, 0, 64, 65
2, 349932, Control_c, 0, 64, 65
2, 349947, Control_c, 0, 64, 64
2, 349962, Control_c, 0, 64, 64
2, 349977, Control_c, 0, 64, 63
2, 349993, Control_c, 0, 64, 62
2, 350023, Control_c, 0, 64, 61
2, 350038, Control_c, 0, 64, 61
2, 350053, Control_c, 0, 64, 60
2, 350069, Control_c, 0, 64, 60
2, 350084, Control_c, 0, 64, 59
2, 350099, Control_c, 0, 64, 58
2, 350114, Control_c, 0, 64, 58
2, 350129, Control_c, 0, 64, 57
2, 350153, Control_c, 0, 64, 56
2, 350168, Control_c, 0, 64, 55
2, 350183, Control_c, 0, 64, 54
2, 350199, Control_c, 0, 64, 53
2, 350214, Control_c, 0, 64, 53
2, 350229, Control_c, 0, 64, 52
2, 350244, Control_c, 0, 64, 51
2, 350258, Control_c, 0, 64, 51
2, 350288, Control_c, 0, 64, 50
2, 350349, Control_c, 0, 64, 50
2, 350350, End_track
0, 0, End_of_file
