0, 0, Header, 1, 2, 384
1, 0, Start_track
1, 0, Tempo, 500000
1, 0, Time_signature, 4, 2, 24, 8
1, 1, End_track
2,0,Start_track
2,0, Note_on_c, 0, 49, 30
2,2528, Note_on_c, 0, 48, 34
2,2759, Note_on_c, 0, 49, 0
2,3671, Note_on_c, 0, 52, 43
2,3827, Note_on_c, 0, 48, 0
2,4857, Note_on_c, 0, 51, 45
2,5013, Note_on_c, 0, 52, 0
2,7250, Note_on_c, 0, 56, 44
2,7286, Note_on_c, 0, 49, 32
2,7449, Note_on_c, 0, 51, 0
2,7820, Note_on_c, 0, 51, 37
2,7914, Note_on_c, 0, 49, 0
2,8418, Note_on_c, 0, 52, 41
2,8488, Note_on_c, 0, 51, 0
2,9534, Note_on_c, 0, 55, 51
2,9751, Note_on_c, 0, 56, 0
2,10044, Note_on_c, 0, 51, 40
2,10279, Note_on_c, 0, 49, 41
2,10298, Note_on_c, 0, 51, 0
2,10595, Note_on_c, 0, 59, 68
2,10621, Note_on_c, 0, 51, 47
2,10687, Note_on_c, 0, 49, 0
2,10696, Note_on_c, 0, 52, 0
2,10741, Note_on_c, 0, 55, 0
2,11118, Note_on_c, 0, 56, 46
2,11199, Note_on_c, 0, 51, 0
2,11634, Note_on_c, 0, 58, 58
2,11656, Note_on_c, 0, 49, 41
2,11769, Note_on_c, 0, 59, 0
2,11796, Note_on_c, 0, 56, 0
2,12094, Note_on_c, 0, 51, 40
2,12228, Note_on_c, 0, 49, 0
2,12314, Note_on_c, 0, 52, 48
2,12412, Note_on_c, 0, 51, 0
2,12635, Note_on_c, 0, 54, 43
2,12687, Note_on_c, 0, 52, 0
2,13613, Note_on_c, 0, 56, 48
2,13751, Note_on_c, 0, 58, 0
2,14125, Note_on_c, 0, 52, 44
2,14163, Note_on_c, 0, 54, 0
2,14643, Note_on_c, 0, 61, 67
2,14652, Note_on_c, 0, 51, 47
2,14670, Note_on_c, 0, 57, 50
2,14733, Note_on_c, 0, 52, 0
2,14758, Note_on_c, 0, 56, 0
2,15123, Note_on_c, 0, 49, 40
2,15162, Note_on_c, 0, 51, 0
2,15616, Note_on_c, 0, 60, 60
2,15625, Note_on_c, 0, 51, 49
2,15697, Note_on_c, 0, 49, 0
2,15710, Note_on_c, 0, 61, 0
2,16086, Note_on_c, 0, 56, 50
2,16139, Note_on_c, 0, 57, 0
2,16304, Note_on_c, 0, 54, 60
2,16331, Note_on_c, 0, 56, 0
2,16589, Note_on_c, 0, 64, 72
2,16618, Note_on_c, 0, 56, 49
2,16621, Note_on_c, 0, 49, 40
2,16672, Note_on_c, 0, 54, 0
2,16684, Note_on_c, 0, 60, 0
2,16726, Note_on_c, 0, 51, 0
2,17100, Note_on_c, 0, 61, 54
2,17119, Note_on_c, 0, 56, 0
2,17526, Note_on_c, 0, 61, 0
2,17574, Note_on_c, 0, 63, 58
2,17583, Note_on_c, 0, 54, 40
2,17622, Note_on_c, 0, 64, 0
2,18045, Note_on_c, 0, 56, 41
2,18073, Note_on_c, 0, 47, 39
2,18127, Note_on_c, 0, 49, 0
2,18178, Note_on_c, 0, 56, 0
2,18249, Note_on_c, 0, 57, 49
2,18526, Note_on_c, 0, 59, 50
2,18538, Note_on_c, 0, 45, 40
2,18561, Note_on_c, 0, 47, 0
2,18562, Note_on_c, 0, 57, 0
2,19027, Note_on_c, 0, 44, 45
2,19060, Note_on_c, 0, 45, 0
2,19528, Note_on_c, 0, 63, 0
2,19550, Note_on_c, 0, 61, 51
2,19568, Note_on_c, 0, 45, 36
2,19640, Note_on_c, 0, 44, 0
2,19642, Note_on_c, 0, 54, 0
2,20066, Note_on_c, 0, 57, 49
2,20100, Control_c, 0, 64, 27
2,20115, Control_c, 0, 64, 58
2,20130, Control_c, 0, 64, 65
2,20130, Note_on_c, 0, 59, 0
2,20145, Control_c, 0, 64, 69
2,20160, Control_c, 0, 64, 74
2,20176, Control_c, 0, 64, 78
2,20191, Control_c, 0, 64, 81
2,20206, Control_c, 0, 64, 84
2,20222, Control_c, 0, 64, 85
2,20237, Control_c, 0, 64, 86
2,20252, Control_c, 0, 64, 85
2,20344, Control_c, 0, 64, 85
2,20359, Control_c, 0, 64, 84
2,20373, Control_c, 0, 64, 83
2,20420, Control_c, 0, 64, 83
2,20434, Control_c, 0, 64, 82
2,20449, Control_c, 0, 64, 81
2,20465, Control_c, 0, 64, 79
2,20480, Control_c, 0, 64, 77
2,20496, Control_c, 0, 64, 75
2,20511, Control_c, 0, 64, 73
2,20525, Control_c, 0, 64, 71
2,20541, Control_c, 0, 64, 68
2,20555, Note_on_c, 0, 46, 38
2,20555, Note_on_c, 0, 66, 57
2,20556, Control_c, 0, 64, 66
2,20569, Note_on_c, 0, 56, 39
2,20570, Control_c, 0, 64, 63
2,20586, Control_c, 0, 64, 59
2,20601, Control_c, 0, 64, 53
2,20617, Control_c, 0, 64, 43
2,20621, Note_on_c, 0, 57, 0
2,20626, Note_on_c, 0, 45, 0
2,20632, Control_c, 0, 64, 18
2,20647, Control_c, 0, 64, 0
2,20717, Note_on_c, 0, 61, 0
2,21067, Note_on_c, 0, 54, 46
2,21124, Note_on_c, 0, 56, 0
2,21527, Note_on_c, 0, 48, 46
2,21530, Note_on_c, 0, 56, 42
2,21612, Note_on_c, 0, 46, 0
2,21617, Note_on_c, 0, 54, 0
2,22049, Note_on_c, 0, 64, 52
2,22521, Note_on_c, 0, 63, 54
2,22526, Note_on_c, 0, 49, 33
2,22538, Note_on_c, 0, 54, 41
2,22622, Note_on_c, 0, 48, 0
2,22635, Note_on_c, 0, 56, 0
2,22653, Note_on_c, 0, 64, 0
2,22654, Note_on_c, 0, 66, 0
2,23017, Note_on_c, 0, 61, 55
2,23028, Note_on_c, 0, 52, 38
2,23050, Note_on_c, 0, 54, 0
2,23126, Control_c, 0, 64, 30
2,23129, Note_on_c, 0, 63, 0
2,23142, Control_c, 0, 64, 54
2,23156, Control_c, 0, 64, 63
2,23171, Control_c, 0, 64, 67
2,23187, Control_c, 0, 64, 71
2,23202, Control_c, 0, 64, 74
2,23218, Control_c, 0, 64, 77
2,23232, Control_c, 0, 64, 79
2,23247, Control_c, 0, 64, 81
2,23263, Control_c, 0, 64, 82
2,23278, Control_c, 0, 64, 84
2,23293, Control_c, 0, 64, 84
2,23339, Control_c, 0, 64, 85
2,23354, Control_c, 0, 64, 85
2,23368, Control_c, 0, 64, 86
2,23399, Control_c, 0, 64, 85
2,23404, Note_on_c, 0, 61, 0
2,23491, Control_c, 0, 64, 85
2,23538, Control_c, 0, 64, 84
2,23542, Note_on_c, 0, 61, 53
2,23545, Note_on_c, 0, 44, 47
2,23552, Control_c, 0, 64, 83
2,23554, Note_on_c, 0, 51, 48
2,23567, Control_c, 0, 64, 80
2,23583, Control_c, 0, 64, 74
2,23597, Control_c, 0, 64, 66
2,23608, Note_on_c, 0, 52, 0
2,23612, Control_c, 0, 64, 51
2,23628, Control_c, 0, 64, 0
2,23642, Note_on_c, 0, 49, 0
2,23970, Control_c, 0, 64, 30
2,23986, Control_c, 0, 64, 54
2,24000, Control_c, 0, 64, 62
2,24016, Control_c, 0, 64, 65
2,24031, Control_c, 0, 64, 66
2,24046, Control_c, 0, 64, 67
2,24059, Note_on_c, 0, 45, 54
2,24062, Control_c, 0, 64, 69
2,24076, Control_c, 0, 64, 70
2,24091, Control_c, 0, 64, 73
2,24107, Control_c, 0, 64, 76
2,24122, Control_c, 0, 64, 79
2,24129, Note_on_c, 0, 44, 0
2,24138, Control_c, 0, 64, 81
2,24138, Control_c, 0, 67, 124
2,24152, Control_c, 0, 64, 83
2,24152, Control_c, 0, 67, 119
2,24167, Control_c, 0, 64, 84
2,24167, Control_c, 0, 67, 112
2,24183, Control_c, 0, 67, 104
2,24198, Control_c, 0, 67, 95
2,24212, Control_c, 0, 67, 87
2,24228, Control_c, 0, 67, 79
2,24243, Control_c, 0, 67, 68
2,24259, Control_c, 0, 67, 56
2,24274, Control_c, 0, 67, 42
2,24288, Control_c, 0, 67, 29
2,24305, Control_c, 0, 67, 19
2,24320, Control_c, 0, 64, 85
2,24320, Control_c, 0, 67, 11
2,24336, Control_c, 0, 67, 0
2,24472, Control_c, 0, 64, 84
2,24503, Control_c, 0, 64, 84
2,24517, Control_c, 0, 64, 82
2,24532, Control_c, 0, 64, 78
2,24548, Control_c, 0, 64, 73
2,24557, Note_on_c, 0, 68, 76
2,24563, Control_c, 0, 64, 65
2,24570, Note_on_c, 0, 47, 52
2,24574, Note_on_c, 0, 59, 57
2,24579, Control_c, 0, 64, 51
2,24594, Control_c, 0, 64, 0
2,24660, Note_on_c, 0, 45, 0
2,24690, Note_on_c, 0, 61, 0
2,24829, Control_c, 0, 64, 12
2,24844, Control_c, 0, 64, 49
2,24860, Control_c, 0, 64, 58
2,24875, Control_c, 0, 64, 63
2,24890, Control_c, 0, 64, 67
2,24906, Control_c, 0, 64, 71
2,24920, Control_c, 0, 64, 75
2,24936, Control_c, 0, 64, 79
2,24951, Control_c, 0, 64, 84
2,24966, Control_c, 0, 64, 88
2,24966, Note_on_c, 0, 51, 0
2,24982, Control_c, 0, 64, 90
2,24996, Control_c, 0, 64, 92
2,25042, Control_c, 0, 64, 91
2,25057, Note_on_c, 0, 50, 52
2,25180, Control_c, 0, 64, 91
2,25256, Control_c, 0, 64, 90
2,25285, Control_c, 0, 64, 90
2,25301, Control_c, 0, 64, 89
2,25316, Control_c, 0, 64, 89
2,25331, Control_c, 0, 64, 87
2,25347, Control_c, 0, 64, 86
2,25361, Control_c, 0, 64, 83
2,25377, Control_c, 0, 64, 81
2,25400, Control_c, 0, 64, 80
2,25416, Control_c, 0, 64, 79
2,25431, Control_c, 0, 64, 78
2,25490, Control_c, 0, 64, 77
2,25506, Control_c, 0, 64, 77
2,25520, Note_on_c, 0, 65, 72
2,25521, Control_c, 0, 64, 75
2,25537, Control_c, 0, 64, 72
2,25540, Note_on_c, 0, 49, 48
2,25546, Note_on_c, 0, 61, 53
2,25552, Control_c, 0, 64, 67
2,25566, Control_c, 0, 64, 59
2,25576, Note_on_c, 0, 50, 0
2,25582, Control_c, 0, 64, 25
2,25586, Note_on_c, 0, 59, 0
2,25597, Control_c, 0, 64, 0
2,25659, Note_on_c, 0, 68, 0
2,25810, Control_c, 0, 64, 25
2,25825, Control_c, 0, 64, 39
2,25840, Control_c, 0, 64, 48
2,25856, Control_c, 0, 64, 54
2,25871, Control_c, 0, 64, 59
2,25886, Control_c, 0, 64, 63
2,25901, Control_c, 0, 64, 65
2,25916, Control_c, 0, 64, 67
2,25931, Control_c, 0, 64, 70
2,25948, Control_c, 0, 64, 72
2,25963, Control_c, 0, 64, 74
2,25978, Note_on_c, 0, 45, 52
2,25979, Control_c, 0, 64, 75
2,25989, Note_on_c, 0, 47, 0
2,25993, Control_c, 0, 64, 77
2,26084, Control_c, 0, 64, 77
2,26229, Control_c, 0, 64, 77
2,26334, Control_c, 0, 64, 76
2,26350, Control_c, 0, 64, 76
2,26381, Control_c, 0, 64, 75
2,26396, Control_c, 0, 64, 75
2,26410, Control_c, 0, 64, 74
2,26426, Control_c, 0, 64, 72
2,26441, Control_c, 0, 64, 70
2,26452, Note_on_c, 0, 69, 73
2,26456, Control_c, 0, 64, 66
2,26459, Note_on_c, 0, 66, 66
2,26463, Note_on_c, 0, 44, 55
2,26471, Control_c, 0, 64, 61
2,26486, Control_c, 0, 64, 52
2,26490, Note_on_c, 0, 45, 0
2,26502, Control_c, 0, 64, 44
2,26517, Control_c, 0, 64, 43
2,26550, Note_on_c, 0, 65, 0
2,26593, Control_c, 0, 64, 44
2,26596, Note_on_c, 0, 61, 0
2,26608, Control_c, 0, 64, 45
2,26624, Control_c, 0, 64, 48
2,26639, Control_c, 0, 64, 51
2,26654, Control_c, 0, 64, 53
2,26669, Control_c, 0, 64, 54
2,26684, Control_c, 0, 64, 56
2,26700, Control_c, 0, 64, 58
2,26715, Control_c, 0, 64, 59
2,26730, Control_c, 0, 64, 61
2,26745, Control_c, 0, 64, 63
2,26761, Control_c, 0, 64, 65
2,26777, Control_c, 0, 64, 67
2,26792, Control_c, 0, 64, 69
2,26807, Control_c, 0, 64, 71
2,26823, Control_c, 0, 64, 72
2,26837, Control_c, 0, 64, 73
2,26852, Control_c, 0, 64, 74
2,26936, Note_on_c, 0, 42, 66
2,26973, Note_on_c, 0, 44, 0
2,27042, Note_on_c, 0, 49, 0
2,27100, Control_c, 0, 64, 73
2,27207, Control_c, 0, 64, 73
2,27252, Control_c, 0, 64, 72
2,27297, Control_c, 0, 64, 72
2,27313, Control_c, 0, 64, 71
2,27328, Control_c, 0, 64, 71
2,27344, Control_c, 0, 64, 70
2,27359, Control_c, 0, 64, 69
2,27374, Control_c, 0, 64, 68
2,27389, Control_c, 0, 64, 66
2,27404, Control_c, 0, 64, 64
2,27419, Control_c, 0, 64, 58
2,27435, Control_c, 0, 64, 44
2,27450, Control_c, 0, 64, 18
2,27457, Note_on_c, 0, 49, 62
2,27457, Note_on_c, 0, 68, 76
2,27466, Control_c, 0, 64, 0
2,27482, Note_on_c, 0, 69, 0
2,27512, Note_on_c, 0, 42, 0
2,27701, Control_c, 0, 64, 25
2,27717, Control_c, 0, 64, 49
2,27732, Control_c, 0, 64, 58
2,27747, Control_c, 0, 64, 63
2,27762, Control_c, 0, 64, 65
2,27777, Control_c, 0, 64, 66
2,27793, Control_c, 0, 64, 68
2,27808, Control_c, 0, 64, 69
2,27824, Control_c, 0, 64, 71
2,27839, Control_c, 0, 64, 72
2,27854, Control_c, 0, 64, 73
2,27869, Control_c, 0, 64, 74
2,27899, Control_c, 0, 64, 74
2,27945, Control_c, 0, 64, 75
2,27960, Control_c, 0, 64, 75
2,27970, Note_on_c, 0, 64, 59
2,27975, Control_c, 0, 64, 76
2,27991, Control_c, 0, 64, 77
2,28006, Control_c, 0, 64, 78
2,28020, Control_c, 0, 64, 79
2,28036, Control_c, 0, 64, 80
2,28051, Control_c, 0, 64, 81
2,28066, Control_c, 0, 64, 82
2,28077, Note_on_c, 0, 66, 0
2,28081, Control_c, 0, 64, 83
2,28096, Control_c, 0, 64, 84
2,28112, Control_c, 0, 64, 85
2,28127, Control_c, 0, 64, 87
2,28141, Control_c, 0, 64, 88
2,28157, Control_c, 0, 64, 89
2,28172, Control_c, 0, 64, 89
2,28188, Control_c, 0, 64, 90
2,28203, Control_c, 0, 64, 90
2,28279, Control_c, 0, 64, 90
2,28325, Control_c, 0, 64, 89
2,28401, Control_c, 0, 64, 88
2,28416, Control_c, 0, 64, 88
2,28432, Control_c, 0, 64, 86
2,28454, Control_c, 0, 64, 83
2,28470, Control_c, 0, 64, 78
2,28470, Note_on_c, 0, 73, 84
2,28484, Note_on_c, 0, 66, 62
2,28485, Control_c, 0, 64, 70
2,28489, Note_on_c, 0, 63, 63
2,28493, Note_on_c, 0, 45, 51
2,28500, Control_c, 0, 64, 59
2,28515, Control_c, 0, 64, 0
2,28529, Note_on_c, 0, 68, 0
2,28561, Note_on_c, 0, 64, 0
2,28726, Control_c, 0, 64, 39
2,28741, Control_c, 0, 64, 56
2,28757, Control_c, 0, 64, 62
2,28772, Control_c, 0, 64, 65
2,28787, Control_c, 0, 64, 68
2,28802, Control_c, 0, 64, 71
2,28817, Control_c, 0, 64, 73
2,28833, Control_c, 0, 64, 76
2,28848, Control_c, 0, 64, 78
2,28863, Control_c, 0, 64, 79
2,28878, Control_c, 0, 64, 79
2,28909, Control_c, 0, 64, 80
2,28964, Note_on_c, 0, 61, 63
2,28985, Control_c, 0, 64, 80
2,29015, Control_c, 0, 64, 81
2,29031, Control_c, 0, 64, 82
2,29046, Control_c, 0, 64, 83
2,29060, Control_c, 0, 64, 83
2,29076, Control_c, 0, 64, 84
2,29076, Note_on_c, 0, 63, 0
2,29091, Control_c, 0, 64, 85
2,29107, Control_c, 0, 64, 86
2,29121, Control_c, 0, 64, 86
2,29136, Control_c, 0, 64, 87
2,29152, Control_c, 0, 64, 87
2,29167, Control_c, 0, 64, 88
2,29183, Control_c, 0, 64, 89
2,29212, Control_c, 0, 64, 89
2,29230, Note_on_c, 0, 73, 0
2,29344, Control_c, 0, 64, 89
2,29419, Control_c, 0, 64, 87
2,29435, Control_c, 0, 64, 84
2,29437, Note_on_c, 0, 72, 79
2,29450, Control_c, 0, 64, 78
2,29459, Note_on_c, 0, 63, 69
2,29466, Control_c, 0, 64, 68
2,29471, Note_on_c, 0, 61, 0
2,29480, Control_c, 0, 64, 53
2,29495, Control_c, 0, 64, 0
2,29617, Control_c, 0, 64, 42
2,29632, Control_c, 0, 64, 59
2,29647, Control_c, 0, 64, 66
2,29663, Control_c, 0, 64, 73
2,29678, Control_c, 0, 64, 82
2,29693, Control_c, 0, 64, 91
2,29708, Control_c, 0, 64, 101
2,29723, Control_c, 0, 64, 110
2,29753, Control_c, 0, 64, 108
2,29764, Note_on_c, 0, 66, 0
2,29768, Control_c, 0, 64, 107
2,29784, Control_c, 0, 64, 107
2,29844, Control_c, 0, 64, 106
2,29859, Control_c, 0, 64, 106
2,29906, Control_c, 0, 64, 105
2,29921, Control_c, 0, 64, 105
2,29936, Control_c, 0, 64, 104
2,29939, Note_on_c, 0, 44, 64
2,29951, Control_c, 0, 64, 104
2,30026, Note_on_c, 0, 45, 0
2,30034, Note_on_c, 0, 63, 0
2,30217, Control_c, 0, 64, 103
2,30248, Control_c, 0, 64, 103
2,30264, Control_c, 0, 64, 102
2,30278, Control_c, 0, 64, 101
2,30293, Control_c, 0, 64, 101
2,30309, Control_c, 0, 64, 100
2,30324, Control_c, 0, 64, 100
2,30339, Control_c, 0, 64, 98
2,30355, Control_c, 0, 64, 96
2,30370, Control_c, 0, 64, 94
2,30386, Control_c, 0, 64, 89
2,30400, Control_c, 0, 64, 80
2,30415, Control_c, 0, 64, 70
2,30416, Note_on_c, 0, 76, 79
2,30419, Note_on_c, 0, 73, 71
2,30431, Control_c, 0, 64, 58
2,30431, Note_on_c, 0, 68, 62
2,30446, Control_c, 0, 64, 0
2,30446, Note_on_c, 0, 42, 52
2,30509, Note_on_c, 0, 44, 0
2,30523, Note_on_c, 0, 72, 0
2,30612, Control_c, 0, 64, 33
2,30628, Control_c, 0, 64, 43
2,30643, Control_c, 0, 64, 49
2,30658, Control_c, 0, 64, 54
2,30673, Control_c, 0, 64, 57
2,30688, Control_c, 0, 64, 59
2,30704, Control_c, 0, 64, 61
2,30719, Control_c, 0, 64, 62
2,30734, Control_c, 0, 64, 63
2,30757, Control_c, 0, 64, 63
2,30772, Control_c, 0, 64, 64
2,30788, Control_c, 0, 64, 64
2,30803, Control_c, 0, 64, 65
2,30817, Control_c, 0, 64, 65
2,30833, Control_c, 0, 64, 66
2,30848, Control_c, 0, 64, 67
2,30904, Note_on_c, 0, 40, 59
2,30938, Note_on_c, 0, 42, 0
2,30956, Control_c, 0, 64, 66
2,30985, Note_on_c, 0, 49, 0
2,31016, Control_c, 0, 64, 66
2,31046, Control_c, 0, 64, 65
2,31199, Control_c, 0, 64, 65
2,31259, Control_c, 0, 64, 64
2,31320, Control_c, 0, 64, 64
2,31351, Control_c, 0, 64, 63
2,31380, Control_c, 0, 64, 63
2,31396, Control_c, 0, 64, 62
2,31411, Control_c, 0, 64, 61
2,31412, Note_on_c, 0, 75, 66
2,31423, Note_on_c, 0, 42, 52
2,31427, Control_c, 0, 64, 58
2,31441, Control_c, 0, 64, 51
2,31456, Control_c, 0, 64, 31
2,31470, Note_on_c, 0, 40, 0
2,31472, Control_c, 0, 64, 0
2,31565, Note_on_c, 0, 76, 0
2,31785, Control_c, 0, 64, 39
2,31800, Control_c, 0, 64, 52
2,31814, Control_c, 0, 64, 57
2,31830, Control_c, 0, 64, 60
2,31845, Control_c, 0, 64, 62
2,31860, Control_c, 0, 64, 63
2,31876, Control_c, 0, 64, 64
2,31890, Control_c, 0, 64, 65
2,31906, Control_c, 0, 64, 66
2,31921, Control_c, 0, 64, 67
2,31921, Note_on_c, 0, 69, 48
2,31936, Control_c, 0, 64, 68
2,31952, Control_c, 0, 64, 69
2,31966, Control_c, 0, 64, 70
2,31969, Note_on_c, 0, 68, 0
2,31972, Note_on_c, 0, 73, 0
2,31981, Control_c, 0, 64, 70
2,32012, Control_c, 0, 64, 71
2,32073, Control_c, 0, 64, 71
2,32271, Control_c, 0, 64, 71
2,32324, Control_c, 0, 64, 70
2,32354, Control_c, 0, 64, 70
2,32369, Control_c, 0, 64, 69
2,32385, Control_c, 0, 64, 69
2,32399, Control_c, 0, 64, 68
2,32412, Note_on_c, 0, 44, 44
2,32414, Control_c, 0, 64, 67
2,32418, Note_on_c, 0, 71, 46
2,32429, Control_c, 0, 64, 65
2,32444, Control_c, 0, 64, 61
2,32446, Note_on_c, 0, 68, 35
2,32459, Control_c, 0, 64, 50
2,32475, Control_c, 0, 64, 21
2,32490, Control_c, 0, 64, 0
2,32521, Note_on_c, 0, 42, 0
2,32602, Note_on_c, 0, 69, 0
2,32764, Control_c, 0, 64, 42
2,32779, Control_c, 0, 64, 55
2,32795, Control_c, 0, 64, 61
2,32810, Control_c, 0, 64, 64
2,32826, Control_c, 0, 64, 65
2,32840, Control_c, 0, 64, 67
2,32855, Control_c, 0, 64, 68
2,32871, Control_c, 0, 64, 69
2,32886, Control_c, 0, 64, 70
2,32901, Control_c, 0, 64, 71
2,32901, Note_on_c, 0, 66, 46
2,32917, Control_c, 0, 64, 73
2,32931, Control_c, 0, 64, 74
2,32947, Control_c, 0, 64, 75
2,32962, Control_c, 0, 64, 75
2,32976, Control_c, 0, 64, 76
2,32992, Control_c, 0, 64, 76
2,33007, Control_c, 0, 64, 77
2,33022, Control_c, 0, 64, 77
2,33033, Note_on_c, 0, 68, 0
2,33038, Control_c, 0, 64, 78
2,33052, Note_on_c, 0, 75, 0
2,33107, Control_c, 0, 64, 78
2,33320, Control_c, 0, 64, 78
2,33351, Control_c, 0, 64, 77
2,33366, Control_c, 0, 64, 76
2,33381, Control_c, 0, 64, 73
2,33385, Note_on_c, 0, 73, 54
2,33386, Note_on_c, 0, 65, 45
2,33394, Note_on_c, 0, 45, 41
2,33397, Control_c, 0, 64, 67
2,33412, Control_c, 0, 64, 56
2,33427, Control_c, 0, 64, 0
2,33490, Note_on_c, 0, 44, 0
2,33498, Note_on_c, 0, 66, 0
2,33534, Note_on_c, 0, 71, 0
2,33578, Control_c, 0, 64, 33
2,33594, Control_c, 0, 64, 51
2,33609, Control_c, 0, 64, 59
2,33624, Control_c, 0, 64, 63
2,33639, Control_c, 0, 64, 65
2,33654, Control_c, 0, 64, 68
2,33670, Control_c, 0, 64, 70
2,33685, Control_c, 0, 64, 72
2,33699, Control_c, 0, 64, 74
2,33715, Control_c, 0, 64, 76
2,33730, Control_c, 0, 64, 77
2,33761, Control_c, 0, 64, 78
2,33806, Control_c, 0, 64, 78
2,33829, Control_c, 0, 64, 79
2,33859, Control_c, 0, 64, 78
2,33875, Control_c, 0, 64, 75
2,33888, Note_on_c, 0, 61, 49
2,33890, Control_c, 0, 64, 69
2,33899, Note_on_c, 0, 44, 40
2,33905, Control_c, 0, 64, 60
2,33920, Control_c, 0, 64, 26
2,33935, Control_c, 0, 64, 0
2,33977, Note_on_c, 0, 65, 0
2,33981, Control_c, 0, 64, 31
2,33981, Note_on_c, 0, 45, 0
2,33996, Control_c, 0, 64, 47
2,34011, Control_c, 0, 64, 57
2,34027, Control_c, 0, 64, 63
2,34042, Control_c, 0, 64, 67
2,34057, Control_c, 0, 64, 72
2,34073, Control_c, 0, 64, 81
2,34088, Control_c, 0, 64, 90
2,34098, Note_on_c, 0, 61, 0
2,34104, Control_c, 0, 64, 100
2,34118, Control_c, 0, 64, 110
2,34133, Control_c, 0, 64, 111
2,34149, Control_c, 0, 64, 109
2,34164, Control_c, 0, 64, 108
2,34179, Control_c, 0, 64, 109
2,34195, Control_c, 0, 64, 110
2,34241, Control_c, 0, 64, 109
2,34347, Control_c, 0, 64, 110
2,34362, Control_c, 0, 64, 109
2,34377, Control_c, 0, 64, 107
2,34393, Control_c, 0, 64, 98
2,34408, Control_c, 0, 64, 87
2,34422, Control_c, 0, 64, 74
2,34424, Note_on_c, 0, 69, 46
2,34428, Note_on_c, 0, 45, 46
2,34434, Note_on_c, 0, 66, 54
2,34438, Control_c, 0, 64, 61
2,34453, Control_c, 0, 64, 25
2,34468, Control_c, 0, 64, 0
2,34494, Note_on_c, 0, 44, 0
2,34498, Control_c, 0, 64, 33
2,34514, Control_c, 0, 64, 46
2,34529, Control_c, 0, 64, 54
2,34544, Control_c, 0, 64, 59
2,34559, Control_c, 0, 64, 63
2,34574, Control_c, 0, 64, 67
2,34598, Control_c, 0, 64, 72
2,34613, Control_c, 0, 64, 79
2,34628, Control_c, 0, 64, 86
2,34643, Control_c, 0, 64, 92
2,34658, Control_c, 0, 64, 97
2,34673, Control_c, 0, 64, 100
2,34719, Control_c, 0, 64, 99
2,34749, Control_c, 0, 64, 100
2,34779, Control_c, 0, 64, 99
2,34795, Control_c, 0, 64, 99
2,34871, Control_c, 0, 64, 98
2,34886, Control_c, 0, 64, 94
2,34901, Control_c, 0, 64, 86
2,34916, Control_c, 0, 64, 73
2,34931, Control_c, 0, 64, 60
2,34941, Note_on_c, 0, 75, 65
2,34947, Control_c, 0, 64, 0
2,34959, Note_on_c, 0, 47, 50
2,34966, Note_on_c, 0, 45, 0
2,35024, Control_c, 0, 64, 14
2,35039, Control_c, 0, 64, 46
2,35054, Control_c, 0, 64, 58
2,35070, Control_c, 0, 64, 64
2,35084, Control_c, 0, 64, 69
2,35097, Note_on_c, 0, 69, 0
2,35099, Control_c, 0, 64, 76
2,35115, Control_c, 0, 64, 84
2,35130, Control_c, 0, 64, 95
2,35146, Control_c, 0, 64, 105
2,35161, Control_c, 0, 64, 110
2,35176, Control_c, 0, 64, 110
2,35189, Note_on_c, 0, 66, 0
2,35191, Control_c, 0, 64, 108
2,35206, Control_c, 0, 64, 108
2,35221, Control_c, 0, 64, 109
2,35236, Control_c, 0, 64, 110
2,35251, Control_c, 0, 64, 110
2,35267, Control_c, 0, 64, 110
2,35282, Control_c, 0, 64, 109
2,35297, Control_c, 0, 64, 109
2,35366, Control_c, 0, 64, 108
2,35381, Control_c, 0, 64, 108
2,35396, Control_c, 0, 64, 107
2,35411, Control_c, 0, 64, 105
2,35427, Control_c, 0, 64, 101
2,35441, Control_c, 0, 64, 92
2,35456, Control_c, 0, 64, 78
2,35461, Note_on_c, 0, 76, 62
2,35464, Note_on_c, 0, 68, 48
2,35472, Control_c, 0, 64, 64
2,35483, Note_on_c, 0, 64, 48
2,35487, Control_c, 0, 64, 18
2,35497, Note_on_c, 0, 49, 40
2,35502, Control_c, 0, 64, 0
2,35532, Note_on_c, 0, 75, 0
2,35536, Note_on_c, 0, 47, 0
2,35536, Note_on_c, 0, 73, 0
2,35593, Control_c, 0, 64, 41
2,35608, Control_c, 0, 64, 55
2,35624, Control_c, 0, 64, 62
2,35639, Control_c, 0, 64, 67
2,35653, Control_c, 0, 64, 72
2,35669, Control_c, 0, 64, 78
2,35684, Control_c, 0, 64, 84
2,35699, Control_c, 0, 64, 91
2,35715, Control_c, 0, 64, 96
2,35729, Control_c, 0, 64, 99
2,35837, Control_c, 0, 64, 99
2,35897, Control_c, 0, 64, 98
2,35913, Control_c, 0, 64, 93
2,35928, Control_c, 0, 64, 84
2,35944, Control_c, 0, 64, 71
2,35959, Control_c, 0, 64, 57
2,35965, Note_on_c, 0, 75, 62
2,35974, Control_c, 0, 64, 0
2,35981, Note_on_c, 0, 47, 49
2,36035, Control_c, 0, 64, 29
2,36050, Control_c, 0, 64, 45
2,36066, Control_c, 0, 64, 56
2,36077, Note_on_c, 0, 49, 0
2,36080, Control_c, 0, 64, 62
2,36089, Note_on_c, 0, 68, 0
2,36095, Control_c, 0, 64, 66
2,36111, Control_c, 0, 64, 69
2,36133, Control_c, 0, 64, 74
2,36149, Control_c, 0, 64, 80
2,36164, Control_c, 0, 64, 85
2,36179, Control_c, 0, 64, 90
2,36194, Control_c, 0, 64, 93
2,36209, Control_c, 0, 64, 94
2,36393, Control_c, 0, 64, 93
2,36408, Control_c, 0, 64, 92
2,36424, Control_c, 0, 64, 88
2,36438, Control_c, 0, 64, 82
2,36453, Control_c, 0, 64, 72
2,36469, Control_c, 0, 64, 59
2,36473, Note_on_c, 0, 73, 59
2,36477, Note_on_c, 0, 69, 47
2,36484, Control_c, 0, 64, 0
2,36491, Note_on_c, 0, 49, 46
2,36514, Note_on_c, 0, 47, 0
2,36524, Note_on_c, 0, 76, 0
2,36542, Note_on_c, 0, 75, 0
2,36574, Control_c, 0, 64, 25
2,36591, Control_c, 0, 64, 50
2,36606, Control_c, 0, 64, 61
2,36621, Control_c, 0, 64, 65
2,36637, Control_c, 0, 64, 68
2,36652, Control_c, 0, 64, 72
2,36667, Control_c, 0, 64, 77
2,36682, Control_c, 0, 64, 81
2,36697, Control_c, 0, 64, 85
2,36713, Control_c, 0, 64, 87
2,36948, Control_c, 0, 64, 87
2,36963, Control_c, 0, 64, 86
2,36973, Note_on_c, 0, 51, 66
2,36978, Control_c, 0, 64, 86
2,37007, Control_c, 0, 64, 85
2,37080, Note_on_c, 0, 49, 0
2,37175, Control_c, 0, 64, 85
2,37296, Control_c, 0, 64, 84
2,37327, Control_c, 0, 64, 84
2,37341, Control_c, 0, 64, 83
2,37357, Control_c, 0, 64, 83
2,37372, Control_c, 0, 64, 82
2,37388, Control_c, 0, 64, 80
2,37403, Control_c, 0, 64, 79
2,37419, Control_c, 0, 64, 78
2,37434, Control_c, 0, 64, 77
2,37449, Control_c, 0, 64, 76
2,37465, Control_c, 0, 64, 74
2,37480, Control_c, 0, 64, 70
2,37495, Control_c, 0, 64, 66
2,37510, Control_c, 0, 64, 60
2,37525, Control_c, 0, 64, 51
2,37540, Control_c, 0, 64, 40
2,37542, Note_on_c, 0, 52, 63
2,37546, Note_on_c, 0, 71, 54
2,37555, Control_c, 0, 64, 33
2,37570, Control_c, 0, 64, 12
2,37586, Control_c, 0, 64, 0
2,37592, Note_on_c, 0, 69, 0
2,37601, Note_on_c, 0, 51, 0
2,37791, Control_c, 0, 64, 46
2,37806, Control_c, 0, 64, 59
2,37821, Control_c, 0, 64, 64
2,37837, Control_c, 0, 64, 68
2,37851, Control_c, 0, 64, 72
2,37867, Control_c, 0, 64, 78
2,37882, Control_c, 0, 64, 83
2,37897, Control_c, 0, 64, 88
2,37913, Control_c, 0, 64, 94
2,37928, Control_c, 0, 64, 98
2,37944, Control_c, 0, 64, 99
2,37989, Control_c, 0, 64, 100
2,38019, Control_c, 0, 64, 100
2,38105, Note_on_c, 0, 68, 71
2,38140, Control_c, 0, 64, 100
2,38293, Control_c, 0, 64, 99
2,38400, Control_c, 0, 64, 99
2,38441, Note_on_c, 0, 68, 0
2,38472, Note_on_c, 0, 71, 0
2,38474, Note_on_c, 0, 73, 0
2,38529, Control_c, 0, 64, 98
2,38590, Control_c, 0, 64, 98
2,38619, Control_c, 0, 64, 97
2,38666, Control_c, 0, 64, 97
2,38681, Control_c, 0, 64, 96
2,38695, Control_c, 0, 64, 92
2,38695, Note_on_c, 0, 73, 60
2,38701, Note_on_c, 0, 56, 75
2,38709, Note_on_c, 0, 68, 59
2,38711, Control_c, 0, 64, 85
2,38711, Note_on_c, 0, 49, 59
2,38711, Note_on_c, 0, 66, 55
2,38726, Control_c, 0, 64, 75
2,38741, Control_c, 0, 64, 62
2,38756, Control_c, 0, 64, 0
2,38766, Note_on_c, 0, 64, 0
2,38868, Note_on_c, 0, 52, 0
2,39000, Control_c, 0, 64, 50
2,39015, Control_c, 0, 64, 62
2,39030, Control_c, 0, 64, 66
2,39046, Control_c, 0, 64, 70
2,39061, Control_c, 0, 64, 74
2,39077, Control_c, 0, 64, 77
2,39092, Control_c, 0, 64, 81
2,39108, Control_c, 0, 64, 85
2,39122, Control_c, 0, 64, 88
2,39137, Control_c, 0, 64, 90
2,39153, Control_c, 0, 64, 91
2,39230, Note_on_c, 0, 64, 45
2,39236, Control_c, 0, 64, 90
2,39238, Note_on_c, 0, 73, 0
2,39267, Control_c, 0, 64, 90
2,39300, Note_on_c, 0, 66, 0
2,39328, Control_c, 0, 64, 89
2,39388, Control_c, 0, 64, 89
2,39418, Control_c, 0, 64, 88
2,39525, Control_c, 0, 64, 88
2,39555, Control_c, 0, 64, 87
2,39570, Control_c, 0, 64, 87
2,39600, Control_c, 0, 64, 86
2,39646, Control_c, 0, 64, 86
2,39692, Control_c, 0, 64, 85
2,39698, Note_on_c, 0, 55, 69
2,39699, Note_on_c, 0, 63, 56
2,39708, Control_c, 0, 64, 83
2,39710, Note_on_c, 0, 75, 52
2,39711, Note_on_c, 0, 70, 56
2,39722, Control_c, 0, 64, 80
2,39737, Control_c, 0, 64, 74
2,39753, Control_c, 0, 64, 64
2,39768, Control_c, 0, 64, 39
2,39784, Control_c, 0, 64, 0
2,39784, Note_on_c, 0, 64, 0
2,39805, Note_on_c, 0, 56, 0
2,39828, Note_on_c, 0, 68, 0
2,39973, Control_c, 0, 64, 37
2,39989, Control_c, 0, 64, 54
2,40004, Control_c, 0, 64, 62
2,40004, Note_on_c, 0, 75, 0
2,40019, Control_c, 0, 64, 65
2,40034, Control_c, 0, 64, 68
2,40049, Control_c, 0, 64, 70
2,40065, Control_c, 0, 64, 73
2,40081, Control_c, 0, 64, 75
2,40096, Control_c, 0, 64, 76
2,40111, Control_c, 0, 64, 77
2,40254, Note_on_c, 0, 47, 57
2,40309, Control_c, 0, 64, 77
2,40316, Note_on_c, 0, 49, 0
2,40339, Control_c, 0, 64, 78
2,40369, Control_c, 0, 64, 78
2,40385, Control_c, 0, 64, 79
2,40400, Control_c, 0, 64, 80
2,40415, Control_c, 0, 64, 80
2,40430, Control_c, 0, 64, 81
2,40460, Control_c, 0, 64, 81
2,40643, Control_c, 0, 64, 81
2,40658, Control_c, 0, 64, 79
2,40674, Control_c, 0, 64, 76
2,40678, Note_on_c, 0, 46, 55
2,40689, Control_c, 0, 64, 68
2,40690, Note_on_c, 0, 59, 75
2,40705, Control_c, 0, 64, 54
2,40705, Note_on_c, 0, 68, 60
2,40720, Control_c, 0, 64, 0
2,40724, Note_on_c, 0, 47, 0
2,40756, Note_on_c, 0, 55, 0
2,40798, Note_on_c, 0, 63, 0
2,40820, Note_on_c, 0, 70, 0
2,40862, Control_c, 0, 64, 36
2,40878, Control_c, 0, 64, 59
2,40893, Control_c, 0, 64, 66
2,40909, Control_c, 0, 64, 71
2,40924, Control_c, 0, 64, 76
2,40939, Control_c, 0, 64, 79
2,40954, Control_c, 0, 64, 82
2,40969, Control_c, 0, 64, 83
2,41075, Control_c, 0, 64, 83
2,41090, Control_c, 0, 64, 84
2,41121, Control_c, 0, 64, 84
2,41136, Control_c, 0, 64, 83
2,41151, Control_c, 0, 64, 79
2,41166, Control_c, 0, 64, 70
2,41181, Control_c, 0, 64, 56
2,41196, Control_c, 0, 64, 0
2,41202, Note_on_c, 0, 44, 43
2,41255, Note_on_c, 0, 46, 0
2,41304, Control_c, 0, 64, 44
2,41318, Control_c, 0, 64, 60
2,41333, Control_c, 0, 64, 65
2,41349, Control_c, 0, 64, 68
2,41364, Control_c, 0, 64, 70
2,41379, Control_c, 0, 64, 73
2,41395, Control_c, 0, 64, 75
2,41409, Control_c, 0, 64, 77
2,41425, Control_c, 0, 64, 78
2,41570, Control_c, 0, 64, 77
2,41600, Control_c, 0, 64, 77
2,41615, Control_c, 0, 64, 76
2,41631, Control_c, 0, 64, 74
2,41645, Control_c, 0, 64, 69
2,41660, Control_c, 0, 64, 63
2,41676, Control_c, 0, 64, 40
2,41691, Control_c, 0, 64, 0
2,41691, Note_on_c, 0, 58, 67
2,41696, Note_on_c, 0, 49, 54
2,41784, Note_on_c, 0, 59, 0
2,41799, Note_on_c, 0, 44, 0
2,41843, Control_c, 0, 64, 33
2,41858, Control_c, 0, 64, 57
2,41859, Note_on_c, 0, 68, 0
2,41874, Control_c, 0, 64, 65
2,41889, Control_c, 0, 64, 69
2,41905, Control_c, 0, 64, 74
2,41919, Control_c, 0, 64, 80
2,41934, Control_c, 0, 64, 84
2,41950, Control_c, 0, 64, 89
2,41965, Control_c, 0, 64, 91
2,42055, Control_c, 0, 64, 91
2,42101, Control_c, 0, 64, 90
2,42147, Control_c, 0, 64, 90
2,42162, Control_c, 0, 64, 89
2,42177, Control_c, 0, 64, 89
2,42205, Note_on_c, 0, 76, 50
2,42253, Control_c, 0, 64, 88
2,42291, Control_c, 0, 64, 88
2,42322, Control_c, 0, 64, 87
2,42368, Control_c, 0, 64, 87
2,42551, Control_c, 0, 64, 86
2,42596, Control_c, 0, 64, 86
2,42611, Control_c, 0, 64, 85
2,42627, Control_c, 0, 64, 85
2,42642, Control_c, 0, 64, 83
2,42651, Note_on_c, 0, 67, 46
2,42655, Note_on_c, 0, 75, 59
2,42657, Control_c, 0, 64, 80
2,42665, Note_on_c, 0, 51, 50
2,42673, Control_c, 0, 64, 74
2,42687, Control_c, 0, 64, 64
2,42702, Control_c, 0, 64, 39
2,42718, Control_c, 0, 64, 0
2,42741, Note_on_c, 0, 76, 0
2,42753, Note_on_c, 0, 49, 0
2,42960, Control_c, 0, 64, 26
2,42975, Control_c, 0, 64, 49
2,42991, Control_c, 0, 64, 58
2,43006, Control_c, 0, 64, 63
2,43021, Control_c, 0, 64, 64
2,43044, Control_c, 0, 64, 66
2,43059, Control_c, 0, 64, 67
2,43075, Control_c, 0, 64, 68
2,43090, Control_c, 0, 64, 70
2,43105, Control_c, 0, 64, 72
2,43120, Control_c, 0, 64, 74
2,43135, Control_c, 0, 64, 76
2,43152, Control_c, 0, 64, 78
2,43164, Note_on_c, 0, 73, 58
2,43167, Control_c, 0, 64, 80
2,43182, Control_c, 0, 64, 81
2,43197, Control_c, 0, 64, 83
2,43212, Control_c, 0, 64, 85
2,43228, Control_c, 0, 64, 87
2,43239, Note_on_c, 0, 58, 0
2,43243, Control_c, 0, 64, 88
2,43257, Control_c, 0, 64, 90
2,43270, Note_on_c, 0, 75, 0
2,43273, Control_c, 0, 64, 91
2,43288, Control_c, 0, 64, 91
2,43294, Note_on_c, 0, 67, 0
2,43304, Control_c, 0, 64, 92
2,43319, Control_c, 0, 64, 92
2,43349, Control_c, 0, 64, 93
2,43425, Control_c, 0, 64, 93
2,43517, Control_c, 0, 64, 93
2,43622, Control_c, 0, 64, 92
2,43638, Control_c, 0, 64, 89
2,43647, Note_on_c, 0, 71, 60
2,43653, Control_c, 0, 64, 84
2,43661, Note_on_c, 0, 68, 49
2,43668, Control_c, 0, 64, 75
2,43669, Note_on_c, 0, 56, 39
2,43672, Note_on_c, 0, 44, 37
2,43683, Control_c, 0, 64, 64
2,43698, Control_c, 0, 64, 33
2,43714, Control_c, 0, 64, 0
2,43727, Note_on_c, 0, 73, 0
2,43779, Note_on_c, 0, 51, 0
2,43828, Control_c, 0, 64, 20
2,43843, Control_c, 0, 64, 50
2,43858, Control_c, 0, 64, 60
2,43873, Control_c, 0, 64, 65
2,43888, Control_c, 0, 64, 68
2,43904, Control_c, 0, 64, 73
2,43919, Control_c, 0, 64, 79
2,43934, Control_c, 0, 64, 85
2,43949, Control_c, 0, 64, 93
2,43965, Control_c, 0, 64, 99
2,43980, Control_c, 0, 64, 101
2,44011, Control_c, 0, 64, 101
2,44056, Control_c, 0, 64, 101
2,44087, Control_c, 0, 64, 100
2,44101, Control_c, 0, 64, 95
2,44107, Note_on_c, 0, 56, 0
2,44117, Control_c, 0, 64, 86
2,44132, Control_c, 0, 64, 75
2,44138, Note_on_c, 0, 75, 73
2,44148, Control_c, 0, 64, 63
2,44163, Control_c, 0, 64, 48
2,44177, Control_c, 0, 64, 45
2,44184, Note_on_c, 0, 57, 44
2,44193, Control_c, 0, 64, 49
2,44208, Control_c, 0, 64, 55
2,44224, Control_c, 0, 64, 59
2,44239, Control_c, 0, 64, 62
2,44253, Control_c, 0, 64, 65
2,44269, Control_c, 0, 64, 69
2,44284, Control_c, 0, 64, 74
2,44296, Note_on_c, 0, 44, 0
2,44299, Control_c, 0, 64, 78
2,44315, Control_c, 0, 64, 83
2,44330, Control_c, 0, 64, 88
2,44346, Control_c, 0, 64, 91
2,44360, Control_c, 0, 64, 92
2,44467, Control_c, 0, 64, 92
2,44542, Control_c, 0, 64, 91
2,44611, Control_c, 0, 64, 91
2,44627, Control_c, 0, 64, 89
2,44641, Control_c, 0, 64, 86
2,44656, Control_c, 0, 64, 80
2,44672, Control_c, 0, 64, 73
2,44675, Note_on_c, 0, 80, 70
2,44687, Control_c, 0, 64, 64
2,44690, Note_on_c, 0, 59, 49
2,44700, Note_on_c, 0, 56, 40
2,44702, Control_c, 0, 64, 48
2,44717, Control_c, 0, 64, 0
2,44756, Note_on_c, 0, 68, 0
2,44788, Note_on_c, 0, 57, 0
2,44809, Control_c, 0, 64, 14
2,44825, Control_c, 0, 64, 38
2,44829, Note_on_c, 0, 71, 0
2,44840, Control_c, 0, 64, 49
2,44855, Control_c, 0, 64, 57
2,44871, Control_c, 0, 64, 62
2,44885, Control_c, 0, 64, 66
2,44898, Note_on_c, 0, 75, 0
2,44900, Control_c, 0, 64, 69
2,44916, Control_c, 0, 64, 72
2,44931, Control_c, 0, 64, 76
2,44946, Control_c, 0, 64, 79
2,44961, Control_c, 0, 64, 82
2,44976, Control_c, 0, 64, 84
2,44992, Control_c, 0, 64, 86
2,45037, Control_c, 0, 64, 86
2,45144, Control_c, 0, 64, 86
2,45158, Control_c, 0, 64, 85
2,45173, Control_c, 0, 64, 81
2,45189, Control_c, 0, 64, 74
2,45204, Control_c, 0, 64, 63
2,45219, Control_c, 0, 64, 42
2,45224, Note_on_c, 0, 54, 62
2,45235, Control_c, 0, 64, 22
2,45250, Control_c, 0, 64, 23
2,45265, Control_c, 0, 64, 32
2,45280, Control_c, 0, 64, 42
2,45295, Control_c, 0, 64, 50
2,45311, Control_c, 0, 64, 56
2,45311, Note_on_c, 0, 56, 0
2,45326, Control_c, 0, 64, 61
2,45348, Control_c, 0, 64, 64
2,45363, Control_c, 0, 64, 66
2,45378, Control_c, 0, 64, 69
2,45394, Control_c, 0, 64, 71
2,45409, Control_c, 0, 64, 74
2,45425, Control_c, 0, 64, 76
2,45440, Control_c, 0, 64, 77
2,45455, Control_c, 0, 64, 78
2,45561, Control_c, 0, 64, 77
2,45684, Control_c, 0, 64, 76
2,45699, Control_c, 0, 64, 74
2,45714, Control_c, 0, 64, 71
2,45715, Note_on_c, 0, 53, 64
2,45729, Control_c, 0, 64, 63
2,45742, Note_on_c, 0, 61, 53
2,45745, Control_c, 0, 64, 42
2,45760, Control_c, 0, 64, 0
2,45807, Note_on_c, 0, 54, 0
2,45824, Note_on_c, 0, 59, 0
2,46048, Control_c, 0, 64, 41
2,46064, Control_c, 0, 64, 54
2,46079, Control_c, 0, 64, 60
2,46094, Control_c, 0, 64, 63
2,46116, Control_c, 0, 64, 64
2,46131, Control_c, 0, 64, 65
2,46147, Control_c, 0, 64, 66
2,46162, Control_c, 0, 64, 66
2,46177, Control_c, 0, 64, 67
2,46192, Control_c, 0, 64, 68
2,46207, Control_c, 0, 64, 69
2,46216, Note_on_c, 0, 78, 68
2,46222, Control_c, 0, 64, 70
2,46238, Control_c, 0, 64, 70
2,46253, Control_c, 0, 64, 71
2,46269, Control_c, 0, 64, 71
2,46283, Control_c, 0, 64, 72
2,46298, Control_c, 0, 64, 73
2,46314, Control_c, 0, 64, 74
2,46316, Note_on_c, 0, 80, 0
2,46329, Control_c, 0, 64, 75
2,46345, Control_c, 0, 64, 76
2,46360, Control_c, 0, 64, 77
2,46375, Control_c, 0, 64, 77
2,46405, Control_c, 0, 64, 78
2,46437, Control_c, 0, 64, 78
2,46451, Control_c, 0, 64, 79
2,46513, Control_c, 0, 64, 79
2,46619, Control_c, 0, 64, 79
2,46634, Control_c, 0, 64, 78
2,46649, Control_c, 0, 64, 74
2,46665, Control_c, 0, 64, 67
2,46680, Control_c, 0, 64, 44
2,46692, Note_on_c, 0, 80, 75
2,46693, Note_on_c, 0, 57, 68
2,46695, Control_c, 0, 64, 0
2,46775, Note_on_c, 0, 53, 0
2,46831, Control_c, 0, 64, 36
2,46846, Control_c, 0, 64, 59
2,46861, Control_c, 0, 64, 66
2,46885, Control_c, 0, 64, 71
2,46900, Control_c, 0, 64, 76
2,46915, Control_c, 0, 64, 79
2,46930, Control_c, 0, 64, 82
2,46946, Control_c, 0, 64, 83
2,46960, Control_c, 0, 64, 84
2,46974, Note_on_c, 0, 61, 0
2,47022, Control_c, 0, 64, 84
2,47144, Control_c, 0, 64, 84
2,47159, Control_c, 0, 64, 81
2,47173, Control_c, 0, 64, 74
2,47189, Control_c, 0, 64, 65
2,47196, Note_on_c, 0, 61, 67
2,47204, Control_c, 0, 64, 21
2,47208, Note_on_c, 0, 81, 75
2,47219, Control_c, 0, 64, 0
2,47296, Control_c, 0, 64, 41
2,47312, Control_c, 0, 64, 55
2,47327, Control_c, 0, 64, 61
2,47342, Control_c, 0, 64, 65
2,47357, Control_c, 0, 64, 68
2,47366, Note_on_c, 0, 78, 0
2,47372, Control_c, 0, 64, 71
2,47388, Control_c, 0, 64, 75
2,47402, Control_c, 0, 64, 78
2,47417, Control_c, 0, 64, 81
2,47433, Control_c, 0, 64, 83
2,47615, Control_c, 0, 64, 83
2,47669, Control_c, 0, 64, 83
2,47684, Control_c, 0, 64, 79
2,47699, Control_c, 0, 64, 72
2,47712, Note_on_c, 0, 63, 66
2,47715, Control_c, 0, 64, 61
2,47718, Note_on_c, 0, 56, 51
2,47723, Note_on_c, 0, 83, 67
2,47729, Control_c, 0, 64, 0
2,47773, Note_on_c, 0, 80, 0
2,47784, Note_on_c, 0, 57, 0
2,47788, Note_on_c, 0, 61, 0
2,47849, Note_on_c, 0, 81, 0
2,47866, Control_c, 0, 64, 43
2,47880, Control_c, 0, 64, 55
2,47895, Control_c, 0, 64, 60
2,47911, Control_c, 0, 64, 63
2,47926, Control_c, 0, 64, 64
2,47940, Control_c, 0, 64, 64
2,47956, Control_c, 0, 64, 65
2,47987, Control_c, 0, 64, 65
2,48002, Control_c, 0, 64, 66
2,48047, Control_c, 0, 64, 66
2,48079, Control_c, 0, 64, 67
2,48094, Control_c, 0, 64, 67
2,48109, Control_c, 0, 64, 68
2,48124, Control_c, 0, 64, 69
2,48139, Control_c, 0, 64, 71
2,48155, Control_c, 0, 64, 72
2,48170, Control_c, 0, 64, 71
2,48186, Control_c, 0, 64, 67
2,48200, Control_c, 0, 64, 59
2,48215, Control_c, 0, 64, 38
2,48231, Control_c, 0, 64, 27
2,48236, Note_on_c, 0, 61, 67
2,48261, Control_c, 0, 64, 34
2,48277, Control_c, 0, 64, 44
2,48292, Control_c, 0, 64, 52
2,48308, Control_c, 0, 64, 57
2,48322, Control_c, 0, 64, 61
2,48337, Control_c, 0, 64, 64
2,48351, Note_on_c, 0, 63, 0
2,48353, Control_c, 0, 64, 67
2,48367, Control_c, 0, 64, 70
2,48382, Control_c, 0, 64, 74
2,48398, Control_c, 0, 64, 77
2,48413, Control_c, 0, 64, 79
2,48436, Control_c, 0, 64, 81
2,48467, Control_c, 0, 64, 81
2,48513, Control_c, 0, 64, 82
2,48648, Control_c, 0, 64, 82
2,48664, Control_c, 0, 64, 83
2,48679, Control_c, 0, 64, 83
2,48694, Control_c, 0, 64, 82
2,48710, Control_c, 0, 64, 77
2,48724, Control_c, 0, 64, 69
2,48739, Control_c, 0, 64, 56
2,48755, Control_c, 0, 64, 0
2,48760, Note_on_c, 0, 63, 74
2,48846, Control_c, 0, 64, 39
2,48860, Control_c, 0, 64, 53
2,48876, Note_on_c, 0, 61, 0
2,48877, Control_c, 0, 64, 61
2,48892, Control_c, 0, 64, 64
2,48908, Control_c, 0, 64, 66
2,48923, Control_c, 0, 64, 68
2,48938, Control_c, 0, 64, 72
2,48953, Control_c, 0, 64, 75
2,48968, Control_c, 0, 64, 79
2,48984, Control_c, 0, 64, 82
2,48999, Control_c, 0, 64, 82
2,49044, Control_c, 0, 64, 83
2,49166, Control_c, 0, 64, 82
2,49181, Control_c, 0, 64, 79
2,49204, Control_c, 0, 64, 72
2,49218, Control_c, 0, 64, 66
2,49234, Control_c, 0, 64, 58
2,49249, Control_c, 0, 64, 54
2,49265, Control_c, 0, 64, 55
2,49279, Note_on_c, 0, 65, 70
2,49280, Control_c, 0, 64, 58
2,49295, Control_c, 0, 64, 62
2,49311, Control_c, 0, 64, 64
2,49325, Control_c, 0, 64, 66
2,49334, Note_on_c, 0, 63, 0
2,49340, Control_c, 0, 64, 69
2,49356, Control_c, 0, 64, 73
2,49371, Control_c, 0, 64, 78
2,49377, Note_on_c, 0, 83, 0
2,49387, Control_c, 0, 64, 83
2,49402, Control_c, 0, 64, 87
2,49417, Control_c, 0, 64, 89
2,49538, Control_c, 0, 64, 89
2,49568, Control_c, 0, 64, 88
2,49584, Control_c, 0, 64, 88
2,49707, Control_c, 0, 64, 87
2,49721, Control_c, 0, 64, 87
2,49736, Control_c, 0, 64, 86
2,49752, Control_c, 0, 64, 86
2,49797, Control_c, 0, 64, 85
2,49812, Control_c, 0, 64, 83
2,49828, Control_c, 0, 64, 76
2,49835, Note_on_c, 0, 66, 73
2,49843, Control_c, 0, 64, 66
2,49852, Note_on_c, 0, 54, 61
2,49857, Control_c, 0, 64, 36
2,49873, Control_c, 0, 64, 0
2,49904, Note_on_c, 0, 65, 0
2,49906, Note_on_c, 0, 56, 0
2,49987, Control_c, 0, 64, 26
2,50002, Control_c, 0, 64, 59
2,50017, Control_c, 0, 64, 68
2,50033, Control_c, 0, 64, 77
2,50048, Control_c, 0, 64, 88
2,50064, Control_c, 0, 64, 100
2,50079, Control_c, 0, 64, 114
2,50094, Control_c, 0, 64, 115
2,50110, Control_c, 0, 64, 112
2,50125, Control_c, 0, 64, 110
2,50155, Control_c, 0, 64, 111
2,50215, Control_c, 0, 64, 110
2,50353, Control_c, 0, 64, 110
2,50368, Control_c, 0, 64, 108
2,50384, Control_c, 0, 64, 107
2,50398, Control_c, 0, 64, 106
2,50413, Control_c, 0, 64, 106
2,50431, Note_on_c, 0, 81, 72
2,50443, Note_on_c, 0, 78, 16
2,50502, Note_on_c, 0, 78, 0
2,50566, Control_c, 0, 64, 105
2,50581, Control_c, 0, 64, 105
2,50597, Control_c, 0, 64, 104
2,50817, Control_c, 0, 64, 104
2,50847, Control_c, 0, 64, 103
2,50878, Control_c, 0, 64, 103
2,51014, Control_c, 0, 64, 102
2,51029, Control_c, 0, 64, 101
2,51044, Control_c, 0, 64, 99
2,51058, Note_on_c, 0, 61, 81
2,51059, Control_c, 0, 64, 95
2,51074, Note_on_c, 0, 80, 61
2,51075, Control_c, 0, 64, 88
2,51080, Note_on_c, 0, 69, 45
2,51090, Control_c, 0, 64, 77
2,51101, Note_on_c, 0, 66, 0
2,51107, Control_c, 0, 64, 67
2,51122, Control_c, 0, 64, 47
2,51138, Control_c, 0, 64, 0
2,51335, Control_c, 0, 64, 21
2,51352, Control_c, 0, 64, 53
2,51367, Control_c, 0, 64, 63
2,51383, Control_c, 0, 64, 68
2,51398, Control_c, 0, 64, 74
2,51412, Control_c, 0, 64, 79
2,51428, Control_c, 0, 64, 84
2,51443, Control_c, 0, 64, 89
2,51459, Control_c, 0, 64, 93
2,51473, Control_c, 0, 64, 96
2,51495, Control_c, 0, 64, 97
2,51587, Control_c, 0, 64, 97
2,51623, Note_on_c, 0, 81, 0
2,51639, Note_on_c, 0, 78, 61
2,51663, Control_c, 0, 64, 96
2,51677, Control_c, 0, 64, 96
2,51694, Note_on_c, 0, 69, 0
2,51722, Note_on_c, 0, 80, 0
2,51753, Control_c, 0, 64, 95
2,52087, Control_c, 0, 64, 94
2,52103, Control_c, 0, 64, 88
2,52104, Note_on_c, 0, 60, 75
2,52104, Note_on_c, 0, 80, 68
2,52114, Note_on_c, 0, 68, 53
2,52118, Control_c, 0, 64, 77
2,52133, Control_c, 0, 64, 59
2,52149, Control_c, 0, 64, 0
2,52159, Note_on_c, 0, 78, 0
2,52192, Note_on_c, 0, 61, 0
2,52309, Control_c, 0, 64, 41
2,52324, Control_c, 0, 64, 58
2,52340, Control_c, 0, 64, 63
2,52355, Control_c, 0, 64, 67
2,52369, Control_c, 0, 64, 69
2,52385, Control_c, 0, 64, 70
2,52388, Note_on_c, 0, 78, 55
2,52400, Control_c, 0, 64, 71
2,52415, Control_c, 0, 64, 71
2,52431, Control_c, 0, 64, 72
2,52446, Control_c, 0, 64, 72
2,52462, Control_c, 0, 64, 73
2,52462, Note_on_c, 0, 80, 0
2,52491, Control_c, 0, 64, 73
2,52499, Note_on_c, 0, 78, 0
2,52635, Note_on_c, 0, 76, 57
2,52636, Note_on_c, 0, 54, 0
2,52638, Note_on_c, 0, 56, 50
2,52658, Control_c, 0, 64, 74
2,52718, Control_c, 0, 64, 74
2,52749, Control_c, 0, 64, 75
2,52764, Control_c, 0, 64, 76
2,52780, Control_c, 0, 64, 77
2,52795, Control_c, 0, 64, 78
2,52810, Control_c, 0, 64, 79
2,52826, Control_c, 0, 64, 80
2,52841, Control_c, 0, 64, 81
2,52855, Control_c, 0, 64, 82
2,52865, Note_on_c, 0, 54, 55
2,52871, Control_c, 0, 64, 83
2,52871, Note_on_c, 0, 75, 66
2,52875, Note_on_c, 0, 60, 0
2,52886, Control_c, 0, 64, 84
2,52902, Control_c, 0, 64, 84
2,52917, Control_c, 0, 64, 85
2,53122, Control_c, 0, 64, 84
2,53138, Control_c, 0, 64, 80
2,53153, Control_c, 0, 64, 72
2,53162, Note_on_c, 0, 64, 77
2,53164, Note_on_c, 0, 52, 63
2,53164, Note_on_c, 0, 73, 63
2,53167, Control_c, 0, 64, 61
2,53183, Control_c, 0, 64, 0
2,53217, Note_on_c, 0, 54, 0
2,53224, Note_on_c, 0, 76, 0
2,53235, Note_on_c, 0, 75, 0
2,53247, Note_on_c, 0, 56, 0
2,53283, Note_on_c, 0, 68, 0
2,53334, Control_c, 0, 64, 30
2,53350, Control_c, 0, 64, 48
2,53364, Control_c, 0, 64, 56
2,53380, Control_c, 0, 64, 59
2,53395, Control_c, 0, 64, 61
2,53403, Note_on_c, 0, 71, 54
2,53410, Control_c, 0, 64, 62
2,53426, Control_c, 0, 64, 62
2,53440, Control_c, 0, 64, 63
2,53455, Control_c, 0, 64, 63
2,53471, Control_c, 0, 64, 64
2,53485, Control_c, 0, 64, 64
2,53501, Control_c, 0, 64, 65
2,53531, Control_c, 0, 64, 65
2,53562, Control_c, 0, 64, 66
2,53650, Note_on_c, 0, 71, 0
2,53652, Note_on_c, 0, 69, 49
2,53661, Note_on_c, 0, 54, 52
2,53798, Control_c, 0, 64, 66
2,53813, Control_c, 0, 64, 67
2,53829, Control_c, 0, 64, 67
2,53844, Control_c, 0, 64, 68
2,53860, Control_c, 0, 64, 68
2,53869, Note_on_c, 0, 68, 56
2,53873, Note_on_c, 0, 69, 0
2,53875, Note_on_c, 0, 56, 56
2,53881, Note_on_c, 0, 64, 0
2,53889, Control_c, 0, 64, 69
2,54087, Control_c, 0, 64, 68
2,54103, Control_c, 0, 64, 68
2,54118, Control_c, 0, 64, 66
2,54132, Control_c, 0, 64, 64
2,54140, Note_on_c, 0, 54, 0
2,54141, Note_on_c, 0, 66, 58
2,54148, Control_c, 0, 64, 62
2,54149, Note_on_c, 0, 63, 62
2,54157, Note_on_c, 0, 57, 59
2,54163, Control_c, 0, 64, 59
2,54175, Note_on_c, 0, 52, 0
2,54179, Control_c, 0, 64, 57
2,54190, Note_on_c, 0, 56, 0
2,54194, Control_c, 0, 64, 55
2,54213, Note_on_c, 0, 68, 0
2,54300, Control_c, 0, 64, 56
2,54315, Control_c, 0, 64, 56
2,54345, Control_c, 0, 64, 57
2,54391, Control_c, 0, 64, 57
2,54451, Control_c, 0, 64, 58
2,54596, Control_c, 0, 64, 58
2,54649, Note_on_c, 0, 54, 47
2,54649, Note_on_c, 0, 69, 47
2,54704, Note_on_c, 0, 66, 0
2,55118, Note_on_c, 0, 54, 0
2,55118, Note_on_c, 0, 56, 52
2,55118, Note_on_c, 0, 57, 0
2,55127, Note_on_c, 0, 68, 43
2,55129, Note_on_c, 0, 71, 51
2,55160, Note_on_c, 0, 69, 0
2,55457, Control_c, 0, 64, 59
2,55486, Control_c, 0, 64, 59
2,55502, Control_c, 0, 64, 60
2,55517, Control_c, 0, 64, 60
2,55532, Control_c, 0, 64, 61
2,55547, Control_c, 0, 64, 62
2,55562, Control_c, 0, 64, 63
2,55578, Control_c, 0, 64, 64
2,55593, Control_c, 0, 64, 66
2,55608, Control_c, 0, 64, 68
2,55623, Control_c, 0, 64, 71
2,55638, Control_c, 0, 64, 76
2,55653, Control_c, 0, 64, 81
2,55664, Note_on_c, 0, 66, 51
2,55669, Control_c, 0, 64, 87
2,55684, Control_c, 0, 64, 93
2,55700, Control_c, 0, 64, 99
2,55715, Control_c, 0, 64, 102
2,55729, Control_c, 0, 64, 102
2,55753, Note_on_c, 0, 63, 0
2,55754, Note_on_c, 0, 68, 0
2,55907, Note_on_c, 0, 73, 0
2,55912, Control_c, 0, 64, 102
2,55927, Control_c, 0, 64, 101
2,55957, Control_c, 0, 64, 101
2,56003, Control_c, 0, 64, 100
2,56019, Control_c, 0, 64, 99
2,56064, Control_c, 0, 64, 99
2,56079, Control_c, 0, 64, 98
2,56094, Control_c, 0, 64, 97
2,56117, Control_c, 0, 64, 96
2,56132, Control_c, 0, 64, 95
2,56148, Control_c, 0, 64, 94
2,56162, Control_c, 0, 64, 94
2,56178, Control_c, 0, 64, 93
2,56193, Control_c, 0, 64, 92
2,56208, Control_c, 0, 64, 90
2,56224, Control_c, 0, 64, 89
2,56226, Note_on_c, 0, 65, 45
2,56228, Note_on_c, 0, 49, 46
2,56230, Note_on_c, 0, 61, 47
2,56238, Control_c, 0, 64, 87
2,56254, Control_c, 0, 64, 86
2,56258, Note_on_c, 0, 66, 0
2,56270, Control_c, 0, 64, 84
2,56285, Control_c, 0, 64, 80
2,56301, Control_c, 0, 64, 76
2,56316, Control_c, 0, 64, 71
2,56330, Control_c, 0, 64, 65
2,56346, Control_c, 0, 64, 58
2,56361, Control_c, 0, 64, 50
2,56376, Control_c, 0, 64, 48
2,56378, Note_on_c, 0, 56, 0
2,56391, Control_c, 0, 64, 47
2,56406, Control_c, 0, 64, 45
2,56422, Control_c, 0, 64, 37
2,56437, Control_c, 0, 64, 0
2,56776, Note_on_c, 0, 73, 54
2,56845, Note_on_c, 0, 71, 0
2,57294, Note_on_c, 0, 66, 47
2,57298, Note_on_c, 0, 71, 55
2,57356, Note_on_c, 0, 65, 0
2,57460, Note_on_c, 0, 73, 0
2,57494, Control_c, 0, 64, 21
2,57509, Control_c, 0, 64, 42
2,57524, Control_c, 0, 64, 50
2,57540, Control_c, 0, 64, 52
2,57555, Control_c, 0, 64, 53
2,57806, Note_on_c, 0, 69, 47
2,57809, Note_on_c, 0, 71, 0
2,58263, Control_c, 0, 64, 53
2,58316, Note_on_c, 0, 68, 54
2,58384, Control_c, 0, 64, 54
2,58414, Note_on_c, 0, 69, 0
2,58422, Control_c, 0, 64, 54
2,58452, Control_c, 0, 64, 55
2,58468, Control_c, 0, 64, 55
2,58482, Control_c, 0, 64, 56
2,58498, Control_c, 0, 64, 56
2,58513, Control_c, 0, 64, 57
2,58527, Control_c, 0, 64, 58
2,58543, Control_c, 0, 64, 60
2,58558, Control_c, 0, 64, 61
2,58573, Control_c, 0, 64, 62
2,58589, Control_c, 0, 64, 63
2,58604, Control_c, 0, 64, 64
2,58619, Control_c, 0, 64, 65
2,58634, Control_c, 0, 64, 66
2,58649, Control_c, 0, 64, 68
2,58665, Control_c, 0, 64, 69
2,58680, Control_c, 0, 64, 71
2,58694, Control_c, 0, 64, 73
2,58710, Control_c, 0, 64, 75
2,58726, Control_c, 0, 64, 77
2,58742, Control_c, 0, 64, 80
2,58757, Control_c, 0, 64, 83
2,58771, Control_c, 0, 64, 86
2,58787, Control_c, 0, 64, 89
2,58802, Control_c, 0, 64, 93
2,58818, Control_c, 0, 64, 97
2,58820, Note_on_c, 0, 64, 47
2,58833, Control_c, 0, 64, 99
2,58847, Control_c, 0, 64, 100
2,58909, Control_c, 0, 64, 101
2,59151, Control_c, 0, 64, 100
2,59220, Control_c, 0, 64, 100
2,59249, Control_c, 0, 64, 99
2,59253, Note_on_c, 0, 61, 0
2,59295, Control_c, 0, 64, 98
2,59311, Control_c, 0, 64, 95
2,59325, Control_c, 0, 64, 90
2,59338, Note_on_c, 0, 47, 51
2,59341, Control_c, 0, 64, 82
2,59347, Note_on_c, 0, 70, 56
2,59356, Control_c, 0, 64, 71
2,59371, Control_c, 0, 64, 60
2,59387, Control_c, 0, 64, 10
2,59402, Control_c, 0, 64, 0
2,59431, Note_on_c, 0, 66, 0
2,59455, Note_on_c, 0, 49, 0
2,59479, Note_on_c, 0, 68, 0
2,59507, Control_c, 0, 64, 23
2,59522, Control_c, 0, 64, 36
2,59537, Control_c, 0, 64, 44
2,59553, Control_c, 0, 64, 50
2,59567, Control_c, 0, 64, 55
2,59582, Control_c, 0, 64, 60
2,59598, Control_c, 0, 64, 62
2,59613, Control_c, 0, 64, 65
2,59629, Control_c, 0, 64, 67
2,59644, Control_c, 0, 64, 70
2,59659, Control_c, 0, 64, 73
2,59675, Control_c, 0, 64, 76
2,59689, Control_c, 0, 64, 79
2,59705, Control_c, 0, 64, 81
2,59720, Control_c, 0, 64, 83
2,59735, Control_c, 0, 64, 83
2,59765, Control_c, 0, 64, 84
2,59840, Note_on_c, 0, 71, 52
2,59901, Control_c, 0, 64, 84
2,59945, Note_on_c, 0, 70, 0
2,60305, Control_c, 0, 64, 84
2,60320, Control_c, 0, 64, 83
2,60335, Control_c, 0, 64, 82
2,60351, Control_c, 0, 64, 81
2,60365, Note_on_c, 0, 73, 60
2,60366, Control_c, 0, 64, 77
2,60374, Note_on_c, 0, 49, 47
2,60381, Control_c, 0, 64, 73
2,60383, Note_on_c, 0, 46, 44
2,60386, Note_on_c, 0, 54, 43
2,60396, Control_c, 0, 64, 66
2,60411, Control_c, 0, 64, 54
2,60427, Control_c, 0, 64, 0
2,60474, Note_on_c, 0, 47, 0
2,60510, Note_on_c, 0, 71, 0
2,60579, Control_c, 0, 64, 16
2,60595, Control_c, 0, 64, 34
2,60609, Control_c, 0, 64, 45
2,60625, Control_c, 0, 64, 52
2,60640, Control_c, 0, 64, 58
2,60654, Control_c, 0, 64, 62
2,60670, Control_c, 0, 64, 64
2,60685, Control_c, 0, 64, 67
2,60700, Control_c, 0, 64, 70
2,60723, Control_c, 0, 64, 73
2,60738, Control_c, 0, 64, 77
2,60754, Control_c, 0, 64, 80
2,60769, Control_c, 0, 64, 82
2,60785, Control_c, 0, 64, 84
2,60800, Control_c, 0, 64, 85
2,60815, Control_c, 0, 64, 85
2,60831, Control_c, 0, 64, 86
2,60846, Control_c, 0, 64, 87
2,60860, Control_c, 0, 64, 87
2,60885, Note_on_c, 0, 56, 60
2,60980, Note_on_c, 0, 73, 0
2,60988, Note_on_c, 0, 54, 0
2,61046, Note_on_c, 0, 49, 0
2,61063, Note_on_c, 0, 46, 0
2,61301, Control_c, 0, 64, 87
2,61332, Control_c, 0, 64, 86
2,61363, Control_c, 0, 64, 85
2,61377, Control_c, 0, 64, 84
2,61381, Note_on_c, 0, 63, 56
2,61386, Note_on_c, 0, 71, 60
2,61393, Control_c, 0, 64, 81
2,61402, Note_on_c, 0, 58, 50
2,61408, Control_c, 0, 64, 78
2,61408, Note_on_c, 0, 51, 56
2,61423, Control_c, 0, 64, 73
2,61423, Note_on_c, 0, 54, 46
2,61437, Control_c, 0, 64, 68
2,61452, Control_c, 0, 64, 62
2,61475, Control_c, 0, 64, 50
2,61490, Control_c, 0, 64, 37
2,61504, Control_c, 0, 64, 28
2,61519, Note_on_c, 0, 64, 0
2,61520, Control_c, 0, 64, 23
2,61535, Control_c, 0, 64, 16
2,61540, Note_on_c, 0, 56, 0
2,61550, Control_c, 0, 64, 12
2,61566, Control_c, 0, 64, 10
2,61611, Control_c, 0, 64, 12
2,61626, Control_c, 0, 64, 25
2,61642, Control_c, 0, 64, 34
2,61656, Control_c, 0, 64, 41
2,61672, Control_c, 0, 64, 46
2,61687, Control_c, 0, 64, 51
2,61702, Control_c, 0, 64, 54
2,61718, Control_c, 0, 64, 57
2,61733, Control_c, 0, 64, 59
2,61748, Control_c, 0, 64, 61
2,61764, Control_c, 0, 64, 63
2,61779, Control_c, 0, 64, 64
2,61794, Control_c, 0, 64, 65
2,61809, Control_c, 0, 64, 66
2,61824, Control_c, 0, 64, 66
2,61839, Control_c, 0, 64, 67
2,61854, Control_c, 0, 64, 68
2,61869, Control_c, 0, 64, 68
2,61885, Control_c, 0, 64, 69
2,61900, Control_c, 0, 64, 70
2,61915, Control_c, 0, 64, 70
2,61919, Note_on_c, 0, 59, 57
2,61930, Control_c, 0, 64, 71
2,61945, Control_c, 0, 64, 72
2,61961, Control_c, 0, 64, 72
2,61968, Note_on_c, 0, 54, 0
2,61974, Note_on_c, 0, 58, 0
2,61976, Control_c, 0, 64, 73
2,61993, Control_c, 0, 64, 73
2,62007, Control_c, 0, 64, 74
2,62022, Control_c, 0, 64, 74
2,62053, Control_c, 0, 64, 75
2,62137, Note_on_c, 0, 63, 0
2,62334, Control_c, 0, 64, 74
2,62363, Control_c, 0, 64, 74
2,62378, Control_c, 0, 64, 73
2,62394, Control_c, 0, 64, 73
2,62409, Control_c, 0, 64, 72
2,62424, Control_c, 0, 64, 70
2,62440, Control_c, 0, 64, 68
2,62443, Note_on_c, 0, 64, 52
2,62451, Note_on_c, 0, 61, 40
2,62454, Control_c, 0, 64, 67
2,62455, Note_on_c, 0, 49, 44
2,62466, Note_on_c, 0, 52, 41
2,62469, Control_c, 0, 64, 65
2,62485, Control_c, 0, 64, 63
2,62500, Control_c, 0, 64, 61
2,62516, Control_c, 0, 64, 60
2,62531, Control_c, 0, 64, 58
2,62541, Note_on_c, 0, 51, 0
2,62545, Control_c, 0, 64, 56
2,62561, Control_c, 0, 64, 55
2,62576, Control_c, 0, 64, 54
2,62592, Control_c, 0, 64, 53
2,62682, Control_c, 0, 64, 53
2,62773, Control_c, 0, 64, 52
2,62851, Control_c, 0, 64, 52
2,62865, Control_c, 0, 64, 51
2,62881, Control_c, 0, 64, 51
2,62896, Control_c, 0, 64, 50
2,62910, Control_c, 0, 64, 48
2,62926, Control_c, 0, 64, 47
2,62941, Control_c, 0, 64, 46
2,62957, Control_c, 0, 64, 45
2,62977, Note_on_c, 0, 51, 52
2,63010, Control_c, 0, 64, 45
2,63043, Note_on_c, 0, 52, 0
2,63101, Control_c, 0, 64, 44
2,63516, Note_on_c, 0, 70, 57
2,63537, Note_on_c, 0, 52, 44
2,63632, Note_on_c, 0, 71, 0
2,63654, Note_on_c, 0, 51, 0
2,63854, Control_c, 0, 64, 45
2,64107, Note_on_c, 0, 54, 45
2,64128, Control_c, 0, 64, 45
2,64176, Note_on_c, 0, 59, 0
2,64188, Control_c, 0, 64, 46
2,64249, Control_c, 0, 64, 46
2,64295, Control_c, 0, 64, 47
2,64371, Control_c, 0, 64, 47
2,64627, Note_on_c, 0, 71, 49
2,64632, Note_on_c, 0, 47, 40
2,64638, Note_on_c, 0, 56, 32
2,64718, Note_on_c, 0, 54, 0
2,64725, Note_on_c, 0, 52, 0
2,64737, Note_on_c, 0, 49, 0
2,64738, Note_on_c, 0, 61, 0
2,64778, Note_on_c, 0, 70, 0
2,65063, Control_c, 0, 64, 48
2,65129, Note_on_c, 0, 63, 48
2,65161, Note_on_c, 0, 54, 38
2,65164, Note_on_c, 0, 64, 0
2,65213, Note_on_c, 0, 56, 0
2,65375, Control_c, 0, 64, 48
2,65573, Control_c, 0, 64, 49
2,65673, Note_on_c, 0, 64, 64
2,65682, Note_on_c, 0, 56, 47
2,65725, Control_c, 0, 64, 49
2,65752, Note_on_c, 0, 63, 0
2,65771, Note_on_c, 0, 54, 0
2,65878, Control_c, 0, 64, 50
2,65923, Control_c, 0, 64, 50
2,65938, Control_c, 0, 64, 51
2,65954, Control_c, 0, 64, 52
2,65969, Control_c, 0, 64, 52
2,65983, Control_c, 0, 64, 53
2,65999, Control_c, 0, 64, 54
2,66014, Control_c, 0, 64, 55
2,66030, Control_c, 0, 64, 55
2,66059, Control_c, 0, 64, 56
2,66098, Control_c, 0, 64, 56
2,66145, Control_c, 0, 64, 57
2,66190, Control_c, 0, 64, 58
2,66190, Note_on_c, 0, 66, 55
2,66202, Note_on_c, 0, 57, 37
2,66205, Control_c, 0, 64, 58
2,66220, Control_c, 0, 64, 59
2,66236, Control_c, 0, 64, 61
2,66251, Control_c, 0, 64, 62
2,66267, Control_c, 0, 64, 64
2,66272, Note_on_c, 0, 56, 0
2,66282, Control_c, 0, 64, 66
2,66296, Control_c, 0, 64, 69
2,66312, Control_c, 0, 64, 75
2,66327, Control_c, 0, 64, 82
2,66342, Control_c, 0, 64, 90
2,66358, Control_c, 0, 64, 98
2,66372, Control_c, 0, 64, 105
2,66388, Control_c, 0, 64, 106
2,66418, Note_on_c, 0, 68, 61
2,66456, Note_on_c, 0, 57, 0
2,66467, Note_on_c, 0, 66, 0
2,66539, Control_c, 0, 64, 105
2,66569, Control_c, 0, 64, 105
2,66585, Control_c, 0, 64, 104
2,66600, Control_c, 0, 64, 103
2,66615, Control_c, 0, 64, 102
2,66630, Control_c, 0, 64, 101
2,66645, Control_c, 0, 64, 99
2,66660, Control_c, 0, 64, 96
2,66676, Control_c, 0, 64, 91
2,66691, Control_c, 0, 64, 84
2,66691, Note_on_c, 0, 66, 63
2,66696, Note_on_c, 0, 63, 58
2,66707, Control_c, 0, 64, 75
2,66722, Control_c, 0, 64, 63
2,66722, Note_on_c, 0, 59, 40
2,66737, Control_c, 0, 64, 38
2,66751, Note_on_c, 0, 64, 0
2,66752, Control_c, 0, 64, 0
2,66801, Note_on_c, 0, 68, 0
2,66866, Control_c, 0, 64, 40
2,66881, Control_c, 0, 64, 54
2,66896, Control_c, 0, 64, 61
2,66913, Control_c, 0, 64, 66
2,66927, Control_c, 0, 64, 71
2,66942, Control_c, 0, 64, 78
2,66958, Control_c, 0, 64, 85
2,66966, Note_on_c, 0, 66, 0
2,66973, Control_c, 0, 64, 92
2,66989, Control_c, 0, 64, 98
2,67003, Control_c, 0, 64, 101
2,67034, Control_c, 0, 64, 100
2,67125, Control_c, 0, 64, 99
2,67140, Control_c, 0, 64, 99
2,67191, Note_on_c, 0, 56, 53
2,67194, Note_on_c, 0, 73, 74
2,67196, Note_on_c, 0, 47, 0
2,67201, Control_c, 0, 64, 98
2,67232, Control_c, 0, 64, 98
2,67236, Note_on_c, 0, 71, 0
2,67292, Control_c, 0, 64, 97
2,67323, Control_c, 0, 64, 97
2,67459, Control_c, 0, 64, 96
2,67474, Control_c, 0, 64, 96
2,67489, Control_c, 0, 64, 95
2,67505, Control_c, 0, 64, 95
2,67520, Control_c, 0, 64, 94
2,67535, Control_c, 0, 64, 94
2,67551, Control_c, 0, 64, 93
2,67566, Control_c, 0, 64, 93
2,67580, Control_c, 0, 64, 92
2,67596, Control_c, 0, 64, 91
2,67611, Control_c, 0, 64, 90
2,67634, Control_c, 0, 64, 87
2,67649, Control_c, 0, 64, 82
2,67665, Control_c, 0, 64, 73
2,67673, Note_on_c, 0, 75, 77
2,67679, Control_c, 0, 64, 60
2,67686, Note_on_c, 0, 54, 48
2,67692, Note_on_c, 0, 71, 60
2,67694, Control_c, 0, 64, 28
2,67694, Note_on_c, 0, 68, 56
2,67710, Control_c, 0, 64, 0
2,67763, Note_on_c, 0, 56, 0
2,67768, Note_on_c, 0, 63, 0
2,67788, Control_c, 0, 64, 29
2,67803, Control_c, 0, 64, 43
2,67818, Control_c, 0, 64, 51
2,67833, Control_c, 0, 64, 58
2,67848, Control_c, 0, 64, 63
2,67863, Control_c, 0, 64, 66
2,67879, Control_c, 0, 64, 71
2,67894, Control_c, 0, 64, 76
2,67909, Control_c, 0, 64, 81
2,67921, Note_on_c, 0, 73, 0
2,67924, Control_c, 0, 64, 86
2,67939, Control_c, 0, 64, 90
2,67955, Control_c, 0, 64, 92
2,67970, Control_c, 0, 64, 93
2,68140, Control_c, 0, 64, 92
2,68155, Control_c, 0, 64, 87
2,68170, Control_c, 0, 64, 78
2,68180, Note_on_c, 0, 52, 59
2,68184, Note_on_c, 0, 76, 66
2,68185, Control_c, 0, 64, 68
2,68190, Note_on_c, 0, 75, 0
2,68200, Control_c, 0, 64, 50
2,68215, Control_c, 0, 64, 22
2,68231, Control_c, 0, 64, 21
2,68245, Control_c, 0, 64, 25
2,68253, Note_on_c, 0, 54, 0
2,68261, Control_c, 0, 64, 38
2,68276, Control_c, 0, 64, 48
2,68291, Control_c, 0, 64, 54
2,68307, Control_c, 0, 64, 60
2,68321, Control_c, 0, 64, 63
2,68336, Control_c, 0, 64, 66
2,68351, Note_on_c, 0, 59, 0
2,68352, Control_c, 0, 64, 69
2,68367, Control_c, 0, 64, 72
2,68383, Control_c, 0, 64, 76
2,68405, Control_c, 0, 64, 79
2,68421, Control_c, 0, 64, 82
2,68436, Control_c, 0, 64, 84
2,68558, Control_c, 0, 64, 83
2,68589, Control_c, 0, 64, 83
2,68620, Control_c, 0, 64, 82
2,68649, Control_c, 0, 64, 81
2,68665, Control_c, 0, 64, 80
2,68679, Control_c, 0, 64, 78
2,68694, Control_c, 0, 64, 76
2,68710, Control_c, 0, 64, 72
2,68725, Control_c, 0, 64, 66
2,68726, Note_on_c, 0, 66, 63
2,68735, Note_on_c, 0, 59, 58
2,68741, Control_c, 0, 64, 60
2,68755, Control_c, 0, 64, 45
2,68770, Control_c, 0, 64, 25
2,68786, Control_c, 0, 64, 0
2,68799, Note_on_c, 0, 52, 0
2,68830, Note_on_c, 0, 71, 0
2,68834, Note_on_c, 0, 68, 0
2,68953, Control_c, 0, 64, 32
2,68968, Control_c, 0, 64, 47
2,68984, Control_c, 0, 64, 56
2,68998, Control_c, 0, 64, 61
2,69013, Control_c, 0, 64, 64
2,69029, Control_c, 0, 64, 66
2,69044, Control_c, 0, 64, 69
2,69060, Control_c, 0, 64, 72
2,69074, Control_c, 0, 64, 75
2,69089, Control_c, 0, 64, 78
2,69105, Control_c, 0, 64, 81
2,69120, Control_c, 0, 64, 83
2,69135, Control_c, 0, 64, 83
2,69158, Control_c, 0, 64, 84
2,69188, Control_c, 0, 64, 84
2,69219, Control_c, 0, 64, 85
2,69259, Note_on_c, 0, 73, 50
2,69293, Control_c, 0, 64, 85
2,69321, Note_on_c, 0, 76, 0
2,69553, Control_c, 0, 64, 85
2,69568, Control_c, 0, 64, 84
2,69659, Control_c, 0, 64, 84
2,69674, Control_c, 0, 64, 83
2,69689, Control_c, 0, 64, 83
2,69705, Control_c, 0, 64, 82
2,69720, Control_c, 0, 64, 81
2,69720, Note_on_c, 0, 75, 53
2,69735, Control_c, 0, 64, 79
2,69735, Note_on_c, 0, 47, 42
2,69745, Note_on_c, 0, 71, 47
2,69751, Control_c, 0, 64, 75
2,69766, Control_c, 0, 64, 69
2,69782, Control_c, 0, 64, 60
2,69796, Control_c, 0, 64, 32
2,69811, Control_c, 0, 64, 0
2,69871, Note_on_c, 0, 73, 0
2,70032, Control_c, 0, 64, 38
2,70047, Control_c, 0, 64, 51
2,70062, Control_c, 0, 64, 57
2,70077, Control_c, 0, 64, 61
2,70092, Control_c, 0, 64, 63
2,70108, Control_c, 0, 64, 64
2,70123, Control_c, 0, 64, 66
2,70138, Control_c, 0, 64, 67
2,70153, Control_c, 0, 64, 68
2,70168, Control_c, 0, 64, 70
2,70185, Control_c, 0, 64, 72
2,70200, Control_c, 0, 64, 73
2,70215, Control_c, 0, 64, 75
2,70231, Control_c, 0, 64, 76
2,70245, Control_c, 0, 64, 77
2,70261, Control_c, 0, 64, 78
2,70267, Note_on_c, 0, 71, 0
2,70276, Control_c, 0, 64, 79
2,70290, Control_c, 0, 64, 79
2,70293, Note_on_c, 0, 69, 43
2,70306, Control_c, 0, 64, 80
2,70321, Control_c, 0, 64, 81
2,70336, Control_c, 0, 64, 82
2,70352, Control_c, 0, 64, 82
2,70366, Control_c, 0, 64, 83
2,70382, Control_c, 0, 64, 83
2,70397, Control_c, 0, 64, 84
2,70412, Control_c, 0, 64, 84
2,70420, Note_on_c, 0, 69, 0
2,70486, Note_on_c, 0, 66, 0
2,70487, Control_c, 0, 64, 85
2,70518, Control_c, 0, 64, 85
2,70784, Control_c, 0, 64, 85
2,70831, Control_c, 0, 64, 84
2,70845, Control_c, 0, 64, 82
2,70861, Control_c, 0, 64, 79
2,70864, Note_on_c, 0, 52, 41
2,70864, Note_on_c, 0, 76, 40
2,70870, Note_on_c, 0, 68, 42
2,70876, Control_c, 0, 64, 73
2,70891, Control_c, 0, 64, 66
2,70898, Note_on_c, 0, 64, 31
2,70907, Control_c, 0, 64, 54
2,70922, Control_c, 0, 64, 0
2,70952, Note_on_c, 0, 47, 0
2,70990, Note_on_c, 0, 75, 0
2,71090, Control_c, 0, 64, 34
2,71105, Control_c, 0, 64, 50
2,71120, Control_c, 0, 64, 57
2,71135, Control_c, 0, 64, 62
2,71151, Control_c, 0, 64, 65
2,71166, Control_c, 0, 64, 67
2,71182, Control_c, 0, 64, 69
2,71197, Control_c, 0, 64, 72
2,71211, Control_c, 0, 64, 75
2,71227, Control_c, 0, 64, 78
2,71242, Control_c, 0, 64, 81
2,71258, Control_c, 0, 64, 82
2,71273, Control_c, 0, 64, 83
2,71303, Control_c, 0, 64, 84
2,71332, Control_c, 0, 64, 84
2,71399, Note_on_c, 0, 75, 47
2,71474, Note_on_c, 0, 76, 0
2,71828, Control_c, 0, 64, 84
2,71888, Control_c, 0, 64, 83
2,71896, Note_on_c, 0, 64, 0
2,71904, Control_c, 0, 64, 82
2,71912, Note_on_c, 0, 57, 47
2,71917, Note_on_c, 0, 61, 52
2,71919, Control_c, 0, 64, 79
2,71933, Control_c, 0, 64, 73
2,71934, Note_on_c, 0, 76, 42
2,71949, Control_c, 0, 64, 66
2,71964, Control_c, 0, 64, 53
2,71967, Note_on_c, 0, 68, 0
2,71980, Control_c, 0, 64, 0
2,72002, Note_on_c, 0, 75, 0
2,72011, Note_on_c, 0, 52, 0
2,72064, Note_on_c, 0, 59, 0
2,72102, Control_c, 0, 64, 19
2,72117, Control_c, 0, 64, 36
2,72131, Control_c, 0, 64, 45
2,72147, Control_c, 0, 64, 51
2,72162, Control_c, 0, 64, 55
2,72176, Control_c, 0, 64, 58
2,72192, Control_c, 0, 64, 62
2,72207, Control_c, 0, 64, 63
2,72223, Control_c, 0, 64, 65
2,72245, Control_c, 0, 64, 67
2,72261, Control_c, 0, 64, 68
2,72276, Control_c, 0, 64, 70
2,72291, Control_c, 0, 64, 72
2,72307, Control_c, 0, 64, 73
2,72321, Control_c, 0, 64, 74
2,72336, Control_c, 0, 64, 75
2,72352, Control_c, 0, 64, 75
2,72367, Control_c, 0, 64, 76
2,72383, Control_c, 0, 64, 76
2,72397, Control_c, 0, 64, 77
2,72412, Control_c, 0, 64, 77
2,72428, Control_c, 0, 64, 78
2,72481, Note_on_c, 0, 78, 43
2,72504, Control_c, 0, 64, 78
2,72518, Control_c, 0, 64, 79
2,72541, Note_on_c, 0, 76, 0
2,72549, Control_c, 0, 64, 79
2,72580, Control_c, 0, 64, 80
2,72609, Control_c, 0, 64, 80
2,72625, Control_c, 0, 64, 81
2,72641, Control_c, 0, 64, 81
2,72717, Control_c, 0, 64, 82
2,72930, Control_c, 0, 64, 81
2,72960, Control_c, 0, 64, 80
2,72970, Note_on_c, 0, 56, 35
2,72974, Note_on_c, 0, 60, 52
2,72975, Control_c, 0, 64, 79
2,72991, Control_c, 0, 64, 76
2,73000, Note_on_c, 0, 80, 57
2,73013, Control_c, 0, 64, 72
2,73028, Control_c, 0, 64, 64
2,73043, Control_c, 0, 64, 51
2,73055, Note_on_c, 0, 78, 0
2,73059, Control_c, 0, 64, 30
2,73074, Control_c, 0, 64, 21
2,73087, Note_on_c, 0, 57, 0
2,73089, Control_c, 0, 64, 15
2,73105, Control_c, 0, 64, 10
2,73121, Note_on_c, 0, 61, 0
2,73150, Control_c, 0, 64, 12
2,73164, Control_c, 0, 64, 26
2,73180, Control_c, 0, 64, 36
2,73195, Control_c, 0, 64, 43
2,73210, Control_c, 0, 64, 48
2,73226, Control_c, 0, 64, 51
2,73240, Control_c, 0, 64, 55
2,73255, Control_c, 0, 64, 57
2,73266, Note_on_c, 0, 78, 57
2,73271, Control_c, 0, 64, 59
2,73286, Control_c, 0, 64, 61
2,73302, Control_c, 0, 64, 63
2,73310, Note_on_c, 0, 80, 0
2,73316, Control_c, 0, 64, 64
2,73331, Control_c, 0, 64, 65
2,73347, Control_c, 0, 64, 66
2,73361, Control_c, 0, 64, 67
2,73376, Control_c, 0, 64, 68
2,73392, Control_c, 0, 64, 69
2,73407, Control_c, 0, 64, 70
2,73423, Control_c, 0, 64, 71
2,73438, Control_c, 0, 64, 71
2,73453, Control_c, 0, 64, 72
2,73514, Note_on_c, 0, 80, 61
2,73739, Note_on_c, 0, 81, 56
2,73826, Note_on_c, 0, 80, 0
2,73994, Control_c, 0, 64, 71
2,74000, Note_on_c, 0, 61, 48
2,74003, Note_on_c, 0, 80, 53
2,74009, Control_c, 0, 64, 69
2,74016, Note_on_c, 0, 64, 52
2,74025, Control_c, 0, 64, 66
2,74040, Control_c, 0, 64, 62
2,74055, Control_c, 0, 64, 55
2,74071, Control_c, 0, 64, 47
2,74073, Note_on_c, 0, 78, 0
2,74085, Control_c, 0, 64, 40
2,74099, Note_on_c, 0, 81, 0
2,74101, Control_c, 0, 64, 38
2,74116, Control_c, 0, 64, 37
2,74130, Note_on_c, 0, 60, 0
2,74176, Control_c, 0, 64, 38
2,74192, Control_c, 0, 64, 41
2,74206, Control_c, 0, 64, 45
2,74222, Control_c, 0, 64, 48
2,74237, Control_c, 0, 64, 51
2,74252, Control_c, 0, 64, 53
2,74265, Note_on_c, 0, 56, 0
2,74268, Control_c, 0, 64, 54
2,74270, Note_on_c, 0, 78, 50
2,74284, Control_c, 0, 64, 56
2,74299, Control_c, 0, 64, 58
2,74314, Control_c, 0, 64, 59
2,74329, Control_c, 0, 64, 60
2,74345, Control_c, 0, 64, 61
2,74360, Control_c, 0, 64, 62
2,74375, Control_c, 0, 64, 63
2,74390, Control_c, 0, 64, 63
2,74405, Control_c, 0, 64, 64
2,74421, Control_c, 0, 64, 65
2,74435, Control_c, 0, 64, 65
2,74450, Control_c, 0, 64, 66
2,74466, Control_c, 0, 64, 66
2,74468, Note_on_c, 0, 80, 0
2,74481, Control_c, 0, 64, 67
2,74496, Control_c, 0, 64, 67
2,74499, Note_on_c, 0, 76, 60
2,74534, Control_c, 0, 64, 68
2,74580, Control_c, 0, 64, 68
2,74582, Note_on_c, 0, 78, 0
2,74729, Note_on_c, 0, 80, 59
2,74974, Control_c, 0, 64, 68
2,74987, Note_on_c, 0, 78, 59
2,74990, Control_c, 0, 64, 67
2,74993, Note_on_c, 0, 63, 51
2,75005, Control_c, 0, 64, 66
2,75021, Control_c, 0, 64, 64
2,75036, Control_c, 0, 64, 61
2,75050, Control_c, 0, 64, 55
2,75063, Note_on_c, 0, 80, 0
2,75065, Note_on_c, 0, 76, 0
2,75066, Control_c, 0, 64, 44
2,75081, Control_c, 0, 64, 22
2,75095, Note_on_c, 0, 64, 0
2,75098, Control_c, 0, 64, 0
2,75219, Control_c, 0, 64, 18
2,75234, Control_c, 0, 64, 37
2,75236, Note_on_c, 0, 76, 52
2,75249, Control_c, 0, 64, 46
2,75265, Control_c, 0, 64, 52
2,75279, Control_c, 0, 64, 56
2,75303, Control_c, 0, 64, 59
2,75311, Note_on_c, 0, 78, 0
2,75318, Control_c, 0, 64, 61
2,75333, Control_c, 0, 64, 62
2,75349, Control_c, 0, 64, 63
2,75363, Control_c, 0, 64, 64
2,75379, Control_c, 0, 64, 65
2,75394, Control_c, 0, 64, 65
2,75424, Control_c, 0, 64, 66
2,75439, Control_c, 0, 64, 66
2,75478, Note_on_c, 0, 78, 55
2,75605, Control_c, 0, 64, 67
2,75701, Note_on_c, 0, 80, 56
2,75738, Note_on_c, 0, 78, 0
2,75940, Note_on_c, 0, 60, 39
2,75942, Control_c, 0, 64, 66
2,75953, Note_on_c, 0, 78, 52
2,75957, Control_c, 0, 64, 65
2,75972, Control_c, 0, 64, 62
2,75988, Control_c, 0, 64, 57
2,76001, Note_on_c, 0, 61, 0
2,76002, Control_c, 0, 64, 47
2,76018, Control_c, 0, 64, 32
2,76021, Note_on_c, 0, 80, 0
2,76033, Control_c, 0, 64, 19
2,76045, Note_on_c, 0, 76, 0
2,76047, Control_c, 0, 64, 16
2,76085, Control_c, 0, 64, 24
2,76101, Control_c, 0, 64, 36
2,76116, Control_c, 0, 64, 44
2,76131, Control_c, 0, 64, 49
2,76147, Control_c, 0, 64, 53
2,76162, Control_c, 0, 64, 56
2,76178, Control_c, 0, 64, 60
2,76186, Note_on_c, 0, 76, 42
2,76193, Control_c, 0, 64, 63
2,76207, Control_c, 0, 64, 65
2,76223, Control_c, 0, 64, 68
2,76238, Control_c, 0, 64, 71
2,76252, Control_c, 0, 64, 74
2,76268, Control_c, 0, 64, 77
2,76283, Control_c, 0, 64, 80
2,76299, Control_c, 0, 64, 82
2,76314, Control_c, 0, 64, 83
2,76328, Control_c, 0, 64, 84
2,76374, Control_c, 0, 64, 84
2,76404, Control_c, 0, 64, 85
2,76410, Note_on_c, 0, 75, 54
2,76465, Control_c, 0, 64, 85
2,76465, Note_on_c, 0, 78, 0
2,76472, Note_on_c, 0, 76, 0
2,76633, Control_c, 0, 64, 86
2,76650, Note_on_c, 0, 78, 59
2,76832, Control_c, 0, 64, 85
2,76869, Control_c, 0, 64, 84
2,76884, Control_c, 0, 64, 82
2,76899, Control_c, 0, 64, 77
2,76899, Note_on_c, 0, 76, 59
2,76902, Note_on_c, 0, 61, 49
2,76912, Note_on_c, 0, 75, 0
2,76914, Control_c, 0, 64, 69
2,76929, Control_c, 0, 64, 61
2,76930, Note_on_c, 0, 78, 0
2,76945, Control_c, 0, 64, 40
2,76960, Control_c, 0, 64, 24
2,76975, Control_c, 0, 64, 22
2,76999, Note_on_c, 0, 63, 0
2,77006, Control_c, 0, 64, 25
2,77015, Note_on_c, 0, 60, 0
2,77021, Control_c, 0, 64, 38
2,77036, Control_c, 0, 64, 46
2,77051, Control_c, 0, 64, 52
2,77067, Control_c, 0, 64, 56
2,77082, Control_c, 0, 64, 59
2,77096, Control_c, 0, 64, 62
2,77112, Control_c, 0, 64, 64
2,77127, Control_c, 0, 64, 67
2,77130, Note_on_c, 0, 75, 61
2,77143, Control_c, 0, 64, 71
2,77156, Note_on_c, 0, 76, 0
2,77158, Control_c, 0, 64, 76
2,77172, Control_c, 0, 64, 81
2,77188, Control_c, 0, 64, 86
2,77203, Control_c, 0, 64, 89
2,77219, Control_c, 0, 64, 91
2,77233, Control_c, 0, 64, 92
2,77294, Control_c, 0, 64, 93
2,77355, Note_on_c, 0, 76, 63
2,77385, Control_c, 0, 64, 92
2,77412, Note_on_c, 0, 75, 0
2,77446, Control_c, 0, 64, 92
2,77586, Note_on_c, 0, 78, 63
2,77627, Note_on_c, 0, 76, 0
2,77637, Control_c, 0, 64, 91
2,77667, Control_c, 0, 64, 91
2,77758, Control_c, 0, 64, 90
2,77789, Control_c, 0, 64, 90
2,77819, Control_c, 0, 64, 89
2,77834, Control_c, 0, 64, 87
2,77842, Note_on_c, 0, 68, 72
2,77849, Control_c, 0, 64, 85
2,77862, Note_on_c, 0, 76, 56
2,77864, Control_c, 0, 64, 81
2,77879, Control_c, 0, 64, 77
2,77894, Control_c, 0, 64, 70
2,77910, Control_c, 0, 64, 63
2,77925, Control_c, 0, 64, 48
2,77940, Control_c, 0, 64, 25
2,77955, Control_c, 0, 64, 8
2,77970, Control_c, 0, 64, 0
2,78015, Control_c, 0, 64, 15
2,78024, Note_on_c, 0, 78, 0
2,78031, Control_c, 0, 64, 35
2,78046, Control_c, 0, 64, 44
2,78062, Control_c, 0, 64, 51
2,78072, Note_on_c, 0, 75, 62
2,78076, Control_c, 0, 64, 55
2,78091, Control_c, 0, 64, 59
2,78107, Control_c, 0, 64, 63
2,78122, Control_c, 0, 64, 65
2,78138, Control_c, 0, 64, 68
2,78139, Note_on_c, 0, 76, 0
2,78152, Control_c, 0, 64, 72
2,78167, Control_c, 0, 64, 76
2,78183, Control_c, 0, 64, 80
2,78198, Control_c, 0, 64, 85
2,78213, Control_c, 0, 64, 89
2,78229, Control_c, 0, 64, 92
2,78244, Control_c, 0, 64, 94
2,78260, Control_c, 0, 64, 94
2,78295, Note_on_c, 0, 73, 59
2,78349, Note_on_c, 0, 75, 0
2,78495, Control_c, 0, 64, 94
2,78531, Note_on_c, 0, 76, 61
2,78618, Control_c, 0, 64, 93
2,78723, Control_c, 0, 64, 93
2,78739, Control_c, 0, 64, 92
2,78754, Control_c, 0, 64, 89
2,78769, Control_c, 0, 64, 83
2,78784, Control_c, 0, 64, 75
2,78792, Note_on_c, 0, 67, 66
2,78799, Control_c, 0, 64, 65
2,78804, Note_on_c, 0, 75, 56
2,78814, Control_c, 0, 64, 53
2,78816, Note_on_c, 0, 73, 0
2,78830, Control_c, 0, 64, 42
2,78860, Control_c, 0, 64, 44
2,78875, Control_c, 0, 64, 50
2,78882, Note_on_c, 0, 68, 0
2,78890, Control_c, 0, 64, 55
2,78906, Control_c, 0, 64, 59
2,78920, Control_c, 0, 64, 62
2,78935, Control_c, 0, 64, 64
2,78951, Control_c, 0, 64, 67
2,78966, Control_c, 0, 64, 70
2,78982, Control_c, 0, 64, 75
2,78996, Control_c, 0, 64, 80
2,79011, Control_c, 0, 64, 85
2,79025, Note_on_c, 0, 73, 51
2,79027, Control_c, 0, 64, 89
2,79042, Control_c, 0, 64, 91
2,79046, Note_on_c, 0, 75, 0
2,79058, Control_c, 0, 64, 91
2,79120, Note_on_c, 0, 76, 0
2,79233, Control_c, 0, 64, 92
2,79264, Control_c, 0, 64, 91
2,79279, Control_c, 0, 64, 89
2,79280, Note_on_c, 0, 75, 58
2,79292, Note_on_c, 0, 59, 47
2,79293, Control_c, 0, 64, 83
2,79309, Control_c, 0, 64, 75
2,79324, Control_c, 0, 64, 66
2,79340, Control_c, 0, 64, 56
2,79354, Control_c, 0, 64, 51
2,79369, Control_c, 0, 64, 52
2,79382, Note_on_c, 0, 61, 0
2,79385, Control_c, 0, 64, 56
2,79400, Control_c, 0, 64, 59
2,79415, Control_c, 0, 64, 63
2,79430, Control_c, 0, 64, 65
2,79445, Control_c, 0, 64, 67
2,79458, Note_on_c, 0, 75, 0
2,79461, Control_c, 0, 64, 70
2,79474, Note_on_c, 0, 76, 53
2,79476, Control_c, 0, 64, 73
2,79491, Control_c, 0, 64, 76
2,79507, Control_c, 0, 64, 78
2,79522, Control_c, 0, 64, 80
2,79538, Control_c, 0, 64, 82
2,79552, Control_c, 0, 64, 83
2,79567, Control_c, 0, 64, 83
2,79643, Control_c, 0, 64, 83
2,79659, Control_c, 0, 64, 82
2,79673, Control_c, 0, 64, 80
2,79688, Control_c, 0, 64, 77
2,79704, Control_c, 0, 64, 72
2,79714, Note_on_c, 0, 71, 67
2,79719, Control_c, 0, 64, 65
2,79733, Note_on_c, 0, 75, 63
2,79734, Control_c, 0, 64, 55
2,79736, Note_on_c, 0, 58, 50
2,79750, Control_c, 0, 64, 26
2,79760, Note_on_c, 0, 76, 0
2,79764, Control_c, 0, 64, 0
2,79783, Note_on_c, 0, 59, 0
2,79791, Note_on_c, 0, 67, 0
2,79791, Note_on_c, 0, 73, 0
2,79826, Control_c, 0, 64, 39
2,79840, Control_c, 0, 64, 52
2,79855, Control_c, 0, 64, 60
2,79871, Control_c, 0, 64, 64
2,79886, Control_c, 0, 64, 67
2,79902, Control_c, 0, 64, 71
2,79924, Control_c, 0, 64, 74
2,79940, Control_c, 0, 64, 76
2,79955, Control_c, 0, 64, 78
2,79965, Note_on_c, 0, 73, 49
2,79969, Control_c, 0, 64, 79
2,80080, Note_on_c, 0, 71, 0
2,80121, Control_c, 0, 64, 79
2,80152, Control_c, 0, 64, 80
2,80183, Control_c, 0, 64, 79
2,80188, Note_on_c, 0, 75, 0
2,80198, Control_c, 0, 64, 77
2,80202, Note_on_c, 0, 56, 49
2,80213, Control_c, 0, 64, 74
2,80213, Note_on_c, 0, 71, 53
2,80228, Control_c, 0, 64, 69
2,80243, Control_c, 0, 64, 63
2,80252, Note_on_c, 0, 58, 0
2,80259, Control_c, 0, 64, 50
2,80269, Note_on_c, 0, 73, 0
2,80274, Control_c, 0, 64, 21
2,80289, Control_c, 0, 64, 0
2,80350, Control_c, 0, 64, 12
2,80365, Control_c, 0, 64, 36
2,80381, Control_c, 0, 64, 50
2,80395, Control_c, 0, 64, 58
2,80410, Control_c, 0, 64, 63
2,80426, Control_c, 0, 64, 65
2,80441, Control_c, 0, 64, 68
2,80442, Note_on_c, 0, 75, 55
2,80456, Control_c, 0, 64, 70
2,80471, Control_c, 0, 64, 72
2,80486, Control_c, 0, 64, 74
2,80502, Control_c, 0, 64, 76
2,80516, Control_c, 0, 64, 77
2,80531, Control_c, 0, 64, 79
2,80547, Control_c, 0, 64, 79
2,80578, Control_c, 0, 64, 80
2,80592, Control_c, 0, 64, 80
2,80623, Control_c, 0, 64, 81
2,80653, Control_c, 0, 64, 79
2,80669, Control_c, 0, 64, 75
2,80691, Control_c, 0, 64, 66
2,80707, Control_c, 0, 64, 50
2,80712, Note_on_c, 0, 73, 58
2,80714, Note_on_c, 0, 70, 70
2,80722, Control_c, 0, 64, 0
2,80762, Note_on_c, 0, 71, 0
2,80810, Note_on_c, 0, 75, 0
2,80813, Control_c, 0, 64, 41
2,80829, Control_c, 0, 64, 56
2,80845, Control_c, 0, 64, 63
2,80861, Control_c, 0, 64, 68
2,80876, Control_c, 0, 64, 74
2,80891, Control_c, 0, 64, 82
2,80907, Control_c, 0, 64, 92
2,80921, Control_c, 0, 64, 102
2,80936, Control_c, 0, 64, 107
2,80950, Note_on_c, 0, 71, 49
2,80952, Control_c, 0, 64, 107
2,80966, Control_c, 0, 64, 106
2,80982, Control_c, 0, 64, 105
2,80998, Note_on_c, 0, 73, 0
2,81008, Note_on_c, 0, 70, 0
2,81073, Control_c, 0, 64, 106
2,81088, Control_c, 0, 64, 106
2,81104, Control_c, 0, 64, 107
2,81118, Control_c, 0, 64, 108
2,81133, Control_c, 0, 64, 107
2,81149, Control_c, 0, 64, 101
2,81160, Note_on_c, 0, 56, 0
2,81164, Control_c, 0, 64, 91
2,81180, Control_c, 0, 64, 80
2,81188, Note_on_c, 0, 73, 55
2,81194, Control_c, 0, 64, 68
2,81197, Note_on_c, 0, 55, 36
2,81209, Control_c, 0, 64, 53
2,81225, Control_c, 0, 64, 46
2,81240, Control_c, 0, 64, 47
2,81251, Note_on_c, 0, 71, 0
2,81255, Control_c, 0, 64, 53
2,81271, Control_c, 0, 64, 58
2,81285, Control_c, 0, 64, 61
2,81301, Control_c, 0, 64, 64
2,81316, Control_c, 0, 64, 66
2,81331, Control_c, 0, 64, 68
2,81347, Control_c, 0, 64, 72
2,81361, Control_c, 0, 64, 75
2,81376, Control_c, 0, 64, 77
2,81392, Control_c, 0, 64, 79
2,81407, Control_c, 0, 64, 79
2,81410, Note_on_c, 0, 75, 59
2,81445, Note_on_c, 0, 53, 35
2,81454, Note_on_c, 0, 73, 0
2,81460, Note_on_c, 0, 55, 0
2,81597, Control_c, 0, 64, 78
2,81612, Control_c, 0, 64, 75
2,81628, Control_c, 0, 64, 70
2,81643, Control_c, 0, 64, 62
2,81660, Control_c, 0, 64, 41
2,81668, Note_on_c, 0, 55, 45
2,81671, Note_on_c, 0, 73, 56
2,81674, Control_c, 0, 64, 0
2,81714, Note_on_c, 0, 75, 0
2,81715, Note_on_c, 0, 53, 0
2,81796, Control_c, 0, 64, 21
2,81810, Control_c, 0, 64, 40
2,81826, Control_c, 0, 64, 48
2,81841, Control_c, 0, 64, 53
2,81856, Control_c, 0, 64, 57
2,81872, Control_c, 0, 64, 59
2,81876, Note_on_c, 0, 71, 44
2,81886, Control_c, 0, 64, 62
2,81902, Control_c, 0, 64, 63
2,81917, Control_c, 0, 64, 65
2,81931, Control_c, 0, 64, 67
2,81931, Note_on_c, 0, 73, 0
2,81947, Control_c, 0, 64, 69
2,81962, Control_c, 0, 64, 71
2,81977, Control_c, 0, 64, 73
2,81993, Control_c, 0, 64, 74
2,82007, Control_c, 0, 64, 74
2,82023, Control_c, 0, 64, 75
2,82053, Control_c, 0, 64, 75
2,82115, Note_on_c, 0, 70, 62
2,82136, Note_on_c, 0, 71, 0
2,82347, Note_on_c, 0, 73, 62
2,82396, Control_c, 0, 64, 75
2,82564, Control_c, 0, 64, 73
2,82577, Note_on_c, 0, 71, 58
2,82579, Control_c, 0, 64, 68
2,82594, Control_c, 0, 64, 62
2,82605, Note_on_c, 0, 56, 38
2,82609, Control_c, 0, 64, 42
2,82625, Control_c, 0, 64, 0
2,82652, Note_on_c, 0, 73, 0
2,82761, Control_c, 0, 64, 19
2,82763, Note_on_c, 0, 55, 0
2,82775, Control_c, 0, 64, 42
2,82791, Control_c, 0, 64, 52
2,82803, Note_on_c, 0, 58, 55
2,82806, Control_c, 0, 64, 57
2,82822, Control_c, 0, 64, 59
2,82823, Note_on_c, 0, 56, 0
2,82837, Control_c, 0, 64, 60
2,82851, Control_c, 0, 64, 61
2,82867, Control_c, 0, 64, 61
2,82897, Control_c, 0, 64, 62
2,82958, Control_c, 0, 64, 62
2,83061, Note_on_c, 0, 63, 55
2,83066, Note_on_c, 0, 56, 45
2,83072, Control_c, 0, 64, 62
2,83087, Note_on_c, 0, 58, 0
2,83169, Note_on_c, 0, 70, 0
2,83179, Control_c, 0, 64, 61
2,83271, Note_on_c, 0, 56, 0
2,83279, Note_on_c, 0, 55, 44
2,83362, Control_c, 0, 64, 61
2,83453, Control_c, 0, 64, 60
2,83469, Control_c, 0, 64, 60
2,83484, Control_c, 0, 64, 59
2,83506, Note_on_c, 0, 68, 61
2,83509, Note_on_c, 0, 56, 46
2,83514, Control_c, 0, 64, 59
2,83529, Control_c, 0, 64, 58
2,83545, Control_c, 0, 64, 57
2,83574, Control_c, 0, 64, 57
2,83577, Note_on_c, 0, 55, 0
2,83652, Note_on_c, 0, 63, 0
2,83729, Note_on_c, 0, 57, 51
2,83729, Note_on_c, 0, 73, 65
2,83784, Note_on_c, 0, 56, 0
2,83959, Note_on_c, 0, 57, 0
2,83959, Note_on_c, 0, 75, 73
2,83961, Note_on_c, 0, 59, 57
2,83983, Note_on_c, 0, 71, 0
2,84176, Note_on_c, 0, 56, 55
2,84193, Note_on_c, 0, 71, 67
2,84205, Note_on_c, 0, 59, 0
2,84224, Note_on_c, 0, 75, 0
2,84240, Note_on_c, 0, 73, 0
2,84372, Control_c, 0, 64, 57
2,84402, Control_c, 0, 64, 58
2,84420, Note_on_c, 0, 73, 69
2,84429, Note_on_c, 0, 57, 55
2,84433, Control_c, 0, 64, 58
2,84438, Note_on_c, 0, 56, 0
2,84461, Note_on_c, 0, 71, 0
2,84464, Control_c, 0, 64, 59
2,84509, Control_c, 0, 64, 59
2,84547, Control_c, 0, 64, 60
2,84640, Note_on_c, 0, 59, 60
2,84646, Note_on_c, 0, 57, 0
2,84875, Note_on_c, 0, 57, 56
2,84884, Note_on_c, 0, 66, 59
2,84918, Note_on_c, 0, 59, 0
2,84928, Control_c, 0, 64, 60
2,85092, Note_on_c, 0, 56, 55
2,85102, Note_on_c, 0, 57, 0
2,85103, Note_on_c, 0, 64, 59
2,85132, Note_on_c, 0, 66, 0
2,85165, Note_on_c, 0, 68, 0
2,85337, Note_on_c, 0, 66, 72
2,85341, Note_on_c, 0, 64, 0
2,85344, Note_on_c, 0, 58, 59
2,85420, Note_on_c, 0, 56, 0
2,85468, Control_c, 0, 64, 61
2,85556, Note_on_c, 0, 59, 64
2,85591, Note_on_c, 0, 58, 0
2,85782, Note_on_c, 0, 61, 57
2,85789, Note_on_c, 0, 76, 76
2,85824, Note_on_c, 0, 73, 0
2,85841, Note_on_c, 0, 59, 0
2,85976, Note_on_c, 0, 58, 58
2,86021, Note_on_c, 0, 61, 0
2,86205, Control_c, 0, 64, 60
2,86240, Note_on_c, 0, 59, 58
2,86251, Note_on_c, 0, 75, 77
2,86283, Note_on_c, 0, 76, 0
2,86289, Note_on_c, 0, 58, 0
2,86388, Control_c, 0, 64, 60
2,86457, Note_on_c, 0, 61, 62
2,86465, Note_on_c, 0, 59, 0
2,86697, Note_on_c, 0, 59, 55
2,86711, Note_on_c, 0, 64, 70
2,86741, Note_on_c, 0, 66, 0
2,86746, Note_on_c, 0, 61, 0
2,86914, Note_on_c, 0, 58, 64
2,86929, Note_on_c, 0, 66, 75
2,86948, Note_on_c, 0, 59, 0
2,86950, Note_on_c, 0, 64, 0
2,87125, Control_c, 0, 64, 59
2,87156, Control_c, 0, 64, 59
2,87168, Note_on_c, 0, 68, 74
2,87171, Note_on_c, 0, 60, 63
2,87187, Control_c, 0, 64, 58
2,87193, Note_on_c, 0, 66, 0
2,87201, Control_c, 0, 64, 57
2,87216, Control_c, 0, 64, 57
2,87232, Control_c, 0, 64, 56
2,87247, Control_c, 0, 64, 55
2,87262, Control_c, 0, 64, 54
2,87277, Control_c, 0, 64, 53
2,87292, Control_c, 0, 64, 52
2,87308, Control_c, 0, 64, 50
2,87323, Control_c, 0, 64, 50
2,87337, Control_c, 0, 64, 49
2,87386, Note_on_c, 0, 61, 66
2,87419, Note_on_c, 0, 60, 0
2,87445, Control_c, 0, 64, 49
2,87552, Control_c, 0, 64, 48
2,87582, Control_c, 0, 64, 47
2,87605, Control_c, 0, 64, 46
2,87621, Control_c, 0, 64, 42
2,87627, Note_on_c, 0, 78, 79
2,87628, Note_on_c, 0, 63, 64
2,87636, Control_c, 0, 64, 36
2,87650, Control_c, 0, 64, 27
2,87666, Control_c, 0, 64, 16
2,87681, Control_c, 0, 64, 0
2,87695, Note_on_c, 0, 75, 0
2,87773, Note_on_c, 0, 61, 0
2,87838, Note_on_c, 0, 60, 66
2,87854, Note_on_c, 0, 63, 0
2,87885, Note_on_c, 0, 58, 0
2,88124, Note_on_c, 0, 76, 77
2,88127, Note_on_c, 0, 61, 53
2,88165, Note_on_c, 0, 60, 0
2,88237, Note_on_c, 0, 78, 0
2,88607, Note_on_c, 0, 49, 40
2,88837, Note_on_c, 0, 51, 56
2,88849, Note_on_c, 0, 49, 0
2,89109, Note_on_c, 0, 51, 0
2,89117, Note_on_c, 0, 73, 71
2,89129, Note_on_c, 0, 52, 50
2,89589, Note_on_c, 0, 54, 50
2,89629, Note_on_c, 0, 52, 0
2,89689, Control_c, 0, 64, 48
2,89705, Control_c, 0, 64, 60
2,89720, Control_c, 0, 64, 65
2,89736, Control_c, 0, 64, 67
2,89751, Control_c, 0, 64, 70
2,89766, Control_c, 0, 64, 73
2,89782, Control_c, 0, 64, 75
2,89791, Note_on_c, 0, 61, 0
2,89796, Control_c, 0, 64, 76
2,89812, Control_c, 0, 64, 77
2,89896, Control_c, 0, 64, 76
2,89926, Control_c, 0, 64, 75
2,89942, Control_c, 0, 64, 75
2,89956, Control_c, 0, 64, 74
2,90002, Control_c, 0, 64, 74
2,90017, Control_c, 0, 64, 73
2,90032, Control_c, 0, 64, 70
2,90047, Control_c, 0, 64, 65
2,90057, Note_on_c, 0, 72, 68
2,90063, Control_c, 0, 64, 56
2,90069, Note_on_c, 0, 56, 50
2,90078, Control_c, 0, 64, 34
2,90094, Control_c, 0, 64, 0
2,90101, Note_on_c, 0, 54, 0
2,90144, Note_on_c, 0, 73, 0
2,90290, Control_c, 0, 64, 34
2,90299, Note_on_c, 0, 54, 51
2,90305, Control_c, 0, 64, 50
2,90315, Note_on_c, 0, 56, 0
2,90320, Control_c, 0, 64, 57
2,90336, Control_c, 0, 64, 60
2,90351, Control_c, 0, 64, 62
2,90365, Control_c, 0, 64, 63
2,90503, Control_c, 0, 64, 62
2,90526, Note_on_c, 0, 56, 49
2,90534, Control_c, 0, 64, 62
2,90536, Note_on_c, 0, 75, 63
2,90563, Control_c, 0, 64, 61
2,90594, Control_c, 0, 64, 61
2,90596, Note_on_c, 0, 54, 0
2,90626, Note_on_c, 0, 76, 0
2,90678, Control_c, 0, 64, 60
2,90709, Control_c, 0, 64, 60
2,90737, Note_on_c, 0, 56, 0
2,90739, Control_c, 0, 64, 59
2,90739, Note_on_c, 0, 57, 52
2,90875, Control_c, 0, 64, 59
2,90906, Control_c, 0, 64, 58
2,90966, Control_c, 0, 64, 58
2,90989, Note_on_c, 0, 76, 75
2,90996, Control_c, 0, 64, 57
2,91001, Note_on_c, 0, 56, 53
2,91012, Control_c, 0, 64, 57
2,91089, Note_on_c, 0, 57, 0
2,91132, Note_on_c, 0, 75, 0
2,91163, Control_c, 0, 64, 57
2,91179, Control_c, 0, 64, 58
2,91194, Control_c, 0, 64, 58
2,91200, Note_on_c, 0, 54, 53
2,91209, Control_c, 0, 64, 59
2,91225, Control_c, 0, 64, 59
2,91240, Control_c, 0, 64, 60
2,91256, Control_c, 0, 64, 60
2,91271, Control_c, 0, 64, 61
2,91271, Note_on_c, 0, 56, 0
2,91433, Note_on_c, 0, 73, 67
2,91455, Note_on_c, 0, 52, 56
2,91457, Note_on_c, 0, 54, 0
2,91492, Control_c, 0, 64, 60
2,91656, Note_on_c, 0, 56, 50
2,91674, Control_c, 0, 64, 61
2,91720, Control_c, 0, 64, 61
2,91885, Note_on_c, 0, 52, 0
2,91898, Note_on_c, 0, 54, 52
2,91900, Note_on_c, 0, 75, 76
2,91915, Note_on_c, 0, 73, 0
2,91946, Note_on_c, 0, 76, 0
2,92114, Note_on_c, 0, 56, 0
2,92114, Note_on_c, 0, 72, 0
2,92116, Note_on_c, 0, 52, 59
2,92145, Control_c, 0, 64, 62
2,92145, Note_on_c, 0, 54, 0
2,92341, Note_on_c, 0, 54, 53
2,92341, Note_on_c, 0, 68, 0
2,92347, Note_on_c, 0, 72, 62
2,92427, Control_c, 0, 64, 61
2,92546, Note_on_c, 0, 56, 56
2,92555, Note_on_c, 0, 54, 0
2,92570, Note_on_c, 0, 70, 62
2,92595, Note_on_c, 0, 72, 0
2,92609, Control_c, 0, 64, 61
2,92685, Control_c, 0, 64, 60
2,92790, Note_on_c, 0, 72, 73
2,92794, Note_on_c, 0, 54, 62
2,92798, Note_on_c, 0, 70, 0
2,92800, Note_on_c, 0, 52, 0
2,92942, Note_on_c, 0, 75, 0
2,92987, Note_on_c, 0, 56, 0
2,93005, Note_on_c, 0, 52, 64
2,93027, Control_c, 0, 64, 60
2,93073, Control_c, 0, 64, 59
2,93088, Control_c, 0, 64, 59
2,93118, Control_c, 0, 64, 58
2,93150, Control_c, 0, 64, 58
2,93238, Note_on_c, 0, 75, 78
2,93240, Note_on_c, 0, 51, 60
2,93247, Note_on_c, 0, 54, 0
2,93303, Note_on_c, 0, 52, 0
2,93364, Note_on_c, 0, 72, 0
2,93455, Note_on_c, 0, 54, 62
2,93545, Control_c, 0, 64, 58
2,93666, Control_c, 0, 64, 59
2,93716, Note_on_c, 0, 80, 76
2,93717, Note_on_c, 0, 52, 63
2,93821, Note_on_c, 0, 51, 0
2,93841, Control_c, 0, 64, 59
2,93902, Control_c, 0, 64, 60
2,93918, Note_on_c, 0, 54, 0
2,93929, Note_on_c, 0, 51, 66
2,93949, Control_c, 0, 64, 60
2,93952, Note_on_c, 0, 78, 74
2,93976, Note_on_c, 0, 52, 0
2,93982, Note_on_c, 0, 80, 0
2,94070, Control_c, 0, 64, 60
2,94085, Control_c, 0, 64, 59
2,94100, Control_c, 0, 64, 59
2,94130, Control_c, 0, 64, 58
2,94146, Control_c, 0, 64, 57
2,94159, Note_on_c, 0, 80, 75
2,94161, Control_c, 0, 64, 57
2,94168, Note_on_c, 0, 52, 59
2,94176, Control_c, 0, 64, 56
2,94221, Control_c, 0, 64, 55
2,94270, Note_on_c, 0, 78, 0
2,94377, Note_on_c, 0, 54, 67
2,94377, Note_on_c, 0, 81, 80
2,94385, Note_on_c, 0, 80, 0
2,94423, Note_on_c, 0, 52, 0
2,94449, Control_c, 0, 64, 56
2,94469, Note_on_c, 0, 51, 0
2,94496, Control_c, 0, 64, 56
2,94533, Control_c, 0, 64, 57
2,94594, Control_c, 0, 64, 57
2,94613, Note_on_c, 0, 80, 78
2,94615, Note_on_c, 0, 73, 73
2,94622, Note_on_c, 0, 52, 68
2,94650, Note_on_c, 0, 75, 0
2,94670, Control_c, 0, 64, 56
2,94671, Note_on_c, 0, 54, 0
2,94685, Control_c, 0, 64, 54
2,94701, Control_c, 0, 64, 51
2,94715, Control_c, 0, 64, 47
2,94730, Control_c, 0, 64, 41
2,94746, Control_c, 0, 64, 27
2,94762, Control_c, 0, 64, 0
2,94830, Note_on_c, 0, 57, 61
2,94838, Note_on_c, 0, 78, 76
2,94866, Note_on_c, 0, 81, 0
2,95055, Note_on_c, 0, 57, 0
2,95058, Note_on_c, 0, 56, 57
2,95068, Note_on_c, 0, 76, 69
2,95093, Note_on_c, 0, 80, 0
2,95140, Note_on_c, 0, 78, 0
2,95260, Note_on_c, 0, 57, 62
2,95280, Note_on_c, 0, 80, 79
2,95326, Note_on_c, 0, 52, 0
2,95474, Note_on_c, 0, 56, 0
2,95496, Note_on_c, 0, 51, 64
2,95499, Note_on_c, 0, 78, 75
2,95546, Note_on_c, 0, 76, 0
2,95723, Note_on_c, 0, 49, 56
2,95725, Note_on_c, 0, 76, 70
2,95783, Note_on_c, 0, 51, 0
2,95788, Control_c, 0, 64, 19
2,95803, Control_c, 0, 64, 33
2,95804, Note_on_c, 0, 78, 0
2,95819, Control_c, 0, 64, 44
2,95834, Control_c, 0, 64, 50
2,95836, Note_on_c, 0, 80, 0
2,95849, Control_c, 0, 64, 54
2,95864, Control_c, 0, 64, 56
2,95879, Control_c, 0, 64, 57
2,95895, Control_c, 0, 64, 58
2,95909, Control_c, 0, 64, 58
2,95924, Control_c, 0, 64, 59
2,95929, Note_on_c, 0, 51, 65
2,95935, Note_on_c, 0, 78, 74
2,95955, Control_c, 0, 64, 59
2,95970, Control_c, 0, 64, 60
2,96000, Control_c, 0, 64, 60
2,96031, Control_c, 0, 64, 61
2,96055, Control_c, 0, 64, 61
2,96069, Control_c, 0, 64, 62
2,96084, Control_c, 0, 64, 63
2,96100, Control_c, 0, 64, 64
2,96126, Note_on_c, 0, 49, 0
2,96129, Control_c, 0, 64, 64
2,96151, Note_on_c, 0, 80, 77
2,96152, Note_on_c, 0, 52, 63
2,96180, Note_on_c, 0, 51, 0
2,96205, Control_c, 0, 64, 65
2,96228, Note_on_c, 0, 78, 0
2,96281, Note_on_c, 0, 73, 0
2,96282, Note_on_c, 0, 76, 0
2,96312, Control_c, 0, 64, 65
2,96343, Control_c, 0, 64, 64
2,96358, Control_c, 0, 64, 61
2,96370, Note_on_c, 0, 51, 70
2,96374, Control_c, 0, 64, 54
2,96379, Note_on_c, 0, 78, 72
2,96386, Note_on_c, 0, 72, 67
2,96389, Control_c, 0, 64, 31
2,96404, Control_c, 0, 64, 0
2,96444, Note_on_c, 0, 52, 0
2,96572, Control_c, 0, 64, 8
2,96587, Control_c, 0, 64, 47
2,96599, Note_on_c, 0, 56, 65
2,96602, Control_c, 0, 64, 59
2,96603, Note_on_c, 0, 76, 78
2,96618, Control_c, 0, 64, 64
2,96632, Control_c, 0, 64, 67
2,96643, Note_on_c, 0, 72, 0
2,96647, Control_c, 0, 64, 70
2,96663, Control_c, 0, 64, 74
2,96677, Control_c, 0, 64, 77
2,96693, Control_c, 0, 64, 79
2,96708, Control_c, 0, 64, 81
2,96712, Note_on_c, 0, 80, 0
2,96715, Note_on_c, 0, 57, 0
2,96723, Control_c, 0, 64, 82
2,96739, Control_c, 0, 64, 83
2,96753, Control_c, 0, 64, 84
2,96768, Control_c, 0, 64, 84
2,96780, Note_on_c, 0, 78, 0
2,96784, Control_c, 0, 64, 85
2,96823, Control_c, 0, 64, 81
2,96830, Note_on_c, 0, 71, 74
2,96831, Note_on_c, 0, 54, 69
2,96837, Control_c, 0, 64, 74
2,96840, Note_on_c, 0, 75, 80
2,96853, Control_c, 0, 64, 64
2,96854, Note_on_c, 0, 56, 0
2,96868, Control_c, 0, 64, 33
2,96868, Note_on_c, 0, 76, 0
2,96883, Control_c, 0, 64, 0
2,96944, Control_c, 0, 64, 28
2,96959, Control_c, 0, 64, 45
2,96974, Control_c, 0, 64, 56
2,96989, Control_c, 0, 64, 62
2,97004, Control_c, 0, 64, 66
2,97020, Control_c, 0, 64, 70
2,97035, Control_c, 0, 64, 75
2,97049, Control_c, 0, 64, 81
2,97050, Note_on_c, 0, 78, 84
2,97065, Control_c, 0, 64, 87
2,97065, Note_on_c, 0, 56, 63
2,97080, Control_c, 0, 64, 91
2,97095, Control_c, 0, 64, 94
2,97110, Control_c, 0, 64, 95
2,97125, Control_c, 0, 64, 94
2,97141, Control_c, 0, 64, 94
2,97162, Note_on_c, 0, 54, 0
2,97218, Control_c, 0, 64, 93
2,97248, Control_c, 0, 64, 93
2,97264, Control_c, 0, 64, 89
2,97278, Control_c, 0, 64, 81
2,97281, Note_on_c, 0, 75, 0
2,97294, Control_c, 0, 64, 71
2,97309, Control_c, 0, 64, 58
2,97309, Note_on_c, 0, 77, 80
2,97314, Note_on_c, 0, 49, 77
2,97324, Control_c, 0, 64, 0
2,97352, Note_on_c, 0, 51, 0
2,97361, Note_on_c, 0, 71, 0
2,97373, Note_on_c, 0, 78, 0
2,97450, Note_on_c, 0, 56, 0
2,97462, Control_c, 0, 64, 48
2,97476, Control_c, 0, 64, 62
2,97492, Control_c, 0, 64, 69
2,97507, Control_c, 0, 64, 77
2,97521, Control_c, 0, 64, 86
2,97537, Control_c, 0, 64, 97
2,97541, Note_on_c, 0, 71, 66
2,97552, Control_c, 0, 64, 110
2,97575, Control_c, 0, 64, 114
2,97590, Control_c, 0, 64, 113
2,97605, Control_c, 0, 64, 112
2,97652, Control_c, 0, 64, 114
2,97667, Control_c, 0, 64, 115
2,97681, Control_c, 0, 64, 116
2,97712, Control_c, 0, 64, 113
2,97726, Control_c, 0, 64, 101
2,97742, Control_c, 0, 64, 87
2,97757, Control_c, 0, 64, 72
2,97773, Control_c, 0, 64, 55
2,97778, Note_on_c, 0, 61, 83
2,97781, Note_on_c, 0, 73, 68
2,97788, Control_c, 0, 64, 0
2,97844, Note_on_c, 0, 49, 0
2,97848, Control_c, 0, 64, 46
2,97863, Control_c, 0, 64, 59
2,97878, Control_c, 0, 64, 66
2,97894, Control_c, 0, 64, 74
2,97909, Control_c, 0, 64, 88
2,97924, Control_c, 0, 64, 105
2,97939, Control_c, 0, 64, 127
2,97988, Note_on_c, 0, 77, 0
2,97993, Note_on_c, 0, 74, 71
2,98027, Note_on_c, 0, 73, 0
2,98198, Control_c, 0, 64, 121
2,98214, Control_c, 0, 64, 101
2,98229, Control_c, 0, 64, 82
2,98235, Note_on_c, 0, 66, 86
2,98244, Control_c, 0, 64, 66
2,98250, Note_on_c, 0, 81, 67
2,98260, Control_c, 0, 64, 20
2,98269, Note_on_c, 0, 71, 0
2,98269, Note_on_c, 0, 73, 57
2,98271, Note_on_c, 0, 74, 0
2,98275, Control_c, 0, 64, 0
2,98336, Control_c, 0, 64, 48
2,98358, Control_c, 0, 64, 63
2,98373, Control_c, 0, 64, 71
2,98376, Note_on_c, 0, 61, 0
2,98388, Control_c, 0, 64, 82
2,98403, Control_c, 0, 64, 100
2,98419, Control_c, 0, 64, 127
2,98489, Note_on_c, 0, 73, 0
2,98492, Note_on_c, 0, 71, 65
2,98513, Note_on_c, 0, 81, 0
2,98605, Note_on_c, 0, 66, 0
2,98694, Control_c, 0, 64, 111
2,98704, Note_on_c, 0, 66, 86
2,98708, Control_c, 0, 64, 95
2,98723, Control_c, 0, 64, 83
2,98724, Note_on_c, 0, 69, 72
2,98739, Control_c, 0, 64, 74
2,98754, Control_c, 0, 64, 67
2,98769, Control_c, 0, 64, 66
2,98784, Control_c, 0, 64, 68
2,98799, Control_c, 0, 64, 70
2,98815, Control_c, 0, 64, 75
2,98830, Control_c, 0, 64, 80
2,98845, Control_c, 0, 64, 87
2,98847, Note_on_c, 0, 71, 0
2,98862, Control_c, 0, 64, 98
2,98877, Control_c, 0, 64, 108
2,98892, Control_c, 0, 64, 112
2,98907, Control_c, 0, 64, 112
2,98922, Control_c, 0, 64, 111
2,98929, Note_on_c, 0, 73, 68
2,98953, Control_c, 0, 64, 112
2,98967, Control_c, 0, 64, 115
2,98977, Note_on_c, 0, 69, 0
2,98983, Control_c, 0, 64, 117
2,98992, Note_on_c, 0, 66, 0
2,98998, Control_c, 0, 64, 117
2,99028, Control_c, 0, 64, 118
2,99043, Control_c, 0, 64, 124
2,99059, Control_c, 0, 64, 127
2,99142, Control_c, 0, 64, 108
2,99148, Note_on_c, 0, 66, 84
2,99157, Control_c, 0, 64, 93
2,99160, Note_on_c, 0, 80, 69
2,99172, Note_on_c, 0, 71, 60
2,99173, Control_c, 0, 64, 75
2,99188, Control_c, 0, 64, 59
2,99203, Control_c, 0, 64, 0
2,99250, Note_on_c, 0, 73, 0
2,99263, Control_c, 0, 64, 33
2,99278, Control_c, 0, 64, 55
2,99293, Control_c, 0, 64, 64
2,99308, Control_c, 0, 64, 70
2,99323, Control_c, 0, 64, 79
2,99339, Control_c, 0, 64, 90
2,99354, Control_c, 0, 64, 104
2,99366, Note_on_c, 0, 69, 57
2,99369, Control_c, 0, 64, 119
2,99385, Control_c, 0, 64, 117
2,99400, Control_c, 0, 64, 115
2,99416, Control_c, 0, 64, 114
2,99439, Note_on_c, 0, 71, 0
2,99461, Control_c, 0, 64, 115
2,99476, Control_c, 0, 64, 116
2,99506, Control_c, 0, 64, 118
2,99521, Control_c, 0, 64, 124
2,99537, Control_c, 0, 64, 127
2,99566, Control_c, 0, 64, 114
2,99582, Control_c, 0, 64, 98
2,99591, Note_on_c, 0, 71, 50
2,99597, Control_c, 0, 64, 80
2,99600, Note_on_c, 0, 65, 66
2,99613, Control_c, 0, 64, 66
2,99627, Control_c, 0, 64, 39
2,99642, Control_c, 0, 64, 0
2,99689, Control_c, 0, 64, 37
2,99705, Control_c, 0, 64, 53
2,99720, Control_c, 0, 64, 61
2,99725, Note_on_c, 0, 69, 0
2,99735, Control_c, 0, 64, 65
2,99750, Control_c, 0, 64, 69
2,99765, Control_c, 0, 64, 75
2,99780, Control_c, 0, 64, 80
2,99794, Note_on_c, 0, 73, 62
2,99795, Control_c, 0, 64, 86
2,99799, Note_on_c, 0, 63, 69
2,99800, Note_on_c, 0, 66, 0
2,99810, Control_c, 0, 64, 89
2,99826, Control_c, 0, 64, 91
2,99841, Control_c, 0, 64, 92
2,99849, Note_on_c, 0, 65, 0
2,99856, Control_c, 0, 64, 91
2,99871, Control_c, 0, 64, 91
2,99885, Note_on_c, 0, 71, 0
2,99895, Control_c, 0, 64, 90
2,99910, Control_c, 0, 64, 90
2,99925, Control_c, 0, 64, 88
2,99940, Control_c, 0, 64, 87
2,99955, Control_c, 0, 64, 84
2,99970, Control_c, 0, 64, 81
2,99985, Control_c, 0, 64, 78
2,100000, Control_c, 0, 64, 74
2,100016, Control_c, 0, 64, 69
2,100031, Control_c, 0, 64, 64
2,100046, Control_c, 0, 64, 61
2,100054, Note_on_c, 0, 65, 69
2,100061, Control_c, 0, 64, 60
2,100065, Note_on_c, 0, 71, 53
2,100103, Note_on_c, 0, 63, 0
2,100130, Note_on_c, 0, 73, 0
2,100214, Control_c, 0, 64, 60
2,100229, Control_c, 0, 64, 61
2,100243, Control_c, 0, 64, 61
2,100269, Note_on_c, 0, 69, 55
2,100410, Control_c, 0, 64, 62
2,100414, Note_on_c, 0, 71, 0
2,100457, Control_c, 0, 64, 62
2,100512, Note_on_c, 0, 68, 62
2,100537, Note_on_c, 0, 69, 0
2,100717, Note_on_c, 0, 71, 52
2,100936, Control_c, 0, 64, 62
2,100965, Control_c, 0, 64, 61
2,100990, Note_on_c, 0, 66, 56
2,100991, Note_on_c, 0, 69, 47
2,101008, Note_on_c, 0, 65, 0
2,101027, Control_c, 0, 64, 61
2,101036, Note_on_c, 0, 68, 0
2,101041, Control_c, 0, 64, 60
2,101055, Note_on_c, 0, 71, 0
2,101057, Control_c, 0, 64, 59
2,101072, Control_c, 0, 64, 57
2,101087, Control_c, 0, 64, 53
2,101103, Control_c, 0, 64, 47
2,101118, Control_c, 0, 64, 38
2,101134, Control_c, 0, 64, 28
2,101149, Control_c, 0, 64, 24
2,101163, Control_c, 0, 64, 23
2,101239, Control_c, 0, 64, 24
2,101270, Control_c, 0, 64, 25
2,101285, Control_c, 0, 64, 31
2,101301, Control_c, 0, 64, 33
2,101317, Control_c, 0, 64, 35
2,101332, Control_c, 0, 64, 37
2,101347, Control_c, 0, 64, 40
2,101362, Control_c, 0, 64, 43
2,101378, Control_c, 0, 64, 47
2,101393, Control_c, 0, 64, 51
2,101415, Control_c, 0, 64, 54
2,101430, Control_c, 0, 64, 57
2,101445, Control_c, 0, 64, 61
2,101445, Note_on_c, 0, 78, 57
2,101446, Note_on_c, 0, 54, 48
2,101461, Control_c, 0, 64, 64
2,101476, Control_c, 0, 64, 67
2,101492, Control_c, 0, 64, 70
2,101507, Control_c, 0, 64, 74
2,101521, Control_c, 0, 64, 80
2,101538, Control_c, 0, 64, 86
2,101552, Control_c, 0, 64, 91
2,101567, Control_c, 0, 64, 96
2,101583, Control_c, 0, 64, 101
2,101598, Control_c, 0, 64, 103
2,101614, Control_c, 0, 64, 104
2,101629, Control_c, 0, 64, 105
2,101644, Control_c, 0, 64, 105
2,101655, Note_on_c, 0, 56, 60
2,101655, Note_on_c, 0, 80, 0
2,101658, Note_on_c, 0, 76, 66
2,101660, Control_c, 0, 64, 106
2,101674, Control_c, 0, 64, 108
2,101685, Note_on_c, 0, 54, 0
2,101689, Control_c, 0, 64, 111
2,101703, Note_on_c, 0, 78, 0
2,101705, Control_c, 0, 64, 113
2,101720, Control_c, 0, 64, 115
2,101735, Note_on_c, 0, 76, 0
2,101736, Control_c, 0, 64, 116
2,101750, Control_c, 0, 64, 118
2,101765, Control_c, 0, 64, 121
2,101781, Control_c, 0, 64, 127
2,101857, Control_c, 0, 64, 110
2,101872, Control_c, 0, 64, 95
2,101886, Control_c, 0, 64, 80
2,101895, Note_on_c, 0, 74, 66
2,101898, Note_on_c, 0, 54, 58
2,101898, Note_on_c, 0, 57, 55
2,101902, Control_c, 0, 64, 63
2,101917, Control_c, 0, 64, 0
2,101938, Note_on_c, 0, 56, 0
2,102069, Control_c, 0, 64, 45
2,102084, Control_c, 0, 64, 57
2,102094, Note_on_c, 0, 73, 71
2,102100, Control_c, 0, 64, 62
2,102115, Control_c, 0, 64, 65
2,102130, Control_c, 0, 64, 66
2,102146, Control_c, 0, 64, 68
2,102161, Control_c, 0, 64, 70
2,102177, Control_c, 0, 64, 73
2,102199, Control_c, 0, 64, 75
2,102215, Control_c, 0, 64, 78
2,102230, Control_c, 0, 64, 80
2,102244, Control_c, 0, 64, 81
2,102311, Note_on_c, 0, 59, 72
2,102315, Note_on_c, 0, 66, 0
2,102315, Note_on_c, 0, 71, 73
2,102381, Note_on_c, 0, 69, 0
2,102510, Note_on_c, 0, 69, 68
2,102528, Note_on_c, 0, 73, 0
2,102551, Note_on_c, 0, 71, 0
2,102683, Control_c, 0, 64, 79
2,102699, Control_c, 0, 64, 75
2,102714, Control_c, 0, 64, 67
2,102729, Control_c, 0, 64, 46
2,102739, Note_on_c, 0, 61, 61
2,102743, Note_on_c, 0, 53, 58
2,102745, Control_c, 0, 64, 0
2,102745, Note_on_c, 0, 68, 78
2,102794, Note_on_c, 0, 59, 0
2,102803, Note_on_c, 0, 69, 0
2,102807, Note_on_c, 0, 54, 0
2,102882, Note_on_c, 0, 74, 0
2,102921, Note_on_c, 0, 57, 0
2,102942, Control_c, 0, 64, 21
2,102965, Control_c, 0, 64, 52
2,102974, Note_on_c, 0, 59, 62
2,102981, Control_c, 0, 64, 61
2,102996, Control_c, 0, 64, 64
2,103003, Note_on_c, 0, 61, 0
2,103012, Control_c, 0, 64, 66
2,103027, Control_c, 0, 64, 67
2,103041, Control_c, 0, 64, 68
2,103057, Control_c, 0, 64, 68
2,103087, Control_c, 0, 64, 69
2,103203, Note_on_c, 0, 73, 81
2,103208, Note_on_c, 0, 61, 63
2,103284, Control_c, 0, 64, 69
2,103315, Control_c, 0, 64, 70
2,103338, Note_on_c, 0, 61, 0
2,103346, Control_c, 0, 64, 70
2,103360, Control_c, 0, 64, 71
2,103376, Control_c, 0, 64, 71
2,103391, Control_c, 0, 64, 72
2,103401, Note_on_c, 0, 59, 0
2,103406, Control_c, 0, 64, 72
2,103410, Note_on_c, 0, 62, 59
2,103436, Control_c, 0, 64, 73
2,103543, Control_c, 0, 64, 73
2,103589, Control_c, 0, 64, 73
2,103603, Control_c, 0, 64, 71
2,103619, Control_c, 0, 64, 67
2,103634, Control_c, 0, 64, 58
2,103649, Control_c, 0, 64, 0
2,103654, Note_on_c, 0, 78, 85
2,103659, Note_on_c, 0, 57, 57
2,103659, Note_on_c, 0, 61, 57
2,103707, Note_on_c, 0, 62, 0
2,103707, Note_on_c, 0, 73, 0
2,103739, Note_on_c, 0, 53, 0
2,103809, Control_c, 0, 64, 28
2,103825, Control_c, 0, 64, 57
2,103840, Control_c, 0, 64, 65
2,103855, Control_c, 0, 64, 69
2,103870, Control_c, 0, 64, 73
2,103884, Note_on_c, 0, 59, 64
2,103885, Control_c, 0, 64, 76
2,103892, Note_on_c, 0, 57, 0
2,103901, Control_c, 0, 64, 79
2,103916, Control_c, 0, 64, 80
2,103926, Note_on_c, 0, 60, 15
2,103927, Note_on_c, 0, 60, 0
2,103930, Control_c, 0, 64, 80
2,103966, Note_on_c, 0, 61, 0
2,104012, Note_on_c, 0, 78, 0
2,104103, Note_on_c, 0, 78, 83
2,104110, Note_on_c, 0, 57, 60
2,104151, Note_on_c, 0, 59, 0
2,104298, Note_on_c, 0, 61, 61
2,104447, Control_c, 0, 64, 81
2,104447, Note_on_c, 0, 78, 0
2,104478, Control_c, 0, 64, 81
2,104532, Control_c, 0, 64, 78
2,104546, Control_c, 0, 64, 72
2,104552, Note_on_c, 0, 78, 78
2,104554, Note_on_c, 0, 59, 53
2,104561, Control_c, 0, 64, 61
2,104577, Control_c, 0, 64, 0
2,104579, Note_on_c, 0, 56, 54
2,104589, Note_on_c, 0, 57, 0
2,104601, Note_on_c, 0, 61, 0
2,104698, Note_on_c, 0, 68, 0
2,104699, Control_c, 0, 64, 27
2,104714, Control_c, 0, 64, 52
2,104729, Control_c, 0, 64, 62
2,104745, Control_c, 0, 64, 65
2,104760, Control_c, 0, 64, 67
2,104764, Note_on_c, 0, 57, 59
2,104775, Control_c, 0, 64, 69
2,104780, Note_on_c, 0, 59, 0
2,104790, Control_c, 0, 64, 71
2,104805, Control_c, 0, 64, 74
2,104821, Control_c, 0, 64, 75
2,104836, Control_c, 0, 64, 76
2,104852, Control_c, 0, 64, 77
2,104912, Control_c, 0, 64, 77
2,104927, Control_c, 0, 64, 78
2,104943, Control_c, 0, 64, 79
2,104973, Control_c, 0, 64, 75
2,104988, Control_c, 0, 64, 69
2,104994, Note_on_c, 0, 76, 72
2,104995, Note_on_c, 0, 59, 62
2,105003, Control_c, 0, 64, 58
2,105019, Control_c, 0, 64, 0
2,105079, Control_c, 0, 64, 16
2,105095, Control_c, 0, 64, 44
2,105109, Control_c, 0, 64, 56
2,105124, Control_c, 0, 64, 63
2,105140, Control_c, 0, 64, 67
2,105155, Control_c, 0, 64, 72
2,105170, Control_c, 0, 64, 77
2,105185, Control_c, 0, 64, 82
2,105200, Control_c, 0, 64, 86
2,105201, Note_on_c, 0, 61, 59
2,105206, Note_on_c, 0, 74, 71
2,105210, Note_on_c, 0, 59, 0
2,105216, Control_c, 0, 64, 88
2,105230, Control_c, 0, 64, 90
2,105243, Note_on_c, 0, 76, 0
2,105245, Control_c, 0, 64, 91
2,105273, Note_on_c, 0, 78, 0
2,105376, Control_c, 0, 64, 90
2,105390, Control_c, 0, 64, 85
2,105403, Note_on_c, 0, 57, 0
2,105405, Control_c, 0, 64, 76
2,105422, Control_c, 0, 64, 64
2,105426, Note_on_c, 0, 76, 69
2,105436, Note_on_c, 0, 59, 59
2,105437, Control_c, 0, 64, 21
2,105453, Control_c, 0, 64, 0
2,105482, Note_on_c, 0, 61, 0
2,105539, Note_on_c, 0, 74, 0
2,105558, Control_c, 0, 64, 12
2,105574, Control_c, 0, 64, 50
2,105589, Control_c, 0, 64, 59
2,105604, Control_c, 0, 64, 63
2,105619, Control_c, 0, 64, 66
2,105634, Control_c, 0, 64, 68
2,105638, Note_on_c, 0, 57, 58
2,105649, Control_c, 0, 64, 71
2,105665, Control_c, 0, 64, 74
2,105679, Note_on_c, 0, 56, 0
2,105680, Control_c, 0, 64, 77
2,105685, Note_on_c, 0, 59, 0
2,105695, Control_c, 0, 64, 80
2,105710, Control_c, 0, 64, 82
2,105725, Control_c, 0, 64, 83
2,105817, Control_c, 0, 64, 81
2,105832, Control_c, 0, 64, 77
2,105847, Control_c, 0, 64, 73
2,105863, Control_c, 0, 64, 67
2,105869, Note_on_c, 0, 56, 68
2,105877, Control_c, 0, 64, 61
2,105893, Control_c, 0, 64, 56
2,105900, Note_on_c, 0, 57, 0
2,105923, Control_c, 0, 64, 57
2,105939, Control_c, 0, 64, 59
2,105953, Control_c, 0, 64, 61
2,105968, Control_c, 0, 64, 62
2,105984, Control_c, 0, 64, 64
2,105999, Control_c, 0, 64, 65
2,106015, Control_c, 0, 64, 66
2,106035, Control_c, 0, 64, 68
2,106050, Control_c, 0, 64, 70
2,106066, Control_c, 0, 64, 72
2,106076, Note_on_c, 0, 59, 65
2,106080, Control_c, 0, 64, 73
2,106095, Control_c, 0, 64, 74
2,106217, Control_c, 0, 64, 74
2,106234, Control_c, 0, 64, 71
2,106249, Control_c, 0, 64, 67
2,106264, Control_c, 0, 64, 59
2,106279, Control_c, 0, 64, 28
2,106280, Note_on_c, 0, 59, 0
2,106294, Control_c, 0, 64, 0
2,106299, Note_on_c, 0, 57, 54
2,106308, Note_on_c, 0, 56, 0
2,106318, Note_on_c, 0, 54, 55
2,106415, Control_c, 0, 64, 28
2,106431, Control_c, 0, 64, 50
2,106446, Control_c, 0, 64, 58
2,106461, Control_c, 0, 64, 62
2,106476, Control_c, 0, 64, 64
2,106491, Control_c, 0, 64, 65
2,106506, Control_c, 0, 64, 67
2,106509, Note_on_c, 0, 56, 60
2,106521, Control_c, 0, 64, 69
2,106536, Control_c, 0, 64, 70
2,106552, Control_c, 0, 64, 72
2,106567, Control_c, 0, 64, 72
2,106570, Note_on_c, 0, 57, 0
2,106613, Control_c, 0, 64, 73
2,106705, Control_c, 0, 64, 73
2,106744, Note_on_c, 0, 56, 0
2,106756, Note_on_c, 0, 74, 72
2,106766, Note_on_c, 0, 57, 59
2,106950, Note_on_c, 0, 57, 0
2,106972, Note_on_c, 0, 59, 58
2,106973, Note_on_c, 0, 73, 71
2,107021, Note_on_c, 0, 74, 0
2,107036, Note_on_c, 0, 76, 0
2,107199, Control_c, 0, 64, 73
2,107214, Control_c, 0, 64, 70
2,107223, Note_on_c, 0, 69, 82
2,107229, Control_c, 0, 64, 65
2,107234, Note_on_c, 0, 74, 65
2,107244, Control_c, 0, 64, 54
2,107245, Note_on_c, 0, 57, 53
2,107245, Note_on_c, 0, 59, 0
2,107260, Control_c, 0, 64, 0
2,107307, Note_on_c, 0, 73, 0
2,107431, Note_on_c, 0, 57, 0
2,107441, Control_c, 0, 64, 14
2,107450, Note_on_c, 0, 59, 68
2,107456, Control_c, 0, 64, 50
2,107472, Control_c, 0, 64, 59
2,107487, Control_c, 0, 64, 63
2,107503, Control_c, 0, 64, 65
2,107518, Control_c, 0, 64, 67
2,107533, Control_c, 0, 64, 69
2,107549, Control_c, 0, 64, 70
2,107570, Control_c, 0, 64, 72
2,107586, Control_c, 0, 64, 73
2,107658, Note_on_c, 0, 61, 71
2,107679, Note_on_c, 0, 59, 0
2,107864, Note_on_c, 0, 62, 62
2,107910, Note_on_c, 0, 61, 0
2,107952, Control_c, 0, 64, 73
2,108058, Control_c, 0, 64, 74
2,108088, Control_c, 0, 64, 72
2,108104, Control_c, 0, 64, 68
2,108119, Control_c, 0, 64, 61
2,108129, Note_on_c, 0, 68, 81
2,108134, Control_c, 0, 64, 30
2,108140, Note_on_c, 0, 64, 61
2,108149, Control_c, 0, 64, 0
2,108182, Note_on_c, 0, 62, 0
2,108221, Note_on_c, 0, 69, 0
2,108270, Control_c, 0, 64, 51
2,108285, Control_c, 0, 64, 63
2,108301, Control_c, 0, 64, 68
2,108309, Note_on_c, 0, 64, 0
2,108316, Control_c, 0, 64, 73
2,108338, Control_c, 0, 64, 79
2,108345, Note_on_c, 0, 62, 53
2,108354, Control_c, 0, 64, 83
2,108369, Control_c, 0, 64, 86
2,108381, Note_on_c, 0, 54, 0
2,108385, Control_c, 0, 64, 88
2,108400, Control_c, 0, 64, 88
2,108477, Control_c, 0, 64, 89
2,108522, Control_c, 0, 64, 89
2,108536, Control_c, 0, 64, 90
2,108552, Control_c, 0, 64, 91
2,108567, Control_c, 0, 64, 90
2,108583, Control_c, 0, 64, 84
2,108589, Note_on_c, 0, 64, 75
2,108597, Note_on_c, 0, 52, 70
2,108598, Control_c, 0, 64, 73
2,108612, Control_c, 0, 64, 59
2,108628, Control_c, 0, 64, 0
2,108720, Control_c, 0, 64, 30
2,108735, Control_c, 0, 64, 56
2,108751, Control_c, 0, 64, 64
2,108751, Note_on_c, 0, 74, 0
2,108765, Control_c, 0, 64, 67
2,108781, Control_c, 0, 64, 71
2,108796, Control_c, 0, 64, 74
2,108811, Control_c, 0, 64, 77
2,108817, Note_on_c, 0, 66, 68
2,108827, Control_c, 0, 64, 79
2,108842, Control_c, 0, 64, 80
2,108887, Control_c, 0, 64, 81
2,108916, Note_on_c, 0, 64, 0
2,108949, Control_c, 0, 64, 81
2,108978, Control_c, 0, 64, 80
2,108994, Control_c, 0, 64, 75
2,109009, Control_c, 0, 64, 68
2,109025, Control_c, 0, 64, 51
2,109039, Control_c, 0, 64, 0
2,109039, Note_on_c, 0, 57, 80
2,109065, Note_on_c, 0, 73, 66
2,109073, Note_on_c, 0, 66, 0
2,109077, Note_on_c, 0, 62, 0
2,109084, Note_on_c, 0, 64, 39
2,109111, Note_on_c, 0, 68, 0
2,109168, Control_c, 0, 64, 33
2,109184, Control_c, 0, 64, 59
2,109199, Control_c, 0, 64, 67
2,109214, Control_c, 0, 64, 74
2,109221, Note_on_c, 0, 52, 0
2,109230, Control_c, 0, 64, 82
2,109245, Control_c, 0, 64, 91
2,109260, Control_c, 0, 64, 102
2,109275, Control_c, 0, 64, 107
2,109289, Note_on_c, 0, 57, 0
2,109291, Note_on_c, 0, 62, 54
2,109306, Control_c, 0, 64, 106
2,109321, Control_c, 0, 64, 106
2,109381, Control_c, 0, 64, 106
2,109396, Control_c, 0, 64, 107
2,109404, Note_on_c, 0, 64, 0
2,109411, Control_c, 0, 64, 109
2,109427, Control_c, 0, 64, 111
2,109442, Control_c, 0, 64, 113
2,109444, Note_on_c, 0, 62, 0
2,109456, Control_c, 0, 64, 112
2,109472, Control_c, 0, 64, 104
2,109487, Control_c, 0, 64, 91
2,109501, Note_on_c, 0, 57, 69
2,109504, Control_c, 0, 64, 77
2,109511, Note_on_c, 0, 61, 72
2,109519, Control_c, 0, 64, 64
2,109534, Control_c, 0, 64, 36
2,109550, Control_c, 0, 64, 16
2,109564, Control_c, 0, 64, 19
2,109580, Control_c, 0, 64, 37
2,109595, Control_c, 0, 64, 51
2,109609, Control_c, 0, 64, 59
2,109625, Control_c, 0, 64, 65
2,109640, Control_c, 0, 64, 70
2,109655, Control_c, 0, 64, 78
2,109671, Control_c, 0, 64, 88
2,109685, Control_c, 0, 64, 98
2,109701, Control_c, 0, 64, 106
2,109710, Note_on_c, 0, 64, 72
2,109716, Control_c, 0, 64, 107
2,109731, Control_c, 0, 64, 106
2,109747, Control_c, 0, 64, 105
2,109813, Note_on_c, 0, 64, 0
2,109827, Note_on_c, 0, 57, 0
2,109890, Control_c, 0, 64, 106
2,109906, Control_c, 0, 64, 106
2,109921, Control_c, 0, 64, 107
2,109952, Control_c, 0, 64, 106
2,109967, Control_c, 0, 64, 100
2,109982, Control_c, 0, 64, 87
2,109994, Note_on_c, 0, 78, 81
2,109997, Control_c, 0, 64, 74
2,110003, Note_on_c, 0, 71, 72
2,110012, Control_c, 0, 64, 58
2,110015, Note_on_c, 0, 62, 54
2,110027, Control_c, 0, 64, 0
2,110029, Note_on_c, 0, 57, 58
2,110070, Note_on_c, 0, 61, 0
2,110103, Control_c, 0, 64, 15
2,110111, Note_on_c, 0, 73, 0
2,110118, Control_c, 0, 64, 51
2,110133, Control_c, 0, 64, 62
2,110149, Control_c, 0, 64, 66
2,110164, Control_c, 0, 64, 71
2,110178, Control_c, 0, 64, 76
2,110194, Control_c, 0, 64, 80
2,110206, Note_on_c, 0, 61, 61
2,110206, Note_on_c, 0, 62, 0
2,110209, Control_c, 0, 64, 82
2,110224, Control_c, 0, 64, 83
2,110285, Control_c, 0, 64, 83
2,110301, Control_c, 0, 64, 84
2,110316, Control_c, 0, 64, 84
2,110331, Control_c, 0, 64, 85
2,110347, Control_c, 0, 64, 85
2,110362, Control_c, 0, 64, 86
2,110377, Control_c, 0, 64, 86
2,110393, Control_c, 0, 64, 83
2,110407, Control_c, 0, 64, 75
2,110423, Control_c, 0, 64, 66
2,110434, Note_on_c, 0, 62, 62
2,110438, Control_c, 0, 64, 50
2,110445, Note_on_c, 0, 56, 59
2,110453, Control_c, 0, 64, 28
2,110469, Control_c, 0, 64, 27
2,110483, Control_c, 0, 64, 31
2,110498, Control_c, 0, 64, 43
2,110514, Control_c, 0, 64, 53
2,110529, Control_c, 0, 64, 59
2,110534, Note_on_c, 0, 62, 0
2,110545, Control_c, 0, 64, 63
2,110560, Control_c, 0, 64, 66
2,110575, Control_c, 0, 64, 69
2,110591, Control_c, 0, 64, 73
2,110605, Control_c, 0, 64, 77
2,110621, Control_c, 0, 64, 79
2,110648, Note_on_c, 0, 64, 72
2,110654, Note_on_c, 0, 54, 66
2,110696, Note_on_c, 0, 56, 0
2,110720, Note_on_c, 0, 61, 0
2,110720, Note_on_c, 0, 64, 0
2,110743, Note_on_c, 0, 57, 0
2,110765, Control_c, 0, 64, 78
2,110826, Control_c, 0, 64, 78
2,110841, Control_c, 0, 64, 76
2,110856, Control_c, 0, 64, 71
2,110871, Control_c, 0, 64, 64
2,110886, Control_c, 0, 64, 47
2,110896, Note_on_c, 0, 62, 49
2,110901, Note_on_c, 0, 76, 70
2,110902, Control_c, 0, 64, 0
2,110909, Note_on_c, 0, 56, 58
2,110945, Note_on_c, 0, 54, 0
2,111098, Control_c, 0, 64, 46
2,111100, Note_on_c, 0, 61, 62
2,111114, Control_c, 0, 64, 57
2,111129, Control_c, 0, 64, 61
2,111146, Control_c, 0, 64, 63
2,111160, Note_on_c, 0, 62, 0
2,111161, Control_c, 0, 64, 64
2,111175, Control_c, 0, 64, 64
2,111191, Control_c, 0, 64, 65
2,111206, Control_c, 0, 64, 65
2,111237, Control_c, 0, 64, 66
2,111267, Control_c, 0, 64, 66
2,111282, Control_c, 0, 64, 67
2,111325, Note_on_c, 0, 59, 65
2,111343, Control_c, 0, 64, 67
2,111362, Note_on_c, 0, 61, 0
2,111545, Note_on_c, 0, 62, 47
2,111701, Control_c, 0, 64, 67
2,111715, Control_c, 0, 64, 66
2,111730, Control_c, 0, 64, 64
2,111746, Control_c, 0, 64, 58
2,111761, Control_c, 0, 64, 42
2,111775, Note_on_c, 0, 57, 63
2,111776, Control_c, 0, 64, 0
2,111781, Note_on_c, 0, 61, 71
2,111795, Note_on_c, 0, 62, 0
2,111800, Note_on_c, 0, 56, 0
2,111842, Note_on_c, 0, 59, 0
2,111973, Note_on_c, 0, 59, 66
2,111990, Control_c, 0, 64, 46
2,111997, Note_on_c, 0, 61, 0
2,112005, Control_c, 0, 64, 59
2,112020, Control_c, 0, 64, 63
2,112027, Note_on_c, 0, 78, 0
2,112035, Control_c, 0, 64, 65
2,112050, Control_c, 0, 64, 66
2,112065, Control_c, 0, 64, 67
2,112080, Control_c, 0, 64, 68
2,112095, Control_c, 0, 64, 69
2,112111, Control_c, 0, 64, 69
2,112138, Note_on_c, 0, 76, 0
2,112141, Control_c, 0, 64, 70
2,112195, Control_c, 0, 64, 70
2,112217, Note_on_c, 0, 64, 80
2,112234, Note_on_c, 0, 61, 58
2,112317, Control_c, 0, 64, 71
2,112392, Note_on_c, 0, 64, 0
2,112408, Control_c, 0, 64, 71
2,112410, Note_on_c, 0, 61, 0
2,112414, Note_on_c, 0, 62, 57
2,112423, Control_c, 0, 64, 72
2,112425, Note_on_c, 0, 78, 81
2,112453, Control_c, 0, 64, 73
2,112469, Control_c, 0, 64, 73
2,112483, Control_c, 0, 64, 74
2,112498, Control_c, 0, 64, 75
2,112514, Control_c, 0, 64, 75
2,112545, Control_c, 0, 64, 76
2,112560, Control_c, 0, 64, 77
2,112574, Control_c, 0, 64, 77
2,112590, Control_c, 0, 64, 78
2,112605, Control_c, 0, 64, 77
2,112621, Control_c, 0, 64, 73
2,112636, Control_c, 0, 64, 65
2,112642, Note_on_c, 0, 59, 0
2,112651, Control_c, 0, 64, 37
2,112661, Note_on_c, 0, 69, 71
2,112664, Note_on_c, 0, 61, 60
2,112667, Control_c, 0, 64, 0
2,112668, Note_on_c, 0, 76, 74
2,112674, Note_on_c, 0, 54, 59
2,112775, Note_on_c, 0, 57, 0
2,112780, Note_on_c, 0, 71, 0
2,112865, Control_c, 0, 64, 44
2,112880, Control_c, 0, 64, 57
2,112892, Note_on_c, 0, 74, 80
2,112893, Note_on_c, 0, 59, 67
2,112895, Control_c, 0, 64, 62
2,112907, Note_on_c, 0, 62, 0
2,112910, Control_c, 0, 64, 64
2,112917, Note_on_c, 0, 69, 0
2,112932, Control_c, 0, 64, 66
2,112946, Note_on_c, 0, 76, 0
2,112948, Control_c, 0, 64, 67
2,112948, Note_on_c, 0, 61, 0
2,112954, Note_on_c, 0, 78, 0
2,112963, Control_c, 0, 64, 68
2,112978, Control_c, 0, 64, 69
2,112994, Control_c, 0, 64, 70
2,113009, Control_c, 0, 64, 71
2,113025, Control_c, 0, 64, 72
2,113040, Control_c, 0, 64, 72
2,113070, Control_c, 0, 64, 73
2,113085, Control_c, 0, 64, 73
2,113088, Note_on_c, 0, 57, 64
2,113101, Control_c, 0, 64, 74
2,113106, Note_on_c, 0, 69, 79
2,113109, Note_on_c, 0, 73, 80
2,113115, Control_c, 0, 64, 74
2,113119, Note_on_c, 0, 59, 0
2,113130, Control_c, 0, 64, 75
2,113153, Note_on_c, 0, 74, 0
2,113222, Control_c, 0, 64, 75
2,113251, Control_c, 0, 64, 76
2,113282, Control_c, 0, 64, 76
2,113289, Note_on_c, 0, 61, 67
2,113297, Control_c, 0, 64, 77
2,113304, Note_on_c, 0, 57, 0
2,113313, Control_c, 0, 64, 77
2,113318, Note_on_c, 0, 61, 0
2,113327, Control_c, 0, 64, 78
2,113331, Note_on_c, 0, 76, 77
2,113343, Control_c, 0, 64, 78
2,113344, Note_on_c, 0, 54, 0
2,113358, Control_c, 0, 64, 79
2,113372, Note_on_c, 0, 69, 0
2,113422, Note_on_c, 0, 73, 0
2,113495, Control_c, 0, 64, 79
2,113541, Control_c, 0, 64, 78
2,113556, Control_c, 0, 64, 74
2,113571, Control_c, 0, 64, 67
2,113573, Note_on_c, 0, 74, 80
2,113584, Note_on_c, 0, 69, 68
2,113587, Control_c, 0, 64, 52
2,113591, Note_on_c, 0, 47, 63
2,113596, Note_on_c, 0, 59, 62
2,113602, Control_c, 0, 64, 0
2,113693, Note_on_c, 0, 76, 0
2,113820, Note_on_c, 0, 73, 77
2,113868, Control_c, 0, 64, 20
2,113874, Note_on_c, 0, 74, 0
2,113882, Control_c, 0, 64, 31
2,113897, Control_c, 0, 64, 39
2,113913, Control_c, 0, 64, 44
2,113928, Control_c, 0, 64, 50
2,113944, Control_c, 0, 64, 53
2,113958, Control_c, 0, 64, 55
2,113973, Control_c, 0, 64, 56
2,113989, Control_c, 0, 64, 57
2,114004, Control_c, 0, 64, 57
2,114020, Control_c, 0, 64, 58
2,114027, Note_on_c, 0, 74, 72
2,114033, Note_on_c, 0, 68, 66
2,114034, Control_c, 0, 64, 59
2,114093, Note_on_c, 0, 69, 0
2,114167, Note_on_c, 0, 73, 0
2,114170, Control_c, 0, 64, 59
2,114231, Note_on_c, 0, 76, 70
2,114232, Control_c, 0, 64, 60
2,114235, Note_on_c, 0, 68, 0
2,114238, Note_on_c, 0, 66, 57
2,114321, Note_on_c, 0, 74, 0
2,114338, Control_c, 0, 64, 60
2,114399, Control_c, 0, 64, 59
2,114415, Control_c, 0, 64, 55
2,114431, Control_c, 0, 64, 49
2,114446, Control_c, 0, 64, 39
2,114462, Control_c, 0, 64, 0
2,114465, Note_on_c, 0, 52, 57
2,114475, Note_on_c, 0, 68, 61
2,114479, Note_on_c, 0, 74, 63
2,114517, Note_on_c, 0, 47, 0
2,114549, Note_on_c, 0, 66, 0
2,114590, Note_on_c, 0, 76, 0
2,114666, Control_c, 0, 64, 43
2,114672, Note_on_c, 0, 74, 0
2,114678, Note_on_c, 0, 73, 67
2,114680, Control_c, 0, 64, 55
2,114695, Control_c, 0, 64, 60
2,114711, Control_c, 0, 64, 62
2,114725, Control_c, 0, 64, 63
2,114741, Control_c, 0, 64, 64
2,114756, Control_c, 0, 64, 64
2,114771, Control_c, 0, 64, 65
2,114787, Control_c, 0, 64, 66
2,114801, Control_c, 0, 64, 67
2,114816, Control_c, 0, 64, 68
2,114832, Control_c, 0, 64, 69
2,114847, Control_c, 0, 64, 69
2,114863, Control_c, 0, 64, 70
2,114877, Control_c, 0, 64, 70
2,114897, Note_on_c, 0, 71, 69
2,114908, Control_c, 0, 64, 71
2,114935, Note_on_c, 0, 73, 0
2,114957, Note_on_c, 0, 59, 0
2,114968, Control_c, 0, 64, 71
2,115106, Control_c, 0, 64, 72
2,115107, Note_on_c, 0, 74, 73
2,115135, Control_c, 0, 64, 72
2,115166, Control_c, 0, 64, 73
2,115226, Note_on_c, 0, 71, 0
2,115227, Control_c, 0, 64, 73
2,115266, Control_c, 0, 64, 74
2,115281, Control_c, 0, 64, 74
2,115312, Control_c, 0, 64, 72
2,115328, Control_c, 0, 64, 67
2,115344, Control_c, 0, 64, 54
2,115360, Control_c, 0, 64, 0
2,115363, Note_on_c, 0, 73, 83
2,115371, Note_on_c, 0, 57, 43
2,115374, Note_on_c, 0, 45, 52
2,115396, Note_on_c, 0, 52, 0
2,115405, Note_on_c, 0, 74, 0
2,115497, Control_c, 0, 64, 34
2,115512, Control_c, 0, 64, 56
2,115527, Control_c, 0, 64, 63
2,115543, Control_c, 0, 64, 66
2,115558, Control_c, 0, 64, 69
2,115573, Control_c, 0, 64, 71
2,115583, Note_on_c, 0, 56, 57
2,115588, Control_c, 0, 64, 73
2,115603, Control_c, 0, 64, 74
2,115611, Note_on_c, 0, 57, 0
2,115796, Note_on_c, 0, 68, 0
2,115803, Note_on_c, 0, 54, 60
2,115805, Note_on_c, 0, 61, 59
2,115815, Note_on_c, 0, 56, 0
2,115891, Control_c, 0, 64, 73
2,115986, Note_on_c, 0, 54, 0
2,116017, Note_on_c, 0, 52, 64
2,116020, Note_on_c, 0, 63, 69
2,116071, Note_on_c, 0, 61, 0
2,116234, Control_c, 0, 64, 72
2,116243, Note_on_c, 0, 64, 67
2,116248, Control_c, 0, 64, 70
2,116251, Note_on_c, 0, 51, 65
2,116264, Control_c, 0, 64, 64
2,116279, Control_c, 0, 64, 38
2,116295, Control_c, 0, 64, 0
2,116321, Note_on_c, 0, 52, 0
2,116322, Note_on_c, 0, 63, 0
2,116446, Note_on_c, 0, 49, 63
2,116501, Note_on_c, 0, 51, 0
2,116689, Note_on_c, 0, 66, 73
2,116697, Note_on_c, 0, 48, 59
2,116733, Note_on_c, 0, 49, 0
2,116793, Note_on_c, 0, 64, 0
2,116885, Note_on_c, 0, 73, 0
2,116908, Note_on_c, 0, 49, 65
2,116952, Note_on_c, 0, 45, 0
2,116970, Note_on_c, 0, 48, 0
2,117146, Note_on_c, 0, 72, 80
2,117159, Note_on_c, 0, 68, 72
2,117160, Note_on_c, 0, 51, 75
2,117166, Note_on_c, 0, 44, 70
2,117215, Note_on_c, 0, 49, 0
2,117221, Note_on_c, 0, 66, 0
2,117366, Control_c, 0, 64, 51
2,117382, Control_c, 0, 64, 61
2,117396, Control_c, 0, 64, 64
2,117410, Note_on_c, 0, 66, 64
2,117411, Control_c, 0, 64, 66
2,117427, Control_c, 0, 64, 68
2,117442, Control_c, 0, 64, 70
2,117454, Note_on_c, 0, 68, 0
2,117458, Control_c, 0, 64, 71
2,117472, Control_c, 0, 64, 72
2,117487, Control_c, 0, 64, 73
2,117518, Control_c, 0, 64, 73
2,117533, Control_c, 0, 64, 74
2,117556, Control_c, 0, 64, 75
2,117587, Control_c, 0, 64, 73
2,117601, Control_c, 0, 64, 67
2,117617, Control_c, 0, 64, 53
2,117631, Note_on_c, 0, 56, 85
2,117632, Control_c, 0, 64, 0
2,117640, Note_on_c, 0, 68, 65
2,117696, Note_on_c, 0, 51, 0
2,117701, Note_on_c, 0, 44, 0
2,117724, Control_c, 0, 64, 46
2,117740, Control_c, 0, 64, 59
2,117755, Control_c, 0, 64, 66
2,117770, Control_c, 0, 64, 71
2,117785, Control_c, 0, 64, 78
2,117800, Control_c, 0, 64, 84
2,117816, Control_c, 0, 64, 90
2,117821, Note_on_c, 0, 72, 0
2,117827, Note_on_c, 0, 66, 0
2,117830, Control_c, 0, 64, 94
2,117845, Control_c, 0, 64, 97
2,117857, Note_on_c, 0, 69, 71
2,117861, Control_c, 0, 64, 97
2,117906, Note_on_c, 0, 68, 0
2,117998, Control_c, 0, 64, 98
2,118013, Control_c, 0, 64, 99
2,118028, Control_c, 0, 64, 100
2,118043, Control_c, 0, 64, 98
2,118059, Control_c, 0, 64, 87
2,118074, Control_c, 0, 64, 73
2,118089, Control_c, 0, 64, 56
2,118090, Note_on_c, 0, 61, 85
2,118104, Control_c, 0, 64, 0
2,118107, Note_on_c, 0, 76, 68
2,118117, Note_on_c, 0, 68, 64
2,118151, Note_on_c, 0, 69, 0
2,118180, Control_c, 0, 64, 50
2,118195, Control_c, 0, 64, 63
2,118196, Note_on_c, 0, 56, 0
2,118210, Control_c, 0, 64, 70
2,118226, Control_c, 0, 64, 80
2,118240, Control_c, 0, 64, 94
2,118256, Control_c, 0, 64, 117
2,118271, Control_c, 0, 64, 127
2,118319, Note_on_c, 0, 66, 62
2,118358, Note_on_c, 0, 68, 0
2,118395, Note_on_c, 0, 61, 0
2,118538, Control_c, 0, 64, 105
2,118545, Note_on_c, 0, 61, 84
2,118553, Control_c, 0, 64, 88
2,118566, Note_on_c, 0, 64, 69
2,118568, Control_c, 0, 64, 73
2,118584, Control_c, 0, 64, 60
2,118598, Control_c, 0, 64, 33
2,118606, Note_on_c, 0, 66, 0
2,118614, Control_c, 0, 64, 33
2,118629, Control_c, 0, 64, 36
2,118644, Control_c, 0, 64, 48
2,118660, Control_c, 0, 64, 57
2,118674, Control_c, 0, 64, 64
2,118689, Control_c, 0, 64, 69
2,118705, Control_c, 0, 64, 78
2,118720, Control_c, 0, 64, 89
2,118736, Control_c, 0, 64, 102
2,118750, Control_c, 0, 64, 114
2,118765, Control_c, 0, 64, 113
2,118770, Note_on_c, 0, 68, 68
2,118781, Control_c, 0, 64, 111
2,118790, Note_on_c, 0, 76, 0
2,118824, Note_on_c, 0, 61, 0
2,118841, Control_c, 0, 64, 112
2,118857, Control_c, 0, 64, 112
2,118872, Control_c, 0, 64, 113
2,118887, Control_c, 0, 64, 114
2,118903, Control_c, 0, 64, 116
2,118918, Control_c, 0, 64, 116
2,118948, Control_c, 0, 64, 113
2,118963, Control_c, 0, 64, 104
2,118979, Control_c, 0, 64, 92
2,118994, Control_c, 0, 64, 78
2,118996, Note_on_c, 0, 61, 80
2,119008, Control_c, 0, 64, 62
2,119009, Note_on_c, 0, 75, 63
2,119011, Note_on_c, 0, 64, 0
2,119013, Note_on_c, 0, 66, 64
2,119024, Control_c, 0, 64, 21
2,119039, Control_c, 0, 64, 0
2,119108, Control_c, 0, 64, 33
2,119123, Control_c, 0, 64, 52
2,119138, Control_c, 0, 64, 61
2,119153, Control_c, 0, 64, 66
2,119168, Control_c, 0, 64, 70
2,119184, Control_c, 0, 64, 76
2,119199, Control_c, 0, 64, 83
2,119215, Control_c, 0, 64, 89
2,119227, Note_on_c, 0, 68, 0
2,119230, Control_c, 0, 64, 95
2,119240, Note_on_c, 0, 64, 58
2,119245, Control_c, 0, 64, 98
2,119289, Note_on_c, 0, 66, 0
2,119352, Control_c, 0, 64, 98
2,119367, Control_c, 0, 64, 99
2,119383, Control_c, 0, 64, 99
2,119398, Control_c, 0, 64, 99
2,119414, Control_c, 0, 64, 96
2,119429, Control_c, 0, 64, 87
2,119443, Control_c, 0, 64, 76
2,119459, Control_c, 0, 64, 66
2,119462, Note_on_c, 0, 66, 54
2,119466, Note_on_c, 0, 60, 61
2,119474, Control_c, 0, 64, 51
2,119489, Control_c, 0, 64, 35
2,119505, Control_c, 0, 64, 35
2,119535, Control_c, 0, 64, 37
2,119550, Control_c, 0, 64, 44
2,119562, Note_on_c, 0, 61, 0
2,119565, Control_c, 0, 64, 50
2,119581, Control_c, 0, 64, 54
2,119595, Control_c, 0, 64, 56
2,119610, Control_c, 0, 64, 58
2,119626, Control_c, 0, 64, 60
2,119640, Control_c, 0, 64, 61
2,119656, Control_c, 0, 64, 62
2,119662, Note_on_c, 0, 58, 66
2,119664, Note_on_c, 0, 68, 57
2,119671, Control_c, 0, 64, 62
2,119696, Note_on_c, 0, 60, 0
2,119701, Note_on_c, 0, 66, 0
2,119750, Note_on_c, 0, 64, 0
2,119861, Control_c, 0, 64, 63
2,119905, Note_on_c, 0, 60, 62
2,119920, Note_on_c, 0, 66, 57
2,119957, Note_on_c, 0, 58, 0
2,119967, Control_c, 0, 64, 62
2,120104, Note_on_c, 0, 68, 0
2,120135, Note_on_c, 0, 64, 61
2,120318, Control_c, 0, 64, 62
2,120334, Control_c, 0, 64, 60
2,120349, Control_c, 0, 64, 55
2,120355, Note_on_c, 0, 64, 0
2,120363, Control_c, 0, 64, 35
2,120367, Note_on_c, 0, 63, 66
2,120379, Control_c, 0, 64, 0
2,120398, Note_on_c, 0, 66, 0
2,120575, Note_on_c, 0, 66, 58
2,120576, Control_c, 0, 64, 35
2,120591, Control_c, 0, 64, 56
2,120606, Control_c, 0, 64, 61
2,120629, Control_c, 0, 64, 64
2,120638, Note_on_c, 0, 60, 0
2,120644, Control_c, 0, 64, 65
2,120660, Control_c, 0, 64, 67
2,120675, Control_c, 0, 64, 69
2,120690, Control_c, 0, 64, 71
2,120705, Control_c, 0, 64, 74
2,120720, Control_c, 0, 64, 77
2,120735, Control_c, 0, 64, 80
2,120750, Control_c, 0, 64, 83
2,120765, Control_c, 0, 64, 85
2,120780, Control_c, 0, 64, 86
2,120795, Control_c, 0, 64, 81
2,120808, Control_c, 0, 64, 73
2,120824, Control_c, 0, 64, 61
2,120835, Note_on_c, 0, 61, 62
2,120838, Note_on_c, 0, 64, 71
2,120839, Control_c, 0, 64, 0
2,120887, Note_on_c, 0, 63, 0
2,120914, Note_on_c, 0, 66, 0
2,120976, Control_c, 0, 64, 31
2,120992, Control_c, 0, 64, 49
2,121007, Control_c, 0, 64, 58
2,121023, Control_c, 0, 64, 61
2,121035, Note_on_c, 0, 63, 70
2,121038, Control_c, 0, 64, 63
2,121052, Control_c, 0, 64, 65
2,121068, Control_c, 0, 64, 66
2,121077, Note_on_c, 0, 64, 0
2,121083, Control_c, 0, 64, 68
2,121098, Control_c, 0, 64, 70
2,121114, Control_c, 0, 64, 72
2,121128, Control_c, 0, 64, 74
2,121144, Control_c, 0, 64, 75
2,121159, Control_c, 0, 64, 76
2,121220, Control_c, 0, 64, 76
2,121235, Control_c, 0, 64, 77
2,121249, Control_c, 0, 64, 77
2,121276, Note_on_c, 0, 68, 83
2,121282, Note_on_c, 0, 63, 0
2,121284, Note_on_c, 0, 64, 69
2,121295, Control_c, 0, 64, 78
2,121392, Note_on_c, 0, 75, 0
2,121409, Control_c, 0, 64, 78
2,121425, Control_c, 0, 64, 79
2,121440, Control_c, 0, 64, 79
2,121455, Control_c, 0, 64, 80
2,121466, Note_on_c, 0, 66, 78
2,121470, Control_c, 0, 64, 81
2,121485, Control_c, 0, 64, 82
2,121501, Control_c, 0, 64, 84
2,121504, Note_on_c, 0, 64, 0
2,121516, Control_c, 0, 64, 85
2,121530, Control_c, 0, 64, 86
2,121546, Control_c, 0, 64, 86
2,121561, Control_c, 0, 64, 87
2,121652, Control_c, 0, 64, 83
2,121668, Control_c, 0, 64, 77
2,121683, Control_c, 0, 64, 67
2,121697, Control_c, 0, 64, 44
2,121704, Note_on_c, 0, 57, 58
2,121707, Note_on_c, 0, 73, 81
2,121711, Note_on_c, 0, 66, 0
2,121713, Control_c, 0, 64, 0
2,121716, Note_on_c, 0, 64, 61
2,121782, Note_on_c, 0, 61, 0
2,121796, Note_on_c, 0, 68, 0
2,121836, Control_c, 0, 64, 50
2,121850, Control_c, 0, 64, 63
2,121866, Control_c, 0, 64, 68
2,121881, Control_c, 0, 64, 73
2,121896, Control_c, 0, 64, 79
2,121912, Control_c, 0, 64, 84
2,121916, Note_on_c, 0, 63, 70
2,121927, Control_c, 0, 64, 88
2,121940, Note_on_c, 0, 73, 0
2,121943, Control_c, 0, 64, 91
2,121958, Control_c, 0, 64, 92
2,121991, Note_on_c, 0, 64, 0
2,122018, Control_c, 0, 64, 93
2,122048, Control_c, 0, 64, 93
2,122064, Control_c, 0, 64, 94
2,122079, Control_c, 0, 64, 95
2,122093, Control_c, 0, 64, 97
2,122109, Control_c, 0, 64, 99
2,122124, Control_c, 0, 64, 96
2,122140, Control_c, 0, 64, 88
2,122142, Note_on_c, 0, 73, 85
2,122156, Note_on_c, 0, 61, 70
2,122163, Control_c, 0, 64, 74
2,122177, Control_c, 0, 64, 61
2,122193, Control_c, 0, 64, 25
2,122208, Control_c, 0, 64, 0
2,122208, Note_on_c, 0, 63, 0
2,122239, Control_c, 0, 64, 32
2,122253, Control_c, 0, 64, 50
2,122270, Control_c, 0, 64, 62
2,122285, Control_c, 0, 64, 68
2,122301, Control_c, 0, 64, 75
2,122315, Control_c, 0, 64, 84
2,122319, Note_on_c, 0, 57, 0
2,122330, Control_c, 0, 64, 93
2,122346, Control_c, 0, 64, 103
2,122361, Control_c, 0, 64, 108
2,122364, Note_on_c, 0, 64, 74
2,122376, Control_c, 0, 64, 106
2,122391, Control_c, 0, 64, 105
2,122407, Note_on_c, 0, 73, 0
2,122543, Control_c, 0, 64, 105
2,122558, Control_c, 0, 64, 100
2,122573, Control_c, 0, 64, 89
2,122588, Control_c, 0, 64, 74
2,122594, Note_on_c, 0, 73, 78
2,122603, Control_c, 0, 64, 60
2,122603, Note_on_c, 0, 63, 65
2,122617, Note_on_c, 0, 54, 47
2,122620, Control_c, 0, 64, 12
2,122635, Control_c, 0, 64, 0
2,122638, Note_on_c, 0, 61, 0
2,122695, Control_c, 0, 64, 27
2,122711, Control_c, 0, 64, 43
2,122720, Note_on_c, 0, 64, 0
2,122726, Control_c, 0, 64, 53
2,122741, Control_c, 0, 64, 58
2,122756, Control_c, 0, 64, 62
2,122771, Control_c, 0, 64, 63
2,122787, Control_c, 0, 64, 65
2,122802, Control_c, 0, 64, 67
2,122810, Note_on_c, 0, 61, 74
2,122816, Control_c, 0, 64, 68
2,122832, Control_c, 0, 64, 70
2,122847, Control_c, 0, 64, 72
2,122855, Note_on_c, 0, 63, 0
2,122863, Control_c, 0, 64, 74
2,122878, Control_c, 0, 64, 74
2,122893, Control_c, 0, 64, 75
2,122961, Control_c, 0, 64, 74
2,122976, Control_c, 0, 64, 74
2,122992, Control_c, 0, 64, 73
2,123007, Control_c, 0, 64, 73
2,123031, Note_on_c, 0, 71, 73
2,123045, Note_on_c, 0, 63, 67
2,123052, Control_c, 0, 64, 72
2,123114, Control_c, 0, 64, 72
2,123128, Control_c, 0, 64, 71
2,123144, Control_c, 0, 64, 71
2,123159, Control_c, 0, 64, 70
2,123173, Note_on_c, 0, 61, 0
2,123174, Control_c, 0, 64, 70
2,123231, Note_on_c, 0, 63, 0
2,123245, Note_on_c, 0, 64, 67
2,123245, Note_on_c, 0, 69, 70
2,123252, Note_on_c, 0, 73, 0
2,123282, Note_on_c, 0, 71, 0
2,123461, Note_on_c, 0, 56, 61
2,123481, Note_on_c, 0, 71, 67
2,123482, Note_on_c, 0, 64, 0
2,123486, Note_on_c, 0, 62, 50
2,123494, Control_c, 0, 64, 69
2,123509, Control_c, 0, 64, 68
2,123522, Note_on_c, 0, 54, 0
2,123524, Control_c, 0, 64, 66
2,123524, Note_on_c, 0, 69, 0
2,123540, Control_c, 0, 64, 63
2,123555, Control_c, 0, 64, 60
2,123570, Control_c, 0, 64, 57
2,123585, Control_c, 0, 64, 56
2,123631, Control_c, 0, 64, 57
2,123646, Control_c, 0, 64, 57
2,123661, Control_c, 0, 64, 58
2,123676, Control_c, 0, 64, 58
2,123696, Note_on_c, 0, 61, 71
2,123700, Control_c, 0, 64, 59
2,123714, Control_c, 0, 64, 59
2,123760, Control_c, 0, 64, 60
2,123827, Note_on_c, 0, 62, 0
2,123866, Control_c, 0, 64, 58
2,123881, Control_c, 0, 64, 54
2,123896, Control_c, 0, 64, 44
2,123912, Control_c, 0, 64, 23
2,123923, Note_on_c, 0, 59, 78
2,123927, Control_c, 0, 64, 0
2,124049, Control_c, 0, 64, 24
2,124065, Control_c, 0, 64, 48
2,124079, Control_c, 0, 64, 58
2,124094, Control_c, 0, 64, 64
2,124110, Control_c, 0, 64, 67
2,124124, Control_c, 0, 64, 70
2,124124, Note_on_c, 0, 62, 64
2,124140, Control_c, 0, 64, 73
2,124155, Control_c, 0, 64, 77
2,124170, Control_c, 0, 64, 79
2,124171, Note_on_c, 0, 61, 0
2,124186, Control_c, 0, 64, 81
2,124200, Control_c, 0, 64, 82
2,124247, Control_c, 0, 64, 83
2,124263, Control_c, 0, 64, 83
2,124278, Control_c, 0, 64, 84
2,124292, Control_c, 0, 64, 84
2,124308, Control_c, 0, 64, 85
2,124338, Control_c, 0, 64, 82
2,124353, Control_c, 0, 64, 75
2,124364, Note_on_c, 0, 53, 72
2,124368, Control_c, 0, 64, 63
2,124375, Note_on_c, 0, 61, 64
2,124384, Control_c, 0, 64, 16
2,124390, Note_on_c, 0, 59, 0
2,124399, Control_c, 0, 64, 0
2,124417, Note_on_c, 0, 62, 0
2,124420, Note_on_c, 0, 56, 0
2,124498, Control_c, 0, 64, 25
2,124513, Control_c, 0, 64, 54
2,124528, Control_c, 0, 64, 63
2,124544, Control_c, 0, 64, 68
2,124558, Control_c, 0, 64, 74
2,124572, Control_c, 0, 64, 82
2,124588, Control_c, 0, 64, 88
2,124602, Note_on_c, 0, 59, 78
2,124603, Control_c, 0, 64, 94
2,124618, Control_c, 0, 64, 98
2,124633, Control_c, 0, 64, 99
2,124674, Note_on_c, 0, 61, 0
2,124710, Control_c, 0, 64, 99
2,124725, Control_c, 0, 64, 100
2,124740, Control_c, 0, 64, 101
2,124755, Control_c, 0, 64, 103
2,124770, Control_c, 0, 64, 105
2,124786, Control_c, 0, 64, 108
2,124816, Control_c, 0, 64, 105
2,124832, Control_c, 0, 64, 96
2,124846, Control_c, 0, 64, 83
2,124850, Note_on_c, 0, 49, 80
2,124853, Note_on_c, 0, 61, 70
2,124862, Control_c, 0, 64, 69
2,124867, Note_on_c, 0, 59, 0
2,124877, Control_c, 0, 64, 49
2,124891, Control_c, 0, 64, 0
2,124937, Control_c, 0, 64, 28
2,124953, Control_c, 0, 64, 49
2,124967, Control_c, 0, 64, 60
2,124983, Control_c, 0, 64, 66
2,124998, Control_c, 0, 64, 72
2,125013, Control_c, 0, 64, 79
2,125029, Control_c, 0, 64, 86
2,125031, Note_on_c, 0, 71, 0
2,125043, Control_c, 0, 64, 92
2,125051, Note_on_c, 0, 62, 64
2,125058, Control_c, 0, 64, 96
2,125075, Control_c, 0, 64, 98
2,125097, Note_on_c, 0, 61, 0
2,125182, Control_c, 0, 64, 98
2,125196, Control_c, 0, 64, 99
2,125235, Control_c, 0, 64, 96
2,125250, Control_c, 0, 64, 89
2,125266, Control_c, 0, 64, 77
2,125280, Control_c, 0, 64, 63
2,125294, Note_on_c, 0, 54, 85
2,125295, Control_c, 0, 64, 0
2,125309, Note_on_c, 0, 69, 69
2,125317, Note_on_c, 0, 61, 62
2,125323, Note_on_c, 0, 53, 0
2,125352, Note_on_c, 0, 62, 0
2,125447, Control_c, 0, 64, 33
2,125463, Control_c, 0, 64, 60
2,125478, Control_c, 0, 64, 67
2,125492, Control_c, 0, 64, 73
2,125508, Control_c, 0, 64, 80
2,125523, Control_c, 0, 64, 88
2,125523, Note_on_c, 0, 64, 73
2,125537, Control_c, 0, 64, 94
2,125547, Note_on_c, 0, 61, 0
2,125553, Control_c, 0, 64, 99
2,125557, Note_on_c, 0, 54, 0
2,125568, Control_c, 0, 64, 101
2,125617, Control_c, 0, 64, 102
2,125632, Control_c, 0, 64, 102
2,125647, Control_c, 0, 64, 104
2,125663, Control_c, 0, 64, 107
2,125678, Control_c, 0, 64, 110
2,125693, Control_c, 0, 64, 111
2,125708, Control_c, 0, 64, 107
2,125723, Control_c, 0, 64, 96
2,125733, Note_on_c, 0, 54, 90
2,125738, Control_c, 0, 64, 80
2,125753, Control_c, 0, 64, 66
2,125757, Note_on_c, 0, 63, 72
2,125768, Control_c, 0, 64, 37
2,125784, Control_c, 0, 64, 0
2,125814, Control_c, 0, 64, 25
2,125829, Control_c, 0, 64, 47
2,125844, Control_c, 0, 64, 60
2,125860, Control_c, 0, 64, 66
2,125866, Note_on_c, 0, 69, 0
2,125875, Control_c, 0, 64, 73
2,125891, Control_c, 0, 64, 81
2,125907, Control_c, 0, 64, 91
2,125921, Control_c, 0, 64, 102
2,125937, Control_c, 0, 64, 109
2,125950, Note_on_c, 0, 54, 0
2,125952, Control_c, 0, 64, 109
2,125966, Control_c, 0, 64, 108
2,125981, Note_on_c, 0, 61, 73
2,125997, Note_on_c, 0, 64, 0
2,126066, Control_c, 0, 64, 107
2,126112, Control_c, 0, 64, 108
2,126127, Control_c, 0, 64, 108
2,126143, Control_c, 0, 64, 109
2,126173, Control_c, 0, 64, 105
2,126188, Control_c, 0, 64, 96
2,126203, Control_c, 0, 64, 84
2,126219, Control_c, 0, 64, 70
2,126219, Note_on_c, 0, 63, 0
2,126233, Note_on_c, 0, 56, 75
2,126234, Control_c, 0, 64, 54
2,126234, Note_on_c, 0, 54, 72
2,126234, Note_on_c, 0, 60, 79
2,126235, Note_on_c, 0, 68, 80
2,126248, Control_c, 0, 64, 0
2,126321, Note_on_c, 0, 61, 0
2,126326, Note_on_c, 0, 49, 0
2,126329, Control_c, 0, 64, 14
2,126344, Control_c, 0, 64, 27
2,126360, Control_c, 0, 64, 36
2,126375, Control_c, 0, 64, 43
2,126389, Control_c, 0, 64, 48
2,126405, Control_c, 0, 64, 51
2,126420, Control_c, 0, 64, 53
2,126435, Control_c, 0, 64, 54
2,126445, Note_on_c, 0, 54, 0
2,126451, Control_c, 0, 64, 56
2,126465, Control_c, 0, 64, 58
2,126481, Control_c, 0, 64, 61
2,126496, Control_c, 0, 64, 63
2,126511, Control_c, 0, 64, 65
2,126527, Control_c, 0, 64, 68
2,126541, Control_c, 0, 64, 71
2,126556, Control_c, 0, 64, 74
2,126572, Control_c, 0, 64, 79
2,126587, Control_c, 0, 64, 81
2,126603, Control_c, 0, 64, 82
2,126633, Control_c, 0, 64, 82
2,126649, Control_c, 0, 64, 81
2,126663, Control_c, 0, 64, 80
2,126676, Note_on_c, 0, 44, 72
2,126679, Control_c, 0, 64, 79
2,126687, Note_on_c, 0, 52, 73
2,126694, Control_c, 0, 64, 78
2,126709, Control_c, 0, 64, 77
2,126725, Control_c, 0, 64, 77
2,126740, Control_c, 0, 64, 75
2,126755, Control_c, 0, 64, 75
2,126778, Control_c, 0, 64, 74
2,126793, Control_c, 0, 64, 74
2,126803, Note_on_c, 0, 44, 0
2,126894, Note_on_c, 0, 51, 84
2,126942, Note_on_c, 0, 52, 0
2,126974, Control_c, 0, 64, 73
2,127034, Control_c, 0, 64, 74
2,127065, Control_c, 0, 64, 74
2,127141, Control_c, 0, 64, 73
2,127155, Note_on_c, 0, 52, 74
2,127156, Control_c, 0, 64, 71
2,127157, Note_on_c, 0, 61, 73
2,127161, Note_on_c, 0, 49, 71
2,127171, Control_c, 0, 64, 65
2,127184, Note_on_c, 0, 51, 0
2,127186, Control_c, 0, 64, 52
2,127202, Control_c, 0, 64, 0
2,127209, Note_on_c, 0, 60, 0
2,127445, Control_c, 0, 64, 33
2,127460, Control_c, 0, 64, 58
2,127467, Note_on_c, 0, 49, 0
2,127475, Control_c, 0, 64, 65
2,127491, Control_c, 0, 64, 68
2,127505, Control_c, 0, 64, 71
2,127521, Control_c, 0, 64, 74
2,127544, Control_c, 0, 64, 75
2,127560, Control_c, 0, 64, 77
2,127575, Control_c, 0, 64, 78
2,127590, Control_c, 0, 64, 79
2,127606, Control_c, 0, 64, 80
2,127612, Note_on_c, 0, 49, 74
2,127620, Control_c, 0, 64, 81
2,127635, Control_c, 0, 64, 81
2,127651, Control_c, 0, 64, 82
2,127666, Control_c, 0, 64, 84
2,127682, Control_c, 0, 64, 85
2,127688, Note_on_c, 0, 61, 0
2,127697, Control_c, 0, 64, 86
2,127712, Control_c, 0, 64, 87
2,127728, Control_c, 0, 64, 87
2,127742, Control_c, 0, 64, 88
2,127774, Note_on_c, 0, 56, 0
2,127792, Note_on_c, 0, 49, 0
2,127954, Control_c, 0, 64, 88
2,127985, Control_c, 0, 64, 89
2,128000, Control_c, 0, 64, 90
2,128015, Control_c, 0, 64, 91
2,128030, Control_c, 0, 64, 92
2,128046, Control_c, 0, 64, 91
2,128061, Control_c, 0, 64, 88
2,128076, Control_c, 0, 64, 80
2,128082, Note_on_c, 0, 75, 99
2,128090, Note_on_c, 0, 63, 86
2,128092, Control_c, 0, 64, 70
2,128098, Note_on_c, 0, 55, 81
2,128103, Note_on_c, 0, 51, 73
2,128105, Note_on_c, 0, 49, 67
2,128106, Control_c, 0, 64, 54
2,128122, Control_c, 0, 64, 0
2,128143, Note_on_c, 0, 52, 0
2,128273, Control_c, 0, 64, 45
2,128289, Control_c, 0, 64, 63
2,128311, Control_c, 0, 64, 70
2,128327, Control_c, 0, 64, 77
2,128342, Control_c, 0, 64, 84
2,128358, Control_c, 0, 64, 88
2,128374, Control_c, 0, 64, 92
2,128388, Control_c, 0, 64, 93
2,128404, Control_c, 0, 64, 94
2,128419, Control_c, 0, 64, 94
2,128427, Note_on_c, 0, 63, 0
2,128433, Control_c, 0, 64, 95
2,128449, Control_c, 0, 64, 96
2,128464, Control_c, 0, 64, 92
2,128480, Control_c, 0, 64, 83
2,128495, Control_c, 0, 64, 73
2,128510, Control_c, 0, 64, 62
2,128526, Control_c, 0, 64, 41
2,128532, Note_on_c, 0, 47, 71
2,128541, Control_c, 0, 64, 34
2,128541, Note_on_c, 0, 63, 74
2,128556, Control_c, 0, 64, 36
2,128566, Note_on_c, 0, 49, 0
2,128572, Control_c, 0, 64, 47
2,128572, Note_on_c, 0, 51, 0
2,128586, Control_c, 0, 64, 54
2,128602, Control_c, 0, 64, 60
2,128617, Control_c, 0, 64, 64
2,128631, Control_c, 0, 64, 67
2,128647, Control_c, 0, 64, 72
2,128657, Note_on_c, 0, 68, 0
2,128662, Control_c, 0, 64, 77
2,128677, Control_c, 0, 64, 83
2,128693, Control_c, 0, 64, 87
2,128707, Control_c, 0, 64, 90
2,128723, Control_c, 0, 64, 91
2,128723, Note_on_c, 0, 55, 0
2,128735, Note_on_c, 0, 46, 74
2,128783, Control_c, 0, 64, 91
2,128791, Note_on_c, 0, 47, 0
2,128874, Control_c, 0, 64, 92
2,128890, Control_c, 0, 64, 92
2,128905, Control_c, 0, 64, 93
2,128920, Control_c, 0, 64, 91
2,128935, Control_c, 0, 64, 84
2,128950, Control_c, 0, 64, 73
2,128966, Control_c, 0, 64, 58
2,128971, Note_on_c, 0, 46, 0
2,128972, Note_on_c, 0, 47, 70
2,128975, Note_on_c, 0, 68, 73
2,128978, Note_on_c, 0, 56, 67
2,128981, Control_c, 0, 64, 0
2,129040, Note_on_c, 0, 63, 0
2,129125, Control_c, 0, 64, 36
2,129140, Control_c, 0, 64, 49
2,129155, Control_c, 0, 64, 54
2,129172, Control_c, 0, 64, 57
2,129173, Note_on_c, 0, 46, 70
2,129188, Control_c, 0, 64, 58
2,129190, Note_on_c, 0, 70, 73
2,129198, Note_on_c, 0, 47, 0
2,129204, Control_c, 0, 64, 59
2,129219, Control_c, 0, 64, 60
2,129233, Control_c, 0, 64, 61
2,129261, Note_on_c, 0, 68, 0
2,129401, Control_c, 0, 64, 62
2,129406, Note_on_c, 0, 71, 74
2,129413, Note_on_c, 0, 44, 69
2,129416, Control_c, 0, 64, 62
2,129418, Note_on_c, 0, 70, 0
2,129430, Control_c, 0, 64, 63
2,129446, Control_c, 0, 64, 65
2,129446, Note_on_c, 0, 46, 0
2,129461, Control_c, 0, 64, 66
2,129476, Control_c, 0, 64, 69
2,129492, Control_c, 0, 64, 72
2,129507, Control_c, 0, 64, 76
2,129523, Control_c, 0, 64, 80
2,129538, Control_c, 0, 64, 84
2,129552, Control_c, 0, 64, 87
2,129568, Control_c, 0, 64, 90
2,129577, Note_on_c, 0, 56, 0
2,129583, Control_c, 0, 64, 93
2,129598, Control_c, 0, 64, 95
2,129606, Note_on_c, 0, 47, 78
2,129611, Note_on_c, 0, 44, 0
2,129614, Control_c, 0, 64, 97
2,129659, Control_c, 0, 64, 97
2,129689, Control_c, 0, 64, 98
2,129704, Control_c, 0, 64, 99
2,129720, Control_c, 0, 64, 100
2,129735, Control_c, 0, 64, 100
2,129750, Control_c, 0, 64, 101
2,129765, Control_c, 0, 64, 102
2,129780, Control_c, 0, 64, 103
2,129795, Control_c, 0, 64, 102
2,129811, Control_c, 0, 64, 94
2,129826, Control_c, 0, 64, 79
2,129849, Control_c, 0, 64, 64
2,129854, Note_on_c, 0, 46, 71
2,129860, Note_on_c, 0, 74, 86
2,129861, Note_on_c, 0, 53, 66
2,129864, Control_c, 0, 64, 0
2,129886, Note_on_c, 0, 75, 0
2,129892, Note_on_c, 0, 47, 0
2,130017, Control_c, 0, 64, 36
2,130032, Control_c, 0, 64, 53
2,130048, Control_c, 0, 64, 61
2,130063, Control_c, 0, 64, 64
2,130066, Note_on_c, 0, 44, 67
2,130077, Control_c, 0, 64, 66
2,130093, Control_c, 0, 64, 68
2,130108, Control_c, 0, 64, 71
2,130111, Note_on_c, 0, 46, 0
2,130123, Control_c, 0, 64, 74
2,130138, Control_c, 0, 64, 76
2,130153, Control_c, 0, 64, 78
2,130169, Control_c, 0, 64, 78
2,130184, Control_c, 0, 64, 79
2,130274, Control_c, 0, 64, 79
2,130294, Note_on_c, 0, 46, 75
2,130316, Note_on_c, 0, 70, 81
2,130321, Control_c, 0, 64, 80
2,130358, Note_on_c, 0, 44, 0
2,130401, Note_on_c, 0, 71, 0
2,130457, Control_c, 0, 64, 80
2,130472, Control_c, 0, 64, 81
2,130488, Control_c, 0, 64, 81
2,130500, Note_on_c, 0, 47, 75
2,130518, Control_c, 0, 64, 82
2,130533, Control_c, 0, 64, 82
2,130536, Note_on_c, 0, 46, 0
2,130594, Control_c, 0, 64, 83
2,130648, Control_c, 0, 64, 83
2,130677, Control_c, 0, 64, 84
2,130693, Control_c, 0, 64, 84
2,130708, Control_c, 0, 64, 85
2,130724, Control_c, 0, 64, 84
2,130734, Note_on_c, 0, 78, 92
2,130738, Control_c, 0, 64, 82
2,130739, Note_on_c, 0, 46, 79
2,130740, Note_on_c, 0, 75, 80
2,130753, Control_c, 0, 64, 75
2,130769, Control_c, 0, 64, 64
2,130784, Control_c, 0, 64, 0
2,130791, Note_on_c, 0, 74, 0
2,130841, Note_on_c, 0, 70, 0
2,130862, Note_on_c, 0, 47, 0
2,130914, Note_on_c, 0, 44, 70
2,130952, Note_on_c, 0, 46, 0
2,130997, Control_c, 0, 64, 33
2,131013, Control_c, 0, 64, 53
2,131028, Control_c, 0, 64, 59
2,131043, Control_c, 0, 64, 61
2,131058, Control_c, 0, 64, 63
2,131073, Control_c, 0, 64, 63
2,131081, Note_on_c, 0, 75, 0
2,131088, Control_c, 0, 64, 64
2,131103, Control_c, 0, 64, 64
2,131134, Control_c, 0, 64, 65
2,131164, Control_c, 0, 64, 65
2,131167, Note_on_c, 0, 42, 66
2,131185, Note_on_c, 0, 75, 84
2,131194, Control_c, 0, 64, 66
2,131210, Control_c, 0, 64, 66
2,131220, Note_on_c, 0, 44, 0
2,131225, Control_c, 0, 64, 67
2,131241, Control_c, 0, 64, 67
2,131256, Control_c, 0, 64, 68
2,131271, Control_c, 0, 64, 68
2,131287, Control_c, 0, 64, 69
2,131301, Control_c, 0, 64, 70
2,131316, Control_c, 0, 64, 71
2,131331, Control_c, 0, 64, 72
2,131343, Control_c, 0, 64, 73
2,131358, Control_c, 0, 64, 74
2,131358, Note_on_c, 0, 46, 77
2,131377, Control_c, 0, 64, 75
2,131393, Control_c, 0, 64, 76
2,131408, Control_c, 0, 64, 78
2,131424, Control_c, 0, 64, 79
2,131439, Control_c, 0, 64, 79
2,131453, Control_c, 0, 64, 80
2,131484, Control_c, 0, 64, 81
2,131498, Control_c, 0, 64, 81
2,131514, Control_c, 0, 64, 83
2,131527, Note_on_c, 0, 75, 0
2,131529, Control_c, 0, 64, 84
2,131545, Control_c, 0, 64, 85
2,131553, Note_on_c, 0, 78, 0
2,131560, Control_c, 0, 64, 87
2,131590, Control_c, 0, 64, 82
2,131604, Note_on_c, 0, 77, 86
2,131605, Control_c, 0, 64, 71
2,131612, Note_on_c, 0, 44, 71
2,131614, Note_on_c, 0, 75, 85
2,131622, Control_c, 0, 64, 51
2,131636, Note_on_c, 0, 46, 0
2,131637, Control_c, 0, 64, 0
2,131643, Note_on_c, 0, 42, 0
2,131789, Control_c, 0, 64, 46
2,131803, Control_c, 0, 64, 59
2,131818, Control_c, 0, 64, 63
2,131822, Note_on_c, 0, 42, 78
2,131834, Control_c, 0, 64, 65
2,131849, Control_c, 0, 64, 66
2,131850, Note_on_c, 0, 44, 0
2,131865, Control_c, 0, 64, 67
2,131879, Control_c, 0, 64, 68
2,131894, Control_c, 0, 64, 69
2,131910, Control_c, 0, 64, 70
2,131925, Control_c, 0, 64, 72
2,131940, Control_c, 0, 64, 73
2,131955, Control_c, 0, 64, 73
2,131970, Control_c, 0, 64, 74
2,132030, Control_c, 0, 64, 74
2,132040, Note_on_c, 0, 73, 82
2,132045, Note_on_c, 0, 44, 71
2,132075, Control_c, 0, 64, 75
2,132239, Note_on_c, 0, 46, 71
2,132254, Note_on_c, 0, 72, 79
2,132256, Note_on_c, 0, 75, 0
2,132268, Note_on_c, 0, 44, 0
2,132309, Note_on_c, 0, 73, 0
2,132463, Control_c, 0, 64, 74
2,132475, Note_on_c, 0, 44, 66
2,132479, Control_c, 0, 64, 73
2,132488, Note_on_c, 0, 76, 77
2,132489, Note_on_c, 0, 73, 80
2,132494, Control_c, 0, 64, 69
2,132510, Control_c, 0, 64, 63
2,132524, Control_c, 0, 64, 51
2,132539, Control_c, 0, 64, 36
2,132550, Note_on_c, 0, 72, 0
2,132555, Control_c, 0, 64, 0
2,132565, Note_on_c, 0, 46, 0
2,132568, Note_on_c, 0, 77, 0
2,132679, Note_on_c, 0, 47, 74
2,132721, Control_c, 0, 64, 8
2,132736, Control_c, 0, 64, 41
2,132752, Control_c, 0, 64, 48
2,132766, Control_c, 0, 64, 52
2,132781, Control_c, 0, 64, 57
2,132797, Control_c, 0, 64, 61
2,132798, Note_on_c, 0, 42, 0
2,132812, Control_c, 0, 64, 63
2,132828, Control_c, 0, 64, 64
2,132843, Control_c, 0, 64, 65
2,132858, Control_c, 0, 64, 65
2,132874, Control_c, 0, 64, 66
2,132879, Note_on_c, 0, 44, 0
2,132895, Control_c, 0, 64, 66
2,132908, Note_on_c, 0, 46, 76
2,132987, Control_c, 0, 64, 67
2,133034, Control_c, 0, 64, 67
2,133049, Control_c, 0, 64, 68
2,133075, Note_on_c, 0, 47, 0
2,133109, Control_c, 0, 64, 68
2,133111, Note_on_c, 0, 44, 79
2,133138, Note_on_c, 0, 46, 0
2,133139, Control_c, 0, 64, 69
2,133155, Control_c, 0, 64, 69
2,133170, Control_c, 0, 64, 70
2,133185, Control_c, 0, 64, 71
2,133201, Control_c, 0, 64, 72
2,133215, Control_c, 0, 64, 72
2,133231, Control_c, 0, 64, 73
2,133246, Control_c, 0, 64, 74
2,133262, Control_c, 0, 64, 75
2,133278, Control_c, 0, 64, 77
2,133291, Control_c, 0, 64, 77
2,133305, Control_c, 0, 64, 76
2,133321, Control_c, 0, 64, 72
2,133336, Control_c, 0, 64, 64
2,133351, Control_c, 0, 64, 39
2,133365, Note_on_c, 0, 75, 78
2,133367, Control_c, 0, 64, 0
2,133370, Note_on_c, 0, 43, 81
2,133406, Note_on_c, 0, 44, 0
2,133410, Note_on_c, 0, 53, 0
2,133437, Note_on_c, 0, 73, 0
2,133579, Control_c, 0, 64, 55
2,133595, Control_c, 0, 64, 65
2,133609, Control_c, 0, 64, 70
2,133621, Note_on_c, 0, 73, 65
2,133624, Control_c, 0, 64, 75
2,133640, Control_c, 0, 64, 79
2,133655, Control_c, 0, 64, 83
2,133679, Control_c, 0, 64, 86
2,133691, Note_on_c, 0, 75, 0
2,133693, Control_c, 0, 64, 89
2,133708, Control_c, 0, 64, 91
2,133724, Control_c, 0, 64, 93
2,133739, Control_c, 0, 64, 94
2,133754, Control_c, 0, 64, 94
2,133784, Control_c, 0, 64, 95
2,133815, Control_c, 0, 64, 96
2,133829, Control_c, 0, 64, 98
2,133845, Control_c, 0, 64, 95
2,133850, Note_on_c, 0, 51, 88
2,133860, Control_c, 0, 64, 87
2,133864, Note_on_c, 0, 75, 72
2,133876, Control_c, 0, 64, 74
2,133891, Control_c, 0, 64, 59
2,133905, Control_c, 0, 64, 0
2,133910, Note_on_c, 0, 76, 0
2,133981, Control_c, 0, 64, 37
2,133997, Control_c, 0, 64, 55
2,134012, Control_c, 0, 64, 63
2,134026, Control_c, 0, 64, 68
2,134042, Control_c, 0, 64, 74
2,134057, Control_c, 0, 64, 81
2,134074, Control_c, 0, 64, 87
2,134079, Note_on_c, 0, 76, 64
2,134089, Control_c, 0, 64, 94
2,134104, Control_c, 0, 64, 99
2,134116, Note_on_c, 0, 75, 0
2,134120, Control_c, 0, 64, 102
2,134179, Control_c, 0, 64, 103
2,134210, Control_c, 0, 64, 103
2,134225, Control_c, 0, 64, 104
2,134241, Control_c, 0, 64, 105
2,134253, Note_on_c, 0, 51, 0
2,134256, Control_c, 0, 64, 106
2,134271, Control_c, 0, 64, 103
2,134286, Note_on_c, 0, 56, 90
2,134287, Control_c, 0, 64, 93
2,134288, Note_on_c, 0, 44, 74
2,134302, Control_c, 0, 64, 79
2,134304, Note_on_c, 0, 75, 78
2,134307, Note_on_c, 0, 71, 67
2,134318, Control_c, 0, 64, 63
2,134324, Note_on_c, 0, 43, 0
2,134332, Control_c, 0, 64, 0
2,134337, Note_on_c, 0, 76, 0
2,134346, Note_on_c, 0, 73, 0
2,134446, Control_c, 0, 64, 34
2,134461, Control_c, 0, 64, 59
2,134477, Control_c, 0, 64, 66
2,134491, Control_c, 0, 64, 71
2,134506, Control_c, 0, 64, 78
2,134522, Control_c, 0, 64, 84
2,134536, Note_on_c, 0, 73, 73
2,134537, Control_c, 0, 64, 90
2,134552, Control_c, 0, 64, 96
2,134568, Control_c, 0, 64, 99
2,134583, Control_c, 0, 64, 101
2,134584, Note_on_c, 0, 56, 0
2,134607, Note_on_c, 0, 71, 0
2,134628, Control_c, 0, 64, 101
2,134644, Control_c, 0, 64, 102
2,134659, Control_c, 0, 64, 103
2,134674, Control_c, 0, 64, 104
2,134704, Control_c, 0, 64, 101
2,134719, Control_c, 0, 64, 91
2,134725, Note_on_c, 0, 75, 0
2,134733, Note_on_c, 0, 56, 83
2,134734, Control_c, 0, 64, 77
2,134749, Control_c, 0, 64, 58
2,134749, Note_on_c, 0, 71, 61
2,134765, Control_c, 0, 64, 0
2,134811, Note_on_c, 0, 73, 0
2,134841, Control_c, 0, 64, 28
2,134856, Control_c, 0, 64, 53
2,134870, Control_c, 0, 64, 61
2,134886, Control_c, 0, 64, 65
2,134902, Control_c, 0, 64, 68
2,134918, Control_c, 0, 64, 73
2,134933, Control_c, 0, 64, 77
2,134948, Control_c, 0, 64, 82
2,134952, Note_on_c, 0, 75, 74
2,134964, Control_c, 0, 64, 87
2,134978, Control_c, 0, 64, 91
2,134989, Note_on_c, 0, 56, 0
2,134994, Control_c, 0, 64, 93
2,135009, Control_c, 0, 64, 95
2,135085, Control_c, 0, 64, 95
2,135116, Control_c, 0, 64, 94
2,135131, Control_c, 0, 64, 87
2,135145, Control_c, 0, 64, 75
2,135160, Note_on_c, 0, 56, 83
2,135161, Control_c, 0, 64, 60
2,135169, Note_on_c, 0, 73, 71
2,135171, Note_on_c, 0, 70, 72
2,135172, Note_on_c, 0, 46, 69
2,135176, Control_c, 0, 64, 0
2,135206, Note_on_c, 0, 71, 0
2,135212, Note_on_c, 0, 75, 0
2,135227, Note_on_c, 0, 44, 0
2,135320, Control_c, 0, 64, 40
2,135335, Control_c, 0, 64, 56
2,135350, Control_c, 0, 64, 61
2,135358, Note_on_c, 0, 71, 62
2,135365, Control_c, 0, 64, 64
2,135380, Control_c, 0, 64, 66
2,135396, Control_c, 0, 64, 68
2,135411, Control_c, 0, 64, 70
2,135426, Control_c, 0, 64, 72
2,135427, Note_on_c, 0, 73, 0
2,135441, Control_c, 0, 64, 73
2,135590, Note_on_c, 0, 54, 77
2,135608, Note_on_c, 0, 73, 73
2,135623, Note_on_c, 0, 56, 0
2,135665, Note_on_c, 0, 71, 0
2,135699, Control_c, 0, 64, 72
2,135785, Note_on_c, 0, 75, 76
2,135788, Note_on_c, 0, 52, 79
2,135793, Control_c, 0, 64, 72
2,135820, Note_on_c, 0, 73, 0
2,135822, Note_on_c, 0, 54, 0
2,136013, Control_c, 0, 64, 70
2,136018, Note_on_c, 0, 54, 69
2,136022, Note_on_c, 0, 51, 70
2,136022, Note_on_c, 0, 69, 74
2,136022, Note_on_c, 0, 73, 81
2,136029, Control_c, 0, 64, 68
2,136044, Control_c, 0, 64, 61
2,136056, Note_on_c, 0, 75, 0
2,136059, Control_c, 0, 64, 41
2,136070, Note_on_c, 0, 52, 0
2,136075, Control_c, 0, 64, 0
2,136148, Note_on_c, 0, 70, 0
2,136154, Note_on_c, 0, 46, 0
2,136219, Note_on_c, 0, 76, 79
2,136276, Note_on_c, 0, 73, 0
2,136350, Control_c, 0, 64, 26
2,136364, Control_c, 0, 64, 50
2,136379, Control_c, 0, 64, 57
2,136395, Control_c, 0, 64, 59
2,136409, Control_c, 0, 64, 60
2,136424, Control_c, 0, 64, 61
2,136440, Control_c, 0, 64, 62
2,136455, Control_c, 0, 64, 62
2,136457, Note_on_c, 0, 75, 78
2,136471, Control_c, 0, 64, 63
2,136487, Control_c, 0, 64, 63
2,136503, Control_c, 0, 64, 64
2,136518, Control_c, 0, 64, 65
2,136534, Control_c, 0, 64, 66
2,136550, Control_c, 0, 64, 67
2,136565, Control_c, 0, 64, 68
2,136581, Control_c, 0, 64, 69
2,136595, Control_c, 0, 64, 70
2,136610, Control_c, 0, 64, 71
2,136624, Note_on_c, 0, 76, 0
2,136626, Control_c, 0, 64, 71
2,136638, Note_on_c, 0, 73, 80
2,136640, Control_c, 0, 64, 72
2,136655, Control_c, 0, 64, 72
2,136659, Note_on_c, 0, 75, 0
2,136671, Control_c, 0, 64, 73
2,136702, Control_c, 0, 64, 73
2,136731, Control_c, 0, 64, 74
2,136755, Control_c, 0, 64, 74
2,136770, Control_c, 0, 64, 75
2,136786, Control_c, 0, 64, 76
2,136800, Control_c, 0, 64, 77
2,136831, Control_c, 0, 64, 75
2,136845, Control_c, 0, 64, 69
2,136861, Control_c, 0, 64, 56
2,136874, Note_on_c, 0, 72, 75
2,136875, Note_on_c, 0, 44, 79
2,136876, Control_c, 0, 64, 0
2,136908, Note_on_c, 0, 73, 0
2,137000, Note_on_c, 0, 69, 0
2,137028, Control_c, 0, 64, 30
2,137040, Note_on_c, 0, 69, 18
2,137043, Control_c, 0, 64, 55
2,137057, Control_c, 0, 64, 63
2,137073, Control_c, 0, 64, 66
2,137080, Note_on_c, 0, 44, 0
2,137088, Control_c, 0, 64, 68
2,137097, Note_on_c, 0, 57, 79
2,137104, Control_c, 0, 64, 69
2,137119, Control_c, 0, 64, 71
2,137134, Control_c, 0, 64, 72
2,137143, Note_on_c, 0, 54, 0
2,137150, Control_c, 0, 64, 72
2,137233, Note_on_c, 0, 51, 0
2,137309, Note_on_c, 0, 56, 74
2,137309, Note_on_c, 0, 63, 83
2,137343, Note_on_c, 0, 57, 0
2,137344, Note_on_c, 0, 69, 0
2,137499, Control_c, 0, 64, 73
2,137502, Note_on_c, 0, 54, 67
2,137523, Control_c, 0, 64, 73
2,137537, Control_c, 0, 64, 74
2,137553, Control_c, 0, 64, 74
2,137567, Note_on_c, 0, 56, 0
2,137568, Control_c, 0, 64, 75
2,137584, Control_c, 0, 64, 76
2,137599, Control_c, 0, 64, 77
2,137613, Control_c, 0, 64, 78
2,137629, Control_c, 0, 64, 80
2,137644, Control_c, 0, 64, 82
2,137659, Control_c, 0, 64, 84
2,137675, Control_c, 0, 64, 86
2,137689, Control_c, 0, 64, 81
2,137705, Control_c, 0, 64, 70
2,137720, Control_c, 0, 64, 52
2,137730, Note_on_c, 0, 53, 73
2,137735, Control_c, 0, 64, 0
2,137736, Note_on_c, 0, 68, 81
2,137741, Note_on_c, 0, 71, 77
2,137766, Note_on_c, 0, 72, 0
2,137824, Note_on_c, 0, 54, 0
2,137838, Note_on_c, 0, 63, 0
2,137902, Control_c, 0, 64, 44
2,137917, Control_c, 0, 64, 56
2,137932, Control_c, 0, 64, 61
2,137938, Note_on_c, 0, 51, 77
2,137948, Control_c, 0, 64, 63
2,137963, Control_c, 0, 64, 65
2,137978, Control_c, 0, 64, 67
2,137988, Note_on_c, 0, 53, 0
2,137994, Control_c, 0, 64, 68
2,138009, Control_c, 0, 64, 69
2,138016, Note_on_c, 0, 68, 0
2,138024, Control_c, 0, 64, 70
2,138161, Control_c, 0, 64, 70
2,138162, Note_on_c, 0, 53, 74
2,138171, Note_on_c, 0, 68, 84
2,138268, Control_c, 0, 64, 71
2,138290, Control_c, 0, 64, 72
2,138306, Control_c, 0, 64, 73
2,138321, Control_c, 0, 64, 76
2,138336, Control_c, 0, 64, 79
2,138351, Control_c, 0, 64, 82
2,138360, Note_on_c, 0, 49, 82
2,138366, Control_c, 0, 64, 85
2,138382, Control_c, 0, 64, 88
2,138384, Note_on_c, 0, 51, 0
2,138390, Note_on_c, 0, 53, 0
2,138397, Control_c, 0, 64, 90
2,138412, Control_c, 0, 64, 93
2,138417, Note_on_c, 0, 68, 0
2,138428, Control_c, 0, 64, 96
2,138443, Control_c, 0, 64, 97
2,138457, Control_c, 0, 64, 98
2,138473, Control_c, 0, 64, 98
2,138488, Control_c, 0, 64, 99
2,138504, Control_c, 0, 64, 99
2,138519, Control_c, 0, 64, 100
2,138533, Control_c, 0, 64, 99
2,138549, Control_c, 0, 64, 90
2,138564, Control_c, 0, 64, 77
2,138579, Control_c, 0, 64, 62
2,138595, Control_c, 0, 64, 0
2,138597, Note_on_c, 0, 54, 83
2,138600, Note_on_c, 0, 68, 87
2,138601, Note_on_c, 0, 70, 88
2,138630, Note_on_c, 0, 71, 0
2,138678, Note_on_c, 0, 49, 0
2,138746, Control_c, 0, 64, 38
2,138761, Control_c, 0, 64, 50
2,138776, Control_c, 0, 64, 55
2,138792, Control_c, 0, 64, 59
2,138795, Note_on_c, 0, 53, 81
2,138807, Control_c, 0, 64, 61
2,138822, Control_c, 0, 64, 62
2,138835, Note_on_c, 0, 54, 0
2,138837, Control_c, 0, 64, 63
2,138898, Control_c, 0, 64, 62
2,138914, Control_c, 0, 64, 62
2,138929, Control_c, 0, 64, 61
2,138959, Control_c, 0, 64, 61
2,138990, Control_c, 0, 64, 60
2,139011, Note_on_c, 0, 54, 84
2,139021, Control_c, 0, 64, 60
2,139021, Note_on_c, 0, 66, 88
2,139074, Control_c, 0, 64, 59
2,139089, Control_c, 0, 64, 59
2,139150, Control_c, 0, 64, 58
2,139156, Note_on_c, 0, 53, 0
2,139231, Note_on_c, 0, 56, 76
2,139241, Note_on_c, 0, 65, 85
2,139280, Note_on_c, 0, 68, 0
2,139288, Note_on_c, 0, 70, 0
2,139304, Note_on_c, 0, 66, 0
2,139334, Control_c, 0, 64, 59
2,139425, Control_c, 0, 64, 58
2,139440, Control_c, 0, 64, 56
2,139455, Control_c, 0, 64, 50
2,139468, Note_on_c, 0, 66, 83
2,139470, Control_c, 0, 64, 27
2,139470, Note_on_c, 0, 69, 76
2,139479, Note_on_c, 0, 57, 83
2,139485, Control_c, 0, 64, 0
2,139512, Note_on_c, 0, 65, 0
2,139521, Note_on_c, 0, 54, 0
2,139552, Note_on_c, 0, 56, 0
2,139680, Note_on_c, 0, 56, 84
2,139699, Control_c, 0, 64, 34
2,139713, Control_c, 0, 64, 52
2,139728, Control_c, 0, 64, 58
2,139740, Note_on_c, 0, 57, 0
2,139744, Control_c, 0, 64, 61
2,139759, Control_c, 0, 64, 63
2,139775, Control_c, 0, 64, 64
2,139789, Control_c, 0, 64, 67
2,139804, Control_c, 0, 64, 69
2,139828, Control_c, 0, 64, 72
2,139843, Control_c, 0, 64, 76
2,139859, Control_c, 0, 64, 79
2,139874, Control_c, 0, 64, 82
2,139889, Control_c, 0, 64, 84
2,139904, Control_c, 0, 64, 86
2,139919, Control_c, 0, 64, 88
2,139931, Note_on_c, 0, 57, 97
2,139935, Control_c, 0, 64, 89
2,139949, Control_c, 0, 64, 90
2,139964, Control_c, 0, 64, 91
2,139977, Note_on_c, 0, 56, 0
2,140010, Control_c, 0, 64, 91
2,140041, Control_c, 0, 64, 92
2,140057, Control_c, 0, 64, 94
2,140071, Control_c, 0, 64, 95
2,140086, Control_c, 0, 64, 97
2,140102, Control_c, 0, 64, 97
2,140113, Note_on_c, 0, 57, 0
2,140117, Control_c, 0, 64, 98
2,140162, Control_c, 0, 64, 98
2,140164, Note_on_c, 0, 59, 92
2,140211, Control_c, 0, 64, 99
2,140225, Control_c, 0, 64, 100
2,140240, Control_c, 0, 64, 101
2,140256, Control_c, 0, 64, 103
2,140271, Control_c, 0, 64, 106
2,140285, Control_c, 0, 64, 108
2,140301, Control_c, 0, 64, 110
2,140316, Control_c, 0, 64, 110
2,140334, Control_c, 0, 64, 111
2,140349, Control_c, 0, 64, 111
2,140364, Control_c, 0, 64, 112
2,140379, Control_c, 0, 64, 113
2,140394, Control_c, 0, 64, 114
2,140410, Control_c, 0, 64, 114
2,140440, Control_c, 0, 64, 117
2,140455, Control_c, 0, 64, 122
2,140470, Control_c, 0, 64, 127
2,140507, Note_on_c, 0, 66, 0
2,140524, Note_on_c, 0, 37, 99
2,140526, Note_on_c, 0, 66, 50
2,140531, Note_on_c, 0, 61, 88
2,140532, Control_c, 0, 64, 108
2,140532, Note_on_c, 0, 68, 80
2,140547, Control_c, 0, 64, 92
2,140562, Control_c, 0, 64, 77
2,140572, Note_on_c, 0, 59, 0
2,140577, Control_c, 0, 64, 63
2,140600, Control_c, 0, 64, 0
2,140628, Note_on_c, 0, 69, 0
2,140813, Control_c, 0, 64, 49
2,140828, Control_c, 0, 64, 61
2,140844, Control_c, 0, 64, 64
2,140859, Control_c, 0, 64, 67
2,140874, Control_c, 0, 64, 68
2,140890, Control_c, 0, 64, 69
2,140899, Note_on_c, 0, 60, 79
2,140920, Control_c, 0, 64, 69
2,140935, Control_c, 0, 64, 70
2,140940, Note_on_c, 0, 61, 0
2,140950, Control_c, 0, 64, 71
2,140966, Control_c, 0, 64, 72
2,141071, Control_c, 0, 64, 72
2,141124, Note_on_c, 0, 61, 87
2,141131, Note_on_c, 0, 66, 0
2,141180, Note_on_c, 0, 60, 0
2,141223, Control_c, 0, 64, 72
2,141254, Control_c, 0, 64, 73
2,141314, Note_on_c, 0, 63, 88
2,141330, Control_c, 0, 64, 74
2,141345, Control_c, 0, 64, 75
2,141365, Note_on_c, 0, 61, 0
2,141368, Control_c, 0, 64, 76
2,141383, Control_c, 0, 64, 77
2,141398, Control_c, 0, 64, 79
2,141413, Control_c, 0, 64, 80
2,141428, Control_c, 0, 64, 81
2,141444, Control_c, 0, 64, 83
2,141460, Control_c, 0, 64, 84
2,141475, Control_c, 0, 64, 84
2,141491, Control_c, 0, 64, 77
2,141506, Control_c, 0, 64, 65
2,141521, Control_c, 0, 64, 21
2,141536, Control_c, 0, 64, 0
2,141546, Note_on_c, 0, 64, 86
2,141629, Note_on_c, 0, 63, 0
2,141657, Control_c, 0, 64, 36
2,141672, Control_c, 0, 64, 58
2,141688, Control_c, 0, 64, 64
2,141703, Control_c, 0, 64, 67
2,141717, Control_c, 0, 64, 69
2,141733, Control_c, 0, 64, 72
2,141748, Control_c, 0, 64, 73
2,141760, Note_on_c, 0, 63, 76
2,141764, Control_c, 0, 64, 75
2,141779, Control_c, 0, 64, 76
2,141794, Control_c, 0, 64, 77
2,141810, Control_c, 0, 64, 78
2,141818, Note_on_c, 0, 64, 0
2,141825, Control_c, 0, 64, 79
2,141840, Control_c, 0, 64, 81
2,141855, Control_c, 0, 64, 83
2,141870, Control_c, 0, 64, 85
2,141886, Control_c, 0, 64, 87
2,141901, Control_c, 0, 64, 90
2,141915, Control_c, 0, 64, 92
2,141931, Control_c, 0, 64, 95
2,141946, Control_c, 0, 64, 97
2,141962, Control_c, 0, 64, 99
2,141970, Note_on_c, 0, 64, 87
2,141976, Control_c, 0, 64, 100
2,141991, Control_c, 0, 64, 102
2,142007, Control_c, 0, 64, 103
2,142022, Control_c, 0, 64, 105
2,142037, Control_c, 0, 64, 106
2,142052, Control_c, 0, 64, 107
2,142067, Control_c, 0, 64, 108
2,142078, Note_on_c, 0, 63, 0
2,142083, Control_c, 0, 64, 109
2,142088, Note_on_c, 0, 68, 0
2,142097, Control_c, 0, 64, 111
2,142112, Control_c, 0, 64, 113
2,142136, Control_c, 0, 64, 116
2,142151, Control_c, 0, 64, 119
2,142167, Control_c, 0, 64, 121
2,142170, Note_on_c, 0, 66, 82
2,142181, Control_c, 0, 64, 122
2,142196, Control_c, 0, 64, 124
2,142212, Control_c, 0, 64, 127
2,142379, Control_c, 0, 64, 108
2,142388, Note_on_c, 0, 37, 0
2,142394, Control_c, 0, 64, 86
2,142407, Note_on_c, 0, 36, 96
2,142409, Control_c, 0, 64, 68
2,142424, Control_c, 0, 64, 0
2,142438, Note_on_c, 0, 63, 76
2,142440, Note_on_c, 0, 68, 75
2,142454, Note_on_c, 0, 38, 30
2,142455, Note_on_c, 0, 38, 0
2,142473, Note_on_c, 0, 64, 0
2,142482, Note_on_c, 0, 66, 0
2,142577, Control_c, 0, 64, 23
2,142592, Control_c, 0, 64, 55
2,142607, Control_c, 0, 64, 62
2,142622, Control_c, 0, 64, 65
2,142637, Control_c, 0, 64, 67
2,142651, Note_on_c, 0, 66, 68
2,142653, Control_c, 0, 64, 68
2,142668, Control_c, 0, 64, 70
2,142684, Control_c, 0, 64, 73
2,142695, Note_on_c, 0, 68, 0
2,142698, Control_c, 0, 64, 76
2,142713, Control_c, 0, 64, 79
2,142729, Control_c, 0, 64, 80
2,142743, Control_c, 0, 64, 82
2,142758, Control_c, 0, 64, 83
2,142789, Control_c, 0, 64, 83
2,142805, Control_c, 0, 64, 84
2,142819, Control_c, 0, 64, 85
2,142834, Control_c, 0, 64, 86
2,142850, Control_c, 0, 64, 87
2,142865, Control_c, 0, 64, 87
2,142871, Note_on_c, 0, 44, 93
2,142881, Control_c, 0, 64, 88
2,142897, Note_on_c, 0, 68, 73
2,142903, Control_c, 0, 64, 88
2,142918, Control_c, 0, 64, 89
2,142934, Control_c, 0, 64, 91
2,142948, Control_c, 0, 64, 94
2,142964, Control_c, 0, 64, 96
2,142979, Control_c, 0, 64, 98
2,142994, Control_c, 0, 64, 100
2,143011, Control_c, 0, 64, 102
2,143025, Control_c, 0, 64, 104
2,143041, Control_c, 0, 64, 106
2,143056, Control_c, 0, 64, 109
2,143066, Note_on_c, 0, 66, 0
2,143071, Control_c, 0, 64, 110
2,143081, Note_on_c, 0, 69, 69
2,143087, Control_c, 0, 64, 111
2,143118, Control_c, 0, 64, 111
2,143122, Note_on_c, 0, 68, 0
2,143148, Control_c, 0, 64, 112
2,143178, Control_c, 0, 64, 113
2,143193, Control_c, 0, 64, 114
2,143209, Control_c, 0, 64, 115
2,143224, Control_c, 0, 64, 116
2,143240, Control_c, 0, 64, 118
2,143254, Control_c, 0, 64, 119
2,143269, Control_c, 0, 64, 116
2,143270, Note_on_c, 0, 44, 0
2,143285, Control_c, 0, 64, 104
2,143300, Control_c, 0, 64, 89
2,143315, Control_c, 0, 64, 72
2,143320, Note_on_c, 0, 40, 84
2,143323, Note_on_c, 0, 49, 93
2,143330, Control_c, 0, 64, 48
2,143339, Note_on_c, 0, 36, 0
2,143341, Note_on_c, 0, 61, 72
2,143345, Control_c, 0, 64, 0
2,143347, Note_on_c, 0, 68, 69
2,143381, Note_on_c, 0, 63, 0
2,143512, Control_c, 0, 64, 28
2,143528, Control_c, 0, 64, 50
2,143543, Control_c, 0, 64, 56
2,143552, Note_on_c, 0, 66, 65
2,143558, Control_c, 0, 64, 59
2,143574, Control_c, 0, 64, 61
2,143588, Control_c, 0, 64, 63
2,143589, Note_on_c, 0, 49, 0
2,143604, Control_c, 0, 64, 64
2,143619, Control_c, 0, 64, 65
2,143634, Control_c, 0, 64, 65
2,143671, Control_c, 0, 64, 66
2,143675, Note_on_c, 0, 69, 0
2,143702, Control_c, 0, 64, 67
2,143717, Control_c, 0, 64, 68
2,143733, Control_c, 0, 64, 70
2,143748, Control_c, 0, 64, 72
2,143764, Control_c, 0, 64, 73
2,143765, Note_on_c, 0, 68, 0
2,143777, Control_c, 0, 64, 75
2,143791, Control_c, 0, 64, 76
2,143791, Note_on_c, 0, 49, 90
2,143795, Note_on_c, 0, 64, 65
2,143841, Note_on_c, 0, 66, 0
2,143882, Control_c, 0, 64, 76
2,143970, Note_on_c, 0, 61, 0
2,143990, Control_c, 0, 64, 77
2,144023, Note_on_c, 0, 68, 68
2,144081, Control_c, 0, 64, 78
2,144085, Note_on_c, 0, 49, 0
2,144096, Control_c, 0, 64, 79
2,144111, Control_c, 0, 64, 80
2,144127, Control_c, 0, 64, 82
2,144142, Control_c, 0, 64, 83
2,144157, Control_c, 0, 64, 85
2,144172, Control_c, 0, 64, 87
2,144187, Control_c, 0, 64, 89
2,144202, Control_c, 0, 64, 88
2,144217, Control_c, 0, 64, 77
2,144232, Control_c, 0, 64, 64
2,144233, Note_on_c, 0, 39, 85
2,144235, Note_on_c, 0, 49, 90
2,144248, Control_c, 0, 64, 0
2,144248, Note_on_c, 0, 66, 72
2,144254, Note_on_c, 0, 64, 0
2,144263, Note_on_c, 0, 63, 43
2,144330, Note_on_c, 0, 40, 0
2,144389, Note_on_c, 0, 68, 0
2,144416, Control_c, 0, 64, 47
2,144437, Control_c, 0, 64, 59
2,144453, Control_c, 0, 64, 63
2,144468, Control_c, 0, 64, 64
2,144470, Note_on_c, 0, 64, 62
2,144483, Control_c, 0, 64, 66
2,144499, Control_c, 0, 64, 68
2,144506, Note_on_c, 0, 66, 0
2,144513, Control_c, 0, 64, 71
2,144529, Control_c, 0, 64, 75
2,144544, Control_c, 0, 64, 78
2,144559, Control_c, 0, 64, 81
2,144575, Control_c, 0, 64, 84
2,144581, Note_on_c, 0, 49, 0
2,144586, Note_on_c, 0, 46, 31
2,144589, Control_c, 0, 64, 85
2,144604, Control_c, 0, 64, 87
2,144620, Control_c, 0, 64, 86
2,144635, Control_c, 0, 64, 80
2,144651, Control_c, 0, 64, 70
2,144653, Note_on_c, 0, 46, 0
2,144666, Control_c, 0, 64, 52
2,144666, Note_on_c, 0, 48, 88
2,144681, Control_c, 0, 64, 0
2,144696, Note_on_c, 0, 66, 68
2,144819, Control_c, 0, 64, 41
2,144834, Control_c, 0, 64, 54
2,144850, Control_c, 0, 64, 60
2,144864, Control_c, 0, 64, 63
2,144879, Control_c, 0, 64, 64
2,144890, Note_on_c, 0, 46, 84
2,144895, Control_c, 0, 64, 64
2,144909, Note_on_c, 0, 68, 62
2,144927, Note_on_c, 0, 64, 0
2,144945, Note_on_c, 0, 66, 0
2,144949, Note_on_c, 0, 48, 0
2,144971, Control_c, 0, 64, 65
2,144986, Control_c, 0, 64, 65
2,145001, Control_c, 0, 64, 66
2,145016, Control_c, 0, 64, 68
2,145031, Control_c, 0, 64, 70
2,145047, Control_c, 0, 64, 72
2,145061, Control_c, 0, 64, 71
2,145076, Control_c, 0, 64, 67
2,145092, Control_c, 0, 64, 60
2,145107, Control_c, 0, 64, 34
2,145122, Control_c, 0, 64, 0
2,145125, Note_on_c, 0, 48, 86
2,145142, Note_on_c, 0, 66, 72
2,145180, Note_on_c, 0, 68, 0
2,145199, Note_on_c, 0, 46, 0
2,145260, Note_on_c, 0, 63, 0
2,145328, Control_c, 0, 64, 25
2,145343, Control_c, 0, 64, 54
2,145351, Note_on_c, 0, 64, 69
2,145357, Control_c, 0, 64, 62
2,145373, Control_c, 0, 64, 67
2,145388, Control_c, 0, 64, 70
2,145398, Note_on_c, 0, 66, 0
2,145402, Control_c, 0, 64, 74
2,145418, Control_c, 0, 64, 77
2,145433, Control_c, 0, 64, 80
2,145449, Control_c, 0, 64, 83
2,145464, Control_c, 0, 64, 86
2,145479, Control_c, 0, 64, 89
2,145495, Control_c, 0, 64, 91
2,145510, Control_c, 0, 64, 93
2,145525, Control_c, 0, 64, 94
2,145572, Control_c, 0, 64, 94
2,145577, Note_on_c, 0, 63, 76
2,145601, Control_c, 0, 64, 95
2,145618, Note_on_c, 0, 64, 0
2,145619, Note_on_c, 0, 48, 0
2,145632, Control_c, 0, 64, 95
2,145648, Control_c, 0, 64, 96
2,145663, Control_c, 0, 64, 97
2,145678, Control_c, 0, 64, 98
2,145694, Control_c, 0, 64, 99
2,145708, Control_c, 0, 64, 100
2,145756, Control_c, 0, 64, 101
2,145766, Note_on_c, 0, 66, 82
2,145804, Note_on_c, 0, 63, 0
2,145817, Control_c, 0, 64, 101
2,145862, Control_c, 0, 64, 102
2,145907, Control_c, 0, 64, 102
2,145923, Control_c, 0, 64, 103
2,145938, Control_c, 0, 64, 103
2,145953, Control_c, 0, 64, 104
2,145977, Control_c, 0, 64, 102
2,145991, Control_c, 0, 64, 94
2,146007, Control_c, 0, 64, 78
2,146011, Note_on_c, 0, 37, 83
2,146017, Note_on_c, 0, 49, 90
2,146017, Note_on_c, 0, 73, 88
2,146022, Control_c, 0, 64, 62
2,146031, Note_on_c, 0, 64, 77
2,146037, Control_c, 0, 64, 0
2,146067, Note_on_c, 0, 39, 0
2,146101, Note_on_c, 0, 66, 0
2,146161, Control_c, 0, 64, 38
2,146176, Control_c, 0, 64, 55
2,146191, Control_c, 0, 64, 61
2,146206, Control_c, 0, 64, 63
2,146221, Control_c, 0, 64, 64
2,146237, Control_c, 0, 64, 65
2,146251, Control_c, 0, 64, 65
2,146256, Note_on_c, 0, 63, 66
2,146260, Note_on_c, 0, 37, 0
2,146282, Control_c, 0, 64, 65
2,146355, Note_on_c, 0, 64, 0
2,146358, Control_c, 0, 64, 65
2,146446, Note_on_c, 0, 37, 86
2,146475, Note_on_c, 0, 64, 72
2,146496, Control_c, 0, 64, 66
2,146587, Control_c, 0, 64, 66
2,146633, Control_c, 0, 64, 67
2,146633, Note_on_c, 0, 39, 79
2,146649, Note_on_c, 0, 63, 0
2,146655, Note_on_c, 0, 66, 73
2,146663, Control_c, 0, 64, 67
2,146681, Note_on_c, 0, 37, 0
2,146716, Note_on_c, 0, 64, 0
2,146762, Control_c, 0, 64, 68
2,146793, Control_c, 0, 64, 69
2,146808, Control_c, 0, 64, 70
2,146823, Control_c, 0, 64, 71
2,146838, Control_c, 0, 64, 70
2,146853, Control_c, 0, 64, 67
2,146868, Control_c, 0, 64, 57
2,146881, Note_on_c, 0, 40, 72
2,146884, Control_c, 0, 64, 0
2,146894, Note_on_c, 0, 64, 75
2,146925, Note_on_c, 0, 39, 0
2,146965, Note_on_c, 0, 66, 0
2,147110, Note_on_c, 0, 63, 80
2,147120, Note_on_c, 0, 64, 0
2,147126, Control_c, 0, 64, 38
2,147141, Control_c, 0, 64, 53
2,147157, Control_c, 0, 64, 58
2,147171, Control_c, 0, 64, 60
2,147186, Control_c, 0, 64, 60
2,147203, Control_c, 0, 64, 61
2,147218, Control_c, 0, 64, 62
2,147234, Control_c, 0, 64, 64
2,147249, Control_c, 0, 64, 66
2,147264, Control_c, 0, 64, 70
2,147279, Control_c, 0, 64, 74
2,147294, Control_c, 0, 64, 76
2,147309, Control_c, 0, 64, 72
2,147310, Note_on_c, 0, 42, 85
2,147318, Note_on_c, 0, 61, 85
2,147324, Control_c, 0, 64, 64
2,147329, Note_on_c, 0, 63, 0
2,147339, Control_c, 0, 64, 32
2,147348, Note_on_c, 0, 40, 0
2,147355, Control_c, 0, 64, 0
2,147447, Control_c, 0, 64, 46
2,147461, Control_c, 0, 64, 61
2,147477, Control_c, 0, 64, 65
2,147492, Control_c, 0, 64, 69
2,147512, Control_c, 0, 64, 73
2,147527, Note_on_c, 0, 64, 82
2,147528, Control_c, 0, 64, 77
2,147533, Note_on_c, 0, 73, 0
2,147542, Control_c, 0, 64, 82
2,147557, Control_c, 0, 64, 87
2,147560, Note_on_c, 0, 61, 0
2,147573, Control_c, 0, 64, 91
2,147588, Control_c, 0, 64, 92
2,147649, Control_c, 0, 64, 94
2,147664, Control_c, 0, 64, 96
2,147680, Control_c, 0, 64, 101
2,147695, Control_c, 0, 64, 107
2,147710, Control_c, 0, 64, 110
2,147726, Control_c, 0, 64, 108
2,147740, Control_c, 0, 64, 96
2,147755, Control_c, 0, 64, 82
2,147766, Note_on_c, 0, 72, 77
2,147771, Control_c, 0, 64, 66
2,147781, Note_on_c, 0, 63, 89
2,147786, Control_c, 0, 64, 24
2,147791, Note_on_c, 0, 44, 75
2,147802, Control_c, 0, 64, 0
2,147823, Note_on_c, 0, 64, 0
2,147832, Note_on_c, 0, 42, 0
2,147838, Note_on_c, 0, 49, 0
2,147876, Control_c, 0, 64, 20
2,147892, Control_c, 0, 64, 40
2,147907, Control_c, 0, 64, 51
2,147923, Control_c, 0, 64, 58
2,147937, Control_c, 0, 64, 62
2,147952, Control_c, 0, 64, 64
2,147968, Control_c, 0, 64, 66
2,147979, Note_on_c, 0, 42, 76
2,147983, Control_c, 0, 64, 67
2,147998, Control_c, 0, 64, 68
2,148015, Control_c, 0, 64, 68
2,148029, Note_on_c, 0, 44, 0
2,148045, Control_c, 0, 64, 68
2,148075, Control_c, 0, 64, 67
2,148090, Control_c, 0, 64, 67
2,148121, Control_c, 0, 64, 66
2,148166, Control_c, 0, 64, 66
2,148225, Note_on_c, 0, 68, 86
2,148228, Note_on_c, 0, 44, 80
2,148244, Note_on_c, 0, 63, 0
2,148424, Note_on_c, 0, 45, 75
2,148463, Note_on_c, 0, 44, 0
2,148506, Control_c, 0, 64, 65
2,148597, Control_c, 0, 64, 64
2,148613, Control_c, 0, 64, 61
2,148628, Control_c, 0, 64, 53
2,148643, Control_c, 0, 64, 43
2,148647, Note_on_c, 0, 76, 90
2,148651, Note_on_c, 0, 73, 81
2,148658, Control_c, 0, 64, 23
2,148669, Note_on_c, 0, 44, 74
2,148673, Control_c, 0, 64, 0
2,148674, Note_on_c, 0, 72, 0
2,148681, Note_on_c, 0, 42, 0
2,148750, Note_on_c, 0, 45, 0
2,148794, Control_c, 0, 64, 14
2,148810, Control_c, 0, 64, 36
2,148826, Control_c, 0, 64, 49
2,148841, Control_c, 0, 64, 57
2,148857, Control_c, 0, 64, 60
2,148863, Note_on_c, 0, 42, 75
2,148872, Control_c, 0, 64, 62
2,148887, Control_c, 0, 64, 62
2,148902, Control_c, 0, 64, 63
2,148917, Control_c, 0, 64, 63
2,148932, Control_c, 0, 64, 64
2,148938, Note_on_c, 0, 73, 0
2,148945, Note_on_c, 0, 44, 0
2,149062, Control_c, 0, 64, 64
2,149101, Note_on_c, 0, 40, 70
2,149106, Note_on_c, 0, 73, 81
2,149128, Note_on_c, 0, 42, 0
2,149216, Note_on_c, 0, 68, 0
2,149285, Note_on_c, 0, 44, 76
2,149335, Control_c, 0, 64, 65
2,149365, Control_c, 0, 64, 65
2,149381, Control_c, 0, 64, 66
2,149395, Control_c, 0, 64, 67
2,149399, Note_on_c, 0, 73, 0
2,149411, Control_c, 0, 64, 69
2,149426, Control_c, 0, 64, 71
2,149441, Control_c, 0, 64, 74
2,149457, Control_c, 0, 64, 76
2,149471, Control_c, 0, 64, 77
2,149487, Control_c, 0, 64, 74
2,149502, Control_c, 0, 64, 69
2,149513, Note_on_c, 0, 42, 80
2,149514, Note_on_c, 0, 73, 84
2,149515, Note_on_c, 0, 75, 87
2,149517, Control_c, 0, 64, 60
2,149533, Control_c, 0, 64, 25
2,149547, Control_c, 0, 64, 0
2,149554, Note_on_c, 0, 76, 0
2,149560, Note_on_c, 0, 40, 0
2,149715, Note_on_c, 0, 40, 72
2,149728, Note_on_c, 0, 44, 0
2,149749, Note_on_c, 0, 42, 0
2,149891, Control_c, 0, 64, 12
2,149905, Control_c, 0, 64, 15
2,149921, Control_c, 0, 64, 18
2,149937, Control_c, 0, 64, 20
2,149949, Note_on_c, 0, 42, 73
2,149950, Control_c, 0, 64, 21
2,149952, Note_on_c, 0, 72, 77
2,149965, Control_c, 0, 64, 22
2,149982, Note_on_c, 0, 73, 0
2,149995, Control_c, 0, 64, 23
2,150147, Control_c, 0, 64, 22
2,150153, Note_on_c, 0, 44, 71
2,150158, Note_on_c, 0, 70, 75
2,150174, Note_on_c, 0, 42, 0
2,150178, Control_c, 0, 64, 20
2,150192, Control_c, 0, 64, 8
2,150203, Note_on_c, 0, 72, 0
2,150207, Control_c, 0, 64, 0
2,150371, Note_on_c, 0, 42, 73
2,150378, Note_on_c, 0, 40, 0
2,150378, Note_on_c, 0, 72, 79
2,150587, Note_on_c, 0, 40, 71
2,150587, Note_on_c, 0, 73, 77
2,150609, Control_c, 0, 64, 8
2,150611, Note_on_c, 0, 44, 0
2,150624, Control_c, 0, 64, 15
2,150636, Note_on_c, 0, 75, 0
2,150639, Control_c, 0, 64, 20
2,150654, Control_c, 0, 64, 25
2,150670, Control_c, 0, 64, 30
2,150684, Control_c, 0, 64, 36
2,150699, Control_c, 0, 64, 39
2,150715, Control_c, 0, 64, 41
2,150730, Control_c, 0, 64, 42
2,150791, Control_c, 0, 64, 42
2,150793, Note_on_c, 0, 75, 85
2,150798, Note_on_c, 0, 39, 79
2,150798, Note_on_c, 0, 42, 0
2,150818, Note_on_c, 0, 72, 0
2,150844, Note_on_c, 0, 40, 0
2,150867, Control_c, 0, 64, 43
2,150868, Note_on_c, 0, 73, 0
2,150915, Note_on_c, 0, 70, 0
2,150927, Control_c, 0, 64, 43
2,150943, Control_c, 0, 64, 44
2,150987, Note_on_c, 0, 42, 81
2,150992, Note_on_c, 0, 72, 78
2,151018, Control_c, 0, 64, 44
2,151064, Control_c, 0, 64, 45
2,151079, Control_c, 0, 64, 46
2,151094, Control_c, 0, 64, 48
2,151110, Control_c, 0, 64, 50
2,151125, Control_c, 0, 64, 54
2,151128, Note_on_c, 0, 39, 0
2,151141, Control_c, 0, 64, 56
2,151155, Control_c, 0, 64, 55
2,151170, Control_c, 0, 64, 50
2,151186, Control_c, 0, 64, 41
2,151201, Control_c, 0, 64, 19
2,151215, Note_on_c, 0, 40, 80
2,151216, Control_c, 0, 64, 0
2,151230, Note_on_c, 0, 68, 77
2,151265, Note_on_c, 0, 42, 0
2,151363, Note_on_c, 0, 72, 0
2,151391, Control_c, 0, 64, 32
2,151406, Control_c, 0, 64, 60
2,151422, Control_c, 0, 64, 67
2,151437, Control_c, 0, 64, 72
2,151452, Control_c, 0, 64, 78
2,151458, Note_on_c, 0, 66, 73
2,151467, Control_c, 0, 64, 83
2,151482, Control_c, 0, 64, 85
2,151497, Control_c, 0, 64, 87
2,151502, Note_on_c, 0, 68, 0
2,151513, Control_c, 0, 64, 87
2,151558, Control_c, 0, 64, 87
2,151573, Control_c, 0, 64, 87
2,151603, Control_c, 0, 64, 88
2,151618, Control_c, 0, 64, 89
2,151649, Control_c, 0, 64, 89
2,151664, Control_c, 0, 64, 85
2,151679, Control_c, 0, 64, 78
2,151694, Control_c, 0, 64, 68
2,151710, Control_c, 0, 64, 51
2,151724, Note_on_c, 0, 68, 69
2,151725, Control_c, 0, 64, 0
2,151742, Note_on_c, 0, 52, 92
2,151747, Note_on_c, 0, 66, 0
2,151815, Control_c, 0, 64, 16
2,151831, Control_c, 0, 64, 54
2,151846, Control_c, 0, 64, 64
2,151862, Control_c, 0, 64, 71
2,151872, Note_on_c, 0, 40, 0
2,151877, Control_c, 0, 64, 78
2,151892, Control_c, 0, 64, 87
2,151908, Control_c, 0, 64, 99
2,151922, Control_c, 0, 64, 112
2,151924, Note_on_c, 0, 75, 0
2,151932, Note_on_c, 0, 69, 72
2,151937, Control_c, 0, 64, 116
2,151953, Control_c, 0, 64, 114
2,151962, Note_on_c, 0, 68, 0
2,151984, Control_c, 0, 64, 115
2,151998, Control_c, 0, 64, 116
2,152013, Control_c, 0, 64, 118
2,152029, Control_c, 0, 64, 121
2,152044, Control_c, 0, 64, 127
2,152159, Control_c, 0, 64, 105
2,152174, Control_c, 0, 64, 86
2,152189, Control_c, 0, 64, 68
2,152190, Note_on_c, 0, 57, 90
2,152197, Note_on_c, 0, 73, 69
2,152204, Control_c, 0, 64, 43
2,152210, Note_on_c, 0, 68, 65
2,152219, Control_c, 0, 64, 0
2,152229, Note_on_c, 0, 52, 0
2,152238, Note_on_c, 0, 69, 0
2,152280, Control_c, 0, 64, 41
2,152295, Control_c, 0, 64, 57
2,152311, Control_c, 0, 64, 64
2,152326, Control_c, 0, 64, 69
2,152342, Control_c, 0, 64, 74
2,152356, Control_c, 0, 64, 80
2,152371, Control_c, 0, 64, 86
2,152387, Control_c, 0, 64, 91
2,152399, Note_on_c, 0, 66, 65
2,152402, Control_c, 0, 64, 98
2,152417, Control_c, 0, 64, 103
2,152432, Control_c, 0, 64, 106
2,152447, Control_c, 0, 64, 107
2,152479, Note_on_c, 0, 57, 0
2,152493, Control_c, 0, 64, 107
2,152508, Control_c, 0, 64, 108
2,152523, Control_c, 0, 64, 110
2,152538, Control_c, 0, 64, 113
2,152554, Control_c, 0, 64, 116
2,152568, Control_c, 0, 64, 119
2,152581, Note_on_c, 0, 68, 0
2,152584, Control_c, 0, 64, 122
2,152614, Control_c, 0, 64, 111
2,152630, Control_c, 0, 64, 96
2,152644, Control_c, 0, 64, 82
2,152647, Note_on_c, 0, 57, 91
2,152653, Note_on_c, 0, 64, 61
2,152659, Control_c, 0, 64, 69
2,152675, Control_c, 0, 64, 58
2,152690, Control_c, 0, 64, 51
2,152721, Control_c, 0, 64, 55
2,152736, Control_c, 0, 64, 60
2,152751, Control_c, 0, 64, 63
2,152751, Note_on_c, 0, 66, 0
2,152766, Control_c, 0, 64, 66
2,152782, Control_c, 0, 64, 69
2,152797, Control_c, 0, 64, 73
2,152812, Control_c, 0, 64, 79
2,152818, Note_on_c, 0, 57, 0
2,152828, Control_c, 0, 64, 84
2,152842, Control_c, 0, 64, 88
2,152857, Control_c, 0, 64, 93
2,152858, Note_on_c, 0, 68, 65
2,152880, Control_c, 0, 64, 98
2,152895, Control_c, 0, 64, 100
2,152911, Control_c, 0, 64, 101
2,152957, Control_c, 0, 64, 102
2,152972, Control_c, 0, 64, 103
2,152988, Control_c, 0, 64, 104
2,153002, Control_c, 0, 64, 107
2,153017, Control_c, 0, 64, 109
2,153033, Control_c, 0, 64, 111
2,153048, Control_c, 0, 64, 112
2,153051, Note_on_c, 0, 64, 0
2,153064, Control_c, 0, 64, 108
2,153078, Control_c, 0, 64, 99
2,153093, Control_c, 0, 64, 87
2,153101, Note_on_c, 0, 57, 83
2,153109, Control_c, 0, 64, 74
2,153124, Control_c, 0, 64, 63
2,153124, Note_on_c, 0, 66, 62
2,153139, Control_c, 0, 64, 39
2,153155, Control_c, 0, 64, 32
2,153186, Control_c, 0, 64, 32
2,153201, Control_c, 0, 64, 41
2,153215, Control_c, 0, 64, 51
2,153231, Control_c, 0, 64, 60
2,153246, Control_c, 0, 64, 64
2,153262, Control_c, 0, 64, 68
2,153277, Control_c, 0, 64, 72
2,153291, Control_c, 0, 64, 77
2,153307, Control_c, 0, 64, 82
2,153322, Control_c, 0, 64, 85
2,153323, Note_on_c, 0, 64, 63
2,153337, Control_c, 0, 64, 89
2,153348, Note_on_c, 0, 66, 0
2,153352, Control_c, 0, 64, 91
2,153367, Control_c, 0, 64, 94
2,153383, Control_c, 0, 64, 96
2,153387, Note_on_c, 0, 68, 0
2,153398, Control_c, 0, 64, 97
2,153412, Control_c, 0, 64, 99
2,153428, Control_c, 0, 64, 100
2,153443, Control_c, 0, 64, 102
2,153458, Control_c, 0, 64, 104
2,153474, Control_c, 0, 64, 105
2,153488, Control_c, 0, 64, 104
2,153504, Control_c, 0, 64, 100
2,153516, Note_on_c, 0, 56, 77
2,153519, Control_c, 0, 64, 92
2,153531, Note_on_c, 0, 66, 74
2,153534, Control_c, 0, 64, 81
2,153550, Control_c, 0, 64, 69
2,153564, Control_c, 0, 64, 62
2,153579, Control_c, 0, 64, 56
2,153600, Note_on_c, 0, 57, 0
2,153610, Control_c, 0, 64, 57
2,153626, Control_c, 0, 64, 60
2,153648, Control_c, 0, 64, 62
2,153664, Control_c, 0, 64, 63
2,153693, Control_c, 0, 64, 63
2,153709, Control_c, 0, 64, 64
2,153724, Control_c, 0, 64, 64
2,153727, Note_on_c, 0, 54, 80
2,153738, Note_on_c, 0, 68, 70
2,153741, Control_c, 0, 64, 65
2,153756, Control_c, 0, 64, 66
2,153771, Control_c, 0, 64, 67
2,153784, Note_on_c, 0, 73, 0
2,153787, Control_c, 0, 64, 68
2,153798, Note_on_c, 0, 56, 0
2,153800, Note_on_c, 0, 66, 0
2,153801, Control_c, 0, 64, 69
2,153816, Control_c, 0, 64, 70
2,153832, Control_c, 0, 64, 70
2,153846, Control_c, 0, 64, 71
2,153862, Control_c, 0, 64, 72
2,153892, Control_c, 0, 64, 71
2,153908, Control_c, 0, 64, 70
2,153922, Control_c, 0, 64, 67
2,153937, Control_c, 0, 64, 61
2,153953, Control_c, 0, 64, 38
2,153968, Control_c, 0, 64, 0
2,153973, Note_on_c, 0, 56, 75
2,153977, Note_on_c, 0, 72, 67
2,153987, Note_on_c, 0, 66, 70
2,153992, Note_on_c, 0, 64, 0
2,154002, Note_on_c, 0, 54, 0
2,154151, Control_c, 0, 64, 10
2,154162, Note_on_c, 0, 68, 0
2,154166, Control_c, 0, 64, 54
2,154182, Control_c, 0, 64, 63
2,154197, Control_c, 0, 64, 65
2,154206, Note_on_c, 0, 64, 65
2,154208, Note_on_c, 0, 66, 0
2,154211, Control_c, 0, 64, 66
2,154227, Control_c, 0, 64, 68
2,154242, Control_c, 0, 64, 70
2,154256, Control_c, 0, 64, 73
2,154272, Control_c, 0, 64, 78
2,154287, Control_c, 0, 64, 84
2,154303, Control_c, 0, 64, 89
2,154318, Control_c, 0, 64, 95
2,154332, Control_c, 0, 64, 99
2,154348, Control_c, 0, 64, 95
2,154363, Control_c, 0, 64, 85
2,154377, Control_c, 0, 64, 73
2,154393, Control_c, 0, 64, 58
2,154411, Note_on_c, 0, 44, 76
2,154416, Control_c, 0, 64, 25
2,154430, Note_on_c, 0, 63, 67
2,154432, Control_c, 0, 64, 0
2,154477, Control_c, 0, 64, 24
2,154492, Control_c, 0, 64, 44
2,154508, Control_c, 0, 64, 52
2,154512, Note_on_c, 0, 64, 0
2,154517, Note_on_c, 0, 56, 0
2,154523, Control_c, 0, 64, 56
2,154537, Control_c, 0, 64, 59
2,154553, Control_c, 0, 64, 62
2,154569, Control_c, 0, 64, 64
2,154585, Control_c, 0, 64, 67
2,154600, Control_c, 0, 64, 71
2,154615, Control_c, 0, 64, 75
2,154627, Note_on_c, 0, 66, 67
2,154631, Control_c, 0, 64, 79
2,154645, Control_c, 0, 64, 83
2,154661, Control_c, 0, 64, 87
2,154676, Control_c, 0, 64, 90
2,154690, Control_c, 0, 64, 93
2,154706, Control_c, 0, 64, 97
2,154714, Note_on_c, 0, 63, 0
2,154721, Control_c, 0, 64, 101
2,154736, Control_c, 0, 64, 104
2,154752, Control_c, 0, 64, 105
2,154766, Control_c, 0, 64, 102
2,154782, Control_c, 0, 64, 92
2,154797, Control_c, 0, 64, 80
2,154812, Control_c, 0, 64, 64
2,154826, Note_on_c, 0, 66, 0
2,154828, Control_c, 0, 64, 37
2,154832, Note_on_c, 0, 49, 83
2,154842, Control_c, 0, 64, 0
2,154845, Note_on_c, 0, 64, 75
2,154891, Note_on_c, 0, 44, 0
2,154904, Control_c, 0, 64, 10
2,154919, Control_c, 0, 64, 41
2,154934, Control_c, 0, 64, 51
2,154950, Control_c, 0, 64, 58
2,154964, Control_c, 0, 64, 62
2,154979, Control_c, 0, 64, 65
2,154995, Control_c, 0, 64, 68
2,155010, Control_c, 0, 64, 70
2,155025, Control_c, 0, 64, 74
2,155040, Control_c, 0, 64, 78
2,155045, Note_on_c, 0, 68, 74
2,155049, Note_on_c, 0, 64, 0
2,155055, Control_c, 0, 64, 82
2,155071, Control_c, 0, 64, 86
2,155086, Control_c, 0, 64, 89
2,155101, Control_c, 0, 64, 93
2,155116, Control_c, 0, 64, 95
2,155131, Control_c, 0, 64, 97
2,155143, Note_on_c, 0, 72, 0
2,155147, Control_c, 0, 64, 99
2,155162, Control_c, 0, 64, 101
2,155185, Control_c, 0, 64, 104
2,155200, Control_c, 0, 64, 105
2,155215, Control_c, 0, 64, 100
2,155230, Control_c, 0, 64, 86
2,155245, Control_c, 0, 64, 73
2,155247, Note_on_c, 0, 47, 79
2,155255, Note_on_c, 0, 73, 78
2,155261, Control_c, 0, 64, 59
2,155262, Note_on_c, 0, 69, 74
2,155276, Control_c, 0, 64, 32
2,155291, Control_c, 0, 64, 28
2,155292, Note_on_c, 0, 68, 0
2,155306, Control_c, 0, 64, 28
2,155321, Control_c, 0, 64, 36
2,155336, Control_c, 0, 64, 48
2,155352, Control_c, 0, 64, 54
2,155367, Control_c, 0, 64, 59
2,155384, Control_c, 0, 64, 62
2,155399, Control_c, 0, 64, 65
2,155413, Control_c, 0, 64, 67
2,155429, Control_c, 0, 64, 71
2,155444, Control_c, 0, 64, 75
2,155454, Note_on_c, 0, 75, 79
2,155458, Control_c, 0, 64, 79
2,155474, Control_c, 0, 64, 83
2,155478, Note_on_c, 0, 71, 69
2,155482, Note_on_c, 0, 69, 0
2,155489, Control_c, 0, 64, 86
2,155505, Control_c, 0, 64, 89
2,155508, Note_on_c, 0, 73, 0
2,155520, Control_c, 0, 64, 91
2,155534, Control_c, 0, 64, 94
2,155550, Control_c, 0, 64, 96
2,155565, Control_c, 0, 64, 99
2,155581, Control_c, 0, 64, 102
2,155596, Control_c, 0, 64, 103
2,155610, Control_c, 0, 64, 101
2,155626, Control_c, 0, 64, 96
2,155641, Control_c, 0, 64, 86
2,155655, Control_c, 0, 64, 71
2,155662, Note_on_c, 0, 45, 63
2,155668, Note_on_c, 0, 76, 70
2,155671, Control_c, 0, 64, 54
2,155677, Note_on_c, 0, 75, 0
2,155683, Note_on_c, 0, 73, 69
2,155684, Note_on_c, 0, 47, 0
2,155686, Control_c, 0, 64, 0
2,155794, Note_on_c, 0, 71, 0
2,155856, Note_on_c, 0, 76, 0
2,155869, Control_c, 0, 64, 54
2,155873, Note_on_c, 0, 75, 68
2,155884, Control_c, 0, 64, 63
2,155899, Control_c, 0, 64, 67
2,155915, Control_c, 0, 64, 69
2,155930, Control_c, 0, 64, 70
2,155952, Control_c, 0, 64, 71
2,155967, Control_c, 0, 64, 73
2,155983, Control_c, 0, 64, 76
2,155998, Control_c, 0, 64, 80
2,156013, Control_c, 0, 64, 85
2,156029, Control_c, 0, 64, 90
2,156044, Control_c, 0, 64, 93
2,156050, Note_on_c, 0, 73, 0
2,156059, Control_c, 0, 64, 91
2,156074, Control_c, 0, 64, 82
2,156089, Control_c, 0, 64, 72
2,156093, Note_on_c, 0, 72, 60
2,156094, Note_on_c, 0, 78, 67
2,156105, Control_c, 0, 64, 62
2,156120, Control_c, 0, 64, 46
2,156132, Note_on_c, 0, 75, 0
2,156135, Control_c, 0, 64, 38
2,156165, Control_c, 0, 64, 42
2,156181, Control_c, 0, 64, 50
2,156197, Control_c, 0, 64, 56
2,156212, Control_c, 0, 64, 60
2,156228, Control_c, 0, 64, 63
2,156243, Control_c, 0, 64, 64
2,156257, Control_c, 0, 64, 66
2,156273, Control_c, 0, 64, 69
2,156282, Note_on_c, 0, 72, 0
2,156288, Control_c, 0, 64, 73
2,156297, Note_on_c, 0, 73, 59
2,156303, Control_c, 0, 64, 76
2,156310, Note_on_c, 0, 78, 0
2,156318, Control_c, 0, 64, 80
2,156333, Control_c, 0, 64, 83
2,156349, Control_c, 0, 64, 85
2,156364, Control_c, 0, 64, 88
2,156378, Control_c, 0, 64, 92
2,156394, Control_c, 0, 64, 97
2,156409, Control_c, 0, 64, 103
2,156425, Control_c, 0, 64, 108
2,156440, Control_c, 0, 64, 108
2,156454, Control_c, 0, 64, 107
2,156470, Control_c, 0, 64, 101
2,156485, Control_c, 0, 64, 87
2,156499, Control_c, 0, 64, 72
2,156514, Note_on_c, 0, 80, 62
2,156515, Control_c, 0, 64, 51
2,156518, Note_on_c, 0, 45, 0
2,156520, Note_on_c, 0, 48, 47
2,156527, Note_on_c, 0, 44, 55
2,156530, Control_c, 0, 64, 0
2,156533, Note_on_c, 0, 75, 63
2,156534, Note_on_c, 0, 73, 0
2,156558, Note_on_c, 0, 49, 0
2,156668, Control_c, 0, 64, 33
2,156683, Control_c, 0, 64, 56
2,156698, Control_c, 0, 64, 63
2,156720, Control_c, 0, 64, 65
2,156735, Control_c, 0, 64, 66
2,156735, Note_on_c, 0, 78, 59
2,156751, Control_c, 0, 64, 68
2,156766, Control_c, 0, 64, 72
2,156769, Note_on_c, 0, 80, 0
2,156782, Control_c, 0, 64, 77
2,156796, Control_c, 0, 64, 83
2,156811, Control_c, 0, 64, 87
2,156827, Control_c, 0, 64, 88
2,156842, Control_c, 0, 64, 88
2,156857, Control_c, 0, 64, 86
2,156873, Control_c, 0, 64, 83
2,156888, Control_c, 0, 64, 79
2,156904, Control_c, 0, 64, 73
2,156918, Control_c, 0, 64, 66
2,156933, Control_c, 0, 64, 62
2,156949, Control_c, 0, 64, 62
2,156952, Note_on_c, 0, 80, 70
2,156964, Control_c, 0, 64, 63
2,156973, Note_on_c, 0, 56, 80
2,156979, Control_c, 0, 64, 64
2,156994, Control_c, 0, 64, 66
2,157009, Control_c, 0, 64, 68
2,157024, Note_on_c, 0, 44, 0
2,157026, Control_c, 0, 64, 72
2,157032, Note_on_c, 0, 48, 0
2,157041, Control_c, 0, 64, 75
2,157056, Control_c, 0, 64, 78
2,157071, Control_c, 0, 64, 81
2,157086, Control_c, 0, 64, 84
2,157102, Control_c, 0, 64, 86
2,157117, Control_c, 0, 64, 89
2,157132, Control_c, 0, 64, 92
2,157147, Control_c, 0, 64, 94
2,157162, Control_c, 0, 64, 96
2,157177, Control_c, 0, 64, 97
2,157179, Note_on_c, 0, 81, 66
2,157193, Control_c, 0, 64, 98
2,157208, Control_c, 0, 64, 99
2,157236, Note_on_c, 0, 80, 0
2,157238, Control_c, 0, 64, 99
2,157239, Note_on_c, 0, 75, 0
2,157268, Control_c, 0, 64, 100
2,157283, Control_c, 0, 64, 102
2,157298, Control_c, 0, 64, 104
2,157314, Control_c, 0, 64, 106
2,157329, Control_c, 0, 64, 109
2,157344, Control_c, 0, 64, 110
2,157359, Control_c, 0, 64, 109
2,157374, Control_c, 0, 64, 101
2,157390, Control_c, 0, 64, 88
2,157405, Control_c, 0, 64, 75
2,157407, Note_on_c, 0, 52, 68
2,157410, Note_on_c, 0, 61, 80
2,157416, Note_on_c, 0, 78, 0
2,157416, Note_on_c, 0, 80, 65
2,157419, Control_c, 0, 64, 61
2,157435, Control_c, 0, 64, 15
2,157436, Note_on_c, 0, 73, 43
2,157450, Control_c, 0, 64, 0
2,157467, Note_on_c, 0, 56, 0
2,157504, Control_c, 0, 64, 31
2,157519, Control_c, 0, 64, 47
2,157534, Control_c, 0, 64, 57
2,157550, Control_c, 0, 64, 64
2,157564, Control_c, 0, 64, 67
2,157579, Control_c, 0, 64, 72
2,157595, Control_c, 0, 64, 78
2,157610, Control_c, 0, 64, 84
2,157626, Control_c, 0, 64, 89
2,157638, Note_on_c, 0, 61, 0
2,157640, Control_c, 0, 64, 94
2,157640, Note_on_c, 0, 78, 59
2,157655, Control_c, 0, 64, 97
2,157671, Control_c, 0, 64, 98
2,157680, Note_on_c, 0, 81, 0
2,157686, Control_c, 0, 64, 99
2,157702, Control_c, 0, 64, 100
2,157716, Control_c, 0, 64, 101
2,157731, Control_c, 0, 64, 102
2,157747, Control_c, 0, 64, 104
2,157762, Control_c, 0, 64, 106
2,157777, Control_c, 0, 64, 107
2,157808, Control_c, 0, 64, 103
2,157817, Note_on_c, 0, 80, 0
2,157824, Control_c, 0, 64, 95
2,157839, Control_c, 0, 64, 84
2,157854, Control_c, 0, 64, 72
2,157854, Note_on_c, 0, 61, 75
2,157861, Note_on_c, 0, 76, 62
2,157870, Control_c, 0, 64, 63
2,157884, Control_c, 0, 64, 56
2,157898, Note_on_c, 0, 78, 0
2,157899, Control_c, 0, 64, 56
2,157915, Control_c, 0, 64, 58
2,157930, Control_c, 0, 64, 60
2,157946, Control_c, 0, 64, 63
2,157961, Control_c, 0, 64, 66
2,157976, Control_c, 0, 64, 70
2,157991, Control_c, 0, 64, 75
2,158006, Control_c, 0, 64, 81
2,158022, Control_c, 0, 64, 86
2,158037, Control_c, 0, 64, 90
2,158052, Control_c, 0, 64, 93
2,158067, Control_c, 0, 64, 95
2,158073, Note_on_c, 0, 80, 67
2,158082, Control_c, 0, 64, 97
2,158097, Control_c, 0, 64, 98
2,158112, Control_c, 0, 64, 100
2,158127, Control_c, 0, 64, 100
2,158131, Note_on_c, 0, 61, 0
2,158158, Control_c, 0, 64, 101
2,158173, Control_c, 0, 64, 102
2,158188, Control_c, 0, 64, 103
2,158203, Control_c, 0, 64, 104
2,158218, Control_c, 0, 64, 105
2,158233, Note_on_c, 0, 76, 0
2,158234, Control_c, 0, 64, 104
2,158257, Control_c, 0, 64, 99
2,158272, Control_c, 0, 64, 88
2,158287, Control_c, 0, 64, 72
2,158288, Note_on_c, 0, 61, 67
2,158293, Note_on_c, 0, 51, 73
2,158295, Note_on_c, 0, 78, 61
2,158303, Control_c, 0, 64, 58
2,158318, Control_c, 0, 64, 0
2,158342, Note_on_c, 0, 52, 0
2,158378, Control_c, 0, 64, 14
2,158394, Control_c, 0, 64, 40
2,158408, Control_c, 0, 64, 53
2,158424, Control_c, 0, 64, 61
2,158439, Control_c, 0, 64, 65
2,158454, Control_c, 0, 64, 69
2,158470, Control_c, 0, 64, 74
2,158484, Control_c, 0, 64, 80
2,158499, Control_c, 0, 64, 85
2,158514, Note_on_c, 0, 76, 59
2,158515, Control_c, 0, 64, 89
2,158529, Control_c, 0, 64, 92
2,158529, Note_on_c, 0, 78, 0
2,158545, Control_c, 0, 64, 94
2,158560, Control_c, 0, 64, 95
2,158566, Note_on_c, 0, 80, 0
2,158575, Control_c, 0, 64, 97
2,158591, Control_c, 0, 64, 99
2,158606, Control_c, 0, 64, 100
2,158622, Control_c, 0, 64, 102
2,158637, Control_c, 0, 64, 103
2,158652, Control_c, 0, 64, 102
2,158668, Control_c, 0, 64, 96
2,158683, Control_c, 0, 64, 85
2,158698, Control_c, 0, 64, 71
2,158713, Control_c, 0, 64, 59
2,158721, Note_on_c, 0, 60, 68
2,158728, Control_c, 0, 64, 42
2,158737, Note_on_c, 0, 78, 59
2,158744, Control_c, 0, 64, 39
2,158759, Control_c, 0, 64, 40
2,158774, Control_c, 0, 64, 45
2,158790, Control_c, 0, 64, 52
2,158796, Note_on_c, 0, 61, 0
2,158805, Control_c, 0, 64, 58
2,158820, Control_c, 0, 64, 61
2,158835, Control_c, 0, 64, 64
2,158850, Control_c, 0, 64, 67
2,158866, Control_c, 0, 64, 69
2,158881, Control_c, 0, 64, 71
2,158896, Control_c, 0, 64, 73
2,158911, Control_c, 0, 64, 75
2,158915, Note_on_c, 0, 80, 61
2,158926, Control_c, 0, 64, 76
2,158927, Note_on_c, 0, 58, 73
2,158933, Note_on_c, 0, 76, 0
2,158955, Note_on_c, 0, 60, 0
2,158957, Control_c, 0, 64, 75
2,158960, Note_on_c, 0, 78, 0
2,159002, Control_c, 0, 64, 75
2,159025, Control_c, 0, 64, 74
2,159055, Control_c, 0, 64, 74
2,159086, Control_c, 0, 64, 73
2,159117, Control_c, 0, 64, 72
2,159131, Control_c, 0, 64, 69
2,159143, Note_on_c, 0, 58, 0
2,159147, Control_c, 0, 64, 65
2,159152, Note_on_c, 0, 60, 57
2,159161, Note_on_c, 0, 78, 60
2,159162, Control_c, 0, 64, 56
2,159176, Control_c, 0, 64, 43
2,159192, Control_c, 0, 64, 20
2,159207, Control_c, 0, 64, 0
2,159351, Note_on_c, 0, 76, 63
2,159373, Note_on_c, 0, 80, 0
2,159416, Note_on_c, 0, 78, 0
2,159435, Control_c, 0, 64, 8
2,159450, Control_c, 0, 64, 54
2,159466, Control_c, 0, 64, 63
2,159481, Control_c, 0, 64, 65
2,159496, Control_c, 0, 64, 67
2,159512, Control_c, 0, 64, 68
2,159527, Control_c, 0, 64, 69
2,159543, Control_c, 0, 64, 71
2,159557, Control_c, 0, 64, 73
2,159566, Note_on_c, 0, 75, 70
2,159572, Control_c, 0, 64, 76
2,159588, Control_c, 0, 64, 78
2,159591, Note_on_c, 0, 76, 0
2,159603, Control_c, 0, 64, 81
2,159618, Control_c, 0, 64, 83
2,159620, Note_on_c, 0, 60, 0
2,159630, Note_on_c, 0, 73, 0
2,159633, Control_c, 0, 64, 84
2,159694, Control_c, 0, 64, 85
2,159710, Control_c, 0, 64, 85
2,159725, Control_c, 0, 64, 86
2,159739, Control_c, 0, 64, 87
2,159755, Control_c, 0, 64, 88
2,159769, Note_on_c, 0, 78, 64
2,159770, Control_c, 0, 64, 88
2,159793, Control_c, 0, 64, 89
2,159808, Control_c, 0, 64, 89
2,159823, Control_c, 0, 64, 90
2,159838, Control_c, 0, 64, 91
2,159838, Note_on_c, 0, 75, 0
2,159853, Control_c, 0, 64, 92
2,159869, Control_c, 0, 64, 94
2,159884, Control_c, 0, 64, 96
2,159899, Control_c, 0, 64, 99
2,159915, Control_c, 0, 64, 101
2,159930, Control_c, 0, 64, 102
2,159960, Control_c, 0, 64, 95
2,159975, Control_c, 0, 64, 83
2,159991, Control_c, 0, 64, 68
2,160006, Control_c, 0, 64, 41
2,160013, Note_on_c, 0, 49, 65
2,160018, Note_on_c, 0, 61, 60
2,160022, Control_c, 0, 64, 0
2,160025, Note_on_c, 0, 76, 65
2,160033, Note_on_c, 0, 51, 0
2,160128, Control_c, 0, 64, 44
2,160143, Control_c, 0, 64, 55
2,160158, Control_c, 0, 64, 60
2,160173, Control_c, 0, 64, 63
2,160189, Control_c, 0, 64, 65
2,160204, Control_c, 0, 64, 67
2,160218, Control_c, 0, 64, 70
2,160228, Note_on_c, 0, 76, 0
2,160233, Note_on_c, 0, 75, 65
2,160234, Control_c, 0, 64, 73
2,160249, Control_c, 0, 64, 77
2,160264, Note_on_c, 0, 78, 0
2,160265, Control_c, 0, 64, 82
2,160280, Control_c, 0, 64, 85
2,160296, Control_c, 0, 64, 88
2,160312, Control_c, 0, 64, 91
2,160326, Control_c, 0, 64, 94
2,160342, Control_c, 0, 64, 97
2,160357, Control_c, 0, 64, 100
2,160371, Control_c, 0, 64, 102
2,160387, Control_c, 0, 64, 102
2,160402, Control_c, 0, 64, 100
2,160417, Control_c, 0, 64, 92
2,160433, Control_c, 0, 64, 80
2,160447, Control_c, 0, 64, 67
2,160450, Note_on_c, 0, 76, 66
2,160451, Note_on_c, 0, 52, 73
2,160463, Control_c, 0, 64, 51
2,160478, Control_c, 0, 64, 36
2,160493, Control_c, 0, 64, 36
2,160497, Note_on_c, 0, 75, 0
2,160500, Note_on_c, 0, 49, 0
2,160509, Control_c, 0, 64, 38
2,160523, Control_c, 0, 64, 47
2,160538, Control_c, 0, 64, 54
2,160562, Control_c, 0, 64, 59
2,160576, Control_c, 0, 64, 63
2,160592, Control_c, 0, 64, 66
2,160607, Control_c, 0, 64, 69
2,160623, Control_c, 0, 64, 73
2,160638, Control_c, 0, 64, 77
2,160652, Control_c, 0, 64, 81
2,160668, Control_c, 0, 64, 85
2,160681, Note_on_c, 0, 78, 65
2,160683, Control_c, 0, 64, 88
2,160698, Control_c, 0, 64, 90
2,160714, Control_c, 0, 64, 93
2,160729, Control_c, 0, 64, 95
2,160730, Note_on_c, 0, 76, 0
2,160744, Control_c, 0, 64, 97
2,160759, Control_c, 0, 64, 98
2,160774, Control_c, 0, 64, 99
2,160789, Control_c, 0, 64, 100
2,160804, Control_c, 0, 64, 102
2,160819, Control_c, 0, 64, 103
2,160835, Control_c, 0, 64, 102
2,160850, Control_c, 0, 64, 94
2,160866, Control_c, 0, 64, 81
2,160881, Control_c, 0, 64, 66
2,160888, Note_on_c, 0, 57, 75
2,160896, Control_c, 0, 64, 22
2,160903, Note_on_c, 0, 76, 71
2,160912, Control_c, 0, 64, 0
2,160925, Note_on_c, 0, 52, 0
2,160965, Note_on_c, 0, 78, 0
2,160972, Control_c, 0, 64, 43
2,160987, Control_c, 0, 64, 56
2,161002, Control_c, 0, 64, 64
2,161017, Control_c, 0, 64, 69
2,161033, Control_c, 0, 64, 75
2,161048, Control_c, 0, 64, 83
2,161063, Control_c, 0, 64, 91
2,161078, Control_c, 0, 64, 98
2,161084, Note_on_c, 0, 57, 0
2,161093, Control_c, 0, 64, 103
2,161100, Note_on_c, 0, 74, 69
2,161110, Control_c, 0, 64, 103
2,161140, Note_on_c, 0, 76, 0
2,161156, Control_c, 0, 64, 104
2,161170, Control_c, 0, 64, 104
2,161186, Control_c, 0, 64, 106
2,161201, Control_c, 0, 64, 107
2,161215, Control_c, 0, 64, 108
2,161231, Control_c, 0, 64, 109
2,161246, Control_c, 0, 64, 110
2,161277, Control_c, 0, 64, 105
2,161291, Control_c, 0, 64, 95
2,161307, Control_c, 0, 64, 85
2,161322, Note_on_c, 0, 57, 78
2,161330, Control_c, 0, 64, 72
2,161335, Note_on_c, 0, 73, 73
2,161346, Control_c, 0, 64, 64
2,161361, Control_c, 0, 64, 59
2,161364, Note_on_c, 0, 74, 0
2,161391, Control_c, 0, 64, 61
2,161406, Control_c, 0, 64, 63
2,161420, Control_c, 0, 64, 65
2,161435, Control_c, 0, 64, 69
2,161450, Control_c, 0, 64, 75
2,161466, Control_c, 0, 64, 83
2,161480, Note_on_c, 0, 61, 0
2,161481, Control_c, 0, 64, 92
2,161489, Note_on_c, 0, 57, 0
2,161495, Control_c, 0, 64, 103
2,161511, Control_c, 0, 64, 109
2,161526, Control_c, 0, 64, 108
2,161536, Note_on_c, 0, 76, 70
2,161542, Control_c, 0, 64, 108
2,161576, Note_on_c, 0, 73, 0
2,161617, Control_c, 0, 64, 108
2,161633, Control_c, 0, 64, 109
2,161648, Control_c, 0, 64, 109
2,161664, Control_c, 0, 64, 110
2,161679, Control_c, 0, 64, 110
2,161694, Control_c, 0, 64, 111
2,161709, Control_c, 0, 64, 111
2,161724, Control_c, 0, 64, 104
2,161739, Control_c, 0, 64, 90
2,161752, Note_on_c, 0, 59, 76
2,161754, Control_c, 0, 64, 75
2,161757, Note_on_c, 0, 57, 73
2,161767, Note_on_c, 0, 74, 73
2,161769, Control_c, 0, 64, 62
2,161785, Control_c, 0, 64, 36
2,161800, Control_c, 0, 64, 25
2,161830, Control_c, 0, 64, 27
2,161845, Control_c, 0, 64, 41
2,161860, Control_c, 0, 64, 51
2,161876, Control_c, 0, 64, 58
2,161891, Control_c, 0, 64, 62
2,161906, Control_c, 0, 64, 65
2,161921, Control_c, 0, 64, 68
2,161937, Control_c, 0, 64, 71
2,161953, Control_c, 0, 64, 75
2,161958, Note_on_c, 0, 74, 0
2,161964, Note_on_c, 0, 73, 68
2,161968, Control_c, 0, 64, 79
2,161984, Control_c, 0, 64, 83
2,161999, Control_c, 0, 64, 86
2,162013, Control_c, 0, 64, 89
2,162029, Control_c, 0, 64, 91
2,162044, Control_c, 0, 64, 93
2,162058, Control_c, 0, 64, 94
2,162074, Control_c, 0, 64, 95
2,162097, Control_c, 0, 64, 96
2,162113, Control_c, 0, 64, 98
2,162128, Control_c, 0, 64, 100
2,162143, Control_c, 0, 64, 102
2,162158, Control_c, 0, 64, 97
2,162173, Control_c, 0, 64, 83
2,162174, Note_on_c, 0, 56, 80
2,162174, Note_on_c, 0, 66, 74
2,162186, Note_on_c, 0, 74, 71
2,162188, Control_c, 0, 64, 66
2,162203, Control_c, 0, 64, 0
2,162212, Note_on_c, 0, 76, 0
2,162259, Note_on_c, 0, 57, 0
2,162355, Control_c, 0, 64, 39
2,162370, Control_c, 0, 64, 58
2,162386, Control_c, 0, 64, 63
2,162388, Note_on_c, 0, 73, 0
2,162390, Note_on_c, 0, 76, 67
2,162394, Note_on_c, 0, 54, 67
2,162400, Control_c, 0, 64, 66
2,162415, Control_c, 0, 64, 69
2,162428, Note_on_c, 0, 56, 0
2,162431, Control_c, 0, 64, 73
2,162432, Note_on_c, 0, 74, 0
2,162446, Control_c, 0, 64, 76
2,162462, Control_c, 0, 64, 80
2,162477, Control_c, 0, 64, 83
2,162492, Control_c, 0, 64, 86
2,162508, Control_c, 0, 64, 89
2,162522, Control_c, 0, 64, 92
2,162537, Control_c, 0, 64, 95
2,162553, Control_c, 0, 64, 94
2,162568, Control_c, 0, 64, 88
2,162584, Control_c, 0, 64, 74
2,162598, Control_c, 0, 64, 59
2,162613, Control_c, 0, 64, 0
2,162630, Note_on_c, 0, 56, 62
2,162630, Note_on_c, 0, 71, 69
2,162637, Note_on_c, 0, 74, 72
2,162675, Note_on_c, 0, 54, 0
2,162696, Note_on_c, 0, 66, 0
2,162697, Note_on_c, 0, 76, 0
2,162767, Control_c, 0, 64, 43
2,162782, Control_c, 0, 64, 62
2,162797, Control_c, 0, 64, 66
2,162812, Control_c, 0, 64, 69
2,162827, Control_c, 0, 64, 72
2,162842, Control_c, 0, 64, 76
2,162855, Note_on_c, 0, 73, 67
2,162865, Control_c, 0, 64, 80
2,162880, Control_c, 0, 64, 85
2,162895, Control_c, 0, 64, 91
2,162902, Note_on_c, 0, 71, 0
2,162911, Control_c, 0, 64, 97
2,162926, Control_c, 0, 64, 102
2,162942, Control_c, 0, 64, 106
2,162987, Control_c, 0, 64, 103
2,163002, Control_c, 0, 64, 96
2,163017, Control_c, 0, 64, 85
2,163032, Control_c, 0, 64, 72
2,163034, Note_on_c, 0, 74, 0
2,163047, Control_c, 0, 64, 60
2,163063, Control_c, 0, 64, 39
2,163078, Control_c, 0, 64, 36
2,163084, Note_on_c, 0, 71, 66
2,163085, Note_on_c, 0, 66, 65
2,163093, Control_c, 0, 64, 37
2,163108, Control_c, 0, 64, 48
2,163123, Control_c, 0, 64, 55
2,163131, Note_on_c, 0, 73, 0
2,163138, Control_c, 0, 64, 61
2,163154, Control_c, 0, 64, 66
2,163169, Control_c, 0, 64, 70
2,163184, Control_c, 0, 64, 77
2,163199, Control_c, 0, 64, 84
2,163214, Control_c, 0, 64, 92
2,163230, Control_c, 0, 64, 97
2,163244, Control_c, 0, 64, 100
2,163257, Note_on_c, 0, 71, 0
2,163267, Note_on_c, 0, 74, 72
2,163306, Control_c, 0, 64, 101
2,163320, Control_c, 0, 64, 102
2,163335, Control_c, 0, 64, 102
2,163351, Control_c, 0, 64, 103
2,163365, Note_on_c, 0, 66, 0
2,163366, Control_c, 0, 64, 103
2,163397, Control_c, 0, 64, 103
2,163412, Control_c, 0, 64, 95
2,163428, Control_c, 0, 64, 84
2,163442, Control_c, 0, 64, 72
2,163457, Control_c, 0, 64, 60
2,163473, Control_c, 0, 64, 42
2,163478, Note_on_c, 0, 73, 61
2,163490, Control_c, 0, 64, 40
2,163501, Note_on_c, 0, 65, 51
2,163506, Control_c, 0, 64, 43
2,163506, Note_on_c, 0, 71, 68
2,163510, Note_on_c, 0, 74, 0
2,163520, Control_c, 0, 64, 52
2,163536, Control_c, 0, 64, 58
2,163551, Control_c, 0, 64, 63
2,163566, Control_c, 0, 64, 68
2,163571, Note_on_c, 0, 73, 0
2,163583, Control_c, 0, 64, 73
2,163598, Control_c, 0, 64, 81
2,163613, Control_c, 0, 64, 89
2,163635, Control_c, 0, 64, 96
2,163639, Note_on_c, 0, 71, 0
2,163650, Control_c, 0, 64, 99
2,163666, Control_c, 0, 64, 99
2,163727, Note_on_c, 0, 71, 58
2,163742, Control_c, 0, 64, 100
2,163756, Control_c, 0, 64, 100
2,163787, Control_c, 0, 64, 101
2,163802, Control_c, 0, 64, 101
2,163817, Control_c, 0, 64, 102
2,163832, Control_c, 0, 64, 103
2,163847, Control_c, 0, 64, 105
2,163863, Control_c, 0, 64, 106
2,163877, Control_c, 0, 64, 104
2,163892, Control_c, 0, 64, 95
2,163908, Control_c, 0, 64, 82
2,163923, Control_c, 0, 64, 69
2,163932, Note_on_c, 0, 65, 0
2,163932, Note_on_c, 0, 73, 64
2,163936, Note_on_c, 0, 49, 61
2,163939, Control_c, 0, 64, 50
2,163944, Note_on_c, 0, 69, 57
2,163953, Control_c, 0, 64, 26
2,163968, Control_c, 0, 64, 25
2,163968, Note_on_c, 0, 71, 0
2,163999, Control_c, 0, 64, 34
2,164013, Control_c, 0, 64, 47
2,164029, Control_c, 0, 64, 55
2,164044, Control_c, 0, 64, 61
2,164060, Control_c, 0, 64, 66
2,164075, Control_c, 0, 64, 71
2,164090, Control_c, 0, 64, 77
2,164106, Control_c, 0, 64, 83
2,164106, Note_on_c, 0, 74, 63
2,164120, Control_c, 0, 64, 89
2,164133, Note_on_c, 0, 68, 66
2,164136, Control_c, 0, 64, 93
2,164142, Note_on_c, 0, 73, 0
2,164151, Control_c, 0, 64, 96
2,164164, Note_on_c, 0, 69, 0
2,164166, Control_c, 0, 64, 96
2,164182, Control_c, 0, 64, 97
2,164197, Control_c, 0, 64, 98
2,164211, Control_c, 0, 64, 100
2,164229, Control_c, 0, 64, 102
2,164242, Note_on_c, 0, 68, 0
2,164244, Control_c, 0, 64, 104
2,164260, Control_c, 0, 64, 105
2,164275, Control_c, 0, 64, 100
2,164290, Control_c, 0, 64, 89
2,164305, Control_c, 0, 64, 75
2,164320, Control_c, 0, 64, 62
2,164336, Control_c, 0, 64, 33
2,164343, Note_on_c, 0, 54, 71
2,164351, Control_c, 0, 64, 12
2,164356, Note_on_c, 0, 66, 52
2,164357, Note_on_c, 0, 69, 52
2,164358, Note_on_c, 0, 74, 0
2,164361, Note_on_c, 0, 73, 65
2,164365, Control_c, 0, 64, 14
2,164381, Control_c, 0, 64, 30
2,164404, Control_c, 0, 64, 45
2,164414, Note_on_c, 0, 56, 0
2,164420, Control_c, 0, 64, 54
2,164425, Note_on_c, 0, 49, 0
2,164435, Control_c, 0, 64, 61
2,164451, Control_c, 0, 64, 65
2,164466, Control_c, 0, 64, 69
2,164480, Control_c, 0, 64, 75
2,164496, Control_c, 0, 64, 81
2,164511, Control_c, 0, 64, 87
2,164526, Control_c, 0, 64, 92
2,164528, Note_on_c, 0, 69, 0
2,164542, Control_c, 0, 64, 95
2,164557, Control_c, 0, 64, 96
2,164564, Note_on_c, 0, 71, 66
2,164573, Control_c, 0, 64, 97
2,164586, Note_on_c, 0, 73, 0
2,164588, Control_c, 0, 64, 99
2,164602, Control_c, 0, 64, 100
2,164618, Control_c, 0, 64, 101
2,164624, Note_on_c, 0, 54, 0
2,164633, Control_c, 0, 64, 103
2,164649, Control_c, 0, 64, 104
2,164663, Control_c, 0, 64, 106
2,164678, Control_c, 0, 64, 107
2,164709, Control_c, 0, 64, 102
2,164724, Control_c, 0, 64, 92
2,164739, Control_c, 0, 64, 79
2,164754, Control_c, 0, 64, 66
2,164756, Note_on_c, 0, 54, 65
2,164770, Control_c, 0, 64, 48
2,164779, Note_on_c, 0, 69, 65
2,164785, Control_c, 0, 64, 36
2,164786, Note_on_c, 0, 71, 0
2,164815, Control_c, 0, 64, 40
2,164830, Control_c, 0, 64, 50
2,164845, Control_c, 0, 64, 57
2,164860, Control_c, 0, 64, 62
2,164875, Control_c, 0, 64, 65
2,164891, Control_c, 0, 64, 70
2,164906, Control_c, 0, 64, 76
2,164921, Control_c, 0, 64, 81
2,164928, Note_on_c, 0, 59, 0
2,164936, Control_c, 0, 64, 87
2,164951, Control_c, 0, 64, 91
2,164964, Note_on_c, 0, 73, 65
2,164966, Control_c, 0, 64, 93
2,164994, Note_on_c, 0, 69, 0
2,165008, Note_on_c, 0, 54, 0
2,165058, Control_c, 0, 64, 94
2,165089, Control_c, 0, 64, 95
2,165104, Control_c, 0, 64, 96
2,165119, Control_c, 0, 64, 98
2,165134, Control_c, 0, 64, 98
2,165149, Control_c, 0, 64, 96
2,165172, Control_c, 0, 64, 87
2,165187, Control_c, 0, 64, 73
2,165187, Note_on_c, 0, 54, 50
2,165194, Note_on_c, 0, 56, 49
2,165199, Note_on_c, 0, 59, 56
2,165199, Note_on_c, 0, 68, 59
2,165202, Control_c, 0, 64, 55
2,165211, Note_on_c, 0, 71, 58
2,165219, Control_c, 0, 64, 0
2,165235, Note_on_c, 0, 73, 0
2,165253, Note_on_c, 0, 66, 0
2,165403, Note_on_c, 0, 71, 0
2,165414, Note_on_c, 0, 69, 58
2,165416, Control_c, 0, 64, 55
2,165431, Control_c, 0, 64, 63
2,165446, Control_c, 0, 64, 65
2,165462, Control_c, 0, 64, 67
2,165477, Control_c, 0, 64, 68
2,165493, Control_c, 0, 64, 69
2,165507, Control_c, 0, 64, 71
2,165522, Control_c, 0, 64, 73
2,165538, Control_c, 0, 64, 76
2,165553, Control_c, 0, 64, 79
2,165583, Control_c, 0, 64, 75
2,165598, Control_c, 0, 64, 67
2,165609, Note_on_c, 0, 53, 48
2,165614, Control_c, 0, 64, 49
2,165627, Note_on_c, 0, 69, 0
2,165629, Control_c, 0, 64, 0
2,165631, Note_on_c, 0, 71, 53
2,165679, Note_on_c, 0, 59, 0
2,165750, Control_c, 0, 64, 25
2,165765, Control_c, 0, 64, 51
2,165780, Control_c, 0, 64, 59
2,165795, Control_c, 0, 64, 62
2,165803, Note_on_c, 0, 71, 0
2,165811, Control_c, 0, 64, 63
2,165811, Note_on_c, 0, 51, 57
2,165811, Note_on_c, 0, 73, 64
2,165813, Note_on_c, 0, 54, 0
2,165823, Note_on_c, 0, 53, 0
2,165826, Control_c, 0, 64, 64
2,165841, Control_c, 0, 64, 66
2,165841, Note_on_c, 0, 56, 0
2,165857, Control_c, 0, 64, 68
2,165872, Control_c, 0, 64, 70
2,165886, Control_c, 0, 64, 73
2,165902, Control_c, 0, 64, 76
2,165917, Control_c, 0, 64, 77
2,165955, Control_c, 0, 64, 74
2,165971, Control_c, 0, 64, 69
2,165985, Control_c, 0, 64, 60
2,166000, Control_c, 0, 64, 31
2,166016, Control_c, 0, 64, 0
2,166042, Note_on_c, 0, 51, 0
2,166046, Note_on_c, 0, 56, 51
2,166048, Note_on_c, 0, 68, 0
2,166055, Note_on_c, 0, 61, 48
2,166055, Note_on_c, 0, 71, 60
2,166060, Note_on_c, 0, 53, 44
2,166177, Note_on_c, 0, 73, 0
2,166257, Note_on_c, 0, 71, 0
2,166260, Control_c, 0, 64, 46
2,166270, Note_on_c, 0, 69, 47
2,166275, Control_c, 0, 64, 57
2,166291, Control_c, 0, 64, 61
2,166306, Control_c, 0, 64, 63
2,166321, Control_c, 0, 64, 64
2,166336, Control_c, 0, 64, 65
2,166351, Control_c, 0, 64, 67
2,166366, Control_c, 0, 64, 70
2,166382, Control_c, 0, 64, 74
2,166397, Control_c, 0, 64, 77
2,166412, Control_c, 0, 64, 80
2,166427, Control_c, 0, 64, 82
2,166442, Control_c, 0, 64, 82
2,166465, Note_on_c, 0, 68, 57
2,166465, Note_on_c, 0, 69, 0
2,166534, Control_c, 0, 64, 83
2,166666, Note_on_c, 0, 71, 58
2,166674, Note_on_c, 0, 68, 0
2,166723, Control_c, 0, 64, 83
2,166739, Control_c, 0, 64, 84
2,166753, Control_c, 0, 64, 84
2,166769, Control_c, 0, 64, 85
2,166784, Control_c, 0, 64, 85
2,166799, Control_c, 0, 64, 85
2,166816, Control_c, 0, 64, 84
2,166830, Control_c, 0, 64, 81
2,166845, Control_c, 0, 64, 74
2,166862, Control_c, 0, 64, 66
2,166871, Note_on_c, 0, 53, 0
2,166877, Control_c, 0, 64, 48
2,166890, Note_on_c, 0, 54, 48
2,166890, Note_on_c, 0, 57, 48
2,166893, Control_c, 0, 64, 0
2,166893, Note_on_c, 0, 56, 0
2,166902, Note_on_c, 0, 69, 58
2,166948, Note_on_c, 0, 71, 0
2,167044, Control_c, 0, 64, 14
2,167059, Control_c, 0, 64, 48
2,167074, Control_c, 0, 64, 59
2,167090, Control_c, 0, 64, 63
2,167104, Control_c, 0, 64, 65
2,167110, Note_on_c, 0, 68, 55
2,167119, Control_c, 0, 64, 67
2,167135, Control_c, 0, 64, 70
2,167150, Control_c, 0, 64, 72
2,167165, Control_c, 0, 64, 75
2,167180, Control_c, 0, 64, 77
2,167195, Control_c, 0, 64, 79
2,167211, Control_c, 0, 64, 81
2,167226, Control_c, 0, 64, 81
2,167241, Control_c, 0, 64, 82
2,167306, Note_on_c, 0, 57, 0
2,167318, Note_on_c, 0, 54, 0
2,167326, Note_on_c, 0, 66, 52
2,167393, Control_c, 0, 64, 82
2,167424, Control_c, 0, 64, 83
2,167455, Control_c, 0, 64, 83
2,167456, Note_on_c, 0, 68, 0
2,167517, Note_on_c, 0, 65, 53
2,167519, Note_on_c, 0, 66, 0
2,167538, Control_c, 0, 64, 84
2,167569, Control_c, 0, 64, 84
2,167628, Control_c, 0, 64, 85
2,167659, Control_c, 0, 64, 86
2,167675, Control_c, 0, 64, 87
2,167691, Control_c, 0, 64, 87
2,167705, Control_c, 0, 64, 86
2,167720, Control_c, 0, 64, 81
2,167736, Control_c, 0, 64, 72
2,167744, Note_on_c, 0, 66, 59
2,167745, Note_on_c, 0, 54, 48
2,167750, Control_c, 0, 64, 63
2,167754, Note_on_c, 0, 61, 0
2,167765, Control_c, 0, 64, 43
2,167780, Note_on_c, 0, 65, 0
2,167781, Control_c, 0, 64, 0
2,167857, Control_c, 0, 64, 25
2,167872, Control_c, 0, 64, 43
2,167888, Control_c, 0, 64, 52
2,167902, Control_c, 0, 64, 57
2,167917, Control_c, 0, 64, 60
2,167933, Control_c, 0, 64, 63
2,167948, Control_c, 0, 64, 65
2,167962, Control_c, 0, 64, 67
2,167970, Note_on_c, 0, 61, 54
2,167978, Control_c, 0, 64, 71
2,167993, Control_c, 0, 64, 76
2,168009, Control_c, 0, 64, 80
2,168024, Control_c, 0, 64, 85
2,168039, Control_c, 0, 64, 88
2,168055, Control_c, 0, 64, 90
2,168070, Control_c, 0, 64, 90
2,168100, Control_c, 0, 64, 91
2,168115, Control_c, 0, 64, 91
2,168121, Note_on_c, 0, 61, 0
2,168131, Control_c, 0, 64, 92
2,168146, Control_c, 0, 64, 92
2,168152, Note_on_c, 0, 59, 58
2,168160, Control_c, 0, 64, 93
2,168176, Control_c, 0, 64, 93
2,168191, Control_c, 0, 64, 94
2,168206, Control_c, 0, 64, 94
2,168222, Control_c, 0, 64, 95
2,168260, Control_c, 0, 64, 96
2,168275, Control_c, 0, 64, 97
2,168288, Note_on_c, 0, 59, 0
2,168290, Control_c, 0, 64, 98
2,168305, Control_c, 0, 64, 98
2,168336, Control_c, 0, 64, 99
2,168350, Note_on_c, 0, 57, 57
2,168365, Control_c, 0, 64, 100
2,168381, Control_c, 0, 64, 101
2,168396, Control_c, 0, 64, 102
2,168412, Control_c, 0, 64, 103
2,168472, Control_c, 0, 64, 104
2,168504, Control_c, 0, 64, 104
2,168519, Control_c, 0, 64, 105
2,168535, Control_c, 0, 64, 106
2,168564, Control_c, 0, 64, 102
2,168580, Control_c, 0, 64, 94
2,168582, Note_on_c, 0, 73, 79
2,168589, Note_on_c, 0, 57, 0
2,168594, Control_c, 0, 64, 83
2,168595, Note_on_c, 0, 68, 67
2,168601, Note_on_c, 0, 54, 0
2,168601, Note_on_c, 0, 56, 57
2,168610, Control_c, 0, 64, 71
2,168625, Control_c, 0, 64, 56
2,168637, Note_on_c, 0, 66, 0
2,168640, Control_c, 0, 64, 0
2,168671, Note_on_c, 0, 69, 0
2,168732, Control_c, 0, 64, 34
2,168746, Control_c, 0, 64, 44
2,168761, Control_c, 0, 64, 50
2,168777, Control_c, 0, 64, 55
2,168791, Control_c, 0, 64, 59
2,168803, Note_on_c, 0, 54, 51
2,168806, Control_c, 0, 64, 62
2,168822, Control_c, 0, 64, 65
2,168837, Control_c, 0, 64, 67
2,168853, Control_c, 0, 64, 69
2,168868, Control_c, 0, 64, 72
2,168883, Control_c, 0, 64, 74
2,168899, Control_c, 0, 64, 74
2,168914, Control_c, 0, 64, 75
2,168929, Control_c, 0, 64, 74
2,168959, Control_c, 0, 64, 74
2,168975, Control_c, 0, 64, 73
2,168993, Note_on_c, 0, 54, 0
2,169009, Note_on_c, 0, 52, 57
2,169223, Note_on_c, 0, 51, 59
2,169231, Note_on_c, 0, 52, 0
2,169285, Control_c, 0, 64, 74
2,169333, Control_c, 0, 64, 74
2,169362, Control_c, 0, 64, 75
2,169393, Control_c, 0, 64, 72
2,169409, Control_c, 0, 64, 67
2,169424, Control_c, 0, 64, 62
2,169438, Control_c, 0, 64, 56
2,169454, Control_c, 0, 64, 55
2,169455, Note_on_c, 0, 52, 64
2,169469, Control_c, 0, 64, 56
2,169479, Note_on_c, 0, 68, 0
2,169484, Control_c, 0, 64, 58
2,169485, Note_on_c, 0, 51, 0
2,169500, Control_c, 0, 64, 61
2,169514, Control_c, 0, 64, 63
2,169530, Control_c, 0, 64, 64
2,169545, Control_c, 0, 64, 65
2,169560, Control_c, 0, 64, 66
2,169575, Control_c, 0, 64, 67
2,169590, Control_c, 0, 64, 69
2,169605, Control_c, 0, 64, 73
2,169621, Control_c, 0, 64, 77
2,169635, Control_c, 0, 64, 81
2,169651, Control_c, 0, 64, 85
2,169660, Note_on_c, 0, 68, 67
2,169666, Control_c, 0, 64, 88
2,169681, Control_c, 0, 64, 91
2,169697, Control_c, 0, 64, 93
2,169712, Control_c, 0, 64, 95
2,169726, Control_c, 0, 64, 97
2,169742, Control_c, 0, 64, 101
2,169757, Control_c, 0, 64, 104
2,169780, Control_c, 0, 64, 107
2,169795, Control_c, 0, 64, 106
2,169811, Control_c, 0, 64, 100
2,169826, Control_c, 0, 64, 89
2,169841, Control_c, 0, 64, 77
2,169856, Control_c, 0, 64, 66
2,169863, Note_on_c, 0, 49, 54
2,169868, Note_on_c, 0, 66, 61
2,169871, Control_c, 0, 64, 54
2,169886, Control_c, 0, 64, 47
2,169917, Control_c, 0, 64, 49
2,169932, Control_c, 0, 64, 54
2,169947, Control_c, 0, 64, 59
2,169948, Note_on_c, 0, 56, 0
2,169962, Control_c, 0, 64, 63
2,169978, Control_c, 0, 64, 65
2,169993, Control_c, 0, 64, 69
2,170009, Control_c, 0, 64, 73
2,170024, Control_c, 0, 64, 77
2,170039, Control_c, 0, 64, 82
2,170054, Control_c, 0, 64, 86
2,170069, Control_c, 0, 64, 89
2,170073, Note_on_c, 0, 64, 61
2,170084, Control_c, 0, 64, 91
2,170088, Note_on_c, 0, 66, 0
2,170095, Note_on_c, 0, 73, 0
2,170100, Control_c, 0, 64, 92
2,170115, Control_c, 0, 64, 93
2,170161, Control_c, 0, 64, 94
2,170177, Control_c, 0, 64, 95
2,170192, Control_c, 0, 64, 98
2,170206, Control_c, 0, 64, 99
2,170222, Control_c, 0, 64, 98
2,170237, Control_c, 0, 64, 91
2,170253, Control_c, 0, 64, 79
2,170268, Control_c, 0, 64, 68
2,170280, Note_on_c, 0, 64, 0
2,170282, Control_c, 0, 64, 54
2,170283, Note_on_c, 0, 63, 62
2,170284, Note_on_c, 0, 72, 80
2,170294, Note_on_c, 0, 56, 66
2,170298, Control_c, 0, 64, 35
2,170313, Control_c, 0, 64, 32
2,170344, Control_c, 0, 64, 33
2,170354, Note_on_c, 0, 52, 0
2,170358, Control_c, 0, 64, 43
2,170374, Control_c, 0, 64, 52
2,170376, Note_on_c, 0, 49, 0
2,170384, Note_on_c, 0, 68, 0
2,170389, Control_c, 0, 64, 59
2,170404, Control_c, 0, 64, 63
2,170409, Note_on_c, 0, 63, 0
2,170419, Control_c, 0, 64, 66
2,170434, Control_c, 0, 64, 70
2,170450, Control_c, 0, 64, 75
2,170465, Control_c, 0, 64, 78
2,170480, Control_c, 0, 64, 82
2,170495, Control_c, 0, 64, 86
2,170510, Control_c, 0, 64, 90
2,170513, Note_on_c, 0, 69, 69
2,170525, Control_c, 0, 64, 94
2,170549, Control_c, 0, 64, 98
2,170564, Control_c, 0, 64, 100
2,170579, Control_c, 0, 64, 101
2,170610, Control_c, 0, 64, 100
2,170624, Control_c, 0, 64, 99
2,170639, Control_c, 0, 64, 95
2,170656, Control_c, 0, 64, 88
2,170671, Control_c, 0, 64, 77
2,170686, Control_c, 0, 64, 69
2,170701, Control_c, 0, 64, 61
2,170716, Control_c, 0, 64, 53
2,170725, Note_on_c, 0, 68, 69
2,170726, Note_on_c, 0, 44, 68
2,170732, Control_c, 0, 64, 53
2,170747, Control_c, 0, 64, 53
2,170762, Control_c, 0, 64, 56
2,170777, Control_c, 0, 64, 59
2,170791, Note_on_c, 0, 72, 0
2,170792, Control_c, 0, 64, 62
2,170808, Control_c, 0, 64, 64
2,170822, Control_c, 0, 64, 65
2,170825, Note_on_c, 0, 69, 0
2,170837, Control_c, 0, 64, 67
2,170853, Control_c, 0, 64, 69
2,170868, Control_c, 0, 64, 71
2,170883, Control_c, 0, 64, 73
2,170898, Control_c, 0, 64, 75
2,170913, Control_c, 0, 64, 77
2,170915, Note_on_c, 0, 66, 75
2,170929, Control_c, 0, 64, 80
2,170945, Control_c, 0, 64, 81
2,170986, Note_on_c, 0, 68, 0
2,171021, Control_c, 0, 64, 82
2,171036, Control_c, 0, 64, 83
2,171051, Control_c, 0, 64, 84
2,171066, Control_c, 0, 64, 83
2,171081, Control_c, 0, 64, 77
2,171097, Control_c, 0, 64, 70
2,171112, Control_c, 0, 64, 60
2,171128, Control_c, 0, 64, 43
2,171128, Note_on_c, 0, 49, 80
2,171136, Note_on_c, 0, 76, 74
2,171140, Note_on_c, 0, 64, 68
2,171143, Control_c, 0, 64, 37
2,171187, Note_on_c, 0, 66, 0
2,171188, Control_c, 0, 64, 44
2,171203, Control_c, 0, 64, 51
2,171219, Control_c, 0, 64, 57
2,171219, Note_on_c, 0, 44, 0
2,171234, Control_c, 0, 64, 62
2,171250, Control_c, 0, 64, 64
2,171264, Control_c, 0, 64, 67
2,171279, Control_c, 0, 64, 69
2,171295, Control_c, 0, 64, 72
2,171317, Control_c, 0, 64, 74
2,171333, Control_c, 0, 64, 77
2,171341, Note_on_c, 0, 68, 69
2,171347, Control_c, 0, 64, 79
2,171362, Control_c, 0, 64, 80
2,171378, Control_c, 0, 64, 81
2,171381, Note_on_c, 0, 49, 0
2,171409, Control_c, 0, 64, 81
2,171424, Control_c, 0, 64, 82
2,171439, Control_c, 0, 64, 83
2,171455, Control_c, 0, 64, 85
2,171469, Control_c, 0, 64, 86
2,171484, Control_c, 0, 64, 85
2,171500, Control_c, 0, 64, 83
2,171515, Control_c, 0, 64, 80
2,171531, Control_c, 0, 64, 79
2,171545, Control_c, 0, 64, 79
2,171569, Note_on_c, 0, 49, 66
2,171579, Note_on_c, 0, 73, 81
2,171585, Note_on_c, 0, 68, 0
2,171605, Control_c, 0, 64, 79
2,171652, Control_c, 0, 64, 80
2,171681, Control_c, 0, 64, 80
2,171697, Control_c, 0, 64, 81
2,171699, Note_on_c, 0, 49, 0
2,171728, Control_c, 0, 64, 81
2,171742, Control_c, 0, 64, 82
2,171745, Note_on_c, 0, 71, 74
2,171757, Control_c, 0, 64, 82
2,171774, Control_c, 0, 64, 83
2,171791, Control_c, 0, 64, 84
2,171793, Note_on_c, 0, 76, 0
2,171883, Control_c, 0, 64, 85
2,171884, Note_on_c, 0, 73, 0
2,171942, Note_on_c, 0, 64, 0
2,171943, Control_c, 0, 64, 81
2,171958, Control_c, 0, 64, 75
2,171973, Control_c, 0, 64, 65
2,171973, Note_on_c, 0, 54, 66
2,171979, Note_on_c, 0, 49, 62
2,171988, Control_c, 0, 64, 49
2,171992, Note_on_c, 0, 75, 80
2,171999, Note_on_c, 0, 69, 57
2,172001, Note_on_c, 0, 56, 0
2,172004, Control_c, 0, 64, 25
2,172019, Control_c, 0, 64, 22
2,172021, Note_on_c, 0, 71, 0
2,172034, Control_c, 0, 64, 21
2,172050, Control_c, 0, 64, 25
2,172065, Control_c, 0, 64, 40
2,172088, Control_c, 0, 64, 50
2,172103, Control_c, 0, 64, 56
2,172117, Control_c, 0, 64, 59
2,172133, Control_c, 0, 64, 61
2,172148, Control_c, 0, 64, 63
2,172164, Control_c, 0, 64, 65
2,172179, Control_c, 0, 64, 67
2,172181, Note_on_c, 0, 68, 73
2,172193, Control_c, 0, 64, 71
2,172209, Control_c, 0, 64, 75
2,172224, Control_c, 0, 64, 77
2,172228, Note_on_c, 0, 69, 0
2,172238, Control_c, 0, 64, 78
2,172285, Control_c, 0, 64, 79
2,172300, Control_c, 0, 64, 79
2,172314, Control_c, 0, 64, 81
2,172330, Control_c, 0, 64, 82
2,172345, Control_c, 0, 64, 80
2,172361, Control_c, 0, 64, 74
2,172376, Control_c, 0, 64, 64
2,172390, Control_c, 0, 64, 47
2,172406, Control_c, 0, 64, 34
2,172409, Note_on_c, 0, 48, 60
2,172416, Note_on_c, 0, 69, 74
2,172421, Control_c, 0, 64, 34
2,172435, Control_c, 0, 64, 34
2,172451, Control_c, 0, 64, 42
2,172466, Control_c, 0, 64, 50
2,172468, Note_on_c, 0, 68, 0
2,172482, Control_c, 0, 64, 54
2,172497, Control_c, 0, 64, 56
2,172511, Control_c, 0, 64, 58
2,172527, Control_c, 0, 64, 59
2,172532, Note_on_c, 0, 49, 0
2,172542, Control_c, 0, 64, 61
2,172557, Control_c, 0, 64, 63
2,172573, Control_c, 0, 64, 65
2,172589, Control_c, 0, 64, 67
2,172598, Note_on_c, 0, 46, 74
2,172602, Note_on_c, 0, 66, 70
2,172605, Control_c, 0, 64, 70
2,172619, Control_c, 0, 64, 73
2,172634, Control_c, 0, 64, 75
2,172646, Note_on_c, 0, 48, 0
2,172650, Control_c, 0, 64, 76
2,172664, Control_c, 0, 64, 77
2,172678, Note_on_c, 0, 69, 0
2,172695, Control_c, 0, 64, 77
2,172756, Control_c, 0, 64, 78
2,172786, Control_c, 0, 64, 77
2,172802, Control_c, 0, 64, 76
2,172817, Control_c, 0, 64, 74
2,172820, Note_on_c, 0, 51, 76
2,172822, Note_on_c, 0, 48, 65
2,172825, Note_on_c, 0, 68, 75
2,172832, Control_c, 0, 64, 70
2,172855, Control_c, 0, 64, 64
2,172869, Control_c, 0, 64, 41
2,172885, Control_c, 0, 64, 0
2,172891, Note_on_c, 0, 46, 0
2,172893, Note_on_c, 0, 54, 0
2,172917, Note_on_c, 0, 66, 0
2,173022, Note_on_c, 0, 49, 76
2,173098, Control_c, 0, 64, 45
2,173113, Control_c, 0, 64, 55
2,173119, Note_on_c, 0, 51, 0
2,173129, Control_c, 0, 64, 57
2,173144, Control_c, 0, 64, 58
2,173153, Note_on_c, 0, 48, 0
2,173158, Control_c, 0, 64, 58
2,173205, Control_c, 0, 64, 59
2,173227, Note_on_c, 0, 51, 79
2,173234, Control_c, 0, 64, 59
2,173250, Control_c, 0, 64, 60
2,173265, Control_c, 0, 64, 60
2,173273, Note_on_c, 0, 49, 0
2,173295, Control_c, 0, 64, 61
2,173326, Control_c, 0, 64, 61
2,173355, Control_c, 0, 64, 62
2,173371, Control_c, 0, 64, 63
2,173386, Control_c, 0, 64, 65
2,173403, Control_c, 0, 64, 67
2,173417, Note_on_c, 0, 48, 83
2,173418, Control_c, 0, 64, 70
2,173433, Control_c, 0, 64, 73
2,173437, Note_on_c, 0, 51, 0
2,173449, Control_c, 0, 64, 76
2,173463, Control_c, 0, 64, 79
2,173478, Control_c, 0, 64, 82
2,173492, Note_on_c, 0, 68, 0
2,173494, Control_c, 0, 64, 84
2,173508, Control_c, 0, 64, 86
2,173524, Control_c, 0, 64, 88
2,173538, Note_on_c, 0, 48, 0
2,173539, Control_c, 0, 64, 90
2,173554, Control_c, 0, 64, 92
2,173570, Control_c, 0, 64, 95
2,173584, Control_c, 0, 64, 97
2,173599, Control_c, 0, 64, 99
2,173623, Control_c, 0, 64, 99
2,173638, Control_c, 0, 64, 93
2,173654, Control_c, 0, 64, 81
2,173656, Note_on_c, 0, 52, 89
2,173659, Note_on_c, 0, 40, 81
2,173668, Control_c, 0, 64, 68
2,173684, Control_c, 0, 64, 38
2,173699, Control_c, 0, 64, 0
2,173836, Control_c, 0, 64, 22
2,173851, Control_c, 0, 64, 48
2,173855, Note_on_c, 0, 51, 80
2,173866, Control_c, 0, 64, 57
2,173882, Control_c, 0, 64, 61
2,173897, Control_c, 0, 64, 63
2,173912, Control_c, 0, 64, 64
2,173917, Note_on_c, 0, 52, 0
2,173927, Control_c, 0, 64, 64
2,173942, Control_c, 0, 64, 65
2,173957, Control_c, 0, 64, 66
2,173973, Control_c, 0, 64, 66
2,173988, Control_c, 0, 64, 67
2,174004, Control_c, 0, 64, 67
2,174019, Control_c, 0, 64, 68
2,174034, Control_c, 0, 64, 68
2,174037, Note_on_c, 0, 40, 0
2,174049, Control_c, 0, 64, 69
2,174064, Control_c, 0, 64, 69
2,174071, Note_on_c, 0, 73, 91
2,174078, Note_on_c, 0, 52, 80
2,174079, Control_c, 0, 64, 70
2,174110, Control_c, 0, 64, 70
2,174117, Note_on_c, 0, 51, 0
2,174125, Control_c, 0, 64, 71
2,174140, Control_c, 0, 64, 72
2,174155, Control_c, 0, 64, 73
2,174171, Control_c, 0, 64, 75
2,174186, Control_c, 0, 64, 77
2,174201, Control_c, 0, 64, 80
2,174216, Control_c, 0, 64, 84
2,174232, Control_c, 0, 64, 89
2,174248, Control_c, 0, 64, 94
2,174258, Note_on_c, 0, 72, 84
2,174263, Control_c, 0, 64, 99
2,174263, Note_on_c, 0, 54, 72
2,174278, Control_c, 0, 64, 103
2,174294, Control_c, 0, 64, 104
2,174305, Note_on_c, 0, 75, 0
2,174306, Note_on_c, 0, 52, 0
2,174331, Note_on_c, 0, 73, 0
2,174339, Control_c, 0, 64, 105
2,174353, Control_c, 0, 64, 105
2,174369, Control_c, 0, 64, 106
2,174391, Control_c, 0, 64, 107
2,174407, Control_c, 0, 64, 108
2,174422, Control_c, 0, 64, 109
2,174437, Control_c, 0, 64, 110
2,174468, Control_c, 0, 64, 103
2,174484, Control_c, 0, 64, 90
2,174498, Control_c, 0, 64, 74
2,174509, Note_on_c, 0, 73, 88
2,174511, Note_on_c, 0, 52, 79
2,174511, Note_on_c, 0, 80, 90
2,174513, Control_c, 0, 64, 54
2,174529, Control_c, 0, 64, 0
2,174529, Note_on_c, 0, 54, 0
2,174550, Note_on_c, 0, 72, 0
2,174650, Control_c, 0, 64, 47
2,174665, Control_c, 0, 64, 60
2,174681, Control_c, 0, 64, 64
2,174693, Note_on_c, 0, 51, 78
2,174695, Control_c, 0, 64, 66
2,174710, Control_c, 0, 64, 67
2,174726, Control_c, 0, 64, 69
2,174741, Control_c, 0, 64, 71
2,174748, Note_on_c, 0, 52, 0
2,174756, Control_c, 0, 64, 73
2,174771, Control_c, 0, 64, 74
2,174817, Control_c, 0, 64, 73
2,174829, Note_on_c, 0, 80, 0
2,174848, Control_c, 0, 64, 73
2,174908, Note_on_c, 0, 45, 67
2,174924, Note_on_c, 0, 49, 71
2,174933, Note_on_c, 0, 80, 95
2,174939, Control_c, 0, 64, 73
2,174969, Control_c, 0, 64, 74
2,174999, Control_c, 0, 64, 74
2,175011, Note_on_c, 0, 51, 0
2,175015, Control_c, 0, 64, 75
2,175030, Control_c, 0, 64, 75
2,175046, Control_c, 0, 64, 76
2,175061, Control_c, 0, 64, 77
2,175076, Control_c, 0, 64, 80
2,175092, Control_c, 0, 64, 83
2,175100, Note_on_c, 0, 45, 0
2,175107, Control_c, 0, 64, 87
2,175122, Control_c, 0, 64, 92
2,175126, Note_on_c, 0, 52, 79
2,175137, Control_c, 0, 64, 99
2,175159, Control_c, 0, 64, 106
2,175175, Control_c, 0, 64, 109
2,175190, Control_c, 0, 64, 109
2,175195, Note_on_c, 0, 52, 0
2,175235, Control_c, 0, 64, 110
2,175251, Control_c, 0, 64, 110
2,175252, Note_on_c, 0, 80, 0
2,175266, Control_c, 0, 64, 111
2,175275, Note_on_c, 0, 49, 0
2,175282, Control_c, 0, 64, 111
2,175297, Control_c, 0, 64, 104
2,175312, Control_c, 0, 64, 90
2,175328, Control_c, 0, 64, 74
2,175330, Note_on_c, 0, 51, 84
2,175342, Control_c, 0, 64, 52
2,175345, Note_on_c, 0, 39, 65
2,175345, Note_on_c, 0, 80, 97
2,175357, Control_c, 0, 64, 0
2,175522, Control_c, 0, 64, 39
2,175537, Control_c, 0, 64, 54
2,175540, Note_on_c, 0, 49, 78
2,175546, Note_on_c, 0, 73, 0
2,175552, Control_c, 0, 64, 59
2,175568, Control_c, 0, 64, 61
2,175583, Control_c, 0, 64, 61
2,175591, Note_on_c, 0, 51, 0
2,175613, Control_c, 0, 64, 62
2,175628, Control_c, 0, 64, 62
2,175749, Note_on_c, 0, 78, 85
2,175750, Note_on_c, 0, 70, 93
2,175756, Note_on_c, 0, 51, 81
2,175872, Control_c, 0, 64, 63
2,175888, Control_c, 0, 64, 63
2,175901, Note_on_c, 0, 51, 0
2,175903, Control_c, 0, 64, 64
2,175925, Control_c, 0, 64, 64
2,175942, Note_on_c, 0, 39, 0
2,175952, Note_on_c, 0, 52, 77
2,175956, Control_c, 0, 64, 65
2,175964, Note_on_c, 0, 76, 84
2,175971, Control_c, 0, 64, 66
2,175971, Note_on_c, 0, 80, 0
2,175986, Control_c, 0, 64, 66
2,175991, Note_on_c, 0, 49, 0
2,175999, Note_on_c, 0, 78, 0
2,176001, Control_c, 0, 64, 68
2,176017, Control_c, 0, 64, 69
2,176031, Control_c, 0, 64, 71
2,176045, Control_c, 0, 64, 73
2,176061, Control_c, 0, 64, 74
2,176076, Control_c, 0, 64, 75
2,176092, Control_c, 0, 64, 76
2,176152, Control_c, 0, 64, 75
2,176168, Control_c, 0, 64, 71
2,176182, Control_c, 0, 64, 62
2,176187, Note_on_c, 0, 51, 82
2,176189, Note_on_c, 0, 78, 88
2,176192, Note_on_c, 0, 75, 83
2,176197, Control_c, 0, 64, 0
2,176221, Note_on_c, 0, 52, 0
2,176224, Note_on_c, 0, 76, 0
2,176227, Note_on_c, 0, 70, 0
2,176385, Note_on_c, 0, 49, 81
2,176424, Note_on_c, 0, 75, 0
2,176441, Control_c, 0, 64, 46
2,176456, Control_c, 0, 64, 55
2,176456, Note_on_c, 0, 51, 0
2,176471, Control_c, 0, 64, 58
2,176486, Control_c, 0, 64, 60
2,176501, Control_c, 0, 64, 61
2,176516, Control_c, 0, 64, 63
2,176532, Control_c, 0, 64, 64
2,176547, Control_c, 0, 64, 67
2,176562, Control_c, 0, 64, 70
2,176577, Control_c, 0, 64, 71
2,176592, Control_c, 0, 64, 67
2,176608, Control_c, 0, 64, 60
2,176617, Note_on_c, 0, 48, 82
2,176623, Control_c, 0, 64, 45
2,176624, Note_on_c, 0, 44, 76
2,176624, Note_on_c, 0, 75, 94
2,176638, Control_c, 0, 64, 38
2,176668, Control_c, 0, 64, 39
2,176668, Note_on_c, 0, 49, 0
2,176692, Control_c, 0, 64, 46
2,176704, Note_on_c, 0, 78, 0
2,176707, Control_c, 0, 64, 53
2,176722, Control_c, 0, 64, 58
2,176738, Control_c, 0, 64, 63
2,176753, Control_c, 0, 64, 68
2,176768, Control_c, 0, 64, 73
2,176783, Control_c, 0, 64, 79
2,176798, Control_c, 0, 64, 86
2,176814, Control_c, 0, 64, 93
2,176829, Control_c, 0, 64, 99
2,176844, Control_c, 0, 64, 104
2,176854, Note_on_c, 0, 51, 89
2,176860, Control_c, 0, 64, 106
2,176860, Note_on_c, 0, 75, 0
2,176865, Note_on_c, 0, 48, 0
2,176875, Control_c, 0, 64, 108
2,176890, Control_c, 0, 64, 109
2,176898, Note_on_c, 0, 51, 0
2,176905, Control_c, 0, 64, 111
2,176918, Note_on_c, 0, 44, 0
2,176920, Control_c, 0, 64, 114
2,176936, Control_c, 0, 64, 116
2,176950, Control_c, 0, 64, 118
2,176965, Control_c, 0, 64, 120
2,176981, Control_c, 0, 64, 127
2,177193, Control_c, 0, 64, 106
2,177209, Control_c, 0, 64, 88
2,177219, Note_on_c, 0, 76, 87
2,177223, Note_on_c, 0, 75, 84
2,177224, Control_c, 0, 64, 72
2,177227, Note_on_c, 0, 49, 83
2,177231, Note_on_c, 0, 37, 86
2,177239, Control_c, 0, 64, 52
2,177254, Control_c, 0, 64, 0
2,177360, Control_c, 0, 64, 20
2,177376, Control_c, 0, 64, 54
2,177386, Note_on_c, 0, 37, 0
2,177391, Control_c, 0, 64, 65
2,177406, Control_c, 0, 64, 70
2,177421, Control_c, 0, 64, 77
2,177436, Control_c, 0, 64, 85
2,177459, Control_c, 0, 64, 94
2,177474, Control_c, 0, 64, 103
2,177490, Control_c, 0, 64, 106
2,177497, Note_on_c, 0, 49, 0
2,177506, Control_c, 0, 64, 106
2,177551, Control_c, 0, 64, 106
2,177568, Control_c, 0, 64, 107
2,177582, Control_c, 0, 64, 107
2,177597, Control_c, 0, 64, 108
2,177628, Control_c, 0, 64, 108
2,177643, Control_c, 0, 64, 108
2,177658, Control_c, 0, 64, 102
2,177673, Control_c, 0, 64, 91
2,177689, Control_c, 0, 64, 81
2,177695, Note_on_c, 0, 52, 87
2,177704, Control_c, 0, 64, 71
2,177712, Note_on_c, 0, 73, 82
2,177719, Control_c, 0, 64, 66
2,177734, Control_c, 0, 64, 66
2,177739, Note_on_c, 0, 75, 0
2,177749, Control_c, 0, 64, 67
2,177764, Control_c, 0, 64, 69
2,177780, Control_c, 0, 64, 70
2,177795, Control_c, 0, 64, 73
2,177808, Control_c, 0, 64, 75
2,177824, Control_c, 0, 64, 78
2,177839, Control_c, 0, 64, 81
2,177855, Control_c, 0, 64, 84
2,177869, Control_c, 0, 64, 87
2,177884, Control_c, 0, 64, 89
2,177900, Control_c, 0, 64, 90
2,177915, Control_c, 0, 64, 91
2,177921, Note_on_c, 0, 71, 74
2,177930, Control_c, 0, 64, 90
2,177943, Note_on_c, 0, 73, 0
2,178036, Control_c, 0, 64, 91
2,178051, Control_c, 0, 64, 92
2,178066, Control_c, 0, 64, 93
2,178081, Control_c, 0, 64, 93
2,178097, Control_c, 0, 64, 92
2,178112, Control_c, 0, 64, 85
2,178127, Control_c, 0, 64, 72
2,178142, Control_c, 0, 64, 52
2,178143, Note_on_c, 0, 57, 85
2,178148, Note_on_c, 0, 73, 83
2,178157, Control_c, 0, 64, 0
2,178183, Note_on_c, 0, 71, 0
2,178281, Note_on_c, 0, 52, 0
2,178332, Control_c, 0, 64, 37
2,178348, Control_c, 0, 64, 59
2,178363, Control_c, 0, 64, 65
2,178378, Control_c, 0, 64, 67
2,178393, Control_c, 0, 64, 68
2,178408, Control_c, 0, 64, 69
2,178423, Control_c, 0, 64, 70
2,178438, Control_c, 0, 64, 71
2,178453, Control_c, 0, 64, 72
2,178469, Control_c, 0, 64, 74
2,178469, Note_on_c, 0, 57, 0
2,178484, Control_c, 0, 64, 77
2,178500, Control_c, 0, 64, 79
2,178515, Control_c, 0, 64, 81
2,178529, Control_c, 0, 64, 83
2,178545, Control_c, 0, 64, 84
2,178560, Control_c, 0, 64, 84
2,178576, Control_c, 0, 64, 85
2,178586, Note_on_c, 0, 57, 87
2,178591, Control_c, 0, 64, 86
2,178606, Control_c, 0, 64, 87
2,178621, Control_c, 0, 64, 88
2,178636, Control_c, 0, 64, 89
2,178651, Control_c, 0, 64, 91
2,178667, Control_c, 0, 64, 92
2,178682, Control_c, 0, 64, 94
2,178697, Control_c, 0, 64, 96
2,178712, Control_c, 0, 64, 98
2,178727, Control_c, 0, 64, 98
2,178743, Control_c, 0, 64, 99
2,178758, Control_c, 0, 64, 99
2,178773, Control_c, 0, 64, 100
2,178784, Note_on_c, 0, 57, 0
2,178788, Control_c, 0, 64, 100
2,178819, Control_c, 0, 64, 101
2,178895, Control_c, 0, 64, 101
2,178909, Control_c, 0, 64, 102
2,178922, Control_c, 0, 64, 102
2,178937, Control_c, 0, 64, 103
2,178953, Control_c, 0, 64, 103
2,178968, Control_c, 0, 64, 101
2,178991, Control_c, 0, 64, 93
2,178993, Note_on_c, 0, 75, 92
2,179000, Note_on_c, 0, 71, 82
2,179006, Control_c, 0, 64, 81
2,179007, Note_on_c, 0, 57, 84
2,179022, Control_c, 0, 64, 67
2,179035, Note_on_c, 0, 76, 0
2,179036, Control_c, 0, 64, 43
2,179051, Control_c, 0, 64, 0
2,179086, Note_on_c, 0, 73, 0
2,179219, Control_c, 0, 64, 31
2,179235, Control_c, 0, 64, 55
2,179250, Control_c, 0, 64, 62
2,179265, Control_c, 0, 64, 66
2,179280, Control_c, 0, 64, 69
2,179295, Control_c, 0, 64, 72
2,179311, Control_c, 0, 64, 75
2,179326, Control_c, 0, 64, 79
2,179340, Control_c, 0, 64, 82
2,179356, Control_c, 0, 64, 86
2,179371, Control_c, 0, 64, 91
2,179387, Control_c, 0, 64, 94
2,179402, Control_c, 0, 64, 89
2,179417, Control_c, 0, 64, 78
2,179425, Note_on_c, 0, 59, 89
2,179429, Note_on_c, 0, 55, 77
2,179433, Control_c, 0, 64, 66
2,179433, Note_on_c, 0, 57, 0
2,179448, Control_c, 0, 64, 43
2,179463, Control_c, 0, 64, 0
2,179509, Control_c, 0, 64, 19
2,179524, Control_c, 0, 64, 43
2,179538, Control_c, 0, 64, 56
2,179554, Control_c, 0, 64, 63
2,179569, Control_c, 0, 64, 67
2,179585, Control_c, 0, 64, 71
2,179599, Control_c, 0, 64, 76
2,179614, Control_c, 0, 64, 80
2,179618, Note_on_c, 0, 54, 83
2,179630, Control_c, 0, 64, 83
2,179645, Control_c, 0, 64, 85
2,179653, Note_on_c, 0, 55, 0
2,179653, Note_on_c, 0, 59, 0
2,179660, Control_c, 0, 64, 86
2,179675, Control_c, 0, 64, 87
2,179690, Control_c, 0, 64, 89
2,179706, Control_c, 0, 64, 90
2,179721, Control_c, 0, 64, 92
2,179736, Control_c, 0, 64, 93
2,179759, Control_c, 0, 64, 94
2,179760, Note_on_c, 0, 71, 0
2,179774, Control_c, 0, 64, 96
2,179790, Control_c, 0, 64, 97
2,179804, Control_c, 0, 64, 98
2,179819, Control_c, 0, 64, 99
2,179835, Control_c, 0, 64, 100
2,179850, Control_c, 0, 64, 101
2,179866, Control_c, 0, 64, 102
2,179880, Control_c, 0, 64, 103
2,179911, Control_c, 0, 64, 99
2,179926, Control_c, 0, 64, 89
2,179927, Note_on_c, 0, 71, 93
2,179927, Note_on_c, 0, 79, 89
2,179933, Note_on_c, 0, 52, 75
2,179935, Note_on_c, 0, 64, 84
2,179942, Control_c, 0, 64, 74
2,179958, Control_c, 0, 64, 57
2,179959, Note_on_c, 0, 54, 0
2,179973, Control_c, 0, 64, 0
2,180000, Note_on_c, 0, 75, 0
2,180109, Control_c, 0, 64, 52
2,180124, Control_c, 0, 64, 62
2,180139, Control_c, 0, 64, 66
2,180155, Control_c, 0, 64, 69
2,180170, Control_c, 0, 64, 73
2,180185, Control_c, 0, 64, 77
2,180200, Control_c, 0, 64, 80
2,180215, Control_c, 0, 64, 84
2,180219, Note_on_c, 0, 64, 0
2,180231, Control_c, 0, 64, 87
2,180246, Control_c, 0, 64, 89
2,180262, Control_c, 0, 64, 91
2,180277, Control_c, 0, 64, 91
2,180291, Control_c, 0, 64, 92
2,180322, Control_c, 0, 64, 92
2,180353, Control_c, 0, 64, 93
2,180368, Control_c, 0, 64, 93
2,180383, Control_c, 0, 64, 94
2,180398, Control_c, 0, 64, 95
2,180399, Note_on_c, 0, 64, 90
2,180413, Control_c, 0, 64, 95
2,180429, Control_c, 0, 64, 96
2,180443, Control_c, 0, 64, 97
2,180458, Control_c, 0, 64, 98
2,180462, Note_on_c, 0, 79, 0
2,180474, Control_c, 0, 64, 99
2,180489, Control_c, 0, 64, 100
2,180505, Control_c, 0, 64, 100
2,180527, Control_c, 0, 64, 101
2,180543, Control_c, 0, 64, 101
2,180558, Control_c, 0, 64, 102
2,180573, Control_c, 0, 64, 103
2,180589, Control_c, 0, 64, 104
2,180595, Note_on_c, 0, 64, 0
2,180618, Control_c, 0, 64, 105
2,180649, Control_c, 0, 64, 105
2,180680, Control_c, 0, 64, 106
2,180725, Control_c, 0, 64, 107
2,180740, Control_c, 0, 64, 108
2,180787, Control_c, 0, 64, 103
2,180802, Control_c, 0, 64, 92
2,180817, Control_c, 0, 64, 77
2,180826, Note_on_c, 0, 70, 84
2,180826, Note_on_c, 0, 78, 86
2,180827, Note_on_c, 0, 64, 87
2,180833, Control_c, 0, 64, 62
2,180848, Control_c, 0, 64, 0
2,180885, Note_on_c, 0, 71, 0
2,180939, Control_c, 0, 64, 41
2,180943, Note_on_c, 0, 52, 0
2,180954, Control_c, 0, 64, 60
2,180969, Control_c, 0, 64, 65
2,180985, Control_c, 0, 64, 69
2,181000, Control_c, 0, 64, 74
2,181015, Control_c, 0, 64, 79
2,181030, Control_c, 0, 64, 84
2,181045, Control_c, 0, 64, 90
2,181060, Control_c, 0, 64, 96
2,181076, Control_c, 0, 64, 101
2,181090, Control_c, 0, 64, 104
2,181106, Control_c, 0, 64, 106
2,181121, Control_c, 0, 64, 106
2,181136, Control_c, 0, 64, 107
2,181152, Control_c, 0, 64, 108
2,181166, Control_c, 0, 64, 109
2,181182, Control_c, 0, 64, 110
2,181197, Control_c, 0, 64, 108
2,181212, Control_c, 0, 64, 98
2,181228, Control_c, 0, 64, 86
2,181243, Control_c, 0, 64, 72
2,181256, Note_on_c, 0, 62, 78
2,181257, Control_c, 0, 64, 57
2,181257, Note_on_c, 0, 54, 75
2,181273, Control_c, 0, 64, 40
2,181295, Control_c, 0, 64, 40
2,181297, Note_on_c, 0, 64, 0
2,181311, Control_c, 0, 64, 42
2,181326, Control_c, 0, 64, 49
2,181342, Control_c, 0, 64, 56
2,181357, Control_c, 0, 64, 61
2,181371, Control_c, 0, 64, 66
2,181387, Control_c, 0, 64, 70
2,181402, Control_c, 0, 64, 76
2,181416, Control_c, 0, 64, 83
2,181432, Control_c, 0, 64, 90
2,181447, Control_c, 0, 64, 97
2,181449, Note_on_c, 0, 61, 84
2,181463, Control_c, 0, 64, 101
2,181478, Control_c, 0, 64, 102
2,181509, Control_c, 0, 64, 103
2,181518, Note_on_c, 0, 62, 0
2,181524, Control_c, 0, 64, 103
2,181539, Control_c, 0, 64, 104
2,181555, Control_c, 0, 64, 105
2,181569, Control_c, 0, 64, 107
2,181577, Note_on_c, 0, 61, 0
2,181585, Control_c, 0, 64, 108
2,181600, Control_c, 0, 64, 109
2,181615, Control_c, 0, 64, 110
2,181631, Control_c, 0, 64, 108
2,181646, Control_c, 0, 64, 99
2,181662, Control_c, 0, 64, 85
2,181677, Control_c, 0, 64, 69
2,181690, Note_on_c, 0, 66, 89
2,181692, Control_c, 0, 64, 25
2,181694, Note_on_c, 0, 78, 0
2,181699, Note_on_c, 0, 74, 78
2,181708, Control_c, 0, 64, 0
2,181709, Note_on_c, 0, 59, 80
2,181728, Note_on_c, 0, 70, 0
2,181829, Control_c, 0, 64, 21
2,181844, Control_c, 0, 64, 55
2,181858, Control_c, 0, 64, 64
2,181874, Control_c, 0, 64, 69
2,181889, Control_c, 0, 64, 75
2,181905, Control_c, 0, 64, 82
2,181920, Control_c, 0, 64, 89
2,181934, Control_c, 0, 64, 96
2,181944, Note_on_c, 0, 59, 0
2,181950, Control_c, 0, 64, 102
2,181965, Control_c, 0, 64, 104
2,182026, Control_c, 0, 64, 105
2,182041, Control_c, 0, 64, 106
2,182064, Control_c, 0, 64, 107
2,182079, Control_c, 0, 64, 109
2,182094, Control_c, 0, 64, 110
2,182110, Control_c, 0, 64, 112
2,182125, Control_c, 0, 64, 114
2,182126, Note_on_c, 0, 59, 87
2,182139, Control_c, 0, 64, 114
2,182155, Control_c, 0, 64, 115
2,182170, Control_c, 0, 64, 115
2,182201, Control_c, 0, 64, 116
2,182246, Control_c, 0, 64, 116
2,182260, Control_c, 0, 64, 117
2,182270, Note_on_c, 0, 59, 0
2,182276, Control_c, 0, 64, 117
2,182291, Control_c, 0, 64, 118
2,182307, Control_c, 0, 64, 119
2,182322, Control_c, 0, 64, 123
2,182337, Control_c, 0, 64, 127
2,182447, Note_on_c, 0, 66, 0
2,182475, Control_c, 0, 64, 112
2,182490, Control_c, 0, 64, 94
2,182506, Control_c, 0, 64, 76
2,182521, Control_c, 0, 64, 48
2,182531, Note_on_c, 0, 59, 81
2,182533, Note_on_c, 0, 65, 75
2,182533, Note_on_c, 0, 73, 77
2,182535, Control_c, 0, 64, 0
2,182553, Note_on_c, 0, 74, 0
2,182628, Control_c, 0, 64, 43
2,182642, Control_c, 0, 64, 62
2,182657, Control_c, 0, 64, 69
2,182673, Control_c, 0, 64, 77
2,182688, Control_c, 0, 64, 88
2,182703, Control_c, 0, 64, 101
2,182718, Control_c, 0, 64, 114
2,182722, Note_on_c, 0, 54, 0
2,182733, Control_c, 0, 64, 115
2,182749, Control_c, 0, 64, 114
2,182794, Control_c, 0, 64, 114
2,182809, Control_c, 0, 64, 115
2,182833, Control_c, 0, 64, 115
2,182847, Control_c, 0, 64, 116
2,182863, Control_c, 0, 64, 118
2,182878, Control_c, 0, 64, 118
2,182893, Control_c, 0, 64, 119
2,182908, Control_c, 0, 64, 111
2,182923, Control_c, 0, 64, 97
2,182937, Control_c, 0, 64, 81
2,182944, Note_on_c, 0, 57, 72
2,182944, Note_on_c, 0, 61, 72
2,182953, Control_c, 0, 64, 63
2,182970, Control_c, 0, 64, 0
2,182972, Note_on_c, 0, 59, 0
2,183031, Control_c, 0, 64, 30
2,183046, Control_c, 0, 64, 52
2,183061, Control_c, 0, 64, 63
2,183076, Control_c, 0, 64, 68
2,183091, Control_c, 0, 64, 75
2,183107, Control_c, 0, 64, 83
2,183122, Control_c, 0, 64, 92
2,183123, Note_on_c, 0, 65, 0
2,183138, Control_c, 0, 64, 101
2,183145, Note_on_c, 0, 56, 79
2,183153, Control_c, 0, 64, 106
2,183168, Control_c, 0, 64, 105
2,183177, Note_on_c, 0, 57, 0
2,183244, Control_c, 0, 64, 106
2,183306, Control_c, 0, 64, 106
2,183321, Control_c, 0, 64, 107
2,183336, Control_c, 0, 64, 108
2,183351, Control_c, 0, 64, 110
2,183382, Control_c, 0, 64, 100
2,183397, Control_c, 0, 64, 85
2,183400, Note_on_c, 0, 57, 78
2,183404, Note_on_c, 0, 49, 73
2,183404, Note_on_c, 0, 66, 72
2,183405, Note_on_c, 0, 69, 72
2,183411, Control_c, 0, 64, 66
2,183427, Control_c, 0, 64, 0
2,183427, Note_on_c, 0, 56, 0
2,183480, Note_on_c, 0, 61, 0
2,183548, Control_c, 0, 64, 52
2,183563, Control_c, 0, 64, 63
2,183579, Control_c, 0, 64, 68
2,183602, Control_c, 0, 64, 74
2,183611, Note_on_c, 0, 56, 79
2,183618, Control_c, 0, 64, 80
2,183632, Control_c, 0, 64, 86
2,183641, Note_on_c, 0, 66, 0
2,183647, Control_c, 0, 64, 91
2,183650, Note_on_c, 0, 57, 0
2,183663, Control_c, 0, 64, 95
2,183677, Control_c, 0, 64, 99
2,183692, Control_c, 0, 64, 99
2,183708, Control_c, 0, 64, 100
2,183739, Control_c, 0, 64, 100
2,183753, Control_c, 0, 64, 101
2,183768, Control_c, 0, 64, 101
2,183799, Control_c, 0, 64, 102
2,183822, Note_on_c, 0, 54, 82
2,183825, Note_on_c, 0, 66, 78
2,183844, Control_c, 0, 64, 102
2,183860, Control_c, 0, 64, 103
2,183874, Control_c, 0, 64, 103
2,183893, Note_on_c, 0, 56, 0
2,183993, Note_on_c, 0, 52, 79
2,184021, Note_on_c, 0, 66, 0
2,184027, Control_c, 0, 64, 104
2,184039, Note_on_c, 0, 54, 0
2,184058, Control_c, 0, 64, 104
2,184203, Note_on_c, 0, 49, 0
2,184210, Control_c, 0, 64, 104
2,184226, Control_c, 0, 64, 100
2,184241, Control_c, 0, 64, 89
2,184241, Note_on_c, 0, 51, 78
2,184241, Note_on_c, 0, 68, 81
2,184244, Note_on_c, 0, 48, 80
2,184244, Note_on_c, 0, 66, 77
2,184256, Control_c, 0, 64, 74
2,184271, Control_c, 0, 64, 55
2,184272, Note_on_c, 0, 52, 0
2,184286, Control_c, 0, 64, 0
2,184289, Note_on_c, 0, 69, 0
2,184497, Note_on_c, 0, 68, 0
2,184522, Control_c, 0, 64, 54
2,184538, Control_c, 0, 64, 63
2,184553, Control_c, 0, 64, 66
2,184568, Control_c, 0, 64, 68
2,184584, Control_c, 0, 64, 69
2,184598, Control_c, 0, 64, 70
2,184613, Control_c, 0, 64, 72
2,184621, Note_on_c, 0, 73, 0
2,184629, Control_c, 0, 64, 75
2,184642, Note_on_c, 0, 68, 78
2,184644, Control_c, 0, 64, 77
2,184649, Note_on_c, 0, 64, 79
2,184660, Control_c, 0, 64, 80
2,184674, Control_c, 0, 64, 82
2,184689, Control_c, 0, 64, 84
2,184705, Control_c, 0, 64, 86
2,184707, Note_on_c, 0, 66, 0
2,184719, Control_c, 0, 64, 88
2,184734, Control_c, 0, 64, 90
2,184750, Control_c, 0, 64, 91
2,184765, Control_c, 0, 64, 93
2,184781, Control_c, 0, 64, 95
2,184795, Control_c, 0, 64, 97
2,184810, Control_c, 0, 64, 100
2,184826, Control_c, 0, 64, 102
2,184838, Note_on_c, 0, 63, 75
2,184841, Control_c, 0, 64, 103
2,184857, Control_c, 0, 64, 104
2,184873, Control_c, 0, 64, 105
2,184880, Note_on_c, 0, 64, 0
2,184888, Control_c, 0, 64, 108
2,184903, Control_c, 0, 64, 110
2,184918, Control_c, 0, 64, 114
2,184933, Control_c, 0, 64, 118
2,184948, Control_c, 0, 64, 127
2,184979, Control_c, 0, 64, 116
2,184994, Control_c, 0, 64, 102
2,185009, Control_c, 0, 64, 87
2,185024, Control_c, 0, 64, 73
2,185039, Control_c, 0, 64, 50
2,185054, Control_c, 0, 64, 0
2,185066, Note_on_c, 0, 48, 0
2,185067, Note_on_c, 0, 52, 83
2,185080, Note_on_c, 0, 64, 79
2,185084, Note_on_c, 0, 73, 80
2,185100, Note_on_c, 0, 51, 0
2,185137, Note_on_c, 0, 63, 0
2,185260, Control_c, 0, 64, 58
2,185275, Control_c, 0, 64, 66
2,185290, Control_c, 0, 64, 72
2,185305, Control_c, 0, 64, 79
2,185320, Control_c, 0, 64, 86
2,185336, Control_c, 0, 64, 93
2,185351, Control_c, 0, 64, 100
2,185366, Control_c, 0, 64, 106
2,185370, Note_on_c, 0, 73, 0
2,185382, Control_c, 0, 64, 107
2,185411, Control_c, 0, 64, 108
2,185427, Control_c, 0, 64, 109
2,185442, Control_c, 0, 64, 110
2,185458, Control_c, 0, 64, 111
2,185504, Control_c, 0, 64, 111
2,185511, Note_on_c, 0, 56, 91
2,185514, Note_on_c, 0, 73, 84
2,185518, Control_c, 0, 64, 112
2,185533, Control_c, 0, 64, 112
2,185549, Control_c, 0, 64, 113
2,185563, Control_c, 0, 64, 114
2,185579, Control_c, 0, 64, 116
2,185594, Control_c, 0, 64, 117
2,185609, Control_c, 0, 64, 118
2,185625, Control_c, 0, 64, 118
2,185639, Control_c, 0, 64, 119
2,185654, Control_c, 0, 64, 121
2,185670, Control_c, 0, 64, 122
2,185684, Control_c, 0, 64, 127
2,185692, Note_on_c, 0, 52, 0
2,185739, Note_on_c, 0, 73, 0
2,185881, Control_c, 0, 64, 113
2,185905, Control_c, 0, 64, 91
2,185920, Control_c, 0, 64, 72
2,185920, Note_on_c, 0, 64, 0
2,185932, Note_on_c, 0, 51, 76
2,185935, Control_c, 0, 64, 37
2,185938, Note_on_c, 0, 63, 89
2,185948, Note_on_c, 0, 73, 77
2,185950, Control_c, 0, 64, 0
2,185951, Note_on_c, 0, 66, 75
2,185972, Note_on_c, 0, 68, 0
2,185996, Note_on_c, 0, 56, 0
2,186056, Control_c, 0, 64, 54
2,186071, Control_c, 0, 64, 67
2,186086, Control_c, 0, 64, 76
2,186101, Control_c, 0, 64, 91
2,186117, Control_c, 0, 64, 105
2,186131, Control_c, 0, 64, 115
2,186147, Control_c, 0, 64, 112
2,186162, Control_c, 0, 64, 111
2,186193, Control_c, 0, 64, 112
2,186208, Control_c, 0, 64, 113
2,186253, Control_c, 0, 64, 114
2,186256, Note_on_c, 0, 63, 0
2,186284, Control_c, 0, 64, 114
2,186299, Control_c, 0, 64, 116
2,186315, Control_c, 0, 64, 118
2,186329, Control_c, 0, 64, 119
2,186345, Control_c, 0, 64, 122
2,186360, Control_c, 0, 64, 120
2,186375, Control_c, 0, 64, 107
2,186391, Control_c, 0, 64, 93
2,186391, Note_on_c, 0, 63, 88
2,186405, Control_c, 0, 64, 78
2,186407, Note_on_c, 0, 72, 80
2,186420, Control_c, 0, 64, 66
2,186436, Control_c, 0, 64, 56
2,186451, Control_c, 0, 64, 53
2,186467, Control_c, 0, 64, 57
2,186481, Control_c, 0, 64, 62
2,186496, Control_c, 0, 64, 66
2,186498, Note_on_c, 0, 73, 0
2,186513, Control_c, 0, 64, 74
2,186528, Control_c, 0, 64, 85
2,186544, Control_c, 0, 64, 101
2,186559, Control_c, 0, 64, 127
2,186589, Control_c, 0, 64, 124
2,186604, Control_c, 0, 64, 121
2,186630, Note_on_c, 0, 70, 84
2,186697, Note_on_c, 0, 63, 0
2,186707, Note_on_c, 0, 72, 0
2,186733, Control_c, 0, 64, 121
2,186749, Control_c, 0, 64, 124
2,186764, Control_c, 0, 64, 127
2,186808, Control_c, 0, 64, 116
2,186824, Control_c, 0, 64, 99
2,186839, Control_c, 0, 64, 74
2,186847, Note_on_c, 0, 63, 87
2,186847, Note_on_c, 0, 66, 0
2,186852, Note_on_c, 0, 78, 83
2,186853, Control_c, 0, 64, 42
2,186857, Note_on_c, 0, 72, 79
2,186869, Control_c, 0, 64, 0
2,186898, Note_on_c, 0, 70, 0
2,186975, Control_c, 0, 64, 12
2,186983, Note_on_c, 0, 78, 0
2,186991, Control_c, 0, 64, 60
2,187006, Control_c, 0, 64, 69
2,187020, Control_c, 0, 64, 77
2,187036, Control_c, 0, 64, 89
2,187051, Control_c, 0, 64, 98
2,187067, Control_c, 0, 64, 102
2,187082, Control_c, 0, 64, 101
2,187088, Note_on_c, 0, 73, 84
2,187097, Control_c, 0, 64, 101
2,187113, Control_c, 0, 64, 101
2,187125, Note_on_c, 0, 72, 0
2,187127, Control_c, 0, 64, 102
2,187143, Control_c, 0, 64, 105
2,187158, Control_c, 0, 64, 107
2,187166, Note_on_c, 0, 73, 0
2,187172, Control_c, 0, 64, 108
2,187188, Control_c, 0, 64, 109
2,187203, Control_c, 0, 64, 111
2,187218, Control_c, 0, 64, 113
2,187234, Control_c, 0, 64, 116
2,187248, Control_c, 0, 64, 121
2,187264, Control_c, 0, 64, 127
2,187310, Control_c, 0, 64, 122
2,187326, Control_c, 0, 64, 102
2,187341, Control_c, 0, 64, 84
2,187343, Note_on_c, 0, 78, 90
2,187345, Note_on_c, 0, 66, 86
2,187348, Note_on_c, 0, 61, 85
2,187349, Note_on_c, 0, 75, 84
2,187356, Control_c, 0, 64, 63
2,187371, Control_c, 0, 64, 0
2,187390, Note_on_c, 0, 63, 0
2,187500, Control_c, 0, 64, 46
2,187516, Control_c, 0, 64, 64
2,187526, Note_on_c, 0, 66, 0
2,187531, Control_c, 0, 64, 71
2,187547, Control_c, 0, 64, 80
2,187562, Control_c, 0, 64, 91
2,187577, Control_c, 0, 64, 105
2,187593, Control_c, 0, 64, 112
2,187608, Control_c, 0, 64, 111
2,187633, Note_on_c, 0, 60, 80
2,187638, Control_c, 0, 64, 112
2,187649, Note_on_c, 0, 68, 90
2,187653, Control_c, 0, 64, 114
2,187669, Control_c, 0, 64, 116
2,187684, Control_c, 0, 64, 120
2,187686, Note_on_c, 0, 61, 0
2,187698, Control_c, 0, 64, 127
2,187699, Note_on_c, 0, 60, 0
2,187715, Note_on_c, 0, 51, 0
2,187744, Note_on_c, 0, 78, 0
2,187919, Note_on_c, 0, 75, 0
2,187938, Note_on_c, 0, 68, 0
2,188109, Control_c, 0, 64, 96
2,188124, Control_c, 0, 64, 78
2,188128, Note_on_c, 0, 78, 87
2,188133, Note_on_c, 0, 61, 85
2,188135, Note_on_c, 0, 69, 83
2,188135, Note_on_c, 0, 75, 78
2,188139, Control_c, 0, 64, 62
2,188143, Note_on_c, 0, 49, 72
2,188155, Control_c, 0, 64, 0
2,188299, Control_c, 0, 64, 44
2,188314, Control_c, 0, 64, 63
2,188329, Control_c, 0, 64, 69
2,188345, Control_c, 0, 64, 77
2,188360, Control_c, 0, 64, 85
2,188375, Control_c, 0, 64, 94
2,188391, Control_c, 0, 64, 102
2,188405, Control_c, 0, 64, 105
2,188481, Control_c, 0, 64, 106
2,188495, Note_on_c, 0, 78, 0
2,188512, Control_c, 0, 64, 106
2,188527, Control_c, 0, 64, 107
2,188541, Control_c, 0, 64, 107
2,188557, Control_c, 0, 64, 109
2,188572, Control_c, 0, 64, 111
2,188587, Control_c, 0, 64, 113
2,188602, Control_c, 0, 64, 113
2,188617, Control_c, 0, 64, 114
2,188633, Control_c, 0, 64, 115
2,188648, Control_c, 0, 64, 116
2,188663, Control_c, 0, 64, 117
2,188678, Control_c, 0, 64, 118
2,188693, Control_c, 0, 64, 114
2,188703, Note_on_c, 0, 76, 79
2,188705, Note_on_c, 0, 73, 85
2,188709, Control_c, 0, 64, 99
2,188712, Note_on_c, 0, 52, 77
2,188712, Note_on_c, 0, 68, 72
2,188724, Control_c, 0, 64, 78
2,188735, Note_on_c, 0, 75, 0
2,188739, Control_c, 0, 64, 61
2,188749, Note_on_c, 0, 69, 0
2,188755, Control_c, 0, 64, 0
2,188760, Note_on_c, 0, 49, 0
2,188805, Note_on_c, 0, 68, 0
2,188831, Control_c, 0, 64, 51
2,188846, Control_c, 0, 64, 66
2,188860, Control_c, 0, 64, 75
2,188876, Control_c, 0, 64, 86
2,188891, Control_c, 0, 64, 100
2,188907, Control_c, 0, 64, 111
2,188922, Control_c, 0, 64, 109
2,188936, Control_c, 0, 64, 107
2,188950, Note_on_c, 0, 75, 82
2,188952, Control_c, 0, 64, 107
2,188953, Note_on_c, 0, 72, 78
2,188968, Note_on_c, 0, 66, 76
2,188980, Note_on_c, 0, 73, 0
2,188987, Note_on_c, 0, 76, 0
2,188991, Control_c, 0, 64, 107
2,189083, Note_on_c, 0, 66, 0
2,189096, Control_c, 0, 64, 108
2,189158, Control_c, 0, 64, 106
2,189172, Control_c, 0, 64, 97
2,189188, Control_c, 0, 64, 80
2,189194, Note_on_c, 0, 76, 82
2,189203, Control_c, 0, 64, 63
2,189203, Note_on_c, 0, 57, 78
2,189206, Note_on_c, 0, 68, 80
2,189207, Note_on_c, 0, 73, 84
2,189217, Control_c, 0, 64, 0
2,189227, Note_on_c, 0, 75, 0
2,189236, Note_on_c, 0, 72, 0
2,189252, Note_on_c, 0, 52, 0
2,189355, Control_c, 0, 64, 52
2,189370, Control_c, 0, 64, 64
2,189385, Control_c, 0, 64, 69
2,189400, Control_c, 0, 64, 76
2,189415, Control_c, 0, 64, 83
2,189430, Control_c, 0, 64, 90
2,189445, Control_c, 0, 64, 95
2,189456, Note_on_c, 0, 76, 0
2,189460, Control_c, 0, 64, 98
2,189476, Control_c, 0, 64, 99
2,189479, Note_on_c, 0, 68, 0
2,189491, Control_c, 0, 64, 99
2,189499, Note_on_c, 0, 57, 0
2,189507, Control_c, 0, 64, 100
2,189522, Control_c, 0, 64, 101
2,189537, Control_c, 0, 64, 102
2,189553, Control_c, 0, 64, 104
2,189568, Control_c, 0, 64, 105
2,189598, Control_c, 0, 64, 106
2,189613, Control_c, 0, 64, 106
2,189624, Note_on_c, 0, 57, 75
2,189628, Control_c, 0, 64, 107
2,189635, Note_on_c, 0, 66, 79
2,189639, Note_on_c, 0, 75, 81
2,189643, Control_c, 0, 64, 108
2,189658, Control_c, 0, 64, 111
2,189674, Control_c, 0, 64, 112
2,189678, Note_on_c, 0, 73, 0
2,189689, Control_c, 0, 64, 112
2,189704, Control_c, 0, 64, 113
2,189719, Control_c, 0, 64, 114
2,189741, Control_c, 0, 64, 116
2,189754, Note_on_c, 0, 66, 0
2,189757, Control_c, 0, 64, 119
2,189772, Control_c, 0, 64, 123
2,189789, Control_c, 0, 64, 127
2,189852, Note_on_c, 0, 73, 89
2,189858, Note_on_c, 0, 57, 0
2,189861, Note_on_c, 0, 64, 80
2,189889, Note_on_c, 0, 75, 0
2,189939, Note_on_c, 0, 64, 0
2,189996, Note_on_c, 0, 61, 0
2,190077, Control_c, 0, 64, 117
2,190092, Control_c, 0, 64, 92
2,190107, Note_on_c, 0, 60, 87
2,190108, Control_c, 0, 64, 73
2,190109, Note_on_c, 0, 75, 83
2,190114, Note_on_c, 0, 63, 82
2,190123, Control_c, 0, 64, 47
2,190124, Note_on_c, 0, 73, 0
2,190127, Note_on_c, 0, 57, 71
2,190138, Control_c, 0, 64, 0
2,190144, Note_on_c, 0, 66, 63
2,190244, Control_c, 0, 64, 23
2,190259, Control_c, 0, 64, 57
2,190274, Control_c, 0, 64, 64
2,190289, Control_c, 0, 64, 69
2,190305, Control_c, 0, 64, 72
2,190320, Control_c, 0, 64, 75
2,190335, Control_c, 0, 64, 76
2,190427, Control_c, 0, 64, 76
2,190457, Control_c, 0, 64, 77
2,190472, Control_c, 0, 64, 78
2,190487, Control_c, 0, 64, 79
2,190510, Control_c, 0, 64, 82
2,190525, Control_c, 0, 64, 85
2,190540, Control_c, 0, 64, 87
2,190555, Control_c, 0, 64, 90
2,190570, Control_c, 0, 64, 92
2,190571, Note_on_c, 0, 72, 76
2,190586, Control_c, 0, 64, 94
2,190598, Note_on_c, 0, 56, 82
2,190601, Control_c, 0, 64, 96
2,190616, Note_on_c, 0, 75, 0
2,190617, Control_c, 0, 64, 98
2,190633, Control_c, 0, 64, 99
2,190648, Control_c, 0, 64, 101
2,190663, Control_c, 0, 64, 103
2,190678, Control_c, 0, 64, 105
2,190693, Control_c, 0, 64, 107
2,190709, Control_c, 0, 64, 109
2,190723, Control_c, 0, 64, 112
2,190738, Control_c, 0, 64, 114
2,190754, Control_c, 0, 64, 116
2,190769, Control_c, 0, 64, 118
2,190785, Control_c, 0, 64, 119
2,190799, Note_on_c, 0, 54, 80
2,190800, Control_c, 0, 64, 121
2,190815, Control_c, 0, 64, 127
2,190828, Note_on_c, 0, 63, 0
2,190856, Note_on_c, 0, 57, 0
2,191042, Control_c, 0, 64, 112
2,191057, Control_c, 0, 64, 93
2,191073, Control_c, 0, 64, 75
2,191088, Control_c, 0, 64, 51
2,191092, Note_on_c, 0, 64, 86
2,191097, Note_on_c, 0, 68, 59
2,191103, Note_on_c, 0, 73, 79
2,191104, Control_c, 0, 64, 0
2,191109, Note_on_c, 0, 56, 0
2,191112, Note_on_c, 0, 52, 69
2,191137, Note_on_c, 0, 54, 0
2,191194, Control_c, 0, 64, 23
2,191209, Control_c, 0, 64, 59
2,191225, Control_c, 0, 64, 67
2,191240, Control_c, 0, 64, 75
2,191243, Note_on_c, 0, 72, 0
2,191255, Control_c, 0, 64, 82
2,191255, Note_on_c, 0, 66, 0
2,191278, Control_c, 0, 64, 87
2,191293, Control_c, 0, 64, 89
2,191323, Control_c, 0, 64, 88
2,191338, Control_c, 0, 64, 87
2,191344, Note_on_c, 0, 51, 78
2,191384, Note_on_c, 0, 60, 0
2,191392, Note_on_c, 0, 52, 0
2,191548, Note_on_c, 0, 49, 80
2,191553, Control_c, 0, 64, 87
2,191584, Control_c, 0, 64, 86
2,191629, Control_c, 0, 64, 86
2,191689, Control_c, 0, 64, 86
2,191717, Note_on_c, 0, 51, 0
2,191739, Note_on_c, 0, 47, 82
2,191763, Note_on_c, 0, 49, 0
2,191797, Control_c, 0, 64, 86
2,191873, Control_c, 0, 64, 86
2,191887, Control_c, 0, 64, 87
2,191903, Control_c, 0, 64, 87
2,191933, Control_c, 0, 64, 85
2,191949, Control_c, 0, 64, 80
2,191963, Control_c, 0, 64, 70
2,191978, Control_c, 0, 64, 59
2,191994, Control_c, 0, 64, 0
2,192001, Note_on_c, 0, 46, 82
2,192048, Note_on_c, 0, 47, 0
2,192168, Control_c, 0, 64, 21
2,192184, Control_c, 0, 64, 57
2,192199, Control_c, 0, 64, 64
2,192214, Control_c, 0, 64, 67
2,192230, Control_c, 0, 64, 70
2,192246, Control_c, 0, 64, 73
2,192261, Control_c, 0, 64, 75
2,192276, Control_c, 0, 64, 77
2,192291, Control_c, 0, 64, 79
2,192307, Control_c, 0, 64, 79
2,192475, Note_on_c, 0, 49, 78
2,192595, Control_c, 0, 64, 80
2,192625, Control_c, 0, 64, 80
2,192655, Control_c, 0, 64, 81
2,192671, Control_c, 0, 64, 82
2,192686, Control_c, 0, 64, 84
2,192701, Control_c, 0, 64, 85
2,192717, Control_c, 0, 64, 86
2,192731, Control_c, 0, 64, 86
2,192747, Control_c, 0, 64, 87
2,192793, Control_c, 0, 64, 87
2,192814, Control_c, 0, 64, 88
2,192830, Control_c, 0, 64, 89
2,192845, Control_c, 0, 64, 90
2,192860, Control_c, 0, 64, 91
2,192876, Control_c, 0, 64, 93
2,192891, Control_c, 0, 64, 95
2,192907, Control_c, 0, 64, 95
2,192922, Control_c, 0, 64, 93
2,192936, Control_c, 0, 64, 84
2,192950, Note_on_c, 0, 54, 77
2,192952, Control_c, 0, 64, 69
2,192952, Note_on_c, 0, 45, 68
2,192955, Note_on_c, 0, 66, 79
2,192956, Note_on_c, 0, 63, 74
2,192967, Control_c, 0, 64, 39
2,192983, Control_c, 0, 64, 0
2,192988, Note_on_c, 0, 49, 0
2,192994, Note_on_c, 0, 64, 0
2,193004, Note_on_c, 0, 46, 0
2,193005, Note_on_c, 0, 68, 0
2,193120, Control_c, 0, 64, 36
2,193135, Control_c, 0, 64, 62
2,193151, Control_c, 0, 64, 66
2,193165, Control_c, 0, 64, 69
2,193180, Control_c, 0, 64, 71
2,193196, Control_c, 0, 64, 72
2,193197, Note_on_c, 0, 54, 0
2,193211, Control_c, 0, 64, 73
2,193227, Control_c, 0, 64, 74
2,193241, Control_c, 0, 64, 77
2,193256, Control_c, 0, 64, 79
2,193272, Control_c, 0, 64, 82
2,193287, Control_c, 0, 64, 85
2,193303, Control_c, 0, 64, 86
2,193317, Control_c, 0, 64, 87
2,193332, Control_c, 0, 64, 88
2,193363, Control_c, 0, 64, 88
2,193377, Control_c, 0, 64, 89
2,193393, Control_c, 0, 64, 89
2,193412, Note_on_c, 0, 61, 74
2,193418, Note_on_c, 0, 54, 77
2,193484, Control_c, 0, 64, 90
2,193499, Control_c, 0, 64, 91
2,193503, Note_on_c, 0, 63, 0
2,193515, Control_c, 0, 64, 93
2,193530, Control_c, 0, 64, 96
2,193546, Control_c, 0, 64, 98
2,193561, Control_c, 0, 64, 99
2,193583, Control_c, 0, 64, 100
2,193594, Note_on_c, 0, 73, 0
2,193598, Control_c, 0, 64, 100
2,193607, Note_on_c, 0, 54, 0
2,193613, Control_c, 0, 64, 101
2,193629, Control_c, 0, 64, 102
2,193644, Control_c, 0, 64, 103
2,193674, Control_c, 0, 64, 103
2,193689, Control_c, 0, 64, 104
2,193695, Note_on_c, 0, 66, 0
2,193704, Control_c, 0, 64, 105
2,193719, Control_c, 0, 64, 106
2,193765, Control_c, 0, 64, 106
2,193779, Control_c, 0, 64, 107
2,193795, Control_c, 0, 64, 108
2,193810, Control_c, 0, 64, 109
2,193826, Control_c, 0, 64, 109
2,193841, Control_c, 0, 64, 110
2,193855, Control_c, 0, 64, 110
2,193887, Control_c, 0, 64, 106
2,193903, Control_c, 0, 64, 96
2,193918, Control_c, 0, 64, 83
2,193918, Note_on_c, 0, 72, 84
2,193930, Note_on_c, 0, 63, 81
2,193930, Note_on_c, 0, 66, 76
2,193933, Control_c, 0, 64, 70
2,193933, Note_on_c, 0, 54, 78
2,193949, Control_c, 0, 64, 52
2,193963, Control_c, 0, 64, 0
2,193963, Note_on_c, 0, 61, 0
2,194024, Control_c, 0, 64, 37
2,194039, Control_c, 0, 64, 52
2,194054, Control_c, 0, 64, 62
2,194070, Control_c, 0, 64, 68
2,194084, Control_c, 0, 64, 75
2,194099, Control_c, 0, 64, 85
2,194115, Control_c, 0, 64, 96
2,194130, Control_c, 0, 64, 106
2,194145, Control_c, 0, 64, 109
2,194160, Control_c, 0, 64, 107
2,194175, Control_c, 0, 64, 107
2,194251, Control_c, 0, 64, 107
2,194269, Note_on_c, 0, 54, 0
2,194282, Control_c, 0, 64, 108
2,194313, Control_c, 0, 64, 108
2,194328, Control_c, 0, 64, 109
2,194354, Note_on_c, 0, 45, 0
2,194356, Note_on_c, 0, 44, 68
2,194374, Note_on_c, 0, 53, 75
2,194395, Note_on_c, 0, 64, 65
2,194440, Note_on_c, 0, 63, 0
2,194533, Control_c, 0, 64, 109
2,194554, Note_on_c, 0, 66, 0
2,194563, Control_c, 0, 64, 110
2,194578, Control_c, 0, 64, 111
2,194594, Control_c, 0, 64, 111
2,194614, Note_on_c, 0, 51, 86
2,194618, Note_on_c, 0, 42, 79
2,194636, Note_on_c, 0, 53, 0
2,194668, Note_on_c, 0, 66, 57
2,194688, Note_on_c, 0, 44, 0
2,194701, Control_c, 0, 64, 112
2,194707, Note_on_c, 0, 72, 0
2,194717, Control_c, 0, 64, 112
2,194728, Note_on_c, 0, 42, 0
2,194728, Note_on_c, 0, 64, 0
2,194731, Control_c, 0, 64, 114
2,194747, Control_c, 0, 64, 116
2,194762, Control_c, 0, 64, 118
2,194777, Control_c, 0, 64, 120
2,194793, Control_c, 0, 64, 122
2,194808, Control_c, 0, 64, 127
2,194853, Control_c, 0, 64, 119
2,194869, Control_c, 0, 64, 106
2,194869, Note_on_c, 0, 41, 78
2,194870, Note_on_c, 0, 71, 78
2,194875, Note_on_c, 0, 68, 79
2,194877, Note_on_c, 0, 49, 82
2,194884, Control_c, 0, 64, 92
2,194887, Note_on_c, 0, 51, 0
2,194899, Control_c, 0, 64, 76
2,194915, Control_c, 0, 64, 53
2,194929, Control_c, 0, 64, 0
2,194958, Note_on_c, 0, 66, 0
2,195096, Control_c, 0, 64, 43
2,195120, Control_c, 0, 64, 62
2,195135, Control_c, 0, 64, 69
2,195150, Control_c, 0, 64, 73
2,195165, Control_c, 0, 64, 77
2,195180, Control_c, 0, 64, 79
2,195195, Control_c, 0, 64, 82
2,195210, Control_c, 0, 64, 84
2,195226, Control_c, 0, 64, 87
2,195236, Note_on_c, 0, 68, 0
2,195241, Control_c, 0, 64, 92
2,195256, Control_c, 0, 64, 95
2,195271, Control_c, 0, 64, 97
2,195286, Control_c, 0, 64, 98
2,195326, Note_on_c, 0, 68, 86
2,195332, Control_c, 0, 64, 98
2,195347, Control_c, 0, 64, 99
2,195362, Control_c, 0, 64, 100
2,195377, Control_c, 0, 64, 101
2,195392, Control_c, 0, 64, 102
2,195407, Control_c, 0, 64, 103
2,195423, Control_c, 0, 64, 104
2,195438, Control_c, 0, 64, 104
2,195453, Control_c, 0, 64, 105
2,195469, Control_c, 0, 64, 107
2,195478, Note_on_c, 0, 68, 0
2,195484, Control_c, 0, 64, 109
2,195498, Control_c, 0, 64, 110
2,195514, Control_c, 0, 64, 111
2,195530, Control_c, 0, 64, 112
2,195546, Control_c, 0, 64, 113
2,195561, Control_c, 0, 64, 115
2,195575, Control_c, 0, 64, 118
2,195591, Control_c, 0, 64, 121
2,195606, Control_c, 0, 64, 127
2,195697, Control_c, 0, 64, 111
2,195713, Control_c, 0, 64, 92
2,195728, Control_c, 0, 64, 74
2,195744, Control_c, 0, 64, 42
2,195744, Note_on_c, 0, 68, 81
2,195745, Note_on_c, 0, 70, 75
2,195747, Note_on_c, 0, 42, 70
2,195759, Control_c, 0, 64, 0
2,195764, Note_on_c, 0, 41, 0
2,195780, Note_on_c, 0, 71, 0
2,195849, Control_c, 0, 64, 37
2,195865, Control_c, 0, 64, 62
2,195887, Control_c, 0, 64, 69
2,195903, Control_c, 0, 64, 75
2,195918, Control_c, 0, 64, 82
2,195933, Control_c, 0, 64, 86
2,195949, Control_c, 0, 64, 90
2,195963, Control_c, 0, 64, 93
2,195978, Control_c, 0, 64, 95
2,195994, Control_c, 0, 64, 98
2,196009, Control_c, 0, 64, 101
2,196025, Control_c, 0, 64, 102
2,196039, Control_c, 0, 64, 103
2,196070, Control_c, 0, 64, 104
2,196085, Control_c, 0, 64, 106
2,196100, Control_c, 0, 64, 107
2,196115, Control_c, 0, 64, 108
2,196130, Control_c, 0, 64, 108
2,196146, Control_c, 0, 64, 109
2,196160, Control_c, 0, 64, 110
2,196175, Control_c, 0, 64, 111
2,196180, Note_on_c, 0, 66, 77
2,196189, Note_on_c, 0, 61, 67
2,196191, Control_c, 0, 64, 111
2,196206, Control_c, 0, 64, 112
2,196212, Note_on_c, 0, 68, 0
2,196236, Control_c, 0, 64, 112
2,196267, Control_c, 0, 64, 113
2,196312, Control_c, 0, 64, 113
2,196327, Control_c, 0, 64, 115
2,196344, Control_c, 0, 64, 118
2,196359, Control_c, 0, 64, 122
2,196374, Control_c, 0, 64, 127
2,196386, Note_on_c, 0, 64, 74
2,196432, Note_on_c, 0, 70, 0
2,196465, Note_on_c, 0, 61, 0
2,196466, Note_on_c, 0, 66, 0
2,196557, Control_c, 0, 64, 115
2,196572, Control_c, 0, 64, 97
2,196587, Control_c, 0, 64, 78
2,196602, Control_c, 0, 64, 62
2,196617, Control_c, 0, 64, 0
2,196627, Note_on_c, 0, 69, 82
2,196628, Note_on_c, 0, 51, 76
2,196636, Note_on_c, 0, 66, 76
2,196649, Note_on_c, 0, 63, 72
2,196694, Note_on_c, 0, 64, 0
2,196723, Note_on_c, 0, 49, 0
2,196792, Control_c, 0, 64, 19
2,196807, Control_c, 0, 64, 57
2,196823, Control_c, 0, 64, 64
2,196838, Control_c, 0, 64, 69
2,196841, Note_on_c, 0, 66, 0
2,196853, Control_c, 0, 64, 74
2,196869, Control_c, 0, 64, 80
2,196883, Control_c, 0, 64, 86
2,196898, Control_c, 0, 64, 92
2,196914, Control_c, 0, 64, 99
2,196929, Control_c, 0, 64, 103
2,196945, Control_c, 0, 64, 105
2,196978, Note_on_c, 0, 63, 0
2,196990, Control_c, 0, 64, 106
2,197004, Control_c, 0, 64, 107
2,197019, Control_c, 0, 64, 108
2,197092, Note_on_c, 0, 61, 73
2,197095, Note_on_c, 0, 66, 81
2,197173, Control_c, 0, 64, 108
2,197203, Control_c, 0, 64, 109
2,197205, Note_on_c, 0, 69, 0
2,197218, Control_c, 0, 64, 109
2,197238, Note_on_c, 0, 66, 0
2,197248, Control_c, 0, 64, 110
2,197264, Control_c, 0, 64, 110
2,197279, Control_c, 0, 64, 111
2,197294, Control_c, 0, 64, 112
2,197309, Control_c, 0, 64, 113
2,197324, Control_c, 0, 64, 114
2,197370, Control_c, 0, 64, 115
2,197386, Control_c, 0, 64, 115
2,197401, Control_c, 0, 64, 116
2,197439, Control_c, 0, 64, 116
2,197453, Control_c, 0, 64, 118
2,197469, Control_c, 0, 64, 121
2,197484, Control_c, 0, 64, 123
2,197499, Control_c, 0, 64, 111
2,197515, Control_c, 0, 64, 92
2,197529, Control_c, 0, 64, 73
2,197532, Note_on_c, 0, 68, 73
2,197538, Note_on_c, 0, 66, 65
2,197540, Note_on_c, 0, 60, 57
2,197545, Control_c, 0, 64, 0
2,197551, Note_on_c, 0, 44, 75
2,197613, Note_on_c, 0, 42, 0
2,197651, Control_c, 0, 64, 59
2,197667, Control_c, 0, 64, 70
2,197682, Control_c, 0, 64, 82
2,197697, Control_c, 0, 64, 100
2,197713, Control_c, 0, 64, 127
2,197743, Control_c, 0, 64, 121
2,197758, Control_c, 0, 64, 119
2,197772, Control_c, 0, 64, 120
2,197788, Control_c, 0, 64, 122
2,197798, Note_on_c, 0, 61, 0
2,197802, Note_on_c, 0, 51, 0
2,197803, Control_c, 0, 64, 123
2,197848, Control_c, 0, 64, 124
2,197894, Control_c, 0, 64, 127
2,197970, Control_c, 0, 64, 115
2,197987, Control_c, 0, 64, 95
2,198004, Control_c, 0, 64, 76
2,198020, Control_c, 0, 64, 49
2,198023, Note_on_c, 0, 51, 88
2,198032, Note_on_c, 0, 64, 63
2,198035, Control_c, 0, 64, 0
2,198171, Control_c, 0, 64, 61
2,198195, Control_c, 0, 64, 69
2,198201, Note_on_c, 0, 66, 0
2,198210, Control_c, 0, 64, 75
2,198225, Control_c, 0, 64, 81
2,198234, Note_on_c, 0, 60, 0
2,198240, Control_c, 0, 64, 84
2,198240, Note_on_c, 0, 63, 67
2,198256, Control_c, 0, 64, 86
2,198271, Control_c, 0, 64, 86
2,198286, Control_c, 0, 64, 87
2,198292, Note_on_c, 0, 64, 0
2,198301, Control_c, 0, 64, 88
2,198316, Control_c, 0, 64, 90
2,198331, Control_c, 0, 64, 93
2,198347, Control_c, 0, 64, 96
2,198362, Control_c, 0, 64, 98
2,198377, Control_c, 0, 64, 100
2,198392, Control_c, 0, 64, 102
2,198407, Control_c, 0, 64, 104
2,198422, Control_c, 0, 64, 104
2,198437, Control_c, 0, 64, 101
2,198452, Control_c, 0, 64, 90
2,198468, Control_c, 0, 64, 75
2,198483, Control_c, 0, 64, 57
2,198485, Note_on_c, 0, 56, 80
2,198494, Note_on_c, 0, 64, 57
2,198498, Control_c, 0, 64, 0
2,198500, Note_on_c, 0, 61, 60
2,198507, Note_on_c, 0, 63, 0
2,198563, Note_on_c, 0, 51, 0
2,198666, Control_c, 0, 64, 50
2,198681, Control_c, 0, 64, 64
2,198696, Control_c, 0, 64, 73
2,198711, Control_c, 0, 64, 82
2,198726, Control_c, 0, 64, 91
2,198742, Control_c, 0, 64, 99
2,198757, Control_c, 0, 64, 104
2,198771, Control_c, 0, 64, 104
2,198819, Control_c, 0, 64, 106
2,198822, Note_on_c, 0, 56, 0
2,198834, Control_c, 0, 64, 107
2,198848, Control_c, 0, 64, 107
2,198864, Control_c, 0, 64, 108
2,198969, Note_on_c, 0, 56, 88
2,199023, Control_c, 0, 64, 108
2,199038, Control_c, 0, 64, 109
2,199053, Control_c, 0, 64, 110
2,199069, Control_c, 0, 64, 111
2,199084, Control_c, 0, 64, 112
2,199100, Control_c, 0, 64, 114
2,199115, Control_c, 0, 64, 116
2,199130, Control_c, 0, 64, 118
2,199145, Control_c, 0, 64, 119
2,199160, Control_c, 0, 64, 122
2,199168, Note_on_c, 0, 56, 0
2,199176, Control_c, 0, 64, 124
2,199191, Control_c, 0, 64, 127
2,199388, Control_c, 0, 64, 109
2,199403, Control_c, 0, 64, 88
2,199408, Note_on_c, 0, 51, 31
2,199418, Control_c, 0, 64, 69
2,199419, Note_on_c, 0, 56, 90
2,199419, Note_on_c, 0, 70, 83
2,199433, Control_c, 0, 64, 0
2,199517, Note_on_c, 0, 51, 0
2,199524, Control_c, 0, 64, 59
2,199525, Note_on_c, 0, 68, 0
2,199534, Note_on_c, 0, 64, 0
2,199540, Control_c, 0, 64, 73
2,199555, Control_c, 0, 64, 88
2,199570, Control_c, 0, 64, 127
2,199822, Control_c, 0, 64, 107
2,199837, Control_c, 0, 64, 87
2,199851, Control_c, 0, 64, 69
2,199867, Control_c, 0, 64, 53
2,199875, Note_on_c, 0, 66, 80
2,199880, Control_c, 0, 64, 40
2,199880, Note_on_c, 0, 54, 81
2,199911, Control_c, 0, 64, 43
2,199915, Note_on_c, 0, 56, 0
2,199926, Control_c, 0, 64, 52
2,199941, Control_c, 0, 64, 59
2,199957, Control_c, 0, 64, 65
2,199972, Control_c, 0, 64, 71
2,199987, Control_c, 0, 64, 80
2,200002, Control_c, 0, 64, 93
2,200005, Note_on_c, 0, 61, 0
2,200017, Control_c, 0, 64, 114
2,200033, Control_c, 0, 64, 127
2,200068, Note_on_c, 0, 52, 87
2,200076, Note_on_c, 0, 68, 84
2,200103, Note_on_c, 0, 53, 50
2,200111, Note_on_c, 0, 54, 0
2,200128, Note_on_c, 0, 53, 0
2,200134, Note_on_c, 0, 70, 0
2,200259, Control_c, 0, 64, 104
2,200275, Control_c, 0, 64, 84
2,200290, Control_c, 0, 64, 65
2,200305, Control_c, 0, 64, 0
2,200317, Note_on_c, 0, 72, 82
2,200326, Note_on_c, 0, 54, 85
2,200329, Note_on_c, 0, 69, 73
2,200332, Note_on_c, 0, 63, 75
2,200335, Note_on_c, 0, 68, 0
2,200378, Note_on_c, 0, 66, 0
2,200380, Note_on_c, 0, 52, 0
2,200474, Control_c, 0, 64, 57
2,200496, Control_c, 0, 64, 68
2,200512, Control_c, 0, 64, 77
2,200513, Note_on_c, 0, 54, 0
2,200527, Control_c, 0, 64, 91
2,200541, Control_c, 0, 64, 106
2,200557, Control_c, 0, 64, 119
2,200571, Note_on_c, 0, 69, 0
2,200572, Control_c, 0, 64, 115
2,200588, Control_c, 0, 64, 113
2,200603, Control_c, 0, 64, 114
2,200617, Control_c, 0, 64, 115
2,200633, Control_c, 0, 64, 117
2,200648, Control_c, 0, 64, 119
2,200664, Control_c, 0, 64, 123
2,200679, Control_c, 0, 64, 127
2,200755, Control_c, 0, 64, 112
2,200770, Control_c, 0, 64, 91
2,200785, Control_c, 0, 64, 73
2,200792, Note_on_c, 0, 54, 88
2,200799, Note_on_c, 0, 68, 82
2,200800, Control_c, 0, 64, 40
2,200815, Control_c, 0, 64, 0
2,200876, Control_c, 0, 64, 48
2,200891, Control_c, 0, 64, 63
2,200907, Control_c, 0, 64, 72
2,200918, Note_on_c, 0, 63, 0
2,200922, Control_c, 0, 64, 82
2,200937, Control_c, 0, 64, 95
2,200952, Control_c, 0, 64, 109
2,200967, Control_c, 0, 64, 112
2,200970, Note_on_c, 0, 72, 0
2,200983, Control_c, 0, 64, 109
2,200998, Control_c, 0, 64, 108
2,201013, Control_c, 0, 64, 109
2,201017, Note_on_c, 0, 54, 0
2,201028, Control_c, 0, 64, 109
2,201134, Control_c, 0, 64, 110
2,201149, Control_c, 0, 64, 111
2,201164, Control_c, 0, 64, 112
2,201179, Control_c, 0, 64, 113
2,201195, Control_c, 0, 64, 114
2,201210, Control_c, 0, 64, 114
2,201241, Control_c, 0, 64, 112
2,201265, Control_c, 0, 64, 105
2,201270, Note_on_c, 0, 54, 88
2,201270, Note_on_c, 0, 73, 94
2,201277, Note_on_c, 0, 61, 82
2,201280, Control_c, 0, 64, 95
2,201295, Control_c, 0, 64, 81
2,201310, Control_c, 0, 64, 66
2,201325, Control_c, 0, 64, 0
2,201507, Control_c, 0, 64, 55
2,201522, Control_c, 0, 64, 66
2,201537, Control_c, 0, 64, 73
2,201553, Control_c, 0, 64, 80
2,201568, Control_c, 0, 64, 84
2,201583, Control_c, 0, 64, 86
2,201598, Control_c, 0, 64, 86
2,201603, Note_on_c, 0, 61, 0
2,201613, Control_c, 0, 64, 87
2,201629, Control_c, 0, 64, 89
2,201644, Control_c, 0, 64, 92
2,201659, Control_c, 0, 64, 97
2,201674, Control_c, 0, 64, 103
2,201689, Control_c, 0, 64, 103
2,201699, Note_on_c, 0, 52, 80
2,201699, Note_on_c, 0, 61, 82
2,201705, Control_c, 0, 64, 92
2,201712, Note_on_c, 0, 64, 79
2,201719, Control_c, 0, 64, 76
2,201734, Control_c, 0, 64, 44
2,201750, Control_c, 0, 64, 0
2,201758, Note_on_c, 0, 68, 0
2,201766, Note_on_c, 0, 54, 0
2,201886, Control_c, 0, 64, 60
2,201901, Control_c, 0, 64, 69
2,201910, Note_on_c, 0, 51, 85
2,201916, Control_c, 0, 64, 76
2,201931, Control_c, 0, 64, 83
2,201947, Control_c, 0, 64, 88
2,201953, Note_on_c, 0, 52, 0
2,201962, Control_c, 0, 64, 90
2,201977, Control_c, 0, 64, 91
2,202031, Control_c, 0, 64, 92
2,202046, Control_c, 0, 64, 95
2,202060, Control_c, 0, 64, 102
2,202078, Control_c, 0, 64, 108
2,202093, Control_c, 0, 64, 109
2,202108, Control_c, 0, 64, 104
2,202123, Control_c, 0, 64, 90
2,202138, Control_c, 0, 64, 73
2,202153, Control_c, 0, 64, 50
2,202167, Note_on_c, 0, 69, 81
2,202168, Control_c, 0, 64, 0
2,202169, Note_on_c, 0, 66, 82
2,202189, Note_on_c, 0, 52, 80
2,202189, Note_on_c, 0, 61, 0
2,202193, Note_on_c, 0, 51, 0
2,202195, Note_on_c, 0, 64, 0
2,202305, Control_c, 0, 64, 59
2,202320, Control_c, 0, 64, 72
2,202335, Control_c, 0, 64, 85
2,202351, Control_c, 0, 64, 105
2,202366, Control_c, 0, 64, 127
2,202396, Control_c, 0, 64, 121
2,202411, Note_on_c, 0, 66, 0
2,202427, Control_c, 0, 64, 123
2,202442, Control_c, 0, 64, 127
2,202448, Note_on_c, 0, 69, 0
2,202578, Control_c, 0, 64, 106
2,202594, Control_c, 0, 64, 85
2,202605, Note_on_c, 0, 66, 80
2,202607, Note_on_c, 0, 69, 79
2,202609, Control_c, 0, 64, 66
2,202625, Control_c, 0, 64, 0
2,202630, Note_on_c, 0, 51, 79
2,202695, Note_on_c, 0, 52, 0
2,202700, Control_c, 0, 64, 47
2,202715, Control_c, 0, 64, 69
2,202730, Control_c, 0, 64, 83
2,202746, Control_c, 0, 64, 111
2,202760, Control_c, 0, 64, 127
2,202811, Note_on_c, 0, 49, 83
2,202851, Note_on_c, 0, 69, 0
2,202854, Note_on_c, 0, 51, 0
2,202891, Note_on_c, 0, 73, 0
2,203007, Note_on_c, 0, 66, 0
2,203012, Control_c, 0, 64, 95
2,203028, Control_c, 0, 64, 74
2,203043, Control_c, 0, 64, 47
2,203056, Note_on_c, 0, 72, 90
2,203058, Control_c, 0, 64, 0
2,203061, Note_on_c, 0, 51, 85
2,203066, Note_on_c, 0, 69, 83
2,203071, Note_on_c, 0, 66, 74
2,203130, Note_on_c, 0, 49, 0
2,203150, Control_c, 0, 64, 54
2,203165, Control_c, 0, 64, 69
2,203180, Control_c, 0, 64, 84
2,203196, Control_c, 0, 64, 113
2,203210, Control_c, 0, 64, 127
2,203213, Note_on_c, 0, 44, 0
2,203469, Note_on_c, 0, 64, 78
2,203470, Control_c, 0, 64, 107
2,203478, Note_on_c, 0, 68, 81
2,203484, Control_c, 0, 64, 85
2,203498, Note_on_c, 0, 44, 84
2,203499, Control_c, 0, 64, 67
2,203515, Control_c, 0, 64, 0
2,203530, Note_on_c, 0, 66, 0
2,203547, Note_on_c, 0, 64, 0
2,203592, Note_on_c, 0, 69, 0
2,203613, Control_c, 0, 64, 56
2,203629, Control_c, 0, 64, 69
2,203644, Control_c, 0, 64, 81
2,203658, Control_c, 0, 64, 98
2,203674, Control_c, 0, 64, 127
2,203703, Note_on_c, 0, 66, 87
2,203704, Note_on_c, 0, 63, 80
2,203737, Note_on_c, 0, 68, 0
2,203749, Note_on_c, 0, 72, 0
2,203806, Note_on_c, 0, 66, 0
2,203932, Note_on_c, 0, 63, 0
2,203946, Control_c, 0, 64, 102
2,203962, Control_c, 0, 64, 80
2,203976, Control_c, 0, 64, 62
2,203992, Control_c, 0, 64, 0
2,204006, Note_on_c, 0, 76, 89
2,204010, Note_on_c, 0, 64, 87
2,204012, Note_on_c, 0, 49, 78
2,204012, Note_on_c, 0, 68, 82
2,204111, Control_c, 0, 64, 50
2,204111, Note_on_c, 0, 51, 0
2,204126, Control_c, 0, 64, 65
2,204141, Control_c, 0, 64, 73
2,204157, Control_c, 0, 64, 88
2,204171, Control_c, 0, 64, 106
2,204186, Control_c, 0, 64, 127
2,204245, Note_on_c, 0, 49, 0
2,204253, Note_on_c, 0, 64, 0
2,204467, Control_c, 0, 64, 102
2,204480, Note_on_c, 0, 49, 81
2,204483, Control_c, 0, 64, 81
2,204497, Note_on_c, 0, 70, 84
2,204498, Control_c, 0, 64, 63
2,204505, Note_on_c, 0, 66, 68
2,204513, Control_c, 0, 64, 0
2,204583, Note_on_c, 0, 68, 0
2,204590, Control_c, 0, 64, 46
2,204606, Control_c, 0, 64, 63
2,204620, Control_c, 0, 64, 71
2,204635, Control_c, 0, 64, 82
2,204651, Control_c, 0, 64, 99
2,204666, Control_c, 0, 64, 127
2,204759, Note_on_c, 0, 72, 85
2,204763, Note_on_c, 0, 68, 89
2,204786, Note_on_c, 0, 70, 0
2,204794, Note_on_c, 0, 66, 0
2,204798, Note_on_c, 0, 49, 0
2,205074, Note_on_c, 0, 72, 0
2,205075, Note_on_c, 0, 68, 0
2,205119, Note_on_c, 0, 43, 81
2,205123, Note_on_c, 0, 73, 90
2,205126, Note_on_c, 0, 49, 78
2,205131, Note_on_c, 0, 70, 73
2,205145, Control_c, 0, 64, 107
2,205155, Note_on_c, 0, 44, 0
2,205161, Control_c, 0, 64, 89
2,205175, Control_c, 0, 64, 73
2,205190, Control_c, 0, 64, 53
2,205206, Control_c, 0, 64, 0
2,205541, Control_c, 0, 64, 38
2,205557, Control_c, 0, 64, 52
2,205572, Control_c, 0, 64, 56
2,205586, Control_c, 0, 64, 59
2,205602, Control_c, 0, 64, 61
2,205617, Control_c, 0, 64, 63
2,205632, Control_c, 0, 64, 64
2,205648, Control_c, 0, 64, 65
2,205662, Control_c, 0, 64, 66
2,205711, Note_on_c, 0, 47, 77
2,205767, Note_on_c, 0, 49, 0
2,205867, Control_c, 0, 64, 66
2,205960, Note_on_c, 0, 46, 78
2,205997, Note_on_c, 0, 47, 0
2,206004, Note_on_c, 0, 70, 0
2,206140, Control_c, 0, 64, 65
2,206282, Note_on_c, 0, 76, 0
2,206318, Note_on_c, 0, 75, 79
2,206321, Note_on_c, 0, 63, 80
2,206323, Note_on_c, 0, 51, 79
2,206324, Control_c, 0, 64, 64
2,206325, Note_on_c, 0, 70, 80
2,206339, Control_c, 0, 64, 62
2,206354, Control_c, 0, 64, 54
2,206359, Note_on_c, 0, 73, 0
2,206370, Control_c, 0, 64, 39
2,206371, Note_on_c, 0, 46, 0
2,206384, Control_c, 0, 64, 0
2,206787, Control_c, 0, 64, 10
2,206803, Control_c, 0, 64, 55
2,206818, Control_c, 0, 64, 64
2,206825, Note_on_c, 0, 73, 81
2,206832, Control_c, 0, 64, 68
2,206848, Control_c, 0, 64, 73
2,206863, Control_c, 0, 64, 77
2,206879, Control_c, 0, 64, 83
2,206894, Control_c, 0, 64, 87
2,206908, Control_c, 0, 64, 90
2,206924, Control_c, 0, 64, 92
2,206988, Note_on_c, 0, 75, 0
2,206991, Note_on_c, 0, 70, 0
2,207137, Control_c, 0, 64, 92
2,207152, Control_c, 0, 64, 91
2,207168, Control_c, 0, 64, 91
2,207183, Control_c, 0, 64, 90
2,207244, Control_c, 0, 64, 90
2,207296, Note_on_c, 0, 44, 60
2,207305, Control_c, 0, 64, 88
2,207318, Note_on_c, 0, 72, 77
2,207319, Note_on_c, 0, 68, 73
2,207321, Control_c, 0, 64, 84
2,207336, Control_c, 0, 64, 76
2,207342, Note_on_c, 0, 43, 0
2,207350, Control_c, 0, 64, 67
2,207366, Control_c, 0, 64, 54
2,207381, Control_c, 0, 64, 19
2,207384, Note_on_c, 0, 73, 0
2,207403, Control_c, 0, 64, 0
2,207525, Control_c, 0, 64, 28
2,207531, Note_on_c, 0, 51, 0
2,207540, Control_c, 0, 64, 41
2,207555, Control_c, 0, 64, 52
2,207571, Control_c, 0, 64, 59
2,207586, Control_c, 0, 64, 62
2,207601, Control_c, 0, 64, 65
2,207608, Note_on_c, 0, 52, 64
2,207616, Control_c, 0, 64, 66
2,207631, Control_c, 0, 64, 68
2,207647, Control_c, 0, 64, 69
2,207662, Control_c, 0, 64, 69
2,207677, Control_c, 0, 64, 70
2,207752, Control_c, 0, 64, 69
2,207799, Control_c, 0, 64, 69
2,207815, Control_c, 0, 64, 68
2,207830, Control_c, 0, 64, 68
2,207871, Note_on_c, 0, 54, 75
2,207923, Note_on_c, 0, 52, 0
2,208043, Control_c, 0, 64, 68
2,208201, Note_on_c, 0, 68, 0
2,208217, Control_c, 0, 64, 68
2,208308, Control_c, 0, 64, 67
2,208415, Note_on_c, 0, 63, 0
2,208447, Note_on_c, 0, 73, 74
2,208450, Note_on_c, 0, 64, 61
2,208450, Note_on_c, 0, 68, 63
2,208505, Note_on_c, 0, 72, 0
2,208597, Control_c, 0, 64, 67
2,208671, Note_on_c, 0, 52, 63
2,208722, Note_on_c, 0, 54, 0
2,208735, Control_c, 0, 64, 66
2,208856, Control_c, 0, 64, 66
2,208917, Control_c, 0, 64, 65
2,208935, Note_on_c, 0, 51, 75
2,208940, Control_c, 0, 64, 65
2,208955, Control_c, 0, 64, 64
2,208985, Control_c, 0, 64, 64
2,209027, Note_on_c, 0, 52, 0
2,209152, Control_c, 0, 64, 64
2,209173, Note_on_c, 0, 49, 71
2,209186, Note_on_c, 0, 64, 0
2,209256, Note_on_c, 0, 51, 0
2,209503, Control_c, 0, 64, 64
2,209563, Note_on_c, 0, 56, 71
2,209564, Control_c, 0, 64, 63
2,209571, Note_on_c, 0, 63, 65
2,209579, Control_c, 0, 64, 63
2,209593, Control_c, 0, 64, 62
2,209609, Control_c, 0, 64, 60
2,209618, Note_on_c, 0, 49, 0
2,209624, Control_c, 0, 64, 59
2,209640, Control_c, 0, 64, 58
2,209655, Control_c, 0, 64, 58
2,209753, Control_c, 0, 64, 58
2,209769, Control_c, 0, 64, 59
2,209784, Control_c, 0, 64, 60
2,209800, Control_c, 0, 64, 60
2,209829, Control_c, 0, 64, 61
2,209860, Control_c, 0, 64, 61
2,210042, Control_c, 0, 64, 61
2,210567, Control_c, 0, 64, 61
2,210644, Control_c, 0, 64, 62
2,210734, Control_c, 0, 64, 62
2,210738, Note_on_c, 0, 72, 66
2,210765, Control_c, 0, 64, 63
2,210810, Control_c, 0, 64, 63
2,210841, Control_c, 0, 64, 64
2,210855, Control_c, 0, 64, 64
2,210870, Control_c, 0, 64, 66
2,210886, Control_c, 0, 64, 67
2,210900, Control_c, 0, 64, 70
2,210915, Control_c, 0, 64, 72
2,210920, Note_on_c, 0, 73, 0
2,210931, Control_c, 0, 64, 74
2,210946, Control_c, 0, 64, 77
2,210962, Control_c, 0, 64, 81
2,210977, Control_c, 0, 64, 87
2,210992, Control_c, 0, 64, 94
2,211008, Control_c, 0, 64, 100
2,211022, Control_c, 0, 64, 104
2,211022, Note_on_c, 0, 68, 0
2,211038, Control_c, 0, 64, 104
2,211271, Note_on_c, 0, 63, 0
2,211377, Note_on_c, 0, 64, 49
2,211412, Control_c, 0, 64, 105
2,211502, Control_c, 0, 64, 105
2,211729, Note_on_c, 0, 66, 56
2,211761, Control_c, 0, 64, 105
2,211831, Note_on_c, 0, 64, 0
2,211837, Control_c, 0, 64, 104
2,211860, Note_on_c, 0, 56, 0
2,212044, Control_c, 0, 64, 104
2,212073, Control_c, 0, 64, 103
2,212089, Control_c, 0, 64, 102
2,212104, Control_c, 0, 64, 102
2,212120, Control_c, 0, 64, 101
2,212134, Control_c, 0, 64, 100
2,212149, Control_c, 0, 64, 100
2,212165, Control_c, 0, 64, 99
2,212180, Control_c, 0, 64, 98
2,212194, Control_c, 0, 64, 97
2,212210, Control_c, 0, 64, 95
2,212225, Control_c, 0, 64, 93
2,212233, Note_on_c, 0, 65, 56
2,212234, Note_on_c, 0, 73, 61
2,212240, Note_on_c, 0, 68, 56
2,212241, Control_c, 0, 64, 89
2,212256, Control_c, 0, 64, 86
2,212263, Note_on_c, 0, 57, 44
2,212266, Note_on_c, 0, 49, 45
2,212270, Control_c, 0, 64, 82
2,212286, Control_c, 0, 64, 79
2,212301, Control_c, 0, 64, 75
2,212309, Note_on_c, 0, 66, 0
2,212317, Control_c, 0, 64, 72
2,212332, Control_c, 0, 64, 67
2,212346, Control_c, 0, 64, 64
2,212362, Control_c, 0, 64, 63
2,212377, Control_c, 0, 64, 62
2,212392, Control_c, 0, 64, 61
2,212412, Note_on_c, 0, 72, 0
2,212417, Note_on_c, 0, 44, 0
2,212423, Control_c, 0, 64, 62
2,212454, Control_c, 0, 64, 62
2,212455, Note_on_c, 0, 66, 19
2,212468, Control_c, 0, 64, 63
2,212484, Control_c, 0, 64, 64
2,212501, Control_c, 0, 64, 65
2,212504, Note_on_c, 0, 66, 0
2,212516, Control_c, 0, 64, 65
2,212531, Control_c, 0, 64, 66
2,212546, Control_c, 0, 64, 67
2,212562, Control_c, 0, 64, 68
2,212577, Control_c, 0, 64, 69
2,212592, Control_c, 0, 64, 70
2,212667, Control_c, 0, 64, 69
2,212698, Control_c, 0, 64, 69
2,212730, Control_c, 0, 64, 68
2,212745, Control_c, 0, 64, 67
2,212828, Control_c, 0, 64, 67
2,212903, Control_c, 0, 64, 66
2,212934, Control_c, 0, 64, 66
2,212964, Control_c, 0, 64, 65
2,212979, Note_on_c, 0, 61, 65
2,213024, Control_c, 0, 64, 65
2,213101, Control_c, 0, 64, 65
2,213131, Control_c, 0, 64, 66
2,213146, Control_c, 0, 64, 66
2,213162, Control_c, 0, 64, 67
2,213163, Note_on_c, 0, 65, 0
2,213177, Control_c, 0, 64, 67
2,213193, Control_c, 0, 64, 68
2,213208, Control_c, 0, 64, 69
2,213223, Control_c, 0, 64, 69
2,213238, Control_c, 0, 64, 70
2,213329, Control_c, 0, 64, 69
2,213359, Control_c, 0, 64, 69
2,213374, Control_c, 0, 64, 68
2,213420, Control_c, 0, 64, 68
2,213465, Control_c, 0, 64, 67
2,213511, Control_c, 0, 64, 67
2,213526, Control_c, 0, 64, 66
2,213531, Note_on_c, 0, 66, 69
2,213551, Control_c, 0, 64, 66
2,213566, Control_c, 0, 64, 65
2,213581, Control_c, 0, 64, 65
2,213688, Note_on_c, 0, 68, 0
2,213746, Control_c, 0, 64, 64
2,214063, Note_on_c, 0, 56, 43
2,214116, Note_on_c, 0, 57, 0
2,214263, Control_c, 0, 64, 65
2,214293, Note_on_c, 0, 57, 49
2,214339, Note_on_c, 0, 56, 0
2,214469, Control_c, 0, 64, 64
2,214545, Control_c, 0, 64, 64
2,214576, Control_c, 0, 64, 63
2,214598, Note_on_c, 0, 65, 62
2,214605, Note_on_c, 0, 59, 44
2,214621, Control_c, 0, 64, 63
2,214637, Control_c, 0, 64, 62
2,214639, Note_on_c, 0, 57, 0
2,214666, Control_c, 0, 64, 62
2,214707, Note_on_c, 0, 66, 0
2,214742, Control_c, 0, 64, 63
2,214758, Control_c, 0, 64, 64
2,214773, Control_c, 0, 64, 66
2,214788, Control_c, 0, 64, 68
2,214804, Control_c, 0, 64, 72
2,214819, Control_c, 0, 64, 77
2,214835, Control_c, 0, 64, 83
2,214849, Control_c, 0, 64, 90
2,214864, Control_c, 0, 64, 95
2,214880, Control_c, 0, 64, 96
2,214887, Note_on_c, 0, 61, 0
2,214895, Control_c, 0, 64, 96
2,214911, Control_c, 0, 64, 95
2,214925, Control_c, 0, 64, 95
2,214956, Control_c, 0, 64, 94
2,214970, Control_c, 0, 64, 92
2,214985, Control_c, 0, 64, 91
2,215001, Control_c, 0, 64, 91
2,215016, Control_c, 0, 64, 89
2,215032, Control_c, 0, 64, 87
2,215047, Control_c, 0, 64, 85
2,215061, Control_c, 0, 64, 85
2,215116, Control_c, 0, 64, 84
2,215130, Control_c, 0, 64, 83
2,215145, Control_c, 0, 64, 80
2,215161, Control_c, 0, 64, 75
2,215176, Control_c, 0, 64, 68
2,215192, Control_c, 0, 64, 61
2,215201, Note_on_c, 0, 61, 56
2,215207, Control_c, 0, 64, 53
2,215219, Note_on_c, 0, 57, 43
2,215222, Control_c, 0, 64, 47
2,215238, Control_c, 0, 64, 42
2,215253, Control_c, 0, 64, 38
2,215268, Control_c, 0, 64, 38
2,215283, Control_c, 0, 64, 39
2,215288, Note_on_c, 0, 59, 0
2,215298, Control_c, 0, 64, 48
2,215314, Control_c, 0, 64, 56
2,215329, Control_c, 0, 64, 61
2,215344, Control_c, 0, 64, 64
2,215359, Control_c, 0, 64, 67
2,215374, Control_c, 0, 64, 69
2,215389, Control_c, 0, 64, 72
2,215405, Control_c, 0, 64, 75
2,215420, Control_c, 0, 64, 78
2,215435, Control_c, 0, 64, 83
2,215450, Control_c, 0, 64, 89
2,215465, Control_c, 0, 64, 92
2,215511, Control_c, 0, 64, 91
2,215526, Control_c, 0, 64, 91
2,215541, Control_c, 0, 64, 90
2,215557, Control_c, 0, 64, 90
2,215708, Control_c, 0, 64, 89
2,215724, Control_c, 0, 64, 88
2,215739, Control_c, 0, 64, 87
2,215755, Control_c, 0, 64, 83
2,215769, Control_c, 0, 64, 79
2,215787, Control_c, 0, 64, 73
2,215802, Control_c, 0, 64, 65
2,215803, Note_on_c, 0, 69, 65
2,215809, Note_on_c, 0, 66, 59
2,215816, Control_c, 0, 64, 57
2,215821, Note_on_c, 0, 56, 44
2,215832, Control_c, 0, 64, 49
2,215854, Control_c, 0, 64, 44
2,215861, Note_on_c, 0, 61, 0
2,215870, Control_c, 0, 64, 37
2,215882, Note_on_c, 0, 65, 0
2,215885, Control_c, 0, 64, 20
2,215887, Note_on_c, 0, 57, 0
2,215900, Control_c, 0, 64, 0
2,215947, Control_c, 0, 64, 28
2,215962, Control_c, 0, 64, 47
2,215976, Control_c, 0, 64, 57
2,215992, Control_c, 0, 64, 63
2,216007, Control_c, 0, 64, 67
2,216022, Control_c, 0, 64, 72
2,216038, Control_c, 0, 64, 77
2,216053, Control_c, 0, 64, 82
2,216069, Control_c, 0, 64, 88
2,216084, Control_c, 0, 64, 94
2,216099, Control_c, 0, 64, 102
2,216115, Control_c, 0, 64, 106
2,216122, Note_on_c, 0, 66, 0
2,216145, Control_c, 0, 64, 106
2,216220, Control_c, 0, 64, 105
2,216281, Control_c, 0, 64, 106
2,216312, Control_c, 0, 64, 106
2,216417, Control_c, 0, 64, 106
2,216433, Control_c, 0, 64, 105
2,216448, Control_c, 0, 64, 104
2,216464, Control_c, 0, 64, 99
2,216473, Note_on_c, 0, 66, 55
2,216476, Note_on_c, 0, 54, 49
2,216478, Control_c, 0, 64, 91
2,216493, Control_c, 0, 64, 81
2,216509, Control_c, 0, 64, 70
2,216521, Note_on_c, 0, 56, 0
2,216524, Control_c, 0, 64, 58
2,216539, Control_c, 0, 64, 35
2,216555, Control_c, 0, 64, 33
2,216570, Control_c, 0, 64, 32
2,216586, Control_c, 0, 64, 31
2,216622, Control_c, 0, 64, 41
2,216638, Control_c, 0, 64, 51
2,216653, Control_c, 0, 64, 58
2,216668, Control_c, 0, 64, 63
2,216683, Control_c, 0, 64, 66
2,216698, Control_c, 0, 64, 71
2,216714, Control_c, 0, 64, 77
2,216729, Control_c, 0, 64, 86
2,216745, Control_c, 0, 64, 97
2,216760, Control_c, 0, 64, 108
2,216775, Control_c, 0, 64, 109
2,216790, Control_c, 0, 64, 108
2,216809, Note_on_c, 0, 66, 0
2,216821, Control_c, 0, 64, 109
2,216928, Control_c, 0, 64, 109
2,216944, Control_c, 0, 64, 110
2,216958, Control_c, 0, 64, 110
2,217019, Control_c, 0, 64, 110
2,217035, Control_c, 0, 64, 109
2,217065, Control_c, 0, 64, 109
2,217080, Control_c, 0, 64, 108
2,217125, Control_c, 0, 64, 107
2,217171, Control_c, 0, 64, 107
2,217186, Control_c, 0, 64, 106
2,217201, Control_c, 0, 64, 104
2,217216, Control_c, 0, 64, 102
2,217232, Control_c, 0, 64, 99
2,217247, Control_c, 0, 64, 95
2,217258, Note_on_c, 0, 68, 64
2,217261, Control_c, 0, 64, 92
2,217265, Note_on_c, 0, 66, 52
2,217277, Control_c, 0, 64, 89
2,217283, Note_on_c, 0, 61, 48
2,217292, Control_c, 0, 64, 87
2,217307, Control_c, 0, 64, 85
2,217322, Control_c, 0, 64, 84
2,217337, Control_c, 0, 64, 82
2,217350, Note_on_c, 0, 54, 0
2,217353, Control_c, 0, 64, 79
2,217359, Note_on_c, 0, 69, 0
2,217368, Control_c, 0, 64, 77
2,217391, Control_c, 0, 64, 73
2,217406, Control_c, 0, 64, 71
2,217421, Control_c, 0, 64, 68
2,217436, Control_c, 0, 64, 66
2,217451, Control_c, 0, 64, 65
2,217467, Control_c, 0, 64, 64
2,217482, Control_c, 0, 64, 64
2,217573, Control_c, 0, 64, 64
2,217588, Control_c, 0, 64, 65
2,217618, Control_c, 0, 64, 65
2,217635, Control_c, 0, 64, 66
2,217650, Control_c, 0, 64, 66
2,217666, Control_c, 0, 64, 67
2,217681, Control_c, 0, 64, 68
2,217695, Control_c, 0, 64, 69
2,217833, Control_c, 0, 64, 68
2,217864, Control_c, 0, 64, 68
2,217924, Control_c, 0, 64, 67
2,217969, Control_c, 0, 64, 67
2,218015, Control_c, 0, 64, 66
2,218045, Control_c, 0, 64, 66
2,218075, Control_c, 0, 64, 65
2,218090, Control_c, 0, 64, 65
2,218106, Control_c, 0, 64, 64
2,218121, Control_c, 0, 64, 62
2,218130, Note_on_c, 0, 59, 37
2,218136, Control_c, 0, 64, 57
2,218159, Control_c, 0, 64, 48
2,218174, Control_c, 0, 64, 36
2,218190, Control_c, 0, 64, 25
2,218205, Control_c, 0, 64, 21
2,218235, Control_c, 0, 64, 22
2,218250, Control_c, 0, 64, 30
2,218259, Note_on_c, 0, 61, 0
2,218267, Control_c, 0, 64, 46
2,218281, Control_c, 0, 64, 58
2,218296, Control_c, 0, 64, 65
2,218312, Control_c, 0, 64, 70
2,218327, Control_c, 0, 64, 74
2,218342, Control_c, 0, 64, 77
2,218357, Control_c, 0, 64, 78
2,218372, Control_c, 0, 64, 78
2,218388, Control_c, 0, 64, 79
2,218403, Control_c, 0, 64, 81
2,218418, Control_c, 0, 64, 83
2,218433, Control_c, 0, 64, 85
2,218465, Control_c, 0, 64, 85
2,218480, Control_c, 0, 64, 84
2,218521, Note_on_c, 0, 57, 43
2,218540, Control_c, 0, 64, 84
2,218586, Note_on_c, 0, 59, 0
2,218616, Control_c, 0, 64, 83
2,218647, Control_c, 0, 64, 83
2,218661, Control_c, 0, 64, 82
2,218692, Control_c, 0, 64, 82
2,218708, Control_c, 0, 64, 81
2,218737, Control_c, 0, 64, 81
2,218814, Control_c, 0, 64, 80
2,218830, Control_c, 0, 64, 80
2,218845, Control_c, 0, 64, 79
2,218958, Control_c, 0, 64, 79
2,218989, Control_c, 0, 64, 78
2,219004, Note_on_c, 0, 65, 37
2,219013, Note_on_c, 0, 56, 39
2,219019, Control_c, 0, 64, 78
2,219049, Control_c, 0, 64, 77
2,219065, Control_c, 0, 64, 76
2,219079, Control_c, 0, 64, 76
2,219094, Control_c, 0, 64, 75
2,219110, Control_c, 0, 64, 74
2,219117, Note_on_c, 0, 66, 0
2,219124, Control_c, 0, 64, 74
2,219138, Note_on_c, 0, 57, 0
2,219139, Control_c, 0, 64, 73
2,219155, Control_c, 0, 64, 72
2,219170, Control_c, 0, 64, 72
2,219201, Control_c, 0, 64, 71
2,219246, Control_c, 0, 64, 71
2,219261, Control_c, 0, 64, 70
2,219278, Control_c, 0, 64, 70
2,219368, Control_c, 0, 64, 69
2,219414, Control_c, 0, 64, 69
2,219444, Control_c, 0, 64, 68
2,219581, Control_c, 0, 64, 68
2,219612, Control_c, 0, 64, 67
2,219657, Control_c, 0, 64, 67
2,219740, Control_c, 0, 64, 66
2,219802, Control_c, 0, 64, 66
2,219879, Note_on_c, 0, 63, 45
2,219908, Control_c, 0, 64, 65
2,219918, Note_on_c, 0, 54, 34
2,219938, Control_c, 0, 64, 65
2,220014, Control_c, 0, 64, 64
2,220030, Control_c, 0, 64, 64
2,220044, Control_c, 0, 64, 63
2,220068, Note_on_c, 0, 65, 0
2,220090, Control_c, 0, 64, 63
2,220152, Note_on_c, 0, 56, 0
2,220197, Control_c, 0, 64, 62
2,220410, Control_c, 0, 64, 62
2,220441, Control_c, 0, 64, 61
2,220479, Control_c, 0, 64, 61
2,220509, Control_c, 0, 64, 60
2,220707, Control_c, 0, 64, 60
2,220813, Control_c, 0, 64, 60
2,221247, Control_c, 0, 64, 60
2,221248, Note_on_c, 0, 65, 38
2,221267, Note_on_c, 0, 56, 31
2,221370, Note_on_c, 0, 63, 0
2,221443, Note_on_c, 0, 54, 0
2,221566, Control_c, 0, 64, 59
2,221580, Control_c, 0, 64, 59
2,221596, Control_c, 0, 64, 58
2,221611, Control_c, 0, 64, 57
2,221627, Control_c, 0, 64, 56
2,221642, Control_c, 0, 64, 55
2,221656, Control_c, 0, 64, 54
2,221672, Control_c, 0, 64, 53
2,221687, Control_c, 0, 64, 52
2,221702, Control_c, 0, 64, 51
2,221717, Control_c, 0, 64, 49
2,221734, Control_c, 0, 64, 49
2,221750, Control_c, 0, 64, 48
2,221764, Control_c, 0, 64, 47
2,221779, Control_c, 0, 64, 45
2,221795, Control_c, 0, 64, 42
2,221809, Control_c, 0, 64, 39
2,221825, Control_c, 0, 64, 35
2,221840, Control_c, 0, 64, 28
2,221855, Control_c, 0, 64, 21
2,221871, Control_c, 0, 64, 8
2,221885, Control_c, 0, 64, 0
2,222471, Control_c, 0, 64, 16
2,222486, Control_c, 0, 64, 35
2,222501, Control_c, 0, 64, 42
2,222517, Control_c, 0, 64, 46
2,222532, Control_c, 0, 64, 49
2,222548, Control_c, 0, 64, 51
2,222563, Control_c, 0, 64, 52
2,222577, Control_c, 0, 64, 54
2,222593, Control_c, 0, 64, 55
2,222608, Control_c, 0, 64, 57
2,222624, Control_c, 0, 64, 59
2,222639, Control_c, 0, 64, 61
2,222654, Control_c, 0, 64, 62
2,222670, Control_c, 0, 64, 63
2,222687, Control_c, 0, 64, 64
2,222703, Control_c, 0, 64, 64
2,222719, Control_c, 0, 64, 65
2,222735, Control_c, 0, 64, 67
2,222750, Control_c, 0, 64, 68
2,222773, Control_c, 0, 64, 70
2,222788, Control_c, 0, 64, 72
2,222802, Control_c, 0, 64, 74
2,222818, Control_c, 0, 64, 76
2,222833, Control_c, 0, 64, 77
2,222848, Control_c, 0, 64, 79
2,222864, Control_c, 0, 64, 81
2,222878, Control_c, 0, 64, 83
2,222894, Control_c, 0, 64, 85
2,222909, Control_c, 0, 64, 86
2,222924, Control_c, 0, 64, 88
2,222940, Control_c, 0, 64, 89
2,222955, Control_c, 0, 64, 90
2,223031, Control_c, 0, 64, 91
2,223046, Control_c, 0, 64, 92
2,223062, Control_c, 0, 64, 95
2,223076, Control_c, 0, 64, 99
2,223092, Control_c, 0, 64, 101
2,223107, Control_c, 0, 64, 102
2,223197, Control_c, 0, 64, 103
2,223213, Control_c, 0, 64, 104
2,223228, Control_c, 0, 64, 106
2,223243, Control_c, 0, 64, 109
2,223259, Control_c, 0, 64, 111
2,223273, Control_c, 0, 64, 112
2,223288, Control_c, 0, 64, 114
2,223304, Control_c, 0, 64, 116
2,223319, Control_c, 0, 64, 127
2,224412, Note_on_c, 0, 56, 0
2,224416, Note_on_c, 0, 49, 0
2,224423, Note_on_c, 0, 65, 0
2,224483, Note_on_c, 0, 73, 0
2,224544, Note_on_c, 0, 68, 0
2,224675, Control_c, 0, 64, 122
2,224690, Control_c, 0, 64, 121
2,224705, Control_c, 0, 64, 119
2,224720, Control_c, 0, 64, 118
2,224736, Control_c, 0, 64, 116
2,224751, Control_c, 0, 64, 114
2,224766, Control_c, 0, 64, 113
2,224781, Control_c, 0, 64, 111
2,224796, Control_c, 0, 64, 110
2,224811, Control_c, 0, 64, 110
2,224826, Control_c, 0, 64, 108
2,224841, Control_c, 0, 64, 107
2,224857, Control_c, 0, 64, 106
2,224872, Control_c, 0, 64, 106
2,224887, Control_c, 0, 64, 105
2,224902, Control_c, 0, 64, 104
2,224917, Control_c, 0, 64, 103
2,224933, Control_c, 0, 64, 102
2,224948, Control_c, 0, 64, 101
2,224993, Control_c, 0, 64, 100
2,225009, Control_c, 0, 64, 98
2,225025, Control_c, 0, 64, 97
2,225040, Control_c, 0, 64, 95
2,225056, Control_c, 0, 64, 93
2,225078, Control_c, 0, 64, 92
2,225094, Control_c, 0, 64, 90
2,225109, Control_c, 0, 64, 88
2,225124, Control_c, 0, 64, 87
2,225139, Control_c, 0, 64, 86
2,225154, Control_c, 0, 64, 85
2,225170, Control_c, 0, 64, 84
2,225186, Control_c, 0, 64, 83
2,225200, Control_c, 0, 64, 81
2,225216, Control_c, 0, 64, 81
2,225231, Control_c, 0, 64, 80
2,225247, Control_c, 0, 64, 80
2,225261, Control_c, 0, 64, 79
2,225276, Control_c, 0, 64, 78
2,225292, Control_c, 0, 64, 77
2,225307, Control_c, 0, 64, 76
2,225323, Control_c, 0, 64, 75
2,225337, Control_c, 0, 64, 74
2,225352, Control_c, 0, 64, 73
2,225368, Control_c, 0, 64, 72
2,225383, Control_c, 0, 64, 71
2,225398, Control_c, 0, 64, 71
2,225413, Control_c, 0, 64, 70
2,225444, Control_c, 0, 64, 69
2,225458, Control_c, 0, 64, 68
2,225473, Control_c, 0, 64, 68
2,225489, Control_c, 0, 64, 67
2,225504, Control_c, 0, 64, 67
2,225535, Control_c, 0, 64, 66
2,225550, Control_c, 0, 64, 66
2,225596, Control_c, 0, 64, 65
2,225626, Control_c, 0, 64, 65
2,225641, Control_c, 0, 64, 64
2,225656, Control_c, 0, 64, 64
2,225671, Control_c, 0, 64, 63
2,225687, Control_c, 0, 64, 62
2,225717, Control_c, 0, 64, 61
2,225732, Control_c, 0, 64, 61
2,225747, Control_c, 0, 64, 60
2,225763, Control_c, 0, 64, 60
2,225778, Control_c, 0, 64, 59
2,225793, Control_c, 0, 64, 58
2,225808, Control_c, 0, 64, 58
2,225823, Control_c, 0, 64, 57
2,225847, Control_c, 0, 64, 56
2,225862, Control_c, 0, 64, 55
2,225877, Control_c, 0, 64, 54
2,225893, Control_c, 0, 64, 53
2,225908, Control_c, 0, 64, 53
2,225923, Control_c, 0, 64, 52
2,225938, Control_c, 0, 64, 51
2,225952, Control_c, 0, 64, 51
2,225982, Control_c, 0, 64, 50
2,226043, Control_c, 0, 64, 50
2,226044, End_track
0, 0, End_of_file
