0, 0, Header, 1, 2, 384
1, 0, Start_track
1, 0, Tempo, 500000
1, 0, Time_signature, 4, 2, 24, 8
1, 1, End_track
2, 0, Start_track
2, 0, Title_t," ""performer 4"""
2, 0, Program_c, 0, 0
2, 0, Control_c, 0, 64, 0
2, 0, Control_c, 0, 66, 0
2, 0, Control_c, 0, 67, 127
2, 750, Note_on_c, 0, 68, 46
2, 759, Note_on_c, 0, 49, 42
2, 1058, Note_on_c, 0, 66, 50
2, 1322, Note_on_c, 0, 64, 55
2, 1580, Note_on_c, 0, 63, 54
2, 1649, Note_on_c, 0, 64, 0
2, 1723, Note_on_c, 0, 66, 0
2, 1828, Note_on_c, 0, 64, 56
2, 1892, Note_on_c, 0, 63, 0
2, 2066, Note_on_c, 0, 61, 58
2, 2068, Note_on_c, 0, 64, 0
2, 2311, Note_on_c, 0, 64, 59
2, 2353, Note_on_c, 0, 68, 0
2, 2374, Note_on_c, 0, 68, 42
2, 2389, Note_on_c, 0, 61, 0
2, 2499, Note_on_c, 0, 73, 68
2, 3207, Note_on_c, 0, 71, 60
2, 3261, Note_on_c, 0, 68, 0
2, 3462, Note_on_c, 0, 66, 58
2, 3474, Note_on_c, 0, 69, 61
2, 3507, Note_on_c, 0, 71, 0
2, 3515, Note_on_c, 0, 73, 0
2, 3752, Note_on_c, 0, 64, 0
2, 3982, Note_on_c, 0, 68, 61
2, 3991, Note_on_c, 0, 64, 43
2, 3994, Note_on_c, 0, 56, 42
2, 4159, Note_on_c, 0, 69, 0
2, 4215, Note_on_c, 0, 54, 56
2, 4263, Note_on_c, 0, 66, 0
2, 4441, Note_on_c, 0, 52, 65
2, 4536, Note_on_c, 0, 54, 0
2, 4649, Control_c, 0, 67, 123
2, 4662, Note_on_c, 0, 51, 69
2, 4664, Control_c, 0, 67, 109
2, 4680, Control_c, 0, 67, 94
2, 4695, Control_c, 0, 67, 81
2, 4710, Control_c, 0, 67, 68
2, 4712, Note_on_c, 0, 52, 0
2, 4725, Control_c, 0, 67, 57
2, 4740, Control_c, 0, 67, 45
2, 4755, Control_c, 0, 67, 33
2, 4771, Control_c, 0, 67, 20
2, 4786, Control_c, 0, 67, 8
2, 4801, Control_c, 0, 67, 0
2, 4897, Note_on_c, 0, 52, 67
2, 4963, Note_on_c, 0, 51, 0
2, 4965, Note_on_c, 0, 49, 0
2, 5104, Note_on_c, 0, 49, 63
2, 5150, Note_on_c, 0, 56, 0
2, 5192, Note_on_c, 0, 52, 0
2, 5379, Note_on_c, 0, 61, 63
2, 6025, Note_on_c, 0, 59, 61
2, 6086, Note_on_c, 0, 61, 0
2, 6300, Note_on_c, 0, 66, 67
2, 6314, Note_on_c, 0, 57, 56
2, 6336, Note_on_c, 0, 64, 0
2, 6351, Note_on_c, 0, 59, 0
2, 6460, Note_on_c, 0, 68, 0
2, 6786, Note_on_c, 0, 75, 71
2, 6808, Note_on_c, 0, 48, 50
2, 6816, Note_on_c, 0, 56, 54
2, 6865, Note_on_c, 0, 49, 0
2, 6918, Note_on_c, 0, 57, 0
2, 7033, Note_on_c, 0, 73, 69
2, 7256, Note_on_c, 0, 72, 68
2, 7318, Note_on_c, 0, 73, 0
2, 7463, Note_on_c, 0, 70, 70
2, 7485, Note_on_c, 0, 72, 0
2, 7703, Note_on_c, 0, 72, 65
2, 7731, Note_on_c, 0, 70, 0
2, 7767, Control_c, 0, 64, 47
2, 7782, Control_c, 0, 64, 64
2, 7798, Control_c, 0, 64, 70
2, 7813, Control_c, 0, 64, 77
2, 7828, Control_c, 0, 64, 84
2, 7843, Control_c, 0, 64, 90
2, 7858, Control_c, 0, 64, 93
2, 7873, Control_c, 0, 64, 95
2, 7888, Control_c, 0, 64, 97
2, 7903, Control_c, 0, 64, 99
2, 7908, Note_on_c, 0, 68, 72
2, 7919, Control_c, 0, 64, 101
2, 7929, Note_on_c, 0, 72, 0
2, 7934, Control_c, 0, 64, 102
2, 7949, Note_on_c, 0, 75, 0
2, 7960, Note_on_c, 0, 66, 0
2, 8005, Note_on_c, 0, 68, 0
2, 8010, Control_c, 0, 64, 101
2, 8025, Control_c, 0, 64, 101
2, 8040, Control_c, 0, 64, 100
2, 8055, Control_c, 0, 64, 99
2, 8115, Control_c, 0, 64, 99
2, 8118, Note_on_c, 0, 68, 74
2, 8131, Control_c, 0, 64, 98
2, 8146, Control_c, 0, 64, 95
2, 8162, Control_c, 0, 64, 93
2, 8177, Control_c, 0, 64, 91
2, 8190, Note_on_c, 0, 75, 76
2, 8192, Control_c, 0, 64, 90
2, 8208, Control_c, 0, 64, 88
2, 8223, Control_c, 0, 64, 84
2, 8239, Control_c, 0, 64, 76
2, 8253, Control_c, 0, 64, 63
2, 8268, Control_c, 0, 64, 0
2, 8281, Note_on_c, 0, 80, 83
2, 8550, Control_c, 0, 64, 55
2, 8566, Control_c, 0, 64, 66
2, 8580, Control_c, 0, 64, 75
2, 8595, Control_c, 0, 64, 86
2, 8611, Control_c, 0, 64, 99
2, 8626, Control_c, 0, 64, 113
2, 8642, Control_c, 0, 64, 115
2, 8657, Control_c, 0, 64, 115
2, 8800, Note_on_c, 0, 48, 0
2, 8839, Control_c, 0, 64, 114
2, 8869, Control_c, 0, 64, 114
2, 8931, Note_on_c, 0, 78, 80
2, 8944, Control_c, 0, 64, 113
2, 8955, Note_on_c, 0, 75, 0
2, 8960, Control_c, 0, 64, 113
2, 8975, Control_c, 0, 64, 112
2, 9006, Control_c, 0, 64, 112
2, 9021, Control_c, 0, 64, 111
2, 9037, Control_c, 0, 64, 111
2, 9043, Note_on_c, 0, 68, 0
2, 9051, Control_c, 0, 64, 109
2, 9066, Control_c, 0, 64, 108
2, 9097, Control_c, 0, 64, 107
2, 9112, Control_c, 0, 64, 106
2, 9128, Control_c, 0, 64, 105
2, 9149, Control_c, 0, 64, 100
2, 9150, Note_on_c, 0, 56, 0
2, 9165, Control_c, 0, 64, 92
2, 9180, Control_c, 0, 64, 80
2, 9188, Note_on_c, 0, 76, 76
2, 9194, Note_on_c, 0, 68, 50
2, 9195, Control_c, 0, 64, 63
2, 9197, Note_on_c, 0, 73, 66
2, 9207, Note_on_c, 0, 49, 46
2, 9211, Control_c, 0, 64, 0
2, 9214, Note_on_c, 0, 61, 53
2, 9290, Note_on_c, 0, 78, 0
2, 9309, Note_on_c, 0, 80, 0
2, 9333, Control_c, 0, 64, 19
2, 9348, Control_c, 0, 64, 63
2, 9364, Control_c, 0, 64, 74
2, 9378, Control_c, 0, 64, 90
2, 9393, Control_c, 0, 64, 127
2, 9400, Note_on_c, 0, 49, 0
2, 9427, Note_on_c, 0, 68, 0
2, 9441, Note_on_c, 0, 61, 0
2, 9473, Note_on_c, 0, 73, 0
2, 9586, Note_on_c, 0, 68, 51
2, 9622, Control_c, 0, 64, 118
2, 9633, Note_on_c, 0, 56, 51
2, 9635, Note_on_c, 0, 72, 65
2, 9638, Control_c, 0, 64, 108
2, 9648, Note_on_c, 0, 63, 63
2, 9652, Control_c, 0, 64, 100
2, 9667, Control_c, 0, 64, 93
2, 9678, Note_on_c, 0, 75, 72
2, 9683, Control_c, 0, 64, 86
2, 9698, Control_c, 0, 64, 77
2, 9712, Control_c, 0, 64, 68
2, 9713, Note_on_c, 0, 76, 0
2, 9728, Control_c, 0, 64, 53
2, 9743, Control_c, 0, 64, 0
2, 9872, Note_on_c, 0, 61, 65
2, 10109, Note_on_c, 0, 60, 62
2, 10230, Note_on_c, 0, 61, 0
2, 10303, Note_on_c, 0, 58, 69
2, 10338, Note_on_c, 0, 60, 0
2, 10529, Note_on_c, 0, 60, 69
2, 10575, Note_on_c, 0, 56, 0
2, 10592, Note_on_c, 0, 58, 0
2, 10740, Note_on_c, 0, 56, 67
2, 10828, Note_on_c, 0, 63, 0
2, 11008, Note_on_c, 0, 66, 71
2, 11062, Note_on_c, 0, 60, 0
2, 11277, Control_c, 0, 64, 40
2, 11293, Control_c, 0, 64, 64
2, 11308, Control_c, 0, 64, 70
2, 11324, Control_c, 0, 64, 75
2, 11338, Control_c, 0, 64, 80
2, 11353, Control_c, 0, 64, 85
2, 11369, Control_c, 0, 64, 89
2, 11384, Control_c, 0, 64, 92
2, 11398, Control_c, 0, 64, 96
2, 11414, Control_c, 0, 64, 98
2, 11429, Control_c, 0, 64, 98
2, 11466, Note_on_c, 0, 68, 0
2, 11482, Control_c, 0, 64, 99
2, 11509, Note_on_c, 0, 72, 0
2, 11543, Control_c, 0, 64, 98
2, 11574, Control_c, 0, 64, 98
2, 11634, Control_c, 0, 64, 97
2, 11648, Note_on_c, 0, 64, 77
2, 11650, Control_c, 0, 64, 96
2, 11665, Control_c, 0, 64, 95
2, 11679, Control_c, 0, 64, 93
2, 11695, Control_c, 0, 64, 93
2, 11710, Control_c, 0, 64, 92
2, 11725, Control_c, 0, 64, 92
2, 11740, Control_c, 0, 64, 90
2, 11755, Control_c, 0, 64, 88
2, 11771, Control_c, 0, 64, 85
2, 11774, Note_on_c, 0, 66, 0
2, 11786, Control_c, 0, 64, 80
2, 11802, Control_c, 0, 64, 73
2, 11818, Control_c, 0, 64, 66
2, 11832, Control_c, 0, 64, 52
2, 11848, Control_c, 0, 64, 24
2, 11863, Control_c, 0, 64, 0
2, 11969, Note_on_c, 0, 80, 83
2, 11979, Note_on_c, 0, 72, 71
2, 11982, Note_on_c, 0, 63, 63
2, 11984, Note_on_c, 0, 68, 67
2, 12024, Note_on_c, 0, 64, 0
2, 12094, Note_on_c, 0, 75, 0
2, 12197, Control_c, 0, 64, 60
2, 12220, Control_c, 0, 64, 69
2, 12235, Control_c, 0, 64, 77
2, 12250, Control_c, 0, 64, 87
2, 12265, Control_c, 0, 64, 95
2, 12280, Control_c, 0, 64, 100
2, 12296, Control_c, 0, 64, 100
2, 12327, Control_c, 0, 64, 100
2, 12355, Note_on_c, 0, 68, 0
2, 12372, Control_c, 0, 64, 100
2, 12418, Control_c, 0, 64, 100
2, 12433, Control_c, 0, 64, 99
2, 12448, Control_c, 0, 64, 98
2, 12463, Control_c, 0, 64, 98
2, 12478, Control_c, 0, 64, 97
2, 12494, Control_c, 0, 64, 97
2, 12509, Control_c, 0, 64, 96
2, 12524, Control_c, 0, 64, 95
2, 12539, Control_c, 0, 64, 94
2, 12554, Control_c, 0, 64, 93
2, 12569, Control_c, 0, 64, 92
2, 12584, Control_c, 0, 64, 91
2, 12594, Note_on_c, 0, 73, 76
2, 12599, Control_c, 0, 64, 88
2, 12604, Note_on_c, 0, 69, 60
2, 12607, Note_on_c, 0, 64, 56
2, 12615, Control_c, 0, 64, 83
2, 12631, Control_c, 0, 64, 74
2, 12646, Note_on_c, 0, 72, 0
2, 12647, Control_c, 0, 64, 63
2, 12662, Control_c, 0, 64, 0
2, 12675, Note_on_c, 0, 63, 0
2, 12867, Note_on_c, 0, 72, 71
2, 12999, Note_on_c, 0, 80, 0
2, 13002, Note_on_c, 0, 73, 0
2, 13115, Note_on_c, 0, 73, 75
2, 13226, Note_on_c, 0, 72, 0
2, 13340, Note_on_c, 0, 76, 75
2, 13343, Note_on_c, 0, 73, 0
2, 13632, Note_on_c, 0, 81, 75
2, 13828, Note_on_c, 0, 69, 0
2, 13833, Control_c, 0, 64, 57
2, 13840, Note_on_c, 0, 76, 0
2, 13849, Control_c, 0, 64, 67
2, 13863, Control_c, 0, 64, 75
2, 13878, Control_c, 0, 64, 86
2, 13894, Control_c, 0, 64, 102
2, 13909, Control_c, 0, 64, 127
2, 13984, Control_c, 0, 64, 123
2, 13999, Control_c, 0, 64, 121
2, 14015, Control_c, 0, 64, 119
2, 14030, Control_c, 0, 64, 116
2, 14046, Control_c, 0, 64, 113
2, 14060, Control_c, 0, 64, 109
2, 14075, Control_c, 0, 64, 105
2, 14091, Control_c, 0, 64, 101
2, 14106, Control_c, 0, 64, 100
2, 14121, Control_c, 0, 64, 99
2, 14137, Control_c, 0, 64, 98
2, 14152, Control_c, 0, 64, 97
2, 14167, Control_c, 0, 64, 94
2, 14182, Control_c, 0, 64, 91
2, 14197, Control_c, 0, 64, 87
2, 14210, Note_on_c, 0, 54, 45
2, 14213, Control_c, 0, 64, 82
2, 14216, Note_on_c, 0, 69, 51
2, 14222, Note_on_c, 0, 63, 47
2, 14228, Control_c, 0, 64, 74
2, 14244, Control_c, 0, 64, 64
2, 14259, Control_c, 0, 64, 39
2, 14274, Control_c, 0, 64, 0
2, 14329, Note_on_c, 0, 64, 0
2, 14359, Note_on_c, 0, 56, 0
2, 14487, Control_c, 0, 64, 33
2, 14497, Note_on_c, 0, 80, 64
2, 14502, Control_c, 0, 64, 59
2, 14525, Control_c, 0, 64, 66
2, 14540, Control_c, 0, 64, 70
2, 14555, Control_c, 0, 64, 77
2, 14571, Control_c, 0, 64, 81
2, 14586, Control_c, 0, 64, 85
2, 14601, Control_c, 0, 64, 86
2, 14631, Control_c, 0, 64, 85
2, 14748, Note_on_c, 0, 78, 68
2, 14773, Note_on_c, 0, 81, 0
2, 14802, Note_on_c, 0, 80, 0
2, 14844, Control_c, 0, 64, 85
2, 14859, Control_c, 0, 64, 84
2, 14874, Control_c, 0, 64, 84
2, 14890, Control_c, 0, 64, 83
2, 14904, Control_c, 0, 64, 83
2, 14919, Control_c, 0, 64, 82
2, 14935, Control_c, 0, 64, 81
2, 14950, Control_c, 0, 64, 81
2, 14953, Note_on_c, 0, 78, 0
2, 14966, Control_c, 0, 64, 80
2, 14971, Note_on_c, 0, 76, 62
2, 15026, Control_c, 0, 64, 79
2, 15041, Control_c, 0, 64, 79
2, 15057, Control_c, 0, 64, 78
2, 15072, Control_c, 0, 64, 77
2, 15088, Control_c, 0, 64, 76
2, 15103, Control_c, 0, 64, 76
2, 15179, Control_c, 0, 64, 75
2, 15182, Note_on_c, 0, 75, 70
2, 15210, Control_c, 0, 64, 75
2, 15225, Control_c, 0, 64, 74
2, 15240, Control_c, 0, 64, 73
2, 15255, Control_c, 0, 64, 73
2, 15265, Note_on_c, 0, 76, 0
2, 15270, Control_c, 0, 64, 72
2, 15293, Control_c, 0, 64, 71
2, 15308, Control_c, 0, 64, 71
2, 15324, Control_c, 0, 64, 70
2, 15338, Control_c, 0, 64, 69
2, 15353, Control_c, 0, 64, 68
2, 15369, Control_c, 0, 64, 68
2, 15384, Control_c, 0, 64, 67
2, 15399, Control_c, 0, 64, 67
2, 15405, Note_on_c, 0, 73, 67
2, 15414, Control_c, 0, 64, 66
2, 15429, Control_c, 0, 64, 66
2, 15460, Control_c, 0, 64, 65
2, 15469, Note_on_c, 0, 75, 0
2, 15490, Control_c, 0, 64, 65
2, 15505, Control_c, 0, 64, 64
2, 15536, Control_c, 0, 64, 64
2, 15566, Control_c, 0, 64, 63
2, 15581, Control_c, 0, 64, 63
2, 15596, Control_c, 0, 64, 62
2, 15612, Control_c, 0, 64, 62
2, 15626, Control_c, 0, 64, 61
2, 15641, Control_c, 0, 64, 58
2, 15657, Control_c, 0, 64, 56
2, 15659, Note_on_c, 0, 68, 53
2, 15661, Note_on_c, 0, 71, 60
2, 15671, Control_c, 0, 64, 52
2, 15687, Control_c, 0, 64, 47
2, 15702, Control_c, 0, 64, 40
2, 15714, Note_on_c, 0, 69, 0
2, 15717, Control_c, 0, 64, 29
2, 15733, Control_c, 0, 64, 12
2, 15748, Control_c, 0, 64, 0
2, 15833, Note_on_c, 0, 73, 0
2, 15902, Note_on_c, 0, 69, 62
2, 15979, Note_on_c, 0, 71, 0
2, 16140, Note_on_c, 0, 71, 61
2, 16218, Note_on_c, 0, 69, 0
2, 16369, Note_on_c, 0, 75, 74
2, 16395, Control_c, 0, 64, 24
2, 16411, Control_c, 0, 64, 41
2, 16426, Control_c, 0, 64, 46
2, 16440, Control_c, 0, 64, 48
2, 16454, Note_on_c, 0, 68, 0
2, 16502, Control_c, 0, 64, 48
2, 16516, Control_c, 0, 64, 49
2, 16532, Control_c, 0, 64, 49
2, 16547, Control_c, 0, 64, 51
2, 16562, Control_c, 0, 64, 53
2, 16578, Control_c, 0, 64, 54
2, 16592, Control_c, 0, 64, 56
2, 16608, Control_c, 0, 64, 58
2, 16623, Control_c, 0, 64, 60
2, 16637, Control_c, 0, 64, 62
2, 16653, Control_c, 0, 64, 65
2, 16657, Note_on_c, 0, 80, 75
2, 16668, Control_c, 0, 64, 67
2, 16684, Control_c, 0, 64, 70
2, 16699, Control_c, 0, 64, 73
2, 16715, Control_c, 0, 64, 77
2, 16731, Control_c, 0, 64, 81
2, 16745, Control_c, 0, 64, 84
2, 16745, Note_on_c, 0, 71, 0
2, 16760, Control_c, 0, 64, 87
2, 16766, Note_on_c, 0, 75, 0
2, 16776, Control_c, 0, 64, 87
2, 16890, Control_c, 0, 64, 87
2, 16905, Control_c, 0, 64, 86
2, 16920, Control_c, 0, 64, 85
2, 16935, Control_c, 0, 64, 84
2, 16965, Control_c, 0, 64, 84
2, 16980, Control_c, 0, 64, 83
2, 16995, Control_c, 0, 64, 82
2, 17011, Control_c, 0, 64, 81
2, 17026, Control_c, 0, 64, 80
2, 17041, Control_c, 0, 64, 80
2, 17071, Control_c, 0, 64, 79
2, 17087, Control_c, 0, 64, 78
2, 17102, Control_c, 0, 64, 77
2, 17117, Control_c, 0, 64, 76
2, 17133, Control_c, 0, 64, 75
2, 17148, Control_c, 0, 64, 73
2, 17162, Control_c, 0, 64, 70
2, 17178, Control_c, 0, 64, 66
2, 17190, Note_on_c, 0, 61, 49
2, 17191, Note_on_c, 0, 68, 62
2, 17193, Control_c, 0, 64, 59
2, 17197, Note_on_c, 0, 52, 41
2, 17209, Control_c, 0, 64, 35
2, 17224, Control_c, 0, 64, 0
2, 17298, Note_on_c, 0, 54, 0
2, 17298, Note_on_c, 0, 63, 0
2, 17435, Control_c, 0, 64, 8
2, 17451, Control_c, 0, 64, 56
2, 17466, Control_c, 0, 64, 65
2, 17481, Control_c, 0, 64, 70
2, 17497, Control_c, 0, 64, 75
2, 17497, Note_on_c, 0, 78, 62
2, 17512, Control_c, 0, 64, 79
2, 17528, Control_c, 0, 64, 82
2, 17543, Control_c, 0, 64, 84
2, 17558, Control_c, 0, 64, 85
2, 17573, Note_on_c, 0, 80, 0
2, 17612, Control_c, 0, 64, 85
2, 17627, Control_c, 0, 64, 86
2, 17642, Control_c, 0, 64, 87
2, 17653, Note_on_c, 0, 78, 0
2, 17759, Note_on_c, 0, 76, 59
2, 17778, Control_c, 0, 64, 86
2, 17793, Control_c, 0, 64, 86
2, 17809, Control_c, 0, 64, 85
2, 17839, Control_c, 0, 64, 85
2, 17854, Control_c, 0, 64, 84
2, 17869, Control_c, 0, 64, 83
2, 17885, Control_c, 0, 64, 82
2, 17900, Control_c, 0, 64, 81
2, 17930, Control_c, 0, 64, 81
2, 17960, Control_c, 0, 64, 80
2, 17973, Note_on_c, 0, 75, 65
2, 17976, Control_c, 0, 64, 80
2, 17990, Control_c, 0, 64, 79
2, 18006, Control_c, 0, 64, 79
2, 18021, Control_c, 0, 64, 78
2, 18036, Control_c, 0, 64, 78
2, 18081, Control_c, 0, 64, 77
2, 18173, Control_c, 0, 64, 77
2, 18194, Note_on_c, 0, 73, 63
2, 18202, Control_c, 0, 64, 76
2, 18218, Control_c, 0, 64, 76
2, 18233, Control_c, 0, 64, 75
2, 18249, Control_c, 0, 64, 74
2, 18264, Control_c, 0, 64, 74
2, 18279, Control_c, 0, 64, 73
2, 18331, Note_on_c, 0, 76, 0
2, 18364, Control_c, 0, 64, 73
2, 18423, Note_on_c, 0, 71, 54
2, 18425, Control_c, 0, 64, 72
2, 18426, Note_on_c, 0, 75, 0
2, 18455, Control_c, 0, 64, 72
2, 18469, Note_on_c, 0, 68, 0
2, 18486, Control_c, 0, 64, 71
2, 18501, Control_c, 0, 64, 71
2, 18515, Control_c, 0, 64, 70
2, 18531, Control_c, 0, 64, 70
2, 18546, Control_c, 0, 64, 69
2, 18560, Control_c, 0, 64, 68
2, 18576, Control_c, 0, 64, 68
2, 18591, Control_c, 0, 64, 67
2, 18604, Note_on_c, 0, 73, 0
2, 18607, Control_c, 0, 64, 66
2, 18622, Control_c, 0, 64, 66
2, 18637, Control_c, 0, 64, 65
2, 18652, Control_c, 0, 64, 64
2, 18660, Note_on_c, 0, 69, 50
2, 18667, Control_c, 0, 64, 61
2, 18667, Note_on_c, 0, 66, 44
2, 18682, Control_c, 0, 64, 55
2, 18694, Note_on_c, 0, 71, 0
2, 18698, Control_c, 0, 64, 42
2, 18713, Control_c, 0, 64, 0
2, 18887, Note_on_c, 0, 68, 56
2, 18965, Note_on_c, 0, 69, 0
2, 19132, Note_on_c, 0, 69, 46
2, 19192, Note_on_c, 0, 68, 0
2, 19361, Note_on_c, 0, 73, 56
2, 19662, Note_on_c, 0, 78, 62
2, 19679, Control_c, 0, 64, 49
2, 19694, Control_c, 0, 64, 63
2, 19709, Control_c, 0, 64, 67
2, 19725, Control_c, 0, 64, 71
2, 19739, Control_c, 0, 64, 75
2, 19747, Note_on_c, 0, 69, 0
2, 19754, Control_c, 0, 64, 80
2, 19770, Control_c, 0, 64, 86
2, 19785, Control_c, 0, 64, 93
2, 19800, Control_c, 0, 64, 104
2, 19807, Note_on_c, 0, 73, 0
2, 19815, Control_c, 0, 64, 112
2, 19826, Note_on_c, 0, 61, 0
2, 19830, Control_c, 0, 64, 113
2, 19846, Control_c, 0, 64, 113
2, 19854, Note_on_c, 0, 52, 0
2, 19860, Note_on_c, 0, 66, 0
2, 19861, Control_c, 0, 64, 112
2, 19959, Control_c, 0, 64, 111
2, 19975, Control_c, 0, 64, 110
2, 19990, Control_c, 0, 64, 110
2, 20037, Control_c, 0, 64, 109
2, 20053, Control_c, 0, 64, 108
2, 20068, Control_c, 0, 64, 105
2, 20084, Control_c, 0, 64, 103
2, 20098, Control_c, 0, 64, 101
2, 20113, Control_c, 0, 64, 100
2, 20129, Control_c, 0, 64, 99
2, 20144, Control_c, 0, 64, 97
2, 20159, Control_c, 0, 64, 94
2, 20174, Control_c, 0, 64, 89
2, 20178, Note_on_c, 0, 66, 55
2, 20189, Control_c, 0, 64, 81
2, 20191, Note_on_c, 0, 51, 43
2, 20193, Note_on_c, 0, 59, 46
2, 20205, Control_c, 0, 64, 71
2, 20220, Control_c, 0, 64, 54
2, 20235, Control_c, 0, 64, 0
2, 20448, Control_c, 0, 64, 53
2, 20462, Control_c, 0, 64, 64
2, 20477, Control_c, 0, 64, 69
2, 20488, Note_on_c, 0, 76, 55
2, 20493, Control_c, 0, 64, 74
2, 20508, Control_c, 0, 64, 79
2, 20524, Control_c, 0, 64, 84
2, 20539, Control_c, 0, 64, 91
2, 20554, Control_c, 0, 64, 95
2, 20570, Control_c, 0, 64, 97
2, 20698, Control_c, 0, 64, 97
2, 20717, Note_on_c, 0, 75, 61
2, 20729, Control_c, 0, 64, 96
2, 20731, Note_on_c, 0, 78, 0
2, 20749, Note_on_c, 0, 76, 0
2, 20789, Control_c, 0, 64, 96
2, 20820, Control_c, 0, 64, 95
2, 20851, Control_c, 0, 64, 95
2, 20881, Control_c, 0, 64, 94
2, 20911, Control_c, 0, 64, 94
2, 20942, Note_on_c, 0, 73, 56
2, 20959, Note_on_c, 0, 75, 0
2, 20984, Note_on_c, 0, 73, 0
2, 21033, Control_c, 0, 64, 93
2, 21109, Control_c, 0, 64, 93
2, 21166, Note_on_c, 0, 71, 54
2, 21215, Note_on_c, 0, 66, 0
2, 21216, Control_c, 0, 64, 92
2, 21246, Control_c, 0, 64, 92
2, 21261, Control_c, 0, 64, 91
2, 21276, Control_c, 0, 64, 91
2, 21292, Control_c, 0, 64, 90
2, 21306, Control_c, 0, 64, 89
2, 21321, Control_c, 0, 64, 88
2, 21337, Control_c, 0, 64, 88
2, 21352, Control_c, 0, 64, 87
2, 21368, Control_c, 0, 64, 87
2, 21376, Note_on_c, 0, 51, 0
2, 21382, Control_c, 0, 64, 86
2, 21386, Note_on_c, 0, 69, 54
2, 21397, Control_c, 0, 64, 86
2, 21413, Control_c, 0, 64, 85
2, 21435, Control_c, 0, 64, 85
2, 21451, Control_c, 0, 64, 84
2, 21466, Control_c, 0, 64, 83
2, 21481, Control_c, 0, 64, 83
2, 21497, Control_c, 0, 64, 82
2, 21511, Control_c, 0, 64, 81
2, 21527, Control_c, 0, 64, 81
2, 21541, Control_c, 0, 64, 80
2, 21550, Note_on_c, 0, 71, 0
2, 21556, Control_c, 0, 64, 80
2, 21572, Control_c, 0, 64, 79
2, 21587, Control_c, 0, 64, 79
2, 21602, Control_c, 0, 64, 78
2, 21607, Note_on_c, 0, 52, 37
2, 21618, Control_c, 0, 64, 76
2, 21633, Control_c, 0, 64, 72
2, 21642, Note_on_c, 0, 64, 43
2, 21642, Note_on_c, 0, 68, 52
2, 21649, Control_c, 0, 64, 66
2, 21664, Control_c, 0, 64, 53
2, 21679, Control_c, 0, 64, 0
2, 21765, Note_on_c, 0, 69, 0
2, 21874, Note_on_c, 0, 57, 44
2, 21876, Control_c, 0, 64, 47
2, 21892, Control_c, 0, 64, 59
2, 21907, Control_c, 0, 64, 63
2, 21922, Control_c, 0, 64, 63
2, 21997, Control_c, 0, 64, 63
2, 22044, Control_c, 0, 64, 62
2, 22073, Control_c, 0, 64, 62
2, 22104, Control_c, 0, 64, 61
2, 22113, Note_on_c, 0, 56, 56
2, 22119, Control_c, 0, 64, 61
2, 22125, Note_on_c, 0, 57, 0
2, 22150, Control_c, 0, 64, 60
2, 22180, Control_c, 0, 64, 60
2, 22249, Control_c, 0, 64, 59
2, 22264, Control_c, 0, 64, 59
2, 22278, Control_c, 0, 64, 58
2, 22294, Control_c, 0, 64, 57
2, 22309, Control_c, 0, 64, 57
2, 22325, Control_c, 0, 64, 56
2, 22340, Control_c, 0, 64, 56
2, 22342, Note_on_c, 0, 54, 61
2, 22354, Control_c, 0, 64, 55
2, 22370, Control_c, 0, 64, 54
2, 22385, Control_c, 0, 64, 53
2, 22395, Note_on_c, 0, 56, 0
2, 22400, Control_c, 0, 64, 51
2, 22416, Control_c, 0, 64, 49
2, 22431, Control_c, 0, 64, 47
2, 22447, Control_c, 0, 64, 46
2, 22462, Control_c, 0, 64, 44
2, 22477, Control_c, 0, 64, 44
2, 22522, Control_c, 0, 64, 43
2, 22553, Control_c, 0, 64, 43
2, 22565, Note_on_c, 0, 56, 60
2, 22584, Control_c, 0, 64, 42
2, 22594, Note_on_c, 0, 52, 0
2, 22599, Control_c, 0, 64, 41
2, 22629, Control_c, 0, 64, 40
2, 22660, Control_c, 0, 64, 40
2, 22675, Control_c, 0, 64, 39
2, 22705, Control_c, 0, 64, 38
2, 22718, Note_on_c, 0, 54, 0
2, 22720, Control_c, 0, 64, 37
2, 22736, Control_c, 0, 64, 36
2, 22751, Control_c, 0, 64, 33
2, 22767, Control_c, 0, 64, 28
2, 22782, Control_c, 0, 64, 20
2, 22788, Note_on_c, 0, 52, 61
2, 22797, Control_c, 0, 64, 8
2, 22813, Control_c, 0, 64, 0
2, 22852, Note_on_c, 0, 59, 0
2, 22864, Note_on_c, 0, 64, 0
2, 22877, Note_on_c, 0, 56, 0
2, 23113, Note_on_c, 0, 64, 62
2, 23791, Note_on_c, 0, 66, 62
2, 23813, Note_on_c, 0, 63, 56
2, 23848, Note_on_c, 0, 64, 0
2, 23919, Note_on_c, 0, 68, 0
2, 24076, Note_on_c, 0, 61, 52
2, 24088, Note_on_c, 0, 69, 64
2, 24121, Note_on_c, 0, 63, 0
2, 24170, Note_on_c, 0, 66, 0
2, 24197, Control_c, 0, 64, 20
2, 24213, Control_c, 0, 64, 36
2, 24228, Control_c, 0, 64, 48
2, 24242, Control_c, 0, 64, 57
2, 24258, Control_c, 0, 64, 62
2, 24273, Control_c, 0, 64, 65
2, 24289, Control_c, 0, 64, 67
2, 24304, Control_c, 0, 64, 69
2, 24318, Control_c, 0, 64, 71
2, 24327, Note_on_c, 0, 52, 0
2, 24334, Control_c, 0, 64, 75
2, 24349, Control_c, 0, 64, 78
2, 24365, Control_c, 0, 64, 80
2, 24380, Control_c, 0, 64, 81
2, 24486, Control_c, 0, 64, 80
2, 24509, Control_c, 0, 64, 79
2, 24525, Control_c, 0, 64, 79
2, 24539, Control_c, 0, 64, 78
2, 24554, Control_c, 0, 64, 78
2, 24570, Control_c, 0, 64, 77
2, 24585, Control_c, 0, 64, 76
2, 24594, Note_on_c, 0, 60, 50
2, 24599, Control_c, 0, 64, 74
2, 24601, Note_on_c, 0, 51, 51
2, 24615, Control_c, 0, 64, 70
2, 24630, Control_c, 0, 64, 65
2, 24646, Control_c, 0, 64, 55
2, 24660, Control_c, 0, 64, 27
2, 24675, Control_c, 0, 64, 0
2, 24740, Note_on_c, 0, 61, 0
2, 24831, Note_on_c, 0, 68, 62
2, 25071, Note_on_c, 0, 69, 0
2, 25075, Note_on_c, 0, 66, 64
2, 25307, Note_on_c, 0, 64, 51
2, 25321, Note_on_c, 0, 68, 0
2, 25383, Note_on_c, 0, 66, 0
2, 25526, Note_on_c, 0, 66, 62
2, 25566, Control_c, 0, 64, 28
2, 25580, Control_c, 0, 64, 56
2, 25583, Note_on_c, 0, 64, 0
2, 25595, Control_c, 0, 64, 63
2, 25611, Control_c, 0, 64, 66
2, 25626, Control_c, 0, 64, 68
2, 25641, Control_c, 0, 64, 70
2, 25657, Control_c, 0, 64, 71
2, 25672, Control_c, 0, 64, 72
2, 25688, Control_c, 0, 64, 73
2, 25702, Control_c, 0, 64, 73
2, 25762, Note_on_c, 0, 63, 63
2, 25870, Control_c, 0, 64, 73
2, 25901, Control_c, 0, 64, 72
2, 25908, Note_on_c, 0, 66, 0
2, 25916, Control_c, 0, 64, 72
2, 25931, Control_c, 0, 64, 71
2, 25946, Control_c, 0, 64, 71
2, 25961, Control_c, 0, 64, 70
2, 25977, Control_c, 0, 64, 69
2, 25992, Control_c, 0, 64, 68
2, 26007, Control_c, 0, 64, 67
2, 26007, Note_on_c, 0, 56, 59
2, 26012, Note_on_c, 0, 75, 72
2, 26022, Control_c, 0, 64, 65
2, 26045, Control_c, 0, 64, 61
2, 26060, Control_c, 0, 64, 50
2, 26075, Control_c, 0, 64, 0
2, 26228, Note_on_c, 0, 51, 0
2, 26247, Note_on_c, 0, 73, 72
2, 26287, Control_c, 0, 64, 42
2, 26302, Control_c, 0, 64, 55
2, 26317, Control_c, 0, 64, 62
2, 26333, Control_c, 0, 64, 64
2, 26347, Control_c, 0, 64, 64
2, 26482, Note_on_c, 0, 72, 72
2, 26669, Note_on_c, 0, 63, 0
2, 26684, Control_c, 0, 64, 65
2, 26700, Note_on_c, 0, 70, 75
2, 26705, Note_on_c, 0, 54, 60
2, 26713, Note_on_c, 0, 73, 0
2, 26729, Control_c, 0, 64, 65
2, 26734, Note_on_c, 0, 56, 0
2, 26746, Note_on_c, 0, 75, 0
2, 26774, Control_c, 0, 64, 66
2, 26809, Note_on_c, 0, 72, 0
2, 26904, Control_c, 0, 64, 64
2, 26919, Control_c, 0, 64, 58
2, 26935, Control_c, 0, 64, 33
2, 26947, Note_on_c, 0, 56, 63
2, 26950, Control_c, 0, 64, 0
2, 26952, Note_on_c, 0, 72, 73
2, 27026, Note_on_c, 0, 70, 0
2, 27057, Control_c, 0, 64, 46
2, 27071, Control_c, 0, 64, 62
2, 27087, Control_c, 0, 64, 69
2, 27091, Note_on_c, 0, 54, 0
2, 27102, Control_c, 0, 64, 75
2, 27116, Control_c, 0, 64, 82
2, 27132, Control_c, 0, 64, 89
2, 27147, Control_c, 0, 64, 97
2, 27162, Control_c, 0, 64, 100
2, 27178, Control_c, 0, 64, 101
2, 27182, Note_on_c, 0, 68, 77
2, 27183, Note_on_c, 0, 72, 0
2, 27192, Control_c, 0, 64, 100
2, 27238, Control_c, 0, 64, 101
2, 27299, Control_c, 0, 64, 100
2, 27313, Control_c, 0, 64, 100
2, 27360, Control_c, 0, 64, 99
2, 27376, Control_c, 0, 64, 99
2, 27391, Control_c, 0, 64, 98
2, 27407, Control_c, 0, 64, 97
2, 27421, Control_c, 0, 64, 96
2, 27436, Control_c, 0, 64, 93
2, 27452, Control_c, 0, 64, 86
2, 27467, Control_c, 0, 64, 76
2, 27471, Note_on_c, 0, 81, 80
2, 27479, Note_on_c, 0, 49, 63
2, 27482, Control_c, 0, 64, 65
2, 27497, Control_c, 0, 64, 34
2, 27512, Control_c, 0, 64, 0
2, 27609, Note_on_c, 0, 56, 0
2, 27672, Control_c, 0, 64, 43
2, 27688, Control_c, 0, 64, 58
2, 27702, Control_c, 0, 64, 63
2, 27717, Control_c, 0, 64, 65
2, 27733, Control_c, 0, 64, 66
2, 27748, Control_c, 0, 64, 68
2, 27763, Control_c, 0, 64, 71
2, 27765, Note_on_c, 0, 80, 79
2, 27778, Control_c, 0, 64, 75
2, 27793, Control_c, 0, 64, 80
2, 27809, Control_c, 0, 64, 84
2, 27824, Control_c, 0, 64, 88
2, 27839, Control_c, 0, 64, 89
2, 27889, Note_on_c, 0, 60, 0
2, 27900, Control_c, 0, 64, 90
2, 27976, Control_c, 0, 64, 89
2, 27987, Note_on_c, 0, 78, 77
2, 28066, Note_on_c, 0, 68, 0
2, 28097, Control_c, 0, 64, 89
2, 28157, Control_c, 0, 64, 88
2, 28173, Control_c, 0, 64, 83
2, 28189, Control_c, 0, 64, 72
2, 28193, Note_on_c, 0, 61, 68
2, 28205, Control_c, 0, 64, 37
2, 28214, Note_on_c, 0, 76, 71
2, 28216, Note_on_c, 0, 80, 0
2, 28220, Control_c, 0, 64, 0
2, 28253, Note_on_c, 0, 81, 0
2, 28290, Note_on_c, 0, 78, 0
2, 28311, Control_c, 0, 64, 56
2, 28327, Control_c, 0, 64, 65
2, 28349, Control_c, 0, 64, 69
2, 28365, Control_c, 0, 64, 73
2, 28380, Control_c, 0, 64, 76
2, 28394, Control_c, 0, 64, 79
2, 28397, Note_on_c, 0, 61, 0
2, 28410, Control_c, 0, 64, 80
2, 28425, Control_c, 0, 64, 78
2, 28440, Control_c, 0, 64, 72
2, 28456, Control_c, 0, 64, 63
2, 28463, Note_on_c, 0, 63, 73
2, 28471, Control_c, 0, 64, 0
2, 28476, Note_on_c, 0, 78, 69
2, 28535, Note_on_c, 0, 76, 0
2, 28593, Control_c, 0, 64, 57
2, 28608, Control_c, 0, 64, 67
2, 28623, Control_c, 0, 64, 74
2, 28638, Control_c, 0, 64, 82
2, 28654, Control_c, 0, 64, 89
2, 28669, Control_c, 0, 64, 95
2, 28683, Control_c, 0, 64, 98
2, 28696, Note_on_c, 0, 75, 75
2, 28714, Control_c, 0, 64, 97
2, 28714, Note_on_c, 0, 78, 0
2, 28730, Control_c, 0, 64, 97
2, 28741, Note_on_c, 0, 63, 0
2, 28790, Control_c, 0, 64, 96
2, 28806, Control_c, 0, 64, 96
2, 28821, Control_c, 0, 64, 95
2, 28867, Control_c, 0, 64, 95
2, 28881, Control_c, 0, 64, 92
2, 28897, Control_c, 0, 64, 86
2, 28912, Control_c, 0, 64, 75
2, 28927, Control_c, 0, 64, 64
2, 28939, Note_on_c, 0, 76, 63
2, 28942, Control_c, 0, 64, 0
2, 28959, Note_on_c, 0, 61, 65
2, 28971, Note_on_c, 0, 75, 0
2, 29065, Control_c, 0, 64, 39
2, 29080, Control_c, 0, 64, 53
2, 29096, Control_c, 0, 64, 59
2, 29117, Control_c, 0, 64, 62
2, 29133, Control_c, 0, 64, 63
2, 29148, Control_c, 0, 64, 64
2, 29198, Note_on_c, 0, 75, 68
2, 29299, Control_c, 0, 64, 65
2, 29405, Control_c, 0, 64, 64
2, 29426, Note_on_c, 0, 73, 66
2, 29512, Control_c, 0, 64, 64
2, 29633, Control_c, 0, 64, 63
2, 29640, Note_on_c, 0, 71, 59
2, 29648, Control_c, 0, 64, 61
2, 29655, Note_on_c, 0, 51, 62
2, 29663, Control_c, 0, 64, 56
2, 29678, Control_c, 0, 64, 45
2, 29690, Note_on_c, 0, 75, 0
2, 29694, Control_c, 0, 64, 15
2, 29709, Control_c, 0, 64, 0
2, 29716, Note_on_c, 0, 73, 0
2, 29762, Note_on_c, 0, 49, 0
2, 29912, Note_on_c, 0, 52, 59
2, 29912, Note_on_c, 0, 73, 67
2, 29959, Note_on_c, 0, 51, 0
2, 30019, Note_on_c, 0, 71, 0
2, 30098, Control_c, 0, 64, 27
2, 30113, Control_c, 0, 64, 56
2, 30129, Control_c, 0, 64, 64
2, 30144, Control_c, 0, 64, 67
2, 30145, Note_on_c, 0, 70, 61
2, 30158, Control_c, 0, 64, 70
2, 30174, Control_c, 0, 64, 73
2, 30189, Control_c, 0, 64, 75
2, 30205, Control_c, 0, 64, 76
2, 30271, Note_on_c, 0, 61, 0
2, 30315, Control_c, 0, 64, 75
2, 30330, Control_c, 0, 64, 75
2, 30344, Control_c, 0, 64, 74
2, 30360, Control_c, 0, 64, 74
2, 30375, Control_c, 0, 64, 72
2, 30391, Control_c, 0, 64, 69
2, 30400, Note_on_c, 0, 67, 65
2, 30406, Control_c, 0, 64, 64
2, 30415, Note_on_c, 0, 46, 54
2, 30421, Control_c, 0, 64, 47
2, 30437, Control_c, 0, 64, 0
2, 30477, Note_on_c, 0, 52, 0
2, 30588, Control_c, 0, 64, 39
2, 30593, Note_on_c, 0, 73, 0
2, 30604, Control_c, 0, 64, 60
2, 30617, Note_on_c, 0, 70, 0
2, 30618, Control_c, 0, 64, 67
2, 30634, Control_c, 0, 64, 71
2, 30651, Note_on_c, 0, 51, 60
2, 30657, Control_c, 0, 64, 75
2, 30673, Control_c, 0, 64, 77
2, 30688, Control_c, 0, 64, 78
2, 30779, Control_c, 0, 64, 77
2, 30824, Control_c, 0, 64, 77
2, 30855, Control_c, 0, 64, 76
2, 30871, Control_c, 0, 64, 75
2, 30871, Note_on_c, 0, 49, 61
2, 30888, Control_c, 0, 64, 75
2, 30904, Control_c, 0, 64, 74
2, 30933, Control_c, 0, 64, 75
2, 31093, Note_on_c, 0, 68, 65
2, 31093, Note_on_c, 0, 75, 72
2, 31097, Note_on_c, 0, 47, 62
2, 31117, Note_on_c, 0, 67, 0
2, 31146, Control_c, 0, 64, 75
2, 31175, Note_on_c, 0, 49, 0
2, 31191, Control_c, 0, 64, 75
2, 31192, Note_on_c, 0, 76, 0
2, 31246, Note_on_c, 0, 51, 0
2, 31268, Control_c, 0, 64, 75
2, 31298, Control_c, 0, 64, 74
2, 31313, Control_c, 0, 64, 68
2, 31328, Control_c, 0, 64, 56
2, 31344, Control_c, 0, 64, 0
2, 31346, Note_on_c, 0, 70, 68
2, 31350, Note_on_c, 0, 73, 79
2, 31355, Note_on_c, 0, 49, 66
2, 31369, Note_on_c, 0, 68, 0
2, 31375, Note_on_c, 0, 46, 0
2, 31381, Note_on_c, 0, 75, 0
2, 31432, Note_on_c, 0, 47, 0
2, 31489, Control_c, 0, 64, 51
2, 31504, Control_c, 0, 64, 63
2, 31519, Control_c, 0, 64, 68
2, 31534, Control_c, 0, 64, 72
2, 31550, Control_c, 0, 64, 75
2, 31565, Control_c, 0, 64, 76
2, 31576, Note_on_c, 0, 46, 75
2, 31598, Note_on_c, 0, 73, 0
2, 31671, Control_c, 0, 64, 75
2, 31686, Control_c, 0, 64, 74
2, 31717, Control_c, 0, 64, 74
2, 31777, Control_c, 0, 64, 73
2, 31793, Control_c, 0, 64, 72
2, 31808, Control_c, 0, 64, 70
2, 31822, Note_on_c, 0, 73, 72
2, 31824, Control_c, 0, 64, 67
2, 31829, Note_on_c, 0, 63, 65
2, 31831, Note_on_c, 0, 43, 61
2, 31838, Control_c, 0, 64, 63
2, 31853, Control_c, 0, 64, 48
2, 31864, Note_on_c, 0, 49, 0
2, 31869, Control_c, 0, 64, 0
2, 31940, Note_on_c, 0, 70, 0
2, 32069, Note_on_c, 0, 47, 66
2, 32091, Note_on_c, 0, 46, 0
2, 32297, Note_on_c, 0, 46, 71
2, 32392, Note_on_c, 0, 47, 0
2, 32523, Note_on_c, 0, 44, 62
2, 32525, Note_on_c, 0, 65, 60
2, 32525, Note_on_c, 0, 71, 62
2, 32576, Note_on_c, 0, 46, 0
2, 32606, Note_on_c, 0, 63, 0
2, 32625, Note_on_c, 0, 43, 0
2, 32780, Note_on_c, 0, 46, 62
2, 32782, Note_on_c, 0, 70, 66
2, 32805, Note_on_c, 0, 67, 62
2, 32811, Note_on_c, 0, 44, 0
2, 32851, Note_on_c, 0, 65, 0
2, 32892, Note_on_c, 0, 71, 0
2, 32907, Note_on_c, 0, 73, 0
2, 33037, Note_on_c, 0, 43, 56
2, 33361, Note_on_c, 0, 37, 64
2, 33452, Note_on_c, 0, 43, 0
2, 33620, Note_on_c, 0, 68, 60
2, 33638, Note_on_c, 0, 67, 0
2, 33874, Note_on_c, 0, 67, 60
2, 33957, Note_on_c, 0, 68, 0
2, 33973, Note_on_c, 0, 46, 0
2, 34081, Control_c, 0, 64, 19
2, 34092, Note_on_c, 0, 65, 61
2, 34096, Control_c, 0, 64, 32
2, 34112, Control_c, 0, 64, 41
2, 34127, Control_c, 0, 64, 47
2, 34142, Control_c, 0, 64, 51
2, 34157, Control_c, 0, 64, 55
2, 34172, Control_c, 0, 64, 57
2, 34187, Note_on_c, 0, 67, 0
2, 34188, Control_c, 0, 64, 58
2, 34203, Control_c, 0, 64, 59
2, 34233, Control_c, 0, 64, 59
2, 34264, Control_c, 0, 64, 60
2, 34279, Control_c, 0, 64, 61
2, 34294, Control_c, 0, 64, 62
2, 34310, Control_c, 0, 64, 62
2, 34323, Note_on_c, 0, 67, 63
2, 34325, Control_c, 0, 64, 63
2, 34340, Control_c, 0, 64, 64
2, 34350, Note_on_c, 0, 65, 0
2, 34353, Control_c, 0, 64, 64
2, 34368, Control_c, 0, 64, 65
2, 34383, Control_c, 0, 64, 65
2, 34399, Control_c, 0, 64, 66
2, 34414, Control_c, 0, 64, 67
2, 34429, Control_c, 0, 64, 68
2, 34444, Control_c, 0, 64, 69
2, 34459, Control_c, 0, 64, 70
2, 34475, Control_c, 0, 64, 70
2, 34497, Control_c, 0, 64, 71
2, 34554, Note_on_c, 0, 63, 63
2, 34598, Note_on_c, 0, 67, 0
2, 34609, Note_on_c, 0, 70, 0
2, 34635, Control_c, 0, 64, 70
2, 34664, Control_c, 0, 64, 70
2, 34680, Control_c, 0, 64, 69
2, 34694, Control_c, 0, 64, 69
2, 34709, Control_c, 0, 64, 68
2, 34725, Control_c, 0, 64, 68
2, 34741, Note_on_c, 0, 67, 54
2, 34757, Control_c, 0, 64, 67
2, 34787, Control_c, 0, 64, 67
2, 34802, Control_c, 0, 64, 66
2, 34817, Control_c, 0, 64, 66
2, 34819, Note_on_c, 0, 70, 74
2, 34833, Control_c, 0, 64, 65
2, 34848, Control_c, 0, 64, 65
2, 34863, Control_c, 0, 64, 64
2, 34872, Note_on_c, 0, 63, 0
2, 34878, Control_c, 0, 64, 62
2, 34893, Control_c, 0, 64, 60
2, 34908, Control_c, 0, 64, 58
2, 34922, Note_on_c, 0, 75, 75
2, 34923, Control_c, 0, 64, 55
2, 34938, Control_c, 0, 64, 54
2, 34969, Control_c, 0, 64, 54
2, 34984, Control_c, 0, 64, 53
2, 34999, Control_c, 0, 64, 52
2, 35014, Control_c, 0, 64, 51
2, 35090, Control_c, 0, 64, 52
2, 35105, Control_c, 0, 64, 54
2, 35121, Control_c, 0, 64, 56
2, 35136, Control_c, 0, 64, 58
2, 35151, Control_c, 0, 64, 60
2, 35166, Control_c, 0, 64, 62
2, 35181, Control_c, 0, 64, 63
2, 35197, Control_c, 0, 64, 65
2, 35205, Note_on_c, 0, 49, 56
2, 35212, Control_c, 0, 64, 67
2, 35227, Control_c, 0, 64, 69
2, 35243, Control_c, 0, 64, 73
2, 35265, Control_c, 0, 64, 75
2, 35281, Control_c, 0, 64, 77
2, 35287, Note_on_c, 0, 37, 0
2, 35295, Control_c, 0, 64, 78
2, 35402, Control_c, 0, 64, 77
2, 35417, Control_c, 0, 64, 77
2, 35467, Note_on_c, 0, 47, 62
2, 35478, Control_c, 0, 64, 76
2, 35493, Control_c, 0, 64, 76
2, 35499, Note_on_c, 0, 49, 0
2, 35508, Control_c, 0, 64, 75
2, 35524, Control_c, 0, 64, 75
2, 35538, Control_c, 0, 64, 74
2, 35570, Control_c, 0, 64, 74
2, 35585, Control_c, 0, 64, 73
2, 35601, Control_c, 0, 64, 73
2, 35616, Control_c, 0, 64, 72
2, 35631, Control_c, 0, 64, 71
2, 35646, Control_c, 0, 64, 71
2, 35653, Note_on_c, 0, 46, 71
2, 35661, Control_c, 0, 64, 70
2, 35677, Control_c, 0, 64, 70
2, 35692, Control_c, 0, 64, 69
2, 35707, Control_c, 0, 64, 69
2, 35722, Control_c, 0, 64, 68
2, 35726, Note_on_c, 0, 47, 0
2, 35737, Control_c, 0, 64, 67
2, 35753, Control_c, 0, 64, 66
2, 35767, Control_c, 0, 64, 65
2, 35782, Control_c, 0, 64, 64
2, 35798, Control_c, 0, 64, 63
2, 35813, Control_c, 0, 64, 63
2, 35828, Control_c, 0, 64, 62
2, 35843, Control_c, 0, 64, 61
2, 35858, Control_c, 0, 64, 60
2, 35874, Control_c, 0, 64, 59
2, 35889, Control_c, 0, 64, 58
2, 35898, Note_on_c, 0, 47, 69
2, 35901, Control_c, 0, 64, 57
2, 35901, Note_on_c, 0, 68, 69
2, 35916, Control_c, 0, 64, 56
2, 35932, Control_c, 0, 64, 54
2, 35947, Control_c, 0, 64, 52
2, 35963, Control_c, 0, 64, 48
2, 35964, Note_on_c, 0, 70, 0
2, 35969, Note_on_c, 0, 67, 0
2, 35971, Note_on_c, 0, 46, 0
2, 35977, Control_c, 0, 64, 43
2, 35992, Control_c, 0, 64, 39
2, 36008, Control_c, 0, 64, 37
2, 36031, Control_c, 0, 64, 35
2, 36047, Control_c, 0, 64, 33
2, 36061, Control_c, 0, 64, 31
2, 36076, Control_c, 0, 64, 29
2, 36092, Control_c, 0, 64, 25
2, 36106, Control_c, 0, 64, 22
2, 36122, Control_c, 0, 64, 20
2, 36127, Note_on_c, 0, 44, 71
2, 36137, Control_c, 0, 64, 18
2, 36152, Control_c, 0, 64, 16
2, 36168, Control_c, 0, 64, 15
2, 36182, Control_c, 0, 64, 14
2, 36198, Control_c, 0, 64, 12
2, 36213, Control_c, 0, 64, 10
2, 36224, Note_on_c, 0, 47, 0
2, 36228, Control_c, 0, 64, 8
2, 36244, Control_c, 0, 64, 0
2, 36414, Note_on_c, 0, 52, 68
2, 36561, Note_on_c, 0, 44, 0
2, 36657, Note_on_c, 0, 72, 68
2, 36736, Note_on_c, 0, 75, 0
2, 36912, Note_on_c, 0, 73, 71
2, 37090, Note_on_c, 0, 72, 0
2, 37130, Note_on_c, 0, 75, 70
2, 37136, Note_on_c, 0, 51, 59
2, 37290, Note_on_c, 0, 52, 0
2, 37325, Note_on_c, 0, 73, 0
2, 37372, Note_on_c, 0, 49, 56
2, 37378, Note_on_c, 0, 76, 58
2, 37439, Note_on_c, 0, 75, 0
2, 37454, Note_on_c, 0, 51, 0
2, 37603, Note_on_c, 0, 75, 60
2, 37694, Note_on_c, 0, 76, 0
2, 37847, Note_on_c, 0, 51, 50
2, 37847, Note_on_c, 0, 71, 53
2, 37912, Note_on_c, 0, 75, 0
2, 37962, Note_on_c, 0, 49, 0
2, 38143, Control_c, 0, 64, 48
2, 38158, Control_c, 0, 64, 60
2, 38174, Control_c, 0, 64, 64
2, 38188, Control_c, 0, 64, 66
2, 38203, Control_c, 0, 64, 68
2, 38219, Control_c, 0, 64, 70
2, 38234, Control_c, 0, 64, 73
2, 38250, Control_c, 0, 64, 76
2, 38265, Control_c, 0, 64, 80
2, 38280, Control_c, 0, 64, 85
2, 38295, Control_c, 0, 64, 89
2, 38310, Control_c, 0, 64, 92
2, 38333, Control_c, 0, 64, 94
2, 38439, Control_c, 0, 64, 93
2, 38531, Control_c, 0, 64, 92
2, 38540, Note_on_c, 0, 73, 57
2, 38546, Control_c, 0, 64, 92
2, 38560, Control_c, 0, 64, 91
2, 38577, Note_on_c, 0, 71, 0
2, 38591, Control_c, 0, 64, 91
2, 38607, Control_c, 0, 64, 90
2, 38622, Control_c, 0, 64, 90
2, 38636, Control_c, 0, 64, 89
2, 38652, Control_c, 0, 64, 88
2, 38667, Control_c, 0, 64, 87
2, 38682, Control_c, 0, 64, 86
2, 38698, Control_c, 0, 64, 85
2, 38712, Control_c, 0, 64, 84
2, 38728, Control_c, 0, 64, 82
2, 38743, Control_c, 0, 64, 80
2, 38757, Control_c, 0, 64, 79
2, 38773, Control_c, 0, 64, 77
2, 38788, Control_c, 0, 64, 74
2, 38803, Control_c, 0, 64, 67
2, 38818, Note_on_c, 0, 39, 40
2, 38819, Control_c, 0, 64, 55
2, 38834, Note_on_c, 0, 70, 57
2, 38835, Control_c, 0, 64, 0
2, 38866, Note_on_c, 0, 67, 30
2, 38927, Note_on_c, 0, 68, 0
2, 38972, Control_c, 0, 64, 20
2, 38986, Control_c, 0, 64, 60
2, 39001, Control_c, 0, 64, 68
2, 39008, Note_on_c, 0, 73, 0
2, 39017, Control_c, 0, 64, 78
2, 39032, Control_c, 0, 64, 89
2, 39048, Control_c, 0, 64, 101
2, 39053, Note_on_c, 0, 70, 0
2, 39063, Control_c, 0, 64, 112
2, 39063, Note_on_c, 0, 67, 0
2, 39078, Control_c, 0, 64, 113
2, 39101, Control_c, 0, 64, 111
2, 39116, Control_c, 0, 64, 110
2, 39192, Control_c, 0, 64, 109
2, 39207, Control_c, 0, 64, 108
2, 39222, Control_c, 0, 64, 107
2, 39237, Control_c, 0, 64, 106
2, 39268, Control_c, 0, 64, 105
2, 39283, Control_c, 0, 64, 104
2, 39299, Control_c, 0, 64, 102
2, 39313, Control_c, 0, 64, 99
2, 39322, Note_on_c, 0, 44, 47
2, 39329, Control_c, 0, 64, 96
2, 39344, Control_c, 0, 64, 94
2, 39344, Note_on_c, 0, 59, 53
2, 39359, Control_c, 0, 64, 93
2, 39375, Control_c, 0, 64, 91
2, 39387, Note_on_c, 0, 39, 0
2, 39390, Control_c, 0, 64, 89
2, 39405, Control_c, 0, 64, 85
2, 39420, Control_c, 0, 64, 81
2, 39435, Control_c, 0, 64, 76
2, 39439, Note_on_c, 0, 61, 55
2, 39451, Control_c, 0, 64, 72
2, 39466, Control_c, 0, 64, 69
2, 39480, Control_c, 0, 64, 67
2, 39496, Control_c, 0, 64, 66
2, 39511, Control_c, 0, 64, 65
2, 39527, Control_c, 0, 64, 64
2, 39529, Note_on_c, 0, 63, 53
2, 39542, Control_c, 0, 64, 63
2, 39556, Control_c, 0, 64, 61
2, 39572, Control_c, 0, 64, 60
2, 39587, Control_c, 0, 64, 59
2, 39601, Control_c, 0, 64, 58
2, 39617, Control_c, 0, 64, 57
2, 39629, Note_on_c, 0, 49, 41
2, 39632, Control_c, 0, 64, 56
2, 39636, Note_on_c, 0, 68, 45
2, 39648, Control_c, 0, 64, 56
2, 39653, Note_on_c, 0, 61, 0
2, 39664, Control_c, 0, 64, 55
2, 39679, Control_c, 0, 64, 54
2, 39695, Control_c, 0, 64, 53
2, 39709, Control_c, 0, 64, 52
2, 39725, Control_c, 0, 64, 51
2, 39740, Control_c, 0, 64, 49
2, 39755, Control_c, 0, 64, 48
2, 39771, Control_c, 0, 64, 47
2, 39785, Control_c, 0, 64, 46
2, 39800, Control_c, 0, 64, 46
2, 39816, Control_c, 0, 64, 45
2, 39830, Control_c, 0, 64, 45
2, 39846, Control_c, 0, 64, 44
2, 39869, Control_c, 0, 64, 42
2, 39883, Note_on_c, 0, 47, 54
2, 39885, Control_c, 0, 64, 41
2, 39900, Control_c, 0, 64, 40
2, 39914, Control_c, 0, 64, 40
2, 39930, Control_c, 0, 64, 39
2, 39933, Note_on_c, 0, 49, 0
2, 39945, Control_c, 0, 64, 38
2, 39960, Control_c, 0, 64, 37
2, 39976, Control_c, 0, 64, 36
2, 39990, Control_c, 0, 64, 36
2, 40021, Control_c, 0, 64, 35
2, 40051, Control_c, 0, 64, 34
2, 40071, Control_c, 0, 64, 33
2, 40086, Control_c, 0, 64, 33
2, 40101, Control_c, 0, 64, 32
2, 40117, Control_c, 0, 64, 32
2, 40131, Control_c, 0, 64, 31
2, 40131, Note_on_c, 0, 46, 59
2, 40177, Control_c, 0, 64, 31
2, 40177, Note_on_c, 0, 47, 0
2, 40239, Control_c, 0, 64, 30
2, 40268, Control_c, 0, 64, 30
2, 40379, Note_on_c, 0, 47, 60
2, 40444, Note_on_c, 0, 46, 0
2, 40452, Note_on_c, 0, 44, 0
2, 40601, Note_on_c, 0, 44, 52
2, 40695, Note_on_c, 0, 47, 0
2, 40827, Note_on_c, 0, 51, 0
2, 40877, Note_on_c, 0, 47, 56
2, 41107, Note_on_c, 0, 51, 58
2, 41128, Note_on_c, 0, 47, 0
2, 41368, Note_on_c, 0, 56, 51
2, 41430, Note_on_c, 0, 51, 0
2, 41442, Control_c, 0, 64, 30
2, 41578, Control_c, 0, 64, 31
2, 41596, Note_on_c, 0, 52, 55
2, 41629, Note_on_c, 0, 56, 0
2, 41654, Control_c, 0, 64, 31
2, 41715, Control_c, 0, 64, 32
2, 41745, Control_c, 0, 64, 32
2, 41806, Control_c, 0, 64, 33
2, 41852, Note_on_c, 0, 71, 62
2, 41859, Note_on_c, 0, 59, 0
2, 41873, Note_on_c, 0, 54, 43
2, 41894, Note_on_c, 0, 52, 0
2, 41973, Control_c, 0, 64, 33
2, 41975, Note_on_c, 0, 68, 0
2, 41988, Note_on_c, 0, 63, 0
2, 42034, Control_c, 0, 64, 34
2, 42085, Note_on_c, 0, 51, 55
2, 42110, Control_c, 0, 64, 34
2, 42141, Control_c, 0, 64, 35
2, 42151, Note_on_c, 0, 54, 0
2, 42157, Control_c, 0, 64, 35
2, 42179, Control_c, 0, 64, 36
2, 42194, Control_c, 0, 64, 36
2, 42209, Control_c, 0, 64, 37
2, 42255, Control_c, 0, 64, 38
2, 42286, Control_c, 0, 64, 38
2, 42316, Control_c, 0, 64, 39
2, 42347, Control_c, 0, 64, 39
2, 42356, Note_on_c, 0, 49, 55
2, 42366, Note_on_c, 0, 52, 51
2, 42392, Control_c, 0, 64, 40
2, 42407, Control_c, 0, 64, 40
2, 42416, Note_on_c, 0, 51, 0
2, 42468, Control_c, 0, 64, 41
2, 42483, Control_c, 0, 64, 41
2, 42559, Control_c, 0, 64, 42
2, 42594, Note_on_c, 0, 68, 63
2, 42616, Note_on_c, 0, 51, 59
2, 42649, Note_on_c, 0, 49, 0
2, 42702, Note_on_c, 0, 71, 0
2, 42757, Control_c, 0, 64, 42
2, 42846, Note_on_c, 0, 49, 61
2, 42851, Note_on_c, 0, 70, 72
2, 43051, Control_c, 0, 64, 43
2, 43071, Note_on_c, 0, 47, 57
2, 43079, Note_on_c, 0, 73, 79
2, 43126, Note_on_c, 0, 49, 0
2, 43154, Note_on_c, 0, 51, 0
2, 43176, Note_on_c, 0, 68, 0
2, 43314, Note_on_c, 0, 49, 58
2, 43321, Note_on_c, 0, 76, 75
2, 43338, Note_on_c, 0, 44, 0
2, 43426, Note_on_c, 0, 73, 0
2, 43462, Note_on_c, 0, 70, 0
2, 43545, Note_on_c, 0, 46, 70
2, 43620, Note_on_c, 0, 47, 0
2, 43662, Note_on_c, 0, 52, 0
2, 43819, Control_c, 0, 64, 41
2, 43835, Control_c, 0, 64, 38
2, 43850, Control_c, 0, 64, 32
2, 43864, Control_c, 0, 64, 0
2, 43871, Note_on_c, 0, 54, 66
2, 43908, Note_on_c, 0, 49, 0
2, 44126, Note_on_c, 0, 75, 75
2, 44167, Note_on_c, 0, 76, 0
2, 44356, Note_on_c, 0, 76, 77
2, 44549, Note_on_c, 0, 75, 0
2, 44595, Note_on_c, 0, 80, 76
2, 44610, Note_on_c, 0, 56, 59
2, 44659, Note_on_c, 0, 54, 0
2, 44682, Note_on_c, 0, 76, 0
2, 44926, Note_on_c, 0, 78, 72
2, 44941, Note_on_c, 0, 58, 56
2, 44965, Note_on_c, 0, 80, 0
2, 44982, Note_on_c, 0, 56, 0
2, 45087, Control_c, 0, 64, 36
2, 45102, Control_c, 0, 64, 60
2, 45116, Control_c, 0, 64, 67
2, 45132, Control_c, 0, 64, 72
2, 45147, Control_c, 0, 64, 79
2, 45162, Control_c, 0, 64, 86
2, 45177, Control_c, 0, 64, 91
2, 45192, Control_c, 0, 64, 96
2, 45208, Control_c, 0, 64, 98
2, 45261, Control_c, 0, 64, 98
2, 45337, Control_c, 0, 64, 97
2, 45352, Control_c, 0, 64, 96
2, 45365, Note_on_c, 0, 58, 0
2, 45367, Control_c, 0, 64, 94
2, 45382, Control_c, 0, 64, 93
2, 45429, Control_c, 0, 64, 92
2, 45445, Control_c, 0, 64, 91
2, 45460, Control_c, 0, 64, 88
2, 45474, Control_c, 0, 64, 86
2, 45490, Control_c, 0, 64, 82
2, 45498, Note_on_c, 0, 75, 68
2, 45505, Control_c, 0, 64, 79
2, 45513, Note_on_c, 0, 59, 51
2, 45520, Control_c, 0, 64, 74
2, 45535, Control_c, 0, 64, 66
2, 45550, Control_c, 0, 64, 54
2, 45566, Control_c, 0, 64, 0
2, 45601, Note_on_c, 0, 46, 0
2, 45609, Note_on_c, 0, 78, 0
2, 45743, Note_on_c, 0, 73, 58
2, 45764, Control_c, 0, 64, 44
2, 45779, Control_c, 0, 64, 63
2, 45794, Control_c, 0, 64, 70
2, 45809, Control_c, 0, 64, 77
2, 45824, Control_c, 0, 64, 84
2, 45840, Control_c, 0, 64, 91
2, 45855, Control_c, 0, 64, 94
2, 45870, Control_c, 0, 64, 95
2, 45885, Control_c, 0, 64, 94
2, 45900, Control_c, 0, 64, 93
2, 45915, Control_c, 0, 64, 92
2, 45930, Control_c, 0, 64, 92
2, 45961, Control_c, 0, 64, 91
2, 45967, Note_on_c, 0, 71, 59
2, 45976, Control_c, 0, 64, 89
2, 45991, Control_c, 0, 64, 87
2, 46014, Control_c, 0, 64, 85
2, 46029, Control_c, 0, 64, 83
2, 46045, Control_c, 0, 64, 82
2, 46060, Control_c, 0, 64, 82
2, 46075, Control_c, 0, 64, 81
2, 46090, Control_c, 0, 64, 80
2, 46105, Control_c, 0, 64, 80
2, 46121, Control_c, 0, 64, 79
2, 46135, Control_c, 0, 64, 79
2, 46181, Control_c, 0, 64, 78
2, 46194, Note_on_c, 0, 73, 0
2, 46219, Note_on_c, 0, 70, 43
2, 46238, Note_on_c, 0, 71, 0
2, 46258, Control_c, 0, 64, 78
2, 46304, Control_c, 0, 64, 77
2, 46334, Control_c, 0, 64, 77
2, 46349, Control_c, 0, 64, 76
2, 46364, Control_c, 0, 64, 74
2, 46379, Control_c, 0, 64, 73
2, 46394, Control_c, 0, 64, 73
2, 46410, Control_c, 0, 64, 72
2, 46425, Control_c, 0, 64, 71
2, 46440, Control_c, 0, 64, 70
2, 46455, Control_c, 0, 64, 69
2, 46470, Control_c, 0, 64, 68
2, 46470, Note_on_c, 0, 71, 45
2, 46486, Control_c, 0, 64, 67
2, 46501, Control_c, 0, 64, 67
2, 46515, Control_c, 0, 64, 66
2, 46531, Control_c, 0, 64, 65
2, 46546, Control_c, 0, 64, 65
2, 46552, Note_on_c, 0, 70, 0
2, 46562, Control_c, 0, 64, 64
2, 46577, Control_c, 0, 64, 63
2, 46592, Control_c, 0, 64, 63
2, 46623, Control_c, 0, 64, 62
2, 46653, Control_c, 0, 64, 62
2, 46668, Control_c, 0, 64, 61
2, 46684, Control_c, 0, 64, 60
2, 46691, Note_on_c, 0, 66, 57
2, 46699, Control_c, 0, 64, 59
2, 46714, Control_c, 0, 64, 57
2, 46729, Control_c, 0, 64, 56
2, 46744, Control_c, 0, 64, 53
2, 46760, Control_c, 0, 64, 49
2, 46782, Control_c, 0, 64, 43
2, 46798, Control_c, 0, 64, 32
2, 46813, Control_c, 0, 64, 15
2, 46828, Control_c, 0, 64, 0
2, 46928, Note_on_c, 0, 63, 51
2, 46968, Note_on_c, 0, 59, 0
2, 47170, Note_on_c, 0, 59, 51
2, 47392, Note_on_c, 0, 57, 51
2, 47509, Note_on_c, 0, 59, 0
2, 47523, Note_on_c, 0, 75, 0
2, 47636, Note_on_c, 0, 56, 57
2, 47695, Note_on_c, 0, 57, 0
2, 47870, Note_on_c, 0, 63, 0
2, 47891, Note_on_c, 0, 57, 50
2, 47895, Note_on_c, 0, 56, 0
2, 47898, Note_on_c, 0, 73, 66
2, 48091, Note_on_c, 0, 71, 0
2, 48109, Note_on_c, 0, 54, 54
2, 48316, Note_on_c, 0, 57, 0
2, 48363, Note_on_c, 0, 51, 63
2, 48519, Note_on_c, 0, 54, 0
2, 48583, Note_on_c, 0, 66, 0
2, 48594, Note_on_c, 0, 70, 72
2, 48620, Note_on_c, 0, 52, 54
2, 48685, Note_on_c, 0, 51, 0
2, 48820, Note_on_c, 0, 73, 0
2, 48829, Note_on_c, 0, 72, 68
2, 48831, Note_on_c, 0, 51, 58
2, 48848, Note_on_c, 0, 70, 0
2, 48907, Note_on_c, 0, 52, 0
2, 49048, Note_on_c, 0, 75, 79
2, 49051, Note_on_c, 0, 49, 61
2, 49116, Note_on_c, 0, 51, 0
2, 49290, Note_on_c, 0, 78, 81
2, 49291, Note_on_c, 0, 51, 62
2, 49345, Note_on_c, 0, 49, 0
2, 49525, Note_on_c, 0, 48, 62
2, 49525, Note_on_c, 0, 80, 81
2, 49791, Note_on_c, 0, 81, 73
2, 49800, Note_on_c, 0, 44, 59
2, 49872, Note_on_c, 0, 80, 0
2, 49880, Note_on_c, 0, 48, 0
2, 49883, Note_on_c, 0, 78, 0
2, 50036, Note_on_c, 0, 80, 73
2, 50110, Note_on_c, 0, 72, 0
2, 50270, Note_on_c, 0, 78, 71
2, 50488, Note_on_c, 0, 76, 65
2, 50506, Note_on_c, 0, 46, 55
2, 50560, Note_on_c, 0, 75, 0
2, 50565, Note_on_c, 0, 78, 0
2, 50577, Note_on_c, 0, 80, 0
2, 50758, Note_on_c, 0, 48, 60
2, 50763, Note_on_c, 0, 78, 69
2, 50766, Note_on_c, 0, 44, 0
2, 50791, Note_on_c, 0, 81, 0
2, 50849, Note_on_c, 0, 76, 0
2, 50852, Note_on_c, 0, 46, 0
2, 50999, Note_on_c, 0, 75, 68
2, 51005, Note_on_c, 0, 78, 0
2, 51254, Note_on_c, 0, 76, 59
2, 51264, Note_on_c, 0, 49, 51
2, 51302, Note_on_c, 0, 75, 0
2, 51306, Note_on_c, 0, 48, 0
2, 51366, Note_on_c, 0, 51, 0
2, 51500, Note_on_c, 0, 75, 61
2, 51730, Note_on_c, 0, 73, 63
2, 51955, Note_on_c, 0, 72, 61
2, 51986, Note_on_c, 0, 75, 0
2, 52012, Note_on_c, 0, 73, 0
2, 52213, Note_on_c, 0, 73, 64
2, 52247, Note_on_c, 0, 72, 0
2, 52453, Note_on_c, 0, 68, 54
2, 52711, Note_on_c, 0, 64, 49
2, 52967, Note_on_c, 0, 51, 56
2, 53045, Note_on_c, 0, 49, 0
2, 53212, Note_on_c, 0, 51, 0
2, 53215, Note_on_c, 0, 52, 62
2, 53463, Note_on_c, 0, 54, 58
2, 53539, Note_on_c, 0, 52, 0
2, 53691, Note_on_c, 0, 56, 62
2, 53747, Note_on_c, 0, 54, 0
2, 53926, Note_on_c, 0, 57, 72
2, 53969, Note_on_c, 0, 64, 0
2, 53984, Note_on_c, 0, 73, 0
2, 53988, Note_on_c, 0, 56, 0
2, 53991, Note_on_c, 0, 68, 0
2, 54193, Note_on_c, 0, 59, 79
2, 54248, Note_on_c, 0, 57, 0
2, 54433, Note_on_c, 0, 74, 75
2, 54494, Note_on_c, 0, 76, 0
2, 54698, Note_on_c, 0, 77, 76
2, 54909, Note_on_c, 0, 80, 82
2, 54921, Note_on_c, 0, 61, 58
2, 55169, Note_on_c, 0, 59, 0
2, 55172, Note_on_c, 0, 83, 76
2, 55176, Note_on_c, 0, 62, 56
2, 55229, Note_on_c, 0, 61, 0
2, 55356, Note_on_c, 0, 80, 0
2, 55403, Note_on_c, 0, 59, 63
2, 55681, Note_on_c, 0, 53, 60
2, 55721, Note_on_c, 0, 74, 0
2, 55766, Note_on_c, 0, 77, 0
2, 55918, Note_on_c, 0, 74, 63
2, 55943, Note_on_c, 0, 83, 0
2, 56174, Note_on_c, 0, 73, 59
2, 56175, Note_on_c, 0, 56, 49
2, 56198, Note_on_c, 0, 59, 0
2, 56226, Note_on_c, 0, 74, 0
2, 56359, Note_on_c, 0, 62, 0
2, 56404, Note_on_c, 0, 71, 56
2, 56652, Note_on_c, 0, 61, 45
2, 56659, Note_on_c, 0, 69, 53
2, 56670, Note_on_c, 0, 71, 0
2, 56697, Note_on_c, 0, 73, 0
2, 56730, Note_on_c, 0, 56, 0
2, 56880, Note_on_c, 0, 68, 56
2, 56957, Note_on_c, 0, 69, 0
2, 57122, Note_on_c, 0, 54, 43
2, 57152, Note_on_c, 0, 69, 52
2, 57173, Note_on_c, 0, 53, 0
2, 57238, Note_on_c, 0, 68, 0
2, 57417, Note_on_c, 0, 59, 36
2, 57675, Note_on_c, 0, 57, 50
2, 57746, Note_on_c, 0, 59, 0
2, 57883, Note_on_c, 0, 56, 61
2, 57930, Note_on_c, 0, 57, 0
2, 58129, Note_on_c, 0, 57, 67
2, 58156, Note_on_c, 0, 54, 0
2, 58173, Note_on_c, 0, 56, 0
2, 58370, Note_on_c, 0, 54, 65
2, 58385, Note_on_c, 0, 61, 0
2, 58563, Note_on_c, 0, 57, 0
2, 58635, Note_on_c, 0, 66, 58
2, 58853, Note_on_c, 0, 68, 68
2, 58931, Note_on_c, 0, 69, 0
2, 59107, Note_on_c, 0, 69, 67
2, 59224, Note_on_c, 0, 68, 0
2, 59292, Note_on_c, 0, 66, 0
2, 59333, Note_on_c, 0, 73, 74
2, 59364, Note_on_c, 0, 64, 61
2, 59590, Note_on_c, 0, 63, 61
2, 59596, Note_on_c, 0, 78, 76
2, 59603, Note_on_c, 0, 64, 0
2, 59784, Note_on_c, 0, 54, 0
2, 59804, Note_on_c, 0, 73, 0
2, 59835, Note_on_c, 0, 61, 60
2, 59909, Note_on_c, 0, 63, 0
2, 60081, Note_on_c, 0, 56, 55
2, 60088, Note_on_c, 0, 59, 63
2, 60171, Note_on_c, 0, 61, 0
2, 60350, Note_on_c, 0, 76, 65
2, 60577, Note_on_c, 0, 75, 72
2, 60678, Note_on_c, 0, 76, 0
2, 60810, Note_on_c, 0, 57, 56
2, 60812, Note_on_c, 0, 61, 59
2, 60813, Note_on_c, 0, 73, 70
2, 60863, Note_on_c, 0, 69, 0
2, 60865, Note_on_c, 0, 59, 0
2, 60927, Note_on_c, 0, 56, 0
2, 61063, Note_on_c, 0, 71, 65
2, 61067, Note_on_c, 0, 63, 59
2, 61074, Note_on_c, 0, 59, 69
2, 61103, Note_on_c, 0, 75, 0
2, 61115, Note_on_c, 0, 73, 0
2, 61119, Note_on_c, 0, 78, 0
2, 61173, Note_on_c, 0, 57, 0
2, 61266, Note_on_c, 0, 61, 0
2, 61317, Note_on_c, 0, 69, 63
2, 61372, Note_on_c, 0, 71, 0
2, 61564, Note_on_c, 0, 68, 67
2, 61566, Note_on_c, 0, 52, 59
2, 61598, Note_on_c, 0, 69, 0
2, 61749, Note_on_c, 0, 59, 0
2, 61809, Note_on_c, 0, 66, 72
2, 61843, Note_on_c, 0, 68, 0
2, 62036, Note_on_c, 0, 68, 70
2, 62220, Note_on_c, 0, 66, 0
2, 62274, Note_on_c, 0, 56, 54
2, 62282, Note_on_c, 0, 71, 68
2, 62347, Note_on_c, 0, 63, 0
2, 62549, Note_on_c, 0, 76, 68
2, 62563, Note_on_c, 0, 61, 53
2, 62592, Note_on_c, 0, 68, 0
2, 62675, Note_on_c, 0, 71, 0
2, 62779, Note_on_c, 0, 60, 63
2, 62912, Note_on_c, 0, 61, 0
2, 63079, Note_on_c, 0, 61, 59
2, 63118, Note_on_c, 0, 60, 0
2, 63202, Note_on_c, 0, 56, 0
2, 63338, Note_on_c, 0, 75, 65
2, 63566, Note_on_c, 0, 73, 64
2, 63801, Note_on_c, 0, 71, 57
2, 63818, Note_on_c, 0, 51, 52
2, 63834, Note_on_c, 0, 52, 0
2, 63876, Note_on_c, 0, 75, 0
2, 64029, Note_on_c, 0, 71, 0
2, 64037, Note_on_c, 0, 73, 0
2, 64048, Note_on_c, 0, 69, 58
2, 64053, Note_on_c, 0, 49, 49
2, 64137, Note_on_c, 0, 51, 0
2, 64282, Note_on_c, 0, 68, 57
2, 64373, Note_on_c, 0, 69, 0
2, 64441, Note_on_c, 0, 76, 0
2, 64542, Note_on_c, 0, 66, 57
2, 64549, Note_on_c, 0, 51, 57
2, 64670, Note_on_c, 0, 49, 0
2, 64772, Note_on_c, 0, 64, 58
2, 64853, Note_on_c, 0, 66, 0
2, 64856, Note_on_c, 0, 68, 0
2, 65010, Note_on_c, 0, 66, 64
2, 65246, Note_on_c, 0, 69, 68
2, 65252, Note_on_c, 0, 60, 47
2, 65256, Note_on_c, 0, 64, 0
2, 65318, Note_on_c, 0, 61, 0
2, 65353, Note_on_c, 0, 66, 0
2, 65510, Note_on_c, 0, 75, 68
2, 65531, Note_on_c, 0, 61, 51
2, 65546, Note_on_c, 0, 60, 0
2, 65684, Note_on_c, 0, 69, 0
2, 65741, Note_on_c, 0, 58, 57
2, 65799, Note_on_c, 0, 61, 0
2, 66018, Note_on_c, 0, 60, 53
2, 66034, Note_on_c, 0, 56, 53
2, 66068, Note_on_c, 0, 58, 0
2, 66097, Note_on_c, 0, 51, 0
2, 66270, Note_on_c, 0, 73, 60
2, 66516, Note_on_c, 0, 72, 59
2, 66561, Note_on_c, 0, 75, 0
2, 66563, Note_on_c, 0, 73, 0
2, 66756, Note_on_c, 0, 70, 63
2, 66759, Note_on_c, 0, 58, 48
2, 66759, Note_on_c, 0, 61, 54
2, 66818, Note_on_c, 0, 60, 0
2, 66864, Note_on_c, 0, 72, 0
2, 66881, Note_on_c, 0, 56, 0
2, 67001, Note_on_c, 0, 68, 55
2, 67032, Note_on_c, 0, 63, 54
2, 67047, Note_on_c, 0, 60, 54
2, 67081, Note_on_c, 0, 61, 0
2, 67090, Note_on_c, 0, 58, 0
2, 67114, Note_on_c, 0, 70, 0
2, 67252, Note_on_c, 0, 66, 58
2, 67531, Note_on_c, 0, 61, 60
2, 67545, Note_on_c, 0, 64, 53
2, 67608, Note_on_c, 0, 66, 0
2, 67619, Note_on_c, 0, 63, 0
2, 67629, Note_on_c, 0, 60, 0
2, 67634, Note_on_c, 0, 68, 0
2, 67759, Note_on_c, 0, 63, 50
2, 67854, Note_on_c, 0, 64, 0
2, 68008, Note_on_c, 0, 64, 50
2, 68228, Note_on_c, 0, 63, 0
2, 68234, Note_on_c, 0, 68, 54
2, 68252, Note_on_c, 0, 59, 53
2, 68489, Note_on_c, 0, 73, 60
2, 68498, Note_on_c, 0, 57, 57
2, 68567, Note_on_c, 0, 59, 0
2, 68659, Note_on_c, 0, 68, 0
2, 68729, Note_on_c, 0, 56, 57
2, 68777, Note_on_c, 0, 57, 0
2, 68985, Note_on_c, 0, 57, 56
2, 69003, Note_on_c, 0, 54, 57
2, 69035, Note_on_c, 0, 56, 0
2, 69228, Note_on_c, 0, 71, 61
2, 69465, Note_on_c, 0, 69, 67
2, 69508, Note_on_c, 0, 71, 0
2, 69695, Note_on_c, 0, 68, 65
2, 69705, Note_on_c, 0, 59, 57
2, 69750, Note_on_c, 0, 61, 0
2, 69761, Note_on_c, 0, 69, 0
2, 69945, Note_on_c, 0, 61, 63
2, 69949, Note_on_c, 0, 69, 69
2, 69962, Note_on_c, 0, 64, 0
2, 70025, Note_on_c, 0, 59, 0
2, 70073, Note_on_c, 0, 68, 0
2, 70148, Note_on_c, 0, 69, 0
2, 70189, Note_on_c, 0, 66, 64
2, 70278, Note_on_c, 0, 57, 0
2, 70425, Note_on_c, 0, 62, 55
2, 70437, Note_on_c, 0, 78, 76
2, 70545, Note_on_c, 0, 61, 0
2, 70587, Note_on_c, 0, 73, 0
2, 70671, Note_on_c, 0, 76, 74
2, 70895, Note_on_c, 0, 74, 77
2, 70936, Note_on_c, 0, 76, 0
2, 71109, Note_on_c, 0, 52, 53
2, 71109, Note_on_c, 0, 73, 75
2, 71153, Note_on_c, 0, 54, 0
2, 71185, Note_on_c, 0, 74, 0
2, 71269, Note_on_c, 0, 66, 0
2, 71360, Note_on_c, 0, 74, 79
2, 71361, Note_on_c, 0, 54, 70
2, 71442, Note_on_c, 0, 52, 0
2, 71467, Note_on_c, 0, 78, 0
2, 71561, Note_on_c, 0, 73, 0
2, 71573, Note_on_c, 0, 69, 62
2, 71624, Note_on_c, 0, 74, 0
2, 71829, Note_on_c, 0, 81, 78
2, 71840, Note_on_c, 0, 60, 61
2, 71843, Note_on_c, 0, 51, 64
2, 71899, Note_on_c, 0, 54, 0
2, 71923, Note_on_c, 0, 62, 0
2, 72066, Note_on_c, 0, 80, 73
2, 72299, Note_on_c, 0, 78, 77
2, 72529, Note_on_c, 0, 76, 75
2, 72532, Note_on_c, 0, 54, 64
2, 72562, Note_on_c, 0, 80, 0
2, 72615, Note_on_c, 0, 78, 0
2, 72624, Note_on_c, 0, 81, 0
2, 72775, Note_on_c, 0, 57, 73
2, 72788, Note_on_c, 0, 78, 80
2, 72811, Note_on_c, 0, 51, 0
2, 72865, Note_on_c, 0, 54, 0
2, 72877, Note_on_c, 0, 76, 0
2, 73025, Note_on_c, 0, 75, 83
2, 73061, Note_on_c, 0, 69, 0
2, 73123, Note_on_c, 0, 78, 0
2, 73342, Note_on_c, 0, 84, 81
2, 73361, Note_on_c, 0, 66, 62
2, 73466, Note_on_c, 0, 57, 0
2, 73515, Control_c, 0, 64, 55
2, 73531, Control_c, 0, 64, 65
2, 73535, Note_on_c, 0, 60, 0
2, 73546, Control_c, 0, 64, 70
2, 73560, Control_c, 0, 64, 75
2, 73576, Control_c, 0, 64, 78
2, 73591, Control_c, 0, 64, 79
2, 73606, Control_c, 0, 64, 80
2, 73611, Note_on_c, 0, 56, 61
2, 73675, Control_c, 0, 64, 80
2, 73690, Control_c, 0, 64, 81
2, 73705, Control_c, 0, 64, 81
2, 73736, Control_c, 0, 64, 81
2, 73766, Control_c, 0, 64, 80
2, 73826, Control_c, 0, 64, 80
2, 73841, Control_c, 0, 64, 79
2, 73850, Note_on_c, 0, 54, 73
2, 73857, Control_c, 0, 64, 79
2, 73872, Control_c, 0, 64, 78
2, 73887, Control_c, 0, 64, 78
2, 73917, Control_c, 0, 64, 77
2, 73922, Note_on_c, 0, 66, 0
2, 73932, Control_c, 0, 64, 76
2, 73947, Control_c, 0, 64, 75
2, 73962, Control_c, 0, 64, 74
2, 73978, Control_c, 0, 64, 73
2, 74009, Control_c, 0, 64, 73
2, 74039, Control_c, 0, 64, 72
2, 74050, Note_on_c, 0, 56, 0
2, 74067, Note_on_c, 0, 52, 70
2, 74070, Control_c, 0, 64, 72
2, 74094, Note_on_c, 0, 54, 0
2, 74115, Control_c, 0, 64, 71
2, 74177, Control_c, 0, 64, 71
2, 74314, Control_c, 0, 64, 68
2, 74319, Note_on_c, 0, 54, 63
2, 74329, Control_c, 0, 64, 61
2, 74336, Note_on_c, 0, 80, 81
2, 74344, Control_c, 0, 64, 12
2, 74359, Control_c, 0, 64, 0
2, 74434, Note_on_c, 0, 52, 0
2, 74442, Control_c, 0, 64, 36
2, 74458, Control_c, 0, 64, 59
2, 74473, Control_c, 0, 64, 66
2, 74489, Control_c, 0, 64, 71
2, 74504, Control_c, 0, 64, 76
2, 74519, Control_c, 0, 64, 79
2, 74534, Control_c, 0, 64, 80
2, 74566, Note_on_c, 0, 51, 74
2, 74644, Note_on_c, 0, 54, 0
2, 74670, Control_c, 0, 64, 79
2, 74686, Control_c, 0, 64, 79
2, 74701, Control_c, 0, 64, 78
2, 74731, Control_c, 0, 64, 78
2, 74748, Note_on_c, 0, 80, 0
2, 74761, Control_c, 0, 64, 77
2, 74777, Control_c, 0, 64, 76
2, 74791, Control_c, 0, 64, 76
2, 74807, Control_c, 0, 64, 75
2, 74822, Control_c, 0, 64, 74
2, 74837, Control_c, 0, 64, 73
2, 74840, Note_on_c, 0, 80, 85
2, 74852, Control_c, 0, 64, 71
2, 74852, Note_on_c, 0, 52, 58
2, 74867, Control_c, 0, 64, 69
2, 74883, Control_c, 0, 64, 66
2, 74899, Control_c, 0, 64, 64
2, 74908, Note_on_c, 0, 84, 0
2, 74914, Control_c, 0, 64, 62
2, 74930, Control_c, 0, 64, 62
2, 74966, Note_on_c, 0, 51, 0
2, 75004, Control_c, 0, 64, 61
2, 75020, Control_c, 0, 64, 61
2, 75035, Control_c, 0, 64, 60
2, 75051, Control_c, 0, 64, 60
2, 75075, Note_on_c, 0, 51, 71
2, 75081, Control_c, 0, 64, 59
2, 75112, Control_c, 0, 64, 59
2, 75143, Control_c, 0, 64, 58
2, 75195, Control_c, 0, 64, 58
2, 75211, Control_c, 0, 64, 57
2, 75225, Control_c, 0, 64, 57
2, 75269, Control_c, 0, 64, 56
2, 75299, Note_on_c, 0, 49, 70
2, 75300, Control_c, 0, 64, 55
2, 75315, Control_c, 0, 64, 54
2, 75330, Control_c, 0, 64, 53
2, 75346, Control_c, 0, 64, 50
2, 75359, Note_on_c, 0, 52, 0
2, 75361, Control_c, 0, 64, 48
2, 75376, Control_c, 0, 64, 47
2, 75391, Control_c, 0, 64, 46
2, 75406, Control_c, 0, 64, 45
2, 75422, Control_c, 0, 64, 44
2, 75437, Control_c, 0, 64, 44
2, 75468, Control_c, 0, 64, 43
2, 75482, Control_c, 0, 64, 43
2, 75498, Control_c, 0, 64, 42
2, 75513, Control_c, 0, 64, 40
2, 75525, Note_on_c, 0, 76, 70
2, 75528, Control_c, 0, 64, 39
2, 75535, Note_on_c, 0, 51, 0
2, 75536, Note_on_c, 0, 47, 63
2, 75544, Control_c, 0, 64, 38
2, 75559, Control_c, 0, 64, 37
2, 75605, Note_on_c, 0, 49, 0
2, 75665, Control_c, 0, 64, 37
2, 75742, Control_c, 0, 64, 36
2, 75775, Note_on_c, 0, 72, 68
2, 75776, Note_on_c, 0, 49, 56
2, 75786, Note_on_c, 0, 75, 0
2, 75939, Control_c, 0, 64, 36
2, 75993, Note_on_c, 0, 47, 0
2, 76002, Note_on_c, 0, 45, 67
2, 76153, Note_on_c, 0, 49, 0
2, 76336, Note_on_c, 0, 73, 69
2, 76341, Note_on_c, 0, 57, 65
2, 76373, Control_c, 0, 64, 35
2, 76400, Note_on_c, 0, 72, 0
2, 76402, Control_c, 0, 64, 35
2, 76419, Note_on_c, 0, 76, 0
2, 76424, Note_on_c, 0, 45, 0
2, 76433, Control_c, 0, 64, 34
2, 76559, Note_on_c, 0, 80, 0
2, 76602, Note_on_c, 0, 78, 68
2, 76847, Note_on_c, 0, 76, 68
2, 76904, Note_on_c, 0, 78, 0
2, 77076, Note_on_c, 0, 75, 73
2, 77139, Note_on_c, 0, 76, 0
2, 77313, Note_on_c, 0, 76, 70
2, 77433, Note_on_c, 0, 73, 0
2, 77436, Note_on_c, 0, 75, 0
2, 77553, Note_on_c, 0, 73, 72
2, 77813, Note_on_c, 0, 78, 71
2, 77970, Note_on_c, 0, 76, 0
2, 78044, Note_on_c, 0, 56, 58
2, 78177, Note_on_c, 0, 57, 0
2, 78182, Control_c, 0, 64, 34
2, 78295, Note_on_c, 0, 54, 66
2, 78501, Note_on_c, 0, 72, 69
2, 78523, Note_on_c, 0, 52, 55
2, 78568, Note_on_c, 0, 56, 0
2, 78577, Note_on_c, 0, 54, 0
2, 78690, Control_c, 0, 64, 33
2, 78761, Note_on_c, 0, 75, 74
2, 78766, Control_c, 0, 64, 33
2, 78769, Note_on_c, 0, 73, 0
2, 78774, Note_on_c, 0, 54, 66
2, 78936, Control_c, 0, 64, 32
2, 78964, Note_on_c, 0, 52, 0
2, 78998, Note_on_c, 0, 51, 68
2, 79013, Control_c, 0, 64, 32
2, 79125, Note_on_c, 0, 54, 0
2, 79157, Control_c, 0, 64, 31
2, 79295, Control_c, 0, 64, 31
2, 79319, Note_on_c, 0, 68, 70
2, 79325, Note_on_c, 0, 60, 62
2, 79370, Control_c, 0, 64, 30
2, 79400, Control_c, 0, 64, 30
2, 79403, Note_on_c, 0, 75, 0
2, 79431, Control_c, 0, 64, 29
2, 79435, Note_on_c, 0, 51, 0
2, 79476, Control_c, 0, 64, 28
2, 79480, Note_on_c, 0, 72, 0
2, 79506, Control_c, 0, 64, 28
2, 79537, Control_c, 0, 64, 27
2, 79567, Control_c, 0, 64, 27
2, 79573, Note_on_c, 0, 76, 64
2, 79597, Control_c, 0, 64, 26
2, 79643, Control_c, 0, 64, 25
2, 79673, Control_c, 0, 64, 25
2, 79735, Control_c, 0, 64, 24
2, 79764, Control_c, 0, 64, 23
2, 79803, Control_c, 0, 64, 22
2, 79811, Note_on_c, 0, 75, 66
2, 79850, Control_c, 0, 64, 21
2, 79892, Note_on_c, 0, 76, 0
2, 79895, Control_c, 0, 64, 21
2, 79896, Note_on_c, 0, 78, 0
2, 80047, Control_c, 0, 64, 20
2, 80050, Note_on_c, 0, 73, 66
2, 80123, Note_on_c, 0, 75, 0
2, 80288, Note_on_c, 0, 75, 68
2, 80386, Note_on_c, 0, 68, 0
2, 80520, Note_on_c, 0, 68, 62
2, 80782, Note_on_c, 0, 76, 67
2, 80805, Note_on_c, 0, 61, 42
2, 80871, Note_on_c, 0, 60, 0
2, 80906, Note_on_c, 0, 73, 0
2, 80918, Note_on_c, 0, 75, 0
2, 81027, Note_on_c, 0, 59, 60
2, 81263, Note_on_c, 0, 57, 63
2, 81313, Note_on_c, 0, 59, 0
2, 81508, Note_on_c, 0, 73, 69
2, 81513, Note_on_c, 0, 56, 53
2, 81567, Note_on_c, 0, 57, 0
2, 81705, Note_on_c, 0, 61, 0
2, 81754, Note_on_c, 0, 66, 66
2, 81762, Note_on_c, 0, 57, 59
2, 81808, Note_on_c, 0, 56, 0
2, 81848, Note_on_c, 0, 73, 0
2, 81850, Note_on_c, 0, 68, 0
2, 81988, Note_on_c, 0, 68, 67
2, 81994, Note_on_c, 0, 54, 62
2, 82043, Note_on_c, 0, 66, 0
2, 82074, Note_on_c, 0, 57, 0
2, 82084, Control_c, 0, 64, 21
2, 82299, Note_on_c, 0, 69, 72
2, 82303, Note_on_c, 0, 66, 65
2, 82349, Note_on_c, 0, 68, 0
2, 82429, Note_on_c, 0, 54, 0
2, 82553, Note_on_c, 0, 75, 77
2, 82681, Note_on_c, 0, 76, 0
2, 82797, Note_on_c, 0, 76, 75
2, 82850, Note_on_c, 0, 75, 0
2, 83030, Note_on_c, 0, 78, 78
2, 83195, Note_on_c, 0, 76, 0
2, 83288, Note_on_c, 0, 80, 80
2, 83343, Note_on_c, 0, 78, 0
2, 83559, Note_on_c, 0, 81, 76
2, 83656, Note_on_c, 0, 80, 0
2, 83658, Control_c, 0, 64, 21
2, 83673, Control_c, 0, 64, 29
2, 83689, Control_c, 0, 64, 37
2, 83704, Control_c, 0, 64, 43
2, 83718, Control_c, 0, 64, 49
2, 83734, Control_c, 0, 64, 53
2, 83749, Control_c, 0, 64, 59
2, 83749, Note_on_c, 0, 69, 0
2, 83763, Control_c, 0, 64, 63
2, 83779, Control_c, 0, 64, 67
2, 83794, Control_c, 0, 64, 71
2, 83810, Control_c, 0, 64, 76
2, 83825, Control_c, 0, 64, 80
2, 83839, Control_c, 0, 64, 83
2, 83855, Control_c, 0, 64, 84
2, 83870, Control_c, 0, 64, 83
2, 83879, Note_on_c, 0, 73, 76
2, 83885, Control_c, 0, 64, 82
2, 83900, Note_on_c, 0, 68, 60
2, 83902, Control_c, 0, 64, 81
2, 83916, Note_on_c, 0, 81, 0
2, 83917, Control_c, 0, 64, 80
2, 83947, Control_c, 0, 64, 80
2, 83978, Control_c, 0, 64, 79
2, 83993, Control_c, 0, 64, 78
2, 84009, Control_c, 0, 64, 76
2, 84023, Control_c, 0, 64, 75
2, 84038, Control_c, 0, 64, 74
2, 84054, Control_c, 0, 64, 73
2, 84069, Control_c, 0, 64, 71
2, 84079, Note_on_c, 0, 64, 57
2, 84083, Control_c, 0, 64, 70
2, 84099, Control_c, 0, 64, 69
2, 84114, Control_c, 0, 64, 68
2, 84130, Control_c, 0, 64, 67
2, 84131, Note_on_c, 0, 66, 0
2, 84159, Control_c, 0, 64, 66
2, 84175, Control_c, 0, 64, 66
2, 84180, Note_on_c, 0, 73, 0
2, 84183, Note_on_c, 0, 72, 68
2, 84190, Control_c, 0, 64, 65
2, 84221, Control_c, 0, 64, 65
2, 84235, Control_c, 0, 64, 64
2, 84248, Note_on_c, 0, 73, 71
2, 84251, Control_c, 0, 64, 64
2, 84251, Note_on_c, 0, 72, 0
2, 84266, Control_c, 0, 64, 63
2, 84281, Control_c, 0, 64, 62
2, 84296, Control_c, 0, 64, 61
2, 84311, Control_c, 0, 64, 60
2, 84311, Note_on_c, 0, 63, 60
2, 84312, Note_on_c, 0, 72, 68
2, 84327, Control_c, 0, 64, 60
2, 84328, Note_on_c, 0, 73, 0
2, 84342, Control_c, 0, 64, 59
2, 84357, Control_c, 0, 64, 58
2, 84373, Control_c, 0, 64, 57
2, 84410, Control_c, 0, 64, 56
2, 84423, Note_on_c, 0, 64, 0
2, 84425, Control_c, 0, 64, 56
2, 84440, Control_c, 0, 64, 55
2, 84456, Control_c, 0, 64, 55
2, 84471, Control_c, 0, 64, 54
2, 84485, Control_c, 0, 64, 54
2, 84501, Control_c, 0, 64, 53
2, 84516, Control_c, 0, 64, 53
2, 84532, Control_c, 0, 64, 52
2, 84547, Control_c, 0, 64, 51
2, 84561, Note_on_c, 0, 61, 62
2, 84562, Control_c, 0, 64, 49
2, 84578, Control_c, 0, 64, 47
2, 84593, Control_c, 0, 64, 44
2, 84608, Control_c, 0, 64, 40
2, 84623, Control_c, 0, 64, 36
2, 84638, Control_c, 0, 64, 28
2, 84654, Control_c, 0, 64, 15
2, 84655, Note_on_c, 0, 73, 69
2, 84667, Note_on_c, 0, 63, 0
2, 84669, Control_c, 0, 64, 0
2, 84712, Note_on_c, 0, 72, 0
2, 84824, Note_on_c, 0, 60, 50
2, 84825, Note_on_c, 0, 75, 75
2, 84853, Note_on_c, 0, 61, 0
2, 84883, Note_on_c, 0, 73, 0
2, 84989, Control_c, 0, 64, 24
2, 85003, Control_c, 0, 64, 60
2, 85019, Control_c, 0, 64, 67
2, 85034, Control_c, 0, 64, 73
2, 85049, Control_c, 0, 64, 81
2, 85055, Note_on_c, 0, 58, 65
2, 85064, Control_c, 0, 64, 88
2, 85079, Control_c, 0, 64, 95
2, 85095, Control_c, 0, 64, 101
2, 85110, Control_c, 0, 64, 102
2, 85112, Note_on_c, 0, 60, 0
2, 85122, Note_on_c, 0, 75, 0
2, 85124, Control_c, 0, 64, 101
2, 85140, Control_c, 0, 64, 99
2, 85155, Control_c, 0, 64, 98
2, 85194, Control_c, 0, 64, 99
2, 85224, Control_c, 0, 64, 98
2, 85239, Control_c, 0, 64, 97
2, 85254, Control_c, 0, 64, 94
2, 85269, Control_c, 0, 64, 92
2, 85285, Control_c, 0, 64, 92
2, 85309, Note_on_c, 0, 68, 0
2, 85316, Control_c, 0, 64, 91
2, 85327, Note_on_c, 0, 60, 64
2, 85330, Note_on_c, 0, 56, 62
2, 85331, Control_c, 0, 64, 90
2, 85346, Control_c, 0, 64, 87
2, 85361, Control_c, 0, 64, 84
2, 85377, Control_c, 0, 64, 81
2, 85392, Control_c, 0, 64, 77
2, 85407, Control_c, 0, 64, 74
2, 85413, Note_on_c, 0, 61, 63
2, 85422, Control_c, 0, 64, 70
2, 85437, Control_c, 0, 64, 68
2, 85452, Control_c, 0, 64, 66
2, 85467, Control_c, 0, 64, 65
2, 85482, Control_c, 0, 64, 64
2, 85491, Note_on_c, 0, 63, 66
2, 85498, Control_c, 0, 64, 64
2, 85513, Control_c, 0, 64, 63
2, 85530, Control_c, 0, 64, 63
2, 85537, Note_on_c, 0, 58, 0
2, 85545, Control_c, 0, 64, 62
2, 85559, Control_c, 0, 64, 61
2, 85571, Note_on_c, 0, 66, 64
2, 85574, Note_on_c, 0, 61, 0
2, 85575, Control_c, 0, 64, 60
2, 85590, Control_c, 0, 64, 59
2, 85596, Note_on_c, 0, 54, 50
2, 85605, Control_c, 0, 64, 58
2, 85621, Control_c, 0, 64, 57
2, 85632, Note_on_c, 0, 56, 0
2, 85635, Control_c, 0, 64, 56
2, 85651, Control_c, 0, 64, 54
2, 85666, Control_c, 0, 64, 53
2, 85681, Control_c, 0, 64, 53
2, 85697, Control_c, 0, 64, 52
2, 85728, Control_c, 0, 64, 52
2, 85742, Control_c, 0, 64, 51
2, 85757, Control_c, 0, 64, 50
2, 85773, Control_c, 0, 64, 50
2, 85788, Control_c, 0, 64, 49
2, 85803, Control_c, 0, 64, 49
2, 85819, Control_c, 0, 64, 48
2, 85819, Note_on_c, 0, 54, 0
2, 85827, Note_on_c, 0, 52, 50
2, 85849, Control_c, 0, 64, 48
2, 85864, Control_c, 0, 64, 47
2, 85894, Control_c, 0, 64, 47
2, 85947, Control_c, 0, 64, 46
2, 85962, Control_c, 0, 64, 46
2, 86054, Note_on_c, 0, 51, 56
2, 86069, Control_c, 0, 64, 45
2, 86099, Control_c, 0, 64, 45
2, 86157, Note_on_c, 0, 52, 0
2, 86190, Control_c, 0, 64, 44
2, 86283, Note_on_c, 0, 49, 63
2, 86327, Control_c, 0, 64, 44
2, 86419, Control_c, 0, 64, 43
2, 86461, Note_on_c, 0, 51, 0
2, 86509, Note_on_c, 0, 47, 59
2, 86525, Control_c, 0, 64, 43
2, 86561, Note_on_c, 0, 49, 0
2, 86759, Note_on_c, 0, 45, 50
2, 86831, Note_on_c, 0, 47, 0
2, 87009, Note_on_c, 0, 64, 53
2, 87064, Note_on_c, 0, 63, 0
2, 87233, Note_on_c, 0, 63, 54
2, 87361, Note_on_c, 0, 64, 0
2, 87463, Note_on_c, 0, 47, 53
2, 87468, Note_on_c, 0, 61, 54
2, 87557, Note_on_c, 0, 63, 0
2, 87717, Note_on_c, 0, 44, 55
2, 87722, Note_on_c, 0, 63, 63
2, 87769, Note_on_c, 0, 45, 0
2, 87808, Note_on_c, 0, 66, 0
2, 87828, Note_on_c, 0, 60, 0
2, 87939, Note_on_c, 0, 60, 62
2, 88064, Note_on_c, 0, 61, 0
2, 88177, Note_on_c, 0, 42, 61
2, 88191, Note_on_c, 0, 69, 63
2, 88228, Note_on_c, 0, 44, 0
2, 88255, Note_on_c, 0, 63, 0
2, 88336, Note_on_c, 0, 47, 0
2, 88436, Note_on_c, 0, 68, 61
2, 88665, Note_on_c, 0, 66, 65
2, 88887, Note_on_c, 0, 44, 64
2, 88890, Note_on_c, 0, 64, 66
2, 89007, Note_on_c, 0, 66, 0
2, 89080, Note_on_c, 0, 68, 0
2, 89094, Note_on_c, 0, 60, 0
2, 89100, Control_c, 0, 64, 43
2, 89109, Note_on_c, 0, 69, 0
2, 89119, Note_on_c, 0, 40, 61
2, 89123, Note_on_c, 0, 66, 75
2, 89161, Control_c, 0, 64, 44
2, 89197, Note_on_c, 0, 42, 0
2, 89221, Control_c, 0, 64, 44
2, 89234, Note_on_c, 0, 64, 0
2, 89354, Note_on_c, 0, 63, 70
2, 89593, Note_on_c, 0, 39, 65
2, 89599, Note_on_c, 0, 72, 70
2, 89640, Note_on_c, 0, 40, 0
2, 89642, Note_on_c, 0, 66, 0
2, 89847, Note_on_c, 0, 69, 67
2, 90036, Control_c, 0, 64, 44
2, 90066, Note_on_c, 0, 68, 71
2, 90130, Note_on_c, 0, 69, 0
2, 90269, Note_on_c, 0, 40, 66
2, 90281, Note_on_c, 0, 66, 69
2, 90369, Note_on_c, 0, 68, 0
2, 90377, Note_on_c, 0, 44, 0
2, 90501, Note_on_c, 0, 42, 76
2, 90517, Note_on_c, 0, 68, 72
2, 90557, Note_on_c, 0, 40, 0
2, 90562, Note_on_c, 0, 63, 0
2, 90562, Note_on_c, 0, 72, 0
2, 90660, Note_on_c, 0, 66, 0
2, 90681, Control_c, 0, 64, 45
2, 90695, Control_c, 0, 64, 49
2, 90710, Control_c, 0, 64, 52
2, 90726, Control_c, 0, 64, 55
2, 90741, Control_c, 0, 64, 57
2, 90757, Control_c, 0, 64, 59
2, 90758, Note_on_c, 0, 63, 72
2, 90771, Control_c, 0, 64, 60
2, 90786, Control_c, 0, 64, 62
2, 90802, Control_c, 0, 64, 62
2, 90892, Control_c, 0, 64, 62
2, 90907, Control_c, 0, 64, 61
2, 90923, Control_c, 0, 64, 61
2, 90938, Control_c, 0, 64, 60
2, 90954, Control_c, 0, 64, 59
2, 90969, Control_c, 0, 64, 58
2, 90984, Control_c, 0, 64, 57
2, 90994, Note_on_c, 0, 36, 69
2, 91000, Control_c, 0, 64, 57
2, 91002, Note_on_c, 0, 75, 80
2, 91014, Control_c, 0, 64, 56
2, 91029, Control_c, 0, 64, 56
2, 91036, Note_on_c, 0, 68, 0
2, 91045, Control_c, 0, 64, 55
2, 91060, Control_c, 0, 64, 55
2, 91076, Control_c, 0, 64, 54
2, 91090, Control_c, 0, 64, 54
2, 91105, Control_c, 0, 64, 53
2, 91166, Control_c, 0, 64, 53
2, 91181, Note_on_c, 0, 42, 0
2, 91204, Note_on_c, 0, 39, 0
2, 91223, Note_on_c, 0, 73, 75
2, 91469, Note_on_c, 0, 72, 78
2, 91612, Note_on_c, 0, 73, 0
2, 91700, Note_on_c, 0, 70, 75
2, 91704, Note_on_c, 0, 39, 71
2, 91747, Control_c, 0, 64, 52
2, 91774, Note_on_c, 0, 72, 0
2, 91778, Control_c, 0, 64, 52
2, 91824, Note_on_c, 0, 63, 0
2, 91884, Control_c, 0, 64, 51
2, 91915, Control_c, 0, 64, 51
2, 91923, Note_on_c, 0, 36, 0
2, 91930, Control_c, 0, 64, 50
2, 91945, Control_c, 0, 64, 50
2, 91955, Note_on_c, 0, 42, 76
2, 91960, Control_c, 0, 64, 49
2, 91960, Note_on_c, 0, 72, 79
2, 91977, Note_on_c, 0, 75, 0
2, 92005, Control_c, 0, 64, 49
2, 92047, Note_on_c, 0, 70, 0
2, 92052, Control_c, 0, 64, 50
2, 92066, Control_c, 0, 64, 53
2, 92090, Control_c, 0, 64, 55
2, 92090, Note_on_c, 0, 39, 0
2, 92105, Control_c, 0, 64, 57
2, 92120, Control_c, 0, 64, 60
2, 92136, Control_c, 0, 64, 62
2, 92151, Control_c, 0, 64, 63
2, 92165, Control_c, 0, 64, 65
2, 92181, Control_c, 0, 64, 67
2, 92197, Control_c, 0, 64, 70
2, 92205, Note_on_c, 0, 68, 76
2, 92212, Control_c, 0, 64, 75
2, 92219, Note_on_c, 0, 72, 0
2, 92227, Control_c, 0, 64, 80
2, 92242, Control_c, 0, 64, 84
2, 92258, Control_c, 0, 64, 85
2, 92273, Control_c, 0, 64, 85
2, 92289, Control_c, 0, 64, 83
2, 92303, Control_c, 0, 64, 82
2, 92318, Control_c, 0, 64, 82
2, 92364, Control_c, 0, 64, 81
2, 92380, Control_c, 0, 64, 79
2, 92395, Control_c, 0, 64, 77
2, 92411, Control_c, 0, 64, 75
2, 92425, Control_c, 0, 64, 74
2, 92456, Control_c, 0, 64, 74
2, 92487, Control_c, 0, 64, 73
2, 92501, Control_c, 0, 64, 72
2, 92516, Control_c, 0, 64, 71
2, 92532, Control_c, 0, 64, 69
2, 92547, Control_c, 0, 64, 66
2, 92562, Control_c, 0, 64, 63
2, 92577, Control_c, 0, 64, 60
2, 92585, Note_on_c, 0, 80, 87
2, 92592, Control_c, 0, 64, 55
2, 92605, Note_on_c, 0, 40, 63
2, 92608, Control_c, 0, 64, 43
2, 92622, Control_c, 0, 64, 0
2, 92655, Note_on_c, 0, 42, 0
2, 92804, Control_c, 0, 64, 52
2, 92820, Control_c, 0, 64, 63
2, 92835, Control_c, 0, 64, 69
2, 92858, Control_c, 0, 64, 74
2, 92873, Control_c, 0, 64, 78
2, 92889, Control_c, 0, 64, 81
2, 92905, Control_c, 0, 64, 82
2, 92918, Note_on_c, 0, 40, 0
2, 92920, Control_c, 0, 64, 81
2, 92920, Note_on_c, 0, 68, 0
2, 92923, Note_on_c, 0, 52, 71
2, 92935, Control_c, 0, 64, 81
2, 92950, Control_c, 0, 64, 80
2, 92981, Control_c, 0, 64, 80
2, 93011, Control_c, 0, 64, 79
2, 93026, Control_c, 0, 64, 78
2, 93041, Control_c, 0, 64, 77
2, 93102, Control_c, 0, 64, 76
2, 93132, Control_c, 0, 64, 76
2, 93147, Control_c, 0, 64, 75
2, 93165, Note_on_c, 0, 54, 65
2, 93178, Control_c, 0, 64, 75
2, 93181, Note_on_c, 0, 78, 71
2, 93209, Control_c, 0, 64, 74
2, 93224, Control_c, 0, 64, 73
2, 93232, Note_on_c, 0, 52, 0
2, 93239, Control_c, 0, 64, 72
2, 93255, Control_c, 0, 64, 72
2, 93269, Control_c, 0, 64, 71
2, 93284, Control_c, 0, 64, 71
2, 93300, Control_c, 0, 64, 70
2, 93315, Control_c, 0, 64, 70
2, 93331, Control_c, 0, 64, 69
2, 93360, Control_c, 0, 64, 69
2, 93376, Control_c, 0, 64, 68
2, 93391, Control_c, 0, 64, 68
2, 93392, Note_on_c, 0, 76, 71
2, 93403, Note_on_c, 0, 56, 62
2, 93407, Control_c, 0, 64, 67
2, 93421, Control_c, 0, 64, 66
2, 93436, Control_c, 0, 64, 66
2, 93452, Control_c, 0, 64, 65
2, 93457, Note_on_c, 0, 80, 0
2, 93466, Control_c, 0, 64, 64
2, 93481, Control_c, 0, 64, 64
2, 93498, Note_on_c, 0, 54, 0
2, 93528, Control_c, 0, 64, 63
2, 93557, Control_c, 0, 64, 63
2, 93588, Control_c, 0, 64, 62
2, 93626, Control_c, 0, 64, 62
2, 93636, Note_on_c, 0, 57, 62
2, 93636, Note_on_c, 0, 75, 80
2, 93638, Note_on_c, 0, 78, 0
2, 93657, Control_c, 0, 64, 61
2, 93687, Control_c, 0, 64, 61
2, 93717, Control_c, 0, 64, 60
2, 93720, Note_on_c, 0, 56, 0
2, 93728, Note_on_c, 0, 76, 0
2, 93749, Control_c, 0, 64, 60
2, 93794, Control_c, 0, 64, 59
2, 93825, Control_c, 0, 64, 59
2, 93840, Control_c, 0, 64, 58
2, 93853, Note_on_c, 0, 73, 77
2, 93856, Note_on_c, 0, 54, 66
2, 93870, Control_c, 0, 64, 58
2, 93885, Control_c, 0, 64, 57
2, 93900, Control_c, 0, 64, 56
2, 93915, Control_c, 0, 64, 55
2, 93931, Control_c, 0, 64, 55
2, 93946, Control_c, 0, 64, 54
2, 93960, Note_on_c, 0, 57, 0
2, 94007, Control_c, 0, 64, 54
2, 94037, Control_c, 0, 64, 53
2, 94053, Control_c, 0, 64, 53
2, 94067, Control_c, 0, 64, 52
2, 94079, Note_on_c, 0, 72, 70
2, 94082, Control_c, 0, 64, 52
2, 94089, Note_on_c, 0, 51, 64
2, 94098, Control_c, 0, 64, 51
2, 94113, Control_c, 0, 64, 51
2, 94129, Control_c, 0, 64, 50
2, 94144, Control_c, 0, 64, 49
2, 94144, Note_on_c, 0, 73, 0
2, 94152, Note_on_c, 0, 54, 0
2, 94159, Control_c, 0, 64, 48
2, 94170, Note_on_c, 0, 75, 0
2, 94175, Control_c, 0, 64, 48
2, 94189, Control_c, 0, 64, 47
2, 94220, Control_c, 0, 64, 47
2, 94250, Control_c, 0, 64, 46
2, 94265, Control_c, 0, 64, 45
2, 94280, Control_c, 0, 64, 45
2, 94296, Control_c, 0, 64, 44
2, 94310, Control_c, 0, 64, 44
2, 94315, Note_on_c, 0, 52, 61
2, 94315, Note_on_c, 0, 73, 78
2, 94325, Control_c, 0, 64, 43
2, 94341, Control_c, 0, 64, 42
2, 94356, Control_c, 0, 64, 42
2, 94361, Note_on_c, 0, 51, 0
2, 94372, Control_c, 0, 64, 41
2, 94410, Control_c, 0, 64, 41
2, 94421, Note_on_c, 0, 72, 0
2, 94440, Control_c, 0, 64, 40
2, 94515, Control_c, 0, 64, 40
2, 94525, Note_on_c, 0, 54, 64
2, 94530, Control_c, 0, 64, 39
2, 94536, Note_on_c, 0, 75, 76
2, 94546, Control_c, 0, 64, 39
2, 94546, Note_on_c, 0, 52, 0
2, 94561, Control_c, 0, 64, 38
2, 94621, Note_on_c, 0, 73, 0
2, 94622, Control_c, 0, 64, 38
2, 94754, Note_on_c, 0, 78, 73
2, 94757, Note_on_c, 0, 51, 69
2, 94761, Control_c, 0, 64, 37
2, 94820, Note_on_c, 0, 75, 0
2, 95008, Note_on_c, 0, 69, 68
2, 95011, Note_on_c, 0, 48, 62
2, 95017, Note_on_c, 0, 54, 0
2, 95073, Note_on_c, 0, 51, 0
2, 95090, Note_on_c, 0, 78, 0
2, 95181, Control_c, 0, 64, 37
2, 95212, Control_c, 0, 64, 36
2, 95227, Control_c, 0, 64, 36
2, 95242, Control_c, 0, 64, 35
2, 95249, Note_on_c, 0, 49, 66
2, 95257, Control_c, 0, 64, 34
2, 95274, Control_c, 0, 64, 33
2, 95288, Control_c, 0, 64, 32
2, 95293, Note_on_c, 0, 48, 0
2, 95303, Control_c, 0, 64, 31
2, 95319, Control_c, 0, 64, 31
2, 95349, Control_c, 0, 64, 30
2, 95502, Note_on_c, 0, 51, 69
2, 95573, Note_on_c, 0, 49, 0
2, 95732, Note_on_c, 0, 48, 62
2, 95738, Note_on_c, 0, 68, 73
2, 95778, Note_on_c, 0, 51, 0
2, 95810, Note_on_c, 0, 69, 0
2, 95853, Control_c, 0, 64, 24
2, 95869, Control_c, 0, 64, 0
2, 95977, Note_on_c, 0, 69, 65
2, 95980, Note_on_c, 0, 44, 63
2, 96014, Note_on_c, 0, 68, 0
2, 96052, Note_on_c, 0, 48, 0
2, 96107, Control_c, 0, 64, 50
2, 96122, Control_c, 0, 64, 63
2, 96136, Control_c, 0, 64, 69
2, 96152, Control_c, 0, 64, 73
2, 96167, Control_c, 0, 64, 76
2, 96183, Control_c, 0, 64, 78
2, 96198, Control_c, 0, 64, 78
2, 96215, Note_on_c, 0, 46, 70
2, 96226, Note_on_c, 0, 66, 78
2, 96229, Control_c, 0, 64, 78
2, 96262, Note_on_c, 0, 69, 0
2, 96289, Note_on_c, 0, 66, 0
2, 96336, Note_on_c, 0, 44, 0
2, 96351, Control_c, 0, 64, 78
2, 96366, Control_c, 0, 64, 79
2, 96381, Control_c, 0, 64, 79
2, 96396, Control_c, 0, 64, 80
2, 96411, Control_c, 0, 64, 81
2, 96427, Control_c, 0, 64, 81
2, 96502, Control_c, 0, 64, 81
2, 96517, Control_c, 0, 64, 80
2, 96532, Control_c, 0, 64, 79
2, 96548, Control_c, 0, 64, 77
2, 96563, Control_c, 0, 64, 75
2, 96568, Note_on_c, 0, 81, 80
2, 96577, Control_c, 0, 64, 74
2, 96593, Control_c, 0, 64, 73
2, 96601, Note_on_c, 0, 48, 64
2, 96608, Control_c, 0, 64, 72
2, 96624, Control_c, 0, 64, 72
2, 96639, Control_c, 0, 64, 71
2, 96653, Control_c, 0, 64, 70
2, 96669, Control_c, 0, 64, 68
2, 96674, Note_on_c, 0, 46, 0
2, 96684, Control_c, 0, 64, 67
2, 96707, Control_c, 0, 64, 65
2, 96722, Control_c, 0, 64, 64
2, 96737, Control_c, 0, 64, 63
2, 96753, Control_c, 0, 64, 62
2, 96789, Control_c, 0, 64, 62
2, 96804, Control_c, 0, 64, 61
2, 96833, Note_on_c, 0, 49, 66
2, 96835, Control_c, 0, 64, 61
2, 96865, Control_c, 0, 64, 60
2, 96880, Control_c, 0, 64, 60
2, 96893, Note_on_c, 0, 48, 0
2, 96911, Control_c, 0, 64, 59
2, 96941, Control_c, 0, 64, 58
2, 96956, Control_c, 0, 64, 58
2, 96972, Control_c, 0, 64, 57
2, 96987, Control_c, 0, 64, 56
2, 97002, Control_c, 0, 64, 55
2, 97018, Control_c, 0, 64, 55
2, 97033, Control_c, 0, 64, 54
2, 97064, Control_c, 0, 64, 53
2, 97065, Note_on_c, 0, 51, 69
2, 97079, Control_c, 0, 64, 53
2, 97095, Control_c, 0, 64, 52
2, 97109, Control_c, 0, 64, 50
2, 97124, Control_c, 0, 64, 49
2, 97140, Control_c, 0, 64, 48
2, 97140, Note_on_c, 0, 49, 0
2, 97155, Control_c, 0, 64, 48
2, 97216, Control_c, 0, 64, 47
2, 97297, Note_on_c, 0, 52, 67
2, 97307, Control_c, 0, 64, 47
2, 97342, Note_on_c, 0, 51, 0
2, 97352, Control_c, 0, 64, 46
2, 97368, Control_c, 0, 64, 46
2, 97398, Control_c, 0, 64, 45
2, 97413, Control_c, 0, 64, 45
2, 97428, Control_c, 0, 64, 44
2, 97443, Control_c, 0, 64, 43
2, 97467, Control_c, 0, 64, 42
2, 97482, Control_c, 0, 64, 40
2, 97497, Control_c, 0, 64, 39
2, 97512, Control_c, 0, 64, 38
2, 97528, Control_c, 0, 64, 37
2, 97542, Control_c, 0, 64, 36
2, 97550, Note_on_c, 0, 80, 74
2, 97557, Control_c, 0, 64, 35
2, 97565, Note_on_c, 0, 54, 60
2, 97573, Control_c, 0, 64, 34
2, 97603, Control_c, 0, 64, 34
2, 97611, Note_on_c, 0, 52, 0
2, 97623, Note_on_c, 0, 81, 0
2, 97724, Control_c, 0, 64, 34
2, 97792, Note_on_c, 0, 56, 60
2, 97800, Note_on_c, 0, 78, 73
2, 97854, Note_on_c, 0, 80, 0
2, 97862, Control_c, 0, 64, 35
2, 97893, Control_c, 0, 64, 35
2, 97908, Control_c, 0, 64, 36
2, 97922, Control_c, 0, 64, 37
2, 97938, Control_c, 0, 64, 37
2, 97950, Note_on_c, 0, 54, 0
2, 98015, Control_c, 0, 64, 38
2, 98041, Note_on_c, 0, 58, 69
2, 98042, Note_on_c, 0, 76, 69
2, 98078, Note_on_c, 0, 78, 0
2, 98256, Note_on_c, 0, 56, 0
2, 98296, Note_on_c, 0, 75, 83
2, 98300, Note_on_c, 0, 60, 64
2, 98327, Control_c, 0, 64, 38
2, 98358, Note_on_c, 0, 76, 0
2, 98385, Note_on_c, 0, 58, 0
2, 98580, Note_on_c, 0, 76, 73
2, 98597, Note_on_c, 0, 61, 55
2, 98644, Note_on_c, 0, 75, 0
2, 98653, Note_on_c, 0, 60, 0
2, 98848, Note_on_c, 0, 59, 53
2, 98855, Note_on_c, 0, 75, 62
2, 98889, Note_on_c, 0, 61, 0
2, 99077, Note_on_c, 0, 73, 63
2, 99080, Note_on_c, 0, 57, 48
2, 99168, Note_on_c, 0, 59, 0
2, 99200, Control_c, 0, 64, 38
2, 99230, Control_c, 0, 64, 37
2, 99244, Note_on_c, 0, 75, 0
2, 99300, Note_on_c, 0, 72, 55
2, 99306, Control_c, 0, 64, 37
2, 99315, Note_on_c, 0, 56, 47
2, 99339, Note_on_c, 0, 73, 0
2, 99362, Note_on_c, 0, 57, 0
2, 99367, Control_c, 0, 64, 36
2, 99490, Control_c, 0, 64, 36
2, 99575, Note_on_c, 0, 73, 58
2, 99586, Note_on_c, 0, 57, 52
2, 99623, Note_on_c, 0, 56, 0
2, 99638, Note_on_c, 0, 72, 0
2, 99816, Control_c, 0, 64, 37
2, 99831, Control_c, 0, 64, 39
2, 99847, Control_c, 0, 64, 41
2, 99862, Control_c, 0, 64, 44
2, 99869, Note_on_c, 0, 81, 65
2, 99876, Control_c, 0, 64, 47
2, 99892, Control_c, 0, 64, 50
2, 99892, Note_on_c, 0, 54, 48
2, 99907, Control_c, 0, 64, 54
2, 99922, Control_c, 0, 64, 57
2, 99935, Note_on_c, 0, 57, 0
2, 99938, Control_c, 0, 64, 60
2, 99953, Control_c, 0, 64, 63
2, 99969, Control_c, 0, 64, 66
2, 99983, Control_c, 0, 64, 69
2, 99997, Note_on_c, 0, 73, 0
2, 99998, Control_c, 0, 64, 74
2, 100014, Control_c, 0, 64, 78
2, 100029, Control_c, 0, 64, 81
2, 100036, Note_on_c, 0, 76, 0
2, 100044, Control_c, 0, 64, 82
2, 100074, Control_c, 0, 64, 81
2, 100090, Control_c, 0, 64, 80
2, 100150, Control_c, 0, 64, 79
2, 100165, Control_c, 0, 64, 79
2, 100181, Control_c, 0, 64, 77
2, 100196, Control_c, 0, 64, 76
2, 100211, Control_c, 0, 64, 74
2, 100223, Note_on_c, 0, 56, 54
2, 100225, Note_on_c, 0, 73, 69
2, 100226, Control_c, 0, 64, 73
2, 100257, Control_c, 0, 64, 72
2, 100272, Control_c, 0, 64, 72
2, 100289, Control_c, 0, 64, 70
2, 100303, Control_c, 0, 64, 68
2, 100303, Note_on_c, 0, 54, 0
2, 100318, Control_c, 0, 64, 66
2, 100334, Control_c, 0, 64, 63
2, 100341, Note_on_c, 0, 76, 69
2, 100349, Control_c, 0, 64, 62
2, 100364, Control_c, 0, 64, 61
2, 100379, Control_c, 0, 64, 61
2, 100382, Note_on_c, 0, 81, 0
2, 100394, Control_c, 0, 64, 59
2, 100410, Control_c, 0, 64, 53
2, 100425, Control_c, 0, 64, 38
2, 100439, Control_c, 0, 64, 14
2, 100455, Control_c, 0, 64, 0
2, 100842, Control_c, 0, 64, 43
2, 100858, Control_c, 0, 64, 57
2, 100873, Control_c, 0, 64, 61
2, 100889, Control_c, 0, 64, 62
2, 100904, Control_c, 0, 64, 63
2, 100934, Control_c, 0, 64, 63
2, 100964, Control_c, 0, 64, 64
2, 101055, Control_c, 0, 64, 64
2, 101064, Note_on_c, 0, 78, 62
2, 101152, Note_on_c, 0, 76, 0
2, 101269, Control_c, 0, 64, 64
2, 101338, Control_c, 0, 64, 63
2, 101353, Control_c, 0, 64, 63
2, 101383, Control_c, 0, 64, 62
2, 101387, Note_on_c, 0, 44, 40
2, 101387, Note_on_c, 0, 76, 62
2, 101398, Control_c, 0, 64, 61
2, 101405, Note_on_c, 0, 73, 0
2, 101411, Note_on_c, 0, 72, 49
2, 101413, Control_c, 0, 64, 61
2, 101428, Control_c, 0, 64, 60
2, 101443, Control_c, 0, 64, 58
2, 101459, Control_c, 0, 64, 57
2, 101474, Control_c, 0, 64, 55
2, 101489, Control_c, 0, 64, 53
2, 101503, Note_on_c, 0, 75, 69
2, 101504, Control_c, 0, 64, 52
2, 101519, Control_c, 0, 64, 52
2, 101535, Control_c, 0, 64, 51
2, 101542, Note_on_c, 0, 76, 0
2, 101550, Control_c, 0, 64, 50
2, 101564, Control_c, 0, 64, 49
2, 101580, Control_c, 0, 64, 47
2, 101587, Note_on_c, 0, 75, 0
2, 101590, Note_on_c, 0, 73, 67
2, 101595, Control_c, 0, 64, 46
2, 101600, Note_on_c, 0, 78, 0
2, 101610, Control_c, 0, 64, 45
2, 101625, Control_c, 0, 64, 44
2, 101640, Control_c, 0, 64, 44
2, 101656, Control_c, 0, 64, 43
2, 101668, Note_on_c, 0, 75, 72
2, 101671, Control_c, 0, 64, 43
2, 101687, Control_c, 0, 64, 42
2, 101702, Control_c, 0, 64, 41
2, 101717, Control_c, 0, 64, 41
2, 101733, Control_c, 0, 64, 40
2, 101738, Note_on_c, 0, 73, 0
2, 101747, Control_c, 0, 64, 40
2, 101778, Control_c, 0, 64, 39
2, 101808, Control_c, 0, 64, 39
2, 101838, Control_c, 0, 64, 38
2, 102178, Note_on_c, 0, 73, 68
2, 102185, Note_on_c, 0, 46, 50
2, 102231, Note_on_c, 0, 75, 0
2, 102259, Note_on_c, 0, 72, 0
2, 102260, Note_on_c, 0, 56, 0
2, 102275, Note_on_c, 0, 44, 0
2, 102466, Note_on_c, 0, 71, 60
2, 102476, Note_on_c, 0, 56, 48
2, 102697, Note_on_c, 0, 55, 48
2, 102705, Note_on_c, 0, 70, 62
2, 102716, Note_on_c, 0, 56, 0
2, 102742, Note_on_c, 0, 71, 0
2, 102745, Control_c, 0, 64, 38
2, 102933, Note_on_c, 0, 68, 60
2, 102934, Note_on_c, 0, 55, 0
2, 102955, Note_on_c, 0, 56, 46
2, 102979, Note_on_c, 0, 70, 0
2, 103163, Note_on_c, 0, 67, 60
2, 103191, Note_on_c, 0, 58, 49
2, 103200, Note_on_c, 0, 68, 0
2, 103218, Note_on_c, 0, 56, 0
2, 103412, Note_on_c, 0, 68, 63
2, 103423, Note_on_c, 0, 51, 46
2, 103466, Note_on_c, 0, 67, 0
2, 103668, Note_on_c, 0, 58, 0
2, 103673, Note_on_c, 0, 52, 51
2, 103677, Note_on_c, 0, 67, 61
2, 103735, Note_on_c, 0, 51, 0
2, 103750, Note_on_c, 0, 68, 0
2, 103959, Control_c, 0, 64, 38
2, 104249, Control_c, 0, 64, 39
2, 104389, Note_on_c, 0, 47, 53
2, 104398, Note_on_c, 0, 76, 68
2, 104529, Note_on_c, 0, 46, 0
2, 104557, Note_on_c, 0, 73, 0
2, 104679, Note_on_c, 0, 49, 61
2, 104679, Note_on_c, 0, 75, 74
2, 104756, Note_on_c, 0, 47, 0
2, 104772, Note_on_c, 0, 76, 0
2, 105147, Note_on_c, 0, 43, 59
2, 105175, Note_on_c, 0, 76, 75
2, 105265, Note_on_c, 0, 75, 0
2, 105406, Note_on_c, 0, 68, 69
2, 105421, Note_on_c, 0, 51, 64
2, 105438, Note_on_c, 0, 49, 0
2, 105596, Note_on_c, 0, 67, 0
2, 105641, Note_on_c, 0, 70, 72
2, 105650, Note_on_c, 0, 49, 64
2, 105710, Note_on_c, 0, 68, 0
2, 105783, Control_c, 0, 64, 39
2, 105848, Note_on_c, 0, 52, 0
2, 105851, Note_on_c, 0, 68, 67
2, 105860, Note_on_c, 0, 47, 59
2, 105894, Note_on_c, 0, 51, 0
2, 105924, Note_on_c, 0, 70, 0
2, 105925, Note_on_c, 0, 49, 0
2, 106079, Note_on_c, 0, 71, 72
2, 106089, Note_on_c, 0, 49, 61
2, 106104, Note_on_c, 0, 68, 0
2, 106227, Note_on_c, 0, 47, 0
2, 106307, Note_on_c, 0, 52, 64
2, 106308, Note_on_c, 0, 70, 78
2, 106340, Control_c, 0, 64, 40
2, 106341, Note_on_c, 0, 71, 0
2, 106385, Control_c, 0, 64, 40
2, 106470, Note_on_c, 0, 49, 0
2, 106476, Control_c, 0, 64, 41
2, 106500, Note_on_c, 0, 70, 0
2, 106507, Control_c, 0, 64, 41
2, 106581, Note_on_c, 0, 70, 84
2, 106592, Note_on_c, 0, 55, 67
2, 106659, Control_c, 0, 64, 42
2, 106661, Note_on_c, 0, 52, 0
2, 106788, Control_c, 0, 64, 42
2, 106803, Control_c, 0, 64, 43
2, 106834, Control_c, 0, 64, 43
2, 106850, Control_c, 0, 64, 44
2, 106865, Control_c, 0, 64, 44
2, 106880, Control_c, 0, 64, 45
2, 106896, Control_c, 0, 64, 45
2, 106910, Control_c, 0, 64, 46
2, 106925, Control_c, 0, 64, 46
2, 106956, Control_c, 0, 64, 47
2, 106986, Control_c, 0, 64, 47
2, 107184, Control_c, 0, 64, 47
2, 107238, Note_on_c, 0, 44, 64
2, 107244, Control_c, 0, 64, 46
2, 107244, Note_on_c, 0, 72, 75
2, 107260, Control_c, 0, 64, 46
2, 107275, Control_c, 0, 64, 45
2, 107320, Control_c, 0, 64, 45
2, 107330, Note_on_c, 0, 43, 0
2, 107365, Control_c, 0, 64, 44
2, 107427, Control_c, 0, 64, 44
2, 107450, Control_c, 0, 64, 43
2, 107465, Control_c, 0, 64, 40
2, 107480, Control_c, 0, 64, 36
2, 107495, Control_c, 0, 64, 24
2, 107510, Control_c, 0, 64, 0
2, 107539, Note_on_c, 0, 46, 73
2, 107544, Note_on_c, 0, 73, 83
2, 107591, Note_on_c, 0, 76, 0
2, 107613, Note_on_c, 0, 44, 0
2, 107637, Note_on_c, 0, 72, 0
2, 107678, Control_c, 0, 64, 50
2, 107694, Control_c, 0, 64, 64
2, 107702, Note_on_c, 0, 55, 0
2, 107709, Control_c, 0, 64, 70
2, 107724, Control_c, 0, 64, 77
2, 107740, Control_c, 0, 64, 84
2, 107754, Control_c, 0, 64, 91
2, 107770, Control_c, 0, 64, 98
2, 107785, Control_c, 0, 64, 103
2, 107815, Control_c, 0, 64, 102
2, 107830, Control_c, 0, 64, 102
2, 107876, Control_c, 0, 64, 102
2, 107906, Control_c, 0, 64, 102
2, 107921, Control_c, 0, 64, 101
2, 107937, Control_c, 0, 64, 100
2, 107952, Control_c, 0, 64, 99
2, 107997, Control_c, 0, 64, 98
2, 108012, Control_c, 0, 64, 97
2, 108027, Control_c, 0, 64, 96
2, 108042, Control_c, 0, 64, 95
2, 108058, Control_c, 0, 64, 94
2, 108073, Control_c, 0, 64, 93
2, 108089, Control_c, 0, 64, 92
2, 108104, Control_c, 0, 64, 90
2, 108119, Control_c, 0, 64, 86
2, 108135, Control_c, 0, 64, 81
2, 108146, Note_on_c, 0, 79, 83
2, 108149, Control_c, 0, 64, 73
2, 108164, Control_c, 0, 64, 64
2, 108177, Note_on_c, 0, 39, 67
2, 108180, Control_c, 0, 64, 33
2, 108195, Control_c, 0, 64, 0
2, 108278, Note_on_c, 0, 46, 0
2, 108514, Note_on_c, 0, 75, 79
2, 108598, Control_c, 0, 64, 12
2, 108602, Note_on_c, 0, 73, 0
2, 108614, Control_c, 0, 64, 22
2, 108629, Control_c, 0, 64, 31
2, 108643, Control_c, 0, 64, 39
2, 108659, Control_c, 0, 64, 46
2, 108674, Control_c, 0, 64, 52
2, 108690, Control_c, 0, 64, 57
2, 108705, Control_c, 0, 64, 60
2, 108720, Control_c, 0, 64, 63
2, 108735, Control_c, 0, 64, 65
2, 108750, Control_c, 0, 64, 67
2, 108765, Control_c, 0, 64, 69
2, 108771, Note_on_c, 0, 76, 69
2, 108780, Control_c, 0, 64, 71
2, 108795, Control_c, 0, 64, 73
2, 108804, Note_on_c, 0, 75, 0
2, 108811, Control_c, 0, 64, 75
2, 108826, Control_c, 0, 64, 76
2, 108841, Control_c, 0, 64, 77
2, 108856, Control_c, 0, 64, 78
2, 108871, Control_c, 0, 64, 79
2, 108886, Control_c, 0, 64, 79
2, 108902, Control_c, 0, 64, 80
2, 108913, Note_on_c, 0, 39, 0
2, 108917, Control_c, 0, 64, 81
2, 108933, Control_c, 0, 64, 81
2, 108947, Control_c, 0, 64, 82
2, 109002, Note_on_c, 0, 75, 79
2, 109058, Note_on_c, 0, 76, 0
2, 109123, Control_c, 0, 64, 81
2, 109134, Note_on_c, 0, 70, 0
2, 109198, Control_c, 0, 64, 81
2, 109240, Note_on_c, 0, 73, 73
2, 109244, Control_c, 0, 64, 80
2, 109291, Control_c, 0, 64, 80
2, 109321, Control_c, 0, 64, 79
2, 109413, Control_c, 0, 64, 79
2, 109458, Control_c, 0, 64, 78
2, 109464, Note_on_c, 0, 71, 71
2, 109504, Control_c, 0, 64, 78
2, 109519, Control_c, 0, 64, 77
2, 109519, Note_on_c, 0, 75, 0
2, 109550, Control_c, 0, 64, 77
2, 109562, Note_on_c, 0, 73, 0
2, 109580, Control_c, 0, 64, 76
2, 109656, Control_c, 0, 64, 76
2, 109671, Control_c, 0, 64, 75
2, 109694, Note_on_c, 0, 70, 72
2, 109701, Control_c, 0, 64, 75
2, 109716, Control_c, 0, 64, 74
2, 109732, Control_c, 0, 64, 73
2, 109754, Control_c, 0, 64, 73
2, 109770, Control_c, 0, 64, 72
2, 109785, Control_c, 0, 64, 71
2, 109800, Control_c, 0, 64, 71
2, 109816, Control_c, 0, 64, 70
2, 109845, Control_c, 0, 64, 69
2, 109860, Control_c, 0, 64, 69
2, 109875, Control_c, 0, 64, 68
2, 109891, Control_c, 0, 64, 66
2, 109905, Control_c, 0, 64, 66
2, 109920, Control_c, 0, 64, 65
2, 109921, Note_on_c, 0, 68, 74
2, 109951, Control_c, 0, 64, 65
2, 109981, Control_c, 0, 64, 64
2, 110012, Control_c, 0, 64, 64
2, 110032, Note_on_c, 0, 70, 0
2, 110042, Control_c, 0, 64, 63
2, 110103, Control_c, 0, 64, 63
2, 110134, Control_c, 0, 64, 62
2, 110164, Control_c, 0, 64, 62
2, 110168, Note_on_c, 0, 67, 68
2, 110195, Control_c, 0, 64, 61
2, 110218, Note_on_c, 0, 68, 0
2, 110226, Control_c, 0, 64, 61
2, 110256, Control_c, 0, 64, 60
2, 110302, Control_c, 0, 64, 60
2, 110317, Control_c, 0, 64, 59
2, 110362, Control_c, 0, 64, 59
2, 110384, Note_on_c, 0, 65, 69
2, 110432, Note_on_c, 0, 67, 0
2, 110483, Control_c, 0, 64, 58
2, 110597, Control_c, 0, 64, 58
2, 110646, Note_on_c, 0, 72, 67
2, 110650, Note_on_c, 0, 80, 70
2, 110658, Note_on_c, 0, 66, 57
2, 110679, Note_on_c, 0, 79, 0
2, 110688, Note_on_c, 0, 65, 0
2, 110726, Note_on_c, 0, 71, 0
2, 110825, Control_c, 0, 64, 58
2, 110856, Control_c, 0, 64, 59
2, 110885, Control_c, 0, 64, 59
2, 110899, Note_on_c, 0, 63, 70
2, 110901, Control_c, 0, 64, 60
2, 110916, Control_c, 0, 64, 60
2, 110933, Control_c, 0, 64, 61
2, 110948, Control_c, 0, 64, 62
2, 110963, Control_c, 0, 64, 63
2, 110993, Control_c, 0, 64, 63
2, 111024, Control_c, 0, 64, 64
2, 111035, Note_on_c, 0, 66, 0
2, 111069, Control_c, 0, 64, 63
2, 111115, Control_c, 0, 64, 63
2, 111146, Control_c, 0, 64, 62
2, 111161, Control_c, 0, 64, 62
2, 111191, Control_c, 0, 64, 61
2, 111206, Control_c, 0, 64, 61
2, 111213, Note_on_c, 0, 73, 74
2, 111222, Control_c, 0, 64, 60
2, 111236, Control_c, 0, 64, 60
2, 111236, Note_on_c, 0, 64, 53
2, 111252, Control_c, 0, 64, 59
2, 111267, Control_c, 0, 64, 59
2, 111294, Note_on_c, 0, 72, 0
2, 111305, Control_c, 0, 64, 58
2, 111314, Note_on_c, 0, 63, 0
2, 111350, Control_c, 0, 64, 58
2, 111396, Control_c, 0, 64, 57
2, 111441, Control_c, 0, 64, 57
2, 111470, Note_on_c, 0, 63, 46
2, 111479, Note_on_c, 0, 71, 55
2, 111488, Control_c, 0, 64, 56
2, 111517, Control_c, 0, 64, 56
2, 111518, Note_on_c, 0, 80, 0
2, 111540, Note_on_c, 0, 64, 0
2, 111548, Control_c, 0, 64, 55
2, 111624, Control_c, 0, 64, 55
2, 111708, Note_on_c, 0, 61, 56
2, 111708, Note_on_c, 0, 69, 51
2, 111733, Note_on_c, 0, 71, 0
2, 111873, Note_on_c, 0, 63, 0
2, 111952, Note_on_c, 0, 68, 60
2, 111972, Note_on_c, 0, 59, 50
2, 111975, Note_on_c, 0, 69, 0
2, 111992, Note_on_c, 0, 61, 0
2, 112213, Note_on_c, 0, 57, 51
2, 112217, Note_on_c, 0, 66, 49
2, 112243, Note_on_c, 0, 59, 0
2, 112244, Note_on_c, 0, 68, 0
2, 112469, Note_on_c, 0, 69, 54
2, 112498, Note_on_c, 0, 54, 44
2, 112504, Note_on_c, 0, 57, 0
2, 112564, Note_on_c, 0, 66, 0
2, 112746, Note_on_c, 0, 54, 0
2, 112753, Note_on_c, 0, 64, 49
2, 112770, Note_on_c, 0, 56, 39
2, 112802, Control_c, 0, 64, 54
2, 112841, Control_c, 0, 64, 54
2, 112857, Control_c, 0, 64, 53
2, 112933, Control_c, 0, 64, 53
2, 112945, Note_on_c, 0, 69, 0
2, 113020, Note_on_c, 0, 51, 52
2, 113039, Control_c, 0, 64, 52
2, 113084, Note_on_c, 0, 56, 0
2, 113298, Control_c, 0, 64, 52
2, 113320, Note_on_c, 0, 52, 51
2, 113373, Note_on_c, 0, 51, 0
2, 113663, Note_on_c, 0, 75, 64
2, 113664, Note_on_c, 0, 66, 49
2, 113677, Note_on_c, 0, 49, 47
2, 113686, Control_c, 0, 64, 52
2, 113768, Note_on_c, 0, 73, 0
2, 113776, Control_c, 0, 64, 53
2, 113778, Note_on_c, 0, 64, 0
2, 113791, Control_c, 0, 64, 55
2, 113806, Control_c, 0, 64, 58
2, 113822, Control_c, 0, 64, 60
2, 113837, Control_c, 0, 64, 62
2, 113852, Control_c, 0, 64, 64
2, 113867, Control_c, 0, 64, 67
2, 113882, Control_c, 0, 64, 70
2, 113898, Control_c, 0, 64, 74
2, 113912, Control_c, 0, 64, 77
2, 113928, Control_c, 0, 64, 78
2, 113958, Control_c, 0, 64, 78
2, 113974, Control_c, 0, 64, 77
2, 113989, Control_c, 0, 64, 76
2, 114020, Control_c, 0, 64, 75
2, 114035, Control_c, 0, 64, 75
2, 114044, Note_on_c, 0, 72, 66
2, 114050, Control_c, 0, 64, 74
2, 114052, Note_on_c, 0, 63, 45
2, 114065, Control_c, 0, 64, 71
2, 114066, Note_on_c, 0, 44, 42
2, 114080, Control_c, 0, 64, 68
2, 114096, Control_c, 0, 64, 64
2, 114110, Control_c, 0, 64, 58
2, 114111, Note_on_c, 0, 66, 0
2, 114125, Control_c, 0, 64, 50
2, 114141, Control_c, 0, 64, 43
2, 114142, Note_on_c, 0, 49, 0
2, 114156, Control_c, 0, 64, 39
2, 114171, Control_c, 0, 64, 35
2, 114186, Control_c, 0, 64, 25
2, 114202, Control_c, 0, 64, 0
2, 114231, Note_on_c, 0, 52, 0
2, 114451, Note_on_c, 0, 66, 48
2, 114478, Note_on_c, 0, 56, 30
2, 114514, Control_c, 0, 64, 10
2, 114530, Control_c, 0, 64, 28
2, 114544, Control_c, 0, 64, 38
2, 114554, Note_on_c, 0, 75, 0
2, 114559, Control_c, 0, 64, 47
2, 114575, Control_c, 0, 64, 54
2, 114590, Control_c, 0, 64, 59
2, 114605, Control_c, 0, 64, 64
2, 114620, Control_c, 0, 64, 67
2, 114635, Control_c, 0, 64, 71
2, 114651, Control_c, 0, 64, 76
2, 114666, Control_c, 0, 64, 81
2, 114681, Control_c, 0, 64, 84
2, 114696, Control_c, 0, 64, 86
2, 114711, Control_c, 0, 64, 86
2, 114726, Control_c, 0, 64, 85
2, 114741, Control_c, 0, 64, 85
2, 114756, Control_c, 0, 64, 84
2, 114802, Control_c, 0, 64, 84
2, 114818, Control_c, 0, 64, 82
2, 114833, Control_c, 0, 64, 81
2, 114849, Control_c, 0, 64, 80
2, 114864, Control_c, 0, 64, 79
2, 114878, Control_c, 0, 64, 78
2, 114894, Control_c, 0, 64, 77
2, 114896, Note_on_c, 0, 73, 66
2, 114908, Note_on_c, 0, 61, 52
2, 114909, Control_c, 0, 64, 74
2, 114919, Note_on_c, 0, 49, 52
2, 114924, Control_c, 0, 64, 72
2, 114930, Note_on_c, 0, 63, 0
2, 114940, Control_c, 0, 64, 68
2, 114954, Control_c, 0, 64, 64
2, 114956, Note_on_c, 0, 56, 0
2, 114970, Control_c, 0, 64, 58
2, 114970, Note_on_c, 0, 72, 0
2, 114985, Control_c, 0, 64, 52
2, 115000, Control_c, 0, 64, 49
2, 115017, Control_c, 0, 64, 48
2, 115024, Note_on_c, 0, 44, 0
2, 115031, Control_c, 0, 64, 48
2, 115077, Control_c, 0, 64, 47
2, 115160, Control_c, 0, 64, 48
2, 115251, Control_c, 0, 64, 48
2, 115308, Note_on_c, 0, 68, 49
2, 115646, Control_c, 0, 64, 48
2, 115656, Note_on_c, 0, 69, 48
2, 115671, Note_on_c, 0, 54, 41
2, 115710, Note_on_c, 0, 68, 0
2, 115746, Note_on_c, 0, 66, 0
2, 115813, Control_c, 0, 64, 47
2, 115943, Control_c, 0, 64, 47
2, 116050, Control_c, 0, 64, 46
2, 116064, Note_on_c, 0, 66, 45
2, 116155, Control_c, 0, 64, 46
2, 116169, Note_on_c, 0, 61, 0
2, 116246, Control_c, 0, 64, 45
2, 116293, Control_c, 0, 64, 45
2, 116338, Control_c, 0, 64, 44
2, 116383, Control_c, 0, 64, 44
2, 116414, Control_c, 0, 64, 43
2, 116444, Control_c, 0, 64, 43
2, 116474, Control_c, 0, 64, 42
2, 116490, Control_c, 0, 64, 42
2, 116536, Control_c, 0, 64, 41
2, 116539, Note_on_c, 0, 63, 38
2, 116556, Note_on_c, 0, 57, 36
2, 116596, Control_c, 0, 64, 41
2, 116604, Note_on_c, 0, 69, 0
2, 116627, Control_c, 0, 64, 40
2, 116636, Note_on_c, 0, 54, 0
2, 117097, Note_on_c, 0, 72, 45
2, 117212, Control_c, 0, 64, 41
2, 117227, Control_c, 0, 64, 43
2, 117228, Note_on_c, 0, 73, 0
2, 117242, Control_c, 0, 64, 45
2, 117258, Control_c, 0, 64, 47
2, 117272, Control_c, 0, 64, 49
2, 117288, Control_c, 0, 64, 51
2, 117303, Control_c, 0, 64, 53
2, 117318, Control_c, 0, 64, 55
2, 117334, Control_c, 0, 64, 57
2, 117349, Control_c, 0, 64, 60
2, 117364, Control_c, 0, 64, 62
2, 117380, Control_c, 0, 64, 63
2, 117395, Control_c, 0, 64, 65
2, 117410, Control_c, 0, 64, 67
2, 117432, Control_c, 0, 64, 69
2, 117448, Control_c, 0, 64, 72
2, 117463, Control_c, 0, 64, 76
2, 117478, Control_c, 0, 64, 79
2, 117495, Control_c, 0, 64, 83
2, 117509, Control_c, 0, 64, 86
2, 117509, Note_on_c, 0, 63, 0
2, 117524, Control_c, 0, 64, 89
2, 117540, Control_c, 0, 64, 92
2, 117555, Control_c, 0, 64, 93
2, 117585, Control_c, 0, 64, 93
2, 117631, Control_c, 0, 64, 92
2, 117645, Control_c, 0, 64, 91
2, 117661, Control_c, 0, 64, 90
2, 117676, Control_c, 0, 64, 90
2, 117692, Control_c, 0, 64, 89
2, 117707, Control_c, 0, 64, 89
2, 117722, Control_c, 0, 64, 88
2, 117738, Control_c, 0, 64, 87
2, 117752, Control_c, 0, 64, 85
2, 117768, Control_c, 0, 64, 83
2, 117783, Control_c, 0, 64, 81
2, 117798, Control_c, 0, 64, 79
2, 117814, Control_c, 0, 64, 77
2, 117829, Control_c, 0, 64, 75
2, 117832, Note_on_c, 0, 65, 26
2, 117832, Note_on_c, 0, 73, 45
2, 117839, Note_on_c, 0, 68, 34
2, 117841, Note_on_c, 0, 56, 33
2, 117843, Control_c, 0, 64, 72
2, 117859, Control_c, 0, 64, 69
2, 117874, Control_c, 0, 64, 66
2, 117890, Control_c, 0, 64, 63
2, 117905, Control_c, 0, 64, 62
2, 117919, Control_c, 0, 64, 61
2, 117937, Note_on_c, 0, 72, 0
2, 117964, Control_c, 0, 64, 61
2, 117980, Control_c, 0, 64, 60
2, 117980, Note_on_c, 0, 57, 0
2, 117995, Control_c, 0, 64, 60
2, 117997, Note_on_c, 0, 66, 0
2, 118011, Control_c, 0, 64, 59
2, 118026, Control_c, 0, 64, 57
2, 118040, Control_c, 0, 64, 56
2, 118056, Control_c, 0, 64, 55
2, 118071, Control_c, 0, 64, 55
2, 118086, Control_c, 0, 64, 54
2, 118116, Control_c, 0, 64, 54
2, 118147, Control_c, 0, 64, 53
2, 118162, Control_c, 0, 64, 53
2, 118178, Control_c, 0, 64, 52
2, 118231, Control_c, 0, 64, 52
2, 118261, Control_c, 0, 64, 51
2, 118292, Control_c, 0, 64, 51
2, 118323, Control_c, 0, 64, 50
2, 118353, Control_c, 0, 64, 50
2, 118444, Control_c, 0, 64, 49
2, 118642, Control_c, 0, 64, 49
2, 118673, Control_c, 0, 64, 48
2, 118718, Control_c, 0, 64, 48
2, 118749, Control_c, 0, 64, 47
2, 118763, Control_c, 0, 64, 47
2, 118839, Control_c, 0, 64, 46
2, 118999, Control_c, 0, 64, 47
2, 119029, Control_c, 0, 64, 48
2, 119044, Control_c, 0, 64, 49
2, 119060, Control_c, 0, 64, 50
2, 119075, Control_c, 0, 64, 51
2, 119090, Control_c, 0, 64, 52
2, 119105, Control_c, 0, 64, 53
2, 119121, Control_c, 0, 64, 54
2, 119137, Control_c, 0, 64, 56
2, 119152, Control_c, 0, 64, 57
2, 119168, Control_c, 0, 64, 59
2, 119183, Control_c, 0, 64, 60
2, 119197, Control_c, 0, 64, 62
2, 119213, Control_c, 0, 64, 63
2, 119228, Control_c, 0, 64, 65
2, 119243, Control_c, 0, 64, 66
2, 119258, Control_c, 0, 64, 67
2, 119273, Control_c, 0, 64, 69
2, 119289, Control_c, 0, 64, 71
2, 119304, Control_c, 0, 64, 72
2, 119319, Control_c, 0, 64, 74
2, 119334, Control_c, 0, 64, 76
2, 119349, Control_c, 0, 64, 77
2, 119364, Control_c, 0, 64, 79
2, 119380, Control_c, 0, 64, 80
2, 119395, Control_c, 0, 64, 82
2, 119410, Control_c, 0, 64, 84
2, 119425, Control_c, 0, 64, 86
2, 119440, Control_c, 0, 64, 88
2, 119456, Control_c, 0, 64, 89
2, 119471, Control_c, 0, 64, 89
2, 119502, Control_c, 0, 64, 90
2, 119532, Control_c, 0, 64, 91
2, 119547, Control_c, 0, 64, 91
2, 119651, Note_on_c, 0, 49, 0
2, 119653, Control_c, 0, 64, 91
2, 119662, Note_on_c, 0, 56, 0
2, 119683, Control_c, 0, 64, 90
2, 119699, Control_c, 0, 64, 90
2, 119715, Note_on_c, 0, 65, 0
2, 119737, Control_c, 0, 64, 89
2, 119752, Control_c, 0, 64, 89
2, 119760, Note_on_c, 0, 73, 0
2, 119768, Control_c, 0, 64, 88
2, 119783, Control_c, 0, 64, 88
2, 119798, Control_c, 0, 64, 87
2, 119809, Note_on_c, 0, 68, 0
2, 119843, Control_c, 0, 64, 87
2, 119874, Control_c, 0, 64, 86
2, 119890, Control_c, 0, 64, 86
2, 119905, Control_c, 0, 64, 85
2, 119920, Control_c, 0, 64, 85
2, 119936, Control_c, 0, 64, 84
2, 119951, Control_c, 0, 64, 84
2, 119966, Control_c, 0, 64, 83
2, 119982, Control_c, 0, 64, 83
2, 119996, Control_c, 0, 64, 82
2, 120012, Control_c, 0, 64, 81
2, 120027, Control_c, 0, 64, 81
2, 120042, Control_c, 0, 64, 80
2, 120058, Control_c, 0, 64, 80
2, 120073, Control_c, 0, 64, 79
2, 120088, Control_c, 0, 64, 78
2, 120103, Control_c, 0, 64, 77
2, 120118, Control_c, 0, 64, 76
2, 120134, Control_c, 0, 64, 75
2, 120149, Control_c, 0, 64, 74
2, 120164, Control_c, 0, 64, 72
2, 120179, Control_c, 0, 64, 69
2, 120194, Control_c, 0, 64, 68
2, 120210, Control_c, 0, 64, 67
2, 120225, Control_c, 0, 64, 67
2, 120270, Control_c, 0, 64, 66
2, 120300, Control_c, 0, 64, 66
2, 120361, Control_c, 0, 64, 65
2, 120376, Control_c, 0, 64, 65
2, 120391, Control_c, 0, 64, 64
2, 120422, Control_c, 0, 64, 64
2, 120437, Control_c, 0, 64, 63
2, 120468, Control_c, 0, 64, 63
2, 120482, Control_c, 0, 64, 62
2, 120520, Control_c, 0, 64, 62
2, 120536, Control_c, 0, 64, 61
2, 120551, Control_c, 0, 64, 60
2, 120566, Control_c, 0, 64, 59
2, 120581, Control_c, 0, 64, 58
2, 120596, Control_c, 0, 64, 57
2, 120612, Control_c, 0, 64, 56
2, 120627, Control_c, 0, 64, 55
2, 120641, Control_c, 0, 64, 54
2, 120657, Control_c, 0, 64, 53
2, 120672, Control_c, 0, 64, 51
2, 120688, Control_c, 0, 64, 50
2, 120703, Control_c, 0, 64, 48
2, 120717, Control_c, 0, 64, 47
2, 120733, Control_c, 0, 64, 46
2, 120748, Control_c, 0, 64, 45
2, 120764, Control_c, 0, 64, 43
2, 120780, Control_c, 0, 64, 41
2, 120794, Control_c, 0, 64, 39
2, 120810, Control_c, 0, 64, 37
2, 120825, Control_c, 0, 64, 37
2, 120840, Control_c, 0, 64, 36
2, 120856, Control_c, 0, 64, 36
2, 120871, Control_c, 0, 64, 35
2, 120885, Control_c, 0, 64, 35
2, 120901, Control_c, 0, 64, 34
2, 121053, Control_c, 0, 64, 34
2, 121251, Control_c, 0, 64, 35
2, 121638, Control_c, 0, 64, 34
2, 121866, Control_c, 0, 64, 34
2, 121881, Control_c, 0, 64, 33
2, 121897, Control_c, 0, 64, 32
2, 121911, Control_c, 0, 64, 29
2, 121926, Control_c, 0, 64, 24
2, 121942, Control_c, 0, 64, 15
2, 121957, Control_c, 0, 64, 0
2, 122002, Control_c, 0, 67, 9
2, 122018, Control_c, 0, 67, 20
2, 122041, Control_c, 0, 67, 36
2, 122057, Control_c, 0, 67, 56
2, 122071, Control_c, 0, 67, 75
2, 122086, Control_c, 0, 67, 97
2, 122102, Control_c, 0, 67, 115
2, 122116, Control_c, 0, 67, 127
2, 124306,End_track
0, 0, End_of_file
