0, 0, Header, 1, 2, 384
1, 0, Start_track
1, 0, Tempo, 500000
1, 0, Time_signature, 4, 2, 24, 8
1, 1, End_track
2, 0, Start_track
2, 0, Title_t," ""Woo04-07.MID"""
2, 0, Program_c, 0, 0
2, 0, Control_c, 0, 64, 0
2, 0, Control_c, 0, 67, 0
2, 822, Note_on_c, 0, 49, 37
2, 825, Note_on_c, 0, 68, 47
2, 1012, Note_on_c, 0, 66, 54
2, 1126, Note_on_c, 0, 68, 0
2, 1188, Note_on_c, 0, 64, 49
2, 1189, Note_on_c, 0, 66, 0
2, 1338, Note_on_c, 0, 64, 0
2, 1362, Note_on_c, 0, 63, 51
2, 1517, Note_on_c, 0, 63, 0
2, 1535, Note_on_c, 0, 64, 58
2, 1651, Note_on_c, 0, 64, 0
2, 1689, Note_on_c, 0, 61, 56
2, 1801, Note_on_c, 0, 61, 0
2, 1806, Note_on_c, 0, 64, 51
2, 1864, Note_on_c, 0, 68, 58
2, 1941, Note_on_c, 0, 73, 61
2, 2518, Note_on_c, 0, 68, 0
2, 2551, Note_on_c, 0, 71, 51
2, 2695, Note_on_c, 0, 64, 0
2, 2737, Note_on_c, 0, 69, 49
2, 2739, Note_on_c, 0, 66, 45
2, 2744, Note_on_c, 0, 73, 0
2, 2746, Note_on_c, 0, 71, 0
2, 2811, Control_c, 0, 64, 34
2, 2827, Control_c, 0, 64, 65
2, 2842, Control_c, 0, 64, 74
2, 2858, Control_c, 0, 64, 85
2, 2873, Control_c, 0, 64, 96
2, 2887, Control_c, 0, 64, 102
2, 2903, Control_c, 0, 64, 105
2, 2918, Control_c, 0, 64, 106
2, 2933, Control_c, 0, 64, 107
2, 2938, Note_on_c, 0, 69, 0
2, 2949, Control_c, 0, 64, 108
2, 2964, Control_c, 0, 64, 110
2, 2970, Note_on_c, 0, 66, 0
2, 2980, Control_c, 0, 64, 110
2, 3145, Note_on_c, 0, 64, 39
2, 3147, Control_c, 0, 64, 109
2, 3149, Note_on_c, 0, 69, 50
2, 3154, Note_on_c, 0, 56, 39
2, 3162, Control_c, 0, 64, 105
2, 3178, Control_c, 0, 64, 100
2, 3181, Note_on_c, 0, 69, 0
2, 3193, Control_c, 0, 64, 92
2, 3202, Note_on_c, 0, 68, 68
2, 3208, Control_c, 0, 64, 82
2, 3223, Control_c, 0, 64, 69
2, 3238, Control_c, 0, 64, 0
2, 3260, Note_on_c, 0, 68, 0
2, 3266, Note_on_c, 0, 69, 69
2, 3311, Note_on_c, 0, 69, 0
2, 3316, Note_on_c, 0, 68, 45
2, 3333, Note_on_c, 0, 54, 35
2, 3398, Note_on_c, 0, 56, 0
2, 3519, Note_on_c, 0, 52, 48
2, 3546, Note_on_c, 0, 54, 0
2, 3671, Note_on_c, 0, 52, 0
2, 3688, Note_on_c, 0, 51, 50
2, 3853, Note_on_c, 0, 52, 60
2, 3857, Note_on_c, 0, 51, 0
2, 3896, Note_on_c, 0, 49, 0
2, 4009, Note_on_c, 0, 52, 0
2, 4010, Note_on_c, 0, 49, 61
2, 4145, Note_on_c, 0, 52, 52
2, 4181, Note_on_c, 0, 52, 0
2, 4188, Note_on_c, 0, 56, 64
2, 4270, Note_on_c, 0, 61, 58
2, 4279, Note_on_c, 0, 56, 0
2, 4842, Note_on_c, 0, 59, 47
2, 4860, Note_on_c, 0, 61, 0
2, 5005, Note_on_c, 0, 59, 0
2, 5024, Note_on_c, 0, 57, 45
2, 5028, Note_on_c, 0, 66, 63
2, 5069, Note_on_c, 0, 68, 0
2, 5119, Note_on_c, 0, 64, 0
2, 5419, Note_on_c, 0, 56, 47
2, 5429, Note_on_c, 0, 48, 48
2, 5437, Note_on_c, 0, 75, 60
2, 5459, Note_on_c, 0, 66, 0
2, 5465, Note_on_c, 0, 49, 0
2, 5490, Note_on_c, 0, 57, 0
2, 5624, Note_on_c, 0, 73, 58
2, 5676, Note_on_c, 0, 75, 0
2, 5795, Note_on_c, 0, 72, 66
2, 5841, Note_on_c, 0, 73, 0
2, 5964, Note_on_c, 0, 72, 0
2, 5966, Note_on_c, 0, 70, 67
2, 6148, Note_on_c, 0, 72, 67
2, 6150, Note_on_c, 0, 70, 0
2, 6172, Control_c, 0, 64, 41
2, 6188, Control_c, 0, 64, 64
2, 6203, Control_c, 0, 64, 73
2, 6219, Control_c, 0, 64, 81
2, 6233, Control_c, 0, 64, 86
2, 6249, Control_c, 0, 64, 89
2, 6265, Control_c, 0, 64, 90
2, 6267, Note_on_c, 0, 72, 0
2, 6280, Control_c, 0, 64, 90
2, 6297, Note_on_c, 0, 68, 70
2, 6331, Note_on_c, 0, 68, 0
2, 6341, Control_c, 0, 64, 90
2, 6356, Control_c, 0, 64, 89
2, 6370, Control_c, 0, 64, 87
2, 6386, Control_c, 0, 64, 83
2, 6401, Control_c, 0, 64, 74
2, 6403, Note_on_c, 0, 68, 62
2, 6417, Control_c, 0, 64, 62
2, 6432, Control_c, 0, 64, 0
2, 6477, Note_on_c, 0, 75, 64
2, 6545, Note_on_c, 0, 80, 72
2, 6820, Control_c, 0, 64, 40
2, 6835, Control_c, 0, 64, 59
2, 6850, Control_c, 0, 64, 65
2, 6865, Control_c, 0, 64, 69
2, 6880, Control_c, 0, 64, 75
2, 6896, Control_c, 0, 64, 80
2, 6910, Control_c, 0, 64, 83
2, 6925, Control_c, 0, 64, 85
2, 6941, Control_c, 0, 64, 85
2, 6956, Control_c, 0, 64, 86
2, 6986, Control_c, 0, 64, 86
2, 6990, Note_on_c, 0, 75, 0
2, 7001, Control_c, 0, 64, 87
2, 7017, Control_c, 0, 64, 87
2, 7131, Note_on_c, 0, 68, 0
2, 7131, Note_on_c, 0, 78, 64
2, 7187, Note_on_c, 0, 48, 0
2, 7245, Control_c, 0, 64, 87
2, 7261, Control_c, 0, 64, 86
2, 7276, Control_c, 0, 64, 83
2, 7291, Control_c, 0, 64, 78
2, 7306, Control_c, 0, 64, 70
2, 7321, Control_c, 0, 64, 42
2, 7321, Note_on_c, 0, 49, 42
2, 7327, Note_on_c, 0, 76, 55
2, 7330, Note_on_c, 0, 73, 50
2, 7335, Note_on_c, 0, 80, 0
2, 7337, Control_c, 0, 64, 0
2, 7338, Note_on_c, 0, 61, 34
2, 7340, Note_on_c, 0, 68, 36
2, 7359, Note_on_c, 0, 56, 0
2, 7450, Control_c, 0, 64, 48
2, 7455, Note_on_c, 0, 78, 0
2, 7466, Control_c, 0, 64, 69
2, 7469, Note_on_c, 0, 76, 0
2, 7481, Control_c, 0, 64, 84
2, 7483, Note_on_c, 0, 49, 0
2, 7497, Control_c, 0, 64, 97
2, 7500, Note_on_c, 0, 73, 0
2, 7506, Note_on_c, 0, 61, 0
2, 7508, Note_on_c, 0, 68, 0
2, 7511, Control_c, 0, 64, 108
2, 7526, Control_c, 0, 64, 113
2, 7542, Control_c, 0, 64, 115
2, 7556, Control_c, 0, 64, 118
2, 7571, Control_c, 0, 64, 123
2, 7587, Control_c, 0, 64, 127
2, 7724, Note_on_c, 0, 68, 49
2, 7725, Note_on_c, 0, 76, 53
2, 7733, Note_on_c, 0, 72, 47
2, 7737, Note_on_c, 0, 56, 40
2, 7745, Note_on_c, 0, 63, 42
2, 7753, Control_c, 0, 64, 112
2, 7768, Control_c, 0, 64, 99
2, 7784, Control_c, 0, 64, 87
2, 7799, Control_c, 0, 64, 75
2, 7804, Note_on_c, 0, 75, 64
2, 7815, Control_c, 0, 64, 56
2, 7826, Note_on_c, 0, 76, 0
2, 7829, Control_c, 0, 64, 0
2, 7916, Note_on_c, 0, 61, 51
2, 7980, Note_on_c, 0, 63, 0
2, 8102, Note_on_c, 0, 60, 59
2, 8117, Note_on_c, 0, 61, 0
2, 8272, Note_on_c, 0, 58, 61
2, 8282, Note_on_c, 0, 60, 0
2, 8453, Note_on_c, 0, 60, 55
2, 8464, Note_on_c, 0, 58, 0
2, 8482, Note_on_c, 0, 56, 0
2, 8593, Note_on_c, 0, 60, 0
2, 8601, Note_on_c, 0, 56, 57
2, 8709, Note_on_c, 0, 60, 51
2, 8743, Note_on_c, 0, 60, 0
2, 8753, Note_on_c, 0, 63, 62
2, 8824, Note_on_c, 0, 63, 0
2, 8825, Note_on_c, 0, 66, 60
2, 9391, Note_on_c, 0, 72, 0
2, 9416, Note_on_c, 0, 64, 56
2, 9438, Note_on_c, 0, 68, 0
2, 9502, Note_on_c, 0, 66, 0
2, 9608, Note_on_c, 0, 63, 47
2, 9623, Note_on_c, 0, 64, 0
2, 9624, Note_on_c, 0, 68, 47
2, 9624, Note_on_c, 0, 80, 59
2, 9625, Note_on_c, 0, 72, 58
2, 9661, Note_on_c, 0, 75, 0
2, 9769, Control_c, 0, 64, 57
2, 9785, Control_c, 0, 64, 68
2, 9800, Control_c, 0, 64, 77
2, 9808, Note_on_c, 0, 80, 0
2, 9816, Control_c, 0, 64, 86
2, 9831, Control_c, 0, 64, 95
2, 9846, Control_c, 0, 64, 106
2, 9862, Control_c, 0, 64, 114
2, 9877, Control_c, 0, 64, 121
2, 9885, Note_on_c, 0, 68, 0
2, 9891, Control_c, 0, 64, 127
2, 9983, Control_c, 0, 64, 121
2, 9998, Control_c, 0, 64, 114
2, 10012, Control_c, 0, 64, 106
2, 10018, Note_on_c, 0, 72, 0
2, 10020, Note_on_c, 0, 75, 59
2, 10028, Control_c, 0, 64, 96
2, 10030, Note_on_c, 0, 64, 43
2, 10032, Note_on_c, 0, 69, 54
2, 10043, Control_c, 0, 64, 86
2, 10059, Control_c, 0, 64, 74
2, 10074, Control_c, 0, 64, 59
2, 10075, Note_on_c, 0, 63, 0
2, 10088, Control_c, 0, 64, 0
2, 10088, Note_on_c, 0, 73, 60
2, 10103, Note_on_c, 0, 75, 0
2, 10165, Note_on_c, 0, 73, 0
2, 10183, Note_on_c, 0, 72, 60
2, 10385, Note_on_c, 0, 73, 62
2, 10396, Note_on_c, 0, 72, 0
2, 10573, Note_on_c, 0, 73, 0
2, 10581, Note_on_c, 0, 76, 66
2, 10798, Note_on_c, 0, 81, 62
2, 10806, Note_on_c, 0, 76, 0
2, 10847, Note_on_c, 0, 69, 0
2, 10963, Control_c, 0, 64, 56
2, 10979, Control_c, 0, 64, 65
2, 10993, Control_c, 0, 64, 69
2, 11008, Control_c, 0, 64, 75
2, 11024, Control_c, 0, 64, 78
2, 11039, Control_c, 0, 64, 80
2, 11055, Control_c, 0, 64, 81
2, 11069, Control_c, 0, 64, 81
2, 11100, Control_c, 0, 64, 82
2, 11130, Control_c, 0, 64, 81
2, 11177, Control_c, 0, 64, 80
2, 11192, Control_c, 0, 64, 78
2, 11195, Note_on_c, 0, 63, 39
2, 11200, Note_on_c, 0, 54, 35
2, 11206, Control_c, 0, 64, 74
2, 11210, Note_on_c, 0, 69, 48
2, 11222, Control_c, 0, 64, 67
2, 11245, Control_c, 0, 64, 37
2, 11261, Control_c, 0, 64, 0
2, 11265, Note_on_c, 0, 56, 0
2, 11292, Note_on_c, 0, 64, 0
2, 11420, Note_on_c, 0, 80, 58
2, 11460, Note_on_c, 0, 81, 0
2, 11599, Note_on_c, 0, 80, 0
2, 11610, Control_c, 0, 64, 59
2, 11610, Note_on_c, 0, 78, 61
2, 11625, Control_c, 0, 64, 62
2, 11640, Control_c, 0, 64, 63
2, 11656, Control_c, 0, 64, 64
2, 11686, Control_c, 0, 64, 63
2, 11701, Control_c, 0, 64, 62
2, 11716, Control_c, 0, 64, 58
2, 11731, Control_c, 0, 64, 49
2, 11747, Control_c, 0, 64, 32
2, 11762, Control_c, 0, 64, 0
2, 11767, Note_on_c, 0, 78, 0
2, 11794, Note_on_c, 0, 76, 62
2, 11951, Note_on_c, 0, 76, 0
2, 11967, Note_on_c, 0, 75, 59
2, 12105, Control_c, 0, 64, 61
2, 12120, Control_c, 0, 64, 68
2, 12135, Control_c, 0, 64, 76
2, 12148, Note_on_c, 0, 75, 0
2, 12149, Note_on_c, 0, 73, 63
2, 12150, Control_c, 0, 64, 82
2, 12165, Control_c, 0, 64, 86
2, 12169, Note_on_c, 0, 73, 0
2, 12170, Note_on_c, 0, 69, 0
2, 12181, Control_c, 0, 64, 88
2, 12196, Control_c, 0, 64, 89
2, 12210, Control_c, 0, 64, 89
2, 12226, Control_c, 0, 64, 90
2, 12332, Control_c, 0, 64, 89
2, 12343, Note_on_c, 0, 73, 52
2, 12347, Control_c, 0, 64, 89
2, 12360, Note_on_c, 0, 68, 60
2, 12362, Control_c, 0, 64, 86
2, 12378, Control_c, 0, 64, 80
2, 12393, Control_c, 0, 64, 69
2, 12399, Note_on_c, 0, 71, 61
2, 12408, Control_c, 0, 64, 0
2, 12424, Note_on_c, 0, 73, 0
2, 12504, Note_on_c, 0, 69, 66
2, 12515, Note_on_c, 0, 71, 0
2, 12670, Note_on_c, 0, 69, 0
2, 12706, Note_on_c, 0, 71, 70
2, 12726, Note_on_c, 0, 68, 0
2, 12898, Note_on_c, 0, 75, 64
2, 12904, Note_on_c, 0, 71, 0
2, 13109, Note_on_c, 0, 80, 65
2, 13129, Note_on_c, 0, 75, 0
2, 13478, Note_on_c, 0, 61, 38
2, 13484, Note_on_c, 0, 52, 37
2, 13487, Note_on_c, 0, 68, 54
2, 13527, Note_on_c, 0, 54, 0
2, 13594, Note_on_c, 0, 63, 0
2, 13691, Note_on_c, 0, 78, 63
2, 13711, Note_on_c, 0, 80, 0
2, 13872, Note_on_c, 0, 78, 0
2, 13877, Note_on_c, 0, 76, 61
2, 14034, Note_on_c, 0, 76, 0
2, 14057, Note_on_c, 0, 75, 55
2, 14234, Note_on_c, 0, 73, 65
2, 14249, Note_on_c, 0, 75, 0
2, 14253, Note_on_c, 0, 68, 0
2, 14362, Control_c, 0, 64, 57
2, 14378, Control_c, 0, 64, 67
2, 14393, Control_c, 0, 64, 72
2, 14401, Note_on_c, 0, 73, 0
2, 14407, Control_c, 0, 64, 78
2, 14423, Control_c, 0, 64, 81
2, 14424, Note_on_c, 0, 71, 51
2, 14439, Control_c, 0, 64, 83
2, 14447, Note_on_c, 0, 71, 0
2, 14455, Control_c, 0, 64, 83
2, 14469, Control_c, 0, 64, 84
2, 14530, Control_c, 0, 64, 83
2, 14561, Control_c, 0, 64, 82
2, 14576, Control_c, 0, 64, 79
2, 14591, Control_c, 0, 64, 73
2, 14595, Note_on_c, 0, 71, 46
2, 14606, Control_c, 0, 64, 63
2, 14622, Control_c, 0, 64, 0
2, 14623, Note_on_c, 0, 66, 50
2, 14662, Note_on_c, 0, 71, 0
2, 14682, Note_on_c, 0, 69, 59
2, 14748, Note_on_c, 0, 69, 0
2, 14766, Note_on_c, 0, 68, 64
2, 14943, Note_on_c, 0, 66, 0
2, 14943, Note_on_c, 0, 68, 0
2, 14964, Note_on_c, 0, 69, 62
2, 15163, Note_on_c, 0, 69, 0
2, 15163, Note_on_c, 0, 73, 59
2, 15370, Note_on_c, 0, 78, 58
2, 15378, Note_on_c, 0, 73, 0
2, 15509, Control_c, 0, 64, 30
2, 15524, Control_c, 0, 64, 63
2, 15540, Control_c, 0, 64, 68
2, 15555, Control_c, 0, 64, 73
2, 15569, Control_c, 0, 64, 79
2, 15585, Control_c, 0, 64, 85
2, 15600, Control_c, 0, 64, 90
2, 15616, Control_c, 0, 64, 92
2, 15631, Control_c, 0, 64, 93
2, 15646, Control_c, 0, 64, 94
2, 15747, Note_on_c, 0, 66, 51
2, 15750, Note_on_c, 0, 51, 40
2, 15750, Note_on_c, 0, 59, 33
2, 15767, Control_c, 0, 64, 93
2, 15775, Note_on_c, 0, 78, 0
2, 15783, Control_c, 0, 64, 91
2, 15798, Control_c, 0, 64, 89
2, 15813, Control_c, 0, 64, 85
2, 15829, Control_c, 0, 64, 80
2, 15850, Control_c, 0, 64, 73
2, 15850, Note_on_c, 0, 52, 0
2, 15866, Control_c, 0, 64, 65
2, 15881, Control_c, 0, 64, 18
2, 15897, Control_c, 0, 64, 0
2, 15918, Note_on_c, 0, 61, 0
2, 15942, Note_on_c, 0, 76, 54
2, 16126, Note_on_c, 0, 76, 0
2, 16136, Note_on_c, 0, 75, 58
2, 16281, Note_on_c, 0, 75, 0
2, 16309, Note_on_c, 0, 73, 56
2, 16339, Control_c, 0, 64, 28
2, 16354, Control_c, 0, 64, 42
2, 16369, Control_c, 0, 64, 43
2, 16400, Control_c, 0, 64, 43
2, 16415, Control_c, 0, 64, 46
2, 16430, Control_c, 0, 64, 53
2, 16445, Control_c, 0, 64, 59
2, 16461, Control_c, 0, 64, 63
2, 16463, Note_on_c, 0, 73, 0
2, 16476, Control_c, 0, 64, 64
2, 16490, Control_c, 0, 64, 66
2, 16501, Note_on_c, 0, 71, 60
2, 16506, Control_c, 0, 64, 67
2, 16521, Control_c, 0, 64, 68
2, 16523, Note_on_c, 0, 66, 0
2, 16536, Control_c, 0, 64, 70
2, 16551, Control_c, 0, 64, 72
2, 16566, Control_c, 0, 64, 75
2, 16582, Control_c, 0, 64, 78
2, 16597, Control_c, 0, 64, 80
2, 16620, Control_c, 0, 64, 81
2, 16635, Control_c, 0, 64, 82
2, 16650, Control_c, 0, 64, 82
2, 16663, Note_on_c, 0, 71, 0
2, 16681, Control_c, 0, 64, 83
2, 16681, Note_on_c, 0, 69, 53
2, 16695, Note_on_c, 0, 51, 0
2, 16704, Note_on_c, 0, 69, 0
2, 16871, Note_on_c, 0, 52, 45
2, 16872, Note_on_c, 0, 69, 51
2, 16895, Note_on_c, 0, 64, 34
2, 16912, Note_on_c, 0, 69, 0
2, 16924, Control_c, 0, 64, 82
2, 16940, Control_c, 0, 64, 80
2, 16942, Note_on_c, 0, 68, 55
2, 16955, Control_c, 0, 64, 77
2, 16969, Control_c, 0, 64, 70
2, 16972, Note_on_c, 0, 68, 0
2, 16985, Control_c, 0, 64, 56
2, 16988, Note_on_c, 0, 69, 60
2, 17000, Control_c, 0, 64, 0
2, 17019, Note_on_c, 0, 69, 0
2, 17031, Note_on_c, 0, 57, 46
2, 17037, Note_on_c, 0, 68, 58
2, 17061, Note_on_c, 0, 59, 0
2, 17220, Note_on_c, 0, 57, 0
2, 17221, Note_on_c, 0, 56, 57
2, 17399, Note_on_c, 0, 54, 57
2, 17404, Note_on_c, 0, 56, 0
2, 17577, Note_on_c, 0, 56, 56
2, 17580, Note_on_c, 0, 54, 0
2, 17590, Note_on_c, 0, 52, 0
2, 17700, Note_on_c, 0, 56, 0
2, 17722, Note_on_c, 0, 52, 55
2, 17867, Note_on_c, 0, 64, 0
2, 17875, Note_on_c, 0, 56, 47
2, 17928, Note_on_c, 0, 56, 0
2, 17939, Note_on_c, 0, 59, 69
2, 18016, Note_on_c, 0, 64, 51
2, 18022, Note_on_c, 0, 59, 0
2, 18278, Control_c, 0, 64, 52
2, 18293, Control_c, 0, 64, 59
2, 18307, Control_c, 0, 64, 60
2, 18338, Control_c, 0, 64, 61
2, 18352, Control_c, 0, 64, 64
2, 18367, Control_c, 0, 64, 67
2, 18383, Control_c, 0, 64, 72
2, 18398, Control_c, 0, 64, 76
2, 18413, Control_c, 0, 64, 79
2, 18428, Control_c, 0, 64, 80
2, 18443, Control_c, 0, 64, 80
2, 18535, Note_on_c, 0, 63, 49
2, 18556, Note_on_c, 0, 68, 0
2, 18557, Note_on_c, 0, 66, 56
2, 18571, Note_on_c, 0, 64, 0
2, 18719, Control_c, 0, 64, 79
2, 18721, Note_on_c, 0, 66, 0
2, 18722, Note_on_c, 0, 61, 55
2, 18724, Note_on_c, 0, 69, 58
2, 18733, Control_c, 0, 64, 77
2, 18738, Note_on_c, 0, 52, 0
2, 18749, Control_c, 0, 64, 71
2, 18750, Note_on_c, 0, 69, 0
2, 18764, Control_c, 0, 64, 57
2, 18768, Note_on_c, 0, 68, 65
2, 18780, Control_c, 0, 64, 0
2, 18780, Note_on_c, 0, 63, 0
2, 18829, Note_on_c, 0, 68, 0
2, 18835, Note_on_c, 0, 69, 63
2, 19128, Note_on_c, 0, 60, 48
2, 19130, Note_on_c, 0, 51, 37
2, 19182, Note_on_c, 0, 61, 0
2, 19327, Note_on_c, 0, 68, 59
2, 19358, Note_on_c, 0, 69, 0
2, 19520, Note_on_c, 0, 66, 63
2, 19548, Note_on_c, 0, 68, 0
2, 19704, Note_on_c, 0, 64, 59
2, 19710, Note_on_c, 0, 66, 0
2, 19872, Note_on_c, 0, 64, 0
2, 19899, Note_on_c, 0, 66, 58
2, 20045, Note_on_c, 0, 66, 0
2, 20082, Note_on_c, 0, 63, 55
2, 20266, Note_on_c, 0, 56, 43
2, 20273, Note_on_c, 0, 75, 58
2, 20279, Note_on_c, 0, 63, 0
2, 20340, Note_on_c, 0, 51, 0
2, 20461, Note_on_c, 0, 73, 59
2, 20497, Note_on_c, 0, 75, 0
2, 20625, Note_on_c, 0, 73, 0
2, 20640, Note_on_c, 0, 72, 61
2, 20812, Note_on_c, 0, 54, 48
2, 20812, Note_on_c, 0, 72, 0
2, 20823, Note_on_c, 0, 70, 65
2, 20830, Note_on_c, 0, 56, 0
2, 21006, Note_on_c, 0, 54, 0
2, 21015, Note_on_c, 0, 56, 58
2, 21016, Note_on_c, 0, 72, 69
2, 21033, Note_on_c, 0, 70, 0
2, 21141, Note_on_c, 0, 72, 0
2, 21188, Note_on_c, 0, 68, 62
2, 21390, Note_on_c, 0, 81, 64
2, 21394, Note_on_c, 0, 49, 43
2, 21427, Note_on_c, 0, 56, 0
2, 21448, Note_on_c, 0, 68, 0
2, 21586, Note_on_c, 0, 80, 67
2, 21663, Note_on_c, 0, 81, 0
2, 21768, Note_on_c, 0, 78, 74
2, 21882, Note_on_c, 0, 80, 0
2, 21930, Note_on_c, 0, 78, 0
2, 21937, Note_on_c, 0, 60, 0
2, 21948, Note_on_c, 0, 61, 54
2, 21949, Note_on_c, 0, 76, 69
2, 22143, Note_on_c, 0, 78, 69
2, 22149, Note_on_c, 0, 61, 0
2, 22152, Note_on_c, 0, 76, 0
2, 22156, Note_on_c, 0, 63, 55
2, 22329, Note_on_c, 0, 75, 63
2, 22369, Note_on_c, 0, 78, 0
2, 22503, Note_on_c, 0, 61, 49
2, 22524, Note_on_c, 0, 76, 65
2, 22538, Note_on_c, 0, 63, 0
2, 22541, Note_on_c, 0, 75, 0
2, 22718, Note_on_c, 0, 75, 59
2, 22914, Note_on_c, 0, 73, 61
2, 23060, Note_on_c, 0, 75, 0
2, 23061, Note_on_c, 0, 51, 43
2, 23069, Note_on_c, 0, 73, 0
2, 23088, Note_on_c, 0, 72, 60
2, 23127, Note_on_c, 0, 49, 0
2, 23230, Note_on_c, 0, 51, 0
2, 23252, Note_on_c, 0, 72, 0
2, 23259, Note_on_c, 0, 52, 48
2, 23268, Note_on_c, 0, 73, 64
2, 23456, Note_on_c, 0, 70, 57
2, 23576, Note_on_c, 0, 61, 0
2, 23609, Note_on_c, 0, 52, 0
2, 23621, Note_on_c, 0, 70, 0
2, 23638, Note_on_c, 0, 73, 0
2, 23640, Note_on_c, 0, 68, 54
2, 23641, Note_on_c, 0, 46, 49
2, 23703, Note_on_c, 0, 68, 0
2, 23729, Note_on_c, 0, 67, 56
2, 23816, Note_on_c, 0, 46, 0
2, 23823, Note_on_c, 0, 51, 51
2, 24007, Note_on_c, 0, 49, 62
2, 24047, Note_on_c, 0, 51, 0
2, 24155, Control_c, 0, 64, 27
2, 24170, Control_c, 0, 64, 65
2, 24175, Note_on_c, 0, 47, 58
2, 24181, Note_on_c, 0, 75, 57
2, 24187, Note_on_c, 0, 49, 0
2, 24188, Control_c, 0, 64, 73
2, 24189, Note_on_c, 0, 68, 66
2, 24199, Note_on_c, 0, 67, 0
2, 24202, Control_c, 0, 64, 79
2, 24209, Note_on_c, 0, 76, 0
2, 24218, Control_c, 0, 64, 81
2, 24230, Note_on_c, 0, 68, 0
2, 24303, Control_c, 0, 64, 81
2, 24318, Control_c, 0, 64, 79
2, 24334, Control_c, 0, 64, 75
2, 24349, Control_c, 0, 64, 68
2, 24356, Note_on_c, 0, 47, 0
2, 24359, Note_on_c, 0, 75, 0
2, 24363, Control_c, 0, 64, 50
2, 24373, Note_on_c, 0, 49, 55
2, 24374, Note_on_c, 0, 70, 68
2, 24379, Control_c, 0, 64, 0
2, 24444, Note_on_c, 0, 68, 65
2, 24464, Note_on_c, 0, 70, 0
2, 24472, Note_on_c, 0, 73, 58
2, 24517, Note_on_c, 0, 68, 0
2, 24542, Note_on_c, 0, 46, 61
2, 24550, Note_on_c, 0, 49, 0
2, 24622, Control_c, 0, 64, 57
2, 24637, Control_c, 0, 64, 67
2, 24652, Control_c, 0, 64, 74
2, 24667, Control_c, 0, 64, 81
2, 24682, Control_c, 0, 64, 86
2, 24694, Note_on_c, 0, 73, 0
2, 24698, Control_c, 0, 64, 87
2, 24713, Control_c, 0, 64, 88
2, 24729, Control_c, 0, 64, 88
2, 24744, Control_c, 0, 64, 89
2, 24756, Note_on_c, 0, 46, 0
2, 24756, Note_on_c, 0, 73, 65
2, 24763, Note_on_c, 0, 43, 48
2, 24776, Note_on_c, 0, 63, 57
2, 24820, Control_c, 0, 64, 88
2, 24834, Control_c, 0, 64, 87
2, 24850, Control_c, 0, 64, 84
2, 24865, Control_c, 0, 64, 77
2, 24879, Control_c, 0, 64, 68
2, 24895, Control_c, 0, 64, 37
2, 24910, Control_c, 0, 64, 0
2, 24925, Note_on_c, 0, 43, 0
2, 24937, Note_on_c, 0, 47, 56
2, 25139, Note_on_c, 0, 46, 53
2, 25173, Note_on_c, 0, 63, 0
2, 25233, Note_on_c, 0, 47, 0
2, 25317, Note_on_c, 0, 44, 47
2, 25324, Note_on_c, 0, 46, 0
2, 25332, Note_on_c, 0, 65, 52
2, 25343, Note_on_c, 0, 71, 47
2, 25471, Note_on_c, 0, 65, 0
2, 25496, Note_on_c, 0, 44, 0
2, 25503, Note_on_c, 0, 46, 45
2, 25513, Note_on_c, 0, 67, 62
2, 25524, Note_on_c, 0, 71, 0
2, 25551, Note_on_c, 0, 67, 0
2, 25584, Note_on_c, 0, 65, 56
2, 25584, Note_on_c, 0, 70, 44
2, 25614, Note_on_c, 0, 65, 0
2, 25650, Note_on_c, 0, 73, 0
2, 25653, Note_on_c, 0, 67, 57
2, 25672, Note_on_c, 0, 43, 41
2, 25716, Note_on_c, 0, 46, 0
2, 25897, Note_on_c, 0, 37, 42
2, 25926, Note_on_c, 0, 43, 0
2, 26086, Note_on_c, 0, 68, 60
2, 26098, Note_on_c, 0, 67, 0
2, 26285, Note_on_c, 0, 67, 65
2, 26321, Note_on_c, 0, 68, 0
2, 26458, Note_on_c, 0, 65, 67
2, 26468, Note_on_c, 0, 67, 0
2, 26606, Control_c, 0, 64, 29
2, 26622, Control_c, 0, 64, 64
2, 26635, Note_on_c, 0, 65, 0
2, 26637, Control_c, 0, 64, 69
2, 26645, Note_on_c, 0, 67, 71
2, 26652, Control_c, 0, 64, 72
2, 26660, Note_on_c, 0, 70, 0
2, 26667, Control_c, 0, 64, 73
2, 26772, Note_on_c, 0, 67, 0
2, 26803, Note_on_c, 0, 63, 56
2, 26804, Control_c, 0, 64, 72
2, 26820, Control_c, 0, 64, 70
2, 26835, Control_c, 0, 64, 66
2, 26849, Note_on_c, 0, 37, 0
2, 26851, Control_c, 0, 64, 51
2, 26866, Control_c, 0, 64, 0
2, 26869, Note_on_c, 0, 67, 64
2, 26878, Note_on_c, 0, 63, 0
2, 26906, Note_on_c, 0, 70, 68
2, 26984, Note_on_c, 0, 75, 68
2, 27175, Note_on_c, 0, 49, 44
2, 27347, Note_on_c, 0, 49, 0
2, 27351, Note_on_c, 0, 47, 52
2, 27515, Note_on_c, 0, 47, 0
2, 27520, Note_on_c, 0, 46, 55
2, 27690, Note_on_c, 0, 46, 0
2, 27709, Note_on_c, 0, 67, 0
2, 27714, Note_on_c, 0, 47, 50
2, 27715, Note_on_c, 0, 68, 58
2, 27743, Note_on_c, 0, 70, 0
2, 27860, Control_c, 0, 64, 62
2, 27875, Control_c, 0, 64, 69
2, 27877, Note_on_c, 0, 47, 0
2, 27891, Control_c, 0, 64, 74
2, 27893, Note_on_c, 0, 44, 53
2, 27906, Control_c, 0, 64, 79
2, 27921, Control_c, 0, 64, 81
2, 27926, Note_on_c, 0, 44, 0
2, 28012, Control_c, 0, 64, 81
2, 28058, Control_c, 0, 64, 81
2, 28087, Note_on_c, 0, 52, 57
2, 28089, Control_c, 0, 64, 78
2, 28104, Control_c, 0, 64, 71
2, 28118, Control_c, 0, 64, 57
2, 28141, Control_c, 0, 64, 0
2, 28149, Note_on_c, 0, 52, 0
2, 28170, Note_on_c, 0, 51, 59
2, 28228, Note_on_c, 0, 51, 0
2, 28265, Note_on_c, 0, 72, 54
2, 28273, Note_on_c, 0, 52, 50
2, 28275, Note_on_c, 0, 75, 0
2, 28455, Note_on_c, 0, 72, 0
2, 28455, Note_on_c, 0, 73, 62
2, 28629, Note_on_c, 0, 51, 47
2, 28644, Note_on_c, 0, 75, 66
2, 28649, Note_on_c, 0, 73, 0
2, 28673, Note_on_c, 0, 52, 0
2, 28830, Note_on_c, 0, 51, 0
2, 28833, Note_on_c, 0, 75, 0
2, 28834, Note_on_c, 0, 49, 46
2, 28840, Note_on_c, 0, 76, 65
2, 29052, Note_on_c, 0, 75, 58
2, 29061, Note_on_c, 0, 76, 0
2, 29253, Note_on_c, 0, 73, 54
2, 29266, Note_on_c, 0, 75, 0
2, 29269, Note_on_c, 0, 51, 34
2, 29317, Note_on_c, 0, 49, 0
2, 29350, Note_on_c, 0, 73, 0
2, 29367, Note_on_c, 0, 71, 47
2, 29723, Control_c, 0, 64, 42
2, 29739, Control_c, 0, 64, 63
2, 29753, Control_c, 0, 64, 67
2, 29769, Control_c, 0, 64, 71
2, 29784, Control_c, 0, 64, 74
2, 29798, Control_c, 0, 64, 77
2, 29814, Control_c, 0, 64, 80
2, 29829, Control_c, 0, 64, 82
2, 29841, Note_on_c, 0, 71, 0
2, 29844, Control_c, 0, 64, 84
2, 29860, Control_c, 0, 64, 87
2, 29866, Note_on_c, 0, 68, 0
2, 29874, Control_c, 0, 64, 89
2, 29890, Control_c, 0, 64, 90
2, 29905, Control_c, 0, 64, 91
2, 29912, Note_on_c, 0, 73, 56
2, 29936, Control_c, 0, 64, 91
2, 30028, Control_c, 0, 64, 91
2, 30073, Control_c, 0, 64, 90
2, 30089, Control_c, 0, 64, 89
2, 30104, Control_c, 0, 64, 87
2, 30118, Control_c, 0, 64, 84
2, 30134, Control_c, 0, 64, 80
2, 30149, Control_c, 0, 64, 74
2, 30164, Control_c, 0, 64, 64
2, 30180, Control_c, 0, 64, 0
2, 30183, Note_on_c, 0, 71, 40
2, 30192, Note_on_c, 0, 73, 0
2, 30196, Note_on_c, 0, 39, 25
2, 30214, Note_on_c, 0, 67, 37
2, 30251, Note_on_c, 0, 71, 0
2, 30252, Note_on_c, 0, 70, 56
2, 30288, Note_on_c, 0, 70, 0
2, 30317, Note_on_c, 0, 68, 45
2, 30377, Note_on_c, 0, 68, 0
2, 30383, Note_on_c, 0, 70, 58
2, 30443, Control_c, 0, 64, 64
2, 30444, Note_on_c, 0, 67, 0
2, 30459, Control_c, 0, 64, 72
2, 30474, Control_c, 0, 64, 80
2, 30489, Control_c, 0, 64, 86
2, 30493, Note_on_c, 0, 70, 0
2, 30505, Control_c, 0, 64, 90
2, 30519, Control_c, 0, 64, 95
2, 30534, Control_c, 0, 64, 100
2, 30550, Control_c, 0, 64, 106
2, 30564, Control_c, 0, 64, 110
2, 30580, Control_c, 0, 64, 113
2, 30595, Control_c, 0, 64, 114
2, 30600, Note_on_c, 0, 39, 0
2, 30610, Control_c, 0, 64, 115
2, 30746, Note_on_c, 0, 59, 49
2, 30747, Control_c, 0, 64, 114
2, 30752, Note_on_c, 0, 44, 33
2, 30762, Control_c, 0, 64, 114
2, 30767, Note_on_c, 0, 51, 0
2, 30777, Control_c, 0, 64, 112
2, 30792, Control_c, 0, 64, 109
2, 30800, Note_on_c, 0, 61, 50
2, 30807, Control_c, 0, 64, 105
2, 30824, Control_c, 0, 64, 100
2, 30839, Control_c, 0, 64, 93
2, 30840, Note_on_c, 0, 63, 63
2, 30854, Control_c, 0, 64, 86
2, 30860, Note_on_c, 0, 61, 0
2, 30869, Control_c, 0, 64, 78
2, 30884, Control_c, 0, 64, 67
2, 30900, Control_c, 0, 64, 0
2, 30920, Note_on_c, 0, 68, 56
2, 30928, Note_on_c, 0, 49, 44
2, 31133, Note_on_c, 0, 47, 45
2, 31141, Note_on_c, 0, 49, 0
2, 31297, Note_on_c, 0, 47, 0
2, 31300, Note_on_c, 0, 46, 54
2, 31473, Note_on_c, 0, 46, 0
2, 31492, Note_on_c, 0, 47, 58
2, 31502, Note_on_c, 0, 44, 0
2, 31661, Note_on_c, 0, 47, 0
2, 31674, Note_on_c, 0, 44, 50
2, 31862, Note_on_c, 0, 47, 51
2, 32027, Note_on_c, 0, 47, 0
2, 32036, Note_on_c, 0, 51, 56
2, 32088, Note_on_c, 0, 59, 0
2, 32223, Note_on_c, 0, 56, 54
2, 32225, Note_on_c, 0, 51, 0
2, 32238, Note_on_c, 0, 63, 0
2, 32253, Control_c, 0, 64, 23
2, 32263, Note_on_c, 0, 68, 0
2, 32268, Control_c, 0, 64, 60
2, 32283, Control_c, 0, 64, 66
2, 32299, Control_c, 0, 64, 69
2, 32314, Control_c, 0, 64, 74
2, 32329, Control_c, 0, 64, 77
2, 32344, Control_c, 0, 64, 80
2, 32359, Control_c, 0, 64, 81
2, 32374, Control_c, 0, 64, 81
2, 32394, Note_on_c, 0, 56, 0
2, 32402, Note_on_c, 0, 52, 57
2, 32497, Control_c, 0, 64, 81
2, 32512, Control_c, 0, 64, 79
2, 32527, Control_c, 0, 64, 77
2, 32543, Control_c, 0, 64, 73
2, 32557, Control_c, 0, 64, 67
2, 32572, Control_c, 0, 64, 48
2, 32577, Note_on_c, 0, 71, 54
2, 32588, Control_c, 0, 64, 0
2, 32596, Note_on_c, 0, 54, 49
2, 32598, Note_on_c, 0, 52, 0
2, 32619, Note_on_c, 0, 71, 0
2, 32635, Note_on_c, 0, 70, 60
2, 32638, Note_on_c, 0, 44, 0
2, 32696, Note_on_c, 0, 70, 0
2, 32703, Note_on_c, 0, 71, 54
2, 32762, Note_on_c, 0, 51, 57
2, 32774, Note_on_c, 0, 54, 0
2, 32944, Note_on_c, 0, 49, 54
2, 32957, Note_on_c, 0, 52, 50
2, 32960, Note_on_c, 0, 51, 0
2, 33112, Note_on_c, 0, 49, 0
2, 33119, Note_on_c, 0, 51, 48
2, 33139, Note_on_c, 0, 68, 64
2, 33145, Note_on_c, 0, 71, 0
2, 33301, Note_on_c, 0, 51, 0
2, 33305, Note_on_c, 0, 49, 55
2, 33320, Note_on_c, 0, 70, 71
2, 33372, Note_on_c, 0, 68, 0
2, 33475, Note_on_c, 0, 49, 0
2, 33488, Note_on_c, 0, 47, 50
2, 33501, Note_on_c, 0, 73, 72
2, 33534, Note_on_c, 0, 70, 0
2, 33632, Note_on_c, 0, 47, 0
2, 33690, Note_on_c, 0, 49, 47
2, 33698, Note_on_c, 0, 76, 69
2, 33776, Note_on_c, 0, 73, 0
2, 33828, Note_on_c, 0, 52, 0
2, 33841, Note_on_c, 0, 49, 0
2, 33865, Note_on_c, 0, 46, 51
2, 34041, Note_on_c, 0, 54, 52
2, 34079, Note_on_c, 0, 54, 0
2, 34100, Note_on_c, 0, 52, 54
2, 34144, Note_on_c, 0, 52, 0
2, 34169, Note_on_c, 0, 54, 59
2, 34246, Note_on_c, 0, 75, 64
2, 34248, Note_on_c, 0, 76, 0
2, 34432, Note_on_c, 0, 76, 71
2, 34593, Note_on_c, 0, 54, 0
2, 34606, Note_on_c, 0, 56, 62
2, 34607, Note_on_c, 0, 80, 74
2, 34641, Note_on_c, 0, 76, 0
2, 34645, Note_on_c, 0, 46, 0
2, 34647, Note_on_c, 0, 75, 0
2, 34810, Note_on_c, 0, 58, 59
2, 34828, Note_on_c, 0, 78, 72
2, 34842, Note_on_c, 0, 56, 0
2, 34919, Note_on_c, 0, 80, 0
2, 35183, Note_on_c, 0, 58, 0
2, 35189, Note_on_c, 0, 59, 54
2, 35203, Note_on_c, 0, 75, 63
2, 35216, Note_on_c, 0, 78, 0
2, 35267, Note_on_c, 0, 59, 0
2, 35275, Note_on_c, 0, 58, 61
2, 35358, Note_on_c, 0, 58, 0
2, 35372, Note_on_c, 0, 59, 53
2, 35388, Note_on_c, 0, 73, 53
2, 35547, Note_on_c, 0, 73, 0
2, 35579, Note_on_c, 0, 71, 55
2, 35748, Note_on_c, 0, 71, 0
2, 35751, Note_on_c, 0, 70, 56
2, 35957, Note_on_c, 0, 71, 54
2, 35966, Note_on_c, 0, 70, 0
2, 36148, Note_on_c, 0, 66, 49
2, 36338, Note_on_c, 0, 59, 0
2, 36348, Note_on_c, 0, 63, 32
2, 36529, Note_on_c, 0, 59, 49
2, 36727, Note_on_c, 0, 57, 50
2, 36779, Note_on_c, 0, 59, 0
2, 36909, Note_on_c, 0, 56, 50
2, 36910, Note_on_c, 0, 57, 0
2, 37065, Note_on_c, 0, 71, 0
2, 37088, Note_on_c, 0, 73, 63
2, 37094, Note_on_c, 0, 57, 49
2, 37101, Note_on_c, 0, 56, 0
2, 37122, Note_on_c, 0, 63, 0
2, 37266, Note_on_c, 0, 57, 0
2, 37270, Note_on_c, 0, 54, 51
2, 37464, Note_on_c, 0, 51, 53
2, 37480, Note_on_c, 0, 54, 0
2, 37561, Note_on_c, 0, 66, 0
2, 37619, Note_on_c, 0, 51, 0
2, 37645, Note_on_c, 0, 70, 64
2, 37649, Note_on_c, 0, 52, 56
2, 37809, Note_on_c, 0, 75, 0
2, 37814, Note_on_c, 0, 70, 0
2, 37817, Note_on_c, 0, 73, 0
2, 37825, Note_on_c, 0, 51, 57
2, 37831, Note_on_c, 0, 72, 67
2, 37850, Note_on_c, 0, 52, 0
2, 38000, Note_on_c, 0, 49, 58
2, 38011, Note_on_c, 0, 75, 67
2, 38020, Note_on_c, 0, 51, 0
2, 38039, Note_on_c, 0, 72, 0
2, 38195, Note_on_c, 0, 51, 59
2, 38201, Note_on_c, 0, 78, 77
2, 38235, Note_on_c, 0, 49, 0
2, 38258, Note_on_c, 0, 75, 0
2, 38381, Note_on_c, 0, 48, 57
2, 38392, Note_on_c, 0, 80, 76
2, 38419, Note_on_c, 0, 78, 0
2, 38577, Note_on_c, 0, 44, 58
2, 38590, Note_on_c, 0, 48, 0
2, 38592, Note_on_c, 0, 81, 70
2, 38642, Note_on_c, 0, 80, 0
2, 38796, Note_on_c, 0, 80, 72
2, 38885, Note_on_c, 0, 81, 0
2, 38977, Note_on_c, 0, 78, 74
2, 39027, Note_on_c, 0, 80, 0
2, 39140, Note_on_c, 0, 78, 0
2, 39152, Note_on_c, 0, 46, 53
2, 39156, Note_on_c, 0, 76, 66
2, 39186, Note_on_c, 0, 44, 0
2, 39336, Note_on_c, 0, 48, 49
2, 39345, Note_on_c, 0, 78, 69
2, 39359, Note_on_c, 0, 76, 0
2, 39364, Note_on_c, 0, 46, 0
2, 39528, Note_on_c, 0, 75, 64
2, 39539, Note_on_c, 0, 78, 0
2, 39714, Note_on_c, 0, 49, 48
2, 39729, Note_on_c, 0, 76, 64
2, 39740, Note_on_c, 0, 75, 0
2, 39767, Note_on_c, 0, 48, 0
2, 39771, Note_on_c, 0, 51, 0
2, 39911, Note_on_c, 0, 75, 52
2, 40090, Note_on_c, 0, 73, 57
2, 40254, Note_on_c, 0, 73, 0
2, 40259, Note_on_c, 0, 75, 0
2, 40275, Note_on_c, 0, 72, 57
2, 40444, Note_on_c, 0, 72, 0
2, 40472, Note_on_c, 0, 73, 55
2, 40671, Note_on_c, 0, 68, 47
2, 40859, Note_on_c, 0, 64, 48
2, 41032, Note_on_c, 0, 51, 44
2, 41081, Note_on_c, 0, 49, 0
2, 41230, Note_on_c, 0, 51, 0
2, 41244, Note_on_c, 0, 52, 56
2, 41421, Note_on_c, 0, 52, 0
2, 41421, Note_on_c, 0, 54, 59
2, 41613, Note_on_c, 0, 56, 65
2, 41642, Note_on_c, 0, 54, 0
2, 41713, Note_on_c, 0, 64, 0
2, 41794, Note_on_c, 0, 57, 65
2, 41807, Note_on_c, 0, 68, 0
2, 41823, Note_on_c, 0, 56, 0
2, 41850, Note_on_c, 0, 73, 0
2, 41859, Note_on_c, 0, 76, 0
2, 41997, Note_on_c, 0, 59, 64
2, 42026, Note_on_c, 0, 57, 0
2, 42174, Note_on_c, 0, 74, 61
2, 42369, Note_on_c, 0, 77, 72
2, 42441, Note_on_c, 0, 74, 0
2, 42531, Note_on_c, 0, 61, 61
2, 42549, Note_on_c, 0, 80, 75
2, 42553, Note_on_c, 0, 59, 0
2, 42647, Note_on_c, 0, 77, 0
2, 42744, Note_on_c, 0, 62, 60
2, 42758, Note_on_c, 0, 83, 70
2, 42771, Note_on_c, 0, 61, 0
2, 42826, Note_on_c, 0, 80, 0
2, 42933, Note_on_c, 0, 59, 57
2, 43128, Note_on_c, 0, 53, 55
2, 43148, Note_on_c, 0, 59, 0
2, 43300, Note_on_c, 0, 83, 0
2, 43318, Note_on_c, 0, 74, 54
2, 43511, Note_on_c, 0, 73, 66
2, 43512, Note_on_c, 0, 56, 46
2, 43525, Note_on_c, 0, 74, 0
2, 43548, Note_on_c, 0, 62, 0
2, 43694, Note_on_c, 0, 71, 67
2, 43736, Note_on_c, 0, 73, 0
2, 43872, Note_on_c, 0, 56, 0
2, 43876, Note_on_c, 0, 61, 49
2, 43878, Note_on_c, 0, 71, 0
2, 43880, Note_on_c, 0, 69, 64
2, 44070, Note_on_c, 0, 68, 62
2, 44117, Note_on_c, 0, 69, 0
2, 44199, Note_on_c, 0, 53, 0
2, 44223, Note_on_c, 0, 68, 0
2, 44240, Note_on_c, 0, 54, 44
2, 44264, Note_on_c, 0, 69, 53
2, 44303, Note_on_c, 0, 69, 0
2, 44315, Note_on_c, 0, 68, 63
2, 44358, Note_on_c, 0, 68, 0
2, 44367, Note_on_c, 0, 61, 0
2, 44399, Note_on_c, 0, 69, 56
2, 44434, Note_on_c, 0, 59, 32
2, 44590, Note_on_c, 0, 59, 0
2, 44591, Note_on_c, 0, 57, 55
2, 44766, Note_on_c, 0, 56, 65
2, 44770, Note_on_c, 0, 57, 0
2, 44949, Note_on_c, 0, 57, 64
2, 44958, Note_on_c, 0, 56, 0
2, 44961, Note_on_c, 0, 54, 0
2, 45144, Note_on_c, 0, 54, 57
2, 45148, Note_on_c, 0, 57, 0
2, 45351, Note_on_c, 0, 66, 68
2, 45521, Note_on_c, 0, 69, 0
2, 45522, Note_on_c, 0, 68, 55
2, 45703, Note_on_c, 0, 68, 0
2, 45707, Note_on_c, 0, 69, 59
2, 45892, Note_on_c, 0, 66, 0
2, 45898, Note_on_c, 0, 64, 48
2, 45903, Note_on_c, 0, 73, 54
2, 45944, Note_on_c, 0, 69, 0
2, 46073, Note_on_c, 0, 63, 56
2, 46074, Note_on_c, 0, 64, 0
2, 46089, Note_on_c, 0, 78, 66
2, 46188, Note_on_c, 0, 73, 0
2, 46270, Note_on_c, 0, 61, 65
2, 46331, Note_on_c, 0, 63, 0
2, 46468, Note_on_c, 0, 59, 57
2, 46480, Note_on_c, 0, 56, 52
2, 46489, Note_on_c, 0, 61, 0
2, 46521, Note_on_c, 0, 54, 0
2, 46678, Note_on_c, 0, 76, 56
2, 46853, Note_on_c, 0, 76, 0
2, 46857, Note_on_c, 0, 75, 60
2, 46972, Note_on_c, 0, 78, 0
2, 47021, Note_on_c, 0, 59, 0
2, 47035, Note_on_c, 0, 57, 48
2, 47037, Note_on_c, 0, 61, 52
2, 47051, Note_on_c, 0, 73, 58
2, 47053, Note_on_c, 0, 75, 0
2, 47071, Note_on_c, 0, 56, 0
2, 47235, Note_on_c, 0, 57, 0
2, 47241, Note_on_c, 0, 59, 59
2, 47244, Note_on_c, 0, 63, 56
2, 47248, Note_on_c, 0, 73, 0
2, 47251, Note_on_c, 0, 71, 57
2, 47272, Note_on_c, 0, 61, 0
2, 47426, Note_on_c, 0, 69, 58
2, 47435, Note_on_c, 0, 71, 0
2, 47480, Note_on_c, 0, 69, 0
2, 47623, Note_on_c, 0, 69, 54
2, 47644, Note_on_c, 0, 52, 39
2, 47667, Note_on_c, 0, 59, 0
2, 47704, Note_on_c, 0, 68, 62
2, 47706, Note_on_c, 0, 69, 0
2, 47777, Note_on_c, 0, 68, 0
2, 47795, Note_on_c, 0, 66, 55
2, 47991, Note_on_c, 0, 68, 60
2, 48024, Note_on_c, 0, 66, 0
2, 48165, Note_on_c, 0, 68, 0
2, 48178, Note_on_c, 0, 56, 56
2, 48189, Note_on_c, 0, 71, 62
2, 48195, Note_on_c, 0, 63, 0
2, 48325, Note_on_c, 0, 56, 0
2, 48371, Note_on_c, 0, 71, 0
2, 48372, Note_on_c, 0, 61, 56
2, 48377, Note_on_c, 0, 76, 62
2, 48525, Note_on_c, 0, 61, 0
2, 48532, Note_on_c, 0, 60, 60
2, 48694, Note_on_c, 0, 60, 0
2, 48728, Note_on_c, 0, 61, 59
2, 48761, Note_on_c, 0, 61, 0
2, 48783, Note_on_c, 0, 59, 69
2, 48831, Note_on_c, 0, 59, 0
2, 48846, Note_on_c, 0, 61, 62
2, 48950, Note_on_c, 0, 75, 59
2, 49053, Note_on_c, 0, 76, 0
2, 49144, Note_on_c, 0, 73, 64
2, 49228, Note_on_c, 0, 75, 0
2, 49283, Note_on_c, 0, 52, 0
2, 49305, Note_on_c, 0, 51, 38
2, 49312, Note_on_c, 0, 71, 60
2, 49337, Note_on_c, 0, 73, 0
2, 49496, Note_on_c, 0, 69, 62
2, 49498, Note_on_c, 0, 49, 44
2, 49500, Note_on_c, 0, 71, 0
2, 49516, Note_on_c, 0, 51, 0
2, 49678, Note_on_c, 0, 68, 62
2, 49684, Note_on_c, 0, 69, 0
2, 49712, Note_on_c, 0, 68, 0
2, 49864, Note_on_c, 0, 51, 46
2, 49875, Note_on_c, 0, 68, 56
2, 49896, Note_on_c, 0, 49, 0
2, 49941, Note_on_c, 0, 68, 0
2, 49959, Note_on_c, 0, 66, 61
2, 50019, Note_on_c, 0, 66, 0
2, 50040, Note_on_c, 0, 64, 55
2, 50221, Note_on_c, 0, 66, 67
2, 50279, Note_on_c, 0, 64, 0
2, 50415, Note_on_c, 0, 69, 70
2, 50416, Note_on_c, 0, 60, 49
2, 50428, Note_on_c, 0, 61, 0
2, 50442, Note_on_c, 0, 66, 0
2, 50600, Note_on_c, 0, 60, 0
2, 50604, Note_on_c, 0, 61, 50
2, 50612, Note_on_c, 0, 75, 69
2, 50634, Note_on_c, 0, 69, 0
2, 50792, Note_on_c, 0, 58, 60
2, 50806, Note_on_c, 0, 61, 0
2, 50883, Note_on_c, 0, 51, 0
2, 50968, Note_on_c, 0, 58, 0
2, 50988, Note_on_c, 0, 56, 50
2, 50990, Note_on_c, 0, 60, 62
2, 51038, Note_on_c, 0, 60, 0
2, 51066, Note_on_c, 0, 58, 59
2, 51108, Note_on_c, 0, 58, 0
2, 51148, Note_on_c, 0, 60, 53
2, 51179, Note_on_c, 0, 73, 53
2, 51328, Note_on_c, 0, 75, 0
2, 51370, Note_on_c, 0, 72, 60
2, 51374, Note_on_c, 0, 73, 0
2, 51510, Note_on_c, 0, 60, 0
2, 51532, Note_on_c, 0, 58, 50
2, 51534, Note_on_c, 0, 61, 40
2, 51543, Note_on_c, 0, 72, 0
2, 51548, Note_on_c, 0, 70, 64
2, 51703, Note_on_c, 0, 61, 0
2, 51722, Note_on_c, 0, 63, 34
2, 51732, Note_on_c, 0, 60, 46
2, 51741, Note_on_c, 0, 68, 65
2, 51746, Note_on_c, 0, 56, 0
2, 51755, Note_on_c, 0, 70, 0
2, 51781, Note_on_c, 0, 58, 0
2, 51914, Note_on_c, 0, 66, 62
2, 51917, Note_on_c, 0, 68, 0
2, 51984, Note_on_c, 0, 66, 0
2, 52084, Note_on_c, 0, 61, 44
2, 52091, Note_on_c, 0, 63, 0
2, 52109, Note_on_c, 0, 66, 53
2, 52155, Note_on_c, 0, 60, 0
2, 52180, Note_on_c, 0, 66, 0
2, 52209, Note_on_c, 0, 64, 54
2, 52305, Note_on_c, 0, 64, 0
2, 52318, Note_on_c, 0, 63, 48
2, 52458, Note_on_c, 0, 63, 0
2, 52480, Note_on_c, 0, 64, 45
2, 52654, Note_on_c, 0, 64, 0
2, 52659, Note_on_c, 0, 68, 51
2, 52665, Note_on_c, 0, 59, 39
2, 52721, Note_on_c, 0, 61, 0
2, 52862, Note_on_c, 0, 73, 60
2, 52874, Note_on_c, 0, 57, 31
2, 52900, Note_on_c, 0, 59, 0
2, 52941, Note_on_c, 0, 68, 0
2, 53044, Note_on_c, 0, 56, 50
2, 53055, Note_on_c, 0, 57, 0
2, 53230, Note_on_c, 0, 54, 50
2, 53234, Note_on_c, 0, 56, 0
2, 53234, Note_on_c, 0, 57, 51
2, 53428, Note_on_c, 0, 71, 55
2, 53577, Note_on_c, 0, 73, 0
2, 53625, Note_on_c, 0, 69, 69
2, 53638, Note_on_c, 0, 71, 0
2, 53794, Note_on_c, 0, 57, 0
2, 53799, Note_on_c, 0, 59, 52
2, 53800, Note_on_c, 0, 68, 66
2, 53805, Note_on_c, 0, 69, 0
2, 53977, Note_on_c, 0, 61, 67
2, 53983, Note_on_c, 0, 59, 0
2, 53991, Note_on_c, 0, 69, 69
2, 54002, Note_on_c, 0, 68, 0
2, 54124, Note_on_c, 0, 69, 0
2, 54132, Control_c, 0, 64, 10
2, 54147, Control_c, 0, 64, 0
2, 54165, Note_on_c, 0, 66, 71
2, 54205, Note_on_c, 0, 61, 0
2, 54366, Note_on_c, 0, 78, 72
2, 54367, Note_on_c, 0, 62, 55
2, 54384, Note_on_c, 0, 66, 0
2, 54421, Note_on_c, 0, 62, 0
2, 54445, Note_on_c, 0, 61, 61
2, 54513, Note_on_c, 0, 61, 0
2, 54528, Note_on_c, 0, 76, 62
2, 54539, Note_on_c, 0, 62, 56
2, 54565, Note_on_c, 0, 78, 0
2, 54730, Note_on_c, 0, 74, 70
2, 54781, Note_on_c, 0, 76, 0
2, 54912, Note_on_c, 0, 52, 58
2, 54919, Note_on_c, 0, 73, 72
2, 54924, Note_on_c, 0, 74, 0
2, 54925, Note_on_c, 0, 54, 0
2, 55114, Note_on_c, 0, 52, 0
2, 55119, Note_on_c, 0, 74, 68
2, 55130, Note_on_c, 0, 54, 53
2, 55135, Note_on_c, 0, 73, 0
2, 55280, Note_on_c, 0, 74, 0
2, 55297, Note_on_c, 0, 69, 75
2, 55480, Note_on_c, 0, 69, 0
2, 55485, Note_on_c, 0, 51, 46
2, 55494, Note_on_c, 0, 81, 72
2, 55500, Note_on_c, 0, 60, 50
2, 55504, Note_on_c, 0, 62, 0
2, 55529, Note_on_c, 0, 54, 0
2, 55690, Note_on_c, 0, 80, 76
2, 55789, Note_on_c, 0, 81, 0
2, 55872, Note_on_c, 0, 78, 78
2, 55933, Note_on_c, 0, 80, 0
2, 56049, Note_on_c, 0, 76, 75
2, 56050, Note_on_c, 0, 54, 56
2, 56096, Note_on_c, 0, 51, 0
2, 56099, Note_on_c, 0, 78, 0
2, 56238, Note_on_c, 0, 78, 77
2, 56241, Note_on_c, 0, 57, 61
2, 56281, Note_on_c, 0, 54, 0
2, 56301, Note_on_c, 0, 76, 0
2, 56314, Note_on_c, 0, 60, 0
2, 56420, Note_on_c, 0, 75, 82
2, 56453, Note_on_c, 0, 78, 0
2, 56614, Note_on_c, 0, 84, 79
2, 56619, Note_on_c, 0, 57, 0
2, 56625, Note_on_c, 0, 66, 62
2, 56687, Note_on_c, 0, 75, 0
2, 56806, Note_on_c, 0, 56, 61
2, 56983, Note_on_c, 0, 54, 66
2, 57005, Note_on_c, 0, 56, 0
2, 57169, Note_on_c, 0, 52, 66
2, 57177, Note_on_c, 0, 54, 0
2, 57340, Note_on_c, 0, 52, 0
2, 57347, Note_on_c, 0, 66, 0
2, 57353, Note_on_c, 0, 54, 59
2, 57358, Note_on_c, 0, 80, 73
2, 57442, Note_on_c, 0, 84, 0
2, 57513, Note_on_c, 0, 80, 0
2, 57537, Note_on_c, 0, 51, 60
2, 57543, Note_on_c, 0, 54, 0
2, 57718, Note_on_c, 0, 51, 0
2, 57724, Note_on_c, 0, 80, 78
2, 57733, Note_on_c, 0, 52, 53
2, 57918, Note_on_c, 0, 51, 55
2, 57922, Note_on_c, 0, 52, 0
2, 58104, Note_on_c, 0, 51, 0
2, 58107, Note_on_c, 0, 49, 52
2, 58282, Note_on_c, 0, 76, 67
2, 58285, Note_on_c, 0, 47, 57
2, 58303, Note_on_c, 0, 49, 0
2, 58467, Note_on_c, 0, 72, 68
2, 58474, Note_on_c, 0, 49, 46
2, 58478, Note_on_c, 0, 76, 0
2, 58481, Note_on_c, 0, 47, 0
2, 58643, Note_on_c, 0, 45, 57
2, 58658, Note_on_c, 0, 49, 0
2, 58700, Note_on_c, 0, 45, 0
2, 58826, Note_on_c, 0, 57, 51
2, 58837, Note_on_c, 0, 73, 56
2, 58892, Note_on_c, 0, 57, 0
2, 58913, Note_on_c, 0, 56, 57
2, 58969, Note_on_c, 0, 72, 0
2, 58982, Note_on_c, 0, 56, 0
2, 59005, Note_on_c, 0, 78, 63
2, 59011, Note_on_c, 0, 57, 54
2, 59053, Note_on_c, 0, 73, 0
2, 59191, Note_on_c, 0, 76, 63
2, 59199, Note_on_c, 0, 80, 0
2, 59240, Note_on_c, 0, 78, 0
2, 59367, Note_on_c, 0, 76, 0
2, 59379, Note_on_c, 0, 75, 61
2, 59557, Note_on_c, 0, 76, 64
2, 59560, Note_on_c, 0, 75, 0
2, 59724, Note_on_c, 0, 76, 0
2, 59752, Note_on_c, 0, 73, 62
2, 59942, Note_on_c, 0, 78, 72
2, 60051, Note_on_c, 0, 73, 0
2, 60108, Note_on_c, 0, 56, 51
2, 60160, Note_on_c, 0, 57, 0
2, 60297, Note_on_c, 0, 54, 60
2, 60303, Note_on_c, 0, 56, 0
2, 60478, Note_on_c, 0, 72, 66
2, 60481, Note_on_c, 0, 52, 56
2, 60490, Note_on_c, 0, 54, 0
2, 60648, Note_on_c, 0, 72, 0
2, 60661, Note_on_c, 0, 52, 0
2, 60664, Note_on_c, 0, 54, 52
2, 60668, Note_on_c, 0, 75, 69
2, 60856, Note_on_c, 0, 51, 46
2, 60971, Note_on_c, 0, 54, 0
2, 61010, Note_on_c, 0, 60, 49
2, 61018, Note_on_c, 0, 68, 63
2, 61019, Note_on_c, 0, 51, 0
2, 61047, Note_on_c, 0, 75, 0
2, 61092, Note_on_c, 0, 60, 0
2, 61104, Note_on_c, 0, 58, 57
2, 61180, Note_on_c, 0, 76, 59
2, 61195, Note_on_c, 0, 58, 0
2, 61218, Note_on_c, 0, 60, 55
2, 61243, Note_on_c, 0, 78, 0
2, 61398, Note_on_c, 0, 76, 0
2, 61414, Note_on_c, 0, 75, 32
2, 61438, Note_on_c, 0, 75, 0
2, 61474, Note_on_c, 0, 73, 44
2, 61684, Note_on_c, 0, 75, 56
2, 61690, Note_on_c, 0, 73, 0
2, 61733, Note_on_c, 0, 68, 0
2, 61862, Note_on_c, 0, 68, 67
2, 61863, Note_on_c, 0, 75, 0
2, 62056, Note_on_c, 0, 61, 35
2, 62058, Note_on_c, 0, 76, 59
2, 62064, Note_on_c, 0, 60, 0
2, 62104, Note_on_c, 0, 68, 0
2, 62214, Note_on_c, 0, 61, 0
2, 62244, Note_on_c, 0, 59, 47
2, 62418, Note_on_c, 0, 57, 57
2, 62439, Note_on_c, 0, 59, 0
2, 62570, Note_on_c, 0, 57, 0
2, 62585, Note_on_c, 0, 56, 46
2, 62586, Note_on_c, 0, 73, 62
2, 62767, Note_on_c, 0, 73, 0
2, 62773, Note_on_c, 0, 56, 0
2, 62780, Note_on_c, 0, 66, 65
2, 62783, Note_on_c, 0, 57, 47
2, 62943, Note_on_c, 0, 57, 0
2, 62960, Note_on_c, 0, 54, 52
2, 62969, Note_on_c, 0, 68, 62
2, 62986, Note_on_c, 0, 66, 0
2, 63141, Note_on_c, 0, 76, 0
2, 63146, Note_on_c, 0, 66, 65
2, 63149, Note_on_c, 0, 68, 0
2, 63164, Note_on_c, 0, 69, 60
2, 63178, Note_on_c, 0, 54, 0
2, 63362, Note_on_c, 0, 75, 57
2, 63533, Note_on_c, 0, 76, 73
2, 63565, Note_on_c, 0, 75, 0
2, 63713, Note_on_c, 0, 76, 0
2, 63717, Note_on_c, 0, 78, 76
2, 63898, Note_on_c, 0, 80, 85
2, 63954, Note_on_c, 0, 78, 0
2, 64023, Note_on_c, 0, 80, 0
2, 64024, Control_c, 0, 64, 45
2, 64040, Control_c, 0, 64, 64
2, 64055, Control_c, 0, 64, 69
2, 64069, Control_c, 0, 64, 75
2, 64082, Note_on_c, 0, 81, 79
2, 64085, Control_c, 0, 64, 81
2, 64100, Control_c, 0, 64, 86
2, 64116, Control_c, 0, 64, 88
2, 64122, Note_on_c, 0, 69, 0
2, 64131, Control_c, 0, 64, 89
2, 64133, Note_on_c, 0, 81, 0
2, 64146, Control_c, 0, 64, 90
2, 64162, Control_c, 0, 64, 90
2, 64260, Control_c, 0, 64, 90
2, 64268, Note_on_c, 0, 73, 73
2, 64275, Control_c, 0, 64, 87
2, 64290, Control_c, 0, 64, 81
2, 64292, Note_on_c, 0, 68, 51
2, 64305, Control_c, 0, 64, 70
2, 64314, Note_on_c, 0, 73, 0
2, 64321, Control_c, 0, 64, 54
2, 64336, Control_c, 0, 64, 0
2, 64337, Note_on_c, 0, 72, 67
2, 64377, Note_on_c, 0, 72, 0
2, 64381, Note_on_c, 0, 73, 66
2, 64389, Note_on_c, 0, 66, 0
2, 64394, Note_on_c, 0, 64, 49
2, 64434, Note_on_c, 0, 73, 0
2, 64444, Note_on_c, 0, 72, 66
2, 64608, Note_on_c, 0, 63, 58
2, 64628, Note_on_c, 0, 64, 0
2, 64795, Note_on_c, 0, 73, 74
2, 64797, Note_on_c, 0, 61, 52
2, 64812, Note_on_c, 0, 63, 0
2, 64816, Note_on_c, 0, 72, 0
2, 64955, Note_on_c, 0, 61, 0
2, 64974, Note_on_c, 0, 60, 52
2, 64986, Note_on_c, 0, 75, 71
2, 64998, Control_c, 0, 64, 62
2, 65013, Control_c, 0, 64, 68
2, 65028, Control_c, 0, 64, 73
2, 65038, Note_on_c, 0, 73, 0
2, 65044, Control_c, 0, 64, 78
2, 65058, Control_c, 0, 64, 82
2, 65074, Control_c, 0, 64, 85
2, 65089, Control_c, 0, 64, 86
2, 65115, Note_on_c, 0, 75, 0
2, 65138, Note_on_c, 0, 68, 0
2, 65169, Note_on_c, 0, 60, 0
2, 65172, Note_on_c, 0, 58, 63
2, 65242, Control_c, 0, 64, 85
2, 65257, Control_c, 0, 64, 85
2, 65273, Control_c, 0, 64, 83
2, 65287, Control_c, 0, 64, 81
2, 65302, Control_c, 0, 64, 77
2, 65318, Control_c, 0, 64, 71
2, 65333, Control_c, 0, 64, 62
2, 65348, Control_c, 0, 64, 0
2, 65348, Note_on_c, 0, 60, 55
2, 65362, Note_on_c, 0, 58, 0
2, 65375, Note_on_c, 0, 56, 46
2, 65381, Note_on_c, 0, 61, 56
2, 65424, Note_on_c, 0, 63, 73
2, 65443, Note_on_c, 0, 61, 0
2, 65508, Note_on_c, 0, 66, 65
2, 65522, Note_on_c, 0, 56, 0
2, 65538, Note_on_c, 0, 54, 52
2, 65704, Note_on_c, 0, 54, 0
2, 65720, Note_on_c, 0, 52, 59
2, 65904, Note_on_c, 0, 51, 56
2, 65923, Note_on_c, 0, 52, 0
2, 66092, Note_on_c, 0, 49, 51
2, 66095, Note_on_c, 0, 51, 0
2, 66258, Note_on_c, 0, 49, 0
2, 66271, Note_on_c, 0, 47, 53
2, 66461, Note_on_c, 0, 45, 50
2, 66505, Note_on_c, 0, 47, 0
2, 66605, Note_on_c, 0, 66, 0
2, 66650, Note_on_c, 0, 64, 52
2, 66653, Note_on_c, 0, 63, 0
2, 66835, Note_on_c, 0, 63, 60
2, 66837, Note_on_c, 0, 64, 0
2, 66969, Note_on_c, 0, 60, 0
2, 66995, Note_on_c, 0, 47, 50
2, 67010, Note_on_c, 0, 61, 60
2, 67013, Note_on_c, 0, 45, 0
2, 67037, Note_on_c, 0, 63, 0
2, 67188, Note_on_c, 0, 44, 53
2, 67194, Note_on_c, 0, 63, 61
2, 67226, Note_on_c, 0, 47, 0
2, 67235, Note_on_c, 0, 61, 0
2, 67380, Note_on_c, 0, 63, 0
2, 67390, Note_on_c, 0, 60, 60
2, 67577, Note_on_c, 0, 42, 52
2, 67585, Note_on_c, 0, 69, 66
2, 67609, Note_on_c, 0, 44, 0
2, 67611, Note_on_c, 0, 60, 0
2, 67777, Note_on_c, 0, 68, 67
2, 67855, Note_on_c, 0, 69, 0
2, 67961, Note_on_c, 0, 66, 65
2, 68012, Note_on_c, 0, 68, 0
2, 68133, Note_on_c, 0, 42, 0
2, 68139, Note_on_c, 0, 64, 66
2, 68148, Note_on_c, 0, 44, 61
2, 68156, Note_on_c, 0, 66, 0
2, 68313, Note_on_c, 0, 64, 0
2, 68331, Note_on_c, 0, 40, 60
2, 68331, Note_on_c, 0, 66, 69
2, 68364, Note_on_c, 0, 44, 0
2, 68494, Note_on_c, 0, 66, 0
2, 68505, Note_on_c, 0, 63, 67
2, 68696, Note_on_c, 0, 39, 59
2, 68697, Note_on_c, 0, 72, 73
2, 68708, Note_on_c, 0, 63, 0
2, 68726, Note_on_c, 0, 40, 0
2, 68896, Note_on_c, 0, 69, 70
2, 68938, Note_on_c, 0, 72, 0
2, 69072, Note_on_c, 0, 68, 74
2, 69116, Note_on_c, 0, 69, 0
2, 69241, Note_on_c, 0, 40, 63
2, 69250, Note_on_c, 0, 66, 74
2, 69258, Note_on_c, 0, 39, 0
2, 69286, Note_on_c, 0, 68, 0
2, 69439, Note_on_c, 0, 40, 0
2, 69445, Note_on_c, 0, 42, 62
2, 69445, Note_on_c, 0, 68, 73
2, 69468, Note_on_c, 0, 66, 0
2, 69625, Note_on_c, 0, 68, 0
2, 69636, Note_on_c, 0, 63, 74
2, 69822, Note_on_c, 0, 75, 73
2, 69826, Note_on_c, 0, 36, 56
2, 69846, Note_on_c, 0, 63, 0
2, 69865, Note_on_c, 0, 42, 0
2, 70009, Note_on_c, 0, 73, 75
2, 70093, Note_on_c, 0, 75, 0
2, 70189, Note_on_c, 0, 72, 75
2, 70227, Note_on_c, 0, 73, 0
2, 70385, Note_on_c, 0, 70, 78
2, 70387, Note_on_c, 0, 39, 52
2, 70427, Note_on_c, 0, 72, 0
2, 70434, Note_on_c, 0, 36, 0
2, 70588, Note_on_c, 0, 72, 76
2, 70597, Note_on_c, 0, 42, 64
2, 70598, Note_on_c, 0, 39, 0
2, 70633, Note_on_c, 0, 70, 0
2, 70758, Note_on_c, 0, 72, 0
2, 70777, Note_on_c, 0, 68, 78
2, 70981, Note_on_c, 0, 40, 60
2, 70989, Note_on_c, 0, 80, 81
2, 70997, Note_on_c, 0, 42, 0
2, 71051, Note_on_c, 0, 68, 0
2, 71180, Note_on_c, 0, 40, 0
2, 71180, Note_on_c, 0, 52, 67
2, 71355, Note_on_c, 0, 52, 0
2, 71355, Note_on_c, 0, 54, 61
2, 71361, Note_on_c, 0, 78, 76
2, 71522, Note_on_c, 0, 56, 63
2, 71524, Note_on_c, 0, 54, 0
2, 71538, Note_on_c, 0, 76, 72
2, 71544, Note_on_c, 0, 80, 0
2, 71575, Note_on_c, 0, 78, 0
2, 71704, Note_on_c, 0, 56, 0
2, 71711, Note_on_c, 0, 75, 74
2, 71721, Note_on_c, 0, 57, 56
2, 71723, Note_on_c, 0, 76, 0
2, 71898, Note_on_c, 0, 54, 57
2, 71904, Note_on_c, 0, 73, 75
2, 71917, Note_on_c, 0, 57, 0
2, 71935, Note_on_c, 0, 75, 0
2, 72084, Note_on_c, 0, 51, 56
2, 72095, Note_on_c, 0, 54, 0
2, 72097, Note_on_c, 0, 72, 65
2, 72127, Note_on_c, 0, 73, 0
2, 72251, Note_on_c, 0, 51, 0
2, 72259, Note_on_c, 0, 52, 58
2, 72277, Note_on_c, 0, 73, 64
2, 72284, Note_on_c, 0, 72, 0
2, 72435, Note_on_c, 0, 52, 0
2, 72455, Note_on_c, 0, 54, 57
2, 72466, Note_on_c, 0, 75, 65
2, 72482, Note_on_c, 0, 73, 0
2, 72627, Note_on_c, 0, 51, 54
2, 72627, Note_on_c, 0, 54, 0
2, 72632, Note_on_c, 0, 78, 74
2, 72653, Note_on_c, 0, 75, 0
2, 72826, Note_on_c, 0, 48, 50
2, 72828, Note_on_c, 0, 51, 0
2, 72838, Note_on_c, 0, 69, 67
2, 72912, Note_on_c, 0, 78, 0
2, 73017, Note_on_c, 0, 49, 50
2, 73038, Note_on_c, 0, 48, 0
2, 73191, Note_on_c, 0, 49, 0
2, 73206, Note_on_c, 0, 51, 53
2, 73366, Note_on_c, 0, 51, 0
2, 73368, Note_on_c, 0, 48, 48
2, 73385, Note_on_c, 0, 68, 60
2, 73409, Note_on_c, 0, 69, 0
2, 73574, Note_on_c, 0, 48, 0
2, 73575, Note_on_c, 0, 44, 53
2, 73577, Note_on_c, 0, 69, 61
2, 73611, Note_on_c, 0, 68, 0
2, 73728, Note_on_c, 0, 69, 0
2, 73752, Note_on_c, 0, 46, 57
2, 73757, Note_on_c, 0, 66, 71
2, 73800, Note_on_c, 0, 44, 0
2, 73939, Note_on_c, 0, 81, 77
2, 73946, Note_on_c, 0, 48, 50
2, 73977, Note_on_c, 0, 66, 0
2, 74003, Note_on_c, 0, 46, 0
2, 74119, Note_on_c, 0, 49, 62
2, 74146, Note_on_c, 0, 48, 0
2, 74317, Note_on_c, 0, 51, 65
2, 74338, Note_on_c, 0, 49, 0
2, 74493, Note_on_c, 0, 52, 73
2, 74496, Note_on_c, 0, 51, 0
2, 74682, Note_on_c, 0, 52, 0
2, 74682, Note_on_c, 0, 54, 62
2, 74682, Note_on_c, 0, 80, 76
2, 74858, Note_on_c, 0, 78, 81
2, 74859, Note_on_c, 0, 56, 61
2, 74867, Note_on_c, 0, 54, 0
2, 74921, Note_on_c, 0, 81, 0
2, 75003, Note_on_c, 0, 80, 0
2, 75039, Note_on_c, 0, 58, 65
2, 75052, Note_on_c, 0, 76, 74
2, 75061, Note_on_c, 0, 56, 0
2, 75063, Note_on_c, 0, 78, 0
2, 75221, Note_on_c, 0, 58, 0
2, 75226, Note_on_c, 0, 60, 64
2, 75233, Note_on_c, 0, 75, 76
2, 75261, Note_on_c, 0, 76, 0
2, 75420, Note_on_c, 0, 76, 70
2, 75425, Note_on_c, 0, 61, 63
2, 75436, Note_on_c, 0, 60, 0
2, 75466, Note_on_c, 0, 75, 0
2, 75596, Note_on_c, 0, 61, 0
2, 75604, Note_on_c, 0, 75, 72
2, 75606, Note_on_c, 0, 59, 64
2, 75782, Note_on_c, 0, 75, 0
2, 75798, Note_on_c, 0, 73, 76
2, 75800, Note_on_c, 0, 57, 66
2, 75822, Note_on_c, 0, 59, 0
2, 75965, Note_on_c, 0, 56, 65
2, 75981, Note_on_c, 0, 72, 76
2, 75982, Note_on_c, 0, 57, 0
2, 75985, Note_on_c, 0, 73, 0
2, 76154, Note_on_c, 0, 76, 0
2, 76184, Note_on_c, 0, 57, 55
2, 76188, Note_on_c, 0, 73, 68
2, 76194, Note_on_c, 0, 56, 0
2, 76273, Note_on_c, 0, 72, 0
2, 76397, Note_on_c, 0, 57, 0
2, 76404, Note_on_c, 0, 54, 56
2, 76415, Note_on_c, 0, 81, 71
2, 76443, Note_on_c, 0, 73, 0
2, 76647, Note_on_c, 0, 73, 60
2, 76660, Note_on_c, 0, 56, 48
2, 76679, Note_on_c, 0, 54, 0
2, 76696, Note_on_c, 0, 81, 0
2, 76734, Note_on_c, 0, 76, 66
2, 77317, Control_c, 0, 64, 44
2, 77332, Control_c, 0, 64, 58
2, 77346, Control_c, 0, 64, 62
2, 77362, Control_c, 0, 64, 62
2, 77377, Control_c, 0, 64, 63
2, 77392, Control_c, 0, 64, 64
2, 77407, Control_c, 0, 64, 65
2, 77422, Control_c, 0, 64, 67
2, 77432, Note_on_c, 0, 76, 0
2, 77432, Note_on_c, 0, 78, 69
2, 77438, Control_c, 0, 64, 71
2, 77453, Control_c, 0, 64, 76
2, 77467, Control_c, 0, 64, 82
2, 77483, Control_c, 0, 64, 86
2, 77498, Control_c, 0, 64, 89
2, 77515, Control_c, 0, 64, 92
2, 77530, Control_c, 0, 64, 94
2, 77543, Note_on_c, 0, 78, 0
2, 77545, Control_c, 0, 64, 96
2, 77560, Control_c, 0, 64, 100
2, 77575, Control_c, 0, 64, 103
2, 77591, Control_c, 0, 64, 105
2, 77606, Control_c, 0, 64, 107
2, 77620, Control_c, 0, 64, 108
2, 77727, Control_c, 0, 64, 106
2, 77742, Control_c, 0, 64, 102
2, 77743, Note_on_c, 0, 73, 0
2, 77754, Note_on_c, 0, 76, 52
2, 77755, Note_on_c, 0, 44, 38
2, 77758, Control_c, 0, 64, 95
2, 77762, Note_on_c, 0, 72, 52
2, 77773, Control_c, 0, 64, 87
2, 77788, Control_c, 0, 64, 78
2, 77803, Control_c, 0, 64, 66
2, 77813, Note_on_c, 0, 75, 56
2, 77814, Note_on_c, 0, 76, 0
2, 77818, Control_c, 0, 64, 0
2, 77889, Note_on_c, 0, 75, 0
2, 77901, Note_on_c, 0, 73, 55
2, 77959, Note_on_c, 0, 73, 0
2, 77970, Note_on_c, 0, 75, 57
2, 78421, Note_on_c, 0, 46, 41
2, 78424, Note_on_c, 0, 72, 0
2, 78427, Note_on_c, 0, 75, 0
2, 78429, Note_on_c, 0, 73, 54
2, 78448, Note_on_c, 0, 56, 0
2, 78451, Note_on_c, 0, 44, 0
2, 78625, Note_on_c, 0, 56, 51
2, 78639, Note_on_c, 0, 71, 57
2, 78781, Note_on_c, 0, 56, 0
2, 78824, Note_on_c, 0, 55, 50
2, 78824, Note_on_c, 0, 70, 64
2, 78825, Note_on_c, 0, 71, 0
2, 78979, Note_on_c, 0, 55, 0
2, 78993, Note_on_c, 0, 56, 61
2, 79001, Note_on_c, 0, 68, 71
2, 79047, Note_on_c, 0, 70, 0
2, 79165, Note_on_c, 0, 56, 0
2, 79182, Note_on_c, 0, 58, 55
2, 79182, Note_on_c, 0, 67, 72
2, 79222, Note_on_c, 0, 68, 0
2, 79348, Note_on_c, 0, 58, 0
2, 79363, Note_on_c, 0, 51, 46
2, 79365, Note_on_c, 0, 68, 66
2, 79378, Note_on_c, 0, 67, 0
2, 79458, Note_on_c, 0, 68, 0
2, 79596, Note_on_c, 0, 68, 57
2, 79611, Note_on_c, 0, 51, 0
2, 79612, Note_on_c, 0, 52, 42
2, 79830, Note_on_c, 0, 67, 49
2, 79883, Note_on_c, 0, 68, 0
2, 80262, Note_on_c, 0, 47, 56
2, 80267, Note_on_c, 0, 76, 60
2, 80290, Note_on_c, 0, 73, 0
2, 80325, Note_on_c, 0, 46, 0
2, 80460, Note_on_c, 0, 49, 56
2, 80473, Note_on_c, 0, 75, 69
2, 80474, Note_on_c, 0, 47, 0
2, 80539, Note_on_c, 0, 76, 0
2, 80863, Note_on_c, 0, 67, 0
2, 80867, Note_on_c, 0, 76, 65
2, 80871, Note_on_c, 0, 43, 50
2, 80880, Note_on_c, 0, 49, 0
2, 80904, Note_on_c, 0, 75, 0
2, 81007, Note_on_c, 0, 52, 0
2, 81048, Note_on_c, 0, 51, 50
2, 81060, Note_on_c, 0, 68, 64
2, 81244, Note_on_c, 0, 49, 66
2, 81253, Note_on_c, 0, 70, 65
2, 81258, Note_on_c, 0, 68, 0
2, 81259, Note_on_c, 0, 51, 0
2, 81434, Note_on_c, 0, 47, 57
2, 81435, Note_on_c, 0, 68, 75
2, 81463, Note_on_c, 0, 49, 0
2, 81480, Note_on_c, 0, 70, 0
2, 81527, Note_on_c, 0, 68, 0
2, 81620, Note_on_c, 0, 49, 60
2, 81623, Note_on_c, 0, 71, 70
2, 81642, Note_on_c, 0, 47, 0
2, 81799, Note_on_c, 0, 70, 74
2, 81800, Note_on_c, 0, 52, 66
2, 81821, Note_on_c, 0, 49, 0
2, 81837, Note_on_c, 0, 71, 0
2, 81916, Note_on_c, 0, 70, 0
2, 82058, Note_on_c, 0, 70, 64
2, 82063, Note_on_c, 0, 55, 54
2, 82106, Note_on_c, 0, 52, 0
2, 82644, Note_on_c, 0, 44, 53
2, 82659, Note_on_c, 0, 72, 73
2, 82677, Note_on_c, 0, 55, 0
2, 82741, Note_on_c, 0, 43, 0
2, 82858, Note_on_c, 0, 72, 0
2, 82860, Note_on_c, 0, 46, 55
2, 82866, Note_on_c, 0, 73, 71
2, 82873, Note_on_c, 0, 44, 0
2, 82888, Note_on_c, 0, 76, 0
2, 83284, Note_on_c, 0, 79, 72
2, 83286, Note_on_c, 0, 39, 45
2, 83320, Note_on_c, 0, 73, 0
2, 83327, Note_on_c, 0, 46, 0
2, 83497, Note_on_c, 0, 75, 68
2, 83531, Note_on_c, 0, 70, 0
2, 83677, Note_on_c, 0, 76, 70
2, 83703, Note_on_c, 0, 75, 0
2, 83862, Note_on_c, 0, 76, 0
2, 83870, Note_on_c, 0, 75, 69
2, 84054, Note_on_c, 0, 73, 68
2, 84081, Note_on_c, 0, 75, 0
2, 84246, Note_on_c, 0, 71, 67
2, 84253, Note_on_c, 0, 73, 0
2, 84409, Note_on_c, 0, 71, 0
2, 84436, Note_on_c, 0, 70, 69
2, 84618, Note_on_c, 0, 39, 0
2, 84624, Note_on_c, 0, 68, 70
2, 84649, Note_on_c, 0, 70, 0
2, 84796, Note_on_c, 0, 67, 72
2, 84823, Note_on_c, 0, 68, 0
2, 84968, Note_on_c, 0, 79, 0
2, 84995, Note_on_c, 0, 65, 67
2, 85009, Note_on_c, 0, 67, 0
2, 85188, Note_on_c, 0, 65, 0
2, 85193, Note_on_c, 0, 80, 68
2, 85196, Note_on_c, 0, 72, 62
2, 85200, Note_on_c, 0, 66, 60
2, 85312, Control_c, 0, 64, 24
2, 85328, Control_c, 0, 64, 64
2, 85343, Control_c, 0, 64, 70
2, 85355, Note_on_c, 0, 80, 0
2, 85357, Control_c, 0, 64, 76
2, 85371, Note_on_c, 0, 72, 0
2, 85373, Control_c, 0, 64, 78
2, 85377, Note_on_c, 0, 63, 73
2, 85388, Control_c, 0, 64, 79
2, 85403, Control_c, 0, 64, 80
2, 85418, Control_c, 0, 64, 81
2, 85426, Note_on_c, 0, 66, 0
2, 85433, Control_c, 0, 64, 83
2, 85449, Control_c, 0, 64, 85
2, 85464, Control_c, 0, 64, 86
2, 85479, Control_c, 0, 64, 87
2, 85539, Control_c, 0, 64, 86
2, 85542, Note_on_c, 0, 63, 0
2, 85554, Control_c, 0, 64, 85
2, 85570, Control_c, 0, 64, 83
2, 85585, Control_c, 0, 64, 80
2, 85585, Note_on_c, 0, 73, 70
2, 85594, Note_on_c, 0, 64, 59
2, 85601, Control_c, 0, 64, 73
2, 85616, Control_c, 0, 64, 64
2, 85631, Control_c, 0, 64, 0
2, 85781, Note_on_c, 0, 63, 55
2, 85801, Note_on_c, 0, 71, 61
2, 85974, Note_on_c, 0, 71, 0
2, 85986, Note_on_c, 0, 61, 58
2, 85988, Note_on_c, 0, 69, 63
2, 85994, Note_on_c, 0, 63, 0
2, 86156, Note_on_c, 0, 61, 0
2, 86175, Note_on_c, 0, 59, 51
2, 86175, Note_on_c, 0, 68, 66
2, 86176, Note_on_c, 0, 64, 0
2, 86189, Note_on_c, 0, 69, 0
2, 86368, Note_on_c, 0, 57, 53
2, 86374, Note_on_c, 0, 66, 67
2, 86394, Note_on_c, 0, 59, 0
2, 86431, Note_on_c, 0, 68, 0
2, 86546, Note_on_c, 0, 57, 0
2, 86568, Note_on_c, 0, 54, 47
2, 86569, Note_on_c, 0, 69, 67
2, 86682, Note_on_c, 0, 66, 0
2, 86766, Note_on_c, 0, 54, 0
2, 86783, Note_on_c, 0, 64, 52
2, 86789, Note_on_c, 0, 56, 52
2, 86873, Note_on_c, 0, 69, 0
2, 86983, Note_on_c, 0, 51, 61
2, 86994, Note_on_c, 0, 56, 0
2, 87203, Note_on_c, 0, 51, 0
2, 87207, Note_on_c, 0, 52, 59
2, 87401, Note_on_c, 0, 64, 0
2, 87405, Note_on_c, 0, 75, 62
2, 87413, Note_on_c, 0, 66, 57
2, 87416, Note_on_c, 0, 73, 0
2, 87419, Note_on_c, 0, 52, 0
2, 87422, Note_on_c, 0, 49, 54
2, 87645, Note_on_c, 0, 63, 59
2, 87647, Note_on_c, 0, 72, 66
2, 87653, Note_on_c, 0, 44, 46
2, 87674, Note_on_c, 0, 66, 0
2, 87679, Note_on_c, 0, 49, 0
2, 87698, Note_on_c, 0, 75, 0
2, 87858, Control_c, 0, 64, 45
2, 87873, Control_c, 0, 64, 63
2, 87884, Note_on_c, 0, 56, 40
2, 87889, Control_c, 0, 64, 66
2, 87894, Note_on_c, 0, 66, 63
2, 87904, Control_c, 0, 64, 68
2, 87919, Control_c, 0, 64, 70
2, 87923, Note_on_c, 0, 63, 0
2, 87934, Control_c, 0, 64, 72
2, 87949, Control_c, 0, 64, 75
2, 87957, Note_on_c, 0, 56, 0
2, 87957, Note_on_c, 0, 56, 10
2, 87964, Control_c, 0, 64, 78
2, 87980, Control_c, 0, 64, 81
2, 87995, Control_c, 0, 64, 82
2, 88011, Control_c, 0, 64, 83
2, 88049, Control_c, 0, 64, 83
2, 88078, Control_c, 0, 64, 84
2, 88154, Control_c, 0, 64, 83
2, 88169, Note_on_c, 0, 73, 67
2, 88170, Note_on_c, 0, 61, 52
2, 88171, Control_c, 0, 64, 79
2, 88173, Note_on_c, 0, 49, 48
2, 88186, Control_c, 0, 64, 74
2, 88194, Note_on_c, 0, 56, 0
2, 88201, Control_c, 0, 64, 64
2, 88216, Control_c, 0, 64, 0
2, 88216, Note_on_c, 0, 44, 0
2, 88224, Note_on_c, 0, 72, 0
2, 88231, Note_on_c, 0, 66, 0
2, 88447, Note_on_c, 0, 68, 61
2, 88735, Note_on_c, 0, 54, 36
2, 88736, Note_on_c, 0, 69, 65
2, 88744, Note_on_c, 0, 68, 0
2, 88824, Note_on_c, 0, 54, 0
2, 88824, Note_on_c, 0, 54, 3
2, 89083, Note_on_c, 0, 66, 57
2, 89140, Note_on_c, 0, 61, 0
2, 89430, Note_on_c, 0, 69, 0
2, 89469, Note_on_c, 0, 57, 38
2, 89478, Note_on_c, 0, 63, 56
2, 89528, Note_on_c, 0, 54, 0
2, 90020, Note_on_c, 0, 72, 60
2, 90114, Note_on_c, 0, 66, 0
2, 90130, Note_on_c, 0, 73, 0
2, 90193, Control_c, 0, 64, 47
2, 90209, Control_c, 0, 64, 60
2, 90224, Control_c, 0, 64, 64
2, 90239, Control_c, 0, 64, 66
2, 90254, Control_c, 0, 64, 68
2, 90269, Control_c, 0, 64, 72
2, 90284, Control_c, 0, 64, 76
2, 90300, Control_c, 0, 64, 80
2, 90314, Control_c, 0, 64, 84
2, 90337, Control_c, 0, 64, 87
2, 90352, Control_c, 0, 64, 90
2, 90368, Control_c, 0, 64, 92
2, 90383, Control_c, 0, 64, 94
2, 90398, Control_c, 0, 64, 95
2, 90414, Control_c, 0, 64, 98
2, 90429, Control_c, 0, 64, 100
2, 90443, Control_c, 0, 64, 102
2, 90459, Control_c, 0, 64, 103
2, 90474, Control_c, 0, 64, 104
2, 90490, Control_c, 0, 64, 105
2, 90505, Control_c, 0, 64, 106
2, 90519, Control_c, 0, 64, 107
2, 90535, Control_c, 0, 64, 108
2, 90550, Control_c, 0, 64, 109
2, 90566, Control_c, 0, 64, 109
2, 90595, Control_c, 0, 64, 110
2, 90611, Control_c, 0, 64, 110
2, 90627, Control_c, 0, 64, 111
2, 90658, Control_c, 0, 64, 111
2, 90855, Control_c, 0, 64, 111
2, 90869, Control_c, 0, 64, 110
2, 90877, Note_on_c, 0, 72, 0
2, 90881, Note_on_c, 0, 63, 0
2, 90884, Control_c, 0, 64, 109
2, 90893, Note_on_c, 0, 68, 51
2, 90895, Note_on_c, 0, 73, 44
2, 90899, Note_on_c, 0, 56, 34
2, 90899, Note_on_c, 0, 65, 48
2, 90900, Control_c, 0, 64, 105
2, 90915, Control_c, 0, 64, 101
2, 90931, Control_c, 0, 64, 96
2, 90945, Control_c, 0, 64, 90
2, 90960, Control_c, 0, 64, 83
2, 90976, Control_c, 0, 64, 74
2, 90991, Control_c, 0, 64, 61
2, 91007, Control_c, 0, 64, 0
2, 91026, Note_on_c, 0, 57, 0
2, 91819, Control_c, 0, 64, 18
2, 91834, Control_c, 0, 64, 29
2, 91850, Control_c, 0, 64, 35
2, 91872, Control_c, 0, 64, 40
2, 91887, Control_c, 0, 64, 45
2, 91902, Control_c, 0, 64, 48
2, 91917, Control_c, 0, 64, 50
2, 91933, Control_c, 0, 64, 52
2, 91948, Control_c, 0, 64, 54
2, 91963, Control_c, 0, 64, 56
2, 91979, Control_c, 0, 64, 57
2, 91994, Control_c, 0, 64, 59
2, 92009, Control_c, 0, 64, 61
2, 92024, Control_c, 0, 64, 62
2, 92055, Control_c, 0, 64, 62
2, 92084, Control_c, 0, 64, 63
2, 92100, Control_c, 0, 64, 63
2, 92115, Control_c, 0, 64, 64
2, 92130, Control_c, 0, 64, 65
2, 92145, Control_c, 0, 64, 65
2, 92160, Control_c, 0, 64, 66
2, 92176, Control_c, 0, 64, 66
2, 92206, Control_c, 0, 64, 67
2, 92236, Control_c, 0, 64, 67
2, 92253, Control_c, 0, 64, 68
2, 92283, Control_c, 0, 64, 68
2, 92299, Control_c, 0, 64, 69
2, 92313, Control_c, 0, 64, 70
2, 92329, Control_c, 0, 64, 71
2, 92374, Control_c, 0, 64, 71
2, 92404, Control_c, 0, 64, 72
2, 92420, Control_c, 0, 64, 72
2, 92450, Control_c, 0, 64, 73
2, 92511, Control_c, 0, 64, 73
2, 92526, Control_c, 0, 64, 74
2, 92541, Control_c, 0, 64, 74
2, 92556, Control_c, 0, 64, 75
2, 92572, Control_c, 0, 64, 75
2, 92686, Control_c, 0, 64, 76
2, 93219, Control_c, 0, 64, 75
2, 93340, Control_c, 0, 64, 75
2, 93371, Control_c, 0, 64, 74
2, 93386, Control_c, 0, 64, 74
2, 93394, Note_on_c, 0, 65, 0
2, 93409, Control_c, 0, 64, 73
2, 93439, Control_c, 0, 64, 73
2, 93453, Note_on_c, 0, 68, 0
2, 93455, Control_c, 0, 64, 72
2, 93463, Note_on_c, 0, 73, 0
2, 93470, Control_c, 0, 64, 71
2, 93471, Note_on_c, 0, 56, 0
2, 93484, Control_c, 0, 64, 69
2, 93489, Note_on_c, 0, 49, 0
2, 93500, Control_c, 0, 64, 67
2, 93515, Control_c, 0, 64, 64
2, 93531, Control_c, 0, 64, 62
2, 93545, Control_c, 0, 64, 62
2, 93621, Control_c, 0, 64, 61
2, 93636, Control_c, 0, 64, 61
2, 93652, Control_c, 0, 64, 59
2, 93667, Control_c, 0, 64, 57
2, 93682, Control_c, 0, 64, 55
2, 93697, Control_c, 0, 64, 54
2, 93712, Control_c, 0, 64, 53
2, 93728, Control_c, 0, 64, 52
2, 93743, Control_c, 0, 64, 49
2, 93758, Control_c, 0, 64, 43
2, 93774, Control_c, 0, 64, 37
2, 93789, Control_c, 0, 64, 29
2, 93803, Control_c, 0, 64, 20
2, 93819, Control_c, 0, 64, 0
2, 94831, Control_c, 0, 64, 18
2, 94847, Control_c, 0, 64, 29
2, 94862, Control_c, 0, 64, 37
2, 94877, Control_c, 0, 64, 43
2, 94892, Control_c, 0, 64, 47
2, 94907, Control_c, 0, 64, 50
2, 94922, Control_c, 0, 64, 52
2, 94944, Control_c, 0, 64, 55
2, 94959, Control_c, 0, 64, 59
2, 94975, Control_c, 0, 64, 62
2, 94990, Control_c, 0, 64, 64
2, 95006, Control_c, 0, 64, 65
2, 95036, Control_c, 0, 64, 66
2, 95052, Control_c, 0, 64, 67
2, 95067, Control_c, 0, 64, 69
2, 95082, Control_c, 0, 64, 72
2, 95097, Control_c, 0, 64, 74
2, 95112, Control_c, 0, 64, 76
2, 95128, Control_c, 0, 64, 77
2, 95143, Control_c, 0, 64, 78
2, 95295, Control_c, 0, 64, 77
2, 95340, Control_c, 0, 64, 77
2, 95385, Control_c, 0, 64, 76
2, 95400, Control_c, 0, 64, 76
2, 95416, Control_c, 0, 64, 75
2, 95430, Control_c, 0, 64, 75
2, 95446, Control_c, 0, 64, 74
2, 95461, Control_c, 0, 64, 73
2, 95492, Control_c, 0, 64, 73
2, 95507, Control_c, 0, 64, 72
2, 95522, Control_c, 0, 64, 72
2, 95538, Control_c, 0, 64, 71
2, 95553, Control_c, 0, 64, 70
2, 95569, Control_c, 0, 64, 68
2, 95583, Control_c, 0, 64, 64
2, 95598, Control_c, 0, 64, 60
2, 95614, Control_c, 0, 64, 51
2, 95629, Control_c, 0, 64, 47
2, 95644, Control_c, 0, 64, 48
2, 95660, Control_c, 0, 64, 49
2, 95691, Control_c, 0, 64, 48
2, 95713, Control_c, 0, 64, 44
2, 95729, Control_c, 0, 64, 36
2, 95743, Control_c, 0, 64, 18
2, 95758, Control_c, 0, 64, 0
2, 96997, Control_c, 0, 64, 13
2, 97013, Control_c, 0, 64, 18
2, 97028, Control_c, 0, 64, 20
2, 97042, Control_c, 0, 64, 21
2, 97058, Control_c, 0, 64, 23
2, 97073, Control_c, 0, 64, 25
2, 97089, Control_c, 0, 64, 28
2, 97104, Control_c, 0, 64, 31
2, 97134, Control_c, 0, 64, 30
2, 97181, Control_c, 0, 64, 29
2, 97212, Control_c, 0, 64, 29
2, 97226, Control_c, 0, 64, 28
2, 97310, Control_c, 0, 64, 27
2, 97326, Control_c, 0, 64, 26
2, 97341, Control_c, 0, 64, 25
2, 97507, Control_c, 0, 64, 24
2, 97552, Control_c, 0, 64, 25
2, 97598, Control_c, 0, 64, 24
2, 97811, Control_c, 0, 64, 23
2, 97841, Control_c, 0, 64, 20
2, 98032, Control_c, 0, 64, 18
2, 98170, Control_c, 0, 64, 17
2, 98306, Control_c, 0, 64, 18
2, 98382, Control_c, 0, 64, 17
2, 98488, Control_c, 0, 64, 18
2, 98655, Control_c, 0, 64, 17
2, 98876, Control_c, 0, 64, 15
2, 98907, Control_c, 0, 64, 13
2, 98952, Control_c, 0, 64, 0
2, 99211, Control_c, 0, 64, 10
2, 99287, Control_c, 0, 64, 13
2, 99378, Control_c, 0, 64, 15
2, 99393, Control_c, 0, 64, 17
2, 99469, Control_c, 0, 64, 18
2, 99597, Control_c, 0, 64, 20
2, 99613, Control_c, 0, 64, 21
2, 99766, Control_c, 0, 64, 23
2, 99979, Control_c, 0, 64, 21
2, 100009, Control_c, 0, 64, 20
2, 100084, Control_c, 0, 64, 18
2, 100100, Control_c, 0, 64, 17
2, 100160, Control_c, 0, 64, 15
2, 100191, Control_c, 0, 64, 13
2, 100267, Control_c, 0, 64, 10
2, 100282, Control_c, 0, 64, 0
2, 102453,End_track
0, 0, End_of_file
