0, 0, Header, 1, 2, 384
1, 0, Start_track
1, 0, Tempo, 500000
1, 0, Time_signature, 4, 2, 24, 8
1, 1, End_track
2,0,Start_track
2,0, Note_on_c, 0, 49, 48
2,1385, Note_on_c, 0, 48, 46
2,1510, Note_on_c, 0, 49, 0
2,2077, Note_on_c, 0, 52, 59
2,2194, Note_on_c, 0, 48, 0
2,2804, Note_on_c, 0, 51, 44
2,2886, Note_on_c, 0, 52, 0
2,4037, Note_on_c, 0, 49, 37
2,4039, Note_on_c, 0, 56, 56
2,4097, Note_on_c, 0, 51, 0
2,4343, Note_on_c, 0, 51, 42
2,4400, Note_on_c, 0, 49, 0
2,4671, Note_on_c, 0, 52, 38
2,4734, Note_on_c, 0, 51, 0
2,5289, Note_on_c, 0, 55, 56
2,5437, Note_on_c, 0, 56, 0
2,5598, Note_on_c, 0, 51, 37
2,5662, Note_on_c, 0, 52, 0
2,5709, Note_on_c, 0, 51, 0
2,5726, Note_on_c, 0, 49, 44
2,5912, Note_on_c, 0, 59, 61
2,5930, Note_on_c, 0, 51, 40
2,5939, Note_on_c, 0, 49, 0
2,6040, Note_on_c, 0, 55, 0
2,6237, Note_on_c, 0, 51, 0
2,6244, Note_on_c, 0, 56, 43
2,6546, Note_on_c, 0, 58, 57
2,6548, Note_on_c, 0, 49, 34
2,6559, Note_on_c, 0, 56, 0
2,6665, Note_on_c, 0, 59, 0
2,6877, Note_on_c, 0, 51, 51
2,6919, Note_on_c, 0, 49, 0
2,6989, Note_on_c, 0, 51, 0
2,6992, Note_on_c, 0, 52, 61
2,7188, Note_on_c, 0, 54, 45
2,7190, Note_on_c, 0, 52, 0
2,7807, Note_on_c, 0, 56, 53
2,7906, Note_on_c, 0, 58, 0
2,8115, Note_on_c, 0, 52, 36
2,8142, Note_on_c, 0, 54, 0
2,8423, Note_on_c, 0, 51, 37
2,8425, Note_on_c, 0, 61, 59
2,8426, Note_on_c, 0, 57, 49
2,8508, Note_on_c, 0, 52, 0
2,8537, Note_on_c, 0, 56, 0
2,8744, Note_on_c, 0, 51, 0
2,8750, Note_on_c, 0, 49, 38
2,9049, Note_on_c, 0, 60, 63
2,9057, Note_on_c, 0, 51, 39
2,9105, Note_on_c, 0, 49, 0
2,9129, Note_on_c, 0, 61, 0
2,9286, Note_on_c, 0, 57, 0
2,9368, Note_on_c, 0, 56, 50
2,9470, Note_on_c, 0, 56, 0
2,9498, Note_on_c, 0, 54, 53
2,9662, Note_on_c, 0, 54, 0
2,9667, Note_on_c, 0, 64, 62
2,9668, Note_on_c, 0, 56, 51
2,9683, Note_on_c, 0, 49, 40
2,9691, Note_on_c, 0, 60, 0
2,9758, Note_on_c, 0, 51, 0
2,9945, Note_on_c, 0, 56, 0
2,9963, Note_on_c, 0, 61, 50
2,10234, Note_on_c, 0, 64, 0
2,10300, Note_on_c, 0, 54, 37
2,10301, Note_on_c, 0, 63, 56
2,10355, Note_on_c, 0, 61, 0
2,10598, Note_on_c, 0, 49, 0
2,10601, Note_on_c, 0, 56, 52
2,10604, Note_on_c, 0, 47, 41
2,10611, Note_on_c, 0, 54, 0
2,10714, Note_on_c, 0, 56, 0
2,10731, Note_on_c, 0, 57, 53
2,10884, Note_on_c, 0, 45, 38
2,10898, Note_on_c, 0, 57, 0
2,10898, Note_on_c, 0, 59, 39
2,10956, Note_on_c, 0, 47, 0
2,11182, Note_on_c, 0, 44, 47
2,11205, Note_on_c, 0, 45, 0
2,11491, Note_on_c, 0, 45, 40
2,11493, Note_on_c, 0, 61, 54
2,11496, Note_on_c, 0, 44, 0
2,11569, Note_on_c, 0, 59, 0
2,11585, Note_on_c, 0, 63, 0
2,11814, Note_on_c, 0, 57, 51
2,12103, Note_on_c, 0, 66, 63
2,12107, Note_on_c, 0, 46, 48
2,12114, Note_on_c, 0, 57, 0
2,12117, Note_on_c, 0, 56, 60
2,12121, Note_on_c, 0, 45, 0
2,12161, Note_on_c, 0, 61, 0
2,12428, Note_on_c, 0, 54, 50
2,12493, Note_on_c, 0, 56, 0
2,12726, Note_on_c, 0, 54, 0
2,12738, Note_on_c, 0, 56, 51
2,12740, Note_on_c, 0, 48, 52
2,12780, Note_on_c, 0, 46, 0
2,13052, Note_on_c, 0, 64, 59
2,13156, Note_on_c, 0, 66, 0
2,13361, Note_on_c, 0, 49, 40
2,13362, Note_on_c, 0, 48, 0
2,13363, Note_on_c, 0, 63, 57
2,13367, Note_on_c, 0, 54, 42
2,13405, Note_on_c, 0, 56, 0
2,13418, Note_on_c, 0, 64, 0
2,13642, Note_on_c, 0, 54, 0
2,13667, Note_on_c, 0, 52, 34
2,13675, Note_on_c, 0, 61, 51
2,13731, Note_on_c, 0, 63, 0
2,13828, Note_on_c, 0, 61, 0
2,13972, Note_on_c, 0, 61, 50
2,13996, Note_on_c, 0, 51, 26
2,13999, Note_on_c, 0, 44, 20
2,14006, Note_on_c, 0, 49, 0
2,14047, Note_on_c, 0, 52, 0
2,14294, Note_on_c, 0, 45, 41
2,14348, Note_on_c, 0, 44, 0
2,14589, Note_on_c, 0, 68, 68
2,14594, Note_on_c, 0, 59, 47
2,14600, Note_on_c, 0, 47, 35
2,14629, Note_on_c, 0, 45, 0
2,14697, Note_on_c, 0, 61, 0
2,14900, Note_on_c, 0, 51, 0
2,14905, Note_on_c, 0, 50, 38
2,15148, Note_on_c, 0, 59, 0
2,15184, Note_on_c, 0, 61, 56
2,15189, Note_on_c, 0, 49, 45
2,15190, Note_on_c, 0, 65, 62
2,15232, Note_on_c, 0, 50, 0
2,15282, Note_on_c, 0, 68, 0
2,15483, Note_on_c, 0, 47, 0
2,15498, Note_on_c, 0, 45, 45
2,15771, Note_on_c, 0, 45, 0
2,15782, Note_on_c, 0, 69, 71
2,15785, Note_on_c, 0, 66, 64
2,15786, Note_on_c, 0, 44, 42
2,15840, Note_on_c, 0, 49, 0
2,15861, Note_on_c, 0, 61, 0
2,15870, Note_on_c, 0, 65, 0
2,16119, Note_on_c, 0, 42, 37
2,16141, Note_on_c, 0, 44, 0
2,16435, Note_on_c, 0, 68, 62
2,16444, Note_on_c, 0, 49, 40
2,16454, Note_on_c, 0, 69, 0
2,16477, Note_on_c, 0, 42, 0
2,16744, Note_on_c, 0, 64, 49
2,16755, Control_c, 0, 64, 54
2,16770, Control_c, 0, 64, 63
2,16773, Note_on_c, 0, 66, 0
2,16785, Control_c, 0, 64, 66
2,16801, Control_c, 0, 64, 69
2,16815, Control_c, 0, 64, 74
2,16831, Control_c, 0, 64, 77
2,16847, Control_c, 0, 64, 79
2,16852, Note_on_c, 0, 68, 0
2,16861, Control_c, 0, 64, 79
2,16968, Control_c, 0, 64, 78
2,16983, Control_c, 0, 64, 77
2,16999, Control_c, 0, 64, 76
2,17014, Control_c, 0, 64, 72
2,17029, Control_c, 0, 64, 66
2,17045, Control_c, 0, 64, 41
2,17060, Control_c, 0, 64, 0
2,17069, Note_on_c, 0, 64, 0
2,17072, Note_on_c, 0, 66, 57
2,17078, Note_on_c, 0, 63, 53
2,17079, Note_on_c, 0, 73, 65
2,17084, Note_on_c, 0, 45, 37
2,17126, Note_on_c, 0, 49, 0
2,17384, Note_on_c, 0, 61, 59
2,17417, Control_c, 0, 64, 21
2,17432, Control_c, 0, 64, 59
2,17434, Note_on_c, 0, 63, 0
2,17440, Note_on_c, 0, 66, 0
2,17448, Control_c, 0, 64, 66
2,17463, Control_c, 0, 64, 70
2,17478, Control_c, 0, 64, 74
2,17479, Note_on_c, 0, 73, 0
2,17493, Control_c, 0, 64, 77
2,17508, Control_c, 0, 64, 77
2,17584, Control_c, 0, 64, 77
2,17599, Control_c, 0, 64, 76
2,17614, Control_c, 0, 64, 75
2,17629, Control_c, 0, 64, 73
2,17645, Control_c, 0, 64, 69
2,17653, Note_on_c, 0, 61, 0
2,17661, Control_c, 0, 64, 62
2,17677, Control_c, 0, 64, 0
2,17696, Note_on_c, 0, 72, 75
2,17704, Note_on_c, 0, 66, 61
2,17715, Note_on_c, 0, 63, 58
2,17942, Control_c, 0, 64, 54
2,17958, Control_c, 0, 64, 64
2,17973, Control_c, 0, 64, 69
2,17987, Control_c, 0, 64, 74
2,17988, Note_on_c, 0, 63, 0
2,18003, Control_c, 0, 64, 80
2,18004, Note_on_c, 0, 72, 0
2,18005, Note_on_c, 0, 66, 0
2,18013, Note_on_c, 0, 44, 56
2,18018, Control_c, 0, 64, 83
2,18034, Control_c, 0, 64, 84
2,18048, Control_c, 0, 64, 85
2,18060, Note_on_c, 0, 45, 0
2,18216, Control_c, 0, 64, 85
2,18231, Control_c, 0, 64, 84
2,18246, Control_c, 0, 64, 83
2,18261, Control_c, 0, 64, 81
2,18277, Control_c, 0, 64, 78
2,18292, Control_c, 0, 64, 72
2,18298, Note_on_c, 0, 42, 49
2,18307, Control_c, 0, 64, 64
2,18314, Note_on_c, 0, 73, 65
2,18314, Note_on_c, 0, 76, 75
2,18318, Note_on_c, 0, 68, 55
2,18322, Control_c, 0, 64, 0
2,18328, Note_on_c, 0, 44, 0
2,18628, Note_on_c, 0, 42, 0
2,18632, Note_on_c, 0, 40, 47
2,18932, Note_on_c, 0, 75, 72
2,18935, Note_on_c, 0, 40, 0
2,18935, Note_on_c, 0, 42, 41
2,18967, Note_on_c, 0, 76, 0
2,19002, Note_on_c, 0, 68, 0
2,19254, Note_on_c, 0, 69, 58
2,19271, Control_c, 0, 64, 56
2,19272, Note_on_c, 0, 73, 0
2,19288, Control_c, 0, 64, 64
2,19303, Control_c, 0, 64, 66
2,19333, Control_c, 0, 64, 65
2,19364, Control_c, 0, 64, 65
2,19448, Control_c, 0, 64, 64
2,19478, Control_c, 0, 64, 64
2,19493, Control_c, 0, 64, 62
2,19508, Control_c, 0, 64, 59
2,19523, Control_c, 0, 64, 52
2,19533, Note_on_c, 0, 69, 0
2,19538, Control_c, 0, 64, 18
2,19554, Control_c, 0, 64, 0
2,19555, Note_on_c, 0, 71, 54
2,19565, Note_on_c, 0, 68, 42
2,19566, Note_on_c, 0, 44, 35
2,19635, Note_on_c, 0, 42, 0
2,19797, Control_c, 0, 64, 45
2,19811, Note_on_c, 0, 75, 0
2,19812, Control_c, 0, 64, 63
2,19827, Control_c, 0, 64, 67
2,19843, Control_c, 0, 64, 70
2,19857, Control_c, 0, 64, 73
2,19863, Note_on_c, 0, 68, 0
2,19866, Note_on_c, 0, 71, 0
2,19872, Control_c, 0, 64, 74
2,19882, Note_on_c, 0, 66, 50
2,19888, Control_c, 0, 64, 75
2,19903, Control_c, 0, 64, 76
2,19919, Control_c, 0, 64, 77
2,20079, Note_on_c, 0, 66, 0
2,20117, Control_c, 0, 64, 76
2,20132, Control_c, 0, 64, 75
2,20155, Control_c, 0, 64, 74
2,20169, Control_c, 0, 64, 71
2,20184, Control_c, 0, 64, 67
2,20190, Note_on_c, 0, 45, 40
2,20191, Note_on_c, 0, 65, 56
2,20194, Note_on_c, 0, 73, 58
2,20200, Control_c, 0, 64, 59
2,20215, Control_c, 0, 64, 0
2,20217, Note_on_c, 0, 44, 0
2,20494, Note_on_c, 0, 61, 49
2,20496, Note_on_c, 0, 65, 0
2,20503, Note_on_c, 0, 44, 37
2,20518, Note_on_c, 0, 45, 0
2,20765, Note_on_c, 0, 61, 0
2,20803, Note_on_c, 0, 66, 54
2,20803, Note_on_c, 0, 69, 42
2,20816, Note_on_c, 0, 45, 32
2,20848, Note_on_c, 0, 44, 0
2,21111, Note_on_c, 0, 75, 68
2,21117, Note_on_c, 0, 45, 0
2,21121, Note_on_c, 0, 69, 0
2,21131, Note_on_c, 0, 47, 41
2,21136, Control_c, 0, 64, 52
2,21150, Control_c, 0, 64, 63
2,21150, Note_on_c, 0, 73, 0
2,21152, Note_on_c, 0, 66, 0
2,21166, Control_c, 0, 64, 66
2,21181, Control_c, 0, 64, 68
2,21197, Control_c, 0, 64, 68
2,21212, Control_c, 0, 64, 69
2,21227, Control_c, 0, 64, 69
2,21292, Note_on_c, 0, 75, 0
2,21303, Control_c, 0, 64, 69
2,21319, Control_c, 0, 64, 68
2,21334, Control_c, 0, 64, 67
2,21348, Control_c, 0, 64, 66
2,21364, Control_c, 0, 64, 64
2,21379, Control_c, 0, 64, 60
2,21395, Control_c, 0, 64, 50
2,21410, Control_c, 0, 64, 13
2,21424, Control_c, 0, 64, 0
2,21426, Note_on_c, 0, 76, 69
2,21430, Note_on_c, 0, 49, 45
2,21432, Note_on_c, 0, 68, 58
2,21441, Note_on_c, 0, 64, 47
2,21487, Note_on_c, 0, 47, 0
2,21743, Note_on_c, 0, 75, 73
2,21744, Note_on_c, 0, 47, 58
2,21776, Note_on_c, 0, 49, 0
2,21896, Note_on_c, 0, 68, 0
2,22049, Note_on_c, 0, 49, 60
2,22049, Note_on_c, 0, 73, 63
2,22051, Note_on_c, 0, 69, 58
2,22101, Note_on_c, 0, 47, 0
2,22106, Note_on_c, 0, 75, 0
2,22156, Note_on_c, 0, 76, 0
2,22350, Note_on_c, 0, 51, 62
2,22409, Note_on_c, 0, 49, 0
2,22683, Note_on_c, 0, 52, 64
2,22688, Note_on_c, 0, 71, 58
2,22716, Note_on_c, 0, 51, 0
2,22728, Note_on_c, 0, 69, 0
2,22772, Note_on_c, 0, 73, 0
2,22958, Control_c, 0, 64, 47
2,22974, Control_c, 0, 64, 64
2,22989, Control_c, 0, 64, 69
2,22992, Note_on_c, 0, 71, 0
2,23002, Note_on_c, 0, 68, 50
2,23005, Control_c, 0, 64, 74
2,23020, Control_c, 0, 64, 77
2,23034, Control_c, 0, 64, 79
2,23050, Control_c, 0, 64, 79
2,23090, Note_on_c, 0, 68, 0
2,23105, Note_on_c, 0, 64, 0
2,23202, Control_c, 0, 64, 79
2,23224, Control_c, 0, 64, 78
2,23239, Control_c, 0, 64, 77
2,23255, Control_c, 0, 64, 74
2,23270, Control_c, 0, 64, 69
2,23286, Control_c, 0, 64, 60
2,23301, Control_c, 0, 64, 0
2,23301, Note_on_c, 0, 56, 64
2,23328, Note_on_c, 0, 49, 38
2,23334, Note_on_c, 0, 68, 31
2,23335, Note_on_c, 0, 73, 46
2,23337, Note_on_c, 0, 66, 35
2,23385, Note_on_c, 0, 52, 0
2,23588, Control_c, 0, 64, 15
2,23604, Control_c, 0, 64, 60
2,23616, Note_on_c, 0, 64, 49
2,23619, Control_c, 0, 64, 66
2,23634, Control_c, 0, 64, 70
2,23647, Note_on_c, 0, 68, 0
2,23650, Control_c, 0, 64, 73
2,23665, Control_c, 0, 64, 76
2,23675, Note_on_c, 0, 73, 0
2,23676, Note_on_c, 0, 64, 0
2,23681, Control_c, 0, 64, 78
2,23695, Control_c, 0, 64, 78
2,23708, Note_on_c, 0, 66, 0
2,23710, Control_c, 0, 64, 79
2,23877, Control_c, 0, 64, 77
2,23893, Control_c, 0, 64, 74
2,23908, Control_c, 0, 64, 67
2,23924, Control_c, 0, 64, 43
2,23934, Note_on_c, 0, 70, 45
2,23935, Note_on_c, 0, 55, 64
2,23939, Control_c, 0, 64, 0
2,23940, Note_on_c, 0, 75, 49
2,23952, Note_on_c, 0, 63, 30
2,24001, Note_on_c, 0, 56, 0
2,24241, Note_on_c, 0, 49, 0
2,24246, Note_on_c, 0, 47, 51
2,24252, Control_c, 0, 64, 56
2,24267, Control_c, 0, 64, 65
2,24283, Control_c, 0, 64, 71
2,24286, Note_on_c, 0, 55, 0
2,24298, Control_c, 0, 64, 75
2,24312, Control_c, 0, 64, 77
2,24328, Control_c, 0, 64, 79
2,24343, Control_c, 0, 64, 79
2,24379, Note_on_c, 0, 63, 0
2,24479, Control_c, 0, 64, 79
2,24495, Control_c, 0, 64, 78
2,24509, Control_c, 0, 64, 75
2,24525, Control_c, 0, 64, 69
2,24529, Note_on_c, 0, 59, 69
2,24530, Note_on_c, 0, 46, 61
2,24540, Control_c, 0, 64, 52
2,24555, Control_c, 0, 64, 0
2,24564, Note_on_c, 0, 68, 51
2,24576, Note_on_c, 0, 47, 0
2,24699, Note_on_c, 0, 70, 0
2,24841, Note_on_c, 0, 46, 0
2,24851, Control_c, 0, 64, 58
2,24855, Note_on_c, 0, 44, 35
2,24866, Control_c, 0, 64, 66
2,24882, Control_c, 0, 64, 69
2,24893, Note_on_c, 0, 59, 0
2,24897, Control_c, 0, 64, 71
2,24912, Control_c, 0, 64, 73
2,24928, Control_c, 0, 64, 74
2,24943, Control_c, 0, 64, 75
2,24958, Control_c, 0, 64, 76
2,24988, Control_c, 0, 64, 76
2,25096, Control_c, 0, 64, 76
2,25127, Control_c, 0, 64, 75
2,25141, Control_c, 0, 64, 73
2,25156, Control_c, 0, 64, 69
2,25156, Note_on_c, 0, 58, 61
2,25163, Note_on_c, 0, 49, 55
2,25172, Control_c, 0, 64, 63
2,25187, Control_c, 0, 64, 0
2,25232, Note_on_c, 0, 44, 0
2,25464, Note_on_c, 0, 75, 0
2,25476, Note_on_c, 0, 76, 67
2,25574, Control_c, 0, 64, 30
2,25589, Control_c, 0, 64, 42
2,25605, Control_c, 0, 64, 44
2,25619, Control_c, 0, 64, 43
2,25634, Control_c, 0, 64, 42
2,25681, Control_c, 0, 64, 42
2,25695, Control_c, 0, 64, 40
2,25710, Control_c, 0, 64, 36
2,25726, Control_c, 0, 64, 32
2,25741, Control_c, 0, 64, 26
2,25756, Control_c, 0, 64, 0
2,25781, Note_on_c, 0, 51, 45
2,25784, Note_on_c, 0, 49, 0
2,25798, Note_on_c, 0, 75, 62
2,25802, Note_on_c, 0, 67, 53
2,25837, Note_on_c, 0, 68, 0
2,26031, Control_c, 0, 64, 48
2,26046, Control_c, 0, 64, 61
2,26061, Control_c, 0, 64, 64
2,26076, Control_c, 0, 64, 65
2,26092, Control_c, 0, 64, 65
2,26107, Control_c, 0, 64, 66
2,26114, Note_on_c, 0, 73, 63
2,26118, Note_on_c, 0, 76, 0
2,26122, Control_c, 0, 64, 66
2,26133, Note_on_c, 0, 58, 0
2,26137, Control_c, 0, 64, 67
2,26144, Note_on_c, 0, 67, 0
2,26178, Note_on_c, 0, 75, 0
2,26197, Control_c, 0, 64, 66
2,26244, Control_c, 0, 64, 65
2,26258, Control_c, 0, 64, 65
2,26282, Control_c, 0, 64, 64
2,26328, Control_c, 0, 64, 64
2,26357, Control_c, 0, 64, 62
2,26373, Control_c, 0, 64, 60
2,26387, Control_c, 0, 64, 50
2,26403, Control_c, 0, 64, 0
2,26421, Note_on_c, 0, 56, 47
2,26428, Note_on_c, 0, 44, 39
2,26429, Note_on_c, 0, 71, 62
2,26435, Note_on_c, 0, 68, 48
2,26470, Note_on_c, 0, 73, 0
2,26471, Note_on_c, 0, 51, 0
2,26553, Control_c, 0, 64, 55
2,26561, Note_on_c, 0, 44, 0
2,26569, Control_c, 0, 64, 65
2,26583, Control_c, 0, 64, 68
2,26598, Control_c, 0, 64, 70
2,26614, Control_c, 0, 64, 71
2,26706, Control_c, 0, 64, 71
2,26707, Note_on_c, 0, 56, 0
2,26722, Control_c, 0, 64, 69
2,26729, Note_on_c, 0, 57, 53
2,26734, Note_on_c, 0, 75, 72
2,26737, Control_c, 0, 64, 65
2,26752, Control_c, 0, 64, 52
2,26767, Control_c, 0, 64, 0
2,26768, Note_on_c, 0, 68, 0
2,26804, Note_on_c, 0, 71, 0
2,27044, Note_on_c, 0, 56, 45
2,27044, Note_on_c, 0, 59, 48
2,27053, Note_on_c, 0, 57, 0
2,27055, Note_on_c, 0, 80, 74
2,27181, Note_on_c, 0, 75, 0
2,27343, Note_on_c, 0, 56, 0
2,27351, Note_on_c, 0, 54, 52
2,27648, Note_on_c, 0, 54, 0
2,27649, Note_on_c, 0, 61, 55
2,27667, Note_on_c, 0, 53, 44
2,27703, Note_on_c, 0, 59, 0
2,27981, Note_on_c, 0, 78, 68
2,28016, Note_on_c, 0, 80, 0
2,28277, Note_on_c, 0, 80, 78
2,28283, Note_on_c, 0, 57, 53
2,28285, Note_on_c, 0, 53, 0
2,28342, Note_on_c, 0, 61, 0
2,28367, Note_on_c, 0, 78, 0
2,28593, Note_on_c, 0, 61, 53
2,28593, Note_on_c, 0, 81, 74
2,28674, Note_on_c, 0, 80, 0
2,28902, Note_on_c, 0, 57, 0
2,28908, Note_on_c, 0, 83, 70
2,28918, Note_on_c, 0, 56, 41
2,28923, Note_on_c, 0, 63, 43
2,28951, Note_on_c, 0, 61, 0
2,29018, Note_on_c, 0, 81, 0
2,29211, Note_on_c, 0, 61, 61
2,29237, Note_on_c, 0, 63, 0
2,29510, Note_on_c, 0, 63, 64
2,29557, Note_on_c, 0, 61, 0
2,29827, Note_on_c, 0, 65, 70
2,29837, Control_c, 0, 64, 29
2,29853, Control_c, 0, 64, 61
2,29866, Note_on_c, 0, 63, 0
2,29868, Control_c, 0, 64, 66
2,29884, Control_c, 0, 64, 68
2,29899, Control_c, 0, 64, 69
2,29914, Control_c, 0, 64, 70
2,29930, Control_c, 0, 64, 71
2,29944, Note_on_c, 0, 65, 0
2,30083, Control_c, 0, 64, 70
2,30097, Control_c, 0, 64, 68
2,30119, Control_c, 0, 64, 65
2,30135, Control_c, 0, 64, 58
2,30150, Control_c, 0, 64, 20
2,30153, Note_on_c, 0, 66, 59
2,30165, Note_on_c, 0, 54, 52
2,30166, Control_c, 0, 64, 0
2,30202, Note_on_c, 0, 56, 0
2,30475, Note_on_c, 0, 81, 55
2,30485, Control_c, 0, 64, 58
2,30500, Control_c, 0, 64, 65
2,30515, Control_c, 0, 64, 67
2,30652, Control_c, 0, 64, 66
2,30666, Control_c, 0, 64, 66
2,30682, Control_c, 0, 64, 65
2,30697, Control_c, 0, 64, 64
2,30712, Control_c, 0, 64, 63
2,30728, Control_c, 0, 64, 60
2,30742, Control_c, 0, 64, 53
2,30758, Control_c, 0, 64, 34
2,30761, Note_on_c, 0, 61, 62
2,30761, Note_on_c, 0, 69, 64
2,30774, Control_c, 0, 64, 0
2,30794, Note_on_c, 0, 80, 36
2,30845, Note_on_c, 0, 66, 0
2,30972, Note_on_c, 0, 83, 0
2,31010, Control_c, 0, 64, 54
2,31025, Control_c, 0, 64, 65
2,31039, Control_c, 0, 64, 69
2,31056, Control_c, 0, 64, 72
2,31071, Control_c, 0, 64, 74
2,31086, Note_on_c, 0, 78, 62
2,31087, Control_c, 0, 64, 76
2,31100, Note_on_c, 0, 81, 0
2,31102, Control_c, 0, 64, 77
2,31111, Note_on_c, 0, 69, 0
2,31116, Control_c, 0, 64, 77
2,31147, Control_c, 0, 64, 78
2,31148, Note_on_c, 0, 80, 0
2,31154, Note_on_c, 0, 78, 0
2,31361, Control_c, 0, 64, 77
2,31370, Note_on_c, 0, 80, 65
2,31375, Control_c, 0, 64, 74
2,31382, Note_on_c, 0, 60, 63
2,31385, Note_on_c, 0, 68, 54
2,31390, Control_c, 0, 64, 67
2,31406, Control_c, 0, 64, 37
2,31406, Note_on_c, 0, 61, 0
2,31421, Control_c, 0, 64, 0
2,31527, Control_c, 0, 64, 50
2,31529, Note_on_c, 0, 80, 0
2,31533, Note_on_c, 0, 78, 63
2,31542, Control_c, 0, 64, 65
2,31557, Control_c, 0, 64, 69
2,31573, Control_c, 0, 64, 73
2,31589, Control_c, 0, 64, 74
2,31646, Note_on_c, 0, 78, 0
2,31689, Note_on_c, 0, 76, 66
2,31691, Note_on_c, 0, 54, 0
2,31691, Note_on_c, 0, 56, 58
2,31711, Note_on_c, 0, 60, 0
2,31733, Control_c, 0, 64, 74
2,31748, Control_c, 0, 64, 72
2,31764, Control_c, 0, 64, 70
2,31779, Control_c, 0, 64, 67
2,31794, Control_c, 0, 64, 59
2,31806, Note_on_c, 0, 76, 0
2,31809, Control_c, 0, 64, 0
2,31822, Note_on_c, 0, 75, 61
2,31828, Note_on_c, 0, 54, 59
2,31838, Note_on_c, 0, 56, 0
2,31981, Note_on_c, 0, 73, 60
2,31986, Note_on_c, 0, 64, 64
2,31991, Note_on_c, 0, 75, 0
2,32014, Note_on_c, 0, 68, 0
2,32018, Note_on_c, 0, 52, 61
2,32035, Note_on_c, 0, 54, 0
2,32131, Note_on_c, 0, 71, 62
2,32219, Control_c, 0, 64, 50
2,32234, Control_c, 0, 64, 65
2,32250, Control_c, 0, 64, 69
2,32262, Note_on_c, 0, 71, 0
2,32265, Control_c, 0, 64, 71
2,32269, Note_on_c, 0, 54, 59
2,32275, Note_on_c, 0, 69, 72
2,32277, Note_on_c, 0, 64, 0
2,32317, Note_on_c, 0, 52, 0
2,32340, Control_c, 0, 64, 70
2,32398, Note_on_c, 0, 69, 0
2,32407, Note_on_c, 0, 56, 65
2,32430, Note_on_c, 0, 68, 68
2,32451, Note_on_c, 0, 54, 0
2,32455, Control_c, 0, 64, 70
2,32470, Control_c, 0, 64, 69
2,32486, Control_c, 0, 64, 68
2,32501, Control_c, 0, 64, 66
2,32516, Control_c, 0, 64, 62
2,32531, Control_c, 0, 64, 36
2,32546, Control_c, 0, 64, 0
2,32597, Note_on_c, 0, 63, 66
2,32598, Note_on_c, 0, 66, 61
2,32599, Note_on_c, 0, 68, 0
2,32603, Note_on_c, 0, 57, 58
2,32608, Note_on_c, 0, 56, 0
2,32904, Note_on_c, 0, 57, 0
2,32910, Note_on_c, 0, 54, 57
2,32916, Note_on_c, 0, 69, 57
2,33154, Note_on_c, 0, 66, 0
2,33176, Note_on_c, 0, 73, 0
2,33197, Note_on_c, 0, 69, 0
2,33203, Note_on_c, 0, 54, 0
2,33208, Note_on_c, 0, 56, 55
2,33212, Note_on_c, 0, 68, 46
2,33219, Note_on_c, 0, 71, 52
2,33512, Control_c, 0, 64, 20
2,33512, Note_on_c, 0, 66, 56
2,33528, Control_c, 0, 64, 63
2,33543, Control_c, 0, 64, 69
2,33553, Note_on_c, 0, 68, 0
2,33557, Control_c, 0, 64, 75
2,33564, Note_on_c, 0, 63, 0
2,33573, Control_c, 0, 64, 78
2,33588, Control_c, 0, 64, 78
2,33604, Control_c, 0, 64, 79
2,33767, Note_on_c, 0, 66, 0
2,33800, Control_c, 0, 64, 78
2,33816, Control_c, 0, 64, 76
2,33828, Note_on_c, 0, 61, 49
2,33830, Control_c, 0, 64, 73
2,33830, Note_on_c, 0, 49, 48
2,33833, Note_on_c, 0, 65, 50
2,33846, Control_c, 0, 64, 68
2,33861, Control_c, 0, 64, 56
2,33876, Control_c, 0, 64, 0
2,33884, Note_on_c, 0, 56, 0
2,34128, Note_on_c, 0, 71, 0
2,34150, Note_on_c, 0, 73, 54
2,34430, Note_on_c, 0, 65, 0
2,34454, Note_on_c, 0, 71, 58
2,34460, Note_on_c, 0, 66, 43
2,34463, Control_c, 0, 64, 29
2,34477, Control_c, 0, 64, 59
2,34493, Control_c, 0, 64, 64
2,34500, Note_on_c, 0, 73, 0
2,34508, Control_c, 0, 64, 65
2,34584, Control_c, 0, 64, 65
2,34674, Control_c, 0, 64, 65
2,34690, Control_c, 0, 64, 64
2,34705, Control_c, 0, 64, 64
2,34720, Control_c, 0, 64, 63
2,34743, Control_c, 0, 64, 60
2,34758, Control_c, 0, 64, 51
2,34763, Note_on_c, 0, 69, 57
2,34774, Control_c, 0, 64, 25
2,34778, Note_on_c, 0, 71, 0
2,34789, Control_c, 0, 64, 0
2,35074, Note_on_c, 0, 68, 59
2,35084, Note_on_c, 0, 69, 0
2,35200, Control_c, 0, 64, 44
2,35207, Note_on_c, 0, 47, 24
2,35215, Control_c, 0, 64, 56
2,35230, Control_c, 0, 64, 58
2,35246, Control_c, 0, 64, 59
2,35258, Note_on_c, 0, 47, 0
2,35261, Control_c, 0, 64, 59
2,35276, Control_c, 0, 64, 61
2,35292, Control_c, 0, 64, 63
2,35307, Control_c, 0, 64, 64
2,35322, Control_c, 0, 64, 65
2,35337, Control_c, 0, 64, 67
2,35351, Note_on_c, 0, 64, 56
2,35352, Control_c, 0, 64, 68
2,35368, Control_c, 0, 64, 70
2,35369, Note_on_c, 0, 66, 0
2,35383, Control_c, 0, 64, 72
2,35397, Control_c, 0, 64, 73
2,35413, Control_c, 0, 64, 74
2,35428, Control_c, 0, 64, 75
2,35443, Control_c, 0, 64, 75
2,35458, Control_c, 0, 64, 76
2,35573, Control_c, 0, 64, 74
2,35587, Control_c, 0, 64, 71
2,35603, Control_c, 0, 64, 65
2,35603, Note_on_c, 0, 49, 0
2,35618, Control_c, 0, 64, 31
2,35619, Note_on_c, 0, 47, 44
2,35624, Note_on_c, 0, 70, 62
2,35633, Control_c, 0, 64, 0
2,35656, Note_on_c, 0, 68, 0
2,35862, Control_c, 0, 64, 50
2,35876, Control_c, 0, 64, 63
2,35892, Control_c, 0, 64, 66
2,35907, Control_c, 0, 64, 69
2,35923, Control_c, 0, 64, 71
2,35935, Note_on_c, 0, 71, 71
2,35937, Note_on_c, 0, 70, 0
2,35938, Control_c, 0, 64, 72
2,35949, Note_on_c, 0, 47, 0
2,35952, Control_c, 0, 64, 74
2,35953, Note_on_c, 0, 61, 0
2,35968, Control_c, 0, 64, 75
2,35983, Control_c, 0, 64, 76
2,35998, Control_c, 0, 64, 76
2,36120, Control_c, 0, 64, 76
2,36151, Control_c, 0, 64, 75
2,36166, Control_c, 0, 64, 74
2,36181, Control_c, 0, 64, 72
2,36196, Control_c, 0, 64, 68
2,36211, Control_c, 0, 64, 61
2,36226, Control_c, 0, 64, 0
2,36227, Note_on_c, 0, 73, 66
2,36239, Note_on_c, 0, 54, 34
2,36243, Note_on_c, 0, 46, 46
2,36245, Note_on_c, 0, 49, 37
2,36283, Note_on_c, 0, 71, 0
2,36304, Note_on_c, 0, 64, 0
2,36477, Control_c, 0, 64, 52
2,36493, Control_c, 0, 64, 64
2,36508, Control_c, 0, 64, 68
2,36520, Note_on_c, 0, 56, 48
2,36524, Control_c, 0, 64, 71
2,36539, Control_c, 0, 64, 74
2,36545, Note_on_c, 0, 73, 0
2,36554, Control_c, 0, 64, 75
2,36564, Note_on_c, 0, 54, 0
2,36567, Note_on_c, 0, 49, 0
2,36570, Control_c, 0, 64, 76
2,36585, Control_c, 0, 64, 77
2,36588, Note_on_c, 0, 46, 0
2,36599, Control_c, 0, 64, 79
2,36615, Control_c, 0, 64, 79
2,36736, Control_c, 0, 64, 79
2,36751, Control_c, 0, 64, 78
2,36767, Control_c, 0, 64, 77
2,36782, Control_c, 0, 64, 76
2,36796, Control_c, 0, 64, 73
2,36799, Note_on_c, 0, 56, 0
2,36812, Control_c, 0, 64, 69
2,36827, Control_c, 0, 64, 62
2,36833, Note_on_c, 0, 51, 51
2,36838, Note_on_c, 0, 58, 48
2,36838, Note_on_c, 0, 71, 64
2,36840, Note_on_c, 0, 63, 59
2,36842, Note_on_c, 0, 54, 48
2,36843, Control_c, 0, 64, 0
2,37124, Control_c, 0, 64, 58
2,37138, Control_c, 0, 64, 68
2,37146, Note_on_c, 0, 59, 59
2,37153, Control_c, 0, 64, 74
2,37163, Note_on_c, 0, 63, 0
2,37169, Control_c, 0, 64, 78
2,37175, Note_on_c, 0, 58, 0
2,37178, Note_on_c, 0, 54, 0
2,37184, Control_c, 0, 64, 80
2,37196, Note_on_c, 0, 59, 0
2,37199, Control_c, 0, 64, 80
2,37200, Note_on_c, 0, 51, 0
2,37215, Control_c, 0, 64, 81
2,37230, Control_c, 0, 64, 81
2,37246, Control_c, 0, 64, 82
2,37261, Control_c, 0, 64, 82
2,37275, Control_c, 0, 64, 83
2,37429, Control_c, 0, 64, 82
2,37444, Control_c, 0, 64, 81
2,37445, Note_on_c, 0, 64, 54
2,37448, Note_on_c, 0, 61, 46
2,37454, Note_on_c, 0, 52, 44
2,37458, Note_on_c, 0, 49, 43
2,37459, Control_c, 0, 64, 79
2,37474, Control_c, 0, 64, 75
2,37490, Control_c, 0, 64, 69
2,37504, Control_c, 0, 64, 54
2,37519, Control_c, 0, 64, 0
2,37759, Note_on_c, 0, 52, 0
2,37764, Note_on_c, 0, 51, 41
2,38065, Note_on_c, 0, 52, 42
2,38068, Note_on_c, 0, 70, 58
2,38083, Note_on_c, 0, 51, 0
2,38127, Note_on_c, 0, 71, 0
2,38334, Control_c, 0, 64, 52
2,38346, Note_on_c, 0, 52, 0
2,38348, Control_c, 0, 64, 63
2,38364, Control_c, 0, 64, 66
2,38374, Note_on_c, 0, 54, 40
2,38379, Control_c, 0, 64, 68
2,38394, Control_c, 0, 64, 70
2,38410, Control_c, 0, 64, 72
2,38424, Control_c, 0, 64, 74
2,38439, Control_c, 0, 64, 75
2,38455, Control_c, 0, 64, 76
2,38469, Control_c, 0, 64, 77
2,38480, Note_on_c, 0, 61, 0
2,38485, Control_c, 0, 64, 77
2,38515, Control_c, 0, 64, 78
2,38615, Control_c, 0, 64, 77
2,38645, Control_c, 0, 64, 77
2,38660, Control_c, 0, 64, 76
2,38674, Control_c, 0, 64, 74
2,38688, Note_on_c, 0, 71, 56
2,38689, Note_on_c, 0, 56, 36
2,38690, Control_c, 0, 64, 70
2,38704, Note_on_c, 0, 47, 41
2,38705, Control_c, 0, 64, 64
2,38705, Note_on_c, 0, 64, 0
2,38720, Control_c, 0, 64, 40
2,38730, Note_on_c, 0, 54, 0
2,38736, Control_c, 0, 64, 0
2,38736, Note_on_c, 0, 70, 0
2,38738, Note_on_c, 0, 49, 0
2,38994, Note_on_c, 0, 54, 39
2,39000, Note_on_c, 0, 63, 47
2,39020, Note_on_c, 0, 56, 0
2,39303, Note_on_c, 0, 64, 68
2,39316, Note_on_c, 0, 56, 37
2,39344, Note_on_c, 0, 54, 0
2,39397, Note_on_c, 0, 63, 0
2,39593, Control_c, 0, 64, 47
2,39609, Control_c, 0, 64, 61
2,39624, Control_c, 0, 64, 64
2,39639, Control_c, 0, 64, 65
2,39640, Note_on_c, 0, 66, 54
2,39649, Note_on_c, 0, 57, 31
2,39655, Control_c, 0, 64, 66
2,39664, Note_on_c, 0, 64, 0
2,39715, Control_c, 0, 64, 65
2,39746, Control_c, 0, 64, 65
2,39752, Note_on_c, 0, 66, 0
2,39768, Note_on_c, 0, 68, 55
2,39777, Control_c, 0, 64, 64
2,39792, Control_c, 0, 64, 64
2,39808, Control_c, 0, 64, 63
2,39823, Control_c, 0, 64, 62
2,39838, Control_c, 0, 64, 60
2,39854, Control_c, 0, 64, 57
2,39868, Control_c, 0, 64, 51
2,39884, Control_c, 0, 64, 32
2,39899, Control_c, 0, 64, 0
2,39917, Note_on_c, 0, 68, 0
2,39924, Note_on_c, 0, 63, 65
2,39928, Note_on_c, 0, 56, 0
2,39928, Note_on_c, 0, 66, 66
2,39930, Note_on_c, 0, 57, 0
2,39936, Note_on_c, 0, 59, 45
2,40195, Control_c, 0, 64, 54
2,40203, Note_on_c, 0, 47, 0
2,40211, Control_c, 0, 64, 63
2,40226, Control_c, 0, 64, 65
2,40232, Note_on_c, 0, 73, 57
2,40235, Note_on_c, 0, 63, 0
2,40239, Note_on_c, 0, 56, 34
2,40240, Control_c, 0, 64, 67
2,40245, Note_on_c, 0, 66, 0
2,40254, Note_on_c, 0, 71, 0
2,40256, Control_c, 0, 64, 67
2,40270, Control_c, 0, 64, 68
2,40285, Control_c, 0, 64, 69
2,40300, Control_c, 0, 64, 70
2,40315, Control_c, 0, 64, 71
2,40331, Control_c, 0, 64, 73
2,40346, Control_c, 0, 64, 73
2,40468, Control_c, 0, 64, 73
2,40484, Control_c, 0, 64, 71
2,40498, Control_c, 0, 64, 69
2,40513, Control_c, 0, 64, 63
2,40529, Control_c, 0, 64, 0
2,40531, Note_on_c, 0, 68, 66
2,40533, Note_on_c, 0, 73, 0
2,40538, Note_on_c, 0, 71, 59
2,40539, Note_on_c, 0, 54, 41
2,40540, Note_on_c, 0, 75, 65
2,40547, Note_on_c, 0, 56, 0
2,40792, Note_on_c, 0, 75, 0
2,40849, Control_c, 0, 64, 58
2,40854, Note_on_c, 0, 76, 71
2,40871, Control_c, 0, 64, 65
2,40871, Note_on_c, 0, 52, 44
2,40885, Note_on_c, 0, 71, 0
2,40887, Control_c, 0, 64, 68
2,40890, Note_on_c, 0, 54, 0
2,40902, Control_c, 0, 64, 70
2,40911, Note_on_c, 0, 59, 0
2,40917, Control_c, 0, 64, 71
2,40932, Control_c, 0, 64, 71
2,40947, Control_c, 0, 64, 72
2,40978, Control_c, 0, 64, 72
2,41085, Control_c, 0, 64, 72
2,41100, Control_c, 0, 64, 71
2,41115, Control_c, 0, 64, 70
2,41130, Control_c, 0, 64, 68
2,41145, Control_c, 0, 64, 64
2,41159, Note_on_c, 0, 66, 71
2,41160, Control_c, 0, 64, 46
2,41171, Note_on_c, 0, 59, 46
2,41176, Control_c, 0, 64, 0
2,41187, Note_on_c, 0, 68, 0
2,41188, Note_on_c, 0, 52, 0
2,41452, Note_on_c, 0, 76, 0
2,41473, Note_on_c, 0, 73, 58
2,41798, Note_on_c, 0, 75, 52
2,41809, Note_on_c, 0, 47, 56
2,41832, Note_on_c, 0, 71, 35
2,41989, Control_c, 0, 64, 52
2,42005, Control_c, 0, 64, 64
2,42020, Control_c, 0, 64, 67
2,42035, Control_c, 0, 64, 71
2,42050, Control_c, 0, 64, 75
2,42065, Control_c, 0, 64, 78
2,42080, Control_c, 0, 64, 79
2,42096, Control_c, 0, 64, 80
2,42099, Note_on_c, 0, 69, 53
2,42111, Control_c, 0, 64, 81
2,42116, Note_on_c, 0, 59, 0
2,42118, Note_on_c, 0, 75, 0
2,42126, Control_c, 0, 64, 82
2,42136, Note_on_c, 0, 66, 0
2,42138, Note_on_c, 0, 71, 0
2,42141, Control_c, 0, 64, 84
2,42156, Control_c, 0, 64, 84
2,42159, Note_on_c, 0, 69, 0
2,42159, Note_on_c, 0, 73, 0
2,42172, Control_c, 0, 64, 85
2,42340, Control_c, 0, 64, 84
2,42354, Control_c, 0, 64, 83
2,42370, Control_c, 0, 64, 80
2,42385, Control_c, 0, 64, 75
2,42400, Control_c, 0, 64, 68
2,42404, Note_on_c, 0, 59, 40
2,42413, Note_on_c, 0, 68, 49
2,42416, Note_on_c, 0, 52, 40
2,42417, Note_on_c, 0, 76, 51
2,42423, Control_c, 0, 64, 54
2,42438, Control_c, 0, 64, 0
2,42443, Note_on_c, 0, 47, 0
2,42446, Note_on_c, 0, 64, 22
2,42670, Note_on_c, 0, 64, 0
2,42712, Control_c, 0, 64, 36
2,42726, Note_on_c, 0, 75, 64
2,42728, Control_c, 0, 64, 63
2,42739, Note_on_c, 0, 68, 0
2,42742, Control_c, 0, 64, 66
2,42757, Control_c, 0, 64, 68
2,42773, Control_c, 0, 64, 69
2,42791, Note_on_c, 0, 76, 0
2,42940, Control_c, 0, 64, 68
2,42954, Control_c, 0, 64, 68
2,42970, Control_c, 0, 64, 67
2,42985, Control_c, 0, 64, 67
2,43000, Control_c, 0, 64, 65
2,43015, Note_on_c, 0, 61, 56
2,43015, Note_on_c, 0, 76, 64
2,43016, Control_c, 0, 64, 62
2,43023, Note_on_c, 0, 75, 0
2,43030, Control_c, 0, 64, 54
2,43030, Note_on_c, 0, 57, 48
2,43047, Control_c, 0, 64, 34
2,43056, Note_on_c, 0, 59, 0
2,43062, Control_c, 0, 64, 0
2,43132, Note_on_c, 0, 52, 0
2,43348, Note_on_c, 0, 78, 67
2,43411, Note_on_c, 0, 76, 0
2,43621, Note_on_c, 0, 57, 0
2,43624, Note_on_c, 0, 60, 51
2,43626, Note_on_c, 0, 56, 49
2,43634, Note_on_c, 0, 80, 57
2,43647, Note_on_c, 0, 78, 0
2,43681, Note_on_c, 0, 61, 0
2,43778, Note_on_c, 0, 78, 59
2,43795, Note_on_c, 0, 80, 0
2,43954, Note_on_c, 0, 80, 60
2,43975, Note_on_c, 0, 78, 0
2,44082, Note_on_c, 0, 80, 0
2,44095, Note_on_c, 0, 81, 55
2,44243, Note_on_c, 0, 64, 54
2,44249, Note_on_c, 0, 61, 47
2,44269, Note_on_c, 0, 80, 56
2,44272, Note_on_c, 0, 81, 0
2,44277, Note_on_c, 0, 60, 0
2,44352, Note_on_c, 0, 56, 0
2,44389, Note_on_c, 0, 80, 0
2,44406, Note_on_c, 0, 78, 57
2,44529, Note_on_c, 0, 78, 0
2,44555, Note_on_c, 0, 76, 52
2,44694, Note_on_c, 0, 76, 0
2,44701, Note_on_c, 0, 80, 53
2,44846, Note_on_c, 0, 80, 0
2,44857, Note_on_c, 0, 63, 56
2,44863, Note_on_c, 0, 78, 55
2,44899, Note_on_c, 0, 64, 0
2,44981, Note_on_c, 0, 78, 0
2,45022, Note_on_c, 0, 76, 37
2,45145, Note_on_c, 0, 76, 0
2,45164, Note_on_c, 0, 78, 47
2,45302, Note_on_c, 0, 78, 0
2,45317, Note_on_c, 0, 80, 49
2,45455, Note_on_c, 0, 60, 44
2,45458, Note_on_c, 0, 80, 0
2,45476, Note_on_c, 0, 78, 53
2,45490, Note_on_c, 0, 61, 0
2,45582, Note_on_c, 0, 78, 0
2,45629, Note_on_c, 0, 76, 48
2,45743, Note_on_c, 0, 76, 0
2,45767, Note_on_c, 0, 75, 45
2,45891, Note_on_c, 0, 75, 0
2,45905, Note_on_c, 0, 78, 50
2,46030, Note_on_c, 0, 61, 43
2,46056, Note_on_c, 0, 76, 53
2,46058, Note_on_c, 0, 78, 0
2,46102, Note_on_c, 0, 63, 0
2,46106, Note_on_c, 0, 60, 0
2,46167, Note_on_c, 0, 76, 0
2,46195, Note_on_c, 0, 75, 56
2,46330, Note_on_c, 0, 75, 0
2,46356, Note_on_c, 0, 76, 47
2,46444, Note_on_c, 0, 76, 0
2,46463, Note_on_c, 0, 78, 57
2,46602, Note_on_c, 0, 78, 0
2,46607, Note_on_c, 0, 76, 59
2,46620, Note_on_c, 0, 68, 59
2,46742, Note_on_c, 0, 76, 0
2,46773, Note_on_c, 0, 75, 53
2,46871, Note_on_c, 0, 75, 0
2,46925, Note_on_c, 0, 73, 51
2,47052, Note_on_c, 0, 73, 0
2,47075, Note_on_c, 0, 76, 49
2,47165, Note_on_c, 0, 68, 0
2,47215, Note_on_c, 0, 76, 0
2,47228, Note_on_c, 0, 75, 58
2,47232, Note_on_c, 0, 67, 54
2,47330, Note_on_c, 0, 75, 0
2,47384, Note_on_c, 0, 73, 52
2,47497, Note_on_c, 0, 73, 0
2,47507, Note_on_c, 0, 61, 0
2,47520, Note_on_c, 0, 59, 41
2,47524, Note_on_c, 0, 75, 52
2,47628, Note_on_c, 0, 75, 0
2,47658, Note_on_c, 0, 76, 53
2,47801, Note_on_c, 0, 76, 0
2,47809, Note_on_c, 0, 58, 51
2,47819, Note_on_c, 0, 71, 57
2,47820, Note_on_c, 0, 75, 55
2,47828, Note_on_c, 0, 67, 0
2,47851, Note_on_c, 0, 59, 0
2,47956, Note_on_c, 0, 71, 0
2,47964, Note_on_c, 0, 73, 52
2,48110, Note_on_c, 0, 56, 46
2,48118, Note_on_c, 0, 71, 59
2,48124, Note_on_c, 0, 75, 0
2,48140, Note_on_c, 0, 73, 0
2,48146, Note_on_c, 0, 58, 0
2,48271, Note_on_c, 0, 75, 56
2,48387, Note_on_c, 0, 71, 0
2,48406, Note_on_c, 0, 73, 61
2,48412, Note_on_c, 0, 70, 58
2,48539, Note_on_c, 0, 75, 0
2,48559, Note_on_c, 0, 73, 0
2,48576, Note_on_c, 0, 71, 50
2,48716, Note_on_c, 0, 55, 49
2,48729, Note_on_c, 0, 56, 0
2,48738, Note_on_c, 0, 73, 57
2,48747, Note_on_c, 0, 71, 0
2,48855, Note_on_c, 0, 53, 51
2,48855, Note_on_c, 0, 55, 0
2,48863, Note_on_c, 0, 73, 0
2,48873, Note_on_c, 0, 75, 56
2,48912, Note_on_c, 0, 70, 0
2,49012, Note_on_c, 0, 55, 50
2,49020, Note_on_c, 0, 53, 0
2,49026, Note_on_c, 0, 73, 54
2,49130, Note_on_c, 0, 75, 0
2,49175, Note_on_c, 0, 71, 57
2,49191, Note_on_c, 0, 73, 0
2,49319, Note_on_c, 0, 71, 0
2,49333, Note_on_c, 0, 70, 56
2,49467, Note_on_c, 0, 70, 0
2,49474, Note_on_c, 0, 73, 54
2,49625, Note_on_c, 0, 73, 0
2,49626, Note_on_c, 0, 55, 0
2,49629, Note_on_c, 0, 56, 46
2,49634, Note_on_c, 0, 71, 55
2,49754, Note_on_c, 0, 56, 0
2,49776, Note_on_c, 0, 58, 49
2,49920, Note_on_c, 0, 58, 0
2,49925, Note_on_c, 0, 56, 49
2,49949, Note_on_c, 0, 63, 47
2,50049, Note_on_c, 0, 56, 0
2,50086, Note_on_c, 0, 55, 39
2,50221, Note_on_c, 0, 55, 0
2,50223, Note_on_c, 0, 68, 62
2,50234, Note_on_c, 0, 56, 44
2,50262, Note_on_c, 0, 63, 0
2,50295, Note_on_c, 0, 71, 0
2,50350, Note_on_c, 0, 56, 0
2,50370, Note_on_c, 0, 73, 53
2,50371, Note_on_c, 0, 57, 48
2,50484, Note_on_c, 0, 57, 0
2,50492, Note_on_c, 0, 73, 0
2,50501, Note_on_c, 0, 75, 64
2,50511, Note_on_c, 0, 59, 51
2,50639, Note_on_c, 0, 59, 0
2,50645, Note_on_c, 0, 56, 49
2,50651, Note_on_c, 0, 71, 59
2,50662, Note_on_c, 0, 75, 0
2,50775, Note_on_c, 0, 68, 0
2,50781, Note_on_c, 0, 56, 0
2,50793, Note_on_c, 0, 57, 54
2,50799, Note_on_c, 0, 73, 66
2,50842, Note_on_c, 0, 71, 0
2,50917, Note_on_c, 0, 57, 0
2,50943, Note_on_c, 0, 59, 54
2,51093, Note_on_c, 0, 59, 0
2,51102, Note_on_c, 0, 66, 58
2,51109, Note_on_c, 0, 57, 46
2,51206, Note_on_c, 0, 57, 0
2,51227, Note_on_c, 0, 66, 0
2,51241, Note_on_c, 0, 64, 55
2,51245, Note_on_c, 0, 56, 38
2,51365, Note_on_c, 0, 56, 0
2,51389, Note_on_c, 0, 58, 53
2,51398, Note_on_c, 0, 64, 0
2,51398, Note_on_c, 0, 66, 60
2,51512, Note_on_c, 0, 58, 0
2,51537, Note_on_c, 0, 59, 46
2,51676, Note_on_c, 0, 76, 65
2,51691, Note_on_c, 0, 61, 52
2,51707, Note_on_c, 0, 59, 0
2,51734, Note_on_c, 0, 66, 0
2,51744, Note_on_c, 0, 73, 0
2,51809, Note_on_c, 0, 61, 0
2,51812, Note_on_c, 0, 58, 65
2,51966, Note_on_c, 0, 58, 0
2,51970, Note_on_c, 0, 75, 71
2,51974, Note_on_c, 0, 59, 50
2,52026, Note_on_c, 0, 76, 0
2,52117, Note_on_c, 0, 61, 54
2,52119, Note_on_c, 0, 59, 0
2,52266, Note_on_c, 0, 61, 0
2,52270, Note_on_c, 0, 59, 50
2,52270, Note_on_c, 0, 64, 66
2,52405, Note_on_c, 0, 64, 0
2,52409, Note_on_c, 0, 59, 0
2,52415, Note_on_c, 0, 58, 55
2,52415, Note_on_c, 0, 66, 74
2,52536, Note_on_c, 0, 66, 0
2,52570, Note_on_c, 0, 68, 77
2,52573, Note_on_c, 0, 60, 52
2,52586, Note_on_c, 0, 58, 0
2,52702, Note_on_c, 0, 60, 0
2,52707, Note_on_c, 0, 61, 67
2,52874, Note_on_c, 0, 63, 59
2,52879, Note_on_c, 0, 78, 76
2,52895, Note_on_c, 0, 61, 0
2,52931, Note_on_c, 0, 75, 0
2,53019, Note_on_c, 0, 60, 61
2,53019, Note_on_c, 0, 63, 0
2,53178, Note_on_c, 0, 60, 0
2,53202, Note_on_c, 0, 61, 62
2,53205, Note_on_c, 0, 76, 69
2,53318, Note_on_c, 0, 78, 0
2,53515, Note_on_c, 0, 49, 47
2,53630, Note_on_c, 0, 49, 0
2,53637, Note_on_c, 0, 51, 56
2,53813, Note_on_c, 0, 52, 61
2,53818, Note_on_c, 0, 73, 64
2,53843, Note_on_c, 0, 51, 0
2,54137, Note_on_c, 0, 54, 60
2,54138, Note_on_c, 0, 52, 0
2,54431, Note_on_c, 0, 61, 0
2,54432, Note_on_c, 0, 54, 0
2,54434, Note_on_c, 0, 56, 56
2,54443, Note_on_c, 0, 72, 65
2,54443, Note_on_c, 0, 73, 0
2,54574, Note_on_c, 0, 54, 52
2,54577, Note_on_c, 0, 56, 0
2,54734, Note_on_c, 0, 76, 0
2,54738, Note_on_c, 0, 56, 52
2,54745, Note_on_c, 0, 75, 64
2,54751, Note_on_c, 0, 54, 0
2,54854, Note_on_c, 0, 56, 0
2,54878, Note_on_c, 0, 57, 49
2,55031, Note_on_c, 0, 56, 54
2,55033, Note_on_c, 0, 76, 69
2,55038, Note_on_c, 0, 57, 0
2,55054, Note_on_c, 0, 75, 0
2,55062, Note_on_c, 0, 72, 0
2,55179, Note_on_c, 0, 56, 0
2,55181, Note_on_c, 0, 54, 55
2,55329, Note_on_c, 0, 54, 0
2,55332, Note_on_c, 0, 52, 56
2,55342, Note_on_c, 0, 73, 64
2,55455, Note_on_c, 0, 52, 0
2,55480, Note_on_c, 0, 56, 57
2,55616, Note_on_c, 0, 68, 0
2,55639, Note_on_c, 0, 76, 0
2,55645, Note_on_c, 0, 75, 68
2,55655, Note_on_c, 0, 54, 58
2,55660, Note_on_c, 0, 56, 0
2,55792, Note_on_c, 0, 54, 0
2,55815, Note_on_c, 0, 52, 52
2,55942, Note_on_c, 0, 52, 0
2,55954, Note_on_c, 0, 54, 57
2,55956, Note_on_c, 0, 72, 56
2,56066, Note_on_c, 0, 54, 0
2,56066, Note_on_c, 0, 72, 0
2,56080, Note_on_c, 0, 56, 58
2,56100, Note_on_c, 0, 70, 64
2,56253, Note_on_c, 0, 75, 0
2,56256, Note_on_c, 0, 54, 64
2,56256, Note_on_c, 0, 73, 0
2,56262, Note_on_c, 0, 70, 0
2,56264, Note_on_c, 0, 56, 0
2,56269, Note_on_c, 0, 72, 70
2,56399, Note_on_c, 0, 54, 0
2,56404, Note_on_c, 0, 52, 62
2,56549, Note_on_c, 0, 51, 59
2,56553, Note_on_c, 0, 52, 0
2,56571, Note_on_c, 0, 75, 71
2,56609, Note_on_c, 0, 72, 0
2,56693, Note_on_c, 0, 54, 59
2,56717, Note_on_c, 0, 51, 0
2,56855, Note_on_c, 0, 80, 69
2,56858, Note_on_c, 0, 52, 62
2,56861, Note_on_c, 0, 54, 0
2,56985, Note_on_c, 0, 51, 62
2,56985, Note_on_c, 0, 52, 0
2,57020, Note_on_c, 0, 78, 70
2,57048, Note_on_c, 0, 80, 0
2,57127, Note_on_c, 0, 78, 0
2,57160, Note_on_c, 0, 51, 0
2,57160, Note_on_c, 0, 80, 69
2,57166, Note_on_c, 0, 52, 54
2,57287, Note_on_c, 0, 52, 0
2,57287, Note_on_c, 0, 54, 57
2,57298, Note_on_c, 0, 80, 0
2,57310, Note_on_c, 0, 81, 70
2,57450, Note_on_c, 0, 52, 53
2,57452, Note_on_c, 0, 80, 75
2,57461, Note_on_c, 0, 73, 66
2,57464, Note_on_c, 0, 54, 0
2,57501, Note_on_c, 0, 75, 0
2,57585, Note_on_c, 0, 81, 0
2,57592, Note_on_c, 0, 78, 71
2,57594, Note_on_c, 0, 52, 0
2,57599, Note_on_c, 0, 57, 53
2,57710, Note_on_c, 0, 80, 0
2,57730, Note_on_c, 0, 57, 0
2,57748, Note_on_c, 0, 76, 66
2,57750, Note_on_c, 0, 56, 50
2,57794, Note_on_c, 0, 78, 0
2,57879, Note_on_c, 0, 56, 0
2,57889, Note_on_c, 0, 57, 56
2,57895, Note_on_c, 0, 80, 69
2,57901, Note_on_c, 0, 76, 0
2,58035, Note_on_c, 0, 57, 0
2,58049, Note_on_c, 0, 51, 59
2,58050, Note_on_c, 0, 78, 73
2,58139, Note_on_c, 0, 80, 0
2,58184, Note_on_c, 0, 51, 0
2,58197, Note_on_c, 0, 49, 50
2,58200, Note_on_c, 0, 76, 65
2,58213, Note_on_c, 0, 78, 0
2,58350, Note_on_c, 0, 51, 55
2,58350, Note_on_c, 0, 78, 73
2,58353, Note_on_c, 0, 49, 0
2,58382, Note_on_c, 0, 76, 0
2,58477, Note_on_c, 0, 51, 0
2,58477, Note_on_c, 0, 73, 0
2,58481, Note_on_c, 0, 80, 70
2,58488, Note_on_c, 0, 52, 53
2,58525, Note_on_c, 0, 78, 0
2,58646, Note_on_c, 0, 51, 55
2,58646, Note_on_c, 0, 52, 0
2,58652, Note_on_c, 0, 78, 75
2,58653, Note_on_c, 0, 72, 65
2,58791, Note_on_c, 0, 76, 71
2,58793, Note_on_c, 0, 51, 0
2,58798, Note_on_c, 0, 56, 57
2,58824, Note_on_c, 0, 80, 0
2,58827, Note_on_c, 0, 72, 0
2,58894, Note_on_c, 0, 78, 0
2,58946, Note_on_c, 0, 56, 0
2,58950, Note_on_c, 0, 54, 60
2,58952, Note_on_c, 0, 75, 71
2,58955, Note_on_c, 0, 76, 0
2,58960, Note_on_c, 0, 71, 63
2,59090, Note_on_c, 0, 56, 62
2,59093, Note_on_c, 0, 78, 72
2,59096, Note_on_c, 0, 54, 0
2,59136, Note_on_c, 0, 71, 0
2,59249, Note_on_c, 0, 77, 69
2,59262, Note_on_c, 0, 49, 69
2,59267, Note_on_c, 0, 56, 0
2,59280, Note_on_c, 0, 75, 0
2,59308, Note_on_c, 0, 78, 0
2,59421, Note_on_c, 0, 71, 48
2,59550, Note_on_c, 0, 71, 0
2,59562, Note_on_c, 0, 61, 73
2,59571, Note_on_c, 0, 73, 57
2,59574, Note_on_c, 0, 49, 0
2,59678, Note_on_c, 0, 73, 0
2,59720, Note_on_c, 0, 74, 50
2,59811, Note_on_c, 0, 74, 0
2,59853, Note_on_c, 0, 66, 78
2,59868, Note_on_c, 0, 73, 58
2,59882, Note_on_c, 0, 61, 0
2,59884, Note_on_c, 0, 81, 60
2,59904, Note_on_c, 0, 77, 0
2,59949, Note_on_c, 0, 66, 0
2,59969, Note_on_c, 0, 73, 0
2,60023, Note_on_c, 0, 71, 47
2,60159, Note_on_c, 0, 66, 72
2,60163, Note_on_c, 0, 81, 0
2,60178, Note_on_c, 0, 71, 0
2,60189, Note_on_c, 0, 69, 59
2,60260, Note_on_c, 0, 66, 0
2,60309, Note_on_c, 0, 73, 59
2,60390, Note_on_c, 0, 69, 0
2,60466, Note_on_c, 0, 66, 72
2,60479, Note_on_c, 0, 80, 68
2,60485, Note_on_c, 0, 73, 0
2,60492, Note_on_c, 0, 71, 51
2,60597, Note_on_c, 0, 71, 0
2,60647, Note_on_c, 0, 69, 49
2,60773, Note_on_c, 0, 65, 65
2,60775, Note_on_c, 0, 66, 0
2,60785, Note_on_c, 0, 69, 0
2,60800, Note_on_c, 0, 71, 50
2,60925, Note_on_c, 0, 63, 64
2,60930, Note_on_c, 0, 65, 0
2,60930, Note_on_c, 0, 71, 0
2,60940, Note_on_c, 0, 73, 54
2,61077, Note_on_c, 0, 65, 65
2,61094, Note_on_c, 0, 73, 0
2,61099, Note_on_c, 0, 63, 0
2,61111, Note_on_c, 0, 71, 52
2,61246, Note_on_c, 0, 71, 0
2,61255, Note_on_c, 0, 69, 51
2,61386, Note_on_c, 0, 68, 58
2,61400, Note_on_c, 0, 69, 0
2,61538, Note_on_c, 0, 71, 45
2,61647, Note_on_c, 0, 65, 0
2,61695, Note_on_c, 0, 71, 0
2,61705, Note_on_c, 0, 69, 58
2,61709, Note_on_c, 0, 66, 52
2,61726, Note_on_c, 0, 68, 0
2,62008, Note_on_c, 0, 78, 63
2,62028, Note_on_c, 0, 54, 32
2,62028, Note_on_c, 0, 80, 0
2,62099, Note_on_c, 0, 78, 0
2,62141, Note_on_c, 0, 56, 64
2,62159, Note_on_c, 0, 76, 62
2,62178, Note_on_c, 0, 54, 0
2,62292, Note_on_c, 0, 56, 0
2,62308, Note_on_c, 0, 74, 68
2,62310, Note_on_c, 0, 54, 50
2,62311, Note_on_c, 0, 57, 57
2,62316, Note_on_c, 0, 76, 0
2,62359, Note_on_c, 0, 69, 0
2,62469, Note_on_c, 0, 73, 65
2,62593, Note_on_c, 0, 57, 0
2,62601, Note_on_c, 0, 66, 0
2,62615, Note_on_c, 0, 59, 52
2,62625, Note_on_c, 0, 71, 63
2,62630, Note_on_c, 0, 73, 0
2,62730, Note_on_c, 0, 71, 0
2,62752, Note_on_c, 0, 69, 69
2,62904, Note_on_c, 0, 59, 0
2,62907, Note_on_c, 0, 54, 0
2,62909, Note_on_c, 0, 53, 59
2,62925, Note_on_c, 0, 68, 66
2,62943, Note_on_c, 0, 69, 0
2,63046, Note_on_c, 0, 59, 50
2,63197, Note_on_c, 0, 59, 0
2,63209, Note_on_c, 0, 61, 58
2,63211, Note_on_c, 0, 68, 0
2,63217, Note_on_c, 0, 74, 0
2,63219, Note_on_c, 0, 73, 76
2,63329, Note_on_c, 0, 61, 0
2,63380, Note_on_c, 0, 62, 42
2,63483, Note_on_c, 0, 62, 0
2,63512, Note_on_c, 0, 61, 56
2,63519, Note_on_c, 0, 78, 77
2,63530, Note_on_c, 0, 57, 42
2,63568, Note_on_c, 0, 73, 0
2,63637, Note_on_c, 0, 78, 0
2,63638, Note_on_c, 0, 57, 0
2,63645, Note_on_c, 0, 61, 0
2,63660, Note_on_c, 0, 59, 53
2,63731, Note_on_c, 0, 53, 0
2,63812, Note_on_c, 0, 78, 80
2,63817, Note_on_c, 0, 57, 39
2,63819, Note_on_c, 0, 59, 0
2,63914, Note_on_c, 0, 78, 0
2,63955, Note_on_c, 0, 61, 64
2,64072, Note_on_c, 0, 57, 0
2,64089, Note_on_c, 0, 61, 0
2,64103, Note_on_c, 0, 56, 50
2,64116, Note_on_c, 0, 78, 75
2,64121, Note_on_c, 0, 59, 62
2,64284, Note_on_c, 0, 57, 46
2,64286, Note_on_c, 0, 59, 0
2,64402, Note_on_c, 0, 57, 0
2,64407, Note_on_c, 0, 76, 69
2,64427, Note_on_c, 0, 59, 54
2,64543, Note_on_c, 0, 59, 0
2,64555, Note_on_c, 0, 74, 63
2,64561, Note_on_c, 0, 61, 55
2,64577, Note_on_c, 0, 76, 0
2,64589, Note_on_c, 0, 78, 0
2,64683, Note_on_c, 0, 61, 0
2,64714, Note_on_c, 0, 59, 53
2,64725, Note_on_c, 0, 76, 71
2,64738, Note_on_c, 0, 74, 0
2,64840, Note_on_c, 0, 56, 0
2,64842, Note_on_c, 0, 57, 49
2,64910, Note_on_c, 0, 59, 0
2,65008, Note_on_c, 0, 56, 59
2,65010, Note_on_c, 0, 57, 0
2,65159, Note_on_c, 0, 59, 47
2,65269, Note_on_c, 0, 56, 0
2,65299, Note_on_c, 0, 57, 56
2,65309, Note_on_c, 0, 54, 57
2,65338, Note_on_c, 0, 59, 0
2,65420, Note_on_c, 0, 57, 0
2,65458, Note_on_c, 0, 56, 48
2,65615, Note_on_c, 0, 74, 60
2,65620, Note_on_c, 0, 56, 0
2,65622, Note_on_c, 0, 57, 45
2,65711, Note_on_c, 0, 57, 0
2,65748, Note_on_c, 0, 73, 66
2,65753, Note_on_c, 0, 59, 49
2,65753, Note_on_c, 0, 74, 0
2,65766, Note_on_c, 0, 76, 0
2,65887, Note_on_c, 0, 59, 0
2,65913, Note_on_c, 0, 57, 59
2,65921, Note_on_c, 0, 74, 55
2,65934, Note_on_c, 0, 69, 62
2,65956, Note_on_c, 0, 73, 0
2,65968, Note_on_c, 0, 54, 0
2,66054, Note_on_c, 0, 57, 0
2,66063, Note_on_c, 0, 59, 58
2,66224, Note_on_c, 0, 59, 0
2,66225, Note_on_c, 0, 61, 65
2,66366, Note_on_c, 0, 61, 0
2,66383, Note_on_c, 0, 62, 54
2,66518, Note_on_c, 0, 62, 0
2,66528, Note_on_c, 0, 64, 51
2,66528, Note_on_c, 0, 68, 70
2,66560, Note_on_c, 0, 69, 0
2,66629, Note_on_c, 0, 64, 0
2,66674, Note_on_c, 0, 62, 52
2,66835, Note_on_c, 0, 64, 56
2,66837, Note_on_c, 0, 68, 0
2,66839, Note_on_c, 0, 52, 47
2,66839, Note_on_c, 0, 62, 0
2,66946, Note_on_c, 0, 64, 0
2,66969, Note_on_c, 0, 66, 55
2,67124, Note_on_c, 0, 57, 49
2,67130, Note_on_c, 0, 73, 70
2,67133, Note_on_c, 0, 66, 0
2,67144, Note_on_c, 0, 64, 51
2,67189, Note_on_c, 0, 52, 0
2,67236, Note_on_c, 0, 74, 0
2,67239, Note_on_c, 0, 57, 0
2,67259, Note_on_c, 0, 64, 0
2,67265, Note_on_c, 0, 62, 52
2,67427, Note_on_c, 0, 62, 0
2,67438, Note_on_c, 0, 61, 48
2,67443, Note_on_c, 0, 57, 52
2,67552, Note_on_c, 0, 57, 0
2,67567, Note_on_c, 0, 61, 0
2,67572, Note_on_c, 0, 64, 58
2,67677, Note_on_c, 0, 64, 0
2,67733, Note_on_c, 0, 57, 52
2,67733, Note_on_c, 0, 62, 59
2,67737, Note_on_c, 0, 78, 70
2,67754, Note_on_c, 0, 71, 58
2,67805, Note_on_c, 0, 73, 0
2,67854, Note_on_c, 0, 62, 0
2,67887, Note_on_c, 0, 61, 53
2,67940, Note_on_c, 0, 61, 0
2,68040, Note_on_c, 0, 57, 0
2,68047, Note_on_c, 0, 56, 55
2,68055, Note_on_c, 0, 62, 49
2,68185, Note_on_c, 0, 62, 0
2,68186, Note_on_c, 0, 56, 0
2,68190, Note_on_c, 0, 64, 59
2,68209, Note_on_c, 0, 54, 46
2,68310, Note_on_c, 0, 71, 0
2,68332, Note_on_c, 0, 64, 0
2,68346, Note_on_c, 0, 62, 55
2,68353, Note_on_c, 0, 56, 49
2,68355, Note_on_c, 0, 76, 68
2,68398, Note_on_c, 0, 54, 0
2,68435, Note_on_c, 0, 78, 0
2,68469, Note_on_c, 0, 62, 0
2,68501, Note_on_c, 0, 61, 57
2,68631, Note_on_c, 0, 61, 0
2,68661, Note_on_c, 0, 59, 61
2,68727, Control_c, 0, 64, 18
2,68743, Control_c, 0, 64, 43
2,68758, Control_c, 0, 64, 50
2,68789, Control_c, 0, 64, 49
2,68798, Note_on_c, 0, 62, 67
2,68803, Note_on_c, 0, 59, 0
2,68805, Control_c, 0, 64, 49
2,68829, Note_on_c, 0, 56, 0
2,68836, Control_c, 0, 64, 48
2,68852, Control_c, 0, 64, 47
2,68867, Control_c, 0, 64, 46
2,68881, Control_c, 0, 64, 44
2,68897, Control_c, 0, 64, 41
2,68912, Control_c, 0, 64, 30
2,68926, Control_c, 0, 64, 0
2,68953, Note_on_c, 0, 57, 63
2,68956, Note_on_c, 0, 62, 0
2,68957, Note_on_c, 0, 61, 68
2,69036, Note_on_c, 0, 61, 0
2,69107, Note_on_c, 0, 59, 51
2,69161, Note_on_c, 0, 76, 0
2,69216, Control_c, 0, 64, 58
2,69231, Control_c, 0, 64, 66
2,69243, Note_on_c, 0, 64, 61
2,69246, Control_c, 0, 64, 68
2,69254, Note_on_c, 0, 61, 59
2,69263, Control_c, 0, 64, 70
2,69285, Control_c, 0, 64, 70
2,69317, Note_on_c, 0, 59, 0
2,69323, Note_on_c, 0, 64, 0
2,69333, Note_on_c, 0, 57, 0
2,69367, Note_on_c, 0, 61, 0
2,69384, Note_on_c, 0, 78, 70
2,69391, Control_c, 0, 64, 70
2,69399, Note_on_c, 0, 62, 55
2,69422, Control_c, 0, 64, 69
2,69437, Control_c, 0, 64, 67
2,69453, Control_c, 0, 64, 65
2,69468, Control_c, 0, 64, 59
2,69482, Control_c, 0, 64, 38
2,69498, Control_c, 0, 64, 0
2,69541, Note_on_c, 0, 62, 0
2,69542, Note_on_c, 0, 61, 55
2,69551, Note_on_c, 0, 54, 48
2,69552, Note_on_c, 0, 69, 67
2,69553, Note_on_c, 0, 76, 68
2,69643, Note_on_c, 0, 69, 0
2,69657, Note_on_c, 0, 78, 0
2,69685, Note_on_c, 0, 61, 0
2,69694, Note_on_c, 0, 74, 66
2,69701, Note_on_c, 0, 59, 50
2,69810, Note_on_c, 0, 76, 0
2,69815, Note_on_c, 0, 59, 0
2,69830, Note_on_c, 0, 74, 0
2,69850, Note_on_c, 0, 73, 74
2,69859, Note_on_c, 0, 69, 63
2,69873, Note_on_c, 0, 57, 34
2,69877, Control_c, 0, 64, 62
2,69893, Control_c, 0, 64, 68
2,69908, Control_c, 0, 64, 71
2,69923, Control_c, 0, 64, 72
2,69968, Note_on_c, 0, 69, 0
2,69992, Note_on_c, 0, 76, 69
2,70000, Note_on_c, 0, 57, 0
2,70004, Note_on_c, 0, 61, 46
2,70008, Note_on_c, 0, 54, 0
2,70028, Note_on_c, 0, 73, 0
2,70030, Control_c, 0, 64, 71
2,70032, Note_on_c, 0, 61, 0
2,70045, Control_c, 0, 64, 70
2,70067, Control_c, 0, 64, 68
2,70083, Control_c, 0, 64, 63
2,70099, Control_c, 0, 64, 42
2,70114, Control_c, 0, 64, 0
2,70158, Note_on_c, 0, 47, 58
2,70167, Note_on_c, 0, 69, 65
2,70171, Note_on_c, 0, 74, 61
2,70174, Note_on_c, 0, 59, 29
2,70227, Note_on_c, 0, 76, 0
2,70335, Note_on_c, 0, 74, 0
2,70336, Note_on_c, 0, 73, 69
2,70469, Note_on_c, 0, 69, 0
2,70473, Note_on_c, 0, 73, 0
2,70480, Note_on_c, 0, 68, 74
2,70483, Note_on_c, 0, 74, 62
2,70595, Note_on_c, 0, 74, 0
2,70625, Note_on_c, 0, 66, 73
2,70626, Note_on_c, 0, 76, 63
2,70661, Note_on_c, 0, 68, 0
2,70773, Note_on_c, 0, 52, 67
2,70779, Note_on_c, 0, 68, 72
2,70788, Note_on_c, 0, 74, 61
2,70793, Note_on_c, 0, 47, 0
2,70814, Note_on_c, 0, 66, 0
2,70829, Note_on_c, 0, 76, 0
2,70938, Note_on_c, 0, 73, 66
2,71019, Control_c, 0, 64, 38
2,71034, Control_c, 0, 64, 54
2,71047, Note_on_c, 0, 74, 0
2,71050, Control_c, 0, 64, 54
2,71064, Control_c, 0, 64, 52
2,71066, Note_on_c, 0, 73, 0
2,71079, Control_c, 0, 64, 51
2,71095, Control_c, 0, 64, 50
2,71096, Note_on_c, 0, 71, 68
2,71104, Note_on_c, 0, 59, 0
2,71110, Control_c, 0, 64, 50
2,71125, Control_c, 0, 64, 49
2,71140, Control_c, 0, 64, 48
2,71155, Control_c, 0, 64, 47
2,71195, Note_on_c, 0, 71, 0
2,71201, Control_c, 0, 64, 48
2,71215, Note_on_c, 0, 74, 57
2,71217, Control_c, 0, 64, 48
2,71232, Control_c, 0, 64, 49
2,71246, Control_c, 0, 64, 50
2,71262, Control_c, 0, 64, 50
2,71277, Control_c, 0, 64, 51
2,71293, Control_c, 0, 64, 52
2,71308, Control_c, 0, 64, 53
2,71348, Note_on_c, 0, 52, 0
2,71368, Control_c, 0, 64, 52
2,71382, Note_on_c, 0, 45, 62
2,71383, Control_c, 0, 64, 51
2,71388, Note_on_c, 0, 73, 65
2,71398, Control_c, 0, 64, 48
2,71399, Note_on_c, 0, 57, 39
2,71399, Note_on_c, 0, 74, 0
2,71414, Control_c, 0, 64, 40
2,71429, Control_c, 0, 64, 0
2,71525, Note_on_c, 0, 57, 0
2,71533, Note_on_c, 0, 56, 56
2,71656, Note_on_c, 0, 68, 0
2,71681, Note_on_c, 0, 61, 63
2,71690, Note_on_c, 0, 56, 0
2,71698, Note_on_c, 0, 54, 60
2,71797, Note_on_c, 0, 54, 0
2,71816, Note_on_c, 0, 61, 0
2,71828, Note_on_c, 0, 63, 65
2,71832, Note_on_c, 0, 52, 62
2,71954, Note_on_c, 0, 63, 0
2,71982, Note_on_c, 0, 52, 0
2,71987, Note_on_c, 0, 64, 71
2,71994, Note_on_c, 0, 51, 57
2,72158, Note_on_c, 0, 51, 0
2,72166, Note_on_c, 0, 49, 59
2,72243, Note_on_c, 0, 49, 0
2,72271, Control_c, 0, 64, 32
2,72279, Note_on_c, 0, 66, 78
2,72286, Control_c, 0, 64, 55
2,72288, Note_on_c, 0, 48, 50
2,72301, Control_c, 0, 64, 61
2,72316, Control_c, 0, 64, 62
2,72345, Note_on_c, 0, 45, 0
2,72385, Control_c, 0, 64, 61
2,72400, Control_c, 0, 64, 61
2,72415, Control_c, 0, 64, 60
2,72424, Note_on_c, 0, 48, 0
2,72430, Control_c, 0, 64, 59
2,72434, Note_on_c, 0, 49, 50
2,72445, Control_c, 0, 64, 58
2,72452, Note_on_c, 0, 64, 0
2,72461, Control_c, 0, 64, 57
2,72476, Control_c, 0, 64, 55
2,72481, Note_on_c, 0, 73, 0
2,72491, Control_c, 0, 64, 49
2,72507, Control_c, 0, 64, 35
2,72521, Control_c, 0, 64, 0
2,72538, Note_on_c, 0, 66, 0
2,72559, Note_on_c, 0, 49, 0
2,72587, Note_on_c, 0, 72, 75
2,72597, Note_on_c, 0, 44, 56
2,72597, Note_on_c, 0, 68, 58
2,72605, Note_on_c, 0, 51, 24
2,72705, Note_on_c, 0, 68, 0
2,72737, Note_on_c, 0, 66, 70
2,72789, Note_on_c, 0, 51, 0
2,72886, Control_c, 0, 64, 56
2,72888, Note_on_c, 0, 56, 58
2,72890, Note_on_c, 0, 66, 0
2,72897, Note_on_c, 0, 68, 66
2,72902, Control_c, 0, 64, 64
2,72913, Note_on_c, 0, 44, 0
2,72917, Control_c, 0, 64, 66
2,72932, Control_c, 0, 64, 67
2,72989, Note_on_c, 0, 68, 0
2,73033, Note_on_c, 0, 69, 64
2,73054, Control_c, 0, 64, 67
2,73069, Control_c, 0, 64, 66
2,73084, Control_c, 0, 64, 65
2,73100, Control_c, 0, 64, 64
2,73115, Control_c, 0, 64, 61
2,73138, Control_c, 0, 64, 52
2,73141, Note_on_c, 0, 69, 0
2,73150, Note_on_c, 0, 72, 0
2,73153, Control_c, 0, 64, 0
2,73194, Note_on_c, 0, 76, 79
2,73195, Note_on_c, 0, 61, 68
2,73204, Note_on_c, 0, 68, 64
2,73228, Note_on_c, 0, 56, 0
2,73300, Note_on_c, 0, 68, 0
2,73303, Note_on_c, 0, 61, 0
2,73363, Note_on_c, 0, 66, 54
2,73473, Control_c, 0, 64, 45
2,73488, Control_c, 0, 64, 63
2,73501, Note_on_c, 0, 66, 0
2,73504, Control_c, 0, 64, 65
2,73518, Control_c, 0, 64, 66
2,73518, Note_on_c, 0, 61, 55
2,73525, Note_on_c, 0, 64, 60
2,73596, Note_on_c, 0, 76, 0
2,73609, Note_on_c, 0, 61, 0
2,73625, Control_c, 0, 64, 66
2,73632, Note_on_c, 0, 68, 55
2,73670, Control_c, 0, 64, 65
2,73701, Control_c, 0, 64, 64
2,73715, Control_c, 0, 64, 64
2,73730, Control_c, 0, 64, 62
2,73732, Note_on_c, 0, 64, 0
2,73746, Control_c, 0, 64, 58
2,73761, Control_c, 0, 64, 49
2,73777, Control_c, 0, 64, 15
2,73792, Control_c, 0, 64, 0
2,73795, Note_on_c, 0, 75, 79
2,73796, Note_on_c, 0, 61, 61
2,73803, Note_on_c, 0, 66, 64
2,73858, Note_on_c, 0, 68, 0
2,73927, Note_on_c, 0, 66, 0
2,73978, Note_on_c, 0, 64, 25
2,74110, Note_on_c, 0, 60, 54
2,74114, Note_on_c, 0, 61, 0
2,74115, Note_on_c, 0, 66, 46
2,74137, Note_on_c, 0, 64, 0
2,74240, Note_on_c, 0, 60, 0
2,74244, Note_on_c, 0, 58, 55
2,74244, Note_on_c, 0, 66, 0
2,74251, Note_on_c, 0, 68, 51
2,74403, Note_on_c, 0, 68, 0
2,74406, Note_on_c, 0, 60, 55
2,74419, Note_on_c, 0, 66, 63
2,74423, Note_on_c, 0, 58, 0
2,74566, Note_on_c, 0, 64, 49
2,74584, Note_on_c, 0, 66, 0
2,74701, Note_on_c, 0, 64, 0
2,74704, Note_on_c, 0, 63, 45
2,74837, Note_on_c, 0, 66, 55
2,74970, Note_on_c, 0, 60, 0
2,74990, Note_on_c, 0, 61, 53
2,74994, Note_on_c, 0, 63, 0
2,75004, Note_on_c, 0, 64, 49
2,75027, Note_on_c, 0, 66, 0
2,75146, Note_on_c, 0, 64, 0
2,75148, Note_on_c, 0, 63, 55
2,75289, Note_on_c, 0, 68, 66
2,75295, Note_on_c, 0, 64, 44
2,75312, Note_on_c, 0, 75, 0
2,75357, Note_on_c, 0, 63, 0
2,75399, Note_on_c, 0, 64, 0
2,75437, Note_on_c, 0, 66, 65
2,75462, Note_on_c, 0, 68, 0
2,75567, Note_on_c, 0, 61, 0
2,75586, Note_on_c, 0, 57, 42
2,75589, Note_on_c, 0, 66, 0
2,75598, Note_on_c, 0, 73, 67
2,75601, Note_on_c, 0, 64, 61
2,75679, Note_on_c, 0, 64, 0
2,75712, Note_on_c, 0, 73, 0
2,75735, Note_on_c, 0, 63, 55
2,75849, Note_on_c, 0, 63, 0
2,75894, Note_on_c, 0, 73, 71
2,75898, Note_on_c, 0, 61, 60
2,76029, Note_on_c, 0, 61, 0
2,76041, Note_on_c, 0, 73, 0
2,76042, Note_on_c, 0, 64, 57
2,76150, Note_on_c, 0, 64, 0
2,76174, Note_on_c, 0, 57, 0
2,76206, Note_on_c, 0, 54, 43
2,76209, Note_on_c, 0, 73, 68
2,76225, Note_on_c, 0, 63, 54
2,76331, Control_c, 0, 64, 37
2,76347, Control_c, 0, 64, 52
2,76353, Note_on_c, 0, 61, 55
2,76362, Control_c, 0, 64, 55
2,76377, Control_c, 0, 64, 55
2,76384, Note_on_c, 0, 63, 0
2,76385, Note_on_c, 0, 73, 0
2,76392, Control_c, 0, 64, 54
2,76407, Control_c, 0, 64, 53
2,76423, Control_c, 0, 64, 52
2,76437, Control_c, 0, 64, 50
2,76452, Control_c, 0, 64, 46
2,76468, Control_c, 0, 64, 38
2,76483, Control_c, 0, 64, 24
2,76498, Note_on_c, 0, 71, 73
2,76499, Control_c, 0, 64, 0
2,76503, Note_on_c, 0, 63, 64
2,76580, Note_on_c, 0, 63, 0
2,76635, Note_on_c, 0, 71, 0
2,76642, Note_on_c, 0, 69, 65
2,76646, Note_on_c, 0, 64, 66
2,76722, Note_on_c, 0, 61, 0
2,76761, Note_on_c, 0, 69, 0
2,76788, Note_on_c, 0, 56, 54
2,76791, Note_on_c, 0, 54, 0
2,76792, Note_on_c, 0, 64, 0
2,76801, Note_on_c, 0, 71, 69
2,76808, Note_on_c, 0, 62, 61
2,76882, Note_on_c, 0, 62, 0
2,76959, Note_on_c, 0, 61, 63
2,77109, Note_on_c, 0, 59, 64
2,77128, Note_on_c, 0, 61, 0
2,77258, Note_on_c, 0, 62, 60
2,77279, Note_on_c, 0, 59, 0
2,77391, Note_on_c, 0, 62, 0
2,77405, Note_on_c, 0, 53, 45
2,77409, Note_on_c, 0, 61, 62
2,77411, Note_on_c, 0, 56, 0
2,77539, Note_on_c, 0, 61, 0
2,77552, Note_on_c, 0, 59, 40
2,77694, Note_on_c, 0, 49, 62
2,77708, Note_on_c, 0, 61, 56
2,77725, Note_on_c, 0, 53, 0
2,77774, Note_on_c, 0, 71, 0
2,77844, Note_on_c, 0, 61, 0
2,77851, Note_on_c, 0, 62, 58
2,77970, Note_on_c, 0, 62, 0
2,78003, Note_on_c, 0, 54, 71
2,78010, Note_on_c, 0, 61, 57
2,78017, Note_on_c, 0, 69, 64
2,78043, Note_on_c, 0, 59, 0
2,78053, Note_on_c, 0, 49, 0
2,78098, Note_on_c, 0, 61, 0
2,78104, Note_on_c, 0, 54, 0
2,78162, Note_on_c, 0, 64, 54
2,78298, Note_on_c, 0, 64, 0
2,78312, Note_on_c, 0, 54, 70
2,78332, Note_on_c, 0, 63, 57
2,78412, Note_on_c, 0, 54, 0
2,78434, Note_on_c, 0, 63, 0
2,78467, Note_on_c, 0, 61, 54
2,78559, Note_on_c, 0, 61, 0
2,78634, Note_on_c, 0, 54, 62
2,78634, Note_on_c, 0, 56, 62
2,78640, Note_on_c, 0, 68, 63
2,78646, Note_on_c, 0, 69, 0
2,78654, Note_on_c, 0, 60, 49
2,78680, Control_c, 0, 64, 59
2,78695, Control_c, 0, 64, 66
2,78711, Control_c, 0, 64, 69
2,78726, Control_c, 0, 64, 70
2,78727, Note_on_c, 0, 56, 0
2,78742, Note_on_c, 0, 54, 0
2,78818, Control_c, 0, 64, 70
2,78847, Control_c, 0, 64, 69
2,78863, Control_c, 0, 64, 69
2,78878, Control_c, 0, 64, 68
2,78893, Control_c, 0, 64, 65
2,78908, Control_c, 0, 64, 57
2,78923, Control_c, 0, 64, 0
2,78946, Note_on_c, 0, 52, 61
2,78958, Note_on_c, 0, 44, 55
2,79091, Note_on_c, 0, 52, 0
2,79092, Note_on_c, 0, 51, 64
2,79229, Note_on_c, 0, 60, 0
2,79250, Note_on_c, 0, 44, 0
2,79260, Note_on_c, 0, 61, 67
2,79261, Note_on_c, 0, 51, 0
2,79274, Note_on_c, 0, 49, 58
2,79275, Note_on_c, 0, 52, 63
2,79367, Note_on_c, 0, 49, 0
2,79524, Control_c, 0, 64, 17
2,79540, Control_c, 0, 64, 62
2,79555, Control_c, 0, 64, 67
2,79569, Control_c, 0, 64, 72
2,79572, Note_on_c, 0, 49, 70
2,79585, Control_c, 0, 64, 75
2,79600, Control_c, 0, 64, 77
2,79602, Note_on_c, 0, 68, 0
2,79603, Note_on_c, 0, 61, 0
2,79614, Note_on_c, 0, 52, 0
2,79615, Control_c, 0, 64, 79
2,79631, Control_c, 0, 64, 80
2,79646, Control_c, 0, 64, 81
2,79649, Note_on_c, 0, 49, 0
2,79662, Control_c, 0, 64, 81
2,79676, Control_c, 0, 64, 82
2,79691, Control_c, 0, 64, 83
2,79707, Control_c, 0, 64, 83
2,79722, Control_c, 0, 64, 84
2,79752, Control_c, 0, 64, 84
2,79810, Control_c, 0, 64, 84
2,79826, Control_c, 0, 64, 83
2,79841, Control_c, 0, 64, 80
2,79856, Control_c, 0, 64, 74
2,79872, Control_c, 0, 64, 65
2,79886, Control_c, 0, 64, 0
2,79902, Note_on_c, 0, 75, 79
2,79908, Note_on_c, 0, 51, 49
2,79909, Note_on_c, 0, 63, 68
2,79912, Note_on_c, 0, 49, 50
2,79916, Note_on_c, 0, 55, 46
2,80087, Note_on_c, 0, 63, 0
2,80214, Note_on_c, 0, 63, 66
2,80220, Note_on_c, 0, 49, 0
2,80221, Note_on_c, 0, 51, 0
2,80224, Note_on_c, 0, 47, 55
2,80249, Note_on_c, 0, 55, 0
2,80341, Note_on_c, 0, 47, 0
2,80362, Note_on_c, 0, 46, 51
2,80488, Note_on_c, 0, 63, 0
2,80496, Note_on_c, 0, 47, 59
2,80497, Note_on_c, 0, 68, 72
2,80506, Note_on_c, 0, 46, 0
2,80511, Note_on_c, 0, 56, 44
2,80619, Note_on_c, 0, 47, 0
2,80627, Note_on_c, 0, 46, 64
2,80632, Note_on_c, 0, 56, 0
2,80632, Note_on_c, 0, 56, 10
2,80643, Note_on_c, 0, 70, 75
2,80689, Note_on_c, 0, 68, 0
2,80782, Note_on_c, 0, 70, 0
2,80790, Note_on_c, 0, 71, 78
2,80803, Note_on_c, 0, 44, 67
2,80803, Note_on_c, 0, 56, 0
2,80831, Note_on_c, 0, 46, 0
2,80934, Note_on_c, 0, 47, 58
2,80962, Note_on_c, 0, 44, 0
2,81083, Note_on_c, 0, 46, 60
2,81085, Note_on_c, 0, 47, 0
2,81086, Note_on_c, 0, 74, 86
2,81088, Note_on_c, 0, 71, 0
2,81099, Note_on_c, 0, 53, 33
2,81160, Note_on_c, 0, 75, 0
2,81240, Note_on_c, 0, 44, 58
2,81245, Note_on_c, 0, 46, 0
2,81388, Note_on_c, 0, 44, 0
2,81390, Note_on_c, 0, 46, 60
2,81395, Note_on_c, 0, 70, 65
2,81517, Note_on_c, 0, 46, 0
2,81528, Note_on_c, 0, 47, 61
2,81667, Note_on_c, 0, 70, 0
2,81686, Note_on_c, 0, 78, 87
2,81689, Note_on_c, 0, 46, 65
2,81689, Note_on_c, 0, 75, 74
2,81690, Note_on_c, 0, 47, 0
2,81692, Note_on_c, 0, 53, 0
2,81769, Note_on_c, 0, 74, 0
2,81808, Note_on_c, 0, 75, 0
2,81838, Note_on_c, 0, 46, 0
2,81839, Note_on_c, 0, 44, 63
2,81986, Note_on_c, 0, 44, 0
2,81990, Note_on_c, 0, 75, 73
2,81992, Note_on_c, 0, 42, 56
2,82084, Note_on_c, 0, 75, 0
2,82117, Note_on_c, 0, 42, 0
2,82122, Note_on_c, 0, 46, 65
2,82251, Note_on_c, 0, 78, 0
2,82264, Note_on_c, 0, 44, 64
2,82266, Note_on_c, 0, 75, 80
2,82268, Note_on_c, 0, 77, 84
2,82277, Note_on_c, 0, 46, 0
2,82413, Note_on_c, 0, 44, 0
2,82417, Note_on_c, 0, 42, 63
2,82580, Note_on_c, 0, 44, 63
2,82587, Note_on_c, 0, 42, 0
2,82595, Note_on_c, 0, 73, 77
2,82690, Note_on_c, 0, 44, 0
2,82693, Note_on_c, 0, 46, 59
2,82714, Note_on_c, 0, 72, 77
2,82720, Note_on_c, 0, 75, 0
2,82740, Note_on_c, 0, 73, 0
2,82864, Note_on_c, 0, 46, 0
2,82868, Note_on_c, 0, 44, 65
2,82879, Note_on_c, 0, 76, 81
2,82882, Note_on_c, 0, 73, 73
2,82907, Note_on_c, 0, 72, 0
2,82936, Note_on_c, 0, 77, 0
2,83012, Note_on_c, 0, 47, 65
2,83029, Note_on_c, 0, 44, 0
2,83191, Note_on_c, 0, 46, 68
2,83198, Note_on_c, 0, 47, 0
2,83319, Note_on_c, 0, 44, 68
2,83336, Note_on_c, 0, 46, 0
2,83469, Note_on_c, 0, 73, 0
2,83475, Note_on_c, 0, 43, 68
2,83488, Note_on_c, 0, 44, 0
2,83488, Note_on_c, 0, 75, 60
2,83655, Note_on_c, 0, 73, 55
2,83658, Note_on_c, 0, 75, 0
2,83687, Note_on_c, 0, 76, 0
2,83773, Note_on_c, 0, 51, 59
2,83784, Note_on_c, 0, 75, 70
2,83908, Note_on_c, 0, 75, 0
2,83920, Note_on_c, 0, 76, 62
2,84064, Note_on_c, 0, 56, 53
2,84077, Note_on_c, 0, 73, 0
2,84078, Note_on_c, 0, 75, 69
2,84084, Note_on_c, 0, 44, 59
2,84087, Note_on_c, 0, 71, 56
2,84092, Note_on_c, 0, 51, 0
2,84101, Note_on_c, 0, 43, 0
2,84165, Note_on_c, 0, 56, 0
2,84199, Note_on_c, 0, 71, 0
2,84215, Note_on_c, 0, 73, 64
2,84292, Note_on_c, 0, 76, 0
2,84302, Note_on_c, 0, 75, 0
2,84369, Note_on_c, 0, 56, 68
2,84379, Note_on_c, 0, 71, 60
2,84398, Note_on_c, 0, 73, 0
2,84481, Note_on_c, 0, 56, 0
2,84512, Note_on_c, 0, 75, 61
2,84618, Note_on_c, 0, 71, 0
2,84664, Note_on_c, 0, 75, 0
2,84671, Note_on_c, 0, 46, 60
2,84675, Note_on_c, 0, 56, 65
2,84677, Note_on_c, 0, 73, 61
2,84684, Note_on_c, 0, 44, 0
2,84685, Note_on_c, 0, 70, 53
2,84802, Note_on_c, 0, 73, 0
2,84836, Note_on_c, 0, 71, 53
2,84838, Note_on_c, 0, 70, 0
2,84860, Note_on_c, 0, 46, 0
2,84951, Note_on_c, 0, 46, 48
2,84967, Note_on_c, 0, 56, 0
2,84988, Note_on_c, 0, 73, 60
2,84989, Note_on_c, 0, 54, 51
2,85024, Note_on_c, 0, 71, 0
2,85068, Note_on_c, 0, 54, 0
2,85117, Note_on_c, 0, 73, 0
2,85126, Note_on_c, 0, 75, 58
2,85270, Note_on_c, 0, 54, 48
2,85276, Note_on_c, 0, 51, 47
2,85288, Note_on_c, 0, 73, 61
2,85291, Note_on_c, 0, 69, 56
2,85313, Note_on_c, 0, 46, 0
2,85344, Note_on_c, 0, 75, 0
2,85439, Note_on_c, 0, 73, 0
2,85454, Note_on_c, 0, 76, 63
2,85598, Note_on_c, 0, 75, 65
2,85668, Note_on_c, 0, 76, 0
2,85711, Note_on_c, 0, 73, 64
2,85713, Note_on_c, 0, 75, 0
2,85832, Note_on_c, 0, 69, 0
2,85870, Note_on_c, 0, 73, 0
2,85878, Note_on_c, 0, 72, 69
2,85888, Note_on_c, 0, 44, 56
2,85918, Note_on_c, 0, 54, 0
2,85950, Note_on_c, 0, 51, 0
2,86028, Note_on_c, 0, 57, 41
2,86165, Note_on_c, 0, 57, 0
2,86181, Note_on_c, 0, 63, 68
2,86193, Note_on_c, 0, 56, 55
2,86327, Note_on_c, 0, 54, 57
2,86327, Note_on_c, 0, 56, 0
2,86455, Note_on_c, 0, 44, 0
2,86474, Note_on_c, 0, 54, 0
2,86474, Note_on_c, 0, 63, 0
2,86474, Note_on_c, 0, 71, 69
2,86474, Note_on_c, 0, 72, 0
2,86481, Note_on_c, 0, 68, 68
2,86486, Note_on_c, 0, 53, 59
2,86614, Note_on_c, 0, 51, 61
2,86614, Note_on_c, 0, 68, 0
2,86619, Note_on_c, 0, 53, 0
2,86776, Note_on_c, 0, 68, 72
2,86782, Note_on_c, 0, 51, 0
2,86784, Note_on_c, 0, 53, 66
2,86882, Note_on_c, 0, 68, 0
2,86922, Note_on_c, 0, 49, 64
2,86926, Note_on_c, 0, 53, 0
2,87082, Note_on_c, 0, 71, 0
2,87084, Note_on_c, 0, 49, 0
2,87087, Note_on_c, 0, 54, 63
2,87089, Note_on_c, 0, 70, 73
2,87091, Note_on_c, 0, 68, 72
2,87226, Note_on_c, 0, 53, 67
2,87230, Note_on_c, 0, 54, 0
2,87379, Note_on_c, 0, 54, 65
2,87389, Note_on_c, 0, 66, 67
2,87402, Note_on_c, 0, 53, 0
2,87434, Note_on_c, 0, 68, 0
2,87529, Note_on_c, 0, 56, 69
2,87537, Note_on_c, 0, 65, 79
2,87537, Note_on_c, 0, 66, 0
2,87551, Note_on_c, 0, 54, 0
2,87687, Note_on_c, 0, 69, 78
2,87688, Note_on_c, 0, 66, 77
2,87696, Note_on_c, 0, 57, 74
2,87727, Note_on_c, 0, 56, 0
2,87733, Note_on_c, 0, 65, 0
2,87849, Note_on_c, 0, 56, 74
2,87887, Note_on_c, 0, 57, 0
2,88003, Note_on_c, 0, 69, 0
2,88003, Note_on_c, 0, 70, 0
2,88008, Note_on_c, 0, 57, 80
2,88020, Note_on_c, 0, 56, 0
2,88046, Note_on_c, 0, 66, 0
2,88076, Control_c, 0, 64, 52
2,88091, Control_c, 0, 64, 64
2,88109, Control_c, 0, 64, 68
2,88123, Control_c, 0, 64, 75
2,88138, Control_c, 0, 64, 85
2,88154, Control_c, 0, 64, 98
2,88159, Note_on_c, 0, 59, 77
2,88169, Control_c, 0, 64, 118
2,88180, Note_on_c, 0, 59, 0
2,88184, Control_c, 0, 64, 127
2,88187, Note_on_c, 0, 57, 0
2,88363, Note_on_c, 0, 37, 78
2,88363, Note_on_c, 0, 66, 69
2,88365, Note_on_c, 0, 61, 65
2,88365, Note_on_c, 0, 68, 71
2,88412, Control_c, 0, 64, 110
2,88428, Control_c, 0, 64, 91
2,88443, Control_c, 0, 64, 73
2,88457, Control_c, 0, 64, 0
2,88534, Note_on_c, 0, 61, 0
2,88536, Note_on_c, 0, 60, 72
2,88542, Note_on_c, 0, 66, 0
2,88696, Note_on_c, 0, 61, 70
2,88746, Note_on_c, 0, 60, 0
2,88851, Note_on_c, 0, 63, 77
2,88911, Note_on_c, 0, 61, 0
2,88999, Note_on_c, 0, 64, 79
2,89036, Note_on_c, 0, 63, 0
2,89149, Note_on_c, 0, 63, 80
2,89169, Note_on_c, 0, 64, 0
2,89287, Note_on_c, 0, 63, 0
2,89293, Note_on_c, 0, 64, 75
2,89417, Note_on_c, 0, 66, 78
2,89446, Note_on_c, 0, 68, 0
2,89534, Note_on_c, 0, 64, 0
2,89571, Note_on_c, 0, 36, 82
2,89577, Note_on_c, 0, 68, 70
2,89583, Note_on_c, 0, 37, 0
2,89590, Note_on_c, 0, 63, 58
2,89594, Note_on_c, 0, 66, 0
2,89727, Note_on_c, 0, 66, 55
2,89755, Note_on_c, 0, 68, 0
2,89818, Note_on_c, 0, 66, 0
2,89858, Note_on_c, 0, 44, 70
2,89876, Note_on_c, 0, 68, 66
2,90009, Note_on_c, 0, 68, 0
2,90042, Note_on_c, 0, 69, 60
2,90134, Note_on_c, 0, 36, 0
2,90160, Note_on_c, 0, 40, 79
2,90179, Note_on_c, 0, 68, 65
2,90200, Note_on_c, 0, 44, 0
2,90200, Note_on_c, 0, 61, 41
2,90207, Note_on_c, 0, 69, 0
2,90209, Note_on_c, 0, 63, 0
2,90323, Note_on_c, 0, 66, 59
2,90435, Note_on_c, 0, 68, 0
2,90462, Note_on_c, 0, 49, 71
2,90467, Note_on_c, 0, 66, 0
2,90473, Note_on_c, 0, 64, 56
2,90497, Note_on_c, 0, 61, 0
2,90593, Note_on_c, 0, 49, 0
2,90618, Note_on_c, 0, 68, 58
2,90708, Note_on_c, 0, 64, 0
2,90754, Note_on_c, 0, 49, 63
2,90759, Note_on_c, 0, 39, 80
2,90760, Note_on_c, 0, 66, 65
2,90774, Note_on_c, 0, 63, 52
2,90790, Note_on_c, 0, 40, 0
2,90829, Note_on_c, 0, 68, 0
2,90914, Note_on_c, 0, 66, 0
2,90930, Note_on_c, 0, 64, 58
2,91074, Note_on_c, 0, 66, 67
2,91076, Note_on_c, 0, 48, 66
2,91103, Note_on_c, 0, 64, 0
2,91113, Note_on_c, 0, 49, 0
2,91169, Note_on_c, 0, 63, 0
2,91215, Note_on_c, 0, 48, 0
2,91215, Note_on_c, 0, 68, 70
2,91219, Note_on_c, 0, 46, 63
2,91221, Note_on_c, 0, 66, 0
2,91372, Note_on_c, 0, 48, 74
2,91372, Note_on_c, 0, 66, 67
2,91384, Note_on_c, 0, 46, 0
2,91464, Note_on_c, 0, 68, 0
2,91521, Note_on_c, 0, 64, 69
2,91526, Note_on_c, 0, 66, 0
2,91679, Note_on_c, 0, 64, 0
2,91688, Note_on_c, 0, 63, 66
2,91812, Note_on_c, 0, 66, 70
2,91866, Note_on_c, 0, 63, 0
2,91976, Note_on_c, 0, 37, 63
2,91981, Note_on_c, 0, 49, 56
2,91984, Note_on_c, 0, 73, 80
2,92000, Note_on_c, 0, 64, 63
2,92004, Note_on_c, 0, 66, 0
2,92020, Note_on_c, 0, 39, 0
2,92022, Note_on_c, 0, 48, 0
2,92100, Note_on_c, 0, 37, 0
2,92122, Note_on_c, 0, 63, 71
2,92122, Note_on_c, 0, 64, 0
2,92275, Note_on_c, 0, 37, 61
2,92293, Note_on_c, 0, 64, 64
2,92294, Note_on_c, 0, 63, 0
2,92423, Note_on_c, 0, 39, 67
2,92441, Note_on_c, 0, 66, 61
2,92443, Note_on_c, 0, 37, 0
2,92443, Note_on_c, 0, 64, 0
2,92579, Note_on_c, 0, 66, 0
2,92581, Note_on_c, 0, 40, 71
2,92589, Note_on_c, 0, 64, 67
2,92595, Note_on_c, 0, 39, 0
2,92680, Note_on_c, 0, 64, 0
2,92725, Note_on_c, 0, 63, 66
2,92881, Note_on_c, 0, 42, 70
2,92884, Note_on_c, 0, 61, 70
2,92886, Note_on_c, 0, 63, 0
2,92888, Note_on_c, 0, 73, 0
2,92893, Note_on_c, 0, 40, 0
2,93012, Note_on_c, 0, 61, 0
2,93012, Note_on_c, 0, 64, 67
2,93176, Note_on_c, 0, 44, 56
2,93179, Note_on_c, 0, 72, 84
2,93183, Note_on_c, 0, 42, 0
2,93185, Note_on_c, 0, 49, 0
2,93190, Note_on_c, 0, 63, 64
2,93190, Note_on_c, 0, 64, 0
2,93321, Note_on_c, 0, 42, 54
2,93327, Note_on_c, 0, 44, 0
2,93469, Control_c, 0, 64, 34
2,93475, Note_on_c, 0, 68, 79
2,93481, Note_on_c, 0, 44, 63
2,93482, Note_on_c, 0, 63, 0
2,93484, Control_c, 0, 64, 61
2,93492, Note_on_c, 0, 42, 0
2,93494, Note_on_c, 0, 72, 0
2,93500, Control_c, 0, 64, 65
2,93514, Control_c, 0, 64, 67
2,93529, Control_c, 0, 64, 68
2,93575, Control_c, 0, 64, 69
2,93591, Control_c, 0, 64, 69
2,93610, Note_on_c, 0, 44, 0
2,93619, Note_on_c, 0, 45, 66
2,93622, Control_c, 0, 64, 69
2,93636, Control_c, 0, 64, 68
2,93651, Control_c, 0, 64, 67
2,93667, Control_c, 0, 64, 65
2,93682, Control_c, 0, 64, 61
2,93698, Control_c, 0, 64, 48
2,93712, Control_c, 0, 64, 0
2,93763, Note_on_c, 0, 44, 65
2,93765, Note_on_c, 0, 76, 87
2,93766, Note_on_c, 0, 73, 79
2,93799, Note_on_c, 0, 45, 0
2,93807, Note_on_c, 0, 68, 0
2,93911, Note_on_c, 0, 73, 0
2,93922, Note_on_c, 0, 42, 62
2,93958, Note_on_c, 0, 44, 0
2,94074, Note_on_c, 0, 73, 77
2,94078, Note_on_c, 0, 42, 0
2,94079, Note_on_c, 0, 40, 67
2,94172, Note_on_c, 0, 73, 0
2,94202, Note_on_c, 0, 44, 69
2,94203, Note_on_c, 0, 40, 0
2,94361, Note_on_c, 0, 42, 67
2,94363, Note_on_c, 0, 73, 80
2,94365, Note_on_c, 0, 75, 75
2,94381, Note_on_c, 0, 44, 0
2,94385, Note_on_c, 0, 76, 0
2,94508, Note_on_c, 0, 40, 63
2,94514, Note_on_c, 0, 42, 0
2,94662, Note_on_c, 0, 42, 66
2,94665, Note_on_c, 0, 40, 0
2,94670, Note_on_c, 0, 72, 71
2,94763, Note_on_c, 0, 72, 0
2,94802, Note_on_c, 0, 44, 66
2,94813, Note_on_c, 0, 42, 0
2,94820, Note_on_c, 0, 70, 67
2,94955, Note_on_c, 0, 73, 0
2,94958, Note_on_c, 0, 42, 65
2,94973, Note_on_c, 0, 44, 0
2,94974, Note_on_c, 0, 72, 76
2,94991, Note_on_c, 0, 70, 0
2,95028, Note_on_c, 0, 75, 0
2,95101, Note_on_c, 0, 40, 68
2,95112, Note_on_c, 0, 42, 0
2,95112, Note_on_c, 0, 73, 77
2,95145, Note_on_c, 0, 72, 0
2,95253, Note_on_c, 0, 39, 71
2,95253, Note_on_c, 0, 40, 0
2,95263, Note_on_c, 0, 75, 80
2,95272, Note_on_c, 0, 73, 0
2,95383, Note_on_c, 0, 42, 70
2,95393, Note_on_c, 0, 39, 0
2,95413, Note_on_c, 0, 72, 67
2,95528, Note_on_c, 0, 72, 0
2,95546, Note_on_c, 0, 40, 76
2,95552, Note_on_c, 0, 42, 0
2,95560, Note_on_c, 0, 68, 64
2,95701, Note_on_c, 0, 68, 0
2,95715, Note_on_c, 0, 66, 59
2,95848, Note_on_c, 0, 52, 78
2,95857, Note_on_c, 0, 68, 61
2,95869, Note_on_c, 0, 40, 0
2,95892, Note_on_c, 0, 66, 0
2,95940, Note_on_c, 0, 68, 0
2,95986, Note_on_c, 0, 69, 57
2,96080, Note_on_c, 0, 75, 0
2,96130, Note_on_c, 0, 57, 76
2,96151, Note_on_c, 0, 68, 64
2,96160, Note_on_c, 0, 69, 0
2,96166, Note_on_c, 0, 73, 64
2,96170, Note_on_c, 0, 52, 0
2,96244, Note_on_c, 0, 57, 0
2,96297, Note_on_c, 0, 66, 56
2,96398, Note_on_c, 0, 66, 0
2,96404, Note_on_c, 0, 68, 0
2,96440, Note_on_c, 0, 57, 69
2,96459, Note_on_c, 0, 64, 63
2,96569, Note_on_c, 0, 57, 0
2,96591, Note_on_c, 0, 64, 0
2,96603, Note_on_c, 0, 68, 63
2,96738, Note_on_c, 0, 68, 0
2,96741, Note_on_c, 0, 57, 67
2,96750, Note_on_c, 0, 66, 61
2,96880, Note_on_c, 0, 66, 0
2,96896, Note_on_c, 0, 64, 53
2,97041, Note_on_c, 0, 56, 65
2,97052, Note_on_c, 0, 66, 61
2,97074, Note_on_c, 0, 57, 0
2,97120, Note_on_c, 0, 64, 0
2,97133, Note_on_c, 0, 73, 0
2,97147, Note_on_c, 0, 66, 0
2,97186, Note_on_c, 0, 54, 65
2,97190, Note_on_c, 0, 68, 65
2,97199, Note_on_c, 0, 56, 0
2,97331, Note_on_c, 0, 68, 0
2,97338, Note_on_c, 0, 54, 0
2,97345, Note_on_c, 0, 56, 69
2,97352, Note_on_c, 0, 72, 60
2,97353, Note_on_c, 0, 66, 58
2,97444, Note_on_c, 0, 66, 0
2,97505, Note_on_c, 0, 64, 48
2,97644, Note_on_c, 0, 64, 0
2,97648, Note_on_c, 0, 44, 51
2,97657, Note_on_c, 0, 63, 53
2,97688, Note_on_c, 0, 56, 0
2,97807, Note_on_c, 0, 63, 0
2,97812, Note_on_c, 0, 66, 57
2,97930, Note_on_c, 0, 66, 0
2,97962, Note_on_c, 0, 49, 63
2,97968, Note_on_c, 0, 64, 64
2,98056, Note_on_c, 0, 64, 0
2,98112, Note_on_c, 0, 68, 68
2,98202, Note_on_c, 0, 72, 0
2,98214, Note_on_c, 0, 68, 0
2,98254, Note_on_c, 0, 47, 61
2,98264, Note_on_c, 0, 73, 73
2,98266, Note_on_c, 0, 69, 61
2,98297, Note_on_c, 0, 44, 0
2,98356, Note_on_c, 0, 73, 0
2,98400, Note_on_c, 0, 75, 70
2,98405, Note_on_c, 0, 71, 69
2,98423, Note_on_c, 0, 69, 0
2,98525, Note_on_c, 0, 75, 0
2,98565, Note_on_c, 0, 76, 75
2,98568, Note_on_c, 0, 73, 74
2,98570, Note_on_c, 0, 45, 60
2,98579, Note_on_c, 0, 47, 0
2,98592, Note_on_c, 0, 71, 0
2,98659, Control_c, 0, 64, 43
2,98670, Note_on_c, 0, 76, 0
2,98675, Control_c, 0, 64, 61
2,98690, Control_c, 0, 64, 62
2,98714, Note_on_c, 0, 75, 78
2,98781, Control_c, 0, 64, 62
2,98827, Control_c, 0, 64, 62
2,98843, Control_c, 0, 64, 61
2,98857, Control_c, 0, 64, 59
2,98870, Note_on_c, 0, 73, 0
2,98873, Control_c, 0, 64, 52
2,98876, Note_on_c, 0, 78, 85
2,98880, Note_on_c, 0, 72, 68
2,98884, Note_on_c, 0, 75, 0
2,98888, Control_c, 0, 64, 0
2,99010, Note_on_c, 0, 73, 79
2,99022, Note_on_c, 0, 72, 0
2,99065, Note_on_c, 0, 78, 0
2,99068, Note_on_c, 0, 73, 0
2,99146, Control_c, 0, 64, 58
2,99162, Control_c, 0, 64, 73
2,99164, Note_on_c, 0, 80, 79
2,99166, Note_on_c, 0, 44, 74
2,99166, Note_on_c, 0, 48, 52
2,99167, Note_on_c, 0, 75, 67
2,99177, Control_c, 0, 64, 85
2,99193, Control_c, 0, 64, 94
2,99208, Control_c, 0, 64, 96
2,99209, Note_on_c, 0, 49, 0
2,99212, Note_on_c, 0, 45, 0
2,99237, Note_on_c, 0, 48, 0
2,99258, Note_on_c, 0, 44, 0
2,99276, Note_on_c, 0, 75, 0
2,99324, Note_on_c, 0, 78, 82
2,99348, Note_on_c, 0, 80, 0
2,99428, Control_c, 0, 64, 95
2,99444, Control_c, 0, 64, 92
2,99459, Control_c, 0, 64, 83
2,99472, Note_on_c, 0, 80, 83
2,99474, Control_c, 0, 64, 71
2,99486, Note_on_c, 0, 56, 71
2,99489, Control_c, 0, 64, 42
2,99493, Note_on_c, 0, 78, 0
2,99504, Control_c, 0, 64, 0
2,99618, Note_on_c, 0, 81, 73
2,99630, Note_on_c, 0, 80, 0
2,99762, Note_on_c, 0, 61, 77
2,99771, Note_on_c, 0, 52, 67
2,99782, Note_on_c, 0, 80, 72
2,99802, Note_on_c, 0, 56, 0
2,99823, Note_on_c, 0, 81, 0
2,99862, Note_on_c, 0, 61, 0
2,99923, Note_on_c, 0, 80, 0
2,99924, Note_on_c, 0, 78, 66
2,100075, Note_on_c, 0, 61, 75
2,100083, Note_on_c, 0, 76, 62
2,100084, Note_on_c, 0, 78, 0
2,100175, Note_on_c, 0, 61, 0
2,100208, Note_on_c, 0, 76, 0
2,100211, Note_on_c, 0, 80, 69
2,100368, Note_on_c, 0, 80, 0
2,100373, Note_on_c, 0, 61, 65
2,100375, Note_on_c, 0, 78, 72
2,100388, Note_on_c, 0, 51, 61
2,100411, Note_on_c, 0, 52, 0
2,100516, Note_on_c, 0, 76, 71
2,100554, Note_on_c, 0, 78, 0
2,100654, Note_on_c, 0, 61, 0
2,100670, Note_on_c, 0, 60, 61
2,100675, Note_on_c, 0, 78, 75
2,100699, Note_on_c, 0, 76, 0
2,100819, Note_on_c, 0, 60, 0
2,100826, Note_on_c, 0, 80, 71
2,100827, Note_on_c, 0, 58, 56
2,100839, Note_on_c, 0, 78, 0
2,100973, Note_on_c, 0, 78, 68
2,100982, Note_on_c, 0, 60, 57
2,100985, Note_on_c, 0, 58, 0
2,101009, Note_on_c, 0, 80, 0
2,101094, Note_on_c, 0, 78, 0
2,101123, Note_on_c, 0, 76, 59
2,101277, Note_on_c, 0, 75, 56
2,101279, Note_on_c, 0, 76, 0
2,101397, Note_on_c, 0, 75, 0
2,101407, Note_on_c, 0, 78, 59
2,101544, Note_on_c, 0, 51, 0
2,101572, Note_on_c, 0, 76, 56
2,101578, Note_on_c, 0, 49, 50
2,101578, Note_on_c, 0, 61, 50
2,101586, Note_on_c, 0, 60, 0
2,101653, Note_on_c, 0, 78, 0
2,101678, Note_on_c, 0, 76, 0
2,101719, Note_on_c, 0, 75, 54
2,101872, Note_on_c, 0, 52, 58
2,101878, Note_on_c, 0, 75, 0
2,101884, Note_on_c, 0, 76, 53
2,101913, Note_on_c, 0, 49, 0
2,101997, Note_on_c, 0, 76, 0
2,102016, Note_on_c, 0, 78, 47
2,102162, Note_on_c, 0, 57, 58
2,102180, Note_on_c, 0, 76, 52
2,102237, Note_on_c, 0, 52, 0
2,102273, Note_on_c, 0, 78, 0
2,102276, Note_on_c, 0, 57, 0
2,102276, Note_on_c, 0, 76, 0
2,102342, Note_on_c, 0, 74, 42
2,102465, Note_on_c, 0, 74, 0
2,102477, Note_on_c, 0, 57, 65
2,102482, Note_on_c, 0, 73, 50
2,102571, Note_on_c, 0, 57, 0
2,102587, Note_on_c, 0, 61, 0
2,102602, Note_on_c, 0, 73, 0
2,102617, Note_on_c, 0, 76, 49
2,102770, Note_on_c, 0, 76, 0
2,102773, Note_on_c, 0, 59, 46
2,102775, Note_on_c, 0, 74, 62
2,102800, Note_on_c, 0, 57, 28
2,102905, Note_on_c, 0, 74, 0
2,102923, Note_on_c, 0, 73, 55
2,103080, Note_on_c, 0, 66, 70
2,103088, Note_on_c, 0, 74, 63
2,103093, Note_on_c, 0, 73, 0
2,103094, Note_on_c, 0, 57, 0
2,103096, Note_on_c, 0, 56, 47
2,103217, Note_on_c, 0, 74, 0
2,103220, Note_on_c, 0, 56, 0
2,103238, Note_on_c, 0, 54, 38
2,103238, Note_on_c, 0, 76, 54
2,103369, Note_on_c, 0, 66, 0
2,103371, Note_on_c, 0, 76, 0
2,103379, Note_on_c, 0, 56, 48
2,103380, Note_on_c, 0, 54, 0
2,103387, Note_on_c, 0, 74, 57
2,103388, Note_on_c, 0, 71, 62
2,103501, Note_on_c, 0, 74, 0
2,103506, Note_on_c, 0, 71, 0
2,103517, Note_on_c, 0, 73, 58
2,103691, Note_on_c, 0, 71, 62
2,103693, Note_on_c, 0, 66, 53
2,103724, Control_c, 0, 64, 30
2,103739, Control_c, 0, 64, 59
2,103754, Note_on_c, 0, 73, 0
2,103755, Control_c, 0, 64, 63
2,103769, Control_c, 0, 64, 61
2,103784, Control_c, 0, 64, 60
2,103800, Control_c, 0, 64, 60
2,103815, Control_c, 0, 64, 59
2,103830, Control_c, 0, 64, 59
2,103841, Note_on_c, 0, 74, 48
2,103842, Note_on_c, 0, 66, 0
2,103853, Control_c, 0, 64, 57
2,103853, Note_on_c, 0, 71, 0
2,103862, Note_on_c, 0, 74, 0
2,103868, Control_c, 0, 64, 55
2,103884, Control_c, 0, 64, 50
2,103898, Control_c, 0, 64, 46
2,103914, Control_c, 0, 64, 37
2,103929, Control_c, 0, 64, 13
2,103944, Control_c, 0, 64, 0
2,103985, Note_on_c, 0, 73, 57
2,104003, Note_on_c, 0, 65, 50
2,104010, Note_on_c, 0, 71, 36
2,104063, Note_on_c, 0, 71, 0
2,104069, Note_on_c, 0, 73, 0
2,104145, Note_on_c, 0, 71, 60
2,104161, Note_on_c, 0, 65, 0
2,104283, Note_on_c, 0, 49, 46
2,104287, Note_on_c, 0, 73, 58
2,104294, Note_on_c, 0, 69, 59
2,104297, Note_on_c, 0, 56, 0
2,104377, Note_on_c, 0, 69, 0
2,104406, Note_on_c, 0, 73, 0
2,104415, Note_on_c, 0, 71, 0
2,104424, Note_on_c, 0, 68, 67
2,104430, Note_on_c, 0, 74, 63
2,104494, Note_on_c, 0, 68, 0
2,104567, Note_on_c, 0, 54, 63
2,104571, Note_on_c, 0, 74, 0
2,104584, Note_on_c, 0, 66, 60
2,104585, Note_on_c, 0, 69, 65
2,104587, Note_on_c, 0, 73, 64
2,104629, Note_on_c, 0, 49, 0
2,104638, Note_on_c, 0, 59, 0
2,104657, Note_on_c, 0, 69, 0
2,104685, Note_on_c, 0, 54, 0
2,104724, Note_on_c, 0, 71, 66
2,104787, Note_on_c, 0, 73, 0
2,104844, Note_on_c, 0, 71, 0
2,104876, Note_on_c, 0, 54, 65
2,104876, Note_on_c, 0, 69, 68
2,104920, Note_on_c, 0, 66, 0
2,104969, Note_on_c, 0, 54, 0
2,105016, Note_on_c, 0, 73, 62
2,105085, Note_on_c, 0, 69, 0
2,105131, Note_on_c, 0, 73, 0
2,105168, Note_on_c, 0, 56, 53
2,105168, Note_on_c, 0, 68, 56
2,105170, Note_on_c, 0, 71, 60
2,105172, Note_on_c, 0, 54, 54
2,105188, Note_on_c, 0, 59, 45
2,105284, Note_on_c, 0, 71, 0
2,105305, Note_on_c, 0, 69, 64
2,105464, Note_on_c, 0, 53, 57
2,105464, Note_on_c, 0, 56, 0
2,105467, Note_on_c, 0, 69, 0
2,105470, Note_on_c, 0, 71, 64
2,105484, Note_on_c, 0, 59, 0
2,105492, Note_on_c, 0, 54, 0
2,105562, Note_on_c, 0, 68, 0
2,105596, Note_on_c, 0, 53, 0
2,105597, Note_on_c, 0, 71, 0
2,105604, Note_on_c, 0, 51, 53
2,105605, Note_on_c, 0, 73, 69
2,105767, Note_on_c, 0, 71, 60
2,105773, Note_on_c, 0, 51, 0
2,105774, Note_on_c, 0, 53, 54
2,105775, Note_on_c, 0, 61, 53
2,105846, Note_on_c, 0, 73, 0
2,105892, Note_on_c, 0, 71, 0
2,105910, Note_on_c, 0, 69, 62
2,106042, Note_on_c, 0, 69, 0
2,106060, Note_on_c, 0, 68, 66
2,106198, Note_on_c, 0, 68, 0
2,106210, Note_on_c, 0, 71, 61
2,106347, Note_on_c, 0, 54, 44
2,106347, Note_on_c, 0, 57, 46
2,106350, Note_on_c, 0, 53, 0
2,106354, Note_on_c, 0, 71, 0
2,106355, Note_on_c, 0, 69, 65
2,106510, Note_on_c, 0, 68, 62
2,106656, Note_on_c, 0, 66, 64
2,106660, Note_on_c, 0, 68, 0
2,106686, Note_on_c, 0, 57, 0
2,106737, Note_on_c, 0, 54, 0
2,106783, Note_on_c, 0, 66, 0
2,106787, Note_on_c, 0, 65, 62
2,106953, Note_on_c, 0, 65, 0
2,106953, Note_on_c, 0, 66, 60
2,106955, Note_on_c, 0, 54, 41
2,106977, Note_on_c, 0, 61, 0
2,107104, Note_on_c, 0, 61, 57
2,107234, Note_on_c, 0, 61, 0
2,107247, Note_on_c, 0, 59, 67
2,107387, Note_on_c, 0, 57, 64
2,107394, Note_on_c, 0, 59, 0
2,107451, Note_on_c, 0, 54, 0
2,107530, Note_on_c, 0, 73, 69
2,107537, Note_on_c, 0, 68, 66
2,107540, Note_on_c, 0, 56, 59
2,107552, Note_on_c, 0, 57, 0
2,107554, Note_on_c, 0, 69, 0
2,107569, Note_on_c, 0, 66, 0
2,107687, Note_on_c, 0, 54, 63
2,107690, Note_on_c, 0, 56, 0
2,107846, Note_on_c, 0, 52, 68
2,107864, Note_on_c, 0, 54, 0
2,107934, Note_on_c, 0, 68, 0
2,107983, Note_on_c, 0, 51, 66
2,107999, Note_on_c, 0, 52, 0
2,108135, Note_on_c, 0, 52, 74
2,108137, Note_on_c, 0, 51, 0
2,108275, Note_on_c, 0, 68, 69
2,108421, Note_on_c, 0, 49, 68
2,108423, Note_on_c, 0, 73, 0
2,108430, Note_on_c, 0, 66, 73
2,108450, Note_on_c, 0, 52, 0
2,108485, Note_on_c, 0, 68, 0
2,108561, Note_on_c, 0, 66, 0
2,108568, Note_on_c, 0, 64, 68
2,108707, Note_on_c, 0, 64, 0
2,108739, Note_on_c, 0, 56, 68
2,108743, Note_on_c, 0, 63, 54
2,108744, Note_on_c, 0, 72, 76
2,108773, Note_on_c, 0, 49, 0
2,108806, Note_on_c, 0, 63, 0
2,108894, Note_on_c, 0, 69, 70
2,109022, Note_on_c, 0, 69, 0
2,109041, Note_on_c, 0, 68, 76
2,109050, Note_on_c, 0, 44, 64
2,109088, Note_on_c, 0, 72, 0
2,109175, Note_on_c, 0, 68, 0
2,109178, Note_on_c, 0, 66, 77
2,109299, Note_on_c, 0, 66, 0
2,109331, Note_on_c, 0, 49, 63
2,109341, Note_on_c, 0, 76, 83
2,109347, Note_on_c, 0, 64, 68
2,109365, Note_on_c, 0, 44, 0
2,109485, Note_on_c, 0, 68, 80
2,109502, Note_on_c, 0, 49, 0
2,109542, Note_on_c, 0, 64, 0
2,109638, Note_on_c, 0, 76, 0
2,109639, Note_on_c, 0, 49, 63
2,109641, Note_on_c, 0, 73, 83
2,109700, Note_on_c, 0, 68, 0
2,109712, Note_on_c, 0, 56, 0
2,109781, Note_on_c, 0, 71, 78
2,109842, Note_on_c, 0, 49, 0
2,109943, Note_on_c, 0, 69, 70
2,109944, Note_on_c, 0, 75, 78
2,109948, Note_on_c, 0, 49, 71
2,109952, Note_on_c, 0, 54, 61
2,109957, Note_on_c, 0, 73, 0
2,110001, Note_on_c, 0, 71, 0
2,110068, Note_on_c, 0, 69, 0
2,110107, Note_on_c, 0, 68, 70
2,110254, Note_on_c, 0, 48, 67
2,110257, Note_on_c, 0, 68, 0
2,110260, Note_on_c, 0, 69, 73
2,110261, Note_on_c, 0, 49, 0
2,110393, Note_on_c, 0, 66, 80
2,110397, Note_on_c, 0, 48, 0
2,110398, Note_on_c, 0, 69, 0
2,110404, Note_on_c, 0, 46, 72
2,110541, Note_on_c, 0, 54, 0
2,110547, Note_on_c, 0, 51, 64
2,110548, Note_on_c, 0, 68, 82
2,110552, Note_on_c, 0, 48, 68
2,110573, Note_on_c, 0, 66, 0
2,110576, Note_on_c, 0, 46, 0
2,110697, Note_on_c, 0, 49, 79
2,110707, Note_on_c, 0, 51, 0
2,110730, Note_on_c, 0, 48, 0
2,110862, Note_on_c, 0, 51, 76
2,110874, Control_c, 0, 64, 57
2,110887, Note_on_c, 0, 68, 0
2,110889, Control_c, 0, 64, 64
2,110889, Note_on_c, 0, 49, 0
2,110905, Control_c, 0, 64, 69
2,110918, Control_c, 0, 64, 75
2,110919, Note_on_c, 0, 75, 0
2,110933, Control_c, 0, 64, 78
2,110949, Control_c, 0, 64, 79
2,110963, Control_c, 0, 64, 79
2,110988, Note_on_c, 0, 48, 81
2,110994, Control_c, 0, 64, 80
2,110994, Note_on_c, 0, 51, 0
2,111009, Control_c, 0, 64, 81
2,111025, Control_c, 0, 64, 82
2,111028, Note_on_c, 0, 48, 0
2,111041, Control_c, 0, 64, 83
2,111086, Control_c, 0, 64, 81
2,111101, Control_c, 0, 64, 74
2,111117, Control_c, 0, 64, 58
2,111132, Control_c, 0, 64, 0
2,111155, Note_on_c, 0, 52, 77
2,111159, Note_on_c, 0, 40, 73
2,111208, Control_c, 0, 64, 60
2,111223, Control_c, 0, 64, 70
2,111239, Control_c, 0, 64, 80
2,111254, Control_c, 0, 64, 85
2,111272, Note_on_c, 0, 40, 0
2,111312, Note_on_c, 0, 51, 77
2,111334, Note_on_c, 0, 52, 0
2,111360, Control_c, 0, 64, 85
2,111390, Control_c, 0, 64, 83
2,111405, Control_c, 0, 64, 78
2,111420, Control_c, 0, 64, 70
2,111434, Control_c, 0, 64, 0
2,111440, Note_on_c, 0, 73, 79
2,111446, Note_on_c, 0, 51, 0
2,111448, Note_on_c, 0, 52, 79
2,111592, Note_on_c, 0, 72, 81
2,111594, Note_on_c, 0, 54, 70
2,111599, Note_on_c, 0, 52, 0
2,111629, Note_on_c, 0, 73, 0
2,111732, Note_on_c, 0, 54, 0
2,111748, Note_on_c, 0, 80, 85
2,111753, Note_on_c, 0, 52, 71
2,111753, Note_on_c, 0, 73, 78
2,111774, Note_on_c, 0, 72, 0
2,111885, Note_on_c, 0, 51, 78
2,111888, Note_on_c, 0, 52, 0
2,111920, Note_on_c, 0, 80, 0
2,112039, Note_on_c, 0, 51, 0
2,112044, Note_on_c, 0, 49, 72
2,112050, Note_on_c, 0, 45, 69
2,112050, Note_on_c, 0, 80, 89
2,112096, Control_c, 0, 64, 35
2,112110, Control_c, 0, 64, 63
2,112126, Control_c, 0, 64, 66
2,112157, Control_c, 0, 64, 66
2,112172, Control_c, 0, 64, 65
2,112178, Note_on_c, 0, 52, 75
2,112185, Note_on_c, 0, 49, 0
2,112187, Control_c, 0, 64, 64
2,112202, Note_on_c, 0, 45, 0
2,112202, Note_on_c, 0, 52, 0
2,112203, Control_c, 0, 64, 60
2,112217, Control_c, 0, 64, 41
2,112217, Note_on_c, 0, 80, 0
2,112233, Control_c, 0, 64, 0
2,112362, Note_on_c, 0, 39, 71
2,112362, Note_on_c, 0, 80, 89
2,112364, Note_on_c, 0, 51, 69
2,112487, Note_on_c, 0, 49, 79
2,112490, Note_on_c, 0, 51, 0
2,112515, Control_c, 0, 64, 45
2,112529, Control_c, 0, 64, 57
2,112530, Note_on_c, 0, 39, 0
2,112544, Control_c, 0, 64, 61
2,112560, Control_c, 0, 64, 63
2,112575, Control_c, 0, 64, 63
2,112654, Note_on_c, 0, 51, 76
2,112655, Note_on_c, 0, 78, 83
2,112665, Control_c, 0, 64, 64
2,112684, Note_on_c, 0, 73, 0
2,112689, Note_on_c, 0, 49, 0
2,112697, Control_c, 0, 64, 63
2,112713, Control_c, 0, 64, 63
2,112728, Control_c, 0, 64, 61
2,112743, Control_c, 0, 64, 58
2,112755, Note_on_c, 0, 51, 0
2,112758, Control_c, 0, 64, 47
2,112772, Note_on_c, 0, 52, 69
2,112773, Control_c, 0, 64, 0
2,112786, Note_on_c, 0, 76, 82
2,112805, Note_on_c, 0, 80, 0
2,112826, Note_on_c, 0, 78, 0
2,112929, Note_on_c, 0, 52, 0
2,112936, Note_on_c, 0, 51, 67
2,112947, Note_on_c, 0, 75, 77
2,112948, Note_on_c, 0, 78, 79
2,112973, Note_on_c, 0, 76, 0
2,113068, Note_on_c, 0, 49, 69
2,113079, Note_on_c, 0, 75, 0
2,113082, Note_on_c, 0, 51, 0
2,113234, Note_on_c, 0, 44, 66
2,113239, Note_on_c, 0, 75, 82
2,113244, Note_on_c, 0, 49, 0
2,113250, Note_on_c, 0, 48, 54
2,113266, Control_c, 0, 64, 49
2,113282, Control_c, 0, 64, 63
2,113297, Control_c, 0, 64, 63
2,113313, Control_c, 0, 64, 63
2,113328, Control_c, 0, 64, 63
2,113358, Control_c, 0, 64, 64
2,113360, Note_on_c, 0, 75, 0
2,113373, Control_c, 0, 64, 64
2,113373, Note_on_c, 0, 48, 0
2,113379, Note_on_c, 0, 51, 57
2,113394, Note_on_c, 0, 44, 0
2,113401, Note_on_c, 0, 51, 0
2,113449, Control_c, 0, 64, 65
2,113480, Control_c, 0, 64, 64
2,113495, Control_c, 0, 64, 60
2,113510, Control_c, 0, 64, 0
2,113556, Note_on_c, 0, 76, 79
2,113557, Note_on_c, 0, 37, 69
2,113557, Note_on_c, 0, 75, 73
2,113560, Note_on_c, 0, 49, 66
2,113647, Note_on_c, 0, 75, 0
2,113648, Control_c, 0, 64, 64
2,113660, Note_on_c, 0, 37, 0
2,113663, Control_c, 0, 64, 70
2,113666, Note_on_c, 0, 78, 0
2,113678, Control_c, 0, 64, 73
2,113693, Control_c, 0, 64, 74
2,113695, Note_on_c, 0, 49, 0
2,113723, Control_c, 0, 64, 74
2,113738, Control_c, 0, 64, 75
2,113754, Control_c, 0, 64, 76
2,113769, Control_c, 0, 64, 77
2,113784, Control_c, 0, 64, 77
2,113814, Control_c, 0, 64, 78
2,113838, Control_c, 0, 64, 78
2,113852, Control_c, 0, 64, 79
2,113867, Control_c, 0, 64, 80
2,113874, Note_on_c, 0, 52, 82
2,113883, Control_c, 0, 64, 80
2,113883, Note_on_c, 0, 73, 65
2,113914, Control_c, 0, 64, 81
2,113942, Note_on_c, 0, 73, 0
2,114008, Note_on_c, 0, 71, 69
2,114110, Control_c, 0, 64, 78
2,114124, Note_on_c, 0, 71, 0
2,114126, Control_c, 0, 64, 72
2,114140, Control_c, 0, 64, 62
2,114156, Control_c, 0, 64, 0
2,114161, Note_on_c, 0, 57, 72
2,114179, Note_on_c, 0, 73, 64
2,114196, Note_on_c, 0, 52, 0
2,114267, Note_on_c, 0, 57, 0
2,114480, Note_on_c, 0, 57, 66
2,114570, Note_on_c, 0, 57, 0
2,114766, Note_on_c, 0, 73, 0
2,114788, Note_on_c, 0, 57, 61
2,114788, Note_on_c, 0, 75, 64
2,114800, Note_on_c, 0, 71, 54
2,114865, Note_on_c, 0, 76, 0
2,115061, Control_c, 0, 64, 50
2,115077, Control_c, 0, 64, 60
2,115083, Note_on_c, 0, 55, 61
2,115092, Control_c, 0, 64, 62
2,115096, Note_on_c, 0, 59, 41
2,115112, Note_on_c, 0, 57, 0
2,115122, Control_c, 0, 64, 62
2,115124, Note_on_c, 0, 71, 0
2,115204, Note_on_c, 0, 59, 0
2,115214, Control_c, 0, 64, 62
2,115219, Note_on_c, 0, 54, 67
2,115224, Note_on_c, 0, 55, 0
2,115229, Control_c, 0, 64, 61
2,115245, Control_c, 0, 64, 60
2,115260, Control_c, 0, 64, 58
2,115276, Control_c, 0, 64, 55
2,115290, Control_c, 0, 64, 50
2,115305, Control_c, 0, 64, 37
2,115321, Control_c, 0, 64, 0
2,115396, Note_on_c, 0, 64, 57
2,115400, Note_on_c, 0, 79, 73
2,115407, Note_on_c, 0, 71, 61
2,115412, Note_on_c, 0, 52, 58
2,115430, Note_on_c, 0, 54, 0
2,115475, Note_on_c, 0, 64, 0
2,115488, Note_on_c, 0, 75, 0
2,115701, Note_on_c, 0, 64, 62
2,115768, Note_on_c, 0, 64, 0
2,115978, Note_on_c, 0, 52, 0
2,115981, Note_on_c, 0, 78, 78
2,115983, Note_on_c, 0, 70, 69
2,115989, Note_on_c, 0, 64, 55
2,115998, Note_on_c, 0, 79, 0
2,116014, Note_on_c, 0, 71, 0
2,116324, Note_on_c, 0, 64, 0
2,116327, Note_on_c, 0, 62, 49
2,116335, Note_on_c, 0, 54, 44
2,116452, Note_on_c, 0, 62, 0
2,116477, Note_on_c, 0, 61, 50
2,116602, Note_on_c, 0, 54, 0
2,116623, Note_on_c, 0, 74, 68
2,116633, Note_on_c, 0, 59, 49
2,116633, Note_on_c, 0, 66, 69
2,116645, Note_on_c, 0, 61, 0
2,116696, Note_on_c, 0, 70, 0
2,116717, Note_on_c, 0, 78, 0
2,116739, Note_on_c, 0, 59, 0
2,116841, Control_c, 0, 64, 52
2,116856, Control_c, 0, 64, 63
2,116870, Control_c, 0, 64, 65
2,116886, Control_c, 0, 64, 67
2,116908, Control_c, 0, 64, 69
2,116924, Control_c, 0, 64, 73
2,116930, Note_on_c, 0, 74, 0
2,116939, Control_c, 0, 64, 78
2,116954, Control_c, 0, 64, 81
2,116954, Note_on_c, 0, 59, 47
2,116969, Control_c, 0, 64, 84
2,116981, Note_on_c, 0, 66, 0
2,116986, Note_on_c, 0, 59, 0
2,117000, Control_c, 0, 64, 84
2,117045, Control_c, 0, 64, 85
2,117182, Control_c, 0, 64, 84
2,117198, Control_c, 0, 64, 82
2,117213, Control_c, 0, 64, 78
2,117228, Control_c, 0, 64, 70
2,117233, Note_on_c, 0, 65, 74
2,117238, Note_on_c, 0, 59, 45
2,117238, Note_on_c, 0, 73, 71
2,117244, Control_c, 0, 64, 53
2,117259, Control_c, 0, 64, 0
2,117559, Note_on_c, 0, 61, 69
2,117565, Note_on_c, 0, 59, 0
2,117566, Note_on_c, 0, 57, 44
2,117613, Note_on_c, 0, 65, 0
2,117689, Note_on_c, 0, 57, 0
2,117705, Note_on_c, 0, 56, 52
2,117844, Note_on_c, 0, 56, 0
2,117857, Note_on_c, 0, 66, 72
2,117864, Note_on_c, 0, 57, 56
2,117864, Note_on_c, 0, 69, 70
2,117869, Note_on_c, 0, 49, 51
2,117889, Note_on_c, 0, 61, 0
2,117974, Note_on_c, 0, 66, 0
2,117997, Note_on_c, 0, 56, 62
2,118011, Note_on_c, 0, 57, 0
2,118133, Control_c, 0, 64, 29
2,118148, Control_c, 0, 64, 39
2,118151, Note_on_c, 0, 56, 0
2,118164, Control_c, 0, 64, 42
2,118171, Note_on_c, 0, 54, 50
2,118174, Note_on_c, 0, 66, 77
2,118179, Control_c, 0, 64, 44
2,118195, Control_c, 0, 64, 44
2,118224, Control_c, 0, 64, 45
2,118246, Note_on_c, 0, 69, 0
2,118255, Control_c, 0, 64, 44
2,118270, Control_c, 0, 64, 43
2,118275, Note_on_c, 0, 49, 0
2,118285, Control_c, 0, 64, 42
2,118297, Note_on_c, 0, 66, 0
2,118300, Control_c, 0, 64, 39
2,118308, Note_on_c, 0, 52, 62
2,118310, Note_on_c, 0, 54, 0
2,118316, Control_c, 0, 64, 36
2,118330, Control_c, 0, 64, 32
2,118345, Control_c, 0, 64, 29
2,118361, Control_c, 0, 64, 20
2,118376, Control_c, 0, 64, 0
2,118484, Note_on_c, 0, 52, 0
2,118496, Note_on_c, 0, 48, 71
2,118503, Note_on_c, 0, 68, 66
2,118504, Note_on_c, 0, 66, 68
2,118509, Note_on_c, 0, 51, 64
2,118617, Note_on_c, 0, 68, 0
2,118676, Note_on_c, 0, 73, 0
2,118795, Control_c, 0, 64, 25
2,118806, Note_on_c, 0, 68, 69
2,118809, Note_on_c, 0, 64, 66
2,118810, Control_c, 0, 64, 28
2,118816, Note_on_c, 0, 66, 0
2,118840, Control_c, 0, 64, 26
2,118855, Control_c, 0, 64, 24
2,118870, Control_c, 0, 64, 18
2,118886, Control_c, 0, 64, 10
2,118901, Control_c, 0, 64, 0
2,118933, Note_on_c, 0, 68, 0
2,118956, Note_on_c, 0, 63, 76
2,118982, Note_on_c, 0, 64, 0
2,119117, Note_on_c, 0, 52, 82
2,119121, Note_on_c, 0, 63, 0
2,119121, Note_on_c, 0, 64, 56
2,119124, Note_on_c, 0, 73, 74
2,119142, Note_on_c, 0, 48, 0
2,119154, Note_on_c, 0, 51, 0
2,119238, Note_on_c, 0, 73, 0
2,119434, Note_on_c, 0, 56, 71
2,119442, Control_c, 0, 64, 48
2,119442, Note_on_c, 0, 73, 74
2,119457, Control_c, 0, 64, 52
2,119473, Control_c, 0, 64, 53
2,119487, Control_c, 0, 64, 56
2,119502, Control_c, 0, 64, 59
2,119515, Note_on_c, 0, 73, 0
2,119518, Control_c, 0, 64, 62
2,119533, Control_c, 0, 64, 63
2,119548, Control_c, 0, 64, 64
2,119608, Control_c, 0, 64, 64
2,119623, Control_c, 0, 64, 64
2,119654, Control_c, 0, 64, 63
2,119669, Control_c, 0, 64, 62
2,119684, Control_c, 0, 64, 59
2,119699, Control_c, 0, 64, 50
2,119706, Note_on_c, 0, 64, 0
2,119715, Control_c, 0, 64, 0
2,119757, Note_on_c, 0, 63, 74
2,119760, Note_on_c, 0, 51, 69
2,119768, Note_on_c, 0, 73, 77
2,119775, Note_on_c, 0, 66, 63
2,119802, Note_on_c, 0, 52, 0
2,119820, Note_on_c, 0, 56, 0
2,119888, Note_on_c, 0, 63, 0
2,120099, Note_on_c, 0, 63, 79
2,120101, Note_on_c, 0, 72, 70
2,120119, Control_c, 0, 64, 10
2,120133, Control_c, 0, 64, 47
2,120148, Control_c, 0, 64, 53
2,120150, Note_on_c, 0, 66, 0
2,120164, Control_c, 0, 64, 56
2,120179, Control_c, 0, 64, 58
2,120195, Control_c, 0, 64, 62
2,120210, Control_c, 0, 64, 64
2,120224, Control_c, 0, 64, 65
2,120229, Note_on_c, 0, 72, 0
2,120230, Note_on_c, 0, 73, 0
2,120234, Note_on_c, 0, 70, 71
2,120240, Control_c, 0, 64, 66
2,120274, Note_on_c, 0, 63, 0
2,120286, Control_c, 0, 64, 67
2,120317, Control_c, 0, 64, 67
2,120333, Note_on_c, 0, 70, 0
2,120346, Control_c, 0, 64, 66
2,120362, Control_c, 0, 64, 60
2,120376, Control_c, 0, 64, 24
2,120391, Control_c, 0, 64, 0
2,120399, Note_on_c, 0, 78, 83
2,120402, Note_on_c, 0, 63, 73
2,120403, Note_on_c, 0, 72, 72
2,120438, Control_c, 0, 64, 51
2,120452, Control_c, 0, 64, 63
2,120467, Control_c, 0, 64, 66
2,120482, Note_on_c, 0, 72, 0
2,120483, Control_c, 0, 64, 68
2,120498, Control_c, 0, 64, 69
2,120543, Control_c, 0, 64, 69
2,120543, Note_on_c, 0, 73, 78
2,120559, Control_c, 0, 64, 71
2,120574, Control_c, 0, 64, 72
2,120584, Note_on_c, 0, 78, 0
2,120588, Control_c, 0, 64, 73
2,120635, Control_c, 0, 64, 70
2,120650, Control_c, 0, 64, 64
2,120665, Control_c, 0, 64, 0
2,120697, Note_on_c, 0, 63, 0
2,120698, Note_on_c, 0, 66, 83
2,120699, Note_on_c, 0, 78, 76
2,120700, Note_on_c, 0, 61, 75
2,120701, Note_on_c, 0, 73, 0
2,120704, Note_on_c, 0, 75, 73
2,120748, Control_c, 0, 64, 59
2,120764, Control_c, 0, 64, 68
2,120766, Note_on_c, 0, 66, 0
2,120779, Control_c, 0, 64, 73
2,120794, Control_c, 0, 64, 74
2,120827, Note_on_c, 0, 75, 0
2,120829, Note_on_c, 0, 78, 0
2,120841, Note_on_c, 0, 60, 72
2,120847, Note_on_c, 0, 68, 81
2,120852, Note_on_c, 0, 61, 0
2,120863, Note_on_c, 0, 51, 0
2,120877, Note_on_c, 0, 60, 0
2,120963, Control_c, 0, 64, 73
2,120965, Note_on_c, 0, 68, 0
2,120977, Control_c, 0, 64, 71
2,120993, Control_c, 0, 64, 67
2,121008, Control_c, 0, 64, 53
2,121022, Control_c, 0, 64, 0
2,121028, Note_on_c, 0, 78, 77
2,121037, Note_on_c, 0, 75, 76
2,121038, Note_on_c, 0, 49, 66
2,121041, Note_on_c, 0, 61, 69
2,121041, Note_on_c, 0, 69, 74
2,121174, Note_on_c, 0, 69, 0
2,121246, Note_on_c, 0, 75, 0
2,121266, Control_c, 0, 64, 45
2,121282, Control_c, 0, 64, 56
2,121297, Control_c, 0, 64, 60
2,121299, Note_on_c, 0, 78, 0
2,121311, Control_c, 0, 64, 60
2,121334, Note_on_c, 0, 76, 67
2,121336, Note_on_c, 0, 73, 6
2,121337, Note_on_c, 0, 52, 72
2,121339, Note_on_c, 0, 68, 67
2,121377, Note_on_c, 0, 49, 0
2,121390, Note_on_c, 0, 68, 0
2,121392, Note_on_c, 0, 73, 0
2,121421, Note_on_c, 0, 76, 0
2,121475, Note_on_c, 0, 66, 70
2,121476, Note_on_c, 0, 75, 73
2,121483, Note_on_c, 0, 72, 61
2,121546, Note_on_c, 0, 66, 0
2,121576, Control_c, 0, 64, 60
2,121579, Note_on_c, 0, 75, 0
2,121590, Control_c, 0, 64, 58
2,121604, Note_on_c, 0, 72, 0
2,121606, Control_c, 0, 64, 53
2,121621, Control_c, 0, 64, 0
2,121647, Note_on_c, 0, 57, 71
2,121665, Note_on_c, 0, 76, 74
2,121667, Note_on_c, 0, 68, 73
2,121667, Note_on_c, 0, 73, 71
2,121684, Note_on_c, 0, 52, 0
2,121774, Control_c, 0, 64, 46
2,121789, Control_c, 0, 64, 57
2,121805, Control_c, 0, 64, 59
2,121819, Control_c, 0, 64, 59
2,121825, Note_on_c, 0, 57, 0
2,121827, Note_on_c, 0, 68, 0
2,121834, Control_c, 0, 64, 61
2,121850, Control_c, 0, 64, 63
2,121859, Note_on_c, 0, 73, 0
2,121864, Control_c, 0, 64, 64
2,121880, Control_c, 0, 64, 66
2,121895, Control_c, 0, 64, 67
2,121910, Control_c, 0, 64, 65
2,121926, Control_c, 0, 64, 59
2,121941, Control_c, 0, 64, 0
2,121945, Note_on_c, 0, 57, 67
2,121952, Note_on_c, 0, 66, 81
2,121954, Note_on_c, 0, 75, 75
2,121984, Note_on_c, 0, 76, 0
2,122002, Control_c, 0, 64, 50
2,122017, Control_c, 0, 64, 63
2,122029, Note_on_c, 0, 66, 0
2,122032, Control_c, 0, 64, 67
2,122038, Note_on_c, 0, 75, 0
2,122048, Control_c, 0, 64, 69
2,122062, Control_c, 0, 64, 70
2,122087, Note_on_c, 0, 57, 0
2,122093, Note_on_c, 0, 64, 79
2,122094, Note_on_c, 0, 61, 0
2,122094, Note_on_c, 0, 73, 81
2,122139, Note_on_c, 0, 64, 0
2,122167, Note_on_c, 0, 73, 0
2,122184, Control_c, 0, 64, 69
2,122200, Control_c, 0, 64, 65
2,122215, Control_c, 0, 64, 53
2,122229, Control_c, 0, 64, 0
2,122247, Note_on_c, 0, 60, 58
2,122250, Note_on_c, 0, 57, 48
2,122254, Note_on_c, 0, 75, 65
2,122260, Note_on_c, 0, 63, 61
2,122260, Note_on_c, 0, 66, 71
2,122575, Note_on_c, 0, 72, 73
2,122579, Note_on_c, 0, 57, 0
2,122589, Note_on_c, 0, 56, 48
2,122598, Note_on_c, 0, 75, 0
2,122721, Note_on_c, 0, 56, 0
2,122740, Note_on_c, 0, 54, 49
2,122783, Note_on_c, 0, 63, 0
2,122873, Note_on_c, 0, 54, 0
2,122873, Note_on_c, 0, 64, 60
2,122873, Note_on_c, 0, 68, 67
2,122873, Note_on_c, 0, 73, 72
2,122898, Note_on_c, 0, 52, 46
2,122899, Note_on_c, 0, 66, 0
2,122906, Note_on_c, 0, 72, 0
2,123019, Note_on_c, 0, 52, 0
2,123044, Note_on_c, 0, 51, 57
2,123085, Note_on_c, 0, 60, 0
2,123192, Note_on_c, 0, 49, 68
2,123201, Note_on_c, 0, 51, 0
2,123338, Note_on_c, 0, 47, 70
2,123343, Note_on_c, 0, 49, 0
2,123521, Note_on_c, 0, 46, 70
2,123553, Note_on_c, 0, 47, 0
2,123835, Note_on_c, 0, 49, 52
2,124122, Note_on_c, 0, 64, 0
2,124139, Note_on_c, 0, 54, 24
2,124143, Note_on_c, 0, 45, 65
2,124145, Note_on_c, 0, 66, 57
2,124145, Note_on_c, 0, 73, 0
2,124158, Note_on_c, 0, 63, 41
2,124170, Note_on_c, 0, 68, 0
2,124179, Note_on_c, 0, 54, 0
2,124182, Note_on_c, 0, 46, 0
2,124190, Note_on_c, 0, 49, 0
2,124445, Note_on_c, 0, 54, 55
2,124450, Note_on_c, 0, 61, 49
2,124452, Note_on_c, 0, 63, 0
2,124456, Note_on_c, 0, 66, 0
2,124503, Control_c, 0, 64, 39
2,124518, Control_c, 0, 64, 50
2,124534, Control_c, 0, 64, 52
2,124548, Control_c, 0, 64, 53
2,124587, Control_c, 0, 64, 53
2,124601, Note_on_c, 0, 54, 0
2,124648, Control_c, 0, 64, 53
2,124677, Control_c, 0, 64, 52
2,124693, Control_c, 0, 64, 46
2,124708, Control_c, 0, 64, 0
2,124726, Note_on_c, 0, 61, 0
2,124767, Note_on_c, 0, 66, 69
2,124769, Note_on_c, 0, 72, 76
2,124776, Note_on_c, 0, 54, 53
2,124776, Note_on_c, 0, 63, 65
2,124922, Control_c, 0, 64, 38
2,124925, Note_on_c, 0, 54, 0
2,124937, Control_c, 0, 64, 49
2,124952, Control_c, 0, 64, 50
2,124968, Control_c, 0, 64, 51
2,124983, Control_c, 0, 64, 55
2,124994, Note_on_c, 0, 45, 0
2,124998, Control_c, 0, 64, 58
2,125014, Control_c, 0, 64, 61
2,125029, Control_c, 0, 64, 63
2,125032, Note_on_c, 0, 63, 0
2,125044, Control_c, 0, 64, 63
2,125059, Control_c, 0, 64, 64
2,125074, Control_c, 0, 64, 64
2,125090, Control_c, 0, 64, 65
2,125090, Note_on_c, 0, 65, 68
2,125095, Note_on_c, 0, 53, 50
2,125097, Note_on_c, 0, 66, 0
2,125098, Note_on_c, 0, 44, 34
2,125105, Control_c, 0, 64, 66
2,125121, Control_c, 0, 64, 67
2,125136, Control_c, 0, 64, 68
2,125151, Control_c, 0, 64, 68
2,125177, Note_on_c, 0, 44, 0
2,125198, Note_on_c, 0, 53, 0
2,125211, Note_on_c, 0, 51, 57
2,125222, Note_on_c, 0, 66, 73
2,125233, Note_on_c, 0, 42, 44
2,125244, Note_on_c, 0, 51, 0
2,125249, Note_on_c, 0, 65, 0
2,125263, Note_on_c, 0, 42, 0
2,125272, Control_c, 0, 64, 68
2,125317, Control_c, 0, 64, 67
2,125333, Control_c, 0, 64, 67
2,125355, Control_c, 0, 64, 66
2,125355, Note_on_c, 0, 66, 0
2,125371, Control_c, 0, 64, 60
2,125378, Note_on_c, 0, 72, 0
2,125383, Note_on_c, 0, 49, 52
2,125386, Control_c, 0, 64, 0
2,125394, Note_on_c, 0, 71, 79
2,125402, Note_on_c, 0, 41, 49
2,125402, Note_on_c, 0, 68, 74
2,125557, Note_on_c, 0, 68, 0
2,125614, Control_c, 0, 64, 47
2,125629, Control_c, 0, 64, 62
2,125645, Control_c, 0, 64, 63
2,125690, Control_c, 0, 64, 64
2,125704, Control_c, 0, 64, 65
2,125709, Note_on_c, 0, 68, 57
2,125720, Control_c, 0, 64, 66
2,125735, Control_c, 0, 64, 67
2,125754, Note_on_c, 0, 68, 0
2,125812, Control_c, 0, 64, 66
2,125873, Control_c, 0, 64, 66
2,125934, Control_c, 0, 64, 65
2,125965, Control_c, 0, 64, 65
2,125974, Note_on_c, 0, 71, 0
2,125979, Control_c, 0, 64, 64
2,125994, Control_c, 0, 64, 61
2,126008, Note_on_c, 0, 42, 40
2,126010, Control_c, 0, 64, 54
2,126013, Note_on_c, 0, 70, 61
2,126014, Note_on_c, 0, 68, 64
2,126025, Control_c, 0, 64, 10
2,126041, Control_c, 0, 64, 0
2,126045, Note_on_c, 0, 41, 0
2,126261, Control_c, 0, 64, 49
2,126275, Control_c, 0, 64, 61
2,126290, Control_c, 0, 64, 64
2,126305, Control_c, 0, 64, 65
2,126321, Control_c, 0, 64, 66
2,126334, Note_on_c, 0, 66, 57
2,126334, Note_on_c, 0, 70, 0
2,126336, Control_c, 0, 64, 67
2,126342, Note_on_c, 0, 61, 35
2,126350, Control_c, 0, 64, 69
2,126365, Note_on_c, 0, 68, 0
2,126366, Control_c, 0, 64, 70
2,126375, Note_on_c, 0, 66, 0
2,126381, Control_c, 0, 64, 72
2,126396, Control_c, 0, 64, 74
2,126412, Control_c, 0, 64, 75
2,126426, Control_c, 0, 64, 75
2,126467, Note_on_c, 0, 64, 61
2,126528, Note_on_c, 0, 64, 0
2,126530, Note_on_c, 0, 61, 0
2,126579, Control_c, 0, 64, 75
2,126594, Control_c, 0, 64, 73
2,126610, Control_c, 0, 64, 70
2,126625, Control_c, 0, 64, 64
2,126641, Control_c, 0, 64, 0
2,126642, Note_on_c, 0, 66, 57
2,126646, Note_on_c, 0, 63, 59
2,126653, Note_on_c, 0, 69, 57
2,126655, Note_on_c, 0, 51, 43
2,126713, Note_on_c, 0, 49, 0
2,126756, Note_on_c, 0, 66, 0
2,126891, Control_c, 0, 64, 57
2,126906, Control_c, 0, 64, 64
2,126912, Note_on_c, 0, 63, 0
2,126922, Control_c, 0, 64, 65
2,126937, Control_c, 0, 64, 66
2,126951, Control_c, 0, 64, 67
2,126964, Note_on_c, 0, 66, 42
2,126967, Control_c, 0, 64, 70
2,126976, Note_on_c, 0, 61, 47
2,126982, Control_c, 0, 64, 74
2,126997, Control_c, 0, 64, 79
2,127013, Control_c, 0, 64, 83
2,127028, Control_c, 0, 64, 84
2,127053, Note_on_c, 0, 66, 0
2,127058, Note_on_c, 0, 61, 0
2,127059, Control_c, 0, 64, 84
2,127073, Control_c, 0, 64, 85
2,127089, Control_c, 0, 64, 85
2,127104, Control_c, 0, 64, 86
2,127144, Note_on_c, 0, 69, 0
2,127241, Control_c, 0, 64, 85
2,127256, Control_c, 0, 64, 84
2,127270, Control_c, 0, 64, 80
2,127285, Note_on_c, 0, 44, 54
2,127286, Control_c, 0, 64, 74
2,127287, Note_on_c, 0, 68, 46
2,127289, Note_on_c, 0, 66, 43
2,127295, Note_on_c, 0, 60, 35
2,127301, Control_c, 0, 64, 65
2,127315, Control_c, 0, 64, 0
2,127334, Note_on_c, 0, 42, 0
2,127340, Note_on_c, 0, 51, 0
2,127554, Note_on_c, 0, 60, 0
2,127583, Note_on_c, 0, 51, 55
2,127590, Control_c, 0, 64, 45
2,127606, Control_c, 0, 64, 56
2,127615, Note_on_c, 0, 64, 44
2,127621, Control_c, 0, 64, 54
2,127636, Control_c, 0, 64, 53
2,127659, Control_c, 0, 64, 53
2,127667, Note_on_c, 0, 66, 0
2,127674, Control_c, 0, 64, 51
2,127690, Control_c, 0, 64, 50
2,127704, Control_c, 0, 64, 49
2,127720, Control_c, 0, 64, 49
2,127735, Control_c, 0, 64, 47
2,127745, Note_on_c, 0, 63, 65
2,127750, Control_c, 0, 64, 44
2,127766, Control_c, 0, 64, 42
2,127779, Note_on_c, 0, 64, 0
2,127781, Control_c, 0, 64, 40
2,127788, Note_on_c, 0, 63, 0
2,127796, Control_c, 0, 64, 37
2,127813, Control_c, 0, 64, 29
2,127827, Control_c, 0, 64, 0
2,127911, Note_on_c, 0, 56, 66
2,127921, Note_on_c, 0, 64, 52
2,127929, Note_on_c, 0, 61, 44
2,127977, Note_on_c, 0, 51, 0
2,128045, Note_on_c, 0, 56, 0
2,128232, Note_on_c, 0, 56, 61
2,128362, Note_on_c, 0, 56, 0
2,128549, Note_on_c, 0, 56, 49
2,128550, Note_on_c, 0, 70, 71
2,128610, Note_on_c, 0, 64, 0
2,128640, Control_c, 0, 64, 27
2,128640, Note_on_c, 0, 68, 0
2,128655, Control_c, 0, 64, 40
2,128670, Control_c, 0, 64, 43
2,128686, Control_c, 0, 64, 47
2,128701, Control_c, 0, 64, 50
2,128715, Control_c, 0, 64, 53
2,128731, Control_c, 0, 64, 54
2,128762, Control_c, 0, 64, 53
2,128792, Control_c, 0, 64, 54
2,128807, Control_c, 0, 64, 55
2,128822, Control_c, 0, 64, 56
2,128837, Control_c, 0, 64, 57
2,128843, Note_on_c, 0, 56, 0
2,128853, Control_c, 0, 64, 58
2,128861, Note_on_c, 0, 54, 55
2,128868, Control_c, 0, 64, 58
2,128868, Note_on_c, 0, 66, 65
2,128896, Note_on_c, 0, 70, 0
2,128897, Note_on_c, 0, 61, 0
2,128898, Control_c, 0, 64, 59
2,128913, Control_c, 0, 64, 59
2,128929, Control_c, 0, 64, 60
2,128974, Control_c, 0, 64, 59
2,128987, Note_on_c, 0, 52, 67
2,128987, Note_on_c, 0, 54, 0
2,128991, Note_on_c, 0, 68, 66
2,129004, Control_c, 0, 64, 58
2,129019, Control_c, 0, 64, 56
2,129034, Control_c, 0, 64, 51
2,129051, Control_c, 0, 64, 31
2,129066, Control_c, 0, 64, 0
2,129104, Note_on_c, 0, 66, 0
2,129147, Note_on_c, 0, 68, 0
2,129153, Note_on_c, 0, 52, 0
2,129153, Note_on_c, 0, 69, 69
2,129154, Note_on_c, 0, 72, 67
2,129157, Note_on_c, 0, 54, 60
2,129165, Note_on_c, 0, 63, 58
2,129280, Note_on_c, 0, 54, 0
2,129464, Note_on_c, 0, 54, 55
2,129465, Note_on_c, 0, 68, 70
2,129513, Control_c, 0, 64, 57
2,129529, Control_c, 0, 64, 66
2,129530, Note_on_c, 0, 69, 0
2,129541, Note_on_c, 0, 72, 0
2,129544, Control_c, 0, 64, 68
2,129556, Note_on_c, 0, 63, 0
2,129575, Control_c, 0, 64, 67
2,129598, Note_on_c, 0, 54, 0
2,129682, Control_c, 0, 64, 67
2,129697, Control_c, 0, 64, 66
2,129712, Control_c, 0, 64, 65
2,129727, Control_c, 0, 64, 64
2,129742, Control_c, 0, 64, 59
2,129757, Control_c, 0, 64, 24
2,129772, Control_c, 0, 64, 0
2,129787, Note_on_c, 0, 54, 55
2,129792, Note_on_c, 0, 61, 59
2,129792, Note_on_c, 0, 73, 67
2,129964, Control_c, 0, 64, 45
2,129979, Control_c, 0, 64, 54
2,129993, Control_c, 0, 64, 52
2,130009, Control_c, 0, 64, 53
2,130018, Note_on_c, 0, 61, 0
2,130055, Control_c, 0, 64, 51
2,130070, Control_c, 0, 64, 46
2,130085, Control_c, 0, 64, 0
2,130098, Note_on_c, 0, 54, 0
2,130101, Note_on_c, 0, 61, 47
2,130101, Note_on_c, 0, 64, 63
2,130117, Note_on_c, 0, 52, 57
2,130146, Note_on_c, 0, 68, 0
2,130252, Control_c, 0, 64, 13
2,130260, Note_on_c, 0, 51, 57
2,130266, Note_on_c, 0, 52, 0
2,130267, Control_c, 0, 64, 36
2,130282, Control_c, 0, 64, 39
2,130297, Control_c, 0, 64, 39
2,130312, Control_c, 0, 64, 37
2,130328, Control_c, 0, 64, 28
2,130343, Control_c, 0, 64, 0
2,130379, Note_on_c, 0, 61, 0
2,130406, Note_on_c, 0, 69, 65
2,130410, Note_on_c, 0, 66, 71
2,130427, Note_on_c, 0, 51, 0
2,130428, Note_on_c, 0, 52, 56
2,130464, Control_c, 0, 64, 29
2,130476, Note_on_c, 0, 64, 0
2,130480, Control_c, 0, 64, 61
2,130486, Note_on_c, 0, 69, 0
2,130495, Control_c, 0, 64, 62
2,130500, Note_on_c, 0, 66, 0
2,130510, Control_c, 0, 64, 61
2,130556, Control_c, 0, 64, 61
2,130571, Control_c, 0, 64, 60
2,130586, Control_c, 0, 64, 59
2,130602, Control_c, 0, 64, 57
2,130616, Control_c, 0, 64, 52
2,130631, Control_c, 0, 64, 24
2,130647, Control_c, 0, 64, 0
2,130707, Note_on_c, 0, 69, 77
2,130709, Note_on_c, 0, 66, 72
2,130710, Note_on_c, 0, 51, 53
2,130744, Note_on_c, 0, 52, 0
2,130792, Control_c, 0, 64, 57
2,130807, Control_c, 0, 64, 62
2,130819, Note_on_c, 0, 69, 0
2,130822, Control_c, 0, 64, 63
2,130831, Note_on_c, 0, 66, 0
2,130847, Note_on_c, 0, 51, 0
2,130849, Note_on_c, 0, 49, 67
2,130853, Control_c, 0, 64, 63
2,130868, Control_c, 0, 64, 65
2,130884, Control_c, 0, 64, 67
2,130899, Control_c, 0, 64, 70
2,130914, Control_c, 0, 64, 72
2,130921, Note_on_c, 0, 73, 0
2,130929, Control_c, 0, 64, 72
2,130975, Control_c, 0, 64, 72
2,130990, Control_c, 0, 64, 69
2,131005, Control_c, 0, 64, 57
2,131020, Control_c, 0, 64, 0
2,131037, Note_on_c, 0, 69, 72
2,131046, Note_on_c, 0, 72, 74
2,131047, Note_on_c, 0, 66, 75
2,131050, Note_on_c, 0, 49, 0
2,131052, Note_on_c, 0, 51, 67
2,131110, Note_on_c, 0, 44, 0
2,131111, Control_c, 0, 64, 52
2,131126, Control_c, 0, 64, 63
2,131141, Control_c, 0, 64, 64
2,131202, Control_c, 0, 64, 65
2,131213, Note_on_c, 0, 69, 0
2,131217, Control_c, 0, 64, 66
2,131232, Control_c, 0, 64, 66
2,131243, Note_on_c, 0, 66, 0
2,131293, Control_c, 0, 64, 66
2,131308, Control_c, 0, 64, 64
2,131324, Control_c, 0, 64, 50
2,131339, Control_c, 0, 64, 0
2,131345, Note_on_c, 0, 68, 75
2,131348, Note_on_c, 0, 44, 71
2,131361, Note_on_c, 0, 64, 59
2,131411, Note_on_c, 0, 64, 0
2,131440, Note_on_c, 0, 68, 0
2,131446, Control_c, 0, 64, 52
2,131460, Control_c, 0, 64, 56
2,131475, Control_c, 0, 64, 54
2,131498, Control_c, 0, 64, 55
2,131501, Note_on_c, 0, 66, 87
2,131509, Note_on_c, 0, 63, 78
2,131514, Control_c, 0, 64, 56
2,131530, Control_c, 0, 64, 57
2,131545, Control_c, 0, 64, 59
2,131564, Note_on_c, 0, 51, 0
2,131575, Control_c, 0, 64, 58
2,131583, Note_on_c, 0, 66, 0
2,131603, Note_on_c, 0, 63, 0
2,131606, Control_c, 0, 64, 57
2,131621, Control_c, 0, 64, 53
2,131636, Control_c, 0, 64, 0
2,131688, Note_on_c, 0, 76, 83
2,131689, Note_on_c, 0, 49, 70
2,131691, Note_on_c, 0, 68, 77
2,131696, Note_on_c, 0, 64, 72
2,131741, Note_on_c, 0, 72, 0
2,131773, Control_c, 0, 64, 26
2,131788, Control_c, 0, 64, 55
2,131804, Control_c, 0, 64, 58
2,131810, Note_on_c, 0, 64, 0
2,131834, Control_c, 0, 64, 59
2,131850, Control_c, 0, 64, 60
2,131865, Control_c, 0, 64, 62
2,131880, Note_on_c, 0, 49, 0
2,131881, Control_c, 0, 64, 64
2,131895, Control_c, 0, 64, 65
2,131910, Control_c, 0, 64, 66
2,131926, Control_c, 0, 64, 66
2,131929, Note_on_c, 0, 76, 0
2,131929, Note_on_c, 0, 76, 5
2,131956, Control_c, 0, 64, 66
2,131963, Note_on_c, 0, 68, 0
2,131971, Control_c, 0, 64, 63
2,131986, Control_c, 0, 64, 45
2,132002, Control_c, 0, 64, 0
2,132011, Note_on_c, 0, 70, 82
2,132018, Note_on_c, 0, 66, 81
2,132022, Note_on_c, 0, 49, 77
2,132073, Note_on_c, 0, 66, 0
2,132077, Control_c, 0, 64, 56
2,132089, Note_on_c, 0, 70, 0
2,132093, Control_c, 0, 64, 65
2,132107, Control_c, 0, 64, 69
2,132123, Control_c, 0, 64, 70
2,132155, Note_on_c, 0, 49, 0
2,132165, Note_on_c, 0, 72, 84
2,132167, Note_on_c, 0, 68, 82
2,132198, Control_c, 0, 64, 71
2,132247, Note_on_c, 0, 72, 0
2,132250, Note_on_c, 0, 68, 0
2,132312, Control_c, 0, 64, 70
2,132328, Control_c, 0, 64, 65
2,132344, Control_c, 0, 64, 0
2,132372, Note_on_c, 0, 44, 0
2,132373, Note_on_c, 0, 43, 70
2,132376, Note_on_c, 0, 49, 64
2,132376, Note_on_c, 0, 73, 76
2,132378, Note_on_c, 0, 70, 78
2,132617, Control_c, 0, 64, 47
2,132632, Control_c, 0, 64, 64
2,132648, Control_c, 0, 64, 68
2,132662, Control_c, 0, 64, 71
2,132677, Control_c, 0, 64, 73
2,132705, Note_on_c, 0, 47, 78
2,132705, Note_on_c, 0, 49, 0
2,132717, Note_on_c, 0, 70, 0
2,132800, Control_c, 0, 64, 72
2,132827, Note_on_c, 0, 47, 0
2,132827, Note_on_c, 0, 76, 0
2,132828, Note_on_c, 0, 46, 77
2,132845, Control_c, 0, 64, 72
2,132860, Control_c, 0, 64, 71
2,132874, Control_c, 0, 64, 71
2,132890, Control_c, 0, 64, 69
2,132905, Control_c, 0, 64, 66
2,132921, Control_c, 0, 64, 56
2,132936, Control_c, 0, 64, 20
2,132950, Control_c, 0, 64, 0
2,132991, Note_on_c, 0, 46, 0
2,132993, Note_on_c, 0, 70, 70
2,132996, Note_on_c, 0, 51, 59
2,132996, Note_on_c, 0, 75, 76
2,133003, Note_on_c, 0, 63, 64
2,133055, Note_on_c, 0, 73, 0
2,133249, Control_c, 0, 64, 48
2,133263, Control_c, 0, 64, 60
2,133278, Control_c, 0, 64, 62
2,133308, Control_c, 0, 64, 63
2,133321, Note_on_c, 0, 73, 82
2,133324, Control_c, 0, 64, 64
2,133339, Control_c, 0, 64, 65
2,133347, Note_on_c, 0, 75, 0
2,133353, Note_on_c, 0, 70, 0
2,133354, Control_c, 0, 64, 67
2,133370, Control_c, 0, 64, 69
2,133384, Control_c, 0, 64, 69
2,133415, Control_c, 0, 64, 70
2,133522, Control_c, 0, 64, 69
2,133537, Control_c, 0, 64, 69
2,133552, Control_c, 0, 64, 68
2,133568, Control_c, 0, 64, 66
2,133582, Control_c, 0, 64, 63
2,133597, Control_c, 0, 64, 56
2,133613, Control_c, 0, 64, 13
2,133626, Note_on_c, 0, 73, 0
2,133628, Control_c, 0, 64, 0
2,133630, Note_on_c, 0, 72, 73
2,133632, Note_on_c, 0, 43, 0
2,133633, Note_on_c, 0, 44, 60
2,133637, Note_on_c, 0, 68, 71
2,133778, Note_on_c, 0, 51, 0
2,133782, Note_on_c, 0, 52, 75
2,133956, Note_on_c, 0, 52, 0
2,133956, Note_on_c, 0, 54, 75
2,134047, Control_c, 0, 64, 57
2,134062, Control_c, 0, 64, 63
2,134077, Control_c, 0, 64, 64
2,134168, Control_c, 0, 64, 64
2,134169, Note_on_c, 0, 63, 0
2,134228, Control_c, 0, 64, 64
2,134259, Control_c, 0, 64, 63
2,134272, Control_c, 0, 64, 62
2,134272, Note_on_c, 0, 73, 79
2,134277, Note_on_c, 0, 64, 72
2,134288, Control_c, 0, 64, 61
2,134302, Control_c, 0, 64, 57
2,134317, Control_c, 0, 64, 50
2,134333, Control_c, 0, 64, 34
2,134348, Control_c, 0, 64, 0
2,134358, Note_on_c, 0, 72, 0
2,134412, Note_on_c, 0, 52, 78
2,134422, Note_on_c, 0, 54, 0
2,134593, Note_on_c, 0, 51, 82
2,134602, Note_on_c, 0, 52, 0
2,134694, Note_on_c, 0, 64, 0
2,134752, Note_on_c, 0, 49, 81
2,134781, Note_on_c, 0, 51, 0
2,135010, Note_on_c, 0, 56, 80
2,135027, Note_on_c, 0, 63, 55
2,135052, Note_on_c, 0, 49, 0
2,135828, Note_on_c, 0, 72, 79
2,135918, Note_on_c, 0, 73, 0
2,136067, Control_c, 0, 64, 64
2,136082, Control_c, 0, 64, 70
2,136100, Note_on_c, 0, 63, 0
2,136105, Control_c, 0, 64, 75
2,136120, Control_c, 0, 64, 78
2,136136, Control_c, 0, 64, 80
2,136151, Control_c, 0, 64, 81
2,136167, Control_c, 0, 64, 82
2,136181, Control_c, 0, 64, 85
2,136196, Control_c, 0, 64, 90
2,136212, Control_c, 0, 64, 96
2,136227, Control_c, 0, 64, 101
2,136231, Note_on_c, 0, 64, 76
2,136242, Control_c, 0, 64, 104
2,136257, Control_c, 0, 64, 106
2,136272, Control_c, 0, 64, 108
2,136280, Note_on_c, 0, 68, 0
2,136288, Control_c, 0, 64, 111
2,136302, Control_c, 0, 64, 115
2,136317, Control_c, 0, 64, 122
2,136333, Control_c, 0, 64, 127
2,136407, Note_on_c, 0, 66, 88
2,136427, Note_on_c, 0, 56, 0
2,136433, Note_on_c, 0, 44, 0
2,136462, Note_on_c, 0, 72, 0
2,136493, Note_on_c, 0, 64, 0
2,136514, Note_on_c, 0, 66, 0
2,136688, Note_on_c, 0, 68, 74
2,136694, Note_on_c, 0, 65, 75
2,136694, Note_on_c, 0, 73, 77
2,136695, Note_on_c, 0, 49, 55
2,136695, Note_on_c, 0, 57, 51
2,136714, Control_c, 0, 64, 112
2,136729, Control_c, 0, 64, 100
2,136744, Control_c, 0, 64, 89
2,136759, Control_c, 0, 64, 75
2,136775, Control_c, 0, 64, 60
2,136790, Control_c, 0, 64, 0
2,137071, Note_on_c, 0, 61, 65
2,137142, Note_on_c, 0, 65, 0
2,137421, Control_c, 0, 64, 10
2,137427, Note_on_c, 0, 66, 71
2,137436, Control_c, 0, 64, 26
2,137451, Control_c, 0, 64, 29
2,137511, Note_on_c, 0, 68, 0
2,137512, Control_c, 0, 64, 28
2,137527, Control_c, 0, 64, 25
2,137542, Control_c, 0, 64, 23
2,137557, Control_c, 0, 64, 24
2,137573, Control_c, 0, 64, 29
2,137587, Control_c, 0, 64, 34
2,137602, Control_c, 0, 64, 40
2,137618, Control_c, 0, 64, 43
2,137641, Control_c, 0, 64, 45
2,137656, Control_c, 0, 64, 47
2,137671, Control_c, 0, 64, 48
2,137687, Control_c, 0, 64, 50
2,137702, Control_c, 0, 64, 52
2,137717, Control_c, 0, 64, 52
2,137747, Control_c, 0, 64, 52
2,137778, Control_c, 0, 64, 51
2,137795, Note_on_c, 0, 57, 0
2,137803, Note_on_c, 0, 56, 50
2,137838, Control_c, 0, 64, 52
2,137868, Control_c, 0, 64, 51
2,137930, Control_c, 0, 64, 51
2,137952, Note_on_c, 0, 56, 0
2,137957, Note_on_c, 0, 57, 56
2,137959, Control_c, 0, 64, 50
2,138020, Control_c, 0, 64, 50
2,138035, Control_c, 0, 64, 49
2,138051, Control_c, 0, 64, 48
2,138067, Control_c, 0, 64, 47
2,138082, Control_c, 0, 64, 45
2,138097, Control_c, 0, 64, 38
2,138112, Control_c, 0, 64, 0
2,138160, Note_on_c, 0, 65, 67
2,138161, Note_on_c, 0, 59, 50
2,138187, Note_on_c, 0, 57, 0
2,138275, Note_on_c, 0, 61, 0
2,138335, Note_on_c, 0, 66, 0
2,138556, Note_on_c, 0, 57, 37
2,138563, Note_on_c, 0, 61, 60
2,138592, Note_on_c, 0, 59, 0
2,138958, Note_on_c, 0, 69, 67
2,138961, Note_on_c, 0, 56, 47
2,138964, Note_on_c, 0, 66, 67
2,138969, Note_on_c, 0, 61, 0
2,138982, Note_on_c, 0, 57, 0
2,139020, Note_on_c, 0, 65, 0
2,139124, Control_c, 0, 64, 41
2,139139, Control_c, 0, 64, 47
2,139151, Note_on_c, 0, 66, 0
2,139154, Control_c, 0, 64, 45
2,139178, Control_c, 0, 64, 44
2,139192, Control_c, 0, 64, 41
2,139208, Control_c, 0, 64, 37
2,139223, Control_c, 0, 64, 29
2,139238, Control_c, 0, 64, 0
2,139424, Note_on_c, 0, 54, 50
2,139428, Note_on_c, 0, 66, 66
2,139484, Note_on_c, 0, 56, 0
2,139602, Control_c, 0, 64, 61
2,139618, Control_c, 0, 64, 67
2,139633, Control_c, 0, 64, 70
2,139649, Control_c, 0, 64, 73
2,139656, Note_on_c, 0, 66, 0
2,139664, Control_c, 0, 64, 75
2,139678, Control_c, 0, 64, 76
2,139694, Control_c, 0, 64, 77
2,139710, Control_c, 0, 64, 78
2,139725, Control_c, 0, 64, 78
2,139756, Control_c, 0, 64, 79
2,139801, Control_c, 0, 64, 79
2,139802, Note_on_c, 0, 69, 0
2,139922, Control_c, 0, 64, 79
2,139946, Control_c, 0, 64, 78
2,139961, Control_c, 0, 64, 76
2,139963, Note_on_c, 0, 61, 48
2,139968, Note_on_c, 0, 66, 69
2,139970, Note_on_c, 0, 68, 70
2,139977, Control_c, 0, 64, 73
2,139991, Control_c, 0, 64, 67
2,140007, Control_c, 0, 64, 39
2,140022, Control_c, 0, 64, 0
2,140036, Note_on_c, 0, 54, 0
2,140506, Note_on_c, 0, 59, 47
2,140557, Note_on_c, 0, 61, 0
2,140779, Note_on_c, 0, 57, 48
2,140796, Note_on_c, 0, 59, 0
2,141105, Note_on_c, 0, 65, 50
2,141108, Note_on_c, 0, 56, 43
2,141154, Note_on_c, 0, 66, 0
2,141174, Note_on_c, 0, 57, 0
2,141875, Note_on_c, 0, 63, 49
2,141883, Note_on_c, 0, 54, 35
2,141943, Note_on_c, 0, 65, 0
2,141961, Note_on_c, 0, 56, 0
2,142951, Note_on_c, 0, 65, 45
2,142957, Note_on_c, 0, 56, 37
2,143038, Note_on_c, 0, 54, 0
2,143041, Note_on_c, 0, 63, 0
2,143432, Control_c, 0, 64, 10
2,143447, Control_c, 0, 64, 21
2,143462, Control_c, 0, 64, 27
2,143506, Control_c, 0, 64, 28
2,143521, Control_c, 0, 64, 29
2,143537, Control_c, 0, 64, 29
2,143552, Control_c, 0, 64, 31
2,143566, Control_c, 0, 64, 32
2,143582, Control_c, 0, 64, 33
2,143597, Control_c, 0, 64, 34
2,143658, Control_c, 0, 64, 35
2,143673, Control_c, 0, 64, 36
2,143688, Control_c, 0, 64, 37
2,143704, Control_c, 0, 64, 37
2,143718, Control_c, 0, 64, 38
2,143734, Control_c, 0, 64, 39
2,143756, Control_c, 0, 64, 41
2,143773, Control_c, 0, 64, 42
2,143788, Control_c, 0, 64, 43
2,143803, Control_c, 0, 64, 45
2,143819, Control_c, 0, 64, 47
2,143833, Control_c, 0, 64, 48
2,143848, Control_c, 0, 64, 50
2,143864, Control_c, 0, 64, 50
2,143879, Control_c, 0, 64, 51
2,143909, Control_c, 0, 64, 51
2,143924, Control_c, 0, 64, 52
2,143940, Control_c, 0, 64, 54
2,143955, Control_c, 0, 64, 55
2,143971, Control_c, 0, 64, 56
2,143986, Control_c, 0, 64, 57
2,144001, Control_c, 0, 64, 58
2,144017, Control_c, 0, 64, 59
2,144031, Control_c, 0, 64, 61
2,144046, Control_c, 0, 64, 62
2,144062, Control_c, 0, 64, 62
2,144077, Control_c, 0, 64, 63
2,144092, Control_c, 0, 64, 64
2,144107, Control_c, 0, 64, 64
2,144122, Control_c, 0, 64, 65
2,144138, Control_c, 0, 64, 66
2,144153, Control_c, 0, 64, 67
2,144167, Control_c, 0, 64, 68
2,144183, Control_c, 0, 64, 69
2,144198, Control_c, 0, 64, 69
2,144214, Control_c, 0, 64, 70
2,144229, Control_c, 0, 64, 71
2,144243, Control_c, 0, 64, 72
2,144259, Control_c, 0, 64, 73
2,144274, Control_c, 0, 64, 74
2,144288, Control_c, 0, 64, 75
2,144304, Control_c, 0, 64, 76
2,144319, Control_c, 0, 64, 76
2,144350, Control_c, 0, 64, 77
2,144395, Control_c, 0, 64, 77
2,144441, Control_c, 0, 64, 78
2,144967, Control_c, 0, 64, 77
2,144997, Control_c, 0, 64, 77
2,145059, Control_c, 0, 64, 76
2,145088, Control_c, 0, 64, 76
2,145134, Control_c, 0, 64, 75
2,145164, Control_c, 0, 64, 75
2,145180, Control_c, 0, 64, 74
2,145195, Control_c, 0, 64, 74
2,145209, Control_c, 0, 64, 73
2,145225, Control_c, 0, 64, 73
2,145240, Control_c, 0, 64, 72
2,145255, Control_c, 0, 64, 71
2,145270, Control_c, 0, 64, 70
2,145294, Control_c, 0, 64, 69
2,145309, Control_c, 0, 64, 68
2,145324, Control_c, 0, 64, 67
2,145339, Control_c, 0, 64, 66
2,145346, Note_on_c, 0, 56, 0
2,145354, Control_c, 0, 64, 65
2,145360, Note_on_c, 0, 65, 0
2,145369, Control_c, 0, 64, 64
2,145385, Control_c, 0, 64, 63
2,145395, Note_on_c, 0, 68, 0
2,145437, Note_on_c, 0, 73, 0
2,145462, Control_c, 0, 64, 63
2,145493, Control_c, 0, 64, 62
2,145508, Control_c, 0, 64, 62
2,145520, Note_on_c, 0, 49, 0
2,145522, Control_c, 0, 64, 61
2,145538, Control_c, 0, 64, 60
2,145553, Control_c, 0, 64, 59
2,145567, Control_c, 0, 64, 58
2,145583, Control_c, 0, 64, 56
2,145598, Control_c, 0, 64, 55
2,145614, Control_c, 0, 64, 55
2,145629, Control_c, 0, 64, 54
2,145643, Control_c, 0, 64, 54
2,145659, Control_c, 0, 64, 53
2,145674, Control_c, 0, 64, 52
2,145688, Control_c, 0, 64, 50
2,145704, Control_c, 0, 64, 47
2,145719, Control_c, 0, 64, 44
2,145735, Control_c, 0, 64, 42
2,145781, Control_c, 0, 64, 41
2,145796, Control_c, 0, 64, 39
2,145811, Control_c, 0, 64, 37
2,145826, Control_c, 0, 64, 36
2,145841, Control_c, 0, 64, 35
2,145857, Control_c, 0, 64, 32
2,145872, Control_c, 0, 64, 29
2,145887, Control_c, 0, 64, 28
2,145917, Control_c, 0, 64, 27
2,145963, Control_c, 0, 64, 24
2,145978, Control_c, 0, 64, 20
2,145993, Control_c, 0, 64, 17
2,146024, Control_c, 0, 64, 15
2,146039, Control_c, 0, 64, 13
2,146077, Control_c, 0, 64, 10
2,146078, End_track
0, 0, End_of_file
