0, 0, Header, 1, 2, 384
1, 0, Start_track
1, 0, Tempo, 500000
1, 0, Time_signature, 4, 2, 24, 8
1, 1, End_track
2, 0, Start_track
2, 0, Title_t, "Woo04-07.MID"
2, 0, Program_c, 0, 0
2, 0, Control_c, 0, 64, 0
2, 0, Control_c, 0, 67, 0
2, 822, Note_on_c, 0, 49, 37
2, 825, Note_on_c, 0, 68, 47
2, 1012, Note_on_c, 0, 66, 54
2, 1126, Note_on_c, 0, 68, 0
2, 1188, Note_on_c, 0, 64, 49
2, 1189, Note_on_c, 0, 66, 0
2, 1338, Note_on_c, 0, 64, 0
2, 1362, Note_on_c, 0, 63, 51
2, 1517, Note_on_c, 0, 63, 0
2, 1535, Note_on_c, 0, 64, 58
2, 1651, Note_on_c, 0, 64, 0
2, 1689, Note_on_c, 0, 61, 56
2, 1801, Note_on_c, 0, 61, 0
2, 1806, Note_on_c, 0, 64, 51
2, 1864, Note_on_c, 0, 68, 58
2, 1941, Note_on_c, 0, 73, 61
2, 2518, Note_on_c, 0, 68, 0
2, 2551, Note_on_c, 0, 71, 51
2, 2695, Note_on_c, 0, 64, 0
2, 2737, Note_on_c, 0, 69, 49
2, 2739, Note_on_c, 0, 66, 45
2, 2744, Note_on_c, 0, 73, 0
2, 2746, Note_on_c, 0, 71, 0
2, 2811, Control_c, 0, 64, 34
2, 2827, Control_c, 0, 64, 65
2, 2842, Control_c, 0, 64, 74
2, 2858, Control_c, 0, 64, 85
2, 2873, Control_c, 0, 64, 96
2, 2887, Control_c, 0, 64, 102
2, 2903, Control_c, 0, 64, 105
2, 2918, Control_c, 0, 64, 106
2, 2933, Control_c, 0, 64, 107
2, 2938, Note_on_c, 0, 69, 0
2, 2949, Control_c, 0, 64, 108
2, 2964, Control_c, 0, 64, 110
2, 2970, Note_on_c, 0, 66, 0
2, 2980, Control_c, 0, 64, 110
2, 3145, Note_on_c, 0, 64, 39
2, 3147, Control_c, 0, 64, 109
2, 3149, Note_on_c, 0, 69, 50
2, 3154, Note_on_c, 0, 56, 39
2, 3162, Control_c, 0, 64, 105
2, 3178, Control_c, 0, 64, 100
2, 3181, Note_on_c, 0, 69, 0
2, 3193, Control_c, 0, 64, 92
2, 3202, Note_on_c, 0, 68, 68
2, 3208, Control_c, 0, 64, 82
2, 3223, Control_c, 0, 64, 69
2, 3238, Control_c, 0, 64, 0
2, 3260, Note_on_c, 0, 68, 0
2, 3266, Note_on_c, 0, 69, 69
2, 3311, Note_on_c, 0, 69, 0
2, 3316, Note_on_c, 0, 68, 45
2, 3333, Note_on_c, 0, 54, 35
2, 3398, Note_on_c, 0, 56, 0
2, 3519, Note_on_c, 0, 52, 48
2, 3546, Note_on_c, 0, 54, 0
2, 3671, Note_on_c, 0, 52, 0
2, 3688, Note_on_c, 0, 51, 50
2, 3853, Note_on_c, 0, 52, 60
2, 3857, Note_on_c, 0, 51, 0
2, 3896, Note_on_c, 0, 49, 0
2, 4009, Note_on_c, 0, 52, 0
2, 4010, Note_on_c, 0, 49, 61
2, 4145, Note_on_c, 0, 52, 52
2, 4181, Note_on_c, 0, 52, 0
2, 4188, Note_on_c, 0, 56, 64
2, 4270, Note_on_c, 0, 61, 58
2, 4279, Note_on_c, 0, 56, 0
2, 4842, Note_on_c, 0, 59, 47
2, 4860, Note_on_c, 0, 61, 0
2, 5005, Note_on_c, 0, 59, 0
2, 5024, Note_on_c, 0, 57, 45
2, 5028, Note_on_c, 0, 66, 63
2, 5069, Note_on_c, 0, 68, 0
2, 5119, Note_on_c, 0, 64, 0
2, 5419, Note_on_c, 0, 56, 47
2, 5429, Note_on_c, 0, 48, 48
2, 5437, Note_on_c, 0, 75, 60
2, 5459, Note_on_c, 0, 66, 0
2, 5465, Note_on_c, 0, 49, 0
2, 5490, Note_on_c, 0, 57, 0
2, 5624, Note_on_c, 0, 73, 58
2, 5676, Note_on_c, 0, 75, 0
2, 5795, Note_on_c, 0, 72, 66
2, 5841, Note_on_c, 0, 73, 0
2, 5964, Note_on_c, 0, 72, 0
2, 5966, Note_on_c, 0, 70, 67
2, 6148, Note_on_c, 0, 72, 67
2, 6150, Note_on_c, 0, 70, 0
2, 6172, Control_c, 0, 64, 41
2, 6188, Control_c, 0, 64, 64
2, 6203, Control_c, 0, 64, 73
2, 6219, Control_c, 0, 64, 81
2, 6233, Control_c, 0, 64, 86
2, 6249, Control_c, 0, 64, 89
2, 6265, Control_c, 0, 64, 90
2, 6267, Note_on_c, 0, 72, 0
2, 6280, Control_c, 0, 64, 90
2, 6297, Note_on_c, 0, 68, 70
2, 6331, Note_on_c, 0, 68, 0
2, 6341, Control_c, 0, 64, 90
2, 6356, Control_c, 0, 64, 89
2, 6370, Control_c, 0, 64, 87
2, 6386, Control_c, 0, 64, 83
2, 6401, Control_c, 0, 64, 74
2, 6403, Note_on_c, 0, 68, 62
2, 6417, Control_c, 0, 64, 62
2, 6432, Control_c, 0, 64, 0
2, 6477, Note_on_c, 0, 75, 64
2, 6545, Note_on_c, 0, 80, 72
2, 6820, Control_c, 0, 64, 40
2, 6835, Control_c, 0, 64, 59
2, 6850, Control_c, 0, 64, 65
2, 6865, Control_c, 0, 64, 69
2, 6880, Control_c, 0, 64, 75
2, 6896, Control_c, 0, 64, 80
2, 6910, Control_c, 0, 64, 83
2, 6925, Control_c, 0, 64, 85
2, 6941, Control_c, 0, 64, 85
2, 6956, Control_c, 0, 64, 86
2, 6986, Control_c, 0, 64, 86
2, 6990, Note_on_c, 0, 75, 0
2, 7001, Control_c, 0, 64, 87
2, 7017, Control_c, 0, 64, 87
2, 7131, Note_on_c, 0, 68, 0
2, 7131, Note_on_c, 0, 78, 64
2, 7187, Note_on_c, 0, 48, 0
2, 7245, Control_c, 0, 64, 87
2, 7261, Control_c, 0, 64, 86
2, 7276, Control_c, 0, 64, 83
2, 7291, Control_c, 0, 64, 78
2, 7306, Control_c, 0, 64, 70
2, 7321, Control_c, 0, 64, 42
2, 7321, Note_on_c, 0, 49, 42
2, 7327, Note_on_c, 0, 76, 55
2, 7330, Note_on_c, 0, 73, 50
2, 7335, Note_on_c, 0, 80, 0
2, 7337, Control_c, 0, 64, 0
2, 7338, Note_on_c, 0, 61, 34
2, 7340, Note_on_c, 0, 68, 36
2, 7359, Note_on_c, 0, 56, 0
2, 7450, Control_c, 0, 64, 48
2, 7455, Note_on_c, 0, 78, 0
2, 7466, Control_c, 0, 64, 69
2, 7469, Note_on_c, 0, 76, 0
2, 7481, Control_c, 0, 64, 84
2, 7483, Note_on_c, 0, 49, 0
2, 7497, Control_c, 0, 64, 97
2, 7500, Note_on_c, 0, 73, 0
2, 7506, Note_on_c, 0, 61, 0
2, 7508, Note_on_c, 0, 68, 0
2, 7511, Control_c, 0, 64, 108
2, 7526, Control_c, 0, 64, 113
2, 7542, Control_c, 0, 64, 115
2, 7556, Control_c, 0, 64, 118
2, 7571, Control_c, 0, 64, 123
2, 7587, Control_c, 0, 64, 127
2, 7724, Note_on_c, 0, 68, 49
2, 7725, Note_on_c, 0, 76, 53
2, 7733, Note_on_c, 0, 72, 47
2, 7737, Note_on_c, 0, 56, 40
2, 7745, Note_on_c, 0, 63, 42
2, 7753, Control_c, 0, 64, 112
2, 7768, Control_c, 0, 64, 99
2, 7784, Control_c, 0, 64, 87
2, 7799, Control_c, 0, 64, 75
2, 7804, Note_on_c, 0, 75, 64
2, 7815, Control_c, 0, 64, 56
2, 7826, Note_on_c, 0, 76, 0
2, 7829, Control_c, 0, 64, 0
2, 7916, Note_on_c, 0, 61, 51
2, 7980, Note_on_c, 0, 63, 0
2, 8102, Note_on_c, 0, 60, 59
2, 8117, Note_on_c, 0, 61, 0
2, 8272, Note_on_c, 0, 58, 61
2, 8282, Note_on_c, 0, 60, 0
2, 8453, Note_on_c, 0, 60, 55
2, 8464, Note_on_c, 0, 58, 0
2, 8482, Note_on_c, 0, 56, 0
2, 8593, Note_on_c, 0, 60, 0
2, 8601, Note_on_c, 0, 56, 57
2, 8709, Note_on_c, 0, 60, 51
2, 8743, Note_on_c, 0, 60, 0
2, 8753, Note_on_c, 0, 63, 62
2, 8824, Note_on_c, 0, 63, 0
2, 8825, Note_on_c, 0, 66, 60
2, 9391, Note_on_c, 0, 72, 0
2, 9416, Note_on_c, 0, 64, 56
2, 9438, Note_on_c, 0, 68, 0
2, 9502, Note_on_c, 0, 66, 0
2, 9608, Note_on_c, 0, 63, 47
2, 9623, Note_on_c, 0, 64, 0
2, 9624, Note_on_c, 0, 68, 47
2, 9624, Note_on_c, 0, 80, 59
2, 9625, Note_on_c, 0, 72, 58
2, 9661, Note_on_c, 0, 75, 0
2, 9769, Control_c, 0, 64, 57
2, 9785, Control_c, 0, 64, 68
2, 9800, Control_c, 0, 64, 77
2, 9808, Note_on_c, 0, 80, 0
2, 9816, Control_c, 0, 64, 86
2, 9831, Control_c, 0, 64, 95
2, 9846, Control_c, 0, 64, 106
2, 9862, Control_c, 0, 64, 114
2, 9877, Control_c, 0, 64, 121
2, 9885, Note_on_c, 0, 68, 0
2, 9891, Control_c, 0, 64, 127
2, 9983, Control_c, 0, 64, 121
2, 9998, Control_c, 0, 64, 114
2, 10012, Control_c, 0, 64, 106
2, 10018, Note_on_c, 0, 72, 0
2, 10020, Note_on_c, 0, 75, 59
2, 10028, Control_c, 0, 64, 96
2, 10030, Note_on_c, 0, 64, 43
2, 10032, Note_on_c, 0, 69, 54
2, 10043, Control_c, 0, 64, 86
2, 10059, Control_c, 0, 64, 74
2, 10074, Control_c, 0, 64, 59
2, 10075, Note_on_c, 0, 63, 0
2, 10088, Control_c, 0, 64, 0
2, 10088, Note_on_c, 0, 73, 60
2, 10103, Note_on_c, 0, 75, 0
2, 10165, Note_on_c, 0, 73, 0
2, 10183, Note_on_c, 0, 72, 60
2, 10385, Note_on_c, 0, 73, 62
2, 10396, Note_on_c, 0, 72, 0
2, 10573, Note_on_c, 0, 73, 0
2, 10581, Note_on_c, 0, 76, 66
2, 10798, Note_on_c, 0, 81, 62
2, 10806, Note_on_c, 0, 76, 0
2, 10847, Note_on_c, 0, 69, 0
2, 10963, Control_c, 0, 64, 56
2, 10979, Control_c, 0, 64, 65
2, 10993, Control_c, 0, 64, 69
2, 11008, Control_c, 0, 64, 75
2, 11024, Control_c, 0, 64, 78
2, 11039, Control_c, 0, 64, 80
2, 11055, Control_c, 0, 64, 81
2, 11069, Control_c, 0, 64, 81
2, 11100, Control_c, 0, 64, 82
2, 11130, Control_c, 0, 64, 81
2, 11177, Control_c, 0, 64, 80
2, 11192, Control_c, 0, 64, 78
2, 11195, Note_on_c, 0, 63, 39
2, 11200, Note_on_c, 0, 54, 35
2, 11206, Control_c, 0, 64, 74
2, 11210, Note_on_c, 0, 69, 48
2, 11222, Control_c, 0, 64, 67
2, 11245, Control_c, 0, 64, 37
2, 11261, Control_c, 0, 64, 0
2, 11265, Note_on_c, 0, 56, 0
2, 11292, Note_on_c, 0, 64, 0
2, 11420, Note_on_c, 0, 80, 58
2, 11460, Note_on_c, 0, 81, 0
2, 11599, Note_on_c, 0, 80, 0
2, 11610, Control_c, 0, 64, 59
2, 11610, Note_on_c, 0, 78, 61
2, 11625, Control_c, 0, 64, 62
2, 11640, Control_c, 0, 64, 63
2, 11656, Control_c, 0, 64, 64
2, 11686, Control_c, 0, 64, 63
2, 11701, Control_c, 0, 64, 62
2, 11716, Control_c, 0, 64, 58
2, 11731, Control_c, 0, 64, 49
2, 11747, Control_c, 0, 64, 32
2, 11762, Control_c, 0, 64, 0
2, 11767, Note_on_c, 0, 78, 0
2, 11794, Note_on_c, 0, 76, 62
2, 11951, Note_on_c, 0, 76, 0
2, 11967, Note_on_c, 0, 75, 59
2, 12105, Control_c, 0, 64, 61
2, 12120, Control_c, 0, 64, 68
2, 12135, Control_c, 0, 64, 76
2, 12148, Note_on_c, 0, 75, 0
2, 12149, Note_on_c, 0, 73, 63
2, 12150, Control_c, 0, 64, 82
2, 12165, Control_c, 0, 64, 86
2, 12169, Note_on_c, 0, 73, 0
2, 12170, Note_on_c, 0, 69, 0
2, 12181, Control_c, 0, 64, 88
2, 12196, Control_c, 0, 64, 89
2, 12210, Control_c, 0, 64, 89
2, 12226, Control_c, 0, 64, 90
2, 12332, Control_c, 0, 64, 89
2, 12343, Note_on_c, 0, 73, 52
2, 12347, Control_c, 0, 64, 89
2, 12360, Note_on_c, 0, 68, 60
2, 12362, Control_c, 0, 64, 86
2, 12378, Control_c, 0, 64, 80
2, 12393, Control_c, 0, 64, 69
2, 12399, Note_on_c, 0, 71, 61
2, 12408, Control_c, 0, 64, 0
2, 12424, Note_on_c, 0, 73, 0
2, 12504, Note_on_c, 0, 69, 66
2, 12515, Note_on_c, 0, 71, 0
2, 12670, Note_on_c, 0, 69, 0
2, 12706, Note_on_c, 0, 71, 70
2, 12726, Note_on_c, 0, 68, 0
2, 12898, Note_on_c, 0, 75, 64
2, 12904, Note_on_c, 0, 71, 0
2, 13109, Note_on_c, 0, 80, 65
2, 13129, Note_on_c, 0, 75, 0
2, 13478, Note_on_c, 0, 61, 38
2, 13484, Note_on_c, 0, 52, 37
2, 13487, Note_on_c, 0, 68, 54
2, 13527, Note_on_c, 0, 54, 0
2, 13594, Note_on_c, 0, 63, 0
2, 13691, Note_on_c, 0, 78, 63
2, 13711, Note_on_c, 0, 80, 0
2, 13872, Note_on_c, 0, 78, 0
2, 13877, Note_on_c, 0, 76, 61
2, 14034, Note_on_c, 0, 76, 0
2, 14057, Note_on_c, 0, 75, 55
2, 14234, Note_on_c, 0, 73, 65
2, 14249, Note_on_c, 0, 75, 0
2, 14253, Note_on_c, 0, 68, 0
2, 14362, Control_c, 0, 64, 57
2, 14378, Control_c, 0, 64, 67
2, 14393, Control_c, 0, 64, 72
2, 14401, Note_on_c, 0, 73, 0
2, 14407, Control_c, 0, 64, 78
2, 14423, Control_c, 0, 64, 81
2, 14424, Note_on_c, 0, 71, 51
2, 14439, Control_c, 0, 64, 83
2, 14447, Note_on_c, 0, 71, 0
2, 14455, Control_c, 0, 64, 83
2, 14469, Control_c, 0, 64, 84
2, 14530, Control_c, 0, 64, 83
2, 14561, Control_c, 0, 64, 82
2, 14576, Control_c, 0, 64, 79
2, 14591, Control_c, 0, 64, 73
2, 14595, Note_on_c, 0, 71, 46
2, 14606, Control_c, 0, 64, 63
2, 14622, Control_c, 0, 64, 0
2, 14623, Note_on_c, 0, 66, 50
2, 14662, Note_on_c, 0, 71, 0
2, 14682, Note_on_c, 0, 69, 59
2, 14748, Note_on_c, 0, 69, 0
2, 14766, Note_on_c, 0, 68, 64
2, 14943, Note_on_c, 0, 66, 0
2, 14943, Note_on_c, 0, 68, 0
2, 14964, Note_on_c, 0, 69, 62
2, 15163, Note_on_c, 0, 69, 0
2, 15163, Note_on_c, 0, 73, 59
2, 15370, Note_on_c, 0, 78, 58
2, 15378, Note_on_c, 0, 73, 0
2, 15509, Control_c, 0, 64, 30
2, 15524, Control_c, 0, 64, 63
2, 15540, Control_c, 0, 64, 68
2, 15555, Control_c, 0, 64, 73
2, 15569, Control_c, 0, 64, 79
2, 15585, Control_c, 0, 64, 85
2, 15600, Control_c, 0, 64, 90
2, 15616, Control_c, 0, 64, 92
2, 15631, Control_c, 0, 64, 93
2, 15646, Control_c, 0, 64, 94
2, 15747, Note_on_c, 0, 66, 51
2, 15750, Note_on_c, 0, 51, 40
2, 15750, Note_on_c, 0, 59, 33
2, 15767, Control_c, 0, 64, 93
2, 15775, Note_on_c, 0, 78, 0
2, 15783, Control_c, 0, 64, 91
2, 15798, Control_c, 0, 64, 89
2, 15813, Control_c, 0, 64, 85
2, 15829, Control_c, 0, 64, 80
2, 15850, Control_c, 0, 64, 73
2, 15850, Note_on_c, 0, 52, 0
2, 15866, Control_c, 0, 64, 65
2, 15881, Control_c, 0, 64, 18
2, 15897, Control_c, 0, 64, 0
2, 15918, Note_on_c, 0, 61, 0
2, 15942, Note_on_c, 0, 76, 54
2, 16126, Note_on_c, 0, 76, 0
2, 16136, Note_on_c, 0, 75, 58
2, 16281, Note_on_c, 0, 75, 0
2, 16309, Note_on_c, 0, 73, 56
2, 16339, Control_c, 0, 64, 28
2, 16354, Control_c, 0, 64, 42
2, 16369, Control_c, 0, 64, 43
2, 16400, Control_c, 0, 64, 43
2, 16415, Control_c, 0, 64, 46
2, 16430, Control_c, 0, 64, 53
2, 16445, Control_c, 0, 64, 59
2, 16461, Control_c, 0, 64, 63
2, 16463, Note_on_c, 0, 73, 0
2, 16476, Control_c, 0, 64, 64
2, 16490, Control_c, 0, 64, 66
2, 16501, Note_on_c, 0, 71, 60
2, 16506, Control_c, 0, 64, 67
2, 16521, Control_c, 0, 64, 68
2, 16523, Note_on_c, 0, 66, 0
2, 16536, Control_c, 0, 64, 70
2, 16551, Control_c, 0, 64, 72
2, 16566, Control_c, 0, 64, 75
2, 16582, Control_c, 0, 64, 78
2, 16597, Control_c, 0, 64, 80
2, 16620, Control_c, 0, 64, 81
2, 16635, Control_c, 0, 64, 82
2, 16650, Control_c, 0, 64, 82
2, 16663, Note_on_c, 0, 71, 0
2, 16681, Control_c, 0, 64, 83
2, 16681, Note_on_c, 0, 69, 53
2, 16695, Note_on_c, 0, 51, 0
2, 16704, Note_on_c, 0, 69, 0
2, 16871, Note_on_c, 0, 52, 45
2, 16872, Note_on_c, 0, 69, 51
2, 16895, Note_on_c, 0, 64, 34
2, 16912, Note_on_c, 0, 69, 0
2, 16924, Control_c, 0, 64, 82
2, 16940, Control_c, 0, 64, 80
2, 16942, Note_on_c, 0, 68, 55
2, 16955, Control_c, 0, 64, 77
2, 16969, Control_c, 0, 64, 70
2, 16972, Note_on_c, 0, 68, 0
2, 16985, Control_c, 0, 64, 56
2, 16988, Note_on_c, 0, 69, 60
2, 17000, Control_c, 0, 64, 0
2, 17019, Note_on_c, 0, 69, 0
2, 17031, Note_on_c, 0, 57, 46
2, 17037, Note_on_c, 0, 68, 58
2, 17061, Note_on_c, 0, 59, 0
2, 17220, Note_on_c, 0, 57, 0
2, 17221, Note_on_c, 0, 56, 57
2, 17399, Note_on_c, 0, 54, 57
2, 17404, Note_on_c, 0, 56, 0
2, 17577, Note_on_c, 0, 56, 56
2, 17580, Note_on_c, 0, 54, 0
2, 17590, Note_on_c, 0, 52, 0
2, 17700, Note_on_c, 0, 56, 0
2, 17722, Note_on_c, 0, 52, 55
2, 17867, Note_on_c, 0, 64, 0
2, 17875, Note_on_c, 0, 56, 47
2, 17928, Note_on_c, 0, 56, 0
2, 17939, Note_on_c, 0, 59, 69
2, 18016, Note_on_c, 0, 64, 51
2, 18022, Note_on_c, 0, 59, 0
2, 18278, Control_c, 0, 64, 52
2, 18293, Control_c, 0, 64, 59
2, 18307, Control_c, 0, 64, 60
2, 18338, Control_c, 0, 64, 61
2, 18352, Control_c, 0, 64, 64
2, 18367, Control_c, 0, 64, 67
2, 18383, Control_c, 0, 64, 72
2, 18398, Control_c, 0, 64, 76
2, 18413, Control_c, 0, 64, 79
2, 18428, Control_c, 0, 64, 80
2, 18443, Control_c, 0, 64, 80
2, 18535, Note_on_c, 0, 63, 49
2, 18556, Note_on_c, 0, 68, 0
2, 18557, Note_on_c, 0, 66, 56
2, 18571, Note_on_c, 0, 64, 0
2, 18719, Control_c, 0, 64, 79
2, 18721, Note_on_c, 0, 66, 0
2, 18722, Note_on_c, 0, 61, 55
2, 18724, Note_on_c, 0, 69, 58
2, 18733, Control_c, 0, 64, 77
2, 18738, Note_on_c, 0, 52, 0
2, 18749, Control_c, 0, 64, 71
2, 18750, Note_on_c, 0, 69, 0
2, 18764, Control_c, 0, 64, 57
2, 18768, Note_on_c, 0, 68, 65
2, 18780, Control_c, 0, 64, 0
2, 18780, Note_on_c, 0, 63, 0
2, 18829, Note_on_c, 0, 68, 0
2, 18835, Note_on_c, 0, 69, 63
2, 19128, Note_on_c, 0, 60, 48
2, 19130, Note_on_c, 0, 51, 37
2, 19182, Note_on_c, 0, 61, 0
2, 19327, Note_on_c, 0, 68, 59
2, 19358, Note_on_c, 0, 69, 0
2, 19520, Note_on_c, 0, 66, 63
2, 19548, Note_on_c, 0, 68, 0
2, 19704, Note_on_c, 0, 64, 59
2, 19710, Note_on_c, 0, 66, 0
2, 19872, Note_on_c, 0, 64, 0
2, 19899, Note_on_c, 0, 66, 58
2, 20045, Note_on_c, 0, 66, 0
2, 20082, Note_on_c, 0, 63, 55
2, 20266, Note_on_c, 0, 56, 43
2, 20273, Note_on_c, 0, 75, 58
2, 20279, Note_on_c, 0, 63, 0
2, 20340, Note_on_c, 0, 51, 0
2, 20461, Note_on_c, 0, 73, 59
2, 20497, Note_on_c, 0, 75, 0
2, 20625, Note_on_c, 0, 73, 0
2, 20640, Note_on_c, 0, 72, 61
2, 20812, Note_on_c, 0, 54, 48
2, 20812, Note_on_c, 0, 72, 0
2, 20823, Note_on_c, 0, 70, 65
2, 20830, Note_on_c, 0, 56, 0
2, 21006, Note_on_c, 0, 54, 0
2, 21015, Note_on_c, 0, 56, 58
2, 21016, Note_on_c, 0, 72, 69
2, 21033, Note_on_c, 0, 70, 0
2, 21141, Note_on_c, 0, 72, 0
2, 21188, Note_on_c, 0, 68, 62
2, 21390, Note_on_c, 0, 81, 64
2, 21394, Note_on_c, 0, 49, 43
2, 21427, Note_on_c, 0, 56, 0
2, 21448, Note_on_c, 0, 68, 0
2, 21586, Note_on_c, 0, 80, 67
2, 21663, Note_on_c, 0, 81, 0
2, 21768, Note_on_c, 0, 78, 74
2, 21882, Note_on_c, 0, 80, 0
2, 21930, Note_on_c, 0, 78, 0
2, 21937, Note_on_c, 0, 60, 0
2, 21948, Note_on_c, 0, 61, 54
2, 21949, Note_on_c, 0, 76, 69
2, 22143, Note_on_c, 0, 78, 69
2, 22149, Note_on_c, 0, 61, 0
2, 22152, Note_on_c, 0, 76, 0
2, 22156, Note_on_c, 0, 63, 55
2, 22329, Note_on_c, 0, 75, 63
2, 22369, Note_on_c, 0, 78, 0
2, 22503, Note_on_c, 0, 61, 49
2, 22524, Note_on_c, 0, 76, 65
2, 22538, Note_on_c, 0, 63, 0
2, 22541, Note_on_c, 0, 75, 0
2, 22718, Note_on_c, 0, 75, 59
2, 22914, Note_on_c, 0, 73, 61
2, 23060, Note_on_c, 0, 75, 0
2, 23061, Note_on_c, 0, 51, 43
2, 23069, Note_on_c, 0, 73, 0
2, 23088, Note_on_c, 0, 72, 60
2, 23127, Note_on_c, 0, 49, 0
2, 23230, Note_on_c, 0, 51, 0
2, 23252, Note_on_c, 0, 72, 0
2, 23259, Note_on_c, 0, 52, 48
2, 23268, Note_on_c, 0, 73, 64
2, 23456, Note_on_c, 0, 70, 57
2, 23576, Note_on_c, 0, 61, 0
2, 23609, Note_on_c, 0, 52, 0
2, 23621, Note_on_c, 0, 70, 0
2, 23638, Note_on_c, 0, 73, 0
2, 23640, Note_on_c, 0, 68, 54
2, 23641, Note_on_c, 0, 46, 49
2, 23703, Note_on_c, 0, 68, 0
2, 23729, Note_on_c, 0, 67, 56
2, 23816, Note_on_c, 0, 46, 0
2, 23823, Note_on_c, 0, 51, 51
2, 24007, Note_on_c, 0, 49, 62
2, 24047, Note_on_c, 0, 51, 0
2, 24155, Control_c, 0, 64, 27
2, 24170, Control_c, 0, 64, 65
2, 24175, Note_on_c, 0, 47, 58
2, 24181, Note_on_c, 0, 75, 57
2, 24187, Note_on_c, 0, 49, 0
2, 24188, Control_c, 0, 64, 73
2, 24189, Note_on_c, 0, 68, 66
2, 24199, Note_on_c, 0, 67, 0
2, 24202, Control_c, 0, 64, 79
2, 24209, Note_on_c, 0, 76, 0
2, 24218, Control_c, 0, 64, 81
2, 24230, Note_on_c, 0, 68, 0
2, 24303, Control_c, 0, 64, 81
2, 24318, Control_c, 0, 64, 79
2, 24334, Control_c, 0, 64, 75
2, 24349, Control_c, 0, 64, 68
2, 24356, Note_on_c, 0, 47, 0
2, 24359, Note_on_c, 0, 75, 0
2, 24363, Control_c, 0, 64, 50
2, 24373, Note_on_c, 0, 49, 55
2, 24374, Note_on_c, 0, 70, 68
2, 24379, Control_c, 0, 64, 0
2, 24444, Note_on_c, 0, 68, 65
2, 24464, Note_on_c, 0, 70, 0
2, 24472, Note_on_c, 0, 73, 58
2, 24517, Note_on_c, 0, 68, 0
2, 24542, Note_on_c, 0, 46, 61
2, 24550, Note_on_c, 0, 49, 0
2, 24622, Control_c, 0, 64, 57
2, 24637, Control_c, 0, 64, 67
2, 24652, Control_c, 0, 64, 74
2, 24667, Control_c, 0, 64, 81
2, 24682, Control_c, 0, 64, 86
2, 24694, Note_on_c, 0, 73, 0
2, 24698, Control_c, 0, 64, 87
2, 24713, Control_c, 0, 64, 88
2, 24729, Control_c, 0, 64, 88
2, 24744, Control_c, 0, 64, 89
2, 24756, Note_on_c, 0, 46, 0
2, 24756, Note_on_c, 0, 73, 65
2, 24763, Note_on_c, 0, 43, 48
2, 24776, Note_on_c, 0, 63, 57
2, 24820, Control_c, 0, 64, 88
2, 24834, Control_c, 0, 64, 87
2, 24850, Control_c, 0, 64, 84
2, 24865, Control_c, 0, 64, 77
2, 24879, Control_c, 0, 64, 68
2, 24895, Control_c, 0, 64, 37
2, 24910, Control_c, 0, 64, 0
2, 24925, Note_on_c, 0, 43, 0
2, 24937, Note_on_c, 0, 47, 56
2, 25139, Note_on_c, 0, 46, 53
2, 25173, Note_on_c, 0, 63, 0
2, 25233, Note_on_c, 0, 47, 0
2, 25317, Note_on_c, 0, 44, 47
2, 25324, Note_on_c, 0, 46, 0
2, 25332, Note_on_c, 0, 65, 52
2, 25343, Note_on_c, 0, 71, 47
2, 25471, Note_on_c, 0, 65, 0
2, 25496, Note_on_c, 0, 44, 0
2, 25503, Note_on_c, 0, 46, 45
2, 25513, Note_on_c, 0, 67, 62
2, 25524, Note_on_c, 0, 71, 0
2, 25551, Note_on_c, 0, 67, 0
2, 25584, Note_on_c, 0, 65, 56
2, 25584, Note_on_c, 0, 70, 44
2, 25614, Note_on_c, 0, 65, 0
2, 25650, Note_on_c, 0, 73, 0
2, 25653, Note_on_c, 0, 67, 57
2, 25672, Note_on_c, 0, 43, 41
2, 25716, Note_on_c, 0, 46, 0
2, 25897, Note_on_c, 0, 37, 42
2, 25926, Note_on_c, 0, 43, 0
2, 26086, Note_on_c, 0, 68, 60
2, 26098, Note_on_c, 0, 67, 0
2, 26285, Note_on_c, 0, 67, 65
2, 26321, Note_on_c, 0, 68, 0
2, 26458, Note_on_c, 0, 65, 67
2, 26468, Note_on_c, 0, 67, 0
2, 26606, Control_c, 0, 64, 29
2, 26622, Control_c, 0, 64, 64
2, 26635, Note_on_c, 0, 65, 0
2, 26637, Control_c, 0, 64, 69
2, 26645, Note_on_c, 0, 67, 71
2, 26652, Control_c, 0, 64, 72
2, 26660, Note_on_c, 0, 70, 0
2, 26667, Control_c, 0, 64, 73
2, 26772, Note_on_c, 0, 67, 0
2, 26803, Note_on_c, 0, 63, 56
2, 26804, Control_c, 0, 64, 72
2, 26820, Control_c, 0, 64, 70
2, 26835, Control_c, 0, 64, 66
2, 26849, Note_on_c, 0, 37, 0
2, 26851, Control_c, 0, 64, 51
2, 26866, Control_c, 0, 64, 0
2, 26869, Note_on_c, 0, 67, 64
2, 26878, Note_on_c, 0, 63, 0
2, 26906, Note_on_c, 0, 70, 68
2, 26984, Note_on_c, 0, 75, 68
2, 27175, Note_on_c, 0, 49, 44
2, 27347, Note_on_c, 0, 49, 0
2, 27351, Note_on_c, 0, 47, 52
2, 27515, Note_on_c, 0, 47, 0
2, 27520, Note_on_c, 0, 46, 55
2, 27690, Note_on_c, 0, 46, 0
2, 27709, Note_on_c, 0, 67, 0
2, 27714, Note_on_c, 0, 47, 50
2, 27715, Note_on_c, 0, 68, 58
2, 27743, Note_on_c, 0, 70, 0
2, 27860, Control_c, 0, 64, 62
2, 27875, Control_c, 0, 64, 69
2, 27877, Note_on_c, 0, 47, 0
2, 27891, Control_c, 0, 64, 74
2, 27893, Note_on_c, 0, 44, 53
2, 27906, Control_c, 0, 64, 79
2, 27921, Control_c, 0, 64, 81
2, 27926, Note_on_c, 0, 44, 0
2, 28012, Control_c, 0, 64, 81
2, 28058, Control_c, 0, 64, 81
2, 28087, Note_on_c, 0, 52, 57
2, 28089, Control_c, 0, 64, 78
2, 28104, Control_c, 0, 64, 71
2, 28118, Control_c, 0, 64, 57
2, 28141, Control_c, 0, 64, 0
2, 28149, Note_on_c, 0, 52, 0
2, 28170, Note_on_c, 0, 51, 59
2, 28228, Note_on_c, 0, 51, 0
2, 28265, Note_on_c, 0, 72, 54
2, 28273, Note_on_c, 0, 52, 50
2, 28275, Note_on_c, 0, 75, 0
2, 28455, Note_on_c, 0, 72, 0
2, 28455, Note_on_c, 0, 73, 62
2, 28629, Note_on_c, 0, 51, 47
2, 28644, Note_on_c, 0, 75, 66
2, 28649, Note_on_c, 0, 73, 0
2, 28673, Note_on_c, 0, 52, 0
2, 28830, Note_on_c, 0, 51, 0
2, 28833, Note_on_c, 0, 75, 0
2, 28834, Note_on_c, 0, 49, 46
2, 28840, Note_on_c, 0, 76, 65
2, 29052, Note_on_c, 0, 75, 58
2, 29061, Note_on_c, 0, 76, 0
2, 29253, Note_on_c, 0, 73, 54
2, 29266, Note_on_c, 0, 75, 0
2, 29269, Note_on_c, 0, 51, 34
2, 29317, Note_on_c, 0, 49, 0
2, 29350, Note_on_c, 0, 73, 0
2, 29367, Note_on_c, 0, 71, 47
2, 29723, Control_c, 0, 64, 42
2, 29739, Control_c, 0, 64, 63
2, 29753, Control_c, 0, 64, 67
2, 29769, Control_c, 0, 64, 71
2, 29784, Control_c, 0, 64, 74
2, 29798, Control_c, 0, 64, 77
2, 29814, Control_c, 0, 64, 80
2, 29829, Control_c, 0, 64, 82
2, 29841, Note_on_c, 0, 71, 0
2, 29844, Control_c, 0, 64, 84
2, 29860, Control_c, 0, 64, 87
2, 29866, Note_on_c, 0, 68, 0
2, 29874, Control_c, 0, 64, 89
2, 29890, Control_c, 0, 64, 90
2, 29905, Control_c, 0, 64, 91
2, 29912, Note_on_c, 0, 73, 56
2, 29936, Control_c, 0, 64, 91
2, 30028, Control_c, 0, 64, 91
2, 30073, Control_c, 0, 64, 90
2, 30089, Control_c, 0, 64, 89
2, 30104, Control_c, 0, 64, 87
2, 30118, Control_c, 0, 64, 84
2, 30134, Control_c, 0, 64, 80
2, 30149, Control_c, 0, 64, 74
2, 30164, Control_c, 0, 64, 64
2, 30180, Control_c, 0, 64, 0
2, 30183, Note_on_c, 0, 71, 40
2, 30192, Note_on_c, 0, 73, 0
2, 30196, Note_on_c, 0, 39, 25
2, 30214, Note_on_c, 0, 67, 37
2, 30251, Note_on_c, 0, 71, 0
2, 30252, Note_on_c, 0, 70, 56
2, 30288, Note_on_c, 0, 70, 0
2, 30317, Note_on_c, 0, 68, 45
2, 30377, Note_on_c, 0, 68, 0
2, 30383, Note_on_c, 0, 70, 58
2, 30443, Control_c, 0, 64, 64
2, 30444, Note_on_c, 0, 67, 0
2, 30459, Control_c, 0, 64, 72
2, 30474, Control_c, 0, 64, 80
2, 30489, Control_c, 0, 64, 86
2, 30493, Note_on_c, 0, 70, 0
2, 30505, Control_c, 0, 64, 90
2, 30519, Control_c, 0, 64, 95
2, 30534, Control_c, 0, 64, 100
2, 30550, Control_c, 0, 64, 106
2, 30564, Control_c, 0, 64, 110
2, 30580, Control_c, 0, 64, 113
2, 30595, Control_c, 0, 64, 114
2, 30600, Note_on_c, 0, 39, 0
2, 30610, Control_c, 0, 64, 115
2, 30746, Note_on_c, 0, 59, 49
2, 30747, Control_c, 0, 64, 114
2, 30752, Note_on_c, 0, 44, 33
2, 30762, Control_c, 0, 64, 114
2, 30767, Note_on_c, 0, 51, 0
2, 30777, Control_c, 0, 64, 112
2, 30792, Control_c, 0, 64, 109
2, 30800, Note_on_c, 0, 61, 50
2, 30807, Control_c, 0, 64, 105
2, 30824, Control_c, 0, 64, 100
2, 30839, Control_c, 0, 64, 93
2, 30840, Note_on_c, 0, 63, 63
2, 30854, Control_c, 0, 64, 86
2, 30860, Note_on_c, 0, 61, 0
2, 30869, Control_c, 0, 64, 78
2, 30884, Control_c, 0, 64, 67
2, 30900, Control_c, 0, 64, 0
2, 30920, Note_on_c, 0, 68, 56
2, 30928, Note_on_c, 0, 49, 44
2, 31133, Note_on_c, 0, 47, 45
2, 31141, Note_on_c, 0, 49, 0
2, 31297, Note_on_c, 0, 47, 0
2, 31300, Note_on_c, 0, 46, 54
2, 31473, Note_on_c, 0, 46, 0
2, 31492, Note_on_c, 0, 47, 58
2, 31502, Note_on_c, 0, 44, 0
2, 31661, Note_on_c, 0, 47, 0
2, 31674, Note_on_c, 0, 44, 50
2, 31862, Note_on_c, 0, 47, 51
2, 32027, Note_on_c, 0, 47, 0
2, 32036, Note_on_c, 0, 51, 56
2, 32088, Note_on_c, 0, 59, 0
2, 32223, Note_on_c, 0, 56, 54
2, 32225, Note_on_c, 0, 51, 0
2, 32238, Note_on_c, 0, 63, 0
2, 32253, Control_c, 0, 64, 23
2, 32263, Note_on_c, 0, 68, 0
2, 32268, Control_c, 0, 64, 60
2, 32283, Control_c, 0, 64, 66
2, 32299, Control_c, 0, 64, 69
2, 32314, Control_c, 0, 64, 74
2, 32329, Control_c, 0, 64, 77
2, 32344, Control_c, 0, 64, 80
2, 32359, Control_c, 0, 64, 81
2, 32374, Control_c, 0, 64, 81
2, 32394, Note_on_c, 0, 56, 0
2, 32402, Note_on_c, 0, 52, 57
2, 32497, Control_c, 0, 64, 81
2, 32512, Control_c, 0, 64, 79
2, 32527, Control_c, 0, 64, 77
2, 32543, Control_c, 0, 64, 73
2, 32557, Control_c, 0, 64, 67
2, 32572, Control_c, 0, 64, 48
2, 32577, Note_on_c, 0, 71, 54
2, 32588, Control_c, 0, 64, 0
2, 32596, Note_on_c, 0, 54, 49
2, 32598, Note_on_c, 0, 52, 0
2, 32619, Note_on_c, 0, 71, 0
2, 32635, Note_on_c, 0, 70, 60
2, 32638, Note_on_c, 0, 44, 0
2, 32696, Note_on_c, 0, 70, 0
2, 32703, Note_on_c, 0, 71, 54
2, 32762, Note_on_c, 0, 51, 57
2, 32774, Note_on_c, 0, 54, 0
2, 32944, Note_on_c, 0, 49, 54
2, 32957, Note_on_c, 0, 52, 50
2, 32960, Note_on_c, 0, 51, 0
2, 33112, Note_on_c, 0, 49, 0
2, 33119, Note_on_c, 0, 51, 48
2, 33139, Note_on_c, 0, 68, 64
2, 33145, Note_on_c, 0, 71, 0
2, 33301, Note_on_c, 0, 51, 0
2, 33305, Note_on_c, 0, 49, 55
2, 33320, Note_on_c, 0, 70, 71
2, 33372, Note_on_c, 0, 68, 0
2, 33475, Note_on_c, 0, 49, 0
2, 33488, Note_on_c, 0, 47, 50
2, 33501, Note_on_c, 0, 73, 72
2, 33534, Note_on_c, 0, 70, 0
2, 33632, Note_on_c, 0, 47, 0
2, 33690, Note_on_c, 0, 49, 47
2, 33698, Note_on_c, 0, 76, 69
2, 33776, Note_on_c, 0, 73, 0
2, 33828, Note_on_c, 0, 52, 0
2, 33841, Note_on_c, 0, 49, 0
2, 33865, Note_on_c, 0, 46, 51
2, 34041, Note_on_c, 0, 54, 52
2, 34079, Note_on_c, 0, 54, 0
2, 34100, Note_on_c, 0, 52, 54
2, 34144, Note_on_c, 0, 52, 0
2, 34169, Note_on_c, 0, 54, 59
2, 34246, Note_on_c, 0, 75, 64
2, 34248, Note_on_c, 0, 76, 0
2, 34432, Note_on_c, 0, 76, 71
2, 34593, Note_on_c, 0, 54, 0
2, 34606, Note_on_c, 0, 56, 62
2, 34607, Note_on_c, 0, 80, 74
2, 34641, Note_on_c, 0, 76, 0
2, 34645, Note_on_c, 0, 46, 0
2, 34647, Note_on_c, 0, 75, 0
2, 34810, Note_on_c, 0, 58, 59
2, 34828, Note_on_c, 0, 78, 72
2, 34842, Note_on_c, 0, 56, 0
2, 34919, Note_on_c, 0, 80, 0
2, 35183, Note_on_c, 0, 58, 0
2, 35189, Note_on_c, 0, 59, 54
2, 35203, Note_on_c, 0, 75, 63
2, 35216, Note_on_c, 0, 78, 0
2, 35267, Note_on_c, 0, 59, 0
2, 35275, Note_on_c, 0, 58, 61
2, 35358, Note_on_c, 0, 58, 0
2, 35372, Note_on_c, 0, 59, 53
2, 35388, Note_on_c, 0, 73, 53
2, 35547, Note_on_c, 0, 73, 0
2, 35579, Note_on_c, 0, 71, 55
2, 35748, Note_on_c, 0, 71, 0
2, 35751, Note_on_c, 0, 70, 56
2, 35957, Note_on_c, 0, 71, 54
2, 35966, Note_on_c, 0, 70, 0
2, 36148, Note_on_c, 0, 66, 49
2, 36338, Note_on_c, 0, 59, 0
2, 36348, Note_on_c, 0, 63, 32
2, 36529, Note_on_c, 0, 59, 49
2, 36727, Note_on_c, 0, 57, 50
2, 36779, Note_on_c, 0, 59, 0
2, 36909, Note_on_c, 0, 56, 50
2, 36910, Note_on_c, 0, 57, 0
2, 37065, Note_on_c, 0, 71, 0
2, 37088, Note_on_c, 0, 73, 63
2, 37094, Note_on_c, 0, 57, 49
2, 37101, Note_on_c, 0, 56, 0
2, 37122, Note_on_c, 0, 63, 0
2, 37266, Note_on_c, 0, 57, 0
2, 37270, Note_on_c, 0, 54, 51
2, 37464, Note_on_c, 0, 51, 53
2, 37480, Note_on_c, 0, 54, 0
2, 37561, Note_on_c, 0, 66, 0
2, 37619, Note_on_c, 0, 51, 0
2, 37645, Note_on_c, 0, 70, 64
2, 37649, Note_on_c, 0, 52, 56
2, 37809, Note_on_c, 0, 75, 0
2, 37814, Note_on_c, 0, 70, 0
2, 37817, Note_on_c, 0, 73, 0
2, 37825, Note_on_c, 0, 51, 57
2, 37831, Note_on_c, 0, 72, 67
2, 37850, Note_on_c, 0, 52, 0
2, 38000, Note_on_c, 0, 49, 58
2, 38011, Note_on_c, 0, 75, 67
2, 38020, Note_on_c, 0, 51, 0
2, 38039, Note_on_c, 0, 72, 0
2, 38195, Note_on_c, 0, 51, 59
2, 38201, Note_on_c, 0, 78, 77
2, 38235, Note_on_c, 0, 49, 0
2, 38258, Note_on_c, 0, 75, 0
2, 38381, Note_on_c, 0, 48, 57
2, 38392, Note_on_c, 0, 80, 76
2, 38419, Note_on_c, 0, 78, 0
2, 38577, Note_on_c, 0, 44, 58
2, 38590, Note_on_c, 0, 48, 0
2, 38592, Note_on_c, 0, 81, 70
2, 38642, Note_on_c, 0, 80, 0
2, 38796, Note_on_c, 0, 80, 72
2, 38885, Note_on_c, 0, 81, 0
2, 38977, Note_on_c, 0, 78, 74
2, 39027, Note_on_c, 0, 80, 0
2, 39140, Note_on_c, 0, 78, 0
2, 39152, Note_on_c, 0, 46, 53
2, 39156, Note_on_c, 0, 76, 66
2, 39186, Note_on_c, 0, 44, 0
2, 39336, Note_on_c, 0, 48, 49
2, 39345, Note_on_c, 0, 78, 69
2, 39359, Note_on_c, 0, 76, 0
2, 39364, Note_on_c, 0, 46, 0
2, 39528, Note_on_c, 0, 75, 64
2, 39539, Note_on_c, 0, 78, 0
2, 39714, Note_on_c, 0, 49, 48
2, 39729, Note_on_c, 0, 76, 64
2, 39740, Note_on_c, 0, 75, 0
2, 39767, Note_on_c, 0, 48, 0
2, 39771, Note_on_c, 0, 51, 0
2, 39911, Note_on_c, 0, 75, 52
2, 40090, Note_on_c, 0, 73, 57
2, 40254, Note_on_c, 0, 73, 0
2, 40259, Note_on_c, 0, 75, 0
2, 40275, Note_on_c, 0, 72, 57
2, 40444, Note_on_c, 0, 72, 0
2, 40472, Note_on_c, 0, 73, 55
2, 40671, Note_on_c, 0, 68, 47
2, 40859, Note_on_c, 0, 64, 48
2, 41032, Note_on_c, 0, 51, 44
2, 41081, Note_on_c, 0, 49, 0
2, 41230, Note_on_c, 0, 51, 0
2, 41244, Note_on_c, 0, 52, 56
2, 41421, Note_on_c, 0, 52, 0
2, 41421, Note_on_c, 0, 54, 59
2, 41613, Note_on_c, 0, 56, 65
2, 41642, Note_on_c, 0, 54, 0
2, 41713, Note_on_c, 0, 64, 0
2, 41794, Note_on_c, 0, 57, 65
2, 41807, Note_on_c, 0, 68, 0
2, 41823, Note_on_c, 0, 56, 0
2, 41850, Note_on_c, 0, 73, 0
2, 41859, Note_on_c, 0, 76, 0
2, 41997, Note_on_c, 0, 59, 64
2, 42026, Note_on_c, 0, 57, 0
2, 42174, Note_on_c, 0, 74, 61
2, 42369, Note_on_c, 0, 77, 72
2, 42441, Note_on_c, 0, 74, 0
2, 42531, Note_on_c, 0, 61, 61
2, 42549, Note_on_c, 0, 80, 75
2, 42553, Note_on_c, 0, 59, 0
2, 42647, Note_on_c, 0, 77, 0
2, 42744, Note_on_c, 0, 62, 60
2, 42758, Note_on_c, 0, 83, 70
2, 42771, Note_on_c, 0, 61, 0
2, 42826, Note_on_c, 0, 80, 0
2, 42933, Note_on_c, 0, 59, 57
2, 43128, Note_on_c, 0, 53, 55
2, 43148, Note_on_c, 0, 59, 0
2, 43300, Note_on_c, 0, 83, 0
2, 43318, Note_on_c, 0, 74, 54
2, 43511, Note_on_c, 0, 73, 66
2, 43512, Note_on_c, 0, 56, 46
2, 43525, Note_on_c, 0, 74, 0
2, 43548, Note_on_c, 0, 62, 0
2, 43694, Note_on_c, 0, 71, 67
2, 43736, Note_on_c, 0, 73, 0
2, 43872, Note_on_c, 0, 56, 0
2, 43876, Note_on_c, 0, 61, 49
2, 43878, Note_on_c, 0, 71, 0
2, 43880, Note_on_c, 0, 69, 64
2, 44070, Note_on_c, 0, 68, 62
2, 44117, Note_on_c, 0, 69, 0
2, 44199, Note_on_c, 0, 53, 0
2, 44223, Note_on_c, 0, 68, 0
2, 44240, Note_on_c, 0, 54, 44
2, 44264, Note_on_c, 0, 69, 53
2, 44303, Note_on_c, 0, 69, 0
2, 44315, Note_on_c, 0, 68, 63
2, 44358, Note_on_c, 0, 68, 0
2, 44367, Note_on_c, 0, 61, 0
2, 44399, Note_on_c, 0, 69, 56
2, 44434, Note_on_c, 0, 59, 32
2, 44590, Note_on_c, 0, 59, 0
2, 44591, Note_on_c, 0, 57, 55
2, 44766, Note_on_c, 0, 56, 65
2, 44770, Note_on_c, 0, 57, 0
2, 44949, Note_on_c, 0, 57, 64
2, 44958, Note_on_c, 0, 56, 0
2, 44961, Note_on_c, 0, 54, 0
2, 45144, Note_on_c, 0, 54, 57
2, 45148, Note_on_c, 0, 57, 0
2, 45351, Note_on_c, 0, 66, 68
2, 45521, Note_on_c, 0, 69, 0
2, 45522, Note_on_c, 0, 68, 55
2, 45703, Note_on_c, 0, 68, 0
2, 45707, Note_on_c, 0, 69, 59
2, 45892, Note_on_c, 0, 66, 0
2, 45898, Note_on_c, 0, 64, 48
2, 45903, Note_on_c, 0, 73, 54
2, 45944, Note_on_c, 0, 69, 0
2, 46073, Note_on_c, 0, 63, 56
2, 46074, Note_on_c, 0, 64, 0
2, 46089, Note_on_c, 0, 78, 66
2, 46188, Note_on_c, 0, 73, 0
2, 46270, Note_on_c, 0, 61, 65
2, 46331, Note_on_c, 0, 63, 0
2, 46468, Note_on_c, 0, 59, 57
2, 46480, Note_on_c, 0, 56, 52
2, 46489, Note_on_c, 0, 61, 0
2, 46521, Note_on_c, 0, 54, 0
2, 46678, Note_on_c, 0, 76, 56
2, 46853, Note_on_c, 0, 76, 0
2, 46857, Note_on_c, 0, 75, 60
2, 46972, Note_on_c, 0, 78, 0
2, 47021, Note_on_c, 0, 59, 0
2, 47035, Note_on_c, 0, 57, 48
2, 47037, Note_on_c, 0, 61, 52
2, 47051, Note_on_c, 0, 73, 58
2, 47053, Note_on_c, 0, 75, 0
2, 47071, Note_on_c, 0, 56, 0
2, 47235, Note_on_c, 0, 57, 0
2, 47241, Note_on_c, 0, 59, 59
2, 47244, Note_on_c, 0, 63, 56
2, 47248, Note_on_c, 0, 73, 0
2, 47251, Note_on_c, 0, 71, 57
2, 47272, Note_on_c, 0, 61, 0
2, 47426, Note_on_c, 0, 69, 58
2, 47435, Note_on_c, 0, 71, 0
2, 47480, Note_on_c, 0, 69, 0
2, 47623, Note_on_c, 0, 69, 54
2, 47644, Note_on_c, 0, 52, 39
2, 47667, Note_on_c, 0, 59, 0
2, 47704, Note_on_c, 0, 68, 62
2, 47706, Note_on_c, 0, 69, 0
2, 47777, Note_on_c, 0, 68, 0
2, 47795, Note_on_c, 0, 66, 55
2, 47991, Note_on_c, 0, 68, 60
2, 48024, Note_on_c, 0, 66, 0
2, 48165, Note_on_c, 0, 68, 0
2, 48178, Note_on_c, 0, 56, 56
2, 48189, Note_on_c, 0, 71, 62
2, 48195, Note_on_c, 0, 63, 0
2, 48325, Note_on_c, 0, 56, 0
2, 48371, Note_on_c, 0, 71, 0
2, 48372, Note_on_c, 0, 61, 56
2, 48377, Note_on_c, 0, 76, 62
2, 48525, Note_on_c, 0, 61, 0
2, 48532, Note_on_c, 0, 60, 60
2, 48694, Note_on_c, 0, 60, 0
2, 48728, Note_on_c, 0, 61, 59
2, 48761, Note_on_c, 0, 61, 0
2, 48783, Note_on_c, 0, 59, 69
2, 48831, Note_on_c, 0, 59, 0
2, 48846, Note_on_c, 0, 61, 62
2, 48950, Note_on_c, 0, 75, 59
2, 49053, Note_on_c, 0, 76, 0
2, 49144, Note_on_c, 0, 73, 64
2, 49228, Note_on_c, 0, 75, 0
2, 49283, Note_on_c, 0, 52, 0
2, 49305, Note_on_c, 0, 51, 38
2, 49312, Note_on_c, 0, 71, 60
2, 49337, Note_on_c, 0, 73, 0
2, 49496, Note_on_c, 0, 69, 62
2, 49498, Note_on_c, 0, 49, 44
2, 49500, Note_on_c, 0, 71, 0
2, 49516, Note_on_c, 0, 51, 0
2, 49678, Note_on_c, 0, 68, 62
2, 49684, Note_on_c, 0, 69, 0
2, 49712, Note_on_c, 0, 68, 0
2, 49864, Note_on_c, 0, 51, 46
2, 49875, Note_on_c, 0, 68, 56
2, 49896, Note_on_c, 0, 49, 0
2, 49941, Note_on_c, 0, 68, 0
2, 49959, Note_on_c, 0, 66, 61
2, 50019, Note_on_c, 0, 66, 0
2, 50040, Note_on_c, 0, 64, 55
2, 50221, Note_on_c, 0, 66, 67
2, 50279, Note_on_c, 0, 64, 0
2, 50415, Note_on_c, 0, 69, 70
2, 50416, Note_on_c, 0, 60, 49
2, 50428, Note_on_c, 0, 61, 0
2, 50442, Note_on_c, 0, 66, 0
2, 50600, Note_on_c, 0, 60, 0
2, 50604, Note_on_c, 0, 61, 50
2, 50612, Note_on_c, 0, 75, 69
2, 50634, Note_on_c, 0, 69, 0
2, 50792, Note_on_c, 0, 58, 60
2, 50806, Note_on_c, 0, 61, 0
2, 50883, Note_on_c, 0, 51, 0
2, 50968, Note_on_c, 0, 58, 0
2, 50988, Note_on_c, 0, 56, 50
2, 50990, Note_on_c, 0, 60, 62
2, 51038, Note_on_c, 0, 60, 0
2, 51066, Note_on_c, 0, 58, 59
2, 51108, Note_on_c, 0, 58, 0
2, 51148, Note_on_c, 0, 60, 53
2, 51179, Note_on_c, 0, 73, 53
2, 51328, Note_on_c, 0, 75, 0
2, 51370, Note_on_c, 0, 72, 60
2, 51374, Note_on_c, 0, 73, 0
2, 51510, Note_on_c, 0, 60, 0
2, 51532, Note_on_c, 0, 58, 50
2, 51534, Note_on_c, 0, 61, 40
2, 51543, Note_on_c, 0, 72, 0
2, 51548, Note_on_c, 0, 70, 64
2, 51703, Note_on_c, 0, 61, 0
2, 51722, Note_on_c, 0, 63, 34
2, 51732, Note_on_c, 0, 60, 46
2, 51741, Note_on_c, 0, 68, 65
2, 51746, Note_on_c, 0, 56, 0
2, 51755, Note_on_c, 0, 70, 0
2, 51781, Note_on_c, 0, 58, 0
2, 51914, Note_on_c, 0, 66, 62
2, 51917, Note_on_c, 0, 68, 0
2, 51984, Note_on_c, 0, 66, 0
2, 52084, Note_on_c, 0, 61, 44
2, 52091, Note_on_c, 0, 63, 0
2, 52109, Note_on_c, 0, 66, 53
2, 52155, Note_on_c, 0, 60, 0
2, 52180, Note_on_c, 0, 66, 0
2, 52209, Note_on_c, 0, 64, 54
2, 52305, Note_on_c, 0, 64, 0
2, 52318, Note_on_c, 0, 63, 48
2, 52458, Note_on_c, 0, 63, 0
2, 52480, Note_on_c, 0, 64, 45
2, 52654, Note_on_c, 0, 64, 0
2, 52659, Note_on_c, 0, 68, 51
2, 52665, Note_on_c, 0, 59, 39
2, 52721, Note_on_c, 0, 61, 0
2, 52862, Note_on_c, 0, 73, 60
2, 52874, Note_on_c, 0, 57, 31
2, 52900, Note_on_c, 0, 59, 0
2, 52941, Note_on_c, 0, 68, 0
2, 53044, Note_on_c, 0, 56, 50
2, 53055, Note_on_c, 0, 57, 0
2, 53230, Note_on_c, 0, 54, 50
2, 53234, Note_on_c, 0, 56, 0
2, 53234, Note_on_c, 0, 57, 51
2, 53428, Note_on_c, 0, 71, 55
2, 53577, Note_on_c, 0, 73, 0
2, 53625, Note_on_c, 0, 69, 69
2, 53638, Note_on_c, 0, 71, 0
2, 53794, Note_on_c, 0, 57, 0
2, 53799, Note_on_c, 0, 59, 52
2, 53800, Note_on_c, 0, 68, 66
2, 53805, Note_on_c, 0, 69, 0
2, 53977, Note_on_c, 0, 61, 67
2, 53983, Note_on_c, 0, 59, 0
2, 53991, Note_on_c, 0, 69, 69
2, 54002, Note_on_c, 0, 68, 0
2, 54124, Note_on_c, 0, 69, 0
2, 54132, Control_c, 0, 64, 10
2, 54147, Control_c, 0, 64, 0
2, 54165, Note_on_c, 0, 66, 71
2, 54205, Note_on_c, 0, 61, 0
2, 54366, Note_on_c, 0, 78, 72
2, 54367, Note_on_c, 0, 62, 55
2, 54384, Note_on_c, 0, 66, 0
2, 54421, Note_on_c, 0, 62, 0
2, 54445, Note_on_c, 0, 61, 61
2, 54513, Note_on_c, 0, 61, 0
2, 54528, Note_on_c, 0, 76, 62
2, 54539, Note_on_c, 0, 62, 56
2, 54565, Note_on_c, 0, 78, 0
2, 54730, Note_on_c, 0, 74, 70
2, 54781, Note_on_c, 0, 76, 0
2, 54912, Note_on_c, 0, 52, 58
2, 54919, Note_on_c, 0, 73, 72
2, 54924, Note_on_c, 0, 74, 0
2, 54925, Note_on_c, 0, 54, 0
2, 55114, Note_on_c, 0, 52, 0
2, 55119, Note_on_c, 0, 74, 68
2, 55130, Note_on_c, 0, 54, 53
2, 55135, Note_on_c, 0, 73, 0
2, 55280, Note_on_c, 0, 74, 0
2, 55297, Note_on_c, 0, 69, 75
2, 55480, Note_on_c, 0, 69, 0
2, 55485, Note_on_c, 0, 51, 46
2, 55494, Note_on_c, 0, 81, 72
2, 55500, Note_on_c, 0, 60, 50
2, 55504, Note_on_c, 0, 62, 0
2, 55529, Note_on_c, 0, 54, 0
2, 55690, Note_on_c, 0, 80, 76
2, 55789, Note_on_c, 0, 81, 0
2, 55872, Note_on_c, 0, 78, 78
2, 55933, Note_on_c, 0, 80, 0
2, 56049, Note_on_c, 0, 76, 75
2, 56050, Note_on_c, 0, 54, 56
2, 56096, Note_on_c, 0, 51, 0
2, 56099, Note_on_c, 0, 78, 0
2, 56238, Note_on_c, 0, 78, 77
2, 56241, Note_on_c, 0, 57, 61
2, 56281, Note_on_c, 0, 54, 0
2, 56301, Note_on_c, 0, 76, 0
2, 56314, Note_on_c, 0, 60, 0
2, 56420, Note_on_c, 0, 75, 82
2, 56453, Note_on_c, 0, 78, 0
2, 56614, Note_on_c, 0, 84, 79
2, 56619, Note_on_c, 0, 57, 0
2, 56625, Note_on_c, 0, 66, 62
2, 56687, Note_on_c, 0, 75, 0
2, 56806, Note_on_c, 0, 56, 61
2, 56983, Note_on_c, 0, 54, 66
2, 57005, Note_on_c, 0, 56, 0
2, 57169, Note_on_c, 0, 52, 66
2, 57177, Note_on_c, 0, 54, 0
2, 57340, Note_on_c, 0, 52, 0
2, 57347, Note_on_c, 0, 66, 0
2, 57353, Note_on_c, 0, 54, 59
2, 57358, Note_on_c, 0, 80, 73
2, 57442, Note_on_c, 0, 84, 0
2, 57513, Note_on_c, 0, 80, 0
2, 57537, Note_on_c, 0, 51, 60
2, 57543, Note_on_c, 0, 54, 0
2, 57718, Note_on_c, 0, 51, 0
2, 57724, Note_on_c, 0, 80, 78
2, 57733, Note_on_c, 0, 52, 53
2, 57918, Note_on_c, 0, 51, 55
2, 57922, Note_on_c, 0, 52, 0
2, 58104, Note_on_c, 0, 51, 0
2, 58107, Note_on_c, 0, 49, 52
2, 58282, Note_on_c, 0, 76, 67
2, 58285, Note_on_c, 0, 47, 57
2, 58303, Note_on_c, 0, 49, 0
2, 58467, Note_on_c, 0, 72, 68
2, 58474, Note_on_c, 0, 49, 46
2, 58478, Note_on_c, 0, 76, 0
2, 58481, Note_on_c, 0, 47, 0
2, 58643, Note_on_c, 0, 45, 57
2, 58658, Note_on_c, 0, 49, 0
2, 58700, Note_on_c, 0, 45, 0
2, 58826, Note_on_c, 0, 57, 51
2, 58837, Note_on_c, 0, 73, 56
2, 58892, Note_on_c, 0, 57, 0
2, 58913, Note_on_c, 0, 56, 57
2, 58969, Note_on_c, 0, 72, 0
2, 58982, Note_on_c, 0, 56, 0
2, 59005, Note_on_c, 0, 78, 63
2, 59011, Note_on_c, 0, 57, 54
2, 59053, Note_on_c, 0, 73, 0
2, 59191, Note_on_c, 0, 76, 63
2, 59199, Note_on_c, 0, 80, 0
2, 59240, Note_on_c, 0, 78, 0
2, 59367, Note_on_c, 0, 76, 0
2, 59379, Note_on_c, 0, 75, 61
2, 59557, Note_on_c, 0, 76, 64
2, 59560, Note_on_c, 0, 75, 0
2, 59724, Note_on_c, 0, 76, 0
2, 59752, Note_on_c, 0, 73, 62
2, 59942, Note_on_c, 0, 78, 72
2, 60051, Note_on_c, 0, 73, 0
2, 60108, Note_on_c, 0, 56, 51
2, 60160, Note_on_c, 0, 57, 0
2, 60297, Note_on_c, 0, 54, 60
2, 60303, Note_on_c, 0, 56, 0
2, 60478, Note_on_c, 0, 72, 66
2, 60481, Note_on_c, 0, 52, 56
2, 60490, Note_on_c, 0, 54, 0
2, 60648, Note_on_c, 0, 72, 0
2, 60661, Note_on_c, 0, 52, 0
2, 60664, Note_on_c, 0, 54, 52
2, 60668, Note_on_c, 0, 75, 69
2, 60856, Note_on_c, 0, 51, 46
2, 60971, Note_on_c, 0, 54, 0
2, 61010, Note_on_c, 0, 60, 49
2, 61018, Note_on_c, 0, 68, 63
2, 61019, Note_on_c, 0, 51, 0
2, 61047, Note_on_c, 0, 75, 0
2, 61092, Note_on_c, 0, 60, 0
2, 61104, Note_on_c, 0, 58, 57
2, 61180, Note_on_c, 0, 76, 59
2, 61195, Note_on_c, 0, 58, 0
2, 61218, Note_on_c, 0, 60, 55
2, 61243, Note_on_c, 0, 78, 0
2, 61398, Note_on_c, 0, 76, 0
2, 61414, Note_on_c, 0, 75, 32
2, 61438, Note_on_c, 0, 75, 0
2, 61474, Note_on_c, 0, 73, 44
2, 61684, Note_on_c, 0, 75, 56
2, 61690, Note_on_c, 0, 73, 0
2, 61733, Note_on_c, 0, 68, 0
2, 61862, Note_on_c, 0, 68, 67
2, 61863, Note_on_c, 0, 75, 0
2, 62056, Note_on_c, 0, 61, 35
2, 62058, Note_on_c, 0, 76, 59
2, 62064, Note_on_c, 0, 60, 0
2, 62104, Note_on_c, 0, 68, 0
2, 62214, Note_on_c, 0, 61, 0
2, 62244, Note_on_c, 0, 59, 47
2, 62418, Note_on_c, 0, 57, 57
2, 62439, Note_on_c, 0, 59, 0
2, 62570, Note_on_c, 0, 57, 0
2, 62585, Note_on_c, 0, 56, 46
2, 62586, Note_on_c, 0, 73, 62
2, 62767, Note_on_c, 0, 73, 0
2, 62773, Note_on_c, 0, 56, 0
2, 62780, Note_on_c, 0, 66, 65
2, 62783, Note_on_c, 0, 57, 47
2, 62943, Note_on_c, 0, 57, 0
2, 62960, Note_on_c, 0, 54, 52
2, 62969, Note_on_c, 0, 68, 62
2, 62986, Note_on_c, 0, 66, 0
2, 63141, Note_on_c, 0, 76, 0
2, 63146, Note_on_c, 0, 66, 65
2, 63149, Note_on_c, 0, 68, 0
2, 63164, Note_on_c, 0, 69, 60
2, 63178, Note_on_c, 0, 54, 0
2, 63362, Note_on_c, 0, 75, 57
2, 63533, Note_on_c, 0, 76, 73
2, 63565, Note_on_c, 0, 75, 0
2, 63713, Note_on_c, 0, 76, 0
2, 63717, Note_on_c, 0, 78, 76
2, 63898, Note_on_c, 0, 80, 85
2, 63954, Note_on_c, 0, 78, 0
2, 64023, Note_on_c, 0, 80, 0
2, 64024, Control_c, 0, 64, 45
2, 64040, Control_c, 0, 64, 64
2, 64055, Control_c, 0, 64, 69
2, 64069, Control_c, 0, 64, 75
2, 64082, Note_on_c, 0, 81, 79
2, 64085, Control_c, 0, 64, 81
2, 64100, Control_c, 0, 64, 86
2, 64116, Control_c, 0, 64, 88
2, 64122, Note_on_c, 0, 69, 0
2, 64131, Control_c, 0, 64, 89
2, 64133, Note_on_c, 0, 81, 0
2, 64146, Control_c, 0, 64, 90
2, 64162, Control_c, 0, 64, 90
2, 64260, Control_c, 0, 64, 90
2, 64268, Note_on_c, 0, 73, 73
2, 64275, Control_c, 0, 64, 87
2, 64290, Control_c, 0, 64, 81
2, 64292, Note_on_c, 0, 68, 51
2, 64305, Control_c, 0, 64, 70
2, 64314, Note_on_c, 0, 73, 0
2, 64321, Control_c, 0, 64, 54
2, 64336, Control_c, 0, 64, 0
2, 64337, Note_on_c, 0, 72, 67
2, 64377, Note_on_c, 0, 72, 0
2, 64381, Note_on_c, 0, 73, 66
2, 64389, Note_on_c, 0, 66, 0
2, 64394, Note_on_c, 0, 64, 49
2, 64434, Note_on_c, 0, 73, 0
2, 64444, Note_on_c, 0, 72, 66
2, 64608, Note_on_c, 0, 63, 58
2, 64628, Note_on_c, 0, 64, 0
2, 64795, Note_on_c, 0, 73, 74
2, 64797, Note_on_c, 0, 61, 52
2, 64812, Note_on_c, 0, 63, 0
2, 64816, Note_on_c, 0, 72, 0
2, 64955, Note_on_c, 0, 61, 0
2, 64974, Note_on_c, 0, 60, 52
2, 64986, Note_on_c, 0, 75, 71
2, 64998, Control_c, 0, 64, 62
2, 65013, Control_c, 0, 64, 68
2, 65028, Control_c, 0, 64, 73
2, 65038, Note_on_c, 0, 73, 0
2, 65044, Control_c, 0, 64, 78
2, 65058, Control_c, 0, 64, 82
2, 65074, Control_c, 0, 64, 85
2, 65089, Control_c, 0, 64, 86
2, 65115, Note_on_c, 0, 75, 0
2, 65138, Note_on_c, 0, 68, 0
2, 65169, Note_on_c, 0, 60, 0
2, 65172, Note_on_c, 0, 58, 63
2, 65242, Control_c, 0, 64, 85
2, 65257, Control_c, 0, 64, 85
2, 65273, Control_c, 0, 64, 83
2, 65287, Control_c, 0, 64, 81
2, 65302, Control_c, 0, 64, 77
2, 65318, Control_c, 0, 64, 71
2, 65333, Control_c, 0, 64, 62
2, 65348, Control_c, 0, 64, 0
2, 65348, Note_on_c, 0, 60, 55
2, 65362, Note_on_c, 0, 58, 0
2, 65375, Note_on_c, 0, 56, 46
2, 65381, Note_on_c, 0, 61, 56
2, 65424, Note_on_c, 0, 63, 73
2, 65443, Note_on_c, 0, 61, 0
2, 65508, Note_on_c, 0, 66, 65
2, 65522, Note_on_c, 0, 56, 0
2, 65538, Note_on_c, 0, 54, 52
2, 65704, Note_on_c, 0, 54, 0
2, 65720, Note_on_c, 0, 52, 59
2, 65904, Note_on_c, 0, 51, 56
2, 65923, Note_on_c, 0, 52, 0
2, 66092, Note_on_c, 0, 49, 51
2, 66095, Note_on_c, 0, 51, 0
2, 66258, Note_on_c, 0, 49, 0
2, 66271, Note_on_c, 0, 47, 53
2, 66461, Note_on_c, 0, 45, 50
2, 66505, Note_on_c, 0, 47, 0
2, 66605, Note_on_c, 0, 66, 0
2, 66650, Note_on_c, 0, 64, 52
2, 66653, Note_on_c, 0, 63, 0
2, 66835, Note_on_c, 0, 63, 60
2, 66837, Note_on_c, 0, 64, 0
2, 66969, Note_on_c, 0, 60, 0
2, 66995, Note_on_c, 0, 47, 50
2, 67010, Note_on_c, 0, 61, 60
2, 67013, Note_on_c, 0, 45, 0
2, 67037, Note_on_c, 0, 63, 0
2, 67188, Note_on_c, 0, 44, 53
2, 67194, Note_on_c, 0, 63, 61
2, 67226, Note_on_c, 0, 47, 0
2, 67235, Note_on_c, 0, 61, 0
2, 67380, Note_on_c, 0, 63, 0
2, 67390, Note_on_c, 0, 60, 60
2, 67577, Note_on_c, 0, 42, 52
2, 67585, Note_on_c, 0, 69, 66
2, 67609, Note_on_c, 0, 44, 0
2, 67611, Note_on_c, 0, 60, 0
2, 67777, Note_on_c, 0, 68, 67
2, 67855, Note_on_c, 0, 69, 0
2, 67961, Note_on_c, 0, 66, 65
2, 68012, Note_on_c, 0, 68, 0
2, 68133, Note_on_c, 0, 42, 0
2, 68139, Note_on_c, 0, 64, 66
2, 68148, Note_on_c, 0, 44, 61
2, 68156, Note_on_c, 0, 66, 0
2, 68313, Note_on_c, 0, 64, 0
2, 68331, Note_on_c, 0, 40, 60
2, 68331, Note_on_c, 0, 66, 69
2, 68364, Note_on_c, 0, 44, 0
2, 68494, Note_on_c, 0, 66, 0
2, 68505, Note_on_c, 0, 63, 67
2, 68696, Note_on_c, 0, 39, 59
2, 68697, Note_on_c, 0, 72, 73
2, 68708, Note_on_c, 0, 63, 0
2, 68726, Note_on_c, 0, 40, 0
2, 68896, Note_on_c, 0, 69, 70
2, 68938, Note_on_c, 0, 72, 0
2, 69072, Note_on_c, 0, 68, 74
2, 69116, Note_on_c, 0, 69, 0
2, 69241, Note_on_c, 0, 40, 63
2, 69250, Note_on_c, 0, 66, 74
2, 69258, Note_on_c, 0, 39, 0
2, 69286, Note_on_c, 0, 68, 0
2, 69439, Note_on_c, 0, 40, 0
2, 69445, Note_on_c, 0, 42, 62
2, 69445, Note_on_c, 0, 68, 73
2, 69468, Note_on_c, 0, 66, 0
2, 69625, Note_on_c, 0, 68, 0
2, 69636, Note_on_c, 0, 63, 74
2, 69822, Note_on_c, 0, 75, 73
2, 69826, Note_on_c, 0, 36, 56
2, 69846, Note_on_c, 0, 63, 0
2, 69865, Note_on_c, 0, 42, 0
2, 70009, Note_on_c, 0, 73, 75
2, 70093, Note_on_c, 0, 75, 0
2, 70189, Note_on_c, 0, 72, 75
2, 70227, Note_on_c, 0, 73, 0
2, 70385, Note_on_c, 0, 70, 78
2, 70387, Note_on_c, 0, 39, 52
2, 70427, Note_on_c, 0, 72, 0
2, 70434, Note_on_c, 0, 36, 0
2, 70588, Note_on_c, 0, 72, 76
2, 70597, Note_on_c, 0, 42, 64
2, 70598, Note_on_c, 0, 39, 0
2, 70633, Note_on_c, 0, 70, 0
2, 70758, Note_on_c, 0, 72, 0
2, 70777, Note_on_c, 0, 68, 78
2, 70981, Note_on_c, 0, 40, 60
2, 70989, Note_on_c, 0, 80, 81
2, 70997, Note_on_c, 0, 42, 0
2, 71051, Note_on_c, 0, 68, 0
2, 71180, Note_on_c, 0, 40, 0
2, 71180, Note_on_c, 0, 52, 67
2, 71355, Note_on_c, 0, 52, 0
2, 71355, Note_on_c, 0, 54, 61
2, 71361, Note_on_c, 0, 78, 76
2, 71522, Note_on_c, 0, 56, 63
2, 71524, Note_on_c, 0, 54, 0
2, 71538, Note_on_c, 0, 76, 72
2, 71544, Note_on_c, 0, 80, 0
2, 71575, Note_on_c, 0, 78, 0
2, 71704, Note_on_c, 0, 56, 0
2, 71711, Note_on_c, 0, 75, 74
2, 71721, Note_on_c, 0, 57, 56
2, 71723, Note_on_c, 0, 76, 0
2, 71898, Note_on_c, 0, 54, 57
2, 71904, Note_on_c, 0, 73, 75
2, 71917, Note_on_c, 0, 57, 0
2, 71935, Note_on_c, 0, 75, 0
2, 72084, Note_on_c, 0, 51, 56
2, 72095, Note_on_c, 0, 54, 0
2, 72097, Note_on_c, 0, 72, 65
2, 72127, Note_on_c, 0, 73, 0
2, 72251, Note_on_c, 0, 51, 0
2, 72259, Note_on_c, 0, 52, 58
2, 72277, Note_on_c, 0, 73, 64
2, 72284, Note_on_c, 0, 72, 0
2, 72435, Note_on_c, 0, 52, 0
2, 72455, Note_on_c, 0, 54, 57
2, 72466, Note_on_c, 0, 75, 65
2, 72482, Note_on_c, 0, 73, 0
2, 72627, Note_on_c, 0, 51, 54
2, 72627, Note_on_c, 0, 54, 0
2, 72632, Note_on_c, 0, 78, 74
2, 72653, Note_on_c, 0, 75, 0
2, 72826, Note_on_c, 0, 48, 50
2, 72828, Note_on_c, 0, 51, 0
2, 72838, Note_on_c, 0, 69, 67
2, 72912, Note_on_c, 0, 78, 0
2, 73017, Note_on_c, 0, 49, 50
2, 73038, Note_on_c, 0, 48, 0
2, 73191, Note_on_c, 0, 49, 0
2, 73206, Note_on_c, 0, 51, 53
2, 73366, Note_on_c, 0, 51, 0
2, 73368, Note_on_c, 0, 48, 48
2, 73385, Note_on_c, 0, 68, 60
2, 73409, Note_on_c, 0, 69, 0
2, 73574, Note_on_c, 0, 48, 0
2, 73575, Note_on_c, 0, 44, 53
2, 73577, Note_on_c, 0, 69, 61
2, 73611, Note_on_c, 0, 68, 0
2, 73728, Note_on_c, 0, 69, 0
2, 73752, Note_on_c, 0, 46, 57
2, 73757, Note_on_c, 0, 66, 71
2, 73800, Note_on_c, 0, 44, 0
2, 73939, Note_on_c, 0, 81, 77
2, 73946, Note_on_c, 0, 48, 50
2, 73977, Note_on_c, 0, 66, 0
2, 74003, Note_on_c, 0, 46, 0
2, 74119, Note_on_c, 0, 49, 62
2, 74146, Note_on_c, 0, 48, 0
2, 74317, Note_on_c, 0, 51, 65
2, 74338, Note_on_c, 0, 49, 0
2, 74493, Note_on_c, 0, 52, 73
2, 74496, Note_on_c, 0, 51, 0
2, 74682, Note_on_c, 0, 52, 0
2, 74682, Note_on_c, 0, 54, 62
2, 74682, Note_on_c, 0, 80, 76
2, 74858, Note_on_c, 0, 78, 81
2, 74859, Note_on_c, 0, 56, 61
2, 74867, Note_on_c, 0, 54, 0
2, 74921, Note_on_c, 0, 81, 0
2, 75003, Note_on_c, 0, 80, 0
2, 75039, Note_on_c, 0, 58, 65
2, 75052, Note_on_c, 0, 76, 74
2, 75061, Note_on_c, 0, 56, 0
2, 75063, Note_on_c, 0, 78, 0
2, 75221, Note_on_c, 0, 58, 0
2, 75226, Note_on_c, 0, 60, 64
2, 75233, Note_on_c, 0, 75, 76
2, 75261, Note_on_c, 0, 76, 0
2, 75420, Note_on_c, 0, 76, 70
2, 75425, Note_on_c, 0, 61, 63
2, 75436, Note_on_c, 0, 60, 0
2, 75466, Note_on_c, 0, 75, 0
2, 75596, Note_on_c, 0, 61, 0
2, 75604, Note_on_c, 0, 75, 72
2, 75606, Note_on_c, 0, 59, 64
2, 75782, Note_on_c, 0, 75, 0
2, 75798, Note_on_c, 0, 73, 76
2, 75800, Note_on_c, 0, 57, 66
2, 75822, Note_on_c, 0, 59, 0
2, 75965, Note_on_c, 0, 56, 65
2, 75981, Note_on_c, 0, 72, 76
2, 75982, Note_on_c, 0, 57, 0
2, 75985, Note_on_c, 0, 73, 0
2, 76154, Note_on_c, 0, 76, 0
2, 76184, Note_on_c, 0, 57, 55
2, 76188, Note_on_c, 0, 73, 68
2, 76194, Note_on_c, 0, 56, 0
2, 76273, Note_on_c, 0, 72, 0
2, 76397, Note_on_c, 0, 57, 0
2, 76404, Note_on_c, 0, 54, 56
2, 76415, Note_on_c, 0, 81, 71
2, 76443, Note_on_c, 0, 73, 0
2, 76647, Note_on_c, 0, 73, 60
2, 76660, Note_on_c, 0, 56, 48
2, 76679, Note_on_c, 0, 54, 0
2, 76696, Note_on_c, 0, 81, 0
2, 76734, Note_on_c, 0, 76, 66
2, 77317, Control_c, 0, 64, 44
2, 77332, Control_c, 0, 64, 58
2, 77346, Control_c, 0, 64, 62
2, 77362, Control_c, 0, 64, 62
2, 77377, Control_c, 0, 64, 63
2, 77392, Control_c, 0, 64, 64
2, 77407, Control_c, 0, 64, 65
2, 77422, Control_c, 0, 64, 67
2, 77432, Note_on_c, 0, 76, 0
2, 77432, Note_on_c, 0, 78, 69
2, 77438, Control_c, 0, 64, 71
2, 77453, Control_c, 0, 64, 76
2, 77467, Control_c, 0, 64, 82
2, 77483, Control_c, 0, 64, 86
2, 77498, Control_c, 0, 64, 89
2, 77515, Control_c, 0, 64, 92
2, 77530, Control_c, 0, 64, 94
2, 77543, Note_on_c, 0, 78, 0
2, 77545, Control_c, 0, 64, 96
2, 77560, Control_c, 0, 64, 100
2, 77575, Control_c, 0, 64, 103
2, 77591, Control_c, 0, 64, 105
2, 77606, Control_c, 0, 64, 107
2, 77620, Control_c, 0, 64, 108
2, 77727, Control_c, 0, 64, 106
2, 77742, Control_c, 0, 64, 102
2, 77743, Note_on_c, 0, 73, 0
2, 77754, Note_on_c, 0, 76, 52
2, 77755, Note_on_c, 0, 44, 38
2, 77758, Control_c, 0, 64, 95
2, 77762, Note_on_c, 0, 72, 52
2, 77773, Control_c, 0, 64, 87
2, 77788, Control_c, 0, 64, 78
2, 77803, Control_c, 0, 64, 66
2, 77813, Note_on_c, 0, 75, 56
2, 77814, Note_on_c, 0, 76, 0
2, 77818, Control_c, 0, 64, 0
2, 77889, Note_on_c, 0, 75, 0
2, 77901, Note_on_c, 0, 73, 55
2, 77959, Note_on_c, 0, 73, 0
2, 77970, Note_on_c, 0, 75, 57
2, 78421, Note_on_c, 0, 46, 41
2, 78424, Note_on_c, 0, 72, 0
2, 78427, Note_on_c, 0, 75, 0
2, 78429, Note_on_c, 0, 73, 54
2, 78448, Note_on_c, 0, 56, 0
2, 78451, Note_on_c, 0, 44, 0
2, 78625, Note_on_c, 0, 56, 51
2, 78639, Note_on_c, 0, 71, 57
2, 78781, Note_on_c, 0, 56, 0
2, 78824, Note_on_c, 0, 55, 50
2, 78824, Note_on_c, 0, 70, 64
2, 78825, Note_on_c, 0, 71, 0
2, 78979, Note_on_c, 0, 55, 0
2, 78993, Note_on_c, 0, 56, 61
2, 79001, Note_on_c, 0, 68, 71
2, 79047, Note_on_c, 0, 70, 0
2, 79165, Note_on_c, 0, 56, 0
2, 79182, Note_on_c, 0, 58, 55
2, 79182, Note_on_c, 0, 67, 72
2, 79222, Note_on_c, 0, 68, 0
2, 79348, Note_on_c, 0, 58, 0
2, 79363, Note_on_c, 0, 51, 46
2, 79365, Note_on_c, 0, 68, 66
2, 79378, Note_on_c, 0, 67, 0
2, 79458, Note_on_c, 0, 68, 0
2, 79596, Note_on_c, 0, 68, 57
2, 79611, Note_on_c, 0, 51, 0
2, 79612, Note_on_c, 0, 52, 42
2, 79830, Note_on_c, 0, 67, 49
2, 79883, Note_on_c, 0, 68, 0
2, 80262, Note_on_c, 0, 47, 56
2, 80267, Note_on_c, 0, 76, 60
2, 80290, Note_on_c, 0, 73, 0
2, 80325, Note_on_c, 0, 46, 0
2, 80460, Note_on_c, 0, 49, 56
2, 80473, Note_on_c, 0, 75, 69
2, 80474, Note_on_c, 0, 47, 0
2, 80539, Note_on_c, 0, 76, 0
2, 80863, Note_on_c, 0, 67, 0
2, 80867, Note_on_c, 0, 76, 65
2, 80871, Note_on_c, 0, 43, 50
2, 80880, Note_on_c, 0, 49, 0
2, 80904, Note_on_c, 0, 75, 0
2, 81007, Note_on_c, 0, 52, 0
2, 81048, Note_on_c, 0, 51, 50
2, 81060, Note_on_c, 0, 68, 64
2, 81244, Note_on_c, 0, 49, 66
2, 81253, Note_on_c, 0, 70, 65
2, 81258, Note_on_c, 0, 68, 0
2, 81259, Note_on_c, 0, 51, 0
2, 81434, Note_on_c, 0, 47, 57
2, 81435, Note_on_c, 0, 68, 75
2, 81463, Note_on_c, 0, 49, 0
2, 81480, Note_on_c, 0, 70, 0
2, 81527, Note_on_c, 0, 68, 0
2, 81620, Note_on_c, 0, 49, 60
2, 81623, Note_on_c, 0, 71, 70
2, 81642, Note_on_c, 0, 47, 0
2, 81799, Note_on_c, 0, 70, 74
2, 81800, Note_on_c, 0, 52, 66
2, 81821, Note_on_c, 0, 49, 0
2, 81837, Note_on_c, 0, 71, 0
2, 81916, Note_on_c, 0, 70, 0
2, 82058, Note_on_c, 0, 70, 64
2, 82063, Note_on_c, 0, 55, 54
2, 82106, Note_on_c, 0, 52, 0
2, 82644, Note_on_c, 0, 44, 53
2, 82659, Note_on_c, 0, 72, 73
2, 82677, Note_on_c, 0, 55, 0
2, 82741, Note_on_c, 0, 43, 0
2, 82858, Note_on_c, 0, 72, 0
2, 82860, Note_on_c, 0, 46, 55
2, 82866, Note_on_c, 0, 73, 71
2, 82873, Note_on_c, 0, 44, 0
2, 82888, Note_on_c, 0, 76, 0
2, 83284, Note_on_c, 0, 79, 72
2, 83286, Note_on_c, 0, 39, 45
2, 83320, Note_on_c, 0, 73, 0
2, 83327, Note_on_c, 0, 46, 0
2, 83497, Note_on_c, 0, 75, 68
2, 83531, Note_on_c, 0, 70, 0
2, 83677, Note_on_c, 0, 76, 70
2, 83703, Note_on_c, 0, 75, 0
2, 83862, Note_on_c, 0, 76, 0
2, 83870, Note_on_c, 0, 75, 69
2, 84054, Note_on_c, 0, 73, 68
2, 84081, Note_on_c, 0, 75, 0
2, 84246, Note_on_c, 0, 71, 67
2, 84253, Note_on_c, 0, 73, 0
2, 84409, Note_on_c, 0, 71, 0
2, 84436, Note_on_c, 0, 70, 69
2, 84618, Note_on_c, 0, 39, 0
2, 84624, Note_on_c, 0, 68, 70
2, 84649, Note_on_c, 0, 70, 0
2, 84796, Note_on_c, 0, 67, 72
2, 84823, Note_on_c, 0, 68, 0
2, 84968, Note_on_c, 0, 79, 0
2, 84995, Note_on_c, 0, 65, 67
2, 85009, Note_on_c, 0, 67, 0
2, 85188, Note_on_c, 0, 65, 0
2, 85193, Note_on_c, 0, 80, 68
2, 85196, Note_on_c, 0, 72, 62
2, 85200, Note_on_c, 0, 66, 60
2, 85312, Control_c, 0, 64, 24
2, 85328, Control_c, 0, 64, 64
2, 85343, Control_c, 0, 64, 70
2, 85355, Note_on_c, 0, 80, 0
2, 85357, Control_c, 0, 64, 76
2, 85371, Note_on_c, 0, 72, 0
2, 85373, Control_c, 0, 64, 78
2, 85377, Note_on_c, 0, 63, 73
2, 85388, Control_c, 0, 64, 79
2, 85403, Control_c, 0, 64, 80
2, 85418, Control_c, 0, 64, 81
2, 85426, Note_on_c, 0, 66, 0
2, 85433, Control_c, 0, 64, 83
2, 85449, Control_c, 0, 64, 85
2, 85464, Control_c, 0, 64, 86
2, 85479, Control_c, 0, 64, 87
2, 85539, Control_c, 0, 64, 86
2, 85542, Note_on_c, 0, 63, 0
2, 85554, Control_c, 0, 64, 85
2, 85570, Control_c, 0, 64, 83
2, 85585, Control_c, 0, 64, 80
2, 85585, Note_on_c, 0, 73, 70
2, 85594, Note_on_c, 0, 64, 59
2, 85601, Control_c, 0, 64, 73
2, 85616, Control_c, 0, 64, 64
2, 85631, Control_c, 0, 64, 0
2, 85781, Note_on_c, 0, 63, 55
2, 85801, Note_on_c, 0, 71, 61
2, 85974, Note_on_c, 0, 71, 0
2, 85986, Note_on_c, 0, 61, 58
2, 85988, Note_on_c, 0, 69, 63
2, 85994, Note_on_c, 0, 63, 0
2, 86156, Note_on_c, 0, 61, 0
2, 86175, Note_on_c, 0, 59, 51
2, 86175, Note_on_c, 0, 68, 66
2, 86176, Note_on_c, 0, 64, 0
2, 86189, Note_on_c, 0, 69, 0
2, 86368, Note_on_c, 0, 57, 53
2, 86374, Note_on_c, 0, 66, 67
2, 86394, Note_on_c, 0, 59, 0
2, 86431, Note_on_c, 0, 68, 0
2, 86546, Note_on_c, 0, 57, 0
2, 86568, Note_on_c, 0, 54, 47
2, 86569, Note_on_c, 0, 69, 67
2, 86682, Note_on_c, 0, 66, 0
2, 86766, Note_on_c, 0, 54, 0
2, 86783, Note_on_c, 0, 64, 52
2, 86789, Note_on_c, 0, 56, 52
2, 86873, Note_on_c, 0, 69, 0
2, 86983, Note_on_c, 0, 51, 61
2, 86994, Note_on_c, 0, 56, 0
2, 87203, Note_on_c, 0, 51, 0
2, 87207, Note_on_c, 0, 52, 59
2, 87401, Note_on_c, 0, 64, 0
2, 87405, Note_on_c, 0, 75, 62
2, 87413, Note_on_c, 0, 66, 57
2, 87416, Note_on_c, 0, 73, 0
2, 87419, Note_on_c, 0, 52, 0
2, 87422, Note_on_c, 0, 49, 54
2, 87645, Note_on_c, 0, 63, 59
2, 87647, Note_on_c, 0, 72, 66
2, 87653, Note_on_c, 0, 44, 46
2, 87674, Note_on_c, 0, 66, 0
2, 87679, Note_on_c, 0, 49, 0
2, 87698, Note_on_c, 0, 75, 0
2, 87858, Control_c, 0, 64, 45
2, 87873, Control_c, 0, 64, 63
2, 87884, Note_on_c, 0, 56, 40
2, 87889, Control_c, 0, 64, 66
2, 87894, Note_on_c, 0, 66, 63
2, 87904, Control_c, 0, 64, 68
2, 87919, Control_c, 0, 64, 70
2, 87923, Note_on_c, 0, 63, 0
2, 87934, Control_c, 0, 64, 72
2, 87949, Control_c, 0, 64, 75
2, 87957, Note_on_c, 0, 56, 0
2, 87957, Note_on_c, 0, 56, 10
2, 87964, Control_c, 0, 64, 78
2, 87980, Control_c, 0, 64, 81
2, 87995, Control_c, 0, 64, 82
2, 88011, Control_c, 0, 64, 83
2, 88049, Control_c, 0, 64, 83
2, 88078, Control_c, 0, 64, 84
2, 88154, Control_c, 0, 64, 83
2, 88169, Note_on_c, 0, 73, 67
2, 88170, Note_on_c, 0, 61, 52
2, 88171, Control_c, 0, 64, 79
2, 88173, Note_on_c, 0, 49, 48
2, 88186, Control_c, 0, 64, 74
2, 88194, Note_on_c, 0, 56, 0
2, 88201, Control_c, 0, 64, 64
2, 88216, Control_c, 0, 64, 0
2, 88216, Note_on_c, 0, 44, 0
2, 88224, Note_on_c, 0, 72, 0
2, 88231, Note_on_c, 0, 66, 0
2, 88447, Note_on_c, 0, 68, 61
2, 88735, Note_on_c, 0, 54, 36
2, 88736, Note_on_c, 0, 69, 65
2, 88744, Note_on_c, 0, 68, 0
2, 88824, Note_on_c, 0, 54, 0
2, 88824, Note_on_c, 0, 54, 3
2, 89083, Note_on_c, 0, 66, 57
2, 89140, Note_on_c, 0, 61, 0
2, 89430, Note_on_c, 0, 69, 0
2, 89469, Note_on_c, 0, 57, 38
2, 89478, Note_on_c, 0, 63, 56
2, 89528, Note_on_c, 0, 54, 0
2, 90020, Note_on_c, 0, 72, 60
2, 90114, Note_on_c, 0, 66, 0
2, 90130, Note_on_c, 0, 73, 0
2, 90193, Control_c, 0, 64, 47
2, 90209, Control_c, 0, 64, 60
2, 90224, Control_c, 0, 64, 64
2, 90239, Control_c, 0, 64, 66
2, 90254, Control_c, 0, 64, 68
2, 90269, Control_c, 0, 64, 72
2, 90284, Control_c, 0, 64, 76
2, 90300, Control_c, 0, 64, 80
2, 90314, Control_c, 0, 64, 84
2, 90337, Control_c, 0, 64, 87
2, 90352, Control_c, 0, 64, 90
2, 90368, Control_c, 0, 64, 92
2, 90383, Control_c, 0, 64, 94
2, 90398, Control_c, 0, 64, 95
2, 90414, Control_c, 0, 64, 98
2, 90429, Control_c, 0, 64, 100
2, 90443, Control_c, 0, 64, 102
2, 90459, Control_c, 0, 64, 103
2, 90474, Control_c, 0, 64, 104
2, 90490, Control_c, 0, 64, 105
2, 90505, Control_c, 0, 64, 106
2, 90519, Control_c, 0, 64, 107
2, 90535, Control_c, 0, 64, 108
2, 90550, Control_c, 0, 64, 109
2, 90566, Control_c, 0, 64, 109
2, 90595, Control_c, 0, 64, 110
2, 90611, Control_c, 0, 64, 110
2, 90627, Control_c, 0, 64, 111
2, 90658, Control_c, 0, 64, 111
2, 90855, Control_c, 0, 64, 111
2, 90869, Control_c, 0, 64, 110
2, 90877, Note_on_c, 0, 72, 0
2, 90881, Note_on_c, 0, 63, 0
2, 90884, Control_c, 0, 64, 109
2, 90893, Note_on_c, 0, 68, 51
2, 90895, Note_on_c, 0, 73, 44
2, 90899, Note_on_c, 0, 56, 34
2, 90899, Note_on_c, 0, 65, 48
2, 90900, Control_c, 0, 64, 105
2, 90915, Control_c, 0, 64, 101
2, 90931, Control_c, 0, 64, 96
2, 90945, Control_c, 0, 64, 90
2, 90960, Control_c, 0, 64, 83
2, 90976, Control_c, 0, 64, 74
2, 90991, Control_c, 0, 64, 61
2, 91007, Control_c, 0, 64, 0
2, 91026, Note_on_c, 0, 57, 0
2, 91819, Control_c, 0, 64, 18
2, 91834, Control_c, 0, 64, 29
2, 91850, Control_c, 0, 64, 35
2, 91872, Control_c, 0, 64, 40
2, 91887, Control_c, 0, 64, 45
2, 91902, Control_c, 0, 64, 48
2, 91917, Control_c, 0, 64, 50
2, 91933, Control_c, 0, 64, 52
2, 91948, Control_c, 0, 64, 54
2, 91963, Control_c, 0, 64, 56
2, 91979, Control_c, 0, 64, 57
2, 91994, Control_c, 0, 64, 59
2, 92009, Control_c, 0, 64, 61
2, 92024, Control_c, 0, 64, 62
2, 92055, Control_c, 0, 64, 62
2, 92084, Control_c, 0, 64, 63
2, 92100, Control_c, 0, 64, 63
2, 92115, Control_c, 0, 64, 64
2, 92130, Control_c, 0, 64, 65
2, 92145, Control_c, 0, 64, 65
2, 92160, Control_c, 0, 64, 66
2, 92176, Control_c, 0, 64, 66
2, 92206, Control_c, 0, 64, 67
2, 92236, Control_c, 0, 64, 67
2, 92253, Control_c, 0, 64, 68
2, 92283, Control_c, 0, 64, 68
2, 92299, Control_c, 0, 64, 69
2, 92313, Control_c, 0, 64, 70
2, 92329, Control_c, 0, 64, 71
2, 92374, Control_c, 0, 64, 71
2, 92404, Control_c, 0, 64, 72
2, 92420, Control_c, 0, 64, 72
2, 92450, Control_c, 0, 64, 73
2, 92511, Control_c, 0, 64, 73
2, 92526, Control_c, 0, 64, 74
2, 92541, Control_c, 0, 64, 74
2, 92556, Control_c, 0, 64, 75
2, 92572, Control_c, 0, 64, 75
2, 92686, Control_c, 0, 64, 76
2, 93219, Control_c, 0, 64, 75
2, 93340, Control_c, 0, 64, 75
2, 93371, Control_c, 0, 64, 74
2, 93386, Control_c, 0, 64, 74
2, 93394, Note_on_c, 0, 65, 0
2, 93409, Control_c, 0, 64, 73
2, 93439, Control_c, 0, 64, 73
2, 93453, Note_on_c, 0, 68, 0
2, 93455, Control_c, 0, 64, 72
2, 93463, Note_on_c, 0, 73, 0
2, 93470, Control_c, 0, 64, 71
2, 93471, Note_on_c, 0, 56, 0
2, 93484, Control_c, 0, 64, 69
2, 93489, Note_on_c, 0, 49, 0
2, 93500, Control_c, 0, 64, 67
2, 93515, Control_c, 0, 64, 64
2, 93531, Control_c, 0, 64, 62
2, 93545, Control_c, 0, 64, 62
2, 93621, Control_c, 0, 64, 61
2, 93636, Control_c, 0, 64, 61
2, 93652, Control_c, 0, 64, 59
2, 93667, Control_c, 0, 64, 57
2, 93682, Control_c, 0, 64, 55
2, 93697, Control_c, 0, 64, 54
2, 93712, Control_c, 0, 64, 53
2, 93728, Control_c, 0, 64, 52
2, 93743, Control_c, 0, 64, 49
2, 93758, Control_c, 0, 64, 43
2, 93774, Control_c, 0, 64, 37
2, 93789, Control_c, 0, 64, 29
2, 93803, Control_c, 0, 64, 20
2, 93819, Control_c, 0, 64, 0
2, 94831, Control_c, 0, 64, 18
2, 94847, Control_c, 0, 64, 29
2, 94862, Control_c, 0, 64, 37
2, 94877, Control_c, 0, 64, 43
2, 94892, Control_c, 0, 64, 47
2, 94907, Control_c, 0, 64, 50
2, 94922, Control_c, 0, 64, 52
2, 94944, Control_c, 0, 64, 55
2, 94959, Control_c, 0, 64, 59
2, 94975, Control_c, 0, 64, 62
2, 94990, Control_c, 0, 64, 64
2, 95006, Control_c, 0, 64, 65
2, 95036, Control_c, 0, 64, 66
2, 95052, Control_c, 0, 64, 67
2, 95067, Control_c, 0, 64, 69
2, 95082, Control_c, 0, 64, 72
2, 95097, Control_c, 0, 64, 74
2, 95112, Control_c, 0, 64, 76
2, 95128, Control_c, 0, 64, 77
2, 95143, Control_c, 0, 64, 78
2, 95295, Control_c, 0, 64, 77
2, 95340, Control_c, 0, 64, 77
2, 95385, Control_c, 0, 64, 76
2, 95400, Control_c, 0, 64, 76
2, 95416, Control_c, 0, 64, 75
2, 95430, Control_c, 0, 64, 75
2, 95446, Control_c, 0, 64, 74
2, 95461, Control_c, 0, 64, 73
2, 95492, Control_c, 0, 64, 73
2, 95507, Control_c, 0, 64, 72
2, 95522, Control_c, 0, 64, 72
2, 95538, Control_c, 0, 64, 71
2, 95553, Control_c, 0, 64, 70
2, 95569, Control_c, 0, 64, 68
2, 95583, Control_c, 0, 64, 64
2, 95598, Control_c, 0, 64, 60
2, 95614, Control_c, 0, 64, 51
2, 95629, Control_c, 0, 64, 47
2, 95644, Control_c, 0, 64, 48
2, 95660, Control_c, 0, 64, 49
2, 95691, Control_c, 0, 64, 48
2, 95713, Control_c, 0, 64, 44
2, 95729, Control_c, 0, 64, 36
2, 95743, Control_c, 0, 64, 18
2, 95758, Control_c, 0, 64, 0
2, 96997, Control_c, 0, 64, 13
2, 97013, Control_c, 0, 64, 18
2, 97028, Control_c, 0, 64, 20
2, 97042, Control_c, 0, 64, 21
2, 97058, Control_c, 0, 64, 23
2, 97073, Control_c, 0, 64, 25
2, 97089, Control_c, 0, 64, 28
2, 97104, Control_c, 0, 64, 31
2, 97134, Control_c, 0, 64, 30
2, 97181, Control_c, 0, 64, 29
2, 97212, Control_c, 0, 64, 29
2, 97226, Control_c, 0, 64, 28
2, 97310, Control_c, 0, 64, 27
2, 97326, Control_c, 0, 64, 26
2, 97341, Control_c, 0, 64, 25
2, 97507, Control_c, 0, 64, 24
2, 97552, Control_c, 0, 64, 25
2, 97598, Control_c, 0, 64, 24
2, 97811, Control_c, 0, 64, 23
2, 97841, Control_c, 0, 64, 20
2, 98032, Control_c, 0, 64, 18
2, 98170, Control_c, 0, 64, 17
2, 98306, Control_c, 0, 64, 18
2, 98382, Control_c, 0, 64, 17
2, 98488, Control_c, 0, 64, 18
2, 98655, Control_c, 0, 64, 17
2, 98876, Control_c, 0, 64, 15
2, 98907, Control_c, 0, 64, 13
2, 98952, Control_c, 0, 64, 0
2, 99211, Control_c, 0, 64, 10
2, 99287, Control_c, 0, 64, 13
2, 99378, Control_c, 0, 64, 15
2, 99393, Control_c, 0, 64, 17
2, 99469, Control_c, 0, 64, 18
2, 99597, Control_c, 0, 64, 20
2, 99613, Control_c, 0, 64, 21
2, 99766, Control_c, 0, 64, 23
2, 99979, Control_c, 0, 64, 21
2, 100009, Control_c, 0, 64, 20
2, 100084, Control_c, 0, 64, 18
2, 100100, Control_c, 0, 64, 17
2, 100160, Control_c, 0, 64, 15
2, 100191, Control_c, 0, 64, 13
2, 100267, Control_c, 0, 64, 10
2, 100282, Control_c, 0, 64, 0
2, 102453, Note_on_c, 0, 49, 48
2, 103838, Note_on_c, 0, 48, 46
2, 103963, Note_on_c, 0, 49, 0
2, 104530, Note_on_c, 0, 52, 59
2, 104647, Note_on_c, 0, 48, 0
2, 105257, Note_on_c, 0, 51, 44
2, 105339, Note_on_c, 0, 52, 0
2, 106490, Note_on_c, 0, 49, 37
2, 106492, Note_on_c, 0, 56, 56
2, 106550, Note_on_c, 0, 51, 0
2, 106796, Note_on_c, 0, 51, 42
2, 106853, Note_on_c, 0, 49, 0
2, 107124, Note_on_c, 0, 52, 38
2, 107187, Note_on_c, 0, 51, 0
2, 107742, Note_on_c, 0, 55, 56
2, 107890, Note_on_c, 0, 56, 0
2, 108051, Note_on_c, 0, 51, 37
2, 108115, Note_on_c, 0, 52, 0
2, 108162, Note_on_c, 0, 51, 0
2, 108179, Note_on_c, 0, 49, 44
2, 108365, Note_on_c, 0, 59, 61
2, 108383, Note_on_c, 0, 51, 40
2, 108392, Note_on_c, 0, 49, 0
2, 108493, Note_on_c, 0, 55, 0
2, 108690, Note_on_c, 0, 51, 0
2, 108697, Note_on_c, 0, 56, 43
2, 108999, Note_on_c, 0, 58, 57
2, 109001, Note_on_c, 0, 49, 34
2, 109012, Note_on_c, 0, 56, 0
2, 109118, Note_on_c, 0, 59, 0
2, 109330, Note_on_c, 0, 51, 51
2, 109372, Note_on_c, 0, 49, 0
2, 109442, Note_on_c, 0, 51, 0
2, 109445, Note_on_c, 0, 52, 61
2, 109641, Note_on_c, 0, 54, 45
2, 109643, Note_on_c, 0, 52, 0
2, 110260, Note_on_c, 0, 56, 53
2, 110359, Note_on_c, 0, 58, 0
2, 110568, Note_on_c, 0, 52, 36
2, 110595, Note_on_c, 0, 54, 0
2, 110876, Note_on_c, 0, 51, 37
2, 110878, Note_on_c, 0, 61, 59
2, 110879, Note_on_c, 0, 57, 49
2, 110961, Note_on_c, 0, 52, 0
2, 110990, Note_on_c, 0, 56, 0
2, 111197, Note_on_c, 0, 51, 0
2, 111203, Note_on_c, 0, 49, 38
2, 111502, Note_on_c, 0, 60, 63
2, 111510, Note_on_c, 0, 51, 39
2, 111558, Note_on_c, 0, 49, 0
2, 111582, Note_on_c, 0, 61, 0
2, 111739, Note_on_c, 0, 57, 0
2, 111821, Note_on_c, 0, 56, 50
2, 111923, Note_on_c, 0, 56, 0
2, 111951, Note_on_c, 0, 54, 53
2, 112115, Note_on_c, 0, 54, 0
2, 112120, Note_on_c, 0, 64, 62
2, 112121, Note_on_c, 0, 56, 51
2, 112136, Note_on_c, 0, 49, 40
2, 112144, Note_on_c, 0, 60, 0
2, 112211, Note_on_c, 0, 51, 0
2, 112398, Note_on_c, 0, 56, 0
2, 112416, Note_on_c, 0, 61, 50
2, 112687, Note_on_c, 0, 64, 0
2, 112753, Note_on_c, 0, 54, 37
2, 112754, Note_on_c, 0, 63, 56
2, 112808, Note_on_c, 0, 61, 0
2, 113051, Note_on_c, 0, 49, 0
2, 113054, Note_on_c, 0, 56, 52
2, 113057, Note_on_c, 0, 47, 41
2, 113064, Note_on_c, 0, 54, 0
2, 113167, Note_on_c, 0, 56, 0
2, 113184, Note_on_c, 0, 57, 53
2, 113337, Note_on_c, 0, 45, 38
2, 113351, Note_on_c, 0, 57, 0
2, 113351, Note_on_c, 0, 59, 39
2, 113409, Note_on_c, 0, 47, 0
2, 113635, Note_on_c, 0, 44, 47
2, 113658, Note_on_c, 0, 45, 0
2, 113944, Note_on_c, 0, 45, 40
2, 113946, Note_on_c, 0, 61, 54
2, 113949, Note_on_c, 0, 44, 0
2, 114022, Note_on_c, 0, 59, 0
2, 114038, Note_on_c, 0, 63, 0
2, 114267, Note_on_c, 0, 57, 51
2, 114556, Note_on_c, 0, 66, 63
2, 114560, Note_on_c, 0, 46, 48
2, 114567, Note_on_c, 0, 57, 0
2, 114570, Note_on_c, 0, 56, 60
2, 114574, Note_on_c, 0, 45, 0
2, 114614, Note_on_c, 0, 61, 0
2, 114881, Note_on_c, 0, 54, 50
2, 114946, Note_on_c, 0, 56, 0
2, 115179, Note_on_c, 0, 54, 0
2, 115191, Note_on_c, 0, 56, 51
2, 115193, Note_on_c, 0, 48, 52
2, 115233, Note_on_c, 0, 46, 0
2, 115505, Note_on_c, 0, 64, 59
2, 115609, Note_on_c, 0, 66, 0
2, 115814, Note_on_c, 0, 49, 40
2, 115815, Note_on_c, 0, 48, 0
2, 115816, Note_on_c, 0, 63, 57
2, 115820, Note_on_c, 0, 54, 42
2, 115858, Note_on_c, 0, 56, 0
2, 115871, Note_on_c, 0, 64, 0
2, 116095, Note_on_c, 0, 54, 0
2, 116120, Note_on_c, 0, 52, 34
2, 116128, Note_on_c, 0, 61, 51
2, 116184, Note_on_c, 0, 63, 0
2, 116281, Note_on_c, 0, 61, 0
2, 116425, Note_on_c, 0, 61, 50
2, 116449, Note_on_c, 0, 51, 26
2, 116452, Note_on_c, 0, 44, 20
2, 116459, Note_on_c, 0, 49, 0
2, 116500, Note_on_c, 0, 52, 0
2, 116747, Note_on_c, 0, 45, 41
2, 116801, Note_on_c, 0, 44, 0
2, 117042, Note_on_c, 0, 68, 68
2, 117047, Note_on_c, 0, 59, 47
2, 117053, Note_on_c, 0, 47, 35
2, 117082, Note_on_c, 0, 45, 0
2, 117150, Note_on_c, 0, 61, 0
2, 117353, Note_on_c, 0, 51, 0
2, 117358, Note_on_c, 0, 50, 38
2, 117601, Note_on_c, 0, 59, 0
2, 117637, Note_on_c, 0, 61, 56
2, 117642, Note_on_c, 0, 49, 45
2, 117643, Note_on_c, 0, 65, 62
2, 117685, Note_on_c, 0, 50, 0
2, 117735, Note_on_c, 0, 68, 0
2, 117936, Note_on_c, 0, 47, 0
2, 117951, Note_on_c, 0, 45, 45
2, 118224, Note_on_c, 0, 45, 0
2, 118235, Note_on_c, 0, 69, 71
2, 118238, Note_on_c, 0, 66, 64
2, 118239, Note_on_c, 0, 44, 42
2, 118293, Note_on_c, 0, 49, 0
2, 118314, Note_on_c, 0, 61, 0
2, 118323, Note_on_c, 0, 65, 0
2, 118572, Note_on_c, 0, 42, 37
2, 118594, Note_on_c, 0, 44, 0
2, 118888, Note_on_c, 0, 68, 62
2, 118897, Note_on_c, 0, 49, 40
2, 118907, Note_on_c, 0, 69, 0
2, 118930, Note_on_c, 0, 42, 0
2, 119197, Note_on_c, 0, 64, 49
2, 119208, Control_c, 0, 64, 54
2, 119223, Control_c, 0, 64, 63
2, 119226, Note_on_c, 0, 66, 0
2, 119238, Control_c, 0, 64, 66
2, 119254, Control_c, 0, 64, 69
2, 119268, Control_c, 0, 64, 74
2, 119284, Control_c, 0, 64, 77
2, 119300, Control_c, 0, 64, 79
2, 119305, Note_on_c, 0, 68, 0
2, 119314, Control_c, 0, 64, 79
2, 119421, Control_c, 0, 64, 78
2, 119436, Control_c, 0, 64, 77
2, 119452, Control_c, 0, 64, 76
2, 119467, Control_c, 0, 64, 72
2, 119482, Control_c, 0, 64, 66
2, 119498, Control_c, 0, 64, 41
2, 119513, Control_c, 0, 64, 0
2, 119522, Note_on_c, 0, 64, 0
2, 119525, Note_on_c, 0, 66, 57
2, 119531, Note_on_c, 0, 63, 53
2, 119532, Note_on_c, 0, 73, 65
2, 119537, Note_on_c, 0, 45, 37
2, 119579, Note_on_c, 0, 49, 0
2, 119837, Note_on_c, 0, 61, 59
2, 119870, Control_c, 0, 64, 21
2, 119885, Control_c, 0, 64, 59
2, 119887, Note_on_c, 0, 63, 0
2, 119893, Note_on_c, 0, 66, 0
2, 119901, Control_c, 0, 64, 66
2, 119916, Control_c, 0, 64, 70
2, 119931, Control_c, 0, 64, 74
2, 119932, Note_on_c, 0, 73, 0
2, 119946, Control_c, 0, 64, 77
2, 119961, Control_c, 0, 64, 77
2, 120037, Control_c, 0, 64, 77
2, 120052, Control_c, 0, 64, 76
2, 120067, Control_c, 0, 64, 75
2, 120082, Control_c, 0, 64, 73
2, 120098, Control_c, 0, 64, 69
2, 120106, Note_on_c, 0, 61, 0
2, 120114, Control_c, 0, 64, 62
2, 120130, Control_c, 0, 64, 0
2, 120149, Note_on_c, 0, 72, 75
2, 120157, Note_on_c, 0, 66, 61
2, 120168, Note_on_c, 0, 63, 58
2, 120395, Control_c, 0, 64, 54
2, 120411, Control_c, 0, 64, 64
2, 120426, Control_c, 0, 64, 69
2, 120440, Control_c, 0, 64, 74
2, 120441, Note_on_c, 0, 63, 0
2, 120456, Control_c, 0, 64, 80
2, 120457, Note_on_c, 0, 72, 0
2, 120458, Note_on_c, 0, 66, 0
2, 120466, Note_on_c, 0, 44, 56
2, 120471, Control_c, 0, 64, 83
2, 120487, Control_c, 0, 64, 84
2, 120501, Control_c, 0, 64, 85
2, 120513, Note_on_c, 0, 45, 0
2, 120669, Control_c, 0, 64, 85
2, 120684, Control_c, 0, 64, 84
2, 120699, Control_c, 0, 64, 83
2, 120714, Control_c, 0, 64, 81
2, 120730, Control_c, 0, 64, 78
2, 120745, Control_c, 0, 64, 72
2, 120751, Note_on_c, 0, 42, 49
2, 120760, Control_c, 0, 64, 64
2, 120767, Note_on_c, 0, 73, 65
2, 120767, Note_on_c, 0, 76, 75
2, 120771, Note_on_c, 0, 68, 55
2, 120775, Control_c, 0, 64, 0
2, 120781, Note_on_c, 0, 44, 0
2, 121081, Note_on_c, 0, 42, 0
2, 121085, Note_on_c, 0, 40, 47
2, 121385, Note_on_c, 0, 75, 72
2, 121388, Note_on_c, 0, 40, 0
2, 121388, Note_on_c, 0, 42, 41
2, 121420, Note_on_c, 0, 76, 0
2, 121455, Note_on_c, 0, 68, 0
2, 121707, Note_on_c, 0, 69, 58
2, 121724, Control_c, 0, 64, 56
2, 121725, Note_on_c, 0, 73, 0
2, 121741, Control_c, 0, 64, 64
2, 121756, Control_c, 0, 64, 66
2, 121786, Control_c, 0, 64, 65
2, 121817, Control_c, 0, 64, 65
2, 121901, Control_c, 0, 64, 64
2, 121931, Control_c, 0, 64, 64
2, 121946, Control_c, 0, 64, 62
2, 121961, Control_c, 0, 64, 59
2, 121976, Control_c, 0, 64, 52
2, 121986, Note_on_c, 0, 69, 0
2, 121991, Control_c, 0, 64, 18
2, 122007, Control_c, 0, 64, 0
2, 122008, Note_on_c, 0, 71, 54
2, 122018, Note_on_c, 0, 68, 42
2, 122019, Note_on_c, 0, 44, 35
2, 122088, Note_on_c, 0, 42, 0
2, 122250, Control_c, 0, 64, 45
2, 122264, Note_on_c, 0, 75, 0
2, 122265, Control_c, 0, 64, 63
2, 122280, Control_c, 0, 64, 67
2, 122296, Control_c, 0, 64, 70
2, 122310, Control_c, 0, 64, 73
2, 122316, Note_on_c, 0, 68, 0
2, 122319, Note_on_c, 0, 71, 0
2, 122325, Control_c, 0, 64, 74
2, 122335, Note_on_c, 0, 66, 50
2, 122341, Control_c, 0, 64, 75
2, 122356, Control_c, 0, 64, 76
2, 122372, Control_c, 0, 64, 77
2, 122532, Note_on_c, 0, 66, 0
2, 122570, Control_c, 0, 64, 76
2, 122585, Control_c, 0, 64, 75
2, 122608, Control_c, 0, 64, 74
2, 122622, Control_c, 0, 64, 71
2, 122637, Control_c, 0, 64, 67
2, 122643, Note_on_c, 0, 45, 40
2, 122644, Note_on_c, 0, 65, 56
2, 122647, Note_on_c, 0, 73, 58
2, 122653, Control_c, 0, 64, 59
2, 122668, Control_c, 0, 64, 0
2, 122670, Note_on_c, 0, 44, 0
2, 122947, Note_on_c, 0, 61, 49
2, 122949, Note_on_c, 0, 65, 0
2, 122956, Note_on_c, 0, 44, 37
2, 122971, Note_on_c, 0, 45, 0
2, 123218, Note_on_c, 0, 61, 0
2, 123256, Note_on_c, 0, 66, 54
2, 123256, Note_on_c, 0, 69, 42
2, 123269, Note_on_c, 0, 45, 32
2, 123301, Note_on_c, 0, 44, 0
2, 123564, Note_on_c, 0, 75, 68
2, 123570, Note_on_c, 0, 45, 0
2, 123574, Note_on_c, 0, 69, 0
2, 123584, Note_on_c, 0, 47, 41
2, 123589, Control_c, 0, 64, 52
2, 123603, Control_c, 0, 64, 63
2, 123603, Note_on_c, 0, 73, 0
2, 123605, Note_on_c, 0, 66, 0
2, 123619, Control_c, 0, 64, 66
2, 123634, Control_c, 0, 64, 68
2, 123650, Control_c, 0, 64, 68
2, 123665, Control_c, 0, 64, 69
2, 123680, Control_c, 0, 64, 69
2, 123745, Note_on_c, 0, 75, 0
2, 123756, Control_c, 0, 64, 69
2, 123772, Control_c, 0, 64, 68
2, 123787, Control_c, 0, 64, 67
2, 123801, Control_c, 0, 64, 66
2, 123817, Control_c, 0, 64, 64
2, 123832, Control_c, 0, 64, 60
2, 123848, Control_c, 0, 64, 50
2, 123863, Control_c, 0, 64, 13
2, 123877, Control_c, 0, 64, 0
2, 123879, Note_on_c, 0, 76, 69
2, 123883, Note_on_c, 0, 49, 45
2, 123885, Note_on_c, 0, 68, 58
2, 123894, Note_on_c, 0, 64, 47
2, 123940, Note_on_c, 0, 47, 0
2, 124196, Note_on_c, 0, 75, 73
2, 124197, Note_on_c, 0, 47, 58
2, 124229, Note_on_c, 0, 49, 0
2, 124349, Note_on_c, 0, 68, 0
2, 124502, Note_on_c, 0, 49, 60
2, 124502, Note_on_c, 0, 73, 63
2, 124504, Note_on_c, 0, 69, 58
2, 124554, Note_on_c, 0, 47, 0
2, 124559, Note_on_c, 0, 75, 0
2, 124609, Note_on_c, 0, 76, 0
2, 124803, Note_on_c, 0, 51, 62
2, 124862, Note_on_c, 0, 49, 0
2, 125136, Note_on_c, 0, 52, 64
2, 125141, Note_on_c, 0, 71, 58
2, 125169, Note_on_c, 0, 51, 0
2, 125181, Note_on_c, 0, 69, 0
2, 125225, Note_on_c, 0, 73, 0
2, 125411, Control_c, 0, 64, 47
2, 125427, Control_c, 0, 64, 64
2, 125442, Control_c, 0, 64, 69
2, 125445, Note_on_c, 0, 71, 0
2, 125455, Note_on_c, 0, 68, 50
2, 125458, Control_c, 0, 64, 74
2, 125473, Control_c, 0, 64, 77
2, 125487, Control_c, 0, 64, 79
2, 125503, Control_c, 0, 64, 79
2, 125543, Note_on_c, 0, 68, 0
2, 125558, Note_on_c, 0, 64, 0
2, 125655, Control_c, 0, 64, 79
2, 125677, Control_c, 0, 64, 78
2, 125692, Control_c, 0, 64, 77
2, 125708, Control_c, 0, 64, 74
2, 125723, Control_c, 0, 64, 69
2, 125739, Control_c, 0, 64, 60
2, 125754, Control_c, 0, 64, 0
2, 125754, Note_on_c, 0, 56, 64
2, 125781, Note_on_c, 0, 49, 38
2, 125787, Note_on_c, 0, 68, 31
2, 125788, Note_on_c, 0, 73, 46
2, 125790, Note_on_c, 0, 66, 35
2, 125838, Note_on_c, 0, 52, 0
2, 126041, Control_c, 0, 64, 15
2, 126057, Control_c, 0, 64, 60
2, 126069, Note_on_c, 0, 64, 49
2, 126072, Control_c, 0, 64, 66
2, 126087, Control_c, 0, 64, 70
2, 126100, Note_on_c, 0, 68, 0
2, 126103, Control_c, 0, 64, 73
2, 126118, Control_c, 0, 64, 76
2, 126128, Note_on_c, 0, 73, 0
2, 126129, Note_on_c, 0, 64, 0
2, 126134, Control_c, 0, 64, 78
2, 126148, Control_c, 0, 64, 78
2, 126161, Note_on_c, 0, 66, 0
2, 126163, Control_c, 0, 64, 79
2, 126330, Control_c, 0, 64, 77
2, 126346, Control_c, 0, 64, 74
2, 126361, Control_c, 0, 64, 67
2, 126377, Control_c, 0, 64, 43
2, 126387, Note_on_c, 0, 70, 45
2, 126388, Note_on_c, 0, 55, 64
2, 126392, Control_c, 0, 64, 0
2, 126393, Note_on_c, 0, 75, 49
2, 126405, Note_on_c, 0, 63, 30
2, 126454, Note_on_c, 0, 56, 0
2, 126694, Note_on_c, 0, 49, 0
2, 126699, Note_on_c, 0, 47, 51
2, 126705, Control_c, 0, 64, 56
2, 126720, Control_c, 0, 64, 65
2, 126736, Control_c, 0, 64, 71
2, 126739, Note_on_c, 0, 55, 0
2, 126751, Control_c, 0, 64, 75
2, 126765, Control_c, 0, 64, 77
2, 126781, Control_c, 0, 64, 79
2, 126796, Control_c, 0, 64, 79
2, 126832, Note_on_c, 0, 63, 0
2, 126932, Control_c, 0, 64, 79
2, 126948, Control_c, 0, 64, 78
2, 126962, Control_c, 0, 64, 75
2, 126978, Control_c, 0, 64, 69
2, 126982, Note_on_c, 0, 59, 69
2, 126983, Note_on_c, 0, 46, 61
2, 126993, Control_c, 0, 64, 52
2, 127008, Control_c, 0, 64, 0
2, 127017, Note_on_c, 0, 68, 51
2, 127029, Note_on_c, 0, 47, 0
2, 127152, Note_on_c, 0, 70, 0
2, 127294, Note_on_c, 0, 46, 0
2, 127304, Control_c, 0, 64, 58
2, 127308, Note_on_c, 0, 44, 35
2, 127319, Control_c, 0, 64, 66
2, 127335, Control_c, 0, 64, 69
2, 127346, Note_on_c, 0, 59, 0
2, 127350, Control_c, 0, 64, 71
2, 127365, Control_c, 0, 64, 73
2, 127381, Control_c, 0, 64, 74
2, 127396, Control_c, 0, 64, 75
2, 127411, Control_c, 0, 64, 76
2, 127441, Control_c, 0, 64, 76
2, 127549, Control_c, 0, 64, 76
2, 127580, Control_c, 0, 64, 75
2, 127594, Control_c, 0, 64, 73
2, 127609, Control_c, 0, 64, 69
2, 127609, Note_on_c, 0, 58, 61
2, 127616, Note_on_c, 0, 49, 55
2, 127625, Control_c, 0, 64, 63
2, 127640, Control_c, 0, 64, 0
2, 127685, Note_on_c, 0, 44, 0
2, 127917, Note_on_c, 0, 75, 0
2, 127929, Note_on_c, 0, 76, 67
2, 128027, Control_c, 0, 64, 30
2, 128042, Control_c, 0, 64, 42
2, 128058, Control_c, 0, 64, 44
2, 128072, Control_c, 0, 64, 43
2, 128087, Control_c, 0, 64, 42
2, 128134, Control_c, 0, 64, 42
2, 128148, Control_c, 0, 64, 40
2, 128163, Control_c, 0, 64, 36
2, 128179, Control_c, 0, 64, 32
2, 128194, Control_c, 0, 64, 26
2, 128209, Control_c, 0, 64, 0
2, 128234, Note_on_c, 0, 51, 45
2, 128237, Note_on_c, 0, 49, 0
2, 128251, Note_on_c, 0, 75, 62
2, 128255, Note_on_c, 0, 67, 53
2, 128290, Note_on_c, 0, 68, 0
2, 128484, Control_c, 0, 64, 48
2, 128499, Control_c, 0, 64, 61
2, 128514, Control_c, 0, 64, 64
2, 128529, Control_c, 0, 64, 65
2, 128545, Control_c, 0, 64, 65
2, 128560, Control_c, 0, 64, 66
2, 128567, Note_on_c, 0, 73, 63
2, 128571, Note_on_c, 0, 76, 0
2, 128575, Control_c, 0, 64, 66
2, 128586, Note_on_c, 0, 58, 0
2, 128590, Control_c, 0, 64, 67
2, 128597, Note_on_c, 0, 67, 0
2, 128631, Note_on_c, 0, 75, 0
2, 128650, Control_c, 0, 64, 66
2, 128697, Control_c, 0, 64, 65
2, 128711, Control_c, 0, 64, 65
2, 128735, Control_c, 0, 64, 64
2, 128781, Control_c, 0, 64, 64
2, 128810, Control_c, 0, 64, 62
2, 128826, Control_c, 0, 64, 60
2, 128840, Control_c, 0, 64, 50
2, 128856, Control_c, 0, 64, 0
2, 128874, Note_on_c, 0, 56, 47
2, 128881, Note_on_c, 0, 44, 39
2, 128882, Note_on_c, 0, 71, 62
2, 128888, Note_on_c, 0, 68, 48
2, 128923, Note_on_c, 0, 73, 0
2, 128924, Note_on_c, 0, 51, 0
2, 129006, Control_c, 0, 64, 55
2, 129014, Note_on_c, 0, 44, 0
2, 129022, Control_c, 0, 64, 65
2, 129036, Control_c, 0, 64, 68
2, 129051, Control_c, 0, 64, 70
2, 129067, Control_c, 0, 64, 71
2, 129159, Control_c, 0, 64, 71
2, 129160, Note_on_c, 0, 56, 0
2, 129175, Control_c, 0, 64, 69
2, 129182, Note_on_c, 0, 57, 53
2, 129187, Note_on_c, 0, 75, 72
2, 129190, Control_c, 0, 64, 65
2, 129205, Control_c, 0, 64, 52
2, 129220, Control_c, 0, 64, 0
2, 129221, Note_on_c, 0, 68, 0
2, 129257, Note_on_c, 0, 71, 0
2, 129497, Note_on_c, 0, 56, 45
2, 129497, Note_on_c, 0, 59, 48
2, 129506, Note_on_c, 0, 57, 0
2, 129508, Note_on_c, 0, 80, 74
2, 129634, Note_on_c, 0, 75, 0
2, 129796, Note_on_c, 0, 56, 0
2, 129804, Note_on_c, 0, 54, 52
2, 130101, Note_on_c, 0, 54, 0
2, 130102, Note_on_c, 0, 61, 55
2, 130120, Note_on_c, 0, 53, 44
2, 130156, Note_on_c, 0, 59, 0
2, 130434, Note_on_c, 0, 78, 68
2, 130469, Note_on_c, 0, 80, 0
2, 130730, Note_on_c, 0, 80, 78
2, 130736, Note_on_c, 0, 57, 53
2, 130738, Note_on_c, 0, 53, 0
2, 130795, Note_on_c, 0, 61, 0
2, 130820, Note_on_c, 0, 78, 0
2, 131046, Note_on_c, 0, 61, 53
2, 131046, Note_on_c, 0, 81, 74
2, 131127, Note_on_c, 0, 80, 0
2, 131355, Note_on_c, 0, 57, 0
2, 131361, Note_on_c, 0, 83, 70
2, 131371, Note_on_c, 0, 56, 41
2, 131376, Note_on_c, 0, 63, 43
2, 131404, Note_on_c, 0, 61, 0
2, 131471, Note_on_c, 0, 81, 0
2, 131664, Note_on_c, 0, 61, 61
2, 131690, Note_on_c, 0, 63, 0
2, 131963, Note_on_c, 0, 63, 64
2, 132010, Note_on_c, 0, 61, 0
2, 132280, Note_on_c, 0, 65, 70
2, 132290, Control_c, 0, 64, 29
2, 132306, Control_c, 0, 64, 61
2, 132319, Note_on_c, 0, 63, 0
2, 132321, Control_c, 0, 64, 66
2, 132337, Control_c, 0, 64, 68
2, 132352, Control_c, 0, 64, 69
2, 132367, Control_c, 0, 64, 70
2, 132383, Control_c, 0, 64, 71
2, 132397, Note_on_c, 0, 65, 0
2, 132536, Control_c, 0, 64, 70
2, 132550, Control_c, 0, 64, 68
2, 132572, Control_c, 0, 64, 65
2, 132588, Control_c, 0, 64, 58
2, 132603, Control_c, 0, 64, 20
2, 132606, Note_on_c, 0, 66, 59
2, 132618, Note_on_c, 0, 54, 52
2, 132619, Control_c, 0, 64, 0
2, 132655, Note_on_c, 0, 56, 0
2, 132928, Note_on_c, 0, 81, 55
2, 132938, Control_c, 0, 64, 58
2, 132953, Control_c, 0, 64, 65
2, 132968, Control_c, 0, 64, 67
2, 133105, Control_c, 0, 64, 66
2, 133119, Control_c, 0, 64, 66
2, 133135, Control_c, 0, 64, 65
2, 133150, Control_c, 0, 64, 64
2, 133165, Control_c, 0, 64, 63
2, 133181, Control_c, 0, 64, 60
2, 133195, Control_c, 0, 64, 53
2, 133211, Control_c, 0, 64, 34
2, 133214, Note_on_c, 0, 61, 62
2, 133214, Note_on_c, 0, 69, 64
2, 133227, Control_c, 0, 64, 0
2, 133247, Note_on_c, 0, 80, 36
2, 133298, Note_on_c, 0, 66, 0
2, 133425, Note_on_c, 0, 83, 0
2, 133463, Control_c, 0, 64, 54
2, 133478, Control_c, 0, 64, 65
2, 133492, Control_c, 0, 64, 69
2, 133509, Control_c, 0, 64, 72
2, 133524, Control_c, 0, 64, 74
2, 133539, Note_on_c, 0, 78, 62
2, 133540, Control_c, 0, 64, 76
2, 133553, Note_on_c, 0, 81, 0
2, 133555, Control_c, 0, 64, 77
2, 133564, Note_on_c, 0, 69, 0
2, 133569, Control_c, 0, 64, 77
2, 133600, Control_c, 0, 64, 78
2, 133601, Note_on_c, 0, 80, 0
2, 133607, Note_on_c, 0, 78, 0
2, 133814, Control_c, 0, 64, 77
2, 133823, Note_on_c, 0, 80, 65
2, 133828, Control_c, 0, 64, 74
2, 133835, Note_on_c, 0, 60, 63
2, 133838, Note_on_c, 0, 68, 54
2, 133843, Control_c, 0, 64, 67
2, 133859, Control_c, 0, 64, 37
2, 133859, Note_on_c, 0, 61, 0
2, 133874, Control_c, 0, 64, 0
2, 133980, Control_c, 0, 64, 50
2, 133982, Note_on_c, 0, 80, 0
2, 133986, Note_on_c, 0, 78, 63
2, 133995, Control_c, 0, 64, 65
2, 134010, Control_c, 0, 64, 69
2, 134026, Control_c, 0, 64, 73
2, 134042, Control_c, 0, 64, 74
2, 134099, Note_on_c, 0, 78, 0
2, 134142, Note_on_c, 0, 76, 66
2, 134144, Note_on_c, 0, 54, 0
2, 134144, Note_on_c, 0, 56, 58
2, 134164, Note_on_c, 0, 60, 0
2, 134186, Control_c, 0, 64, 74
2, 134201, Control_c, 0, 64, 72
2, 134217, Control_c, 0, 64, 70
2, 134232, Control_c, 0, 64, 67
2, 134247, Control_c, 0, 64, 59
2, 134259, Note_on_c, 0, 76, 0
2, 134262, Control_c, 0, 64, 0
2, 134275, Note_on_c, 0, 75, 61
2, 134281, Note_on_c, 0, 54, 59
2, 134291, Note_on_c, 0, 56, 0
2, 134434, Note_on_c, 0, 73, 60
2, 134439, Note_on_c, 0, 64, 64
2, 134444, Note_on_c, 0, 75, 0
2, 134467, Note_on_c, 0, 68, 0
2, 134471, Note_on_c, 0, 52, 61
2, 134488, Note_on_c, 0, 54, 0
2, 134584, Note_on_c, 0, 71, 62
2, 134672, Control_c, 0, 64, 50
2, 134687, Control_c, 0, 64, 65
2, 134703, Control_c, 0, 64, 69
2, 134715, Note_on_c, 0, 71, 0
2, 134718, Control_c, 0, 64, 71
2, 134722, Note_on_c, 0, 54, 59
2, 134728, Note_on_c, 0, 69, 72
2, 134730, Note_on_c, 0, 64, 0
2, 134770, Note_on_c, 0, 52, 0
2, 134793, Control_c, 0, 64, 70
2, 134851, Note_on_c, 0, 69, 0
2, 134860, Note_on_c, 0, 56, 65
2, 134883, Note_on_c, 0, 68, 68
2, 134904, Note_on_c, 0, 54, 0
2, 134908, Control_c, 0, 64, 70
2, 134923, Control_c, 0, 64, 69
2, 134939, Control_c, 0, 64, 68
2, 134954, Control_c, 0, 64, 66
2, 134969, Control_c, 0, 64, 62
2, 134984, Control_c, 0, 64, 36
2, 134999, Control_c, 0, 64, 0
2, 135050, Note_on_c, 0, 63, 66
2, 135051, Note_on_c, 0, 66, 61
2, 135052, Note_on_c, 0, 68, 0
2, 135056, Note_on_c, 0, 57, 58
2, 135061, Note_on_c, 0, 56, 0
2, 135357, Note_on_c, 0, 57, 0
2, 135363, Note_on_c, 0, 54, 57
2, 135369, Note_on_c, 0, 69, 57
2, 135607, Note_on_c, 0, 66, 0
2, 135629, Note_on_c, 0, 73, 0
2, 135650, Note_on_c, 0, 69, 0
2, 135656, Note_on_c, 0, 54, 0
2, 135661, Note_on_c, 0, 56, 55
2, 135665, Note_on_c, 0, 68, 46
2, 135672, Note_on_c, 0, 71, 52
2, 135965, Control_c, 0, 64, 20
2, 135965, Note_on_c, 0, 66, 56
2, 135981, Control_c, 0, 64, 63
2, 135996, Control_c, 0, 64, 69
2, 136006, Note_on_c, 0, 68, 0
2, 136010, Control_c, 0, 64, 75
2, 136017, Note_on_c, 0, 63, 0
2, 136026, Control_c, 0, 64, 78
2, 136041, Control_c, 0, 64, 78
2, 136057, Control_c, 0, 64, 79
2, 136220, Note_on_c, 0, 66, 0
2, 136253, Control_c, 0, 64, 78
2, 136269, Control_c, 0, 64, 76
2, 136281, Note_on_c, 0, 61, 49
2, 136283, Control_c, 0, 64, 73
2, 136283, Note_on_c, 0, 49, 48
2, 136286, Note_on_c, 0, 65, 50
2, 136299, Control_c, 0, 64, 68
2, 136314, Control_c, 0, 64, 56
2, 136329, Control_c, 0, 64, 0
2, 136337, Note_on_c, 0, 56, 0
2, 136581, Note_on_c, 0, 71, 0
2, 136603, Note_on_c, 0, 73, 54
2, 136883, Note_on_c, 0, 65, 0
2, 136907, Note_on_c, 0, 71, 58
2, 136913, Note_on_c, 0, 66, 43
2, 136916, Control_c, 0, 64, 29
2, 136930, Control_c, 0, 64, 59
2, 136946, Control_c, 0, 64, 64
2, 136953, Note_on_c, 0, 73, 0
2, 136961, Control_c, 0, 64, 65
2, 137037, Control_c, 0, 64, 65
2, 137127, Control_c, 0, 64, 65
2, 137143, Control_c, 0, 64, 64
2, 137158, Control_c, 0, 64, 64
2, 137173, Control_c, 0, 64, 63
2, 137196, Control_c, 0, 64, 60
2, 137211, Control_c, 0, 64, 51
2, 137216, Note_on_c, 0, 69, 57
2, 137227, Control_c, 0, 64, 25
2, 137231, Note_on_c, 0, 71, 0
2, 137242, Control_c, 0, 64, 0
2, 137527, Note_on_c, 0, 68, 59
2, 137537, Note_on_c, 0, 69, 0
2, 137653, Control_c, 0, 64, 44
2, 137660, Note_on_c, 0, 47, 24
2, 137668, Control_c, 0, 64, 56
2, 137683, Control_c, 0, 64, 58
2, 137699, Control_c, 0, 64, 59
2, 137711, Note_on_c, 0, 47, 0
2, 137714, Control_c, 0, 64, 59
2, 137729, Control_c, 0, 64, 61
2, 137745, Control_c, 0, 64, 63
2, 137760, Control_c, 0, 64, 64
2, 137775, Control_c, 0, 64, 65
2, 137790, Control_c, 0, 64, 67
2, 137804, Note_on_c, 0, 64, 56
2, 137805, Control_c, 0, 64, 68
2, 137821, Control_c, 0, 64, 70
2, 137822, Note_on_c, 0, 66, 0
2, 137836, Control_c, 0, 64, 72
2, 137850, Control_c, 0, 64, 73
2, 137866, Control_c, 0, 64, 74
2, 137881, Control_c, 0, 64, 75
2, 137896, Control_c, 0, 64, 75
2, 137911, Control_c, 0, 64, 76
2, 138026, Control_c, 0, 64, 74
2, 138040, Control_c, 0, 64, 71
2, 138056, Control_c, 0, 64, 65
2, 138056, Note_on_c, 0, 49, 0
2, 138071, Control_c, 0, 64, 31
2, 138072, Note_on_c, 0, 47, 44
2, 138077, Note_on_c, 0, 70, 62
2, 138086, Control_c, 0, 64, 0
2, 138109, Note_on_c, 0, 68, 0
2, 138315, Control_c, 0, 64, 50
2, 138329, Control_c, 0, 64, 63
2, 138345, Control_c, 0, 64, 66
2, 138360, Control_c, 0, 64, 69
2, 138376, Control_c, 0, 64, 71
2, 138388, Note_on_c, 0, 71, 71
2, 138390, Note_on_c, 0, 70, 0
2, 138391, Control_c, 0, 64, 72
2, 138402, Note_on_c, 0, 47, 0
2, 138405, Control_c, 0, 64, 74
2, 138406, Note_on_c, 0, 61, 0
2, 138421, Control_c, 0, 64, 75
2, 138436, Control_c, 0, 64, 76
2, 138451, Control_c, 0, 64, 76
2, 138573, Control_c, 0, 64, 76
2, 138604, Control_c, 0, 64, 75
2, 138619, Control_c, 0, 64, 74
2, 138634, Control_c, 0, 64, 72
2, 138649, Control_c, 0, 64, 68
2, 138664, Control_c, 0, 64, 61
2, 138679, Control_c, 0, 64, 0
2, 138680, Note_on_c, 0, 73, 66
2, 138692, Note_on_c, 0, 54, 34
2, 138696, Note_on_c, 0, 46, 46
2, 138698, Note_on_c, 0, 49, 37
2, 138736, Note_on_c, 0, 71, 0
2, 138757, Note_on_c, 0, 64, 0
2, 138930, Control_c, 0, 64, 52
2, 138946, Control_c, 0, 64, 64
2, 138961, Control_c, 0, 64, 68
2, 138973, Note_on_c, 0, 56, 48
2, 138977, Control_c, 0, 64, 71
2, 138992, Control_c, 0, 64, 74
2, 138998, Note_on_c, 0, 73, 0
2, 139007, Control_c, 0, 64, 75
2, 139017, Note_on_c, 0, 54, 0
2, 139020, Note_on_c, 0, 49, 0
2, 139023, Control_c, 0, 64, 76
2, 139038, Control_c, 0, 64, 77
2, 139041, Note_on_c, 0, 46, 0
2, 139052, Control_c, 0, 64, 79
2, 139068, Control_c, 0, 64, 79
2, 139189, Control_c, 0, 64, 79
2, 139204, Control_c, 0, 64, 78
2, 139220, Control_c, 0, 64, 77
2, 139235, Control_c, 0, 64, 76
2, 139249, Control_c, 0, 64, 73
2, 139252, Note_on_c, 0, 56, 0
2, 139265, Control_c, 0, 64, 69
2, 139280, Control_c, 0, 64, 62
2, 139286, Note_on_c, 0, 51, 51
2, 139291, Note_on_c, 0, 58, 48
2, 139291, Note_on_c, 0, 71, 64
2, 139293, Note_on_c, 0, 63, 59
2, 139295, Note_on_c, 0, 54, 48
2, 139296, Control_c, 0, 64, 0
2, 139577, Control_c, 0, 64, 58
2, 139591, Control_c, 0, 64, 68
2, 139599, Note_on_c, 0, 59, 59
2, 139606, Control_c, 0, 64, 74
2, 139616, Note_on_c, 0, 63, 0
2, 139622, Control_c, 0, 64, 78
2, 139628, Note_on_c, 0, 58, 0
2, 139631, Note_on_c, 0, 54, 0
2, 139637, Control_c, 0, 64, 80
2, 139649, Note_on_c, 0, 59, 0
2, 139652, Control_c, 0, 64, 80
2, 139653, Note_on_c, 0, 51, 0
2, 139668, Control_c, 0, 64, 81
2, 139683, Control_c, 0, 64, 81
2, 139699, Control_c, 0, 64, 82
2, 139714, Control_c, 0, 64, 82
2, 139728, Control_c, 0, 64, 83
2, 139882, Control_c, 0, 64, 82
2, 139897, Control_c, 0, 64, 81
2, 139898, Note_on_c, 0, 64, 54
2, 139901, Note_on_c, 0, 61, 46
2, 139907, Note_on_c, 0, 52, 44
2, 139911, Note_on_c, 0, 49, 43
2, 139912, Control_c, 0, 64, 79
2, 139927, Control_c, 0, 64, 75
2, 139943, Control_c, 0, 64, 69
2, 139957, Control_c, 0, 64, 54
2, 139972, Control_c, 0, 64, 0
2, 140212, Note_on_c, 0, 52, 0
2, 140217, Note_on_c, 0, 51, 41
2, 140518, Note_on_c, 0, 52, 42
2, 140521, Note_on_c, 0, 70, 58
2, 140536, Note_on_c, 0, 51, 0
2, 140580, Note_on_c, 0, 71, 0
2, 140787, Control_c, 0, 64, 52
2, 140799, Note_on_c, 0, 52, 0
2, 140801, Control_c, 0, 64, 63
2, 140817, Control_c, 0, 64, 66
2, 140827, Note_on_c, 0, 54, 40
2, 140832, Control_c, 0, 64, 68
2, 140847, Control_c, 0, 64, 70
2, 140863, Control_c, 0, 64, 72
2, 140877, Control_c, 0, 64, 74
2, 140892, Control_c, 0, 64, 75
2, 140908, Control_c, 0, 64, 76
2, 140922, Control_c, 0, 64, 77
2, 140933, Note_on_c, 0, 61, 0
2, 140938, Control_c, 0, 64, 77
2, 140968, Control_c, 0, 64, 78
2, 141068, Control_c, 0, 64, 77
2, 141098, Control_c, 0, 64, 77
2, 141113, Control_c, 0, 64, 76
2, 141127, Control_c, 0, 64, 74
2, 141141, Note_on_c, 0, 71, 56
2, 141142, Note_on_c, 0, 56, 36
2, 141143, Control_c, 0, 64, 70
2, 141157, Note_on_c, 0, 47, 41
2, 141158, Control_c, 0, 64, 64
2, 141158, Note_on_c, 0, 64, 0
2, 141173, Control_c, 0, 64, 40
2, 141183, Note_on_c, 0, 54, 0
2, 141189, Control_c, 0, 64, 0
2, 141189, Note_on_c, 0, 70, 0
2, 141191, Note_on_c, 0, 49, 0
2, 141447, Note_on_c, 0, 54, 39
2, 141453, Note_on_c, 0, 63, 47
2, 141473, Note_on_c, 0, 56, 0
2, 141756, Note_on_c, 0, 64, 68
2, 141769, Note_on_c, 0, 56, 37
2, 141797, Note_on_c, 0, 54, 0
2, 141850, Note_on_c, 0, 63, 0
2, 142046, Control_c, 0, 64, 47
2, 142062, Control_c, 0, 64, 61
2, 142077, Control_c, 0, 64, 64
2, 142092, Control_c, 0, 64, 65
2, 142093, Note_on_c, 0, 66, 54
2, 142102, Note_on_c, 0, 57, 31
2, 142108, Control_c, 0, 64, 66
2, 142117, Note_on_c, 0, 64, 0
2, 142168, Control_c, 0, 64, 65
2, 142199, Control_c, 0, 64, 65
2, 142205, Note_on_c, 0, 66, 0
2, 142221, Note_on_c, 0, 68, 55
2, 142230, Control_c, 0, 64, 64
2, 142245, Control_c, 0, 64, 64
2, 142261, Control_c, 0, 64, 63
2, 142276, Control_c, 0, 64, 62
2, 142291, Control_c, 0, 64, 60
2, 142307, Control_c, 0, 64, 57
2, 142321, Control_c, 0, 64, 51
2, 142337, Control_c, 0, 64, 32
2, 142352, Control_c, 0, 64, 0
2, 142370, Note_on_c, 0, 68, 0
2, 142377, Note_on_c, 0, 63, 65
2, 142381, Note_on_c, 0, 56, 0
2, 142381, Note_on_c, 0, 66, 66
2, 142383, Note_on_c, 0, 57, 0
2, 142389, Note_on_c, 0, 59, 45
2, 142648, Control_c, 0, 64, 54
2, 142656, Note_on_c, 0, 47, 0
2, 142664, Control_c, 0, 64, 63
2, 142679, Control_c, 0, 64, 65
2, 142685, Note_on_c, 0, 73, 57
2, 142688, Note_on_c, 0, 63, 0
2, 142692, Note_on_c, 0, 56, 34
2, 142693, Control_c, 0, 64, 67
2, 142698, Note_on_c, 0, 66, 0
2, 142707, Note_on_c, 0, 71, 0
2, 142709, Control_c, 0, 64, 67
2, 142723, Control_c, 0, 64, 68
2, 142738, Control_c, 0, 64, 69
2, 142753, Control_c, 0, 64, 70
2, 142768, Control_c, 0, 64, 71
2, 142784, Control_c, 0, 64, 73
2, 142799, Control_c, 0, 64, 73
2, 142921, Control_c, 0, 64, 73
2, 142937, Control_c, 0, 64, 71
2, 142951, Control_c, 0, 64, 69
2, 142966, Control_c, 0, 64, 63
2, 142982, Control_c, 0, 64, 0
2, 142984, Note_on_c, 0, 68, 66
2, 142986, Note_on_c, 0, 73, 0
2, 142991, Note_on_c, 0, 71, 59
2, 142992, Note_on_c, 0, 54, 41
2, 142993, Note_on_c, 0, 75, 65
2, 143000, Note_on_c, 0, 56, 0
2, 143245, Note_on_c, 0, 75, 0
2, 143302, Control_c, 0, 64, 58
2, 143307, Note_on_c, 0, 76, 71
2, 143324, Control_c, 0, 64, 65
2, 143324, Note_on_c, 0, 52, 44
2, 143338, Note_on_c, 0, 71, 0
2, 143340, Control_c, 0, 64, 68
2, 143343, Note_on_c, 0, 54, 0
2, 143355, Control_c, 0, 64, 70
2, 143364, Note_on_c, 0, 59, 0
2, 143370, Control_c, 0, 64, 71
2, 143385, Control_c, 0, 64, 71
2, 143400, Control_c, 0, 64, 72
2, 143431, Control_c, 0, 64, 72
2, 143538, Control_c, 0, 64, 72
2, 143553, Control_c, 0, 64, 71
2, 143568, Control_c, 0, 64, 70
2, 143583, Control_c, 0, 64, 68
2, 143598, Control_c, 0, 64, 64
2, 143612, Note_on_c, 0, 66, 71
2, 143613, Control_c, 0, 64, 46
2, 143624, Note_on_c, 0, 59, 46
2, 143629, Control_c, 0, 64, 0
2, 143640, Note_on_c, 0, 68, 0
2, 143641, Note_on_c, 0, 52, 0
2, 143905, Note_on_c, 0, 76, 0
2, 143926, Note_on_c, 0, 73, 58
2, 144251, Note_on_c, 0, 75, 52
2, 144262, Note_on_c, 0, 47, 56
2, 144285, Note_on_c, 0, 71, 35
2, 144442, Control_c, 0, 64, 52
2, 144458, Control_c, 0, 64, 64
2, 144473, Control_c, 0, 64, 67
2, 144488, Control_c, 0, 64, 71
2, 144503, Control_c, 0, 64, 75
2, 144518, Control_c, 0, 64, 78
2, 144533, Control_c, 0, 64, 79
2, 144549, Control_c, 0, 64, 80
2, 144552, Note_on_c, 0, 69, 53
2, 144564, Control_c, 0, 64, 81
2, 144569, Note_on_c, 0, 59, 0
2, 144571, Note_on_c, 0, 75, 0
2, 144579, Control_c, 0, 64, 82
2, 144589, Note_on_c, 0, 66, 0
2, 144591, Note_on_c, 0, 71, 0
2, 144594, Control_c, 0, 64, 84
2, 144609, Control_c, 0, 64, 84
2, 144612, Note_on_c, 0, 69, 0
2, 144612, Note_on_c, 0, 73, 0
2, 144625, Control_c, 0, 64, 85
2, 144793, Control_c, 0, 64, 84
2, 144807, Control_c, 0, 64, 83
2, 144823, Control_c, 0, 64, 80
2, 144838, Control_c, 0, 64, 75
2, 144853, Control_c, 0, 64, 68
2, 144857, Note_on_c, 0, 59, 40
2, 144866, Note_on_c, 0, 68, 49
2, 144869, Note_on_c, 0, 52, 40
2, 144870, Note_on_c, 0, 76, 51
2, 144876, Control_c, 0, 64, 54
2, 144891, Control_c, 0, 64, 0
2, 144896, Note_on_c, 0, 47, 0
2, 144899, Note_on_c, 0, 64, 22
2, 145123, Note_on_c, 0, 64, 0
2, 145165, Control_c, 0, 64, 36
2, 145179, Note_on_c, 0, 75, 64
2, 145181, Control_c, 0, 64, 63
2, 145192, Note_on_c, 0, 68, 0
2, 145195, Control_c, 0, 64, 66
2, 145210, Control_c, 0, 64, 68
2, 145226, Control_c, 0, 64, 69
2, 145244, Note_on_c, 0, 76, 0
2, 145393, Control_c, 0, 64, 68
2, 145407, Control_c, 0, 64, 68
2, 145423, Control_c, 0, 64, 67
2, 145438, Control_c, 0, 64, 67
2, 145453, Control_c, 0, 64, 65
2, 145468, Note_on_c, 0, 61, 56
2, 145468, Note_on_c, 0, 76, 64
2, 145469, Control_c, 0, 64, 62
2, 145476, Note_on_c, 0, 75, 0
2, 145483, Control_c, 0, 64, 54
2, 145483, Note_on_c, 0, 57, 48
2, 145500, Control_c, 0, 64, 34
2, 145509, Note_on_c, 0, 59, 0
2, 145515, Control_c, 0, 64, 0
2, 145585, Note_on_c, 0, 52, 0
2, 145801, Note_on_c, 0, 78, 67
2, 145864, Note_on_c, 0, 76, 0
2, 146074, Note_on_c, 0, 57, 0
2, 146077, Note_on_c, 0, 60, 51
2, 146079, Note_on_c, 0, 56, 49
2, 146087, Note_on_c, 0, 80, 57
2, 146100, Note_on_c, 0, 78, 0
2, 146134, Note_on_c, 0, 61, 0
2, 146231, Note_on_c, 0, 78, 59
2, 146248, Note_on_c, 0, 80, 0
2, 146407, Note_on_c, 0, 80, 60
2, 146428, Note_on_c, 0, 78, 0
2, 146535, Note_on_c, 0, 80, 0
2, 146548, Note_on_c, 0, 81, 55
2, 146696, Note_on_c, 0, 64, 54
2, 146702, Note_on_c, 0, 61, 47
2, 146722, Note_on_c, 0, 80, 56
2, 146725, Note_on_c, 0, 81, 0
2, 146730, Note_on_c, 0, 60, 0
2, 146805, Note_on_c, 0, 56, 0
2, 146842, Note_on_c, 0, 80, 0
2, 146859, Note_on_c, 0, 78, 57
2, 146982, Note_on_c, 0, 78, 0
2, 147008, Note_on_c, 0, 76, 52
2, 147147, Note_on_c, 0, 76, 0
2, 147154, Note_on_c, 0, 80, 53
2, 147299, Note_on_c, 0, 80, 0
2, 147310, Note_on_c, 0, 63, 56
2, 147316, Note_on_c, 0, 78, 55
2, 147352, Note_on_c, 0, 64, 0
2, 147434, Note_on_c, 0, 78, 0
2, 147475, Note_on_c, 0, 76, 37
2, 147598, Note_on_c, 0, 76, 0
2, 147617, Note_on_c, 0, 78, 47
2, 147755, Note_on_c, 0, 78, 0
2, 147770, Note_on_c, 0, 80, 49
2, 147908, Note_on_c, 0, 60, 44
2, 147911, Note_on_c, 0, 80, 0
2, 147929, Note_on_c, 0, 78, 53
2, 147943, Note_on_c, 0, 61, 0
2, 148035, Note_on_c, 0, 78, 0
2, 148082, Note_on_c, 0, 76, 48
2, 148196, Note_on_c, 0, 76, 0
2, 148220, Note_on_c, 0, 75, 45
2, 148344, Note_on_c, 0, 75, 0
2, 148358, Note_on_c, 0, 78, 50
2, 148483, Note_on_c, 0, 61, 43
2, 148509, Note_on_c, 0, 76, 53
2, 148511, Note_on_c, 0, 78, 0
2, 148555, Note_on_c, 0, 63, 0
2, 148559, Note_on_c, 0, 60, 0
2, 148620, Note_on_c, 0, 76, 0
2, 148648, Note_on_c, 0, 75, 56
2, 148783, Note_on_c, 0, 75, 0
2, 148809, Note_on_c, 0, 76, 47
2, 148897, Note_on_c, 0, 76, 0
2, 148916, Note_on_c, 0, 78, 57
2, 149055, Note_on_c, 0, 78, 0
2, 149060, Note_on_c, 0, 76, 59
2, 149073, Note_on_c, 0, 68, 59
2, 149195, Note_on_c, 0, 76, 0
2, 149226, Note_on_c, 0, 75, 53
2, 149324, Note_on_c, 0, 75, 0
2, 149378, Note_on_c, 0, 73, 51
2, 149505, Note_on_c, 0, 73, 0
2, 149528, Note_on_c, 0, 76, 49
2, 149618, Note_on_c, 0, 68, 0
2, 149668, Note_on_c, 0, 76, 0
2, 149681, Note_on_c, 0, 75, 58
2, 149685, Note_on_c, 0, 67, 54
2, 149783, Note_on_c, 0, 75, 0
2, 149837, Note_on_c, 0, 73, 52
2, 149950, Note_on_c, 0, 73, 0
2, 149960, Note_on_c, 0, 61, 0
2, 149973, Note_on_c, 0, 59, 41
2, 149977, Note_on_c, 0, 75, 52
2, 150081, Note_on_c, 0, 75, 0
2, 150111, Note_on_c, 0, 76, 53
2, 150254, Note_on_c, 0, 76, 0
2, 150262, Note_on_c, 0, 58, 51
2, 150272, Note_on_c, 0, 71, 57
2, 150273, Note_on_c, 0, 75, 55
2, 150281, Note_on_c, 0, 67, 0
2, 150304, Note_on_c, 0, 59, 0
2, 150409, Note_on_c, 0, 71, 0
2, 150417, Note_on_c, 0, 73, 52
2, 150563, Note_on_c, 0, 56, 46
2, 150571, Note_on_c, 0, 71, 59
2, 150577, Note_on_c, 0, 75, 0
2, 150593, Note_on_c, 0, 73, 0
2, 150599, Note_on_c, 0, 58, 0
2, 150724, Note_on_c, 0, 75, 56
2, 150840, Note_on_c, 0, 71, 0
2, 150859, Note_on_c, 0, 73, 61
2, 150865, Note_on_c, 0, 70, 58
2, 150992, Note_on_c, 0, 75, 0
2, 151012, Note_on_c, 0, 73, 0
2, 151029, Note_on_c, 0, 71, 50
2, 151169, Note_on_c, 0, 55, 49
2, 151182, Note_on_c, 0, 56, 0
2, 151191, Note_on_c, 0, 73, 57
2, 151200, Note_on_c, 0, 71, 0
2, 151308, Note_on_c, 0, 53, 51
2, 151308, Note_on_c, 0, 55, 0
2, 151316, Note_on_c, 0, 73, 0
2, 151326, Note_on_c, 0, 75, 56
2, 151365, Note_on_c, 0, 70, 0
2, 151465, Note_on_c, 0, 55, 50
2, 151473, Note_on_c, 0, 53, 0
2, 151479, Note_on_c, 0, 73, 54
2, 151583, Note_on_c, 0, 75, 0
2, 151628, Note_on_c, 0, 71, 57
2, 151644, Note_on_c, 0, 73, 0
2, 151772, Note_on_c, 0, 71, 0
2, 151786, Note_on_c, 0, 70, 56
2, 151920, Note_on_c, 0, 70, 0
2, 151927, Note_on_c, 0, 73, 54
2, 152078, Note_on_c, 0, 73, 0
2, 152079, Note_on_c, 0, 55, 0
2, 152082, Note_on_c, 0, 56, 46
2, 152087, Note_on_c, 0, 71, 55
2, 152207, Note_on_c, 0, 56, 0
2, 152229, Note_on_c, 0, 58, 49
2, 152373, Note_on_c, 0, 58, 0
2, 152378, Note_on_c, 0, 56, 49
2, 152402, Note_on_c, 0, 63, 47
2, 152502, Note_on_c, 0, 56, 0
2, 152539, Note_on_c, 0, 55, 39
2, 152674, Note_on_c, 0, 55, 0
2, 152676, Note_on_c, 0, 68, 62
2, 152687, Note_on_c, 0, 56, 44
2, 152715, Note_on_c, 0, 63, 0
2, 152748, Note_on_c, 0, 71, 0
2, 152803, Note_on_c, 0, 56, 0
2, 152823, Note_on_c, 0, 73, 53
2, 152824, Note_on_c, 0, 57, 48
2, 152937, Note_on_c, 0, 57, 0
2, 152945, Note_on_c, 0, 73, 0
2, 152954, Note_on_c, 0, 75, 64
2, 152964, Note_on_c, 0, 59, 51
2, 153092, Note_on_c, 0, 59, 0
2, 153098, Note_on_c, 0, 56, 49
2, 153104, Note_on_c, 0, 71, 59
2, 153115, Note_on_c, 0, 75, 0
2, 153228, Note_on_c, 0, 68, 0
2, 153234, Note_on_c, 0, 56, 0
2, 153246, Note_on_c, 0, 57, 54
2, 153252, Note_on_c, 0, 73, 66
2, 153295, Note_on_c, 0, 71, 0
2, 153370, Note_on_c, 0, 57, 0
2, 153396, Note_on_c, 0, 59, 54
2, 153546, Note_on_c, 0, 59, 0
2, 153555, Note_on_c, 0, 66, 58
2, 153562, Note_on_c, 0, 57, 46
2, 153659, Note_on_c, 0, 57, 0
2, 153680, Note_on_c, 0, 66, 0
2, 153694, Note_on_c, 0, 64, 55
2, 153698, Note_on_c, 0, 56, 38
2, 153818, Note_on_c, 0, 56, 0
2, 153842, Note_on_c, 0, 58, 53
2, 153851, Note_on_c, 0, 64, 0
2, 153851, Note_on_c, 0, 66, 60
2, 153965, Note_on_c, 0, 58, 0
2, 153990, Note_on_c, 0, 59, 46
2, 154129, Note_on_c, 0, 76, 65
2, 154144, Note_on_c, 0, 61, 52
2, 154160, Note_on_c, 0, 59, 0
2, 154187, Note_on_c, 0, 66, 0
2, 154197, Note_on_c, 0, 73, 0
2, 154262, Note_on_c, 0, 61, 0
2, 154265, Note_on_c, 0, 58, 65
2, 154419, Note_on_c, 0, 58, 0
2, 154423, Note_on_c, 0, 75, 71
2, 154427, Note_on_c, 0, 59, 50
2, 154479, Note_on_c, 0, 76, 0
2, 154570, Note_on_c, 0, 61, 54
2, 154572, Note_on_c, 0, 59, 0
2, 154719, Note_on_c, 0, 61, 0
2, 154723, Note_on_c, 0, 59, 50
2, 154723, Note_on_c, 0, 64, 66
2, 154858, Note_on_c, 0, 64, 0
2, 154862, Note_on_c, 0, 59, 0
2, 154868, Note_on_c, 0, 58, 55
2, 154868, Note_on_c, 0, 66, 74
2, 154989, Note_on_c, 0, 66, 0
2, 155023, Note_on_c, 0, 68, 77
2, 155026, Note_on_c, 0, 60, 52
2, 155039, Note_on_c, 0, 58, 0
2, 155155, Note_on_c, 0, 60, 0
2, 155160, Note_on_c, 0, 61, 67
2, 155327, Note_on_c, 0, 63, 59
2, 155332, Note_on_c, 0, 78, 76
2, 155348, Note_on_c, 0, 61, 0
2, 155384, Note_on_c, 0, 75, 0
2, 155472, Note_on_c, 0, 60, 61
2, 155472, Note_on_c, 0, 63, 0
2, 155631, Note_on_c, 0, 60, 0
2, 155655, Note_on_c, 0, 61, 62
2, 155658, Note_on_c, 0, 76, 69
2, 155771, Note_on_c, 0, 78, 0
2, 155968, Note_on_c, 0, 49, 47
2, 156083, Note_on_c, 0, 49, 0
2, 156090, Note_on_c, 0, 51, 56
2, 156266, Note_on_c, 0, 52, 61
2, 156271, Note_on_c, 0, 73, 64
2, 156296, Note_on_c, 0, 51, 0
2, 156590, Note_on_c, 0, 54, 60
2, 156591, Note_on_c, 0, 52, 0
2, 156884, Note_on_c, 0, 61, 0
2, 156885, Note_on_c, 0, 54, 0
2, 156887, Note_on_c, 0, 56, 56
2, 156896, Note_on_c, 0, 72, 65
2, 156896, Note_on_c, 0, 73, 0
2, 157027, Note_on_c, 0, 54, 52
2, 157030, Note_on_c, 0, 56, 0
2, 157187, Note_on_c, 0, 76, 0
2, 157191, Note_on_c, 0, 56, 52
2, 157198, Note_on_c, 0, 75, 64
2, 157204, Note_on_c, 0, 54, 0
2, 157307, Note_on_c, 0, 56, 0
2, 157331, Note_on_c, 0, 57, 49
2, 157484, Note_on_c, 0, 56, 54
2, 157486, Note_on_c, 0, 76, 69
2, 157491, Note_on_c, 0, 57, 0
2, 157507, Note_on_c, 0, 75, 0
2, 157515, Note_on_c, 0, 72, 0
2, 157632, Note_on_c, 0, 56, 0
2, 157634, Note_on_c, 0, 54, 55
2, 157782, Note_on_c, 0, 54, 0
2, 157785, Note_on_c, 0, 52, 56
2, 157795, Note_on_c, 0, 73, 64
2, 157908, Note_on_c, 0, 52, 0
2, 157933, Note_on_c, 0, 56, 57
2, 158069, Note_on_c, 0, 68, 0
2, 158092, Note_on_c, 0, 76, 0
2, 158098, Note_on_c, 0, 75, 68
2, 158108, Note_on_c, 0, 54, 58
2, 158113, Note_on_c, 0, 56, 0
2, 158245, Note_on_c, 0, 54, 0
2, 158268, Note_on_c, 0, 52, 52
2, 158395, Note_on_c, 0, 52, 0
2, 158407, Note_on_c, 0, 54, 57
2, 158409, Note_on_c, 0, 72, 56
2, 158519, Note_on_c, 0, 54, 0
2, 158519, Note_on_c, 0, 72, 0
2, 158533, Note_on_c, 0, 56, 58
2, 158553, Note_on_c, 0, 70, 64
2, 158706, Note_on_c, 0, 75, 0
2, 158709, Note_on_c, 0, 54, 64
2, 158709, Note_on_c, 0, 73, 0
2, 158715, Note_on_c, 0, 70, 0
2, 158717, Note_on_c, 0, 56, 0
2, 158722, Note_on_c, 0, 72, 70
2, 158852, Note_on_c, 0, 54, 0
2, 158857, Note_on_c, 0, 52, 62
2, 159002, Note_on_c, 0, 51, 59
2, 159006, Note_on_c, 0, 52, 0
2, 159024, Note_on_c, 0, 75, 71
2, 159062, Note_on_c, 0, 72, 0
2, 159146, Note_on_c, 0, 54, 59
2, 159170, Note_on_c, 0, 51, 0
2, 159308, Note_on_c, 0, 80, 69
2, 159311, Note_on_c, 0, 52, 62
2, 159314, Note_on_c, 0, 54, 0
2, 159438, Note_on_c, 0, 51, 62
2, 159438, Note_on_c, 0, 52, 0
2, 159473, Note_on_c, 0, 78, 70
2, 159501, Note_on_c, 0, 80, 0
2, 159580, Note_on_c, 0, 78, 0
2, 159613, Note_on_c, 0, 51, 0
2, 159613, Note_on_c, 0, 80, 69
2, 159619, Note_on_c, 0, 52, 54
2, 159740, Note_on_c, 0, 52, 0
2, 159740, Note_on_c, 0, 54, 57
2, 159751, Note_on_c, 0, 80, 0
2, 159763, Note_on_c, 0, 81, 70
2, 159903, Note_on_c, 0, 52, 53
2, 159905, Note_on_c, 0, 80, 75
2, 159914, Note_on_c, 0, 73, 66
2, 159917, Note_on_c, 0, 54, 0
2, 159954, Note_on_c, 0, 75, 0
2, 160038, Note_on_c, 0, 81, 0
2, 160045, Note_on_c, 0, 78, 71
2, 160047, Note_on_c, 0, 52, 0
2, 160052, Note_on_c, 0, 57, 53
2, 160163, Note_on_c, 0, 80, 0
2, 160183, Note_on_c, 0, 57, 0
2, 160201, Note_on_c, 0, 76, 66
2, 160203, Note_on_c, 0, 56, 50
2, 160247, Note_on_c, 0, 78, 0
2, 160332, Note_on_c, 0, 56, 0
2, 160342, Note_on_c, 0, 57, 56
2, 160348, Note_on_c, 0, 80, 69
2, 160354, Note_on_c, 0, 76, 0
2, 160488, Note_on_c, 0, 57, 0
2, 160502, Note_on_c, 0, 51, 59
2, 160503, Note_on_c, 0, 78, 73
2, 160592, Note_on_c, 0, 80, 0
2, 160637, Note_on_c, 0, 51, 0
2, 160650, Note_on_c, 0, 49, 50
2, 160653, Note_on_c, 0, 76, 65
2, 160666, Note_on_c, 0, 78, 0
2, 160803, Note_on_c, 0, 51, 55
2, 160803, Note_on_c, 0, 78, 73
2, 160806, Note_on_c, 0, 49, 0
2, 160835, Note_on_c, 0, 76, 0
2, 160930, Note_on_c, 0, 51, 0
2, 160930, Note_on_c, 0, 73, 0
2, 160934, Note_on_c, 0, 80, 70
2, 160941, Note_on_c, 0, 52, 53
2, 160978, Note_on_c, 0, 78, 0
2, 161099, Note_on_c, 0, 51, 55
2, 161099, Note_on_c, 0, 52, 0
2, 161105, Note_on_c, 0, 78, 75
2, 161106, Note_on_c, 0, 72, 65
2, 161244, Note_on_c, 0, 76, 71
2, 161246, Note_on_c, 0, 51, 0
2, 161251, Note_on_c, 0, 56, 57
2, 161277, Note_on_c, 0, 80, 0
2, 161280, Note_on_c, 0, 72, 0
2, 161347, Note_on_c, 0, 78, 0
2, 161399, Note_on_c, 0, 56, 0
2, 161403, Note_on_c, 0, 54, 60
2, 161405, Note_on_c, 0, 75, 71
2, 161408, Note_on_c, 0, 76, 0
2, 161413, Note_on_c, 0, 71, 63
2, 161543, Note_on_c, 0, 56, 62
2, 161546, Note_on_c, 0, 78, 72
2, 161549, Note_on_c, 0, 54, 0
2, 161589, Note_on_c, 0, 71, 0
2, 161702, Note_on_c, 0, 77, 69
2, 161715, Note_on_c, 0, 49, 69
2, 161720, Note_on_c, 0, 56, 0
2, 161733, Note_on_c, 0, 75, 0
2, 161761, Note_on_c, 0, 78, 0
2, 161874, Note_on_c, 0, 71, 48
2, 162003, Note_on_c, 0, 71, 0
2, 162015, Note_on_c, 0, 61, 73
2, 162024, Note_on_c, 0, 73, 57
2, 162027, Note_on_c, 0, 49, 0
2, 162131, Note_on_c, 0, 73, 0
2, 162173, Note_on_c, 0, 74, 50
2, 162264, Note_on_c, 0, 74, 0
2, 162306, Note_on_c, 0, 66, 78
2, 162321, Note_on_c, 0, 73, 58
2, 162335, Note_on_c, 0, 61, 0
2, 162337, Note_on_c, 0, 81, 60
2, 162357, Note_on_c, 0, 77, 0
2, 162402, Note_on_c, 0, 66, 0
2, 162422, Note_on_c, 0, 73, 0
2, 162476, Note_on_c, 0, 71, 47
2, 162612, Note_on_c, 0, 66, 72
2, 162616, Note_on_c, 0, 81, 0
2, 162631, Note_on_c, 0, 71, 0
2, 162642, Note_on_c, 0, 69, 59
2, 162713, Note_on_c, 0, 66, 0
2, 162762, Note_on_c, 0, 73, 59
2, 162843, Note_on_c, 0, 69, 0
2, 162919, Note_on_c, 0, 66, 72
2, 162932, Note_on_c, 0, 80, 68
2, 162938, Note_on_c, 0, 73, 0
2, 162945, Note_on_c, 0, 71, 51
2, 163050, Note_on_c, 0, 71, 0
2, 163100, Note_on_c, 0, 69, 49
2, 163226, Note_on_c, 0, 65, 65
2, 163228, Note_on_c, 0, 66, 0
2, 163238, Note_on_c, 0, 69, 0
2, 163253, Note_on_c, 0, 71, 50
2, 163378, Note_on_c, 0, 63, 64
2, 163383, Note_on_c, 0, 65, 0
2, 163383, Note_on_c, 0, 71, 0
2, 163393, Note_on_c, 0, 73, 54
2, 163530, Note_on_c, 0, 65, 65
2, 163547, Note_on_c, 0, 73, 0
2, 163552, Note_on_c, 0, 63, 0
2, 163564, Note_on_c, 0, 71, 52
2, 163699, Note_on_c, 0, 71, 0
2, 163708, Note_on_c, 0, 69, 51
2, 163839, Note_on_c, 0, 68, 58
2, 163853, Note_on_c, 0, 69, 0
2, 163991, Note_on_c, 0, 71, 45
2, 164100, Note_on_c, 0, 65, 0
2, 164148, Note_on_c, 0, 71, 0
2, 164158, Note_on_c, 0, 69, 58
2, 164162, Note_on_c, 0, 66, 52
2, 164179, Note_on_c, 0, 68, 0
2, 164461, Note_on_c, 0, 78, 63
2, 164481, Note_on_c, 0, 54, 32
2, 164481, Note_on_c, 0, 80, 0
2, 164552, Note_on_c, 0, 78, 0
2, 164594, Note_on_c, 0, 56, 64
2, 164612, Note_on_c, 0, 76, 62
2, 164631, Note_on_c, 0, 54, 0
2, 164745, Note_on_c, 0, 56, 0
2, 164761, Note_on_c, 0, 74, 68
2, 164763, Note_on_c, 0, 54, 50
2, 164764, Note_on_c, 0, 57, 57
2, 164769, Note_on_c, 0, 76, 0
2, 164812, Note_on_c, 0, 69, 0
2, 164922, Note_on_c, 0, 73, 65
2, 165046, Note_on_c, 0, 57, 0
2, 165054, Note_on_c, 0, 66, 0
2, 165068, Note_on_c, 0, 59, 52
2, 165078, Note_on_c, 0, 71, 63
2, 165083, Note_on_c, 0, 73, 0
2, 165183, Note_on_c, 0, 71, 0
2, 165205, Note_on_c, 0, 69, 69
2, 165357, Note_on_c, 0, 59, 0
2, 165360, Note_on_c, 0, 54, 0
2, 165362, Note_on_c, 0, 53, 59
2, 165378, Note_on_c, 0, 68, 66
2, 165396, Note_on_c, 0, 69, 0
2, 165499, Note_on_c, 0, 59, 50
2, 165650, Note_on_c, 0, 59, 0
2, 165662, Note_on_c, 0, 61, 58
2, 165664, Note_on_c, 0, 68, 0
2, 165670, Note_on_c, 0, 74, 0
2, 165672, Note_on_c, 0, 73, 76
2, 165782, Note_on_c, 0, 61, 0
2, 165833, Note_on_c, 0, 62, 42
2, 165936, Note_on_c, 0, 62, 0
2, 165965, Note_on_c, 0, 61, 56
2, 165972, Note_on_c, 0, 78, 77
2, 165983, Note_on_c, 0, 57, 42
2, 166021, Note_on_c, 0, 73, 0
2, 166090, Note_on_c, 0, 78, 0
2, 166091, Note_on_c, 0, 57, 0
2, 166098, Note_on_c, 0, 61, 0
2, 166113, Note_on_c, 0, 59, 53
2, 166184, Note_on_c, 0, 53, 0
2, 166265, Note_on_c, 0, 78, 80
2, 166270, Note_on_c, 0, 57, 39
2, 166272, Note_on_c, 0, 59, 0
2, 166367, Note_on_c, 0, 78, 0
2, 166408, Note_on_c, 0, 61, 64
2, 166525, Note_on_c, 0, 57, 0
2, 166542, Note_on_c, 0, 61, 0
2, 166556, Note_on_c, 0, 56, 50
2, 166569, Note_on_c, 0, 78, 75
2, 166574, Note_on_c, 0, 59, 62
2, 166737, Note_on_c, 0, 57, 46
2, 166739, Note_on_c, 0, 59, 0
2, 166855, Note_on_c, 0, 57, 0
2, 166860, Note_on_c, 0, 76, 69
2, 166880, Note_on_c, 0, 59, 54
2, 166996, Note_on_c, 0, 59, 0
2, 167008, Note_on_c, 0, 74, 63
2, 167014, Note_on_c, 0, 61, 55
2, 167030, Note_on_c, 0, 76, 0
2, 167042, Note_on_c, 0, 78, 0
2, 167136, Note_on_c, 0, 61, 0
2, 167167, Note_on_c, 0, 59, 53
2, 167178, Note_on_c, 0, 76, 71
2, 167191, Note_on_c, 0, 74, 0
2, 167293, Note_on_c, 0, 56, 0
2, 167295, Note_on_c, 0, 57, 49
2, 167363, Note_on_c, 0, 59, 0
2, 167461, Note_on_c, 0, 56, 59
2, 167463, Note_on_c, 0, 57, 0
2, 167612, Note_on_c, 0, 59, 47
2, 167722, Note_on_c, 0, 56, 0
2, 167752, Note_on_c, 0, 57, 56
2, 167762, Note_on_c, 0, 54, 57
2, 167791, Note_on_c, 0, 59, 0
2, 167873, Note_on_c, 0, 57, 0
2, 167911, Note_on_c, 0, 56, 48
2, 168068, Note_on_c, 0, 74, 60
2, 168073, Note_on_c, 0, 56, 0
2, 168075, Note_on_c, 0, 57, 45
2, 168164, Note_on_c, 0, 57, 0
2, 168201, Note_on_c, 0, 73, 66
2, 168206, Note_on_c, 0, 59, 49
2, 168206, Note_on_c, 0, 74, 0
2, 168219, Note_on_c, 0, 76, 0
2, 168340, Note_on_c, 0, 59, 0
2, 168366, Note_on_c, 0, 57, 59
2, 168374, Note_on_c, 0, 74, 55
2, 168387, Note_on_c, 0, 69, 62
2, 168409, Note_on_c, 0, 73, 0
2, 168421, Note_on_c, 0, 54, 0
2, 168507, Note_on_c, 0, 57, 0
2, 168516, Note_on_c, 0, 59, 58
2, 168677, Note_on_c, 0, 59, 0
2, 168678, Note_on_c, 0, 61, 65
2, 168819, Note_on_c, 0, 61, 0
2, 168836, Note_on_c, 0, 62, 54
2, 168971, Note_on_c, 0, 62, 0
2, 168981, Note_on_c, 0, 64, 51
2, 168981, Note_on_c, 0, 68, 70
2, 169013, Note_on_c, 0, 69, 0
2, 169082, Note_on_c, 0, 64, 0
2, 169127, Note_on_c, 0, 62, 52
2, 169288, Note_on_c, 0, 64, 56
2, 169290, Note_on_c, 0, 68, 0
2, 169292, Note_on_c, 0, 52, 47
2, 169292, Note_on_c, 0, 62, 0
2, 169399, Note_on_c, 0, 64, 0
2, 169422, Note_on_c, 0, 66, 55
2, 169577, Note_on_c, 0, 57, 49
2, 169583, Note_on_c, 0, 73, 70
2, 169586, Note_on_c, 0, 66, 0
2, 169597, Note_on_c, 0, 64, 51
2, 169642, Note_on_c, 0, 52, 0
2, 169689, Note_on_c, 0, 74, 0
2, 169692, Note_on_c, 0, 57, 0
2, 169712, Note_on_c, 0, 64, 0
2, 169718, Note_on_c, 0, 62, 52
2, 169880, Note_on_c, 0, 62, 0
2, 169891, Note_on_c, 0, 61, 48
2, 169896, Note_on_c, 0, 57, 52
2, 170005, Note_on_c, 0, 57, 0
2, 170020, Note_on_c, 0, 61, 0
2, 170025, Note_on_c, 0, 64, 58
2, 170130, Note_on_c, 0, 64, 0
2, 170186, Note_on_c, 0, 57, 52
2, 170186, Note_on_c, 0, 62, 59
2, 170190, Note_on_c, 0, 78, 70
2, 170207, Note_on_c, 0, 71, 58
2, 170258, Note_on_c, 0, 73, 0
2, 170307, Note_on_c, 0, 62, 0
2, 170340, Note_on_c, 0, 61, 53
2, 170393, Note_on_c, 0, 61, 0
2, 170493, Note_on_c, 0, 57, 0
2, 170500, Note_on_c, 0, 56, 55
2, 170508, Note_on_c, 0, 62, 49
2, 170638, Note_on_c, 0, 62, 0
2, 170639, Note_on_c, 0, 56, 0
2, 170643, Note_on_c, 0, 64, 59
2, 170662, Note_on_c, 0, 54, 46
2, 170763, Note_on_c, 0, 71, 0
2, 170785, Note_on_c, 0, 64, 0
2, 170799, Note_on_c, 0, 62, 55
2, 170806, Note_on_c, 0, 56, 49
2, 170808, Note_on_c, 0, 76, 68
2, 170851, Note_on_c, 0, 54, 0
2, 170888, Note_on_c, 0, 78, 0
2, 170922, Note_on_c, 0, 62, 0
2, 170954, Note_on_c, 0, 61, 57
2, 171084, Note_on_c, 0, 61, 0
2, 171114, Note_on_c, 0, 59, 61
2, 171180, Control_c, 0, 64, 18
2, 171196, Control_c, 0, 64, 43
2, 171211, Control_c, 0, 64, 50
2, 171242, Control_c, 0, 64, 49
2, 171251, Note_on_c, 0, 62, 67
2, 171256, Note_on_c, 0, 59, 0
2, 171258, Control_c, 0, 64, 49
2, 171282, Note_on_c, 0, 56, 0
2, 171289, Control_c, 0, 64, 48
2, 171305, Control_c, 0, 64, 47
2, 171320, Control_c, 0, 64, 46
2, 171334, Control_c, 0, 64, 44
2, 171350, Control_c, 0, 64, 41
2, 171365, Control_c, 0, 64, 30
2, 171379, Control_c, 0, 64, 0
2, 171406, Note_on_c, 0, 57, 63
2, 171409, Note_on_c, 0, 62, 0
2, 171410, Note_on_c, 0, 61, 68
2, 171489, Note_on_c, 0, 61, 0
2, 171560, Note_on_c, 0, 59, 51
2, 171614, Note_on_c, 0, 76, 0
2, 171669, Control_c, 0, 64, 58
2, 171684, Control_c, 0, 64, 66
2, 171696, Note_on_c, 0, 64, 61
2, 171699, Control_c, 0, 64, 68
2, 171707, Note_on_c, 0, 61, 59
2, 171716, Control_c, 0, 64, 70
2, 171738, Control_c, 0, 64, 70
2, 171770, Note_on_c, 0, 59, 0
2, 171776, Note_on_c, 0, 64, 0
2, 171786, Note_on_c, 0, 57, 0
2, 171820, Note_on_c, 0, 61, 0
2, 171837, Note_on_c, 0, 78, 70
2, 171844, Control_c, 0, 64, 70
2, 171852, Note_on_c, 0, 62, 55
2, 171875, Control_c, 0, 64, 69
2, 171890, Control_c, 0, 64, 67
2, 171906, Control_c, 0, 64, 65
2, 171921, Control_c, 0, 64, 59
2, 171935, Control_c, 0, 64, 38
2, 171951, Control_c, 0, 64, 0
2, 171994, Note_on_c, 0, 62, 0
2, 171995, Note_on_c, 0, 61, 55
2, 172004, Note_on_c, 0, 54, 48
2, 172005, Note_on_c, 0, 69, 67
2, 172006, Note_on_c, 0, 76, 68
2, 172096, Note_on_c, 0, 69, 0
2, 172110, Note_on_c, 0, 78, 0
2, 172138, Note_on_c, 0, 61, 0
2, 172147, Note_on_c, 0, 74, 66
2, 172154, Note_on_c, 0, 59, 50
2, 172263, Note_on_c, 0, 76, 0
2, 172268, Note_on_c, 0, 59, 0
2, 172283, Note_on_c, 0, 74, 0
2, 172303, Note_on_c, 0, 73, 74
2, 172312, Note_on_c, 0, 69, 63
2, 172326, Note_on_c, 0, 57, 34
2, 172330, Control_c, 0, 64, 62
2, 172346, Control_c, 0, 64, 68
2, 172361, Control_c, 0, 64, 71
2, 172376, Control_c, 0, 64, 72
2, 172421, Note_on_c, 0, 69, 0
2, 172445, Note_on_c, 0, 76, 69
2, 172453, Note_on_c, 0, 57, 0
2, 172457, Note_on_c, 0, 61, 46
2, 172461, Note_on_c, 0, 54, 0
2, 172481, Note_on_c, 0, 73, 0
2, 172483, Control_c, 0, 64, 71
2, 172485, Note_on_c, 0, 61, 0
2, 172498, Control_c, 0, 64, 70
2, 172520, Control_c, 0, 64, 68
2, 172536, Control_c, 0, 64, 63
2, 172552, Control_c, 0, 64, 42
2, 172567, Control_c, 0, 64, 0
2, 172611, Note_on_c, 0, 47, 58
2, 172620, Note_on_c, 0, 69, 65
2, 172624, Note_on_c, 0, 74, 61
2, 172627, Note_on_c, 0, 59, 29
2, 172680, Note_on_c, 0, 76, 0
2, 172788, Note_on_c, 0, 74, 0
2, 172789, Note_on_c, 0, 73, 69
2, 172922, Note_on_c, 0, 69, 0
2, 172926, Note_on_c, 0, 73, 0
2, 172933, Note_on_c, 0, 68, 74
2, 172936, Note_on_c, 0, 74, 62
2, 173048, Note_on_c, 0, 74, 0
2, 173078, Note_on_c, 0, 66, 73
2, 173079, Note_on_c, 0, 76, 63
2, 173114, Note_on_c, 0, 68, 0
2, 173226, Note_on_c, 0, 52, 67
2, 173232, Note_on_c, 0, 68, 72
2, 173241, Note_on_c, 0, 74, 61
2, 173246, Note_on_c, 0, 47, 0
2, 173267, Note_on_c, 0, 66, 0
2, 173282, Note_on_c, 0, 76, 0
2, 173391, Note_on_c, 0, 73, 66
2, 173472, Control_c, 0, 64, 38
2, 173487, Control_c, 0, 64, 54
2, 173500, Note_on_c, 0, 74, 0
2, 173503, Control_c, 0, 64, 54
2, 173517, Control_c, 0, 64, 52
2, 173519, Note_on_c, 0, 73, 0
2, 173532, Control_c, 0, 64, 51
2, 173548, Control_c, 0, 64, 50
2, 173549, Note_on_c, 0, 71, 68
2, 173557, Note_on_c, 0, 59, 0
2, 173563, Control_c, 0, 64, 50
2, 173578, Control_c, 0, 64, 49
2, 173593, Control_c, 0, 64, 48
2, 173608, Control_c, 0, 64, 47
2, 173648, Note_on_c, 0, 71, 0
2, 173654, Control_c, 0, 64, 48
2, 173668, Note_on_c, 0, 74, 57
2, 173670, Control_c, 0, 64, 48
2, 173685, Control_c, 0, 64, 49
2, 173699, Control_c, 0, 64, 50
2, 173715, Control_c, 0, 64, 50
2, 173730, Control_c, 0, 64, 51
2, 173746, Control_c, 0, 64, 52
2, 173761, Control_c, 0, 64, 53
2, 173801, Note_on_c, 0, 52, 0
2, 173821, Control_c, 0, 64, 52
2, 173835, Note_on_c, 0, 45, 62
2, 173836, Control_c, 0, 64, 51
2, 173841, Note_on_c, 0, 73, 65
2, 173851, Control_c, 0, 64, 48
2, 173852, Note_on_c, 0, 57, 39
2, 173852, Note_on_c, 0, 74, 0
2, 173867, Control_c, 0, 64, 40
2, 173882, Control_c, 0, 64, 0
2, 173978, Note_on_c, 0, 57, 0
2, 173986, Note_on_c, 0, 56, 56
2, 174109, Note_on_c, 0, 68, 0
2, 174134, Note_on_c, 0, 61, 63
2, 174143, Note_on_c, 0, 56, 0
2, 174151, Note_on_c, 0, 54, 60
2, 174250, Note_on_c, 0, 54, 0
2, 174269, Note_on_c, 0, 61, 0
2, 174281, Note_on_c, 0, 63, 65
2, 174285, Note_on_c, 0, 52, 62
2, 174407, Note_on_c, 0, 63, 0
2, 174435, Note_on_c, 0, 52, 0
2, 174440, Note_on_c, 0, 64, 71
2, 174447, Note_on_c, 0, 51, 57
2, 174611, Note_on_c, 0, 51, 0
2, 174619, Note_on_c, 0, 49, 59
2, 174696, Note_on_c, 0, 49, 0
2, 174724, Control_c, 0, 64, 32
2, 174732, Note_on_c, 0, 66, 78
2, 174739, Control_c, 0, 64, 55
2, 174741, Note_on_c, 0, 48, 50
2, 174754, Control_c, 0, 64, 61
2, 174769, Control_c, 0, 64, 62
2, 174798, Note_on_c, 0, 45, 0
2, 174838, Control_c, 0, 64, 61
2, 174853, Control_c, 0, 64, 61
2, 174868, Control_c, 0, 64, 60
2, 174877, Note_on_c, 0, 48, 0
2, 174883, Control_c, 0, 64, 59
2, 174887, Note_on_c, 0, 49, 50
2, 174898, Control_c, 0, 64, 58
2, 174905, Note_on_c, 0, 64, 0
2, 174914, Control_c, 0, 64, 57
2, 174929, Control_c, 0, 64, 55
2, 174934, Note_on_c, 0, 73, 0
2, 174944, Control_c, 0, 64, 49
2, 174960, Control_c, 0, 64, 35
2, 174974, Control_c, 0, 64, 0
2, 174991, Note_on_c, 0, 66, 0
2, 175012, Note_on_c, 0, 49, 0
2, 175040, Note_on_c, 0, 72, 75
2, 175050, Note_on_c, 0, 44, 56
2, 175050, Note_on_c, 0, 68, 58
2, 175058, Note_on_c, 0, 51, 24
2, 175158, Note_on_c, 0, 68, 0
2, 175190, Note_on_c, 0, 66, 70
2, 175242, Note_on_c, 0, 51, 0
2, 175339, Control_c, 0, 64, 56
2, 175341, Note_on_c, 0, 56, 58
2, 175343, Note_on_c, 0, 66, 0
2, 175350, Note_on_c, 0, 68, 66
2, 175355, Control_c, 0, 64, 64
2, 175366, Note_on_c, 0, 44, 0
2, 175370, Control_c, 0, 64, 66
2, 175385, Control_c, 0, 64, 67
2, 175442, Note_on_c, 0, 68, 0
2, 175486, Note_on_c, 0, 69, 64
2, 175507, Control_c, 0, 64, 67
2, 175522, Control_c, 0, 64, 66
2, 175537, Control_c, 0, 64, 65
2, 175553, Control_c, 0, 64, 64
2, 175568, Control_c, 0, 64, 61
2, 175591, Control_c, 0, 64, 52
2, 175594, Note_on_c, 0, 69, 0
2, 175603, Note_on_c, 0, 72, 0
2, 175606, Control_c, 0, 64, 0
2, 175647, Note_on_c, 0, 76, 79
2, 175648, Note_on_c, 0, 61, 68
2, 175657, Note_on_c, 0, 68, 64
2, 175681, Note_on_c, 0, 56, 0
2, 175753, Note_on_c, 0, 68, 0
2, 175756, Note_on_c, 0, 61, 0
2, 175816, Note_on_c, 0, 66, 54
2, 175926, Control_c, 0, 64, 45
2, 175941, Control_c, 0, 64, 63
2, 175954, Note_on_c, 0, 66, 0
2, 175957, Control_c, 0, 64, 65
2, 175971, Control_c, 0, 64, 66
2, 175971, Note_on_c, 0, 61, 55
2, 175978, Note_on_c, 0, 64, 60
2, 176049, Note_on_c, 0, 76, 0
2, 176062, Note_on_c, 0, 61, 0
2, 176078, Control_c, 0, 64, 66
2, 176085, Note_on_c, 0, 68, 55
2, 176123, Control_c, 0, 64, 65
2, 176154, Control_c, 0, 64, 64
2, 176168, Control_c, 0, 64, 64
2, 176183, Control_c, 0, 64, 62
2, 176185, Note_on_c, 0, 64, 0
2, 176199, Control_c, 0, 64, 58
2, 176214, Control_c, 0, 64, 49
2, 176230, Control_c, 0, 64, 15
2, 176245, Control_c, 0, 64, 0
2, 176248, Note_on_c, 0, 75, 79
2, 176249, Note_on_c, 0, 61, 61
2, 176256, Note_on_c, 0, 66, 64
2, 176311, Note_on_c, 0, 68, 0
2, 176380, Note_on_c, 0, 66, 0
2, 176431, Note_on_c, 0, 64, 25
2, 176563, Note_on_c, 0, 60, 54
2, 176567, Note_on_c, 0, 61, 0
2, 176568, Note_on_c, 0, 66, 46
2, 176590, Note_on_c, 0, 64, 0
2, 176693, Note_on_c, 0, 60, 0
2, 176697, Note_on_c, 0, 58, 55
2, 176697, Note_on_c, 0, 66, 0
2, 176704, Note_on_c, 0, 68, 51
2, 176856, Note_on_c, 0, 68, 0
2, 176859, Note_on_c, 0, 60, 55
2, 176872, Note_on_c, 0, 66, 63
2, 176876, Note_on_c, 0, 58, 0
2, 177019, Note_on_c, 0, 64, 49
2, 177037, Note_on_c, 0, 66, 0
2, 177154, Note_on_c, 0, 64, 0
2, 177157, Note_on_c, 0, 63, 45
2, 177290, Note_on_c, 0, 66, 55
2, 177423, Note_on_c, 0, 60, 0
2, 177443, Note_on_c, 0, 61, 53
2, 177447, Note_on_c, 0, 63, 0
2, 177457, Note_on_c, 0, 64, 49
2, 177480, Note_on_c, 0, 66, 0
2, 177599, Note_on_c, 0, 64, 0
2, 177601, Note_on_c, 0, 63, 55
2, 177742, Note_on_c, 0, 68, 66
2, 177748, Note_on_c, 0, 64, 44
2, 177765, Note_on_c, 0, 75, 0
2, 177810, Note_on_c, 0, 63, 0
2, 177852, Note_on_c, 0, 64, 0
2, 177890, Note_on_c, 0, 66, 65
2, 177915, Note_on_c, 0, 68, 0
2, 178020, Note_on_c, 0, 61, 0
2, 178039, Note_on_c, 0, 57, 42
2, 178042, Note_on_c, 0, 66, 0
2, 178051, Note_on_c, 0, 73, 67
2, 178054, Note_on_c, 0, 64, 61
2, 178132, Note_on_c, 0, 64, 0
2, 178165, Note_on_c, 0, 73, 0
2, 178188, Note_on_c, 0, 63, 55
2, 178302, Note_on_c, 0, 63, 0
2, 178347, Note_on_c, 0, 73, 71
2, 178351, Note_on_c, 0, 61, 60
2, 178482, Note_on_c, 0, 61, 0
2, 178494, Note_on_c, 0, 73, 0
2, 178495, Note_on_c, 0, 64, 57
2, 178603, Note_on_c, 0, 64, 0
2, 178627, Note_on_c, 0, 57, 0
2, 178659, Note_on_c, 0, 54, 43
2, 178662, Note_on_c, 0, 73, 68
2, 178678, Note_on_c, 0, 63, 54
2, 178784, Control_c, 0, 64, 37
2, 178800, Control_c, 0, 64, 52
2, 178806, Note_on_c, 0, 61, 55
2, 178815, Control_c, 0, 64, 55
2, 178830, Control_c, 0, 64, 55
2, 178837, Note_on_c, 0, 63, 0
2, 178838, Note_on_c, 0, 73, 0
2, 178845, Control_c, 0, 64, 54
2, 178860, Control_c, 0, 64, 53
2, 178876, Control_c, 0, 64, 52
2, 178890, Control_c, 0, 64, 50
2, 178905, Control_c, 0, 64, 46
2, 178921, Control_c, 0, 64, 38
2, 178936, Control_c, 0, 64, 24
2, 178951, Note_on_c, 0, 71, 73
2, 178952, Control_c, 0, 64, 0
2, 178956, Note_on_c, 0, 63, 64
2, 179033, Note_on_c, 0, 63, 0
2, 179088, Note_on_c, 0, 71, 0
2, 179095, Note_on_c, 0, 69, 65
2, 179099, Note_on_c, 0, 64, 66
2, 179175, Note_on_c, 0, 61, 0
2, 179214, Note_on_c, 0, 69, 0
2, 179241, Note_on_c, 0, 56, 54
2, 179244, Note_on_c, 0, 54, 0
2, 179245, Note_on_c, 0, 64, 0
2, 179254, Note_on_c, 0, 71, 69
2, 179261, Note_on_c, 0, 62, 61
2, 179335, Note_on_c, 0, 62, 0
2, 179412, Note_on_c, 0, 61, 63
2, 179562, Note_on_c, 0, 59, 64
2, 179581, Note_on_c, 0, 61, 0
2, 179711, Note_on_c, 0, 62, 60
2, 179732, Note_on_c, 0, 59, 0
2, 179844, Note_on_c, 0, 62, 0
2, 179858, Note_on_c, 0, 53, 45
2, 179862, Note_on_c, 0, 61, 62
2, 179864, Note_on_c, 0, 56, 0
2, 179992, Note_on_c, 0, 61, 0
2, 180005, Note_on_c, 0, 59, 40
2, 180147, Note_on_c, 0, 49, 62
2, 180161, Note_on_c, 0, 61, 56
2, 180178, Note_on_c, 0, 53, 0
2, 180227, Note_on_c, 0, 71, 0
2, 180297, Note_on_c, 0, 61, 0
2, 180304, Note_on_c, 0, 62, 58
2, 180423, Note_on_c, 0, 62, 0
2, 180456, Note_on_c, 0, 54, 71
2, 180463, Note_on_c, 0, 61, 57
2, 180470, Note_on_c, 0, 69, 64
2, 180496, Note_on_c, 0, 59, 0
2, 180506, Note_on_c, 0, 49, 0
2, 180551, Note_on_c, 0, 61, 0
2, 180557, Note_on_c, 0, 54, 0
2, 180615, Note_on_c, 0, 64, 54
2, 180751, Note_on_c, 0, 64, 0
2, 180765, Note_on_c, 0, 54, 70
2, 180785, Note_on_c, 0, 63, 57
2, 180865, Note_on_c, 0, 54, 0
2, 180887, Note_on_c, 0, 63, 0
2, 180920, Note_on_c, 0, 61, 54
2, 181012, Note_on_c, 0, 61, 0
2, 181087, Note_on_c, 0, 54, 62
2, 181087, Note_on_c, 0, 56, 62
2, 181093, Note_on_c, 0, 68, 63
2, 181099, Note_on_c, 0, 69, 0
2, 181107, Note_on_c, 0, 60, 49
2, 181133, Control_c, 0, 64, 59
2, 181148, Control_c, 0, 64, 66
2, 181164, Control_c, 0, 64, 69
2, 181179, Control_c, 0, 64, 70
2, 181180, Note_on_c, 0, 56, 0
2, 181195, Note_on_c, 0, 54, 0
2, 181271, Control_c, 0, 64, 70
2, 181300, Control_c, 0, 64, 69
2, 181316, Control_c, 0, 64, 69
2, 181331, Control_c, 0, 64, 68
2, 181346, Control_c, 0, 64, 65
2, 181361, Control_c, 0, 64, 57
2, 181376, Control_c, 0, 64, 0
2, 181399, Note_on_c, 0, 52, 61
2, 181411, Note_on_c, 0, 44, 55
2, 181544, Note_on_c, 0, 52, 0
2, 181545, Note_on_c, 0, 51, 64
2, 181682, Note_on_c, 0, 60, 0
2, 181703, Note_on_c, 0, 44, 0
2, 181713, Note_on_c, 0, 61, 67
2, 181714, Note_on_c, 0, 51, 0
2, 181727, Note_on_c, 0, 49, 58
2, 181728, Note_on_c, 0, 52, 63
2, 181820, Note_on_c, 0, 49, 0
2, 181977, Control_c, 0, 64, 17
2, 181993, Control_c, 0, 64, 62
2, 182008, Control_c, 0, 64, 67
2, 182022, Control_c, 0, 64, 72
2, 182025, Note_on_c, 0, 49, 70
2, 182038, Control_c, 0, 64, 75
2, 182053, Control_c, 0, 64, 77
2, 182055, Note_on_c, 0, 68, 0
2, 182056, Note_on_c, 0, 61, 0
2, 182067, Note_on_c, 0, 52, 0
2, 182068, Control_c, 0, 64, 79
2, 182084, Control_c, 0, 64, 80
2, 182099, Control_c, 0, 64, 81
2, 182102, Note_on_c, 0, 49, 0
2, 182115, Control_c, 0, 64, 81
2, 182129, Control_c, 0, 64, 82
2, 182144, Control_c, 0, 64, 83
2, 182160, Control_c, 0, 64, 83
2, 182175, Control_c, 0, 64, 84
2, 182205, Control_c, 0, 64, 84
2, 182263, Control_c, 0, 64, 84
2, 182279, Control_c, 0, 64, 83
2, 182294, Control_c, 0, 64, 80
2, 182309, Control_c, 0, 64, 74
2, 182325, Control_c, 0, 64, 65
2, 182339, Control_c, 0, 64, 0
2, 182355, Note_on_c, 0, 75, 79
2, 182361, Note_on_c, 0, 51, 49
2, 182362, Note_on_c, 0, 63, 68
2, 182365, Note_on_c, 0, 49, 50
2, 182369, Note_on_c, 0, 55, 46
2, 182540, Note_on_c, 0, 63, 0
2, 182667, Note_on_c, 0, 63, 66
2, 182673, Note_on_c, 0, 49, 0
2, 182674, Note_on_c, 0, 51, 0
2, 182677, Note_on_c, 0, 47, 55
2, 182702, Note_on_c, 0, 55, 0
2, 182794, Note_on_c, 0, 47, 0
2, 182815, Note_on_c, 0, 46, 51
2, 182941, Note_on_c, 0, 63, 0
2, 182949, Note_on_c, 0, 47, 59
2, 182950, Note_on_c, 0, 68, 72
2, 182959, Note_on_c, 0, 46, 0
2, 182964, Note_on_c, 0, 56, 44
2, 183072, Note_on_c, 0, 47, 0
2, 183080, Note_on_c, 0, 46, 64
2, 183085, Note_on_c, 0, 56, 0
2, 183085, Note_on_c, 0, 56, 10
2, 183096, Note_on_c, 0, 70, 75
2, 183142, Note_on_c, 0, 68, 0
2, 183235, Note_on_c, 0, 70, 0
2, 183243, Note_on_c, 0, 71, 78
2, 183256, Note_on_c, 0, 44, 67
2, 183256, Note_on_c, 0, 56, 0
2, 183284, Note_on_c, 0, 46, 0
2, 183387, Note_on_c, 0, 47, 58
2, 183415, Note_on_c, 0, 44, 0
2, 183536, Note_on_c, 0, 46, 60
2, 183538, Note_on_c, 0, 47, 0
2, 183539, Note_on_c, 0, 74, 86
2, 183541, Note_on_c, 0, 71, 0
2, 183552, Note_on_c, 0, 53, 33
2, 183613, Note_on_c, 0, 75, 0
2, 183693, Note_on_c, 0, 44, 58
2, 183698, Note_on_c, 0, 46, 0
2, 183841, Note_on_c, 0, 44, 0
2, 183843, Note_on_c, 0, 46, 60
2, 183848, Note_on_c, 0, 70, 65
2, 183970, Note_on_c, 0, 46, 0
2, 183981, Note_on_c, 0, 47, 61
2, 184120, Note_on_c, 0, 70, 0
2, 184139, Note_on_c, 0, 78, 87
2, 184142, Note_on_c, 0, 46, 65
2, 184142, Note_on_c, 0, 75, 74
2, 184143, Note_on_c, 0, 47, 0
2, 184145, Note_on_c, 0, 53, 0
2, 184222, Note_on_c, 0, 74, 0
2, 184261, Note_on_c, 0, 75, 0
2, 184291, Note_on_c, 0, 46, 0
2, 184292, Note_on_c, 0, 44, 63
2, 184439, Note_on_c, 0, 44, 0
2, 184443, Note_on_c, 0, 75, 73
2, 184445, Note_on_c, 0, 42, 56
2, 184537, Note_on_c, 0, 75, 0
2, 184570, Note_on_c, 0, 42, 0
2, 184575, Note_on_c, 0, 46, 65
2, 184704, Note_on_c, 0, 78, 0
2, 184717, Note_on_c, 0, 44, 64
2, 184719, Note_on_c, 0, 75, 80
2, 184721, Note_on_c, 0, 77, 84
2, 184730, Note_on_c, 0, 46, 0
2, 184866, Note_on_c, 0, 44, 0
2, 184870, Note_on_c, 0, 42, 63
2, 185033, Note_on_c, 0, 44, 63
2, 185040, Note_on_c, 0, 42, 0
2, 185048, Note_on_c, 0, 73, 77
2, 185143, Note_on_c, 0, 44, 0
2, 185146, Note_on_c, 0, 46, 59
2, 185167, Note_on_c, 0, 72, 77
2, 185173, Note_on_c, 0, 75, 0
2, 185193, Note_on_c, 0, 73, 0
2, 185317, Note_on_c, 0, 46, 0
2, 185321, Note_on_c, 0, 44, 65
2, 185332, Note_on_c, 0, 76, 81
2, 185335, Note_on_c, 0, 73, 73
2, 185360, Note_on_c, 0, 72, 0
2, 185389, Note_on_c, 0, 77, 0
2, 185465, Note_on_c, 0, 47, 65
2, 185482, Note_on_c, 0, 44, 0
2, 185644, Note_on_c, 0, 46, 68
2, 185651, Note_on_c, 0, 47, 0
2, 185772, Note_on_c, 0, 44, 68
2, 185789, Note_on_c, 0, 46, 0
2, 185922, Note_on_c, 0, 73, 0
2, 185928, Note_on_c, 0, 43, 68
2, 185941, Note_on_c, 0, 44, 0
2, 185941, Note_on_c, 0, 75, 60
2, 186108, Note_on_c, 0, 73, 55
2, 186111, Note_on_c, 0, 75, 0
2, 186140, Note_on_c, 0, 76, 0
2, 186226, Note_on_c, 0, 51, 59
2, 186237, Note_on_c, 0, 75, 70
2, 186361, Note_on_c, 0, 75, 0
2, 186373, Note_on_c, 0, 76, 62
2, 186517, Note_on_c, 0, 56, 53
2, 186530, Note_on_c, 0, 73, 0
2, 186531, Note_on_c, 0, 75, 69
2, 186537, Note_on_c, 0, 44, 59
2, 186540, Note_on_c, 0, 71, 56
2, 186545, Note_on_c, 0, 51, 0
2, 186554, Note_on_c, 0, 43, 0
2, 186618, Note_on_c, 0, 56, 0
2, 186652, Note_on_c, 0, 71, 0
2, 186668, Note_on_c, 0, 73, 64
2, 186745, Note_on_c, 0, 76, 0
2, 186755, Note_on_c, 0, 75, 0
2, 186822, Note_on_c, 0, 56, 68
2, 186832, Note_on_c, 0, 71, 60
2, 186851, Note_on_c, 0, 73, 0
2, 186934, Note_on_c, 0, 56, 0
2, 186965, Note_on_c, 0, 75, 61
2, 187071, Note_on_c, 0, 71, 0
2, 187117, Note_on_c, 0, 75, 0
2, 187124, Note_on_c, 0, 46, 60
2, 187128, Note_on_c, 0, 56, 65
2, 187130, Note_on_c, 0, 73, 61
2, 187137, Note_on_c, 0, 44, 0
2, 187138, Note_on_c, 0, 70, 53
2, 187255, Note_on_c, 0, 73, 0
2, 187289, Note_on_c, 0, 71, 53
2, 187291, Note_on_c, 0, 70, 0
2, 187313, Note_on_c, 0, 46, 0
2, 187404, Note_on_c, 0, 46, 48
2, 187420, Note_on_c, 0, 56, 0
2, 187441, Note_on_c, 0, 73, 60
2, 187442, Note_on_c, 0, 54, 51
2, 187477, Note_on_c, 0, 71, 0
2, 187521, Note_on_c, 0, 54, 0
2, 187570, Note_on_c, 0, 73, 0
2, 187579, Note_on_c, 0, 75, 58
2, 187723, Note_on_c, 0, 54, 48
2, 187729, Note_on_c, 0, 51, 47
2, 187741, Note_on_c, 0, 73, 61
2, 187744, Note_on_c, 0, 69, 56
2, 187766, Note_on_c, 0, 46, 0
2, 187797, Note_on_c, 0, 75, 0
2, 187892, Note_on_c, 0, 73, 0
2, 187907, Note_on_c, 0, 76, 63
2, 188051, Note_on_c, 0, 75, 65
2, 188121, Note_on_c, 0, 76, 0
2, 188164, Note_on_c, 0, 73, 64
2, 188166, Note_on_c, 0, 75, 0
2, 188285, Note_on_c, 0, 69, 0
2, 188323, Note_on_c, 0, 73, 0
2, 188331, Note_on_c, 0, 72, 69
2, 188341, Note_on_c, 0, 44, 56
2, 188371, Note_on_c, 0, 54, 0
2, 188403, Note_on_c, 0, 51, 0
2, 188481, Note_on_c, 0, 57, 41
2, 188618, Note_on_c, 0, 57, 0
2, 188634, Note_on_c, 0, 63, 68
2, 188646, Note_on_c, 0, 56, 55
2, 188780, Note_on_c, 0, 54, 57
2, 188780, Note_on_c, 0, 56, 0
2, 188908, Note_on_c, 0, 44, 0
2, 188927, Note_on_c, 0, 54, 0
2, 188927, Note_on_c, 0, 63, 0
2, 188927, Note_on_c, 0, 71, 69
2, 188927, Note_on_c, 0, 72, 0
2, 188934, Note_on_c, 0, 68, 68
2, 188939, Note_on_c, 0, 53, 59
2, 189067, Note_on_c, 0, 51, 61
2, 189067, Note_on_c, 0, 68, 0
2, 189072, Note_on_c, 0, 53, 0
2, 189229, Note_on_c, 0, 68, 72
2, 189235, Note_on_c, 0, 51, 0
2, 189237, Note_on_c, 0, 53, 66
2, 189335, Note_on_c, 0, 68, 0
2, 189375, Note_on_c, 0, 49, 64
2, 189379, Note_on_c, 0, 53, 0
2, 189535, Note_on_c, 0, 71, 0
2, 189537, Note_on_c, 0, 49, 0
2, 189540, Note_on_c, 0, 54, 63
2, 189542, Note_on_c, 0, 70, 73
2, 189544, Note_on_c, 0, 68, 72
2, 189679, Note_on_c, 0, 53, 67
2, 189683, Note_on_c, 0, 54, 0
2, 189832, Note_on_c, 0, 54, 65
2, 189842, Note_on_c, 0, 66, 67
2, 189855, Note_on_c, 0, 53, 0
2, 189887, Note_on_c, 0, 68, 0
2, 189982, Note_on_c, 0, 56, 69
2, 189990, Note_on_c, 0, 65, 79
2, 189990, Note_on_c, 0, 66, 0
2, 190004, Note_on_c, 0, 54, 0
2, 190140, Note_on_c, 0, 69, 78
2, 190141, Note_on_c, 0, 66, 77
2, 190149, Note_on_c, 0, 57, 74
2, 190180, Note_on_c, 0, 56, 0
2, 190186, Note_on_c, 0, 65, 0
2, 190302, Note_on_c, 0, 56, 74
2, 190340, Note_on_c, 0, 57, 0
2, 190456, Note_on_c, 0, 69, 0
2, 190456, Note_on_c, 0, 70, 0
2, 190461, Note_on_c, 0, 57, 80
2, 190473, Note_on_c, 0, 56, 0
2, 190499, Note_on_c, 0, 66, 0
2, 190529, Control_c, 0, 64, 52
2, 190544, Control_c, 0, 64, 64
2, 190562, Control_c, 0, 64, 68
2, 190576, Control_c, 0, 64, 75
2, 190591, Control_c, 0, 64, 85
2, 190607, Control_c, 0, 64, 98
2, 190612, Note_on_c, 0, 59, 77
2, 190622, Control_c, 0, 64, 118
2, 190633, Note_on_c, 0, 59, 0
2, 190637, Control_c, 0, 64, 127
2, 190640, Note_on_c, 0, 57, 0
2, 190816, Note_on_c, 0, 37, 78
2, 190816, Note_on_c, 0, 66, 69
2, 190818, Note_on_c, 0, 61, 65
2, 190818, Note_on_c, 0, 68, 71
2, 190865, Control_c, 0, 64, 110
2, 190881, Control_c, 0, 64, 91
2, 190896, Control_c, 0, 64, 73
2, 190910, Control_c, 0, 64, 0
2, 190987, Note_on_c, 0, 61, 0
2, 190989, Note_on_c, 0, 60, 72
2, 190995, Note_on_c, 0, 66, 0
2, 191149, Note_on_c, 0, 61, 70
2, 191199, Note_on_c, 0, 60, 0
2, 191304, Note_on_c, 0, 63, 77
2, 191364, Note_on_c, 0, 61, 0
2, 191452, Note_on_c, 0, 64, 79
2, 191489, Note_on_c, 0, 63, 0
2, 191602, Note_on_c, 0, 63, 80
2, 191622, Note_on_c, 0, 64, 0
2, 191740, Note_on_c, 0, 63, 0
2, 191746, Note_on_c, 0, 64, 75
2, 191870, Note_on_c, 0, 66, 78
2, 191899, Note_on_c, 0, 68, 0
2, 191987, Note_on_c, 0, 64, 0
2, 192024, Note_on_c, 0, 36, 82
2, 192030, Note_on_c, 0, 68, 70
2, 192036, Note_on_c, 0, 37, 0
2, 192043, Note_on_c, 0, 63, 58
2, 192047, Note_on_c, 0, 66, 0
2, 192180, Note_on_c, 0, 66, 55
2, 192208, Note_on_c, 0, 68, 0
2, 192271, Note_on_c, 0, 66, 0
2, 192311, Note_on_c, 0, 44, 70
2, 192329, Note_on_c, 0, 68, 66
2, 192462, Note_on_c, 0, 68, 0
2, 192495, Note_on_c, 0, 69, 60
2, 192587, Note_on_c, 0, 36, 0
2, 192613, Note_on_c, 0, 40, 79
2, 192632, Note_on_c, 0, 68, 65
2, 192653, Note_on_c, 0, 44, 0
2, 192653, Note_on_c, 0, 61, 41
2, 192660, Note_on_c, 0, 69, 0
2, 192662, Note_on_c, 0, 63, 0
2, 192776, Note_on_c, 0, 66, 59
2, 192888, Note_on_c, 0, 68, 0
2, 192915, Note_on_c, 0, 49, 71
2, 192920, Note_on_c, 0, 66, 0
2, 192926, Note_on_c, 0, 64, 56
2, 192950, Note_on_c, 0, 61, 0
2, 193046, Note_on_c, 0, 49, 0
2, 193071, Note_on_c, 0, 68, 58
2, 193161, Note_on_c, 0, 64, 0
2, 193207, Note_on_c, 0, 49, 63
2, 193212, Note_on_c, 0, 39, 80
2, 193213, Note_on_c, 0, 66, 65
2, 193227, Note_on_c, 0, 63, 52
2, 193243, Note_on_c, 0, 40, 0
2, 193282, Note_on_c, 0, 68, 0
2, 193367, Note_on_c, 0, 66, 0
2, 193383, Note_on_c, 0, 64, 58
2, 193527, Note_on_c, 0, 66, 67
2, 193529, Note_on_c, 0, 48, 66
2, 193556, Note_on_c, 0, 64, 0
2, 193566, Note_on_c, 0, 49, 0
2, 193622, Note_on_c, 0, 63, 0
2, 193668, Note_on_c, 0, 48, 0
2, 193668, Note_on_c, 0, 68, 70
2, 193672, Note_on_c, 0, 46, 63
2, 193674, Note_on_c, 0, 66, 0
2, 193825, Note_on_c, 0, 48, 74
2, 193825, Note_on_c, 0, 66, 67
2, 193837, Note_on_c, 0, 46, 0
2, 193917, Note_on_c, 0, 68, 0
2, 193974, Note_on_c, 0, 64, 69
2, 193979, Note_on_c, 0, 66, 0
2, 194132, Note_on_c, 0, 64, 0
2, 194141, Note_on_c, 0, 63, 66
2, 194265, Note_on_c, 0, 66, 70
2, 194319, Note_on_c, 0, 63, 0
2, 194429, Note_on_c, 0, 37, 63
2, 194434, Note_on_c, 0, 49, 56
2, 194437, Note_on_c, 0, 73, 80
2, 194453, Note_on_c, 0, 64, 63
2, 194457, Note_on_c, 0, 66, 0
2, 194473, Note_on_c, 0, 39, 0
2, 194475, Note_on_c, 0, 48, 0
2, 194553, Note_on_c, 0, 37, 0
2, 194575, Note_on_c, 0, 63, 71
2, 194575, Note_on_c, 0, 64, 0
2, 194728, Note_on_c, 0, 37, 61
2, 194746, Note_on_c, 0, 64, 64
2, 194747, Note_on_c, 0, 63, 0
2, 194876, Note_on_c, 0, 39, 67
2, 194894, Note_on_c, 0, 66, 61
2, 194896, Note_on_c, 0, 37, 0
2, 194896, Note_on_c, 0, 64, 0
2, 195032, Note_on_c, 0, 66, 0
2, 195034, Note_on_c, 0, 40, 71
2, 195042, Note_on_c, 0, 64, 67
2, 195048, Note_on_c, 0, 39, 0
2, 195133, Note_on_c, 0, 64, 0
2, 195178, Note_on_c, 0, 63, 66
2, 195334, Note_on_c, 0, 42, 70
2, 195337, Note_on_c, 0, 61, 70
2, 195339, Note_on_c, 0, 63, 0
2, 195341, Note_on_c, 0, 73, 0
2, 195346, Note_on_c, 0, 40, 0
2, 195465, Note_on_c, 0, 61, 0
2, 195465, Note_on_c, 0, 64, 67
2, 195629, Note_on_c, 0, 44, 56
2, 195632, Note_on_c, 0, 72, 84
2, 195636, Note_on_c, 0, 42, 0
2, 195638, Note_on_c, 0, 49, 0
2, 195643, Note_on_c, 0, 63, 64
2, 195643, Note_on_c, 0, 64, 0
2, 195774, Note_on_c, 0, 42, 54
2, 195780, Note_on_c, 0, 44, 0
2, 195922, Control_c, 0, 64, 34
2, 195928, Note_on_c, 0, 68, 79
2, 195934, Note_on_c, 0, 44, 63
2, 195935, Note_on_c, 0, 63, 0
2, 195937, Control_c, 0, 64, 61
2, 195945, Note_on_c, 0, 42, 0
2, 195947, Note_on_c, 0, 72, 0
2, 195953, Control_c, 0, 64, 65
2, 195967, Control_c, 0, 64, 67
2, 195982, Control_c, 0, 64, 68
2, 196028, Control_c, 0, 64, 69
2, 196044, Control_c, 0, 64, 69
2, 196063, Note_on_c, 0, 44, 0
2, 196072, Note_on_c, 0, 45, 66
2, 196075, Control_c, 0, 64, 69
2, 196089, Control_c, 0, 64, 68
2, 196104, Control_c, 0, 64, 67
2, 196120, Control_c, 0, 64, 65
2, 196135, Control_c, 0, 64, 61
2, 196151, Control_c, 0, 64, 48
2, 196165, Control_c, 0, 64, 0
2, 196216, Note_on_c, 0, 44, 65
2, 196218, Note_on_c, 0, 76, 87
2, 196219, Note_on_c, 0, 73, 79
2, 196252, Note_on_c, 0, 45, 0
2, 196260, Note_on_c, 0, 68, 0
2, 196364, Note_on_c, 0, 73, 0
2, 196375, Note_on_c, 0, 42, 62
2, 196411, Note_on_c, 0, 44, 0
2, 196527, Note_on_c, 0, 73, 77
2, 196531, Note_on_c, 0, 42, 0
2, 196532, Note_on_c, 0, 40, 67
2, 196625, Note_on_c, 0, 73, 0
2, 196655, Note_on_c, 0, 44, 69
2, 196656, Note_on_c, 0, 40, 0
2, 196814, Note_on_c, 0, 42, 67
2, 196816, Note_on_c, 0, 73, 80
2, 196818, Note_on_c, 0, 75, 75
2, 196834, Note_on_c, 0, 44, 0
2, 196838, Note_on_c, 0, 76, 0
2, 196961, Note_on_c, 0, 40, 63
2, 196967, Note_on_c, 0, 42, 0
2, 197115, Note_on_c, 0, 42, 66
2, 197118, Note_on_c, 0, 40, 0
2, 197123, Note_on_c, 0, 72, 71
2, 197216, Note_on_c, 0, 72, 0
2, 197255, Note_on_c, 0, 44, 66
2, 197266, Note_on_c, 0, 42, 0
2, 197273, Note_on_c, 0, 70, 67
2, 197408, Note_on_c, 0, 73, 0
2, 197411, Note_on_c, 0, 42, 65
2, 197426, Note_on_c, 0, 44, 0
2, 197427, Note_on_c, 0, 72, 76
2, 197444, Note_on_c, 0, 70, 0
2, 197481, Note_on_c, 0, 75, 0
2, 197554, Note_on_c, 0, 40, 68
2, 197565, Note_on_c, 0, 42, 0
2, 197565, Note_on_c, 0, 73, 77
2, 197598, Note_on_c, 0, 72, 0
2, 197706, Note_on_c, 0, 39, 71
2, 197706, Note_on_c, 0, 40, 0
2, 197716, Note_on_c, 0, 75, 80
2, 197725, Note_on_c, 0, 73, 0
2, 197836, Note_on_c, 0, 42, 70
2, 197846, Note_on_c, 0, 39, 0
2, 197866, Note_on_c, 0, 72, 67
2, 197981, Note_on_c, 0, 72, 0
2, 197999, Note_on_c, 0, 40, 76
2, 198005, Note_on_c, 0, 42, 0
2, 198013, Note_on_c, 0, 68, 64
2, 198154, Note_on_c, 0, 68, 0
2, 198168, Note_on_c, 0, 66, 59
2, 198301, Note_on_c, 0, 52, 78
2, 198310, Note_on_c, 0, 68, 61
2, 198322, Note_on_c, 0, 40, 0
2, 198345, Note_on_c, 0, 66, 0
2, 198393, Note_on_c, 0, 68, 0
2, 198439, Note_on_c, 0, 69, 57
2, 198533, Note_on_c, 0, 75, 0
2, 198583, Note_on_c, 0, 57, 76
2, 198604, Note_on_c, 0, 68, 64
2, 198613, Note_on_c, 0, 69, 0
2, 198619, Note_on_c, 0, 73, 64
2, 198623, Note_on_c, 0, 52, 0
2, 198697, Note_on_c, 0, 57, 0
2, 198750, Note_on_c, 0, 66, 56
2, 198851, Note_on_c, 0, 66, 0
2, 198857, Note_on_c, 0, 68, 0
2, 198893, Note_on_c, 0, 57, 69
2, 198912, Note_on_c, 0, 64, 63
2, 199022, Note_on_c, 0, 57, 0
2, 199044, Note_on_c, 0, 64, 0
2, 199056, Note_on_c, 0, 68, 63
2, 199191, Note_on_c, 0, 68, 0
2, 199194, Note_on_c, 0, 57, 67
2, 199203, Note_on_c, 0, 66, 61
2, 199333, Note_on_c, 0, 66, 0
2, 199349, Note_on_c, 0, 64, 53
2, 199494, Note_on_c, 0, 56, 65
2, 199505, Note_on_c, 0, 66, 61
2, 199527, Note_on_c, 0, 57, 0
2, 199573, Note_on_c, 0, 64, 0
2, 199586, Note_on_c, 0, 73, 0
2, 199600, Note_on_c, 0, 66, 0
2, 199639, Note_on_c, 0, 54, 65
2, 199643, Note_on_c, 0, 68, 65
2, 199652, Note_on_c, 0, 56, 0
2, 199784, Note_on_c, 0, 68, 0
2, 199791, Note_on_c, 0, 54, 0
2, 199798, Note_on_c, 0, 56, 69
2, 199805, Note_on_c, 0, 72, 60
2, 199806, Note_on_c, 0, 66, 58
2, 199897, Note_on_c, 0, 66, 0
2, 199958, Note_on_c, 0, 64, 48
2, 200097, Note_on_c, 0, 64, 0
2, 200101, Note_on_c, 0, 44, 51
2, 200110, Note_on_c, 0, 63, 53
2, 200141, Note_on_c, 0, 56, 0
2, 200260, Note_on_c, 0, 63, 0
2, 200265, Note_on_c, 0, 66, 57
2, 200383, Note_on_c, 0, 66, 0
2, 200415, Note_on_c, 0, 49, 63
2, 200421, Note_on_c, 0, 64, 64
2, 200509, Note_on_c, 0, 64, 0
2, 200565, Note_on_c, 0, 68, 68
2, 200655, Note_on_c, 0, 72, 0
2, 200667, Note_on_c, 0, 68, 0
2, 200707, Note_on_c, 0, 47, 61
2, 200717, Note_on_c, 0, 73, 73
2, 200719, Note_on_c, 0, 69, 61
2, 200750, Note_on_c, 0, 44, 0
2, 200809, Note_on_c, 0, 73, 0
2, 200853, Note_on_c, 0, 75, 70
2, 200858, Note_on_c, 0, 71, 69
2, 200876, Note_on_c, 0, 69, 0
2, 200978, Note_on_c, 0, 75, 0
2, 201018, Note_on_c, 0, 76, 75
2, 201021, Note_on_c, 0, 73, 74
2, 201023, Note_on_c, 0, 45, 60
2, 201032, Note_on_c, 0, 47, 0
2, 201045, Note_on_c, 0, 71, 0
2, 201112, Control_c, 0, 64, 43
2, 201123, Note_on_c, 0, 76, 0
2, 201128, Control_c, 0, 64, 61
2, 201143, Control_c, 0, 64, 62
2, 201167, Note_on_c, 0, 75, 78
2, 201234, Control_c, 0, 64, 62
2, 201280, Control_c, 0, 64, 62
2, 201296, Control_c, 0, 64, 61
2, 201310, Control_c, 0, 64, 59
2, 201323, Note_on_c, 0, 73, 0
2, 201326, Control_c, 0, 64, 52
2, 201329, Note_on_c, 0, 78, 85
2, 201333, Note_on_c, 0, 72, 68
2, 201337, Note_on_c, 0, 75, 0
2, 201341, Control_c, 0, 64, 0
2, 201463, Note_on_c, 0, 73, 79
2, 201475, Note_on_c, 0, 72, 0
2, 201518, Note_on_c, 0, 78, 0
2, 201521, Note_on_c, 0, 73, 0
2, 201599, Control_c, 0, 64, 58
2, 201615, Control_c, 0, 64, 73
2, 201617, Note_on_c, 0, 80, 79
2, 201619, Note_on_c, 0, 44, 74
2, 201619, Note_on_c, 0, 48, 52
2, 201620, Note_on_c, 0, 75, 67
2, 201630, Control_c, 0, 64, 85
2, 201646, Control_c, 0, 64, 94
2, 201661, Control_c, 0, 64, 96
2, 201662, Note_on_c, 0, 49, 0
2, 201665, Note_on_c, 0, 45, 0
2, 201690, Note_on_c, 0, 48, 0
2, 201711, Note_on_c, 0, 44, 0
2, 201729, Note_on_c, 0, 75, 0
2, 201777, Note_on_c, 0, 78, 82
2, 201801, Note_on_c, 0, 80, 0
2, 201881, Control_c, 0, 64, 95
2, 201897, Control_c, 0, 64, 92
2, 201912, Control_c, 0, 64, 83
2, 201925, Note_on_c, 0, 80, 83
2, 201927, Control_c, 0, 64, 71
2, 201939, Note_on_c, 0, 56, 71
2, 201942, Control_c, 0, 64, 42
2, 201946, Note_on_c, 0, 78, 0
2, 201957, Control_c, 0, 64, 0
2, 202071, Note_on_c, 0, 81, 73
2, 202083, Note_on_c, 0, 80, 0
2, 202215, Note_on_c, 0, 61, 77
2, 202224, Note_on_c, 0, 52, 67
2, 202235, Note_on_c, 0, 80, 72
2, 202255, Note_on_c, 0, 56, 0
2, 202276, Note_on_c, 0, 81, 0
2, 202315, Note_on_c, 0, 61, 0
2, 202376, Note_on_c, 0, 80, 0
2, 202377, Note_on_c, 0, 78, 66
2, 202528, Note_on_c, 0, 61, 75
2, 202536, Note_on_c, 0, 76, 62
2, 202537, Note_on_c, 0, 78, 0
2, 202628, Note_on_c, 0, 61, 0
2, 202661, Note_on_c, 0, 76, 0
2, 202664, Note_on_c, 0, 80, 69
2, 202821, Note_on_c, 0, 80, 0
2, 202826, Note_on_c, 0, 61, 65
2, 202828, Note_on_c, 0, 78, 72
2, 202841, Note_on_c, 0, 51, 61
2, 202864, Note_on_c, 0, 52, 0
2, 202969, Note_on_c, 0, 76, 71
2, 203007, Note_on_c, 0, 78, 0
2, 203107, Note_on_c, 0, 61, 0
2, 203123, Note_on_c, 0, 60, 61
2, 203128, Note_on_c, 0, 78, 75
2, 203152, Note_on_c, 0, 76, 0
2, 203272, Note_on_c, 0, 60, 0
2, 203279, Note_on_c, 0, 80, 71
2, 203280, Note_on_c, 0, 58, 56
2, 203292, Note_on_c, 0, 78, 0
2, 203426, Note_on_c, 0, 78, 68
2, 203435, Note_on_c, 0, 60, 57
2, 203438, Note_on_c, 0, 58, 0
2, 203462, Note_on_c, 0, 80, 0
2, 203547, Note_on_c, 0, 78, 0
2, 203576, Note_on_c, 0, 76, 59
2, 203730, Note_on_c, 0, 75, 56
2, 203732, Note_on_c, 0, 76, 0
2, 203850, Note_on_c, 0, 75, 0
2, 203860, Note_on_c, 0, 78, 59
2, 203997, Note_on_c, 0, 51, 0
2, 204025, Note_on_c, 0, 76, 56
2, 204031, Note_on_c, 0, 49, 50
2, 204031, Note_on_c, 0, 61, 50
2, 204039, Note_on_c, 0, 60, 0
2, 204106, Note_on_c, 0, 78, 0
2, 204131, Note_on_c, 0, 76, 0
2, 204172, Note_on_c, 0, 75, 54
2, 204325, Note_on_c, 0, 52, 58
2, 204331, Note_on_c, 0, 75, 0
2, 204337, Note_on_c, 0, 76, 53
2, 204366, Note_on_c, 0, 49, 0
2, 204450, Note_on_c, 0, 76, 0
2, 204469, Note_on_c, 0, 78, 47
2, 204615, Note_on_c, 0, 57, 58
2, 204633, Note_on_c, 0, 76, 52
2, 204690, Note_on_c, 0, 52, 0
2, 204726, Note_on_c, 0, 78, 0
2, 204729, Note_on_c, 0, 57, 0
2, 204729, Note_on_c, 0, 76, 0
2, 204795, Note_on_c, 0, 74, 42
2, 204918, Note_on_c, 0, 74, 0
2, 204930, Note_on_c, 0, 57, 65
2, 204935, Note_on_c, 0, 73, 50
2, 205024, Note_on_c, 0, 57, 0
2, 205040, Note_on_c, 0, 61, 0
2, 205055, Note_on_c, 0, 73, 0
2, 205070, Note_on_c, 0, 76, 49
2, 205223, Note_on_c, 0, 76, 0
2, 205226, Note_on_c, 0, 59, 46
2, 205228, Note_on_c, 0, 74, 62
2, 205253, Note_on_c, 0, 57, 28
2, 205358, Note_on_c, 0, 74, 0
2, 205376, Note_on_c, 0, 73, 55
2, 205533, Note_on_c, 0, 66, 70
2, 205541, Note_on_c, 0, 74, 63
2, 205546, Note_on_c, 0, 73, 0
2, 205547, Note_on_c, 0, 57, 0
2, 205549, Note_on_c, 0, 56, 47
2, 205670, Note_on_c, 0, 74, 0
2, 205673, Note_on_c, 0, 56, 0
2, 205691, Note_on_c, 0, 54, 38
2, 205691, Note_on_c, 0, 76, 54
2, 205822, Note_on_c, 0, 66, 0
2, 205824, Note_on_c, 0, 76, 0
2, 205832, Note_on_c, 0, 56, 48
2, 205833, Note_on_c, 0, 54, 0
2, 205840, Note_on_c, 0, 74, 57
2, 205841, Note_on_c, 0, 71, 62
2, 205954, Note_on_c, 0, 74, 0
2, 205959, Note_on_c, 0, 71, 0
2, 205970, Note_on_c, 0, 73, 58
2, 206144, Note_on_c, 0, 71, 62
2, 206146, Note_on_c, 0, 66, 53
2, 206177, Control_c, 0, 64, 30
2, 206192, Control_c, 0, 64, 59
2, 206207, Note_on_c, 0, 73, 0
2, 206208, Control_c, 0, 64, 63
2, 206222, Control_c, 0, 64, 61
2, 206237, Control_c, 0, 64, 60
2, 206253, Control_c, 0, 64, 60
2, 206268, Control_c, 0, 64, 59
2, 206283, Control_c, 0, 64, 59
2, 206294, Note_on_c, 0, 74, 48
2, 206295, Note_on_c, 0, 66, 0
2, 206306, Control_c, 0, 64, 57
2, 206306, Note_on_c, 0, 71, 0
2, 206315, Note_on_c, 0, 74, 0
2, 206321, Control_c, 0, 64, 55
2, 206337, Control_c, 0, 64, 50
2, 206351, Control_c, 0, 64, 46
2, 206367, Control_c, 0, 64, 37
2, 206382, Control_c, 0, 64, 13
2, 206397, Control_c, 0, 64, 0
2, 206438, Note_on_c, 0, 73, 57
2, 206456, Note_on_c, 0, 65, 50
2, 206463, Note_on_c, 0, 71, 36
2, 206516, Note_on_c, 0, 71, 0
2, 206522, Note_on_c, 0, 73, 0
2, 206598, Note_on_c, 0, 71, 60
2, 206614, Note_on_c, 0, 65, 0
2, 206736, Note_on_c, 0, 49, 46
2, 206740, Note_on_c, 0, 73, 58
2, 206747, Note_on_c, 0, 69, 59
2, 206750, Note_on_c, 0, 56, 0
2, 206830, Note_on_c, 0, 69, 0
2, 206859, Note_on_c, 0, 73, 0
2, 206868, Note_on_c, 0, 71, 0
2, 206877, Note_on_c, 0, 68, 67
2, 206883, Note_on_c, 0, 74, 63
2, 206947, Note_on_c, 0, 68, 0
2, 207020, Note_on_c, 0, 54, 63
2, 207024, Note_on_c, 0, 74, 0
2, 207037, Note_on_c, 0, 66, 60
2, 207038, Note_on_c, 0, 69, 65
2, 207040, Note_on_c, 0, 73, 64
2, 207082, Note_on_c, 0, 49, 0
2, 207091, Note_on_c, 0, 59, 0
2, 207110, Note_on_c, 0, 69, 0
2, 207138, Note_on_c, 0, 54, 0
2, 207177, Note_on_c, 0, 71, 66
2, 207240, Note_on_c, 0, 73, 0
2, 207297, Note_on_c, 0, 71, 0
2, 207329, Note_on_c, 0, 54, 65
2, 207329, Note_on_c, 0, 69, 68
2, 207373, Note_on_c, 0, 66, 0
2, 207422, Note_on_c, 0, 54, 0
2, 207469, Note_on_c, 0, 73, 62
2, 207538, Note_on_c, 0, 69, 0
2, 207584, Note_on_c, 0, 73, 0
2, 207621, Note_on_c, 0, 56, 53
2, 207621, Note_on_c, 0, 68, 56
2, 207623, Note_on_c, 0, 71, 60
2, 207625, Note_on_c, 0, 54, 54
2, 207641, Note_on_c, 0, 59, 45
2, 207737, Note_on_c, 0, 71, 0
2, 207758, Note_on_c, 0, 69, 64
2, 207917, Note_on_c, 0, 53, 57
2, 207917, Note_on_c, 0, 56, 0
2, 207920, Note_on_c, 0, 69, 0
2, 207923, Note_on_c, 0, 71, 64
2, 207937, Note_on_c, 0, 59, 0
2, 207945, Note_on_c, 0, 54, 0
2, 208015, Note_on_c, 0, 68, 0
2, 208049, Note_on_c, 0, 53, 0
2, 208050, Note_on_c, 0, 71, 0
2, 208057, Note_on_c, 0, 51, 53
2, 208058, Note_on_c, 0, 73, 69
2, 208220, Note_on_c, 0, 71, 60
2, 208226, Note_on_c, 0, 51, 0
2, 208227, Note_on_c, 0, 53, 54
2, 208228, Note_on_c, 0, 61, 53
2, 208299, Note_on_c, 0, 73, 0
2, 208345, Note_on_c, 0, 71, 0
2, 208363, Note_on_c, 0, 69, 62
2, 208495, Note_on_c, 0, 69, 0
2, 208513, Note_on_c, 0, 68, 66
2, 208651, Note_on_c, 0, 68, 0
2, 208663, Note_on_c, 0, 71, 61
2, 208800, Note_on_c, 0, 54, 44
2, 208800, Note_on_c, 0, 57, 46
2, 208803, Note_on_c, 0, 53, 0
2, 208807, Note_on_c, 0, 71, 0
2, 208808, Note_on_c, 0, 69, 65
2, 208963, Note_on_c, 0, 68, 62
2, 209109, Note_on_c, 0, 66, 64
2, 209113, Note_on_c, 0, 68, 0
2, 209139, Note_on_c, 0, 57, 0
2, 209190, Note_on_c, 0, 54, 0
2, 209236, Note_on_c, 0, 66, 0
2, 209240, Note_on_c, 0, 65, 62
2, 209406, Note_on_c, 0, 65, 0
2, 209406, Note_on_c, 0, 66, 60
2, 209408, Note_on_c, 0, 54, 41
2, 209430, Note_on_c, 0, 61, 0
2, 209557, Note_on_c, 0, 61, 57
2, 209687, Note_on_c, 0, 61, 0
2, 209700, Note_on_c, 0, 59, 67
2, 209840, Note_on_c, 0, 57, 64
2, 209847, Note_on_c, 0, 59, 0
2, 209904, Note_on_c, 0, 54, 0
2, 209983, Note_on_c, 0, 73, 69
2, 209990, Note_on_c, 0, 68, 66
2, 209993, Note_on_c, 0, 56, 59
2, 210005, Note_on_c, 0, 57, 0
2, 210007, Note_on_c, 0, 69, 0
2, 210022, Note_on_c, 0, 66, 0
2, 210140, Note_on_c, 0, 54, 63
2, 210143, Note_on_c, 0, 56, 0
2, 210299, Note_on_c, 0, 52, 68
2, 210317, Note_on_c, 0, 54, 0
2, 210387, Note_on_c, 0, 68, 0
2, 210436, Note_on_c, 0, 51, 66
2, 210452, Note_on_c, 0, 52, 0
2, 210588, Note_on_c, 0, 52, 74
2, 210590, Note_on_c, 0, 51, 0
2, 210728, Note_on_c, 0, 68, 69
2, 210874, Note_on_c, 0, 49, 68
2, 210876, Note_on_c, 0, 73, 0
2, 210883, Note_on_c, 0, 66, 73
2, 210903, Note_on_c, 0, 52, 0
2, 210938, Note_on_c, 0, 68, 0
2, 211014, Note_on_c, 0, 66, 0
2, 211021, Note_on_c, 0, 64, 68
2, 211160, Note_on_c, 0, 64, 0
2, 211192, Note_on_c, 0, 56, 68
2, 211196, Note_on_c, 0, 63, 54
2, 211197, Note_on_c, 0, 72, 76
2, 211226, Note_on_c, 0, 49, 0
2, 211259, Note_on_c, 0, 63, 0
2, 211347, Note_on_c, 0, 69, 70
2, 211475, Note_on_c, 0, 69, 0
2, 211494, Note_on_c, 0, 68, 76
2, 211503, Note_on_c, 0, 44, 64
2, 211541, Note_on_c, 0, 72, 0
2, 211628, Note_on_c, 0, 68, 0
2, 211631, Note_on_c, 0, 66, 77
2, 211752, Note_on_c, 0, 66, 0
2, 211784, Note_on_c, 0, 49, 63
2, 211794, Note_on_c, 0, 76, 83
2, 211800, Note_on_c, 0, 64, 68
2, 211818, Note_on_c, 0, 44, 0
2, 211938, Note_on_c, 0, 68, 80
2, 211955, Note_on_c, 0, 49, 0
2, 211995, Note_on_c, 0, 64, 0
2, 212091, Note_on_c, 0, 76, 0
2, 212092, Note_on_c, 0, 49, 63
2, 212094, Note_on_c, 0, 73, 83
2, 212153, Note_on_c, 0, 68, 0
2, 212165, Note_on_c, 0, 56, 0
2, 212234, Note_on_c, 0, 71, 78
2, 212295, Note_on_c, 0, 49, 0
2, 212396, Note_on_c, 0, 69, 70
2, 212397, Note_on_c, 0, 75, 78
2, 212401, Note_on_c, 0, 49, 71
2, 212405, Note_on_c, 0, 54, 61
2, 212410, Note_on_c, 0, 73, 0
2, 212454, Note_on_c, 0, 71, 0
2, 212521, Note_on_c, 0, 69, 0
2, 212560, Note_on_c, 0, 68, 70
2, 212707, Note_on_c, 0, 48, 67
2, 212710, Note_on_c, 0, 68, 0
2, 212713, Note_on_c, 0, 69, 73
2, 212714, Note_on_c, 0, 49, 0
2, 212846, Note_on_c, 0, 66, 80
2, 212850, Note_on_c, 0, 48, 0
2, 212851, Note_on_c, 0, 69, 0
2, 212857, Note_on_c, 0, 46, 72
2, 212994, Note_on_c, 0, 54, 0
2, 213000, Note_on_c, 0, 51, 64
2, 213001, Note_on_c, 0, 68, 82
2, 213005, Note_on_c, 0, 48, 68
2, 213026, Note_on_c, 0, 66, 0
2, 213029, Note_on_c, 0, 46, 0
2, 213150, Note_on_c, 0, 49, 79
2, 213160, Note_on_c, 0, 51, 0
2, 213183, Note_on_c, 0, 48, 0
2, 213315, Note_on_c, 0, 51, 76
2, 213327, Control_c, 0, 64, 57
2, 213340, Note_on_c, 0, 68, 0
2, 213342, Control_c, 0, 64, 64
2, 213342, Note_on_c, 0, 49, 0
2, 213358, Control_c, 0, 64, 69
2, 213371, Control_c, 0, 64, 75
2, 213372, Note_on_c, 0, 75, 0
2, 213386, Control_c, 0, 64, 78
2, 213402, Control_c, 0, 64, 79
2, 213416, Control_c, 0, 64, 79
2, 213441, Note_on_c, 0, 48, 81
2, 213447, Control_c, 0, 64, 80
2, 213447, Note_on_c, 0, 51, 0
2, 213462, Control_c, 0, 64, 81
2, 213478, Control_c, 0, 64, 82
2, 213481, Note_on_c, 0, 48, 0
2, 213494, Control_c, 0, 64, 83
2, 213539, Control_c, 0, 64, 81
2, 213554, Control_c, 0, 64, 74
2, 213570, Control_c, 0, 64, 58
2, 213585, Control_c, 0, 64, 0
2, 213608, Note_on_c, 0, 52, 77
2, 213612, Note_on_c, 0, 40, 73
2, 213661, Control_c, 0, 64, 60
2, 213676, Control_c, 0, 64, 70
2, 213692, Control_c, 0, 64, 80
2, 213707, Control_c, 0, 64, 85
2, 213725, Note_on_c, 0, 40, 0
2, 213765, Note_on_c, 0, 51, 77
2, 213787, Note_on_c, 0, 52, 0
2, 213813, Control_c, 0, 64, 85
2, 213843, Control_c, 0, 64, 83
2, 213858, Control_c, 0, 64, 78
2, 213873, Control_c, 0, 64, 70
2, 213887, Control_c, 0, 64, 0
2, 213893, Note_on_c, 0, 73, 79
2, 213899, Note_on_c, 0, 51, 0
2, 213901, Note_on_c, 0, 52, 79
2, 214045, Note_on_c, 0, 72, 81
2, 214047, Note_on_c, 0, 54, 70
2, 214052, Note_on_c, 0, 52, 0
2, 214082, Note_on_c, 0, 73, 0
2, 214185, Note_on_c, 0, 54, 0
2, 214201, Note_on_c, 0, 80, 85
2, 214206, Note_on_c, 0, 52, 71
2, 214206, Note_on_c, 0, 73, 78
2, 214227, Note_on_c, 0, 72, 0
2, 214338, Note_on_c, 0, 51, 78
2, 214341, Note_on_c, 0, 52, 0
2, 214373, Note_on_c, 0, 80, 0
2, 214492, Note_on_c, 0, 51, 0
2, 214497, Note_on_c, 0, 49, 72
2, 214503, Note_on_c, 0, 45, 69
2, 214503, Note_on_c, 0, 80, 89
2, 214549, Control_c, 0, 64, 35
2, 214563, Control_c, 0, 64, 63
2, 214579, Control_c, 0, 64, 66
2, 214610, Control_c, 0, 64, 66
2, 214625, Control_c, 0, 64, 65
2, 214631, Note_on_c, 0, 52, 75
2, 214638, Note_on_c, 0, 49, 0
2, 214640, Control_c, 0, 64, 64
2, 214655, Note_on_c, 0, 45, 0
2, 214655, Note_on_c, 0, 52, 0
2, 214656, Control_c, 0, 64, 60
2, 214670, Control_c, 0, 64, 41
2, 214670, Note_on_c, 0, 80, 0
2, 214686, Control_c, 0, 64, 0
2, 214815, Note_on_c, 0, 39, 71
2, 214815, Note_on_c, 0, 80, 89
2, 214817, Note_on_c, 0, 51, 69
2, 214940, Note_on_c, 0, 49, 79
2, 214943, Note_on_c, 0, 51, 0
2, 214968, Control_c, 0, 64, 45
2, 214982, Control_c, 0, 64, 57
2, 214983, Note_on_c, 0, 39, 0
2, 214997, Control_c, 0, 64, 61
2, 215013, Control_c, 0, 64, 63
2, 215028, Control_c, 0, 64, 63
2, 215107, Note_on_c, 0, 51, 76
2, 215108, Note_on_c, 0, 78, 83
2, 215118, Control_c, 0, 64, 64
2, 215137, Note_on_c, 0, 73, 0
2, 215142, Note_on_c, 0, 49, 0
2, 215150, Control_c, 0, 64, 63
2, 215166, Control_c, 0, 64, 63
2, 215181, Control_c, 0, 64, 61
2, 215196, Control_c, 0, 64, 58
2, 215208, Note_on_c, 0, 51, 0
2, 215211, Control_c, 0, 64, 47
2, 215225, Note_on_c, 0, 52, 69
2, 215226, Control_c, 0, 64, 0
2, 215239, Note_on_c, 0, 76, 82
2, 215258, Note_on_c, 0, 80, 0
2, 215279, Note_on_c, 0, 78, 0
2, 215382, Note_on_c, 0, 52, 0
2, 215389, Note_on_c, 0, 51, 67
2, 215400, Note_on_c, 0, 75, 77
2, 215401, Note_on_c, 0, 78, 79
2, 215426, Note_on_c, 0, 76, 0
2, 215521, Note_on_c, 0, 49, 69
2, 215532, Note_on_c, 0, 75, 0
2, 215535, Note_on_c, 0, 51, 0
2, 215687, Note_on_c, 0, 44, 66
2, 215692, Note_on_c, 0, 75, 82
2, 215697, Note_on_c, 0, 49, 0
2, 215703, Note_on_c, 0, 48, 54
2, 215719, Control_c, 0, 64, 49
2, 215735, Control_c, 0, 64, 63
2, 215750, Control_c, 0, 64, 63
2, 215766, Control_c, 0, 64, 63
2, 215781, Control_c, 0, 64, 63
2, 215811, Control_c, 0, 64, 64
2, 215813, Note_on_c, 0, 75, 0
2, 215826, Control_c, 0, 64, 64
2, 215826, Note_on_c, 0, 48, 0
2, 215832, Note_on_c, 0, 51, 57
2, 215847, Note_on_c, 0, 44, 0
2, 215854, Note_on_c, 0, 51, 0
2, 215902, Control_c, 0, 64, 65
2, 215933, Control_c, 0, 64, 64
2, 215948, Control_c, 0, 64, 60
2, 215963, Control_c, 0, 64, 0
2, 216009, Note_on_c, 0, 76, 79
2, 216010, Note_on_c, 0, 37, 69
2, 216010, Note_on_c, 0, 75, 73
2, 216013, Note_on_c, 0, 49, 66
2, 216100, Note_on_c, 0, 75, 0
2, 216101, Control_c, 0, 64, 64
2, 216113, Note_on_c, 0, 37, 0
2, 216116, Control_c, 0, 64, 70
2, 216119, Note_on_c, 0, 78, 0
2, 216131, Control_c, 0, 64, 73
2, 216146, Control_c, 0, 64, 74
2, 216148, Note_on_c, 0, 49, 0
2, 216176, Control_c, 0, 64, 74
2, 216191, Control_c, 0, 64, 75
2, 216207, Control_c, 0, 64, 76
2, 216222, Control_c, 0, 64, 77
2, 216237, Control_c, 0, 64, 77
2, 216267, Control_c, 0, 64, 78
2, 216291, Control_c, 0, 64, 78
2, 216305, Control_c, 0, 64, 79
2, 216320, Control_c, 0, 64, 80
2, 216327, Note_on_c, 0, 52, 82
2, 216336, Control_c, 0, 64, 80
2, 216336, Note_on_c, 0, 73, 65
2, 216367, Control_c, 0, 64, 81
2, 216395, Note_on_c, 0, 73, 0
2, 216461, Note_on_c, 0, 71, 69
2, 216563, Control_c, 0, 64, 78
2, 216577, Note_on_c, 0, 71, 0
2, 216579, Control_c, 0, 64, 72
2, 216593, Control_c, 0, 64, 62
2, 216609, Control_c, 0, 64, 0
2, 216614, Note_on_c, 0, 57, 72
2, 216632, Note_on_c, 0, 73, 64
2, 216649, Note_on_c, 0, 52, 0
2, 216720, Note_on_c, 0, 57, 0
2, 216933, Note_on_c, 0, 57, 66
2, 217023, Note_on_c, 0, 57, 0
2, 217219, Note_on_c, 0, 73, 0
2, 217241, Note_on_c, 0, 57, 61
2, 217241, Note_on_c, 0, 75, 64
2, 217253, Note_on_c, 0, 71, 54
2, 217318, Note_on_c, 0, 76, 0
2, 217514, Control_c, 0, 64, 50
2, 217530, Control_c, 0, 64, 60
2, 217536, Note_on_c, 0, 55, 61
2, 217545, Control_c, 0, 64, 62
2, 217549, Note_on_c, 0, 59, 41
2, 217565, Note_on_c, 0, 57, 0
2, 217575, Control_c, 0, 64, 62
2, 217577, Note_on_c, 0, 71, 0
2, 217657, Note_on_c, 0, 59, 0
2, 217667, Control_c, 0, 64, 62
2, 217672, Note_on_c, 0, 54, 67
2, 217677, Note_on_c, 0, 55, 0
2, 217682, Control_c, 0, 64, 61
2, 217698, Control_c, 0, 64, 60
2, 217713, Control_c, 0, 64, 58
2, 217729, Control_c, 0, 64, 55
2, 217743, Control_c, 0, 64, 50
2, 217758, Control_c, 0, 64, 37
2, 217774, Control_c, 0, 64, 0
2, 217849, Note_on_c, 0, 64, 57
2, 217853, Note_on_c, 0, 79, 73
2, 217860, Note_on_c, 0, 71, 61
2, 217865, Note_on_c, 0, 52, 58
2, 217883, Note_on_c, 0, 54, 0
2, 217928, Note_on_c, 0, 64, 0
2, 217941, Note_on_c, 0, 75, 0
2, 218154, Note_on_c, 0, 64, 62
2, 218221, Note_on_c, 0, 64, 0
2, 218431, Note_on_c, 0, 52, 0
2, 218434, Note_on_c, 0, 78, 78
2, 218436, Note_on_c, 0, 70, 69
2, 218442, Note_on_c, 0, 64, 55
2, 218451, Note_on_c, 0, 79, 0
2, 218467, Note_on_c, 0, 71, 0
2, 218777, Note_on_c, 0, 64, 0
2, 218780, Note_on_c, 0, 62, 49
2, 218788, Note_on_c, 0, 54, 44
2, 218905, Note_on_c, 0, 62, 0
2, 218930, Note_on_c, 0, 61, 50
2, 219055, Note_on_c, 0, 54, 0
2, 219076, Note_on_c, 0, 74, 68
2, 219086, Note_on_c, 0, 59, 49
2, 219086, Note_on_c, 0, 66, 69
2, 219098, Note_on_c, 0, 61, 0
2, 219149, Note_on_c, 0, 70, 0
2, 219170, Note_on_c, 0, 78, 0
2, 219192, Note_on_c, 0, 59, 0
2, 219294, Control_c, 0, 64, 52
2, 219309, Control_c, 0, 64, 63
2, 219323, Control_c, 0, 64, 65
2, 219339, Control_c, 0, 64, 67
2, 219361, Control_c, 0, 64, 69
2, 219377, Control_c, 0, 64, 73
2, 219383, Note_on_c, 0, 74, 0
2, 219392, Control_c, 0, 64, 78
2, 219407, Control_c, 0, 64, 81
2, 219407, Note_on_c, 0, 59, 47
2, 219422, Control_c, 0, 64, 84
2, 219434, Note_on_c, 0, 66, 0
2, 219439, Note_on_c, 0, 59, 0
2, 219453, Control_c, 0, 64, 84
2, 219498, Control_c, 0, 64, 85
2, 219635, Control_c, 0, 64, 84
2, 219651, Control_c, 0, 64, 82
2, 219666, Control_c, 0, 64, 78
2, 219681, Control_c, 0, 64, 70
2, 219686, Note_on_c, 0, 65, 74
2, 219691, Note_on_c, 0, 59, 45
2, 219691, Note_on_c, 0, 73, 71
2, 219697, Control_c, 0, 64, 53
2, 219712, Control_c, 0, 64, 0
2, 220012, Note_on_c, 0, 61, 69
2, 220018, Note_on_c, 0, 59, 0
2, 220019, Note_on_c, 0, 57, 44
2, 220066, Note_on_c, 0, 65, 0
2, 220142, Note_on_c, 0, 57, 0
2, 220158, Note_on_c, 0, 56, 52
2, 220297, Note_on_c, 0, 56, 0
2, 220310, Note_on_c, 0, 66, 72
2, 220317, Note_on_c, 0, 57, 56
2, 220317, Note_on_c, 0, 69, 70
2, 220322, Note_on_c, 0, 49, 51
2, 220342, Note_on_c, 0, 61, 0
2, 220427, Note_on_c, 0, 66, 0
2, 220450, Note_on_c, 0, 56, 62
2, 220464, Note_on_c, 0, 57, 0
2, 220586, Control_c, 0, 64, 29
2, 220601, Control_c, 0, 64, 39
2, 220604, Note_on_c, 0, 56, 0
2, 220617, Control_c, 0, 64, 42
2, 220624, Note_on_c, 0, 54, 50
2, 220627, Note_on_c, 0, 66, 77
2, 220632, Control_c, 0, 64, 44
2, 220648, Control_c, 0, 64, 44
2, 220677, Control_c, 0, 64, 45
2, 220699, Note_on_c, 0, 69, 0
2, 220708, Control_c, 0, 64, 44
2, 220723, Control_c, 0, 64, 43
2, 220728, Note_on_c, 0, 49, 0
2, 220738, Control_c, 0, 64, 42
2, 220750, Note_on_c, 0, 66, 0
2, 220753, Control_c, 0, 64, 39
2, 220761, Note_on_c, 0, 52, 62
2, 220763, Note_on_c, 0, 54, 0
2, 220769, Control_c, 0, 64, 36
2, 220783, Control_c, 0, 64, 32
2, 220798, Control_c, 0, 64, 29
2, 220814, Control_c, 0, 64, 20
2, 220829, Control_c, 0, 64, 0
2, 220937, Note_on_c, 0, 52, 0
2, 220949, Note_on_c, 0, 48, 71
2, 220956, Note_on_c, 0, 68, 66
2, 220957, Note_on_c, 0, 66, 68
2, 220962, Note_on_c, 0, 51, 64
2, 221070, Note_on_c, 0, 68, 0
2, 221129, Note_on_c, 0, 73, 0
2, 221248, Control_c, 0, 64, 25
2, 221259, Note_on_c, 0, 68, 69
2, 221262, Note_on_c, 0, 64, 66
2, 221263, Control_c, 0, 64, 28
2, 221269, Note_on_c, 0, 66, 0
2, 221293, Control_c, 0, 64, 26
2, 221308, Control_c, 0, 64, 24
2, 221323, Control_c, 0, 64, 18
2, 221339, Control_c, 0, 64, 10
2, 221354, Control_c, 0, 64, 0
2, 221386, Note_on_c, 0, 68, 0
2, 221409, Note_on_c, 0, 63, 76
2, 221435, Note_on_c, 0, 64, 0
2, 221570, Note_on_c, 0, 52, 82
2, 221574, Note_on_c, 0, 63, 0
2, 221574, Note_on_c, 0, 64, 56
2, 221577, Note_on_c, 0, 73, 74
2, 221595, Note_on_c, 0, 48, 0
2, 221607, Note_on_c, 0, 51, 0
2, 221691, Note_on_c, 0, 73, 0
2, 221887, Note_on_c, 0, 56, 71
2, 221895, Control_c, 0, 64, 48
2, 221895, Note_on_c, 0, 73, 74
2, 221910, Control_c, 0, 64, 52
2, 221926, Control_c, 0, 64, 53
2, 221940, Control_c, 0, 64, 56
2, 221955, Control_c, 0, 64, 59
2, 221968, Note_on_c, 0, 73, 0
2, 221971, Control_c, 0, 64, 62
2, 221986, Control_c, 0, 64, 63
2, 222001, Control_c, 0, 64, 64
2, 222061, Control_c, 0, 64, 64
2, 222076, Control_c, 0, 64, 64
2, 222107, Control_c, 0, 64, 63
2, 222122, Control_c, 0, 64, 62
2, 222137, Control_c, 0, 64, 59
2, 222152, Control_c, 0, 64, 50
2, 222159, Note_on_c, 0, 64, 0
2, 222168, Control_c, 0, 64, 0
2, 222210, Note_on_c, 0, 63, 74
2, 222213, Note_on_c, 0, 51, 69
2, 222221, Note_on_c, 0, 73, 77
2, 222228, Note_on_c, 0, 66, 63
2, 222255, Note_on_c, 0, 52, 0
2, 222273, Note_on_c, 0, 56, 0
2, 222341, Note_on_c, 0, 63, 0
2, 222552, Note_on_c, 0, 63, 79
2, 222554, Note_on_c, 0, 72, 70
2, 222572, Control_c, 0, 64, 10
2, 222586, Control_c, 0, 64, 47
2, 222601, Control_c, 0, 64, 53
2, 222603, Note_on_c, 0, 66, 0
2, 222617, Control_c, 0, 64, 56
2, 222632, Control_c, 0, 64, 58
2, 222648, Control_c, 0, 64, 62
2, 222663, Control_c, 0, 64, 64
2, 222677, Control_c, 0, 64, 65
2, 222682, Note_on_c, 0, 72, 0
2, 222683, Note_on_c, 0, 73, 0
2, 222687, Note_on_c, 0, 70, 71
2, 222693, Control_c, 0, 64, 66
2, 222727, Note_on_c, 0, 63, 0
2, 222739, Control_c, 0, 64, 67
2, 222770, Control_c, 0, 64, 67
2, 222786, Note_on_c, 0, 70, 0
2, 222799, Control_c, 0, 64, 66
2, 222815, Control_c, 0, 64, 60
2, 222829, Control_c, 0, 64, 24
2, 222844, Control_c, 0, 64, 0
2, 222852, Note_on_c, 0, 78, 83
2, 222855, Note_on_c, 0, 63, 73
2, 222856, Note_on_c, 0, 72, 72
2, 222891, Control_c, 0, 64, 51
2, 222905, Control_c, 0, 64, 63
2, 222920, Control_c, 0, 64, 66
2, 222935, Note_on_c, 0, 72, 0
2, 222936, Control_c, 0, 64, 68
2, 222951, Control_c, 0, 64, 69
2, 222996, Control_c, 0, 64, 69
2, 222996, Note_on_c, 0, 73, 78
2, 223012, Control_c, 0, 64, 71
2, 223027, Control_c, 0, 64, 72
2, 223037, Note_on_c, 0, 78, 0
2, 223041, Control_c, 0, 64, 73
2, 223088, Control_c, 0, 64, 70
2, 223103, Control_c, 0, 64, 64
2, 223118, Control_c, 0, 64, 0
2, 223150, Note_on_c, 0, 63, 0
2, 223151, Note_on_c, 0, 66, 83
2, 223152, Note_on_c, 0, 78, 76
2, 223153, Note_on_c, 0, 61, 75
2, 223154, Note_on_c, 0, 73, 0
2, 223157, Note_on_c, 0, 75, 73
2, 223201, Control_c, 0, 64, 59
2, 223217, Control_c, 0, 64, 68
2, 223219, Note_on_c, 0, 66, 0
2, 223232, Control_c, 0, 64, 73
2, 223247, Control_c, 0, 64, 74
2, 223280, Note_on_c, 0, 75, 0
2, 223282, Note_on_c, 0, 78, 0
2, 223294, Note_on_c, 0, 60, 72
2, 223300, Note_on_c, 0, 68, 81
2, 223305, Note_on_c, 0, 61, 0
2, 223316, Note_on_c, 0, 51, 0
2, 223330, Note_on_c, 0, 60, 0
2, 223416, Control_c, 0, 64, 73
2, 223418, Note_on_c, 0, 68, 0
2, 223430, Control_c, 0, 64, 71
2, 223446, Control_c, 0, 64, 67
2, 223461, Control_c, 0, 64, 53
2, 223475, Control_c, 0, 64, 0
2, 223481, Note_on_c, 0, 78, 77
2, 223490, Note_on_c, 0, 75, 76
2, 223491, Note_on_c, 0, 49, 66
2, 223494, Note_on_c, 0, 61, 69
2, 223494, Note_on_c, 0, 69, 74
2, 223627, Note_on_c, 0, 69, 0
2, 223699, Note_on_c, 0, 75, 0
2, 223719, Control_c, 0, 64, 45
2, 223735, Control_c, 0, 64, 56
2, 223750, Control_c, 0, 64, 60
2, 223752, Note_on_c, 0, 78, 0
2, 223764, Control_c, 0, 64, 60
2, 223787, Note_on_c, 0, 76, 67
2, 223789, Note_on_c, 0, 73, 6
2, 223790, Note_on_c, 0, 52, 72
2, 223792, Note_on_c, 0, 68, 67
2, 223830, Note_on_c, 0, 49, 0
2, 223843, Note_on_c, 0, 68, 0
2, 223845, Note_on_c, 0, 73, 0
2, 223874, Note_on_c, 0, 76, 0
2, 223928, Note_on_c, 0, 66, 70
2, 223929, Note_on_c, 0, 75, 73
2, 223936, Note_on_c, 0, 72, 61
2, 223999, Note_on_c, 0, 66, 0
2, 224029, Control_c, 0, 64, 60
2, 224032, Note_on_c, 0, 75, 0
2, 224043, Control_c, 0, 64, 58
2, 224057, Note_on_c, 0, 72, 0
2, 224059, Control_c, 0, 64, 53
2, 224074, Control_c, 0, 64, 0
2, 224100, Note_on_c, 0, 57, 71
2, 224118, Note_on_c, 0, 76, 74
2, 224120, Note_on_c, 0, 68, 73
2, 224120, Note_on_c, 0, 73, 71
2, 224137, Note_on_c, 0, 52, 0
2, 224227, Control_c, 0, 64, 46
2, 224242, Control_c, 0, 64, 57
2, 224258, Control_c, 0, 64, 59
2, 224272, Control_c, 0, 64, 59
2, 224278, Note_on_c, 0, 57, 0
2, 224280, Note_on_c, 0, 68, 0
2, 224287, Control_c, 0, 64, 61
2, 224303, Control_c, 0, 64, 63
2, 224312, Note_on_c, 0, 73, 0
2, 224317, Control_c, 0, 64, 64
2, 224333, Control_c, 0, 64, 66
2, 224348, Control_c, 0, 64, 67
2, 224363, Control_c, 0, 64, 65
2, 224379, Control_c, 0, 64, 59
2, 224394, Control_c, 0, 64, 0
2, 224398, Note_on_c, 0, 57, 67
2, 224405, Note_on_c, 0, 66, 81
2, 224407, Note_on_c, 0, 75, 75
2, 224437, Note_on_c, 0, 76, 0
2, 224455, Control_c, 0, 64, 50
2, 224470, Control_c, 0, 64, 63
2, 224482, Note_on_c, 0, 66, 0
2, 224485, Control_c, 0, 64, 67
2, 224491, Note_on_c, 0, 75, 0
2, 224501, Control_c, 0, 64, 69
2, 224515, Control_c, 0, 64, 70
2, 224540, Note_on_c, 0, 57, 0
2, 224546, Note_on_c, 0, 64, 79
2, 224547, Note_on_c, 0, 61, 0
2, 224547, Note_on_c, 0, 73, 81
2, 224592, Note_on_c, 0, 64, 0
2, 224620, Note_on_c, 0, 73, 0
2, 224637, Control_c, 0, 64, 69
2, 224653, Control_c, 0, 64, 65
2, 224668, Control_c, 0, 64, 53
2, 224682, Control_c, 0, 64, 0
2, 224700, Note_on_c, 0, 60, 58
2, 224703, Note_on_c, 0, 57, 48
2, 224707, Note_on_c, 0, 75, 65
2, 224713, Note_on_c, 0, 63, 61
2, 224713, Note_on_c, 0, 66, 71
2, 225028, Note_on_c, 0, 72, 73
2, 225032, Note_on_c, 0, 57, 0
2, 225042, Note_on_c, 0, 56, 48
2, 225051, Note_on_c, 0, 75, 0
2, 225174, Note_on_c, 0, 56, 0
2, 225193, Note_on_c, 0, 54, 49
2, 225236, Note_on_c, 0, 63, 0
2, 225326, Note_on_c, 0, 54, 0
2, 225326, Note_on_c, 0, 64, 60
2, 225326, Note_on_c, 0, 68, 67
2, 225326, Note_on_c, 0, 73, 72
2, 225351, Note_on_c, 0, 52, 46
2, 225352, Note_on_c, 0, 66, 0
2, 225359, Note_on_c, 0, 72, 0
2, 225472, Note_on_c, 0, 52, 0
2, 225497, Note_on_c, 0, 51, 57
2, 225538, Note_on_c, 0, 60, 0
2, 225645, Note_on_c, 0, 49, 68
2, 225654, Note_on_c, 0, 51, 0
2, 225791, Note_on_c, 0, 47, 70
2, 225796, Note_on_c, 0, 49, 0
2, 225974, Note_on_c, 0, 46, 70
2, 226006, Note_on_c, 0, 47, 0
2, 226288, Note_on_c, 0, 49, 52
2, 226575, Note_on_c, 0, 64, 0
2, 226592, Note_on_c, 0, 54, 24
2, 226596, Note_on_c, 0, 45, 65
2, 226598, Note_on_c, 0, 66, 57
2, 226598, Note_on_c, 0, 73, 0
2, 226611, Note_on_c, 0, 63, 41
2, 226623, Note_on_c, 0, 68, 0
2, 226632, Note_on_c, 0, 54, 0
2, 226635, Note_on_c, 0, 46, 0
2, 226643, Note_on_c, 0, 49, 0
2, 226898, Note_on_c, 0, 54, 55
2, 226903, Note_on_c, 0, 61, 49
2, 226905, Note_on_c, 0, 63, 0
2, 226909, Note_on_c, 0, 66, 0
2, 226956, Control_c, 0, 64, 39
2, 226971, Control_c, 0, 64, 50
2, 226987, Control_c, 0, 64, 52
2, 227001, Control_c, 0, 64, 53
2, 227040, Control_c, 0, 64, 53
2, 227054, Note_on_c, 0, 54, 0
2, 227101, Control_c, 0, 64, 53
2, 227130, Control_c, 0, 64, 52
2, 227146, Control_c, 0, 64, 46
2, 227161, Control_c, 0, 64, 0
2, 227179, Note_on_c, 0, 61, 0
2, 227220, Note_on_c, 0, 66, 69
2, 227222, Note_on_c, 0, 72, 76
2, 227229, Note_on_c, 0, 54, 53
2, 227229, Note_on_c, 0, 63, 65
2, 227375, Control_c, 0, 64, 38
2, 227378, Note_on_c, 0, 54, 0
2, 227390, Control_c, 0, 64, 49
2, 227405, Control_c, 0, 64, 50
2, 227421, Control_c, 0, 64, 51
2, 227436, Control_c, 0, 64, 55
2, 227447, Note_on_c, 0, 45, 0
2, 227451, Control_c, 0, 64, 58
2, 227467, Control_c, 0, 64, 61
2, 227482, Control_c, 0, 64, 63
2, 227485, Note_on_c, 0, 63, 0
2, 227497, Control_c, 0, 64, 63
2, 227512, Control_c, 0, 64, 64
2, 227527, Control_c, 0, 64, 64
2, 227543, Control_c, 0, 64, 65
2, 227543, Note_on_c, 0, 65, 68
2, 227548, Note_on_c, 0, 53, 50
2, 227550, Note_on_c, 0, 66, 0
2, 227551, Note_on_c, 0, 44, 34
2, 227558, Control_c, 0, 64, 66
2, 227574, Control_c, 0, 64, 67
2, 227589, Control_c, 0, 64, 68
2, 227604, Control_c, 0, 64, 68
2, 227630, Note_on_c, 0, 44, 0
2, 227651, Note_on_c, 0, 53, 0
2, 227664, Note_on_c, 0, 51, 57
2, 227675, Note_on_c, 0, 66, 73
2, 227686, Note_on_c, 0, 42, 44
2, 227697, Note_on_c, 0, 51, 0
2, 227702, Note_on_c, 0, 65, 0
2, 227716, Note_on_c, 0, 42, 0
2, 227725, Control_c, 0, 64, 68
2, 227770, Control_c, 0, 64, 67
2, 227786, Control_c, 0, 64, 67
2, 227808, Control_c, 0, 64, 66
2, 227808, Note_on_c, 0, 66, 0
2, 227824, Control_c, 0, 64, 60
2, 227831, Note_on_c, 0, 72, 0
2, 227836, Note_on_c, 0, 49, 52
2, 227839, Control_c, 0, 64, 0
2, 227847, Note_on_c, 0, 71, 79
2, 227855, Note_on_c, 0, 41, 49
2, 227855, Note_on_c, 0, 68, 74
2, 228010, Note_on_c, 0, 68, 0
2, 228067, Control_c, 0, 64, 47
2, 228082, Control_c, 0, 64, 62
2, 228098, Control_c, 0, 64, 63
2, 228143, Control_c, 0, 64, 64
2, 228157, Control_c, 0, 64, 65
2, 228162, Note_on_c, 0, 68, 57
2, 228173, Control_c, 0, 64, 66
2, 228188, Control_c, 0, 64, 67
2, 228207, Note_on_c, 0, 68, 0
2, 228265, Control_c, 0, 64, 66
2, 228326, Control_c, 0, 64, 66
2, 228387, Control_c, 0, 64, 65
2, 228418, Control_c, 0, 64, 65
2, 228427, Note_on_c, 0, 71, 0
2, 228432, Control_c, 0, 64, 64
2, 228447, Control_c, 0, 64, 61
2, 228461, Note_on_c, 0, 42, 40
2, 228463, Control_c, 0, 64, 54
2, 228466, Note_on_c, 0, 70, 61
2, 228467, Note_on_c, 0, 68, 64
2, 228478, Control_c, 0, 64, 10
2, 228494, Control_c, 0, 64, 0
2, 228498, Note_on_c, 0, 41, 0
2, 228714, Control_c, 0, 64, 49
2, 228728, Control_c, 0, 64, 61
2, 228743, Control_c, 0, 64, 64
2, 228758, Control_c, 0, 64, 65
2, 228774, Control_c, 0, 64, 66
2, 228787, Note_on_c, 0, 66, 57
2, 228787, Note_on_c, 0, 70, 0
2, 228789, Control_c, 0, 64, 67
2, 228795, Note_on_c, 0, 61, 35
2, 228803, Control_c, 0, 64, 69
2, 228818, Note_on_c, 0, 68, 0
2, 228819, Control_c, 0, 64, 70
2, 228828, Note_on_c, 0, 66, 0
2, 228834, Control_c, 0, 64, 72
2, 228849, Control_c, 0, 64, 74
2, 228865, Control_c, 0, 64, 75
2, 228879, Control_c, 0, 64, 75
2, 228920, Note_on_c, 0, 64, 61
2, 228981, Note_on_c, 0, 64, 0
2, 228983, Note_on_c, 0, 61, 0
2, 229032, Control_c, 0, 64, 75
2, 229047, Control_c, 0, 64, 73
2, 229063, Control_c, 0, 64, 70
2, 229078, Control_c, 0, 64, 64
2, 229094, Control_c, 0, 64, 0
2, 229095, Note_on_c, 0, 66, 57
2, 229099, Note_on_c, 0, 63, 59
2, 229106, Note_on_c, 0, 69, 57
2, 229108, Note_on_c, 0, 51, 43
2, 229166, Note_on_c, 0, 49, 0
2, 229209, Note_on_c, 0, 66, 0
2, 229344, Control_c, 0, 64, 57
2, 229359, Control_c, 0, 64, 64
2, 229365, Note_on_c, 0, 63, 0
2, 229375, Control_c, 0, 64, 65
2, 229390, Control_c, 0, 64, 66
2, 229404, Control_c, 0, 64, 67
2, 229417, Note_on_c, 0, 66, 42
2, 229420, Control_c, 0, 64, 70
2, 229429, Note_on_c, 0, 61, 47
2, 229435, Control_c, 0, 64, 74
2, 229450, Control_c, 0, 64, 79
2, 229466, Control_c, 0, 64, 83
2, 229481, Control_c, 0, 64, 84
2, 229506, Note_on_c, 0, 66, 0
2, 229511, Note_on_c, 0, 61, 0
2, 229512, Control_c, 0, 64, 84
2, 229526, Control_c, 0, 64, 85
2, 229542, Control_c, 0, 64, 85
2, 229557, Control_c, 0, 64, 86
2, 229597, Note_on_c, 0, 69, 0
2, 229694, Control_c, 0, 64, 85
2, 229709, Control_c, 0, 64, 84
2, 229723, Control_c, 0, 64, 80
2, 229738, Note_on_c, 0, 44, 54
2, 229739, Control_c, 0, 64, 74
2, 229740, Note_on_c, 0, 68, 46
2, 229742, Note_on_c, 0, 66, 43
2, 229748, Note_on_c, 0, 60, 35
2, 229754, Control_c, 0, 64, 65
2, 229768, Control_c, 0, 64, 0
2, 229787, Note_on_c, 0, 42, 0
2, 229793, Note_on_c, 0, 51, 0
2, 230007, Note_on_c, 0, 60, 0
2, 230036, Note_on_c, 0, 51, 55
2, 230043, Control_c, 0, 64, 45
2, 230059, Control_c, 0, 64, 56
2, 230068, Note_on_c, 0, 64, 44
2, 230074, Control_c, 0, 64, 54
2, 230089, Control_c, 0, 64, 53
2, 230112, Control_c, 0, 64, 53
2, 230120, Note_on_c, 0, 66, 0
2, 230127, Control_c, 0, 64, 51
2, 230143, Control_c, 0, 64, 50
2, 230157, Control_c, 0, 64, 49
2, 230173, Control_c, 0, 64, 49
2, 230188, Control_c, 0, 64, 47
2, 230198, Note_on_c, 0, 63, 65
2, 230203, Control_c, 0, 64, 44
2, 230219, Control_c, 0, 64, 42
2, 230232, Note_on_c, 0, 64, 0
2, 230234, Control_c, 0, 64, 40
2, 230241, Note_on_c, 0, 63, 0
2, 230249, Control_c, 0, 64, 37
2, 230266, Control_c, 0, 64, 29
2, 230280, Control_c, 0, 64, 0
2, 230364, Note_on_c, 0, 56, 66
2, 230374, Note_on_c, 0, 64, 52
2, 230382, Note_on_c, 0, 61, 44
2, 230430, Note_on_c, 0, 51, 0
2, 230498, Note_on_c, 0, 56, 0
2, 230685, Note_on_c, 0, 56, 61
2, 230815, Note_on_c, 0, 56, 0
2, 231002, Note_on_c, 0, 56, 49
2, 231003, Note_on_c, 0, 70, 71
2, 231063, Note_on_c, 0, 64, 0
2, 231093, Control_c, 0, 64, 27
2, 231093, Note_on_c, 0, 68, 0
2, 231108, Control_c, 0, 64, 40
2, 231123, Control_c, 0, 64, 43
2, 231139, Control_c, 0, 64, 47
2, 231154, Control_c, 0, 64, 50
2, 231168, Control_c, 0, 64, 53
2, 231184, Control_c, 0, 64, 54
2, 231215, Control_c, 0, 64, 53
2, 231245, Control_c, 0, 64, 54
2, 231260, Control_c, 0, 64, 55
2, 231275, Control_c, 0, 64, 56
2, 231290, Control_c, 0, 64, 57
2, 231296, Note_on_c, 0, 56, 0
2, 231306, Control_c, 0, 64, 58
2, 231314, Note_on_c, 0, 54, 55
2, 231321, Control_c, 0, 64, 58
2, 231321, Note_on_c, 0, 66, 65
2, 231349, Note_on_c, 0, 70, 0
2, 231350, Note_on_c, 0, 61, 0
2, 231351, Control_c, 0, 64, 59
2, 231366, Control_c, 0, 64, 59
2, 231382, Control_c, 0, 64, 60
2, 231427, Control_c, 0, 64, 59
2, 231440, Note_on_c, 0, 52, 67
2, 231440, Note_on_c, 0, 54, 0
2, 231444, Note_on_c, 0, 68, 66
2, 231457, Control_c, 0, 64, 58
2, 231472, Control_c, 0, 64, 56
2, 231487, Control_c, 0, 64, 51
2, 231504, Control_c, 0, 64, 31
2, 231519, Control_c, 0, 64, 0
2, 231557, Note_on_c, 0, 66, 0
2, 231600, Note_on_c, 0, 68, 0
2, 231606, Note_on_c, 0, 52, 0
2, 231606, Note_on_c, 0, 69, 69
2, 231607, Note_on_c, 0, 72, 67
2, 231610, Note_on_c, 0, 54, 60
2, 231618, Note_on_c, 0, 63, 58
2, 231733, Note_on_c, 0, 54, 0
2, 231917, Note_on_c, 0, 54, 55
2, 231918, Note_on_c, 0, 68, 70
2, 231966, Control_c, 0, 64, 57
2, 231982, Control_c, 0, 64, 66
2, 231983, Note_on_c, 0, 69, 0
2, 231994, Note_on_c, 0, 72, 0
2, 231997, Control_c, 0, 64, 68
2, 232009, Note_on_c, 0, 63, 0
2, 232028, Control_c, 0, 64, 67
2, 232051, Note_on_c, 0, 54, 0
2, 232135, Control_c, 0, 64, 67
2, 232150, Control_c, 0, 64, 66
2, 232165, Control_c, 0, 64, 65
2, 232180, Control_c, 0, 64, 64
2, 232195, Control_c, 0, 64, 59
2, 232210, Control_c, 0, 64, 24
2, 232225, Control_c, 0, 64, 0
2, 232240, Note_on_c, 0, 54, 55
2, 232245, Note_on_c, 0, 61, 59
2, 232245, Note_on_c, 0, 73, 67
2, 232417, Control_c, 0, 64, 45
2, 232432, Control_c, 0, 64, 54
2, 232446, Control_c, 0, 64, 52
2, 232462, Control_c, 0, 64, 53
2, 232471, Note_on_c, 0, 61, 0
2, 232508, Control_c, 0, 64, 51
2, 232523, Control_c, 0, 64, 46
2, 232538, Control_c, 0, 64, 0
2, 232551, Note_on_c, 0, 54, 0
2, 232554, Note_on_c, 0, 61, 47
2, 232554, Note_on_c, 0, 64, 63
2, 232570, Note_on_c, 0, 52, 57
2, 232599, Note_on_c, 0, 68, 0
2, 232705, Control_c, 0, 64, 13
2, 232713, Note_on_c, 0, 51, 57
2, 232719, Note_on_c, 0, 52, 0
2, 232720, Control_c, 0, 64, 36
2, 232735, Control_c, 0, 64, 39
2, 232750, Control_c, 0, 64, 39
2, 232765, Control_c, 0, 64, 37
2, 232781, Control_c, 0, 64, 28
2, 232796, Control_c, 0, 64, 0
2, 232832, Note_on_c, 0, 61, 0
2, 232859, Note_on_c, 0, 69, 65
2, 232863, Note_on_c, 0, 66, 71
2, 232880, Note_on_c, 0, 51, 0
2, 232881, Note_on_c, 0, 52, 56
2, 232917, Control_c, 0, 64, 29
2, 232929, Note_on_c, 0, 64, 0
2, 232933, Control_c, 0, 64, 61
2, 232939, Note_on_c, 0, 69, 0
2, 232948, Control_c, 0, 64, 62
2, 232953, Note_on_c, 0, 66, 0
2, 232963, Control_c, 0, 64, 61
2, 233009, Control_c, 0, 64, 61
2, 233024, Control_c, 0, 64, 60
2, 233039, Control_c, 0, 64, 59
2, 233055, Control_c, 0, 64, 57
2, 233069, Control_c, 0, 64, 52
2, 233084, Control_c, 0, 64, 24
2, 233100, Control_c, 0, 64, 0
2, 233160, Note_on_c, 0, 69, 77
2, 233162, Note_on_c, 0, 66, 72
2, 233163, Note_on_c, 0, 51, 53
2, 233197, Note_on_c, 0, 52, 0
2, 233245, Control_c, 0, 64, 57
2, 233260, Control_c, 0, 64, 62
2, 233272, Note_on_c, 0, 69, 0
2, 233275, Control_c, 0, 64, 63
2, 233284, Note_on_c, 0, 66, 0
2, 233300, Note_on_c, 0, 51, 0
2, 233302, Note_on_c, 0, 49, 67
2, 233306, Control_c, 0, 64, 63
2, 233321, Control_c, 0, 64, 65
2, 233337, Control_c, 0, 64, 67
2, 233352, Control_c, 0, 64, 70
2, 233367, Control_c, 0, 64, 72
2, 233374, Note_on_c, 0, 73, 0
2, 233382, Control_c, 0, 64, 72
2, 233428, Control_c, 0, 64, 72
2, 233443, Control_c, 0, 64, 69
2, 233458, Control_c, 0, 64, 57
2, 233473, Control_c, 0, 64, 0
2, 233490, Note_on_c, 0, 69, 72
2, 233499, Note_on_c, 0, 72, 74
2, 233500, Note_on_c, 0, 66, 75
2, 233503, Note_on_c, 0, 49, 0
2, 233505, Note_on_c, 0, 51, 67
2, 233563, Note_on_c, 0, 44, 0
2, 233564, Control_c, 0, 64, 52
2, 233579, Control_c, 0, 64, 63
2, 233594, Control_c, 0, 64, 64
2, 233655, Control_c, 0, 64, 65
2, 233666, Note_on_c, 0, 69, 0
2, 233670, Control_c, 0, 64, 66
2, 233685, Control_c, 0, 64, 66
2, 233696, Note_on_c, 0, 66, 0
2, 233746, Control_c, 0, 64, 66
2, 233761, Control_c, 0, 64, 64
2, 233777, Control_c, 0, 64, 50
2, 233792, Control_c, 0, 64, 0
2, 233798, Note_on_c, 0, 68, 75
2, 233801, Note_on_c, 0, 44, 71
2, 233814, Note_on_c, 0, 64, 59
2, 233864, Note_on_c, 0, 64, 0
2, 233893, Note_on_c, 0, 68, 0
2, 233899, Control_c, 0, 64, 52
2, 233913, Control_c, 0, 64, 56
2, 233928, Control_c, 0, 64, 54
2, 233951, Control_c, 0, 64, 55
2, 233954, Note_on_c, 0, 66, 87
2, 233962, Note_on_c, 0, 63, 78
2, 233967, Control_c, 0, 64, 56
2, 233983, Control_c, 0, 64, 57
2, 233998, Control_c, 0, 64, 59
2, 234017, Note_on_c, 0, 51, 0
2, 234028, Control_c, 0, 64, 58
2, 234036, Note_on_c, 0, 66, 0
2, 234056, Note_on_c, 0, 63, 0
2, 234059, Control_c, 0, 64, 57
2, 234074, Control_c, 0, 64, 53
2, 234089, Control_c, 0, 64, 0
2, 234141, Note_on_c, 0, 76, 83
2, 234142, Note_on_c, 0, 49, 70
2, 234144, Note_on_c, 0, 68, 77
2, 234149, Note_on_c, 0, 64, 72
2, 234194, Note_on_c, 0, 72, 0
2, 234226, Control_c, 0, 64, 26
2, 234241, Control_c, 0, 64, 55
2, 234257, Control_c, 0, 64, 58
2, 234263, Note_on_c, 0, 64, 0
2, 234287, Control_c, 0, 64, 59
2, 234303, Control_c, 0, 64, 60
2, 234318, Control_c, 0, 64, 62
2, 234333, Note_on_c, 0, 49, 0
2, 234334, Control_c, 0, 64, 64
2, 234348, Control_c, 0, 64, 65
2, 234363, Control_c, 0, 64, 66
2, 234379, Control_c, 0, 64, 66
2, 234382, Note_on_c, 0, 76, 0
2, 234382, Note_on_c, 0, 76, 5
2, 234409, Control_c, 0, 64, 66
2, 234416, Note_on_c, 0, 68, 0
2, 234424, Control_c, 0, 64, 63
2, 234439, Control_c, 0, 64, 45
2, 234455, Control_c, 0, 64, 0
2, 234464, Note_on_c, 0, 70, 82
2, 234471, Note_on_c, 0, 66, 81
2, 234475, Note_on_c, 0, 49, 77
2, 234526, Note_on_c, 0, 66, 0
2, 234530, Control_c, 0, 64, 56
2, 234542, Note_on_c, 0, 70, 0
2, 234546, Control_c, 0, 64, 65
2, 234560, Control_c, 0, 64, 69
2, 234576, Control_c, 0, 64, 70
2, 234608, Note_on_c, 0, 49, 0
2, 234618, Note_on_c, 0, 72, 84
2, 234620, Note_on_c, 0, 68, 82
2, 234651, Control_c, 0, 64, 71
2, 234700, Note_on_c, 0, 72, 0
2, 234703, Note_on_c, 0, 68, 0
2, 234765, Control_c, 0, 64, 70
2, 234781, Control_c, 0, 64, 65
2, 234797, Control_c, 0, 64, 0
2, 234825, Note_on_c, 0, 44, 0
2, 234826, Note_on_c, 0, 43, 70
2, 234829, Note_on_c, 0, 49, 64
2, 234829, Note_on_c, 0, 73, 76
2, 234831, Note_on_c, 0, 70, 78
2, 235070, Control_c, 0, 64, 47
2, 235085, Control_c, 0, 64, 64
2, 235101, Control_c, 0, 64, 68
2, 235115, Control_c, 0, 64, 71
2, 235130, Control_c, 0, 64, 73
2, 235158, Note_on_c, 0, 47, 78
2, 235158, Note_on_c, 0, 49, 0
2, 235170, Note_on_c, 0, 70, 0
2, 235253, Control_c, 0, 64, 72
2, 235280, Note_on_c, 0, 47, 0
2, 235280, Note_on_c, 0, 76, 0
2, 235281, Note_on_c, 0, 46, 77
2, 235298, Control_c, 0, 64, 72
2, 235313, Control_c, 0, 64, 71
2, 235327, Control_c, 0, 64, 71
2, 235343, Control_c, 0, 64, 69
2, 235358, Control_c, 0, 64, 66
2, 235374, Control_c, 0, 64, 56
2, 235389, Control_c, 0, 64, 20
2, 235403, Control_c, 0, 64, 0
2, 235444, Note_on_c, 0, 46, 0
2, 235446, Note_on_c, 0, 70, 70
2, 235449, Note_on_c, 0, 51, 59
2, 235449, Note_on_c, 0, 75, 76
2, 235456, Note_on_c, 0, 63, 64
2, 235508, Note_on_c, 0, 73, 0
2, 235702, Control_c, 0, 64, 48
2, 235716, Control_c, 0, 64, 60
2, 235731, Control_c, 0, 64, 62
2, 235761, Control_c, 0, 64, 63
2, 235774, Note_on_c, 0, 73, 82
2, 235777, Control_c, 0, 64, 64
2, 235792, Control_c, 0, 64, 65
2, 235800, Note_on_c, 0, 75, 0
2, 235806, Note_on_c, 0, 70, 0
2, 235807, Control_c, 0, 64, 67
2, 235823, Control_c, 0, 64, 69
2, 235837, Control_c, 0, 64, 69
2, 235868, Control_c, 0, 64, 70
2, 235975, Control_c, 0, 64, 69
2, 235990, Control_c, 0, 64, 69
2, 236005, Control_c, 0, 64, 68
2, 236021, Control_c, 0, 64, 66
2, 236035, Control_c, 0, 64, 63
2, 236050, Control_c, 0, 64, 56
2, 236066, Control_c, 0, 64, 13
2, 236079, Note_on_c, 0, 73, 0
2, 236081, Control_c, 0, 64, 0
2, 236083, Note_on_c, 0, 72, 73
2, 236085, Note_on_c, 0, 43, 0
2, 236086, Note_on_c, 0, 44, 60
2, 236090, Note_on_c, 0, 68, 71
2, 236231, Note_on_c, 0, 51, 0
2, 236235, Note_on_c, 0, 52, 75
2, 236409, Note_on_c, 0, 52, 0
2, 236409, Note_on_c, 0, 54, 75
2, 236500, Control_c, 0, 64, 57
2, 236515, Control_c, 0, 64, 63
2, 236530, Control_c, 0, 64, 64
2, 236621, Control_c, 0, 64, 64
2, 236622, Note_on_c, 0, 63, 0
2, 236681, Control_c, 0, 64, 64
2, 236712, Control_c, 0, 64, 63
2, 236725, Control_c, 0, 64, 62
2, 236725, Note_on_c, 0, 73, 79
2, 236730, Note_on_c, 0, 64, 72
2, 236741, Control_c, 0, 64, 61
2, 236755, Control_c, 0, 64, 57
2, 236770, Control_c, 0, 64, 50
2, 236786, Control_c, 0, 64, 34
2, 236801, Control_c, 0, 64, 0
2, 236811, Note_on_c, 0, 72, 0
2, 236865, Note_on_c, 0, 52, 78
2, 236875, Note_on_c, 0, 54, 0
2, 237046, Note_on_c, 0, 51, 82
2, 237055, Note_on_c, 0, 52, 0
2, 237147, Note_on_c, 0, 64, 0
2, 237205, Note_on_c, 0, 49, 81
2, 237234, Note_on_c, 0, 51, 0
2, 237463, Note_on_c, 0, 56, 80
2, 237480, Note_on_c, 0, 63, 55
2, 237505, Note_on_c, 0, 49, 0
2, 238281, Note_on_c, 0, 72, 79
2, 238371, Note_on_c, 0, 73, 0
2, 238520, Control_c, 0, 64, 64
2, 238535, Control_c, 0, 64, 70
2, 238553, Note_on_c, 0, 63, 0
2, 238558, Control_c, 0, 64, 75
2, 238573, Control_c, 0, 64, 78
2, 238589, Control_c, 0, 64, 80
2, 238604, Control_c, 0, 64, 81
2, 238620, Control_c, 0, 64, 82
2, 238634, Control_c, 0, 64, 85
2, 238649, Control_c, 0, 64, 90
2, 238665, Control_c, 0, 64, 96
2, 238680, Control_c, 0, 64, 101
2, 238684, Note_on_c, 0, 64, 76
2, 238695, Control_c, 0, 64, 104
2, 238710, Control_c, 0, 64, 106
2, 238725, Control_c, 0, 64, 108
2, 238733, Note_on_c, 0, 68, 0
2, 238741, Control_c, 0, 64, 111
2, 238755, Control_c, 0, 64, 115
2, 238770, Control_c, 0, 64, 122
2, 238786, Control_c, 0, 64, 127
2, 238860, Note_on_c, 0, 66, 88
2, 238880, Note_on_c, 0, 56, 0
2, 238886, Note_on_c, 0, 44, 0
2, 238915, Note_on_c, 0, 72, 0
2, 238946, Note_on_c, 0, 64, 0
2, 238967, Note_on_c, 0, 66, 0
2, 239141, Note_on_c, 0, 68, 74
2, 239147, Note_on_c, 0, 65, 75
2, 239147, Note_on_c, 0, 73, 77
2, 239148, Note_on_c, 0, 49, 55
2, 239148, Note_on_c, 0, 57, 51
2, 239167, Control_c, 0, 64, 112
2, 239182, Control_c, 0, 64, 100
2, 239197, Control_c, 0, 64, 89
2, 239212, Control_c, 0, 64, 75
2, 239228, Control_c, 0, 64, 60
2, 239243, Control_c, 0, 64, 0
2, 239524, Note_on_c, 0, 61, 65
2, 239595, Note_on_c, 0, 65, 0
2, 239874, Control_c, 0, 64, 10
2, 239880, Note_on_c, 0, 66, 71
2, 239889, Control_c, 0, 64, 26
2, 239904, Control_c, 0, 64, 29
2, 239964, Note_on_c, 0, 68, 0
2, 239965, Control_c, 0, 64, 28
2, 239980, Control_c, 0, 64, 25
2, 239995, Control_c, 0, 64, 23
2, 240010, Control_c, 0, 64, 24
2, 240026, Control_c, 0, 64, 29
2, 240040, Control_c, 0, 64, 34
2, 240055, Control_c, 0, 64, 40
2, 240071, Control_c, 0, 64, 43
2, 240094, Control_c, 0, 64, 45
2, 240109, Control_c, 0, 64, 47
2, 240124, Control_c, 0, 64, 48
2, 240140, Control_c, 0, 64, 50
2, 240155, Control_c, 0, 64, 52
2, 240170, Control_c, 0, 64, 52
2, 240200, Control_c, 0, 64, 52
2, 240231, Control_c, 0, 64, 51
2, 240248, Note_on_c, 0, 57, 0
2, 240256, Note_on_c, 0, 56, 50
2, 240291, Control_c, 0, 64, 52
2, 240321, Control_c, 0, 64, 51
2, 240383, Control_c, 0, 64, 51
2, 240405, Note_on_c, 0, 56, 0
2, 240410, Note_on_c, 0, 57, 56
2, 240412, Control_c, 0, 64, 50
2, 240473, Control_c, 0, 64, 50
2, 240488, Control_c, 0, 64, 49
2, 240504, Control_c, 0, 64, 48
2, 240520, Control_c, 0, 64, 47
2, 240535, Control_c, 0, 64, 45
2, 240550, Control_c, 0, 64, 38
2, 240565, Control_c, 0, 64, 0
2, 240613, Note_on_c, 0, 65, 67
2, 240614, Note_on_c, 0, 59, 50
2, 240640, Note_on_c, 0, 57, 0
2, 240728, Note_on_c, 0, 61, 0
2, 240788, Note_on_c, 0, 66, 0
2, 241009, Note_on_c, 0, 57, 37
2, 241016, Note_on_c, 0, 61, 60
2, 241045, Note_on_c, 0, 59, 0
2, 241411, Note_on_c, 0, 69, 67
2, 241414, Note_on_c, 0, 56, 47
2, 241417, Note_on_c, 0, 66, 67
2, 241422, Note_on_c, 0, 61, 0
2, 241435, Note_on_c, 0, 57, 0
2, 241473, Note_on_c, 0, 65, 0
2, 241577, Control_c, 0, 64, 41
2, 241592, Control_c, 0, 64, 47
2, 241604, Note_on_c, 0, 66, 0
2, 241607, Control_c, 0, 64, 45
2, 241631, Control_c, 0, 64, 44
2, 241645, Control_c, 0, 64, 41
2, 241661, Control_c, 0, 64, 37
2, 241676, Control_c, 0, 64, 29
2, 241691, Control_c, 0, 64, 0
2, 241877, Note_on_c, 0, 54, 50
2, 241881, Note_on_c, 0, 66, 66
2, 241937, Note_on_c, 0, 56, 0
2, 242055, Control_c, 0, 64, 61
2, 242071, Control_c, 0, 64, 67
2, 242086, Control_c, 0, 64, 70
2, 242102, Control_c, 0, 64, 73
2, 242109, Note_on_c, 0, 66, 0
2, 242117, Control_c, 0, 64, 75
2, 242131, Control_c, 0, 64, 76
2, 242147, Control_c, 0, 64, 77
2, 242163, Control_c, 0, 64, 78
2, 242178, Control_c, 0, 64, 78
2, 242209, Control_c, 0, 64, 79
2, 242254, Control_c, 0, 64, 79
2, 242255, Note_on_c, 0, 69, 0
2, 242375, Control_c, 0, 64, 79
2, 242399, Control_c, 0, 64, 78
2, 242414, Control_c, 0, 64, 76
2, 242416, Note_on_c, 0, 61, 48
2, 242421, Note_on_c, 0, 66, 69
2, 242423, Note_on_c, 0, 68, 70
2, 242430, Control_c, 0, 64, 73
2, 242444, Control_c, 0, 64, 67
2, 242460, Control_c, 0, 64, 39
2, 242475, Control_c, 0, 64, 0
2, 242489, Note_on_c, 0, 54, 0
2, 242959, Note_on_c, 0, 59, 47
2, 243010, Note_on_c, 0, 61, 0
2, 243232, Note_on_c, 0, 57, 48
2, 243249, Note_on_c, 0, 59, 0
2, 243558, Note_on_c, 0, 65, 50
2, 243561, Note_on_c, 0, 56, 43
2, 243607, Note_on_c, 0, 66, 0
2, 243627, Note_on_c, 0, 57, 0
2, 244328, Note_on_c, 0, 63, 49
2, 244336, Note_on_c, 0, 54, 35
2, 244396, Note_on_c, 0, 65, 0
2, 244414, Note_on_c, 0, 56, 0
2, 245404, Note_on_c, 0, 65, 45
2, 245410, Note_on_c, 0, 56, 37
2, 245491, Note_on_c, 0, 54, 0
2, 245494, Note_on_c, 0, 63, 0
2, 245885, Control_c, 0, 64, 10
2, 245900, Control_c, 0, 64, 21
2, 245915, Control_c, 0, 64, 27
2, 245959, Control_c, 0, 64, 28
2, 245974, Control_c, 0, 64, 29
2, 245990, Control_c, 0, 64, 29
2, 246005, Control_c, 0, 64, 31
2, 246019, Control_c, 0, 64, 32
2, 246035, Control_c, 0, 64, 33
2, 246050, Control_c, 0, 64, 34
2, 246111, Control_c, 0, 64, 35
2, 246126, Control_c, 0, 64, 36
2, 246141, Control_c, 0, 64, 37
2, 246157, Control_c, 0, 64, 37
2, 246171, Control_c, 0, 64, 38
2, 246187, Control_c, 0, 64, 39
2, 246209, Control_c, 0, 64, 41
2, 246226, Control_c, 0, 64, 42
2, 246241, Control_c, 0, 64, 43
2, 246256, Control_c, 0, 64, 45
2, 246272, Control_c, 0, 64, 47
2, 246286, Control_c, 0, 64, 48
2, 246301, Control_c, 0, 64, 50
2, 246317, Control_c, 0, 64, 50
2, 246332, Control_c, 0, 64, 51
2, 246362, Control_c, 0, 64, 51
2, 246377, Control_c, 0, 64, 52
2, 246393, Control_c, 0, 64, 54
2, 246408, Control_c, 0, 64, 55
2, 246424, Control_c, 0, 64, 56
2, 246439, Control_c, 0, 64, 57
2, 246454, Control_c, 0, 64, 58
2, 246470, Control_c, 0, 64, 59
2, 246484, Control_c, 0, 64, 61
2, 246499, Control_c, 0, 64, 62
2, 246515, Control_c, 0, 64, 62
2, 246530, Control_c, 0, 64, 63
2, 246545, Control_c, 0, 64, 64
2, 246560, Control_c, 0, 64, 64
2, 246575, Control_c, 0, 64, 65
2, 246591, Control_c, 0, 64, 66
2, 246606, Control_c, 0, 64, 67
2, 246620, Control_c, 0, 64, 68
2, 246636, Control_c, 0, 64, 69
2, 246651, Control_c, 0, 64, 69
2, 246667, Control_c, 0, 64, 70
2, 246682, Control_c, 0, 64, 71
2, 246696, Control_c, 0, 64, 72
2, 246712, Control_c, 0, 64, 73
2, 246727, Control_c, 0, 64, 74
2, 246741, Control_c, 0, 64, 75
2, 246757, Control_c, 0, 64, 76
2, 246772, Control_c, 0, 64, 76
2, 246803, Control_c, 0, 64, 77
2, 246848, Control_c, 0, 64, 77
2, 246894, Control_c, 0, 64, 78
2, 247420, Control_c, 0, 64, 77
2, 247450, Control_c, 0, 64, 77
2, 247512, Control_c, 0, 64, 76
2, 247541, Control_c, 0, 64, 76
2, 247587, Control_c, 0, 64, 75
2, 247617, Control_c, 0, 64, 75
2, 247633, Control_c, 0, 64, 74
2, 247648, Control_c, 0, 64, 74
2, 247662, Control_c, 0, 64, 73
2, 247678, Control_c, 0, 64, 73
2, 247693, Control_c, 0, 64, 72
2, 247708, Control_c, 0, 64, 71
2, 247723, Control_c, 0, 64, 70
2, 247747, Control_c, 0, 64, 69
2, 247762, Control_c, 0, 64, 68
2, 247777, Control_c, 0, 64, 67
2, 247792, Control_c, 0, 64, 66
2, 247799, Note_on_c, 0, 56, 0
2, 247807, Control_c, 0, 64, 65
2, 247813, Note_on_c, 0, 65, 0
2, 247822, Control_c, 0, 64, 64
2, 247838, Control_c, 0, 64, 63
2, 247848, Note_on_c, 0, 68, 0
2, 247890, Note_on_c, 0, 73, 0
2, 247915, Control_c, 0, 64, 63
2, 247946, Control_c, 0, 64, 62
2, 247961, Control_c, 0, 64, 62
2, 247973, Note_on_c, 0, 49, 0
2, 247975, Control_c, 0, 64, 61
2, 247991, Control_c, 0, 64, 60
2, 248006, Control_c, 0, 64, 59
2, 248020, Control_c, 0, 64, 58
2, 248036, Control_c, 0, 64, 56
2, 248051, Control_c, 0, 64, 55
2, 248067, Control_c, 0, 64, 55
2, 248082, Control_c, 0, 64, 54
2, 248096, Control_c, 0, 64, 54
2, 248112, Control_c, 0, 64, 53
2, 248127, Control_c, 0, 64, 52
2, 248141, Control_c, 0, 64, 50
2, 248157, Control_c, 0, 64, 47
2, 248172, Control_c, 0, 64, 44
2, 248188, Control_c, 0, 64, 42
2, 248234, Control_c, 0, 64, 41
2, 248249, Control_c, 0, 64, 39
2, 248264, Control_c, 0, 64, 37
2, 248279, Control_c, 0, 64, 36
2, 248294, Control_c, 0, 64, 35
2, 248310, Control_c, 0, 64, 32
2, 248325, Control_c, 0, 64, 29
2, 248340, Control_c, 0, 64, 28
2, 248370, Control_c, 0, 64, 27
2, 248416, Control_c, 0, 64, 24
2, 248431, Control_c, 0, 64, 20
2, 248446, Control_c, 0, 64, 17
2, 248477, Control_c, 0, 64, 15
2, 248492, Control_c, 0, 64, 13
2, 248530, Control_c, 0, 64, 10
2, 248531, End_track
0, 0, End_of_file
