0, 0, Header, 1, 2, 480
1, 0, Start_track
1, 0, Tempo, 500000
1, 0, Time_signature, 4, 2, 24, 8
1, 1, End_track
2,0,Start_track
2,0, Note_on_c, 0, 49, 48
2,181, Control_c, 0, 64, 41
2,238, Control_c, 0, 64, 40
2,276, Control_c, 0, 64, 40
2,315, Control_c, 0, 64, 39
2,353, Control_c, 0, 64, 38
2,430, Control_c, 0, 64, 38
2,469, Control_c, 0, 64, 37
2,526, Control_c, 0, 64, 37
2,584, Control_c, 0, 64, 36
2,622, Control_c, 0, 64, 36
2,1544, Control_c, 0, 64, 36
2,2062, Control_c, 0, 64, 37
2,2178, Control_c, 0, 64, 37
2,2388, Control_c, 0, 64, 38
2,2541, Control_c, 0, 64, 38
2,2637, Note_on_c, 0, 48, 49
2,2714, Note_on_c, 0, 49, 0
2,3836, Note_on_c, 0, 52, 51
2,4032, Note_on_c, 0, 48, 0
2,4540, Control_c, 0, 64, 38
2,4597, Control_c, 0, 64, 37
2,4828, Control_c, 0, 64, 37
2,5188, Note_on_c, 0, 51, 41
2,5327, Control_c, 0, 64, 36
2,5373, Note_on_c, 0, 52, 0
2,5442, Control_c, 0, 64, 36
2,5480, Control_c, 0, 64, 34
2,5500, Control_c, 0, 64, 33
2,5519, Control_c, 0, 64, 31
2,5539, Control_c, 0, 64, 30
2,5557, Control_c, 0, 64, 28
2,5577, Control_c, 0, 64, 24
2,5596, Control_c, 0, 64, 17
2,5615, Control_c, 0, 64, 0
2,7916, Note_on_c, 0, 56, 57
2,7957, Note_on_c, 0, 49, 41
2,8103, Note_on_c, 0, 51, 0
2,8550, Note_on_c, 0, 51, 41
2,8675, Note_on_c, 0, 49, 0
2,9166, Note_on_c, 0, 51, 0
2,9171, Note_on_c, 0, 52, 39
2,10374, Note_on_c, 0, 55, 52
2,10473, Note_on_c, 0, 56, 0
2,10939, Note_on_c, 0, 51, 50
2,11006, Note_on_c, 0, 52, 0
2,11175, Note_on_c, 0, 51, 0
2,11198, Note_on_c, 0, 49, 60
2,11501, Note_on_c, 0, 59, 65
2,11533, Note_on_c, 0, 51, 31
2,11588, Note_on_c, 0, 49, 0
2,11673, Note_on_c, 0, 55, 0
2,12057, Note_on_c, 0, 56, 47
2,12130, Note_on_c, 0, 51, 0
2,12634, Note_on_c, 0, 58, 54
2,12677, Note_on_c, 0, 49, 39
2,12793, Note_on_c, 0, 59, 0
2,12874, Note_on_c, 0, 56, 0
2,13223, Note_on_c, 0, 51, 40
2,13365, Note_on_c, 0, 49, 0
2,13424, Note_on_c, 0, 51, 0
2,13472, Note_on_c, 0, 52, 49
2,13788, Note_on_c, 0, 52, 0
2,13833, Note_on_c, 0, 54, 34
2,14004, Control_c, 0, 64, 9
2,14024, Control_c, 0, 64, 15
2,14043, Control_c, 0, 64, 22
2,14062, Control_c, 0, 64, 26
2,14081, Control_c, 0, 64, 29
2,14101, Control_c, 0, 64, 32
2,14119, Control_c, 0, 64, 36
2,14139, Control_c, 0, 64, 39
2,14158, Control_c, 0, 64, 41
2,14178, Control_c, 0, 64, 43
2,14196, Control_c, 0, 64, 44
2,14216, Control_c, 0, 64, 47
2,14235, Control_c, 0, 64, 51
2,14254, Control_c, 0, 64, 55
2,14273, Control_c, 0, 64, 57
2,14293, Control_c, 0, 64, 60
2,14312, Control_c, 0, 64, 62
2,14331, Control_c, 0, 64, 63
2,14350, Control_c, 0, 64, 64
2,14370, Control_c, 0, 64, 65
2,14389, Control_c, 0, 64, 66
2,14407, Control_c, 0, 64, 68
2,14427, Control_c, 0, 64, 70
2,14446, Control_c, 0, 64, 73
2,14465, Control_c, 0, 64, 76
2,14484, Control_c, 0, 64, 79
2,14504, Control_c, 0, 64, 81
2,14523, Control_c, 0, 64, 83
2,14542, Control_c, 0, 64, 85
2,14542, Control_c, 0, 67, 124
2,14561, Control_c, 0, 64, 88
2,14561, Control_c, 0, 67, 120
2,14582, Control_c, 0, 64, 91
2,14582, Control_c, 0, 67, 116
2,14600, Control_c, 0, 64, 94
2,14600, Control_c, 0, 67, 113
2,14620, Control_c, 0, 64, 97
2,14620, Control_c, 0, 67, 109
2,14639, Control_c, 0, 64, 100
2,14639, Control_c, 0, 67, 104
2,14659, Control_c, 0, 64, 102
2,14659, Control_c, 0, 67, 97
2,14677, Control_c, 0, 64, 104
2,14677, Control_c, 0, 67, 87
2,14697, Control_c, 0, 64, 107
2,14697, Control_c, 0, 67, 78
2,14716, Control_c, 0, 64, 110
2,14716, Control_c, 0, 67, 70
2,14735, Control_c, 0, 64, 113
2,14735, Control_c, 0, 67, 63
2,14754, Control_c, 0, 64, 116
2,14754, Control_c, 0, 67, 59
2,14774, Control_c, 0, 64, 121
2,14774, Control_c, 0, 67, 56
2,14793, Control_c, 0, 64, 127
2,14793, Control_c, 0, 67, 54
2,14812, Control_c, 0, 67, 51
2,14831, Control_c, 0, 67, 48
2,14851, Control_c, 0, 67, 44
2,14869, Control_c, 0, 67, 41
2,14888, Control_c, 0, 67, 37
2,14908, Control_c, 0, 67, 35
2,14927, Control_c, 0, 67, 33
2,14946, Control_c, 0, 67, 30
2,14965, Control_c, 0, 67, 27
2,14985, Control_c, 0, 67, 24
2,15004, Control_c, 0, 67, 20
2,15023, Control_c, 0, 67, 17
2,15042, Control_c, 0, 67, 14
2,15062, Control_c, 0, 67, 12
2,15080, Control_c, 0, 67, 8
2,15100, Control_c, 0, 67, 0
2,15100, Note_on_c, 0, 56, 45
2,15157, Control_c, 0, 64, 110
2,15177, Control_c, 0, 64, 101
2,15196, Control_c, 0, 64, 98
2,15211, Note_on_c, 0, 58, 0
2,15215, Control_c, 0, 64, 94
2,15234, Control_c, 0, 64, 87
2,15254, Control_c, 0, 64, 78
2,15273, Control_c, 0, 64, 70
2,15292, Control_c, 0, 64, 63
2,15311, Control_c, 0, 64, 51
2,15331, Control_c, 0, 64, 34
2,15349, Control_c, 0, 64, 29
2,15388, Control_c, 0, 64, 31
2,15407, Control_c, 0, 64, 31
2,15426, Control_c, 0, 64, 23
2,15445, Control_c, 0, 64, 0
2,15542, Control_c, 0, 64, 9
2,15559, Control_c, 0, 64, 35
2,15578, Control_c, 0, 64, 46
2,15597, Control_c, 0, 64, 52
2,15617, Control_c, 0, 64, 55
2,15635, Control_c, 0, 64, 57
2,15655, Control_c, 0, 64, 59
2,15672, Note_on_c, 0, 52, 43
2,15674, Control_c, 0, 64, 62
2,15686, Note_on_c, 0, 54, 0
2,15694, Control_c, 0, 64, 64
2,15712, Control_c, 0, 64, 65
2,15729, Control_c, 0, 64, 68
2,15749, Control_c, 0, 64, 71
2,15768, Control_c, 0, 64, 77
2,15787, Control_c, 0, 64, 85
2,15806, Control_c, 0, 64, 91
2,15826, Control_c, 0, 64, 98
2,15844, Control_c, 0, 64, 108
2,15864, Control_c, 0, 64, 127
2,16279, Note_on_c, 0, 61, 64
2,16304, Note_on_c, 0, 56, 0
2,16310, Note_on_c, 0, 51, 40
2,16337, Note_on_c, 0, 57, 38
2,16401, Control_c, 0, 64, 110
2,16421, Control_c, 0, 64, 99
2,16440, Control_c, 0, 64, 92
2,16459, Control_c, 0, 64, 86
2,16478, Control_c, 0, 64, 79
2,16498, Control_c, 0, 64, 72
2,16512, Note_on_c, 0, 52, 0
2,16519, Control_c, 0, 64, 66
2,16538, Control_c, 0, 64, 62
2,16557, Control_c, 0, 64, 57
2,16577, Control_c, 0, 64, 57
2,16637, Control_c, 0, 64, 56
2,16656, Control_c, 0, 64, 55
2,16675, Control_c, 0, 64, 54
2,16692, Control_c, 0, 64, 52
2,16712, Control_c, 0, 64, 51
2,16731, Control_c, 0, 64, 49
2,16750, Control_c, 0, 64, 48
2,16769, Control_c, 0, 64, 46
2,16789, Control_c, 0, 64, 44
2,16807, Control_c, 0, 64, 42
2,16827, Control_c, 0, 64, 40
2,16846, Control_c, 0, 64, 39
2,16859, Note_on_c, 0, 51, 0
2,16865, Note_on_c, 0, 49, 53
2,16866, Control_c, 0, 64, 38
2,16904, Control_c, 0, 64, 37
2,16923, Control_c, 0, 64, 36
2,16942, Control_c, 0, 64, 36
2,16980, Control_c, 0, 64, 36
2,17000, Control_c, 0, 64, 37
2,17018, Control_c, 0, 64, 38
2,17038, Control_c, 0, 64, 38
2,17057, Control_c, 0, 64, 39
2,17095, Control_c, 0, 64, 39
2,17115, Control_c, 0, 64, 40
2,17192, Control_c, 0, 64, 41
2,17211, Control_c, 0, 64, 42
2,17230, Control_c, 0, 64, 43
2,17249, Control_c, 0, 64, 43
2,17269, Control_c, 0, 64, 44
2,17384, Control_c, 0, 64, 44
2,17422, Control_c, 0, 64, 45
2,17441, Control_c, 0, 64, 45
2,17470, Note_on_c, 0, 60, 56
2,17504, Note_on_c, 0, 51, 19
2,17538, Note_on_c, 0, 61, 0
2,17548, Note_on_c, 0, 57, 0
2,17606, Note_on_c, 0, 49, 0
2,17673, Control_c, 0, 64, 45
2,17691, Control_c, 0, 64, 44
2,17711, Control_c, 0, 64, 43
2,17730, Control_c, 0, 64, 42
2,17750, Control_c, 0, 64, 42
2,17768, Control_c, 0, 64, 40
2,17788, Control_c, 0, 64, 39
2,17807, Control_c, 0, 64, 37
2,17827, Control_c, 0, 64, 35
2,17845, Control_c, 0, 64, 34
2,17865, Control_c, 0, 64, 32
2,17884, Control_c, 0, 64, 32
2,17903, Control_c, 0, 64, 32
2,17922, Control_c, 0, 64, 35
2,17942, Control_c, 0, 64, 40
2,17961, Control_c, 0, 64, 45
2,17979, Control_c, 0, 64, 49
2,17999, Control_c, 0, 64, 53
2,18018, Control_c, 0, 64, 55
2,18037, Control_c, 0, 64, 57
2,18056, Control_c, 0, 64, 59
2,18067, Note_on_c, 0, 56, 57
2,18076, Control_c, 0, 64, 61
2,18095, Control_c, 0, 64, 62
2,18114, Control_c, 0, 64, 63
2,18133, Control_c, 0, 64, 65
2,18153, Control_c, 0, 64, 67
2,18171, Control_c, 0, 64, 71
2,18191, Control_c, 0, 64, 77
2,18210, Control_c, 0, 64, 86
2,18230, Control_c, 0, 64, 95
2,18248, Control_c, 0, 64, 105
2,18268, Control_c, 0, 64, 127
2,18339, Note_on_c, 0, 54, 68
2,18351, Note_on_c, 0, 56, 0
2,18657, Note_on_c, 0, 64, 69
2,18672, Note_on_c, 0, 56, 50
2,18681, Note_on_c, 0, 49, 37
2,18704, Note_on_c, 0, 54, 0
2,18705, Note_on_c, 0, 60, 0
2,18729, Control_c, 0, 64, 110
2,18749, Control_c, 0, 64, 98
2,18760, Note_on_c, 0, 51, 0
2,18768, Control_c, 0, 64, 84
2,18787, Control_c, 0, 64, 74
2,18806, Control_c, 0, 64, 67
2,18826, Control_c, 0, 64, 63
2,18845, Control_c, 0, 64, 58
2,18864, Control_c, 0, 64, 55
2,18883, Control_c, 0, 64, 53
2,18903, Control_c, 0, 64, 50
2,18922, Control_c, 0, 64, 45
2,18940, Control_c, 0, 64, 36
2,18960, Control_c, 0, 64, 13
2,18979, Control_c, 0, 64, 0
2,19191, Control_c, 0, 64, 22
2,19209, Control_c, 0, 64, 38
2,19223, Note_on_c, 0, 61, 56
2,19229, Control_c, 0, 64, 47
2,19248, Control_c, 0, 64, 52
2,19267, Control_c, 0, 64, 55
2,19286, Control_c, 0, 64, 58
2,19306, Control_c, 0, 64, 61
2,19325, Control_c, 0, 64, 64
2,19344, Control_c, 0, 64, 66
2,19363, Control_c, 0, 64, 70
2,19384, Control_c, 0, 64, 74
2,19402, Control_c, 0, 64, 81
2,19421, Control_c, 0, 64, 88
2,19441, Control_c, 0, 64, 94
2,19460, Control_c, 0, 64, 98
2,19479, Control_c, 0, 64, 106
2,19498, Control_c, 0, 64, 127
2,19587, Note_on_c, 0, 56, 0
2,19791, Note_on_c, 0, 64, 0
2,19844, Note_on_c, 0, 63, 60
2,19878, Note_on_c, 0, 54, 34
2,19921, Control_c, 0, 64, 107
2,19940, Control_c, 0, 64, 92
2,19959, Control_c, 0, 64, 82
2,19978, Control_c, 0, 64, 75
2,19979, Note_on_c, 0, 54, 0
2,19979, Note_on_c, 0, 54, 3
2,19998, Control_c, 0, 64, 69
2,20003, Note_on_c, 0, 61, 0
2,20016, Control_c, 0, 64, 65
2,20036, Control_c, 0, 64, 63
2,20055, Control_c, 0, 64, 59
2,20075, Control_c, 0, 64, 55
2,20093, Control_c, 0, 64, 49
2,20113, Control_c, 0, 64, 43
2,20132, Control_c, 0, 64, 35
2,20152, Control_c, 0, 64, 27
2,20170, Control_c, 0, 64, 17
2,20190, Control_c, 0, 64, 0
2,20379, Note_on_c, 0, 54, 0
2,20400, Note_on_c, 0, 56, 52
2,20416, Note_on_c, 0, 47, 34
2,20512, Note_on_c, 0, 49, 0
2,20632, Note_on_c, 0, 56, 0
2,20677, Note_on_c, 0, 57, 56
2,20973, Note_on_c, 0, 59, 49
2,20981, Note_on_c, 0, 57, 0
2,21001, Note_on_c, 0, 45, 32
2,21081, Note_on_c, 0, 47, 0
2,21535, Note_on_c, 0, 44, 41
2,21541, Note_on_c, 0, 45, 0
2,22150, Note_on_c, 0, 61, 47
2,22177, Note_on_c, 0, 44, 0
2,22179, Note_on_c, 0, 45, 31
2,22250, Note_on_c, 0, 63, 0
2,22254, Note_on_c, 0, 59, 0
2,22532, Control_c, 0, 64, 29
2,22552, Control_c, 0, 64, 43
2,22570, Control_c, 0, 64, 50
2,22587, Control_c, 0, 64, 55
2,22606, Control_c, 0, 64, 57
2,22625, Control_c, 0, 64, 60
2,22644, Control_c, 0, 64, 62
2,22664, Control_c, 0, 64, 64
2,22683, Control_c, 0, 64, 65
2,22702, Control_c, 0, 64, 68
2,22721, Control_c, 0, 64, 71
2,22724, Note_on_c, 0, 57, 52
2,22741, Control_c, 0, 64, 78
2,22759, Control_c, 0, 64, 85
2,22779, Control_c, 0, 64, 91
2,22798, Control_c, 0, 64, 98
2,22818, Control_c, 0, 64, 108
2,22836, Control_c, 0, 64, 127
2,23329, Note_on_c, 0, 61, 0
2,23330, Note_on_c, 0, 66, 62
2,23363, Note_on_c, 0, 56, 45
2,23381, Note_on_c, 0, 46, 34
2,23410, Note_on_c, 0, 57, 0
2,23450, Control_c, 0, 64, 106
2,23470, Control_c, 0, 64, 86
2,23489, Control_c, 0, 64, 75
2,23509, Control_c, 0, 64, 69
2,23527, Control_c, 0, 64, 64
2,23528, Note_on_c, 0, 45, 0
2,23547, Control_c, 0, 64, 61
2,23566, Control_c, 0, 64, 58
2,23585, Control_c, 0, 64, 55
2,23604, Control_c, 0, 64, 52
2,23624, Control_c, 0, 64, 49
2,23643, Control_c, 0, 64, 46
2,23662, Control_c, 0, 64, 43
2,23681, Control_c, 0, 64, 39
2,23701, Control_c, 0, 64, 32
2,23719, Control_c, 0, 64, 26
2,23739, Control_c, 0, 64, 19
2,23758, Control_c, 0, 64, 11
2,23778, Control_c, 0, 64, 0
2,23933, Note_on_c, 0, 54, 53
2,24032, Note_on_c, 0, 56, 0
2,24522, Note_on_c, 0, 56, 59
2,24554, Note_on_c, 0, 48, 26
2,24688, Note_on_c, 0, 66, 0
2,24750, Note_on_c, 0, 46, 0
2,24787, Note_on_c, 0, 54, 0
2,25122, Note_on_c, 0, 64, 61
2,25159, Control_c, 0, 64, 11
2,25179, Control_c, 0, 64, 36
2,25198, Control_c, 0, 64, 48
2,25218, Control_c, 0, 64, 54
2,25236, Control_c, 0, 64, 57
2,25256, Control_c, 0, 64, 59
2,25275, Control_c, 0, 64, 61
2,25294, Control_c, 0, 64, 63
2,25313, Control_c, 0, 64, 65
2,25330, Control_c, 0, 64, 69
2,25350, Control_c, 0, 64, 77
2,25369, Control_c, 0, 64, 87
2,25388, Control_c, 0, 64, 99
2,25407, Control_c, 0, 64, 116
2,25407, Note_on_c, 0, 56, 0
2,25427, Control_c, 0, 64, 127
2,25594, Note_on_c, 0, 64, 0
2,25724, Note_on_c, 0, 63, 58
2,25736, Note_on_c, 0, 49, 40
2,25773, Control_c, 0, 64, 90
2,25777, Note_on_c, 0, 54, 40
2,25791, Control_c, 0, 64, 75
2,25810, Control_c, 0, 64, 67
2,25814, Note_on_c, 0, 48, 0
2,25830, Control_c, 0, 64, 59
2,25849, Control_c, 0, 64, 41
2,25868, Control_c, 0, 64, 0
2,25984, Control_c, 0, 64, 9
2,26002, Control_c, 0, 64, 39
2,26022, Control_c, 0, 64, 52
2,26041, Control_c, 0, 64, 58
2,26060, Control_c, 0, 64, 60
2,26079, Control_c, 0, 64, 62
2,26079, Note_on_c, 0, 54, 0
2,26099, Control_c, 0, 64, 64
2,26118, Control_c, 0, 64, 67
2,26137, Control_c, 0, 64, 72
2,26156, Control_c, 0, 64, 81
2,26176, Control_c, 0, 64, 92
2,26194, Control_c, 0, 64, 100
2,26214, Control_c, 0, 64, 108
2,26233, Control_c, 0, 64, 127
2,26304, Note_on_c, 0, 63, 0
2,26329, Control_c, 0, 64, 108
2,26329, Note_on_c, 0, 61, 54
2,26348, Control_c, 0, 64, 97
2,26359, Note_on_c, 0, 52, 35
2,26367, Control_c, 0, 64, 89
2,26387, Control_c, 0, 64, 77
2,26405, Control_c, 0, 64, 66
2,26425, Control_c, 0, 64, 48
2,26444, Control_c, 0, 64, 0
2,26521, Control_c, 0, 64, 17
2,26540, Control_c, 0, 64, 46
2,26559, Control_c, 0, 64, 55
2,26579, Control_c, 0, 64, 57
2,26598, Control_c, 0, 64, 60
2,26617, Control_c, 0, 64, 62
2,26633, Note_on_c, 0, 52, 0
2,26636, Control_c, 0, 64, 63
2,26656, Control_c, 0, 64, 66
2,26674, Control_c, 0, 64, 69
2,26694, Control_c, 0, 64, 74
2,26713, Control_c, 0, 64, 82
2,26715, Note_on_c, 0, 61, 0
2,26733, Control_c, 0, 64, 93
2,26751, Control_c, 0, 64, 103
2,26770, Control_c, 0, 64, 114
2,26790, Control_c, 0, 64, 127
2,26844, Note_on_c, 0, 49, 0
2,27019, Note_on_c, 0, 61, 47
2,27072, Note_on_c, 0, 51, 29
2,27075, Note_on_c, 0, 44, 33
2,27079, Control_c, 0, 64, 107
2,27098, Control_c, 0, 64, 91
2,27117, Control_c, 0, 64, 78
2,27137, Control_c, 0, 64, 69
2,27155, Control_c, 0, 64, 64
2,27175, Control_c, 0, 64, 61
2,27194, Control_c, 0, 64, 60
2,27214, Control_c, 0, 64, 59
2,27232, Control_c, 0, 64, 59
2,27249, Control_c, 0, 64, 57
2,27269, Control_c, 0, 64, 55
2,27288, Control_c, 0, 64, 53
2,27307, Control_c, 0, 64, 52
2,27326, Control_c, 0, 64, 51
2,27346, Control_c, 0, 64, 50
2,27364, Control_c, 0, 64, 49
2,27384, Control_c, 0, 64, 48
2,27403, Control_c, 0, 64, 47
2,27423, Control_c, 0, 64, 46
2,27441, Control_c, 0, 64, 46
2,27461, Control_c, 0, 64, 45
2,27480, Control_c, 0, 64, 44
2,27499, Control_c, 0, 64, 44
2,27518, Control_c, 0, 64, 43
2,27538, Control_c, 0, 64, 42
2,27557, Control_c, 0, 64, 41
2,27576, Control_c, 0, 64, 40
2,27615, Control_c, 0, 64, 40
2,27619, Note_on_c, 0, 45, 48
2,27634, Control_c, 0, 64, 39
2,27686, Note_on_c, 0, 44, 0
2,27768, Control_c, 0, 64, 39
2,27826, Control_c, 0, 64, 38
2,27979, Control_c, 0, 64, 38
2,28097, Control_c, 0, 64, 38
2,28211, Note_on_c, 0, 68, 64
2,28260, Note_on_c, 0, 51, 0
2,28260, Note_on_c, 0, 59, 36
2,28263, Note_on_c, 0, 47, 37
2,28288, Control_c, 0, 64, 39
2,28303, Note_on_c, 0, 45, 0
2,28316, Note_on_c, 0, 61, 0
2,28500, Control_c, 0, 64, 39
2,28654, Control_c, 0, 64, 40
2,28672, Control_c, 0, 64, 41
2,28691, Control_c, 0, 64, 43
2,28711, Control_c, 0, 64, 44
2,28729, Control_c, 0, 64, 46
2,28749, Control_c, 0, 64, 50
2,28768, Control_c, 0, 64, 54
2,28788, Control_c, 0, 64, 57
2,28806, Control_c, 0, 64, 59
2,28826, Control_c, 0, 64, 61
2,28831, Note_on_c, 0, 50, 52
2,28845, Control_c, 0, 64, 63
2,28845, Note_on_c, 0, 59, 0
2,28864, Control_c, 0, 64, 64
2,28883, Control_c, 0, 64, 66
2,28903, Control_c, 0, 64, 68
2,28922, Control_c, 0, 64, 73
2,28941, Control_c, 0, 64, 85
2,28960, Control_c, 0, 64, 102
2,28981, Control_c, 0, 64, 127
2,29020, Note_on_c, 0, 47, 0
2,29433, Note_on_c, 0, 65, 60
2,29464, Note_on_c, 0, 61, 47
2,29509, Note_on_c, 0, 49, 37
2,29574, Control_c, 0, 64, 121
2,29593, Control_c, 0, 64, 98
2,29613, Control_c, 0, 64, 82
2,29616, Note_on_c, 0, 68, 0
2,29630, Note_on_c, 0, 50, 0
2,29631, Control_c, 0, 64, 73
2,29650, Control_c, 0, 64, 67
2,29670, Control_c, 0, 64, 64
2,29689, Control_c, 0, 64, 61
2,29708, Control_c, 0, 64, 59
2,29727, Control_c, 0, 64, 56
2,29747, Control_c, 0, 64, 54
2,29765, Control_c, 0, 64, 51
2,29785, Control_c, 0, 64, 47
2,29804, Control_c, 0, 64, 43
2,29824, Control_c, 0, 64, 38
2,29842, Control_c, 0, 64, 34
2,29862, Control_c, 0, 64, 29
2,29881, Control_c, 0, 64, 23
2,29900, Control_c, 0, 64, 17
2,29919, Control_c, 0, 64, 9
2,29939, Control_c, 0, 64, 0
2,30038, Note_on_c, 0, 45, 51
2,30575, Note_on_c, 0, 45, 0
2,30614, Note_on_c, 0, 69, 58
2,30632, Note_on_c, 0, 66, 42
2,30643, Note_on_c, 0, 44, 42
2,30647, Note_on_c, 0, 65, 0
2,31012, Control_c, 0, 64, 22
2,31032, Control_c, 0, 64, 32
2,31051, Control_c, 0, 64, 42
2,31070, Control_c, 0, 64, 48
2,31090, Control_c, 0, 64, 53
2,31110, Control_c, 0, 64, 55
2,31126, Note_on_c, 0, 44, 0
2,31129, Control_c, 0, 64, 57
2,31148, Control_c, 0, 64, 60
2,31167, Control_c, 0, 64, 61
2,31187, Control_c, 0, 64, 63
2,31194, Note_on_c, 0, 42, 34
2,31205, Control_c, 0, 64, 64
2,31225, Control_c, 0, 64, 65
2,31244, Control_c, 0, 64, 67
2,31260, Note_on_c, 0, 49, 0
2,31264, Control_c, 0, 64, 71
2,31282, Control_c, 0, 64, 79
2,31292, Note_on_c, 0, 61, 0
2,31302, Control_c, 0, 64, 90
2,31321, Control_c, 0, 64, 105
2,31338, Note_on_c, 0, 66, 0
2,31340, Control_c, 0, 64, 127
2,31883, Note_on_c, 0, 68, 59
2,31918, Note_on_c, 0, 69, 0
2,31945, Note_on_c, 0, 49, 33
2,31993, Control_c, 0, 64, 110
2,32012, Control_c, 0, 64, 91
2,32031, Control_c, 0, 64, 75
2,32049, Note_on_c, 0, 42, 0
2,32050, Control_c, 0, 64, 64
2,32070, Control_c, 0, 64, 47
2,32089, Control_c, 0, 64, 22
2,32108, Control_c, 0, 64, 0
2,32262, Control_c, 0, 64, 36
2,32281, Control_c, 0, 64, 50
2,32300, Control_c, 0, 64, 57
2,32319, Control_c, 0, 64, 60
2,32339, Control_c, 0, 64, 62
2,32358, Control_c, 0, 64, 64
2,32377, Control_c, 0, 64, 65
2,32396, Control_c, 0, 64, 68
2,32416, Control_c, 0, 64, 71
2,32434, Control_c, 0, 64, 79
2,32454, Control_c, 0, 64, 94
2,32473, Control_c, 0, 64, 127
2,32500, Note_on_c, 0, 64, 55
2,32734, Note_on_c, 0, 64, 0
2,33089, Note_on_c, 0, 68, 0
2,33134, Note_on_c, 0, 73, 69
2,33177, Note_on_c, 0, 66, 42
2,33188, Note_on_c, 0, 45, 30
2,33192, Note_on_c, 0, 63, 26
2,33233, Note_on_c, 0, 49, 0
2,33318, Control_c, 0, 64, 83
2,33337, Control_c, 0, 64, 65
2,33356, Control_c, 0, 64, 52
2,33376, Control_c, 0, 64, 25
2,33394, Control_c, 0, 64, 0
2,33490, Control_c, 0, 64, 23
2,33510, Control_c, 0, 64, 40
2,33529, Control_c, 0, 64, 51
2,33548, Control_c, 0, 64, 57
2,33557, Note_on_c, 0, 63, 0
2,33567, Control_c, 0, 64, 61
2,33587, Control_c, 0, 64, 63
2,33605, Control_c, 0, 64, 65
2,33625, Control_c, 0, 64, 67
2,33644, Control_c, 0, 64, 70
2,33664, Control_c, 0, 64, 74
2,33682, Control_c, 0, 64, 82
2,33702, Control_c, 0, 64, 96
2,33721, Control_c, 0, 64, 127
2,33729, Note_on_c, 0, 61, 61
2,33919, Note_on_c, 0, 73, 0
2,33971, Note_on_c, 0, 61, 0
2,34351, Note_on_c, 0, 72, 70
2,34404, Note_on_c, 0, 66, 0
2,34406, Note_on_c, 0, 63, 40
2,34449, Control_c, 0, 64, 106
2,34469, Control_c, 0, 64, 80
2,34488, Control_c, 0, 64, 67
2,34507, Control_c, 0, 64, 59
2,34526, Control_c, 0, 64, 46
2,34546, Control_c, 0, 64, 35
2,34564, Control_c, 0, 64, 29
2,34584, Control_c, 0, 64, 28
2,34603, Control_c, 0, 64, 32
2,34623, Control_c, 0, 64, 46
2,34641, Control_c, 0, 64, 57
2,34661, Control_c, 0, 64, 61
2,34680, Control_c, 0, 64, 64
2,34699, Control_c, 0, 64, 65
2,34718, Control_c, 0, 64, 68
2,34738, Control_c, 0, 64, 71
2,34758, Control_c, 0, 64, 75
2,34777, Control_c, 0, 64, 81
2,34796, Control_c, 0, 64, 91
2,34816, Control_c, 0, 64, 113
2,34834, Control_c, 0, 64, 127
2,34939, Note_on_c, 0, 63, 0
2,34945, Note_on_c, 0, 44, 61
2,35220, Note_on_c, 0, 45, 0
2,35547, Note_on_c, 0, 76, 72
2,35571, Note_on_c, 0, 73, 53
2,35584, Note_on_c, 0, 72, 0
2,35585, Note_on_c, 0, 68, 52
2,35590, Note_on_c, 0, 42, 47
2,35679, Control_c, 0, 64, 110
2,35689, Note_on_c, 0, 44, 0
2,35699, Control_c, 0, 64, 93
2,35718, Control_c, 0, 64, 82
2,35737, Control_c, 0, 64, 75
2,35756, Control_c, 0, 64, 70
2,35776, Control_c, 0, 64, 66
2,35794, Control_c, 0, 64, 64
2,35814, Control_c, 0, 64, 63
2,35833, Control_c, 0, 64, 62
2,35852, Control_c, 0, 64, 61
2,35871, Control_c, 0, 64, 60
2,35891, Control_c, 0, 64, 57
2,35911, Control_c, 0, 64, 54
2,35929, Control_c, 0, 64, 51
2,35949, Control_c, 0, 64, 48
2,35968, Control_c, 0, 64, 47
2,35988, Control_c, 0, 64, 45
2,36006, Control_c, 0, 64, 44
2,36026, Control_c, 0, 64, 42
2,36045, Control_c, 0, 64, 41
2,36064, Control_c, 0, 64, 40
2,36083, Control_c, 0, 64, 39
2,36103, Control_c, 0, 64, 38
2,36144, Note_on_c, 0, 42, 0
2,36145, Note_on_c, 0, 40, 62
2,36180, Control_c, 0, 64, 38
2,36199, Control_c, 0, 64, 37
2,36352, Control_c, 0, 64, 38
2,36468, Control_c, 0, 64, 38
2,36486, Control_c, 0, 64, 39
2,36506, Control_c, 0, 64, 39
2,36525, Control_c, 0, 64, 40
2,36563, Control_c, 0, 64, 40
2,36679, Control_c, 0, 64, 41
2,36699, Control_c, 0, 64, 41
2,36718, Control_c, 0, 64, 42
2,36786, Note_on_c, 0, 75, 71
2,36822, Note_on_c, 0, 42, 35
2,36858, Note_on_c, 0, 73, 0
2,36863, Note_on_c, 0, 76, 0
2,36890, Note_on_c, 0, 40, 0
2,36948, Control_c, 0, 64, 42
2,37043, Control_c, 0, 64, 43
2,37082, Control_c, 0, 64, 43
2,37101, Control_c, 0, 64, 44
2,37120, Control_c, 0, 64, 44
2,37140, Control_c, 0, 64, 45
2,37169, Note_on_c, 0, 68, 0
2,37255, Control_c, 0, 64, 46
2,37274, Control_c, 0, 64, 48
2,37293, Control_c, 0, 64, 50
2,37312, Control_c, 0, 64, 53
2,37331, Control_c, 0, 64, 56
2,37351, Control_c, 0, 64, 59
2,37369, Control_c, 0, 64, 60
2,37385, Note_on_c, 0, 69, 57
2,37389, Control_c, 0, 64, 62
2,37408, Control_c, 0, 64, 63
2,37428, Control_c, 0, 64, 64
2,37446, Control_c, 0, 64, 65
2,37466, Control_c, 0, 64, 67
2,37485, Control_c, 0, 64, 69
2,37504, Control_c, 0, 64, 72
2,37523, Control_c, 0, 64, 76
2,37543, Control_c, 0, 64, 83
2,37562, Control_c, 0, 64, 91
2,37581, Control_c, 0, 64, 101
2,37600, Control_c, 0, 64, 127
2,37929, Note_on_c, 0, 69, 0
2,37967, Note_on_c, 0, 71, 55
2,37976, Note_on_c, 0, 68, 49
2,37999, Note_on_c, 0, 44, 33
2,38004, Note_on_c, 0, 75, 0
2,38023, Control_c, 0, 64, 113
2,38042, Control_c, 0, 64, 93
2,38061, Control_c, 0, 64, 82
2,38080, Control_c, 0, 64, 74
2,38100, Control_c, 0, 64, 69
2,38110, Note_on_c, 0, 42, 0
2,38119, Control_c, 0, 64, 66
2,38138, Control_c, 0, 64, 64
2,38157, Control_c, 0, 64, 61
2,38177, Control_c, 0, 64, 59
2,38195, Control_c, 0, 64, 56
2,38215, Control_c, 0, 64, 54
2,38234, Control_c, 0, 64, 51
2,38253, Control_c, 0, 64, 48
2,38272, Control_c, 0, 64, 44
2,38291, Control_c, 0, 64, 39
2,38311, Control_c, 0, 64, 32
2,38329, Control_c, 0, 64, 23
2,38349, Control_c, 0, 64, 0
2,38499, Note_on_c, 0, 68, 0
2,38540, Note_on_c, 0, 66, 39
2,38580, Control_c, 0, 64, 28
2,38599, Control_c, 0, 64, 46
2,38618, Control_c, 0, 64, 54
2,38637, Control_c, 0, 64, 58
2,38657, Control_c, 0, 64, 61
2,38675, Control_c, 0, 64, 62
2,38695, Control_c, 0, 64, 63
2,38714, Control_c, 0, 64, 64
2,38733, Control_c, 0, 64, 65
2,38752, Control_c, 0, 64, 66
2,38771, Control_c, 0, 64, 68
2,38791, Control_c, 0, 64, 72
2,38809, Control_c, 0, 64, 79
2,38829, Control_c, 0, 64, 87
2,38848, Control_c, 0, 64, 97
2,38868, Control_c, 0, 64, 105
2,38886, Control_c, 0, 64, 127
2,39162, Note_on_c, 0, 73, 56
2,39164, Note_on_c, 0, 44, 0
2,39194, Control_c, 0, 64, 101
2,39195, Note_on_c, 0, 66, 0
2,39213, Control_c, 0, 64, 81
2,39213, Note_on_c, 0, 71, 0
2,39218, Note_on_c, 0, 65, 20
2,39221, Note_on_c, 0, 45, 34
2,39232, Control_c, 0, 64, 69
2,39251, Control_c, 0, 64, 62
2,39271, Control_c, 0, 64, 55
2,39289, Control_c, 0, 64, 46
2,39309, Control_c, 0, 64, 36
2,39328, Control_c, 0, 64, 31
2,39348, Control_c, 0, 64, 30
2,39366, Control_c, 0, 64, 32
2,39386, Control_c, 0, 64, 43
2,39405, Control_c, 0, 64, 56
2,39424, Control_c, 0, 64, 61
2,39443, Control_c, 0, 64, 63
2,39463, Control_c, 0, 64, 65
2,39482, Control_c, 0, 64, 66
2,39488, Note_on_c, 0, 65, 0
2,39501, Control_c, 0, 64, 69
2,39520, Control_c, 0, 64, 72
2,39541, Control_c, 0, 64, 75
2,39559, Control_c, 0, 64, 78
2,39579, Control_c, 0, 64, 81
2,39598, Control_c, 0, 64, 85
2,39618, Control_c, 0, 64, 92
2,39636, Control_c, 0, 64, 100
2,39656, Control_c, 0, 64, 114
2,39675, Control_c, 0, 64, 127
2,39767, Note_on_c, 0, 61, 58
2,39782, Note_on_c, 0, 44, 42
2,39787, Control_c, 0, 64, 102
2,39806, Control_c, 0, 64, 78
2,39815, Note_on_c, 0, 45, 0
2,39826, Control_c, 0, 64, 66
2,39844, Control_c, 0, 64, 59
2,39864, Control_c, 0, 64, 57
2,39883, Control_c, 0, 64, 58
2,39903, Control_c, 0, 64, 60
2,39921, Control_c, 0, 64, 63
2,39941, Control_c, 0, 64, 66
2,39960, Control_c, 0, 64, 70
2,39980, Control_c, 0, 64, 75
2,39998, Control_c, 0, 64, 82
2,40018, Control_c, 0, 64, 89
2,40037, Control_c, 0, 64, 95
2,40056, Control_c, 0, 64, 99
2,40075, Control_c, 0, 64, 106
2,40095, Control_c, 0, 64, 127
2,40342, Note_on_c, 0, 69, 65
2,40373, Note_on_c, 0, 45, 41
2,40380, Note_on_c, 0, 66, 52
2,40399, Note_on_c, 0, 44, 0
2,40434, Note_on_c, 0, 73, 0
2,40498, Control_c, 0, 64, 98
2,40506, Note_on_c, 0, 61, 0
2,40518, Control_c, 0, 64, 83
2,40537, Control_c, 0, 64, 74
2,40556, Control_c, 0, 64, 69
2,40576, Control_c, 0, 64, 66
2,40594, Control_c, 0, 64, 65
2,40613, Control_c, 0, 64, 64
2,40633, Control_c, 0, 64, 61
2,40652, Control_c, 0, 64, 56
2,40671, Control_c, 0, 64, 47
2,40689, Control_c, 0, 64, 32
2,40709, Control_c, 0, 64, 0
2,40843, Control_c, 0, 64, 32
2,40863, Control_c, 0, 64, 50
2,40875, Note_on_c, 0, 75, 68
2,40881, Control_c, 0, 64, 59
2,40901, Control_c, 0, 64, 62
2,40920, Control_c, 0, 64, 64
2,40929, Note_on_c, 0, 47, 35
2,40940, Control_c, 0, 64, 66
2,40958, Control_c, 0, 64, 68
2,40967, Note_on_c, 0, 69, 0
2,40978, Control_c, 0, 64, 71
2,40994, Note_on_c, 0, 45, 0
2,40997, Control_c, 0, 64, 75
2,41016, Control_c, 0, 64, 81
2,41018, Note_on_c, 0, 66, 0
2,41035, Control_c, 0, 64, 91
2,41055, Control_c, 0, 64, 109
2,41074, Control_c, 0, 64, 127
2,41488, Note_on_c, 0, 76, 74
2,41489, Note_on_c, 0, 75, 0
2,41524, Note_on_c, 0, 68, 46
2,41539, Note_on_c, 0, 64, 37
2,41540, Note_on_c, 0, 49, 41
2,41555, Control_c, 0, 64, 110
2,41574, Control_c, 0, 64, 100
2,41594, Control_c, 0, 64, 91
2,41613, Control_c, 0, 64, 82
2,41632, Control_c, 0, 64, 73
2,41642, Note_on_c, 0, 47, 0
2,41650, Control_c, 0, 64, 66
2,41670, Control_c, 0, 64, 63
2,41689, Control_c, 0, 64, 61
2,41708, Control_c, 0, 64, 60
2,41727, Control_c, 0, 64, 58
2,41747, Control_c, 0, 64, 56
2,41765, Control_c, 0, 64, 52
2,41785, Control_c, 0, 64, 47
2,41804, Control_c, 0, 64, 44
2,41824, Control_c, 0, 64, 43
2,41862, Control_c, 0, 64, 41
2,41881, Control_c, 0, 64, 37
2,41900, Control_c, 0, 64, 33
2,41919, Control_c, 0, 64, 29
2,41939, Control_c, 0, 64, 28
2,41977, Control_c, 0, 64, 27
2,41996, Control_c, 0, 64, 23
2,42016, Control_c, 0, 64, 15
2,42034, Control_c, 0, 64, 0
2,42045, Note_on_c, 0, 75, 70
2,42076, Note_on_c, 0, 47, 43
2,42128, Note_on_c, 0, 49, 0
2,42244, Note_on_c, 0, 76, 0
2,42265, Control_c, 0, 64, 35
2,42265, Note_on_c, 0, 64, 0
2,42284, Control_c, 0, 64, 50
2,42304, Control_c, 0, 64, 56
2,42322, Control_c, 0, 64, 60
2,42342, Control_c, 0, 64, 62
2,42361, Control_c, 0, 64, 64
2,42380, Control_c, 0, 64, 64
2,42399, Control_c, 0, 64, 65
2,42421, Control_c, 0, 64, 66
2,42439, Control_c, 0, 64, 66
2,42459, Control_c, 0, 64, 67
2,42478, Control_c, 0, 64, 67
2,42516, Control_c, 0, 64, 68
2,42609, Control_c, 0, 64, 67
2,42626, Note_on_c, 0, 73, 59
2,42643, Note_on_c, 0, 69, 42
2,42648, Control_c, 0, 64, 67
2,42664, Note_on_c, 0, 49, 35
2,42667, Control_c, 0, 64, 66
2,42681, Note_on_c, 0, 47, 0
2,42686, Control_c, 0, 64, 66
2,42706, Control_c, 0, 64, 64
2,42724, Control_c, 0, 64, 63
2,42726, Note_on_c, 0, 75, 0
2,42740, Note_on_c, 0, 68, 0
2,42744, Control_c, 0, 64, 62
2,42763, Control_c, 0, 64, 61
2,42783, Control_c, 0, 64, 59
2,42801, Control_c, 0, 64, 57
2,42821, Control_c, 0, 64, 54
2,42840, Control_c, 0, 64, 50
2,42860, Control_c, 0, 64, 46
2,42878, Control_c, 0, 64, 43
2,42898, Control_c, 0, 64, 42
2,42917, Control_c, 0, 64, 41
2,42936, Control_c, 0, 64, 39
2,42955, Control_c, 0, 64, 36
2,42974, Control_c, 0, 64, 34
2,42994, Control_c, 0, 64, 33
2,43051, Control_c, 0, 64, 32
2,43070, Control_c, 0, 64, 31
2,43089, Control_c, 0, 64, 30
2,43109, Control_c, 0, 64, 29
2,43128, Control_c, 0, 64, 29
2,43147, Control_c, 0, 64, 28
2,43200, Note_on_c, 0, 51, 35
2,43279, Note_on_c, 0, 49, 0
2,43416, Control_c, 0, 64, 29
2,43435, Control_c, 0, 64, 29
2,43474, Control_c, 0, 64, 30
2,43569, Control_c, 0, 64, 31
2,43589, Control_c, 0, 64, 31
2,43608, Control_c, 0, 64, 32
2,43666, Control_c, 0, 64, 32
2,43833, Note_on_c, 0, 71, 49
2,43866, Note_on_c, 0, 52, 28
2,43869, Note_on_c, 0, 51, 0
2,43954, Control_c, 0, 64, 32
2,43972, Control_c, 0, 64, 31
2,43978, Note_on_c, 0, 69, 0
2,43984, Note_on_c, 0, 73, 0
2,43992, Control_c, 0, 64, 31
2,44011, Control_c, 0, 64, 29
2,44030, Control_c, 0, 64, 28
2,44049, Control_c, 0, 64, 26
2,44069, Control_c, 0, 64, 22
2,44088, Control_c, 0, 64, 18
2,44107, Control_c, 0, 64, 9
2,44126, Control_c, 0, 64, 0
2,44261, Control_c, 0, 64, 15
2,44280, Control_c, 0, 64, 29
2,44300, Control_c, 0, 64, 40
2,44318, Control_c, 0, 64, 48
2,44338, Control_c, 0, 64, 54
2,44357, Control_c, 0, 64, 57
2,44376, Control_c, 0, 64, 59
2,44395, Control_c, 0, 64, 61
2,44414, Control_c, 0, 64, 62
2,44431, Note_on_c, 0, 68, 48
2,44434, Control_c, 0, 64, 63
2,44452, Control_c, 0, 64, 65
2,44472, Control_c, 0, 64, 67
2,44491, Control_c, 0, 64, 69
2,44510, Control_c, 0, 64, 72
2,44529, Control_c, 0, 64, 76
2,44549, Control_c, 0, 64, 83
2,44568, Control_c, 0, 64, 93
2,44587, Control_c, 0, 64, 112
2,44606, Control_c, 0, 64, 127
2,44696, Note_on_c, 0, 68, 0
2,45082, Note_on_c, 0, 73, 54
2,45087, Note_on_c, 0, 56, 66
2,45120, Note_on_c, 0, 68, 39
2,45121, Note_on_c, 0, 66, 40
2,45138, Note_on_c, 0, 49, 45
2,45163, Control_c, 0, 64, 108
2,45172, Note_on_c, 0, 71, 0
2,45183, Control_c, 0, 64, 92
2,45190, Note_on_c, 0, 52, 0
2,45201, Control_c, 0, 64, 83
2,45221, Control_c, 0, 64, 75
2,45240, Control_c, 0, 64, 68
2,45260, Control_c, 0, 64, 63
2,45278, Control_c, 0, 64, 59
2,45301, Control_c, 0, 64, 52
2,45319, Control_c, 0, 64, 46
2,45339, Control_c, 0, 64, 40
2,45358, Control_c, 0, 64, 29
2,45378, Control_c, 0, 64, 0
2,45605, Control_c, 0, 64, 37
2,45625, Control_c, 0, 64, 52
2,45644, Control_c, 0, 64, 58
2,45664, Control_c, 0, 64, 61
2,45682, Control_c, 0, 64, 63
2,45702, Control_c, 0, 64, 64
2,45716, Note_on_c, 0, 64, 53
2,45721, Control_c, 0, 64, 66
2,45724, Note_on_c, 0, 66, 0
2,45729, Note_on_c, 0, 68, 0
2,45740, Control_c, 0, 64, 68
2,45759, Control_c, 0, 64, 71
2,45779, Control_c, 0, 64, 76
2,45798, Control_c, 0, 64, 85
2,45817, Control_c, 0, 64, 101
2,45836, Control_c, 0, 64, 127
2,45930, Note_on_c, 0, 56, 0
2,45938, Note_on_c, 0, 64, 0
2,46325, Note_on_c, 0, 55, 61
2,46331, Note_on_c, 0, 75, 63
2,46363, Note_on_c, 0, 63, 39
2,46368, Note_on_c, 0, 70, 44
2,46411, Control_c, 0, 64, 95
2,46430, Control_c, 0, 64, 78
2,46431, Note_on_c, 0, 73, 0
2,46449, Control_c, 0, 64, 68
2,46469, Control_c, 0, 64, 63
2,46472, Note_on_c, 0, 49, 0
2,46488, Control_c, 0, 64, 58
2,46507, Control_c, 0, 64, 50
2,46526, Control_c, 0, 64, 36
2,46546, Control_c, 0, 64, 0
2,46641, Control_c, 0, 64, 13
2,46661, Control_c, 0, 64, 39
2,46680, Control_c, 0, 64, 53
2,46700, Control_c, 0, 64, 57
2,46718, Control_c, 0, 64, 60
2,46740, Control_c, 0, 64, 62
2,46760, Control_c, 0, 64, 64
2,46778, Control_c, 0, 64, 66
2,46798, Control_c, 0, 64, 68
2,46817, Control_c, 0, 64, 73
2,46837, Control_c, 0, 64, 78
2,46855, Control_c, 0, 64, 86
2,46875, Control_c, 0, 64, 101
2,46892, Note_on_c, 0, 47, 60
2,46894, Control_c, 0, 64, 127
2,46927, Note_on_c, 0, 70, 0
2,46945, Note_on_c, 0, 55, 0
2,47017, Note_on_c, 0, 63, 0
2,47454, Note_on_c, 0, 59, 68
2,47468, Note_on_c, 0, 68, 61
2,47469, Control_c, 0, 64, 82
2,47481, Note_on_c, 0, 46, 52
2,47488, Control_c, 0, 64, 63
2,47494, Note_on_c, 0, 47, 0
2,47508, Control_c, 0, 64, 0
2,47603, Control_c, 0, 64, 43
2,47622, Control_c, 0, 64, 58
2,47642, Control_c, 0, 64, 62
2,47657, Note_on_c, 0, 75, 0
2,47661, Control_c, 0, 64, 64
2,47680, Control_c, 0, 64, 65
2,47796, Control_c, 0, 64, 66
2,47814, Control_c, 0, 64, 67
2,47834, Control_c, 0, 64, 67
2,47853, Control_c, 0, 64, 68
2,47872, Control_c, 0, 64, 68
2,47891, Control_c, 0, 64, 69
2,47911, Control_c, 0, 64, 70
2,47930, Control_c, 0, 64, 70
2,47949, Control_c, 0, 64, 69
2,47968, Control_c, 0, 64, 67
2,48000, Note_on_c, 0, 46, 0
2,48025, Control_c, 0, 64, 66
2,48045, Control_c, 0, 64, 64
2,48054, Note_on_c, 0, 44, 51
2,48064, Control_c, 0, 64, 57
2,48083, Control_c, 0, 64, 46
2,48102, Control_c, 0, 64, 36
2,48122, Control_c, 0, 64, 27
2,48141, Control_c, 0, 64, 23
2,48160, Control_c, 0, 64, 27
2,48179, Control_c, 0, 64, 43
2,48200, Control_c, 0, 64, 56
2,48218, Control_c, 0, 64, 61
2,48238, Control_c, 0, 64, 63
2,48244, Note_on_c, 0, 59, 0
2,48257, Control_c, 0, 64, 65
2,48277, Control_c, 0, 64, 67
2,48295, Control_c, 0, 64, 70
2,48315, Control_c, 0, 64, 73
2,48334, Control_c, 0, 64, 77
2,48353, Control_c, 0, 64, 80
2,48371, Control_c, 0, 64, 83
2,48391, Control_c, 0, 64, 90
2,48410, Control_c, 0, 64, 98
2,48429, Control_c, 0, 64, 108
2,48448, Control_c, 0, 64, 123
2,48468, Control_c, 0, 64, 127
2,48659, Note_on_c, 0, 58, 60
2,48688, Note_on_c, 0, 49, 45
2,48774, Control_c, 0, 64, 121
2,48790, Note_on_c, 0, 44, 0
2,48794, Control_c, 0, 64, 101
2,48813, Control_c, 0, 64, 88
2,48832, Control_c, 0, 64, 78
2,48851, Control_c, 0, 64, 72
2,48871, Control_c, 0, 64, 68
2,48890, Control_c, 0, 64, 67
2,48909, Control_c, 0, 64, 66
2,48928, Control_c, 0, 64, 65
2,48948, Control_c, 0, 64, 63
2,48967, Control_c, 0, 64, 59
2,48985, Control_c, 0, 64, 47
2,49005, Control_c, 0, 64, 0
2,49248, Note_on_c, 0, 76, 63
2,49809, Note_on_c, 0, 68, 0
2,49811, Note_on_c, 0, 75, 62
2,49834, Note_on_c, 0, 51, 30
2,49867, Note_on_c, 0, 67, 15
2,49896, Note_on_c, 0, 49, 0
2,49913, Note_on_c, 0, 76, 0
2,50057, Control_c, 0, 64, 17
2,50075, Control_c, 0, 64, 26
2,50095, Control_c, 0, 64, 32
2,50114, Control_c, 0, 64, 38
2,50133, Control_c, 0, 64, 41
2,50152, Control_c, 0, 64, 44
2,50172, Control_c, 0, 64, 45
2,50191, Control_c, 0, 64, 47
2,50210, Control_c, 0, 64, 50
2,50229, Control_c, 0, 64, 55
2,50249, Control_c, 0, 64, 59
2,50267, Control_c, 0, 64, 62
2,50287, Control_c, 0, 64, 63
2,50306, Control_c, 0, 64, 64
2,50326, Control_c, 0, 64, 66
2,50336, Note_on_c, 0, 58, 0
2,50344, Control_c, 0, 64, 68
2,50363, Control_c, 0, 64, 71
2,50367, Note_on_c, 0, 73, 61
2,50383, Control_c, 0, 64, 76
2,50401, Control_c, 0, 64, 84
2,50417, Note_on_c, 0, 75, 0
2,50421, Control_c, 0, 64, 90
2,50440, Control_c, 0, 64, 96
2,50460, Control_c, 0, 64, 103
2,50478, Control_c, 0, 64, 116
2,50498, Control_c, 0, 64, 127
2,50563, Note_on_c, 0, 67, 0
2,50696, Note_on_c, 0, 51, 0
2,50918, Note_on_c, 0, 73, 0
2,50942, Note_on_c, 0, 71, 64
2,50968, Note_on_c, 0, 56, 40
2,50970, Note_on_c, 0, 68, 46
2,50988, Note_on_c, 0, 44, 38
2,51017, Control_c, 0, 64, 98
2,51035, Control_c, 0, 64, 78
2,51055, Control_c, 0, 64, 66
2,51075, Control_c, 0, 64, 51
2,51094, Control_c, 0, 64, 28
2,51113, Control_c, 0, 64, 15
2,51133, Control_c, 0, 64, 20
2,51151, Control_c, 0, 64, 34
2,51171, Control_c, 0, 64, 44
2,51190, Control_c, 0, 64, 51
2,51210, Control_c, 0, 64, 55
2,51228, Control_c, 0, 64, 58
2,51248, Control_c, 0, 64, 59
2,51267, Control_c, 0, 64, 61
2,51287, Control_c, 0, 64, 62
2,51305, Control_c, 0, 64, 64
2,51324, Control_c, 0, 64, 66
2,51328, Note_on_c, 0, 56, 0
2,51344, Control_c, 0, 64, 70
2,51362, Control_c, 0, 64, 78
2,51382, Control_c, 0, 64, 88
2,51401, Control_c, 0, 64, 99
2,51415, Note_on_c, 0, 44, 0
2,51421, Control_c, 0, 64, 112
2,51439, Control_c, 0, 64, 127
2,51513, Note_on_c, 0, 75, 78
2,51551, Note_on_c, 0, 57, 40
2,51612, Note_on_c, 0, 57, 0
2,51648, Note_on_c, 0, 71, 0
2,51684, Note_on_c, 0, 68, 0
2,52114, Note_on_c, 0, 80, 80
2,52168, Note_on_c, 0, 56, 43
2,52175, Note_on_c, 0, 59, 35
2,52246, Note_on_c, 0, 75, 0
2,52247, Control_c, 0, 64, 108
2,52265, Control_c, 0, 64, 92
2,52284, Control_c, 0, 64, 81
2,52304, Control_c, 0, 64, 70
2,52322, Control_c, 0, 64, 59
2,52342, Control_c, 0, 64, 22
2,52361, Control_c, 0, 64, 0
2,52591, Control_c, 0, 64, 29
2,52611, Control_c, 0, 64, 44
2,52624, Note_on_c, 0, 56, 0
2,52630, Control_c, 0, 64, 53
2,52650, Control_c, 0, 64, 58
2,52668, Control_c, 0, 64, 61
2,52670, Note_on_c, 0, 54, 64
2,52688, Control_c, 0, 64, 64
2,52707, Control_c, 0, 64, 67
2,52727, Control_c, 0, 64, 71
2,52745, Control_c, 0, 64, 80
2,52764, Control_c, 0, 64, 93
2,52771, Note_on_c, 0, 59, 0
2,52784, Control_c, 0, 64, 127
2,53236, Note_on_c, 0, 54, 0
2,53307, Note_on_c, 0, 61, 60
2,53320, Note_on_c, 0, 53, 57
2,53493, Control_c, 0, 64, 94
2,53512, Control_c, 0, 64, 75
2,53532, Control_c, 0, 64, 63
2,53551, Control_c, 0, 64, 42
2,53570, Control_c, 0, 64, 11
2,53589, Control_c, 0, 64, 0
2,53723, Control_c, 0, 64, 17
2,53743, Control_c, 0, 64, 39
2,53761, Control_c, 0, 64, 50
2,53781, Control_c, 0, 64, 55
2,53800, Control_c, 0, 64, 58
2,53820, Control_c, 0, 64, 60
2,53838, Control_c, 0, 64, 63
2,53858, Control_c, 0, 64, 65
2,53877, Control_c, 0, 64, 69
2,53897, Control_c, 0, 64, 76
2,53910, Note_on_c, 0, 78, 67
2,53915, Control_c, 0, 64, 89
2,53935, Control_c, 0, 64, 112
2,53954, Control_c, 0, 64, 127
2,53972, Note_on_c, 0, 61, 0
2,53972, Note_on_c, 0, 80, 0
2,54429, Note_on_c, 0, 57, 70
2,54432, Note_on_c, 0, 80, 74
2,54537, Note_on_c, 0, 53, 0
2,54550, Control_c, 0, 64, 95
2,54570, Control_c, 0, 64, 75
2,54579, Note_on_c, 0, 78, 0
2,54588, Control_c, 0, 64, 64
2,54608, Control_c, 0, 64, 51
2,54627, Control_c, 0, 64, 29
2,54647, Control_c, 0, 64, 11
2,54665, Control_c, 0, 64, 13
2,54684, Control_c, 0, 64, 31
2,54704, Control_c, 0, 64, 46
2,54722, Control_c, 0, 64, 55
2,54742, Control_c, 0, 64, 58
2,54761, Control_c, 0, 64, 60
2,54781, Control_c, 0, 64, 62
2,54799, Control_c, 0, 64, 63
2,54819, Control_c, 0, 64, 64
2,54838, Control_c, 0, 64, 66
2,54857, Control_c, 0, 64, 69
2,54876, Control_c, 0, 64, 76
2,54896, Control_c, 0, 64, 89
2,54915, Control_c, 0, 64, 109
2,54934, Control_c, 0, 64, 127
2,54959, Note_on_c, 0, 81, 81
2,54961, Note_on_c, 0, 80, 0
2,54984, Note_on_c, 0, 61, 54
2,55128, Note_on_c, 0, 57, 0
2,55561, Note_on_c, 0, 83, 79
2,55603, Note_on_c, 0, 63, 42
2,55622, Note_on_c, 0, 56, 39
2,55640, Note_on_c, 0, 81, 0
2,55702, Control_c, 0, 64, 118
2,55721, Control_c, 0, 64, 90
2,55741, Control_c, 0, 64, 76
2,55759, Control_c, 0, 64, 68
2,55776, Note_on_c, 0, 61, 0
2,55779, Control_c, 0, 64, 64
2,55798, Control_c, 0, 64, 62
2,55817, Control_c, 0, 64, 60
2,55836, Control_c, 0, 64, 59
2,55856, Control_c, 0, 64, 58
2,55876, Control_c, 0, 64, 56
2,55895, Control_c, 0, 64, 53
2,55914, Control_c, 0, 64, 50
2,55934, Control_c, 0, 64, 48
2,55952, Control_c, 0, 64, 47
2,55972, Control_c, 0, 64, 46
2,55991, Control_c, 0, 64, 45
2,56011, Control_c, 0, 64, 44
2,56029, Control_c, 0, 64, 43
2,56048, Control_c, 0, 64, 41
2,56067, Control_c, 0, 64, 40
2,56087, Control_c, 0, 64, 40
2,56105, Control_c, 0, 64, 39
2,56144, Control_c, 0, 64, 39
2,56150, Note_on_c, 0, 61, 59
2,56182, Note_on_c, 0, 63, 0
2,56201, Control_c, 0, 64, 38
2,56239, Control_c, 0, 64, 37
2,56316, Control_c, 0, 64, 38
2,56336, Control_c, 0, 64, 38
2,56528, Control_c, 0, 64, 39
2,56547, Control_c, 0, 64, 39
2,56567, Control_c, 0, 64, 41
2,56585, Control_c, 0, 64, 42
2,56604, Control_c, 0, 64, 42
2,56663, Note_on_c, 0, 61, 0
2,56697, Note_on_c, 0, 63, 55
2,56701, Control_c, 0, 64, 43
2,56777, Control_c, 0, 64, 43
2,57044, Control_c, 0, 64, 44
2,57063, Control_c, 0, 64, 45
2,57082, Control_c, 0, 64, 47
2,57102, Control_c, 0, 64, 49
2,57121, Control_c, 0, 64, 52
2,57140, Control_c, 0, 64, 55
2,57159, Control_c, 0, 64, 57
2,57165, Note_on_c, 0, 63, 0
2,57179, Control_c, 0, 64, 58
2,57197, Control_c, 0, 64, 60
2,57217, Control_c, 0, 64, 61
2,57236, Control_c, 0, 64, 63
2,57239, Note_on_c, 0, 65, 47
2,57256, Control_c, 0, 64, 64
2,57274, Control_c, 0, 64, 65
2,57294, Control_c, 0, 64, 66
2,57313, Control_c, 0, 64, 68
2,57332, Control_c, 0, 64, 72
2,57351, Control_c, 0, 64, 80
2,57371, Control_c, 0, 64, 92
2,57390, Control_c, 0, 64, 105
2,57409, Control_c, 0, 64, 127
2,57465, Note_on_c, 0, 65, 0
2,57889, Note_on_c, 0, 66, 46
2,57892, Note_on_c, 0, 54, 40
2,57985, Control_c, 0, 64, 110
2,58004, Control_c, 0, 64, 91
2,58011, Note_on_c, 0, 56, 0
2,58023, Control_c, 0, 64, 81
2,58042, Control_c, 0, 64, 74
2,58062, Control_c, 0, 64, 70
2,58081, Control_c, 0, 64, 67
2,58100, Control_c, 0, 64, 63
2,58119, Control_c, 0, 64, 60
2,58139, Control_c, 0, 64, 56
2,58157, Control_c, 0, 64, 52
2,58177, Control_c, 0, 64, 49
2,58196, Control_c, 0, 64, 46
2,58216, Control_c, 0, 64, 39
2,58234, Control_c, 0, 64, 19
2,58254, Control_c, 0, 64, 0
2,58469, Note_on_c, 0, 81, 57
2,58475, Note_on_c, 0, 83, 0
2,58503, Control_c, 0, 64, 32
2,58522, Control_c, 0, 64, 46
2,58542, Control_c, 0, 64, 54
2,58561, Control_c, 0, 64, 57
2,58580, Control_c, 0, 64, 60
2,58599, Control_c, 0, 64, 62
2,58619, Control_c, 0, 64, 63
2,58637, Control_c, 0, 64, 64
2,58657, Control_c, 0, 64, 67
2,58676, Control_c, 0, 64, 71
2,58696, Control_c, 0, 64, 78
2,58714, Control_c, 0, 64, 89
2,58734, Control_c, 0, 64, 100
2,58754, Control_c, 0, 64, 112
2,58773, Control_c, 0, 64, 127
2,59086, Note_on_c, 0, 61, 69
2,59099, Note_on_c, 0, 80, 57
2,59118, Note_on_c, 0, 69, 40
2,59162, Note_on_c, 0, 66, 0
2,59195, Control_c, 0, 64, 119
2,59204, Note_on_c, 0, 81, 0
2,59215, Control_c, 0, 64, 97
2,59234, Control_c, 0, 64, 86
2,59253, Control_c, 0, 64, 79
2,59272, Control_c, 0, 64, 74
2,59275, Note_on_c, 0, 54, 0
2,59292, Control_c, 0, 64, 69
2,59311, Control_c, 0, 64, 64
2,59330, Control_c, 0, 64, 58
2,59349, Control_c, 0, 64, 48
2,59369, Control_c, 0, 64, 42
2,59387, Control_c, 0, 64, 37
2,59406, Control_c, 0, 64, 30
2,59426, Control_c, 0, 64, 11
2,59445, Control_c, 0, 64, 0
2,59598, Control_c, 0, 64, 32
2,59618, Control_c, 0, 64, 50
2,59637, Control_c, 0, 64, 57
2,59657, Control_c, 0, 64, 60
2,59675, Control_c, 0, 64, 62
2,59680, Note_on_c, 0, 78, 59
2,59695, Control_c, 0, 64, 63
2,59714, Control_c, 0, 64, 64
2,59716, Note_on_c, 0, 80, 0
2,59733, Control_c, 0, 64, 65
2,59752, Control_c, 0, 64, 69
2,59772, Control_c, 0, 64, 76
2,59791, Control_c, 0, 64, 90
2,59810, Control_c, 0, 64, 123
2,59829, Control_c, 0, 64, 127
2,59842, Note_on_c, 0, 69, 0
2,59911, Note_on_c, 0, 78, 0
2,60267, Note_on_c, 0, 61, 0
2,60295, Note_on_c, 0, 60, 62
2,60309, Note_on_c, 0, 80, 61
2,60337, Note_on_c, 0, 68, 38
2,60386, Control_c, 0, 64, 102
2,60405, Control_c, 0, 64, 80
2,60424, Control_c, 0, 64, 68
2,60443, Control_c, 0, 64, 62
2,60463, Control_c, 0, 64, 57
2,60481, Control_c, 0, 64, 50
2,60501, Control_c, 0, 64, 40
2,60520, Control_c, 0, 64, 27
2,60540, Control_c, 0, 64, 20
2,60558, Control_c, 0, 64, 21
2,60578, Control_c, 0, 64, 38
2,60578, Note_on_c, 0, 78, 57
2,60597, Control_c, 0, 64, 51
2,60617, Control_c, 0, 64, 58
2,60635, Control_c, 0, 64, 61
2,60655, Control_c, 0, 64, 63
2,60674, Control_c, 0, 64, 65
2,60693, Control_c, 0, 64, 66
2,60702, Note_on_c, 0, 80, 0
2,60712, Control_c, 0, 64, 68
2,60732, Control_c, 0, 64, 70
2,60751, Control_c, 0, 64, 74
2,60770, Control_c, 0, 64, 83
2,60789, Control_c, 0, 64, 97
2,60809, Control_c, 0, 64, 127
2,60822, Note_on_c, 0, 76, 64
2,60831, Note_on_c, 0, 56, 59
2,60836, Note_on_c, 0, 78, 0
2,61035, Note_on_c, 0, 76, 0
2,61048, Note_on_c, 0, 60, 0
2,61069, Note_on_c, 0, 75, 65
2,61081, Note_on_c, 0, 54, 59
2,61098, Note_on_c, 0, 56, 0
2,61111, Note_on_c, 0, 75, 0
2,61343, Note_on_c, 0, 68, 0
2,61363, Note_on_c, 0, 73, 72
2,61401, Note_on_c, 0, 64, 60
2,61406, Note_on_c, 0, 52, 38
2,61441, Control_c, 0, 64, 104
2,61460, Control_c, 0, 64, 91
2,61463, Note_on_c, 0, 54, 0
2,61479, Control_c, 0, 64, 82
2,61499, Control_c, 0, 64, 73
2,61517, Control_c, 0, 64, 66
2,61537, Control_c, 0, 64, 59
2,61556, Control_c, 0, 64, 51
2,61576, Control_c, 0, 64, 40
2,61594, Control_c, 0, 64, 25
2,61614, Control_c, 0, 64, 0
2,61637, Note_on_c, 0, 71, 58
2,61786, Control_c, 0, 64, 40
2,61804, Control_c, 0, 64, 55
2,61824, Control_c, 0, 64, 60
2,61843, Control_c, 0, 64, 62
2,61862, Control_c, 0, 64, 64
2,61872, Note_on_c, 0, 54, 51
2,61875, Note_on_c, 0, 69, 68
2,61881, Control_c, 0, 64, 65
2,61901, Control_c, 0, 64, 66
2,61920, Control_c, 0, 64, 68
2,61939, Control_c, 0, 64, 71
2,61958, Control_c, 0, 64, 80
2,61978, Control_c, 0, 64, 91
2,61982, Note_on_c, 0, 71, 0
2,61996, Control_c, 0, 64, 105
2,62016, Control_c, 0, 64, 127
2,62084, Note_on_c, 0, 64, 0
2,62123, Note_on_c, 0, 68, 73
2,62126, Note_on_c, 0, 56, 64
2,62183, Note_on_c, 0, 69, 0
2,62191, Note_on_c, 0, 54, 0
2,62345, Control_c, 0, 64, 112
2,62364, Control_c, 0, 64, 105
2,62384, Control_c, 0, 64, 104
2,62403, Control_c, 0, 64, 103
2,62422, Control_c, 0, 64, 100
2,62441, Control_c, 0, 64, 93
2,62447, Note_on_c, 0, 56, 0
2,62451, Note_on_c, 0, 66, 61
2,62454, Note_on_c, 0, 68, 0
2,62461, Control_c, 0, 64, 84
2,62461, Note_on_c, 0, 63, 58
2,62462, Note_on_c, 0, 57, 52
2,62479, Control_c, 0, 64, 76
2,62498, Control_c, 0, 64, 70
2,62518, Control_c, 0, 64, 66
2,62534, Note_on_c, 0, 52, 0
2,62537, Control_c, 0, 64, 63
2,62556, Control_c, 0, 64, 59
2,62575, Control_c, 0, 64, 49
2,62596, Control_c, 0, 64, 29
2,62614, Control_c, 0, 64, 0
2,62884, Control_c, 0, 64, 39
2,62903, Control_c, 0, 64, 52
2,62922, Control_c, 0, 64, 57
2,62942, Control_c, 0, 64, 59
2,62960, Control_c, 0, 64, 61
2,62980, Control_c, 0, 64, 63
2,62999, Control_c, 0, 64, 63
2,63018, Control_c, 0, 64, 64
2,63018, Note_on_c, 0, 69, 68
2,63037, Control_c, 0, 64, 65
2,63038, Note_on_c, 0, 54, 40
2,63056, Control_c, 0, 64, 67
2,63076, Control_c, 0, 64, 70
2,63094, Control_c, 0, 64, 76
2,63114, Control_c, 0, 64, 84
2,63133, Control_c, 0, 64, 94
2,63153, Control_c, 0, 64, 104
2,63167, Note_on_c, 0, 57, 0
2,63171, Control_c, 0, 64, 127
2,63282, Note_on_c, 0, 66, 0
2,63590, Note_on_c, 0, 69, 0
2,63615, Note_on_c, 0, 71, 69
2,63636, Note_on_c, 0, 56, 41
2,63645, Note_on_c, 0, 68, 46
2,63710, Control_c, 0, 64, 110
2,63713, Note_on_c, 0, 73, 0
2,63728, Control_c, 0, 64, 93
2,63733, Note_on_c, 0, 54, 0
2,63748, Control_c, 0, 64, 80
2,63767, Control_c, 0, 64, 73
2,63786, Control_c, 0, 64, 69
2,63805, Control_c, 0, 64, 65
2,63825, Control_c, 0, 64, 62
2,63844, Control_c, 0, 64, 56
2,63858, Note_on_c, 0, 63, 0
2,63863, Control_c, 0, 64, 47
2,63882, Control_c, 0, 64, 26
2,63902, Control_c, 0, 64, 0
2,64093, Control_c, 0, 64, 19
2,64113, Control_c, 0, 64, 44
2,64131, Control_c, 0, 64, 55
2,64151, Control_c, 0, 64, 59
2,64170, Control_c, 0, 64, 61
2,64171, Note_on_c, 0, 68, 0
2,64190, Control_c, 0, 64, 62
2,64192, Note_on_c, 0, 66, 53
2,64208, Control_c, 0, 64, 64
2,64228, Control_c, 0, 64, 65
2,64247, Control_c, 0, 64, 66
2,64266, Control_c, 0, 64, 67
2,64285, Control_c, 0, 64, 70
2,64305, Control_c, 0, 64, 74
2,64324, Control_c, 0, 64, 82
2,64343, Control_c, 0, 64, 93
2,64362, Control_c, 0, 64, 110
2,64382, Control_c, 0, 64, 127
2,64429, Note_on_c, 0, 56, 0
2,64839, Note_on_c, 0, 66, 0
2,64877, Note_on_c, 0, 65, 49
2,64914, Note_on_c, 0, 61, 29
2,64924, Note_on_c, 0, 49, 35
2,64934, Control_c, 0, 64, 103
2,64954, Control_c, 0, 64, 89
2,64972, Control_c, 0, 64, 79
2,64992, Control_c, 0, 64, 73
2,65011, Control_c, 0, 64, 68
2,65030, Control_c, 0, 64, 64
2,65049, Control_c, 0, 64, 61
2,65069, Control_c, 0, 64, 57
2,65088, Control_c, 0, 64, 53
2,65107, Control_c, 0, 64, 47
2,65126, Control_c, 0, 64, 40
2,65146, Control_c, 0, 64, 29
2,65164, Control_c, 0, 64, 0
2,65449, Note_on_c, 0, 73, 63
2,65452, Control_c, 0, 64, 39
2,65452, Note_on_c, 0, 71, 0
2,65476, Control_c, 0, 64, 53
2,65494, Control_c, 0, 64, 59
2,65514, Control_c, 0, 64, 61
2,65533, Control_c, 0, 64, 64
2,65553, Control_c, 0, 64, 65
2,65571, Control_c, 0, 64, 68
2,65591, Control_c, 0, 64, 71
2,65610, Control_c, 0, 64, 75
2,65630, Control_c, 0, 64, 82
2,65648, Control_c, 0, 64, 94
2,65668, Control_c, 0, 64, 127
2,65706, Note_on_c, 0, 73, 0
2,66052, Note_on_c, 0, 71, 58
2,66095, Note_on_c, 0, 65, 0
2,66104, Note_on_c, 0, 66, 38
2,66167, Control_c, 0, 64, 105
2,66186, Control_c, 0, 64, 90
2,66205, Control_c, 0, 64, 80
2,66225, Control_c, 0, 64, 70
2,66244, Control_c, 0, 64, 64
2,66263, Control_c, 0, 64, 60
2,66282, Control_c, 0, 64, 59
2,66302, Control_c, 0, 64, 58
2,66320, Control_c, 0, 64, 58
2,66340, Control_c, 0, 64, 57
2,66359, Control_c, 0, 64, 54
2,66378, Control_c, 0, 64, 50
2,66397, Control_c, 0, 64, 46
2,66416, Control_c, 0, 64, 42
2,66434, Control_c, 0, 64, 38
2,66453, Control_c, 0, 64, 36
2,66472, Control_c, 0, 64, 33
2,66491, Control_c, 0, 64, 30
2,66511, Control_c, 0, 64, 29
2,66529, Control_c, 0, 64, 28
2,66549, Control_c, 0, 64, 27
2,66568, Control_c, 0, 64, 26
2,66618, Note_on_c, 0, 69, 51
2,66644, Control_c, 0, 64, 24
2,66664, Control_c, 0, 64, 20
2,66679, Note_on_c, 0, 71, 0
2,66682, Control_c, 0, 64, 17
2,66702, Control_c, 0, 64, 15
2,66759, Control_c, 0, 64, 13
2,66855, Control_c, 0, 64, 11
2,66875, Control_c, 0, 64, 0
2,67146, Note_on_c, 0, 69, 0
2,67192, Note_on_c, 0, 68, 46
2,67220, Note_on_c, 0, 66, 0
2,67373, Control_c, 0, 64, 23
2,67396, Control_c, 0, 64, 35
2,67414, Control_c, 0, 64, 44
2,67434, Control_c, 0, 64, 50
2,67453, Control_c, 0, 64, 55
2,67473, Control_c, 0, 64, 57
2,67491, Control_c, 0, 64, 59
2,67511, Control_c, 0, 64, 61
2,67530, Control_c, 0, 64, 62
2,67550, Control_c, 0, 64, 64
2,67569, Control_c, 0, 64, 65
2,67589, Control_c, 0, 64, 66
2,67608, Control_c, 0, 64, 68
2,67627, Control_c, 0, 64, 70
2,67646, Control_c, 0, 64, 72
2,67666, Control_c, 0, 64, 75
2,67684, Control_c, 0, 64, 80
2,67704, Control_c, 0, 64, 86
2,67723, Control_c, 0, 64, 93
2,67725, Note_on_c, 0, 61, 0
2,67743, Control_c, 0, 64, 104
2,67761, Control_c, 0, 64, 127
2,67764, Note_on_c, 0, 64, 39
2,67951, Note_on_c, 0, 68, 0
2,68353, Note_on_c, 0, 70, 57
2,68358, Note_on_c, 0, 47, 67
2,68419, Control_c, 0, 64, 116
2,68438, Control_c, 0, 64, 93
2,68457, Control_c, 0, 64, 81
2,68477, Control_c, 0, 64, 72
2,68495, Control_c, 0, 64, 65
2,68515, Control_c, 0, 64, 58
2,68530, Control_c, 0, 64, 37
2,68550, Control_c, 0, 64, 0
2,68665, Control_c, 0, 64, 36
2,68684, Control_c, 0, 64, 52
2,68704, Control_c, 0, 64, 59
2,68722, Control_c, 0, 64, 61
2,68742, Control_c, 0, 64, 63
2,68761, Control_c, 0, 64, 64
2,68779, Control_c, 0, 64, 66
2,68799, Control_c, 0, 64, 68
2,68818, Control_c, 0, 64, 70
2,68838, Control_c, 0, 64, 75
2,68856, Control_c, 0, 64, 83
2,68876, Control_c, 0, 64, 94
2,68895, Control_c, 0, 64, 112
2,68915, Control_c, 0, 64, 127
2,68915, Note_on_c, 0, 71, 68
2,68956, Note_on_c, 0, 70, 0
2,69025, Note_on_c, 0, 47, 0
2,69183, Note_on_c, 0, 49, 0
2,69520, Note_on_c, 0, 73, 65
2,69528, Note_on_c, 0, 54, 55
2,69529, Note_on_c, 0, 46, 59
2,69547, Control_c, 0, 64, 102
2,69566, Control_c, 0, 64, 84
2,69569, Note_on_c, 0, 71, 0
2,69586, Control_c, 0, 64, 72
2,69604, Control_c, 0, 64, 64
2,69624, Control_c, 0, 64, 52
2,69643, Control_c, 0, 64, 0
2,69668, Note_on_c, 0, 64, 0
2,69797, Control_c, 0, 64, 37
2,69815, Control_c, 0, 64, 54
2,69835, Control_c, 0, 64, 60
2,69854, Control_c, 0, 64, 63
2,69867, Note_on_c, 0, 54, 0
2,69874, Control_c, 0, 64, 65
2,69892, Control_c, 0, 64, 67
2,69912, Control_c, 0, 64, 70
2,69931, Control_c, 0, 64, 77
2,69950, Control_c, 0, 64, 85
2,69969, Control_c, 0, 64, 98
2,69989, Control_c, 0, 64, 127
2,70101, Note_on_c, 0, 56, 67
2,70263, Note_on_c, 0, 56, 0
2,70651, Note_on_c, 0, 71, 64
2,70663, Note_on_c, 0, 51, 59
2,70667, Note_on_c, 0, 54, 57
2,70679, Note_on_c, 0, 63, 45
2,70691, Note_on_c, 0, 58, 43
2,70711, Note_on_c, 0, 73, 0
2,70714, Control_c, 0, 64, 111
2,70722, Note_on_c, 0, 46, 0
2,70734, Control_c, 0, 64, 95
2,70753, Control_c, 0, 64, 81
2,70772, Control_c, 0, 64, 71
2,70791, Control_c, 0, 64, 64
2,70811, Control_c, 0, 64, 60
2,70828, Note_on_c, 0, 54, 0
2,70830, Control_c, 0, 64, 57
2,70848, Control_c, 0, 64, 55
2,70868, Control_c, 0, 64, 53
2,70887, Control_c, 0, 64, 47
2,70906, Control_c, 0, 64, 38
2,70925, Control_c, 0, 64, 24
2,70945, Control_c, 0, 64, 0
2,71085, Note_on_c, 0, 58, 0
2,71194, Control_c, 0, 64, 33
2,71206, Note_on_c, 0, 59, 53
2,71214, Control_c, 0, 64, 53
2,71233, Control_c, 0, 64, 60
2,71252, Control_c, 0, 64, 62
2,71271, Control_c, 0, 64, 64
2,71291, Control_c, 0, 64, 66
2,71293, Note_on_c, 0, 63, 0
2,71310, Control_c, 0, 64, 69
2,71328, Control_c, 0, 64, 73
2,71348, Control_c, 0, 64, 78
2,71367, Control_c, 0, 64, 83
2,71386, Control_c, 0, 64, 91
2,71404, Control_c, 0, 64, 102
2,71424, Control_c, 0, 64, 127
2,71795, Note_on_c, 0, 64, 51
2,71801, Note_on_c, 0, 59, 0
2,71826, Note_on_c, 0, 52, 45
2,71830, Note_on_c, 0, 49, 45
2,71842, Note_on_c, 0, 61, 36
2,71855, Note_on_c, 0, 51, 0
2,71923, Control_c, 0, 64, 112
2,71942, Control_c, 0, 64, 90
2,71961, Control_c, 0, 64, 74
2,71981, Control_c, 0, 64, 65
2,72000, Control_c, 0, 64, 60
2,72019, Control_c, 0, 64, 59
2,72058, Control_c, 0, 64, 58
2,72076, Control_c, 0, 64, 57
2,72096, Control_c, 0, 64, 54
2,72115, Control_c, 0, 64, 50
2,72135, Control_c, 0, 64, 45
2,72153, Control_c, 0, 64, 42
2,72173, Control_c, 0, 64, 41
2,72192, Control_c, 0, 64, 39
2,72211, Control_c, 0, 64, 38
2,72230, Control_c, 0, 64, 35
2,72250, Control_c, 0, 64, 34
2,72269, Control_c, 0, 64, 33
2,72365, Control_c, 0, 64, 32
2,72381, Note_on_c, 0, 51, 47
2,72385, Control_c, 0, 64, 32
2,72412, Note_on_c, 0, 52, 0
2,72845, Control_c, 0, 64, 31
2,72875, Note_on_c, 0, 51, 0
2,72884, Control_c, 0, 64, 31
2,72922, Control_c, 0, 64, 30
2,72937, Note_on_c, 0, 70, 59
2,72951, Note_on_c, 0, 71, 0
2,72960, Control_c, 0, 64, 29
2,72974, Note_on_c, 0, 52, 28
2,72980, Control_c, 0, 64, 29
2,72999, Control_c, 0, 64, 27
2,73019, Control_c, 0, 64, 25
2,73037, Control_c, 0, 64, 24
2,73096, Control_c, 0, 64, 25
2,73114, Control_c, 0, 64, 26
2,73134, Control_c, 0, 64, 27
2,73153, Control_c, 0, 64, 31
2,73172, Control_c, 0, 64, 37
2,73191, Control_c, 0, 64, 46
2,73211, Control_c, 0, 64, 53
2,73230, Control_c, 0, 64, 57
2,73248, Control_c, 0, 64, 60
2,73268, Control_c, 0, 64, 61
2,73287, Control_c, 0, 64, 63
2,73306, Control_c, 0, 64, 64
2,73324, Control_c, 0, 64, 65
2,73344, Control_c, 0, 64, 67
2,73363, Control_c, 0, 64, 69
2,73382, Control_c, 0, 64, 71
2,73401, Control_c, 0, 64, 74
2,73421, Control_c, 0, 64, 76
2,73440, Control_c, 0, 64, 79
2,73459, Control_c, 0, 64, 82
2,73478, Control_c, 0, 64, 85
2,73483, Note_on_c, 0, 52, 0
2,73498, Control_c, 0, 64, 90
2,73514, Note_on_c, 0, 54, 46
2,73516, Control_c, 0, 64, 96
2,73536, Control_c, 0, 64, 106
2,73555, Control_c, 0, 64, 127
2,73598, Note_on_c, 0, 61, 0
2,73855, Note_on_c, 0, 64, 0
2,73859, Note_on_c, 0, 70, 0
2,73884, Note_on_c, 0, 54, 0
2,74090, Note_on_c, 0, 49, 0
2,74178, Note_on_c, 0, 71, 58
2,74228, Note_on_c, 0, 56, 30
2,74240, Note_on_c, 0, 47, 34
2,74248, Control_c, 0, 64, 112
2,74267, Control_c, 0, 64, 101
2,74285, Control_c, 0, 64, 86
2,74305, Control_c, 0, 64, 73
2,74324, Control_c, 0, 64, 65
2,74343, Control_c, 0, 64, 61
2,74362, Control_c, 0, 64, 61
2,74382, Control_c, 0, 64, 60
2,74400, Control_c, 0, 64, 57
2,74420, Control_c, 0, 64, 53
2,74439, Control_c, 0, 64, 44
2,74459, Control_c, 0, 64, 28
2,74477, Control_c, 0, 64, 0
2,74634, Control_c, 0, 64, 26
2,74653, Control_c, 0, 64, 42
2,74673, Control_c, 0, 64, 52
2,74691, Control_c, 0, 64, 56
2,74711, Control_c, 0, 64, 58
2,74730, Control_c, 0, 64, 61
2,74743, Note_on_c, 0, 56, 0
2,74749, Control_c, 0, 64, 63
2,74768, Control_c, 0, 64, 64
2,74788, Control_c, 0, 64, 65
2,74801, Note_on_c, 0, 63, 53
2,74807, Control_c, 0, 64, 67
2,74826, Control_c, 0, 64, 70
2,74833, Note_on_c, 0, 54, 28
2,74845, Control_c, 0, 64, 73
2,74865, Control_c, 0, 64, 78
2,74883, Control_c, 0, 64, 85
2,74903, Control_c, 0, 64, 93
2,74922, Control_c, 0, 64, 104
2,74942, Control_c, 0, 64, 127
2,75049, Note_on_c, 0, 54, 0
2,75064, Note_on_c, 0, 63, 0
2,75427, Note_on_c, 0, 64, 64
2,75484, Note_on_c, 0, 56, 39
2,75553, Control_c, 0, 64, 101
2,75572, Control_c, 0, 64, 74
2,75591, Control_c, 0, 64, 63
2,75610, Control_c, 0, 64, 49
2,75630, Control_c, 0, 64, 39
2,75648, Control_c, 0, 64, 38
2,75668, Control_c, 0, 64, 37
2,75687, Control_c, 0, 64, 35
2,75707, Control_c, 0, 64, 35
2,75725, Control_c, 0, 64, 36
2,75745, Control_c, 0, 64, 44
2,75764, Control_c, 0, 64, 54
2,75784, Control_c, 0, 64, 60
2,75802, Control_c, 0, 64, 62
2,75822, Control_c, 0, 64, 64
2,75841, Control_c, 0, 64, 66
2,75859, Control_c, 0, 64, 69
2,75879, Control_c, 0, 64, 73
2,75898, Control_c, 0, 64, 77
2,75918, Control_c, 0, 64, 83
2,75936, Control_c, 0, 64, 88
2,75956, Control_c, 0, 64, 94
2,75963, Note_on_c, 0, 56, 0
2,75975, Control_c, 0, 64, 104
2,75983, Note_on_c, 0, 66, 48
2,75994, Control_c, 0, 64, 127
2,76002, Note_on_c, 0, 58, 35
2,76152, Note_on_c, 0, 58, 0
2,76187, Note_on_c, 0, 64, 0
2,76217, Note_on_c, 0, 66, 0
2,76225, Note_on_c, 0, 68, 58
2,76520, Note_on_c, 0, 63, 64
2,76549, Note_on_c, 0, 68, 0
2,76555, Note_on_c, 0, 66, 49
2,76556, Note_on_c, 0, 59, 43
2,76591, Control_c, 0, 64, 104
2,76609, Control_c, 0, 64, 79
2,76629, Control_c, 0, 64, 67
2,76648, Control_c, 0, 64, 59
2,76668, Control_c, 0, 64, 43
2,76686, Control_c, 0, 64, 11
2,76706, Control_c, 0, 64, 0
2,76802, Control_c, 0, 64, 36
2,76820, Control_c, 0, 64, 57
2,76840, Control_c, 0, 64, 62
2,76859, Control_c, 0, 64, 64
2,76879, Control_c, 0, 64, 66
2,76897, Control_c, 0, 64, 69
2,76917, Control_c, 0, 64, 73
2,76936, Control_c, 0, 64, 79
2,76955, Control_c, 0, 64, 90
2,76974, Control_c, 0, 64, 106
2,76995, Control_c, 0, 64, 127
2,77042, Note_on_c, 0, 73, 71
2,77054, Note_on_c, 0, 66, 0
2,77059, Note_on_c, 0, 71, 0
2,77060, Note_on_c, 0, 56, 49
2,77127, Note_on_c, 0, 47, 0
2,77194, Note_on_c, 0, 63, 0
2,77248, Note_on_c, 0, 73, 0
2,77587, Note_on_c, 0, 75, 68
2,77611, Note_on_c, 0, 68, 55
2,77624, Note_on_c, 0, 71, 51
2,77633, Note_on_c, 0, 54, 39
2,77706, Control_c, 0, 64, 96
2,77725, Control_c, 0, 64, 77
2,77725, Note_on_c, 0, 56, 0
2,77745, Control_c, 0, 64, 66
2,77763, Control_c, 0, 64, 59
2,77783, Control_c, 0, 64, 45
2,77802, Control_c, 0, 64, 28
2,77822, Control_c, 0, 64, 0
2,78031, Note_on_c, 0, 59, 0
2,78108, Note_on_c, 0, 54, 0
2,78144, Note_on_c, 0, 75, 0
2,78154, Note_on_c, 0, 76, 57
2,78178, Note_on_c, 0, 52, 36
2,78242, Control_c, 0, 64, 29
2,78260, Control_c, 0, 64, 50
2,78280, Control_c, 0, 64, 59
2,78299, Control_c, 0, 64, 62
2,78319, Control_c, 0, 64, 64
2,78337, Control_c, 0, 64, 67
2,78357, Control_c, 0, 64, 70
2,78376, Control_c, 0, 64, 75
2,78395, Control_c, 0, 64, 82
2,78414, Control_c, 0, 64, 92
2,78416, Note_on_c, 0, 71, 0
2,78418, Note_on_c, 0, 68, 0
2,78434, Control_c, 0, 64, 112
2,78453, Control_c, 0, 64, 127
2,78765, Note_on_c, 0, 66, 53
2,78805, Note_on_c, 0, 52, 0
2,78837, Control_c, 0, 64, 101
2,78847, Note_on_c, 0, 59, 24
2,78856, Control_c, 0, 64, 89
2,78875, Control_c, 0, 64, 75
2,78894, Control_c, 0, 64, 66
2,78914, Control_c, 0, 64, 61
2,78933, Control_c, 0, 64, 55
2,78952, Control_c, 0, 64, 51
2,78958, Note_on_c, 0, 76, 0
2,78971, Control_c, 0, 64, 49
2,78991, Control_c, 0, 64, 47
2,79009, Control_c, 0, 64, 42
2,79029, Control_c, 0, 64, 35
2,79048, Control_c, 0, 64, 25
2,79068, Control_c, 0, 64, 0
2,79068, Control_c, 0, 67, 11
2,79086, Control_c, 0, 67, 16
2,79106, Control_c, 0, 67, 22
2,79125, Control_c, 0, 67, 31
2,79144, Control_c, 0, 67, 42
2,79163, Control_c, 0, 67, 54
2,79183, Control_c, 0, 67, 66
2,79202, Control_c, 0, 67, 82
2,79220, Control_c, 0, 67, 96
2,79240, Control_c, 0, 64, 34
2,79240, Control_c, 0, 67, 111
2,79259, Control_c, 0, 64, 51
2,79259, Control_c, 0, 67, 127
2,79279, Control_c, 0, 64, 59
2,79297, Control_c, 0, 64, 62
2,79317, Control_c, 0, 64, 63
2,79336, Control_c, 0, 64, 65
2,79346, Note_on_c, 0, 73, 54
2,79355, Control_c, 0, 64, 67
2,79374, Control_c, 0, 64, 70
2,79394, Control_c, 0, 64, 74
2,79413, Control_c, 0, 64, 83
2,79432, Control_c, 0, 64, 104
2,79451, Control_c, 0, 64, 127
2,79621, Note_on_c, 0, 66, 0
2,79872, Note_on_c, 0, 73, 0
2,79953, Note_on_c, 0, 75, 50
2,79977, Note_on_c, 0, 71, 41
2,79997, Note_on_c, 0, 47, 35
2,80045, Control_c, 0, 64, 113
2,80065, Control_c, 0, 64, 83
2,80084, Control_c, 0, 64, 67
2,80104, Control_c, 0, 64, 26
2,80122, Control_c, 0, 64, 0
2,80313, Note_on_c, 0, 59, 0
2,80442, Note_on_c, 0, 71, 0
2,80515, Note_on_c, 0, 69, 40
2,80525, Control_c, 0, 64, 19
2,80545, Control_c, 0, 64, 46
2,80564, Control_c, 0, 64, 61
2,80584, Control_c, 0, 64, 65
2,80602, Control_c, 0, 64, 67
2,80621, Control_c, 0, 64, 71
2,80641, Control_c, 0, 64, 81
2,80659, Control_c, 0, 64, 102
2,80679, Control_c, 0, 64, 127
2,80688, Note_on_c, 0, 69, 0
2,80689, Note_on_c, 0, 75, 0
2,81192, Note_on_c, 0, 47, 0
2,81195, Note_on_c, 0, 76, 51
2,81226, Note_on_c, 0, 52, 35
2,81231, Note_on_c, 0, 68, 37
2,81249, Note_on_c, 0, 64, 31
2,81333, Control_c, 0, 64, 115
2,81352, Control_c, 0, 64, 91
2,81371, Control_c, 0, 64, 76
2,81391, Control_c, 0, 64, 66
2,81409, Control_c, 0, 64, 58
2,81429, Control_c, 0, 64, 45
2,81448, Control_c, 0, 64, 33
2,81468, Control_c, 0, 64, 21
2,81486, Control_c, 0, 64, 0
2,81775, Note_on_c, 0, 64, 0
2,81795, Control_c, 0, 64, 34
2,81805, Note_on_c, 0, 75, 56
2,81808, Note_on_c, 0, 68, 0
2,81813, Control_c, 0, 64, 48
2,81833, Control_c, 0, 64, 54
2,81837, Note_on_c, 0, 76, 0
2,81852, Control_c, 0, 64, 57
2,81872, Control_c, 0, 64, 60
2,81890, Control_c, 0, 64, 64
2,81910, Control_c, 0, 64, 68
2,81929, Control_c, 0, 64, 73
2,81949, Control_c, 0, 64, 82
2,81967, Control_c, 0, 64, 96
2,81987, Control_c, 0, 64, 127
2,82370, Note_on_c, 0, 75, 0
2,82427, Note_on_c, 0, 76, 53
2,82431, Note_on_c, 0, 61, 51
2,82453, Note_on_c, 0, 57, 46
2,82524, Control_c, 0, 64, 112
2,82544, Control_c, 0, 64, 92
2,82563, Control_c, 0, 64, 81
2,82581, Control_c, 0, 64, 74
2,82601, Control_c, 0, 64, 68
2,82620, Control_c, 0, 64, 63
2,82639, Control_c, 0, 64, 56
2,82652, Note_on_c, 0, 52, 0
2,82658, Control_c, 0, 64, 44
2,82678, Control_c, 0, 64, 31
2,82697, Control_c, 0, 64, 20
2,82716, Control_c, 0, 64, 11
2,82735, Control_c, 0, 64, 0
2,82975, Note_on_c, 0, 78, 60
2,82985, Control_c, 0, 64, 23
2,82994, Note_on_c, 0, 76, 0
2,83004, Control_c, 0, 64, 44
2,83024, Control_c, 0, 64, 52
2,83043, Control_c, 0, 64, 56
2,83061, Control_c, 0, 64, 59
2,83081, Control_c, 0, 64, 62
2,83100, Control_c, 0, 64, 65
2,83119, Control_c, 0, 64, 69
2,83138, Control_c, 0, 64, 76
2,83158, Control_c, 0, 64, 86
2,83177, Control_c, 0, 64, 98
2,83196, Control_c, 0, 64, 118
2,83215, Control_c, 0, 64, 127
2,83284, Note_on_c, 0, 61, 0
2,83309, Note_on_c, 0, 57, 0
2,83599, Note_on_c, 0, 80, 44
2,83604, Note_on_c, 0, 60, 48
2,83604, Note_on_c, 0, 78, 0
2,83627, Note_on_c, 0, 56, 39
2,83715, Control_c, 0, 64, 116
2,83733, Control_c, 0, 64, 89
2,83753, Control_c, 0, 64, 75
2,83772, Control_c, 0, 64, 67
2,83792, Control_c, 0, 64, 62
2,83810, Control_c, 0, 64, 57
2,83830, Control_c, 0, 64, 49
2,83849, Control_c, 0, 64, 36
2,83869, Control_c, 0, 64, 0
2,83905, Note_on_c, 0, 80, 0
2,83937, Note_on_c, 0, 78, 56
2,84118, Control_c, 0, 64, 17
2,84137, Control_c, 0, 64, 40
2,84156, Control_c, 0, 64, 51
2,84175, Control_c, 0, 64, 56
2,84193, Note_on_c, 0, 80, 62
2,84195, Control_c, 0, 64, 58
2,84213, Control_c, 0, 64, 61
2,84215, Note_on_c, 0, 78, 0
2,84233, Control_c, 0, 64, 63
2,84252, Control_c, 0, 64, 66
2,84272, Control_c, 0, 64, 69
2,84290, Control_c, 0, 64, 75
2,84310, Control_c, 0, 64, 83
2,84329, Control_c, 0, 64, 94
2,84349, Control_c, 0, 64, 105
2,84367, Control_c, 0, 64, 127
2,84445, Note_on_c, 0, 81, 74
2,84464, Note_on_c, 0, 80, 0
2,84715, Control_c, 0, 64, 103
2,84724, Note_on_c, 0, 80, 63
2,84728, Note_on_c, 0, 64, 57
2,84734, Control_c, 0, 64, 96
2,84740, Note_on_c, 0, 61, 49
2,84754, Control_c, 0, 64, 96
2,84767, Note_on_c, 0, 81, 0
2,84772, Control_c, 0, 64, 94
2,84792, Control_c, 0, 64, 86
2,84810, Note_on_c, 0, 60, 0
2,84811, Control_c, 0, 64, 76
2,84824, Note_on_c, 0, 56, 0
2,84830, Control_c, 0, 64, 67
2,84846, Control_c, 0, 64, 59
2,84866, Control_c, 0, 64, 50
2,84885, Control_c, 0, 64, 44
2,84904, Control_c, 0, 64, 42
2,84923, Control_c, 0, 64, 37
2,84942, Control_c, 0, 64, 31
2,84962, Control_c, 0, 64, 21
2,84980, Control_c, 0, 64, 9
2,84986, Note_on_c, 0, 78, 66
2,84997, Note_on_c, 0, 80, 0
2,85000, Control_c, 0, 64, 0
2,85209, Note_on_c, 0, 78, 0
2,85238, Note_on_c, 0, 76, 62
2,85494, Note_on_c, 0, 80, 61
2,85536, Note_on_c, 0, 76, 0
2,85784, Note_on_c, 0, 63, 54
2,85791, Note_on_c, 0, 78, 54
2,85810, Note_on_c, 0, 80, 0
2,85939, Note_on_c, 0, 64, 0
2,86027, Note_on_c, 0, 78, 0
2,86055, Note_on_c, 0, 76, 58
2,86202, Note_on_c, 0, 61, 0
2,86304, Note_on_c, 0, 76, 0
2,86322, Note_on_c, 0, 78, 56
2,86547, Note_on_c, 0, 78, 0
2,86589, Note_on_c, 0, 80, 51
2,86847, Note_on_c, 0, 78, 41
2,86873, Note_on_c, 0, 80, 0
2,86875, Note_on_c, 0, 60, 32
2,87079, Note_on_c, 0, 78, 0
2,87117, Note_on_c, 0, 76, 52
2,87325, Note_on_c, 0, 76, 0
2,87378, Note_on_c, 0, 75, 50
2,87632, Note_on_c, 0, 78, 48
2,87664, Note_on_c, 0, 75, 0
2,87924, Note_on_c, 0, 76, 47
2,87927, Note_on_c, 0, 78, 0
2,87951, Note_on_c, 0, 61, 33
2,88049, Note_on_c, 0, 60, 0
2,88086, Note_on_c, 0, 63, 0
2,88155, Note_on_c, 0, 76, 0
2,88191, Note_on_c, 0, 75, 55
2,88379, Note_on_c, 0, 75, 0
2,88418, Control_c, 0, 64, 9
2,88438, Control_c, 0, 64, 17
2,88449, Note_on_c, 0, 76, 49
2,88457, Control_c, 0, 64, 23
2,88476, Control_c, 0, 64, 33
2,88495, Control_c, 0, 64, 43
2,88515, Control_c, 0, 64, 50
2,88533, Control_c, 0, 64, 54
2,88553, Control_c, 0, 64, 57
2,88572, Control_c, 0, 64, 59
2,88592, Control_c, 0, 64, 60
2,88610, Control_c, 0, 64, 62
2,88630, Control_c, 0, 64, 63
2,88649, Control_c, 0, 64, 65
2,88669, Control_c, 0, 64, 67
2,88677, Note_on_c, 0, 76, 0
2,88687, Control_c, 0, 64, 71
2,88687, Control_c, 0, 67, 123
2,88707, Control_c, 0, 64, 76
2,88707, Control_c, 0, 67, 115
2,88717, Note_on_c, 0, 78, 49
2,88726, Control_c, 0, 64, 84
2,88726, Control_c, 0, 67, 107
2,88745, Control_c, 0, 64, 92
2,88745, Control_c, 0, 67, 97
2,88764, Control_c, 0, 64, 100
2,88764, Control_c, 0, 67, 89
2,88783, Control_c, 0, 64, 112
2,88783, Control_c, 0, 67, 81
2,88803, Control_c, 0, 64, 127
2,88803, Control_c, 0, 67, 75
2,88821, Control_c, 0, 67, 68
2,88841, Control_c, 0, 67, 63
2,88860, Control_c, 0, 67, 57
2,88879, Control_c, 0, 67, 50
2,88898, Control_c, 0, 67, 43
2,88918, Control_c, 0, 67, 37
2,88937, Control_c, 0, 67, 31
2,88956, Control_c, 0, 67, 26
2,88975, Control_c, 0, 67, 21
2,88995, Control_c, 0, 67, 15
2,89013, Control_c, 0, 67, 9
2,89025, Note_on_c, 0, 68, 60
2,89033, Control_c, 0, 67, 0
2,89054, Note_on_c, 0, 76, 45
2,89090, Control_c, 0, 64, 118
2,89110, Control_c, 0, 64, 99
2,89117, Note_on_c, 0, 78, 0
2,89129, Control_c, 0, 64, 88
2,89149, Control_c, 0, 64, 81
2,89167, Control_c, 0, 64, 76
2,89187, Control_c, 0, 64, 71
2,89206, Control_c, 0, 64, 67
2,89225, Control_c, 0, 64, 63
2,89244, Control_c, 0, 64, 59
2,89258, Note_on_c, 0, 76, 0
2,89263, Control_c, 0, 64, 55
2,89283, Control_c, 0, 64, 52
2,89301, Control_c, 0, 64, 48
2,89305, Note_on_c, 0, 75, 46
2,89321, Control_c, 0, 64, 44
2,89340, Control_c, 0, 64, 35
2,89359, Control_c, 0, 64, 18
2,89378, Control_c, 0, 64, 0
2,89514, Note_on_c, 0, 75, 0
2,89552, Control_c, 0, 64, 27
2,89570, Control_c, 0, 64, 47
2,89573, Note_on_c, 0, 73, 44
2,89590, Control_c, 0, 64, 55
2,89609, Control_c, 0, 64, 58
2,89629, Control_c, 0, 64, 60
2,89645, Control_c, 0, 64, 62
2,89665, Control_c, 0, 64, 63
2,89684, Control_c, 0, 64, 64
2,89703, Control_c, 0, 64, 65
2,89722, Control_c, 0, 64, 66
2,89741, Control_c, 0, 64, 68
2,89761, Control_c, 0, 64, 73
2,89779, Control_c, 0, 64, 79
2,89799, Control_c, 0, 64, 88
2,89818, Control_c, 0, 64, 96
2,89821, Note_on_c, 0, 73, 0
2,89835, Note_on_c, 0, 76, 52
2,89838, Control_c, 0, 64, 104
2,89856, Control_c, 0, 64, 116
2,89876, Control_c, 0, 64, 127
2,89943, Note_on_c, 0, 68, 0
2,90123, Note_on_c, 0, 76, 0
2,90135, Note_on_c, 0, 67, 60
2,90140, Note_on_c, 0, 75, 55
2,90183, Control_c, 0, 64, 105
2,90202, Control_c, 0, 64, 94
2,90221, Control_c, 0, 64, 87
2,90241, Control_c, 0, 64, 79
2,90259, Control_c, 0, 64, 70
2,90279, Control_c, 0, 64, 63
2,90298, Control_c, 0, 64, 53
2,90318, Control_c, 0, 64, 45
2,90336, Control_c, 0, 64, 38
2,90356, Control_c, 0, 64, 31
2,90366, Note_on_c, 0, 75, 0
2,90375, Control_c, 0, 64, 25
2,90413, Control_c, 0, 64, 28
2,90413, Note_on_c, 0, 73, 49
2,90433, Control_c, 0, 64, 43
2,90452, Control_c, 0, 64, 53
2,90471, Control_c, 0, 64, 58
2,90490, Control_c, 0, 64, 60
2,90510, Control_c, 0, 64, 62
2,90529, Control_c, 0, 64, 63
2,90548, Control_c, 0, 64, 64
2,90567, Control_c, 0, 64, 66
2,90587, Control_c, 0, 64, 67
2,90606, Control_c, 0, 64, 69
2,90626, Control_c, 0, 64, 72
2,90645, Control_c, 0, 64, 75
2,90663, Control_c, 0, 64, 81
2,90669, Note_on_c, 0, 75, 62
2,90680, Note_on_c, 0, 59, 50
2,90683, Control_c, 0, 64, 89
2,90702, Control_c, 0, 64, 104
2,90722, Control_c, 0, 64, 127
2,90847, Note_on_c, 0, 61, 0
2,90889, Note_on_c, 0, 67, 0
2,90913, Note_on_c, 0, 75, 0
2,90919, Note_on_c, 0, 76, 68
2,90940, Note_on_c, 0, 73, 0
2,91203, Note_on_c, 0, 75, 69
2,91206, Note_on_c, 0, 71, 61
2,91216, Note_on_c, 0, 58, 44
2,91220, Control_c, 0, 64, 114
2,91240, Control_c, 0, 64, 83
2,91255, Note_on_c, 0, 76, 0
2,91259, Control_c, 0, 64, 65
2,91279, Control_c, 0, 64, 54
2,91297, Control_c, 0, 64, 38
2,91308, Note_on_c, 0, 59, 0
2,91317, Control_c, 0, 64, 32
2,91336, Control_c, 0, 64, 36
2,91355, Control_c, 0, 64, 48
2,91374, Control_c, 0, 64, 57
2,91394, Control_c, 0, 64, 62
2,91413, Control_c, 0, 64, 64
2,91432, Control_c, 0, 64, 66
2,91451, Control_c, 0, 64, 68
2,91471, Control_c, 0, 64, 70
2,91485, Note_on_c, 0, 73, 68
2,91489, Control_c, 0, 64, 73
2,91507, Note_on_c, 0, 71, 0
2,91509, Control_c, 0, 64, 76
2,91519, Note_on_c, 0, 75, 0
2,91528, Control_c, 0, 64, 82
2,91548, Control_c, 0, 64, 89
2,91566, Control_c, 0, 64, 98
2,91586, Control_c, 0, 64, 111
2,91605, Control_c, 0, 64, 127
2,91706, Note_on_c, 0, 73, 0
2,91739, Control_c, 0, 64, 114
2,91740, Note_on_c, 0, 71, 67
2,91759, Control_c, 0, 64, 94
2,91770, Note_on_c, 0, 56, 48
2,91777, Control_c, 0, 64, 79
2,91795, Note_on_c, 0, 58, 0
2,91797, Control_c, 0, 64, 66
2,91816, Control_c, 0, 64, 57
2,91835, Control_c, 0, 64, 35
2,91854, Control_c, 0, 64, 0
2,91931, Control_c, 0, 64, 31
2,91951, Control_c, 0, 64, 55
2,91969, Control_c, 0, 64, 60
2,91989, Control_c, 0, 64, 62
2,92008, Control_c, 0, 64, 64
2,92026, Note_on_c, 0, 75, 62
2,92028, Control_c, 0, 64, 65
2,92046, Control_c, 0, 64, 67
2,92066, Control_c, 0, 64, 69
2,92085, Control_c, 0, 64, 72
2,92103, Control_c, 0, 64, 77
2,92123, Control_c, 0, 64, 85
2,92142, Control_c, 0, 64, 95
2,92162, Control_c, 0, 64, 102
2,92180, Control_c, 0, 64, 106
2,92200, Control_c, 0, 64, 106
2,92219, Control_c, 0, 64, 101
2,92239, Control_c, 0, 64, 98
2,92257, Control_c, 0, 64, 97
2,92277, Control_c, 0, 64, 96
2,92295, Note_on_c, 0, 75, 0
2,92296, Control_c, 0, 64, 91
2,92297, Note_on_c, 0, 71, 0
2,92299, Note_on_c, 0, 73, 61
2,92315, Control_c, 0, 64, 83
2,92320, Note_on_c, 0, 70, 54
2,92334, Control_c, 0, 64, 74
2,92355, Control_c, 0, 64, 67
2,92373, Control_c, 0, 64, 64
2,92393, Control_c, 0, 64, 63
2,92412, Control_c, 0, 64, 63
2,92432, Control_c, 0, 64, 62
2,92450, Control_c, 0, 64, 60
2,92470, Control_c, 0, 64, 58
2,92489, Control_c, 0, 64, 55
2,92509, Control_c, 0, 64, 51
2,92526, Control_c, 0, 64, 47
2,92546, Control_c, 0, 64, 46
2,92569, Note_on_c, 0, 73, 0
2,92589, Note_on_c, 0, 71, 62
2,92603, Control_c, 0, 64, 45
2,92642, Control_c, 0, 64, 44
2,92660, Control_c, 0, 64, 43
2,92680, Control_c, 0, 64, 43
2,92699, Control_c, 0, 64, 42
2,92719, Control_c, 0, 64, 40
2,92737, Control_c, 0, 64, 38
2,92757, Control_c, 0, 64, 36
2,92776, Control_c, 0, 64, 36
2,92795, Control_c, 0, 64, 35
2,92834, Control_c, 0, 64, 35
2,92837, Note_on_c, 0, 73, 61
2,92846, Note_on_c, 0, 71, 0
2,92872, Control_c, 0, 64, 34
2,92876, Note_on_c, 0, 55, 32
2,92898, Note_on_c, 0, 56, 0
2,93045, Control_c, 0, 64, 34
2,93088, Note_on_c, 0, 73, 0
2,93102, Control_c, 0, 64, 33
2,93105, Note_on_c, 0, 75, 56
2,93117, Note_on_c, 0, 55, 0
2,93137, Note_on_c, 0, 53, 33
2,93396, Note_on_c, 0, 75, 0
2,93399, Note_on_c, 0, 73, 44
2,93426, Note_on_c, 0, 55, 26
2,93457, Note_on_c, 0, 53, 0
2,93601, Note_on_c, 0, 70, 0
2,93645, Note_on_c, 0, 73, 0
2,93666, Note_on_c, 0, 71, 46
2,93872, Note_on_c, 0, 71, 0
2,93931, Note_on_c, 0, 70, 49
2,94197, Note_on_c, 0, 73, 54
2,94245, Note_on_c, 0, 70, 0
2,94471, Note_on_c, 0, 73, 0
2,94484, Note_on_c, 0, 71, 49
2,94524, Note_on_c, 0, 56, 30
2,94582, Note_on_c, 0, 55, 0
2,94741, Note_on_c, 0, 56, 0
2,94789, Note_on_c, 0, 58, 41
2,95039, Note_on_c, 0, 63, 49
2,95054, Note_on_c, 0, 58, 0
2,95067, Note_on_c, 0, 56, 38
2,95212, Control_c, 0, 64, 32
2,95272, Note_on_c, 0, 56, 0
2,95304, Note_on_c, 0, 55, 40
2,95484, Control_c, 0, 64, 32
2,95586, Note_on_c, 0, 68, 52
2,95596, Note_on_c, 0, 56, 38
2,95629, Note_on_c, 0, 55, 0
2,95657, Control_c, 0, 64, 31
2,95695, Control_c, 0, 64, 31
2,95759, Note_on_c, 0, 63, 0
2,95792, Control_c, 0, 64, 30
2,95830, Control_c, 0, 64, 29
2,95841, Note_on_c, 0, 73, 57
2,95854, Note_on_c, 0, 56, 0
2,95855, Note_on_c, 0, 58, 41
2,95869, Control_c, 0, 64, 29
2,95898, Note_on_c, 0, 71, 0
2,95926, Control_c, 0, 64, 28
2,95944, Control_c, 0, 64, 27
2,96021, Control_c, 0, 64, 27
2,96070, Note_on_c, 0, 58, 0
2,96079, Control_c, 0, 64, 26
2,96100, Note_on_c, 0, 75, 68
2,96121, Note_on_c, 0, 73, 0
2,96129, Note_on_c, 0, 59, 40
2,96137, Control_c, 0, 64, 25
2,96212, Control_c, 0, 64, 24
2,96347, Control_c, 0, 64, 23
2,96347, Note_on_c, 0, 59, 0
2,96364, Note_on_c, 0, 71, 59
2,96365, Control_c, 0, 64, 22
2,96373, Note_on_c, 0, 56, 48
2,96423, Control_c, 0, 64, 21
2,96558, Control_c, 0, 64, 20
2,96615, Control_c, 0, 64, 19
2,96641, Note_on_c, 0, 56, 0
2,96664, Note_on_c, 0, 73, 63
2,96686, Note_on_c, 0, 57, 40
2,96711, Control_c, 0, 64, 18
2,96724, Note_on_c, 0, 68, 0
2,96744, Note_on_c, 0, 71, 0
2,96750, Control_c, 0, 64, 17
2,96769, Note_on_c, 0, 75, 0
2,96894, Note_on_c, 0, 57, 0
2,96925, Note_on_c, 0, 59, 59
2,97172, Control_c, 0, 64, 15
2,97197, Note_on_c, 0, 66, 61
2,97201, Note_on_c, 0, 57, 40
2,97209, Note_on_c, 0, 59, 0
2,97426, Note_on_c, 0, 57, 0
2,97441, Note_on_c, 0, 66, 0
2,97453, Note_on_c, 0, 64, 57
2,97474, Note_on_c, 0, 56, 47
2,97701, Note_on_c, 0, 56, 0
2,97724, Note_on_c, 0, 66, 51
2,97743, Note_on_c, 0, 73, 0
2,97754, Note_on_c, 0, 58, 37
2,97768, Note_on_c, 0, 64, 0
2,97912, Note_on_c, 0, 58, 0
2,97989, Note_on_c, 0, 59, 50
2,98133, Control_c, 0, 64, 17
2,98152, Control_c, 0, 64, 18
2,98171, Control_c, 0, 64, 22
2,98191, Control_c, 0, 64, 29
2,98209, Control_c, 0, 64, 39
2,98227, Note_on_c, 0, 76, 65
2,98229, Control_c, 0, 64, 49
2,98239, Note_on_c, 0, 59, 0
2,98248, Control_c, 0, 64, 55
2,98249, Note_on_c, 0, 61, 45
2,98268, Control_c, 0, 64, 59
2,98285, Control_c, 0, 64, 61
2,98304, Control_c, 0, 64, 63
2,98324, Control_c, 0, 64, 64
2,98343, Control_c, 0, 64, 66
2,98362, Control_c, 0, 64, 68
2,98381, Control_c, 0, 64, 71
2,98401, Control_c, 0, 64, 75
2,98419, Control_c, 0, 64, 81
2,98439, Control_c, 0, 64, 86
2,98451, Note_on_c, 0, 76, 0
2,98458, Control_c, 0, 64, 90
2,98463, Note_on_c, 0, 61, 0
2,98478, Control_c, 0, 64, 94
2,98496, Control_c, 0, 64, 96
2,98502, Note_on_c, 0, 58, 58
2,98516, Control_c, 0, 64, 97
2,98554, Control_c, 0, 64, 96
2,98593, Control_c, 0, 64, 97
2,98612, Control_c, 0, 64, 98
2,98670, Control_c, 0, 64, 96
2,98689, Control_c, 0, 64, 95
2,98765, Control_c, 0, 64, 93
2,98765, Note_on_c, 0, 75, 75
2,98784, Control_c, 0, 64, 89
2,98804, Control_c, 0, 64, 83
2,98809, Note_on_c, 0, 59, 44
2,98815, Note_on_c, 0, 58, 0
2,98823, Control_c, 0, 64, 74
2,98842, Control_c, 0, 64, 68
2,98861, Control_c, 0, 64, 65
2,98881, Control_c, 0, 64, 63
2,98899, Control_c, 0, 64, 62
2,98919, Control_c, 0, 64, 60
2,98926, Note_on_c, 0, 66, 0
2,98938, Control_c, 0, 64, 58
2,98958, Control_c, 0, 64, 56
2,98976, Control_c, 0, 64, 55
2,98996, Control_c, 0, 64, 55
2,99005, Note_on_c, 0, 59, 0
2,99029, Note_on_c, 0, 61, 62
2,99075, Control_c, 0, 64, 54
2,99095, Control_c, 0, 64, 52
2,99113, Control_c, 0, 64, 51
2,99133, Control_c, 0, 64, 50
2,99172, Control_c, 0, 64, 50
2,99190, Control_c, 0, 64, 49
2,99248, Control_c, 0, 64, 49
2,99267, Control_c, 0, 64, 48
2,99287, Control_c, 0, 64, 47
2,99306, Control_c, 0, 64, 47
2,99307, Note_on_c, 0, 59, 56
2,99309, Note_on_c, 0, 64, 69
2,99325, Control_c, 0, 64, 46
2,99328, Note_on_c, 0, 61, 0
2,99344, Control_c, 0, 64, 45
2,99364, Control_c, 0, 64, 44
2,99382, Control_c, 0, 64, 44
2,99516, Control_c, 0, 64, 43
2,99522, Note_on_c, 0, 59, 0
2,99536, Control_c, 0, 64, 43
2,99546, Note_on_c, 0, 58, 55
2,99550, Note_on_c, 0, 66, 71
2,99575, Control_c, 0, 64, 42
2,99615, Note_on_c, 0, 64, 0
2,99709, Control_c, 0, 64, 41
2,99728, Control_c, 0, 64, 39
2,99747, Control_c, 0, 64, 37
2,99767, Control_c, 0, 64, 36
2,99786, Control_c, 0, 64, 34
2,99804, Note_on_c, 0, 58, 0
2,99805, Control_c, 0, 64, 33
2,99814, Note_on_c, 0, 75, 0
2,99823, Note_on_c, 0, 68, 74
2,99824, Control_c, 0, 64, 32
2,99829, Note_on_c, 0, 60, 49
2,99844, Control_c, 0, 64, 31
2,99862, Control_c, 0, 64, 31
2,99882, Control_c, 0, 64, 29
2,99901, Control_c, 0, 64, 26
2,99906, Note_on_c, 0, 66, 0
2,99921, Control_c, 0, 64, 22
2,99939, Control_c, 0, 64, 20
2,99978, Control_c, 0, 64, 19
2,99996, Control_c, 0, 64, 18
2,100016, Control_c, 0, 64, 17
2,100041, Note_on_c, 0, 60, 0
2,100087, Note_on_c, 0, 61, 65
2,100132, Control_c, 0, 64, 15
2,100150, Control_c, 0, 64, 13
2,100207, Control_c, 0, 64, 11
2,100341, Note_on_c, 0, 61, 0
2,100342, Note_on_c, 0, 78, 80
2,100361, Control_c, 0, 64, 9
2,100374, Note_on_c, 0, 63, 53
2,100400, Control_c, 0, 64, 11
2,100418, Control_c, 0, 64, 20
2,100438, Control_c, 0, 64, 33
2,100457, Control_c, 0, 64, 45
2,100476, Control_c, 0, 64, 55
2,100495, Control_c, 0, 64, 59
2,100514, Control_c, 0, 64, 62
2,100534, Control_c, 0, 64, 63
2,100552, Control_c, 0, 64, 65
2,100572, Control_c, 0, 64, 67
2,100591, Control_c, 0, 64, 70
2,100606, Note_on_c, 0, 63, 0
2,100611, Control_c, 0, 64, 76
2,100626, Note_on_c, 0, 60, 66
2,100629, Control_c, 0, 64, 82
2,100649, Control_c, 0, 64, 91
2,100668, Control_c, 0, 64, 110
2,100684, Note_on_c, 0, 78, 0
2,100687, Control_c, 0, 64, 127
2,101017, Note_on_c, 0, 76, 77
2,101047, Note_on_c, 0, 60, 0
2,101057, Note_on_c, 0, 61, 45
2,101092, Control_c, 0, 64, 94
2,101111, Control_c, 0, 64, 79
2,101131, Control_c, 0, 64, 70
2,101150, Control_c, 0, 64, 65
2,101169, Control_c, 0, 64, 63
2,101188, Control_c, 0, 64, 62
2,101208, Control_c, 0, 64, 60
2,101226, Control_c, 0, 64, 57
2,101246, Control_c, 0, 64, 54
2,101265, Control_c, 0, 64, 49
2,101285, Control_c, 0, 64, 43
2,101303, Control_c, 0, 64, 35
2,101323, Control_c, 0, 64, 30
2,101342, Control_c, 0, 64, 26
2,101362, Control_c, 0, 64, 17
2,101380, Control_c, 0, 64, 0
2,101613, Note_on_c, 0, 49, 55
2,101863, Note_on_c, 0, 61, 0
2,101864, Note_on_c, 0, 51, 64
2,101965, Note_on_c, 0, 49, 0
2,102174, Note_on_c, 0, 73, 76
2,102183, Note_on_c, 0, 51, 0
2,102204, Note_on_c, 0, 52, 41
2,102284, Note_on_c, 0, 76, 0
2,102606, Control_c, 0, 64, 11
2,102625, Control_c, 0, 64, 29
2,102645, Control_c, 0, 64, 41
2,102663, Control_c, 0, 64, 49
2,102683, Control_c, 0, 64, 54
2,102702, Control_c, 0, 64, 57
2,102722, Control_c, 0, 64, 59
2,102728, Note_on_c, 0, 52, 0
2,102740, Control_c, 0, 64, 61
2,102754, Note_on_c, 0, 54, 52
2,102760, Control_c, 0, 64, 63
2,102779, Control_c, 0, 64, 64
2,102799, Control_c, 0, 64, 65
2,102817, Control_c, 0, 64, 66
2,102837, Control_c, 0, 64, 68
2,102856, Control_c, 0, 64, 70
2,102875, Control_c, 0, 64, 73
2,102894, Control_c, 0, 64, 77
2,102915, Control_c, 0, 64, 82
2,102919, Note_on_c, 0, 73, 0
2,102934, Control_c, 0, 64, 86
2,102953, Control_c, 0, 64, 92
2,102972, Control_c, 0, 64, 97
2,102992, Control_c, 0, 64, 104
2,103010, Control_c, 0, 64, 116
2,103030, Control_c, 0, 64, 127
2,103091, Note_on_c, 0, 54, 0
2,103348, Note_on_c, 0, 72, 71
2,103395, Control_c, 0, 64, 104
2,103399, Note_on_c, 0, 56, 42
2,103414, Control_c, 0, 64, 93
2,103433, Control_c, 0, 64, 86
2,103452, Control_c, 0, 64, 79
2,103472, Control_c, 0, 64, 71
2,103490, Control_c, 0, 64, 65
2,103510, Control_c, 0, 64, 61
2,103529, Control_c, 0, 64, 60
2,103549, Control_c, 0, 64, 59
2,103567, Control_c, 0, 64, 58
2,103587, Control_c, 0, 64, 56
2,103606, Control_c, 0, 64, 52
2,103624, Control_c, 0, 64, 48
2,103644, Control_c, 0, 64, 42
2,103663, Control_c, 0, 64, 37
2,103679, Note_on_c, 0, 56, 0
2,103683, Control_c, 0, 64, 32
2,103696, Note_on_c, 0, 54, 41
2,103701, Control_c, 0, 64, 27
2,103721, Control_c, 0, 64, 18
2,103740, Control_c, 0, 64, 0
2,103899, Note_on_c, 0, 54, 0
2,103912, Control_c, 0, 64, 38
2,103931, Control_c, 0, 64, 52
2,103951, Control_c, 0, 64, 57
2,103956, Note_on_c, 0, 75, 62
2,103969, Control_c, 0, 64, 60
2,103989, Control_c, 0, 64, 62
2,104006, Note_on_c, 0, 56, 26
2,104008, Control_c, 0, 64, 63
2,104028, Control_c, 0, 64, 64
2,104046, Control_c, 0, 64, 66
2,104065, Control_c, 0, 64, 68
2,104085, Control_c, 0, 64, 70
2,104103, Control_c, 0, 64, 73
2,104123, Control_c, 0, 64, 76
2,104142, Control_c, 0, 64, 79
2,104162, Control_c, 0, 64, 83
2,104180, Control_c, 0, 64, 88
2,104181, Note_on_c, 0, 56, 0
2,104200, Control_c, 0, 64, 94
2,104219, Control_c, 0, 64, 103
2,104236, Note_on_c, 0, 57, 54
2,104239, Control_c, 0, 64, 127
2,104487, Note_on_c, 0, 76, 77
2,104517, Note_on_c, 0, 56, 48
2,104553, Note_on_c, 0, 75, 0
2,104603, Control_c, 0, 64, 100
2,104622, Control_c, 0, 64, 81
2,104642, Control_c, 0, 64, 71
2,104660, Control_c, 0, 64, 66
2,104678, Note_on_c, 0, 57, 0
2,104680, Control_c, 0, 64, 65
2,104699, Control_c, 0, 64, 64
2,104719, Control_c, 0, 64, 64
2,104737, Control_c, 0, 64, 63
2,104757, Control_c, 0, 64, 62
2,104774, Note_on_c, 0, 54, 51
2,104776, Control_c, 0, 64, 61
2,104795, Control_c, 0, 64, 60
2,104814, Control_c, 0, 64, 59
2,104828, Note_on_c, 0, 56, 0
2,104836, Control_c, 0, 64, 58
2,104854, Control_c, 0, 64, 56
2,104874, Control_c, 0, 64, 54
2,104893, Control_c, 0, 64, 53
2,104913, Control_c, 0, 64, 51
2,104928, Note_on_c, 0, 72, 0
2,104931, Control_c, 0, 64, 50
2,104951, Control_c, 0, 64, 48
2,104970, Control_c, 0, 64, 45
2,104989, Control_c, 0, 64, 43
2,105006, Control_c, 0, 64, 42
2,105018, Note_on_c, 0, 54, 0
2,105029, Note_on_c, 0, 73, 58
2,105045, Control_c, 0, 64, 41
2,105045, Note_on_c, 0, 52, 46
2,105063, Control_c, 0, 64, 39
2,105083, Control_c, 0, 64, 37
2,105102, Control_c, 0, 64, 36
2,105122, Control_c, 0, 64, 35
2,105295, Note_on_c, 0, 56, 53
2,105352, Control_c, 0, 64, 34
2,105405, Note_on_c, 0, 52, 0
2,105429, Control_c, 0, 64, 35
2,105448, Control_c, 0, 64, 35
2,105580, Note_on_c, 0, 75, 65
2,105600, Note_on_c, 0, 54, 39
2,105602, Control_c, 0, 64, 36
2,105640, Control_c, 0, 64, 36
2,105659, Control_c, 0, 64, 37
2,105729, Note_on_c, 0, 56, 0
2,105743, Note_on_c, 0, 73, 0
2,105750, Note_on_c, 0, 76, 0
2,105813, Note_on_c, 0, 54, 0
2,105814, Control_c, 0, 64, 37
2,105833, Control_c, 0, 64, 38
2,105851, Note_on_c, 0, 52, 47
2,105872, Control_c, 0, 64, 39
2,105910, Control_c, 0, 64, 39
2,106023, Control_c, 0, 64, 40
2,106042, Control_c, 0, 64, 41
2,106082, Note_on_c, 0, 68, 0
2,106124, Note_on_c, 0, 72, 54
2,106139, Note_on_c, 0, 54, 31
2,106168, Note_on_c, 0, 52, 0
2,106176, Control_c, 0, 64, 40
2,106311, Control_c, 0, 64, 40
2,106330, Control_c, 0, 64, 39
2,106340, Note_on_c, 0, 72, 0
2,106350, Control_c, 0, 64, 39
2,106351, Note_on_c, 0, 54, 0
2,106392, Note_on_c, 0, 70, 51
2,106415, Note_on_c, 0, 56, 38
2,106522, Control_c, 0, 64, 38
2,106541, Control_c, 0, 64, 36
2,106561, Control_c, 0, 64, 36
2,106574, Note_on_c, 0, 70, 0
2,106658, Note_on_c, 0, 72, 48
2,106676, Control_c, 0, 64, 38
2,106688, Note_on_c, 0, 54, 43
2,106695, Control_c, 0, 64, 42
2,106702, Note_on_c, 0, 56, 0
2,106714, Control_c, 0, 64, 48
2,106733, Control_c, 0, 64, 54
2,106755, Control_c, 0, 64, 57
2,106774, Control_c, 0, 64, 59
2,106793, Control_c, 0, 64, 61
2,106812, Control_c, 0, 64, 63
2,106832, Control_c, 0, 64, 64
2,106850, Control_c, 0, 64, 66
2,106870, Control_c, 0, 64, 67
2,106877, Note_on_c, 0, 75, 0
2,106885, Note_on_c, 0, 54, 0
2,106889, Control_c, 0, 64, 69
2,106909, Control_c, 0, 64, 71
2,106923, Note_on_c, 0, 52, 47
2,106926, Control_c, 0, 64, 74
2,106945, Control_c, 0, 64, 78
2,106965, Control_c, 0, 64, 80
2,106983, Control_c, 0, 64, 81
2,107042, Control_c, 0, 64, 81
2,107080, Control_c, 0, 64, 80
2,107099, Control_c, 0, 64, 80
2,107119, Control_c, 0, 64, 79
2,107123, Note_on_c, 0, 52, 0
2,107137, Control_c, 0, 64, 76
2,107157, Control_c, 0, 64, 74
2,107176, Control_c, 0, 64, 71
2,107195, Control_c, 0, 64, 67
2,107204, Note_on_c, 0, 75, 54
2,107214, Control_c, 0, 64, 63
2,107217, Note_on_c, 0, 51, 34
2,107234, Control_c, 0, 64, 56
2,107253, Control_c, 0, 64, 48
2,107272, Control_c, 0, 64, 40
2,107291, Control_c, 0, 64, 32
2,107311, Control_c, 0, 64, 22
2,107329, Control_c, 0, 64, 9
2,107349, Control_c, 0, 64, 0
2,107363, Note_on_c, 0, 72, 0
2,107368, Control_c, 0, 64, 13
2,107388, Control_c, 0, 64, 35
2,107406, Control_c, 0, 64, 49
2,107425, Control_c, 0, 64, 57
2,107445, Control_c, 0, 64, 60
2,107463, Control_c, 0, 64, 61
2,107481, Note_on_c, 0, 54, 31
2,107483, Control_c, 0, 64, 62
2,107488, Note_on_c, 0, 51, 0
2,107502, Control_c, 0, 64, 63
2,107522, Control_c, 0, 64, 64
2,107560, Control_c, 0, 64, 65
2,107579, Control_c, 0, 64, 65
2,107599, Control_c, 0, 64, 66
2,107617, Control_c, 0, 64, 67
2,107637, Control_c, 0, 64, 68
2,107694, Control_c, 0, 64, 67
2,107757, Note_on_c, 0, 54, 0
2,107768, Control_c, 0, 64, 66
2,107774, Note_on_c, 0, 52, 36
2,107775, Note_on_c, 0, 80, 52
2,107788, Control_c, 0, 64, 66
2,107807, Control_c, 0, 64, 65
2,107825, Control_c, 0, 64, 65
2,107864, Control_c, 0, 64, 64
2,107884, Control_c, 0, 64, 63
2,107902, Control_c, 0, 64, 61
2,107922, Control_c, 0, 64, 60
2,107941, Control_c, 0, 64, 59
2,107960, Control_c, 0, 64, 58
2,107979, Control_c, 0, 64, 57
2,107999, Control_c, 0, 64, 55
2,108018, Control_c, 0, 64, 54
2,108037, Control_c, 0, 64, 52
2,108046, Note_on_c, 0, 52, 0
2,108056, Control_c, 0, 64, 50
2,108076, Control_c, 0, 64, 48
2,108077, Note_on_c, 0, 80, 0
2,108079, Note_on_c, 0, 78, 58
2,108094, Control_c, 0, 64, 47
2,108099, Note_on_c, 0, 51, 38
2,108114, Control_c, 0, 64, 46
2,108133, Control_c, 0, 64, 45
2,108153, Control_c, 0, 64, 44
2,108171, Control_c, 0, 64, 43
2,108191, Control_c, 0, 64, 42
2,108229, Control_c, 0, 64, 41
2,108289, Note_on_c, 0, 51, 0
2,108325, Control_c, 0, 64, 41
2,108333, Note_on_c, 0, 80, 63
2,108352, Note_on_c, 0, 52, 39
2,108364, Control_c, 0, 64, 40
2,108379, Note_on_c, 0, 78, 0
2,108421, Control_c, 0, 64, 39
2,108479, Control_c, 0, 64, 39
2,108529, Note_on_c, 0, 52, 0
2,108578, Note_on_c, 0, 81, 68
2,108588, Note_on_c, 0, 80, 0
2,108589, Note_on_c, 0, 54, 38
2,108594, Control_c, 0, 64, 38
2,108750, Control_c, 0, 64, 38
2,108769, Control_c, 0, 64, 37
2,108792, Note_on_c, 0, 54, 0
2,108858, Note_on_c, 0, 80, 63
2,108870, Note_on_c, 0, 52, 41
2,108879, Note_on_c, 0, 75, 0
2,108883, Control_c, 0, 64, 37
2,108883, Note_on_c, 0, 73, 50
2,108918, Note_on_c, 0, 81, 0
2,108921, Control_c, 0, 64, 36
2,109094, Control_c, 0, 64, 36
2,109131, Note_on_c, 0, 78, 66
2,109138, Note_on_c, 0, 57, 43
2,109169, Note_on_c, 0, 80, 0
2,109171, Control_c, 0, 64, 35
2,109305, Control_c, 0, 64, 35
2,109376, Note_on_c, 0, 57, 0
2,109382, Control_c, 0, 64, 34
2,109383, Note_on_c, 0, 76, 67
2,109396, Note_on_c, 0, 56, 48
2,109410, Note_on_c, 0, 78, 0
2,109478, Control_c, 0, 64, 34
2,109497, Control_c, 0, 64, 33
2,109517, Control_c, 0, 64, 32
2,109534, Note_on_c, 0, 52, 0
2,109535, Control_c, 0, 64, 31
2,109555, Control_c, 0, 64, 31
2,109574, Control_c, 0, 64, 30
2,109594, Control_c, 0, 64, 29
2,109612, Control_c, 0, 64, 29
2,109639, Note_on_c, 0, 56, 0
2,109651, Note_on_c, 0, 80, 70
2,109669, Note_on_c, 0, 76, 0
2,109675, Control_c, 0, 64, 28
2,109677, Note_on_c, 0, 57, 46
2,109863, Control_c, 0, 64, 27
2,109921, Note_on_c, 0, 78, 61
2,109922, Control_c, 0, 64, 27
2,109937, Note_on_c, 0, 51, 42
2,109940, Control_c, 0, 64, 25
2,109960, Control_c, 0, 64, 24
2,109974, Note_on_c, 0, 80, 0
2,110037, Control_c, 0, 64, 23
2,110094, Control_c, 0, 64, 22
2,110133, Control_c, 0, 64, 21
2,110171, Control_c, 0, 64, 20
2,110178, Note_on_c, 0, 51, 0
2,110185, Note_on_c, 0, 76, 68
2,110187, Note_on_c, 0, 78, 0
2,110191, Control_c, 0, 64, 19
2,110195, Note_on_c, 0, 49, 58
2,110209, Control_c, 0, 64, 18
2,110229, Control_c, 0, 64, 17
2,110248, Control_c, 0, 64, 15
2,110267, Control_c, 0, 64, 13
2,110286, Control_c, 0, 64, 11
2,110305, Control_c, 0, 64, 9
2,110325, Control_c, 0, 64, 0
2,110447, Note_on_c, 0, 78, 73
2,110450, Note_on_c, 0, 51, 56
2,110463, Note_on_c, 0, 76, 0
2,110544, Note_on_c, 0, 49, 0
2,110593, Note_on_c, 0, 57, 0
2,110710, Note_on_c, 0, 51, 0
2,110719, Note_on_c, 0, 80, 75
2,110720, Note_on_c, 0, 52, 58
2,110736, Note_on_c, 0, 73, 0
2,110740, Note_on_c, 0, 78, 0
2,110950, Note_on_c, 0, 52, 0
2,110970, Note_on_c, 0, 51, 48
2,110974, Note_on_c, 0, 78, 75
2,111016, Note_on_c, 0, 72, 47
2,111021, Note_on_c, 0, 80, 0
2,111072, Control_c, 0, 64, 35
2,111091, Control_c, 0, 64, 49
2,111110, Control_c, 0, 64, 56
2,111129, Control_c, 0, 64, 60
2,111149, Control_c, 0, 64, 62
2,111168, Control_c, 0, 64, 63
2,111186, Control_c, 0, 64, 64
2,111206, Control_c, 0, 64, 66
2,111225, Control_c, 0, 64, 68
2,111236, Note_on_c, 0, 76, 75
2,111244, Control_c, 0, 64, 70
2,111260, Note_on_c, 0, 78, 0
2,111262, Note_on_c, 0, 72, 0
2,111263, Control_c, 0, 64, 73
2,111264, Note_on_c, 0, 56, 50
2,111283, Control_c, 0, 64, 76
2,111302, Control_c, 0, 64, 81
2,111321, Control_c, 0, 64, 85
2,111340, Control_c, 0, 64, 86
2,111379, Control_c, 0, 64, 85
2,111398, Control_c, 0, 64, 84
2,111417, Control_c, 0, 64, 82
2,111437, Control_c, 0, 64, 79
2,111454, Note_on_c, 0, 51, 0
2,111455, Control_c, 0, 64, 73
2,111475, Control_c, 0, 64, 65
2,111493, Note_on_c, 0, 56, 0
2,111494, Control_c, 0, 64, 58
2,111499, Note_on_c, 0, 75, 77
2,111514, Control_c, 0, 64, 49
2,111519, Note_on_c, 0, 71, 57
2,111520, Note_on_c, 0, 54, 47
2,111522, Note_on_c, 0, 76, 0
2,111532, Control_c, 0, 64, 31
2,111552, Control_c, 0, 64, 0
2,111629, Control_c, 0, 64, 9
2,111648, Control_c, 0, 64, 45
2,111666, Control_c, 0, 64, 57
2,111686, Control_c, 0, 64, 61
2,111705, Control_c, 0, 64, 63
2,111722, Control_c, 0, 64, 64
2,111740, Control_c, 0, 64, 66
2,111760, Control_c, 0, 64, 68
2,111760, Note_on_c, 0, 54, 0
2,111769, Note_on_c, 0, 78, 74
2,111779, Control_c, 0, 64, 70
2,111799, Control_c, 0, 64, 74
2,111805, Note_on_c, 0, 56, 42
2,111817, Control_c, 0, 64, 78
2,111824, Note_on_c, 0, 75, 0
2,111837, Control_c, 0, 64, 83
2,111855, Note_on_c, 0, 71, 0
2,111856, Control_c, 0, 64, 91
2,111875, Control_c, 0, 64, 101
2,111894, Control_c, 0, 64, 127
2,111990, Note_on_c, 0, 56, 0
2,112122, Note_on_c, 0, 49, 35
2,112124, Note_on_c, 0, 78, 0
2,112150, Note_on_c, 0, 77, 74
2,112163, Control_c, 0, 64, 107
2,112182, Control_c, 0, 64, 92
2,112202, Control_c, 0, 64, 75
2,112220, Control_c, 0, 64, 64
2,112240, Control_c, 0, 64, 47
2,112259, Control_c, 0, 64, 24
2,112279, Control_c, 0, 64, 15
2,112317, Control_c, 0, 64, 24
2,112336, Control_c, 0, 64, 41
2,112355, Control_c, 0, 64, 55
2,112374, Control_c, 0, 64, 61
2,112394, Control_c, 0, 64, 64
2,112413, Control_c, 0, 64, 66
2,112432, Control_c, 0, 64, 69
2,112451, Control_c, 0, 64, 75
2,112471, Control_c, 0, 64, 81
2,112489, Control_c, 0, 64, 87
2,112499, Note_on_c, 0, 71, 56
2,112511, Control_c, 0, 64, 94
2,112530, Control_c, 0, 64, 108
2,112549, Control_c, 0, 64, 127
2,112786, Note_on_c, 0, 61, 66
2,112786, Note_on_c, 0, 73, 58
2,112805, Note_on_c, 0, 49, 0
2,112913, Note_on_c, 0, 71, 0
2,113012, Note_on_c, 0, 73, 0
2,113013, Note_on_c, 0, 77, 0
2,113055, Note_on_c, 0, 74, 61
2,113091, Note_on_c, 0, 74, 0
2,113314, Note_on_c, 0, 61, 0
2,113338, Note_on_c, 0, 81, 83
2,113356, Control_c, 0, 64, 109
2,113371, Note_on_c, 0, 66, 50
2,113371, Note_on_c, 0, 73, 53
2,113374, Control_c, 0, 64, 82
2,113394, Control_c, 0, 64, 66
2,113413, Control_c, 0, 64, 46
2,113433, Control_c, 0, 64, 0
2,113510, Control_c, 0, 64, 39
2,113529, Control_c, 0, 64, 58
2,113538, Note_on_c, 0, 73, 0
2,113549, Control_c, 0, 64, 64
2,113568, Control_c, 0, 64, 67
2,113586, Control_c, 0, 64, 72
2,113606, Control_c, 0, 64, 80
2,113609, Note_on_c, 0, 66, 0
2,113625, Control_c, 0, 64, 96
2,113625, Note_on_c, 0, 71, 76
2,113645, Control_c, 0, 64, 127
2,113687, Note_on_c, 0, 71, 0
2,113882, Note_on_c, 0, 66, 73
2,113895, Control_c, 0, 64, 115
2,113897, Note_on_c, 0, 69, 68
2,113914, Control_c, 0, 64, 78
2,113933, Control_c, 0, 64, 63
2,113953, Control_c, 0, 64, 46
2,113972, Control_c, 0, 64, 43
2,113991, Control_c, 0, 64, 44
2,114010, Control_c, 0, 64, 51
2,114030, Control_c, 0, 64, 61
2,114049, Control_c, 0, 64, 65
2,114067, Control_c, 0, 64, 69
2,114087, Control_c, 0, 64, 76
2,114106, Control_c, 0, 64, 89
2,114125, Control_c, 0, 64, 102
2,114130, Note_on_c, 0, 66, 0
2,114134, Note_on_c, 0, 81, 0
2,114144, Control_c, 0, 64, 127
2,114161, Note_on_c, 0, 73, 79
2,114214, Note_on_c, 0, 69, 0
2,114436, Note_on_c, 0, 80, 86
2,114463, Note_on_c, 0, 73, 0
2,114473, Note_on_c, 0, 66, 52
2,114474, Note_on_c, 0, 71, 56
2,114529, Control_c, 0, 64, 107
2,114547, Control_c, 0, 64, 75
2,114567, Control_c, 0, 64, 60
2,114586, Control_c, 0, 64, 22
2,114598, Note_on_c, 0, 71, 0
2,114605, Control_c, 0, 64, 0
2,114663, Control_c, 0, 64, 31
2,114682, Control_c, 0, 64, 52
2,114701, Control_c, 0, 64, 60
2,114721, Control_c, 0, 64, 62
2,114732, Note_on_c, 0, 69, 65
2,114739, Control_c, 0, 64, 64
2,114759, Control_c, 0, 64, 65
2,114778, Control_c, 0, 64, 67
2,114798, Control_c, 0, 64, 68
2,114816, Control_c, 0, 64, 70
2,114836, Control_c, 0, 64, 71
2,114855, Control_c, 0, 64, 72
2,114874, Control_c, 0, 64, 73
2,114893, Control_c, 0, 64, 74
2,114913, Control_c, 0, 64, 75
2,114932, Control_c, 0, 64, 74
2,114951, Control_c, 0, 64, 73
2,114969, Note_on_c, 0, 66, 0
2,114970, Control_c, 0, 64, 71
2,114990, Control_c, 0, 64, 70
2,114994, Note_on_c, 0, 65, 55
2,114994, Note_on_c, 0, 71, 69
2,114996, Note_on_c, 0, 69, 0
2,115009, Control_c, 0, 64, 69
2,115027, Control_c, 0, 64, 67
2,115047, Control_c, 0, 64, 63
2,115066, Control_c, 0, 64, 58
2,115085, Control_c, 0, 64, 55
2,115104, Control_c, 0, 64, 55
2,115162, Control_c, 0, 64, 54
2,115181, Control_c, 0, 64, 52
2,115201, Control_c, 0, 64, 51
2,115219, Control_c, 0, 64, 49
2,115239, Control_c, 0, 64, 46
2,115254, Note_on_c, 0, 71, 0
2,115255, Note_on_c, 0, 73, 70
2,115258, Control_c, 0, 64, 44
2,115258, Note_on_c, 0, 65, 0
2,115264, Note_on_c, 0, 63, 61
2,115278, Control_c, 0, 64, 41
2,115296, Control_c, 0, 64, 39
2,115316, Control_c, 0, 64, 38
2,115335, Control_c, 0, 64, 36
2,115354, Control_c, 0, 64, 36
2,115373, Control_c, 0, 64, 35
2,115396, Control_c, 0, 64, 34
2,115414, Control_c, 0, 64, 31
2,115434, Control_c, 0, 64, 24
2,115453, Control_c, 0, 64, 18
2,115473, Control_c, 0, 64, 11
2,115491, Control_c, 0, 64, 0
2,115497, Note_on_c, 0, 63, 0
2,115532, Note_on_c, 0, 71, 64
2,115544, Note_on_c, 0, 65, 46
2,115566, Control_c, 0, 64, 13
2,115585, Control_c, 0, 64, 28
2,115590, Note_on_c, 0, 73, 0
2,115605, Control_c, 0, 64, 42
2,115624, Control_c, 0, 64, 49
2,115643, Control_c, 0, 64, 52
2,115662, Control_c, 0, 64, 53
2,115682, Control_c, 0, 64, 54
2,115700, Control_c, 0, 64, 55
2,115720, Control_c, 0, 64, 56
2,115739, Control_c, 0, 64, 57
2,115752, Note_on_c, 0, 80, 0
2,115759, Control_c, 0, 64, 58
2,115777, Control_c, 0, 64, 59
2,115788, Note_on_c, 0, 69, 66
2,115793, Note_on_c, 0, 71, 0
2,115835, Control_c, 0, 64, 58
2,115854, Control_c, 0, 64, 58
2,115874, Control_c, 0, 64, 57
2,115893, Control_c, 0, 64, 56
2,115912, Control_c, 0, 64, 56
2,115951, Control_c, 0, 64, 55
2,115969, Control_c, 0, 64, 54
2,115988, Control_c, 0, 64, 53
2,116008, Control_c, 0, 64, 51
2,116027, Control_c, 0, 64, 50
2,116028, Note_on_c, 0, 69, 0
2,116042, Note_on_c, 0, 68, 61
2,116046, Control_c, 0, 64, 49
2,116065, Control_c, 0, 64, 47
2,116085, Control_c, 0, 64, 46
2,116104, Control_c, 0, 64, 44
2,116123, Control_c, 0, 64, 43
2,116142, Control_c, 0, 64, 42
2,116162, Control_c, 0, 64, 41
2,116180, Control_c, 0, 64, 41
2,116200, Control_c, 0, 64, 39
2,116219, Control_c, 0, 64, 38
2,116239, Control_c, 0, 64, 36
2,116257, Control_c, 0, 64, 34
2,116277, Control_c, 0, 64, 32
2,116296, Control_c, 0, 64, 30
2,116310, Note_on_c, 0, 68, 0
2,116315, Control_c, 0, 64, 29
2,116328, Note_on_c, 0, 71, 60
2,116334, Control_c, 0, 64, 27
2,116354, Control_c, 0, 64, 27
2,116373, Control_c, 0, 64, 26
2,116411, Control_c, 0, 64, 25
2,116431, Control_c, 0, 64, 21
2,116449, Control_c, 0, 64, 18
2,116468, Control_c, 0, 64, 9
2,116488, Control_c, 0, 64, 0
2,116592, Note_on_c, 0, 65, 0
2,116606, Note_on_c, 0, 71, 0
2,116622, Note_on_c, 0, 69, 66
2,116652, Note_on_c, 0, 66, 36
2,116736, Control_c, 0, 64, 40
2,116756, Control_c, 0, 64, 54
2,116775, Control_c, 0, 64, 60
2,116794, Control_c, 0, 64, 62
2,116813, Control_c, 0, 64, 64
2,116833, Control_c, 0, 64, 66
2,116852, Control_c, 0, 64, 69
2,116871, Control_c, 0, 64, 72
2,116890, Control_c, 0, 64, 77
2,116910, Control_c, 0, 64, 83
2,116929, Control_c, 0, 64, 92
2,116947, Control_c, 0, 64, 101
2,116967, Control_c, 0, 64, 112
2,116986, Control_c, 0, 64, 127
2,117139, Control_c, 0, 64, 117
2,117159, Control_c, 0, 64, 89
2,117178, Control_c, 0, 64, 72
2,117198, Control_c, 0, 64, 63
2,117199, Note_on_c, 0, 78, 61
2,117216, Control_c, 0, 64, 56
2,117216, Note_on_c, 0, 54, 38
2,117236, Control_c, 0, 64, 54
2,117255, Control_c, 0, 64, 55
2,117274, Control_c, 0, 64, 58
2,117293, Control_c, 0, 64, 61
2,117313, Control_c, 0, 64, 64
2,117332, Control_c, 0, 64, 66
2,117351, Control_c, 0, 64, 70
2,117370, Control_c, 0, 64, 75
2,117390, Control_c, 0, 64, 81
2,117409, Control_c, 0, 64, 86
2,117427, Control_c, 0, 64, 88
2,117447, Control_c, 0, 64, 90
2,117456, Note_on_c, 0, 76, 69
2,117458, Note_on_c, 0, 66, 0
2,117460, Note_on_c, 0, 56, 60
2,117466, Control_c, 0, 64, 92
2,117484, Control_c, 0, 64, 95
2,117499, Note_on_c, 0, 54, 0
2,117502, Control_c, 0, 64, 97
2,117522, Control_c, 0, 64, 99
2,117541, Control_c, 0, 64, 101
2,117560, Control_c, 0, 64, 103
2,117579, Control_c, 0, 64, 104
2,117599, Control_c, 0, 64, 105
2,117618, Control_c, 0, 64, 106
2,117694, Control_c, 0, 64, 105
2,117704, Note_on_c, 0, 56, 0
2,117713, Note_on_c, 0, 78, 0
2,117714, Control_c, 0, 64, 104
2,117723, Note_on_c, 0, 69, 0
2,117733, Control_c, 0, 64, 101
2,117753, Control_c, 0, 64, 95
2,117760, Note_on_c, 0, 74, 67
2,117771, Control_c, 0, 64, 88
2,117771, Note_on_c, 0, 54, 64
2,117777, Note_on_c, 0, 57, 60
2,117791, Control_c, 0, 64, 82
2,117810, Control_c, 0, 64, 77
2,117828, Control_c, 0, 64, 72
2,117848, Control_c, 0, 64, 67
2,117864, Note_on_c, 0, 76, 0
2,117867, Control_c, 0, 64, 62
2,117887, Control_c, 0, 64, 59
2,117905, Control_c, 0, 64, 57
2,117925, Control_c, 0, 64, 56
2,117944, Control_c, 0, 64, 56
2,117964, Control_c, 0, 64, 55
2,117982, Control_c, 0, 64, 53
2,118002, Control_c, 0, 64, 50
2,118021, Control_c, 0, 64, 48
2,118040, Control_c, 0, 64, 46
2,118044, Note_on_c, 0, 73, 63
2,118059, Control_c, 0, 64, 43
2,118079, Control_c, 0, 64, 41
2,118098, Control_c, 0, 64, 40
2,118117, Control_c, 0, 64, 39
2,118136, Control_c, 0, 64, 36
2,118156, Control_c, 0, 64, 35
2,118174, Control_c, 0, 64, 33
2,118194, Control_c, 0, 64, 32
2,118213, Control_c, 0, 64, 32
2,118233, Control_c, 0, 64, 31
2,118251, Control_c, 0, 64, 29
2,118273, Control_c, 0, 64, 27
2,118289, Note_on_c, 0, 57, 0
2,118291, Note_on_c, 0, 73, 0
2,118292, Control_c, 0, 64, 23
2,118311, Control_c, 0, 64, 21
2,118317, Note_on_c, 0, 71, 59
2,118326, Note_on_c, 0, 59, 55
2,118330, Control_c, 0, 64, 20
2,118445, Control_c, 0, 64, 19
2,118561, Control_c, 0, 64, 18
2,118565, Note_on_c, 0, 71, 0
2,118587, Note_on_c, 0, 69, 55
2,118638, Control_c, 0, 64, 19
2,118656, Control_c, 0, 64, 20
2,118676, Control_c, 0, 64, 21
2,118753, Control_c, 0, 64, 22
2,118772, Control_c, 0, 64, 24
2,118791, Control_c, 0, 64, 27
2,118810, Control_c, 0, 64, 27
2,118830, Control_c, 0, 64, 28
2,118867, Control_c, 0, 64, 29
2,118884, Note_on_c, 0, 59, 0
2,118889, Note_on_c, 0, 69, 0
2,118901, Note_on_c, 0, 54, 0
2,118906, Control_c, 0, 64, 29
2,118916, Note_on_c, 0, 68, 53
2,118932, Note_on_c, 0, 53, 40
2,118942, Note_on_c, 0, 61, 37
2,119021, Control_c, 0, 64, 30
2,119041, Control_c, 0, 64, 31
2,119059, Control_c, 0, 64, 32
2,119079, Control_c, 0, 64, 32
2,119175, Control_c, 0, 64, 33
2,119175, Note_on_c, 0, 61, 0
2,119194, Control_c, 0, 64, 34
2,119225, Note_on_c, 0, 59, 46
2,119234, Control_c, 0, 64, 35
2,119253, Control_c, 0, 64, 35
2,119272, Control_c, 0, 64, 36
2,119464, Note_on_c, 0, 59, 0
2,119474, Note_on_c, 0, 73, 68
2,119482, Control_c, 0, 64, 36
2,119498, Note_on_c, 0, 61, 44
2,119501, Control_c, 0, 64, 42
2,119504, Note_on_c, 0, 74, 0
2,119521, Control_c, 0, 64, 49
2,119539, Control_c, 0, 64, 56
2,119559, Control_c, 0, 64, 59
2,119578, Control_c, 0, 64, 62
2,119598, Control_c, 0, 64, 65
2,119616, Control_c, 0, 64, 67
2,119636, Control_c, 0, 64, 69
2,119639, Note_on_c, 0, 68, 0
2,119655, Control_c, 0, 64, 73
2,119674, Control_c, 0, 64, 77
2,119687, Note_on_c, 0, 61, 0
2,119693, Control_c, 0, 64, 81
2,119713, Control_c, 0, 64, 86
2,119732, Control_c, 0, 64, 90
2,119742, Note_on_c, 0, 62, 55
2,119751, Control_c, 0, 64, 95
2,119770, Control_c, 0, 64, 103
2,119790, Control_c, 0, 64, 127
2,119921, Note_on_c, 0, 62, 0
2,119967, Note_on_c, 0, 73, 0
2,120016, Note_on_c, 0, 78, 71
2,120031, Note_on_c, 0, 57, 38
2,120039, Note_on_c, 0, 61, 43
2,120046, Note_on_c, 0, 53, 0
2,120058, Control_c, 0, 64, 102
2,120078, Control_c, 0, 64, 76
2,120096, Control_c, 0, 64, 63
2,120116, Control_c, 0, 64, 49
2,120135, Control_c, 0, 64, 46
2,120173, Control_c, 0, 64, 48
2,120195, Control_c, 0, 64, 54
2,120214, Control_c, 0, 64, 60
2,120233, Control_c, 0, 64, 64
2,120252, Control_c, 0, 64, 67
2,120272, Control_c, 0, 64, 72
2,120275, Note_on_c, 0, 57, 0
2,120290, Control_c, 0, 64, 83
2,120307, Note_on_c, 0, 59, 68
2,120309, Control_c, 0, 64, 98
2,120319, Note_on_c, 0, 78, 0
2,120329, Control_c, 0, 64, 127
2,120405, Note_on_c, 0, 61, 0
2,120551, Note_on_c, 0, 78, 79
2,120563, Note_on_c, 0, 57, 53
2,120574, Note_on_c, 0, 59, 0
2,120598, Control_c, 0, 64, 94
2,120617, Control_c, 0, 64, 72
2,120636, Control_c, 0, 64, 62
2,120655, Control_c, 0, 64, 55
2,120675, Control_c, 0, 64, 55
2,120694, Control_c, 0, 64, 58
2,120713, Control_c, 0, 64, 63
2,120732, Control_c, 0, 64, 67
2,120752, Control_c, 0, 64, 74
2,120770, Control_c, 0, 64, 86
2,120789, Control_c, 0, 64, 102
2,120809, Control_c, 0, 64, 127
2,120841, Note_on_c, 0, 61, 71
2,120889, Note_on_c, 0, 78, 0
2,121144, Note_on_c, 0, 57, 0
2,121154, Note_on_c, 0, 78, 80
2,121202, Note_on_c, 0, 56, 49
2,121204, Note_on_c, 0, 59, 45
2,121235, Note_on_c, 0, 61, 0
2,121288, Control_c, 0, 64, 97
2,121307, Control_c, 0, 64, 79
2,121325, Control_c, 0, 64, 67
2,121344, Control_c, 0, 64, 61
2,121364, Control_c, 0, 64, 58
2,121459, Control_c, 0, 64, 57
2,121465, Note_on_c, 0, 57, 63
2,121479, Control_c, 0, 64, 56
2,121494, Note_on_c, 0, 59, 0
2,121498, Control_c, 0, 64, 55
2,121518, Control_c, 0, 64, 53
2,121536, Control_c, 0, 64, 51
2,121575, Control_c, 0, 64, 51
2,121613, Control_c, 0, 64, 50
2,121719, Note_on_c, 0, 76, 69
2,121745, Note_on_c, 0, 59, 47
2,121747, Control_c, 0, 64, 50
2,121770, Note_on_c, 0, 78, 0
2,121804, Note_on_c, 0, 57, 0
2,121972, Note_on_c, 0, 59, 0
2,121978, Control_c, 0, 64, 49
2,121978, Note_on_c, 0, 74, 69
2,121985, Note_on_c, 0, 61, 52
2,122010, Note_on_c, 0, 76, 0
2,122074, Control_c, 0, 64, 50
2,122189, Note_on_c, 0, 61, 0
2,122227, Control_c, 0, 64, 50
2,122250, Note_on_c, 0, 76, 67
2,122269, Note_on_c, 0, 74, 0
2,122284, Note_on_c, 0, 59, 43
2,122342, Control_c, 0, 64, 50
2,122361, Control_c, 0, 64, 48
2,122380, Control_c, 0, 64, 44
2,122400, Control_c, 0, 64, 33
2,122419, Control_c, 0, 64, 0
2,122485, Note_on_c, 0, 56, 0
2,122529, Note_on_c, 0, 57, 52
2,122586, Note_on_c, 0, 59, 0
2,122770, Note_on_c, 0, 57, 0
2,122791, Note_on_c, 0, 56, 47
2,123068, Note_on_c, 0, 59, 50
2,123242, Note_on_c, 0, 56, 0
2,123343, Note_on_c, 0, 59, 0
2,123348, Note_on_c, 0, 57, 39
2,123362, Note_on_c, 0, 54, 33
2,123604, Note_on_c, 0, 57, 0
2,123612, Note_on_c, 0, 56, 51
2,123874, Note_on_c, 0, 74, 63
2,123901, Note_on_c, 0, 57, 40
2,123940, Note_on_c, 0, 76, 0
2,123959, Note_on_c, 0, 54, 0
2,123984, Note_on_c, 0, 56, 0
2,124087, Note_on_c, 0, 57, 0
2,124133, Note_on_c, 0, 73, 70
2,124154, Note_on_c, 0, 74, 0
2,124158, Note_on_c, 0, 59, 48
2,124417, Note_on_c, 0, 74, 62
2,124423, Note_on_c, 0, 69, 62
2,124448, Note_on_c, 0, 59, 0
2,124448, Note_on_c, 0, 73, 0
2,124454, Note_on_c, 0, 57, 41
2,124694, Note_on_c, 0, 59, 63
2,124735, Note_on_c, 0, 57, 0
2,124856, Control_c, 0, 64, 9
2,124876, Control_c, 0, 64, 11
2,124894, Control_c, 0, 64, 15
2,124914, Control_c, 0, 64, 17
2,124933, Control_c, 0, 64, 18
2,124953, Control_c, 0, 64, 19
2,124955, Note_on_c, 0, 59, 0
2,124955, Note_on_c, 0, 61, 63
2,124993, Control_c, 0, 64, 20
2,125174, Note_on_c, 0, 61, 0
2,125211, Note_on_c, 0, 62, 45
2,125374, Control_c, 0, 64, 19
2,125393, Control_c, 0, 64, 18
2,125412, Control_c, 0, 64, 17
2,125412, Note_on_c, 0, 62, 0
2,125480, Note_on_c, 0, 69, 0
2,125492, Note_on_c, 0, 68, 60
2,125508, Control_c, 0, 64, 27
2,125521, Note_on_c, 0, 64, 31
2,125527, Control_c, 0, 64, 39
2,125546, Control_c, 0, 64, 47
2,125566, Control_c, 0, 64, 51
2,125584, Control_c, 0, 64, 55
2,125604, Control_c, 0, 64, 59
2,125623, Control_c, 0, 64, 63
2,125643, Control_c, 0, 64, 67
2,125661, Control_c, 0, 64, 72
2,125668, Note_on_c, 0, 64, 0
2,125681, Control_c, 0, 64, 81
2,125700, Control_c, 0, 64, 93
2,125719, Control_c, 0, 64, 110
2,125738, Control_c, 0, 64, 127
2,125762, Note_on_c, 0, 62, 46
2,125795, Note_on_c, 0, 62, 0
2,126026, Control_c, 0, 64, 92
2,126046, Control_c, 0, 64, 76
2,126047, Note_on_c, 0, 52, 48
2,126053, Note_on_c, 0, 64, 50
2,126064, Control_c, 0, 64, 65
2,126084, Control_c, 0, 64, 58
2,126103, Control_c, 0, 64, 51
2,126123, Control_c, 0, 64, 52
2,126141, Control_c, 0, 64, 56
2,126161, Control_c, 0, 64, 60
2,126180, Control_c, 0, 64, 63
2,126199, Control_c, 0, 64, 65
2,126218, Control_c, 0, 64, 66
2,126238, Control_c, 0, 64, 69
2,126238, Note_on_c, 0, 52, 0
2,126257, Control_c, 0, 64, 72
2,126276, Control_c, 0, 64, 78
2,126277, Note_on_c, 0, 64, 0
2,126285, Note_on_c, 0, 68, 0
2,126295, Control_c, 0, 64, 88
2,126304, Note_on_c, 0, 66, 66
2,126315, Control_c, 0, 64, 102
2,126334, Control_c, 0, 64, 127
2,126562, Note_on_c, 0, 73, 71
2,126569, Note_on_c, 0, 74, 0
2,126590, Note_on_c, 0, 66, 0
2,126600, Note_on_c, 0, 64, 44
2,126603, Control_c, 0, 64, 94
2,126618, Note_on_c, 0, 57, 39
2,126621, Control_c, 0, 64, 79
2,126641, Control_c, 0, 64, 68
2,126660, Control_c, 0, 64, 56
2,126679, Control_c, 0, 64, 0
2,126775, Control_c, 0, 64, 41
2,126795, Control_c, 0, 64, 55
2,126814, Control_c, 0, 64, 60
2,126833, Control_c, 0, 64, 63
2,126852, Control_c, 0, 64, 66
2,126852, Note_on_c, 0, 57, 0
2,126855, Note_on_c, 0, 62, 58
2,126860, Note_on_c, 0, 64, 0
2,126872, Control_c, 0, 64, 71
2,126890, Control_c, 0, 64, 86
2,126909, Control_c, 0, 64, 114
2,126929, Control_c, 0, 64, 127
2,127102, Control_c, 0, 64, 110
2,127104, Note_on_c, 0, 62, 0
2,127115, Note_on_c, 0, 61, 67
2,127122, Control_c, 0, 64, 83
2,127128, Note_on_c, 0, 57, 64
2,127141, Control_c, 0, 64, 68
2,127160, Control_c, 0, 64, 50
2,127179, Control_c, 0, 64, 0
2,127218, Control_c, 0, 64, 25
2,127237, Control_c, 0, 64, 51
2,127256, Control_c, 0, 64, 60
2,127276, Control_c, 0, 64, 62
2,127294, Control_c, 0, 64, 64
2,127314, Control_c, 0, 64, 66
2,127333, Control_c, 0, 64, 70
2,127346, Note_on_c, 0, 57, 0
2,127353, Control_c, 0, 64, 80
2,127366, Note_on_c, 0, 61, 0
2,127371, Control_c, 0, 64, 102
2,127377, Note_on_c, 0, 64, 73
2,127390, Control_c, 0, 64, 127
2,127435, Note_on_c, 0, 64, 0
2,127686, Note_on_c, 0, 78, 84
2,127723, Note_on_c, 0, 71, 56
2,127736, Control_c, 0, 64, 86
2,127744, Note_on_c, 0, 57, 45
2,127748, Note_on_c, 0, 73, 0
2,127755, Note_on_c, 0, 62, 43
2,127756, Control_c, 0, 64, 67
2,127774, Control_c, 0, 64, 37
2,127794, Control_c, 0, 64, 0
2,127870, Control_c, 0, 64, 34
2,127890, Control_c, 0, 64, 53
2,127909, Control_c, 0, 64, 59
2,127928, Control_c, 0, 64, 62
2,127947, Control_c, 0, 64, 64
2,127967, Control_c, 0, 64, 67
2,127976, Note_on_c, 0, 57, 0
2,127985, Control_c, 0, 64, 75
2,127986, Note_on_c, 0, 61, 66
2,128005, Control_c, 0, 64, 90
2,128024, Control_c, 0, 64, 127
2,128027, Note_on_c, 0, 62, 0
2,128226, Note_on_c, 0, 61, 0
2,128237, Note_on_c, 0, 62, 55
2,128241, Note_on_c, 0, 56, 66
2,128254, Control_c, 0, 64, 86
2,128274, Control_c, 0, 64, 71
2,128293, Control_c, 0, 64, 62
2,128313, Control_c, 0, 64, 55
2,128331, Control_c, 0, 64, 52
2,128339, Note_on_c, 0, 62, 0
2,128389, Control_c, 0, 64, 51
2,128408, Control_c, 0, 64, 49
2,128427, Control_c, 0, 64, 46
2,128447, Control_c, 0, 64, 44
2,128465, Control_c, 0, 64, 44
2,128485, Control_c, 0, 64, 43
2,128485, Note_on_c, 0, 56, 0
2,128504, Control_c, 0, 64, 42
2,128507, Note_on_c, 0, 54, 60
2,128507, Note_on_c, 0, 64, 61
2,128524, Control_c, 0, 64, 39
2,128542, Control_c, 0, 64, 36
2,128562, Control_c, 0, 64, 34
2,128581, Control_c, 0, 64, 32
2,128584, Note_on_c, 0, 64, 0
2,128600, Control_c, 0, 64, 32
2,128619, Control_c, 0, 64, 31
2,128734, Control_c, 0, 64, 31
2,128773, Control_c, 0, 64, 30
2,128780, Note_on_c, 0, 76, 64
2,128793, Note_on_c, 0, 62, 42
2,128799, Note_on_c, 0, 54, 0
2,128808, Note_on_c, 0, 56, 39
2,128869, Note_on_c, 0, 78, 0
2,128984, Control_c, 0, 64, 29
2,129022, Control_c, 0, 64, 29
2,129042, Control_c, 0, 64, 28
2,129050, Note_on_c, 0, 61, 55
2,129050, Note_on_c, 0, 62, 0
2,129061, Control_c, 0, 64, 27
2,129176, Control_c, 0, 64, 27
2,129214, Control_c, 0, 64, 26
2,129240, Note_on_c, 0, 61, 0
2,129253, Control_c, 0, 64, 25
2,129273, Control_c, 0, 64, 24
2,129291, Control_c, 0, 64, 23
2,129301, Note_on_c, 0, 59, 45
2,129310, Control_c, 0, 64, 22
2,129368, Control_c, 0, 64, 21
2,129407, Control_c, 0, 64, 20
2,129407, Note_on_c, 0, 56, 0
2,129562, Note_on_c, 0, 71, 0
2,129576, Note_on_c, 0, 62, 38
2,129618, Control_c, 0, 64, 19
2,129725, Note_on_c, 0, 59, 0
2,129771, Control_c, 0, 64, 18
2,129782, Note_on_c, 0, 62, 0
2,129792, Control_c, 0, 64, 17
2,129811, Control_c, 0, 64, 13
2,129829, Control_c, 0, 64, 9
2,129848, Note_on_c, 0, 57, 28
2,129849, Control_c, 0, 64, 0
2,129850, Note_on_c, 0, 61, 35
2,129983, Control_c, 0, 64, 11
2,130003, Control_c, 0, 64, 32
2,130013, Note_on_c, 0, 61, 0
2,130022, Control_c, 0, 64, 45
2,130041, Control_c, 0, 64, 54
2,130060, Control_c, 0, 64, 59
2,130080, Control_c, 0, 64, 62
2,130099, Control_c, 0, 64, 63
2,130113, Note_on_c, 0, 59, 47
2,130118, Control_c, 0, 64, 65
2,130137, Control_c, 0, 64, 67
2,130152, Note_on_c, 0, 76, 0
2,130157, Control_c, 0, 64, 71
2,130175, Control_c, 0, 64, 82
2,130195, Control_c, 0, 64, 110
2,130214, Control_c, 0, 64, 127
2,130265, Note_on_c, 0, 59, 0
2,130329, Control_c, 0, 64, 100
2,130348, Control_c, 0, 64, 78
2,130361, Note_on_c, 0, 64, 50
2,130368, Control_c, 0, 64, 66
2,130386, Control_c, 0, 64, 57
2,130401, Note_on_c, 0, 61, 33
2,130406, Control_c, 0, 64, 47
2,130444, Control_c, 0, 64, 53
2,130463, Control_c, 0, 64, 60
2,130483, Control_c, 0, 64, 64
2,130502, Control_c, 0, 64, 66
2,130521, Control_c, 0, 64, 70
2,130527, Note_on_c, 0, 64, 0
2,130540, Control_c, 0, 64, 75
2,130560, Control_c, 0, 64, 82
2,130568, Note_on_c, 0, 61, 0
2,130579, Control_c, 0, 64, 88
2,130598, Control_c, 0, 64, 95
2,130617, Control_c, 0, 64, 106
2,130617, Note_on_c, 0, 78, 64
2,130637, Control_c, 0, 64, 127
2,130644, Note_on_c, 0, 62, 39
2,130687, Note_on_c, 0, 62, 0
2,130829, Note_on_c, 0, 57, 0
2,130866, Control_c, 0, 64, 97
2,130886, Control_c, 0, 64, 80
2,130899, Note_on_c, 0, 76, 61
2,130905, Control_c, 0, 64, 68
2,130922, Note_on_c, 0, 78, 0
2,130924, Control_c, 0, 64, 59
2,130942, Control_c, 0, 64, 43
2,130942, Note_on_c, 0, 61, 21
2,130946, Note_on_c, 0, 69, 44
2,130948, Note_on_c, 0, 54, 30
2,130962, Control_c, 0, 64, 31
2,130981, Control_c, 0, 64, 29
2,131000, Control_c, 0, 64, 31
2,131019, Control_c, 0, 64, 45
2,131039, Control_c, 0, 64, 57
2,131058, Control_c, 0, 64, 62
2,131077, Control_c, 0, 64, 64
2,131096, Control_c, 0, 64, 67
2,131116, Control_c, 0, 64, 71
2,131134, Control_c, 0, 64, 77
2,131154, Control_c, 0, 64, 91
2,131173, Control_c, 0, 64, 127
2,131176, Note_on_c, 0, 74, 70
2,131183, Note_on_c, 0, 59, 61
2,131186, Note_on_c, 0, 61, 0
2,131219, Note_on_c, 0, 76, 0
2,131224, Note_on_c, 0, 69, 0
2,131363, Note_on_c, 0, 59, 0
2,131422, Control_c, 0, 64, 84
2,131435, Note_on_c, 0, 73, 75
2,131442, Control_c, 0, 64, 67
2,131446, Note_on_c, 0, 69, 60
2,131448, Note_on_c, 0, 57, 53
2,131461, Control_c, 0, 64, 57
2,131466, Note_on_c, 0, 74, 0
2,131480, Control_c, 0, 64, 45
2,131497, Note_on_c, 0, 54, 0
2,131499, Control_c, 0, 64, 42
2,131519, Control_c, 0, 64, 45
2,131538, Control_c, 0, 64, 55
2,131557, Control_c, 0, 64, 62
2,131576, Control_c, 0, 64, 66
2,131596, Control_c, 0, 64, 70
2,131614, Control_c, 0, 64, 76
2,131634, Control_c, 0, 64, 84
2,131644, Note_on_c, 0, 57, 0
2,131653, Control_c, 0, 64, 93
2,131673, Control_c, 0, 64, 111
2,131691, Control_c, 0, 64, 127
2,131701, Note_on_c, 0, 76, 81
2,131711, Note_on_c, 0, 61, 62
2,131730, Note_on_c, 0, 73, 0
2,131749, Note_on_c, 0, 61, 0
2,131758, Note_on_c, 0, 69, 0
2,132014, Note_on_c, 0, 74, 76
2,132041, Note_on_c, 0, 69, 59
2,132059, Note_on_c, 0, 76, 0
2,132070, Note_on_c, 0, 47, 36
2,132079, Control_c, 0, 64, 121
2,132080, Note_on_c, 0, 59, 43
2,132097, Control_c, 0, 64, 80
2,132117, Control_c, 0, 64, 63
2,132136, Control_c, 0, 64, 37
2,132155, Control_c, 0, 64, 0
2,132231, Control_c, 0, 64, 25
2,132251, Control_c, 0, 64, 53
2,132270, Control_c, 0, 64, 61
2,132289, Control_c, 0, 64, 64
2,132289, Note_on_c, 0, 74, 0
2,132299, Note_on_c, 0, 73, 76
2,132308, Control_c, 0, 64, 67
2,132328, Control_c, 0, 64, 71
2,132334, Note_on_c, 0, 69, 0
2,132347, Control_c, 0, 64, 78
2,132366, Control_c, 0, 64, 96
2,132385, Control_c, 0, 64, 127
2,132553, Note_on_c, 0, 74, 71
2,132559, Control_c, 0, 64, 97
2,132562, Note_on_c, 0, 73, 0
2,132570, Note_on_c, 0, 68, 57
2,132577, Control_c, 0, 64, 73
2,132597, Control_c, 0, 64, 60
2,132616, Control_c, 0, 64, 41
2,132635, Control_c, 0, 64, 31
2,132671, Note_on_c, 0, 68, 0
2,132673, Control_c, 0, 64, 34
2,132692, Control_c, 0, 64, 44
2,132710, Control_c, 0, 64, 56
2,132730, Control_c, 0, 64, 63
2,132749, Control_c, 0, 64, 65
2,132769, Control_c, 0, 64, 68
2,132787, Control_c, 0, 64, 71
2,132807, Control_c, 0, 64, 72
2,132815, Note_on_c, 0, 76, 74
2,132819, Note_on_c, 0, 74, 0
2,132826, Control_c, 0, 64, 71
2,132838, Note_on_c, 0, 66, 48
2,132844, Control_c, 0, 64, 70
2,132863, Control_c, 0, 64, 68
2,132883, Control_c, 0, 64, 65
2,132889, Note_on_c, 0, 66, 0
2,132902, Control_c, 0, 64, 64
2,132921, Control_c, 0, 64, 64
2,132940, Control_c, 0, 64, 63
2,132960, Control_c, 0, 64, 62
2,132979, Control_c, 0, 64, 61
2,132998, Control_c, 0, 64, 60
2,133017, Control_c, 0, 64, 59
2,133037, Control_c, 0, 64, 59
2,133055, Control_c, 0, 64, 58
2,133075, Control_c, 0, 64, 57
2,133092, Note_on_c, 0, 74, 62
2,133094, Control_c, 0, 64, 55
2,133110, Note_on_c, 0, 52, 41
2,133114, Control_c, 0, 64, 53
2,133127, Note_on_c, 0, 68, 46
2,133127, Note_on_c, 0, 76, 0
2,133132, Control_c, 0, 64, 52
2,133151, Control_c, 0, 64, 51
2,133171, Control_c, 0, 64, 50
2,133189, Control_c, 0, 64, 49
2,133209, Control_c, 0, 64, 48
2,133228, Control_c, 0, 64, 47
2,133248, Control_c, 0, 64, 46
2,133266, Control_c, 0, 64, 44
2,133286, Control_c, 0, 64, 42
2,133305, Control_c, 0, 64, 40
2,133324, Control_c, 0, 64, 38
2,133339, Note_on_c, 0, 47, 0
2,133343, Control_c, 0, 64, 38
2,133356, Note_on_c, 0, 73, 65
2,133363, Control_c, 0, 64, 37
2,133368, Note_on_c, 0, 74, 0
2,133375, Note_on_c, 0, 59, 0
2,133382, Control_c, 0, 64, 35
2,133401, Control_c, 0, 64, 32
2,133420, Control_c, 0, 64, 27
2,133440, Control_c, 0, 64, 20
2,133459, Control_c, 0, 64, 0
2,133594, Note_on_c, 0, 73, 0
2,133624, Note_on_c, 0, 71, 63
2,133633, Control_c, 0, 64, 21
2,133652, Control_c, 0, 64, 45
2,133670, Control_c, 0, 64, 56
2,133690, Control_c, 0, 64, 60
2,133709, Control_c, 0, 64, 63
2,133729, Control_c, 0, 64, 65
2,133747, Control_c, 0, 64, 68
2,133759, Note_on_c, 0, 52, 0
2,133767, Control_c, 0, 64, 73
2,133786, Control_c, 0, 64, 82
2,133805, Control_c, 0, 64, 96
2,133824, Control_c, 0, 64, 127
2,133891, Note_on_c, 0, 74, 73
2,133902, Note_on_c, 0, 68, 0
2,133910, Note_on_c, 0, 71, 0
2,134022, Note_on_c, 0, 74, 0
2,134237, Note_on_c, 0, 73, 78
2,134288, Control_c, 0, 64, 121
2,134300, Note_on_c, 0, 45, 32
2,134307, Control_c, 0, 64, 79
2,134310, Note_on_c, 0, 57, 42
2,134327, Control_c, 0, 64, 62
2,134346, Control_c, 0, 64, 39
2,134365, Control_c, 0, 64, 13
2,134384, Control_c, 0, 64, 11
2,134403, Control_c, 0, 64, 19
2,134422, Control_c, 0, 64, 44
2,134441, Control_c, 0, 64, 59
2,134461, Control_c, 0, 64, 64
2,134480, Control_c, 0, 64, 66
2,134499, Control_c, 0, 64, 67
2,134518, Control_c, 0, 64, 69
2,134538, Control_c, 0, 64, 71
2,134557, Control_c, 0, 64, 71
2,134576, Control_c, 0, 64, 70
2,134594, Control_c, 0, 64, 69
2,134608, Note_on_c, 0, 56, 60
2,134614, Control_c, 0, 64, 67
2,134646, Note_on_c, 0, 57, 0
2,134671, Control_c, 0, 64, 67
2,134691, Control_c, 0, 64, 65
2,134709, Control_c, 0, 64, 62
2,134729, Control_c, 0, 64, 58
2,134748, Control_c, 0, 64, 56
2,134766, Control_c, 0, 64, 54
2,134784, Control_c, 0, 64, 51
2,134803, Control_c, 0, 64, 47
2,134823, Control_c, 0, 64, 45
2,134841, Control_c, 0, 64, 43
2,134861, Control_c, 0, 64, 42
2,134873, Note_on_c, 0, 61, 66
2,134895, Note_on_c, 0, 54, 43
2,134900, Control_c, 0, 64, 41
2,134918, Control_c, 0, 64, 41
2,134918, Note_on_c, 0, 56, 0
2,134957, Control_c, 0, 64, 39
2,134977, Control_c, 0, 64, 37
2,134995, Control_c, 0, 64, 35
2,135015, Control_c, 0, 64, 33
2,135034, Control_c, 0, 64, 32
2,135061, Note_on_c, 0, 54, 0
2,135092, Control_c, 0, 64, 33
2,135094, Note_on_c, 0, 61, 0
2,135111, Control_c, 0, 64, 34
2,135130, Control_c, 0, 64, 35
2,135132, Note_on_c, 0, 63, 64
2,135149, Control_c, 0, 64, 35
2,135172, Note_on_c, 0, 52, 36
2,135283, Control_c, 0, 64, 36
2,135321, Control_c, 0, 64, 37
2,135341, Control_c, 0, 64, 37
2,135367, Note_on_c, 0, 63, 0
2,135415, Note_on_c, 0, 52, 0
2,135418, Note_on_c, 0, 64, 56
2,135424, Note_on_c, 0, 51, 40
2,135437, Control_c, 0, 64, 37
2,135475, Control_c, 0, 64, 36
2,135592, Control_c, 0, 64, 36
2,135612, Control_c, 0, 64, 35
2,135626, Note_on_c, 0, 51, 0
2,135631, Control_c, 0, 64, 33
2,135651, Control_c, 0, 64, 32
2,135669, Control_c, 0, 64, 32
2,135670, Note_on_c, 0, 49, 51
2,135689, Control_c, 0, 64, 31
2,135745, Control_c, 0, 64, 31
2,135765, Control_c, 0, 64, 29
2,135784, Control_c, 0, 64, 25
2,135802, Control_c, 0, 64, 18
2,135822, Control_c, 0, 64, 0
2,135873, Note_on_c, 0, 49, 0
2,135933, Note_on_c, 0, 64, 0
2,135937, Note_on_c, 0, 66, 50
2,135954, Note_on_c, 0, 48, 32
2,136047, Note_on_c, 0, 45, 0
2,136053, Control_c, 0, 64, 40
2,136072, Control_c, 0, 64, 53
2,136091, Control_c, 0, 64, 58
2,136110, Control_c, 0, 64, 61
2,136130, Control_c, 0, 64, 63
2,136148, Control_c, 0, 64, 64
2,136168, Control_c, 0, 64, 65
2,136187, Control_c, 0, 64, 66
2,136207, Control_c, 0, 64, 68
2,136212, Note_on_c, 0, 49, 47
2,136218, Note_on_c, 0, 48, 0
2,136225, Control_c, 0, 64, 70
2,136245, Control_c, 0, 64, 73
2,136264, Control_c, 0, 64, 77
2,136282, Control_c, 0, 64, 83
2,136298, Note_on_c, 0, 73, 0
2,136302, Control_c, 0, 64, 88
2,136321, Control_c, 0, 64, 90
2,136341, Control_c, 0, 64, 91
2,136436, Control_c, 0, 64, 90
2,136456, Control_c, 0, 64, 88
2,136475, Control_c, 0, 64, 85
2,136476, Note_on_c, 0, 49, 0
2,136494, Control_c, 0, 64, 83
2,136513, Control_c, 0, 64, 82
2,136517, Note_on_c, 0, 66, 0
2,136533, Control_c, 0, 64, 81
2,136552, Control_c, 0, 64, 76
2,136556, Note_on_c, 0, 72, 61
2,136571, Control_c, 0, 64, 68
2,136586, Note_on_c, 0, 51, 30
2,136590, Control_c, 0, 64, 61
2,136591, Note_on_c, 0, 68, 35
2,136605, Note_on_c, 0, 44, 22
2,136610, Control_c, 0, 64, 52
2,136628, Control_c, 0, 64, 41
2,136648, Control_c, 0, 64, 17
2,136667, Control_c, 0, 64, 0
2,136732, Note_on_c, 0, 68, 0
2,136745, Control_c, 0, 64, 44
2,136763, Control_c, 0, 64, 59
2,136783, Control_c, 0, 64, 63
2,136802, Control_c, 0, 64, 65
2,136822, Control_c, 0, 64, 67
2,136840, Control_c, 0, 64, 70
2,136860, Control_c, 0, 64, 74
2,136879, Control_c, 0, 64, 81
2,136897, Note_on_c, 0, 66, 37
2,136898, Control_c, 0, 64, 92
2,136917, Control_c, 0, 64, 110
2,136937, Control_c, 0, 64, 127
2,137052, Control_c, 0, 64, 115
2,137071, Control_c, 0, 64, 81
2,137091, Control_c, 0, 64, 68
2,137109, Control_c, 0, 64, 62
2,137129, Control_c, 0, 64, 61
2,137134, Note_on_c, 0, 66, 0
2,137148, Control_c, 0, 64, 63
2,137152, Note_on_c, 0, 56, 64
2,137152, Note_on_c, 0, 68, 47
2,137166, Note_on_c, 0, 51, 0
2,137167, Control_c, 0, 64, 65
2,137186, Control_c, 0, 64, 68
2,137205, Note_on_c, 0, 44, 0
2,137206, Control_c, 0, 64, 76
2,137225, Control_c, 0, 64, 86
2,137243, Control_c, 0, 64, 99
2,137263, Control_c, 0, 64, 127
2,137336, Note_on_c, 0, 72, 0
2,137384, Note_on_c, 0, 68, 0
2,137414, Note_on_c, 0, 69, 66
2,137694, Note_on_c, 0, 56, 0
2,137696, Note_on_c, 0, 76, 75
2,137704, Note_on_c, 0, 69, 0
2,137719, Note_on_c, 0, 68, 58
2,137723, Control_c, 0, 64, 105
2,137730, Note_on_c, 0, 61, 47
2,137743, Control_c, 0, 64, 76
2,137762, Control_c, 0, 64, 60
2,137782, Control_c, 0, 64, 36
2,137800, Control_c, 0, 64, 0
2,137877, Control_c, 0, 64, 31
2,137897, Control_c, 0, 64, 56
2,137898, Note_on_c, 0, 68, 0
2,137916, Control_c, 0, 64, 63
2,137935, Control_c, 0, 64, 66
2,137954, Control_c, 0, 64, 69
2,137963, Note_on_c, 0, 61, 0
2,137974, Control_c, 0, 64, 74
2,137982, Note_on_c, 0, 66, 67
2,137992, Control_c, 0, 64, 82
2,138012, Control_c, 0, 64, 90
2,138031, Control_c, 0, 64, 109
2,138051, Control_c, 0, 64, 127
2,138223, Control_c, 0, 64, 97
2,138226, Note_on_c, 0, 64, 66
2,138232, Note_on_c, 0, 61, 68
2,138242, Control_c, 0, 64, 74
2,138262, Control_c, 0, 64, 63
2,138273, Note_on_c, 0, 66, 0
2,138280, Control_c, 0, 64, 60
2,138300, Control_c, 0, 64, 61
2,138319, Control_c, 0, 64, 64
2,138337, Note_on_c, 0, 76, 0
2,138338, Control_c, 0, 64, 68
2,138357, Control_c, 0, 64, 75
2,138377, Control_c, 0, 64, 89
2,138396, Control_c, 0, 64, 116
2,138415, Control_c, 0, 64, 127
2,138490, Note_on_c, 0, 68, 80
2,138491, Note_on_c, 0, 61, 0
2,138550, Note_on_c, 0, 64, 0
2,138780, Note_on_c, 0, 75, 82
2,138805, Note_on_c, 0, 68, 0
2,138814, Note_on_c, 0, 66, 52
2,138818, Note_on_c, 0, 61, 53
2,138873, Control_c, 0, 64, 97
2,138892, Control_c, 0, 64, 71
2,138911, Control_c, 0, 64, 57
2,138931, Control_c, 0, 64, 13
2,138950, Control_c, 0, 64, 0
2,139008, Control_c, 0, 64, 48
2,139027, Control_c, 0, 64, 60
2,139046, Control_c, 0, 64, 64
2,139065, Control_c, 0, 64, 66
2,139073, Note_on_c, 0, 64, 69
2,139085, Control_c, 0, 64, 68
2,139087, Note_on_c, 0, 66, 0
2,139103, Control_c, 0, 64, 70
2,139122, Control_c, 0, 64, 71
2,139199, Control_c, 0, 64, 71
2,139219, Control_c, 0, 64, 70
2,139237, Control_c, 0, 64, 69
2,139257, Control_c, 0, 64, 67
2,139276, Control_c, 0, 64, 65
2,139296, Control_c, 0, 64, 63
2,139314, Control_c, 0, 64, 60
2,139323, Note_on_c, 0, 66, 71
2,139334, Control_c, 0, 64, 55
2,139335, Note_on_c, 0, 61, 0
2,139337, Note_on_c, 0, 60, 58
2,139353, Control_c, 0, 64, 49
2,139359, Note_on_c, 0, 64, 0
2,139372, Control_c, 0, 64, 44
2,139391, Control_c, 0, 64, 41
2,139411, Control_c, 0, 64, 40
2,139468, Control_c, 0, 64, 41
2,139526, Control_c, 0, 64, 40
2,139545, Control_c, 0, 64, 36
2,139564, Control_c, 0, 64, 32
2,139582, Note_on_c, 0, 60, 0
2,139583, Control_c, 0, 64, 27
2,139588, Note_on_c, 0, 58, 61
2,139588, Note_on_c, 0, 68, 74
2,139601, Note_on_c, 0, 66, 0
2,139602, Control_c, 0, 64, 24
2,139622, Control_c, 0, 64, 23
2,139717, Control_c, 0, 64, 21
2,139737, Control_c, 0, 64, 17
2,139756, Control_c, 0, 64, 0
2,139844, Note_on_c, 0, 58, 0
2,139859, Note_on_c, 0, 66, 59
2,139888, Note_on_c, 0, 60, 39
2,139902, Note_on_c, 0, 68, 0
2,140102, Control_c, 0, 64, 9
2,140118, Note_on_c, 0, 75, 0
2,140121, Control_c, 0, 64, 13
2,140134, Note_on_c, 0, 64, 51
2,140140, Control_c, 0, 64, 15
2,140150, Note_on_c, 0, 66, 0
2,140274, Control_c, 0, 64, 17
2,140313, Control_c, 0, 64, 19
2,140332, Control_c, 0, 64, 20
2,140397, Note_on_c, 0, 64, 0
2,140407, Note_on_c, 0, 63, 47
2,140524, Control_c, 0, 64, 21
2,140601, Control_c, 0, 64, 20
2,140620, Control_c, 0, 64, 19
2,140677, Note_on_c, 0, 66, 41
2,140680, Note_on_c, 0, 63, 0
2,140793, Control_c, 0, 64, 18
2,140812, Control_c, 0, 64, 17
2,140831, Control_c, 0, 64, 15
2,140938, Note_on_c, 0, 66, 0
2,140973, Note_on_c, 0, 60, 0
2,140977, Note_on_c, 0, 64, 36
2,140989, Note_on_c, 0, 61, 29
2,141062, Control_c, 0, 64, 13
2,141196, Control_c, 0, 64, 17
2,141216, Control_c, 0, 64, 26
2,141231, Note_on_c, 0, 64, 0
2,141234, Control_c, 0, 64, 38
2,141254, Control_c, 0, 64, 48
2,141255, Note_on_c, 0, 63, 45
2,141273, Control_c, 0, 64, 53
2,141292, Control_c, 0, 64, 56
2,141311, Control_c, 0, 64, 58
2,141331, Control_c, 0, 64, 59
2,141350, Control_c, 0, 64, 60
2,141369, Control_c, 0, 64, 61
2,141388, Control_c, 0, 64, 62
2,141408, Control_c, 0, 64, 63
2,141427, Control_c, 0, 64, 63
2,141446, Control_c, 0, 64, 64
2,141448, Note_on_c, 0, 63, 0
2,141465, Control_c, 0, 64, 65
2,141484, Control_c, 0, 64, 67
2,141502, Note_on_c, 0, 68, 56
2,141504, Control_c, 0, 64, 70
2,141523, Control_c, 0, 64, 74
2,141540, Note_on_c, 0, 64, 36
2,141543, Control_c, 0, 64, 80
2,141562, Control_c, 0, 64, 89
2,141581, Control_c, 0, 64, 99
2,141600, Control_c, 0, 64, 118
2,141620, Control_c, 0, 64, 127
2,141759, Note_on_c, 0, 64, 0
2,141776, Note_on_c, 0, 66, 52
2,141788, Note_on_c, 0, 68, 0
2,141968, Note_on_c, 0, 66, 0
2,141975, Note_on_c, 0, 61, 0
2,142044, Note_on_c, 0, 73, 63
2,142080, Control_c, 0, 64, 104
2,142087, Note_on_c, 0, 57, 40
2,142099, Note_on_c, 0, 64, 35
2,142100, Control_c, 0, 64, 82
2,142118, Control_c, 0, 64, 68
2,142138, Control_c, 0, 64, 55
2,142157, Control_c, 0, 64, 0
2,142234, Control_c, 0, 64, 42
2,142253, Control_c, 0, 64, 58
2,142272, Control_c, 0, 64, 63
2,142292, Control_c, 0, 64, 66
2,142311, Control_c, 0, 64, 70
2,142315, Note_on_c, 0, 64, 0
2,142330, Control_c, 0, 64, 76
2,142333, Note_on_c, 0, 63, 60
2,142334, Note_on_c, 0, 73, 0
2,142349, Control_c, 0, 64, 84
2,142369, Control_c, 0, 64, 96
2,142387, Control_c, 0, 64, 127
2,142443, Note_on_c, 0, 63, 0
2,142583, Note_on_c, 0, 73, 75
2,142603, Note_on_c, 0, 61, 52
2,142616, Control_c, 0, 64, 91
2,142635, Control_c, 0, 64, 71
2,142655, Control_c, 0, 64, 59
2,142673, Control_c, 0, 64, 43
2,142693, Control_c, 0, 64, 35
2,142712, Control_c, 0, 64, 35
2,142732, Control_c, 0, 64, 45
2,142750, Control_c, 0, 64, 58
2,142770, Control_c, 0, 64, 63
2,142789, Control_c, 0, 64, 67
2,142808, Control_c, 0, 64, 71
2,142827, Control_c, 0, 64, 77
2,142841, Note_on_c, 0, 73, 0
2,142847, Control_c, 0, 64, 86
2,142855, Note_on_c, 0, 64, 75
2,142861, Note_on_c, 0, 61, 0
2,142866, Control_c, 0, 64, 92
2,142884, Control_c, 0, 64, 98
2,142904, Control_c, 0, 64, 104
2,142923, Control_c, 0, 64, 127
2,142976, Note_on_c, 0, 64, 0
2,143155, Note_on_c, 0, 73, 79
2,143197, Note_on_c, 0, 63, 49
2,143212, Control_c, 0, 64, 89
2,143212, Note_on_c, 0, 54, 43
2,143232, Control_c, 0, 64, 67
2,143252, Control_c, 0, 64, 50
2,143271, Control_c, 0, 64, 0
2,143309, Note_on_c, 0, 57, 0
2,143329, Control_c, 0, 64, 26
2,143345, Note_on_c, 0, 63, 0
2,143347, Control_c, 0, 64, 51
2,143367, Control_c, 0, 64, 61
2,143386, Control_c, 0, 64, 64
2,143404, Control_c, 0, 64, 67
2,143423, Control_c, 0, 64, 70
2,143442, Control_c, 0, 64, 76
2,143447, Note_on_c, 0, 73, 0
2,143462, Control_c, 0, 64, 83
2,143474, Note_on_c, 0, 61, 60
2,143481, Control_c, 0, 64, 91
2,143500, Control_c, 0, 64, 100
2,143519, Control_c, 0, 64, 123
2,143539, Control_c, 0, 64, 127
2,143542, Note_on_c, 0, 61, 0
2,143712, Note_on_c, 0, 71, 76
2,143731, Control_c, 0, 64, 90
2,143750, Control_c, 0, 64, 68
2,143756, Note_on_c, 0, 63, 39
2,143769, Control_c, 0, 64, 56
2,143788, Control_c, 0, 64, 45
2,143808, Control_c, 0, 64, 46
2,143827, Control_c, 0, 64, 50
2,143846, Control_c, 0, 64, 56
2,143865, Control_c, 0, 64, 61
2,143884, Control_c, 0, 64, 64
2,143887, Note_on_c, 0, 63, 0
2,143903, Control_c, 0, 64, 67
2,143922, Control_c, 0, 64, 71
2,143942, Control_c, 0, 64, 79
2,143961, Control_c, 0, 64, 85
2,143976, Note_on_c, 0, 69, 74
2,143980, Control_c, 0, 64, 87
2,143996, Note_on_c, 0, 64, 55
2,143999, Control_c, 0, 64, 89
2,144002, Note_on_c, 0, 71, 0
2,144019, Control_c, 0, 64, 90
2,144037, Control_c, 0, 64, 91
2,144106, Note_on_c, 0, 64, 0
2,144153, Control_c, 0, 64, 90
2,144172, Control_c, 0, 64, 88
2,144192, Control_c, 0, 64, 84
2,144212, Control_c, 0, 64, 78
2,144231, Control_c, 0, 64, 74
2,144239, Note_on_c, 0, 69, 0
2,144250, Control_c, 0, 64, 70
2,144255, Note_on_c, 0, 71, 63
2,144269, Control_c, 0, 64, 68
2,144278, Note_on_c, 0, 62, 42
2,144288, Note_on_c, 0, 54, 0
2,144289, Control_c, 0, 64, 65
2,144291, Note_on_c, 0, 56, 43
2,144307, Control_c, 0, 64, 63
2,144327, Control_c, 0, 64, 62
2,144346, Control_c, 0, 64, 60
2,144365, Control_c, 0, 64, 59
2,144383, Control_c, 0, 64, 58
2,144402, Control_c, 0, 64, 57
2,144422, Control_c, 0, 64, 56
2,144441, Control_c, 0, 64, 55
2,144460, Control_c, 0, 64, 54
2,144478, Note_on_c, 0, 62, 0
2,144479, Control_c, 0, 64, 53
2,144499, Control_c, 0, 64, 52
2,144517, Control_c, 0, 64, 51
2,144523, Note_on_c, 0, 61, 56
2,144537, Control_c, 0, 64, 50
2,144594, Control_c, 0, 64, 50
2,144614, Control_c, 0, 64, 49
2,144633, Control_c, 0, 64, 48
2,144652, Control_c, 0, 64, 47
2,144671, Control_c, 0, 64, 46
2,144691, Control_c, 0, 64, 43
2,144710, Control_c, 0, 64, 40
2,144729, Control_c, 0, 64, 37
2,144748, Control_c, 0, 64, 34
2,144749, Note_on_c, 0, 61, 0
2,144768, Control_c, 0, 64, 29
2,144787, Control_c, 0, 64, 22
2,144792, Note_on_c, 0, 59, 41
2,144805, Control_c, 0, 64, 0
2,144921, Control_c, 0, 64, 26
2,144940, Control_c, 0, 64, 42
2,144959, Control_c, 0, 64, 55
2,144979, Control_c, 0, 64, 61
2,144997, Control_c, 0, 64, 64
2,144999, Note_on_c, 0, 59, 0
2,145017, Control_c, 0, 64, 65
2,145036, Control_c, 0, 64, 68
2,145052, Note_on_c, 0, 62, 39
2,145056, Control_c, 0, 64, 72
2,145074, Control_c, 0, 64, 77
2,145094, Control_c, 0, 64, 83
2,145113, Control_c, 0, 64, 89
2,145132, Control_c, 0, 64, 94
2,145152, Control_c, 0, 64, 104
2,145172, Control_c, 0, 64, 127
2,145265, Note_on_c, 0, 56, 0
2,145303, Note_on_c, 0, 62, 0
2,145342, Note_on_c, 0, 53, 58
2,145364, Control_c, 0, 64, 89
2,145369, Note_on_c, 0, 61, 39
2,145384, Control_c, 0, 64, 70
2,145402, Control_c, 0, 64, 58
2,145422, Control_c, 0, 64, 47
2,145441, Control_c, 0, 64, 46
2,145461, Control_c, 0, 64, 47
2,145479, Control_c, 0, 64, 51
2,145499, Control_c, 0, 64, 58
2,145518, Control_c, 0, 64, 63
2,145518, Note_on_c, 0, 61, 0
2,145537, Control_c, 0, 64, 66
2,145556, Control_c, 0, 64, 70
2,145576, Control_c, 0, 64, 76
2,145595, Control_c, 0, 64, 85
2,145614, Control_c, 0, 64, 94
2,145627, Note_on_c, 0, 59, 64
2,145633, Control_c, 0, 64, 100
2,145653, Control_c, 0, 64, 106
2,145672, Control_c, 0, 64, 116
2,145691, Control_c, 0, 64, 127
2,145874, Note_on_c, 0, 53, 0
2,145878, Note_on_c, 0, 59, 0
2,145882, Control_c, 0, 64, 108
2,145889, Note_on_c, 0, 49, 69
2,145891, Note_on_c, 0, 61, 63
2,145902, Control_c, 0, 64, 79
2,145921, Control_c, 0, 64, 65
2,145941, Control_c, 0, 64, 50
2,145945, Note_on_c, 0, 71, 0
2,145959, Control_c, 0, 64, 29
2,145979, Control_c, 0, 64, 0
2,146056, Control_c, 0, 64, 43
2,146075, Control_c, 0, 64, 59
2,146094, Control_c, 0, 64, 64
2,146113, Control_c, 0, 64, 66
2,146123, Note_on_c, 0, 61, 0
2,146133, Control_c, 0, 64, 69
2,146152, Control_c, 0, 64, 74
2,146157, Note_on_c, 0, 62, 66
2,146171, Control_c, 0, 64, 80
2,146190, Control_c, 0, 64, 87
2,146210, Control_c, 0, 64, 95
2,146228, Control_c, 0, 64, 103
2,146248, Control_c, 0, 64, 123
2,146267, Control_c, 0, 64, 127
2,146401, Control_c, 0, 64, 95
2,146404, Note_on_c, 0, 49, 0
2,146421, Control_c, 0, 64, 73
2,146427, Note_on_c, 0, 69, 76
2,146433, Note_on_c, 0, 54, 58
2,146439, Control_c, 0, 64, 51
2,146448, Note_on_c, 0, 61, 56
2,146450, Note_on_c, 0, 62, 0
2,146459, Control_c, 0, 64, 0
2,146555, Control_c, 0, 64, 52
2,146574, Control_c, 0, 64, 63
2,146593, Control_c, 0, 64, 66
2,146613, Control_c, 0, 64, 70
2,146632, Control_c, 0, 64, 76
2,146637, Note_on_c, 0, 61, 0
2,146651, Control_c, 0, 64, 88
2,146665, Note_on_c, 0, 54, 0
2,146670, Control_c, 0, 64, 118
2,146690, Control_c, 0, 64, 127
2,146702, Note_on_c, 0, 64, 75
2,146939, Control_c, 0, 64, 96
2,146958, Control_c, 0, 64, 71
2,146961, Note_on_c, 0, 63, 73
2,146964, Note_on_c, 0, 54, 78
2,146977, Control_c, 0, 64, 52
2,146996, Control_c, 0, 64, 0
2,147007, Note_on_c, 0, 69, 0
2,147050, Note_on_c, 0, 64, 0
2,147054, Control_c, 0, 64, 29
2,147073, Control_c, 0, 64, 56
2,147093, Control_c, 0, 64, 64
2,147112, Control_c, 0, 64, 70
2,147131, Control_c, 0, 64, 79
2,147149, Note_on_c, 0, 54, 0
2,147150, Control_c, 0, 64, 96
2,147170, Control_c, 0, 64, 127
2,147229, Note_on_c, 0, 61, 86
2,147268, Note_on_c, 0, 63, 0
2,147589, Note_on_c, 0, 68, 91
2,147612, Note_on_c, 0, 61, 0
2,147613, Note_on_c, 0, 60, 63
2,147614, Note_on_c, 0, 56, 68
2,147623, Note_on_c, 0, 54, 68
2,147668, Control_c, 0, 64, 91
2,147688, Control_c, 0, 64, 71
2,147707, Control_c, 0, 64, 58
2,147727, Control_c, 0, 64, 20
2,147748, Control_c, 0, 64, 0
2,147825, Control_c, 0, 64, 25
2,147844, Control_c, 0, 64, 51
2,147864, Control_c, 0, 64, 60
2,147878, Note_on_c, 0, 56, 0
2,147882, Control_c, 0, 64, 63
2,147902, Control_c, 0, 64, 66
2,147921, Control_c, 0, 64, 69
2,147940, Control_c, 0, 64, 75
2,147959, Control_c, 0, 64, 83
2,147962, Note_on_c, 0, 60, 0
2,147979, Control_c, 0, 64, 96
2,147998, Control_c, 0, 64, 127
2,148029, Note_on_c, 0, 54, 0
2,148172, Note_on_c, 0, 52, 75
2,148177, Note_on_c, 0, 44, 69
2,148247, Control_c, 0, 64, 100
2,148267, Control_c, 0, 64, 71
2,148285, Control_c, 0, 64, 51
2,148305, Control_c, 0, 64, 0
2,148426, Note_on_c, 0, 51, 74
2,148439, Control_c, 0, 64, 48
2,148448, Note_on_c, 0, 52, 0
2,148459, Control_c, 0, 64, 61
2,148478, Control_c, 0, 64, 64
2,148496, Control_c, 0, 64, 67
2,148516, Control_c, 0, 64, 71
2,148535, Control_c, 0, 64, 76
2,148555, Control_c, 0, 64, 83
2,148573, Control_c, 0, 64, 91
2,148593, Control_c, 0, 64, 98
2,148612, Control_c, 0, 64, 105
2,148631, Control_c, 0, 64, 109
2,148650, Control_c, 0, 64, 108
2,148670, Control_c, 0, 64, 107
2,148676, Note_on_c, 0, 51, 0
2,148687, Control_c, 0, 64, 106
2,148705, Control_c, 0, 64, 106
2,148708, Note_on_c, 0, 44, 0
2,148724, Control_c, 0, 64, 102
2,148730, Note_on_c, 0, 61, 84
2,148739, Note_on_c, 0, 52, 75
2,148744, Control_c, 0, 64, 89
2,148749, Note_on_c, 0, 49, 68
2,148762, Control_c, 0, 64, 70
2,148782, Control_c, 0, 64, 56
2,148797, Note_on_c, 0, 68, 0
2,148801, Control_c, 0, 64, 27
2,148821, Control_c, 0, 64, 0
2,148974, Control_c, 0, 64, 47
2,148993, Control_c, 0, 64, 62
2,149013, Control_c, 0, 64, 66
2,149017, Note_on_c, 0, 49, 0
2,149032, Control_c, 0, 64, 69
2,149051, Control_c, 0, 64, 78
2,149070, Control_c, 0, 64, 95
2,149090, Control_c, 0, 64, 127
2,149267, Note_on_c, 0, 61, 0
2,149303, Note_on_c, 0, 49, 86
2,149342, Note_on_c, 0, 52, 0
2,149404, Note_on_c, 0, 49, 0
2,149972, Note_on_c, 0, 75, 97
2,149998, Note_on_c, 0, 55, 59
2,150002, Note_on_c, 0, 63, 66
2,150009, Note_on_c, 0, 51, 56
2,150017, Note_on_c, 0, 49, 54
2,150086, Control_c, 0, 64, 77
2,150106, Control_c, 0, 64, 60
2,150125, Control_c, 0, 64, 0
2,150241, Control_c, 0, 64, 42
2,150261, Control_c, 0, 64, 59
2,150279, Control_c, 0, 64, 65
2,150297, Note_on_c, 0, 63, 0
2,150299, Control_c, 0, 64, 69
2,150318, Control_c, 0, 64, 76
2,150337, Control_c, 0, 64, 95
2,150356, Control_c, 0, 64, 127
2,150425, Note_on_c, 0, 49, 0
2,150648, Note_on_c, 0, 63, 83
2,150678, Note_on_c, 0, 47, 62
2,150796, Note_on_c, 0, 55, 0
2,150821, Note_on_c, 0, 51, 0
2,150914, Note_on_c, 0, 46, 72
2,150921, Note_on_c, 0, 47, 0
2,151145, Note_on_c, 0, 46, 0
2,151173, Note_on_c, 0, 68, 83
2,151175, Note_on_c, 0, 47, 47
2,151182, Note_on_c, 0, 56, 61
2,151199, Control_c, 0, 64, 88
2,151218, Control_c, 0, 64, 70
2,151237, Control_c, 0, 64, 61
2,151256, Control_c, 0, 64, 59
2,151285, Note_on_c, 0, 63, 0
2,151313, Control_c, 0, 64, 59
2,151333, Control_c, 0, 64, 58
2,151352, Control_c, 0, 64, 56
2,151371, Control_c, 0, 64, 55
2,151390, Control_c, 0, 64, 54
2,151407, Note_on_c, 0, 47, 0
2,151410, Control_c, 0, 64, 52
2,151420, Note_on_c, 0, 70, 75
2,151422, Note_on_c, 0, 46, 59
2,151429, Control_c, 0, 64, 48
2,151448, Control_c, 0, 64, 45
2,151467, Control_c, 0, 64, 42
2,151487, Control_c, 0, 64, 36
2,151490, Note_on_c, 0, 68, 0
2,151505, Control_c, 0, 64, 20
2,151525, Control_c, 0, 64, 0
2,151635, Note_on_c, 0, 56, 0
2,151639, Note_on_c, 0, 46, 0
2,151671, Note_on_c, 0, 71, 74
2,151703, Note_on_c, 0, 44, 44
2,151728, Note_on_c, 0, 70, 0
2,151774, Control_c, 0, 64, 24
2,151793, Control_c, 0, 64, 57
2,151813, Control_c, 0, 64, 62
2,151832, Control_c, 0, 64, 64
2,151851, Control_c, 0, 64, 67
2,151870, Control_c, 0, 64, 73
2,151890, Control_c, 0, 64, 83
2,151909, Control_c, 0, 64, 108
2,151928, Control_c, 0, 64, 127
2,151941, Note_on_c, 0, 47, 61
2,151948, Note_on_c, 0, 75, 0
2,151981, Note_on_c, 0, 47, 0
2,152054, Note_on_c, 0, 71, 0
2,152230, Note_on_c, 0, 44, 0
2,152251, Note_on_c, 0, 74, 80
2,152273, Control_c, 0, 64, 118
2,152293, Control_c, 0, 64, 79
2,152308, Note_on_c, 0, 53, 41
2,152312, Control_c, 0, 64, 63
2,152319, Note_on_c, 0, 46, 33
2,152331, Control_c, 0, 64, 36
2,152350, Control_c, 0, 64, 0
2,152408, Control_c, 0, 64, 44
2,152427, Control_c, 0, 64, 60
2,152447, Control_c, 0, 64, 64
2,152465, Control_c, 0, 64, 66
2,152485, Control_c, 0, 64, 69
2,152504, Control_c, 0, 64, 73
2,152524, Control_c, 0, 64, 77
2,152542, Control_c, 0, 64, 78
2,152550, Note_on_c, 0, 46, 0
2,152581, Control_c, 0, 64, 77
2,152593, Note_on_c, 0, 44, 58
2,152600, Control_c, 0, 64, 75
2,152619, Control_c, 0, 64, 72
2,152639, Control_c, 0, 64, 69
2,152658, Control_c, 0, 64, 64
2,152677, Control_c, 0, 64, 57
2,152696, Control_c, 0, 64, 43
2,152715, Control_c, 0, 64, 26
2,152734, Control_c, 0, 64, 0
2,152792, Control_c, 0, 64, 26
2,152792, Note_on_c, 0, 44, 0
2,152811, Control_c, 0, 64, 51
2,152830, Control_c, 0, 64, 61
2,152840, Note_on_c, 0, 70, 83
2,152850, Control_c, 0, 64, 65
2,152869, Control_c, 0, 64, 68
2,152870, Note_on_c, 0, 46, 51
2,152888, Control_c, 0, 64, 77
2,152907, Control_c, 0, 64, 90
2,152927, Control_c, 0, 64, 110
2,152945, Control_c, 0, 64, 127
2,152972, Note_on_c, 0, 74, 0
2,153070, Note_on_c, 0, 46, 0
2,153107, Note_on_c, 0, 47, 75
2,153335, Note_on_c, 0, 53, 0
2,153366, Note_on_c, 0, 78, 88
2,153383, Note_on_c, 0, 75, 73
2,153404, Note_on_c, 0, 46, 60
2,153407, Control_c, 0, 64, 94
2,153409, Note_on_c, 0, 70, 0
2,153425, Control_c, 0, 64, 70
2,153445, Control_c, 0, 64, 51
2,153464, Control_c, 0, 64, 17
2,153472, Note_on_c, 0, 47, 0
2,153484, Control_c, 0, 64, 0
2,153560, Control_c, 0, 64, 13
2,153579, Control_c, 0, 64, 53
2,153599, Control_c, 0, 64, 63
2,153618, Control_c, 0, 64, 66
2,153637, Control_c, 0, 64, 71
2,153649, Note_on_c, 0, 46, 0
2,153656, Control_c, 0, 64, 78
2,153656, Note_on_c, 0, 75, 0
2,153658, Note_on_c, 0, 44, 72
2,153675, Control_c, 0, 64, 88
2,153694, Control_c, 0, 64, 103
2,153713, Control_c, 0, 64, 127
2,153897, Note_on_c, 0, 44, 0
2,153921, Note_on_c, 0, 75, 88
2,153943, Control_c, 0, 64, 102
2,153944, Note_on_c, 0, 42, 58
2,153963, Control_c, 0, 64, 72
2,153979, Control_c, 0, 64, 56
2,153999, Control_c, 0, 64, 0
2,154056, Control_c, 0, 64, 24
2,154075, Control_c, 0, 64, 51
2,154089, Note_on_c, 0, 78, 0
2,154095, Control_c, 0, 64, 62
2,154114, Control_c, 0, 64, 65
2,154133, Control_c, 0, 64, 70
2,154152, Control_c, 0, 64, 77
2,154172, Control_c, 0, 64, 87
2,154190, Control_c, 0, 64, 103
2,154192, Note_on_c, 0, 46, 73
2,154195, Note_on_c, 0, 42, 0
2,154210, Control_c, 0, 64, 127
2,154233, Note_on_c, 0, 75, 0
2,154491, Note_on_c, 0, 77, 85
2,154515, Note_on_c, 0, 75, 70
2,154534, Note_on_c, 0, 44, 51
2,154594, Control_c, 0, 64, 86
2,154613, Control_c, 0, 64, 70
2,154632, Control_c, 0, 64, 62
2,154633, Note_on_c, 0, 46, 0
2,154652, Control_c, 0, 64, 59
2,154670, Control_c, 0, 64, 59
2,154690, Control_c, 0, 64, 57
2,154709, Control_c, 0, 64, 56
2,154729, Control_c, 0, 64, 55
2,154787, Note_on_c, 0, 42, 68
2,154804, Note_on_c, 0, 44, 0
2,154807, Control_c, 0, 64, 54
2,154826, Control_c, 0, 64, 53
2,154846, Control_c, 0, 64, 51
2,154864, Control_c, 0, 64, 50
2,154884, Control_c, 0, 64, 49
2,154903, Control_c, 0, 64, 48
2,154940, Control_c, 0, 64, 49
2,154960, Control_c, 0, 64, 50
2,154979, Control_c, 0, 64, 51
2,155055, Note_on_c, 0, 73, 73
2,155056, Control_c, 0, 64, 50
2,155067, Note_on_c, 0, 44, 53
2,155094, Control_c, 0, 64, 50
2,155107, Note_on_c, 0, 42, 0
2,155171, Control_c, 0, 64, 50
2,155176, Note_on_c, 0, 75, 0
2,155190, Control_c, 0, 64, 51
2,155210, Control_c, 0, 64, 51
2,155285, Note_on_c, 0, 44, 0
2,155320, Note_on_c, 0, 72, 72
2,155323, Note_on_c, 0, 46, 53
2,155337, Note_on_c, 0, 73, 0
2,155382, Control_c, 0, 64, 52
2,155402, Control_c, 0, 64, 52
2,155440, Control_c, 0, 64, 53
2,155459, Control_c, 0, 64, 52
2,155539, Note_on_c, 0, 46, 0
2,155572, Note_on_c, 0, 76, 72
2,155584, Note_on_c, 0, 44, 38
2,155593, Control_c, 0, 64, 53
2,155601, Note_on_c, 0, 72, 0
2,155606, Note_on_c, 0, 73, 49
2,155613, Control_c, 0, 64, 53
2,155670, Control_c, 0, 64, 53
2,155690, Control_c, 0, 64, 52
2,155692, Note_on_c, 0, 77, 0
2,155821, Note_on_c, 0, 44, 0
2,155840, Note_on_c, 0, 47, 54
2,155847, Control_c, 0, 64, 53
2,155866, Control_c, 0, 64, 52
2,155901, Control_c, 0, 64, 52
2,156055, Control_c, 0, 64, 51
2,156103, Note_on_c, 0, 47, 0
2,156106, Note_on_c, 0, 46, 58
2,156132, Control_c, 0, 64, 51
2,156286, Control_c, 0, 64, 50
2,156324, Control_c, 0, 64, 50
2,156343, Control_c, 0, 64, 49
2,156355, Note_on_c, 0, 46, 0
2,156369, Note_on_c, 0, 44, 53
2,156554, Control_c, 0, 64, 49
2,156654, Note_on_c, 0, 44, 0
2,156692, Note_on_c, 0, 73, 0
2,156701, Note_on_c, 0, 75, 57
2,156710, Note_on_c, 0, 43, 51
2,156747, Control_c, 0, 64, 48
2,156749, Note_on_c, 0, 76, 0
2,156882, Control_c, 0, 64, 48
2,156901, Control_c, 0, 64, 47
2,156920, Control_c, 0, 64, 46
2,156939, Control_c, 0, 64, 45
2,156950, Note_on_c, 0, 75, 0
2,156959, Control_c, 0, 64, 45
2,156968, Note_on_c, 0, 73, 56
2,156978, Control_c, 0, 64, 44
2,157016, Control_c, 0, 64, 44
2,157035, Control_c, 0, 64, 43
2,157054, Control_c, 0, 64, 42
2,157073, Control_c, 0, 64, 41
2,157093, Control_c, 0, 64, 39
2,157112, Control_c, 0, 64, 38
2,157189, Control_c, 0, 64, 40
2,157208, Control_c, 0, 64, 44
2,157227, Control_c, 0, 64, 51
2,157245, Note_on_c, 0, 51, 58
2,157247, Control_c, 0, 64, 57
2,157254, Note_on_c, 0, 75, 57
2,157265, Control_c, 0, 64, 61
2,157285, Control_c, 0, 64, 63
2,157304, Control_c, 0, 64, 65
2,157308, Note_on_c, 0, 73, 0
2,157324, Control_c, 0, 64, 66
2,157342, Control_c, 0, 64, 70
2,157362, Control_c, 0, 64, 75
2,157381, Control_c, 0, 64, 83
2,157400, Control_c, 0, 64, 94
2,157404, Note_on_c, 0, 43, 0
2,157419, Control_c, 0, 64, 117
2,157439, Control_c, 0, 64, 127
2,157508, Note_on_c, 0, 76, 66
2,157512, Note_on_c, 0, 75, 0
2,157779, Note_on_c, 0, 56, 62
2,157785, Note_on_c, 0, 75, 66
2,157787, Note_on_c, 0, 71, 56
2,157802, Control_c, 0, 64, 119
2,157811, Note_on_c, 0, 44, 47
2,157819, Control_c, 0, 64, 81
2,157835, Note_on_c, 0, 51, 0
2,157836, Note_on_c, 0, 76, 0
2,157839, Control_c, 0, 64, 62
2,157858, Control_c, 0, 64, 9
2,157878, Control_c, 0, 64, 0
2,157973, Control_c, 0, 64, 52
2,157992, Control_c, 0, 64, 61
2,158012, Control_c, 0, 64, 64
2,158030, Control_c, 0, 64, 66
2,158050, Control_c, 0, 64, 70
2,158064, Note_on_c, 0, 73, 71
2,158066, Note_on_c, 0, 45, 59
2,158069, Control_c, 0, 64, 77
2,158089, Control_c, 0, 64, 93
2,158104, Note_on_c, 0, 56, 0
2,158107, Control_c, 0, 64, 127
2,158116, Note_on_c, 0, 71, 0
2,158127, Note_on_c, 0, 75, 0
2,158208, Note_on_c, 0, 45, 0
2,158236, Note_on_c, 0, 44, 0
2,158304, Note_on_c, 0, 71, 74
2,158325, Note_on_c, 0, 56, 78
2,158345, Note_on_c, 0, 73, 0
2,158358, Control_c, 0, 64, 103
2,158376, Control_c, 0, 64, 70
2,158395, Control_c, 0, 64, 44
2,158415, Control_c, 0, 64, 0
2,158434, Control_c, 0, 64, 18
2,158453, Control_c, 0, 64, 51
2,158472, Control_c, 0, 64, 64
2,158492, Control_c, 0, 64, 70
2,158510, Control_c, 0, 64, 84
2,158530, Control_c, 0, 64, 127
2,158576, Note_on_c, 0, 75, 84
2,158594, Note_on_c, 0, 56, 0
2,158594, Note_on_c, 0, 71, 0
2,158893, Note_on_c, 0, 56, 80
2,158895, Note_on_c, 0, 73, 68
2,158903, Note_on_c, 0, 70, 63
2,158911, Note_on_c, 0, 75, 0
2,158933, Note_on_c, 0, 46, 57
2,158990, Control_c, 0, 64, 102
2,159010, Control_c, 0, 64, 70
2,159029, Control_c, 0, 64, 46
2,159049, Control_c, 0, 64, 0
2,159125, Control_c, 0, 64, 23
2,159144, Control_c, 0, 64, 52
2,159164, Control_c, 0, 64, 62
2,159180, Note_on_c, 0, 71, 73
2,159183, Control_c, 0, 64, 66
2,159199, Note_on_c, 0, 73, 0
2,159202, Control_c, 0, 64, 70
2,159221, Control_c, 0, 64, 79
2,159241, Control_c, 0, 64, 97
2,159259, Control_c, 0, 64, 127
2,159413, Control_c, 0, 64, 87
2,159432, Control_c, 0, 64, 66
2,159439, Note_on_c, 0, 54, 67
2,159441, Note_on_c, 0, 73, 78
2,159452, Control_c, 0, 64, 54
2,159470, Control_c, 0, 64, 51
2,159490, Control_c, 0, 64, 58
2,159490, Note_on_c, 0, 71, 0
2,159509, Control_c, 0, 64, 63
2,159529, Control_c, 0, 64, 67
2,159532, Note_on_c, 0, 56, 0
2,159549, Control_c, 0, 64, 74
2,159569, Control_c, 0, 64, 87
2,159588, Control_c, 0, 64, 121
2,159607, Control_c, 0, 64, 127
2,159697, Note_on_c, 0, 75, 88
2,159698, Note_on_c, 0, 52, 70
2,159703, Note_on_c, 0, 54, 0
2,159739, Note_on_c, 0, 73, 0
2,159748, Note_on_c, 0, 70, 0
2,159973, Control_c, 0, 64, 102
2,159981, Note_on_c, 0, 73, 83
2,159992, Control_c, 0, 64, 83
2,160001, Note_on_c, 0, 69, 64
2,160011, Control_c, 0, 64, 73
2,160016, Note_on_c, 0, 51, 46
2,160019, Note_on_c, 0, 75, 0
2,160024, Note_on_c, 0, 54, 46
2,160030, Control_c, 0, 64, 67
2,160050, Control_c, 0, 64, 61
2,160066, Note_on_c, 0, 46, 0
2,160069, Control_c, 0, 64, 49
2,160088, Control_c, 0, 64, 9
2,160090, Note_on_c, 0, 52, 0
2,160107, Control_c, 0, 64, 0
2,160246, Note_on_c, 0, 76, 79
2,160281, Note_on_c, 0, 73, 0
2,160453, Control_c, 0, 64, 15
2,160472, Control_c, 0, 64, 41
2,160491, Control_c, 0, 64, 55
2,160507, Note_on_c, 0, 75, 79
2,160508, Control_c, 0, 64, 63
2,160528, Control_c, 0, 64, 66
2,160547, Control_c, 0, 64, 69
2,160547, Note_on_c, 0, 76, 0
2,160566, Control_c, 0, 64, 75
2,160585, Control_c, 0, 64, 86
2,160605, Control_c, 0, 64, 110
2,160624, Control_c, 0, 64, 127
2,160769, Note_on_c, 0, 73, 84
2,160778, Note_on_c, 0, 75, 0
2,160833, Note_on_c, 0, 69, 0
2,160879, Note_on_c, 0, 51, 0
2,160986, Note_on_c, 0, 54, 0
2,161000, Note_on_c, 0, 44, 49
2,161123, Control_c, 0, 64, 103
2,161137, Note_on_c, 0, 72, 84
2,161137, Note_on_c, 0, 73, 0
2,161142, Control_c, 0, 64, 81
2,161162, Control_c, 0, 64, 67
2,161180, Control_c, 0, 64, 36
2,161200, Control_c, 0, 64, 0
2,161314, Control_c, 0, 64, 36
2,161334, Control_c, 0, 64, 53
2,161353, Control_c, 0, 64, 60
2,161364, Note_on_c, 0, 44, 0
2,161373, Control_c, 0, 64, 65
2,161391, Control_c, 0, 64, 72
2,161411, Control_c, 0, 64, 87
2,161430, Control_c, 0, 64, 127
2,161468, Note_on_c, 0, 57, 68
2,161682, Note_on_c, 0, 57, 0
2,161729, Note_on_c, 0, 63, 83
2,161736, Note_on_c, 0, 56, 60
2,161777, Control_c, 0, 64, 104
2,161795, Control_c, 0, 64, 75
2,161815, Control_c, 0, 64, 62
2,161834, Control_c, 0, 64, 28
2,161854, Control_c, 0, 64, 0
2,161872, Control_c, 0, 64, 20
2,161892, Control_c, 0, 64, 49
2,161911, Control_c, 0, 64, 59
2,161930, Control_c, 0, 64, 62
2,161949, Control_c, 0, 64, 64
2,161966, Note_on_c, 0, 56, 0
2,161969, Control_c, 0, 64, 66
2,161988, Control_c, 0, 64, 69
2,162001, Note_on_c, 0, 54, 67
2,162007, Control_c, 0, 64, 76
2,162026, Control_c, 0, 64, 88
2,162046, Control_c, 0, 64, 106
2,162064, Control_c, 0, 64, 127
2,162200, Note_on_c, 0, 54, 0
2,162229, Note_on_c, 0, 63, 0
2,162259, Note_on_c, 0, 71, 84
2,162275, Control_c, 0, 64, 83
2,162275, Note_on_c, 0, 53, 59
2,162283, Note_on_c, 0, 68, 66
2,162291, Note_on_c, 0, 72, 0
2,162295, Control_c, 0, 64, 66
2,162314, Control_c, 0, 64, 49
2,162334, Control_c, 0, 64, 0
2,162432, Control_c, 0, 64, 25
2,162452, Control_c, 0, 64, 54
2,162471, Control_c, 0, 64, 61
2,162490, Control_c, 0, 64, 63
2,162509, Control_c, 0, 64, 66
2,162513, Note_on_c, 0, 51, 67
2,162528, Control_c, 0, 64, 76
2,162534, Note_on_c, 0, 53, 0
2,162547, Control_c, 0, 64, 100
2,162555, Note_on_c, 0, 68, 0
2,162566, Control_c, 0, 64, 127
2,162774, Note_on_c, 0, 51, 0
2,162777, Control_c, 0, 64, 87
2,162795, Note_on_c, 0, 68, 88
2,162796, Control_c, 0, 64, 66
2,162814, Note_on_c, 0, 53, 62
2,162816, Control_c, 0, 64, 35
2,162834, Control_c, 0, 64, 0
2,162893, Note_on_c, 0, 71, 0
2,162911, Control_c, 0, 64, 19
2,162931, Control_c, 0, 64, 54
2,162950, Control_c, 0, 64, 60
2,162968, Control_c, 0, 64, 63
2,162988, Control_c, 0, 64, 67
2,163007, Control_c, 0, 64, 75
2,163027, Control_c, 0, 64, 99
2,163039, Note_on_c, 0, 49, 79
2,163045, Control_c, 0, 64, 127
2,163058, Note_on_c, 0, 68, 0
2,163110, Note_on_c, 0, 53, 0
2,163347, Note_on_c, 0, 70, 85
2,163362, Note_on_c, 0, 68, 76
2,163371, Note_on_c, 0, 54, 58
2,163391, Control_c, 0, 64, 84
2,163411, Control_c, 0, 64, 65
2,163430, Control_c, 0, 64, 0
2,163450, Note_on_c, 0, 49, 0
2,163584, Control_c, 0, 64, 48
2,163603, Control_c, 0, 64, 58
2,163623, Control_c, 0, 64, 62
2,163632, Note_on_c, 0, 54, 0
2,163640, Note_on_c, 0, 53, 70
2,163642, Control_c, 0, 64, 64
2,163661, Control_c, 0, 64, 66
2,163680, Control_c, 0, 64, 72
2,163700, Control_c, 0, 64, 85
2,163718, Control_c, 0, 64, 116
2,163738, Control_c, 0, 64, 127
2,163888, Note_on_c, 0, 66, 80
2,163894, Note_on_c, 0, 54, 70
2,163925, Note_on_c, 0, 53, 0
2,163960, Note_on_c, 0, 68, 0
2,164108, Note_on_c, 0, 70, 0
2,164122, Control_c, 0, 64, 110
2,164132, Note_on_c, 0, 54, 0
2,164136, Note_on_c, 0, 65, 80
2,164141, Control_c, 0, 64, 90
2,164141, Note_on_c, 0, 56, 77
2,164160, Control_c, 0, 64, 80
2,164174, Note_on_c, 0, 66, 0
2,164180, Control_c, 0, 64, 73
2,164198, Control_c, 0, 64, 70
2,164218, Control_c, 0, 64, 67
2,164237, Control_c, 0, 64, 66
2,164257, Control_c, 0, 64, 64
2,164275, Control_c, 0, 64, 62
2,164295, Control_c, 0, 64, 59
2,164314, Control_c, 0, 64, 58
2,164333, Control_c, 0, 64, 57
2,164352, Control_c, 0, 64, 57
2,164372, Control_c, 0, 64, 55
2,164389, Note_on_c, 0, 56, 0
2,164389, Note_on_c, 0, 69, 83
2,164391, Control_c, 0, 64, 49
2,164410, Control_c, 0, 64, 41
2,164411, Note_on_c, 0, 66, 69
2,164420, Note_on_c, 0, 65, 0
2,164422, Note_on_c, 0, 57, 69
2,164429, Control_c, 0, 64, 29
2,164448, Control_c, 0, 64, 13
2,164467, Control_c, 0, 64, 0
2,164669, Note_on_c, 0, 56, 81
2,164671, Note_on_c, 0, 57, 0
2,164914, Note_on_c, 0, 56, 0
2,164947, Note_on_c, 0, 57, 80
2,165024, Control_c, 0, 64, 39
2,165043, Control_c, 0, 64, 57
2,165063, Control_c, 0, 64, 64
2,165082, Control_c, 0, 64, 68
2,165101, Control_c, 0, 64, 75
2,165120, Control_c, 0, 64, 100
2,165137, Note_on_c, 0, 57, 0
2,165140, Control_c, 0, 64, 127
2,165191, Note_on_c, 0, 69, 0
2,165208, Note_on_c, 0, 59, 82
2,165592, Note_on_c, 0, 37, 95
2,165596, Note_on_c, 0, 68, 80
2,165611, Note_on_c, 0, 61, 67
2,165674, Control_c, 0, 64, 107
2,165694, Control_c, 0, 64, 83
2,165696, Note_on_c, 0, 59, 0
2,165712, Control_c, 0, 64, 74
2,165732, Control_c, 0, 64, 68
2,165751, Control_c, 0, 64, 65
2,165770, Control_c, 0, 64, 63
2,165789, Control_c, 0, 64, 61
2,165809, Control_c, 0, 64, 57
2,165828, Control_c, 0, 64, 49
2,165847, Control_c, 0, 64, 34
2,165866, Control_c, 0, 64, 0
2,165971, Note_on_c, 0, 60, 77
2,165971, Note_on_c, 0, 61, 0
2,166254, Note_on_c, 0, 61, 76
2,166308, Note_on_c, 0, 60, 0
2,166507, Note_on_c, 0, 63, 79
2,166565, Note_on_c, 0, 61, 0
2,166806, Note_on_c, 0, 64, 84
2,166812, Note_on_c, 0, 63, 0
2,166824, Note_on_c, 0, 66, 0
2,167067, Note_on_c, 0, 63, 76
2,167115, Control_c, 0, 64, 36
2,167123, Note_on_c, 0, 64, 0
2,167135, Control_c, 0, 64, 50
2,167153, Control_c, 0, 64, 48
2,167173, Control_c, 0, 64, 44
2,167192, Control_c, 0, 64, 44
2,167211, Control_c, 0, 64, 49
2,167229, Control_c, 0, 64, 56
2,167249, Control_c, 0, 64, 61
2,167268, Control_c, 0, 64, 63
2,167287, Control_c, 0, 64, 64
2,167306, Control_c, 0, 64, 65
2,167326, Control_c, 0, 64, 68
2,167326, Note_on_c, 0, 64, 72
2,167328, Note_on_c, 0, 63, 0
2,167344, Control_c, 0, 64, 71
2,167364, Control_c, 0, 64, 75
2,167383, Control_c, 0, 64, 78
2,167402, Control_c, 0, 64, 80
2,167420, Control_c, 0, 64, 80
2,167440, Control_c, 0, 64, 82
2,167459, Control_c, 0, 64, 86
2,167478, Control_c, 0, 64, 93
2,167497, Control_c, 0, 64, 104
2,167516, Control_c, 0, 64, 127
2,167592, Note_on_c, 0, 66, 79
2,167616, Note_on_c, 0, 64, 0
2,167617, Note_on_c, 0, 68, 0
2,167870, Note_on_c, 0, 37, 0
2,167912, Note_on_c, 0, 66, 0
2,167915, Note_on_c, 0, 36, 82
2,167917, Note_on_c, 0, 68, 76
2,167927, Note_on_c, 0, 63, 62
2,167977, Control_c, 0, 64, 91
2,167996, Control_c, 0, 64, 70
2,168016, Control_c, 0, 64, 55
2,168034, Control_c, 0, 64, 0
2,168150, Control_c, 0, 64, 44
2,168170, Control_c, 0, 64, 61
2,168189, Control_c, 0, 64, 65
2,168209, Control_c, 0, 64, 68
2,168228, Control_c, 0, 64, 72
2,168243, Note_on_c, 0, 66, 68
2,168247, Control_c, 0, 64, 77
2,168247, Note_on_c, 0, 68, 0
2,168266, Control_c, 0, 64, 85
2,168286, Control_c, 0, 64, 100
2,168304, Control_c, 0, 64, 127
2,168497, Control_c, 0, 64, 82
2,168514, Note_on_c, 0, 44, 70
2,168515, Control_c, 0, 64, 65
2,168520, Note_on_c, 0, 68, 70
2,168535, Control_c, 0, 64, 55
2,168554, Control_c, 0, 64, 50
2,168574, Control_c, 0, 64, 55
2,168580, Note_on_c, 0, 66, 0
2,168592, Control_c, 0, 64, 62
2,168612, Control_c, 0, 64, 66
2,168631, Control_c, 0, 64, 73
2,168647, Control_c, 0, 64, 84
2,168666, Control_c, 0, 64, 100
2,168686, Control_c, 0, 64, 127
2,168712, Note_on_c, 0, 63, 0
2,168778, Note_on_c, 0, 69, 73
2,168790, Note_on_c, 0, 68, 0
2,168939, Note_on_c, 0, 44, 0
2,169033, Note_on_c, 0, 68, 81
2,169042, Note_on_c, 0, 49, 83
2,169051, Control_c, 0, 64, 99
2,169052, Note_on_c, 0, 40, 70
2,169060, Note_on_c, 0, 61, 59
2,169066, Note_on_c, 0, 69, 0
2,169070, Control_c, 0, 64, 72
2,169089, Control_c, 0, 64, 57
2,169096, Note_on_c, 0, 36, 0
2,169109, Control_c, 0, 64, 0
2,169222, Control_c, 0, 64, 48
2,169242, Control_c, 0, 64, 63
2,169261, Control_c, 0, 64, 68
2,169280, Control_c, 0, 64, 76
2,169299, Control_c, 0, 64, 91
2,169319, Control_c, 0, 64, 127
2,169323, Note_on_c, 0, 66, 77
2,169338, Note_on_c, 0, 49, 0
2,169358, Note_on_c, 0, 68, 0
2,169549, Control_c, 0, 64, 104
2,169568, Control_c, 0, 64, 72
2,169572, Note_on_c, 0, 64, 76
2,169584, Note_on_c, 0, 49, 85
2,169587, Control_c, 0, 64, 56
2,169592, Note_on_c, 0, 66, 0
2,169600, Note_on_c, 0, 61, 0
2,169607, Control_c, 0, 64, 0
2,169683, Control_c, 0, 64, 55
2,169702, Control_c, 0, 64, 64
2,169705, Note_on_c, 0, 40, 0
2,169722, Control_c, 0, 64, 68
2,169741, Control_c, 0, 64, 73
2,169746, Note_on_c, 0, 49, 0
2,169760, Control_c, 0, 64, 82
2,169779, Control_c, 0, 64, 90
2,169799, Control_c, 0, 64, 99
2,169817, Control_c, 0, 64, 127
2,169846, Note_on_c, 0, 68, 86
2,169864, Note_on_c, 0, 64, 0
2,170163, Note_on_c, 0, 66, 70
2,170170, Note_on_c, 0, 49, 87
2,170171, Note_on_c, 0, 63, 56
2,170179, Note_on_c, 0, 68, 0
2,170201, Note_on_c, 0, 39, 70
2,170205, Control_c, 0, 64, 121
2,170224, Control_c, 0, 64, 81
2,170243, Control_c, 0, 64, 67
2,170262, Control_c, 0, 64, 62
2,170282, Control_c, 0, 64, 59
2,170299, Control_c, 0, 64, 55
2,170318, Control_c, 0, 64, 45
2,170338, Control_c, 0, 64, 0
2,170455, Note_on_c, 0, 64, 70
2,170457, Note_on_c, 0, 66, 0
2,170510, Control_c, 0, 64, 54
2,170530, Control_c, 0, 64, 63
2,170549, Control_c, 0, 64, 66
2,170569, Control_c, 0, 64, 71
2,170587, Control_c, 0, 64, 81
2,170607, Control_c, 0, 64, 101
2,170626, Control_c, 0, 64, 127
2,170657, Note_on_c, 0, 49, 0
2,170709, Note_on_c, 0, 48, 69
2,170716, Note_on_c, 0, 66, 74
2,170749, Note_on_c, 0, 64, 0
2,170856, Control_c, 0, 64, 99
2,170875, Control_c, 0, 64, 85
2,170895, Control_c, 0, 64, 76
2,170914, Control_c, 0, 64, 70
2,170933, Control_c, 0, 64, 67
2,170952, Control_c, 0, 64, 66
2,170969, Note_on_c, 0, 46, 68
2,170970, Note_on_c, 0, 68, 78
2,170972, Control_c, 0, 64, 65
2,170982, Note_on_c, 0, 66, 0
2,170990, Control_c, 0, 64, 64
2,170996, Note_on_c, 0, 48, 0
2,171010, Control_c, 0, 64, 63
2,171029, Control_c, 0, 64, 62
2,171049, Control_c, 0, 64, 59
2,171067, Control_c, 0, 64, 56
2,171087, Control_c, 0, 64, 53
2,171106, Control_c, 0, 64, 49
2,171125, Control_c, 0, 64, 45
2,171144, Control_c, 0, 64, 40
2,171164, Control_c, 0, 64, 28
2,171183, Control_c, 0, 64, 0
2,171249, Note_on_c, 0, 66, 71
2,171260, Note_on_c, 0, 48, 62
2,171263, Note_on_c, 0, 46, 0
2,171269, Note_on_c, 0, 63, 0
2,171274, Note_on_c, 0, 68, 0
2,171505, Note_on_c, 0, 64, 69
2,171516, Note_on_c, 0, 66, 0
2,171643, Control_c, 0, 64, 35
2,171662, Control_c, 0, 64, 41
2,171681, Control_c, 0, 64, 43
2,171700, Control_c, 0, 64, 46
2,171720, Control_c, 0, 64, 52
2,171739, Control_c, 0, 64, 59
2,171747, Note_on_c, 0, 64, 0
2,171757, Control_c, 0, 64, 62
2,171777, Control_c, 0, 64, 65
2,171778, Note_on_c, 0, 63, 63
2,171796, Control_c, 0, 64, 67
2,171815, Control_c, 0, 64, 72
2,171834, Control_c, 0, 64, 79
2,171854, Control_c, 0, 64, 93
2,171873, Control_c, 0, 64, 127
2,171897, Note_on_c, 0, 48, 0
2,171944, Note_on_c, 0, 39, 0
2,172045, Note_on_c, 0, 63, 0
2,172045, Note_on_c, 0, 66, 75
2,172121, Note_on_c, 0, 66, 0
2,172353, Note_on_c, 0, 49, 62
2,172372, Note_on_c, 0, 37, 58
2,172415, Note_on_c, 0, 73, 86
2,172429, Control_c, 0, 64, 92
2,172445, Note_on_c, 0, 64, 63
2,172449, Control_c, 0, 64, 67
2,172468, Control_c, 0, 64, 39
2,172488, Control_c, 0, 64, 0
2,172583, Control_c, 0, 64, 39
2,172603, Control_c, 0, 64, 59
2,172622, Control_c, 0, 64, 63
2,172641, Control_c, 0, 64, 66
2,172660, Control_c, 0, 64, 71
2,172679, Control_c, 0, 64, 78
2,172699, Control_c, 0, 64, 94
2,172700, Note_on_c, 0, 64, 0
2,172717, Control_c, 0, 64, 127
2,172734, Note_on_c, 0, 37, 0
2,172739, Note_on_c, 0, 63, 70
2,172953, Note_on_c, 0, 63, 0
2,172968, Control_c, 0, 64, 91
2,172985, Note_on_c, 0, 64, 64
2,172986, Control_c, 0, 64, 67
2,173001, Note_on_c, 0, 37, 68
2,173006, Control_c, 0, 64, 45
2,173025, Control_c, 0, 64, 0
2,173083, Control_c, 0, 64, 50
2,173102, Control_c, 0, 64, 61
2,173121, Control_c, 0, 64, 65
2,173140, Control_c, 0, 64, 67
2,173159, Control_c, 0, 64, 70
2,173180, Control_c, 0, 64, 72
2,173198, Control_c, 0, 64, 73
2,173218, Control_c, 0, 64, 73
2,173237, Control_c, 0, 64, 71
2,173246, Note_on_c, 0, 66, 70
2,173256, Control_c, 0, 64, 69
2,173262, Note_on_c, 0, 64, 0
2,173275, Control_c, 0, 64, 66
2,173275, Note_on_c, 0, 39, 67
2,173295, Control_c, 0, 64, 63
2,173314, Control_c, 0, 64, 60
2,173314, Note_on_c, 0, 37, 0
2,173333, Control_c, 0, 64, 58
2,173352, Control_c, 0, 64, 56
2,173372, Control_c, 0, 64, 53
2,173390, Control_c, 0, 64, 50
2,173410, Control_c, 0, 64, 48
2,173429, Control_c, 0, 64, 46
2,173449, Control_c, 0, 64, 44
2,173467, Control_c, 0, 64, 42
2,173487, Control_c, 0, 64, 39
2,173506, Control_c, 0, 64, 34
2,173508, Note_on_c, 0, 40, 66
2,173511, Note_on_c, 0, 64, 66
2,173516, Note_on_c, 0, 66, 0
2,173525, Control_c, 0, 64, 27
2,173543, Note_on_c, 0, 39, 0
2,173544, Control_c, 0, 64, 21
2,173564, Control_c, 0, 64, 17
2,173583, Control_c, 0, 64, 13
2,173602, Control_c, 0, 64, 9
2,173621, Control_c, 0, 64, 0
2,173773, Note_on_c, 0, 64, 0
2,173778, Note_on_c, 0, 63, 65
2,174022, Note_on_c, 0, 42, 60
2,174026, Note_on_c, 0, 63, 0
2,174031, Note_on_c, 0, 61, 65
2,174063, Note_on_c, 0, 40, 0
2,174115, Note_on_c, 0, 49, 0
2,174140, Control_c, 0, 64, 48
2,174158, Control_c, 0, 64, 59
2,174178, Control_c, 0, 64, 63
2,174197, Control_c, 0, 64, 65
2,174216, Control_c, 0, 64, 69
2,174235, Control_c, 0, 64, 75
2,174246, Note_on_c, 0, 73, 0
2,174255, Control_c, 0, 64, 84
2,174274, Control_c, 0, 64, 98
2,174293, Control_c, 0, 64, 127
2,174296, Note_on_c, 0, 64, 72
2,174300, Note_on_c, 0, 61, 0
2,174335, Note_on_c, 0, 42, 0
2,174586, Note_on_c, 0, 72, 83
2,174597, Note_on_c, 0, 64, 0
2,174636, Note_on_c, 0, 44, 45
2,174638, Note_on_c, 0, 63, 51
2,174677, Control_c, 0, 64, 90
2,174696, Control_c, 0, 64, 70
2,174715, Control_c, 0, 64, 58
2,174735, Control_c, 0, 64, 36
2,174754, Control_c, 0, 64, 0
2,174830, Control_c, 0, 64, 34
2,174850, Control_c, 0, 64, 47
2,174869, Control_c, 0, 64, 50
2,174889, Control_c, 0, 64, 54
2,174894, Note_on_c, 0, 44, 0
2,174907, Control_c, 0, 64, 58
2,174911, Note_on_c, 0, 42, 53
2,174927, Control_c, 0, 64, 61
2,174946, Control_c, 0, 64, 63
2,174965, Control_c, 0, 64, 64
2,174984, Control_c, 0, 64, 65
2,175042, Control_c, 0, 64, 64
2,175061, Control_c, 0, 64, 62
2,175081, Control_c, 0, 64, 58
2,175100, Control_c, 0, 64, 52
2,175118, Control_c, 0, 64, 40
2,175132, Note_on_c, 0, 42, 0
2,175138, Control_c, 0, 64, 9
2,175157, Control_c, 0, 64, 0
2,175174, Note_on_c, 0, 68, 68
2,175179, Note_on_c, 0, 44, 46
2,175215, Control_c, 0, 64, 25
2,175234, Control_c, 0, 64, 56
2,175253, Control_c, 0, 64, 64
2,175258, Note_on_c, 0, 63, 0
2,175272, Control_c, 0, 64, 68
2,175292, Control_c, 0, 64, 75
2,175310, Control_c, 0, 64, 86
2,175330, Control_c, 0, 64, 98
2,175349, Control_c, 0, 64, 127
2,175350, Note_on_c, 0, 72, 0
2,175401, Note_on_c, 0, 44, 0
2,175430, Note_on_c, 0, 45, 68
2,175690, Note_on_c, 0, 76, 84
2,175707, Note_on_c, 0, 73, 66
2,175709, Note_on_c, 0, 44, 54
2,175709, Note_on_c, 0, 68, 0
2,175739, Note_on_c, 0, 45, 0
2,175752, Control_c, 0, 64, 87
2,175772, Control_c, 0, 64, 66
2,175790, Control_c, 0, 64, 52
2,175810, Control_c, 0, 64, 34
2,175829, Control_c, 0, 64, 0
2,175834, Note_on_c, 0, 73, 0
2,175906, Control_c, 0, 64, 44
2,175925, Control_c, 0, 64, 62
2,175944, Control_c, 0, 64, 66
2,175964, Control_c, 0, 64, 72
2,175964, Note_on_c, 0, 42, 79
2,175978, Note_on_c, 0, 44, 0
2,175983, Control_c, 0, 64, 81
2,176002, Control_c, 0, 64, 94
2,176021, Control_c, 0, 64, 112
2,176041, Control_c, 0, 64, 127
2,176176, Note_on_c, 0, 42, 0
2,176223, Note_on_c, 0, 73, 80
2,176224, Note_on_c, 0, 40, 64
2,176251, Control_c, 0, 64, 94
2,176269, Control_c, 0, 64, 69
2,176289, Control_c, 0, 64, 48
2,176308, Control_c, 0, 64, 20
2,176328, Control_c, 0, 64, 19
2,176346, Control_c, 0, 64, 36
2,176366, Control_c, 0, 64, 56
2,176373, Note_on_c, 0, 76, 0
2,176385, Control_c, 0, 64, 64
2,176405, Control_c, 0, 64, 69
2,176423, Control_c, 0, 64, 79
2,176443, Control_c, 0, 64, 98
2,176462, Control_c, 0, 64, 127
2,176488, Note_on_c, 0, 40, 0
2,176489, Note_on_c, 0, 73, 0
2,176499, Note_on_c, 0, 44, 72
2,176788, Note_on_c, 0, 75, 87
2,176810, Note_on_c, 0, 73, 66
2,176820, Note_on_c, 0, 42, 51
2,176827, Control_c, 0, 64, 84
2,176847, Control_c, 0, 64, 65
2,176866, Control_c, 0, 64, 47
2,176885, Control_c, 0, 64, 28
2,176904, Control_c, 0, 64, 27
2,176924, Control_c, 0, 64, 31
2,176939, Note_on_c, 0, 44, 0
2,176943, Control_c, 0, 64, 50
2,176962, Control_c, 0, 64, 62
2,176981, Control_c, 0, 64, 65
2,177001, Control_c, 0, 64, 68
2,177020, Control_c, 0, 64, 74
2,177038, Control_c, 0, 64, 83
2,177058, Control_c, 0, 64, 92
2,177077, Control_c, 0, 64, 99
2,177091, Note_on_c, 0, 40, 65
2,177093, Note_on_c, 0, 42, 0
2,177096, Control_c, 0, 64, 101
2,177173, Control_c, 0, 64, 100
2,177192, Control_c, 0, 64, 98
2,177212, Control_c, 0, 64, 94
2,177230, Control_c, 0, 64, 90
2,177250, Control_c, 0, 64, 86
2,177269, Control_c, 0, 64, 84
2,177289, Control_c, 0, 64, 80
2,177307, Control_c, 0, 64, 75
2,177323, Note_on_c, 0, 72, 72
2,177327, Control_c, 0, 64, 69
2,177346, Control_c, 0, 64, 65
2,177349, Note_on_c, 0, 42, 50
2,177353, Note_on_c, 0, 73, 0
2,177365, Control_c, 0, 64, 62
2,177382, Note_on_c, 0, 40, 0
2,177384, Control_c, 0, 64, 61
2,177404, Control_c, 0, 64, 61
2,177423, Control_c, 0, 64, 59
2,177442, Control_c, 0, 64, 58
2,177461, Control_c, 0, 64, 57
2,177481, Control_c, 0, 64, 56
2,177500, Control_c, 0, 64, 55
2,177518, Control_c, 0, 64, 53
2,177538, Control_c, 0, 64, 50
2,177557, Control_c, 0, 64, 47
2,177576, Control_c, 0, 64, 46
2,177588, Note_on_c, 0, 72, 0
2,177591, Note_on_c, 0, 42, 0
2,177595, Control_c, 0, 64, 45
2,177599, Note_on_c, 0, 70, 69
2,177608, Note_on_c, 0, 44, 54
2,177615, Control_c, 0, 64, 44
2,177634, Control_c, 0, 64, 44
2,177749, Control_c, 0, 64, 43
2,177769, Control_c, 0, 64, 42
2,177787, Control_c, 0, 64, 41
2,177858, Note_on_c, 0, 72, 63
2,177874, Note_on_c, 0, 42, 47
2,177884, Control_c, 0, 64, 42
2,177885, Note_on_c, 0, 70, 0
2,177960, Control_c, 0, 64, 41
2,177980, Control_c, 0, 64, 39
2,177984, Note_on_c, 0, 44, 0
2,177999, Control_c, 0, 64, 39
2,178038, Control_c, 0, 64, 39
2,178057, Control_c, 0, 64, 40
2,178076, Control_c, 0, 64, 40
2,178096, Control_c, 0, 64, 41
2,178109, Note_on_c, 0, 73, 68
2,178114, Control_c, 0, 64, 42
2,178115, Note_on_c, 0, 42, 0
2,178133, Note_on_c, 0, 40, 52
2,178134, Control_c, 0, 64, 42
2,178139, Note_on_c, 0, 75, 0
2,178146, Note_on_c, 0, 72, 0
2,178173, Control_c, 0, 64, 42
2,178191, Control_c, 0, 64, 41
2,178230, Control_c, 0, 64, 40
2,178268, Control_c, 0, 64, 41
2,178307, Control_c, 0, 64, 41
2,178326, Control_c, 0, 64, 42
2,178332, Note_on_c, 0, 40, 0
2,178383, Note_on_c, 0, 75, 63
2,178394, Note_on_c, 0, 73, 0
2,178396, Note_on_c, 0, 39, 47
2,178422, Control_c, 0, 64, 41
2,178442, Control_c, 0, 64, 41
2,178537, Control_c, 0, 64, 40
2,178556, Control_c, 0, 64, 39
2,178576, Control_c, 0, 64, 38
2,178594, Control_c, 0, 64, 35
2,178614, Control_c, 0, 64, 31
2,178633, Control_c, 0, 64, 30
2,178642, Note_on_c, 0, 72, 53
2,178645, Note_on_c, 0, 39, 0
2,178653, Control_c, 0, 64, 29
2,178655, Note_on_c, 0, 42, 44
2,178729, Note_on_c, 0, 75, 0
2,178787, Control_c, 0, 64, 29
2,178806, Control_c, 0, 64, 27
2,178825, Control_c, 0, 64, 25
2,178845, Control_c, 0, 64, 23
2,178860, Note_on_c, 0, 72, 0
2,178864, Control_c, 0, 64, 21
2,178883, Control_c, 0, 64, 20
2,178898, Note_on_c, 0, 42, 0
2,178902, Control_c, 0, 64, 17
2,178911, Note_on_c, 0, 68, 49
2,178922, Control_c, 0, 64, 11
2,178940, Control_c, 0, 64, 9
2,178943, Note_on_c, 0, 40, 40
2,178959, Control_c, 0, 64, 0
2,179017, Control_c, 0, 64, 15
2,179036, Control_c, 0, 64, 32
2,179056, Control_c, 0, 64, 47
2,179074, Control_c, 0, 64, 56
2,179094, Control_c, 0, 64, 61
2,179113, Control_c, 0, 64, 63
2,179133, Control_c, 0, 64, 64
2,179151, Control_c, 0, 64, 66
2,179171, Control_c, 0, 64, 70
2,179190, Control_c, 0, 64, 75
2,179195, Note_on_c, 0, 68, 0
2,179196, Note_on_c, 0, 66, 48
2,179210, Control_c, 0, 64, 81
2,179228, Control_c, 0, 64, 87
2,179248, Control_c, 0, 64, 94
2,179267, Control_c, 0, 64, 104
2,179286, Control_c, 0, 64, 127
2,179420, Control_c, 0, 64, 112
2,179439, Control_c, 0, 64, 82
2,179459, Control_c, 0, 64, 66
2,179463, Note_on_c, 0, 66, 0
2,179477, Note_on_c, 0, 52, 61
2,179478, Control_c, 0, 64, 55
2,179486, Note_on_c, 0, 68, 54
2,179497, Control_c, 0, 64, 46
2,179534, Note_on_c, 0, 40, 0
2,179536, Control_c, 0, 64, 49
2,179554, Control_c, 0, 64, 55
2,179574, Control_c, 0, 64, 62
2,179593, Control_c, 0, 64, 65
2,179613, Control_c, 0, 64, 68
2,179631, Control_c, 0, 64, 74
2,179651, Control_c, 0, 64, 83
2,179670, Control_c, 0, 64, 93
2,179690, Control_c, 0, 64, 101
2,179708, Control_c, 0, 64, 109
2,179728, Control_c, 0, 64, 127
2,179732, Note_on_c, 0, 69, 74
2,179739, Note_on_c, 0, 68, 0
2,180025, Note_on_c, 0, 73, 79
2,180029, Note_on_c, 0, 52, 0
2,180034, Control_c, 0, 64, 106
2,180054, Control_c, 0, 64, 79
2,180073, Control_c, 0, 64, 65
2,180076, Note_on_c, 0, 57, 47
2,180076, Note_on_c, 0, 69, 0
2,180087, Note_on_c, 0, 68, 35
2,180093, Control_c, 0, 64, 55
2,180111, Control_c, 0, 64, 44
2,180131, Control_c, 0, 64, 27
2,180150, Control_c, 0, 64, 0
2,180188, Control_c, 0, 64, 18
2,180208, Control_c, 0, 64, 49
2,180227, Control_c, 0, 64, 62
2,180246, Control_c, 0, 64, 67
2,180265, Control_c, 0, 64, 75
2,180273, Note_on_c, 0, 57, 0
2,180285, Control_c, 0, 64, 87
2,180304, Control_c, 0, 64, 101
2,180319, Note_on_c, 0, 66, 70
2,180323, Control_c, 0, 64, 127
2,180323, Note_on_c, 0, 68, 0
2,180534, Control_c, 0, 64, 108
2,180553, Control_c, 0, 64, 73
2,180568, Note_on_c, 0, 57, 72
2,180573, Control_c, 0, 64, 61
2,180579, Note_on_c, 0, 64, 68
2,180591, Control_c, 0, 64, 52
2,180611, Control_c, 0, 64, 50
2,180616, Note_on_c, 0, 66, 0
2,180650, Control_c, 0, 64, 53
2,180669, Control_c, 0, 64, 59
2,180689, Control_c, 0, 64, 65
2,180708, Control_c, 0, 64, 70
2,180727, Control_c, 0, 64, 82
2,180746, Control_c, 0, 64, 102
2,180766, Control_c, 0, 64, 127
2,180780, Note_on_c, 0, 57, 0
2,180845, Note_on_c, 0, 68, 81
2,180887, Note_on_c, 0, 64, 0
2,181127, Note_on_c, 0, 66, 59
2,181129, Note_on_c, 0, 57, 80
2,181198, Note_on_c, 0, 68, 0
2,181206, Control_c, 0, 64, 114
2,181225, Control_c, 0, 64, 89
2,181245, Control_c, 0, 64, 71
2,181264, Control_c, 0, 64, 64
2,181283, Control_c, 0, 64, 62
2,181302, Control_c, 0, 64, 61
2,181322, Control_c, 0, 64, 61
2,181340, Control_c, 0, 64, 60
2,181379, Control_c, 0, 64, 59
2,181398, Control_c, 0, 64, 58
2,181410, Note_on_c, 0, 64, 66
2,181417, Control_c, 0, 64, 56
2,181417, Note_on_c, 0, 66, 0
2,181436, Control_c, 0, 64, 53
2,181456, Control_c, 0, 64, 50
2,181474, Control_c, 0, 64, 47
2,181494, Control_c, 0, 64, 46
2,181551, Control_c, 0, 64, 46
2,181571, Control_c, 0, 64, 45
2,181648, Control_c, 0, 64, 44
2,181667, Control_c, 0, 64, 43
2,181669, Note_on_c, 0, 66, 71
2,181674, Note_on_c, 0, 56, 68
2,181686, Control_c, 0, 64, 41
2,181705, Control_c, 0, 64, 39
2,181744, Control_c, 0, 64, 38
2,181802, Control_c, 0, 64, 39
2,181818, Note_on_c, 0, 57, 0
2,181897, Note_on_c, 0, 64, 0
2,181919, Note_on_c, 0, 68, 76
2,181924, Note_on_c, 0, 54, 67
2,181924, Note_on_c, 0, 56, 0
2,181970, Note_on_c, 0, 66, 0
2,181986, Note_on_c, 0, 73, 0
2,182211, Note_on_c, 0, 72, 73
2,182224, Note_on_c, 0, 68, 0
2,182225, Note_on_c, 0, 54, 0
2,182249, Note_on_c, 0, 56, 53
2,182251, Note_on_c, 0, 66, 44
2,182300, Control_c, 0, 64, 38
2,182319, Control_c, 0, 64, 38
2,182388, Note_on_c, 0, 66, 0
2,182416, Control_c, 0, 64, 37
2,182454, Control_c, 0, 64, 37
2,182473, Control_c, 0, 64, 36
2,182474, Note_on_c, 0, 64, 51
2,182493, Control_c, 0, 64, 36
2,182511, Control_c, 0, 64, 35
2,182531, Control_c, 0, 64, 34
2,182550, Control_c, 0, 64, 32
2,182609, Control_c, 0, 64, 32
2,182628, Control_c, 0, 64, 31
2,182647, Control_c, 0, 64, 29
2,182666, Control_c, 0, 64, 27
2,182686, Control_c, 0, 64, 27
2,182705, Control_c, 0, 64, 26
2,182710, Note_on_c, 0, 64, 0
2,182724, Control_c, 0, 64, 25
2,182737, Note_on_c, 0, 63, 53
2,182743, Control_c, 0, 64, 24
2,182746, Note_on_c, 0, 44, 54
2,182780, Control_c, 0, 64, 28
2,182795, Note_on_c, 0, 56, 0
2,182799, Control_c, 0, 64, 40
2,182819, Control_c, 0, 64, 52
2,182838, Control_c, 0, 64, 59
2,182857, Control_c, 0, 64, 63
2,182876, Control_c, 0, 64, 65
2,182896, Control_c, 0, 64, 68
2,182914, Control_c, 0, 64, 73
2,182934, Control_c, 0, 64, 79
2,182953, Control_c, 0, 64, 87
2,182973, Control_c, 0, 64, 97
2,182982, Note_on_c, 0, 66, 61
2,182990, Note_on_c, 0, 63, 0
2,182991, Control_c, 0, 64, 116
2,183011, Control_c, 0, 64, 127
2,183274, Note_on_c, 0, 66, 0
2,183299, Control_c, 0, 64, 91
2,183304, Note_on_c, 0, 49, 81
2,183315, Note_on_c, 0, 64, 59
2,183317, Note_on_c, 0, 44, 0
2,183318, Control_c, 0, 64, 70
2,183337, Control_c, 0, 64, 56
2,183356, Control_c, 0, 64, 0
2,183471, Control_c, 0, 64, 49
2,183491, Control_c, 0, 64, 62
2,183510, Control_c, 0, 64, 66
2,183530, Control_c, 0, 64, 70
2,183548, Control_c, 0, 64, 76
2,183568, Control_c, 0, 64, 91
2,183575, Note_on_c, 0, 64, 0
2,183576, Note_on_c, 0, 72, 0
2,183587, Control_c, 0, 64, 127
2,183597, Note_on_c, 0, 68, 74
2,183636, Note_on_c, 0, 68, 0
2,183859, Note_on_c, 0, 73, 81
2,183877, Note_on_c, 0, 47, 62
2,183877, Note_on_c, 0, 69, 63
2,183880, Control_c, 0, 64, 78
2,183899, Control_c, 0, 64, 61
2,183919, Control_c, 0, 64, 0
2,183996, Control_c, 0, 64, 20
2,184015, Control_c, 0, 64, 56
2,184034, Control_c, 0, 64, 64
2,184053, Control_c, 0, 64, 68
2,184073, Control_c, 0, 64, 74
2,184091, Control_c, 0, 64, 87
2,184102, Note_on_c, 0, 69, 0
2,184111, Control_c, 0, 64, 107
2,184115, Note_on_c, 0, 75, 87
2,184118, Note_on_c, 0, 71, 63
2,184130, Control_c, 0, 64, 127
2,184133, Note_on_c, 0, 73, 0
2,184151, Note_on_c, 0, 71, 0
2,184176, Note_on_c, 0, 75, 0
2,184323, Note_on_c, 0, 47, 0
2,184414, Note_on_c, 0, 76, 80
2,184434, Note_on_c, 0, 45, 50
2,184437, Control_c, 0, 64, 90
2,184452, Note_on_c, 0, 73, 46
2,184456, Control_c, 0, 64, 68
2,184476, Control_c, 0, 64, 46
2,184495, Control_c, 0, 64, 0
2,184629, Control_c, 0, 64, 24
2,184647, Control_c, 0, 64, 55
2,184667, Control_c, 0, 64, 63
2,184686, Control_c, 0, 64, 66
2,184688, Note_on_c, 0, 75, 71
2,184690, Note_on_c, 0, 73, 0
2,184706, Control_c, 0, 64, 70
2,184724, Control_c, 0, 64, 78
2,184743, Control_c, 0, 64, 94
2,184763, Control_c, 0, 64, 127
2,184927, Note_on_c, 0, 75, 0
2,184955, Control_c, 0, 64, 97
2,184963, Note_on_c, 0, 78, 76
2,184974, Control_c, 0, 64, 74
2,184989, Note_on_c, 0, 76, 0
2,184993, Control_c, 0, 64, 61
2,184999, Note_on_c, 0, 72, 37
2,185012, Control_c, 0, 64, 32
2,185032, Control_c, 0, 64, 0
2,185127, Control_c, 0, 64, 41
2,185147, Control_c, 0, 64, 60
2,185166, Control_c, 0, 64, 65
2,185186, Control_c, 0, 64, 68
2,185203, Note_on_c, 0, 72, 0
2,185204, Control_c, 0, 64, 72
2,185223, Control_c, 0, 64, 79
2,185239, Note_on_c, 0, 73, 57
2,185243, Control_c, 0, 64, 87
2,185261, Control_c, 0, 64, 95
2,185281, Control_c, 0, 64, 103
2,185289, Note_on_c, 0, 78, 0
2,185300, Control_c, 0, 64, 111
2,185320, Control_c, 0, 64, 127
2,185324, Note_on_c, 0, 73, 0
2,185362, Note_on_c, 0, 49, 0
2,185445, Note_on_c, 0, 45, 0
2,185609, Note_on_c, 0, 48, 60
2,185614, Note_on_c, 0, 80, 62
2,185627, Control_c, 0, 64, 83
2,185641, Note_on_c, 0, 75, 46
2,185646, Control_c, 0, 64, 64
2,185660, Note_on_c, 0, 44, 37
2,185666, Control_c, 0, 64, 32
2,185684, Control_c, 0, 64, 0
2,185800, Control_c, 0, 64, 46
2,185818, Control_c, 0, 64, 61
2,185838, Control_c, 0, 64, 64
2,185857, Control_c, 0, 64, 67
2,185876, Control_c, 0, 64, 71
2,185895, Control_c, 0, 64, 77
2,185915, Control_c, 0, 64, 87
2,185934, Control_c, 0, 64, 99
2,185936, Note_on_c, 0, 48, 0
2,185953, Control_c, 0, 64, 127
2,185973, Note_on_c, 0, 44, 0
2,185993, Note_on_c, 0, 80, 0
2,185995, Note_on_c, 0, 78, 67
2,186136, Note_on_c, 0, 75, 0
2,186280, Note_on_c, 0, 80, 69
2,186287, Note_on_c, 0, 56, 61
2,186378, Note_on_c, 0, 78, 0
2,186544, Note_on_c, 0, 80, 0
2,186553, Note_on_c, 0, 81, 78
2,186808, Note_on_c, 0, 61, 68
2,186809, Note_on_c, 0, 80, 73
2,186811, Note_on_c, 0, 52, 56
2,186816, Control_c, 0, 64, 106
2,186818, Note_on_c, 0, 56, 0
2,186835, Control_c, 0, 64, 74
2,186854, Control_c, 0, 64, 56
2,186866, Note_on_c, 0, 81, 0
2,186874, Control_c, 0, 64, 0
2,186989, Control_c, 0, 64, 42
2,187008, Control_c, 0, 64, 60
2,187028, Control_c, 0, 64, 64
2,187046, Control_c, 0, 64, 67
2,187066, Control_c, 0, 64, 72
2,187077, Note_on_c, 0, 78, 73
2,187085, Control_c, 0, 64, 81
2,187104, Control_c, 0, 64, 102
2,187123, Control_c, 0, 64, 127
2,187136, Note_on_c, 0, 80, 0
2,187165, Note_on_c, 0, 61, 0
2,187334, Control_c, 0, 64, 91
2,187339, Note_on_c, 0, 76, 72
2,187354, Control_c, 0, 64, 68
2,187357, Note_on_c, 0, 61, 67
2,187373, Control_c, 0, 64, 49
2,187374, Note_on_c, 0, 78, 0
2,187392, Control_c, 0, 64, 21
2,187411, Control_c, 0, 64, 31
2,187431, Control_c, 0, 64, 52
2,187450, Control_c, 0, 64, 62
2,187469, Control_c, 0, 64, 66
2,187488, Control_c, 0, 64, 72
2,187508, Control_c, 0, 64, 82
2,187526, Control_c, 0, 64, 94
2,187534, Note_on_c, 0, 52, 0
2,187546, Control_c, 0, 64, 112
2,187565, Control_c, 0, 64, 127
2,187591, Note_on_c, 0, 61, 0
2,187612, Note_on_c, 0, 80, 81
2,187619, Note_on_c, 0, 76, 0
2,187881, Note_on_c, 0, 78, 66
2,187894, Note_on_c, 0, 61, 73
2,187902, Note_on_c, 0, 80, 0
2,187939, Note_on_c, 0, 51, 47
2,187988, Control_c, 0, 64, 73
2,188006, Control_c, 0, 64, 56
2,188026, Control_c, 0, 64, 0
2,188122, Control_c, 0, 64, 27
2,188140, Control_c, 0, 64, 53
2,188160, Control_c, 0, 64, 62
2,188178, Note_on_c, 0, 76, 70
2,188179, Control_c, 0, 64, 65
2,188189, Note_on_c, 0, 78, 0
2,188199, Control_c, 0, 64, 68
2,188217, Control_c, 0, 64, 73
2,188237, Control_c, 0, 64, 80
2,188256, Control_c, 0, 64, 92
2,188276, Control_c, 0, 64, 110
2,188294, Control_c, 0, 64, 127
2,188348, Note_on_c, 0, 61, 0
2,188438, Note_on_c, 0, 78, 74
2,188455, Note_on_c, 0, 60, 60
2,188492, Note_on_c, 0, 76, 0
2,188506, Control_c, 0, 64, 105
2,188525, Control_c, 0, 64, 87
2,188544, Control_c, 0, 64, 77
2,188563, Control_c, 0, 64, 72
2,188582, Control_c, 0, 64, 68
2,188602, Control_c, 0, 64, 66
2,188620, Control_c, 0, 64, 65
2,188640, Control_c, 0, 64, 64
2,188659, Control_c, 0, 64, 63
2,188679, Control_c, 0, 64, 62
2,188697, Control_c, 0, 64, 61
2,188700, Note_on_c, 0, 78, 0
2,188701, Note_on_c, 0, 60, 0
2,188702, Note_on_c, 0, 80, 70
2,188703, Note_on_c, 0, 58, 55
2,188717, Control_c, 0, 64, 60
2,188736, Control_c, 0, 64, 60
2,188756, Control_c, 0, 64, 59
2,188774, Control_c, 0, 64, 59
2,188794, Control_c, 0, 64, 58
2,188813, Control_c, 0, 64, 56
2,188829, Control_c, 0, 64, 55
2,188848, Control_c, 0, 64, 53
2,188868, Control_c, 0, 64, 52
2,188887, Control_c, 0, 64, 50
2,188906, Control_c, 0, 64, 50
2,188925, Control_c, 0, 64, 49
2,188945, Control_c, 0, 64, 48
2,188960, Note_on_c, 0, 58, 0
2,188963, Control_c, 0, 64, 48
2,188983, Control_c, 0, 64, 47
2,188984, Note_on_c, 0, 80, 0
2,188991, Note_on_c, 0, 78, 56
2,188998, Note_on_c, 0, 60, 48
2,189022, Control_c, 0, 64, 47
2,189040, Control_c, 0, 64, 46
2,189060, Control_c, 0, 64, 45
2,189079, Control_c, 0, 64, 44
2,189098, Control_c, 0, 64, 43
2,189137, Control_c, 0, 64, 42
2,189156, Control_c, 0, 64, 40
2,189175, Control_c, 0, 64, 38
2,189194, Control_c, 0, 64, 36
2,189213, Control_c, 0, 64, 31
2,189233, Control_c, 0, 64, 28
2,189238, Note_on_c, 0, 78, 0
2,189249, Note_on_c, 0, 76, 57
2,189251, Control_c, 0, 64, 24
2,189271, Control_c, 0, 64, 21
2,189290, Control_c, 0, 64, 20
2,189348, Control_c, 0, 64, 21
2,189367, Control_c, 0, 64, 27
2,189386, Control_c, 0, 64, 36
2,189405, Control_c, 0, 64, 44
2,189425, Control_c, 0, 64, 50
2,189443, Control_c, 0, 64, 54
2,189463, Control_c, 0, 64, 58
2,189474, Note_on_c, 0, 76, 0
2,189482, Control_c, 0, 64, 62
2,189501, Control_c, 0, 64, 64
2,189512, Note_on_c, 0, 75, 53
2,189519, Control_c, 0, 64, 65
2,189539, Control_c, 0, 64, 68
2,189558, Control_c, 0, 64, 71
2,189578, Control_c, 0, 64, 77
2,189596, Control_c, 0, 64, 83
2,189616, Control_c, 0, 64, 89
2,189618, Note_on_c, 0, 60, 0
2,189635, Control_c, 0, 64, 95
2,189653, Control_c, 0, 64, 101
2,189673, Control_c, 0, 64, 114
2,189692, Control_c, 0, 64, 127
2,189754, Note_on_c, 0, 78, 57
2,189765, Note_on_c, 0, 75, 0
2,190051, Note_on_c, 0, 51, 0
2,190069, Note_on_c, 0, 76, 52
2,190072, Note_on_c, 0, 78, 0
2,190074, Note_on_c, 0, 61, 50
2,190087, Note_on_c, 0, 49, 43
2,190096, Control_c, 0, 64, 112
2,190115, Control_c, 0, 64, 90
2,190133, Control_c, 0, 64, 77
2,190153, Control_c, 0, 64, 69
2,190172, Control_c, 0, 64, 65
2,190192, Control_c, 0, 64, 64
2,190210, Control_c, 0, 64, 62
2,190230, Control_c, 0, 64, 60
2,190249, Control_c, 0, 64, 58
2,190270, Control_c, 0, 64, 57
2,190289, Control_c, 0, 64, 56
2,190309, Control_c, 0, 64, 55
2,190327, Control_c, 0, 64, 54
2,190342, Note_on_c, 0, 76, 0
2,190347, Control_c, 0, 64, 52
2,190358, Note_on_c, 0, 75, 58
2,190366, Control_c, 0, 64, 49
2,190386, Control_c, 0, 64, 45
2,190404, Control_c, 0, 64, 41
2,190424, Control_c, 0, 64, 37
2,190441, Control_c, 0, 64, 32
2,190461, Control_c, 0, 64, 27
2,190479, Control_c, 0, 64, 20
2,190499, Control_c, 0, 64, 9
2,190518, Control_c, 0, 64, 0
2,190607, Note_on_c, 0, 52, 52
2,190621, Note_on_c, 0, 76, 52
2,190633, Control_c, 0, 64, 26
2,190641, Note_on_c, 0, 75, 0
2,190652, Control_c, 0, 64, 44
2,190672, Control_c, 0, 64, 56
2,190690, Control_c, 0, 64, 61
2,190710, Control_c, 0, 64, 64
2,190729, Control_c, 0, 64, 67
2,190748, Control_c, 0, 64, 70
2,190767, Control_c, 0, 64, 75
2,190767, Note_on_c, 0, 49, 0
2,190787, Control_c, 0, 64, 82
2,190806, Control_c, 0, 64, 90
2,190825, Control_c, 0, 64, 101
2,190844, Control_c, 0, 64, 127
2,190845, Note_on_c, 0, 76, 0
2,190870, Note_on_c, 0, 78, 65
2,191075, Control_c, 0, 64, 119
2,191093, Control_c, 0, 64, 93
2,191113, Control_c, 0, 64, 76
2,191132, Control_c, 0, 64, 63
2,191138, Note_on_c, 0, 78, 0
2,191141, Note_on_c, 0, 76, 60
2,191152, Control_c, 0, 64, 44
2,191161, Note_on_c, 0, 57, 52
2,191170, Control_c, 0, 64, 0
2,191172, Note_on_c, 0, 52, 0
2,191267, Control_c, 0, 64, 20
2,191286, Control_c, 0, 64, 50
2,191305, Control_c, 0, 64, 61
2,191324, Control_c, 0, 64, 64
2,191344, Control_c, 0, 64, 67
2,191362, Control_c, 0, 64, 71
2,191382, Control_c, 0, 64, 78
2,191393, Note_on_c, 0, 57, 0
2,191396, Note_on_c, 0, 74, 69
2,191400, Control_c, 0, 64, 86
2,191410, Note_on_c, 0, 76, 0
2,191421, Control_c, 0, 64, 99
2,191439, Control_c, 0, 64, 127
2,191610, Control_c, 0, 64, 104
2,191629, Control_c, 0, 64, 76
2,191645, Note_on_c, 0, 74, 0
2,191648, Control_c, 0, 64, 62
2,191660, Note_on_c, 0, 57, 67
2,191665, Note_on_c, 0, 61, 0
2,191665, Note_on_c, 0, 73, 68
2,191667, Control_c, 0, 64, 50
2,191687, Control_c, 0, 64, 49
2,191705, Control_c, 0, 64, 52
2,191725, Control_c, 0, 64, 58
2,191744, Control_c, 0, 64, 63
2,191764, Control_c, 0, 64, 66
2,191782, Control_c, 0, 64, 73
2,191801, Control_c, 0, 64, 84
2,191821, Control_c, 0, 64, 105
2,191839, Control_c, 0, 64, 127
2,191856, Note_on_c, 0, 73, 0
2,191914, Note_on_c, 0, 57, 0
2,191935, Note_on_c, 0, 76, 75
2,192215, Note_on_c, 0, 74, 74
2,192226, Note_on_c, 0, 57, 53
2,192245, Control_c, 0, 64, 91
2,192254, Note_on_c, 0, 59, 51
2,192264, Control_c, 0, 64, 71
2,192276, Note_on_c, 0, 76, 0
2,192284, Control_c, 0, 64, 54
2,192303, Control_c, 0, 64, 0
2,192470, Note_on_c, 0, 74, 0
2,192474, Note_on_c, 0, 73, 75
2,192735, Note_on_c, 0, 57, 0
2,192748, Note_on_c, 0, 73, 0
2,192750, Note_on_c, 0, 74, 60
2,192753, Note_on_c, 0, 56, 52
2,192754, Note_on_c, 0, 66, 53
2,192821, Control_c, 0, 64, 21
2,192840, Control_c, 0, 64, 50
2,192860, Control_c, 0, 64, 62
2,192878, Control_c, 0, 64, 66
2,192898, Control_c, 0, 64, 70
2,192917, Control_c, 0, 64, 77
2,192936, Control_c, 0, 64, 92
2,192955, Control_c, 0, 64, 104
2,192975, Control_c, 0, 64, 108
2,193010, Note_on_c, 0, 76, 70
2,193013, Note_on_c, 0, 74, 0
2,193014, Note_on_c, 0, 54, 54
2,193018, Note_on_c, 0, 56, 0
2,193057, Note_on_c, 0, 66, 0
2,193090, Control_c, 0, 64, 107
2,193109, Control_c, 0, 64, 105
2,193129, Control_c, 0, 64, 101
2,193147, Control_c, 0, 64, 95
2,193167, Control_c, 0, 64, 88
2,193186, Control_c, 0, 64, 81
2,193205, Control_c, 0, 64, 74
2,193224, Control_c, 0, 64, 68
2,193235, Note_on_c, 0, 54, 0
2,193243, Control_c, 0, 64, 62
2,193263, Control_c, 0, 64, 44
2,193281, Control_c, 0, 64, 0
2,193300, Note_on_c, 0, 74, 59
2,193304, Note_on_c, 0, 76, 0
2,193325, Note_on_c, 0, 56, 45
2,193326, Note_on_c, 0, 71, 49
2,193435, Control_c, 0, 64, 31
2,193455, Control_c, 0, 64, 49
2,193474, Control_c, 0, 64, 60
2,193493, Control_c, 0, 64, 65
2,193512, Control_c, 0, 64, 69
2,193532, Control_c, 0, 64, 77
2,193543, Note_on_c, 0, 71, 0
2,193550, Control_c, 0, 64, 91
2,193561, Note_on_c, 0, 74, 0
2,193569, Note_on_c, 0, 73, 66
2,193570, Control_c, 0, 64, 112
2,193580, Note_on_c, 0, 59, 0
2,193589, Control_c, 0, 64, 127
2,193783, Note_on_c, 0, 73, 0
2,193833, Note_on_c, 0, 66, 72
2,193835, Note_on_c, 0, 71, 66
2,193877, Control_c, 0, 64, 88
2,193896, Control_c, 0, 64, 66
2,193915, Control_c, 0, 64, 40
2,193935, Control_c, 0, 64, 0
2,193992, Control_c, 0, 64, 21
2,194012, Control_c, 0, 64, 48
2,194030, Control_c, 0, 64, 58
2,194050, Control_c, 0, 64, 61
2,194069, Control_c, 0, 64, 64
2,194089, Control_c, 0, 64, 69
2,194096, Note_on_c, 0, 71, 0
2,194108, Note_on_c, 0, 74, 65
2,194109, Control_c, 0, 64, 78
2,194129, Control_c, 0, 64, 97
2,194148, Control_c, 0, 64, 127
2,194194, Note_on_c, 0, 66, 0
2,194446, Note_on_c, 0, 65, 63
2,194446, Note_on_c, 0, 73, 73
2,194453, Control_c, 0, 64, 101
2,194472, Control_c, 0, 64, 76
2,194478, Note_on_c, 0, 74, 0
2,194492, Control_c, 0, 64, 62
2,194510, Control_c, 0, 64, 0
2,194587, Control_c, 0, 64, 44
2,194607, Control_c, 0, 64, 56
2,194626, Control_c, 0, 64, 60
2,194645, Control_c, 0, 64, 63
2,194664, Control_c, 0, 64, 67
2,194683, Control_c, 0, 64, 74
2,194703, Control_c, 0, 64, 90
2,194721, Control_c, 0, 64, 127
2,194745, Note_on_c, 0, 71, 69
2,194758, Note_on_c, 0, 73, 0
2,194810, Note_on_c, 0, 65, 0
2,194912, Note_on_c, 0, 56, 0
2,194990, Control_c, 0, 64, 99
2,195000, Note_on_c, 0, 49, 54
2,195010, Control_c, 0, 64, 75
2,195016, Note_on_c, 0, 73, 69
2,195025, Note_on_c, 0, 69, 66
2,195029, Control_c, 0, 64, 63
2,195029, Note_on_c, 0, 71, 0
2,195049, Control_c, 0, 64, 42
2,195067, Control_c, 0, 64, 22
2,195087, Control_c, 0, 64, 37
2,195106, Control_c, 0, 64, 55
2,195125, Control_c, 0, 64, 63
2,195131, Note_on_c, 0, 49, 0
2,195144, Control_c, 0, 64, 66
2,195163, Control_c, 0, 64, 69
2,195183, Control_c, 0, 64, 76
2,195201, Control_c, 0, 64, 91
2,195221, Control_c, 0, 64, 127
2,195234, Note_on_c, 0, 69, 0
2,195271, Note_on_c, 0, 74, 78
2,195274, Note_on_c, 0, 68, 70
2,195276, Note_on_c, 0, 73, 0
2,195313, Note_on_c, 0, 68, 0
2,195489, Control_c, 0, 64, 112
2,195508, Control_c, 0, 64, 91
2,195528, Control_c, 0, 64, 75
2,195546, Control_c, 0, 64, 60
2,195547, Note_on_c, 0, 73, 75
2,195548, Note_on_c, 0, 69, 73
2,195559, Note_on_c, 0, 66, 64
2,195561, Note_on_c, 0, 74, 0
2,195566, Control_c, 0, 64, 0
2,195596, Note_on_c, 0, 54, 48
2,195662, Control_c, 0, 64, 47
2,195680, Control_c, 0, 64, 60
2,195700, Control_c, 0, 64, 63
2,195719, Control_c, 0, 64, 65
2,195739, Control_c, 0, 64, 70
2,195757, Control_c, 0, 64, 83
2,195758, Note_on_c, 0, 73, 0
2,195772, Note_on_c, 0, 54, 0
2,195776, Note_on_c, 0, 69, 0
2,195777, Control_c, 0, 64, 127
2,195824, Note_on_c, 0, 71, 78
2,195978, Note_on_c, 0, 71, 0
2,196027, Control_c, 0, 64, 106
2,196047, Control_c, 0, 64, 75
2,196066, Control_c, 0, 64, 61
2,196076, Note_on_c, 0, 69, 80
2,196085, Control_c, 0, 64, 11
2,196104, Control_c, 0, 64, 0
2,196107, Note_on_c, 0, 54, 54
2,196113, Note_on_c, 0, 66, 0
2,196143, Control_c, 0, 64, 44
2,196161, Control_c, 0, 64, 60
2,196181, Control_c, 0, 64, 64
2,196198, Control_c, 0, 64, 66
2,196219, Control_c, 0, 64, 70
2,196237, Control_c, 0, 64, 79
2,196257, Control_c, 0, 64, 102
2,196268, Note_on_c, 0, 54, 0
2,196276, Control_c, 0, 64, 127
2,196332, Note_on_c, 0, 69, 0
2,196346, Note_on_c, 0, 73, 76
2,196583, Note_on_c, 0, 73, 0
2,196630, Note_on_c, 0, 68, 82
2,196634, Note_on_c, 0, 71, 71
2,196639, Note_on_c, 0, 59, 60
2,196667, Note_on_c, 0, 56, 50
2,196679, Control_c, 0, 64, 90
2,196696, Note_on_c, 0, 54, 38
2,196699, Control_c, 0, 64, 71
2,196717, Control_c, 0, 64, 59
2,196737, Control_c, 0, 64, 0
2,196813, Note_on_c, 0, 54, 0
2,196814, Control_c, 0, 64, 31
2,196833, Control_c, 0, 64, 56
2,196852, Control_c, 0, 64, 62
2,196871, Control_c, 0, 64, 65
2,196891, Control_c, 0, 64, 67
2,196910, Control_c, 0, 64, 70
2,196910, Note_on_c, 0, 71, 0
2,196925, Note_on_c, 0, 69, 75
2,196929, Control_c, 0, 64, 75
2,196948, Control_c, 0, 64, 84
2,196968, Control_c, 0, 64, 97
2,196987, Control_c, 0, 64, 112
2,197007, Control_c, 0, 64, 127
2,197126, Note_on_c, 0, 56, 0
2,197178, Note_on_c, 0, 71, 73
2,197180, Note_on_c, 0, 53, 63
2,197193, Note_on_c, 0, 69, 0
2,197198, Control_c, 0, 64, 97
2,197218, Control_c, 0, 64, 82
2,197237, Control_c, 0, 64, 74
2,197256, Control_c, 0, 64, 71
2,197314, Control_c, 0, 64, 69
2,197333, Control_c, 0, 64, 66
2,197352, Control_c, 0, 64, 64
2,197372, Control_c, 0, 64, 62
2,197375, Note_on_c, 0, 59, 0
2,197390, Control_c, 0, 64, 62
2,197445, Note_on_c, 0, 51, 55
2,197447, Note_on_c, 0, 71, 0
2,197450, Note_on_c, 0, 73, 68
2,197467, Control_c, 0, 64, 60
2,197472, Note_on_c, 0, 53, 0
2,197487, Control_c, 0, 64, 59
2,197506, Control_c, 0, 64, 57
2,197525, Control_c, 0, 64, 56
2,197544, Control_c, 0, 64, 57
2,197601, Control_c, 0, 64, 56
2,197621, Control_c, 0, 64, 56
2,197698, Control_c, 0, 64, 55
2,197736, Control_c, 0, 64, 54
2,197752, Note_on_c, 0, 61, 62
2,197753, Note_on_c, 0, 71, 59
2,197755, Control_c, 0, 64, 54
2,197757, Note_on_c, 0, 53, 43
2,197773, Note_on_c, 0, 51, 0
2,197775, Control_c, 0, 64, 53
2,197794, Control_c, 0, 64, 53
2,197813, Control_c, 0, 64, 52
2,197832, Control_c, 0, 64, 51
2,197852, Control_c, 0, 64, 49
2,197855, Note_on_c, 0, 73, 0
2,197870, Control_c, 0, 64, 46
2,197876, Note_on_c, 0, 68, 0
2,197890, Control_c, 0, 64, 44
2,197909, Control_c, 0, 64, 41
2,197929, Control_c, 0, 64, 38
2,197947, Control_c, 0, 64, 36
2,197967, Control_c, 0, 64, 35
2,197986, Control_c, 0, 64, 32
2,198005, Control_c, 0, 64, 29
2,198024, Control_c, 0, 64, 26
2,198031, Note_on_c, 0, 69, 66
2,198038, Note_on_c, 0, 71, 0
2,198043, Control_c, 0, 64, 25
2,198216, Control_c, 0, 64, 24
2,198248, Note_on_c, 0, 69, 0
2,198292, Note_on_c, 0, 68, 59
2,198545, Note_on_c, 0, 71, 56
2,198550, Note_on_c, 0, 68, 0
2,198827, Note_on_c, 0, 53, 0
2,198830, Control_c, 0, 64, 23
2,198850, Control_c, 0, 64, 21
2,198869, Control_c, 0, 64, 19
2,198869, Note_on_c, 0, 69, 61
2,198871, Note_on_c, 0, 57, 61
2,198889, Control_c, 0, 64, 11
2,198902, Note_on_c, 0, 54, 46
2,198906, Note_on_c, 0, 71, 0
2,198907, Control_c, 0, 64, 0
2,198976, Note_on_c, 0, 61, 0
2,199148, Note_on_c, 0, 68, 70
2,199195, Control_c, 0, 64, 18
2,199215, Control_c, 0, 64, 42
2,199234, Control_c, 0, 64, 53
2,199253, Control_c, 0, 64, 59
2,199272, Control_c, 0, 64, 61
2,199292, Control_c, 0, 64, 63
2,199310, Control_c, 0, 64, 64
2,199330, Control_c, 0, 64, 65
2,199349, Control_c, 0, 64, 66
2,199369, Control_c, 0, 64, 67
2,199382, Note_on_c, 0, 54, 0
2,199387, Control_c, 0, 64, 69
2,199407, Control_c, 0, 64, 72
2,199408, Note_on_c, 0, 66, 76
2,199426, Control_c, 0, 64, 76
2,199439, Note_on_c, 0, 68, 0
2,199444, Control_c, 0, 64, 80
2,199464, Control_c, 0, 64, 83
2,199483, Control_c, 0, 64, 83
2,199521, Control_c, 0, 64, 83
2,199541, Control_c, 0, 64, 82
2,199560, Control_c, 0, 64, 81
2,199580, Control_c, 0, 64, 79
2,199598, Control_c, 0, 64, 78
2,199618, Control_c, 0, 64, 76
2,199637, Control_c, 0, 64, 74
2,199655, Note_on_c, 0, 66, 0
2,199656, Control_c, 0, 64, 73
2,199664, Note_on_c, 0, 65, 72
2,199675, Control_c, 0, 64, 72
2,199695, Control_c, 0, 64, 72
2,199714, Control_c, 0, 64, 71
2,199733, Control_c, 0, 64, 70
2,199752, Control_c, 0, 64, 68
2,199772, Control_c, 0, 64, 67
2,199790, Control_c, 0, 64, 66
2,199810, Control_c, 0, 64, 65
2,199829, Control_c, 0, 64, 64
2,199849, Control_c, 0, 64, 63
2,199866, Control_c, 0, 64, 63
2,199886, Note_on_c, 0, 57, 0
2,199905, Control_c, 0, 64, 62
2,199924, Control_c, 0, 64, 61
2,199941, Note_on_c, 0, 66, 68
2,199943, Control_c, 0, 64, 60
2,199962, Control_c, 0, 64, 59
2,199963, Note_on_c, 0, 54, 44
2,199970, Note_on_c, 0, 65, 0
2,199982, Control_c, 0, 64, 57
2,200000, Control_c, 0, 64, 56
2,200020, Control_c, 0, 64, 55
2,200035, Control_c, 0, 64, 54
2,200055, Control_c, 0, 64, 53
2,200074, Control_c, 0, 64, 51
2,200093, Control_c, 0, 64, 49
2,200112, Control_c, 0, 64, 45
2,200132, Control_c, 0, 64, 42
2,200150, Control_c, 0, 64, 38
2,200170, Control_c, 0, 64, 36
2,200189, Control_c, 0, 64, 35
2,200209, Control_c, 0, 64, 31
2,200214, Note_on_c, 0, 61, 64
2,200230, Control_c, 0, 64, 25
2,200249, Control_c, 0, 64, 17
2,200269, Control_c, 0, 64, 0
2,200412, Note_on_c, 0, 61, 0
2,200472, Note_on_c, 0, 59, 64
2,200486, Note_on_c, 0, 54, 0
2,200614, Control_c, 0, 64, 36
2,200633, Control_c, 0, 64, 56
2,200652, Control_c, 0, 64, 61
2,200672, Control_c, 0, 64, 63
2,200691, Control_c, 0, 64, 66
2,200710, Control_c, 0, 64, 69
2,200711, Note_on_c, 0, 59, 0
2,200727, Note_on_c, 0, 57, 63
2,200729, Control_c, 0, 64, 77
2,200749, Control_c, 0, 64, 94
2,200764, Note_on_c, 0, 57, 0
2,200767, Control_c, 0, 64, 127
2,201047, Note_on_c, 0, 73, 83
2,201078, Note_on_c, 0, 68, 57
2,201094, Note_on_c, 0, 56, 44
2,201129, Note_on_c, 0, 69, 0
2,201152, Note_on_c, 0, 66, 0
2,201156, Control_c, 0, 64, 102
2,201174, Control_c, 0, 64, 83
2,201194, Control_c, 0, 64, 71
2,201213, Control_c, 0, 64, 66
2,201233, Control_c, 0, 64, 64
2,201251, Control_c, 0, 64, 63
2,201271, Control_c, 0, 64, 62
2,201290, Control_c, 0, 64, 61
2,201309, Control_c, 0, 64, 60
2,201328, Control_c, 0, 64, 58
2,201348, Control_c, 0, 64, 55
2,201367, Control_c, 0, 64, 51
2,201386, Control_c, 0, 64, 48
2,201394, Note_on_c, 0, 54, 54
2,201405, Control_c, 0, 64, 46
2,201425, Control_c, 0, 64, 44
2,201443, Control_c, 0, 64, 43
2,201463, Control_c, 0, 64, 40
2,201482, Control_c, 0, 64, 38
2,201502, Control_c, 0, 64, 38
2,201617, Control_c, 0, 64, 37
2,201636, Control_c, 0, 64, 36
2,201654, Control_c, 0, 64, 35
2,201668, Note_on_c, 0, 52, 53
2,201674, Control_c, 0, 64, 34
2,201712, Note_on_c, 0, 54, 0
2,201731, Control_c, 0, 64, 35
2,201751, Control_c, 0, 64, 36
2,201770, Control_c, 0, 64, 37
2,201789, Control_c, 0, 64, 38
2,201808, Control_c, 0, 64, 39
2,201910, Note_on_c, 0, 52, 0
2,201922, Note_on_c, 0, 51, 53
2,201943, Control_c, 0, 64, 39
2,201945, Note_on_c, 0, 68, 0
2,201956, Note_on_c, 0, 56, 0
2,201962, Control_c, 0, 64, 40
2,201982, Control_c, 0, 64, 40
2,202096, Control_c, 0, 64, 40
2,202187, Note_on_c, 0, 51, 0
2,202213, Note_on_c, 0, 52, 48
2,202231, Control_c, 0, 64, 39
2,202250, Control_c, 0, 64, 39
2,202269, Control_c, 0, 64, 38
2,202288, Control_c, 0, 64, 37
2,202327, Control_c, 0, 64, 37
2,202346, Control_c, 0, 64, 36
2,202423, Control_c, 0, 64, 36
2,202442, Control_c, 0, 64, 35
2,202462, Control_c, 0, 64, 34
2,202471, Note_on_c, 0, 68, 51
2,202480, Control_c, 0, 64, 32
2,202500, Control_c, 0, 64, 30
2,202519, Control_c, 0, 64, 29
2,202538, Control_c, 0, 64, 27
2,202557, Control_c, 0, 64, 26
2,202576, Control_c, 0, 64, 24
2,202596, Control_c, 0, 64, 19
2,202614, Control_c, 0, 64, 0
2,202691, Control_c, 0, 64, 19
2,202711, Control_c, 0, 64, 34
2,202729, Note_on_c, 0, 66, 51
2,202730, Control_c, 0, 64, 45
2,202736, Note_on_c, 0, 49, 38
2,202748, Note_on_c, 0, 52, 0
2,202750, Control_c, 0, 64, 53
2,202769, Control_c, 0, 64, 58
2,202781, Note_on_c, 0, 68, 0
2,202789, Control_c, 0, 64, 61
2,202807, Control_c, 0, 64, 63
2,202827, Control_c, 0, 64, 65
2,202846, Control_c, 0, 64, 66
2,202866, Control_c, 0, 64, 68
2,202884, Control_c, 0, 64, 70
2,202904, Control_c, 0, 64, 74
2,202923, Control_c, 0, 64, 79
2,202941, Control_c, 0, 64, 87
2,202942, Note_on_c, 0, 73, 0
2,202959, Control_c, 0, 64, 97
2,202979, Control_c, 0, 64, 127
2,202984, Note_on_c, 0, 64, 64
2,203036, Note_on_c, 0, 64, 0
2,203085, Note_on_c, 0, 66, 0
2,203314, Note_on_c, 0, 72, 71
2,203345, Note_on_c, 0, 49, 0
2,203370, Note_on_c, 0, 63, 43
2,203375, Note_on_c, 0, 56, 47
2,203382, Control_c, 0, 64, 107
2,203401, Control_c, 0, 64, 84
2,203421, Control_c, 0, 64, 68
2,203439, Control_c, 0, 64, 53
2,203459, Control_c, 0, 64, 0
2,203573, Control_c, 0, 64, 23
2,203593, Control_c, 0, 64, 53
2,203612, Control_c, 0, 64, 62
2,203632, Control_c, 0, 64, 64
2,203636, Note_on_c, 0, 69, 51
2,203650, Control_c, 0, 64, 67
2,203670, Control_c, 0, 64, 72
2,203689, Control_c, 0, 64, 83
2,203708, Control_c, 0, 64, 111
2,203727, Control_c, 0, 64, 127
2,203824, Control_c, 0, 64, 101
2,203843, Control_c, 0, 64, 77
2,203862, Control_c, 0, 64, 68
2,203881, Control_c, 0, 64, 69
2,203883, Note_on_c, 0, 44, 62
2,203884, Note_on_c, 0, 68, 63
2,203901, Control_c, 0, 64, 74
2,203919, Control_c, 0, 64, 81
2,203939, Control_c, 0, 64, 96
2,203958, Control_c, 0, 64, 127
2,204037, Note_on_c, 0, 72, 0
2,204068, Note_on_c, 0, 63, 0
2,204083, Note_on_c, 0, 69, 0
2,204116, Note_on_c, 0, 68, 0
2,204138, Note_on_c, 0, 66, 56
2,204145, Note_on_c, 0, 56, 0
2,204204, Note_on_c, 0, 66, 0
2,204400, Note_on_c, 0, 49, 57
2,204406, Note_on_c, 0, 76, 83
2,204419, Control_c, 0, 64, 86
2,204424, Note_on_c, 0, 44, 0
2,204434, Note_on_c, 0, 64, 47
2,204438, Control_c, 0, 64, 66
2,204458, Control_c, 0, 64, 38
2,204476, Control_c, 0, 64, 0
2,204572, Control_c, 0, 64, 47
2,204592, Control_c, 0, 64, 61
2,204610, Control_c, 0, 64, 65
2,204630, Control_c, 0, 64, 70
2,204649, Control_c, 0, 64, 78
2,204650, Note_on_c, 0, 49, 0
2,204670, Control_c, 0, 64, 95
2,204689, Control_c, 0, 64, 127
2,204690, Note_on_c, 0, 68, 81
2,204744, Note_on_c, 0, 64, 0
2,204847, Note_on_c, 0, 68, 0
2,204918, Control_c, 0, 64, 99
2,204930, Note_on_c, 0, 73, 75
2,204938, Control_c, 0, 64, 73
2,204940, Note_on_c, 0, 49, 78
2,204956, Control_c, 0, 64, 60
2,204975, Control_c, 0, 64, 39
2,204995, Control_c, 0, 64, 20
2,205005, Note_on_c, 0, 76, 0
2,205013, Control_c, 0, 64, 19
2,205033, Control_c, 0, 64, 31
2,205052, Control_c, 0, 64, 55
2,205072, Control_c, 0, 64, 64
2,205090, Control_c, 0, 64, 69
2,205110, Control_c, 0, 64, 79
2,205129, Control_c, 0, 64, 96
2,205148, Control_c, 0, 64, 127
2,205167, Note_on_c, 0, 49, 0
2,205188, Note_on_c, 0, 71, 83
2,205228, Note_on_c, 0, 73, 0
2,205483, Note_on_c, 0, 75, 88
2,205494, Note_on_c, 0, 71, 0
2,205502, Note_on_c, 0, 69, 69
2,205510, Note_on_c, 0, 54, 57
2,205516, Note_on_c, 0, 49, 56
2,205593, Control_c, 0, 64, 108
2,205612, Control_c, 0, 64, 92
2,205631, Control_c, 0, 64, 80
2,205650, Control_c, 0, 64, 72
2,205670, Control_c, 0, 64, 67
2,205689, Control_c, 0, 64, 65
2,205707, Control_c, 0, 64, 64
2,205727, Control_c, 0, 64, 63
2,205746, Control_c, 0, 64, 61
2,205766, Control_c, 0, 64, 60
2,205766, Note_on_c, 0, 68, 77
2,205784, Control_c, 0, 64, 57
2,205804, Control_c, 0, 64, 55
2,205823, Control_c, 0, 64, 52
2,205842, Control_c, 0, 64, 49
2,205846, Note_on_c, 0, 69, 0
2,205861, Control_c, 0, 64, 46
2,205881, Control_c, 0, 64, 43
2,205900, Control_c, 0, 64, 40
2,205919, Control_c, 0, 64, 37
2,205938, Control_c, 0, 64, 35
2,205958, Control_c, 0, 64, 33
2,205976, Control_c, 0, 64, 31
2,205996, Control_c, 0, 64, 30
2,206032, Note_on_c, 0, 69, 70
2,206043, Note_on_c, 0, 48, 53
2,206045, Note_on_c, 0, 68, 0
2,206073, Control_c, 0, 64, 29
2,206103, Note_on_c, 0, 49, 0
2,206111, Control_c, 0, 64, 29
2,206130, Control_c, 0, 64, 28
2,206140, Note_on_c, 0, 54, 0
2,206169, Control_c, 0, 64, 27
2,206292, Note_on_c, 0, 48, 0
2,206295, Note_on_c, 0, 46, 50
2,206296, Note_on_c, 0, 66, 67
2,206338, Note_on_c, 0, 69, 0
2,206438, Control_c, 0, 64, 28
2,206533, Control_c, 0, 64, 29
2,206553, Control_c, 0, 64, 29
2,206557, Note_on_c, 0, 46, 0
2,206560, Note_on_c, 0, 68, 71
2,206572, Control_c, 0, 64, 31
2,206575, Note_on_c, 0, 48, 49
2,206576, Note_on_c, 0, 51, 38
2,206630, Control_c, 0, 64, 31
2,206649, Control_c, 0, 64, 32
2,206654, Note_on_c, 0, 66, 0
2,206667, Control_c, 0, 64, 32
2,206824, Note_on_c, 0, 51, 0
2,206826, Note_on_c, 0, 48, 0
2,206841, Note_on_c, 0, 49, 64
2,206860, Control_c, 0, 64, 33
2,206918, Control_c, 0, 64, 32
2,206936, Control_c, 0, 64, 31
2,206956, Control_c, 0, 64, 28
2,206975, Control_c, 0, 64, 23
2,206995, Control_c, 0, 64, 13
2,207013, Control_c, 0, 64, 0
2,207060, Note_on_c, 0, 49, 0
2,207108, Note_on_c, 0, 51, 49
2,207186, Control_c, 0, 64, 30
2,207206, Control_c, 0, 64, 53
2,207224, Control_c, 0, 64, 61
2,207241, Note_on_c, 0, 51, 0
2,207244, Control_c, 0, 64, 64
2,207263, Control_c, 0, 64, 67
2,207282, Control_c, 0, 64, 71
2,207301, Control_c, 0, 64, 78
2,207321, Control_c, 0, 64, 86
2,207340, Control_c, 0, 64, 95
2,207359, Control_c, 0, 64, 103
2,207364, Note_on_c, 0, 48, 46
2,207378, Control_c, 0, 64, 127
2,207414, Note_on_c, 0, 48, 0
2,207609, Control_c, 0, 64, 105
2,207627, Control_c, 0, 64, 79
2,207628, Note_on_c, 0, 68, 0
2,207647, Control_c, 0, 64, 62
2,207666, Control_c, 0, 64, 39
2,207675, Note_on_c, 0, 52, 41
2,207681, Note_on_c, 0, 40, 45
2,207686, Control_c, 0, 64, 0
2,207762, Control_c, 0, 64, 11
2,207781, Control_c, 0, 64, 56
2,207791, Note_on_c, 0, 40, 0
2,207801, Control_c, 0, 64, 64
2,207820, Control_c, 0, 64, 67
2,207839, Control_c, 0, 64, 71
2,207858, Control_c, 0, 64, 78
2,207878, Control_c, 0, 64, 86
2,207896, Control_c, 0, 64, 96
2,207915, Note_on_c, 0, 52, 0
2,207916, Control_c, 0, 64, 110
2,207935, Control_c, 0, 64, 127
2,207944, Note_on_c, 0, 51, 51
2,207990, Note_on_c, 0, 51, 0
2,208024, Note_on_c, 0, 75, 0
2,208227, Note_on_c, 0, 73, 66
2,208257, Note_on_c, 0, 52, 37
2,208261, Control_c, 0, 64, 86
2,208281, Control_c, 0, 64, 67
2,208300, Control_c, 0, 64, 56
2,208319, Control_c, 0, 64, 44
2,208338, Control_c, 0, 64, 37
2,208358, Control_c, 0, 64, 34
2,208376, Control_c, 0, 64, 35
2,208396, Control_c, 0, 64, 46
2,208415, Control_c, 0, 64, 58
2,208435, Control_c, 0, 64, 64
2,208453, Control_c, 0, 64, 67
2,208464, Note_on_c, 0, 52, 0
2,208473, Control_c, 0, 64, 74
2,208480, Note_on_c, 0, 73, 0
2,208483, Note_on_c, 0, 72, 61
2,208492, Control_c, 0, 64, 84
2,208501, Note_on_c, 0, 54, 52
2,208512, Control_c, 0, 64, 95
2,208531, Control_c, 0, 64, 104
2,208551, Control_c, 0, 64, 113
2,208570, Control_c, 0, 64, 127
2,208594, Note_on_c, 0, 54, 0
2,208686, Note_on_c, 0, 72, 0
2,208751, Note_on_c, 0, 80, 79
2,208777, Note_on_c, 0, 73, 56
2,208780, Control_c, 0, 64, 84
2,208794, Note_on_c, 0, 52, 46
2,208799, Control_c, 0, 64, 65
2,208818, Control_c, 0, 64, 46
2,208838, Control_c, 0, 64, 0
2,208915, Control_c, 0, 64, 45
2,208933, Control_c, 0, 64, 61
2,208953, Control_c, 0, 64, 65
2,208972, Control_c, 0, 64, 69
2,208991, Control_c, 0, 64, 74
2,209010, Control_c, 0, 64, 83
2,209030, Control_c, 0, 64, 96
2,209032, Note_on_c, 0, 51, 58
2,209045, Note_on_c, 0, 80, 0
2,209049, Control_c, 0, 64, 117
2,209067, Control_c, 0, 64, 127
2,209218, Note_on_c, 0, 52, 0
2,209251, Note_on_c, 0, 51, 0
2,209275, Note_on_c, 0, 80, 83
2,209279, Control_c, 0, 64, 83
2,209295, Note_on_c, 0, 49, 56
2,209298, Control_c, 0, 64, 62
2,209298, Note_on_c, 0, 45, 47
2,209318, Control_c, 0, 64, 9
2,209336, Control_c, 0, 64, 0
2,209395, Control_c, 0, 64, 22
2,209413, Control_c, 0, 64, 57
2,209433, Control_c, 0, 64, 64
2,209452, Control_c, 0, 64, 68
2,209471, Control_c, 0, 64, 75
2,209490, Control_c, 0, 64, 87
2,209510, Control_c, 0, 64, 107
2,209519, Note_on_c, 0, 45, 0
2,209525, Note_on_c, 0, 49, 0
2,209529, Control_c, 0, 64, 127
2,209544, Note_on_c, 0, 52, 78
2,209561, Note_on_c, 0, 80, 0
2,209584, Note_on_c, 0, 52, 0
2,209811, Note_on_c, 0, 80, 83
2,209842, Note_on_c, 0, 51, 47
2,209873, Control_c, 0, 64, 95
2,209887, Note_on_c, 0, 39, 47
2,209891, Control_c, 0, 64, 69
2,209911, Control_c, 0, 64, 51
2,209930, Control_c, 0, 64, 0
2,210064, Control_c, 0, 64, 47
2,210084, Control_c, 0, 64, 62
2,210090, Note_on_c, 0, 51, 0
2,210102, Control_c, 0, 64, 66
2,210112, Note_on_c, 0, 49, 64
2,210119, Control_c, 0, 64, 70
2,210139, Control_c, 0, 64, 75
2,210158, Control_c, 0, 64, 83
2,210176, Control_c, 0, 64, 98
2,210189, Note_on_c, 0, 49, 0
2,210196, Control_c, 0, 64, 127
2,210347, Control_c, 0, 64, 109
2,210365, Control_c, 0, 64, 75
2,210369, Note_on_c, 0, 73, 0
2,210369, Note_on_c, 0, 78, 77
2,210378, Note_on_c, 0, 51, 52
2,210385, Control_c, 0, 64, 55
2,210386, Note_on_c, 0, 70, 67
2,210404, Control_c, 0, 64, 0
2,210425, Note_on_c, 0, 80, 0
2,210484, Control_c, 0, 64, 30
2,210503, Control_c, 0, 64, 57
2,210522, Control_c, 0, 64, 64
2,210541, Note_on_c, 0, 51, 0
2,210542, Control_c, 0, 64, 69
2,210560, Control_c, 0, 64, 78
2,210580, Control_c, 0, 64, 98
2,210599, Control_c, 0, 64, 127
2,210623, Note_on_c, 0, 76, 84
2,210635, Note_on_c, 0, 52, 73
2,210655, Note_on_c, 0, 78, 0
2,210658, Note_on_c, 0, 39, 0
2,210660, Note_on_c, 0, 70, 0
2,210683, Note_on_c, 0, 52, 0
2,210888, Control_c, 0, 64, 111
2,210893, Note_on_c, 0, 78, 84
2,210903, Note_on_c, 0, 51, 60
2,210903, Note_on_c, 0, 75, 70
2,210906, Control_c, 0, 64, 77
2,210908, Note_on_c, 0, 76, 0
2,210925, Control_c, 0, 64, 63
2,210945, Control_c, 0, 64, 46
2,210964, Control_c, 0, 64, 36
2,210983, Control_c, 0, 64, 27
2,211002, Control_c, 0, 64, 15
2,211040, Control_c, 0, 64, 42
2,211060, Control_c, 0, 64, 62
2,211079, Control_c, 0, 64, 68
2,211099, Control_c, 0, 64, 81
2,211116, Note_on_c, 0, 75, 0
2,211117, Control_c, 0, 64, 109
2,211137, Control_c, 0, 64, 127
2,211165, Note_on_c, 0, 49, 82
2,211195, Note_on_c, 0, 51, 0
2,211345, Note_on_c, 0, 49, 0
2,211436, Note_on_c, 0, 75, 92
2,211441, Note_on_c, 0, 44, 59
2,211443, Note_on_c, 0, 48, 63
2,211479, Note_on_c, 0, 78, 0
2,211483, Control_c, 0, 64, 95
2,211503, Control_c, 0, 64, 69
2,211521, Control_c, 0, 64, 54
2,211541, Control_c, 0, 64, 17
2,211560, Control_c, 0, 64, 0
2,211656, Control_c, 0, 64, 53
2,211675, Control_c, 0, 64, 66
2,211695, Control_c, 0, 64, 74
2,211713, Note_on_c, 0, 51, 78
2,211714, Control_c, 0, 64, 93
2,211715, Note_on_c, 0, 44, 0
2,211715, Note_on_c, 0, 48, 0
2,211733, Control_c, 0, 64, 127
2,211772, Note_on_c, 0, 51, 0
2,211786, Note_on_c, 0, 75, 0
2,212140, Note_on_c, 0, 76, 87
2,212152, Note_on_c, 0, 75, 80
2,212165, Note_on_c, 0, 49, 74
2,212199, Note_on_c, 0, 37, 52
2,212232, Control_c, 0, 64, 82
2,212252, Control_c, 0, 64, 63
2,212270, Control_c, 0, 64, 41
2,212290, Control_c, 0, 64, 11
2,212309, Control_c, 0, 64, 0
2,212366, Control_c, 0, 64, 33
2,212386, Control_c, 0, 64, 60
2,212405, Control_c, 0, 64, 67
2,212424, Control_c, 0, 64, 76
2,212443, Control_c, 0, 64, 100
2,212446, Note_on_c, 0, 37, 0
2,212463, Control_c, 0, 64, 127
2,212501, Note_on_c, 0, 49, 0
2,212716, Note_on_c, 0, 75, 0
2,212780, Note_on_c, 0, 52, 74
2,212785, Note_on_c, 0, 73, 76
2,212903, Control_c, 0, 64, 87
2,212922, Control_c, 0, 64, 68
2,212942, Control_c, 0, 64, 59
2,212960, Control_c, 0, 64, 58
2,212980, Control_c, 0, 64, 60
2,212999, Control_c, 0, 64, 63
2,213019, Control_c, 0, 64, 68
2,213037, Control_c, 0, 64, 79
2,213056, Note_on_c, 0, 73, 0
2,213057, Control_c, 0, 64, 105
2,213066, Note_on_c, 0, 71, 79
2,213076, Control_c, 0, 64, 127
2,213341, Note_on_c, 0, 52, 0
2,213350, Note_on_c, 0, 73, 81
2,213359, Note_on_c, 0, 57, 70
2,213383, Control_c, 0, 64, 87
2,213388, Note_on_c, 0, 71, 0
2,213402, Control_c, 0, 64, 66
2,213422, Control_c, 0, 64, 31
2,213440, Control_c, 0, 64, 0
2,213575, Control_c, 0, 64, 44
2,213593, Control_c, 0, 64, 62
2,213613, Control_c, 0, 64, 67
2,213632, Control_c, 0, 64, 73
2,213646, Note_on_c, 0, 57, 0
2,213651, Control_c, 0, 64, 84
2,213670, Control_c, 0, 64, 106
2,213690, Control_c, 0, 64, 127
2,213928, Note_on_c, 0, 57, 87
2,214013, Note_on_c, 0, 57, 0
2,214425, Note_on_c, 0, 76, 0
2,214563, Note_on_c, 0, 75, 90
2,214592, Note_on_c, 0, 71, 62
2,214598, Note_on_c, 0, 57, 55
2,214618, Note_on_c, 0, 55, 49
2,214623, Note_on_c, 0, 73, 0
2,214631, Control_c, 0, 64, 103
2,214651, Control_c, 0, 64, 69
2,214660, Note_on_c, 0, 55, 0
2,214670, Control_c, 0, 64, 13
2,214689, Control_c, 0, 64, 0
2,214785, Control_c, 0, 64, 31
2,214804, Control_c, 0, 64, 61
2,214823, Control_c, 0, 64, 66
2,214842, Control_c, 0, 64, 71
2,214862, Control_c, 0, 64, 83
2,214880, Control_c, 0, 64, 127
2,215073, Control_c, 0, 64, 91
2,215089, Note_on_c, 0, 57, 0
2,215092, Control_c, 0, 64, 68
2,215093, Note_on_c, 0, 59, 79
2,215103, Note_on_c, 0, 55, 61
2,215111, Control_c, 0, 64, 59
2,215131, Control_c, 0, 64, 60
2,215150, Control_c, 0, 64, 63
2,215169, Control_c, 0, 64, 68
2,215188, Control_c, 0, 64, 79
2,215207, Control_c, 0, 64, 127
2,215291, Note_on_c, 0, 55, 0
2,215322, Note_on_c, 0, 54, 72
2,215327, Note_on_c, 0, 59, 0
2,215360, Note_on_c, 0, 71, 0
2,215630, Note_on_c, 0, 79, 94
2,215649, Note_on_c, 0, 71, 78
2,215651, Note_on_c, 0, 64, 77
2,215654, Note_on_c, 0, 52, 62
2,215656, Note_on_c, 0, 54, 0
2,215667, Control_c, 0, 64, 98
2,215667, Note_on_c, 0, 75, 0
2,215686, Control_c, 0, 64, 74
2,215705, Control_c, 0, 64, 57
2,215724, Control_c, 0, 64, 0
2,215898, Control_c, 0, 64, 17
2,215916, Control_c, 0, 64, 39
2,215936, Control_c, 0, 64, 58
2,215955, Control_c, 0, 64, 66
2,215975, Control_c, 0, 64, 73
2,215993, Control_c, 0, 64, 91
2,216013, Control_c, 0, 64, 127
2,216015, Note_on_c, 0, 64, 0
2,216197, Note_on_c, 0, 64, 84
2,216278, Note_on_c, 0, 79, 0
2,216285, Note_on_c, 0, 71, 0
2,216346, Note_on_c, 0, 64, 0
2,216762, Note_on_c, 0, 78, 87
2,216781, Control_c, 0, 64, 105
2,216790, Note_on_c, 0, 70, 71
2,216800, Control_c, 0, 64, 79
2,216804, Note_on_c, 0, 64, 56
2,216819, Control_c, 0, 64, 63
2,216838, Control_c, 0, 64, 0
2,216935, Control_c, 0, 64, 34
2,216953, Control_c, 0, 64, 52
2,216973, Control_c, 0, 64, 61
2,216992, Control_c, 0, 64, 66
2,217011, Control_c, 0, 64, 78
2,217025, Note_on_c, 0, 52, 0
2,217030, Control_c, 0, 64, 116
2,217047, Note_on_c, 0, 64, 0
2,217050, Control_c, 0, 64, 127
2,217301, Note_on_c, 0, 78, 0
2,217363, Note_on_c, 0, 62, 70
2,217375, Note_on_c, 0, 54, 68
2,217415, Control_c, 0, 64, 84
2,217433, Control_c, 0, 64, 68
2,217453, Control_c, 0, 64, 59
2,217472, Control_c, 0, 64, 52
2,217491, Control_c, 0, 64, 54
2,217510, Control_c, 0, 64, 61
2,217530, Control_c, 0, 64, 64
2,217549, Control_c, 0, 64, 67
2,217567, Control_c, 0, 64, 71
2,217587, Control_c, 0, 64, 77
2,217606, Control_c, 0, 64, 89
2,217613, Note_on_c, 0, 61, 76
2,217625, Control_c, 0, 64, 117
2,217644, Control_c, 0, 64, 127
2,217673, Note_on_c, 0, 62, 0
2,217775, Note_on_c, 0, 54, 0
2,217908, Note_on_c, 0, 61, 0
2,217914, Note_on_c, 0, 74, 85
2,217927, Note_on_c, 0, 59, 57
2,217933, Control_c, 0, 64, 106
2,217938, Note_on_c, 0, 66, 70
2,217940, Note_on_c, 0, 70, 0
2,217952, Control_c, 0, 64, 87
2,217971, Control_c, 0, 64, 69
2,217990, Control_c, 0, 64, 52
2,218010, Control_c, 0, 64, 0
2,218144, Control_c, 0, 64, 45
2,218150, Note_on_c, 0, 59, 0
2,218163, Control_c, 0, 64, 60
2,218182, Control_c, 0, 64, 64
2,218201, Control_c, 0, 64, 71
2,218221, Control_c, 0, 64, 92
2,218240, Control_c, 0, 64, 127
2,218478, Note_on_c, 0, 59, 86
2,218600, Note_on_c, 0, 59, 0
2,218686, Note_on_c, 0, 66, 0
2,219085, Note_on_c, 0, 73, 90
2,219108, Note_on_c, 0, 59, 77
2,219120, Note_on_c, 0, 65, 56
2,219133, Note_on_c, 0, 74, 0
2,219147, Control_c, 0, 64, 88
2,219167, Control_c, 0, 64, 65
2,219186, Control_c, 0, 64, 0
2,219262, Control_c, 0, 64, 9
2,219281, Control_c, 0, 64, 49
2,219300, Control_c, 0, 64, 59
2,219320, Control_c, 0, 64, 64
2,219339, Control_c, 0, 64, 72
2,219358, Control_c, 0, 64, 101
2,219372, Note_on_c, 0, 65, 0
2,219377, Control_c, 0, 64, 127
2,219655, Note_on_c, 0, 59, 0
2,219682, Note_on_c, 0, 57, 80
2,219685, Note_on_c, 0, 61, 81
2,219945, Note_on_c, 0, 56, 82
2,219975, Note_on_c, 0, 57, 0
2,220126, Note_on_c, 0, 61, 0
2,220190, Note_on_c, 0, 69, 81
2,220199, Note_on_c, 0, 56, 0
2,220203, Control_c, 0, 64, 79
2,220209, Note_on_c, 0, 49, 77
2,220211, Note_on_c, 0, 57, 75
2,220216, Note_on_c, 0, 66, 57
2,220222, Control_c, 0, 64, 59
2,220226, Note_on_c, 0, 73, 0
2,220241, Control_c, 0, 64, 0
2,220348, Note_on_c, 0, 66, 0
2,220395, Control_c, 0, 64, 43
2,220414, Control_c, 0, 64, 57
2,220434, Control_c, 0, 64, 62
2,220452, Control_c, 0, 64, 68
2,220463, Note_on_c, 0, 57, 0
2,220467, Note_on_c, 0, 56, 78
2,220472, Control_c, 0, 64, 76
2,220491, Control_c, 0, 64, 87
2,220510, Control_c, 0, 64, 92
2,220529, Control_c, 0, 64, 92
2,220548, Control_c, 0, 64, 89
2,220568, Control_c, 0, 64, 84
2,220586, Control_c, 0, 64, 76
2,220606, Control_c, 0, 64, 69
2,220625, Control_c, 0, 64, 63
2,220645, Control_c, 0, 64, 51
2,220663, Control_c, 0, 64, 0
2,220670, Note_on_c, 0, 56, 0
2,220721, Note_on_c, 0, 66, 82
2,220736, Note_on_c, 0, 54, 64
2,220856, Control_c, 0, 64, 48
2,220875, Control_c, 0, 64, 55
2,220880, Note_on_c, 0, 69, 0
2,220882, Note_on_c, 0, 49, 0
2,220894, Control_c, 0, 64, 60
2,220914, Control_c, 0, 64, 64
2,220932, Control_c, 0, 64, 69
2,220944, Note_on_c, 0, 54, 0
2,220952, Control_c, 0, 64, 82
2,220971, Control_c, 0, 64, 127
2,220974, Note_on_c, 0, 52, 77
2,221021, Note_on_c, 0, 66, 0
2,221100, Note_on_c, 0, 52, 0
2,221338, Note_on_c, 0, 68, 87
2,221346, Note_on_c, 0, 48, 41
2,221359, Note_on_c, 0, 66, 68
2,221383, Note_on_c, 0, 51, 53
2,221394, Control_c, 0, 64, 91
2,221412, Control_c, 0, 64, 69
2,221431, Control_c, 0, 64, 51
2,221451, Control_c, 0, 64, 0
2,221566, Control_c, 0, 64, 50
2,221585, Control_c, 0, 64, 62
2,221605, Control_c, 0, 64, 64
2,221623, Control_c, 0, 64, 66
2,221643, Control_c, 0, 64, 71
2,221662, Control_c, 0, 64, 86
2,221681, Control_c, 0, 64, 127
2,221692, Note_on_c, 0, 68, 0
2,221882, Note_on_c, 0, 66, 0
2,221950, Note_on_c, 0, 68, 81
2,221970, Note_on_c, 0, 64, 65
2,221989, Control_c, 0, 64, 89
2,222009, Control_c, 0, 64, 69
2,222021, Note_on_c, 0, 51, 0
2,222027, Control_c, 0, 64, 55
2,222047, Control_c, 0, 64, 0
2,222067, Note_on_c, 0, 64, 0
2,222104, Control_c, 0, 64, 52
2,222124, Control_c, 0, 64, 62
2,222142, Control_c, 0, 64, 65
2,222161, Control_c, 0, 64, 69
2,222180, Control_c, 0, 64, 75
2,222200, Control_c, 0, 64, 87
2,222219, Control_c, 0, 64, 121
2,222226, Note_on_c, 0, 63, 75
2,222238, Control_c, 0, 64, 127
2,222383, Note_on_c, 0, 68, 0
2,222483, Note_on_c, 0, 63, 0
2,222486, Note_on_c, 0, 73, 80
2,222488, Control_c, 0, 64, 85
2,222495, Note_on_c, 0, 52, 71
2,222506, Control_c, 0, 64, 65
2,222510, Note_on_c, 0, 48, 0
2,222510, Note_on_c, 0, 64, 58
2,222526, Control_c, 0, 64, 43
2,222545, Control_c, 0, 64, 0
2,222660, Control_c, 0, 64, 34
2,222680, Control_c, 0, 64, 55
2,222699, Control_c, 0, 64, 61
2,222718, Control_c, 0, 64, 64
2,222737, Control_c, 0, 64, 67
2,222757, Control_c, 0, 64, 74
2,222757, Note_on_c, 0, 73, 0
2,222776, Control_c, 0, 64, 94
2,222795, Control_c, 0, 64, 127
2,223034, Note_on_c, 0, 73, 84
2,223045, Note_on_c, 0, 56, 83
2,223127, Note_on_c, 0, 52, 0
2,223130, Note_on_c, 0, 64, 0
2,223184, Note_on_c, 0, 56, 0
2,223274, Note_on_c, 0, 73, 0
2,223665, Note_on_c, 0, 73, 81
2,223681, Note_on_c, 0, 63, 77
2,223701, Note_on_c, 0, 66, 54
2,223706, Note_on_c, 0, 51, 61
2,223755, Control_c, 0, 64, 94
2,223774, Control_c, 0, 64, 69
2,223794, Control_c, 0, 64, 45
2,223812, Control_c, 0, 64, 0
2,223909, Control_c, 0, 64, 51
2,223929, Control_c, 0, 64, 62
2,223947, Control_c, 0, 64, 65
2,223967, Control_c, 0, 64, 71
2,223986, Control_c, 0, 64, 89
2,224006, Control_c, 0, 64, 127
2,224056, Note_on_c, 0, 63, 0
2,224237, Note_on_c, 0, 72, 79
2,224250, Note_on_c, 0, 63, 81
2,224261, Note_on_c, 0, 66, 0
2,224281, Note_on_c, 0, 73, 0
2,224429, Note_on_c, 0, 63, 0
2,224481, Note_on_c, 0, 70, 88
2,224526, Note_on_c, 0, 72, 0
2,224726, Note_on_c, 0, 70, 0
2,224735, Control_c, 0, 64, 83
2,224737, Note_on_c, 0, 78, 88
2,224740, Note_on_c, 0, 72, 86
2,224751, Note_on_c, 0, 63, 80
2,224755, Control_c, 0, 64, 65
2,224773, Control_c, 0, 64, 34
2,224793, Control_c, 0, 64, 0
2,224869, Control_c, 0, 64, 41
2,224889, Control_c, 0, 64, 61
2,224907, Control_c, 0, 64, 66
2,224927, Control_c, 0, 64, 72
2,224946, Control_c, 0, 64, 91
2,224946, Note_on_c, 0, 63, 0
2,224966, Control_c, 0, 64, 127
2,224995, Note_on_c, 0, 73, 87
2,225025, Note_on_c, 0, 72, 0
2,225027, Note_on_c, 0, 78, 0
2,225258, Note_on_c, 0, 61, 89
2,225261, Note_on_c, 0, 78, 87
2,225269, Note_on_c, 0, 75, 79
2,225292, Control_c, 0, 64, 80
2,225303, Note_on_c, 0, 73, 0
2,225310, Control_c, 0, 64, 64
2,225330, Control_c, 0, 64, 48
2,225349, Control_c, 0, 64, 17
2,225369, Control_c, 0, 64, 0
2,225407, Control_c, 0, 64, 45
2,225426, Control_c, 0, 64, 62
2,225446, Control_c, 0, 64, 67
2,225446, Note_on_c, 0, 61, 0
2,225464, Control_c, 0, 64, 74
2,225484, Control_c, 0, 64, 86
2,225503, Control_c, 0, 64, 109
2,225522, Control_c, 0, 64, 127
2,225536, Note_on_c, 0, 60, 87
2,225541, Note_on_c, 0, 51, 0
2,225542, Note_on_c, 0, 68, 93
2,225603, Note_on_c, 0, 60, 0
2,225608, Note_on_c, 0, 75, 0
2,225629, Note_on_c, 0, 78, 0
2,225811, Note_on_c, 0, 68, 0
2,225929, Note_on_c, 0, 78, 92
2,225936, Note_on_c, 0, 61, 90
2,225940, Note_on_c, 0, 69, 79
2,225956, Note_on_c, 0, 49, 71
2,226021, Control_c, 0, 64, 79
2,226041, Control_c, 0, 64, 60
2,226060, Control_c, 0, 64, 0
2,226156, Control_c, 0, 64, 19
2,226175, Control_c, 0, 64, 55
2,226195, Control_c, 0, 64, 63
2,226213, Control_c, 0, 64, 66
2,226233, Control_c, 0, 64, 71
2,226241, Note_on_c, 0, 69, 0
2,226252, Control_c, 0, 64, 78
2,226259, Note_on_c, 0, 78, 0
2,226270, Control_c, 0, 64, 97
2,226290, Control_c, 0, 64, 127
2,226565, Note_on_c, 0, 52, 62
2,226578, Note_on_c, 0, 76, 76
2,226583, Note_on_c, 0, 68, 76
2,226585, Note_on_c, 0, 73, 64
2,226612, Note_on_c, 0, 49, 0
2,226655, Control_c, 0, 64, 85
2,226675, Control_c, 0, 64, 65
2,226693, Control_c, 0, 64, 54
2,226712, Control_c, 0, 64, 56
2,226732, Control_c, 0, 64, 62
2,226749, Note_on_c, 0, 68, 0
2,226750, Control_c, 0, 64, 66
2,226770, Control_c, 0, 64, 78
2,226789, Control_c, 0, 64, 119
2,226809, Control_c, 0, 64, 127
2,226859, Note_on_c, 0, 66, 82
2,226860, Note_on_c, 0, 75, 81
2,226867, Note_on_c, 0, 72, 75
2,226890, Note_on_c, 0, 76, 0
2,226903, Note_on_c, 0, 73, 0
2,226965, Note_on_c, 0, 66, 0
2,227112, Note_on_c, 0, 75, 0
2,227124, Note_on_c, 0, 76, 86
2,227137, Note_on_c, 0, 57, 70
2,227137, Note_on_c, 0, 72, 0
2,227139, Note_on_c, 0, 68, 79
2,227141, Note_on_c, 0, 52, 0
2,227146, Note_on_c, 0, 73, 65
2,227154, Control_c, 0, 64, 78
2,227172, Control_c, 0, 64, 59
2,227191, Control_c, 0, 64, 0
2,227268, Control_c, 0, 64, 55
2,227288, Control_c, 0, 64, 66
2,227306, Control_c, 0, 64, 75
2,227319, Note_on_c, 0, 76, 0
2,227326, Control_c, 0, 64, 118
2,227345, Control_c, 0, 64, 127
2,227350, Note_on_c, 0, 68, 0
2,227416, Note_on_c, 0, 73, 0
2,227443, Note_on_c, 0, 57, 0
2,227638, Note_on_c, 0, 75, 87
2,227648, Note_on_c, 0, 66, 75
2,227650, Note_on_c, 0, 61, 0
2,227663, Note_on_c, 0, 57, 74
2,227669, Control_c, 0, 64, 115
2,227688, Control_c, 0, 64, 74
2,227708, Control_c, 0, 64, 61
2,227726, Control_c, 0, 64, 54
2,227746, Control_c, 0, 64, 61
2,227758, Note_on_c, 0, 66, 0
2,227765, Control_c, 0, 64, 65
2,227784, Control_c, 0, 64, 72
2,227803, Control_c, 0, 64, 89
2,227823, Control_c, 0, 64, 127
2,227886, Note_on_c, 0, 57, 0
2,227905, Note_on_c, 0, 73, 85
2,227918, Note_on_c, 0, 64, 69
2,227949, Note_on_c, 0, 75, 0
2,228019, Note_on_c, 0, 64, 0
2,228244, Note_on_c, 0, 75, 89
2,228261, Note_on_c, 0, 73, 0
2,228264, Note_on_c, 0, 63, 64
2,228266, Note_on_c, 0, 60, 78
2,228268, Note_on_c, 0, 57, 70
2,228268, Note_on_c, 0, 66, 61
2,228323, Control_c, 0, 64, 115
2,228341, Control_c, 0, 64, 78
2,228361, Control_c, 0, 64, 63
2,228380, Control_c, 0, 64, 23
2,228399, Control_c, 0, 64, 0
2,228476, Control_c, 0, 64, 47
2,228495, Control_c, 0, 64, 64
2,228515, Control_c, 0, 64, 70
2,228533, Control_c, 0, 64, 83
2,228553, Control_c, 0, 64, 114
2,228572, Control_c, 0, 64, 127
2,228784, Control_c, 0, 64, 86
2,228803, Control_c, 0, 64, 67
2,228821, Control_c, 0, 64, 63
2,228821, Note_on_c, 0, 72, 79
2,228839, Note_on_c, 0, 56, 79
2,228841, Control_c, 0, 64, 65
2,228856, Note_on_c, 0, 66, 0
2,228859, Note_on_c, 0, 57, 0
2,228860, Control_c, 0, 64, 68
2,228878, Note_on_c, 0, 75, 0
2,228879, Control_c, 0, 64, 75
2,228898, Control_c, 0, 64, 96
2,228918, Control_c, 0, 64, 127
2,229013, Note_on_c, 0, 60, 0
2,229073, Note_on_c, 0, 54, 82
2,229076, Note_on_c, 0, 56, 0
2,229115, Note_on_c, 0, 63, 0
2,229298, Note_on_c, 0, 54, 0
2,229331, Note_on_c, 0, 73, 90
2,229345, Note_on_c, 0, 64, 72
2,229352, Note_on_c, 0, 68, 75
2,229358, Note_on_c, 0, 52, 65
2,229377, Note_on_c, 0, 72, 0
2,229378, Control_c, 0, 64, 91
2,229398, Control_c, 0, 64, 71
2,229417, Control_c, 0, 64, 64
2,229436, Control_c, 0, 64, 62
2,229455, Control_c, 0, 64, 61
2,229475, Control_c, 0, 64, 59
2,229493, Control_c, 0, 64, 57
2,229513, Control_c, 0, 64, 54
2,229532, Control_c, 0, 64, 52
2,229552, Control_c, 0, 64, 51
2,229570, Control_c, 0, 64, 50
2,229590, Control_c, 0, 64, 46
2,229602, Note_on_c, 0, 51, 68
2,229609, Control_c, 0, 64, 38
2,229628, Control_c, 0, 64, 29
2,229639, Note_on_c, 0, 52, 0
2,229647, Control_c, 0, 64, 21
2,229667, Control_c, 0, 64, 13
2,229686, Control_c, 0, 64, 0
2,229872, Note_on_c, 0, 49, 65
2,229915, Note_on_c, 0, 51, 0
2,230127, Note_on_c, 0, 49, 0
2,230146, Note_on_c, 0, 47, 60
2,230505, Note_on_c, 0, 46, 65
2,230526, Note_on_c, 0, 47, 0
2,230672, Note_on_c, 0, 64, 0
2,231070, Control_c, 0, 64, 29
2,231089, Control_c, 0, 64, 42
2,231108, Control_c, 0, 64, 50
2,231120, Note_on_c, 0, 49, 62
2,231128, Control_c, 0, 64, 55
2,231146, Control_c, 0, 64, 59
2,231166, Control_c, 0, 64, 62
2,231185, Control_c, 0, 64, 64
2,231205, Control_c, 0, 64, 66
2,231223, Control_c, 0, 64, 69
2,231243, Control_c, 0, 64, 73
2,231262, Control_c, 0, 64, 79
2,231281, Control_c, 0, 64, 86
2,231300, Control_c, 0, 64, 96
2,231320, Control_c, 0, 64, 127
2,231357, Note_on_c, 0, 46, 0
2,231495, Note_on_c, 0, 73, 0
2,231696, Note_on_c, 0, 66, 69
2,231730, Note_on_c, 0, 54, 50
2,231731, Note_on_c, 0, 63, 47
2,231733, Note_on_c, 0, 45, 42
2,231762, Note_on_c, 0, 68, 0
2,231780, Control_c, 0, 64, 91
2,231781, Note_on_c, 0, 49, 0
2,231800, Control_c, 0, 64, 70
2,231819, Control_c, 0, 64, 56
2,231838, Control_c, 0, 64, 0
2,231934, Control_c, 0, 64, 26
2,231953, Control_c, 0, 64, 56
2,231972, Control_c, 0, 64, 63
2,231991, Control_c, 0, 64, 67
2,232004, Note_on_c, 0, 63, 0
2,232011, Control_c, 0, 64, 74
2,232030, Control_c, 0, 64, 83
2,232049, Control_c, 0, 64, 99
2,232050, Note_on_c, 0, 54, 0
2,232068, Control_c, 0, 64, 127
2,232203, Control_c, 0, 64, 95
2,232222, Control_c, 0, 64, 73
2,232241, Control_c, 0, 64, 64
2,232258, Note_on_c, 0, 54, 63
2,232258, Note_on_c, 0, 61, 73
2,232260, Control_c, 0, 64, 61
2,232280, Control_c, 0, 64, 63
2,232299, Control_c, 0, 64, 65
2,232318, Control_c, 0, 64, 69
2,232337, Control_c, 0, 64, 78
2,232357, Control_c, 0, 64, 94
2,232376, Control_c, 0, 64, 127
2,232534, Note_on_c, 0, 54, 0
2,232616, Note_on_c, 0, 61, 0
2,232863, Note_on_c, 0, 72, 84
2,232894, Control_c, 0, 64, 101
2,232909, Note_on_c, 0, 63, 48
2,232912, Note_on_c, 0, 66, 0
2,232913, Control_c, 0, 64, 78
2,232930, Note_on_c, 0, 54, 44
2,232932, Control_c, 0, 64, 63
2,232951, Control_c, 0, 64, 25
2,232971, Control_c, 0, 64, 0
2,233048, Control_c, 0, 64, 35
2,233066, Control_c, 0, 64, 59
2,233086, Control_c, 0, 64, 64
2,233105, Control_c, 0, 64, 68
2,233124, Note_on_c, 0, 63, 0
2,233125, Control_c, 0, 64, 73
2,233143, Control_c, 0, 64, 85
2,233163, Control_c, 0, 64, 127
2,233280, Note_on_c, 0, 54, 0
2,233416, Note_on_c, 0, 53, 64
2,233418, Note_on_c, 0, 65, 69
2,233419, Note_on_c, 0, 45, 0
2,233437, Note_on_c, 0, 44, 56
2,233515, Note_on_c, 0, 53, 0
2,233650, Note_on_c, 0, 44, 0
2,233662, Note_on_c, 0, 42, 63
2,233663, Note_on_c, 0, 66, 80
2,233666, Note_on_c, 0, 51, 63
2,233690, Note_on_c, 0, 72, 0
2,233747, Note_on_c, 0, 65, 0
2,233991, Note_on_c, 0, 71, 78
2,234013, Note_on_c, 0, 49, 55
2,234020, Note_on_c, 0, 42, 0
2,234020, Note_on_c, 0, 68, 64
2,234025, Note_on_c, 0, 41, 44
2,234026, Control_c, 0, 64, 110
2,234040, Note_on_c, 0, 66, 0
2,234043, Note_on_c, 0, 51, 0
2,234046, Control_c, 0, 64, 83
2,234065, Control_c, 0, 64, 66
2,234085, Control_c, 0, 64, 50
2,234103, Control_c, 0, 64, 0
2,234277, Control_c, 0, 64, 19
2,234296, Control_c, 0, 64, 48
2,234315, Control_c, 0, 64, 59
2,234334, Control_c, 0, 64, 63
2,234339, Note_on_c, 0, 68, 0
2,234353, Control_c, 0, 64, 65
2,234372, Control_c, 0, 64, 67
2,234391, Control_c, 0, 64, 71
2,234411, Control_c, 0, 64, 77
2,234430, Control_c, 0, 64, 87
2,234449, Control_c, 0, 64, 104
2,234468, Control_c, 0, 64, 127
2,234566, Note_on_c, 0, 68, 80
2,234646, Note_on_c, 0, 71, 0
2,235083, Note_on_c, 0, 42, 51
2,235166, Note_on_c, 0, 41, 0
2,235187, Note_on_c, 0, 70, 77
2,235213, Note_on_c, 0, 68, 0
2,235256, Control_c, 0, 64, 84
2,235275, Control_c, 0, 64, 67
2,235294, Control_c, 0, 64, 53
2,235313, Control_c, 0, 64, 0
2,235456, Note_on_c, 0, 49, 0
2,235466, Control_c, 0, 64, 36
2,235486, Control_c, 0, 64, 52
2,235505, Control_c, 0, 64, 58
2,235525, Control_c, 0, 64, 61
2,235543, Control_c, 0, 64, 62
2,235563, Control_c, 0, 64, 64
2,235580, Control_c, 0, 64, 66
2,235600, Control_c, 0, 64, 67
2,235618, Control_c, 0, 64, 70
2,235638, Control_c, 0, 64, 74
2,235657, Control_c, 0, 64, 79
2,235676, Control_c, 0, 64, 85
2,235695, Control_c, 0, 64, 90
2,235698, Note_on_c, 0, 66, 69
2,235715, Control_c, 0, 64, 101
2,235734, Control_c, 0, 64, 127
2,235738, Note_on_c, 0, 61, 48
2,235966, Note_on_c, 0, 70, 0
2,235969, Note_on_c, 0, 64, 74
2,236024, Note_on_c, 0, 61, 0
2,236036, Note_on_c, 0, 66, 0
2,236285, Note_on_c, 0, 69, 76
2,236296, Note_on_c, 0, 64, 0
2,236309, Note_on_c, 0, 51, 42
2,236309, Note_on_c, 0, 66, 61
2,236330, Note_on_c, 0, 63, 41
2,236348, Control_c, 0, 64, 112
2,236367, Control_c, 0, 64, 83
2,236386, Control_c, 0, 64, 64
2,236406, Control_c, 0, 64, 0
2,236501, Note_on_c, 0, 66, 0
2,236521, Control_c, 0, 64, 36
2,236540, Control_c, 0, 64, 58
2,236560, Control_c, 0, 64, 63
2,236578, Control_c, 0, 64, 65
2,236588, Note_on_c, 0, 42, 0
2,236598, Control_c, 0, 64, 68
2,236617, Control_c, 0, 64, 72
2,236636, Control_c, 0, 64, 80
2,236655, Control_c, 0, 64, 93
2,236675, Control_c, 0, 64, 127
2,236696, Note_on_c, 0, 63, 0
2,236847, Control_c, 0, 64, 118
2,236866, Control_c, 0, 64, 80
2,236881, Note_on_c, 0, 66, 67
2,236886, Control_c, 0, 64, 65
2,236903, Note_on_c, 0, 61, 47
2,236905, Control_c, 0, 64, 56
2,236924, Control_c, 0, 64, 55
2,236943, Control_c, 0, 64, 59
2,236963, Control_c, 0, 64, 63
2,236981, Control_c, 0, 64, 66
2,237001, Control_c, 0, 64, 72
2,237020, Control_c, 0, 64, 85
2,237040, Control_c, 0, 64, 105
2,237058, Control_c, 0, 64, 127
2,237062, Note_on_c, 0, 69, 0
2,237271, Note_on_c, 0, 61, 0
2,237279, Note_on_c, 0, 66, 0
2,237520, Note_on_c, 0, 51, 0
2,237568, Note_on_c, 0, 44, 38
2,237648, Note_on_c, 0, 68, 68
2,237666, Note_on_c, 0, 66, 53
2,237690, Note_on_c, 0, 60, 42
2,237745, Control_c, 0, 64, 78
2,237764, Control_c, 0, 64, 60
2,237784, Control_c, 0, 64, 33
2,237802, Control_c, 0, 64, 0
2,237861, Control_c, 0, 64, 17
2,237879, Control_c, 0, 64, 39
2,237899, Control_c, 0, 64, 54
2,237918, Control_c, 0, 64, 62
2,237937, Control_c, 0, 64, 66
2,237956, Control_c, 0, 64, 71
2,237976, Control_c, 0, 64, 79
2,237995, Control_c, 0, 64, 88
2,238014, Control_c, 0, 64, 92
2,238033, Control_c, 0, 64, 93
2,238053, Control_c, 0, 64, 95
2,238071, Control_c, 0, 64, 101
2,238090, Control_c, 0, 64, 118
2,238110, Control_c, 0, 64, 127
2,238244, Control_c, 0, 64, 107
2,238264, Control_c, 0, 64, 81
2,238280, Note_on_c, 0, 51, 40
2,238281, Note_on_c, 0, 64, 55
2,238282, Control_c, 0, 64, 66
2,238302, Control_c, 0, 64, 57
2,238315, Note_on_c, 0, 66, 0
2,238321, Control_c, 0, 64, 49
2,238341, Control_c, 0, 64, 44
2,238359, Control_c, 0, 64, 42
2,238379, Control_c, 0, 64, 43
2,238398, Control_c, 0, 64, 49
2,238417, Control_c, 0, 64, 57
2,238436, Control_c, 0, 64, 62
2,238453, Control_c, 0, 64, 65
2,238472, Control_c, 0, 64, 70
2,238490, Control_c, 0, 64, 75
2,238502, Note_on_c, 0, 60, 0
2,238510, Control_c, 0, 64, 81
2,238529, Control_c, 0, 64, 86
2,238534, Note_on_c, 0, 64, 0
2,238541, Note_on_c, 0, 63, 63
2,238549, Control_c, 0, 64, 90
2,238567, Control_c, 0, 64, 92
2,238587, Control_c, 0, 64, 94
2,238606, Control_c, 0, 64, 99
2,238625, Control_c, 0, 64, 104
2,238644, Control_c, 0, 64, 108
2,238664, Control_c, 0, 64, 109
2,238683, Control_c, 0, 64, 110
2,238702, Control_c, 0, 64, 112
2,238721, Control_c, 0, 64, 113
2,238731, Note_on_c, 0, 51, 0
2,238760, Control_c, 0, 64, 110
2,238779, Control_c, 0, 64, 101
2,238798, Control_c, 0, 64, 93
2,238818, Control_c, 0, 64, 87
2,238820, Note_on_c, 0, 63, 0
2,238836, Control_c, 0, 64, 82
2,238843, Note_on_c, 0, 64, 55
2,238856, Control_c, 0, 64, 73
2,238875, Control_c, 0, 64, 61
2,238876, Note_on_c, 0, 56, 40
2,238889, Note_on_c, 0, 61, 37
2,238895, Control_c, 0, 64, 42
2,238913, Control_c, 0, 64, 15
2,238933, Control_c, 0, 64, 0
2,238990, Control_c, 0, 64, 13
2,239009, Control_c, 0, 64, 37
2,239029, Control_c, 0, 64, 51
2,239047, Control_c, 0, 64, 58
2,239067, Control_c, 0, 64, 61
2,239086, Control_c, 0, 64, 63
2,239105, Control_c, 0, 64, 64
2,239124, Control_c, 0, 64, 66
2,239143, Note_on_c, 0, 56, 0
2,239144, Control_c, 0, 64, 69
2,239163, Control_c, 0, 64, 72
2,239182, Control_c, 0, 64, 78
2,239201, Control_c, 0, 64, 84
2,239228, Control_c, 0, 64, 90
2,239247, Control_c, 0, 64, 98
2,239267, Control_c, 0, 64, 109
2,239285, Control_c, 0, 64, 127
2,239340, Note_on_c, 0, 64, 0
2,239408, Note_on_c, 0, 56, 64
2,239506, Note_on_c, 0, 56, 0
2,240018, Note_on_c, 0, 70, 74
2,240056, Note_on_c, 0, 68, 0
2,240093, Note_on_c, 0, 56, 46
2,240106, Control_c, 0, 64, 119
2,240125, Control_c, 0, 64, 78
2,240144, Control_c, 0, 64, 62
2,240163, Control_c, 0, 64, 36
2,240185, Control_c, 0, 64, 9
2,240223, Control_c, 0, 64, 27
2,240242, Control_c, 0, 64, 50
2,240261, Control_c, 0, 64, 63
2,240280, Control_c, 0, 64, 66
2,240300, Control_c, 0, 64, 71
2,240319, Control_c, 0, 64, 79
2,240338, Control_c, 0, 64, 91
2,240347, Note_on_c, 0, 56, 0
2,240357, Control_c, 0, 64, 107
2,240376, Control_c, 0, 64, 127
2,240605, Control_c, 0, 64, 91
2,240625, Control_c, 0, 64, 73
2,240626, Note_on_c, 0, 66, 58
2,240635, Note_on_c, 0, 54, 41
2,240644, Control_c, 0, 64, 67
2,240664, Control_c, 0, 64, 69
2,240682, Control_c, 0, 64, 75
2,240702, Control_c, 0, 64, 88
2,240721, Control_c, 0, 64, 127
2,240874, Note_on_c, 0, 68, 81
2,240880, Note_on_c, 0, 54, 0
2,240888, Note_on_c, 0, 70, 0
2,240890, Note_on_c, 0, 52, 61
2,240897, Note_on_c, 0, 61, 0
2,240941, Note_on_c, 0, 66, 0
2,241047, Note_on_c, 0, 52, 0
2,241148, Note_on_c, 0, 72, 78
2,241150, Note_on_c, 0, 68, 0
2,241162, Control_c, 0, 64, 110
2,241164, Note_on_c, 0, 69, 58
2,241178, Note_on_c, 0, 63, 56
2,241182, Control_c, 0, 64, 75
2,241192, Note_on_c, 0, 54, 45
2,241201, Control_c, 0, 64, 57
2,241221, Control_c, 0, 64, 0
2,241337, Control_c, 0, 64, 45
2,241355, Control_c, 0, 64, 60
2,241375, Control_c, 0, 64, 64
2,241394, Control_c, 0, 64, 67
2,241414, Control_c, 0, 64, 72
2,241432, Control_c, 0, 64, 81
2,241451, Control_c, 0, 64, 93
2,241462, Note_on_c, 0, 54, 0
2,241471, Control_c, 0, 64, 110
2,241490, Control_c, 0, 64, 127
2,241695, Note_on_c, 0, 68, 81
2,241735, Note_on_c, 0, 54, 60
2,241765, Note_on_c, 0, 72, 0
2,241798, Note_on_c, 0, 69, 0
2,241808, Note_on_c, 0, 63, 0
2,241917, Note_on_c, 0, 54, 0
2,241986, Note_on_c, 0, 68, 0
2,242370, Note_on_c, 0, 73, 89
2,242415, Note_on_c, 0, 61, 51
2,242417, Note_on_c, 0, 54, 48
2,242508, Control_c, 0, 64, 81
2,242526, Control_c, 0, 64, 65
2,242546, Control_c, 0, 64, 24
2,242565, Control_c, 0, 64, 0
2,242770, Note_on_c, 0, 61, 0
2,242815, Control_c, 0, 64, 21
2,242834, Control_c, 0, 64, 50
2,242854, Control_c, 0, 64, 63
2,242872, Control_c, 0, 64, 67
2,242891, Control_c, 0, 64, 73
2,242911, Control_c, 0, 64, 86
2,242929, Note_on_c, 0, 64, 72
2,242930, Control_c, 0, 64, 127
2,242936, Note_on_c, 0, 61, 62
2,242939, Note_on_c, 0, 52, 63
2,242953, Note_on_c, 0, 54, 0
2,243172, Note_on_c, 0, 52, 0
2,243203, Note_on_c, 0, 61, 0
2,243209, Note_on_c, 0, 51, 61
2,243328, Note_on_c, 0, 51, 0
2,243377, Note_on_c, 0, 64, 0
2,243486, Control_c, 0, 64, 101
2,243494, Note_on_c, 0, 69, 78
2,243506, Control_c, 0, 64, 77
2,243511, Note_on_c, 0, 52, 62
2,243514, Note_on_c, 0, 66, 64
2,243525, Control_c, 0, 64, 61
2,243545, Control_c, 0, 64, 0
2,243679, Control_c, 0, 64, 31
2,243698, Control_c, 0, 64, 57
2,243717, Control_c, 0, 64, 64
2,243737, Control_c, 0, 64, 71
2,243758, Control_c, 0, 64, 93
2,243765, Note_on_c, 0, 66, 0
2,243777, Control_c, 0, 64, 127
2,243811, Note_on_c, 0, 69, 0
2,243840, Note_on_c, 0, 73, 0
2,244019, Note_on_c, 0, 69, 82
2,244020, Note_on_c, 0, 51, 67
2,244028, Control_c, 0, 64, 90
2,244030, Note_on_c, 0, 66, 76
2,244046, Control_c, 0, 64, 77
2,244066, Control_c, 0, 64, 72
2,244085, Control_c, 0, 64, 74
2,244103, Control_c, 0, 64, 82
2,244112, Note_on_c, 0, 52, 0
2,244123, Control_c, 0, 64, 101
2,244142, Control_c, 0, 64, 127
2,244275, Note_on_c, 0, 49, 83
2,244278, Note_on_c, 0, 51, 0
2,244285, Note_on_c, 0, 44, 0
2,244319, Note_on_c, 0, 69, 0
2,244341, Note_on_c, 0, 66, 0
2,244600, Note_on_c, 0, 49, 0
2,244611, Note_on_c, 0, 72, 88
2,244623, Note_on_c, 0, 69, 76
2,244635, Note_on_c, 0, 51, 64
2,244644, Note_on_c, 0, 66, 58
2,244680, Control_c, 0, 64, 104
2,244699, Control_c, 0, 64, 73
2,244718, Control_c, 0, 64, 51
2,244737, Control_c, 0, 64, 0
2,244853, Control_c, 0, 64, 23
2,244872, Control_c, 0, 64, 52
2,244891, Control_c, 0, 64, 59
2,244911, Control_c, 0, 64, 62
2,244929, Control_c, 0, 64, 67
2,244949, Control_c, 0, 64, 74
2,244968, Control_c, 0, 64, 95
2,244988, Control_c, 0, 64, 127
2,245109, Note_on_c, 0, 66, 0
2,245143, Note_on_c, 0, 44, 73
2,245147, Note_on_c, 0, 68, 87
2,245160, Note_on_c, 0, 64, 64
2,245174, Note_on_c, 0, 72, 0
2,245183, Note_on_c, 0, 69, 0
2,245194, Note_on_c, 0, 51, 0
2,245212, Note_on_c, 0, 64, 0
2,245363, Note_on_c, 0, 68, 0
2,245392, Note_on_c, 0, 66, 85
2,245401, Note_on_c, 0, 63, 70
2,245442, Note_on_c, 0, 63, 0
2,245457, Note_on_c, 0, 66, 0
2,245708, Note_on_c, 0, 76, 97
2,245716, Note_on_c, 0, 44, 0
2,245720, Note_on_c, 0, 64, 81
2,245723, Note_on_c, 0, 49, 79
2,245725, Note_on_c, 0, 68, 78
2,245736, Control_c, 0, 64, 102
2,245755, Control_c, 0, 64, 72
2,245774, Control_c, 0, 64, 38
2,245794, Control_c, 0, 64, 0
2,245889, Control_c, 0, 64, 24
2,245909, Control_c, 0, 64, 59
2,245928, Control_c, 0, 64, 65
2,245946, Control_c, 0, 64, 70
2,245949, Note_on_c, 0, 64, 0
2,245964, Control_c, 0, 64, 87
2,245983, Control_c, 0, 64, 127
2,245991, Note_on_c, 0, 49, 0
2,246023, Note_on_c, 0, 68, 0
2,246256, Note_on_c, 0, 70, 89
2,246262, Note_on_c, 0, 66, 82
2,246263, Note_on_c, 0, 49, 92
2,246422, Note_on_c, 0, 66, 0
2,246550, Note_on_c, 0, 72, 89
2,246551, Note_on_c, 0, 68, 94
2,246578, Note_on_c, 0, 49, 0
2,246593, Note_on_c, 0, 70, 0
2,246725, Note_on_c, 0, 72, 0
2,246996, Note_on_c, 0, 73, 85
2,247007, Note_on_c, 0, 70, 83
2,247013, Note_on_c, 0, 49, 93
2,247020, Note_on_c, 0, 43, 71
2,247037, Note_on_c, 0, 68, 0
2,247156, Control_c, 0, 64, 109
2,247175, Control_c, 0, 64, 78
2,247194, Control_c, 0, 64, 64
2,247213, Control_c, 0, 64, 39
2,247233, Control_c, 0, 64, 0
2,247559, Control_c, 0, 64, 37
2,247578, Control_c, 0, 64, 55
2,247598, Control_c, 0, 64, 59
2,247616, Control_c, 0, 64, 61
2,247636, Control_c, 0, 64, 62
2,247655, Control_c, 0, 64, 62
2,247673, Note_on_c, 0, 47, 85
2,247674, Control_c, 0, 64, 63
2,247688, Note_on_c, 0, 49, 0
2,247693, Control_c, 0, 64, 64
2,247713, Control_c, 0, 64, 62
2,247732, Control_c, 0, 64, 58
2,247751, Control_c, 0, 64, 48
2,247770, Control_c, 0, 64, 37
2,247790, Control_c, 0, 64, 41
2,247808, Control_c, 0, 64, 51
2,247828, Control_c, 0, 64, 59
2,247847, Control_c, 0, 64, 62
2,247867, Control_c, 0, 64, 64
2,247885, Control_c, 0, 64, 65
2,247904, Control_c, 0, 64, 67
2,247924, Control_c, 0, 64, 71
2,247941, Note_on_c, 0, 76, 0
2,247942, Control_c, 0, 64, 78
2,247953, Note_on_c, 0, 46, 85
2,247953, Note_on_c, 0, 47, 0
2,247956, Control_c, 0, 64, 90
2,247976, Control_c, 0, 64, 102
2,247995, Control_c, 0, 64, 121
2,248014, Control_c, 0, 64, 127
2,248058, Note_on_c, 0, 70, 0
2,248339, Note_on_c, 0, 75, 94
2,248355, Note_on_c, 0, 63, 67
2,248359, Note_on_c, 0, 70, 74
2,248375, Note_on_c, 0, 51, 71
2,248382, Note_on_c, 0, 73, 0
2,248417, Control_c, 0, 64, 112
2,248427, Note_on_c, 0, 46, 0
2,248435, Control_c, 0, 64, 97
2,248455, Control_c, 0, 64, 88
2,248474, Control_c, 0, 64, 78
2,248493, Control_c, 0, 64, 69
2,248512, Control_c, 0, 64, 62
2,248532, Control_c, 0, 64, 53
2,248551, Control_c, 0, 64, 43
2,248570, Control_c, 0, 64, 34
2,248589, Control_c, 0, 64, 18
2,248609, Control_c, 0, 64, 0
2,248965, Note_on_c, 0, 73, 83
2,249013, Control_c, 0, 64, 19
2,249032, Control_c, 0, 64, 43
2,249051, Control_c, 0, 64, 55
2,249062, Note_on_c, 0, 75, 0
2,249070, Control_c, 0, 64, 59
2,249090, Control_c, 0, 64, 62
2,249108, Control_c, 0, 64, 64
2,249128, Control_c, 0, 64, 69
2,249147, Control_c, 0, 64, 81
2,249167, Control_c, 0, 64, 127
2,249187, Note_on_c, 0, 43, 0
2,249262, Note_on_c, 0, 70, 0
2,249617, Note_on_c, 0, 44, 63
2,249693, Note_on_c, 0, 51, 0
2,249696, Note_on_c, 0, 72, 83
2,249728, Note_on_c, 0, 68, 57
2,249747, Note_on_c, 0, 73, 0
2,249838, Control_c, 0, 64, 95
2,249858, Control_c, 0, 64, 79
2,249876, Control_c, 0, 64, 67
2,249896, Control_c, 0, 64, 60
2,249915, Control_c, 0, 64, 50
2,249934, Control_c, 0, 64, 43
2,249953, Control_c, 0, 64, 37
2,249973, Control_c, 0, 64, 34
2,249992, Control_c, 0, 64, 28
2,250011, Control_c, 0, 64, 13
2,250030, Control_c, 0, 64, 0
2,250077, Note_on_c, 0, 52, 73
2,250368, Note_on_c, 0, 54, 79
2,250384, Note_on_c, 0, 52, 0
2,250472, Control_c, 0, 64, 37
2,250491, Control_c, 0, 64, 51
2,250510, Control_c, 0, 64, 57
2,250530, Control_c, 0, 64, 60
2,250548, Control_c, 0, 64, 63
2,250568, Control_c, 0, 64, 65
2,250587, Control_c, 0, 64, 68
2,250607, Control_c, 0, 64, 74
2,250625, Control_c, 0, 64, 86
2,250639, Note_on_c, 0, 68, 0
2,250645, Control_c, 0, 64, 106
2,250664, Control_c, 0, 64, 127
2,250668, Note_on_c, 0, 63, 0
2,250894, Note_on_c, 0, 73, 85
2,250920, Note_on_c, 0, 68, 68
2,250921, Note_on_c, 0, 64, 59
2,250938, Note_on_c, 0, 72, 0
2,250951, Control_c, 0, 64, 106
2,250970, Control_c, 0, 64, 99
2,250989, Control_c, 0, 64, 89
2,251009, Control_c, 0, 64, 78
2,251027, Control_c, 0, 64, 70
2,251047, Control_c, 0, 64, 65
2,251066, Control_c, 0, 64, 62
2,251086, Control_c, 0, 64, 60
2,251104, Control_c, 0, 64, 59
2,251126, Control_c, 0, 64, 57
2,251146, Control_c, 0, 64, 55
2,251155, Note_on_c, 0, 54, 0
2,251163, Note_on_c, 0, 52, 76
2,251165, Control_c, 0, 64, 53
2,251184, Control_c, 0, 64, 51
2,251203, Control_c, 0, 64, 49
2,251223, Control_c, 0, 64, 46
2,251241, Control_c, 0, 64, 43
2,251261, Control_c, 0, 64, 41
2,251300, Control_c, 0, 64, 40
2,251300, Note_on_c, 0, 68, 0
2,251318, Control_c, 0, 64, 39
2,251337, Note_on_c, 0, 67, 24
2,251338, Control_c, 0, 64, 38
2,251357, Control_c, 0, 64, 37
2,251376, Control_c, 0, 64, 36
2,251386, Note_on_c, 0, 67, 0
2,251395, Control_c, 0, 64, 35
2,251414, Control_c, 0, 64, 35
2,251432, Note_on_c, 0, 51, 69
2,251434, Control_c, 0, 64, 34
2,251452, Control_c, 0, 64, 34
2,251472, Control_c, 0, 64, 32
2,251491, Control_c, 0, 64, 31
2,251498, Note_on_c, 0, 52, 0
2,251529, Control_c, 0, 64, 30
2,251549, Control_c, 0, 64, 29
2,251568, Control_c, 0, 64, 27
2,251587, Control_c, 0, 64, 23
2,251606, Control_c, 0, 64, 19
2,251626, Control_c, 0, 64, 17
2,251645, Control_c, 0, 64, 13
2,251664, Control_c, 0, 64, 0
2,251714, Note_on_c, 0, 49, 75
2,251719, Note_on_c, 0, 51, 0
2,251753, Note_on_c, 0, 64, 0
2,252122, Note_on_c, 0, 63, 79
2,252154, Note_on_c, 0, 56, 59
2,252201, Note_on_c, 0, 49, 0
2,252470, Control_c, 0, 64, 22
2,252489, Control_c, 0, 64, 40
2,252509, Control_c, 0, 64, 49
2,252528, Control_c, 0, 64, 53
2,252547, Control_c, 0, 64, 57
2,252566, Control_c, 0, 64, 59
2,252586, Control_c, 0, 64, 61
2,252605, Control_c, 0, 64, 62
2,252624, Control_c, 0, 64, 63
2,252643, Control_c, 0, 64, 65
2,252663, Control_c, 0, 64, 67
2,252681, Control_c, 0, 64, 72
2,252701, Control_c, 0, 64, 80
2,252720, Control_c, 0, 64, 93
2,252740, Control_c, 0, 64, 112
2,252758, Control_c, 0, 64, 127
2,252997, Note_on_c, 0, 73, 0
2,253524, Note_on_c, 0, 72, 81
2,253661, Control_c, 0, 64, 84
2,253680, Control_c, 0, 64, 68
2,253700, Control_c, 0, 64, 55
2,253718, Control_c, 0, 64, 13
2,253738, Control_c, 0, 64, 0
2,253813, Control_c, 0, 64, 33
2,253833, Control_c, 0, 64, 53
2,253851, Control_c, 0, 64, 59
2,253871, Control_c, 0, 64, 63
2,253890, Control_c, 0, 64, 64
2,253910, Control_c, 0, 64, 65
2,253924, Note_on_c, 0, 63, 0
2,253928, Control_c, 0, 64, 67
2,253948, Control_c, 0, 64, 69
2,253967, Control_c, 0, 64, 73
2,253986, Control_c, 0, 64, 82
2,254005, Control_c, 0, 64, 96
2,254025, Control_c, 0, 64, 112
2,254044, Control_c, 0, 64, 127
2,254240, Note_on_c, 0, 64, 66
2,254262, Note_on_c, 0, 44, 0
2,254331, Note_on_c, 0, 56, 0
2,254580, Note_on_c, 0, 72, 0
2,254585, Note_on_c, 0, 66, 75
2,254785, Note_on_c, 0, 64, 0
2,255150, Note_on_c, 0, 73, 83
2,255170, Note_on_c, 0, 65, 60
2,255204, Note_on_c, 0, 57, 49
2,255204, Note_on_c, 0, 66, 0
2,255213, Note_on_c, 0, 49, 46
2,255350, Control_c, 0, 64, 95
2,255368, Control_c, 0, 64, 76
2,255388, Control_c, 0, 64, 65
2,255407, Control_c, 0, 64, 54
2,255426, Control_c, 0, 64, 0
2,255560, Control_c, 0, 64, 20
2,255580, Control_c, 0, 64, 47
2,255599, Control_c, 0, 64, 56
2,255619, Control_c, 0, 64, 59
2,255637, Control_c, 0, 64, 62
2,255657, Control_c, 0, 64, 64
2,255676, Control_c, 0, 64, 66
2,255696, Control_c, 0, 64, 70
2,255714, Control_c, 0, 64, 78
2,255721, Note_on_c, 0, 65, 0
2,255734, Control_c, 0, 64, 93
2,255754, Control_c, 0, 64, 127
2,256064, Note_on_c, 0, 61, 71
2,256727, Note_on_c, 0, 66, 76
2,256849, Control_c, 0, 64, 90
2,256868, Control_c, 0, 64, 68
2,256887, Control_c, 0, 64, 53
2,256907, Control_c, 0, 64, 0
2,256917, Note_on_c, 0, 61, 0
2,256945, Control_c, 0, 64, 24
2,256964, Control_c, 0, 64, 49
2,256984, Control_c, 0, 64, 60
2,257002, Control_c, 0, 64, 64
2,257022, Control_c, 0, 64, 66
2,257041, Control_c, 0, 64, 70
2,257061, Control_c, 0, 64, 75
2,257079, Control_c, 0, 64, 82
2,257099, Control_c, 0, 64, 92
2,257118, Control_c, 0, 64, 107
2,257137, Control_c, 0, 64, 127
2,257343, Note_on_c, 0, 57, 0
2,257348, Control_c, 0, 64, 121
2,257367, Control_c, 0, 64, 84
2,257377, Note_on_c, 0, 56, 61
2,257387, Control_c, 0, 64, 71
2,257405, Control_c, 0, 64, 67
2,257425, Control_c, 0, 64, 69
2,257444, Control_c, 0, 64, 73
2,257464, Control_c, 0, 64, 79
2,257482, Control_c, 0, 64, 88
2,257502, Control_c, 0, 64, 101
2,257521, Control_c, 0, 64, 127
2,257651, Note_on_c, 0, 56, 0
2,257657, Note_on_c, 0, 57, 71
2,257927, Note_on_c, 0, 57, 0
2,257951, Note_on_c, 0, 65, 79
2,257981, Control_c, 0, 64, 92
2,257985, Note_on_c, 0, 66, 0
2,258000, Control_c, 0, 64, 72
2,258001, Note_on_c, 0, 59, 52
2,258020, Control_c, 0, 64, 62
2,258038, Control_c, 0, 64, 46
2,258058, Control_c, 0, 64, 0
2,258172, Control_c, 0, 64, 18
2,258192, Control_c, 0, 64, 49
2,258211, Control_c, 0, 64, 58
2,258231, Control_c, 0, 64, 61
2,258249, Control_c, 0, 64, 63
2,258269, Control_c, 0, 64, 64
2,258288, Control_c, 0, 64, 66
2,258307, Control_c, 0, 64, 67
2,258326, Control_c, 0, 64, 70
2,258346, Control_c, 0, 64, 74
2,258365, Control_c, 0, 64, 81
2,258384, Control_c, 0, 64, 93
2,258403, Control_c, 0, 64, 127
2,258542, Note_on_c, 0, 61, 79
2,258577, Note_on_c, 0, 57, 50
2,258861, Note_on_c, 0, 61, 0
2,258887, Note_on_c, 0, 59, 0
2,259073, Note_on_c, 0, 65, 0
2,259109, Note_on_c, 0, 69, 78
2,259131, Note_on_c, 0, 66, 64
2,259149, Note_on_c, 0, 57, 0
2,259153, Control_c, 0, 64, 117
2,259164, Note_on_c, 0, 56, 45
2,259172, Control_c, 0, 64, 85
2,259191, Control_c, 0, 64, 69
2,259210, Control_c, 0, 64, 59
2,259230, Control_c, 0, 64, 27
2,259249, Control_c, 0, 64, 0
2,259325, Control_c, 0, 64, 36
2,259345, Control_c, 0, 64, 56
2,259364, Control_c, 0, 64, 62
2,259385, Control_c, 0, 64, 65
2,259403, Control_c, 0, 64, 68
2,259423, Control_c, 0, 64, 73
2,259430, Note_on_c, 0, 66, 0
2,259442, Control_c, 0, 64, 84
2,259461, Control_c, 0, 64, 113
2,259480, Control_c, 0, 64, 127
2,259587, Note_on_c, 0, 56, 0
2,259762, Note_on_c, 0, 66, 70
2,259812, Note_on_c, 0, 54, 39
2,259842, Control_c, 0, 64, 87
2,259862, Control_c, 0, 64, 68
2,259880, Control_c, 0, 64, 54
2,259900, Control_c, 0, 64, 26
2,259919, Control_c, 0, 64, 0
2,259977, Control_c, 0, 64, 38
2,259996, Control_c, 0, 64, 56
2,260015, Control_c, 0, 64, 62
2,260034, Control_c, 0, 64, 64
2,260053, Control_c, 0, 64, 67
2,260073, Control_c, 0, 64, 71
2,260091, Control_c, 0, 64, 78
2,260111, Control_c, 0, 64, 86
2,260127, Note_on_c, 0, 69, 0
2,260130, Control_c, 0, 64, 97
2,260130, Note_on_c, 0, 54, 0
2,260150, Control_c, 0, 64, 127
2,260213, Note_on_c, 0, 66, 0
2,260596, Note_on_c, 0, 68, 70
2,260628, Note_on_c, 0, 66, 51
2,260697, Note_on_c, 0, 61, 35
2,260727, Control_c, 0, 64, 101
2,260747, Control_c, 0, 64, 76
2,260765, Control_c, 0, 64, 65
2,260785, Control_c, 0, 64, 51
2,260804, Control_c, 0, 64, 0
2,260901, Control_c, 0, 67, 11
2,260919, Control_c, 0, 64, 38
2,260919, Control_c, 0, 67, 22
2,260939, Control_c, 0, 64, 53
2,260939, Control_c, 0, 67, 36
2,260958, Control_c, 0, 64, 58
2,260958, Control_c, 0, 67, 49
2,260977, Control_c, 0, 64, 61
2,260977, Control_c, 0, 67, 63
2,260996, Control_c, 0, 64, 63
2,260996, Control_c, 0, 67, 73
2,261015, Control_c, 0, 64, 65
2,261015, Control_c, 0, 67, 84
2,261035, Control_c, 0, 64, 68
2,261035, Control_c, 0, 67, 95
2,261053, Control_c, 0, 64, 71
2,261053, Control_c, 0, 67, 106
2,261073, Control_c, 0, 64, 76
2,261073, Control_c, 0, 67, 117
2,261085, Note_on_c, 0, 61, 0
2,261092, Control_c, 0, 64, 83
2,261092, Control_c, 0, 67, 127
2,261111, Control_c, 0, 64, 93
2,261130, Control_c, 0, 64, 127
2,261456, Note_on_c, 0, 59, 48
2,261797, Note_on_c, 0, 59, 0
2,261799, Note_on_c, 0, 57, 46
2,261883, Note_on_c, 0, 66, 0
2,262087, Note_on_c, 0, 57, 0
2,262200, Note_on_c, 0, 65, 42
2,262236, Note_on_c, 0, 56, 30
2,262281, Control_c, 0, 64, 103
2,262301, Control_c, 0, 64, 79
2,262320, Control_c, 0, 64, 67
2,262340, Control_c, 0, 64, 60
2,262358, Control_c, 0, 64, 48
2,262378, Control_c, 0, 64, 19
2,262397, Control_c, 0, 64, 0
2,262551, Control_c, 0, 64, 29
2,262569, Control_c, 0, 64, 51
2,262589, Control_c, 0, 64, 58
2,262608, Control_c, 0, 64, 61
2,262627, Control_c, 0, 64, 63
2,262646, Control_c, 0, 64, 65
2,262666, Control_c, 0, 64, 67
2,262685, Control_c, 0, 64, 71
2,262704, Control_c, 0, 64, 75
2,262710, Note_on_c, 0, 56, 0
2,262723, Control_c, 0, 64, 78
2,262743, Control_c, 0, 64, 83
2,262761, Control_c, 0, 64, 90
2,262781, Control_c, 0, 64, 101
2,262800, Control_c, 0, 64, 127
2,262815, Note_on_c, 0, 65, 0
2,263191, Note_on_c, 0, 63, 36
2,263250, Note_on_c, 0, 54, 28
2,263358, Control_c, 0, 64, 108
2,263376, Control_c, 0, 64, 81
2,263396, Control_c, 0, 64, 67
2,263414, Control_c, 0, 64, 60
2,263434, Control_c, 0, 64, 54
2,263452, Control_c, 0, 64, 48
2,263472, Control_c, 0, 64, 41
2,263491, Control_c, 0, 64, 27
2,263511, Control_c, 0, 64, 0
2,263645, Control_c, 0, 64, 43
2,263664, Control_c, 0, 64, 55
2,263683, Control_c, 0, 64, 60
2,263703, Control_c, 0, 64, 62
2,263721, Control_c, 0, 64, 64
2,263741, Control_c, 0, 64, 65
2,263760, Control_c, 0, 64, 67
2,263780, Control_c, 0, 64, 71
2,263798, Control_c, 0, 64, 75
2,263818, Control_c, 0, 64, 80
2,263837, Control_c, 0, 64, 85
2,263855, Control_c, 0, 64, 91
2,263875, Control_c, 0, 64, 100
2,263894, Control_c, 0, 64, 123
2,263914, Control_c, 0, 64, 127
2,263988, Note_on_c, 0, 63, 0
2,264011, Note_on_c, 0, 54, 0
2,265219, Note_on_c, 0, 65, 29
2,265243, Note_on_c, 0, 56, 28
2,265375, Control_c, 0, 64, 112
2,265395, Control_c, 0, 64, 88
2,265414, Control_c, 0, 64, 76
2,265434, Control_c, 0, 64, 68
2,265452, Control_c, 0, 64, 66
2,265472, Control_c, 0, 64, 65
2,265491, Control_c, 0, 64, 64
2,265510, Control_c, 0, 64, 62
2,265529, Control_c, 0, 64, 58
2,265548, Control_c, 0, 64, 51
2,265568, Control_c, 0, 64, 36
2,265586, Control_c, 0, 64, 18
2,265606, Control_c, 0, 64, 0
2,265932, Control_c, 0, 64, 32
2,265952, Control_c, 0, 64, 46
2,265971, Control_c, 0, 64, 53
2,265990, Control_c, 0, 64, 56
2,266009, Control_c, 0, 64, 57
2,266028, Control_c, 0, 64, 58
2,266048, Control_c, 0, 64, 60
2,266066, Control_c, 0, 64, 61
2,266086, Control_c, 0, 64, 62
2,266105, Control_c, 0, 64, 62
2,266124, Control_c, 0, 64, 63
2,266143, Control_c, 0, 64, 64
2,266163, Control_c, 0, 64, 65
2,266182, Control_c, 0, 64, 66
2,266201, Control_c, 0, 64, 67
2,266220, Control_c, 0, 64, 69
2,266240, Control_c, 0, 64, 70
2,266258, Control_c, 0, 64, 72
2,266278, Control_c, 0, 64, 74
2,266297, Control_c, 0, 64, 75
2,266317, Control_c, 0, 64, 77
2,266335, Control_c, 0, 64, 79
2,266355, Control_c, 0, 64, 82
2,266374, Control_c, 0, 64, 86
2,266394, Control_c, 0, 64, 91
2,266412, Control_c, 0, 64, 96
2,266432, Control_c, 0, 64, 104
2,266451, Control_c, 0, 64, 127
2,268222, Note_on_c, 0, 65, 0
2,268261, Note_on_c, 0, 56, 0
2,268571, Note_on_c, 0, 68, 0
2,268663, Note_on_c, 0, 73, 0
2,268772, Note_on_c, 0, 49, 0
2,269348, Control_c, 0, 64, 123
2,269368, Control_c, 0, 64, 119
2,269425, Control_c, 0, 64, 118
2,269445, Control_c, 0, 64, 115
2,269464, Control_c, 0, 64, 112
2,269541, Control_c, 0, 64, 111
2,269560, Control_c, 0, 64, 108
2,269579, Control_c, 0, 64, 104
2,269599, Control_c, 0, 64, 103
2,269618, Control_c, 0, 64, 103
2,269637, Control_c, 0, 64, 102
2,269656, Control_c, 0, 64, 101
2,269676, Control_c, 0, 64, 99
2,269694, Control_c, 0, 64, 96
2,269714, Control_c, 0, 64, 96
2,269771, Control_c, 0, 64, 95
2,269791, Control_c, 0, 64, 94
2,269810, Control_c, 0, 64, 92
2,269905, Control_c, 0, 64, 91
2,269925, Control_c, 0, 64, 91
2,269944, Control_c, 0, 64, 91
2,270002, Control_c, 0, 64, 91
2,270021, Control_c, 0, 64, 90
2,270040, Control_c, 0, 64, 89
2,270117, Control_c, 0, 64, 89
2,270194, Control_c, 0, 64, 88
2,270213, Control_c, 0, 64, 88
2,270233, Control_c, 0, 64, 87
2,270251, Control_c, 0, 64, 86
2,270347, Control_c, 0, 64, 85
2,270367, Control_c, 0, 64, 84
2,270444, Control_c, 0, 64, 84
2,270482, Control_c, 0, 64, 83
2,270597, Control_c, 0, 64, 83
2,270693, Control_c, 0, 64, 82
2,270713, Control_c, 0, 64, 82
2,270808, Control_c, 0, 64, 81
2,270904, Control_c, 0, 64, 81
2,270924, Control_c, 0, 64, 80
2,270942, Control_c, 0, 64, 79
2,271154, Control_c, 0, 64, 79
2,271404, Control_c, 0, 64, 78
2,271480, Control_c, 0, 64, 78
2,271557, Control_c, 0, 64, 77
2,271711, Control_c, 0, 64, 77
2,271748, Control_c, 0, 64, 77
2,271825, Control_c, 0, 64, 77
2,271942, Control_c, 0, 64, 76
2,271961, Control_c, 0, 64, 75
2,272000, Control_c, 0, 64, 76
2,272057, Control_c, 0, 64, 75
2,272288, Control_c, 0, 64, 75
2,272403, Control_c, 0, 64, 74
2,272518, Control_c, 0, 64, 74
2,272575, Control_c, 0, 64, 74
2,272614, Control_c, 0, 64, 74
2,272709, Control_c, 0, 64, 73
2,272729, Control_c, 0, 64, 72
2,272748, Control_c, 0, 64, 71
2,272883, Control_c, 0, 64, 72
2,272960, Control_c, 0, 64, 71
2,273093, Control_c, 0, 64, 71
2,273151, Control_c, 0, 64, 70
2,273170, Control_c, 0, 64, 70
2,273304, Control_c, 0, 64, 69
2,273477, Control_c, 0, 64, 69
2,273534, Control_c, 0, 64, 68
2,273554, Control_c, 0, 64, 68
2,273765, Control_c, 0, 64, 67
2,273804, Control_c, 0, 64, 67
2,273997, Control_c, 0, 64, 66
2,274169, Control_c, 0, 64, 66
2,274303, Control_c, 0, 64, 65
2,274342, Control_c, 0, 64, 65
2,274611, Control_c, 0, 64, 64
2,274649, Control_c, 0, 64, 65
2,274726, Control_c, 0, 64, 64
2,274783, Control_c, 0, 64, 64
2,274880, Control_c, 0, 64, 63
2,274975, Control_c, 0, 64, 63
2,275072, Control_c, 0, 64, 62
2,275228, Control_c, 0, 64, 62
2,275324, Control_c, 0, 64, 61
2,275381, Control_c, 0, 64, 61
2,275458, Control_c, 0, 64, 60
2,275574, Control_c, 0, 64, 60
2,275669, Control_c, 0, 64, 59
2,275727, Control_c, 0, 64, 59
2,275766, Control_c, 0, 64, 58
2,275785, Control_c, 0, 64, 58
2,275823, Control_c, 0, 64, 57
2,275824, End_track
0, 0, End_of_file
