0, 0, Header, 1, 2, 480
1, 0, Start_track
1, 0, Tempo, 500000
1, 0, Time_signature, 4, 2, 24, 8
1, 1, End_track
2, 0, Start_track
2, 0, Program_c, 0, 0
2, 0, Control_c, 0, 64, 55
2, 0, Control_c, 0, 67, 127
2, 946, Note_on_c, 0, 68, 49
2, 991, Note_on_c, 0, 49, 40
2, 1293, Note_on_c, 0, 66, 53
2, 1419, Note_on_c, 0, 68, 0
2, 1452, Control_c, 0, 64, 55
2, 1582, Note_on_c, 0, 64, 52
2, 1606, Control_c, 0, 64, 54
2, 1634, Note_on_c, 0, 66, 0
2, 1663, Control_c, 0, 64, 54
2, 1720, Control_c, 0, 64, 53
2, 1759, Control_c, 0, 64, 53
2, 1797, Control_c, 0, 64, 52
2, 1820, Note_on_c, 0, 64, 0
2, 1835, Control_c, 0, 64, 52
2, 1853, Note_on_c, 0, 63, 53
2, 1855, Control_c, 0, 64, 51
2, 1912, Control_c, 0, 64, 51
2, 1932, Control_c, 0, 64, 50
2, 1951, Control_c, 0, 64, 49
2, 1970, Control_c, 0, 64, 47
2, 1989, Control_c, 0, 64, 45
2, 2009, Control_c, 0, 64, 41
2, 2028, Control_c, 0, 64, 36
2, 2047, Control_c, 0, 64, 31
2, 2066, Control_c, 0, 64, 28
2, 2086, Control_c, 0, 64, 27
2, 2087, Note_on_c, 0, 63, 0
2, 2123, Control_c, 0, 64, 28
2, 2139, Note_on_c, 0, 64, 43
2, 2143, Control_c, 0, 64, 31
2, 2162, Control_c, 0, 64, 34
2, 2181, Control_c, 0, 64, 36
2, 2200, Control_c, 0, 64, 40
2, 2220, Control_c, 0, 64, 44
2, 2239, Control_c, 0, 64, 48
2, 2258, Control_c, 0, 64, 53
2, 2277, Control_c, 0, 64, 57
2, 2297, Control_c, 0, 64, 59
2, 2315, Control_c, 0, 64, 61
2, 2331, Note_on_c, 0, 64, 0
2, 2335, Control_c, 0, 64, 63
2, 2354, Control_c, 0, 64, 65
2, 2374, Control_c, 0, 64, 69
2, 2392, Control_c, 0, 64, 76
2, 2392, Note_on_c, 0, 61, 49
2, 2412, Control_c, 0, 64, 88
2, 2431, Control_c, 0, 64, 99
2, 2450, Control_c, 0, 64, 112
2, 2469, Control_c, 0, 64, 127
2, 2556, Note_on_c, 0, 61, 0
2, 2643, Note_on_c, 0, 64, 55
2, 2727, Note_on_c, 0, 68, 61
2, 2862, Note_on_c, 0, 73, 59
2, 2871, Control_c, 0, 64, 103
2, 2891, Control_c, 0, 64, 95
2, 2910, Control_c, 0, 64, 88
2, 2930, Control_c, 0, 64, 79
2, 2948, Control_c, 0, 64, 68
2, 2968, Control_c, 0, 64, 55
2, 2987, Control_c, 0, 64, 20
2, 3006, Control_c, 0, 64, 0
2, 3102, Control_c, 0, 64, 11
2, 3121, Control_c, 0, 64, 27
2, 3140, Control_c, 0, 64, 40
2, 3159, Control_c, 0, 64, 49
2, 3179, Control_c, 0, 64, 54
2, 3198, Control_c, 0, 64, 57
2, 3217, Control_c, 0, 64, 60
2, 3236, Control_c, 0, 64, 62
2, 3256, Control_c, 0, 64, 64
2, 3275, Control_c, 0, 64, 67
2, 3294, Control_c, 0, 64, 73
2, 3313, Control_c, 0, 64, 81
2, 3333, Control_c, 0, 64, 93
2, 3351, Control_c, 0, 64, 110
2, 3371, Control_c, 0, 64, 127
2, 3434, Note_on_c, 0, 73, 0
2, 3770, Note_on_c, 0, 68, 0
2, 3807, Note_on_c, 0, 71, 60
2, 4101, Note_on_c, 0, 71, 0
2, 4106, Note_on_c, 0, 69, 58
2, 4107, Note_on_c, 0, 64, 0
2, 4139, Control_c, 0, 64, 107
2, 4143, Note_on_c, 0, 66, 44
2, 4158, Control_c, 0, 64, 88
2, 4177, Control_c, 0, 64, 74
2, 4196, Control_c, 0, 64, 63
2, 4216, Control_c, 0, 64, 0
2, 4350, Control_c, 0, 64, 13
2, 4370, Control_c, 0, 64, 42
2, 4388, Control_c, 0, 64, 53
2, 4408, Control_c, 0, 64, 57
2, 4427, Control_c, 0, 64, 62
2, 4446, Control_c, 0, 64, 66
2, 4460, Note_on_c, 0, 69, 0
2, 4465, Control_c, 0, 64, 70
2, 4485, Control_c, 0, 64, 78
2, 4504, Control_c, 0, 64, 89
2, 4522, Control_c, 0, 64, 100
2, 4542, Control_c, 0, 64, 115
2, 4561, Control_c, 0, 64, 127
2, 4751, Note_on_c, 0, 66, 0
2, 4805, Note_on_c, 0, 69, 56
2, 4842, Note_on_c, 0, 56, 40
2, 4848, Note_on_c, 0, 64, 32
2, 4850, Control_c, 0, 64, 117
2, 4868, Control_c, 0, 64, 86
2, 4888, Control_c, 0, 64, 73
2, 4907, Control_c, 0, 64, 64
2, 4926, Control_c, 0, 64, 60
2, 4945, Control_c, 0, 64, 59
2, 4965, Control_c, 0, 64, 61
2, 4984, Control_c, 0, 64, 63
2, 5002, Control_c, 0, 64, 65
2, 5022, Control_c, 0, 64, 66
2, 5041, Control_c, 0, 64, 69
2, 5060, Control_c, 0, 64, 72
2, 5079, Control_c, 0, 64, 75
2, 5099, Control_c, 0, 64, 77
2, 5099, Note_on_c, 0, 69, 0
2, 5118, Control_c, 0, 64, 79
2, 5137, Control_c, 0, 64, 82
2, 5145, Note_on_c, 0, 68, 57
2, 5156, Control_c, 0, 64, 86
2, 5158, Note_on_c, 0, 54, 51
2, 5176, Control_c, 0, 64, 91
2, 5195, Control_c, 0, 64, 94
2, 5201, Note_on_c, 0, 68, 0
2, 5214, Control_c, 0, 64, 94
2, 5230, Note_on_c, 0, 69, 56
2, 5258, Note_on_c, 0, 69, 0
2, 5271, Control_c, 0, 64, 94
2, 5291, Control_c, 0, 64, 93
2, 5294, Note_on_c, 0, 68, 68
2, 5310, Control_c, 0, 64, 89
2, 5330, Control_c, 0, 64, 81
2, 5338, Note_on_c, 0, 69, 75
2, 5342, Note_on_c, 0, 68, 0
2, 5344, Note_on_c, 0, 56, 0
2, 5348, Control_c, 0, 64, 72
2, 5368, Control_c, 0, 64, 65
2, 5387, Control_c, 0, 64, 60
2, 5406, Control_c, 0, 64, 55
2, 5413, Note_on_c, 0, 69, 0
2, 5419, Note_on_c, 0, 52, 49
2, 5425, Control_c, 0, 64, 50
2, 5441, Note_on_c, 0, 54, 0
2, 5445, Control_c, 0, 64, 44
2, 5464, Control_c, 0, 64, 36
2, 5482, Control_c, 0, 64, 11
2, 5502, Control_c, 0, 64, 0
2, 5582, Note_on_c, 0, 49, 0
2, 5705, Note_on_c, 0, 52, 0
2, 5707, Note_on_c, 0, 51, 58
2, 5945, Note_on_c, 0, 51, 0
2, 5968, Note_on_c, 0, 52, 59
2, 6181, Note_on_c, 0, 52, 0
2, 6230, Note_on_c, 0, 49, 54
2, 6407, Note_on_c, 0, 52, 52
2, 6515, Note_on_c, 0, 52, 0
2, 6521, Note_on_c, 0, 56, 59
2, 6620, Note_on_c, 0, 56, 0
2, 6672, Note_on_c, 0, 61, 50
2, 6809, Control_c, 0, 64, 21
2, 6828, Control_c, 0, 64, 43
2, 6847, Control_c, 0, 64, 52
2, 6866, Control_c, 0, 64, 56
2, 6886, Control_c, 0, 64, 59
2, 6893, Note_on_c, 0, 64, 0
2, 6905, Control_c, 0, 64, 62
2, 6923, Control_c, 0, 64, 66
2, 6943, Control_c, 0, 64, 70
2, 6962, Control_c, 0, 64, 81
2, 6981, Control_c, 0, 64, 98
2, 7000, Control_c, 0, 64, 127
2, 7160, Note_on_c, 0, 61, 0
2, 7563, Note_on_c, 0, 59, 56
2, 7782, Note_on_c, 0, 59, 0
2, 7882, Note_on_c, 0, 66, 54
2, 7897, Note_on_c, 0, 57, 44
2, 7921, Control_c, 0, 64, 95
2, 7932, Note_on_c, 0, 49, 0
2, 7940, Control_c, 0, 64, 76
2, 7959, Control_c, 0, 64, 63
2, 7979, Control_c, 0, 64, 0
2, 8113, Control_c, 0, 64, 35
2, 8133, Control_c, 0, 64, 52
2, 8151, Control_c, 0, 64, 58
2, 8171, Control_c, 0, 64, 61
2, 8190, Control_c, 0, 64, 64
2, 8210, Control_c, 0, 64, 70
2, 8228, Control_c, 0, 64, 81
2, 8248, Control_c, 0, 64, 105
2, 8267, Control_c, 0, 64, 127
2, 8412, Note_on_c, 0, 57, 0
2, 8574, Note_on_c, 0, 75, 60
2, 8638, Note_on_c, 0, 56, 42
2, 8655, Note_on_c, 0, 48, 29
2, 8707, Control_c, 0, 64, 93
2, 8727, Control_c, 0, 64, 76
2, 8746, Control_c, 0, 64, 66
2, 8764, Control_c, 0, 64, 62
2, 8784, Control_c, 0, 64, 60
2, 8803, Control_c, 0, 64, 59
2, 8823, Control_c, 0, 64, 59
2, 8841, Control_c, 0, 64, 58
2, 8861, Control_c, 0, 64, 55
2, 8880, Control_c, 0, 64, 51
2, 8900, Control_c, 0, 64, 48
2, 8918, Control_c, 0, 64, 45
2, 8935, Note_on_c, 0, 73, 65
2, 8938, Control_c, 0, 64, 42
2, 8957, Control_c, 0, 64, 35
2, 8976, Control_c, 0, 64, 21
2, 8995, Control_c, 0, 64, 0
2, 9026, Note_on_c, 0, 75, 0
2, 9206, Note_on_c, 0, 72, 66
2, 9236, Note_on_c, 0, 73, 0
2, 9436, Note_on_c, 0, 72, 0
2, 9461, Note_on_c, 0, 70, 68
2, 9724, Note_on_c, 0, 70, 0
2, 9738, Note_on_c, 0, 66, 0
2, 9738, Note_on_c, 0, 72, 65
2, 9802, Control_c, 0, 64, 39
2, 9822, Control_c, 0, 64, 51
2, 9841, Control_c, 0, 64, 56
2, 9860, Control_c, 0, 64, 59
2, 9879, Control_c, 0, 64, 62
2, 9899, Control_c, 0, 64, 65
2, 9918, Control_c, 0, 64, 69
2, 9937, Control_c, 0, 64, 77
2, 9942, Note_on_c, 0, 72, 0
2, 9956, Control_c, 0, 64, 93
2, 9976, Control_c, 0, 64, 127
2, 9989, Note_on_c, 0, 68, 73
2, 10046, Note_on_c, 0, 68, 0
2, 10180, Note_on_c, 0, 68, 67
2, 10269, Note_on_c, 0, 75, 71
2, 10381, Control_c, 0, 64, 97
2, 10382, Note_on_c, 0, 80, 78
2, 10400, Control_c, 0, 64, 81
2, 10419, Control_c, 0, 64, 72
2, 10438, Control_c, 0, 64, 63
2, 10458, Control_c, 0, 64, 43
2, 10476, Control_c, 0, 64, 0
2, 10650, Control_c, 0, 64, 29
2, 10669, Control_c, 0, 64, 50
2, 10688, Control_c, 0, 64, 58
2, 10707, Control_c, 0, 64, 61
2, 10727, Control_c, 0, 64, 64
2, 10745, Control_c, 0, 64, 67
2, 10764, Control_c, 0, 64, 74
2, 10773, Note_on_c, 0, 48, 0
2, 10784, Control_c, 0, 64, 88
2, 10803, Control_c, 0, 64, 127
2, 10803, Control_c, 0, 67, 124
2, 10822, Control_c, 0, 67, 116
2, 10841, Control_c, 0, 67, 110
2, 10861, Control_c, 0, 67, 103
2, 10880, Control_c, 0, 67, 94
2, 10899, Control_c, 0, 67, 84
2, 10914, Note_on_c, 0, 75, 0
2, 10918, Control_c, 0, 67, 72
2, 10938, Control_c, 0, 67, 58
2, 10956, Control_c, 0, 67, 46
2, 10976, Control_c, 0, 67, 35
2, 10995, Control_c, 0, 67, 23
2, 11013, Control_c, 0, 67, 13
2, 11031, Control_c, 0, 67, 0
2, 11157, Note_on_c, 0, 56, 0
2, 11234, Note_on_c, 0, 68, 0
2, 11256, Note_on_c, 0, 78, 68
2, 11377, Note_on_c, 0, 80, 0
2, 11535, Note_on_c, 0, 78, 0
2, 11549, Note_on_c, 0, 76, 64
2, 11550, Control_c, 0, 64, 107
2, 11569, Control_c, 0, 64, 87
2, 11580, Note_on_c, 0, 73, 44
2, 11581, Note_on_c, 0, 68, 48
2, 11588, Control_c, 0, 64, 73
2, 11595, Note_on_c, 0, 61, 39
2, 11605, Note_on_c, 0, 49, 34
2, 11608, Control_c, 0, 64, 63
2, 11627, Control_c, 0, 64, 36
2, 11645, Control_c, 0, 64, 0
2, 11742, Control_c, 0, 64, 39
2, 11761, Control_c, 0, 64, 57
2, 11780, Control_c, 0, 64, 62
2, 11799, Control_c, 0, 64, 64
2, 11819, Control_c, 0, 64, 68
2, 11832, Note_on_c, 0, 49, 0
2, 11838, Control_c, 0, 64, 77
2, 11839, Note_on_c, 0, 76, 0
2, 11857, Control_c, 0, 64, 107
2, 11876, Control_c, 0, 64, 127
2, 11894, Note_on_c, 0, 61, 0
2, 11905, Note_on_c, 0, 73, 0
2, 11941, Note_on_c, 0, 68, 0
2, 12228, Note_on_c, 0, 76, 62
2, 12250, Note_on_c, 0, 68, 45
2, 12257, Note_on_c, 0, 63, 39
2, 12258, Note_on_c, 0, 72, 47
2, 12263, Note_on_c, 0, 56, 36
2, 12337, Control_c, 0, 64, 96
2, 12356, Control_c, 0, 64, 78
2, 12376, Control_c, 0, 64, 68
2, 12394, Control_c, 0, 64, 62
2, 12414, Control_c, 0, 64, 57
2, 12433, Control_c, 0, 64, 54
2, 12439, Note_on_c, 0, 75, 68
2, 12453, Control_c, 0, 64, 52
2, 12471, Control_c, 0, 64, 50
2, 12476, Note_on_c, 0, 76, 0
2, 12491, Control_c, 0, 64, 48
2, 12510, Control_c, 0, 64, 47
2, 12529, Control_c, 0, 64, 44
2, 12548, Control_c, 0, 64, 40
2, 12550, Note_on_c, 0, 61, 57
2, 12568, Control_c, 0, 64, 36
2, 12587, Control_c, 0, 64, 34
2, 12605, Control_c, 0, 64, 31
2, 12625, Control_c, 0, 64, 28
2, 12633, Note_on_c, 0, 63, 0
2, 12644, Control_c, 0, 64, 24
2, 12663, Control_c, 0, 64, 20
2, 12682, Control_c, 0, 64, 17
2, 12759, Control_c, 0, 64, 15
2, 12798, Control_c, 0, 64, 13
2, 12816, Note_on_c, 0, 60, 61
2, 12836, Control_c, 0, 64, 9
2, 12856, Control_c, 0, 64, 0
2, 12877, Note_on_c, 0, 61, 0
2, 13063, Note_on_c, 0, 60, 0
2, 13072, Note_on_c, 0, 58, 60
2, 13358, Note_on_c, 0, 56, 0
2, 13362, Note_on_c, 0, 58, 0
2, 13368, Note_on_c, 0, 60, 51
2, 13594, Note_on_c, 0, 60, 0
2, 13645, Note_on_c, 0, 56, 51
2, 13755, Note_on_c, 0, 60, 55
2, 13815, Note_on_c, 0, 72, 0
2, 13840, Note_on_c, 0, 68, 0
2, 13843, Note_on_c, 0, 60, 0
2, 13863, Note_on_c, 0, 63, 56
2, 13949, Note_on_c, 0, 63, 0
2, 13992, Note_on_c, 0, 66, 51
2, 14083, Control_c, 0, 64, 24
2, 14103, Control_c, 0, 64, 43
2, 14121, Control_c, 0, 64, 53
2, 14141, Control_c, 0, 64, 57
2, 14160, Control_c, 0, 64, 60
2, 14179, Control_c, 0, 64, 62
2, 14199, Control_c, 0, 64, 64
2, 14219, Control_c, 0, 64, 65
2, 14238, Control_c, 0, 64, 67
2, 14257, Control_c, 0, 64, 72
2, 14276, Control_c, 0, 64, 82
2, 14296, Control_c, 0, 64, 104
2, 14314, Control_c, 0, 64, 127
2, 14689, Note_on_c, 0, 66, 0
2, 14854, Note_on_c, 0, 64, 60
2, 15070, Note_on_c, 0, 64, 0
2, 15162, Note_on_c, 0, 80, 72
2, 15192, Note_on_c, 0, 75, 0
2, 15194, Note_on_c, 0, 72, 47
2, 15197, Control_c, 0, 64, 101
2, 15198, Note_on_c, 0, 68, 47
2, 15216, Control_c, 0, 64, 76
2, 15219, Note_on_c, 0, 63, 43
2, 15235, Control_c, 0, 64, 64
2, 15255, Control_c, 0, 64, 45
2, 15273, Control_c, 0, 64, 0
2, 15350, Control_c, 0, 64, 11
2, 15370, Control_c, 0, 64, 47
2, 15389, Control_c, 0, 64, 59
2, 15408, Control_c, 0, 64, 62
2, 15427, Control_c, 0, 64, 64
2, 15447, Control_c, 0, 64, 66
2, 15466, Control_c, 0, 64, 69
2, 15474, Note_on_c, 0, 68, 0
2, 15482, Note_on_c, 0, 63, 0
2, 15484, Control_c, 0, 64, 76
2, 15504, Control_c, 0, 64, 90
2, 15523, Control_c, 0, 64, 127
2, 15746, Note_on_c, 0, 72, 0
2, 15798, Note_on_c, 0, 75, 64
2, 15839, Note_on_c, 0, 80, 0
2, 15848, Note_on_c, 0, 73, 69
2, 15858, Note_on_c, 0, 69, 42
2, 15888, Control_c, 0, 64, 119
2, 15898, Note_on_c, 0, 64, 42
2, 15907, Control_c, 0, 64, 88
2, 15917, Note_on_c, 0, 75, 0
2, 15927, Control_c, 0, 64, 75
2, 15946, Control_c, 0, 64, 66
2, 15964, Control_c, 0, 64, 62
2, 15984, Control_c, 0, 64, 58
2, 16003, Control_c, 0, 64, 56
2, 16023, Control_c, 0, 64, 55
2, 16041, Control_c, 0, 64, 53
2, 16061, Control_c, 0, 64, 50
2, 16080, Control_c, 0, 64, 46
2, 16099, Control_c, 0, 64, 42
2, 16111, Note_on_c, 0, 73, 0
2, 16118, Control_c, 0, 64, 35
2, 16135, Note_on_c, 0, 72, 71
2, 16138, Control_c, 0, 64, 27
2, 16157, Control_c, 0, 64, 18
2, 16176, Control_c, 0, 64, 0
2, 16396, Note_on_c, 0, 73, 68
2, 16399, Note_on_c, 0, 69, 0
2, 16412, Note_on_c, 0, 72, 0
2, 16483, Control_c, 0, 64, 30
2, 16503, Control_c, 0, 64, 50
2, 16521, Control_c, 0, 64, 56
2, 16541, Control_c, 0, 64, 59
2, 16560, Control_c, 0, 64, 61
2, 16579, Control_c, 0, 64, 62
2, 16598, Control_c, 0, 64, 64
2, 16618, Control_c, 0, 64, 65
2, 16637, Control_c, 0, 64, 66
2, 16644, Note_on_c, 0, 73, 0
2, 16653, Note_on_c, 0, 76, 76
2, 16656, Control_c, 0, 64, 68
2, 16675, Control_c, 0, 64, 74
2, 16695, Control_c, 0, 64, 85
2, 16713, Control_c, 0, 64, 107
2, 16733, Control_c, 0, 64, 127
2, 16764, Note_on_c, 0, 76, 0
2, 17004, Note_on_c, 0, 81, 76
2, 17076, Control_c, 0, 64, 106
2, 17096, Control_c, 0, 64, 82
2, 17115, Control_c, 0, 64, 69
2, 17134, Control_c, 0, 64, 60
2, 17153, Control_c, 0, 64, 51
2, 17173, Control_c, 0, 64, 43
2, 17192, Control_c, 0, 64, 40
2, 17211, Control_c, 0, 64, 41
2, 17230, Control_c, 0, 64, 47
2, 17250, Control_c, 0, 64, 55
2, 17268, Control_c, 0, 64, 62
2, 17288, Control_c, 0, 64, 64
2, 17293, Note_on_c, 0, 64, 0
2, 17307, Control_c, 0, 64, 66
2, 17326, Control_c, 0, 64, 69
2, 17345, Control_c, 0, 64, 73
2, 17364, Control_c, 0, 64, 79
2, 17384, Control_c, 0, 64, 89
2, 17403, Control_c, 0, 64, 106
2, 17422, Control_c, 0, 64, 127
2, 17635, Note_on_c, 0, 56, 0
2, 17684, Note_on_c, 0, 69, 62
2, 17710, Control_c, 0, 64, 121
2, 17712, Note_on_c, 0, 54, 43
2, 17718, Note_on_c, 0, 63, 41
2, 17730, Control_c, 0, 64, 83
2, 17748, Control_c, 0, 64, 67
2, 17768, Control_c, 0, 64, 54
2, 17787, Control_c, 0, 64, 42
2, 17806, Control_c, 0, 64, 46
2, 17812, Note_on_c, 0, 81, 0
2, 17825, Control_c, 0, 64, 55
2, 17844, Control_c, 0, 64, 61
2, 17864, Control_c, 0, 64, 64
2, 17883, Control_c, 0, 64, 66
2, 17902, Control_c, 0, 64, 68
2, 17921, Control_c, 0, 64, 72
2, 17941, Control_c, 0, 64, 76
2, 17959, Control_c, 0, 64, 80
2, 17979, Control_c, 0, 64, 83
2, 17998, Control_c, 0, 64, 86
2, 18017, Control_c, 0, 64, 89
2, 18035, Control_c, 0, 64, 90
2, 18044, Note_on_c, 0, 80, 72
2, 18074, Control_c, 0, 64, 90
2, 18093, Control_c, 0, 64, 89
2, 18112, Control_c, 0, 64, 87
2, 18132, Control_c, 0, 64, 86
2, 18151, Control_c, 0, 64, 83
2, 18170, Control_c, 0, 64, 79
2, 18189, Control_c, 0, 64, 74
2, 18209, Control_c, 0, 64, 70
2, 18228, Control_c, 0, 64, 67
2, 18246, Control_c, 0, 64, 65
2, 18266, Control_c, 0, 64, 65
2, 18285, Control_c, 0, 64, 64
2, 18304, Control_c, 0, 64, 63
2, 18322, Note_on_c, 0, 78, 68
2, 18323, Control_c, 0, 64, 61
2, 18343, Control_c, 0, 64, 53
2, 18362, Control_c, 0, 64, 17
2, 18381, Control_c, 0, 64, 0
2, 18486, Note_on_c, 0, 80, 0
2, 18577, Note_on_c, 0, 76, 68
2, 18612, Note_on_c, 0, 78, 0
2, 18842, Note_on_c, 0, 75, 63
2, 18856, Note_on_c, 0, 76, 0
2, 18860, Note_on_c, 0, 69, 0
2, 18940, Control_c, 0, 64, 32
2, 18959, Control_c, 0, 64, 46
2, 18978, Control_c, 0, 64, 53
2, 18997, Control_c, 0, 64, 58
2, 19017, Control_c, 0, 64, 63
2, 19036, Control_c, 0, 64, 66
2, 19055, Control_c, 0, 64, 71
2, 19069, Note_on_c, 0, 75, 0
2, 19074, Control_c, 0, 64, 83
2, 19094, Control_c, 0, 64, 101
2, 19108, Note_on_c, 0, 73, 61
2, 19113, Control_c, 0, 64, 127
2, 19158, Note_on_c, 0, 73, 0
2, 19349, Note_on_c, 0, 73, 62
2, 19382, Control_c, 0, 64, 121
2, 19394, Note_on_c, 0, 71, 65
2, 19400, Control_c, 0, 64, 98
2, 19409, Note_on_c, 0, 68, 45
2, 19420, Control_c, 0, 64, 84
2, 19439, Control_c, 0, 64, 73
2, 19458, Control_c, 0, 64, 64
2, 19460, Note_on_c, 0, 73, 0
2, 19477, Control_c, 0, 64, 46
2, 19497, Control_c, 0, 64, 0
2, 19595, Note_on_c, 0, 68, 0
2, 19612, Control_c, 0, 64, 17
2, 19631, Control_c, 0, 64, 44
2, 19651, Control_c, 0, 64, 56
2, 19656, Note_on_c, 0, 69, 69
2, 19669, Control_c, 0, 64, 59
2, 19670, Note_on_c, 0, 71, 0
2, 19689, Control_c, 0, 64, 60
2, 19708, Control_c, 0, 64, 60
2, 19728, Control_c, 0, 64, 61
2, 19785, Control_c, 0, 64, 60
2, 19803, Control_c, 0, 64, 60
2, 19842, Control_c, 0, 64, 59
2, 19862, Control_c, 0, 64, 58
2, 19880, Control_c, 0, 64, 56
2, 19896, Note_on_c, 0, 69, 0
2, 19900, Control_c, 0, 64, 53
2, 19919, Control_c, 0, 64, 51
2, 19938, Control_c, 0, 64, 49
2, 19948, Note_on_c, 0, 71, 63
2, 19957, Control_c, 0, 64, 46
2, 19977, Control_c, 0, 64, 43
2, 19996, Control_c, 0, 64, 39
2, 20015, Control_c, 0, 64, 32
2, 20034, Control_c, 0, 64, 24
2, 20054, Control_c, 0, 64, 15
2, 20073, Control_c, 0, 64, 0
2, 20274, Note_on_c, 0, 74, 24
2, 20302, Note_on_c, 0, 71, 0
2, 20334, Note_on_c, 0, 74, 0
2, 20428, Note_on_c, 0, 75, 79
2, 20757, Note_on_c, 0, 80, 64
2, 20784, Control_c, 0, 64, 9
2, 20793, Note_on_c, 0, 75, 0
2, 20803, Control_c, 0, 64, 13
2, 20823, Control_c, 0, 64, 20
2, 20841, Control_c, 0, 64, 29
2, 20859, Control_c, 0, 64, 40
2, 20878, Control_c, 0, 64, 49
2, 20897, Control_c, 0, 64, 54
2, 20915, Control_c, 0, 64, 57
2, 20935, Control_c, 0, 64, 60
2, 20954, Control_c, 0, 64, 63
2, 20973, Control_c, 0, 64, 65
2, 20992, Control_c, 0, 64, 70
2, 21012, Control_c, 0, 64, 77
2, 21028, Note_on_c, 0, 63, 0
2, 21031, Control_c, 0, 64, 90
2, 21050, Control_c, 0, 64, 113
2, 21069, Control_c, 0, 64, 127
2, 21236, Note_on_c, 0, 54, 0
2, 21414, Note_on_c, 0, 68, 54
2, 21429, Note_on_c, 0, 52, 41
2, 21453, Note_on_c, 0, 61, 29
2, 21475, Control_c, 0, 64, 100
2, 21494, Control_c, 0, 64, 87
2, 21514, Control_c, 0, 64, 78
2, 21532, Control_c, 0, 64, 71
2, 21537, Note_on_c, 0, 80, 0
2, 21552, Control_c, 0, 64, 67
2, 21571, Control_c, 0, 64, 65
2, 21590, Control_c, 0, 64, 64
2, 21609, Control_c, 0, 64, 64
2, 21629, Control_c, 0, 64, 63
2, 21648, Control_c, 0, 64, 63
2, 21667, Control_c, 0, 64, 62
2, 21687, Control_c, 0, 64, 60
2, 21707, Control_c, 0, 64, 59
2, 21725, Control_c, 0, 64, 56
2, 21745, Control_c, 0, 64, 54
2, 21757, Note_on_c, 0, 78, 60
2, 21764, Control_c, 0, 64, 50
2, 21784, Control_c, 0, 64, 46
2, 21802, Control_c, 0, 64, 38
2, 21822, Control_c, 0, 64, 19
2, 21841, Control_c, 0, 64, 0
2, 22024, Note_on_c, 0, 76, 60
2, 22100, Note_on_c, 0, 78, 0
2, 22273, Note_on_c, 0, 75, 67
2, 22284, Note_on_c, 0, 76, 0
2, 22511, Control_c, 0, 64, 33
2, 22530, Control_c, 0, 64, 47
2, 22533, Note_on_c, 0, 73, 62
2, 22534, Note_on_c, 0, 68, 0
2, 22545, Note_on_c, 0, 75, 0
2, 22549, Control_c, 0, 64, 53
2, 22568, Control_c, 0, 64, 56
2, 22588, Control_c, 0, 64, 59
2, 22607, Control_c, 0, 64, 61
2, 22626, Control_c, 0, 64, 63
2, 22645, Control_c, 0, 64, 67
2, 22665, Control_c, 0, 64, 72
2, 22684, Control_c, 0, 64, 83
2, 22703, Control_c, 0, 64, 99
2, 22722, Control_c, 0, 64, 127
2, 22732, Note_on_c, 0, 73, 0
2, 22793, Note_on_c, 0, 71, 61
2, 22835, Note_on_c, 0, 71, 0
2, 23052, Note_on_c, 0, 71, 55
2, 23083, Note_on_c, 0, 69, 61
2, 23087, Control_c, 0, 64, 101
2, 23097, Note_on_c, 0, 66, 41
2, 23106, Control_c, 0, 64, 83
2, 23125, Control_c, 0, 64, 72
2, 23145, Control_c, 0, 64, 66
2, 23164, Control_c, 0, 64, 62
2, 23183, Control_c, 0, 64, 57
2, 23202, Control_c, 0, 64, 54
2, 23222, Control_c, 0, 64, 52
2, 23240, Control_c, 0, 64, 51
2, 23260, Control_c, 0, 64, 48
2, 23279, Control_c, 0, 64, 44
2, 23298, Control_c, 0, 64, 37
2, 23307, Note_on_c, 0, 69, 0
2, 23311, Note_on_c, 0, 71, 0
2, 23317, Control_c, 0, 64, 20
2, 23336, Control_c, 0, 64, 0
2, 23337, Note_on_c, 0, 68, 65
2, 23380, Note_on_c, 0, 66, 0
2, 23563, Note_on_c, 0, 68, 0
2, 23622, Note_on_c, 0, 69, 59
2, 23893, Note_on_c, 0, 73, 57
2, 23916, Note_on_c, 0, 69, 0
2, 24164, Note_on_c, 0, 73, 0
2, 24213, Note_on_c, 0, 78, 50
2, 24258, Control_c, 0, 64, 15
2, 24278, Control_c, 0, 64, 41
2, 24297, Control_c, 0, 64, 53
2, 24317, Control_c, 0, 64, 57
2, 24335, Control_c, 0, 64, 60
2, 24349, Note_on_c, 0, 52, 0
2, 24355, Control_c, 0, 64, 62
2, 24374, Control_c, 0, 64, 64
2, 24394, Control_c, 0, 64, 66
2, 24406, Note_on_c, 0, 61, 0
2, 24412, Control_c, 0, 64, 69
2, 24432, Control_c, 0, 64, 79
2, 24451, Control_c, 0, 64, 99
2, 24470, Control_c, 0, 64, 127
2, 24890, Note_on_c, 0, 66, 41
2, 24931, Note_on_c, 0, 51, 34
2, 24949, Note_on_c, 0, 59, 33
2, 24989, Control_c, 0, 64, 103
2, 25008, Control_c, 0, 64, 89
2, 25027, Control_c, 0, 64, 80
2, 25046, Control_c, 0, 64, 76
2, 25051, Note_on_c, 0, 78, 0
2, 25066, Control_c, 0, 64, 72
2, 25084, Control_c, 0, 64, 69
2, 25104, Control_c, 0, 64, 67
2, 25123, Control_c, 0, 64, 64
2, 25143, Control_c, 0, 64, 63
2, 25161, Control_c, 0, 64, 62
2, 25181, Control_c, 0, 64, 61
2, 25200, Control_c, 0, 64, 60
2, 25218, Control_c, 0, 64, 58
2, 25238, Control_c, 0, 64, 56
2, 25246, Note_on_c, 0, 76, 57
2, 25257, Control_c, 0, 64, 53
2, 25277, Control_c, 0, 64, 50
2, 25295, Control_c, 0, 64, 46
2, 25315, Control_c, 0, 64, 42
2, 25334, Control_c, 0, 64, 36
2, 25354, Control_c, 0, 64, 26
2, 25372, Control_c, 0, 64, 0
2, 25515, Note_on_c, 0, 75, 57
2, 25534, Note_on_c, 0, 76, 0
2, 25779, Note_on_c, 0, 73, 53
2, 25779, Note_on_c, 0, 75, 0
2, 25993, Note_on_c, 0, 66, 0
2, 25999, Note_on_c, 0, 73, 0
2, 26036, Note_on_c, 0, 71, 47
2, 26045, Control_c, 0, 64, 17
2, 26065, Control_c, 0, 64, 34
2, 26084, Control_c, 0, 64, 48
2, 26104, Control_c, 0, 64, 54
2, 26122, Control_c, 0, 64, 57
2, 26142, Control_c, 0, 64, 60
2, 26161, Control_c, 0, 64, 62
2, 26179, Control_c, 0, 64, 64
2, 26199, Control_c, 0, 64, 65
2, 26218, Control_c, 0, 64, 68
2, 26238, Control_c, 0, 64, 74
2, 26252, Note_on_c, 0, 71, 0
2, 26256, Control_c, 0, 64, 84
2, 26276, Control_c, 0, 64, 98
2, 26283, Note_on_c, 0, 51, 0
2, 26295, Control_c, 0, 64, 127
2, 26310, Note_on_c, 0, 69, 56
2, 26365, Note_on_c, 0, 69, 0
2, 26615, Note_on_c, 0, 52, 37
2, 26678, Control_c, 0, 64, 104
2, 26693, Note_on_c, 0, 69, 51
2, 26697, Control_c, 0, 64, 83
2, 26717, Control_c, 0, 64, 69
2, 26729, Note_on_c, 0, 59, 0
2, 26735, Control_c, 0, 64, 60
2, 26743, Note_on_c, 0, 64, 29
2, 26755, Control_c, 0, 64, 43
2, 26774, Control_c, 0, 64, 23
2, 26794, Control_c, 0, 64, 25
2, 26812, Control_c, 0, 64, 37
2, 26832, Control_c, 0, 64, 50
2, 26851, Control_c, 0, 64, 57
2, 26870, Control_c, 0, 64, 61
2, 26889, Control_c, 0, 64, 63
2, 26909, Control_c, 0, 64, 64
2, 26928, Control_c, 0, 64, 65
2, 26930, Note_on_c, 0, 69, 0
2, 26947, Control_c, 0, 64, 66
2, 26966, Control_c, 0, 64, 67
2, 26986, Control_c, 0, 64, 68
2, 26986, Note_on_c, 0, 68, 48
2, 27004, Control_c, 0, 64, 68
2, 27004, Note_on_c, 0, 57, 39
2, 27024, Control_c, 0, 64, 69
2, 27035, Note_on_c, 0, 68, 0
2, 27063, Control_c, 0, 64, 68
2, 27073, Note_on_c, 0, 69, 59
2, 27081, Control_c, 0, 64, 67
2, 27101, Control_c, 0, 64, 67
2, 27112, Note_on_c, 0, 69, 0
2, 27120, Control_c, 0, 64, 66
2, 27135, Note_on_c, 0, 68, 67
2, 27138, Control_c, 0, 64, 64
2, 27158, Control_c, 0, 64, 62
2, 27177, Control_c, 0, 64, 57
2, 27179, Note_on_c, 0, 68, 0
2, 27191, Note_on_c, 0, 69, 76
2, 27197, Control_c, 0, 64, 53
2, 27215, Control_c, 0, 64, 49
2, 27235, Control_c, 0, 64, 44
2, 27254, Control_c, 0, 64, 41
2, 27263, Note_on_c, 0, 69, 0
2, 27268, Note_on_c, 0, 68, 69
2, 27271, Note_on_c, 0, 56, 46
2, 27274, Control_c, 0, 64, 38
2, 27292, Control_c, 0, 64, 35
2, 27307, Note_on_c, 0, 57, 0
2, 27312, Control_c, 0, 64, 31
2, 27331, Control_c, 0, 64, 27
2, 27350, Control_c, 0, 64, 21
2, 27369, Control_c, 0, 64, 13
2, 27389, Control_c, 0, 64, 0
2, 27541, Note_on_c, 0, 54, 61
2, 27542, Note_on_c, 0, 56, 0
2, 27786, Note_on_c, 0, 52, 0
2, 27810, Note_on_c, 0, 54, 0
2, 27810, Note_on_c, 0, 56, 63
2, 28029, Note_on_c, 0, 56, 0
2, 28077, Note_on_c, 0, 52, 48
2, 28098, Note_on_c, 0, 64, 0
2, 28204, Note_on_c, 0, 56, 59
2, 28311, Note_on_c, 0, 59, 61
2, 28330, Note_on_c, 0, 56, 0
2, 28418, Note_on_c, 0, 59, 0
2, 28466, Note_on_c, 0, 64, 55
2, 28599, Control_c, 0, 64, 20
2, 28618, Control_c, 0, 64, 41
2, 28638, Control_c, 0, 64, 51
2, 28656, Control_c, 0, 64, 56
2, 28676, Control_c, 0, 64, 59
2, 28695, Control_c, 0, 64, 62
2, 28714, Control_c, 0, 64, 63
2, 28733, Control_c, 0, 64, 65
2, 28753, Control_c, 0, 64, 67
2, 28772, Control_c, 0, 64, 70
2, 28791, Control_c, 0, 64, 75
2, 28810, Control_c, 0, 64, 86
2, 28830, Control_c, 0, 64, 107
2, 28849, Control_c, 0, 64, 127
2, 28926, Note_on_c, 0, 64, 0
2, 29354, Note_on_c, 0, 66, 66
2, 29376, Note_on_c, 0, 63, 44
2, 29377, Note_on_c, 0, 68, 0
2, 29521, Control_c, 0, 64, 117
2, 29539, Control_c, 0, 64, 115
2, 29559, Control_c, 0, 64, 112
2, 29578, Control_c, 0, 64, 107
2, 29598, Control_c, 0, 64, 99
2, 29616, Control_c, 0, 64, 90
2, 29636, Control_c, 0, 64, 81
2, 29655, Control_c, 0, 64, 74
2, 29674, Control_c, 0, 64, 70
2, 29693, Control_c, 0, 64, 67
2, 29698, Note_on_c, 0, 69, 62
2, 29706, Note_on_c, 0, 66, 0
2, 29713, Control_c, 0, 64, 66
2, 29714, Note_on_c, 0, 61, 42
2, 29732, Control_c, 0, 64, 65
2, 29751, Control_c, 0, 64, 64
2, 29757, Note_on_c, 0, 69, 0
2, 29770, Control_c, 0, 64, 63
2, 29774, Note_on_c, 0, 68, 69
2, 29790, Control_c, 0, 64, 62
2, 29809, Control_c, 0, 64, 60
2, 29828, Control_c, 0, 64, 58
2, 29847, Control_c, 0, 64, 55
2, 29865, Note_on_c, 0, 68, 0
2, 29867, Control_c, 0, 64, 52
2, 29872, Note_on_c, 0, 52, 0
2, 29872, Note_on_c, 0, 63, 0
2, 29882, Note_on_c, 0, 69, 65
2, 29885, Control_c, 0, 64, 49
2, 29905, Control_c, 0, 64, 46
2, 29924, Control_c, 0, 64, 43
2, 29944, Control_c, 0, 64, 39
2, 29962, Control_c, 0, 64, 34
2, 29982, Control_c, 0, 64, 29
2, 30001, Control_c, 0, 64, 27
2, 30039, Control_c, 0, 64, 27
2, 30058, Control_c, 0, 64, 26
2, 30078, Control_c, 0, 64, 25
2, 30404, Control_c, 0, 64, 26
2, 30424, Control_c, 0, 64, 27
2, 30518, Control_c, 0, 64, 28
2, 30559, Note_on_c, 0, 60, 30
2, 30572, Note_on_c, 0, 51, 31
2, 30575, Control_c, 0, 64, 29
2, 30595, Control_c, 0, 64, 29
2, 30614, Control_c, 0, 64, 30
2, 30634, Control_c, 0, 64, 31
2, 30652, Control_c, 0, 64, 32
2, 30683, Note_on_c, 0, 61, 0
2, 30691, Control_c, 0, 64, 32
2, 30729, Control_c, 0, 64, 33
2, 30826, Control_c, 0, 64, 34
2, 30844, Control_c, 0, 64, 34
2, 30864, Control_c, 0, 64, 35
2, 30903, Control_c, 0, 64, 35
2, 30947, Note_on_c, 0, 68, 54
2, 30979, Note_on_c, 0, 69, 0
2, 30998, Control_c, 0, 64, 36
2, 31237, Note_on_c, 0, 68, 0
2, 31244, Note_on_c, 0, 66, 50
2, 31420, Control_c, 0, 64, 35
2, 31478, Note_on_c, 0, 66, 0
2, 31528, Note_on_c, 0, 64, 47
2, 31737, Note_on_c, 0, 64, 0
2, 31765, Control_c, 0, 64, 36
2, 31785, Control_c, 0, 64, 39
2, 31785, Note_on_c, 0, 66, 52
2, 31804, Control_c, 0, 64, 47
2, 31823, Control_c, 0, 64, 54
2, 31842, Control_c, 0, 64, 58
2, 31862, Control_c, 0, 64, 61
2, 31880, Control_c, 0, 64, 63
2, 31899, Control_c, 0, 64, 64
2, 31919, Control_c, 0, 64, 65
2, 31938, Control_c, 0, 64, 66
2, 31957, Control_c, 0, 64, 69
2, 31976, Control_c, 0, 64, 72
2, 31996, Control_c, 0, 64, 77
2, 32014, Control_c, 0, 64, 82
2, 32029, Note_on_c, 0, 66, 0
2, 32034, Control_c, 0, 64, 88
2, 32053, Control_c, 0, 64, 95
2, 32058, Note_on_c, 0, 63, 58
2, 32073, Control_c, 0, 64, 102
2, 32091, Control_c, 0, 64, 116
2, 32111, Control_c, 0, 64, 127
2, 32351, Note_on_c, 0, 75, 65
2, 32411, Note_on_c, 0, 56, 42
2, 32475, Control_c, 0, 64, 119
2, 32494, Control_c, 0, 64, 97
2, 32513, Control_c, 0, 64, 82
2, 32532, Control_c, 0, 64, 72
2, 32552, Control_c, 0, 64, 67
2, 32570, Control_c, 0, 64, 65
2, 32582, Note_on_c, 0, 63, 0
2, 32590, Control_c, 0, 64, 64
2, 32602, Note_on_c, 0, 51, 0
2, 32609, Control_c, 0, 64, 64
2, 32629, Control_c, 0, 64, 63
2, 32630, Note_on_c, 0, 73, 63
2, 32647, Control_c, 0, 64, 62
2, 32667, Control_c, 0, 64, 61
2, 32686, Control_c, 0, 64, 59
2, 32705, Control_c, 0, 64, 59
2, 32724, Control_c, 0, 64, 58
2, 32744, Control_c, 0, 64, 56
2, 32755, Note_on_c, 0, 75, 0
2, 32763, Control_c, 0, 64, 55
2, 32782, Control_c, 0, 64, 53
2, 32801, Control_c, 0, 64, 51
2, 32820, Control_c, 0, 64, 49
2, 32839, Control_c, 0, 64, 47
2, 32858, Control_c, 0, 64, 45
2, 32878, Control_c, 0, 64, 43
2, 32890, Note_on_c, 0, 72, 68
2, 32897, Control_c, 0, 64, 37
2, 32916, Control_c, 0, 64, 20
2, 32935, Control_c, 0, 64, 0
2, 32936, Note_on_c, 0, 73, 0
2, 33142, Note_on_c, 0, 56, 0
2, 33145, Note_on_c, 0, 72, 0
2, 33157, Note_on_c, 0, 70, 71
2, 33177, Note_on_c, 0, 54, 56
2, 33388, Note_on_c, 0, 70, 0
2, 33401, Note_on_c, 0, 54, 0
2, 33418, Note_on_c, 0, 72, 68
2, 33439, Note_on_c, 0, 56, 55
2, 33513, Control_c, 0, 64, 39
2, 33531, Control_c, 0, 64, 51
2, 33551, Control_c, 0, 64, 58
2, 33570, Control_c, 0, 64, 63
2, 33589, Control_c, 0, 64, 65
2, 33608, Control_c, 0, 64, 69
2, 33628, Control_c, 0, 64, 76
2, 33647, Control_c, 0, 64, 92
2, 33650, Note_on_c, 0, 72, 0
2, 33666, Control_c, 0, 64, 123
2, 33685, Control_c, 0, 64, 127
2, 33686, Note_on_c, 0, 68, 74
2, 33870, Note_on_c, 0, 68, 0
2, 34012, Note_on_c, 0, 81, 74
2, 34047, Note_on_c, 0, 49, 45
2, 34148, Control_c, 0, 64, 96
2, 34168, Control_c, 0, 64, 82
2, 34176, Note_on_c, 0, 56, 0
2, 34187, Control_c, 0, 64, 73
2, 34207, Control_c, 0, 64, 66
2, 34225, Control_c, 0, 64, 63
2, 34245, Control_c, 0, 64, 60
2, 34264, Control_c, 0, 64, 55
2, 34283, Control_c, 0, 64, 49
2, 34302, Control_c, 0, 64, 42
2, 34322, Control_c, 0, 64, 34
2, 34331, Note_on_c, 0, 80, 74
2, 34341, Control_c, 0, 64, 24
2, 34359, Control_c, 0, 64, 9
2, 34378, Control_c, 0, 64, 0
2, 34383, Note_on_c, 0, 81, 0
2, 34486, Note_on_c, 0, 60, 0
2, 34589, Note_on_c, 0, 78, 69
2, 34643, Note_on_c, 0, 80, 0
2, 34847, Note_on_c, 0, 78, 0
2, 34852, Note_on_c, 0, 76, 70
2, 34862, Note_on_c, 0, 61, 64
2, 34878, Control_c, 0, 64, 36
2, 34897, Control_c, 0, 64, 52
2, 34916, Control_c, 0, 64, 57
2, 34935, Control_c, 0, 64, 62
2, 34955, Control_c, 0, 64, 65
2, 34972, Note_on_c, 0, 61, 0
2, 34973, Control_c, 0, 64, 69
2, 34992, Control_c, 0, 64, 78
2, 35012, Control_c, 0, 64, 92
2, 35031, Control_c, 0, 64, 127
2, 35116, Note_on_c, 0, 76, 0
2, 35137, Note_on_c, 0, 78, 76
2, 35167, Control_c, 0, 64, 114
2, 35170, Note_on_c, 0, 63, 47
2, 35185, Control_c, 0, 64, 91
2, 35205, Control_c, 0, 64, 75
2, 35224, Control_c, 0, 64, 64
2, 35243, Control_c, 0, 64, 39
2, 35262, Control_c, 0, 64, 0
2, 35338, Control_c, 0, 64, 9
2, 35358, Control_c, 0, 64, 46
2, 35377, Control_c, 0, 64, 56
2, 35396, Control_c, 0, 64, 59
2, 35406, Note_on_c, 0, 78, 0
2, 35415, Control_c, 0, 64, 61
2, 35421, Note_on_c, 0, 75, 68
2, 35424, Note_on_c, 0, 63, 0
2, 35435, Control_c, 0, 64, 63
2, 35453, Control_c, 0, 64, 64
2, 35472, Control_c, 0, 64, 65
2, 35492, Control_c, 0, 64, 68
2, 35511, Control_c, 0, 64, 73
2, 35530, Control_c, 0, 64, 81
2, 35549, Control_c, 0, 64, 88
2, 35569, Control_c, 0, 64, 94
2, 35587, Control_c, 0, 64, 97
2, 35607, Control_c, 0, 64, 98
2, 35646, Control_c, 0, 64, 98
2, 35684, Control_c, 0, 64, 97
2, 35703, Control_c, 0, 64, 96
2, 35722, Control_c, 0, 64, 93
2, 35730, Note_on_c, 0, 76, 65
2, 35735, Note_on_c, 0, 75, 0
2, 35741, Control_c, 0, 64, 88
2, 35761, Control_c, 0, 64, 81
2, 35780, Control_c, 0, 64, 77
2, 35782, Note_on_c, 0, 61, 35
2, 35799, Control_c, 0, 64, 74
2, 35818, Control_c, 0, 64, 72
2, 35838, Control_c, 0, 64, 68
2, 35857, Control_c, 0, 64, 64
2, 35876, Control_c, 0, 64, 61
2, 35895, Control_c, 0, 64, 58
2, 35915, Control_c, 0, 64, 57
2, 35933, Control_c, 0, 64, 55
2, 35952, Control_c, 0, 64, 53
2, 35972, Control_c, 0, 64, 49
2, 35991, Control_c, 0, 64, 43
2, 36010, Control_c, 0, 64, 38
2, 36029, Control_c, 0, 64, 33
2, 36046, Note_on_c, 0, 75, 59
2, 36049, Control_c, 0, 64, 29
2, 36067, Control_c, 0, 64, 27
2, 36083, Control_c, 0, 64, 22
2, 36102, Control_c, 0, 64, 17
2, 36122, Control_c, 0, 64, 9
2, 36217, Control_c, 0, 64, 0
2, 36297, Note_on_c, 0, 49, 0
2, 36312, Note_on_c, 0, 73, 50
2, 36331, Note_on_c, 0, 75, 0
2, 36548, Note_on_c, 0, 73, 0
2, 36557, Note_on_c, 0, 72, 53
2, 36580, Note_on_c, 0, 51, 41
2, 36762, Note_on_c, 0, 51, 0
2, 36816, Note_on_c, 0, 72, 0
2, 36843, Note_on_c, 0, 73, 51
2, 36850, Note_on_c, 0, 52, 39
2, 36888, Control_c, 0, 64, 9
2, 36906, Control_c, 0, 64, 41
2, 36918, Note_on_c, 0, 61, 0
2, 36926, Control_c, 0, 64, 53
2, 36945, Control_c, 0, 64, 58
2, 36965, Control_c, 0, 64, 61
2, 36983, Control_c, 0, 64, 63
2, 37003, Control_c, 0, 64, 65
2, 37022, Control_c, 0, 64, 67
2, 37047, Control_c, 0, 64, 72
2, 37066, Control_c, 0, 64, 81
2, 37086, Control_c, 0, 64, 100
2, 37104, Control_c, 0, 64, 127
2, 37124, Note_on_c, 0, 70, 55
2, 37365, Note_on_c, 0, 70, 0
2, 37413, Control_c, 0, 64, 100
2, 37431, Control_c, 0, 64, 79
2, 37432, Note_on_c, 0, 68, 53
2, 37447, Note_on_c, 0, 52, 0
2, 37451, Control_c, 0, 64, 66
2, 37470, Control_c, 0, 64, 55
2, 37472, Note_on_c, 0, 46, 33
2, 37490, Control_c, 0, 64, 38
2, 37508, Control_c, 0, 64, 37
2, 37528, Control_c, 0, 64, 47
2, 37547, Control_c, 0, 64, 57
2, 37567, Control_c, 0, 64, 61
2, 37585, Control_c, 0, 64, 64
2, 37605, Control_c, 0, 64, 65
2, 37624, Control_c, 0, 64, 68
2, 37643, Control_c, 0, 64, 70
2, 37662, Control_c, 0, 64, 72
2, 37682, Control_c, 0, 64, 73
2, 37686, Note_on_c, 0, 76, 0
2, 37721, Note_on_c, 0, 68, 0
2, 37739, Control_c, 0, 64, 74
2, 37759, Control_c, 0, 64, 73
2, 37797, Control_c, 0, 64, 73
2, 37803, Note_on_c, 0, 51, 47
2, 37803, Note_on_c, 0, 67, 54
2, 37816, Control_c, 0, 64, 72
2, 37836, Control_c, 0, 64, 71
2, 37854, Control_c, 0, 64, 69
2, 37874, Control_c, 0, 64, 65
2, 37893, Control_c, 0, 64, 62
2, 37911, Control_c, 0, 64, 59
2, 37931, Control_c, 0, 64, 56
2, 37950, Control_c, 0, 64, 54
2, 37970, Control_c, 0, 64, 51
2, 37988, Control_c, 0, 64, 50
2, 38010, Control_c, 0, 64, 49
2, 38029, Control_c, 0, 64, 48
2, 38048, Control_c, 0, 64, 47
2, 38066, Note_on_c, 0, 46, 0
2, 38066, Note_on_c, 0, 49, 64
2, 38067, Control_c, 0, 64, 45
2, 38087, Control_c, 0, 64, 41
2, 38106, Control_c, 0, 64, 35
2, 38125, Control_c, 0, 64, 28
2, 38139, Note_on_c, 0, 51, 0
2, 38144, Control_c, 0, 64, 22
2, 38164, Control_c, 0, 64, 20
2, 38182, Control_c, 0, 64, 19
2, 38259, Control_c, 0, 64, 18
2, 38309, Note_on_c, 0, 49, 0
2, 38317, Control_c, 0, 64, 15
2, 38317, Note_on_c, 0, 75, 71
2, 38322, Note_on_c, 0, 73, 0
2, 38333, Note_on_c, 0, 47, 50
2, 38336, Control_c, 0, 64, 0
2, 38338, Note_on_c, 0, 68, 52
2, 38458, Note_on_c, 0, 67, 0
2, 38565, Note_on_c, 0, 68, 0
2, 38586, Note_on_c, 0, 73, 60
2, 38587, Note_on_c, 0, 47, 0
2, 38618, Note_on_c, 0, 49, 46
2, 38618, Note_on_c, 0, 70, 50
2, 38659, Note_on_c, 0, 70, 0
2, 38669, Note_on_c, 0, 68, 65
2, 38680, Control_c, 0, 64, 13
2, 38699, Control_c, 0, 64, 15
2, 38752, Note_on_c, 0, 70, 73
2, 38763, Note_on_c, 0, 75, 0
2, 38834, Control_c, 0, 64, 18
2, 38853, Control_c, 0, 64, 20
2, 38853, Note_on_c, 0, 46, 56
2, 38856, Note_on_c, 0, 73, 0
2, 38869, Note_on_c, 0, 68, 0
2, 38871, Control_c, 0, 64, 24
2, 38891, Control_c, 0, 64, 26
2, 38942, Note_on_c, 0, 49, 0
2, 38987, Control_c, 0, 64, 25
2, 39102, Control_c, 0, 64, 26
2, 39139, Note_on_c, 0, 73, 70
2, 39140, Note_on_c, 0, 43, 46
2, 39168, Note_on_c, 0, 70, 0
2, 39170, Note_on_c, 0, 63, 48
2, 39207, Note_on_c, 0, 46, 0
2, 39254, Control_c, 0, 64, 27
2, 39273, Control_c, 0, 64, 29
2, 39292, Control_c, 0, 64, 31
2, 39311, Control_c, 0, 64, 32
2, 39331, Control_c, 0, 64, 32
2, 39369, Control_c, 0, 64, 33
2, 39408, Control_c, 0, 64, 34
2, 39419, Note_on_c, 0, 47, 70
2, 39426, Control_c, 0, 64, 34
2, 39446, Control_c, 0, 64, 36
2, 39465, Control_c, 0, 64, 37
2, 39485, Control_c, 0, 64, 38
2, 39503, Control_c, 0, 64, 39
2, 39523, Control_c, 0, 64, 40
2, 39542, Control_c, 0, 64, 40
2, 39638, Control_c, 0, 64, 41
2, 39677, Control_c, 0, 64, 41
2, 39690, Note_on_c, 0, 46, 66
2, 39695, Control_c, 0, 64, 42
2, 39734, Control_c, 0, 64, 42
2, 39739, Note_on_c, 0, 47, 0
2, 39798, Note_on_c, 0, 63, 0
2, 39811, Control_c, 0, 64, 42
2, 39906, Control_c, 0, 64, 41
2, 39920, Note_on_c, 0, 43, 0
2, 39926, Control_c, 0, 64, 41
2, 39947, Note_on_c, 0, 71, 67
2, 39960, Note_on_c, 0, 44, 52
2, 39963, Note_on_c, 0, 65, 56
2, 39965, Control_c, 0, 64, 40
2, 39965, Note_on_c, 0, 46, 0
2, 39983, Control_c, 0, 64, 39
2, 40041, Control_c, 0, 64, 38
2, 40052, Note_on_c, 0, 73, 0
2, 40156, Control_c, 0, 64, 38
2, 40172, Note_on_c, 0, 65, 0
2, 40175, Control_c, 0, 64, 37
2, 40193, Control_c, 0, 64, 36
2, 40213, Control_c, 0, 64, 36
2, 40220, Note_on_c, 0, 70, 64
2, 40236, Note_on_c, 0, 44, 0
2, 40240, Note_on_c, 0, 71, 0
2, 40242, Note_on_c, 0, 67, 42
2, 40246, Note_on_c, 0, 46, 48
2, 40295, Note_on_c, 0, 65, 49
2, 40295, Note_on_c, 0, 67, 0
2, 40362, Note_on_c, 0, 67, 55
2, 40367, Control_c, 0, 64, 35
2, 40378, Note_on_c, 0, 65, 0
2, 40505, Note_on_c, 0, 43, 49
2, 40559, Control_c, 0, 64, 34
2, 40578, Control_c, 0, 64, 34
2, 40633, Note_on_c, 0, 46, 0
2, 40636, Control_c, 0, 64, 33
2, 40847, Control_c, 0, 64, 32
2, 40908, Note_on_c, 0, 37, 49
2, 41038, Note_on_c, 0, 43, 0
2, 41219, Note_on_c, 0, 67, 0
2, 41230, Control_c, 0, 64, 32
2, 41284, Note_on_c, 0, 68, 57
2, 41538, Control_c, 0, 64, 31
2, 41557, Control_c, 0, 64, 31
2, 41560, Note_on_c, 0, 67, 59
2, 41576, Control_c, 0, 64, 30
2, 41587, Note_on_c, 0, 70, 0
2, 41596, Control_c, 0, 64, 29
2, 41607, Note_on_c, 0, 68, 0
2, 41653, Control_c, 0, 64, 29
2, 41672, Control_c, 0, 64, 28
2, 41691, Control_c, 0, 64, 27
2, 41787, Control_c, 0, 64, 26
2, 41807, Control_c, 0, 64, 24
2, 41817, Note_on_c, 0, 67, 0
2, 41832, Note_on_c, 0, 65, 57
2, 41865, Control_c, 0, 64, 23
2, 41885, Control_c, 0, 64, 21
2, 41903, Control_c, 0, 64, 18
2, 41923, Control_c, 0, 64, 13
2, 41942, Control_c, 0, 64, 0
2, 42076, Note_on_c, 0, 65, 0
2, 42100, Note_on_c, 0, 67, 54
2, 42135, Control_c, 0, 64, 24
2, 42155, Control_c, 0, 64, 44
2, 42173, Control_c, 0, 64, 55
2, 42192, Control_c, 0, 64, 59
2, 42212, Control_c, 0, 64, 61
2, 42230, Control_c, 0, 64, 63
2, 42250, Control_c, 0, 64, 64
2, 42269, Control_c, 0, 64, 66
2, 42289, Control_c, 0, 64, 69
2, 42304, Note_on_c, 0, 67, 0
2, 42307, Control_c, 0, 64, 75
2, 42327, Control_c, 0, 64, 89
2, 42346, Control_c, 0, 64, 111
2, 42349, Note_on_c, 0, 63, 54
2, 42365, Control_c, 0, 64, 127
2, 42504, Note_on_c, 0, 67, 52
2, 42580, Note_on_c, 0, 70, 70
2, 42619, Note_on_c, 0, 63, 0
2, 42672, Control_c, 0, 64, 107
2, 42692, Control_c, 0, 64, 89
2, 42705, Note_on_c, 0, 75, 72
2, 42710, Control_c, 0, 64, 72
2, 42730, Control_c, 0, 64, 56
2, 42749, Control_c, 0, 64, 0
2, 42866, Control_c, 0, 64, 33
2, 42886, Control_c, 0, 64, 48
2, 42904, Control_c, 0, 64, 56
2, 42924, Control_c, 0, 64, 60
2, 42943, Control_c, 0, 64, 62
2, 42963, Control_c, 0, 64, 63
2, 42981, Control_c, 0, 64, 65
2, 42981, Note_on_c, 0, 67, 0
2, 42993, Note_on_c, 0, 37, 0
2, 42995, Note_on_c, 0, 49, 57
2, 43001, Control_c, 0, 64, 67
2, 43020, Control_c, 0, 64, 71
2, 43040, Control_c, 0, 64, 78
2, 43058, Control_c, 0, 64, 90
2, 43078, Control_c, 0, 64, 108
2, 43078, Note_on_c, 0, 49, 0
2, 43097, Control_c, 0, 64, 127
2, 43254, Note_on_c, 0, 47, 65
2, 43327, Control_c, 0, 64, 119
2, 43346, Control_c, 0, 64, 95
2, 43366, Control_c, 0, 64, 83
2, 43384, Control_c, 0, 64, 75
2, 43404, Control_c, 0, 64, 70
2, 43423, Control_c, 0, 64, 66
2, 43443, Control_c, 0, 64, 63
2, 43461, Control_c, 0, 64, 61
2, 43481, Control_c, 0, 64, 59
2, 43500, Control_c, 0, 64, 56
2, 43520, Control_c, 0, 64, 54
2, 43527, Note_on_c, 0, 46, 65
2, 43531, Note_on_c, 0, 47, 0
2, 43538, Control_c, 0, 64, 52
2, 43558, Control_c, 0, 64, 50
2, 43577, Control_c, 0, 64, 48
2, 43596, Control_c, 0, 64, 45
2, 43615, Control_c, 0, 64, 41
2, 43635, Control_c, 0, 64, 35
2, 43654, Control_c, 0, 64, 31
2, 43672, Control_c, 0, 64, 29
2, 43692, Control_c, 0, 64, 28
2, 43711, Control_c, 0, 64, 27
2, 43730, Control_c, 0, 64, 25
2, 43749, Control_c, 0, 64, 22
2, 43760, Note_on_c, 0, 46, 0
2, 43769, Control_c, 0, 64, 18
2, 43787, Note_on_c, 0, 68, 68
2, 43788, Control_c, 0, 64, 9
2, 43802, Note_on_c, 0, 70, 0
2, 43807, Control_c, 0, 64, 0
2, 43808, Note_on_c, 0, 47, 57
2, 44031, Note_on_c, 0, 47, 0
2, 44054, Note_on_c, 0, 44, 61
2, 44370, Note_on_c, 0, 52, 55
2, 44407, Note_on_c, 0, 44, 0
2, 44423, Note_on_c, 0, 52, 0
2, 44437, Note_on_c, 0, 51, 65
2, 44502, Note_on_c, 0, 51, 0
2, 44517, Note_on_c, 0, 52, 74
2, 44614, Note_on_c, 0, 72, 70
2, 44625, Note_on_c, 0, 75, 0
2, 44877, Note_on_c, 0, 73, 74
2, 44906, Note_on_c, 0, 72, 0
2, 45140, Note_on_c, 0, 75, 76
2, 45154, Note_on_c, 0, 51, 57
2, 45180, Note_on_c, 0, 73, 0
2, 45425, Note_on_c, 0, 75, 0
2, 45429, Note_on_c, 0, 76, 67
2, 45453, Note_on_c, 0, 49, 52
2, 45526, Note_on_c, 0, 51, 0
2, 45538, Note_on_c, 0, 52, 0
2, 45705, Note_on_c, 0, 75, 70
2, 45723, Note_on_c, 0, 76, 0
2, 46051, Note_on_c, 0, 73, 59
2, 46079, Note_on_c, 0, 75, 0
2, 46101, Note_on_c, 0, 51, 32
2, 46177, Note_on_c, 0, 49, 0
2, 46421, Note_on_c, 0, 73, 0
2, 46424, Note_on_c, 0, 71, 64
2, 46471, Control_c, 0, 64, 15
2, 46490, Control_c, 0, 64, 36
2, 46509, Control_c, 0, 64, 46
2, 46529, Control_c, 0, 64, 51
2, 46548, Control_c, 0, 64, 55
2, 46567, Control_c, 0, 64, 58
2, 46586, Control_c, 0, 64, 61
2, 46606, Control_c, 0, 64, 62
2, 46625, Control_c, 0, 64, 64
2, 46645, Control_c, 0, 64, 65
2, 46664, Control_c, 0, 64, 67
2, 46684, Control_c, 0, 64, 72
2, 46702, Control_c, 0, 64, 82
2, 46722, Control_c, 0, 64, 99
2, 46741, Control_c, 0, 64, 127
2, 47029, Note_on_c, 0, 71, 0
2, 47068, Note_on_c, 0, 68, 0
2, 47085, Note_on_c, 0, 73, 68
2, 47327, Note_on_c, 0, 39, 37
2, 47393, Note_on_c, 0, 71, 57
2, 47414, Control_c, 0, 64, 96
2, 47433, Control_c, 0, 64, 79
2, 47438, Note_on_c, 0, 67, 40
2, 47444, Note_on_c, 0, 73, 0
2, 47452, Control_c, 0, 64, 68
2, 47463, Note_on_c, 0, 71, 0
2, 47471, Control_c, 0, 64, 58
2, 47473, Note_on_c, 0, 70, 65
2, 47491, Control_c, 0, 64, 0
2, 47536, Note_on_c, 0, 67, 0
2, 47561, Note_on_c, 0, 68, 67
2, 47561, Note_on_c, 0, 70, 0
2, 47625, Control_c, 0, 64, 19
2, 47645, Control_c, 0, 64, 33
2, 47663, Control_c, 0, 64, 45
2, 47665, Note_on_c, 0, 68, 0
2, 47676, Note_on_c, 0, 70, 59
2, 47683, Control_c, 0, 64, 50
2, 47702, Control_c, 0, 64, 50
2, 47721, Control_c, 0, 64, 51
2, 47798, Control_c, 0, 64, 52
2, 47817, Control_c, 0, 64, 53
2, 47874, Control_c, 0, 64, 52
2, 47894, Control_c, 0, 64, 51
2, 47913, Control_c, 0, 64, 51
2, 47943, Note_on_c, 0, 44, 35
2, 47951, Control_c, 0, 64, 50
2, 47989, Control_c, 0, 64, 50
2, 48009, Control_c, 0, 64, 49
2, 48016, Note_on_c, 0, 59, 41
2, 48028, Control_c, 0, 64, 48
2, 48048, Control_c, 0, 64, 46
2, 48066, Control_c, 0, 64, 44
2, 48066, Note_on_c, 0, 63, 51
2, 48073, Note_on_c, 0, 51, 0
2, 48086, Control_c, 0, 64, 40
2, 48105, Control_c, 0, 64, 36
2, 48105, Note_on_c, 0, 39, 0
2, 48125, Control_c, 0, 64, 32
2, 48143, Control_c, 0, 64, 27
2, 48148, Note_on_c, 0, 68, 59
2, 48163, Control_c, 0, 64, 22
2, 48182, Control_c, 0, 64, 17
2, 48201, Control_c, 0, 64, 0
2, 48208, Note_on_c, 0, 70, 0
2, 48467, Note_on_c, 0, 49, 51
2, 48740, Note_on_c, 0, 47, 59
2, 48829, Note_on_c, 0, 49, 0
2, 48993, Note_on_c, 0, 47, 0
2, 48994, Note_on_c, 0, 46, 64
2, 49203, Note_on_c, 0, 44, 0
2, 49267, Note_on_c, 0, 46, 0
2, 49283, Note_on_c, 0, 47, 55
2, 49529, Note_on_c, 0, 47, 0
2, 49568, Note_on_c, 0, 44, 47
2, 49797, Note_on_c, 0, 59, 0
2, 49828, Note_on_c, 0, 47, 53
2, 49966, Note_on_c, 0, 63, 0
2, 50105, Note_on_c, 0, 51, 49
2, 50159, Note_on_c, 0, 47, 0
2, 50234, Note_on_c, 0, 68, 0
2, 50348, Note_on_c, 0, 51, 0
2, 50386, Note_on_c, 0, 56, 50
2, 50646, Note_on_c, 0, 56, 0
2, 50657, Note_on_c, 0, 52, 42
2, 50855, Note_on_c, 0, 52, 0
2, 50929, Note_on_c, 0, 71, 56
2, 50948, Note_on_c, 0, 54, 33
2, 50995, Note_on_c, 0, 71, 0
2, 51022, Note_on_c, 0, 70, 62
2, 51081, Note_on_c, 0, 70, 0
2, 51090, Note_on_c, 0, 71, 57
2, 51205, Note_on_c, 0, 51, 39
2, 51245, Note_on_c, 0, 54, 0
2, 51371, Note_on_c, 0, 44, 0
2, 51533, Note_on_c, 0, 51, 0
2, 51558, Note_on_c, 0, 49, 31
2, 51564, Note_on_c, 0, 52, 31
2, 51840, Note_on_c, 0, 49, 0
2, 51847, Note_on_c, 0, 71, 0
2, 51864, Note_on_c, 0, 51, 38
2, 51872, Note_on_c, 0, 68, 52
2, 52151, Note_on_c, 0, 70, 57
2, 52183, Note_on_c, 0, 49, 34
2, 52210, Note_on_c, 0, 51, 0
2, 52242, Note_on_c, 0, 68, 0
2, 52423, Note_on_c, 0, 73, 58
2, 52441, Note_on_c, 0, 49, 0
2, 52442, Note_on_c, 0, 47, 38
2, 52524, Note_on_c, 0, 70, 0
2, 52691, Note_on_c, 0, 47, 0
2, 52711, Note_on_c, 0, 76, 63
2, 52725, Note_on_c, 0, 49, 40
2, 52745, Note_on_c, 0, 73, 0
2, 52803, Note_on_c, 0, 52, 0
2, 52987, Note_on_c, 0, 46, 44
2, 52992, Note_on_c, 0, 49, 0
2, 53117, Note_on_c, 0, 54, 56
2, 53171, Note_on_c, 0, 54, 0
2, 53186, Note_on_c, 0, 52, 53
2, 53258, Note_on_c, 0, 52, 0
2, 53271, Note_on_c, 0, 54, 64
2, 53315, Note_on_c, 0, 46, 0
2, 53522, Note_on_c, 0, 76, 0
2, 53530, Note_on_c, 0, 75, 66
2, 53792, Note_on_c, 0, 76, 68
2, 53840, Note_on_c, 0, 75, 0
2, 54051, Note_on_c, 0, 80, 72
2, 54063, Note_on_c, 0, 54, 0
2, 54063, Note_on_c, 0, 76, 0
2, 54070, Note_on_c, 0, 56, 46
2, 54261, Note_on_c, 0, 56, 0
2, 54348, Note_on_c, 0, 78, 61
2, 54372, Note_on_c, 0, 58, 36
2, 54411, Note_on_c, 0, 80, 0
2, 54535, Control_c, 0, 64, 27
2, 54554, Control_c, 0, 64, 48
2, 54574, Control_c, 0, 64, 55
2, 54592, Control_c, 0, 64, 59
2, 54612, Control_c, 0, 64, 62
2, 54624, Note_on_c, 0, 78, 0
2, 54628, Note_on_c, 0, 76, 66
2, 54631, Control_c, 0, 64, 64
2, 54650, Control_c, 0, 64, 66
2, 54669, Control_c, 0, 64, 70
2, 54673, Note_on_c, 0, 76, 0
2, 54689, Control_c, 0, 64, 77
2, 54708, Control_c, 0, 64, 89
2, 54727, Control_c, 0, 64, 103
2, 54746, Control_c, 0, 64, 127
2, 54927, Note_on_c, 0, 58, 0
2, 54979, Note_on_c, 0, 75, 64
2, 55005, Note_on_c, 0, 59, 39
2, 55015, Control_c, 0, 64, 101
2, 55034, Control_c, 0, 64, 88
2, 55054, Control_c, 0, 64, 78
2, 55067, Note_on_c, 0, 59, 0
2, 55072, Control_c, 0, 64, 69
2, 55074, Note_on_c, 0, 58, 45
2, 55092, Control_c, 0, 64, 63
2, 55111, Control_c, 0, 64, 55
2, 55130, Control_c, 0, 64, 52
2, 55137, Note_on_c, 0, 58, 0
2, 55149, Control_c, 0, 64, 51
2, 55169, Control_c, 0, 64, 49
2, 55188, Control_c, 0, 64, 45
2, 55207, Control_c, 0, 64, 35
2, 55208, Note_on_c, 0, 59, 47
2, 55226, Control_c, 0, 64, 0
2, 55283, Note_on_c, 0, 73, 60
2, 55563, Note_on_c, 0, 71, 59
2, 55574, Note_on_c, 0, 73, 0
2, 55780, Note_on_c, 0, 71, 0
2, 55831, Note_on_c, 0, 70, 58
2, 56026, Note_on_c, 0, 70, 0
2, 56098, Note_on_c, 0, 71, 53
2, 56208, Control_c, 0, 64, 17
2, 56226, Control_c, 0, 64, 39
2, 56245, Control_c, 0, 64, 49
2, 56264, Control_c, 0, 64, 54
2, 56284, Control_c, 0, 64, 57
2, 56302, Control_c, 0, 64, 59
2, 56322, Control_c, 0, 64, 61
2, 56341, Control_c, 0, 64, 62
2, 56360, Control_c, 0, 64, 63
2, 56379, Control_c, 0, 64, 64
2, 56379, Note_on_c, 0, 66, 47
2, 56399, Control_c, 0, 64, 65
2, 56418, Control_c, 0, 64, 67
2, 56436, Control_c, 0, 64, 69
2, 56456, Control_c, 0, 64, 72
2, 56475, Control_c, 0, 64, 78
2, 56495, Control_c, 0, 64, 84
2, 56513, Control_c, 0, 64, 88
2, 56533, Control_c, 0, 64, 92
2, 56537, Note_on_c, 0, 59, 0
2, 56552, Control_c, 0, 64, 96
2, 56571, Control_c, 0, 64, 101
2, 56590, Control_c, 0, 64, 104
2, 56629, Control_c, 0, 64, 104
2, 56648, Control_c, 0, 64, 103
2, 56688, Note_on_c, 0, 63, 38
2, 56705, Control_c, 0, 64, 102
2, 56725, Control_c, 0, 64, 98
2, 56744, Control_c, 0, 64, 93
2, 56764, Control_c, 0, 64, 89
2, 56782, Control_c, 0, 64, 88
2, 56802, Control_c, 0, 64, 88
2, 56821, Control_c, 0, 64, 87
2, 56840, Control_c, 0, 64, 85
2, 56859, Control_c, 0, 64, 80
2, 56879, Control_c, 0, 64, 75
2, 56898, Control_c, 0, 64, 71
2, 56916, Control_c, 0, 64, 69
2, 56936, Control_c, 0, 64, 67
2, 56955, Control_c, 0, 64, 65
2, 56974, Note_on_c, 0, 59, 47
2, 56975, Control_c, 0, 64, 64
2, 56993, Control_c, 0, 64, 62
2, 57013, Control_c, 0, 64, 61
2, 57032, Control_c, 0, 64, 60
2, 57051, Control_c, 0, 64, 58
2, 57070, Control_c, 0, 64, 56
2, 57090, Control_c, 0, 64, 54
2, 57109, Control_c, 0, 64, 52
2, 57128, Control_c, 0, 64, 50
2, 57147, Control_c, 0, 64, 48
2, 57167, Control_c, 0, 64, 44
2, 57185, Control_c, 0, 64, 38
2, 57206, Control_c, 0, 64, 30
2, 57225, Control_c, 0, 64, 21
2, 57245, Control_c, 0, 64, 11
2, 57260, Note_on_c, 0, 57, 55
2, 57263, Control_c, 0, 64, 0
2, 57286, Note_on_c, 0, 59, 0
2, 57381, Note_on_c, 0, 71, 0
2, 57530, Note_on_c, 0, 57, 0
2, 57540, Note_on_c, 0, 56, 63
2, 57779, Note_on_c, 0, 56, 0
2, 57793, Note_on_c, 0, 73, 66
2, 57842, Note_on_c, 0, 57, 41
2, 57896, Note_on_c, 0, 75, 0
2, 57902, Note_on_c, 0, 66, 0
2, 58026, Note_on_c, 0, 63, 0
2, 58095, Note_on_c, 0, 54, 51
2, 58201, Note_on_c, 0, 57, 0
2, 58396, Note_on_c, 0, 54, 0
2, 58417, Note_on_c, 0, 51, 43
2, 58661, Note_on_c, 0, 51, 0
2, 58699, Note_on_c, 0, 70, 58
2, 58710, Note_on_c, 0, 52, 48
2, 58778, Note_on_c, 0, 73, 0
2, 58925, Note_on_c, 0, 70, 0
2, 58952, Note_on_c, 0, 72, 67
2, 58964, Note_on_c, 0, 51, 45
2, 59098, Note_on_c, 0, 52, 0
2, 59210, Note_on_c, 0, 51, 0
2, 59216, Note_on_c, 0, 75, 66
2, 59228, Note_on_c, 0, 49, 54
2, 59493, Note_on_c, 0, 49, 0
2, 59498, Note_on_c, 0, 78, 70
2, 59501, Note_on_c, 0, 72, 0
2, 59521, Note_on_c, 0, 51, 46
2, 59566, Note_on_c, 0, 75, 0
2, 59764, Note_on_c, 0, 80, 72
2, 59787, Note_on_c, 0, 48, 51
2, 59788, Note_on_c, 0, 78, 0
2, 60093, Note_on_c, 0, 81, 66
2, 60098, Note_on_c, 0, 80, 0
2, 60126, Note_on_c, 0, 44, 44
2, 60232, Note_on_c, 0, 48, 0
2, 60388, Note_on_c, 0, 80, 68
2, 60448, Note_on_c, 0, 81, 0
2, 60650, Note_on_c, 0, 78, 69
2, 60719, Note_on_c, 0, 80, 0
2, 60914, Note_on_c, 0, 44, 0
2, 60915, Note_on_c, 0, 46, 60
2, 60923, Note_on_c, 0, 76, 67
2, 60947, Note_on_c, 0, 78, 0
2, 61160, Note_on_c, 0, 46, 0
2, 61174, Note_on_c, 0, 76, 0
2, 61197, Note_on_c, 0, 78, 69
2, 61207, Note_on_c, 0, 48, 52
2, 61312, Control_c, 0, 64, 38
2, 61332, Control_c, 0, 64, 52
2, 61351, Control_c, 0, 64, 57
2, 61363, Note_on_c, 0, 51, 0
2, 61370, Control_c, 0, 64, 60
2, 61389, Control_c, 0, 64, 62
2, 61409, Control_c, 0, 64, 64
2, 61428, Control_c, 0, 64, 65
2, 61447, Control_c, 0, 64, 67
2, 61452, Note_on_c, 0, 78, 0
2, 61466, Control_c, 0, 64, 70
2, 61469, Note_on_c, 0, 75, 71
2, 61486, Control_c, 0, 64, 74
2, 61505, Control_c, 0, 64, 80
2, 61524, Control_c, 0, 64, 90
2, 61543, Control_c, 0, 64, 102
2, 61563, Control_c, 0, 64, 127
2, 61790, Note_on_c, 0, 76, 68
2, 61794, Note_on_c, 0, 75, 0
2, 61830, Note_on_c, 0, 49, 43
2, 61850, Control_c, 0, 64, 106
2, 61869, Control_c, 0, 64, 86
2, 61889, Control_c, 0, 64, 73
2, 61908, Control_c, 0, 64, 65
2, 61927, Control_c, 0, 64, 62
2, 61940, Note_on_c, 0, 48, 0
2, 61946, Control_c, 0, 64, 61
2, 61966, Control_c, 0, 64, 61
2, 61985, Control_c, 0, 64, 58
2, 62009, Control_c, 0, 64, 55
2, 62028, Control_c, 0, 64, 50
2, 62047, Control_c, 0, 64, 44
2, 62066, Control_c, 0, 64, 37
2, 62086, Control_c, 0, 64, 32
2, 62105, Control_c, 0, 64, 30
2, 62113, Note_on_c, 0, 75, 59
2, 62124, Control_c, 0, 64, 26
2, 62143, Control_c, 0, 64, 20
2, 62163, Control_c, 0, 64, 11
2, 62181, Control_c, 0, 64, 0
2, 62381, Note_on_c, 0, 73, 52
2, 62420, Note_on_c, 0, 75, 0
2, 62619, Note_on_c, 0, 73, 0
2, 62639, Note_on_c, 0, 72, 58
2, 62854, Note_on_c, 0, 72, 0
2, 62917, Note_on_c, 0, 73, 49
2, 63200, Note_on_c, 0, 68, 46
2, 63505, Note_on_c, 0, 64, 35
2, 63761, Note_on_c, 0, 51, 45
2, 63820, Note_on_c, 0, 49, 0
2, 63990, Note_on_c, 0, 51, 0
2, 64048, Note_on_c, 0, 52, 51
2, 64309, Note_on_c, 0, 52, 0
2, 64313, Note_on_c, 0, 54, 58
2, 64580, Note_on_c, 0, 56, 64
2, 64598, Note_on_c, 0, 54, 0
2, 64713, Note_on_c, 0, 64, 0
2, 64862, Note_on_c, 0, 68, 0
2, 64864, Note_on_c, 0, 57, 64
2, 64867, Note_on_c, 0, 76, 0
2, 64880, Note_on_c, 0, 56, 0
2, 64967, Note_on_c, 0, 73, 0
2, 65209, Note_on_c, 0, 59, 65
2, 65228, Note_on_c, 0, 57, 0
2, 65516, Note_on_c, 0, 74, 62
2, 65779, Note_on_c, 0, 77, 67
2, 66035, Note_on_c, 0, 80, 78
2, 66059, Note_on_c, 0, 61, 53
2, 66094, Note_on_c, 0, 59, 0
2, 66157, Note_on_c, 0, 77, 0
2, 66313, Note_on_c, 0, 83, 78
2, 66341, Note_on_c, 0, 61, 0
2, 66359, Note_on_c, 0, 62, 48
2, 66361, Note_on_c, 0, 80, 0
2, 66569, Note_on_c, 0, 74, 0
2, 66600, Note_on_c, 0, 59, 68
2, 66945, Note_on_c, 0, 53, 61
2, 66966, Note_on_c, 0, 59, 0
2, 67048, Note_on_c, 0, 62, 0
2, 67241, Note_on_c, 0, 83, 0
2, 67253, Note_on_c, 0, 74, 58
2, 67519, Note_on_c, 0, 73, 60
2, 67521, Note_on_c, 0, 56, 58
2, 67584, Note_on_c, 0, 74, 0
2, 67779, Note_on_c, 0, 71, 71
2, 67818, Note_on_c, 0, 73, 0
2, 67975, Note_on_c, 0, 53, 0
2, 68036, Note_on_c, 0, 71, 0
2, 68052, Note_on_c, 0, 61, 66
2, 68068, Note_on_c, 0, 69, 63
2, 68200, Note_on_c, 0, 56, 0
2, 68343, Note_on_c, 0, 68, 71
2, 68360, Note_on_c, 0, 69, 0
2, 68537, Note_on_c, 0, 54, 43
2, 68616, Note_on_c, 0, 68, 0
2, 68641, Note_on_c, 0, 69, 61
2, 68722, Note_on_c, 0, 69, 0
2, 68738, Note_on_c, 0, 68, 77
2, 68739, Note_on_c, 0, 61, 0
2, 68808, Note_on_c, 0, 69, 71
2, 68817, Note_on_c, 0, 68, 0
2, 68926, Note_on_c, 0, 59, 59
2, 69201, Note_on_c, 0, 57, 58
2, 69217, Note_on_c, 0, 59, 0
2, 69464, Note_on_c, 0, 56, 60
2, 69470, Note_on_c, 0, 57, 0
2, 69495, Note_on_c, 0, 54, 0
2, 69714, Note_on_c, 0, 56, 0
2, 69726, Note_on_c, 0, 57, 59
2, 69980, Note_on_c, 0, 57, 0
2, 70006, Note_on_c, 0, 54, 48
2, 70356, Note_on_c, 0, 66, 52
2, 70397, Note_on_c, 0, 54, 0
2, 70628, Note_on_c, 0, 69, 0
2, 70646, Note_on_c, 0, 68, 55
2, 70878, Note_on_c, 0, 68, 0
2, 70917, Note_on_c, 0, 69, 52
2, 71165, Note_on_c, 0, 73, 67
2, 71184, Note_on_c, 0, 66, 0
2, 71198, Note_on_c, 0, 64, 44
2, 71456, Note_on_c, 0, 78, 69
2, 71506, Note_on_c, 0, 63, 36
2, 71601, Note_on_c, 0, 73, 0
2, 71649, Note_on_c, 0, 64, 0
2, 71649, Note_on_c, 0, 69, 0
2, 71746, Note_on_c, 0, 61, 46
2, 71805, Note_on_c, 0, 63, 0
2, 72037, Note_on_c, 0, 61, 0
2, 72087, Note_on_c, 0, 59, 42
2, 72090, Note_on_c, 0, 56, 43
2, 72381, Note_on_c, 0, 76, 62
2, 72477, Note_on_c, 0, 78, 0
2, 72644, Note_on_c, 0, 75, 68
2, 72679, Control_c, 0, 64, 20
2, 72698, Control_c, 0, 64, 35
2, 72702, Note_on_c, 0, 76, 0
2, 72717, Control_c, 0, 64, 42
2, 72737, Control_c, 0, 64, 46
2, 72755, Control_c, 0, 64, 51
2, 72775, Control_c, 0, 64, 55
2, 72794, Control_c, 0, 64, 57
2, 72814, Control_c, 0, 64, 58
2, 72832, Control_c, 0, 64, 59
2, 72852, Control_c, 0, 64, 59
2, 72890, Control_c, 0, 64, 59
2, 72890, Note_on_c, 0, 56, 0
2, 72896, Note_on_c, 0, 73, 69
2, 72909, Control_c, 0, 64, 57
2, 72919, Note_on_c, 0, 61, 53
2, 72926, Note_on_c, 0, 59, 0
2, 72929, Control_c, 0, 64, 55
2, 72929, Note_on_c, 0, 57, 46
2, 72934, Note_on_c, 0, 75, 0
2, 72948, Control_c, 0, 64, 52
2, 72967, Control_c, 0, 64, 49
2, 72986, Control_c, 0, 64, 46
2, 73006, Control_c, 0, 64, 40
2, 73025, Control_c, 0, 64, 34
2, 73044, Control_c, 0, 64, 27
2, 73063, Control_c, 0, 64, 21
2, 73083, Control_c, 0, 64, 11
2, 73101, Control_c, 0, 64, 0
2, 73125, Note_on_c, 0, 73, 0
2, 73138, Note_on_c, 0, 61, 0
2, 73178, Note_on_c, 0, 71, 59
2, 73181, Note_on_c, 0, 57, 0
2, 73203, Note_on_c, 0, 59, 51
2, 73205, Note_on_c, 0, 63, 42
2, 73332, Control_c, 0, 64, 37
2, 73351, Control_c, 0, 64, 51
2, 73370, Control_c, 0, 64, 56
2, 73389, Control_c, 0, 64, 59
2, 73409, Control_c, 0, 64, 62
2, 73428, Control_c, 0, 64, 64
2, 73442, Note_on_c, 0, 69, 70
2, 73447, Control_c, 0, 64, 66
2, 73461, Note_on_c, 0, 71, 0
2, 73466, Control_c, 0, 64, 68
2, 73486, Control_c, 0, 64, 72
2, 73505, Control_c, 0, 64, 79
2, 73524, Control_c, 0, 64, 88
2, 73534, Note_on_c, 0, 69, 0
2, 73543, Control_c, 0, 64, 98
2, 73563, Control_c, 0, 64, 107
2, 73581, Control_c, 0, 64, 127
2, 73678, Note_on_c, 0, 69, 65
2, 73743, Note_on_c, 0, 68, 67
2, 73772, Note_on_c, 0, 52, 39
2, 73774, Note_on_c, 0, 69, 0
2, 73792, Control_c, 0, 64, 97
2, 73812, Control_c, 0, 64, 79
2, 73831, Control_c, 0, 64, 67
2, 73850, Control_c, 0, 64, 63
2, 73858, Note_on_c, 0, 59, 0
2, 73869, Control_c, 0, 64, 59
2, 73889, Control_c, 0, 64, 56
2, 73908, Control_c, 0, 64, 52
2, 73927, Control_c, 0, 64, 49
2, 73946, Control_c, 0, 64, 45
2, 73966, Control_c, 0, 64, 40
2, 73985, Control_c, 0, 64, 36
2, 74004, Control_c, 0, 64, 29
2, 74004, Note_on_c, 0, 68, 0
2, 74023, Control_c, 0, 64, 15
2, 74026, Note_on_c, 0, 66, 66
2, 74043, Control_c, 0, 64, 0
2, 74285, Note_on_c, 0, 68, 69
2, 74305, Note_on_c, 0, 66, 0
2, 74510, Note_on_c, 0, 68, 0
2, 74542, Note_on_c, 0, 71, 71
2, 74555, Note_on_c, 0, 56, 45
2, 74606, Note_on_c, 0, 63, 0
2, 74841, Note_on_c, 0, 76, 70
2, 74852, Note_on_c, 0, 56, 0
2, 74885, Note_on_c, 0, 71, 0
2, 74911, Note_on_c, 0, 61, 32
2, 75085, Note_on_c, 0, 61, 0
2, 75121, Note_on_c, 0, 60, 53
2, 75353, Note_on_c, 0, 60, 0
2, 75407, Note_on_c, 0, 61, 48
2, 75459, Note_on_c, 0, 61, 0
2, 75495, Note_on_c, 0, 60, 48
2, 75552, Note_on_c, 0, 60, 0
2, 75567, Note_on_c, 0, 61, 62
2, 75662, Note_on_c, 0, 75, 64
2, 75707, Note_on_c, 0, 76, 0
2, 75875, Note_on_c, 0, 52, 0
2, 75935, Note_on_c, 0, 73, 60
2, 75995, Note_on_c, 0, 75, 0
2, 76191, Note_on_c, 0, 51, 48
2, 76194, Note_on_c, 0, 71, 62
2, 76208, Note_on_c, 0, 73, 0
2, 76407, Note_on_c, 0, 51, 0
2, 76412, Note_on_c, 0, 71, 0
2, 76483, Note_on_c, 0, 69, 60
2, 76488, Note_on_c, 0, 49, 40
2, 76576, Control_c, 0, 64, 42
2, 76595, Control_c, 0, 64, 54
2, 76604, Note_on_c, 0, 61, 0
2, 76614, Control_c, 0, 64, 59
2, 76633, Control_c, 0, 64, 62
2, 76653, Control_c, 0, 64, 64
2, 76671, Control_c, 0, 64, 65
2, 76691, Control_c, 0, 64, 67
2, 76710, Control_c, 0, 64, 71
2, 76726, Note_on_c, 0, 69, 0
2, 76730, Control_c, 0, 64, 77
2, 76730, Note_on_c, 0, 68, 67
2, 76748, Control_c, 0, 64, 88
2, 76768, Control_c, 0, 64, 100
2, 76787, Control_c, 0, 64, 118
2, 76793, Note_on_c, 0, 68, 0
2, 76806, Control_c, 0, 64, 127
2, 76940, Note_on_c, 0, 68, 62
2, 76998, Control_c, 0, 64, 105
2, 77017, Control_c, 0, 64, 86
2, 77024, Note_on_c, 0, 51, 38
2, 77027, Note_on_c, 0, 66, 56
2, 77036, Control_c, 0, 64, 74
2, 77053, Note_on_c, 0, 68, 0
2, 77056, Control_c, 0, 64, 67
2, 77075, Control_c, 0, 64, 63
2, 77094, Control_c, 0, 64, 60
2, 77113, Control_c, 0, 64, 57
2, 77127, Note_on_c, 0, 49, 0
2, 77133, Control_c, 0, 64, 55
2, 77151, Control_c, 0, 64, 53
2, 77171, Control_c, 0, 64, 51
2, 77190, Control_c, 0, 64, 50
2, 77210, Control_c, 0, 64, 47
2, 77228, Control_c, 0, 64, 45
2, 77248, Control_c, 0, 64, 42
2, 77267, Control_c, 0, 64, 38
2, 77282, Note_on_c, 0, 66, 0
2, 77286, Control_c, 0, 64, 35
2, 77305, Control_c, 0, 64, 32
2, 77319, Note_on_c, 0, 64, 53
2, 77325, Control_c, 0, 64, 29
2, 77344, Control_c, 0, 64, 25
2, 77370, Control_c, 0, 64, 20
2, 77389, Control_c, 0, 64, 15
2, 77408, Control_c, 0, 64, 11
2, 77427, Control_c, 0, 64, 9
2, 77504, Control_c, 0, 64, 0
2, 77571, Note_on_c, 0, 66, 51
2, 77612, Note_on_c, 0, 64, 0
2, 77847, Note_on_c, 0, 69, 59
2, 77888, Note_on_c, 0, 60, 26
2, 77953, Note_on_c, 0, 66, 0
2, 78117, Note_on_c, 0, 60, 0
2, 78126, Note_on_c, 0, 75, 56
2, 78129, Note_on_c, 0, 69, 0
2, 78152, Note_on_c, 0, 61, 36
2, 78285, Control_c, 0, 64, 32
2, 78285, Note_on_c, 0, 51, 0
2, 78304, Control_c, 0, 64, 50
2, 78323, Control_c, 0, 64, 58
2, 78342, Control_c, 0, 64, 61
2, 78362, Control_c, 0, 64, 62
2, 78380, Control_c, 0, 64, 63
2, 78399, Control_c, 0, 64, 64
2, 78402, Note_on_c, 0, 61, 0
2, 78403, Note_on_c, 0, 58, 38
2, 78419, Control_c, 0, 64, 66
2, 78438, Control_c, 0, 64, 68
2, 78457, Control_c, 0, 64, 70
2, 78476, Control_c, 0, 64, 74
2, 78496, Control_c, 0, 64, 79
2, 78515, Control_c, 0, 64, 84
2, 78535, Control_c, 0, 64, 89
2, 78554, Control_c, 0, 64, 94
2, 78574, Control_c, 0, 64, 97
2, 78592, Control_c, 0, 64, 100
2, 78612, Control_c, 0, 64, 102
2, 78631, Control_c, 0, 64, 104
2, 78653, Note_on_c, 0, 58, 0
2, 78708, Control_c, 0, 64, 103
2, 78718, Note_on_c, 0, 60, 40
2, 78722, Note_on_c, 0, 56, 41
2, 78727, Control_c, 0, 64, 102
2, 78746, Control_c, 0, 64, 101
2, 78766, Control_c, 0, 64, 98
2, 78777, Note_on_c, 0, 60, 0
2, 78785, Control_c, 0, 64, 91
2, 78804, Control_c, 0, 64, 84
2, 78814, Note_on_c, 0, 58, 44
2, 78823, Control_c, 0, 64, 80
2, 78843, Control_c, 0, 64, 77
2, 78847, Note_on_c, 0, 58, 0
2, 78861, Control_c, 0, 64, 75
2, 78880, Control_c, 0, 64, 72
2, 78900, Control_c, 0, 64, 68
2, 78903, Note_on_c, 0, 60, 44
2, 78919, Control_c, 0, 64, 63
2, 78938, Control_c, 0, 64, 55
2, 78957, Control_c, 0, 64, 45
2, 78977, Control_c, 0, 64, 35
2, 78984, Note_on_c, 0, 73, 57
2, 78995, Control_c, 0, 64, 30
2, 79015, Control_c, 0, 64, 28
2, 79034, Control_c, 0, 64, 26
2, 79054, Control_c, 0, 64, 21
2, 79072, Control_c, 0, 64, 13
2, 79092, Control_c, 0, 64, 0
2, 79130, Note_on_c, 0, 75, 0
2, 79244, Note_on_c, 0, 72, 62
2, 79332, Note_on_c, 0, 73, 0
2, 79490, Note_on_c, 0, 60, 0
2, 79504, Note_on_c, 0, 70, 61
2, 79519, Note_on_c, 0, 61, 41
2, 79523, Note_on_c, 0, 58, 45
2, 79535, Note_on_c, 0, 72, 0
2, 79540, Note_on_c, 0, 56, 0
2, 79585, Note_on_c, 0, 61, 0
2, 79745, Note_on_c, 0, 70, 0
2, 79778, Note_on_c, 0, 58, 0
2, 79798, Note_on_c, 0, 68, 50
2, 79817, Note_on_c, 0, 60, 26
2, 79829, Note_on_c, 0, 63, 35
2, 79879, Control_c, 0, 64, 25
2, 79898, Control_c, 0, 64, 39
2, 79917, Control_c, 0, 64, 48
2, 79937, Control_c, 0, 64, 54
2, 79955, Control_c, 0, 64, 58
2, 79975, Control_c, 0, 64, 63
2, 79994, Control_c, 0, 64, 66
2, 80014, Control_c, 0, 64, 71
2, 80030, Note_on_c, 0, 68, 0
2, 80032, Control_c, 0, 64, 78
2, 80052, Control_c, 0, 64, 90
2, 80053, Note_on_c, 0, 63, 0
2, 80057, Note_on_c, 0, 66, 57
2, 80071, Control_c, 0, 64, 106
2, 80090, Control_c, 0, 64, 127
2, 80107, Note_on_c, 0, 66, 0
2, 80342, Note_on_c, 0, 66, 50
2, 80404, Note_on_c, 0, 64, 49
2, 80425, Note_on_c, 0, 66, 0
2, 80435, Control_c, 0, 64, 95
2, 80446, Note_on_c, 0, 61, 36
2, 80455, Control_c, 0, 64, 78
2, 80474, Control_c, 0, 64, 67
2, 80494, Control_c, 0, 64, 60
2, 80512, Control_c, 0, 64, 49
2, 80532, Control_c, 0, 64, 41
2, 80533, Note_on_c, 0, 60, 0
2, 80551, Control_c, 0, 64, 37
2, 80570, Control_c, 0, 64, 35
2, 80589, Control_c, 0, 64, 34
2, 80609, Control_c, 0, 64, 32
2, 80628, Control_c, 0, 64, 29
2, 80647, Control_c, 0, 64, 21
2, 80657, Note_on_c, 0, 64, 0
2, 80666, Control_c, 0, 64, 11
2, 80686, Control_c, 0, 64, 0
2, 80702, Note_on_c, 0, 63, 49
2, 80920, Note_on_c, 0, 63, 0
2, 80967, Note_on_c, 0, 64, 53
2, 81237, Note_on_c, 0, 68, 57
2, 81260, Note_on_c, 0, 59, 41
2, 81361, Note_on_c, 0, 64, 0
2, 81448, Note_on_c, 0, 61, 0
2, 81515, Note_on_c, 0, 73, 58
2, 81540, Note_on_c, 0, 57, 39
2, 81563, Note_on_c, 0, 68, 0
2, 81571, Note_on_c, 0, 59, 0
2, 81789, Note_on_c, 0, 57, 0
2, 81803, Note_on_c, 0, 56, 47
2, 82166, Note_on_c, 0, 57, 34
2, 82178, Note_on_c, 0, 54, 33
2, 82179, Note_on_c, 0, 56, 0
2, 82474, Note_on_c, 0, 71, 51
2, 82625, Note_on_c, 0, 73, 0
2, 82756, Note_on_c, 0, 69, 57
2, 82756, Note_on_c, 0, 71, 0
2, 82992, Note_on_c, 0, 69, 0
2, 83012, Note_on_c, 0, 68, 60
2, 83030, Note_on_c, 0, 57, 0
2, 83030, Note_on_c, 0, 59, 48
2, 83246, Note_on_c, 0, 59, 0
2, 83264, Note_on_c, 0, 68, 0
2, 83297, Note_on_c, 0, 69, 55
2, 83305, Note_on_c, 0, 61, 40
2, 83450, Control_c, 0, 64, 18
2, 83468, Control_c, 0, 64, 39
2, 83488, Control_c, 0, 64, 50
2, 83507, Control_c, 0, 64, 55
2, 83521, Note_on_c, 0, 69, 0
2, 83526, Control_c, 0, 64, 59
2, 83545, Control_c, 0, 64, 62
2, 83565, Control_c, 0, 64, 65
2, 83570, Note_on_c, 0, 66, 57
2, 83584, Control_c, 0, 64, 69
2, 83603, Control_c, 0, 64, 76
2, 83622, Control_c, 0, 64, 86
2, 83629, Note_on_c, 0, 61, 0
2, 83641, Control_c, 0, 64, 99
2, 83660, Control_c, 0, 64, 127
2, 83840, Note_on_c, 0, 78, 62
2, 83859, Note_on_c, 0, 62, 41
2, 83907, Note_on_c, 0, 66, 0
2, 83921, Note_on_c, 0, 62, 0
2, 83934, Note_on_c, 0, 61, 56
2, 83968, Control_c, 0, 64, 123
2, 83987, Control_c, 0, 64, 98
2, 84006, Control_c, 0, 64, 82
2, 84015, Note_on_c, 0, 61, 0
2, 84025, Control_c, 0, 64, 74
2, 84035, Note_on_c, 0, 62, 50
2, 84045, Control_c, 0, 64, 68
2, 84064, Control_c, 0, 64, 65
2, 84083, Control_c, 0, 64, 63
2, 84101, Note_on_c, 0, 76, 65
2, 84102, Control_c, 0, 64, 61
2, 84121, Control_c, 0, 64, 58
2, 84140, Control_c, 0, 64, 53
2, 84159, Control_c, 0, 64, 48
2, 84172, Note_on_c, 0, 78, 0
2, 84179, Control_c, 0, 64, 42
2, 84198, Control_c, 0, 64, 34
2, 84217, Control_c, 0, 64, 25
2, 84231, Note_on_c, 0, 54, 0
2, 84236, Control_c, 0, 64, 18
2, 84256, Control_c, 0, 64, 13
2, 84274, Control_c, 0, 64, 0
2, 84359, Note_on_c, 0, 74, 63
2, 84406, Note_on_c, 0, 76, 0
2, 84606, Note_on_c, 0, 74, 0
2, 84617, Note_on_c, 0, 73, 68
2, 84629, Note_on_c, 0, 52, 56
2, 84862, Note_on_c, 0, 73, 0
2, 84897, Note_on_c, 0, 54, 56
2, 84898, Note_on_c, 0, 74, 66
2, 84918, Note_on_c, 0, 62, 0
2, 84930, Note_on_c, 0, 52, 0
2, 85023, Control_c, 0, 64, 35
2, 85043, Control_c, 0, 64, 46
2, 85062, Control_c, 0, 64, 52
2, 85081, Control_c, 0, 64, 56
2, 85100, Control_c, 0, 64, 60
2, 85119, Control_c, 0, 64, 64
2, 85139, Control_c, 0, 64, 68
2, 85142, Note_on_c, 0, 74, 0
2, 85158, Control_c, 0, 64, 73
2, 85175, Note_on_c, 0, 69, 70
2, 85177, Control_c, 0, 64, 83
2, 85196, Control_c, 0, 64, 100
2, 85216, Control_c, 0, 64, 127
2, 85491, Note_on_c, 0, 81, 75
2, 85536, Note_on_c, 0, 60, 45
2, 85537, Note_on_c, 0, 51, 37
2, 85553, Note_on_c, 0, 54, 0
2, 85637, Control_c, 0, 64, 123
2, 85656, Control_c, 0, 64, 101
2, 85675, Control_c, 0, 64, 85
2, 85695, Control_c, 0, 64, 73
2, 85714, Control_c, 0, 64, 65
2, 85733, Control_c, 0, 64, 57
2, 85752, Control_c, 0, 64, 50
2, 85772, Control_c, 0, 64, 46
2, 85772, Note_on_c, 0, 69, 0
2, 85787, Note_on_c, 0, 80, 73
2, 85790, Control_c, 0, 64, 44
2, 85810, Control_c, 0, 64, 40
2, 85829, Control_c, 0, 64, 36
2, 85849, Control_c, 0, 64, 31
2, 85854, Note_on_c, 0, 81, 0
2, 85867, Control_c, 0, 64, 22
2, 85887, Control_c, 0, 64, 0
2, 86057, Note_on_c, 0, 78, 71
2, 86095, Note_on_c, 0, 80, 0
2, 86295, Note_on_c, 0, 78, 0
2, 86316, Note_on_c, 0, 76, 70
2, 86324, Note_on_c, 0, 54, 61
2, 86388, Note_on_c, 0, 51, 0
2, 86587, Note_on_c, 0, 76, 0
2, 86593, Note_on_c, 0, 78, 77
2, 86604, Note_on_c, 0, 57, 64
2, 86637, Note_on_c, 0, 54, 0
2, 86674, Control_c, 0, 64, 38
2, 86693, Control_c, 0, 64, 50
2, 86712, Control_c, 0, 64, 55
2, 86729, Note_on_c, 0, 60, 0
2, 86732, Control_c, 0, 64, 59
2, 86750, Control_c, 0, 64, 63
2, 86770, Control_c, 0, 64, 66
2, 86789, Control_c, 0, 64, 70
2, 86809, Control_c, 0, 64, 77
2, 86827, Control_c, 0, 64, 88
2, 86845, Note_on_c, 0, 78, 0
2, 86847, Control_c, 0, 64, 102
2, 86866, Control_c, 0, 64, 127
2, 86868, Note_on_c, 0, 75, 77
2, 87223, Note_on_c, 0, 84, 78
2, 87230, Control_c, 0, 64, 117
2, 87247, Note_on_c, 0, 66, 46
2, 87250, Control_c, 0, 64, 82
2, 87269, Control_c, 0, 64, 67
2, 87289, Control_c, 0, 64, 56
2, 87304, Note_on_c, 0, 57, 0
2, 87307, Control_c, 0, 64, 43
2, 87327, Control_c, 0, 64, 48
2, 87346, Control_c, 0, 64, 56
2, 87366, Control_c, 0, 64, 60
2, 87384, Control_c, 0, 64, 63
2, 87404, Control_c, 0, 64, 64
2, 87423, Control_c, 0, 64, 66
2, 87441, Control_c, 0, 64, 68
2, 87461, Control_c, 0, 64, 71
2, 87475, Note_on_c, 0, 66, 0
2, 87480, Control_c, 0, 64, 78
2, 87500, Control_c, 0, 64, 88
2, 87518, Control_c, 0, 64, 102
2, 87538, Control_c, 0, 64, 127
2, 87554, Note_on_c, 0, 56, 67
2, 87822, Note_on_c, 0, 54, 68
2, 87846, Control_c, 0, 64, 106
2, 87859, Note_on_c, 0, 56, 0
2, 87864, Control_c, 0, 64, 89
2, 87884, Control_c, 0, 64, 81
2, 87903, Control_c, 0, 64, 74
2, 87926, Control_c, 0, 64, 69
2, 87945, Control_c, 0, 64, 65
2, 87965, Control_c, 0, 64, 61
2, 87983, Control_c, 0, 64, 56
2, 88002, Control_c, 0, 64, 54
2, 88022, Control_c, 0, 64, 53
2, 88040, Control_c, 0, 64, 52
2, 88060, Control_c, 0, 64, 49
2, 88072, Note_on_c, 0, 54, 0
2, 88079, Control_c, 0, 64, 44
2, 88088, Note_on_c, 0, 52, 70
2, 88099, Control_c, 0, 64, 37
2, 88115, Control_c, 0, 64, 32
2, 88134, Control_c, 0, 64, 27
2, 88153, Control_c, 0, 64, 25
2, 88173, Control_c, 0, 64, 23
2, 88191, Control_c, 0, 64, 22
2, 88211, Control_c, 0, 64, 20
2, 88230, Control_c, 0, 64, 15
2, 88250, Control_c, 0, 64, 9
2, 88268, Control_c, 0, 64, 0
2, 88317, Note_on_c, 0, 52, 0
2, 88359, Note_on_c, 0, 80, 82
2, 88380, Note_on_c, 0, 54, 53
2, 88396, Note_on_c, 0, 84, 0
2, 88537, Control_c, 0, 64, 42
2, 88556, Control_c, 0, 64, 53
2, 88576, Control_c, 0, 64, 57
2, 88595, Control_c, 0, 64, 60
2, 88614, Control_c, 0, 64, 63
2, 88633, Control_c, 0, 64, 66
2, 88647, Note_on_c, 0, 54, 0
2, 88650, Note_on_c, 0, 80, 0
2, 88651, Note_on_c, 0, 51, 59
2, 88653, Control_c, 0, 64, 74
2, 88671, Control_c, 0, 64, 96
2, 88691, Control_c, 0, 64, 127
2, 88977, Note_on_c, 0, 51, 0
2, 89001, Note_on_c, 0, 80, 81
2, 89044, Note_on_c, 0, 52, 45
2, 89095, Control_c, 0, 64, 105
2, 89114, Control_c, 0, 64, 86
2, 89134, Control_c, 0, 64, 76
2, 89152, Control_c, 0, 64, 69
2, 89172, Control_c, 0, 64, 63
2, 89191, Control_c, 0, 64, 58
2, 89211, Control_c, 0, 64, 53
2, 89229, Control_c, 0, 64, 52
2, 89268, Control_c, 0, 64, 51
2, 89287, Control_c, 0, 64, 48
2, 89306, Control_c, 0, 64, 40
2, 89326, Control_c, 0, 64, 26
2, 89332, Note_on_c, 0, 51, 49
2, 89345, Control_c, 0, 64, 9
2, 89364, Control_c, 0, 64, 0
2, 89454, Note_on_c, 0, 52, 0
2, 89601, Note_on_c, 0, 49, 56
2, 89608, Note_on_c, 0, 51, 0
2, 89844, Note_on_c, 0, 76, 61
2, 89849, Note_on_c, 0, 49, 0
2, 89865, Note_on_c, 0, 48, 45
2, 89874, Note_on_c, 0, 75, 0
2, 90086, Note_on_c, 0, 48, 0
2, 90129, Note_on_c, 0, 49, 43
2, 90129, Note_on_c, 0, 72, 67
2, 90171, Note_on_c, 0, 76, 0
2, 90266, Control_c, 0, 64, 9
2, 90286, Control_c, 0, 64, 37
2, 90305, Control_c, 0, 64, 51
2, 90324, Control_c, 0, 64, 58
2, 90343, Control_c, 0, 64, 60
2, 90349, Note_on_c, 0, 49, 0
2, 90362, Control_c, 0, 64, 62
2, 90381, Control_c, 0, 64, 64
2, 90400, Control_c, 0, 64, 66
2, 90420, Control_c, 0, 64, 71
2, 90421, Note_on_c, 0, 45, 49
2, 90439, Control_c, 0, 64, 80
2, 90458, Control_c, 0, 64, 96
2, 90477, Control_c, 0, 64, 127
2, 90536, Note_on_c, 0, 45, 0
2, 90729, Note_on_c, 0, 73, 64
2, 90746, Note_on_c, 0, 57, 43
2, 90794, Note_on_c, 0, 57, 0
2, 90841, Note_on_c, 0, 56, 57
2, 90842, Control_c, 0, 64, 102
2, 90854, Note_on_c, 0, 72, 0
2, 90861, Control_c, 0, 64, 87
2, 90864, Note_on_c, 0, 80, 0
2, 90880, Control_c, 0, 64, 77
2, 90892, Note_on_c, 0, 56, 0
2, 90900, Control_c, 0, 64, 73
2, 90919, Control_c, 0, 64, 71
2, 90928, Note_on_c, 0, 57, 55
2, 90938, Control_c, 0, 64, 70
2, 90957, Control_c, 0, 64, 69
2, 90977, Control_c, 0, 64, 66
2, 90995, Control_c, 0, 64, 63
2, 91014, Control_c, 0, 64, 60
2, 91033, Control_c, 0, 64, 56
2, 91053, Control_c, 0, 64, 50
2, 91068, Note_on_c, 0, 78, 67
2, 91071, Control_c, 0, 64, 43
2, 91091, Control_c, 0, 64, 34
2, 91110, Control_c, 0, 64, 23
2, 91130, Control_c, 0, 64, 9
2, 91148, Control_c, 0, 64, 0
2, 91348, Note_on_c, 0, 76, 68
2, 91425, Note_on_c, 0, 78, 0
2, 91592, Note_on_c, 0, 76, 0
2, 91608, Note_on_c, 0, 75, 69
2, 91851, Note_on_c, 0, 73, 0
2, 91883, Note_on_c, 0, 76, 63
2, 91898, Note_on_c, 0, 75, 0
2, 91953, Control_c, 0, 64, 19
2, 91972, Control_c, 0, 64, 39
2, 91991, Control_c, 0, 64, 48
2, 92011, Control_c, 0, 64, 53
2, 92030, Control_c, 0, 64, 56
2, 92049, Control_c, 0, 64, 58
2, 92068, Control_c, 0, 64, 60
2, 92088, Control_c, 0, 64, 62
2, 92106, Control_c, 0, 64, 63
2, 92126, Control_c, 0, 64, 65
2, 92145, Control_c, 0, 64, 67
2, 92145, Note_on_c, 0, 73, 62
2, 92165, Control_c, 0, 64, 70
2, 92183, Control_c, 0, 64, 74
2, 92202, Control_c, 0, 64, 81
2, 92222, Control_c, 0, 64, 88
2, 92240, Control_c, 0, 64, 94
2, 92260, Control_c, 0, 64, 97
2, 92279, Control_c, 0, 64, 100
2, 92299, Control_c, 0, 64, 103
2, 92317, Control_c, 0, 64, 104
2, 92433, Control_c, 0, 64, 102
2, 92452, Control_c, 0, 64, 99
2, 92464, Note_on_c, 0, 78, 72
2, 92471, Control_c, 0, 64, 96
2, 92491, Control_c, 0, 64, 94
2, 92497, Note_on_c, 0, 76, 0
2, 92510, Control_c, 0, 64, 92
2, 92529, Control_c, 0, 64, 90
2, 92548, Control_c, 0, 64, 85
2, 92568, Control_c, 0, 64, 78
2, 92586, Control_c, 0, 64, 71
2, 92606, Control_c, 0, 64, 67
2, 92625, Control_c, 0, 64, 65
2, 92645, Control_c, 0, 64, 64
2, 92646, Note_on_c, 0, 73, 0
2, 92663, Control_c, 0, 64, 63
2, 92682, Control_c, 0, 64, 62
2, 92702, Control_c, 0, 64, 60
2, 92720, Control_c, 0, 64, 56
2, 92740, Control_c, 0, 64, 50
2, 92759, Control_c, 0, 64, 43
2, 92766, Note_on_c, 0, 56, 53
2, 92779, Control_c, 0, 64, 36
2, 92797, Control_c, 0, 64, 29
2, 92817, Control_c, 0, 64, 24
2, 92836, Control_c, 0, 64, 20
2, 92855, Control_c, 0, 64, 13
2, 92874, Control_c, 0, 64, 0
2, 92935, Note_on_c, 0, 57, 0
2, 93027, Note_on_c, 0, 54, 66
2, 93034, Note_on_c, 0, 56, 0
2, 93292, Note_on_c, 0, 72, 70
2, 93297, Note_on_c, 0, 54, 0
2, 93300, Note_on_c, 0, 52, 49
2, 93547, Note_on_c, 0, 52, 0
2, 93572, Note_on_c, 0, 75, 67
2, 93592, Note_on_c, 0, 54, 51
2, 93630, Note_on_c, 0, 72, 0
2, 93721, Control_c, 0, 64, 29
2, 93740, Control_c, 0, 64, 45
2, 93759, Control_c, 0, 64, 54
2, 93769, Note_on_c, 0, 54, 0
2, 93779, Control_c, 0, 64, 58
2, 93798, Control_c, 0, 64, 60
2, 93817, Control_c, 0, 64, 62
2, 93836, Control_c, 0, 64, 63
2, 93856, Control_c, 0, 64, 64
2, 93857, Note_on_c, 0, 51, 39
2, 93875, Control_c, 0, 64, 65
2, 93894, Control_c, 0, 64, 66
2, 93913, Control_c, 0, 64, 68
2, 93933, Control_c, 0, 64, 71
2, 93951, Control_c, 0, 64, 75
2, 93971, Control_c, 0, 64, 81
2, 93990, Control_c, 0, 64, 87
2, 94010, Control_c, 0, 64, 91
2, 94028, Control_c, 0, 64, 95
2, 94048, Control_c, 0, 64, 100
2, 94067, Control_c, 0, 64, 102
2, 94086, Control_c, 0, 64, 103
2, 94098, Note_on_c, 0, 78, 0
2, 94105, Control_c, 0, 64, 102
2, 94125, Control_c, 0, 64, 102
2, 94125, Note_on_c, 0, 60, 48
2, 94136, Note_on_c, 0, 68, 63
2, 94144, Control_c, 0, 64, 100
2, 94162, Control_c, 0, 64, 96
2, 94182, Control_c, 0, 64, 89
2, 94187, Note_on_c, 0, 60, 0
2, 94188, Note_on_c, 0, 51, 0
2, 94201, Control_c, 0, 64, 81
2, 94220, Control_c, 0, 64, 74
2, 94230, Note_on_c, 0, 75, 0
2, 94238, Note_on_c, 0, 58, 48
2, 94239, Control_c, 0, 64, 69
2, 94259, Control_c, 0, 64, 66
2, 94278, Control_c, 0, 64, 64
2, 94290, Note_on_c, 0, 58, 0
2, 94297, Control_c, 0, 64, 63
2, 94316, Control_c, 0, 64, 62
2, 94326, Note_on_c, 0, 60, 55
2, 94336, Control_c, 0, 64, 62
2, 94355, Control_c, 0, 64, 61
2, 94374, Control_c, 0, 64, 59
2, 94393, Control_c, 0, 64, 58
2, 94413, Control_c, 0, 64, 57
2, 94431, Control_c, 0, 64, 56
2, 94438, Note_on_c, 0, 76, 64
2, 94451, Control_c, 0, 64, 55
2, 94470, Control_c, 0, 64, 52
2, 94490, Control_c, 0, 64, 49
2, 94508, Control_c, 0, 64, 46
2, 94528, Control_c, 0, 64, 43
2, 94547, Control_c, 0, 64, 41
2, 94566, Control_c, 0, 64, 40
2, 94585, Control_c, 0, 64, 39
2, 94605, Control_c, 0, 64, 36
2, 94624, Control_c, 0, 64, 35
2, 94643, Control_c, 0, 64, 32
2, 94663, Control_c, 0, 64, 31
2, 94682, Control_c, 0, 64, 29
2, 94701, Control_c, 0, 64, 27
2, 94720, Control_c, 0, 64, 25
2, 94729, Note_on_c, 0, 75, 66
2, 94740, Control_c, 0, 64, 21
2, 94759, Control_c, 0, 64, 20
2, 94786, Note_on_c, 0, 76, 0
2, 94854, Control_c, 0, 64, 19
2, 94893, Control_c, 0, 64, 18
2, 94911, Control_c, 0, 64, 17
2, 94931, Control_c, 0, 64, 15
2, 94950, Control_c, 0, 64, 11
2, 94970, Control_c, 0, 64, 9
2, 94985, Note_on_c, 0, 73, 67
2, 94988, Control_c, 0, 64, 0
2, 94997, Note_on_c, 0, 75, 0
2, 95258, Note_on_c, 0, 68, 0
2, 95263, Note_on_c, 0, 75, 62
2, 95286, Note_on_c, 0, 73, 0
2, 95411, Control_c, 0, 64, 27
2, 95430, Control_c, 0, 64, 44
2, 95450, Control_c, 0, 64, 52
2, 95468, Control_c, 0, 64, 56
2, 95488, Control_c, 0, 64, 59
2, 95507, Control_c, 0, 64, 61
2, 95526, Control_c, 0, 64, 63
2, 95538, Note_on_c, 0, 68, 56
2, 95545, Control_c, 0, 64, 64
2, 95565, Control_c, 0, 64, 65
2, 95584, Control_c, 0, 64, 66
2, 95602, Control_c, 0, 64, 68
2, 95622, Control_c, 0, 64, 71
2, 95641, Control_c, 0, 64, 75
2, 95660, Control_c, 0, 64, 82
2, 95679, Control_c, 0, 64, 89
2, 95699, Control_c, 0, 64, 96
2, 95718, Control_c, 0, 64, 101
2, 95737, Control_c, 0, 64, 108
2, 95756, Control_c, 0, 64, 117
2, 95776, Control_c, 0, 64, 127
2, 95841, Note_on_c, 0, 75, 0
2, 95858, Note_on_c, 0, 68, 0
2, 95886, Note_on_c, 0, 60, 0
2, 95907, Note_on_c, 0, 76, 73
2, 95909, Control_c, 0, 64, 117
2, 95929, Control_c, 0, 64, 112
2, 95947, Control_c, 0, 64, 110
2, 95957, Note_on_c, 0, 61, 37
2, 95967, Control_c, 0, 64, 106
2, 95986, Control_c, 0, 64, 101
2, 96006, Control_c, 0, 64, 93
2, 96024, Control_c, 0, 64, 85
2, 96043, Control_c, 0, 64, 78
2, 96063, Control_c, 0, 64, 74
2, 96081, Control_c, 0, 64, 72
2, 96101, Control_c, 0, 64, 69
2, 96120, Control_c, 0, 64, 66
2, 96140, Control_c, 0, 64, 63
2, 96158, Control_c, 0, 64, 61
2, 96178, Control_c, 0, 64, 60
2, 96197, Control_c, 0, 64, 59
2, 96216, Control_c, 0, 64, 57
2, 96235, Control_c, 0, 64, 55
2, 96255, Control_c, 0, 64, 52
2, 96259, Note_on_c, 0, 59, 60
2, 96274, Control_c, 0, 64, 49
2, 96291, Note_on_c, 0, 61, 0
2, 96293, Control_c, 0, 64, 47
2, 96312, Control_c, 0, 64, 45
2, 96332, Control_c, 0, 64, 44
2, 96353, Control_c, 0, 64, 42
2, 96372, Control_c, 0, 64, 40
2, 96392, Control_c, 0, 64, 37
2, 96411, Control_c, 0, 64, 35
2, 96430, Control_c, 0, 64, 35
2, 96507, Control_c, 0, 64, 34
2, 96526, Control_c, 0, 64, 34
2, 96533, Note_on_c, 0, 57, 58
2, 96544, Note_on_c, 0, 59, 0
2, 96700, Control_c, 0, 64, 34
2, 96790, Note_on_c, 0, 73, 60
2, 96793, Note_on_c, 0, 57, 0
2, 96800, Note_on_c, 0, 56, 50
2, 97038, Note_on_c, 0, 56, 0
2, 97065, Note_on_c, 0, 66, 53
2, 97072, Note_on_c, 0, 57, 54
2, 97180, Control_c, 0, 64, 34
2, 97219, Control_c, 0, 64, 33
2, 97312, Note_on_c, 0, 57, 0
2, 97333, Control_c, 0, 64, 32
2, 97351, Note_on_c, 0, 68, 54
2, 97352, Note_on_c, 0, 54, 53
2, 97353, Control_c, 0, 64, 32
2, 97358, Note_on_c, 0, 66, 0
2, 97372, Control_c, 0, 64, 31
2, 97430, Control_c, 0, 64, 31
2, 97448, Control_c, 0, 64, 30
2, 97545, Control_c, 0, 64, 28
2, 97564, Control_c, 0, 64, 27
2, 97583, Control_c, 0, 64, 27
2, 97591, Note_on_c, 0, 73, 0
2, 97622, Control_c, 0, 64, 26
2, 97637, Note_on_c, 0, 68, 0
2, 97660, Control_c, 0, 64, 25
2, 97673, Note_on_c, 0, 66, 57
2, 97686, Note_on_c, 0, 69, 49
2, 97745, Note_on_c, 0, 54, 0
2, 97793, Control_c, 0, 64, 29
2, 97812, Control_c, 0, 64, 36
2, 97832, Control_c, 0, 64, 44
2, 97851, Control_c, 0, 64, 50
2, 97870, Control_c, 0, 64, 55
2, 97889, Control_c, 0, 64, 58
2, 97909, Control_c, 0, 64, 61
2, 97928, Control_c, 0, 64, 63
2, 97947, Control_c, 0, 64, 64
2, 97966, Control_c, 0, 64, 65
2, 97967, Note_on_c, 0, 75, 62
2, 97967, Note_on_c, 0, 76, 0
2, 97986, Control_c, 0, 64, 66
2, 98004, Control_c, 0, 64, 68
2, 98024, Control_c, 0, 64, 72
2, 98043, Control_c, 0, 64, 82
2, 98063, Control_c, 0, 64, 93
2, 98081, Control_c, 0, 64, 106
2, 98101, Control_c, 0, 64, 127
2, 98142, Note_on_c, 0, 75, 0
2, 98245, Note_on_c, 0, 76, 64
2, 98369, Control_c, 0, 64, 121
2, 98389, Control_c, 0, 64, 115
2, 98408, Control_c, 0, 64, 108
2, 98427, Control_c, 0, 64, 100
2, 98446, Control_c, 0, 64, 87
2, 98466, Control_c, 0, 64, 77
2, 98485, Control_c, 0, 64, 71
2, 98505, Control_c, 0, 64, 67
2, 98510, Note_on_c, 0, 78, 73
2, 98524, Control_c, 0, 64, 66
2, 98543, Control_c, 0, 64, 64
2, 98562, Control_c, 0, 64, 63
2, 98564, Note_on_c, 0, 76, 0
2, 98582, Control_c, 0, 64, 60
2, 98601, Control_c, 0, 64, 56
2, 98620, Control_c, 0, 64, 52
2, 98639, Control_c, 0, 64, 48
2, 98659, Control_c, 0, 64, 44
2, 98676, Control_c, 0, 64, 40
2, 98694, Control_c, 0, 64, 33
2, 98714, Control_c, 0, 64, 20
2, 98733, Control_c, 0, 64, 0
2, 98780, Note_on_c, 0, 80, 70
2, 98810, Note_on_c, 0, 78, 0
2, 99060, Control_c, 0, 64, 30
2, 99061, Note_on_c, 0, 80, 0
2, 99066, Note_on_c, 0, 69, 0
2, 99079, Control_c, 0, 64, 49
2, 99081, Note_on_c, 0, 81, 68
2, 99099, Control_c, 0, 64, 57
2, 99117, Control_c, 0, 64, 61
2, 99137, Control_c, 0, 64, 63
2, 99156, Control_c, 0, 64, 65
2, 99174, Control_c, 0, 64, 66
2, 99194, Control_c, 0, 64, 69
2, 99213, Control_c, 0, 64, 74
2, 99233, Control_c, 0, 64, 83
2, 99251, Control_c, 0, 64, 99
2, 99271, Control_c, 0, 64, 127
2, 99425, Control_c, 0, 64, 96
2, 99441, Note_on_c, 0, 73, 66
2, 99443, Control_c, 0, 64, 78
2, 99455, Note_on_c, 0, 81, 0
2, 99463, Control_c, 0, 64, 67
2, 99482, Control_c, 0, 64, 63
2, 99484, Note_on_c, 0, 68, 36
2, 99502, Control_c, 0, 64, 63
2, 99520, Control_c, 0, 64, 64
2, 99540, Control_c, 0, 64, 66
2, 99559, Control_c, 0, 64, 69
2, 99579, Control_c, 0, 64, 74
2, 99597, Control_c, 0, 64, 81
2, 99617, Control_c, 0, 64, 88
2, 99635, Control_c, 0, 64, 94
2, 99653, Control_c, 0, 64, 99
2, 99673, Control_c, 0, 64, 104
2, 99674, Note_on_c, 0, 73, 0
2, 99683, Note_on_c, 0, 66, 0
2, 99692, Control_c, 0, 64, 107
2, 99712, Control_c, 0, 64, 108
2, 99730, Control_c, 0, 64, 109
2, 99802, Note_on_c, 0, 72, 61
2, 99805, Note_on_c, 0, 64, 55
2, 99827, Control_c, 0, 64, 108
2, 99846, Control_c, 0, 64, 106
2, 99865, Control_c, 0, 64, 104
2, 99872, Note_on_c, 0, 72, 0
2, 99884, Control_c, 0, 64, 99
2, 99885, Note_on_c, 0, 73, 65
2, 99904, Control_c, 0, 64, 91
2, 99923, Control_c, 0, 64, 82
2, 99942, Control_c, 0, 64, 74
2, 99942, Note_on_c, 0, 73, 0
2, 99961, Control_c, 0, 64, 69
2, 99964, Note_on_c, 0, 72, 63
2, 99981, Control_c, 0, 64, 67
2, 99999, Control_c, 0, 64, 66
2, 100019, Control_c, 0, 64, 65
2, 100033, Note_on_c, 0, 73, 75
2, 100035, Note_on_c, 0, 72, 0
2, 100038, Control_c, 0, 64, 64
2, 100058, Control_c, 0, 64, 63
2, 100076, Control_c, 0, 64, 60
2, 100086, Note_on_c, 0, 63, 67
2, 100090, Note_on_c, 0, 72, 71
2, 100095, Control_c, 0, 64, 57
2, 100103, Note_on_c, 0, 73, 0
2, 100107, Note_on_c, 0, 64, 0
2, 100115, Control_c, 0, 64, 56
2, 100133, Control_c, 0, 64, 54
2, 100153, Control_c, 0, 64, 53
2, 100172, Control_c, 0, 64, 51
2, 100192, Control_c, 0, 64, 48
2, 100210, Control_c, 0, 64, 45
2, 100230, Control_c, 0, 64, 40
2, 100249, Control_c, 0, 64, 35
2, 100268, Control_c, 0, 64, 29
2, 100287, Control_c, 0, 64, 24
2, 100307, Control_c, 0, 64, 19
2, 100326, Control_c, 0, 64, 11
2, 100345, Control_c, 0, 64, 0
2, 100352, Note_on_c, 0, 63, 0
2, 100361, Note_on_c, 0, 73, 80
2, 100367, Note_on_c, 0, 61, 67
2, 100372, Note_on_c, 0, 72, 0
2, 100560, Note_on_c, 0, 61, 0
2, 100610, Note_on_c, 0, 75, 75
2, 100614, Note_on_c, 0, 73, 0
2, 100628, Note_on_c, 0, 60, 57
2, 100691, Control_c, 0, 64, 43
2, 100711, Control_c, 0, 64, 57
2, 100730, Control_c, 0, 64, 62
2, 100732, Note_on_c, 0, 68, 0
2, 100732, Note_on_c, 0, 75, 0
2, 100749, Control_c, 0, 64, 64
2, 100768, Control_c, 0, 64, 66
2, 100788, Control_c, 0, 64, 70
2, 100807, Control_c, 0, 64, 77
2, 100826, Control_c, 0, 64, 89
2, 100845, Control_c, 0, 64, 106
2, 100862, Note_on_c, 0, 60, 0
2, 100865, Control_c, 0, 64, 127
2, 100879, Note_on_c, 0, 58, 70
2, 100991, Note_on_c, 0, 60, 70
2, 101046, Note_on_c, 0, 61, 70
2, 101108, Note_on_c, 0, 63, 76
2, 101114, Control_c, 0, 64, 106
2, 101133, Control_c, 0, 64, 91
2, 101143, Note_on_c, 0, 61, 0
2, 101153, Control_c, 0, 64, 80
2, 101167, Note_on_c, 0, 58, 0
2, 101169, Note_on_c, 0, 66, 73
2, 101171, Control_c, 0, 64, 72
2, 101191, Control_c, 0, 64, 66
2, 101194, Note_on_c, 0, 56, 54
2, 101210, Control_c, 0, 64, 62
2, 101229, Control_c, 0, 64, 60
2, 101248, Control_c, 0, 64, 58
2, 101268, Control_c, 0, 64, 56
2, 101287, Control_c, 0, 64, 54
2, 101306, Control_c, 0, 64, 51
2, 101325, Control_c, 0, 64, 45
2, 101345, Control_c, 0, 64, 37
2, 101363, Control_c, 0, 64, 31
2, 101383, Control_c, 0, 64, 29
2, 101402, Control_c, 0, 64, 27
2, 101422, Control_c, 0, 64, 21
2, 101440, Control_c, 0, 64, 0
2, 101472, Note_on_c, 0, 54, 56
2, 101474, Note_on_c, 0, 56, 0
2, 101715, Note_on_c, 0, 54, 0
2, 101769, Note_on_c, 0, 52, 55
2, 102031, Note_on_c, 0, 51, 50
2, 102034, Note_on_c, 0, 52, 0
2, 102304, Note_on_c, 0, 51, 0
2, 102332, Note_on_c, 0, 49, 40
2, 102384, Control_c, 0, 64, 9
2, 102402, Control_c, 0, 64, 11
2, 102460, Control_c, 0, 64, 13
2, 102479, Control_c, 0, 64, 15
2, 102499, Control_c, 0, 64, 17
2, 102536, Control_c, 0, 64, 19
2, 102556, Control_c, 0, 64, 20
2, 102559, Note_on_c, 0, 49, 0
2, 102575, Control_c, 0, 64, 22
2, 102594, Control_c, 0, 64, 23
2, 102624, Note_on_c, 0, 47, 42
2, 102633, Control_c, 0, 64, 24
2, 102652, Control_c, 0, 64, 25
2, 102767, Control_c, 0, 64, 26
2, 102959, Control_c, 0, 64, 27
2, 102979, Control_c, 0, 64, 28
2, 102987, Note_on_c, 0, 47, 0
2, 102998, Control_c, 0, 64, 29
2, 103006, Note_on_c, 0, 45, 36
2, 103055, Control_c, 0, 64, 29
2, 103235, Note_on_c, 0, 63, 0
2, 103309, Note_on_c, 0, 64, 48
2, 103444, Note_on_c, 0, 66, 0
2, 103458, Control_c, 0, 64, 29
2, 103477, Control_c, 0, 64, 28
2, 103553, Note_on_c, 0, 64, 0
2, 103584, Note_on_c, 0, 60, 0
2, 103592, Control_c, 0, 64, 27
2, 103593, Note_on_c, 0, 63, 45
2, 103630, Control_c, 0, 64, 27
2, 103649, Control_c, 0, 64, 26
2, 103669, Control_c, 0, 64, 25
2, 103707, Control_c, 0, 64, 24
2, 103746, Control_c, 0, 64, 23
2, 103784, Control_c, 0, 64, 22
2, 103823, Control_c, 0, 64, 21
2, 103829, Note_on_c, 0, 63, 0
2, 103835, Note_on_c, 0, 45, 0
2, 103841, Control_c, 0, 64, 20
2, 103846, Note_on_c, 0, 61, 49
2, 103872, Note_on_c, 0, 47, 40
2, 103880, Control_c, 0, 64, 19
2, 103899, Control_c, 0, 64, 18
2, 104105, Note_on_c, 0, 61, 0
2, 104139, Note_on_c, 0, 63, 42
2, 104143, Note_on_c, 0, 44, 34
2, 104160, Note_on_c, 0, 47, 0
2, 104206, Control_c, 0, 64, 19
2, 104226, Control_c, 0, 64, 21
2, 104361, Control_c, 0, 64, 22
2, 104387, Note_on_c, 0, 63, 0
2, 104428, Note_on_c, 0, 60, 42
2, 104709, Note_on_c, 0, 69, 49
2, 104728, Note_on_c, 0, 42, 40
2, 104871, Note_on_c, 0, 44, 0
2, 104917, Note_on_c, 0, 60, 0
2, 104979, Note_on_c, 0, 68, 55
2, 105019, Note_on_c, 0, 69, 0
2, 105128, Control_c, 0, 64, 21
2, 105224, Control_c, 0, 64, 20
2, 105243, Control_c, 0, 64, 19
2, 105265, Note_on_c, 0, 66, 53
2, 105268, Note_on_c, 0, 68, 0
2, 105281, Control_c, 0, 64, 18
2, 105378, Control_c, 0, 64, 17
2, 105454, Control_c, 0, 64, 15
2, 105492, Control_c, 0, 64, 13
2, 105520, Note_on_c, 0, 66, 0
2, 105531, Control_c, 0, 64, 11
2, 105536, Note_on_c, 0, 44, 48
2, 105539, Note_on_c, 0, 64, 51
2, 105568, Note_on_c, 0, 42, 0
2, 105569, Control_c, 0, 64, 9
2, 105627, Control_c, 0, 64, 0
2, 105815, Note_on_c, 0, 64, 0
2, 105822, Note_on_c, 0, 66, 50
2, 105831, Note_on_c, 0, 40, 49
2, 105866, Note_on_c, 0, 44, 0
2, 106074, Note_on_c, 0, 66, 0
2, 106109, Note_on_c, 0, 63, 54
2, 106388, Note_on_c, 0, 72, 59
2, 106429, Note_on_c, 0, 39, 41
2, 106528, Note_on_c, 0, 63, 0
2, 106583, Note_on_c, 0, 40, 0
2, 106686, Note_on_c, 0, 69, 64
2, 106746, Note_on_c, 0, 72, 0
2, 106955, Note_on_c, 0, 68, 71
2, 106981, Note_on_c, 0, 69, 0
2, 107212, Note_on_c, 0, 66, 66
2, 107213, Note_on_c, 0, 68, 0
2, 107220, Note_on_c, 0, 40, 62
2, 107239, Note_on_c, 0, 39, 0
2, 107496, Note_on_c, 0, 68, 68
2, 107497, Note_on_c, 0, 40, 0
2, 107505, Note_on_c, 0, 42, 62
2, 107505, Note_on_c, 0, 66, 0
2, 107747, Note_on_c, 0, 68, 0
2, 107757, Control_c, 0, 64, 27
2, 107776, Control_c, 0, 64, 39
2, 107780, Note_on_c, 0, 63, 65
2, 107796, Control_c, 0, 64, 48
2, 107814, Control_c, 0, 64, 54
2, 107834, Control_c, 0, 64, 57
2, 107853, Control_c, 0, 64, 59
2, 107873, Control_c, 0, 64, 61
2, 107891, Control_c, 0, 64, 62
2, 107911, Control_c, 0, 64, 62
2, 107930, Control_c, 0, 64, 63
2, 107949, Control_c, 0, 64, 64
2, 107968, Control_c, 0, 64, 65
2, 107988, Control_c, 0, 64, 66
2, 108007, Control_c, 0, 64, 67
2, 108026, Control_c, 0, 64, 68
2, 108045, Control_c, 0, 64, 70
2, 108065, Control_c, 0, 64, 73
2, 108079, Note_on_c, 0, 75, 68
2, 108084, Control_c, 0, 64, 76
2, 108093, Note_on_c, 0, 36, 64
2, 108104, Control_c, 0, 64, 78
2, 108123, Control_c, 0, 64, 79
2, 108181, Control_c, 0, 64, 78
2, 108191, Note_on_c, 0, 42, 0
2, 108200, Control_c, 0, 64, 78
2, 108219, Control_c, 0, 64, 77
2, 108238, Control_c, 0, 64, 77
2, 108257, Control_c, 0, 64, 76
2, 108276, Control_c, 0, 64, 74
2, 108294, Control_c, 0, 64, 71
2, 108314, Control_c, 0, 64, 68
2, 108333, Control_c, 0, 64, 66
2, 108346, Note_on_c, 0, 63, 0
2, 108353, Control_c, 0, 64, 65
2, 108368, Note_on_c, 0, 73, 70
2, 108371, Control_c, 0, 64, 64
2, 108391, Control_c, 0, 64, 63
2, 108410, Control_c, 0, 64, 61
2, 108429, Control_c, 0, 64, 60
2, 108448, Control_c, 0, 64, 58
2, 108467, Note_on_c, 0, 75, 0
2, 108468, Control_c, 0, 64, 58
2, 108487, Control_c, 0, 64, 57
2, 108506, Control_c, 0, 64, 57
2, 108525, Control_c, 0, 64, 56
2, 108545, Control_c, 0, 64, 55
2, 108563, Control_c, 0, 64, 54
2, 108583, Control_c, 0, 64, 52
2, 108602, Control_c, 0, 64, 51
2, 108622, Control_c, 0, 64, 51
2, 108632, Note_on_c, 0, 72, 69
2, 108640, Control_c, 0, 64, 50
2, 108660, Control_c, 0, 64, 49
2, 108679, Control_c, 0, 64, 46
2, 108679, Note_on_c, 0, 73, 0
2, 108699, Control_c, 0, 64, 43
2, 108717, Control_c, 0, 64, 38
2, 108736, Control_c, 0, 64, 33
2, 108756, Control_c, 0, 64, 26
2, 108774, Control_c, 0, 64, 15
2, 108794, Control_c, 0, 64, 0
2, 108908, Note_on_c, 0, 70, 72
2, 108918, Note_on_c, 0, 72, 0
2, 108926, Note_on_c, 0, 39, 65
2, 108960, Note_on_c, 0, 36, 0
2, 109189, Note_on_c, 0, 70, 0
2, 109193, Note_on_c, 0, 72, 74
2, 109206, Note_on_c, 0, 42, 67
2, 109238, Note_on_c, 0, 39, 0
2, 109329, Control_c, 0, 64, 41
2, 109348, Control_c, 0, 64, 52
2, 109368, Control_c, 0, 64, 57
2, 109386, Control_c, 0, 64, 60
2, 109405, Control_c, 0, 64, 62
2, 109425, Control_c, 0, 64, 64
2, 109441, Note_on_c, 0, 72, 0
2, 109444, Control_c, 0, 64, 66
2, 109463, Control_c, 0, 64, 68
2, 109473, Note_on_c, 0, 68, 77
2, 109482, Control_c, 0, 64, 71
2, 109502, Control_c, 0, 64, 75
2, 109520, Control_c, 0, 64, 80
2, 109540, Control_c, 0, 64, 85
2, 109559, Control_c, 0, 64, 91
2, 109579, Control_c, 0, 64, 99
2, 109597, Control_c, 0, 64, 112
2, 109617, Control_c, 0, 64, 127
2, 109699, Note_on_c, 0, 42, 0
2, 109830, Note_on_c, 0, 80, 79
2, 109885, Control_c, 0, 64, 104
2, 109896, Note_on_c, 0, 40, 42
2, 109905, Control_c, 0, 64, 90
2, 109924, Control_c, 0, 64, 79
2, 109943, Control_c, 0, 64, 71
2, 109962, Control_c, 0, 64, 64
2, 109982, Control_c, 0, 64, 54
2, 110000, Control_c, 0, 64, 24
2, 110020, Control_c, 0, 64, 0
2, 110116, Control_c, 0, 64, 34
2, 110136, Control_c, 0, 64, 52
2, 110153, Note_on_c, 0, 68, 0
2, 110154, Control_c, 0, 64, 59
2, 110174, Control_c, 0, 64, 62
2, 110193, Control_c, 0, 64, 64
2, 110212, Control_c, 0, 64, 66
2, 110231, Control_c, 0, 64, 68
2, 110251, Control_c, 0, 64, 71
2, 110270, Control_c, 0, 64, 76
2, 110289, Control_c, 0, 64, 81
2, 110293, Note_on_c, 0, 40, 0
2, 110301, Note_on_c, 0, 52, 60
2, 110308, Control_c, 0, 64, 87
2, 110328, Control_c, 0, 64, 94
2, 110346, Control_c, 0, 64, 107
2, 110365, Control_c, 0, 64, 127
2, 110618, Note_on_c, 0, 54, 56
2, 110618, Note_on_c, 0, 78, 70
2, 110626, Note_on_c, 0, 52, 0
2, 110711, Control_c, 0, 64, 119
2, 110731, Control_c, 0, 64, 111
2, 110750, Control_c, 0, 64, 100
2, 110769, Control_c, 0, 64, 89
2, 110788, Control_c, 0, 64, 81
2, 110808, Control_c, 0, 64, 77
2, 110826, Control_c, 0, 64, 76
2, 110845, Control_c, 0, 64, 75
2, 110853, Note_on_c, 0, 80, 0
2, 110865, Control_c, 0, 64, 73
2, 110884, Control_c, 0, 64, 69
2, 110903, Control_c, 0, 64, 66
2, 110907, Note_on_c, 0, 76, 70
2, 110915, Note_on_c, 0, 56, 59
2, 110917, Note_on_c, 0, 54, 0
2, 110922, Control_c, 0, 64, 64
2, 110942, Control_c, 0, 64, 63
2, 110960, Control_c, 0, 64, 63
2, 110975, Note_on_c, 0, 78, 0
2, 110980, Control_c, 0, 64, 62
2, 110999, Control_c, 0, 64, 62
2, 111019, Control_c, 0, 64, 61
2, 111037, Control_c, 0, 64, 60
2, 111057, Control_c, 0, 64, 59
2, 111076, Control_c, 0, 64, 58
2, 111096, Control_c, 0, 64, 58
2, 111114, Control_c, 0, 64, 57
2, 111134, Control_c, 0, 64, 56
2, 111137, Note_on_c, 0, 56, 0
2, 111154, Control_c, 0, 64, 55
2, 111166, Note_on_c, 0, 75, 75
2, 111168, Note_on_c, 0, 76, 0
2, 111173, Control_c, 0, 64, 53
2, 111173, Note_on_c, 0, 57, 54
2, 111192, Control_c, 0, 64, 52
2, 111212, Control_c, 0, 64, 51
2, 111230, Control_c, 0, 64, 50
2, 111250, Control_c, 0, 64, 49
2, 111269, Control_c, 0, 64, 47
2, 111289, Control_c, 0, 64, 45
2, 111307, Control_c, 0, 64, 43
2, 111326, Control_c, 0, 64, 41
2, 111346, Control_c, 0, 64, 41
2, 111403, Control_c, 0, 64, 40
2, 111415, Note_on_c, 0, 75, 0
2, 111439, Note_on_c, 0, 73, 69
2, 111441, Control_c, 0, 64, 40
2, 111456, Note_on_c, 0, 54, 49
2, 111461, Control_c, 0, 64, 39
2, 111500, Control_c, 0, 64, 39
2, 111672, Control_c, 0, 64, 39
2, 111721, Note_on_c, 0, 73, 0
2, 111725, Note_on_c, 0, 54, 0
2, 111726, Note_on_c, 0, 72, 67
2, 111728, Note_on_c, 0, 51, 42
2, 111787, Control_c, 0, 64, 40
2, 111841, Note_on_c, 0, 57, 0
2, 112008, Note_on_c, 0, 73, 71
2, 112016, Note_on_c, 0, 52, 54
2, 112022, Note_on_c, 0, 51, 0
2, 112037, Note_on_c, 0, 72, 0
2, 112040, Control_c, 0, 64, 39
2, 112099, Control_c, 0, 64, 39
2, 112235, Note_on_c, 0, 52, 0
2, 112277, Note_on_c, 0, 75, 70
2, 112300, Note_on_c, 0, 54, 45
2, 112330, Note_on_c, 0, 73, 0
2, 112554, Note_on_c, 0, 78, 65
2, 112573, Note_on_c, 0, 51, 39
2, 112602, Note_on_c, 0, 75, 0
2, 112724, Note_on_c, 0, 54, 0
2, 112746, Control_c, 0, 64, 38
2, 112785, Control_c, 0, 64, 38
2, 112827, Note_on_c, 0, 69, 65
2, 112842, Control_c, 0, 64, 37
2, 112860, Note_on_c, 0, 48, 40
2, 112862, Control_c, 0, 64, 37
2, 112881, Control_c, 0, 64, 36
2, 112901, Control_c, 0, 64, 36
2, 112906, Note_on_c, 0, 78, 0
2, 112947, Note_on_c, 0, 51, 0
2, 113102, Note_on_c, 0, 48, 0
2, 113112, Note_on_c, 0, 49, 68
2, 113348, Note_on_c, 0, 49, 0
2, 113380, Note_on_c, 0, 51, 60
2, 113573, Control_c, 0, 64, 35
2, 113592, Control_c, 0, 64, 34
2, 113612, Control_c, 0, 64, 32
2, 113630, Control_c, 0, 64, 31
2, 113644, Note_on_c, 0, 68, 77
2, 113650, Control_c, 0, 64, 28
2, 113650, Note_on_c, 0, 48, 55
2, 113665, Note_on_c, 0, 51, 0
2, 113669, Control_c, 0, 64, 25
2, 113689, Control_c, 0, 64, 22
2, 113694, Note_on_c, 0, 69, 0
2, 113707, Control_c, 0, 64, 20
2, 113726, Control_c, 0, 64, 13
2, 113746, Control_c, 0, 64, 0
2, 113894, Note_on_c, 0, 48, 0
2, 113912, Note_on_c, 0, 68, 0
2, 113931, Note_on_c, 0, 44, 54
2, 113933, Note_on_c, 0, 69, 70
2, 114070, Control_c, 0, 64, 38
2, 114090, Control_c, 0, 64, 55
2, 114109, Control_c, 0, 64, 60
2, 114127, Control_c, 0, 64, 64
2, 114136, Note_on_c, 0, 69, 0
2, 114147, Control_c, 0, 64, 66
2, 114166, Control_c, 0, 64, 69
2, 114175, Note_on_c, 0, 66, 72
2, 114177, Note_on_c, 0, 44, 0
2, 114186, Control_c, 0, 64, 74
2, 114190, Note_on_c, 0, 46, 58
2, 114204, Control_c, 0, 64, 83
2, 114224, Control_c, 0, 64, 97
2, 114243, Control_c, 0, 64, 127
2, 114283, Note_on_c, 0, 66, 0
2, 114479, Note_on_c, 0, 81, 82
2, 114499, Note_on_c, 0, 46, 0
2, 114515, Note_on_c, 0, 48, 50
2, 114550, Control_c, 0, 64, 102
2, 114570, Control_c, 0, 64, 83
2, 114589, Control_c, 0, 64, 70
2, 114607, Control_c, 0, 64, 64
2, 114627, Control_c, 0, 64, 61
2, 114646, Control_c, 0, 64, 61
2, 114666, Control_c, 0, 64, 59
2, 114684, Control_c, 0, 64, 57
2, 114704, Control_c, 0, 64, 54
2, 114723, Control_c, 0, 64, 50
2, 114742, Control_c, 0, 64, 47
2, 114761, Control_c, 0, 64, 45
2, 114771, Note_on_c, 0, 49, 68
2, 114781, Control_c, 0, 64, 43
2, 114789, Note_on_c, 0, 48, 0
2, 114800, Control_c, 0, 64, 38
2, 114819, Control_c, 0, 64, 29
2, 114838, Control_c, 0, 64, 20
2, 114858, Control_c, 0, 64, 9
2, 114876, Control_c, 0, 64, 0
2, 115065, Note_on_c, 0, 51, 64
2, 115081, Note_on_c, 0, 49, 0
2, 115204, Control_c, 0, 64, 13
2, 115223, Control_c, 0, 64, 15
2, 115298, Note_on_c, 0, 51, 0
2, 115300, Control_c, 0, 64, 18
2, 115319, Control_c, 0, 64, 19
2, 115342, Note_on_c, 0, 52, 60
2, 115357, Control_c, 0, 64, 20
2, 115377, Control_c, 0, 64, 22
2, 115396, Control_c, 0, 64, 25
2, 115416, Control_c, 0, 64, 26
2, 115550, Control_c, 0, 64, 27
2, 115569, Control_c, 0, 64, 27
2, 115588, Control_c, 0, 64, 28
2, 115607, Control_c, 0, 64, 29
2, 115618, Note_on_c, 0, 80, 69
2, 115626, Control_c, 0, 64, 29
2, 115636, Note_on_c, 0, 54, 50
2, 115660, Note_on_c, 0, 52, 0
2, 115782, Note_on_c, 0, 81, 0
2, 115819, Control_c, 0, 64, 30
2, 115896, Note_on_c, 0, 78, 70
2, 115910, Note_on_c, 0, 56, 59
2, 115911, Note_on_c, 0, 54, 0
2, 115956, Note_on_c, 0, 80, 0
2, 116087, Control_c, 0, 64, 29
2, 116106, Control_c, 0, 64, 29
2, 116125, Control_c, 0, 64, 28
2, 116145, Control_c, 0, 64, 27
2, 116164, Control_c, 0, 64, 27
2, 116174, Note_on_c, 0, 56, 0
2, 116183, Control_c, 0, 64, 26
2, 116183, Note_on_c, 0, 76, 68
2, 116183, Note_on_c, 0, 78, 0
2, 116192, Note_on_c, 0, 58, 49
2, 116202, Control_c, 0, 64, 24
2, 116222, Control_c, 0, 64, 22
2, 116240, Control_c, 0, 64, 18
2, 116260, Control_c, 0, 64, 13
2, 116279, Control_c, 0, 64, 0
2, 116394, Control_c, 0, 64, 17
2, 116414, Control_c, 0, 64, 29
2, 116433, Control_c, 0, 64, 43
2, 116444, Note_on_c, 0, 58, 0
2, 116452, Control_c, 0, 64, 52
2, 116465, Note_on_c, 0, 75, 72
2, 116471, Control_c, 0, 64, 58
2, 116491, Control_c, 0, 64, 61
2, 116498, Note_on_c, 0, 76, 0
2, 116500, Note_on_c, 0, 60, 41
2, 116510, Control_c, 0, 64, 63
2, 116529, Control_c, 0, 64, 65
2, 116548, Control_c, 0, 64, 67
2, 116567, Control_c, 0, 64, 69
2, 116586, Control_c, 0, 64, 73
2, 116605, Control_c, 0, 64, 82
2, 116625, Control_c, 0, 64, 94
2, 116644, Control_c, 0, 64, 115
2, 116663, Control_c, 0, 64, 127
2, 116875, Note_on_c, 0, 76, 74
2, 116884, Note_on_c, 0, 60, 0
2, 116905, Note_on_c, 0, 75, 0
2, 116913, Control_c, 0, 64, 99
2, 116914, Note_on_c, 0, 61, 45
2, 116932, Control_c, 0, 64, 80
2, 116951, Control_c, 0, 64, 68
2, 116971, Control_c, 0, 64, 61
2, 116990, Control_c, 0, 64, 52
2, 117009, Control_c, 0, 64, 50
2, 117028, Control_c, 0, 64, 50
2, 117047, Control_c, 0, 64, 53
2, 117066, Control_c, 0, 64, 58
2, 117085, Control_c, 0, 64, 62
2, 117105, Control_c, 0, 64, 64
2, 117124, Control_c, 0, 64, 66
2, 117143, Control_c, 0, 64, 69
2, 117162, Control_c, 0, 64, 72
2, 117182, Control_c, 0, 64, 75
2, 117194, Note_on_c, 0, 61, 0
2, 117200, Control_c, 0, 64, 76
2, 117220, Control_c, 0, 64, 76
2, 117241, Note_on_c, 0, 75, 70
2, 117259, Control_c, 0, 64, 76
2, 117259, Note_on_c, 0, 59, 52
2, 117316, Control_c, 0, 64, 75
2, 117374, Control_c, 0, 64, 74
2, 117393, Control_c, 0, 64, 72
2, 117412, Control_c, 0, 64, 70
2, 117431, Control_c, 0, 64, 66
2, 117451, Control_c, 0, 64, 64
2, 117470, Control_c, 0, 64, 63
2, 117489, Control_c, 0, 64, 62
2, 117496, Note_on_c, 0, 75, 0
2, 117508, Control_c, 0, 64, 61
2, 117525, Note_on_c, 0, 73, 56
2, 117527, Control_c, 0, 64, 60
2, 117540, Note_on_c, 0, 57, 51
2, 117546, Control_c, 0, 64, 59
2, 117556, Note_on_c, 0, 59, 0
2, 117565, Control_c, 0, 64, 58
2, 117585, Control_c, 0, 64, 57
2, 117604, Control_c, 0, 64, 57
2, 117623, Control_c, 0, 64, 56
2, 117642, Control_c, 0, 64, 54
2, 117662, Control_c, 0, 64, 52
2, 117680, Control_c, 0, 64, 50
2, 117700, Control_c, 0, 64, 47
2, 117719, Control_c, 0, 64, 45
2, 117739, Control_c, 0, 64, 41
2, 117757, Control_c, 0, 64, 38
2, 117777, Control_c, 0, 64, 34
2, 117792, Note_on_c, 0, 72, 57
2, 117796, Control_c, 0, 64, 28
2, 117805, Note_on_c, 0, 57, 0
2, 117808, Note_on_c, 0, 73, 0
2, 117816, Control_c, 0, 64, 22
2, 117819, Note_on_c, 0, 56, 55
2, 117834, Control_c, 0, 64, 17
2, 117854, Control_c, 0, 64, 9
2, 117872, Control_c, 0, 64, 0
2, 118074, Note_on_c, 0, 56, 0
2, 118092, Note_on_c, 0, 73, 65
2, 118102, Note_on_c, 0, 57, 54
2, 118132, Note_on_c, 0, 72, 0
2, 118313, Control_c, 0, 64, 30
2, 118333, Control_c, 0, 64, 46
2, 118352, Control_c, 0, 64, 55
2, 118371, Control_c, 0, 64, 59
2, 118382, Note_on_c, 0, 81, 76
2, 118388, Note_on_c, 0, 57, 0
2, 118390, Control_c, 0, 64, 62
2, 118410, Control_c, 0, 64, 64
2, 118411, Note_on_c, 0, 54, 45
2, 118411, Note_on_c, 0, 76, 0
2, 118429, Control_c, 0, 64, 66
2, 118447, Control_c, 0, 64, 69
2, 118453, Note_on_c, 0, 73, 0
2, 118467, Control_c, 0, 64, 73
2, 118486, Control_c, 0, 64, 80
2, 118506, Control_c, 0, 64, 94
2, 118524, Control_c, 0, 64, 127
2, 118599, Note_on_c, 0, 81, 0
2, 118644, Note_on_c, 0, 73, 65
2, 118740, Note_on_c, 0, 75, 76
2, 118880, Note_on_c, 0, 54, 0
2, 118884, Note_on_c, 0, 76, 74
2, 118918, Note_on_c, 0, 75, 0
2, 118924, Note_on_c, 0, 56, 41
2, 119004, Control_c, 0, 64, 93
2, 119024, Control_c, 0, 64, 75
2, 119043, Control_c, 0, 64, 66
2, 119062, Control_c, 0, 64, 60
2, 119081, Control_c, 0, 64, 55
2, 119101, Control_c, 0, 64, 50
2, 119120, Control_c, 0, 64, 42
2, 119139, Control_c, 0, 64, 27
2, 119158, Control_c, 0, 64, 0
2, 119370, Control_c, 0, 64, 23
2, 119389, Control_c, 0, 64, 44
2, 119407, Control_c, 0, 64, 55
2, 119427, Control_c, 0, 64, 60
2, 119446, Control_c, 0, 64, 62
2, 119466, Control_c, 0, 64, 64
2, 119484, Control_c, 0, 64, 65
2, 119504, Control_c, 0, 64, 68
2, 119523, Control_c, 0, 64, 72
2, 119542, Control_c, 0, 64, 78
2, 119561, Control_c, 0, 64, 88
2, 119581, Control_c, 0, 64, 109
2, 119600, Control_c, 0, 64, 127
2, 119941, Note_on_c, 0, 78, 71
2, 119950, Note_on_c, 0, 76, 0
2, 120033, Note_on_c, 0, 73, 0
2, 120234, Note_on_c, 0, 44, 34
2, 120339, Note_on_c, 0, 76, 58
2, 120353, Control_c, 0, 64, 108
2, 120368, Note_on_c, 0, 72, 36
2, 120371, Control_c, 0, 64, 87
2, 120391, Control_c, 0, 64, 75
2, 120394, Note_on_c, 0, 78, 0
2, 120410, Control_c, 0, 64, 68
2, 120424, Note_on_c, 0, 75, 66
2, 120429, Control_c, 0, 64, 64
2, 120434, Note_on_c, 0, 76, 0
2, 120448, Control_c, 0, 64, 62
2, 120468, Control_c, 0, 64, 57
2, 120487, Control_c, 0, 64, 48
2, 120506, Control_c, 0, 64, 34
2, 120507, Note_on_c, 0, 75, 0
2, 120525, Control_c, 0, 64, 0
2, 120531, Note_on_c, 0, 73, 60
2, 120623, Control_c, 0, 67, 8
2, 120635, Note_on_c, 0, 73, 0
2, 120641, Control_c, 0, 67, 13
2, 120655, Note_on_c, 0, 75, 55
2, 120661, Control_c, 0, 67, 21
2, 120680, Control_c, 0, 67, 32
2, 120698, Control_c, 0, 67, 45
2, 120718, Control_c, 0, 64, 23
2, 120718, Control_c, 0, 67, 60
2, 120737, Control_c, 0, 64, 51
2, 120737, Control_c, 0, 67, 75
2, 120757, Control_c, 0, 64, 59
2, 120757, Control_c, 0, 67, 91
2, 120775, Control_c, 0, 64, 63
2, 120775, Control_c, 0, 67, 106
2, 120795, Control_c, 0, 64, 65
2, 120795, Control_c, 0, 67, 125
2, 120814, Control_c, 0, 64, 67
2, 120814, Control_c, 0, 67, 127
2, 120834, Control_c, 0, 64, 71
2, 120852, Control_c, 0, 64, 78
2, 120872, Control_c, 0, 64, 92
2, 120875, Note_on_c, 0, 75, 0
2, 120891, Control_c, 0, 64, 123
2, 120910, Control_c, 0, 64, 127
2, 121247, Note_on_c, 0, 46, 32
2, 121298, Note_on_c, 0, 56, 0
2, 121315, Note_on_c, 0, 44, 0
2, 121320, Note_on_c, 0, 73, 63
2, 121390, Control_c, 0, 64, 99
2, 121409, Control_c, 0, 64, 86
2, 121414, Note_on_c, 0, 72, 0
2, 121429, Control_c, 0, 64, 79
2, 121448, Control_c, 0, 64, 75
2, 121467, Control_c, 0, 64, 72
2, 121486, Control_c, 0, 64, 69
2, 121506, Control_c, 0, 64, 65
2, 121526, Control_c, 0, 64, 64
2, 121546, Control_c, 0, 64, 63
2, 121584, Control_c, 0, 64, 62
2, 121603, Control_c, 0, 64, 61
2, 121623, Control_c, 0, 64, 58
2, 121642, Control_c, 0, 64, 54
2, 121660, Control_c, 0, 64, 50
2, 121680, Control_c, 0, 64, 47
2, 121699, Control_c, 0, 64, 45
2, 121717, Control_c, 0, 64, 43
2, 121735, Control_c, 0, 64, 41
2, 121755, Control_c, 0, 64, 39
2, 121774, Control_c, 0, 64, 36
2, 121794, Control_c, 0, 64, 35
2, 121812, Control_c, 0, 64, 34
2, 121832, Control_c, 0, 64, 33
2, 121851, Control_c, 0, 64, 32
2, 121867, Note_on_c, 0, 71, 46
2, 121870, Control_c, 0, 64, 31
2, 121889, Control_c, 0, 64, 29
2, 121890, Note_on_c, 0, 56, 32
2, 121909, Control_c, 0, 64, 28
2, 121928, Control_c, 0, 64, 27
2, 122081, Control_c, 0, 64, 27
2, 122100, Control_c, 0, 64, 26
2, 122120, Control_c, 0, 64, 25
2, 122164, Note_on_c, 0, 56, 0
2, 122179, Note_on_c, 0, 70, 57
2, 122189, Note_on_c, 0, 71, 0
2, 122205, Note_on_c, 0, 55, 36
2, 122292, Control_c, 0, 64, 24
2, 122369, Control_c, 0, 64, 23
2, 122383, Note_on_c, 0, 55, 0
2, 122446, Note_on_c, 0, 68, 64
2, 122463, Note_on_c, 0, 56, 38
2, 122466, Control_c, 0, 64, 22
2, 122479, Note_on_c, 0, 70, 0
2, 122483, Control_c, 0, 64, 21
2, 122521, Control_c, 0, 64, 20
2, 122617, Control_c, 0, 64, 19
2, 122636, Control_c, 0, 64, 18
2, 122655, Control_c, 0, 64, 15
2, 122670, Note_on_c, 0, 56, 0
2, 122674, Control_c, 0, 64, 9
2, 122693, Control_c, 0, 64, 0
2, 122696, Note_on_c, 0, 68, 0
2, 122727, Note_on_c, 0, 67, 44
2, 122743, Note_on_c, 0, 58, 28
2, 122923, Control_c, 0, 64, 17
2, 122943, Control_c, 0, 64, 41
2, 122962, Control_c, 0, 64, 53
2, 122980, Control_c, 0, 64, 58
2, 122983, Note_on_c, 0, 67, 0
2, 122994, Note_on_c, 0, 58, 0
2, 123000, Control_c, 0, 64, 61
2, 123019, Control_c, 0, 64, 62
2, 123028, Note_on_c, 0, 68, 52
2, 123038, Control_c, 0, 64, 64
2, 123043, Note_on_c, 0, 51, 29
2, 123057, Control_c, 0, 64, 65
2, 123077, Control_c, 0, 64, 66
2, 123096, Control_c, 0, 64, 68
2, 123115, Control_c, 0, 64, 69
2, 123134, Control_c, 0, 64, 71
2, 123154, Control_c, 0, 64, 74
2, 123173, Control_c, 0, 64, 78
2, 123192, Control_c, 0, 64, 83
2, 123201, Note_on_c, 0, 68, 0
2, 123211, Control_c, 0, 64, 86
2, 123231, Control_c, 0, 64, 88
2, 123249, Control_c, 0, 64, 89
2, 123269, Control_c, 0, 64, 89
2, 123288, Control_c, 0, 64, 90
2, 123308, Control_c, 0, 64, 91
2, 123324, Note_on_c, 0, 51, 0
2, 123326, Control_c, 0, 64, 91
2, 123443, Control_c, 0, 64, 91
2, 123463, Control_c, 0, 64, 88
2, 123482, Control_c, 0, 64, 83
2, 123482, Note_on_c, 0, 68, 48
2, 123500, Note_on_c, 0, 52, 34
2, 123502, Control_c, 0, 64, 81
2, 123520, Control_c, 0, 64, 80
2, 123539, Control_c, 0, 64, 78
2, 123559, Control_c, 0, 64, 74
2, 123578, Control_c, 0, 64, 68
2, 123597, Control_c, 0, 64, 62
2, 123616, Control_c, 0, 64, 35
2, 123634, Control_c, 0, 64, 0
2, 123899, Note_on_c, 0, 68, 0
2, 123968, Note_on_c, 0, 67, 32
2, 124209, Control_c, 0, 64, 34
2, 124229, Control_c, 0, 64, 48
2, 124248, Control_c, 0, 64, 58
2, 124268, Control_c, 0, 64, 62
2, 124286, Control_c, 0, 64, 63
2, 124306, Control_c, 0, 64, 65
2, 124325, Control_c, 0, 64, 68
2, 124344, Control_c, 0, 64, 73
2, 124363, Control_c, 0, 64, 82
2, 124383, Control_c, 0, 64, 94
2, 124402, Control_c, 0, 64, 111
2, 124420, Control_c, 0, 64, 127
2, 124534, Note_on_c, 0, 46, 0
2, 124789, Note_on_c, 0, 76, 53
2, 124793, Note_on_c, 0, 73, 0
2, 124822, Note_on_c, 0, 47, 38
2, 125172, Note_on_c, 0, 47, 0
2, 125186, Note_on_c, 0, 75, 62
2, 125223, Note_on_c, 0, 49, 43
2, 125231, Note_on_c, 0, 76, 0
2, 125247, Control_c, 0, 64, 110
2, 125267, Control_c, 0, 64, 90
2, 125286, Control_c, 0, 64, 74
2, 125305, Control_c, 0, 64, 64
2, 125324, Control_c, 0, 64, 52
2, 125344, Control_c, 0, 64, 0
2, 125498, Control_c, 0, 64, 35
2, 125517, Control_c, 0, 64, 49
2, 125536, Control_c, 0, 64, 55
2, 125556, Control_c, 0, 64, 59
2, 125571, Note_on_c, 0, 67, 0
2, 125574, Control_c, 0, 64, 61
2, 125594, Control_c, 0, 64, 64
2, 125613, Control_c, 0, 64, 67
2, 125633, Control_c, 0, 64, 71
2, 125651, Control_c, 0, 64, 78
2, 125671, Control_c, 0, 64, 89
2, 125690, Control_c, 0, 64, 102
2, 125709, Control_c, 0, 64, 127
2, 125830, Note_on_c, 0, 52, 0
2, 126002, Note_on_c, 0, 49, 0
2, 126067, Note_on_c, 0, 76, 60
2, 126120, Note_on_c, 0, 75, 0
2, 126128, Note_on_c, 0, 43, 31
2, 126228, Control_c, 0, 64, 90
2, 126247, Control_c, 0, 64, 74
2, 126266, Control_c, 0, 64, 64
2, 126285, Control_c, 0, 64, 56
2, 126305, Control_c, 0, 64, 50
2, 126323, Control_c, 0, 64, 50
2, 126343, Control_c, 0, 64, 49
2, 126362, Control_c, 0, 64, 48
2, 126382, Control_c, 0, 64, 44
2, 126400, Control_c, 0, 64, 38
2, 126419, Control_c, 0, 64, 29
2, 126439, Control_c, 0, 64, 19
2, 126458, Control_c, 0, 64, 13
2, 126477, Control_c, 0, 64, 11
2, 126599, Note_on_c, 0, 68, 50
2, 126605, Note_on_c, 0, 51, 36
2, 126765, Control_c, 0, 64, 13
2, 126785, Control_c, 0, 64, 15
2, 126803, Control_c, 0, 64, 17
2, 126842, Control_c, 0, 64, 18
2, 126899, Note_on_c, 0, 68, 0
2, 126903, Note_on_c, 0, 70, 51
2, 126934, Note_on_c, 0, 49, 43
2, 126938, Note_on_c, 0, 51, 0
2, 126976, Control_c, 0, 64, 19
2, 126996, Control_c, 0, 64, 20
2, 127034, Control_c, 0, 64, 21
2, 127180, Note_on_c, 0, 68, 61
2, 127188, Note_on_c, 0, 47, 46
2, 127188, Note_on_c, 0, 70, 0
2, 127199, Note_on_c, 0, 49, 0
2, 127341, Control_c, 0, 64, 20
2, 127360, Control_c, 0, 64, 18
2, 127379, Control_c, 0, 64, 17
2, 127399, Control_c, 0, 64, 13
2, 127435, Note_on_c, 0, 47, 0
2, 127437, Control_c, 0, 64, 11
2, 127459, Note_on_c, 0, 68, 0
2, 127470, Note_on_c, 0, 71, 65
2, 127477, Note_on_c, 0, 49, 50
2, 127514, Control_c, 0, 64, 20
2, 127533, Control_c, 0, 64, 32
2, 127553, Control_c, 0, 64, 44
2, 127571, Control_c, 0, 64, 51
2, 127591, Control_c, 0, 64, 55
2, 127610, Control_c, 0, 64, 58
2, 127629, Control_c, 0, 64, 60
2, 127648, Control_c, 0, 64, 61
2, 127668, Control_c, 0, 64, 63
2, 127687, Control_c, 0, 64, 64
2, 127691, Note_on_c, 0, 49, 0
2, 127706, Control_c, 0, 64, 66
2, 127725, Control_c, 0, 64, 70
2, 127737, Note_on_c, 0, 71, 0
2, 127743, Note_on_c, 0, 70, 74
2, 127745, Control_c, 0, 64, 78
2, 127749, Note_on_c, 0, 52, 49
2, 127763, Control_c, 0, 64, 94
2, 127783, Control_c, 0, 64, 112
2, 127802, Control_c, 0, 64, 127
2, 127853, Note_on_c, 0, 70, 0
2, 128068, Note_on_c, 0, 52, 0
2, 128188, Note_on_c, 0, 70, 54
2, 128212, Note_on_c, 0, 55, 38
2, 128244, Control_c, 0, 64, 100
2, 128264, Control_c, 0, 64, 81
2, 128283, Control_c, 0, 64, 69
2, 128303, Control_c, 0, 64, 57
2, 128321, Control_c, 0, 64, 37
2, 128340, Control_c, 0, 64, 0
2, 128511, Note_on_c, 0, 76, 0
2, 128569, Control_c, 0, 64, 31
2, 128589, Control_c, 0, 64, 49
2, 128607, Control_c, 0, 64, 56
2, 128627, Control_c, 0, 64, 59
2, 128646, Control_c, 0, 64, 62
2, 128665, Control_c, 0, 64, 63
2, 128684, Control_c, 0, 64, 65
2, 128684, Control_c, 0, 67, 119
2, 128704, Control_c, 0, 64, 67
2, 128704, Control_c, 0, 67, 109
2, 128723, Control_c, 0, 64, 74
2, 128723, Control_c, 0, 67, 96
2, 128741, Control_c, 0, 64, 86
2, 128741, Control_c, 0, 67, 83
2, 128761, Control_c, 0, 64, 110
2, 128761, Control_c, 0, 67, 69
2, 128780, Control_c, 0, 64, 127
2, 128780, Control_c, 0, 67, 55
2, 128799, Control_c, 0, 67, 46
2, 128813, Note_on_c, 0, 43, 0
2, 128818, Control_c, 0, 67, 38
2, 128838, Control_c, 0, 67, 31
2, 128857, Control_c, 0, 67, 25
2, 128876, Control_c, 0, 67, 20
2, 128895, Control_c, 0, 67, 15
2, 128915, Control_c, 0, 67, 10
2, 128933, Control_c, 0, 67, 0
2, 129243, Note_on_c, 0, 72, 64
2, 129277, Note_on_c, 0, 44, 48
2, 129606, Control_c, 0, 64, 107
2, 129625, Control_c, 0, 64, 97
2, 129629, Note_on_c, 0, 73, 67
2, 129644, Control_c, 0, 64, 90
2, 129646, Note_on_c, 0, 46, 50
2, 129661, Note_on_c, 0, 72, 0
2, 129664, Control_c, 0, 64, 83
2, 129683, Control_c, 0, 64, 74
2, 129698, Note_on_c, 0, 44, 0
2, 129701, Control_c, 0, 64, 66
2, 129721, Control_c, 0, 64, 59
2, 129740, Control_c, 0, 64, 45
2, 129748, Note_on_c, 0, 70, 0
2, 129749, Note_on_c, 0, 55, 0
2, 129759, Control_c, 0, 64, 22
2, 129778, Control_c, 0, 64, 0
2, 129952, Control_c, 0, 64, 37
2, 129970, Control_c, 0, 64, 53
2, 129990, Control_c, 0, 64, 59
2, 130009, Control_c, 0, 64, 61
2, 130029, Control_c, 0, 64, 63
2, 130047, Control_c, 0, 64, 65
2, 130067, Control_c, 0, 64, 66
2, 130086, Control_c, 0, 64, 70
2, 130105, Control_c, 0, 64, 76
2, 130124, Control_c, 0, 64, 90
2, 130144, Control_c, 0, 64, 127
2, 130707, Note_on_c, 0, 79, 72
2, 130760, Note_on_c, 0, 39, 45
2, 130873, Control_c, 0, 64, 98
2, 130892, Control_c, 0, 64, 79
2, 130905, Note_on_c, 0, 73, 0
2, 130912, Control_c, 0, 64, 68
2, 130930, Control_c, 0, 64, 64
2, 130950, Control_c, 0, 64, 61
2, 130969, Control_c, 0, 64, 60
2, 130973, Note_on_c, 0, 46, 0
2, 130989, Control_c, 0, 64, 59
2, 131007, Control_c, 0, 64, 58
2, 131027, Control_c, 0, 64, 56
2, 131046, Control_c, 0, 64, 54
2, 131065, Control_c, 0, 64, 54
2, 131084, Control_c, 0, 64, 53
2, 131104, Control_c, 0, 64, 52
2, 131123, Control_c, 0, 64, 50
2, 131141, Control_c, 0, 64, 48
2, 131161, Control_c, 0, 64, 46
2, 131180, Control_c, 0, 64, 44
2, 131199, Control_c, 0, 64, 42
2, 131218, Control_c, 0, 64, 42
2, 131257, Control_c, 0, 64, 41
2, 131276, Control_c, 0, 64, 41
2, 131295, Control_c, 0, 64, 39
2, 131314, Control_c, 0, 64, 38
2, 131332, Note_on_c, 0, 75, 53
2, 131333, Control_c, 0, 64, 37
2, 131352, Control_c, 0, 64, 36
2, 131371, Control_c, 0, 64, 35
2, 131602, Control_c, 0, 64, 35
2, 131689, Note_on_c, 0, 75, 0
2, 131709, Note_on_c, 0, 76, 51
2, 131755, Control_c, 0, 64, 34
2, 131774, Control_c, 0, 64, 32
2, 131794, Control_c, 0, 64, 32
2, 131889, Control_c, 0, 64, 31
2, 131909, Control_c, 0, 64, 29
2, 131928, Control_c, 0, 64, 26
2, 131948, Control_c, 0, 64, 21
2, 131966, Control_c, 0, 64, 19
2, 132005, Control_c, 0, 64, 18
2, 132013, Note_on_c, 0, 75, 61
2, 132024, Control_c, 0, 64, 17
2, 132062, Control_c, 0, 64, 15
2, 132083, Note_on_c, 0, 76, 0
2, 132100, Control_c, 0, 64, 18
2, 132120, Control_c, 0, 64, 19
2, 132139, Control_c, 0, 64, 20
2, 132159, Control_c, 0, 64, 24
2, 132177, Control_c, 0, 64, 34
2, 132197, Control_c, 0, 64, 46
2, 132216, Control_c, 0, 64, 54
2, 132235, Control_c, 0, 64, 58
2, 132254, Control_c, 0, 64, 60
2, 132274, Control_c, 0, 64, 63
2, 132284, Note_on_c, 0, 39, 0
2, 132293, Control_c, 0, 64, 64
2, 132295, Note_on_c, 0, 73, 56
2, 132312, Control_c, 0, 64, 66
2, 132331, Control_c, 0, 64, 68
2, 132351, Control_c, 0, 64, 71
2, 132369, Control_c, 0, 64, 77
2, 132389, Control_c, 0, 64, 87
2, 132408, Control_c, 0, 64, 96
2, 132416, Note_on_c, 0, 75, 0
2, 132428, Control_c, 0, 64, 110
2, 132446, Control_c, 0, 64, 127
2, 132584, Note_on_c, 0, 71, 62
2, 132602, Note_on_c, 0, 73, 0
2, 132868, Note_on_c, 0, 70, 64
2, 133003, Control_c, 0, 64, 104
2, 133022, Control_c, 0, 64, 96
2, 133042, Control_c, 0, 64, 93
2, 133060, Control_c, 0, 64, 91
2, 133080, Control_c, 0, 64, 88
2, 133099, Control_c, 0, 64, 83
2, 133119, Control_c, 0, 64, 77
2, 133133, Note_on_c, 0, 68, 67
2, 133137, Control_c, 0, 64, 73
2, 133157, Control_c, 0, 64, 71
2, 133176, Control_c, 0, 64, 70
2, 133178, Note_on_c, 0, 70, 0
2, 133195, Control_c, 0, 64, 70
2, 133202, Note_on_c, 0, 71, 0
2, 133214, Control_c, 0, 64, 68
2, 133234, Control_c, 0, 64, 67
2, 133253, Control_c, 0, 64, 64
2, 133272, Control_c, 0, 64, 62
2, 133291, Control_c, 0, 64, 58
2, 133311, Control_c, 0, 64, 55
2, 133329, Control_c, 0, 64, 52
2, 133349, Control_c, 0, 64, 49
2, 133368, Control_c, 0, 64, 45
2, 133388, Control_c, 0, 64, 38
2, 133388, Note_on_c, 0, 68, 0
2, 133405, Note_on_c, 0, 67, 70
2, 133406, Control_c, 0, 64, 24
2, 133426, Control_c, 0, 64, 0
2, 133674, Note_on_c, 0, 67, 0
2, 133689, Note_on_c, 0, 65, 65
2, 133929, Note_on_c, 0, 65, 0
2, 133973, Note_on_c, 0, 80, 80
2, 134003, Note_on_c, 0, 79, 0
2, 134008, Note_on_c, 0, 72, 56
2, 134010, Note_on_c, 0, 66, 48
2, 134040, Control_c, 0, 64, 32
2, 134059, Control_c, 0, 64, 47
2, 134079, Control_c, 0, 64, 56
2, 134097, Control_c, 0, 64, 60
2, 134117, Control_c, 0, 64, 62
2, 134136, Control_c, 0, 64, 64
2, 134155, Control_c, 0, 64, 66
2, 134174, Control_c, 0, 64, 69
2, 134195, Control_c, 0, 64, 78
2, 134213, Control_c, 0, 64, 108
2, 134233, Control_c, 0, 64, 127
2, 134269, Note_on_c, 0, 80, 0
2, 134293, Note_on_c, 0, 63, 66
2, 134311, Note_on_c, 0, 66, 0
2, 134312, Note_on_c, 0, 72, 0
2, 134690, Note_on_c, 0, 63, 0
2, 134706, Note_on_c, 0, 73, 78
2, 134768, Note_on_c, 0, 64, 37
2, 134829, Control_c, 0, 64, 112
2, 134847, Control_c, 0, 64, 89
2, 134867, Control_c, 0, 64, 78
2, 134886, Control_c, 0, 64, 72
2, 134905, Control_c, 0, 64, 69
2, 134924, Control_c, 0, 64, 67
2, 134944, Control_c, 0, 64, 65
2, 134963, Control_c, 0, 64, 63
2, 134981, Control_c, 0, 64, 61
2, 135001, Control_c, 0, 64, 59
2, 135020, Control_c, 0, 64, 57
2, 135039, Control_c, 0, 64, 55
2, 135058, Control_c, 0, 64, 54
2, 135078, Control_c, 0, 64, 53
2, 135097, Control_c, 0, 64, 51
2, 135116, Control_c, 0, 64, 47
2, 135127, Note_on_c, 0, 71, 61
2, 135135, Control_c, 0, 64, 43
2, 135145, Note_on_c, 0, 63, 45
2, 135155, Control_c, 0, 64, 38
2, 135173, Control_c, 0, 64, 36
2, 135193, Control_c, 0, 64, 35
2, 135212, Control_c, 0, 64, 34
2, 135232, Control_c, 0, 64, 33
2, 135250, Control_c, 0, 64, 31
2, 135253, Note_on_c, 0, 64, 0
2, 135270, Control_c, 0, 64, 30
2, 135289, Control_c, 0, 64, 29
2, 135309, Control_c, 0, 64, 28
2, 135327, Control_c, 0, 64, 27
2, 135420, Note_on_c, 0, 69, 59
2, 135437, Note_on_c, 0, 61, 55
2, 135439, Note_on_c, 0, 63, 0
2, 135443, Control_c, 0, 64, 27
2, 135482, Note_on_c, 0, 71, 0
2, 135615, Control_c, 0, 64, 27
2, 135645, Note_on_c, 0, 61, 0
2, 135690, Note_on_c, 0, 68, 66
2, 135715, Note_on_c, 0, 59, 50
2, 135735, Note_on_c, 0, 69, 0
2, 135750, Control_c, 0, 64, 28
2, 135846, Control_c, 0, 64, 29
2, 135968, Note_on_c, 0, 68, 0
2, 135974, Note_on_c, 0, 66, 59
2, 135979, Note_on_c, 0, 57, 50
2, 136028, Note_on_c, 0, 59, 0
2, 136230, Note_on_c, 0, 57, 0
2, 136246, Note_on_c, 0, 69, 59
2, 136262, Note_on_c, 0, 66, 0
2, 136283, Note_on_c, 0, 54, 44
2, 136514, Note_on_c, 0, 54, 0
2, 136556, Control_c, 0, 64, 28
2, 136562, Note_on_c, 0, 64, 47
2, 136580, Note_on_c, 0, 56, 43
2, 136585, Note_on_c, 0, 69, 0
2, 136633, Control_c, 0, 64, 30
2, 136652, Control_c, 0, 64, 32
2, 136672, Control_c, 0, 64, 35
2, 136690, Control_c, 0, 64, 40
2, 136710, Control_c, 0, 64, 45
2, 136729, Control_c, 0, 64, 49
2, 136749, Control_c, 0, 64, 52
2, 136767, Control_c, 0, 64, 54
2, 136787, Control_c, 0, 64, 55
2, 136806, Control_c, 0, 64, 56
2, 136825, Control_c, 0, 64, 57
2, 136844, Control_c, 0, 64, 58
2, 136844, Control_c, 0, 67, 8
2, 136859, Note_on_c, 0, 51, 46
2, 136864, Control_c, 0, 64, 59
2, 136864, Control_c, 0, 67, 12
2, 136883, Control_c, 0, 67, 17
2, 136899, Note_on_c, 0, 56, 0
2, 136901, Control_c, 0, 64, 58
2, 136901, Control_c, 0, 67, 24
2, 136921, Control_c, 0, 64, 56
2, 136921, Control_c, 0, 67, 33
2, 136940, Control_c, 0, 64, 54
2, 136940, Control_c, 0, 67, 42
2, 136959, Control_c, 0, 64, 51
2, 136959, Control_c, 0, 67, 51
2, 136978, Control_c, 0, 64, 48
2, 136978, Control_c, 0, 67, 61
2, 136998, Control_c, 0, 64, 46
2, 136998, Control_c, 0, 67, 72
2, 137017, Control_c, 0, 64, 45
2, 137017, Control_c, 0, 67, 83
2, 137036, Control_c, 0, 64, 45
2, 137036, Control_c, 0, 67, 94
2, 137055, Control_c, 0, 67, 107
2, 137075, Control_c, 0, 64, 44
2, 137075, Control_c, 0, 67, 119
2, 137092, Note_on_c, 0, 51, 0
2, 137093, Control_c, 0, 67, 127
2, 137113, Control_c, 0, 64, 45
2, 137132, Control_c, 0, 64, 47
2, 137152, Control_c, 0, 64, 51
2, 137155, Note_on_c, 0, 52, 49
2, 137170, Control_c, 0, 64, 54
2, 137190, Control_c, 0, 64, 57
2, 137209, Control_c, 0, 64, 60
2, 137229, Control_c, 0, 64, 62
2, 137247, Control_c, 0, 64, 64
2, 137267, Control_c, 0, 64, 66
2, 137286, Control_c, 0, 64, 68
2, 137305, Control_c, 0, 64, 70
2, 137324, Control_c, 0, 64, 72
2, 137343, Control_c, 0, 64, 75
2, 137363, Control_c, 0, 64, 78
2, 137381, Control_c, 0, 64, 81
2, 137401, Control_c, 0, 64, 83
2, 137420, Control_c, 0, 64, 83
2, 137439, Control_c, 0, 64, 82
2, 137453, Note_on_c, 0, 73, 0
2, 137458, Control_c, 0, 64, 80
2, 137470, Note_on_c, 0, 75, 71
2, 137471, Note_on_c, 0, 64, 0
2, 137478, Control_c, 0, 64, 76
2, 137497, Control_c, 0, 64, 71
2, 137498, Note_on_c, 0, 52, 0
2, 137503, Note_on_c, 0, 49, 42
2, 137514, Note_on_c, 0, 66, 28
2, 137516, Control_c, 0, 64, 64
2, 137535, Control_c, 0, 64, 58
2, 137555, Control_c, 0, 64, 52
2, 137573, Control_c, 0, 64, 46
2, 137593, Control_c, 0, 64, 45
2, 137612, Control_c, 0, 64, 49
2, 137632, Control_c, 0, 64, 56
2, 137650, Control_c, 0, 64, 62
2, 137670, Control_c, 0, 64, 64
2, 137689, Control_c, 0, 64, 66
2, 137709, Control_c, 0, 64, 69
2, 137727, Control_c, 0, 64, 73
2, 137747, Control_c, 0, 64, 76
2, 137766, Control_c, 0, 64, 79
2, 137785, Control_c, 0, 64, 81
2, 137794, Note_on_c, 0, 66, 0
2, 137804, Control_c, 0, 64, 85
2, 137823, Control_c, 0, 64, 90
2, 137842, Control_c, 0, 64, 94
2, 137854, Note_on_c, 0, 49, 0
2, 137860, Control_c, 0, 64, 98
2, 137880, Control_c, 0, 64, 99
2, 137913, Note_on_c, 0, 72, 59
2, 137919, Control_c, 0, 64, 98
2, 137937, Control_c, 0, 64, 97
2, 137950, Note_on_c, 0, 63, 29
2, 137957, Control_c, 0, 64, 96
2, 137958, Note_on_c, 0, 44, 34
2, 137961, Note_on_c, 0, 75, 0
2, 137976, Control_c, 0, 64, 92
2, 137995, Control_c, 0, 64, 85
2, 138014, Control_c, 0, 64, 76
2, 138034, Control_c, 0, 64, 68
2, 138053, Control_c, 0, 64, 63
2, 138072, Control_c, 0, 64, 59
2, 138091, Control_c, 0, 64, 54
2, 138111, Control_c, 0, 64, 46
2, 138129, Control_c, 0, 64, 28
2, 138149, Control_c, 0, 64, 0
2, 138245, Control_c, 0, 64, 34
2, 138263, Control_c, 0, 64, 48
2, 138283, Control_c, 0, 64, 56
2, 138302, Control_c, 0, 64, 59
2, 138322, Control_c, 0, 64, 61
2, 138340, Control_c, 0, 64, 63
2, 138360, Control_c, 0, 64, 65
2, 138379, Control_c, 0, 64, 67
2, 138382, Note_on_c, 0, 66, 49
2, 138397, Note_on_c, 0, 56, 35
2, 138399, Control_c, 0, 64, 69
2, 138417, Control_c, 0, 64, 73
2, 138437, Control_c, 0, 64, 78
2, 138456, Control_c, 0, 64, 88
2, 138473, Note_on_c, 0, 63, 0
2, 138475, Control_c, 0, 64, 109
2, 138494, Control_c, 0, 64, 127
2, 138605, Note_on_c, 0, 66, 0
2, 138723, Note_on_c, 0, 72, 0
2, 138741, Note_on_c, 0, 56, 0
2, 138951, Note_on_c, 0, 44, 0
2, 139006, Note_on_c, 0, 49, 37
2, 139124, Note_on_c, 0, 73, 70
2, 139172, Note_on_c, 0, 61, 26
2, 139205, Control_c, 0, 64, 114
2, 139223, Control_c, 0, 64, 99
2, 139243, Control_c, 0, 64, 86
2, 139262, Control_c, 0, 64, 75
2, 139282, Control_c, 0, 64, 66
2, 139300, Control_c, 0, 64, 59
2, 139320, Control_c, 0, 64, 48
2, 139339, Control_c, 0, 64, 31
2, 139359, Control_c, 0, 64, 0
2, 139493, Control_c, 0, 64, 19
2, 139512, Control_c, 0, 64, 43
2, 139531, Control_c, 0, 64, 54
2, 139551, Control_c, 0, 64, 58
2, 139569, Control_c, 0, 64, 61
2, 139589, Control_c, 0, 64, 63
2, 139608, Control_c, 0, 64, 65
2, 139628, Control_c, 0, 64, 66
2, 139646, Control_c, 0, 64, 68
2, 139666, Control_c, 0, 64, 70
2, 139685, Control_c, 0, 64, 73
2, 139703, Control_c, 0, 64, 80
2, 139723, Control_c, 0, 64, 93
2, 139736, Note_on_c, 0, 68, 64
2, 139742, Control_c, 0, 64, 114
2, 139762, Control_c, 0, 64, 127
2, 140009, Note_on_c, 0, 68, 0
2, 140167, Note_on_c, 0, 69, 53
2, 140215, Note_on_c, 0, 54, 28
2, 140222, Control_c, 0, 64, 113
2, 140242, Control_c, 0, 64, 87
2, 140260, Control_c, 0, 64, 73
2, 140280, Control_c, 0, 64, 63
2, 140299, Control_c, 0, 64, 50
2, 140319, Control_c, 0, 64, 26
2, 140337, Control_c, 0, 64, 0
2, 140395, Control_c, 0, 64, 9
2, 140414, Control_c, 0, 64, 39
2, 140434, Control_c, 0, 64, 52
2, 140453, Control_c, 0, 64, 58
2, 140472, Control_c, 0, 64, 61
2, 140491, Control_c, 0, 64, 63
2, 140511, Control_c, 0, 64, 65
2, 140529, Control_c, 0, 64, 66
2, 140549, Control_c, 0, 64, 69
2, 140568, Control_c, 0, 64, 72
2, 140588, Control_c, 0, 64, 76
2, 140606, Control_c, 0, 64, 82
2, 140608, Note_on_c, 0, 61, 0
2, 140615, Note_on_c, 0, 66, 49
2, 140626, Control_c, 0, 64, 91
2, 140645, Control_c, 0, 64, 105
2, 140663, Control_c, 0, 64, 127
2, 140782, Note_on_c, 0, 54, 0
2, 140791, Note_on_c, 0, 66, 0
2, 141259, Note_on_c, 0, 63, 37
2, 141306, Note_on_c, 0, 57, 30
2, 141336, Control_c, 0, 64, 96
2, 141355, Control_c, 0, 64, 76
2, 141374, Control_c, 0, 64, 64
2, 141394, Control_c, 0, 64, 58
2, 141413, Control_c, 0, 64, 52
2, 141432, Control_c, 0, 64, 43
2, 141451, Control_c, 0, 64, 27
2, 141471, Control_c, 0, 64, 0
2, 141509, Control_c, 0, 64, 21
2, 141528, Control_c, 0, 64, 43
2, 141548, Control_c, 0, 64, 57
2, 141566, Control_c, 0, 64, 61
2, 141585, Note_on_c, 0, 69, 0
2, 141586, Control_c, 0, 64, 63
2, 141605, Control_c, 0, 64, 65
2, 141623, Control_c, 0, 64, 66
2, 141643, Control_c, 0, 64, 69
2, 141662, Control_c, 0, 64, 73
2, 141683, Control_c, 0, 64, 77
2, 141701, Control_c, 0, 64, 82
2, 141721, Control_c, 0, 64, 91
2, 141740, Control_c, 0, 64, 105
2, 141759, Control_c, 0, 64, 127
2, 141979, Note_on_c, 0, 73, 0
2, 142237, Note_on_c, 0, 72, 44
2, 142392, Control_c, 0, 64, 121
2, 142411, Control_c, 0, 64, 95
2, 142431, Control_c, 0, 64, 76
2, 142449, Control_c, 0, 64, 65
2, 142469, Control_c, 0, 64, 57
2, 142488, Control_c, 0, 64, 51
2, 142508, Control_c, 0, 64, 49
2, 142526, Control_c, 0, 64, 48
2, 142546, Control_c, 0, 64, 49
2, 142583, Control_c, 0, 64, 50
2, 142603, Control_c, 0, 64, 53
2, 142622, Control_c, 0, 64, 58
2, 142642, Control_c, 0, 64, 62
2, 142660, Control_c, 0, 64, 64
2, 142680, Control_c, 0, 64, 67
2, 142699, Control_c, 0, 64, 70
2, 142719, Control_c, 0, 64, 75
2, 142737, Control_c, 0, 64, 81
2, 142757, Control_c, 0, 64, 86
2, 142776, Control_c, 0, 64, 91
2, 142795, Control_c, 0, 64, 96
2, 142814, Control_c, 0, 64, 108
2, 142835, Control_c, 0, 64, 127
2, 142959, Note_on_c, 0, 57, 0
2, 143013, Note_on_c, 0, 63, 0
2, 143233, Note_on_c, 0, 72, 0
2, 144253, Note_on_c, 0, 73, 47
2, 144295, Note_on_c, 0, 56, 33
2, 144296, Note_on_c, 0, 68, 33
2, 144321, Note_on_c, 0, 65, 22
2, 144429, Control_c, 0, 64, 112
2, 144447, Control_c, 0, 64, 99
2, 144467, Control_c, 0, 64, 90
2, 144486, Control_c, 0, 64, 81
2, 144504, Control_c, 0, 64, 73
2, 144524, Control_c, 0, 64, 67
2, 144543, Control_c, 0, 64, 65
2, 144563, Control_c, 0, 64, 64
2, 144581, Control_c, 0, 64, 63
2, 144601, Control_c, 0, 64, 62
2, 144620, Control_c, 0, 64, 61
2, 144639, Control_c, 0, 64, 57
2, 144658, Control_c, 0, 64, 50
2, 144678, Control_c, 0, 64, 41
2, 144697, Control_c, 0, 64, 34
2, 144716, Control_c, 0, 64, 29
2, 144735, Control_c, 0, 64, 27
2, 144755, Control_c, 0, 64, 24
2, 144773, Control_c, 0, 64, 19
2, 144793, Control_c, 0, 64, 0
2, 145023, Control_c, 0, 64, 9
2, 145043, Control_c, 0, 64, 27
2, 145061, Control_c, 0, 64, 41
2, 145081, Control_c, 0, 64, 52
2, 145100, Control_c, 0, 64, 56
2, 145119, Control_c, 0, 64, 58
2, 145138, Control_c, 0, 64, 59
2, 145158, Control_c, 0, 64, 61
2, 145177, Control_c, 0, 64, 62
2, 145196, Control_c, 0, 64, 63
2, 145215, Control_c, 0, 64, 63
2, 145235, Control_c, 0, 64, 64
2, 145253, Control_c, 0, 64, 65
2, 145273, Control_c, 0, 64, 67
2, 145292, Control_c, 0, 64, 68
2, 145312, Control_c, 0, 64, 70
2, 145330, Control_c, 0, 64, 72
2, 145350, Control_c, 0, 64, 74
2, 145369, Control_c, 0, 64, 76
2, 145389, Control_c, 0, 64, 77
2, 145407, Control_c, 0, 64, 80
2, 145427, Control_c, 0, 64, 84
2, 145446, Control_c, 0, 64, 88
2, 145464, Control_c, 0, 64, 92
2, 145484, Control_c, 0, 64, 97
2, 145503, Control_c, 0, 64, 104
2, 145523, Control_c, 0, 64, 110
2, 145541, Control_c, 0, 64, 121
2, 145561, Control_c, 0, 64, 127
2, 146618, Note_on_c, 0, 49, 0
2, 146779, Note_on_c, 0, 65, 0
2, 147097, Note_on_c, 0, 56, 0
2, 147114, Note_on_c, 0, 68, 0
2, 147115, Note_on_c, 0, 73, 0
2, 147268, Control_c, 0, 64, 123
2, 147287, Control_c, 0, 64, 117
2, 147307, Control_c, 0, 64, 116
2, 147364, Control_c, 0, 64, 115
2, 147383, Control_c, 0, 64, 112
2, 147402, Control_c, 0, 64, 110
2, 147421, Control_c, 0, 64, 109
2, 147459, Control_c, 0, 64, 108
2, 147479, Control_c, 0, 64, 107
2, 147498, Control_c, 0, 64, 104
2, 147518, Control_c, 0, 64, 102
2, 147556, Control_c, 0, 64, 102
2, 147594, Control_c, 0, 64, 101
2, 147613, Control_c, 0, 64, 99
2, 147633, Control_c, 0, 64, 97
2, 147710, Control_c, 0, 64, 97
2, 147729, Control_c, 0, 64, 96
2, 147748, Control_c, 0, 64, 95
2, 147767, Control_c, 0, 64, 95
2, 147824, Control_c, 0, 64, 94
2, 147844, Control_c, 0, 64, 91
2, 147863, Control_c, 0, 64, 90
2, 147959, Control_c, 0, 64, 90
2, 147978, Control_c, 0, 64, 89
2, 148036, Control_c, 0, 64, 88
2, 148055, Control_c, 0, 64, 87
2, 148074, Control_c, 0, 64, 86
2, 148151, Control_c, 0, 64, 86
2, 148170, Control_c, 0, 64, 85
2, 148190, Control_c, 0, 64, 83
2, 148267, Control_c, 0, 64, 83
2, 148285, Control_c, 0, 64, 82
2, 148304, Control_c, 0, 64, 82
2, 148381, Control_c, 0, 64, 81
2, 148459, Control_c, 0, 64, 81
2, 148517, Control_c, 0, 64, 79
2, 148536, Control_c, 0, 64, 78
2, 148613, Control_c, 0, 64, 78
2, 148651, Control_c, 0, 64, 77
2, 148748, Control_c, 0, 64, 77
2, 148823, Control_c, 0, 64, 76
2, 148882, Control_c, 0, 64, 76
2, 148977, Control_c, 0, 64, 75
2, 148997, Control_c, 0, 64, 74
2, 149112, Control_c, 0, 64, 74
2, 149228, Control_c, 0, 64, 73
2, 149246, Control_c, 0, 64, 72
2, 149362, Control_c, 0, 64, 72
2, 149400, Control_c, 0, 64, 71
2, 149610, Control_c, 0, 64, 71
2, 149630, Control_c, 0, 64, 70
2, 149783, Control_c, 0, 64, 70
2, 149821, Control_c, 0, 64, 69
2, 149918, Control_c, 0, 64, 69
2, 149956, Control_c, 0, 64, 68
2, 150033, Control_c, 0, 64, 68
2, 150071, Control_c, 0, 64, 67
2, 150167, Control_c, 0, 64, 67
2, 150205, Control_c, 0, 64, 66
2, 150378, Control_c, 0, 64, 66
2, 150762, Control_c, 0, 64, 65
2, 150916, Control_c, 0, 64, 65
2, 151050, Control_c, 0, 64, 64
2, 151165, Control_c, 0, 64, 64
2, 151204, Control_c, 0, 64, 63
2, 151223, Control_c, 0, 64, 63
2, 151282, Control_c, 0, 64, 62
2, 151300, Control_c, 0, 64, 62
2, 151320, Control_c, 0, 64, 61
2, 151339, Control_c, 0, 64, 61
2, 151359, Control_c, 0, 64, 60
2, 151377, Control_c, 0, 64, 59
2, 151397, Control_c, 0, 64, 58
2, 151416, Control_c, 0, 64, 56
2, 151435, Control_c, 0, 64, 56
2, 151454, Control_c, 0, 64, 55
2, 151474, Control_c, 0, 64, 55
2, 151493, Control_c, 0, 64, 54
2, 151512, Control_c, 0, 64, 54
2, 151551, Control_c, 0, 64, 53
2, 151569, Control_c, 0, 64, 52
2, 151589, Control_c, 0, 64, 51
2, 151608, Control_c, 0, 64, 49
2, 151628, Control_c, 0, 64, 47
2, 151646, Control_c, 0, 64, 45
2, 151665, Control_c, 0, 64, 44
2, 151685, Control_c, 0, 64, 43
2, 151703, Control_c, 0, 64, 42
2, 151723, Control_c, 0, 64, 39
2, 151742, Control_c, 0, 64, 38
2, 151762, Control_c, 0, 64, 37
2, 151780, Control_c, 0, 64, 36
2, 151800, Control_c, 0, 64, 36
2, 151819, Control_c, 0, 64, 35
2, 151839, Control_c, 0, 64, 33
2, 151857, Control_c, 0, 64, 32
2, 151877, Control_c, 0, 64, 31
2, 152108, Control_c, 0, 64, 32
2, 152145, Control_c, 0, 64, 32
2, 152183, Control_c, 0, 64, 33
2, 152203, Control_c, 0, 64, 34
2, 152243, Control_c, 0, 64, 34
2, 152281, Control_c, 0, 64, 35
2, 152300, Control_c, 0, 64, 35
2, 152319, Control_c, 0, 64, 36
2, 152358, Control_c, 0, 64, 36
2, 152435, Control_c, 0, 64, 37
2, 152473, Control_c, 0, 64, 37
2, 152492, Control_c, 0, 64, 38
2, 152530, Control_c, 0, 64, 38
2, 152550, Control_c, 0, 64, 39
2, 152626, Control_c, 0, 64, 39
2, 152664, Control_c, 0, 64, 40
2, 152799, Control_c, 0, 64, 40
2, 152838, Control_c, 0, 64, 41
2, 152972, Control_c, 0, 64, 41
2, 153020, Note_on_c, 0, 49, 48
2, 153201, Control_c, 0, 64, 41
2, 153258, Control_c, 0, 64, 40
2, 153296, Control_c, 0, 64, 40
2, 153335, Control_c, 0, 64, 39
2, 153373, Control_c, 0, 64, 38
2, 153450, Control_c, 0, 64, 38
2, 153489, Control_c, 0, 64, 37
2, 153546, Control_c, 0, 64, 37
2, 153604, Control_c, 0, 64, 36
2, 153642, Control_c, 0, 64, 36
2, 154564, Control_c, 0, 64, 36
2, 155082, Control_c, 0, 64, 37
2, 155198, Control_c, 0, 64, 37
2, 155408, Control_c, 0, 64, 38
2, 155561, Control_c, 0, 64, 38
2, 155657, Note_on_c, 0, 48, 49
2, 155734, Note_on_c, 0, 49, 0
2, 156856, Note_on_c, 0, 52, 51
2, 157052, Note_on_c, 0, 48, 0
2, 157560, Control_c, 0, 64, 38
2, 157617, Control_c, 0, 64, 37
2, 157848, Control_c, 0, 64, 37
2, 158208, Note_on_c, 0, 51, 41
2, 158347, Control_c, 0, 64, 36
2, 158393, Note_on_c, 0, 52, 0
2, 158462, Control_c, 0, 64, 36
2, 158500, Control_c, 0, 64, 34
2, 158520, Control_c, 0, 64, 33
2, 158539, Control_c, 0, 64, 31
2, 158559, Control_c, 0, 64, 30
2, 158577, Control_c, 0, 64, 28
2, 158597, Control_c, 0, 64, 24
2, 158616, Control_c, 0, 64, 17
2, 158635, Control_c, 0, 64, 0
2, 160936, Note_on_c, 0, 56, 57
2, 160977, Note_on_c, 0, 49, 41
2, 161123, Note_on_c, 0, 51, 0
2, 161570, Note_on_c, 0, 51, 41
2, 161695, Note_on_c, 0, 49, 0
2, 162186, Note_on_c, 0, 51, 0
2, 162191, Note_on_c, 0, 52, 39
2, 163394, Note_on_c, 0, 55, 52
2, 163493, Note_on_c, 0, 56, 0
2, 163959, Note_on_c, 0, 51, 50
2, 164026, Note_on_c, 0, 52, 0
2, 164195, Note_on_c, 0, 51, 0
2, 164218, Note_on_c, 0, 49, 60
2, 164521, Note_on_c, 0, 59, 65
2, 164553, Note_on_c, 0, 51, 31
2, 164608, Note_on_c, 0, 49, 0
2, 164693, Note_on_c, 0, 55, 0
2, 165077, Note_on_c, 0, 56, 47
2, 165150, Note_on_c, 0, 51, 0
2, 165654, Note_on_c, 0, 58, 54
2, 165697, Note_on_c, 0, 49, 39
2, 165813, Note_on_c, 0, 59, 0
2, 165894, Note_on_c, 0, 56, 0
2, 166243, Note_on_c, 0, 51, 40
2, 166385, Note_on_c, 0, 49, 0
2, 166444, Note_on_c, 0, 51, 0
2, 166492, Note_on_c, 0, 52, 49
2, 166808, Note_on_c, 0, 52, 0
2, 166853, Note_on_c, 0, 54, 34
2, 167024, Control_c, 0, 64, 9
2, 167044, Control_c, 0, 64, 15
2, 167063, Control_c, 0, 64, 22
2, 167082, Control_c, 0, 64, 26
2, 167101, Control_c, 0, 64, 29
2, 167121, Control_c, 0, 64, 32
2, 167139, Control_c, 0, 64, 36
2, 167159, Control_c, 0, 64, 39
2, 167178, Control_c, 0, 64, 41
2, 167198, Control_c, 0, 64, 43
2, 167216, Control_c, 0, 64, 44
2, 167236, Control_c, 0, 64, 47
2, 167255, Control_c, 0, 64, 51
2, 167274, Control_c, 0, 64, 55
2, 167293, Control_c, 0, 64, 57
2, 167313, Control_c, 0, 64, 60
2, 167332, Control_c, 0, 64, 62
2, 167351, Control_c, 0, 64, 63
2, 167370, Control_c, 0, 64, 64
2, 167390, Control_c, 0, 64, 65
2, 167409, Control_c, 0, 64, 66
2, 167427, Control_c, 0, 64, 68
2, 167447, Control_c, 0, 64, 70
2, 167466, Control_c, 0, 64, 73
2, 167485, Control_c, 0, 64, 76
2, 167504, Control_c, 0, 64, 79
2, 167524, Control_c, 0, 64, 81
2, 167543, Control_c, 0, 64, 83
2, 167562, Control_c, 0, 64, 85
2, 167562, Control_c, 0, 67, 124
2, 167581, Control_c, 0, 64, 88
2, 167581, Control_c, 0, 67, 120
2, 167602, Control_c, 0, 64, 91
2, 167602, Control_c, 0, 67, 116
2, 167620, Control_c, 0, 64, 94
2, 167620, Control_c, 0, 67, 113
2, 167640, Control_c, 0, 64, 97
2, 167640, Control_c, 0, 67, 109
2, 167659, Control_c, 0, 64, 100
2, 167659, Control_c, 0, 67, 104
2, 167679, Control_c, 0, 64, 102
2, 167679, Control_c, 0, 67, 97
2, 167697, Control_c, 0, 64, 104
2, 167697, Control_c, 0, 67, 87
2, 167717, Control_c, 0, 64, 107
2, 167717, Control_c, 0, 67, 78
2, 167736, Control_c, 0, 64, 110
2, 167736, Control_c, 0, 67, 70
2, 167755, Control_c, 0, 64, 113
2, 167755, Control_c, 0, 67, 63
2, 167774, Control_c, 0, 64, 116
2, 167774, Control_c, 0, 67, 59
2, 167794, Control_c, 0, 64, 121
2, 167794, Control_c, 0, 67, 56
2, 167813, Control_c, 0, 64, 127
2, 167813, Control_c, 0, 67, 54
2, 167832, Control_c, 0, 67, 51
2, 167851, Control_c, 0, 67, 48
2, 167871, Control_c, 0, 67, 44
2, 167889, Control_c, 0, 67, 41
2, 167908, Control_c, 0, 67, 37
2, 167928, Control_c, 0, 67, 35
2, 167947, Control_c, 0, 67, 33
2, 167966, Control_c, 0, 67, 30
2, 167985, Control_c, 0, 67, 27
2, 168005, Control_c, 0, 67, 24
2, 168024, Control_c, 0, 67, 20
2, 168043, Control_c, 0, 67, 17
2, 168062, Control_c, 0, 67, 14
2, 168082, Control_c, 0, 67, 12
2, 168100, Control_c, 0, 67, 8
2, 168120, Control_c, 0, 67, 0
2, 168120, Note_on_c, 0, 56, 45
2, 168177, Control_c, 0, 64, 110
2, 168197, Control_c, 0, 64, 101
2, 168216, Control_c, 0, 64, 98
2, 168231, Note_on_c, 0, 58, 0
2, 168235, Control_c, 0, 64, 94
2, 168254, Control_c, 0, 64, 87
2, 168274, Control_c, 0, 64, 78
2, 168293, Control_c, 0, 64, 70
2, 168312, Control_c, 0, 64, 63
2, 168331, Control_c, 0, 64, 51
2, 168351, Control_c, 0, 64, 34
2, 168369, Control_c, 0, 64, 29
2, 168408, Control_c, 0, 64, 31
2, 168427, Control_c, 0, 64, 31
2, 168446, Control_c, 0, 64, 23
2, 168465, Control_c, 0, 64, 0
2, 168562, Control_c, 0, 64, 9
2, 168579, Control_c, 0, 64, 35
2, 168598, Control_c, 0, 64, 46
2, 168617, Control_c, 0, 64, 52
2, 168637, Control_c, 0, 64, 55
2, 168655, Control_c, 0, 64, 57
2, 168675, Control_c, 0, 64, 59
2, 168692, Note_on_c, 0, 52, 43
2, 168694, Control_c, 0, 64, 62
2, 168706, Note_on_c, 0, 54, 0
2, 168714, Control_c, 0, 64, 64
2, 168732, Control_c, 0, 64, 65
2, 168749, Control_c, 0, 64, 68
2, 168769, Control_c, 0, 64, 71
2, 168788, Control_c, 0, 64, 77
2, 168807, Control_c, 0, 64, 85
2, 168826, Control_c, 0, 64, 91
2, 168846, Control_c, 0, 64, 98
2, 168864, Control_c, 0, 64, 108
2, 168884, Control_c, 0, 64, 127
2, 169299, Note_on_c, 0, 61, 64
2, 169324, Note_on_c, 0, 56, 0
2, 169330, Note_on_c, 0, 51, 40
2, 169357, Note_on_c, 0, 57, 38
2, 169421, Control_c, 0, 64, 110
2, 169441, Control_c, 0, 64, 99
2, 169460, Control_c, 0, 64, 92
2, 169479, Control_c, 0, 64, 86
2, 169498, Control_c, 0, 64, 79
2, 169518, Control_c, 0, 64, 72
2, 169532, Note_on_c, 0, 52, 0
2, 169539, Control_c, 0, 64, 66
2, 169558, Control_c, 0, 64, 62
2, 169577, Control_c, 0, 64, 57
2, 169597, Control_c, 0, 64, 57
2, 169657, Control_c, 0, 64, 56
2, 169676, Control_c, 0, 64, 55
2, 169695, Control_c, 0, 64, 54
2, 169712, Control_c, 0, 64, 52
2, 169732, Control_c, 0, 64, 51
2, 169751, Control_c, 0, 64, 49
2, 169770, Control_c, 0, 64, 48
2, 169789, Control_c, 0, 64, 46
2, 169809, Control_c, 0, 64, 44
2, 169827, Control_c, 0, 64, 42
2, 169847, Control_c, 0, 64, 40
2, 169866, Control_c, 0, 64, 39
2, 169879, Note_on_c, 0, 51, 0
2, 169885, Note_on_c, 0, 49, 53
2, 169886, Control_c, 0, 64, 38
2, 169924, Control_c, 0, 64, 37
2, 169943, Control_c, 0, 64, 36
2, 169962, Control_c, 0, 64, 36
2, 170000, Control_c, 0, 64, 36
2, 170020, Control_c, 0, 64, 37
2, 170038, Control_c, 0, 64, 38
2, 170058, Control_c, 0, 64, 38
2, 170077, Control_c, 0, 64, 39
2, 170115, Control_c, 0, 64, 39
2, 170135, Control_c, 0, 64, 40
2, 170212, Control_c, 0, 64, 41
2, 170231, Control_c, 0, 64, 42
2, 170250, Control_c, 0, 64, 43
2, 170269, Control_c, 0, 64, 43
2, 170289, Control_c, 0, 64, 44
2, 170404, Control_c, 0, 64, 44
2, 170442, Control_c, 0, 64, 45
2, 170461, Control_c, 0, 64, 45
2, 170490, Note_on_c, 0, 60, 56
2, 170524, Note_on_c, 0, 51, 19
2, 170558, Note_on_c, 0, 61, 0
2, 170568, Note_on_c, 0, 57, 0
2, 170626, Note_on_c, 0, 49, 0
2, 170693, Control_c, 0, 64, 45
2, 170711, Control_c, 0, 64, 44
2, 170731, Control_c, 0, 64, 43
2, 170750, Control_c, 0, 64, 42
2, 170770, Control_c, 0, 64, 42
2, 170788, Control_c, 0, 64, 40
2, 170808, Control_c, 0, 64, 39
2, 170827, Control_c, 0, 64, 37
2, 170847, Control_c, 0, 64, 35
2, 170865, Control_c, 0, 64, 34
2, 170885, Control_c, 0, 64, 32
2, 170904, Control_c, 0, 64, 32
2, 170923, Control_c, 0, 64, 32
2, 170942, Control_c, 0, 64, 35
2, 170962, Control_c, 0, 64, 40
2, 170981, Control_c, 0, 64, 45
2, 170999, Control_c, 0, 64, 49
2, 171019, Control_c, 0, 64, 53
2, 171038, Control_c, 0, 64, 55
2, 171057, Control_c, 0, 64, 57
2, 171076, Control_c, 0, 64, 59
2, 171087, Note_on_c, 0, 56, 57
2, 171096, Control_c, 0, 64, 61
2, 171115, Control_c, 0, 64, 62
2, 171134, Control_c, 0, 64, 63
2, 171153, Control_c, 0, 64, 65
2, 171173, Control_c, 0, 64, 67
2, 171191, Control_c, 0, 64, 71
2, 171211, Control_c, 0, 64, 77
2, 171230, Control_c, 0, 64, 86
2, 171250, Control_c, 0, 64, 95
2, 171268, Control_c, 0, 64, 105
2, 171288, Control_c, 0, 64, 127
2, 171359, Note_on_c, 0, 54, 68
2, 171371, Note_on_c, 0, 56, 0
2, 171677, Note_on_c, 0, 64, 69
2, 171692, Note_on_c, 0, 56, 50
2, 171701, Note_on_c, 0, 49, 37
2, 171724, Note_on_c, 0, 54, 0
2, 171725, Note_on_c, 0, 60, 0
2, 171749, Control_c, 0, 64, 110
2, 171769, Control_c, 0, 64, 98
2, 171780, Note_on_c, 0, 51, 0
2, 171788, Control_c, 0, 64, 84
2, 171807, Control_c, 0, 64, 74
2, 171826, Control_c, 0, 64, 67
2, 171846, Control_c, 0, 64, 63
2, 171865, Control_c, 0, 64, 58
2, 171884, Control_c, 0, 64, 55
2, 171903, Control_c, 0, 64, 53
2, 171923, Control_c, 0, 64, 50
2, 171942, Control_c, 0, 64, 45
2, 171960, Control_c, 0, 64, 36
2, 171980, Control_c, 0, 64, 13
2, 171999, Control_c, 0, 64, 0
2, 172211, Control_c, 0, 64, 22
2, 172229, Control_c, 0, 64, 38
2, 172243, Note_on_c, 0, 61, 56
2, 172249, Control_c, 0, 64, 47
2, 172268, Control_c, 0, 64, 52
2, 172287, Control_c, 0, 64, 55
2, 172306, Control_c, 0, 64, 58
2, 172326, Control_c, 0, 64, 61
2, 172345, Control_c, 0, 64, 64
2, 172364, Control_c, 0, 64, 66
2, 172383, Control_c, 0, 64, 70
2, 172404, Control_c, 0, 64, 74
2, 172422, Control_c, 0, 64, 81
2, 172441, Control_c, 0, 64, 88
2, 172461, Control_c, 0, 64, 94
2, 172480, Control_c, 0, 64, 98
2, 172499, Control_c, 0, 64, 106
2, 172518, Control_c, 0, 64, 127
2, 172607, Note_on_c, 0, 56, 0
2, 172811, Note_on_c, 0, 64, 0
2, 172864, Note_on_c, 0, 63, 60
2, 172898, Note_on_c, 0, 54, 34
2, 172941, Control_c, 0, 64, 107
2, 172960, Control_c, 0, 64, 92
2, 172979, Control_c, 0, 64, 82
2, 172998, Control_c, 0, 64, 75
2, 172999, Note_on_c, 0, 54, 0
2, 172999, Note_on_c, 0, 54, 3
2, 173018, Control_c, 0, 64, 69
2, 173023, Note_on_c, 0, 61, 0
2, 173036, Control_c, 0, 64, 65
2, 173056, Control_c, 0, 64, 63
2, 173075, Control_c, 0, 64, 59
2, 173095, Control_c, 0, 64, 55
2, 173113, Control_c, 0, 64, 49
2, 173133, Control_c, 0, 64, 43
2, 173152, Control_c, 0, 64, 35
2, 173172, Control_c, 0, 64, 27
2, 173190, Control_c, 0, 64, 17
2, 173210, Control_c, 0, 64, 0
2, 173399, Note_on_c, 0, 54, 0
2, 173420, Note_on_c, 0, 56, 52
2, 173436, Note_on_c, 0, 47, 34
2, 173532, Note_on_c, 0, 49, 0
2, 173652, Note_on_c, 0, 56, 0
2, 173697, Note_on_c, 0, 57, 56
2, 173993, Note_on_c, 0, 59, 49
2, 174001, Note_on_c, 0, 57, 0
2, 174021, Note_on_c, 0, 45, 32
2, 174101, Note_on_c, 0, 47, 0
2, 174555, Note_on_c, 0, 44, 41
2, 174561, Note_on_c, 0, 45, 0
2, 175170, Note_on_c, 0, 61, 47
2, 175197, Note_on_c, 0, 44, 0
2, 175199, Note_on_c, 0, 45, 31
2, 175270, Note_on_c, 0, 63, 0
2, 175274, Note_on_c, 0, 59, 0
2, 175552, Control_c, 0, 64, 29
2, 175572, Control_c, 0, 64, 43
2, 175590, Control_c, 0, 64, 50
2, 175607, Control_c, 0, 64, 55
2, 175626, Control_c, 0, 64, 57
2, 175645, Control_c, 0, 64, 60
2, 175664, Control_c, 0, 64, 62
2, 175684, Control_c, 0, 64, 64
2, 175703, Control_c, 0, 64, 65
2, 175722, Control_c, 0, 64, 68
2, 175741, Control_c, 0, 64, 71
2, 175744, Note_on_c, 0, 57, 52
2, 175761, Control_c, 0, 64, 78
2, 175779, Control_c, 0, 64, 85
2, 175799, Control_c, 0, 64, 91
2, 175818, Control_c, 0, 64, 98
2, 175838, Control_c, 0, 64, 108
2, 175856, Control_c, 0, 64, 127
2, 176349, Note_on_c, 0, 61, 0
2, 176350, Note_on_c, 0, 66, 62
2, 176383, Note_on_c, 0, 56, 45
2, 176401, Note_on_c, 0, 46, 34
2, 176430, Note_on_c, 0, 57, 0
2, 176470, Control_c, 0, 64, 106
2, 176490, Control_c, 0, 64, 86
2, 176509, Control_c, 0, 64, 75
2, 176529, Control_c, 0, 64, 69
2, 176547, Control_c, 0, 64, 64
2, 176548, Note_on_c, 0, 45, 0
2, 176567, Control_c, 0, 64, 61
2, 176586, Control_c, 0, 64, 58
2, 176605, Control_c, 0, 64, 55
2, 176624, Control_c, 0, 64, 52
2, 176644, Control_c, 0, 64, 49
2, 176663, Control_c, 0, 64, 46
2, 176682, Control_c, 0, 64, 43
2, 176701, Control_c, 0, 64, 39
2, 176721, Control_c, 0, 64, 32
2, 176739, Control_c, 0, 64, 26
2, 176759, Control_c, 0, 64, 19
2, 176778, Control_c, 0, 64, 11
2, 176798, Control_c, 0, 64, 0
2, 176953, Note_on_c, 0, 54, 53
2, 177052, Note_on_c, 0, 56, 0
2, 177542, Note_on_c, 0, 56, 59
2, 177574, Note_on_c, 0, 48, 26
2, 177708, Note_on_c, 0, 66, 0
2, 177770, Note_on_c, 0, 46, 0
2, 177807, Note_on_c, 0, 54, 0
2, 178142, Note_on_c, 0, 64, 61
2, 178179, Control_c, 0, 64, 11
2, 178199, Control_c, 0, 64, 36
2, 178218, Control_c, 0, 64, 48
2, 178238, Control_c, 0, 64, 54
2, 178256, Control_c, 0, 64, 57
2, 178276, Control_c, 0, 64, 59
2, 178295, Control_c, 0, 64, 61
2, 178314, Control_c, 0, 64, 63
2, 178333, Control_c, 0, 64, 65
2, 178350, Control_c, 0, 64, 69
2, 178370, Control_c, 0, 64, 77
2, 178389, Control_c, 0, 64, 87
2, 178408, Control_c, 0, 64, 99
2, 178427, Control_c, 0, 64, 116
2, 178427, Note_on_c, 0, 56, 0
2, 178447, Control_c, 0, 64, 127
2, 178614, Note_on_c, 0, 64, 0
2, 178744, Note_on_c, 0, 63, 58
2, 178756, Note_on_c, 0, 49, 40
2, 178793, Control_c, 0, 64, 90
2, 178797, Note_on_c, 0, 54, 40
2, 178811, Control_c, 0, 64, 75
2, 178830, Control_c, 0, 64, 67
2, 178834, Note_on_c, 0, 48, 0
2, 178850, Control_c, 0, 64, 59
2, 178869, Control_c, 0, 64, 41
2, 178888, Control_c, 0, 64, 0
2, 179004, Control_c, 0, 64, 9
2, 179022, Control_c, 0, 64, 39
2, 179042, Control_c, 0, 64, 52
2, 179061, Control_c, 0, 64, 58
2, 179080, Control_c, 0, 64, 60
2, 179099, Control_c, 0, 64, 62
2, 179099, Note_on_c, 0, 54, 0
2, 179119, Control_c, 0, 64, 64
2, 179138, Control_c, 0, 64, 67
2, 179157, Control_c, 0, 64, 72
2, 179176, Control_c, 0, 64, 81
2, 179196, Control_c, 0, 64, 92
2, 179214, Control_c, 0, 64, 100
2, 179234, Control_c, 0, 64, 108
2, 179253, Control_c, 0, 64, 127
2, 179324, Note_on_c, 0, 63, 0
2, 179349, Control_c, 0, 64, 108
2, 179349, Note_on_c, 0, 61, 54
2, 179368, Control_c, 0, 64, 97
2, 179379, Note_on_c, 0, 52, 35
2, 179387, Control_c, 0, 64, 89
2, 179407, Control_c, 0, 64, 77
2, 179425, Control_c, 0, 64, 66
2, 179445, Control_c, 0, 64, 48
2, 179464, Control_c, 0, 64, 0
2, 179541, Control_c, 0, 64, 17
2, 179560, Control_c, 0, 64, 46
2, 179579, Control_c, 0, 64, 55
2, 179599, Control_c, 0, 64, 57
2, 179618, Control_c, 0, 64, 60
2, 179637, Control_c, 0, 64, 62
2, 179653, Note_on_c, 0, 52, 0
2, 179656, Control_c, 0, 64, 63
2, 179676, Control_c, 0, 64, 66
2, 179694, Control_c, 0, 64, 69
2, 179714, Control_c, 0, 64, 74
2, 179733, Control_c, 0, 64, 82
2, 179735, Note_on_c, 0, 61, 0
2, 179753, Control_c, 0, 64, 93
2, 179771, Control_c, 0, 64, 103
2, 179790, Control_c, 0, 64, 114
2, 179810, Control_c, 0, 64, 127
2, 179864, Note_on_c, 0, 49, 0
2, 180039, Note_on_c, 0, 61, 47
2, 180092, Note_on_c, 0, 51, 29
2, 180095, Note_on_c, 0, 44, 33
2, 180099, Control_c, 0, 64, 107
2, 180118, Control_c, 0, 64, 91
2, 180137, Control_c, 0, 64, 78
2, 180157, Control_c, 0, 64, 69
2, 180175, Control_c, 0, 64, 64
2, 180195, Control_c, 0, 64, 61
2, 180214, Control_c, 0, 64, 60
2, 180234, Control_c, 0, 64, 59
2, 180252, Control_c, 0, 64, 59
2, 180269, Control_c, 0, 64, 57
2, 180289, Control_c, 0, 64, 55
2, 180308, Control_c, 0, 64, 53
2, 180327, Control_c, 0, 64, 52
2, 180346, Control_c, 0, 64, 51
2, 180366, Control_c, 0, 64, 50
2, 180384, Control_c, 0, 64, 49
2, 180404, Control_c, 0, 64, 48
2, 180423, Control_c, 0, 64, 47
2, 180443, Control_c, 0, 64, 46
2, 180461, Control_c, 0, 64, 46
2, 180481, Control_c, 0, 64, 45
2, 180500, Control_c, 0, 64, 44
2, 180519, Control_c, 0, 64, 44
2, 180538, Control_c, 0, 64, 43
2, 180558, Control_c, 0, 64, 42
2, 180577, Control_c, 0, 64, 41
2, 180596, Control_c, 0, 64, 40
2, 180635, Control_c, 0, 64, 40
2, 180639, Note_on_c, 0, 45, 48
2, 180654, Control_c, 0, 64, 39
2, 180706, Note_on_c, 0, 44, 0
2, 180788, Control_c, 0, 64, 39
2, 180846, Control_c, 0, 64, 38
2, 180999, Control_c, 0, 64, 38
2, 181117, Control_c, 0, 64, 38
2, 181231, Note_on_c, 0, 68, 64
2, 181280, Note_on_c, 0, 51, 0
2, 181280, Note_on_c, 0, 59, 36
2, 181283, Note_on_c, 0, 47, 37
2, 181308, Control_c, 0, 64, 39
2, 181323, Note_on_c, 0, 45, 0
2, 181336, Note_on_c, 0, 61, 0
2, 181520, Control_c, 0, 64, 39
2, 181674, Control_c, 0, 64, 40
2, 181692, Control_c, 0, 64, 41
2, 181711, Control_c, 0, 64, 43
2, 181731, Control_c, 0, 64, 44
2, 181749, Control_c, 0, 64, 46
2, 181769, Control_c, 0, 64, 50
2, 181788, Control_c, 0, 64, 54
2, 181808, Control_c, 0, 64, 57
2, 181826, Control_c, 0, 64, 59
2, 181846, Control_c, 0, 64, 61
2, 181851, Note_on_c, 0, 50, 52
2, 181865, Control_c, 0, 64, 63
2, 181865, Note_on_c, 0, 59, 0
2, 181884, Control_c, 0, 64, 64
2, 181903, Control_c, 0, 64, 66
2, 181923, Control_c, 0, 64, 68
2, 181942, Control_c, 0, 64, 73
2, 181961, Control_c, 0, 64, 85
2, 181980, Control_c, 0, 64, 102
2, 182001, Control_c, 0, 64, 127
2, 182040, Note_on_c, 0, 47, 0
2, 182453, Note_on_c, 0, 65, 60
2, 182484, Note_on_c, 0, 61, 47
2, 182529, Note_on_c, 0, 49, 37
2, 182594, Control_c, 0, 64, 121
2, 182613, Control_c, 0, 64, 98
2, 182633, Control_c, 0, 64, 82
2, 182636, Note_on_c, 0, 68, 0
2, 182650, Note_on_c, 0, 50, 0
2, 182651, Control_c, 0, 64, 73
2, 182670, Control_c, 0, 64, 67
2, 182690, Control_c, 0, 64, 64
2, 182709, Control_c, 0, 64, 61
2, 182728, Control_c, 0, 64, 59
2, 182747, Control_c, 0, 64, 56
2, 182767, Control_c, 0, 64, 54
2, 182785, Control_c, 0, 64, 51
2, 182805, Control_c, 0, 64, 47
2, 182824, Control_c, 0, 64, 43
2, 182844, Control_c, 0, 64, 38
2, 182862, Control_c, 0, 64, 34
2, 182882, Control_c, 0, 64, 29
2, 182901, Control_c, 0, 64, 23
2, 182920, Control_c, 0, 64, 17
2, 182939, Control_c, 0, 64, 9
2, 182959, Control_c, 0, 64, 0
2, 183058, Note_on_c, 0, 45, 51
2, 183595, Note_on_c, 0, 45, 0
2, 183634, Note_on_c, 0, 69, 58
2, 183652, Note_on_c, 0, 66, 42
2, 183663, Note_on_c, 0, 44, 42
2, 183667, Note_on_c, 0, 65, 0
2, 184032, Control_c, 0, 64, 22
2, 184052, Control_c, 0, 64, 32
2, 184071, Control_c, 0, 64, 42
2, 184090, Control_c, 0, 64, 48
2, 184110, Control_c, 0, 64, 53
2, 184130, Control_c, 0, 64, 55
2, 184146, Note_on_c, 0, 44, 0
2, 184149, Control_c, 0, 64, 57
2, 184168, Control_c, 0, 64, 60
2, 184187, Control_c, 0, 64, 61
2, 184207, Control_c, 0, 64, 63
2, 184214, Note_on_c, 0, 42, 34
2, 184225, Control_c, 0, 64, 64
2, 184245, Control_c, 0, 64, 65
2, 184264, Control_c, 0, 64, 67
2, 184280, Note_on_c, 0, 49, 0
2, 184284, Control_c, 0, 64, 71
2, 184302, Control_c, 0, 64, 79
2, 184312, Note_on_c, 0, 61, 0
2, 184322, Control_c, 0, 64, 90
2, 184341, Control_c, 0, 64, 105
2, 184358, Note_on_c, 0, 66, 0
2, 184360, Control_c, 0, 64, 127
2, 184903, Note_on_c, 0, 68, 59
2, 184938, Note_on_c, 0, 69, 0
2, 184965, Note_on_c, 0, 49, 33
2, 185013, Control_c, 0, 64, 110
2, 185032, Control_c, 0, 64, 91
2, 185051, Control_c, 0, 64, 75
2, 185069, Note_on_c, 0, 42, 0
2, 185070, Control_c, 0, 64, 64
2, 185090, Control_c, 0, 64, 47
2, 185109, Control_c, 0, 64, 22
2, 185128, Control_c, 0, 64, 0
2, 185282, Control_c, 0, 64, 36
2, 185301, Control_c, 0, 64, 50
2, 185320, Control_c, 0, 64, 57
2, 185339, Control_c, 0, 64, 60
2, 185359, Control_c, 0, 64, 62
2, 185378, Control_c, 0, 64, 64
2, 185397, Control_c, 0, 64, 65
2, 185416, Control_c, 0, 64, 68
2, 185436, Control_c, 0, 64, 71
2, 185454, Control_c, 0, 64, 79
2, 185474, Control_c, 0, 64, 94
2, 185493, Control_c, 0, 64, 127
2, 185520, Note_on_c, 0, 64, 55
2, 185754, Note_on_c, 0, 64, 0
2, 186109, Note_on_c, 0, 68, 0
2, 186154, Note_on_c, 0, 73, 69
2, 186197, Note_on_c, 0, 66, 42
2, 186208, Note_on_c, 0, 45, 30
2, 186212, Note_on_c, 0, 63, 26
2, 186253, Note_on_c, 0, 49, 0
2, 186338, Control_c, 0, 64, 83
2, 186357, Control_c, 0, 64, 65
2, 186376, Control_c, 0, 64, 52
2, 186396, Control_c, 0, 64, 25
2, 186414, Control_c, 0, 64, 0
2, 186510, Control_c, 0, 64, 23
2, 186530, Control_c, 0, 64, 40
2, 186549, Control_c, 0, 64, 51
2, 186568, Control_c, 0, 64, 57
2, 186577, Note_on_c, 0, 63, 0
2, 186587, Control_c, 0, 64, 61
2, 186607, Control_c, 0, 64, 63
2, 186625, Control_c, 0, 64, 65
2, 186645, Control_c, 0, 64, 67
2, 186664, Control_c, 0, 64, 70
2, 186684, Control_c, 0, 64, 74
2, 186702, Control_c, 0, 64, 82
2, 186722, Control_c, 0, 64, 96
2, 186741, Control_c, 0, 64, 127
2, 186749, Note_on_c, 0, 61, 61
2, 186939, Note_on_c, 0, 73, 0
2, 186991, Note_on_c, 0, 61, 0
2, 187371, Note_on_c, 0, 72, 70
2, 187424, Note_on_c, 0, 66, 0
2, 187426, Note_on_c, 0, 63, 40
2, 187469, Control_c, 0, 64, 106
2, 187489, Control_c, 0, 64, 80
2, 187508, Control_c, 0, 64, 67
2, 187527, Control_c, 0, 64, 59
2, 187546, Control_c, 0, 64, 46
2, 187566, Control_c, 0, 64, 35
2, 187584, Control_c, 0, 64, 29
2, 187604, Control_c, 0, 64, 28
2, 187623, Control_c, 0, 64, 32
2, 187643, Control_c, 0, 64, 46
2, 187661, Control_c, 0, 64, 57
2, 187681, Control_c, 0, 64, 61
2, 187700, Control_c, 0, 64, 64
2, 187719, Control_c, 0, 64, 65
2, 187738, Control_c, 0, 64, 68
2, 187758, Control_c, 0, 64, 71
2, 187778, Control_c, 0, 64, 75
2, 187797, Control_c, 0, 64, 81
2, 187816, Control_c, 0, 64, 91
2, 187836, Control_c, 0, 64, 113
2, 187854, Control_c, 0, 64, 127
2, 187959, Note_on_c, 0, 63, 0
2, 187965, Note_on_c, 0, 44, 61
2, 188240, Note_on_c, 0, 45, 0
2, 188567, Note_on_c, 0, 76, 72
2, 188591, Note_on_c, 0, 73, 53
2, 188604, Note_on_c, 0, 72, 0
2, 188605, Note_on_c, 0, 68, 52
2, 188610, Note_on_c, 0, 42, 47
2, 188699, Control_c, 0, 64, 110
2, 188709, Note_on_c, 0, 44, 0
2, 188719, Control_c, 0, 64, 93
2, 188738, Control_c, 0, 64, 82
2, 188757, Control_c, 0, 64, 75
2, 188776, Control_c, 0, 64, 70
2, 188796, Control_c, 0, 64, 66
2, 188814, Control_c, 0, 64, 64
2, 188834, Control_c, 0, 64, 63
2, 188853, Control_c, 0, 64, 62
2, 188872, Control_c, 0, 64, 61
2, 188891, Control_c, 0, 64, 60
2, 188911, Control_c, 0, 64, 57
2, 188931, Control_c, 0, 64, 54
2, 188949, Control_c, 0, 64, 51
2, 188969, Control_c, 0, 64, 48
2, 188988, Control_c, 0, 64, 47
2, 189008, Control_c, 0, 64, 45
2, 189026, Control_c, 0, 64, 44
2, 189046, Control_c, 0, 64, 42
2, 189065, Control_c, 0, 64, 41
2, 189084, Control_c, 0, 64, 40
2, 189103, Control_c, 0, 64, 39
2, 189123, Control_c, 0, 64, 38
2, 189164, Note_on_c, 0, 42, 0
2, 189165, Note_on_c, 0, 40, 62
2, 189200, Control_c, 0, 64, 38
2, 189219, Control_c, 0, 64, 37
2, 189372, Control_c, 0, 64, 38
2, 189488, Control_c, 0, 64, 38
2, 189506, Control_c, 0, 64, 39
2, 189526, Control_c, 0, 64, 39
2, 189545, Control_c, 0, 64, 40
2, 189583, Control_c, 0, 64, 40
2, 189699, Control_c, 0, 64, 41
2, 189719, Control_c, 0, 64, 41
2, 189738, Control_c, 0, 64, 42
2, 189806, Note_on_c, 0, 75, 71
2, 189842, Note_on_c, 0, 42, 35
2, 189878, Note_on_c, 0, 73, 0
2, 189883, Note_on_c, 0, 76, 0
2, 189910, Note_on_c, 0, 40, 0
2, 189968, Control_c, 0, 64, 42
2, 190063, Control_c, 0, 64, 43
2, 190102, Control_c, 0, 64, 43
2, 190121, Control_c, 0, 64, 44
2, 190140, Control_c, 0, 64, 44
2, 190160, Control_c, 0, 64, 45
2, 190189, Note_on_c, 0, 68, 0
2, 190275, Control_c, 0, 64, 46
2, 190294, Control_c, 0, 64, 48
2, 190313, Control_c, 0, 64, 50
2, 190332, Control_c, 0, 64, 53
2, 190351, Control_c, 0, 64, 56
2, 190371, Control_c, 0, 64, 59
2, 190389, Control_c, 0, 64, 60
2, 190405, Note_on_c, 0, 69, 57
2, 190409, Control_c, 0, 64, 62
2, 190428, Control_c, 0, 64, 63
2, 190448, Control_c, 0, 64, 64
2, 190466, Control_c, 0, 64, 65
2, 190486, Control_c, 0, 64, 67
2, 190505, Control_c, 0, 64, 69
2, 190524, Control_c, 0, 64, 72
2, 190543, Control_c, 0, 64, 76
2, 190563, Control_c, 0, 64, 83
2, 190582, Control_c, 0, 64, 91
2, 190601, Control_c, 0, 64, 101
2, 190620, Control_c, 0, 64, 127
2, 190949, Note_on_c, 0, 69, 0
2, 190987, Note_on_c, 0, 71, 55
2, 190996, Note_on_c, 0, 68, 49
2, 191019, Note_on_c, 0, 44, 33
2, 191024, Note_on_c, 0, 75, 0
2, 191043, Control_c, 0, 64, 113
2, 191062, Control_c, 0, 64, 93
2, 191081, Control_c, 0, 64, 82
2, 191100, Control_c, 0, 64, 74
2, 191120, Control_c, 0, 64, 69
2, 191130, Note_on_c, 0, 42, 0
2, 191139, Control_c, 0, 64, 66
2, 191158, Control_c, 0, 64, 64
2, 191177, Control_c, 0, 64, 61
2, 191197, Control_c, 0, 64, 59
2, 191215, Control_c, 0, 64, 56
2, 191235, Control_c, 0, 64, 54
2, 191254, Control_c, 0, 64, 51
2, 191273, Control_c, 0, 64, 48
2, 191292, Control_c, 0, 64, 44
2, 191311, Control_c, 0, 64, 39
2, 191331, Control_c, 0, 64, 32
2, 191349, Control_c, 0, 64, 23
2, 191369, Control_c, 0, 64, 0
2, 191519, Note_on_c, 0, 68, 0
2, 191560, Note_on_c, 0, 66, 39
2, 191600, Control_c, 0, 64, 28
2, 191619, Control_c, 0, 64, 46
2, 191638, Control_c, 0, 64, 54
2, 191657, Control_c, 0, 64, 58
2, 191677, Control_c, 0, 64, 61
2, 191695, Control_c, 0, 64, 62
2, 191715, Control_c, 0, 64, 63
2, 191734, Control_c, 0, 64, 64
2, 191753, Control_c, 0, 64, 65
2, 191772, Control_c, 0, 64, 66
2, 191791, Control_c, 0, 64, 68
2, 191811, Control_c, 0, 64, 72
2, 191829, Control_c, 0, 64, 79
2, 191849, Control_c, 0, 64, 87
2, 191868, Control_c, 0, 64, 97
2, 191888, Control_c, 0, 64, 105
2, 191906, Control_c, 0, 64, 127
2, 192182, Note_on_c, 0, 73, 56
2, 192184, Note_on_c, 0, 44, 0
2, 192214, Control_c, 0, 64, 101
2, 192215, Note_on_c, 0, 66, 0
2, 192233, Control_c, 0, 64, 81
2, 192233, Note_on_c, 0, 71, 0
2, 192238, Note_on_c, 0, 65, 20
2, 192241, Note_on_c, 0, 45, 34
2, 192252, Control_c, 0, 64, 69
2, 192271, Control_c, 0, 64, 62
2, 192291, Control_c, 0, 64, 55
2, 192309, Control_c, 0, 64, 46
2, 192329, Control_c, 0, 64, 36
2, 192348, Control_c, 0, 64, 31
2, 192368, Control_c, 0, 64, 30
2, 192386, Control_c, 0, 64, 32
2, 192406, Control_c, 0, 64, 43
2, 192425, Control_c, 0, 64, 56
2, 192444, Control_c, 0, 64, 61
2, 192463, Control_c, 0, 64, 63
2, 192483, Control_c, 0, 64, 65
2, 192502, Control_c, 0, 64, 66
2, 192508, Note_on_c, 0, 65, 0
2, 192521, Control_c, 0, 64, 69
2, 192540, Control_c, 0, 64, 72
2, 192561, Control_c, 0, 64, 75
2, 192579, Control_c, 0, 64, 78
2, 192599, Control_c, 0, 64, 81
2, 192618, Control_c, 0, 64, 85
2, 192638, Control_c, 0, 64, 92
2, 192656, Control_c, 0, 64, 100
2, 192676, Control_c, 0, 64, 114
2, 192695, Control_c, 0, 64, 127
2, 192787, Note_on_c, 0, 61, 58
2, 192802, Note_on_c, 0, 44, 42
2, 192807, Control_c, 0, 64, 102
2, 192826, Control_c, 0, 64, 78
2, 192835, Note_on_c, 0, 45, 0
2, 192846, Control_c, 0, 64, 66
2, 192864, Control_c, 0, 64, 59
2, 192884, Control_c, 0, 64, 57
2, 192903, Control_c, 0, 64, 58
2, 192923, Control_c, 0, 64, 60
2, 192941, Control_c, 0, 64, 63
2, 192961, Control_c, 0, 64, 66
2, 192980, Control_c, 0, 64, 70
2, 193000, Control_c, 0, 64, 75
2, 193018, Control_c, 0, 64, 82
2, 193038, Control_c, 0, 64, 89
2, 193057, Control_c, 0, 64, 95
2, 193076, Control_c, 0, 64, 99
2, 193095, Control_c, 0, 64, 106
2, 193115, Control_c, 0, 64, 127
2, 193362, Note_on_c, 0, 69, 65
2, 193393, Note_on_c, 0, 45, 41
2, 193400, Note_on_c, 0, 66, 52
2, 193419, Note_on_c, 0, 44, 0
2, 193454, Note_on_c, 0, 73, 0
2, 193518, Control_c, 0, 64, 98
2, 193526, Note_on_c, 0, 61, 0
2, 193538, Control_c, 0, 64, 83
2, 193557, Control_c, 0, 64, 74
2, 193576, Control_c, 0, 64, 69
2, 193596, Control_c, 0, 64, 66
2, 193614, Control_c, 0, 64, 65
2, 193633, Control_c, 0, 64, 64
2, 193653, Control_c, 0, 64, 61
2, 193672, Control_c, 0, 64, 56
2, 193691, Control_c, 0, 64, 47
2, 193709, Control_c, 0, 64, 32
2, 193729, Control_c, 0, 64, 0
2, 193863, Control_c, 0, 64, 32
2, 193883, Control_c, 0, 64, 50
2, 193895, Note_on_c, 0, 75, 68
2, 193901, Control_c, 0, 64, 59
2, 193921, Control_c, 0, 64, 62
2, 193940, Control_c, 0, 64, 64
2, 193949, Note_on_c, 0, 47, 35
2, 193960, Control_c, 0, 64, 66
2, 193978, Control_c, 0, 64, 68
2, 193987, Note_on_c, 0, 69, 0
2, 193998, Control_c, 0, 64, 71
2, 194014, Note_on_c, 0, 45, 0
2, 194017, Control_c, 0, 64, 75
2, 194036, Control_c, 0, 64, 81
2, 194038, Note_on_c, 0, 66, 0
2, 194055, Control_c, 0, 64, 91
2, 194075, Control_c, 0, 64, 109
2, 194094, Control_c, 0, 64, 127
2, 194508, Note_on_c, 0, 76, 74
2, 194509, Note_on_c, 0, 75, 0
2, 194544, Note_on_c, 0, 68, 46
2, 194559, Note_on_c, 0, 64, 37
2, 194560, Note_on_c, 0, 49, 41
2, 194575, Control_c, 0, 64, 110
2, 194594, Control_c, 0, 64, 100
2, 194614, Control_c, 0, 64, 91
2, 194633, Control_c, 0, 64, 82
2, 194652, Control_c, 0, 64, 73
2, 194662, Note_on_c, 0, 47, 0
2, 194670, Control_c, 0, 64, 66
2, 194690, Control_c, 0, 64, 63
2, 194709, Control_c, 0, 64, 61
2, 194728, Control_c, 0, 64, 60
2, 194747, Control_c, 0, 64, 58
2, 194767, Control_c, 0, 64, 56
2, 194785, Control_c, 0, 64, 52
2, 194805, Control_c, 0, 64, 47
2, 194824, Control_c, 0, 64, 44
2, 194844, Control_c, 0, 64, 43
2, 194882, Control_c, 0, 64, 41
2, 194901, Control_c, 0, 64, 37
2, 194920, Control_c, 0, 64, 33
2, 194939, Control_c, 0, 64, 29
2, 194959, Control_c, 0, 64, 28
2, 194997, Control_c, 0, 64, 27
2, 195016, Control_c, 0, 64, 23
2, 195036, Control_c, 0, 64, 15
2, 195054, Control_c, 0, 64, 0
2, 195065, Note_on_c, 0, 75, 70
2, 195096, Note_on_c, 0, 47, 43
2, 195148, Note_on_c, 0, 49, 0
2, 195264, Note_on_c, 0, 76, 0
2, 195285, Control_c, 0, 64, 35
2, 195285, Note_on_c, 0, 64, 0
2, 195304, Control_c, 0, 64, 50
2, 195324, Control_c, 0, 64, 56
2, 195342, Control_c, 0, 64, 60
2, 195362, Control_c, 0, 64, 62
2, 195381, Control_c, 0, 64, 64
2, 195400, Control_c, 0, 64, 64
2, 195419, Control_c, 0, 64, 65
2, 195441, Control_c, 0, 64, 66
2, 195459, Control_c, 0, 64, 66
2, 195479, Control_c, 0, 64, 67
2, 195498, Control_c, 0, 64, 67
2, 195536, Control_c, 0, 64, 68
2, 195629, Control_c, 0, 64, 67
2, 195646, Note_on_c, 0, 73, 59
2, 195663, Note_on_c, 0, 69, 42
2, 195668, Control_c, 0, 64, 67
2, 195684, Note_on_c, 0, 49, 35
2, 195687, Control_c, 0, 64, 66
2, 195701, Note_on_c, 0, 47, 0
2, 195706, Control_c, 0, 64, 66
2, 195726, Control_c, 0, 64, 64
2, 195744, Control_c, 0, 64, 63
2, 195746, Note_on_c, 0, 75, 0
2, 195760, Note_on_c, 0, 68, 0
2, 195764, Control_c, 0, 64, 62
2, 195783, Control_c, 0, 64, 61
2, 195803, Control_c, 0, 64, 59
2, 195821, Control_c, 0, 64, 57
2, 195841, Control_c, 0, 64, 54
2, 195860, Control_c, 0, 64, 50
2, 195880, Control_c, 0, 64, 46
2, 195898, Control_c, 0, 64, 43
2, 195918, Control_c, 0, 64, 42
2, 195937, Control_c, 0, 64, 41
2, 195956, Control_c, 0, 64, 39
2, 195975, Control_c, 0, 64, 36
2, 195994, Control_c, 0, 64, 34
2, 196014, Control_c, 0, 64, 33
2, 196071, Control_c, 0, 64, 32
2, 196090, Control_c, 0, 64, 31
2, 196109, Control_c, 0, 64, 30
2, 196129, Control_c, 0, 64, 29
2, 196148, Control_c, 0, 64, 29
2, 196167, Control_c, 0, 64, 28
2, 196220, Note_on_c, 0, 51, 35
2, 196299, Note_on_c, 0, 49, 0
2, 196436, Control_c, 0, 64, 29
2, 196455, Control_c, 0, 64, 29
2, 196494, Control_c, 0, 64, 30
2, 196589, Control_c, 0, 64, 31
2, 196609, Control_c, 0, 64, 31
2, 196628, Control_c, 0, 64, 32
2, 196686, Control_c, 0, 64, 32
2, 196853, Note_on_c, 0, 71, 49
2, 196886, Note_on_c, 0, 52, 28
2, 196889, Note_on_c, 0, 51, 0
2, 196974, Control_c, 0, 64, 32
2, 196992, Control_c, 0, 64, 31
2, 196998, Note_on_c, 0, 69, 0
2, 197004, Note_on_c, 0, 73, 0
2, 197012, Control_c, 0, 64, 31
2, 197031, Control_c, 0, 64, 29
2, 197050, Control_c, 0, 64, 28
2, 197069, Control_c, 0, 64, 26
2, 197089, Control_c, 0, 64, 22
2, 197108, Control_c, 0, 64, 18
2, 197127, Control_c, 0, 64, 9
2, 197146, Control_c, 0, 64, 0
2, 197281, Control_c, 0, 64, 15
2, 197300, Control_c, 0, 64, 29
2, 197320, Control_c, 0, 64, 40
2, 197338, Control_c, 0, 64, 48
2, 197358, Control_c, 0, 64, 54
2, 197377, Control_c, 0, 64, 57
2, 197396, Control_c, 0, 64, 59
2, 197415, Control_c, 0, 64, 61
2, 197434, Control_c, 0, 64, 62
2, 197451, Note_on_c, 0, 68, 48
2, 197454, Control_c, 0, 64, 63
2, 197472, Control_c, 0, 64, 65
2, 197492, Control_c, 0, 64, 67
2, 197511, Control_c, 0, 64, 69
2, 197530, Control_c, 0, 64, 72
2, 197549, Control_c, 0, 64, 76
2, 197569, Control_c, 0, 64, 83
2, 197588, Control_c, 0, 64, 93
2, 197607, Control_c, 0, 64, 112
2, 197626, Control_c, 0, 64, 127
2, 197716, Note_on_c, 0, 68, 0
2, 198102, Note_on_c, 0, 73, 54
2, 198107, Note_on_c, 0, 56, 66
2, 198140, Note_on_c, 0, 68, 39
2, 198141, Note_on_c, 0, 66, 40
2, 198158, Note_on_c, 0, 49, 45
2, 198183, Control_c, 0, 64, 108
2, 198192, Note_on_c, 0, 71, 0
2, 198203, Control_c, 0, 64, 92
2, 198210, Note_on_c, 0, 52, 0
2, 198221, Control_c, 0, 64, 83
2, 198241, Control_c, 0, 64, 75
2, 198260, Control_c, 0, 64, 68
2, 198280, Control_c, 0, 64, 63
2, 198298, Control_c, 0, 64, 59
2, 198321, Control_c, 0, 64, 52
2, 198339, Control_c, 0, 64, 46
2, 198359, Control_c, 0, 64, 40
2, 198378, Control_c, 0, 64, 29
2, 198398, Control_c, 0, 64, 0
2, 198625, Control_c, 0, 64, 37
2, 198645, Control_c, 0, 64, 52
2, 198664, Control_c, 0, 64, 58
2, 198684, Control_c, 0, 64, 61
2, 198702, Control_c, 0, 64, 63
2, 198722, Control_c, 0, 64, 64
2, 198736, Note_on_c, 0, 64, 53
2, 198741, Control_c, 0, 64, 66
2, 198744, Note_on_c, 0, 66, 0
2, 198749, Note_on_c, 0, 68, 0
2, 198760, Control_c, 0, 64, 68
2, 198779, Control_c, 0, 64, 71
2, 198799, Control_c, 0, 64, 76
2, 198818, Control_c, 0, 64, 85
2, 198837, Control_c, 0, 64, 101
2, 198856, Control_c, 0, 64, 127
2, 198950, Note_on_c, 0, 56, 0
2, 198958, Note_on_c, 0, 64, 0
2, 199345, Note_on_c, 0, 55, 61
2, 199351, Note_on_c, 0, 75, 63
2, 199383, Note_on_c, 0, 63, 39
2, 199388, Note_on_c, 0, 70, 44
2, 199431, Control_c, 0, 64, 95
2, 199450, Control_c, 0, 64, 78
2, 199451, Note_on_c, 0, 73, 0
2, 199469, Control_c, 0, 64, 68
2, 199489, Control_c, 0, 64, 63
2, 199492, Note_on_c, 0, 49, 0
2, 199508, Control_c, 0, 64, 58
2, 199527, Control_c, 0, 64, 50
2, 199546, Control_c, 0, 64, 36
2, 199566, Control_c, 0, 64, 0
2, 199661, Control_c, 0, 64, 13
2, 199681, Control_c, 0, 64, 39
2, 199700, Control_c, 0, 64, 53
2, 199720, Control_c, 0, 64, 57
2, 199738, Control_c, 0, 64, 60
2, 199760, Control_c, 0, 64, 62
2, 199780, Control_c, 0, 64, 64
2, 199798, Control_c, 0, 64, 66
2, 199818, Control_c, 0, 64, 68
2, 199837, Control_c, 0, 64, 73
2, 199857, Control_c, 0, 64, 78
2, 199875, Control_c, 0, 64, 86
2, 199895, Control_c, 0, 64, 101
2, 199912, Note_on_c, 0, 47, 60
2, 199914, Control_c, 0, 64, 127
2, 199947, Note_on_c, 0, 70, 0
2, 199965, Note_on_c, 0, 55, 0
2, 200037, Note_on_c, 0, 63, 0
2, 200474, Note_on_c, 0, 59, 68
2, 200488, Note_on_c, 0, 68, 61
2, 200489, Control_c, 0, 64, 82
2, 200501, Note_on_c, 0, 46, 52
2, 200508, Control_c, 0, 64, 63
2, 200514, Note_on_c, 0, 47, 0
2, 200528, Control_c, 0, 64, 0
2, 200623, Control_c, 0, 64, 43
2, 200642, Control_c, 0, 64, 58
2, 200662, Control_c, 0, 64, 62
2, 200677, Note_on_c, 0, 75, 0
2, 200681, Control_c, 0, 64, 64
2, 200700, Control_c, 0, 64, 65
2, 200816, Control_c, 0, 64, 66
2, 200834, Control_c, 0, 64, 67
2, 200854, Control_c, 0, 64, 67
2, 200873, Control_c, 0, 64, 68
2, 200892, Control_c, 0, 64, 68
2, 200911, Control_c, 0, 64, 69
2, 200931, Control_c, 0, 64, 70
2, 200950, Control_c, 0, 64, 70
2, 200969, Control_c, 0, 64, 69
2, 200988, Control_c, 0, 64, 67
2, 201020, Note_on_c, 0, 46, 0
2, 201045, Control_c, 0, 64, 66
2, 201065, Control_c, 0, 64, 64
2, 201074, Note_on_c, 0, 44, 51
2, 201084, Control_c, 0, 64, 57
2, 201103, Control_c, 0, 64, 46
2, 201122, Control_c, 0, 64, 36
2, 201142, Control_c, 0, 64, 27
2, 201161, Control_c, 0, 64, 23
2, 201180, Control_c, 0, 64, 27
2, 201199, Control_c, 0, 64, 43
2, 201220, Control_c, 0, 64, 56
2, 201238, Control_c, 0, 64, 61
2, 201258, Control_c, 0, 64, 63
2, 201264, Note_on_c, 0, 59, 0
2, 201277, Control_c, 0, 64, 65
2, 201297, Control_c, 0, 64, 67
2, 201315, Control_c, 0, 64, 70
2, 201335, Control_c, 0, 64, 73
2, 201354, Control_c, 0, 64, 77
2, 201373, Control_c, 0, 64, 80
2, 201391, Control_c, 0, 64, 83
2, 201411, Control_c, 0, 64, 90
2, 201430, Control_c, 0, 64, 98
2, 201449, Control_c, 0, 64, 108
2, 201468, Control_c, 0, 64, 123
2, 201488, Control_c, 0, 64, 127
2, 201679, Note_on_c, 0, 58, 60
2, 201708, Note_on_c, 0, 49, 45
2, 201794, Control_c, 0, 64, 121
2, 201810, Note_on_c, 0, 44, 0
2, 201814, Control_c, 0, 64, 101
2, 201833, Control_c, 0, 64, 88
2, 201852, Control_c, 0, 64, 78
2, 201871, Control_c, 0, 64, 72
2, 201891, Control_c, 0, 64, 68
2, 201910, Control_c, 0, 64, 67
2, 201929, Control_c, 0, 64, 66
2, 201948, Control_c, 0, 64, 65
2, 201968, Control_c, 0, 64, 63
2, 201987, Control_c, 0, 64, 59
2, 202005, Control_c, 0, 64, 47
2, 202025, Control_c, 0, 64, 0
2, 202268, Note_on_c, 0, 76, 63
2, 202829, Note_on_c, 0, 68, 0
2, 202831, Note_on_c, 0, 75, 62
2, 202854, Note_on_c, 0, 51, 30
2, 202887, Note_on_c, 0, 67, 15
2, 202916, Note_on_c, 0, 49, 0
2, 202933, Note_on_c, 0, 76, 0
2, 203077, Control_c, 0, 64, 17
2, 203095, Control_c, 0, 64, 26
2, 203115, Control_c, 0, 64, 32
2, 203134, Control_c, 0, 64, 38
2, 203153, Control_c, 0, 64, 41
2, 203172, Control_c, 0, 64, 44
2, 203192, Control_c, 0, 64, 45
2, 203211, Control_c, 0, 64, 47
2, 203230, Control_c, 0, 64, 50
2, 203249, Control_c, 0, 64, 55
2, 203269, Control_c, 0, 64, 59
2, 203287, Control_c, 0, 64, 62
2, 203307, Control_c, 0, 64, 63
2, 203326, Control_c, 0, 64, 64
2, 203346, Control_c, 0, 64, 66
2, 203356, Note_on_c, 0, 58, 0
2, 203364, Control_c, 0, 64, 68
2, 203383, Control_c, 0, 64, 71
2, 203387, Note_on_c, 0, 73, 61
2, 203403, Control_c, 0, 64, 76
2, 203421, Control_c, 0, 64, 84
2, 203437, Note_on_c, 0, 75, 0
2, 203441, Control_c, 0, 64, 90
2, 203460, Control_c, 0, 64, 96
2, 203480, Control_c, 0, 64, 103
2, 203498, Control_c, 0, 64, 116
2, 203518, Control_c, 0, 64, 127
2, 203583, Note_on_c, 0, 67, 0
2, 203716, Note_on_c, 0, 51, 0
2, 203938, Note_on_c, 0, 73, 0
2, 203962, Note_on_c, 0, 71, 64
2, 203988, Note_on_c, 0, 56, 40
2, 203990, Note_on_c, 0, 68, 46
2, 204008, Note_on_c, 0, 44, 38
2, 204037, Control_c, 0, 64, 98
2, 204055, Control_c, 0, 64, 78
2, 204075, Control_c, 0, 64, 66
2, 204095, Control_c, 0, 64, 51
2, 204114, Control_c, 0, 64, 28
2, 204133, Control_c, 0, 64, 15
2, 204153, Control_c, 0, 64, 20
2, 204171, Control_c, 0, 64, 34
2, 204191, Control_c, 0, 64, 44
2, 204210, Control_c, 0, 64, 51
2, 204230, Control_c, 0, 64, 55
2, 204248, Control_c, 0, 64, 58
2, 204268, Control_c, 0, 64, 59
2, 204287, Control_c, 0, 64, 61
2, 204307, Control_c, 0, 64, 62
2, 204325, Control_c, 0, 64, 64
2, 204344, Control_c, 0, 64, 66
2, 204348, Note_on_c, 0, 56, 0
2, 204364, Control_c, 0, 64, 70
2, 204382, Control_c, 0, 64, 78
2, 204402, Control_c, 0, 64, 88
2, 204421, Control_c, 0, 64, 99
2, 204435, Note_on_c, 0, 44, 0
2, 204441, Control_c, 0, 64, 112
2, 204459, Control_c, 0, 64, 127
2, 204533, Note_on_c, 0, 75, 78
2, 204571, Note_on_c, 0, 57, 40
2, 204632, Note_on_c, 0, 57, 0
2, 204668, Note_on_c, 0, 71, 0
2, 204704, Note_on_c, 0, 68, 0
2, 205134, Note_on_c, 0, 80, 80
2, 205188, Note_on_c, 0, 56, 43
2, 205195, Note_on_c, 0, 59, 35
2, 205266, Note_on_c, 0, 75, 0
2, 205267, Control_c, 0, 64, 108
2, 205285, Control_c, 0, 64, 92
2, 205304, Control_c, 0, 64, 81
2, 205324, Control_c, 0, 64, 70
2, 205342, Control_c, 0, 64, 59
2, 205362, Control_c, 0, 64, 22
2, 205381, Control_c, 0, 64, 0
2, 205611, Control_c, 0, 64, 29
2, 205631, Control_c, 0, 64, 44
2, 205644, Note_on_c, 0, 56, 0
2, 205650, Control_c, 0, 64, 53
2, 205670, Control_c, 0, 64, 58
2, 205688, Control_c, 0, 64, 61
2, 205690, Note_on_c, 0, 54, 64
2, 205708, Control_c, 0, 64, 64
2, 205727, Control_c, 0, 64, 67
2, 205747, Control_c, 0, 64, 71
2, 205765, Control_c, 0, 64, 80
2, 205784, Control_c, 0, 64, 93
2, 205791, Note_on_c, 0, 59, 0
2, 205804, Control_c, 0, 64, 127
2, 206256, Note_on_c, 0, 54, 0
2, 206327, Note_on_c, 0, 61, 60
2, 206340, Note_on_c, 0, 53, 57
2, 206513, Control_c, 0, 64, 94
2, 206532, Control_c, 0, 64, 75
2, 206552, Control_c, 0, 64, 63
2, 206571, Control_c, 0, 64, 42
2, 206590, Control_c, 0, 64, 11
2, 206609, Control_c, 0, 64, 0
2, 206743, Control_c, 0, 64, 17
2, 206763, Control_c, 0, 64, 39
2, 206781, Control_c, 0, 64, 50
2, 206801, Control_c, 0, 64, 55
2, 206820, Control_c, 0, 64, 58
2, 206840, Control_c, 0, 64, 60
2, 206858, Control_c, 0, 64, 63
2, 206878, Control_c, 0, 64, 65
2, 206897, Control_c, 0, 64, 69
2, 206917, Control_c, 0, 64, 76
2, 206930, Note_on_c, 0, 78, 67
2, 206935, Control_c, 0, 64, 89
2, 206955, Control_c, 0, 64, 112
2, 206974, Control_c, 0, 64, 127
2, 206992, Note_on_c, 0, 61, 0
2, 206992, Note_on_c, 0, 80, 0
2, 207449, Note_on_c, 0, 57, 70
2, 207452, Note_on_c, 0, 80, 74
2, 207557, Note_on_c, 0, 53, 0
2, 207570, Control_c, 0, 64, 95
2, 207590, Control_c, 0, 64, 75
2, 207599, Note_on_c, 0, 78, 0
2, 207608, Control_c, 0, 64, 64
2, 207628, Control_c, 0, 64, 51
2, 207647, Control_c, 0, 64, 29
2, 207667, Control_c, 0, 64, 11
2, 207685, Control_c, 0, 64, 13
2, 207704, Control_c, 0, 64, 31
2, 207724, Control_c, 0, 64, 46
2, 207742, Control_c, 0, 64, 55
2, 207762, Control_c, 0, 64, 58
2, 207781, Control_c, 0, 64, 60
2, 207801, Control_c, 0, 64, 62
2, 207819, Control_c, 0, 64, 63
2, 207839, Control_c, 0, 64, 64
2, 207858, Control_c, 0, 64, 66
2, 207877, Control_c, 0, 64, 69
2, 207896, Control_c, 0, 64, 76
2, 207916, Control_c, 0, 64, 89
2, 207935, Control_c, 0, 64, 109
2, 207954, Control_c, 0, 64, 127
2, 207979, Note_on_c, 0, 81, 81
2, 207981, Note_on_c, 0, 80, 0
2, 208004, Note_on_c, 0, 61, 54
2, 208148, Note_on_c, 0, 57, 0
2, 208581, Note_on_c, 0, 83, 79
2, 208623, Note_on_c, 0, 63, 42
2, 208642, Note_on_c, 0, 56, 39
2, 208660, Note_on_c, 0, 81, 0
2, 208722, Control_c, 0, 64, 118
2, 208741, Control_c, 0, 64, 90
2, 208761, Control_c, 0, 64, 76
2, 208779, Control_c, 0, 64, 68
2, 208796, Note_on_c, 0, 61, 0
2, 208799, Control_c, 0, 64, 64
2, 208818, Control_c, 0, 64, 62
2, 208837, Control_c, 0, 64, 60
2, 208856, Control_c, 0, 64, 59
2, 208876, Control_c, 0, 64, 58
2, 208896, Control_c, 0, 64, 56
2, 208915, Control_c, 0, 64, 53
2, 208934, Control_c, 0, 64, 50
2, 208954, Control_c, 0, 64, 48
2, 208972, Control_c, 0, 64, 47
2, 208992, Control_c, 0, 64, 46
2, 209011, Control_c, 0, 64, 45
2, 209031, Control_c, 0, 64, 44
2, 209049, Control_c, 0, 64, 43
2, 209068, Control_c, 0, 64, 41
2, 209087, Control_c, 0, 64, 40
2, 209107, Control_c, 0, 64, 40
2, 209125, Control_c, 0, 64, 39
2, 209164, Control_c, 0, 64, 39
2, 209170, Note_on_c, 0, 61, 59
2, 209202, Note_on_c, 0, 63, 0
2, 209221, Control_c, 0, 64, 38
2, 209259, Control_c, 0, 64, 37
2, 209336, Control_c, 0, 64, 38
2, 209356, Control_c, 0, 64, 38
2, 209548, Control_c, 0, 64, 39
2, 209567, Control_c, 0, 64, 39
2, 209587, Control_c, 0, 64, 41
2, 209605, Control_c, 0, 64, 42
2, 209624, Control_c, 0, 64, 42
2, 209683, Note_on_c, 0, 61, 0
2, 209717, Note_on_c, 0, 63, 55
2, 209721, Control_c, 0, 64, 43
2, 209797, Control_c, 0, 64, 43
2, 210064, Control_c, 0, 64, 44
2, 210083, Control_c, 0, 64, 45
2, 210102, Control_c, 0, 64, 47
2, 210122, Control_c, 0, 64, 49
2, 210141, Control_c, 0, 64, 52
2, 210160, Control_c, 0, 64, 55
2, 210179, Control_c, 0, 64, 57
2, 210185, Note_on_c, 0, 63, 0
2, 210199, Control_c, 0, 64, 58
2, 210217, Control_c, 0, 64, 60
2, 210237, Control_c, 0, 64, 61
2, 210256, Control_c, 0, 64, 63
2, 210259, Note_on_c, 0, 65, 47
2, 210276, Control_c, 0, 64, 64
2, 210294, Control_c, 0, 64, 65
2, 210314, Control_c, 0, 64, 66
2, 210333, Control_c, 0, 64, 68
2, 210352, Control_c, 0, 64, 72
2, 210371, Control_c, 0, 64, 80
2, 210391, Control_c, 0, 64, 92
2, 210410, Control_c, 0, 64, 105
2, 210429, Control_c, 0, 64, 127
2, 210485, Note_on_c, 0, 65, 0
2, 210909, Note_on_c, 0, 66, 46
2, 210912, Note_on_c, 0, 54, 40
2, 211005, Control_c, 0, 64, 110
2, 211024, Control_c, 0, 64, 91
2, 211031, Note_on_c, 0, 56, 0
2, 211043, Control_c, 0, 64, 81
2, 211062, Control_c, 0, 64, 74
2, 211082, Control_c, 0, 64, 70
2, 211101, Control_c, 0, 64, 67
2, 211120, Control_c, 0, 64, 63
2, 211139, Control_c, 0, 64, 60
2, 211159, Control_c, 0, 64, 56
2, 211177, Control_c, 0, 64, 52
2, 211197, Control_c, 0, 64, 49
2, 211216, Control_c, 0, 64, 46
2, 211236, Control_c, 0, 64, 39
2, 211254, Control_c, 0, 64, 19
2, 211274, Control_c, 0, 64, 0
2, 211489, Note_on_c, 0, 81, 57
2, 211495, Note_on_c, 0, 83, 0
2, 211523, Control_c, 0, 64, 32
2, 211542, Control_c, 0, 64, 46
2, 211562, Control_c, 0, 64, 54
2, 211581, Control_c, 0, 64, 57
2, 211600, Control_c, 0, 64, 60
2, 211619, Control_c, 0, 64, 62
2, 211639, Control_c, 0, 64, 63
2, 211657, Control_c, 0, 64, 64
2, 211677, Control_c, 0, 64, 67
2, 211696, Control_c, 0, 64, 71
2, 211716, Control_c, 0, 64, 78
2, 211734, Control_c, 0, 64, 89
2, 211754, Control_c, 0, 64, 100
2, 211774, Control_c, 0, 64, 112
2, 211793, Control_c, 0, 64, 127
2, 212106, Note_on_c, 0, 61, 69
2, 212119, Note_on_c, 0, 80, 57
2, 212138, Note_on_c, 0, 69, 40
2, 212182, Note_on_c, 0, 66, 0
2, 212215, Control_c, 0, 64, 119
2, 212224, Note_on_c, 0, 81, 0
2, 212235, Control_c, 0, 64, 97
2, 212254, Control_c, 0, 64, 86
2, 212273, Control_c, 0, 64, 79
2, 212292, Control_c, 0, 64, 74
2, 212295, Note_on_c, 0, 54, 0
2, 212312, Control_c, 0, 64, 69
2, 212331, Control_c, 0, 64, 64
2, 212350, Control_c, 0, 64, 58
2, 212369, Control_c, 0, 64, 48
2, 212389, Control_c, 0, 64, 42
2, 212407, Control_c, 0, 64, 37
2, 212426, Control_c, 0, 64, 30
2, 212446, Control_c, 0, 64, 11
2, 212465, Control_c, 0, 64, 0
2, 212618, Control_c, 0, 64, 32
2, 212638, Control_c, 0, 64, 50
2, 212657, Control_c, 0, 64, 57
2, 212677, Control_c, 0, 64, 60
2, 212695, Control_c, 0, 64, 62
2, 212700, Note_on_c, 0, 78, 59
2, 212715, Control_c, 0, 64, 63
2, 212734, Control_c, 0, 64, 64
2, 212736, Note_on_c, 0, 80, 0
2, 212753, Control_c, 0, 64, 65
2, 212772, Control_c, 0, 64, 69
2, 212792, Control_c, 0, 64, 76
2, 212811, Control_c, 0, 64, 90
2, 212830, Control_c, 0, 64, 123
2, 212849, Control_c, 0, 64, 127
2, 212862, Note_on_c, 0, 69, 0
2, 212931, Note_on_c, 0, 78, 0
2, 213287, Note_on_c, 0, 61, 0
2, 213315, Note_on_c, 0, 60, 62
2, 213329, Note_on_c, 0, 80, 61
2, 213357, Note_on_c, 0, 68, 38
2, 213406, Control_c, 0, 64, 102
2, 213425, Control_c, 0, 64, 80
2, 213444, Control_c, 0, 64, 68
2, 213463, Control_c, 0, 64, 62
2, 213483, Control_c, 0, 64, 57
2, 213501, Control_c, 0, 64, 50
2, 213521, Control_c, 0, 64, 40
2, 213540, Control_c, 0, 64, 27
2, 213560, Control_c, 0, 64, 20
2, 213578, Control_c, 0, 64, 21
2, 213598, Control_c, 0, 64, 38
2, 213598, Note_on_c, 0, 78, 57
2, 213617, Control_c, 0, 64, 51
2, 213637, Control_c, 0, 64, 58
2, 213655, Control_c, 0, 64, 61
2, 213675, Control_c, 0, 64, 63
2, 213694, Control_c, 0, 64, 65
2, 213713, Control_c, 0, 64, 66
2, 213722, Note_on_c, 0, 80, 0
2, 213732, Control_c, 0, 64, 68
2, 213752, Control_c, 0, 64, 70
2, 213771, Control_c, 0, 64, 74
2, 213790, Control_c, 0, 64, 83
2, 213809, Control_c, 0, 64, 97
2, 213829, Control_c, 0, 64, 127
2, 213842, Note_on_c, 0, 76, 64
2, 213851, Note_on_c, 0, 56, 59
2, 213856, Note_on_c, 0, 78, 0
2, 214055, Note_on_c, 0, 76, 0
2, 214068, Note_on_c, 0, 60, 0
2, 214089, Note_on_c, 0, 75, 65
2, 214101, Note_on_c, 0, 54, 59
2, 214118, Note_on_c, 0, 56, 0
2, 214131, Note_on_c, 0, 75, 0
2, 214363, Note_on_c, 0, 68, 0
2, 214383, Note_on_c, 0, 73, 72
2, 214421, Note_on_c, 0, 64, 60
2, 214426, Note_on_c, 0, 52, 38
2, 214461, Control_c, 0, 64, 104
2, 214480, Control_c, 0, 64, 91
2, 214483, Note_on_c, 0, 54, 0
2, 214499, Control_c, 0, 64, 82
2, 214519, Control_c, 0, 64, 73
2, 214537, Control_c, 0, 64, 66
2, 214557, Control_c, 0, 64, 59
2, 214576, Control_c, 0, 64, 51
2, 214596, Control_c, 0, 64, 40
2, 214614, Control_c, 0, 64, 25
2, 214634, Control_c, 0, 64, 0
2, 214657, Note_on_c, 0, 71, 58
2, 214806, Control_c, 0, 64, 40
2, 214824, Control_c, 0, 64, 55
2, 214844, Control_c, 0, 64, 60
2, 214863, Control_c, 0, 64, 62
2, 214882, Control_c, 0, 64, 64
2, 214892, Note_on_c, 0, 54, 51
2, 214895, Note_on_c, 0, 69, 68
2, 214901, Control_c, 0, 64, 65
2, 214921, Control_c, 0, 64, 66
2, 214940, Control_c, 0, 64, 68
2, 214959, Control_c, 0, 64, 71
2, 214978, Control_c, 0, 64, 80
2, 214998, Control_c, 0, 64, 91
2, 215002, Note_on_c, 0, 71, 0
2, 215016, Control_c, 0, 64, 105
2, 215036, Control_c, 0, 64, 127
2, 215104, Note_on_c, 0, 64, 0
2, 215143, Note_on_c, 0, 68, 73
2, 215146, Note_on_c, 0, 56, 64
2, 215203, Note_on_c, 0, 69, 0
2, 215211, Note_on_c, 0, 54, 0
2, 215365, Control_c, 0, 64, 112
2, 215384, Control_c, 0, 64, 105
2, 215404, Control_c, 0, 64, 104
2, 215423, Control_c, 0, 64, 103
2, 215442, Control_c, 0, 64, 100
2, 215461, Control_c, 0, 64, 93
2, 215467, Note_on_c, 0, 56, 0
2, 215471, Note_on_c, 0, 66, 61
2, 215474, Note_on_c, 0, 68, 0
2, 215481, Control_c, 0, 64, 84
2, 215481, Note_on_c, 0, 63, 58
2, 215482, Note_on_c, 0, 57, 52
2, 215499, Control_c, 0, 64, 76
2, 215518, Control_c, 0, 64, 70
2, 215538, Control_c, 0, 64, 66
2, 215554, Note_on_c, 0, 52, 0
2, 215557, Control_c, 0, 64, 63
2, 215576, Control_c, 0, 64, 59
2, 215595, Control_c, 0, 64, 49
2, 215616, Control_c, 0, 64, 29
2, 215634, Control_c, 0, 64, 0
2, 215904, Control_c, 0, 64, 39
2, 215923, Control_c, 0, 64, 52
2, 215942, Control_c, 0, 64, 57
2, 215962, Control_c, 0, 64, 59
2, 215980, Control_c, 0, 64, 61
2, 216000, Control_c, 0, 64, 63
2, 216019, Control_c, 0, 64, 63
2, 216038, Control_c, 0, 64, 64
2, 216038, Note_on_c, 0, 69, 68
2, 216057, Control_c, 0, 64, 65
2, 216058, Note_on_c, 0, 54, 40
2, 216076, Control_c, 0, 64, 67
2, 216096, Control_c, 0, 64, 70
2, 216114, Control_c, 0, 64, 76
2, 216134, Control_c, 0, 64, 84
2, 216153, Control_c, 0, 64, 94
2, 216173, Control_c, 0, 64, 104
2, 216187, Note_on_c, 0, 57, 0
2, 216191, Control_c, 0, 64, 127
2, 216302, Note_on_c, 0, 66, 0
2, 216610, Note_on_c, 0, 69, 0
2, 216635, Note_on_c, 0, 71, 69
2, 216656, Note_on_c, 0, 56, 41
2, 216665, Note_on_c, 0, 68, 46
2, 216730, Control_c, 0, 64, 110
2, 216733, Note_on_c, 0, 73, 0
2, 216748, Control_c, 0, 64, 93
2, 216753, Note_on_c, 0, 54, 0
2, 216768, Control_c, 0, 64, 80
2, 216787, Control_c, 0, 64, 73
2, 216806, Control_c, 0, 64, 69
2, 216825, Control_c, 0, 64, 65
2, 216845, Control_c, 0, 64, 62
2, 216864, Control_c, 0, 64, 56
2, 216878, Note_on_c, 0, 63, 0
2, 216883, Control_c, 0, 64, 47
2, 216902, Control_c, 0, 64, 26
2, 216922, Control_c, 0, 64, 0
2, 217113, Control_c, 0, 64, 19
2, 217133, Control_c, 0, 64, 44
2, 217151, Control_c, 0, 64, 55
2, 217171, Control_c, 0, 64, 59
2, 217190, Control_c, 0, 64, 61
2, 217191, Note_on_c, 0, 68, 0
2, 217210, Control_c, 0, 64, 62
2, 217212, Note_on_c, 0, 66, 53
2, 217228, Control_c, 0, 64, 64
2, 217248, Control_c, 0, 64, 65
2, 217267, Control_c, 0, 64, 66
2, 217286, Control_c, 0, 64, 67
2, 217305, Control_c, 0, 64, 70
2, 217325, Control_c, 0, 64, 74
2, 217344, Control_c, 0, 64, 82
2, 217363, Control_c, 0, 64, 93
2, 217382, Control_c, 0, 64, 110
2, 217402, Control_c, 0, 64, 127
2, 217449, Note_on_c, 0, 56, 0
2, 217859, Note_on_c, 0, 66, 0
2, 217897, Note_on_c, 0, 65, 49
2, 217934, Note_on_c, 0, 61, 29
2, 217944, Note_on_c, 0, 49, 35
2, 217954, Control_c, 0, 64, 103
2, 217974, Control_c, 0, 64, 89
2, 217992, Control_c, 0, 64, 79
2, 218012, Control_c, 0, 64, 73
2, 218031, Control_c, 0, 64, 68
2, 218050, Control_c, 0, 64, 64
2, 218069, Control_c, 0, 64, 61
2, 218089, Control_c, 0, 64, 57
2, 218108, Control_c, 0, 64, 53
2, 218127, Control_c, 0, 64, 47
2, 218146, Control_c, 0, 64, 40
2, 218166, Control_c, 0, 64, 29
2, 218184, Control_c, 0, 64, 0
2, 218469, Note_on_c, 0, 73, 63
2, 218472, Control_c, 0, 64, 39
2, 218472, Note_on_c, 0, 71, 0
2, 218496, Control_c, 0, 64, 53
2, 218514, Control_c, 0, 64, 59
2, 218534, Control_c, 0, 64, 61
2, 218553, Control_c, 0, 64, 64
2, 218573, Control_c, 0, 64, 65
2, 218591, Control_c, 0, 64, 68
2, 218611, Control_c, 0, 64, 71
2, 218630, Control_c, 0, 64, 75
2, 218650, Control_c, 0, 64, 82
2, 218668, Control_c, 0, 64, 94
2, 218688, Control_c, 0, 64, 127
2, 218726, Note_on_c, 0, 73, 0
2, 219072, Note_on_c, 0, 71, 58
2, 219115, Note_on_c, 0, 65, 0
2, 219124, Note_on_c, 0, 66, 38
2, 219187, Control_c, 0, 64, 105
2, 219206, Control_c, 0, 64, 90
2, 219225, Control_c, 0, 64, 80
2, 219245, Control_c, 0, 64, 70
2, 219264, Control_c, 0, 64, 64
2, 219283, Control_c, 0, 64, 60
2, 219302, Control_c, 0, 64, 59
2, 219322, Control_c, 0, 64, 58
2, 219340, Control_c, 0, 64, 58
2, 219360, Control_c, 0, 64, 57
2, 219379, Control_c, 0, 64, 54
2, 219398, Control_c, 0, 64, 50
2, 219417, Control_c, 0, 64, 46
2, 219436, Control_c, 0, 64, 42
2, 219454, Control_c, 0, 64, 38
2, 219473, Control_c, 0, 64, 36
2, 219492, Control_c, 0, 64, 33
2, 219511, Control_c, 0, 64, 30
2, 219531, Control_c, 0, 64, 29
2, 219549, Control_c, 0, 64, 28
2, 219569, Control_c, 0, 64, 27
2, 219588, Control_c, 0, 64, 26
2, 219638, Note_on_c, 0, 69, 51
2, 219664, Control_c, 0, 64, 24
2, 219684, Control_c, 0, 64, 20
2, 219699, Note_on_c, 0, 71, 0
2, 219702, Control_c, 0, 64, 17
2, 219722, Control_c, 0, 64, 15
2, 219779, Control_c, 0, 64, 13
2, 219875, Control_c, 0, 64, 11
2, 219895, Control_c, 0, 64, 0
2, 220166, Note_on_c, 0, 69, 0
2, 220212, Note_on_c, 0, 68, 46
2, 220240, Note_on_c, 0, 66, 0
2, 220393, Control_c, 0, 64, 23
2, 220416, Control_c, 0, 64, 35
2, 220434, Control_c, 0, 64, 44
2, 220454, Control_c, 0, 64, 50
2, 220473, Control_c, 0, 64, 55
2, 220493, Control_c, 0, 64, 57
2, 220511, Control_c, 0, 64, 59
2, 220531, Control_c, 0, 64, 61
2, 220550, Control_c, 0, 64, 62
2, 220570, Control_c, 0, 64, 64
2, 220589, Control_c, 0, 64, 65
2, 220609, Control_c, 0, 64, 66
2, 220628, Control_c, 0, 64, 68
2, 220647, Control_c, 0, 64, 70
2, 220666, Control_c, 0, 64, 72
2, 220686, Control_c, 0, 64, 75
2, 220704, Control_c, 0, 64, 80
2, 220724, Control_c, 0, 64, 86
2, 220743, Control_c, 0, 64, 93
2, 220745, Note_on_c, 0, 61, 0
2, 220763, Control_c, 0, 64, 104
2, 220781, Control_c, 0, 64, 127
2, 220784, Note_on_c, 0, 64, 39
2, 220971, Note_on_c, 0, 68, 0
2, 221373, Note_on_c, 0, 70, 57
2, 221378, Note_on_c, 0, 47, 67
2, 221439, Control_c, 0, 64, 116
2, 221458, Control_c, 0, 64, 93
2, 221477, Control_c, 0, 64, 81
2, 221497, Control_c, 0, 64, 72
2, 221515, Control_c, 0, 64, 65
2, 221535, Control_c, 0, 64, 58
2, 221550, Control_c, 0, 64, 37
2, 221570, Control_c, 0, 64, 0
2, 221685, Control_c, 0, 64, 36
2, 221704, Control_c, 0, 64, 52
2, 221724, Control_c, 0, 64, 59
2, 221742, Control_c, 0, 64, 61
2, 221762, Control_c, 0, 64, 63
2, 221781, Control_c, 0, 64, 64
2, 221799, Control_c, 0, 64, 66
2, 221819, Control_c, 0, 64, 68
2, 221838, Control_c, 0, 64, 70
2, 221858, Control_c, 0, 64, 75
2, 221876, Control_c, 0, 64, 83
2, 221896, Control_c, 0, 64, 94
2, 221915, Control_c, 0, 64, 112
2, 221935, Control_c, 0, 64, 127
2, 221935, Note_on_c, 0, 71, 68
2, 221976, Note_on_c, 0, 70, 0
2, 222045, Note_on_c, 0, 47, 0
2, 222203, Note_on_c, 0, 49, 0
2, 222540, Note_on_c, 0, 73, 65
2, 222548, Note_on_c, 0, 54, 55
2, 222549, Note_on_c, 0, 46, 59
2, 222567, Control_c, 0, 64, 102
2, 222586, Control_c, 0, 64, 84
2, 222589, Note_on_c, 0, 71, 0
2, 222606, Control_c, 0, 64, 72
2, 222624, Control_c, 0, 64, 64
2, 222644, Control_c, 0, 64, 52
2, 222663, Control_c, 0, 64, 0
2, 222688, Note_on_c, 0, 64, 0
2, 222817, Control_c, 0, 64, 37
2, 222835, Control_c, 0, 64, 54
2, 222855, Control_c, 0, 64, 60
2, 222874, Control_c, 0, 64, 63
2, 222887, Note_on_c, 0, 54, 0
2, 222894, Control_c, 0, 64, 65
2, 222912, Control_c, 0, 64, 67
2, 222932, Control_c, 0, 64, 70
2, 222951, Control_c, 0, 64, 77
2, 222970, Control_c, 0, 64, 85
2, 222989, Control_c, 0, 64, 98
2, 223009, Control_c, 0, 64, 127
2, 223121, Note_on_c, 0, 56, 67
2, 223283, Note_on_c, 0, 56, 0
2, 223671, Note_on_c, 0, 71, 64
2, 223683, Note_on_c, 0, 51, 59
2, 223687, Note_on_c, 0, 54, 57
2, 223699, Note_on_c, 0, 63, 45
2, 223711, Note_on_c, 0, 58, 43
2, 223731, Note_on_c, 0, 73, 0
2, 223734, Control_c, 0, 64, 111
2, 223742, Note_on_c, 0, 46, 0
2, 223754, Control_c, 0, 64, 95
2, 223773, Control_c, 0, 64, 81
2, 223792, Control_c, 0, 64, 71
2, 223811, Control_c, 0, 64, 64
2, 223831, Control_c, 0, 64, 60
2, 223848, Note_on_c, 0, 54, 0
2, 223850, Control_c, 0, 64, 57
2, 223868, Control_c, 0, 64, 55
2, 223888, Control_c, 0, 64, 53
2, 223907, Control_c, 0, 64, 47
2, 223926, Control_c, 0, 64, 38
2, 223945, Control_c, 0, 64, 24
2, 223965, Control_c, 0, 64, 0
2, 224105, Note_on_c, 0, 58, 0
2, 224214, Control_c, 0, 64, 33
2, 224226, Note_on_c, 0, 59, 53
2, 224234, Control_c, 0, 64, 53
2, 224253, Control_c, 0, 64, 60
2, 224272, Control_c, 0, 64, 62
2, 224291, Control_c, 0, 64, 64
2, 224311, Control_c, 0, 64, 66
2, 224313, Note_on_c, 0, 63, 0
2, 224330, Control_c, 0, 64, 69
2, 224348, Control_c, 0, 64, 73
2, 224368, Control_c, 0, 64, 78
2, 224387, Control_c, 0, 64, 83
2, 224406, Control_c, 0, 64, 91
2, 224424, Control_c, 0, 64, 102
2, 224444, Control_c, 0, 64, 127
2, 224815, Note_on_c, 0, 64, 51
2, 224821, Note_on_c, 0, 59, 0
2, 224846, Note_on_c, 0, 52, 45
2, 224850, Note_on_c, 0, 49, 45
2, 224862, Note_on_c, 0, 61, 36
2, 224875, Note_on_c, 0, 51, 0
2, 224943, Control_c, 0, 64, 112
2, 224962, Control_c, 0, 64, 90
2, 224981, Control_c, 0, 64, 74
2, 225001, Control_c, 0, 64, 65
2, 225020, Control_c, 0, 64, 60
2, 225039, Control_c, 0, 64, 59
2, 225078, Control_c, 0, 64, 58
2, 225096, Control_c, 0, 64, 57
2, 225116, Control_c, 0, 64, 54
2, 225135, Control_c, 0, 64, 50
2, 225155, Control_c, 0, 64, 45
2, 225173, Control_c, 0, 64, 42
2, 225193, Control_c, 0, 64, 41
2, 225212, Control_c, 0, 64, 39
2, 225231, Control_c, 0, 64, 38
2, 225250, Control_c, 0, 64, 35
2, 225270, Control_c, 0, 64, 34
2, 225289, Control_c, 0, 64, 33
2, 225385, Control_c, 0, 64, 32
2, 225401, Note_on_c, 0, 51, 47
2, 225405, Control_c, 0, 64, 32
2, 225432, Note_on_c, 0, 52, 0
2, 225865, Control_c, 0, 64, 31
2, 225895, Note_on_c, 0, 51, 0
2, 225904, Control_c, 0, 64, 31
2, 225942, Control_c, 0, 64, 30
2, 225957, Note_on_c, 0, 70, 59
2, 225971, Note_on_c, 0, 71, 0
2, 225980, Control_c, 0, 64, 29
2, 225994, Note_on_c, 0, 52, 28
2, 226000, Control_c, 0, 64, 29
2, 226019, Control_c, 0, 64, 27
2, 226039, Control_c, 0, 64, 25
2, 226057, Control_c, 0, 64, 24
2, 226116, Control_c, 0, 64, 25
2, 226134, Control_c, 0, 64, 26
2, 226154, Control_c, 0, 64, 27
2, 226173, Control_c, 0, 64, 31
2, 226192, Control_c, 0, 64, 37
2, 226211, Control_c, 0, 64, 46
2, 226231, Control_c, 0, 64, 53
2, 226250, Control_c, 0, 64, 57
2, 226268, Control_c, 0, 64, 60
2, 226288, Control_c, 0, 64, 61
2, 226307, Control_c, 0, 64, 63
2, 226326, Control_c, 0, 64, 64
2, 226344, Control_c, 0, 64, 65
2, 226364, Control_c, 0, 64, 67
2, 226383, Control_c, 0, 64, 69
2, 226402, Control_c, 0, 64, 71
2, 226421, Control_c, 0, 64, 74
2, 226441, Control_c, 0, 64, 76
2, 226460, Control_c, 0, 64, 79
2, 226479, Control_c, 0, 64, 82
2, 226498, Control_c, 0, 64, 85
2, 226503, Note_on_c, 0, 52, 0
2, 226518, Control_c, 0, 64, 90
2, 226534, Note_on_c, 0, 54, 46
2, 226536, Control_c, 0, 64, 96
2, 226556, Control_c, 0, 64, 106
2, 226575, Control_c, 0, 64, 127
2, 226618, Note_on_c, 0, 61, 0
2, 226875, Note_on_c, 0, 64, 0
2, 226879, Note_on_c, 0, 70, 0
2, 226904, Note_on_c, 0, 54, 0
2, 227110, Note_on_c, 0, 49, 0
2, 227198, Note_on_c, 0, 71, 58
2, 227248, Note_on_c, 0, 56, 30
2, 227260, Note_on_c, 0, 47, 34
2, 227268, Control_c, 0, 64, 112
2, 227287, Control_c, 0, 64, 101
2, 227305, Control_c, 0, 64, 86
2, 227325, Control_c, 0, 64, 73
2, 227344, Control_c, 0, 64, 65
2, 227363, Control_c, 0, 64, 61
2, 227382, Control_c, 0, 64, 61
2, 227402, Control_c, 0, 64, 60
2, 227420, Control_c, 0, 64, 57
2, 227440, Control_c, 0, 64, 53
2, 227459, Control_c, 0, 64, 44
2, 227479, Control_c, 0, 64, 28
2, 227497, Control_c, 0, 64, 0
2, 227654, Control_c, 0, 64, 26
2, 227673, Control_c, 0, 64, 42
2, 227693, Control_c, 0, 64, 52
2, 227711, Control_c, 0, 64, 56
2, 227731, Control_c, 0, 64, 58
2, 227750, Control_c, 0, 64, 61
2, 227763, Note_on_c, 0, 56, 0
2, 227769, Control_c, 0, 64, 63
2, 227788, Control_c, 0, 64, 64
2, 227808, Control_c, 0, 64, 65
2, 227821, Note_on_c, 0, 63, 53
2, 227827, Control_c, 0, 64, 67
2, 227846, Control_c, 0, 64, 70
2, 227853, Note_on_c, 0, 54, 28
2, 227865, Control_c, 0, 64, 73
2, 227885, Control_c, 0, 64, 78
2, 227903, Control_c, 0, 64, 85
2, 227923, Control_c, 0, 64, 93
2, 227942, Control_c, 0, 64, 104
2, 227962, Control_c, 0, 64, 127
2, 228069, Note_on_c, 0, 54, 0
2, 228084, Note_on_c, 0, 63, 0
2, 228447, Note_on_c, 0, 64, 64
2, 228504, Note_on_c, 0, 56, 39
2, 228573, Control_c, 0, 64, 101
2, 228592, Control_c, 0, 64, 74
2, 228611, Control_c, 0, 64, 63
2, 228630, Control_c, 0, 64, 49
2, 228650, Control_c, 0, 64, 39
2, 228668, Control_c, 0, 64, 38
2, 228688, Control_c, 0, 64, 37
2, 228707, Control_c, 0, 64, 35
2, 228727, Control_c, 0, 64, 35
2, 228745, Control_c, 0, 64, 36
2, 228765, Control_c, 0, 64, 44
2, 228784, Control_c, 0, 64, 54
2, 228804, Control_c, 0, 64, 60
2, 228822, Control_c, 0, 64, 62
2, 228842, Control_c, 0, 64, 64
2, 228861, Control_c, 0, 64, 66
2, 228879, Control_c, 0, 64, 69
2, 228899, Control_c, 0, 64, 73
2, 228918, Control_c, 0, 64, 77
2, 228938, Control_c, 0, 64, 83
2, 228956, Control_c, 0, 64, 88
2, 228976, Control_c, 0, 64, 94
2, 228983, Note_on_c, 0, 56, 0
2, 228995, Control_c, 0, 64, 104
2, 229003, Note_on_c, 0, 66, 48
2, 229014, Control_c, 0, 64, 127
2, 229022, Note_on_c, 0, 58, 35
2, 229172, Note_on_c, 0, 58, 0
2, 229207, Note_on_c, 0, 64, 0
2, 229237, Note_on_c, 0, 66, 0
2, 229245, Note_on_c, 0, 68, 58
2, 229540, Note_on_c, 0, 63, 64
2, 229569, Note_on_c, 0, 68, 0
2, 229575, Note_on_c, 0, 66, 49
2, 229576, Note_on_c, 0, 59, 43
2, 229611, Control_c, 0, 64, 104
2, 229629, Control_c, 0, 64, 79
2, 229649, Control_c, 0, 64, 67
2, 229668, Control_c, 0, 64, 59
2, 229688, Control_c, 0, 64, 43
2, 229706, Control_c, 0, 64, 11
2, 229726, Control_c, 0, 64, 0
2, 229822, Control_c, 0, 64, 36
2, 229840, Control_c, 0, 64, 57
2, 229860, Control_c, 0, 64, 62
2, 229879, Control_c, 0, 64, 64
2, 229899, Control_c, 0, 64, 66
2, 229917, Control_c, 0, 64, 69
2, 229937, Control_c, 0, 64, 73
2, 229956, Control_c, 0, 64, 79
2, 229975, Control_c, 0, 64, 90
2, 229994, Control_c, 0, 64, 106
2, 230015, Control_c, 0, 64, 127
2, 230062, Note_on_c, 0, 73, 71
2, 230074, Note_on_c, 0, 66, 0
2, 230079, Note_on_c, 0, 71, 0
2, 230080, Note_on_c, 0, 56, 49
2, 230147, Note_on_c, 0, 47, 0
2, 230214, Note_on_c, 0, 63, 0
2, 230268, Note_on_c, 0, 73, 0
2, 230607, Note_on_c, 0, 75, 68
2, 230631, Note_on_c, 0, 68, 55
2, 230644, Note_on_c, 0, 71, 51
2, 230653, Note_on_c, 0, 54, 39
2, 230726, Control_c, 0, 64, 96
2, 230745, Control_c, 0, 64, 77
2, 230745, Note_on_c, 0, 56, 0
2, 230765, Control_c, 0, 64, 66
2, 230783, Control_c, 0, 64, 59
2, 230803, Control_c, 0, 64, 45
2, 230822, Control_c, 0, 64, 28
2, 230842, Control_c, 0, 64, 0
2, 231051, Note_on_c, 0, 59, 0
2, 231128, Note_on_c, 0, 54, 0
2, 231164, Note_on_c, 0, 75, 0
2, 231174, Note_on_c, 0, 76, 57
2, 231198, Note_on_c, 0, 52, 36
2, 231262, Control_c, 0, 64, 29
2, 231280, Control_c, 0, 64, 50
2, 231300, Control_c, 0, 64, 59
2, 231319, Control_c, 0, 64, 62
2, 231339, Control_c, 0, 64, 64
2, 231357, Control_c, 0, 64, 67
2, 231377, Control_c, 0, 64, 70
2, 231396, Control_c, 0, 64, 75
2, 231415, Control_c, 0, 64, 82
2, 231434, Control_c, 0, 64, 92
2, 231436, Note_on_c, 0, 71, 0
2, 231438, Note_on_c, 0, 68, 0
2, 231454, Control_c, 0, 64, 112
2, 231473, Control_c, 0, 64, 127
2, 231785, Note_on_c, 0, 66, 53
2, 231825, Note_on_c, 0, 52, 0
2, 231857, Control_c, 0, 64, 101
2, 231867, Note_on_c, 0, 59, 24
2, 231876, Control_c, 0, 64, 89
2, 231895, Control_c, 0, 64, 75
2, 231914, Control_c, 0, 64, 66
2, 231934, Control_c, 0, 64, 61
2, 231953, Control_c, 0, 64, 55
2, 231972, Control_c, 0, 64, 51
2, 231978, Note_on_c, 0, 76, 0
2, 231991, Control_c, 0, 64, 49
2, 232011, Control_c, 0, 64, 47
2, 232029, Control_c, 0, 64, 42
2, 232049, Control_c, 0, 64, 35
2, 232068, Control_c, 0, 64, 25
2, 232088, Control_c, 0, 64, 0
2, 232088, Control_c, 0, 67, 11
2, 232106, Control_c, 0, 67, 16
2, 232126, Control_c, 0, 67, 22
2, 232145, Control_c, 0, 67, 31
2, 232164, Control_c, 0, 67, 42
2, 232183, Control_c, 0, 67, 54
2, 232203, Control_c, 0, 67, 66
2, 232222, Control_c, 0, 67, 82
2, 232240, Control_c, 0, 67, 96
2, 232260, Control_c, 0, 64, 34
2, 232260, Control_c, 0, 67, 111
2, 232279, Control_c, 0, 64, 51
2, 232279, Control_c, 0, 67, 127
2, 232299, Control_c, 0, 64, 59
2, 232317, Control_c, 0, 64, 62
2, 232337, Control_c, 0, 64, 63
2, 232356, Control_c, 0, 64, 65
2, 232366, Note_on_c, 0, 73, 54
2, 232375, Control_c, 0, 64, 67
2, 232394, Control_c, 0, 64, 70
2, 232414, Control_c, 0, 64, 74
2, 232433, Control_c, 0, 64, 83
2, 232452, Control_c, 0, 64, 104
2, 232471, Control_c, 0, 64, 127
2, 232641, Note_on_c, 0, 66, 0
2, 232892, Note_on_c, 0, 73, 0
2, 232973, Note_on_c, 0, 75, 50
2, 232997, Note_on_c, 0, 71, 41
2, 233017, Note_on_c, 0, 47, 35
2, 233065, Control_c, 0, 64, 113
2, 233085, Control_c, 0, 64, 83
2, 233104, Control_c, 0, 64, 67
2, 233124, Control_c, 0, 64, 26
2, 233142, Control_c, 0, 64, 0
2, 233333, Note_on_c, 0, 59, 0
2, 233462, Note_on_c, 0, 71, 0
2, 233535, Note_on_c, 0, 69, 40
2, 233545, Control_c, 0, 64, 19
2, 233565, Control_c, 0, 64, 46
2, 233584, Control_c, 0, 64, 61
2, 233604, Control_c, 0, 64, 65
2, 233622, Control_c, 0, 64, 67
2, 233641, Control_c, 0, 64, 71
2, 233661, Control_c, 0, 64, 81
2, 233679, Control_c, 0, 64, 102
2, 233699, Control_c, 0, 64, 127
2, 233708, Note_on_c, 0, 69, 0
2, 233709, Note_on_c, 0, 75, 0
2, 234212, Note_on_c, 0, 47, 0
2, 234215, Note_on_c, 0, 76, 51
2, 234246, Note_on_c, 0, 52, 35
2, 234251, Note_on_c, 0, 68, 37
2, 234269, Note_on_c, 0, 64, 31
2, 234353, Control_c, 0, 64, 115
2, 234372, Control_c, 0, 64, 91
2, 234391, Control_c, 0, 64, 76
2, 234411, Control_c, 0, 64, 66
2, 234429, Control_c, 0, 64, 58
2, 234449, Control_c, 0, 64, 45
2, 234468, Control_c, 0, 64, 33
2, 234488, Control_c, 0, 64, 21
2, 234506, Control_c, 0, 64, 0
2, 234795, Note_on_c, 0, 64, 0
2, 234815, Control_c, 0, 64, 34
2, 234825, Note_on_c, 0, 75, 56
2, 234828, Note_on_c, 0, 68, 0
2, 234833, Control_c, 0, 64, 48
2, 234853, Control_c, 0, 64, 54
2, 234857, Note_on_c, 0, 76, 0
2, 234872, Control_c, 0, 64, 57
2, 234892, Control_c, 0, 64, 60
2, 234910, Control_c, 0, 64, 64
2, 234930, Control_c, 0, 64, 68
2, 234949, Control_c, 0, 64, 73
2, 234969, Control_c, 0, 64, 82
2, 234987, Control_c, 0, 64, 96
2, 235007, Control_c, 0, 64, 127
2, 235390, Note_on_c, 0, 75, 0
2, 235447, Note_on_c, 0, 76, 53
2, 235451, Note_on_c, 0, 61, 51
2, 235473, Note_on_c, 0, 57, 46
2, 235544, Control_c, 0, 64, 112
2, 235564, Control_c, 0, 64, 92
2, 235583, Control_c, 0, 64, 81
2, 235601, Control_c, 0, 64, 74
2, 235621, Control_c, 0, 64, 68
2, 235640, Control_c, 0, 64, 63
2, 235659, Control_c, 0, 64, 56
2, 235672, Note_on_c, 0, 52, 0
2, 235678, Control_c, 0, 64, 44
2, 235698, Control_c, 0, 64, 31
2, 235717, Control_c, 0, 64, 20
2, 235736, Control_c, 0, 64, 11
2, 235755, Control_c, 0, 64, 0
2, 235995, Note_on_c, 0, 78, 60
2, 236005, Control_c, 0, 64, 23
2, 236014, Note_on_c, 0, 76, 0
2, 236024, Control_c, 0, 64, 44
2, 236044, Control_c, 0, 64, 52
2, 236063, Control_c, 0, 64, 56
2, 236081, Control_c, 0, 64, 59
2, 236101, Control_c, 0, 64, 62
2, 236120, Control_c, 0, 64, 65
2, 236139, Control_c, 0, 64, 69
2, 236158, Control_c, 0, 64, 76
2, 236178, Control_c, 0, 64, 86
2, 236197, Control_c, 0, 64, 98
2, 236216, Control_c, 0, 64, 118
2, 236235, Control_c, 0, 64, 127
2, 236304, Note_on_c, 0, 61, 0
2, 236329, Note_on_c, 0, 57, 0
2, 236619, Note_on_c, 0, 80, 44
2, 236624, Note_on_c, 0, 60, 48
2, 236624, Note_on_c, 0, 78, 0
2, 236647, Note_on_c, 0, 56, 39
2, 236735, Control_c, 0, 64, 116
2, 236753, Control_c, 0, 64, 89
2, 236773, Control_c, 0, 64, 75
2, 236792, Control_c, 0, 64, 67
2, 236812, Control_c, 0, 64, 62
2, 236830, Control_c, 0, 64, 57
2, 236850, Control_c, 0, 64, 49
2, 236869, Control_c, 0, 64, 36
2, 236889, Control_c, 0, 64, 0
2, 236925, Note_on_c, 0, 80, 0
2, 236957, Note_on_c, 0, 78, 56
2, 237138, Control_c, 0, 64, 17
2, 237157, Control_c, 0, 64, 40
2, 237176, Control_c, 0, 64, 51
2, 237195, Control_c, 0, 64, 56
2, 237213, Note_on_c, 0, 80, 62
2, 237215, Control_c, 0, 64, 58
2, 237233, Control_c, 0, 64, 61
2, 237235, Note_on_c, 0, 78, 0
2, 237253, Control_c, 0, 64, 63
2, 237272, Control_c, 0, 64, 66
2, 237292, Control_c, 0, 64, 69
2, 237310, Control_c, 0, 64, 75
2, 237330, Control_c, 0, 64, 83
2, 237349, Control_c, 0, 64, 94
2, 237369, Control_c, 0, 64, 105
2, 237387, Control_c, 0, 64, 127
2, 237465, Note_on_c, 0, 81, 74
2, 237484, Note_on_c, 0, 80, 0
2, 237735, Control_c, 0, 64, 103
2, 237744, Note_on_c, 0, 80, 63
2, 237748, Note_on_c, 0, 64, 57
2, 237754, Control_c, 0, 64, 96
2, 237760, Note_on_c, 0, 61, 49
2, 237774, Control_c, 0, 64, 96
2, 237787, Note_on_c, 0, 81, 0
2, 237792, Control_c, 0, 64, 94
2, 237812, Control_c, 0, 64, 86
2, 237830, Note_on_c, 0, 60, 0
2, 237831, Control_c, 0, 64, 76
2, 237844, Note_on_c, 0, 56, 0
2, 237850, Control_c, 0, 64, 67
2, 237866, Control_c, 0, 64, 59
2, 237886, Control_c, 0, 64, 50
2, 237905, Control_c, 0, 64, 44
2, 237924, Control_c, 0, 64, 42
2, 237943, Control_c, 0, 64, 37
2, 237962, Control_c, 0, 64, 31
2, 237982, Control_c, 0, 64, 21
2, 238000, Control_c, 0, 64, 9
2, 238006, Note_on_c, 0, 78, 66
2, 238017, Note_on_c, 0, 80, 0
2, 238020, Control_c, 0, 64, 0
2, 238229, Note_on_c, 0, 78, 0
2, 238258, Note_on_c, 0, 76, 62
2, 238514, Note_on_c, 0, 80, 61
2, 238556, Note_on_c, 0, 76, 0
2, 238804, Note_on_c, 0, 63, 54
2, 238811, Note_on_c, 0, 78, 54
2, 238830, Note_on_c, 0, 80, 0
2, 238959, Note_on_c, 0, 64, 0
2, 239047, Note_on_c, 0, 78, 0
2, 239075, Note_on_c, 0, 76, 58
2, 239222, Note_on_c, 0, 61, 0
2, 239324, Note_on_c, 0, 76, 0
2, 239342, Note_on_c, 0, 78, 56
2, 239567, Note_on_c, 0, 78, 0
2, 239609, Note_on_c, 0, 80, 51
2, 239867, Note_on_c, 0, 78, 41
2, 239893, Note_on_c, 0, 80, 0
2, 239895, Note_on_c, 0, 60, 32
2, 240099, Note_on_c, 0, 78, 0
2, 240137, Note_on_c, 0, 76, 52
2, 240345, Note_on_c, 0, 76, 0
2, 240398, Note_on_c, 0, 75, 50
2, 240652, Note_on_c, 0, 78, 48
2, 240684, Note_on_c, 0, 75, 0
2, 240944, Note_on_c, 0, 76, 47
2, 240947, Note_on_c, 0, 78, 0
2, 240971, Note_on_c, 0, 61, 33
2, 241069, Note_on_c, 0, 60, 0
2, 241106, Note_on_c, 0, 63, 0
2, 241175, Note_on_c, 0, 76, 0
2, 241211, Note_on_c, 0, 75, 55
2, 241399, Note_on_c, 0, 75, 0
2, 241438, Control_c, 0, 64, 9
2, 241458, Control_c, 0, 64, 17
2, 241469, Note_on_c, 0, 76, 49
2, 241477, Control_c, 0, 64, 23
2, 241496, Control_c, 0, 64, 33
2, 241515, Control_c, 0, 64, 43
2, 241535, Control_c, 0, 64, 50
2, 241553, Control_c, 0, 64, 54
2, 241573, Control_c, 0, 64, 57
2, 241592, Control_c, 0, 64, 59
2, 241612, Control_c, 0, 64, 60
2, 241630, Control_c, 0, 64, 62
2, 241650, Control_c, 0, 64, 63
2, 241669, Control_c, 0, 64, 65
2, 241689, Control_c, 0, 64, 67
2, 241697, Note_on_c, 0, 76, 0
2, 241707, Control_c, 0, 64, 71
2, 241707, Control_c, 0, 67, 123
2, 241727, Control_c, 0, 64, 76
2, 241727, Control_c, 0, 67, 115
2, 241737, Note_on_c, 0, 78, 49
2, 241746, Control_c, 0, 64, 84
2, 241746, Control_c, 0, 67, 107
2, 241765, Control_c, 0, 64, 92
2, 241765, Control_c, 0, 67, 97
2, 241784, Control_c, 0, 64, 100
2, 241784, Control_c, 0, 67, 89
2, 241803, Control_c, 0, 64, 112
2, 241803, Control_c, 0, 67, 81
2, 241823, Control_c, 0, 64, 127
2, 241823, Control_c, 0, 67, 75
2, 241841, Control_c, 0, 67, 68
2, 241861, Control_c, 0, 67, 63
2, 241880, Control_c, 0, 67, 57
2, 241899, Control_c, 0, 67, 50
2, 241918, Control_c, 0, 67, 43
2, 241938, Control_c, 0, 67, 37
2, 241957, Control_c, 0, 67, 31
2, 241976, Control_c, 0, 67, 26
2, 241995, Control_c, 0, 67, 21
2, 242015, Control_c, 0, 67, 15
2, 242033, Control_c, 0, 67, 9
2, 242045, Note_on_c, 0, 68, 60
2, 242053, Control_c, 0, 67, 0
2, 242074, Note_on_c, 0, 76, 45
2, 242110, Control_c, 0, 64, 118
2, 242130, Control_c, 0, 64, 99
2, 242137, Note_on_c, 0, 78, 0
2, 242149, Control_c, 0, 64, 88
2, 242169, Control_c, 0, 64, 81
2, 242187, Control_c, 0, 64, 76
2, 242207, Control_c, 0, 64, 71
2, 242226, Control_c, 0, 64, 67
2, 242245, Control_c, 0, 64, 63
2, 242264, Control_c, 0, 64, 59
2, 242278, Note_on_c, 0, 76, 0
2, 242283, Control_c, 0, 64, 55
2, 242303, Control_c, 0, 64, 52
2, 242321, Control_c, 0, 64, 48
2, 242325, Note_on_c, 0, 75, 46
2, 242341, Control_c, 0, 64, 44
2, 242360, Control_c, 0, 64, 35
2, 242379, Control_c, 0, 64, 18
2, 242398, Control_c, 0, 64, 0
2, 242534, Note_on_c, 0, 75, 0
2, 242572, Control_c, 0, 64, 27
2, 242590, Control_c, 0, 64, 47
2, 242593, Note_on_c, 0, 73, 44
2, 242610, Control_c, 0, 64, 55
2, 242629, Control_c, 0, 64, 58
2, 242649, Control_c, 0, 64, 60
2, 242665, Control_c, 0, 64, 62
2, 242685, Control_c, 0, 64, 63
2, 242704, Control_c, 0, 64, 64
2, 242723, Control_c, 0, 64, 65
2, 242742, Control_c, 0, 64, 66
2, 242761, Control_c, 0, 64, 68
2, 242781, Control_c, 0, 64, 73
2, 242799, Control_c, 0, 64, 79
2, 242819, Control_c, 0, 64, 88
2, 242838, Control_c, 0, 64, 96
2, 242841, Note_on_c, 0, 73, 0
2, 242855, Note_on_c, 0, 76, 52
2, 242858, Control_c, 0, 64, 104
2, 242876, Control_c, 0, 64, 116
2, 242896, Control_c, 0, 64, 127
2, 242963, Note_on_c, 0, 68, 0
2, 243143, Note_on_c, 0, 76, 0
2, 243155, Note_on_c, 0, 67, 60
2, 243160, Note_on_c, 0, 75, 55
2, 243203, Control_c, 0, 64, 105
2, 243222, Control_c, 0, 64, 94
2, 243241, Control_c, 0, 64, 87
2, 243261, Control_c, 0, 64, 79
2, 243279, Control_c, 0, 64, 70
2, 243299, Control_c, 0, 64, 63
2, 243318, Control_c, 0, 64, 53
2, 243338, Control_c, 0, 64, 45
2, 243356, Control_c, 0, 64, 38
2, 243376, Control_c, 0, 64, 31
2, 243386, Note_on_c, 0, 75, 0
2, 243395, Control_c, 0, 64, 25
2, 243433, Control_c, 0, 64, 28
2, 243433, Note_on_c, 0, 73, 49
2, 243453, Control_c, 0, 64, 43
2, 243472, Control_c, 0, 64, 53
2, 243491, Control_c, 0, 64, 58
2, 243510, Control_c, 0, 64, 60
2, 243530, Control_c, 0, 64, 62
2, 243549, Control_c, 0, 64, 63
2, 243568, Control_c, 0, 64, 64
2, 243587, Control_c, 0, 64, 66
2, 243607, Control_c, 0, 64, 67
2, 243626, Control_c, 0, 64, 69
2, 243646, Control_c, 0, 64, 72
2, 243665, Control_c, 0, 64, 75
2, 243683, Control_c, 0, 64, 81
2, 243689, Note_on_c, 0, 75, 62
2, 243700, Note_on_c, 0, 59, 50
2, 243703, Control_c, 0, 64, 89
2, 243722, Control_c, 0, 64, 104
2, 243742, Control_c, 0, 64, 127
2, 243867, Note_on_c, 0, 61, 0
2, 243909, Note_on_c, 0, 67, 0
2, 243933, Note_on_c, 0, 75, 0
2, 243939, Note_on_c, 0, 76, 68
2, 243960, Note_on_c, 0, 73, 0
2, 244223, Note_on_c, 0, 75, 69
2, 244226, Note_on_c, 0, 71, 61
2, 244236, Note_on_c, 0, 58, 44
2, 244240, Control_c, 0, 64, 114
2, 244260, Control_c, 0, 64, 83
2, 244275, Note_on_c, 0, 76, 0
2, 244279, Control_c, 0, 64, 65
2, 244299, Control_c, 0, 64, 54
2, 244317, Control_c, 0, 64, 38
2, 244328, Note_on_c, 0, 59, 0
2, 244337, Control_c, 0, 64, 32
2, 244356, Control_c, 0, 64, 36
2, 244375, Control_c, 0, 64, 48
2, 244394, Control_c, 0, 64, 57
2, 244414, Control_c, 0, 64, 62
2, 244433, Control_c, 0, 64, 64
2, 244452, Control_c, 0, 64, 66
2, 244471, Control_c, 0, 64, 68
2, 244491, Control_c, 0, 64, 70
2, 244505, Note_on_c, 0, 73, 68
2, 244509, Control_c, 0, 64, 73
2, 244527, Note_on_c, 0, 71, 0
2, 244529, Control_c, 0, 64, 76
2, 244539, Note_on_c, 0, 75, 0
2, 244548, Control_c, 0, 64, 82
2, 244568, Control_c, 0, 64, 89
2, 244586, Control_c, 0, 64, 98
2, 244606, Control_c, 0, 64, 111
2, 244625, Control_c, 0, 64, 127
2, 244726, Note_on_c, 0, 73, 0
2, 244759, Control_c, 0, 64, 114
2, 244760, Note_on_c, 0, 71, 67
2, 244779, Control_c, 0, 64, 94
2, 244790, Note_on_c, 0, 56, 48
2, 244797, Control_c, 0, 64, 79
2, 244815, Note_on_c, 0, 58, 0
2, 244817, Control_c, 0, 64, 66
2, 244836, Control_c, 0, 64, 57
2, 244855, Control_c, 0, 64, 35
2, 244874, Control_c, 0, 64, 0
2, 244951, Control_c, 0, 64, 31
2, 244971, Control_c, 0, 64, 55
2, 244989, Control_c, 0, 64, 60
2, 245009, Control_c, 0, 64, 62
2, 245028, Control_c, 0, 64, 64
2, 245046, Note_on_c, 0, 75, 62
2, 245048, Control_c, 0, 64, 65
2, 245066, Control_c, 0, 64, 67
2, 245086, Control_c, 0, 64, 69
2, 245105, Control_c, 0, 64, 72
2, 245123, Control_c, 0, 64, 77
2, 245143, Control_c, 0, 64, 85
2, 245162, Control_c, 0, 64, 95
2, 245182, Control_c, 0, 64, 102
2, 245200, Control_c, 0, 64, 106
2, 245220, Control_c, 0, 64, 106
2, 245239, Control_c, 0, 64, 101
2, 245259, Control_c, 0, 64, 98
2, 245277, Control_c, 0, 64, 97
2, 245297, Control_c, 0, 64, 96
2, 245315, Note_on_c, 0, 75, 0
2, 245316, Control_c, 0, 64, 91
2, 245317, Note_on_c, 0, 71, 0
2, 245319, Note_on_c, 0, 73, 61
2, 245335, Control_c, 0, 64, 83
2, 245340, Note_on_c, 0, 70, 54
2, 245354, Control_c, 0, 64, 74
2, 245375, Control_c, 0, 64, 67
2, 245393, Control_c, 0, 64, 64
2, 245413, Control_c, 0, 64, 63
2, 245432, Control_c, 0, 64, 63
2, 245452, Control_c, 0, 64, 62
2, 245470, Control_c, 0, 64, 60
2, 245490, Control_c, 0, 64, 58
2, 245509, Control_c, 0, 64, 55
2, 245529, Control_c, 0, 64, 51
2, 245546, Control_c, 0, 64, 47
2, 245566, Control_c, 0, 64, 46
2, 245589, Note_on_c, 0, 73, 0
2, 245609, Note_on_c, 0, 71, 62
2, 245623, Control_c, 0, 64, 45
2, 245662, Control_c, 0, 64, 44
2, 245680, Control_c, 0, 64, 43
2, 245700, Control_c, 0, 64, 43
2, 245719, Control_c, 0, 64, 42
2, 245739, Control_c, 0, 64, 40
2, 245757, Control_c, 0, 64, 38
2, 245777, Control_c, 0, 64, 36
2, 245796, Control_c, 0, 64, 36
2, 245815, Control_c, 0, 64, 35
2, 245854, Control_c, 0, 64, 35
2, 245857, Note_on_c, 0, 73, 61
2, 245866, Note_on_c, 0, 71, 0
2, 245892, Control_c, 0, 64, 34
2, 245896, Note_on_c, 0, 55, 32
2, 245918, Note_on_c, 0, 56, 0
2, 246065, Control_c, 0, 64, 34
2, 246108, Note_on_c, 0, 73, 0
2, 246122, Control_c, 0, 64, 33
2, 246125, Note_on_c, 0, 75, 56
2, 246137, Note_on_c, 0, 55, 0
2, 246157, Note_on_c, 0, 53, 33
2, 246416, Note_on_c, 0, 75, 0
2, 246419, Note_on_c, 0, 73, 44
2, 246446, Note_on_c, 0, 55, 26
2, 246477, Note_on_c, 0, 53, 0
2, 246621, Note_on_c, 0, 70, 0
2, 246665, Note_on_c, 0, 73, 0
2, 246686, Note_on_c, 0, 71, 46
2, 246892, Note_on_c, 0, 71, 0
2, 246951, Note_on_c, 0, 70, 49
2, 247217, Note_on_c, 0, 73, 54
2, 247265, Note_on_c, 0, 70, 0
2, 247491, Note_on_c, 0, 73, 0
2, 247504, Note_on_c, 0, 71, 49
2, 247544, Note_on_c, 0, 56, 30
2, 247602, Note_on_c, 0, 55, 0
2, 247761, Note_on_c, 0, 56, 0
2, 247809, Note_on_c, 0, 58, 41
2, 248059, Note_on_c, 0, 63, 49
2, 248074, Note_on_c, 0, 58, 0
2, 248087, Note_on_c, 0, 56, 38
2, 248232, Control_c, 0, 64, 32
2, 248292, Note_on_c, 0, 56, 0
2, 248324, Note_on_c, 0, 55, 40
2, 248504, Control_c, 0, 64, 32
2, 248606, Note_on_c, 0, 68, 52
2, 248616, Note_on_c, 0, 56, 38
2, 248649, Note_on_c, 0, 55, 0
2, 248677, Control_c, 0, 64, 31
2, 248715, Control_c, 0, 64, 31
2, 248779, Note_on_c, 0, 63, 0
2, 248812, Control_c, 0, 64, 30
2, 248850, Control_c, 0, 64, 29
2, 248861, Note_on_c, 0, 73, 57
2, 248874, Note_on_c, 0, 56, 0
2, 248875, Note_on_c, 0, 58, 41
2, 248889, Control_c, 0, 64, 29
2, 248918, Note_on_c, 0, 71, 0
2, 248946, Control_c, 0, 64, 28
2, 248964, Control_c, 0, 64, 27
2, 249041, Control_c, 0, 64, 27
2, 249090, Note_on_c, 0, 58, 0
2, 249099, Control_c, 0, 64, 26
2, 249120, Note_on_c, 0, 75, 68
2, 249141, Note_on_c, 0, 73, 0
2, 249149, Note_on_c, 0, 59, 40
2, 249157, Control_c, 0, 64, 25
2, 249232, Control_c, 0, 64, 24
2, 249367, Control_c, 0, 64, 23
2, 249367, Note_on_c, 0, 59, 0
2, 249384, Note_on_c, 0, 71, 59
2, 249385, Control_c, 0, 64, 22
2, 249393, Note_on_c, 0, 56, 48
2, 249443, Control_c, 0, 64, 21
2, 249578, Control_c, 0, 64, 20
2, 249635, Control_c, 0, 64, 19
2, 249661, Note_on_c, 0, 56, 0
2, 249684, Note_on_c, 0, 73, 63
2, 249706, Note_on_c, 0, 57, 40
2, 249731, Control_c, 0, 64, 18
2, 249744, Note_on_c, 0, 68, 0
2, 249764, Note_on_c, 0, 71, 0
2, 249770, Control_c, 0, 64, 17
2, 249789, Note_on_c, 0, 75, 0
2, 249914, Note_on_c, 0, 57, 0
2, 249945, Note_on_c, 0, 59, 59
2, 250192, Control_c, 0, 64, 15
2, 250217, Note_on_c, 0, 66, 61
2, 250221, Note_on_c, 0, 57, 40
2, 250229, Note_on_c, 0, 59, 0
2, 250446, Note_on_c, 0, 57, 0
2, 250461, Note_on_c, 0, 66, 0
2, 250473, Note_on_c, 0, 64, 57
2, 250494, Note_on_c, 0, 56, 47
2, 250721, Note_on_c, 0, 56, 0
2, 250744, Note_on_c, 0, 66, 51
2, 250763, Note_on_c, 0, 73, 0
2, 250774, Note_on_c, 0, 58, 37
2, 250788, Note_on_c, 0, 64, 0
2, 250932, Note_on_c, 0, 58, 0
2, 251009, Note_on_c, 0, 59, 50
2, 251153, Control_c, 0, 64, 17
2, 251172, Control_c, 0, 64, 18
2, 251191, Control_c, 0, 64, 22
2, 251211, Control_c, 0, 64, 29
2, 251229, Control_c, 0, 64, 39
2, 251247, Note_on_c, 0, 76, 65
2, 251249, Control_c, 0, 64, 49
2, 251259, Note_on_c, 0, 59, 0
2, 251268, Control_c, 0, 64, 55
2, 251269, Note_on_c, 0, 61, 45
2, 251288, Control_c, 0, 64, 59
2, 251305, Control_c, 0, 64, 61
2, 251324, Control_c, 0, 64, 63
2, 251344, Control_c, 0, 64, 64
2, 251363, Control_c, 0, 64, 66
2, 251382, Control_c, 0, 64, 68
2, 251401, Control_c, 0, 64, 71
2, 251421, Control_c, 0, 64, 75
2, 251439, Control_c, 0, 64, 81
2, 251459, Control_c, 0, 64, 86
2, 251471, Note_on_c, 0, 76, 0
2, 251478, Control_c, 0, 64, 90
2, 251483, Note_on_c, 0, 61, 0
2, 251498, Control_c, 0, 64, 94
2, 251516, Control_c, 0, 64, 96
2, 251522, Note_on_c, 0, 58, 58
2, 251536, Control_c, 0, 64, 97
2, 251574, Control_c, 0, 64, 96
2, 251613, Control_c, 0, 64, 97
2, 251632, Control_c, 0, 64, 98
2, 251690, Control_c, 0, 64, 96
2, 251709, Control_c, 0, 64, 95
2, 251785, Control_c, 0, 64, 93
2, 251785, Note_on_c, 0, 75, 75
2, 251804, Control_c, 0, 64, 89
2, 251824, Control_c, 0, 64, 83
2, 251829, Note_on_c, 0, 59, 44
2, 251835, Note_on_c, 0, 58, 0
2, 251843, Control_c, 0, 64, 74
2, 251862, Control_c, 0, 64, 68
2, 251881, Control_c, 0, 64, 65
2, 251901, Control_c, 0, 64, 63
2, 251919, Control_c, 0, 64, 62
2, 251939, Control_c, 0, 64, 60
2, 251946, Note_on_c, 0, 66, 0
2, 251958, Control_c, 0, 64, 58
2, 251978, Control_c, 0, 64, 56
2, 251996, Control_c, 0, 64, 55
2, 252016, Control_c, 0, 64, 55
2, 252025, Note_on_c, 0, 59, 0
2, 252049, Note_on_c, 0, 61, 62
2, 252095, Control_c, 0, 64, 54
2, 252115, Control_c, 0, 64, 52
2, 252133, Control_c, 0, 64, 51
2, 252153, Control_c, 0, 64, 50
2, 252192, Control_c, 0, 64, 50
2, 252210, Control_c, 0, 64, 49
2, 252268, Control_c, 0, 64, 49
2, 252287, Control_c, 0, 64, 48
2, 252307, Control_c, 0, 64, 47
2, 252326, Control_c, 0, 64, 47
2, 252327, Note_on_c, 0, 59, 56
2, 252329, Note_on_c, 0, 64, 69
2, 252345, Control_c, 0, 64, 46
2, 252348, Note_on_c, 0, 61, 0
2, 252364, Control_c, 0, 64, 45
2, 252384, Control_c, 0, 64, 44
2, 252402, Control_c, 0, 64, 44
2, 252536, Control_c, 0, 64, 43
2, 252542, Note_on_c, 0, 59, 0
2, 252556, Control_c, 0, 64, 43
2, 252566, Note_on_c, 0, 58, 55
2, 252570, Note_on_c, 0, 66, 71
2, 252595, Control_c, 0, 64, 42
2, 252635, Note_on_c, 0, 64, 0
2, 252729, Control_c, 0, 64, 41
2, 252748, Control_c, 0, 64, 39
2, 252767, Control_c, 0, 64, 37
2, 252787, Control_c, 0, 64, 36
2, 252806, Control_c, 0, 64, 34
2, 252824, Note_on_c, 0, 58, 0
2, 252825, Control_c, 0, 64, 33
2, 252834, Note_on_c, 0, 75, 0
2, 252843, Note_on_c, 0, 68, 74
2, 252844, Control_c, 0, 64, 32
2, 252849, Note_on_c, 0, 60, 49
2, 252864, Control_c, 0, 64, 31
2, 252882, Control_c, 0, 64, 31
2, 252902, Control_c, 0, 64, 29
2, 252921, Control_c, 0, 64, 26
2, 252926, Note_on_c, 0, 66, 0
2, 252941, Control_c, 0, 64, 22
2, 252959, Control_c, 0, 64, 20
2, 252998, Control_c, 0, 64, 19
2, 253016, Control_c, 0, 64, 18
2, 253036, Control_c, 0, 64, 17
2, 253061, Note_on_c, 0, 60, 0
2, 253107, Note_on_c, 0, 61, 65
2, 253152, Control_c, 0, 64, 15
2, 253170, Control_c, 0, 64, 13
2, 253227, Control_c, 0, 64, 11
2, 253361, Note_on_c, 0, 61, 0
2, 253362, Note_on_c, 0, 78, 80
2, 253381, Control_c, 0, 64, 9
2, 253394, Note_on_c, 0, 63, 53
2, 253420, Control_c, 0, 64, 11
2, 253438, Control_c, 0, 64, 20
2, 253458, Control_c, 0, 64, 33
2, 253477, Control_c, 0, 64, 45
2, 253496, Control_c, 0, 64, 55
2, 253515, Control_c, 0, 64, 59
2, 253534, Control_c, 0, 64, 62
2, 253554, Control_c, 0, 64, 63
2, 253572, Control_c, 0, 64, 65
2, 253592, Control_c, 0, 64, 67
2, 253611, Control_c, 0, 64, 70
2, 253626, Note_on_c, 0, 63, 0
2, 253631, Control_c, 0, 64, 76
2, 253646, Note_on_c, 0, 60, 66
2, 253649, Control_c, 0, 64, 82
2, 253669, Control_c, 0, 64, 91
2, 253688, Control_c, 0, 64, 110
2, 253704, Note_on_c, 0, 78, 0
2, 253707, Control_c, 0, 64, 127
2, 254037, Note_on_c, 0, 76, 77
2, 254067, Note_on_c, 0, 60, 0
2, 254077, Note_on_c, 0, 61, 45
2, 254112, Control_c, 0, 64, 94
2, 254131, Control_c, 0, 64, 79
2, 254151, Control_c, 0, 64, 70
2, 254170, Control_c, 0, 64, 65
2, 254189, Control_c, 0, 64, 63
2, 254208, Control_c, 0, 64, 62
2, 254228, Control_c, 0, 64, 60
2, 254246, Control_c, 0, 64, 57
2, 254266, Control_c, 0, 64, 54
2, 254285, Control_c, 0, 64, 49
2, 254305, Control_c, 0, 64, 43
2, 254323, Control_c, 0, 64, 35
2, 254343, Control_c, 0, 64, 30
2, 254362, Control_c, 0, 64, 26
2, 254382, Control_c, 0, 64, 17
2, 254400, Control_c, 0, 64, 0
2, 254633, Note_on_c, 0, 49, 55
2, 254883, Note_on_c, 0, 61, 0
2, 254884, Note_on_c, 0, 51, 64
2, 254985, Note_on_c, 0, 49, 0
2, 255194, Note_on_c, 0, 73, 76
2, 255203, Note_on_c, 0, 51, 0
2, 255224, Note_on_c, 0, 52, 41
2, 255304, Note_on_c, 0, 76, 0
2, 255626, Control_c, 0, 64, 11
2, 255645, Control_c, 0, 64, 29
2, 255665, Control_c, 0, 64, 41
2, 255683, Control_c, 0, 64, 49
2, 255703, Control_c, 0, 64, 54
2, 255722, Control_c, 0, 64, 57
2, 255742, Control_c, 0, 64, 59
2, 255748, Note_on_c, 0, 52, 0
2, 255760, Control_c, 0, 64, 61
2, 255774, Note_on_c, 0, 54, 52
2, 255780, Control_c, 0, 64, 63
2, 255799, Control_c, 0, 64, 64
2, 255819, Control_c, 0, 64, 65
2, 255837, Control_c, 0, 64, 66
2, 255857, Control_c, 0, 64, 68
2, 255876, Control_c, 0, 64, 70
2, 255895, Control_c, 0, 64, 73
2, 255914, Control_c, 0, 64, 77
2, 255935, Control_c, 0, 64, 82
2, 255939, Note_on_c, 0, 73, 0
2, 255954, Control_c, 0, 64, 86
2, 255973, Control_c, 0, 64, 92
2, 255992, Control_c, 0, 64, 97
2, 256012, Control_c, 0, 64, 104
2, 256030, Control_c, 0, 64, 116
2, 256050, Control_c, 0, 64, 127
2, 256111, Note_on_c, 0, 54, 0
2, 256368, Note_on_c, 0, 72, 71
2, 256415, Control_c, 0, 64, 104
2, 256419, Note_on_c, 0, 56, 42
2, 256434, Control_c, 0, 64, 93
2, 256453, Control_c, 0, 64, 86
2, 256472, Control_c, 0, 64, 79
2, 256492, Control_c, 0, 64, 71
2, 256510, Control_c, 0, 64, 65
2, 256530, Control_c, 0, 64, 61
2, 256549, Control_c, 0, 64, 60
2, 256569, Control_c, 0, 64, 59
2, 256587, Control_c, 0, 64, 58
2, 256607, Control_c, 0, 64, 56
2, 256626, Control_c, 0, 64, 52
2, 256644, Control_c, 0, 64, 48
2, 256664, Control_c, 0, 64, 42
2, 256683, Control_c, 0, 64, 37
2, 256699, Note_on_c, 0, 56, 0
2, 256703, Control_c, 0, 64, 32
2, 256716, Note_on_c, 0, 54, 41
2, 256721, Control_c, 0, 64, 27
2, 256741, Control_c, 0, 64, 18
2, 256760, Control_c, 0, 64, 0
2, 256919, Note_on_c, 0, 54, 0
2, 256932, Control_c, 0, 64, 38
2, 256951, Control_c, 0, 64, 52
2, 256971, Control_c, 0, 64, 57
2, 256976, Note_on_c, 0, 75, 62
2, 256989, Control_c, 0, 64, 60
2, 257009, Control_c, 0, 64, 62
2, 257026, Note_on_c, 0, 56, 26
2, 257028, Control_c, 0, 64, 63
2, 257048, Control_c, 0, 64, 64
2, 257066, Control_c, 0, 64, 66
2, 257085, Control_c, 0, 64, 68
2, 257105, Control_c, 0, 64, 70
2, 257123, Control_c, 0, 64, 73
2, 257143, Control_c, 0, 64, 76
2, 257162, Control_c, 0, 64, 79
2, 257182, Control_c, 0, 64, 83
2, 257200, Control_c, 0, 64, 88
2, 257201, Note_on_c, 0, 56, 0
2, 257220, Control_c, 0, 64, 94
2, 257239, Control_c, 0, 64, 103
2, 257256, Note_on_c, 0, 57, 54
2, 257259, Control_c, 0, 64, 127
2, 257507, Note_on_c, 0, 76, 77
2, 257537, Note_on_c, 0, 56, 48
2, 257573, Note_on_c, 0, 75, 0
2, 257623, Control_c, 0, 64, 100
2, 257642, Control_c, 0, 64, 81
2, 257662, Control_c, 0, 64, 71
2, 257680, Control_c, 0, 64, 66
2, 257698, Note_on_c, 0, 57, 0
2, 257700, Control_c, 0, 64, 65
2, 257719, Control_c, 0, 64, 64
2, 257739, Control_c, 0, 64, 64
2, 257757, Control_c, 0, 64, 63
2, 257777, Control_c, 0, 64, 62
2, 257794, Note_on_c, 0, 54, 51
2, 257796, Control_c, 0, 64, 61
2, 257815, Control_c, 0, 64, 60
2, 257834, Control_c, 0, 64, 59
2, 257848, Note_on_c, 0, 56, 0
2, 257856, Control_c, 0, 64, 58
2, 257874, Control_c, 0, 64, 56
2, 257894, Control_c, 0, 64, 54
2, 257913, Control_c, 0, 64, 53
2, 257933, Control_c, 0, 64, 51
2, 257948, Note_on_c, 0, 72, 0
2, 257951, Control_c, 0, 64, 50
2, 257971, Control_c, 0, 64, 48
2, 257990, Control_c, 0, 64, 45
2, 258009, Control_c, 0, 64, 43
2, 258026, Control_c, 0, 64, 42
2, 258038, Note_on_c, 0, 54, 0
2, 258049, Note_on_c, 0, 73, 58
2, 258065, Control_c, 0, 64, 41
2, 258065, Note_on_c, 0, 52, 46
2, 258083, Control_c, 0, 64, 39
2, 258103, Control_c, 0, 64, 37
2, 258122, Control_c, 0, 64, 36
2, 258142, Control_c, 0, 64, 35
2, 258315, Note_on_c, 0, 56, 53
2, 258372, Control_c, 0, 64, 34
2, 258425, Note_on_c, 0, 52, 0
2, 258449, Control_c, 0, 64, 35
2, 258468, Control_c, 0, 64, 35
2, 258600, Note_on_c, 0, 75, 65
2, 258620, Note_on_c, 0, 54, 39
2, 258622, Control_c, 0, 64, 36
2, 258660, Control_c, 0, 64, 36
2, 258679, Control_c, 0, 64, 37
2, 258749, Note_on_c, 0, 56, 0
2, 258763, Note_on_c, 0, 73, 0
2, 258770, Note_on_c, 0, 76, 0
2, 258833, Note_on_c, 0, 54, 0
2, 258834, Control_c, 0, 64, 37
2, 258853, Control_c, 0, 64, 38
2, 258871, Note_on_c, 0, 52, 47
2, 258892, Control_c, 0, 64, 39
2, 258930, Control_c, 0, 64, 39
2, 259043, Control_c, 0, 64, 40
2, 259062, Control_c, 0, 64, 41
2, 259102, Note_on_c, 0, 68, 0
2, 259144, Note_on_c, 0, 72, 54
2, 259159, Note_on_c, 0, 54, 31
2, 259188, Note_on_c, 0, 52, 0
2, 259196, Control_c, 0, 64, 40
2, 259331, Control_c, 0, 64, 40
2, 259350, Control_c, 0, 64, 39
2, 259360, Note_on_c, 0, 72, 0
2, 259370, Control_c, 0, 64, 39
2, 259371, Note_on_c, 0, 54, 0
2, 259412, Note_on_c, 0, 70, 51
2, 259435, Note_on_c, 0, 56, 38
2, 259542, Control_c, 0, 64, 38
2, 259561, Control_c, 0, 64, 36
2, 259581, Control_c, 0, 64, 36
2, 259594, Note_on_c, 0, 70, 0
2, 259678, Note_on_c, 0, 72, 48
2, 259696, Control_c, 0, 64, 38
2, 259708, Note_on_c, 0, 54, 43
2, 259715, Control_c, 0, 64, 42
2, 259722, Note_on_c, 0, 56, 0
2, 259734, Control_c, 0, 64, 48
2, 259753, Control_c, 0, 64, 54
2, 259775, Control_c, 0, 64, 57
2, 259794, Control_c, 0, 64, 59
2, 259813, Control_c, 0, 64, 61
2, 259832, Control_c, 0, 64, 63
2, 259852, Control_c, 0, 64, 64
2, 259870, Control_c, 0, 64, 66
2, 259890, Control_c, 0, 64, 67
2, 259897, Note_on_c, 0, 75, 0
2, 259905, Note_on_c, 0, 54, 0
2, 259909, Control_c, 0, 64, 69
2, 259929, Control_c, 0, 64, 71
2, 259943, Note_on_c, 0, 52, 47
2, 259946, Control_c, 0, 64, 74
2, 259965, Control_c, 0, 64, 78
2, 259985, Control_c, 0, 64, 80
2, 260003, Control_c, 0, 64, 81
2, 260062, Control_c, 0, 64, 81
2, 260100, Control_c, 0, 64, 80
2, 260119, Control_c, 0, 64, 80
2, 260139, Control_c, 0, 64, 79
2, 260143, Note_on_c, 0, 52, 0
2, 260157, Control_c, 0, 64, 76
2, 260177, Control_c, 0, 64, 74
2, 260196, Control_c, 0, 64, 71
2, 260215, Control_c, 0, 64, 67
2, 260224, Note_on_c, 0, 75, 54
2, 260234, Control_c, 0, 64, 63
2, 260237, Note_on_c, 0, 51, 34
2, 260254, Control_c, 0, 64, 56
2, 260273, Control_c, 0, 64, 48
2, 260292, Control_c, 0, 64, 40
2, 260311, Control_c, 0, 64, 32
2, 260331, Control_c, 0, 64, 22
2, 260349, Control_c, 0, 64, 9
2, 260369, Control_c, 0, 64, 0
2, 260383, Note_on_c, 0, 72, 0
2, 260388, Control_c, 0, 64, 13
2, 260408, Control_c, 0, 64, 35
2, 260426, Control_c, 0, 64, 49
2, 260445, Control_c, 0, 64, 57
2, 260465, Control_c, 0, 64, 60
2, 260483, Control_c, 0, 64, 61
2, 260501, Note_on_c, 0, 54, 31
2, 260503, Control_c, 0, 64, 62
2, 260508, Note_on_c, 0, 51, 0
2, 260522, Control_c, 0, 64, 63
2, 260542, Control_c, 0, 64, 64
2, 260580, Control_c, 0, 64, 65
2, 260599, Control_c, 0, 64, 65
2, 260619, Control_c, 0, 64, 66
2, 260637, Control_c, 0, 64, 67
2, 260657, Control_c, 0, 64, 68
2, 260714, Control_c, 0, 64, 67
2, 260777, Note_on_c, 0, 54, 0
2, 260788, Control_c, 0, 64, 66
2, 260794, Note_on_c, 0, 52, 36
2, 260795, Note_on_c, 0, 80, 52
2, 260808, Control_c, 0, 64, 66
2, 260827, Control_c, 0, 64, 65
2, 260845, Control_c, 0, 64, 65
2, 260884, Control_c, 0, 64, 64
2, 260904, Control_c, 0, 64, 63
2, 260922, Control_c, 0, 64, 61
2, 260942, Control_c, 0, 64, 60
2, 260961, Control_c, 0, 64, 59
2, 260980, Control_c, 0, 64, 58
2, 260999, Control_c, 0, 64, 57
2, 261019, Control_c, 0, 64, 55
2, 261038, Control_c, 0, 64, 54
2, 261057, Control_c, 0, 64, 52
2, 261066, Note_on_c, 0, 52, 0
2, 261076, Control_c, 0, 64, 50
2, 261096, Control_c, 0, 64, 48
2, 261097, Note_on_c, 0, 80, 0
2, 261099, Note_on_c, 0, 78, 58
2, 261114, Control_c, 0, 64, 47
2, 261119, Note_on_c, 0, 51, 38
2, 261134, Control_c, 0, 64, 46
2, 261153, Control_c, 0, 64, 45
2, 261173, Control_c, 0, 64, 44
2, 261191, Control_c, 0, 64, 43
2, 261211, Control_c, 0, 64, 42
2, 261249, Control_c, 0, 64, 41
2, 261309, Note_on_c, 0, 51, 0
2, 261345, Control_c, 0, 64, 41
2, 261353, Note_on_c, 0, 80, 63
2, 261372, Note_on_c, 0, 52, 39
2, 261384, Control_c, 0, 64, 40
2, 261399, Note_on_c, 0, 78, 0
2, 261441, Control_c, 0, 64, 39
2, 261499, Control_c, 0, 64, 39
2, 261549, Note_on_c, 0, 52, 0
2, 261598, Note_on_c, 0, 81, 68
2, 261608, Note_on_c, 0, 80, 0
2, 261609, Note_on_c, 0, 54, 38
2, 261614, Control_c, 0, 64, 38
2, 261770, Control_c, 0, 64, 38
2, 261789, Control_c, 0, 64, 37
2, 261812, Note_on_c, 0, 54, 0
2, 261878, Note_on_c, 0, 80, 63
2, 261890, Note_on_c, 0, 52, 41
2, 261899, Note_on_c, 0, 75, 0
2, 261903, Control_c, 0, 64, 37
2, 261903, Note_on_c, 0, 73, 50
2, 261938, Note_on_c, 0, 81, 0
2, 261941, Control_c, 0, 64, 36
2, 262114, Control_c, 0, 64, 36
2, 262151, Note_on_c, 0, 78, 66
2, 262158, Note_on_c, 0, 57, 43
2, 262189, Note_on_c, 0, 80, 0
2, 262191, Control_c, 0, 64, 35
2, 262325, Control_c, 0, 64, 35
2, 262396, Note_on_c, 0, 57, 0
2, 262402, Control_c, 0, 64, 34
2, 262403, Note_on_c, 0, 76, 67
2, 262416, Note_on_c, 0, 56, 48
2, 262430, Note_on_c, 0, 78, 0
2, 262498, Control_c, 0, 64, 34
2, 262517, Control_c, 0, 64, 33
2, 262537, Control_c, 0, 64, 32
2, 262554, Note_on_c, 0, 52, 0
2, 262555, Control_c, 0, 64, 31
2, 262575, Control_c, 0, 64, 31
2, 262594, Control_c, 0, 64, 30
2, 262614, Control_c, 0, 64, 29
2, 262632, Control_c, 0, 64, 29
2, 262659, Note_on_c, 0, 56, 0
2, 262671, Note_on_c, 0, 80, 70
2, 262689, Note_on_c, 0, 76, 0
2, 262695, Control_c, 0, 64, 28
2, 262697, Note_on_c, 0, 57, 46
2, 262883, Control_c, 0, 64, 27
2, 262941, Note_on_c, 0, 78, 61
2, 262942, Control_c, 0, 64, 27
2, 262957, Note_on_c, 0, 51, 42
2, 262960, Control_c, 0, 64, 25
2, 262980, Control_c, 0, 64, 24
2, 262994, Note_on_c, 0, 80, 0
2, 263057, Control_c, 0, 64, 23
2, 263114, Control_c, 0, 64, 22
2, 263153, Control_c, 0, 64, 21
2, 263191, Control_c, 0, 64, 20
2, 263198, Note_on_c, 0, 51, 0
2, 263205, Note_on_c, 0, 76, 68
2, 263207, Note_on_c, 0, 78, 0
2, 263211, Control_c, 0, 64, 19
2, 263215, Note_on_c, 0, 49, 58
2, 263229, Control_c, 0, 64, 18
2, 263249, Control_c, 0, 64, 17
2, 263268, Control_c, 0, 64, 15
2, 263287, Control_c, 0, 64, 13
2, 263306, Control_c, 0, 64, 11
2, 263325, Control_c, 0, 64, 9
2, 263345, Control_c, 0, 64, 0
2, 263467, Note_on_c, 0, 78, 73
2, 263470, Note_on_c, 0, 51, 56
2, 263483, Note_on_c, 0, 76, 0
2, 263564, Note_on_c, 0, 49, 0
2, 263613, Note_on_c, 0, 57, 0
2, 263730, Note_on_c, 0, 51, 0
2, 263739, Note_on_c, 0, 80, 75
2, 263740, Note_on_c, 0, 52, 58
2, 263756, Note_on_c, 0, 73, 0
2, 263760, Note_on_c, 0, 78, 0
2, 263970, Note_on_c, 0, 52, 0
2, 263990, Note_on_c, 0, 51, 48
2, 263994, Note_on_c, 0, 78, 75
2, 264036, Note_on_c, 0, 72, 47
2, 264041, Note_on_c, 0, 80, 0
2, 264092, Control_c, 0, 64, 35
2, 264111, Control_c, 0, 64, 49
2, 264130, Control_c, 0, 64, 56
2, 264149, Control_c, 0, 64, 60
2, 264169, Control_c, 0, 64, 62
2, 264188, Control_c, 0, 64, 63
2, 264206, Control_c, 0, 64, 64
2, 264226, Control_c, 0, 64, 66
2, 264245, Control_c, 0, 64, 68
2, 264256, Note_on_c, 0, 76, 75
2, 264264, Control_c, 0, 64, 70
2, 264280, Note_on_c, 0, 78, 0
2, 264282, Note_on_c, 0, 72, 0
2, 264283, Control_c, 0, 64, 73
2, 264284, Note_on_c, 0, 56, 50
2, 264303, Control_c, 0, 64, 76
2, 264322, Control_c, 0, 64, 81
2, 264341, Control_c, 0, 64, 85
2, 264360, Control_c, 0, 64, 86
2, 264399, Control_c, 0, 64, 85
2, 264418, Control_c, 0, 64, 84
2, 264437, Control_c, 0, 64, 82
2, 264457, Control_c, 0, 64, 79
2, 264474, Note_on_c, 0, 51, 0
2, 264475, Control_c, 0, 64, 73
2, 264495, Control_c, 0, 64, 65
2, 264513, Note_on_c, 0, 56, 0
2, 264514, Control_c, 0, 64, 58
2, 264519, Note_on_c, 0, 75, 77
2, 264534, Control_c, 0, 64, 49
2, 264539, Note_on_c, 0, 71, 57
2, 264540, Note_on_c, 0, 54, 47
2, 264542, Note_on_c, 0, 76, 0
2, 264552, Control_c, 0, 64, 31
2, 264572, Control_c, 0, 64, 0
2, 264649, Control_c, 0, 64, 9
2, 264668, Control_c, 0, 64, 45
2, 264686, Control_c, 0, 64, 57
2, 264706, Control_c, 0, 64, 61
2, 264725, Control_c, 0, 64, 63
2, 264742, Control_c, 0, 64, 64
2, 264760, Control_c, 0, 64, 66
2, 264780, Control_c, 0, 64, 68
2, 264780, Note_on_c, 0, 54, 0
2, 264789, Note_on_c, 0, 78, 74
2, 264799, Control_c, 0, 64, 70
2, 264819, Control_c, 0, 64, 74
2, 264825, Note_on_c, 0, 56, 42
2, 264837, Control_c, 0, 64, 78
2, 264844, Note_on_c, 0, 75, 0
2, 264857, Control_c, 0, 64, 83
2, 264875, Note_on_c, 0, 71, 0
2, 264876, Control_c, 0, 64, 91
2, 264895, Control_c, 0, 64, 101
2, 264914, Control_c, 0, 64, 127
2, 265010, Note_on_c, 0, 56, 0
2, 265142, Note_on_c, 0, 49, 35
2, 265144, Note_on_c, 0, 78, 0
2, 265170, Note_on_c, 0, 77, 74
2, 265183, Control_c, 0, 64, 107
2, 265202, Control_c, 0, 64, 92
2, 265222, Control_c, 0, 64, 75
2, 265240, Control_c, 0, 64, 64
2, 265260, Control_c, 0, 64, 47
2, 265279, Control_c, 0, 64, 24
2, 265299, Control_c, 0, 64, 15
2, 265337, Control_c, 0, 64, 24
2, 265356, Control_c, 0, 64, 41
2, 265375, Control_c, 0, 64, 55
2, 265394, Control_c, 0, 64, 61
2, 265414, Control_c, 0, 64, 64
2, 265433, Control_c, 0, 64, 66
2, 265452, Control_c, 0, 64, 69
2, 265471, Control_c, 0, 64, 75
2, 265491, Control_c, 0, 64, 81
2, 265509, Control_c, 0, 64, 87
2, 265519, Note_on_c, 0, 71, 56
2, 265531, Control_c, 0, 64, 94
2, 265550, Control_c, 0, 64, 108
2, 265569, Control_c, 0, 64, 127
2, 265806, Note_on_c, 0, 61, 66
2, 265806, Note_on_c, 0, 73, 58
2, 265825, Note_on_c, 0, 49, 0
2, 265933, Note_on_c, 0, 71, 0
2, 266032, Note_on_c, 0, 73, 0
2, 266033, Note_on_c, 0, 77, 0
2, 266075, Note_on_c, 0, 74, 61
2, 266111, Note_on_c, 0, 74, 0
2, 266334, Note_on_c, 0, 61, 0
2, 266358, Note_on_c, 0, 81, 83
2, 266376, Control_c, 0, 64, 109
2, 266391, Note_on_c, 0, 66, 50
2, 266391, Note_on_c, 0, 73, 53
2, 266394, Control_c, 0, 64, 82
2, 266414, Control_c, 0, 64, 66
2, 266433, Control_c, 0, 64, 46
2, 266453, Control_c, 0, 64, 0
2, 266530, Control_c, 0, 64, 39
2, 266549, Control_c, 0, 64, 58
2, 266558, Note_on_c, 0, 73, 0
2, 266569, Control_c, 0, 64, 64
2, 266588, Control_c, 0, 64, 67
2, 266606, Control_c, 0, 64, 72
2, 266626, Control_c, 0, 64, 80
2, 266629, Note_on_c, 0, 66, 0
2, 266645, Control_c, 0, 64, 96
2, 266645, Note_on_c, 0, 71, 76
2, 266665, Control_c, 0, 64, 127
2, 266707, Note_on_c, 0, 71, 0
2, 266902, Note_on_c, 0, 66, 73
2, 266915, Control_c, 0, 64, 115
2, 266917, Note_on_c, 0, 69, 68
2, 266934, Control_c, 0, 64, 78
2, 266953, Control_c, 0, 64, 63
2, 266973, Control_c, 0, 64, 46
2, 266992, Control_c, 0, 64, 43
2, 267011, Control_c, 0, 64, 44
2, 267030, Control_c, 0, 64, 51
2, 267050, Control_c, 0, 64, 61
2, 267069, Control_c, 0, 64, 65
2, 267087, Control_c, 0, 64, 69
2, 267107, Control_c, 0, 64, 76
2, 267126, Control_c, 0, 64, 89
2, 267145, Control_c, 0, 64, 102
2, 267150, Note_on_c, 0, 66, 0
2, 267154, Note_on_c, 0, 81, 0
2, 267164, Control_c, 0, 64, 127
2, 267181, Note_on_c, 0, 73, 79
2, 267234, Note_on_c, 0, 69, 0
2, 267456, Note_on_c, 0, 80, 86
2, 267483, Note_on_c, 0, 73, 0
2, 267493, Note_on_c, 0, 66, 52
2, 267494, Note_on_c, 0, 71, 56
2, 267549, Control_c, 0, 64, 107
2, 267567, Control_c, 0, 64, 75
2, 267587, Control_c, 0, 64, 60
2, 267606, Control_c, 0, 64, 22
2, 267618, Note_on_c, 0, 71, 0
2, 267625, Control_c, 0, 64, 0
2, 267683, Control_c, 0, 64, 31
2, 267702, Control_c, 0, 64, 52
2, 267721, Control_c, 0, 64, 60
2, 267741, Control_c, 0, 64, 62
2, 267752, Note_on_c, 0, 69, 65
2, 267759, Control_c, 0, 64, 64
2, 267779, Control_c, 0, 64, 65
2, 267798, Control_c, 0, 64, 67
2, 267818, Control_c, 0, 64, 68
2, 267836, Control_c, 0, 64, 70
2, 267856, Control_c, 0, 64, 71
2, 267875, Control_c, 0, 64, 72
2, 267894, Control_c, 0, 64, 73
2, 267913, Control_c, 0, 64, 74
2, 267933, Control_c, 0, 64, 75
2, 267952, Control_c, 0, 64, 74
2, 267971, Control_c, 0, 64, 73
2, 267989, Note_on_c, 0, 66, 0
2, 267990, Control_c, 0, 64, 71
2, 268010, Control_c, 0, 64, 70
2, 268014, Note_on_c, 0, 65, 55
2, 268014, Note_on_c, 0, 71, 69
2, 268016, Note_on_c, 0, 69, 0
2, 268029, Control_c, 0, 64, 69
2, 268047, Control_c, 0, 64, 67
2, 268067, Control_c, 0, 64, 63
2, 268086, Control_c, 0, 64, 58
2, 268105, Control_c, 0, 64, 55
2, 268124, Control_c, 0, 64, 55
2, 268182, Control_c, 0, 64, 54
2, 268201, Control_c, 0, 64, 52
2, 268221, Control_c, 0, 64, 51
2, 268239, Control_c, 0, 64, 49
2, 268259, Control_c, 0, 64, 46
2, 268274, Note_on_c, 0, 71, 0
2, 268275, Note_on_c, 0, 73, 70
2, 268278, Control_c, 0, 64, 44
2, 268278, Note_on_c, 0, 65, 0
2, 268284, Note_on_c, 0, 63, 61
2, 268298, Control_c, 0, 64, 41
2, 268316, Control_c, 0, 64, 39
2, 268336, Control_c, 0, 64, 38
2, 268355, Control_c, 0, 64, 36
2, 268374, Control_c, 0, 64, 36
2, 268393, Control_c, 0, 64, 35
2, 268416, Control_c, 0, 64, 34
2, 268434, Control_c, 0, 64, 31
2, 268454, Control_c, 0, 64, 24
2, 268473, Control_c, 0, 64, 18
2, 268493, Control_c, 0, 64, 11
2, 268511, Control_c, 0, 64, 0
2, 268517, Note_on_c, 0, 63, 0
2, 268552, Note_on_c, 0, 71, 64
2, 268564, Note_on_c, 0, 65, 46
2, 268586, Control_c, 0, 64, 13
2, 268605, Control_c, 0, 64, 28
2, 268610, Note_on_c, 0, 73, 0
2, 268625, Control_c, 0, 64, 42
2, 268644, Control_c, 0, 64, 49
2, 268663, Control_c, 0, 64, 52
2, 268682, Control_c, 0, 64, 53
2, 268702, Control_c, 0, 64, 54
2, 268720, Control_c, 0, 64, 55
2, 268740, Control_c, 0, 64, 56
2, 268759, Control_c, 0, 64, 57
2, 268772, Note_on_c, 0, 80, 0
2, 268779, Control_c, 0, 64, 58
2, 268797, Control_c, 0, 64, 59
2, 268808, Note_on_c, 0, 69, 66
2, 268813, Note_on_c, 0, 71, 0
2, 268855, Control_c, 0, 64, 58
2, 268874, Control_c, 0, 64, 58
2, 268894, Control_c, 0, 64, 57
2, 268913, Control_c, 0, 64, 56
2, 268932, Control_c, 0, 64, 56
2, 268971, Control_c, 0, 64, 55
2, 268989, Control_c, 0, 64, 54
2, 269008, Control_c, 0, 64, 53
2, 269028, Control_c, 0, 64, 51
2, 269047, Control_c, 0, 64, 50
2, 269048, Note_on_c, 0, 69, 0
2, 269062, Note_on_c, 0, 68, 61
2, 269066, Control_c, 0, 64, 49
2, 269085, Control_c, 0, 64, 47
2, 269105, Control_c, 0, 64, 46
2, 269124, Control_c, 0, 64, 44
2, 269143, Control_c, 0, 64, 43
2, 269162, Control_c, 0, 64, 42
2, 269182, Control_c, 0, 64, 41
2, 269200, Control_c, 0, 64, 41
2, 269220, Control_c, 0, 64, 39
2, 269239, Control_c, 0, 64, 38
2, 269259, Control_c, 0, 64, 36
2, 269277, Control_c, 0, 64, 34
2, 269297, Control_c, 0, 64, 32
2, 269316, Control_c, 0, 64, 30
2, 269330, Note_on_c, 0, 68, 0
2, 269335, Control_c, 0, 64, 29
2, 269348, Note_on_c, 0, 71, 60
2, 269354, Control_c, 0, 64, 27
2, 269374, Control_c, 0, 64, 27
2, 269393, Control_c, 0, 64, 26
2, 269431, Control_c, 0, 64, 25
2, 269451, Control_c, 0, 64, 21
2, 269469, Control_c, 0, 64, 18
2, 269488, Control_c, 0, 64, 9
2, 269508, Control_c, 0, 64, 0
2, 269612, Note_on_c, 0, 65, 0
2, 269626, Note_on_c, 0, 71, 0
2, 269642, Note_on_c, 0, 69, 66
2, 269672, Note_on_c, 0, 66, 36
2, 269756, Control_c, 0, 64, 40
2, 269776, Control_c, 0, 64, 54
2, 269795, Control_c, 0, 64, 60
2, 269814, Control_c, 0, 64, 62
2, 269833, Control_c, 0, 64, 64
2, 269853, Control_c, 0, 64, 66
2, 269872, Control_c, 0, 64, 69
2, 269891, Control_c, 0, 64, 72
2, 269910, Control_c, 0, 64, 77
2, 269930, Control_c, 0, 64, 83
2, 269949, Control_c, 0, 64, 92
2, 269967, Control_c, 0, 64, 101
2, 269987, Control_c, 0, 64, 112
2, 270006, Control_c, 0, 64, 127
2, 270159, Control_c, 0, 64, 117
2, 270179, Control_c, 0, 64, 89
2, 270198, Control_c, 0, 64, 72
2, 270218, Control_c, 0, 64, 63
2, 270219, Note_on_c, 0, 78, 61
2, 270236, Control_c, 0, 64, 56
2, 270236, Note_on_c, 0, 54, 38
2, 270256, Control_c, 0, 64, 54
2, 270275, Control_c, 0, 64, 55
2, 270294, Control_c, 0, 64, 58
2, 270313, Control_c, 0, 64, 61
2, 270333, Control_c, 0, 64, 64
2, 270352, Control_c, 0, 64, 66
2, 270371, Control_c, 0, 64, 70
2, 270390, Control_c, 0, 64, 75
2, 270410, Control_c, 0, 64, 81
2, 270429, Control_c, 0, 64, 86
2, 270447, Control_c, 0, 64, 88
2, 270467, Control_c, 0, 64, 90
2, 270476, Note_on_c, 0, 76, 69
2, 270478, Note_on_c, 0, 66, 0
2, 270480, Note_on_c, 0, 56, 60
2, 270486, Control_c, 0, 64, 92
2, 270504, Control_c, 0, 64, 95
2, 270519, Note_on_c, 0, 54, 0
2, 270522, Control_c, 0, 64, 97
2, 270542, Control_c, 0, 64, 99
2, 270561, Control_c, 0, 64, 101
2, 270580, Control_c, 0, 64, 103
2, 270599, Control_c, 0, 64, 104
2, 270619, Control_c, 0, 64, 105
2, 270638, Control_c, 0, 64, 106
2, 270714, Control_c, 0, 64, 105
2, 270724, Note_on_c, 0, 56, 0
2, 270733, Note_on_c, 0, 78, 0
2, 270734, Control_c, 0, 64, 104
2, 270743, Note_on_c, 0, 69, 0
2, 270753, Control_c, 0, 64, 101
2, 270773, Control_c, 0, 64, 95
2, 270780, Note_on_c, 0, 74, 67
2, 270791, Control_c, 0, 64, 88
2, 270791, Note_on_c, 0, 54, 64
2, 270797, Note_on_c, 0, 57, 60
2, 270811, Control_c, 0, 64, 82
2, 270830, Control_c, 0, 64, 77
2, 270848, Control_c, 0, 64, 72
2, 270868, Control_c, 0, 64, 67
2, 270884, Note_on_c, 0, 76, 0
2, 270887, Control_c, 0, 64, 62
2, 270907, Control_c, 0, 64, 59
2, 270925, Control_c, 0, 64, 57
2, 270945, Control_c, 0, 64, 56
2, 270964, Control_c, 0, 64, 56
2, 270984, Control_c, 0, 64, 55
2, 271002, Control_c, 0, 64, 53
2, 271022, Control_c, 0, 64, 50
2, 271041, Control_c, 0, 64, 48
2, 271060, Control_c, 0, 64, 46
2, 271064, Note_on_c, 0, 73, 63
2, 271079, Control_c, 0, 64, 43
2, 271099, Control_c, 0, 64, 41
2, 271118, Control_c, 0, 64, 40
2, 271137, Control_c, 0, 64, 39
2, 271156, Control_c, 0, 64, 36
2, 271176, Control_c, 0, 64, 35
2, 271194, Control_c, 0, 64, 33
2, 271214, Control_c, 0, 64, 32
2, 271233, Control_c, 0, 64, 32
2, 271253, Control_c, 0, 64, 31
2, 271271, Control_c, 0, 64, 29
2, 271293, Control_c, 0, 64, 27
2, 271309, Note_on_c, 0, 57, 0
2, 271311, Note_on_c, 0, 73, 0
2, 271312, Control_c, 0, 64, 23
2, 271331, Control_c, 0, 64, 21
2, 271337, Note_on_c, 0, 71, 59
2, 271346, Note_on_c, 0, 59, 55
2, 271350, Control_c, 0, 64, 20
2, 271465, Control_c, 0, 64, 19
2, 271581, Control_c, 0, 64, 18
2, 271585, Note_on_c, 0, 71, 0
2, 271607, Note_on_c, 0, 69, 55
2, 271658, Control_c, 0, 64, 19
2, 271676, Control_c, 0, 64, 20
2, 271696, Control_c, 0, 64, 21
2, 271773, Control_c, 0, 64, 22
2, 271792, Control_c, 0, 64, 24
2, 271811, Control_c, 0, 64, 27
2, 271830, Control_c, 0, 64, 27
2, 271850, Control_c, 0, 64, 28
2, 271887, Control_c, 0, 64, 29
2, 271904, Note_on_c, 0, 59, 0
2, 271909, Note_on_c, 0, 69, 0
2, 271921, Note_on_c, 0, 54, 0
2, 271926, Control_c, 0, 64, 29
2, 271936, Note_on_c, 0, 68, 53
2, 271952, Note_on_c, 0, 53, 40
2, 271962, Note_on_c, 0, 61, 37
2, 272041, Control_c, 0, 64, 30
2, 272061, Control_c, 0, 64, 31
2, 272079, Control_c, 0, 64, 32
2, 272099, Control_c, 0, 64, 32
2, 272195, Control_c, 0, 64, 33
2, 272195, Note_on_c, 0, 61, 0
2, 272214, Control_c, 0, 64, 34
2, 272245, Note_on_c, 0, 59, 46
2, 272254, Control_c, 0, 64, 35
2, 272273, Control_c, 0, 64, 35
2, 272292, Control_c, 0, 64, 36
2, 272484, Note_on_c, 0, 59, 0
2, 272494, Note_on_c, 0, 73, 68
2, 272502, Control_c, 0, 64, 36
2, 272518, Note_on_c, 0, 61, 44
2, 272521, Control_c, 0, 64, 42
2, 272524, Note_on_c, 0, 74, 0
2, 272541, Control_c, 0, 64, 49
2, 272559, Control_c, 0, 64, 56
2, 272579, Control_c, 0, 64, 59
2, 272598, Control_c, 0, 64, 62
2, 272618, Control_c, 0, 64, 65
2, 272636, Control_c, 0, 64, 67
2, 272656, Control_c, 0, 64, 69
2, 272659, Note_on_c, 0, 68, 0
2, 272675, Control_c, 0, 64, 73
2, 272694, Control_c, 0, 64, 77
2, 272707, Note_on_c, 0, 61, 0
2, 272713, Control_c, 0, 64, 81
2, 272733, Control_c, 0, 64, 86
2, 272752, Control_c, 0, 64, 90
2, 272762, Note_on_c, 0, 62, 55
2, 272771, Control_c, 0, 64, 95
2, 272790, Control_c, 0, 64, 103
2, 272810, Control_c, 0, 64, 127
2, 272941, Note_on_c, 0, 62, 0
2, 272987, Note_on_c, 0, 73, 0
2, 273036, Note_on_c, 0, 78, 71
2, 273051, Note_on_c, 0, 57, 38
2, 273059, Note_on_c, 0, 61, 43
2, 273066, Note_on_c, 0, 53, 0
2, 273078, Control_c, 0, 64, 102
2, 273098, Control_c, 0, 64, 76
2, 273116, Control_c, 0, 64, 63
2, 273136, Control_c, 0, 64, 49
2, 273155, Control_c, 0, 64, 46
2, 273193, Control_c, 0, 64, 48
2, 273215, Control_c, 0, 64, 54
2, 273234, Control_c, 0, 64, 60
2, 273253, Control_c, 0, 64, 64
2, 273272, Control_c, 0, 64, 67
2, 273292, Control_c, 0, 64, 72
2, 273295, Note_on_c, 0, 57, 0
2, 273310, Control_c, 0, 64, 83
2, 273327, Note_on_c, 0, 59, 68
2, 273329, Control_c, 0, 64, 98
2, 273339, Note_on_c, 0, 78, 0
2, 273349, Control_c, 0, 64, 127
2, 273425, Note_on_c, 0, 61, 0
2, 273571, Note_on_c, 0, 78, 79
2, 273583, Note_on_c, 0, 57, 53
2, 273594, Note_on_c, 0, 59, 0
2, 273618, Control_c, 0, 64, 94
2, 273637, Control_c, 0, 64, 72
2, 273656, Control_c, 0, 64, 62
2, 273675, Control_c, 0, 64, 55
2, 273695, Control_c, 0, 64, 55
2, 273714, Control_c, 0, 64, 58
2, 273733, Control_c, 0, 64, 63
2, 273752, Control_c, 0, 64, 67
2, 273772, Control_c, 0, 64, 74
2, 273790, Control_c, 0, 64, 86
2, 273809, Control_c, 0, 64, 102
2, 273829, Control_c, 0, 64, 127
2, 273861, Note_on_c, 0, 61, 71
2, 273909, Note_on_c, 0, 78, 0
2, 274164, Note_on_c, 0, 57, 0
2, 274174, Note_on_c, 0, 78, 80
2, 274222, Note_on_c, 0, 56, 49
2, 274224, Note_on_c, 0, 59, 45
2, 274255, Note_on_c, 0, 61, 0
2, 274308, Control_c, 0, 64, 97
2, 274327, Control_c, 0, 64, 79
2, 274345, Control_c, 0, 64, 67
2, 274364, Control_c, 0, 64, 61
2, 274384, Control_c, 0, 64, 58
2, 274479, Control_c, 0, 64, 57
2, 274485, Note_on_c, 0, 57, 63
2, 274499, Control_c, 0, 64, 56
2, 274514, Note_on_c, 0, 59, 0
2, 274518, Control_c, 0, 64, 55
2, 274538, Control_c, 0, 64, 53
2, 274556, Control_c, 0, 64, 51
2, 274595, Control_c, 0, 64, 51
2, 274633, Control_c, 0, 64, 50
2, 274739, Note_on_c, 0, 76, 69
2, 274765, Note_on_c, 0, 59, 47
2, 274767, Control_c, 0, 64, 50
2, 274790, Note_on_c, 0, 78, 0
2, 274824, Note_on_c, 0, 57, 0
2, 274992, Note_on_c, 0, 59, 0
2, 274998, Control_c, 0, 64, 49
2, 274998, Note_on_c, 0, 74, 69
2, 275005, Note_on_c, 0, 61, 52
2, 275030, Note_on_c, 0, 76, 0
2, 275094, Control_c, 0, 64, 50
2, 275209, Note_on_c, 0, 61, 0
2, 275247, Control_c, 0, 64, 50
2, 275270, Note_on_c, 0, 76, 67
2, 275289, Note_on_c, 0, 74, 0
2, 275304, Note_on_c, 0, 59, 43
2, 275362, Control_c, 0, 64, 50
2, 275381, Control_c, 0, 64, 48
2, 275400, Control_c, 0, 64, 44
2, 275420, Control_c, 0, 64, 33
2, 275439, Control_c, 0, 64, 0
2, 275505, Note_on_c, 0, 56, 0
2, 275549, Note_on_c, 0, 57, 52
2, 275606, Note_on_c, 0, 59, 0
2, 275790, Note_on_c, 0, 57, 0
2, 275811, Note_on_c, 0, 56, 47
2, 276088, Note_on_c, 0, 59, 50
2, 276262, Note_on_c, 0, 56, 0
2, 276363, Note_on_c, 0, 59, 0
2, 276368, Note_on_c, 0, 57, 39
2, 276382, Note_on_c, 0, 54, 33
2, 276624, Note_on_c, 0, 57, 0
2, 276632, Note_on_c, 0, 56, 51
2, 276894, Note_on_c, 0, 74, 63
2, 276921, Note_on_c, 0, 57, 40
2, 276960, Note_on_c, 0, 76, 0
2, 276979, Note_on_c, 0, 54, 0
2, 277004, Note_on_c, 0, 56, 0
2, 277107, Note_on_c, 0, 57, 0
2, 277153, Note_on_c, 0, 73, 70
2, 277174, Note_on_c, 0, 74, 0
2, 277178, Note_on_c, 0, 59, 48
2, 277437, Note_on_c, 0, 74, 62
2, 277443, Note_on_c, 0, 69, 62
2, 277468, Note_on_c, 0, 59, 0
2, 277468, Note_on_c, 0, 73, 0
2, 277474, Note_on_c, 0, 57, 41
2, 277714, Note_on_c, 0, 59, 63
2, 277755, Note_on_c, 0, 57, 0
2, 277876, Control_c, 0, 64, 9
2, 277896, Control_c, 0, 64, 11
2, 277914, Control_c, 0, 64, 15
2, 277934, Control_c, 0, 64, 17
2, 277953, Control_c, 0, 64, 18
2, 277973, Control_c, 0, 64, 19
2, 277975, Note_on_c, 0, 59, 0
2, 277975, Note_on_c, 0, 61, 63
2, 278013, Control_c, 0, 64, 20
2, 278194, Note_on_c, 0, 61, 0
2, 278231, Note_on_c, 0, 62, 45
2, 278394, Control_c, 0, 64, 19
2, 278413, Control_c, 0, 64, 18
2, 278432, Control_c, 0, 64, 17
2, 278432, Note_on_c, 0, 62, 0
2, 278500, Note_on_c, 0, 69, 0
2, 278512, Note_on_c, 0, 68, 60
2, 278528, Control_c, 0, 64, 27
2, 278541, Note_on_c, 0, 64, 31
2, 278547, Control_c, 0, 64, 39
2, 278566, Control_c, 0, 64, 47
2, 278586, Control_c, 0, 64, 51
2, 278604, Control_c, 0, 64, 55
2, 278624, Control_c, 0, 64, 59
2, 278643, Control_c, 0, 64, 63
2, 278663, Control_c, 0, 64, 67
2, 278681, Control_c, 0, 64, 72
2, 278688, Note_on_c, 0, 64, 0
2, 278701, Control_c, 0, 64, 81
2, 278720, Control_c, 0, 64, 93
2, 278739, Control_c, 0, 64, 110
2, 278758, Control_c, 0, 64, 127
2, 278782, Note_on_c, 0, 62, 46
2, 278815, Note_on_c, 0, 62, 0
2, 279046, Control_c, 0, 64, 92
2, 279066, Control_c, 0, 64, 76
2, 279067, Note_on_c, 0, 52, 48
2, 279073, Note_on_c, 0, 64, 50
2, 279084, Control_c, 0, 64, 65
2, 279104, Control_c, 0, 64, 58
2, 279123, Control_c, 0, 64, 51
2, 279143, Control_c, 0, 64, 52
2, 279161, Control_c, 0, 64, 56
2, 279181, Control_c, 0, 64, 60
2, 279200, Control_c, 0, 64, 63
2, 279219, Control_c, 0, 64, 65
2, 279238, Control_c, 0, 64, 66
2, 279258, Control_c, 0, 64, 69
2, 279258, Note_on_c, 0, 52, 0
2, 279277, Control_c, 0, 64, 72
2, 279296, Control_c, 0, 64, 78
2, 279297, Note_on_c, 0, 64, 0
2, 279305, Note_on_c, 0, 68, 0
2, 279315, Control_c, 0, 64, 88
2, 279324, Note_on_c, 0, 66, 66
2, 279335, Control_c, 0, 64, 102
2, 279354, Control_c, 0, 64, 127
2, 279582, Note_on_c, 0, 73, 71
2, 279589, Note_on_c, 0, 74, 0
2, 279610, Note_on_c, 0, 66, 0
2, 279620, Note_on_c, 0, 64, 44
2, 279623, Control_c, 0, 64, 94
2, 279638, Note_on_c, 0, 57, 39
2, 279641, Control_c, 0, 64, 79
2, 279661, Control_c, 0, 64, 68
2, 279680, Control_c, 0, 64, 56
2, 279699, Control_c, 0, 64, 0
2, 279795, Control_c, 0, 64, 41
2, 279815, Control_c, 0, 64, 55
2, 279834, Control_c, 0, 64, 60
2, 279853, Control_c, 0, 64, 63
2, 279872, Control_c, 0, 64, 66
2, 279872, Note_on_c, 0, 57, 0
2, 279875, Note_on_c, 0, 62, 58
2, 279880, Note_on_c, 0, 64, 0
2, 279892, Control_c, 0, 64, 71
2, 279910, Control_c, 0, 64, 86
2, 279929, Control_c, 0, 64, 114
2, 279949, Control_c, 0, 64, 127
2, 280122, Control_c, 0, 64, 110
2, 280124, Note_on_c, 0, 62, 0
2, 280135, Note_on_c, 0, 61, 67
2, 280142, Control_c, 0, 64, 83
2, 280148, Note_on_c, 0, 57, 64
2, 280161, Control_c, 0, 64, 68
2, 280180, Control_c, 0, 64, 50
2, 280199, Control_c, 0, 64, 0
2, 280238, Control_c, 0, 64, 25
2, 280257, Control_c, 0, 64, 51
2, 280276, Control_c, 0, 64, 60
2, 280296, Control_c, 0, 64, 62
2, 280314, Control_c, 0, 64, 64
2, 280334, Control_c, 0, 64, 66
2, 280353, Control_c, 0, 64, 70
2, 280366, Note_on_c, 0, 57, 0
2, 280373, Control_c, 0, 64, 80
2, 280386, Note_on_c, 0, 61, 0
2, 280391, Control_c, 0, 64, 102
2, 280397, Note_on_c, 0, 64, 73
2, 280410, Control_c, 0, 64, 127
2, 280455, Note_on_c, 0, 64, 0
2, 280706, Note_on_c, 0, 78, 84
2, 280743, Note_on_c, 0, 71, 56
2, 280756, Control_c, 0, 64, 86
2, 280764, Note_on_c, 0, 57, 45
2, 280768, Note_on_c, 0, 73, 0
2, 280775, Note_on_c, 0, 62, 43
2, 280776, Control_c, 0, 64, 67
2, 280794, Control_c, 0, 64, 37
2, 280814, Control_c, 0, 64, 0
2, 280890, Control_c, 0, 64, 34
2, 280910, Control_c, 0, 64, 53
2, 280929, Control_c, 0, 64, 59
2, 280948, Control_c, 0, 64, 62
2, 280967, Control_c, 0, 64, 64
2, 280987, Control_c, 0, 64, 67
2, 280996, Note_on_c, 0, 57, 0
2, 281005, Control_c, 0, 64, 75
2, 281006, Note_on_c, 0, 61, 66
2, 281025, Control_c, 0, 64, 90
2, 281044, Control_c, 0, 64, 127
2, 281047, Note_on_c, 0, 62, 0
2, 281246, Note_on_c, 0, 61, 0
2, 281257, Note_on_c, 0, 62, 55
2, 281261, Note_on_c, 0, 56, 66
2, 281274, Control_c, 0, 64, 86
2, 281294, Control_c, 0, 64, 71
2, 281313, Control_c, 0, 64, 62
2, 281333, Control_c, 0, 64, 55
2, 281351, Control_c, 0, 64, 52
2, 281359, Note_on_c, 0, 62, 0
2, 281409, Control_c, 0, 64, 51
2, 281428, Control_c, 0, 64, 49
2, 281447, Control_c, 0, 64, 46
2, 281467, Control_c, 0, 64, 44
2, 281485, Control_c, 0, 64, 44
2, 281505, Control_c, 0, 64, 43
2, 281505, Note_on_c, 0, 56, 0
2, 281524, Control_c, 0, 64, 42
2, 281527, Note_on_c, 0, 54, 60
2, 281527, Note_on_c, 0, 64, 61
2, 281544, Control_c, 0, 64, 39
2, 281562, Control_c, 0, 64, 36
2, 281582, Control_c, 0, 64, 34
2, 281601, Control_c, 0, 64, 32
2, 281604, Note_on_c, 0, 64, 0
2, 281620, Control_c, 0, 64, 32
2, 281639, Control_c, 0, 64, 31
2, 281754, Control_c, 0, 64, 31
2, 281793, Control_c, 0, 64, 30
2, 281800, Note_on_c, 0, 76, 64
2, 281813, Note_on_c, 0, 62, 42
2, 281819, Note_on_c, 0, 54, 0
2, 281828, Note_on_c, 0, 56, 39
2, 281889, Note_on_c, 0, 78, 0
2, 282004, Control_c, 0, 64, 29
2, 282042, Control_c, 0, 64, 29
2, 282062, Control_c, 0, 64, 28
2, 282070, Note_on_c, 0, 61, 55
2, 282070, Note_on_c, 0, 62, 0
2, 282081, Control_c, 0, 64, 27
2, 282196, Control_c, 0, 64, 27
2, 282234, Control_c, 0, 64, 26
2, 282260, Note_on_c, 0, 61, 0
2, 282273, Control_c, 0, 64, 25
2, 282293, Control_c, 0, 64, 24
2, 282311, Control_c, 0, 64, 23
2, 282321, Note_on_c, 0, 59, 45
2, 282330, Control_c, 0, 64, 22
2, 282388, Control_c, 0, 64, 21
2, 282427, Control_c, 0, 64, 20
2, 282427, Note_on_c, 0, 56, 0
2, 282582, Note_on_c, 0, 71, 0
2, 282596, Note_on_c, 0, 62, 38
2, 282638, Control_c, 0, 64, 19
2, 282745, Note_on_c, 0, 59, 0
2, 282791, Control_c, 0, 64, 18
2, 282802, Note_on_c, 0, 62, 0
2, 282812, Control_c, 0, 64, 17
2, 282831, Control_c, 0, 64, 13
2, 282849, Control_c, 0, 64, 9
2, 282868, Note_on_c, 0, 57, 28
2, 282869, Control_c, 0, 64, 0
2, 282870, Note_on_c, 0, 61, 35
2, 283003, Control_c, 0, 64, 11
2, 283023, Control_c, 0, 64, 32
2, 283033, Note_on_c, 0, 61, 0
2, 283042, Control_c, 0, 64, 45
2, 283061, Control_c, 0, 64, 54
2, 283080, Control_c, 0, 64, 59
2, 283100, Control_c, 0, 64, 62
2, 283119, Control_c, 0, 64, 63
2, 283133, Note_on_c, 0, 59, 47
2, 283138, Control_c, 0, 64, 65
2, 283157, Control_c, 0, 64, 67
2, 283172, Note_on_c, 0, 76, 0
2, 283177, Control_c, 0, 64, 71
2, 283195, Control_c, 0, 64, 82
2, 283215, Control_c, 0, 64, 110
2, 283234, Control_c, 0, 64, 127
2, 283285, Note_on_c, 0, 59, 0
2, 283349, Control_c, 0, 64, 100
2, 283368, Control_c, 0, 64, 78
2, 283381, Note_on_c, 0, 64, 50
2, 283388, Control_c, 0, 64, 66
2, 283406, Control_c, 0, 64, 57
2, 283421, Note_on_c, 0, 61, 33
2, 283426, Control_c, 0, 64, 47
2, 283464, Control_c, 0, 64, 53
2, 283483, Control_c, 0, 64, 60
2, 283503, Control_c, 0, 64, 64
2, 283522, Control_c, 0, 64, 66
2, 283541, Control_c, 0, 64, 70
2, 283547, Note_on_c, 0, 64, 0
2, 283560, Control_c, 0, 64, 75
2, 283580, Control_c, 0, 64, 82
2, 283588, Note_on_c, 0, 61, 0
2, 283599, Control_c, 0, 64, 88
2, 283618, Control_c, 0, 64, 95
2, 283637, Control_c, 0, 64, 106
2, 283637, Note_on_c, 0, 78, 64
2, 283657, Control_c, 0, 64, 127
2, 283664, Note_on_c, 0, 62, 39
2, 283707, Note_on_c, 0, 62, 0
2, 283849, Note_on_c, 0, 57, 0
2, 283886, Control_c, 0, 64, 97
2, 283906, Control_c, 0, 64, 80
2, 283919, Note_on_c, 0, 76, 61
2, 283925, Control_c, 0, 64, 68
2, 283942, Note_on_c, 0, 78, 0
2, 283944, Control_c, 0, 64, 59
2, 283962, Control_c, 0, 64, 43
2, 283962, Note_on_c, 0, 61, 21
2, 283966, Note_on_c, 0, 69, 44
2, 283968, Note_on_c, 0, 54, 30
2, 283982, Control_c, 0, 64, 31
2, 284001, Control_c, 0, 64, 29
2, 284020, Control_c, 0, 64, 31
2, 284039, Control_c, 0, 64, 45
2, 284059, Control_c, 0, 64, 57
2, 284078, Control_c, 0, 64, 62
2, 284097, Control_c, 0, 64, 64
2, 284116, Control_c, 0, 64, 67
2, 284136, Control_c, 0, 64, 71
2, 284154, Control_c, 0, 64, 77
2, 284174, Control_c, 0, 64, 91
2, 284193, Control_c, 0, 64, 127
2, 284196, Note_on_c, 0, 74, 70
2, 284203, Note_on_c, 0, 59, 61
2, 284206, Note_on_c, 0, 61, 0
2, 284239, Note_on_c, 0, 76, 0
2, 284244, Note_on_c, 0, 69, 0
2, 284383, Note_on_c, 0, 59, 0
2, 284442, Control_c, 0, 64, 84
2, 284455, Note_on_c, 0, 73, 75
2, 284462, Control_c, 0, 64, 67
2, 284466, Note_on_c, 0, 69, 60
2, 284468, Note_on_c, 0, 57, 53
2, 284481, Control_c, 0, 64, 57
2, 284486, Note_on_c, 0, 74, 0
2, 284500, Control_c, 0, 64, 45
2, 284517, Note_on_c, 0, 54, 0
2, 284519, Control_c, 0, 64, 42
2, 284539, Control_c, 0, 64, 45
2, 284558, Control_c, 0, 64, 55
2, 284577, Control_c, 0, 64, 62
2, 284596, Control_c, 0, 64, 66
2, 284616, Control_c, 0, 64, 70
2, 284634, Control_c, 0, 64, 76
2, 284654, Control_c, 0, 64, 84
2, 284664, Note_on_c, 0, 57, 0
2, 284673, Control_c, 0, 64, 93
2, 284693, Control_c, 0, 64, 111
2, 284711, Control_c, 0, 64, 127
2, 284721, Note_on_c, 0, 76, 81
2, 284731, Note_on_c, 0, 61, 62
2, 284750, Note_on_c, 0, 73, 0
2, 284769, Note_on_c, 0, 61, 0
2, 284778, Note_on_c, 0, 69, 0
2, 285034, Note_on_c, 0, 74, 76
2, 285061, Note_on_c, 0, 69, 59
2, 285079, Note_on_c, 0, 76, 0
2, 285090, Note_on_c, 0, 47, 36
2, 285099, Control_c, 0, 64, 121
2, 285100, Note_on_c, 0, 59, 43
2, 285117, Control_c, 0, 64, 80
2, 285137, Control_c, 0, 64, 63
2, 285156, Control_c, 0, 64, 37
2, 285175, Control_c, 0, 64, 0
2, 285251, Control_c, 0, 64, 25
2, 285271, Control_c, 0, 64, 53
2, 285290, Control_c, 0, 64, 61
2, 285309, Control_c, 0, 64, 64
2, 285309, Note_on_c, 0, 74, 0
2, 285319, Note_on_c, 0, 73, 76
2, 285328, Control_c, 0, 64, 67
2, 285348, Control_c, 0, 64, 71
2, 285354, Note_on_c, 0, 69, 0
2, 285367, Control_c, 0, 64, 78
2, 285386, Control_c, 0, 64, 96
2, 285405, Control_c, 0, 64, 127
2, 285573, Note_on_c, 0, 74, 71
2, 285579, Control_c, 0, 64, 97
2, 285582, Note_on_c, 0, 73, 0
2, 285590, Note_on_c, 0, 68, 57
2, 285597, Control_c, 0, 64, 73
2, 285617, Control_c, 0, 64, 60
2, 285636, Control_c, 0, 64, 41
2, 285655, Control_c, 0, 64, 31
2, 285691, Note_on_c, 0, 68, 0
2, 285693, Control_c, 0, 64, 34
2, 285712, Control_c, 0, 64, 44
2, 285730, Control_c, 0, 64, 56
2, 285750, Control_c, 0, 64, 63
2, 285769, Control_c, 0, 64, 65
2, 285789, Control_c, 0, 64, 68
2, 285807, Control_c, 0, 64, 71
2, 285827, Control_c, 0, 64, 72
2, 285835, Note_on_c, 0, 76, 74
2, 285839, Note_on_c, 0, 74, 0
2, 285846, Control_c, 0, 64, 71
2, 285858, Note_on_c, 0, 66, 48
2, 285864, Control_c, 0, 64, 70
2, 285883, Control_c, 0, 64, 68
2, 285903, Control_c, 0, 64, 65
2, 285909, Note_on_c, 0, 66, 0
2, 285922, Control_c, 0, 64, 64
2, 285941, Control_c, 0, 64, 64
2, 285960, Control_c, 0, 64, 63
2, 285980, Control_c, 0, 64, 62
2, 285999, Control_c, 0, 64, 61
2, 286018, Control_c, 0, 64, 60
2, 286037, Control_c, 0, 64, 59
2, 286057, Control_c, 0, 64, 59
2, 286075, Control_c, 0, 64, 58
2, 286095, Control_c, 0, 64, 57
2, 286112, Note_on_c, 0, 74, 62
2, 286114, Control_c, 0, 64, 55
2, 286130, Note_on_c, 0, 52, 41
2, 286134, Control_c, 0, 64, 53
2, 286147, Note_on_c, 0, 68, 46
2, 286147, Note_on_c, 0, 76, 0
2, 286152, Control_c, 0, 64, 52
2, 286171, Control_c, 0, 64, 51
2, 286191, Control_c, 0, 64, 50
2, 286209, Control_c, 0, 64, 49
2, 286229, Control_c, 0, 64, 48
2, 286248, Control_c, 0, 64, 47
2, 286268, Control_c, 0, 64, 46
2, 286286, Control_c, 0, 64, 44
2, 286306, Control_c, 0, 64, 42
2, 286325, Control_c, 0, 64, 40
2, 286344, Control_c, 0, 64, 38
2, 286359, Note_on_c, 0, 47, 0
2, 286363, Control_c, 0, 64, 38
2, 286376, Note_on_c, 0, 73, 65
2, 286383, Control_c, 0, 64, 37
2, 286388, Note_on_c, 0, 74, 0
2, 286395, Note_on_c, 0, 59, 0
2, 286402, Control_c, 0, 64, 35
2, 286421, Control_c, 0, 64, 32
2, 286440, Control_c, 0, 64, 27
2, 286460, Control_c, 0, 64, 20
2, 286479, Control_c, 0, 64, 0
2, 286614, Note_on_c, 0, 73, 0
2, 286644, Note_on_c, 0, 71, 63
2, 286653, Control_c, 0, 64, 21
2, 286672, Control_c, 0, 64, 45
2, 286690, Control_c, 0, 64, 56
2, 286710, Control_c, 0, 64, 60
2, 286729, Control_c, 0, 64, 63
2, 286749, Control_c, 0, 64, 65
2, 286767, Control_c, 0, 64, 68
2, 286779, Note_on_c, 0, 52, 0
2, 286787, Control_c, 0, 64, 73
2, 286806, Control_c, 0, 64, 82
2, 286825, Control_c, 0, 64, 96
2, 286844, Control_c, 0, 64, 127
2, 286911, Note_on_c, 0, 74, 73
2, 286922, Note_on_c, 0, 68, 0
2, 286930, Note_on_c, 0, 71, 0
2, 287042, Note_on_c, 0, 74, 0
2, 287257, Note_on_c, 0, 73, 78
2, 287308, Control_c, 0, 64, 121
2, 287320, Note_on_c, 0, 45, 32
2, 287327, Control_c, 0, 64, 79
2, 287330, Note_on_c, 0, 57, 42
2, 287347, Control_c, 0, 64, 62
2, 287366, Control_c, 0, 64, 39
2, 287385, Control_c, 0, 64, 13
2, 287404, Control_c, 0, 64, 11
2, 287423, Control_c, 0, 64, 19
2, 287442, Control_c, 0, 64, 44
2, 287461, Control_c, 0, 64, 59
2, 287481, Control_c, 0, 64, 64
2, 287500, Control_c, 0, 64, 66
2, 287519, Control_c, 0, 64, 67
2, 287538, Control_c, 0, 64, 69
2, 287558, Control_c, 0, 64, 71
2, 287577, Control_c, 0, 64, 71
2, 287596, Control_c, 0, 64, 70
2, 287614, Control_c, 0, 64, 69
2, 287628, Note_on_c, 0, 56, 60
2, 287634, Control_c, 0, 64, 67
2, 287666, Note_on_c, 0, 57, 0
2, 287691, Control_c, 0, 64, 67
2, 287711, Control_c, 0, 64, 65
2, 287729, Control_c, 0, 64, 62
2, 287749, Control_c, 0, 64, 58
2, 287768, Control_c, 0, 64, 56
2, 287786, Control_c, 0, 64, 54
2, 287804, Control_c, 0, 64, 51
2, 287823, Control_c, 0, 64, 47
2, 287843, Control_c, 0, 64, 45
2, 287861, Control_c, 0, 64, 43
2, 287881, Control_c, 0, 64, 42
2, 287893, Note_on_c, 0, 61, 66
2, 287915, Note_on_c, 0, 54, 43
2, 287920, Control_c, 0, 64, 41
2, 287938, Control_c, 0, 64, 41
2, 287938, Note_on_c, 0, 56, 0
2, 287977, Control_c, 0, 64, 39
2, 287997, Control_c, 0, 64, 37
2, 288015, Control_c, 0, 64, 35
2, 288035, Control_c, 0, 64, 33
2, 288054, Control_c, 0, 64, 32
2, 288081, Note_on_c, 0, 54, 0
2, 288112, Control_c, 0, 64, 33
2, 288114, Note_on_c, 0, 61, 0
2, 288131, Control_c, 0, 64, 34
2, 288150, Control_c, 0, 64, 35
2, 288152, Note_on_c, 0, 63, 64
2, 288169, Control_c, 0, 64, 35
2, 288192, Note_on_c, 0, 52, 36
2, 288303, Control_c, 0, 64, 36
2, 288341, Control_c, 0, 64, 37
2, 288361, Control_c, 0, 64, 37
2, 288387, Note_on_c, 0, 63, 0
2, 288435, Note_on_c, 0, 52, 0
2, 288438, Note_on_c, 0, 64, 56
2, 288444, Note_on_c, 0, 51, 40
2, 288457, Control_c, 0, 64, 37
2, 288495, Control_c, 0, 64, 36
2, 288612, Control_c, 0, 64, 36
2, 288632, Control_c, 0, 64, 35
2, 288646, Note_on_c, 0, 51, 0
2, 288651, Control_c, 0, 64, 33
2, 288671, Control_c, 0, 64, 32
2, 288689, Control_c, 0, 64, 32
2, 288690, Note_on_c, 0, 49, 51
2, 288709, Control_c, 0, 64, 31
2, 288765, Control_c, 0, 64, 31
2, 288785, Control_c, 0, 64, 29
2, 288804, Control_c, 0, 64, 25
2, 288822, Control_c, 0, 64, 18
2, 288842, Control_c, 0, 64, 0
2, 288893, Note_on_c, 0, 49, 0
2, 288953, Note_on_c, 0, 64, 0
2, 288957, Note_on_c, 0, 66, 50
2, 288974, Note_on_c, 0, 48, 32
2, 289067, Note_on_c, 0, 45, 0
2, 289073, Control_c, 0, 64, 40
2, 289092, Control_c, 0, 64, 53
2, 289111, Control_c, 0, 64, 58
2, 289130, Control_c, 0, 64, 61
2, 289150, Control_c, 0, 64, 63
2, 289168, Control_c, 0, 64, 64
2, 289188, Control_c, 0, 64, 65
2, 289207, Control_c, 0, 64, 66
2, 289227, Control_c, 0, 64, 68
2, 289232, Note_on_c, 0, 49, 47
2, 289238, Note_on_c, 0, 48, 0
2, 289245, Control_c, 0, 64, 70
2, 289265, Control_c, 0, 64, 73
2, 289284, Control_c, 0, 64, 77
2, 289302, Control_c, 0, 64, 83
2, 289318, Note_on_c, 0, 73, 0
2, 289322, Control_c, 0, 64, 88
2, 289341, Control_c, 0, 64, 90
2, 289361, Control_c, 0, 64, 91
2, 289456, Control_c, 0, 64, 90
2, 289476, Control_c, 0, 64, 88
2, 289495, Control_c, 0, 64, 85
2, 289496, Note_on_c, 0, 49, 0
2, 289514, Control_c, 0, 64, 83
2, 289533, Control_c, 0, 64, 82
2, 289537, Note_on_c, 0, 66, 0
2, 289553, Control_c, 0, 64, 81
2, 289572, Control_c, 0, 64, 76
2, 289576, Note_on_c, 0, 72, 61
2, 289591, Control_c, 0, 64, 68
2, 289606, Note_on_c, 0, 51, 30
2, 289610, Control_c, 0, 64, 61
2, 289611, Note_on_c, 0, 68, 35
2, 289625, Note_on_c, 0, 44, 22
2, 289630, Control_c, 0, 64, 52
2, 289648, Control_c, 0, 64, 41
2, 289668, Control_c, 0, 64, 17
2, 289687, Control_c, 0, 64, 0
2, 289752, Note_on_c, 0, 68, 0
2, 289765, Control_c, 0, 64, 44
2, 289783, Control_c, 0, 64, 59
2, 289803, Control_c, 0, 64, 63
2, 289822, Control_c, 0, 64, 65
2, 289842, Control_c, 0, 64, 67
2, 289860, Control_c, 0, 64, 70
2, 289880, Control_c, 0, 64, 74
2, 289899, Control_c, 0, 64, 81
2, 289917, Note_on_c, 0, 66, 37
2, 289918, Control_c, 0, 64, 92
2, 289937, Control_c, 0, 64, 110
2, 289957, Control_c, 0, 64, 127
2, 290072, Control_c, 0, 64, 115
2, 290091, Control_c, 0, 64, 81
2, 290111, Control_c, 0, 64, 68
2, 290129, Control_c, 0, 64, 62
2, 290149, Control_c, 0, 64, 61
2, 290154, Note_on_c, 0, 66, 0
2, 290168, Control_c, 0, 64, 63
2, 290172, Note_on_c, 0, 56, 64
2, 290172, Note_on_c, 0, 68, 47
2, 290186, Note_on_c, 0, 51, 0
2, 290187, Control_c, 0, 64, 65
2, 290206, Control_c, 0, 64, 68
2, 290225, Note_on_c, 0, 44, 0
2, 290226, Control_c, 0, 64, 76
2, 290245, Control_c, 0, 64, 86
2, 290263, Control_c, 0, 64, 99
2, 290283, Control_c, 0, 64, 127
2, 290356, Note_on_c, 0, 72, 0
2, 290404, Note_on_c, 0, 68, 0
2, 290434, Note_on_c, 0, 69, 66
2, 290714, Note_on_c, 0, 56, 0
2, 290716, Note_on_c, 0, 76, 75
2, 290724, Note_on_c, 0, 69, 0
2, 290739, Note_on_c, 0, 68, 58
2, 290743, Control_c, 0, 64, 105
2, 290750, Note_on_c, 0, 61, 47
2, 290763, Control_c, 0, 64, 76
2, 290782, Control_c, 0, 64, 60
2, 290802, Control_c, 0, 64, 36
2, 290820, Control_c, 0, 64, 0
2, 290897, Control_c, 0, 64, 31
2, 290917, Control_c, 0, 64, 56
2, 290918, Note_on_c, 0, 68, 0
2, 290936, Control_c, 0, 64, 63
2, 290955, Control_c, 0, 64, 66
2, 290974, Control_c, 0, 64, 69
2, 290983, Note_on_c, 0, 61, 0
2, 290994, Control_c, 0, 64, 74
2, 291002, Note_on_c, 0, 66, 67
2, 291012, Control_c, 0, 64, 82
2, 291032, Control_c, 0, 64, 90
2, 291051, Control_c, 0, 64, 109
2, 291071, Control_c, 0, 64, 127
2, 291243, Control_c, 0, 64, 97
2, 291246, Note_on_c, 0, 64, 66
2, 291252, Note_on_c, 0, 61, 68
2, 291262, Control_c, 0, 64, 74
2, 291282, Control_c, 0, 64, 63
2, 291293, Note_on_c, 0, 66, 0
2, 291300, Control_c, 0, 64, 60
2, 291320, Control_c, 0, 64, 61
2, 291339, Control_c, 0, 64, 64
2, 291357, Note_on_c, 0, 76, 0
2, 291358, Control_c, 0, 64, 68
2, 291377, Control_c, 0, 64, 75
2, 291397, Control_c, 0, 64, 89
2, 291416, Control_c, 0, 64, 116
2, 291435, Control_c, 0, 64, 127
2, 291510, Note_on_c, 0, 68, 80
2, 291511, Note_on_c, 0, 61, 0
2, 291570, Note_on_c, 0, 64, 0
2, 291800, Note_on_c, 0, 75, 82
2, 291825, Note_on_c, 0, 68, 0
2, 291834, Note_on_c, 0, 66, 52
2, 291838, Note_on_c, 0, 61, 53
2, 291893, Control_c, 0, 64, 97
2, 291912, Control_c, 0, 64, 71
2, 291931, Control_c, 0, 64, 57
2, 291951, Control_c, 0, 64, 13
2, 291970, Control_c, 0, 64, 0
2, 292028, Control_c, 0, 64, 48
2, 292047, Control_c, 0, 64, 60
2, 292066, Control_c, 0, 64, 64
2, 292085, Control_c, 0, 64, 66
2, 292093, Note_on_c, 0, 64, 69
2, 292105, Control_c, 0, 64, 68
2, 292107, Note_on_c, 0, 66, 0
2, 292123, Control_c, 0, 64, 70
2, 292142, Control_c, 0, 64, 71
2, 292219, Control_c, 0, 64, 71
2, 292239, Control_c, 0, 64, 70
2, 292257, Control_c, 0, 64, 69
2, 292277, Control_c, 0, 64, 67
2, 292296, Control_c, 0, 64, 65
2, 292316, Control_c, 0, 64, 63
2, 292334, Control_c, 0, 64, 60
2, 292343, Note_on_c, 0, 66, 71
2, 292354, Control_c, 0, 64, 55
2, 292355, Note_on_c, 0, 61, 0
2, 292357, Note_on_c, 0, 60, 58
2, 292373, Control_c, 0, 64, 49
2, 292379, Note_on_c, 0, 64, 0
2, 292392, Control_c, 0, 64, 44
2, 292411, Control_c, 0, 64, 41
2, 292431, Control_c, 0, 64, 40
2, 292488, Control_c, 0, 64, 41
2, 292546, Control_c, 0, 64, 40
2, 292565, Control_c, 0, 64, 36
2, 292584, Control_c, 0, 64, 32
2, 292602, Note_on_c, 0, 60, 0
2, 292603, Control_c, 0, 64, 27
2, 292608, Note_on_c, 0, 58, 61
2, 292608, Note_on_c, 0, 68, 74
2, 292621, Note_on_c, 0, 66, 0
2, 292622, Control_c, 0, 64, 24
2, 292642, Control_c, 0, 64, 23
2, 292737, Control_c, 0, 64, 21
2, 292757, Control_c, 0, 64, 17
2, 292776, Control_c, 0, 64, 0
2, 292864, Note_on_c, 0, 58, 0
2, 292879, Note_on_c, 0, 66, 59
2, 292908, Note_on_c, 0, 60, 39
2, 292922, Note_on_c, 0, 68, 0
2, 293122, Control_c, 0, 64, 9
2, 293138, Note_on_c, 0, 75, 0
2, 293141, Control_c, 0, 64, 13
2, 293154, Note_on_c, 0, 64, 51
2, 293160, Control_c, 0, 64, 15
2, 293170, Note_on_c, 0, 66, 0
2, 293294, Control_c, 0, 64, 17
2, 293333, Control_c, 0, 64, 19
2, 293352, Control_c, 0, 64, 20
2, 293417, Note_on_c, 0, 64, 0
2, 293427, Note_on_c, 0, 63, 47
2, 293544, Control_c, 0, 64, 21
2, 293621, Control_c, 0, 64, 20
2, 293640, Control_c, 0, 64, 19
2, 293697, Note_on_c, 0, 66, 41
2, 293700, Note_on_c, 0, 63, 0
2, 293813, Control_c, 0, 64, 18
2, 293832, Control_c, 0, 64, 17
2, 293851, Control_c, 0, 64, 15
2, 293958, Note_on_c, 0, 66, 0
2, 293993, Note_on_c, 0, 60, 0
2, 293997, Note_on_c, 0, 64, 36
2, 294009, Note_on_c, 0, 61, 29
2, 294082, Control_c, 0, 64, 13
2, 294216, Control_c, 0, 64, 17
2, 294236, Control_c, 0, 64, 26
2, 294251, Note_on_c, 0, 64, 0
2, 294254, Control_c, 0, 64, 38
2, 294274, Control_c, 0, 64, 48
2, 294275, Note_on_c, 0, 63, 45
2, 294293, Control_c, 0, 64, 53
2, 294312, Control_c, 0, 64, 56
2, 294331, Control_c, 0, 64, 58
2, 294351, Control_c, 0, 64, 59
2, 294370, Control_c, 0, 64, 60
2, 294389, Control_c, 0, 64, 61
2, 294408, Control_c, 0, 64, 62
2, 294428, Control_c, 0, 64, 63
2, 294447, Control_c, 0, 64, 63
2, 294466, Control_c, 0, 64, 64
2, 294468, Note_on_c, 0, 63, 0
2, 294485, Control_c, 0, 64, 65
2, 294504, Control_c, 0, 64, 67
2, 294522, Note_on_c, 0, 68, 56
2, 294524, Control_c, 0, 64, 70
2, 294543, Control_c, 0, 64, 74
2, 294560, Note_on_c, 0, 64, 36
2, 294563, Control_c, 0, 64, 80
2, 294582, Control_c, 0, 64, 89
2, 294601, Control_c, 0, 64, 99
2, 294620, Control_c, 0, 64, 118
2, 294640, Control_c, 0, 64, 127
2, 294779, Note_on_c, 0, 64, 0
2, 294796, Note_on_c, 0, 66, 52
2, 294808, Note_on_c, 0, 68, 0
2, 294988, Note_on_c, 0, 66, 0
2, 294995, Note_on_c, 0, 61, 0
2, 295064, Note_on_c, 0, 73, 63
2, 295100, Control_c, 0, 64, 104
2, 295107, Note_on_c, 0, 57, 40
2, 295119, Note_on_c, 0, 64, 35
2, 295120, Control_c, 0, 64, 82
2, 295138, Control_c, 0, 64, 68
2, 295158, Control_c, 0, 64, 55
2, 295177, Control_c, 0, 64, 0
2, 295254, Control_c, 0, 64, 42
2, 295273, Control_c, 0, 64, 58
2, 295292, Control_c, 0, 64, 63
2, 295312, Control_c, 0, 64, 66
2, 295331, Control_c, 0, 64, 70
2, 295335, Note_on_c, 0, 64, 0
2, 295350, Control_c, 0, 64, 76
2, 295353, Note_on_c, 0, 63, 60
2, 295354, Note_on_c, 0, 73, 0
2, 295369, Control_c, 0, 64, 84
2, 295389, Control_c, 0, 64, 96
2, 295407, Control_c, 0, 64, 127
2, 295463, Note_on_c, 0, 63, 0
2, 295603, Note_on_c, 0, 73, 75
2, 295623, Note_on_c, 0, 61, 52
2, 295636, Control_c, 0, 64, 91
2, 295655, Control_c, 0, 64, 71
2, 295675, Control_c, 0, 64, 59
2, 295693, Control_c, 0, 64, 43
2, 295713, Control_c, 0, 64, 35
2, 295732, Control_c, 0, 64, 35
2, 295752, Control_c, 0, 64, 45
2, 295770, Control_c, 0, 64, 58
2, 295790, Control_c, 0, 64, 63
2, 295809, Control_c, 0, 64, 67
2, 295828, Control_c, 0, 64, 71
2, 295847, Control_c, 0, 64, 77
2, 295861, Note_on_c, 0, 73, 0
2, 295867, Control_c, 0, 64, 86
2, 295875, Note_on_c, 0, 64, 75
2, 295881, Note_on_c, 0, 61, 0
2, 295886, Control_c, 0, 64, 92
2, 295904, Control_c, 0, 64, 98
2, 295924, Control_c, 0, 64, 104
2, 295943, Control_c, 0, 64, 127
2, 295996, Note_on_c, 0, 64, 0
2, 296175, Note_on_c, 0, 73, 79
2, 296217, Note_on_c, 0, 63, 49
2, 296232, Control_c, 0, 64, 89
2, 296232, Note_on_c, 0, 54, 43
2, 296252, Control_c, 0, 64, 67
2, 296272, Control_c, 0, 64, 50
2, 296291, Control_c, 0, 64, 0
2, 296329, Note_on_c, 0, 57, 0
2, 296349, Control_c, 0, 64, 26
2, 296365, Note_on_c, 0, 63, 0
2, 296367, Control_c, 0, 64, 51
2, 296387, Control_c, 0, 64, 61
2, 296406, Control_c, 0, 64, 64
2, 296424, Control_c, 0, 64, 67
2, 296443, Control_c, 0, 64, 70
2, 296462, Control_c, 0, 64, 76
2, 296467, Note_on_c, 0, 73, 0
2, 296482, Control_c, 0, 64, 83
2, 296494, Note_on_c, 0, 61, 60
2, 296501, Control_c, 0, 64, 91
2, 296520, Control_c, 0, 64, 100
2, 296539, Control_c, 0, 64, 123
2, 296559, Control_c, 0, 64, 127
2, 296562, Note_on_c, 0, 61, 0
2, 296732, Note_on_c, 0, 71, 76
2, 296751, Control_c, 0, 64, 90
2, 296770, Control_c, 0, 64, 68
2, 296776, Note_on_c, 0, 63, 39
2, 296789, Control_c, 0, 64, 56
2, 296808, Control_c, 0, 64, 45
2, 296828, Control_c, 0, 64, 46
2, 296847, Control_c, 0, 64, 50
2, 296866, Control_c, 0, 64, 56
2, 296885, Control_c, 0, 64, 61
2, 296904, Control_c, 0, 64, 64
2, 296907, Note_on_c, 0, 63, 0
2, 296923, Control_c, 0, 64, 67
2, 296942, Control_c, 0, 64, 71
2, 296962, Control_c, 0, 64, 79
2, 296981, Control_c, 0, 64, 85
2, 296996, Note_on_c, 0, 69, 74
2, 297000, Control_c, 0, 64, 87
2, 297016, Note_on_c, 0, 64, 55
2, 297019, Control_c, 0, 64, 89
2, 297022, Note_on_c, 0, 71, 0
2, 297039, Control_c, 0, 64, 90
2, 297057, Control_c, 0, 64, 91
2, 297126, Note_on_c, 0, 64, 0
2, 297173, Control_c, 0, 64, 90
2, 297192, Control_c, 0, 64, 88
2, 297212, Control_c, 0, 64, 84
2, 297232, Control_c, 0, 64, 78
2, 297251, Control_c, 0, 64, 74
2, 297259, Note_on_c, 0, 69, 0
2, 297270, Control_c, 0, 64, 70
2, 297275, Note_on_c, 0, 71, 63
2, 297289, Control_c, 0, 64, 68
2, 297298, Note_on_c, 0, 62, 42
2, 297308, Note_on_c, 0, 54, 0
2, 297309, Control_c, 0, 64, 65
2, 297311, Note_on_c, 0, 56, 43
2, 297327, Control_c, 0, 64, 63
2, 297347, Control_c, 0, 64, 62
2, 297366, Control_c, 0, 64, 60
2, 297385, Control_c, 0, 64, 59
2, 297403, Control_c, 0, 64, 58
2, 297422, Control_c, 0, 64, 57
2, 297442, Control_c, 0, 64, 56
2, 297461, Control_c, 0, 64, 55
2, 297480, Control_c, 0, 64, 54
2, 297498, Note_on_c, 0, 62, 0
2, 297499, Control_c, 0, 64, 53
2, 297519, Control_c, 0, 64, 52
2, 297537, Control_c, 0, 64, 51
2, 297543, Note_on_c, 0, 61, 56
2, 297557, Control_c, 0, 64, 50
2, 297614, Control_c, 0, 64, 50
2, 297634, Control_c, 0, 64, 49
2, 297653, Control_c, 0, 64, 48
2, 297672, Control_c, 0, 64, 47
2, 297691, Control_c, 0, 64, 46
2, 297711, Control_c, 0, 64, 43
2, 297730, Control_c, 0, 64, 40
2, 297749, Control_c, 0, 64, 37
2, 297768, Control_c, 0, 64, 34
2, 297769, Note_on_c, 0, 61, 0
2, 297788, Control_c, 0, 64, 29
2, 297807, Control_c, 0, 64, 22
2, 297812, Note_on_c, 0, 59, 41
2, 297825, Control_c, 0, 64, 0
2, 297941, Control_c, 0, 64, 26
2, 297960, Control_c, 0, 64, 42
2, 297979, Control_c, 0, 64, 55
2, 297999, Control_c, 0, 64, 61
2, 298017, Control_c, 0, 64, 64
2, 298019, Note_on_c, 0, 59, 0
2, 298037, Control_c, 0, 64, 65
2, 298056, Control_c, 0, 64, 68
2, 298072, Note_on_c, 0, 62, 39
2, 298076, Control_c, 0, 64, 72
2, 298094, Control_c, 0, 64, 77
2, 298114, Control_c, 0, 64, 83
2, 298133, Control_c, 0, 64, 89
2, 298152, Control_c, 0, 64, 94
2, 298172, Control_c, 0, 64, 104
2, 298192, Control_c, 0, 64, 127
2, 298285, Note_on_c, 0, 56, 0
2, 298323, Note_on_c, 0, 62, 0
2, 298362, Note_on_c, 0, 53, 58
2, 298384, Control_c, 0, 64, 89
2, 298389, Note_on_c, 0, 61, 39
2, 298404, Control_c, 0, 64, 70
2, 298422, Control_c, 0, 64, 58
2, 298442, Control_c, 0, 64, 47
2, 298461, Control_c, 0, 64, 46
2, 298481, Control_c, 0, 64, 47
2, 298499, Control_c, 0, 64, 51
2, 298519, Control_c, 0, 64, 58
2, 298538, Control_c, 0, 64, 63
2, 298538, Note_on_c, 0, 61, 0
2, 298557, Control_c, 0, 64, 66
2, 298576, Control_c, 0, 64, 70
2, 298596, Control_c, 0, 64, 76
2, 298615, Control_c, 0, 64, 85
2, 298634, Control_c, 0, 64, 94
2, 298647, Note_on_c, 0, 59, 64
2, 298653, Control_c, 0, 64, 100
2, 298673, Control_c, 0, 64, 106
2, 298692, Control_c, 0, 64, 116
2, 298711, Control_c, 0, 64, 127
2, 298894, Note_on_c, 0, 53, 0
2, 298898, Note_on_c, 0, 59, 0
2, 298902, Control_c, 0, 64, 108
2, 298909, Note_on_c, 0, 49, 69
2, 298911, Note_on_c, 0, 61, 63
2, 298922, Control_c, 0, 64, 79
2, 298941, Control_c, 0, 64, 65
2, 298961, Control_c, 0, 64, 50
2, 298965, Note_on_c, 0, 71, 0
2, 298979, Control_c, 0, 64, 29
2, 298999, Control_c, 0, 64, 0
2, 299076, Control_c, 0, 64, 43
2, 299095, Control_c, 0, 64, 59
2, 299114, Control_c, 0, 64, 64
2, 299133, Control_c, 0, 64, 66
2, 299143, Note_on_c, 0, 61, 0
2, 299153, Control_c, 0, 64, 69
2, 299172, Control_c, 0, 64, 74
2, 299177, Note_on_c, 0, 62, 66
2, 299191, Control_c, 0, 64, 80
2, 299210, Control_c, 0, 64, 87
2, 299230, Control_c, 0, 64, 95
2, 299248, Control_c, 0, 64, 103
2, 299268, Control_c, 0, 64, 123
2, 299287, Control_c, 0, 64, 127
2, 299421, Control_c, 0, 64, 95
2, 299424, Note_on_c, 0, 49, 0
2, 299441, Control_c, 0, 64, 73
2, 299447, Note_on_c, 0, 69, 76
2, 299453, Note_on_c, 0, 54, 58
2, 299459, Control_c, 0, 64, 51
2, 299468, Note_on_c, 0, 61, 56
2, 299470, Note_on_c, 0, 62, 0
2, 299479, Control_c, 0, 64, 0
2, 299575, Control_c, 0, 64, 52
2, 299594, Control_c, 0, 64, 63
2, 299613, Control_c, 0, 64, 66
2, 299633, Control_c, 0, 64, 70
2, 299652, Control_c, 0, 64, 76
2, 299657, Note_on_c, 0, 61, 0
2, 299671, Control_c, 0, 64, 88
2, 299685, Note_on_c, 0, 54, 0
2, 299690, Control_c, 0, 64, 118
2, 299710, Control_c, 0, 64, 127
2, 299722, Note_on_c, 0, 64, 75
2, 299959, Control_c, 0, 64, 96
2, 299978, Control_c, 0, 64, 71
2, 299981, Note_on_c, 0, 63, 73
2, 299984, Note_on_c, 0, 54, 78
2, 299997, Control_c, 0, 64, 52
2, 300016, Control_c, 0, 64, 0
2, 300027, Note_on_c, 0, 69, 0
2, 300070, Note_on_c, 0, 64, 0
2, 300074, Control_c, 0, 64, 29
2, 300093, Control_c, 0, 64, 56
2, 300113, Control_c, 0, 64, 64
2, 300132, Control_c, 0, 64, 70
2, 300151, Control_c, 0, 64, 79
2, 300169, Note_on_c, 0, 54, 0
2, 300170, Control_c, 0, 64, 96
2, 300190, Control_c, 0, 64, 127
2, 300249, Note_on_c, 0, 61, 86
2, 300288, Note_on_c, 0, 63, 0
2, 300609, Note_on_c, 0, 68, 91
2, 300632, Note_on_c, 0, 61, 0
2, 300633, Note_on_c, 0, 60, 63
2, 300634, Note_on_c, 0, 56, 68
2, 300643, Note_on_c, 0, 54, 68
2, 300688, Control_c, 0, 64, 91
2, 300708, Control_c, 0, 64, 71
2, 300727, Control_c, 0, 64, 58
2, 300747, Control_c, 0, 64, 20
2, 300768, Control_c, 0, 64, 0
2, 300845, Control_c, 0, 64, 25
2, 300864, Control_c, 0, 64, 51
2, 300884, Control_c, 0, 64, 60
2, 300898, Note_on_c, 0, 56, 0
2, 300902, Control_c, 0, 64, 63
2, 300922, Control_c, 0, 64, 66
2, 300941, Control_c, 0, 64, 69
2, 300960, Control_c, 0, 64, 75
2, 300979, Control_c, 0, 64, 83
2, 300982, Note_on_c, 0, 60, 0
2, 300999, Control_c, 0, 64, 96
2, 301018, Control_c, 0, 64, 127
2, 301049, Note_on_c, 0, 54, 0
2, 301192, Note_on_c, 0, 52, 75
2, 301197, Note_on_c, 0, 44, 69
2, 301267, Control_c, 0, 64, 100
2, 301287, Control_c, 0, 64, 71
2, 301305, Control_c, 0, 64, 51
2, 301325, Control_c, 0, 64, 0
2, 301446, Note_on_c, 0, 51, 74
2, 301459, Control_c, 0, 64, 48
2, 301468, Note_on_c, 0, 52, 0
2, 301479, Control_c, 0, 64, 61
2, 301498, Control_c, 0, 64, 64
2, 301516, Control_c, 0, 64, 67
2, 301536, Control_c, 0, 64, 71
2, 301555, Control_c, 0, 64, 76
2, 301575, Control_c, 0, 64, 83
2, 301593, Control_c, 0, 64, 91
2, 301613, Control_c, 0, 64, 98
2, 301632, Control_c, 0, 64, 105
2, 301651, Control_c, 0, 64, 109
2, 301670, Control_c, 0, 64, 108
2, 301690, Control_c, 0, 64, 107
2, 301696, Note_on_c, 0, 51, 0
2, 301707, Control_c, 0, 64, 106
2, 301725, Control_c, 0, 64, 106
2, 301728, Note_on_c, 0, 44, 0
2, 301744, Control_c, 0, 64, 102
2, 301750, Note_on_c, 0, 61, 84
2, 301759, Note_on_c, 0, 52, 75
2, 301764, Control_c, 0, 64, 89
2, 301769, Note_on_c, 0, 49, 68
2, 301782, Control_c, 0, 64, 70
2, 301802, Control_c, 0, 64, 56
2, 301817, Note_on_c, 0, 68, 0
2, 301821, Control_c, 0, 64, 27
2, 301841, Control_c, 0, 64, 0
2, 301994, Control_c, 0, 64, 47
2, 302013, Control_c, 0, 64, 62
2, 302033, Control_c, 0, 64, 66
2, 302037, Note_on_c, 0, 49, 0
2, 302052, Control_c, 0, 64, 69
2, 302071, Control_c, 0, 64, 78
2, 302090, Control_c, 0, 64, 95
2, 302110, Control_c, 0, 64, 127
2, 302287, Note_on_c, 0, 61, 0
2, 302323, Note_on_c, 0, 49, 86
2, 302362, Note_on_c, 0, 52, 0
2, 302424, Note_on_c, 0, 49, 0
2, 302992, Note_on_c, 0, 75, 97
2, 303018, Note_on_c, 0, 55, 59
2, 303022, Note_on_c, 0, 63, 66
2, 303029, Note_on_c, 0, 51, 56
2, 303037, Note_on_c, 0, 49, 54
2, 303106, Control_c, 0, 64, 77
2, 303126, Control_c, 0, 64, 60
2, 303145, Control_c, 0, 64, 0
2, 303261, Control_c, 0, 64, 42
2, 303281, Control_c, 0, 64, 59
2, 303299, Control_c, 0, 64, 65
2, 303317, Note_on_c, 0, 63, 0
2, 303319, Control_c, 0, 64, 69
2, 303338, Control_c, 0, 64, 76
2, 303357, Control_c, 0, 64, 95
2, 303376, Control_c, 0, 64, 127
2, 303445, Note_on_c, 0, 49, 0
2, 303668, Note_on_c, 0, 63, 83
2, 303698, Note_on_c, 0, 47, 62
2, 303816, Note_on_c, 0, 55, 0
2, 303841, Note_on_c, 0, 51, 0
2, 303934, Note_on_c, 0, 46, 72
2, 303941, Note_on_c, 0, 47, 0
2, 304165, Note_on_c, 0, 46, 0
2, 304193, Note_on_c, 0, 68, 83
2, 304195, Note_on_c, 0, 47, 47
2, 304202, Note_on_c, 0, 56, 61
2, 304219, Control_c, 0, 64, 88
2, 304238, Control_c, 0, 64, 70
2, 304257, Control_c, 0, 64, 61
2, 304276, Control_c, 0, 64, 59
2, 304305, Note_on_c, 0, 63, 0
2, 304333, Control_c, 0, 64, 59
2, 304353, Control_c, 0, 64, 58
2, 304372, Control_c, 0, 64, 56
2, 304391, Control_c, 0, 64, 55
2, 304410, Control_c, 0, 64, 54
2, 304427, Note_on_c, 0, 47, 0
2, 304430, Control_c, 0, 64, 52
2, 304440, Note_on_c, 0, 70, 75
2, 304442, Note_on_c, 0, 46, 59
2, 304449, Control_c, 0, 64, 48
2, 304468, Control_c, 0, 64, 45
2, 304487, Control_c, 0, 64, 42
2, 304507, Control_c, 0, 64, 36
2, 304510, Note_on_c, 0, 68, 0
2, 304525, Control_c, 0, 64, 20
2, 304545, Control_c, 0, 64, 0
2, 304655, Note_on_c, 0, 56, 0
2, 304659, Note_on_c, 0, 46, 0
2, 304691, Note_on_c, 0, 71, 74
2, 304723, Note_on_c, 0, 44, 44
2, 304748, Note_on_c, 0, 70, 0
2, 304794, Control_c, 0, 64, 24
2, 304813, Control_c, 0, 64, 57
2, 304833, Control_c, 0, 64, 62
2, 304852, Control_c, 0, 64, 64
2, 304871, Control_c, 0, 64, 67
2, 304890, Control_c, 0, 64, 73
2, 304910, Control_c, 0, 64, 83
2, 304929, Control_c, 0, 64, 108
2, 304948, Control_c, 0, 64, 127
2, 304961, Note_on_c, 0, 47, 61
2, 304968, Note_on_c, 0, 75, 0
2, 305001, Note_on_c, 0, 47, 0
2, 305074, Note_on_c, 0, 71, 0
2, 305250, Note_on_c, 0, 44, 0
2, 305271, Note_on_c, 0, 74, 80
2, 305293, Control_c, 0, 64, 118
2, 305313, Control_c, 0, 64, 79
2, 305328, Note_on_c, 0, 53, 41
2, 305332, Control_c, 0, 64, 63
2, 305339, Note_on_c, 0, 46, 33
2, 305351, Control_c, 0, 64, 36
2, 305370, Control_c, 0, 64, 0
2, 305428, Control_c, 0, 64, 44
2, 305447, Control_c, 0, 64, 60
2, 305467, Control_c, 0, 64, 64
2, 305485, Control_c, 0, 64, 66
2, 305505, Control_c, 0, 64, 69
2, 305524, Control_c, 0, 64, 73
2, 305544, Control_c, 0, 64, 77
2, 305562, Control_c, 0, 64, 78
2, 305570, Note_on_c, 0, 46, 0
2, 305601, Control_c, 0, 64, 77
2, 305613, Note_on_c, 0, 44, 58
2, 305620, Control_c, 0, 64, 75
2, 305639, Control_c, 0, 64, 72
2, 305659, Control_c, 0, 64, 69
2, 305678, Control_c, 0, 64, 64
2, 305697, Control_c, 0, 64, 57
2, 305716, Control_c, 0, 64, 43
2, 305735, Control_c, 0, 64, 26
2, 305754, Control_c, 0, 64, 0
2, 305812, Control_c, 0, 64, 26
2, 305812, Note_on_c, 0, 44, 0
2, 305831, Control_c, 0, 64, 51
2, 305850, Control_c, 0, 64, 61
2, 305860, Note_on_c, 0, 70, 83
2, 305870, Control_c, 0, 64, 65
2, 305889, Control_c, 0, 64, 68
2, 305890, Note_on_c, 0, 46, 51
2, 305908, Control_c, 0, 64, 77
2, 305927, Control_c, 0, 64, 90
2, 305947, Control_c, 0, 64, 110
2, 305965, Control_c, 0, 64, 127
2, 305992, Note_on_c, 0, 74, 0
2, 306090, Note_on_c, 0, 46, 0
2, 306127, Note_on_c, 0, 47, 75
2, 306355, Note_on_c, 0, 53, 0
2, 306386, Note_on_c, 0, 78, 88
2, 306403, Note_on_c, 0, 75, 73
2, 306424, Note_on_c, 0, 46, 60
2, 306427, Control_c, 0, 64, 94
2, 306429, Note_on_c, 0, 70, 0
2, 306445, Control_c, 0, 64, 70
2, 306465, Control_c, 0, 64, 51
2, 306484, Control_c, 0, 64, 17
2, 306492, Note_on_c, 0, 47, 0
2, 306504, Control_c, 0, 64, 0
2, 306580, Control_c, 0, 64, 13
2, 306599, Control_c, 0, 64, 53
2, 306619, Control_c, 0, 64, 63
2, 306638, Control_c, 0, 64, 66
2, 306657, Control_c, 0, 64, 71
2, 306669, Note_on_c, 0, 46, 0
2, 306676, Control_c, 0, 64, 78
2, 306676, Note_on_c, 0, 75, 0
2, 306678, Note_on_c, 0, 44, 72
2, 306695, Control_c, 0, 64, 88
2, 306714, Control_c, 0, 64, 103
2, 306733, Control_c, 0, 64, 127
2, 306917, Note_on_c, 0, 44, 0
2, 306941, Note_on_c, 0, 75, 88
2, 306963, Control_c, 0, 64, 102
2, 306964, Note_on_c, 0, 42, 58
2, 306983, Control_c, 0, 64, 72
2, 306999, Control_c, 0, 64, 56
2, 307019, Control_c, 0, 64, 0
2, 307076, Control_c, 0, 64, 24
2, 307095, Control_c, 0, 64, 51
2, 307109, Note_on_c, 0, 78, 0
2, 307115, Control_c, 0, 64, 62
2, 307134, Control_c, 0, 64, 65
2, 307153, Control_c, 0, 64, 70
2, 307172, Control_c, 0, 64, 77
2, 307192, Control_c, 0, 64, 87
2, 307210, Control_c, 0, 64, 103
2, 307212, Note_on_c, 0, 46, 73
2, 307215, Note_on_c, 0, 42, 0
2, 307230, Control_c, 0, 64, 127
2, 307253, Note_on_c, 0, 75, 0
2, 307511, Note_on_c, 0, 77, 85
2, 307535, Note_on_c, 0, 75, 70
2, 307554, Note_on_c, 0, 44, 51
2, 307614, Control_c, 0, 64, 86
2, 307633, Control_c, 0, 64, 70
2, 307652, Control_c, 0, 64, 62
2, 307653, Note_on_c, 0, 46, 0
2, 307672, Control_c, 0, 64, 59
2, 307690, Control_c, 0, 64, 59
2, 307710, Control_c, 0, 64, 57
2, 307729, Control_c, 0, 64, 56
2, 307749, Control_c, 0, 64, 55
2, 307807, Note_on_c, 0, 42, 68
2, 307824, Note_on_c, 0, 44, 0
2, 307827, Control_c, 0, 64, 54
2, 307846, Control_c, 0, 64, 53
2, 307866, Control_c, 0, 64, 51
2, 307884, Control_c, 0, 64, 50
2, 307904, Control_c, 0, 64, 49
2, 307923, Control_c, 0, 64, 48
2, 307960, Control_c, 0, 64, 49
2, 307980, Control_c, 0, 64, 50
2, 307999, Control_c, 0, 64, 51
2, 308075, Note_on_c, 0, 73, 73
2, 308076, Control_c, 0, 64, 50
2, 308087, Note_on_c, 0, 44, 53
2, 308114, Control_c, 0, 64, 50
2, 308127, Note_on_c, 0, 42, 0
2, 308191, Control_c, 0, 64, 50
2, 308196, Note_on_c, 0, 75, 0
2, 308210, Control_c, 0, 64, 51
2, 308230, Control_c, 0, 64, 51
2, 308305, Note_on_c, 0, 44, 0
2, 308340, Note_on_c, 0, 72, 72
2, 308343, Note_on_c, 0, 46, 53
2, 308357, Note_on_c, 0, 73, 0
2, 308402, Control_c, 0, 64, 52
2, 308422, Control_c, 0, 64, 52
2, 308460, Control_c, 0, 64, 53
2, 308479, Control_c, 0, 64, 52
2, 308559, Note_on_c, 0, 46, 0
2, 308592, Note_on_c, 0, 76, 72
2, 308604, Note_on_c, 0, 44, 38
2, 308613, Control_c, 0, 64, 53
2, 308621, Note_on_c, 0, 72, 0
2, 308626, Note_on_c, 0, 73, 49
2, 308633, Control_c, 0, 64, 53
2, 308690, Control_c, 0, 64, 53
2, 308710, Control_c, 0, 64, 52
2, 308712, Note_on_c, 0, 77, 0
2, 308841, Note_on_c, 0, 44, 0
2, 308860, Note_on_c, 0, 47, 54
2, 308867, Control_c, 0, 64, 53
2, 308886, Control_c, 0, 64, 52
2, 308921, Control_c, 0, 64, 52
2, 309075, Control_c, 0, 64, 51
2, 309123, Note_on_c, 0, 47, 0
2, 309126, Note_on_c, 0, 46, 58
2, 309152, Control_c, 0, 64, 51
2, 309306, Control_c, 0, 64, 50
2, 309344, Control_c, 0, 64, 50
2, 309363, Control_c, 0, 64, 49
2, 309375, Note_on_c, 0, 46, 0
2, 309389, Note_on_c, 0, 44, 53
2, 309574, Control_c, 0, 64, 49
2, 309674, Note_on_c, 0, 44, 0
2, 309712, Note_on_c, 0, 73, 0
2, 309721, Note_on_c, 0, 75, 57
2, 309730, Note_on_c, 0, 43, 51
2, 309767, Control_c, 0, 64, 48
2, 309769, Note_on_c, 0, 76, 0
2, 309902, Control_c, 0, 64, 48
2, 309921, Control_c, 0, 64, 47
2, 309940, Control_c, 0, 64, 46
2, 309959, Control_c, 0, 64, 45
2, 309970, Note_on_c, 0, 75, 0
2, 309979, Control_c, 0, 64, 45
2, 309988, Note_on_c, 0, 73, 56
2, 309998, Control_c, 0, 64, 44
2, 310036, Control_c, 0, 64, 44
2, 310055, Control_c, 0, 64, 43
2, 310074, Control_c, 0, 64, 42
2, 310093, Control_c, 0, 64, 41
2, 310113, Control_c, 0, 64, 39
2, 310132, Control_c, 0, 64, 38
2, 310209, Control_c, 0, 64, 40
2, 310228, Control_c, 0, 64, 44
2, 310247, Control_c, 0, 64, 51
2, 310265, Note_on_c, 0, 51, 58
2, 310267, Control_c, 0, 64, 57
2, 310274, Note_on_c, 0, 75, 57
2, 310285, Control_c, 0, 64, 61
2, 310305, Control_c, 0, 64, 63
2, 310324, Control_c, 0, 64, 65
2, 310328, Note_on_c, 0, 73, 0
2, 310344, Control_c, 0, 64, 66
2, 310362, Control_c, 0, 64, 70
2, 310382, Control_c, 0, 64, 75
2, 310401, Control_c, 0, 64, 83
2, 310420, Control_c, 0, 64, 94
2, 310424, Note_on_c, 0, 43, 0
2, 310439, Control_c, 0, 64, 117
2, 310459, Control_c, 0, 64, 127
2, 310528, Note_on_c, 0, 76, 66
2, 310532, Note_on_c, 0, 75, 0
2, 310799, Note_on_c, 0, 56, 62
2, 310805, Note_on_c, 0, 75, 66
2, 310807, Note_on_c, 0, 71, 56
2, 310822, Control_c, 0, 64, 119
2, 310831, Note_on_c, 0, 44, 47
2, 310839, Control_c, 0, 64, 81
2, 310855, Note_on_c, 0, 51, 0
2, 310856, Note_on_c, 0, 76, 0
2, 310859, Control_c, 0, 64, 62
2, 310878, Control_c, 0, 64, 9
2, 310898, Control_c, 0, 64, 0
2, 310993, Control_c, 0, 64, 52
2, 311012, Control_c, 0, 64, 61
2, 311032, Control_c, 0, 64, 64
2, 311050, Control_c, 0, 64, 66
2, 311070, Control_c, 0, 64, 70
2, 311084, Note_on_c, 0, 73, 71
2, 311086, Note_on_c, 0, 45, 59
2, 311089, Control_c, 0, 64, 77
2, 311109, Control_c, 0, 64, 93
2, 311124, Note_on_c, 0, 56, 0
2, 311127, Control_c, 0, 64, 127
2, 311136, Note_on_c, 0, 71, 0
2, 311147, Note_on_c, 0, 75, 0
2, 311228, Note_on_c, 0, 45, 0
2, 311256, Note_on_c, 0, 44, 0
2, 311324, Note_on_c, 0, 71, 74
2, 311345, Note_on_c, 0, 56, 78
2, 311365, Note_on_c, 0, 73, 0
2, 311378, Control_c, 0, 64, 103
2, 311396, Control_c, 0, 64, 70
2, 311415, Control_c, 0, 64, 44
2, 311435, Control_c, 0, 64, 0
2, 311454, Control_c, 0, 64, 18
2, 311473, Control_c, 0, 64, 51
2, 311492, Control_c, 0, 64, 64
2, 311512, Control_c, 0, 64, 70
2, 311530, Control_c, 0, 64, 84
2, 311550, Control_c, 0, 64, 127
2, 311596, Note_on_c, 0, 75, 84
2, 311614, Note_on_c, 0, 56, 0
2, 311614, Note_on_c, 0, 71, 0
2, 311913, Note_on_c, 0, 56, 80
2, 311915, Note_on_c, 0, 73, 68
2, 311923, Note_on_c, 0, 70, 63
2, 311931, Note_on_c, 0, 75, 0
2, 311953, Note_on_c, 0, 46, 57
2, 312010, Control_c, 0, 64, 102
2, 312030, Control_c, 0, 64, 70
2, 312049, Control_c, 0, 64, 46
2, 312069, Control_c, 0, 64, 0
2, 312145, Control_c, 0, 64, 23
2, 312164, Control_c, 0, 64, 52
2, 312184, Control_c, 0, 64, 62
2, 312200, Note_on_c, 0, 71, 73
2, 312203, Control_c, 0, 64, 66
2, 312219, Note_on_c, 0, 73, 0
2, 312222, Control_c, 0, 64, 70
2, 312241, Control_c, 0, 64, 79
2, 312261, Control_c, 0, 64, 97
2, 312279, Control_c, 0, 64, 127
2, 312433, Control_c, 0, 64, 87
2, 312452, Control_c, 0, 64, 66
2, 312459, Note_on_c, 0, 54, 67
2, 312461, Note_on_c, 0, 73, 78
2, 312472, Control_c, 0, 64, 54
2, 312490, Control_c, 0, 64, 51
2, 312510, Control_c, 0, 64, 58
2, 312510, Note_on_c, 0, 71, 0
2, 312529, Control_c, 0, 64, 63
2, 312549, Control_c, 0, 64, 67
2, 312552, Note_on_c, 0, 56, 0
2, 312569, Control_c, 0, 64, 74
2, 312589, Control_c, 0, 64, 87
2, 312608, Control_c, 0, 64, 121
2, 312627, Control_c, 0, 64, 127
2, 312717, Note_on_c, 0, 75, 88
2, 312718, Note_on_c, 0, 52, 70
2, 312723, Note_on_c, 0, 54, 0
2, 312759, Note_on_c, 0, 73, 0
2, 312768, Note_on_c, 0, 70, 0
2, 312993, Control_c, 0, 64, 102
2, 313001, Note_on_c, 0, 73, 83
2, 313012, Control_c, 0, 64, 83
2, 313021, Note_on_c, 0, 69, 64
2, 313031, Control_c, 0, 64, 73
2, 313036, Note_on_c, 0, 51, 46
2, 313039, Note_on_c, 0, 75, 0
2, 313044, Note_on_c, 0, 54, 46
2, 313050, Control_c, 0, 64, 67
2, 313070, Control_c, 0, 64, 61
2, 313086, Note_on_c, 0, 46, 0
2, 313089, Control_c, 0, 64, 49
2, 313108, Control_c, 0, 64, 9
2, 313110, Note_on_c, 0, 52, 0
2, 313127, Control_c, 0, 64, 0
2, 313266, Note_on_c, 0, 76, 79
2, 313301, Note_on_c, 0, 73, 0
2, 313473, Control_c, 0, 64, 15
2, 313492, Control_c, 0, 64, 41
2, 313511, Control_c, 0, 64, 55
2, 313527, Note_on_c, 0, 75, 79
2, 313528, Control_c, 0, 64, 63
2, 313548, Control_c, 0, 64, 66
2, 313567, Control_c, 0, 64, 69
2, 313567, Note_on_c, 0, 76, 0
2, 313586, Control_c, 0, 64, 75
2, 313605, Control_c, 0, 64, 86
2, 313625, Control_c, 0, 64, 110
2, 313644, Control_c, 0, 64, 127
2, 313789, Note_on_c, 0, 73, 84
2, 313798, Note_on_c, 0, 75, 0
2, 313853, Note_on_c, 0, 69, 0
2, 313899, Note_on_c, 0, 51, 0
2, 314006, Note_on_c, 0, 54, 0
2, 314020, Note_on_c, 0, 44, 49
2, 314143, Control_c, 0, 64, 103
2, 314157, Note_on_c, 0, 72, 84
2, 314157, Note_on_c, 0, 73, 0
2, 314162, Control_c, 0, 64, 81
2, 314182, Control_c, 0, 64, 67
2, 314200, Control_c, 0, 64, 36
2, 314220, Control_c, 0, 64, 0
2, 314334, Control_c, 0, 64, 36
2, 314354, Control_c, 0, 64, 53
2, 314373, Control_c, 0, 64, 60
2, 314384, Note_on_c, 0, 44, 0
2, 314393, Control_c, 0, 64, 65
2, 314411, Control_c, 0, 64, 72
2, 314431, Control_c, 0, 64, 87
2, 314450, Control_c, 0, 64, 127
2, 314488, Note_on_c, 0, 57, 68
2, 314702, Note_on_c, 0, 57, 0
2, 314749, Note_on_c, 0, 63, 83
2, 314756, Note_on_c, 0, 56, 60
2, 314797, Control_c, 0, 64, 104
2, 314815, Control_c, 0, 64, 75
2, 314835, Control_c, 0, 64, 62
2, 314854, Control_c, 0, 64, 28
2, 314874, Control_c, 0, 64, 0
2, 314892, Control_c, 0, 64, 20
2, 314912, Control_c, 0, 64, 49
2, 314931, Control_c, 0, 64, 59
2, 314950, Control_c, 0, 64, 62
2, 314969, Control_c, 0, 64, 64
2, 314986, Note_on_c, 0, 56, 0
2, 314989, Control_c, 0, 64, 66
2, 315008, Control_c, 0, 64, 69
2, 315021, Note_on_c, 0, 54, 67
2, 315027, Control_c, 0, 64, 76
2, 315046, Control_c, 0, 64, 88
2, 315066, Control_c, 0, 64, 106
2, 315084, Control_c, 0, 64, 127
2, 315220, Note_on_c, 0, 54, 0
2, 315249, Note_on_c, 0, 63, 0
2, 315279, Note_on_c, 0, 71, 84
2, 315295, Control_c, 0, 64, 83
2, 315295, Note_on_c, 0, 53, 59
2, 315303, Note_on_c, 0, 68, 66
2, 315311, Note_on_c, 0, 72, 0
2, 315315, Control_c, 0, 64, 66
2, 315334, Control_c, 0, 64, 49
2, 315354, Control_c, 0, 64, 0
2, 315452, Control_c, 0, 64, 25
2, 315472, Control_c, 0, 64, 54
2, 315491, Control_c, 0, 64, 61
2, 315510, Control_c, 0, 64, 63
2, 315529, Control_c, 0, 64, 66
2, 315533, Note_on_c, 0, 51, 67
2, 315548, Control_c, 0, 64, 76
2, 315554, Note_on_c, 0, 53, 0
2, 315567, Control_c, 0, 64, 100
2, 315575, Note_on_c, 0, 68, 0
2, 315586, Control_c, 0, 64, 127
2, 315794, Note_on_c, 0, 51, 0
2, 315797, Control_c, 0, 64, 87
2, 315815, Note_on_c, 0, 68, 88
2, 315816, Control_c, 0, 64, 66
2, 315834, Note_on_c, 0, 53, 62
2, 315836, Control_c, 0, 64, 35
2, 315854, Control_c, 0, 64, 0
2, 315913, Note_on_c, 0, 71, 0
2, 315931, Control_c, 0, 64, 19
2, 315951, Control_c, 0, 64, 54
2, 315970, Control_c, 0, 64, 60
2, 315988, Control_c, 0, 64, 63
2, 316008, Control_c, 0, 64, 67
2, 316027, Control_c, 0, 64, 75
2, 316047, Control_c, 0, 64, 99
2, 316059, Note_on_c, 0, 49, 79
2, 316065, Control_c, 0, 64, 127
2, 316078, Note_on_c, 0, 68, 0
2, 316130, Note_on_c, 0, 53, 0
2, 316367, Note_on_c, 0, 70, 85
2, 316382, Note_on_c, 0, 68, 76
2, 316391, Note_on_c, 0, 54, 58
2, 316411, Control_c, 0, 64, 84
2, 316431, Control_c, 0, 64, 65
2, 316450, Control_c, 0, 64, 0
2, 316470, Note_on_c, 0, 49, 0
2, 316604, Control_c, 0, 64, 48
2, 316623, Control_c, 0, 64, 58
2, 316643, Control_c, 0, 64, 62
2, 316652, Note_on_c, 0, 54, 0
2, 316660, Note_on_c, 0, 53, 70
2, 316662, Control_c, 0, 64, 64
2, 316681, Control_c, 0, 64, 66
2, 316700, Control_c, 0, 64, 72
2, 316720, Control_c, 0, 64, 85
2, 316738, Control_c, 0, 64, 116
2, 316758, Control_c, 0, 64, 127
2, 316908, Note_on_c, 0, 66, 80
2, 316914, Note_on_c, 0, 54, 70
2, 316945, Note_on_c, 0, 53, 0
2, 316980, Note_on_c, 0, 68, 0
2, 317128, Note_on_c, 0, 70, 0
2, 317142, Control_c, 0, 64, 110
2, 317152, Note_on_c, 0, 54, 0
2, 317156, Note_on_c, 0, 65, 80
2, 317161, Control_c, 0, 64, 90
2, 317161, Note_on_c, 0, 56, 77
2, 317180, Control_c, 0, 64, 80
2, 317194, Note_on_c, 0, 66, 0
2, 317200, Control_c, 0, 64, 73
2, 317218, Control_c, 0, 64, 70
2, 317238, Control_c, 0, 64, 67
2, 317257, Control_c, 0, 64, 66
2, 317277, Control_c, 0, 64, 64
2, 317295, Control_c, 0, 64, 62
2, 317315, Control_c, 0, 64, 59
2, 317334, Control_c, 0, 64, 58
2, 317353, Control_c, 0, 64, 57
2, 317372, Control_c, 0, 64, 57
2, 317392, Control_c, 0, 64, 55
2, 317409, Note_on_c, 0, 56, 0
2, 317409, Note_on_c, 0, 69, 83
2, 317411, Control_c, 0, 64, 49
2, 317430, Control_c, 0, 64, 41
2, 317431, Note_on_c, 0, 66, 69
2, 317440, Note_on_c, 0, 65, 0
2, 317442, Note_on_c, 0, 57, 69
2, 317449, Control_c, 0, 64, 29
2, 317468, Control_c, 0, 64, 13
2, 317487, Control_c, 0, 64, 0
2, 317689, Note_on_c, 0, 56, 81
2, 317691, Note_on_c, 0, 57, 0
2, 317934, Note_on_c, 0, 56, 0
2, 317967, Note_on_c, 0, 57, 80
2, 318044, Control_c, 0, 64, 39
2, 318063, Control_c, 0, 64, 57
2, 318083, Control_c, 0, 64, 64
2, 318102, Control_c, 0, 64, 68
2, 318121, Control_c, 0, 64, 75
2, 318140, Control_c, 0, 64, 100
2, 318157, Note_on_c, 0, 57, 0
2, 318160, Control_c, 0, 64, 127
2, 318211, Note_on_c, 0, 69, 0
2, 318228, Note_on_c, 0, 59, 82
2, 318612, Note_on_c, 0, 37, 95
2, 318616, Note_on_c, 0, 68, 80
2, 318631, Note_on_c, 0, 61, 67
2, 318694, Control_c, 0, 64, 107
2, 318714, Control_c, 0, 64, 83
2, 318716, Note_on_c, 0, 59, 0
2, 318732, Control_c, 0, 64, 74
2, 318752, Control_c, 0, 64, 68
2, 318771, Control_c, 0, 64, 65
2, 318790, Control_c, 0, 64, 63
2, 318809, Control_c, 0, 64, 61
2, 318829, Control_c, 0, 64, 57
2, 318848, Control_c, 0, 64, 49
2, 318867, Control_c, 0, 64, 34
2, 318886, Control_c, 0, 64, 0
2, 318991, Note_on_c, 0, 60, 77
2, 318991, Note_on_c, 0, 61, 0
2, 319274, Note_on_c, 0, 61, 76
2, 319328, Note_on_c, 0, 60, 0
2, 319527, Note_on_c, 0, 63, 79
2, 319585, Note_on_c, 0, 61, 0
2, 319826, Note_on_c, 0, 64, 84
2, 319832, Note_on_c, 0, 63, 0
2, 319844, Note_on_c, 0, 66, 0
2, 320087, Note_on_c, 0, 63, 76
2, 320135, Control_c, 0, 64, 36
2, 320143, Note_on_c, 0, 64, 0
2, 320155, Control_c, 0, 64, 50
2, 320173, Control_c, 0, 64, 48
2, 320193, Control_c, 0, 64, 44
2, 320212, Control_c, 0, 64, 44
2, 320231, Control_c, 0, 64, 49
2, 320249, Control_c, 0, 64, 56
2, 320269, Control_c, 0, 64, 61
2, 320288, Control_c, 0, 64, 63
2, 320307, Control_c, 0, 64, 64
2, 320326, Control_c, 0, 64, 65
2, 320346, Control_c, 0, 64, 68
2, 320346, Note_on_c, 0, 64, 72
2, 320348, Note_on_c, 0, 63, 0
2, 320364, Control_c, 0, 64, 71
2, 320384, Control_c, 0, 64, 75
2, 320403, Control_c, 0, 64, 78
2, 320422, Control_c, 0, 64, 80
2, 320440, Control_c, 0, 64, 80
2, 320460, Control_c, 0, 64, 82
2, 320479, Control_c, 0, 64, 86
2, 320498, Control_c, 0, 64, 93
2, 320517, Control_c, 0, 64, 104
2, 320536, Control_c, 0, 64, 127
2, 320612, Note_on_c, 0, 66, 79
2, 320636, Note_on_c, 0, 64, 0
2, 320637, Note_on_c, 0, 68, 0
2, 320890, Note_on_c, 0, 37, 0
2, 320932, Note_on_c, 0, 66, 0
2, 320935, Note_on_c, 0, 36, 82
2, 320937, Note_on_c, 0, 68, 76
2, 320947, Note_on_c, 0, 63, 62
2, 320997, Control_c, 0, 64, 91
2, 321016, Control_c, 0, 64, 70
2, 321036, Control_c, 0, 64, 55
2, 321054, Control_c, 0, 64, 0
2, 321170, Control_c, 0, 64, 44
2, 321190, Control_c, 0, 64, 61
2, 321209, Control_c, 0, 64, 65
2, 321229, Control_c, 0, 64, 68
2, 321248, Control_c, 0, 64, 72
2, 321263, Note_on_c, 0, 66, 68
2, 321267, Control_c, 0, 64, 77
2, 321267, Note_on_c, 0, 68, 0
2, 321286, Control_c, 0, 64, 85
2, 321306, Control_c, 0, 64, 100
2, 321324, Control_c, 0, 64, 127
2, 321517, Control_c, 0, 64, 82
2, 321534, Note_on_c, 0, 44, 70
2, 321535, Control_c, 0, 64, 65
2, 321540, Note_on_c, 0, 68, 70
2, 321555, Control_c, 0, 64, 55
2, 321574, Control_c, 0, 64, 50
2, 321594, Control_c, 0, 64, 55
2, 321600, Note_on_c, 0, 66, 0
2, 321612, Control_c, 0, 64, 62
2, 321632, Control_c, 0, 64, 66
2, 321651, Control_c, 0, 64, 73
2, 321667, Control_c, 0, 64, 84
2, 321686, Control_c, 0, 64, 100
2, 321706, Control_c, 0, 64, 127
2, 321732, Note_on_c, 0, 63, 0
2, 321798, Note_on_c, 0, 69, 73
2, 321810, Note_on_c, 0, 68, 0
2, 321959, Note_on_c, 0, 44, 0
2, 322053, Note_on_c, 0, 68, 81
2, 322062, Note_on_c, 0, 49, 83
2, 322071, Control_c, 0, 64, 99
2, 322072, Note_on_c, 0, 40, 70
2, 322080, Note_on_c, 0, 61, 59
2, 322086, Note_on_c, 0, 69, 0
2, 322090, Control_c, 0, 64, 72
2, 322109, Control_c, 0, 64, 57
2, 322116, Note_on_c, 0, 36, 0
2, 322129, Control_c, 0, 64, 0
2, 322242, Control_c, 0, 64, 48
2, 322262, Control_c, 0, 64, 63
2, 322281, Control_c, 0, 64, 68
2, 322300, Control_c, 0, 64, 76
2, 322319, Control_c, 0, 64, 91
2, 322339, Control_c, 0, 64, 127
2, 322343, Note_on_c, 0, 66, 77
2, 322358, Note_on_c, 0, 49, 0
2, 322378, Note_on_c, 0, 68, 0
2, 322569, Control_c, 0, 64, 104
2, 322588, Control_c, 0, 64, 72
2, 322592, Note_on_c, 0, 64, 76
2, 322604, Note_on_c, 0, 49, 85
2, 322607, Control_c, 0, 64, 56
2, 322612, Note_on_c, 0, 66, 0
2, 322620, Note_on_c, 0, 61, 0
2, 322627, Control_c, 0, 64, 0
2, 322703, Control_c, 0, 64, 55
2, 322722, Control_c, 0, 64, 64
2, 322725, Note_on_c, 0, 40, 0
2, 322742, Control_c, 0, 64, 68
2, 322761, Control_c, 0, 64, 73
2, 322766, Note_on_c, 0, 49, 0
2, 322780, Control_c, 0, 64, 82
2, 322799, Control_c, 0, 64, 90
2, 322819, Control_c, 0, 64, 99
2, 322837, Control_c, 0, 64, 127
2, 322866, Note_on_c, 0, 68, 86
2, 322884, Note_on_c, 0, 64, 0
2, 323183, Note_on_c, 0, 66, 70
2, 323190, Note_on_c, 0, 49, 87
2, 323191, Note_on_c, 0, 63, 56
2, 323199, Note_on_c, 0, 68, 0
2, 323221, Note_on_c, 0, 39, 70
2, 323225, Control_c, 0, 64, 121
2, 323244, Control_c, 0, 64, 81
2, 323263, Control_c, 0, 64, 67
2, 323282, Control_c, 0, 64, 62
2, 323302, Control_c, 0, 64, 59
2, 323319, Control_c, 0, 64, 55
2, 323338, Control_c, 0, 64, 45
2, 323358, Control_c, 0, 64, 0
2, 323475, Note_on_c, 0, 64, 70
2, 323477, Note_on_c, 0, 66, 0
2, 323530, Control_c, 0, 64, 54
2, 323550, Control_c, 0, 64, 63
2, 323569, Control_c, 0, 64, 66
2, 323589, Control_c, 0, 64, 71
2, 323607, Control_c, 0, 64, 81
2, 323627, Control_c, 0, 64, 101
2, 323646, Control_c, 0, 64, 127
2, 323677, Note_on_c, 0, 49, 0
2, 323729, Note_on_c, 0, 48, 69
2, 323736, Note_on_c, 0, 66, 74
2, 323769, Note_on_c, 0, 64, 0
2, 323876, Control_c, 0, 64, 99
2, 323895, Control_c, 0, 64, 85
2, 323915, Control_c, 0, 64, 76
2, 323934, Control_c, 0, 64, 70
2, 323953, Control_c, 0, 64, 67
2, 323972, Control_c, 0, 64, 66
2, 323989, Note_on_c, 0, 46, 68
2, 323990, Note_on_c, 0, 68, 78
2, 323992, Control_c, 0, 64, 65
2, 324002, Note_on_c, 0, 66, 0
2, 324010, Control_c, 0, 64, 64
2, 324016, Note_on_c, 0, 48, 0
2, 324030, Control_c, 0, 64, 63
2, 324049, Control_c, 0, 64, 62
2, 324069, Control_c, 0, 64, 59
2, 324087, Control_c, 0, 64, 56
2, 324107, Control_c, 0, 64, 53
2, 324126, Control_c, 0, 64, 49
2, 324145, Control_c, 0, 64, 45
2, 324164, Control_c, 0, 64, 40
2, 324184, Control_c, 0, 64, 28
2, 324203, Control_c, 0, 64, 0
2, 324269, Note_on_c, 0, 66, 71
2, 324280, Note_on_c, 0, 48, 62
2, 324283, Note_on_c, 0, 46, 0
2, 324289, Note_on_c, 0, 63, 0
2, 324294, Note_on_c, 0, 68, 0
2, 324525, Note_on_c, 0, 64, 69
2, 324536, Note_on_c, 0, 66, 0
2, 324663, Control_c, 0, 64, 35
2, 324682, Control_c, 0, 64, 41
2, 324701, Control_c, 0, 64, 43
2, 324720, Control_c, 0, 64, 46
2, 324740, Control_c, 0, 64, 52
2, 324759, Control_c, 0, 64, 59
2, 324767, Note_on_c, 0, 64, 0
2, 324777, Control_c, 0, 64, 62
2, 324797, Control_c, 0, 64, 65
2, 324798, Note_on_c, 0, 63, 63
2, 324816, Control_c, 0, 64, 67
2, 324835, Control_c, 0, 64, 72
2, 324854, Control_c, 0, 64, 79
2, 324874, Control_c, 0, 64, 93
2, 324893, Control_c, 0, 64, 127
2, 324917, Note_on_c, 0, 48, 0
2, 324964, Note_on_c, 0, 39, 0
2, 325065, Note_on_c, 0, 63, 0
2, 325065, Note_on_c, 0, 66, 75
2, 325141, Note_on_c, 0, 66, 0
2, 325373, Note_on_c, 0, 49, 62
2, 325392, Note_on_c, 0, 37, 58
2, 325435, Note_on_c, 0, 73, 86
2, 325449, Control_c, 0, 64, 92
2, 325465, Note_on_c, 0, 64, 63
2, 325469, Control_c, 0, 64, 67
2, 325488, Control_c, 0, 64, 39
2, 325508, Control_c, 0, 64, 0
2, 325603, Control_c, 0, 64, 39
2, 325623, Control_c, 0, 64, 59
2, 325642, Control_c, 0, 64, 63
2, 325661, Control_c, 0, 64, 66
2, 325680, Control_c, 0, 64, 71
2, 325699, Control_c, 0, 64, 78
2, 325719, Control_c, 0, 64, 94
2, 325720, Note_on_c, 0, 64, 0
2, 325737, Control_c, 0, 64, 127
2, 325754, Note_on_c, 0, 37, 0
2, 325759, Note_on_c, 0, 63, 70
2, 325973, Note_on_c, 0, 63, 0
2, 325988, Control_c, 0, 64, 91
2, 326005, Note_on_c, 0, 64, 64
2, 326006, Control_c, 0, 64, 67
2, 326021, Note_on_c, 0, 37, 68
2, 326026, Control_c, 0, 64, 45
2, 326045, Control_c, 0, 64, 0
2, 326103, Control_c, 0, 64, 50
2, 326122, Control_c, 0, 64, 61
2, 326141, Control_c, 0, 64, 65
2, 326160, Control_c, 0, 64, 67
2, 326179, Control_c, 0, 64, 70
2, 326200, Control_c, 0, 64, 72
2, 326218, Control_c, 0, 64, 73
2, 326238, Control_c, 0, 64, 73
2, 326257, Control_c, 0, 64, 71
2, 326266, Note_on_c, 0, 66, 70
2, 326276, Control_c, 0, 64, 69
2, 326282, Note_on_c, 0, 64, 0
2, 326295, Control_c, 0, 64, 66
2, 326295, Note_on_c, 0, 39, 67
2, 326315, Control_c, 0, 64, 63
2, 326334, Control_c, 0, 64, 60
2, 326334, Note_on_c, 0, 37, 0
2, 326353, Control_c, 0, 64, 58
2, 326372, Control_c, 0, 64, 56
2, 326392, Control_c, 0, 64, 53
2, 326410, Control_c, 0, 64, 50
2, 326430, Control_c, 0, 64, 48
2, 326449, Control_c, 0, 64, 46
2, 326469, Control_c, 0, 64, 44
2, 326487, Control_c, 0, 64, 42
2, 326507, Control_c, 0, 64, 39
2, 326526, Control_c, 0, 64, 34
2, 326528, Note_on_c, 0, 40, 66
2, 326531, Note_on_c, 0, 64, 66
2, 326536, Note_on_c, 0, 66, 0
2, 326545, Control_c, 0, 64, 27
2, 326563, Note_on_c, 0, 39, 0
2, 326564, Control_c, 0, 64, 21
2, 326584, Control_c, 0, 64, 17
2, 326603, Control_c, 0, 64, 13
2, 326622, Control_c, 0, 64, 9
2, 326641, Control_c, 0, 64, 0
2, 326793, Note_on_c, 0, 64, 0
2, 326798, Note_on_c, 0, 63, 65
2, 327042, Note_on_c, 0, 42, 60
2, 327046, Note_on_c, 0, 63, 0
2, 327051, Note_on_c, 0, 61, 65
2, 327083, Note_on_c, 0, 40, 0
2, 327135, Note_on_c, 0, 49, 0
2, 327160, Control_c, 0, 64, 48
2, 327178, Control_c, 0, 64, 59
2, 327198, Control_c, 0, 64, 63
2, 327217, Control_c, 0, 64, 65
2, 327236, Control_c, 0, 64, 69
2, 327255, Control_c, 0, 64, 75
2, 327266, Note_on_c, 0, 73, 0
2, 327275, Control_c, 0, 64, 84
2, 327294, Control_c, 0, 64, 98
2, 327313, Control_c, 0, 64, 127
2, 327316, Note_on_c, 0, 64, 72
2, 327320, Note_on_c, 0, 61, 0
2, 327355, Note_on_c, 0, 42, 0
2, 327606, Note_on_c, 0, 72, 83
2, 327617, Note_on_c, 0, 64, 0
2, 327656, Note_on_c, 0, 44, 45
2, 327658, Note_on_c, 0, 63, 51
2, 327697, Control_c, 0, 64, 90
2, 327716, Control_c, 0, 64, 70
2, 327735, Control_c, 0, 64, 58
2, 327755, Control_c, 0, 64, 36
2, 327774, Control_c, 0, 64, 0
2, 327850, Control_c, 0, 64, 34
2, 327870, Control_c, 0, 64, 47
2, 327889, Control_c, 0, 64, 50
2, 327909, Control_c, 0, 64, 54
2, 327914, Note_on_c, 0, 44, 0
2, 327927, Control_c, 0, 64, 58
2, 327931, Note_on_c, 0, 42, 53
2, 327947, Control_c, 0, 64, 61
2, 327966, Control_c, 0, 64, 63
2, 327985, Control_c, 0, 64, 64
2, 328004, Control_c, 0, 64, 65
2, 328062, Control_c, 0, 64, 64
2, 328081, Control_c, 0, 64, 62
2, 328101, Control_c, 0, 64, 58
2, 328120, Control_c, 0, 64, 52
2, 328138, Control_c, 0, 64, 40
2, 328152, Note_on_c, 0, 42, 0
2, 328158, Control_c, 0, 64, 9
2, 328177, Control_c, 0, 64, 0
2, 328194, Note_on_c, 0, 68, 68
2, 328199, Note_on_c, 0, 44, 46
2, 328235, Control_c, 0, 64, 25
2, 328254, Control_c, 0, 64, 56
2, 328273, Control_c, 0, 64, 64
2, 328278, Note_on_c, 0, 63, 0
2, 328292, Control_c, 0, 64, 68
2, 328312, Control_c, 0, 64, 75
2, 328330, Control_c, 0, 64, 86
2, 328350, Control_c, 0, 64, 98
2, 328369, Control_c, 0, 64, 127
2, 328370, Note_on_c, 0, 72, 0
2, 328421, Note_on_c, 0, 44, 0
2, 328450, Note_on_c, 0, 45, 68
2, 328710, Note_on_c, 0, 76, 84
2, 328727, Note_on_c, 0, 73, 66
2, 328729, Note_on_c, 0, 44, 54
2, 328729, Note_on_c, 0, 68, 0
2, 328759, Note_on_c, 0, 45, 0
2, 328772, Control_c, 0, 64, 87
2, 328792, Control_c, 0, 64, 66
2, 328810, Control_c, 0, 64, 52
2, 328830, Control_c, 0, 64, 34
2, 328849, Control_c, 0, 64, 0
2, 328854, Note_on_c, 0, 73, 0
2, 328926, Control_c, 0, 64, 44
2, 328945, Control_c, 0, 64, 62
2, 328964, Control_c, 0, 64, 66
2, 328984, Control_c, 0, 64, 72
2, 328984, Note_on_c, 0, 42, 79
2, 328998, Note_on_c, 0, 44, 0
2, 329003, Control_c, 0, 64, 81
2, 329022, Control_c, 0, 64, 94
2, 329041, Control_c, 0, 64, 112
2, 329061, Control_c, 0, 64, 127
2, 329196, Note_on_c, 0, 42, 0
2, 329243, Note_on_c, 0, 73, 80
2, 329244, Note_on_c, 0, 40, 64
2, 329271, Control_c, 0, 64, 94
2, 329289, Control_c, 0, 64, 69
2, 329309, Control_c, 0, 64, 48
2, 329328, Control_c, 0, 64, 20
2, 329348, Control_c, 0, 64, 19
2, 329366, Control_c, 0, 64, 36
2, 329386, Control_c, 0, 64, 56
2, 329393, Note_on_c, 0, 76, 0
2, 329405, Control_c, 0, 64, 64
2, 329425, Control_c, 0, 64, 69
2, 329443, Control_c, 0, 64, 79
2, 329463, Control_c, 0, 64, 98
2, 329482, Control_c, 0, 64, 127
2, 329508, Note_on_c, 0, 40, 0
2, 329509, Note_on_c, 0, 73, 0
2, 329519, Note_on_c, 0, 44, 72
2, 329808, Note_on_c, 0, 75, 87
2, 329830, Note_on_c, 0, 73, 66
2, 329840, Note_on_c, 0, 42, 51
2, 329847, Control_c, 0, 64, 84
2, 329867, Control_c, 0, 64, 65
2, 329886, Control_c, 0, 64, 47
2, 329905, Control_c, 0, 64, 28
2, 329924, Control_c, 0, 64, 27
2, 329944, Control_c, 0, 64, 31
2, 329959, Note_on_c, 0, 44, 0
2, 329963, Control_c, 0, 64, 50
2, 329982, Control_c, 0, 64, 62
2, 330001, Control_c, 0, 64, 65
2, 330021, Control_c, 0, 64, 68
2, 330040, Control_c, 0, 64, 74
2, 330058, Control_c, 0, 64, 83
2, 330078, Control_c, 0, 64, 92
2, 330097, Control_c, 0, 64, 99
2, 330111, Note_on_c, 0, 40, 65
2, 330113, Note_on_c, 0, 42, 0
2, 330116, Control_c, 0, 64, 101
2, 330193, Control_c, 0, 64, 100
2, 330212, Control_c, 0, 64, 98
2, 330232, Control_c, 0, 64, 94
2, 330250, Control_c, 0, 64, 90
2, 330270, Control_c, 0, 64, 86
2, 330289, Control_c, 0, 64, 84
2, 330309, Control_c, 0, 64, 80
2, 330327, Control_c, 0, 64, 75
2, 330343, Note_on_c, 0, 72, 72
2, 330347, Control_c, 0, 64, 69
2, 330366, Control_c, 0, 64, 65
2, 330369, Note_on_c, 0, 42, 50
2, 330373, Note_on_c, 0, 73, 0
2, 330385, Control_c, 0, 64, 62
2, 330402, Note_on_c, 0, 40, 0
2, 330404, Control_c, 0, 64, 61
2, 330424, Control_c, 0, 64, 61
2, 330443, Control_c, 0, 64, 59
2, 330462, Control_c, 0, 64, 58
2, 330481, Control_c, 0, 64, 57
2, 330501, Control_c, 0, 64, 56
2, 330520, Control_c, 0, 64, 55
2, 330538, Control_c, 0, 64, 53
2, 330558, Control_c, 0, 64, 50
2, 330577, Control_c, 0, 64, 47
2, 330596, Control_c, 0, 64, 46
2, 330608, Note_on_c, 0, 72, 0
2, 330611, Note_on_c, 0, 42, 0
2, 330615, Control_c, 0, 64, 45
2, 330619, Note_on_c, 0, 70, 69
2, 330628, Note_on_c, 0, 44, 54
2, 330635, Control_c, 0, 64, 44
2, 330654, Control_c, 0, 64, 44
2, 330769, Control_c, 0, 64, 43
2, 330789, Control_c, 0, 64, 42
2, 330807, Control_c, 0, 64, 41
2, 330878, Note_on_c, 0, 72, 63
2, 330894, Note_on_c, 0, 42, 47
2, 330904, Control_c, 0, 64, 42
2, 330905, Note_on_c, 0, 70, 0
2, 330980, Control_c, 0, 64, 41
2, 331000, Control_c, 0, 64, 39
2, 331004, Note_on_c, 0, 44, 0
2, 331019, Control_c, 0, 64, 39
2, 331058, Control_c, 0, 64, 39
2, 331077, Control_c, 0, 64, 40
2, 331096, Control_c, 0, 64, 40
2, 331116, Control_c, 0, 64, 41
2, 331129, Note_on_c, 0, 73, 68
2, 331134, Control_c, 0, 64, 42
2, 331135, Note_on_c, 0, 42, 0
2, 331153, Note_on_c, 0, 40, 52
2, 331154, Control_c, 0, 64, 42
2, 331159, Note_on_c, 0, 75, 0
2, 331166, Note_on_c, 0, 72, 0
2, 331193, Control_c, 0, 64, 42
2, 331211, Control_c, 0, 64, 41
2, 331250, Control_c, 0, 64, 40
2, 331288, Control_c, 0, 64, 41
2, 331327, Control_c, 0, 64, 41
2, 331346, Control_c, 0, 64, 42
2, 331352, Note_on_c, 0, 40, 0
2, 331403, Note_on_c, 0, 75, 63
2, 331414, Note_on_c, 0, 73, 0
2, 331416, Note_on_c, 0, 39, 47
2, 331442, Control_c, 0, 64, 41
2, 331462, Control_c, 0, 64, 41
2, 331557, Control_c, 0, 64, 40
2, 331576, Control_c, 0, 64, 39
2, 331596, Control_c, 0, 64, 38
2, 331614, Control_c, 0, 64, 35
2, 331634, Control_c, 0, 64, 31
2, 331653, Control_c, 0, 64, 30
2, 331662, Note_on_c, 0, 72, 53
2, 331665, Note_on_c, 0, 39, 0
2, 331673, Control_c, 0, 64, 29
2, 331675, Note_on_c, 0, 42, 44
2, 331749, Note_on_c, 0, 75, 0
2, 331807, Control_c, 0, 64, 29
2, 331826, Control_c, 0, 64, 27
2, 331845, Control_c, 0, 64, 25
2, 331865, Control_c, 0, 64, 23
2, 331880, Note_on_c, 0, 72, 0
2, 331884, Control_c, 0, 64, 21
2, 331903, Control_c, 0, 64, 20
2, 331918, Note_on_c, 0, 42, 0
2, 331922, Control_c, 0, 64, 17
2, 331931, Note_on_c, 0, 68, 49
2, 331942, Control_c, 0, 64, 11
2, 331960, Control_c, 0, 64, 9
2, 331963, Note_on_c, 0, 40, 40
2, 331979, Control_c, 0, 64, 0
2, 332037, Control_c, 0, 64, 15
2, 332056, Control_c, 0, 64, 32
2, 332076, Control_c, 0, 64, 47
2, 332094, Control_c, 0, 64, 56
2, 332114, Control_c, 0, 64, 61
2, 332133, Control_c, 0, 64, 63
2, 332153, Control_c, 0, 64, 64
2, 332171, Control_c, 0, 64, 66
2, 332191, Control_c, 0, 64, 70
2, 332210, Control_c, 0, 64, 75
2, 332215, Note_on_c, 0, 68, 0
2, 332216, Note_on_c, 0, 66, 48
2, 332230, Control_c, 0, 64, 81
2, 332248, Control_c, 0, 64, 87
2, 332268, Control_c, 0, 64, 94
2, 332287, Control_c, 0, 64, 104
2, 332306, Control_c, 0, 64, 127
2, 332440, Control_c, 0, 64, 112
2, 332459, Control_c, 0, 64, 82
2, 332479, Control_c, 0, 64, 66
2, 332483, Note_on_c, 0, 66, 0
2, 332497, Note_on_c, 0, 52, 61
2, 332498, Control_c, 0, 64, 55
2, 332506, Note_on_c, 0, 68, 54
2, 332517, Control_c, 0, 64, 46
2, 332554, Note_on_c, 0, 40, 0
2, 332556, Control_c, 0, 64, 49
2, 332574, Control_c, 0, 64, 55
2, 332594, Control_c, 0, 64, 62
2, 332613, Control_c, 0, 64, 65
2, 332633, Control_c, 0, 64, 68
2, 332651, Control_c, 0, 64, 74
2, 332671, Control_c, 0, 64, 83
2, 332690, Control_c, 0, 64, 93
2, 332710, Control_c, 0, 64, 101
2, 332728, Control_c, 0, 64, 109
2, 332748, Control_c, 0, 64, 127
2, 332752, Note_on_c, 0, 69, 74
2, 332759, Note_on_c, 0, 68, 0
2, 333045, Note_on_c, 0, 73, 79
2, 333049, Note_on_c, 0, 52, 0
2, 333054, Control_c, 0, 64, 106
2, 333074, Control_c, 0, 64, 79
2, 333093, Control_c, 0, 64, 65
2, 333096, Note_on_c, 0, 57, 47
2, 333096, Note_on_c, 0, 69, 0
2, 333107, Note_on_c, 0, 68, 35
2, 333113, Control_c, 0, 64, 55
2, 333131, Control_c, 0, 64, 44
2, 333151, Control_c, 0, 64, 27
2, 333170, Control_c, 0, 64, 0
2, 333208, Control_c, 0, 64, 18
2, 333228, Control_c, 0, 64, 49
2, 333247, Control_c, 0, 64, 62
2, 333266, Control_c, 0, 64, 67
2, 333285, Control_c, 0, 64, 75
2, 333293, Note_on_c, 0, 57, 0
2, 333305, Control_c, 0, 64, 87
2, 333324, Control_c, 0, 64, 101
2, 333339, Note_on_c, 0, 66, 70
2, 333343, Control_c, 0, 64, 127
2, 333343, Note_on_c, 0, 68, 0
2, 333554, Control_c, 0, 64, 108
2, 333573, Control_c, 0, 64, 73
2, 333588, Note_on_c, 0, 57, 72
2, 333593, Control_c, 0, 64, 61
2, 333599, Note_on_c, 0, 64, 68
2, 333611, Control_c, 0, 64, 52
2, 333631, Control_c, 0, 64, 50
2, 333636, Note_on_c, 0, 66, 0
2, 333670, Control_c, 0, 64, 53
2, 333689, Control_c, 0, 64, 59
2, 333709, Control_c, 0, 64, 65
2, 333728, Control_c, 0, 64, 70
2, 333747, Control_c, 0, 64, 82
2, 333766, Control_c, 0, 64, 102
2, 333786, Control_c, 0, 64, 127
2, 333800, Note_on_c, 0, 57, 0
2, 333865, Note_on_c, 0, 68, 81
2, 333907, Note_on_c, 0, 64, 0
2, 334147, Note_on_c, 0, 66, 59
2, 334149, Note_on_c, 0, 57, 80
2, 334218, Note_on_c, 0, 68, 0
2, 334226, Control_c, 0, 64, 114
2, 334245, Control_c, 0, 64, 89
2, 334265, Control_c, 0, 64, 71
2, 334284, Control_c, 0, 64, 64
2, 334303, Control_c, 0, 64, 62
2, 334322, Control_c, 0, 64, 61
2, 334342, Control_c, 0, 64, 61
2, 334360, Control_c, 0, 64, 60
2, 334399, Control_c, 0, 64, 59
2, 334418, Control_c, 0, 64, 58
2, 334430, Note_on_c, 0, 64, 66
2, 334437, Control_c, 0, 64, 56
2, 334437, Note_on_c, 0, 66, 0
2, 334456, Control_c, 0, 64, 53
2, 334476, Control_c, 0, 64, 50
2, 334494, Control_c, 0, 64, 47
2, 334514, Control_c, 0, 64, 46
2, 334571, Control_c, 0, 64, 46
2, 334591, Control_c, 0, 64, 45
2, 334668, Control_c, 0, 64, 44
2, 334687, Control_c, 0, 64, 43
2, 334689, Note_on_c, 0, 66, 71
2, 334694, Note_on_c, 0, 56, 68
2, 334706, Control_c, 0, 64, 41
2, 334725, Control_c, 0, 64, 39
2, 334764, Control_c, 0, 64, 38
2, 334822, Control_c, 0, 64, 39
2, 334838, Note_on_c, 0, 57, 0
2, 334917, Note_on_c, 0, 64, 0
2, 334939, Note_on_c, 0, 68, 76
2, 334944, Note_on_c, 0, 54, 67
2, 334944, Note_on_c, 0, 56, 0
2, 334990, Note_on_c, 0, 66, 0
2, 335006, Note_on_c, 0, 73, 0
2, 335231, Note_on_c, 0, 72, 73
2, 335244, Note_on_c, 0, 68, 0
2, 335245, Note_on_c, 0, 54, 0
2, 335269, Note_on_c, 0, 56, 53
2, 335271, Note_on_c, 0, 66, 44
2, 335320, Control_c, 0, 64, 38
2, 335339, Control_c, 0, 64, 38
2, 335408, Note_on_c, 0, 66, 0
2, 335436, Control_c, 0, 64, 37
2, 335474, Control_c, 0, 64, 37
2, 335493, Control_c, 0, 64, 36
2, 335494, Note_on_c, 0, 64, 51
2, 335513, Control_c, 0, 64, 36
2, 335531, Control_c, 0, 64, 35
2, 335551, Control_c, 0, 64, 34
2, 335570, Control_c, 0, 64, 32
2, 335629, Control_c, 0, 64, 32
2, 335648, Control_c, 0, 64, 31
2, 335667, Control_c, 0, 64, 29
2, 335686, Control_c, 0, 64, 27
2, 335706, Control_c, 0, 64, 27
2, 335725, Control_c, 0, 64, 26
2, 335730, Note_on_c, 0, 64, 0
2, 335744, Control_c, 0, 64, 25
2, 335757, Note_on_c, 0, 63, 53
2, 335763, Control_c, 0, 64, 24
2, 335766, Note_on_c, 0, 44, 54
2, 335800, Control_c, 0, 64, 28
2, 335815, Note_on_c, 0, 56, 0
2, 335819, Control_c, 0, 64, 40
2, 335839, Control_c, 0, 64, 52
2, 335858, Control_c, 0, 64, 59
2, 335877, Control_c, 0, 64, 63
2, 335896, Control_c, 0, 64, 65
2, 335916, Control_c, 0, 64, 68
2, 335934, Control_c, 0, 64, 73
2, 335954, Control_c, 0, 64, 79
2, 335973, Control_c, 0, 64, 87
2, 335993, Control_c, 0, 64, 97
2, 336002, Note_on_c, 0, 66, 61
2, 336010, Note_on_c, 0, 63, 0
2, 336011, Control_c, 0, 64, 116
2, 336031, Control_c, 0, 64, 127
2, 336294, Note_on_c, 0, 66, 0
2, 336319, Control_c, 0, 64, 91
2, 336324, Note_on_c, 0, 49, 81
2, 336335, Note_on_c, 0, 64, 59
2, 336337, Note_on_c, 0, 44, 0
2, 336338, Control_c, 0, 64, 70
2, 336357, Control_c, 0, 64, 56
2, 336376, Control_c, 0, 64, 0
2, 336491, Control_c, 0, 64, 49
2, 336511, Control_c, 0, 64, 62
2, 336530, Control_c, 0, 64, 66
2, 336550, Control_c, 0, 64, 70
2, 336568, Control_c, 0, 64, 76
2, 336588, Control_c, 0, 64, 91
2, 336595, Note_on_c, 0, 64, 0
2, 336596, Note_on_c, 0, 72, 0
2, 336607, Control_c, 0, 64, 127
2, 336617, Note_on_c, 0, 68, 74
2, 336656, Note_on_c, 0, 68, 0
2, 336879, Note_on_c, 0, 73, 81
2, 336897, Note_on_c, 0, 47, 62
2, 336897, Note_on_c, 0, 69, 63
2, 336900, Control_c, 0, 64, 78
2, 336919, Control_c, 0, 64, 61
2, 336939, Control_c, 0, 64, 0
2, 337016, Control_c, 0, 64, 20
2, 337035, Control_c, 0, 64, 56
2, 337054, Control_c, 0, 64, 64
2, 337073, Control_c, 0, 64, 68
2, 337093, Control_c, 0, 64, 74
2, 337111, Control_c, 0, 64, 87
2, 337122, Note_on_c, 0, 69, 0
2, 337131, Control_c, 0, 64, 107
2, 337135, Note_on_c, 0, 75, 87
2, 337138, Note_on_c, 0, 71, 63
2, 337150, Control_c, 0, 64, 127
2, 337153, Note_on_c, 0, 73, 0
2, 337171, Note_on_c, 0, 71, 0
2, 337196, Note_on_c, 0, 75, 0
2, 337343, Note_on_c, 0, 47, 0
2, 337434, Note_on_c, 0, 76, 80
2, 337454, Note_on_c, 0, 45, 50
2, 337457, Control_c, 0, 64, 90
2, 337472, Note_on_c, 0, 73, 46
2, 337476, Control_c, 0, 64, 68
2, 337496, Control_c, 0, 64, 46
2, 337515, Control_c, 0, 64, 0
2, 337649, Control_c, 0, 64, 24
2, 337667, Control_c, 0, 64, 55
2, 337687, Control_c, 0, 64, 63
2, 337706, Control_c, 0, 64, 66
2, 337708, Note_on_c, 0, 75, 71
2, 337710, Note_on_c, 0, 73, 0
2, 337726, Control_c, 0, 64, 70
2, 337744, Control_c, 0, 64, 78
2, 337763, Control_c, 0, 64, 94
2, 337783, Control_c, 0, 64, 127
2, 337947, Note_on_c, 0, 75, 0
2, 337975, Control_c, 0, 64, 97
2, 337983, Note_on_c, 0, 78, 76
2, 337994, Control_c, 0, 64, 74
2, 338009, Note_on_c, 0, 76, 0
2, 338013, Control_c, 0, 64, 61
2, 338019, Note_on_c, 0, 72, 37
2, 338032, Control_c, 0, 64, 32
2, 338052, Control_c, 0, 64, 0
2, 338147, Control_c, 0, 64, 41
2, 338167, Control_c, 0, 64, 60
2, 338186, Control_c, 0, 64, 65
2, 338206, Control_c, 0, 64, 68
2, 338223, Note_on_c, 0, 72, 0
2, 338224, Control_c, 0, 64, 72
2, 338243, Control_c, 0, 64, 79
2, 338259, Note_on_c, 0, 73, 57
2, 338263, Control_c, 0, 64, 87
2, 338281, Control_c, 0, 64, 95
2, 338301, Control_c, 0, 64, 103
2, 338309, Note_on_c, 0, 78, 0
2, 338320, Control_c, 0, 64, 111
2, 338340, Control_c, 0, 64, 127
2, 338344, Note_on_c, 0, 73, 0
2, 338382, Note_on_c, 0, 49, 0
2, 338465, Note_on_c, 0, 45, 0
2, 338629, Note_on_c, 0, 48, 60
2, 338634, Note_on_c, 0, 80, 62
2, 338647, Control_c, 0, 64, 83
2, 338661, Note_on_c, 0, 75, 46
2, 338666, Control_c, 0, 64, 64
2, 338680, Note_on_c, 0, 44, 37
2, 338686, Control_c, 0, 64, 32
2, 338704, Control_c, 0, 64, 0
2, 338820, Control_c, 0, 64, 46
2, 338838, Control_c, 0, 64, 61
2, 338858, Control_c, 0, 64, 64
2, 338877, Control_c, 0, 64, 67
2, 338896, Control_c, 0, 64, 71
2, 338915, Control_c, 0, 64, 77
2, 338935, Control_c, 0, 64, 87
2, 338954, Control_c, 0, 64, 99
2, 338956, Note_on_c, 0, 48, 0
2, 338973, Control_c, 0, 64, 127
2, 338993, Note_on_c, 0, 44, 0
2, 339013, Note_on_c, 0, 80, 0
2, 339015, Note_on_c, 0, 78, 67
2, 339156, Note_on_c, 0, 75, 0
2, 339300, Note_on_c, 0, 80, 69
2, 339307, Note_on_c, 0, 56, 61
2, 339398, Note_on_c, 0, 78, 0
2, 339564, Note_on_c, 0, 80, 0
2, 339573, Note_on_c, 0, 81, 78
2, 339828, Note_on_c, 0, 61, 68
2, 339829, Note_on_c, 0, 80, 73
2, 339831, Note_on_c, 0, 52, 56
2, 339836, Control_c, 0, 64, 106
2, 339838, Note_on_c, 0, 56, 0
2, 339855, Control_c, 0, 64, 74
2, 339874, Control_c, 0, 64, 56
2, 339886, Note_on_c, 0, 81, 0
2, 339894, Control_c, 0, 64, 0
2, 340009, Control_c, 0, 64, 42
2, 340028, Control_c, 0, 64, 60
2, 340048, Control_c, 0, 64, 64
2, 340066, Control_c, 0, 64, 67
2, 340086, Control_c, 0, 64, 72
2, 340097, Note_on_c, 0, 78, 73
2, 340105, Control_c, 0, 64, 81
2, 340124, Control_c, 0, 64, 102
2, 340143, Control_c, 0, 64, 127
2, 340156, Note_on_c, 0, 80, 0
2, 340185, Note_on_c, 0, 61, 0
2, 340354, Control_c, 0, 64, 91
2, 340359, Note_on_c, 0, 76, 72
2, 340374, Control_c, 0, 64, 68
2, 340377, Note_on_c, 0, 61, 67
2, 340393, Control_c, 0, 64, 49
2, 340394, Note_on_c, 0, 78, 0
2, 340412, Control_c, 0, 64, 21
2, 340431, Control_c, 0, 64, 31
2, 340451, Control_c, 0, 64, 52
2, 340470, Control_c, 0, 64, 62
2, 340489, Control_c, 0, 64, 66
2, 340508, Control_c, 0, 64, 72
2, 340528, Control_c, 0, 64, 82
2, 340546, Control_c, 0, 64, 94
2, 340554, Note_on_c, 0, 52, 0
2, 340566, Control_c, 0, 64, 112
2, 340585, Control_c, 0, 64, 127
2, 340611, Note_on_c, 0, 61, 0
2, 340632, Note_on_c, 0, 80, 81
2, 340639, Note_on_c, 0, 76, 0
2, 340901, Note_on_c, 0, 78, 66
2, 340914, Note_on_c, 0, 61, 73
2, 340922, Note_on_c, 0, 80, 0
2, 340959, Note_on_c, 0, 51, 47
2, 341008, Control_c, 0, 64, 73
2, 341026, Control_c, 0, 64, 56
2, 341046, Control_c, 0, 64, 0
2, 341142, Control_c, 0, 64, 27
2, 341160, Control_c, 0, 64, 53
2, 341180, Control_c, 0, 64, 62
2, 341198, Note_on_c, 0, 76, 70
2, 341199, Control_c, 0, 64, 65
2, 341209, Note_on_c, 0, 78, 0
2, 341219, Control_c, 0, 64, 68
2, 341237, Control_c, 0, 64, 73
2, 341257, Control_c, 0, 64, 80
2, 341276, Control_c, 0, 64, 92
2, 341296, Control_c, 0, 64, 110
2, 341314, Control_c, 0, 64, 127
2, 341368, Note_on_c, 0, 61, 0
2, 341458, Note_on_c, 0, 78, 74
2, 341475, Note_on_c, 0, 60, 60
2, 341512, Note_on_c, 0, 76, 0
2, 341526, Control_c, 0, 64, 105
2, 341545, Control_c, 0, 64, 87
2, 341564, Control_c, 0, 64, 77
2, 341583, Control_c, 0, 64, 72
2, 341602, Control_c, 0, 64, 68
2, 341622, Control_c, 0, 64, 66
2, 341640, Control_c, 0, 64, 65
2, 341660, Control_c, 0, 64, 64
2, 341679, Control_c, 0, 64, 63
2, 341699, Control_c, 0, 64, 62
2, 341717, Control_c, 0, 64, 61
2, 341720, Note_on_c, 0, 78, 0
2, 341721, Note_on_c, 0, 60, 0
2, 341722, Note_on_c, 0, 80, 70
2, 341723, Note_on_c, 0, 58, 55
2, 341737, Control_c, 0, 64, 60
2, 341756, Control_c, 0, 64, 60
2, 341776, Control_c, 0, 64, 59
2, 341794, Control_c, 0, 64, 59
2, 341814, Control_c, 0, 64, 58
2, 341833, Control_c, 0, 64, 56
2, 341849, Control_c, 0, 64, 55
2, 341868, Control_c, 0, 64, 53
2, 341888, Control_c, 0, 64, 52
2, 341907, Control_c, 0, 64, 50
2, 341926, Control_c, 0, 64, 50
2, 341945, Control_c, 0, 64, 49
2, 341965, Control_c, 0, 64, 48
2, 341980, Note_on_c, 0, 58, 0
2, 341983, Control_c, 0, 64, 48
2, 342003, Control_c, 0, 64, 47
2, 342004, Note_on_c, 0, 80, 0
2, 342011, Note_on_c, 0, 78, 56
2, 342018, Note_on_c, 0, 60, 48
2, 342042, Control_c, 0, 64, 47
2, 342060, Control_c, 0, 64, 46
2, 342080, Control_c, 0, 64, 45
2, 342099, Control_c, 0, 64, 44
2, 342118, Control_c, 0, 64, 43
2, 342157, Control_c, 0, 64, 42
2, 342176, Control_c, 0, 64, 40
2, 342195, Control_c, 0, 64, 38
2, 342214, Control_c, 0, 64, 36
2, 342233, Control_c, 0, 64, 31
2, 342253, Control_c, 0, 64, 28
2, 342258, Note_on_c, 0, 78, 0
2, 342269, Note_on_c, 0, 76, 57
2, 342271, Control_c, 0, 64, 24
2, 342291, Control_c, 0, 64, 21
2, 342310, Control_c, 0, 64, 20
2, 342368, Control_c, 0, 64, 21
2, 342387, Control_c, 0, 64, 27
2, 342406, Control_c, 0, 64, 36
2, 342425, Control_c, 0, 64, 44
2, 342445, Control_c, 0, 64, 50
2, 342463, Control_c, 0, 64, 54
2, 342483, Control_c, 0, 64, 58
2, 342494, Note_on_c, 0, 76, 0
2, 342502, Control_c, 0, 64, 62
2, 342521, Control_c, 0, 64, 64
2, 342532, Note_on_c, 0, 75, 53
2, 342539, Control_c, 0, 64, 65
2, 342559, Control_c, 0, 64, 68
2, 342578, Control_c, 0, 64, 71
2, 342598, Control_c, 0, 64, 77
2, 342616, Control_c, 0, 64, 83
2, 342636, Control_c, 0, 64, 89
2, 342638, Note_on_c, 0, 60, 0
2, 342655, Control_c, 0, 64, 95
2, 342673, Control_c, 0, 64, 101
2, 342693, Control_c, 0, 64, 114
2, 342712, Control_c, 0, 64, 127
2, 342774, Note_on_c, 0, 78, 57
2, 342785, Note_on_c, 0, 75, 0
2, 343071, Note_on_c, 0, 51, 0
2, 343089, Note_on_c, 0, 76, 52
2, 343092, Note_on_c, 0, 78, 0
2, 343094, Note_on_c, 0, 61, 50
2, 343107, Note_on_c, 0, 49, 43
2, 343116, Control_c, 0, 64, 112
2, 343135, Control_c, 0, 64, 90
2, 343153, Control_c, 0, 64, 77
2, 343173, Control_c, 0, 64, 69
2, 343192, Control_c, 0, 64, 65
2, 343212, Control_c, 0, 64, 64
2, 343230, Control_c, 0, 64, 62
2, 343250, Control_c, 0, 64, 60
2, 343269, Control_c, 0, 64, 58
2, 343290, Control_c, 0, 64, 57
2, 343309, Control_c, 0, 64, 56
2, 343329, Control_c, 0, 64, 55
2, 343347, Control_c, 0, 64, 54
2, 343362, Note_on_c, 0, 76, 0
2, 343367, Control_c, 0, 64, 52
2, 343378, Note_on_c, 0, 75, 58
2, 343386, Control_c, 0, 64, 49
2, 343406, Control_c, 0, 64, 45
2, 343424, Control_c, 0, 64, 41
2, 343444, Control_c, 0, 64, 37
2, 343461, Control_c, 0, 64, 32
2, 343481, Control_c, 0, 64, 27
2, 343499, Control_c, 0, 64, 20
2, 343519, Control_c, 0, 64, 9
2, 343538, Control_c, 0, 64, 0
2, 343627, Note_on_c, 0, 52, 52
2, 343641, Note_on_c, 0, 76, 52
2, 343653, Control_c, 0, 64, 26
2, 343661, Note_on_c, 0, 75, 0
2, 343672, Control_c, 0, 64, 44
2, 343692, Control_c, 0, 64, 56
2, 343710, Control_c, 0, 64, 61
2, 343730, Control_c, 0, 64, 64
2, 343749, Control_c, 0, 64, 67
2, 343768, Control_c, 0, 64, 70
2, 343787, Control_c, 0, 64, 75
2, 343787, Note_on_c, 0, 49, 0
2, 343807, Control_c, 0, 64, 82
2, 343826, Control_c, 0, 64, 90
2, 343845, Control_c, 0, 64, 101
2, 343864, Control_c, 0, 64, 127
2, 343865, Note_on_c, 0, 76, 0
2, 343890, Note_on_c, 0, 78, 65
2, 344095, Control_c, 0, 64, 119
2, 344113, Control_c, 0, 64, 93
2, 344133, Control_c, 0, 64, 76
2, 344152, Control_c, 0, 64, 63
2, 344158, Note_on_c, 0, 78, 0
2, 344161, Note_on_c, 0, 76, 60
2, 344172, Control_c, 0, 64, 44
2, 344181, Note_on_c, 0, 57, 52
2, 344190, Control_c, 0, 64, 0
2, 344192, Note_on_c, 0, 52, 0
2, 344287, Control_c, 0, 64, 20
2, 344306, Control_c, 0, 64, 50
2, 344325, Control_c, 0, 64, 61
2, 344344, Control_c, 0, 64, 64
2, 344364, Control_c, 0, 64, 67
2, 344382, Control_c, 0, 64, 71
2, 344402, Control_c, 0, 64, 78
2, 344413, Note_on_c, 0, 57, 0
2, 344416, Note_on_c, 0, 74, 69
2, 344420, Control_c, 0, 64, 86
2, 344430, Note_on_c, 0, 76, 0
2, 344441, Control_c, 0, 64, 99
2, 344459, Control_c, 0, 64, 127
2, 344630, Control_c, 0, 64, 104
2, 344649, Control_c, 0, 64, 76
2, 344665, Note_on_c, 0, 74, 0
2, 344668, Control_c, 0, 64, 62
2, 344680, Note_on_c, 0, 57, 67
2, 344685, Note_on_c, 0, 61, 0
2, 344685, Note_on_c, 0, 73, 68
2, 344687, Control_c, 0, 64, 50
2, 344707, Control_c, 0, 64, 49
2, 344725, Control_c, 0, 64, 52
2, 344745, Control_c, 0, 64, 58
2, 344764, Control_c, 0, 64, 63
2, 344784, Control_c, 0, 64, 66
2, 344802, Control_c, 0, 64, 73
2, 344821, Control_c, 0, 64, 84
2, 344841, Control_c, 0, 64, 105
2, 344859, Control_c, 0, 64, 127
2, 344876, Note_on_c, 0, 73, 0
2, 344934, Note_on_c, 0, 57, 0
2, 344955, Note_on_c, 0, 76, 75
2, 345235, Note_on_c, 0, 74, 74
2, 345246, Note_on_c, 0, 57, 53
2, 345265, Control_c, 0, 64, 91
2, 345274, Note_on_c, 0, 59, 51
2, 345284, Control_c, 0, 64, 71
2, 345296, Note_on_c, 0, 76, 0
2, 345304, Control_c, 0, 64, 54
2, 345323, Control_c, 0, 64, 0
2, 345490, Note_on_c, 0, 74, 0
2, 345494, Note_on_c, 0, 73, 75
2, 345755, Note_on_c, 0, 57, 0
2, 345768, Note_on_c, 0, 73, 0
2, 345770, Note_on_c, 0, 74, 60
2, 345773, Note_on_c, 0, 56, 52
2, 345774, Note_on_c, 0, 66, 53
2, 345841, Control_c, 0, 64, 21
2, 345860, Control_c, 0, 64, 50
2, 345880, Control_c, 0, 64, 62
2, 345898, Control_c, 0, 64, 66
2, 345918, Control_c, 0, 64, 70
2, 345937, Control_c, 0, 64, 77
2, 345956, Control_c, 0, 64, 92
2, 345975, Control_c, 0, 64, 104
2, 345995, Control_c, 0, 64, 108
2, 346030, Note_on_c, 0, 76, 70
2, 346033, Note_on_c, 0, 74, 0
2, 346034, Note_on_c, 0, 54, 54
2, 346038, Note_on_c, 0, 56, 0
2, 346077, Note_on_c, 0, 66, 0
2, 346110, Control_c, 0, 64, 107
2, 346129, Control_c, 0, 64, 105
2, 346149, Control_c, 0, 64, 101
2, 346167, Control_c, 0, 64, 95
2, 346187, Control_c, 0, 64, 88
2, 346206, Control_c, 0, 64, 81
2, 346225, Control_c, 0, 64, 74
2, 346244, Control_c, 0, 64, 68
2, 346255, Note_on_c, 0, 54, 0
2, 346263, Control_c, 0, 64, 62
2, 346283, Control_c, 0, 64, 44
2, 346301, Control_c, 0, 64, 0
2, 346320, Note_on_c, 0, 74, 59
2, 346324, Note_on_c, 0, 76, 0
2, 346345, Note_on_c, 0, 56, 45
2, 346346, Note_on_c, 0, 71, 49
2, 346455, Control_c, 0, 64, 31
2, 346475, Control_c, 0, 64, 49
2, 346494, Control_c, 0, 64, 60
2, 346513, Control_c, 0, 64, 65
2, 346532, Control_c, 0, 64, 69
2, 346552, Control_c, 0, 64, 77
2, 346563, Note_on_c, 0, 71, 0
2, 346570, Control_c, 0, 64, 91
2, 346581, Note_on_c, 0, 74, 0
2, 346589, Note_on_c, 0, 73, 66
2, 346590, Control_c, 0, 64, 112
2, 346600, Note_on_c, 0, 59, 0
2, 346609, Control_c, 0, 64, 127
2, 346803, Note_on_c, 0, 73, 0
2, 346853, Note_on_c, 0, 66, 72
2, 346855, Note_on_c, 0, 71, 66
2, 346897, Control_c, 0, 64, 88
2, 346916, Control_c, 0, 64, 66
2, 346935, Control_c, 0, 64, 40
2, 346955, Control_c, 0, 64, 0
2, 347012, Control_c, 0, 64, 21
2, 347032, Control_c, 0, 64, 48
2, 347050, Control_c, 0, 64, 58
2, 347070, Control_c, 0, 64, 61
2, 347089, Control_c, 0, 64, 64
2, 347109, Control_c, 0, 64, 69
2, 347116, Note_on_c, 0, 71, 0
2, 347128, Note_on_c, 0, 74, 65
2, 347129, Control_c, 0, 64, 78
2, 347149, Control_c, 0, 64, 97
2, 347168, Control_c, 0, 64, 127
2, 347214, Note_on_c, 0, 66, 0
2, 347466, Note_on_c, 0, 65, 63
2, 347466, Note_on_c, 0, 73, 73
2, 347473, Control_c, 0, 64, 101
2, 347492, Control_c, 0, 64, 76
2, 347498, Note_on_c, 0, 74, 0
2, 347512, Control_c, 0, 64, 62
2, 347530, Control_c, 0, 64, 0
2, 347607, Control_c, 0, 64, 44
2, 347627, Control_c, 0, 64, 56
2, 347646, Control_c, 0, 64, 60
2, 347665, Control_c, 0, 64, 63
2, 347684, Control_c, 0, 64, 67
2, 347703, Control_c, 0, 64, 74
2, 347723, Control_c, 0, 64, 90
2, 347741, Control_c, 0, 64, 127
2, 347765, Note_on_c, 0, 71, 69
2, 347778, Note_on_c, 0, 73, 0
2, 347830, Note_on_c, 0, 65, 0
2, 347932, Note_on_c, 0, 56, 0
2, 348010, Control_c, 0, 64, 99
2, 348020, Note_on_c, 0, 49, 54
2, 348030, Control_c, 0, 64, 75
2, 348036, Note_on_c, 0, 73, 69
2, 348045, Note_on_c, 0, 69, 66
2, 348049, Control_c, 0, 64, 63
2, 348049, Note_on_c, 0, 71, 0
2, 348069, Control_c, 0, 64, 42
2, 348087, Control_c, 0, 64, 22
2, 348107, Control_c, 0, 64, 37
2, 348126, Control_c, 0, 64, 55
2, 348145, Control_c, 0, 64, 63
2, 348151, Note_on_c, 0, 49, 0
2, 348164, Control_c, 0, 64, 66
2, 348183, Control_c, 0, 64, 69
2, 348203, Control_c, 0, 64, 76
2, 348221, Control_c, 0, 64, 91
2, 348241, Control_c, 0, 64, 127
2, 348254, Note_on_c, 0, 69, 0
2, 348291, Note_on_c, 0, 74, 78
2, 348294, Note_on_c, 0, 68, 70
2, 348296, Note_on_c, 0, 73, 0
2, 348333, Note_on_c, 0, 68, 0
2, 348509, Control_c, 0, 64, 112
2, 348528, Control_c, 0, 64, 91
2, 348548, Control_c, 0, 64, 75
2, 348566, Control_c, 0, 64, 60
2, 348567, Note_on_c, 0, 73, 75
2, 348568, Note_on_c, 0, 69, 73
2, 348579, Note_on_c, 0, 66, 64
2, 348581, Note_on_c, 0, 74, 0
2, 348586, Control_c, 0, 64, 0
2, 348616, Note_on_c, 0, 54, 48
2, 348682, Control_c, 0, 64, 47
2, 348700, Control_c, 0, 64, 60
2, 348720, Control_c, 0, 64, 63
2, 348739, Control_c, 0, 64, 65
2, 348759, Control_c, 0, 64, 70
2, 348777, Control_c, 0, 64, 83
2, 348778, Note_on_c, 0, 73, 0
2, 348792, Note_on_c, 0, 54, 0
2, 348796, Note_on_c, 0, 69, 0
2, 348797, Control_c, 0, 64, 127
2, 348844, Note_on_c, 0, 71, 78
2, 348998, Note_on_c, 0, 71, 0
2, 349047, Control_c, 0, 64, 106
2, 349067, Control_c, 0, 64, 75
2, 349086, Control_c, 0, 64, 61
2, 349096, Note_on_c, 0, 69, 80
2, 349105, Control_c, 0, 64, 11
2, 349124, Control_c, 0, 64, 0
2, 349127, Note_on_c, 0, 54, 54
2, 349133, Note_on_c, 0, 66, 0
2, 349163, Control_c, 0, 64, 44
2, 349181, Control_c, 0, 64, 60
2, 349201, Control_c, 0, 64, 64
2, 349218, Control_c, 0, 64, 66
2, 349239, Control_c, 0, 64, 70
2, 349257, Control_c, 0, 64, 79
2, 349277, Control_c, 0, 64, 102
2, 349288, Note_on_c, 0, 54, 0
2, 349296, Control_c, 0, 64, 127
2, 349352, Note_on_c, 0, 69, 0
2, 349366, Note_on_c, 0, 73, 76
2, 349603, Note_on_c, 0, 73, 0
2, 349650, Note_on_c, 0, 68, 82
2, 349654, Note_on_c, 0, 71, 71
2, 349659, Note_on_c, 0, 59, 60
2, 349687, Note_on_c, 0, 56, 50
2, 349699, Control_c, 0, 64, 90
2, 349716, Note_on_c, 0, 54, 38
2, 349719, Control_c, 0, 64, 71
2, 349737, Control_c, 0, 64, 59
2, 349757, Control_c, 0, 64, 0
2, 349833, Note_on_c, 0, 54, 0
2, 349834, Control_c, 0, 64, 31
2, 349853, Control_c, 0, 64, 56
2, 349872, Control_c, 0, 64, 62
2, 349891, Control_c, 0, 64, 65
2, 349911, Control_c, 0, 64, 67
2, 349930, Control_c, 0, 64, 70
2, 349930, Note_on_c, 0, 71, 0
2, 349945, Note_on_c, 0, 69, 75
2, 349949, Control_c, 0, 64, 75
2, 349968, Control_c, 0, 64, 84
2, 349988, Control_c, 0, 64, 97
2, 350007, Control_c, 0, 64, 112
2, 350027, Control_c, 0, 64, 127
2, 350146, Note_on_c, 0, 56, 0
2, 350198, Note_on_c, 0, 71, 73
2, 350200, Note_on_c, 0, 53, 63
2, 350213, Note_on_c, 0, 69, 0
2, 350218, Control_c, 0, 64, 97
2, 350238, Control_c, 0, 64, 82
2, 350257, Control_c, 0, 64, 74
2, 350276, Control_c, 0, 64, 71
2, 350334, Control_c, 0, 64, 69
2, 350353, Control_c, 0, 64, 66
2, 350372, Control_c, 0, 64, 64
2, 350392, Control_c, 0, 64, 62
2, 350395, Note_on_c, 0, 59, 0
2, 350410, Control_c, 0, 64, 62
2, 350465, Note_on_c, 0, 51, 55
2, 350467, Note_on_c, 0, 71, 0
2, 350470, Note_on_c, 0, 73, 68
2, 350487, Control_c, 0, 64, 60
2, 350492, Note_on_c, 0, 53, 0
2, 350507, Control_c, 0, 64, 59
2, 350526, Control_c, 0, 64, 57
2, 350545, Control_c, 0, 64, 56
2, 350564, Control_c, 0, 64, 57
2, 350621, Control_c, 0, 64, 56
2, 350641, Control_c, 0, 64, 56
2, 350718, Control_c, 0, 64, 55
2, 350756, Control_c, 0, 64, 54
2, 350772, Note_on_c, 0, 61, 62
2, 350773, Note_on_c, 0, 71, 59
2, 350775, Control_c, 0, 64, 54
2, 350777, Note_on_c, 0, 53, 43
2, 350793, Note_on_c, 0, 51, 0
2, 350795, Control_c, 0, 64, 53
2, 350814, Control_c, 0, 64, 53
2, 350833, Control_c, 0, 64, 52
2, 350852, Control_c, 0, 64, 51
2, 350872, Control_c, 0, 64, 49
2, 350875, Note_on_c, 0, 73, 0
2, 350890, Control_c, 0, 64, 46
2, 350896, Note_on_c, 0, 68, 0
2, 350910, Control_c, 0, 64, 44
2, 350929, Control_c, 0, 64, 41
2, 350949, Control_c, 0, 64, 38
2, 350967, Control_c, 0, 64, 36
2, 350987, Control_c, 0, 64, 35
2, 351006, Control_c, 0, 64, 32
2, 351025, Control_c, 0, 64, 29
2, 351044, Control_c, 0, 64, 26
2, 351051, Note_on_c, 0, 69, 66
2, 351058, Note_on_c, 0, 71, 0
2, 351063, Control_c, 0, 64, 25
2, 351236, Control_c, 0, 64, 24
2, 351268, Note_on_c, 0, 69, 0
2, 351312, Note_on_c, 0, 68, 59
2, 351565, Note_on_c, 0, 71, 56
2, 351570, Note_on_c, 0, 68, 0
2, 351847, Note_on_c, 0, 53, 0
2, 351850, Control_c, 0, 64, 23
2, 351870, Control_c, 0, 64, 21
2, 351889, Control_c, 0, 64, 19
2, 351889, Note_on_c, 0, 69, 61
2, 351891, Note_on_c, 0, 57, 61
2, 351909, Control_c, 0, 64, 11
2, 351922, Note_on_c, 0, 54, 46
2, 351926, Note_on_c, 0, 71, 0
2, 351927, Control_c, 0, 64, 0
2, 351996, Note_on_c, 0, 61, 0
2, 352168, Note_on_c, 0, 68, 70
2, 352215, Control_c, 0, 64, 18
2, 352235, Control_c, 0, 64, 42
2, 352254, Control_c, 0, 64, 53
2, 352273, Control_c, 0, 64, 59
2, 352292, Control_c, 0, 64, 61
2, 352312, Control_c, 0, 64, 63
2, 352330, Control_c, 0, 64, 64
2, 352350, Control_c, 0, 64, 65
2, 352369, Control_c, 0, 64, 66
2, 352389, Control_c, 0, 64, 67
2, 352402, Note_on_c, 0, 54, 0
2, 352407, Control_c, 0, 64, 69
2, 352427, Control_c, 0, 64, 72
2, 352428, Note_on_c, 0, 66, 76
2, 352446, Control_c, 0, 64, 76
2, 352459, Note_on_c, 0, 68, 0
2, 352464, Control_c, 0, 64, 80
2, 352484, Control_c, 0, 64, 83
2, 352503, Control_c, 0, 64, 83
2, 352541, Control_c, 0, 64, 83
2, 352561, Control_c, 0, 64, 82
2, 352580, Control_c, 0, 64, 81
2, 352600, Control_c, 0, 64, 79
2, 352618, Control_c, 0, 64, 78
2, 352638, Control_c, 0, 64, 76
2, 352657, Control_c, 0, 64, 74
2, 352675, Note_on_c, 0, 66, 0
2, 352676, Control_c, 0, 64, 73
2, 352684, Note_on_c, 0, 65, 72
2, 352695, Control_c, 0, 64, 72
2, 352715, Control_c, 0, 64, 72
2, 352734, Control_c, 0, 64, 71
2, 352753, Control_c, 0, 64, 70
2, 352772, Control_c, 0, 64, 68
2, 352792, Control_c, 0, 64, 67
2, 352810, Control_c, 0, 64, 66
2, 352830, Control_c, 0, 64, 65
2, 352849, Control_c, 0, 64, 64
2, 352869, Control_c, 0, 64, 63
2, 352886, Control_c, 0, 64, 63
2, 352906, Note_on_c, 0, 57, 0
2, 352925, Control_c, 0, 64, 62
2, 352944, Control_c, 0, 64, 61
2, 352961, Note_on_c, 0, 66, 68
2, 352963, Control_c, 0, 64, 60
2, 352982, Control_c, 0, 64, 59
2, 352983, Note_on_c, 0, 54, 44
2, 352990, Note_on_c, 0, 65, 0
2, 353002, Control_c, 0, 64, 57
2, 353020, Control_c, 0, 64, 56
2, 353040, Control_c, 0, 64, 55
2, 353055, Control_c, 0, 64, 54
2, 353075, Control_c, 0, 64, 53
2, 353094, Control_c, 0, 64, 51
2, 353113, Control_c, 0, 64, 49
2, 353132, Control_c, 0, 64, 45
2, 353152, Control_c, 0, 64, 42
2, 353170, Control_c, 0, 64, 38
2, 353190, Control_c, 0, 64, 36
2, 353209, Control_c, 0, 64, 35
2, 353229, Control_c, 0, 64, 31
2, 353234, Note_on_c, 0, 61, 64
2, 353250, Control_c, 0, 64, 25
2, 353269, Control_c, 0, 64, 17
2, 353289, Control_c, 0, 64, 0
2, 353432, Note_on_c, 0, 61, 0
2, 353492, Note_on_c, 0, 59, 64
2, 353506, Note_on_c, 0, 54, 0
2, 353634, Control_c, 0, 64, 36
2, 353653, Control_c, 0, 64, 56
2, 353672, Control_c, 0, 64, 61
2, 353692, Control_c, 0, 64, 63
2, 353711, Control_c, 0, 64, 66
2, 353730, Control_c, 0, 64, 69
2, 353731, Note_on_c, 0, 59, 0
2, 353747, Note_on_c, 0, 57, 63
2, 353749, Control_c, 0, 64, 77
2, 353769, Control_c, 0, 64, 94
2, 353784, Note_on_c, 0, 57, 0
2, 353787, Control_c, 0, 64, 127
2, 354067, Note_on_c, 0, 73, 83
2, 354098, Note_on_c, 0, 68, 57
2, 354114, Note_on_c, 0, 56, 44
2, 354149, Note_on_c, 0, 69, 0
2, 354172, Note_on_c, 0, 66, 0
2, 354176, Control_c, 0, 64, 102
2, 354194, Control_c, 0, 64, 83
2, 354214, Control_c, 0, 64, 71
2, 354233, Control_c, 0, 64, 66
2, 354253, Control_c, 0, 64, 64
2, 354271, Control_c, 0, 64, 63
2, 354291, Control_c, 0, 64, 62
2, 354310, Control_c, 0, 64, 61
2, 354329, Control_c, 0, 64, 60
2, 354348, Control_c, 0, 64, 58
2, 354368, Control_c, 0, 64, 55
2, 354387, Control_c, 0, 64, 51
2, 354406, Control_c, 0, 64, 48
2, 354414, Note_on_c, 0, 54, 54
2, 354425, Control_c, 0, 64, 46
2, 354445, Control_c, 0, 64, 44
2, 354463, Control_c, 0, 64, 43
2, 354483, Control_c, 0, 64, 40
2, 354502, Control_c, 0, 64, 38
2, 354522, Control_c, 0, 64, 38
2, 354637, Control_c, 0, 64, 37
2, 354656, Control_c, 0, 64, 36
2, 354674, Control_c, 0, 64, 35
2, 354688, Note_on_c, 0, 52, 53
2, 354694, Control_c, 0, 64, 34
2, 354732, Note_on_c, 0, 54, 0
2, 354751, Control_c, 0, 64, 35
2, 354771, Control_c, 0, 64, 36
2, 354790, Control_c, 0, 64, 37
2, 354809, Control_c, 0, 64, 38
2, 354828, Control_c, 0, 64, 39
2, 354930, Note_on_c, 0, 52, 0
2, 354942, Note_on_c, 0, 51, 53
2, 354963, Control_c, 0, 64, 39
2, 354965, Note_on_c, 0, 68, 0
2, 354976, Note_on_c, 0, 56, 0
2, 354982, Control_c, 0, 64, 40
2, 355002, Control_c, 0, 64, 40
2, 355116, Control_c, 0, 64, 40
2, 355207, Note_on_c, 0, 51, 0
2, 355233, Note_on_c, 0, 52, 48
2, 355251, Control_c, 0, 64, 39
2, 355270, Control_c, 0, 64, 39
2, 355289, Control_c, 0, 64, 38
2, 355308, Control_c, 0, 64, 37
2, 355347, Control_c, 0, 64, 37
2, 355366, Control_c, 0, 64, 36
2, 355443, Control_c, 0, 64, 36
2, 355462, Control_c, 0, 64, 35
2, 355482, Control_c, 0, 64, 34
2, 355491, Note_on_c, 0, 68, 51
2, 355500, Control_c, 0, 64, 32
2, 355520, Control_c, 0, 64, 30
2, 355539, Control_c, 0, 64, 29
2, 355558, Control_c, 0, 64, 27
2, 355577, Control_c, 0, 64, 26
2, 355596, Control_c, 0, 64, 24
2, 355616, Control_c, 0, 64, 19
2, 355634, Control_c, 0, 64, 0
2, 355711, Control_c, 0, 64, 19
2, 355731, Control_c, 0, 64, 34
2, 355749, Note_on_c, 0, 66, 51
2, 355750, Control_c, 0, 64, 45
2, 355756, Note_on_c, 0, 49, 38
2, 355768, Note_on_c, 0, 52, 0
2, 355770, Control_c, 0, 64, 53
2, 355789, Control_c, 0, 64, 58
2, 355801, Note_on_c, 0, 68, 0
2, 355809, Control_c, 0, 64, 61
2, 355827, Control_c, 0, 64, 63
2, 355847, Control_c, 0, 64, 65
2, 355866, Control_c, 0, 64, 66
2, 355886, Control_c, 0, 64, 68
2, 355904, Control_c, 0, 64, 70
2, 355924, Control_c, 0, 64, 74
2, 355943, Control_c, 0, 64, 79
2, 355961, Control_c, 0, 64, 87
2, 355962, Note_on_c, 0, 73, 0
2, 355979, Control_c, 0, 64, 97
2, 355999, Control_c, 0, 64, 127
2, 356004, Note_on_c, 0, 64, 64
2, 356056, Note_on_c, 0, 64, 0
2, 356105, Note_on_c, 0, 66, 0
2, 356334, Note_on_c, 0, 72, 71
2, 356365, Note_on_c, 0, 49, 0
2, 356390, Note_on_c, 0, 63, 43
2, 356395, Note_on_c, 0, 56, 47
2, 356402, Control_c, 0, 64, 107
2, 356421, Control_c, 0, 64, 84
2, 356441, Control_c, 0, 64, 68
2, 356459, Control_c, 0, 64, 53
2, 356479, Control_c, 0, 64, 0
2, 356593, Control_c, 0, 64, 23
2, 356613, Control_c, 0, 64, 53
2, 356632, Control_c, 0, 64, 62
2, 356652, Control_c, 0, 64, 64
2, 356656, Note_on_c, 0, 69, 51
2, 356670, Control_c, 0, 64, 67
2, 356690, Control_c, 0, 64, 72
2, 356709, Control_c, 0, 64, 83
2, 356728, Control_c, 0, 64, 111
2, 356747, Control_c, 0, 64, 127
2, 356844, Control_c, 0, 64, 101
2, 356863, Control_c, 0, 64, 77
2, 356882, Control_c, 0, 64, 68
2, 356901, Control_c, 0, 64, 69
2, 356903, Note_on_c, 0, 44, 62
2, 356904, Note_on_c, 0, 68, 63
2, 356921, Control_c, 0, 64, 74
2, 356939, Control_c, 0, 64, 81
2, 356959, Control_c, 0, 64, 96
2, 356978, Control_c, 0, 64, 127
2, 357057, Note_on_c, 0, 72, 0
2, 357088, Note_on_c, 0, 63, 0
2, 357103, Note_on_c, 0, 69, 0
2, 357136, Note_on_c, 0, 68, 0
2, 357158, Note_on_c, 0, 66, 56
2, 357165, Note_on_c, 0, 56, 0
2, 357224, Note_on_c, 0, 66, 0
2, 357420, Note_on_c, 0, 49, 57
2, 357426, Note_on_c, 0, 76, 83
2, 357439, Control_c, 0, 64, 86
2, 357444, Note_on_c, 0, 44, 0
2, 357454, Note_on_c, 0, 64, 47
2, 357458, Control_c, 0, 64, 66
2, 357478, Control_c, 0, 64, 38
2, 357496, Control_c, 0, 64, 0
2, 357592, Control_c, 0, 64, 47
2, 357612, Control_c, 0, 64, 61
2, 357630, Control_c, 0, 64, 65
2, 357650, Control_c, 0, 64, 70
2, 357669, Control_c, 0, 64, 78
2, 357670, Note_on_c, 0, 49, 0
2, 357690, Control_c, 0, 64, 95
2, 357709, Control_c, 0, 64, 127
2, 357710, Note_on_c, 0, 68, 81
2, 357764, Note_on_c, 0, 64, 0
2, 357867, Note_on_c, 0, 68, 0
2, 357938, Control_c, 0, 64, 99
2, 357950, Note_on_c, 0, 73, 75
2, 357958, Control_c, 0, 64, 73
2, 357960, Note_on_c, 0, 49, 78
2, 357976, Control_c, 0, 64, 60
2, 357995, Control_c, 0, 64, 39
2, 358015, Control_c, 0, 64, 20
2, 358025, Note_on_c, 0, 76, 0
2, 358033, Control_c, 0, 64, 19
2, 358053, Control_c, 0, 64, 31
2, 358072, Control_c, 0, 64, 55
2, 358092, Control_c, 0, 64, 64
2, 358110, Control_c, 0, 64, 69
2, 358130, Control_c, 0, 64, 79
2, 358149, Control_c, 0, 64, 96
2, 358168, Control_c, 0, 64, 127
2, 358187, Note_on_c, 0, 49, 0
2, 358208, Note_on_c, 0, 71, 83
2, 358248, Note_on_c, 0, 73, 0
2, 358503, Note_on_c, 0, 75, 88
2, 358514, Note_on_c, 0, 71, 0
2, 358522, Note_on_c, 0, 69, 69
2, 358530, Note_on_c, 0, 54, 57
2, 358536, Note_on_c, 0, 49, 56
2, 358613, Control_c, 0, 64, 108
2, 358632, Control_c, 0, 64, 92
2, 358651, Control_c, 0, 64, 80
2, 358670, Control_c, 0, 64, 72
2, 358690, Control_c, 0, 64, 67
2, 358709, Control_c, 0, 64, 65
2, 358727, Control_c, 0, 64, 64
2, 358747, Control_c, 0, 64, 63
2, 358766, Control_c, 0, 64, 61
2, 358786, Control_c, 0, 64, 60
2, 358786, Note_on_c, 0, 68, 77
2, 358804, Control_c, 0, 64, 57
2, 358824, Control_c, 0, 64, 55
2, 358843, Control_c, 0, 64, 52
2, 358862, Control_c, 0, 64, 49
2, 358866, Note_on_c, 0, 69, 0
2, 358881, Control_c, 0, 64, 46
2, 358901, Control_c, 0, 64, 43
2, 358920, Control_c, 0, 64, 40
2, 358939, Control_c, 0, 64, 37
2, 358958, Control_c, 0, 64, 35
2, 358978, Control_c, 0, 64, 33
2, 358996, Control_c, 0, 64, 31
2, 359016, Control_c, 0, 64, 30
2, 359052, Note_on_c, 0, 69, 70
2, 359063, Note_on_c, 0, 48, 53
2, 359065, Note_on_c, 0, 68, 0
2, 359093, Control_c, 0, 64, 29
2, 359123, Note_on_c, 0, 49, 0
2, 359131, Control_c, 0, 64, 29
2, 359150, Control_c, 0, 64, 28
2, 359160, Note_on_c, 0, 54, 0
2, 359189, Control_c, 0, 64, 27
2, 359312, Note_on_c, 0, 48, 0
2, 359315, Note_on_c, 0, 46, 50
2, 359316, Note_on_c, 0, 66, 67
2, 359358, Note_on_c, 0, 69, 0
2, 359458, Control_c, 0, 64, 28
2, 359553, Control_c, 0, 64, 29
2, 359573, Control_c, 0, 64, 29
2, 359577, Note_on_c, 0, 46, 0
2, 359580, Note_on_c, 0, 68, 71
2, 359592, Control_c, 0, 64, 31
2, 359595, Note_on_c, 0, 48, 49
2, 359596, Note_on_c, 0, 51, 38
2, 359650, Control_c, 0, 64, 31
2, 359669, Control_c, 0, 64, 32
2, 359674, Note_on_c, 0, 66, 0
2, 359687, Control_c, 0, 64, 32
2, 359844, Note_on_c, 0, 51, 0
2, 359846, Note_on_c, 0, 48, 0
2, 359861, Note_on_c, 0, 49, 64
2, 359880, Control_c, 0, 64, 33
2, 359938, Control_c, 0, 64, 32
2, 359956, Control_c, 0, 64, 31
2, 359976, Control_c, 0, 64, 28
2, 359995, Control_c, 0, 64, 23
2, 360015, Control_c, 0, 64, 13
2, 360033, Control_c, 0, 64, 0
2, 360080, Note_on_c, 0, 49, 0
2, 360128, Note_on_c, 0, 51, 49
2, 360206, Control_c, 0, 64, 30
2, 360226, Control_c, 0, 64, 53
2, 360244, Control_c, 0, 64, 61
2, 360261, Note_on_c, 0, 51, 0
2, 360264, Control_c, 0, 64, 64
2, 360283, Control_c, 0, 64, 67
2, 360302, Control_c, 0, 64, 71
2, 360321, Control_c, 0, 64, 78
2, 360341, Control_c, 0, 64, 86
2, 360360, Control_c, 0, 64, 95
2, 360379, Control_c, 0, 64, 103
2, 360384, Note_on_c, 0, 48, 46
2, 360398, Control_c, 0, 64, 127
2, 360434, Note_on_c, 0, 48, 0
2, 360629, Control_c, 0, 64, 105
2, 360647, Control_c, 0, 64, 79
2, 360648, Note_on_c, 0, 68, 0
2, 360667, Control_c, 0, 64, 62
2, 360686, Control_c, 0, 64, 39
2, 360695, Note_on_c, 0, 52, 41
2, 360701, Note_on_c, 0, 40, 45
2, 360706, Control_c, 0, 64, 0
2, 360782, Control_c, 0, 64, 11
2, 360801, Control_c, 0, 64, 56
2, 360811, Note_on_c, 0, 40, 0
2, 360821, Control_c, 0, 64, 64
2, 360840, Control_c, 0, 64, 67
2, 360859, Control_c, 0, 64, 71
2, 360878, Control_c, 0, 64, 78
2, 360898, Control_c, 0, 64, 86
2, 360916, Control_c, 0, 64, 96
2, 360935, Note_on_c, 0, 52, 0
2, 360936, Control_c, 0, 64, 110
2, 360955, Control_c, 0, 64, 127
2, 360964, Note_on_c, 0, 51, 51
2, 361010, Note_on_c, 0, 51, 0
2, 361044, Note_on_c, 0, 75, 0
2, 361247, Note_on_c, 0, 73, 66
2, 361277, Note_on_c, 0, 52, 37
2, 361281, Control_c, 0, 64, 86
2, 361301, Control_c, 0, 64, 67
2, 361320, Control_c, 0, 64, 56
2, 361339, Control_c, 0, 64, 44
2, 361358, Control_c, 0, 64, 37
2, 361378, Control_c, 0, 64, 34
2, 361396, Control_c, 0, 64, 35
2, 361416, Control_c, 0, 64, 46
2, 361435, Control_c, 0, 64, 58
2, 361455, Control_c, 0, 64, 64
2, 361473, Control_c, 0, 64, 67
2, 361484, Note_on_c, 0, 52, 0
2, 361493, Control_c, 0, 64, 74
2, 361500, Note_on_c, 0, 73, 0
2, 361503, Note_on_c, 0, 72, 61
2, 361512, Control_c, 0, 64, 84
2, 361521, Note_on_c, 0, 54, 52
2, 361532, Control_c, 0, 64, 95
2, 361551, Control_c, 0, 64, 104
2, 361571, Control_c, 0, 64, 113
2, 361590, Control_c, 0, 64, 127
2, 361614, Note_on_c, 0, 54, 0
2, 361706, Note_on_c, 0, 72, 0
2, 361771, Note_on_c, 0, 80, 79
2, 361797, Note_on_c, 0, 73, 56
2, 361800, Control_c, 0, 64, 84
2, 361814, Note_on_c, 0, 52, 46
2, 361819, Control_c, 0, 64, 65
2, 361838, Control_c, 0, 64, 46
2, 361858, Control_c, 0, 64, 0
2, 361935, Control_c, 0, 64, 45
2, 361953, Control_c, 0, 64, 61
2, 361973, Control_c, 0, 64, 65
2, 361992, Control_c, 0, 64, 69
2, 362011, Control_c, 0, 64, 74
2, 362030, Control_c, 0, 64, 83
2, 362050, Control_c, 0, 64, 96
2, 362052, Note_on_c, 0, 51, 58
2, 362065, Note_on_c, 0, 80, 0
2, 362069, Control_c, 0, 64, 117
2, 362087, Control_c, 0, 64, 127
2, 362238, Note_on_c, 0, 52, 0
2, 362271, Note_on_c, 0, 51, 0
2, 362295, Note_on_c, 0, 80, 83
2, 362299, Control_c, 0, 64, 83
2, 362315, Note_on_c, 0, 49, 56
2, 362318, Control_c, 0, 64, 62
2, 362318, Note_on_c, 0, 45, 47
2, 362338, Control_c, 0, 64, 9
2, 362356, Control_c, 0, 64, 0
2, 362415, Control_c, 0, 64, 22
2, 362433, Control_c, 0, 64, 57
2, 362453, Control_c, 0, 64, 64
2, 362472, Control_c, 0, 64, 68
2, 362491, Control_c, 0, 64, 75
2, 362510, Control_c, 0, 64, 87
2, 362530, Control_c, 0, 64, 107
2, 362539, Note_on_c, 0, 45, 0
2, 362545, Note_on_c, 0, 49, 0
2, 362549, Control_c, 0, 64, 127
2, 362564, Note_on_c, 0, 52, 78
2, 362581, Note_on_c, 0, 80, 0
2, 362604, Note_on_c, 0, 52, 0
2, 362831, Note_on_c, 0, 80, 83
2, 362862, Note_on_c, 0, 51, 47
2, 362893, Control_c, 0, 64, 95
2, 362907, Note_on_c, 0, 39, 47
2, 362911, Control_c, 0, 64, 69
2, 362931, Control_c, 0, 64, 51
2, 362950, Control_c, 0, 64, 0
2, 363084, Control_c, 0, 64, 47
2, 363104, Control_c, 0, 64, 62
2, 363110, Note_on_c, 0, 51, 0
2, 363122, Control_c, 0, 64, 66
2, 363132, Note_on_c, 0, 49, 64
2, 363139, Control_c, 0, 64, 70
2, 363159, Control_c, 0, 64, 75
2, 363178, Control_c, 0, 64, 83
2, 363196, Control_c, 0, 64, 98
2, 363209, Note_on_c, 0, 49, 0
2, 363216, Control_c, 0, 64, 127
2, 363367, Control_c, 0, 64, 109
2, 363385, Control_c, 0, 64, 75
2, 363389, Note_on_c, 0, 73, 0
2, 363389, Note_on_c, 0, 78, 77
2, 363398, Note_on_c, 0, 51, 52
2, 363405, Control_c, 0, 64, 55
2, 363406, Note_on_c, 0, 70, 67
2, 363424, Control_c, 0, 64, 0
2, 363445, Note_on_c, 0, 80, 0
2, 363504, Control_c, 0, 64, 30
2, 363523, Control_c, 0, 64, 57
2, 363542, Control_c, 0, 64, 64
2, 363561, Note_on_c, 0, 51, 0
2, 363562, Control_c, 0, 64, 69
2, 363580, Control_c, 0, 64, 78
2, 363600, Control_c, 0, 64, 98
2, 363619, Control_c, 0, 64, 127
2, 363643, Note_on_c, 0, 76, 84
2, 363655, Note_on_c, 0, 52, 73
2, 363675, Note_on_c, 0, 78, 0
2, 363678, Note_on_c, 0, 39, 0
2, 363680, Note_on_c, 0, 70, 0
2, 363703, Note_on_c, 0, 52, 0
2, 363908, Control_c, 0, 64, 111
2, 363913, Note_on_c, 0, 78, 84
2, 363923, Note_on_c, 0, 51, 60
2, 363923, Note_on_c, 0, 75, 70
2, 363926, Control_c, 0, 64, 77
2, 363928, Note_on_c, 0, 76, 0
2, 363945, Control_c, 0, 64, 63
2, 363965, Control_c, 0, 64, 46
2, 363984, Control_c, 0, 64, 36
2, 364003, Control_c, 0, 64, 27
2, 364022, Control_c, 0, 64, 15
2, 364060, Control_c, 0, 64, 42
2, 364080, Control_c, 0, 64, 62
2, 364099, Control_c, 0, 64, 68
2, 364119, Control_c, 0, 64, 81
2, 364136, Note_on_c, 0, 75, 0
2, 364137, Control_c, 0, 64, 109
2, 364157, Control_c, 0, 64, 127
2, 364185, Note_on_c, 0, 49, 82
2, 364215, Note_on_c, 0, 51, 0
2, 364365, Note_on_c, 0, 49, 0
2, 364456, Note_on_c, 0, 75, 92
2, 364461, Note_on_c, 0, 44, 59
2, 364463, Note_on_c, 0, 48, 63
2, 364499, Note_on_c, 0, 78, 0
2, 364503, Control_c, 0, 64, 95
2, 364523, Control_c, 0, 64, 69
2, 364541, Control_c, 0, 64, 54
2, 364561, Control_c, 0, 64, 17
2, 364580, Control_c, 0, 64, 0
2, 364676, Control_c, 0, 64, 53
2, 364695, Control_c, 0, 64, 66
2, 364715, Control_c, 0, 64, 74
2, 364733, Note_on_c, 0, 51, 78
2, 364734, Control_c, 0, 64, 93
2, 364735, Note_on_c, 0, 44, 0
2, 364735, Note_on_c, 0, 48, 0
2, 364753, Control_c, 0, 64, 127
2, 364792, Note_on_c, 0, 51, 0
2, 364806, Note_on_c, 0, 75, 0
2, 365160, Note_on_c, 0, 76, 87
2, 365172, Note_on_c, 0, 75, 80
2, 365185, Note_on_c, 0, 49, 74
2, 365219, Note_on_c, 0, 37, 52
2, 365252, Control_c, 0, 64, 82
2, 365272, Control_c, 0, 64, 63
2, 365290, Control_c, 0, 64, 41
2, 365310, Control_c, 0, 64, 11
2, 365329, Control_c, 0, 64, 0
2, 365386, Control_c, 0, 64, 33
2, 365406, Control_c, 0, 64, 60
2, 365425, Control_c, 0, 64, 67
2, 365444, Control_c, 0, 64, 76
2, 365463, Control_c, 0, 64, 100
2, 365466, Note_on_c, 0, 37, 0
2, 365483, Control_c, 0, 64, 127
2, 365521, Note_on_c, 0, 49, 0
2, 365736, Note_on_c, 0, 75, 0
2, 365800, Note_on_c, 0, 52, 74
2, 365805, Note_on_c, 0, 73, 76
2, 365923, Control_c, 0, 64, 87
2, 365942, Control_c, 0, 64, 68
2, 365962, Control_c, 0, 64, 59
2, 365980, Control_c, 0, 64, 58
2, 366000, Control_c, 0, 64, 60
2, 366019, Control_c, 0, 64, 63
2, 366039, Control_c, 0, 64, 68
2, 366057, Control_c, 0, 64, 79
2, 366076, Note_on_c, 0, 73, 0
2, 366077, Control_c, 0, 64, 105
2, 366086, Note_on_c, 0, 71, 79
2, 366096, Control_c, 0, 64, 127
2, 366361, Note_on_c, 0, 52, 0
2, 366370, Note_on_c, 0, 73, 81
2, 366379, Note_on_c, 0, 57, 70
2, 366403, Control_c, 0, 64, 87
2, 366408, Note_on_c, 0, 71, 0
2, 366422, Control_c, 0, 64, 66
2, 366442, Control_c, 0, 64, 31
2, 366460, Control_c, 0, 64, 0
2, 366595, Control_c, 0, 64, 44
2, 366613, Control_c, 0, 64, 62
2, 366633, Control_c, 0, 64, 67
2, 366652, Control_c, 0, 64, 73
2, 366666, Note_on_c, 0, 57, 0
2, 366671, Control_c, 0, 64, 84
2, 366690, Control_c, 0, 64, 106
2, 366710, Control_c, 0, 64, 127
2, 366948, Note_on_c, 0, 57, 87
2, 367033, Note_on_c, 0, 57, 0
2, 367445, Note_on_c, 0, 76, 0
2, 367583, Note_on_c, 0, 75, 90
2, 367612, Note_on_c, 0, 71, 62
2, 367618, Note_on_c, 0, 57, 55
2, 367638, Note_on_c, 0, 55, 49
2, 367643, Note_on_c, 0, 73, 0
2, 367651, Control_c, 0, 64, 103
2, 367671, Control_c, 0, 64, 69
2, 367680, Note_on_c, 0, 55, 0
2, 367690, Control_c, 0, 64, 13
2, 367709, Control_c, 0, 64, 0
2, 367805, Control_c, 0, 64, 31
2, 367824, Control_c, 0, 64, 61
2, 367843, Control_c, 0, 64, 66
2, 367862, Control_c, 0, 64, 71
2, 367882, Control_c, 0, 64, 83
2, 367900, Control_c, 0, 64, 127
2, 368093, Control_c, 0, 64, 91
2, 368109, Note_on_c, 0, 57, 0
2, 368112, Control_c, 0, 64, 68
2, 368113, Note_on_c, 0, 59, 79
2, 368123, Note_on_c, 0, 55, 61
2, 368131, Control_c, 0, 64, 59
2, 368151, Control_c, 0, 64, 60
2, 368170, Control_c, 0, 64, 63
2, 368189, Control_c, 0, 64, 68
2, 368208, Control_c, 0, 64, 79
2, 368227, Control_c, 0, 64, 127
2, 368311, Note_on_c, 0, 55, 0
2, 368342, Note_on_c, 0, 54, 72
2, 368347, Note_on_c, 0, 59, 0
2, 368380, Note_on_c, 0, 71, 0
2, 368650, Note_on_c, 0, 79, 94
2, 368669, Note_on_c, 0, 71, 78
2, 368671, Note_on_c, 0, 64, 77
2, 368674, Note_on_c, 0, 52, 62
2, 368676, Note_on_c, 0, 54, 0
2, 368687, Control_c, 0, 64, 98
2, 368687, Note_on_c, 0, 75, 0
2, 368706, Control_c, 0, 64, 74
2, 368725, Control_c, 0, 64, 57
2, 368744, Control_c, 0, 64, 0
2, 368918, Control_c, 0, 64, 17
2, 368936, Control_c, 0, 64, 39
2, 368956, Control_c, 0, 64, 58
2, 368975, Control_c, 0, 64, 66
2, 368995, Control_c, 0, 64, 73
2, 369013, Control_c, 0, 64, 91
2, 369033, Control_c, 0, 64, 127
2, 369035, Note_on_c, 0, 64, 0
2, 369217, Note_on_c, 0, 64, 84
2, 369298, Note_on_c, 0, 79, 0
2, 369305, Note_on_c, 0, 71, 0
2, 369366, Note_on_c, 0, 64, 0
2, 369782, Note_on_c, 0, 78, 87
2, 369801, Control_c, 0, 64, 105
2, 369810, Note_on_c, 0, 70, 71
2, 369820, Control_c, 0, 64, 79
2, 369824, Note_on_c, 0, 64, 56
2, 369839, Control_c, 0, 64, 63
2, 369858, Control_c, 0, 64, 0
2, 369955, Control_c, 0, 64, 34
2, 369973, Control_c, 0, 64, 52
2, 369993, Control_c, 0, 64, 61
2, 370012, Control_c, 0, 64, 66
2, 370031, Control_c, 0, 64, 78
2, 370045, Note_on_c, 0, 52, 0
2, 370050, Control_c, 0, 64, 116
2, 370067, Note_on_c, 0, 64, 0
2, 370070, Control_c, 0, 64, 127
2, 370321, Note_on_c, 0, 78, 0
2, 370383, Note_on_c, 0, 62, 70
2, 370395, Note_on_c, 0, 54, 68
2, 370435, Control_c, 0, 64, 84
2, 370453, Control_c, 0, 64, 68
2, 370473, Control_c, 0, 64, 59
2, 370492, Control_c, 0, 64, 52
2, 370511, Control_c, 0, 64, 54
2, 370530, Control_c, 0, 64, 61
2, 370550, Control_c, 0, 64, 64
2, 370569, Control_c, 0, 64, 67
2, 370587, Control_c, 0, 64, 71
2, 370607, Control_c, 0, 64, 77
2, 370626, Control_c, 0, 64, 89
2, 370633, Note_on_c, 0, 61, 76
2, 370645, Control_c, 0, 64, 117
2, 370664, Control_c, 0, 64, 127
2, 370693, Note_on_c, 0, 62, 0
2, 370795, Note_on_c, 0, 54, 0
2, 370928, Note_on_c, 0, 61, 0
2, 370934, Note_on_c, 0, 74, 85
2, 370947, Note_on_c, 0, 59, 57
2, 370953, Control_c, 0, 64, 106
2, 370958, Note_on_c, 0, 66, 70
2, 370960, Note_on_c, 0, 70, 0
2, 370972, Control_c, 0, 64, 87
2, 370991, Control_c, 0, 64, 69
2, 371010, Control_c, 0, 64, 52
2, 371030, Control_c, 0, 64, 0
2, 371164, Control_c, 0, 64, 45
2, 371170, Note_on_c, 0, 59, 0
2, 371183, Control_c, 0, 64, 60
2, 371202, Control_c, 0, 64, 64
2, 371221, Control_c, 0, 64, 71
2, 371241, Control_c, 0, 64, 92
2, 371260, Control_c, 0, 64, 127
2, 371498, Note_on_c, 0, 59, 86
2, 371620, Note_on_c, 0, 59, 0
2, 371706, Note_on_c, 0, 66, 0
2, 372105, Note_on_c, 0, 73, 90
2, 372128, Note_on_c, 0, 59, 77
2, 372140, Note_on_c, 0, 65, 56
2, 372153, Note_on_c, 0, 74, 0
2, 372167, Control_c, 0, 64, 88
2, 372187, Control_c, 0, 64, 65
2, 372206, Control_c, 0, 64, 0
2, 372282, Control_c, 0, 64, 9
2, 372301, Control_c, 0, 64, 49
2, 372320, Control_c, 0, 64, 59
2, 372340, Control_c, 0, 64, 64
2, 372359, Control_c, 0, 64, 72
2, 372378, Control_c, 0, 64, 101
2, 372392, Note_on_c, 0, 65, 0
2, 372397, Control_c, 0, 64, 127
2, 372675, Note_on_c, 0, 59, 0
2, 372702, Note_on_c, 0, 57, 80
2, 372705, Note_on_c, 0, 61, 81
2, 372965, Note_on_c, 0, 56, 82
2, 372995, Note_on_c, 0, 57, 0
2, 373146, Note_on_c, 0, 61, 0
2, 373210, Note_on_c, 0, 69, 81
2, 373219, Note_on_c, 0, 56, 0
2, 373223, Control_c, 0, 64, 79
2, 373229, Note_on_c, 0, 49, 77
2, 373231, Note_on_c, 0, 57, 75
2, 373236, Note_on_c, 0, 66, 57
2, 373242, Control_c, 0, 64, 59
2, 373246, Note_on_c, 0, 73, 0
2, 373261, Control_c, 0, 64, 0
2, 373368, Note_on_c, 0, 66, 0
2, 373415, Control_c, 0, 64, 43
2, 373434, Control_c, 0, 64, 57
2, 373454, Control_c, 0, 64, 62
2, 373472, Control_c, 0, 64, 68
2, 373483, Note_on_c, 0, 57, 0
2, 373487, Note_on_c, 0, 56, 78
2, 373492, Control_c, 0, 64, 76
2, 373511, Control_c, 0, 64, 87
2, 373530, Control_c, 0, 64, 92
2, 373549, Control_c, 0, 64, 92
2, 373568, Control_c, 0, 64, 89
2, 373588, Control_c, 0, 64, 84
2, 373606, Control_c, 0, 64, 76
2, 373626, Control_c, 0, 64, 69
2, 373645, Control_c, 0, 64, 63
2, 373665, Control_c, 0, 64, 51
2, 373683, Control_c, 0, 64, 0
2, 373690, Note_on_c, 0, 56, 0
2, 373741, Note_on_c, 0, 66, 82
2, 373756, Note_on_c, 0, 54, 64
2, 373876, Control_c, 0, 64, 48
2, 373895, Control_c, 0, 64, 55
2, 373900, Note_on_c, 0, 69, 0
2, 373902, Note_on_c, 0, 49, 0
2, 373914, Control_c, 0, 64, 60
2, 373934, Control_c, 0, 64, 64
2, 373952, Control_c, 0, 64, 69
2, 373964, Note_on_c, 0, 54, 0
2, 373972, Control_c, 0, 64, 82
2, 373991, Control_c, 0, 64, 127
2, 373994, Note_on_c, 0, 52, 77
2, 374041, Note_on_c, 0, 66, 0
2, 374120, Note_on_c, 0, 52, 0
2, 374358, Note_on_c, 0, 68, 87
2, 374366, Note_on_c, 0, 48, 41
2, 374379, Note_on_c, 0, 66, 68
2, 374403, Note_on_c, 0, 51, 53
2, 374414, Control_c, 0, 64, 91
2, 374432, Control_c, 0, 64, 69
2, 374451, Control_c, 0, 64, 51
2, 374471, Control_c, 0, 64, 0
2, 374586, Control_c, 0, 64, 50
2, 374605, Control_c, 0, 64, 62
2, 374625, Control_c, 0, 64, 64
2, 374643, Control_c, 0, 64, 66
2, 374663, Control_c, 0, 64, 71
2, 374682, Control_c, 0, 64, 86
2, 374701, Control_c, 0, 64, 127
2, 374712, Note_on_c, 0, 68, 0
2, 374902, Note_on_c, 0, 66, 0
2, 374970, Note_on_c, 0, 68, 81
2, 374990, Note_on_c, 0, 64, 65
2, 375009, Control_c, 0, 64, 89
2, 375029, Control_c, 0, 64, 69
2, 375041, Note_on_c, 0, 51, 0
2, 375047, Control_c, 0, 64, 55
2, 375067, Control_c, 0, 64, 0
2, 375087, Note_on_c, 0, 64, 0
2, 375124, Control_c, 0, 64, 52
2, 375144, Control_c, 0, 64, 62
2, 375162, Control_c, 0, 64, 65
2, 375181, Control_c, 0, 64, 69
2, 375200, Control_c, 0, 64, 75
2, 375220, Control_c, 0, 64, 87
2, 375239, Control_c, 0, 64, 121
2, 375246, Note_on_c, 0, 63, 75
2, 375258, Control_c, 0, 64, 127
2, 375403, Note_on_c, 0, 68, 0
2, 375503, Note_on_c, 0, 63, 0
2, 375506, Note_on_c, 0, 73, 80
2, 375508, Control_c, 0, 64, 85
2, 375515, Note_on_c, 0, 52, 71
2, 375526, Control_c, 0, 64, 65
2, 375530, Note_on_c, 0, 48, 0
2, 375530, Note_on_c, 0, 64, 58
2, 375546, Control_c, 0, 64, 43
2, 375565, Control_c, 0, 64, 0
2, 375680, Control_c, 0, 64, 34
2, 375700, Control_c, 0, 64, 55
2, 375719, Control_c, 0, 64, 61
2, 375738, Control_c, 0, 64, 64
2, 375757, Control_c, 0, 64, 67
2, 375777, Control_c, 0, 64, 74
2, 375777, Note_on_c, 0, 73, 0
2, 375796, Control_c, 0, 64, 94
2, 375815, Control_c, 0, 64, 127
2, 376054, Note_on_c, 0, 73, 84
2, 376065, Note_on_c, 0, 56, 83
2, 376147, Note_on_c, 0, 52, 0
2, 376150, Note_on_c, 0, 64, 0
2, 376204, Note_on_c, 0, 56, 0
2, 376294, Note_on_c, 0, 73, 0
2, 376685, Note_on_c, 0, 73, 81
2, 376701, Note_on_c, 0, 63, 77
2, 376721, Note_on_c, 0, 66, 54
2, 376726, Note_on_c, 0, 51, 61
2, 376775, Control_c, 0, 64, 94
2, 376794, Control_c, 0, 64, 69
2, 376814, Control_c, 0, 64, 45
2, 376832, Control_c, 0, 64, 0
2, 376929, Control_c, 0, 64, 51
2, 376949, Control_c, 0, 64, 62
2, 376967, Control_c, 0, 64, 65
2, 376987, Control_c, 0, 64, 71
2, 377006, Control_c, 0, 64, 89
2, 377026, Control_c, 0, 64, 127
2, 377076, Note_on_c, 0, 63, 0
2, 377257, Note_on_c, 0, 72, 79
2, 377270, Note_on_c, 0, 63, 81
2, 377281, Note_on_c, 0, 66, 0
2, 377301, Note_on_c, 0, 73, 0
2, 377449, Note_on_c, 0, 63, 0
2, 377501, Note_on_c, 0, 70, 88
2, 377546, Note_on_c, 0, 72, 0
2, 377746, Note_on_c, 0, 70, 0
2, 377755, Control_c, 0, 64, 83
2, 377757, Note_on_c, 0, 78, 88
2, 377760, Note_on_c, 0, 72, 86
2, 377771, Note_on_c, 0, 63, 80
2, 377775, Control_c, 0, 64, 65
2, 377793, Control_c, 0, 64, 34
2, 377813, Control_c, 0, 64, 0
2, 377889, Control_c, 0, 64, 41
2, 377909, Control_c, 0, 64, 61
2, 377927, Control_c, 0, 64, 66
2, 377947, Control_c, 0, 64, 72
2, 377966, Control_c, 0, 64, 91
2, 377966, Note_on_c, 0, 63, 0
2, 377986, Control_c, 0, 64, 127
2, 378015, Note_on_c, 0, 73, 87
2, 378045, Note_on_c, 0, 72, 0
2, 378047, Note_on_c, 0, 78, 0
2, 378278, Note_on_c, 0, 61, 89
2, 378281, Note_on_c, 0, 78, 87
2, 378289, Note_on_c, 0, 75, 79
2, 378312, Control_c, 0, 64, 80
2, 378323, Note_on_c, 0, 73, 0
2, 378330, Control_c, 0, 64, 64
2, 378350, Control_c, 0, 64, 48
2, 378369, Control_c, 0, 64, 17
2, 378389, Control_c, 0, 64, 0
2, 378427, Control_c, 0, 64, 45
2, 378446, Control_c, 0, 64, 62
2, 378466, Control_c, 0, 64, 67
2, 378466, Note_on_c, 0, 61, 0
2, 378484, Control_c, 0, 64, 74
2, 378504, Control_c, 0, 64, 86
2, 378523, Control_c, 0, 64, 109
2, 378542, Control_c, 0, 64, 127
2, 378556, Note_on_c, 0, 60, 87
2, 378561, Note_on_c, 0, 51, 0
2, 378562, Note_on_c, 0, 68, 93
2, 378623, Note_on_c, 0, 60, 0
2, 378628, Note_on_c, 0, 75, 0
2, 378649, Note_on_c, 0, 78, 0
2, 378831, Note_on_c, 0, 68, 0
2, 378949, Note_on_c, 0, 78, 92
2, 378956, Note_on_c, 0, 61, 90
2, 378960, Note_on_c, 0, 69, 79
2, 378976, Note_on_c, 0, 49, 71
2, 379041, Control_c, 0, 64, 79
2, 379061, Control_c, 0, 64, 60
2, 379080, Control_c, 0, 64, 0
2, 379176, Control_c, 0, 64, 19
2, 379195, Control_c, 0, 64, 55
2, 379215, Control_c, 0, 64, 63
2, 379233, Control_c, 0, 64, 66
2, 379253, Control_c, 0, 64, 71
2, 379261, Note_on_c, 0, 69, 0
2, 379272, Control_c, 0, 64, 78
2, 379279, Note_on_c, 0, 78, 0
2, 379290, Control_c, 0, 64, 97
2, 379310, Control_c, 0, 64, 127
2, 379585, Note_on_c, 0, 52, 62
2, 379598, Note_on_c, 0, 76, 76
2, 379603, Note_on_c, 0, 68, 76
2, 379605, Note_on_c, 0, 73, 64
2, 379632, Note_on_c, 0, 49, 0
2, 379675, Control_c, 0, 64, 85
2, 379695, Control_c, 0, 64, 65
2, 379713, Control_c, 0, 64, 54
2, 379732, Control_c, 0, 64, 56
2, 379752, Control_c, 0, 64, 62
2, 379769, Note_on_c, 0, 68, 0
2, 379770, Control_c, 0, 64, 66
2, 379790, Control_c, 0, 64, 78
2, 379809, Control_c, 0, 64, 119
2, 379829, Control_c, 0, 64, 127
2, 379879, Note_on_c, 0, 66, 82
2, 379880, Note_on_c, 0, 75, 81
2, 379887, Note_on_c, 0, 72, 75
2, 379910, Note_on_c, 0, 76, 0
2, 379923, Note_on_c, 0, 73, 0
2, 379985, Note_on_c, 0, 66, 0
2, 380132, Note_on_c, 0, 75, 0
2, 380144, Note_on_c, 0, 76, 86
2, 380157, Note_on_c, 0, 57, 70
2, 380157, Note_on_c, 0, 72, 0
2, 380159, Note_on_c, 0, 68, 79
2, 380161, Note_on_c, 0, 52, 0
2, 380166, Note_on_c, 0, 73, 65
2, 380174, Control_c, 0, 64, 78
2, 380192, Control_c, 0, 64, 59
2, 380211, Control_c, 0, 64, 0
2, 380288, Control_c, 0, 64, 55
2, 380308, Control_c, 0, 64, 66
2, 380326, Control_c, 0, 64, 75
2, 380339, Note_on_c, 0, 76, 0
2, 380346, Control_c, 0, 64, 118
2, 380365, Control_c, 0, 64, 127
2, 380370, Note_on_c, 0, 68, 0
2, 380436, Note_on_c, 0, 73, 0
2, 380463, Note_on_c, 0, 57, 0
2, 380658, Note_on_c, 0, 75, 87
2, 380668, Note_on_c, 0, 66, 75
2, 380670, Note_on_c, 0, 61, 0
2, 380683, Note_on_c, 0, 57, 74
2, 380689, Control_c, 0, 64, 115
2, 380708, Control_c, 0, 64, 74
2, 380728, Control_c, 0, 64, 61
2, 380746, Control_c, 0, 64, 54
2, 380766, Control_c, 0, 64, 61
2, 380778, Note_on_c, 0, 66, 0
2, 380785, Control_c, 0, 64, 65
2, 380804, Control_c, 0, 64, 72
2, 380823, Control_c, 0, 64, 89
2, 380843, Control_c, 0, 64, 127
2, 380906, Note_on_c, 0, 57, 0
2, 380925, Note_on_c, 0, 73, 85
2, 380938, Note_on_c, 0, 64, 69
2, 380969, Note_on_c, 0, 75, 0
2, 381039, Note_on_c, 0, 64, 0
2, 381264, Note_on_c, 0, 75, 89
2, 381281, Note_on_c, 0, 73, 0
2, 381284, Note_on_c, 0, 63, 64
2, 381286, Note_on_c, 0, 60, 78
2, 381288, Note_on_c, 0, 57, 70
2, 381288, Note_on_c, 0, 66, 61
2, 381343, Control_c, 0, 64, 115
2, 381361, Control_c, 0, 64, 78
2, 381381, Control_c, 0, 64, 63
2, 381400, Control_c, 0, 64, 23
2, 381419, Control_c, 0, 64, 0
2, 381496, Control_c, 0, 64, 47
2, 381515, Control_c, 0, 64, 64
2, 381535, Control_c, 0, 64, 70
2, 381553, Control_c, 0, 64, 83
2, 381573, Control_c, 0, 64, 114
2, 381592, Control_c, 0, 64, 127
2, 381804, Control_c, 0, 64, 86
2, 381823, Control_c, 0, 64, 67
2, 381841, Control_c, 0, 64, 63
2, 381841, Note_on_c, 0, 72, 79
2, 381859, Note_on_c, 0, 56, 79
2, 381861, Control_c, 0, 64, 65
2, 381876, Note_on_c, 0, 66, 0
2, 381879, Note_on_c, 0, 57, 0
2, 381880, Control_c, 0, 64, 68
2, 381898, Note_on_c, 0, 75, 0
2, 381899, Control_c, 0, 64, 75
2, 381918, Control_c, 0, 64, 96
2, 381938, Control_c, 0, 64, 127
2, 382033, Note_on_c, 0, 60, 0
2, 382093, Note_on_c, 0, 54, 82
2, 382096, Note_on_c, 0, 56, 0
2, 382135, Note_on_c, 0, 63, 0
2, 382318, Note_on_c, 0, 54, 0
2, 382351, Note_on_c, 0, 73, 90
2, 382365, Note_on_c, 0, 64, 72
2, 382372, Note_on_c, 0, 68, 75
2, 382378, Note_on_c, 0, 52, 65
2, 382397, Note_on_c, 0, 72, 0
2, 382398, Control_c, 0, 64, 91
2, 382418, Control_c, 0, 64, 71
2, 382437, Control_c, 0, 64, 64
2, 382456, Control_c, 0, 64, 62
2, 382475, Control_c, 0, 64, 61
2, 382495, Control_c, 0, 64, 59
2, 382513, Control_c, 0, 64, 57
2, 382533, Control_c, 0, 64, 54
2, 382552, Control_c, 0, 64, 52
2, 382572, Control_c, 0, 64, 51
2, 382590, Control_c, 0, 64, 50
2, 382610, Control_c, 0, 64, 46
2, 382622, Note_on_c, 0, 51, 68
2, 382629, Control_c, 0, 64, 38
2, 382648, Control_c, 0, 64, 29
2, 382659, Note_on_c, 0, 52, 0
2, 382667, Control_c, 0, 64, 21
2, 382687, Control_c, 0, 64, 13
2, 382706, Control_c, 0, 64, 0
2, 382892, Note_on_c, 0, 49, 65
2, 382935, Note_on_c, 0, 51, 0
2, 383147, Note_on_c, 0, 49, 0
2, 383166, Note_on_c, 0, 47, 60
2, 383525, Note_on_c, 0, 46, 65
2, 383546, Note_on_c, 0, 47, 0
2, 383692, Note_on_c, 0, 64, 0
2, 384090, Control_c, 0, 64, 29
2, 384109, Control_c, 0, 64, 42
2, 384128, Control_c, 0, 64, 50
2, 384140, Note_on_c, 0, 49, 62
2, 384148, Control_c, 0, 64, 55
2, 384166, Control_c, 0, 64, 59
2, 384186, Control_c, 0, 64, 62
2, 384205, Control_c, 0, 64, 64
2, 384225, Control_c, 0, 64, 66
2, 384243, Control_c, 0, 64, 69
2, 384263, Control_c, 0, 64, 73
2, 384282, Control_c, 0, 64, 79
2, 384301, Control_c, 0, 64, 86
2, 384320, Control_c, 0, 64, 96
2, 384340, Control_c, 0, 64, 127
2, 384377, Note_on_c, 0, 46, 0
2, 384515, Note_on_c, 0, 73, 0
2, 384716, Note_on_c, 0, 66, 69
2, 384750, Note_on_c, 0, 54, 50
2, 384751, Note_on_c, 0, 63, 47
2, 384753, Note_on_c, 0, 45, 42
2, 384782, Note_on_c, 0, 68, 0
2, 384800, Control_c, 0, 64, 91
2, 384801, Note_on_c, 0, 49, 0
2, 384820, Control_c, 0, 64, 70
2, 384839, Control_c, 0, 64, 56
2, 384858, Control_c, 0, 64, 0
2, 384954, Control_c, 0, 64, 26
2, 384973, Control_c, 0, 64, 56
2, 384992, Control_c, 0, 64, 63
2, 385011, Control_c, 0, 64, 67
2, 385024, Note_on_c, 0, 63, 0
2, 385031, Control_c, 0, 64, 74
2, 385050, Control_c, 0, 64, 83
2, 385069, Control_c, 0, 64, 99
2, 385070, Note_on_c, 0, 54, 0
2, 385088, Control_c, 0, 64, 127
2, 385223, Control_c, 0, 64, 95
2, 385242, Control_c, 0, 64, 73
2, 385261, Control_c, 0, 64, 64
2, 385278, Note_on_c, 0, 54, 63
2, 385278, Note_on_c, 0, 61, 73
2, 385280, Control_c, 0, 64, 61
2, 385300, Control_c, 0, 64, 63
2, 385319, Control_c, 0, 64, 65
2, 385338, Control_c, 0, 64, 69
2, 385357, Control_c, 0, 64, 78
2, 385377, Control_c, 0, 64, 94
2, 385396, Control_c, 0, 64, 127
2, 385554, Note_on_c, 0, 54, 0
2, 385636, Note_on_c, 0, 61, 0
2, 385883, Note_on_c, 0, 72, 84
2, 385914, Control_c, 0, 64, 101
2, 385929, Note_on_c, 0, 63, 48
2, 385932, Note_on_c, 0, 66, 0
2, 385933, Control_c, 0, 64, 78
2, 385950, Note_on_c, 0, 54, 44
2, 385952, Control_c, 0, 64, 63
2, 385971, Control_c, 0, 64, 25
2, 385991, Control_c, 0, 64, 0
2, 386068, Control_c, 0, 64, 35
2, 386086, Control_c, 0, 64, 59
2, 386106, Control_c, 0, 64, 64
2, 386125, Control_c, 0, 64, 68
2, 386144, Note_on_c, 0, 63, 0
2, 386145, Control_c, 0, 64, 73
2, 386163, Control_c, 0, 64, 85
2, 386183, Control_c, 0, 64, 127
2, 386300, Note_on_c, 0, 54, 0
2, 386436, Note_on_c, 0, 53, 64
2, 386438, Note_on_c, 0, 65, 69
2, 386439, Note_on_c, 0, 45, 0
2, 386457, Note_on_c, 0, 44, 56
2, 386535, Note_on_c, 0, 53, 0
2, 386670, Note_on_c, 0, 44, 0
2, 386682, Note_on_c, 0, 42, 63
2, 386683, Note_on_c, 0, 66, 80
2, 386686, Note_on_c, 0, 51, 63
2, 386710, Note_on_c, 0, 72, 0
2, 386767, Note_on_c, 0, 65, 0
2, 387011, Note_on_c, 0, 71, 78
2, 387033, Note_on_c, 0, 49, 55
2, 387040, Note_on_c, 0, 42, 0
2, 387040, Note_on_c, 0, 68, 64
2, 387045, Note_on_c, 0, 41, 44
2, 387046, Control_c, 0, 64, 110
2, 387060, Note_on_c, 0, 66, 0
2, 387063, Note_on_c, 0, 51, 0
2, 387066, Control_c, 0, 64, 83
2, 387085, Control_c, 0, 64, 66
2, 387105, Control_c, 0, 64, 50
2, 387123, Control_c, 0, 64, 0
2, 387297, Control_c, 0, 64, 19
2, 387316, Control_c, 0, 64, 48
2, 387335, Control_c, 0, 64, 59
2, 387354, Control_c, 0, 64, 63
2, 387359, Note_on_c, 0, 68, 0
2, 387373, Control_c, 0, 64, 65
2, 387392, Control_c, 0, 64, 67
2, 387411, Control_c, 0, 64, 71
2, 387431, Control_c, 0, 64, 77
2, 387450, Control_c, 0, 64, 87
2, 387469, Control_c, 0, 64, 104
2, 387488, Control_c, 0, 64, 127
2, 387586, Note_on_c, 0, 68, 80
2, 387666, Note_on_c, 0, 71, 0
2, 388103, Note_on_c, 0, 42, 51
2, 388186, Note_on_c, 0, 41, 0
2, 388207, Note_on_c, 0, 70, 77
2, 388233, Note_on_c, 0, 68, 0
2, 388276, Control_c, 0, 64, 84
2, 388295, Control_c, 0, 64, 67
2, 388314, Control_c, 0, 64, 53
2, 388333, Control_c, 0, 64, 0
2, 388476, Note_on_c, 0, 49, 0
2, 388486, Control_c, 0, 64, 36
2, 388506, Control_c, 0, 64, 52
2, 388525, Control_c, 0, 64, 58
2, 388545, Control_c, 0, 64, 61
2, 388563, Control_c, 0, 64, 62
2, 388583, Control_c, 0, 64, 64
2, 388600, Control_c, 0, 64, 66
2, 388620, Control_c, 0, 64, 67
2, 388638, Control_c, 0, 64, 70
2, 388658, Control_c, 0, 64, 74
2, 388677, Control_c, 0, 64, 79
2, 388696, Control_c, 0, 64, 85
2, 388715, Control_c, 0, 64, 90
2, 388718, Note_on_c, 0, 66, 69
2, 388735, Control_c, 0, 64, 101
2, 388754, Control_c, 0, 64, 127
2, 388758, Note_on_c, 0, 61, 48
2, 388986, Note_on_c, 0, 70, 0
2, 388989, Note_on_c, 0, 64, 74
2, 389044, Note_on_c, 0, 61, 0
2, 389056, Note_on_c, 0, 66, 0
2, 389305, Note_on_c, 0, 69, 76
2, 389316, Note_on_c, 0, 64, 0
2, 389329, Note_on_c, 0, 51, 42
2, 389329, Note_on_c, 0, 66, 61
2, 389350, Note_on_c, 0, 63, 41
2, 389368, Control_c, 0, 64, 112
2, 389387, Control_c, 0, 64, 83
2, 389406, Control_c, 0, 64, 64
2, 389426, Control_c, 0, 64, 0
2, 389521, Note_on_c, 0, 66, 0
2, 389541, Control_c, 0, 64, 36
2, 389560, Control_c, 0, 64, 58
2, 389580, Control_c, 0, 64, 63
2, 389598, Control_c, 0, 64, 65
2, 389608, Note_on_c, 0, 42, 0
2, 389618, Control_c, 0, 64, 68
2, 389637, Control_c, 0, 64, 72
2, 389656, Control_c, 0, 64, 80
2, 389675, Control_c, 0, 64, 93
2, 389695, Control_c, 0, 64, 127
2, 389716, Note_on_c, 0, 63, 0
2, 389867, Control_c, 0, 64, 118
2, 389886, Control_c, 0, 64, 80
2, 389901, Note_on_c, 0, 66, 67
2, 389906, Control_c, 0, 64, 65
2, 389923, Note_on_c, 0, 61, 47
2, 389925, Control_c, 0, 64, 56
2, 389944, Control_c, 0, 64, 55
2, 389963, Control_c, 0, 64, 59
2, 389983, Control_c, 0, 64, 63
2, 390001, Control_c, 0, 64, 66
2, 390021, Control_c, 0, 64, 72
2, 390040, Control_c, 0, 64, 85
2, 390060, Control_c, 0, 64, 105
2, 390078, Control_c, 0, 64, 127
2, 390082, Note_on_c, 0, 69, 0
2, 390291, Note_on_c, 0, 61, 0
2, 390299, Note_on_c, 0, 66, 0
2, 390540, Note_on_c, 0, 51, 0
2, 390588, Note_on_c, 0, 44, 38
2, 390668, Note_on_c, 0, 68, 68
2, 390686, Note_on_c, 0, 66, 53
2, 390710, Note_on_c, 0, 60, 42
2, 390765, Control_c, 0, 64, 78
2, 390784, Control_c, 0, 64, 60
2, 390804, Control_c, 0, 64, 33
2, 390822, Control_c, 0, 64, 0
2, 390881, Control_c, 0, 64, 17
2, 390899, Control_c, 0, 64, 39
2, 390919, Control_c, 0, 64, 54
2, 390938, Control_c, 0, 64, 62
2, 390957, Control_c, 0, 64, 66
2, 390976, Control_c, 0, 64, 71
2, 390996, Control_c, 0, 64, 79
2, 391015, Control_c, 0, 64, 88
2, 391034, Control_c, 0, 64, 92
2, 391053, Control_c, 0, 64, 93
2, 391073, Control_c, 0, 64, 95
2, 391091, Control_c, 0, 64, 101
2, 391110, Control_c, 0, 64, 118
2, 391130, Control_c, 0, 64, 127
2, 391264, Control_c, 0, 64, 107
2, 391284, Control_c, 0, 64, 81
2, 391300, Note_on_c, 0, 51, 40
2, 391301, Note_on_c, 0, 64, 55
2, 391302, Control_c, 0, 64, 66
2, 391322, Control_c, 0, 64, 57
2, 391335, Note_on_c, 0, 66, 0
2, 391341, Control_c, 0, 64, 49
2, 391361, Control_c, 0, 64, 44
2, 391379, Control_c, 0, 64, 42
2, 391399, Control_c, 0, 64, 43
2, 391418, Control_c, 0, 64, 49
2, 391437, Control_c, 0, 64, 57
2, 391456, Control_c, 0, 64, 62
2, 391473, Control_c, 0, 64, 65
2, 391492, Control_c, 0, 64, 70
2, 391510, Control_c, 0, 64, 75
2, 391522, Note_on_c, 0, 60, 0
2, 391530, Control_c, 0, 64, 81
2, 391549, Control_c, 0, 64, 86
2, 391554, Note_on_c, 0, 64, 0
2, 391561, Note_on_c, 0, 63, 63
2, 391569, Control_c, 0, 64, 90
2, 391587, Control_c, 0, 64, 92
2, 391607, Control_c, 0, 64, 94
2, 391626, Control_c, 0, 64, 99
2, 391645, Control_c, 0, 64, 104
2, 391664, Control_c, 0, 64, 108
2, 391684, Control_c, 0, 64, 109
2, 391703, Control_c, 0, 64, 110
2, 391722, Control_c, 0, 64, 112
2, 391741, Control_c, 0, 64, 113
2, 391751, Note_on_c, 0, 51, 0
2, 391780, Control_c, 0, 64, 110
2, 391799, Control_c, 0, 64, 101
2, 391818, Control_c, 0, 64, 93
2, 391838, Control_c, 0, 64, 87
2, 391840, Note_on_c, 0, 63, 0
2, 391856, Control_c, 0, 64, 82
2, 391863, Note_on_c, 0, 64, 55
2, 391876, Control_c, 0, 64, 73
2, 391895, Control_c, 0, 64, 61
2, 391896, Note_on_c, 0, 56, 40
2, 391909, Note_on_c, 0, 61, 37
2, 391915, Control_c, 0, 64, 42
2, 391933, Control_c, 0, 64, 15
2, 391953, Control_c, 0, 64, 0
2, 392010, Control_c, 0, 64, 13
2, 392029, Control_c, 0, 64, 37
2, 392049, Control_c, 0, 64, 51
2, 392067, Control_c, 0, 64, 58
2, 392087, Control_c, 0, 64, 61
2, 392106, Control_c, 0, 64, 63
2, 392125, Control_c, 0, 64, 64
2, 392144, Control_c, 0, 64, 66
2, 392163, Note_on_c, 0, 56, 0
2, 392164, Control_c, 0, 64, 69
2, 392183, Control_c, 0, 64, 72
2, 392202, Control_c, 0, 64, 78
2, 392221, Control_c, 0, 64, 84
2, 392248, Control_c, 0, 64, 90
2, 392267, Control_c, 0, 64, 98
2, 392287, Control_c, 0, 64, 109
2, 392305, Control_c, 0, 64, 127
2, 392360, Note_on_c, 0, 64, 0
2, 392428, Note_on_c, 0, 56, 64
2, 392526, Note_on_c, 0, 56, 0
2, 393038, Note_on_c, 0, 70, 74
2, 393076, Note_on_c, 0, 68, 0
2, 393113, Note_on_c, 0, 56, 46
2, 393126, Control_c, 0, 64, 119
2, 393145, Control_c, 0, 64, 78
2, 393164, Control_c, 0, 64, 62
2, 393183, Control_c, 0, 64, 36
2, 393205, Control_c, 0, 64, 9
2, 393243, Control_c, 0, 64, 27
2, 393262, Control_c, 0, 64, 50
2, 393281, Control_c, 0, 64, 63
2, 393300, Control_c, 0, 64, 66
2, 393320, Control_c, 0, 64, 71
2, 393339, Control_c, 0, 64, 79
2, 393358, Control_c, 0, 64, 91
2, 393367, Note_on_c, 0, 56, 0
2, 393377, Control_c, 0, 64, 107
2, 393396, Control_c, 0, 64, 127
2, 393625, Control_c, 0, 64, 91
2, 393645, Control_c, 0, 64, 73
2, 393646, Note_on_c, 0, 66, 58
2, 393655, Note_on_c, 0, 54, 41
2, 393664, Control_c, 0, 64, 67
2, 393684, Control_c, 0, 64, 69
2, 393702, Control_c, 0, 64, 75
2, 393722, Control_c, 0, 64, 88
2, 393741, Control_c, 0, 64, 127
2, 393894, Note_on_c, 0, 68, 81
2, 393900, Note_on_c, 0, 54, 0
2, 393908, Note_on_c, 0, 70, 0
2, 393910, Note_on_c, 0, 52, 61
2, 393917, Note_on_c, 0, 61, 0
2, 393961, Note_on_c, 0, 66, 0
2, 394067, Note_on_c, 0, 52, 0
2, 394168, Note_on_c, 0, 72, 78
2, 394170, Note_on_c, 0, 68, 0
2, 394182, Control_c, 0, 64, 110
2, 394184, Note_on_c, 0, 69, 58
2, 394198, Note_on_c, 0, 63, 56
2, 394202, Control_c, 0, 64, 75
2, 394212, Note_on_c, 0, 54, 45
2, 394221, Control_c, 0, 64, 57
2, 394241, Control_c, 0, 64, 0
2, 394357, Control_c, 0, 64, 45
2, 394375, Control_c, 0, 64, 60
2, 394395, Control_c, 0, 64, 64
2, 394414, Control_c, 0, 64, 67
2, 394434, Control_c, 0, 64, 72
2, 394452, Control_c, 0, 64, 81
2, 394471, Control_c, 0, 64, 93
2, 394482, Note_on_c, 0, 54, 0
2, 394491, Control_c, 0, 64, 110
2, 394510, Control_c, 0, 64, 127
2, 394715, Note_on_c, 0, 68, 81
2, 394755, Note_on_c, 0, 54, 60
2, 394785, Note_on_c, 0, 72, 0
2, 394818, Note_on_c, 0, 69, 0
2, 394828, Note_on_c, 0, 63, 0
2, 394937, Note_on_c, 0, 54, 0
2, 395006, Note_on_c, 0, 68, 0
2, 395390, Note_on_c, 0, 73, 89
2, 395435, Note_on_c, 0, 61, 51
2, 395437, Note_on_c, 0, 54, 48
2, 395528, Control_c, 0, 64, 81
2, 395546, Control_c, 0, 64, 65
2, 395566, Control_c, 0, 64, 24
2, 395585, Control_c, 0, 64, 0
2, 395790, Note_on_c, 0, 61, 0
2, 395835, Control_c, 0, 64, 21
2, 395854, Control_c, 0, 64, 50
2, 395874, Control_c, 0, 64, 63
2, 395892, Control_c, 0, 64, 67
2, 395911, Control_c, 0, 64, 73
2, 395931, Control_c, 0, 64, 86
2, 395949, Note_on_c, 0, 64, 72
2, 395950, Control_c, 0, 64, 127
2, 395956, Note_on_c, 0, 61, 62
2, 395959, Note_on_c, 0, 52, 63
2, 395973, Note_on_c, 0, 54, 0
2, 396192, Note_on_c, 0, 52, 0
2, 396223, Note_on_c, 0, 61, 0
2, 396229, Note_on_c, 0, 51, 61
2, 396348, Note_on_c, 0, 51, 0
2, 396397, Note_on_c, 0, 64, 0
2, 396506, Control_c, 0, 64, 101
2, 396514, Note_on_c, 0, 69, 78
2, 396526, Control_c, 0, 64, 77
2, 396531, Note_on_c, 0, 52, 62
2, 396534, Note_on_c, 0, 66, 64
2, 396545, Control_c, 0, 64, 61
2, 396565, Control_c, 0, 64, 0
2, 396699, Control_c, 0, 64, 31
2, 396718, Control_c, 0, 64, 57
2, 396737, Control_c, 0, 64, 64
2, 396757, Control_c, 0, 64, 71
2, 396778, Control_c, 0, 64, 93
2, 396785, Note_on_c, 0, 66, 0
2, 396797, Control_c, 0, 64, 127
2, 396831, Note_on_c, 0, 69, 0
2, 396860, Note_on_c, 0, 73, 0
2, 397039, Note_on_c, 0, 69, 82
2, 397040, Note_on_c, 0, 51, 67
2, 397048, Control_c, 0, 64, 90
2, 397050, Note_on_c, 0, 66, 76
2, 397066, Control_c, 0, 64, 77
2, 397086, Control_c, 0, 64, 72
2, 397105, Control_c, 0, 64, 74
2, 397123, Control_c, 0, 64, 82
2, 397132, Note_on_c, 0, 52, 0
2, 397143, Control_c, 0, 64, 101
2, 397162, Control_c, 0, 64, 127
2, 397295, Note_on_c, 0, 49, 83
2, 397298, Note_on_c, 0, 51, 0
2, 397305, Note_on_c, 0, 44, 0
2, 397339, Note_on_c, 0, 69, 0
2, 397361, Note_on_c, 0, 66, 0
2, 397620, Note_on_c, 0, 49, 0
2, 397631, Note_on_c, 0, 72, 88
2, 397643, Note_on_c, 0, 69, 76
2, 397655, Note_on_c, 0, 51, 64
2, 397664, Note_on_c, 0, 66, 58
2, 397700, Control_c, 0, 64, 104
2, 397719, Control_c, 0, 64, 73
2, 397738, Control_c, 0, 64, 51
2, 397757, Control_c, 0, 64, 0
2, 397873, Control_c, 0, 64, 23
2, 397892, Control_c, 0, 64, 52
2, 397911, Control_c, 0, 64, 59
2, 397931, Control_c, 0, 64, 62
2, 397949, Control_c, 0, 64, 67
2, 397969, Control_c, 0, 64, 74
2, 397988, Control_c, 0, 64, 95
2, 398008, Control_c, 0, 64, 127
2, 398129, Note_on_c, 0, 66, 0
2, 398163, Note_on_c, 0, 44, 73
2, 398167, Note_on_c, 0, 68, 87
2, 398180, Note_on_c, 0, 64, 64
2, 398194, Note_on_c, 0, 72, 0
2, 398203, Note_on_c, 0, 69, 0
2, 398214, Note_on_c, 0, 51, 0
2, 398232, Note_on_c, 0, 64, 0
2, 398383, Note_on_c, 0, 68, 0
2, 398412, Note_on_c, 0, 66, 85
2, 398421, Note_on_c, 0, 63, 70
2, 398462, Note_on_c, 0, 63, 0
2, 398477, Note_on_c, 0, 66, 0
2, 398728, Note_on_c, 0, 76, 97
2, 398736, Note_on_c, 0, 44, 0
2, 398740, Note_on_c, 0, 64, 81
2, 398743, Note_on_c, 0, 49, 79
2, 398745, Note_on_c, 0, 68, 78
2, 398756, Control_c, 0, 64, 102
2, 398775, Control_c, 0, 64, 72
2, 398794, Control_c, 0, 64, 38
2, 398814, Control_c, 0, 64, 0
2, 398909, Control_c, 0, 64, 24
2, 398929, Control_c, 0, 64, 59
2, 398948, Control_c, 0, 64, 65
2, 398966, Control_c, 0, 64, 70
2, 398969, Note_on_c, 0, 64, 0
2, 398984, Control_c, 0, 64, 87
2, 399003, Control_c, 0, 64, 127
2, 399011, Note_on_c, 0, 49, 0
2, 399043, Note_on_c, 0, 68, 0
2, 399276, Note_on_c, 0, 70, 89
2, 399282, Note_on_c, 0, 66, 82
2, 399283, Note_on_c, 0, 49, 92
2, 399442, Note_on_c, 0, 66, 0
2, 399570, Note_on_c, 0, 72, 89
2, 399571, Note_on_c, 0, 68, 94
2, 399598, Note_on_c, 0, 49, 0
2, 399613, Note_on_c, 0, 70, 0
2, 399745, Note_on_c, 0, 72, 0
2, 400016, Note_on_c, 0, 73, 85
2, 400027, Note_on_c, 0, 70, 83
2, 400033, Note_on_c, 0, 49, 93
2, 400040, Note_on_c, 0, 43, 71
2, 400057, Note_on_c, 0, 68, 0
2, 400176, Control_c, 0, 64, 109
2, 400195, Control_c, 0, 64, 78
2, 400214, Control_c, 0, 64, 64
2, 400233, Control_c, 0, 64, 39
2, 400253, Control_c, 0, 64, 0
2, 400579, Control_c, 0, 64, 37
2, 400598, Control_c, 0, 64, 55
2, 400618, Control_c, 0, 64, 59
2, 400636, Control_c, 0, 64, 61
2, 400656, Control_c, 0, 64, 62
2, 400675, Control_c, 0, 64, 62
2, 400693, Note_on_c, 0, 47, 85
2, 400694, Control_c, 0, 64, 63
2, 400708, Note_on_c, 0, 49, 0
2, 400713, Control_c, 0, 64, 64
2, 400733, Control_c, 0, 64, 62
2, 400752, Control_c, 0, 64, 58
2, 400771, Control_c, 0, 64, 48
2, 400790, Control_c, 0, 64, 37
2, 400810, Control_c, 0, 64, 41
2, 400828, Control_c, 0, 64, 51
2, 400848, Control_c, 0, 64, 59
2, 400867, Control_c, 0, 64, 62
2, 400887, Control_c, 0, 64, 64
2, 400905, Control_c, 0, 64, 65
2, 400924, Control_c, 0, 64, 67
2, 400944, Control_c, 0, 64, 71
2, 400961, Note_on_c, 0, 76, 0
2, 400962, Control_c, 0, 64, 78
2, 400973, Note_on_c, 0, 46, 85
2, 400973, Note_on_c, 0, 47, 0
2, 400976, Control_c, 0, 64, 90
2, 400996, Control_c, 0, 64, 102
2, 401015, Control_c, 0, 64, 121
2, 401034, Control_c, 0, 64, 127
2, 401078, Note_on_c, 0, 70, 0
2, 401359, Note_on_c, 0, 75, 94
2, 401375, Note_on_c, 0, 63, 67
2, 401379, Note_on_c, 0, 70, 74
2, 401395, Note_on_c, 0, 51, 71
2, 401402, Note_on_c, 0, 73, 0
2, 401437, Control_c, 0, 64, 112
2, 401447, Note_on_c, 0, 46, 0
2, 401455, Control_c, 0, 64, 97
2, 401475, Control_c, 0, 64, 88
2, 401494, Control_c, 0, 64, 78
2, 401513, Control_c, 0, 64, 69
2, 401532, Control_c, 0, 64, 62
2, 401552, Control_c, 0, 64, 53
2, 401571, Control_c, 0, 64, 43
2, 401590, Control_c, 0, 64, 34
2, 401609, Control_c, 0, 64, 18
2, 401629, Control_c, 0, 64, 0
2, 401985, Note_on_c, 0, 73, 83
2, 402033, Control_c, 0, 64, 19
2, 402052, Control_c, 0, 64, 43
2, 402071, Control_c, 0, 64, 55
2, 402082, Note_on_c, 0, 75, 0
2, 402090, Control_c, 0, 64, 59
2, 402110, Control_c, 0, 64, 62
2, 402128, Control_c, 0, 64, 64
2, 402148, Control_c, 0, 64, 69
2, 402167, Control_c, 0, 64, 81
2, 402187, Control_c, 0, 64, 127
2, 402207, Note_on_c, 0, 43, 0
2, 402282, Note_on_c, 0, 70, 0
2, 402637, Note_on_c, 0, 44, 63
2, 402713, Note_on_c, 0, 51, 0
2, 402716, Note_on_c, 0, 72, 83
2, 402748, Note_on_c, 0, 68, 57
2, 402767, Note_on_c, 0, 73, 0
2, 402858, Control_c, 0, 64, 95
2, 402878, Control_c, 0, 64, 79
2, 402896, Control_c, 0, 64, 67
2, 402916, Control_c, 0, 64, 60
2, 402935, Control_c, 0, 64, 50
2, 402954, Control_c, 0, 64, 43
2, 402973, Control_c, 0, 64, 37
2, 402993, Control_c, 0, 64, 34
2, 403012, Control_c, 0, 64, 28
2, 403031, Control_c, 0, 64, 13
2, 403050, Control_c, 0, 64, 0
2, 403097, Note_on_c, 0, 52, 73
2, 403388, Note_on_c, 0, 54, 79
2, 403404, Note_on_c, 0, 52, 0
2, 403492, Control_c, 0, 64, 37
2, 403511, Control_c, 0, 64, 51
2, 403530, Control_c, 0, 64, 57
2, 403550, Control_c, 0, 64, 60
2, 403568, Control_c, 0, 64, 63
2, 403588, Control_c, 0, 64, 65
2, 403607, Control_c, 0, 64, 68
2, 403627, Control_c, 0, 64, 74
2, 403645, Control_c, 0, 64, 86
2, 403659, Note_on_c, 0, 68, 0
2, 403665, Control_c, 0, 64, 106
2, 403684, Control_c, 0, 64, 127
2, 403688, Note_on_c, 0, 63, 0
2, 403914, Note_on_c, 0, 73, 85
2, 403940, Note_on_c, 0, 68, 68
2, 403941, Note_on_c, 0, 64, 59
2, 403958, Note_on_c, 0, 72, 0
2, 403971, Control_c, 0, 64, 106
2, 403990, Control_c, 0, 64, 99
2, 404009, Control_c, 0, 64, 89
2, 404029, Control_c, 0, 64, 78
2, 404047, Control_c, 0, 64, 70
2, 404067, Control_c, 0, 64, 65
2, 404086, Control_c, 0, 64, 62
2, 404106, Control_c, 0, 64, 60
2, 404124, Control_c, 0, 64, 59
2, 404146, Control_c, 0, 64, 57
2, 404166, Control_c, 0, 64, 55
2, 404175, Note_on_c, 0, 54, 0
2, 404183, Note_on_c, 0, 52, 76
2, 404185, Control_c, 0, 64, 53
2, 404204, Control_c, 0, 64, 51
2, 404223, Control_c, 0, 64, 49
2, 404243, Control_c, 0, 64, 46
2, 404261, Control_c, 0, 64, 43
2, 404281, Control_c, 0, 64, 41
2, 404320, Control_c, 0, 64, 40
2, 404320, Note_on_c, 0, 68, 0
2, 404338, Control_c, 0, 64, 39
2, 404357, Note_on_c, 0, 67, 24
2, 404358, Control_c, 0, 64, 38
2, 404377, Control_c, 0, 64, 37
2, 404396, Control_c, 0, 64, 36
2, 404406, Note_on_c, 0, 67, 0
2, 404415, Control_c, 0, 64, 35
2, 404434, Control_c, 0, 64, 35
2, 404452, Note_on_c, 0, 51, 69
2, 404454, Control_c, 0, 64, 34
2, 404472, Control_c, 0, 64, 34
2, 404492, Control_c, 0, 64, 32
2, 404511, Control_c, 0, 64, 31
2, 404518, Note_on_c, 0, 52, 0
2, 404549, Control_c, 0, 64, 30
2, 404569, Control_c, 0, 64, 29
2, 404588, Control_c, 0, 64, 27
2, 404607, Control_c, 0, 64, 23
2, 404626, Control_c, 0, 64, 19
2, 404646, Control_c, 0, 64, 17
2, 404665, Control_c, 0, 64, 13
2, 404684, Control_c, 0, 64, 0
2, 404734, Note_on_c, 0, 49, 75
2, 404739, Note_on_c, 0, 51, 0
2, 404773, Note_on_c, 0, 64, 0
2, 405142, Note_on_c, 0, 63, 79
2, 405174, Note_on_c, 0, 56, 59
2, 405221, Note_on_c, 0, 49, 0
2, 405490, Control_c, 0, 64, 22
2, 405509, Control_c, 0, 64, 40
2, 405529, Control_c, 0, 64, 49
2, 405548, Control_c, 0, 64, 53
2, 405567, Control_c, 0, 64, 57
2, 405586, Control_c, 0, 64, 59
2, 405606, Control_c, 0, 64, 61
2, 405625, Control_c, 0, 64, 62
2, 405644, Control_c, 0, 64, 63
2, 405663, Control_c, 0, 64, 65
2, 405683, Control_c, 0, 64, 67
2, 405701, Control_c, 0, 64, 72
2, 405721, Control_c, 0, 64, 80
2, 405740, Control_c, 0, 64, 93
2, 405760, Control_c, 0, 64, 112
2, 405778, Control_c, 0, 64, 127
2, 406017, Note_on_c, 0, 73, 0
2, 406544, Note_on_c, 0, 72, 81
2, 406681, Control_c, 0, 64, 84
2, 406700, Control_c, 0, 64, 68
2, 406720, Control_c, 0, 64, 55
2, 406738, Control_c, 0, 64, 13
2, 406758, Control_c, 0, 64, 0
2, 406833, Control_c, 0, 64, 33
2, 406853, Control_c, 0, 64, 53
2, 406871, Control_c, 0, 64, 59
2, 406891, Control_c, 0, 64, 63
2, 406910, Control_c, 0, 64, 64
2, 406930, Control_c, 0, 64, 65
2, 406944, Note_on_c, 0, 63, 0
2, 406948, Control_c, 0, 64, 67
2, 406968, Control_c, 0, 64, 69
2, 406987, Control_c, 0, 64, 73
2, 407006, Control_c, 0, 64, 82
2, 407025, Control_c, 0, 64, 96
2, 407045, Control_c, 0, 64, 112
2, 407064, Control_c, 0, 64, 127
2, 407260, Note_on_c, 0, 64, 66
2, 407282, Note_on_c, 0, 44, 0
2, 407351, Note_on_c, 0, 56, 0
2, 407600, Note_on_c, 0, 72, 0
2, 407605, Note_on_c, 0, 66, 75
2, 407805, Note_on_c, 0, 64, 0
2, 408170, Note_on_c, 0, 73, 83
2, 408190, Note_on_c, 0, 65, 60
2, 408224, Note_on_c, 0, 57, 49
2, 408224, Note_on_c, 0, 66, 0
2, 408233, Note_on_c, 0, 49, 46
2, 408370, Control_c, 0, 64, 95
2, 408388, Control_c, 0, 64, 76
2, 408408, Control_c, 0, 64, 65
2, 408427, Control_c, 0, 64, 54
2, 408446, Control_c, 0, 64, 0
2, 408580, Control_c, 0, 64, 20
2, 408600, Control_c, 0, 64, 47
2, 408619, Control_c, 0, 64, 56
2, 408639, Control_c, 0, 64, 59
2, 408657, Control_c, 0, 64, 62
2, 408677, Control_c, 0, 64, 64
2, 408696, Control_c, 0, 64, 66
2, 408716, Control_c, 0, 64, 70
2, 408734, Control_c, 0, 64, 78
2, 408741, Note_on_c, 0, 65, 0
2, 408754, Control_c, 0, 64, 93
2, 408774, Control_c, 0, 64, 127
2, 409084, Note_on_c, 0, 61, 71
2, 409747, Note_on_c, 0, 66, 76
2, 409869, Control_c, 0, 64, 90
2, 409888, Control_c, 0, 64, 68
2, 409907, Control_c, 0, 64, 53
2, 409927, Control_c, 0, 64, 0
2, 409937, Note_on_c, 0, 61, 0
2, 409965, Control_c, 0, 64, 24
2, 409984, Control_c, 0, 64, 49
2, 410004, Control_c, 0, 64, 60
2, 410022, Control_c, 0, 64, 64
2, 410042, Control_c, 0, 64, 66
2, 410061, Control_c, 0, 64, 70
2, 410081, Control_c, 0, 64, 75
2, 410099, Control_c, 0, 64, 82
2, 410119, Control_c, 0, 64, 92
2, 410138, Control_c, 0, 64, 107
2, 410157, Control_c, 0, 64, 127
2, 410363, Note_on_c, 0, 57, 0
2, 410368, Control_c, 0, 64, 121
2, 410387, Control_c, 0, 64, 84
2, 410397, Note_on_c, 0, 56, 61
2, 410407, Control_c, 0, 64, 71
2, 410425, Control_c, 0, 64, 67
2, 410445, Control_c, 0, 64, 69
2, 410464, Control_c, 0, 64, 73
2, 410484, Control_c, 0, 64, 79
2, 410502, Control_c, 0, 64, 88
2, 410522, Control_c, 0, 64, 101
2, 410541, Control_c, 0, 64, 127
2, 410671, Note_on_c, 0, 56, 0
2, 410677, Note_on_c, 0, 57, 71
2, 410947, Note_on_c, 0, 57, 0
2, 410971, Note_on_c, 0, 65, 79
2, 411001, Control_c, 0, 64, 92
2, 411005, Note_on_c, 0, 66, 0
2, 411020, Control_c, 0, 64, 72
2, 411021, Note_on_c, 0, 59, 52
2, 411040, Control_c, 0, 64, 62
2, 411058, Control_c, 0, 64, 46
2, 411078, Control_c, 0, 64, 0
2, 411192, Control_c, 0, 64, 18
2, 411212, Control_c, 0, 64, 49
2, 411231, Control_c, 0, 64, 58
2, 411251, Control_c, 0, 64, 61
2, 411269, Control_c, 0, 64, 63
2, 411289, Control_c, 0, 64, 64
2, 411308, Control_c, 0, 64, 66
2, 411327, Control_c, 0, 64, 67
2, 411346, Control_c, 0, 64, 70
2, 411366, Control_c, 0, 64, 74
2, 411385, Control_c, 0, 64, 81
2, 411404, Control_c, 0, 64, 93
2, 411423, Control_c, 0, 64, 127
2, 411562, Note_on_c, 0, 61, 79
2, 411597, Note_on_c, 0, 57, 50
2, 411881, Note_on_c, 0, 61, 0
2, 411907, Note_on_c, 0, 59, 0
2, 412093, Note_on_c, 0, 65, 0
2, 412129, Note_on_c, 0, 69, 78
2, 412151, Note_on_c, 0, 66, 64
2, 412169, Note_on_c, 0, 57, 0
2, 412173, Control_c, 0, 64, 117
2, 412184, Note_on_c, 0, 56, 45
2, 412192, Control_c, 0, 64, 85
2, 412211, Control_c, 0, 64, 69
2, 412230, Control_c, 0, 64, 59
2, 412250, Control_c, 0, 64, 27
2, 412269, Control_c, 0, 64, 0
2, 412345, Control_c, 0, 64, 36
2, 412365, Control_c, 0, 64, 56
2, 412384, Control_c, 0, 64, 62
2, 412405, Control_c, 0, 64, 65
2, 412423, Control_c, 0, 64, 68
2, 412443, Control_c, 0, 64, 73
2, 412450, Note_on_c, 0, 66, 0
2, 412462, Control_c, 0, 64, 84
2, 412481, Control_c, 0, 64, 113
2, 412500, Control_c, 0, 64, 127
2, 412607, Note_on_c, 0, 56, 0
2, 412782, Note_on_c, 0, 66, 70
2, 412832, Note_on_c, 0, 54, 39
2, 412862, Control_c, 0, 64, 87
2, 412882, Control_c, 0, 64, 68
2, 412900, Control_c, 0, 64, 54
2, 412920, Control_c, 0, 64, 26
2, 412939, Control_c, 0, 64, 0
2, 412997, Control_c, 0, 64, 38
2, 413016, Control_c, 0, 64, 56
2, 413035, Control_c, 0, 64, 62
2, 413054, Control_c, 0, 64, 64
2, 413073, Control_c, 0, 64, 67
2, 413093, Control_c, 0, 64, 71
2, 413111, Control_c, 0, 64, 78
2, 413131, Control_c, 0, 64, 86
2, 413147, Note_on_c, 0, 69, 0
2, 413150, Control_c, 0, 64, 97
2, 413150, Note_on_c, 0, 54, 0
2, 413170, Control_c, 0, 64, 127
2, 413233, Note_on_c, 0, 66, 0
2, 413616, Note_on_c, 0, 68, 70
2, 413648, Note_on_c, 0, 66, 51
2, 413717, Note_on_c, 0, 61, 35
2, 413747, Control_c, 0, 64, 101
2, 413767, Control_c, 0, 64, 76
2, 413785, Control_c, 0, 64, 65
2, 413805, Control_c, 0, 64, 51
2, 413824, Control_c, 0, 64, 0
2, 413921, Control_c, 0, 67, 11
2, 413939, Control_c, 0, 64, 38
2, 413939, Control_c, 0, 67, 22
2, 413959, Control_c, 0, 64, 53
2, 413959, Control_c, 0, 67, 36
2, 413978, Control_c, 0, 64, 58
2, 413978, Control_c, 0, 67, 49
2, 413997, Control_c, 0, 64, 61
2, 413997, Control_c, 0, 67, 63
2, 414016, Control_c, 0, 64, 63
2, 414016, Control_c, 0, 67, 73
2, 414035, Control_c, 0, 64, 65
2, 414035, Control_c, 0, 67, 84
2, 414055, Control_c, 0, 64, 68
2, 414055, Control_c, 0, 67, 95
2, 414073, Control_c, 0, 64, 71
2, 414073, Control_c, 0, 67, 106
2, 414093, Control_c, 0, 64, 76
2, 414093, Control_c, 0, 67, 117
2, 414105, Note_on_c, 0, 61, 0
2, 414112, Control_c, 0, 64, 83
2, 414112, Control_c, 0, 67, 127
2, 414131, Control_c, 0, 64, 93
2, 414150, Control_c, 0, 64, 127
2, 414476, Note_on_c, 0, 59, 48
2, 414817, Note_on_c, 0, 59, 0
2, 414819, Note_on_c, 0, 57, 46
2, 414903, Note_on_c, 0, 66, 0
2, 415107, Note_on_c, 0, 57, 0
2, 415220, Note_on_c, 0, 65, 42
2, 415256, Note_on_c, 0, 56, 30
2, 415301, Control_c, 0, 64, 103
2, 415321, Control_c, 0, 64, 79
2, 415340, Control_c, 0, 64, 67
2, 415360, Control_c, 0, 64, 60
2, 415378, Control_c, 0, 64, 48
2, 415398, Control_c, 0, 64, 19
2, 415417, Control_c, 0, 64, 0
2, 415571, Control_c, 0, 64, 29
2, 415589, Control_c, 0, 64, 51
2, 415609, Control_c, 0, 64, 58
2, 415628, Control_c, 0, 64, 61
2, 415647, Control_c, 0, 64, 63
2, 415666, Control_c, 0, 64, 65
2, 415686, Control_c, 0, 64, 67
2, 415705, Control_c, 0, 64, 71
2, 415724, Control_c, 0, 64, 75
2, 415730, Note_on_c, 0, 56, 0
2, 415743, Control_c, 0, 64, 78
2, 415763, Control_c, 0, 64, 83
2, 415781, Control_c, 0, 64, 90
2, 415801, Control_c, 0, 64, 101
2, 415820, Control_c, 0, 64, 127
2, 415835, Note_on_c, 0, 65, 0
2, 416211, Note_on_c, 0, 63, 36
2, 416270, Note_on_c, 0, 54, 28
2, 416378, Control_c, 0, 64, 108
2, 416396, Control_c, 0, 64, 81
2, 416416, Control_c, 0, 64, 67
2, 416434, Control_c, 0, 64, 60
2, 416454, Control_c, 0, 64, 54
2, 416472, Control_c, 0, 64, 48
2, 416492, Control_c, 0, 64, 41
2, 416511, Control_c, 0, 64, 27
2, 416531, Control_c, 0, 64, 0
2, 416665, Control_c, 0, 64, 43
2, 416684, Control_c, 0, 64, 55
2, 416703, Control_c, 0, 64, 60
2, 416723, Control_c, 0, 64, 62
2, 416741, Control_c, 0, 64, 64
2, 416761, Control_c, 0, 64, 65
2, 416780, Control_c, 0, 64, 67
2, 416800, Control_c, 0, 64, 71
2, 416818, Control_c, 0, 64, 75
2, 416838, Control_c, 0, 64, 80
2, 416857, Control_c, 0, 64, 85
2, 416875, Control_c, 0, 64, 91
2, 416895, Control_c, 0, 64, 100
2, 416914, Control_c, 0, 64, 123
2, 416934, Control_c, 0, 64, 127
2, 417008, Note_on_c, 0, 63, 0
2, 417031, Note_on_c, 0, 54, 0
2, 418239, Note_on_c, 0, 65, 29
2, 418263, Note_on_c, 0, 56, 28
2, 418395, Control_c, 0, 64, 112
2, 418415, Control_c, 0, 64, 88
2, 418434, Control_c, 0, 64, 76
2, 418454, Control_c, 0, 64, 68
2, 418472, Control_c, 0, 64, 66
2, 418492, Control_c, 0, 64, 65
2, 418511, Control_c, 0, 64, 64
2, 418530, Control_c, 0, 64, 62
2, 418549, Control_c, 0, 64, 58
2, 418568, Control_c, 0, 64, 51
2, 418588, Control_c, 0, 64, 36
2, 418606, Control_c, 0, 64, 18
2, 418626, Control_c, 0, 64, 0
2, 418952, Control_c, 0, 64, 32
2, 418972, Control_c, 0, 64, 46
2, 418991, Control_c, 0, 64, 53
2, 419010, Control_c, 0, 64, 56
2, 419029, Control_c, 0, 64, 57
2, 419048, Control_c, 0, 64, 58
2, 419068, Control_c, 0, 64, 60
2, 419086, Control_c, 0, 64, 61
2, 419106, Control_c, 0, 64, 62
2, 419125, Control_c, 0, 64, 62
2, 419144, Control_c, 0, 64, 63
2, 419163, Control_c, 0, 64, 64
2, 419183, Control_c, 0, 64, 65
2, 419202, Control_c, 0, 64, 66
2, 419221, Control_c, 0, 64, 67
2, 419240, Control_c, 0, 64, 69
2, 419260, Control_c, 0, 64, 70
2, 419278, Control_c, 0, 64, 72
2, 419298, Control_c, 0, 64, 74
2, 419317, Control_c, 0, 64, 75
2, 419337, Control_c, 0, 64, 77
2, 419355, Control_c, 0, 64, 79
2, 419375, Control_c, 0, 64, 82
2, 419394, Control_c, 0, 64, 86
2, 419414, Control_c, 0, 64, 91
2, 419432, Control_c, 0, 64, 96
2, 419452, Control_c, 0, 64, 104
2, 419471, Control_c, 0, 64, 127
2, 421242, Note_on_c, 0, 65, 0
2, 421281, Note_on_c, 0, 56, 0
2, 421591, Note_on_c, 0, 68, 0
2, 421683, Note_on_c, 0, 73, 0
2, 421792, Note_on_c, 0, 49, 0
2, 422368, Control_c, 0, 64, 123
2, 422388, Control_c, 0, 64, 119
2, 422445, Control_c, 0, 64, 118
2, 422465, Control_c, 0, 64, 115
2, 422484, Control_c, 0, 64, 112
2, 422561, Control_c, 0, 64, 111
2, 422580, Control_c, 0, 64, 108
2, 422599, Control_c, 0, 64, 104
2, 422619, Control_c, 0, 64, 103
2, 422638, Control_c, 0, 64, 103
2, 422657, Control_c, 0, 64, 102
2, 422676, Control_c, 0, 64, 101
2, 422696, Control_c, 0, 64, 99
2, 422714, Control_c, 0, 64, 96
2, 422734, Control_c, 0, 64, 96
2, 422791, Control_c, 0, 64, 95
2, 422811, Control_c, 0, 64, 94
2, 422830, Control_c, 0, 64, 92
2, 422925, Control_c, 0, 64, 91
2, 422945, Control_c, 0, 64, 91
2, 422964, Control_c, 0, 64, 91
2, 423022, Control_c, 0, 64, 91
2, 423041, Control_c, 0, 64, 90
2, 423060, Control_c, 0, 64, 89
2, 423137, Control_c, 0, 64, 89
2, 423214, Control_c, 0, 64, 88
2, 423233, Control_c, 0, 64, 88
2, 423253, Control_c, 0, 64, 87
2, 423271, Control_c, 0, 64, 86
2, 423367, Control_c, 0, 64, 85
2, 423387, Control_c, 0, 64, 84
2, 423464, Control_c, 0, 64, 84
2, 423502, Control_c, 0, 64, 83
2, 423617, Control_c, 0, 64, 83
2, 423713, Control_c, 0, 64, 82
2, 423733, Control_c, 0, 64, 82
2, 423828, Control_c, 0, 64, 81
2, 423924, Control_c, 0, 64, 81
2, 423944, Control_c, 0, 64, 80
2, 423962, Control_c, 0, 64, 79
2, 424174, Control_c, 0, 64, 79
2, 424424, Control_c, 0, 64, 78
2, 424500, Control_c, 0, 64, 78
2, 424577, Control_c, 0, 64, 77
2, 424731, Control_c, 0, 64, 77
2, 424768, Control_c, 0, 64, 77
2, 424845, Control_c, 0, 64, 77
2, 424962, Control_c, 0, 64, 76
2, 424981, Control_c, 0, 64, 75
2, 425020, Control_c, 0, 64, 76
2, 425077, Control_c, 0, 64, 75
2, 425308, Control_c, 0, 64, 75
2, 425423, Control_c, 0, 64, 74
2, 425538, Control_c, 0, 64, 74
2, 425595, Control_c, 0, 64, 74
2, 425634, Control_c, 0, 64, 74
2, 425729, Control_c, 0, 64, 73
2, 425749, Control_c, 0, 64, 72
2, 425768, Control_c, 0, 64, 71
2, 425903, Control_c, 0, 64, 72
2, 425980, Control_c, 0, 64, 71
2, 426113, Control_c, 0, 64, 71
2, 426171, Control_c, 0, 64, 70
2, 426190, Control_c, 0, 64, 70
2, 426324, Control_c, 0, 64, 69
2, 426497, Control_c, 0, 64, 69
2, 426554, Control_c, 0, 64, 68
2, 426574, Control_c, 0, 64, 68
2, 426785, Control_c, 0, 64, 67
2, 426824, Control_c, 0, 64, 67
2, 427017, Control_c, 0, 64, 66
2, 427189, Control_c, 0, 64, 66
2, 427323, Control_c, 0, 64, 65
2, 427362, Control_c, 0, 64, 65
2, 427631, Control_c, 0, 64, 64
2, 427669, Control_c, 0, 64, 65
2, 427746, Control_c, 0, 64, 64
2, 427803, Control_c, 0, 64, 64
2, 427900, Control_c, 0, 64, 63
2, 427995, Control_c, 0, 64, 63
2, 428092, Control_c, 0, 64, 62
2, 428248, Control_c, 0, 64, 62
2, 428344, Control_c, 0, 64, 61
2, 428401, Control_c, 0, 64, 61
2, 428478, Control_c, 0, 64, 60
2, 428594, Control_c, 0, 64, 60
2, 428689, Control_c, 0, 64, 59
2, 428747, Control_c, 0, 64, 59
2, 428786, Control_c, 0, 64, 58
2, 428805, Control_c, 0, 64, 58
2, 428843, Control_c, 0, 64, 57
2, 428844, End_track
0, 0, End_of_file
