0, 0, Header, 1, 2, 480
1, 0, Start_track
1, 0, Tempo, 500000
1, 0, Time_signature, 4, 2, 24, 8
1, 1, End_track
2, 0, Start_track
2, 0, Program_c, 0, 0
2, 0, Control_c, 0, 64, 55
2, 0, Control_c, 0, 67, 127
2, 946, Note_on_c, 0, 68, 49
2, 991, Note_on_c, 0, 49, 40
2, 1293, Note_on_c, 0, 66, 53
2, 1419, Note_on_c, 0, 68, 0
2, 1452, Control_c, 0, 64, 55
2, 1582, Note_on_c, 0, 64, 52
2, 1606, Control_c, 0, 64, 54
2, 1634, Note_on_c, 0, 66, 0
2, 1663, Control_c, 0, 64, 54
2, 1720, Control_c, 0, 64, 53
2, 1759, Control_c, 0, 64, 53
2, 1797, Control_c, 0, 64, 52
2, 1820, Note_on_c, 0, 64, 0
2, 1835, Control_c, 0, 64, 52
2, 1853, Note_on_c, 0, 63, 53
2, 1855, Control_c, 0, 64, 51
2, 1912, Control_c, 0, 64, 51
2, 1932, Control_c, 0, 64, 50
2, 1951, Control_c, 0, 64, 49
2, 1970, Control_c, 0, 64, 47
2, 1989, Control_c, 0, 64, 45
2, 2009, Control_c, 0, 64, 41
2, 2028, Control_c, 0, 64, 36
2, 2047, Control_c, 0, 64, 31
2, 2066, Control_c, 0, 64, 28
2, 2086, Control_c, 0, 64, 27
2, 2087, Note_on_c, 0, 63, 0
2, 2123, Control_c, 0, 64, 28
2, 2139, Note_on_c, 0, 64, 43
2, 2143, Control_c, 0, 64, 31
2, 2162, Control_c, 0, 64, 34
2, 2181, Control_c, 0, 64, 36
2, 2200, Control_c, 0, 64, 40
2, 2220, Control_c, 0, 64, 44
2, 2239, Control_c, 0, 64, 48
2, 2258, Control_c, 0, 64, 53
2, 2277, Control_c, 0, 64, 57
2, 2297, Control_c, 0, 64, 59
2, 2315, Control_c, 0, 64, 61
2, 2331, Note_on_c, 0, 64, 0
2, 2335, Control_c, 0, 64, 63
2, 2354, Control_c, 0, 64, 65
2, 2374, Control_c, 0, 64, 69
2, 2392, Control_c, 0, 64, 76
2, 2392, Note_on_c, 0, 61, 49
2, 2412, Control_c, 0, 64, 88
2, 2431, Control_c, 0, 64, 99
2, 2450, Control_c, 0, 64, 112
2, 2469, Control_c, 0, 64, 127
2, 2556, Note_on_c, 0, 61, 0
2, 2643, Note_on_c, 0, 64, 55
2, 2727, Note_on_c, 0, 68, 61
2, 2862, Note_on_c, 0, 73, 59
2, 2871, Control_c, 0, 64, 103
2, 2891, Control_c, 0, 64, 95
2, 2910, Control_c, 0, 64, 88
2, 2930, Control_c, 0, 64, 79
2, 2948, Control_c, 0, 64, 68
2, 2968, Control_c, 0, 64, 55
2, 2987, Control_c, 0, 64, 20
2, 3006, Control_c, 0, 64, 0
2, 3102, Control_c, 0, 64, 11
2, 3121, Control_c, 0, 64, 27
2, 3140, Control_c, 0, 64, 40
2, 3159, Control_c, 0, 64, 49
2, 3179, Control_c, 0, 64, 54
2, 3198, Control_c, 0, 64, 57
2, 3217, Control_c, 0, 64, 60
2, 3236, Control_c, 0, 64, 62
2, 3256, Control_c, 0, 64, 64
2, 3275, Control_c, 0, 64, 67
2, 3294, Control_c, 0, 64, 73
2, 3313, Control_c, 0, 64, 81
2, 3333, Control_c, 0, 64, 93
2, 3351, Control_c, 0, 64, 110
2, 3371, Control_c, 0, 64, 127
2, 3434, Note_on_c, 0, 73, 0
2, 3770, Note_on_c, 0, 68, 0
2, 3807, Note_on_c, 0, 71, 60
2, 4101, Note_on_c, 0, 71, 0
2, 4106, Note_on_c, 0, 69, 58
2, 4107, Note_on_c, 0, 64, 0
2, 4139, Control_c, 0, 64, 107
2, 4143, Note_on_c, 0, 66, 44
2, 4158, Control_c, 0, 64, 88
2, 4177, Control_c, 0, 64, 74
2, 4196, Control_c, 0, 64, 63
2, 4216, Control_c, 0, 64, 0
2, 4350, Control_c, 0, 64, 13
2, 4370, Control_c, 0, 64, 42
2, 4388, Control_c, 0, 64, 53
2, 4408, Control_c, 0, 64, 57
2, 4427, Control_c, 0, 64, 62
2, 4446, Control_c, 0, 64, 66
2, 4460, Note_on_c, 0, 69, 0
2, 4465, Control_c, 0, 64, 70
2, 4485, Control_c, 0, 64, 78
2, 4504, Control_c, 0, 64, 89
2, 4522, Control_c, 0, 64, 100
2, 4542, Control_c, 0, 64, 115
2, 4561, Control_c, 0, 64, 127
2, 4751, Note_on_c, 0, 66, 0
2, 4805, Note_on_c, 0, 69, 56
2, 4842, Note_on_c, 0, 56, 40
2, 4848, Note_on_c, 0, 64, 32
2, 4850, Control_c, 0, 64, 117
2, 4868, Control_c, 0, 64, 86
2, 4888, Control_c, 0, 64, 73
2, 4907, Control_c, 0, 64, 64
2, 4926, Control_c, 0, 64, 60
2, 4945, Control_c, 0, 64, 59
2, 4965, Control_c, 0, 64, 61
2, 4984, Control_c, 0, 64, 63
2, 5002, Control_c, 0, 64, 65
2, 5022, Control_c, 0, 64, 66
2, 5041, Control_c, 0, 64, 69
2, 5060, Control_c, 0, 64, 72
2, 5079, Control_c, 0, 64, 75
2, 5099, Control_c, 0, 64, 77
2, 5099, Note_on_c, 0, 69, 0
2, 5118, Control_c, 0, 64, 79
2, 5137, Control_c, 0, 64, 82
2, 5145, Note_on_c, 0, 68, 57
2, 5156, Control_c, 0, 64, 86
2, 5158, Note_on_c, 0, 54, 51
2, 5176, Control_c, 0, 64, 91
2, 5195, Control_c, 0, 64, 94
2, 5201, Note_on_c, 0, 68, 0
2, 5214, Control_c, 0, 64, 94
2, 5230, Note_on_c, 0, 69, 56
2, 5258, Note_on_c, 0, 69, 0
2, 5271, Control_c, 0, 64, 94
2, 5291, Control_c, 0, 64, 93
2, 5294, Note_on_c, 0, 68, 68
2, 5310, Control_c, 0, 64, 89
2, 5330, Control_c, 0, 64, 81
2, 5338, Note_on_c, 0, 69, 75
2, 5342, Note_on_c, 0, 68, 0
2, 5344, Note_on_c, 0, 56, 0
2, 5348, Control_c, 0, 64, 72
2, 5368, Control_c, 0, 64, 65
2, 5387, Control_c, 0, 64, 60
2, 5406, Control_c, 0, 64, 55
2, 5413, Note_on_c, 0, 69, 0
2, 5419, Note_on_c, 0, 52, 49
2, 5425, Control_c, 0, 64, 50
2, 5441, Note_on_c, 0, 54, 0
2, 5445, Control_c, 0, 64, 44
2, 5464, Control_c, 0, 64, 36
2, 5482, Control_c, 0, 64, 11
2, 5502, Control_c, 0, 64, 0
2, 5582, Note_on_c, 0, 49, 0
2, 5705, Note_on_c, 0, 52, 0
2, 5707, Note_on_c, 0, 51, 58
2, 5945, Note_on_c, 0, 51, 0
2, 5968, Note_on_c, 0, 52, 59
2, 6181, Note_on_c, 0, 52, 0
2, 6230, Note_on_c, 0, 49, 54
2, 6407, Note_on_c, 0, 52, 52
2, 6515, Note_on_c, 0, 52, 0
2, 6521, Note_on_c, 0, 56, 59
2, 6620, Note_on_c, 0, 56, 0
2, 6672, Note_on_c, 0, 61, 50
2, 6809, Control_c, 0, 64, 21
2, 6828, Control_c, 0, 64, 43
2, 6847, Control_c, 0, 64, 52
2, 6866, Control_c, 0, 64, 56
2, 6886, Control_c, 0, 64, 59
2, 6893, Note_on_c, 0, 64, 0
2, 6905, Control_c, 0, 64, 62
2, 6923, Control_c, 0, 64, 66
2, 6943, Control_c, 0, 64, 70
2, 6962, Control_c, 0, 64, 81
2, 6981, Control_c, 0, 64, 98
2, 7000, Control_c, 0, 64, 127
2, 7160, Note_on_c, 0, 61, 0
2, 7563, Note_on_c, 0, 59, 56
2, 7782, Note_on_c, 0, 59, 0
2, 7882, Note_on_c, 0, 66, 54
2, 7897, Note_on_c, 0, 57, 44
2, 7921, Control_c, 0, 64, 95
2, 7932, Note_on_c, 0, 49, 0
2, 7940, Control_c, 0, 64, 76
2, 7959, Control_c, 0, 64, 63
2, 7979, Control_c, 0, 64, 0
2, 8113, Control_c, 0, 64, 35
2, 8133, Control_c, 0, 64, 52
2, 8151, Control_c, 0, 64, 58
2, 8171, Control_c, 0, 64, 61
2, 8190, Control_c, 0, 64, 64
2, 8210, Control_c, 0, 64, 70
2, 8228, Control_c, 0, 64, 81
2, 8248, Control_c, 0, 64, 105
2, 8267, Control_c, 0, 64, 127
2, 8412, Note_on_c, 0, 57, 0
2, 8574, Note_on_c, 0, 75, 60
2, 8638, Note_on_c, 0, 56, 42
2, 8655, Note_on_c, 0, 48, 29
2, 8707, Control_c, 0, 64, 93
2, 8727, Control_c, 0, 64, 76
2, 8746, Control_c, 0, 64, 66
2, 8764, Control_c, 0, 64, 62
2, 8784, Control_c, 0, 64, 60
2, 8803, Control_c, 0, 64, 59
2, 8823, Control_c, 0, 64, 59
2, 8841, Control_c, 0, 64, 58
2, 8861, Control_c, 0, 64, 55
2, 8880, Control_c, 0, 64, 51
2, 8900, Control_c, 0, 64, 48
2, 8918, Control_c, 0, 64, 45
2, 8935, Note_on_c, 0, 73, 65
2, 8938, Control_c, 0, 64, 42
2, 8957, Control_c, 0, 64, 35
2, 8976, Control_c, 0, 64, 21
2, 8995, Control_c, 0, 64, 0
2, 9026, Note_on_c, 0, 75, 0
2, 9206, Note_on_c, 0, 72, 66
2, 9236, Note_on_c, 0, 73, 0
2, 9436, Note_on_c, 0, 72, 0
2, 9461, Note_on_c, 0, 70, 68
2, 9724, Note_on_c, 0, 70, 0
2, 9738, Note_on_c, 0, 66, 0
2, 9738, Note_on_c, 0, 72, 65
2, 9802, Control_c, 0, 64, 39
2, 9822, Control_c, 0, 64, 51
2, 9841, Control_c, 0, 64, 56
2, 9860, Control_c, 0, 64, 59
2, 9879, Control_c, 0, 64, 62
2, 9899, Control_c, 0, 64, 65
2, 9918, Control_c, 0, 64, 69
2, 9937, Control_c, 0, 64, 77
2, 9942, Note_on_c, 0, 72, 0
2, 9956, Control_c, 0, 64, 93
2, 9976, Control_c, 0, 64, 127
2, 9989, Note_on_c, 0, 68, 73
2, 10046, Note_on_c, 0, 68, 0
2, 10180, Note_on_c, 0, 68, 67
2, 10269, Note_on_c, 0, 75, 71
2, 10381, Control_c, 0, 64, 97
2, 10382, Note_on_c, 0, 80, 78
2, 10400, Control_c, 0, 64, 81
2, 10419, Control_c, 0, 64, 72
2, 10438, Control_c, 0, 64, 63
2, 10458, Control_c, 0, 64, 43
2, 10476, Control_c, 0, 64, 0
2, 10650, Control_c, 0, 64, 29
2, 10669, Control_c, 0, 64, 50
2, 10688, Control_c, 0, 64, 58
2, 10707, Control_c, 0, 64, 61
2, 10727, Control_c, 0, 64, 64
2, 10745, Control_c, 0, 64, 67
2, 10764, Control_c, 0, 64, 74
2, 10773, Note_on_c, 0, 48, 0
2, 10784, Control_c, 0, 64, 88
2, 10803, Control_c, 0, 64, 127
2, 10803, Control_c, 0, 67, 124
2, 10822, Control_c, 0, 67, 116
2, 10841, Control_c, 0, 67, 110
2, 10861, Control_c, 0, 67, 103
2, 10880, Control_c, 0, 67, 94
2, 10899, Control_c, 0, 67, 84
2, 10914, Note_on_c, 0, 75, 0
2, 10918, Control_c, 0, 67, 72
2, 10938, Control_c, 0, 67, 58
2, 10956, Control_c, 0, 67, 46
2, 10976, Control_c, 0, 67, 35
2, 10995, Control_c, 0, 67, 23
2, 11013, Control_c, 0, 67, 13
2, 11031, Control_c, 0, 67, 0
2, 11157, Note_on_c, 0, 56, 0
2, 11234, Note_on_c, 0, 68, 0
2, 11256, Note_on_c, 0, 78, 68
2, 11377, Note_on_c, 0, 80, 0
2, 11535, Note_on_c, 0, 78, 0
2, 11549, Note_on_c, 0, 76, 64
2, 11550, Control_c, 0, 64, 107
2, 11569, Control_c, 0, 64, 87
2, 11580, Note_on_c, 0, 73, 44
2, 11581, Note_on_c, 0, 68, 48
2, 11588, Control_c, 0, 64, 73
2, 11595, Note_on_c, 0, 61, 39
2, 11605, Note_on_c, 0, 49, 34
2, 11608, Control_c, 0, 64, 63
2, 11627, Control_c, 0, 64, 36
2, 11645, Control_c, 0, 64, 0
2, 11742, Control_c, 0, 64, 39
2, 11761, Control_c, 0, 64, 57
2, 11780, Control_c, 0, 64, 62
2, 11799, Control_c, 0, 64, 64
2, 11819, Control_c, 0, 64, 68
2, 11832, Note_on_c, 0, 49, 0
2, 11838, Control_c, 0, 64, 77
2, 11839, Note_on_c, 0, 76, 0
2, 11857, Control_c, 0, 64, 107
2, 11876, Control_c, 0, 64, 127
2, 11894, Note_on_c, 0, 61, 0
2, 11905, Note_on_c, 0, 73, 0
2, 11941, Note_on_c, 0, 68, 0
2, 12228, Note_on_c, 0, 76, 62
2, 12250, Note_on_c, 0, 68, 45
2, 12257, Note_on_c, 0, 63, 39
2, 12258, Note_on_c, 0, 72, 47
2, 12263, Note_on_c, 0, 56, 36
2, 12337, Control_c, 0, 64, 96
2, 12356, Control_c, 0, 64, 78
2, 12376, Control_c, 0, 64, 68
2, 12394, Control_c, 0, 64, 62
2, 12414, Control_c, 0, 64, 57
2, 12433, Control_c, 0, 64, 54
2, 12439, Note_on_c, 0, 75, 68
2, 12453, Control_c, 0, 64, 52
2, 12471, Control_c, 0, 64, 50
2, 12476, Note_on_c, 0, 76, 0
2, 12491, Control_c, 0, 64, 48
2, 12510, Control_c, 0, 64, 47
2, 12529, Control_c, 0, 64, 44
2, 12548, Control_c, 0, 64, 40
2, 12550, Note_on_c, 0, 61, 57
2, 12568, Control_c, 0, 64, 36
2, 12587, Control_c, 0, 64, 34
2, 12605, Control_c, 0, 64, 31
2, 12625, Control_c, 0, 64, 28
2, 12633, Note_on_c, 0, 63, 0
2, 12644, Control_c, 0, 64, 24
2, 12663, Control_c, 0, 64, 20
2, 12682, Control_c, 0, 64, 17
2, 12759, Control_c, 0, 64, 15
2, 12798, Control_c, 0, 64, 13
2, 12816, Note_on_c, 0, 60, 61
2, 12836, Control_c, 0, 64, 9
2, 12856, Control_c, 0, 64, 0
2, 12877, Note_on_c, 0, 61, 0
2, 13063, Note_on_c, 0, 60, 0
2, 13072, Note_on_c, 0, 58, 60
2, 13358, Note_on_c, 0, 56, 0
2, 13362, Note_on_c, 0, 58, 0
2, 13368, Note_on_c, 0, 60, 51
2, 13594, Note_on_c, 0, 60, 0
2, 13645, Note_on_c, 0, 56, 51
2, 13755, Note_on_c, 0, 60, 55
2, 13815, Note_on_c, 0, 72, 0
2, 13840, Note_on_c, 0, 68, 0
2, 13843, Note_on_c, 0, 60, 0
2, 13863, Note_on_c, 0, 63, 56
2, 13949, Note_on_c, 0, 63, 0
2, 13992, Note_on_c, 0, 66, 51
2, 14083, Control_c, 0, 64, 24
2, 14103, Control_c, 0, 64, 43
2, 14121, Control_c, 0, 64, 53
2, 14141, Control_c, 0, 64, 57
2, 14160, Control_c, 0, 64, 60
2, 14179, Control_c, 0, 64, 62
2, 14199, Control_c, 0, 64, 64
2, 14219, Control_c, 0, 64, 65
2, 14238, Control_c, 0, 64, 67
2, 14257, Control_c, 0, 64, 72
2, 14276, Control_c, 0, 64, 82
2, 14296, Control_c, 0, 64, 104
2, 14314, Control_c, 0, 64, 127
2, 14689, Note_on_c, 0, 66, 0
2, 14854, Note_on_c, 0, 64, 60
2, 15070, Note_on_c, 0, 64, 0
2, 15162, Note_on_c, 0, 80, 72
2, 15192, Note_on_c, 0, 75, 0
2, 15194, Note_on_c, 0, 72, 47
2, 15197, Control_c, 0, 64, 101
2, 15198, Note_on_c, 0, 68, 47
2, 15216, Control_c, 0, 64, 76
2, 15219, Note_on_c, 0, 63, 43
2, 15235, Control_c, 0, 64, 64
2, 15255, Control_c, 0, 64, 45
2, 15273, Control_c, 0, 64, 0
2, 15350, Control_c, 0, 64, 11
2, 15370, Control_c, 0, 64, 47
2, 15389, Control_c, 0, 64, 59
2, 15408, Control_c, 0, 64, 62
2, 15427, Control_c, 0, 64, 64
2, 15447, Control_c, 0, 64, 66
2, 15466, Control_c, 0, 64, 69
2, 15474, Note_on_c, 0, 68, 0
2, 15482, Note_on_c, 0, 63, 0
2, 15484, Control_c, 0, 64, 76
2, 15504, Control_c, 0, 64, 90
2, 15523, Control_c, 0, 64, 127
2, 15746, Note_on_c, 0, 72, 0
2, 15798, Note_on_c, 0, 75, 64
2, 15839, Note_on_c, 0, 80, 0
2, 15848, Note_on_c, 0, 73, 69
2, 15858, Note_on_c, 0, 69, 42
2, 15888, Control_c, 0, 64, 119
2, 15898, Note_on_c, 0, 64, 42
2, 15907, Control_c, 0, 64, 88
2, 15917, Note_on_c, 0, 75, 0
2, 15927, Control_c, 0, 64, 75
2, 15946, Control_c, 0, 64, 66
2, 15964, Control_c, 0, 64, 62
2, 15984, Control_c, 0, 64, 58
2, 16003, Control_c, 0, 64, 56
2, 16023, Control_c, 0, 64, 55
2, 16041, Control_c, 0, 64, 53
2, 16061, Control_c, 0, 64, 50
2, 16080, Control_c, 0, 64, 46
2, 16099, Control_c, 0, 64, 42
2, 16111, Note_on_c, 0, 73, 0
2, 16118, Control_c, 0, 64, 35
2, 16135, Note_on_c, 0, 72, 71
2, 16138, Control_c, 0, 64, 27
2, 16157, Control_c, 0, 64, 18
2, 16176, Control_c, 0, 64, 0
2, 16396, Note_on_c, 0, 73, 68
2, 16399, Note_on_c, 0, 69, 0
2, 16412, Note_on_c, 0, 72, 0
2, 16483, Control_c, 0, 64, 30
2, 16503, Control_c, 0, 64, 50
2, 16521, Control_c, 0, 64, 56
2, 16541, Control_c, 0, 64, 59
2, 16560, Control_c, 0, 64, 61
2, 16579, Control_c, 0, 64, 62
2, 16598, Control_c, 0, 64, 64
2, 16618, Control_c, 0, 64, 65
2, 16637, Control_c, 0, 64, 66
2, 16644, Note_on_c, 0, 73, 0
2, 16653, Note_on_c, 0, 76, 76
2, 16656, Control_c, 0, 64, 68
2, 16675, Control_c, 0, 64, 74
2, 16695, Control_c, 0, 64, 85
2, 16713, Control_c, 0, 64, 107
2, 16733, Control_c, 0, 64, 127
2, 16764, Note_on_c, 0, 76, 0
2, 17004, Note_on_c, 0, 81, 76
2, 17076, Control_c, 0, 64, 106
2, 17096, Control_c, 0, 64, 82
2, 17115, Control_c, 0, 64, 69
2, 17134, Control_c, 0, 64, 60
2, 17153, Control_c, 0, 64, 51
2, 17173, Control_c, 0, 64, 43
2, 17192, Control_c, 0, 64, 40
2, 17211, Control_c, 0, 64, 41
2, 17230, Control_c, 0, 64, 47
2, 17250, Control_c, 0, 64, 55
2, 17268, Control_c, 0, 64, 62
2, 17288, Control_c, 0, 64, 64
2, 17293, Note_on_c, 0, 64, 0
2, 17307, Control_c, 0, 64, 66
2, 17326, Control_c, 0, 64, 69
2, 17345, Control_c, 0, 64, 73
2, 17364, Control_c, 0, 64, 79
2, 17384, Control_c, 0, 64, 89
2, 17403, Control_c, 0, 64, 106
2, 17422, Control_c, 0, 64, 127
2, 17635, Note_on_c, 0, 56, 0
2, 17684, Note_on_c, 0, 69, 62
2, 17710, Control_c, 0, 64, 121
2, 17712, Note_on_c, 0, 54, 43
2, 17718, Note_on_c, 0, 63, 41
2, 17730, Control_c, 0, 64, 83
2, 17748, Control_c, 0, 64, 67
2, 17768, Control_c, 0, 64, 54
2, 17787, Control_c, 0, 64, 42
2, 17806, Control_c, 0, 64, 46
2, 17812, Note_on_c, 0, 81, 0
2, 17825, Control_c, 0, 64, 55
2, 17844, Control_c, 0, 64, 61
2, 17864, Control_c, 0, 64, 64
2, 17883, Control_c, 0, 64, 66
2, 17902, Control_c, 0, 64, 68
2, 17921, Control_c, 0, 64, 72
2, 17941, Control_c, 0, 64, 76
2, 17959, Control_c, 0, 64, 80
2, 17979, Control_c, 0, 64, 83
2, 17998, Control_c, 0, 64, 86
2, 18017, Control_c, 0, 64, 89
2, 18035, Control_c, 0, 64, 90
2, 18044, Note_on_c, 0, 80, 72
2, 18074, Control_c, 0, 64, 90
2, 18093, Control_c, 0, 64, 89
2, 18112, Control_c, 0, 64, 87
2, 18132, Control_c, 0, 64, 86
2, 18151, Control_c, 0, 64, 83
2, 18170, Control_c, 0, 64, 79
2, 18189, Control_c, 0, 64, 74
2, 18209, Control_c, 0, 64, 70
2, 18228, Control_c, 0, 64, 67
2, 18246, Control_c, 0, 64, 65
2, 18266, Control_c, 0, 64, 65
2, 18285, Control_c, 0, 64, 64
2, 18304, Control_c, 0, 64, 63
2, 18322, Note_on_c, 0, 78, 68
2, 18323, Control_c, 0, 64, 61
2, 18343, Control_c, 0, 64, 53
2, 18362, Control_c, 0, 64, 17
2, 18381, Control_c, 0, 64, 0
2, 18486, Note_on_c, 0, 80, 0
2, 18577, Note_on_c, 0, 76, 68
2, 18612, Note_on_c, 0, 78, 0
2, 18842, Note_on_c, 0, 75, 63
2, 18856, Note_on_c, 0, 76, 0
2, 18860, Note_on_c, 0, 69, 0
2, 18940, Control_c, 0, 64, 32
2, 18959, Control_c, 0, 64, 46
2, 18978, Control_c, 0, 64, 53
2, 18997, Control_c, 0, 64, 58
2, 19017, Control_c, 0, 64, 63
2, 19036, Control_c, 0, 64, 66
2, 19055, Control_c, 0, 64, 71
2, 19069, Note_on_c, 0, 75, 0
2, 19074, Control_c, 0, 64, 83
2, 19094, Control_c, 0, 64, 101
2, 19108, Note_on_c, 0, 73, 61
2, 19113, Control_c, 0, 64, 127
2, 19158, Note_on_c, 0, 73, 0
2, 19349, Note_on_c, 0, 73, 62
2, 19382, Control_c, 0, 64, 121
2, 19394, Note_on_c, 0, 71, 65
2, 19400, Control_c, 0, 64, 98
2, 19409, Note_on_c, 0, 68, 45
2, 19420, Control_c, 0, 64, 84
2, 19439, Control_c, 0, 64, 73
2, 19458, Control_c, 0, 64, 64
2, 19460, Note_on_c, 0, 73, 0
2, 19477, Control_c, 0, 64, 46
2, 19497, Control_c, 0, 64, 0
2, 19595, Note_on_c, 0, 68, 0
2, 19612, Control_c, 0, 64, 17
2, 19631, Control_c, 0, 64, 44
2, 19651, Control_c, 0, 64, 56
2, 19656, Note_on_c, 0, 69, 69
2, 19669, Control_c, 0, 64, 59
2, 19670, Note_on_c, 0, 71, 0
2, 19689, Control_c, 0, 64, 60
2, 19708, Control_c, 0, 64, 60
2, 19728, Control_c, 0, 64, 61
2, 19785, Control_c, 0, 64, 60
2, 19803, Control_c, 0, 64, 60
2, 19842, Control_c, 0, 64, 59
2, 19862, Control_c, 0, 64, 58
2, 19880, Control_c, 0, 64, 56
2, 19896, Note_on_c, 0, 69, 0
2, 19900, Control_c, 0, 64, 53
2, 19919, Control_c, 0, 64, 51
2, 19938, Control_c, 0, 64, 49
2, 19948, Note_on_c, 0, 71, 63
2, 19957, Control_c, 0, 64, 46
2, 19977, Control_c, 0, 64, 43
2, 19996, Control_c, 0, 64, 39
2, 20015, Control_c, 0, 64, 32
2, 20034, Control_c, 0, 64, 24
2, 20054, Control_c, 0, 64, 15
2, 20073, Control_c, 0, 64, 0
2, 20274, Note_on_c, 0, 74, 24
2, 20302, Note_on_c, 0, 71, 0
2, 20334, Note_on_c, 0, 74, 0
2, 20428, Note_on_c, 0, 75, 79
2, 20757, Note_on_c, 0, 80, 64
2, 20784, Control_c, 0, 64, 9
2, 20793, Note_on_c, 0, 75, 0
2, 20803, Control_c, 0, 64, 13
2, 20823, Control_c, 0, 64, 20
2, 20841, Control_c, 0, 64, 29
2, 20859, Control_c, 0, 64, 40
2, 20878, Control_c, 0, 64, 49
2, 20897, Control_c, 0, 64, 54
2, 20915, Control_c, 0, 64, 57
2, 20935, Control_c, 0, 64, 60
2, 20954, Control_c, 0, 64, 63
2, 20973, Control_c, 0, 64, 65
2, 20992, Control_c, 0, 64, 70
2, 21012, Control_c, 0, 64, 77
2, 21028, Note_on_c, 0, 63, 0
2, 21031, Control_c, 0, 64, 90
2, 21050, Control_c, 0, 64, 113
2, 21069, Control_c, 0, 64, 127
2, 21236, Note_on_c, 0, 54, 0
2, 21414, Note_on_c, 0, 68, 54
2, 21429, Note_on_c, 0, 52, 41
2, 21453, Note_on_c, 0, 61, 29
2, 21475, Control_c, 0, 64, 100
2, 21494, Control_c, 0, 64, 87
2, 21514, Control_c, 0, 64, 78
2, 21532, Control_c, 0, 64, 71
2, 21537, Note_on_c, 0, 80, 0
2, 21552, Control_c, 0, 64, 67
2, 21571, Control_c, 0, 64, 65
2, 21590, Control_c, 0, 64, 64
2, 21609, Control_c, 0, 64, 64
2, 21629, Control_c, 0, 64, 63
2, 21648, Control_c, 0, 64, 63
2, 21667, Control_c, 0, 64, 62
2, 21687, Control_c, 0, 64, 60
2, 21707, Control_c, 0, 64, 59
2, 21725, Control_c, 0, 64, 56
2, 21745, Control_c, 0, 64, 54
2, 21757, Note_on_c, 0, 78, 60
2, 21764, Control_c, 0, 64, 50
2, 21784, Control_c, 0, 64, 46
2, 21802, Control_c, 0, 64, 38
2, 21822, Control_c, 0, 64, 19
2, 21841, Control_c, 0, 64, 0
2, 22024, Note_on_c, 0, 76, 60
2, 22100, Note_on_c, 0, 78, 0
2, 22273, Note_on_c, 0, 75, 67
2, 22284, Note_on_c, 0, 76, 0
2, 22511, Control_c, 0, 64, 33
2, 22530, Control_c, 0, 64, 47
2, 22533, Note_on_c, 0, 73, 62
2, 22534, Note_on_c, 0, 68, 0
2, 22545, Note_on_c, 0, 75, 0
2, 22549, Control_c, 0, 64, 53
2, 22568, Control_c, 0, 64, 56
2, 22588, Control_c, 0, 64, 59
2, 22607, Control_c, 0, 64, 61
2, 22626, Control_c, 0, 64, 63
2, 22645, Control_c, 0, 64, 67
2, 22665, Control_c, 0, 64, 72
2, 22684, Control_c, 0, 64, 83
2, 22703, Control_c, 0, 64, 99
2, 22722, Control_c, 0, 64, 127
2, 22732, Note_on_c, 0, 73, 0
2, 22793, Note_on_c, 0, 71, 61
2, 22835, Note_on_c, 0, 71, 0
2, 23052, Note_on_c, 0, 71, 55
2, 23083, Note_on_c, 0, 69, 61
2, 23087, Control_c, 0, 64, 101
2, 23097, Note_on_c, 0, 66, 41
2, 23106, Control_c, 0, 64, 83
2, 23125, Control_c, 0, 64, 72
2, 23145, Control_c, 0, 64, 66
2, 23164, Control_c, 0, 64, 62
2, 23183, Control_c, 0, 64, 57
2, 23202, Control_c, 0, 64, 54
2, 23222, Control_c, 0, 64, 52
2, 23240, Control_c, 0, 64, 51
2, 23260, Control_c, 0, 64, 48
2, 23279, Control_c, 0, 64, 44
2, 23298, Control_c, 0, 64, 37
2, 23307, Note_on_c, 0, 69, 0
2, 23311, Note_on_c, 0, 71, 0
2, 23317, Control_c, 0, 64, 20
2, 23336, Control_c, 0, 64, 0
2, 23337, Note_on_c, 0, 68, 65
2, 23380, Note_on_c, 0, 66, 0
2, 23563, Note_on_c, 0, 68, 0
2, 23622, Note_on_c, 0, 69, 59
2, 23893, Note_on_c, 0, 73, 57
2, 23916, Note_on_c, 0, 69, 0
2, 24164, Note_on_c, 0, 73, 0
2, 24213, Note_on_c, 0, 78, 50
2, 24258, Control_c, 0, 64, 15
2, 24278, Control_c, 0, 64, 41
2, 24297, Control_c, 0, 64, 53
2, 24317, Control_c, 0, 64, 57
2, 24335, Control_c, 0, 64, 60
2, 24349, Note_on_c, 0, 52, 0
2, 24355, Control_c, 0, 64, 62
2, 24374, Control_c, 0, 64, 64
2, 24394, Control_c, 0, 64, 66
2, 24406, Note_on_c, 0, 61, 0
2, 24412, Control_c, 0, 64, 69
2, 24432, Control_c, 0, 64, 79
2, 24451, Control_c, 0, 64, 99
2, 24470, Control_c, 0, 64, 127
2, 24890, Note_on_c, 0, 66, 41
2, 24931, Note_on_c, 0, 51, 34
2, 24949, Note_on_c, 0, 59, 33
2, 24989, Control_c, 0, 64, 103
2, 25008, Control_c, 0, 64, 89
2, 25027, Control_c, 0, 64, 80
2, 25046, Control_c, 0, 64, 76
2, 25051, Note_on_c, 0, 78, 0
2, 25066, Control_c, 0, 64, 72
2, 25084, Control_c, 0, 64, 69
2, 25104, Control_c, 0, 64, 67
2, 25123, Control_c, 0, 64, 64
2, 25143, Control_c, 0, 64, 63
2, 25161, Control_c, 0, 64, 62
2, 25181, Control_c, 0, 64, 61
2, 25200, Control_c, 0, 64, 60
2, 25218, Control_c, 0, 64, 58
2, 25238, Control_c, 0, 64, 56
2, 25246, Note_on_c, 0, 76, 57
2, 25257, Control_c, 0, 64, 53
2, 25277, Control_c, 0, 64, 50
2, 25295, Control_c, 0, 64, 46
2, 25315, Control_c, 0, 64, 42
2, 25334, Control_c, 0, 64, 36
2, 25354, Control_c, 0, 64, 26
2, 25372, Control_c, 0, 64, 0
2, 25515, Note_on_c, 0, 75, 57
2, 25534, Note_on_c, 0, 76, 0
2, 25779, Note_on_c, 0, 73, 53
2, 25779, Note_on_c, 0, 75, 0
2, 25993, Note_on_c, 0, 66, 0
2, 25999, Note_on_c, 0, 73, 0
2, 26036, Note_on_c, 0, 71, 47
2, 26045, Control_c, 0, 64, 17
2, 26065, Control_c, 0, 64, 34
2, 26084, Control_c, 0, 64, 48
2, 26104, Control_c, 0, 64, 54
2, 26122, Control_c, 0, 64, 57
2, 26142, Control_c, 0, 64, 60
2, 26161, Control_c, 0, 64, 62
2, 26179, Control_c, 0, 64, 64
2, 26199, Control_c, 0, 64, 65
2, 26218, Control_c, 0, 64, 68
2, 26238, Control_c, 0, 64, 74
2, 26252, Note_on_c, 0, 71, 0
2, 26256, Control_c, 0, 64, 84
2, 26276, Control_c, 0, 64, 98
2, 26283, Note_on_c, 0, 51, 0
2, 26295, Control_c, 0, 64, 127
2, 26310, Note_on_c, 0, 69, 56
2, 26365, Note_on_c, 0, 69, 0
2, 26615, Note_on_c, 0, 52, 37
2, 26678, Control_c, 0, 64, 104
2, 26693, Note_on_c, 0, 69, 51
2, 26697, Control_c, 0, 64, 83
2, 26717, Control_c, 0, 64, 69
2, 26729, Note_on_c, 0, 59, 0
2, 26735, Control_c, 0, 64, 60
2, 26743, Note_on_c, 0, 64, 29
2, 26755, Control_c, 0, 64, 43
2, 26774, Control_c, 0, 64, 23
2, 26794, Control_c, 0, 64, 25
2, 26812, Control_c, 0, 64, 37
2, 26832, Control_c, 0, 64, 50
2, 26851, Control_c, 0, 64, 57
2, 26870, Control_c, 0, 64, 61
2, 26889, Control_c, 0, 64, 63
2, 26909, Control_c, 0, 64, 64
2, 26928, Control_c, 0, 64, 65
2, 26930, Note_on_c, 0, 69, 0
2, 26947, Control_c, 0, 64, 66
2, 26966, Control_c, 0, 64, 67
2, 26986, Control_c, 0, 64, 68
2, 26986, Note_on_c, 0, 68, 48
2, 27004, Control_c, 0, 64, 68
2, 27004, Note_on_c, 0, 57, 39
2, 27024, Control_c, 0, 64, 69
2, 27035, Note_on_c, 0, 68, 0
2, 27063, Control_c, 0, 64, 68
2, 27073, Note_on_c, 0, 69, 59
2, 27081, Control_c, 0, 64, 67
2, 27101, Control_c, 0, 64, 67
2, 27112, Note_on_c, 0, 69, 0
2, 27120, Control_c, 0, 64, 66
2, 27135, Note_on_c, 0, 68, 67
2, 27138, Control_c, 0, 64, 64
2, 27158, Control_c, 0, 64, 62
2, 27177, Control_c, 0, 64, 57
2, 27179, Note_on_c, 0, 68, 0
2, 27191, Note_on_c, 0, 69, 76
2, 27197, Control_c, 0, 64, 53
2, 27215, Control_c, 0, 64, 49
2, 27235, Control_c, 0, 64, 44
2, 27254, Control_c, 0, 64, 41
2, 27263, Note_on_c, 0, 69, 0
2, 27268, Note_on_c, 0, 68, 69
2, 27271, Note_on_c, 0, 56, 46
2, 27274, Control_c, 0, 64, 38
2, 27292, Control_c, 0, 64, 35
2, 27307, Note_on_c, 0, 57, 0
2, 27312, Control_c, 0, 64, 31
2, 27331, Control_c, 0, 64, 27
2, 27350, Control_c, 0, 64, 21
2, 27369, Control_c, 0, 64, 13
2, 27389, Control_c, 0, 64, 0
2, 27541, Note_on_c, 0, 54, 61
2, 27542, Note_on_c, 0, 56, 0
2, 27786, Note_on_c, 0, 52, 0
2, 27810, Note_on_c, 0, 54, 0
2, 27810, Note_on_c, 0, 56, 63
2, 28029, Note_on_c, 0, 56, 0
2, 28077, Note_on_c, 0, 52, 48
2, 28098, Note_on_c, 0, 64, 0
2, 28204, Note_on_c, 0, 56, 59
2, 28311, Note_on_c, 0, 59, 61
2, 28330, Note_on_c, 0, 56, 0
2, 28418, Note_on_c, 0, 59, 0
2, 28466, Note_on_c, 0, 64, 55
2, 28599, Control_c, 0, 64, 20
2, 28618, Control_c, 0, 64, 41
2, 28638, Control_c, 0, 64, 51
2, 28656, Control_c, 0, 64, 56
2, 28676, Control_c, 0, 64, 59
2, 28695, Control_c, 0, 64, 62
2, 28714, Control_c, 0, 64, 63
2, 28733, Control_c, 0, 64, 65
2, 28753, Control_c, 0, 64, 67
2, 28772, Control_c, 0, 64, 70
2, 28791, Control_c, 0, 64, 75
2, 28810, Control_c, 0, 64, 86
2, 28830, Control_c, 0, 64, 107
2, 28849, Control_c, 0, 64, 127
2, 28926, Note_on_c, 0, 64, 0
2, 29354, Note_on_c, 0, 66, 66
2, 29376, Note_on_c, 0, 63, 44
2, 29377, Note_on_c, 0, 68, 0
2, 29521, Control_c, 0, 64, 117
2, 29539, Control_c, 0, 64, 115
2, 29559, Control_c, 0, 64, 112
2, 29578, Control_c, 0, 64, 107
2, 29598, Control_c, 0, 64, 99
2, 29616, Control_c, 0, 64, 90
2, 29636, Control_c, 0, 64, 81
2, 29655, Control_c, 0, 64, 74
2, 29674, Control_c, 0, 64, 70
2, 29693, Control_c, 0, 64, 67
2, 29698, Note_on_c, 0, 69, 62
2, 29706, Note_on_c, 0, 66, 0
2, 29713, Control_c, 0, 64, 66
2, 29714, Note_on_c, 0, 61, 42
2, 29732, Control_c, 0, 64, 65
2, 29751, Control_c, 0, 64, 64
2, 29757, Note_on_c, 0, 69, 0
2, 29770, Control_c, 0, 64, 63
2, 29774, Note_on_c, 0, 68, 69
2, 29790, Control_c, 0, 64, 62
2, 29809, Control_c, 0, 64, 60
2, 29828, Control_c, 0, 64, 58
2, 29847, Control_c, 0, 64, 55
2, 29865, Note_on_c, 0, 68, 0
2, 29867, Control_c, 0, 64, 52
2, 29872, Note_on_c, 0, 52, 0
2, 29872, Note_on_c, 0, 63, 0
2, 29882, Note_on_c, 0, 69, 65
2, 29885, Control_c, 0, 64, 49
2, 29905, Control_c, 0, 64, 46
2, 29924, Control_c, 0, 64, 43
2, 29944, Control_c, 0, 64, 39
2, 29962, Control_c, 0, 64, 34
2, 29982, Control_c, 0, 64, 29
2, 30001, Control_c, 0, 64, 27
2, 30039, Control_c, 0, 64, 27
2, 30058, Control_c, 0, 64, 26
2, 30078, Control_c, 0, 64, 25
2, 30404, Control_c, 0, 64, 26
2, 30424, Control_c, 0, 64, 27
2, 30518, Control_c, 0, 64, 28
2, 30559, Note_on_c, 0, 60, 30
2, 30572, Note_on_c, 0, 51, 31
2, 30575, Control_c, 0, 64, 29
2, 30595, Control_c, 0, 64, 29
2, 30614, Control_c, 0, 64, 30
2, 30634, Control_c, 0, 64, 31
2, 30652, Control_c, 0, 64, 32
2, 30683, Note_on_c, 0, 61, 0
2, 30691, Control_c, 0, 64, 32
2, 30729, Control_c, 0, 64, 33
2, 30826, Control_c, 0, 64, 34
2, 30844, Control_c, 0, 64, 34
2, 30864, Control_c, 0, 64, 35
2, 30903, Control_c, 0, 64, 35
2, 30947, Note_on_c, 0, 68, 54
2, 30979, Note_on_c, 0, 69, 0
2, 30998, Control_c, 0, 64, 36
2, 31237, Note_on_c, 0, 68, 0
2, 31244, Note_on_c, 0, 66, 50
2, 31420, Control_c, 0, 64, 35
2, 31478, Note_on_c, 0, 66, 0
2, 31528, Note_on_c, 0, 64, 47
2, 31737, Note_on_c, 0, 64, 0
2, 31765, Control_c, 0, 64, 36
2, 31785, Control_c, 0, 64, 39
2, 31785, Note_on_c, 0, 66, 52
2, 31804, Control_c, 0, 64, 47
2, 31823, Control_c, 0, 64, 54
2, 31842, Control_c, 0, 64, 58
2, 31862, Control_c, 0, 64, 61
2, 31880, Control_c, 0, 64, 63
2, 31899, Control_c, 0, 64, 64
2, 31919, Control_c, 0, 64, 65
2, 31938, Control_c, 0, 64, 66
2, 31957, Control_c, 0, 64, 69
2, 31976, Control_c, 0, 64, 72
2, 31996, Control_c, 0, 64, 77
2, 32014, Control_c, 0, 64, 82
2, 32029, Note_on_c, 0, 66, 0
2, 32034, Control_c, 0, 64, 88
2, 32053, Control_c, 0, 64, 95
2, 32058, Note_on_c, 0, 63, 58
2, 32073, Control_c, 0, 64, 102
2, 32091, Control_c, 0, 64, 116
2, 32111, Control_c, 0, 64, 127
2, 32351, Note_on_c, 0, 75, 65
2, 32411, Note_on_c, 0, 56, 42
2, 32475, Control_c, 0, 64, 119
2, 32494, Control_c, 0, 64, 97
2, 32513, Control_c, 0, 64, 82
2, 32532, Control_c, 0, 64, 72
2, 32552, Control_c, 0, 64, 67
2, 32570, Control_c, 0, 64, 65
2, 32582, Note_on_c, 0, 63, 0
2, 32590, Control_c, 0, 64, 64
2, 32602, Note_on_c, 0, 51, 0
2, 32609, Control_c, 0, 64, 64
2, 32629, Control_c, 0, 64, 63
2, 32630, Note_on_c, 0, 73, 63
2, 32647, Control_c, 0, 64, 62
2, 32667, Control_c, 0, 64, 61
2, 32686, Control_c, 0, 64, 59
2, 32705, Control_c, 0, 64, 59
2, 32724, Control_c, 0, 64, 58
2, 32744, Control_c, 0, 64, 56
2, 32755, Note_on_c, 0, 75, 0
2, 32763, Control_c, 0, 64, 55
2, 32782, Control_c, 0, 64, 53
2, 32801, Control_c, 0, 64, 51
2, 32820, Control_c, 0, 64, 49
2, 32839, Control_c, 0, 64, 47
2, 32858, Control_c, 0, 64, 45
2, 32878, Control_c, 0, 64, 43
2, 32890, Note_on_c, 0, 72, 68
2, 32897, Control_c, 0, 64, 37
2, 32916, Control_c, 0, 64, 20
2, 32935, Control_c, 0, 64, 0
2, 32936, Note_on_c, 0, 73, 0
2, 33142, Note_on_c, 0, 56, 0
2, 33145, Note_on_c, 0, 72, 0
2, 33157, Note_on_c, 0, 70, 71
2, 33177, Note_on_c, 0, 54, 56
2, 33388, Note_on_c, 0, 70, 0
2, 33401, Note_on_c, 0, 54, 0
2, 33418, Note_on_c, 0, 72, 68
2, 33439, Note_on_c, 0, 56, 55
2, 33513, Control_c, 0, 64, 39
2, 33531, Control_c, 0, 64, 51
2, 33551, Control_c, 0, 64, 58
2, 33570, Control_c, 0, 64, 63
2, 33589, Control_c, 0, 64, 65
2, 33608, Control_c, 0, 64, 69
2, 33628, Control_c, 0, 64, 76
2, 33647, Control_c, 0, 64, 92
2, 33650, Note_on_c, 0, 72, 0
2, 33666, Control_c, 0, 64, 123
2, 33685, Control_c, 0, 64, 127
2, 33686, Note_on_c, 0, 68, 74
2, 33870, Note_on_c, 0, 68, 0
2, 34012, Note_on_c, 0, 81, 74
2, 34047, Note_on_c, 0, 49, 45
2, 34148, Control_c, 0, 64, 96
2, 34168, Control_c, 0, 64, 82
2, 34176, Note_on_c, 0, 56, 0
2, 34187, Control_c, 0, 64, 73
2, 34207, Control_c, 0, 64, 66
2, 34225, Control_c, 0, 64, 63
2, 34245, Control_c, 0, 64, 60
2, 34264, Control_c, 0, 64, 55
2, 34283, Control_c, 0, 64, 49
2, 34302, Control_c, 0, 64, 42
2, 34322, Control_c, 0, 64, 34
2, 34331, Note_on_c, 0, 80, 74
2, 34341, Control_c, 0, 64, 24
2, 34359, Control_c, 0, 64, 9
2, 34378, Control_c, 0, 64, 0
2, 34383, Note_on_c, 0, 81, 0
2, 34486, Note_on_c, 0, 60, 0
2, 34589, Note_on_c, 0, 78, 69
2, 34643, Note_on_c, 0, 80, 0
2, 34847, Note_on_c, 0, 78, 0
2, 34852, Note_on_c, 0, 76, 70
2, 34862, Note_on_c, 0, 61, 64
2, 34878, Control_c, 0, 64, 36
2, 34897, Control_c, 0, 64, 52
2, 34916, Control_c, 0, 64, 57
2, 34935, Control_c, 0, 64, 62
2, 34955, Control_c, 0, 64, 65
2, 34972, Note_on_c, 0, 61, 0
2, 34973, Control_c, 0, 64, 69
2, 34992, Control_c, 0, 64, 78
2, 35012, Control_c, 0, 64, 92
2, 35031, Control_c, 0, 64, 127
2, 35116, Note_on_c, 0, 76, 0
2, 35137, Note_on_c, 0, 78, 76
2, 35167, Control_c, 0, 64, 114
2, 35170, Note_on_c, 0, 63, 47
2, 35185, Control_c, 0, 64, 91
2, 35205, Control_c, 0, 64, 75
2, 35224, Control_c, 0, 64, 64
2, 35243, Control_c, 0, 64, 39
2, 35262, Control_c, 0, 64, 0
2, 35338, Control_c, 0, 64, 9
2, 35358, Control_c, 0, 64, 46
2, 35377, Control_c, 0, 64, 56
2, 35396, Control_c, 0, 64, 59
2, 35406, Note_on_c, 0, 78, 0
2, 35415, Control_c, 0, 64, 61
2, 35421, Note_on_c, 0, 75, 68
2, 35424, Note_on_c, 0, 63, 0
2, 35435, Control_c, 0, 64, 63
2, 35453, Control_c, 0, 64, 64
2, 35472, Control_c, 0, 64, 65
2, 35492, Control_c, 0, 64, 68
2, 35511, Control_c, 0, 64, 73
2, 35530, Control_c, 0, 64, 81
2, 35549, Control_c, 0, 64, 88
2, 35569, Control_c, 0, 64, 94
2, 35587, Control_c, 0, 64, 97
2, 35607, Control_c, 0, 64, 98
2, 35646, Control_c, 0, 64, 98
2, 35684, Control_c, 0, 64, 97
2, 35703, Control_c, 0, 64, 96
2, 35722, Control_c, 0, 64, 93
2, 35730, Note_on_c, 0, 76, 65
2, 35735, Note_on_c, 0, 75, 0
2, 35741, Control_c, 0, 64, 88
2, 35761, Control_c, 0, 64, 81
2, 35780, Control_c, 0, 64, 77
2, 35782, Note_on_c, 0, 61, 35
2, 35799, Control_c, 0, 64, 74
2, 35818, Control_c, 0, 64, 72
2, 35838, Control_c, 0, 64, 68
2, 35857, Control_c, 0, 64, 64
2, 35876, Control_c, 0, 64, 61
2, 35895, Control_c, 0, 64, 58
2, 35915, Control_c, 0, 64, 57
2, 35933, Control_c, 0, 64, 55
2, 35952, Control_c, 0, 64, 53
2, 35972, Control_c, 0, 64, 49
2, 35991, Control_c, 0, 64, 43
2, 36010, Control_c, 0, 64, 38
2, 36029, Control_c, 0, 64, 33
2, 36046, Note_on_c, 0, 75, 59
2, 36049, Control_c, 0, 64, 29
2, 36067, Control_c, 0, 64, 27
2, 36083, Control_c, 0, 64, 22
2, 36102, Control_c, 0, 64, 17
2, 36122, Control_c, 0, 64, 9
2, 36217, Control_c, 0, 64, 0
2, 36297, Note_on_c, 0, 49, 0
2, 36312, Note_on_c, 0, 73, 50
2, 36331, Note_on_c, 0, 75, 0
2, 36548, Note_on_c, 0, 73, 0
2, 36557, Note_on_c, 0, 72, 53
2, 36580, Note_on_c, 0, 51, 41
2, 36762, Note_on_c, 0, 51, 0
2, 36816, Note_on_c, 0, 72, 0
2, 36843, Note_on_c, 0, 73, 51
2, 36850, Note_on_c, 0, 52, 39
2, 36888, Control_c, 0, 64, 9
2, 36906, Control_c, 0, 64, 41
2, 36918, Note_on_c, 0, 61, 0
2, 36926, Control_c, 0, 64, 53
2, 36945, Control_c, 0, 64, 58
2, 36965, Control_c, 0, 64, 61
2, 36983, Control_c, 0, 64, 63
2, 37003, Control_c, 0, 64, 65
2, 37022, Control_c, 0, 64, 67
2, 37047, Control_c, 0, 64, 72
2, 37066, Control_c, 0, 64, 81
2, 37086, Control_c, 0, 64, 100
2, 37104, Control_c, 0, 64, 127
2, 37124, Note_on_c, 0, 70, 55
2, 37365, Note_on_c, 0, 70, 0
2, 37413, Control_c, 0, 64, 100
2, 37431, Control_c, 0, 64, 79
2, 37432, Note_on_c, 0, 68, 53
2, 37447, Note_on_c, 0, 52, 0
2, 37451, Control_c, 0, 64, 66
2, 37470, Control_c, 0, 64, 55
2, 37472, Note_on_c, 0, 46, 33
2, 37490, Control_c, 0, 64, 38
2, 37508, Control_c, 0, 64, 37
2, 37528, Control_c, 0, 64, 47
2, 37547, Control_c, 0, 64, 57
2, 37567, Control_c, 0, 64, 61
2, 37585, Control_c, 0, 64, 64
2, 37605, Control_c, 0, 64, 65
2, 37624, Control_c, 0, 64, 68
2, 37643, Control_c, 0, 64, 70
2, 37662, Control_c, 0, 64, 72
2, 37682, Control_c, 0, 64, 73
2, 37686, Note_on_c, 0, 76, 0
2, 37721, Note_on_c, 0, 68, 0
2, 37739, Control_c, 0, 64, 74
2, 37759, Control_c, 0, 64, 73
2, 37797, Control_c, 0, 64, 73
2, 37803, Note_on_c, 0, 51, 47
2, 37803, Note_on_c, 0, 67, 54
2, 37816, Control_c, 0, 64, 72
2, 37836, Control_c, 0, 64, 71
2, 37854, Control_c, 0, 64, 69
2, 37874, Control_c, 0, 64, 65
2, 37893, Control_c, 0, 64, 62
2, 37911, Control_c, 0, 64, 59
2, 37931, Control_c, 0, 64, 56
2, 37950, Control_c, 0, 64, 54
2, 37970, Control_c, 0, 64, 51
2, 37988, Control_c, 0, 64, 50
2, 38010, Control_c, 0, 64, 49
2, 38029, Control_c, 0, 64, 48
2, 38048, Control_c, 0, 64, 47
2, 38066, Note_on_c, 0, 46, 0
2, 38066, Note_on_c, 0, 49, 64
2, 38067, Control_c, 0, 64, 45
2, 38087, Control_c, 0, 64, 41
2, 38106, Control_c, 0, 64, 35
2, 38125, Control_c, 0, 64, 28
2, 38139, Note_on_c, 0, 51, 0
2, 38144, Control_c, 0, 64, 22
2, 38164, Control_c, 0, 64, 20
2, 38182, Control_c, 0, 64, 19
2, 38259, Control_c, 0, 64, 18
2, 38309, Note_on_c, 0, 49, 0
2, 38317, Control_c, 0, 64, 15
2, 38317, Note_on_c, 0, 75, 71
2, 38322, Note_on_c, 0, 73, 0
2, 38333, Note_on_c, 0, 47, 50
2, 38336, Control_c, 0, 64, 0
2, 38338, Note_on_c, 0, 68, 52
2, 38458, Note_on_c, 0, 67, 0
2, 38565, Note_on_c, 0, 68, 0
2, 38586, Note_on_c, 0, 73, 60
2, 38587, Note_on_c, 0, 47, 0
2, 38618, Note_on_c, 0, 49, 46
2, 38618, Note_on_c, 0, 70, 50
2, 38659, Note_on_c, 0, 70, 0
2, 38669, Note_on_c, 0, 68, 65
2, 38680, Control_c, 0, 64, 13
2, 38699, Control_c, 0, 64, 15
2, 38752, Note_on_c, 0, 70, 73
2, 38763, Note_on_c, 0, 75, 0
2, 38834, Control_c, 0, 64, 18
2, 38853, Control_c, 0, 64, 20
2, 38853, Note_on_c, 0, 46, 56
2, 38856, Note_on_c, 0, 73, 0
2, 38869, Note_on_c, 0, 68, 0
2, 38871, Control_c, 0, 64, 24
2, 38891, Control_c, 0, 64, 26
2, 38942, Note_on_c, 0, 49, 0
2, 38987, Control_c, 0, 64, 25
2, 39102, Control_c, 0, 64, 26
2, 39139, Note_on_c, 0, 73, 70
2, 39140, Note_on_c, 0, 43, 46
2, 39168, Note_on_c, 0, 70, 0
2, 39170, Note_on_c, 0, 63, 48
2, 39207, Note_on_c, 0, 46, 0
2, 39254, Control_c, 0, 64, 27
2, 39273, Control_c, 0, 64, 29
2, 39292, Control_c, 0, 64, 31
2, 39311, Control_c, 0, 64, 32
2, 39331, Control_c, 0, 64, 32
2, 39369, Control_c, 0, 64, 33
2, 39408, Control_c, 0, 64, 34
2, 39419, Note_on_c, 0, 47, 70
2, 39426, Control_c, 0, 64, 34
2, 39446, Control_c, 0, 64, 36
2, 39465, Control_c, 0, 64, 37
2, 39485, Control_c, 0, 64, 38
2, 39503, Control_c, 0, 64, 39
2, 39523, Control_c, 0, 64, 40
2, 39542, Control_c, 0, 64, 40
2, 39638, Control_c, 0, 64, 41
2, 39677, Control_c, 0, 64, 41
2, 39690, Note_on_c, 0, 46, 66
2, 39695, Control_c, 0, 64, 42
2, 39734, Control_c, 0, 64, 42
2, 39739, Note_on_c, 0, 47, 0
2, 39798, Note_on_c, 0, 63, 0
2, 39811, Control_c, 0, 64, 42
2, 39906, Control_c, 0, 64, 41
2, 39920, Note_on_c, 0, 43, 0
2, 39926, Control_c, 0, 64, 41
2, 39947, Note_on_c, 0, 71, 67
2, 39960, Note_on_c, 0, 44, 52
2, 39963, Note_on_c, 0, 65, 56
2, 39965, Control_c, 0, 64, 40
2, 39965, Note_on_c, 0, 46, 0
2, 39983, Control_c, 0, 64, 39
2, 40041, Control_c, 0, 64, 38
2, 40052, Note_on_c, 0, 73, 0
2, 40156, Control_c, 0, 64, 38
2, 40172, Note_on_c, 0, 65, 0
2, 40175, Control_c, 0, 64, 37
2, 40193, Control_c, 0, 64, 36
2, 40213, Control_c, 0, 64, 36
2, 40220, Note_on_c, 0, 70, 64
2, 40236, Note_on_c, 0, 44, 0
2, 40240, Note_on_c, 0, 71, 0
2, 40242, Note_on_c, 0, 67, 42
2, 40246, Note_on_c, 0, 46, 48
2, 40295, Note_on_c, 0, 65, 49
2, 40295, Note_on_c, 0, 67, 0
2, 40362, Note_on_c, 0, 67, 55
2, 40367, Control_c, 0, 64, 35
2, 40378, Note_on_c, 0, 65, 0
2, 40505, Note_on_c, 0, 43, 49
2, 40559, Control_c, 0, 64, 34
2, 40578, Control_c, 0, 64, 34
2, 40633, Note_on_c, 0, 46, 0
2, 40636, Control_c, 0, 64, 33
2, 40847, Control_c, 0, 64, 32
2, 40908, Note_on_c, 0, 37, 49
2, 41038, Note_on_c, 0, 43, 0
2, 41219, Note_on_c, 0, 67, 0
2, 41230, Control_c, 0, 64, 32
2, 41284, Note_on_c, 0, 68, 57
2, 41538, Control_c, 0, 64, 31
2, 41557, Control_c, 0, 64, 31
2, 41560, Note_on_c, 0, 67, 59
2, 41576, Control_c, 0, 64, 30
2, 41587, Note_on_c, 0, 70, 0
2, 41596, Control_c, 0, 64, 29
2, 41607, Note_on_c, 0, 68, 0
2, 41653, Control_c, 0, 64, 29
2, 41672, Control_c, 0, 64, 28
2, 41691, Control_c, 0, 64, 27
2, 41787, Control_c, 0, 64, 26
2, 41807, Control_c, 0, 64, 24
2, 41817, Note_on_c, 0, 67, 0
2, 41832, Note_on_c, 0, 65, 57
2, 41865, Control_c, 0, 64, 23
2, 41885, Control_c, 0, 64, 21
2, 41903, Control_c, 0, 64, 18
2, 41923, Control_c, 0, 64, 13
2, 41942, Control_c, 0, 64, 0
2, 42076, Note_on_c, 0, 65, 0
2, 42100, Note_on_c, 0, 67, 54
2, 42135, Control_c, 0, 64, 24
2, 42155, Control_c, 0, 64, 44
2, 42173, Control_c, 0, 64, 55
2, 42192, Control_c, 0, 64, 59
2, 42212, Control_c, 0, 64, 61
2, 42230, Control_c, 0, 64, 63
2, 42250, Control_c, 0, 64, 64
2, 42269, Control_c, 0, 64, 66
2, 42289, Control_c, 0, 64, 69
2, 42304, Note_on_c, 0, 67, 0
2, 42307, Control_c, 0, 64, 75
2, 42327, Control_c, 0, 64, 89
2, 42346, Control_c, 0, 64, 111
2, 42349, Note_on_c, 0, 63, 54
2, 42365, Control_c, 0, 64, 127
2, 42504, Note_on_c, 0, 67, 52
2, 42580, Note_on_c, 0, 70, 70
2, 42619, Note_on_c, 0, 63, 0
2, 42672, Control_c, 0, 64, 107
2, 42692, Control_c, 0, 64, 89
2, 42705, Note_on_c, 0, 75, 72
2, 42710, Control_c, 0, 64, 72
2, 42730, Control_c, 0, 64, 56
2, 42749, Control_c, 0, 64, 0
2, 42866, Control_c, 0, 64, 33
2, 42886, Control_c, 0, 64, 48
2, 42904, Control_c, 0, 64, 56
2, 42924, Control_c, 0, 64, 60
2, 42943, Control_c, 0, 64, 62
2, 42963, Control_c, 0, 64, 63
2, 42981, Control_c, 0, 64, 65
2, 42981, Note_on_c, 0, 67, 0
2, 42993, Note_on_c, 0, 37, 0
2, 42995, Note_on_c, 0, 49, 57
2, 43001, Control_c, 0, 64, 67
2, 43020, Control_c, 0, 64, 71
2, 43040, Control_c, 0, 64, 78
2, 43058, Control_c, 0, 64, 90
2, 43078, Control_c, 0, 64, 108
2, 43078, Note_on_c, 0, 49, 0
2, 43097, Control_c, 0, 64, 127
2, 43254, Note_on_c, 0, 47, 65
2, 43327, Control_c, 0, 64, 119
2, 43346, Control_c, 0, 64, 95
2, 43366, Control_c, 0, 64, 83
2, 43384, Control_c, 0, 64, 75
2, 43404, Control_c, 0, 64, 70
2, 43423, Control_c, 0, 64, 66
2, 43443, Control_c, 0, 64, 63
2, 43461, Control_c, 0, 64, 61
2, 43481, Control_c, 0, 64, 59
2, 43500, Control_c, 0, 64, 56
2, 43520, Control_c, 0, 64, 54
2, 43527, Note_on_c, 0, 46, 65
2, 43531, Note_on_c, 0, 47, 0
2, 43538, Control_c, 0, 64, 52
2, 43558, Control_c, 0, 64, 50
2, 43577, Control_c, 0, 64, 48
2, 43596, Control_c, 0, 64, 45
2, 43615, Control_c, 0, 64, 41
2, 43635, Control_c, 0, 64, 35
2, 43654, Control_c, 0, 64, 31
2, 43672, Control_c, 0, 64, 29
2, 43692, Control_c, 0, 64, 28
2, 43711, Control_c, 0, 64, 27
2, 43730, Control_c, 0, 64, 25
2, 43749, Control_c, 0, 64, 22
2, 43760, Note_on_c, 0, 46, 0
2, 43769, Control_c, 0, 64, 18
2, 43787, Note_on_c, 0, 68, 68
2, 43788, Control_c, 0, 64, 9
2, 43802, Note_on_c, 0, 70, 0
2, 43807, Control_c, 0, 64, 0
2, 43808, Note_on_c, 0, 47, 57
2, 44031, Note_on_c, 0, 47, 0
2, 44054, Note_on_c, 0, 44, 61
2, 44370, Note_on_c, 0, 52, 55
2, 44407, Note_on_c, 0, 44, 0
2, 44423, Note_on_c, 0, 52, 0
2, 44437, Note_on_c, 0, 51, 65
2, 44502, Note_on_c, 0, 51, 0
2, 44517, Note_on_c, 0, 52, 74
2, 44614, Note_on_c, 0, 72, 70
2, 44625, Note_on_c, 0, 75, 0
2, 44877, Note_on_c, 0, 73, 74
2, 44906, Note_on_c, 0, 72, 0
2, 45140, Note_on_c, 0, 75, 76
2, 45154, Note_on_c, 0, 51, 57
2, 45180, Note_on_c, 0, 73, 0
2, 45425, Note_on_c, 0, 75, 0
2, 45429, Note_on_c, 0, 76, 67
2, 45453, Note_on_c, 0, 49, 52
2, 45526, Note_on_c, 0, 51, 0
2, 45538, Note_on_c, 0, 52, 0
2, 45705, Note_on_c, 0, 75, 70
2, 45723, Note_on_c, 0, 76, 0
2, 46051, Note_on_c, 0, 73, 59
2, 46079, Note_on_c, 0, 75, 0
2, 46101, Note_on_c, 0, 51, 32
2, 46177, Note_on_c, 0, 49, 0
2, 46421, Note_on_c, 0, 73, 0
2, 46424, Note_on_c, 0, 71, 64
2, 46471, Control_c, 0, 64, 15
2, 46490, Control_c, 0, 64, 36
2, 46509, Control_c, 0, 64, 46
2, 46529, Control_c, 0, 64, 51
2, 46548, Control_c, 0, 64, 55
2, 46567, Control_c, 0, 64, 58
2, 46586, Control_c, 0, 64, 61
2, 46606, Control_c, 0, 64, 62
2, 46625, Control_c, 0, 64, 64
2, 46645, Control_c, 0, 64, 65
2, 46664, Control_c, 0, 64, 67
2, 46684, Control_c, 0, 64, 72
2, 46702, Control_c, 0, 64, 82
2, 46722, Control_c, 0, 64, 99
2, 46741, Control_c, 0, 64, 127
2, 47029, Note_on_c, 0, 71, 0
2, 47068, Note_on_c, 0, 68, 0
2, 47085, Note_on_c, 0, 73, 68
2, 47327, Note_on_c, 0, 39, 37
2, 47393, Note_on_c, 0, 71, 57
2, 47414, Control_c, 0, 64, 96
2, 47433, Control_c, 0, 64, 79
2, 47438, Note_on_c, 0, 67, 40
2, 47444, Note_on_c, 0, 73, 0
2, 47452, Control_c, 0, 64, 68
2, 47463, Note_on_c, 0, 71, 0
2, 47471, Control_c, 0, 64, 58
2, 47473, Note_on_c, 0, 70, 65
2, 47491, Control_c, 0, 64, 0
2, 47536, Note_on_c, 0, 67, 0
2, 47561, Note_on_c, 0, 68, 67
2, 47561, Note_on_c, 0, 70, 0
2, 47625, Control_c, 0, 64, 19
2, 47645, Control_c, 0, 64, 33
2, 47663, Control_c, 0, 64, 45
2, 47665, Note_on_c, 0, 68, 0
2, 47676, Note_on_c, 0, 70, 59
2, 47683, Control_c, 0, 64, 50
2, 47702, Control_c, 0, 64, 50
2, 47721, Control_c, 0, 64, 51
2, 47798, Control_c, 0, 64, 52
2, 47817, Control_c, 0, 64, 53
2, 47874, Control_c, 0, 64, 52
2, 47894, Control_c, 0, 64, 51
2, 47913, Control_c, 0, 64, 51
2, 47943, Note_on_c, 0, 44, 35
2, 47951, Control_c, 0, 64, 50
2, 47989, Control_c, 0, 64, 50
2, 48009, Control_c, 0, 64, 49
2, 48016, Note_on_c, 0, 59, 41
2, 48028, Control_c, 0, 64, 48
2, 48048, Control_c, 0, 64, 46
2, 48066, Control_c, 0, 64, 44
2, 48066, Note_on_c, 0, 63, 51
2, 48073, Note_on_c, 0, 51, 0
2, 48086, Control_c, 0, 64, 40
2, 48105, Control_c, 0, 64, 36
2, 48105, Note_on_c, 0, 39, 0
2, 48125, Control_c, 0, 64, 32
2, 48143, Control_c, 0, 64, 27
2, 48148, Note_on_c, 0, 68, 59
2, 48163, Control_c, 0, 64, 22
2, 48182, Control_c, 0, 64, 17
2, 48201, Control_c, 0, 64, 0
2, 48208, Note_on_c, 0, 70, 0
2, 48467, Note_on_c, 0, 49, 51
2, 48740, Note_on_c, 0, 47, 59
2, 48829, Note_on_c, 0, 49, 0
2, 48993, Note_on_c, 0, 47, 0
2, 48994, Note_on_c, 0, 46, 64
2, 49203, Note_on_c, 0, 44, 0
2, 49267, Note_on_c, 0, 46, 0
2, 49283, Note_on_c, 0, 47, 55
2, 49529, Note_on_c, 0, 47, 0
2, 49568, Note_on_c, 0, 44, 47
2, 49797, Note_on_c, 0, 59, 0
2, 49828, Note_on_c, 0, 47, 53
2, 49966, Note_on_c, 0, 63, 0
2, 50105, Note_on_c, 0, 51, 49
2, 50159, Note_on_c, 0, 47, 0
2, 50234, Note_on_c, 0, 68, 0
2, 50348, Note_on_c, 0, 51, 0
2, 50386, Note_on_c, 0, 56, 50
2, 50646, Note_on_c, 0, 56, 0
2, 50657, Note_on_c, 0, 52, 42
2, 50855, Note_on_c, 0, 52, 0
2, 50929, Note_on_c, 0, 71, 56
2, 50948, Note_on_c, 0, 54, 33
2, 50995, Note_on_c, 0, 71, 0
2, 51022, Note_on_c, 0, 70, 62
2, 51081, Note_on_c, 0, 70, 0
2, 51090, Note_on_c, 0, 71, 57
2, 51205, Note_on_c, 0, 51, 39
2, 51245, Note_on_c, 0, 54, 0
2, 51371, Note_on_c, 0, 44, 0
2, 51533, Note_on_c, 0, 51, 0
2, 51558, Note_on_c, 0, 49, 31
2, 51564, Note_on_c, 0, 52, 31
2, 51840, Note_on_c, 0, 49, 0
2, 51847, Note_on_c, 0, 71, 0
2, 51864, Note_on_c, 0, 51, 38
2, 51872, Note_on_c, 0, 68, 52
2, 52151, Note_on_c, 0, 70, 57
2, 52183, Note_on_c, 0, 49, 34
2, 52210, Note_on_c, 0, 51, 0
2, 52242, Note_on_c, 0, 68, 0
2, 52423, Note_on_c, 0, 73, 58
2, 52441, Note_on_c, 0, 49, 0
2, 52442, Note_on_c, 0, 47, 38
2, 52524, Note_on_c, 0, 70, 0
2, 52691, Note_on_c, 0, 47, 0
2, 52711, Note_on_c, 0, 76, 63
2, 52725, Note_on_c, 0, 49, 40
2, 52745, Note_on_c, 0, 73, 0
2, 52803, Note_on_c, 0, 52, 0
2, 52987, Note_on_c, 0, 46, 44
2, 52992, Note_on_c, 0, 49, 0
2, 53117, Note_on_c, 0, 54, 56
2, 53171, Note_on_c, 0, 54, 0
2, 53186, Note_on_c, 0, 52, 53
2, 53258, Note_on_c, 0, 52, 0
2, 53271, Note_on_c, 0, 54, 64
2, 53315, Note_on_c, 0, 46, 0
2, 53522, Note_on_c, 0, 76, 0
2, 53530, Note_on_c, 0, 75, 66
2, 53792, Note_on_c, 0, 76, 68
2, 53840, Note_on_c, 0, 75, 0
2, 54051, Note_on_c, 0, 80, 72
2, 54063, Note_on_c, 0, 54, 0
2, 54063, Note_on_c, 0, 76, 0
2, 54070, Note_on_c, 0, 56, 46
2, 54261, Note_on_c, 0, 56, 0
2, 54348, Note_on_c, 0, 78, 61
2, 54372, Note_on_c, 0, 58, 36
2, 54411, Note_on_c, 0, 80, 0
2, 54535, Control_c, 0, 64, 27
2, 54554, Control_c, 0, 64, 48
2, 54574, Control_c, 0, 64, 55
2, 54592, Control_c, 0, 64, 59
2, 54612, Control_c, 0, 64, 62
2, 54624, Note_on_c, 0, 78, 0
2, 54628, Note_on_c, 0, 76, 66
2, 54631, Control_c, 0, 64, 64
2, 54650, Control_c, 0, 64, 66
2, 54669, Control_c, 0, 64, 70
2, 54673, Note_on_c, 0, 76, 0
2, 54689, Control_c, 0, 64, 77
2, 54708, Control_c, 0, 64, 89
2, 54727, Control_c, 0, 64, 103
2, 54746, Control_c, 0, 64, 127
2, 54927, Note_on_c, 0, 58, 0
2, 54979, Note_on_c, 0, 75, 64
2, 55005, Note_on_c, 0, 59, 39
2, 55015, Control_c, 0, 64, 101
2, 55034, Control_c, 0, 64, 88
2, 55054, Control_c, 0, 64, 78
2, 55067, Note_on_c, 0, 59, 0
2, 55072, Control_c, 0, 64, 69
2, 55074, Note_on_c, 0, 58, 45
2, 55092, Control_c, 0, 64, 63
2, 55111, Control_c, 0, 64, 55
2, 55130, Control_c, 0, 64, 52
2, 55137, Note_on_c, 0, 58, 0
2, 55149, Control_c, 0, 64, 51
2, 55169, Control_c, 0, 64, 49
2, 55188, Control_c, 0, 64, 45
2, 55207, Control_c, 0, 64, 35
2, 55208, Note_on_c, 0, 59, 47
2, 55226, Control_c, 0, 64, 0
2, 55283, Note_on_c, 0, 73, 60
2, 55563, Note_on_c, 0, 71, 59
2, 55574, Note_on_c, 0, 73, 0
2, 55780, Note_on_c, 0, 71, 0
2, 55831, Note_on_c, 0, 70, 58
2, 56026, Note_on_c, 0, 70, 0
2, 56098, Note_on_c, 0, 71, 53
2, 56208, Control_c, 0, 64, 17
2, 56226, Control_c, 0, 64, 39
2, 56245, Control_c, 0, 64, 49
2, 56264, Control_c, 0, 64, 54
2, 56284, Control_c, 0, 64, 57
2, 56302, Control_c, 0, 64, 59
2, 56322, Control_c, 0, 64, 61
2, 56341, Control_c, 0, 64, 62
2, 56360, Control_c, 0, 64, 63
2, 56379, Control_c, 0, 64, 64
2, 56379, Note_on_c, 0, 66, 47
2, 56399, Control_c, 0, 64, 65
2, 56418, Control_c, 0, 64, 67
2, 56436, Control_c, 0, 64, 69
2, 56456, Control_c, 0, 64, 72
2, 56475, Control_c, 0, 64, 78
2, 56495, Control_c, 0, 64, 84
2, 56513, Control_c, 0, 64, 88
2, 56533, Control_c, 0, 64, 92
2, 56537, Note_on_c, 0, 59, 0
2, 56552, Control_c, 0, 64, 96
2, 56571, Control_c, 0, 64, 101
2, 56590, Control_c, 0, 64, 104
2, 56629, Control_c, 0, 64, 104
2, 56648, Control_c, 0, 64, 103
2, 56688, Note_on_c, 0, 63, 38
2, 56705, Control_c, 0, 64, 102
2, 56725, Control_c, 0, 64, 98
2, 56744, Control_c, 0, 64, 93
2, 56764, Control_c, 0, 64, 89
2, 56782, Control_c, 0, 64, 88
2, 56802, Control_c, 0, 64, 88
2, 56821, Control_c, 0, 64, 87
2, 56840, Control_c, 0, 64, 85
2, 56859, Control_c, 0, 64, 80
2, 56879, Control_c, 0, 64, 75
2, 56898, Control_c, 0, 64, 71
2, 56916, Control_c, 0, 64, 69
2, 56936, Control_c, 0, 64, 67
2, 56955, Control_c, 0, 64, 65
2, 56974, Note_on_c, 0, 59, 47
2, 56975, Control_c, 0, 64, 64
2, 56993, Control_c, 0, 64, 62
2, 57013, Control_c, 0, 64, 61
2, 57032, Control_c, 0, 64, 60
2, 57051, Control_c, 0, 64, 58
2, 57070, Control_c, 0, 64, 56
2, 57090, Control_c, 0, 64, 54
2, 57109, Control_c, 0, 64, 52
2, 57128, Control_c, 0, 64, 50
2, 57147, Control_c, 0, 64, 48
2, 57167, Control_c, 0, 64, 44
2, 57185, Control_c, 0, 64, 38
2, 57206, Control_c, 0, 64, 30
2, 57225, Control_c, 0, 64, 21
2, 57245, Control_c, 0, 64, 11
2, 57260, Note_on_c, 0, 57, 55
2, 57263, Control_c, 0, 64, 0
2, 57286, Note_on_c, 0, 59, 0
2, 57381, Note_on_c, 0, 71, 0
2, 57530, Note_on_c, 0, 57, 0
2, 57540, Note_on_c, 0, 56, 63
2, 57779, Note_on_c, 0, 56, 0
2, 57793, Note_on_c, 0, 73, 66
2, 57842, Note_on_c, 0, 57, 41
2, 57896, Note_on_c, 0, 75, 0
2, 57902, Note_on_c, 0, 66, 0
2, 58026, Note_on_c, 0, 63, 0
2, 58095, Note_on_c, 0, 54, 51
2, 58201, Note_on_c, 0, 57, 0
2, 58396, Note_on_c, 0, 54, 0
2, 58417, Note_on_c, 0, 51, 43
2, 58661, Note_on_c, 0, 51, 0
2, 58699, Note_on_c, 0, 70, 58
2, 58710, Note_on_c, 0, 52, 48
2, 58778, Note_on_c, 0, 73, 0
2, 58925, Note_on_c, 0, 70, 0
2, 58952, Note_on_c, 0, 72, 67
2, 58964, Note_on_c, 0, 51, 45
2, 59098, Note_on_c, 0, 52, 0
2, 59210, Note_on_c, 0, 51, 0
2, 59216, Note_on_c, 0, 75, 66
2, 59228, Note_on_c, 0, 49, 54
2, 59493, Note_on_c, 0, 49, 0
2, 59498, Note_on_c, 0, 78, 70
2, 59501, Note_on_c, 0, 72, 0
2, 59521, Note_on_c, 0, 51, 46
2, 59566, Note_on_c, 0, 75, 0
2, 59764, Note_on_c, 0, 80, 72
2, 59787, Note_on_c, 0, 48, 51
2, 59788, Note_on_c, 0, 78, 0
2, 60093, Note_on_c, 0, 81, 66
2, 60098, Note_on_c, 0, 80, 0
2, 60126, Note_on_c, 0, 44, 44
2, 60232, Note_on_c, 0, 48, 0
2, 60388, Note_on_c, 0, 80, 68
2, 60448, Note_on_c, 0, 81, 0
2, 60650, Note_on_c, 0, 78, 69
2, 60719, Note_on_c, 0, 80, 0
2, 60914, Note_on_c, 0, 44, 0
2, 60915, Note_on_c, 0, 46, 60
2, 60923, Note_on_c, 0, 76, 67
2, 60947, Note_on_c, 0, 78, 0
2, 61160, Note_on_c, 0, 46, 0
2, 61174, Note_on_c, 0, 76, 0
2, 61197, Note_on_c, 0, 78, 69
2, 61207, Note_on_c, 0, 48, 52
2, 61312, Control_c, 0, 64, 38
2, 61332, Control_c, 0, 64, 52
2, 61351, Control_c, 0, 64, 57
2, 61363, Note_on_c, 0, 51, 0
2, 61370, Control_c, 0, 64, 60
2, 61389, Control_c, 0, 64, 62
2, 61409, Control_c, 0, 64, 64
2, 61428, Control_c, 0, 64, 65
2, 61447, Control_c, 0, 64, 67
2, 61452, Note_on_c, 0, 78, 0
2, 61466, Control_c, 0, 64, 70
2, 61469, Note_on_c, 0, 75, 71
2, 61486, Control_c, 0, 64, 74
2, 61505, Control_c, 0, 64, 80
2, 61524, Control_c, 0, 64, 90
2, 61543, Control_c, 0, 64, 102
2, 61563, Control_c, 0, 64, 127
2, 61790, Note_on_c, 0, 76, 68
2, 61794, Note_on_c, 0, 75, 0
2, 61830, Note_on_c, 0, 49, 43
2, 61850, Control_c, 0, 64, 106
2, 61869, Control_c, 0, 64, 86
2, 61889, Control_c, 0, 64, 73
2, 61908, Control_c, 0, 64, 65
2, 61927, Control_c, 0, 64, 62
2, 61940, Note_on_c, 0, 48, 0
2, 61946, Control_c, 0, 64, 61
2, 61966, Control_c, 0, 64, 61
2, 61985, Control_c, 0, 64, 58
2, 62009, Control_c, 0, 64, 55
2, 62028, Control_c, 0, 64, 50
2, 62047, Control_c, 0, 64, 44
2, 62066, Control_c, 0, 64, 37
2, 62086, Control_c, 0, 64, 32
2, 62105, Control_c, 0, 64, 30
2, 62113, Note_on_c, 0, 75, 59
2, 62124, Control_c, 0, 64, 26
2, 62143, Control_c, 0, 64, 20
2, 62163, Control_c, 0, 64, 11
2, 62181, Control_c, 0, 64, 0
2, 62381, Note_on_c, 0, 73, 52
2, 62420, Note_on_c, 0, 75, 0
2, 62619, Note_on_c, 0, 73, 0
2, 62639, Note_on_c, 0, 72, 58
2, 62854, Note_on_c, 0, 72, 0
2, 62917, Note_on_c, 0, 73, 49
2, 63200, Note_on_c, 0, 68, 46
2, 63505, Note_on_c, 0, 64, 35
2, 63761, Note_on_c, 0, 51, 45
2, 63820, Note_on_c, 0, 49, 0
2, 63990, Note_on_c, 0, 51, 0
2, 64048, Note_on_c, 0, 52, 51
2, 64309, Note_on_c, 0, 52, 0
2, 64313, Note_on_c, 0, 54, 58
2, 64580, Note_on_c, 0, 56, 64
2, 64598, Note_on_c, 0, 54, 0
2, 64713, Note_on_c, 0, 64, 0
2, 64862, Note_on_c, 0, 68, 0
2, 64864, Note_on_c, 0, 57, 64
2, 64867, Note_on_c, 0, 76, 0
2, 64880, Note_on_c, 0, 56, 0
2, 64967, Note_on_c, 0, 73, 0
2, 65209, Note_on_c, 0, 59, 65
2, 65228, Note_on_c, 0, 57, 0
2, 65516, Note_on_c, 0, 74, 62
2, 65779, Note_on_c, 0, 77, 67
2, 66035, Note_on_c, 0, 80, 78
2, 66059, Note_on_c, 0, 61, 53
2, 66094, Note_on_c, 0, 59, 0
2, 66157, Note_on_c, 0, 77, 0
2, 66313, Note_on_c, 0, 83, 78
2, 66341, Note_on_c, 0, 61, 0
2, 66359, Note_on_c, 0, 62, 48
2, 66361, Note_on_c, 0, 80, 0
2, 66569, Note_on_c, 0, 74, 0
2, 66600, Note_on_c, 0, 59, 68
2, 66945, Note_on_c, 0, 53, 61
2, 66966, Note_on_c, 0, 59, 0
2, 67048, Note_on_c, 0, 62, 0
2, 67241, Note_on_c, 0, 83, 0
2, 67253, Note_on_c, 0, 74, 58
2, 67519, Note_on_c, 0, 73, 60
2, 67521, Note_on_c, 0, 56, 58
2, 67584, Note_on_c, 0, 74, 0
2, 67779, Note_on_c, 0, 71, 71
2, 67818, Note_on_c, 0, 73, 0
2, 67975, Note_on_c, 0, 53, 0
2, 68036, Note_on_c, 0, 71, 0
2, 68052, Note_on_c, 0, 61, 66
2, 68068, Note_on_c, 0, 69, 63
2, 68200, Note_on_c, 0, 56, 0
2, 68343, Note_on_c, 0, 68, 71
2, 68360, Note_on_c, 0, 69, 0
2, 68537, Note_on_c, 0, 54, 43
2, 68616, Note_on_c, 0, 68, 0
2, 68641, Note_on_c, 0, 69, 61
2, 68722, Note_on_c, 0, 69, 0
2, 68738, Note_on_c, 0, 68, 77
2, 68739, Note_on_c, 0, 61, 0
2, 68808, Note_on_c, 0, 69, 71
2, 68817, Note_on_c, 0, 68, 0
2, 68926, Note_on_c, 0, 59, 59
2, 69201, Note_on_c, 0, 57, 58
2, 69217, Note_on_c, 0, 59, 0
2, 69464, Note_on_c, 0, 56, 60
2, 69470, Note_on_c, 0, 57, 0
2, 69495, Note_on_c, 0, 54, 0
2, 69714, Note_on_c, 0, 56, 0
2, 69726, Note_on_c, 0, 57, 59
2, 69980, Note_on_c, 0, 57, 0
2, 70006, Note_on_c, 0, 54, 48
2, 70356, Note_on_c, 0, 66, 52
2, 70397, Note_on_c, 0, 54, 0
2, 70628, Note_on_c, 0, 69, 0
2, 70646, Note_on_c, 0, 68, 55
2, 70878, Note_on_c, 0, 68, 0
2, 70917, Note_on_c, 0, 69, 52
2, 71165, Note_on_c, 0, 73, 67
2, 71184, Note_on_c, 0, 66, 0
2, 71198, Note_on_c, 0, 64, 44
2, 71456, Note_on_c, 0, 78, 69
2, 71506, Note_on_c, 0, 63, 36
2, 71601, Note_on_c, 0, 73, 0
2, 71649, Note_on_c, 0, 64, 0
2, 71649, Note_on_c, 0, 69, 0
2, 71746, Note_on_c, 0, 61, 46
2, 71805, Note_on_c, 0, 63, 0
2, 72037, Note_on_c, 0, 61, 0
2, 72087, Note_on_c, 0, 59, 42
2, 72090, Note_on_c, 0, 56, 43
2, 72381, Note_on_c, 0, 76, 62
2, 72477, Note_on_c, 0, 78, 0
2, 72644, Note_on_c, 0, 75, 68
2, 72679, Control_c, 0, 64, 20
2, 72698, Control_c, 0, 64, 35
2, 72702, Note_on_c, 0, 76, 0
2, 72717, Control_c, 0, 64, 42
2, 72737, Control_c, 0, 64, 46
2, 72755, Control_c, 0, 64, 51
2, 72775, Control_c, 0, 64, 55
2, 72794, Control_c, 0, 64, 57
2, 72814, Control_c, 0, 64, 58
2, 72832, Control_c, 0, 64, 59
2, 72852, Control_c, 0, 64, 59
2, 72890, Control_c, 0, 64, 59
2, 72890, Note_on_c, 0, 56, 0
2, 72896, Note_on_c, 0, 73, 69
2, 72909, Control_c, 0, 64, 57
2, 72919, Note_on_c, 0, 61, 53
2, 72926, Note_on_c, 0, 59, 0
2, 72929, Control_c, 0, 64, 55
2, 72929, Note_on_c, 0, 57, 46
2, 72934, Note_on_c, 0, 75, 0
2, 72948, Control_c, 0, 64, 52
2, 72967, Control_c, 0, 64, 49
2, 72986, Control_c, 0, 64, 46
2, 73006, Control_c, 0, 64, 40
2, 73025, Control_c, 0, 64, 34
2, 73044, Control_c, 0, 64, 27
2, 73063, Control_c, 0, 64, 21
2, 73083, Control_c, 0, 64, 11
2, 73101, Control_c, 0, 64, 0
2, 73125, Note_on_c, 0, 73, 0
2, 73138, Note_on_c, 0, 61, 0
2, 73178, Note_on_c, 0, 71, 59
2, 73181, Note_on_c, 0, 57, 0
2, 73203, Note_on_c, 0, 59, 51
2, 73205, Note_on_c, 0, 63, 42
2, 73332, Control_c, 0, 64, 37
2, 73351, Control_c, 0, 64, 51
2, 73370, Control_c, 0, 64, 56
2, 73389, Control_c, 0, 64, 59
2, 73409, Control_c, 0, 64, 62
2, 73428, Control_c, 0, 64, 64
2, 73442, Note_on_c, 0, 69, 70
2, 73447, Control_c, 0, 64, 66
2, 73461, Note_on_c, 0, 71, 0
2, 73466, Control_c, 0, 64, 68
2, 73486, Control_c, 0, 64, 72
2, 73505, Control_c, 0, 64, 79
2, 73524, Control_c, 0, 64, 88
2, 73534, Note_on_c, 0, 69, 0
2, 73543, Control_c, 0, 64, 98
2, 73563, Control_c, 0, 64, 107
2, 73581, Control_c, 0, 64, 127
2, 73678, Note_on_c, 0, 69, 65
2, 73743, Note_on_c, 0, 68, 67
2, 73772, Note_on_c, 0, 52, 39
2, 73774, Note_on_c, 0, 69, 0
2, 73792, Control_c, 0, 64, 97
2, 73812, Control_c, 0, 64, 79
2, 73831, Control_c, 0, 64, 67
2, 73850, Control_c, 0, 64, 63
2, 73858, Note_on_c, 0, 59, 0
2, 73869, Control_c, 0, 64, 59
2, 73889, Control_c, 0, 64, 56
2, 73908, Control_c, 0, 64, 52
2, 73927, Control_c, 0, 64, 49
2, 73946, Control_c, 0, 64, 45
2, 73966, Control_c, 0, 64, 40
2, 73985, Control_c, 0, 64, 36
2, 74004, Control_c, 0, 64, 29
2, 74004, Note_on_c, 0, 68, 0
2, 74023, Control_c, 0, 64, 15
2, 74026, Note_on_c, 0, 66, 66
2, 74043, Control_c, 0, 64, 0
2, 74285, Note_on_c, 0, 68, 69
2, 74305, Note_on_c, 0, 66, 0
2, 74510, Note_on_c, 0, 68, 0
2, 74542, Note_on_c, 0, 71, 71
2, 74555, Note_on_c, 0, 56, 45
2, 74606, Note_on_c, 0, 63, 0
2, 74841, Note_on_c, 0, 76, 70
2, 74852, Note_on_c, 0, 56, 0
2, 74885, Note_on_c, 0, 71, 0
2, 74911, Note_on_c, 0, 61, 32
2, 75085, Note_on_c, 0, 61, 0
2, 75121, Note_on_c, 0, 60, 53
2, 75353, Note_on_c, 0, 60, 0
2, 75407, Note_on_c, 0, 61, 48
2, 75459, Note_on_c, 0, 61, 0
2, 75495, Note_on_c, 0, 60, 48
2, 75552, Note_on_c, 0, 60, 0
2, 75567, Note_on_c, 0, 61, 62
2, 75662, Note_on_c, 0, 75, 64
2, 75707, Note_on_c, 0, 76, 0
2, 75875, Note_on_c, 0, 52, 0
2, 75935, Note_on_c, 0, 73, 60
2, 75995, Note_on_c, 0, 75, 0
2, 76191, Note_on_c, 0, 51, 48
2, 76194, Note_on_c, 0, 71, 62
2, 76208, Note_on_c, 0, 73, 0
2, 76407, Note_on_c, 0, 51, 0
2, 76412, Note_on_c, 0, 71, 0
2, 76483, Note_on_c, 0, 69, 60
2, 76488, Note_on_c, 0, 49, 40
2, 76576, Control_c, 0, 64, 42
2, 76595, Control_c, 0, 64, 54
2, 76604, Note_on_c, 0, 61, 0
2, 76614, Control_c, 0, 64, 59
2, 76633, Control_c, 0, 64, 62
2, 76653, Control_c, 0, 64, 64
2, 76671, Control_c, 0, 64, 65
2, 76691, Control_c, 0, 64, 67
2, 76710, Control_c, 0, 64, 71
2, 76726, Note_on_c, 0, 69, 0
2, 76730, Control_c, 0, 64, 77
2, 76730, Note_on_c, 0, 68, 67
2, 76748, Control_c, 0, 64, 88
2, 76768, Control_c, 0, 64, 100
2, 76787, Control_c, 0, 64, 118
2, 76793, Note_on_c, 0, 68, 0
2, 76806, Control_c, 0, 64, 127
2, 76940, Note_on_c, 0, 68, 62
2, 76998, Control_c, 0, 64, 105
2, 77017, Control_c, 0, 64, 86
2, 77024, Note_on_c, 0, 51, 38
2, 77027, Note_on_c, 0, 66, 56
2, 77036, Control_c, 0, 64, 74
2, 77053, Note_on_c, 0, 68, 0
2, 77056, Control_c, 0, 64, 67
2, 77075, Control_c, 0, 64, 63
2, 77094, Control_c, 0, 64, 60
2, 77113, Control_c, 0, 64, 57
2, 77127, Note_on_c, 0, 49, 0
2, 77133, Control_c, 0, 64, 55
2, 77151, Control_c, 0, 64, 53
2, 77171, Control_c, 0, 64, 51
2, 77190, Control_c, 0, 64, 50
2, 77210, Control_c, 0, 64, 47
2, 77228, Control_c, 0, 64, 45
2, 77248, Control_c, 0, 64, 42
2, 77267, Control_c, 0, 64, 38
2, 77282, Note_on_c, 0, 66, 0
2, 77286, Control_c, 0, 64, 35
2, 77305, Control_c, 0, 64, 32
2, 77319, Note_on_c, 0, 64, 53
2, 77325, Control_c, 0, 64, 29
2, 77344, Control_c, 0, 64, 25
2, 77370, Control_c, 0, 64, 20
2, 77389, Control_c, 0, 64, 15
2, 77408, Control_c, 0, 64, 11
2, 77427, Control_c, 0, 64, 9
2, 77504, Control_c, 0, 64, 0
2, 77571, Note_on_c, 0, 66, 51
2, 77612, Note_on_c, 0, 64, 0
2, 77847, Note_on_c, 0, 69, 59
2, 77888, Note_on_c, 0, 60, 26
2, 77953, Note_on_c, 0, 66, 0
2, 78117, Note_on_c, 0, 60, 0
2, 78126, Note_on_c, 0, 75, 56
2, 78129, Note_on_c, 0, 69, 0
2, 78152, Note_on_c, 0, 61, 36
2, 78285, Control_c, 0, 64, 32
2, 78285, Note_on_c, 0, 51, 0
2, 78304, Control_c, 0, 64, 50
2, 78323, Control_c, 0, 64, 58
2, 78342, Control_c, 0, 64, 61
2, 78362, Control_c, 0, 64, 62
2, 78380, Control_c, 0, 64, 63
2, 78399, Control_c, 0, 64, 64
2, 78402, Note_on_c, 0, 61, 0
2, 78403, Note_on_c, 0, 58, 38
2, 78419, Control_c, 0, 64, 66
2, 78438, Control_c, 0, 64, 68
2, 78457, Control_c, 0, 64, 70
2, 78476, Control_c, 0, 64, 74
2, 78496, Control_c, 0, 64, 79
2, 78515, Control_c, 0, 64, 84
2, 78535, Control_c, 0, 64, 89
2, 78554, Control_c, 0, 64, 94
2, 78574, Control_c, 0, 64, 97
2, 78592, Control_c, 0, 64, 100
2, 78612, Control_c, 0, 64, 102
2, 78631, Control_c, 0, 64, 104
2, 78653, Note_on_c, 0, 58, 0
2, 78708, Control_c, 0, 64, 103
2, 78718, Note_on_c, 0, 60, 40
2, 78722, Note_on_c, 0, 56, 41
2, 78727, Control_c, 0, 64, 102
2, 78746, Control_c, 0, 64, 101
2, 78766, Control_c, 0, 64, 98
2, 78777, Note_on_c, 0, 60, 0
2, 78785, Control_c, 0, 64, 91
2, 78804, Control_c, 0, 64, 84
2, 78814, Note_on_c, 0, 58, 44
2, 78823, Control_c, 0, 64, 80
2, 78843, Control_c, 0, 64, 77
2, 78847, Note_on_c, 0, 58, 0
2, 78861, Control_c, 0, 64, 75
2, 78880, Control_c, 0, 64, 72
2, 78900, Control_c, 0, 64, 68
2, 78903, Note_on_c, 0, 60, 44
2, 78919, Control_c, 0, 64, 63
2, 78938, Control_c, 0, 64, 55
2, 78957, Control_c, 0, 64, 45
2, 78977, Control_c, 0, 64, 35
2, 78984, Note_on_c, 0, 73, 57
2, 78995, Control_c, 0, 64, 30
2, 79015, Control_c, 0, 64, 28
2, 79034, Control_c, 0, 64, 26
2, 79054, Control_c, 0, 64, 21
2, 79072, Control_c, 0, 64, 13
2, 79092, Control_c, 0, 64, 0
2, 79130, Note_on_c, 0, 75, 0
2, 79244, Note_on_c, 0, 72, 62
2, 79332, Note_on_c, 0, 73, 0
2, 79490, Note_on_c, 0, 60, 0
2, 79504, Note_on_c, 0, 70, 61
2, 79519, Note_on_c, 0, 61, 41
2, 79523, Note_on_c, 0, 58, 45
2, 79535, Note_on_c, 0, 72, 0
2, 79540, Note_on_c, 0, 56, 0
2, 79585, Note_on_c, 0, 61, 0
2, 79745, Note_on_c, 0, 70, 0
2, 79778, Note_on_c, 0, 58, 0
2, 79798, Note_on_c, 0, 68, 50
2, 79817, Note_on_c, 0, 60, 26
2, 79829, Note_on_c, 0, 63, 35
2, 79879, Control_c, 0, 64, 25
2, 79898, Control_c, 0, 64, 39
2, 79917, Control_c, 0, 64, 48
2, 79937, Control_c, 0, 64, 54
2, 79955, Control_c, 0, 64, 58
2, 79975, Control_c, 0, 64, 63
2, 79994, Control_c, 0, 64, 66
2, 80014, Control_c, 0, 64, 71
2, 80030, Note_on_c, 0, 68, 0
2, 80032, Control_c, 0, 64, 78
2, 80052, Control_c, 0, 64, 90
2, 80053, Note_on_c, 0, 63, 0
2, 80057, Note_on_c, 0, 66, 57
2, 80071, Control_c, 0, 64, 106
2, 80090, Control_c, 0, 64, 127
2, 80107, Note_on_c, 0, 66, 0
2, 80342, Note_on_c, 0, 66, 50
2, 80404, Note_on_c, 0, 64, 49
2, 80425, Note_on_c, 0, 66, 0
2, 80435, Control_c, 0, 64, 95
2, 80446, Note_on_c, 0, 61, 36
2, 80455, Control_c, 0, 64, 78
2, 80474, Control_c, 0, 64, 67
2, 80494, Control_c, 0, 64, 60
2, 80512, Control_c, 0, 64, 49
2, 80532, Control_c, 0, 64, 41
2, 80533, Note_on_c, 0, 60, 0
2, 80551, Control_c, 0, 64, 37
2, 80570, Control_c, 0, 64, 35
2, 80589, Control_c, 0, 64, 34
2, 80609, Control_c, 0, 64, 32
2, 80628, Control_c, 0, 64, 29
2, 80647, Control_c, 0, 64, 21
2, 80657, Note_on_c, 0, 64, 0
2, 80666, Control_c, 0, 64, 11
2, 80686, Control_c, 0, 64, 0
2, 80702, Note_on_c, 0, 63, 49
2, 80920, Note_on_c, 0, 63, 0
2, 80967, Note_on_c, 0, 64, 53
2, 81237, Note_on_c, 0, 68, 57
2, 81260, Note_on_c, 0, 59, 41
2, 81361, Note_on_c, 0, 64, 0
2, 81448, Note_on_c, 0, 61, 0
2, 81515, Note_on_c, 0, 73, 58
2, 81540, Note_on_c, 0, 57, 39
2, 81563, Note_on_c, 0, 68, 0
2, 81571, Note_on_c, 0, 59, 0
2, 81789, Note_on_c, 0, 57, 0
2, 81803, Note_on_c, 0, 56, 47
2, 82166, Note_on_c, 0, 57, 34
2, 82178, Note_on_c, 0, 54, 33
2, 82179, Note_on_c, 0, 56, 0
2, 82474, Note_on_c, 0, 71, 51
2, 82625, Note_on_c, 0, 73, 0
2, 82756, Note_on_c, 0, 69, 57
2, 82756, Note_on_c, 0, 71, 0
2, 82992, Note_on_c, 0, 69, 0
2, 83012, Note_on_c, 0, 68, 60
2, 83030, Note_on_c, 0, 57, 0
2, 83030, Note_on_c, 0, 59, 48
2, 83246, Note_on_c, 0, 59, 0
2, 83264, Note_on_c, 0, 68, 0
2, 83297, Note_on_c, 0, 69, 55
2, 83305, Note_on_c, 0, 61, 40
2, 83450, Control_c, 0, 64, 18
2, 83468, Control_c, 0, 64, 39
2, 83488, Control_c, 0, 64, 50
2, 83507, Control_c, 0, 64, 55
2, 83521, Note_on_c, 0, 69, 0
2, 83526, Control_c, 0, 64, 59
2, 83545, Control_c, 0, 64, 62
2, 83565, Control_c, 0, 64, 65
2, 83570, Note_on_c, 0, 66, 57
2, 83584, Control_c, 0, 64, 69
2, 83603, Control_c, 0, 64, 76
2, 83622, Control_c, 0, 64, 86
2, 83629, Note_on_c, 0, 61, 0
2, 83641, Control_c, 0, 64, 99
2, 83660, Control_c, 0, 64, 127
2, 83840, Note_on_c, 0, 78, 62
2, 83859, Note_on_c, 0, 62, 41
2, 83907, Note_on_c, 0, 66, 0
2, 83921, Note_on_c, 0, 62, 0
2, 83934, Note_on_c, 0, 61, 56
2, 83968, Control_c, 0, 64, 123
2, 83987, Control_c, 0, 64, 98
2, 84006, Control_c, 0, 64, 82
2, 84015, Note_on_c, 0, 61, 0
2, 84025, Control_c, 0, 64, 74
2, 84035, Note_on_c, 0, 62, 50
2, 84045, Control_c, 0, 64, 68
2, 84064, Control_c, 0, 64, 65
2, 84083, Control_c, 0, 64, 63
2, 84101, Note_on_c, 0, 76, 65
2, 84102, Control_c, 0, 64, 61
2, 84121, Control_c, 0, 64, 58
2, 84140, Control_c, 0, 64, 53
2, 84159, Control_c, 0, 64, 48
2, 84172, Note_on_c, 0, 78, 0
2, 84179, Control_c, 0, 64, 42
2, 84198, Control_c, 0, 64, 34
2, 84217, Control_c, 0, 64, 25
2, 84231, Note_on_c, 0, 54, 0
2, 84236, Control_c, 0, 64, 18
2, 84256, Control_c, 0, 64, 13
2, 84274, Control_c, 0, 64, 0
2, 84359, Note_on_c, 0, 74, 63
2, 84406, Note_on_c, 0, 76, 0
2, 84606, Note_on_c, 0, 74, 0
2, 84617, Note_on_c, 0, 73, 68
2, 84629, Note_on_c, 0, 52, 56
2, 84862, Note_on_c, 0, 73, 0
2, 84897, Note_on_c, 0, 54, 56
2, 84898, Note_on_c, 0, 74, 66
2, 84918, Note_on_c, 0, 62, 0
2, 84930, Note_on_c, 0, 52, 0
2, 85023, Control_c, 0, 64, 35
2, 85043, Control_c, 0, 64, 46
2, 85062, Control_c, 0, 64, 52
2, 85081, Control_c, 0, 64, 56
2, 85100, Control_c, 0, 64, 60
2, 85119, Control_c, 0, 64, 64
2, 85139, Control_c, 0, 64, 68
2, 85142, Note_on_c, 0, 74, 0
2, 85158, Control_c, 0, 64, 73
2, 85175, Note_on_c, 0, 69, 70
2, 85177, Control_c, 0, 64, 83
2, 85196, Control_c, 0, 64, 100
2, 85216, Control_c, 0, 64, 127
2, 85491, Note_on_c, 0, 81, 75
2, 85536, Note_on_c, 0, 60, 45
2, 85537, Note_on_c, 0, 51, 37
2, 85553, Note_on_c, 0, 54, 0
2, 85637, Control_c, 0, 64, 123
2, 85656, Control_c, 0, 64, 101
2, 85675, Control_c, 0, 64, 85
2, 85695, Control_c, 0, 64, 73
2, 85714, Control_c, 0, 64, 65
2, 85733, Control_c, 0, 64, 57
2, 85752, Control_c, 0, 64, 50
2, 85772, Control_c, 0, 64, 46
2, 85772, Note_on_c, 0, 69, 0
2, 85787, Note_on_c, 0, 80, 73
2, 85790, Control_c, 0, 64, 44
2, 85810, Control_c, 0, 64, 40
2, 85829, Control_c, 0, 64, 36
2, 85849, Control_c, 0, 64, 31
2, 85854, Note_on_c, 0, 81, 0
2, 85867, Control_c, 0, 64, 22
2, 85887, Control_c, 0, 64, 0
2, 86057, Note_on_c, 0, 78, 71
2, 86095, Note_on_c, 0, 80, 0
2, 86295, Note_on_c, 0, 78, 0
2, 86316, Note_on_c, 0, 76, 70
2, 86324, Note_on_c, 0, 54, 61
2, 86388, Note_on_c, 0, 51, 0
2, 86587, Note_on_c, 0, 76, 0
2, 86593, Note_on_c, 0, 78, 77
2, 86604, Note_on_c, 0, 57, 64
2, 86637, Note_on_c, 0, 54, 0
2, 86674, Control_c, 0, 64, 38
2, 86693, Control_c, 0, 64, 50
2, 86712, Control_c, 0, 64, 55
2, 86729, Note_on_c, 0, 60, 0
2, 86732, Control_c, 0, 64, 59
2, 86750, Control_c, 0, 64, 63
2, 86770, Control_c, 0, 64, 66
2, 86789, Control_c, 0, 64, 70
2, 86809, Control_c, 0, 64, 77
2, 86827, Control_c, 0, 64, 88
2, 86845, Note_on_c, 0, 78, 0
2, 86847, Control_c, 0, 64, 102
2, 86866, Control_c, 0, 64, 127
2, 86868, Note_on_c, 0, 75, 77
2, 87223, Note_on_c, 0, 84, 78
2, 87230, Control_c, 0, 64, 117
2, 87247, Note_on_c, 0, 66, 46
2, 87250, Control_c, 0, 64, 82
2, 87269, Control_c, 0, 64, 67
2, 87289, Control_c, 0, 64, 56
2, 87304, Note_on_c, 0, 57, 0
2, 87307, Control_c, 0, 64, 43
2, 87327, Control_c, 0, 64, 48
2, 87346, Control_c, 0, 64, 56
2, 87366, Control_c, 0, 64, 60
2, 87384, Control_c, 0, 64, 63
2, 87404, Control_c, 0, 64, 64
2, 87423, Control_c, 0, 64, 66
2, 87441, Control_c, 0, 64, 68
2, 87461, Control_c, 0, 64, 71
2, 87475, Note_on_c, 0, 66, 0
2, 87480, Control_c, 0, 64, 78
2, 87500, Control_c, 0, 64, 88
2, 87518, Control_c, 0, 64, 102
2, 87538, Control_c, 0, 64, 127
2, 87554, Note_on_c, 0, 56, 67
2, 87822, Note_on_c, 0, 54, 68
2, 87846, Control_c, 0, 64, 106
2, 87859, Note_on_c, 0, 56, 0
2, 87864, Control_c, 0, 64, 89
2, 87884, Control_c, 0, 64, 81
2, 87903, Control_c, 0, 64, 74
2, 87926, Control_c, 0, 64, 69
2, 87945, Control_c, 0, 64, 65
2, 87965, Control_c, 0, 64, 61
2, 87983, Control_c, 0, 64, 56
2, 88002, Control_c, 0, 64, 54
2, 88022, Control_c, 0, 64, 53
2, 88040, Control_c, 0, 64, 52
2, 88060, Control_c, 0, 64, 49
2, 88072, Note_on_c, 0, 54, 0
2, 88079, Control_c, 0, 64, 44
2, 88088, Note_on_c, 0, 52, 70
2, 88099, Control_c, 0, 64, 37
2, 88115, Control_c, 0, 64, 32
2, 88134, Control_c, 0, 64, 27
2, 88153, Control_c, 0, 64, 25
2, 88173, Control_c, 0, 64, 23
2, 88191, Control_c, 0, 64, 22
2, 88211, Control_c, 0, 64, 20
2, 88230, Control_c, 0, 64, 15
2, 88250, Control_c, 0, 64, 9
2, 88268, Control_c, 0, 64, 0
2, 88317, Note_on_c, 0, 52, 0
2, 88359, Note_on_c, 0, 80, 82
2, 88380, Note_on_c, 0, 54, 53
2, 88396, Note_on_c, 0, 84, 0
2, 88537, Control_c, 0, 64, 42
2, 88556, Control_c, 0, 64, 53
2, 88576, Control_c, 0, 64, 57
2, 88595, Control_c, 0, 64, 60
2, 88614, Control_c, 0, 64, 63
2, 88633, Control_c, 0, 64, 66
2, 88647, Note_on_c, 0, 54, 0
2, 88650, Note_on_c, 0, 80, 0
2, 88651, Note_on_c, 0, 51, 59
2, 88653, Control_c, 0, 64, 74
2, 88671, Control_c, 0, 64, 96
2, 88691, Control_c, 0, 64, 127
2, 88977, Note_on_c, 0, 51, 0
2, 89001, Note_on_c, 0, 80, 81
2, 89044, Note_on_c, 0, 52, 45
2, 89095, Control_c, 0, 64, 105
2, 89114, Control_c, 0, 64, 86
2, 89134, Control_c, 0, 64, 76
2, 89152, Control_c, 0, 64, 69
2, 89172, Control_c, 0, 64, 63
2, 89191, Control_c, 0, 64, 58
2, 89211, Control_c, 0, 64, 53
2, 89229, Control_c, 0, 64, 52
2, 89268, Control_c, 0, 64, 51
2, 89287, Control_c, 0, 64, 48
2, 89306, Control_c, 0, 64, 40
2, 89326, Control_c, 0, 64, 26
2, 89332, Note_on_c, 0, 51, 49
2, 89345, Control_c, 0, 64, 9
2, 89364, Control_c, 0, 64, 0
2, 89454, Note_on_c, 0, 52, 0
2, 89601, Note_on_c, 0, 49, 56
2, 89608, Note_on_c, 0, 51, 0
2, 89844, Note_on_c, 0, 76, 61
2, 89849, Note_on_c, 0, 49, 0
2, 89865, Note_on_c, 0, 48, 45
2, 89874, Note_on_c, 0, 75, 0
2, 90086, Note_on_c, 0, 48, 0
2, 90129, Note_on_c, 0, 49, 43
2, 90129, Note_on_c, 0, 72, 67
2, 90171, Note_on_c, 0, 76, 0
2, 90266, Control_c, 0, 64, 9
2, 90286, Control_c, 0, 64, 37
2, 90305, Control_c, 0, 64, 51
2, 90324, Control_c, 0, 64, 58
2, 90343, Control_c, 0, 64, 60
2, 90349, Note_on_c, 0, 49, 0
2, 90362, Control_c, 0, 64, 62
2, 90381, Control_c, 0, 64, 64
2, 90400, Control_c, 0, 64, 66
2, 90420, Control_c, 0, 64, 71
2, 90421, Note_on_c, 0, 45, 49
2, 90439, Control_c, 0, 64, 80
2, 90458, Control_c, 0, 64, 96
2, 90477, Control_c, 0, 64, 127
2, 90536, Note_on_c, 0, 45, 0
2, 90729, Note_on_c, 0, 73, 64
2, 90746, Note_on_c, 0, 57, 43
2, 90794, Note_on_c, 0, 57, 0
2, 90841, Note_on_c, 0, 56, 57
2, 90842, Control_c, 0, 64, 102
2, 90854, Note_on_c, 0, 72, 0
2, 90861, Control_c, 0, 64, 87
2, 90864, Note_on_c, 0, 80, 0
2, 90880, Control_c, 0, 64, 77
2, 90892, Note_on_c, 0, 56, 0
2, 90900, Control_c, 0, 64, 73
2, 90919, Control_c, 0, 64, 71
2, 90928, Note_on_c, 0, 57, 55
2, 90938, Control_c, 0, 64, 70
2, 90957, Control_c, 0, 64, 69
2, 90977, Control_c, 0, 64, 66
2, 90995, Control_c, 0, 64, 63
2, 91014, Control_c, 0, 64, 60
2, 91033, Control_c, 0, 64, 56
2, 91053, Control_c, 0, 64, 50
2, 91068, Note_on_c, 0, 78, 67
2, 91071, Control_c, 0, 64, 43
2, 91091, Control_c, 0, 64, 34
2, 91110, Control_c, 0, 64, 23
2, 91130, Control_c, 0, 64, 9
2, 91148, Control_c, 0, 64, 0
2, 91348, Note_on_c, 0, 76, 68
2, 91425, Note_on_c, 0, 78, 0
2, 91592, Note_on_c, 0, 76, 0
2, 91608, Note_on_c, 0, 75, 69
2, 91851, Note_on_c, 0, 73, 0
2, 91883, Note_on_c, 0, 76, 63
2, 91898, Note_on_c, 0, 75, 0
2, 91953, Control_c, 0, 64, 19
2, 91972, Control_c, 0, 64, 39
2, 91991, Control_c, 0, 64, 48
2, 92011, Control_c, 0, 64, 53
2, 92030, Control_c, 0, 64, 56
2, 92049, Control_c, 0, 64, 58
2, 92068, Control_c, 0, 64, 60
2, 92088, Control_c, 0, 64, 62
2, 92106, Control_c, 0, 64, 63
2, 92126, Control_c, 0, 64, 65
2, 92145, Control_c, 0, 64, 67
2, 92145, Note_on_c, 0, 73, 62
2, 92165, Control_c, 0, 64, 70
2, 92183, Control_c, 0, 64, 74
2, 92202, Control_c, 0, 64, 81
2, 92222, Control_c, 0, 64, 88
2, 92240, Control_c, 0, 64, 94
2, 92260, Control_c, 0, 64, 97
2, 92279, Control_c, 0, 64, 100
2, 92299, Control_c, 0, 64, 103
2, 92317, Control_c, 0, 64, 104
2, 92433, Control_c, 0, 64, 102
2, 92452, Control_c, 0, 64, 99
2, 92464, Note_on_c, 0, 78, 72
2, 92471, Control_c, 0, 64, 96
2, 92491, Control_c, 0, 64, 94
2, 92497, Note_on_c, 0, 76, 0
2, 92510, Control_c, 0, 64, 92
2, 92529, Control_c, 0, 64, 90
2, 92548, Control_c, 0, 64, 85
2, 92568, Control_c, 0, 64, 78
2, 92586, Control_c, 0, 64, 71
2, 92606, Control_c, 0, 64, 67
2, 92625, Control_c, 0, 64, 65
2, 92645, Control_c, 0, 64, 64
2, 92646, Note_on_c, 0, 73, 0
2, 92663, Control_c, 0, 64, 63
2, 92682, Control_c, 0, 64, 62
2, 92702, Control_c, 0, 64, 60
2, 92720, Control_c, 0, 64, 56
2, 92740, Control_c, 0, 64, 50
2, 92759, Control_c, 0, 64, 43
2, 92766, Note_on_c, 0, 56, 53
2, 92779, Control_c, 0, 64, 36
2, 92797, Control_c, 0, 64, 29
2, 92817, Control_c, 0, 64, 24
2, 92836, Control_c, 0, 64, 20
2, 92855, Control_c, 0, 64, 13
2, 92874, Control_c, 0, 64, 0
2, 92935, Note_on_c, 0, 57, 0
2, 93027, Note_on_c, 0, 54, 66
2, 93034, Note_on_c, 0, 56, 0
2, 93292, Note_on_c, 0, 72, 70
2, 93297, Note_on_c, 0, 54, 0
2, 93300, Note_on_c, 0, 52, 49
2, 93547, Note_on_c, 0, 52, 0
2, 93572, Note_on_c, 0, 75, 67
2, 93592, Note_on_c, 0, 54, 51
2, 93630, Note_on_c, 0, 72, 0
2, 93721, Control_c, 0, 64, 29
2, 93740, Control_c, 0, 64, 45
2, 93759, Control_c, 0, 64, 54
2, 93769, Note_on_c, 0, 54, 0
2, 93779, Control_c, 0, 64, 58
2, 93798, Control_c, 0, 64, 60
2, 93817, Control_c, 0, 64, 62
2, 93836, Control_c, 0, 64, 63
2, 93856, Control_c, 0, 64, 64
2, 93857, Note_on_c, 0, 51, 39
2, 93875, Control_c, 0, 64, 65
2, 93894, Control_c, 0, 64, 66
2, 93913, Control_c, 0, 64, 68
2, 93933, Control_c, 0, 64, 71
2, 93951, Control_c, 0, 64, 75
2, 93971, Control_c, 0, 64, 81
2, 93990, Control_c, 0, 64, 87
2, 94010, Control_c, 0, 64, 91
2, 94028, Control_c, 0, 64, 95
2, 94048, Control_c, 0, 64, 100
2, 94067, Control_c, 0, 64, 102
2, 94086, Control_c, 0, 64, 103
2, 94098, Note_on_c, 0, 78, 0
2, 94105, Control_c, 0, 64, 102
2, 94125, Control_c, 0, 64, 102
2, 94125, Note_on_c, 0, 60, 48
2, 94136, Note_on_c, 0, 68, 63
2, 94144, Control_c, 0, 64, 100
2, 94162, Control_c, 0, 64, 96
2, 94182, Control_c, 0, 64, 89
2, 94187, Note_on_c, 0, 60, 0
2, 94188, Note_on_c, 0, 51, 0
2, 94201, Control_c, 0, 64, 81
2, 94220, Control_c, 0, 64, 74
2, 94230, Note_on_c, 0, 75, 0
2, 94238, Note_on_c, 0, 58, 48
2, 94239, Control_c, 0, 64, 69
2, 94259, Control_c, 0, 64, 66
2, 94278, Control_c, 0, 64, 64
2, 94290, Note_on_c, 0, 58, 0
2, 94297, Control_c, 0, 64, 63
2, 94316, Control_c, 0, 64, 62
2, 94326, Note_on_c, 0, 60, 55
2, 94336, Control_c, 0, 64, 62
2, 94355, Control_c, 0, 64, 61
2, 94374, Control_c, 0, 64, 59
2, 94393, Control_c, 0, 64, 58
2, 94413, Control_c, 0, 64, 57
2, 94431, Control_c, 0, 64, 56
2, 94438, Note_on_c, 0, 76, 64
2, 94451, Control_c, 0, 64, 55
2, 94470, Control_c, 0, 64, 52
2, 94490, Control_c, 0, 64, 49
2, 94508, Control_c, 0, 64, 46
2, 94528, Control_c, 0, 64, 43
2, 94547, Control_c, 0, 64, 41
2, 94566, Control_c, 0, 64, 40
2, 94585, Control_c, 0, 64, 39
2, 94605, Control_c, 0, 64, 36
2, 94624, Control_c, 0, 64, 35
2, 94643, Control_c, 0, 64, 32
2, 94663, Control_c, 0, 64, 31
2, 94682, Control_c, 0, 64, 29
2, 94701, Control_c, 0, 64, 27
2, 94720, Control_c, 0, 64, 25
2, 94729, Note_on_c, 0, 75, 66
2, 94740, Control_c, 0, 64, 21
2, 94759, Control_c, 0, 64, 20
2, 94786, Note_on_c, 0, 76, 0
2, 94854, Control_c, 0, 64, 19
2, 94893, Control_c, 0, 64, 18
2, 94911, Control_c, 0, 64, 17
2, 94931, Control_c, 0, 64, 15
2, 94950, Control_c, 0, 64, 11
2, 94970, Control_c, 0, 64, 9
2, 94985, Note_on_c, 0, 73, 67
2, 94988, Control_c, 0, 64, 0
2, 94997, Note_on_c, 0, 75, 0
2, 95258, Note_on_c, 0, 68, 0
2, 95263, Note_on_c, 0, 75, 62
2, 95286, Note_on_c, 0, 73, 0
2, 95411, Control_c, 0, 64, 27
2, 95430, Control_c, 0, 64, 44
2, 95450, Control_c, 0, 64, 52
2, 95468, Control_c, 0, 64, 56
2, 95488, Control_c, 0, 64, 59
2, 95507, Control_c, 0, 64, 61
2, 95526, Control_c, 0, 64, 63
2, 95538, Note_on_c, 0, 68, 56
2, 95545, Control_c, 0, 64, 64
2, 95565, Control_c, 0, 64, 65
2, 95584, Control_c, 0, 64, 66
2, 95602, Control_c, 0, 64, 68
2, 95622, Control_c, 0, 64, 71
2, 95641, Control_c, 0, 64, 75
2, 95660, Control_c, 0, 64, 82
2, 95679, Control_c, 0, 64, 89
2, 95699, Control_c, 0, 64, 96
2, 95718, Control_c, 0, 64, 101
2, 95737, Control_c, 0, 64, 108
2, 95756, Control_c, 0, 64, 117
2, 95776, Control_c, 0, 64, 127
2, 95841, Note_on_c, 0, 75, 0
2, 95858, Note_on_c, 0, 68, 0
2, 95886, Note_on_c, 0, 60, 0
2, 95907, Note_on_c, 0, 76, 73
2, 95909, Control_c, 0, 64, 117
2, 95929, Control_c, 0, 64, 112
2, 95947, Control_c, 0, 64, 110
2, 95957, Note_on_c, 0, 61, 37
2, 95967, Control_c, 0, 64, 106
2, 95986, Control_c, 0, 64, 101
2, 96006, Control_c, 0, 64, 93
2, 96024, Control_c, 0, 64, 85
2, 96043, Control_c, 0, 64, 78
2, 96063, Control_c, 0, 64, 74
2, 96081, Control_c, 0, 64, 72
2, 96101, Control_c, 0, 64, 69
2, 96120, Control_c, 0, 64, 66
2, 96140, Control_c, 0, 64, 63
2, 96158, Control_c, 0, 64, 61
2, 96178, Control_c, 0, 64, 60
2, 96197, Control_c, 0, 64, 59
2, 96216, Control_c, 0, 64, 57
2, 96235, Control_c, 0, 64, 55
2, 96255, Control_c, 0, 64, 52
2, 96259, Note_on_c, 0, 59, 60
2, 96274, Control_c, 0, 64, 49
2, 96291, Note_on_c, 0, 61, 0
2, 96293, Control_c, 0, 64, 47
2, 96312, Control_c, 0, 64, 45
2, 96332, Control_c, 0, 64, 44
2, 96353, Control_c, 0, 64, 42
2, 96372, Control_c, 0, 64, 40
2, 96392, Control_c, 0, 64, 37
2, 96411, Control_c, 0, 64, 35
2, 96430, Control_c, 0, 64, 35
2, 96507, Control_c, 0, 64, 34
2, 96526, Control_c, 0, 64, 34
2, 96533, Note_on_c, 0, 57, 58
2, 96544, Note_on_c, 0, 59, 0
2, 96700, Control_c, 0, 64, 34
2, 96790, Note_on_c, 0, 73, 60
2, 96793, Note_on_c, 0, 57, 0
2, 96800, Note_on_c, 0, 56, 50
2, 97038, Note_on_c, 0, 56, 0
2, 97065, Note_on_c, 0, 66, 53
2, 97072, Note_on_c, 0, 57, 54
2, 97180, Control_c, 0, 64, 34
2, 97219, Control_c, 0, 64, 33
2, 97312, Note_on_c, 0, 57, 0
2, 97333, Control_c, 0, 64, 32
2, 97351, Note_on_c, 0, 68, 54
2, 97352, Note_on_c, 0, 54, 53
2, 97353, Control_c, 0, 64, 32
2, 97358, Note_on_c, 0, 66, 0
2, 97372, Control_c, 0, 64, 31
2, 97430, Control_c, 0, 64, 31
2, 97448, Control_c, 0, 64, 30
2, 97545, Control_c, 0, 64, 28
2, 97564, Control_c, 0, 64, 27
2, 97583, Control_c, 0, 64, 27
2, 97591, Note_on_c, 0, 73, 0
2, 97622, Control_c, 0, 64, 26
2, 97637, Note_on_c, 0, 68, 0
2, 97660, Control_c, 0, 64, 25
2, 97673, Note_on_c, 0, 66, 57
2, 97686, Note_on_c, 0, 69, 49
2, 97745, Note_on_c, 0, 54, 0
2, 97793, Control_c, 0, 64, 29
2, 97812, Control_c, 0, 64, 36
2, 97832, Control_c, 0, 64, 44
2, 97851, Control_c, 0, 64, 50
2, 97870, Control_c, 0, 64, 55
2, 97889, Control_c, 0, 64, 58
2, 97909, Control_c, 0, 64, 61
2, 97928, Control_c, 0, 64, 63
2, 97947, Control_c, 0, 64, 64
2, 97966, Control_c, 0, 64, 65
2, 97967, Note_on_c, 0, 75, 62
2, 97967, Note_on_c, 0, 76, 0
2, 97986, Control_c, 0, 64, 66
2, 98004, Control_c, 0, 64, 68
2, 98024, Control_c, 0, 64, 72
2, 98043, Control_c, 0, 64, 82
2, 98063, Control_c, 0, 64, 93
2, 98081, Control_c, 0, 64, 106
2, 98101, Control_c, 0, 64, 127
2, 98142, Note_on_c, 0, 75, 0
2, 98245, Note_on_c, 0, 76, 64
2, 98369, Control_c, 0, 64, 121
2, 98389, Control_c, 0, 64, 115
2, 98408, Control_c, 0, 64, 108
2, 98427, Control_c, 0, 64, 100
2, 98446, Control_c, 0, 64, 87
2, 98466, Control_c, 0, 64, 77
2, 98485, Control_c, 0, 64, 71
2, 98505, Control_c, 0, 64, 67
2, 98510, Note_on_c, 0, 78, 73
2, 98524, Control_c, 0, 64, 66
2, 98543, Control_c, 0, 64, 64
2, 98562, Control_c, 0, 64, 63
2, 98564, Note_on_c, 0, 76, 0
2, 98582, Control_c, 0, 64, 60
2, 98601, Control_c, 0, 64, 56
2, 98620, Control_c, 0, 64, 52
2, 98639, Control_c, 0, 64, 48
2, 98659, Control_c, 0, 64, 44
2, 98676, Control_c, 0, 64, 40
2, 98694, Control_c, 0, 64, 33
2, 98714, Control_c, 0, 64, 20
2, 98733, Control_c, 0, 64, 0
2, 98780, Note_on_c, 0, 80, 70
2, 98810, Note_on_c, 0, 78, 0
2, 99060, Control_c, 0, 64, 30
2, 99061, Note_on_c, 0, 80, 0
2, 99066, Note_on_c, 0, 69, 0
2, 99079, Control_c, 0, 64, 49
2, 99081, Note_on_c, 0, 81, 68
2, 99099, Control_c, 0, 64, 57
2, 99117, Control_c, 0, 64, 61
2, 99137, Control_c, 0, 64, 63
2, 99156, Control_c, 0, 64, 65
2, 99174, Control_c, 0, 64, 66
2, 99194, Control_c, 0, 64, 69
2, 99213, Control_c, 0, 64, 74
2, 99233, Control_c, 0, 64, 83
2, 99251, Control_c, 0, 64, 99
2, 99271, Control_c, 0, 64, 127
2, 99425, Control_c, 0, 64, 96
2, 99441, Note_on_c, 0, 73, 66
2, 99443, Control_c, 0, 64, 78
2, 99455, Note_on_c, 0, 81, 0
2, 99463, Control_c, 0, 64, 67
2, 99482, Control_c, 0, 64, 63
2, 99484, Note_on_c, 0, 68, 36
2, 99502, Control_c, 0, 64, 63
2, 99520, Control_c, 0, 64, 64
2, 99540, Control_c, 0, 64, 66
2, 99559, Control_c, 0, 64, 69
2, 99579, Control_c, 0, 64, 74
2, 99597, Control_c, 0, 64, 81
2, 99617, Control_c, 0, 64, 88
2, 99635, Control_c, 0, 64, 94
2, 99653, Control_c, 0, 64, 99
2, 99673, Control_c, 0, 64, 104
2, 99674, Note_on_c, 0, 73, 0
2, 99683, Note_on_c, 0, 66, 0
2, 99692, Control_c, 0, 64, 107
2, 99712, Control_c, 0, 64, 108
2, 99730, Control_c, 0, 64, 109
2, 99802, Note_on_c, 0, 72, 61
2, 99805, Note_on_c, 0, 64, 55
2, 99827, Control_c, 0, 64, 108
2, 99846, Control_c, 0, 64, 106
2, 99865, Control_c, 0, 64, 104
2, 99872, Note_on_c, 0, 72, 0
2, 99884, Control_c, 0, 64, 99
2, 99885, Note_on_c, 0, 73, 65
2, 99904, Control_c, 0, 64, 91
2, 99923, Control_c, 0, 64, 82
2, 99942, Control_c, 0, 64, 74
2, 99942, Note_on_c, 0, 73, 0
2, 99961, Control_c, 0, 64, 69
2, 99964, Note_on_c, 0, 72, 63
2, 99981, Control_c, 0, 64, 67
2, 99999, Control_c, 0, 64, 66
2, 100019, Control_c, 0, 64, 65
2, 100033, Note_on_c, 0, 73, 75
2, 100035, Note_on_c, 0, 72, 0
2, 100038, Control_c, 0, 64, 64
2, 100058, Control_c, 0, 64, 63
2, 100076, Control_c, 0, 64, 60
2, 100086, Note_on_c, 0, 63, 67
2, 100090, Note_on_c, 0, 72, 71
2, 100095, Control_c, 0, 64, 57
2, 100103, Note_on_c, 0, 73, 0
2, 100107, Note_on_c, 0, 64, 0
2, 100115, Control_c, 0, 64, 56
2, 100133, Control_c, 0, 64, 54
2, 100153, Control_c, 0, 64, 53
2, 100172, Control_c, 0, 64, 51
2, 100192, Control_c, 0, 64, 48
2, 100210, Control_c, 0, 64, 45
2, 100230, Control_c, 0, 64, 40
2, 100249, Control_c, 0, 64, 35
2, 100268, Control_c, 0, 64, 29
2, 100287, Control_c, 0, 64, 24
2, 100307, Control_c, 0, 64, 19
2, 100326, Control_c, 0, 64, 11
2, 100345, Control_c, 0, 64, 0
2, 100352, Note_on_c, 0, 63, 0
2, 100361, Note_on_c, 0, 73, 80
2, 100367, Note_on_c, 0, 61, 67
2, 100372, Note_on_c, 0, 72, 0
2, 100560, Note_on_c, 0, 61, 0
2, 100610, Note_on_c, 0, 75, 75
2, 100614, Note_on_c, 0, 73, 0
2, 100628, Note_on_c, 0, 60, 57
2, 100691, Control_c, 0, 64, 43
2, 100711, Control_c, 0, 64, 57
2, 100730, Control_c, 0, 64, 62
2, 100732, Note_on_c, 0, 68, 0
2, 100732, Note_on_c, 0, 75, 0
2, 100749, Control_c, 0, 64, 64
2, 100768, Control_c, 0, 64, 66
2, 100788, Control_c, 0, 64, 70
2, 100807, Control_c, 0, 64, 77
2, 100826, Control_c, 0, 64, 89
2, 100845, Control_c, 0, 64, 106
2, 100862, Note_on_c, 0, 60, 0
2, 100865, Control_c, 0, 64, 127
2, 100879, Note_on_c, 0, 58, 70
2, 100991, Note_on_c, 0, 60, 70
2, 101046, Note_on_c, 0, 61, 70
2, 101108, Note_on_c, 0, 63, 76
2, 101114, Control_c, 0, 64, 106
2, 101133, Control_c, 0, 64, 91
2, 101143, Note_on_c, 0, 61, 0
2, 101153, Control_c, 0, 64, 80
2, 101167, Note_on_c, 0, 58, 0
2, 101169, Note_on_c, 0, 66, 73
2, 101171, Control_c, 0, 64, 72
2, 101191, Control_c, 0, 64, 66
2, 101194, Note_on_c, 0, 56, 54
2, 101210, Control_c, 0, 64, 62
2, 101229, Control_c, 0, 64, 60
2, 101248, Control_c, 0, 64, 58
2, 101268, Control_c, 0, 64, 56
2, 101287, Control_c, 0, 64, 54
2, 101306, Control_c, 0, 64, 51
2, 101325, Control_c, 0, 64, 45
2, 101345, Control_c, 0, 64, 37
2, 101363, Control_c, 0, 64, 31
2, 101383, Control_c, 0, 64, 29
2, 101402, Control_c, 0, 64, 27
2, 101422, Control_c, 0, 64, 21
2, 101440, Control_c, 0, 64, 0
2, 101472, Note_on_c, 0, 54, 56
2, 101474, Note_on_c, 0, 56, 0
2, 101715, Note_on_c, 0, 54, 0
2, 101769, Note_on_c, 0, 52, 55
2, 102031, Note_on_c, 0, 51, 50
2, 102034, Note_on_c, 0, 52, 0
2, 102304, Note_on_c, 0, 51, 0
2, 102332, Note_on_c, 0, 49, 40
2, 102384, Control_c, 0, 64, 9
2, 102402, Control_c, 0, 64, 11
2, 102460, Control_c, 0, 64, 13
2, 102479, Control_c, 0, 64, 15
2, 102499, Control_c, 0, 64, 17
2, 102536, Control_c, 0, 64, 19
2, 102556, Control_c, 0, 64, 20
2, 102559, Note_on_c, 0, 49, 0
2, 102575, Control_c, 0, 64, 22
2, 102594, Control_c, 0, 64, 23
2, 102624, Note_on_c, 0, 47, 42
2, 102633, Control_c, 0, 64, 24
2, 102652, Control_c, 0, 64, 25
2, 102767, Control_c, 0, 64, 26
2, 102959, Control_c, 0, 64, 27
2, 102979, Control_c, 0, 64, 28
2, 102987, Note_on_c, 0, 47, 0
2, 102998, Control_c, 0, 64, 29
2, 103006, Note_on_c, 0, 45, 36
2, 103055, Control_c, 0, 64, 29
2, 103235, Note_on_c, 0, 63, 0
2, 103309, Note_on_c, 0, 64, 48
2, 103444, Note_on_c, 0, 66, 0
2, 103458, Control_c, 0, 64, 29
2, 103477, Control_c, 0, 64, 28
2, 103553, Note_on_c, 0, 64, 0
2, 103584, Note_on_c, 0, 60, 0
2, 103592, Control_c, 0, 64, 27
2, 103593, Note_on_c, 0, 63, 45
2, 103630, Control_c, 0, 64, 27
2, 103649, Control_c, 0, 64, 26
2, 103669, Control_c, 0, 64, 25
2, 103707, Control_c, 0, 64, 24
2, 103746, Control_c, 0, 64, 23
2, 103784, Control_c, 0, 64, 22
2, 103823, Control_c, 0, 64, 21
2, 103829, Note_on_c, 0, 63, 0
2, 103835, Note_on_c, 0, 45, 0
2, 103841, Control_c, 0, 64, 20
2, 103846, Note_on_c, 0, 61, 49
2, 103872, Note_on_c, 0, 47, 40
2, 103880, Control_c, 0, 64, 19
2, 103899, Control_c, 0, 64, 18
2, 104105, Note_on_c, 0, 61, 0
2, 104139, Note_on_c, 0, 63, 42
2, 104143, Note_on_c, 0, 44, 34
2, 104160, Note_on_c, 0, 47, 0
2, 104206, Control_c, 0, 64, 19
2, 104226, Control_c, 0, 64, 21
2, 104361, Control_c, 0, 64, 22
2, 104387, Note_on_c, 0, 63, 0
2, 104428, Note_on_c, 0, 60, 42
2, 104709, Note_on_c, 0, 69, 49
2, 104728, Note_on_c, 0, 42, 40
2, 104871, Note_on_c, 0, 44, 0
2, 104917, Note_on_c, 0, 60, 0
2, 104979, Note_on_c, 0, 68, 55
2, 105019, Note_on_c, 0, 69, 0
2, 105128, Control_c, 0, 64, 21
2, 105224, Control_c, 0, 64, 20
2, 105243, Control_c, 0, 64, 19
2, 105265, Note_on_c, 0, 66, 53
2, 105268, Note_on_c, 0, 68, 0
2, 105281, Control_c, 0, 64, 18
2, 105378, Control_c, 0, 64, 17
2, 105454, Control_c, 0, 64, 15
2, 105492, Control_c, 0, 64, 13
2, 105520, Note_on_c, 0, 66, 0
2, 105531, Control_c, 0, 64, 11
2, 105536, Note_on_c, 0, 44, 48
2, 105539, Note_on_c, 0, 64, 51
2, 105568, Note_on_c, 0, 42, 0
2, 105569, Control_c, 0, 64, 9
2, 105627, Control_c, 0, 64, 0
2, 105815, Note_on_c, 0, 64, 0
2, 105822, Note_on_c, 0, 66, 50
2, 105831, Note_on_c, 0, 40, 49
2, 105866, Note_on_c, 0, 44, 0
2, 106074, Note_on_c, 0, 66, 0
2, 106109, Note_on_c, 0, 63, 54
2, 106388, Note_on_c, 0, 72, 59
2, 106429, Note_on_c, 0, 39, 41
2, 106528, Note_on_c, 0, 63, 0
2, 106583, Note_on_c, 0, 40, 0
2, 106686, Note_on_c, 0, 69, 64
2, 106746, Note_on_c, 0, 72, 0
2, 106955, Note_on_c, 0, 68, 71
2, 106981, Note_on_c, 0, 69, 0
2, 107212, Note_on_c, 0, 66, 66
2, 107213, Note_on_c, 0, 68, 0
2, 107220, Note_on_c, 0, 40, 62
2, 107239, Note_on_c, 0, 39, 0
2, 107496, Note_on_c, 0, 68, 68
2, 107497, Note_on_c, 0, 40, 0
2, 107505, Note_on_c, 0, 42, 62
2, 107505, Note_on_c, 0, 66, 0
2, 107747, Note_on_c, 0, 68, 0
2, 107757, Control_c, 0, 64, 27
2, 107776, Control_c, 0, 64, 39
2, 107780, Note_on_c, 0, 63, 65
2, 107796, Control_c, 0, 64, 48
2, 107814, Control_c, 0, 64, 54
2, 107834, Control_c, 0, 64, 57
2, 107853, Control_c, 0, 64, 59
2, 107873, Control_c, 0, 64, 61
2, 107891, Control_c, 0, 64, 62
2, 107911, Control_c, 0, 64, 62
2, 107930, Control_c, 0, 64, 63
2, 107949, Control_c, 0, 64, 64
2, 107968, Control_c, 0, 64, 65
2, 107988, Control_c, 0, 64, 66
2, 108007, Control_c, 0, 64, 67
2, 108026, Control_c, 0, 64, 68
2, 108045, Control_c, 0, 64, 70
2, 108065, Control_c, 0, 64, 73
2, 108079, Note_on_c, 0, 75, 68
2, 108084, Control_c, 0, 64, 76
2, 108093, Note_on_c, 0, 36, 64
2, 108104, Control_c, 0, 64, 78
2, 108123, Control_c, 0, 64, 79
2, 108181, Control_c, 0, 64, 78
2, 108191, Note_on_c, 0, 42, 0
2, 108200, Control_c, 0, 64, 78
2, 108219, Control_c, 0, 64, 77
2, 108238, Control_c, 0, 64, 77
2, 108257, Control_c, 0, 64, 76
2, 108276, Control_c, 0, 64, 74
2, 108294, Control_c, 0, 64, 71
2, 108314, Control_c, 0, 64, 68
2, 108333, Control_c, 0, 64, 66
2, 108346, Note_on_c, 0, 63, 0
2, 108353, Control_c, 0, 64, 65
2, 108368, Note_on_c, 0, 73, 70
2, 108371, Control_c, 0, 64, 64
2, 108391, Control_c, 0, 64, 63
2, 108410, Control_c, 0, 64, 61
2, 108429, Control_c, 0, 64, 60
2, 108448, Control_c, 0, 64, 58
2, 108467, Note_on_c, 0, 75, 0
2, 108468, Control_c, 0, 64, 58
2, 108487, Control_c, 0, 64, 57
2, 108506, Control_c, 0, 64, 57
2, 108525, Control_c, 0, 64, 56
2, 108545, Control_c, 0, 64, 55
2, 108563, Control_c, 0, 64, 54
2, 108583, Control_c, 0, 64, 52
2, 108602, Control_c, 0, 64, 51
2, 108622, Control_c, 0, 64, 51
2, 108632, Note_on_c, 0, 72, 69
2, 108640, Control_c, 0, 64, 50
2, 108660, Control_c, 0, 64, 49
2, 108679, Control_c, 0, 64, 46
2, 108679, Note_on_c, 0, 73, 0
2, 108699, Control_c, 0, 64, 43
2, 108717, Control_c, 0, 64, 38
2, 108736, Control_c, 0, 64, 33
2, 108756, Control_c, 0, 64, 26
2, 108774, Control_c, 0, 64, 15
2, 108794, Control_c, 0, 64, 0
2, 108908, Note_on_c, 0, 70, 72
2, 108918, Note_on_c, 0, 72, 0
2, 108926, Note_on_c, 0, 39, 65
2, 108960, Note_on_c, 0, 36, 0
2, 109189, Note_on_c, 0, 70, 0
2, 109193, Note_on_c, 0, 72, 74
2, 109206, Note_on_c, 0, 42, 67
2, 109238, Note_on_c, 0, 39, 0
2, 109329, Control_c, 0, 64, 41
2, 109348, Control_c, 0, 64, 52
2, 109368, Control_c, 0, 64, 57
2, 109386, Control_c, 0, 64, 60
2, 109405, Control_c, 0, 64, 62
2, 109425, Control_c, 0, 64, 64
2, 109441, Note_on_c, 0, 72, 0
2, 109444, Control_c, 0, 64, 66
2, 109463, Control_c, 0, 64, 68
2, 109473, Note_on_c, 0, 68, 77
2, 109482, Control_c, 0, 64, 71
2, 109502, Control_c, 0, 64, 75
2, 109520, Control_c, 0, 64, 80
2, 109540, Control_c, 0, 64, 85
2, 109559, Control_c, 0, 64, 91
2, 109579, Control_c, 0, 64, 99
2, 109597, Control_c, 0, 64, 112
2, 109617, Control_c, 0, 64, 127
2, 109699, Note_on_c, 0, 42, 0
2, 109830, Note_on_c, 0, 80, 79
2, 109885, Control_c, 0, 64, 104
2, 109896, Note_on_c, 0, 40, 42
2, 109905, Control_c, 0, 64, 90
2, 109924, Control_c, 0, 64, 79
2, 109943, Control_c, 0, 64, 71
2, 109962, Control_c, 0, 64, 64
2, 109982, Control_c, 0, 64, 54
2, 110000, Control_c, 0, 64, 24
2, 110020, Control_c, 0, 64, 0
2, 110116, Control_c, 0, 64, 34
2, 110136, Control_c, 0, 64, 52
2, 110153, Note_on_c, 0, 68, 0
2, 110154, Control_c, 0, 64, 59
2, 110174, Control_c, 0, 64, 62
2, 110193, Control_c, 0, 64, 64
2, 110212, Control_c, 0, 64, 66
2, 110231, Control_c, 0, 64, 68
2, 110251, Control_c, 0, 64, 71
2, 110270, Control_c, 0, 64, 76
2, 110289, Control_c, 0, 64, 81
2, 110293, Note_on_c, 0, 40, 0
2, 110301, Note_on_c, 0, 52, 60
2, 110308, Control_c, 0, 64, 87
2, 110328, Control_c, 0, 64, 94
2, 110346, Control_c, 0, 64, 107
2, 110365, Control_c, 0, 64, 127
2, 110618, Note_on_c, 0, 54, 56
2, 110618, Note_on_c, 0, 78, 70
2, 110626, Note_on_c, 0, 52, 0
2, 110711, Control_c, 0, 64, 119
2, 110731, Control_c, 0, 64, 111
2, 110750, Control_c, 0, 64, 100
2, 110769, Control_c, 0, 64, 89
2, 110788, Control_c, 0, 64, 81
2, 110808, Control_c, 0, 64, 77
2, 110826, Control_c, 0, 64, 76
2, 110845, Control_c, 0, 64, 75
2, 110853, Note_on_c, 0, 80, 0
2, 110865, Control_c, 0, 64, 73
2, 110884, Control_c, 0, 64, 69
2, 110903, Control_c, 0, 64, 66
2, 110907, Note_on_c, 0, 76, 70
2, 110915, Note_on_c, 0, 56, 59
2, 110917, Note_on_c, 0, 54, 0
2, 110922, Control_c, 0, 64, 64
2, 110942, Control_c, 0, 64, 63
2, 110960, Control_c, 0, 64, 63
2, 110975, Note_on_c, 0, 78, 0
2, 110980, Control_c, 0, 64, 62
2, 110999, Control_c, 0, 64, 62
2, 111019, Control_c, 0, 64, 61
2, 111037, Control_c, 0, 64, 60
2, 111057, Control_c, 0, 64, 59
2, 111076, Control_c, 0, 64, 58
2, 111096, Control_c, 0, 64, 58
2, 111114, Control_c, 0, 64, 57
2, 111134, Control_c, 0, 64, 56
2, 111137, Note_on_c, 0, 56, 0
2, 111154, Control_c, 0, 64, 55
2, 111166, Note_on_c, 0, 75, 75
2, 111168, Note_on_c, 0, 76, 0
2, 111173, Control_c, 0, 64, 53
2, 111173, Note_on_c, 0, 57, 54
2, 111192, Control_c, 0, 64, 52
2, 111212, Control_c, 0, 64, 51
2, 111230, Control_c, 0, 64, 50
2, 111250, Control_c, 0, 64, 49
2, 111269, Control_c, 0, 64, 47
2, 111289, Control_c, 0, 64, 45
2, 111307, Control_c, 0, 64, 43
2, 111326, Control_c, 0, 64, 41
2, 111346, Control_c, 0, 64, 41
2, 111403, Control_c, 0, 64, 40
2, 111415, Note_on_c, 0, 75, 0
2, 111439, Note_on_c, 0, 73, 69
2, 111441, Control_c, 0, 64, 40
2, 111456, Note_on_c, 0, 54, 49
2, 111461, Control_c, 0, 64, 39
2, 111500, Control_c, 0, 64, 39
2, 111672, Control_c, 0, 64, 39
2, 111721, Note_on_c, 0, 73, 0
2, 111725, Note_on_c, 0, 54, 0
2, 111726, Note_on_c, 0, 72, 67
2, 111728, Note_on_c, 0, 51, 42
2, 111787, Control_c, 0, 64, 40
2, 111841, Note_on_c, 0, 57, 0
2, 112008, Note_on_c, 0, 73, 71
2, 112016, Note_on_c, 0, 52, 54
2, 112022, Note_on_c, 0, 51, 0
2, 112037, Note_on_c, 0, 72, 0
2, 112040, Control_c, 0, 64, 39
2, 112099, Control_c, 0, 64, 39
2, 112235, Note_on_c, 0, 52, 0
2, 112277, Note_on_c, 0, 75, 70
2, 112300, Note_on_c, 0, 54, 45
2, 112330, Note_on_c, 0, 73, 0
2, 112554, Note_on_c, 0, 78, 65
2, 112573, Note_on_c, 0, 51, 39
2, 112602, Note_on_c, 0, 75, 0
2, 112724, Note_on_c, 0, 54, 0
2, 112746, Control_c, 0, 64, 38
2, 112785, Control_c, 0, 64, 38
2, 112827, Note_on_c, 0, 69, 65
2, 112842, Control_c, 0, 64, 37
2, 112860, Note_on_c, 0, 48, 40
2, 112862, Control_c, 0, 64, 37
2, 112881, Control_c, 0, 64, 36
2, 112901, Control_c, 0, 64, 36
2, 112906, Note_on_c, 0, 78, 0
2, 112947, Note_on_c, 0, 51, 0
2, 113102, Note_on_c, 0, 48, 0
2, 113112, Note_on_c, 0, 49, 68
2, 113348, Note_on_c, 0, 49, 0
2, 113380, Note_on_c, 0, 51, 60
2, 113573, Control_c, 0, 64, 35
2, 113592, Control_c, 0, 64, 34
2, 113612, Control_c, 0, 64, 32
2, 113630, Control_c, 0, 64, 31
2, 113644, Note_on_c, 0, 68, 77
2, 113650, Control_c, 0, 64, 28
2, 113650, Note_on_c, 0, 48, 55
2, 113665, Note_on_c, 0, 51, 0
2, 113669, Control_c, 0, 64, 25
2, 113689, Control_c, 0, 64, 22
2, 113694, Note_on_c, 0, 69, 0
2, 113707, Control_c, 0, 64, 20
2, 113726, Control_c, 0, 64, 13
2, 113746, Control_c, 0, 64, 0
2, 113894, Note_on_c, 0, 48, 0
2, 113912, Note_on_c, 0, 68, 0
2, 113931, Note_on_c, 0, 44, 54
2, 113933, Note_on_c, 0, 69, 70
2, 114070, Control_c, 0, 64, 38
2, 114090, Control_c, 0, 64, 55
2, 114109, Control_c, 0, 64, 60
2, 114127, Control_c, 0, 64, 64
2, 114136, Note_on_c, 0, 69, 0
2, 114147, Control_c, 0, 64, 66
2, 114166, Control_c, 0, 64, 69
2, 114175, Note_on_c, 0, 66, 72
2, 114177, Note_on_c, 0, 44, 0
2, 114186, Control_c, 0, 64, 74
2, 114190, Note_on_c, 0, 46, 58
2, 114204, Control_c, 0, 64, 83
2, 114224, Control_c, 0, 64, 97
2, 114243, Control_c, 0, 64, 127
2, 114283, Note_on_c, 0, 66, 0
2, 114479, Note_on_c, 0, 81, 82
2, 114499, Note_on_c, 0, 46, 0
2, 114515, Note_on_c, 0, 48, 50
2, 114550, Control_c, 0, 64, 102
2, 114570, Control_c, 0, 64, 83
2, 114589, Control_c, 0, 64, 70
2, 114607, Control_c, 0, 64, 64
2, 114627, Control_c, 0, 64, 61
2, 114646, Control_c, 0, 64, 61
2, 114666, Control_c, 0, 64, 59
2, 114684, Control_c, 0, 64, 57
2, 114704, Control_c, 0, 64, 54
2, 114723, Control_c, 0, 64, 50
2, 114742, Control_c, 0, 64, 47
2, 114761, Control_c, 0, 64, 45
2, 114771, Note_on_c, 0, 49, 68
2, 114781, Control_c, 0, 64, 43
2, 114789, Note_on_c, 0, 48, 0
2, 114800, Control_c, 0, 64, 38
2, 114819, Control_c, 0, 64, 29
2, 114838, Control_c, 0, 64, 20
2, 114858, Control_c, 0, 64, 9
2, 114876, Control_c, 0, 64, 0
2, 115065, Note_on_c, 0, 51, 64
2, 115081, Note_on_c, 0, 49, 0
2, 115204, Control_c, 0, 64, 13
2, 115223, Control_c, 0, 64, 15
2, 115298, Note_on_c, 0, 51, 0
2, 115300, Control_c, 0, 64, 18
2, 115319, Control_c, 0, 64, 19
2, 115342, Note_on_c, 0, 52, 60
2, 115357, Control_c, 0, 64, 20
2, 115377, Control_c, 0, 64, 22
2, 115396, Control_c, 0, 64, 25
2, 115416, Control_c, 0, 64, 26
2, 115550, Control_c, 0, 64, 27
2, 115569, Control_c, 0, 64, 27
2, 115588, Control_c, 0, 64, 28
2, 115607, Control_c, 0, 64, 29
2, 115618, Note_on_c, 0, 80, 69
2, 115626, Control_c, 0, 64, 29
2, 115636, Note_on_c, 0, 54, 50
2, 115660, Note_on_c, 0, 52, 0
2, 115782, Note_on_c, 0, 81, 0
2, 115819, Control_c, 0, 64, 30
2, 115896, Note_on_c, 0, 78, 70
2, 115910, Note_on_c, 0, 56, 59
2, 115911, Note_on_c, 0, 54, 0
2, 115956, Note_on_c, 0, 80, 0
2, 116087, Control_c, 0, 64, 29
2, 116106, Control_c, 0, 64, 29
2, 116125, Control_c, 0, 64, 28
2, 116145, Control_c, 0, 64, 27
2, 116164, Control_c, 0, 64, 27
2, 116174, Note_on_c, 0, 56, 0
2, 116183, Control_c, 0, 64, 26
2, 116183, Note_on_c, 0, 76, 68
2, 116183, Note_on_c, 0, 78, 0
2, 116192, Note_on_c, 0, 58, 49
2, 116202, Control_c, 0, 64, 24
2, 116222, Control_c, 0, 64, 22
2, 116240, Control_c, 0, 64, 18
2, 116260, Control_c, 0, 64, 13
2, 116279, Control_c, 0, 64, 0
2, 116394, Control_c, 0, 64, 17
2, 116414, Control_c, 0, 64, 29
2, 116433, Control_c, 0, 64, 43
2, 116444, Note_on_c, 0, 58, 0
2, 116452, Control_c, 0, 64, 52
2, 116465, Note_on_c, 0, 75, 72
2, 116471, Control_c, 0, 64, 58
2, 116491, Control_c, 0, 64, 61
2, 116498, Note_on_c, 0, 76, 0
2, 116500, Note_on_c, 0, 60, 41
2, 116510, Control_c, 0, 64, 63
2, 116529, Control_c, 0, 64, 65
2, 116548, Control_c, 0, 64, 67
2, 116567, Control_c, 0, 64, 69
2, 116586, Control_c, 0, 64, 73
2, 116605, Control_c, 0, 64, 82
2, 116625, Control_c, 0, 64, 94
2, 116644, Control_c, 0, 64, 115
2, 116663, Control_c, 0, 64, 127
2, 116875, Note_on_c, 0, 76, 74
2, 116884, Note_on_c, 0, 60, 0
2, 116905, Note_on_c, 0, 75, 0
2, 116913, Control_c, 0, 64, 99
2, 116914, Note_on_c, 0, 61, 45
2, 116932, Control_c, 0, 64, 80
2, 116951, Control_c, 0, 64, 68
2, 116971, Control_c, 0, 64, 61
2, 116990, Control_c, 0, 64, 52
2, 117009, Control_c, 0, 64, 50
2, 117028, Control_c, 0, 64, 50
2, 117047, Control_c, 0, 64, 53
2, 117066, Control_c, 0, 64, 58
2, 117085, Control_c, 0, 64, 62
2, 117105, Control_c, 0, 64, 64
2, 117124, Control_c, 0, 64, 66
2, 117143, Control_c, 0, 64, 69
2, 117162, Control_c, 0, 64, 72
2, 117182, Control_c, 0, 64, 75
2, 117194, Note_on_c, 0, 61, 0
2, 117200, Control_c, 0, 64, 76
2, 117220, Control_c, 0, 64, 76
2, 117241, Note_on_c, 0, 75, 70
2, 117259, Control_c, 0, 64, 76
2, 117259, Note_on_c, 0, 59, 52
2, 117316, Control_c, 0, 64, 75
2, 117374, Control_c, 0, 64, 74
2, 117393, Control_c, 0, 64, 72
2, 117412, Control_c, 0, 64, 70
2, 117431, Control_c, 0, 64, 66
2, 117451, Control_c, 0, 64, 64
2, 117470, Control_c, 0, 64, 63
2, 117489, Control_c, 0, 64, 62
2, 117496, Note_on_c, 0, 75, 0
2, 117508, Control_c, 0, 64, 61
2, 117525, Note_on_c, 0, 73, 56
2, 117527, Control_c, 0, 64, 60
2, 117540, Note_on_c, 0, 57, 51
2, 117546, Control_c, 0, 64, 59
2, 117556, Note_on_c, 0, 59, 0
2, 117565, Control_c, 0, 64, 58
2, 117585, Control_c, 0, 64, 57
2, 117604, Control_c, 0, 64, 57
2, 117623, Control_c, 0, 64, 56
2, 117642, Control_c, 0, 64, 54
2, 117662, Control_c, 0, 64, 52
2, 117680, Control_c, 0, 64, 50
2, 117700, Control_c, 0, 64, 47
2, 117719, Control_c, 0, 64, 45
2, 117739, Control_c, 0, 64, 41
2, 117757, Control_c, 0, 64, 38
2, 117777, Control_c, 0, 64, 34
2, 117792, Note_on_c, 0, 72, 57
2, 117796, Control_c, 0, 64, 28
2, 117805, Note_on_c, 0, 57, 0
2, 117808, Note_on_c, 0, 73, 0
2, 117816, Control_c, 0, 64, 22
2, 117819, Note_on_c, 0, 56, 55
2, 117834, Control_c, 0, 64, 17
2, 117854, Control_c, 0, 64, 9
2, 117872, Control_c, 0, 64, 0
2, 118074, Note_on_c, 0, 56, 0
2, 118092, Note_on_c, 0, 73, 65
2, 118102, Note_on_c, 0, 57, 54
2, 118132, Note_on_c, 0, 72, 0
2, 118313, Control_c, 0, 64, 30
2, 118333, Control_c, 0, 64, 46
2, 118352, Control_c, 0, 64, 55
2, 118371, Control_c, 0, 64, 59
2, 118382, Note_on_c, 0, 81, 76
2, 118388, Note_on_c, 0, 57, 0
2, 118390, Control_c, 0, 64, 62
2, 118410, Control_c, 0, 64, 64
2, 118411, Note_on_c, 0, 54, 45
2, 118411, Note_on_c, 0, 76, 0
2, 118429, Control_c, 0, 64, 66
2, 118447, Control_c, 0, 64, 69
2, 118453, Note_on_c, 0, 73, 0
2, 118467, Control_c, 0, 64, 73
2, 118486, Control_c, 0, 64, 80
2, 118506, Control_c, 0, 64, 94
2, 118524, Control_c, 0, 64, 127
2, 118599, Note_on_c, 0, 81, 0
2, 118644, Note_on_c, 0, 73, 65
2, 118740, Note_on_c, 0, 75, 76
2, 118880, Note_on_c, 0, 54, 0
2, 118884, Note_on_c, 0, 76, 74
2, 118918, Note_on_c, 0, 75, 0
2, 118924, Note_on_c, 0, 56, 41
2, 119004, Control_c, 0, 64, 93
2, 119024, Control_c, 0, 64, 75
2, 119043, Control_c, 0, 64, 66
2, 119062, Control_c, 0, 64, 60
2, 119081, Control_c, 0, 64, 55
2, 119101, Control_c, 0, 64, 50
2, 119120, Control_c, 0, 64, 42
2, 119139, Control_c, 0, 64, 27
2, 119158, Control_c, 0, 64, 0
2, 119370, Control_c, 0, 64, 23
2, 119389, Control_c, 0, 64, 44
2, 119407, Control_c, 0, 64, 55
2, 119427, Control_c, 0, 64, 60
2, 119446, Control_c, 0, 64, 62
2, 119466, Control_c, 0, 64, 64
2, 119484, Control_c, 0, 64, 65
2, 119504, Control_c, 0, 64, 68
2, 119523, Control_c, 0, 64, 72
2, 119542, Control_c, 0, 64, 78
2, 119561, Control_c, 0, 64, 88
2, 119581, Control_c, 0, 64, 109
2, 119600, Control_c, 0, 64, 127
2, 119941, Note_on_c, 0, 78, 71
2, 119950, Note_on_c, 0, 76, 0
2, 120033, Note_on_c, 0, 73, 0
2, 120234, Note_on_c, 0, 44, 34
2, 120339, Note_on_c, 0, 76, 58
2, 120353, Control_c, 0, 64, 108
2, 120368, Note_on_c, 0, 72, 36
2, 120371, Control_c, 0, 64, 87
2, 120391, Control_c, 0, 64, 75
2, 120394, Note_on_c, 0, 78, 0
2, 120410, Control_c, 0, 64, 68
2, 120424, Note_on_c, 0, 75, 66
2, 120429, Control_c, 0, 64, 64
2, 120434, Note_on_c, 0, 76, 0
2, 120448, Control_c, 0, 64, 62
2, 120468, Control_c, 0, 64, 57
2, 120487, Control_c, 0, 64, 48
2, 120506, Control_c, 0, 64, 34
2, 120507, Note_on_c, 0, 75, 0
2, 120525, Control_c, 0, 64, 0
2, 120531, Note_on_c, 0, 73, 60
2, 120623, Control_c, 0, 67, 8
2, 120635, Note_on_c, 0, 73, 0
2, 120641, Control_c, 0, 67, 13
2, 120655, Note_on_c, 0, 75, 55
2, 120661, Control_c, 0, 67, 21
2, 120680, Control_c, 0, 67, 32
2, 120698, Control_c, 0, 67, 45
2, 120718, Control_c, 0, 64, 23
2, 120718, Control_c, 0, 67, 60
2, 120737, Control_c, 0, 64, 51
2, 120737, Control_c, 0, 67, 75
2, 120757, Control_c, 0, 64, 59
2, 120757, Control_c, 0, 67, 91
2, 120775, Control_c, 0, 64, 63
2, 120775, Control_c, 0, 67, 106
2, 120795, Control_c, 0, 64, 65
2, 120795, Control_c, 0, 67, 125
2, 120814, Control_c, 0, 64, 67
2, 120814, Control_c, 0, 67, 127
2, 120834, Control_c, 0, 64, 71
2, 120852, Control_c, 0, 64, 78
2, 120872, Control_c, 0, 64, 92
2, 120875, Note_on_c, 0, 75, 0
2, 120891, Control_c, 0, 64, 123
2, 120910, Control_c, 0, 64, 127
2, 121247, Note_on_c, 0, 46, 32
2, 121298, Note_on_c, 0, 56, 0
2, 121315, Note_on_c, 0, 44, 0
2, 121320, Note_on_c, 0, 73, 63
2, 121390, Control_c, 0, 64, 99
2, 121409, Control_c, 0, 64, 86
2, 121414, Note_on_c, 0, 72, 0
2, 121429, Control_c, 0, 64, 79
2, 121448, Control_c, 0, 64, 75
2, 121467, Control_c, 0, 64, 72
2, 121486, Control_c, 0, 64, 69
2, 121506, Control_c, 0, 64, 65
2, 121526, Control_c, 0, 64, 64
2, 121546, Control_c, 0, 64, 63
2, 121584, Control_c, 0, 64, 62
2, 121603, Control_c, 0, 64, 61
2, 121623, Control_c, 0, 64, 58
2, 121642, Control_c, 0, 64, 54
2, 121660, Control_c, 0, 64, 50
2, 121680, Control_c, 0, 64, 47
2, 121699, Control_c, 0, 64, 45
2, 121717, Control_c, 0, 64, 43
2, 121735, Control_c, 0, 64, 41
2, 121755, Control_c, 0, 64, 39
2, 121774, Control_c, 0, 64, 36
2, 121794, Control_c, 0, 64, 35
2, 121812, Control_c, 0, 64, 34
2, 121832, Control_c, 0, 64, 33
2, 121851, Control_c, 0, 64, 32
2, 121867, Note_on_c, 0, 71, 46
2, 121870, Control_c, 0, 64, 31
2, 121889, Control_c, 0, 64, 29
2, 121890, Note_on_c, 0, 56, 32
2, 121909, Control_c, 0, 64, 28
2, 121928, Control_c, 0, 64, 27
2, 122081, Control_c, 0, 64, 27
2, 122100, Control_c, 0, 64, 26
2, 122120, Control_c, 0, 64, 25
2, 122164, Note_on_c, 0, 56, 0
2, 122179, Note_on_c, 0, 70, 57
2, 122189, Note_on_c, 0, 71, 0
2, 122205, Note_on_c, 0, 55, 36
2, 122292, Control_c, 0, 64, 24
2, 122369, Control_c, 0, 64, 23
2, 122383, Note_on_c, 0, 55, 0
2, 122446, Note_on_c, 0, 68, 64
2, 122463, Note_on_c, 0, 56, 38
2, 122466, Control_c, 0, 64, 22
2, 122479, Note_on_c, 0, 70, 0
2, 122483, Control_c, 0, 64, 21
2, 122521, Control_c, 0, 64, 20
2, 122617, Control_c, 0, 64, 19
2, 122636, Control_c, 0, 64, 18
2, 122655, Control_c, 0, 64, 15
2, 122670, Note_on_c, 0, 56, 0
2, 122674, Control_c, 0, 64, 9
2, 122693, Control_c, 0, 64, 0
2, 122696, Note_on_c, 0, 68, 0
2, 122727, Note_on_c, 0, 67, 44
2, 122743, Note_on_c, 0, 58, 28
2, 122923, Control_c, 0, 64, 17
2, 122943, Control_c, 0, 64, 41
2, 122962, Control_c, 0, 64, 53
2, 122980, Control_c, 0, 64, 58
2, 122983, Note_on_c, 0, 67, 0
2, 122994, Note_on_c, 0, 58, 0
2, 123000, Control_c, 0, 64, 61
2, 123019, Control_c, 0, 64, 62
2, 123028, Note_on_c, 0, 68, 52
2, 123038, Control_c, 0, 64, 64
2, 123043, Note_on_c, 0, 51, 29
2, 123057, Control_c, 0, 64, 65
2, 123077, Control_c, 0, 64, 66
2, 123096, Control_c, 0, 64, 68
2, 123115, Control_c, 0, 64, 69
2, 123134, Control_c, 0, 64, 71
2, 123154, Control_c, 0, 64, 74
2, 123173, Control_c, 0, 64, 78
2, 123192, Control_c, 0, 64, 83
2, 123201, Note_on_c, 0, 68, 0
2, 123211, Control_c, 0, 64, 86
2, 123231, Control_c, 0, 64, 88
2, 123249, Control_c, 0, 64, 89
2, 123269, Control_c, 0, 64, 89
2, 123288, Control_c, 0, 64, 90
2, 123308, Control_c, 0, 64, 91
2, 123324, Note_on_c, 0, 51, 0
2, 123326, Control_c, 0, 64, 91
2, 123443, Control_c, 0, 64, 91
2, 123463, Control_c, 0, 64, 88
2, 123482, Control_c, 0, 64, 83
2, 123482, Note_on_c, 0, 68, 48
2, 123500, Note_on_c, 0, 52, 34
2, 123502, Control_c, 0, 64, 81
2, 123520, Control_c, 0, 64, 80
2, 123539, Control_c, 0, 64, 78
2, 123559, Control_c, 0, 64, 74
2, 123578, Control_c, 0, 64, 68
2, 123597, Control_c, 0, 64, 62
2, 123616, Control_c, 0, 64, 35
2, 123634, Control_c, 0, 64, 0
2, 123899, Note_on_c, 0, 68, 0
2, 123968, Note_on_c, 0, 67, 32
2, 124209, Control_c, 0, 64, 34
2, 124229, Control_c, 0, 64, 48
2, 124248, Control_c, 0, 64, 58
2, 124268, Control_c, 0, 64, 62
2, 124286, Control_c, 0, 64, 63
2, 124306, Control_c, 0, 64, 65
2, 124325, Control_c, 0, 64, 68
2, 124344, Control_c, 0, 64, 73
2, 124363, Control_c, 0, 64, 82
2, 124383, Control_c, 0, 64, 94
2, 124402, Control_c, 0, 64, 111
2, 124420, Control_c, 0, 64, 127
2, 124534, Note_on_c, 0, 46, 0
2, 124789, Note_on_c, 0, 76, 53
2, 124793, Note_on_c, 0, 73, 0
2, 124822, Note_on_c, 0, 47, 38
2, 125172, Note_on_c, 0, 47, 0
2, 125186, Note_on_c, 0, 75, 62
2, 125223, Note_on_c, 0, 49, 43
2, 125231, Note_on_c, 0, 76, 0
2, 125247, Control_c, 0, 64, 110
2, 125267, Control_c, 0, 64, 90
2, 125286, Control_c, 0, 64, 74
2, 125305, Control_c, 0, 64, 64
2, 125324, Control_c, 0, 64, 52
2, 125344, Control_c, 0, 64, 0
2, 125498, Control_c, 0, 64, 35
2, 125517, Control_c, 0, 64, 49
2, 125536, Control_c, 0, 64, 55
2, 125556, Control_c, 0, 64, 59
2, 125571, Note_on_c, 0, 67, 0
2, 125574, Control_c, 0, 64, 61
2, 125594, Control_c, 0, 64, 64
2, 125613, Control_c, 0, 64, 67
2, 125633, Control_c, 0, 64, 71
2, 125651, Control_c, 0, 64, 78
2, 125671, Control_c, 0, 64, 89
2, 125690, Control_c, 0, 64, 102
2, 125709, Control_c, 0, 64, 127
2, 125830, Note_on_c, 0, 52, 0
2, 126002, Note_on_c, 0, 49, 0
2, 126067, Note_on_c, 0, 76, 60
2, 126120, Note_on_c, 0, 75, 0
2, 126128, Note_on_c, 0, 43, 31
2, 126228, Control_c, 0, 64, 90
2, 126247, Control_c, 0, 64, 74
2, 126266, Control_c, 0, 64, 64
2, 126285, Control_c, 0, 64, 56
2, 126305, Control_c, 0, 64, 50
2, 126323, Control_c, 0, 64, 50
2, 126343, Control_c, 0, 64, 49
2, 126362, Control_c, 0, 64, 48
2, 126382, Control_c, 0, 64, 44
2, 126400, Control_c, 0, 64, 38
2, 126419, Control_c, 0, 64, 29
2, 126439, Control_c, 0, 64, 19
2, 126458, Control_c, 0, 64, 13
2, 126477, Control_c, 0, 64, 11
2, 126599, Note_on_c, 0, 68, 50
2, 126605, Note_on_c, 0, 51, 36
2, 126765, Control_c, 0, 64, 13
2, 126785, Control_c, 0, 64, 15
2, 126803, Control_c, 0, 64, 17
2, 126842, Control_c, 0, 64, 18
2, 126899, Note_on_c, 0, 68, 0
2, 126903, Note_on_c, 0, 70, 51
2, 126934, Note_on_c, 0, 49, 43
2, 126938, Note_on_c, 0, 51, 0
2, 126976, Control_c, 0, 64, 19
2, 126996, Control_c, 0, 64, 20
2, 127034, Control_c, 0, 64, 21
2, 127180, Note_on_c, 0, 68, 61
2, 127188, Note_on_c, 0, 47, 46
2, 127188, Note_on_c, 0, 70, 0
2, 127199, Note_on_c, 0, 49, 0
2, 127341, Control_c, 0, 64, 20
2, 127360, Control_c, 0, 64, 18
2, 127379, Control_c, 0, 64, 17
2, 127399, Control_c, 0, 64, 13
2, 127435, Note_on_c, 0, 47, 0
2, 127437, Control_c, 0, 64, 11
2, 127459, Note_on_c, 0, 68, 0
2, 127470, Note_on_c, 0, 71, 65
2, 127477, Note_on_c, 0, 49, 50
2, 127514, Control_c, 0, 64, 20
2, 127533, Control_c, 0, 64, 32
2, 127553, Control_c, 0, 64, 44
2, 127571, Control_c, 0, 64, 51
2, 127591, Control_c, 0, 64, 55
2, 127610, Control_c, 0, 64, 58
2, 127629, Control_c, 0, 64, 60
2, 127648, Control_c, 0, 64, 61
2, 127668, Control_c, 0, 64, 63
2, 127687, Control_c, 0, 64, 64
2, 127691, Note_on_c, 0, 49, 0
2, 127706, Control_c, 0, 64, 66
2, 127725, Control_c, 0, 64, 70
2, 127737, Note_on_c, 0, 71, 0
2, 127743, Note_on_c, 0, 70, 74
2, 127745, Control_c, 0, 64, 78
2, 127749, Note_on_c, 0, 52, 49
2, 127763, Control_c, 0, 64, 94
2, 127783, Control_c, 0, 64, 112
2, 127802, Control_c, 0, 64, 127
2, 127853, Note_on_c, 0, 70, 0
2, 128068, Note_on_c, 0, 52, 0
2, 128188, Note_on_c, 0, 70, 54
2, 128212, Note_on_c, 0, 55, 38
2, 128244, Control_c, 0, 64, 100
2, 128264, Control_c, 0, 64, 81
2, 128283, Control_c, 0, 64, 69
2, 128303, Control_c, 0, 64, 57
2, 128321, Control_c, 0, 64, 37
2, 128340, Control_c, 0, 64, 0
2, 128511, Note_on_c, 0, 76, 0
2, 128569, Control_c, 0, 64, 31
2, 128589, Control_c, 0, 64, 49
2, 128607, Control_c, 0, 64, 56
2, 128627, Control_c, 0, 64, 59
2, 128646, Control_c, 0, 64, 62
2, 128665, Control_c, 0, 64, 63
2, 128684, Control_c, 0, 64, 65
2, 128684, Control_c, 0, 67, 119
2, 128704, Control_c, 0, 64, 67
2, 128704, Control_c, 0, 67, 109
2, 128723, Control_c, 0, 64, 74
2, 128723, Control_c, 0, 67, 96
2, 128741, Control_c, 0, 64, 86
2, 128741, Control_c, 0, 67, 83
2, 128761, Control_c, 0, 64, 110
2, 128761, Control_c, 0, 67, 69
2, 128780, Control_c, 0, 64, 127
2, 128780, Control_c, 0, 67, 55
2, 128799, Control_c, 0, 67, 46
2, 128813, Note_on_c, 0, 43, 0
2, 128818, Control_c, 0, 67, 38
2, 128838, Control_c, 0, 67, 31
2, 128857, Control_c, 0, 67, 25
2, 128876, Control_c, 0, 67, 20
2, 128895, Control_c, 0, 67, 15
2, 128915, Control_c, 0, 67, 10
2, 128933, Control_c, 0, 67, 0
2, 129243, Note_on_c, 0, 72, 64
2, 129277, Note_on_c, 0, 44, 48
2, 129606, Control_c, 0, 64, 107
2, 129625, Control_c, 0, 64, 97
2, 129629, Note_on_c, 0, 73, 67
2, 129644, Control_c, 0, 64, 90
2, 129646, Note_on_c, 0, 46, 50
2, 129661, Note_on_c, 0, 72, 0
2, 129664, Control_c, 0, 64, 83
2, 129683, Control_c, 0, 64, 74
2, 129698, Note_on_c, 0, 44, 0
2, 129701, Control_c, 0, 64, 66
2, 129721, Control_c, 0, 64, 59
2, 129740, Control_c, 0, 64, 45
2, 129748, Note_on_c, 0, 70, 0
2, 129749, Note_on_c, 0, 55, 0
2, 129759, Control_c, 0, 64, 22
2, 129778, Control_c, 0, 64, 0
2, 129952, Control_c, 0, 64, 37
2, 129970, Control_c, 0, 64, 53
2, 129990, Control_c, 0, 64, 59
2, 130009, Control_c, 0, 64, 61
2, 130029, Control_c, 0, 64, 63
2, 130047, Control_c, 0, 64, 65
2, 130067, Control_c, 0, 64, 66
2, 130086, Control_c, 0, 64, 70
2, 130105, Control_c, 0, 64, 76
2, 130124, Control_c, 0, 64, 90
2, 130144, Control_c, 0, 64, 127
2, 130707, Note_on_c, 0, 79, 72
2, 130760, Note_on_c, 0, 39, 45
2, 130873, Control_c, 0, 64, 98
2, 130892, Control_c, 0, 64, 79
2, 130905, Note_on_c, 0, 73, 0
2, 130912, Control_c, 0, 64, 68
2, 130930, Control_c, 0, 64, 64
2, 130950, Control_c, 0, 64, 61
2, 130969, Control_c, 0, 64, 60
2, 130973, Note_on_c, 0, 46, 0
2, 130989, Control_c, 0, 64, 59
2, 131007, Control_c, 0, 64, 58
2, 131027, Control_c, 0, 64, 56
2, 131046, Control_c, 0, 64, 54
2, 131065, Control_c, 0, 64, 54
2, 131084, Control_c, 0, 64, 53
2, 131104, Control_c, 0, 64, 52
2, 131123, Control_c, 0, 64, 50
2, 131141, Control_c, 0, 64, 48
2, 131161, Control_c, 0, 64, 46
2, 131180, Control_c, 0, 64, 44
2, 131199, Control_c, 0, 64, 42
2, 131218, Control_c, 0, 64, 42
2, 131257, Control_c, 0, 64, 41
2, 131276, Control_c, 0, 64, 41
2, 131295, Control_c, 0, 64, 39
2, 131314, Control_c, 0, 64, 38
2, 131332, Note_on_c, 0, 75, 53
2, 131333, Control_c, 0, 64, 37
2, 131352, Control_c, 0, 64, 36
2, 131371, Control_c, 0, 64, 35
2, 131602, Control_c, 0, 64, 35
2, 131689, Note_on_c, 0, 75, 0
2, 131709, Note_on_c, 0, 76, 51
2, 131755, Control_c, 0, 64, 34
2, 131774, Control_c, 0, 64, 32
2, 131794, Control_c, 0, 64, 32
2, 131889, Control_c, 0, 64, 31
2, 131909, Control_c, 0, 64, 29
2, 131928, Control_c, 0, 64, 26
2, 131948, Control_c, 0, 64, 21
2, 131966, Control_c, 0, 64, 19
2, 132005, Control_c, 0, 64, 18
2, 132013, Note_on_c, 0, 75, 61
2, 132024, Control_c, 0, 64, 17
2, 132062, Control_c, 0, 64, 15
2, 132083, Note_on_c, 0, 76, 0
2, 132100, Control_c, 0, 64, 18
2, 132120, Control_c, 0, 64, 19
2, 132139, Control_c, 0, 64, 20
2, 132159, Control_c, 0, 64, 24
2, 132177, Control_c, 0, 64, 34
2, 132197, Control_c, 0, 64, 46
2, 132216, Control_c, 0, 64, 54
2, 132235, Control_c, 0, 64, 58
2, 132254, Control_c, 0, 64, 60
2, 132274, Control_c, 0, 64, 63
2, 132284, Note_on_c, 0, 39, 0
2, 132293, Control_c, 0, 64, 64
2, 132295, Note_on_c, 0, 73, 56
2, 132312, Control_c, 0, 64, 66
2, 132331, Control_c, 0, 64, 68
2, 132351, Control_c, 0, 64, 71
2, 132369, Control_c, 0, 64, 77
2, 132389, Control_c, 0, 64, 87
2, 132408, Control_c, 0, 64, 96
2, 132416, Note_on_c, 0, 75, 0
2, 132428, Control_c, 0, 64, 110
2, 132446, Control_c, 0, 64, 127
2, 132584, Note_on_c, 0, 71, 62
2, 132602, Note_on_c, 0, 73, 0
2, 132868, Note_on_c, 0, 70, 64
2, 133003, Control_c, 0, 64, 104
2, 133022, Control_c, 0, 64, 96
2, 133042, Control_c, 0, 64, 93
2, 133060, Control_c, 0, 64, 91
2, 133080, Control_c, 0, 64, 88
2, 133099, Control_c, 0, 64, 83
2, 133119, Control_c, 0, 64, 77
2, 133133, Note_on_c, 0, 68, 67
2, 133137, Control_c, 0, 64, 73
2, 133157, Control_c, 0, 64, 71
2, 133176, Control_c, 0, 64, 70
2, 133178, Note_on_c, 0, 70, 0
2, 133195, Control_c, 0, 64, 70
2, 133202, Note_on_c, 0, 71, 0
2, 133214, Control_c, 0, 64, 68
2, 133234, Control_c, 0, 64, 67
2, 133253, Control_c, 0, 64, 64
2, 133272, Control_c, 0, 64, 62
2, 133291, Control_c, 0, 64, 58
2, 133311, Control_c, 0, 64, 55
2, 133329, Control_c, 0, 64, 52
2, 133349, Control_c, 0, 64, 49
2, 133368, Control_c, 0, 64, 45
2, 133388, Control_c, 0, 64, 38
2, 133388, Note_on_c, 0, 68, 0
2, 133405, Note_on_c, 0, 67, 70
2, 133406, Control_c, 0, 64, 24
2, 133426, Control_c, 0, 64, 0
2, 133674, Note_on_c, 0, 67, 0
2, 133689, Note_on_c, 0, 65, 65
2, 133929, Note_on_c, 0, 65, 0
2, 133973, Note_on_c, 0, 80, 80
2, 134003, Note_on_c, 0, 79, 0
2, 134008, Note_on_c, 0, 72, 56
2, 134010, Note_on_c, 0, 66, 48
2, 134040, Control_c, 0, 64, 32
2, 134059, Control_c, 0, 64, 47
2, 134079, Control_c, 0, 64, 56
2, 134097, Control_c, 0, 64, 60
2, 134117, Control_c, 0, 64, 62
2, 134136, Control_c, 0, 64, 64
2, 134155, Control_c, 0, 64, 66
2, 134174, Control_c, 0, 64, 69
2, 134195, Control_c, 0, 64, 78
2, 134213, Control_c, 0, 64, 108
2, 134233, Control_c, 0, 64, 127
2, 134269, Note_on_c, 0, 80, 0
2, 134293, Note_on_c, 0, 63, 66
2, 134311, Note_on_c, 0, 66, 0
2, 134312, Note_on_c, 0, 72, 0
2, 134690, Note_on_c, 0, 63, 0
2, 134706, Note_on_c, 0, 73, 78
2, 134768, Note_on_c, 0, 64, 37
2, 134829, Control_c, 0, 64, 112
2, 134847, Control_c, 0, 64, 89
2, 134867, Control_c, 0, 64, 78
2, 134886, Control_c, 0, 64, 72
2, 134905, Control_c, 0, 64, 69
2, 134924, Control_c, 0, 64, 67
2, 134944, Control_c, 0, 64, 65
2, 134963, Control_c, 0, 64, 63
2, 134981, Control_c, 0, 64, 61
2, 135001, Control_c, 0, 64, 59
2, 135020, Control_c, 0, 64, 57
2, 135039, Control_c, 0, 64, 55
2, 135058, Control_c, 0, 64, 54
2, 135078, Control_c, 0, 64, 53
2, 135097, Control_c, 0, 64, 51
2, 135116, Control_c, 0, 64, 47
2, 135127, Note_on_c, 0, 71, 61
2, 135135, Control_c, 0, 64, 43
2, 135145, Note_on_c, 0, 63, 45
2, 135155, Control_c, 0, 64, 38
2, 135173, Control_c, 0, 64, 36
2, 135193, Control_c, 0, 64, 35
2, 135212, Control_c, 0, 64, 34
2, 135232, Control_c, 0, 64, 33
2, 135250, Control_c, 0, 64, 31
2, 135253, Note_on_c, 0, 64, 0
2, 135270, Control_c, 0, 64, 30
2, 135289, Control_c, 0, 64, 29
2, 135309, Control_c, 0, 64, 28
2, 135327, Control_c, 0, 64, 27
2, 135420, Note_on_c, 0, 69, 59
2, 135437, Note_on_c, 0, 61, 55
2, 135439, Note_on_c, 0, 63, 0
2, 135443, Control_c, 0, 64, 27
2, 135482, Note_on_c, 0, 71, 0
2, 135615, Control_c, 0, 64, 27
2, 135645, Note_on_c, 0, 61, 0
2, 135690, Note_on_c, 0, 68, 66
2, 135715, Note_on_c, 0, 59, 50
2, 135735, Note_on_c, 0, 69, 0
2, 135750, Control_c, 0, 64, 28
2, 135846, Control_c, 0, 64, 29
2, 135968, Note_on_c, 0, 68, 0
2, 135974, Note_on_c, 0, 66, 59
2, 135979, Note_on_c, 0, 57, 50
2, 136028, Note_on_c, 0, 59, 0
2, 136230, Note_on_c, 0, 57, 0
2, 136246, Note_on_c, 0, 69, 59
2, 136262, Note_on_c, 0, 66, 0
2, 136283, Note_on_c, 0, 54, 44
2, 136514, Note_on_c, 0, 54, 0
2, 136556, Control_c, 0, 64, 28
2, 136562, Note_on_c, 0, 64, 47
2, 136580, Note_on_c, 0, 56, 43
2, 136585, Note_on_c, 0, 69, 0
2, 136633, Control_c, 0, 64, 30
2, 136652, Control_c, 0, 64, 32
2, 136672, Control_c, 0, 64, 35
2, 136690, Control_c, 0, 64, 40
2, 136710, Control_c, 0, 64, 45
2, 136729, Control_c, 0, 64, 49
2, 136749, Control_c, 0, 64, 52
2, 136767, Control_c, 0, 64, 54
2, 136787, Control_c, 0, 64, 55
2, 136806, Control_c, 0, 64, 56
2, 136825, Control_c, 0, 64, 57
2, 136844, Control_c, 0, 64, 58
2, 136844, Control_c, 0, 67, 8
2, 136859, Note_on_c, 0, 51, 46
2, 136864, Control_c, 0, 64, 59
2, 136864, Control_c, 0, 67, 12
2, 136883, Control_c, 0, 67, 17
2, 136899, Note_on_c, 0, 56, 0
2, 136901, Control_c, 0, 64, 58
2, 136901, Control_c, 0, 67, 24
2, 136921, Control_c, 0, 64, 56
2, 136921, Control_c, 0, 67, 33
2, 136940, Control_c, 0, 64, 54
2, 136940, Control_c, 0, 67, 42
2, 136959, Control_c, 0, 64, 51
2, 136959, Control_c, 0, 67, 51
2, 136978, Control_c, 0, 64, 48
2, 136978, Control_c, 0, 67, 61
2, 136998, Control_c, 0, 64, 46
2, 136998, Control_c, 0, 67, 72
2, 137017, Control_c, 0, 64, 45
2, 137017, Control_c, 0, 67, 83
2, 137036, Control_c, 0, 64, 45
2, 137036, Control_c, 0, 67, 94
2, 137055, Control_c, 0, 67, 107
2, 137075, Control_c, 0, 64, 44
2, 137075, Control_c, 0, 67, 119
2, 137092, Note_on_c, 0, 51, 0
2, 137093, Control_c, 0, 67, 127
2, 137113, Control_c, 0, 64, 45
2, 137132, Control_c, 0, 64, 47
2, 137152, Control_c, 0, 64, 51
2, 137155, Note_on_c, 0, 52, 49
2, 137170, Control_c, 0, 64, 54
2, 137190, Control_c, 0, 64, 57
2, 137209, Control_c, 0, 64, 60
2, 137229, Control_c, 0, 64, 62
2, 137247, Control_c, 0, 64, 64
2, 137267, Control_c, 0, 64, 66
2, 137286, Control_c, 0, 64, 68
2, 137305, Control_c, 0, 64, 70
2, 137324, Control_c, 0, 64, 72
2, 137343, Control_c, 0, 64, 75
2, 137363, Control_c, 0, 64, 78
2, 137381, Control_c, 0, 64, 81
2, 137401, Control_c, 0, 64, 83
2, 137420, Control_c, 0, 64, 83
2, 137439, Control_c, 0, 64, 82
2, 137453, Note_on_c, 0, 73, 0
2, 137458, Control_c, 0, 64, 80
2, 137470, Note_on_c, 0, 75, 71
2, 137471, Note_on_c, 0, 64, 0
2, 137478, Control_c, 0, 64, 76
2, 137497, Control_c, 0, 64, 71
2, 137498, Note_on_c, 0, 52, 0
2, 137503, Note_on_c, 0, 49, 42
2, 137514, Note_on_c, 0, 66, 28
2, 137516, Control_c, 0, 64, 64
2, 137535, Control_c, 0, 64, 58
2, 137555, Control_c, 0, 64, 52
2, 137573, Control_c, 0, 64, 46
2, 137593, Control_c, 0, 64, 45
2, 137612, Control_c, 0, 64, 49
2, 137632, Control_c, 0, 64, 56
2, 137650, Control_c, 0, 64, 62
2, 137670, Control_c, 0, 64, 64
2, 137689, Control_c, 0, 64, 66
2, 137709, Control_c, 0, 64, 69
2, 137727, Control_c, 0, 64, 73
2, 137747, Control_c, 0, 64, 76
2, 137766, Control_c, 0, 64, 79
2, 137785, Control_c, 0, 64, 81
2, 137794, Note_on_c, 0, 66, 0
2, 137804, Control_c, 0, 64, 85
2, 137823, Control_c, 0, 64, 90
2, 137842, Control_c, 0, 64, 94
2, 137854, Note_on_c, 0, 49, 0
2, 137860, Control_c, 0, 64, 98
2, 137880, Control_c, 0, 64, 99
2, 137913, Note_on_c, 0, 72, 59
2, 137919, Control_c, 0, 64, 98
2, 137937, Control_c, 0, 64, 97
2, 137950, Note_on_c, 0, 63, 29
2, 137957, Control_c, 0, 64, 96
2, 137958, Note_on_c, 0, 44, 34
2, 137961, Note_on_c, 0, 75, 0
2, 137976, Control_c, 0, 64, 92
2, 137995, Control_c, 0, 64, 85
2, 138014, Control_c, 0, 64, 76
2, 138034, Control_c, 0, 64, 68
2, 138053, Control_c, 0, 64, 63
2, 138072, Control_c, 0, 64, 59
2, 138091, Control_c, 0, 64, 54
2, 138111, Control_c, 0, 64, 46
2, 138129, Control_c, 0, 64, 28
2, 138149, Control_c, 0, 64, 0
2, 138245, Control_c, 0, 64, 34
2, 138263, Control_c, 0, 64, 48
2, 138283, Control_c, 0, 64, 56
2, 138302, Control_c, 0, 64, 59
2, 138322, Control_c, 0, 64, 61
2, 138340, Control_c, 0, 64, 63
2, 138360, Control_c, 0, 64, 65
2, 138379, Control_c, 0, 64, 67
2, 138382, Note_on_c, 0, 66, 49
2, 138397, Note_on_c, 0, 56, 35
2, 138399, Control_c, 0, 64, 69
2, 138417, Control_c, 0, 64, 73
2, 138437, Control_c, 0, 64, 78
2, 138456, Control_c, 0, 64, 88
2, 138473, Note_on_c, 0, 63, 0
2, 138475, Control_c, 0, 64, 109
2, 138494, Control_c, 0, 64, 127
2, 138605, Note_on_c, 0, 66, 0
2, 138723, Note_on_c, 0, 72, 0
2, 138741, Note_on_c, 0, 56, 0
2, 138951, Note_on_c, 0, 44, 0
2, 139006, Note_on_c, 0, 49, 37
2, 139124, Note_on_c, 0, 73, 70
2, 139172, Note_on_c, 0, 61, 26
2, 139205, Control_c, 0, 64, 114
2, 139223, Control_c, 0, 64, 99
2, 139243, Control_c, 0, 64, 86
2, 139262, Control_c, 0, 64, 75
2, 139282, Control_c, 0, 64, 66
2, 139300, Control_c, 0, 64, 59
2, 139320, Control_c, 0, 64, 48
2, 139339, Control_c, 0, 64, 31
2, 139359, Control_c, 0, 64, 0
2, 139493, Control_c, 0, 64, 19
2, 139512, Control_c, 0, 64, 43
2, 139531, Control_c, 0, 64, 54
2, 139551, Control_c, 0, 64, 58
2, 139569, Control_c, 0, 64, 61
2, 139589, Control_c, 0, 64, 63
2, 139608, Control_c, 0, 64, 65
2, 139628, Control_c, 0, 64, 66
2, 139646, Control_c, 0, 64, 68
2, 139666, Control_c, 0, 64, 70
2, 139685, Control_c, 0, 64, 73
2, 139703, Control_c, 0, 64, 80
2, 139723, Control_c, 0, 64, 93
2, 139736, Note_on_c, 0, 68, 64
2, 139742, Control_c, 0, 64, 114
2, 139762, Control_c, 0, 64, 127
2, 140009, Note_on_c, 0, 68, 0
2, 140167, Note_on_c, 0, 69, 53
2, 140215, Note_on_c, 0, 54, 28
2, 140222, Control_c, 0, 64, 113
2, 140242, Control_c, 0, 64, 87
2, 140260, Control_c, 0, 64, 73
2, 140280, Control_c, 0, 64, 63
2, 140299, Control_c, 0, 64, 50
2, 140319, Control_c, 0, 64, 26
2, 140337, Control_c, 0, 64, 0
2, 140395, Control_c, 0, 64, 9
2, 140414, Control_c, 0, 64, 39
2, 140434, Control_c, 0, 64, 52
2, 140453, Control_c, 0, 64, 58
2, 140472, Control_c, 0, 64, 61
2, 140491, Control_c, 0, 64, 63
2, 140511, Control_c, 0, 64, 65
2, 140529, Control_c, 0, 64, 66
2, 140549, Control_c, 0, 64, 69
2, 140568, Control_c, 0, 64, 72
2, 140588, Control_c, 0, 64, 76
2, 140606, Control_c, 0, 64, 82
2, 140608, Note_on_c, 0, 61, 0
2, 140615, Note_on_c, 0, 66, 49
2, 140626, Control_c, 0, 64, 91
2, 140645, Control_c, 0, 64, 105
2, 140663, Control_c, 0, 64, 127
2, 140782, Note_on_c, 0, 54, 0
2, 140791, Note_on_c, 0, 66, 0
2, 141259, Note_on_c, 0, 63, 37
2, 141306, Note_on_c, 0, 57, 30
2, 141336, Control_c, 0, 64, 96
2, 141355, Control_c, 0, 64, 76
2, 141374, Control_c, 0, 64, 64
2, 141394, Control_c, 0, 64, 58
2, 141413, Control_c, 0, 64, 52
2, 141432, Control_c, 0, 64, 43
2, 141451, Control_c, 0, 64, 27
2, 141471, Control_c, 0, 64, 0
2, 141509, Control_c, 0, 64, 21
2, 141528, Control_c, 0, 64, 43
2, 141548, Control_c, 0, 64, 57
2, 141566, Control_c, 0, 64, 61
2, 141585, Note_on_c, 0, 69, 0
2, 141586, Control_c, 0, 64, 63
2, 141605, Control_c, 0, 64, 65
2, 141623, Control_c, 0, 64, 66
2, 141643, Control_c, 0, 64, 69
2, 141662, Control_c, 0, 64, 73
2, 141683, Control_c, 0, 64, 77
2, 141701, Control_c, 0, 64, 82
2, 141721, Control_c, 0, 64, 91
2, 141740, Control_c, 0, 64, 105
2, 141759, Control_c, 0, 64, 127
2, 141979, Note_on_c, 0, 73, 0
2, 142237, Note_on_c, 0, 72, 44
2, 142392, Control_c, 0, 64, 121
2, 142411, Control_c, 0, 64, 95
2, 142431, Control_c, 0, 64, 76
2, 142449, Control_c, 0, 64, 65
2, 142469, Control_c, 0, 64, 57
2, 142488, Control_c, 0, 64, 51
2, 142508, Control_c, 0, 64, 49
2, 142526, Control_c, 0, 64, 48
2, 142546, Control_c, 0, 64, 49
2, 142583, Control_c, 0, 64, 50
2, 142603, Control_c, 0, 64, 53
2, 142622, Control_c, 0, 64, 58
2, 142642, Control_c, 0, 64, 62
2, 142660, Control_c, 0, 64, 64
2, 142680, Control_c, 0, 64, 67
2, 142699, Control_c, 0, 64, 70
2, 142719, Control_c, 0, 64, 75
2, 142737, Control_c, 0, 64, 81
2, 142757, Control_c, 0, 64, 86
2, 142776, Control_c, 0, 64, 91
2, 142795, Control_c, 0, 64, 96
2, 142814, Control_c, 0, 64, 108
2, 142835, Control_c, 0, 64, 127
2, 142959, Note_on_c, 0, 57, 0
2, 143013, Note_on_c, 0, 63, 0
2, 143233, Note_on_c, 0, 72, 0
2, 144253, Note_on_c, 0, 73, 47
2, 144295, Note_on_c, 0, 56, 33
2, 144296, Note_on_c, 0, 68, 33
2, 144321, Note_on_c, 0, 65, 22
2, 144429, Control_c, 0, 64, 112
2, 144447, Control_c, 0, 64, 99
2, 144467, Control_c, 0, 64, 90
2, 144486, Control_c, 0, 64, 81
2, 144504, Control_c, 0, 64, 73
2, 144524, Control_c, 0, 64, 67
2, 144543, Control_c, 0, 64, 65
2, 144563, Control_c, 0, 64, 64
2, 144581, Control_c, 0, 64, 63
2, 144601, Control_c, 0, 64, 62
2, 144620, Control_c, 0, 64, 61
2, 144639, Control_c, 0, 64, 57
2, 144658, Control_c, 0, 64, 50
2, 144678, Control_c, 0, 64, 41
2, 144697, Control_c, 0, 64, 34
2, 144716, Control_c, 0, 64, 29
2, 144735, Control_c, 0, 64, 27
2, 144755, Control_c, 0, 64, 24
2, 144773, Control_c, 0, 64, 19
2, 144793, Control_c, 0, 64, 0
2, 145023, Control_c, 0, 64, 9
2, 145043, Control_c, 0, 64, 27
2, 145061, Control_c, 0, 64, 41
2, 145081, Control_c, 0, 64, 52
2, 145100, Control_c, 0, 64, 56
2, 145119, Control_c, 0, 64, 58
2, 145138, Control_c, 0, 64, 59
2, 145158, Control_c, 0, 64, 61
2, 145177, Control_c, 0, 64, 62
2, 145196, Control_c, 0, 64, 63
2, 145215, Control_c, 0, 64, 63
2, 145235, Control_c, 0, 64, 64
2, 145253, Control_c, 0, 64, 65
2, 145273, Control_c, 0, 64, 67
2, 145292, Control_c, 0, 64, 68
2, 145312, Control_c, 0, 64, 70
2, 145330, Control_c, 0, 64, 72
2, 145350, Control_c, 0, 64, 74
2, 145369, Control_c, 0, 64, 76
2, 145389, Control_c, 0, 64, 77
2, 145407, Control_c, 0, 64, 80
2, 145427, Control_c, 0, 64, 84
2, 145446, Control_c, 0, 64, 88
2, 145464, Control_c, 0, 64, 92
2, 145484, Control_c, 0, 64, 97
2, 145503, Control_c, 0, 64, 104
2, 145523, Control_c, 0, 64, 110
2, 145541, Control_c, 0, 64, 121
2, 145561, Control_c, 0, 64, 127
2, 146618, Note_on_c, 0, 49, 0
2, 146779, Note_on_c, 0, 65, 0
2, 147097, Note_on_c, 0, 56, 0
2, 147114, Note_on_c, 0, 68, 0
2, 147115, Note_on_c, 0, 73, 0
2, 147268, Control_c, 0, 64, 123
2, 147287, Control_c, 0, 64, 117
2, 147307, Control_c, 0, 64, 116
2, 147364, Control_c, 0, 64, 115
2, 147383, Control_c, 0, 64, 112
2, 147402, Control_c, 0, 64, 110
2, 147421, Control_c, 0, 64, 109
2, 147459, Control_c, 0, 64, 108
2, 147479, Control_c, 0, 64, 107
2, 147498, Control_c, 0, 64, 104
2, 147518, Control_c, 0, 64, 102
2, 147556, Control_c, 0, 64, 102
2, 147594, Control_c, 0, 64, 101
2, 147613, Control_c, 0, 64, 99
2, 147633, Control_c, 0, 64, 97
2, 147710, Control_c, 0, 64, 97
2, 147729, Control_c, 0, 64, 96
2, 147748, Control_c, 0, 64, 95
2, 147767, Control_c, 0, 64, 95
2, 147824, Control_c, 0, 64, 94
2, 147844, Control_c, 0, 64, 91
2, 147863, Control_c, 0, 64, 90
2, 147959, Control_c, 0, 64, 90
2, 147978, Control_c, 0, 64, 89
2, 148036, Control_c, 0, 64, 88
2, 148055, Control_c, 0, 64, 87
2, 148074, Control_c, 0, 64, 86
2, 148151, Control_c, 0, 64, 86
2, 148170, Control_c, 0, 64, 85
2, 148190, Control_c, 0, 64, 83
2, 148267, Control_c, 0, 64, 83
2, 148285, Control_c, 0, 64, 82
2, 148304, Control_c, 0, 64, 82
2, 148381, Control_c, 0, 64, 81
2, 148459, Control_c, 0, 64, 81
2, 148517, Control_c, 0, 64, 79
2, 148536, Control_c, 0, 64, 78
2, 148613, Control_c, 0, 64, 78
2, 148651, Control_c, 0, 64, 77
2, 148748, Control_c, 0, 64, 77
2, 148823, Control_c, 0, 64, 76
2, 148882, Control_c, 0, 64, 76
2, 148977, Control_c, 0, 64, 75
2, 148997, Control_c, 0, 64, 74
2, 149112, Control_c, 0, 64, 74
2, 149228, Control_c, 0, 64, 73
2, 149246, Control_c, 0, 64, 72
2, 149362, Control_c, 0, 64, 72
2, 149400, Control_c, 0, 64, 71
2, 149610, Control_c, 0, 64, 71
2, 149630, Control_c, 0, 64, 70
2, 149783, Control_c, 0, 64, 70
2, 149821, Control_c, 0, 64, 69
2, 149918, Control_c, 0, 64, 69
2, 149956, Control_c, 0, 64, 68
2, 150033, Control_c, 0, 64, 68
2, 150071, Control_c, 0, 64, 67
2, 150167, Control_c, 0, 64, 67
2, 150205, Control_c, 0, 64, 66
2, 150378, Control_c, 0, 64, 66
2, 150762, Control_c, 0, 64, 65
2, 150916, Control_c, 0, 64, 65
2, 151050, Control_c, 0, 64, 64
2, 151165, Control_c, 0, 64, 64
2, 151204, Control_c, 0, 64, 63
2, 151223, Control_c, 0, 64, 63
2, 151282, Control_c, 0, 64, 62
2, 151300, Control_c, 0, 64, 62
2, 151320, Control_c, 0, 64, 61
2, 151339, Control_c, 0, 64, 61
2, 151359, Control_c, 0, 64, 60
2, 151377, Control_c, 0, 64, 59
2, 151397, Control_c, 0, 64, 58
2, 151416, Control_c, 0, 64, 56
2, 151435, Control_c, 0, 64, 56
2, 151454, Control_c, 0, 64, 55
2, 151474, Control_c, 0, 64, 55
2, 151493, Control_c, 0, 64, 54
2, 151512, Control_c, 0, 64, 54
2, 151551, Control_c, 0, 64, 53
2, 151569, Control_c, 0, 64, 52
2, 151589, Control_c, 0, 64, 51
2, 151608, Control_c, 0, 64, 49
2, 151628, Control_c, 0, 64, 47
2, 151646, Control_c, 0, 64, 45
2, 151665, Control_c, 0, 64, 44
2, 151685, Control_c, 0, 64, 43
2, 151703, Control_c, 0, 64, 42
2, 151723, Control_c, 0, 64, 39
2, 151742, Control_c, 0, 64, 38
2, 151762, Control_c, 0, 64, 37
2, 151780, Control_c, 0, 64, 36
2, 151800, Control_c, 0, 64, 36
2, 151819, Control_c, 0, 64, 35
2, 151839, Control_c, 0, 64, 33
2, 151857, Control_c, 0, 64, 32
2, 151877, Control_c, 0, 64, 31
2, 152108, Control_c, 0, 64, 32
2, 152145, Control_c, 0, 64, 32
2, 152183, Control_c, 0, 64, 33
2, 152203, Control_c, 0, 64, 34
2, 152243, Control_c, 0, 64, 34
2, 152281, Control_c, 0, 64, 35
2, 152300, Control_c, 0, 64, 35
2, 152319, Control_c, 0, 64, 36
2, 152358, Control_c, 0, 64, 36
2, 152435, Control_c, 0, 64, 37
2, 152473, Control_c, 0, 64, 37
2, 152492, Control_c, 0, 64, 38
2, 152530, Control_c, 0, 64, 38
2, 152550, Control_c, 0, 64, 39
2, 152626, Control_c, 0, 64, 39
2, 152664, Control_c, 0, 64, 40
2, 152799, Control_c, 0, 64, 40
2, 152838, Control_c, 0, 64, 41
2, 152972, Control_c, 0, 64, 41
2, 153020,End_track
0, 0, End_of_file
