0, 0, Header, 1, 2, 384
1, 0, Start_track
1, 0, Tempo, 500000
1, 0, Time_signature, 4, 2, 24, 8
1, 1, End_track
2,0,Start_track
2,0, Note_on_c, 0, 49, 40
2,61, Note_on_c, 0, 49, 0
2,80, Note_on_c, 0, 48, 47
2,162, Note_on_c, 0, 48, 0
2,190, Note_on_c, 0, 49, 57
2,250, Note_on_c, 0, 49, 0
2,279, Note_on_c, 0, 51, 55
2,348, Note_on_c, 0, 51, 0
2,375, Note_on_c, 0, 49, 55
2,422, Note_on_c, 0, 49, 0
2,441, Note_on_c, 0, 51, 46
2,481, Note_on_c, 0, 51, 0
2,553, Note_on_c, 0, 44, 61
2,646, Note_on_c, 0, 46, 63
2,658, Note_on_c, 0, 44, 0
2,715, Note_on_c, 0, 46, 0
2,738, Note_on_c, 0, 48, 57
2,779, Note_on_c, 0, 48, 0
2,836, Note_on_c, 0, 49, 56
2,907, Note_on_c, 0, 49, 0
2,924, Note_on_c, 0, 51, 56
2,988, Note_on_c, 0, 51, 0
2,1019, Note_on_c, 0, 52, 63
2,1059, Note_on_c, 0, 52, 0
2,1125, Note_on_c, 0, 54, 55
2,1193, Note_on_c, 0, 54, 0
2,1211, Note_on_c, 0, 52, 54
2,1276, Note_on_c, 0, 52, 0
2,1306, Note_on_c, 0, 54, 57
2,1363, Note_on_c, 0, 54, 0
2,1404, Note_on_c, 0, 51, 53
2,1454, Note_on_c, 0, 51, 0
2,1471, Note_on_c, 0, 56, 59
2,1535, Note_on_c, 0, 56, 0
2,1538, Control_c, 0, 67, 127
2,1554, Control_c, 0, 67, 122
2,1566, Note_on_c, 0, 54, 55
2,1569, Control_c, 0, 67, 117
2,1585, Control_c, 0, 67, 112
2,1600, Control_c, 0, 67, 106
2,1615, Control_c, 0, 67, 101
2,1630, Control_c, 0, 67, 95
2,1645, Control_c, 0, 67, 90
2,1649, Note_on_c, 0, 54, 0
2,1659, Note_on_c, 0, 68, 66
2,1661, Control_c, 0, 67, 82
2,1673, Note_on_c, 0, 52, 49
2,1676, Control_c, 0, 67, 74
2,1698, Control_c, 0, 67, 65
2,1713, Control_c, 0, 67, 58
2,1722, Note_on_c, 0, 52, 0
2,1728, Control_c, 0, 67, 52
2,1742, Note_on_c, 0, 68, 0
2,1744, Control_c, 0, 67, 47
2,1756, Note_on_c, 0, 67, 66
2,1759, Control_c, 0, 67, 43
2,1765, Note_on_c, 0, 51, 30
2,1774, Control_c, 0, 67, 41
2,1790, Control_c, 0, 67, 39
2,1805, Control_c, 0, 67, 38
2,1808, Note_on_c, 0, 51, 0
2,1808, Note_on_c, 0, 67, 0
2,1821, Control_c, 0, 67, 35
2,1830, Note_on_c, 0, 52, 53
2,1836, Control_c, 0, 67, 33
2,1848, Note_on_c, 0, 68, 65
2,1851, Control_c, 0, 67, 30
2,1866, Control_c, 0, 67, 26
2,1881, Control_c, 0, 67, 23
2,1896, Control_c, 0, 67, 18
2,1912, Control_c, 0, 67, 13
2,1925, Note_on_c, 0, 52, 0
2,1927, Control_c, 0, 67, 0
2,1943, Note_on_c, 0, 68, 0
2,1947, Note_on_c, 0, 49, 42
2,1952, Note_on_c, 0, 70, 65
2,2031, Note_on_c, 0, 70, 0
2,2046, Note_on_c, 0, 68, 59
2,2128, Note_on_c, 0, 70, 63
2,2141, Note_on_c, 0, 68, 0
2,2199, Note_on_c, 0, 70, 0
2,2230, Note_on_c, 0, 63, 69
2,2267, Note_on_c, 0, 63, 0
2,2319, Note_on_c, 0, 65, 66
2,2336, Note_on_c, 0, 49, 0
2,2400, Note_on_c, 0, 65, 0
2,2413, Note_on_c, 0, 67, 69
2,2489, Note_on_c, 0, 67, 0
2,2513, Note_on_c, 0, 68, 73
2,2529, Note_on_c, 0, 47, 57
2,2589, Note_on_c, 0, 70, 76
2,2604, Note_on_c, 0, 47, 0
2,2606, Note_on_c, 0, 68, 0
2,2659, Note_on_c, 0, 70, 0
2,2710, Note_on_c, 0, 71, 59
2,2755, Note_on_c, 0, 71, 0
2,2786, Note_on_c, 0, 73, 80
2,2792, Note_on_c, 0, 46, 59
2,2844, Note_on_c, 0, 46, 0
2,2866, Note_on_c, 0, 73, 0
2,2885, Note_on_c, 0, 71, 71
2,2961, Note_on_c, 0, 71, 0
2,2978, Note_on_c, 0, 73, 66
2,3047, Note_on_c, 0, 73, 0
2,3081, Note_on_c, 0, 70, 68
2,3095, Note_on_c, 0, 55, 51
2,3131, Note_on_c, 0, 55, 0
2,3167, Note_on_c, 0, 70, 0
2,3173, Note_on_c, 0, 75, 63
2,3264, Note_on_c, 0, 75, 0
2,3269, Note_on_c, 0, 73, 71
2,3340, Note_on_c, 0, 73, 0
2,3383, Note_on_c, 0, 71, 64
2,3400, Note_on_c, 0, 44, 54
2,3428, Note_on_c, 0, 44, 0
2,3477, Note_on_c, 0, 70, 62
2,3486, Note_on_c, 0, 71, 0
2,3567, Note_on_c, 0, 70, 0
2,3587, Note_on_c, 0, 71, 62
2,3648, Note_on_c, 0, 71, 0
2,3682, Note_on_c, 0, 68, 68
2,3690, Note_on_c, 0, 52, 71
2,3759, Note_on_c, 0, 68, 0
2,3774, Note_on_c, 0, 73, 65
2,3866, Note_on_c, 0, 73, 0
2,3875, Note_on_c, 0, 71, 60
2,3972, Note_on_c, 0, 69, 66
2,3972, Note_on_c, 0, 71, 0
2,4067, Note_on_c, 0, 68, 64
2,4068, Note_on_c, 0, 69, 0
2,4161, Note_on_c, 0, 68, 0
2,4173, Note_on_c, 0, 69, 65
2,4198, Note_on_c, 0, 52, 0
2,4227, Note_on_c, 0, 69, 0
2,4276, Note_on_c, 0, 66, 63
2,4289, Note_on_c, 0, 51, 57
2,4306, Note_on_c, 0, 66, 0
2,4380, Note_on_c, 0, 71, 49
2,4403, Note_on_c, 0, 51, 0
2,4454, Note_on_c, 0, 71, 0
2,4455, Note_on_c, 0, 69, 70
2,4492, Note_on_c, 0, 69, 0
2,4574, Note_on_c, 0, 68, 63
2,4577, Note_on_c, 0, 61, 68
2,4602, Note_on_c, 0, 52, 49
2,4642, Note_on_c, 0, 61, 0
2,4652, Note_on_c, 0, 60, 69
2,4657, Note_on_c, 0, 52, 0
2,4700, Note_on_c, 0, 68, 0
2,4716, Note_on_c, 0, 60, 0
2,4753, Note_on_c, 0, 61, 71
2,4836, Note_on_c, 0, 61, 0
2,4856, Note_on_c, 0, 66, 68
2,4862, Note_on_c, 0, 63, 71
2,4872, Note_on_c, 0, 48, 59
2,4923, Note_on_c, 0, 48, 0
2,4952, Note_on_c, 0, 61, 69
2,4955, Note_on_c, 0, 63, 0
2,5034, Note_on_c, 0, 63, 67
2,5041, Note_on_c, 0, 61, 0
2,5129, Note_on_c, 0, 63, 0
2,5139, Note_on_c, 0, 56, 71
2,5145, Note_on_c, 0, 49, 69
2,5177, Note_on_c, 0, 49, 0
2,5214, Note_on_c, 0, 56, 0
2,5227, Note_on_c, 0, 58, 68
2,5300, Note_on_c, 0, 58, 0
2,5328, Note_on_c, 0, 60, 62
2,5363, Note_on_c, 0, 60, 0
2,5385, Note_on_c, 0, 66, 0
2,5431, Note_on_c, 0, 61, 76
2,5437, Note_on_c, 0, 64, 57
2,5509, Note_on_c, 0, 64, 0
2,5535, Note_on_c, 0, 63, 65
2,5623, Note_on_c, 0, 63, 0
2,5639, Note_on_c, 0, 64, 60
2,5677, Note_on_c, 0, 64, 0
2,5734, Note_on_c, 0, 66, 68
2,5815, Note_on_c, 0, 66, 0
2,5831, Note_on_c, 0, 64, 62
2,5888, Note_on_c, 0, 61, 0
2,5893, Note_on_c, 0, 64, 0
2,5924, Note_on_c, 0, 66, 71
2,5955, Note_on_c, 0, 66, 0
2,6022, Note_on_c, 0, 75, 79
2,6034, Note_on_c, 0, 63, 58
2,6053, Note_on_c, 0, 60, 50
2,6112, Note_on_c, 0, 63, 0
2,6117, Note_on_c, 0, 68, 68
2,6140, Note_on_c, 0, 75, 0
2,6187, Note_on_c, 0, 60, 0
2,6210, Note_on_c, 0, 66, 65
2,6215, Note_on_c, 0, 68, 0
2,6269, Note_on_c, 0, 66, 0
2,6327, Note_on_c, 0, 68, 78
2,6335, Note_on_c, 0, 64, 65
2,6348, Note_on_c, 0, 61, 59
2,6371, Note_on_c, 0, 64, 0
2,6429, Note_on_c, 0, 63, 62
2,6469, Note_on_c, 0, 68, 0
2,6498, Note_on_c, 0, 61, 0
2,6528, Note_on_c, 0, 63, 0
2,6533, Note_on_c, 0, 64, 63
2,6569, Note_on_c, 0, 64, 0
2,6633, Note_on_c, 0, 69, 82
2,6648, Note_on_c, 0, 61, 60
2,6654, Note_on_c, 0, 54, 57
2,6696, Note_on_c, 0, 61, 0
2,6740, Note_on_c, 0, 66, 66
2,6764, Note_on_c, 0, 54, 0
2,6836, Note_on_c, 0, 64, 63
2,6918, Note_on_c, 0, 64, 0
2,6935, Note_on_c, 0, 66, 0
2,6944, Note_on_c, 0, 63, 66
2,6956, Note_on_c, 0, 59, 54
2,7016, Note_on_c, 0, 59, 0
2,7020, Note_on_c, 0, 63, 0
2,7043, Note_on_c, 0, 61, 58
2,7106, Note_on_c, 0, 61, 0
2,7134, Note_on_c, 0, 69, 0
2,7157, Note_on_c, 0, 63, 61
2,7220, Note_on_c, 0, 63, 0
2,7264, Note_on_c, 0, 68, 64
2,7274, Note_on_c, 0, 59, 52
2,7276, Note_on_c, 0, 52, 51
2,7318, Note_on_c, 0, 52, 0
2,7336, Note_on_c, 0, 59, 0
2,7360, Note_on_c, 0, 64, 56
2,7440, Note_on_c, 0, 64, 0
2,7460, Note_on_c, 0, 63, 53
2,7540, Note_on_c, 0, 63, 0
2,7559, Note_on_c, 0, 61, 53
2,7576, Note_on_c, 0, 57, 51
2,7653, Note_on_c, 0, 63, 53
2,7684, Note_on_c, 0, 61, 0
2,7730, Note_on_c, 0, 68, 0
2,7735, Note_on_c, 0, 63, 0
2,7740, Note_on_c, 0, 64, 56
2,7844, Note_on_c, 0, 64, 0
2,7846, Note_on_c, 0, 66, 55
2,7891, Note_on_c, 0, 63, 43
2,7956, Note_on_c, 0, 63, 0
2,7974, Note_on_c, 0, 64, 48
2,8027, Note_on_c, 0, 57, 0
2,8057, Note_on_c, 0, 61, 40
2,8066, Note_on_c, 0, 64, 0
2,8146, Note_on_c, 0, 61, 0
2,8160, Note_on_c, 0, 66, 0
2,8176, Note_on_c, 0, 60, 53
2,8185, Note_on_c, 0, 56, 40
2,8281, Note_on_c, 0, 68, 54
2,8372, Note_on_c, 0, 69, 66
2,8380, Note_on_c, 0, 68, 0
2,8463, Note_on_c, 0, 69, 0
2,8482, Note_on_c, 0, 68, 74
2,8567, Note_on_c, 0, 68, 0
2,8575, Note_on_c, 0, 69, 70
2,8613, Note_on_c, 0, 56, 0
2,8664, Note_on_c, 0, 69, 0
2,8678, Note_on_c, 0, 66, 73
2,8716, Note_on_c, 0, 60, 0
2,8742, Note_on_c, 0, 66, 0
2,8794, Note_on_c, 0, 64, 67
2,8846, Note_on_c, 0, 54, 44
2,8934, Note_on_c, 0, 54, 0
2,8968, Note_on_c, 0, 56, 50
2,9016, Note_on_c, 0, 56, 0
2,9079, Note_on_c, 0, 61, 70
2,9081, Note_on_c, 0, 64, 0
2,9084, Note_on_c, 0, 52, 57
2,9161, Note_on_c, 0, 52, 0
2,9170, Note_on_c, 0, 57, 59
2,9246, Note_on_c, 0, 57, 0
2,9265, Note_on_c, 0, 56, 55
2,9384, Note_on_c, 0, 56, 0
2,9392, Note_on_c, 0, 54, 53
2,9399, Note_on_c, 0, 63, 81
2,9467, Note_on_c, 0, 54, 0
2,9495, Note_on_c, 0, 52, 51
2,9578, Note_on_c, 0, 52, 0
2,9592, Note_on_c, 0, 54, 61
2,9678, Note_on_c, 0, 54, 0
2,9708, Note_on_c, 0, 60, 73
2,9724, Note_on_c, 0, 51, 51
2,9724, Note_on_c, 0, 63, 0
2,9739, Note_on_c, 0, 61, 0
2,9817, Note_on_c, 0, 56, 56
2,9823, Note_on_c, 0, 51, 0
2,9886, Note_on_c, 0, 60, 0
2,9890, Note_on_c, 0, 56, 0
2,9903, Note_on_c, 0, 54, 52
2,10000, Note_on_c, 0, 54, 0
2,10006, Note_on_c, 0, 68, 75
2,10009, Note_on_c, 0, 61, 68
2,10023, Note_on_c, 0, 52, 51
2,10100, Note_on_c, 0, 66, 78
2,10104, Note_on_c, 0, 52, 0
2,10106, Note_on_c, 0, 68, 0
2,10112, Note_on_c, 0, 51, 55
2,10206, Note_on_c, 0, 51, 0
2,10207, Note_on_c, 0, 68, 79
2,10208, Note_on_c, 0, 66, 0
2,10223, Note_on_c, 0, 52, 63
2,10304, Note_on_c, 0, 52, 0
2,10311, Note_on_c, 0, 49, 68
2,10313, Note_on_c, 0, 64, 72
2,10324, Note_on_c, 0, 68, 0
2,10403, Note_on_c, 0, 69, 75
2,10408, Note_on_c, 0, 54, 60
2,10414, Note_on_c, 0, 64, 0
2,10420, Note_on_c, 0, 49, 0
2,10466, Note_on_c, 0, 54, 0
2,10469, Note_on_c, 0, 61, 0
2,10510, Note_on_c, 0, 68, 74
2,10523, Note_on_c, 0, 69, 0
2,10543, Note_on_c, 0, 52, 21
2,10607, Note_on_c, 0, 52, 0
2,10609, Note_on_c, 0, 66, 65
2,10613, Note_on_c, 0, 68, 0
2,10623, Note_on_c, 0, 51, 68
2,10652, Note_on_c, 0, 51, 0
2,10698, Note_on_c, 0, 66, 0
2,10716, Note_on_c, 0, 64, 58
2,10816, Note_on_c, 0, 64, 0
2,10829, Note_on_c, 0, 66, 57
2,10943, Note_on_c, 0, 66, 0
2,10944, Note_on_c, 0, 59, 69
2,10946, Note_on_c, 0, 56, 57
2,10949, Note_on_c, 0, 63, 60
2,10978, Note_on_c, 0, 56, 0
2,11042, Note_on_c, 0, 68, 62
2,11064, Note_on_c, 0, 63, 0
2,11147, Note_on_c, 0, 66, 54
2,11232, Note_on_c, 0, 68, 0
2,11234, Note_on_c, 0, 49, 57
2,11261, Note_on_c, 0, 65, 65
2,11296, Note_on_c, 0, 66, 0
2,11349, Note_on_c, 0, 65, 0
2,11363, Note_on_c, 0, 63, 56
2,11436, Note_on_c, 0, 63, 0
2,11442, Note_on_c, 0, 61, 63
2,11462, Note_on_c, 0, 59, 0
2,11474, Note_on_c, 0, 61, 0
2,11523, Note_on_c, 0, 49, 0
2,11554, Note_on_c, 0, 66, 70
2,11560, Note_on_c, 0, 57, 66
2,11648, Note_on_c, 0, 57, 0
2,11656, Note_on_c, 0, 56, 65
2,11740, Note_on_c, 0, 56, 0
2,11756, Note_on_c, 0, 54, 66
2,11786, Note_on_c, 0, 54, 0
2,11852, Note_on_c, 0, 56, 69
2,11951, Note_on_c, 0, 47, 65
2,11977, Note_on_c, 0, 66, 0
2,12026, Note_on_c, 0, 47, 0
2,12059, Note_on_c, 0, 49, 64
2,12116, Note_on_c, 0, 49, 0
2,12158, Note_on_c, 0, 64, 73
2,12162, Note_on_c, 0, 44, 69
2,12250, Note_on_c, 0, 44, 0
2,12250, Note_on_c, 0, 49, 73
2,12343, Note_on_c, 0, 49, 0
2,12346, Note_on_c, 0, 47, 75
2,12467, Note_on_c, 0, 47, 0
2,12471, Note_on_c, 0, 54, 60
2,12474, Note_on_c, 0, 46, 74
2,12480, Note_on_c, 0, 56, 0
2,12554, Note_on_c, 0, 46, 0
2,12569, Note_on_c, 0, 44, 70
2,12667, Note_on_c, 0, 42, 75
2,12688, Note_on_c, 0, 44, 0
2,12756, Note_on_c, 0, 42, 0
2,12792, Note_on_c, 0, 47, 80
2,12795, Note_on_c, 0, 64, 0
2,12798, Note_on_c, 0, 63, 65
2,12826, Note_on_c, 0, 54, 0
2,12897, Note_on_c, 0, 61, 59
2,12897, Note_on_c, 0, 63, 0
2,12983, Note_on_c, 0, 61, 0
2,12997, Note_on_c, 0, 59, 56
2,13084, Note_on_c, 0, 59, 0
2,13122, Note_on_c, 0, 61, 53
2,13142, Note_on_c, 0, 52, 52
2,13192, Note_on_c, 0, 52, 0
2,13237, Note_on_c, 0, 51, 50
2,13290, Note_on_c, 0, 51, 0
2,13341, Note_on_c, 0, 52, 46
2,13438, Note_on_c, 0, 52, 0
2,13445, Note_on_c, 0, 47, 0
2,13463, Note_on_c, 0, 49, 62
2,13466, Note_on_c, 0, 45, 69
2,13504, Note_on_c, 0, 49, 0
2,13578, Note_on_c, 0, 54, 62
2,13619, Note_on_c, 0, 54, 0
2,13718, Note_on_c, 0, 52, 53
2,13772, Note_on_c, 0, 52, 0
2,13797, Note_on_c, 0, 59, 53
2,13800, Note_on_c, 0, 51, 47
2,13814, Note_on_c, 0, 61, 0
2,13888, Note_on_c, 0, 51, 0
2,13901, Note_on_c, 0, 49, 36
2,13956, Note_on_c, 0, 49, 0
2,14013, Note_on_c, 0, 47, 52
2,14059, Note_on_c, 0, 45, 0
2,14079, Note_on_c, 0, 47, 0
2,14120, Note_on_c, 0, 44, 56
2,14140, Note_on_c, 0, 52, 35
2,14200, Note_on_c, 0, 44, 0
2,14230, Note_on_c, 0, 42, 56
2,14319, Note_on_c, 0, 42, 0
2,14332, Note_on_c, 0, 40, 62
2,14413, Note_on_c, 0, 59, 0
2,14443, Note_on_c, 0, 57, 47
2,14449, Note_on_c, 0, 42, 64
2,14462, Note_on_c, 0, 40, 0
2,14480, Note_on_c, 0, 52, 0
2,14532, Note_on_c, 0, 57, 0
2,14538, Note_on_c, 0, 56, 54
2,14567, Note_on_c, 0, 42, 0
2,14630, Note_on_c, 0, 56, 0
2,14651, Note_on_c, 0, 57, 52
2,14754, Note_on_c, 0, 57, 0
2,14776, Note_on_c, 0, 47, 54
2,14783, Note_on_c, 0, 54, 46
2,14803, Note_on_c, 0, 51, 39
2,14873, Note_on_c, 0, 51, 0
2,14874, Note_on_c, 0, 47, 0
2,14876, Note_on_c, 0, 54, 0
2,14878, Note_on_c, 0, 59, 47
2,14964, Note_on_c, 0, 59, 0
2,14973, Note_on_c, 0, 57, 54
2,15062, Note_on_c, 0, 57, 0
2,15105, Note_on_c, 0, 56, 44
2,15127, Note_on_c, 0, 40, 49
2,15151, Note_on_c, 0, 52, 19
2,15184, Note_on_c, 0, 40, 0
2,15204, Note_on_c, 0, 59, 47
2,15233, Note_on_c, 0, 56, 0
2,15263, Note_on_c, 0, 52, 0
2,15325, Note_on_c, 0, 64, 52
2,15337, Note_on_c, 0, 59, 0
2,15441, Note_on_c, 0, 54, 68
2,15555, Note_on_c, 0, 63, 64
2,15576, Note_on_c, 0, 54, 0
2,15585, Note_on_c, 0, 64, 0
2,15646, Note_on_c, 0, 63, 0
2,15648, Note_on_c, 0, 61, 70
2,15761, Note_on_c, 0, 61, 0
2,15762, Note_on_c, 0, 59, 71
2,15764, Note_on_c, 0, 56, 76
2,15869, Note_on_c, 0, 64, 78
2,15870, Note_on_c, 0, 56, 0
2,15873, Note_on_c, 0, 59, 0
2,15975, Note_on_c, 0, 68, 77
2,15994, Note_on_c, 0, 64, 0
2,16098, Note_on_c, 0, 58, 88
2,16180, Note_on_c, 0, 58, 0
2,16199, Note_on_c, 0, 66, 79
2,16230, Note_on_c, 0, 68, 0
2,16303, Note_on_c, 0, 64, 71
2,16310, Note_on_c, 0, 66, 0
2,16373, Note_on_c, 0, 64, 0
2,16419, Note_on_c, 0, 47, 72
2,16427, Note_on_c, 0, 63, 80
2,16437, Note_on_c, 0, 59, 69
2,16530, Note_on_c, 0, 47, 0
2,16532, Note_on_c, 0, 45, 68
2,16621, Note_on_c, 0, 47, 64
2,16633, Note_on_c, 0, 45, 0
2,16731, Note_on_c, 0, 47, 0
2,16744, Note_on_c, 0, 49, 70
2,16748, Note_on_c, 0, 65, 88
2,16779, Note_on_c, 0, 63, 0
2,16832, Note_on_c, 0, 49, 0
2,16844, Note_on_c, 0, 47, 64
2,16951, Note_on_c, 0, 49, 69
2,16957, Note_on_c, 0, 47, 0
2,17029, Note_on_c, 0, 49, 0
2,17091, Note_on_c, 0, 59, 0
2,17094, Note_on_c, 0, 65, 0
2,17097, Note_on_c, 0, 66, 77
2,17107, Note_on_c, 0, 42, 61
2,17210, Note_on_c, 0, 57, 70
2,17254, Note_on_c, 0, 42, 0
2,17309, Note_on_c, 0, 59, 74
2,17354, Note_on_c, 0, 57, 0
2,17402, Note_on_c, 0, 40, 58
2,17413, Note_on_c, 0, 61, 87
2,17429, Note_on_c, 0, 59, 0
2,17434, Note_on_c, 0, 66, 0
2,17500, Note_on_c, 0, 63, 77
2,17505, Note_on_c, 0, 61, 0
2,17587, Note_on_c, 0, 40, 0
2,17590, Note_on_c, 0, 63, 0
2,17605, Note_on_c, 0, 64, 74
2,17681, Note_on_c, 0, 64, 0
2,17721, Note_on_c, 0, 66, 67
2,17721, Note_on_c, 0, 70, 72
2,17746, Note_on_c, 0, 39, 47
2,17824, Note_on_c, 0, 64, 62
2,17829, Note_on_c, 0, 66, 0
2,17846, Note_on_c, 0, 39, 0
2,17908, Note_on_c, 0, 64, 0
2,17945, Note_on_c, 0, 66, 57
2,18013, Note_on_c, 0, 70, 0
2,18037, Note_on_c, 0, 66, 0
2,18055, Note_on_c, 0, 63, 55
2,18056, Note_on_c, 0, 44, 51
2,18057, Note_on_c, 0, 72, 61
2,18087, Note_on_c, 0, 44, 0
2,18148, Note_on_c, 0, 63, 0
2,18153, Note_on_c, 0, 72, 0
2,18155, Note_on_c, 0, 68, 59
2,18248, Note_on_c, 0, 66, 51
2,18249, Note_on_c, 0, 68, 0
2,18343, Note_on_c, 0, 66, 0
2,18357, Note_on_c, 0, 64, 49
2,18365, Note_on_c, 0, 73, 51
2,18370, Note_on_c, 0, 49, 48
2,18448, Note_on_c, 0, 73, 0
2,18451, Note_on_c, 0, 51, 61
2,18468, Note_on_c, 0, 49, 0
2,18470, Note_on_c, 0, 72, 55
2,18490, Note_on_c, 0, 64, 0
2,18516, Note_on_c, 0, 51, 0
2,18543, Note_on_c, 0, 52, 69
2,18555, Note_on_c, 0, 72, 0
2,18565, Note_on_c, 0, 73, 64
2,18596, Note_on_c, 0, 73, 0
2,18600, Note_on_c, 0, 52, 0
2,18650, Note_on_c, 0, 54, 70
2,18676, Note_on_c, 0, 75, 66
2,18750, Note_on_c, 0, 75, 0
2,18759, Note_on_c, 0, 73, 60
2,18872, Note_on_c, 0, 73, 0
2,18882, Note_on_c, 0, 75, 58
2,18893, Note_on_c, 0, 54, 0
2,18937, Note_on_c, 0, 75, 0
2,18961, Note_on_c, 0, 68, 69
2,19053, Note_on_c, 0, 68, 0
2,19059, Note_on_c, 0, 52, 70
2,19061, Note_on_c, 0, 70, 72
2,19140, Note_on_c, 0, 52, 0
2,19143, Note_on_c, 0, 70, 0
2,19151, Note_on_c, 0, 51, 67
2,19156, Note_on_c, 0, 72, 79
2,19226, Note_on_c, 0, 52, 76
2,19231, Note_on_c, 0, 51, 0
2,19247, Note_on_c, 0, 72, 0
2,19252, Note_on_c, 0, 73, 80
2,19322, Note_on_c, 0, 52, 0
2,19322, Note_on_c, 0, 54, 80
2,19336, Note_on_c, 0, 73, 0
2,19358, Note_on_c, 0, 75, 81
2,19427, Note_on_c, 0, 54, 0
2,19442, Note_on_c, 0, 56, 77
2,19452, Note_on_c, 0, 76, 80
2,19457, Note_on_c, 0, 75, 0
2,19542, Note_on_c, 0, 56, 0
2,19542, Note_on_c, 0, 57, 76
2,19553, Note_on_c, 0, 78, 83
2,19564, Note_on_c, 0, 76, 0
2,19633, Note_on_c, 0, 57, 0
2,19641, Note_on_c, 0, 56, 70
2,19649, Note_on_c, 0, 78, 0
2,19651, Note_on_c, 0, 76, 75
2,19722, Note_on_c, 0, 56, 0
2,19727, Note_on_c, 0, 76, 0
2,19729, Note_on_c, 0, 54, 73
2,19743, Note_on_c, 0, 78, 87
2,19813, Note_on_c, 0, 78, 0
2,19829, Note_on_c, 0, 56, 76
2,19840, Note_on_c, 0, 54, 0
2,19850, Note_on_c, 0, 75, 81
2,19919, Note_on_c, 0, 58, 71
2,19938, Note_on_c, 0, 80, 77
2,19945, Note_on_c, 0, 75, 0
2,19946, Note_on_c, 0, 56, 0
2,20031, Note_on_c, 0, 78, 85
2,20038, Note_on_c, 0, 58, 0
2,20048, Note_on_c, 0, 60, 77
2,20057, Note_on_c, 0, 80, 0
2,20071, Note_on_c, 0, 78, 0
2,20072, Note_on_c, 0, 60, 0
2,20151, Note_on_c, 0, 68, 87
2,20157, Note_on_c, 0, 76, 88
2,20166, Note_on_c, 0, 61, 65
2,20240, Note_on_c, 0, 68, 0
2,20248, Note_on_c, 0, 67, 79
2,20254, Note_on_c, 0, 75, 82
2,20279, Note_on_c, 0, 76, 0
2,20344, Note_on_c, 0, 68, 86
2,20358, Note_on_c, 0, 76, 83
2,20368, Note_on_c, 0, 67, 0
2,20378, Note_on_c, 0, 75, 0
2,20452, Note_on_c, 0, 68, 0
2,20459, Note_on_c, 0, 70, 85
2,20459, Note_on_c, 0, 73, 84
2,20461, Note_on_c, 0, 76, 0
2,20550, Note_on_c, 0, 70, 0
2,20550, Note_on_c, 0, 71, 79
2,20553, Note_on_c, 0, 68, 82
2,20553, Note_on_c, 0, 73, 0
2,20651, Note_on_c, 0, 68, 0
2,20656, Note_on_c, 0, 73, 78
2,20663, Note_on_c, 0, 71, 0
2,20664, Note_on_c, 0, 70, 80
2,20723, Note_on_c, 0, 70, 0
2,20732, Note_on_c, 0, 73, 0
2,20758, Note_on_c, 0, 82, 84
2,20775, Note_on_c, 0, 63, 74
2,20842, Note_on_c, 0, 63, 0
2,20864, Note_on_c, 0, 65, 82
2,20942, Note_on_c, 0, 82, 0
2,20962, Note_on_c, 0, 65, 0
2,20963, Note_on_c, 0, 67, 81
2,20978, Note_on_c, 0, 61, 0
2,21087, Note_on_c, 0, 75, 76
2,21092, Note_on_c, 0, 68, 70
2,21093, Note_on_c, 0, 59, 63
2,21107, Note_on_c, 0, 67, 0
2,21183, Note_on_c, 0, 68, 0
2,21199, Note_on_c, 0, 59, 0
2,21200, Note_on_c, 0, 70, 55
2,21202, Note_on_c, 0, 69, 65
2,21226, Note_on_c, 0, 75, 0
2,21242, Note_on_c, 0, 69, 0
2,21278, Note_on_c, 0, 70, 0
2,21282, Note_on_c, 0, 71, 79
2,21387, Note_on_c, 0, 71, 0
2,21399, Note_on_c, 0, 73, 69
2,21405, Note_on_c, 0, 77, 68
2,21412, Note_on_c, 0, 58, 62
2,21499, Note_on_c, 0, 71, 75
2,21503, Note_on_c, 0, 73, 0
2,21510, Note_on_c, 0, 58, 0
2,21527, Note_on_c, 0, 77, 0
2,21590, Note_on_c, 0, 71, 0
2,21596, Note_on_c, 0, 73, 67
2,21700, Note_on_c, 0, 73, 0
2,21716, Note_on_c, 0, 79, 73
2,21722, Note_on_c, 0, 70, 70
2,21736, Note_on_c, 0, 63, 48
2,21795, Note_on_c, 0, 63, 0
2,21829, Note_on_c, 0, 75, 79
2,21844, Note_on_c, 0, 70, 0
2,21865, Note_on_c, 0, 79, 0
2,21935, Note_on_c, 0, 73, 80
2,21976, Note_on_c, 0, 75, 0
2,22037, Note_on_c, 0, 73, 0
2,22042, Note_on_c, 0, 56, 35
2,22042, Note_on_c, 0, 80, 91
2,22073, Note_on_c, 0, 71, 36
2,22094, Note_on_c, 0, 56, 0
2,22105, Note_on_c, 0, 71, 0
2,22152, Note_on_c, 0, 70, 67
2,22209, Note_on_c, 0, 80, 0
2,22262, Note_on_c, 0, 70, 0
2,22269, Note_on_c, 0, 71, 67
2,22337, Note_on_c, 0, 71, 0
2,22376, Note_on_c, 0, 76, 81
2,22407, Note_on_c, 0, 68, 35
2,22410, Note_on_c, 0, 61, 47
2,22457, Note_on_c, 0, 68, 0
2,22497, Note_on_c, 0, 61, 0
2,22505, Note_on_c, 0, 73, 61
2,22597, Note_on_c, 0, 73, 0
2,22600, Note_on_c, 0, 71, 55
2,22712, Note_on_c, 0, 71, 0
2,22732, Note_on_c, 0, 69, 57
2,22742, Note_on_c, 0, 54, 47
2,22791, Note_on_c, 0, 54, 0
2,22824, Note_on_c, 0, 69, 0
2,22849, Note_on_c, 0, 68, 54
2,22923, Note_on_c, 0, 68, 0
2,22924, Note_on_c, 0, 69, 60
2,22935, Note_on_c, 0, 76, 0
2,23034, Note_on_c, 0, 69, 0
2,23048, Note_on_c, 0, 75, 72
2,23056, Note_on_c, 0, 66, 52
2,23073, Note_on_c, 0, 59, 38
2,23113, Note_on_c, 0, 59, 0
2,23118, Note_on_c, 0, 66, 0
2,23163, Note_on_c, 0, 71, 49
2,23208, Note_on_c, 0, 75, 0
2,23254, Note_on_c, 0, 69, 60
2,23267, Note_on_c, 0, 71, 0
2,23355, Note_on_c, 0, 69, 0
2,23372, Note_on_c, 0, 52, 51
2,23378, Note_on_c, 0, 76, 63
2,23412, Note_on_c, 0, 68, 35
2,23458, Note_on_c, 0, 52, 0
2,23471, Note_on_c, 0, 68, 0
2,23476, Note_on_c, 0, 51, 54
2,23485, Note_on_c, 0, 66, 57
2,23559, Note_on_c, 0, 66, 0
2,23562, Note_on_c, 0, 51, 0
2,23574, Note_on_c, 0, 52, 66
2,23587, Note_on_c, 0, 68, 62
2,23662, Note_on_c, 0, 52, 0
2,23671, Note_on_c, 0, 54, 68
2,23682, Note_on_c, 0, 68, 0
2,23703, Note_on_c, 0, 70, 63
2,23757, Note_on_c, 0, 54, 0
2,23787, Note_on_c, 0, 52, 56
2,23794, Note_on_c, 0, 70, 0
2,23801, Note_on_c, 0, 68, 67
2,23846, Note_on_c, 0, 52, 0
2,23852, Note_on_c, 0, 76, 0
2,23875, Note_on_c, 0, 54, 66
2,23903, Note_on_c, 0, 70, 60
2,23904, Note_on_c, 0, 68, 0
2,23927, Note_on_c, 0, 54, 0
2,23999, Note_on_c, 0, 70, 0
2,24005, Note_on_c, 0, 75, 67
2,24007, Note_on_c, 0, 47, 62
2,24020, Note_on_c, 0, 71, 37
2,24096, Note_on_c, 0, 49, 66
2,24102, Note_on_c, 0, 47, 0
2,24195, Note_on_c, 0, 51, 72
2,24233, Note_on_c, 0, 49, 0
2,24283, Note_on_c, 0, 51, 0
2,24294, Note_on_c, 0, 52, 78
2,24319, Note_on_c, 0, 74, 76
2,24357, Note_on_c, 0, 52, 0
2,24379, Note_on_c, 0, 75, 0
2,24386, Note_on_c, 0, 54, 69
2,24479, Note_on_c, 0, 56, 81
2,24495, Note_on_c, 0, 54, 0
2,24579, Note_on_c, 0, 56, 0
2,24592, Note_on_c, 0, 57, 67
2,24602, Note_on_c, 0, 73, 75
2,24621, Note_on_c, 0, 74, 0
2,24678, Note_on_c, 0, 57, 0
2,24693, Note_on_c, 0, 56, 70
2,24698, Note_on_c, 0, 73, 0
2,24709, Note_on_c, 0, 71, 0
2,24781, Note_on_c, 0, 56, 0
2,24806, Note_on_c, 0, 57, 69
2,24869, Note_on_c, 0, 57, 0
2,24916, Note_on_c, 0, 54, 67
2,24916, Note_on_c, 0, 69, 65
2,24918, Note_on_c, 0, 75, 77
2,25015, Note_on_c, 0, 59, 65
2,25017, Note_on_c, 0, 54, 0
2,25017, Note_on_c, 0, 76, 73
2,25079, Note_on_c, 0, 75, 0
2,25088, Note_on_c, 0, 59, 0
2,25116, Note_on_c, 0, 57, 58
2,25125, Note_on_c, 0, 78, 75
2,25126, Note_on_c, 0, 76, 0
2,25210, Note_on_c, 0, 57, 0
2,25218, Note_on_c, 0, 78, 0
2,25226, Note_on_c, 0, 71, 64
2,25240, Note_on_c, 0, 56, 52
2,25303, Note_on_c, 0, 69, 0
2,25322, Note_on_c, 0, 56, 0
2,25332, Note_on_c, 0, 71, 0
2,25333, Note_on_c, 0, 54, 55
2,25420, Note_on_c, 0, 54, 0
2,25436, Note_on_c, 0, 56, 48
2,25505, Note_on_c, 0, 56, 0
2,25552, Note_on_c, 0, 52, 48
2,25552, Note_on_c, 0, 68, 49
2,25552, Note_on_c, 0, 73, 65
2,25633, Note_on_c, 0, 52, 0
2,25635, Note_on_c, 0, 68, 0
2,25635, Note_on_c, 0, 68, 14
2,25635, Note_on_c, 0, 73, 0
2,25653, Note_on_c, 0, 75, 62
2,25654, Note_on_c, 0, 57, 42
2,25720, Note_on_c, 0, 57, 0
2,25735, Note_on_c, 0, 75, 0
2,25746, Note_on_c, 0, 56, 46
2,25758, Note_on_c, 0, 76, 57
2,25839, Note_on_c, 0, 56, 0
2,25839, Note_on_c, 0, 76, 0
2,25864, Note_on_c, 0, 54, 44
2,25866, Note_on_c, 0, 69, 56
2,25951, Note_on_c, 0, 54, 0
2,25959, Note_on_c, 0, 69, 0
2,25982, Note_on_c, 0, 52, 44
2,26001, Note_on_c, 0, 68, 0
2,26045, Note_on_c, 0, 52, 0
2,26090, Note_on_c, 0, 54, 42
2,26154, Note_on_c, 0, 54, 0
2,26175, Note_on_c, 0, 71, 46
2,26194, Note_on_c, 0, 51, 41
2,26265, Note_on_c, 0, 51, 0
2,26281, Note_on_c, 0, 73, 51
2,26282, Note_on_c, 0, 71, 0
2,26291, Note_on_c, 0, 56, 41
2,26354, Note_on_c, 0, 56, 0
2,26373, Note_on_c, 0, 75, 54
2,26390, Note_on_c, 0, 54, 40
2,26423, Note_on_c, 0, 73, 0
2,26469, Note_on_c, 0, 75, 0
2,26471, Note_on_c, 0, 54, 0
2,26489, Note_on_c, 0, 68, 54
2,26504, Note_on_c, 0, 52, 41
2,26554, Note_on_c, 0, 52, 0
2,26573, Note_on_c, 0, 51, 43
2,26647, Note_on_c, 0, 51, 0
2,26680, Note_on_c, 0, 52, 44
2,26791, Note_on_c, 0, 52, 0
2,26800, Note_on_c, 0, 49, 50
2,26820, Note_on_c, 0, 64, 52
2,26882, Note_on_c, 0, 49, 0
2,26885, Note_on_c, 0, 68, 0
2,26917, Note_on_c, 0, 64, 0
2,26928, Note_on_c, 0, 71, 48
2,27034, Note_on_c, 0, 70, 55
2,27035, Note_on_c, 0, 71, 0
2,27103, Note_on_c, 0, 70, 0
2,27149, Note_on_c, 0, 71, 62
2,27160, Note_on_c, 0, 56, 51
2,27179, Note_on_c, 0, 63, 28
2,27231, Note_on_c, 0, 56, 0
2,27252, Note_on_c, 0, 54, 51
2,27333, Note_on_c, 0, 56, 58
2,27337, Note_on_c, 0, 54, 0
2,27381, Note_on_c, 0, 63, 0
2,27430, Note_on_c, 0, 56, 0
2,27450, Note_on_c, 0, 52, 70
2,27451, Note_on_c, 0, 68, 74
2,27480, Note_on_c, 0, 71, 0
2,27528, Note_on_c, 0, 52, 0
2,27552, Note_on_c, 0, 75, 75
2,27568, Note_on_c, 0, 68, 0
2,27653, Note_on_c, 0, 73, 77
2,27663, Note_on_c, 0, 75, 0
2,27724, Note_on_c, 0, 73, 0
2,27768, Note_on_c, 0, 75, 81
2,27771, Note_on_c, 0, 59, 70
2,27771, Note_on_c, 0, 66, 73
2,27863, Note_on_c, 0, 59, 0
2,27874, Note_on_c, 0, 58, 67
2,27914, Note_on_c, 0, 66, 0
2,27945, Note_on_c, 0, 58, 0
2,27964, Note_on_c, 0, 59, 70
2,28066, Note_on_c, 0, 59, 0
2,28089, Note_on_c, 0, 71, 85
2,28093, Note_on_c, 0, 56, 81
2,28132, Note_on_c, 0, 75, 0
2,28147, Note_on_c, 0, 56, 0
2,28198, Note_on_c, 0, 78, 76
2,28295, Note_on_c, 0, 76, 71
2,28310, Note_on_c, 0, 78, 0
2,28399, Note_on_c, 0, 63, 78
2,28401, Note_on_c, 0, 76, 0
2,28408, Note_on_c, 0, 78, 80
2,28456, Note_on_c, 0, 78, 0
2,28524, Note_on_c, 0, 80, 79
2,28616, Note_on_c, 0, 78, 78
2,28629, Note_on_c, 0, 71, 0
2,28641, Note_on_c, 0, 80, 0
2,28699, Note_on_c, 0, 78, 0
2,28706, Note_on_c, 0, 63, 0
2,28728, Note_on_c, 0, 64, 80
2,28731, Note_on_c, 0, 76, 73
2,28732, Note_on_c, 0, 69, 74
2,28831, Note_on_c, 0, 78, 75
2,28860, Note_on_c, 0, 76, 0
2,28968, Note_on_c, 0, 68, 78
2,28968, Note_on_c, 0, 76, 81
2,29009, Note_on_c, 0, 78, 0
2,29014, Note_on_c, 0, 64, 0
2,29038, Note_on_c, 0, 69, 0
2,29047, Note_on_c, 0, 76, 0
2,29057, Note_on_c, 0, 66, 86
2,29071, Note_on_c, 0, 68, 0
2,29071, Note_on_c, 0, 83, 80
2,29107, Note_on_c, 0, 66, 0
2,29171, Note_on_c, 0, 82, 82
2,29201, Note_on_c, 0, 83, 0
2,29269, Note_on_c, 0, 80, 73
2,29284, Note_on_c, 0, 82, 0
2,29380, Note_on_c, 0, 78, 70
2,29383, Note_on_c, 0, 80, 0
2,29390, Note_on_c, 0, 63, 47
2,29396, Note_on_c, 0, 71, 43
2,29459, Note_on_c, 0, 63, 0
2,29479, Note_on_c, 0, 78, 0
2,29481, Note_on_c, 0, 76, 62
2,29496, Note_on_c, 0, 61, 43
2,29540, Note_on_c, 0, 61, 0
2,29560, Note_on_c, 0, 76, 0
2,29575, Note_on_c, 0, 75, 66
2,29592, Note_on_c, 0, 59, 42
2,29649, Note_on_c, 0, 71, 0
2,29685, Note_on_c, 0, 75, 0
2,29692, Note_on_c, 0, 66, 48
2,29694, Note_on_c, 0, 73, 58
2,29701, Note_on_c, 0, 71, 37
2,29716, Note_on_c, 0, 66, 0
2,29719, Note_on_c, 0, 59, 0
2,29755, Note_on_c, 0, 71, 0
2,29795, Note_on_c, 0, 73, 0
2,29795, Note_on_c, 0, 75, 56
2,29895, Note_on_c, 0, 54, 55
2,29901, Note_on_c, 0, 70, 52
2,29912, Note_on_c, 0, 75, 0
2,29913, Note_on_c, 0, 73, 56
2,29927, Note_on_c, 0, 70, 0
2,29930, Note_on_c, 0, 54, 0
2,29953, Note_on_c, 0, 73, 0
2,30006, Note_on_c, 0, 68, 70
2,30006, Note_on_c, 0, 76, 57
2,30007, Note_on_c, 0, 56, 58
2,30042, Note_on_c, 0, 56, 0
2,30084, Note_on_c, 0, 68, 0
2,30110, Note_on_c, 0, 71, 60
2,30150, Note_on_c, 0, 76, 0
2,30217, Note_on_c, 0, 73, 67
2,30223, Note_on_c, 0, 67, 50
2,30236, Note_on_c, 0, 71, 0
2,30246, Note_on_c, 0, 58, 50
2,30248, Note_on_c, 0, 67, 0
2,30279, Note_on_c, 0, 73, 0
2,30303, Note_on_c, 0, 58, 0
2,30321, Note_on_c, 0, 59, 63
2,30322, Note_on_c, 0, 75, 73
2,30330, Note_on_c, 0, 66, 69
2,30354, Note_on_c, 0, 59, 0
2,30423, Note_on_c, 0, 76, 71
2,30433, Note_on_c, 0, 75, 0
2,30480, Note_on_c, 0, 66, 0
2,30539, Note_on_c, 0, 75, 84
2,30548, Note_on_c, 0, 76, 0
2,30554, Note_on_c, 0, 60, 63
2,30563, Note_on_c, 0, 56, 47
2,30585, Note_on_c, 0, 58, 61
2,30618, Note_on_c, 0, 60, 0
2,30628, Note_on_c, 0, 61, 77
2,30633, Note_on_c, 0, 56, 0
2,30651, Note_on_c, 0, 78, 87
2,30676, Note_on_c, 0, 58, 0
2,30682, Note_on_c, 0, 75, 0
2,30683, Note_on_c, 0, 61, 0
2,30743, Note_on_c, 0, 73, 77
2,30772, Note_on_c, 0, 78, 0
2,30814, Note_on_c, 0, 73, 0
2,30847, Note_on_c, 0, 75, 79
2,30885, Note_on_c, 0, 60, 49
2,30913, Note_on_c, 0, 75, 0
2,30958, Note_on_c, 0, 60, 0
2,30961, Note_on_c, 0, 73, 74
2,30967, Note_on_c, 0, 76, 77
2,30977, Note_on_c, 0, 61, 61
2,31014, Note_on_c, 0, 73, 0
2,31057, Note_on_c, 0, 75, 72
2,31064, Note_on_c, 0, 61, 0
2,31077, Note_on_c, 0, 59, 50
2,31162, Note_on_c, 0, 73, 65
2,31167, Note_on_c, 0, 59, 0
2,31168, Note_on_c, 0, 75, 0
2,31186, Note_on_c, 0, 57, 51
2,31211, Note_on_c, 0, 76, 0
2,31260, Note_on_c, 0, 73, 0
2,31266, Note_on_c, 0, 77, 79
2,31279, Note_on_c, 0, 57, 0
2,31292, Note_on_c, 0, 71, 52
2,31299, Note_on_c, 0, 56, 60
2,31362, Note_on_c, 0, 71, 0
2,31375, Note_on_c, 0, 56, 0
2,31388, Note_on_c, 0, 73, 53
2,31421, Note_on_c, 0, 57, 40
2,31471, Note_on_c, 0, 77, 0
2,31483, Note_on_c, 0, 73, 0
2,31484, Note_on_c, 0, 57, 0
2,31484, Note_on_c, 0, 71, 60
2,31522, Note_on_c, 0, 71, 0
2,31530, Note_on_c, 0, 56, 38
2,31569, Note_on_c, 0, 56, 0
2,31594, Note_on_c, 0, 78, 73
2,31617, Note_on_c, 0, 54, 34
2,31619, Note_on_c, 0, 69, 41
2,31731, Note_on_c, 0, 76, 56
2,31791, Note_on_c, 0, 78, 0
2,31800, Control_c, 0, 64, 54
2,31815, Control_c, 0, 64, 64
2,31830, Control_c, 0, 64, 66
2,31838, Note_on_c, 0, 74, 59
2,31845, Control_c, 0, 64, 68
2,31860, Control_c, 0, 64, 71
2,31876, Control_c, 0, 64, 74
2,31887, Note_on_c, 0, 69, 0
2,31891, Control_c, 0, 64, 77
2,31899, Note_on_c, 0, 76, 0
2,31905, Control_c, 0, 64, 78
2,31920, Note_on_c, 0, 73, 65
2,31923, Note_on_c, 0, 74, 0
2,31952, Note_on_c, 0, 54, 0
2,31981, Control_c, 0, 64, 77
2,31997, Control_c, 0, 64, 77
2,32012, Control_c, 0, 64, 74
2,32015, Note_on_c, 0, 71, 52
2,32027, Control_c, 0, 64, 68
2,32027, Note_on_c, 0, 73, 0
2,32041, Note_on_c, 0, 71, 0
2,32043, Control_c, 0, 64, 60
2,32058, Control_c, 0, 64, 0
2,32116, Note_on_c, 0, 78, 77
2,32124, Note_on_c, 0, 69, 64
2,32143, Note_on_c, 0, 69, 0
2,32173, Note_on_c, 0, 78, 0
2,32212, Note_on_c, 0, 77, 76
2,32230, Note_on_c, 0, 68, 65
2,32296, Note_on_c, 0, 68, 0
2,32305, Note_on_c, 0, 69, 61
2,32334, Note_on_c, 0, 77, 0
2,32418, Note_on_c, 0, 69, 0
2,32439, Note_on_c, 0, 68, 65
2,32461, Note_on_c, 0, 76, 59
2,32471, Note_on_c, 0, 68, 0
2,32542, Note_on_c, 0, 75, 70
2,32550, Note_on_c, 0, 71, 62
2,32553, Note_on_c, 0, 76, 0
2,32631, Note_on_c, 0, 66, 58
2,32636, Note_on_c, 0, 75, 0
2,32653, Note_on_c, 0, 66, 0
2,32685, Note_on_c, 0, 71, 0
2,32734, Note_on_c, 0, 74, 65
2,32754, Note_on_c, 0, 68, 55
2,32792, Note_on_c, 0, 68, 0
2,32835, Note_on_c, 0, 69, 59
2,32837, Note_on_c, 0, 73, 66
2,32840, Note_on_c, 0, 74, 0
2,32920, Note_on_c, 0, 71, 63
2,32924, Note_on_c, 0, 69, 0
2,32946, Note_on_c, 0, 73, 0
2,33013, Note_on_c, 0, 71, 0
2,33033, Note_on_c, 0, 78, 74
2,33052, Note_on_c, 0, 69, 50
2,33076, Note_on_c, 0, 69, 0
2,33082, Note_on_c, 0, 78, 0
2,33139, Note_on_c, 0, 73, 58
2,33144, Note_on_c, 0, 77, 65
2,33223, Note_on_c, 0, 77, 0
2,33235, Note_on_c, 0, 68, 55
2,33251, Note_on_c, 0, 73, 0
2,33265, Note_on_c, 0, 68, 0
2,33346, Note_on_c, 0, 70, 55
2,33346, Note_on_c, 0, 76, 50
2,33394, Note_on_c, 0, 70, 0
2,33403, Note_on_c, 0, 76, 0
2,33467, Note_on_c, 0, 75, 53
2,33477, Note_on_c, 0, 56, 45
2,33477, Note_on_c, 0, 71, 46
2,33580, Note_on_c, 0, 56, 0
2,33599, Note_on_c, 0, 57, 41
2,33639, Control_c, 0, 64, 23
2,33654, Control_c, 0, 64, 49
2,33670, Control_c, 0, 64, 51
2,33677, Note_on_c, 0, 77, 72
2,33678, Note_on_c, 0, 57, 0
2,33685, Control_c, 0, 64, 49
2,33696, Note_on_c, 0, 75, 0
2,33700, Control_c, 0, 64, 46
2,33714, Note_on_c, 0, 56, 48
2,33715, Control_c, 0, 64, 35
2,33730, Control_c, 0, 64, 0
2,33774, Note_on_c, 0, 56, 0
2,33792, Note_on_c, 0, 78, 85
2,33798, Note_on_c, 0, 54, 55
2,33826, Note_on_c, 0, 77, 0
2,33855, Note_on_c, 0, 71, 0
2,33894, Note_on_c, 0, 54, 0
2,33902, Note_on_c, 0, 56, 55
2,33967, Control_c, 0, 64, 57
2,33982, Control_c, 0, 64, 63
2,33998, Control_c, 0, 64, 64
2,34002, Note_on_c, 0, 56, 0
2,34009, Note_on_c, 0, 78, 0
2,34013, Control_c, 0, 64, 65
2,34015, Note_on_c, 0, 54, 67
2,34019, Note_on_c, 0, 69, 80
2,34027, Control_c, 0, 64, 65
2,34073, Control_c, 0, 64, 65
2,34088, Control_c, 0, 64, 64
2,34100, Note_on_c, 0, 54, 0
2,34103, Control_c, 0, 64, 62
2,34119, Control_c, 0, 64, 52
2,34119, Note_on_c, 0, 68, 88
2,34121, Note_on_c, 0, 61, 68
2,34134, Control_c, 0, 64, 0
2,34147, Note_on_c, 0, 69, 0
2,34194, Note_on_c, 0, 61, 0
2,34208, Note_on_c, 0, 59, 63
2,34304, Note_on_c, 0, 59, 0
2,34324, Note_on_c, 0, 57, 59
2,34334, Note_on_c, 0, 72, 82
2,34353, Note_on_c, 0, 68, 0
2,34387, Note_on_c, 0, 72, 0
2,34412, Note_on_c, 0, 57, 0
2,34416, Note_on_c, 0, 56, 56
2,34434, Note_on_c, 0, 76, 89
2,34446, Note_on_c, 0, 73, 74
2,34498, Control_c, 0, 64, 36
2,34514, Control_c, 0, 64, 63
2,34522, Note_on_c, 0, 54, 63
2,34529, Control_c, 0, 64, 67
2,34538, Note_on_c, 0, 56, 0
2,34544, Control_c, 0, 64, 70
2,34559, Control_c, 0, 64, 75
2,34573, Note_on_c, 0, 54, 0
2,34574, Control_c, 0, 64, 79
2,34591, Control_c, 0, 64, 82
2,34606, Control_c, 0, 64, 85
2,34621, Control_c, 0, 64, 87
2,34637, Control_c, 0, 64, 87
2,34659, Note_on_c, 0, 52, 67
2,34698, Control_c, 0, 64, 86
2,34721, Control_c, 0, 64, 82
2,34736, Control_c, 0, 64, 75
2,34752, Control_c, 0, 64, 65
2,34767, Control_c, 0, 64, 0
2,34771, Note_on_c, 0, 73, 0
2,34773, Note_on_c, 0, 52, 0
2,34779, Note_on_c, 0, 66, 58
2,34786, Note_on_c, 0, 51, 60
2,34865, Note_on_c, 0, 51, 0
2,34883, Note_on_c, 0, 52, 63
2,34918, Control_c, 0, 64, 50
2,34933, Control_c, 0, 64, 64
2,34948, Control_c, 0, 64, 68
2,34964, Control_c, 0, 64, 70
2,34970, Note_on_c, 0, 52, 0
2,34977, Note_on_c, 0, 76, 0
2,34979, Control_c, 0, 64, 72
2,34991, Note_on_c, 0, 51, 62
2,34994, Control_c, 0, 64, 74
2,35009, Control_c, 0, 64, 75
2,35024, Control_c, 0, 64, 76
2,35076, Note_on_c, 0, 51, 0
2,35085, Control_c, 0, 64, 75
2,35092, Note_on_c, 0, 75, 80
2,35097, Note_on_c, 0, 66, 0
2,35100, Control_c, 0, 64, 72
2,35115, Control_c, 0, 64, 66
2,35116, Note_on_c, 0, 54, 57
2,35130, Control_c, 0, 64, 26
2,35145, Control_c, 0, 64, 0
2,35172, Note_on_c, 0, 54, 0
2,35198, Note_on_c, 0, 64, 52
2,35199, Note_on_c, 0, 49, 59
2,35274, Note_on_c, 0, 66, 63
2,35282, Note_on_c, 0, 49, 0
2,35293, Note_on_c, 0, 64, 0
2,35307, Note_on_c, 0, 51, 50
2,35375, Note_on_c, 0, 68, 72
2,35384, Note_on_c, 0, 51, 0
2,35384, Note_on_c, 0, 66, 0
2,35391, Note_on_c, 0, 75, 0
2,35393, Note_on_c, 0, 52, 63
2,35485, Note_on_c, 0, 52, 0
2,35488, Control_c, 0, 64, 25
2,35500, Note_on_c, 0, 54, 52
2,35503, Control_c, 0, 64, 27
2,35518, Control_c, 0, 64, 24
2,35533, Control_c, 0, 64, 23
2,35548, Control_c, 0, 64, 21
2,35563, Control_c, 0, 64, 20
2,35574, Note_on_c, 0, 68, 0
2,35578, Control_c, 0, 64, 0
2,35583, Note_on_c, 0, 73, 68
2,35584, Note_on_c, 0, 54, 0
2,35598, Note_on_c, 0, 52, 60
2,35640, Note_on_c, 0, 73, 0
2,35675, Note_on_c, 0, 52, 0
2,35705, Note_on_c, 0, 72, 73
2,35707, Note_on_c, 0, 56, 59
2,35782, Note_on_c, 0, 51, 66
2,35784, Note_on_c, 0, 56, 0
2,35812, Note_on_c, 0, 66, 65
2,35828, Note_on_c, 0, 72, 0
2,35867, Note_on_c, 0, 66, 0
2,35884, Note_on_c, 0, 68, 77
2,35888, Note_on_c, 0, 53, 74
2,35920, Note_on_c, 0, 68, 0
2,35921, Note_on_c, 0, 51, 0
2,35931, Note_on_c, 0, 71, 32
2,35965, Note_on_c, 0, 71, 0
2,35994, Note_on_c, 0, 53, 0
2,35995, Note_on_c, 0, 54, 79
2,36002, Note_on_c, 0, 70, 86
2,36027, Note_on_c, 0, 61, 72
2,36089, Note_on_c, 0, 70, 0
2,36094, Control_c, 0, 64, 59
2,36098, Note_on_c, 0, 61, 0
2,36106, Note_on_c, 0, 60, 59
2,36110, Control_c, 0, 64, 65
2,36125, Control_c, 0, 64, 68
2,36140, Control_c, 0, 64, 71
2,36156, Control_c, 0, 64, 74
2,36161, Note_on_c, 0, 62, 17
2,36170, Control_c, 0, 64, 76
2,36185, Control_c, 0, 64, 78
2,36190, Note_on_c, 0, 69, 77
2,36194, Note_on_c, 0, 61, 70
2,36197, Note_on_c, 0, 60, 0
2,36201, Control_c, 0, 64, 78
2,36207, Note_on_c, 0, 62, 0
2,36221, Note_on_c, 0, 61, 0
2,36237, Note_on_c, 0, 69, 0
2,36271, Control_c, 0, 64, 78
2,36286, Control_c, 0, 64, 73
2,36301, Control_c, 0, 64, 63
2,36306, Note_on_c, 0, 63, 76
2,36317, Control_c, 0, 64, 0
2,36329, Note_on_c, 0, 78, 86
2,36396, Note_on_c, 0, 63, 0
2,36398, Note_on_c, 0, 61, 76
2,36414, Note_on_c, 0, 78, 0
2,36417, Note_on_c, 0, 76, 73
2,36489, Note_on_c, 0, 76, 0
2,36493, Note_on_c, 0, 61, 0
2,36513, Note_on_c, 0, 63, 80
2,36519, Note_on_c, 0, 78, 77
2,36576, Note_on_c, 0, 78, 0
2,36584, Note_on_c, 0, 63, 0
2,36605, Note_on_c, 0, 72, 77
2,36612, Note_on_c, 0, 56, 68
2,36690, Note_on_c, 0, 73, 76
2,36693, Note_on_c, 0, 58, 70
2,36696, Note_on_c, 0, 72, 0
2,36716, Note_on_c, 0, 56, 0
2,36751, Note_on_c, 0, 73, 0
2,36768, Note_on_c, 0, 54, 0
2,36768, Note_on_c, 0, 58, 0
2,36787, Note_on_c, 0, 75, 74
2,36800, Note_on_c, 0, 60, 73
2,36809, Note_on_c, 0, 75, 0
2,36853, Note_on_c, 0, 60, 0
2,36891, Note_on_c, 0, 68, 77
2,36896, Note_on_c, 0, 61, 80
2,36913, Note_on_c, 0, 52, 66
2,36962, Note_on_c, 0, 61, 0
2,36976, Note_on_c, 0, 63, 76
2,36998, Note_on_c, 0, 52, 0
2,37037, Note_on_c, 0, 68, 0
2,37065, Note_on_c, 0, 63, 0
2,37093, Note_on_c, 0, 64, 76
2,37143, Note_on_c, 0, 64, 0
2,37190, Note_on_c, 0, 70, 83
2,37193, Note_on_c, 0, 66, 77
2,37212, Note_on_c, 0, 51, 65
2,37290, Note_on_c, 0, 66, 0
2,37292, Note_on_c, 0, 51, 0
2,37298, Note_on_c, 0, 64, 72
2,37360, Note_on_c, 0, 64, 0
2,37409, Note_on_c, 0, 66, 68
2,37494, Note_on_c, 0, 70, 0
2,37496, Note_on_c, 0, 66, 0
2,37521, Note_on_c, 0, 72, 81
2,37530, Note_on_c, 0, 63, 63
2,37552, Note_on_c, 0, 56, 52
2,37559, Note_on_c, 0, 63, 0
2,37585, Note_on_c, 0, 56, 0
2,37632, Note_on_c, 0, 68, 69
2,37651, Note_on_c, 0, 72, 0
2,37727, Note_on_c, 0, 68, 0
2,37731, Note_on_c, 0, 66, 59
2,37824, Note_on_c, 0, 66, 0
2,37838, Note_on_c, 0, 73, 90
2,37854, Note_on_c, 0, 64, 65
2,37857, Note_on_c, 0, 49, 64
2,37913, Note_on_c, 0, 49, 0
2,37937, Note_on_c, 0, 64, 0
2,37947, Note_on_c, 0, 63, 60
2,38011, Note_on_c, 0, 73, 0
2,38059, Note_on_c, 0, 63, 0
2,38067, Note_on_c, 0, 64, 65
2,38114, Note_on_c, 0, 64, 0
2,38175, Note_on_c, 0, 69, 84
2,38178, Note_on_c, 0, 61, 72
2,38190, Note_on_c, 0, 54, 61
2,38225, Note_on_c, 0, 61, 0
2,38243, Note_on_c, 0, 54, 0
2,38284, Note_on_c, 0, 66, 68
2,38381, Note_on_c, 0, 64, 60
2,38413, Note_on_c, 0, 66, 0
2,38477, Note_on_c, 0, 64, 0
2,38481, Note_on_c, 0, 63, 68
2,38489, Note_on_c, 0, 47, 66
2,38536, Note_on_c, 0, 47, 0
2,38574, Note_on_c, 0, 63, 0
2,38595, Note_on_c, 0, 61, 54
2,38675, Note_on_c, 0, 61, 0
2,38707, Note_on_c, 0, 63, 55
2,38713, Note_on_c, 0, 69, 0
2,38794, Note_on_c, 0, 63, 0
2,38805, Note_on_c, 0, 68, 72
2,38821, Note_on_c, 0, 52, 73
2,38821, Note_on_c, 0, 59, 56
2,38856, Note_on_c, 0, 52, 0
2,38864, Note_on_c, 0, 59, 0
2,38913, Note_on_c, 0, 64, 48
2,38976, Note_on_c, 0, 64, 0
2,39010, Note_on_c, 0, 63, 46
2,39079, Note_on_c, 0, 63, 0
2,39114, Note_on_c, 0, 45, 52
2,39116, Note_on_c, 0, 61, 51
2,39163, Note_on_c, 0, 45, 0
2,39185, Note_on_c, 0, 47, 51
2,39186, Note_on_c, 0, 63, 46
2,39235, Note_on_c, 0, 47, 0
2,39252, Note_on_c, 0, 61, 0
2,39260, Note_on_c, 0, 45, 55
2,39279, Note_on_c, 0, 63, 0
2,39279, Note_on_c, 0, 68, 0
2,39289, Note_on_c, 0, 64, 52
2,39297, Note_on_c, 0, 45, 0
2,39336, Note_on_c, 0, 47, 53
2,39381, Note_on_c, 0, 47, 0
2,39387, Note_on_c, 0, 64, 0
2,39396, Note_on_c, 0, 45, 60
2,39407, Note_on_c, 0, 66, 59
2,39415, Note_on_c, 0, 63, 60
2,39446, Note_on_c, 0, 45, 0
2,39479, Note_on_c, 0, 47, 57
2,39498, Note_on_c, 0, 63, 0
2,39520, Note_on_c, 0, 47, 0
2,39524, Note_on_c, 0, 64, 55
2,39541, Note_on_c, 0, 45, 56
2,39583, Note_on_c, 0, 45, 0
2,39608, Note_on_c, 0, 61, 37
2,39612, Note_on_c, 0, 47, 55
2,39612, Note_on_c, 0, 64, 0
2,39646, Note_on_c, 0, 47, 0
2,39649, Note_on_c, 0, 61, 0
2,39678, Note_on_c, 0, 45, 55
2,39711, Note_on_c, 0, 66, 0
2,39714, Note_on_c, 0, 45, 0
2,39723, Note_on_c, 0, 68, 66
2,39730, Note_on_c, 0, 44, 53
2,39734, Note_on_c, 0, 60, 57
2,39819, Note_on_c, 0, 68, 0
2,39821, Note_on_c, 0, 44, 0
2,39830, Note_on_c, 0, 63, 53
2,39884, Note_on_c, 0, 60, 0
2,39921, Note_on_c, 0, 63, 0
2,39936, Note_on_c, 0, 68, 60
2,40028, Note_on_c, 0, 46, 83
2,40032, Note_on_c, 0, 61, 58
2,40131, Note_on_c, 0, 46, 0
2,40151, Note_on_c, 0, 66, 63
2,40169, Note_on_c, 0, 68, 0
2,40255, Note_on_c, 0, 64, 62
2,40260, Note_on_c, 0, 66, 0
2,40292, Note_on_c, 0, 61, 0
2,40359, Note_on_c, 0, 64, 0
2,40363, Note_on_c, 0, 48, 83
2,40368, Note_on_c, 0, 63, 65
2,40448, Note_on_c, 0, 48, 0
2,40462, Note_on_c, 0, 66, 68
2,40499, Note_on_c, 0, 63, 0
2,40570, Note_on_c, 0, 66, 0
2,40573, Note_on_c, 0, 69, 63
2,40685, Note_on_c, 0, 44, 73
2,40705, Note_on_c, 0, 60, 59
2,40773, Note_on_c, 0, 69, 0
2,40803, Note_on_c, 0, 44, 0
2,40803, Note_on_c, 0, 68, 62
2,40813, Note_on_c, 0, 60, 0
2,40893, Note_on_c, 0, 68, 0
2,40896, Note_on_c, 0, 66, 54
2,40925, Note_on_c, 0, 66, 0
2,41008, Note_on_c, 0, 61, 62
2,41019, Note_on_c, 0, 64, 65
2,41040, Note_on_c, 0, 49, 55
2,41093, Note_on_c, 0, 61, 0
2,41131, Note_on_c, 0, 56, 61
2,41165, Note_on_c, 0, 49, 0
2,41216, Note_on_c, 0, 61, 64
2,41229, Note_on_c, 0, 64, 0
2,41317, Note_on_c, 0, 56, 0
2,41323, Note_on_c, 0, 51, 59
2,41325, Note_on_c, 0, 66, 86
2,41343, Note_on_c, 0, 61, 0
2,41394, Note_on_c, 0, 51, 0
2,41439, Note_on_c, 0, 59, 63
2,41497, Note_on_c, 0, 66, 0
2,41531, Note_on_c, 0, 57, 73
2,41564, Note_on_c, 0, 57, 0
2,41586, Note_on_c, 0, 59, 0
2,41642, Note_on_c, 0, 68, 84
2,41656, Note_on_c, 0, 56, 77
2,41668, Note_on_c, 0, 52, 63
2,41739, Note_on_c, 0, 56, 0
2,41746, Note_on_c, 0, 59, 71
2,41812, Note_on_c, 0, 52, 0
2,41857, Note_on_c, 0, 62, 70
2,41871, Note_on_c, 0, 59, 0
2,41993, Note_on_c, 0, 53, 61
2,42040, Control_c, 0, 64, 56
2,42055, Control_c, 0, 64, 66
2,42070, Control_c, 0, 64, 70
2,42072, Note_on_c, 0, 62, 0
2,42074, Note_on_c, 0, 68, 0
2,42081, Note_on_c, 0, 61, 63
2,42085, Control_c, 0, 64, 74
2,42100, Control_c, 0, 64, 78
2,42106, Note_on_c, 0, 53, 0
2,42115, Control_c, 0, 64, 81
2,42131, Control_c, 0, 64, 83
2,42146, Control_c, 0, 64, 85
2,42161, Control_c, 0, 64, 85
2,42171, Note_on_c, 0, 59, 66
2,42173, Note_on_c, 0, 61, 0
2,42194, Note_on_c, 0, 59, 0
2,42207, Control_c, 0, 64, 84
2,42222, Control_c, 0, 64, 81
2,42237, Control_c, 0, 64, 76
2,42252, Control_c, 0, 64, 69
2,42267, Control_c, 0, 64, 54
2,42283, Control_c, 0, 64, 0
2,42304, Note_on_c, 0, 78, 71
2,42307, Note_on_c, 0, 57, 46
2,42318, Note_on_c, 0, 54, 44
2,42359, Note_on_c, 0, 57, 0
2,42451, Note_on_c, 0, 59, 24
2,42532, Note_on_c, 0, 59, 0
2,42550, Note_on_c, 0, 61, 48
2,42593, Note_on_c, 0, 54, 0
2,42595, Note_on_c, 0, 61, 0
2,42651, Note_on_c, 0, 50, 47
2,42736, Note_on_c, 0, 54, 49
2,42738, Note_on_c, 0, 50, 0
2,42805, Note_on_c, 0, 54, 0
2,42815, Note_on_c, 0, 59, 54
2,42898, Note_on_c, 0, 59, 0
2,42963, Note_on_c, 0, 49, 37
2,42970, Note_on_c, 0, 77, 64
2,42986, Note_on_c, 0, 78, 0
2,43068, Note_on_c, 0, 58, 42
2,43148, Note_on_c, 0, 58, 0
2,43165, Control_c, 0, 64, 58
2,43178, Note_on_c, 0, 56, 50
2,43180, Control_c, 0, 64, 64
2,43195, Control_c, 0, 64, 66
2,43210, Control_c, 0, 64, 67
2,43225, Control_c, 0, 64, 68
2,43241, Control_c, 0, 64, 69
2,43256, Control_c, 0, 64, 70
2,43270, Control_c, 0, 64, 71
2,43277, Note_on_c, 0, 56, 0
2,43290, Note_on_c, 0, 49, 0
2,43304, Note_on_c, 0, 76, 62
2,43319, Note_on_c, 0, 54, 38
2,43320, Note_on_c, 0, 58, 40
2,43349, Note_on_c, 0, 54, 0
2,43350, Note_on_c, 0, 77, 0
2,43367, Note_on_c, 0, 52, 45
2,43377, Control_c, 0, 64, 70
2,43392, Control_c, 0, 64, 69
2,43408, Control_c, 0, 64, 68
2,43423, Control_c, 0, 64, 67
2,43438, Control_c, 0, 64, 65
2,43452, Note_on_c, 0, 52, 0
2,43453, Control_c, 0, 64, 62
2,43468, Control_c, 0, 64, 56
2,43484, Control_c, 0, 64, 45
2,43496, Note_on_c, 0, 54, 48
2,43499, Control_c, 0, 64, 13
2,43511, Note_on_c, 0, 58, 0
2,43514, Control_c, 0, 64, 0
2,43586, Note_on_c, 0, 54, 0
2,43619, Note_on_c, 0, 59, 50
2,43619, Note_on_c, 0, 75, 75
2,43624, Note_on_c, 0, 47, 56
2,43668, Note_on_c, 0, 76, 0
2,43727, Note_on_c, 0, 56, 47
2,43734, Note_on_c, 0, 59, 0
2,43807, Note_on_c, 0, 54, 57
2,43820, Note_on_c, 0, 56, 0
2,43851, Note_on_c, 0, 47, 0
2,43872, Note_on_c, 0, 54, 0
2,43944, Note_on_c, 0, 80, 88
2,43954, Note_on_c, 0, 75, 0
2,43958, Note_on_c, 0, 53, 57
2,43969, Note_on_c, 0, 71, 62
2,44048, Note_on_c, 0, 53, 0
2,44068, Note_on_c, 0, 51, 55
2,44166, Note_on_c, 0, 53, 64
2,44181, Note_on_c, 0, 51, 0
2,44263, Note_on_c, 0, 73, 85
2,44275, Note_on_c, 0, 70, 75
2,44279, Note_on_c, 0, 53, 0
2,44284, Note_on_c, 0, 54, 64
2,44294, Note_on_c, 0, 71, 0
2,44338, Note_on_c, 0, 80, 0
2,44380, Note_on_c, 0, 54, 0
2,44395, Note_on_c, 0, 56, 68
2,44474, Note_on_c, 0, 56, 0
2,44481, Note_on_c, 0, 52, 65
2,44588, Note_on_c, 0, 52, 0
2,44597, Note_on_c, 0, 78, 89
2,44601, Note_on_c, 0, 51, 67
2,44625, Note_on_c, 0, 70, 0
2,44625, Note_on_c, 0, 73, 0
2,44632, Note_on_c, 0, 69, 48
2,44694, Note_on_c, 0, 51, 0
2,44734, Note_on_c, 0, 52, 52
2,44808, Note_on_c, 0, 52, 0
2,44818, Note_on_c, 0, 49, 61
2,44911, Note_on_c, 0, 69, 0
2,44924, Note_on_c, 0, 49, 0
2,44926, Note_on_c, 0, 68, 70
2,44948, Note_on_c, 0, 48, 53
2,45040, Note_on_c, 0, 48, 0
2,45045, Note_on_c, 0, 49, 58
2,45125, Note_on_c, 0, 78, 0
2,45130, Note_on_c, 0, 49, 0
2,45137, Note_on_c, 0, 51, 57
2,45235, Note_on_c, 0, 51, 0
2,45240, Note_on_c, 0, 76, 69
2,45257, Note_on_c, 0, 52, 50
2,45257, Note_on_c, 0, 73, 52
2,45268, Note_on_c, 0, 68, 0
2,45326, Note_on_c, 0, 52, 0
2,45360, Note_on_c, 0, 51, 58
2,45441, Note_on_c, 0, 51, 0
2,45460, Note_on_c, 0, 49, 54
2,45536, Note_on_c, 0, 49, 0
2,45556, Note_on_c, 0, 76, 0
2,45567, Note_on_c, 0, 75, 61
2,45568, Note_on_c, 0, 56, 71
2,45597, Note_on_c, 0, 56, 0
2,45613, Note_on_c, 0, 73, 0
2,45705, Note_on_c, 0, 71, 49
2,45769, Note_on_c, 0, 51, 65
2,45783, Note_on_c, 0, 71, 0
2,45792, Note_on_c, 0, 70, 62
2,45810, Note_on_c, 0, 51, 0
2,45866, Note_on_c, 0, 75, 0
2,45872, Note_on_c, 0, 70, 0
2,45875, Note_on_c, 0, 56, 80
2,45888, Note_on_c, 0, 76, 66
2,45900, Note_on_c, 0, 71, 67
2,45972, Note_on_c, 0, 71, 0
2,46002, Note_on_c, 0, 73, 54
2,46111, Note_on_c, 0, 71, 56
2,46136, Note_on_c, 0, 73, 0
2,46230, Note_on_c, 0, 71, 0
2,46240, Note_on_c, 0, 55, 80
2,46241, Note_on_c, 0, 70, 68
2,46242, Note_on_c, 0, 56, 0
2,46340, Note_on_c, 0, 70, 0
2,46356, Note_on_c, 0, 71, 59
2,46446, Note_on_c, 0, 71, 0
2,46449, Note_on_c, 0, 73, 57
2,46490, Note_on_c, 0, 76, 0
2,46578, Note_on_c, 0, 54, 73
2,46586, Note_on_c, 0, 73, 0
2,46592, Note_on_c, 0, 75, 62
2,46597, Note_on_c, 0, 70, 62
2,46619, Note_on_c, 0, 55, 0
2,46667, Note_on_c, 0, 70, 0
2,46710, Note_on_c, 0, 73, 64
2,46795, Note_on_c, 0, 70, 62
2,46818, Note_on_c, 0, 73, 0
2,46893, Note_on_c, 0, 70, 0
2,46909, Note_on_c, 0, 68, 64
2,46914, Note_on_c, 0, 53, 74
2,47004, Note_on_c, 0, 54, 0
2,47005, Note_on_c, 0, 73, 61
2,47026, Note_on_c, 0, 75, 0
2,47092, Note_on_c, 0, 73, 0
2,47103, Note_on_c, 0, 71, 58
2,47228, Note_on_c, 0, 71, 0
2,47235, Note_on_c, 0, 73, 60
2,47241, Note_on_c, 0, 53, 0
2,47258, Note_on_c, 0, 58, 62
2,47327, Note_on_c, 0, 73, 0
2,47343, Note_on_c, 0, 75, 62
2,47456, Note_on_c, 0, 75, 0
2,47460, Note_on_c, 0, 76, 58
2,47545, Note_on_c, 0, 68, 0
2,47584, Note_on_c, 0, 58, 0
2,47609, Note_on_c, 0, 51, 55
2,47611, Note_on_c, 0, 67, 49
2,47710, Note_on_c, 0, 75, 61
2,47734, Note_on_c, 0, 76, 0
2,47769, Note_on_c, 0, 67, 0
2,47808, Note_on_c, 0, 73, 61
2,47840, Note_on_c, 0, 51, 0
2,47846, Note_on_c, 0, 75, 0
2,47916, Note_on_c, 0, 73, 0
2,47922, Note_on_c, 0, 68, 55
2,47928, Note_on_c, 0, 71, 56
2,48011, Note_on_c, 0, 71, 0
2,48030, Note_on_c, 0, 52, 61
2,48030, Note_on_c, 0, 73, 59
2,48101, Note_on_c, 0, 52, 0
2,48110, Note_on_c, 0, 73, 0
2,48115, Note_on_c, 0, 51, 62
2,48151, Note_on_c, 0, 71, 50
2,48222, Note_on_c, 0, 51, 0
2,48231, Note_on_c, 0, 49, 57
2,48240, Note_on_c, 0, 70, 57
2,48243, Note_on_c, 0, 71, 0
2,48328, Note_on_c, 0, 49, 0
2,48353, Note_on_c, 0, 47, 56
2,48432, Note_on_c, 0, 47, 0
2,48461, Note_on_c, 0, 68, 0
2,48462, Note_on_c, 0, 49, 52
2,48556, Note_on_c, 0, 67, 53
2,48557, Note_on_c, 0, 70, 0
2,48559, Note_on_c, 0, 49, 0
2,48577, Note_on_c, 0, 46, 51
2,48646, Note_on_c, 0, 46, 0
2,48656, Note_on_c, 0, 51, 47
2,48715, Note_on_c, 0, 67, 0
2,48745, Note_on_c, 0, 51, 0
2,48766, Note_on_c, 0, 49, 43
2,48857, Note_on_c, 0, 49, 0
2,48873, Note_on_c, 0, 75, 56
2,48879, Note_on_c, 0, 47, 44
2,48885, Note_on_c, 0, 68, 42
2,48937, Note_on_c, 0, 75, 0
2,48945, Note_on_c, 0, 68, 0
2,48945, Note_on_c, 0, 68, 3
2,48960, Note_on_c, 0, 47, 0
2,48962, Note_on_c, 0, 73, 57
2,48968, Note_on_c, 0, 46, 50
2,49043, Note_on_c, 0, 46, 0
2,49058, Note_on_c, 0, 73, 0
2,49066, Note_on_c, 0, 75, 66
2,49085, Note_on_c, 0, 47, 50
2,49159, Note_on_c, 0, 75, 0
2,49163, Note_on_c, 0, 47, 0
2,49178, Note_on_c, 0, 44, 57
2,49178, Note_on_c, 0, 71, 63
2,49267, Note_on_c, 0, 76, 73
2,49271, Note_on_c, 0, 49, 58
2,49284, Note_on_c, 0, 71, 0
2,49289, Note_on_c, 0, 44, 0
2,49368, Note_on_c, 0, 49, 0
2,49381, Note_on_c, 0, 75, 80
2,49385, Note_on_c, 0, 47, 55
2,49420, Note_on_c, 0, 76, 0
2,49486, Note_on_c, 0, 47, 0
2,49486, Note_on_c, 0, 73, 82
2,49492, Note_on_c, 0, 46, 76
2,49530, Note_on_c, 0, 75, 0
2,49558, Note_on_c, 0, 46, 0
2,49570, Note_on_c, 0, 68, 0
2,49592, Note_on_c, 0, 68, 29
2,49594, Note_on_c, 0, 71, 77
2,49612, Note_on_c, 0, 73, 0
2,49698, Note_on_c, 0, 71, 0
2,49698, Note_on_c, 0, 73, 78
2,49738, Note_on_c, 0, 68, 0
2,49805, Note_on_c, 0, 70, 81
2,49816, Note_on_c, 0, 73, 0
2,49821, Note_on_c, 0, 66, 66
2,49826, Note_on_c, 0, 51, 55
2,49908, Note_on_c, 0, 75, 81
2,49941, Note_on_c, 0, 51, 0
2,49954, Note_on_c, 0, 70, 0
2,50010, Note_on_c, 0, 73, 78
2,50082, Note_on_c, 0, 75, 0
2,50099, Note_on_c, 0, 66, 0
2,50121, Note_on_c, 0, 72, 82
2,50152, Note_on_c, 0, 44, 50
2,50155, Note_on_c, 0, 73, 0
2,50218, Note_on_c, 0, 70, 81
2,50220, Note_on_c, 0, 72, 0
2,50286, Note_on_c, 0, 44, 0
2,50312, Note_on_c, 0, 68, 75
2,50323, Note_on_c, 0, 70, 0
2,50354, Note_on_c, 0, 68, 0
2,50432, Note_on_c, 0, 73, 66
2,50445, Note_on_c, 0, 64, 59
2,50526, Note_on_c, 0, 64, 0
2,50533, Note_on_c, 0, 63, 69
2,50619, Note_on_c, 0, 63, 0
2,50640, Note_on_c, 0, 61, 73
2,50685, Note_on_c, 0, 61, 0
2,50743, Note_on_c, 0, 63, 69
2,50778, Note_on_c, 0, 56, 39
2,50833, Note_on_c, 0, 56, 0
2,50868, Note_on_c, 0, 54, 47
2,50888, Note_on_c, 0, 73, 0
2,50966, Note_on_c, 0, 54, 0
2,50971, Note_on_c, 0, 56, 52
2,51057, Note_on_c, 0, 56, 0
2,51088, Note_on_c, 0, 71, 79
2,51094, Note_on_c, 0, 51, 46
2,51185, Note_on_c, 0, 51, 0
2,51198, Note_on_c, 0, 56, 47
2,51267, Note_on_c, 0, 56, 0
2,51295, Note_on_c, 0, 54, 47
2,51426, Note_on_c, 0, 53, 48
2,51437, Note_on_c, 0, 61, 60
2,51444, Note_on_c, 0, 54, 0
2,51475, Note_on_c, 0, 63, 0
2,51528, Note_on_c, 0, 53, 0
2,51545, Note_on_c, 0, 51, 44
2,51653, Note_on_c, 0, 49, 50
2,51661, Note_on_c, 0, 51, 0
2,51763, Note_on_c, 0, 70, 62
2,51791, Note_on_c, 0, 54, 48
2,51806, Note_on_c, 0, 71, 0
2,51808, Note_on_c, 0, 49, 0
2,51861, Note_on_c, 0, 70, 0
2,51862, Note_on_c, 0, 68, 59
2,51885, Note_on_c, 0, 61, 0
2,51949, Note_on_c, 0, 68, 0
2,51959, Note_on_c, 0, 66, 60
2,52016, Note_on_c, 0, 66, 0
2,52077, Note_on_c, 0, 68, 61
2,52081, Note_on_c, 0, 59, 53
2,52144, Note_on_c, 0, 59, 0
2,52188, Note_on_c, 0, 58, 47
2,52273, Note_on_c, 0, 58, 0
2,52301, Note_on_c, 0, 59, 42
2,52376, Note_on_c, 0, 54, 0
2,52390, Note_on_c, 0, 59, 0
2,52417, Note_on_c, 0, 56, 53
2,52421, Note_on_c, 0, 52, 45
2,52481, Note_on_c, 0, 56, 0
2,52522, Note_on_c, 0, 61, 56
2,52599, Note_on_c, 0, 61, 0
2,52662, Note_on_c, 0, 59, 49
2,52729, Note_on_c, 0, 59, 0
2,52738, Note_on_c, 0, 66, 63
2,52740, Note_on_c, 0, 58, 64
2,52766, Note_on_c, 0, 68, 0
2,52859, Note_on_c, 0, 58, 0
2,52862, Note_on_c, 0, 56, 59
2,52875, Note_on_c, 0, 52, 0
2,52952, Note_on_c, 0, 54, 64
2,52960, Note_on_c, 0, 56, 0
2,52989, Note_on_c, 0, 54, 0
2,53037, Note_on_c, 0, 59, 68
2,53071, Note_on_c, 0, 51, 58
2,53151, Note_on_c, 0, 51, 0
2,53165, Note_on_c, 0, 49, 65
2,53254, Note_on_c, 0, 49, 0
2,53261, Note_on_c, 0, 47, 68
2,53363, Note_on_c, 0, 66, 0
2,53368, Note_on_c, 0, 64, 68
2,53371, Note_on_c, 0, 49, 70
2,53383, Note_on_c, 0, 47, 0
2,53466, Note_on_c, 0, 63, 70
2,53475, Note_on_c, 0, 64, 0
2,53489, Note_on_c, 0, 49, 0
2,53500, Note_on_c, 0, 59, 0
2,53554, Note_on_c, 0, 63, 0
2,53573, Note_on_c, 0, 64, 75
2,53663, Note_on_c, 0, 64, 0
2,53682, Note_on_c, 0, 61, 63
2,53686, Note_on_c, 0, 58, 49
2,53687, Note_on_c, 0, 54, 43
2,53763, Note_on_c, 0, 54, 0
2,53766, Note_on_c, 0, 61, 0
2,53771, Note_on_c, 0, 66, 59
2,53852, Note_on_c, 0, 58, 0
2,53875, Note_on_c, 0, 66, 0
2,53884, Note_on_c, 0, 64, 58
2,53940, Note_on_c, 0, 64, 0
2,54001, Note_on_c, 0, 63, 60
2,54022, Note_on_c, 0, 59, 37
2,54034, Note_on_c, 0, 47, 31
2,54054, Note_on_c, 0, 63, 0
2,54075, Note_on_c, 0, 47, 0
2,54105, Note_on_c, 0, 66, 53
2,54163, Note_on_c, 0, 59, 0
2,54204, Note_on_c, 0, 66, 0
2,54221, Note_on_c, 0, 71, 54
2,54330, Note_on_c, 0, 61, 66
2,54362, Note_on_c, 0, 61, 0
2,54443, Note_on_c, 0, 71, 0
2,54451, Note_on_c, 0, 69, 63
2,54524, Note_on_c, 0, 69, 0
2,54541, Note_on_c, 0, 59, 69
2,54560, Note_on_c, 0, 68, 75
2,54595, Note_on_c, 0, 59, 0
2,54632, Note_on_c, 0, 68, 0
2,54648, Note_on_c, 0, 63, 74
2,54653, Note_on_c, 0, 57, 61
2,54665, Note_on_c, 0, 66, 81
2,54705, Note_on_c, 0, 66, 0
2,54776, Note_on_c, 0, 77, 66
2,54805, Note_on_c, 0, 76, 49
2,54806, Note_on_c, 0, 76, 0
2,54875, Note_on_c, 0, 78, 79
2,54896, Note_on_c, 0, 57, 0
2,54897, Note_on_c, 0, 77, 0
2,54944, Note_on_c, 0, 63, 0
2,54965, Note_on_c, 0, 78, 0
2,54985, Note_on_c, 0, 65, 69
2,54985, Note_on_c, 0, 80, 83
2,55010, Note_on_c, 0, 56, 56
2,55100, Note_on_c, 0, 73, 63
2,55111, Note_on_c, 0, 80, 0
2,55160, Note_on_c, 0, 56, 0
2,55171, Note_on_c, 0, 73, 0
2,55197, Note_on_c, 0, 71, 60
2,55227, Note_on_c, 0, 71, 0
2,55274, Note_on_c, 0, 65, 0
2,55306, Note_on_c, 0, 66, 66
2,55315, Note_on_c, 0, 54, 48
2,55315, Note_on_c, 0, 69, 60
2,55369, Note_on_c, 0, 66, 0
2,55417, Note_on_c, 0, 61, 59
2,55519, Note_on_c, 0, 66, 56
2,55536, Note_on_c, 0, 61, 0
2,55545, Note_on_c, 0, 69, 0
2,55619, Note_on_c, 0, 66, 0
2,55628, Note_on_c, 0, 56, 59
2,55649, Note_on_c, 0, 54, 0
2,55678, Note_on_c, 0, 56, 0
2,55717, Note_on_c, 0, 64, 60
2,55780, Note_on_c, 0, 64, 0
2,55816, Note_on_c, 0, 63, 51
2,55825, Note_on_c, 0, 78, 74
2,55931, Note_on_c, 0, 58, 30
2,55935, Note_on_c, 0, 63, 0
2,55939, Note_on_c, 0, 78, 0
2,55942, Note_on_c, 0, 76, 68
2,55948, Note_on_c, 0, 61, 51
2,56035, Note_on_c, 0, 72, 69
2,56053, Note_on_c, 0, 76, 0
2,56098, Note_on_c, 0, 72, 0
2,56138, Note_on_c, 0, 73, 71
2,56170, Note_on_c, 0, 61, 0
2,56198, Note_on_c, 0, 73, 0
2,56256, Note_on_c, 0, 75, 76
2,56274, Note_on_c, 0, 60, 52
2,56300, Note_on_c, 0, 58, 0
2,56352, Note_on_c, 0, 68, 66
2,56441, Note_on_c, 0, 66, 72
2,56474, Note_on_c, 0, 68, 0
2,56514, Note_on_c, 0, 60, 0
2,56544, Note_on_c, 0, 75, 0
2,56558, Note_on_c, 0, 64, 72
2,56558, Note_on_c, 0, 66, 0
2,56562, Note_on_c, 0, 61, 58
2,56598, Note_on_c, 0, 61, 0
2,56637, Note_on_c, 0, 64, 0
2,56642, Note_on_c, 0, 73, 77
2,56702, Note_on_c, 0, 73, 0
2,56746, Note_on_c, 0, 75, 80
2,56781, Note_on_c, 0, 56, 46
2,56811, Note_on_c, 0, 75, 0
2,56832, Note_on_c, 0, 56, 0
2,56860, Note_on_c, 0, 76, 69
2,56893, Note_on_c, 0, 61, 45
2,56965, Note_on_c, 0, 69, 48
2,57024, Note_on_c, 0, 61, 0
2,57049, Control_c, 0, 64, 62
2,57064, Control_c, 0, 64, 66
2,57064, Note_on_c, 0, 49, 37
2,57064, Note_on_c, 0, 76, 0
2,57070, Note_on_c, 0, 69, 0
2,57077, Note_on_c, 0, 68, 70
2,57080, Control_c, 0, 64, 69
2,57095, Control_c, 0, 64, 71
2,57110, Control_c, 0, 64, 73
2,57120, Note_on_c, 0, 68, 0
2,57126, Control_c, 0, 64, 74
2,57141, Control_c, 0, 64, 75
2,57167, Note_on_c, 0, 51, 59
2,57169, Control_c, 0, 64, 74
2,57181, Note_on_c, 0, 66, 82
2,57184, Control_c, 0, 64, 72
2,57199, Control_c, 0, 64, 67
2,57200, Note_on_c, 0, 49, 0
2,57215, Control_c, 0, 64, 54
2,57230, Control_c, 0, 64, 0
2,57232, Note_on_c, 0, 51, 0
2,57267, Note_on_c, 0, 59, 70
2,57276, Note_on_c, 0, 75, 84
2,57307, Note_on_c, 0, 66, 0
2,57310, Note_on_c, 0, 59, 0
2,57373, Note_on_c, 0, 76, 85
2,57380, Note_on_c, 0, 61, 57
2,57416, Note_on_c, 0, 75, 0
2,57459, Note_on_c, 0, 63, 69
2,57479, Note_on_c, 0, 61, 0
2,57490, Note_on_c, 0, 78, 89
2,57522, Note_on_c, 0, 76, 0
2,57540, Note_on_c, 0, 63, 0
2,57565, Note_on_c, 0, 64, 64
2,57580, Control_c, 0, 64, 44
2,57594, Control_c, 0, 64, 64
2,57597, Note_on_c, 0, 71, 67
2,57610, Control_c, 0, 64, 67
2,57625, Control_c, 0, 64, 71
2,57637, Note_on_c, 0, 78, 0
2,57640, Control_c, 0, 64, 77
2,57656, Control_c, 0, 64, 82
2,57671, Control_c, 0, 64, 86
2,57674, Note_on_c, 0, 63, 58
2,57677, Note_on_c, 0, 71, 0
2,57678, Note_on_c, 0, 64, 0
2,57686, Control_c, 0, 64, 88
2,57689, Note_on_c, 0, 69, 73
2,57695, Note_on_c, 0, 66, 62
2,57701, Control_c, 0, 64, 89
2,57716, Control_c, 0, 64, 90
2,57760, Note_on_c, 0, 63, 0
2,57781, Note_on_c, 0, 68, 78
2,57787, Note_on_c, 0, 69, 0
2,57795, Note_on_c, 0, 66, 0
2,57799, Control_c, 0, 64, 89
2,57805, Note_on_c, 0, 68, 0
2,57813, Note_on_c, 0, 64, 68
2,57815, Control_c, 0, 64, 85
2,57830, Control_c, 0, 64, 78
2,57846, Control_c, 0, 64, 69
2,57861, Control_c, 0, 64, 21
2,57862, Note_on_c, 0, 64, 0
2,57875, Control_c, 0, 64, 0
2,57909, Note_on_c, 0, 80, 80
2,57913, Note_on_c, 0, 52, 66
2,57980, Note_on_c, 0, 80, 0
2,57990, Note_on_c, 0, 52, 0
2,58000, Note_on_c, 0, 54, 57
2,58004, Note_on_c, 0, 81, 83
2,58090, Note_on_c, 0, 54, 0
2,58100, Note_on_c, 0, 83, 83
2,58105, Note_on_c, 0, 56, 62
2,58110, Note_on_c, 0, 81, 0
2,58191, Note_on_c, 0, 56, 0
2,58199, Note_on_c, 0, 76, 73
2,58221, Note_on_c, 0, 54, 51
2,58271, Note_on_c, 0, 83, 0
2,58286, Note_on_c, 0, 76, 0
2,58294, Note_on_c, 0, 74, 70
2,58316, Note_on_c, 0, 54, 0
2,58318, Note_on_c, 0, 56, 60
2,58343, Note_on_c, 0, 74, 0
2,58397, Note_on_c, 0, 73, 75
2,58399, Note_on_c, 0, 56, 0
2,58425, Note_on_c, 0, 57, 52
2,58476, Note_on_c, 0, 57, 0
2,58511, Note_on_c, 0, 56, 48
2,58541, Note_on_c, 0, 65, 40
2,58592, Note_on_c, 0, 65, 0
2,58594, Note_on_c, 0, 56, 0
2,58616, Note_on_c, 0, 66, 57
2,58630, Note_on_c, 0, 54, 40
2,58665, Note_on_c, 0, 54, 0
2,58713, Note_on_c, 0, 53, 55
2,58713, Note_on_c, 0, 66, 0
2,58715, Note_on_c, 0, 68, 64
2,58775, Note_on_c, 0, 53, 0
2,58776, Note_on_c, 0, 73, 0
2,58795, Note_on_c, 0, 68, 0
2,58800, Note_on_c, 0, 51, 54
2,58818, Note_on_c, 0, 61, 65
2,58856, Note_on_c, 0, 61, 0
2,58888, Note_on_c, 0, 51, 0
2,58908, Note_on_c, 0, 53, 58
2,58914, Note_on_c, 0, 59, 68
2,58976, Note_on_c, 0, 53, 0
2,58989, Note_on_c, 0, 59, 0
2,59013, Note_on_c, 0, 54, 51
2,59038, Note_on_c, 0, 57, 55
2,59040, Control_c, 0, 64, 58
2,59055, Control_c, 0, 64, 65
2,59062, Note_on_c, 0, 57, 0
2,59070, Control_c, 0, 64, 67
2,59086, Control_c, 0, 64, 68
2,59101, Control_c, 0, 64, 69
2,59116, Control_c, 0, 64, 73
2,59131, Control_c, 0, 64, 77
2,59141, Note_on_c, 0, 72, 64
2,59146, Control_c, 0, 64, 81
2,59162, Control_c, 0, 64, 84
2,59178, Control_c, 0, 64, 85
2,59193, Control_c, 0, 64, 86
2,59208, Control_c, 0, 64, 87
2,59224, Note_on_c, 0, 69, 66
2,59249, Note_on_c, 0, 72, 0
2,59259, Note_on_c, 0, 73, 69
2,59291, Control_c, 0, 64, 85
2,59306, Control_c, 0, 64, 79
2,59321, Control_c, 0, 64, 70
2,59337, Control_c, 0, 64, 44
2,59338, Note_on_c, 0, 69, 0
2,59352, Control_c, 0, 64, 0
2,59367, Note_on_c, 0, 61, 48
2,59375, Note_on_c, 0, 75, 72
2,59378, Note_on_c, 0, 73, 0
2,59443, Note_on_c, 0, 61, 0
2,59463, Note_on_c, 0, 60, 49
2,59468, Note_on_c, 0, 75, 0
2,59471, Note_on_c, 0, 73, 79
2,59594, Note_on_c, 0, 75, 75
2,59623, Note_on_c, 0, 73, 0
2,59664, Note_on_c, 0, 60, 0
2,59693, Note_on_c, 0, 68, 84
2,59696, Note_on_c, 0, 54, 0
2,59698, Note_on_c, 0, 53, 49
2,59703, Note_on_c, 0, 75, 0
2,59711, Note_on_c, 0, 61, 55
2,59796, Note_on_c, 0, 70, 87
2,59813, Note_on_c, 0, 68, 0
2,59894, Note_on_c, 0, 70, 0
2,59895, Note_on_c, 0, 72, 79
2,59999, Note_on_c, 0, 73, 87
2,60007, Note_on_c, 0, 53, 0
2,60010, Note_on_c, 0, 72, 0
2,60014, Note_on_c, 0, 52, 51
2,60105, Note_on_c, 0, 75, 90
2,60122, Note_on_c, 0, 73, 0
2,60212, Note_on_c, 0, 76, 83
2,60223, Note_on_c, 0, 75, 0
2,60322, Note_on_c, 0, 78, 86
2,60331, Note_on_c, 0, 76, 0
2,60346, Note_on_c, 0, 51, 35
2,60357, Note_on_c, 0, 52, 0
2,60424, Note_on_c, 0, 78, 0
2,60428, Note_on_c, 0, 76, 76
2,60506, Note_on_c, 0, 61, 0
2,60514, Note_on_c, 0, 76, 0
2,60532, Note_on_c, 0, 78, 72
2,60596, Note_on_c, 0, 51, 0
2,60606, Note_on_c, 0, 78, 0
2,60647, Note_on_c, 0, 75, 63
2,60651, Note_on_c, 0, 56, 38
2,60664, Note_on_c, 0, 60, 42
2,60743, Note_on_c, 0, 80, 62
2,60745, Note_on_c, 0, 75, 0
2,60780, Note_on_c, 0, 60, 0
2,60827, Control_c, 0, 64, 60
2,60842, Control_c, 0, 64, 65
2,60845, Note_on_c, 0, 78, 72
2,60857, Control_c, 0, 64, 66
2,60859, Note_on_c, 0, 80, 0
2,60872, Control_c, 0, 64, 68
2,60880, Note_on_c, 0, 78, 0
2,60888, Control_c, 0, 64, 69
2,60902, Control_c, 0, 64, 70
2,60910, Note_on_c, 0, 56, 0
2,60917, Control_c, 0, 64, 71
2,60948, Control_c, 0, 64, 70
2,60963, Control_c, 0, 64, 69
2,60979, Control_c, 0, 64, 63
2,60979, Note_on_c, 0, 76, 74
2,60990, Note_on_c, 0, 61, 47
2,60994, Control_c, 0, 64, 0
2,60995, Note_on_c, 0, 49, 46
2,61080, Note_on_c, 0, 64, 61
2,61101, Note_on_c, 0, 61, 0
2,61162, Note_on_c, 0, 64, 0
2,61181, Note_on_c, 0, 76, 0
2,61190, Note_on_c, 0, 69, 58
2,61207, Note_on_c, 0, 49, 0
2,61305, Note_on_c, 0, 75, 59
2,61330, Note_on_c, 0, 47, 47
2,61347, Note_on_c, 0, 69, 0
2,61400, Note_on_c, 0, 67, 51
2,61475, Note_on_c, 0, 75, 0
2,61477, Note_on_c, 0, 67, 0
2,61499, Note_on_c, 0, 68, 48
2,61518, Note_on_c, 0, 47, 0
2,61593, Note_on_c, 0, 68, 0
2,61632, Note_on_c, 0, 73, 52
2,61659, Note_on_c, 0, 45, 42
2,61728, Note_on_c, 0, 66, 49
2,61822, Note_on_c, 0, 65, 54
2,61832, Note_on_c, 0, 66, 0
2,61905, Note_on_c, 0, 73, 0
2,61916, Note_on_c, 0, 45, 0
2,61920, Note_on_c, 0, 65, 0
2,61940, Note_on_c, 0, 66, 62
2,61988, Note_on_c, 0, 66, 0
2,62027, Note_on_c, 0, 73, 60
2,62116, Note_on_c, 0, 46, 57
2,62128, Note_on_c, 0, 73, 0
2,62134, Note_on_c, 0, 76, 63
2,62152, Note_on_c, 0, 46, 0
2,62226, Note_on_c, 0, 47, 58
2,62233, Note_on_c, 0, 75, 71
2,62233, Note_on_c, 0, 76, 0
2,62327, Note_on_c, 0, 63, 57
2,62414, Note_on_c, 0, 47, 0
2,62425, Note_on_c, 0, 75, 0
2,62437, Note_on_c, 0, 63, 0
2,62445, Note_on_c, 0, 68, 53
2,62550, Note_on_c, 0, 68, 0
2,62559, Note_on_c, 0, 45, 51
2,62559, Note_on_c, 0, 73, 60
2,62658, Note_on_c, 0, 65, 45
2,62719, Note_on_c, 0, 45, 0
2,62756, Note_on_c, 0, 65, 0
2,62767, Note_on_c, 0, 73, 0
2,62768, Note_on_c, 0, 66, 38
2,62887, Note_on_c, 0, 71, 51
2,62890, Note_on_c, 0, 44, 33
2,62900, Note_on_c, 0, 66, 0
2,62960, Note_on_c, 0, 64, 43
2,63068, Note_on_c, 0, 63, 45
2,63074, Note_on_c, 0, 64, 0
2,63137, Note_on_c, 0, 44, 0
2,63152, Note_on_c, 0, 63, 0
2,63165, Note_on_c, 0, 71, 0
2,63182, Note_on_c, 0, 64, 46
2,63295, Note_on_c, 0, 71, 36
2,63336, Note_on_c, 0, 71, 0
2,63357, Note_on_c, 0, 64, 0
2,63373, Note_on_c, 0, 74, 51
2,63380, Note_on_c, 0, 56, 54
2,63459, Note_on_c, 0, 56, 0
2,63477, Note_on_c, 0, 57, 65
2,63482, Note_on_c, 0, 73, 67
2,63483, Note_on_c, 0, 74, 0
2,63549, Note_on_c, 0, 57, 0
2,63579, Note_on_c, 0, 56, 61
2,63579, Note_on_c, 0, 73, 0
2,63587, Note_on_c, 0, 71, 61
2,63678, Note_on_c, 0, 56, 0
2,63678, Note_on_c, 0, 57, 73
2,63679, Note_on_c, 0, 71, 0
2,63687, Note_on_c, 0, 73, 67
2,63715, Note_on_c, 0, 57, 0
2,63715, Note_on_c, 0, 73, 0
2,63781, Note_on_c, 0, 66, 71
2,63785, Note_on_c, 0, 63, 58
2,63791, Note_on_c, 0, 59, 74
2,63871, Note_on_c, 0, 59, 0
2,63877, Note_on_c, 0, 66, 0
2,63877, Note_on_c, 0, 71, 61
2,63896, Note_on_c, 0, 57, 68
2,63913, Note_on_c, 0, 63, 0
2,63959, Note_on_c, 0, 57, 0
2,63989, Note_on_c, 0, 69, 71
2,64001, Note_on_c, 0, 71, 0
2,64006, Note_on_c, 0, 59, 53
2,64062, Note_on_c, 0, 59, 0
2,64080, Note_on_c, 0, 69, 0
2,64098, Note_on_c, 0, 68, 71
2,64103, Note_on_c, 0, 52, 76
2,64109, Note_on_c, 0, 62, 62
2,64198, Note_on_c, 0, 66, 62
2,64205, Note_on_c, 0, 68, 0
2,64252, Note_on_c, 0, 66, 0
2,64272, Note_on_c, 0, 62, 0
2,64276, Note_on_c, 0, 52, 0
2,64304, Note_on_c, 0, 68, 58
2,64397, Note_on_c, 0, 68, 0
2,64429, Note_on_c, 0, 57, 79
2,64439, Note_on_c, 0, 61, 55
2,64441, Note_on_c, 0, 64, 52
2,64521, Note_on_c, 0, 69, 44
2,64542, Note_on_c, 0, 64, 0
2,64567, Note_on_c, 0, 57, 0
2,64637, Note_on_c, 0, 61, 0
2,64638, Note_on_c, 0, 68, 59
2,64639, Note_on_c, 0, 69, 0
2,64774, Note_on_c, 0, 51, 71
2,64775, Note_on_c, 0, 60, 48
2,64775, Note_on_c, 0, 66, 57
2,64775, Note_on_c, 0, 68, 0
2,64857, Note_on_c, 0, 66, 0
2,64867, Note_on_c, 0, 64, 59
2,64926, Note_on_c, 0, 51, 0
2,64973, Note_on_c, 0, 64, 0
2,64979, Note_on_c, 0, 66, 63
2,65013, Note_on_c, 0, 60, 0
2,65053, Note_on_c, 0, 66, 0
2,65100, Note_on_c, 0, 68, 61
2,65114, Note_on_c, 0, 52, 66
2,65123, Note_on_c, 0, 59, 41
2,65214, Note_on_c, 0, 66, 55
2,65214, Note_on_c, 0, 68, 0
2,65227, Note_on_c, 0, 52, 0
2,65306, Note_on_c, 0, 68, 53
2,65309, Note_on_c, 0, 66, 0
2,65340, Note_on_c, 0, 68, 0
2,65372, Note_on_c, 0, 59, 0
2,65421, Note_on_c, 0, 69, 65
2,65444, Note_on_c, 0, 45, 54
2,65459, Note_on_c, 0, 61, 58
2,65530, Note_on_c, 0, 61, 0
2,65546, Note_on_c, 0, 47, 55
2,65557, Note_on_c, 0, 62, 64
2,65563, Note_on_c, 0, 45, 0
2,65633, Note_on_c, 0, 62, 0
2,65643, Note_on_c, 0, 61, 72
2,65646, Note_on_c, 0, 47, 0
2,65646, Note_on_c, 0, 49, 57
2,65734, Note_on_c, 0, 49, 0
2,65737, Note_on_c, 0, 61, 0
2,65739, Note_on_c, 0, 50, 64
2,65739, Note_on_c, 0, 59, 70
2,65824, Note_on_c, 0, 50, 0
2,65833, Note_on_c, 0, 59, 0
2,65839, Note_on_c, 0, 61, 74
2,65847, Note_on_c, 0, 52, 61
2,65911, Note_on_c, 0, 52, 0
2,65933, Note_on_c, 0, 61, 0
2,65937, Note_on_c, 0, 50, 55
2,65946, Note_on_c, 0, 59, 75
2,66012, Note_on_c, 0, 50, 0
2,66025, Note_on_c, 0, 49, 59
2,66037, Note_on_c, 0, 59, 0
2,66048, Note_on_c, 0, 64, 71
2,66085, Note_on_c, 0, 49, 0
2,66098, Note_on_c, 0, 69, 0
2,66120, Note_on_c, 0, 47, 60
2,66142, Note_on_c, 0, 62, 76
2,66164, Note_on_c, 0, 64, 0
2,66223, Note_on_c, 0, 47, 0
2,66227, Note_on_c, 0, 45, 53
2,66246, Note_on_c, 0, 62, 0
2,66249, Note_on_c, 0, 61, 73
2,66315, Note_on_c, 0, 61, 0
2,66320, Note_on_c, 0, 45, 0
2,66349, Note_on_c, 0, 68, 79
2,66354, Note_on_c, 0, 52, 65
2,66354, Note_on_c, 0, 59, 63
2,66417, Control_c, 0, 64, 49
2,66432, Control_c, 0, 64, 65
2,66439, Note_on_c, 0, 68, 0
2,66448, Control_c, 0, 64, 68
2,66452, Note_on_c, 0, 52, 0
2,66452, Note_on_c, 0, 52, 19
2,66463, Control_c, 0, 64, 70
2,66479, Control_c, 0, 64, 72
2,66480, Note_on_c, 0, 57, 55
2,66493, Control_c, 0, 64, 75
2,66496, Note_on_c, 0, 59, 0
2,66508, Control_c, 0, 64, 77
2,66524, Control_c, 0, 64, 79
2,66539, Control_c, 0, 64, 81
2,66551, Note_on_c, 0, 56, 75
2,66554, Control_c, 0, 64, 82
2,66558, Note_on_c, 0, 57, 0
2,66570, Control_c, 0, 64, 83
2,66580, Note_on_c, 0, 56, 0
2,66585, Control_c, 0, 64, 84
2,66661, Control_c, 0, 64, 83
2,66668, Note_on_c, 0, 54, 70
2,66676, Control_c, 0, 64, 78
2,66688, Note_on_c, 0, 69, 76
2,66692, Control_c, 0, 64, 69
2,66707, Control_c, 0, 64, 0
2,66766, Note_on_c, 0, 54, 0
2,66766, Note_on_c, 0, 69, 0
2,66770, Note_on_c, 0, 73, 75
2,66785, Note_on_c, 0, 57, 67
2,66851, Note_on_c, 0, 57, 0
2,66863, Note_on_c, 0, 52, 0
2,66872, Note_on_c, 0, 56, 74
2,66878, Note_on_c, 0, 71, 77
2,66888, Note_on_c, 0, 73, 0
2,66931, Note_on_c, 0, 56, 0
2,66970, Note_on_c, 0, 71, 0
2,66983, Note_on_c, 0, 57, 76
2,66984, Note_on_c, 0, 73, 83
2,66988, Note_on_c, 0, 51, 74
2,67072, Note_on_c, 0, 57, 0
2,67074, Note_on_c, 0, 71, 84
2,67099, Note_on_c, 0, 73, 0
2,67108, Note_on_c, 0, 52, 70
2,67143, Note_on_c, 0, 71, 0
2,67156, Note_on_c, 0, 51, 0
2,67186, Note_on_c, 0, 54, 68
2,67187, Note_on_c, 0, 69, 85
2,67206, Note_on_c, 0, 52, 0
2,67235, Note_on_c, 0, 69, 0
2,67249, Note_on_c, 0, 54, 0
2,67299, Note_on_c, 0, 50, 66
2,67301, Note_on_c, 0, 71, 90
2,67302, Note_on_c, 0, 56, 76
2,67381, Note_on_c, 0, 56, 0
2,67398, Note_on_c, 0, 74, 80
2,67410, Note_on_c, 0, 59, 70
2,67412, Note_on_c, 0, 71, 0
2,67424, Note_on_c, 0, 50, 0
2,67491, Note_on_c, 0, 59, 0
2,67495, Note_on_c, 0, 57, 69
2,67496, Note_on_c, 0, 66, 79
2,67506, Note_on_c, 0, 74, 0
2,67589, Note_on_c, 0, 57, 0
2,67593, Note_on_c, 0, 66, 0
2,67607, Note_on_c, 0, 49, 72
2,67607, Note_on_c, 0, 59, 73
2,67614, Note_on_c, 0, 65, 78
2,67715, Note_on_c, 0, 54, 70
2,67733, Note_on_c, 0, 59, 0
2,67734, Note_on_c, 0, 65, 0
2,67761, Note_on_c, 0, 49, 0
2,67819, Note_on_c, 0, 56, 75
2,67832, Note_on_c, 0, 54, 0
2,67899, Note_on_c, 0, 56, 0
2,67926, Note_on_c, 0, 73, 78
2,67929, Note_on_c, 0, 57, 77
2,68033, Note_on_c, 0, 48, 77
2,68124, Note_on_c, 0, 49, 79
2,68153, Note_on_c, 0, 48, 0
2,68230, Note_on_c, 0, 69, 73
2,68235, Note_on_c, 0, 49, 0
2,68241, Note_on_c, 0, 51, 80
2,68338, Note_on_c, 0, 49, 79
2,68343, Note_on_c, 0, 51, 0
2,68409, Note_on_c, 0, 73, 0
2,68419, Note_on_c, 0, 57, 0
2,68435, Note_on_c, 0, 51, 85
2,68442, Note_on_c, 0, 49, 0
2,68499, Note_on_c, 0, 51, 0
2,68559, Note_on_c, 0, 69, 0
2,68564, Note_on_c, 0, 72, 79
2,68572, Note_on_c, 0, 44, 82
2,68665, Note_on_c, 0, 46, 81
2,68668, Note_on_c, 0, 68, 69
2,68692, Note_on_c, 0, 44, 0
2,68698, Note_on_c, 0, 72, 0
2,68748, Note_on_c, 0, 46, 0
2,68755, Note_on_c, 0, 48, 84
2,68764, Note_on_c, 0, 66, 72
2,68805, Note_on_c, 0, 68, 0
2,68854, Note_on_c, 0, 48, 0
2,68861, Note_on_c, 0, 49, 78
2,68861, Note_on_c, 0, 66, 0
2,68869, Note_on_c, 0, 71, 75
2,68877, Note_on_c, 0, 65, 67
2,68964, Note_on_c, 0, 51, 76
2,68978, Note_on_c, 0, 65, 0
2,68978, Note_on_c, 0, 66, 76
2,69005, Note_on_c, 0, 49, 0
2,69007, Note_on_c, 0, 71, 0
2,69063, Note_on_c, 0, 51, 0
2,69080, Note_on_c, 0, 53, 78
2,69081, Note_on_c, 0, 66, 0
2,69081, Note_on_c, 0, 68, 77
2,69144, Note_on_c, 0, 68, 0
2,69145, Note_on_c, 0, 53, 0
2,69182, Note_on_c, 0, 70, 76
2,69185, Note_on_c, 0, 54, 77
2,69198, Note_on_c, 0, 61, 60
2,69301, Note_on_c, 0, 52, 72
2,69304, Note_on_c, 0, 54, 0
2,69315, Note_on_c, 0, 61, 0
2,69387, Note_on_c, 0, 70, 0
2,69405, Note_on_c, 0, 52, 0
2,69412, Note_on_c, 0, 54, 73
2,69485, Note_on_c, 0, 54, 0
2,69505, Note_on_c, 0, 75, 90
2,69520, Note_on_c, 0, 60, 67
2,69530, Note_on_c, 0, 51, 60
2,69619, Note_on_c, 0, 60, 0
2,69633, Note_on_c, 0, 56, 65
2,69645, Note_on_c, 0, 51, 0
2,69742, Note_on_c, 0, 56, 0
2,69747, Note_on_c, 0, 54, 60
2,69825, Note_on_c, 0, 54, 0
2,69836, Note_on_c, 0, 68, 66
2,69859, Note_on_c, 0, 52, 58
2,69930, Note_on_c, 0, 68, 0
2,69938, Note_on_c, 0, 52, 0
2,69940, Note_on_c, 0, 66, 68
2,69949, Note_on_c, 0, 51, 60
2,70005, Note_on_c, 0, 51, 0
2,70019, Note_on_c, 0, 52, 63
2,70039, Note_on_c, 0, 66, 0
2,70046, Note_on_c, 0, 68, 75
2,70064, Note_on_c, 0, 75, 0
2,70105, Note_on_c, 0, 68, 0
2,70133, Note_on_c, 0, 52, 0
2,70147, Note_on_c, 0, 73, 87
2,70151, Note_on_c, 0, 49, 70
2,70165, Note_on_c, 0, 64, 69
2,70232, Note_on_c, 0, 54, 57
2,70240, Note_on_c, 0, 64, 0
2,70246, Note_on_c, 0, 49, 0
2,70253, Note_on_c, 0, 69, 69
2,70319, Note_on_c, 0, 54, 0
2,70337, Note_on_c, 0, 52, 56
2,70362, Note_on_c, 0, 68, 68
2,70368, Note_on_c, 0, 69, 0
2,70451, Note_on_c, 0, 52, 0
2,70460, Note_on_c, 0, 51, 76
2,70475, Note_on_c, 0, 66, 73
2,70488, Note_on_c, 0, 68, 0
2,70502, Note_on_c, 0, 51, 0
2,70551, Note_on_c, 0, 66, 0
2,70583, Note_on_c, 0, 64, 66
2,70588, Note_on_c, 0, 73, 0
2,70692, Note_on_c, 0, 64, 0
2,70692, Note_on_c, 0, 66, 68
2,70781, Note_on_c, 0, 72, 80
2,70784, Note_on_c, 0, 66, 0
2,70811, Note_on_c, 0, 63, 70
2,70815, Note_on_c, 0, 56, 63
2,70866, Note_on_c, 0, 56, 0
2,70908, Note_on_c, 0, 63, 0
2,70939, Note_on_c, 0, 69, 43
2,70949, Note_on_c, 0, 72, 0
2,70988, Note_on_c, 0, 69, 0
2,70996, Note_on_c, 0, 66, 65
2,71083, Note_on_c, 0, 66, 0
2,71113, Note_on_c, 0, 73, 81
2,71126, Note_on_c, 0, 49, 69
2,71129, Note_on_c, 0, 64, 63
2,71178, Note_on_c, 0, 49, 0
2,71200, Note_on_c, 0, 64, 0
2,71217, Note_on_c, 0, 63, 61
2,71331, Note_on_c, 0, 64, 63
2,71343, Note_on_c, 0, 63, 0
2,71358, Note_on_c, 0, 73, 0
2,71361, Note_on_c, 0, 64, 0
2,71426, Note_on_c, 0, 69, 69
2,71450, Note_on_c, 0, 61, 62
2,71455, Note_on_c, 0, 54, 60
2,71490, Note_on_c, 0, 54, 0
2,71496, Note_on_c, 0, 61, 0
2,71528, Note_on_c, 0, 69, 0
2,71530, Note_on_c, 0, 68, 63
2,71548, Note_on_c, 0, 66, 53
2,71639, Note_on_c, 0, 66, 0
2,71641, Note_on_c, 0, 64, 67
2,71649, Note_on_c, 0, 69, 69
2,71668, Note_on_c, 0, 68, 0
2,71676, Note_on_c, 0, 64, 0
2,71731, Note_on_c, 0, 69, 0
2,71753, Note_on_c, 0, 66, 76
2,71767, Note_on_c, 0, 63, 58
2,71783, Note_on_c, 0, 59, 51
2,71838, Note_on_c, 0, 63, 0
2,71852, Note_on_c, 0, 71, 70
2,71861, Note_on_c, 0, 61, 63
2,71866, Note_on_c, 0, 66, 0
2,71902, Note_on_c, 0, 59, 0
2,71945, Note_on_c, 0, 63, 69
2,71949, Note_on_c, 0, 61, 0
2,71967, Note_on_c, 0, 69, 82
2,71990, Note_on_c, 0, 63, 0
2,72001, Note_on_c, 0, 71, 0
2,72064, Note_on_c, 0, 59, 74
2,72065, Note_on_c, 0, 68, 85
2,72077, Note_on_c, 0, 69, 0
2,72085, Note_on_c, 0, 52, 62
2,72148, Note_on_c, 0, 59, 0
2,72155, Note_on_c, 0, 52, 0
2,72170, Note_on_c, 0, 64, 71
2,72171, Note_on_c, 0, 66, 76
2,72179, Note_on_c, 0, 68, 0
2,72272, Note_on_c, 0, 64, 0
2,72274, Note_on_c, 0, 63, 82
2,72281, Note_on_c, 0, 66, 0
2,72281, Note_on_c, 0, 68, 77
2,72374, Note_on_c, 0, 64, 79
2,72384, Note_on_c, 0, 61, 83
2,72387, Note_on_c, 0, 57, 65
2,72389, Note_on_c, 0, 63, 0
2,72389, Note_on_c, 0, 68, 0
2,72448, Note_on_c, 0, 57, 0
2,72450, Note_on_c, 0, 61, 0
2,72471, Note_on_c, 0, 69, 76
2,72483, Note_on_c, 0, 64, 0
2,72573, Note_on_c, 0, 68, 81
2,72611, Note_on_c, 0, 69, 0
2,72654, Note_on_c, 0, 68, 0
2,72697, Note_on_c, 0, 66, 76
2,72704, Note_on_c, 0, 51, 76
2,72755, Note_on_c, 0, 51, 0
2,72782, Note_on_c, 0, 66, 0
2,72792, Note_on_c, 0, 60, 78
2,72802, Note_on_c, 0, 66, 50
2,72899, Note_on_c, 0, 58, 76
2,72925, Note_on_c, 0, 60, 0
2,72975, Note_on_c, 0, 58, 0
2,73013, Note_on_c, 0, 60, 81
2,73025, Note_on_c, 0, 56, 61
2,73114, Control_c, 0, 64, 44
2,73126, Note_on_c, 0, 64, 67
2,73130, Control_c, 0, 64, 62
2,73145, Control_c, 0, 64, 65
2,73160, Control_c, 0, 64, 66
2,73176, Control_c, 0, 64, 68
2,73178, Note_on_c, 0, 60, 0
2,73179, Note_on_c, 0, 66, 0
2,73190, Control_c, 0, 64, 71
2,73206, Control_c, 0, 64, 74
2,73218, Note_on_c, 0, 64, 0
2,73221, Control_c, 0, 64, 78
2,73234, Note_on_c, 0, 63, 73
2,73236, Control_c, 0, 64, 80
2,73252, Control_c, 0, 64, 82
2,73266, Control_c, 0, 64, 82
2,73281, Control_c, 0, 64, 83
2,73299, Note_on_c, 0, 63, 0
2,73346, Note_on_c, 0, 64, 80
2,73350, Note_on_c, 0, 61, 75
2,73358, Control_c, 0, 64, 81
2,73373, Control_c, 0, 64, 76
2,73388, Control_c, 0, 64, 67
2,73403, Control_c, 0, 64, 0
2,73447, Note_on_c, 0, 68, 82
2,73450, Note_on_c, 0, 64, 0
2,73550, Note_on_c, 0, 73, 77
2,73576, Note_on_c, 0, 61, 0
2,73590, Note_on_c, 0, 68, 0
2,73665, Note_on_c, 0, 63, 92
2,73770, Note_on_c, 0, 72, 73
2,73798, Note_on_c, 0, 73, 0
2,73866, Note_on_c, 0, 70, 81
2,73890, Note_on_c, 0, 63, 0
2,73906, Note_on_c, 0, 72, 0
2,73931, Note_on_c, 0, 70, 0
2,73988, Note_on_c, 0, 66, 75
2,73988, Note_on_c, 0, 72, 82
2,74086, Note_on_c, 0, 75, 79
2,74113, Note_on_c, 0, 72, 0
2,74198, Note_on_c, 0, 80, 87
2,74213, Note_on_c, 0, 75, 0
2,74243, Note_on_c, 0, 66, 0
2,74294, Note_on_c, 0, 64, 82
2,74384, Note_on_c, 0, 78, 77
2,74386, Note_on_c, 0, 63, 83
2,74393, Note_on_c, 0, 64, 0
2,74436, Note_on_c, 0, 80, 0
2,74480, Note_on_c, 0, 76, 77
2,74486, Note_on_c, 0, 61, 78
2,74492, Note_on_c, 0, 63, 0
2,74504, Note_on_c, 0, 78, 0
2,74529, Note_on_c, 0, 76, 0
2,74563, Note_on_c, 0, 61, 0
2,74596, Note_on_c, 0, 67, 90
2,74599, Note_on_c, 0, 75, 85
2,74700, Note_on_c, 0, 76, 75
2,74737, Note_on_c, 0, 75, 0
2,74813, Note_on_c, 0, 73, 76
2,74819, Note_on_c, 0, 67, 0
2,74832, Note_on_c, 0, 76, 0
2,74896, Note_on_c, 0, 56, 0
2,74914, Note_on_c, 0, 68, 82
2,74914, Note_on_c, 0, 73, 0
2,74920, Note_on_c, 0, 72, 78
2,75025, Note_on_c, 0, 73, 76
2,75034, Note_on_c, 0, 72, 0
2,75061, Note_on_c, 0, 68, 0
2,75094, Note_on_c, 0, 73, 0
2,75127, Note_on_c, 0, 54, 80
2,75131, Note_on_c, 0, 75, 83
2,75188, Note_on_c, 0, 54, 0
2,75213, Note_on_c, 0, 75, 0
2,75231, Note_on_c, 0, 52, 89
2,75235, Note_on_c, 0, 68, 88
2,75291, Note_on_c, 0, 52, 0
2,75317, Note_on_c, 0, 68, 0
2,75342, Note_on_c, 0, 80, 77
2,75389, Note_on_c, 0, 78, 12
2,75390, Note_on_c, 0, 78, 0
2,75426, Note_on_c, 0, 80, 0
2,75442, Note_on_c, 0, 51, 65
2,75458, Note_on_c, 0, 78, 72
2,75460, Note_on_c, 0, 50, 65
2,75493, Note_on_c, 0, 50, 0
2,75502, Note_on_c, 0, 51, 0
2,75526, Note_on_c, 0, 78, 0
2,75595, Note_on_c, 0, 51, 79
2,75597, Note_on_c, 0, 76, 92
2,75609, Note_on_c, 0, 57, 70
2,75630, Note_on_c, 0, 50, 54
2,75654, Note_on_c, 0, 56, 23
2,75655, Note_on_c, 0, 56, 0
2,75690, Note_on_c, 0, 57, 0
2,75692, Note_on_c, 0, 76, 0
2,75697, Note_on_c, 0, 75, 80
2,75711, Note_on_c, 0, 51, 0
2,75718, Note_on_c, 0, 55, 70
2,75725, Note_on_c, 0, 50, 0
2,75795, Note_on_c, 0, 56, 73
2,75801, Note_on_c, 0, 76, 82
2,75819, Note_on_c, 0, 75, 0
2,75830, Note_on_c, 0, 55, 0
2,75838, Note_on_c, 0, 76, 0
2,75840, Note_on_c, 0, 78, 35
2,75866, Note_on_c, 0, 78, 0
2,75896, Note_on_c, 0, 56, 0
2,75913, Note_on_c, 0, 58, 81
2,75930, Note_on_c, 0, 68, 89
2,75986, Note_on_c, 0, 58, 0
2,75991, Note_on_c, 0, 67, 66
2,76001, Note_on_c, 0, 68, 0
2,76003, Note_on_c, 0, 57, 56
2,76018, Note_on_c, 0, 56, 41
2,76050, Note_on_c, 0, 56, 0
2,76062, Note_on_c, 0, 57, 0
2,76063, Note_on_c, 0, 67, 0
2,76080, Note_on_c, 0, 68, 72
2,76086, Note_on_c, 0, 58, 71
2,76137, Note_on_c, 0, 68, 0
2,76139, Note_on_c, 0, 67, 75
2,76151, Note_on_c, 0, 58, 0
2,76199, Note_on_c, 0, 51, 74
2,76214, Note_on_c, 0, 67, 0
2,76214, Note_on_c, 0, 68, 77
2,76225, Note_on_c, 0, 48, 53
2,76275, Note_on_c, 0, 51, 0
2,76309, Note_on_c, 0, 53, 63
2,76393, Note_on_c, 0, 53, 0
2,76408, Note_on_c, 0, 55, 75
2,76511, Note_on_c, 0, 56, 81
2,76540, Note_on_c, 0, 55, 0
2,76552, Note_on_c, 0, 47, 60
2,76578, Note_on_c, 0, 48, 0
2,76600, Note_on_c, 0, 58, 85
2,76608, Note_on_c, 0, 56, 0
2,76613, Note_on_c, 0, 47, 0
2,76710, Note_on_c, 0, 59, 80
2,76716, Note_on_c, 0, 58, 0
2,76812, Note_on_c, 0, 61, 88
2,76819, Note_on_c, 0, 46, 73
2,76821, Note_on_c, 0, 59, 0
2,76891, Note_on_c, 0, 46, 0
2,76910, Note_on_c, 0, 59, 82
2,76911, Note_on_c, 0, 61, 0
2,76916, Note_on_c, 0, 68, 0
2,77000, Note_on_c, 0, 59, 0
2,77032, Note_on_c, 0, 61, 80
2,77116, Note_on_c, 0, 61, 0
2,77137, Note_on_c, 0, 66, 81
2,77148, Note_on_c, 0, 58, 77
2,77161, Note_on_c, 0, 51, 61
2,77203, Note_on_c, 0, 51, 0
2,77242, Note_on_c, 0, 63, 78
2,77243, Note_on_c, 0, 58, 0
2,77355, Note_on_c, 0, 61, 72
2,77393, Note_on_c, 0, 63, 0
2,77456, Note_on_c, 0, 66, 0
2,77461, Note_on_c, 0, 44, 69
2,77465, Note_on_c, 0, 60, 75
2,77467, Note_on_c, 0, 61, 0
2,77499, Note_on_c, 0, 44, 0
2,77565, Note_on_c, 0, 64, 73
2,77596, Note_on_c, 0, 60, 0
2,77629, Note_on_c, 0, 64, 0
2,77675, Note_on_c, 0, 66, 70
2,77751, Note_on_c, 0, 66, 0
2,77795, Note_on_c, 0, 59, 71
2,77810, Note_on_c, 0, 63, 61
2,77816, Note_on_c, 0, 56, 52
2,77895, Note_on_c, 0, 56, 0
2,77907, Note_on_c, 0, 68, 76
2,77910, Note_on_c, 0, 54, 57
2,77921, Note_on_c, 0, 63, 0
2,78002, Note_on_c, 0, 54, 0
2,78009, Note_on_c, 0, 56, 65
2,78012, Note_on_c, 0, 66, 74
2,78057, Note_on_c, 0, 59, 0
2,78106, Note_on_c, 0, 56, 0
2,78112, Note_on_c, 0, 65, 78
2,78117, Note_on_c, 0, 49, 79
2,78118, Note_on_c, 0, 68, 0
2,78168, Note_on_c, 0, 49, 0
2,78171, Note_on_c, 0, 66, 0
2,78207, Note_on_c, 0, 58, 78
2,78211, Note_on_c, 0, 65, 0
2,78306, Note_on_c, 0, 59, 80
2,78405, Note_on_c, 0, 58, 0
2,78415, Note_on_c, 0, 64, 76
2,78416, Note_on_c, 0, 56, 81
2,78417, Note_on_c, 0, 49, 71
2,78421, Note_on_c, 0, 59, 0
2,78505, Note_on_c, 0, 49, 0
2,78522, Note_on_c, 0, 47, 64
2,78525, Note_on_c, 0, 56, 0
2,78525, Note_on_c, 0, 61, 80
2,78627, Note_on_c, 0, 49, 64
2,78631, Note_on_c, 0, 59, 77
2,78638, Note_on_c, 0, 61, 0
2,78660, Note_on_c, 0, 47, 0
2,78734, Note_on_c, 0, 59, 0
2,78738, Note_on_c, 0, 49, 0
2,78746, Note_on_c, 0, 58, 81
2,78752, Note_on_c, 0, 42, 72
2,78788, Note_on_c, 0, 42, 0
2,78799, Note_on_c, 0, 64, 0
2,78842, Note_on_c, 0, 63, 70
2,78908, Note_on_c, 0, 58, 0
2,78939, Note_on_c, 0, 63, 0
2,78939, Note_on_c, 0, 64, 67
2,79041, Note_on_c, 0, 64, 0
2,79068, Note_on_c, 0, 61, 69
2,79072, Note_on_c, 0, 57, 66
2,79090, Note_on_c, 0, 54, 58
2,79163, Note_on_c, 0, 66, 72
2,79170, Note_on_c, 0, 54, 0
2,79205, Note_on_c, 0, 52, 47
2,79222, Note_on_c, 0, 61, 0
2,79260, Note_on_c, 0, 52, 0
2,79287, Note_on_c, 0, 64, 68
2,79299, Note_on_c, 0, 54, 48
2,79392, Note_on_c, 0, 63, 73
2,79393, Note_on_c, 0, 66, 0
2,79401, Note_on_c, 0, 54, 0
2,79412, Note_on_c, 0, 64, 0
2,79425, Note_on_c, 0, 47, 65
2,79500, Note_on_c, 0, 61, 71
2,79513, Note_on_c, 0, 57, 0
2,79555, Note_on_c, 0, 63, 0
2,79623, Note_on_c, 0, 61, 0
2,79628, Note_on_c, 0, 59, 67
2,79682, Note_on_c, 0, 59, 0
2,79741, Note_on_c, 0, 56, 53
2,79741, Note_on_c, 0, 64, 67
2,79833, Note_on_c, 0, 56, 0
2,79849, Note_on_c, 0, 54, 60
2,79937, Note_on_c, 0, 54, 0
2,79955, Note_on_c, 0, 52, 58
2,80063, Note_on_c, 0, 52, 0
2,80066, Note_on_c, 0, 54, 58
2,80135, Note_on_c, 0, 54, 0
2,80149, Note_on_c, 0, 56, 72
2,80159, Note_on_c, 0, 63, 80
2,80173, Note_on_c, 0, 64, 0
2,80200, Note_on_c, 0, 56, 0
2,80218, Note_on_c, 0, 47, 0
2,80261, Note_on_c, 0, 61, 82
2,80272, Note_on_c, 0, 63, 0
2,80278, Note_on_c, 0, 58, 72
2,80364, Note_on_c, 0, 58, 0
2,80368, Note_on_c, 0, 59, 70
2,80368, Note_on_c, 0, 63, 82
2,80379, Note_on_c, 0, 61, 0
2,80462, Note_on_c, 0, 65, 77
2,80480, Note_on_c, 0, 63, 0
2,80488, Note_on_c, 0, 49, 54
2,80495, Note_on_c, 0, 59, 0
2,80562, Note_on_c, 0, 66, 82
2,80587, Note_on_c, 0, 50, 67
2,80601, Note_on_c, 0, 65, 0
2,80603, Note_on_c, 0, 49, 0
2,80636, Note_on_c, 0, 50, 0
2,80683, Note_on_c, 0, 68, 83
2,80694, Note_on_c, 0, 41, 63
2,80699, Note_on_c, 0, 66, 0
2,80790, Note_on_c, 0, 61, 73
2,80879, Note_on_c, 0, 62, 83
2,80885, Note_on_c, 0, 61, 0
2,80897, Note_on_c, 0, 41, 0
2,81002, Note_on_c, 0, 62, 0
2,81007, Note_on_c, 0, 53, 72
2,81007, Note_on_c, 0, 61, 78
2,81090, Note_on_c, 0, 61, 0
2,81107, Note_on_c, 0, 62, 80
2,81138, Note_on_c, 0, 53, 0
2,81212, Note_on_c, 0, 59, 73
2,81215, Note_on_c, 0, 62, 0
2,81287, Note_on_c, 0, 59, 0
2,81334, Note_on_c, 0, 57, 58
2,81339, Note_on_c, 0, 54, 51
2,81422, Note_on_c, 0, 66, 75
2,81452, Note_on_c, 0, 68, 0
2,81499, Note_on_c, 0, 57, 0
2,81530, Note_on_c, 0, 56, 63
2,81533, Note_on_c, 0, 65, 82
2,81541, Note_on_c, 0, 66, 0
2,81625, Note_on_c, 0, 56, 0
2,81646, Note_on_c, 0, 66, 91
2,81652, Note_on_c, 0, 65, 0
2,81657, Note_on_c, 0, 57, 55
2,81721, Note_on_c, 0, 66, 0
2,81752, Note_on_c, 0, 69, 88
2,81762, Control_c, 0, 67, 8
2,81777, Control_c, 0, 67, 9
2,81792, Control_c, 0, 67, 9
2,81808, Control_c, 0, 67, 10
2,81822, Note_on_c, 0, 57, 0
2,81848, Note_on_c, 0, 69, 0
2,81850, Note_on_c, 0, 73, 82
2,81935, Note_on_c, 0, 73, 0
2,81959, Note_on_c, 0, 78, 88
2,81979, Note_on_c, 0, 61, 59
2,82085, Note_on_c, 0, 60, 53
2,82092, Note_on_c, 0, 61, 0
2,82128, Control_c, 0, 67, 10
2,82158, Note_on_c, 0, 56, 44
2,82166, Note_on_c, 0, 54, 0
2,82173, Control_c, 0, 67, 11
2,82175, Note_on_c, 0, 60, 0
2,82183, Note_on_c, 0, 61, 63
2,82204, Control_c, 0, 67, 11
2,82207, Note_on_c, 0, 56, 0
2,82219, Control_c, 0, 67, 12
2,82221, Note_on_c, 0, 61, 0
2,82234, Control_c, 0, 67, 13
2,82249, Control_c, 0, 67, 14
2,82264, Control_c, 0, 67, 14
2,82280, Control_c, 0, 67, 15
2,82287, Note_on_c, 0, 54, 40
2,82309, Note_on_c, 0, 63, 68
2,82363, Control_c, 0, 67, 15
2,82376, Note_on_c, 0, 63, 0
2,82393, Note_on_c, 0, 61, 52
2,82502, Note_on_c, 0, 61, 0
2,82529, Note_on_c, 0, 63, 53
2,82549, Note_on_c, 0, 54, 0
2,82586, Note_on_c, 0, 78, 0
2,82606, Control_c, 0, 67, 16
2,82607, Note_on_c, 0, 63, 0
2,82612, Note_on_c, 0, 77, 79
2,82634, Note_on_c, 0, 56, 47
2,82652, Control_c, 0, 67, 16
2,82682, Control_c, 0, 67, 17
2,82697, Control_c, 0, 67, 17
2,82725, Note_on_c, 0, 58, 61
2,82758, Control_c, 0, 64, 45
2,82771, Control_c, 0, 64, 63
2,82783, Control_c, 0, 64, 65
2,82798, Control_c, 0, 64, 66
2,82814, Control_c, 0, 64, 68
2,82824, Note_on_c, 0, 58, 0
2,82829, Control_c, 0, 64, 69
2,82844, Control_c, 0, 64, 71
2,82845, Note_on_c, 0, 60, 54
2,82859, Control_c, 0, 64, 73
2,82874, Control_c, 0, 64, 74
2,82906, Control_c, 0, 67, 17
2,82921, Control_c, 0, 64, 73
2,82925, Note_on_c, 0, 60, 0
2,82932, Note_on_c, 0, 76, 90
2,82936, Control_c, 0, 64, 70
2,82947, Note_on_c, 0, 61, 63
2,82951, Control_c, 0, 64, 62
2,82962, Note_on_c, 0, 77, 0
2,82966, Control_c, 0, 64, 0
2,83012, Control_c, 0, 67, 16
2,83058, Control_c, 0, 64, 64
2,83062, Note_on_c, 0, 63, 70
2,83067, Note_on_c, 0, 61, 0
2,83073, Control_c, 0, 64, 70
2,83073, Control_c, 0, 67, 17
2,83094, Note_on_c, 0, 76, 0
2,83096, Control_c, 0, 64, 77
2,83096, Control_c, 0, 67, 17
2,83111, Control_c, 0, 64, 82
2,83126, Control_c, 0, 64, 86
2,83136, Note_on_c, 0, 63, 0
2,83141, Control_c, 0, 64, 88
2,83156, Control_c, 0, 64, 89
2,83163, Note_on_c, 0, 64, 72
2,83218, Control_c, 0, 67, 18
2,83227, Note_on_c, 0, 64, 0
2,83232, Control_c, 0, 64, 86
2,83247, Control_c, 0, 64, 79
2,83256, Note_on_c, 0, 75, 93
2,83263, Control_c, 0, 64, 66
2,83278, Control_c, 0, 64, 0
2,83278, Note_on_c, 0, 66, 71
2,83339, Control_c, 0, 67, 18
2,83343, Note_on_c, 0, 66, 0
2,83368, Control_c, 0, 67, 19
2,83374, Note_on_c, 0, 64, 71
2,83384, Control_c, 0, 64, 43
2,83384, Control_c, 0, 67, 19
2,83399, Control_c, 0, 64, 66
2,83399, Control_c, 0, 67, 20
2,83415, Control_c, 0, 64, 71
2,83415, Control_c, 0, 67, 21
2,83430, Control_c, 0, 64, 76
2,83430, Control_c, 0, 67, 22
2,83445, Control_c, 0, 64, 81
2,83445, Control_c, 0, 67, 23
2,83460, Control_c, 0, 64, 83
2,83460, Control_c, 0, 67, 25
2,83463, Note_on_c, 0, 64, 0
2,83468, Note_on_c, 0, 66, 71
2,83475, Control_c, 0, 64, 84
2,83475, Control_c, 0, 67, 26
2,83484, Note_on_c, 0, 75, 0
2,83490, Control_c, 0, 67, 26
2,83503, Note_on_c, 0, 66, 0
2,83506, Control_c, 0, 67, 27
2,83537, Control_c, 0, 64, 82
2,83537, Control_c, 0, 67, 28
2,83551, Control_c, 0, 64, 77
2,83566, Control_c, 0, 64, 67
2,83582, Control_c, 0, 64, 0
2,83582, Control_c, 0, 67, 27
2,83582, Note_on_c, 0, 80, 92
2,83605, Note_on_c, 0, 63, 53
2,83642, Control_c, 0, 67, 27
2,83681, Note_on_c, 0, 63, 0
2,83683, Note_on_c, 0, 80, 0
2,83686, Note_on_c, 0, 68, 74
2,83703, Control_c, 0, 64, 46
2,83717, Note_on_c, 0, 68, 0
2,83718, Control_c, 0, 64, 65
2,83735, Control_c, 0, 64, 71
2,83735, Control_c, 0, 67, 26
2,83750, Control_c, 0, 64, 77
2,83765, Control_c, 0, 64, 81
2,83780, Control_c, 0, 64, 83
2,83780, Control_c, 0, 67, 27
2,83789, Note_on_c, 0, 66, 68
2,83795, Control_c, 0, 64, 84
2,83810, Control_c, 0, 64, 85
2,83810, Control_c, 0, 67, 27
2,83860, Note_on_c, 0, 66, 0
2,83879, Control_c, 0, 67, 28
2,83895, Control_c, 0, 67, 28
2,83900, Note_on_c, 0, 73, 84
2,83910, Control_c, 0, 67, 29
2,83913, Note_on_c, 0, 64, 64
2,83924, Control_c, 0, 64, 84
2,83940, Control_c, 0, 64, 82
2,83940, Control_c, 0, 67, 30
2,83946, Note_on_c, 0, 56, 0
2,83955, Control_c, 0, 64, 76
2,83955, Control_c, 0, 67, 31
2,83970, Control_c, 0, 64, 67
2,83970, Control_c, 0, 67, 32
2,83970, Note_on_c, 0, 64, 0
2,83981, Note_on_c, 0, 54, 39
2,83986, Control_c, 0, 64, 39
2,83986, Control_c, 0, 67, 33
2,84000, Control_c, 0, 64, 0
2,84000, Control_c, 0, 67, 34
2,84007, Note_on_c, 0, 63, 60
2,84016, Control_c, 0, 67, 35
2,84031, Control_c, 0, 67, 37
2,84046, Control_c, 0, 67, 39
2,84062, Control_c, 0, 67, 41
2,84076, Control_c, 0, 67, 43
2,84079, Note_on_c, 0, 54, 0
2,84090, Note_on_c, 0, 56, 40
2,84092, Control_c, 0, 67, 46
2,84107, Control_c, 0, 67, 48
2,84107, Note_on_c, 0, 64, 59
2,84121, Control_c, 0, 67, 51
2,84127, Note_on_c, 0, 63, 0
2,84137, Control_c, 0, 67, 52
2,84138, Note_on_c, 0, 64, 0
2,84152, Control_c, 0, 67, 54
2,84167, Control_c, 0, 67, 56
2,84183, Control_c, 0, 67, 59
2,84197, Control_c, 0, 67, 62
2,84203, Note_on_c, 0, 56, 0
2,84213, Control_c, 0, 67, 63
2,84228, Control_c, 0, 67, 65
2,84229, Note_on_c, 0, 61, 58
2,84236, Note_on_c, 0, 57, 43
2,84243, Control_c, 0, 67, 66
2,84259, Control_c, 0, 67, 68
2,84273, Control_c, 0, 67, 70
2,84288, Control_c, 0, 67, 73
2,84290, Note_on_c, 0, 61, 0
2,84294, Note_on_c, 0, 57, 0
2,84304, Control_c, 0, 67, 75
2,84319, Control_c, 0, 67, 76
2,84323, Note_on_c, 0, 69, 69
2,84335, Control_c, 0, 67, 78
2,84339, Note_on_c, 0, 56, 50
2,84350, Control_c, 0, 67, 79
2,84365, Control_c, 0, 67, 82
2,84381, Control_c, 0, 67, 84
2,84393, Note_on_c, 0, 56, 0
2,84395, Control_c, 0, 67, 86
2,84413, Note_on_c, 0, 69, 0
2,84428, Note_on_c, 0, 68, 64
2,84429, Note_on_c, 0, 57, 39
2,84433, Note_on_c, 0, 73, 0
2,84471, Control_c, 0, 67, 85
2,84481, Note_on_c, 0, 57, 0
2,84486, Control_c, 0, 67, 84
2,84502, Control_c, 0, 67, 84
2,84516, Control_c, 0, 67, 82
2,84532, Control_c, 0, 67, 80
2,84534, Note_on_c, 0, 66, 68
2,84537, Note_on_c, 0, 51, 49
2,84548, Control_c, 0, 67, 79
2,84549, Note_on_c, 0, 68, 0
2,84563, Control_c, 0, 67, 78
2,84579, Control_c, 0, 67, 77
2,84594, Control_c, 0, 67, 76
2,84609, Control_c, 0, 67, 75
2,84631, Control_c, 0, 67, 73
2,84646, Control_c, 0, 64, 41
2,84646, Control_c, 0, 67, 67
2,84653, Note_on_c, 0, 72, 62
2,84655, Note_on_c, 0, 52, 57
2,84658, Note_on_c, 0, 51, 0
2,84662, Control_c, 0, 64, 59
2,84662, Control_c, 0, 67, 57
2,84677, Control_c, 0, 64, 63
2,84677, Control_c, 0, 67, 47
2,84693, Control_c, 0, 64, 65
2,84693, Control_c, 0, 67, 39
2,84708, Control_c, 0, 64, 66
2,84708, Control_c, 0, 67, 33
2,84723, Control_c, 0, 64, 68
2,84723, Control_c, 0, 67, 30
2,84738, Control_c, 0, 64, 70
2,84738, Control_c, 0, 67, 27
2,84742, Note_on_c, 0, 70, 70
2,84744, Note_on_c, 0, 52, 0
2,84745, Note_on_c, 0, 66, 0
2,84748, Note_on_c, 0, 54, 58
2,84753, Control_c, 0, 64, 72
2,84753, Control_c, 0, 67, 24
2,84763, Note_on_c, 0, 72, 0
2,84768, Control_c, 0, 64, 74
2,84768, Control_c, 0, 67, 21
2,84784, Control_c, 0, 64, 75
2,84784, Control_c, 0, 67, 18
2,84799, Control_c, 0, 64, 76
2,84799, Control_c, 0, 67, 16
2,84812, Note_on_c, 0, 54, 0
2,84815, Control_c, 0, 67, 14
2,84829, Control_c, 0, 67, 13
2,84841, Note_on_c, 0, 72, 77
2,84843, Note_on_c, 0, 70, 0
2,84844, Control_c, 0, 67, 11
2,84847, Note_on_c, 0, 56, 51
2,84860, Control_c, 0, 64, 74
2,84860, Control_c, 0, 67, 10
2,84873, Note_on_c, 0, 56, 0
2,84875, Control_c, 0, 64, 70
2,84875, Control_c, 0, 67, 8
2,84890, Control_c, 0, 64, 58
2,84890, Control_c, 0, 67, 0
2,84905, Control_c, 0, 64, 0
2,84940, Note_on_c, 0, 58, 53
2,84946, Note_on_c, 0, 70, 80
2,84951, Control_c, 0, 64, 36
2,84965, Control_c, 0, 64, 63
2,84981, Control_c, 0, 64, 68
2,84984, Note_on_c, 0, 72, 0
2,84996, Control_c, 0, 64, 72
2,85012, Control_c, 0, 64, 76
2,85026, Note_on_c, 0, 58, 0
2,85027, Control_c, 0, 64, 78
2,85032, Note_on_c, 0, 68, 84
2,85049, Note_on_c, 0, 60, 53
2,85050, Note_on_c, 0, 70, 0
2,85072, Control_c, 0, 64, 77
2,85072, Note_on_c, 0, 60, 0
2,85080, Note_on_c, 0, 68, 0
2,85087, Control_c, 0, 64, 74
2,85103, Control_c, 0, 64, 66
2,85117, Control_c, 0, 64, 0
2,85148, Note_on_c, 0, 80, 85
2,85155, Note_on_c, 0, 61, 51
2,85158, Note_on_c, 0, 65, 60
2,85196, Note_on_c, 0, 61, 0
2,85285, Control_c, 0, 64, 52
2,85293, Note_on_c, 0, 59, 38
2,85301, Control_c, 0, 64, 63
2,85315, Control_c, 0, 64, 66
2,85330, Control_c, 0, 64, 69
2,85346, Control_c, 0, 64, 71
2,85362, Control_c, 0, 64, 75
2,85365, Note_on_c, 0, 65, 0
2,85368, Note_on_c, 0, 61, 62
2,85378, Control_c, 0, 64, 78
2,85380, Note_on_c, 0, 59, 0
2,85400, Control_c, 0, 64, 80
2,85416, Control_c, 0, 64, 81
2,85431, Control_c, 0, 64, 82
2,85444, Note_on_c, 0, 80, 0
2,85447, Note_on_c, 0, 61, 0
2,85500, Note_on_c, 0, 79, 90
2,85513, Note_on_c, 0, 64, 55
2,85522, Control_c, 0, 64, 81
2,85522, Note_on_c, 0, 58, 52
2,85538, Control_c, 0, 64, 76
2,85552, Control_c, 0, 64, 66
2,85567, Control_c, 0, 64, 0
2,85628, Control_c, 0, 64, 59
2,85631, Note_on_c, 0, 63, 61
2,85643, Control_c, 0, 64, 71
2,85659, Control_c, 0, 64, 79
2,85674, Control_c, 0, 64, 85
2,85679, Note_on_c, 0, 64, 0
2,85689, Control_c, 0, 64, 87
2,85698, Note_on_c, 0, 58, 0
2,85704, Control_c, 0, 64, 88
2,85710, Note_on_c, 0, 61, 70
2,85719, Control_c, 0, 64, 88
2,85719, Note_on_c, 0, 63, 0
2,85778, Note_on_c, 0, 61, 0
2,85810, Control_c, 0, 64, 87
2,85815, Note_on_c, 0, 79, 0
2,85826, Control_c, 0, 64, 82
2,85826, Note_on_c, 0, 63, 75
2,85831, Note_on_c, 0, 78, 96
2,85841, Control_c, 0, 64, 70
2,85842, Note_on_c, 0, 79, 41
2,85843, Note_on_c, 0, 60, 71
2,85857, Control_c, 0, 64, 0
2,85881, Note_on_c, 0, 79, 0
2,85892, Note_on_c, 0, 63, 0
2,85937, Note_on_c, 0, 78, 0
2,85947, Control_c, 0, 64, 62
2,85962, Control_c, 0, 64, 69
2,85967, Note_on_c, 0, 58, 50
2,85969, Note_on_c, 0, 60, 0
2,85978, Control_c, 0, 64, 75
2,85985, Note_on_c, 0, 57, 64
2,85993, Control_c, 0, 64, 82
2,85998, Note_on_c, 0, 58, 0
2,85998, Note_on_c, 0, 58, 10
2,86007, Control_c, 0, 64, 85
2,86023, Control_c, 0, 64, 87
2,86062, Note_on_c, 0, 58, 0
2,86064, Note_on_c, 0, 60, 77
2,86083, Note_on_c, 0, 57, 0
2,86145, Control_c, 0, 64, 86
2,86167, Control_c, 0, 64, 81
2,86170, Note_on_c, 0, 77, 95
2,86181, Note_on_c, 0, 56, 77
2,86181, Note_on_c, 0, 60, 0
2,86183, Control_c, 0, 64, 71
2,86194, Note_on_c, 0, 68, 69
2,86199, Control_c, 0, 64, 0
2,86277, Note_on_c, 0, 61, 63
2,86290, Control_c, 0, 64, 54
2,86296, Note_on_c, 0, 68, 0
2,86306, Control_c, 0, 64, 67
2,86320, Control_c, 0, 64, 72
2,86336, Control_c, 0, 64, 77
2,86351, Control_c, 0, 64, 80
2,86366, Control_c, 0, 64, 81
2,86378, Note_on_c, 0, 59, 71
2,86380, Note_on_c, 0, 77, 0
2,86382, Control_c, 0, 64, 81
2,86387, Note_on_c, 0, 61, 0
2,86404, Note_on_c, 0, 56, 0
2,86487, Control_c, 0, 64, 79
2,86499, Note_on_c, 0, 76, 92
2,86503, Control_c, 0, 64, 70
2,86505, Note_on_c, 0, 59, 0
2,86507, Note_on_c, 0, 61, 72
2,86511, Note_on_c, 0, 57, 77
2,86517, Control_c, 0, 64, 0
2,86594, Control_c, 0, 64, 37
2,86609, Control_c, 0, 64, 66
2,86625, Control_c, 0, 64, 72
2,86634, Note_on_c, 0, 57, 0
2,86640, Control_c, 0, 64, 78
2,86643, Note_on_c, 0, 56, 73
2,86649, Note_on_c, 0, 76, 0
2,86655, Control_c, 0, 64, 83
2,86669, Note_on_c, 0, 61, 0
2,86670, Control_c, 0, 64, 86
2,86685, Control_c, 0, 64, 87
2,86701, Control_c, 0, 64, 88
2,86725, Note_on_c, 0, 57, 86
2,86746, Control_c, 0, 64, 88
2,86759, Note_on_c, 0, 56, 0
2,86761, Control_c, 0, 67, 11
2,86775, Note_on_c, 0, 57, 0
2,86776, Control_c, 0, 67, 13
2,86791, Control_c, 0, 67, 15
2,86806, Control_c, 0, 67, 16
2,86837, Control_c, 0, 64, 87
2,86837, Control_c, 0, 67, 16
2,86851, Control_c, 0, 64, 84
2,86851, Control_c, 0, 67, 17
2,86867, Control_c, 0, 64, 78
2,86867, Control_c, 0, 67, 19
2,86871, Note_on_c, 0, 48, 86
2,86873, Note_on_c, 0, 75, 93
2,86882, Control_c, 0, 64, 63
2,86882, Control_c, 0, 67, 22
2,86882, Note_on_c, 0, 66, 76
2,86897, Control_c, 0, 64, 0
2,86897, Control_c, 0, 67, 26
2,86912, Control_c, 0, 67, 30
2,86934, Control_c, 0, 67, 33
2,86949, Control_c, 0, 67, 36
2,86964, Control_c, 0, 67, 37
2,86980, Control_c, 0, 67, 39
2,86994, Control_c, 0, 67, 40
2,87001, Note_on_c, 0, 49, 83
2,87010, Control_c, 0, 67, 41
2,87026, Control_c, 0, 67, 41
2,87028, Note_on_c, 0, 48, 0
2,87041, Control_c, 0, 67, 42
2,87072, Control_c, 0, 67, 42
2,87089, Note_on_c, 0, 75, 0
2,87102, Control_c, 0, 67, 44
2,87117, Control_c, 0, 67, 45
2,87118, Note_on_c, 0, 51, 85
2,87133, Control_c, 0, 67, 46
2,87148, Control_c, 0, 67, 47
2,87149, Note_on_c, 0, 73, 84
2,87151, Note_on_c, 0, 49, 0
2,87162, Control_c, 0, 67, 49
2,87178, Control_c, 0, 67, 51
2,87193, Control_c, 0, 67, 53
2,87211, Control_c, 0, 67, 55
2,87214, Note_on_c, 0, 73, 0
2,87220, Note_on_c, 0, 66, 0
2,87226, Control_c, 0, 67, 57
2,87241, Control_c, 0, 67, 57
2,87253, Note_on_c, 0, 72, 85
2,87257, Note_on_c, 0, 52, 90
2,87260, Note_on_c, 0, 66, 52
2,87269, Note_on_c, 0, 51, 0
2,87362, Control_c, 0, 67, 57
2,87378, Control_c, 0, 67, 56
2,87393, Control_c, 0, 67, 55
2,87393, Note_on_c, 0, 51, 79
2,87409, Control_c, 0, 67, 54
2,87413, Note_on_c, 0, 52, 0
2,87423, Control_c, 0, 67, 53
2,87438, Control_c, 0, 67, 51
2,87454, Control_c, 0, 67, 49
2,87469, Control_c, 0, 67, 48
2,87482, Note_on_c, 0, 51, 0
2,87484, Control_c, 0, 67, 46
2,87499, Control_c, 0, 67, 42
2,87514, Control_c, 0, 67, 33
2,87515, Note_on_c, 0, 68, 90
2,87528, Note_on_c, 0, 52, 81
2,87530, Control_c, 0, 67, 23
2,87535, Note_on_c, 0, 72, 0
2,87545, Control_c, 0, 67, 12
2,87560, Control_c, 0, 67, 0
2,87575, Note_on_c, 0, 66, 0
2,87669, Note_on_c, 0, 43, 84
2,87688, Note_on_c, 0, 73, 88
2,87705, Note_on_c, 0, 64, 75
2,87718, Note_on_c, 0, 68, 0
2,87822, Note_on_c, 0, 52, 0
2,87853, Note_on_c, 0, 52, 12
2,87859, Note_on_c, 0, 44, 81
2,87906, Note_on_c, 0, 43, 0
2,87998, Note_on_c, 0, 52, 0
2,88022, Note_on_c, 0, 46, 88
2,88028, Note_on_c, 0, 63, 85
2,88055, Control_c, 0, 67, 8
2,88067, Note_on_c, 0, 44, 0
2,88070, Control_c, 0, 67, 8
2,88080, Note_on_c, 0, 64, 0
2,88086, Control_c, 0, 67, 9
2,88100, Control_c, 0, 67, 10
2,88115, Control_c, 0, 67, 11
2,88131, Control_c, 0, 67, 11
2,88189, Note_on_c, 0, 64, 84
2,88191, Note_on_c, 0, 44, 78
2,88237, Control_c, 0, 67, 11
2,88251, Note_on_c, 0, 46, 0
2,88268, Note_on_c, 0, 73, 0
2,88320, Note_on_c, 0, 63, 0
2,88358, Control_c, 0, 67, 11
2,88364, Note_on_c, 0, 69, 79
2,88535, Control_c, 0, 67, 12
2,88555, Note_on_c, 0, 68, 87
2,88611, Note_on_c, 0, 69, 0
2,88763, Control_c, 0, 67, 12
2,88778, Control_c, 0, 67, 13
2,88790, Note_on_c, 0, 72, 86
2,88797, Note_on_c, 0, 66, 75
2,88809, Control_c, 0, 67, 13
2,88818, Note_on_c, 0, 68, 0
2,88824, Control_c, 0, 67, 14
2,88835, Note_on_c, 0, 64, 0
2,88838, Control_c, 0, 67, 15
2,88854, Control_c, 0, 67, 16
2,88869, Control_c, 0, 67, 17
2,88900, Control_c, 0, 67, 18
2,88914, Control_c, 0, 67, 18
2,88945, Control_c, 0, 67, 19
2,88960, Control_c, 0, 67, 19
2,88975, Control_c, 0, 67, 20
2,88990, Control_c, 0, 67, 21
2,89006, Control_c, 0, 67, 22
2,89021, Control_c, 0, 67, 23
2,89036, Control_c, 0, 67, 24
2,89044, Note_on_c, 0, 64, 81
2,89052, Control_c, 0, 67, 24
2,89066, Control_c, 0, 67, 25
2,89081, Control_c, 0, 67, 26
2,89084, Note_on_c, 0, 66, 0
2,89097, Control_c, 0, 67, 26
2,89112, Control_c, 0, 67, 27
2,89128, Control_c, 0, 67, 27
2,89143, Control_c, 0, 67, 28
2,89158, Control_c, 0, 67, 29
2,89188, Control_c, 0, 67, 29
2,89240, Control_c, 0, 67, 30
2,89256, Control_c, 0, 67, 30
2,89287, Control_c, 0, 67, 31
2,89302, Control_c, 0, 67, 31
2,89316, Control_c, 0, 67, 32
2,89332, Control_c, 0, 67, 33
2,89347, Control_c, 0, 67, 33
2,89362, Control_c, 0, 67, 34
2,89373, Note_on_c, 0, 63, 76
2,89378, Control_c, 0, 67, 35
2,89392, Control_c, 0, 67, 36
2,89408, Control_c, 0, 67, 37
2,89424, Note_on_c, 0, 64, 0
2,89531, Control_c, 0, 64, 61
2,89545, Control_c, 0, 64, 66
2,89560, Control_c, 0, 64, 71
2,89576, Control_c, 0, 64, 76
2,89576, Control_c, 0, 67, 37
2,89591, Control_c, 0, 64, 83
2,89607, Control_c, 0, 64, 89
2,89614, Note_on_c, 0, 63, 0
2,89621, Control_c, 0, 64, 93
2,89636, Control_c, 0, 64, 96
2,89652, Control_c, 0, 64, 98
2,89652, Control_c, 0, 67, 38
2,89666, Control_c, 0, 64, 99
2,89666, Control_c, 0, 67, 38
2,89681, Control_c, 0, 67, 42
2,89697, Control_c, 0, 67, 48
2,89712, Control_c, 0, 67, 53
2,89728, Control_c, 0, 67, 55
2,89743, Control_c, 0, 67, 56
2,89757, Control_c, 0, 67, 56
2,89819, Control_c, 0, 67, 57
2,89864, Control_c, 0, 67, 57
2,89879, Control_c, 0, 64, 99
2,89882, Note_on_c, 0, 73, 84
2,89888, Note_on_c, 0, 65, 72
2,89895, Control_c, 0, 64, 97
2,89895, Control_c, 0, 67, 58
2,89898, Note_on_c, 0, 37, 51
2,89901, Note_on_c, 0, 49, 52
2,89910, Control_c, 0, 64, 93
2,89910, Control_c, 0, 67, 60
2,89926, Control_c, 0, 64, 87
2,89926, Control_c, 0, 67, 62
2,89941, Control_c, 0, 64, 81
2,89941, Control_c, 0, 67, 66
2,89943, Note_on_c, 0, 72, 0
2,89955, Control_c, 0, 64, 73
2,89955, Control_c, 0, 67, 68
2,89955, Note_on_c, 0, 44, 0
2,89971, Control_c, 0, 64, 65
2,89971, Control_c, 0, 67, 70
2,89986, Control_c, 0, 64, 0
2,89986, Control_c, 0, 67, 71
2,90009, Control_c, 0, 67, 72
2,90024, Control_c, 0, 67, 72
2,90038, Control_c, 0, 67, 73
2,90054, Control_c, 0, 67, 73
2,90084, Control_c, 0, 67, 74
2,90146, Control_c, 0, 67, 73
2,90176, Control_c, 0, 67, 73
2,90350, Control_c, 0, 67, 72
2,90411, Control_c, 0, 67, 72
2,90442, Control_c, 0, 67, 71
2,91195, Control_c, 0, 67, 71
2,91855, Control_c, 0, 67, 70
2,92176, Control_c, 0, 67, 71
2,92206, Control_c, 0, 67, 71
2,92422, Control_c, 0, 67, 71
2,92503, Note_on_c, 0, 37, 0
2,92527, Note_on_c, 0, 49, 0
2,92560, Note_on_c, 0, 65, 0
2,92596, Note_on_c, 0, 73, 0
2,92848, Control_c, 0, 67, 70
2,93325, Control_c, 0, 67, 70
2,93326, End_track
0, 0, End_of_file
