0, 0, Header, 1, 2, 384
1, 0, Start_track
1, 0, Tempo, 500000
1, 0, Time_signature, 4, 2, 24, 8
1, 1, End_track
2, 0, Start_track
2, 0, Title_t," ""Lisiecki13-16.MID"""
2, 0, Program_c, 0, 0
2, 0, Control_c, 0, 64, 0
2, 0, Control_c, 0, 67, 42
2, 344, Control_c, 0, 67, 43
2, 389, Control_c, 0, 67, 43
2, 405, Control_c, 0, 67, 44
2, 525, Control_c, 0, 67, 44
2, 661, Control_c, 0, 67, 44
2, 785, Control_c, 0, 67, 43
2, 804, Note_on_c, 0, 49, 36
2, 945, Control_c, 0, 67, 43
2, 991, Control_c, 0, 67, 42
2, 1006, Control_c, 0, 67, 42
2, 1021, Control_c, 0, 67, 41
2, 1036, Control_c, 0, 67, 40
2, 1051, Control_c, 0, 67, 39
2, 1097, Control_c, 0, 67, 39
2, 1113, Control_c, 0, 67, 38
2, 1128, Control_c, 0, 67, 38
2, 1132, Note_on_c, 0, 52, 52
2, 1204, Control_c, 0, 67, 37
2, 1222, Note_on_c, 0, 49, 0
2, 1251, Note_on_c, 0, 52, 0
2, 1416, Control_c, 0, 67, 38
2, 1467, Note_on_c, 0, 56, 55
2, 1492, Control_c, 0, 67, 38
2, 1522, Control_c, 0, 67, 37
2, 1537, Control_c, 0, 67, 37
2, 1590, Note_on_c, 0, 56, 0
2, 1683, Control_c, 0, 67, 37
2, 1816, Note_on_c, 0, 61, 49
2, 1941, Control_c, 0, 67, 37
2, 2336, Control_c, 0, 67, 37
2, 2368, Control_c, 0, 67, 38
2, 2398, Control_c, 0, 67, 38
2, 2413, Control_c, 0, 67, 39
2, 2428, Control_c, 0, 67, 40
2, 2451, Control_c, 0, 67, 40
2, 2466, Control_c, 0, 67, 41
2, 2477, Note_on_c, 0, 68, 57
2, 2513, Control_c, 0, 67, 42
2, 2542, Control_c, 0, 67, 42
2, 2558, Control_c, 0, 67, 43
2, 2561, Note_on_c, 0, 68, 0
2, 2588, Control_c, 0, 67, 44
2, 2649, Control_c, 0, 67, 44
2, 2679, Control_c, 0, 67, 45
2, 2710, Control_c, 0, 67, 46
2, 2724, Control_c, 0, 67, 46
2, 2739, Control_c, 0, 67, 47
2, 2755, Note_on_c, 0, 73, 55
2, 2785, Control_c, 0, 67, 48
2, 2788, Note_on_c, 0, 64, 33
2, 2800, Control_c, 0, 67, 51
2, 2803, Note_on_c, 0, 73, 0
2, 2812, Note_on_c, 0, 72, 64
2, 2815, Control_c, 0, 67, 54
2, 2831, Control_c, 0, 67, 55
2, 2846, Control_c, 0, 67, 57
2, 2861, Control_c, 0, 67, 58
2, 2874, Note_on_c, 0, 72, 0
2, 2877, Control_c, 0, 67, 59
2, 2880, Note_on_c, 0, 73, 61
2, 2892, Control_c, 0, 67, 60
2, 2907, Control_c, 0, 67, 61
2, 2923, Control_c, 0, 67, 62
2, 2937, Control_c, 0, 67, 62
2, 2953, Control_c, 0, 67, 63
2, 2968, Control_c, 0, 67, 64
2, 2983, Control_c, 0, 67, 66
2, 2999, Control_c, 0, 67, 67
2, 3013, Control_c, 0, 67, 69
2, 3028, Control_c, 0, 67, 71
2, 3044, Control_c, 0, 67, 74
2, 3058, Control_c, 0, 67, 76
2, 3074, Control_c, 0, 67, 77
2, 3456, Note_on_c, 0, 76, 66
2, 3477, Note_on_c, 0, 73, 0
2, 3508, Control_c, 0, 67, 77
2, 3524, Control_c, 0, 67, 78
2, 3539, Control_c, 0, 67, 78
2, 3555, Control_c, 0, 67, 81
2, 3570, Control_c, 0, 67, 85
2, 3584, Control_c, 0, 67, 88
2, 3600, Control_c, 0, 67, 91
2, 3615, Control_c, 0, 67, 93
2, 3631, Control_c, 0, 67, 95
2, 3646, Control_c, 0, 67, 97
2, 3660, Control_c, 0, 67, 99
2, 3676, Control_c, 0, 67, 101
2, 3684, Note_on_c, 0, 76, 0
2, 3691, Control_c, 0, 67, 102
2, 3705, Control_c, 0, 67, 103
2, 3805, Note_on_c, 0, 76, 63
2, 3813, Note_on_c, 0, 66, 40
2, 3950, Control_c, 0, 67, 103
2, 4033, Control_c, 0, 67, 102
2, 4110, Note_on_c, 0, 64, 0
2, 4141, Note_on_c, 0, 75, 49
2, 4154, Note_on_c, 0, 59, 33
2, 4158, Note_on_c, 0, 76, 0
2, 4246, Note_on_c, 0, 61, 0
2, 4261, Control_c, 0, 67, 102
2, 4328, Note_on_c, 0, 59, 0
2, 4493, Note_on_c, 0, 57, 36
2, 4503, Control_c, 0, 67, 102
2, 4519, Control_c, 0, 67, 103
2, 4534, Control_c, 0, 67, 103
2, 4579, Control_c, 0, 67, 104
2, 4641, Control_c, 0, 67, 103
2, 4685, Note_on_c, 0, 57, 0
2, 4702, Note_on_c, 0, 66, 0
2, 4717, Control_c, 0, 67, 103
2, 4873, Note_on_c, 0, 59, 31
2, 4882, Note_on_c, 0, 68, 39
2, 5075, Control_c, 0, 67, 102
2, 5179, Note_on_c, 0, 75, 0
2, 5272, Control_c, 0, 67, 103
2, 5287, Control_c, 0, 67, 103
2, 5317, Control_c, 0, 67, 104
2, 5371, Note_on_c, 0, 75, 63
2, 5378, Control_c, 0, 67, 104
2, 5423, Control_c, 0, 67, 104
2, 5439, Control_c, 0, 67, 103
2, 5454, Control_c, 0, 67, 103
2, 5454, Note_on_c, 0, 75, 0
2, 5512, Note_on_c, 0, 76, 71
2, 5579, Note_on_c, 0, 76, 0
2, 5645, Control_c, 0, 67, 103
2, 5664, Note_on_c, 0, 78, 76
2, 5691, Control_c, 0, 67, 104
2, 5705, Control_c, 0, 67, 104
2, 5726, Note_on_c, 0, 78, 0
2, 5751, Control_c, 0, 67, 105
2, 5766, Control_c, 0, 67, 106
2, 5781, Control_c, 0, 67, 110
2, 5797, Control_c, 0, 67, 113
2, 5812, Control_c, 0, 67, 115
2, 5826, Control_c, 0, 67, 115
2, 5864, Note_on_c, 0, 80, 63
2, 5872, Note_on_c, 0, 68, 0
2, 5895, Note_on_c, 0, 63, 44
2, 5899, Note_on_c, 0, 80, 0
2, 5906, Note_on_c, 0, 78, 73
2, 5970, Note_on_c, 0, 78, 0
2, 5979, Note_on_c, 0, 80, 67
2, 6018, Note_on_c, 0, 59, 0
2, 6116, Control_c, 0, 67, 115
2, 6320, Note_on_c, 0, 52, 51
2, 6336, Control_c, 0, 67, 114
2, 6352, Note_on_c, 0, 80, 0
2, 6371, Note_on_c, 0, 52, 0
2, 6381, Control_c, 0, 67, 114
2, 6397, Control_c, 0, 67, 113
2, 6464, Note_on_c, 0, 80, 80
2, 6474, Control_c, 0, 67, 113
2, 6485, Note_on_c, 0, 54, 51
2, 6504, Control_c, 0, 67, 112
2, 6520, Control_c, 0, 67, 111
2, 6535, Control_c, 0, 67, 111
2, 6536, Note_on_c, 0, 54, 0
2, 6550, Control_c, 0, 67, 110
2, 6580, Control_c, 0, 67, 110
2, 6619, Note_on_c, 0, 56, 55
2, 6625, Control_c, 0, 67, 109
2, 6661, Note_on_c, 0, 80, 0
2, 6664, Note_on_c, 0, 63, 0
2, 6678, Note_on_c, 0, 56, 0
2, 6686, Control_c, 0, 67, 109
2, 6779, Note_on_c, 0, 80, 73
2, 6793, Note_on_c, 0, 56, 41
2, 6807, Note_on_c, 0, 61, 35
2, 6960, Control_c, 0, 67, 109
2, 6975, Control_c, 0, 67, 110
2, 7005, Control_c, 0, 67, 110
2, 7035, Control_c, 0, 67, 111
2, 7058, Control_c, 0, 67, 111
2, 7074, Control_c, 0, 67, 112
2, 7088, Control_c, 0, 67, 112
2, 7103, Control_c, 0, 67, 113
2, 7126, Note_on_c, 0, 57, 37
2, 7133, Control_c, 0, 67, 113
2, 7148, Control_c, 0, 67, 114
2, 7164, Control_c, 0, 67, 115
2, 7176, Note_on_c, 0, 56, 0
2, 7179, Control_c, 0, 67, 115
2, 7209, Control_c, 0, 67, 116
2, 7224, Control_c, 0, 67, 116
2, 7302, Control_c, 0, 67, 117
2, 7363, Control_c, 0, 67, 117
2, 7378, Control_c, 0, 67, 118
2, 7393, Control_c, 0, 67, 122
2, 7408, Control_c, 0, 67, 126
2, 7423, Control_c, 0, 67, 127
2, 7459, Note_on_c, 0, 73, 61
2, 7488, Note_on_c, 0, 80, 0
2, 7603, Note_on_c, 0, 73, 0
2, 7720, Note_on_c, 0, 78, 55
2, 7764, Note_on_c, 0, 78, 0
2, 7784, Note_on_c, 0, 76, 51
2, 7850, Note_on_c, 0, 78, 58
2, 7864, Note_on_c, 0, 76, 0
2, 8271, Note_on_c, 0, 56, 42
2, 8275, Note_on_c, 0, 57, 0
2, 8275, Note_on_c, 0, 76, 54
2, 8322, Note_on_c, 0, 56, 0
2, 8398, Note_on_c, 0, 76, 0
2, 8417, Note_on_c, 0, 75, 65
2, 8432, Note_on_c, 0, 54, 47
2, 8493, Note_on_c, 0, 54, 0
2, 8537, Note_on_c, 0, 61, 0
2, 8544, Note_on_c, 0, 75, 0
2, 8551, Note_on_c, 0, 73, 72
2, 8569, Note_on_c, 0, 52, 48
2, 8624, Note_on_c, 0, 52, 0
2, 8656, Note_on_c, 0, 73, 0
2, 8719, Note_on_c, 0, 73, 66
2, 8731, Control_c, 0, 67, 127
2, 8746, Control_c, 0, 67, 126
2, 8755, Note_on_c, 0, 51, 41
2, 8762, Control_c, 0, 67, 125
2, 8776, Control_c, 0, 67, 124
2, 8792, Control_c, 0, 67, 123
2, 8807, Control_c, 0, 67, 122
2, 8821, Control_c, 0, 67, 121
2, 8837, Control_c, 0, 67, 119
2, 8852, Control_c, 0, 67, 113
2, 8867, Control_c, 0, 67, 102
2, 8883, Control_c, 0, 67, 88
2, 8897, Control_c, 0, 67, 75
2, 8913, Control_c, 0, 67, 64
2, 8929, Control_c, 0, 67, 53
2, 8944, Control_c, 0, 67, 42
2, 8960, Control_c, 0, 67, 29
2, 8975, Control_c, 0, 67, 18
2, 8991, Control_c, 0, 67, 0
2, 9045, Note_on_c, 0, 78, 0
2, 9050, Note_on_c, 0, 72, 67
2, 9095, Note_on_c, 0, 73, 0
2, 9193, Note_on_c, 0, 51, 0
2, 9217, Control_c, 0, 67, 8
2, 9223, Note_on_c, 0, 72, 0
2, 9233, Control_c, 0, 67, 10
2, 9248, Control_c, 0, 67, 12
2, 9263, Control_c, 0, 67, 15
2, 9279, Control_c, 0, 67, 17
2, 9294, Control_c, 0, 67, 18
2, 9310, Control_c, 0, 67, 21
2, 9325, Control_c, 0, 67, 23
2, 9339, Control_c, 0, 67, 26
2, 9362, Control_c, 0, 67, 28
2, 9377, Control_c, 0, 67, 30
2, 9392, Note_on_c, 0, 78, 76
2, 9393, Control_c, 0, 67, 30
2, 9408, Control_c, 0, 67, 31
2, 9410, Note_on_c, 0, 75, 57
2, 9415, Note_on_c, 0, 54, 41
2, 9422, Control_c, 0, 67, 31
2, 9438, Control_c, 0, 67, 32
2, 9453, Control_c, 0, 67, 33
2, 9468, Control_c, 0, 67, 34
2, 9484, Control_c, 0, 67, 34
2, 9498, Control_c, 0, 67, 35
2, 9526, Note_on_c, 0, 75, 0
2, 9529, Control_c, 0, 67, 35
2, 9544, Control_c, 0, 67, 36
2, 9590, Control_c, 0, 67, 36
2, 9594, Note_on_c, 0, 54, 0
2, 9620, Control_c, 0, 67, 37
2, 9643, Note_on_c, 0, 78, 0
2, 9681, Control_c, 0, 67, 37
2, 9727, Control_c, 0, 67, 37
2, 9745, Note_on_c, 0, 78, 83
2, 9757, Note_on_c, 0, 69, 46
2, 9765, Note_on_c, 0, 48, 43
2, 9970, Control_c, 0, 67, 37
2, 10031, Control_c, 0, 67, 38
2, 10034, Note_on_c, 0, 69, 0
2, 10061, Control_c, 0, 67, 38
2, 10077, Control_c, 0, 67, 39
2, 10084, Note_on_c, 0, 68, 68
2, 10092, Control_c, 0, 67, 41
2, 10107, Control_c, 0, 67, 45
2, 10131, Control_c, 0, 67, 46
2, 10146, Control_c, 0, 67, 48
2, 10162, Control_c, 0, 67, 50
2, 10177, Control_c, 0, 67, 52
2, 10192, Control_c, 0, 67, 53
2, 10196, Note_on_c, 0, 78, 0
2, 10207, Control_c, 0, 67, 54
2, 10222, Control_c, 0, 67, 54
2, 10237, Control_c, 0, 67, 55
2, 10245, Note_on_c, 0, 48, 0
2, 10252, Control_c, 0, 67, 55
2, 10267, Control_c, 0, 67, 56
2, 10279, Note_on_c, 0, 68, 0
2, 10283, Control_c, 0, 67, 58
2, 10298, Control_c, 0, 67, 60
2, 10313, Control_c, 0, 67, 61
2, 10328, Control_c, 0, 67, 62
2, 10343, Control_c, 0, 67, 63
2, 10359, Control_c, 0, 67, 64
2, 10374, Control_c, 0, 67, 65
2, 10388, Control_c, 0, 67, 66
2, 10404, Control_c, 0, 67, 66
2, 10410, Note_on_c, 0, 80, 80
2, 10419, Control_c, 0, 67, 67
2, 10422, Note_on_c, 0, 72, 62
2, 10425, Note_on_c, 0, 44, 45
2, 10435, Control_c, 0, 67, 67
2, 10450, Control_c, 0, 67, 68
2, 10464, Control_c, 0, 67, 68
2, 10480, Control_c, 0, 67, 69
2, 10495, Control_c, 0, 67, 71
2, 10511, Control_c, 0, 67, 73
2, 10526, Control_c, 0, 67, 77
2, 10535, Note_on_c, 0, 72, 0
2, 10541, Control_c, 0, 67, 80
2, 10557, Control_c, 0, 67, 84
2, 10572, Control_c, 0, 67, 87
2, 10578, Note_on_c, 0, 44, 0
2, 10587, Control_c, 0, 67, 90
2, 10603, Control_c, 0, 67, 93
2, 10607, Note_on_c, 0, 80, 0
2, 10617, Control_c, 0, 67, 95
2, 10633, Control_c, 0, 67, 96
2, 10721, Note_on_c, 0, 78, 64
2, 10727, Note_on_c, 0, 49, 44
2, 10730, Note_on_c, 0, 73, 52
2, 10739, Control_c, 0, 67, 95
2, 10792, Note_on_c, 0, 49, 0
2, 10802, Note_on_c, 0, 48, 50
2, 10876, Note_on_c, 0, 48, 0
2, 10876, Note_on_c, 0, 49, 19
2, 10929, Control_c, 0, 67, 96
2, 10974, Control_c, 0, 67, 96
2, 11072, Note_on_c, 0, 76, 58
2, 11138, Note_on_c, 0, 78, 0
2, 11156, Control_c, 0, 67, 96
2, 11233, Control_c, 0, 67, 95
2, 11324, Control_c, 0, 67, 95
2, 11568, Control_c, 0, 67, 94
2, 11598, Control_c, 0, 67, 94
2, 11644, Control_c, 0, 67, 93
2, 11666, Control_c, 0, 67, 93
2, 11689, Note_on_c, 0, 49, 0
2, 11773, Control_c, 0, 67, 92
2, 11836, Note_on_c, 0, 37, 36
2, 11863, Control_c, 0, 67, 92
2, 11879, Control_c, 0, 67, 91
2, 12091, Control_c, 0, 67, 92
2, 12106, Control_c, 0, 67, 92
2, 12137, Control_c, 0, 67, 93
2, 12168, Control_c, 0, 67, 93
2, 12177, Note_on_c, 0, 75, 59
2, 12183, Control_c, 0, 67, 94
2, 12186, Note_on_c, 0, 76, 0
2, 12189, Note_on_c, 0, 72, 43
2, 12199, Control_c, 0, 67, 94
2, 12202, Note_on_c, 0, 73, 0
2, 12244, Control_c, 0, 67, 95
2, 12483, Note_on_c, 0, 37, 0
2, 12518, Note_on_c, 0, 76, 57
2, 12543, Note_on_c, 0, 73, 44
2, 12549, Note_on_c, 0, 72, 0
2, 12560, Note_on_c, 0, 75, 0
2, 12586, Control_c, 0, 67, 95
2, 12737, Note_on_c, 0, 76, 0
2, 12814, Control_c, 0, 67, 95
2, 12829, Control_c, 0, 67, 94
2, 12875, Control_c, 0, 67, 94
2, 12878, Note_on_c, 0, 76, 51
2, 12889, Control_c, 0, 67, 93
2, 12892, Note_on_c, 0, 72, 42
2, 12904, Control_c, 0, 67, 92
2, 12914, Note_on_c, 0, 44, 21
2, 12920, Control_c, 0, 67, 91
2, 12951, Control_c, 0, 67, 91
2, 12972, Note_on_c, 0, 73, 0
2, 12981, Control_c, 0, 67, 90
2, 13043, Control_c, 0, 67, 90
2, 13235, Note_on_c, 0, 48, 44
2, 13236, Note_on_c, 0, 75, 46
2, 13237, Note_on_c, 0, 76, 0
2, 13263, Control_c, 0, 67, 89
2, 13263, Note_on_c, 0, 44, 0
2, 13278, Control_c, 0, 67, 89
2, 13293, Control_c, 0, 67, 88
2, 13308, Control_c, 0, 67, 87
2, 13354, Control_c, 0, 67, 86
2, 13384, Control_c, 0, 67, 86
2, 13400, Control_c, 0, 67, 85
2, 13415, Control_c, 0, 67, 83
2, 13416, Note_on_c, 0, 48, 0
2, 13431, Control_c, 0, 67, 81
2, 13446, Control_c, 0, 67, 80
2, 13461, Control_c, 0, 67, 80
2, 13477, Control_c, 0, 67, 78
2, 13491, Control_c, 0, 67, 76
2, 13506, Control_c, 0, 67, 73
2, 13522, Control_c, 0, 67, 71
2, 13536, Control_c, 0, 67, 70
2, 13552, Control_c, 0, 67, 69
2, 13567, Control_c, 0, 67, 69
2, 13582, Control_c, 0, 67, 68
2, 13586, Note_on_c, 0, 51, 59
2, 13598, Control_c, 0, 67, 67
2, 13612, Control_c, 0, 67, 65
2, 13627, Control_c, 0, 67, 63
2, 13643, Control_c, 0, 67, 61
2, 13657, Control_c, 0, 67, 59
2, 13673, Control_c, 0, 67, 58
2, 13688, Control_c, 0, 67, 56
2, 13703, Control_c, 0, 67, 54
2, 13719, Control_c, 0, 67, 52
2, 13733, Control_c, 0, 67, 50
2, 13748, Control_c, 0, 67, 49
2, 13755, Note_on_c, 0, 51, 0
2, 13764, Control_c, 0, 67, 48
2, 13779, Control_c, 0, 67, 47
2, 13795, Control_c, 0, 67, 46
2, 13810, Control_c, 0, 67, 46
2, 13824, Control_c, 0, 67, 45
2, 13941, Note_on_c, 0, 56, 55
2, 13948, Control_c, 0, 67, 46
2, 14047, Control_c, 0, 67, 46
2, 14183, Control_c, 0, 67, 46
2, 14290, Control_c, 0, 67, 45
2, 14335, Control_c, 0, 67, 46
2, 14381, Control_c, 0, 67, 47
2, 14397, Control_c, 0, 67, 48
2, 14403, Note_on_c, 0, 57, 68
2, 14412, Control_c, 0, 67, 49
2, 14427, Control_c, 0, 67, 50
2, 14442, Note_on_c, 0, 56, 0
2, 14443, Control_c, 0, 67, 51
2, 14450, Note_on_c, 0, 75, 0
2, 14457, Control_c, 0, 67, 51
2, 14473, Control_c, 0, 67, 52
2, 14488, Control_c, 0, 67, 53
2, 14490, Note_on_c, 0, 57, 0
2, 14518, Control_c, 0, 67, 53
2, 14533, Control_c, 0, 67, 54
2, 14559, Note_on_c, 0, 56, 69
2, 14564, Control_c, 0, 67, 55
2, 14568, Note_on_c, 0, 75, 71
2, 14578, Control_c, 0, 67, 55
2, 14594, Control_c, 0, 67, 56
2, 14609, Control_c, 0, 67, 57
2, 14624, Control_c, 0, 67, 58
2, 14625, Note_on_c, 0, 56, 0
2, 14640, Control_c, 0, 67, 61
2, 14656, Control_c, 0, 67, 65
2, 14672, Control_c, 0, 67, 70
2, 14686, Control_c, 0, 67, 74
2, 14689, Note_on_c, 0, 54, 71
2, 14701, Control_c, 0, 67, 78
2, 14716, Control_c, 0, 67, 82
2, 14738, Control_c, 0, 67, 86
2, 14754, Control_c, 0, 67, 90
2, 14768, Note_on_c, 0, 54, 0
2, 14769, Control_c, 0, 67, 93
2, 14784, Control_c, 0, 67, 95
2, 14789, Note_on_c, 0, 75, 0
2, 14800, Control_c, 0, 67, 96
2, 14814, Control_c, 0, 67, 97
2, 14829, Control_c, 0, 67, 98
2, 14845, Control_c, 0, 67, 100
2, 14847, Note_on_c, 0, 75, 62
2, 14852, Note_on_c, 0, 56, 56
2, 14860, Control_c, 0, 67, 102
2, 14876, Control_c, 0, 67, 103
2, 14897, Note_on_c, 0, 54, 61
2, 14897, Note_on_c, 0, 56, 0
2, 14936, Control_c, 0, 67, 104
2, 14976, Note_on_c, 0, 54, 0
2, 14985, Note_on_c, 0, 56, 61
2, 15057, Control_c, 0, 67, 104
2, 15133, Control_c, 0, 67, 105
2, 15148, Control_c, 0, 67, 105
2, 15161, Note_on_c, 0, 76, 73
2, 15164, Control_c, 0, 67, 106
2, 15179, Control_c, 0, 67, 108
2, 15191, Note_on_c, 0, 75, 0
2, 15195, Control_c, 0, 67, 111
2, 15210, Control_c, 0, 67, 113
2, 15224, Control_c, 0, 67, 115
2, 15240, Control_c, 0, 67, 117
2, 15241, Note_on_c, 0, 72, 0
2, 15255, Control_c, 0, 67, 119
2, 15271, Control_c, 0, 67, 121
2, 15286, Control_c, 0, 67, 123
2, 15300, Control_c, 0, 67, 125
2, 15316, Control_c, 0, 67, 127
2, 15326, Note_on_c, 0, 56, 0
2, 15331, Control_c, 0, 67, 127
2, 15341, Note_on_c, 0, 76, 0
2, 15505, Note_on_c, 0, 72, 70
2, 15522, Note_on_c, 0, 68, 60
2, 15543, Note_on_c, 0, 56, 39
2, 15704, Note_on_c, 0, 72, 0
2, 15705, Note_on_c, 0, 56, 0
2, 15725, Note_on_c, 0, 68, 0
2, 15859, Note_on_c, 0, 72, 64
2, 15874, Note_on_c, 0, 69, 51
2, 15892, Note_on_c, 0, 56, 40
2, 16188, Note_on_c, 0, 73, 58
2, 16207, Note_on_c, 0, 72, 0
2, 16275, Note_on_c, 0, 56, 0
2, 16346, Note_on_c, 0, 49, 51
2, 16428, Note_on_c, 0, 49, 0
2, 16509, Note_on_c, 0, 51, 53
2, 16533, Control_c, 0, 67, 126
2, 16548, Control_c, 0, 67, 121
2, 16563, Control_c, 0, 67, 118
2, 16576, Note_on_c, 0, 51, 0
2, 16578, Control_c, 0, 67, 119
2, 16594, Control_c, 0, 67, 119
2, 16624, Control_c, 0, 67, 119
2, 16667, Note_on_c, 0, 53, 49
2, 16745, Note_on_c, 0, 53, 0
2, 16875, Note_on_c, 0, 54, 39
2, 16882, Control_c, 0, 67, 118
2, 16924, Note_on_c, 0, 54, 0
2, 16940, Note_on_c, 0, 53, 44
2, 16999, Note_on_c, 0, 53, 0
2, 17018, Note_on_c, 0, 54, 38
2, 17271, Control_c, 0, 67, 118
2, 17346, Control_c, 0, 67, 117
2, 17405, Note_on_c, 0, 76, 62
2, 17424, Note_on_c, 0, 73, 0
2, 17429, Note_on_c, 0, 56, 45
2, 17435, Note_on_c, 0, 54, 0
2, 17439, Control_c, 0, 67, 118
2, 17480, Note_on_c, 0, 56, 0
2, 17571, Note_on_c, 0, 75, 70
2, 17572, Note_on_c, 0, 54, 47
2, 17613, Note_on_c, 0, 76, 0
2, 17622, Note_on_c, 0, 54, 0
2, 17696, Control_c, 0, 67, 117
2, 17702, Note_on_c, 0, 73, 72
2, 17711, Note_on_c, 0, 52, 48
2, 17715, Note_on_c, 0, 75, 0
2, 17780, Note_on_c, 0, 52, 0
2, 17794, Note_on_c, 0, 73, 0
2, 17868, Note_on_c, 0, 54, 46
2, 17873, Note_on_c, 0, 73, 66
2, 17886, Control_c, 0, 67, 117
2, 17921, Note_on_c, 0, 54, 0
2, 17925, Note_on_c, 0, 52, 50
2, 17964, Control_c, 0, 67, 116
2, 17979, Note_on_c, 0, 52, 0
2, 17987, Note_on_c, 0, 54, 45
2, 18054, Control_c, 0, 67, 116
2, 18158, Note_on_c, 0, 81, 78
2, 18234, Note_on_c, 0, 73, 0
2, 18252, Control_c, 0, 67, 116
2, 18267, Note_on_c, 0, 69, 0
2, 18283, Control_c, 0, 67, 117
2, 18291, Note_on_c, 0, 54, 0
2, 18302, Note_on_c, 0, 81, 0
2, 18313, Control_c, 0, 67, 117
2, 18328, Control_c, 0, 67, 118
2, 18343, Control_c, 0, 67, 119
2, 18359, Control_c, 0, 67, 120
2, 18373, Control_c, 0, 67, 121
2, 18388, Control_c, 0, 67, 121
2, 18404, Control_c, 0, 67, 122
2, 18419, Control_c, 0, 67, 123
2, 18435, Control_c, 0, 67, 124
2, 18449, Control_c, 0, 67, 125
2, 18464, Control_c, 0, 67, 126
2, 18480, Control_c, 0, 67, 127
2, 18495, Control_c, 0, 67, 127
2, 18521, Note_on_c, 0, 69, 49
2, 18521, Note_on_c, 0, 73, 62
2, 18530, Note_on_c, 0, 54, 42
2, 18645, Note_on_c, 0, 69, 0
2, 18655, Note_on_c, 0, 73, 0
2, 18689, Note_on_c, 0, 54, 0
2, 18866, Note_on_c, 0, 73, 61
2, 18888, Note_on_c, 0, 68, 47
2, 18894, Note_on_c, 0, 54, 41
2, 19178, Note_on_c, 0, 54, 0
2, 19178, Note_on_c, 0, 68, 0
2, 19187, Note_on_c, 0, 72, 67
2, 19199, Note_on_c, 0, 56, 44
2, 19234, Note_on_c, 0, 73, 0
2, 19263, Note_on_c, 0, 56, 0
2, 19328, Note_on_c, 0, 54, 50
2, 19337, Control_c, 0, 67, 113
2, 19361, Control_c, 0, 67, 99
2, 19375, Control_c, 0, 67, 85
2, 19391, Control_c, 0, 67, 72
2, 19406, Control_c, 0, 67, 60
2, 19414, Note_on_c, 0, 54, 0
2, 19420, Control_c, 0, 67, 48
2, 19436, Control_c, 0, 67, 38
2, 19451, Control_c, 0, 67, 29
2, 19466, Control_c, 0, 67, 21
2, 19482, Control_c, 0, 67, 15
2, 19496, Control_c, 0, 67, 10
2, 19514, Control_c, 0, 67, 0
2, 19516, Note_on_c, 0, 68, 70
2, 19541, Note_on_c, 0, 52, 39
2, 19571, Note_on_c, 0, 72, 0
2, 19639, Note_on_c, 0, 52, 0
2, 19660, Note_on_c, 0, 51, 48
2, 19725, Note_on_c, 0, 51, 0
2, 19759, Note_on_c, 0, 68, 0
2, 19832, Note_on_c, 0, 68, 65
2, 19834, Note_on_c, 0, 52, 41
2, 20054, Note_on_c, 0, 73, 58
2, 20071, Note_on_c, 0, 68, 0
2, 20093, Note_on_c, 0, 73, 0
2, 20097, Note_on_c, 0, 72, 62
2, 20179, Note_on_c, 0, 73, 72
2, 20202, Note_on_c, 0, 72, 0
2, 20514, Note_on_c, 0, 56, 57
2, 20588, Control_c, 0, 67, 8
2, 20603, Control_c, 0, 67, 9
2, 20618, Control_c, 0, 67, 9
2, 20634, Control_c, 0, 67, 10
2, 20648, Control_c, 0, 67, 11
2, 20664, Control_c, 0, 67, 11
2, 20679, Control_c, 0, 67, 12
2, 20694, Control_c, 0, 67, 13
2, 20709, Control_c, 0, 67, 14
2, 20724, Control_c, 0, 67, 15
2, 20739, Control_c, 0, 67, 16
2, 20755, Control_c, 0, 67, 18
2, 20770, Control_c, 0, 67, 18
2, 20786, Control_c, 0, 67, 20
2, 20801, Control_c, 0, 67, 21
2, 20816, Control_c, 0, 67, 22
2, 20831, Control_c, 0, 67, 23
2, 20846, Control_c, 0, 67, 24
2, 20851, Note_on_c, 0, 61, 79
2, 20861, Control_c, 0, 67, 24
2, 20929, Control_c, 0, 67, 25
2, 20941, Note_on_c, 0, 56, 0
2, 20991, Control_c, 0, 67, 25
2, 21006, Control_c, 0, 67, 26
2, 21021, Control_c, 0, 67, 29
2, 21036, Control_c, 0, 67, 33
2, 21051, Control_c, 0, 67, 36
2, 21067, Control_c, 0, 67, 40
2, 21082, Control_c, 0, 67, 44
2, 21097, Control_c, 0, 67, 47
2, 21112, Control_c, 0, 67, 50
2, 21127, Control_c, 0, 67, 52
2, 21142, Control_c, 0, 67, 53
2, 21158, Control_c, 0, 67, 54
2, 21173, Control_c, 0, 67, 55
2, 21188, Control_c, 0, 67, 57
2, 21203, Control_c, 0, 67, 60
2, 21206, Note_on_c, 0, 51, 48
2, 21219, Control_c, 0, 67, 65
2, 21235, Control_c, 0, 67, 68
2, 21250, Control_c, 0, 67, 71
2, 21259, Note_on_c, 0, 52, 0
2, 21265, Control_c, 0, 67, 73
2, 21280, Control_c, 0, 67, 75
2, 21295, Control_c, 0, 67, 76
2, 21311, Control_c, 0, 67, 80
2, 21326, Control_c, 0, 67, 88
2, 21339, Note_on_c, 0, 51, 0
2, 21340, Control_c, 0, 67, 99
2, 21356, Control_c, 0, 67, 112
2, 21371, Control_c, 0, 67, 124
2, 21387, Control_c, 0, 67, 127
2, 21558, Note_on_c, 0, 64, 71
2, 21577, Note_on_c, 0, 49, 36
2, 21612, Note_on_c, 0, 61, 0
2, 21749, Note_on_c, 0, 49, 0
2, 21934, Note_on_c, 0, 63, 64
2, 21969, Note_on_c, 0, 54, 41
2, 22004, Note_on_c, 0, 64, 0
2, 22270, Note_on_c, 0, 52, 53
2, 22275, Note_on_c, 0, 54, 0
2, 22369, Note_on_c, 0, 52, 0
2, 22610, Note_on_c, 0, 51, 46
2, 22611, Note_on_c, 0, 75, 68
2, 22677, Note_on_c, 0, 73, 0
2, 22721, Note_on_c, 0, 51, 0
2, 22994, Note_on_c, 0, 73, 59
2, 22999, Note_on_c, 0, 56, 41
2, 23044, Note_on_c, 0, 75, 0
2, 23326, Note_on_c, 0, 63, 0
2, 23352, Note_on_c, 0, 73, 0
2, 23357, Note_on_c, 0, 71, 55
2, 23460, Note_on_c, 0, 56, 0
2, 23497, Note_on_c, 0, 63, 67
2, 23565, Note_on_c, 0, 63, 0
2, 23643, Control_c, 0, 67, 127
2, 23650, Note_on_c, 0, 64, 70
2, 23658, Control_c, 0, 67, 118
2, 23675, Control_c, 0, 67, 110
2, 23684, Note_on_c, 0, 54, 44
2, 23690, Control_c, 0, 67, 102
2, 23706, Control_c, 0, 67, 95
2, 23720, Control_c, 0, 67, 86
2, 23727, Note_on_c, 0, 64, 0
2, 23735, Control_c, 0, 67, 79
2, 23739, Note_on_c, 0, 54, 0
2, 23748, Control_c, 0, 67, 74
2, 23764, Control_c, 0, 67, 70
2, 23779, Control_c, 0, 67, 67
2, 23794, Control_c, 0, 67, 65
2, 23795, Note_on_c, 0, 66, 70
2, 23809, Control_c, 0, 67, 64
2, 23855, Control_c, 0, 67, 65
2, 23868, Note_on_c, 0, 66, 0
2, 23869, Control_c, 0, 67, 66
2, 23885, Control_c, 0, 67, 67
2, 23900, Control_c, 0, 67, 68
2, 23916, Control_c, 0, 67, 69
2, 23931, Control_c, 0, 67, 70
2, 23954, Control_c, 0, 67, 71
2, 23969, Control_c, 0, 67, 71
2, 23984, Control_c, 0, 67, 72
2, 23995, Note_on_c, 0, 68, 62
2, 24000, Control_c, 0, 67, 72
2, 24015, Control_c, 0, 67, 73
2, 24031, Control_c, 0, 67, 73
2, 24034, Note_on_c, 0, 54, 31
2, 24040, Note_on_c, 0, 68, 0
2, 24055, Note_on_c, 0, 66, 61
2, 24061, Control_c, 0, 67, 74
2, 24113, Note_on_c, 0, 66, 0
2, 24120, Note_on_c, 0, 68, 57
2, 24227, Control_c, 0, 67, 73
2, 24271, Note_on_c, 0, 54, 0
2, 24327, Note_on_c, 0, 53, 45
2, 24364, Control_c, 0, 67, 74
2, 24385, Note_on_c, 0, 53, 0
2, 24455, Control_c, 0, 67, 74
2, 24480, Note_on_c, 0, 53, 56
2, 24528, Note_on_c, 0, 68, 0
2, 24543, Note_on_c, 0, 53, 0
2, 24577, Control_c, 0, 67, 74
2, 24593, Control_c, 0, 67, 73
2, 24638, Note_on_c, 0, 68, 77
2, 24642, Note_on_c, 0, 54, 54
2, 24654, Control_c, 0, 67, 74
2, 24685, Control_c, 0, 67, 74
2, 24688, Note_on_c, 0, 54, 0
2, 24780, Note_on_c, 0, 56, 64
2, 24813, Control_c, 0, 67, 75
2, 24851, Note_on_c, 0, 56, 0
2, 24905, Note_on_c, 0, 68, 0
2, 24935, Control_c, 0, 67, 74
2, 24964, Note_on_c, 0, 68, 65
2, 24996, Control_c, 0, 67, 74
2, 24998, Note_on_c, 0, 57, 38
2, 25042, Control_c, 0, 67, 73
2, 25056, Control_c, 0, 67, 73
2, 25102, Control_c, 0, 67, 72
2, 25117, Control_c, 0, 67, 72
2, 25132, Control_c, 0, 67, 71
2, 25177, Control_c, 0, 67, 71
2, 25193, Control_c, 0, 67, 70
2, 25223, Control_c, 0, 67, 69
2, 25268, Control_c, 0, 67, 69
2, 25299, Control_c, 0, 67, 68
2, 25317, Note_on_c, 0, 59, 40
2, 25339, Note_on_c, 0, 57, 0
2, 25437, Control_c, 0, 67, 69
2, 25452, Control_c, 0, 67, 69
2, 25489, Control_c, 0, 67, 70
2, 25503, Note_on_c, 0, 59, 0
2, 25504, Control_c, 0, 67, 71
2, 25520, Control_c, 0, 67, 71
2, 25535, Control_c, 0, 67, 72
2, 25551, Control_c, 0, 67, 72
2, 25580, Control_c, 0, 67, 73
2, 25642, Control_c, 0, 67, 73
2, 25693, Note_on_c, 0, 61, 56
2, 25696, Note_on_c, 0, 56, 42
2, 25722, Note_on_c, 0, 68, 0
2, 25871, Note_on_c, 0, 56, 0
2, 26048, Note_on_c, 0, 66, 45
2, 26048, Note_on_c, 0, 69, 47
2, 26072, Note_on_c, 0, 54, 34
2, 26085, Note_on_c, 0, 71, 0
2, 26089, Note_on_c, 0, 61, 0
2, 26097, Control_c, 0, 67, 74
2, 26128, Control_c, 0, 67, 74
2, 26143, Control_c, 0, 67, 75
2, 26188, Control_c, 0, 67, 75
2, 26188, Note_on_c, 0, 69, 0
2, 26201, Note_on_c, 0, 71, 55
2, 26235, Control_c, 0, 67, 76
2, 26273, Control_c, 0, 67, 77
2, 26288, Control_c, 0, 67, 82
2, 26290, Note_on_c, 0, 71, 0
2, 26301, Note_on_c, 0, 69, 55
2, 26303, Control_c, 0, 67, 87
2, 26319, Control_c, 0, 67, 91
2, 26333, Control_c, 0, 67, 94
2, 26348, Control_c, 0, 67, 96
2, 26364, Control_c, 0, 67, 101
2, 26366, Note_on_c, 0, 69, 0
2, 26370, Note_on_c, 0, 56, 43
2, 26374, Note_on_c, 0, 54, 0
2, 26375, Note_on_c, 0, 71, 55
2, 26379, Control_c, 0, 67, 106
2, 26394, Control_c, 0, 67, 111
2, 26409, Control_c, 0, 67, 116
2, 26410, Note_on_c, 0, 56, 0
2, 26424, Control_c, 0, 67, 119
2, 26440, Control_c, 0, 67, 121
2, 26444, Note_on_c, 0, 69, 48
2, 26455, Control_c, 0, 67, 122
2, 26469, Control_c, 0, 67, 122
2, 26476, Note_on_c, 0, 71, 0
2, 26485, Control_c, 0, 67, 123
2, 26489, Note_on_c, 0, 71, 38
2, 26491, Note_on_c, 0, 69, 0
2, 26500, Control_c, 0, 67, 124
2, 26516, Control_c, 0, 67, 124
2, 26531, Control_c, 0, 67, 125
2, 26546, Control_c, 0, 67, 125
2, 26574, Note_on_c, 0, 66, 0
2, 26574, Note_on_c, 0, 69, 52
2, 26576, Note_on_c, 0, 71, 0
2, 26607, Control_c, 0, 67, 126
2, 26628, Note_on_c, 0, 69, 0
2, 26662, Note_on_c, 0, 68, 48
2, 26680, Note_on_c, 0, 52, 39
2, 26685, Control_c, 0, 67, 125
2, 26716, Control_c, 0, 67, 125
2, 26731, Control_c, 0, 67, 124
2, 26746, Control_c, 0, 67, 124
2, 26761, Control_c, 0, 67, 123
2, 26776, Control_c, 0, 67, 123
2, 26791, Control_c, 0, 67, 122
2, 26821, Control_c, 0, 67, 122
2, 26829, Note_on_c, 0, 52, 0
2, 26882, Control_c, 0, 67, 121
2, 26900, Note_on_c, 0, 68, 0
2, 27010, Note_on_c, 0, 51, 39
2, 27013, Note_on_c, 0, 68, 72
2, 27151, Control_c, 0, 67, 121
2, 27241, Control_c, 0, 67, 120
2, 27347, Note_on_c, 0, 69, 76
2, 27348, Control_c, 0, 67, 120
2, 27353, Note_on_c, 0, 52, 48
2, 27399, Note_on_c, 0, 51, 0
2, 27414, Note_on_c, 0, 68, 0
2, 27508, Note_on_c, 0, 52, 0
2, 27546, Control_c, 0, 67, 119
2, 27683, Note_on_c, 0, 71, 70
2, 27696, Note_on_c, 0, 49, 46
2, 27700, Note_on_c, 0, 66, 55
2, 27756, Note_on_c, 0, 69, 0
2, 27848, Note_on_c, 0, 66, 0
2, 27904, Control_c, 0, 67, 119
2, 27904, Note_on_c, 0, 49, 0
2, 28049, Note_on_c, 0, 69, 62
2, 28057, Note_on_c, 0, 48, 47
2, 28065, Note_on_c, 0, 66, 40
2, 28108, Note_on_c, 0, 71, 0
2, 28237, Control_c, 0, 67, 119
2, 28361, Note_on_c, 0, 69, 0
2, 28386, Note_on_c, 0, 46, 44
2, 28398, Note_on_c, 0, 68, 43
2, 28407, Note_on_c, 0, 48, 0
2, 28539, Note_on_c, 0, 46, 0
2, 28600, Note_on_c, 0, 68, 0
2, 28671, Control_c, 0, 67, 119
2, 28740, Note_on_c, 0, 44, 41
2, 28747, Note_on_c, 0, 68, 53
2, 28789, Note_on_c, 0, 66, 0
2, 28886, Note_on_c, 0, 44, 0
2, 28960, Control_c, 0, 67, 119
2, 29015, Note_on_c, 0, 68, 0
2, 29034, Note_on_c, 0, 66, 53
2, 29071, Note_on_c, 0, 66, 0
2, 29083, Note_on_c, 0, 49, 34
2, 29092, Note_on_c, 0, 64, 44
2, 29122, Note_on_c, 0, 64, 0
2, 29151, Note_on_c, 0, 66, 55
2, 29197, Note_on_c, 0, 66, 0
2, 29202, Control_c, 0, 67, 120
2, 29202, Note_on_c, 0, 64, 47
2, 29347, Note_on_c, 0, 49, 0
2, 29398, Note_on_c, 0, 51, 36
2, 29484, Control_c, 0, 67, 119
2, 29499, Control_c, 0, 67, 119
2, 29515, Control_c, 0, 67, 118
2, 29530, Control_c, 0, 67, 118
2, 29561, Note_on_c, 0, 51, 0
2, 29591, Control_c, 0, 67, 117
2, 29621, Control_c, 0, 67, 117
2, 29652, Control_c, 0, 67, 117
2, 29734, Note_on_c, 0, 47, 52
2, 29740, Note_on_c, 0, 68, 68
2, 29759, Control_c, 0, 67, 117
2, 29886, Note_on_c, 0, 47, 0
2, 29900, Note_on_c, 0, 68, 0
2, 30015, Control_c, 0, 67, 116
2, 30061, Control_c, 0, 67, 115
2, 30099, Control_c, 0, 67, 114
2, 30115, Control_c, 0, 67, 113
2, 30123, Note_on_c, 0, 73, 69
2, 30130, Control_c, 0, 67, 111
2, 30144, Note_on_c, 0, 46, 40
2, 30146, Control_c, 0, 67, 109
2, 30161, Control_c, 0, 67, 108
2, 30175, Control_c, 0, 67, 106
2, 30191, Control_c, 0, 67, 105
2, 30206, Control_c, 0, 67, 104
2, 30221, Control_c, 0, 67, 102
2, 30238, Control_c, 0, 67, 101
2, 30252, Control_c, 0, 67, 101
2, 30268, Control_c, 0, 67, 100
2, 30283, Control_c, 0, 67, 100
2, 30359, Control_c, 0, 67, 100
2, 30390, Control_c, 0, 67, 101
2, 30450, Control_c, 0, 67, 101
2, 30459, Note_on_c, 0, 63, 51
2, 30466, Control_c, 0, 67, 102
2, 30480, Control_c, 0, 67, 102
2, 30490, Note_on_c, 0, 47, 34
2, 30493, Note_on_c, 0, 64, 0
2, 30501, Note_on_c, 0, 46, 0
2, 30511, Control_c, 0, 67, 103
2, 30541, Control_c, 0, 67, 104
2, 30557, Control_c, 0, 67, 104
2, 30572, Control_c, 0, 67, 105
2, 30603, Control_c, 0, 67, 105
2, 30609, Note_on_c, 0, 47, 0
2, 30793, Note_on_c, 0, 64, 42
2, 30808, Note_on_c, 0, 44, 35
2, 30853, Note_on_c, 0, 63, 0
2, 30974, Control_c, 0, 67, 105
2, 30975, Note_on_c, 0, 44, 0
2, 31067, Control_c, 0, 67, 104
2, 31072, Note_on_c, 0, 64, 0
2, 31129, Note_on_c, 0, 63, 34
2, 31171, Note_on_c, 0, 43, 30
2, 31339, Control_c, 0, 67, 104
2, 31488, Note_on_c, 0, 41, 32
2, 31553, Control_c, 0, 67, 104
2, 31554, Note_on_c, 0, 43, 0
2, 31602, Note_on_c, 0, 41, 0
2, 31789, Control_c, 0, 67, 105
2, 31822, Note_on_c, 0, 75, 50
2, 31835, Note_on_c, 0, 39, 33
2, 31847, Note_on_c, 0, 73, 0
2, 31866, Control_c, 0, 67, 105
2, 31911, Control_c, 0, 67, 106
2, 31926, Control_c, 0, 67, 106
2, 31941, Control_c, 0, 67, 107
2, 31956, Control_c, 0, 67, 108
2, 31962, Note_on_c, 0, 39, 0
2, 31987, Control_c, 0, 67, 108
2, 32016, Control_c, 0, 67, 109
2, 32032, Control_c, 0, 67, 110
2, 32078, Control_c, 0, 67, 109
2, 32092, Control_c, 0, 67, 108
2, 32108, Control_c, 0, 67, 107
2, 32123, Control_c, 0, 67, 107
2, 32153, Control_c, 0, 67, 107
2, 32155, Note_on_c, 0, 75, 0
2, 32164, Note_on_c, 0, 73, 39
2, 32165, Note_on_c, 0, 44, 32
2, 32168, Control_c, 0, 67, 108
2, 32237, Note_on_c, 0, 73, 0
2, 32259, Control_c, 0, 67, 107
2, 32265, Note_on_c, 0, 71, 47
2, 32306, Control_c, 0, 67, 107
2, 32345, Note_on_c, 0, 71, 0
2, 32364, Note_on_c, 0, 73, 55
2, 32431, Note_on_c, 0, 73, 0
2, 32446, Note_on_c, 0, 71, 48
2, 32458, Note_on_c, 0, 47, 42
2, 32487, Note_on_c, 0, 44, 0
2, 32498, Note_on_c, 0, 71, 0
2, 32516, Note_on_c, 0, 47, 0
2, 32522, Note_on_c, 0, 73, 48
2, 32574, Note_on_c, 0, 73, 0
2, 32586, Note_on_c, 0, 71, 44
2, 32627, Note_on_c, 0, 71, 0
2, 32641, Note_on_c, 0, 73, 50
2, 32714, Note_on_c, 0, 73, 0
2, 32715, Note_on_c, 0, 71, 58
2, 32785, Note_on_c, 0, 46, 50
2, 32813, Control_c, 0, 67, 106
2, 32873, Note_on_c, 0, 46, 0
2, 32941, Note_on_c, 0, 63, 0
2, 32981, Control_c, 0, 67, 106
2, 33126, Note_on_c, 0, 68, 67
2, 33135, Note_on_c, 0, 47, 54
2, 33201, Control_c, 0, 67, 106
2, 33368, Control_c, 0, 67, 106
2, 33468, Note_on_c, 0, 49, 55
2, 33470, Note_on_c, 0, 70, 71
2, 33495, Note_on_c, 0, 47, 0
2, 33500, Note_on_c, 0, 71, 0
2, 33593, Note_on_c, 0, 49, 0
2, 33813, Note_on_c, 0, 51, 56
2, 33815, Note_on_c, 0, 71, 75
2, 33871, Control_c, 0, 67, 106
2, 33948, Note_on_c, 0, 51, 0
2, 33951, Note_on_c, 0, 70, 0
2, 34106, Note_on_c, 0, 71, 0
2, 34157, Note_on_c, 0, 71, 58
2, 34172, Note_on_c, 0, 52, 54
2, 34320, Control_c, 0, 67, 107
2, 34366, Control_c, 0, 67, 107
2, 34381, Control_c, 0, 67, 108
2, 34396, Control_c, 0, 67, 108
2, 34484, Note_on_c, 0, 70, 64
2, 34499, Note_on_c, 0, 54, 54
2, 34502, Control_c, 0, 67, 109
2, 34507, Note_on_c, 0, 71, 0
2, 34565, Note_on_c, 0, 52, 0
2, 34594, Control_c, 0, 67, 108
2, 34630, Note_on_c, 0, 54, 0
2, 34684, Control_c, 0, 67, 108
2, 34838, Note_on_c, 0, 51, 62
2, 35004, Note_on_c, 0, 51, 0
2, 35027, Control_c, 0, 67, 107
2, 35200, Note_on_c, 0, 67, 75
2, 35205, Note_on_c, 0, 49, 55
2, 35271, Note_on_c, 0, 68, 0
2, 35362, Control_c, 0, 67, 107
2, 35561, Note_on_c, 0, 51, 70
2, 35607, Note_on_c, 0, 49, 0
2, 35717, Note_on_c, 0, 51, 0
2, 35807, Control_c, 0, 67, 107
2, 35822, Control_c, 0, 67, 108
2, 35868, Control_c, 0, 67, 108
2, 35884, Control_c, 0, 67, 109
2, 35899, Control_c, 0, 67, 110
2, 35903, Note_on_c, 0, 71, 78
2, 35914, Control_c, 0, 67, 112
2, 35917, Note_on_c, 0, 47, 67
2, 35917, Note_on_c, 0, 68, 72
2, 35929, Control_c, 0, 67, 117
2, 35944, Control_c, 0, 67, 123
2, 35952, Note_on_c, 0, 67, 0
2, 35960, Control_c, 0, 67, 127
2, 35978, Note_on_c, 0, 70, 0
2, 36037, Control_c, 0, 67, 127
2, 36052, Control_c, 0, 67, 126
2, 36066, Note_on_c, 0, 47, 0
2, 36073, Note_on_c, 0, 68, 0
2, 36082, Control_c, 0, 67, 126
2, 36082, Note_on_c, 0, 71, 0
2, 36143, Control_c, 0, 67, 125
2, 36257, Note_on_c, 0, 73, 67
2, 36263, Note_on_c, 0, 70, 57
2, 36268, Note_on_c, 0, 46, 57
2, 36287, Control_c, 0, 67, 125
2, 36301, Control_c, 0, 67, 124
2, 36317, Control_c, 0, 67, 124
2, 36330, Note_on_c, 0, 71, 72
2, 36345, Note_on_c, 0, 73, 0
2, 36408, Note_on_c, 0, 73, 71
2, 36423, Note_on_c, 0, 71, 0
2, 36471, Note_on_c, 0, 46, 0
2, 36472, Note_on_c, 0, 47, 67
2, 36647, Note_on_c, 0, 49, 76
2, 36654, Note_on_c, 0, 47, 0
2, 36696, Control_c, 0, 67, 124
2, 36742, Control_c, 0, 67, 125
2, 36788, Control_c, 0, 67, 125
2, 36836, Note_on_c, 0, 49, 0
2, 37060, Note_on_c, 0, 46, 79
2, 37273, Note_on_c, 0, 46, 0
2, 37511, Note_on_c, 0, 39, 69
2, 37571, Control_c, 0, 67, 126
2, 37693, Control_c, 0, 67, 125
2, 37708, Control_c, 0, 67, 124
2, 37739, Control_c, 0, 67, 124
2, 37777, Control_c, 0, 67, 123
2, 37897, Note_on_c, 0, 76, 83
2, 37927, Control_c, 0, 67, 124
2, 38216, Control_c, 0, 67, 124
2, 38229, Note_on_c, 0, 73, 0
2, 38229, Note_on_c, 0, 75, 82
2, 38239, Note_on_c, 0, 71, 73
2, 38243, Note_on_c, 0, 70, 0
2, 38272, Note_on_c, 0, 76, 0
2, 38385, Note_on_c, 0, 71, 0
2, 38385, Note_on_c, 0, 71, 8
2, 38459, Control_c, 0, 67, 125
2, 38459, Note_on_c, 0, 71, 0
2, 38478, Note_on_c, 0, 75, 0
2, 38574, Note_on_c, 0, 75, 79
2, 38584, Note_on_c, 0, 71, 67
2, 38589, Control_c, 0, 67, 125
2, 38817, Note_on_c, 0, 39, 0
2, 38831, Control_c, 0, 67, 126
2, 38858, Note_on_c, 0, 75, 0
2, 38862, Control_c, 0, 67, 126
2, 38866, Note_on_c, 0, 76, 59
2, 38875, Note_on_c, 0, 73, 54
2, 38876, Note_on_c, 0, 71, 0
2, 38878, Control_c, 0, 67, 127
2, 38893, Control_c, 0, 67, 127
2, 38929, Note_on_c, 0, 76, 0
2, 38939, Note_on_c, 0, 75, 64
2, 39009, Note_on_c, 0, 76, 63
2, 39017, Note_on_c, 0, 75, 0
2, 39171, Note_on_c, 0, 55, 61
2, 39292, Note_on_c, 0, 55, 0
2, 39547, Note_on_c, 0, 55, 52
2, 39901, Note_on_c, 0, 56, 46
2, 39941, Note_on_c, 0, 55, 0
2, 40020, Note_on_c, 0, 73, 0
2, 40239, Note_on_c, 0, 76, 0
2, 40253, Note_on_c, 0, 73, 64
2, 40256, Note_on_c, 0, 70, 51
2, 40354, Note_on_c, 0, 73, 0
2, 40373, Note_on_c, 0, 70, 0
2, 40532, Note_on_c, 0, 75, 60
2, 40533, Note_on_c, 0, 71, 42
2, 40583, Note_on_c, 0, 75, 0
2, 40593, Note_on_c, 0, 73, 60
2, 40654, Note_on_c, 0, 75, 60
2, 40656, Note_on_c, 0, 73, 0
2, 40858, Note_on_c, 0, 54, 55
2, 40863, Note_on_c, 0, 56, 0
2, 41035, Note_on_c, 0, 54, 0
2, 41205, Note_on_c, 0, 76, 61
2, 41237, Note_on_c, 0, 52, 46
2, 41255, Note_on_c, 0, 75, 0
2, 41464, Note_on_c, 0, 52, 0
2, 41582, Note_on_c, 0, 71, 0
2, 41589, Note_on_c, 0, 72, 44
2, 41592, Note_on_c, 0, 78, 60
2, 41596, Note_on_c, 0, 76, 0
2, 41625, Note_on_c, 0, 51, 33
2, 41953, Note_on_c, 0, 76, 49
2, 41969, Note_on_c, 0, 78, 0
2, 42069, Note_on_c, 0, 76, 0
2, 42090, Note_on_c, 0, 51, 0
2, 42309, Note_on_c, 0, 56, 28
2, 42324, Note_on_c, 0, 75, 47
2, 42427, Note_on_c, 0, 72, 0
2, 42445, Note_on_c, 0, 75, 0
2, 42451, Note_on_c, 0, 56, 0
2, 42662, Note_on_c, 0, 77, 49
2, 42673, Note_on_c, 0, 73, 32
2, 42690, Note_on_c, 0, 51, 27
2, 42749, Note_on_c, 0, 51, 0
2, 42773, Note_on_c, 0, 49, 35
2, 42829, Note_on_c, 0, 49, 0
2, 42844, Note_on_c, 0, 51, 34
2, 42913, Note_on_c, 0, 51, 0
2, 42937, Note_on_c, 0, 49, 25
2, 42970, Note_on_c, 0, 49, 0
2, 42977, Note_on_c, 0, 51, 36
2, 42984, Note_on_c, 0, 77, 0
2, 42992, Note_on_c, 0, 80, 60
2, 43032, Note_on_c, 0, 51, 0
2, 43060, Note_on_c, 0, 49, 57
2, 43072, Note_on_c, 0, 80, 0
2, 43108, Note_on_c, 0, 49, 0
2, 43127, Note_on_c, 0, 51, 51
2, 43178, Note_on_c, 0, 51, 0
2, 43200, Note_on_c, 0, 49, 54
2, 43240, Note_on_c, 0, 49, 0
2, 43273, Note_on_c, 0, 51, 51
2, 43302, Note_on_c, 0, 51, 0
2, 43309, Note_on_c, 0, 79, 59
2, 43319, Note_on_c, 0, 49, 58
2, 43402, Note_on_c, 0, 48, 55
2, 43411, Note_on_c, 0, 73, 0
2, 43427, Note_on_c, 0, 79, 0
2, 43452, Note_on_c, 0, 49, 0
2, 43510, Note_on_c, 0, 49, 44
2, 43523, Note_on_c, 0, 48, 0
2, 43648, Note_on_c, 0, 49, 0
2, 43650, Note_on_c, 0, 80, 67
2, 43670, Note_on_c, 0, 51, 49
2, 43679, Note_on_c, 0, 71, 44
2, 43735, Note_on_c, 0, 51, 0
2, 43763, Note_on_c, 0, 50, 54
2, 43824, Note_on_c, 0, 50, 0
2, 43845, Note_on_c, 0, 51, 63
2, 43898, Note_on_c, 0, 51, 0
2, 43909, Note_on_c, 0, 50, 55
2, 43979, Note_on_c, 0, 79, 70
2, 43983, Note_on_c, 0, 50, 0
2, 43992, Note_on_c, 0, 51, 66
2, 44000, Note_on_c, 0, 80, 0
2, 44050, Note_on_c, 0, 50, 60
2, 44050, Note_on_c, 0, 51, 0
2, 44056, Note_on_c, 0, 79, 0
2, 44134, Control_c, 0, 67, 127
2, 44144, Note_on_c, 0, 51, 55
2, 44150, Control_c, 0, 67, 126
2, 44166, Control_c, 0, 67, 125
2, 44170, Note_on_c, 0, 50, 0
2, 44181, Control_c, 0, 67, 124
2, 44197, Control_c, 0, 67, 122
2, 44212, Control_c, 0, 67, 120
2, 44215, Note_on_c, 0, 51, 0
2, 44226, Control_c, 0, 67, 119
2, 44242, Control_c, 0, 67, 117
2, 44254, Note_on_c, 0, 51, 9
2, 44257, Control_c, 0, 67, 116
2, 44273, Control_c, 0, 67, 115
2, 44288, Control_c, 0, 67, 115
2, 44297, Note_on_c, 0, 51, 0
2, 44320, Note_on_c, 0, 77, 60
2, 44343, Note_on_c, 0, 71, 0
2, 44412, Note_on_c, 0, 77, 0
2, 44417, Note_on_c, 0, 48, 54
2, 44424, Control_c, 0, 67, 115
2, 44454, Control_c, 0, 67, 116
2, 44485, Control_c, 0, 67, 116
2, 44499, Note_on_c, 0, 48, 0
2, 44513, Note_on_c, 0, 50, 56
2, 44590, Control_c, 0, 67, 116
2, 44606, Control_c, 0, 67, 115
2, 44621, Note_on_c, 0, 50, 0
2, 44637, Control_c, 0, 67, 115
2, 44649, Note_on_c, 0, 79, 68
2, 44652, Note_on_c, 0, 51, 50
2, 44661, Note_on_c, 0, 70, 54
2, 44689, Control_c, 0, 67, 114
2, 44734, Control_c, 0, 67, 114
2, 44749, Control_c, 0, 67, 113
2, 44764, Control_c, 0, 67, 111
2, 44779, Control_c, 0, 67, 110
2, 44795, Control_c, 0, 67, 110
2, 44810, Control_c, 0, 67, 109
2, 44946, Control_c, 0, 67, 109
2, 45008, Control_c, 0, 67, 108
2, 45052, Note_on_c, 0, 73, 75
2, 45054, Control_c, 0, 67, 107
2, 45068, Control_c, 0, 67, 104
2, 45084, Control_c, 0, 67, 101
2, 45099, Control_c, 0, 67, 98
2, 45115, Control_c, 0, 67, 96
2, 45130, Control_c, 0, 67, 94
2, 45135, Note_on_c, 0, 70, 0
2, 45144, Control_c, 0, 67, 93
2, 45160, Control_c, 0, 67, 91
2, 45175, Control_c, 0, 67, 89
2, 45190, Control_c, 0, 67, 86
2, 45205, Control_c, 0, 67, 82
2, 45220, Control_c, 0, 67, 80
2, 45236, Control_c, 0, 67, 78
2, 45251, Control_c, 0, 67, 78
2, 45266, Control_c, 0, 67, 77
2, 45297, Control_c, 0, 67, 78
2, 45313, Control_c, 0, 67, 79
2, 45343, Control_c, 0, 67, 80
2, 45373, Control_c, 0, 67, 80
2, 45388, Control_c, 0, 67, 82
2, 45390, Note_on_c, 0, 80, 81
2, 45403, Control_c, 0, 67, 83
2, 45410, Note_on_c, 0, 71, 59
2, 45418, Control_c, 0, 67, 84
2, 45432, Note_on_c, 0, 79, 0
2, 45443, Note_on_c, 0, 73, 0
2, 45472, Control_c, 0, 67, 84
2, 45487, Control_c, 0, 67, 85
2, 45502, Control_c, 0, 67, 86
2, 45517, Control_c, 0, 67, 87
2, 45578, Control_c, 0, 67, 88
2, 45608, Control_c, 0, 67, 88
2, 45715, Control_c, 0, 67, 89
2, 45729, Note_on_c, 0, 82, 83
2, 45730, Control_c, 0, 67, 89
2, 45743, Note_on_c, 0, 73, 64
2, 45744, Control_c, 0, 67, 90
2, 45760, Control_c, 0, 67, 92
2, 45775, Control_c, 0, 67, 93
2, 45775, Note_on_c, 0, 80, 0
2, 45792, Control_c, 0, 67, 93
2, 45807, Control_c, 0, 67, 95
2, 45810, Note_on_c, 0, 71, 0
2, 45822, Control_c, 0, 67, 95
2, 45837, Control_c, 0, 67, 96
2, 45853, Note_on_c, 0, 73, 0
2, 45867, Control_c, 0, 67, 96
2, 45883, Control_c, 0, 67, 97
2, 45900, Note_on_c, 0, 75, 77
2, 45928, Control_c, 0, 67, 97
2, 45995, Note_on_c, 0, 75, 0
2, 46086, Note_on_c, 0, 76, 79
2, 46186, Control_c, 0, 67, 97
2, 46438, Control_c, 0, 67, 97
2, 46463, Note_on_c, 0, 79, 82
2, 46479, Note_on_c, 0, 75, 60
2, 46495, Note_on_c, 0, 63, 52
2, 46498, Control_c, 0, 67, 97
2, 46499, Note_on_c, 0, 51, 0
2, 46507, Note_on_c, 0, 76, 0
2, 46528, Control_c, 0, 67, 96
2, 46528, Note_on_c, 0, 82, 0
2, 46559, Control_c, 0, 67, 96
2, 46588, Control_c, 0, 67, 95
2, 46636, Control_c, 0, 67, 95
2, 46712, Control_c, 0, 67, 94
2, 46828, Note_on_c, 0, 80, 85
2, 46848, Control_c, 0, 67, 94
2, 46849, Note_on_c, 0, 64, 54
2, 46853, Note_on_c, 0, 73, 62
2, 46867, Note_on_c, 0, 75, 0
2, 46887, Note_on_c, 0, 63, 0
2, 46908, Control_c, 0, 67, 94
2, 46915, Note_on_c, 0, 79, 0
2, 47008, Control_c, 0, 67, 95
2, 47189, Control_c, 0, 67, 94
2, 47223, Note_on_c, 0, 63, 51
2, 47223, Note_on_c, 0, 64, 0
2, 47225, Note_on_c, 0, 71, 65
2, 47236, Note_on_c, 0, 73, 0
2, 47435, Note_on_c, 0, 63, 0
2, 47541, Control_c, 0, 67, 94
2, 47575, Note_on_c, 0, 82, 71
2, 47585, Note_on_c, 0, 73, 53
2, 47587, Note_on_c, 0, 61, 43
2, 47654, Note_on_c, 0, 71, 0
2, 47737, Note_on_c, 0, 80, 0
2, 47767, Note_on_c, 0, 61, 0
2, 47807, Control_c, 0, 67, 94
2, 47949, Note_on_c, 0, 80, 67
2, 47964, Note_on_c, 0, 63, 40
2, 47982, Note_on_c, 0, 71, 43
2, 48044, Note_on_c, 0, 73, 0
2, 48049, Note_on_c, 0, 82, 0
2, 48461, Control_c, 0, 64, 53
2, 48461, Control_c, 0, 67, 94
2, 48477, Control_c, 0, 64, 62
2, 48492, Control_c, 0, 64, 64
2, 48506, Control_c, 0, 64, 66
2, 48529, Control_c, 0, 64, 68
2, 48544, Control_c, 0, 64, 71
2, 48560, Control_c, 0, 64, 75
2, 48575, Control_c, 0, 64, 78
2, 48589, Control_c, 0, 64, 81
2, 48605, Control_c, 0, 64, 84
2, 48620, Control_c, 0, 64, 87
2, 48636, Control_c, 0, 64, 89
2, 48651, Control_c, 0, 64, 92
2, 48666, Control_c, 0, 64, 94
2, 48682, Control_c, 0, 64, 96
2, 48682, Note_on_c, 0, 80, 0
2, 48697, Control_c, 0, 64, 97
2, 48703, Note_on_c, 0, 71, 0
2, 48712, Control_c, 0, 64, 98
2, 48818, Control_c, 0, 67, 94
2, 48998, Note_on_c, 0, 80, 48
2, 49015, Control_c, 0, 64, 98
2, 49024, Note_on_c, 0, 70, 37
2, 49030, Control_c, 0, 64, 97
2, 49033, Note_on_c, 0, 51, 32
2, 49045, Control_c, 0, 64, 96
2, 49061, Control_c, 0, 64, 96
2, 49077, Control_c, 0, 64, 94
2, 49092, Control_c, 0, 64, 92
2, 49107, Control_c, 0, 64, 90
2, 49123, Control_c, 0, 64, 87
2, 49137, Control_c, 0, 64, 84
2, 49148, Note_on_c, 0, 80, 0
2, 49153, Control_c, 0, 64, 81
2, 49167, Note_on_c, 0, 79, 53
2, 49168, Control_c, 0, 64, 77
2, 49183, Control_c, 0, 64, 73
2, 49183, Control_c, 0, 67, 95
2, 49199, Control_c, 0, 64, 68
2, 49213, Control_c, 0, 64, 65
2, 49228, Control_c, 0, 64, 60
2, 49238, Note_on_c, 0, 63, 0
2, 49238, Note_on_c, 0, 79, 0
2, 49244, Control_c, 0, 64, 51
2, 49244, Control_c, 0, 67, 95
2, 49247, Note_on_c, 0, 80, 62
2, 49259, Control_c, 0, 64, 28
2, 49259, Control_c, 0, 67, 96
2, 49275, Control_c, 0, 64, 0
2, 49297, Control_c, 0, 67, 96
2, 49313, Control_c, 0, 67, 97
2, 49330, Note_on_c, 0, 80, 0
2, 49343, Control_c, 0, 67, 97
2, 49343, Note_on_c, 0, 79, 50
2, 49358, Control_c, 0, 67, 98
2, 49373, Control_c, 0, 67, 99
2, 49380, Note_on_c, 0, 79, 0
2, 49388, Control_c, 0, 67, 99
2, 49390, Note_on_c, 0, 80, 50
2, 49404, Control_c, 0, 67, 100
2, 49419, Control_c, 0, 67, 105
2, 49434, Control_c, 0, 67, 110
2, 49449, Control_c, 0, 67, 113
2, 49464, Control_c, 0, 67, 114
2, 49464, Note_on_c, 0, 80, 0
2, 49474, Note_on_c, 0, 79, 53
2, 49480, Control_c, 0, 67, 114
2, 49495, Control_c, 0, 67, 115
2, 49510, Control_c, 0, 67, 115
2, 49525, Control_c, 0, 67, 116
2, 49540, Control_c, 0, 67, 116
2, 49556, Control_c, 0, 67, 117
2, 49642, Note_on_c, 0, 70, 0
2, 49723, Control_c, 0, 67, 117
2, 49753, Control_c, 0, 67, 118
2, 49799, Control_c, 0, 67, 119
2, 49813, Control_c, 0, 67, 120
2, 49828, Control_c, 0, 67, 121
2, 49844, Control_c, 0, 67, 122
2, 49848, Note_on_c, 0, 68, 31
2, 49858, Note_on_c, 0, 80, 51
2, 49859, Control_c, 0, 67, 122
2, 49875, Control_c, 0, 67, 123
2, 49891, Control_c, 0, 67, 123
2, 49896, Note_on_c, 0, 79, 0
2, 49905, Control_c, 0, 67, 124
2, 49921, Control_c, 0, 67, 124
2, 49936, Control_c, 0, 67, 125
2, 49952, Control_c, 0, 67, 126
2, 49967, Control_c, 0, 67, 126
2, 49981, Control_c, 0, 67, 127
2, 49997, Control_c, 0, 67, 127
2, 50103, Note_on_c, 0, 80, 0
2, 50176, Note_on_c, 0, 68, 0
2, 50254, Note_on_c, 0, 80, 47
2, 50262, Note_on_c, 0, 68, 30
2, 50283, Note_on_c, 0, 44, 11
2, 50299, Note_on_c, 0, 80, 0
2, 50299, Note_on_c, 0, 80, 10
2, 50312, Note_on_c, 0, 51, 0
2, 50618, Note_on_c, 0, 47, 48
2, 50654, Note_on_c, 0, 44, 0
2, 50837, Note_on_c, 0, 47, 0
2, 50989, Note_on_c, 0, 51, 55
2, 51171, Note_on_c, 0, 51, 0
2, 51351, Note_on_c, 0, 56, 49
2, 51459, Note_on_c, 0, 80, 0
2, 52117, Note_on_c, 0, 75, 51
2, 52277, Note_on_c, 0, 75, 0
2, 52493, Note_on_c, 0, 75, 72
2, 52859, Note_on_c, 0, 76, 72
2, 52917, Note_on_c, 0, 75, 0
2, 53023, Note_on_c, 0, 76, 0
2, 53244, Note_on_c, 0, 73, 61
2, 53357, Note_on_c, 0, 73, 0
2, 53609, Note_on_c, 0, 71, 52
2, 53660, Note_on_c, 0, 68, 0
2, 53952, Note_on_c, 0, 70, 50
2, 53952, Note_on_c, 0, 71, 0
2, 54029, Note_on_c, 0, 56, 0
2, 54102, Note_on_c, 0, 49, 44
2, 54179, Note_on_c, 0, 49, 0
2, 54274, Note_on_c, 0, 51, 41
2, 54326, Note_on_c, 0, 51, 0
2, 54426, Note_on_c, 0, 52, 42
2, 54491, Note_on_c, 0, 52, 0
2, 54640, Note_on_c, 0, 54, 36
2, 55171, Note_on_c, 0, 73, 56
2, 55208, Note_on_c, 0, 70, 0
2, 55283, Note_on_c, 0, 54, 0
2, 55286, Note_on_c, 0, 73, 0
2, 55338, Note_on_c, 0, 71, 69
2, 55364, Note_on_c, 0, 42, 48
2, 55448, Note_on_c, 0, 71, 0
2, 55490, Note_on_c, 0, 70, 73
2, 55504, Note_on_c, 0, 42, 0
2, 55586, Note_on_c, 0, 70, 0
2, 55670, Note_on_c, 0, 75, 70
2, 55674, Note_on_c, 0, 54, 45
2, 55721, Note_on_c, 0, 54, 0
2, 55738, Note_on_c, 0, 52, 50
2, 55801, Note_on_c, 0, 54, 47
2, 55802, Note_on_c, 0, 52, 0
2, 56026, Note_on_c, 0, 78, 66
2, 56035, Note_on_c, 0, 75, 0
2, 56130, Note_on_c, 0, 78, 0
2, 56186, Note_on_c, 0, 76, 67
2, 56279, Note_on_c, 0, 76, 0
2, 56351, Note_on_c, 0, 78, 65
2, 56556, Note_on_c, 0, 78, 0
2, 56568, Note_on_c, 0, 73, 55
2, 56601, Note_on_c, 0, 73, 0
2, 56616, Note_on_c, 0, 72, 56
2, 56656, Note_on_c, 0, 72, 0
2, 56659, Note_on_c, 0, 73, 63
2, 56711, Note_on_c, 0, 72, 52
2, 56712, Note_on_c, 0, 73, 0
2, 57048, Note_on_c, 0, 70, 54
2, 57065, Note_on_c, 0, 72, 0
2, 57155, Note_on_c, 0, 70, 0
2, 57414, Note_on_c, 0, 68, 47
2, 57543, Note_on_c, 0, 68, 0
2, 57708, Note_on_c, 0, 54, 0
2, 57744, Note_on_c, 0, 73, 48
2, 57773, Note_on_c, 0, 52, 28
2, 57872, Note_on_c, 0, 52, 0
2, 57890, Note_on_c, 0, 54, 25
2, 57954, Note_on_c, 0, 54, 0
2, 57976, Note_on_c, 0, 52, 17
2, 58027, Note_on_c, 0, 52, 0
2, 58049, Note_on_c, 0, 54, 25
2, 58092, Note_on_c, 0, 54, 0
2, 58107, Note_on_c, 0, 52, 40
2, 58154, Note_on_c, 0, 52, 0
2, 58177, Note_on_c, 0, 54, 45
2, 58213, Note_on_c, 0, 54, 0
2, 58245, Note_on_c, 0, 52, 50
2, 58296, Note_on_c, 0, 80, 64
2, 58362, Note_on_c, 0, 52, 0
2, 58406, Note_on_c, 0, 51, 40
2, 58430, Note_on_c, 0, 80, 0
2, 58512, Note_on_c, 0, 51, 0
2, 58514, Note_on_c, 0, 52, 45
2, 58625, Note_on_c, 0, 52, 0
2, 58634, Note_on_c, 0, 54, 50
2, 58651, Note_on_c, 0, 80, 71
2, 58731, Note_on_c, 0, 54, 0
2, 58748, Note_on_c, 0, 56, 42
2, 58796, Note_on_c, 0, 56, 0
2, 58818, Note_on_c, 0, 54, 45
2, 58870, Note_on_c, 0, 54, 0
2, 58892, Note_on_c, 0, 56, 54
2, 58939, Note_on_c, 0, 56, 0
2, 58962, Note_on_c, 0, 54, 55
2, 58964, Note_on_c, 0, 81, 71
2, 58986, Note_on_c, 0, 80, 0
2, 59010, Note_on_c, 0, 54, 0
2, 59025, Note_on_c, 0, 56, 61
2, 59051, Note_on_c, 0, 81, 0
2, 59072, Note_on_c, 0, 56, 0
2, 59084, Note_on_c, 0, 54, 63
2, 59148, Note_on_c, 0, 54, 0
2, 59166, Note_on_c, 0, 56, 57
2, 59207, Note_on_c, 0, 56, 0
2, 59214, Note_on_c, 0, 54, 57
2, 59277, Note_on_c, 0, 56, 56
2, 59286, Note_on_c, 0, 78, 74
2, 59313, Note_on_c, 0, 54, 0
2, 59313, Note_on_c, 0, 56, 0
2, 59327, Note_on_c, 0, 54, 31
2, 59375, Note_on_c, 0, 54, 0
2, 59378, Note_on_c, 0, 78, 0
2, 59394, Note_on_c, 0, 52, 58
2, 59486, Note_on_c, 0, 52, 0
2, 59491, Note_on_c, 0, 54, 57
2, 59561, Note_on_c, 0, 54, 0
2, 59595, Note_on_c, 0, 76, 73
2, 59610, Note_on_c, 0, 56, 50
2, 59934, Note_on_c, 0, 75, 70
2, 59959, Note_on_c, 0, 76, 0
2, 60312, Note_on_c, 0, 57, 56
2, 60374, Note_on_c, 0, 56, 0
2, 60484, Control_c, 0, 67, 122
2, 60500, Control_c, 0, 67, 113
2, 60515, Control_c, 0, 67, 105
2, 60531, Control_c, 0, 67, 97
2, 60546, Control_c, 0, 67, 90
2, 60561, Control_c, 0, 67, 80
2, 60568, Note_on_c, 0, 57, 0
2, 60576, Control_c, 0, 67, 71
2, 60591, Control_c, 0, 67, 64
2, 60607, Control_c, 0, 67, 58
2, 60622, Control_c, 0, 67, 55
2, 60637, Control_c, 0, 67, 55
2, 60687, Note_on_c, 0, 71, 62
2, 60689, Note_on_c, 0, 73, 0
2, 60713, Control_c, 0, 67, 56
2, 60714, Note_on_c, 0, 56, 42
2, 60729, Control_c, 0, 67, 58
2, 60744, Control_c, 0, 67, 60
2, 60759, Control_c, 0, 67, 61
2, 60775, Control_c, 0, 67, 62
2, 60790, Control_c, 0, 67, 63
2, 60828, Control_c, 0, 67, 64
2, 60859, Control_c, 0, 67, 64
2, 60889, Control_c, 0, 67, 65
2, 60904, Control_c, 0, 67, 65
2, 60918, Control_c, 0, 67, 66
2, 60934, Control_c, 0, 67, 66
2, 61190, Note_on_c, 0, 78, 71
2, 61191, Note_on_c, 0, 75, 0
2, 61272, Note_on_c, 0, 56, 0
2, 61318, Note_on_c, 0, 78, 0
2, 61361, Note_on_c, 0, 76, 76
2, 61377, Note_on_c, 0, 54, 39
2, 61422, Control_c, 0, 67, 67
2, 61466, Note_on_c, 0, 76, 0
2, 61511, Note_on_c, 0, 75, 77
2, 61528, Control_c, 0, 67, 67
2, 61543, Control_c, 0, 67, 68
2, 61557, Control_c, 0, 67, 68
2, 61581, Control_c, 0, 67, 69
2, 61596, Control_c, 0, 67, 69
2, 61600, Note_on_c, 0, 54, 0
2, 61625, Note_on_c, 0, 75, 0
2, 61641, Control_c, 0, 67, 70
2, 61703, Note_on_c, 0, 80, 78
2, 61719, Note_on_c, 0, 53, 42
2, 61733, Control_c, 0, 67, 70
2, 62061, Note_on_c, 0, 83, 76
2, 62075, Note_on_c, 0, 54, 41
2, 62106, Note_on_c, 0, 80, 0
2, 62154, Note_on_c, 0, 53, 0
2, 62158, Control_c, 0, 67, 71
2, 62229, Note_on_c, 0, 81, 83
2, 62251, Control_c, 0, 67, 71
2, 62265, Note_on_c, 0, 83, 0
2, 62267, Note_on_c, 0, 54, 0
2, 62280, Control_c, 0, 67, 72
2, 62296, Control_c, 0, 67, 73
2, 62311, Control_c, 0, 67, 74
2, 62340, Control_c, 0, 67, 74
2, 62361, Note_on_c, 0, 81, 0
2, 62418, Note_on_c, 0, 83, 73
2, 62442, Note_on_c, 0, 56, 36
2, 62596, Note_on_c, 0, 83, 0
2, 62631, Note_on_c, 0, 78, 67
2, 62686, Note_on_c, 0, 78, 0
2, 62697, Note_on_c, 0, 77, 63
2, 62713, Note_on_c, 0, 56, 0
2, 62720, Note_on_c, 0, 77, 0
2, 62736, Note_on_c, 0, 78, 62
2, 62796, Note_on_c, 0, 77, 74
2, 62801, Note_on_c, 0, 49, 36
2, 62808, Note_on_c, 0, 78, 0
2, 62940, Control_c, 0, 67, 74
2, 62987, Control_c, 0, 67, 73
2, 63078, Control_c, 0, 67, 73
2, 63145, Note_on_c, 0, 75, 62
2, 63162, Control_c, 0, 67, 72
2, 63169, Note_on_c, 0, 77, 0
2, 63268, Note_on_c, 0, 75, 0
2, 63420, Control_c, 0, 67, 72
2, 63496, Control_c, 0, 67, 71
2, 63514, Note_on_c, 0, 73, 57
2, 63624, Note_on_c, 0, 73, 0
2, 63677, Note_on_c, 0, 71, 0
2, 63800, Control_c, 0, 67, 71
2, 63861, Note_on_c, 0, 78, 59
2, 63866, Note_on_c, 0, 69, 48
2, 64221, Note_on_c, 0, 71, 56
2, 64224, Note_on_c, 0, 49, 0
2, 64268, Note_on_c, 0, 69, 0
2, 64386, Control_c, 0, 67, 71
2, 64477, Control_c, 0, 67, 72
2, 64508, Control_c, 0, 67, 72
2, 64542, Note_on_c, 0, 69, 67
2, 64551, Note_on_c, 0, 61, 47
2, 64569, Control_c, 0, 67, 73
2, 64675, Note_on_c, 0, 71, 0
2, 64724, Note_on_c, 0, 61, 0
2, 64744, Control_c, 0, 67, 73
2, 64787, Note_on_c, 0, 69, 0
2, 64896, Control_c, 0, 67, 74
2, 64911, Note_on_c, 0, 69, 71
2, 64935, Note_on_c, 0, 61, 48
2, 64942, Control_c, 0, 67, 74
2, 65124, Control_c, 0, 67, 75
2, 65215, Control_c, 0, 67, 75
2, 65230, Control_c, 0, 67, 76
2, 65246, Control_c, 0, 67, 76
2, 65261, Control_c, 0, 67, 79
2, 65263, Note_on_c, 0, 68, 77
2, 65270, Note_on_c, 0, 62, 52
2, 65275, Control_c, 0, 67, 82
2, 65291, Control_c, 0, 67, 83
2, 65306, Control_c, 0, 67, 84
2, 65308, Note_on_c, 0, 61, 0
2, 65337, Control_c, 0, 67, 85
2, 65361, Note_on_c, 0, 69, 0
2, 65367, Control_c, 0, 67, 85
2, 65382, Control_c, 0, 67, 87
2, 65397, Control_c, 0, 67, 89
2, 65413, Control_c, 0, 67, 91
2, 65435, Control_c, 0, 67, 94
2, 65452, Control_c, 0, 67, 96
2, 65467, Control_c, 0, 67, 97
2, 65469, Note_on_c, 0, 62, 0
2, 65482, Control_c, 0, 67, 98
2, 65497, Control_c, 0, 67, 99
2, 65512, Control_c, 0, 67, 101
2, 65528, Control_c, 0, 67, 102
2, 65543, Control_c, 0, 67, 103
2, 65558, Control_c, 0, 67, 105
2, 65573, Control_c, 0, 67, 106
2, 65588, Control_c, 0, 67, 107
2, 65603, Control_c, 0, 67, 107
2, 65619, Control_c, 0, 67, 108
2, 65622, Note_on_c, 0, 69, 78
2, 65633, Control_c, 0, 67, 110
2, 65642, Note_on_c, 0, 59, 45
2, 65648, Note_on_c, 0, 68, 0
2, 65649, Control_c, 0, 67, 111
2, 65664, Control_c, 0, 67, 113
2, 65679, Control_c, 0, 67, 116
2, 65695, Control_c, 0, 67, 119
2, 65709, Control_c, 0, 67, 121
2, 65724, Control_c, 0, 67, 124
2, 65740, Control_c, 0, 67, 126
2, 65755, Control_c, 0, 67, 127
2, 65795, Note_on_c, 0, 59, 0
2, 65970, Note_on_c, 0, 71, 68
2, 65987, Note_on_c, 0, 57, 31
2, 66015, Note_on_c, 0, 69, 0
2, 66126, Note_on_c, 0, 78, 0
2, 66311, Note_on_c, 0, 76, 78
2, 66324, Note_on_c, 0, 56, 39
2, 66376, Note_on_c, 0, 57, 0
2, 66443, Note_on_c, 0, 76, 0
2, 66678, Note_on_c, 0, 75, 73
2, 66850, Note_on_c, 0, 75, 0
2, 67072, Note_on_c, 0, 76, 68
2, 67507, Note_on_c, 0, 59, 43
2, 67537, Note_on_c, 0, 56, 0
2, 67593, Note_on_c, 0, 59, 0
2, 67664, Note_on_c, 0, 73, 67
2, 67666, Note_on_c, 0, 57, 52
2, 67738, Note_on_c, 0, 57, 0
2, 67738, Note_on_c, 0, 71, 0
2, 67821, Note_on_c, 0, 56, 51
2, 67883, Note_on_c, 0, 56, 0
2, 68010, Note_on_c, 0, 71, 74
2, 68027, Note_on_c, 0, 61, 49
2, 68079, Note_on_c, 0, 73, 0
2, 68196, Control_c, 0, 67, 122
2, 68212, Control_c, 0, 67, 115
2, 68227, Control_c, 0, 67, 110
2, 68241, Control_c, 0, 67, 103
2, 68257, Control_c, 0, 67, 93
2, 68272, Control_c, 0, 67, 83
2, 68287, Control_c, 0, 67, 74
2, 68302, Control_c, 0, 67, 67
2, 68317, Control_c, 0, 67, 62
2, 68333, Control_c, 0, 67, 60
2, 68338, Note_on_c, 0, 70, 75
2, 68348, Control_c, 0, 67, 58
2, 68356, Note_on_c, 0, 64, 52
2, 68363, Control_c, 0, 67, 54
2, 68379, Control_c, 0, 67, 49
2, 68394, Control_c, 0, 67, 45
2, 68407, Note_on_c, 0, 64, 0
2, 68409, Control_c, 0, 67, 44
2, 68414, Note_on_c, 0, 71, 0
2, 68426, Note_on_c, 0, 61, 0
2, 68492, Control_c, 0, 67, 44
2, 68509, Note_on_c, 0, 63, 61
2, 68564, Note_on_c, 0, 63, 0
2, 68675, Control_c, 0, 67, 45
2, 68684, Note_on_c, 0, 68, 65
2, 68691, Note_on_c, 0, 64, 50
2, 68705, Control_c, 0, 67, 46
2, 68721, Control_c, 0, 67, 46
2, 68721, Note_on_c, 0, 70, 0
2, 68736, Control_c, 0, 67, 47
2, 68751, Control_c, 0, 67, 48
2, 68767, Control_c, 0, 67, 50
2, 68782, Control_c, 0, 67, 52
2, 68797, Control_c, 0, 67, 54
2, 68813, Control_c, 0, 67, 57
2, 68828, Control_c, 0, 67, 62
2, 68843, Control_c, 0, 67, 67
2, 68859, Control_c, 0, 67, 72
2, 68874, Control_c, 0, 67, 77
2, 68889, Control_c, 0, 67, 79
2, 68904, Control_c, 0, 67, 82
2, 68919, Control_c, 0, 67, 85
2, 68934, Control_c, 0, 67, 89
2, 68949, Control_c, 0, 67, 93
2, 68963, Note_on_c, 0, 68, 0
2, 68964, Control_c, 0, 67, 97
2, 68970, Note_on_c, 0, 64, 0
2, 68976, Note_on_c, 0, 58, 46
2, 68978, Note_on_c, 0, 73, 56
2, 68980, Control_c, 0, 67, 100
2, 68995, Control_c, 0, 67, 102
2, 69010, Control_c, 0, 67, 103
2, 69021, Note_on_c, 0, 58, 0
2, 69025, Control_c, 0, 67, 104
2, 69027, Note_on_c, 0, 73, 0
2, 69065, Note_on_c, 0, 59, 36
2, 69074, Note_on_c, 0, 71, 49
2, 69128, Note_on_c, 0, 58, 52
2, 69143, Note_on_c, 0, 59, 0
2, 69152, Note_on_c, 0, 73, 63
2, 69164, Note_on_c, 0, 71, 0
2, 69306, Control_c, 0, 67, 103
2, 69397, Control_c, 0, 67, 103
2, 69418, Note_on_c, 0, 56, 38
2, 69427, Control_c, 0, 67, 102
2, 69441, Note_on_c, 0, 58, 0
2, 69625, Note_on_c, 0, 56, 0
2, 69626, Control_c, 0, 67, 102
2, 69773, Note_on_c, 0, 70, 46
2, 69778, Control_c, 0, 67, 102
2, 69795, Note_on_c, 0, 54, 38
2, 69839, Control_c, 0, 67, 103
2, 69854, Control_c, 0, 67, 103
2, 69878, Note_on_c, 0, 73, 0
2, 69930, Control_c, 0, 67, 104
2, 69975, Control_c, 0, 67, 104
2, 70021, Control_c, 0, 67, 105
2, 70044, Control_c, 0, 67, 105
2, 70082, Note_on_c, 0, 54, 0
2, 70158, Note_on_c, 0, 66, 45
2, 70165, Control_c, 0, 67, 106
2, 70180, Control_c, 0, 67, 107
2, 70184, Note_on_c, 0, 59, 23
2, 70195, Control_c, 0, 67, 109
2, 70256, Control_c, 0, 67, 109
2, 70287, Control_c, 0, 67, 110
2, 70294, Note_on_c, 0, 76, 0
2, 70332, Control_c, 0, 67, 110
2, 70347, Control_c, 0, 67, 111
2, 70363, Control_c, 0, 67, 113
2, 70379, Control_c, 0, 67, 118
2, 70394, Control_c, 0, 67, 126
2, 70397, Note_on_c, 0, 70, 0
2, 70409, Control_c, 0, 67, 127
2, 70511, Note_on_c, 0, 75, 51
2, 70635, Note_on_c, 0, 59, 0
2, 70892, Note_on_c, 0, 73, 63
2, 70914, Note_on_c, 0, 47, 48
2, 70946, Note_on_c, 0, 75, 0
2, 70948, Control_c, 0, 67, 127
2, 70962, Control_c, 0, 67, 122
2, 70978, Control_c, 0, 67, 117
2, 70993, Control_c, 0, 67, 109
2, 71009, Control_c, 0, 67, 101
2, 71024, Control_c, 0, 67, 94
2, 71038, Control_c, 0, 67, 88
2, 71054, Control_c, 0, 67, 84
2, 71069, Control_c, 0, 67, 81
2, 71078, Note_on_c, 0, 47, 0
2, 71084, Control_c, 0, 67, 77
2, 71100, Control_c, 0, 67, 73
2, 71115, Control_c, 0, 67, 67
2, 71130, Control_c, 0, 67, 60
2, 71145, Control_c, 0, 67, 54
2, 71160, Control_c, 0, 67, 48
2, 71176, Control_c, 0, 67, 42
2, 71191, Control_c, 0, 67, 37
2, 71207, Control_c, 0, 67, 31
2, 71222, Control_c, 0, 67, 26
2, 71237, Control_c, 0, 67, 21
2, 71243, Note_on_c, 0, 59, 53
2, 71251, Note_on_c, 0, 75, 47
2, 71253, Control_c, 0, 67, 15
2, 71268, Control_c, 0, 67, 0
2, 71298, Note_on_c, 0, 59, 0
2, 71316, Note_on_c, 0, 58, 54
2, 71332, Note_on_c, 0, 73, 0
2, 71393, Note_on_c, 0, 58, 0
2, 71401, Note_on_c, 0, 59, 51
2, 71589, Note_on_c, 0, 73, 61
2, 71625, Note_on_c, 0, 75, 0
2, 71685, Control_c, 0, 67, 8
2, 71701, Control_c, 0, 67, 10
2, 71716, Control_c, 0, 67, 11
2, 71731, Control_c, 0, 67, 11
2, 71746, Control_c, 0, 67, 12
2, 71761, Control_c, 0, 67, 13
2, 71777, Control_c, 0, 67, 14
2, 71792, Control_c, 0, 67, 16
2, 71807, Control_c, 0, 67, 18
2, 71822, Control_c, 0, 67, 18
2, 71853, Control_c, 0, 67, 19
2, 71868, Control_c, 0, 67, 19
2, 71882, Control_c, 0, 67, 20
2, 71898, Control_c, 0, 67, 21
2, 71925, Note_on_c, 0, 68, 58
2, 71931, Note_on_c, 0, 71, 60
2, 71943, Control_c, 0, 67, 21
2, 71958, Control_c, 0, 67, 22
2, 71971, Note_on_c, 0, 73, 0
2, 71974, Control_c, 0, 67, 23
2, 71989, Control_c, 0, 67, 27
2, 72005, Control_c, 0, 67, 30
2, 72020, Control_c, 0, 67, 33
2, 72035, Control_c, 0, 67, 34
2, 72066, Control_c, 0, 67, 34
2, 72081, Control_c, 0, 67, 35
2, 72081, Note_on_c, 0, 66, 0
2, 72096, Control_c, 0, 67, 35
2, 72111, Control_c, 0, 67, 37
2, 72127, Control_c, 0, 67, 38
2, 72142, Control_c, 0, 67, 40
2, 72157, Control_c, 0, 67, 41
2, 72173, Control_c, 0, 67, 42
2, 72188, Control_c, 0, 67, 44
2, 72203, Control_c, 0, 67, 45
2, 72219, Control_c, 0, 67, 46
2, 72233, Control_c, 0, 67, 46
2, 72249, Control_c, 0, 67, 47
2, 72264, Control_c, 0, 67, 48
2, 72274, Note_on_c, 0, 64, 64
2, 72279, Control_c, 0, 67, 49
2, 72283, Note_on_c, 0, 73, 64
2, 72295, Control_c, 0, 67, 50
2, 72309, Control_c, 0, 67, 51
2, 72332, Control_c, 0, 67, 53
2, 72347, Control_c, 0, 67, 54
2, 72362, Control_c, 0, 67, 55
2, 72373, Note_on_c, 0, 71, 0
2, 72377, Note_on_c, 0, 68, 0
2, 72378, Control_c, 0, 67, 56
2, 72393, Control_c, 0, 67, 57
2, 72408, Control_c, 0, 67, 59
2, 72423, Control_c, 0, 67, 59
2, 72438, Control_c, 0, 67, 60
2, 72454, Control_c, 0, 67, 60
2, 72469, Control_c, 0, 67, 61
2, 72483, Control_c, 0, 67, 61
2, 72499, Control_c, 0, 67, 62
2, 72514, Control_c, 0, 67, 63
2, 72530, Control_c, 0, 67, 63
2, 72545, Control_c, 0, 67, 64
2, 72575, Control_c, 0, 67, 64
2, 72590, Control_c, 0, 67, 65
2, 72605, Control_c, 0, 67, 65
2, 72611, Note_on_c, 0, 63, 68
2, 72613, Note_on_c, 0, 61, 64
2, 72621, Control_c, 0, 67, 66
2, 72636, Control_c, 0, 67, 67
2, 72654, Note_on_c, 0, 59, 0
2, 72666, Control_c, 0, 67, 68
2, 72674, Note_on_c, 0, 64, 0
2, 72696, Control_c, 0, 67, 68
2, 72718, Note_on_c, 0, 61, 0
2, 72742, Control_c, 0, 67, 69
2, 72774, Note_on_c, 0, 59, 68
2, 72819, Control_c, 0, 67, 69
2, 72848, Note_on_c, 0, 59, 0
2, 72879, Control_c, 0, 67, 70
2, 72910, Control_c, 0, 67, 70
2, 72925, Control_c, 0, 67, 71
2, 72941, Control_c, 0, 67, 73
2, 72950, Note_on_c, 0, 61, 72
2, 72954, Note_on_c, 0, 57, 63
2, 72955, Control_c, 0, 67, 75
2, 72971, Control_c, 0, 67, 75
2, 72986, Control_c, 0, 67, 76
2, 72996, Note_on_c, 0, 63, 0
2, 73001, Control_c, 0, 67, 76
2, 73017, Control_c, 0, 67, 77
2, 73032, Control_c, 0, 67, 77
2, 73036, Note_on_c, 0, 57, 0
2, 73076, Control_c, 0, 67, 78
2, 73099, Note_on_c, 0, 56, 62
2, 73160, Control_c, 0, 67, 78
2, 73169, Note_on_c, 0, 56, 0
2, 73221, Control_c, 0, 67, 79
2, 73292, Note_on_c, 0, 66, 68
2, 73297, Control_c, 0, 67, 79
2, 73304, Note_on_c, 0, 57, 55
2, 73312, Control_c, 0, 67, 80
2, 73327, Control_c, 0, 67, 81
2, 73342, Control_c, 0, 67, 82
2, 73357, Control_c, 0, 67, 83
2, 73373, Control_c, 0, 67, 84
2, 73384, Note_on_c, 0, 61, 0
2, 73388, Control_c, 0, 67, 84
2, 73402, Control_c, 0, 67, 85
2, 73433, Control_c, 0, 67, 85
2, 73464, Control_c, 0, 67, 86
2, 73662, Note_on_c, 0, 68, 78
2, 73693, Note_on_c, 0, 73, 0
2, 73744, Note_on_c, 0, 66, 0
2, 73747, Note_on_c, 0, 57, 0
2, 74015, Note_on_c, 0, 69, 70
2, 74016, Note_on_c, 0, 45, 60
2, 74020, Note_on_c, 0, 78, 70
2, 74023, Note_on_c, 0, 68, 0
2, 74050, Control_c, 0, 67, 85
2, 74155, Note_on_c, 0, 45, 0
2, 74199, Note_on_c, 0, 78, 0
2, 74202, Control_c, 0, 67, 85
2, 74324, Control_c, 0, 67, 85
2, 74354, Control_c, 0, 67, 86
2, 74364, Note_on_c, 0, 76, 59
2, 74368, Note_on_c, 0, 68, 56
2, 74374, Note_on_c, 0, 57, 54
2, 74396, Note_on_c, 0, 69, 0
2, 74420, Note_on_c, 0, 57, 0
2, 74438, Note_on_c, 0, 56, 57
2, 74507, Note_on_c, 0, 56, 0
2, 74517, Note_on_c, 0, 57, 63
2, 74742, Note_on_c, 0, 66, 51
2, 74743, Note_on_c, 0, 75, 56
2, 74791, Note_on_c, 0, 76, 0
2, 74801, Note_on_c, 0, 68, 0
2, 75013, Note_on_c, 0, 66, 0
2, 75016, Control_c, 0, 67, 86
2, 75031, Control_c, 0, 67, 87
2, 75062, Control_c, 0, 67, 87
2, 75093, Control_c, 0, 67, 88
2, 75094, Note_on_c, 0, 64, 58
2, 75105, Note_on_c, 0, 73, 44
2, 75107, Control_c, 0, 67, 90
2, 75122, Control_c, 0, 67, 91
2, 75156, Note_on_c, 0, 75, 0
2, 75183, Control_c, 0, 67, 91
2, 75184, Note_on_c, 0, 73, 0
2, 75243, Control_c, 0, 67, 91
2, 75259, Control_c, 0, 67, 90
2, 75441, Note_on_c, 0, 71, 57
2, 75451, Note_on_c, 0, 63, 53
2, 75476, Note_on_c, 0, 64, 0
2, 75556, Control_c, 0, 67, 90
2, 75677, Control_c, 0, 67, 89
2, 75790, Note_on_c, 0, 61, 49
2, 75793, Note_on_c, 0, 59, 47
2, 75801, Note_on_c, 0, 57, 0
2, 75814, Control_c, 0, 67, 89
2, 75839, Note_on_c, 0, 63, 0
2, 75855, Note_on_c, 0, 59, 0
2, 75939, Note_on_c, 0, 57, 55
2, 76010, Note_on_c, 0, 57, 0
2, 76042, Control_c, 0, 67, 88
2, 76128, Note_on_c, 0, 56, 44
2, 76129, Note_on_c, 0, 59, 39
2, 76132, Note_on_c, 0, 61, 0
2, 76187, Note_on_c, 0, 56, 0
2, 76287, Note_on_c, 0, 54, 35
2, 76376, Note_on_c, 0, 54, 0
2, 76465, Note_on_c, 0, 59, 0
2, 76485, Note_on_c, 0, 64, 35
2, 76495, Note_on_c, 0, 56, 33
2, 76642, Control_c, 0, 67, 88
2, 76836, Note_on_c, 0, 69, 45
2, 76863, Note_on_c, 0, 71, 0
2, 77055, Note_on_c, 0, 56, 0
2, 77061, Control_c, 0, 67, 88
2, 77197, Note_on_c, 0, 68, 49
2, 77209, Note_on_c, 0, 61, 42
2, 77221, Note_on_c, 0, 69, 0
2, 77461, Note_on_c, 0, 61, 0
2, 77578, Note_on_c, 0, 73, 54
2, 77584, Note_on_c, 0, 59, 42
2, 77636, Note_on_c, 0, 68, 0
2, 77936, Note_on_c, 0, 57, 47
2, 77941, Note_on_c, 0, 75, 66
2, 77971, Note_on_c, 0, 59, 0
2, 77987, Note_on_c, 0, 73, 0
2, 78144, Note_on_c, 0, 57, 0
2, 78296, Note_on_c, 0, 76, 69
2, 78303, Note_on_c, 0, 56, 49
2, 78345, Note_on_c, 0, 75, 0
2, 78361, Control_c, 0, 67, 89
2, 78422, Control_c, 0, 67, 89
2, 78437, Control_c, 0, 67, 90
2, 78453, Control_c, 0, 67, 90
2, 78491, Control_c, 0, 67, 91
2, 78521, Control_c, 0, 67, 91
2, 78536, Control_c, 0, 67, 92
2, 78539, Note_on_c, 0, 56, 0
2, 78568, Control_c, 0, 67, 93
2, 78583, Control_c, 0, 67, 96
2, 78598, Control_c, 0, 67, 101
2, 78614, Control_c, 0, 67, 104
2, 78628, Control_c, 0, 67, 106
2, 78643, Control_c, 0, 67, 108
2, 78652, Note_on_c, 0, 69, 65
2, 78659, Control_c, 0, 67, 110
2, 78674, Control_c, 0, 67, 111
2, 78675, Note_on_c, 0, 54, 49
2, 78685, Note_on_c, 0, 76, 0
2, 78689, Control_c, 0, 67, 113
2, 78704, Control_c, 0, 67, 113
2, 78750, Control_c, 0, 67, 113
2, 78764, Control_c, 0, 67, 112
2, 78795, Control_c, 0, 67, 112
2, 78811, Control_c, 0, 67, 111
2, 79023, Note_on_c, 0, 56, 56
2, 79031, Note_on_c, 0, 71, 75
2, 79057, Note_on_c, 0, 69, 0
2, 79139, Note_on_c, 0, 54, 0
2, 79267, Note_on_c, 0, 56, 0
2, 79392, Note_on_c, 0, 57, 50
2, 79392, Note_on_c, 0, 73, 70
2, 79437, Note_on_c, 0, 71, 0
2, 79609, Control_c, 0, 67, 112
2, 79667, Note_on_c, 0, 57, 0
2, 79727, Note_on_c, 0, 59, 44
2, 79728, Note_on_c, 0, 69, 58
2, 79745, Note_on_c, 0, 73, 0
2, 79761, Control_c, 0, 67, 112
2, 79790, Note_on_c, 0, 59, 0
2, 79794, Note_on_c, 0, 57, 49
2, 79871, Note_on_c, 0, 57, 0
2, 79877, Note_on_c, 0, 59, 22
2, 80076, Note_on_c, 0, 69, 0
2, 80088, Control_c, 0, 67, 112
2, 80109, Note_on_c, 0, 68, 47
2, 80179, Control_c, 0, 67, 111
2, 80223, Note_on_c, 0, 64, 0
2, 80241, Note_on_c, 0, 68, 0
2, 80254, Note_on_c, 0, 66, 51
2, 80431, Note_on_c, 0, 64, 50
2, 80441, Note_on_c, 0, 66, 0
2, 80591, Note_on_c, 0, 64, 0
2, 80597, Note_on_c, 0, 66, 45
2, 80654, Note_on_c, 0, 59, 0
2, 80810, Note_on_c, 0, 66, 0
2, 80839, Note_on_c, 0, 68, 41
2, 80866, Note_on_c, 0, 63, 27
2, 80868, Note_on_c, 0, 47, 25
2, 80941, Note_on_c, 0, 68, 0
2, 80957, Note_on_c, 0, 66, 45
2, 81025, Note_on_c, 0, 66, 0
2, 81052, Note_on_c, 0, 68, 43
2, 81102, Note_on_c, 0, 68, 0
2, 81135, Note_on_c, 0, 66, 45
2, 81173, Note_on_c, 0, 66, 0
2, 81193, Note_on_c, 0, 68, 45
2, 81237, Note_on_c, 0, 68, 0
2, 81264, Note_on_c, 0, 66, 50
2, 81304, Note_on_c, 0, 66, 0
2, 81329, Note_on_c, 0, 68, 48
2, 81368, Note_on_c, 0, 68, 0
2, 81396, Note_on_c, 0, 66, 46
2, 81436, Note_on_c, 0, 66, 0
2, 81461, Note_on_c, 0, 68, 45
2, 81465, Note_on_c, 0, 63, 0
2, 81502, Note_on_c, 0, 68, 0
2, 81523, Note_on_c, 0, 66, 45
2, 81561, Note_on_c, 0, 47, 0
2, 81620, Note_on_c, 0, 66, 0
2, 81654, Control_c, 0, 67, 111
2, 81672, Note_on_c, 0, 64, 23
2, 81709, Note_on_c, 0, 64, 0
2, 81719, Note_on_c, 0, 66, 31
2, 81730, Control_c, 0, 67, 110
2, 81816, Note_on_c, 0, 66, 0
2, 81818, Note_on_c, 0, 64, 46
2, 81856, Note_on_c, 0, 52, 25
2, 82156, Control_c, 0, 67, 111
2, 82188, Note_on_c, 0, 68, 53
2, 82293, Control_c, 0, 67, 110
2, 82300, Note_on_c, 0, 68, 0
2, 82331, Control_c, 0, 67, 110
2, 82346, Control_c, 0, 67, 109
2, 82361, Control_c, 0, 67, 109
2, 82541, Note_on_c, 0, 71, 69
2, 82666, Control_c, 0, 67, 109
2, 82688, Note_on_c, 0, 71, 0
2, 82727, Control_c, 0, 67, 110
2, 82833, Control_c, 0, 67, 110
2, 82883, Note_on_c, 0, 76, 62
2, 82895, Control_c, 0, 67, 111
2, 83000, Control_c, 0, 67, 111
2, 83037, Note_on_c, 0, 75, 73
2, 83064, Note_on_c, 0, 76, 0
2, 83146, Note_on_c, 0, 75, 0
2, 83189, Note_on_c, 0, 64, 0
2, 83222, Note_on_c, 0, 76, 69
2, 83237, Note_on_c, 0, 52, 0
2, 83251, Note_on_c, 0, 56, 38
2, 83362, Note_on_c, 0, 56, 0
2, 83393, Note_on_c, 0, 54, 50
2, 83452, Note_on_c, 0, 54, 0
2, 83463, Note_on_c, 0, 76, 0
2, 83541, Note_on_c, 0, 76, 77
2, 83555, Note_on_c, 0, 52, 46
2, 83619, Note_on_c, 0, 52, 0
2, 83688, Note_on_c, 0, 51, 46
2, 83748, Note_on_c, 0, 76, 0
2, 83773, Note_on_c, 0, 51, 0
2, 83861, Note_on_c, 0, 76, 67
2, 83874, Note_on_c, 0, 49, 39
2, 83909, Note_on_c, 0, 76, 0
2, 83922, Note_on_c, 0, 75, 66
2, 83989, Note_on_c, 0, 75, 0
2, 83989, Note_on_c, 0, 76, 63
2, 84064, Control_c, 0, 67, 111
2, 84078, Control_c, 0, 67, 110
2, 84176, Note_on_c, 0, 49, 0
2, 84216, Control_c, 0, 67, 110
2, 84225, Note_on_c, 0, 59, 32
2, 84247, Control_c, 0, 67, 109
2, 84261, Control_c, 0, 67, 109
2, 84322, Control_c, 0, 67, 108
2, 84407, Note_on_c, 0, 59, 0
2, 84429, Control_c, 0, 67, 108
2, 84441, Note_on_c, 0, 76, 0
2, 84555, Note_on_c, 0, 76, 61
2, 84579, Note_on_c, 0, 58, 38
2, 84772, Note_on_c, 0, 58, 0
2, 84781, Note_on_c, 0, 76, 0
2, 84913, Note_on_c, 0, 59, 48
2, 84913, Note_on_c, 0, 76, 55
2, 84953, Control_c, 0, 67, 107
2, 85197, Control_c, 0, 67, 107
2, 85234, Note_on_c, 0, 76, 0
2, 85245, Note_on_c, 0, 63, 67
2, 85245, Note_on_c, 0, 78, 46
2, 85273, Control_c, 0, 67, 107
2, 85289, Control_c, 0, 67, 108
2, 85420, Note_on_c, 0, 63, 0
2, 85430, Note_on_c, 0, 76, 49
2, 85451, Note_on_c, 0, 78, 0
2, 85494, Control_c, 0, 67, 108
2, 85579, Note_on_c, 0, 76, 0
2, 85607, Note_on_c, 0, 66, 73
2, 85619, Note_on_c, 0, 75, 46
2, 85645, Control_c, 0, 67, 109
2, 85752, Control_c, 0, 67, 109
2, 85753, Note_on_c, 0, 75, 0
2, 85777, Note_on_c, 0, 73, 55
2, 85798, Note_on_c, 0, 66, 0
2, 85813, Control_c, 0, 67, 110
2, 85857, Note_on_c, 0, 73, 0
2, 85935, Control_c, 0, 67, 110
2, 85941, Note_on_c, 0, 71, 60
2, 85945, Note_on_c, 0, 75, 59
2, 86098, Note_on_c, 0, 70, 69
2, 86127, Note_on_c, 0, 71, 0
2, 86171, Control_c, 0, 67, 111
2, 86202, Note_on_c, 0, 70, 0
2, 86276, Control_c, 0, 67, 111
2, 86277, Note_on_c, 0, 71, 75
2, 86290, Note_on_c, 0, 59, 0
2, 86352, Control_c, 0, 67, 112
2, 86414, Control_c, 0, 67, 112
2, 86423, Note_on_c, 0, 57, 63
2, 86493, Note_on_c, 0, 57, 0
2, 86517, Note_on_c, 0, 71, 0
2, 86586, Note_on_c, 0, 71, 75
2, 86586, Note_on_c, 0, 77, 71
2, 86588, Note_on_c, 0, 56, 53
2, 86591, Note_on_c, 0, 75, 0
2, 86595, Control_c, 0, 67, 113
2, 86647, Note_on_c, 0, 56, 0
2, 86746, Note_on_c, 0, 54, 58
2, 86779, Control_c, 0, 67, 113
2, 86814, Note_on_c, 0, 54, 0
2, 86835, Note_on_c, 0, 71, 0
2, 86938, Note_on_c, 0, 71, 68
2, 86939, Note_on_c, 0, 78, 62
2, 86952, Note_on_c, 0, 56, 43
2, 87016, Note_on_c, 0, 77, 0
2, 87044, Control_c, 0, 67, 113
2, 87273, Control_c, 0, 67, 112
2, 87279, Note_on_c, 0, 77, 57
2, 87334, Control_c, 0, 67, 112
2, 87357, Note_on_c, 0, 78, 0
2, 87425, Note_on_c, 0, 56, 0
2, 87437, Note_on_c, 0, 77, 0
2, 87533, Note_on_c, 0, 71, 0
2, 87633, Note_on_c, 0, 61, 46
2, 87639, Note_on_c, 0, 71, 60
2, 87645, Note_on_c, 0, 78, 49
2, 87692, Control_c, 0, 67, 111
2, 87804, Note_on_c, 0, 78, 0
2, 87820, Note_on_c, 0, 61, 0
2, 87862, Note_on_c, 0, 71, 0
2, 88013, Note_on_c, 0, 71, 50
2, 88024, Note_on_c, 0, 78, 47
2, 88025, Note_on_c, 0, 54, 50
2, 88377, Note_on_c, 0, 57, 64
2, 88381, Note_on_c, 0, 71, 0
2, 88387, Note_on_c, 0, 73, 48
2, 88450, Note_on_c, 0, 54, 0
2, 88548, Note_on_c, 0, 73, 0
2, 88552, Note_on_c, 0, 71, 53
2, 88558, Note_on_c, 0, 57, 0
2, 88675, Note_on_c, 0, 71, 0
2, 88712, Note_on_c, 0, 69, 57
2, 88716, Note_on_c, 0, 61, 74
2, 88869, Note_on_c, 0, 69, 0
2, 88874, Note_on_c, 0, 68, 56
2, 88889, Note_on_c, 0, 61, 0
2, 88960, Control_c, 0, 67, 111
2, 89028, Note_on_c, 0, 68, 0
2, 89067, Note_on_c, 0, 66, 74
2, 89067, Note_on_c, 0, 69, 53
2, 89175, Note_on_c, 0, 78, 0
2, 89232, Note_on_c, 0, 65, 70
2, 89235, Note_on_c, 0, 66, 0
2, 89303, Control_c, 0, 67, 110
2, 89321, Note_on_c, 0, 65, 0
2, 89416, Note_on_c, 0, 81, 63
2, 89417, Note_on_c, 0, 66, 61
2, 89593, Note_on_c, 0, 80, 63
2, 89657, Note_on_c, 0, 66, 0
2, 89682, Control_c, 0, 67, 111
2, 89755, Note_on_c, 0, 66, 78
2, 89759, Note_on_c, 0, 78, 64
2, 89760, Note_on_c, 0, 81, 0
2, 89776, Note_on_c, 0, 80, 0
2, 89910, Note_on_c, 0, 76, 58
2, 89929, Note_on_c, 0, 66, 0
2, 89974, Note_on_c, 0, 69, 0
2, 89975, Note_on_c, 0, 76, 0
2, 89982, Note_on_c, 0, 78, 0
2, 90073, Note_on_c, 0, 66, 57
2, 90087, Note_on_c, 0, 75, 60
2, 90095, Note_on_c, 0, 69, 48
2, 90120, Note_on_c, 0, 66, 0
2, 90129, Note_on_c, 0, 65, 62
2, 90197, Note_on_c, 0, 66, 68
2, 90199, Note_on_c, 0, 65, 0
2, 90408, Note_on_c, 0, 78, 61
2, 90460, Note_on_c, 0, 75, 0
2, 90481, Control_c, 0, 67, 110
2, 90579, Note_on_c, 0, 78, 0
2, 90585, Note_on_c, 0, 66, 0
2, 90585, Note_on_c, 0, 76, 54
2, 90603, Note_on_c, 0, 69, 0
2, 90716, Note_on_c, 0, 76, 0
2, 90740, Control_c, 0, 67, 110
2, 90752, Note_on_c, 0, 66, 48
2, 90775, Note_on_c, 0, 78, 53
2, 90780, Note_on_c, 0, 69, 48
2, 90911, Note_on_c, 0, 69, 0
2, 90982, Note_on_c, 0, 66, 0
2, 91111, Note_on_c, 0, 73, 47
2, 91119, Note_on_c, 0, 66, 51
2, 91134, Note_on_c, 0, 68, 45
2, 91149, Note_on_c, 0, 78, 0
2, 91288, Note_on_c, 0, 68, 0
2, 91372, Control_c, 0, 67, 110
2, 91423, Note_on_c, 0, 66, 0
2, 91457, Note_on_c, 0, 68, 67
2, 91459, Note_on_c, 0, 72, 56
2, 91478, Control_c, 0, 67, 111
2, 91485, Note_on_c, 0, 73, 0
2, 91536, Note_on_c, 0, 68, 0
2, 91578, Control_c, 0, 67, 111
2, 91610, Note_on_c, 0, 66, 73
2, 91701, Note_on_c, 0, 66, 0
2, 91743, Control_c, 0, 67, 111
2, 91774, Note_on_c, 0, 75, 77
2, 91777, Note_on_c, 0, 64, 59
2, 91805, Note_on_c, 0, 72, 0
2, 91835, Note_on_c, 0, 64, 0
2, 91895, Control_c, 0, 67, 111
2, 91915, Note_on_c, 0, 63, 64
2, 91925, Control_c, 0, 67, 112
2, 91940, Control_c, 0, 67, 112
2, 91981, Note_on_c, 0, 75, 0
2, 92000, Note_on_c, 0, 63, 0
2, 92116, Note_on_c, 0, 80, 80
2, 92122, Control_c, 0, 67, 113
2, 92138, Control_c, 0, 67, 113
2, 92141, Note_on_c, 0, 64, 19
2, 92254, Note_on_c, 0, 64, 0
2, 92275, Note_on_c, 0, 63, 39
2, 92415, Note_on_c, 0, 63, 0
2, 92419, Control_c, 0, 67, 114
2, 92433, Control_c, 0, 67, 115
2, 92448, Control_c, 0, 67, 116
2, 92460, Note_on_c, 0, 64, 42
2, 92464, Control_c, 0, 67, 121
2, 92480, Control_c, 0, 67, 126
2, 92496, Control_c, 0, 67, 127
2, 92556, Control_c, 0, 67, 127
2, 92571, Control_c, 0, 67, 126
2, 92601, Control_c, 0, 67, 126
2, 92615, Note_on_c, 0, 64, 0
2, 92788, Note_on_c, 0, 68, 75
2, 92816, Note_on_c, 0, 64, 44
2, 92905, Control_c, 0, 67, 126
2, 92924, Note_on_c, 0, 68, 0
2, 92925, Note_on_c, 0, 64, 0
2, 92966, Control_c, 0, 67, 127
2, 92996, Control_c, 0, 67, 127
2, 93125, Control_c, 0, 67, 127
2, 93141, Control_c, 0, 67, 126
2, 93162, Note_on_c, 0, 64, 50
2, 93162, Note_on_c, 0, 73, 61
2, 93209, Note_on_c, 0, 64, 0
2, 93242, Note_on_c, 0, 63, 44
2, 93288, Note_on_c, 0, 80, 0
2, 93289, Note_on_c, 0, 63, 0
2, 93317, Note_on_c, 0, 64, 51
2, 93324, Control_c, 0, 67, 127
2, 93340, Control_c, 0, 67, 127
2, 93491, Control_c, 0, 67, 127
2, 93506, Control_c, 0, 67, 126
2, 93521, Control_c, 0, 67, 126
2, 93537, Control_c, 0, 67, 125
2, 93582, Control_c, 0, 67, 125
2, 93674, Note_on_c, 0, 80, 75
2, 93685, Note_on_c, 0, 64, 0
2, 93764, Control_c, 0, 67, 124
2, 93847, Note_on_c, 0, 82, 77
2, 93858, Note_on_c, 0, 64, 44
2, 93862, Note_on_c, 0, 80, 0
2, 94011, Note_on_c, 0, 83, 73
2, 94016, Note_on_c, 0, 64, 0
2, 94017, Note_on_c, 0, 82, 0
2, 94206, Note_on_c, 0, 83, 0
2, 94209, Note_on_c, 0, 82, 62
2, 94221, Note_on_c, 0, 64, 31
2, 94297, Note_on_c, 0, 82, 0
2, 94310, Note_on_c, 0, 83, 70
2, 94382, Note_on_c, 0, 83, 0
2, 94385, Note_on_c, 0, 82, 67
2, 94443, Note_on_c, 0, 82, 0
2, 94457, Note_on_c, 0, 83, 65
2, 94528, Note_on_c, 0, 83, 0
2, 94530, Note_on_c, 0, 82, 66
2, 94581, Note_on_c, 0, 64, 0
2, 94581, Note_on_c, 0, 82, 0
2, 94594, Note_on_c, 0, 83, 66
2, 94596, Note_on_c, 0, 66, 32
2, 94671, Note_on_c, 0, 83, 0
2, 94672, Note_on_c, 0, 82, 69
2, 94727, Note_on_c, 0, 82, 0
2, 94740, Note_on_c, 0, 66, 0
2, 94741, Note_on_c, 0, 83, 67
2, 94752, Note_on_c, 0, 64, 38
2, 94807, Note_on_c, 0, 82, 69
2, 94808, Note_on_c, 0, 83, 0
2, 94871, Note_on_c, 0, 82, 0
2, 94877, Note_on_c, 0, 64, 0
2, 94880, Note_on_c, 0, 83, 71
2, 94905, Note_on_c, 0, 62, 39
2, 94939, Note_on_c, 0, 82, 69
2, 94947, Note_on_c, 0, 83, 0
2, 95010, Note_on_c, 0, 82, 0
2, 95029, Control_c, 0, 67, 125
2, 95046, Note_on_c, 0, 62, 0
2, 95058, Note_on_c, 0, 80, 61
2, 95085, Note_on_c, 0, 61, 31
2, 95119, Note_on_c, 0, 80, 0
2, 95125, Note_on_c, 0, 82, 70
2, 95182, Note_on_c, 0, 82, 0
2, 95210, Note_on_c, 0, 61, 0
2, 95244, Note_on_c, 0, 83, 59
2, 95257, Note_on_c, 0, 62, 33
2, 95403, Note_on_c, 0, 61, 42
2, 95415, Note_on_c, 0, 62, 0
2, 95416, Control_c, 0, 67, 124
2, 95476, Control_c, 0, 67, 124
2, 95497, Note_on_c, 0, 61, 0
2, 95594, Note_on_c, 0, 62, 43
2, 95751, Note_on_c, 0, 81, 66
2, 95755, Note_on_c, 0, 83, 0
2, 95790, Note_on_c, 0, 62, 0
2, 95797, Note_on_c, 0, 73, 0
2, 95916, Note_on_c, 0, 81, 0
2, 95929, Note_on_c, 0, 66, 65
2, 95929, Note_on_c, 0, 80, 61
2, 95941, Note_on_c, 0, 62, 49
2, 96008, Control_c, 0, 67, 124
2, 96076, Note_on_c, 0, 80, 0
2, 96100, Note_on_c, 0, 62, 0
2, 96111, Note_on_c, 0, 78, 46
2, 96164, Note_on_c, 0, 78, 0
2, 96316, Note_on_c, 0, 71, 72
2, 96321, Note_on_c, 0, 78, 59
2, 96323, Note_on_c, 0, 66, 0
2, 96343, Note_on_c, 0, 62, 40
2, 96681, Note_on_c, 0, 80, 54
2, 96714, Note_on_c, 0, 78, 0
2, 96877, Note_on_c, 0, 62, 0
2, 97022, Note_on_c, 0, 68, 74
2, 97030, Note_on_c, 0, 77, 66
2, 97051, Note_on_c, 0, 62, 47
2, 97057, Control_c, 0, 67, 125
2, 97060, Note_on_c, 0, 80, 0
2, 97118, Control_c, 0, 67, 125
2, 97155, Note_on_c, 0, 71, 0
2, 97255, Control_c, 0, 67, 126
2, 97314, Note_on_c, 0, 77, 0
2, 97369, Note_on_c, 0, 68, 0
2, 97401, Note_on_c, 0, 69, 78
2, 97407, Note_on_c, 0, 61, 49
2, 97412, Note_on_c, 0, 77, 63
2, 97440, Note_on_c, 0, 62, 0
2, 97604, Control_c, 0, 67, 125
2, 97760, Note_on_c, 0, 77, 0
2, 97760, Note_on_c, 0, 78, 70
2, 98005, Note_on_c, 0, 69, 0
2, 98110, Note_on_c, 0, 71, 72
2, 98110, Note_on_c, 0, 80, 71
2, 98125, Note_on_c, 0, 59, 41
2, 98157, Note_on_c, 0, 78, 0
2, 98190, Note_on_c, 0, 61, 0
2, 98206, Control_c, 0, 67, 125
2, 98252, Control_c, 0, 67, 124
2, 98363, Note_on_c, 0, 71, 0
2, 98389, Control_c, 0, 67, 125
2, 98404, Control_c, 0, 67, 126
2, 98418, Control_c, 0, 67, 126
2, 98433, Control_c, 0, 67, 127
2, 98497, Note_on_c, 0, 59, 0
2, 98501, Note_on_c, 0, 78, 71
2, 98512, Note_on_c, 0, 68, 66
2, 98524, Note_on_c, 0, 61, 40
2, 98532, Control_c, 0, 67, 127
2, 98558, Note_on_c, 0, 80, 0
2, 98699, Control_c, 0, 67, 127
2, 98714, Control_c, 0, 67, 126
2, 98729, Control_c, 0, 67, 126
2, 98760, Control_c, 0, 67, 125
2, 98791, Control_c, 0, 67, 125
2, 98806, Control_c, 0, 67, 124
2, 98865, Note_on_c, 0, 77, 62
2, 98881, Control_c, 0, 67, 124
2, 98882, Note_on_c, 0, 78, 0
2, 99080, Control_c, 0, 67, 123
2, 99177, Note_on_c, 0, 68, 0
2, 99262, Note_on_c, 0, 71, 43
2, 99438, Note_on_c, 0, 73, 52
2, 99472, Note_on_c, 0, 71, 0
2, 99523, Note_on_c, 0, 74, 60
2, 99524, Note_on_c, 0, 73, 0
2, 99567, Note_on_c, 0, 74, 0
2, 99620, Note_on_c, 0, 74, 46
2, 99659, Note_on_c, 0, 49, 36
2, 99882, Note_on_c, 0, 61, 0
2, 99983, Note_on_c, 0, 73, 46
2, 100007, Note_on_c, 0, 74, 0
2, 100083, Control_c, 0, 67, 124
2, 100221, Control_c, 0, 67, 124
2, 100314, Note_on_c, 0, 73, 0
2, 100321, Note_on_c, 0, 78, 58
2, 100345, Note_on_c, 0, 71, 37
2, 100382, Note_on_c, 0, 77, 0
2, 100556, Note_on_c, 0, 71, 0
2, 100579, Note_on_c, 0, 78, 0
2, 100701, Note_on_c, 0, 78, 55
2, 100712, Note_on_c, 0, 69, 40
2, 100723, Note_on_c, 0, 42, 38
2, 100726, Note_on_c, 0, 49, 0
2, 100837, Control_c, 0, 67, 125
2, 100868, Control_c, 0, 67, 125
2, 101061, Note_on_c, 0, 45, 57
2, 101141, Control_c, 0, 67, 126
2, 101192, Note_on_c, 0, 42, 0
2, 101202, Control_c, 0, 67, 126
2, 101247, Control_c, 0, 67, 127
2, 101264, Note_on_c, 0, 45, 0
2, 101338, Control_c, 0, 67, 127
2, 101416, Note_on_c, 0, 49, 64
2, 101625, Note_on_c, 0, 49, 0
2, 101776, Note_on_c, 0, 54, 54
2, 101833, Control_c, 0, 67, 127
2, 101878, Control_c, 0, 67, 126
2, 101940, Control_c, 0, 67, 126
2, 102091, Control_c, 0, 67, 125
2, 102123, Note_on_c, 0, 78, 0
2, 102452, Note_on_c, 0, 61, 65
2, 102472, Note_on_c, 0, 78, 49
2, 102677, Note_on_c, 0, 80, 51
2, 102685, Note_on_c, 0, 78, 0
2, 102743, Note_on_c, 0, 80, 0
2, 102747, Note_on_c, 0, 81, 54
2, 102775, Note_on_c, 0, 69, 0
2, 102825, Note_on_c, 0, 66, 74
2, 102832, Note_on_c, 0, 76, 53
2, 102836, Note_on_c, 0, 81, 0
2, 102863, Note_on_c, 0, 61, 0
2, 103048, Control_c, 0, 67, 125
2, 103095, Control_c, 0, 67, 124
2, 103175, Note_on_c, 0, 74, 56
2, 103181, Note_on_c, 0, 76, 0
2, 103186, Control_c, 0, 67, 124
2, 103247, Control_c, 0, 67, 123
2, 103323, Control_c, 0, 67, 123
2, 103368, Control_c, 0, 67, 122
2, 103480, Note_on_c, 0, 74, 0
2, 103518, Note_on_c, 0, 69, 76
2, 103523, Note_on_c, 0, 73, 52
2, 103572, Note_on_c, 0, 66, 0
2, 103652, Note_on_c, 0, 73, 0
2, 103672, Control_c, 0, 67, 122
2, 103899, Note_on_c, 0, 73, 61
2, 103901, Note_on_c, 0, 68, 74
2, 103915, Note_on_c, 0, 69, 0
2, 104236, Note_on_c, 0, 52, 45
2, 104245, Note_on_c, 0, 71, 53
2, 104284, Note_on_c, 0, 54, 0
2, 104330, Note_on_c, 0, 73, 0
2, 104333, Note_on_c, 0, 52, 0
2, 104385, Note_on_c, 0, 71, 0
2, 104389, Note_on_c, 0, 74, 67
2, 104440, Control_c, 0, 67, 122
2, 104486, Control_c, 0, 67, 123
2, 104531, Control_c, 0, 67, 123
2, 104565, Note_on_c, 0, 73, 74
2, 104568, Note_on_c, 0, 50, 42
2, 104618, Note_on_c, 0, 74, 0
2, 104667, Note_on_c, 0, 50, 0
2, 104691, Control_c, 0, 67, 124
2, 104717, Note_on_c, 0, 71, 77
2, 104727, Note_on_c, 0, 73, 0
2, 104784, Control_c, 0, 67, 124
2, 104929, Note_on_c, 0, 80, 77
2, 104936, Control_c, 0, 67, 125
2, 104940, Note_on_c, 0, 50, 35
2, 104951, Control_c, 0, 67, 125
2, 104982, Note_on_c, 0, 71, 0
2, 105263, Note_on_c, 0, 68, 0
2, 105277, Note_on_c, 0, 52, 50
2, 105361, Note_on_c, 0, 50, 0
2, 105405, Note_on_c, 0, 68, 73
2, 105489, Note_on_c, 0, 68, 0
2, 105551, Control_c, 0, 67, 125
2, 105565, Note_on_c, 0, 69, 80
2, 105597, Control_c, 0, 67, 124
2, 105631, Note_on_c, 0, 69, 0
2, 105723, Note_on_c, 0, 71, 69
2, 105808, Note_on_c, 0, 71, 0
2, 105913, Note_on_c, 0, 73, 62
2, 106273, Control_c, 0, 67, 124
2, 106432, Note_on_c, 0, 45, 52
2, 106478, Note_on_c, 0, 73, 0
2, 106486, Note_on_c, 0, 80, 0
2, 106505, Note_on_c, 0, 52, 0
2, 106516, Note_on_c, 0, 45, 0
2, 106581, Note_on_c, 0, 81, 75
2, 106593, Note_on_c, 0, 73, 61
2, 106602, Note_on_c, 0, 47, 57
2, 106659, Note_on_c, 0, 47, 0
2, 106744, Note_on_c, 0, 49, 61
2, 106812, Note_on_c, 0, 49, 0
2, 106863, Note_on_c, 0, 73, 0
2, 106949, Note_on_c, 0, 73, 29
2, 106953, Note_on_c, 0, 50, 44
2, 106954, Note_on_c, 0, 80, 69
2, 106995, Control_c, 0, 67, 123
2, 107008, Note_on_c, 0, 81, 0
2, 107224, Control_c, 0, 67, 123
2, 107338, Note_on_c, 0, 78, 56
2, 107372, Note_on_c, 0, 80, 0
2, 107498, Control_c, 0, 67, 122
2, 107706, Note_on_c, 0, 66, 45
2, 107764, Control_c, 0, 67, 122
2, 107765, Note_on_c, 0, 73, 0
2, 107902, Note_on_c, 0, 66, 0
2, 108073, Note_on_c, 0, 71, 43
2, 108570, Note_on_c, 0, 50, 0
2, 108571, Note_on_c, 0, 49, 36
2, 108571, Note_on_c, 0, 81, 59
2, 108615, Note_on_c, 0, 78, 0
2, 108722, Note_on_c, 0, 49, 0
2, 108740, Note_on_c, 0, 80, 61
2, 108747, Note_on_c, 0, 47, 35
2, 108772, Note_on_c, 0, 81, 0
2, 108874, Note_on_c, 0, 47, 0
2, 108876, Note_on_c, 0, 80, 0
2, 108881, Note_on_c, 0, 78, 64
2, 108893, Note_on_c, 0, 45, 36
2, 108950, Note_on_c, 0, 45, 0
2, 108976, Note_on_c, 0, 78, 0
2, 109059, Note_on_c, 0, 78, 60
2, 109069, Note_on_c, 0, 44, 34
2, 109283, Control_c, 0, 67, 122
2, 109359, Control_c, 0, 67, 123
2, 109390, Control_c, 0, 67, 123
2, 109399, Note_on_c, 0, 77, 62
2, 109435, Control_c, 0, 67, 124
2, 109438, Note_on_c, 0, 78, 0
2, 109496, Control_c, 0, 67, 124
2, 109556, Control_c, 0, 67, 125
2, 109567, Note_on_c, 0, 44, 0
2, 109571, Control_c, 0, 67, 125
2, 109586, Note_on_c, 0, 71, 0
2, 109587, Control_c, 0, 67, 126
2, 109602, Note_on_c, 0, 77, 0
2, 109618, Control_c, 0, 67, 126
2, 109663, Control_c, 0, 67, 127
2, 109679, Control_c, 0, 67, 127
2, 109766, Note_on_c, 0, 80, 74
2, 109776, Note_on_c, 0, 71, 57
2, 109782, Note_on_c, 0, 47, 47
2, 109972, Note_on_c, 0, 71, 0
2, 109975, Note_on_c, 0, 47, 0
2, 110010, Note_on_c, 0, 80, 0
2, 110143, Note_on_c, 0, 74, 74
2, 110155, Note_on_c, 0, 71, 63
2, 110170, Note_on_c, 0, 41, 42
2, 110498, Note_on_c, 0, 73, 72
2, 110536, Note_on_c, 0, 74, 0
2, 110634, Note_on_c, 0, 71, 0
2, 110674, Note_on_c, 0, 41, 0
2, 110703, Note_on_c, 0, 73, 0
2, 110852, Note_on_c, 0, 77, 77
2, 110876, Note_on_c, 0, 37, 43
2, 110883, Note_on_c, 0, 73, 60
2, 111021, Note_on_c, 0, 77, 0
2, 111066, Note_on_c, 0, 73, 0
2, 111108, Note_on_c, 0, 37, 0
2, 111206, Note_on_c, 0, 78, 80
2, 111221, Note_on_c, 0, 42, 50
2, 111230, Note_on_c, 0, 71, 45
2, 111308, Note_on_c, 0, 71, 0
2, 111308, Note_on_c, 0, 71, 7
2, 111572, Note_on_c, 0, 69, 68
2, 111607, Note_on_c, 0, 71, 0
2, 111699, Note_on_c, 0, 42, 0
2, 111717, Note_on_c, 0, 49, 65
2, 111820, Note_on_c, 0, 49, 0
2, 111878, Note_on_c, 0, 81, 83
2, 111900, Note_on_c, 0, 50, 51
2, 111929, Note_on_c, 0, 78, 0
2, 111940, Note_on_c, 0, 50, 0
2, 112053, Note_on_c, 0, 52, 56
2, 112123, Note_on_c, 0, 52, 0
2, 112234, Note_on_c, 0, 74, 66
2, 112236, Note_on_c, 0, 54, 54
2, 112305, Note_on_c, 0, 81, 0
2, 112362, Note_on_c, 0, 69, 0
2, 112577, Note_on_c, 0, 68, 51
2, 112715, Note_on_c, 0, 54, 0
2, 112729, Note_on_c, 0, 74, 0
2, 112756, Note_on_c, 0, 68, 0
2, 112853, Note_on_c, 0, 69, 43
2, 112857, Note_on_c, 0, 74, 51
2, 112860, Note_on_c, 0, 54, 48
2, 112879, Note_on_c, 0, 74, 0
2, 112888, Note_on_c, 0, 73, 62
2, 112927, Note_on_c, 0, 73, 0
2, 112944, Note_on_c, 0, 74, 63
2, 113003, Note_on_c, 0, 73, 57
2, 113007, Note_on_c, 0, 74, 0
2, 113086, Note_on_c, 0, 69, 0
2, 113111, Note_on_c, 0, 73, 0
2, 113138, Note_on_c, 0, 54, 0
2, 113239, Note_on_c, 0, 73, 62
2, 113269, Note_on_c, 0, 54, 42
2, 113271, Note_on_c, 0, 68, 44
2, 113577, Note_on_c, 0, 72, 62
2, 113582, Note_on_c, 0, 54, 0
2, 113590, Note_on_c, 0, 56, 44
2, 113631, Note_on_c, 0, 73, 0
2, 113634, Note_on_c, 0, 68, 0
2, 113653, Note_on_c, 0, 56, 0
2, 113716, Note_on_c, 0, 54, 59
2, 113792, Note_on_c, 0, 54, 0
2, 113876, Control_c, 0, 67, 122
2, 113891, Control_c, 0, 67, 113
2, 113892, Note_on_c, 0, 52, 52
2, 113897, Note_on_c, 0, 68, 75
2, 113907, Control_c, 0, 67, 103
2, 113918, Note_on_c, 0, 72, 0
2, 113922, Control_c, 0, 67, 92
2, 113937, Control_c, 0, 67, 81
2, 113952, Control_c, 0, 67, 72
2, 113958, Note_on_c, 0, 52, 0
2, 113967, Control_c, 0, 67, 66
2, 113983, Control_c, 0, 67, 63
2, 113998, Control_c, 0, 67, 63
2, 114013, Control_c, 0, 67, 63
2, 114023, Note_on_c, 0, 51, 57
2, 114101, Note_on_c, 0, 51, 0
2, 114105, Control_c, 0, 67, 64
2, 114120, Control_c, 0, 67, 64
2, 114193, Note_on_c, 0, 68, 0
2, 114195, Control_c, 0, 67, 64
2, 114221, Note_on_c, 0, 73, 63
2, 114238, Note_on_c, 0, 51, 48
2, 114241, Control_c, 0, 67, 63
2, 114302, Control_c, 0, 67, 63
2, 114317, Control_c, 0, 67, 62
2, 114500, Control_c, 0, 67, 63
2, 114529, Control_c, 0, 67, 63
2, 114600, Note_on_c, 0, 51, 0
2, 114606, Note_on_c, 0, 52, 57
2, 114645, Control_c, 0, 67, 64
2, 114669, Note_on_c, 0, 52, 0
2, 114755, Note_on_c, 0, 49, 62
2, 114797, Control_c, 0, 67, 64
2, 114811, Note_on_c, 0, 49, 0
2, 114827, Control_c, 0, 67, 65
2, 114912, Note_on_c, 0, 68, 74
2, 114925, Note_on_c, 0, 51, 56
2, 114949, Control_c, 0, 67, 64
2, 115010, Note_on_c, 0, 51, 0
2, 115071, Control_c, 0, 67, 64
2, 115076, Note_on_c, 0, 52, 57
2, 115114, Note_on_c, 0, 52, 0
2, 115151, Note_on_c, 0, 68, 0
2, 115207, Control_c, 0, 67, 63
2, 115237, Control_c, 0, 67, 63
2, 115241, Note_on_c, 0, 69, 66
2, 115258, Note_on_c, 0, 54, 45
2, 115283, Control_c, 0, 67, 62
2, 115288, Note_on_c, 0, 69, 0
2, 115299, Note_on_c, 0, 68, 76
2, 115366, Note_on_c, 0, 68, 0
2, 115386, Note_on_c, 0, 69, 71
2, 115460, Control_c, 0, 67, 62
2, 115584, Note_on_c, 0, 54, 0
2, 115596, Control_c, 0, 67, 62
2, 115602, Note_on_c, 0, 57, 45
2, 115668, Note_on_c, 0, 57, 0
2, 115732, Note_on_c, 0, 56, 58
2, 115799, Note_on_c, 0, 56, 0
2, 115890, Note_on_c, 0, 69, 0
2, 115914, Note_on_c, 0, 64, 60
2, 115927, Note_on_c, 0, 57, 46
2, 116181, Control_c, 0, 67, 63
2, 116196, Control_c, 0, 67, 63
2, 116205, Note_on_c, 0, 57, 0
2, 116226, Control_c, 0, 67, 64
2, 116242, Control_c, 0, 67, 64
2, 116247, Note_on_c, 0, 64, 0
2, 116269, Note_on_c, 0, 66, 58
2, 116272, Control_c, 0, 67, 65
2, 116292, Note_on_c, 0, 51, 45
2, 116303, Control_c, 0, 67, 65
2, 116318, Control_c, 0, 67, 66
2, 116333, Control_c, 0, 67, 66
2, 116349, Control_c, 0, 67, 67
2, 116409, Control_c, 0, 67, 67
2, 116413, Note_on_c, 0, 73, 0
2, 116425, Control_c, 0, 67, 68
2, 116455, Control_c, 0, 67, 68
2, 116512, Note_on_c, 0, 51, 0
2, 116597, Note_on_c, 0, 52, 59
2, 116622, Control_c, 0, 67, 69
2, 116637, Control_c, 0, 67, 69
2, 116667, Control_c, 0, 67, 70
2, 116682, Control_c, 0, 67, 70
2, 116746, Note_on_c, 0, 76, 80
2, 116776, Note_on_c, 0, 52, 0
2, 116885, Control_c, 0, 67, 70
2, 116929, Note_on_c, 0, 75, 72
2, 116933, Note_on_c, 0, 54, 62
2, 116946, Control_c, 0, 67, 69
2, 116966, Note_on_c, 0, 76, 0
2, 117053, Control_c, 0, 67, 70
2, 117069, Control_c, 0, 67, 71
2, 117083, Control_c, 0, 67, 71
2, 117095, Note_on_c, 0, 73, 77
2, 117098, Control_c, 0, 67, 72
2, 117114, Control_c, 0, 67, 73
2, 117124, Note_on_c, 0, 54, 0
2, 117124, Note_on_c, 0, 75, 0
2, 117129, Control_c, 0, 67, 74
2, 117145, Control_c, 0, 67, 75
2, 117160, Control_c, 0, 67, 78
2, 117175, Control_c, 0, 67, 80
2, 117191, Control_c, 0, 67, 83
2, 117206, Control_c, 0, 67, 86
2, 117211, Note_on_c, 0, 73, 0
2, 117222, Control_c, 0, 67, 88
2, 117236, Control_c, 0, 67, 90
2, 117267, Control_c, 0, 67, 90
2, 117279, Note_on_c, 0, 73, 71
2, 117289, Note_on_c, 0, 56, 53
2, 117403, Control_c, 0, 67, 91
2, 117448, Control_c, 0, 67, 91
2, 117479, Control_c, 0, 67, 93
2, 117493, Control_c, 0, 67, 96
2, 117509, Control_c, 0, 67, 98
2, 117524, Control_c, 0, 67, 100
2, 117539, Control_c, 0, 67, 100
2, 117555, Control_c, 0, 67, 101
2, 117569, Control_c, 0, 67, 101
2, 117600, Control_c, 0, 67, 102
2, 117609, Note_on_c, 0, 73, 0
2, 117615, Note_on_c, 0, 72, 70
2, 117631, Control_c, 0, 67, 102
2, 117684, Control_c, 0, 67, 103
2, 117698, Control_c, 0, 67, 103
2, 117716, Note_on_c, 0, 56, 0
2, 117722, Note_on_c, 0, 66, 0
2, 117760, Control_c, 0, 67, 104
2, 117774, Note_on_c, 0, 69, 75
2, 117790, Control_c, 0, 67, 104
2, 117805, Control_c, 0, 67, 105
2, 117820, Control_c, 0, 67, 105
2, 117943, Control_c, 0, 67, 106
2, 117946, Note_on_c, 0, 68, 75
2, 117952, Note_on_c, 0, 69, 0
2, 117955, Note_on_c, 0, 51, 49
2, 118019, Control_c, 0, 67, 105
2, 118102, Note_on_c, 0, 66, 81
2, 118107, Note_on_c, 0, 51, 0
2, 118113, Note_on_c, 0, 68, 0
2, 118140, Control_c, 0, 67, 105
2, 118211, Note_on_c, 0, 66, 0
2, 118232, Control_c, 0, 67, 105
2, 118246, Control_c, 0, 67, 106
2, 118262, Control_c, 0, 67, 106
2, 118274, Note_on_c, 0, 66, 69
2, 118277, Control_c, 0, 67, 108
2, 118292, Control_c, 0, 67, 112
2, 118297, Note_on_c, 0, 48, 52
2, 118308, Control_c, 0, 67, 116
2, 118323, Control_c, 0, 67, 119
2, 118328, Note_on_c, 0, 72, 0
2, 118337, Control_c, 0, 67, 120
2, 118353, Control_c, 0, 67, 121
2, 118399, Control_c, 0, 67, 122
2, 118422, Control_c, 0, 67, 122
2, 118437, Control_c, 0, 67, 123
2, 118452, Control_c, 0, 67, 125
2, 118467, Control_c, 0, 67, 127
2, 118482, Control_c, 0, 67, 127
2, 118637, Note_on_c, 0, 75, 68
2, 118659, Note_on_c, 0, 66, 0
2, 118743, Note_on_c, 0, 48, 0
2, 118750, Note_on_c, 0, 75, 0
2, 118997, Note_on_c, 0, 66, 48
2, 119013, Note_on_c, 0, 44, 37
2, 119133, Note_on_c, 0, 66, 0
2, 119184, Note_on_c, 0, 44, 0
2, 119361, Note_on_c, 0, 64, 44
2, 119383, Note_on_c, 0, 49, 21
2, 119822, Note_on_c, 0, 56, 48
2, 119847, Note_on_c, 0, 49, 0
2, 119884, Note_on_c, 0, 56, 0
2, 119997, Note_on_c, 0, 58, 59
2, 120055, Note_on_c, 0, 58, 0
2, 120140, Note_on_c, 0, 60, 70
2, 120218, Note_on_c, 0, 60, 0
2, 120336, Note_on_c, 0, 61, 63
2, 120652, Note_on_c, 0, 64, 0
2, 120687, Note_on_c, 0, 63, 68
2, 120734, Note_on_c, 0, 61, 0
2, 120868, Note_on_c, 0, 63, 0
2, 121033, Note_on_c, 0, 68, 79
2, 121046, Note_on_c, 0, 59, 53
2, 121180, Note_on_c, 0, 68, 0
2, 121208, Note_on_c, 0, 59, 0
2, 121367, Note_on_c, 0, 73, 65
2, 121389, Note_on_c, 0, 57, 51
2, 121425, Note_on_c, 0, 72, 67
2, 121428, Note_on_c, 0, 73, 0
2, 121507, Note_on_c, 0, 73, 60
2, 121509, Note_on_c, 0, 72, 0
2, 121730, Note_on_c, 0, 57, 0
2, 121730, Note_on_c, 0, 59, 43
2, 121874, Note_on_c, 0, 59, 0
2, 121941, Note_on_c, 0, 73, 0
2, 122079, Note_on_c, 0, 76, 78
2, 122088, Note_on_c, 0, 56, 42
2, 122088, Note_on_c, 0, 73, 58
2, 122228, Note_on_c, 0, 56, 0
2, 122300, Note_on_c, 0, 76, 0
2, 122346, Note_on_c, 0, 73, 0
2, 122437, Note_on_c, 0, 76, 71
2, 122445, Note_on_c, 0, 73, 46
2, 122457, Note_on_c, 0, 54, 39
2, 122778, Note_on_c, 0, 75, 56
2, 122810, Note_on_c, 0, 76, 0
2, 122856, Note_on_c, 0, 54, 0
2, 122925, Note_on_c, 0, 51, 56
2, 123017, Note_on_c, 0, 51, 0
2, 123111, Note_on_c, 0, 52, 50
2, 123179, Note_on_c, 0, 52, 0
2, 123281, Note_on_c, 0, 54, 47
2, 123336, Note_on_c, 0, 54, 0
2, 123478, Note_on_c, 0, 72, 53
2, 123489, Note_on_c, 0, 56, 37
2, 123519, Note_on_c, 0, 73, 0
2, 123809, Note_on_c, 0, 57, 47
2, 123847, Note_on_c, 0, 75, 0
2, 123893, Note_on_c, 0, 56, 0
2, 123928, Note_on_c, 0, 57, 0
2, 123961, Note_on_c, 0, 75, 65
2, 124061, Note_on_c, 0, 75, 0
2, 124131, Note_on_c, 0, 76, 78
2, 124142, Note_on_c, 0, 54, 47
2, 124226, Note_on_c, 0, 76, 0
2, 124273, Note_on_c, 0, 54, 0
2, 124283, Note_on_c, 0, 78, 85
2, 124368, Note_on_c, 0, 78, 0
2, 124477, Note_on_c, 0, 80, 80
2, 124497, Note_on_c, 0, 54, 43
2, 124569, Note_on_c, 0, 72, 0
2, 124576, Note_on_c, 0, 54, 0
2, 124598, Note_on_c, 0, 53, 50
2, 124677, Note_on_c, 0, 53, 0
2, 124692, Note_on_c, 0, 54, 48
2, 124746, Note_on_c, 0, 54, 0
2, 124758, Note_on_c, 0, 53, 40
2, 124824, Note_on_c, 0, 71, 67
2, 124830, Note_on_c, 0, 53, 0
2, 124841, Note_on_c, 0, 54, 53
2, 124882, Note_on_c, 0, 54, 0
2, 124884, Note_on_c, 0, 53, 43
2, 124903, Note_on_c, 0, 71, 0
2, 124978, Note_on_c, 0, 70, 69
2, 124984, Note_on_c, 0, 54, 48
2, 125003, Note_on_c, 0, 53, 0
2, 125003, Note_on_c, 0, 53, 32
2, 125012, Note_on_c, 0, 54, 0
2, 125048, Note_on_c, 0, 80, 0
2, 125072, Note_on_c, 0, 53, 0
2, 125078, Note_on_c, 0, 70, 0
2, 125091, Note_on_c, 0, 54, 59
2, 125119, Note_on_c, 0, 54, 0
2, 125140, Note_on_c, 0, 80, 73
2, 125143, Note_on_c, 0, 53, 44
2, 125145, Note_on_c, 0, 71, 63
2, 125253, Note_on_c, 0, 53, 0
2, 125281, Note_on_c, 0, 51, 55
2, 125372, Note_on_c, 0, 51, 0
2, 125377, Note_on_c, 0, 71, 0
2, 125385, Note_on_c, 0, 53, 59
2, 125459, Note_on_c, 0, 53, 0
2, 125460, Note_on_c, 0, 81, 81
2, 125479, Note_on_c, 0, 80, 0
2, 125480, Note_on_c, 0, 71, 54
2, 125491, Note_on_c, 0, 54, 52
2, 125799, Note_on_c, 0, 80, 73
2, 125874, Note_on_c, 0, 81, 0
2, 126158, Note_on_c, 0, 73, 66
2, 126183, Note_on_c, 0, 80, 0
2, 126190, Note_on_c, 0, 71, 0
2, 126494, Note_on_c, 0, 78, 66
2, 126521, Note_on_c, 0, 70, 40
2, 126537, Note_on_c, 0, 73, 0
2, 126586, Note_on_c, 0, 70, 0
2, 126586, Note_on_c, 0, 70, 3
2, 127003, Note_on_c, 0, 70, 0
2, 127003, Note_on_c, 0, 71, 57
2, 127084, Note_on_c, 0, 71, 0
2, 127093, Note_on_c, 0, 54, 0
2, 127152, Note_on_c, 0, 70, 55
2, 127177, Note_on_c, 0, 52, 48
2, 127222, Note_on_c, 0, 70, 0
2, 127314, Note_on_c, 0, 68, 56
2, 127360, Note_on_c, 0, 52, 0
2, 127405, Note_on_c, 0, 68, 0
2, 127489, Note_on_c, 0, 69, 53
2, 127497, Note_on_c, 0, 51, 45
2, 127855, Note_on_c, 0, 52, 44
2, 127892, Note_on_c, 0, 51, 0
2, 127986, Note_on_c, 0, 78, 0
2, 128038, Note_on_c, 0, 69, 0
2, 128073, Note_on_c, 0, 52, 0
2, 128218, Note_on_c, 0, 78, 78
2, 128225, Note_on_c, 0, 49, 44
2, 128243, Note_on_c, 0, 69, 55
2, 128418, Note_on_c, 0, 69, 0
2, 128457, Note_on_c, 0, 49, 0
2, 128467, Note_on_c, 0, 78, 0
2, 128586, Note_on_c, 0, 78, 80
2, 128599, Note_on_c, 0, 48, 46
2, 128604, Note_on_c, 0, 69, 56
2, 128940, Note_on_c, 0, 68, 73
2, 128942, Note_on_c, 0, 69, 0
2, 129094, Note_on_c, 0, 78, 0
2, 129127, Note_on_c, 0, 48, 0
2, 129210, Note_on_c, 0, 68, 0
2, 129295, Note_on_c, 0, 80, 84
2, 129301, Note_on_c, 0, 72, 58
2, 129307, Note_on_c, 0, 44, 47
2, 129461, Note_on_c, 0, 44, 0
2, 129477, Note_on_c, 0, 72, 0
2, 129516, Note_on_c, 0, 80, 0
2, 129616, Note_on_c, 0, 49, 51
2, 129644, Note_on_c, 0, 78, 67
2, 129650, Note_on_c, 0, 73, 46
2, 129680, Note_on_c, 0, 49, 0
2, 129699, Note_on_c, 0, 48, 55
2, 129765, Note_on_c, 0, 48, 0
2, 129768, Note_on_c, 0, 49, 42
2, 130005, Note_on_c, 0, 76, 58
2, 130050, Note_on_c, 0, 78, 0
2, 130644, Note_on_c, 0, 49, 0
2, 130784, Note_on_c, 0, 37, 37
2, 131132, Note_on_c, 0, 75, 58
2, 131142, Note_on_c, 0, 73, 0
2, 131148, Note_on_c, 0, 72, 40
2, 131161, Note_on_c, 0, 76, 0
2, 131481, Note_on_c, 0, 72, 0
2, 131494, Note_on_c, 0, 37, 0
2, 131496, Note_on_c, 0, 76, 52
2, 131505, Note_on_c, 0, 73, 42
2, 131538, Note_on_c, 0, 75, 0
2, 131801, Note_on_c, 0, 76, 0
2, 131899, Note_on_c, 0, 76, 45
2, 131906, Note_on_c, 0, 44, 31
2, 131922, Note_on_c, 0, 72, 35
2, 131961, Note_on_c, 0, 73, 0
2, 132261, Note_on_c, 0, 75, 47
2, 132282, Note_on_c, 0, 48, 50
2, 132301, Note_on_c, 0, 76, 0
2, 132325, Note_on_c, 0, 44, 0
2, 132460, Note_on_c, 0, 48, 0
2, 132633, Note_on_c, 0, 51, 62
2, 132671, Control_c, 0, 67, 124
2, 132686, Control_c, 0, 67, 116
2, 132701, Control_c, 0, 67, 110
2, 132717, Control_c, 0, 67, 105
2, 132732, Control_c, 0, 67, 102
2, 132746, Control_c, 0, 67, 100
2, 132762, Control_c, 0, 67, 99
2, 132777, Control_c, 0, 67, 99
2, 132792, Control_c, 0, 67, 97
2, 132807, Control_c, 0, 67, 96
2, 132822, Control_c, 0, 67, 94
2, 132838, Control_c, 0, 67, 93
2, 132850, Note_on_c, 0, 51, 0
2, 132853, Control_c, 0, 67, 92
2, 132883, Control_c, 0, 67, 92
2, 132898, Control_c, 0, 67, 93
2, 132914, Control_c, 0, 67, 93
2, 132929, Control_c, 0, 67, 94
2, 132943, Control_c, 0, 67, 94
2, 132973, Control_c, 0, 67, 95
2, 132983, Note_on_c, 0, 56, 58
2, 132988, Control_c, 0, 67, 96
2, 133011, Control_c, 0, 67, 97
2, 133057, Control_c, 0, 67, 97
2, 133073, Control_c, 0, 67, 98
2, 133087, Control_c, 0, 67, 98
2, 133102, Control_c, 0, 67, 99
2, 133133, Control_c, 0, 67, 99
2, 133194, Control_c, 0, 67, 100
2, 133224, Control_c, 0, 67, 99
2, 133316, Control_c, 0, 67, 100
2, 133331, Control_c, 0, 67, 101
2, 133346, Control_c, 0, 67, 102
2, 133361, Control_c, 0, 67, 102
2, 133376, Control_c, 0, 67, 103
2, 133392, Control_c, 0, 67, 103
2, 133406, Control_c, 0, 67, 104
2, 133421, Control_c, 0, 67, 105
2, 133438, Control_c, 0, 67, 107
2, 133453, Control_c, 0, 67, 110
2, 133459, Note_on_c, 0, 75, 0
2, 133468, Control_c, 0, 67, 112
2, 133468, Note_on_c, 0, 57, 65
2, 133484, Control_c, 0, 67, 113
2, 133496, Note_on_c, 0, 56, 0
2, 133499, Control_c, 0, 67, 115
2, 133514, Control_c, 0, 67, 116
2, 133529, Control_c, 0, 67, 117
2, 133544, Control_c, 0, 67, 117
2, 133555, Note_on_c, 0, 57, 0
2, 133560, Control_c, 0, 67, 118
2, 133575, Control_c, 0, 67, 119
2, 133605, Control_c, 0, 67, 119
2, 133621, Note_on_c, 0, 75, 68
2, 133634, Note_on_c, 0, 56, 64
2, 133635, Control_c, 0, 67, 120
2, 133650, Control_c, 0, 67, 120
2, 133665, Control_c, 0, 67, 121
2, 133681, Control_c, 0, 67, 121
2, 133704, Note_on_c, 0, 56, 0
2, 133711, Control_c, 0, 67, 122
2, 133726, Control_c, 0, 67, 122
2, 133741, Control_c, 0, 67, 124
2, 133757, Control_c, 0, 67, 125
2, 133771, Note_on_c, 0, 54, 64
2, 133780, Control_c, 0, 67, 126
2, 133795, Control_c, 0, 67, 127
2, 133810, Control_c, 0, 67, 127
2, 133843, Note_on_c, 0, 54, 0
2, 133862, Note_on_c, 0, 75, 0
2, 133922, Note_on_c, 0, 75, 65
2, 133930, Note_on_c, 0, 56, 57
2, 133970, Note_on_c, 0, 54, 61
2, 133976, Note_on_c, 0, 56, 0
2, 134047, Note_on_c, 0, 54, 0
2, 134052, Note_on_c, 0, 56, 60
2, 134254, Note_on_c, 0, 76, 75
2, 134279, Note_on_c, 0, 75, 0
2, 134322, Note_on_c, 0, 72, 0
2, 134425, Note_on_c, 0, 56, 0
2, 134427, Note_on_c, 0, 76, 0
2, 134603, Note_on_c, 0, 72, 76
2, 134618, Note_on_c, 0, 68, 66
2, 134630, Note_on_c, 0, 56, 50
2, 134805, Note_on_c, 0, 56, 0
2, 134808, Note_on_c, 0, 72, 0
2, 134817, Note_on_c, 0, 68, 0
2, 134964, Note_on_c, 0, 72, 66
2, 134969, Note_on_c, 0, 69, 57
2, 134984, Note_on_c, 0, 56, 42
2, 135343, Note_on_c, 0, 73, 59
2, 135374, Note_on_c, 0, 72, 0
2, 135405, Note_on_c, 0, 56, 0
2, 135480, Note_on_c, 0, 49, 53
2, 135558, Note_on_c, 0, 49, 0
2, 135649, Note_on_c, 0, 51, 47
2, 135702, Note_on_c, 0, 51, 0
2, 135783, Note_on_c, 0, 53, 51
2, 135881, Note_on_c, 0, 53, 0
2, 136012, Note_on_c, 0, 54, 46
2, 136061, Note_on_c, 0, 54, 0
2, 136085, Note_on_c, 0, 53, 43
2, 136146, Note_on_c, 0, 53, 0
2, 136163, Note_on_c, 0, 54, 44
2, 136535, Note_on_c, 0, 76, 67
2, 136536, Note_on_c, 0, 54, 0
2, 136547, Note_on_c, 0, 56, 44
2, 136550, Note_on_c, 0, 73, 0
2, 136587, Note_on_c, 0, 56, 0
2, 136692, Note_on_c, 0, 75, 74
2, 136705, Note_on_c, 0, 54, 46
2, 136724, Note_on_c, 0, 76, 0
2, 136748, Note_on_c, 0, 54, 0
2, 136831, Note_on_c, 0, 73, 74
2, 136850, Note_on_c, 0, 52, 51
2, 136853, Note_on_c, 0, 75, 0
2, 136913, Note_on_c, 0, 52, 0
2, 136936, Note_on_c, 0, 73, 0
2, 136998, Note_on_c, 0, 54, 48
2, 137002, Note_on_c, 0, 73, 66
2, 137052, Note_on_c, 0, 54, 0
2, 137053, Note_on_c, 0, 52, 56
2, 137128, Note_on_c, 0, 54, 55
2, 137132, Note_on_c, 0, 52, 0
2, 137325, Note_on_c, 0, 81, 81
2, 137380, Note_on_c, 0, 73, 0
2, 137402, Note_on_c, 0, 69, 0
2, 137467, Note_on_c, 0, 54, 0
2, 137701, Note_on_c, 0, 73, 71
2, 137715, Note_on_c, 0, 69, 53
2, 137719, Note_on_c, 0, 54, 44
2, 137727, Note_on_c, 0, 81, 0
2, 137856, Note_on_c, 0, 69, 0
2, 137914, Note_on_c, 0, 73, 0
2, 137960, Note_on_c, 0, 54, 0
2, 138052, Note_on_c, 0, 73, 70
2, 138081, Note_on_c, 0, 54, 52
2, 138081, Note_on_c, 0, 68, 51
2, 138135, Note_on_c, 0, 68, 0
2, 138135, Note_on_c, 0, 68, 17
2, 138426, Note_on_c, 0, 72, 68
2, 138477, Note_on_c, 0, 73, 0
2, 138501, Note_on_c, 0, 68, 0
2, 138528, Note_on_c, 0, 54, 0
2, 138570, Control_c, 0, 67, 127
2, 138580, Note_on_c, 0, 48, 45
2, 138585, Control_c, 0, 67, 126
2, 138616, Control_c, 0, 67, 126
2, 138646, Control_c, 0, 67, 125
2, 138661, Control_c, 0, 67, 124
2, 138677, Control_c, 0, 67, 124
2, 138682, Note_on_c, 0, 48, 0
2, 138692, Control_c, 0, 67, 123
2, 138706, Control_c, 0, 67, 122
2, 138722, Control_c, 0, 67, 121
2, 138736, Note_on_c, 0, 68, 77
2, 138737, Control_c, 0, 67, 121
2, 138745, Note_on_c, 0, 49, 61
2, 138753, Control_c, 0, 67, 118
2, 138767, Control_c, 0, 67, 114
2, 138782, Control_c, 0, 67, 108
2, 138792, Note_on_c, 0, 72, 0
2, 138798, Control_c, 0, 67, 102
2, 138813, Control_c, 0, 67, 97
2, 138822, Note_on_c, 0, 49, 0
2, 138828, Control_c, 0, 67, 94
2, 138843, Control_c, 0, 67, 91
2, 138858, Control_c, 0, 67, 90
2, 138889, Control_c, 0, 67, 91
2, 138890, Note_on_c, 0, 51, 62
2, 138904, Control_c, 0, 67, 92
2, 138951, Control_c, 0, 67, 93
2, 138965, Control_c, 0, 67, 94
2, 138966, Note_on_c, 0, 51, 0
2, 138980, Control_c, 0, 67, 95
2, 138996, Control_c, 0, 67, 95
2, 139056, Control_c, 0, 67, 96
2, 139072, Control_c, 0, 67, 97
2, 139090, Note_on_c, 0, 80, 82
2, 139107, Note_on_c, 0, 52, 49
2, 139175, Note_on_c, 0, 68, 0
2, 139262, Control_c, 0, 67, 98
2, 139277, Control_c, 0, 67, 98
2, 139292, Control_c, 0, 67, 99
2, 139307, Control_c, 0, 67, 99
2, 139322, Control_c, 0, 67, 100
2, 139337, Control_c, 0, 67, 101
2, 139353, Control_c, 0, 67, 102
2, 139368, Control_c, 0, 67, 104
2, 139383, Control_c, 0, 67, 106
2, 139398, Control_c, 0, 67, 107
2, 139413, Control_c, 0, 67, 108
2, 139428, Control_c, 0, 67, 108
2, 139459, Control_c, 0, 67, 109
2, 139504, Control_c, 0, 67, 109
2, 139550, Control_c, 0, 67, 110
2, 139590, Note_on_c, 0, 54, 50
2, 139596, Control_c, 0, 67, 110
2, 139596, Note_on_c, 0, 52, 0
2, 139611, Control_c, 0, 67, 111
2, 139626, Control_c, 0, 67, 113
2, 139642, Control_c, 0, 67, 116
2, 139656, Control_c, 0, 67, 119
2, 139672, Control_c, 0, 67, 123
2, 139677, Note_on_c, 0, 54, 0
2, 139687, Control_c, 0, 67, 126
2, 139702, Control_c, 0, 67, 127
2, 139747, Note_on_c, 0, 52, 56
2, 139747, Note_on_c, 0, 68, 82
2, 139832, Note_on_c, 0, 52, 0
2, 139890, Note_on_c, 0, 51, 52
2, 139915, Note_on_c, 0, 68, 0
2, 139954, Note_on_c, 0, 51, 0
2, 140072, Note_on_c, 0, 73, 76
2, 140094, Note_on_c, 0, 52, 43
2, 140235, Note_on_c, 0, 75, 79
2, 140244, Note_on_c, 0, 73, 0
2, 140333, Control_c, 0, 67, 123
2, 140341, Note_on_c, 0, 75, 0
2, 140348, Control_c, 0, 67, 115
2, 140364, Control_c, 0, 67, 109
2, 140378, Control_c, 0, 67, 104
2, 140394, Control_c, 0, 67, 99
2, 140409, Control_c, 0, 67, 91
2, 140416, Note_on_c, 0, 76, 78
2, 140424, Control_c, 0, 67, 84
2, 140440, Control_c, 0, 67, 75
2, 140454, Control_c, 0, 67, 68
2, 140470, Control_c, 0, 67, 61
2, 140477, Note_on_c, 0, 80, 0
2, 140485, Control_c, 0, 67, 55
2, 140500, Control_c, 0, 67, 49
2, 140516, Control_c, 0, 67, 42
2, 140531, Control_c, 0, 67, 37
2, 140546, Control_c, 0, 67, 35
2, 140562, Control_c, 0, 67, 33
2, 140576, Control_c, 0, 67, 31
2, 140592, Control_c, 0, 67, 29
2, 140607, Control_c, 0, 67, 27
2, 140608, Note_on_c, 0, 52, 0
2, 140622, Control_c, 0, 67, 25
2, 140763, Note_on_c, 0, 80, 77
2, 140783, Note_on_c, 0, 73, 52
2, 140812, Control_c, 0, 67, 25
2, 140818, Note_on_c, 0, 52, 36
2, 140827, Control_c, 0, 67, 24
2, 140837, Note_on_c, 0, 76, 0
2, 140843, Control_c, 0, 67, 24
2, 140858, Control_c, 0, 67, 21
2, 140874, Control_c, 0, 67, 16
2, 140889, Control_c, 0, 67, 11
2, 140904, Control_c, 0, 67, 0
2, 140977, Note_on_c, 0, 52, 0
2, 141048, Note_on_c, 0, 80, 0
2, 141131, Note_on_c, 0, 80, 75
2, 141132, Control_c, 0, 67, 13
2, 141140, Note_on_c, 0, 52, 28
2, 141147, Control_c, 0, 67, 21
2, 141152, Note_on_c, 0, 73, 0
2, 141161, Note_on_c, 0, 71, 51
2, 141163, Control_c, 0, 67, 30
2, 141177, Control_c, 0, 67, 39
2, 141193, Control_c, 0, 67, 46
2, 141208, Control_c, 0, 67, 51
2, 141222, Control_c, 0, 67, 56
2, 141238, Control_c, 0, 67, 60
2, 141253, Control_c, 0, 67, 62
2, 141268, Control_c, 0, 67, 64
2, 141284, Control_c, 0, 67, 65
2, 141298, Control_c, 0, 67, 67
2, 141314, Control_c, 0, 67, 68
2, 141329, Control_c, 0, 67, 69
2, 141344, Control_c, 0, 67, 71
2, 141360, Control_c, 0, 67, 72
2, 141375, Control_c, 0, 67, 73
2, 141391, Control_c, 0, 67, 75
2, 141405, Control_c, 0, 67, 79
2, 141420, Control_c, 0, 67, 83
2, 141436, Control_c, 0, 67, 88
2, 141459, Control_c, 0, 67, 94
2, 141470, Note_on_c, 0, 70, 56
2, 141473, Note_on_c, 0, 71, 0
2, 141475, Control_c, 0, 67, 100
2, 141490, Control_c, 0, 67, 106
2, 141504, Control_c, 0, 67, 112
2, 141520, Control_c, 0, 67, 117
2, 141532, Note_on_c, 0, 52, 0
2, 141535, Control_c, 0, 67, 120
2, 141550, Control_c, 0, 67, 122
2, 141565, Control_c, 0, 67, 124
2, 141580, Control_c, 0, 67, 125
2, 141596, Control_c, 0, 67, 126
2, 141610, Note_on_c, 0, 46, 53
2, 141611, Control_c, 0, 67, 127
2, 141671, Note_on_c, 0, 46, 0
2, 141776, Note_on_c, 0, 47, 54
2, 141835, Note_on_c, 0, 47, 0
2, 141930, Note_on_c, 0, 49, 52
2, 141990, Note_on_c, 0, 49, 0
2, 142074, Note_on_c, 0, 80, 0
2, 142126, Note_on_c, 0, 79, 65
2, 142136, Note_on_c, 0, 51, 42
2, 142563, Control_c, 0, 67, 122
2, 142577, Control_c, 0, 67, 115
2, 142593, Control_c, 0, 67, 107
2, 142601, Note_on_c, 0, 73, 55
2, 142608, Control_c, 0, 67, 101
2, 142616, Note_on_c, 0, 52, 40
2, 142620, Note_on_c, 0, 51, 0
2, 142622, Control_c, 0, 67, 95
2, 142633, Note_on_c, 0, 70, 0
2, 142638, Control_c, 0, 67, 90
2, 142653, Control_c, 0, 67, 85
2, 142658, Note_on_c, 0, 52, 0
2, 142668, Control_c, 0, 67, 80
2, 142684, Control_c, 0, 67, 74
2, 142698, Control_c, 0, 67, 68
2, 142713, Note_on_c, 0, 73, 0
2, 142714, Control_c, 0, 67, 63
2, 142729, Control_c, 0, 67, 58
2, 142744, Control_c, 0, 67, 53
2, 142760, Control_c, 0, 67, 49
2, 142769, Note_on_c, 0, 71, 65
2, 142770, Note_on_c, 0, 51, 50
2, 142775, Control_c, 0, 67, 45
2, 142791, Control_c, 0, 67, 41
2, 142806, Control_c, 0, 67, 37
2, 142818, Note_on_c, 0, 51, 0
2, 142821, Control_c, 0, 67, 33
2, 142836, Control_c, 0, 67, 29
2, 142843, Note_on_c, 0, 71, 0
2, 142851, Control_c, 0, 67, 24
2, 142866, Control_c, 0, 67, 18
2, 142882, Control_c, 0, 67, 12
2, 142897, Control_c, 0, 67, 0
2, 142911, Note_on_c, 0, 70, 71
2, 142923, Note_on_c, 0, 49, 49
2, 142969, Note_on_c, 0, 49, 0
2, 143010, Note_on_c, 0, 70, 0
2, 143096, Note_on_c, 0, 72, 71
2, 143113, Note_on_c, 0, 51, 39
2, 143117, Control_c, 0, 67, 8
2, 143132, Control_c, 0, 67, 9
2, 143147, Control_c, 0, 67, 10
2, 143162, Control_c, 0, 67, 13
2, 143177, Control_c, 0, 67, 17
2, 143193, Control_c, 0, 67, 24
2, 143208, Control_c, 0, 67, 32
2, 143223, Control_c, 0, 67, 42
2, 143239, Control_c, 0, 67, 50
2, 143253, Control_c, 0, 67, 57
2, 143270, Control_c, 0, 67, 61
2, 143285, Control_c, 0, 67, 64
2, 143300, Control_c, 0, 67, 67
2, 143316, Control_c, 0, 67, 71
2, 143331, Control_c, 0, 67, 73
2, 143345, Control_c, 0, 67, 76
2, 143361, Control_c, 0, 67, 78
2, 143376, Control_c, 0, 67, 80
2, 143392, Control_c, 0, 67, 81
2, 143407, Control_c, 0, 67, 84
2, 143419, Note_on_c, 0, 73, 77
2, 143421, Control_c, 0, 67, 88
2, 143437, Control_c, 0, 67, 93
2, 143452, Control_c, 0, 67, 99
2, 143460, Note_on_c, 0, 79, 0
2, 143466, Control_c, 0, 67, 105
2, 143477, Note_on_c, 0, 72, 0
2, 143482, Control_c, 0, 67, 111
2, 143497, Control_c, 0, 67, 116
2, 143513, Control_c, 0, 67, 120
2, 143525, Note_on_c, 0, 51, 0
2, 143528, Control_c, 0, 67, 123
2, 143542, Control_c, 0, 67, 126
2, 143558, Control_c, 0, 67, 127
2, 143761, Note_on_c, 0, 78, 79
2, 143772, Note_on_c, 0, 75, 71
2, 143791, Note_on_c, 0, 73, 0
2, 143806, Note_on_c, 0, 51, 40
2, 143953, Note_on_c, 0, 51, 0
2, 144067, Note_on_c, 0, 78, 0
2, 144158, Note_on_c, 0, 78, 82
2, 144166, Note_on_c, 0, 68, 59
2, 144174, Note_on_c, 0, 51, 47
2, 144235, Note_on_c, 0, 75, 0
2, 144540, Note_on_c, 0, 77, 70
2, 144570, Note_on_c, 0, 78, 0
2, 144625, Note_on_c, 0, 51, 0
2, 144710, Note_on_c, 0, 44, 49
2, 144711, Note_on_c, 0, 75, 69
2, 144714, Note_on_c, 0, 68, 0
2, 144714, Note_on_c, 0, 68, 22
2, 144715, Note_on_c, 0, 77, 0
2, 144769, Note_on_c, 0, 44, 0
2, 144819, Note_on_c, 0, 68, 0
2, 144862, Note_on_c, 0, 68, 7
2, 144873, Note_on_c, 0, 73, 62
2, 144874, Note_on_c, 0, 46, 53
2, 144880, Note_on_c, 0, 75, 0
2, 144925, Note_on_c, 0, 46, 0
2, 145023, Note_on_c, 0, 75, 66
2, 145025, Note_on_c, 0, 48, 50
2, 145042, Note_on_c, 0, 73, 0
2, 145087, Note_on_c, 0, 48, 0
2, 145222, Note_on_c, 0, 75, 0
2, 145222, Note_on_c, 0, 76, 63
2, 145235, Note_on_c, 0, 49, 34
2, 145704, Note_on_c, 0, 64, 64
2, 145725, Note_on_c, 0, 51, 41
2, 145749, Note_on_c, 0, 68, 0
2, 145762, Note_on_c, 0, 49, 0
2, 145777, Note_on_c, 0, 51, 0
2, 145792, Note_on_c, 0, 64, 0
2, 145872, Note_on_c, 0, 66, 80
2, 145873, Note_on_c, 0, 49, 54
2, 145935, Note_on_c, 0, 49, 0
2, 145950, Note_on_c, 0, 66, 0
2, 146020, Note_on_c, 0, 68, 82
2, 146028, Note_on_c, 0, 47, 57
2, 146087, Note_on_c, 0, 47, 0
2, 146112, Note_on_c, 0, 68, 0
2, 146203, Note_on_c, 0, 69, 78
2, 146223, Note_on_c, 0, 49, 46
2, 146545, Note_on_c, 0, 73, 80
2, 146552, Note_on_c, 0, 51, 45
2, 146568, Note_on_c, 0, 69, 0
2, 146580, Note_on_c, 0, 49, 0
2, 146613, Control_c, 0, 67, 124
2, 146628, Control_c, 0, 67, 116
2, 146644, Control_c, 0, 67, 110
2, 146652, Note_on_c, 0, 73, 0
2, 146659, Control_c, 0, 67, 107
2, 146674, Control_c, 0, 67, 106
2, 146698, Note_on_c, 0, 72, 80
2, 146705, Note_on_c, 0, 51, 0
2, 146720, Control_c, 0, 67, 105
2, 146735, Control_c, 0, 67, 103
2, 146750, Control_c, 0, 67, 100
2, 146765, Control_c, 0, 67, 99
2, 146780, Control_c, 0, 67, 97
2, 146793, Control_c, 0, 67, 95
2, 146800, Note_on_c, 0, 72, 0
2, 146817, Control_c, 0, 67, 94
2, 146832, Control_c, 0, 67, 90
2, 146847, Control_c, 0, 67, 85
2, 146862, Control_c, 0, 67, 80
2, 146878, Control_c, 0, 67, 77
2, 146893, Control_c, 0, 67, 77
2, 146894, Note_on_c, 0, 73, 69
2, 146909, Note_on_c, 0, 52, 41
2, 146923, Control_c, 0, 67, 76
2, 146938, Control_c, 0, 67, 76
2, 146953, Control_c, 0, 67, 76
2, 146969, Control_c, 0, 67, 77
2, 146983, Control_c, 0, 67, 79
2, 146999, Control_c, 0, 67, 81
2, 147014, Control_c, 0, 67, 83
2, 147029, Control_c, 0, 67, 84
2, 147045, Control_c, 0, 67, 84
2, 147059, Control_c, 0, 67, 85
2, 147074, Control_c, 0, 67, 86
2, 147105, Control_c, 0, 67, 86
2, 147108, Note_on_c, 0, 52, 0
2, 147136, Control_c, 0, 67, 87
2, 147264, Note_on_c, 0, 66, 57
2, 147272, Control_c, 0, 67, 86
2, 147300, Note_on_c, 0, 45, 36
2, 147317, Note_on_c, 0, 73, 0
2, 147317, Note_on_c, 0, 76, 0
2, 147365, Control_c, 0, 67, 86
2, 147471, Control_c, 0, 67, 85
2, 147601, Control_c, 0, 67, 86
2, 147603, Note_on_c, 0, 75, 57
2, 147646, Control_c, 0, 67, 86
2, 147661, Control_c, 0, 67, 87
2, 147677, Control_c, 0, 67, 87
2, 147707, Control_c, 0, 67, 88
2, 147725, Note_on_c, 0, 45, 0
2, 147783, Control_c, 0, 67, 88
2, 147799, Control_c, 0, 67, 89
2, 147814, Control_c, 0, 67, 90
2, 147828, Control_c, 0, 67, 91
2, 147844, Control_c, 0, 67, 92
2, 147859, Control_c, 0, 67, 92
2, 147965, Note_on_c, 0, 57, 61
2, 147978, Note_on_c, 0, 73, 43
2, 148042, Note_on_c, 0, 75, 0
2, 148120, Note_on_c, 0, 57, 0
2, 148120, Note_on_c, 0, 73, 0
2, 148287, Control_c, 0, 67, 92
2, 148346, Note_on_c, 0, 57, 43
2, 148348, Control_c, 0, 67, 91
2, 148364, Note_on_c, 0, 73, 41
2, 148395, Note_on_c, 0, 57, 0
2, 148404, Note_on_c, 0, 56, 54
2, 148466, Note_on_c, 0, 56, 0
2, 148497, Note_on_c, 0, 57, 52
2, 148584, Control_c, 0, 67, 91
2, 148690, Control_c, 0, 67, 90
2, 148709, Note_on_c, 0, 72, 52
2, 148734, Note_on_c, 0, 73, 0
2, 148796, Control_c, 0, 67, 90
2, 148815, Note_on_c, 0, 57, 0
2, 148853, Note_on_c, 0, 51, 58
2, 148902, Control_c, 0, 67, 89
2, 148932, Control_c, 0, 67, 89
2, 148936, Note_on_c, 0, 51, 0
2, 149021, Note_on_c, 0, 68, 59
2, 149026, Note_on_c, 0, 52, 65
2, 149037, Note_on_c, 0, 72, 0
2, 149097, Note_on_c, 0, 52, 0
2, 149170, Note_on_c, 0, 54, 67
2, 149247, Note_on_c, 0, 54, 0
2, 149305, Control_c, 0, 67, 89
2, 149336, Control_c, 0, 67, 90
2, 149368, Note_on_c, 0, 56, 56
2, 149379, Note_on_c, 0, 71, 43
2, 149397, Note_on_c, 0, 68, 0
2, 149412, Control_c, 0, 67, 90
2, 149458, Control_c, 0, 67, 90
2, 149695, Note_on_c, 0, 65, 66
2, 149734, Note_on_c, 0, 66, 0
2, 149792, Control_c, 0, 67, 89
2, 149796, Note_on_c, 0, 56, 0
2, 149823, Control_c, 0, 67, 89
2, 150037, Note_on_c, 0, 63, 74
2, 150053, Note_on_c, 0, 56, 53
2, 150132, Note_on_c, 0, 65, 0
2, 150174, Note_on_c, 0, 56, 0
2, 150231, Note_on_c, 0, 63, 0
2, 150348, Note_on_c, 0, 56, 39
2, 150361, Note_on_c, 0, 63, 59
2, 150394, Note_on_c, 0, 56, 0
2, 150410, Note_on_c, 0, 54, 48
2, 150467, Note_on_c, 0, 54, 0
2, 150483, Control_c, 0, 67, 89
2, 150491, Note_on_c, 0, 56, 46
2, 150514, Control_c, 0, 67, 90
2, 150722, Note_on_c, 0, 65, 61
2, 150759, Note_on_c, 0, 63, 0
2, 150773, Note_on_c, 0, 71, 0
2, 150900, Note_on_c, 0, 56, 0
2, 150947, Control_c, 0, 67, 89
2, 151062, Note_on_c, 0, 73, 56
2, 151079, Note_on_c, 0, 49, 36
2, 151238, Note_on_c, 0, 49, 0
2, 151241, Note_on_c, 0, 73, 0
2, 151448, Note_on_c, 0, 71, 51
2, 151451, Note_on_c, 0, 66, 48
2, 151462, Note_on_c, 0, 54, 41
2, 151476, Control_c, 0, 67, 90
2, 151559, Note_on_c, 0, 65, 0
2, 151818, Note_on_c, 0, 69, 55
2, 151900, Note_on_c, 0, 71, 0
2, 151976, Control_c, 0, 67, 90
2, 152022, Control_c, 0, 67, 91
2, 152038, Control_c, 0, 67, 91
2, 152053, Control_c, 0, 67, 92
2, 152069, Control_c, 0, 67, 93
2, 152084, Control_c, 0, 67, 93
2, 152098, Control_c, 0, 67, 94
2, 152129, Control_c, 0, 67, 93
2, 152159, Control_c, 0, 67, 93
2, 152169, Note_on_c, 0, 66, 0
2, 152171, Note_on_c, 0, 68, 51
2, 152174, Control_c, 0, 67, 92
2, 152175, Note_on_c, 0, 69, 0
2, 152190, Control_c, 0, 67, 92
2, 152194, Note_on_c, 0, 64, 38
2, 152228, Control_c, 0, 67, 92
2, 152411, Control_c, 0, 67, 92
2, 152430, Note_on_c, 0, 64, 0
2, 152442, Control_c, 0, 67, 91
2, 152454, Note_on_c, 0, 68, 0
2, 152539, Note_on_c, 0, 68, 41
2, 152547, Note_on_c, 0, 64, 23
2, 152790, Control_c, 0, 67, 92
2, 152836, Control_c, 0, 67, 92
2, 152884, Note_on_c, 0, 66, 50
2, 152895, Note_on_c, 0, 63, 41
2, 152896, Note_on_c, 0, 64, 0
2, 152926, Note_on_c, 0, 68, 0
2, 153041, Control_c, 0, 67, 93
2, 153087, Control_c, 0, 67, 93
2, 153178, Control_c, 0, 67, 94
2, 153257, Note_on_c, 0, 64, 45
2, 153270, Note_on_c, 0, 66, 0
2, 153272, Note_on_c, 0, 61, 36
2, 153279, Note_on_c, 0, 63, 0
2, 153285, Control_c, 0, 67, 94
2, 153376, Control_c, 0, 67, 96
2, 153392, Control_c, 0, 67, 100
2, 153407, Control_c, 0, 67, 102
2, 153422, Control_c, 0, 67, 102
2, 153452, Control_c, 0, 67, 103
2, 153468, Control_c, 0, 67, 103
2, 153544, Note_on_c, 0, 61, 0
2, 153589, Control_c, 0, 67, 104
2, 153597, Note_on_c, 0, 64, 0
2, 153618, Note_on_c, 0, 60, 39
2, 153624, Note_on_c, 0, 63, 40
2, 153649, Control_c, 0, 67, 104
2, 153665, Control_c, 0, 67, 107
2, 153680, Control_c, 0, 67, 110
2, 153695, Control_c, 0, 67, 112
2, 153711, Control_c, 0, 67, 113
2, 153726, Control_c, 0, 67, 114
2, 153749, Control_c, 0, 67, 115
2, 153764, Control_c, 0, 64, 31
2, 153764, Control_c, 0, 67, 115
2, 153778, Control_c, 0, 64, 63
2, 153794, Control_c, 0, 64, 66
2, 153794, Control_c, 0, 67, 116
2, 153809, Control_c, 0, 64, 69
2, 153809, Control_c, 0, 67, 116
2, 153825, Control_c, 0, 64, 71
2, 153840, Control_c, 0, 64, 75
2, 153854, Control_c, 0, 64, 77
2, 153854, Control_c, 0, 67, 117
2, 153870, Control_c, 0, 64, 80
2, 153885, Control_c, 0, 64, 82
2, 153900, Control_c, 0, 64, 83
2, 153917, Control_c, 0, 64, 84
2, 153917, Control_c, 0, 67, 117
2, 153923, Note_on_c, 0, 60, 0
2, 153932, Control_c, 0, 67, 119
2, 153947, Control_c, 0, 67, 122
2, 153962, Control_c, 0, 67, 124
2, 153973, Note_on_c, 0, 63, 0
2, 153977, Control_c, 0, 67, 126
2, 153991, Note_on_c, 0, 56, 37
2, 153993, Control_c, 0, 64, 84
2, 153993, Control_c, 0, 67, 127
2, 154016, Note_on_c, 0, 54, 0
2, 154022, Control_c, 0, 64, 83
2, 154038, Control_c, 0, 64, 82
2, 154053, Control_c, 0, 64, 81
2, 154068, Control_c, 0, 64, 81
2, 154083, Control_c, 0, 64, 80
2, 154098, Control_c, 0, 64, 78
2, 154114, Control_c, 0, 64, 76
2, 154129, Control_c, 0, 64, 74
2, 154145, Control_c, 0, 64, 72
2, 154148, Note_on_c, 0, 54, 47
2, 154159, Note_on_c, 0, 56, 0
2, 154160, Control_c, 0, 64, 70
2, 154160, Note_on_c, 0, 68, 45
2, 154175, Control_c, 0, 64, 68
2, 154191, Control_c, 0, 64, 65
2, 154206, Control_c, 0, 64, 63
2, 154220, Control_c, 0, 64, 61
2, 154236, Control_c, 0, 64, 54
2, 154251, Control_c, 0, 64, 40
2, 154267, Control_c, 0, 64, 0
2, 154309, Note_on_c, 0, 54, 0
2, 154334, Note_on_c, 0, 68, 0
2, 154335, Note_on_c, 0, 72, 61
2, 154355, Note_on_c, 0, 52, 41
2, 154492, Note_on_c, 0, 52, 0
2, 154499, Note_on_c, 0, 51, 43
2, 154518, Note_on_c, 0, 75, 65
2, 154609, Note_on_c, 0, 72, 0
2, 154678, Note_on_c, 0, 51, 0
2, 154731, Note_on_c, 0, 54, 35
2, 154734, Note_on_c, 0, 80, 63
2, 154754, Note_on_c, 0, 75, 0
2, 154801, Note_on_c, 0, 54, 0
2, 154866, Note_on_c, 0, 52, 21
2, 154932, Note_on_c, 0, 52, 0
2, 154959, Note_on_c, 0, 54, 32
2, 154969, Note_on_c, 0, 78, 58
2, 155009, Note_on_c, 0, 80, 0
2, 155012, Note_on_c, 0, 54, 0
2, 155037, Note_on_c, 0, 52, 28
2, 155098, Note_on_c, 0, 52, 0
2, 155121, Note_on_c, 0, 54, 33
2, 155166, Note_on_c, 0, 54, 0
2, 155173, Note_on_c, 0, 80, 58
2, 155189, Note_on_c, 0, 52, 25
2, 155209, Note_on_c, 0, 78, 0
2, 155247, Note_on_c, 0, 52, 0
2, 155261, Note_on_c, 0, 54, 38
2, 155318, Note_on_c, 0, 80, 0
2, 155322, Note_on_c, 0, 54, 0
2, 155341, Note_on_c, 0, 52, 46
2, 155398, Note_on_c, 0, 52, 0
2, 155422, Note_on_c, 0, 54, 50
2, 155465, Note_on_c, 0, 54, 0
2, 155482, Note_on_c, 0, 52, 42
2, 155494, Note_on_c, 0, 80, 70
2, 155530, Note_on_c, 0, 52, 0
2, 155557, Note_on_c, 0, 54, 45
2, 155593, Note_on_c, 0, 54, 0
2, 155613, Note_on_c, 0, 52, 57
2, 155663, Note_on_c, 0, 52, 0
2, 155683, Note_on_c, 0, 54, 61
2, 155683, Note_on_c, 0, 80, 0
2, 155729, Note_on_c, 0, 54, 0
2, 155746, Note_on_c, 0, 52, 54
2, 155800, Note_on_c, 0, 80, 76
2, 155806, Note_on_c, 0, 52, 0
2, 155821, Note_on_c, 0, 54, 54
2, 155872, Note_on_c, 0, 54, 0
2, 155880, Note_on_c, 0, 52, 54
2, 155947, Note_on_c, 0, 52, 0
2, 155957, Note_on_c, 0, 54, 55
2, 156017, Note_on_c, 0, 54, 0
2, 156021, Note_on_c, 0, 52, 54
2, 156108, Note_on_c, 0, 54, 58
2, 156114, Note_on_c, 0, 52, 0
2, 156155, Note_on_c, 0, 52, 45
2, 156162, Note_on_c, 0, 54, 0
2, 156172, Note_on_c, 0, 80, 0
2, 156236, Note_on_c, 0, 52, 0
2, 156249, Note_on_c, 0, 54, 58
2, 156297, Note_on_c, 0, 54, 0
2, 156303, Note_on_c, 0, 52, 54
2, 156308, Control_c, 0, 67, 120
2, 156324, Control_c, 0, 67, 112
2, 156339, Control_c, 0, 67, 105
2, 156355, Control_c, 0, 67, 100
2, 156371, Control_c, 0, 67, 98
2, 156386, Control_c, 0, 67, 98
2, 156414, Note_on_c, 0, 80, 73
2, 156416, Control_c, 0, 67, 97
2, 156419, Note_on_c, 0, 52, 0
2, 156432, Control_c, 0, 67, 97
2, 156436, Note_on_c, 0, 51, 53
2, 156447, Control_c, 0, 67, 96
2, 156507, Control_c, 0, 67, 95
2, 156522, Control_c, 0, 67, 93
2, 156537, Control_c, 0, 67, 88
2, 156553, Control_c, 0, 67, 83
2, 156568, Control_c, 0, 67, 79
2, 156583, Control_c, 0, 67, 73
2, 156595, Note_on_c, 0, 52, 60
2, 156599, Control_c, 0, 67, 69
2, 156603, Note_on_c, 0, 51, 0
2, 156603, Note_on_c, 0, 80, 0
2, 156628, Control_c, 0, 67, 71
2, 156644, Control_c, 0, 67, 71
2, 156689, Control_c, 0, 67, 72
2, 156720, Control_c, 0, 67, 71
2, 156751, Control_c, 0, 67, 71
2, 156766, Control_c, 0, 67, 70
2, 156779, Note_on_c, 0, 80, 76
2, 156786, Note_on_c, 0, 52, 0
2, 156808, Note_on_c, 0, 51, 48
2, 156818, Control_c, 0, 67, 70
2, 156894, Control_c, 0, 67, 70
2, 156925, Control_c, 0, 67, 71
2, 156970, Control_c, 0, 67, 71
2, 157130, Note_on_c, 0, 81, 72
2, 157153, Control_c, 0, 67, 71
2, 157170, Note_on_c, 0, 51, 0
2, 157181, Note_on_c, 0, 80, 0
2, 157320, Note_on_c, 0, 80, 80
2, 157331, Note_on_c, 0, 63, 60
2, 157355, Note_on_c, 0, 81, 0
2, 157505, Note_on_c, 0, 66, 73
2, 157505, Note_on_c, 0, 78, 83
2, 157533, Control_c, 0, 67, 71
2, 157533, Note_on_c, 0, 63, 0
2, 157552, Note_on_c, 0, 80, 0
2, 157617, Control_c, 0, 67, 71
2, 157661, Note_on_c, 0, 66, 0
2, 157668, Note_on_c, 0, 76, 84
2, 157674, Note_on_c, 0, 70, 68
2, 157675, Control_c, 0, 67, 71
2, 157705, Note_on_c, 0, 78, 0
2, 157721, Control_c, 0, 67, 72
2, 157736, Control_c, 0, 67, 72
2, 157751, Control_c, 0, 67, 73
2, 157767, Control_c, 0, 67, 73
2, 157781, Control_c, 0, 67, 74
2, 157827, Control_c, 0, 67, 75
2, 157843, Control_c, 0, 67, 75
2, 157856, Note_on_c, 0, 78, 75
2, 157857, Note_on_c, 0, 75, 77
2, 157858, Control_c, 0, 67, 76
2, 157861, Note_on_c, 0, 70, 0
2, 157873, Control_c, 0, 67, 77
2, 157873, Note_on_c, 0, 76, 0
2, 157903, Control_c, 0, 67, 77
2, 157934, Control_c, 0, 67, 78
2, 157949, Control_c, 0, 67, 79
2, 157965, Control_c, 0, 67, 82
2, 157979, Control_c, 0, 67, 85
2, 157994, Control_c, 0, 67, 87
2, 158011, Control_c, 0, 67, 88
2, 158026, Control_c, 0, 67, 90
2, 158027, Note_on_c, 0, 73, 79
2, 158027, Note_on_c, 0, 75, 0
2, 158042, Control_c, 0, 67, 93
2, 158056, Control_c, 0, 67, 96
2, 158071, Control_c, 0, 67, 98
2, 158087, Control_c, 0, 67, 99
2, 158102, Control_c, 0, 67, 100
2, 158118, Control_c, 0, 67, 101
2, 158132, Control_c, 0, 67, 102
2, 158147, Control_c, 0, 67, 103
2, 158163, Control_c, 0, 67, 105
2, 158178, Control_c, 0, 67, 107
2, 158193, Control_c, 0, 67, 109
2, 158194, Note_on_c, 0, 73, 0
2, 158201, Note_on_c, 0, 75, 79
2, 158208, Control_c, 0, 67, 111
2, 158223, Control_c, 0, 67, 112
2, 158239, Control_c, 0, 67, 114
2, 158254, Control_c, 0, 67, 116
2, 158269, Control_c, 0, 67, 117
2, 158284, Control_c, 0, 67, 117
2, 158299, Control_c, 0, 67, 118
2, 158311, Note_on_c, 0, 78, 0
2, 158352, Control_c, 0, 67, 118
2, 158378, Note_on_c, 0, 52, 68
2, 158402, Note_on_c, 0, 75, 0
2, 158553, Note_on_c, 0, 51, 75
2, 158554, Note_on_c, 0, 75, 68
2, 158554, Note_on_c, 0, 78, 67
2, 158583, Note_on_c, 0, 52, 0
2, 158732, Note_on_c, 0, 49, 81
2, 158768, Note_on_c, 0, 51, 0
2, 158773, Note_on_c, 0, 75, 0
2, 158809, Note_on_c, 0, 78, 0
2, 158922, Note_on_c, 0, 48, 75
2, 158925, Note_on_c, 0, 78, 68
2, 158928, Note_on_c, 0, 49, 0
2, 158937, Note_on_c, 0, 75, 52
2, 159093, Note_on_c, 0, 49, 76
2, 159130, Note_on_c, 0, 48, 0
2, 159227, Note_on_c, 0, 49, 0
2, 159307, Note_on_c, 0, 51, 58
2, 159430, Note_on_c, 0, 78, 0
2, 159466, Note_on_c, 0, 75, 0
2, 159542, Note_on_c, 0, 51, 0
2, 159622, Control_c, 0, 67, 118
2, 159669, Note_on_c, 0, 75, 44
2, 159673, Note_on_c, 0, 44, 47
2, 159682, Note_on_c, 0, 78, 54
2, 159900, Note_on_c, 0, 78, 0
2, 159914, Note_on_c, 0, 75, 0
2, 159935, Note_on_c, 0, 44, 0
2, 159949, Control_c, 0, 67, 117
2, 160034, Note_on_c, 0, 78, 53
2, 160038, Note_on_c, 0, 75, 46
2, 160056, Note_on_c, 0, 49, 38
2, 160070, Control_c, 0, 67, 117
2, 160283, Control_c, 0, 67, 116
2, 160409, Note_on_c, 0, 76, 52
2, 160415, Note_on_c, 0, 75, 0
2, 160420, Control_c, 0, 67, 116
2, 160511, Control_c, 0, 67, 115
2, 160542, Control_c, 0, 67, 115
2, 160558, Control_c, 0, 67, 114
2, 160573, Control_c, 0, 67, 113
2, 160581, Note_on_c, 0, 75, 63
2, 160585, Note_on_c, 0, 51, 59
2, 160587, Control_c, 0, 67, 112
2, 160594, Note_on_c, 0, 76, 0
2, 160603, Control_c, 0, 67, 111
2, 160617, Control_c, 0, 67, 110
2, 160632, Control_c, 0, 67, 109
2, 160655, Control_c, 0, 67, 108
2, 160670, Control_c, 0, 67, 104
2, 160686, Control_c, 0, 67, 99
2, 160689, Note_on_c, 0, 49, 0
2, 160701, Control_c, 0, 67, 94
2, 160716, Control_c, 0, 67, 89
2, 160732, Control_c, 0, 67, 84
2, 160746, Control_c, 0, 67, 80
2, 160758, Note_on_c, 0, 52, 69
2, 160762, Control_c, 0, 67, 75
2, 160769, Note_on_c, 0, 73, 71
2, 160777, Control_c, 0, 67, 69
2, 160780, Note_on_c, 0, 51, 0
2, 160792, Control_c, 0, 67, 63
2, 160807, Control_c, 0, 67, 57
2, 160820, Note_on_c, 0, 75, 0
2, 160822, Control_c, 0, 67, 50
2, 160838, Control_c, 0, 67, 43
2, 160853, Control_c, 0, 67, 35
2, 160868, Control_c, 0, 67, 27
2, 160883, Control_c, 0, 67, 20
2, 160898, Control_c, 0, 67, 13
2, 160913, Control_c, 0, 67, 8
2, 160915, Note_on_c, 0, 52, 0
2, 160928, Note_on_c, 0, 72, 71
2, 160929, Control_c, 0, 67, 0
2, 160933, Note_on_c, 0, 56, 70
2, 160964, Note_on_c, 0, 73, 0
2, 161085, Note_on_c, 0, 56, 0
2, 161109, Note_on_c, 0, 76, 64
2, 161110, Note_on_c, 0, 61, 60
2, 161110, Note_on_c, 0, 73, 69
2, 161124, Note_on_c, 0, 72, 0
2, 161140, Note_on_c, 0, 78, 0
2, 161266, Note_on_c, 0, 61, 0
2, 161274, Note_on_c, 0, 60, 76
2, 161391, Note_on_c, 0, 60, 0
2, 161471, Note_on_c, 0, 78, 69
2, 161473, Note_on_c, 0, 61, 69
2, 161474, Note_on_c, 0, 76, 0
2, 161478, Note_on_c, 0, 75, 64
2, 161590, Control_c, 0, 67, 9
2, 161606, Control_c, 0, 67, 12
2, 161621, Control_c, 0, 67, 16
2, 161636, Control_c, 0, 67, 18
2, 161652, Control_c, 0, 67, 19
2, 161669, Note_on_c, 0, 78, 0
2, 161698, Control_c, 0, 67, 20
2, 161728, Control_c, 0, 67, 20
2, 161738, Note_on_c, 0, 61, 0
2, 161773, Control_c, 0, 67, 21
2, 161788, Control_c, 0, 67, 21
2, 161804, Control_c, 0, 67, 23
2, 161819, Control_c, 0, 67, 26
2, 161829, Note_on_c, 0, 61, 74
2, 161829, Note_on_c, 0, 80, 78
2, 161834, Control_c, 0, 67, 28
2, 161836, Note_on_c, 0, 76, 62
2, 161849, Control_c, 0, 67, 30
2, 161864, Control_c, 0, 67, 32
2, 161880, Control_c, 0, 67, 34
2, 161895, Control_c, 0, 67, 37
2, 161896, Note_on_c, 0, 73, 0
2, 161910, Control_c, 0, 67, 39
2, 161925, Control_c, 0, 67, 41
2, 161930, Note_on_c, 0, 75, 0
2, 161940, Control_c, 0, 67, 43
2, 161955, Control_c, 0, 67, 45
2, 161970, Control_c, 0, 67, 46
2, 161985, Control_c, 0, 67, 47
2, 162001, Control_c, 0, 67, 48
2, 162016, Control_c, 0, 67, 50
2, 162031, Control_c, 0, 67, 51
2, 162047, Control_c, 0, 67, 52
2, 162061, Control_c, 0, 67, 53
2, 162076, Control_c, 0, 67, 53
2, 162090, Note_on_c, 0, 61, 0
2, 162108, Control_c, 0, 67, 54
2, 162124, Control_c, 0, 67, 55
2, 162139, Control_c, 0, 67, 56
2, 162153, Control_c, 0, 67, 57
2, 162169, Control_c, 0, 67, 58
2, 162186, Note_on_c, 0, 73, 65
2, 162191, Note_on_c, 0, 61, 65
2, 162192, Control_c, 0, 67, 60
2, 162192, Note_on_c, 0, 70, 56
2, 162208, Control_c, 0, 67, 62
2, 162222, Control_c, 0, 67, 66
2, 162238, Control_c, 0, 67, 69
2, 162253, Control_c, 0, 67, 72
2, 162268, Control_c, 0, 67, 74
2, 162279, Note_on_c, 0, 76, 0
2, 162284, Control_c, 0, 67, 74
2, 162344, Control_c, 0, 67, 74
2, 162359, Note_on_c, 0, 70, 0
2, 162398, Note_on_c, 0, 80, 0
2, 162547, Note_on_c, 0, 75, 66
2, 162550, Note_on_c, 0, 71, 49
2, 162587, Note_on_c, 0, 73, 0
2, 162759, Note_on_c, 0, 61, 0
2, 162800, Control_c, 0, 67, 74
2, 162892, Note_on_c, 0, 61, 61
2, 162898, Note_on_c, 0, 76, 53
2, 162924, Note_on_c, 0, 73, 42
2, 162942, Note_on_c, 0, 71, 0
2, 162961, Control_c, 0, 67, 75
2, 163019, Note_on_c, 0, 75, 0
2, 163021, Control_c, 0, 67, 75
2, 163054, Note_on_c, 0, 76, 0
2, 163066, Control_c, 0, 67, 76
2, 163076, Note_on_c, 0, 73, 0
2, 163082, Control_c, 0, 67, 77
2, 163097, Control_c, 0, 67, 79
2, 163112, Control_c, 0, 67, 81
2, 163127, Control_c, 0, 67, 82
2, 163134, Note_on_c, 0, 61, 0
2, 163142, Control_c, 0, 67, 82
2, 163158, Control_c, 0, 67, 83
2, 163173, Control_c, 0, 67, 83
2, 163262, Note_on_c, 0, 61, 61
2, 163278, Note_on_c, 0, 68, 40
2, 163283, Note_on_c, 0, 71, 60
2, 163339, Control_c, 0, 67, 84
2, 163447, Control_c, 0, 67, 83
2, 163523, Control_c, 0, 67, 83
2, 163611, Note_on_c, 0, 70, 59
2, 163632, Note_on_c, 0, 63, 54
2, 163641, Note_on_c, 0, 68, 0
2, 163643, Note_on_c, 0, 61, 0
2, 163657, Note_on_c, 0, 67, 42
2, 163658, Control_c, 0, 67, 82
2, 163665, Note_on_c, 0, 71, 0
2, 163704, Control_c, 0, 67, 82
2, 163744, Note_on_c, 0, 63, 0
2, 163749, Note_on_c, 0, 67, 0
2, 163781, Note_on_c, 0, 61, 66
2, 163883, Note_on_c, 0, 61, 0
2, 163941, Note_on_c, 0, 59, 64
2, 163942, Note_on_c, 0, 63, 77
2, 163961, Note_on_c, 0, 70, 0
2, 164006, Note_on_c, 0, 59, 0
2, 164047, Control_c, 0, 67, 82
2, 164084, Note_on_c, 0, 58, 60
2, 164123, Control_c, 0, 67, 83
2, 164183, Note_on_c, 0, 58, 0
2, 164244, Note_on_c, 0, 63, 0
2, 164271, Note_on_c, 0, 75, 82
2, 164281, Note_on_c, 0, 59, 52
2, 164336, Control_c, 0, 67, 82
2, 164428, Note_on_c, 0, 73, 76
2, 164461, Note_on_c, 0, 75, 0
2, 164464, Note_on_c, 0, 59, 0
2, 164547, Note_on_c, 0, 73, 0
2, 164588, Control_c, 0, 67, 82
2, 164611, Note_on_c, 0, 75, 69
2, 164645, Note_on_c, 0, 59, 41
2, 164709, Control_c, 0, 67, 81
2, 164781, Note_on_c, 0, 58, 52
2, 164800, Note_on_c, 0, 59, 0
2, 164895, Note_on_c, 0, 58, 0
2, 164907, Control_c, 0, 67, 82
2, 164946, Note_on_c, 0, 63, 77
2, 164968, Note_on_c, 0, 59, 47
2, 164983, Control_c, 0, 67, 82
2, 165058, Note_on_c, 0, 59, 0
2, 165064, Note_on_c, 0, 63, 0
2, 165348, Note_on_c, 0, 59, 40
2, 165348, Note_on_c, 0, 68, 71
2, 165379, Note_on_c, 0, 59, 0
2, 165394, Note_on_c, 0, 58, 58
2, 165401, Control_c, 0, 67, 82
2, 165449, Note_on_c, 0, 58, 0
2, 165478, Note_on_c, 0, 59, 56
2, 165492, Control_c, 0, 67, 81
2, 165553, Control_c, 0, 67, 81
2, 165569, Control_c, 0, 67, 80
2, 165614, Control_c, 0, 67, 80
2, 165642, Note_on_c, 0, 75, 0
2, 165705, Control_c, 0, 67, 80
2, 165735, Control_c, 0, 67, 81
2, 165766, Control_c, 0, 67, 81
2, 165831, Note_on_c, 0, 59, 0
2, 165857, Control_c, 0, 67, 82
2, 165859, Note_on_c, 0, 75, 78
2, 165902, Control_c, 0, 67, 82
2, 166055, Note_on_c, 0, 77, 78
2, 166061, Note_on_c, 0, 59, 50
2, 166078, Note_on_c, 0, 75, 0
2, 166107, Control_c, 0, 67, 83
2, 166122, Control_c, 0, 67, 83
2, 166185, Note_on_c, 0, 68, 0
2, 166208, Note_on_c, 0, 78, 80
2, 166228, Note_on_c, 0, 59, 0
2, 166240, Note_on_c, 0, 77, 0
2, 166364, Note_on_c, 0, 78, 0
2, 166378, Note_on_c, 0, 77, 72
2, 166387, Note_on_c, 0, 59, 50
2, 166441, Note_on_c, 0, 77, 0
2, 166449, Note_on_c, 0, 78, 68
2, 166515, Note_on_c, 0, 77, 69
2, 166515, Note_on_c, 0, 78, 0
2, 166574, Note_on_c, 0, 77, 0
2, 166580, Note_on_c, 0, 78, 69
2, 166629, Note_on_c, 0, 78, 0
2, 166648, Note_on_c, 0, 77, 63
2, 166662, Note_on_c, 0, 59, 0
2, 166697, Note_on_c, 0, 78, 72
2, 166699, Note_on_c, 0, 77, 0
2, 166708, Note_on_c, 0, 61, 47
2, 166750, Note_on_c, 0, 78, 0
2, 166765, Note_on_c, 0, 77, 66
2, 166791, Note_on_c, 0, 61, 0
2, 166824, Note_on_c, 0, 78, 72
2, 166825, Note_on_c, 0, 77, 0
2, 166866, Note_on_c, 0, 59, 42
2, 166886, Note_on_c, 0, 78, 0
2, 166892, Note_on_c, 0, 77, 69
2, 166941, Note_on_c, 0, 78, 66
2, 166945, Note_on_c, 0, 77, 0
2, 167002, Note_on_c, 0, 78, 0
2, 167011, Note_on_c, 0, 77, 70
2, 167017, Note_on_c, 0, 59, 0
2, 167028, Note_on_c, 0, 57, 50
2, 167050, Note_on_c, 0, 78, 62
2, 167051, Note_on_c, 0, 77, 0
2, 167106, Note_on_c, 0, 78, 0
2, 167119, Note_on_c, 0, 77, 67
2, 167166, Note_on_c, 0, 57, 0
2, 167167, Note_on_c, 0, 77, 0
2, 167178, Note_on_c, 0, 75, 64
2, 167204, Note_on_c, 0, 56, 47
2, 167259, Note_on_c, 0, 75, 0
2, 167265, Note_on_c, 0, 77, 66
2, 167330, Note_on_c, 0, 77, 0
2, 167360, Note_on_c, 0, 56, 0
2, 167374, Note_on_c, 0, 78, 66
2, 167398, Note_on_c, 0, 57, 42
2, 167406, Note_on_c, 0, 61, 25
2, 167535, Note_on_c, 0, 57, 0
2, 167564, Note_on_c, 0, 54, 54
2, 167567, Note_on_c, 0, 61, 0
2, 167644, Control_c, 0, 67, 83
2, 167659, Control_c, 0, 67, 82
2, 167674, Control_c, 0, 67, 82
2, 167689, Control_c, 0, 67, 81
2, 167704, Control_c, 0, 67, 80
2, 167721, Note_on_c, 0, 56, 62
2, 167727, Note_on_c, 0, 54, 0
2, 167734, Control_c, 0, 67, 80
2, 167765, Control_c, 0, 67, 80
2, 167795, Control_c, 0, 67, 81
2, 167825, Control_c, 0, 67, 82
2, 167857, Control_c, 0, 67, 82
2, 167880, Note_on_c, 0, 76, 75
2, 167883, Note_on_c, 0, 56, 0
2, 167886, Note_on_c, 0, 57, 62
2, 167903, Control_c, 0, 67, 83
2, 167918, Control_c, 0, 67, 83
2, 167923, Note_on_c, 0, 78, 0
2, 168040, Control_c, 0, 67, 83
2, 168045, Note_on_c, 0, 57, 0
2, 168048, Note_on_c, 0, 74, 82
2, 168064, Note_on_c, 0, 59, 69
2, 168103, Note_on_c, 0, 76, 0
2, 168208, Note_on_c, 0, 59, 0
2, 168212, Note_on_c, 0, 61, 65
2, 168216, Note_on_c, 0, 73, 79
2, 168261, Note_on_c, 0, 74, 0
2, 168267, Control_c, 0, 67, 82
2, 168298, Control_c, 0, 67, 81
2, 168313, Control_c, 0, 67, 81
2, 168336, Control_c, 0, 67, 80
2, 168351, Control_c, 0, 67, 80
2, 168367, Control_c, 0, 67, 79
2, 168381, Control_c, 0, 67, 78
2, 168396, Control_c, 0, 67, 78
2, 168399, Note_on_c, 0, 71, 76
2, 168412, Control_c, 0, 67, 77
2, 168419, Note_on_c, 0, 62, 67
2, 168422, Note_on_c, 0, 61, 0
2, 168427, Control_c, 0, 67, 77
2, 168443, Control_c, 0, 67, 76
2, 168443, Note_on_c, 0, 73, 0
2, 168458, Control_c, 0, 67, 76
2, 168472, Control_c, 0, 67, 75
2, 168488, Control_c, 0, 67, 75
2, 168503, Control_c, 0, 67, 73
2, 168519, Control_c, 0, 67, 72
2, 168534, Control_c, 0, 67, 67
2, 168549, Control_c, 0, 67, 59
2, 168564, Note_on_c, 0, 61, 70
2, 168565, Control_c, 0, 67, 51
2, 168573, Note_on_c, 0, 62, 0
2, 168579, Control_c, 0, 67, 43
2, 168594, Control_c, 0, 67, 34
2, 168610, Control_c, 0, 67, 26
2, 168625, Control_c, 0, 67, 15
2, 168641, Control_c, 0, 67, 0
2, 168711, Note_on_c, 0, 61, 0
2, 168742, Note_on_c, 0, 62, 75
2, 168898, Note_on_c, 0, 69, 79
2, 168899, Control_c, 0, 67, 10
2, 168914, Control_c, 0, 67, 12
2, 168930, Control_c, 0, 67, 13
2, 168944, Control_c, 0, 67, 15
2, 168945, Note_on_c, 0, 71, 0
2, 168947, Note_on_c, 0, 62, 0
2, 168960, Control_c, 0, 67, 17
2, 168975, Control_c, 0, 67, 21
2, 168990, Control_c, 0, 67, 25
2, 169006, Control_c, 0, 67, 31
2, 169020, Control_c, 0, 67, 37
2, 169035, Control_c, 0, 67, 42
2, 169051, Control_c, 0, 67, 46
2, 169066, Control_c, 0, 67, 50
2, 169066, Note_on_c, 0, 68, 77
2, 169075, Note_on_c, 0, 59, 62
2, 169082, Control_c, 0, 67, 52
2, 169103, Control_c, 0, 67, 54
2, 169114, Note_on_c, 0, 69, 0
2, 169119, Control_c, 0, 67, 56
2, 169134, Control_c, 0, 67, 58
2, 169149, Control_c, 0, 67, 60
2, 169164, Control_c, 0, 67, 63
2, 169179, Control_c, 0, 67, 66
2, 169194, Control_c, 0, 67, 69
2, 169210, Control_c, 0, 67, 75
2, 169225, Control_c, 0, 67, 81
2, 169236, Note_on_c, 0, 66, 88
2, 169241, Control_c, 0, 67, 88
2, 169242, Note_on_c, 0, 59, 0
2, 169256, Control_c, 0, 67, 93
2, 169270, Control_c, 0, 67, 100
2, 169286, Control_c, 0, 67, 106
2, 169300, Note_on_c, 0, 68, 0
2, 169301, Control_c, 0, 67, 111
2, 169316, Control_c, 0, 67, 115
2, 169332, Control_c, 0, 67, 116
2, 169346, Control_c, 0, 67, 117
2, 169362, Control_c, 0, 67, 118
2, 169377, Control_c, 0, 67, 118
2, 169440, Note_on_c, 0, 68, 83
2, 169480, Note_on_c, 0, 54, 48
2, 169485, Control_c, 0, 67, 119
2, 169501, Note_on_c, 0, 66, 0
2, 169530, Control_c, 0, 67, 119
2, 169575, Control_c, 0, 67, 120
2, 169606, Control_c, 0, 67, 120
2, 169621, Control_c, 0, 67, 121
2, 169636, Control_c, 0, 67, 122
2, 169651, Control_c, 0, 67, 123
2, 169666, Control_c, 0, 67, 124
2, 169682, Control_c, 0, 67, 126
2, 169697, Control_c, 0, 67, 127
2, 169788, Note_on_c, 0, 53, 55
2, 169885, Note_on_c, 0, 54, 0
2, 169890, Note_on_c, 0, 53, 0
2, 169943, Note_on_c, 0, 49, 59
2, 170045, Note_on_c, 0, 49, 0
2, 170115, Note_on_c, 0, 73, 79
2, 170126, Note_on_c, 0, 51, 48
2, 170154, Note_on_c, 0, 68, 0
2, 170230, Note_on_c, 0, 51, 0
2, 170274, Note_on_c, 0, 53, 59
2, 170391, Note_on_c, 0, 53, 0
2, 170471, Note_on_c, 0, 71, 73
2, 170493, Note_on_c, 0, 54, 47
2, 170531, Note_on_c, 0, 73, 0
2, 170811, Note_on_c, 0, 57, 52
2, 170824, Note_on_c, 0, 54, 0
2, 170891, Note_on_c, 0, 57, 0
2, 170974, Note_on_c, 0, 56, 59
2, 171044, Note_on_c, 0, 56, 0
2, 171134, Note_on_c, 0, 54, 53
2, 171199, Note_on_c, 0, 54, 0
2, 171296, Note_on_c, 0, 52, 53
2, 171369, Note_on_c, 0, 52, 0
2, 171500, Note_on_c, 0, 66, 29
2, 171500, Note_on_c, 0, 69, 47
2, 171506, Note_on_c, 0, 71, 0
2, 171514, Note_on_c, 0, 51, 38
2, 171586, Note_on_c, 0, 69, 0
2, 171598, Note_on_c, 0, 71, 49
2, 171661, Note_on_c, 0, 71, 0
2, 171678, Note_on_c, 0, 69, 45
2, 171724, Note_on_c, 0, 69, 0
2, 171734, Note_on_c, 0, 71, 47
2, 171790, Note_on_c, 0, 71, 0
2, 171810, Note_on_c, 0, 69, 56
2, 171839, Note_on_c, 0, 51, 0
2, 171853, Note_on_c, 0, 69, 0
2, 171854, Note_on_c, 0, 52, 17
2, 171869, Note_on_c, 0, 71, 48
2, 171919, Note_on_c, 0, 52, 0
2, 171931, Note_on_c, 0, 71, 0
2, 171946, Note_on_c, 0, 69, 48
2, 171999, Note_on_c, 0, 69, 0
2, 172024, Note_on_c, 0, 71, 36
2, 172078, Note_on_c, 0, 69, 40
2, 172081, Note_on_c, 0, 71, 0
2, 172098, Note_on_c, 0, 66, 0
2, 172130, Note_on_c, 0, 49, 33
2, 172234, Note_on_c, 0, 49, 0
2, 172240, Note_on_c, 0, 69, 0
2, 172252, Note_on_c, 0, 68, 41
2, 172299, Note_on_c, 0, 68, 0
2, 172328, Note_on_c, 0, 69, 39
2, 172403, Note_on_c, 0, 69, 0
2, 172407, Note_on_c, 0, 68, 54
2, 172432, Note_on_c, 0, 48, 26
2, 172579, Note_on_c, 0, 49, 42
2, 172582, Note_on_c, 0, 48, 0
2, 172652, Note_on_c, 0, 49, 0
2, 172768, Note_on_c, 0, 51, 34
2, 172882, Note_on_c, 0, 68, 0
2, 172887, Note_on_c, 0, 51, 0
2, 173159, Note_on_c, 0, 68, 47
2, 173169, Note_on_c, 0, 44, 34
2, 173255, Note_on_c, 0, 68, 0
2, 173289, Note_on_c, 0, 44, 0
2, 173431, Note_on_c, 0, 66, 53
2, 173476, Note_on_c, 0, 66, 0
2, 173488, Note_on_c, 0, 64, 49
2, 173493, Note_on_c, 0, 49, 31
2, 173514, Note_on_c, 0, 64, 0
2, 173543, Note_on_c, 0, 66, 48
2, 173589, Note_on_c, 0, 64, 47
2, 173591, Note_on_c, 0, 66, 0
2, 173758, Note_on_c, 0, 49, 0
2, 173795, Note_on_c, 0, 52, 44
2, 173832, Control_c, 0, 67, 126
2, 173848, Control_c, 0, 67, 118
2, 173863, Control_c, 0, 67, 108
2, 173876, Control_c, 0, 67, 98
2, 173888, Note_on_c, 0, 52, 0
2, 173892, Control_c, 0, 67, 89
2, 173906, Control_c, 0, 67, 82
2, 173921, Control_c, 0, 67, 77
2, 173937, Control_c, 0, 67, 72
2, 173952, Control_c, 0, 67, 67
2, 173968, Control_c, 0, 67, 63
2, 173983, Control_c, 0, 67, 58
2, 173998, Control_c, 0, 67, 50
2, 174013, Control_c, 0, 67, 41
2, 174028, Control_c, 0, 67, 31
2, 174043, Control_c, 0, 67, 21
2, 174058, Control_c, 0, 67, 13
2, 174073, Control_c, 0, 67, 0
2, 174139, Note_on_c, 0, 68, 51
2, 174154, Note_on_c, 0, 51, 35
2, 174230, Note_on_c, 0, 51, 0
2, 174258, Note_on_c, 0, 68, 0
2, 174494, Note_on_c, 0, 73, 65
2, 174528, Note_on_c, 0, 52, 28
2, 174825, Note_on_c, 0, 63, 71
2, 174840, Note_on_c, 0, 54, 37
2, 174846, Note_on_c, 0, 52, 0
2, 174885, Note_on_c, 0, 64, 0
2, 174938, Note_on_c, 0, 54, 0
2, 175157, Note_on_c, 0, 64, 68
2, 175174, Note_on_c, 0, 56, 44
2, 175221, Note_on_c, 0, 63, 0
2, 175295, Note_on_c, 0, 56, 0
2, 175414, Note_on_c, 0, 64, 0
2, 175514, Note_on_c, 0, 64, 74
2, 175515, Note_on_c, 0, 57, 52
2, 175860, Note_on_c, 0, 63, 70
2, 175869, Note_on_c, 0, 59, 55
2, 175891, Note_on_c, 0, 64, 0
2, 175937, Note_on_c, 0, 57, 0
2, 176002, Note_on_c, 0, 59, 0
2, 176221, Note_on_c, 0, 56, 61
2, 176287, Control_c, 0, 67, 8
2, 176302, Control_c, 0, 67, 9
2, 176316, Control_c, 0, 67, 9
2, 176347, Control_c, 0, 67, 10
2, 176371, Note_on_c, 0, 56, 0
2, 176423, Control_c, 0, 67, 9
2, 176468, Control_c, 0, 67, 10
2, 176576, Note_on_c, 0, 72, 81
2, 176582, Note_on_c, 0, 54, 57
2, 176631, Note_on_c, 0, 73, 0
2, 176636, Control_c, 0, 67, 9
2, 176681, Control_c, 0, 67, 9
2, 176727, Control_c, 0, 67, 8
2, 176826, Control_c, 0, 67, 9
2, 176857, Control_c, 0, 67, 9
2, 176903, Control_c, 0, 67, 10
2, 176934, Control_c, 0, 67, 10
2, 176951, Note_on_c, 0, 56, 65
2, 176965, Note_on_c, 0, 54, 0
2, 176994, Control_c, 0, 67, 11
2, 177139, Note_on_c, 0, 56, 0
2, 177160, Control_c, 0, 67, 12
2, 177176, Control_c, 0, 67, 14
2, 177191, Control_c, 0, 67, 18
2, 177207, Control_c, 0, 67, 21
2, 177222, Control_c, 0, 67, 23
2, 177232, Note_on_c, 0, 63, 0
2, 177252, Control_c, 0, 67, 23
2, 177298, Control_c, 0, 67, 24
2, 177308, Note_on_c, 0, 73, 78
2, 177321, Note_on_c, 0, 52, 67
2, 177327, Note_on_c, 0, 64, 67
2, 177343, Control_c, 0, 67, 25
2, 177356, Note_on_c, 0, 72, 0
2, 177358, Control_c, 0, 67, 26
2, 177374, Control_c, 0, 67, 27
2, 177389, Control_c, 0, 67, 28
2, 177405, Control_c, 0, 67, 29
2, 177420, Control_c, 0, 67, 31
2, 177434, Control_c, 0, 67, 32
2, 177451, Note_on_c, 0, 64, 0
2, 177483, Note_on_c, 0, 52, 0
2, 177495, Control_c, 0, 67, 33
2, 177496, Note_on_c, 0, 73, 0
2, 177646, Note_on_c, 0, 75, 68
2, 177655, Note_on_c, 0, 66, 71
2, 177671, Note_on_c, 0, 51, 70
2, 177732, Note_on_c, 0, 64, 73
2, 177732, Note_on_c, 0, 66, 0
2, 177819, Note_on_c, 0, 51, 0
2, 177826, Note_on_c, 0, 66, 74
2, 177829, Note_on_c, 0, 52, 73
2, 177837, Note_on_c, 0, 64, 0
2, 177899, Control_c, 0, 67, 32
2, 177944, Control_c, 0, 67, 32
2, 177975, Control_c, 0, 67, 31
2, 178003, Note_on_c, 0, 54, 79
2, 178007, Note_on_c, 0, 52, 0
2, 178051, Control_c, 0, 67, 31
2, 178080, Control_c, 0, 67, 30
2, 178096, Control_c, 0, 67, 29
2, 178111, Control_c, 0, 67, 27
2, 178126, Control_c, 0, 67, 26
2, 178141, Control_c, 0, 67, 24
2, 178156, Control_c, 0, 67, 21
2, 178172, Control_c, 0, 67, 16
2, 178176, Note_on_c, 0, 54, 0
2, 178187, Control_c, 0, 67, 9
2, 178202, Control_c, 0, 67, 0
2, 178407, Note_on_c, 0, 51, 76
2, 178622, Note_on_c, 0, 51, 0
2, 178698, Control_c, 0, 67, 9
2, 178712, Control_c, 0, 67, 9
2, 178728, Control_c, 0, 67, 10
2, 178758, Control_c, 0, 67, 11
2, 178835, Control_c, 0, 67, 10
2, 178862, Note_on_c, 0, 44, 70
2, 178971, Control_c, 0, 67, 10
2, 178986, Control_c, 0, 67, 9
2, 179001, Control_c, 0, 67, 9
2, 179017, Control_c, 0, 67, 8
2, 179032, Control_c, 0, 67, 0
2, 179176, Control_c, 0, 67, 8
2, 179191, Control_c, 0, 67, 8
2, 179248, Note_on_c, 0, 69, 77
2, 179252, Control_c, 0, 67, 9
2, 179282, Control_c, 0, 67, 9
2, 179295, Note_on_c, 0, 66, 0
2, 179557, Control_c, 0, 67, 9
2, 179587, Note_on_c, 0, 76, 84
2, 179602, Control_c, 0, 67, 8
2, 179602, Note_on_c, 0, 68, 68
2, 179619, Note_on_c, 0, 69, 0
2, 179633, Control_c, 0, 67, 8
2, 179649, Control_c, 0, 67, 0
2, 179677, Note_on_c, 0, 75, 0
2, 179829, Control_c, 0, 67, 8
2, 179853, Control_c, 0, 67, 8
2, 179870, Note_on_c, 0, 76, 0
2, 179873, Note_on_c, 0, 68, 0
2, 179954, Note_on_c, 0, 76, 91
2, 179976, Note_on_c, 0, 68, 72
2, 180019, Control_c, 0, 67, 9
2, 180050, Control_c, 0, 67, 9
2, 180095, Control_c, 0, 67, 10
2, 180110, Control_c, 0, 67, 10
2, 180142, Control_c, 0, 67, 11
2, 180157, Control_c, 0, 67, 11
2, 180172, Control_c, 0, 67, 12
2, 180187, Control_c, 0, 67, 13
2, 180202, Control_c, 0, 67, 14
2, 180218, Control_c, 0, 67, 16
2, 180233, Control_c, 0, 67, 18
2, 180248, Control_c, 0, 67, 19
2, 180260, Note_on_c, 0, 68, 0
2, 180263, Control_c, 0, 67, 20
2, 180278, Control_c, 0, 67, 22
2, 180294, Control_c, 0, 67, 23
2, 180309, Control_c, 0, 67, 24
2, 180311, Note_on_c, 0, 78, 74
2, 180323, Control_c, 0, 67, 25
2, 180330, Note_on_c, 0, 44, 0
2, 180335, Note_on_c, 0, 69, 62
2, 180339, Control_c, 0, 67, 26
2, 180345, Note_on_c, 0, 76, 0
2, 180354, Control_c, 0, 67, 27
2, 180370, Control_c, 0, 67, 27
2, 180385, Control_c, 0, 67, 28
2, 180400, Control_c, 0, 67, 29
2, 180416, Control_c, 0, 67, 29
2, 180431, Control_c, 0, 67, 30
2, 180461, Control_c, 0, 67, 31
2, 180476, Control_c, 0, 67, 31
2, 180492, Control_c, 0, 67, 32
2, 180507, Control_c, 0, 67, 33
2, 180522, Control_c, 0, 67, 34
2, 180537, Control_c, 0, 67, 35
2, 180552, Control_c, 0, 67, 35
2, 180568, Control_c, 0, 67, 38
2, 180582, Control_c, 0, 67, 43
2, 180597, Control_c, 0, 67, 48
2, 180621, Control_c, 0, 67, 54
2, 180635, Control_c, 0, 67, 58
2, 180651, Control_c, 0, 67, 61
2, 180663, Note_on_c, 0, 60, 72
2, 180666, Control_c, 0, 67, 63
2, 180681, Control_c, 0, 67, 63
2, 180757, Control_c, 0, 67, 63
2, 180802, Control_c, 0, 67, 62
2, 180812, Note_on_c, 0, 60, 0
2, 180941, Control_c, 0, 67, 62
2, 181019, Note_on_c, 0, 60, 65
2, 181077, Control_c, 0, 67, 62
2, 181183, Control_c, 0, 67, 63
2, 181274, Control_c, 0, 67, 62
2, 181305, Control_c, 0, 67, 62
2, 181320, Control_c, 0, 67, 61
2, 181332, Note_on_c, 0, 69, 0
2, 181356, Note_on_c, 0, 61, 51
2, 181404, Control_c, 0, 67, 61
2, 181418, Note_on_c, 0, 60, 0
2, 181450, Control_c, 0, 67, 60
2, 181526, Control_c, 0, 67, 60
2, 181678, Control_c, 0, 67, 59
2, 181709, Control_c, 0, 67, 59
2, 181712, Note_on_c, 0, 75, 59
2, 181715, Note_on_c, 0, 66, 48
2, 181779, Note_on_c, 0, 78, 0
2, 181876, Control_c, 0, 67, 58
2, 181907, Control_c, 0, 67, 58
2, 181907, Note_on_c, 0, 75, 0
2, 181937, Note_on_c, 0, 66, 0
2, 182074, Note_on_c, 0, 76, 60
2, 182090, Note_on_c, 0, 68, 45
2, 182264, Control_c, 0, 67, 57
2, 182409, Note_on_c, 0, 59, 53
2, 182452, Note_on_c, 0, 61, 0
2, 182629, Control_c, 0, 67, 58
2, 182638, Note_on_c, 0, 59, 0
2, 182769, Note_on_c, 0, 69, 54
2, 182772, Note_on_c, 0, 68, 0
2, 182781, Note_on_c, 0, 57, 45
2, 182888, Control_c, 0, 67, 58
2, 182926, Control_c, 0, 67, 59
2, 182990, Note_on_c, 0, 57, 0
2, 183149, Note_on_c, 0, 77, 74
2, 183156, Note_on_c, 0, 69, 0
2, 183174, Note_on_c, 0, 56, 38
2, 183184, Control_c, 0, 67, 59
2, 183185, Note_on_c, 0, 71, 44
2, 183192, Note_on_c, 0, 76, 0
2, 183259, Control_c, 0, 67, 60
2, 183413, Control_c, 0, 67, 59
2, 183486, Note_on_c, 0, 69, 61
2, 183540, Note_on_c, 0, 71, 0
2, 183549, Control_c, 0, 67, 60
2, 183576, Note_on_c, 0, 69, 0
2, 183595, Control_c, 0, 67, 60
2, 183623, Note_on_c, 0, 56, 0
2, 183625, Control_c, 0, 67, 61
2, 183656, Control_c, 0, 67, 61
2, 183671, Control_c, 0, 67, 62
2, 183693, Control_c, 0, 67, 62
2, 183708, Control_c, 0, 67, 64
2, 183723, Control_c, 0, 67, 65
2, 183739, Control_c, 0, 67, 71
2, 183754, Control_c, 0, 67, 79
2, 183770, Control_c, 0, 67, 86
2, 183785, Control_c, 0, 67, 90
2, 183800, Control_c, 0, 67, 92
2, 183816, Control_c, 0, 67, 93
2, 183830, Control_c, 0, 67, 94
2, 183851, Note_on_c, 0, 68, 43
2, 183873, Note_on_c, 0, 61, 35
2, 183876, Control_c, 0, 67, 95
2, 183906, Control_c, 0, 67, 95
2, 183921, Control_c, 0, 67, 97
2, 183937, Control_c, 0, 67, 100
2, 183952, Control_c, 0, 67, 103
2, 183967, Control_c, 0, 64, 58
2, 183967, Control_c, 0, 67, 106
2, 183982, Control_c, 0, 64, 63
2, 183982, Control_c, 0, 67, 109
2, 183988, Note_on_c, 0, 61, 0
2, 183989, Note_on_c, 0, 77, 0
2, 183992, Note_on_c, 0, 68, 0
2, 183997, Control_c, 0, 64, 63
2, 183997, Control_c, 0, 67, 112
2, 184012, Control_c, 0, 64, 63
2, 184012, Control_c, 0, 67, 117
2, 184027, Control_c, 0, 64, 61
2, 184027, Control_c, 0, 67, 121
2, 184042, Control_c, 0, 64, 59
2, 184042, Control_c, 0, 67, 124
2, 184058, Control_c, 0, 64, 52
2, 184058, Control_c, 0, 67, 127
2, 184073, Control_c, 0, 64, 41
2, 184088, Control_c, 0, 64, 0
2, 184212, Note_on_c, 0, 78, 55
2, 184237, Note_on_c, 0, 70, 38
2, 184238, Note_on_c, 0, 56, 37
2, 184308, Note_on_c, 0, 56, 0
2, 184352, Note_on_c, 0, 54, 38
2, 184393, Note_on_c, 0, 54, 0
2, 184424, Note_on_c, 0, 56, 35
2, 184497, Note_on_c, 0, 56, 0
2, 184531, Note_on_c, 0, 54, 36
2, 184564, Note_on_c, 0, 54, 0
2, 184570, Note_on_c, 0, 73, 48
2, 184585, Note_on_c, 0, 56, 28
2, 184639, Note_on_c, 0, 70, 0
2, 184646, Note_on_c, 0, 56, 0
2, 184676, Note_on_c, 0, 54, 46
2, 184706, Note_on_c, 0, 73, 0
2, 184720, Note_on_c, 0, 54, 0
2, 184735, Note_on_c, 0, 56, 41
2, 184782, Note_on_c, 0, 56, 0
2, 184818, Note_on_c, 0, 54, 43
2, 184855, Note_on_c, 0, 54, 0
2, 184873, Note_on_c, 0, 56, 46
2, 184901, Note_on_c, 0, 72, 64
2, 184904, Note_on_c, 0, 56, 0
2, 184919, Note_on_c, 0, 54, 35
2, 184983, Note_on_c, 0, 54, 0
2, 184995, Note_on_c, 0, 53, 53
2, 185023, Control_c, 0, 67, 127
2, 185039, Control_c, 0, 67, 123
2, 185055, Control_c, 0, 67, 117
2, 185070, Control_c, 0, 67, 112
2, 185083, Note_on_c, 0, 78, 0
2, 185086, Control_c, 0, 67, 107
2, 185100, Control_c, 0, 67, 103
2, 185106, Note_on_c, 0, 53, 0
2, 185108, Note_on_c, 0, 54, 48
2, 185115, Control_c, 0, 67, 99
2, 185118, Note_on_c, 0, 72, 0
2, 185131, Control_c, 0, 67, 93
2, 185146, Control_c, 0, 67, 87
2, 185160, Control_c, 0, 67, 78
2, 185176, Control_c, 0, 67, 71
2, 185191, Control_c, 0, 67, 67
2, 185207, Control_c, 0, 67, 65
2, 185229, Control_c, 0, 67, 64
2, 185244, Control_c, 0, 67, 60
2, 185249, Note_on_c, 0, 76, 69
2, 185259, Control_c, 0, 67, 54
2, 185259, Note_on_c, 0, 73, 56
2, 185264, Note_on_c, 0, 54, 0
2, 185274, Control_c, 0, 67, 47
2, 185276, Note_on_c, 0, 56, 55
2, 185290, Control_c, 0, 67, 41
2, 185304, Control_c, 0, 67, 36
2, 185319, Control_c, 0, 67, 30
2, 185335, Control_c, 0, 67, 22
2, 185350, Control_c, 0, 67, 15
2, 185351, Note_on_c, 0, 56, 0
2, 185366, Control_c, 0, 67, 0
2, 185387, Note_on_c, 0, 55, 53
2, 185465, Note_on_c, 0, 55, 0
2, 185468, Note_on_c, 0, 56, 54
2, 185526, Note_on_c, 0, 56, 0
2, 185543, Note_on_c, 0, 55, 40
2, 185607, Note_on_c, 0, 55, 0
2, 185616, Note_on_c, 0, 56, 54
2, 185619, Note_on_c, 0, 72, 65
2, 185667, Note_on_c, 0, 73, 0
2, 185669, Note_on_c, 0, 56, 0
2, 185681, Note_on_c, 0, 55, 53
2, 185717, Note_on_c, 0, 72, 0
2, 185751, Note_on_c, 0, 55, 0
2, 185762, Note_on_c, 0, 56, 61
2, 185808, Note_on_c, 0, 56, 0
2, 185809, Note_on_c, 0, 55, 54
2, 185869, Note_on_c, 0, 55, 0
2, 185889, Note_on_c, 0, 56, 54
2, 185920, Note_on_c, 0, 56, 0
2, 185927, Note_on_c, 0, 55, 46
2, 185952, Note_on_c, 0, 70, 69
2, 186061, Note_on_c, 0, 55, 0
2, 186068, Note_on_c, 0, 70, 0
2, 186088, Note_on_c, 0, 53, 55
2, 186154, Note_on_c, 0, 53, 0
2, 186182, Note_on_c, 0, 55, 61
2, 186270, Note_on_c, 0, 55, 0
2, 186289, Note_on_c, 0, 75, 80
2, 186295, Note_on_c, 0, 72, 61
2, 186299, Note_on_c, 0, 76, 0
2, 186304, Note_on_c, 0, 56, 55
2, 186668, Note_on_c, 0, 78, 85
2, 186713, Note_on_c, 0, 75, 0
2, 187031, Note_on_c, 0, 76, 84
2, 187041, Note_on_c, 0, 73, 72
2, 187052, Note_on_c, 0, 72, 0
2, 187062, Note_on_c, 0, 78, 0
2, 187204, Control_c, 0, 67, 8
2, 187235, Control_c, 0, 67, 9
2, 187351, Note_on_c, 0, 76, 0
2, 187356, Control_c, 0, 67, 9
2, 187373, Note_on_c, 0, 78, 84
2, 187379, Note_on_c, 0, 75, 60
2, 187401, Control_c, 0, 67, 11
2, 187416, Note_on_c, 0, 73, 0
2, 187417, Control_c, 0, 67, 12
2, 187432, Control_c, 0, 67, 13
2, 187463, Control_c, 0, 67, 13
2, 187478, Control_c, 0, 67, 14
2, 187554, Note_on_c, 0, 80, 87
2, 187578, Control_c, 0, 67, 14
2, 187593, Note_on_c, 0, 78, 0
2, 187688, Note_on_c, 0, 80, 0
2, 187759, Control_c, 0, 67, 14
2, 187769, Note_on_c, 0, 81, 89
2, 187851, Control_c, 0, 67, 13
2, 187912, Control_c, 0, 67, 13
2, 188171, Note_on_c, 0, 80, 85
2, 188185, Control_c, 0, 67, 12
2, 188199, Note_on_c, 0, 44, 49
2, 188211, Note_on_c, 0, 72, 44
2, 188214, Note_on_c, 0, 75, 0
2, 188232, Note_on_c, 0, 81, 0
2, 188258, Note_on_c, 0, 56, 0
2, 188346, Control_c, 0, 67, 13
2, 188361, Control_c, 0, 67, 14
2, 188377, Control_c, 0, 67, 16
2, 188392, Control_c, 0, 67, 20
2, 188408, Control_c, 0, 67, 26
2, 188423, Control_c, 0, 67, 33
2, 188438, Control_c, 0, 67, 39
2, 188454, Control_c, 0, 67, 43
2, 188468, Control_c, 0, 67, 47
2, 188483, Control_c, 0, 67, 51
2, 188499, Control_c, 0, 67, 53
2, 188514, Control_c, 0, 67, 54
2, 188544, Control_c, 0, 67, 54
2, 188559, Control_c, 0, 67, 55
2, 188575, Control_c, 0, 67, 57
2, 188590, Control_c, 0, 67, 60
2, 188599, Note_on_c, 0, 78, 82
2, 188604, Control_c, 0, 67, 64
2, 188607, Note_on_c, 0, 45, 49
2, 188619, Note_on_c, 0, 73, 56
2, 188620, Control_c, 0, 67, 69
2, 188635, Control_c, 0, 67, 76
2, 188651, Control_c, 0, 67, 83
2, 188652, Note_on_c, 0, 72, 0
2, 188662, Note_on_c, 0, 80, 0
2, 188666, Control_c, 0, 67, 90
2, 188680, Control_c, 0, 67, 97
2, 188682, Note_on_c, 0, 44, 0
2, 188696, Control_c, 0, 67, 103
2, 188711, Control_c, 0, 67, 108
2, 188726, Control_c, 0, 67, 113
2, 188741, Control_c, 0, 67, 117
2, 188756, Control_c, 0, 67, 120
2, 188772, Control_c, 0, 67, 120
2, 188878, Control_c, 0, 67, 119
2, 188894, Control_c, 0, 67, 119
2, 188923, Control_c, 0, 67, 118
2, 188939, Control_c, 0, 67, 117
2, 188954, Control_c, 0, 67, 115
2, 188970, Control_c, 0, 67, 113
2, 188985, Control_c, 0, 67, 113
2, 188995, Note_on_c, 0, 76, 85
2, 189000, Control_c, 0, 67, 112
2, 189015, Control_c, 0, 67, 111
2, 189016, Note_on_c, 0, 78, 0
2, 189030, Control_c, 0, 67, 110
2, 189046, Control_c, 0, 67, 107
2, 189068, Control_c, 0, 67, 103
2, 189083, Control_c, 0, 67, 97
2, 189099, Control_c, 0, 67, 91
2, 189113, Control_c, 0, 67, 85
2, 189129, Control_c, 0, 67, 80
2, 189145, Control_c, 0, 67, 74
2, 189160, Control_c, 0, 67, 68
2, 189175, Control_c, 0, 67, 61
2, 189190, Control_c, 0, 67, 54
2, 189206, Control_c, 0, 67, 48
2, 189221, Control_c, 0, 67, 45
2, 189236, Control_c, 0, 67, 42
2, 189252, Control_c, 0, 67, 36
2, 189267, Control_c, 0, 67, 27
2, 189281, Control_c, 0, 67, 16
2, 189297, Control_c, 0, 67, 0
2, 189414, Note_on_c, 0, 75, 76
2, 189428, Note_on_c, 0, 69, 52
2, 189443, Note_on_c, 0, 76, 0
2, 189453, Note_on_c, 0, 42, 51
2, 189483, Note_on_c, 0, 73, 0
2, 189522, Note_on_c, 0, 45, 0
2, 189613, Note_on_c, 0, 69, 0
2, 189631, Control_c, 0, 64, 44
2, 189646, Control_c, 0, 64, 63
2, 189661, Control_c, 0, 64, 65
2, 189676, Control_c, 0, 64, 66
2, 189692, Control_c, 0, 64, 68
2, 189707, Control_c, 0, 64, 71
2, 189722, Control_c, 0, 64, 74
2, 189738, Control_c, 0, 64, 77
2, 189752, Control_c, 0, 64, 80
2, 189768, Control_c, 0, 64, 81
2, 189783, Control_c, 0, 64, 81
2, 189814, Control_c, 0, 64, 82
2, 189905, Note_on_c, 0, 73, 73
2, 189912, Control_c, 0, 64, 81
2, 189914, Note_on_c, 0, 64, 59
2, 189923, Note_on_c, 0, 44, 55
2, 189928, Control_c, 0, 64, 80
2, 189942, Control_c, 0, 64, 78
2, 189958, Control_c, 0, 64, 74
2, 189974, Control_c, 0, 64, 68
2, 189974, Note_on_c, 0, 75, 0
2, 189989, Control_c, 0, 64, 57
2, 190001, Note_on_c, 0, 42, 0
2, 190004, Control_c, 0, 64, 0
2, 190841, Note_on_c, 0, 55, 71
2, 191000, Control_c, 0, 64, 58
2, 191015, Control_c, 0, 64, 65
2, 191030, Control_c, 0, 64, 69
2, 191046, Control_c, 0, 64, 71
2, 191060, Control_c, 0, 64, 74
2, 191073, Note_on_c, 0, 64, 0
2, 191075, Control_c, 0, 64, 77
2, 191091, Control_c, 0, 64, 79
2, 191104, Note_on_c, 0, 44, 0
2, 191106, Control_c, 0, 64, 80
2, 191118, Note_on_c, 0, 73, 0
2, 191136, Control_c, 0, 64, 81
2, 191181, Control_c, 0, 64, 83
2, 191196, Control_c, 0, 64, 86
2, 191212, Control_c, 0, 64, 90
2, 191227, Control_c, 0, 64, 93
2, 191242, Control_c, 0, 64, 94
2, 191373, Control_c, 0, 64, 93
2, 191378, Note_on_c, 0, 73, 80
2, 191385, Note_on_c, 0, 56, 55
2, 191387, Control_c, 0, 64, 90
2, 191399, Note_on_c, 0, 63, 62
2, 191402, Control_c, 0, 64, 86
2, 191418, Control_c, 0, 64, 78
2, 191433, Control_c, 0, 64, 69
2, 191449, Control_c, 0, 64, 52
2, 191462, Note_on_c, 0, 55, 0
2, 191463, Control_c, 0, 64, 0
2, 191584, Note_on_c, 0, 72, 76
2, 191602, Note_on_c, 0, 73, 0
2, 191712, Note_on_c, 0, 72, 0
2, 191717, Note_on_c, 0, 73, 70
2, 191804, Note_on_c, 0, 73, 0
2, 191810, Note_on_c, 0, 72, 67
2, 191873, Note_on_c, 0, 73, 59
2, 191877, Note_on_c, 0, 72, 0
2, 191934, Note_on_c, 0, 72, 55
2, 191943, Note_on_c, 0, 73, 0
2, 192002, Note_on_c, 0, 73, 55
2, 192030, Note_on_c, 0, 72, 0
2, 192044, Note_on_c, 0, 72, 42
2, 192067, Note_on_c, 0, 73, 0
2, 192247, Control_c, 0, 67, 8
2, 192262, Control_c, 0, 67, 8
2, 192277, Control_c, 0, 67, 10
2, 192293, Control_c, 0, 67, 14
2, 192308, Control_c, 0, 67, 16
2, 192322, Control_c, 0, 67, 18
2, 192338, Control_c, 0, 67, 20
2, 192353, Control_c, 0, 67, 21
2, 192369, Control_c, 0, 67, 21
2, 192383, Control_c, 0, 67, 22
2, 192475, Control_c, 0, 67, 22
2, 192489, Note_on_c, 0, 63, 0
2, 192506, Control_c, 0, 67, 23
2, 192516, Note_on_c, 0, 73, 71
2, 192524, Note_on_c, 0, 64, 55
2, 192530, Note_on_c, 0, 44, 45
2, 192536, Control_c, 0, 67, 26
2, 192551, Control_c, 0, 67, 31
2, 192552, Note_on_c, 0, 72, 0
2, 192560, Note_on_c, 0, 56, 0
2, 192567, Control_c, 0, 67, 35
2, 192582, Control_c, 0, 67, 38
2, 192597, Control_c, 0, 67, 41
2, 192612, Control_c, 0, 67, 43
2, 192627, Control_c, 0, 67, 46
2, 192642, Control_c, 0, 67, 47
2, 192658, Control_c, 0, 67, 48
2, 192672, Control_c, 0, 64, 56
2, 192672, Control_c, 0, 67, 49
2, 192688, Control_c, 0, 64, 64
2, 192688, Control_c, 0, 67, 52
2, 192703, Control_c, 0, 64, 66
2, 192703, Control_c, 0, 67, 56
2, 192718, Control_c, 0, 64, 68
2, 192718, Control_c, 0, 67, 60
2, 192734, Control_c, 0, 64, 71
2, 192734, Control_c, 0, 67, 63
2, 192749, Control_c, 0, 64, 76
2, 192749, Control_c, 0, 67, 65
2, 192764, Control_c, 0, 64, 81
2, 192764, Control_c, 0, 67, 66
2, 192780, Control_c, 0, 64, 86
2, 192780, Control_c, 0, 67, 67
2, 192794, Control_c, 0, 64, 91
2, 192810, Control_c, 0, 64, 94
2, 192810, Control_c, 0, 67, 68
2, 192825, Control_c, 0, 64, 98
2, 192825, Control_c, 0, 67, 70
2, 192840, Control_c, 0, 64, 102
2, 192840, Control_c, 0, 67, 76
2, 192856, Control_c, 0, 64, 107
2, 192856, Control_c, 0, 67, 81
2, 192861, Note_on_c, 0, 64, 0
2, 192870, Control_c, 0, 64, 111
2, 192870, Control_c, 0, 67, 86
2, 192886, Control_c, 0, 64, 116
2, 192886, Control_c, 0, 67, 91
2, 192908, Control_c, 0, 64, 120
2, 192908, Control_c, 0, 67, 96
2, 192916, Note_on_c, 0, 73, 0
2, 192923, Control_c, 0, 64, 123
2, 192923, Control_c, 0, 67, 101
2, 192939, Control_c, 0, 64, 125
2, 192939, Control_c, 0, 67, 106
2, 192953, Control_c, 0, 64, 126
2, 192953, Control_c, 0, 67, 111
2, 192969, Control_c, 0, 67, 115
2, 192984, Control_c, 0, 67, 119
2, 192999, Control_c, 0, 67, 124
2, 193015, Control_c, 0, 67, 127
2, 193441, Control_c, 0, 64, 126
2, 193487, Control_c, 0, 64, 125
2, 193502, Control_c, 0, 64, 124
2, 193516, Control_c, 0, 64, 123
2, 193532, Control_c, 0, 64, 122
2, 193547, Control_c, 0, 64, 121
2, 193562, Control_c, 0, 64, 119
2, 193578, Control_c, 0, 64, 117
2, 193592, Control_c, 0, 64, 115
2, 193598, Note_on_c, 0, 73, 74
2, 193607, Note_on_c, 0, 64, 52
2, 193608, Control_c, 0, 64, 112
2, 193615, Note_on_c, 0, 61, 53
2, 193619, Note_on_c, 0, 37, 44
2, 193623, Control_c, 0, 64, 107
2, 193623, Note_on_c, 0, 68, 51
2, 193638, Control_c, 0, 64, 100
2, 193654, Control_c, 0, 64, 92
2, 193676, Control_c, 0, 64, 83
2, 193692, Control_c, 0, 64, 75
2, 193707, Control_c, 0, 64, 67
2, 193712, Note_on_c, 0, 44, 0
2, 193721, Control_c, 0, 64, 44
2, 193737, Control_c, 0, 64, 0
2, 197500, Note_on_c, 0, 73, 0
2, 197532, Note_on_c, 0, 37, 0
2, 197537, Note_on_c, 0, 68, 0
2, 197546, Note_on_c, 0, 64, 0
2, 197552, Note_on_c, 0, 61, 0
2, 200425,End_track
0, 0, End_of_file
