0, 0, Header, 1, 2, 384
1, 0, Start_track
1, 0, Tempo, 500000
1, 0, Time_signature, 4, 2, 24, 8
1, 1, End_track
2, 0, Start_track
2, 0, Title_t, "17 to 19"
2, 0, Program_c, 0, 0
2, 0, Control_c, 0, 64, 60
2, 0, Control_c, 0, 66, 0
2, 0, Control_c, 0, 67, 0
2, 12, Control_c, 0, 64, 63
2, 36, Control_c, 0, 64, 64
2, 51, Control_c, 0, 64, 67
2, 67, Control_c, 0, 64, 70
2, 81, Control_c, 0, 64, 74
2, 96, Control_c, 0, 64, 77
2, 112, Control_c, 0, 64, 80
2, 127, Control_c, 0, 64, 84
2, 143, Control_c, 0, 64, 88
2, 157, Control_c, 0, 64, 93
2, 172, Control_c, 0, 64, 100
2, 188, Control_c, 0, 64, 105
2, 202, Control_c, 0, 64, 109
2, 217, Control_c, 0, 64, 113
2, 233, Control_c, 0, 64, 120
2, 235, Control_c, 0, 64, 127
2, 719, Note_on_c, 0, 50, 88
2, 723, Note_on_c, 0, 38, 84
2, 784, Control_c, 0, 64, 120
2, 798, Control_c, 0, 64, 99
2, 814, Control_c, 0, 64, 84
2, 829, Control_c, 0, 64, 70
2, 844, Control_c, 0, 64, 58
2, 860, Control_c, 0, 64, 33
2, 875, Control_c, 0, 64, 0
2, 997, Note_on_c, 0, 62, 75
2, 1049, Note_on_c, 0, 62, 0
2, 1076, Note_on_c, 0, 64, 79
2, 1153, Note_on_c, 0, 66, 77
2, 1159, Note_on_c, 0, 64, 0
2, 1212, Note_on_c, 0, 67, 77
2, 1239, Note_on_c, 0, 66, 0
2, 1287, Note_on_c, 0, 69, 82
2, 1309, Note_on_c, 0, 67, 0
2, 1330, Note_on_c, 0, 69, 0
2, 1429, Note_on_c, 0, 66, 82
2, 1487, Note_on_c, 0, 66, 0
2, 1571, Note_on_c, 0, 69, 76
2, 1624, Note_on_c, 0, 69, 0
2, 1703, Note_on_c, 0, 74, 83
2, 1747, Note_on_c, 0, 74, 0
2, 1834, Note_on_c, 0, 69, 77
2, 1894, Note_on_c, 0, 69, 0
2, 1905, Note_on_c, 0, 38, 0
2, 1906, Note_on_c, 0, 50, 0
2, 1966, Note_on_c, 0, 74, 83
2, 2024, Note_on_c, 0, 74, 0
2, 2097, Note_on_c, 0, 78, 81
2, 2154, Note_on_c, 0, 78, 0
2, 2228, Note_on_c, 0, 74, 82
2, 2286, Note_on_c, 0, 74, 0
2, 2363, Note_on_c, 0, 78, 88
2, 2419, Note_on_c, 0, 78, 0
2, 2525, Note_on_c, 0, 81, 83
2, 2548, Control_c, 0, 64, 36
2, 2562, Control_c, 0, 64, 52
2, 2578, Control_c, 0, 64, 59
2, 2594, Control_c, 0, 64, 64
2, 2609, Control_c, 0, 64, 68
2, 2624, Control_c, 0, 64, 74
2, 2639, Control_c, 0, 64, 84
2, 2655, Control_c, 0, 64, 94
2, 2670, Control_c, 0, 64, 104
2, 2678, Note_on_c, 0, 81, 0
2, 2685, Control_c, 0, 64, 112
2, 2700, Control_c, 0, 64, 116
2, 2715, Control_c, 0, 64, 120
2, 2730, Control_c, 0, 64, 127
2, 2914, Control_c, 0, 64, 119
2, 2929, Control_c, 0, 64, 107
2, 2945, Control_c, 0, 64, 98
2, 2960, Control_c, 0, 64, 89
2, 2976, Control_c, 0, 64, 82
2, 2990, Control_c, 0, 64, 76
2, 3005, Control_c, 0, 64, 72
2, 3021, Control_c, 0, 64, 69
2, 3027, Note_on_c, 0, 81, 68
2, 3036, Control_c, 0, 64, 66
2, 3037, Note_on_c, 0, 78, 62
2, 3040, Note_on_c, 0, 62, 38
2, 3058, Control_c, 0, 64, 62
2, 3073, Control_c, 0, 64, 56
2, 3088, Control_c, 0, 64, 41
2, 3104, Control_c, 0, 64, 0
2, 3271, Control_c, 0, 64, 44
2, 3286, Control_c, 0, 64, 57
2, 3302, Control_c, 0, 64, 64
2, 3303, Note_on_c, 0, 81, 0
2, 3311, Note_on_c, 0, 78, 0
2, 3317, Control_c, 0, 64, 68
2, 3331, Control_c, 0, 64, 75
2, 3347, Control_c, 0, 64, 85
2, 3361, Control_c, 0, 64, 95
2, 3377, Control_c, 0, 64, 105
2, 3392, Control_c, 0, 64, 107
2, 3422, Control_c, 0, 64, 106
2, 3437, Control_c, 0, 64, 105
2, 3452, Control_c, 0, 64, 103
2, 3467, Control_c, 0, 64, 101
2, 3482, Control_c, 0, 64, 99
2, 3498, Control_c, 0, 64, 94
2, 3513, Control_c, 0, 64, 89
2, 3528, Control_c, 0, 64, 82
2, 3544, Control_c, 0, 64, 76
2, 3552, Note_on_c, 0, 81, 66
2, 3559, Control_c, 0, 64, 72
2, 3570, Note_on_c, 0, 69, 38
2, 3571, Note_on_c, 0, 78, 57
2, 3575, Control_c, 0, 64, 69
2, 3590, Control_c, 0, 64, 67
2, 3605, Control_c, 0, 64, 65
2, 3621, Control_c, 0, 64, 60
2, 3635, Control_c, 0, 64, 43
2, 3650, Control_c, 0, 64, 0
2, 3663, Note_on_c, 0, 62, 0
2, 3804, Note_on_c, 0, 79, 73
2, 3807, Note_on_c, 0, 76, 65
2, 3856, Note_on_c, 0, 81, 0
2, 3886, Control_c, 0, 64, 45
2, 3902, Control_c, 0, 64, 62
2, 3917, Control_c, 0, 64, 67
2, 3925, Note_on_c, 0, 78, 0
2, 3932, Control_c, 0, 64, 71
2, 3932, Note_on_c, 0, 76, 0
2, 3944, Note_on_c, 0, 79, 0
2, 3947, Control_c, 0, 64, 76
2, 3962, Control_c, 0, 64, 79
2, 3978, Control_c, 0, 64, 79
2, 4008, Control_c, 0, 64, 78
2, 4024, Control_c, 0, 64, 76
2, 4037, Note_on_c, 0, 69, 0
2, 4039, Control_c, 0, 64, 72
2, 4041, Note_on_c, 0, 79, 68
2, 4054, Control_c, 0, 64, 68
2, 4063, Note_on_c, 0, 76, 53
2, 4064, Note_on_c, 0, 57, 33
2, 4069, Control_c, 0, 64, 63
2, 4084, Control_c, 0, 64, 56
2, 4099, Control_c, 0, 64, 50
2, 4114, Control_c, 0, 64, 15
2, 4129, Control_c, 0, 64, 0
2, 4298, Note_on_c, 0, 78, 66
2, 4299, Note_on_c, 0, 74, 58
2, 4354, Note_on_c, 0, 76, 0
2, 4375, Note_on_c, 0, 79, 0
2, 4389, Control_c, 0, 64, 53
2, 4403, Control_c, 0, 64, 63
2, 4416, Note_on_c, 0, 78, 0
2, 4419, Control_c, 0, 64, 67
2, 4419, Note_on_c, 0, 74, 0
2, 4434, Control_c, 0, 64, 74
2, 4449, Control_c, 0, 64, 83
2, 4465, Control_c, 0, 64, 96
2, 4479, Control_c, 0, 64, 118
2, 4495, Control_c, 0, 64, 127
2, 4499, Note_on_c, 0, 57, 0
2, 4516, Note_on_c, 0, 62, 52
2, 4528, Note_on_c, 0, 78, 68
2, 4543, Note_on_c, 0, 74, 59
2, 4547, Note_on_c, 0, 62, 0
2, 4701, Note_on_c, 0, 50, 69
2, 4760, Note_on_c, 0, 52, 62
2, 4763, Note_on_c, 0, 50, 0
2, 4791, Control_c, 0, 64, 116
2, 4806, Control_c, 0, 64, 103
2, 4807, Note_on_c, 0, 54, 66
2, 4822, Control_c, 0, 64, 92
2, 4837, Control_c, 0, 64, 81
2, 4840, Note_on_c, 0, 52, 0
2, 4852, Control_c, 0, 64, 70
2, 4867, Control_c, 0, 64, 62
2, 4870, Note_on_c, 0, 55, 71
2, 4882, Control_c, 0, 64, 50
2, 4886, Note_on_c, 0, 54, 0
2, 4898, Control_c, 0, 64, 26
2, 4913, Control_c, 0, 64, 0
2, 4931, Note_on_c, 0, 57, 73
2, 4935, Note_on_c, 0, 55, 0
2, 4959, Note_on_c, 0, 57, 0
2, 5068, Note_on_c, 0, 54, 68
2, 5103, Note_on_c, 0, 54, 0
2, 5192, Note_on_c, 0, 57, 73
2, 5225, Note_on_c, 0, 57, 0
2, 5268, Note_on_c, 0, 78, 0
2, 5274, Note_on_c, 0, 74, 0
2, 5311, Note_on_c, 0, 62, 74
2, 5366, Note_on_c, 0, 62, 0
2, 5448, Note_on_c, 0, 57, 78
2, 5488, Note_on_c, 0, 57, 0
2, 5569, Note_on_c, 0, 62, 74
2, 5597, Note_on_c, 0, 62, 0
2, 5696, Note_on_c, 0, 66, 85
2, 5724, Note_on_c, 0, 66, 0
2, 5822, Note_on_c, 0, 62, 77
2, 5848, Note_on_c, 0, 62, 0
2, 5945, Note_on_c, 0, 66, 86
2, 5976, Note_on_c, 0, 66, 0
2, 6091, Control_c, 0, 64, 26
2, 6100, Note_on_c, 0, 69, 77
2, 6107, Control_c, 0, 64, 55
2, 6130, Control_c, 0, 64, 62
2, 6146, Control_c, 0, 64, 66
2, 6157, Note_on_c, 0, 69, 0
2, 6160, Control_c, 0, 64, 72
2, 6176, Control_c, 0, 64, 82
2, 6191, Control_c, 0, 64, 97
2, 6206, Control_c, 0, 64, 127
2, 6372, Control_c, 0, 64, 121
2, 6388, Control_c, 0, 64, 113
2, 6403, Control_c, 0, 64, 108
2, 6419, Control_c, 0, 64, 107
2, 6434, Control_c, 0, 64, 106
2, 6449, Control_c, 0, 64, 103
2, 6465, Control_c, 0, 64, 97
2, 6480, Control_c, 0, 64, 91
2, 6496, Control_c, 0, 64, 85
2, 6510, Control_c, 0, 64, 80
2, 6525, Control_c, 0, 64, 74
2, 6541, Control_c, 0, 64, 69
2, 6555, Control_c, 0, 64, 66
2, 6570, Control_c, 0, 64, 62
2, 6586, Control_c, 0, 64, 59
2, 6601, Control_c, 0, 64, 53
2, 6604, Note_on_c, 0, 78, 71
2, 6609, Note_on_c, 0, 50, 52
2, 6615, Note_on_c, 0, 69, 55
2, 6617, Control_c, 0, 64, 39
2, 6632, Control_c, 0, 64, 0
2, 6784, Control_c, 0, 64, 10
2, 6799, Control_c, 0, 64, 46
2, 6815, Control_c, 0, 64, 56
2, 6830, Control_c, 0, 64, 61
2, 6845, Control_c, 0, 64, 65
2, 6851, Note_on_c, 0, 69, 0
2, 6851, Note_on_c, 0, 78, 0
2, 6861, Control_c, 0, 64, 68
2, 6876, Control_c, 0, 64, 73
2, 6899, Control_c, 0, 64, 79
2, 6914, Control_c, 0, 64, 86
2, 6929, Control_c, 0, 64, 92
2, 6944, Control_c, 0, 64, 95
2, 6975, Control_c, 0, 64, 93
2, 6990, Control_c, 0, 64, 91
2, 7004, Control_c, 0, 64, 87
2, 7020, Control_c, 0, 64, 83
2, 7035, Control_c, 0, 64, 80
2, 7050, Control_c, 0, 64, 75
2, 7066, Control_c, 0, 64, 72
2, 7081, Control_c, 0, 64, 69
2, 7097, Control_c, 0, 64, 67
2, 7112, Control_c, 0, 64, 65
2, 7127, Control_c, 0, 64, 63
2, 7127, Note_on_c, 0, 57, 38
2, 7129, Note_on_c, 0, 78, 68
2, 7143, Control_c, 0, 64, 60
2, 7143, Note_on_c, 0, 69, 49
2, 7157, Control_c, 0, 64, 47
2, 7172, Control_c, 0, 64, 0
2, 7184, Note_on_c, 0, 50, 0
2, 7267, Note_on_c, 0, 69, 0
2, 7322, Control_c, 0, 64, 35
2, 7338, Control_c, 0, 64, 52
2, 7353, Control_c, 0, 64, 60
2, 7368, Control_c, 0, 64, 64
2, 7381, Note_on_c, 0, 76, 68
2, 7384, Control_c, 0, 64, 67
2, 7390, Note_on_c, 0, 67, 59
2, 7399, Control_c, 0, 64, 71
2, 7415, Control_c, 0, 64, 77
2, 7427, Note_on_c, 0, 78, 0
2, 7430, Control_c, 0, 64, 85
2, 7445, Control_c, 0, 64, 94
2, 7461, Control_c, 0, 64, 105
2, 7461, Note_on_c, 0, 67, 0
2, 7466, Note_on_c, 0, 76, 0
2, 7475, Control_c, 0, 64, 112
2, 7490, Control_c, 0, 64, 114
2, 7506, Control_c, 0, 64, 116
2, 7510, Note_on_c, 0, 57, 0
2, 7520, Control_c, 0, 64, 116
2, 7536, Control_c, 0, 64, 116
2, 7551, Control_c, 0, 64, 114
2, 7566, Control_c, 0, 64, 112
2, 7582, Control_c, 0, 64, 109
2, 7597, Control_c, 0, 64, 107
2, 7611, Control_c, 0, 64, 103
2, 7621, Note_on_c, 0, 45, 43
2, 7623, Note_on_c, 0, 67, 55
2, 7623, Note_on_c, 0, 76, 61
2, 7627, Control_c, 0, 64, 99
2, 7642, Control_c, 0, 64, 94
2, 7666, Control_c, 0, 64, 89
2, 7681, Control_c, 0, 64, 82
2, 7697, Control_c, 0, 64, 78
2, 7711, Control_c, 0, 64, 74
2, 7713, Note_on_c, 0, 67, 0
2, 7726, Control_c, 0, 64, 70
2, 7742, Control_c, 0, 64, 66
2, 7757, Control_c, 0, 64, 63
2, 7772, Control_c, 0, 64, 60
2, 7787, Control_c, 0, 64, 56
2, 7802, Control_c, 0, 64, 52
2, 7818, Control_c, 0, 64, 45
2, 7833, Control_c, 0, 64, 21
2, 7848, Control_c, 0, 64, 0
2, 7879, Note_on_c, 0, 74, 66
2, 7882, Note_on_c, 0, 66, 54
2, 7906, Note_on_c, 0, 76, 0
2, 7985, Control_c, 0, 64, 56
2, 8000, Control_c, 0, 64, 66
2, 8005, Note_on_c, 0, 66, 0
2, 8016, Control_c, 0, 64, 72
2, 8017, Note_on_c, 0, 74, 0
2, 8031, Control_c, 0, 64, 82
2, 8045, Control_c, 0, 64, 94
2, 8061, Control_c, 0, 64, 109
2, 8076, Control_c, 0, 64, 119
2, 8091, Control_c, 0, 64, 127
2, 8092, Note_on_c, 0, 45, 0
2, 8114, Note_on_c, 0, 50, 47
2, 8129, Note_on_c, 0, 74, 66
2, 8142, Note_on_c, 0, 66, 57
2, 8169, Note_on_c, 0, 74, 0
2, 8188, Note_on_c, 0, 66, 0
2, 8246, Note_on_c, 0, 50, 0
2, 8270, Note_on_c, 0, 50, 18
2, 8310, Note_on_c, 0, 66, 64
2, 8350, Control_c, 0, 64, 120
2, 8365, Control_c, 0, 64, 111
2, 8380, Control_c, 0, 64, 103
2, 8381, Note_on_c, 0, 64, 70
2, 8390, Note_on_c, 0, 66, 0
2, 8395, Control_c, 0, 64, 93
2, 8410, Control_c, 0, 64, 81
2, 8427, Note_on_c, 0, 64, 0
2, 8433, Control_c, 0, 64, 72
2, 8448, Control_c, 0, 64, 65
2, 8454, Note_on_c, 0, 62, 61
2, 8463, Control_c, 0, 64, 59
2, 8472, Note_on_c, 0, 50, 0
2, 8475, Note_on_c, 0, 38, 48
2, 8479, Control_c, 0, 64, 49
2, 8494, Note_on_c, 0, 62, 0
2, 8495, Control_c, 0, 64, 18
2, 8510, Control_c, 0, 64, 0
2, 8519, Note_on_c, 0, 61, 72
2, 8540, Note_on_c, 0, 38, 0
2, 8574, Note_on_c, 0, 61, 0
2, 8594, Note_on_c, 0, 59, 72
2, 8600, Note_on_c, 0, 50, 54
2, 8627, Note_on_c, 0, 59, 0
2, 8740, Note_on_c, 0, 62, 64
2, 8765, Note_on_c, 0, 50, 0
2, 8774, Note_on_c, 0, 62, 0
2, 8876, Note_on_c, 0, 59, 70
2, 8891, Note_on_c, 0, 50, 34
2, 8906, Note_on_c, 0, 59, 0
2, 8927, Note_on_c, 0, 50, 0
2, 9010, Note_on_c, 0, 56, 61
2, 9020, Note_on_c, 0, 50, 54
2, 9160, Note_on_c, 0, 64, 61
2, 9162, Note_on_c, 0, 56, 0
2, 9220, Note_on_c, 0, 64, 0
2, 9225, Note_on_c, 0, 66, 68
2, 9301, Note_on_c, 0, 68, 76
2, 9310, Note_on_c, 0, 66, 0
2, 9316, Note_on_c, 0, 50, 0
2, 9369, Note_on_c, 0, 69, 65
2, 9391, Note_on_c, 0, 68, 0
2, 9433, Note_on_c, 0, 71, 75
2, 9462, Note_on_c, 0, 69, 0
2, 9479, Note_on_c, 0, 71, 0
2, 9566, Note_on_c, 0, 52, 60
2, 9575, Note_on_c, 0, 68, 83
2, 9614, Note_on_c, 0, 52, 0
2, 9630, Note_on_c, 0, 68, 0
2, 9637, Note_on_c, 0, 50, 61
2, 9685, Note_on_c, 0, 50, 0
2, 9705, Note_on_c, 0, 49, 56
2, 9710, Note_on_c, 0, 71, 80
2, 9744, Note_on_c, 0, 49, 0
2, 9763, Note_on_c, 0, 71, 0
2, 9768, Note_on_c, 0, 47, 57
2, 9810, Control_c, 0, 64, 39
2, 9826, Control_c, 0, 64, 55
2, 9837, Note_on_c, 0, 49, 58
2, 9841, Control_c, 0, 64, 62
2, 9849, Note_on_c, 0, 47, 0
2, 9856, Control_c, 0, 64, 66
2, 9858, Note_on_c, 0, 76, 78
2, 9871, Control_c, 0, 64, 70
2, 9884, Note_on_c, 0, 76, 0
2, 9886, Control_c, 0, 64, 77
2, 9902, Control_c, 0, 64, 81
2, 9907, Note_on_c, 0, 49, 0
2, 9917, Control_c, 0, 64, 85
2, 9931, Control_c, 0, 64, 86
2, 9947, Control_c, 0, 64, 85
2, 9970, Control_c, 0, 64, 82
2, 9986, Control_c, 0, 64, 77
2, 9989, Note_on_c, 0, 49, 30
2, 10000, Control_c, 0, 64, 68
2, 10016, Control_c, 0, 64, 62
2, 10031, Control_c, 0, 64, 56
2, 10046, Control_c, 0, 64, 54
2, 10049, Note_on_c, 0, 64, 71
2, 10062, Control_c, 0, 64, 49
2, 10076, Control_c, 0, 64, 36
2, 10091, Control_c, 0, 64, 0
2, 10111, Note_on_c, 0, 62, 64
2, 10113, Note_on_c, 0, 64, 0
2, 10160, Note_on_c, 0, 49, 0
2, 10166, Note_on_c, 0, 37, 56
2, 10176, Note_on_c, 0, 61, 72
2, 10201, Note_on_c, 0, 62, 0
2, 10217, Note_on_c, 0, 37, 0
2, 10236, Note_on_c, 0, 59, 70
2, 10257, Note_on_c, 0, 61, 0
2, 10301, Note_on_c, 0, 49, 56
2, 10310, Note_on_c, 0, 59, 0
2, 10311, Note_on_c, 0, 57, 70
2, 10351, Note_on_c, 0, 57, 0
2, 10430, Note_on_c, 0, 49, 0
2, 10449, Note_on_c, 0, 61, 74
2, 10490, Note_on_c, 0, 61, 0
2, 10580, Note_on_c, 0, 49, 61
2, 10588, Note_on_c, 0, 57, 68
2, 10611, Note_on_c, 0, 49, 0
2, 10628, Note_on_c, 0, 57, 0
2, 10722, Note_on_c, 0, 54, 61
2, 10750, Note_on_c, 0, 49, 45
2, 10875, Note_on_c, 0, 62, 56
2, 10881, Note_on_c, 0, 54, 0
2, 10913, Note_on_c, 0, 62, 0
2, 10942, Note_on_c, 0, 64, 72
2, 11008, Note_on_c, 0, 64, 0
2, 11010, Note_on_c, 0, 66, 72
2, 11035, Note_on_c, 0, 49, 0
2, 11072, Note_on_c, 0, 68, 76
2, 11096, Note_on_c, 0, 66, 0
2, 11143, Note_on_c, 0, 69, 72
2, 11171, Note_on_c, 0, 68, 0
2, 11183, Note_on_c, 0, 69, 0
2, 11283, Note_on_c, 0, 50, 56
2, 11283, Note_on_c, 0, 66, 72
2, 11329, Note_on_c, 0, 66, 0
2, 11334, Note_on_c, 0, 50, 0
2, 11349, Note_on_c, 0, 49, 57
2, 11395, Note_on_c, 0, 49, 0
2, 11419, Note_on_c, 0, 47, 56
2, 11423, Note_on_c, 0, 69, 71
2, 11460, Note_on_c, 0, 47, 0
2, 11464, Note_on_c, 0, 69, 0
2, 11483, Note_on_c, 0, 45, 54
2, 11537, Control_c, 0, 64, 23
2, 11551, Control_c, 0, 64, 46
2, 11557, Note_on_c, 0, 47, 57
2, 11566, Control_c, 0, 64, 54
2, 11569, Note_on_c, 0, 45, 0
2, 11569, Note_on_c, 0, 74, 73
2, 11582, Control_c, 0, 64, 59
2, 11588, Note_on_c, 0, 47, 0
2, 11597, Control_c, 0, 64, 60
2, 11628, Control_c, 0, 64, 59
2, 11642, Control_c, 0, 64, 57
2, 11658, Control_c, 0, 64, 54
2, 11673, Control_c, 0, 64, 49
2, 11688, Control_c, 0, 64, 43
2, 11704, Control_c, 0, 64, 34
2, 11719, Control_c, 0, 64, 22
2, 11728, Note_on_c, 0, 54, 58
2, 11735, Control_c, 0, 64, 0
2, 11755, Note_on_c, 0, 54, 0
2, 11797, Note_on_c, 0, 52, 66
2, 11850, Note_on_c, 0, 52, 0
2, 11860, Note_on_c, 0, 50, 61
2, 11863, Note_on_c, 0, 66, 64
2, 11876, Note_on_c, 0, 74, 0
2, 11899, Note_on_c, 0, 66, 0
2, 11906, Note_on_c, 0, 50, 0
2, 11924, Note_on_c, 0, 49, 59
2, 11991, Note_on_c, 0, 47, 67
2, 11999, Note_on_c, 0, 74, 72
2, 12002, Note_on_c, 0, 49, 0
2, 12002, Note_on_c, 0, 66, 66
2, 12018, Note_on_c, 0, 47, 0
2, 12150, Note_on_c, 0, 50, 63
2, 12178, Note_on_c, 0, 50, 0
2, 12188, Note_on_c, 0, 74, 0
2, 12193, Note_on_c, 0, 66, 0
2, 12297, Note_on_c, 0, 47, 65
2, 12308, Note_on_c, 0, 74, 70
2, 12318, Note_on_c, 0, 66, 55
2, 12321, Note_on_c, 0, 47, 0
2, 12342, Note_on_c, 0, 74, 0
2, 12349, Note_on_c, 0, 66, 0
2, 12447, Note_on_c, 0, 74, 57
2, 12449, Note_on_c, 0, 44, 51
2, 12463, Note_on_c, 0, 64, 57
2, 12483, Note_on_c, 0, 44, 0
2, 12596, Note_on_c, 0, 47, 64
2, 12632, Note_on_c, 0, 47, 0
2, 12736, Note_on_c, 0, 44, 68
2, 12774, Note_on_c, 0, 44, 0
2, 12881, Note_on_c, 0, 40, 69
2, 12915, Note_on_c, 0, 40, 0
2, 13018, Note_on_c, 0, 44, 62
2, 13018, Note_on_c, 0, 64, 0
2, 13039, Note_on_c, 0, 74, 0
2, 13045, Note_on_c, 0, 76, 63
2, 13061, Note_on_c, 0, 44, 0
2, 13123, Note_on_c, 0, 74, 67
2, 13129, Note_on_c, 0, 76, 0
2, 13166, Note_on_c, 0, 40, 62
2, 13186, Note_on_c, 0, 73, 71
2, 13203, Note_on_c, 0, 40, 0
2, 13208, Note_on_c, 0, 74, 0
2, 13247, Note_on_c, 0, 73, 0
2, 13266, Note_on_c, 0, 71, 67
2, 13341, Note_on_c, 0, 45, 65
2, 13352, Note_on_c, 0, 73, 71
2, 13360, Note_on_c, 0, 71, 0
2, 13367, Note_on_c, 0, 45, 0
2, 13473, Note_on_c, 0, 73, 0
2, 13511, Note_on_c, 0, 49, 58
2, 13516, Note_on_c, 0, 69, 63
2, 13541, Note_on_c, 0, 49, 0
2, 13591, Note_on_c, 0, 69, 0
2, 13599, Note_on_c, 0, 71, 65
2, 13649, Note_on_c, 0, 45, 57
2, 13666, Note_on_c, 0, 73, 70
2, 13668, Note_on_c, 0, 71, 0
2, 13690, Note_on_c, 0, 45, 0
2, 13732, Note_on_c, 0, 74, 73
2, 13736, Note_on_c, 0, 73, 0
2, 13805, Note_on_c, 0, 42, 51
2, 13815, Note_on_c, 0, 76, 74
2, 13832, Note_on_c, 0, 74, 0
2, 13835, Note_on_c, 0, 42, 0
2, 13959, Note_on_c, 0, 45, 61
2, 13965, Note_on_c, 0, 74, 73
2, 13972, Note_on_c, 0, 76, 0
2, 13988, Note_on_c, 0, 45, 0
2, 14042, Note_on_c, 0, 73, 70
2, 14079, Note_on_c, 0, 74, 0
2, 14101, Note_on_c, 0, 42, 55
2, 14107, Note_on_c, 0, 71, 71
2, 14123, Note_on_c, 0, 73, 0
2, 14131, Note_on_c, 0, 42, 0
2, 14162, Note_on_c, 0, 71, 0
2, 14176, Note_on_c, 0, 69, 70
2, 14248, Note_on_c, 0, 47, 73
2, 14254, Note_on_c, 0, 74, 79
2, 14269, Note_on_c, 0, 69, 0
2, 14276, Note_on_c, 0, 47, 0
2, 14360, Note_on_c, 0, 74, 0
2, 14394, Note_on_c, 0, 71, 72
2, 14397, Note_on_c, 0, 50, 66
2, 14427, Note_on_c, 0, 50, 0
2, 14459, Note_on_c, 0, 73, 79
2, 14460, Note_on_c, 0, 71, 0
2, 14534, Note_on_c, 0, 47, 65
2, 14534, Note_on_c, 0, 74, 78
2, 14551, Note_on_c, 0, 73, 0
2, 14582, Note_on_c, 0, 47, 0
2, 14598, Note_on_c, 0, 76, 72
2, 14623, Note_on_c, 0, 74, 0
2, 14679, Note_on_c, 0, 44, 58
2, 14685, Note_on_c, 0, 78, 89
2, 14691, Note_on_c, 0, 76, 0
2, 14708, Note_on_c, 0, 44, 0
2, 14827, Note_on_c, 0, 47, 62
2, 14849, Note_on_c, 0, 78, 0
2, 14852, Note_on_c, 0, 76, 73
2, 14855, Note_on_c, 0, 47, 0
2, 14924, Note_on_c, 0, 74, 77
2, 14952, Note_on_c, 0, 44, 62
2, 14960, Note_on_c, 0, 76, 0
2, 14982, Note_on_c, 0, 44, 0
2, 14986, Note_on_c, 0, 73, 78
2, 14996, Note_on_c, 0, 74, 0
2, 15041, Note_on_c, 0, 73, 0
2, 15054, Note_on_c, 0, 71, 71
2, 15129, Note_on_c, 0, 49, 47
2, 15135, Note_on_c, 0, 76, 79
2, 15177, Note_on_c, 0, 71, 0
2, 15268, Note_on_c, 0, 49, 0
2, 15285, Note_on_c, 0, 57, 63
2, 15320, Note_on_c, 0, 57, 0
2, 15365, Note_on_c, 0, 59, 66
2, 15419, Note_on_c, 0, 59, 0
2, 15430, Note_on_c, 0, 61, 72
2, 15496, Note_on_c, 0, 61, 0
2, 15496, Note_on_c, 0, 62, 72
2, 15555, Note_on_c, 0, 62, 0
2, 15569, Note_on_c, 0, 64, 76
2, 15699, Note_on_c, 0, 64, 0
2, 15717, Note_on_c, 0, 62, 66
2, 15776, Note_on_c, 0, 62, 0
2, 15785, Note_on_c, 0, 61, 66
2, 15810, Note_on_c, 0, 61, 0
2, 15856, Note_on_c, 0, 59, 74
2, 15914, Note_on_c, 0, 59, 0
2, 15923, Control_c, 0, 64, 10
2, 15929, Note_on_c, 0, 57, 60
2, 15939, Control_c, 0, 64, 20
2, 15953, Control_c, 0, 64, 29
2, 15968, Control_c, 0, 64, 36
2, 15980, Note_on_c, 0, 66, 69
2, 15984, Control_c, 0, 64, 42
2, 15997, Note_on_c, 0, 57, 0
2, 15999, Control_c, 0, 64, 45
2, 16007, Note_on_c, 0, 50, 54
2, 16015, Control_c, 0, 64, 47
2, 16030, Control_c, 0, 64, 49
2, 16045, Control_c, 0, 64, 52
2, 16060, Control_c, 0, 64, 54
2, 16075, Control_c, 0, 64, 56
2, 16090, Control_c, 0, 64, 57
2, 16113, Control_c, 0, 64, 58
2, 16115, Note_on_c, 0, 50, 0
2, 16128, Control_c, 0, 64, 59
2, 16143, Control_c, 0, 64, 60
2, 16155, Note_on_c, 0, 59, 64
2, 16171, Note_on_c, 0, 66, 0
2, 16214, Note_on_c, 0, 59, 0
2, 16220, Control_c, 0, 64, 59
2, 16225, Note_on_c, 0, 61, 64
2, 16235, Control_c, 0, 64, 58
2, 16250, Control_c, 0, 64, 57
2, 16265, Control_c, 0, 64, 55
2, 16280, Control_c, 0, 64, 53
2, 16280, Note_on_c, 0, 61, 0
2, 16291, Note_on_c, 0, 62, 69
2, 16296, Control_c, 0, 64, 51
2, 16310, Control_c, 0, 64, 47
2, 16319, Note_on_c, 0, 62, 0
2, 16325, Control_c, 0, 64, 43
2, 16341, Control_c, 0, 64, 39
2, 16356, Control_c, 0, 64, 35
2, 16364, Note_on_c, 0, 64, 65
2, 16371, Control_c, 0, 64, 30
2, 16386, Control_c, 0, 64, 25
2, 16401, Control_c, 0, 64, 12
2, 16418, Control_c, 0, 64, 0
2, 16444, Note_on_c, 0, 64, 0
2, 16445, Note_on_c, 0, 66, 65
2, 16456, Note_on_c, 0, 74, 70
2, 16496, Note_on_c, 0, 76, 0
2, 16551, Note_on_c, 0, 66, 0
2, 16601, Note_on_c, 0, 64, 55
2, 16662, Note_on_c, 0, 64, 0
2, 16671, Note_on_c, 0, 62, 67
2, 16677, Control_c, 0, 64, 22
2, 16691, Control_c, 0, 64, 39
2, 16707, Control_c, 0, 64, 46
2, 16722, Control_c, 0, 64, 51
2, 16722, Control_c, 0, 67, 13
2, 16737, Note_on_c, 0, 62, 0
2, 16738, Control_c, 0, 64, 54
2, 16738, Control_c, 0, 67, 21
2, 16740, Note_on_c, 0, 61, 60
2, 16753, Control_c, 0, 64, 57
2, 16753, Control_c, 0, 67, 30
2, 16767, Control_c, 0, 64, 58
2, 16767, Control_c, 0, 67, 37
2, 16783, Control_c, 0, 64, 58
2, 16783, Control_c, 0, 67, 43
2, 16796, Note_on_c, 0, 59, 67
2, 16798, Control_c, 0, 64, 60
2, 16798, Control_c, 0, 67, 46
2, 16812, Note_on_c, 0, 61, 0
2, 16814, Control_c, 0, 64, 61
2, 16814, Control_c, 0, 67, 47
2, 16825, Note_on_c, 0, 59, 0
2, 16828, Control_c, 0, 64, 62
2, 16843, Control_c, 0, 64, 64
2, 16843, Control_c, 0, 67, 48
2, 16859, Control_c, 0, 64, 65
2, 16882, Control_c, 0, 67, 47
2, 16898, Control_c, 0, 64, 64
2, 16898, Control_c, 0, 67, 46
2, 16904, Note_on_c, 0, 68, 66
2, 16912, Control_c, 0, 64, 54
2, 16912, Control_c, 0, 67, 46
2, 16927, Control_c, 0, 64, 0
2, 16927, Control_c, 0, 67, 44
2, 16931, Note_on_c, 0, 52, 45
2, 16943, Control_c, 0, 67, 42
2, 16958, Control_c, 0, 67, 40
2, 16974, Control_c, 0, 67, 38
2, 16988, Control_c, 0, 67, 35
2, 17003, Control_c, 0, 67, 28
2, 17019, Control_c, 0, 67, 19
2, 17024, Note_on_c, 0, 74, 0
2, 17033, Control_c, 0, 67, 0
2, 17036, Note_on_c, 0, 68, 0
2, 17048, Control_c, 0, 64, 43
2, 17064, Control_c, 0, 64, 55
2, 17072, Note_on_c, 0, 64, 67
2, 17079, Control_c, 0, 64, 61
2, 17095, Control_c, 0, 64, 64
2, 17109, Control_c, 0, 64, 68
2, 17124, Control_c, 0, 64, 72
2, 17140, Control_c, 0, 64, 76
2, 17140, Note_on_c, 0, 64, 0
2, 17143, Note_on_c, 0, 66, 66
2, 17155, Control_c, 0, 64, 80
2, 17170, Control_c, 0, 64, 81
2, 17201, Control_c, 0, 64, 79
2, 17215, Note_on_c, 0, 68, 69
2, 17217, Control_c, 0, 64, 76
2, 17217, Note_on_c, 0, 40, 60
2, 17223, Note_on_c, 0, 66, 0
2, 17231, Control_c, 0, 64, 73
2, 17242, Note_on_c, 0, 68, 0
2, 17246, Control_c, 0, 64, 70
2, 17248, Note_on_c, 0, 40, 0
2, 17262, Control_c, 0, 64, 67
2, 17274, Note_on_c, 0, 69, 70
2, 17277, Control_c, 0, 64, 64
2, 17292, Control_c, 0, 64, 61
2, 17304, Note_on_c, 0, 52, 0
2, 17308, Control_c, 0, 64, 60
2, 17322, Control_c, 0, 64, 59
2, 17338, Control_c, 0, 64, 57
2, 17353, Control_c, 0, 64, 54
2, 17357, Note_on_c, 0, 69, 0
2, 17359, Note_on_c, 0, 40, 50
2, 17360, Note_on_c, 0, 74, 70
2, 17364, Note_on_c, 0, 71, 61
2, 17367, Control_c, 0, 64, 47
2, 17383, Control_c, 0, 64, 32
2, 17398, Control_c, 0, 64, 0
2, 17473, Note_on_c, 0, 71, 0
2, 17516, Note_on_c, 0, 68, 75
2, 17555, Note_on_c, 0, 40, 0
2, 17574, Note_on_c, 0, 68, 0
2, 17670, Note_on_c, 0, 71, 74
2, 17680, Note_on_c, 0, 40, 62
2, 17698, Note_on_c, 0, 74, 0
2, 17706, Note_on_c, 0, 71, 0
2, 17713, Note_on_c, 0, 40, 0
2, 17810, Note_on_c, 0, 40, 50
2, 17815, Note_on_c, 0, 80, 78
2, 17819, Note_on_c, 0, 74, 72
2, 17882, Note_on_c, 0, 74, 0
2, 17968, Note_on_c, 0, 71, 73
2, 18030, Note_on_c, 0, 71, 0
2, 18074, Control_c, 0, 64, 32
2, 18089, Control_c, 0, 64, 47
2, 18104, Note_on_c, 0, 74, 87
2, 18105, Control_c, 0, 64, 53
2, 18120, Control_c, 0, 64, 58
2, 18138, Control_c, 0, 64, 62
2, 18152, Control_c, 0, 64, 65
2, 18153, Note_on_c, 0, 40, 0
2, 18154, Note_on_c, 0, 74, 0
2, 18160, Note_on_c, 0, 80, 0
2, 18168, Control_c, 0, 64, 68
2, 18183, Control_c, 0, 64, 74
2, 18197, Control_c, 0, 64, 80
2, 18213, Control_c, 0, 64, 86
2, 18228, Control_c, 0, 64, 91
2, 18243, Control_c, 0, 64, 95
2, 18253, Note_on_c, 0, 83, 87
2, 18259, Control_c, 0, 64, 95
2, 18259, Note_on_c, 0, 80, 79
2, 18273, Control_c, 0, 64, 95
2, 18289, Control_c, 0, 64, 93
2, 18305, Control_c, 0, 64, 90
2, 18311, Note_on_c, 0, 80, 0
2, 18320, Control_c, 0, 64, 87
2, 18336, Control_c, 0, 64, 82
2, 18351, Control_c, 0, 64, 76
2, 18367, Control_c, 0, 64, 72
2, 18381, Control_c, 0, 64, 69
2, 18396, Control_c, 0, 64, 66
2, 18398, Note_on_c, 0, 74, 86
2, 18420, Control_c, 0, 64, 63
2, 18435, Control_c, 0, 64, 57
2, 18450, Control_c, 0, 64, 43
2, 18452, Note_on_c, 0, 74, 0
2, 18465, Control_c, 0, 64, 0
2, 18470, Note_on_c, 0, 47, 64
2, 18549, Note_on_c, 0, 49, 64
2, 18550, Note_on_c, 0, 80, 75
2, 18555, Note_on_c, 0, 47, 0
2, 18598, Note_on_c, 0, 80, 0
2, 18613, Note_on_c, 0, 50, 70
2, 18619, Note_on_c, 0, 49, 0
2, 18692, Note_on_c, 0, 52, 71
2, 18696, Note_on_c, 0, 50, 0
2, 18698, Note_on_c, 0, 73, 81
2, 18763, Note_on_c, 0, 73, 0
2, 18850, Note_on_c, 0, 81, 80
2, 18860, Note_on_c, 0, 83, 0
2, 18875, Control_c, 0, 64, 49
2, 18891, Control_c, 0, 64, 60
2, 18906, Control_c, 0, 64, 64
2, 18920, Control_c, 0, 64, 69
2, 18921, Note_on_c, 0, 80, 75
2, 18936, Control_c, 0, 64, 76
2, 18948, Note_on_c, 0, 81, 0
2, 18951, Control_c, 0, 64, 86
2, 18967, Control_c, 0, 64, 101
2, 18981, Control_c, 0, 64, 127
2, 18984, Note_on_c, 0, 40, 64
2, 18985, Note_on_c, 0, 78, 80
2, 19016, Note_on_c, 0, 80, 0
2, 19026, Note_on_c, 0, 40, 0
2, 19036, Note_on_c, 0, 52, 0
2, 19037, Note_on_c, 0, 76, 72
2, 19041, Control_c, 0, 64, 118
2, 19043, Note_on_c, 0, 78, 0
2, 19057, Control_c, 0, 64, 110
2, 19064, Note_on_c, 0, 76, 0
2, 19072, Control_c, 0, 64, 103
2, 19088, Control_c, 0, 64, 96
2, 19103, Control_c, 0, 64, 86
2, 19119, Control_c, 0, 64, 76
2, 19130, Note_on_c, 0, 40, 59
2, 19135, Control_c, 0, 64, 66
2, 19149, Control_c, 0, 64, 58
2, 19156, Note_on_c, 0, 75, 76
2, 19162, Note_on_c, 0, 69, 65
2, 19164, Control_c, 0, 64, 41
2, 19187, Control_c, 0, 64, 0
2, 19196, Note_on_c, 0, 75, 0
2, 19295, Note_on_c, 0, 78, 80
2, 19337, Note_on_c, 0, 40, 0
2, 19354, Note_on_c, 0, 78, 0
2, 19392, Note_on_c, 0, 69, 0
2, 19435, Note_on_c, 0, 75, 78
2, 19449, Note_on_c, 0, 40, 62
2, 19482, Note_on_c, 0, 40, 0
2, 19497, Note_on_c, 0, 75, 0
2, 19576, Note_on_c, 0, 40, 55
2, 19582, Note_on_c, 0, 69, 53
2, 19587, Note_on_c, 0, 66, 62
2, 19654, Note_on_c, 0, 69, 0
2, 19725, Note_on_c, 0, 75, 75
2, 19764, Control_c, 0, 64, 30
2, 19770, Note_on_c, 0, 75, 0
2, 19780, Control_c, 0, 64, 44
2, 19795, Control_c, 0, 64, 48
2, 19811, Control_c, 0, 64, 51
2, 19818, Note_on_c, 0, 66, 0
2, 19825, Control_c, 0, 64, 53
2, 19840, Control_c, 0, 64, 54
2, 19864, Note_on_c, 0, 69, 71
2, 19871, Control_c, 0, 64, 52
2, 19887, Control_c, 0, 64, 49
2, 19897, Note_on_c, 0, 69, 0
2, 19901, Control_c, 0, 64, 46
2, 19916, Control_c, 0, 64, 42
2, 19932, Control_c, 0, 64, 40
2, 19955, Control_c, 0, 64, 36
2, 19971, Control_c, 0, 64, 27
2, 19986, Control_c, 0, 64, 0
2, 20019, Note_on_c, 0, 66, 72
2, 20032, Note_on_c, 0, 63, 61
2, 20076, Note_on_c, 0, 66, 0
2, 20163, Note_on_c, 0, 69, 70
2, 20222, Note_on_c, 0, 63, 0
2, 20232, Note_on_c, 0, 69, 0
2, 20303, Note_on_c, 0, 66, 70
2, 20319, Note_on_c, 0, 40, 0
2, 20321, Control_c, 0, 64, 12
2, 20367, Note_on_c, 0, 66, 0
2, 20427, Control_c, 0, 64, 0
2, 20452, Note_on_c, 0, 68, 72
2, 20456, Note_on_c, 0, 64, 61
2, 20605, Note_on_c, 0, 66, 70
2, 20621, Note_on_c, 0, 64, 0
2, 20642, Note_on_c, 0, 68, 0
2, 20667, Note_on_c, 0, 49, 61
2, 20743, Note_on_c, 0, 50, 68
2, 20744, Note_on_c, 0, 49, 0
2, 20764, Note_on_c, 0, 64, 62
2, 20768, Note_on_c, 0, 66, 0
2, 20811, Note_on_c, 0, 50, 0
2, 20819, Note_on_c, 0, 52, 62
2, 20897, Note_on_c, 0, 52, 0
2, 20901, Note_on_c, 0, 54, 56
2, 20901, Note_on_c, 0, 61, 71
2, 20904, Note_on_c, 0, 69, 59
2, 20931, Note_on_c, 0, 64, 0
2, 20964, Control_c, 0, 64, 28
2, 20964, Note_on_c, 0, 54, 0
2, 20980, Control_c, 0, 64, 38
2, 20995, Control_c, 0, 64, 40
2, 21026, Control_c, 0, 64, 39
2, 21027, Note_on_c, 0, 61, 0
2, 21041, Control_c, 0, 64, 34
2, 21052, Note_on_c, 0, 52, 74
2, 21052, Note_on_c, 0, 69, 0
2, 21057, Control_c, 0, 64, 25
2, 21072, Control_c, 0, 64, 8
2, 21086, Control_c, 0, 64, 0
2, 21117, Note_on_c, 0, 52, 0
2, 21196, Note_on_c, 0, 74, 74
2, 21197, Note_on_c, 0, 50, 61
2, 21200, Note_on_c, 0, 69, 67
2, 21241, Note_on_c, 0, 50, 0
2, 21245, Note_on_c, 0, 69, 0
2, 21261, Note_on_c, 0, 74, 0
2, 21356, Note_on_c, 0, 73, 62
2, 21359, Note_on_c, 0, 52, 42
2, 21374, Note_on_c, 0, 69, 50
2, 21450, Control_c, 0, 64, 33
2, 21466, Control_c, 0, 64, 53
2, 21489, Control_c, 0, 64, 61
2, 21505, Control_c, 0, 64, 66
2, 21519, Control_c, 0, 64, 71
2, 21535, Control_c, 0, 64, 80
2, 21550, Control_c, 0, 64, 92
2, 21565, Control_c, 0, 64, 105
2, 21571, Note_on_c, 0, 69, 0
2, 21576, Note_on_c, 0, 73, 0
2, 21581, Control_c, 0, 64, 118
2, 21597, Control_c, 0, 64, 120
2, 21627, Control_c, 0, 64, 119
2, 21642, Control_c, 0, 64, 114
2, 21658, Control_c, 0, 64, 108
2, 21673, Control_c, 0, 64, 103
2, 21687, Control_c, 0, 64, 98
2, 21703, Control_c, 0, 64, 91
2, 21718, Control_c, 0, 64, 84
2, 21722, Note_on_c, 0, 71, 51
2, 21724, Note_on_c, 0, 68, 61
2, 21734, Control_c, 0, 64, 77
2, 21744, Note_on_c, 0, 71, 0
2, 21748, Control_c, 0, 64, 71
2, 21751, Note_on_c, 0, 68, 0
2, 21763, Control_c, 0, 64, 65
2, 21777, Note_on_c, 0, 73, 66
2, 21779, Control_c, 0, 64, 62
2, 21794, Control_c, 0, 64, 56
2, 21809, Control_c, 0, 64, 48
2, 21818, Note_on_c, 0, 71, 67
2, 21824, Control_c, 0, 64, 34
2, 21835, Note_on_c, 0, 40, 48
2, 21839, Control_c, 0, 64, 0
2, 21851, Note_on_c, 0, 52, 0
2, 21873, Note_on_c, 0, 73, 0
2, 21998, Note_on_c, 0, 69, 65
2, 22019, Note_on_c, 0, 71, 0
2, 22035, Note_on_c, 0, 40, 0
2, 22058, Note_on_c, 0, 69, 0
2, 22136, Note_on_c, 0, 71, 63
2, 22203, Note_on_c, 0, 71, 0
2, 22294, Note_on_c, 0, 45, 42
2, 22296, Note_on_c, 0, 69, 61
2, 22464, Note_on_c, 0, 73, 68
2, 22466, Note_on_c, 0, 69, 0
2, 22540, Note_on_c, 0, 71, 69
2, 22557, Note_on_c, 0, 73, 0
2, 22596, Note_on_c, 0, 71, 0
2, 22624, Note_on_c, 0, 69, 57
2, 22626, Note_on_c, 0, 52, 57
2, 22637, Note_on_c, 0, 45, 0
2, 22656, Note_on_c, 0, 52, 0
2, 22701, Note_on_c, 0, 68, 77
2, 22710, Note_on_c, 0, 69, 0
2, 22781, Note_on_c, 0, 57, 60
2, 22815, Note_on_c, 0, 66, 72
2, 22816, Note_on_c, 0, 57, 0
2, 22826, Note_on_c, 0, 56, 61
2, 22830, Note_on_c, 0, 68, 0
2, 22867, Note_on_c, 0, 56, 0
2, 22894, Note_on_c, 0, 57, 63
2, 22959, Note_on_c, 0, 66, 0
2, 22968, Note_on_c, 0, 69, 70
2, 23058, Note_on_c, 0, 68, 75
2, 23096, Note_on_c, 0, 69, 0
2, 23120, Note_on_c, 0, 66, 77
2, 23145, Note_on_c, 0, 68, 0
2, 23182, Note_on_c, 0, 66, 0
2, 23196, Note_on_c, 0, 64, 74
2, 23266, Note_on_c, 0, 63, 81
2, 23276, Note_on_c, 0, 64, 0
2, 23316, Note_on_c, 0, 63, 0
2, 23396, Note_on_c, 0, 57, 0
2, 23415, Note_on_c, 0, 66, 81
2, 23423, Note_on_c, 0, 59, 62
2, 23467, Note_on_c, 0, 66, 0
2, 23489, Note_on_c, 0, 59, 0
2, 23516, Note_on_c, 0, 57, 53
2, 23549, Note_on_c, 0, 57, 0
2, 23557, Note_on_c, 0, 71, 79
2, 23566, Note_on_c, 0, 56, 65
2, 23612, Note_on_c, 0, 71, 0
2, 23636, Note_on_c, 0, 54, 61
2, 23645, Note_on_c, 0, 56, 0
2, 23698, Note_on_c, 0, 71, 82
2, 23714, Note_on_c, 0, 53, 68
2, 23717, Note_on_c, 0, 54, 0
2, 23846, Note_on_c, 0, 53, 0
2, 23849, Note_on_c, 0, 54, 57
2, 23861, Note_on_c, 0, 68, 72
2, 23887, Note_on_c, 0, 54, 0
2, 23904, Note_on_c, 0, 68, 0
2, 23946, Note_on_c, 0, 53, 62
2, 23982, Note_on_c, 0, 53, 0
2, 24008, Note_on_c, 0, 51, 90
2, 24016, Note_on_c, 0, 65, 58
2, 24075, Note_on_c, 0, 51, 0
2, 24086, Note_on_c, 0, 49, 62
2, 24144, Note_on_c, 0, 65, 0
2, 24156, Note_on_c, 0, 54, 62
2, 24159, Note_on_c, 0, 49, 0
2, 24162, Note_on_c, 0, 61, 69
2, 24221, Note_on_c, 0, 61, 0
2, 24315, Note_on_c, 0, 69, 69
2, 24343, Note_on_c, 0, 71, 0
2, 24385, Note_on_c, 0, 68, 76
2, 24413, Note_on_c, 0, 69, 0
2, 24453, Note_on_c, 0, 66, 76
2, 24459, Note_on_c, 0, 42, 48
2, 24462, Note_on_c, 0, 54, 0
2, 24481, Note_on_c, 0, 68, 0
2, 24487, Note_on_c, 0, 42, 0
2, 24510, Note_on_c, 0, 66, 0
2, 24529, Note_on_c, 0, 64, 69
2, 24604, Note_on_c, 0, 54, 61
2, 24616, Note_on_c, 0, 62, 68
2, 24642, Note_on_c, 0, 54, 0
2, 24643, Note_on_c, 0, 64, 0
2, 24670, Note_on_c, 0, 52, 66
2, 24728, Note_on_c, 0, 54, 55
2, 24732, Note_on_c, 0, 52, 0
2, 24753, Note_on_c, 0, 62, 0
2, 24773, Note_on_c, 0, 66, 68
2, 24846, Note_on_c, 0, 64, 71
2, 24881, Note_on_c, 0, 66, 0
2, 24898, Note_on_c, 0, 64, 0
2, 24909, Note_on_c, 0, 62, 57
2, 24950, Note_on_c, 0, 62, 0
2, 24975, Note_on_c, 0, 61, 71
2, 25043, Note_on_c, 0, 61, 0
2, 25049, Note_on_c, 0, 59, 78
2, 25089, Note_on_c, 0, 59, 0
2, 25178, Note_on_c, 0, 54, 0
2, 25206, Note_on_c, 0, 55, 64
2, 25207, Note_on_c, 0, 62, 72
2, 25237, Note_on_c, 0, 62, 0
2, 25278, Note_on_c, 0, 55, 0
2, 25293, Note_on_c, 0, 54, 52
2, 25330, Note_on_c, 0, 54, 0
2, 25357, Note_on_c, 0, 52, 62
2, 25359, Note_on_c, 0, 67, 73
2, 25395, Note_on_c, 0, 67, 0
2, 25411, Note_on_c, 0, 52, 0
2, 25431, Note_on_c, 0, 50, 59
2, 25507, Note_on_c, 0, 67, 68
2, 25521, Note_on_c, 0, 49, 60
2, 25532, Note_on_c, 0, 50, 0
2, 25639, Note_on_c, 0, 49, 0
2, 25668, Note_on_c, 0, 50, 61
2, 25670, Note_on_c, 0, 64, 63
2, 25720, Note_on_c, 0, 64, 0
2, 25722, Note_on_c, 0, 50, 0
2, 25750, Note_on_c, 0, 49, 63
2, 25790, Note_on_c, 0, 49, 0
2, 25813, Note_on_c, 0, 47, 66
2, 25819, Note_on_c, 0, 61, 61
2, 25853, Note_on_c, 0, 61, 0
2, 25883, Note_on_c, 0, 45, 65
2, 25898, Note_on_c, 0, 47, 0
2, 25957, Note_on_c, 0, 50, 61
2, 25958, Note_on_c, 0, 57, 65
2, 25976, Note_on_c, 0, 45, 0
2, 26073, Note_on_c, 0, 57, 0
2, 26126, Note_on_c, 0, 66, 59
2, 26187, Note_on_c, 0, 67, 0
2, 26201, Note_on_c, 0, 64, 67
2, 26226, Note_on_c, 0, 66, 0
2, 26232, Note_on_c, 0, 64, 0
2, 26264, Note_on_c, 0, 38, 56
2, 26264, Note_on_c, 0, 62, 62
2, 26276, Note_on_c, 0, 50, 0
2, 26297, Note_on_c, 0, 38, 0
2, 26307, Note_on_c, 0, 62, 0
2, 26332, Note_on_c, 0, 61, 71
2, 26406, Note_on_c, 0, 50, 50
2, 26419, Note_on_c, 0, 61, 0
2, 26433, Note_on_c, 0, 59, 65
2, 26440, Note_on_c, 0, 50, 0
2, 26469, Note_on_c, 0, 49, 60
2, 26521, Note_on_c, 0, 49, 0
2, 26529, Note_on_c, 0, 50, 59
2, 26553, Note_on_c, 0, 59, 0
2, 26573, Note_on_c, 0, 62, 63
2, 26648, Note_on_c, 0, 61, 67
2, 26676, Note_on_c, 0, 62, 0
2, 26713, Note_on_c, 0, 59, 71
2, 26740, Note_on_c, 0, 61, 0
2, 26756, Note_on_c, 0, 59, 0
2, 26784, Note_on_c, 0, 57, 72
2, 26860, Note_on_c, 0, 56, 75
2, 26875, Note_on_c, 0, 57, 0
2, 26925, Note_on_c, 0, 56, 0
2, 26987, Note_on_c, 0, 50, 0
2, 27002, Note_on_c, 0, 52, 64
2, 27008, Note_on_c, 0, 59, 78
2, 27055, Note_on_c, 0, 59, 0
2, 27082, Note_on_c, 0, 52, 0
2, 27100, Note_on_c, 0, 50, 65
2, 27137, Note_on_c, 0, 50, 0
2, 27150, Note_on_c, 0, 49, 66
2, 27159, Note_on_c, 0, 64, 78
2, 27195, Note_on_c, 0, 64, 0
2, 27236, Note_on_c, 0, 47, 64
2, 27253, Note_on_c, 0, 49, 0
2, 27308, Note_on_c, 0, 47, 0
2, 27308, Note_on_c, 0, 61, 79
2, 27311, Note_on_c, 0, 45, 69
2, 27407, Note_on_c, 0, 61, 0
2, 27447, Note_on_c, 0, 47, 64
2, 27458, Note_on_c, 0, 45, 0
2, 27468, Note_on_c, 0, 64, 78
2, 27516, Note_on_c, 0, 49, 61
2, 27516, Note_on_c, 0, 64, 0
2, 27535, Note_on_c, 0, 47, 0
2, 27582, Note_on_c, 0, 50, 70
2, 27587, Note_on_c, 0, 49, 0
2, 27611, Note_on_c, 0, 69, 75
2, 27629, Note_on_c, 0, 50, 0
2, 27670, Note_on_c, 0, 52, 69
2, 27676, Note_on_c, 0, 69, 0
2, 27762, Note_on_c, 0, 54, 62
2, 27765, Note_on_c, 0, 62, 72
2, 27776, Note_on_c, 0, 52, 0
2, 27923, Note_on_c, 0, 54, 0
2, 27926, Note_on_c, 0, 52, 72
2, 27967, Note_on_c, 0, 62, 0
2, 28073, Note_on_c, 0, 71, 71
2, 28075, Note_on_c, 0, 50, 59
2, 28079, Note_on_c, 0, 52, 0
2, 28083, Note_on_c, 0, 62, 56
2, 28115, Note_on_c, 0, 71, 0
2, 28116, Note_on_c, 0, 62, 0
2, 28238, Note_on_c, 0, 52, 48
2, 28239, Note_on_c, 0, 64, 67
2, 28240, Note_on_c, 0, 61, 64
2, 28283, Note_on_c, 0, 50, 0
2, 28348, Note_on_c, 0, 61, 0
2, 28405, Note_on_c, 0, 69, 70
2, 28428, Note_on_c, 0, 64, 0
2, 28472, Note_on_c, 0, 69, 0
2, 28551, Note_on_c, 0, 68, 66
2, 28556, Note_on_c, 0, 40, 62
2, 28566, Note_on_c, 0, 59, 59
2, 28591, Note_on_c, 0, 40, 0
2, 28603, Note_on_c, 0, 68, 0
2, 28613, Note_on_c, 0, 59, 0
2, 28615, Note_on_c, 0, 52, 0
2, 28714, Note_on_c, 0, 61, 60
2, 28714, Note_on_c, 0, 69, 58
2, 28720, Note_on_c, 0, 45, 70
2, 28756, Note_on_c, 0, 45, 0
2, 28877, Note_on_c, 0, 49, 72
2, 28909, Note_on_c, 0, 49, 0
2, 29044, Note_on_c, 0, 52, 76
2, 29074, Note_on_c, 0, 52, 0
2, 29229, Control_c, 0, 64, 34
2, 29243, Control_c, 0, 64, 48
2, 29259, Control_c, 0, 64, 57
2, 29264, Note_on_c, 0, 57, 67
2, 29274, Control_c, 0, 64, 62
2, 29289, Control_c, 0, 64, 66
2, 29295, Note_on_c, 0, 69, 0
2, 29303, Note_on_c, 0, 57, 0
2, 29305, Control_c, 0, 64, 70
2, 29308, Note_on_c, 0, 61, 0
2, 29320, Control_c, 0, 64, 78
2, 29336, Control_c, 0, 64, 87
2, 29351, Control_c, 0, 64, 97
2, 29366, Control_c, 0, 64, 109
2, 29382, Control_c, 0, 64, 114
2, 29427, Control_c, 0, 64, 112
2, 29441, Control_c, 0, 64, 110
2, 29457, Control_c, 0, 64, 108
2, 29472, Control_c, 0, 64, 105
2, 29487, Control_c, 0, 64, 103
2, 29503, Control_c, 0, 64, 99
2, 29517, Control_c, 0, 64, 94
2, 29532, Control_c, 0, 64, 88
2, 29548, Control_c, 0, 64, 83
2, 29563, Control_c, 0, 64, 80
2, 29579, Control_c, 0, 64, 77
2, 29593, Control_c, 0, 64, 75
2, 29608, Control_c, 0, 64, 73
2, 29624, Control_c, 0, 64, 71
2, 29639, Control_c, 0, 64, 67
2, 29653, Control_c, 0, 64, 63
2, 29669, Control_c, 0, 64, 58
2, 29684, Control_c, 0, 64, 53
2, 29700, Control_c, 0, 64, 43
2, 29715, Control_c, 0, 64, 0
2, 29867, Note_on_c, 0, 57, 85
2, 29871, Note_on_c, 0, 45, 77
2, 30089, Note_on_c, 0, 76, 86
2, 30171, Note_on_c, 0, 74, 80
2, 30199, Note_on_c, 0, 76, 0
2, 30246, Note_on_c, 0, 73, 82
2, 30271, Note_on_c, 0, 74, 0
2, 30314, Note_on_c, 0, 71, 79
2, 30344, Note_on_c, 0, 73, 0
2, 30384, Note_on_c, 0, 69, 81
2, 30390, Note_on_c, 0, 71, 0
2, 30433, Note_on_c, 0, 69, 0
2, 30530, Note_on_c, 0, 73, 82
2, 30570, Note_on_c, 0, 57, 0
2, 30598, Note_on_c, 0, 73, 0
2, 30677, Note_on_c, 0, 69, 78
2, 30743, Note_on_c, 0, 69, 0
2, 30834, Note_on_c, 0, 64, 77
2, 30895, Note_on_c, 0, 64, 0
2, 30973, Note_on_c, 0, 69, 79
2, 31034, Note_on_c, 0, 69, 0
2, 31041, Note_on_c, 0, 45, 0
2, 31116, Note_on_c, 0, 64, 78
2, 31178, Note_on_c, 0, 64, 0
2, 31247, Note_on_c, 0, 61, 76
2, 31320, Note_on_c, 0, 61, 0
2, 31399, Note_on_c, 0, 64, 81
2, 31471, Note_on_c, 0, 64, 0
2, 31518, Control_c, 0, 64, 32
2, 31533, Control_c, 0, 64, 43
2, 31549, Control_c, 0, 64, 49
2, 31549, Note_on_c, 0, 61, 76
2, 31564, Control_c, 0, 64, 53
2, 31580, Control_c, 0, 64, 55
2, 31608, Note_on_c, 0, 61, 0
2, 31626, Control_c, 0, 64, 54
2, 31656, Control_c, 0, 64, 55
2, 31699, Note_on_c, 0, 57, 65
2, 31702, Control_c, 0, 64, 54
2, 31717, Control_c, 0, 64, 48
2, 31731, Control_c, 0, 64, 35
2, 31747, Control_c, 0, 64, 0
2, 31858, Note_on_c, 0, 69, 68
2, 31909, Note_on_c, 0, 57, 0
2, 31913, Control_c, 0, 64, 25
2, 31914, Note_on_c, 0, 69, 0
2, 31928, Control_c, 0, 64, 48
2, 31937, Note_on_c, 0, 71, 70
2, 31944, Control_c, 0, 64, 53
2, 31998, Note_on_c, 0, 73, 78
2, 32004, Control_c, 0, 64, 52
2, 32005, Note_on_c, 0, 71, 0
2, 32020, Control_c, 0, 64, 50
2, 32035, Control_c, 0, 64, 48
2, 32050, Control_c, 0, 64, 46
2, 32066, Note_on_c, 0, 74, 76
2, 32081, Control_c, 0, 64, 47
2, 32093, Note_on_c, 0, 73, 0
2, 32126, Control_c, 0, 64, 46
2, 32132, Note_on_c, 0, 61, 57
2, 32141, Note_on_c, 0, 76, 77
2, 32142, Control_c, 0, 64, 46
2, 32142, Note_on_c, 0, 57, 46
2, 32142, Note_on_c, 0, 69, 50
2, 32157, Control_c, 0, 64, 45
2, 32172, Control_c, 0, 64, 43
2, 32177, Note_on_c, 0, 74, 0
2, 32187, Control_c, 0, 64, 38
2, 32196, Note_on_c, 0, 76, 0
2, 32202, Control_c, 0, 64, 25
2, 32218, Control_c, 0, 64, 0
2, 32301, Note_on_c, 0, 73, 81
2, 32366, Note_on_c, 0, 73, 0
2, 32393, Control_c, 0, 64, 40
2, 32408, Control_c, 0, 64, 52
2, 32424, Control_c, 0, 64, 57
2, 32439, Control_c, 0, 64, 60
2, 32445, Note_on_c, 0, 76, 76
2, 32453, Control_c, 0, 64, 62
2, 32469, Control_c, 0, 64, 63
2, 32484, Control_c, 0, 64, 63
2, 32492, Note_on_c, 0, 69, 0
2, 32500, Note_on_c, 0, 61, 0
2, 32503, Note_on_c, 0, 57, 0
2, 32512, Note_on_c, 0, 76, 0
2, 32545, Control_c, 0, 64, 64
2, 32560, Control_c, 0, 64, 64
2, 32576, Control_c, 0, 64, 66
2, 32606, Control_c, 0, 64, 65
2, 32621, Control_c, 0, 64, 64
2, 32625, Note_on_c, 0, 81, 53
2, 32628, Note_on_c, 0, 69, 40
2, 32630, Note_on_c, 0, 57, 48
2, 32634, Note_on_c, 0, 61, 40
2, 32634, Note_on_c, 0, 79, 54
2, 32636, Control_c, 0, 64, 63
2, 32651, Control_c, 0, 64, 63
2, 32664, Note_on_c, 0, 61, 0
2, 32665, Note_on_c, 0, 69, 0
2, 32667, Control_c, 0, 64, 64
2, 32668, Note_on_c, 0, 79, 0
2, 32677, Note_on_c, 0, 81, 0
2, 32682, Control_c, 0, 64, 64
2, 32697, Control_c, 0, 64, 65
2, 32705, Note_on_c, 0, 76, 62
2, 32712, Control_c, 0, 64, 65
2, 32727, Control_c, 0, 64, 66
2, 32742, Control_c, 0, 64, 65
2, 32757, Control_c, 0, 64, 65
2, 32771, Note_on_c, 0, 78, 73
2, 32788, Control_c, 0, 64, 66
2, 32792, Note_on_c, 0, 76, 0
2, 32803, Control_c, 0, 64, 66
2, 32818, Control_c, 0, 64, 67
2, 32833, Control_c, 0, 64, 69
2, 32846, Note_on_c, 0, 71, 48
2, 32848, Control_c, 0, 64, 70
2, 32848, Note_on_c, 0, 62, 50
2, 32855, Note_on_c, 0, 80, 71
2, 32864, Control_c, 0, 64, 70
2, 32864, Note_on_c, 0, 57, 0
2, 32869, Note_on_c, 0, 78, 0
2, 32895, Control_c, 0, 64, 71
2, 32921, Note_on_c, 0, 62, 0
2, 32925, Note_on_c, 0, 80, 0
2, 32926, Note_on_c, 0, 81, 77
2, 32930, Note_on_c, 0, 71, 0
2, 33016, Note_on_c, 0, 80, 76
2, 33018, Note_on_c, 0, 81, 0
2, 33024, Control_c, 0, 64, 70
2, 33055, Control_c, 0, 64, 70
2, 33070, Control_c, 0, 64, 69
2, 33085, Control_c, 0, 64, 67
2, 33099, Note_on_c, 0, 80, 0
2, 33101, Control_c, 0, 64, 64
2, 33101, Note_on_c, 0, 81, 78
2, 33105, Note_on_c, 0, 71, 55
2, 33106, Note_on_c, 0, 62, 51
2, 33116, Control_c, 0, 64, 61
2, 33130, Control_c, 0, 64, 56
2, 33146, Control_c, 0, 64, 50
2, 33161, Control_c, 0, 64, 39
2, 33169, Note_on_c, 0, 71, 0
2, 33176, Note_on_c, 0, 81, 0
2, 33177, Control_c, 0, 64, 12
2, 33182, Note_on_c, 0, 76, 73
2, 33191, Control_c, 0, 64, 0
2, 33264, Note_on_c, 0, 78, 78
2, 33279, Note_on_c, 0, 76, 0
2, 33338, Note_on_c, 0, 80, 77
2, 33350, Note_on_c, 0, 64, 65
2, 33350, Note_on_c, 0, 73, 63
2, 33375, Note_on_c, 0, 78, 0
2, 33416, Note_on_c, 0, 81, 83
2, 33417, Note_on_c, 0, 80, 0
2, 33420, Note_on_c, 0, 62, 0
2, 33446, Note_on_c, 0, 73, 0
2, 33451, Note_on_c, 0, 64, 0
2, 33465, Control_c, 0, 64, 48
2, 33480, Control_c, 0, 64, 59
2, 33496, Control_c, 0, 64, 65
2, 33506, Note_on_c, 0, 80, 80
2, 33511, Control_c, 0, 64, 70
2, 33524, Note_on_c, 0, 81, 0
2, 33526, Control_c, 0, 64, 79
2, 33541, Control_c, 0, 64, 88
2, 33556, Control_c, 0, 64, 99
2, 33571, Control_c, 0, 64, 111
2, 33584, Note_on_c, 0, 64, 61
2, 33587, Control_c, 0, 64, 117
2, 33599, Note_on_c, 0, 81, 83
2, 33601, Control_c, 0, 64, 123
2, 33616, Note_on_c, 0, 64, 0
2, 33617, Control_c, 0, 64, 127
2, 33634, Note_on_c, 0, 80, 0
2, 33761, Note_on_c, 0, 80, 71
2, 33786, Note_on_c, 0, 64, 75
2, 33787, Note_on_c, 0, 81, 0
2, 33825, Note_on_c, 0, 64, 0
2, 33849, Note_on_c, 0, 78, 76
2, 33852, Control_c, 0, 64, 118
2, 33855, Note_on_c, 0, 62, 48
2, 33868, Control_c, 0, 64, 112
2, 33884, Control_c, 0, 64, 107
2, 33884, Note_on_c, 0, 80, 0
2, 33897, Note_on_c, 0, 62, 0
2, 33899, Control_c, 0, 64, 102
2, 33905, Note_on_c, 0, 61, 75
2, 33914, Control_c, 0, 64, 96
2, 33929, Control_c, 0, 64, 88
2, 33929, Note_on_c, 0, 76, 75
2, 33945, Control_c, 0, 64, 79
2, 33946, Note_on_c, 0, 78, 0
2, 33960, Control_c, 0, 64, 71
2, 33973, Note_on_c, 0, 76, 0
2, 33975, Control_c, 0, 64, 65
2, 33990, Control_c, 0, 64, 60
2, 34000, Note_on_c, 0, 74, 69
2, 34005, Control_c, 0, 64, 51
2, 34007, Note_on_c, 0, 61, 0
2, 34008, Note_on_c, 0, 59, 57
2, 34021, Control_c, 0, 64, 37
2, 34035, Control_c, 0, 64, 0
2, 34065, Note_on_c, 0, 59, 0
2, 34066, Note_on_c, 0, 74, 0
2, 34067, Note_on_c, 0, 57, 46
2, 34072, Note_on_c, 0, 73, 77
2, 34097, Note_on_c, 0, 57, 0
2, 34145, Note_on_c, 0, 73, 0
2, 34145, Note_on_c, 0, 74, 75
2, 34205, Note_on_c, 0, 61, 62
2, 34223, Note_on_c, 0, 76, 75
2, 34225, Note_on_c, 0, 74, 0
2, 34233, Note_on_c, 0, 61, 0
2, 34300, Note_on_c, 0, 74, 76
2, 34321, Note_on_c, 0, 76, 0
2, 34338, Note_on_c, 0, 57, 58
2, 34362, Note_on_c, 0, 57, 0
2, 34362, Note_on_c, 0, 73, 71
2, 34391, Note_on_c, 0, 74, 0
2, 34425, Note_on_c, 0, 71, 72
2, 34451, Note_on_c, 0, 73, 0
2, 34469, Note_on_c, 0, 71, 0
2, 34481, Note_on_c, 0, 52, 63
2, 34500, Note_on_c, 0, 69, 72
2, 34509, Note_on_c, 0, 52, 0
2, 34543, Note_on_c, 0, 69, 0
2, 34567, Note_on_c, 0, 71, 70
2, 34606, Note_on_c, 0, 71, 0
2, 34634, Note_on_c, 0, 57, 58
2, 34639, Note_on_c, 0, 69, 70
2, 34659, Note_on_c, 0, 57, 0
2, 34667, Note_on_c, 0, 69, 0
2, 34681, Note_on_c, 0, 71, 63
2, 34713, Note_on_c, 0, 71, 0
2, 34751, Note_on_c, 0, 69, 54
2, 34771, Note_on_c, 0, 52, 70
2, 34797, Note_on_c, 0, 52, 0
2, 34811, Note_on_c, 0, 69, 0
2, 34829, Note_on_c, 0, 69, 22
2, 34829, Note_on_c, 0, 71, 54
2, 34869, Note_on_c, 0, 69, 0
2, 34878, Note_on_c, 0, 71, 0
2, 34905, Note_on_c, 0, 49, 68
2, 34915, Note_on_c, 0, 69, 49
2, 34929, Note_on_c, 0, 71, 43
2, 34930, Note_on_c, 0, 49, 0
2, 34957, Note_on_c, 0, 71, 0
2, 34961, Note_on_c, 0, 69, 0
2, 34975, Note_on_c, 0, 69, 52
2, 35004, Note_on_c, 0, 69, 0
2, 35008, Note_on_c, 0, 71, 60
2, 35037, Note_on_c, 0, 71, 0
2, 35052, Note_on_c, 0, 52, 72
2, 35067, Note_on_c, 0, 69, 65
2, 35077, Note_on_c, 0, 52, 0
2, 35092, Control_c, 0, 64, 34
2, 35097, Note_on_c, 0, 69, 0
2, 35105, Note_on_c, 0, 71, 46
2, 35108, Control_c, 0, 64, 48
2, 35123, Control_c, 0, 64, 56
2, 35129, Note_on_c, 0, 71, 0
2, 35139, Control_c, 0, 64, 62
2, 35153, Control_c, 0, 64, 65
2, 35168, Control_c, 0, 64, 70
2, 35182, Note_on_c, 0, 71, 40
2, 35184, Control_c, 0, 64, 75
2, 35196, Note_on_c, 0, 49, 68
2, 35198, Control_c, 0, 64, 82
2, 35213, Control_c, 0, 64, 88
2, 35220, Note_on_c, 0, 71, 0
2, 35221, Note_on_c, 0, 49, 0
2, 35229, Control_c, 0, 64, 91
2, 35244, Control_c, 0, 64, 92
2, 35255, Note_on_c, 0, 69, 65
2, 35260, Control_c, 0, 64, 89
2, 35274, Control_c, 0, 64, 85
2, 35289, Control_c, 0, 64, 79
2, 35313, Control_c, 0, 64, 71
2, 35327, Control_c, 0, 64, 65
2, 35343, Control_c, 0, 64, 58
2, 35358, Control_c, 0, 64, 51
2, 35366, Note_on_c, 0, 45, 65
2, 35373, Control_c, 0, 64, 41
2, 35389, Control_c, 0, 64, 0
2, 35393, Note_on_c, 0, 69, 0
2, 35459, Note_on_c, 0, 71, 57
2, 35532, Note_on_c, 0, 69, 58
2, 35557, Note_on_c, 0, 71, 0
2, 35572, Control_c, 0, 64, 35
2, 35587, Control_c, 0, 64, 44
2, 35596, Note_on_c, 0, 69, 0
2, 35602, Control_c, 0, 64, 49
2, 35613, Note_on_c, 0, 68, 71
2, 35617, Note_on_c, 0, 45, 0
2, 35618, Control_c, 0, 64, 51
2, 35633, Control_c, 0, 64, 51
2, 35647, Control_c, 0, 64, 51
2, 35663, Control_c, 0, 64, 48
2, 35678, Control_c, 0, 64, 45
2, 35693, Control_c, 0, 64, 42
2, 35695, Note_on_c, 0, 68, 0
2, 35701, Note_on_c, 0, 69, 57
2, 35709, Control_c, 0, 64, 37
2, 35723, Control_c, 0, 64, 27
2, 35723, Note_on_c, 0, 69, 0
2, 35739, Control_c, 0, 64, 12
2, 35754, Control_c, 0, 64, 0
2, 35760, Note_on_c, 0, 64, 67
2, 35820, Note_on_c, 0, 49, 51
2, 35835, Note_on_c, 0, 45, 48
2, 35836, Note_on_c, 0, 64, 0
2, 35838, Note_on_c, 0, 61, 68
2, 35912, Note_on_c, 0, 61, 0
2, 35917, Note_on_c, 0, 66, 65
2, 35991, Note_on_c, 0, 64, 69
2, 36025, Note_on_c, 0, 66, 0
2, 36041, Note_on_c, 0, 64, 0
2, 36074, Note_on_c, 0, 62, 61
2, 36096, Note_on_c, 0, 45, 0
2, 36105, Note_on_c, 0, 49, 0
2, 36141, Note_on_c, 0, 62, 0
2, 36148, Note_on_c, 0, 64, 75
2, 36156, Control_c, 0, 64, 13
2, 36171, Control_c, 0, 64, 18
2, 36187, Control_c, 0, 64, 19
2, 36223, Note_on_c, 0, 61, 68
2, 36231, Note_on_c, 0, 64, 0
2, 36269, Note_on_c, 0, 61, 0
2, 36298, Note_on_c, 0, 57, 57
2, 36314, Note_on_c, 0, 49, 56
2, 36327, Note_on_c, 0, 45, 45
2, 36349, Note_on_c, 0, 57, 0
2, 36367, Note_on_c, 0, 59, 66
2, 36410, Note_on_c, 0, 59, 0
2, 36417, Control_c, 0, 64, 22
2, 36431, Control_c, 0, 64, 25
2, 36446, Control_c, 0, 64, 28
2, 36452, Note_on_c, 0, 57, 60
2, 36462, Control_c, 0, 64, 30
2, 36477, Control_c, 0, 64, 32
2, 36481, Note_on_c, 0, 57, 0
2, 36491, Control_c, 0, 64, 33
2, 36507, Control_c, 0, 64, 35
2, 36508, Note_on_c, 0, 59, 48
2, 36520, Note_on_c, 0, 50, 49
2, 36522, Control_c, 0, 64, 36
2, 36523, Note_on_c, 0, 47, 52
2, 36538, Control_c, 0, 64, 36
2, 36545, Note_on_c, 0, 59, 0
2, 36553, Control_c, 0, 64, 37
2, 36567, Control_c, 0, 64, 38
2, 36572, Note_on_c, 0, 57, 58
2, 36578, Note_on_c, 0, 49, 0
2, 36583, Control_c, 0, 64, 41
2, 36589, Note_on_c, 0, 45, 0
2, 36598, Control_c, 0, 64, 44
2, 36606, Note_on_c, 0, 50, 0
2, 36608, Note_on_c, 0, 57, 0
2, 36612, Control_c, 0, 64, 46
2, 36615, Note_on_c, 0, 47, 0
2, 36628, Control_c, 0, 64, 47
2, 36628, Note_on_c, 0, 59, 60
2, 36659, Control_c, 0, 64, 48
2, 36666, Note_on_c, 0, 59, 0
2, 36688, Control_c, 0, 64, 47
2, 36692, Note_on_c, 0, 57, 64
2, 36704, Control_c, 0, 64, 46
2, 36719, Control_c, 0, 64, 42
2, 36731, Note_on_c, 0, 57, 0
2, 36732, Note_on_c, 0, 50, 57
2, 36735, Control_c, 0, 64, 36
2, 36738, Note_on_c, 0, 47, 58
2, 36741, Note_on_c, 0, 59, 64
2, 36750, Control_c, 0, 64, 31
2, 36764, Control_c, 0, 64, 28
2, 36775, Note_on_c, 0, 59, 0
2, 36780, Control_c, 0, 64, 26
2, 36795, Control_c, 0, 64, 23
2, 36810, Control_c, 0, 64, 15
2, 36815, Note_on_c, 0, 57, 56
2, 36826, Control_c, 0, 64, 0
2, 36889, Note_on_c, 0, 57, 0
2, 36892, Note_on_c, 0, 59, 33
2, 36965, Note_on_c, 0, 57, 30
2, 36979, Note_on_c, 0, 59, 0
2, 36988, Note_on_c, 0, 52, 54
2, 36997, Note_on_c, 0, 59, 41
2, 37006, Note_on_c, 0, 49, 52
2, 37007, Note_on_c, 0, 57, 0
2, 37034, Note_on_c, 0, 50, 0
2, 37040, Note_on_c, 0, 59, 0
2, 37062, Control_c, 0, 64, 33
2, 37064, Note_on_c, 0, 47, 0
2, 37068, Note_on_c, 0, 57, 34
2, 37077, Control_c, 0, 64, 48
2, 37091, Control_c, 0, 64, 56
2, 37096, Note_on_c, 0, 52, 0
2, 37103, Note_on_c, 0, 49, 0
2, 37107, Control_c, 0, 64, 61
2, 37122, Control_c, 0, 64, 64
2, 37125, Note_on_c, 0, 57, 0
2, 37125, Note_on_c, 0, 57, 4
2, 37138, Control_c, 0, 64, 68
2, 37153, Control_c, 0, 64, 74
2, 37168, Control_c, 0, 64, 80
2, 37179, Note_on_c, 0, 57, 0
2, 37184, Control_c, 0, 64, 86
2, 37199, Control_c, 0, 64, 90
2, 37215, Control_c, 0, 64, 92
2, 37230, Control_c, 0, 64, 93
2, 37244, Control_c, 0, 64, 92
2, 37247, Note_on_c, 0, 52, 57
2, 37256, Note_on_c, 0, 49, 49
2, 37260, Control_c, 0, 64, 91
2, 37275, Control_c, 0, 64, 90
2, 37290, Control_c, 0, 64, 87
2, 37306, Control_c, 0, 64, 84
2, 37320, Control_c, 0, 64, 79
2, 37336, Control_c, 0, 64, 74
2, 37351, Control_c, 0, 64, 69
2, 37366, Control_c, 0, 64, 64
2, 37382, Control_c, 0, 64, 60
2, 37397, Control_c, 0, 64, 56
2, 37411, Control_c, 0, 64, 50
2, 37427, Control_c, 0, 64, 39
2, 37442, Control_c, 0, 64, 0
2, 37451, Note_on_c, 0, 57, 52
2, 37487, Control_c, 0, 67, 11
2, 37496, Note_on_c, 0, 57, 0
2, 37503, Control_c, 0, 67, 15
2, 37518, Control_c, 0, 67, 17
2, 37521, Note_on_c, 0, 59, 54
2, 37532, Control_c, 0, 67, 17
2, 37548, Control_c, 0, 67, 17
2, 37563, Control_c, 0, 67, 16
2, 37579, Note_on_c, 0, 59, 0
2, 37585, Note_on_c, 0, 61, 55
2, 37587, Note_on_c, 0, 49, 0
2, 37617, Control_c, 0, 67, 15
2, 37628, Note_on_c, 0, 52, 0
2, 37632, Control_c, 0, 67, 14
2, 37644, Note_on_c, 0, 61, 0
2, 37647, Control_c, 0, 67, 14
2, 37651, Note_on_c, 0, 62, 58
2, 37662, Control_c, 0, 67, 13
2, 37677, Control_c, 0, 67, 13
2, 37692, Control_c, 0, 67, 12
2, 37708, Control_c, 0, 67, 12
2, 37723, Control_c, 0, 67, 11
2, 37733, Note_on_c, 0, 64, 69
2, 37738, Control_c, 0, 67, 10
2, 37749, Note_on_c, 0, 62, 0
2, 37753, Control_c, 0, 67, 9
2, 37768, Control_c, 0, 67, 9
2, 37780, Note_on_c, 0, 64, 0
2, 37784, Control_c, 0, 67, 8
2, 37799, Control_c, 0, 67, 8
2, 37813, Control_c, 0, 67, 0
2, 37883, Note_on_c, 0, 61, 70
2, 37939, Note_on_c, 0, 61, 0
2, 38032, Note_on_c, 0, 64, 64
2, 38043, Note_on_c, 0, 57, 45
2, 38088, Note_on_c, 0, 64, 0
2, 38168, Note_on_c, 0, 57, 0
2, 38179, Note_on_c, 0, 67, 62
2, 38204, Note_on_c, 0, 59, 45
2, 38263, Note_on_c, 0, 59, 0
2, 38278, Note_on_c, 0, 67, 0
2, 38365, Note_on_c, 0, 76, 64
2, 38381, Note_on_c, 0, 61, 53
2, 38430, Note_on_c, 0, 61, 0
2, 38451, Note_on_c, 0, 74, 68
2, 38453, Note_on_c, 0, 76, 0
2, 38465, Note_on_c, 0, 59, 49
2, 38499, Note_on_c, 0, 59, 0
2, 38520, Note_on_c, 0, 73, 65
2, 38525, Note_on_c, 0, 57, 50
2, 38538, Note_on_c, 0, 74, 0
2, 38585, Note_on_c, 0, 71, 64
2, 38586, Note_on_c, 0, 57, 0
2, 38592, Note_on_c, 0, 59, 55
2, 38606, Note_on_c, 0, 73, 0
2, 38640, Note_on_c, 0, 59, 0
2, 38650, Note_on_c, 0, 69, 70
2, 38657, Note_on_c, 0, 61, 60
2, 38662, Note_on_c, 0, 71, 0
2, 38679, Note_on_c, 0, 61, 0
2, 38700, Note_on_c, 0, 69, 0
2, 38810, Note_on_c, 0, 76, 75
2, 38815, Note_on_c, 0, 62, 57
2, 38855, Note_on_c, 0, 62, 0
2, 38870, Note_on_c, 0, 76, 0
2, 38891, Note_on_c, 0, 61, 62
2, 38932, Note_on_c, 0, 61, 0
2, 38960, Note_on_c, 0, 67, 60
2, 38971, Note_on_c, 0, 59, 54
2, 38994, Note_on_c, 0, 67, 0
2, 39021, Note_on_c, 0, 59, 0
2, 39038, Note_on_c, 0, 61, 65
2, 39071, Note_on_c, 0, 61, 0
2, 39097, Note_on_c, 0, 66, 69
2, 39107, Note_on_c, 0, 62, 46
2, 39125, Note_on_c, 0, 66, 0
2, 39182, Note_on_c, 0, 62, 0
2, 39274, Note_on_c, 0, 62, 65
2, 39309, Note_on_c, 0, 62, 0
2, 39339, Note_on_c, 0, 64, 69
2, 39408, Note_on_c, 0, 64, 0
2, 39409, Note_on_c, 0, 66, 70
2, 39479, Note_on_c, 0, 66, 0
2, 39479, Note_on_c, 0, 67, 69
2, 39552, Note_on_c, 0, 69, 68
2, 39578, Note_on_c, 0, 67, 0
2, 39597, Note_on_c, 0, 69, 0
2, 39701, Note_on_c, 0, 66, 74
2, 39763, Note_on_c, 0, 66, 0
2, 39849, Note_on_c, 0, 50, 51
2, 39852, Note_on_c, 0, 69, 70
2, 39921, Note_on_c, 0, 50, 0
2, 39921, Note_on_c, 0, 69, 0
2, 40005, Note_on_c, 0, 72, 81
2, 40028, Note_on_c, 0, 52, 49
2, 40076, Note_on_c, 0, 52, 0
2, 40097, Note_on_c, 0, 72, 0
2, 40173, Note_on_c, 0, 81, 77
2, 40186, Note_on_c, 0, 54, 51
2, 40232, Note_on_c, 0, 54, 0
2, 40253, Note_on_c, 0, 79, 77
2, 40259, Note_on_c, 0, 52, 61
2, 40266, Note_on_c, 0, 81, 0
2, 40295, Note_on_c, 0, 52, 0
2, 40321, Note_on_c, 0, 78, 73
2, 40326, Note_on_c, 0, 50, 55
2, 40351, Note_on_c, 0, 79, 0
2, 40388, Note_on_c, 0, 76, 76
2, 40397, Note_on_c, 0, 52, 56
2, 40418, Note_on_c, 0, 50, 0
2, 40427, Note_on_c, 0, 78, 0
2, 40459, Note_on_c, 0, 52, 0
2, 40462, Note_on_c, 0, 74, 80
2, 40466, Note_on_c, 0, 54, 61
2, 40479, Note_on_c, 0, 76, 0
2, 40492, Note_on_c, 0, 54, 0
2, 40515, Note_on_c, 0, 74, 0
2, 40617, Note_on_c, 0, 55, 65
2, 40620, Note_on_c, 0, 81, 81
2, 40675, Note_on_c, 0, 55, 0
2, 40675, Note_on_c, 0, 81, 0
2, 40700, Note_on_c, 0, 54, 56
2, 40751, Note_on_c, 0, 54, 0
2, 40772, Note_on_c, 0, 52, 64
2, 40777, Note_on_c, 0, 72, 76
2, 40828, Note_on_c, 0, 72, 0
2, 40852, Note_on_c, 0, 52, 0
2, 40856, Note_on_c, 0, 54, 59
2, 40926, Note_on_c, 0, 55, 64
2, 40927, Note_on_c, 0, 71, 75
2, 40931, Note_on_c, 0, 54, 0
2, 40953, Note_on_c, 0, 55, 0
2, 41096, Note_on_c, 0, 59, 60
2, 41137, Note_on_c, 0, 59, 0
2, 41161, Note_on_c, 0, 57, 54
2, 41210, Note_on_c, 0, 57, 0
2, 41229, Note_on_c, 0, 55, 58
2, 41242, Note_on_c, 0, 69, 51
2, 41266, Note_on_c, 0, 69, 0
2, 41311, Note_on_c, 0, 54, 48
2, 41354, Note_on_c, 0, 55, 0
2, 41369, Note_on_c, 0, 52, 63
2, 41372, Note_on_c, 0, 69, 60
2, 41387, Note_on_c, 0, 54, 0
2, 41398, Note_on_c, 0, 52, 0
2, 41413, Note_on_c, 0, 69, 0
2, 41439, Note_on_c, 0, 67, 59
2, 41480, Note_on_c, 0, 67, 0
2, 41499, Note_on_c, 0, 69, 67
2, 41553, Note_on_c, 0, 55, 55
2, 41555, Note_on_c, 0, 67, 63
2, 41558, Note_on_c, 0, 69, 0
2, 41609, Note_on_c, 0, 55, 0
2, 41639, Note_on_c, 0, 54, 50
2, 41681, Note_on_c, 0, 54, 0
2, 41705, Note_on_c, 0, 52, 56
2, 41721, Note_on_c, 0, 66, 63
2, 41781, Note_on_c, 0, 52, 0
2, 41785, Note_on_c, 0, 50, 52
2, 41785, Note_on_c, 0, 66, 0
2, 41806, Note_on_c, 0, 67, 0
2, 41821, Control_c, 0, 67, 11
2, 41836, Control_c, 0, 67, 16
2, 41851, Control_c, 0, 67, 21
2, 41867, Control_c, 0, 67, 26
2, 41875, Note_on_c, 0, 49, 51
2, 41881, Control_c, 0, 67, 27
2, 41883, Note_on_c, 0, 64, 64
2, 41888, Note_on_c, 0, 50, 0
2, 41897, Control_c, 0, 67, 28
2, 41931, Note_on_c, 0, 71, 0
2, 41947, Note_on_c, 0, 49, 0
2, 41957, Control_c, 0, 67, 27
2, 41972, Control_c, 0, 67, 27
2, 41988, Control_c, 0, 67, 26
2, 42003, Control_c, 0, 67, 26
2, 42018, Control_c, 0, 67, 25
2, 42033, Control_c, 0, 67, 24
2, 42048, Control_c, 0, 67, 23
2, 42053, Note_on_c, 0, 52, 58
2, 42057, Note_on_c, 0, 73, 66
2, 42065, Control_c, 0, 67, 23
2, 42080, Control_c, 0, 67, 21
2, 42096, Control_c, 0, 67, 20
2, 42103, Note_on_c, 0, 52, 0
2, 42110, Control_c, 0, 67, 19
2, 42125, Control_c, 0, 67, 18
2, 42139, Note_on_c, 0, 71, 66
2, 42141, Control_c, 0, 67, 17
2, 42156, Control_c, 0, 67, 16
2, 42162, Note_on_c, 0, 73, 0
2, 42170, Control_c, 0, 67, 13
2, 42186, Control_c, 0, 67, 10
2, 42190, Note_on_c, 0, 71, 0
2, 42201, Control_c, 0, 67, 0
2, 42205, Note_on_c, 0, 49, 58
2, 42205, Note_on_c, 0, 70, 65
2, 42249, Note_on_c, 0, 49, 0
2, 42283, Note_on_c, 0, 70, 0
2, 42289, Note_on_c, 0, 71, 63
2, 42357, Note_on_c, 0, 73, 67
2, 42369, Note_on_c, 0, 46, 53
2, 42392, Note_on_c, 0, 71, 0
2, 42406, Note_on_c, 0, 46, 0
2, 42515, Note_on_c, 0, 49, 61
2, 42546, Note_on_c, 0, 49, 0
2, 42664, Note_on_c, 0, 46, 49
2, 42667, Note_on_c, 0, 64, 0
2, 42672, Note_on_c, 0, 67, 56
2, 42711, Note_on_c, 0, 46, 0
2, 42795, Note_on_c, 0, 73, 0
2, 42806, Note_on_c, 0, 67, 0
2, 42825, Note_on_c, 0, 66, 69
2, 42831, Note_on_c, 0, 50, 49
2, 42892, Note_on_c, 0, 50, 0
2, 43008, Note_on_c, 0, 74, 65
2, 43016, Note_on_c, 0, 54, 49
2, 43060, Note_on_c, 0, 54, 0
2, 43081, Note_on_c, 0, 73, 69
2, 43106, Note_on_c, 0, 74, 0
2, 43141, Note_on_c, 0, 73, 0
2, 43149, Note_on_c, 0, 50, 58
2, 43149, Note_on_c, 0, 71, 68
2, 43197, Note_on_c, 0, 50, 0
2, 43233, Note_on_c, 0, 73, 74
2, 43246, Note_on_c, 0, 71, 0
2, 43306, Note_on_c, 0, 47, 53
2, 43306, Note_on_c, 0, 74, 77
2, 43336, Note_on_c, 0, 73, 0
2, 43346, Note_on_c, 0, 47, 0
2, 43458, Note_on_c, 0, 50, 69
2, 43493, Note_on_c, 0, 50, 0
2, 43554, Note_on_c, 0, 66, 0
2, 43603, Note_on_c, 0, 47, 62
2, 43613, Note_on_c, 0, 69, 74
2, 43639, Note_on_c, 0, 47, 0
2, 43644, Note_on_c, 0, 74, 0
2, 43782, Note_on_c, 0, 67, 78
2, 43785, Note_on_c, 0, 52, 57
2, 43794, Note_on_c, 0, 69, 0
2, 43826, Note_on_c, 0, 52, 0
2, 43942, Note_on_c, 0, 76, 77
2, 43951, Note_on_c, 0, 55, 58
2, 43984, Note_on_c, 0, 55, 0
2, 44028, Note_on_c, 0, 74, 75
2, 44040, Note_on_c, 0, 76, 0
2, 44086, Note_on_c, 0, 52, 61
2, 44097, Note_on_c, 0, 73, 71
2, 44099, Note_on_c, 0, 74, 0
2, 44118, Note_on_c, 0, 52, 0
2, 44156, Note_on_c, 0, 74, 68
2, 44165, Note_on_c, 0, 73, 0
2, 44230, Note_on_c, 0, 49, 56
2, 44240, Note_on_c, 0, 76, 81
2, 44266, Note_on_c, 0, 49, 0
2, 44271, Note_on_c, 0, 74, 0
2, 44381, Note_on_c, 0, 52, 64
2, 44411, Note_on_c, 0, 52, 0
2, 44543, Note_on_c, 0, 49, 53
2, 44546, Note_on_c, 0, 67, 0
2, 44560, Note_on_c, 0, 71, 57
2, 44577, Note_on_c, 0, 49, 0
2, 44722, Note_on_c, 0, 71, 0
2, 44735, Note_on_c, 0, 54, 44
2, 44742, Control_c, 0, 64, 31
2, 44742, Note_on_c, 0, 70, 63
2, 44757, Control_c, 0, 64, 48
2, 44771, Control_c, 0, 64, 59
2, 44787, Control_c, 0, 64, 64
2, 44788, Note_on_c, 0, 76, 0
2, 44802, Control_c, 0, 64, 68
2, 44818, Control_c, 0, 64, 74
2, 44832, Control_c, 0, 64, 79
2, 44847, Control_c, 0, 64, 83
2, 44851, Note_on_c, 0, 54, 0
2, 44863, Control_c, 0, 64, 83
2, 44878, Control_c, 0, 64, 82
2, 44891, Note_on_c, 0, 70, 0
2, 44893, Control_c, 0, 64, 78
2, 44908, Control_c, 0, 64, 72
2, 44923, Control_c, 0, 64, 67
2, 44928, Note_on_c, 0, 79, 73
2, 44939, Control_c, 0, 64, 63
2, 44954, Control_c, 0, 64, 59
2, 44969, Control_c, 0, 64, 58
2, 44984, Control_c, 0, 64, 56
2, 44999, Control_c, 0, 64, 53
2, 45008, Note_on_c, 0, 78, 66
2, 45015, Control_c, 0, 64, 47
2, 45020, Note_on_c, 0, 79, 0
2, 45029, Control_c, 0, 64, 39
2, 45044, Control_c, 0, 64, 30
2, 45060, Control_c, 0, 64, 13
2, 45075, Control_c, 0, 64, 0
2, 45075, Control_c, 0, 67, 10
2, 45084, Note_on_c, 0, 76, 65
2, 45085, Note_on_c, 0, 59, 51
2, 45090, Control_c, 0, 67, 14
2, 45105, Control_c, 0, 67, 19
2, 45112, Note_on_c, 0, 59, 0
2, 45120, Control_c, 0, 67, 24
2, 45124, Note_on_c, 0, 78, 0
2, 45136, Control_c, 0, 67, 28
2, 45151, Control_c, 0, 67, 30
2, 45151, Note_on_c, 0, 76, 0
2, 45154, Note_on_c, 0, 75, 74
2, 45166, Control_c, 0, 67, 34
2, 45182, Control_c, 0, 67, 39
2, 45197, Control_c, 0, 67, 44
2, 45212, Control_c, 0, 67, 46
2, 45228, Control_c, 0, 67, 46
2, 45228, Note_on_c, 0, 58, 61
2, 45232, Note_on_c, 0, 76, 73
2, 45250, Note_on_c, 0, 75, 0
2, 45252, Note_on_c, 0, 58, 0
2, 45315, Note_on_c, 0, 76, 0
2, 45325, Control_c, 0, 67, 46
2, 45357, Control_c, 0, 67, 45
2, 45372, Control_c, 0, 67, 45
2, 45388, Control_c, 0, 67, 44
2, 45394, Note_on_c, 0, 79, 74
2, 45398, Note_on_c, 0, 59, 56
2, 45403, Control_c, 0, 67, 44
2, 45427, Note_on_c, 0, 59, 0
2, 45453, Note_on_c, 0, 79, 0
2, 45464, Control_c, 0, 67, 43
2, 45493, Control_c, 0, 67, 43
2, 45546, Note_on_c, 0, 61, 54
2, 45548, Note_on_c, 0, 75, 66
2, 45581, Note_on_c, 0, 61, 0
2, 45600, Control_c, 0, 67, 42
2, 45601, Note_on_c, 0, 75, 0
2, 45616, Control_c, 0, 67, 42
2, 45631, Control_c, 0, 64, 26
2, 45646, Control_c, 0, 64, 37
2, 45662, Control_c, 0, 64, 45
2, 45662, Control_c, 0, 67, 41
2, 45676, Control_c, 0, 64, 51
2, 45676, Control_c, 0, 67, 41
2, 45691, Control_c, 0, 64, 56
2, 45691, Control_c, 0, 67, 40
2, 45707, Control_c, 0, 64, 59
2, 45707, Control_c, 0, 67, 40
2, 45708, Note_on_c, 0, 54, 40
2, 45710, Note_on_c, 0, 76, 59
2, 45722, Control_c, 0, 64, 60
2, 45722, Control_c, 0, 67, 39
2, 45723, Note_on_c, 0, 73, 55
2, 45738, Control_c, 0, 64, 61
2, 45738, Control_c, 0, 67, 39
2, 45752, Control_c, 0, 64, 62
2, 45752, Control_c, 0, 67, 38
2, 45782, Note_on_c, 0, 54, 0
2, 45783, Control_c, 0, 64, 61
2, 45783, Control_c, 0, 67, 38
2, 45797, Control_c, 0, 64, 60
2, 45812, Control_c, 0, 64, 56
2, 45812, Control_c, 0, 67, 37
2, 45828, Control_c, 0, 64, 52
2, 45843, Control_c, 0, 64, 46
2, 45843, Control_c, 0, 67, 36
2, 45843, Note_on_c, 0, 73, 0
2, 45859, Control_c, 0, 64, 40
2, 45859, Control_c, 0, 67, 36
2, 45865, Note_on_c, 0, 76, 0
2, 45873, Control_c, 0, 64, 35
2, 45887, Note_on_c, 0, 79, 65
2, 45888, Control_c, 0, 64, 26
2, 45888, Control_c, 0, 67, 35
2, 45904, Control_c, 0, 64, 0
2, 45904, Control_c, 0, 67, 33
2, 45919, Control_c, 0, 67, 31
2, 45935, Control_c, 0, 67, 29
2, 45949, Control_c, 0, 67, 25
2, 45962, Note_on_c, 0, 78, 66
2, 45964, Control_c, 0, 67, 21
2, 45969, Note_on_c, 0, 79, 0
2, 45980, Control_c, 0, 67, 17
2, 45995, Control_c, 0, 67, 12
2, 46010, Control_c, 0, 67, 0
2, 46032, Note_on_c, 0, 59, 47
2, 46032, Note_on_c, 0, 76, 66
2, 46070, Note_on_c, 0, 59, 0
2, 46073, Note_on_c, 0, 78, 0
2, 46086, Note_on_c, 0, 76, 0
2, 46118, Note_on_c, 0, 75, 69
2, 46194, Note_on_c, 0, 76, 70
2, 46197, Note_on_c, 0, 75, 0
2, 46206, Note_on_c, 0, 58, 42
2, 46328, Note_on_c, 0, 76, 0
2, 46347, Note_on_c, 0, 58, 0
2, 46362, Note_on_c, 0, 78, 69
2, 46439, Note_on_c, 0, 76, 68
2, 46462, Note_on_c, 0, 78, 0
2, 46502, Note_on_c, 0, 76, 0
2, 46514, Note_on_c, 0, 59, 62
2, 46514, Note_on_c, 0, 75, 66
2, 46542, Note_on_c, 0, 59, 0
2, 46560, Note_on_c, 0, 75, 0
2, 46595, Note_on_c, 0, 73, 63
2, 46596, Control_c, 0, 64, 22
2, 46611, Control_c, 0, 64, 37
2, 46627, Control_c, 0, 64, 47
2, 46641, Control_c, 0, 64, 54
2, 46649, Note_on_c, 0, 73, 0
2, 46657, Control_c, 0, 64, 61
2, 46672, Control_c, 0, 64, 64
2, 46674, Note_on_c, 0, 47, 63
2, 46683, Note_on_c, 0, 75, 68
2, 46687, Control_c, 0, 64, 68
2, 46703, Control_c, 0, 64, 72
2, 46717, Control_c, 0, 64, 78
2, 46725, Note_on_c, 0, 47, 0
2, 46732, Control_c, 0, 64, 83
2, 46748, Control_c, 0, 64, 88
2, 46763, Control_c, 0, 64, 91
2, 46779, Control_c, 0, 64, 91
2, 46793, Control_c, 0, 64, 88
2, 46808, Control_c, 0, 64, 82
2, 46832, Control_c, 0, 64, 76
2, 46846, Note_on_c, 0, 72, 67
2, 46847, Control_c, 0, 64, 69
2, 46862, Control_c, 0, 64, 65
2, 46877, Control_c, 0, 64, 61
2, 46878, Note_on_c, 0, 75, 0
2, 46892, Control_c, 0, 64, 59
2, 46908, Control_c, 0, 64, 56
2, 46921, Note_on_c, 0, 71, 68
2, 46923, Control_c, 0, 64, 50
2, 46929, Note_on_c, 0, 72, 0
2, 46938, Control_c, 0, 64, 38
2, 46953, Control_c, 0, 64, 20
2, 46957, Note_on_c, 0, 71, 0
2, 46968, Control_c, 0, 64, 0
2, 46986, Note_on_c, 0, 64, 68
2, 46992, Note_on_c, 0, 69, 68
2, 47016, Note_on_c, 0, 64, 0
2, 47062, Note_on_c, 0, 68, 75
2, 47065, Note_on_c, 0, 69, 0
2, 47128, Note_on_c, 0, 63, 71
2, 47140, Note_on_c, 0, 69, 71
2, 47154, Note_on_c, 0, 63, 0
2, 47161, Note_on_c, 0, 68, 0
2, 47199, Note_on_c, 0, 69, 0
2, 47285, Note_on_c, 0, 72, 77
2, 47288, Note_on_c, 0, 64, 67
2, 47316, Note_on_c, 0, 64, 0
2, 47348, Note_on_c, 0, 72, 0
2, 47432, Note_on_c, 0, 68, 71
2, 47437, Note_on_c, 0, 66, 65
2, 47470, Note_on_c, 0, 66, 0
2, 47490, Note_on_c, 0, 68, 0
2, 47532, Control_c, 0, 64, 25
2, 47548, Control_c, 0, 64, 39
2, 47562, Control_c, 0, 64, 47
2, 47578, Control_c, 0, 64, 52
2, 47600, Control_c, 0, 64, 57
2, 47602, Note_on_c, 0, 59, 49
2, 47616, Control_c, 0, 64, 61
2, 47618, Note_on_c, 0, 78, 58
2, 47622, Note_on_c, 0, 69, 48
2, 47631, Control_c, 0, 64, 63
2, 47646, Control_c, 0, 64, 64
2, 47661, Control_c, 0, 64, 65
2, 47676, Control_c, 0, 64, 66
2, 47691, Control_c, 0, 64, 67
2, 47707, Note_on_c, 0, 59, 0
2, 47731, Note_on_c, 0, 78, 0
2, 47738, Control_c, 0, 64, 65
2, 47753, Control_c, 0, 64, 63
2, 47766, Note_on_c, 0, 69, 0
2, 47766, Note_on_c, 0, 72, 68
2, 47768, Control_c, 0, 64, 61
2, 47783, Control_c, 0, 64, 58
2, 47799, Control_c, 0, 64, 54
2, 47813, Control_c, 0, 64, 48
2, 47829, Control_c, 0, 64, 42
2, 47832, Note_on_c, 0, 72, 0
2, 47844, Control_c, 0, 64, 34
2, 47847, Note_on_c, 0, 71, 60
2, 47860, Control_c, 0, 64, 24
2, 47875, Control_c, 0, 64, 8
2, 47876, Note_on_c, 0, 71, 0
2, 47890, Control_c, 0, 64, 0
2, 47906, Note_on_c, 0, 69, 55
2, 47921, Note_on_c, 0, 64, 60
2, 47953, Note_on_c, 0, 64, 0
2, 47970, Note_on_c, 0, 69, 0
2, 47983, Note_on_c, 0, 68, 61
2, 48072, Note_on_c, 0, 63, 46
2, 48074, Note_on_c, 0, 69, 62
2, 48083, Note_on_c, 0, 68, 0
2, 48209, Note_on_c, 0, 63, 0
2, 48211, Note_on_c, 0, 69, 0
2, 48242, Note_on_c, 0, 71, 61
2, 48323, Note_on_c, 0, 69, 63
2, 48338, Note_on_c, 0, 71, 0
2, 48369, Note_on_c, 0, 69, 0
2, 48391, Note_on_c, 0, 64, 66
2, 48398, Control_c, 0, 64, 33
2, 48404, Note_on_c, 0, 67, 65
2, 48413, Control_c, 0, 64, 49
2, 48417, Note_on_c, 0, 64, 0
2, 48429, Control_c, 0, 64, 57
2, 48444, Control_c, 0, 64, 63
2, 48459, Control_c, 0, 64, 66
2, 48459, Note_on_c, 0, 67, 0
2, 48465, Note_on_c, 0, 66, 68
2, 48474, Control_c, 0, 64, 70
2, 48489, Control_c, 0, 64, 75
2, 48505, Control_c, 0, 64, 79
2, 48506, Note_on_c, 0, 66, 0
2, 48520, Control_c, 0, 64, 81
2, 48548, Note_on_c, 0, 67, 67
2, 48550, Control_c, 0, 64, 78
2, 48553, Note_on_c, 0, 52, 63
2, 48565, Control_c, 0, 64, 74
2, 48581, Control_c, 0, 64, 68
2, 48596, Control_c, 0, 64, 64
2, 48597, Note_on_c, 0, 52, 0
2, 48611, Control_c, 0, 64, 60
2, 48615, Note_on_c, 0, 67, 0
2, 48624, Note_on_c, 0, 71, 71
2, 48625, Note_on_c, 0, 55, 55
2, 48627, Control_c, 0, 64, 58
2, 48642, Control_c, 0, 64, 55
2, 48658, Control_c, 0, 64, 47
2, 48673, Control_c, 0, 64, 35
2, 48688, Control_c, 0, 64, 24
2, 48695, Note_on_c, 0, 55, 0
2, 48696, Note_on_c, 0, 57, 60
2, 48699, Note_on_c, 0, 71, 0
2, 48701, Note_on_c, 0, 73, 70
2, 48704, Control_c, 0, 64, 18
2, 48718, Control_c, 0, 64, 15
2, 48731, Note_on_c, 0, 57, 0
2, 48733, Control_c, 0, 64, 12
2, 48749, Control_c, 0, 64, 8
2, 48764, Control_c, 0, 64, 0
2, 48772, Note_on_c, 0, 75, 72
2, 48773, Note_on_c, 0, 59, 58
2, 48780, Note_on_c, 0, 73, 0
2, 48806, Note_on_c, 0, 75, 0
2, 48817, Note_on_c, 0, 59, 0
2, 48847, Note_on_c, 0, 76, 70
2, 48866, Note_on_c, 0, 61, 61
2, 48911, Note_on_c, 0, 76, 0
2, 48914, Note_on_c, 0, 61, 0
2, 48916, Note_on_c, 0, 78, 70
2, 48919, Note_on_c, 0, 63, 60
2, 48981, Note_on_c, 0, 78, 0
2, 48992, Note_on_c, 0, 79, 78
2, 48995, Note_on_c, 0, 64, 73
2, 49007, Note_on_c, 0, 63, 0
2, 49022, Note_on_c, 0, 64, 0
2, 49077, Note_on_c, 0, 78, 73
2, 49101, Note_on_c, 0, 79, 0
2, 49158, Note_on_c, 0, 76, 69
2, 49168, Note_on_c, 0, 67, 68
2, 49171, Note_on_c, 0, 78, 0
2, 49196, Note_on_c, 0, 67, 0
2, 49196, Note_on_c, 0, 76, 0
2, 49233, Note_on_c, 0, 74, 68
2, 49302, Note_on_c, 0, 74, 0
2, 49307, Note_on_c, 0, 73, 65
2, 49315, Note_on_c, 0, 64, 73
2, 49340, Note_on_c, 0, 64, 0
2, 49380, Note_on_c, 0, 73, 0
2, 49384, Note_on_c, 0, 71, 67
2, 49459, Note_on_c, 0, 61, 69
2, 49472, Note_on_c, 0, 76, 65
2, 49483, Note_on_c, 0, 71, 0
2, 49488, Note_on_c, 0, 61, 0
2, 49543, Note_on_c, 0, 74, 71
2, 49564, Note_on_c, 0, 76, 0
2, 49614, Note_on_c, 0, 64, 72
2, 49620, Note_on_c, 0, 73, 67
2, 49642, Note_on_c, 0, 64, 0
2, 49651, Note_on_c, 0, 74, 0
2, 49691, Note_on_c, 0, 71, 66
2, 49715, Note_on_c, 0, 73, 0
2, 49726, Note_on_c, 0, 71, 0
2, 49764, Note_on_c, 0, 61, 64
2, 49764, Note_on_c, 0, 69, 68
2, 49793, Note_on_c, 0, 61, 0
2, 49836, Note_on_c, 0, 68, 75
2, 49837, Note_on_c, 0, 69, 0
2, 49916, Note_on_c, 0, 57, 67
2, 49918, Note_on_c, 0, 68, 0
2, 49925, Note_on_c, 0, 73, 75
2, 49958, Note_on_c, 0, 57, 0
2, 50012, Note_on_c, 0, 71, 66
2, 50069, Note_on_c, 0, 61, 66
2, 50069, Note_on_c, 0, 73, 0
2, 50077, Note_on_c, 0, 69, 73
2, 50084, Note_on_c, 0, 71, 0
2, 50105, Note_on_c, 0, 61, 0
2, 50122, Note_on_c, 0, 69, 0
2, 50147, Control_c, 0, 64, 22
2, 50153, Note_on_c, 0, 67, 64
2, 50162, Control_c, 0, 64, 34
2, 50178, Control_c, 0, 64, 44
2, 50193, Control_c, 0, 64, 52
2, 50208, Control_c, 0, 64, 57
2, 50211, Note_on_c, 0, 66, 75
2, 50218, Note_on_c, 0, 57, 53
2, 50219, Note_on_c, 0, 67, 0
2, 50222, Control_c, 0, 64, 62
2, 50236, Control_c, 0, 64, 64
2, 50245, Note_on_c, 0, 57, 0
2, 50252, Control_c, 0, 64, 65
2, 50268, Control_c, 0, 64, 66
2, 50279, Note_on_c, 0, 66, 0
2, 50283, Control_c, 0, 64, 67
2, 50300, Note_on_c, 0, 64, 72
2, 50314, Control_c, 0, 64, 66
2, 50328, Control_c, 0, 64, 64
2, 50344, Control_c, 0, 64, 62
2, 50359, Control_c, 0, 64, 58
2, 50368, Note_on_c, 0, 50, 62
2, 50374, Control_c, 0, 64, 55
2, 50376, Note_on_c, 0, 66, 72
2, 50379, Note_on_c, 0, 64, 0
2, 50389, Control_c, 0, 64, 51
2, 50404, Control_c, 0, 64, 47
2, 50407, Note_on_c, 0, 66, 0
2, 50420, Control_c, 0, 64, 42
2, 50435, Control_c, 0, 64, 35
2, 50450, Control_c, 0, 64, 30
2, 50454, Note_on_c, 0, 69, 71
2, 50457, Note_on_c, 0, 50, 0
2, 50458, Note_on_c, 0, 54, 57
2, 50465, Control_c, 0, 64, 25
2, 50480, Control_c, 0, 64, 17
2, 50496, Control_c, 0, 64, 0
2, 50513, Note_on_c, 0, 69, 0
2, 50519, Note_on_c, 0, 54, 0
2, 50522, Note_on_c, 0, 55, 67
2, 50527, Note_on_c, 0, 71, 71
2, 50557, Note_on_c, 0, 55, 0
2, 50599, Note_on_c, 0, 57, 58
2, 50603, Note_on_c, 0, 71, 0
2, 50603, Note_on_c, 0, 73, 69
2, 50639, Note_on_c, 0, 73, 0
2, 50673, Note_on_c, 0, 57, 0
2, 50680, Note_on_c, 0, 59, 63
2, 50682, Note_on_c, 0, 74, 77
2, 50743, Note_on_c, 0, 74, 0
2, 50744, Note_on_c, 0, 59, 0
2, 50749, Note_on_c, 0, 61, 70
2, 50766, Note_on_c, 0, 76, 70
2, 50831, Note_on_c, 0, 62, 56
2, 50837, Note_on_c, 0, 76, 0
2, 50849, Note_on_c, 0, 78, 75
2, 50876, Note_on_c, 0, 61, 0
2, 50934, Note_on_c, 0, 76, 68
2, 50947, Note_on_c, 0, 78, 0
2, 50973, Note_on_c, 0, 76, 0
2, 51009, Note_on_c, 0, 74, 73
2, 51080, Note_on_c, 0, 74, 0
2, 51087, Note_on_c, 0, 73, 70
2, 51163, Note_on_c, 0, 71, 71
2, 51187, Note_on_c, 0, 73, 0
2, 51204, Note_on_c, 0, 71, 0
2, 51245, Note_on_c, 0, 69, 69
2, 51296, Note_on_c, 0, 69, 0
2, 51315, Note_on_c, 0, 68, 76
2, 51393, Note_on_c, 0, 68, 0
2, 51395, Note_on_c, 0, 71, 69
2, 51461, Note_on_c, 0, 71, 0
2, 51468, Note_on_c, 0, 61, 47
2, 51471, Note_on_c, 0, 76, 70
2, 51498, Note_on_c, 0, 62, 0
2, 51540, Note_on_c, 0, 76, 0
2, 51543, Note_on_c, 0, 74, 69
2, 51615, Note_on_c, 0, 61, 0
2, 51623, Note_on_c, 0, 74, 0
2, 51632, Note_on_c, 0, 76, 68
2, 51644, Note_on_c, 0, 59, 39
2, 51654, Control_c, 0, 64, 8
2, 51710, Note_on_c, 0, 67, 67
2, 51739, Note_on_c, 0, 67, 0
2, 51772, Note_on_c, 0, 59, 0
2, 51800, Note_on_c, 0, 66, 63
2, 51803, Note_on_c, 0, 58, 48
2, 51804, Note_on_c, 0, 76, 0
2, 51842, Note_on_c, 0, 58, 0
2, 51879, Note_on_c, 0, 70, 69
2, 51889, Note_on_c, 0, 61, 54
2, 51917, Note_on_c, 0, 61, 0
2, 51969, Note_on_c, 0, 73, 67
2, 51970, Note_on_c, 0, 70, 0
2, 51977, Note_on_c, 0, 59, 52
2, 52014, Note_on_c, 0, 59, 0
2, 52032, Note_on_c, 0, 74, 72
2, 52044, Note_on_c, 0, 58, 56
2, 52047, Note_on_c, 0, 73, 0
2, 52083, Note_on_c, 0, 58, 0
2, 52119, Note_on_c, 0, 56, 56
2, 52127, Note_on_c, 0, 76, 65
2, 52156, Control_c, 0, 64, 10
2, 52166, Note_on_c, 0, 74, 0
2, 52184, Note_on_c, 0, 54, 60
2, 52185, Note_on_c, 0, 76, 0
2, 52210, Note_on_c, 0, 66, 0
2, 52219, Note_on_c, 0, 56, 0
2, 52271, Control_c, 0, 64, 12
2, 52279, Note_on_c, 0, 59, 70
2, 52293, Note_on_c, 0, 54, 0
2, 52309, Note_on_c, 0, 59, 0
2, 52350, Note_on_c, 0, 66, 57
2, 52427, Note_on_c, 0, 54, 63
2, 52439, Note_on_c, 0, 68, 73
2, 52451, Note_on_c, 0, 66, 0
2, 52456, Note_on_c, 0, 54, 0
2, 52511, Note_on_c, 0, 68, 0
2, 52513, Note_on_c, 0, 70, 69
2, 52548, Note_on_c, 0, 70, 0
2, 52580, Note_on_c, 0, 50, 52
2, 52594, Note_on_c, 0, 71, 67
2, 52604, Note_on_c, 0, 50, 0
2, 52661, Note_on_c, 0, 73, 69
2, 52675, Note_on_c, 0, 71, 0
2, 52734, Note_on_c, 0, 73, 0
2, 52743, Note_on_c, 0, 47, 59
2, 52748, Note_on_c, 0, 74, 72
2, 52818, Control_c, 0, 64, 13
2, 52833, Note_on_c, 0, 73, 74
2, 52849, Control_c, 0, 64, 15
2, 52855, Note_on_c, 0, 74, 0
2, 52864, Control_c, 0, 64, 16
2, 52879, Control_c, 0, 64, 17
2, 52885, Note_on_c, 0, 47, 0
2, 52895, Control_c, 0, 64, 19
2, 52895, Note_on_c, 0, 49, 54
2, 52908, Note_on_c, 0, 71, 68
2, 52910, Control_c, 0, 64, 20
2, 52922, Note_on_c, 0, 73, 0
2, 52940, Control_c, 0, 64, 21
2, 52942, Note_on_c, 0, 71, 0
2, 52955, Control_c, 0, 64, 22
2, 52957, Note_on_c, 0, 49, 0
2, 52958, Note_on_c, 0, 50, 62
2, 52985, Note_on_c, 0, 69, 58
2, 53003, Note_on_c, 0, 50, 0
2, 53046, Note_on_c, 0, 69, 0
2, 53051, Note_on_c, 0, 52, 61
2, 53058, Note_on_c, 0, 67, 71
2, 53091, Note_on_c, 0, 52, 0
2, 53120, Note_on_c, 0, 67, 0
2, 53121, Note_on_c, 0, 66, 69
2, 53143, Note_on_c, 0, 54, 58
2, 53209, Note_on_c, 0, 71, 70
2, 53210, Note_on_c, 0, 54, 0
2, 53213, Note_on_c, 0, 55, 57
2, 53215, Note_on_c, 0, 66, 0
2, 53266, Note_on_c, 0, 55, 0
2, 53275, Note_on_c, 0, 69, 71
2, 53297, Note_on_c, 0, 57, 61
2, 53305, Note_on_c, 0, 71, 0
2, 53341, Note_on_c, 0, 57, 0
2, 53359, Note_on_c, 0, 67, 68
2, 53374, Note_on_c, 0, 59, 62
2, 53398, Note_on_c, 0, 69, 0
2, 53417, Note_on_c, 0, 59, 0
2, 53421, Note_on_c, 0, 66, 73
2, 53428, Note_on_c, 0, 67, 0
2, 53433, Control_c, 0, 64, 22
2, 53443, Note_on_c, 0, 57, 46
2, 53463, Control_c, 0, 64, 23
2, 53472, Note_on_c, 0, 66, 0
2, 53490, Note_on_c, 0, 57, 0
2, 53494, Control_c, 0, 64, 24
2, 53497, Note_on_c, 0, 64, 66
2, 53511, Note_on_c, 0, 55, 50
2, 53524, Control_c, 0, 64, 25
2, 53541, Control_c, 0, 64, 25
2, 53546, Note_on_c, 0, 55, 0
2, 53549, Note_on_c, 0, 54, 49
2, 53555, Control_c, 0, 64, 26
2, 53575, Note_on_c, 0, 62, 73
2, 53585, Note_on_c, 0, 64, 0
2, 53624, Note_on_c, 0, 54, 0
2, 53649, Note_on_c, 0, 62, 0
2, 53652, Note_on_c, 0, 52, 43
2, 53654, Note_on_c, 0, 67, 76
2, 53717, Note_on_c, 0, 52, 0
2, 53720, Note_on_c, 0, 54, 41
2, 53724, Note_on_c, 0, 66, 69
2, 53761, Note_on_c, 0, 54, 0
2, 53766, Note_on_c, 0, 67, 0
2, 53804, Note_on_c, 0, 64, 77
2, 53805, Note_on_c, 0, 55, 59
2, 53806, Control_c, 0, 64, 25
2, 53821, Control_c, 0, 64, 25
2, 53836, Control_c, 0, 64, 23
2, 53845, Note_on_c, 0, 55, 0
2, 53845, Note_on_c, 0, 66, 0
2, 53852, Control_c, 0, 64, 22
2, 53855, Note_on_c, 0, 64, 0
2, 53867, Control_c, 0, 64, 21
2, 53879, Note_on_c, 0, 62, 75
2, 53880, Note_on_c, 0, 54, 58
2, 53882, Control_c, 0, 64, 20
2, 53898, Control_c, 0, 64, 18
2, 53912, Control_c, 0, 64, 17
2, 53916, Note_on_c, 0, 54, 0
2, 53927, Control_c, 0, 64, 16
2, 53943, Control_c, 0, 64, 15
2, 53958, Control_c, 0, 64, 13
2, 53958, Note_on_c, 0, 55, 59
2, 53958, Note_on_c, 0, 61, 79
2, 53964, Note_on_c, 0, 62, 0
2, 53974, Control_c, 0, 64, 10
2, 53989, Control_c, 0, 64, 0
2, 53993, Note_on_c, 0, 55, 0
2, 54035, Note_on_c, 0, 61, 0
2, 54038, Note_on_c, 0, 64, 78
2, 54044, Note_on_c, 0, 52, 59
2, 54115, Note_on_c, 0, 52, 0
2, 54133, Note_on_c, 0, 64, 0
2, 54140, Note_on_c, 0, 58, 74
2, 54141, Note_on_c, 0, 54, 59
2, 54187, Control_c, 0, 64, 37
2, 54194, Note_on_c, 0, 58, 0
2, 54202, Control_c, 0, 64, 56
2, 54218, Control_c, 0, 64, 65
2, 54232, Control_c, 0, 64, 71
2, 54247, Control_c, 0, 64, 79
2, 54263, Control_c, 0, 64, 90
2, 54278, Control_c, 0, 64, 101
2, 54294, Control_c, 0, 64, 111
2, 54308, Control_c, 0, 64, 116
2, 54323, Control_c, 0, 64, 127
2, 54375, Note_on_c, 0, 79, 85
2, 54457, Note_on_c, 0, 78, 78
2, 54497, Note_on_c, 0, 79, 0
2, 54499, Note_on_c, 0, 42, 64
2, 54526, Note_on_c, 0, 76, 78
2, 54545, Control_c, 0, 64, 118
2, 54556, Note_on_c, 0, 78, 0
2, 54560, Control_c, 0, 64, 109
2, 54573, Note_on_c, 0, 42, 0
2, 54575, Note_on_c, 0, 76, 0
2, 54576, Control_c, 0, 64, 101
2, 54590, Note_on_c, 0, 54, 0
2, 54591, Control_c, 0, 64, 92
2, 54599, Note_on_c, 0, 74, 73
2, 54606, Control_c, 0, 64, 83
2, 54621, Control_c, 0, 64, 75
2, 54636, Control_c, 0, 64, 69
2, 54652, Control_c, 0, 64, 63
2, 54666, Control_c, 0, 64, 57
2, 54678, Note_on_c, 0, 42, 73
2, 54680, Note_on_c, 0, 70, 75
2, 54680, Note_on_c, 0, 73, 79
2, 54681, Control_c, 0, 64, 47
2, 54697, Control_c, 0, 64, 28
2, 54698, Note_on_c, 0, 74, 0
2, 54712, Control_c, 0, 64, 0
2, 54730, Note_on_c, 0, 73, 0
2, 54845, Note_on_c, 0, 76, 77
2, 54877, Note_on_c, 0, 42, 0
2, 54912, Note_on_c, 0, 76, 0
2, 54991, Note_on_c, 0, 42, 73
2, 54993, Note_on_c, 0, 73, 77
2, 55040, Note_on_c, 0, 70, 0
2, 55058, Note_on_c, 0, 73, 0
2, 55060, Note_on_c, 0, 42, 0
2, 55157, Note_on_c, 0, 42, 62
2, 55158, Note_on_c, 0, 70, 71
2, 55165, Note_on_c, 0, 64, 76
2, 55222, Note_on_c, 0, 70, 0
2, 55319, Note_on_c, 0, 73, 71
2, 55378, Note_on_c, 0, 73, 0
2, 55459, Note_on_c, 0, 70, 75
2, 55484, Note_on_c, 0, 64, 0
2, 55524, Note_on_c, 0, 70, 0
2, 55616, Note_on_c, 0, 64, 68
2, 55622, Note_on_c, 0, 61, 69
2, 55676, Note_on_c, 0, 42, 0
2, 55681, Note_on_c, 0, 64, 0
2, 55766, Note_on_c, 0, 70, 73
2, 55814, Note_on_c, 0, 70, 0
2, 55872, Note_on_c, 0, 49, 68
2, 55907, Note_on_c, 0, 64, 70
2, 55945, Note_on_c, 0, 50, 74
2, 55946, Note_on_c, 0, 49, 0
2, 55955, Note_on_c, 0, 64, 0
2, 56022, Note_on_c, 0, 50, 0
2, 56022, Note_on_c, 0, 52, 75
2, 56073, Note_on_c, 0, 62, 64
2, 56097, Note_on_c, 0, 54, 69
2, 56103, Note_on_c, 0, 52, 0
2, 56117, Note_on_c, 0, 61, 0
2, 56205, Note_on_c, 0, 62, 0
2, 56253, Note_on_c, 0, 59, 65
2, 56306, Note_on_c, 0, 59, 0
2, 56327, Note_on_c, 0, 61, 69
2, 56358, Note_on_c, 0, 61, 0
2, 56398, Note_on_c, 0, 62, 75
2, 56413, Note_on_c, 0, 42, 65
2, 56460, Note_on_c, 0, 42, 0
2, 56475, Note_on_c, 0, 62, 0
2, 56476, Note_on_c, 0, 64, 77
2, 56563, Note_on_c, 0, 66, 74
2, 56565, Note_on_c, 0, 42, 68
2, 56567, Note_on_c, 0, 71, 74
2, 56598, Note_on_c, 0, 54, 0
2, 56598, Note_on_c, 0, 64, 0
2, 56656, Note_on_c, 0, 66, 0
2, 56726, Note_on_c, 0, 62, 68
2, 56763, Note_on_c, 0, 42, 0
2, 56812, Note_on_c, 0, 62, 0
2, 56879, Note_on_c, 0, 66, 77
2, 56885, Note_on_c, 0, 42, 61
2, 56918, Note_on_c, 0, 42, 0
2, 56929, Note_on_c, 0, 71, 0
2, 56933, Note_on_c, 0, 66, 0
2, 57030, Note_on_c, 0, 74, 77
2, 57033, Note_on_c, 0, 42, 47
2, 57038, Note_on_c, 0, 71, 69
2, 57097, Note_on_c, 0, 71, 0
2, 57351, Note_on_c, 0, 71, 73
2, 57388, Note_on_c, 0, 71, 0
2, 57393, Note_on_c, 0, 74, 0
2, 57497, Note_on_c, 0, 77, 79
2, 57517, Note_on_c, 0, 74, 65
2, 57585, Note_on_c, 0, 74, 0
2, 57670, Note_on_c, 0, 71, 65
2, 57732, Note_on_c, 0, 71, 0
2, 57744, Note_on_c, 0, 77, 0
2, 57809, Note_on_c, 0, 74, 73
2, 57841, Note_on_c, 0, 74, 0
2, 57941, Note_on_c, 0, 42, 0
2, 57962, Note_on_c, 0, 78, 74
2, 57971, Note_on_c, 0, 73, 63
2, 58072, Note_on_c, 0, 73, 0
2, 58121, Note_on_c, 0, 70, 64
2, 58177, Control_c, 0, 67, 10
2, 58192, Control_c, 0, 67, 13
2, 58207, Control_c, 0, 67, 13
2, 58208, Note_on_c, 0, 50, 61
2, 58247, Note_on_c, 0, 78, 0
2, 58248, Note_on_c, 0, 70, 0
2, 58254, Note_on_c, 0, 76, 67
2, 58264, Note_on_c, 0, 73, 62
2, 58268, Control_c, 0, 67, 13
2, 58277, Note_on_c, 0, 52, 61
2, 58280, Note_on_c, 0, 50, 0
2, 58325, Note_on_c, 0, 73, 0
2, 58328, Control_c, 0, 67, 12
2, 58350, Note_on_c, 0, 52, 0
2, 58352, Control_c, 0, 67, 12
2, 58358, Note_on_c, 0, 54, 57
2, 58367, Control_c, 0, 67, 11
2, 58382, Control_c, 0, 67, 11
2, 58416, Note_on_c, 0, 74, 74
2, 58417, Note_on_c, 0, 54, 0
2, 58421, Note_on_c, 0, 71, 67
2, 58428, Control_c, 0, 67, 10
2, 58436, Note_on_c, 0, 55, 60
2, 58443, Control_c, 0, 67, 9
2, 58460, Control_c, 0, 67, 9
2, 58474, Control_c, 0, 67, 8
2, 58475, Note_on_c, 0, 55, 0
2, 58486, Note_on_c, 0, 76, 0
2, 58489, Control_c, 0, 67, 8
2, 58520, Control_c, 0, 67, 0
2, 58579, Note_on_c, 0, 54, 61
2, 58643, Note_on_c, 0, 54, 0
2, 58728, Note_on_c, 0, 79, 73
2, 58731, Note_on_c, 0, 52, 58
2, 58751, Note_on_c, 0, 71, 0
2, 58760, Note_on_c, 0, 74, 0
2, 58802, Note_on_c, 0, 52, 0
2, 58898, Note_on_c, 0, 74, 66
2, 58902, Note_on_c, 0, 54, 35
2, 58914, Note_on_c, 0, 71, 46
2, 58929, Note_on_c, 0, 79, 0
2, 59020, Control_c, 0, 64, 52
2, 59035, Control_c, 0, 64, 62
2, 59050, Control_c, 0, 64, 68
2, 59066, Control_c, 0, 64, 77
2, 59080, Control_c, 0, 64, 91
2, 59096, Control_c, 0, 64, 114
2, 59098, Note_on_c, 0, 71, 0
2, 59119, Control_c, 0, 64, 127
2, 59156, Note_on_c, 0, 74, 0
2, 59164, Control_c, 0, 67, 8
2, 59180, Control_c, 0, 67, 14
2, 59195, Control_c, 0, 67, 21
2, 59210, Control_c, 0, 67, 31
2, 59225, Control_c, 0, 67, 40
2, 59240, Control_c, 0, 67, 48
2, 59256, Control_c, 0, 67, 56
2, 59272, Control_c, 0, 67, 63
2, 59281, Note_on_c, 0, 54, 0
2, 59287, Control_c, 0, 67, 69
2, 59290, Note_on_c, 0, 73, 67
2, 59303, Control_c, 0, 64, 113
2, 59303, Control_c, 0, 67, 73
2, 59318, Control_c, 0, 64, 104
2, 59318, Control_c, 0, 67, 74
2, 59331, Note_on_c, 0, 73, 0
2, 59332, Control_c, 0, 64, 96
2, 59348, Control_c, 0, 64, 86
2, 59362, Note_on_c, 0, 74, 68
2, 59363, Control_c, 0, 64, 76
2, 59378, Control_c, 0, 64, 69
2, 59393, Control_c, 0, 64, 64
2, 59408, Control_c, 0, 64, 59
2, 59417, Note_on_c, 0, 42, 32
2, 59417, Note_on_c, 0, 73, 77
2, 59424, Control_c, 0, 64, 52
2, 59437, Note_on_c, 0, 74, 0
2, 59439, Control_c, 0, 64, 39
2, 59439, Control_c, 0, 67, 73
2, 59453, Control_c, 0, 64, 0
2, 59453, Control_c, 0, 67, 72
2, 59469, Control_c, 0, 67, 71
2, 59484, Control_c, 0, 67, 70
2, 59500, Control_c, 0, 67, 69
2, 59515, Control_c, 0, 67, 69
2, 59529, Control_c, 0, 67, 68
2, 59545, Control_c, 0, 67, 68
2, 59560, Control_c, 0, 67, 67
2, 59576, Control_c, 0, 67, 66
2, 59581, Note_on_c, 0, 71, 65
2, 59591, Control_c, 0, 67, 63
2, 59606, Control_c, 0, 67, 63
2, 59610, Note_on_c, 0, 73, 0
2, 59622, Control_c, 0, 67, 62
2, 59637, Control_c, 0, 67, 60
2, 59641, Note_on_c, 0, 42, 0
2, 59643, Note_on_c, 0, 71, 0
2, 59651, Control_c, 0, 67, 57
2, 59667, Control_c, 0, 67, 52
2, 59682, Control_c, 0, 67, 46
2, 59698, Control_c, 0, 67, 40
2, 59713, Control_c, 0, 67, 35
2, 59725, Note_on_c, 0, 73, 72
2, 59727, Control_c, 0, 67, 31
2, 59743, Control_c, 0, 67, 27
2, 59758, Control_c, 0, 67, 23
2, 59772, Control_c, 0, 67, 19
2, 59788, Control_c, 0, 67, 11
2, 59795, Note_on_c, 0, 73, 0
2, 59803, Control_c, 0, 67, 0
2, 59864, Note_on_c, 0, 47, 51
2, 59888, Note_on_c, 0, 71, 63
2, 60080, Note_on_c, 0, 74, 63
2, 60096, Note_on_c, 0, 71, 0
2, 60154, Note_on_c, 0, 73, 64
2, 60183, Note_on_c, 0, 74, 0
2, 60204, Note_on_c, 0, 47, 0
2, 60205, Note_on_c, 0, 54, 49
2, 60230, Note_on_c, 0, 71, 66
2, 60232, Note_on_c, 0, 54, 0
2, 60274, Note_on_c, 0, 73, 0
2, 60308, Note_on_c, 0, 69, 64
2, 60337, Note_on_c, 0, 71, 0
2, 60366, Note_on_c, 0, 59, 62
2, 60406, Note_on_c, 0, 59, 0
2, 60417, Note_on_c, 0, 69, 0
2, 60425, Note_on_c, 0, 58, 63
2, 60426, Note_on_c, 0, 67, 68
2, 60462, Note_on_c, 0, 58, 0
2, 60504, Note_on_c, 0, 59, 64
2, 60582, Note_on_c, 0, 67, 0
2, 60585, Note_on_c, 0, 71, 66
2, 60661, Note_on_c, 0, 69, 66
2, 60664, Note_on_c, 0, 71, 0
2, 60731, Note_on_c, 0, 67, 70
2, 60770, Note_on_c, 0, 69, 0
2, 60806, Note_on_c, 0, 66, 73
2, 60809, Note_on_c, 0, 67, 0
2, 60878, Note_on_c, 0, 64, 74
2, 60880, Note_on_c, 0, 66, 0
2, 60922, Note_on_c, 0, 64, 0
2, 60997, Note_on_c, 0, 59, 0
2, 61032, Note_on_c, 0, 67, 71
2, 61035, Note_on_c, 0, 60, 55
2, 61071, Note_on_c, 0, 67, 0
2, 61088, Note_on_c, 0, 60, 0
2, 61113, Note_on_c, 0, 59, 63
2, 61153, Note_on_c, 0, 59, 0
2, 61168, Note_on_c, 0, 57, 68
2, 61180, Note_on_c, 0, 72, 75
2, 61227, Note_on_c, 0, 72, 0
2, 61233, Note_on_c, 0, 57, 0
2, 61242, Note_on_c, 0, 55, 63
2, 61316, Note_on_c, 0, 72, 76
2, 61333, Note_on_c, 0, 54, 62
2, 61346, Note_on_c, 0, 55, 0
2, 61443, Note_on_c, 0, 54, 0
2, 61484, Note_on_c, 0, 69, 57
2, 61508, Note_on_c, 0, 55, 58
2, 61533, Note_on_c, 0, 69, 0
2, 61551, Note_on_c, 0, 55, 0
2, 61576, Note_on_c, 0, 54, 60
2, 61642, Note_on_c, 0, 66, 65
2, 61661, Note_on_c, 0, 54, 0
2, 61673, Note_on_c, 0, 52, 51
2, 61711, Note_on_c, 0, 66, 0
2, 61715, Note_on_c, 0, 52, 0
2, 61727, Note_on_c, 0, 50, 62
2, 61793, Note_on_c, 0, 62, 61
2, 61804, Note_on_c, 0, 50, 0
2, 61820, Note_on_c, 0, 55, 54
2, 61863, Note_on_c, 0, 55, 0
2, 61890, Note_on_c, 0, 57, 61
2, 61917, Note_on_c, 0, 57, 0
2, 61962, Note_on_c, 0, 59, 56
2, 61963, Note_on_c, 0, 67, 57
2, 61980, Note_on_c, 0, 62, 0
2, 62014, Note_on_c, 0, 59, 0
2, 62046, Note_on_c, 0, 55, 55
2, 62083, Note_on_c, 0, 55, 0
2, 62115, Note_on_c, 0, 71, 64
2, 62116, Note_on_c, 0, 54, 48
2, 62116, Note_on_c, 0, 72, 0
2, 62159, Note_on_c, 0, 54, 0
2, 62165, Note_on_c, 0, 71, 0
2, 62199, Note_on_c, 0, 55, 53
2, 62289, Note_on_c, 0, 71, 67
2, 62296, Note_on_c, 0, 49, 47
2, 62306, Note_on_c, 0, 55, 0
2, 62309, Note_on_c, 0, 67, 0
2, 62353, Note_on_c, 0, 49, 0
2, 62371, Note_on_c, 0, 69, 57
2, 62444, Note_on_c, 0, 67, 57
2, 62447, Note_on_c, 0, 52, 57
2, 62483, Note_on_c, 0, 52, 0
2, 62496, Note_on_c, 0, 69, 0
2, 62513, Note_on_c, 0, 67, 0
2, 62519, Note_on_c, 0, 66, 57
2, 62556, Note_on_c, 0, 66, 0
2, 62588, Note_on_c, 0, 64, 57
2, 62602, Note_on_c, 0, 49, 54
2, 62621, Note_on_c, 0, 64, 0
2, 62656, Note_on_c, 0, 49, 0
2, 62673, Note_on_c, 0, 62, 55
2, 62740, Note_on_c, 0, 62, 0
2, 62744, Note_on_c, 0, 61, 70
2, 62772, Note_on_c, 0, 54, 27
2, 62809, Note_on_c, 0, 54, 0
2, 62820, Note_on_c, 0, 55, 53
2, 62850, Note_on_c, 0, 61, 0
2, 62860, Note_on_c, 0, 55, 0
2, 62900, Note_on_c, 0, 57, 59
2, 62910, Note_on_c, 0, 66, 66
2, 62957, Note_on_c, 0, 57, 0
2, 62994, Note_on_c, 0, 54, 53
2, 63028, Note_on_c, 0, 54, 0
2, 63057, Note_on_c, 0, 69, 67
2, 63062, Note_on_c, 0, 52, 54
2, 63071, Note_on_c, 0, 71, 0
2, 63114, Note_on_c, 0, 69, 0
2, 63115, Note_on_c, 0, 52, 0
2, 63128, Note_on_c, 0, 54, 47
2, 63221, Note_on_c, 0, 47, 54
2, 63223, Note_on_c, 0, 69, 68
2, 63229, Note_on_c, 0, 54, 0
2, 63236, Note_on_c, 0, 66, 0
2, 63260, Note_on_c, 0, 47, 0
2, 63300, Note_on_c, 0, 67, 53
2, 63372, Note_on_c, 0, 66, 60
2, 63382, Note_on_c, 0, 50, 59
2, 63418, Note_on_c, 0, 50, 0
2, 63440, Note_on_c, 0, 67, 0
2, 63453, Note_on_c, 0, 64, 68
2, 63461, Control_c, 0, 67, 10
2, 63476, Control_c, 0, 67, 16
2, 63483, Note_on_c, 0, 66, 0
2, 63491, Control_c, 0, 67, 21
2, 63492, Note_on_c, 0, 64, 0
2, 63507, Control_c, 0, 67, 26
2, 63521, Control_c, 0, 67, 30
2, 63521, Note_on_c, 0, 62, 59
2, 63531, Note_on_c, 0, 47, 60
2, 63537, Control_c, 0, 67, 33
2, 63552, Control_c, 0, 67, 33
2, 63560, Note_on_c, 0, 62, 0
2, 63566, Note_on_c, 0, 47, 0
2, 63597, Control_c, 0, 67, 33
2, 63603, Note_on_c, 0, 61, 61
2, 63612, Control_c, 0, 67, 32
2, 63642, Control_c, 0, 67, 31
2, 63658, Control_c, 0, 67, 31
2, 63673, Control_c, 0, 67, 30
2, 63683, Note_on_c, 0, 59, 60
2, 63683, Note_on_c, 0, 61, 0
2, 63688, Control_c, 0, 67, 29
2, 63697, Note_on_c, 0, 52, 52
2, 63704, Control_c, 0, 67, 29
2, 63726, Control_c, 0, 67, 28
2, 63742, Control_c, 0, 67, 27
2, 63748, Note_on_c, 0, 52, 0
2, 63757, Control_c, 0, 67, 26
2, 63773, Note_on_c, 0, 54, 47
2, 63788, Control_c, 0, 67, 26
2, 63800, Note_on_c, 0, 54, 0
2, 63802, Control_c, 0, 67, 25
2, 63818, Control_c, 0, 67, 25
2, 63833, Control_c, 0, 67, 24
2, 63847, Control_c, 0, 67, 23
2, 63850, Note_on_c, 0, 64, 63
2, 63851, Note_on_c, 0, 55, 50
2, 63859, Note_on_c, 0, 59, 0
2, 63863, Control_c, 0, 67, 22
2, 63878, Control_c, 0, 67, 21
2, 63891, Note_on_c, 0, 55, 0
2, 63893, Control_c, 0, 67, 19
2, 63909, Control_c, 0, 67, 16
2, 63922, Note_on_c, 0, 52, 55
2, 63924, Control_c, 0, 67, 12
2, 63939, Control_c, 0, 67, 8
2, 63954, Control_c, 0, 67, 0
2, 63965, Note_on_c, 0, 52, 0
2, 63992, Note_on_c, 0, 69, 0
2, 64004, Note_on_c, 0, 50, 56
2, 64004, Note_on_c, 0, 67, 65
2, 64047, Note_on_c, 0, 50, 0
2, 64063, Note_on_c, 0, 67, 0
2, 64086, Note_on_c, 0, 52, 51
2, 64159, Note_on_c, 0, 45, 56
2, 64171, Note_on_c, 0, 67, 69
2, 64180, Note_on_c, 0, 52, 0
2, 64205, Note_on_c, 0, 64, 0
2, 64206, Note_on_c, 0, 45, 0
2, 64248, Note_on_c, 0, 66, 54
2, 64319, Note_on_c, 0, 49, 59
2, 64329, Note_on_c, 0, 64, 61
2, 64348, Note_on_c, 0, 49, 0
2, 64359, Note_on_c, 0, 66, 0
2, 64360, Note_on_c, 0, 64, 0
2, 64391, Note_on_c, 0, 62, 58
2, 64429, Note_on_c, 0, 62, 0
2, 64457, Note_on_c, 0, 45, 62
2, 64482, Note_on_c, 0, 61, 58
2, 64507, Note_on_c, 0, 45, 0
2, 64558, Note_on_c, 0, 59, 61
2, 64568, Note_on_c, 0, 61, 0
2, 64630, Note_on_c, 0, 57, 61
2, 64634, Note_on_c, 0, 50, 52
2, 64660, Note_on_c, 0, 59, 0
2, 64675, Note_on_c, 0, 50, 0
2, 64715, Note_on_c, 0, 52, 50
2, 64746, Note_on_c, 0, 52, 0
2, 64791, Note_on_c, 0, 57, 0
2, 64796, Note_on_c, 0, 62, 59
2, 64799, Note_on_c, 0, 54, 53
2, 64831, Note_on_c, 0, 54, 0
2, 64870, Note_on_c, 0, 50, 64
2, 64911, Note_on_c, 0, 50, 0
2, 64926, Note_on_c, 0, 49, 64
2, 64953, Note_on_c, 0, 66, 63
2, 64971, Note_on_c, 0, 49, 0
2, 64985, Note_on_c, 0, 67, 0
2, 65034, Note_on_c, 0, 50, 51
2, 65099, Note_on_c, 0, 50, 0
2, 65116, Note_on_c, 0, 47, 53
2, 65118, Note_on_c, 0, 66, 0
2, 65177, Note_on_c, 0, 48, 62
2, 65183, Note_on_c, 0, 47, 0
2, 65199, Control_c, 0, 64, 13
2, 65215, Control_c, 0, 64, 20
2, 65216, Note_on_c, 0, 48, 0
2, 65230, Control_c, 0, 64, 22
2, 65246, Control_c, 0, 64, 19
2, 65268, Control_c, 0, 64, 0
2, 65269, Note_on_c, 0, 66, 60
2, 65274, Note_on_c, 0, 50, 61
2, 65331, Note_on_c, 0, 50, 0
2, 65355, Note_on_c, 0, 47, 67
2, 65374, Control_c, 0, 64, 34
2, 65389, Control_c, 0, 64, 45
2, 65405, Control_c, 0, 64, 53
2, 65408, Note_on_c, 0, 47, 0
2, 65420, Control_c, 0, 64, 59
2, 65431, Note_on_c, 0, 72, 72
2, 65432, Note_on_c, 0, 45, 62
2, 65434, Control_c, 0, 64, 64
2, 65450, Control_c, 0, 64, 68
2, 65465, Control_c, 0, 64, 74
2, 65465, Note_on_c, 0, 66, 0
2, 65466, Note_on_c, 0, 45, 0
2, 65477, Note_on_c, 0, 72, 0
2, 65480, Control_c, 0, 64, 78
2, 65496, Control_c, 0, 64, 83
2, 65503, Note_on_c, 0, 47, 70
2, 65511, Control_c, 0, 64, 86
2, 65527, Control_c, 0, 64, 87
2, 65541, Control_c, 0, 64, 85
2, 65556, Control_c, 0, 64, 83
2, 65572, Control_c, 0, 64, 79
2, 65582, Note_on_c, 0, 47, 0
2, 65586, Control_c, 0, 64, 76
2, 65592, Note_on_c, 0, 71, 69
2, 65596, Note_on_c, 0, 43, 57
2, 65602, Control_c, 0, 64, 73
2, 65616, Control_c, 0, 64, 70
2, 65631, Control_c, 0, 64, 66
2, 65647, Control_c, 0, 64, 63
2, 65652, Note_on_c, 0, 62, 0
2, 65662, Control_c, 0, 64, 60
2, 65666, Note_on_c, 0, 43, 0
2, 65673, Note_on_c, 0, 45, 61
2, 65676, Control_c, 0, 64, 58
2, 65692, Control_c, 0, 64, 54
2, 65707, Control_c, 0, 64, 48
2, 65723, Control_c, 0, 64, 37
2, 65726, Note_on_c, 0, 45, 0
2, 65738, Control_c, 0, 64, 17
2, 65740, Note_on_c, 0, 47, 57
2, 65749, Note_on_c, 0, 67, 65
2, 65752, Control_c, 0, 64, 0
2, 65768, Note_on_c, 0, 47, 0
2, 65814, Note_on_c, 0, 45, 63
2, 65830, Note_on_c, 0, 66, 66
2, 65858, Note_on_c, 0, 67, 0
2, 65872, Note_on_c, 0, 45, 0
2, 65898, Note_on_c, 0, 43, 66
2, 65904, Note_on_c, 0, 64, 67
2, 65923, Note_on_c, 0, 66, 0
2, 65933, Note_on_c, 0, 64, 0
2, 65942, Note_on_c, 0, 43, 0
2, 65967, Note_on_c, 0, 42, 57
2, 65977, Note_on_c, 0, 62, 64
2, 66016, Note_on_c, 0, 42, 0
2, 66053, Note_on_c, 0, 40, 65
2, 66054, Note_on_c, 0, 71, 0
2, 66061, Note_on_c, 0, 67, 72
2, 66076, Note_on_c, 0, 62, 0
2, 66141, Note_on_c, 0, 40, 0
2, 66141, Note_on_c, 0, 42, 59
2, 66181, Note_on_c, 0, 42, 0
2, 66203, Note_on_c, 0, 43, 62
2, 66213, Note_on_c, 0, 73, 72
2, 66218, Note_on_c, 0, 67, 0
2, 66221, Note_on_c, 0, 64, 62
2, 66254, Note_on_c, 0, 43, 0
2, 66266, Note_on_c, 0, 42, 56
2, 66347, Note_on_c, 0, 42, 0
2, 66355, Note_on_c, 0, 40, 64
2, 66366, Note_on_c, 0, 74, 63
2, 66371, Note_on_c, 0, 66, 63
2, 66396, Note_on_c, 0, 64, 0
2, 66396, Note_on_c, 0, 73, 0
2, 66428, Note_on_c, 0, 66, 0
2, 66435, Note_on_c, 0, 40, 0
2, 66442, Note_on_c, 0, 38, 61
2, 66530, Note_on_c, 0, 45, 58
2, 66613, Note_on_c, 0, 38, 0
2, 66710, Note_on_c, 0, 62, 49
2, 66713, Note_on_c, 0, 71, 51
2, 66737, Note_on_c, 0, 74, 0
2, 66775, Note_on_c, 0, 62, 0
2, 66778, Control_c, 0, 64, 34
2, 66801, Control_c, 0, 64, 45
2, 66817, Control_c, 0, 64, 52
2, 66831, Control_c, 0, 64, 58
2, 66846, Control_c, 0, 64, 63
2, 66862, Control_c, 0, 64, 66
2, 66877, Control_c, 0, 64, 70
2, 66878, Note_on_c, 0, 73, 71
2, 66891, Note_on_c, 0, 64, 60
2, 66893, Control_c, 0, 64, 75
2, 66907, Control_c, 0, 64, 80
2, 66909, Note_on_c, 0, 71, 0
2, 66922, Control_c, 0, 64, 85
2, 66922, Note_on_c, 0, 64, 0
2, 66938, Control_c, 0, 64, 91
2, 66952, Control_c, 0, 64, 96
2, 66967, Control_c, 0, 64, 97
2, 66998, Control_c, 0, 64, 96
2, 67014, Control_c, 0, 64, 94
2, 67028, Control_c, 0, 64, 92
2, 67035, Note_on_c, 0, 76, 72
2, 67051, Note_on_c, 0, 67, 55
2, 67059, Control_c, 0, 64, 92
2, 67074, Control_c, 0, 64, 90
2, 67090, Control_c, 0, 64, 88
2, 67091, Note_on_c, 0, 73, 0
2, 67105, Control_c, 0, 64, 86
2, 67107, Note_on_c, 0, 45, 0
2, 67120, Control_c, 0, 64, 83
2, 67127, Note_on_c, 0, 44, 62
2, 67136, Control_c, 0, 64, 80
2, 67151, Control_c, 0, 64, 78
2, 67165, Control_c, 0, 64, 76
2, 67179, Control_c, 0, 64, 73
2, 67194, Control_c, 0, 64, 70
2, 67207, Note_on_c, 0, 46, 66
2, 67209, Control_c, 0, 64, 66
2, 67209, Note_on_c, 0, 44, 0
2, 67225, Control_c, 0, 64, 63
2, 67239, Control_c, 0, 64, 59
2, 67254, Control_c, 0, 64, 54
2, 67270, Control_c, 0, 64, 44
2, 67271, Note_on_c, 0, 46, 0
2, 67285, Control_c, 0, 64, 0
2, 67286, Note_on_c, 0, 47, 66
2, 67336, Note_on_c, 0, 67, 0
2, 67362, Note_on_c, 0, 49, 68
2, 67364, Note_on_c, 0, 47, 0
2, 67427, Note_on_c, 0, 49, 0
2, 67429, Note_on_c, 0, 46, 67
2, 67511, Note_on_c, 0, 47, 77
2, 67545, Note_on_c, 0, 46, 0
2, 67685, Note_on_c, 0, 73, 73
2, 67686, Note_on_c, 0, 64, 69
2, 67704, Control_c, 0, 64, 47
2, 67713, Note_on_c, 0, 76, 0
2, 67719, Control_c, 0, 64, 56
2, 67732, Note_on_c, 0, 64, 0
2, 67734, Control_c, 0, 64, 62
2, 67749, Control_c, 0, 64, 67
2, 67764, Control_c, 0, 64, 73
2, 67780, Control_c, 0, 64, 80
2, 67794, Control_c, 0, 64, 87
2, 67809, Control_c, 0, 64, 95
2, 67825, Control_c, 0, 64, 105
2, 67840, Control_c, 0, 64, 113
2, 67842, Note_on_c, 0, 74, 81
2, 67851, Note_on_c, 0, 66, 71
2, 67856, Control_c, 0, 64, 118
2, 67870, Control_c, 0, 64, 121
2, 67879, Note_on_c, 0, 66, 0
2, 67886, Control_c, 0, 64, 120
2, 67887, Note_on_c, 0, 73, 0
2, 67894, Note_on_c, 0, 74, 0
2, 67902, Control_c, 0, 64, 116
2, 67916, Control_c, 0, 64, 115
2, 67962, Control_c, 0, 64, 114
2, 67978, Control_c, 0, 64, 108
2, 67993, Control_c, 0, 64, 102
2, 68007, Control_c, 0, 64, 97
2, 68010, Note_on_c, 0, 79, 92
2, 68020, Note_on_c, 0, 71, 74
2, 68023, Control_c, 0, 64, 92
2, 68038, Control_c, 0, 64, 87
2, 68053, Control_c, 0, 64, 82
2, 68069, Control_c, 0, 64, 77
2, 68084, Control_c, 0, 64, 71
2, 68087, Note_on_c, 0, 47, 0
2, 68100, Control_c, 0, 64, 66
2, 68103, Note_on_c, 0, 45, 61
2, 68115, Control_c, 0, 64, 63
2, 68129, Control_c, 0, 64, 61
2, 68145, Control_c, 0, 64, 59
2, 68160, Control_c, 0, 64, 55
2, 68176, Control_c, 0, 64, 46
2, 68189, Note_on_c, 0, 47, 69
2, 68191, Control_c, 0, 64, 21
2, 68205, Control_c, 0, 64, 0
2, 68224, Note_on_c, 0, 45, 0
2, 68262, Note_on_c, 0, 47, 0
2, 68266, Note_on_c, 0, 50, 71
2, 68344, Note_on_c, 0, 49, 74
2, 68344, Note_on_c, 0, 50, 0
2, 68407, Note_on_c, 0, 49, 0
2, 68408, Note_on_c, 0, 71, 0
2, 68429, Note_on_c, 0, 52, 80
2, 68506, Note_on_c, 0, 52, 0
2, 68507, Note_on_c, 0, 50, 78
2, 68662, Note_on_c, 0, 78, 77
2, 68667, Note_on_c, 0, 69, 68
2, 68699, Note_on_c, 0, 79, 0
2, 68707, Note_on_c, 0, 69, 0
2, 68791, Control_c, 0, 64, 24
2, 68806, Control_c, 0, 64, 41
2, 68822, Control_c, 0, 64, 50
2, 68832, Note_on_c, 0, 76, 81
2, 68837, Control_c, 0, 64, 57
2, 68837, Note_on_c, 0, 67, 72
2, 68851, Control_c, 0, 64, 62
2, 68867, Control_c, 0, 64, 64
2, 68869, Note_on_c, 0, 67, 0
2, 68882, Control_c, 0, 64, 66
2, 68886, Note_on_c, 0, 78, 0
2, 68898, Control_c, 0, 64, 68
2, 68913, Control_c, 0, 64, 70
2, 68928, Control_c, 0, 64, 72
2, 68944, Control_c, 0, 64, 73
2, 68958, Control_c, 0, 64, 74
2, 69002, Note_on_c, 0, 78, 78
2, 69011, Note_on_c, 0, 69, 69
2, 69037, Note_on_c, 0, 76, 0
2, 69049, Control_c, 0, 64, 73
2, 69065, Control_c, 0, 64, 72
2, 69078, Note_on_c, 0, 50, 0
2, 69080, Control_c, 0, 64, 71
2, 69104, Control_c, 0, 64, 70
2, 69106, Note_on_c, 0, 52, 62
2, 69119, Control_c, 0, 64, 68
2, 69134, Control_c, 0, 64, 66
2, 69148, Note_on_c, 0, 52, 0
2, 69149, Control_c, 0, 64, 63
2, 69164, Control_c, 0, 64, 61
2, 69180, Control_c, 0, 64, 61
2, 69195, Control_c, 0, 64, 60
2, 69195, Note_on_c, 0, 50, 65
2, 69209, Control_c, 0, 64, 58
2, 69225, Control_c, 0, 64, 56
2, 69240, Control_c, 0, 64, 52
2, 69256, Control_c, 0, 64, 47
2, 69261, Note_on_c, 0, 50, 0
2, 69271, Control_c, 0, 64, 42
2, 69275, Note_on_c, 0, 48, 67
2, 69285, Control_c, 0, 64, 37
2, 69301, Control_c, 0, 64, 33
2, 69316, Control_c, 0, 64, 28
2, 69331, Control_c, 0, 64, 17
2, 69339, Note_on_c, 0, 78, 0
2, 69347, Control_c, 0, 64, 0
2, 69350, Note_on_c, 0, 48, 0
2, 69356, Note_on_c, 0, 47, 73
2, 69432, Note_on_c, 0, 45, 67
2, 69435, Note_on_c, 0, 47, 0
2, 69457, Note_on_c, 0, 69, 0
2, 69498, Note_on_c, 0, 45, 0
2, 69503, Note_on_c, 0, 43, 70
2, 69604, Note_on_c, 0, 50, 69
2, 69609, Note_on_c, 0, 43, 0
2, 69644, Note_on_c, 0, 50, 0
2, 69665, Note_on_c, 0, 76, 70
2, 69671, Note_on_c, 0, 67, 59
2, 69685, Note_on_c, 0, 52, 69
2, 69699, Note_on_c, 0, 67, 0
2, 69755, Note_on_c, 0, 52, 0
2, 69757, Note_on_c, 0, 54, 69
2, 69802, Note_on_c, 0, 76, 0
2, 69818, Note_on_c, 0, 74, 71
2, 69821, Note_on_c, 0, 66, 59
2, 69834, Note_on_c, 0, 55, 74
2, 69836, Note_on_c, 0, 54, 0
2, 69866, Note_on_c, 0, 66, 0
2, 69876, Note_on_c, 0, 55, 0
2, 69910, Note_on_c, 0, 57, 69
2, 69985, Note_on_c, 0, 67, 64
2, 69990, Note_on_c, 0, 57, 0
2, 69992, Note_on_c, 0, 58, 63
2, 69992, Note_on_c, 0, 76, 68
2, 69993, Control_c, 0, 64, 18
2, 69996, Note_on_c, 0, 74, 0
2, 70007, Control_c, 0, 64, 23
2, 70023, Control_c, 0, 64, 26
2, 70036, Note_on_c, 0, 67, 0
2, 70038, Control_c, 0, 64, 30
2, 70053, Control_c, 0, 64, 34
2, 70068, Control_c, 0, 64, 37
2, 70083, Control_c, 0, 64, 38
2, 70114, Control_c, 0, 64, 32
2, 70129, Control_c, 0, 64, 19
2, 70145, Control_c, 0, 64, 0
2, 70153, Note_on_c, 0, 73, 72
2, 70157, Note_on_c, 0, 76, 0
2, 70161, Note_on_c, 0, 64, 68
2, 70221, Control_c, 0, 64, 13
2, 70236, Control_c, 0, 64, 40
2, 70236, Note_on_c, 0, 73, 0
2, 70250, Control_c, 0, 64, 53
2, 70266, Control_c, 0, 64, 60
2, 70281, Control_c, 0, 64, 64
2, 70297, Control_c, 0, 64, 69
2, 70312, Control_c, 0, 64, 75
2, 70313, Note_on_c, 0, 74, 75
2, 70316, Note_on_c, 0, 66, 63
2, 70326, Control_c, 0, 64, 83
2, 70342, Control_c, 0, 64, 89
2, 70357, Control_c, 0, 64, 104
2, 70359, Note_on_c, 0, 66, 0
2, 70371, Control_c, 0, 64, 114
2, 70374, Note_on_c, 0, 64, 0
2, 70383, Note_on_c, 0, 74, 0
2, 70387, Control_c, 0, 64, 118
2, 70402, Control_c, 0, 64, 122
2, 70447, Control_c, 0, 64, 119
2, 70463, Control_c, 0, 64, 115
2, 70478, Control_c, 0, 64, 111
2, 70493, Control_c, 0, 64, 106
2, 70493, Note_on_c, 0, 64, 62
2, 70493, Note_on_c, 0, 74, 68
2, 70509, Control_c, 0, 64, 100
2, 70524, Control_c, 0, 64, 91
2, 70533, Note_on_c, 0, 74, 0
2, 70534, Note_on_c, 0, 73, 69
2, 70540, Control_c, 0, 64, 81
2, 70554, Control_c, 0, 64, 71
2, 70560, Note_on_c, 0, 73, 0
2, 70569, Control_c, 0, 64, 64
2, 70585, Control_c, 0, 64, 54
2, 70600, Control_c, 0, 64, 39
2, 70604, Note_on_c, 0, 74, 62
2, 70616, Control_c, 0, 64, 8
2, 70621, Note_on_c, 0, 73, 76
2, 70638, Control_c, 0, 64, 0
2, 70674, Note_on_c, 0, 58, 0
2, 70677, Note_on_c, 0, 74, 0
2, 70710, Note_on_c, 0, 57, 60
2, 70753, Note_on_c, 0, 57, 0
2, 70797, Note_on_c, 0, 58, 56
2, 70851, Note_on_c, 0, 58, 0
2, 70878, Note_on_c, 0, 55, 67
2, 70944, Note_on_c, 0, 55, 0
2, 70963, Note_on_c, 0, 52, 64
2, 71036, Note_on_c, 0, 52, 0
2, 71052, Note_on_c, 0, 55, 57
2, 71102, Note_on_c, 0, 64, 0
2, 71106, Note_on_c, 0, 55, 0
2, 71145, Note_on_c, 0, 65, 57
2, 71147, Note_on_c, 0, 57, 44
2, 71181, Note_on_c, 0, 57, 0
2, 71185, Note_on_c, 0, 65, 0
2, 71218, Note_on_c, 0, 64, 66
2, 71220, Note_on_c, 0, 55, 59
2, 71249, Note_on_c, 0, 55, 0
2, 71257, Note_on_c, 0, 64, 0
2, 71294, Note_on_c, 0, 57, 53
2, 71303, Note_on_c, 0, 65, 56
2, 71347, Note_on_c, 0, 57, 0
2, 71374, Note_on_c, 0, 65, 0
2, 71378, Note_on_c, 0, 53, 57
2, 71381, Note_on_c, 0, 62, 52
2, 71424, Note_on_c, 0, 53, 0
2, 71460, Note_on_c, 0, 73, 0
2, 71464, Note_on_c, 0, 69, 50
2, 71468, Note_on_c, 0, 50, 48
2, 71478, Note_on_c, 0, 62, 0
2, 71503, Note_on_c, 0, 69, 0
2, 71520, Note_on_c, 0, 50, 0
2, 71524, Note_on_c, 0, 65, 55
2, 71536, Note_on_c, 0, 53, 55
2, 71593, Note_on_c, 0, 53, 0
2, 71620, Note_on_c, 0, 70, 74
2, 71626, Note_on_c, 0, 55, 51
2, 71652, Note_on_c, 0, 65, 0
2, 71673, Note_on_c, 0, 55, 0
2, 71711, Note_on_c, 0, 53, 53
2, 71740, Note_on_c, 0, 53, 0
2, 71779, Note_on_c, 0, 55, 54
2, 71781, Note_on_c, 0, 64, 57
2, 71820, Note_on_c, 0, 55, 0
2, 71866, Note_on_c, 0, 52, 54
2, 71912, Note_on_c, 0, 52, 0
2, 71923, Note_on_c, 0, 70, 0
2, 71930, Note_on_c, 0, 67, 58
2, 71948, Note_on_c, 0, 49, 45
2, 72001, Note_on_c, 0, 49, 0
2, 72012, Note_on_c, 0, 52, 54
2, 72059, Note_on_c, 0, 52, 0
2, 72096, Note_on_c, 0, 53, 52
2, 72099, Note_on_c, 0, 69, 65
2, 72102, Note_on_c, 0, 64, 0
2, 72128, Note_on_c, 0, 67, 0
2, 72136, Note_on_c, 0, 53, 0
2, 72155, Note_on_c, 0, 52, 57
2, 72174, Control_c, 0, 64, 8
2, 72190, Control_c, 0, 64, 10
2, 72197, Note_on_c, 0, 52, 0
2, 72239, Note_on_c, 0, 53, 59
2, 72251, Control_c, 0, 64, 12
2, 72279, Note_on_c, 0, 61, 60
2, 72297, Control_c, 0, 64, 15
2, 72298, Note_on_c, 0, 53, 0
2, 72312, Control_c, 0, 64, 18
2, 72327, Control_c, 0, 64, 23
2, 72333, Note_on_c, 0, 50, 61
2, 72343, Control_c, 0, 64, 26
2, 72357, Control_c, 0, 64, 29
2, 72373, Control_c, 0, 64, 31
2, 72389, Control_c, 0, 64, 33
2, 72395, Note_on_c, 0, 50, 0
2, 72401, Note_on_c, 0, 69, 0
2, 72404, Control_c, 0, 64, 35
2, 72418, Note_on_c, 0, 47, 59
2, 72420, Control_c, 0, 64, 38
2, 72426, Note_on_c, 0, 62, 62
2, 72435, Control_c, 0, 64, 39
2, 72441, Note_on_c, 0, 61, 0
2, 72449, Control_c, 0, 64, 41
2, 72465, Control_c, 0, 64, 42
2, 72466, Note_on_c, 0, 47, 0
2, 72480, Control_c, 0, 64, 43
2, 72514, Note_on_c, 0, 50, 42
2, 72541, Control_c, 0, 64, 43
2, 72545, Note_on_c, 0, 50, 0
2, 72569, Note_on_c, 0, 52, 51
2, 72583, Note_on_c, 0, 67, 65
2, 72606, Note_on_c, 0, 52, 0
2, 72642, Note_on_c, 0, 50, 43
2, 72677, Control_c, 0, 64, 44
2, 72685, Note_on_c, 0, 50, 0
2, 72692, Control_c, 0, 64, 44
2, 72707, Control_c, 0, 64, 46
2, 72720, Note_on_c, 0, 62, 0
2, 72721, Note_on_c, 0, 52, 47
2, 72722, Control_c, 0, 64, 47
2, 72738, Control_c, 0, 64, 48
2, 72738, Note_on_c, 0, 61, 64
2, 72753, Control_c, 0, 64, 49
2, 72761, Note_on_c, 0, 52, 0
2, 72768, Control_c, 0, 64, 50
2, 72796, Note_on_c, 0, 49, 51
2, 72802, Note_on_c, 0, 67, 0
2, 72829, Control_c, 0, 64, 50
2, 72847, Note_on_c, 0, 49, 0
2, 72887, Note_on_c, 0, 64, 67
2, 72903, Note_on_c, 0, 45, 52
2, 72927, Note_on_c, 0, 61, 0
2, 72958, Control_c, 0, 64, 50
2, 72973, Control_c, 0, 64, 48
2, 72976, Note_on_c, 0, 45, 0
2, 72987, Note_on_c, 0, 49, 49
2, 72989, Control_c, 0, 64, 46
2, 73003, Control_c, 0, 64, 44
2, 73019, Note_on_c, 0, 49, 0
2, 73037, Note_on_c, 0, 50, 54
2, 73049, Control_c, 0, 64, 46
2, 73057, Note_on_c, 0, 65, 71
2, 73065, Control_c, 0, 64, 47
2, 73080, Control_c, 0, 64, 48
2, 73092, Note_on_c, 0, 50, 0
2, 73096, Control_c, 0, 64, 47
2, 73122, Note_on_c, 0, 49, 54
2, 73171, Control_c, 0, 64, 46
2, 73187, Control_c, 0, 64, 32
2, 73202, Control_c, 0, 64, 0
2, 73203, Note_on_c, 0, 49, 0
2, 73208, Note_on_c, 0, 57, 67
2, 73209, Note_on_c, 0, 50, 59
2, 73232, Note_on_c, 0, 64, 0
2, 73251, Note_on_c, 0, 50, 0
2, 73287, Note_on_c, 0, 53, 56
2, 73327, Note_on_c, 0, 53, 0
2, 73340, Control_c, 0, 64, 32
2, 73349, Note_on_c, 0, 57, 0
2, 73352, Note_on_c, 0, 62, 63
2, 73354, Control_c, 0, 64, 42
2, 73355, Note_on_c, 0, 46, 58
2, 73369, Control_c, 0, 64, 50
2, 73385, Control_c, 0, 64, 57
2, 73400, Control_c, 0, 64, 61
2, 73403, Note_on_c, 0, 46, 0
2, 73416, Control_c, 0, 64, 62
2, 73430, Control_c, 0, 64, 63
2, 73436, Note_on_c, 0, 50, 61
2, 73472, Note_on_c, 0, 50, 0
2, 73475, Control_c, 0, 64, 62
2, 73490, Control_c, 0, 64, 61
2, 73499, Note_on_c, 0, 44, 65
2, 73506, Control_c, 0, 64, 60
2, 73506, Note_on_c, 0, 62, 0
2, 73521, Control_c, 0, 64, 58
2, 73537, Control_c, 0, 64, 56
2, 73551, Control_c, 0, 64, 51
2, 73555, Note_on_c, 0, 59, 57
2, 73558, Note_on_c, 0, 44, 0
2, 73566, Control_c, 0, 64, 48
2, 73582, Control_c, 0, 64, 45
2, 73596, Note_on_c, 0, 45, 68
2, 73597, Control_c, 0, 64, 42
2, 73612, Control_c, 0, 64, 34
2, 73627, Control_c, 0, 64, 21
2, 73636, Note_on_c, 0, 64, 65
2, 73642, Control_c, 0, 64, 0
2, 73643, Note_on_c, 0, 59, 0
2, 73645, Note_on_c, 0, 45, 0
2, 73645, Note_on_c, 0, 65, 0
2, 73675, Note_on_c, 0, 44, 67
2, 73717, Note_on_c, 0, 62, 60
2, 73746, Note_on_c, 0, 44, 0
2, 73755, Note_on_c, 0, 64, 0
2, 73766, Note_on_c, 0, 45, 65
2, 73791, Note_on_c, 0, 61, 73
2, 73795, Note_on_c, 0, 62, 0
2, 73829, Note_on_c, 0, 45, 0
2, 73835, Note_on_c, 0, 61, 0
2, 73844, Note_on_c, 0, 44, 68
2, 73864, Note_on_c, 0, 62, 63
2, 73900, Note_on_c, 0, 44, 0
2, 73927, Note_on_c, 0, 45, 55
2, 73934, Note_on_c, 0, 65, 75
2, 73936, Note_on_c, 0, 62, 0
2, 73966, Note_on_c, 0, 45, 0
2, 73997, Note_on_c, 0, 44, 61
2, 74017, Note_on_c, 0, 71, 76
2, 74019, Note_on_c, 0, 65, 0
2, 74038, Note_on_c, 0, 44, 0
2, 74054, Note_on_c, 0, 45, 62
2, 74061, Control_c, 0, 64, 27
2, 74076, Control_c, 0, 64, 41
2, 74091, Control_c, 0, 64, 48
2, 74107, Control_c, 0, 64, 53
2, 74110, Note_on_c, 0, 45, 0
2, 74110, Note_on_c, 0, 65, 69
2, 74116, Note_on_c, 0, 71, 0
2, 74121, Control_c, 0, 64, 58
2, 74126, Note_on_c, 0, 44, 68
2, 74137, Control_c, 0, 64, 61
2, 74152, Control_c, 0, 64, 63
2, 74165, Note_on_c, 0, 44, 0
2, 74167, Control_c, 0, 64, 64
2, 74178, Note_on_c, 0, 64, 74
2, 74182, Note_on_c, 0, 65, 0
2, 74183, Control_c, 0, 64, 66
2, 74197, Control_c, 0, 64, 67
2, 74205, Note_on_c, 0, 45, 62
2, 74219, Note_on_c, 0, 64, 0
2, 74250, Note_on_c, 0, 45, 0
2, 74256, Note_on_c, 0, 62, 63
2, 74259, Control_c, 0, 64, 66
2, 74268, Note_on_c, 0, 44, 67
2, 74273, Control_c, 0, 64, 64
2, 74288, Control_c, 0, 64, 62
2, 74304, Control_c, 0, 64, 59
2, 74318, Control_c, 0, 64, 56
2, 74319, Note_on_c, 0, 62, 0
2, 74323, Note_on_c, 0, 61, 68
2, 74326, Note_on_c, 0, 44, 0
2, 74333, Control_c, 0, 64, 53
2, 74334, Note_on_c, 0, 42, 70
2, 74349, Control_c, 0, 64, 49
2, 74364, Control_c, 0, 64, 44
2, 74380, Control_c, 0, 64, 37
2, 74393, Note_on_c, 0, 61, 0
2, 74394, Control_c, 0, 64, 22
2, 74397, Note_on_c, 0, 44, 67
2, 74401, Note_on_c, 0, 59, 69
2, 74409, Control_c, 0, 64, 0
2, 74420, Note_on_c, 0, 42, 0
2, 74483, Note_on_c, 0, 45, 68
2, 74499, Note_on_c, 0, 59, 0
2, 74502, Note_on_c, 0, 61, 78
2, 74556, Note_on_c, 0, 44, 0
2, 74586, Note_on_c, 0, 57, 66
2, 74609, Note_on_c, 0, 61, 0
2, 74643, Note_on_c, 0, 57, 0
2, 74670, Note_on_c, 0, 55, 75
2, 74749, Note_on_c, 0, 54, 71
2, 74751, Note_on_c, 0, 55, 0
2, 74824, Note_on_c, 0, 52, 78
2, 74862, Note_on_c, 0, 54, 0
2, 74886, Note_on_c, 0, 52, 0
2, 74905, Note_on_c, 0, 50, 77
2, 74979, Note_on_c, 0, 49, 86
2, 74999, Note_on_c, 0, 50, 0
2, 75062, Note_on_c, 0, 47, 81
2, 75069, Note_on_c, 0, 45, 0
2, 75095, Note_on_c, 0, 49, 0
2, 75113, Note_on_c, 0, 47, 0
2, 75152, Note_on_c, 0, 45, 86
2, 75232, Note_on_c, 0, 43, 83
2, 75236, Note_on_c, 0, 45, 0
2, 75325, Note_on_c, 0, 42, 80
2, 75335, Note_on_c, 0, 43, 0
2, 75412, Note_on_c, 0, 40, 86
2, 75441, Note_on_c, 0, 42, 0
2, 75540, Note_on_c, 0, 38, 87
2, 75620, Note_on_c, 0, 40, 0
2, 75755, Note_on_c, 0, 50, 78
2, 75808, Note_on_c, 0, 50, 0
2, 75837, Note_on_c, 0, 52, 74
2, 75909, Note_on_c, 0, 54, 72
2, 75923, Note_on_c, 0, 52, 0
2, 75979, Note_on_c, 0, 55, 77
2, 75999, Note_on_c, 0, 54, 0
2, 76070, Note_on_c, 0, 57, 81
2, 76101, Note_on_c, 0, 55, 0
2, 76123, Note_on_c, 0, 57, 0
2, 76223, Note_on_c, 0, 54, 68
2, 76293, Note_on_c, 0, 54, 0
2, 76370, Note_on_c, 0, 57, 60
2, 76390, Note_on_c, 0, 59, 52
2, 76420, Note_on_c, 0, 59, 0
2, 76428, Note_on_c, 0, 57, 0
2, 76514, Note_on_c, 0, 62, 70
2, 76569, Note_on_c, 0, 62, 0
2, 76660, Note_on_c, 0, 57, 75
2, 76724, Note_on_c, 0, 57, 0
2, 76806, Note_on_c, 0, 62, 75
2, 76846, Note_on_c, 0, 38, 0
2, 76872, Note_on_c, 0, 62, 0
2, 76951, Note_on_c, 0, 66, 79
2, 77033, Note_on_c, 0, 66, 0
2, 77094, Note_on_c, 0, 62, 77
2, 77164, Note_on_c, 0, 62, 0
2, 77239, Note_on_c, 0, 66, 83
2, 77314, Note_on_c, 0, 66, 0
2, 77418, Note_on_c, 0, 69, 72
2, 77497, Control_c, 0, 64, 45
2, 77512, Control_c, 0, 64, 54
2, 77527, Control_c, 0, 64, 59
2, 77550, Control_c, 0, 64, 64
2, 77565, Control_c, 0, 64, 68
2, 77581, Control_c, 0, 64, 74
2, 77595, Control_c, 0, 64, 80
2, 77595, Note_on_c, 0, 69, 0
2, 77610, Control_c, 0, 64, 87
2, 77626, Control_c, 0, 64, 97
2, 77641, Control_c, 0, 64, 108
2, 77657, Control_c, 0, 64, 113
2, 77687, Control_c, 0, 64, 111
2, 77702, Control_c, 0, 64, 107
2, 77717, Control_c, 0, 64, 101
2, 77732, Control_c, 0, 64, 94
2, 77748, Control_c, 0, 64, 86
2, 77762, Control_c, 0, 64, 81
2, 77778, Control_c, 0, 64, 76
2, 77793, Control_c, 0, 64, 72
2, 77808, Control_c, 0, 64, 68
2, 77823, Control_c, 0, 64, 65
2, 77838, Control_c, 0, 64, 62
2, 77853, Control_c, 0, 64, 60
2, 77870, Control_c, 0, 64, 56
2, 77885, Control_c, 0, 64, 49
2, 77901, Control_c, 0, 64, 33
2, 77915, Control_c, 0, 64, 0
2, 77938, Note_on_c, 0, 78, 68
2, 77944, Note_on_c, 0, 69, 53
2, 77964, Note_on_c, 0, 50, 36
2, 78144, Control_c, 0, 64, 43
2, 78159, Control_c, 0, 64, 52
2, 78174, Control_c, 0, 64, 58
2, 78189, Control_c, 0, 64, 63
2, 78204, Control_c, 0, 64, 67
2, 78220, Control_c, 0, 64, 72
2, 78226, Note_on_c, 0, 78, 0
2, 78229, Note_on_c, 0, 69, 0
2, 78235, Control_c, 0, 64, 78
2, 78250, Control_c, 0, 64, 83
2, 78265, Control_c, 0, 64, 88
2, 78280, Control_c, 0, 64, 90
2, 78295, Control_c, 0, 64, 90
2, 78319, Control_c, 0, 64, 86
2, 78334, Control_c, 0, 64, 81
2, 78349, Control_c, 0, 64, 75
2, 78364, Control_c, 0, 64, 70
2, 78380, Control_c, 0, 64, 66
2, 78394, Control_c, 0, 64, 64
2, 78409, Control_c, 0, 64, 62
2, 78425, Control_c, 0, 64, 57
2, 78440, Control_c, 0, 64, 50
2, 78455, Control_c, 0, 64, 33
2, 78467, Note_on_c, 0, 78, 65
2, 78470, Control_c, 0, 64, 0
2, 78477, Note_on_c, 0, 57, 37
2, 78481, Note_on_c, 0, 69, 50
2, 78561, Note_on_c, 0, 50, 0
2, 78607, Note_on_c, 0, 69, 0
2, 78623, Control_c, 0, 64, 42
2, 78638, Control_c, 0, 64, 54
2, 78653, Control_c, 0, 64, 59
2, 78669, Control_c, 0, 64, 63
2, 78683, Control_c, 0, 64, 65
2, 78699, Control_c, 0, 64, 68
2, 78714, Control_c, 0, 64, 72
2, 78721, Note_on_c, 0, 76, 67
2, 78729, Control_c, 0, 64, 77
2, 78733, Note_on_c, 0, 67, 58
2, 78745, Control_c, 0, 64, 81
2, 78759, Control_c, 0, 64, 85
2, 78760, Note_on_c, 0, 78, 0
2, 78774, Control_c, 0, 64, 88
2, 78790, Control_c, 0, 64, 89
2, 78790, Note_on_c, 0, 67, 0
2, 78798, Note_on_c, 0, 76, 0
2, 78820, Control_c, 0, 64, 88
2, 78835, Control_c, 0, 64, 86
2, 78850, Control_c, 0, 64, 84
2, 78866, Control_c, 0, 64, 80
2, 78880, Control_c, 0, 64, 76
2, 78895, Control_c, 0, 64, 73
2, 78911, Control_c, 0, 64, 69
2, 78927, Control_c, 0, 64, 67
2, 78943, Control_c, 0, 64, 65
2, 78958, Control_c, 0, 64, 63
2, 78961, Note_on_c, 0, 45, 39
2, 78961, Note_on_c, 0, 57, 0
2, 78964, Note_on_c, 0, 76, 59
2, 78967, Note_on_c, 0, 67, 50
2, 78972, Control_c, 0, 64, 61
2, 78988, Control_c, 0, 64, 59
2, 79003, Control_c, 0, 64, 55
2, 79019, Control_c, 0, 64, 50
2, 79033, Control_c, 0, 64, 42
2, 79048, Control_c, 0, 64, 25
2, 79049, Note_on_c, 0, 67, 0
2, 79064, Control_c, 0, 64, 0
2, 79211, Note_on_c, 0, 74, 62
2, 79223, Note_on_c, 0, 66, 47
2, 79285, Note_on_c, 0, 76, 0
2, 79300, Control_c, 0, 64, 37
2, 79314, Control_c, 0, 64, 54
2, 79325, Note_on_c, 0, 66, 0
2, 79329, Control_c, 0, 64, 61
2, 79337, Note_on_c, 0, 74, 0
2, 79345, Control_c, 0, 64, 64
2, 79360, Control_c, 0, 64, 67
2, 79375, Control_c, 0, 64, 73
2, 79390, Control_c, 0, 64, 79
2, 79405, Control_c, 0, 64, 86
2, 79421, Control_c, 0, 64, 92
2, 79436, Control_c, 0, 64, 98
2, 79441, Note_on_c, 0, 74, 58
2, 79451, Control_c, 0, 64, 101
2, 79459, Note_on_c, 0, 50, 36
2, 79466, Note_on_c, 0, 66, 51
2, 79491, Note_on_c, 0, 74, 0
2, 79498, Control_c, 0, 64, 99
2, 79505, Note_on_c, 0, 66, 0
2, 79512, Control_c, 0, 64, 98
2, 79527, Control_c, 0, 64, 96
2, 79543, Control_c, 0, 64, 94
2, 79544, Note_on_c, 0, 45, 0
2, 79558, Control_c, 0, 64, 90
2, 79572, Control_c, 0, 64, 84
2, 79588, Control_c, 0, 64, 77
2, 79603, Control_c, 0, 64, 70
2, 79619, Control_c, 0, 64, 65
2, 79634, Control_c, 0, 64, 61
2, 79648, Control_c, 0, 64, 58
2, 79650, Note_on_c, 0, 62, 57
2, 79664, Control_c, 0, 64, 54
2, 79679, Control_c, 0, 64, 46
2, 79689, Note_on_c, 0, 62, 0
2, 79694, Control_c, 0, 64, 28
2, 79710, Control_c, 0, 64, 0
2, 79719, Note_on_c, 0, 64, 57
2, 79782, Note_on_c, 0, 50, 0
2, 79785, Note_on_c, 0, 66, 69
2, 79788, Note_on_c, 0, 64, 0
2, 79860, Note_on_c, 0, 67, 72
2, 79863, Note_on_c, 0, 66, 0
2, 79939, Note_on_c, 0, 69, 72
2, 79960, Note_on_c, 0, 67, 0
2, 79980, Note_on_c, 0, 69, 0
2, 80087, Note_on_c, 0, 66, 72
2, 80100, Note_on_c, 0, 60, 53
2, 80135, Note_on_c, 0, 66, 0
2, 80141, Note_on_c, 0, 60, 0
2, 80158, Note_on_c, 0, 59, 64
2, 80203, Note_on_c, 0, 59, 0
2, 80215, Note_on_c, 0, 57, 66
2, 80231, Note_on_c, 0, 69, 69
2, 80273, Note_on_c, 0, 55, 63
2, 80277, Note_on_c, 0, 57, 0
2, 80281, Note_on_c, 0, 69, 0
2, 80366, Note_on_c, 0, 54, 61
2, 80366, Note_on_c, 0, 72, 74
2, 80372, Note_on_c, 0, 55, 0
2, 80425, Note_on_c, 0, 72, 0
2, 80447, Note_on_c, 0, 54, 0
2, 80513, Note_on_c, 0, 69, 74
2, 80527, Note_on_c, 0, 57, 58
2, 80570, Note_on_c, 0, 57, 0
2, 80574, Note_on_c, 0, 69, 0
2, 80662, Note_on_c, 0, 72, 84
2, 80668, Note_on_c, 0, 54, 59
2, 80702, Note_on_c, 0, 54, 0
2, 80714, Note_on_c, 0, 72, 0
2, 80805, Note_on_c, 0, 78, 81
2, 80809, Note_on_c, 0, 50, 64
2, 80849, Note_on_c, 0, 50, 0
2, 80870, Note_on_c, 0, 78, 0
2, 80954, Note_on_c, 0, 72, 78
2, 80959, Note_on_c, 0, 54, 57
2, 80997, Note_on_c, 0, 54, 0
2, 81015, Note_on_c, 0, 72, 0
2, 81088, Note_on_c, 0, 78, 73
2, 81093, Note_on_c, 0, 50, 56
2, 81128, Note_on_c, 0, 50, 0
2, 81150, Note_on_c, 0, 78, 0
2, 81235, Note_on_c, 0, 45, 56
2, 81240, Note_on_c, 0, 81, 64
2, 81245, Control_c, 0, 64, 26
2, 81260, Control_c, 0, 64, 39
2, 81275, Control_c, 0, 64, 47
2, 81279, Note_on_c, 0, 45, 0
2, 81290, Control_c, 0, 64, 52
2, 81306, Control_c, 0, 64, 55
2, 81321, Control_c, 0, 64, 58
2, 81335, Control_c, 0, 64, 60
2, 81351, Control_c, 0, 64, 62
2, 81366, Control_c, 0, 64, 63
2, 81391, Note_on_c, 0, 50, 62
2, 81405, Note_on_c, 0, 81, 0
2, 81421, Control_c, 0, 64, 62
2, 81436, Control_c, 0, 64, 60
2, 81447, Note_on_c, 0, 50, 0
2, 81450, Control_c, 0, 64, 58
2, 81466, Control_c, 0, 64, 55
2, 81481, Control_c, 0, 64, 50
2, 81497, Control_c, 0, 64, 45
2, 81512, Control_c, 0, 64, 38
2, 81527, Control_c, 0, 64, 27
2, 81537, Note_on_c, 0, 45, 69
2, 81543, Control_c, 0, 64, 10
2, 81558, Control_c, 0, 64, 0
2, 81577, Note_on_c, 0, 45, 0
2, 81681, Note_on_c, 0, 42, 56
2, 81690, Note_on_c, 0, 72, 69
2, 81691, Note_on_c, 0, 69, 56
2, 81726, Note_on_c, 0, 42, 0
2, 81838, Note_on_c, 0, 45, 70
2, 81879, Note_on_c, 0, 45, 0
2, 81948, Note_on_c, 0, 72, 0
2, 81954, Note_on_c, 0, 69, 0
2, 81983, Note_on_c, 0, 42, 69
2, 82041, Note_on_c, 0, 42, 0
2, 82139, Note_on_c, 0, 38, 54
2, 82157, Note_on_c, 0, 72, 62
2, 82166, Note_on_c, 0, 69, 54
2, 82341, Control_c, 0, 64, 30
2, 82356, Control_c, 0, 64, 44
2, 82371, Control_c, 0, 64, 52
2, 82387, Control_c, 0, 64, 57
2, 82393, Note_on_c, 0, 71, 66
2, 82396, Note_on_c, 0, 67, 59
2, 82402, Control_c, 0, 64, 62
2, 82417, Control_c, 0, 64, 64
2, 82432, Control_c, 0, 64, 67
2, 82447, Control_c, 0, 64, 70
2, 82447, Note_on_c, 0, 69, 0
2, 82453, Note_on_c, 0, 72, 0
2, 82463, Control_c, 0, 64, 73
2, 82478, Control_c, 0, 64, 76
2, 82487, Note_on_c, 0, 67, 0
2, 82493, Control_c, 0, 64, 78
2, 82500, Note_on_c, 0, 71, 0
2, 82509, Control_c, 0, 64, 78
2, 82539, Control_c, 0, 64, 77
2, 82554, Control_c, 0, 64, 75
2, 82569, Control_c, 0, 64, 73
2, 82585, Control_c, 0, 64, 70
2, 82600, Control_c, 0, 64, 68
2, 82614, Control_c, 0, 64, 65
2, 82630, Control_c, 0, 64, 63
2, 82636, Note_on_c, 0, 71, 53
2, 82640, Note_on_c, 0, 50, 42
2, 82643, Note_on_c, 0, 67, 53
2, 82645, Control_c, 0, 64, 61
2, 82661, Control_c, 0, 64, 59
2, 82675, Control_c, 0, 64, 56
2, 82690, Control_c, 0, 64, 52
2, 82706, Control_c, 0, 64, 46
2, 82721, Control_c, 0, 64, 34
2, 82735, Control_c, 0, 64, 0
2, 82748, Note_on_c, 0, 38, 0
2, 82873, Note_on_c, 0, 69, 62
2, 82875, Note_on_c, 0, 67, 0
2, 82881, Note_on_c, 0, 66, 57
2, 82930, Note_on_c, 0, 71, 0
2, 83119, Note_on_c, 0, 43, 48
2, 83121, Note_on_c, 0, 66, 0
2, 83140, Control_c, 0, 64, 25
2, 83142, Note_on_c, 0, 71, 57
2, 83149, Note_on_c, 0, 67, 54
2, 83155, Control_c, 0, 64, 43
2, 83170, Control_c, 0, 64, 52
2, 83185, Control_c, 0, 64, 58
2, 83186, Note_on_c, 0, 50, 0
2, 83200, Control_c, 0, 64, 63
2, 83211, Note_on_c, 0, 69, 0
2, 83212, Note_on_c, 0, 67, 0
2, 83215, Control_c, 0, 64, 67
2, 83222, Note_on_c, 0, 71, 0
2, 83231, Control_c, 0, 64, 71
2, 83246, Control_c, 0, 64, 75
2, 83261, Control_c, 0, 64, 79
2, 83276, Control_c, 0, 64, 82
2, 83307, Control_c, 0, 64, 80
2, 83322, Control_c, 0, 64, 75
2, 83338, Control_c, 0, 64, 69
2, 83353, Control_c, 0, 64, 64
2, 83361, Note_on_c, 0, 83, 74
2, 83367, Control_c, 0, 64, 58
2, 83383, Control_c, 0, 64, 52
2, 83398, Control_c, 0, 64, 46
2, 83413, Control_c, 0, 64, 33
2, 83429, Control_c, 0, 64, 0
2, 83432, Note_on_c, 0, 81, 74
2, 83441, Note_on_c, 0, 83, 0
2, 83490, Note_on_c, 0, 50, 46
2, 83502, Note_on_c, 0, 79, 76
2, 83538, Note_on_c, 0, 81, 0
2, 83539, Note_on_c, 0, 43, 0
2, 83566, Note_on_c, 0, 78, 76
2, 83572, Note_on_c, 0, 79, 0
2, 83582, Note_on_c, 0, 50, 0
2, 83640, Note_on_c, 0, 55, 58
2, 83642, Note_on_c, 0, 76, 75
2, 83655, Note_on_c, 0, 78, 0
2, 83691, Note_on_c, 0, 76, 0
2, 83814, Note_on_c, 0, 81, 55
2, 83815, Note_on_c, 0, 79, 66
2, 83830, Note_on_c, 0, 55, 0
2, 83844, Note_on_c, 0, 81, 0
2, 83848, Note_on_c, 0, 79, 0
2, 83940, Note_on_c, 0, 76, 65
2, 83942, Note_on_c, 0, 55, 58
2, 83973, Note_on_c, 0, 55, 0
2, 83980, Note_on_c, 0, 76, 0
2, 83984, Control_c, 0, 64, 13
2, 83999, Control_c, 0, 64, 44
2, 84014, Control_c, 0, 64, 53
2, 84029, Control_c, 0, 64, 57
2, 84044, Control_c, 0, 64, 61
2, 84060, Control_c, 0, 64, 62
2, 84086, Note_on_c, 0, 73, 66
2, 84089, Note_on_c, 0, 55, 49
2, 84105, Control_c, 0, 64, 60
2, 84114, Note_on_c, 0, 73, 0
2, 84120, Control_c, 0, 64, 54
2, 84135, Control_c, 0, 64, 43
2, 84151, Control_c, 0, 64, 31
2, 84165, Control_c, 0, 64, 0
2, 84245, Note_on_c, 0, 57, 66
2, 84285, Note_on_c, 0, 57, 0
2, 84315, Note_on_c, 0, 59, 69
2, 84337, Note_on_c, 0, 55, 0
2, 84384, Note_on_c, 0, 59, 0
2, 84386, Note_on_c, 0, 61, 72
2, 84463, Note_on_c, 0, 62, 64
2, 84468, Note_on_c, 0, 61, 0
2, 84525, Note_on_c, 0, 64, 76
2, 84549, Note_on_c, 0, 62, 0
2, 84566, Note_on_c, 0, 64, 0
2, 84663, Note_on_c, 0, 45, 60
2, 84673, Note_on_c, 0, 61, 74
2, 84713, Note_on_c, 0, 45, 0
2, 84722, Note_on_c, 0, 61, 0
2, 84734, Note_on_c, 0, 43, 57
2, 84779, Note_on_c, 0, 43, 0
2, 84801, Note_on_c, 0, 42, 60
2, 84811, Note_on_c, 0, 64, 68
2, 84854, Note_on_c, 0, 42, 0
2, 84858, Note_on_c, 0, 64, 0
2, 84900, Note_on_c, 0, 40, 43
2, 84934, Control_c, 0, 64, 37
2, 84949, Control_c, 0, 64, 45
2, 84964, Control_c, 0, 64, 50
2, 84973, Note_on_c, 0, 69, 65
2, 84978, Note_on_c, 0, 42, 53
2, 84980, Control_c, 0, 64, 53
2, 84994, Control_c, 0, 64, 55
2, 85032, Note_on_c, 0, 69, 0
2, 85035, Note_on_c, 0, 40, 0
2, 85040, Control_c, 0, 64, 53
2, 85055, Control_c, 0, 64, 49
2, 85071, Control_c, 0, 64, 44
2, 85086, Control_c, 0, 64, 37
2, 85102, Control_c, 0, 64, 28
2, 85116, Control_c, 0, 64, 18
2, 85116, Note_on_c, 0, 42, 0
2, 85131, Control_c, 0, 64, 0
2, 85141, Note_on_c, 0, 81, 81
2, 85212, Note_on_c, 0, 79, 80
2, 85234, Note_on_c, 0, 81, 0
2, 85284, Note_on_c, 0, 54, 60
2, 85290, Note_on_c, 0, 78, 74
2, 85318, Note_on_c, 0, 79, 0
2, 85320, Note_on_c, 0, 54, 0
2, 85360, Note_on_c, 0, 76, 72
2, 85388, Note_on_c, 0, 78, 0
2, 85431, Note_on_c, 0, 54, 52
2, 85435, Note_on_c, 0, 74, 77
2, 85446, Note_on_c, 0, 76, 0
2, 85488, Note_on_c, 0, 74, 0
2, 85566, Note_on_c, 0, 54, 0
2, 85578, Note_on_c, 0, 78, 78
2, 85647, Note_on_c, 0, 78, 0
2, 85711, Note_on_c, 0, 54, 54
2, 85721, Note_on_c, 0, 74, 72
2, 85748, Control_c, 0, 64, 24
2, 85750, Note_on_c, 0, 54, 0
2, 85762, Control_c, 0, 64, 48
2, 85766, Note_on_c, 0, 74, 0
2, 85778, Control_c, 0, 64, 56
2, 85793, Control_c, 0, 64, 60
2, 85808, Control_c, 0, 64, 63
2, 85824, Control_c, 0, 64, 66
2, 85838, Control_c, 0, 64, 69
2, 85853, Control_c, 0, 64, 70
2, 85858, Note_on_c, 0, 71, 70
2, 85864, Note_on_c, 0, 54, 49
2, 85869, Control_c, 0, 64, 70
2, 85884, Control_c, 0, 64, 66
2, 85884, Note_on_c, 0, 71, 0
2, 85900, Control_c, 0, 64, 59
2, 85915, Control_c, 0, 64, 44
2, 85929, Control_c, 0, 64, 32
2, 85945, Control_c, 0, 64, 22
2, 85960, Control_c, 0, 64, 0
2, 86033, Note_on_c, 0, 55, 61
2, 86075, Note_on_c, 0, 55, 0
2, 86104, Note_on_c, 0, 57, 62
2, 86131, Note_on_c, 0, 54, 0
2, 86172, Note_on_c, 0, 57, 0
2, 86173, Note_on_c, 0, 59, 66
2, 86235, Note_on_c, 0, 59, 0
2, 86238, Note_on_c, 0, 61, 67
2, 86309, Note_on_c, 0, 62, 69
2, 86346, Note_on_c, 0, 61, 0
2, 86360, Note_on_c, 0, 62, 0
2, 86455, Note_on_c, 0, 43, 46
2, 86462, Note_on_c, 0, 59, 66
2, 86494, Note_on_c, 0, 43, 0
2, 86512, Note_on_c, 0, 42, 49
2, 86522, Note_on_c, 0, 59, 0
2, 86554, Note_on_c, 0, 42, 0
2, 86602, Note_on_c, 0, 40, 51
2, 86605, Note_on_c, 0, 62, 60
2, 86636, Note_on_c, 0, 62, 0
2, 86642, Note_on_c, 0, 40, 0
2, 86692, Note_on_c, 0, 38, 35
2, 86740, Note_on_c, 0, 40, 59
2, 86749, Note_on_c, 0, 38, 0
2, 86761, Note_on_c, 0, 67, 64
2, 86789, Note_on_c, 0, 40, 0
2, 86939, Note_on_c, 0, 59, 58
2, 86972, Note_on_c, 0, 59, 0
2, 86988, Note_on_c, 0, 57, 62
2, 87034, Note_on_c, 0, 67, 0
2, 87045, Note_on_c, 0, 57, 0
2, 87067, Note_on_c, 0, 71, 61
2, 87068, Note_on_c, 0, 62, 61
2, 87072, Note_on_c, 0, 55, 48
2, 87101, Note_on_c, 0, 71, 0
2, 87102, Note_on_c, 0, 62, 0
2, 87116, Note_on_c, 0, 55, 0
2, 87125, Note_on_c, 0, 54, 46
2, 87209, Note_on_c, 0, 71, 65
2, 87213, Note_on_c, 0, 67, 59
2, 87214, Note_on_c, 0, 52, 62
2, 87227, Note_on_c, 0, 54, 0
2, 87253, Note_on_c, 0, 52, 0
2, 87366, Note_on_c, 0, 55, 68
2, 87397, Note_on_c, 0, 55, 0
2, 87403, Note_on_c, 0, 71, 0
2, 87406, Note_on_c, 0, 67, 0
2, 87518, Note_on_c, 0, 52, 64
2, 87518, Note_on_c, 0, 71, 67
2, 87535, Note_on_c, 0, 67, 60
2, 87553, Note_on_c, 0, 52, 0
2, 87585, Note_on_c, 0, 67, 0
2, 87603, Note_on_c, 0, 71, 0
2, 87687, Note_on_c, 0, 69, 59
2, 87690, Note_on_c, 0, 49, 54
2, 87707, Note_on_c, 0, 67, 53
2, 87733, Note_on_c, 0, 49, 0
2, 87840, Note_on_c, 0, 52, 64
2, 87876, Note_on_c, 0, 52, 0
2, 87988, Note_on_c, 0, 49, 60
2, 88028, Note_on_c, 0, 49, 0
2, 88035, Control_c, 0, 67, 8
2, 88050, Control_c, 0, 67, 10
2, 88066, Control_c, 0, 67, 12
2, 88081, Control_c, 0, 67, 14
2, 88095, Control_c, 0, 67, 16
2, 88111, Control_c, 0, 67, 20
2, 88126, Control_c, 0, 67, 25
2, 88126, Note_on_c, 0, 45, 62
2, 88142, Control_c, 0, 67, 31
2, 88153, Note_on_c, 0, 67, 0
2, 88157, Control_c, 0, 67, 38
2, 88158, Note_on_c, 0, 69, 0
2, 88171, Control_c, 0, 67, 44
2, 88186, Note_on_c, 0, 45, 0
2, 88187, Control_c, 0, 67, 49
2, 88202, Control_c, 0, 67, 55
2, 88217, Control_c, 0, 67, 60
2, 88232, Control_c, 0, 67, 64
2, 88247, Control_c, 0, 67, 65
2, 88263, Control_c, 0, 67, 66
2, 88278, Control_c, 0, 67, 65
2, 88284, Note_on_c, 0, 69, 62
2, 88299, Note_on_c, 0, 49, 58
2, 88301, Control_c, 0, 67, 65
2, 88316, Control_c, 0, 67, 64
2, 88331, Control_c, 0, 67, 63
2, 88335, Note_on_c, 0, 49, 0
2, 88347, Control_c, 0, 67, 62
2, 88362, Control_c, 0, 67, 60
2, 88370, Note_on_c, 0, 67, 62
2, 88374, Note_on_c, 0, 69, 0
2, 88377, Control_c, 0, 67, 57
2, 88392, Control_c, 0, 67, 56
2, 88407, Control_c, 0, 67, 55
2, 88423, Control_c, 0, 67, 52
2, 88437, Control_c, 0, 67, 48
2, 88439, Note_on_c, 0, 66, 64
2, 88440, Note_on_c, 0, 45, 47
2, 88452, Control_c, 0, 67, 40
2, 88453, Note_on_c, 0, 67, 0
2, 88468, Control_c, 0, 67, 30
2, 88483, Control_c, 0, 67, 20
2, 88488, Note_on_c, 0, 45, 0
2, 88490, Note_on_c, 0, 66, 0
2, 88498, Control_c, 0, 67, 11
2, 88513, Control_c, 0, 67, 0
2, 88519, Note_on_c, 0, 64, 63
2, 88612, Note_on_c, 0, 50, 51
2, 88612, Note_on_c, 0, 66, 63
2, 88654, Note_on_c, 0, 50, 0
2, 88663, Note_on_c, 0, 64, 0
2, 88728, Note_on_c, 0, 66, 0
2, 88778, Note_on_c, 0, 62, 55
2, 88783, Note_on_c, 0, 54, 54
2, 88828, Note_on_c, 0, 54, 0
2, 88850, Note_on_c, 0, 62, 0
2, 88860, Note_on_c, 0, 64, 63
2, 88917, Note_on_c, 0, 50, 61
2, 88919, Note_on_c, 0, 64, 0
2, 88925, Note_on_c, 0, 66, 62
2, 88953, Note_on_c, 0, 66, 0
2, 88965, Note_on_c, 0, 50, 0
2, 88997, Note_on_c, 0, 67, 69
2, 89076, Note_on_c, 0, 67, 0
2, 89079, Note_on_c, 0, 47, 56
2, 89085, Note_on_c, 0, 74, 66
2, 89107, Note_on_c, 0, 69, 52
2, 89123, Note_on_c, 0, 47, 0
2, 89198, Note_on_c, 0, 74, 0
2, 89217, Note_on_c, 0, 69, 0
2, 89239, Note_on_c, 0, 50, 65
2, 89257, Note_on_c, 0, 67, 60
2, 89274, Note_on_c, 0, 50, 0
2, 89301, Note_on_c, 0, 67, 0
2, 89325, Note_on_c, 0, 66, 67
2, 89385, Note_on_c, 0, 47, 60
2, 89398, Note_on_c, 0, 64, 65
2, 89402, Note_on_c, 0, 66, 0
2, 89418, Note_on_c, 0, 47, 0
2, 89429, Note_on_c, 0, 64, 0
2, 89464, Note_on_c, 0, 62, 59
2, 89532, Note_on_c, 0, 52, 65
2, 89543, Note_on_c, 0, 71, 72
2, 89547, Note_on_c, 0, 62, 0
2, 89550, Note_on_c, 0, 67, 64
2, 89586, Note_on_c, 0, 52, 0
2, 89647, Note_on_c, 0, 67, 0
2, 89684, Note_on_c, 0, 71, 0
2, 89697, Note_on_c, 0, 55, 61
2, 89700, Note_on_c, 0, 64, 66
2, 89732, Note_on_c, 0, 55, 0
2, 89755, Note_on_c, 0, 64, 0
2, 89771, Note_on_c, 0, 66, 63
2, 89806, Note_on_c, 0, 66, 0
2, 89848, Note_on_c, 0, 52, 62
2, 89851, Note_on_c, 0, 67, 76
2, 89879, Note_on_c, 0, 52, 0
2, 89914, Control_c, 0, 64, 8
2, 89916, Note_on_c, 0, 67, 0
2, 89917, Note_on_c, 0, 69, 74
2, 89990, Control_c, 0, 64, 10
2, 89992, Note_on_c, 0, 49, 47
2, 89999, Note_on_c, 0, 76, 75
2, 90022, Note_on_c, 0, 69, 0
2, 90024, Note_on_c, 0, 71, 65
2, 90042, Note_on_c, 0, 49, 0
2, 90126, Note_on_c, 0, 71, 0
2, 90155, Note_on_c, 0, 52, 66
2, 90159, Note_on_c, 0, 69, 60
2, 90190, Note_on_c, 0, 52, 0
2, 90191, Note_on_c, 0, 69, 0
2, 90218, Control_c, 0, 64, 8
2, 90218, Note_on_c, 0, 67, 67
2, 90233, Control_c, 0, 64, 0
2, 90269, Note_on_c, 0, 67, 0
2, 90293, Note_on_c, 0, 49, 68
2, 90297, Note_on_c, 0, 66, 68
2, 90326, Note_on_c, 0, 49, 0
2, 90332, Note_on_c, 0, 66, 0
2, 90370, Note_on_c, 0, 64, 70
2, 90452, Note_on_c, 0, 69, 67
2, 90468, Note_on_c, 0, 54, 57
2, 90482, Note_on_c, 0, 64, 0
2, 90615, Note_on_c, 0, 54, 0
2, 90624, Note_on_c, 0, 50, 59
2, 90705, Note_on_c, 0, 50, 0
2, 90709, Note_on_c, 0, 52, 63
2, 90753, Note_on_c, 0, 76, 0
2, 90757, Note_on_c, 0, 69, 0
2, 90772, Note_on_c, 0, 67, 65
2, 90788, Note_on_c, 0, 54, 62
2, 90789, Note_on_c, 0, 52, 0
2, 90861, Note_on_c, 0, 55, 70
2, 90865, Note_on_c, 0, 54, 0
2, 90931, Note_on_c, 0, 74, 69
2, 90941, Note_on_c, 0, 55, 0
2, 90943, Note_on_c, 0, 66, 63
2, 90949, Note_on_c, 0, 57, 57
2, 91050, Note_on_c, 0, 67, 0
2, 91087, Note_on_c, 0, 57, 0
2, 91090, Note_on_c, 0, 55, 69
2, 91115, Note_on_c, 0, 74, 0
2, 91156, Note_on_c, 0, 55, 0
2, 91161, Note_on_c, 0, 54, 60
2, 91236, Note_on_c, 0, 52, 70
2, 91244, Note_on_c, 0, 54, 0
2, 91245, Note_on_c, 0, 72, 77
2, 91326, Note_on_c, 0, 50, 62
2, 91326, Note_on_c, 0, 52, 0
2, 91393, Note_on_c, 0, 71, 75
2, 91414, Note_on_c, 0, 50, 0
2, 91415, Note_on_c, 0, 55, 64
2, 91427, Note_on_c, 0, 72, 0
2, 91561, Note_on_c, 0, 52, 69
2, 91561, Note_on_c, 0, 55, 0
2, 91623, Note_on_c, 0, 54, 66
2, 91642, Note_on_c, 0, 52, 0
2, 91695, Note_on_c, 0, 69, 69
2, 91701, Note_on_c, 0, 55, 72
2, 91705, Note_on_c, 0, 66, 0
2, 91724, Note_on_c, 0, 54, 0
2, 91772, Note_on_c, 0, 71, 0
2, 91778, Note_on_c, 0, 55, 0
2, 91783, Note_on_c, 0, 57, 67
2, 91852, Note_on_c, 0, 57, 0
2, 91852, Note_on_c, 0, 67, 68
2, 91866, Note_on_c, 0, 64, 57
2, 91869, Note_on_c, 0, 69, 0
2, 91876, Note_on_c, 0, 59, 57
2, 91985, Note_on_c, 0, 64, 0
2, 91994, Note_on_c, 0, 59, 0
2, 92013, Note_on_c, 0, 57, 59
2, 92091, Note_on_c, 0, 57, 0
2, 92108, Note_on_c, 0, 55, 57
2, 92165, Note_on_c, 0, 55, 0
2, 92176, Note_on_c, 0, 62, 62
2, 92193, Note_on_c, 0, 54, 51
2, 92257, Note_on_c, 0, 54, 0
2, 92269, Note_on_c, 0, 52, 55
2, 92341, Note_on_c, 0, 62, 0
2, 92344, Note_on_c, 0, 52, 0
2, 92355, Note_on_c, 0, 61, 61
2, 92377, Note_on_c, 0, 57, 44
2, 92433, Control_c, 0, 64, 41
2, 92444, Note_on_c, 0, 57, 0
2, 92447, Control_c, 0, 64, 54
2, 92463, Control_c, 0, 64, 61
2, 92478, Control_c, 0, 64, 65
2, 92493, Control_c, 0, 64, 68
2, 92493, Note_on_c, 0, 61, 0
2, 92508, Control_c, 0, 64, 72
2, 92512, Note_on_c, 0, 67, 0
2, 92523, Control_c, 0, 64, 77
2, 92539, Control_c, 0, 64, 81
2, 92543, Note_on_c, 0, 57, 65
2, 92554, Control_c, 0, 64, 84
2, 92570, Control_c, 0, 64, 85
2, 92585, Control_c, 0, 64, 83
2, 92600, Control_c, 0, 64, 80
2, 92603, Note_on_c, 0, 57, 0
2, 92611, Note_on_c, 0, 59, 65
2, 92616, Control_c, 0, 64, 77
2, 92631, Control_c, 0, 64, 75
2, 92645, Control_c, 0, 64, 72
2, 92661, Control_c, 0, 64, 68
2, 92664, Note_on_c, 0, 45, 56
2, 92676, Control_c, 0, 64, 64
2, 92679, Note_on_c, 0, 61, 71
2, 92688, Note_on_c, 0, 59, 0
2, 92692, Control_c, 0, 64, 57
2, 92698, Note_on_c, 0, 45, 0
2, 92706, Control_c, 0, 64, 49
2, 92709, Note_on_c, 0, 61, 0
2, 92721, Control_c, 0, 64, 36
2, 92737, Control_c, 0, 64, 10
2, 92752, Control_c, 0, 64, 0
2, 92755, Note_on_c, 0, 62, 67
2, 92819, Note_on_c, 0, 45, 55
2, 92822, Note_on_c, 0, 62, 0
2, 92824, Note_on_c, 0, 67, 70
2, 92832, Note_on_c, 0, 64, 61
2, 92961, Note_on_c, 0, 64, 0
2, 92995, Note_on_c, 0, 61, 70
2, 93019, Note_on_c, 0, 45, 0
2, 93028, Note_on_c, 0, 61, 0
2, 93137, Note_on_c, 0, 45, 64
2, 93139, Note_on_c, 0, 64, 76
2, 93180, Note_on_c, 0, 45, 0
2, 93181, Note_on_c, 0, 67, 0
2, 93183, Note_on_c, 0, 64, 0
2, 93284, Note_on_c, 0, 45, 61
2, 93290, Note_on_c, 0, 67, 68
2, 93291, Note_on_c, 0, 73, 72
2, 93352, Note_on_c, 0, 67, 0
2, 93444, Note_on_c, 0, 64, 74
2, 93507, Note_on_c, 0, 64, 0
2, 93591, Note_on_c, 0, 67, 81
2, 93641, Note_on_c, 0, 67, 0
2, 93652, Note_on_c, 0, 73, 0
2, 93746, Note_on_c, 0, 76, 79
2, 93753, Note_on_c, 0, 45, 0
2, 93759, Note_on_c, 0, 73, 74
2, 93810, Note_on_c, 0, 73, 0
2, 93906, Note_on_c, 0, 67, 78
2, 93957, Note_on_c, 0, 67, 0
2, 93981, Note_on_c, 0, 52, 61
2, 94052, Note_on_c, 0, 73, 73
2, 94062, Note_on_c, 0, 54, 68
2, 94071, Note_on_c, 0, 52, 0
2, 94109, Note_on_c, 0, 73, 0
2, 94132, Note_on_c, 0, 55, 76
2, 94141, Note_on_c, 0, 54, 0
2, 94200, Note_on_c, 0, 57, 73
2, 94200, Note_on_c, 0, 66, 71
2, 94218, Note_on_c, 0, 55, 0
2, 94254, Note_on_c, 0, 66, 0
2, 94362, Note_on_c, 0, 74, 77
2, 94364, Control_c, 0, 64, 38
2, 94379, Note_on_c, 0, 76, 0
2, 94380, Control_c, 0, 64, 53
2, 94394, Control_c, 0, 64, 59
2, 94410, Control_c, 0, 64, 63
2, 94425, Control_c, 0, 64, 65
2, 94433, Note_on_c, 0, 73, 74
2, 94447, Control_c, 0, 64, 69
2, 94463, Control_c, 0, 64, 73
2, 94472, Note_on_c, 0, 74, 0
2, 94477, Control_c, 0, 64, 77
2, 94493, Control_c, 0, 64, 80
2, 94498, Note_on_c, 0, 45, 64
2, 94502, Note_on_c, 0, 71, 75
2, 94509, Control_c, 0, 64, 81
2, 94524, Control_c, 0, 64, 80
2, 94536, Note_on_c, 0, 45, 0
2, 94540, Control_c, 0, 64, 76
2, 94542, Note_on_c, 0, 57, 0
2, 94542, Note_on_c, 0, 73, 0
2, 94555, Control_c, 0, 64, 70
2, 94557, Note_on_c, 0, 69, 60
2, 94557, Note_on_c, 0, 71, 0
2, 94570, Control_c, 0, 64, 61
2, 94578, Note_on_c, 0, 69, 0
2, 94585, Control_c, 0, 64, 53
2, 94600, Control_c, 0, 64, 46
2, 94616, Control_c, 0, 64, 39
2, 94630, Control_c, 0, 64, 30
2, 94645, Control_c, 0, 64, 12
2, 94652, Note_on_c, 0, 45, 60
2, 94661, Control_c, 0, 64, 0
2, 94663, Note_on_c, 0, 68, 77
2, 94667, Note_on_c, 0, 62, 68
2, 94704, Note_on_c, 0, 68, 0
2, 94816, Note_on_c, 0, 71, 70
2, 94842, Note_on_c, 0, 45, 0
2, 94873, Note_on_c, 0, 71, 0
2, 94945, Note_on_c, 0, 45, 55
2, 94954, Note_on_c, 0, 68, 72
2, 94982, Note_on_c, 0, 45, 0
2, 94991, Note_on_c, 0, 62, 0
2, 94995, Note_on_c, 0, 68, 0
2, 95093, Note_on_c, 0, 45, 49
2, 95103, Note_on_c, 0, 62, 62
2, 95111, Note_on_c, 0, 59, 56
2, 95182, Note_on_c, 0, 62, 0
2, 95193, Control_c, 0, 64, 8
2, 95216, Control_c, 0, 64, 26
2, 95231, Control_c, 0, 64, 37
2, 95245, Control_c, 0, 64, 42
2, 95252, Note_on_c, 0, 68, 71
2, 95261, Control_c, 0, 64, 45
2, 95276, Control_c, 0, 64, 46
2, 95327, Note_on_c, 0, 68, 0
2, 95334, Note_on_c, 0, 59, 0
2, 95368, Control_c, 0, 64, 45
2, 95384, Control_c, 0, 64, 44
2, 95384, Control_c, 0, 67, 11
2, 95398, Control_c, 0, 64, 41
2, 95398, Control_c, 0, 67, 16
2, 95399, Note_on_c, 0, 62, 66
2, 95414, Control_c, 0, 64, 37
2, 95414, Control_c, 0, 67, 23
2, 95428, Note_on_c, 0, 62, 0
2, 95429, Control_c, 0, 64, 30
2, 95429, Control_c, 0, 67, 30
2, 95444, Control_c, 0, 64, 23
2, 95444, Control_c, 0, 67, 35
2, 95460, Control_c, 0, 64, 17
2, 95460, Control_c, 0, 67, 39
2, 95474, Control_c, 0, 64, 12
2, 95474, Control_c, 0, 67, 42
2, 95490, Control_c, 0, 64, 0
2, 95490, Control_c, 0, 67, 45
2, 95505, Control_c, 0, 67, 50
2, 95520, Control_c, 0, 67, 56
2, 95536, Control_c, 0, 67, 62
2, 95550, Control_c, 0, 67, 67
2, 95553, Note_on_c, 0, 56, 59
2, 95561, Note_on_c, 0, 59, 61
2, 95565, Control_c, 0, 67, 68
2, 95581, Control_c, 0, 67, 69
2, 95636, Note_on_c, 0, 59, 0
2, 95642, Control_c, 0, 67, 68
2, 95658, Control_c, 0, 67, 67
2, 95684, Note_on_c, 0, 62, 64
2, 95703, Control_c, 0, 67, 66
2, 95707, Note_on_c, 0, 56, 0
2, 95718, Control_c, 0, 67, 66
2, 95734, Control_c, 0, 67, 65
2, 95748, Control_c, 0, 67, 64
2, 95763, Control_c, 0, 67, 63
2, 95794, Control_c, 0, 67, 62
2, 95808, Control_c, 0, 67, 61
2, 95812, Note_on_c, 0, 62, 0
2, 95824, Control_c, 0, 67, 60
2, 95830, Note_on_c, 0, 59, 66
2, 95839, Control_c, 0, 67, 60
2, 95855, Control_c, 0, 67, 59
2, 95870, Control_c, 0, 67, 58
2, 95871, Note_on_c, 0, 59, 0
2, 95884, Control_c, 0, 67, 57
2, 95900, Control_c, 0, 67, 57
2, 95915, Control_c, 0, 67, 54
2, 95931, Control_c, 0, 67, 51
2, 95946, Control_c, 0, 67, 49
2, 95960, Control_c, 0, 67, 47
2, 95963, Note_on_c, 0, 45, 0
2, 95984, Control_c, 0, 67, 46
2, 95985, Note_on_c, 0, 61, 61
2, 95988, Note_on_c, 0, 57, 52
2, 95999, Control_c, 0, 67, 44
2, 96014, Control_c, 0, 67, 41
2, 96029, Control_c, 0, 67, 37
2, 96044, Control_c, 0, 67, 33
2, 96060, Control_c, 0, 67, 31
2, 96075, Control_c, 0, 67, 29
2, 96090, Control_c, 0, 67, 28
2, 96105, Control_c, 0, 67, 27
2, 96120, Control_c, 0, 67, 25
2, 96137, Control_c, 0, 67, 21
2, 96145, Note_on_c, 0, 59, 62
2, 96152, Control_c, 0, 67, 16
2, 96167, Control_c, 0, 67, 12
2, 96178, Note_on_c, 0, 61, 0
2, 96182, Control_c, 0, 67, 0
2, 96183, Note_on_c, 0, 57, 0
2, 96208, Note_on_c, 0, 42, 61
2, 96245, Note_on_c, 0, 59, 0
2, 96278, Note_on_c, 0, 42, 0
2, 96284, Note_on_c, 0, 43, 62
2, 96284, Note_on_c, 0, 57, 56
2, 96340, Note_on_c, 0, 43, 0
2, 96351, Note_on_c, 0, 45, 66
2, 96427, Note_on_c, 0, 47, 61
2, 96429, Note_on_c, 0, 45, 0
2, 96434, Note_on_c, 0, 62, 59
2, 96445, Note_on_c, 0, 54, 55
2, 96450, Note_on_c, 0, 57, 0
2, 96475, Note_on_c, 0, 47, 0
2, 96581, Note_on_c, 0, 54, 0
2, 96590, Note_on_c, 0, 45, 71
2, 96617, Note_on_c, 0, 62, 0
2, 96664, Note_on_c, 0, 45, 0
2, 96750, Note_on_c, 0, 67, 65
2, 96758, Note_on_c, 0, 43, 54
2, 96770, Note_on_c, 0, 64, 59
2, 96853, Note_on_c, 0, 43, 0
2, 96902, Control_c, 0, 64, 13
2, 96902, Note_on_c, 0, 45, 48
2, 96911, Note_on_c, 0, 67, 0
2, 96917, Control_c, 0, 64, 33
2, 96920, Note_on_c, 0, 61, 64
2, 96931, Control_c, 0, 64, 44
2, 96947, Control_c, 0, 64, 50
2, 96957, Note_on_c, 0, 64, 0
2, 96963, Control_c, 0, 64, 55
2, 96979, Control_c, 0, 64, 58
2, 96994, Control_c, 0, 64, 60
2, 97009, Control_c, 0, 64, 61
2, 97023, Note_on_c, 0, 45, 0
2, 97024, Control_c, 0, 64, 62
2, 97039, Control_c, 0, 64, 63
2, 97070, Control_c, 0, 64, 62
2, 97083, Note_on_c, 0, 66, 61
2, 97084, Control_c, 0, 64, 61
2, 97086, Note_on_c, 0, 61, 0
2, 97100, Control_c, 0, 64, 60
2, 97115, Control_c, 0, 64, 58
2, 97129, Note_on_c, 0, 66, 0
2, 97130, Control_c, 0, 64, 55
2, 97146, Control_c, 0, 64, 49
2, 97160, Control_c, 0, 64, 42
2, 97165, Note_on_c, 0, 64, 60
2, 97175, Control_c, 0, 64, 33
2, 97191, Control_c, 0, 64, 25
2, 97205, Control_c, 0, 64, 12
2, 97221, Control_c, 0, 64, 0
2, 97221, Note_on_c, 0, 57, 60
2, 97234, Note_on_c, 0, 62, 54
2, 97239, Note_on_c, 0, 64, 0
2, 97245, Note_on_c, 0, 66, 64
2, 97277, Note_on_c, 0, 57, 0
2, 97398, Note_on_c, 0, 57, 56
2, 97400, Note_on_c, 0, 64, 64
2, 97422, Note_on_c, 0, 62, 0
2, 97532, Control_c, 0, 64, 13
2, 97548, Control_c, 0, 64, 22
2, 97554, Note_on_c, 0, 64, 0
2, 97563, Control_c, 0, 64, 27
2, 97563, Note_on_c, 0, 61, 64
2, 97575, Note_on_c, 0, 66, 0
2, 97579, Control_c, 0, 64, 29
2, 97594, Control_c, 0, 64, 30
2, 97608, Control_c, 0, 64, 31
2, 97608, Note_on_c, 0, 61, 0
2, 97624, Control_c, 0, 64, 32
2, 97631, Note_on_c, 0, 57, 0
2, 97639, Control_c, 0, 64, 34
2, 97647, Note_on_c, 0, 59, 57
2, 97654, Control_c, 0, 64, 35
2, 97670, Control_c, 0, 64, 36
2, 97685, Control_c, 0, 64, 37
2, 97700, Control_c, 0, 64, 34
2, 97704, Note_on_c, 0, 45, 55
2, 97715, Control_c, 0, 64, 0
2, 97722, Note_on_c, 0, 59, 0
2, 97722, Note_on_c, 0, 69, 59
2, 97734, Note_on_c, 0, 61, 55
2, 97807, Control_c, 0, 64, 39
2, 97810, Note_on_c, 0, 61, 0
2, 97823, Control_c, 0, 64, 54
2, 97838, Control_c, 0, 64, 60
2, 97852, Control_c, 0, 64, 63
2, 97863, Note_on_c, 0, 45, 0
2, 97868, Control_c, 0, 64, 65
2, 97883, Control_c, 0, 64, 67
2, 97897, Note_on_c, 0, 50, 52
2, 97899, Control_c, 0, 64, 70
2, 97910, Note_on_c, 0, 66, 60
2, 97914, Control_c, 0, 64, 72
2, 97928, Control_c, 0, 64, 73
2, 97941, Note_on_c, 0, 69, 0
2, 97972, Note_on_c, 0, 66, 0
2, 97974, Control_c, 0, 64, 72
2, 97984, Note_on_c, 0, 50, 0
2, 97990, Control_c, 0, 64, 70
2, 98004, Control_c, 0, 64, 68
2, 98020, Control_c, 0, 64, 65
2, 98033, Note_on_c, 0, 69, 62
2, 98035, Control_c, 0, 64, 61
2, 98047, Note_on_c, 0, 50, 34
2, 98049, Control_c, 0, 64, 55
2, 98065, Control_c, 0, 64, 50
2, 98079, Note_on_c, 0, 69, 0
2, 98080, Control_c, 0, 64, 44
2, 98095, Control_c, 0, 64, 34
2, 98099, Note_on_c, 0, 71, 67
2, 98111, Control_c, 0, 64, 12
2, 98125, Control_c, 0, 64, 0
2, 98163, Note_on_c, 0, 71, 0
2, 98170, Note_on_c, 0, 73, 70
2, 98201, Note_on_c, 0, 73, 0
2, 98230, Note_on_c, 0, 50, 0
2, 98236, Note_on_c, 0, 57, 60
2, 98242, Note_on_c, 0, 74, 79
2, 98262, Note_on_c, 0, 57, 0
2, 98312, Note_on_c, 0, 74, 0
2, 98320, Note_on_c, 0, 76, 74
2, 98384, Note_on_c, 0, 62, 56
2, 98403, Note_on_c, 0, 76, 0
2, 98409, Note_on_c, 0, 78, 83
2, 98412, Note_on_c, 0, 62, 0
2, 98423, Note_on_c, 0, 61, 67
2, 98464, Note_on_c, 0, 61, 0
2, 98490, Note_on_c, 0, 62, 62
2, 98492, Note_on_c, 0, 76, 71
2, 98502, Note_on_c, 0, 78, 0
2, 98534, Note_on_c, 0, 76, 0
2, 98564, Note_on_c, 0, 74, 73
2, 98638, Note_on_c, 0, 73, 74
2, 98639, Note_on_c, 0, 74, 0
2, 98714, Note_on_c, 0, 71, 74
2, 98743, Note_on_c, 0, 73, 0
2, 98761, Note_on_c, 0, 71, 0
2, 98789, Note_on_c, 0, 69, 74
2, 98862, Note_on_c, 0, 68, 84
2, 98894, Note_on_c, 0, 69, 0
2, 98939, Note_on_c, 0, 68, 0
2, 98990, Note_on_c, 0, 62, 0
2, 99019, Note_on_c, 0, 64, 62
2, 99021, Note_on_c, 0, 71, 76
2, 99086, Note_on_c, 0, 71, 0
2, 99098, Note_on_c, 0, 64, 0
2, 99105, Note_on_c, 0, 62, 64
2, 99156, Note_on_c, 0, 62, 0
2, 99161, Note_on_c, 0, 61, 72
2, 99184, Note_on_c, 0, 76, 81
2, 99239, Note_on_c, 0, 59, 71
2, 99241, Note_on_c, 0, 61, 0
2, 99253, Note_on_c, 0, 76, 0
2, 99331, Note_on_c, 0, 76, 81
2, 99354, Note_on_c, 0, 58, 63
2, 99384, Note_on_c, 0, 59, 0
2, 99462, Note_on_c, 0, 58, 0
2, 99492, Note_on_c, 0, 73, 63
2, 99499, Note_on_c, 0, 59, 69
2, 99527, Note_on_c, 0, 73, 0
2, 99561, Note_on_c, 0, 59, 0
2, 99579, Note_on_c, 0, 58, 70
2, 99634, Note_on_c, 0, 58, 0
2, 99643, Note_on_c, 0, 70, 71
2, 99653, Note_on_c, 0, 56, 64
2, 99676, Note_on_c, 0, 76, 0
2, 99717, Note_on_c, 0, 54, 63
2, 99728, Note_on_c, 0, 56, 0
2, 99779, Note_on_c, 0, 70, 0
2, 99800, Note_on_c, 0, 59, 64
2, 99801, Note_on_c, 0, 66, 68
2, 99809, Note_on_c, 0, 54, 0
2, 99912, Control_c, 0, 64, 31
2, 99927, Control_c, 0, 64, 43
2, 99943, Control_c, 0, 64, 51
2, 99957, Control_c, 0, 64, 57
2, 99972, Control_c, 0, 64, 61
2, 99972, Note_on_c, 0, 68, 71
2, 99982, Note_on_c, 0, 66, 0
2, 99988, Control_c, 0, 64, 64
2, 100003, Control_c, 0, 64, 66
2, 100018, Control_c, 0, 64, 68
2, 100033, Control_c, 0, 64, 69
2, 100051, Note_on_c, 0, 70, 68
2, 100058, Note_on_c, 0, 68, 0
2, 100064, Control_c, 0, 64, 68
2, 100079, Control_c, 0, 64, 66
2, 100088, Note_on_c, 0, 70, 0
2, 100094, Control_c, 0, 64, 64
2, 100100, Note_on_c, 0, 47, 59
2, 100110, Control_c, 0, 64, 60
2, 100113, Note_on_c, 0, 71, 71
2, 100118, Note_on_c, 0, 59, 0
2, 100125, Control_c, 0, 64, 56
2, 100128, Note_on_c, 0, 47, 0
2, 100141, Control_c, 0, 64, 52
2, 100155, Control_c, 0, 64, 45
2, 100170, Control_c, 0, 64, 35
2, 100186, Control_c, 0, 64, 22
2, 100186, Note_on_c, 0, 73, 79
2, 100197, Note_on_c, 0, 71, 0
2, 100201, Control_c, 0, 64, 0
2, 100259, Note_on_c, 0, 59, 58
2, 100259, Note_on_c, 0, 73, 0
2, 100265, Note_on_c, 0, 74, 78
2, 100298, Note_on_c, 0, 59, 0
2, 100321, Note_on_c, 0, 58, 61
2, 100342, Note_on_c, 0, 73, 75
2, 100379, Note_on_c, 0, 74, 0
2, 100386, Note_on_c, 0, 58, 0
2, 100409, Note_on_c, 0, 71, 77
2, 100417, Note_on_c, 0, 59, 53
2, 100443, Note_on_c, 0, 73, 0
2, 100472, Note_on_c, 0, 71, 0
2, 100485, Note_on_c, 0, 69, 68
2, 100564, Note_on_c, 0, 67, 78
2, 100567, Note_on_c, 0, 69, 0
2, 100644, Note_on_c, 0, 66, 79
2, 100651, Note_on_c, 0, 67, 0
2, 100718, Note_on_c, 0, 64, 83
2, 100745, Note_on_c, 0, 66, 0
2, 100786, Note_on_c, 0, 64, 0
2, 100847, Note_on_c, 0, 59, 0
2, 100874, Note_on_c, 0, 60, 56
2, 100878, Note_on_c, 0, 67, 80
2, 100929, Note_on_c, 0, 60, 0
2, 100932, Note_on_c, 0, 67, 0
2, 100955, Note_on_c, 0, 59, 69
2, 100995, Note_on_c, 0, 59, 0
2, 101018, Note_on_c, 0, 57, 65
2, 101034, Note_on_c, 0, 72, 82
2, 101090, Note_on_c, 0, 72, 0
2, 101094, Note_on_c, 0, 57, 0
2, 101095, Note_on_c, 0, 55, 67
2, 101179, Note_on_c, 0, 72, 76
2, 101203, Note_on_c, 0, 54, 56
2, 101238, Note_on_c, 0, 55, 0
2, 101316, Note_on_c, 0, 54, 0
2, 101357, Note_on_c, 0, 69, 62
2, 101360, Note_on_c, 0, 55, 63
2, 101405, Note_on_c, 0, 55, 0
2, 101412, Note_on_c, 0, 69, 0
2, 101439, Note_on_c, 0, 54, 53
2, 101476, Note_on_c, 0, 54, 0
2, 101503, Note_on_c, 0, 66, 67
2, 101516, Note_on_c, 0, 52, 59
2, 101576, Note_on_c, 0, 52, 0
2, 101578, Note_on_c, 0, 50, 63
2, 101593, Note_on_c, 0, 66, 0
2, 101663, Note_on_c, 0, 55, 58
2, 101664, Note_on_c, 0, 72, 0
2, 101665, Note_on_c, 0, 62, 65
2, 101678, Note_on_c, 0, 50, 0
2, 101812, Note_on_c, 0, 62, 0
2, 101821, Note_on_c, 0, 64, 68
2, 101892, Note_on_c, 0, 66, 69
2, 101899, Note_on_c, 0, 64, 0
2, 101928, Note_on_c, 0, 66, 0
2, 101968, Note_on_c, 0, 67, 70
2, 101975, Note_on_c, 0, 43, 52
2, 101987, Note_on_c, 0, 55, 0
2, 102004, Note_on_c, 0, 43, 0
2, 102030, Note_on_c, 0, 67, 0
2, 102038, Note_on_c, 0, 69, 68
2, 102113, Note_on_c, 0, 69, 0
2, 102127, Note_on_c, 0, 71, 68
2, 102134, Note_on_c, 0, 55, 46
2, 102164, Note_on_c, 0, 55, 0
2, 102176, Note_on_c, 0, 54, 56
2, 102211, Note_on_c, 0, 69, 61
2, 102238, Note_on_c, 0, 71, 0
2, 102246, Note_on_c, 0, 69, 0
2, 102254, Note_on_c, 0, 54, 0
2, 102256, Note_on_c, 0, 55, 49
2, 102288, Note_on_c, 0, 67, 68
2, 102357, Note_on_c, 0, 67, 0
2, 102360, Note_on_c, 0, 66, 73
2, 102442, Note_on_c, 0, 64, 71
2, 102466, Note_on_c, 0, 66, 0
2, 102476, Note_on_c, 0, 64, 0
2, 102517, Note_on_c, 0, 62, 64
2, 102586, Note_on_c, 0, 61, 70
2, 102608, Note_on_c, 0, 62, 0
2, 102719, Note_on_c, 0, 55, 0
2, 102745, Note_on_c, 0, 57, 58
2, 102746, Note_on_c, 0, 64, 72
2, 102772, Note_on_c, 0, 61, 0
2, 102794, Note_on_c, 0, 64, 0
2, 102812, Note_on_c, 0, 57, 0
2, 102828, Note_on_c, 0, 55, 61
2, 102875, Note_on_c, 0, 55, 0
2, 102898, Note_on_c, 0, 54, 65
2, 102909, Note_on_c, 0, 61, 69
2, 102909, Note_on_c, 0, 69, 66
2, 102947, Note_on_c, 0, 61, 0
2, 102962, Note_on_c, 0, 69, 0
2, 102987, Note_on_c, 0, 52, 67
2, 103005, Note_on_c, 0, 54, 0
2, 103060, Note_on_c, 0, 66, 74
2, 103066, Note_on_c, 0, 52, 0
2, 103066, Note_on_c, 0, 62, 63
2, 103075, Note_on_c, 0, 50, 64
2, 103149, Note_on_c, 0, 66, 0
2, 103213, Note_on_c, 0, 50, 0
2, 103214, Note_on_c, 0, 69, 75
2, 103218, Note_on_c, 0, 52, 65
2, 103256, Note_on_c, 0, 62, 0
2, 103267, Note_on_c, 0, 69, 0
2, 103301, Note_on_c, 0, 54, 70
2, 103314, Note_on_c, 0, 52, 0
2, 103371, Note_on_c, 0, 74, 78
2, 103372, Note_on_c, 0, 55, 76
2, 103374, Note_on_c, 0, 54, 0
2, 103374, Note_on_c, 0, 66, 79
2, 103422, Note_on_c, 0, 55, 0
2, 103430, Note_on_c, 0, 66, 0
2, 103433, Note_on_c, 0, 74, 0
2, 103459, Note_on_c, 0, 57, 67
2, 103543, Note_on_c, 0, 67, 80
2, 103552, Note_on_c, 0, 59, 71
2, 103576, Note_on_c, 0, 57, 0
2, 103724, Note_on_c, 0, 69, 80
2, 103732, Note_on_c, 0, 57, 59
2, 103767, Note_on_c, 0, 67, 0
2, 103769, Note_on_c, 0, 59, 0
2, 103829, Note_on_c, 0, 69, 0
2, 103894, Note_on_c, 0, 55, 58
2, 103895, Note_on_c, 0, 71, 74
2, 103896, Note_on_c, 0, 76, 76
2, 103931, Note_on_c, 0, 57, 0
2, 103980, Note_on_c, 0, 76, 0
2, 104022, Note_on_c, 0, 71, 0
2, 104075, Note_on_c, 0, 57, 51
2, 104082, Note_on_c, 0, 69, 63
2, 104086, Note_on_c, 0, 66, 72
2, 104127, Note_on_c, 0, 55, 0
2, 104203, Note_on_c, 0, 66, 0
2, 104280, Note_on_c, 0, 74, 82
2, 104306, Note_on_c, 0, 69, 0
2, 104376, Control_c, 0, 64, 22
2, 104392, Control_c, 0, 64, 37
2, 104406, Control_c, 0, 64, 46
2, 104430, Control_c, 0, 64, 54
2, 104441, Note_on_c, 0, 57, 0
2, 104445, Control_c, 0, 64, 59
2, 104460, Control_c, 0, 64, 62
2, 104475, Control_c, 0, 64, 65
2, 104480, Note_on_c, 0, 45, 53
2, 104483, Note_on_c, 0, 73, 71
2, 104490, Control_c, 0, 64, 68
2, 104495, Note_on_c, 0, 64, 63
2, 104505, Note_on_c, 0, 67, 61
2, 104506, Control_c, 0, 64, 72
2, 104513, Note_on_c, 0, 74, 0
2, 104521, Control_c, 0, 64, 77
2, 104530, Note_on_c, 0, 45, 0
2, 104535, Control_c, 0, 64, 83
2, 104551, Control_c, 0, 64, 90
2, 104566, Control_c, 0, 64, 97
2, 104581, Control_c, 0, 64, 103
2, 104596, Control_c, 0, 64, 104
2, 104611, Control_c, 0, 64, 102
2, 104627, Control_c, 0, 64, 98
2, 104642, Control_c, 0, 64, 93
2, 104656, Control_c, 0, 64, 89
2, 104668, Note_on_c, 0, 64, 0
2, 104672, Control_c, 0, 64, 85
2, 104687, Control_c, 0, 64, 81
2, 104703, Control_c, 0, 64, 76
2, 104715, Note_on_c, 0, 38, 54
2, 104717, Note_on_c, 0, 74, 75
2, 104718, Control_c, 0, 64, 70
2, 104732, Control_c, 0, 64, 64
2, 104748, Control_c, 0, 64, 56
2, 104763, Control_c, 0, 64, 45
2, 104779, Control_c, 0, 64, 0
2, 104779, Note_on_c, 0, 67, 0
2, 104781, Note_on_c, 0, 73, 0
2, 104960, Note_on_c, 0, 69, 73
2, 105231, Note_on_c, 0, 66, 72
2, 105646, Note_on_c, 0, 62, 63
2, 107092, Note_on_c, 0, 38, 0
2, 107094, Note_on_c, 0, 74, 0
2, 107181, Note_on_c, 0, 62, 0
2, 107185, Note_on_c, 0, 66, 0
2, 107194, Note_on_c, 0, 69, 0
2, 108723, Control_c, 0, 64, 26
2, 108738, Control_c, 0, 64, 41
2, 108754, Control_c, 0, 64, 47
2, 108769, Control_c, 0, 64, 50
2, 108785, Control_c, 0, 64, 51
2, 108799, Control_c, 0, 64, 51
2, 108830, Control_c, 0, 64, 52
2, 108966, Control_c, 0, 64, 51
2, 108970, Note_on_c, 0, 62, 50
2, 108981, Control_c, 0, 64, 49
2, 108997, Control_c, 0, 64, 41
2, 109011, Control_c, 0, 64, 22
2, 109035, Control_c, 0, 64, 0
2, 109095, Control_c, 0, 64, 39
2, 109111, Control_c, 0, 64, 54
2, 109126, Control_c, 0, 64, 60
2, 109140, Control_c, 0, 64, 63
2, 109156, Control_c, 0, 64, 65
2, 109171, Control_c, 0, 64, 66
2, 109187, Control_c, 0, 64, 67
2, 109194, Note_on_c, 0, 62, 0
2, 109202, Control_c, 0, 64, 66
2, 109263, Control_c, 0, 64, 67
2, 109310, Note_on_c, 0, 62, 62
2, 109324, Control_c, 0, 64, 65
2, 109339, Control_c, 0, 64, 60
2, 109356, Control_c, 0, 64, 47
2, 109370, Control_c, 0, 64, 36
2, 109401, Control_c, 0, 64, 43
2, 109416, Control_c, 0, 64, 54
2, 109432, Control_c, 0, 64, 61
2, 109446, Control_c, 0, 64, 65
2, 109461, Control_c, 0, 64, 68
2, 109477, Control_c, 0, 64, 72
2, 109491, Control_c, 0, 64, 74
2, 109507, Control_c, 0, 64, 76
2, 109522, Control_c, 0, 64, 75
2, 109526, Note_on_c, 0, 62, 0
2, 109537, Control_c, 0, 64, 75
2, 109553, Control_c, 0, 64, 74
2, 109567, Control_c, 0, 64, 74
2, 109598, Control_c, 0, 64, 73
2, 109613, Control_c, 0, 64, 72
2, 109618, Note_on_c, 0, 62, 69
2, 109629, Control_c, 0, 64, 71
2, 109643, Control_c, 0, 64, 69
2, 109658, Control_c, 0, 64, 69
2, 109674, Control_c, 0, 64, 68
2, 109689, Control_c, 0, 64, 67
2, 109705, Control_c, 0, 64, 65
2, 109720, Control_c, 0, 64, 64
2, 109735, Control_c, 0, 64, 62
2, 109751, Control_c, 0, 64, 60
2, 109765, Control_c, 0, 64, 58
2, 109780, Control_c, 0, 64, 55
2, 109803, Control_c, 0, 64, 52
2, 109818, Control_c, 0, 64, 48
2, 109834, Control_c, 0, 64, 43
2, 109849, Control_c, 0, 64, 38
2, 109863, Control_c, 0, 64, 34
2, 109879, Control_c, 0, 64, 30
2, 109894, Control_c, 0, 64, 23
2, 109910, Control_c, 0, 64, 17
2, 109925, Control_c, 0, 64, 12
2, 109939, Control_c, 0, 64, 8
2, 109955, Control_c, 0, 64, 0
2, 109967, Note_on_c, 0, 55, 65
2, 110078, Note_on_c, 0, 62, 0
2, 110275, Control_c, 0, 64, 20
2, 110289, Control_c, 0, 64, 32
2, 110305, Control_c, 0, 64, 42
2, 110320, Control_c, 0, 64, 48
2, 110334, Control_c, 0, 64, 53
2, 110350, Control_c, 0, 64, 58
2, 110365, Control_c, 0, 64, 62
2, 110380, Control_c, 0, 64, 65
2, 110396, Control_c, 0, 64, 68
2, 110410, Control_c, 0, 64, 72
2, 110426, Control_c, 0, 64, 76
2, 110441, Control_c, 0, 64, 81
2, 110456, Control_c, 0, 64, 86
2, 110472, Control_c, 0, 64, 92
2, 110487, Control_c, 0, 64, 96
2, 110502, Control_c, 0, 64, 97
2, 110532, Control_c, 0, 64, 96
2, 110548, Control_c, 0, 64, 95
2, 110570, Control_c, 0, 64, 93
2, 110586, Control_c, 0, 64, 93
2, 110601, Control_c, 0, 64, 92
2, 110615, Control_c, 0, 64, 90
2, 110631, Control_c, 0, 64, 88
2, 110646, Control_c, 0, 64, 86
2, 110661, Control_c, 0, 64, 84
2, 110677, Control_c, 0, 64, 82
2, 110686, Note_on_c, 0, 59, 61
2, 110692, Control_c, 0, 64, 81
2, 110708, Control_c, 0, 64, 80
2, 110723, Control_c, 0, 64, 80
2, 110737, Control_c, 0, 64, 78
2, 110753, Control_c, 0, 64, 77
2, 110768, Control_c, 0, 64, 75
2, 110783, Control_c, 0, 64, 74
2, 110799, Control_c, 0, 64, 74
2, 110814, Control_c, 0, 64, 73
2, 110829, Control_c, 0, 64, 71
2, 110844, Control_c, 0, 64, 69
2, 110859, Control_c, 0, 64, 68
2, 110876, Control_c, 0, 64, 67
2, 110890, Control_c, 0, 64, 66
2, 110906, Control_c, 0, 64, 65
2, 110921, Control_c, 0, 64, 64
2, 110927, Note_on_c, 0, 55, 0
2, 110936, Control_c, 0, 64, 63
2, 110952, Control_c, 0, 64, 62
2, 110967, Control_c, 0, 64, 60
2, 110981, Control_c, 0, 64, 59
2, 110997, Control_c, 0, 64, 57
2, 111012, Control_c, 0, 64, 54
2, 111028, Control_c, 0, 64, 51
2, 111043, Control_c, 0, 64, 42
2, 111057, Control_c, 0, 64, 32
2, 111073, Control_c, 0, 64, 19
2, 111088, Control_c, 0, 64, 0
2, 111369, Control_c, 0, 64, 26
2, 111385, Control_c, 0, 64, 42
2, 111399, Control_c, 0, 64, 51
2, 111414, Control_c, 0, 64, 57
2, 111430, Control_c, 0, 64, 62
2, 111445, Control_c, 0, 64, 65
2, 111460, Control_c, 0, 64, 68
2, 111475, Control_c, 0, 64, 72
2, 111490, Control_c, 0, 64, 74
2, 111506, Control_c, 0, 64, 77
2, 111521, Control_c, 0, 64, 78
2, 111535, Control_c, 0, 64, 79
2, 111612, Control_c, 0, 64, 78
2, 111628, Control_c, 0, 64, 78
2, 111645, Control_c, 0, 64, 77
2, 111660, Control_c, 0, 64, 77
2, 111674, Control_c, 0, 64, 76
2, 111679, Note_on_c, 0, 52, 51
2, 111690, Control_c, 0, 64, 75
2, 111706, Control_c, 0, 64, 74
2, 111721, Control_c, 0, 64, 74
2, 111736, Control_c, 0, 64, 73
2, 111752, Control_c, 0, 64, 73
2, 111767, Control_c, 0, 64, 72
2, 111782, Control_c, 0, 64, 71
2, 111797, Control_c, 0, 64, 69
2, 111812, Control_c, 0, 64, 68
2, 111816, Note_on_c, 0, 59, 0
2, 111827, Control_c, 0, 64, 66
2, 111842, Control_c, 0, 64, 65
2, 111858, Control_c, 0, 64, 65
2, 111873, Control_c, 0, 64, 64
2, 111888, Control_c, 0, 64, 63
2, 111903, Control_c, 0, 64, 62
2, 111918, Control_c, 0, 64, 61
2, 111933, Control_c, 0, 64, 60
2, 111948, Control_c, 0, 64, 59
2, 111963, Control_c, 0, 64, 58
2, 111979, Control_c, 0, 64, 57
2, 111994, Control_c, 0, 64, 56
2, 112000, Note_on_c, 0, 57, 54
2, 112009, Control_c, 0, 64, 55
2, 112024, Control_c, 0, 64, 53
2, 112039, Control_c, 0, 64, 50
2, 112054, Control_c, 0, 64, 47
2, 112070, Control_c, 0, 64, 45
2, 112085, Control_c, 0, 64, 44
2, 112108, Control_c, 0, 64, 42
2, 112123, Control_c, 0, 64, 39
2, 112139, Control_c, 0, 64, 36
2, 112154, Control_c, 0, 64, 31
2, 112155, Note_on_c, 0, 52, 0
2, 112168, Control_c, 0, 64, 25
2, 112184, Control_c, 0, 64, 18
2, 112199, Control_c, 0, 64, 12
2, 112214, Control_c, 0, 64, 0
2, 112315, Note_on_c, 0, 55, 56
2, 112434, Note_on_c, 0, 57, 0
2, 112623, Note_on_c, 0, 54, 53
2, 112831, Note_on_c, 0, 55, 0
2, 112954, Note_on_c, 0, 69, 57
2, 113043, Control_c, 0, 64, 35
2, 113059, Control_c, 0, 64, 52
2, 113074, Control_c, 0, 64, 59
2, 113088, Control_c, 0, 64, 62
2, 113104, Control_c, 0, 64, 64
2, 113119, Control_c, 0, 64, 65
2, 113134, Control_c, 0, 64, 65
2, 113152, Note_on_c, 0, 69, 0
2, 113223, Note_on_c, 0, 50, 41
2, 113226, Control_c, 0, 64, 66
2, 113243, Note_on_c, 0, 69, 63
2, 113286, Control_c, 0, 64, 64
2, 113302, Control_c, 0, 64, 58
2, 113317, Control_c, 0, 64, 35
2, 113332, Control_c, 0, 64, 0
2, 113379, Control_c, 0, 64, 32
2, 113394, Control_c, 0, 64, 51
2, 113406, Note_on_c, 0, 54, 0
2, 113409, Control_c, 0, 64, 59
2, 113425, Control_c, 0, 64, 63
2, 113439, Control_c, 0, 64, 64
2, 113441, Note_on_c, 0, 69, 0
2, 113454, Control_c, 0, 64, 65
2, 113470, Control_c, 0, 64, 65
2, 113485, Control_c, 0, 64, 65
2, 113539, Note_on_c, 0, 69, 61
2, 113546, Control_c, 0, 64, 65
2, 113591, Control_c, 0, 64, 64
2, 113606, Control_c, 0, 64, 57
2, 113622, Control_c, 0, 64, 30
2, 113644, Control_c, 0, 64, 0
2, 113675, Control_c, 0, 64, 38
2, 113690, Control_c, 0, 64, 53
2, 113706, Control_c, 0, 64, 60
2, 113706, Note_on_c, 0, 50, 0
2, 113720, Control_c, 0, 64, 63
2, 113735, Control_c, 0, 64, 65
2, 113751, Control_c, 0, 64, 67
2, 113766, Control_c, 0, 64, 68
2, 113782, Control_c, 0, 64, 69
2, 113811, Control_c, 0, 64, 68
2, 113827, Control_c, 0, 64, 68
2, 113842, Control_c, 0, 64, 67
2, 113853, Note_on_c, 0, 62, 54
2, 113856, Control_c, 0, 64, 66
2, 113872, Control_c, 0, 64, 65
2, 113887, Control_c, 0, 64, 63
2, 113903, Control_c, 0, 64, 62
2, 113918, Control_c, 0, 64, 62
2, 113932, Control_c, 0, 64, 61
2, 113948, Control_c, 0, 64, 60
2, 113963, Control_c, 0, 64, 58
2, 113963, Note_on_c, 0, 69, 0
2, 113978, Control_c, 0, 64, 55
2, 113993, Control_c, 0, 64, 52
2, 114008, Control_c, 0, 64, 50
2, 114024, Control_c, 0, 64, 49
2, 114039, Control_c, 0, 64, 48
2, 114054, Control_c, 0, 64, 47
2, 114070, Control_c, 0, 64, 45
2, 114085, Control_c, 0, 64, 43
2, 114100, Control_c, 0, 64, 42
2, 114115, Control_c, 0, 64, 40
2, 114130, Control_c, 0, 64, 39
2, 114146, Control_c, 0, 64, 37
2, 114161, Control_c, 0, 64, 32
2, 114161, Note_on_c, 0, 54, 43
2, 114176, Control_c, 0, 64, 25
2, 114192, Control_c, 0, 64, 12
2, 114207, Control_c, 0, 64, 0
2, 114449, Note_on_c, 0, 59, 33
2, 114488, Note_on_c, 0, 66, 57
2, 114587, Note_on_c, 0, 54, 0
2, 114727, Note_on_c, 0, 62, 0
2, 114772, Note_on_c, 0, 57, 44
2, 114871, Note_on_c, 0, 59, 0
2, 115068, Note_on_c, 0, 56, 46
2, 115210, Control_c, 0, 64, 19
2, 115225, Note_on_c, 0, 57, 0
2, 115226, Control_c, 0, 64, 32
2, 115241, Control_c, 0, 64, 39
2, 115255, Control_c, 0, 64, 43
2, 115271, Control_c, 0, 64, 45
2, 115286, Control_c, 0, 64, 46
2, 115385, Note_on_c, 0, 59, 50
2, 115408, Control_c, 0, 64, 45
2, 115424, Control_c, 0, 64, 43
2, 115439, Control_c, 0, 64, 41
2, 115453, Control_c, 0, 64, 39
2, 115479, Note_on_c, 0, 66, 0
2, 115484, Control_c, 0, 64, 39
2, 115679, Note_on_c, 0, 64, 57
2, 115681, Control_c, 0, 64, 39
2, 115727, Control_c, 0, 64, 36
2, 115742, Control_c, 0, 64, 22
2, 115757, Control_c, 0, 64, 0
2, 115784, Note_on_c, 0, 59, 0
2, 115804, Control_c, 0, 64, 16
2, 115820, Control_c, 0, 64, 28
2, 115835, Control_c, 0, 64, 36
2, 115849, Control_c, 0, 64, 42
2, 115865, Control_c, 0, 64, 45
2, 115880, Control_c, 0, 64, 48
2, 115925, Control_c, 0, 64, 46
2, 115949, Control_c, 0, 64, 43
2, 115994, Control_c, 0, 64, 45
2, 115995, Note_on_c, 0, 62, 54
2, 116009, Control_c, 0, 64, 47
2, 116025, Control_c, 0, 64, 50
2, 116040, Control_c, 0, 64, 54
2, 116054, Control_c, 0, 64, 60
2, 116070, Control_c, 0, 64, 63
2, 116085, Control_c, 0, 64, 66
2, 116098, Note_on_c, 0, 64, 0
2, 116100, Control_c, 0, 64, 68
2, 116115, Control_c, 0, 64, 70
2, 116130, Control_c, 0, 64, 71
2, 116146, Control_c, 0, 64, 72
2, 116191, Control_c, 0, 64, 72
2, 116206, Control_c, 0, 64, 71
2, 116222, Control_c, 0, 64, 70
2, 116237, Control_c, 0, 64, 69
2, 116252, Control_c, 0, 64, 68
2, 116268, Control_c, 0, 64, 67
2, 116283, Control_c, 0, 64, 66
2, 116294, Note_on_c, 0, 62, 0
2, 116299, Control_c, 0, 64, 66
2, 116306, Note_on_c, 0, 57, 38
2, 116317, Note_on_c, 0, 61, 52
2, 116390, Control_c, 0, 64, 64
2, 116405, Control_c, 0, 64, 56
2, 116421, Control_c, 0, 64, 37
2, 116435, Control_c, 0, 64, 0
2, 116453, Note_on_c, 0, 56, 0
2, 116496, Control_c, 0, 64, 24
2, 116511, Control_c, 0, 64, 42
2, 116526, Control_c, 0, 64, 50
2, 116542, Control_c, 0, 64, 54
2, 116557, Control_c, 0, 64, 57
2, 116572, Control_c, 0, 64, 60
2, 116587, Control_c, 0, 64, 61
2, 116602, Control_c, 0, 64, 62
2, 116604, Note_on_c, 0, 64, 62
2, 116619, Control_c, 0, 64, 63
2, 116677, Note_on_c, 0, 61, 0
2, 116732, Control_c, 0, 64, 63
2, 116763, Control_c, 0, 64, 62
2, 116779, Control_c, 0, 64, 62
2, 116794, Control_c, 0, 64, 61
2, 116809, Control_c, 0, 64, 61
2, 116824, Control_c, 0, 64, 60
2, 116839, Control_c, 0, 64, 59
2, 116854, Control_c, 0, 64, 59
2, 116870, Control_c, 0, 64, 58
2, 116900, Control_c, 0, 64, 58
2, 116915, Control_c, 0, 64, 57
2, 116915, Note_on_c, 0, 69, 52
2, 116923, Note_on_c, 0, 61, 42
2, 116930, Control_c, 0, 64, 55
2, 116945, Control_c, 0, 64, 54
2, 116960, Control_c, 0, 64, 54
2, 116975, Control_c, 0, 64, 53
2, 116991, Control_c, 0, 64, 52
2, 117006, Control_c, 0, 64, 52
2, 117021, Control_c, 0, 64, 51
2, 117035, Control_c, 0, 64, 51
2, 117050, Control_c, 0, 64, 50
2, 117052, Note_on_c, 0, 64, 0
2, 117066, Control_c, 0, 64, 50
2, 117071, Note_on_c, 0, 57, 0
2, 117081, Control_c, 0, 64, 48
2, 117096, Control_c, 0, 64, 47
2, 117112, Control_c, 0, 64, 45
2, 117127, Control_c, 0, 64, 43
2, 117142, Control_c, 0, 64, 39
2, 117157, Control_c, 0, 64, 35
2, 117172, Control_c, 0, 64, 32
2, 117188, Control_c, 0, 64, 29
2, 117203, Control_c, 0, 64, 26
2, 117204, Note_on_c, 0, 67, 56
2, 117219, Control_c, 0, 64, 22
2, 117233, Control_c, 0, 64, 13
2, 117248, Control_c, 0, 64, 0
2, 117316, Note_on_c, 0, 69, 0
2, 117513, Note_on_c, 0, 66, 53
2, 117573, Note_on_c, 0, 61, 0
2, 117679, Note_on_c, 0, 67, 0
2, 117814, Note_on_c, 0, 57, 43
2, 118102, Note_on_c, 0, 62, 31
2, 118126, Note_on_c, 0, 69, 47
2, 118175, Note_on_c, 0, 57, 0
2, 118378, Note_on_c, 0, 66, 0
2, 118415, Note_on_c, 0, 61, 46
2, 118520, Note_on_c, 0, 62, 0
2, 118715, Note_on_c, 0, 59, 45
2, 118824, Note_on_c, 0, 61, 0
2, 119041, Note_on_c, 0, 74, 64
2, 119062, Note_on_c, 0, 62, 32
2, 119166, Note_on_c, 0, 69, 0
2, 119188, Control_c, 0, 64, 19
2, 119203, Control_c, 0, 64, 29
2, 119218, Control_c, 0, 64, 34
2, 119233, Control_c, 0, 64, 37
2, 119248, Control_c, 0, 64, 40
2, 119251, Note_on_c, 0, 74, 0
2, 119264, Control_c, 0, 64, 41
2, 119279, Control_c, 0, 64, 42
2, 119294, Control_c, 0, 64, 43
2, 119341, Control_c, 0, 64, 40
2, 119343, Note_on_c, 0, 74, 72
2, 119356, Control_c, 0, 64, 32
2, 119358, Note_on_c, 0, 67, 52
2, 119371, Control_c, 0, 64, 29
2, 119401, Control_c, 0, 64, 34
2, 119416, Control_c, 0, 64, 42
2, 119432, Control_c, 0, 64, 48
2, 119447, Control_c, 0, 64, 54
2, 119463, Control_c, 0, 64, 57
2, 119470, Note_on_c, 0, 62, 0
2, 119477, Control_c, 0, 64, 59
2, 119492, Control_c, 0, 64, 61
2, 119500, Note_on_c, 0, 74, 0
2, 119508, Control_c, 0, 64, 62
2, 119523, Control_c, 0, 64, 63
2, 119538, Control_c, 0, 64, 63
2, 119599, Control_c, 0, 64, 61
2, 119613, Control_c, 0, 64, 58
2, 119629, Control_c, 0, 64, 54
2, 119630, Note_on_c, 0, 74, 66
2, 119644, Control_c, 0, 64, 53
2, 119649, Note_on_c, 0, 66, 51
2, 119660, Control_c, 0, 64, 55
2, 119675, Control_c, 0, 64, 59
2, 119689, Control_c, 0, 64, 61
2, 119705, Control_c, 0, 64, 63
2, 119720, Control_c, 0, 64, 65
2, 119734, Control_c, 0, 64, 67
2, 119750, Control_c, 0, 64, 70
2, 119756, Note_on_c, 0, 67, 0
2, 119763, Note_on_c, 0, 66, 0
2, 119765, Control_c, 0, 64, 73
2, 119789, Control_c, 0, 64, 74
2, 119805, Note_on_c, 0, 74, 0
2, 119819, Control_c, 0, 64, 73
2, 119829, Note_on_c, 0, 59, 0
2, 119834, Control_c, 0, 64, 72
2, 119849, Control_c, 0, 64, 72
2, 119865, Control_c, 0, 64, 71
2, 119880, Control_c, 0, 64, 70
2, 119896, Control_c, 0, 64, 69
2, 119912, Control_c, 0, 64, 69
2, 119930, Note_on_c, 0, 67, 62
2, 119949, Note_on_c, 0, 64, 51
2, 119957, Control_c, 0, 64, 68
2, 119971, Control_c, 0, 64, 68
2, 119987, Control_c, 0, 64, 64
2, 120002, Control_c, 0, 64, 54
2, 120018, Control_c, 0, 64, 35
2, 120033, Control_c, 0, 64, 28
2, 120063, Control_c, 0, 64, 32
2, 120078, Control_c, 0, 64, 45
2, 120093, Control_c, 0, 64, 52
2, 120109, Control_c, 0, 64, 55
2, 120123, Control_c, 0, 64, 56
2, 120184, Control_c, 0, 64, 56
2, 120214, Control_c, 0, 64, 56
2, 120214, Note_on_c, 0, 59, 49
2, 120218, Note_on_c, 0, 66, 65
2, 120230, Control_c, 0, 64, 52
2, 120245, Control_c, 0, 64, 42
2, 120261, Control_c, 0, 64, 32
2, 120276, Control_c, 0, 64, 25
2, 120291, Control_c, 0, 64, 24
2, 120307, Control_c, 0, 64, 33
2, 120319, Note_on_c, 0, 67, 0
2, 120321, Control_c, 0, 64, 48
2, 120322, Note_on_c, 0, 64, 0
2, 120336, Control_c, 0, 64, 57
2, 120352, Control_c, 0, 64, 61
2, 120367, Control_c, 0, 64, 63
2, 120382, Control_c, 0, 64, 64
2, 120397, Control_c, 0, 64, 65
2, 120412, Control_c, 0, 64, 64
2, 120428, Control_c, 0, 64, 64
2, 120443, Control_c, 0, 64, 63
2, 120458, Control_c, 0, 64, 63
2, 120473, Control_c, 0, 64, 62
2, 120488, Control_c, 0, 64, 61
2, 120504, Control_c, 0, 64, 60
2, 120517, Note_on_c, 0, 64, 39
2, 120519, Control_c, 0, 64, 58
2, 120523, Note_on_c, 0, 71, 64
2, 120533, Control_c, 0, 64, 57
2, 120539, Note_on_c, 0, 67, 55
2, 120587, Control_c, 0, 64, 57
2, 120602, Control_c, 0, 64, 56
2, 120616, Note_on_c, 0, 59, 0
2, 120618, Control_c, 0, 64, 54
2, 120633, Control_c, 0, 64, 51
2, 120648, Control_c, 0, 64, 47
2, 120661, Note_on_c, 0, 66, 0
2, 120663, Control_c, 0, 64, 41
2, 120678, Control_c, 0, 64, 34
2, 120693, Control_c, 0, 64, 25
2, 120710, Control_c, 0, 64, 10
2, 120725, Control_c, 0, 64, 0
2, 120809, Note_on_c, 0, 62, 49
2, 120842, Note_on_c, 0, 64, 0
2, 120936, Control_c, 0, 64, 40
2, 120952, Control_c, 0, 64, 48
2, 120967, Control_c, 0, 64, 50
2, 120982, Control_c, 0, 64, 51
2, 120997, Control_c, 0, 64, 53
2, 121012, Control_c, 0, 64, 54
2, 121028, Control_c, 0, 64, 56
2, 121043, Control_c, 0, 64, 57
2, 121059, Control_c, 0, 64, 57
2, 121074, Control_c, 0, 64, 58
2, 121088, Control_c, 0, 64, 59
2, 121104, Control_c, 0, 64, 61
2, 121114, Note_on_c, 0, 61, 43
2, 121119, Control_c, 0, 64, 62
2, 121134, Control_c, 0, 64, 63
2, 121135, Note_on_c, 0, 62, 0
2, 121150, Control_c, 0, 64, 63
2, 121164, Control_c, 0, 64, 64
2, 121180, Control_c, 0, 64, 65
2, 121195, Control_c, 0, 64, 66
2, 121209, Control_c, 0, 64, 67
2, 121225, Control_c, 0, 64, 67
2, 121324, Control_c, 0, 64, 67
2, 121340, Control_c, 0, 64, 66
2, 121354, Control_c, 0, 64, 65
2, 121369, Control_c, 0, 64, 65
2, 121400, Control_c, 0, 64, 64
2, 121430, Note_on_c, 0, 57, 61
2, 121445, Control_c, 0, 64, 63
2, 121461, Control_c, 0, 64, 60
2, 121476, Control_c, 0, 64, 50
2, 121486, Note_on_c, 0, 64, 51
2, 121491, Control_c, 0, 64, 22
2, 121506, Control_c, 0, 64, 0
2, 121568, Control_c, 0, 64, 20
2, 121575, Note_on_c, 0, 71, 0
2, 121582, Note_on_c, 0, 67, 0
2, 121584, Control_c, 0, 64, 53
2, 121599, Control_c, 0, 64, 61
2, 121613, Control_c, 0, 64, 64
2, 121629, Control_c, 0, 64, 64
2, 121644, Control_c, 0, 64, 65
2, 121655, Note_on_c, 0, 57, 0
2, 121659, Control_c, 0, 64, 65
2, 121674, Control_c, 0, 64, 66
2, 121689, Control_c, 0, 64, 66
2, 121705, Control_c, 0, 64, 67
2, 121720, Control_c, 0, 64, 67
2, 121734, Control_c, 0, 64, 68
2, 121750, Control_c, 0, 64, 67
2, 121762, Note_on_c, 0, 57, 76
2, 121765, Control_c, 0, 64, 63
2, 121770, Note_on_c, 0, 69, 45
2, 121776, Note_on_c, 0, 66, 48
2, 121780, Control_c, 0, 64, 51
2, 121795, Control_c, 0, 64, 22
2, 121810, Control_c, 0, 64, 0
2, 121826, Control_c, 0, 64, 13
2, 121841, Control_c, 0, 64, 46
2, 121856, Control_c, 0, 64, 61
2, 121872, Control_c, 0, 64, 67
2, 121878, Note_on_c, 0, 64, 0
2, 121887, Control_c, 0, 64, 71
2, 121903, Control_c, 0, 64, 76
2, 121918, Control_c, 0, 64, 81
2, 121921, Note_on_c, 0, 57, 0
2, 121932, Control_c, 0, 64, 84
2, 121948, Control_c, 0, 64, 85
2, 121993, Control_c, 0, 64, 86
2, 122008, Control_c, 0, 64, 86
2, 122039, Control_c, 0, 64, 84
2, 122046, Note_on_c, 0, 57, 73
2, 122054, Control_c, 0, 64, 80
2, 122059, Note_on_c, 0, 64, 44
2, 122062, Note_on_c, 0, 67, 57
2, 122069, Control_c, 0, 64, 70
2, 122092, Control_c, 0, 64, 58
2, 122107, Control_c, 0, 64, 38
2, 122122, Control_c, 0, 64, 36
2, 122124, Note_on_c, 0, 61, 0
2, 122138, Control_c, 0, 64, 40
2, 122138, Note_on_c, 0, 66, 0
2, 122148, Note_on_c, 0, 69, 0
2, 122153, Control_c, 0, 64, 54
2, 122168, Control_c, 0, 64, 63
2, 122184, Control_c, 0, 64, 70
2, 122198, Control_c, 0, 64, 77
2, 122213, Control_c, 0, 64, 84
2, 122229, Control_c, 0, 64, 90
2, 122244, Control_c, 0, 64, 94
2, 122260, Control_c, 0, 64, 96
2, 122274, Control_c, 0, 64, 95
2, 122289, Control_c, 0, 64, 93
2, 122305, Control_c, 0, 64, 90
2, 122320, Control_c, 0, 64, 89
2, 122335, Control_c, 0, 64, 88
2, 122352, Control_c, 0, 64, 87
2, 122362, Note_on_c, 0, 50, 68
2, 122367, Control_c, 0, 64, 84
2, 122382, Control_c, 0, 64, 81
2, 122397, Control_c, 0, 64, 79
2, 122400, Note_on_c, 0, 66, 50
2, 122411, Note_on_c, 0, 62, 38
2, 122412, Control_c, 0, 64, 77
2, 122427, Control_c, 0, 64, 77
2, 122442, Control_c, 0, 64, 75
2, 122458, Control_c, 0, 64, 73
2, 122473, Control_c, 0, 64, 70
2, 122488, Control_c, 0, 64, 67
2, 122495, Note_on_c, 0, 57, 0
2, 122503, Control_c, 0, 64, 63
2, 122518, Control_c, 0, 64, 59
2, 122533, Control_c, 0, 64, 53
2, 122549, Control_c, 0, 64, 44
2, 122564, Control_c, 0, 64, 30
2, 122574, Note_on_c, 0, 64, 0
2, 122579, Control_c, 0, 64, 0
2, 122584, Note_on_c, 0, 67, 0
2, 122682, Note_on_c, 0, 57, 66
2, 122710, Note_on_c, 0, 62, 0
2, 122967, Note_on_c, 0, 62, 57
2, 122984, Note_on_c, 0, 54, 59
2, 123055, Note_on_c, 0, 57, 0
2, 123094, Note_on_c, 0, 50, 0
2, 123165, Control_c, 0, 64, 10
2, 123181, Control_c, 0, 64, 13
2, 123211, Control_c, 0, 64, 10
2, 123226, Control_c, 0, 64, 0
2, 123278, Note_on_c, 0, 61, 69
2, 123318, Control_c, 0, 64, 18
2, 123333, Control_c, 0, 64, 47
2, 123333, Note_on_c, 0, 62, 0
2, 123350, Control_c, 0, 64, 57
2, 123368, Control_c, 0, 64, 61
2, 123383, Control_c, 0, 64, 63
2, 123398, Control_c, 0, 64, 64
2, 123414, Control_c, 0, 64, 65
2, 123428, Control_c, 0, 64, 65
2, 123473, Control_c, 0, 64, 66
2, 123480, Note_on_c, 0, 61, 0
2, 123489, Control_c, 0, 64, 67
2, 123504, Control_c, 0, 64, 68
2, 123519, Control_c, 0, 64, 69
2, 123535, Control_c, 0, 64, 69
2, 123549, Control_c, 0, 64, 67
2, 123556, Note_on_c, 0, 59, 45
2, 123565, Control_c, 0, 64, 63
2, 123580, Control_c, 0, 64, 61
2, 123582, Note_on_c, 0, 68, 68
2, 123611, Control_c, 0, 64, 62
2, 123633, Control_c, 0, 64, 63
2, 123645, Note_on_c, 0, 54, 0
2, 123649, Control_c, 0, 64, 65
2, 123664, Control_c, 0, 64, 67
2, 123679, Control_c, 0, 64, 68
2, 123694, Control_c, 0, 64, 70
2, 123709, Control_c, 0, 64, 71
2, 123725, Control_c, 0, 64, 72
2, 123755, Control_c, 0, 64, 71
2, 123770, Control_c, 0, 64, 71
2, 123778, Note_on_c, 0, 66, 0
2, 123785, Control_c, 0, 64, 70
2, 123800, Control_c, 0, 64, 69
2, 123815, Control_c, 0, 64, 69
2, 123830, Control_c, 0, 64, 68
2, 123846, Control_c, 0, 64, 67
2, 123861, Control_c, 0, 64, 66
2, 123876, Control_c, 0, 64, 65
2, 123880, Note_on_c, 0, 47, 60
2, 123891, Control_c, 0, 64, 64
2, 123906, Control_c, 0, 64, 64
2, 123921, Control_c, 0, 64, 63
2, 123937, Control_c, 0, 64, 62
2, 123951, Control_c, 0, 64, 60
2, 123966, Control_c, 0, 64, 58
2, 123982, Control_c, 0, 64, 56
2, 123996, Note_on_c, 0, 59, 0
2, 123997, Control_c, 0, 64, 55
2, 124013, Control_c, 0, 64, 53
2, 124028, Control_c, 0, 64, 50
2, 124043, Control_c, 0, 64, 45
2, 124058, Control_c, 0, 64, 39
2, 124073, Control_c, 0, 64, 36
2, 124089, Control_c, 0, 64, 32
2, 124104, Control_c, 0, 64, 29
2, 124118, Control_c, 0, 64, 26
2, 124134, Control_c, 0, 64, 23
2, 124149, Control_c, 0, 64, 21
2, 124165, Control_c, 0, 64, 18
2, 124170, Note_on_c, 0, 52, 68
2, 124180, Control_c, 0, 64, 13
2, 124194, Control_c, 0, 64, 0
2, 124289, Note_on_c, 0, 47, 0
2, 124481, Note_on_c, 0, 50, 46
2, 124491, Note_on_c, 0, 59, 66
2, 124573, Note_on_c, 0, 52, 0
2, 124794, Note_on_c, 0, 49, 51
2, 124851, Note_on_c, 0, 69, 57
2, 124852, Note_on_c, 0, 64, 54
2, 124877, Note_on_c, 0, 50, 0
2, 124946, Note_on_c, 0, 59, 0
2, 125007, Note_on_c, 0, 68, 0
2, 125083, Control_c, 0, 64, 10
2, 125099, Control_c, 0, 64, 18
2, 125114, Control_c, 0, 64, 23
2, 125130, Control_c, 0, 64, 28
2, 125145, Control_c, 0, 64, 32
2, 125149, Note_on_c, 0, 47, 51
2, 125151, Note_on_c, 0, 52, 54
2, 125166, Note_on_c, 0, 62, 54
2, 125168, Control_c, 0, 64, 35
2, 125183, Control_c, 0, 64, 39
2, 125186, Note_on_c, 0, 49, 0
2, 125198, Control_c, 0, 64, 42
2, 125212, Control_c, 0, 64, 46
2, 125213, Note_on_c, 0, 64, 0
2, 125227, Control_c, 0, 64, 52
2, 125241, Control_c, 0, 64, 57
2, 125257, Control_c, 0, 64, 61
2, 125272, Control_c, 0, 64, 63
2, 125287, Control_c, 0, 64, 64
2, 125317, Control_c, 0, 64, 63
2, 125333, Control_c, 0, 64, 62
2, 125348, Control_c, 0, 64, 61
2, 125363, Control_c, 0, 64, 60
2, 125378, Control_c, 0, 64, 59
2, 125393, Control_c, 0, 64, 58
2, 125408, Control_c, 0, 64, 57
2, 125424, Control_c, 0, 64, 57
2, 125439, Control_c, 0, 64, 56
2, 125455, Control_c, 0, 64, 53
2, 125457, Note_on_c, 0, 57, 64
2, 125463, Note_on_c, 0, 45, 58
2, 125467, Note_on_c, 0, 61, 57
2, 125469, Control_c, 0, 64, 48
2, 125484, Control_c, 0, 64, 41
2, 125500, Control_c, 0, 64, 28
2, 125507, Note_on_c, 0, 47, 0
2, 125515, Control_c, 0, 64, 0
2, 125525, Note_on_c, 0, 52, 0
2, 125556, Note_on_c, 0, 62, 0
2, 125589, Control_c, 0, 64, 31
2, 125604, Control_c, 0, 64, 48
2, 125620, Control_c, 0, 64, 54
2, 125635, Control_c, 0, 64, 57
2, 125650, Control_c, 0, 64, 57
2, 125670, Note_on_c, 0, 57, 0
2, 125681, Control_c, 0, 64, 57
2, 125696, Control_c, 0, 64, 56
2, 125712, Control_c, 0, 64, 55
2, 125726, Control_c, 0, 64, 55
2, 125742, Control_c, 0, 64, 54
2, 125757, Control_c, 0, 64, 52
2, 125757, Note_on_c, 0, 55, 66
2, 125759, Note_on_c, 0, 64, 60
2, 125772, Control_c, 0, 64, 48
2, 125788, Control_c, 0, 64, 43
2, 125802, Control_c, 0, 64, 38
2, 125818, Control_c, 0, 64, 29
2, 125833, Control_c, 0, 64, 10
2, 125845, Note_on_c, 0, 69, 0
2, 125848, Control_c, 0, 64, 0
2, 126067, Note_on_c, 0, 54, 55
2, 126076, Note_on_c, 0, 69, 59
2, 126130, Note_on_c, 0, 55, 0
2, 126166, Note_on_c, 0, 64, 0
2, 126192, Note_on_c, 0, 45, 0
2, 126349, Note_on_c, 0, 52, 65
2, 126358, Note_on_c, 0, 67, 56
2, 126364, Note_on_c, 0, 45, 48
2, 126395, Note_on_c, 0, 69, 0
2, 126464, Note_on_c, 0, 54, 0
2, 126666, Note_on_c, 0, 50, 61
2, 126679, Note_on_c, 0, 66, 56
2, 126756, Note_on_c, 0, 52, 0
2, 126800, Note_on_c, 0, 67, 0
2, 126803, Note_on_c, 0, 61, 0
2, 126807, Note_on_c, 0, 45, 0
2, 126981, Note_on_c, 0, 49, 55
2, 127017, Note_on_c, 0, 57, 64
2, 127118, Note_on_c, 0, 50, 0
2, 127294, Note_on_c, 0, 62, 60
2, 127302, Note_on_c, 0, 47, 58
2, 127365, Note_on_c, 0, 49, 0
2, 127390, Note_on_c, 0, 57, 0
2, 127589, Note_on_c, 0, 61, 61
2, 127594, Note_on_c, 0, 50, 56
2, 127616, Note_on_c, 0, 45, 54
2, 127630, Note_on_c, 0, 47, 0
2, 127675, Note_on_c, 0, 62, 0
2, 127696, Control_c, 0, 64, 21
2, 127711, Control_c, 0, 64, 39
2, 127726, Control_c, 0, 64, 43
2, 127742, Control_c, 0, 64, 46
2, 127787, Control_c, 0, 64, 44
2, 127802, Control_c, 0, 64, 39
2, 127816, Control_c, 0, 64, 35
2, 127832, Control_c, 0, 64, 34
2, 127847, Control_c, 0, 64, 33
2, 127863, Control_c, 0, 64, 33
2, 127878, Control_c, 0, 64, 31
2, 127892, Control_c, 0, 64, 29
2, 127908, Control_c, 0, 64, 26
2, 127914, Note_on_c, 0, 64, 53
2, 127919, Note_on_c, 0, 43, 58
2, 127923, Control_c, 0, 64, 25
2, 127925, Note_on_c, 0, 55, 59
2, 127939, Control_c, 0, 64, 23
2, 127939, Note_on_c, 0, 59, 40
2, 127953, Control_c, 0, 64, 22
2, 127968, Control_c, 0, 64, 20
2, 127970, Note_on_c, 0, 45, 0
2, 127981, Note_on_c, 0, 50, 0
2, 127984, Control_c, 0, 64, 15
2, 127999, Control_c, 0, 64, 0
2, 128030, Note_on_c, 0, 61, 0
2, 128078, Note_on_c, 0, 66, 0
2, 128259, Note_on_c, 0, 54, 62
2, 128272, Note_on_c, 0, 62, 47
2, 128326, Note_on_c, 0, 55, 0
2, 128364, Note_on_c, 0, 59, 0
2, 128402, Control_c, 0, 64, 31
2, 128417, Control_c, 0, 64, 37
2, 128433, Control_c, 0, 64, 39
2, 128448, Note_on_c, 0, 64, 0
2, 128464, Control_c, 0, 64, 39
2, 128509, Control_c, 0, 64, 40
2, 128524, Control_c, 0, 64, 42
2, 128540, Control_c, 0, 64, 43
2, 128555, Note_on_c, 0, 61, 61
2, 128558, Note_on_c, 0, 52, 67
2, 128570, Control_c, 0, 64, 42
2, 128583, Note_on_c, 0, 57, 41
2, 128586, Control_c, 0, 64, 20
2, 128596, Note_on_c, 0, 54, 0
2, 128600, Control_c, 0, 64, 0
2, 128641, Note_on_c, 0, 43, 0
2, 128678, Control_c, 0, 64, 26
2, 128694, Control_c, 0, 64, 53
2, 128701, Note_on_c, 0, 62, 0
2, 128709, Control_c, 0, 64, 58
2, 128723, Control_c, 0, 64, 60
2, 128739, Control_c, 0, 64, 61
2, 128754, Control_c, 0, 64, 62
2, 128817, Control_c, 0, 64, 62
2, 128848, Control_c, 0, 64, 61
2, 128863, Control_c, 0, 64, 56
2, 128872, Note_on_c, 0, 42, 54
2, 128877, Control_c, 0, 64, 42
2, 128894, Control_c, 0, 64, 17
2, 128909, Control_c, 0, 64, 13
2, 128925, Control_c, 0, 64, 37
2, 128927, Note_on_c, 0, 52, 0
2, 128940, Control_c, 0, 64, 53
2, 128955, Control_c, 0, 64, 61
2, 128971, Control_c, 0, 64, 65
2, 128975, Note_on_c, 0, 57, 0
2, 128985, Control_c, 0, 64, 68
2, 129009, Control_c, 0, 64, 73
2, 129024, Control_c, 0, 64, 78
2, 129038, Control_c, 0, 64, 81
2, 129054, Control_c, 0, 64, 82
2, 129069, Control_c, 0, 64, 81
2, 129085, Control_c, 0, 64, 81
2, 129100, Control_c, 0, 64, 80
2, 129114, Control_c, 0, 64, 80
2, 129130, Control_c, 0, 64, 79
2, 129145, Control_c, 0, 64, 78
2, 129159, Control_c, 0, 64, 77
2, 129175, Control_c, 0, 64, 76
2, 129180, Note_on_c, 0, 62, 54
2, 129191, Note_on_c, 0, 50, 31
2, 129191, Note_on_c, 0, 56, 51
2, 129206, Control_c, 0, 64, 75
2, 129211, Note_on_c, 0, 47, 43
2, 129221, Control_c, 0, 64, 72
2, 129238, Control_c, 0, 64, 63
2, 129253, Control_c, 0, 64, 22
2, 129255, Note_on_c, 0, 42, 0
2, 129268, Control_c, 0, 64, 0
2, 129330, Control_c, 0, 64, 54
2, 129341, Note_on_c, 0, 56, 0
2, 129345, Control_c, 0, 64, 64
2, 129363, Control_c, 0, 64, 68
2, 129377, Control_c, 0, 64, 71
2, 129393, Control_c, 0, 64, 72
2, 129394, Note_on_c, 0, 61, 0
2, 129484, Control_c, 0, 64, 73
2, 129487, Note_on_c, 0, 54, 42
2, 129490, Note_on_c, 0, 49, 45
2, 129493, Note_on_c, 0, 45, 46
2, 129499, Control_c, 0, 64, 72
2, 129515, Control_c, 0, 64, 68
2, 129530, Control_c, 0, 64, 57
2, 129545, Control_c, 0, 64, 0
2, 129558, Note_on_c, 0, 47, 0
2, 129621, Control_c, 0, 64, 50
2, 129626, Note_on_c, 0, 45, 0
2, 129637, Control_c, 0, 64, 61
2, 129651, Control_c, 0, 64, 65
2, 129655, Note_on_c, 0, 50, 0
2, 129664, Note_on_c, 0, 54, 0
2, 129666, Control_c, 0, 64, 68
2, 129682, Control_c, 0, 64, 70
2, 129697, Control_c, 0, 64, 72
2, 129743, Control_c, 0, 64, 71
2, 129759, Control_c, 0, 64, 70
2, 129781, Control_c, 0, 64, 69
2, 129797, Control_c, 0, 64, 68
2, 129811, Control_c, 0, 64, 67
2, 129818, Note_on_c, 0, 47, 37
2, 129819, Note_on_c, 0, 52, 46
2, 129826, Control_c, 0, 64, 65
2, 129842, Control_c, 0, 64, 63
2, 129843, Note_on_c, 0, 44, 27
2, 129857, Control_c, 0, 64, 62
2, 129873, Control_c, 0, 64, 59
2, 129888, Control_c, 0, 64, 56
2, 129903, Control_c, 0, 64, 52
2, 129919, Control_c, 0, 64, 44
2, 129934, Control_c, 0, 64, 33
2, 129949, Control_c, 0, 64, 10
2, 129964, Control_c, 0, 64, 0
2, 129988, Note_on_c, 0, 49, 0
2, 130120, Note_on_c, 0, 71, 52
2, 130254, Note_on_c, 0, 69, 59
2, 130271, Note_on_c, 0, 71, 0
2, 130276, Note_on_c, 0, 62, 0
2, 130410, Note_on_c, 0, 71, 57
2, 130479, Note_on_c, 0, 69, 0
2, 130708, Note_on_c, 0, 62, 49
2, 130777, Control_c, 0, 64, 25
2, 130793, Control_c, 0, 64, 38
2, 130796, Note_on_c, 0, 71, 0
2, 130804, Note_on_c, 0, 52, 0
2, 130808, Control_c, 0, 64, 48
2, 130823, Control_c, 0, 64, 54
2, 130839, Control_c, 0, 64, 58
2, 130853, Control_c, 0, 64, 61
2, 130868, Control_c, 0, 64, 64
2, 130884, Control_c, 0, 64, 67
2, 130891, Note_on_c, 0, 44, 0
2, 130899, Control_c, 0, 64, 71
2, 130915, Control_c, 0, 64, 74
2, 130929, Control_c, 0, 64, 77
2, 130944, Control_c, 0, 64, 79
2, 130960, Control_c, 0, 64, 79
2, 131036, Control_c, 0, 64, 79
2, 131051, Control_c, 0, 64, 77
2, 131064, Note_on_c, 0, 52, 37
2, 131064, Note_on_c, 0, 61, 54
2, 131065, Control_c, 0, 64, 76
2, 131068, Note_on_c, 0, 45, 44
2, 131081, Control_c, 0, 64, 76
2, 131096, Control_c, 0, 64, 75
2, 131112, Control_c, 0, 64, 74
2, 131127, Control_c, 0, 64, 73
2, 131141, Control_c, 0, 64, 71
2, 131157, Control_c, 0, 64, 68
2, 131172, Control_c, 0, 64, 65
2, 131187, Control_c, 0, 64, 63
2, 131203, Control_c, 0, 64, 61
2, 131211, Note_on_c, 0, 62, 0
2, 131218, Control_c, 0, 64, 54
2, 131232, Note_on_c, 0, 47, 0
2, 131233, Control_c, 0, 64, 44
2, 131248, Control_c, 0, 64, 33
2, 131263, Control_c, 0, 64, 26
2, 131279, Control_c, 0, 64, 18
2, 131294, Control_c, 0, 64, 0
2, 131459, Note_on_c, 0, 64, 56
2, 131561, Control_c, 0, 64, 30
2, 131575, Control_c, 0, 64, 52
2, 131591, Control_c, 0, 64, 58
2, 131597, Note_on_c, 0, 61, 0
2, 131606, Control_c, 0, 64, 62
2, 131621, Control_c, 0, 64, 64
2, 131636, Control_c, 0, 64, 65
2, 131651, Control_c, 0, 64, 67
2, 131662, Note_on_c, 0, 64, 0
2, 131666, Control_c, 0, 64, 68
2, 131712, Control_c, 0, 64, 68
2, 131742, Control_c, 0, 64, 69
2, 131759, Note_on_c, 0, 43, 41
2, 131768, Note_on_c, 0, 64, 63
2, 131772, Control_c, 0, 64, 68
2, 131787, Control_c, 0, 64, 63
2, 131803, Control_c, 0, 64, 47
2, 131818, Control_c, 0, 64, 27
2, 131833, Control_c, 0, 64, 28
2, 131848, Control_c, 0, 64, 45
2, 131863, Control_c, 0, 64, 57
2, 131871, Note_on_c, 0, 45, 0
2, 131879, Control_c, 0, 64, 63
2, 131894, Control_c, 0, 64, 66
2, 131908, Control_c, 0, 64, 68
2, 131924, Control_c, 0, 64, 70
2, 131939, Control_c, 0, 64, 70
2, 131955, Control_c, 0, 64, 71
2, 131969, Note_on_c, 0, 64, 0
2, 131970, Control_c, 0, 64, 71
2, 132016, Control_c, 0, 64, 72
2, 132031, Control_c, 0, 64, 74
2, 132046, Control_c, 0, 64, 74
2, 132061, Control_c, 0, 64, 74
2, 132084, Control_c, 0, 64, 70
2, 132085, Note_on_c, 0, 64, 73
2, 132099, Control_c, 0, 64, 64
2, 132114, Control_c, 0, 64, 59
2, 132129, Control_c, 0, 64, 60
2, 132144, Control_c, 0, 64, 62
2, 132160, Control_c, 0, 64, 64
2, 132170, Note_on_c, 0, 43, 0
2, 132175, Control_c, 0, 64, 67
2, 132192, Control_c, 0, 64, 70
2, 132207, Control_c, 0, 64, 75
2, 132221, Control_c, 0, 64, 79
2, 132237, Control_c, 0, 64, 82
2, 132252, Control_c, 0, 64, 84
2, 132266, Control_c, 0, 64, 84
2, 132297, Control_c, 0, 64, 84
2, 132313, Control_c, 0, 64, 82
2, 132328, Control_c, 0, 64, 81
2, 132343, Control_c, 0, 64, 80
2, 132358, Control_c, 0, 64, 79
2, 132373, Control_c, 0, 64, 76
2, 132384, Note_on_c, 0, 42, 41
2, 132388, Control_c, 0, 64, 74
2, 132404, Control_c, 0, 64, 73
2, 132419, Control_c, 0, 64, 71
2, 132425, Note_on_c, 0, 57, 60
2, 132435, Control_c, 0, 64, 70
2, 132450, Control_c, 0, 64, 70
2, 132464, Control_c, 0, 64, 69
2, 132480, Control_c, 0, 64, 68
2, 132481, Note_on_c, 0, 52, 0
2, 132494, Control_c, 0, 64, 67
2, 132508, Control_c, 0, 64, 65
2, 132524, Control_c, 0, 64, 62
2, 132538, Control_c, 0, 64, 58
2, 132542, Note_on_c, 0, 64, 0
2, 132553, Control_c, 0, 64, 50
2, 132569, Control_c, 0, 64, 41
2, 132584, Control_c, 0, 64, 36
2, 132600, Control_c, 0, 64, 35
2, 132629, Control_c, 0, 64, 35
2, 132645, Control_c, 0, 64, 33
2, 132659, Control_c, 0, 64, 33
2, 132705, Control_c, 0, 64, 36
2, 132721, Control_c, 0, 64, 43
2, 132728, Note_on_c, 0, 64, 56
2, 132736, Control_c, 0, 64, 48
2, 132745, Note_on_c, 0, 55, 43
2, 132750, Control_c, 0, 64, 51
2, 132766, Control_c, 0, 64, 55
2, 132781, Control_c, 0, 64, 58
2, 132796, Control_c, 0, 64, 61
2, 132812, Control_c, 0, 64, 63
2, 132827, Control_c, 0, 64, 66
2, 132835, Note_on_c, 0, 57, 0
2, 132850, Control_c, 0, 64, 68
2, 132865, Control_c, 0, 64, 71
2, 132880, Control_c, 0, 64, 74
2, 132885, Note_on_c, 0, 42, 0
2, 132895, Control_c, 0, 64, 76
2, 132910, Control_c, 0, 64, 79
2, 132926, Control_c, 0, 64, 80
2, 133003, Control_c, 0, 64, 79
2, 133018, Control_c, 0, 64, 78
2, 133022, Note_on_c, 0, 54, 47
2, 133033, Control_c, 0, 64, 77
2, 133049, Control_c, 0, 64, 76
2, 133056, Note_on_c, 0, 60, 59
2, 133063, Control_c, 0, 64, 76
2, 133078, Note_on_c, 0, 69, 45
2, 133079, Control_c, 0, 64, 75
2, 133094, Control_c, 0, 64, 74
2, 133108, Control_c, 0, 64, 72
2, 133124, Control_c, 0, 64, 70
2, 133131, Note_on_c, 0, 55, 0
2, 133139, Control_c, 0, 64, 69
2, 133154, Control_c, 0, 64, 68
2, 133171, Control_c, 0, 64, 66
2, 133175, Note_on_c, 0, 64, 0
2, 133185, Control_c, 0, 64, 64
2, 133201, Control_c, 0, 64, 62
2, 133216, Control_c, 0, 64, 60
2, 133231, Control_c, 0, 64, 59
2, 133247, Control_c, 0, 64, 58
2, 133261, Control_c, 0, 64, 56
2, 133276, Control_c, 0, 64, 55
2, 133292, Control_c, 0, 64, 53
2, 133307, Control_c, 0, 64, 51
2, 133322, Control_c, 0, 64, 48
2, 133337, Control_c, 0, 64, 43
2, 133347, Note_on_c, 0, 67, 51
2, 133352, Control_c, 0, 64, 35
2, 133354, Note_on_c, 0, 52, 49
2, 133368, Control_c, 0, 64, 19
2, 133383, Control_c, 0, 64, 0
2, 133416, Note_on_c, 0, 54, 0
2, 133432, Note_on_c, 0, 69, 0
2, 133490, Control_c, 0, 64, 27
2, 133505, Control_c, 0, 64, 53
2, 133520, Control_c, 0, 64, 58
2, 133535, Control_c, 0, 64, 61
2, 133550, Control_c, 0, 64, 62
2, 133566, Control_c, 0, 64, 63
2, 133619, Control_c, 0, 64, 63
2, 133633, Control_c, 0, 64, 62
2, 133664, Control_c, 0, 64, 63
2, 133701, Note_on_c, 0, 47, 27
2, 133702, Note_on_c, 0, 51, 40
2, 133725, Control_c, 0, 64, 62
2, 133731, Note_on_c, 0, 66, 45
2, 133740, Control_c, 0, 64, 56
2, 133755, Control_c, 0, 64, 33
2, 133771, Control_c, 0, 64, 0
2, 133778, Note_on_c, 0, 67, 0
2, 133835, Note_on_c, 0, 52, 0
2, 133848, Control_c, 0, 64, 37
2, 133863, Control_c, 0, 64, 53
2, 133878, Control_c, 0, 64, 60
2, 133891, Note_on_c, 0, 60, 0
2, 133893, Control_c, 0, 64, 63
2, 133908, Control_c, 0, 64, 65
2, 133924, Control_c, 0, 64, 66
2, 133939, Control_c, 0, 64, 68
2, 133953, Control_c, 0, 64, 69
2, 133969, Control_c, 0, 64, 68
2, 133984, Control_c, 0, 64, 68
2, 134000, Control_c, 0, 64, 67
2, 134015, Control_c, 0, 64, 67
2, 134045, Control_c, 0, 64, 66
2, 134060, Control_c, 0, 64, 65
2, 134074, Control_c, 0, 64, 64
2, 134090, Control_c, 0, 64, 63
2, 134105, Control_c, 0, 64, 62
2, 134112, Note_on_c, 0, 54, 48
2, 134121, Control_c, 0, 64, 62
2, 134150, Control_c, 0, 64, 61
2, 134166, Control_c, 0, 64, 60
2, 134181, Control_c, 0, 64, 60
2, 134196, Control_c, 0, 64, 59
2, 134212, Control_c, 0, 64, 58
2, 134227, Control_c, 0, 64, 56
2, 134243, Control_c, 0, 64, 54
2, 134258, Control_c, 0, 64, 51
2, 134272, Control_c, 0, 64, 47
2, 134288, Control_c, 0, 64, 44
2, 134303, Control_c, 0, 64, 40
2, 134319, Control_c, 0, 64, 35
2, 134334, Control_c, 0, 64, 31
2, 134349, Control_c, 0, 64, 28
2, 134364, Control_c, 0, 64, 26
2, 134386, Control_c, 0, 64, 25
2, 134402, Control_c, 0, 64, 25
2, 134421, Note_on_c, 0, 59, 53
2, 134432, Control_c, 0, 64, 24
2, 134447, Control_c, 0, 64, 23
2, 134462, Control_c, 0, 64, 22
2, 134478, Control_c, 0, 64, 21
2, 134493, Control_c, 0, 64, 18
2, 134508, Control_c, 0, 64, 16
2, 134512, Note_on_c, 0, 54, 0
2, 134524, Control_c, 0, 64, 13
2, 134539, Control_c, 0, 64, 10
2, 134569, Control_c, 0, 64, 8
2, 134723, Note_on_c, 0, 57, 54
2, 134828, Control_c, 0, 64, 16
2, 134830, Note_on_c, 0, 59, 0
2, 134844, Control_c, 0, 64, 41
2, 134859, Control_c, 0, 64, 54
2, 134873, Control_c, 0, 64, 60
2, 134889, Control_c, 0, 64, 62
2, 134904, Control_c, 0, 64, 64
2, 134919, Control_c, 0, 64, 65
2, 134934, Control_c, 0, 64, 66
2, 134949, Control_c, 0, 64, 67
2, 134965, Control_c, 0, 64, 67
2, 135010, Control_c, 0, 64, 68
2, 135025, Control_c, 0, 64, 69
2, 135041, Control_c, 0, 64, 70
2, 135045, Note_on_c, 0, 52, 41
2, 135056, Control_c, 0, 64, 71
2, 135056, Note_on_c, 0, 55, 53
2, 135071, Control_c, 0, 64, 70
2, 135086, Control_c, 0, 64, 65
2, 135101, Control_c, 0, 64, 54
2, 135116, Control_c, 0, 64, 30
2, 135122, Note_on_c, 0, 57, 0
2, 135132, Control_c, 0, 64, 29
2, 135154, Control_c, 0, 64, 33
2, 135160, Note_on_c, 0, 51, 0
2, 135170, Control_c, 0, 64, 50
2, 135175, Note_on_c, 0, 66, 0
2, 135185, Control_c, 0, 64, 61
2, 135201, Control_c, 0, 64, 66
2, 135215, Control_c, 0, 64, 73
2, 135230, Control_c, 0, 64, 79
2, 135246, Control_c, 0, 64, 84
2, 135261, Control_c, 0, 64, 88
2, 135266, Note_on_c, 0, 55, 0
2, 135276, Control_c, 0, 64, 91
2, 135306, Control_c, 0, 64, 90
2, 135322, Control_c, 0, 64, 89
2, 135337, Control_c, 0, 64, 88
2, 135352, Control_c, 0, 64, 88
2, 135368, Control_c, 0, 64, 87
2, 135383, Control_c, 0, 64, 87
2, 135396, Note_on_c, 0, 51, 49
2, 135413, Control_c, 0, 64, 87
2, 135428, Control_c, 0, 64, 88
2, 135429, Note_on_c, 0, 71, 63
2, 135444, Control_c, 0, 64, 87
2, 135459, Control_c, 0, 64, 83
2, 135461, Note_on_c, 0, 59, 54
2, 135474, Control_c, 0, 64, 73
2, 135490, Control_c, 0, 64, 61
2, 135505, Control_c, 0, 64, 32
2, 135521, Control_c, 0, 64, 20
2, 135536, Control_c, 0, 64, 36
2, 135551, Control_c, 0, 64, 56
2, 135560, Note_on_c, 0, 52, 0
2, 135566, Control_c, 0, 64, 64
2, 135581, Control_c, 0, 64, 69
2, 135596, Control_c, 0, 64, 75
2, 135612, Control_c, 0, 64, 80
2, 135623, Note_on_c, 0, 71, 0
2, 135627, Control_c, 0, 64, 83
2, 135642, Control_c, 0, 64, 84
2, 135657, Control_c, 0, 64, 84
2, 135672, Control_c, 0, 64, 82
2, 135688, Control_c, 0, 64, 81
2, 135703, Control_c, 0, 64, 80
2, 135740, Note_on_c, 0, 55, 41
2, 135745, Note_on_c, 0, 71, 70
2, 135763, Control_c, 0, 64, 81
2, 135768, Note_on_c, 0, 64, 58
2, 135793, Control_c, 0, 64, 76
2, 135809, Control_c, 0, 64, 66
2, 135824, Control_c, 0, 64, 33
2, 135839, Control_c, 0, 64, 0
2, 135859, Note_on_c, 0, 51, 0
2, 135884, Note_on_c, 0, 59, 0
2, 135885, Control_c, 0, 64, 39
2, 135899, Control_c, 0, 64, 59
2, 135923, Control_c, 0, 64, 65
2, 135938, Control_c, 0, 64, 68
2, 135945, Note_on_c, 0, 71, 0
2, 135953, Control_c, 0, 64, 71
2, 135969, Control_c, 0, 64, 72
2, 135999, Control_c, 0, 64, 71
2, 136029, Control_c, 0, 64, 72
2, 136045, Control_c, 0, 64, 74
2, 136052, Note_on_c, 0, 71, 80
2, 136059, Control_c, 0, 64, 75
2, 136067, Note_on_c, 0, 62, 56
2, 136074, Control_c, 0, 64, 71
2, 136090, Control_c, 0, 64, 62
2, 136104, Control_c, 0, 64, 38
2, 136120, Control_c, 0, 64, 12
2, 136150, Control_c, 0, 64, 26
2, 136155, Note_on_c, 0, 64, 0
2, 136166, Control_c, 0, 64, 52
2, 136181, Control_c, 0, 64, 60
2, 136195, Control_c, 0, 64, 64
2, 136211, Control_c, 0, 64, 66
2, 136226, Control_c, 0, 64, 69
2, 136242, Control_c, 0, 64, 71
2, 136242, Note_on_c, 0, 71, 0
2, 136256, Control_c, 0, 64, 73
2, 136271, Control_c, 0, 64, 74
2, 136303, Control_c, 0, 64, 73
2, 136319, Control_c, 0, 64, 71
2, 136334, Control_c, 0, 64, 70
2, 136348, Control_c, 0, 64, 69
2, 136364, Control_c, 0, 64, 68
2, 136379, Control_c, 0, 64, 66
2, 136386, Note_on_c, 0, 64, 71
2, 136394, Control_c, 0, 64, 64
2, 136409, Control_c, 0, 64, 63
2, 136410, Note_on_c, 0, 61, 57
2, 136424, Control_c, 0, 64, 63
2, 136455, Control_c, 0, 64, 62
2, 136470, Control_c, 0, 64, 60
2, 136485, Control_c, 0, 64, 55
2, 136500, Control_c, 0, 64, 48
2, 136515, Control_c, 0, 64, 38
2, 136530, Control_c, 0, 64, 22
2, 136542, Note_on_c, 0, 62, 0
2, 136545, Control_c, 0, 64, 0
2, 136704, Note_on_c, 0, 59, 67
2, 136735, Note_on_c, 0, 61, 0
2, 136766, Control_c, 0, 64, 16
2, 136781, Control_c, 0, 64, 45
2, 136796, Control_c, 0, 64, 54
2, 136812, Control_c, 0, 64, 59
2, 136821, Note_on_c, 0, 55, 0
2, 136826, Control_c, 0, 64, 62
2, 136842, Control_c, 0, 64, 64
2, 136857, Control_c, 0, 64, 65
2, 136872, Control_c, 0, 64, 65
2, 136888, Control_c, 0, 64, 66
2, 136979, Control_c, 0, 64, 65
2, 137009, Control_c, 0, 64, 65
2, 137018, Note_on_c, 0, 49, 32
2, 137024, Control_c, 0, 64, 64
2, 137034, Note_on_c, 0, 67, 61
2, 137055, Control_c, 0, 64, 64
2, 137057, Note_on_c, 0, 58, 45
2, 137086, Control_c, 0, 64, 63
2, 137101, Control_c, 0, 64, 63
2, 137116, Control_c, 0, 64, 62
2, 137132, Control_c, 0, 64, 62
2, 137147, Control_c, 0, 64, 61
2, 137162, Control_c, 0, 64, 59
2, 137177, Control_c, 0, 64, 57
2, 137191, Note_on_c, 0, 59, 0
2, 137192, Control_c, 0, 64, 54
2, 137198, Note_on_c, 0, 64, 0
2, 137208, Control_c, 0, 64, 52
2, 137223, Control_c, 0, 64, 50
2, 137239, Control_c, 0, 64, 48
2, 137253, Control_c, 0, 64, 46
2, 137268, Control_c, 0, 64, 42
2, 137284, Control_c, 0, 64, 38
2, 137299, Control_c, 0, 64, 30
2, 137314, Control_c, 0, 64, 13
2, 137325, Note_on_c, 0, 59, 48
2, 137327, Note_on_c, 0, 50, 29
2, 137329, Control_c, 0, 64, 0
2, 137376, Note_on_c, 0, 58, 0
2, 137404, Note_on_c, 0, 49, 0
2, 137458, Control_c, 0, 64, 12
2, 137473, Control_c, 0, 64, 19
2, 137489, Control_c, 0, 64, 23
2, 137504, Control_c, 0, 64, 26
2, 137520, Control_c, 0, 64, 28
2, 137534, Control_c, 0, 64, 30
2, 137549, Control_c, 0, 64, 32
2, 137565, Control_c, 0, 64, 32
2, 137594, Control_c, 0, 64, 32
2, 137610, Control_c, 0, 64, 29
2, 137625, Control_c, 0, 64, 22
2, 137625, Note_on_c, 0, 52, 42
2, 137639, Note_on_c, 0, 61, 54
2, 137641, Control_c, 0, 64, 20
2, 137670, Control_c, 0, 64, 21
2, 137686, Control_c, 0, 64, 32
2, 137701, Control_c, 0, 64, 46
2, 137716, Control_c, 0, 64, 56
2, 137732, Control_c, 0, 64, 61
2, 137746, Control_c, 0, 64, 63
2, 137762, Control_c, 0, 64, 65
2, 137766, Note_on_c, 0, 50, 0
2, 137777, Control_c, 0, 64, 66
2, 137792, Control_c, 0, 64, 67
2, 137796, Note_on_c, 0, 61, 0
2, 137807, Control_c, 0, 64, 68
2, 137822, Control_c, 0, 64, 69
2, 137835, Note_on_c, 0, 59, 0
2, 137838, Control_c, 0, 64, 70
2, 137853, Control_c, 0, 64, 72
2, 137868, Control_c, 0, 64, 73
2, 137884, Control_c, 0, 64, 72
2, 137899, Control_c, 0, 64, 68
2, 137914, Control_c, 0, 64, 63
2, 137924, Note_on_c, 0, 52, 0
2, 137930, Control_c, 0, 64, 58
2, 137939, Note_on_c, 0, 61, 54
2, 137940, Note_on_c, 0, 55, 37
2, 137961, Control_c, 0, 64, 61
2, 137966, Note_on_c, 0, 64, 56
2, 137975, Control_c, 0, 64, 63
2, 137990, Control_c, 0, 64, 65
2, 138006, Control_c, 0, 64, 67
2, 138021, Control_c, 0, 64, 69
2, 138036, Control_c, 0, 64, 72
2, 138042, Note_on_c, 0, 67, 0
2, 138052, Control_c, 0, 64, 75
2, 138067, Control_c, 0, 64, 76
2, 138069, Note_on_c, 0, 47, 0
2, 138083, Control_c, 0, 64, 77
2, 138128, Control_c, 0, 64, 76
2, 138143, Control_c, 0, 64, 76
2, 138159, Control_c, 0, 64, 75
2, 138173, Control_c, 0, 64, 74
2, 138188, Control_c, 0, 64, 73
2, 138204, Control_c, 0, 64, 73
2, 138226, Control_c, 0, 64, 72
2, 138242, Control_c, 0, 64, 70
2, 138257, Control_c, 0, 64, 68
2, 138272, Control_c, 0, 64, 67
2, 138282, Note_on_c, 0, 66, 52
2, 138286, Note_on_c, 0, 62, 48
2, 138287, Control_c, 0, 64, 66
2, 138297, Note_on_c, 0, 46, 34
2, 138300, Note_on_c, 0, 54, 28
2, 138302, Control_c, 0, 64, 65
2, 138318, Control_c, 0, 64, 65
2, 138333, Control_c, 0, 64, 64
2, 138347, Control_c, 0, 64, 63
2, 138363, Control_c, 0, 64, 62
2, 138378, Control_c, 0, 64, 58
2, 138386, Note_on_c, 0, 64, 0
2, 138392, Note_on_c, 0, 61, 0
2, 138393, Control_c, 0, 64, 52
2, 138409, Control_c, 0, 64, 41
2, 138423, Note_on_c, 0, 55, 0
2, 138424, Control_c, 0, 64, 13
2, 138439, Control_c, 0, 64, 0
2, 138575, Control_c, 0, 64, 31
2, 138587, Note_on_c, 0, 64, 62
2, 138590, Control_c, 0, 64, 45
2, 138605, Control_c, 0, 64, 52
2, 138609, Note_on_c, 0, 61, 46
2, 138620, Control_c, 0, 64, 57
2, 138634, Note_on_c, 0, 62, 0
2, 138635, Control_c, 0, 64, 61
2, 138651, Control_c, 0, 64, 64
2, 138660, Note_on_c, 0, 66, 0
2, 138666, Control_c, 0, 64, 67
2, 138682, Control_c, 0, 64, 71
2, 138697, Control_c, 0, 64, 75
2, 138711, Control_c, 0, 64, 79
2, 138727, Control_c, 0, 64, 83
2, 138742, Note_on_c, 0, 46, 0
2, 138743, Control_c, 0, 64, 85
2, 138758, Control_c, 0, 64, 87
2, 138782, Note_on_c, 0, 64, 0
2, 138804, Control_c, 0, 64, 87
2, 138808, Note_on_c, 0, 61, 0
2, 138834, Control_c, 0, 64, 86
2, 138864, Control_c, 0, 64, 85
2, 138880, Control_c, 0, 64, 85
2, 138895, Control_c, 0, 64, 84
2, 138910, Control_c, 0, 64, 83
2, 138910, Note_on_c, 0, 47, 39
2, 138926, Control_c, 0, 64, 83
2, 138940, Control_c, 0, 64, 81
2, 138940, Note_on_c, 0, 62, 52
2, 138955, Control_c, 0, 64, 80
2, 138956, Note_on_c, 0, 59, 44
2, 138971, Control_c, 0, 64, 78
2, 138993, Control_c, 0, 64, 77
2, 139009, Control_c, 0, 64, 75
2, 139024, Control_c, 0, 64, 73
2, 139040, Control_c, 0, 64, 70
2, 139055, Control_c, 0, 64, 67
2, 139064, Note_on_c, 0, 54, 0
2, 139069, Control_c, 0, 64, 65
2, 139085, Control_c, 0, 64, 63
2, 139100, Control_c, 0, 64, 60
2, 139115, Control_c, 0, 64, 55
2, 139131, Control_c, 0, 64, 44
2, 139145, Control_c, 0, 64, 0
2, 139279, Note_on_c, 0, 57, 35
2, 139311, Note_on_c, 0, 66, 57
2, 139472, Note_on_c, 0, 59, 0
2, 139486, Note_on_c, 0, 62, 0
2, 139592, Note_on_c, 0, 56, 36
2, 139611, Note_on_c, 0, 71, 64
2, 139655, Note_on_c, 0, 57, 0
2, 139733, Note_on_c, 0, 66, 0
2, 139777, Control_c, 0, 64, 34
2, 139791, Control_c, 0, 64, 47
2, 139807, Control_c, 0, 64, 54
2, 139822, Control_c, 0, 64, 58
2, 139838, Control_c, 0, 64, 62
2, 139853, Control_c, 0, 64, 65
2, 139868, Control_c, 0, 64, 67
2, 139883, Control_c, 0, 64, 71
2, 139892, Note_on_c, 0, 54, 34
2, 139898, Control_c, 0, 64, 74
2, 139909, Note_on_c, 0, 69, 61
2, 139913, Control_c, 0, 64, 78
2, 139929, Control_c, 0, 64, 82
2, 139944, Control_c, 0, 64, 87
2, 139960, Control_c, 0, 64, 92
2, 139962, Note_on_c, 0, 71, 0
2, 139973, Note_on_c, 0, 56, 0
2, 139975, Control_c, 0, 64, 99
2, 139989, Control_c, 0, 64, 103
2, 140005, Control_c, 0, 64, 105
2, 140015, Note_on_c, 0, 47, 0
2, 140020, Control_c, 0, 64, 105
2, 140035, Control_c, 0, 64, 106
2, 140050, Control_c, 0, 64, 107
2, 140065, Control_c, 0, 64, 108
2, 140097, Control_c, 0, 64, 107
2, 140101, Note_on_c, 0, 69, 0
2, 140112, Control_c, 0, 64, 106
2, 140115, Note_on_c, 0, 54, 0
2, 140158, Control_c, 0, 64, 105
2, 140173, Control_c, 0, 64, 104
2, 140185, Note_on_c, 0, 52, 48
2, 140188, Control_c, 0, 64, 102
2, 140203, Control_c, 0, 64, 99
2, 140206, Note_on_c, 0, 68, 69
2, 140218, Control_c, 0, 64, 98
2, 140233, Control_c, 0, 64, 97
2, 140248, Control_c, 0, 64, 96
2, 140263, Control_c, 0, 64, 92
2, 140279, Control_c, 0, 64, 88
2, 140294, Control_c, 0, 64, 84
2, 140309, Control_c, 0, 64, 79
2, 140324, Control_c, 0, 64, 75
2, 140339, Control_c, 0, 64, 72
2, 140354, Control_c, 0, 64, 69
2, 140371, Control_c, 0, 64, 67
2, 140386, Control_c, 0, 64, 65
2, 140402, Control_c, 0, 64, 64
2, 140417, Control_c, 0, 64, 63
2, 140431, Control_c, 0, 64, 63
2, 140447, Control_c, 0, 64, 62
2, 140462, Control_c, 0, 64, 60
2, 140471, Note_on_c, 0, 50, 44
2, 140476, Control_c, 0, 64, 59
2, 140492, Control_c, 0, 64, 58
2, 140495, Note_on_c, 0, 71, 70
2, 140507, Control_c, 0, 64, 58
2, 140531, Control_c, 0, 64, 54
2, 140546, Control_c, 0, 64, 44
2, 140561, Control_c, 0, 64, 0
2, 140655, Note_on_c, 0, 68, 0
2, 140741, Control_c, 0, 64, 10
2, 140755, Control_c, 0, 64, 16
2, 140771, Control_c, 0, 64, 17
2, 140782, Note_on_c, 0, 49, 36
2, 140786, Control_c, 0, 64, 18
2, 140801, Note_on_c, 0, 76, 71
2, 140832, Control_c, 0, 64, 16
2, 140847, Control_c, 0, 64, 0
2, 140893, Control_c, 0, 64, 41
2, 140908, Control_c, 0, 64, 60
2, 140915, Note_on_c, 0, 50, 0
2, 140923, Control_c, 0, 64, 67
2, 140926, Note_on_c, 0, 71, 0
2, 140939, Control_c, 0, 64, 73
2, 140954, Control_c, 0, 64, 80
2, 140969, Control_c, 0, 64, 87
2, 140984, Control_c, 0, 64, 91
2, 141029, Control_c, 0, 64, 91
2, 141045, Control_c, 0, 64, 90
2, 141060, Control_c, 0, 64, 90
2, 141074, Note_on_c, 0, 47, 43
2, 141075, Control_c, 0, 64, 89
2, 141083, Note_on_c, 0, 74, 80
2, 141103, Control_c, 0, 64, 90
2, 141118, Control_c, 0, 64, 89
2, 141134, Control_c, 0, 64, 86
2, 141149, Control_c, 0, 64, 78
2, 141156, Note_on_c, 0, 76, 0
2, 141163, Control_c, 0, 64, 66
2, 141180, Control_c, 0, 64, 49
2, 141188, Note_on_c, 0, 49, 0
2, 141195, Control_c, 0, 64, 10
2, 141210, Control_c, 0, 64, 8
2, 141226, Control_c, 0, 64, 26
2, 141241, Control_c, 0, 64, 50
2, 141257, Control_c, 0, 64, 61
2, 141271, Control_c, 0, 64, 65
2, 141295, Control_c, 0, 64, 68
2, 141310, Control_c, 0, 64, 70
2, 141340, Control_c, 0, 64, 69
2, 141370, Control_c, 0, 64, 69
2, 141392, Note_on_c, 0, 45, 43
2, 141400, Control_c, 0, 64, 68
2, 141423, Note_on_c, 0, 73, 74
2, 141461, Control_c, 0, 64, 68
2, 141475, Note_on_c, 0, 74, 0
2, 141476, Control_c, 0, 64, 65
2, 141492, Control_c, 0, 64, 56
2, 141507, Control_c, 0, 64, 32
2, 141517, Note_on_c, 0, 52, 0
2, 141521, Control_c, 0, 64, 0
2, 141544, Note_on_c, 0, 47, 0
2, 141597, Control_c, 0, 64, 53
2, 141613, Control_c, 0, 64, 61
2, 141628, Control_c, 0, 64, 63
2, 141643, Control_c, 0, 64, 64
2, 141658, Control_c, 0, 64, 65
2, 141673, Control_c, 0, 64, 66
2, 141688, Control_c, 0, 64, 67
2, 141704, Control_c, 0, 64, 68
2, 141735, Control_c, 0, 64, 69
2, 141735, Note_on_c, 0, 52, 44
2, 141750, Control_c, 0, 64, 70
2, 141781, Control_c, 0, 64, 67
2, 141784, Note_on_c, 0, 69, 72
2, 141795, Control_c, 0, 64, 61
2, 141810, Control_c, 0, 64, 44
2, 141826, Control_c, 0, 64, 25
2, 141841, Control_c, 0, 64, 24
2, 141856, Control_c, 0, 64, 35
2, 141871, Control_c, 0, 64, 54
2, 141886, Control_c, 0, 64, 63
2, 141902, Control_c, 0, 64, 67
2, 141917, Control_c, 0, 64, 70
2, 141932, Control_c, 0, 64, 73
2, 141947, Control_c, 0, 64, 75
2, 141951, Note_on_c, 0, 73, 0
2, 141962, Control_c, 0, 64, 76
2, 141973, Note_on_c, 0, 69, 0
2, 141978, Control_c, 0, 64, 77
2, 141993, Control_c, 0, 64, 78
2, 142009, Control_c, 0, 64, 80
2, 142025, Control_c, 0, 64, 81
2, 142039, Control_c, 0, 64, 80
2, 142062, Control_c, 0, 64, 75
2, 142076, Note_on_c, 0, 57, 47
2, 142077, Control_c, 0, 64, 65
2, 142093, Control_c, 0, 64, 46
2, 142101, Note_on_c, 0, 69, 76
2, 142108, Control_c, 0, 64, 21
2, 142122, Control_c, 0, 64, 22
2, 142138, Control_c, 0, 64, 39
2, 142153, Control_c, 0, 64, 55
2, 142168, Control_c, 0, 64, 62
2, 142184, Control_c, 0, 64, 66
2, 142199, Control_c, 0, 64, 71
2, 142215, Control_c, 0, 64, 76
2, 142230, Control_c, 0, 64, 80
2, 142230, Note_on_c, 0, 52, 0
2, 142244, Control_c, 0, 64, 82
2, 142260, Control_c, 0, 64, 84
2, 142262, Note_on_c, 0, 57, 0
2, 142275, Control_c, 0, 64, 88
2, 142281, Note_on_c, 0, 45, 0
2, 142281, Note_on_c, 0, 69, 0
2, 142289, Control_c, 0, 64, 92
2, 142305, Control_c, 0, 64, 97
2, 142320, Control_c, 0, 64, 99
2, 142336, Control_c, 0, 64, 96
2, 142351, Control_c, 0, 64, 88
2, 142365, Control_c, 0, 64, 76
2, 142380, Control_c, 0, 64, 72
2, 142380, Note_on_c, 0, 45, 48
2, 142385, Note_on_c, 0, 69, 78
2, 142392, Note_on_c, 0, 55, 44
2, 142395, Control_c, 0, 64, 74
2, 142410, Control_c, 0, 64, 77
2, 142426, Control_c, 0, 64, 80
2, 142440, Control_c, 0, 64, 81
2, 142456, Control_c, 0, 64, 83
2, 142481, Note_on_c, 0, 45, 0
2, 142486, Control_c, 0, 64, 84
2, 142502, Control_c, 0, 64, 86
2, 142517, Control_c, 0, 64, 88
2, 142533, Control_c, 0, 64, 87
2, 142548, Control_c, 0, 64, 86
2, 142563, Control_c, 0, 64, 82
2, 142578, Control_c, 0, 64, 79
2, 142593, Control_c, 0, 64, 76
2, 142608, Control_c, 0, 64, 74
2, 142624, Control_c, 0, 64, 71
2, 142639, Control_c, 0, 64, 67
2, 142654, Control_c, 0, 64, 65
2, 142662, Note_on_c, 0, 47, 41
2, 142672, Note_on_c, 0, 54, 38
2, 142695, Note_on_c, 0, 62, 76
2, 142699, Control_c, 0, 64, 64
2, 142714, Control_c, 0, 64, 62
2, 142729, Control_c, 0, 64, 56
2, 142735, Note_on_c, 0, 55, 0
2, 142745, Control_c, 0, 64, 38
2, 142760, Control_c, 0, 64, 0
2, 142800, Note_on_c, 0, 69, 0
2, 142860, Control_c, 0, 64, 43
2, 142875, Control_c, 0, 64, 53
2, 142890, Control_c, 0, 64, 53
2, 142906, Control_c, 0, 64, 54
2, 142920, Control_c, 0, 64, 54
2, 142936, Control_c, 0, 64, 55
2, 142951, Control_c, 0, 64, 55
2, 142982, Control_c, 0, 64, 54
2, 142983, Note_on_c, 0, 54, 0
2, 142997, Control_c, 0, 64, 52
2, 142997, Note_on_c, 0, 52, 46
2, 143012, Control_c, 0, 64, 49
2, 143027, Control_c, 0, 64, 42
2, 143027, Note_on_c, 0, 74, 81
2, 143042, Control_c, 0, 64, 17
2, 143058, Control_c, 0, 64, 0
2, 143133, Control_c, 0, 64, 50
2, 143149, Control_c, 0, 64, 62
2, 143164, Control_c, 0, 64, 66
2, 143180, Control_c, 0, 64, 70
2, 143195, Control_c, 0, 64, 73
2, 143195, Note_on_c, 0, 74, 0
2, 143209, Control_c, 0, 64, 73
2, 143225, Control_c, 0, 64, 74
2, 143240, Control_c, 0, 64, 73
2, 143270, Control_c, 0, 64, 73
2, 143302, Note_on_c, 0, 50, 48
2, 143310, Note_on_c, 0, 74, 77
2, 143316, Control_c, 0, 64, 72
2, 143316, Note_on_c, 0, 66, 70
2, 143332, Control_c, 0, 64, 70
2, 143346, Control_c, 0, 64, 64
2, 143361, Control_c, 0, 64, 49
2, 143369, Note_on_c, 0, 47, 0
2, 143377, Control_c, 0, 64, 0
2, 143402, Note_on_c, 0, 52, 0
2, 143453, Control_c, 0, 64, 51
2, 143468, Control_c, 0, 64, 62
2, 143483, Control_c, 0, 64, 65
2, 143499, Control_c, 0, 64, 67
2, 143507, Note_on_c, 0, 74, 0
2, 143514, Control_c, 0, 64, 70
2, 143529, Control_c, 0, 64, 72
2, 143537, Note_on_c, 0, 62, 0
2, 143544, Control_c, 0, 64, 74
2, 143559, Control_c, 0, 64, 76
2, 143606, Note_on_c, 0, 47, 48
2, 143613, Control_c, 0, 64, 74
2, 143624, Note_on_c, 0, 74, 76
2, 143627, Control_c, 0, 64, 68
2, 143642, Control_c, 0, 64, 59
2, 143659, Control_c, 0, 64, 36
2, 143674, Control_c, 0, 64, 33
2, 143689, Control_c, 0, 64, 42
2, 143697, Note_on_c, 0, 50, 0
2, 143704, Control_c, 0, 64, 56
2, 143719, Control_c, 0, 64, 64
2, 143735, Control_c, 0, 64, 69
2, 143747, Note_on_c, 0, 74, 0
2, 143750, Control_c, 0, 64, 76
2, 143761, Note_on_c, 0, 47, 0
2, 143765, Control_c, 0, 64, 82
2, 143780, Control_c, 0, 64, 87
2, 143795, Control_c, 0, 64, 90
2, 143810, Control_c, 0, 64, 91
2, 143826, Control_c, 0, 64, 90
2, 143841, Control_c, 0, 64, 89
2, 143857, Control_c, 0, 64, 88
2, 143886, Control_c, 0, 64, 88
2, 143902, Control_c, 0, 64, 87
2, 143917, Control_c, 0, 64, 84
2, 143933, Control_c, 0, 64, 83
2, 143936, Note_on_c, 0, 40, 50
2, 143942, Note_on_c, 0, 52, 39
2, 143969, Note_on_c, 0, 67, 69
2, 143978, Control_c, 0, 64, 82
2, 143993, Control_c, 0, 64, 77
2, 144008, Control_c, 0, 64, 67
2, 144024, Control_c, 0, 64, 50
2, 144039, Control_c, 0, 64, 0
2, 144046, Note_on_c, 0, 40, 0
2, 144069, Control_c, 0, 64, 38
2, 144084, Control_c, 0, 64, 55
2, 144099, Control_c, 0, 64, 63
2, 144114, Control_c, 0, 64, 67
2, 144129, Control_c, 0, 64, 73
2, 144145, Control_c, 0, 64, 78
2, 144160, Control_c, 0, 64, 81
2, 144176, Control_c, 0, 64, 82
2, 144266, Control_c, 0, 64, 82
2, 144281, Control_c, 0, 64, 83
2, 144300, Note_on_c, 0, 54, 45
2, 144325, Note_on_c, 0, 59, 71
2, 144327, Control_c, 0, 64, 80
2, 144343, Control_c, 0, 64, 73
2, 144357, Control_c, 0, 64, 64
2, 144381, Control_c, 0, 64, 56
2, 144395, Control_c, 0, 64, 59
2, 144410, Control_c, 0, 64, 63
2, 144416, Note_on_c, 0, 52, 0
2, 144426, Control_c, 0, 64, 65
2, 144435, Note_on_c, 0, 66, 0
2, 144441, Control_c, 0, 64, 67
2, 144441, Note_on_c, 0, 67, 0
2, 144457, Control_c, 0, 64, 70
2, 144473, Control_c, 0, 64, 73
2, 144488, Control_c, 0, 64, 74
2, 144534, Control_c, 0, 64, 73
2, 144548, Control_c, 0, 64, 72
2, 144563, Control_c, 0, 64, 71
2, 144579, Control_c, 0, 64, 69
2, 144594, Control_c, 0, 64, 66
2, 144609, Control_c, 0, 64, 65
2, 144624, Control_c, 0, 64, 65
2, 144626, Note_on_c, 0, 55, 45
2, 144646, Note_on_c, 0, 71, 67
2, 144661, Note_on_c, 0, 64, 61
2, 144670, Control_c, 0, 64, 64
2, 144670, Note_on_c, 0, 54, 0
2, 144685, Control_c, 0, 64, 63
2, 144700, Control_c, 0, 64, 61
2, 144715, Control_c, 0, 64, 59
2, 144730, Control_c, 0, 64, 56
2, 144746, Control_c, 0, 64, 54
2, 144761, Control_c, 0, 64, 49
2, 144770, Note_on_c, 0, 59, 0
2, 144777, Control_c, 0, 64, 38
2, 144792, Control_c, 0, 64, 15
2, 144807, Control_c, 0, 64, 0
2, 144883, Control_c, 0, 64, 21
2, 144898, Control_c, 0, 64, 26
2, 144913, Control_c, 0, 64, 27
2, 144928, Control_c, 0, 64, 28
2, 144939, Note_on_c, 0, 62, 59
2, 144940, Note_on_c, 0, 52, 48
2, 144942, Control_c, 0, 64, 30
2, 144956, Control_c, 0, 64, 31
2, 144971, Control_c, 0, 64, 33
2, 144987, Control_c, 0, 64, 39
2, 145000, Note_on_c, 0, 64, 0
2, 145002, Control_c, 0, 64, 46
2, 145017, Control_c, 0, 64, 53
2, 145032, Control_c, 0, 64, 57
2, 145047, Control_c, 0, 64, 60
2, 145063, Control_c, 0, 64, 62
2, 145078, Control_c, 0, 64, 63
2, 145161, Control_c, 0, 64, 62
2, 145192, Control_c, 0, 64, 62
2, 145207, Control_c, 0, 64, 61
2, 145237, Control_c, 0, 64, 61
2, 145241, Note_on_c, 0, 61, 61
2, 145248, Note_on_c, 0, 45, 43
2, 145252, Control_c, 0, 64, 60
2, 145268, Control_c, 0, 64, 60
2, 145284, Control_c, 0, 64, 58
2, 145284, Note_on_c, 0, 55, 0
2, 145300, Control_c, 0, 64, 53
2, 145315, Control_c, 0, 64, 45
2, 145330, Control_c, 0, 64, 39
2, 145330, Note_on_c, 0, 62, 0
2, 145345, Control_c, 0, 64, 39
2, 145375, Control_c, 0, 64, 41
2, 145386, Note_on_c, 0, 52, 0
2, 145390, Control_c, 0, 64, 44
2, 145405, Control_c, 0, 64, 45
2, 145436, Control_c, 0, 64, 45
2, 145451, Control_c, 0, 64, 46
2, 145466, Control_c, 0, 64, 47
2, 145481, Control_c, 0, 64, 48
2, 145496, Control_c, 0, 64, 48
2, 145542, Control_c, 0, 64, 46
2, 145557, Control_c, 0, 64, 37
2, 145559, Note_on_c, 0, 64, 60
2, 145565, Note_on_c, 0, 55, 46
2, 145572, Control_c, 0, 64, 0
2, 145645, Note_on_c, 0, 71, 0
2, 145648, Control_c, 0, 64, 45
2, 145664, Control_c, 0, 64, 58
2, 145679, Control_c, 0, 64, 61
2, 145694, Control_c, 0, 64, 63
2, 145710, Control_c, 0, 64, 64
2, 145786, Control_c, 0, 64, 64
2, 145815, Control_c, 0, 64, 63
2, 145869, Note_on_c, 0, 69, 57
2, 145871, Note_on_c, 0, 54, 42
2, 145891, Control_c, 0, 64, 63
2, 145915, Control_c, 0, 64, 59
2, 145929, Control_c, 0, 64, 42
2, 145941, Note_on_c, 0, 55, 0
2, 145945, Control_c, 0, 64, 0
2, 145966, Note_on_c, 0, 64, 0
2, 146021, Control_c, 0, 64, 49
2, 146022, Note_on_c, 0, 45, 0
2, 146036, Control_c, 0, 64, 60
2, 146051, Control_c, 0, 64, 63
2, 146067, Control_c, 0, 64, 65
2, 146081, Control_c, 0, 64, 67
2, 146096, Control_c, 0, 64, 68
2, 146113, Control_c, 0, 64, 71
2, 146128, Control_c, 0, 64, 73
2, 146144, Control_c, 0, 64, 77
2, 146159, Control_c, 0, 64, 79
2, 146174, Control_c, 0, 64, 78
2, 146184, Note_on_c, 0, 52, 47
2, 146189, Control_c, 0, 64, 73
2, 146193, Note_on_c, 0, 67, 56
2, 146199, Note_on_c, 0, 45, 28
2, 146204, Control_c, 0, 64, 65
2, 146220, Control_c, 0, 64, 53
2, 146234, Control_c, 0, 64, 42
2, 146241, Note_on_c, 0, 69, 0
2, 146242, Note_on_c, 0, 54, 0
2, 146265, Control_c, 0, 64, 44
2, 146280, Control_c, 0, 64, 54
2, 146295, Control_c, 0, 64, 61
2, 146310, Control_c, 0, 64, 65
2, 146325, Control_c, 0, 64, 69
2, 146341, Control_c, 0, 64, 74
2, 146351, Note_on_c, 0, 45, 0
2, 146355, Control_c, 0, 64, 78
2, 146370, Control_c, 0, 64, 82
2, 146386, Control_c, 0, 64, 84
2, 146401, Control_c, 0, 64, 85
2, 146421, Note_on_c, 0, 52, 0
2, 146432, Control_c, 0, 64, 84
2, 146446, Control_c, 0, 64, 83
2, 146462, Control_c, 0, 64, 82
2, 146477, Control_c, 0, 64, 80
2, 146492, Control_c, 0, 64, 79
2, 146508, Control_c, 0, 64, 76
2, 146523, Control_c, 0, 64, 74
2, 146539, Control_c, 0, 64, 72
2, 146554, Control_c, 0, 64, 71
2, 146568, Control_c, 0, 64, 70
2, 146584, Control_c, 0, 64, 68
2, 146584, Note_on_c, 0, 66, 50
2, 146599, Control_c, 0, 64, 66
2, 146604, Note_on_c, 0, 50, 32
2, 146614, Control_c, 0, 64, 65
2, 146614, Note_on_c, 0, 38, 34
2, 146644, Control_c, 0, 64, 65
2, 146660, Control_c, 0, 64, 64
2, 146682, Control_c, 0, 64, 63
2, 146697, Control_c, 0, 64, 61
2, 146710, Note_on_c, 0, 67, 0
2, 146713, Control_c, 0, 64, 58
2, 146728, Control_c, 0, 64, 54
2, 146744, Control_c, 0, 64, 50
2, 146758, Control_c, 0, 64, 41
2, 146767, Note_on_c, 0, 61, 0
2, 146773, Control_c, 0, 64, 15
2, 146789, Control_c, 0, 64, 0
2, 146865, Control_c, 0, 64, 49
2, 146880, Control_c, 0, 64, 58
2, 146895, Control_c, 0, 64, 61
2, 146903, Note_on_c, 0, 38, 0
2, 146911, Control_c, 0, 64, 63
2, 146926, Control_c, 0, 64, 64
2, 146942, Control_c, 0, 64, 65
2, 146957, Control_c, 0, 64, 66
2, 146972, Control_c, 0, 64, 66
2, 147033, Control_c, 0, 64, 66
2, 147042, Note_on_c, 0, 57, 45
2, 147048, Control_c, 0, 64, 64
2, 147064, Control_c, 0, 64, 63
2, 147065, Note_on_c, 0, 50, 0
2, 147093, Control_c, 0, 64, 64
2, 147109, Control_c, 0, 64, 65
2, 147124, Control_c, 0, 64, 66
2, 147140, Control_c, 0, 64, 66
2, 147154, Control_c, 0, 64, 68
2, 147169, Control_c, 0, 64, 69
2, 147177, Note_on_c, 0, 66, 0
2, 147185, Control_c, 0, 64, 72
2, 147199, Control_c, 0, 64, 74
2, 147214, Control_c, 0, 64, 76
2, 147230, Control_c, 0, 64, 77
2, 147310, Note_on_c, 0, 57, 0
2, 147383, Note_on_c, 0, 62, 50
2, 147412, Control_c, 0, 64, 77
2, 147466, Control_c, 0, 64, 76
2, 147495, Control_c, 0, 64, 76
2, 147511, Control_c, 0, 64, 75
2, 147526, Control_c, 0, 64, 74
2, 147542, Control_c, 0, 64, 74
2, 147557, Control_c, 0, 64, 73
2, 147571, Control_c, 0, 64, 73
2, 147587, Control_c, 0, 64, 72
2, 147602, Control_c, 0, 64, 71
2, 147617, Control_c, 0, 64, 70
2, 147633, Control_c, 0, 64, 69
2, 147648, Control_c, 0, 64, 68
2, 147664, Control_c, 0, 64, 68
2, 147696, Note_on_c, 0, 69, 50
2, 147704, Note_on_c, 0, 60, 35
2, 147709, Control_c, 0, 64, 67
2, 147724, Control_c, 0, 64, 67
2, 147740, Control_c, 0, 64, 66
2, 147755, Control_c, 0, 64, 65
2, 147786, Control_c, 0, 64, 65
2, 147813, Note_on_c, 0, 62, 0
2, 147816, Control_c, 0, 64, 64
2, 147832, Control_c, 0, 64, 63
2, 147846, Control_c, 0, 64, 63
2, 147862, Control_c, 0, 64, 62
2, 147877, Control_c, 0, 64, 62
2, 147892, Control_c, 0, 64, 61
2, 147908, Control_c, 0, 64, 61
2, 147922, Control_c, 0, 64, 60
2, 147937, Control_c, 0, 64, 59
2, 147953, Control_c, 0, 64, 59
2, 147967, Control_c, 0, 64, 58
2, 147983, Control_c, 0, 64, 58
2, 147989, Note_on_c, 0, 59, 42
2, 147998, Control_c, 0, 64, 57
2, 148003, Note_on_c, 0, 74, 62
2, 148013, Control_c, 0, 64, 57
2, 148029, Control_c, 0, 64, 56
2, 148043, Control_c, 0, 64, 56
2, 148059, Control_c, 0, 64, 55
2, 148074, Control_c, 0, 64, 54
2, 148089, Control_c, 0, 64, 54
2, 148105, Control_c, 0, 64, 53
2, 148105, Note_on_c, 0, 69, 0
2, 148119, Control_c, 0, 64, 51
2, 148119, Note_on_c, 0, 60, 0
2, 148134, Control_c, 0, 64, 48
2, 148150, Control_c, 0, 64, 45
2, 148165, Control_c, 0, 64, 42
2, 148181, Control_c, 0, 64, 39
2, 148203, Control_c, 0, 64, 34
2, 148219, Control_c, 0, 64, 27
2, 148234, Control_c, 0, 64, 0
2, 148312, Note_on_c, 0, 62, 43
2, 148312, Note_on_c, 0, 72, 70
2, 148433, Note_on_c, 0, 59, 0
2, 148434, Note_on_c, 0, 74, 0
2, 148599, Note_on_c, 0, 71, 71
2, 148610, Note_on_c, 0, 67, 49
2, 148667, Note_on_c, 0, 62, 0
2, 148691, Note_on_c, 0, 72, 0
2, 148901, Note_on_c, 0, 66, 48
2, 148907, Note_on_c, 0, 74, 80
2, 148934, Note_on_c, 0, 67, 0
2, 148980, Note_on_c, 0, 71, 0
2, 149001, Control_c, 0, 64, 56
2, 149016, Control_c, 0, 64, 64
2, 149031, Control_c, 0, 64, 67
2, 149046, Control_c, 0, 64, 70
2, 149062, Control_c, 0, 64, 73
2, 149077, Control_c, 0, 64, 74
2, 149107, Control_c, 0, 64, 74
2, 149153, Control_c, 0, 64, 75
2, 149183, Control_c, 0, 64, 74
2, 149184, Note_on_c, 0, 66, 0
2, 149190, Note_on_c, 0, 64, 61
2, 149198, Control_c, 0, 64, 70
2, 149213, Control_c, 0, 64, 64
2, 149220, Note_on_c, 0, 79, 81
2, 149229, Control_c, 0, 64, 57
2, 149244, Control_c, 0, 64, 56
2, 149275, Control_c, 0, 64, 57
2, 149289, Control_c, 0, 64, 61
2, 149304, Control_c, 0, 64, 65
2, 149319, Control_c, 0, 64, 69
2, 149332, Note_on_c, 0, 74, 0
2, 149334, Control_c, 0, 64, 74
2, 149350, Control_c, 0, 64, 79
2, 149365, Control_c, 0, 64, 81
2, 149382, Control_c, 0, 64, 82
2, 149397, Control_c, 0, 64, 82
2, 149400, Note_on_c, 0, 64, 0
2, 149411, Control_c, 0, 64, 83
2, 149501, Note_on_c, 0, 62, 57
2, 149503, Control_c, 0, 64, 82
2, 149503, Note_on_c, 0, 52, 54
2, 149548, Control_c, 0, 64, 82
2, 149579, Control_c, 0, 64, 81
2, 149594, Control_c, 0, 64, 81
2, 149608, Control_c, 0, 64, 80
2, 149624, Control_c, 0, 64, 80
2, 149639, Control_c, 0, 64, 79
2, 149669, Control_c, 0, 64, 79
2, 149684, Control_c, 0, 64, 78
2, 149700, Control_c, 0, 64, 77
2, 149715, Control_c, 0, 64, 77
2, 149737, Control_c, 0, 64, 76
2, 149753, Control_c, 0, 64, 75
2, 149768, Control_c, 0, 64, 74
2, 149784, Control_c, 0, 64, 73
2, 149799, Control_c, 0, 64, 73
2, 149813, Control_c, 0, 64, 72
2, 149822, Note_on_c, 0, 78, 80
2, 149829, Control_c, 0, 64, 71
2, 149831, Note_on_c, 0, 61, 46
2, 149837, Note_on_c, 0, 57, 39
2, 149844, Control_c, 0, 64, 69
2, 149860, Control_c, 0, 64, 65
2, 149874, Control_c, 0, 64, 58
2, 149889, Control_c, 0, 64, 49
2, 149905, Control_c, 0, 64, 44
2, 149919, Note_on_c, 0, 62, 0
2, 149920, Control_c, 0, 64, 38
2, 149935, Control_c, 0, 64, 34
2, 149941, Note_on_c, 0, 52, 0
2, 149948, Note_on_c, 0, 79, 0
2, 149951, Control_c, 0, 64, 33
2, 149981, Control_c, 0, 64, 34
2, 149996, Control_c, 0, 64, 39
2, 150011, Control_c, 0, 64, 43
2, 150027, Control_c, 0, 64, 45
2, 150042, Control_c, 0, 64, 45
2, 150057, Control_c, 0, 64, 46
2, 150073, Control_c, 0, 64, 46
2, 150129, Note_on_c, 0, 76, 78
2, 150133, Note_on_c, 0, 55, 48
2, 150164, Control_c, 0, 64, 45
2, 150180, Control_c, 0, 64, 43
2, 150195, Control_c, 0, 64, 37
2, 150198, Note_on_c, 0, 57, 0
2, 150204, Note_on_c, 0, 78, 0
2, 150210, Control_c, 0, 64, 15
2, 150226, Control_c, 0, 64, 0
2, 150272, Control_c, 0, 64, 36
2, 150286, Control_c, 0, 64, 63
2, 150302, Control_c, 0, 64, 71
2, 150317, Control_c, 0, 64, 80
2, 150332, Control_c, 0, 64, 86
2, 150393, Control_c, 0, 64, 85
2, 150424, Control_c, 0, 64, 85
2, 150439, Control_c, 0, 64, 84
2, 150449, Note_on_c, 0, 62, 38
2, 150459, Note_on_c, 0, 54, 39
2, 150468, Note_on_c, 0, 81, 81
2, 150507, Control_c, 0, 64, 83
2, 150522, Control_c, 0, 64, 79
2, 150537, Control_c, 0, 64, 67
2, 150552, Note_on_c, 0, 55, 0
2, 150553, Control_c, 0, 64, 31
2, 150568, Control_c, 0, 64, 0
2, 150580, Note_on_c, 0, 61, 0
2, 150601, Note_on_c, 0, 76, 0
2, 150613, Control_c, 0, 64, 47
2, 150629, Control_c, 0, 64, 63
2, 150643, Control_c, 0, 64, 71
2, 150652, Note_on_c, 0, 62, 0
2, 150659, Control_c, 0, 64, 83
2, 150674, Control_c, 0, 64, 89
2, 150689, Control_c, 0, 64, 88
2, 150705, Control_c, 0, 64, 84
2, 150719, Control_c, 0, 64, 79
2, 150734, Control_c, 0, 64, 78
2, 150750, Control_c, 0, 64, 79
2, 150765, Control_c, 0, 64, 80
2, 150781, Control_c, 0, 64, 81
2, 150802, Note_on_c, 0, 79, 87
2, 150803, Note_on_c, 0, 64, 49
2, 150814, Note_on_c, 0, 57, 49
2, 150826, Control_c, 0, 64, 81
2, 150840, Control_c, 0, 64, 82
2, 150846, Note_on_c, 0, 81, 0
2, 150855, Control_c, 0, 64, 84
2, 150871, Control_c, 0, 64, 84
2, 150911, Note_on_c, 0, 54, 0
2, 150941, Note_on_c, 0, 79, 0
2, 150993, Control_c, 0, 64, 84
2, 151008, Control_c, 0, 64, 83
2, 151024, Control_c, 0, 64, 81
2, 151039, Control_c, 0, 64, 79
2, 151054, Control_c, 0, 64, 77
2, 151070, Control_c, 0, 64, 75
2, 151085, Control_c, 0, 64, 73
2, 151090, Note_on_c, 0, 62, 45
2, 151095, Note_on_c, 0, 78, 84
2, 151100, Control_c, 0, 64, 71
2, 151115, Control_c, 0, 64, 69
2, 151120, Note_on_c, 0, 66, 48
2, 151130, Control_c, 0, 64, 67
2, 151146, Control_c, 0, 64, 66
2, 151161, Control_c, 0, 64, 64
2, 151176, Control_c, 0, 64, 62
2, 151183, Note_on_c, 0, 57, 0
2, 151192, Control_c, 0, 64, 59
2, 151195, Note_on_c, 0, 64, 0
2, 151207, Control_c, 0, 64, 54
2, 151222, Control_c, 0, 64, 49
2, 151237, Control_c, 0, 64, 43
2, 151252, Control_c, 0, 64, 38
2, 151274, Control_c, 0, 64, 34
2, 151289, Control_c, 0, 64, 30
2, 151305, Control_c, 0, 64, 27
2, 151320, Control_c, 0, 64, 26
2, 151351, Control_c, 0, 64, 25
2, 151366, Control_c, 0, 64, 21
2, 151382, Control_c, 0, 64, 0
2, 151399, Note_on_c, 0, 76, 69
2, 151401, Note_on_c, 0, 61, 45
2, 151457, Control_c, 0, 64, 31
2, 151465, Note_on_c, 0, 62, 0
2, 151473, Control_c, 0, 64, 51
2, 151477, Note_on_c, 0, 78, 0
2, 151487, Control_c, 0, 64, 59
2, 151503, Control_c, 0, 64, 61
2, 151518, Control_c, 0, 64, 62
2, 151533, Control_c, 0, 64, 63
2, 151549, Control_c, 0, 64, 65
2, 151563, Control_c, 0, 64, 66
2, 151579, Control_c, 0, 64, 68
2, 151594, Control_c, 0, 64, 69
2, 151609, Control_c, 0, 64, 70
2, 151625, Control_c, 0, 64, 71
2, 151626, Note_on_c, 0, 61, 0
2, 151639, Control_c, 0, 64, 71
2, 151654, Control_c, 0, 64, 70
2, 151670, Control_c, 0, 64, 67
2, 151684, Control_c, 0, 64, 65
2, 151700, Control_c, 0, 64, 64
2, 151701, Note_on_c, 0, 74, 67
2, 151706, Note_on_c, 0, 59, 40
2, 151730, Control_c, 0, 64, 65
2, 151746, Control_c, 0, 64, 65
2, 151760, Control_c, 0, 64, 66
2, 151767, Note_on_c, 0, 76, 0
2, 151775, Control_c, 0, 64, 67
2, 151791, Control_c, 0, 64, 68
2, 151806, Control_c, 0, 64, 69
2, 151822, Control_c, 0, 64, 70
2, 152007, Control_c, 0, 64, 70
2, 152008, Note_on_c, 0, 47, 52
2, 152061, Control_c, 0, 64, 69
2, 152075, Control_c, 0, 64, 69
2, 152106, Control_c, 0, 64, 68
2, 152116, Note_on_c, 0, 66, 0
2, 152120, Control_c, 0, 64, 67
2, 152136, Control_c, 0, 64, 66
2, 152151, Control_c, 0, 64, 66
2, 152166, Control_c, 0, 64, 65
2, 152182, Control_c, 0, 64, 65
2, 152197, Control_c, 0, 64, 64
2, 152211, Control_c, 0, 64, 63
2, 152221, Note_on_c, 0, 59, 0
2, 152227, Control_c, 0, 64, 62
2, 152258, Control_c, 0, 64, 62
2, 152312, Note_on_c, 0, 73, 63
2, 152318, Note_on_c, 0, 52, 44
2, 152320, Note_on_c, 0, 68, 51
2, 152364, Control_c, 0, 64, 60
2, 152380, Control_c, 0, 64, 55
2, 152395, Control_c, 0, 64, 47
2, 152409, Control_c, 0, 64, 40
2, 152420, Note_on_c, 0, 47, 0
2, 152425, Control_c, 0, 64, 38
2, 152432, Note_on_c, 0, 74, 0
2, 152440, Control_c, 0, 64, 38
2, 152606, Control_c, 0, 64, 37
2, 152613, Note_on_c, 0, 71, 66
2, 152622, Control_c, 0, 64, 36
2, 152634, Note_on_c, 0, 50, 31
2, 152637, Control_c, 0, 64, 31
2, 152654, Control_c, 0, 64, 22
2, 152669, Control_c, 0, 64, 18
2, 152688, Note_on_c, 0, 73, 0
2, 152700, Control_c, 0, 64, 23
2, 152713, Note_on_c, 0, 52, 0
2, 152714, Control_c, 0, 64, 41
2, 152729, Control_c, 0, 64, 56
2, 152745, Control_c, 0, 64, 64
2, 152759, Control_c, 0, 64, 69
2, 152775, Control_c, 0, 64, 75
2, 152790, Control_c, 0, 64, 80
2, 152814, Control_c, 0, 64, 85
2, 152829, Control_c, 0, 64, 88
2, 152843, Control_c, 0, 64, 89
2, 152883, Note_on_c, 0, 68, 0
2, 152889, Control_c, 0, 64, 89
2, 152905, Control_c, 0, 64, 88
2, 152919, Control_c, 0, 64, 87
2, 152958, Note_on_c, 0, 49, 43
2, 152989, Note_on_c, 0, 76, 60
2, 152995, Control_c, 0, 64, 86
2, 153001, Note_on_c, 0, 50, 0
2, 153010, Control_c, 0, 64, 79
2, 153026, Control_c, 0, 64, 67
2, 153040, Control_c, 0, 64, 54
2, 153056, Control_c, 0, 64, 46
2, 153071, Control_c, 0, 64, 52
2, 153086, Control_c, 0, 64, 60
2, 153102, Control_c, 0, 64, 65
2, 153117, Control_c, 0, 64, 70
2, 153120, Note_on_c, 0, 71, 0
2, 153131, Control_c, 0, 64, 75
2, 153147, Control_c, 0, 64, 79
2, 153162, Control_c, 0, 64, 82
2, 153177, Control_c, 0, 64, 82
2, 153192, Control_c, 0, 64, 82
2, 153207, Control_c, 0, 64, 81
2, 153253, Control_c, 0, 64, 82
2, 153268, Control_c, 0, 64, 83
2, 153298, Control_c, 0, 64, 83
2, 153313, Control_c, 0, 64, 80
2, 153328, Control_c, 0, 64, 72
2, 153329, Note_on_c, 0, 74, 64
2, 153344, Control_c, 0, 64, 62
2, 153352, Note_on_c, 0, 52, 44
2, 153359, Control_c, 0, 64, 47
2, 153361, Note_on_c, 0, 76, 0
2, 153362, Note_on_c, 0, 59, 36
2, 153389, Control_c, 0, 64, 56
2, 153404, Control_c, 0, 64, 62
2, 153420, Control_c, 0, 64, 66
2, 153424, Note_on_c, 0, 49, 0
2, 153435, Control_c, 0, 64, 71
2, 153450, Control_c, 0, 64, 76
2, 153460, Note_on_c, 0, 59, 0
2, 153466, Control_c, 0, 64, 79
2, 153481, Control_c, 0, 64, 82
2, 153512, Control_c, 0, 64, 81
2, 153526, Control_c, 0, 64, 80
2, 153542, Control_c, 0, 64, 79
2, 153557, Control_c, 0, 64, 77
2, 153581, Control_c, 0, 64, 75
2, 153596, Control_c, 0, 64, 73
2, 153610, Control_c, 0, 64, 72
2, 153626, Control_c, 0, 64, 71
2, 153641, Control_c, 0, 64, 71
2, 153651, Note_on_c, 0, 73, 61
2, 153656, Note_on_c, 0, 57, 37
2, 153657, Control_c, 0, 64, 70
2, 153657, Note_on_c, 0, 61, 42
2, 153667, Note_on_c, 0, 69, 47
2, 153672, Control_c, 0, 64, 67
2, 153686, Control_c, 0, 64, 64
2, 153688, Note_on_c, 0, 74, 0
2, 153702, Control_c, 0, 64, 59
2, 153717, Control_c, 0, 64, 55
2, 153733, Control_c, 0, 64, 51
2, 153745, Note_on_c, 0, 52, 0
2, 153747, Control_c, 0, 64, 47
2, 153762, Control_c, 0, 64, 45
2, 153799, Note_on_c, 0, 73, 0
2, 153807, Control_c, 0, 64, 46
2, 153817, Note_on_c, 0, 73, 38
2, 153823, Control_c, 0, 64, 48
2, 153838, Control_c, 0, 64, 48
2, 153854, Control_c, 0, 64, 49
2, 153957, Note_on_c, 0, 56, 42
2, 153958, Note_on_c, 0, 71, 60
2, 153978, Note_on_c, 0, 64, 48
2, 153986, Note_on_c, 0, 69, 0
2, 153991, Control_c, 0, 64, 49
2, 154027, Note_on_c, 0, 57, 0
2, 154056, Note_on_c, 0, 73, 0
2, 154068, Control_c, 0, 64, 49
2, 154098, Control_c, 0, 64, 48
2, 154113, Control_c, 0, 64, 48
2, 154204, Control_c, 0, 64, 47
2, 154219, Control_c, 0, 64, 47
2, 154234, Control_c, 0, 64, 46
2, 154240, Note_on_c, 0, 69, 50
2, 154258, Note_on_c, 0, 54, 42
2, 154265, Control_c, 0, 64, 45
2, 154280, Control_c, 0, 64, 45
2, 154303, Note_on_c, 0, 56, 0
2, 154327, Note_on_c, 0, 64, 0
2, 154337, Note_on_c, 0, 71, 0
2, 154338, Note_on_c, 0, 61, 0
2, 154517, Control_c, 0, 64, 45
2, 154531, Control_c, 0, 64, 46
2, 154537, Note_on_c, 0, 69, 0
2, 154547, Control_c, 0, 64, 49
2, 154556, Note_on_c, 0, 73, 52
2, 154557, Note_on_c, 0, 68, 50
2, 154560, Note_on_c, 0, 57, 13
2, 154562, Control_c, 0, 64, 52
2, 154563, Note_on_c, 0, 52, 45
2, 154571, Note_on_c, 0, 54, 0
2, 154577, Control_c, 0, 64, 55
2, 154592, Control_c, 0, 64, 58
2, 154607, Control_c, 0, 64, 61
2, 154623, Control_c, 0, 64, 63
2, 154638, Control_c, 0, 64, 64
2, 154653, Control_c, 0, 64, 66
2, 154668, Control_c, 0, 64, 66
2, 154714, Control_c, 0, 64, 66
2, 154727, Note_on_c, 0, 73, 0
2, 154729, Control_c, 0, 64, 65
2, 154759, Control_c, 0, 64, 65
2, 154775, Control_c, 0, 64, 64
2, 154804, Control_c, 0, 64, 64
2, 154820, Control_c, 0, 64, 63
2, 154835, Control_c, 0, 64, 63
2, 154850, Control_c, 0, 64, 62
2, 154857, Note_on_c, 0, 62, 42
2, 154866, Control_c, 0, 64, 62
2, 154876, Note_on_c, 0, 50, 37
2, 154881, Control_c, 0, 64, 61
2, 154883, Note_on_c, 0, 71, 51
2, 154897, Control_c, 0, 64, 60
2, 154903, Note_on_c, 0, 66, 42
2, 154912, Control_c, 0, 64, 59
2, 154917, Note_on_c, 0, 57, 0
2, 154926, Control_c, 0, 64, 58
2, 154929, Note_on_c, 0, 52, 0
2, 154942, Control_c, 0, 64, 57
2, 154957, Control_c, 0, 64, 55
2, 154973, Control_c, 0, 64, 53
2, 154982, Note_on_c, 0, 68, 0
2, 154987, Control_c, 0, 64, 51
2, 155002, Control_c, 0, 64, 49
2, 155018, Control_c, 0, 64, 46
2, 155033, Control_c, 0, 64, 43
2, 155048, Control_c, 0, 64, 39
2, 155063, Control_c, 0, 64, 31
2, 155078, Control_c, 0, 64, 25
2, 155094, Control_c, 0, 64, 19
2, 155117, Control_c, 0, 64, 12
2, 155133, Control_c, 0, 64, 8
2, 155148, Control_c, 0, 64, 0
2, 155171, Note_on_c, 0, 69, 56
2, 155181, Note_on_c, 0, 61, 52
2, 155237, Note_on_c, 0, 62, 0
2, 155239, Note_on_c, 0, 71, 0
2, 155254, Control_c, 0, 64, 13
2, 155269, Control_c, 0, 64, 29
2, 155284, Control_c, 0, 64, 34
2, 155300, Control_c, 0, 64, 35
2, 155315, Control_c, 0, 64, 37
2, 155406, Control_c, 0, 64, 39
2, 155421, Control_c, 0, 64, 45
2, 155436, Control_c, 0, 64, 51
2, 155451, Control_c, 0, 64, 54
2, 155467, Control_c, 0, 64, 58
2, 155473, Note_on_c, 0, 59, 54
2, 155473, Note_on_c, 0, 68, 56
2, 155475, Note_on_c, 0, 64, 51
2, 155482, Control_c, 0, 64, 62
2, 155497, Control_c, 0, 64, 63
2, 155507, Note_on_c, 0, 69, 0
2, 155512, Control_c, 0, 64, 65
2, 155527, Control_c, 0, 64, 67
2, 155541, Note_on_c, 0, 61, 0
2, 155543, Control_c, 0, 64, 68
2, 155557, Control_c, 0, 64, 69
2, 155564, Note_on_c, 0, 50, 0
2, 155573, Control_c, 0, 64, 69
2, 155615, Note_on_c, 0, 66, 0
2, 155648, Control_c, 0, 64, 69
2, 155665, Note_on_c, 0, 64, 0
2, 155767, Note_on_c, 0, 49, 45
2, 155770, Control_c, 0, 64, 68
2, 155789, Note_on_c, 0, 64, 65
2, 155801, Control_c, 0, 64, 68
2, 155817, Control_c, 0, 64, 66
2, 155831, Control_c, 0, 64, 64
2, 155843, Note_on_c, 0, 59, 0
2, 155846, Control_c, 0, 64, 62
2, 155862, Control_c, 0, 64, 59
2, 155884, Control_c, 0, 64, 57
2, 155900, Control_c, 0, 64, 55
2, 155914, Control_c, 0, 64, 53
2, 155929, Control_c, 0, 64, 52
2, 155946, Control_c, 0, 64, 50
2, 155961, Control_c, 0, 64, 49
2, 155977, Control_c, 0, 64, 47
2, 155991, Control_c, 0, 64, 45
2, 156006, Control_c, 0, 64, 42
2, 156022, Control_c, 0, 64, 39
2, 156037, Control_c, 0, 64, 38
2, 156053, Control_c, 0, 64, 35
2, 156067, Control_c, 0, 64, 32
2, 156082, Control_c, 0, 64, 26
2, 156088, Note_on_c, 0, 57, 38
2, 156091, Note_on_c, 0, 54, 41
2, 156098, Control_c, 0, 64, 19
2, 156110, Note_on_c, 0, 69, 59
2, 156113, Control_c, 0, 64, 0
2, 156116, Note_on_c, 0, 62, 46
2, 156183, Note_on_c, 0, 49, 0
2, 156187, Note_on_c, 0, 64, 0
2, 156229, Note_on_c, 0, 68, 0
2, 156407, Note_on_c, 0, 56, 39
2, 156409, Note_on_c, 0, 61, 56
2, 156410, Note_on_c, 0, 52, 42
2, 156464, Note_on_c, 0, 54, 0
2, 156495, Note_on_c, 0, 62, 0
2, 156568, Note_on_c, 0, 57, 0
2, 156724, Note_on_c, 0, 59, 50
2, 156728, Note_on_c, 0, 54, 31
2, 156736, Note_on_c, 0, 50, 35
2, 156821, Note_on_c, 0, 61, 0
2, 156900, Note_on_c, 0, 52, 0
2, 156915, Note_on_c, 0, 56, 0
2, 157033, Note_on_c, 0, 61, 59
2, 157082, Note_on_c, 0, 59, 0
2, 157323, Note_on_c, 0, 52, 27
2, 157325, Note_on_c, 0, 62, 44
2, 157400, Note_on_c, 0, 61, 0
2, 157462, Note_on_c, 0, 54, 0
2, 157477, Note_on_c, 0, 50, 0
2, 157639, Note_on_c, 0, 68, 52
2, 157712, Note_on_c, 0, 69, 0
2, 157755, Control_c, 0, 64, 39
2, 157770, Control_c, 0, 64, 54
2, 157786, Control_c, 0, 64, 59
2, 157801, Control_c, 0, 64, 62
2, 157817, Control_c, 0, 64, 64
2, 157831, Control_c, 0, 64, 66
2, 157846, Control_c, 0, 64, 67
2, 157862, Control_c, 0, 64, 68
2, 157953, Control_c, 0, 64, 68
2, 157976, Note_on_c, 0, 45, 39
2, 157984, Control_c, 0, 64, 67
2, 157999, Control_c, 0, 64, 67
2, 158013, Note_on_c, 0, 69, 45
2, 158029, Control_c, 0, 64, 66
2, 158044, Control_c, 0, 64, 66
2, 158060, Control_c, 0, 64, 65
2, 158075, Control_c, 0, 64, 64
2, 158076, Note_on_c, 0, 68, 0
2, 158089, Control_c, 0, 64, 64
2, 158105, Control_c, 0, 64, 63
2, 158120, Control_c, 0, 64, 63
2, 158136, Control_c, 0, 64, 62
2, 158151, Control_c, 0, 64, 61
2, 158155, Note_on_c, 0, 52, 0
2, 158165, Control_c, 0, 64, 60
2, 158189, Control_c, 0, 64, 58
2, 158204, Control_c, 0, 64, 56
2, 158219, Control_c, 0, 64, 54
2, 158234, Control_c, 0, 64, 52
2, 158249, Control_c, 0, 64, 50
2, 158265, Control_c, 0, 64, 48
2, 158280, Control_c, 0, 64, 46
2, 158295, Control_c, 0, 64, 43
2, 158310, Control_c, 0, 64, 40
2, 158325, Control_c, 0, 64, 37
2, 158341, Control_c, 0, 64, 32
2, 158350, Note_on_c, 0, 61, 50
2, 158356, Control_c, 0, 64, 25
2, 158370, Control_c, 0, 64, 12
2, 158386, Control_c, 0, 64, 0
2, 158462, Note_on_c, 0, 62, 0
2, 158677, Note_on_c, 0, 66, 45
2, 158758, Note_on_c, 0, 61, 0
2, 158766, Control_c, 0, 64, 24
2, 158782, Control_c, 0, 64, 50
2, 158797, Control_c, 0, 64, 59
2, 158813, Control_c, 0, 64, 63
2, 158828, Control_c, 0, 64, 65
2, 158840, Note_on_c, 0, 45, 0
2, 158843, Control_c, 0, 64, 67
2, 158858, Control_c, 0, 64, 68
2, 158873, Control_c, 0, 64, 69
2, 158904, Control_c, 0, 64, 68
2, 158919, Control_c, 0, 64, 67
2, 158934, Control_c, 0, 64, 66
2, 158956, Control_c, 0, 64, 66
2, 158987, Control_c, 0, 64, 65
2, 159000, Note_on_c, 0, 42, 38
2, 159002, Control_c, 0, 64, 64
2, 159010, Note_on_c, 0, 64, 48
2, 159018, Control_c, 0, 64, 63
2, 159033, Control_c, 0, 64, 59
2, 159048, Control_c, 0, 64, 50
2, 159063, Control_c, 0, 64, 33
2, 159078, Control_c, 0, 64, 0
2, 159091, Note_on_c, 0, 66, 0
2, 159139, Control_c, 0, 64, 12
2, 159154, Control_c, 0, 64, 53
2, 159169, Control_c, 0, 64, 63
2, 159185, Control_c, 0, 64, 66
2, 159200, Control_c, 0, 64, 68
2, 159217, Control_c, 0, 64, 70
2, 159246, Control_c, 0, 64, 69
2, 159262, Control_c, 0, 64, 68
2, 159277, Control_c, 0, 64, 67
2, 159291, Control_c, 0, 64, 67
2, 159335, Note_on_c, 0, 47, 46
2, 159338, Control_c, 0, 64, 66
2, 159353, Control_c, 0, 64, 65
2, 159367, Control_c, 0, 64, 58
2, 159382, Note_on_c, 0, 63, 46
2, 159383, Control_c, 0, 64, 42
2, 159389, Note_on_c, 0, 42, 0
2, 159398, Control_c, 0, 64, 17
2, 159414, Control_c, 0, 64, 0
2, 159433, Note_on_c, 0, 64, 0
2, 159474, Control_c, 0, 64, 38
2, 159489, Control_c, 0, 64, 57
2, 159501, Note_on_c, 0, 69, 0
2, 159504, Control_c, 0, 64, 64
2, 159519, Control_c, 0, 64, 68
2, 159528, Note_on_c, 0, 47, 0
2, 159535, Control_c, 0, 64, 73
2, 159550, Control_c, 0, 64, 77
2, 159565, Control_c, 0, 64, 81
2, 159580, Control_c, 0, 64, 85
2, 159595, Control_c, 0, 64, 85
2, 159610, Control_c, 0, 64, 85
2, 159626, Control_c, 0, 64, 84
2, 159641, Control_c, 0, 64, 83
2, 159657, Control_c, 0, 64, 81
2, 159672, Control_c, 0, 64, 80
2, 159687, Control_c, 0, 64, 78
2, 159702, Control_c, 0, 64, 76
2, 159724, Control_c, 0, 64, 73
2, 159740, Control_c, 0, 64, 72
2, 159763, Note_on_c, 0, 59, 64
2, 159800, Control_c, 0, 64, 72
2, 159803, Note_on_c, 0, 66, 37
2, 159816, Control_c, 0, 64, 70
2, 159831, Control_c, 0, 64, 66
2, 159846, Control_c, 0, 64, 59
2, 159862, Control_c, 0, 64, 40
2, 159877, Control_c, 0, 64, 0
2, 159953, Control_c, 0, 64, 47
2, 159968, Control_c, 0, 64, 63
2, 159983, Control_c, 0, 64, 67
2, 159998, Control_c, 0, 64, 70
2, 159999, Note_on_c, 0, 59, 0
2, 160014, Control_c, 0, 64, 70
2, 160075, Control_c, 0, 64, 70
2, 160090, Control_c, 0, 64, 69
2, 160122, Note_on_c, 0, 59, 72
2, 160136, Control_c, 0, 64, 68
2, 160139, Note_on_c, 0, 71, 46
2, 160151, Control_c, 0, 64, 64
2, 160166, Control_c, 0, 64, 53
2, 160182, Control_c, 0, 64, 28
2, 160197, Control_c, 0, 64, 0
2, 160267, Note_on_c, 0, 66, 0
2, 160273, Control_c, 0, 64, 39
2, 160287, Control_c, 0, 64, 62
2, 160303, Control_c, 0, 64, 66
2, 160318, Control_c, 0, 64, 70
2, 160329, Note_on_c, 0, 59, 0
2, 160333, Control_c, 0, 64, 72
2, 160379, Control_c, 0, 64, 71
2, 160394, Control_c, 0, 64, 70
2, 160430, Note_on_c, 0, 59, 75
2, 160443, Note_on_c, 0, 69, 49
2, 160455, Control_c, 0, 64, 68
2, 160470, Control_c, 0, 64, 64
2, 160485, Control_c, 0, 64, 50
2, 160510, Control_c, 0, 64, 28
2, 160526, Control_c, 0, 64, 0
2, 160573, Note_on_c, 0, 71, 0
2, 160586, Control_c, 0, 64, 46
2, 160601, Control_c, 0, 64, 55
2, 160617, Control_c, 0, 64, 56
2, 160631, Control_c, 0, 64, 57
2, 160647, Control_c, 0, 64, 57
2, 160677, Control_c, 0, 64, 57
2, 160692, Control_c, 0, 64, 55
2, 160707, Control_c, 0, 64, 54
2, 160738, Control_c, 0, 64, 54
2, 160753, Control_c, 0, 64, 53
2, 160759, Note_on_c, 0, 52, 67
2, 160769, Control_c, 0, 64, 52
2, 160784, Control_c, 0, 64, 51
2, 160797, Note_on_c, 0, 67, 43
2, 160799, Control_c, 0, 64, 50
2, 160814, Control_c, 0, 64, 48
2, 160828, Control_c, 0, 64, 44
2, 160843, Control_c, 0, 64, 35
2, 160860, Control_c, 0, 64, 24
2, 160860, Note_on_c, 0, 69, 0
2, 160863, Note_on_c, 0, 59, 0
2, 160863, Note_on_c, 0, 63, 0
2, 160875, Control_c, 0, 64, 0
2, 161063, Note_on_c, 0, 50, 63
2, 161123, Note_on_c, 0, 59, 52
2, 161163, Control_c, 0, 64, 26
2, 161178, Control_c, 0, 64, 46
2, 161188, Note_on_c, 0, 67, 0
2, 161193, Control_c, 0, 64, 56
2, 161209, Control_c, 0, 64, 61
2, 161218, Note_on_c, 0, 67, 15
2, 161220, Note_on_c, 0, 50, 0
2, 161224, Control_c, 0, 64, 64
2, 161239, Control_c, 0, 64, 67
2, 161262, Control_c, 0, 64, 71
2, 161277, Control_c, 0, 64, 73
2, 161293, Control_c, 0, 64, 74
2, 161322, Control_c, 0, 64, 74
2, 161338, Control_c, 0, 64, 73
2, 161353, Control_c, 0, 64, 71
2, 161369, Control_c, 0, 64, 69
2, 161384, Control_c, 0, 64, 68
2, 161394, Note_on_c, 0, 55, 74
2, 161398, Control_c, 0, 64, 66
2, 161411, Note_on_c, 0, 49, 57
2, 161414, Control_c, 0, 64, 65
2, 161429, Control_c, 0, 64, 63
2, 161439, Note_on_c, 0, 59, 0
2, 161444, Control_c, 0, 64, 61
2, 161446, Note_on_c, 0, 64, 47
2, 161460, Control_c, 0, 64, 59
2, 161475, Control_c, 0, 64, 55
2, 161490, Control_c, 0, 64, 50
2, 161496, Note_on_c, 0, 52, 0
2, 161505, Control_c, 0, 64, 43
2, 161520, Control_c, 0, 64, 30
2, 161536, Control_c, 0, 64, 0
2, 161697, Note_on_c, 0, 47, 44
2, 161698, Note_on_c, 0, 62, 55
2, 161737, Note_on_c, 0, 49, 0
2, 161808, Note_on_c, 0, 64, 0
2, 161821, Note_on_c, 0, 67, 0
2, 162006, Note_on_c, 0, 46, 42
2, 162044, Note_on_c, 0, 61, 57
2, 162069, Note_on_c, 0, 47, 0
2, 162121, Control_c, 0, 64, 35
2, 162123, Note_on_c, 0, 62, 0
2, 162137, Control_c, 0, 64, 55
2, 162152, Control_c, 0, 64, 62
2, 162167, Control_c, 0, 64, 67
2, 162182, Control_c, 0, 64, 71
2, 162197, Control_c, 0, 64, 76
2, 162210, Note_on_c, 0, 61, 0
2, 162213, Control_c, 0, 64, 81
2, 162228, Control_c, 0, 64, 84
2, 162242, Control_c, 0, 64, 85
2, 162258, Control_c, 0, 64, 85
2, 162273, Control_c, 0, 64, 84
2, 162288, Control_c, 0, 64, 83
2, 162303, Control_c, 0, 64, 82
2, 162318, Control_c, 0, 64, 80
2, 162334, Control_c, 0, 64, 77
2, 162349, Control_c, 0, 64, 74
2, 162364, Control_c, 0, 64, 72
2, 162374, Note_on_c, 0, 49, 49
2, 162380, Control_c, 0, 64, 72
2, 162395, Control_c, 0, 64, 71
2, 162411, Control_c, 0, 64, 70
2, 162426, Control_c, 0, 64, 69
2, 162429, Note_on_c, 0, 78, 69
2, 162440, Control_c, 0, 64, 66
2, 162456, Control_c, 0, 64, 62
2, 162471, Control_c, 0, 64, 47
2, 162487, Control_c, 0, 64, 0
2, 162542, Note_on_c, 0, 55, 0
2, 162579, Control_c, 0, 64, 49
2, 162593, Control_c, 0, 64, 60
2, 162609, Control_c, 0, 64, 63
2, 162624, Control_c, 0, 64, 63
2, 162634, Note_on_c, 0, 78, 0
2, 162639, Control_c, 0, 64, 64
2, 162655, Control_c, 0, 64, 66
2, 162669, Control_c, 0, 64, 67
2, 162684, Control_c, 0, 64, 68
2, 162700, Control_c, 0, 64, 65
2, 162715, Control_c, 0, 64, 57
2, 162716, Note_on_c, 0, 54, 62
2, 162731, Control_c, 0, 64, 0
2, 162739, Note_on_c, 0, 78, 74
2, 162829, Control_c, 0, 64, 19
2, 162844, Control_c, 0, 64, 59
2, 162860, Control_c, 0, 64, 65
2, 162874, Control_c, 0, 64, 69
2, 162875, Note_on_c, 0, 46, 0
2, 162875, Note_on_c, 0, 49, 0
2, 162890, Control_c, 0, 64, 72
2, 162905, Control_c, 0, 64, 74
2, 162920, Control_c, 0, 64, 74
2, 162924, Note_on_c, 0, 78, 0
2, 162950, Control_c, 0, 64, 74
2, 162966, Control_c, 0, 64, 73
2, 162981, Control_c, 0, 64, 72
2, 162996, Control_c, 0, 64, 72
2, 163031, Note_on_c, 0, 52, 64
2, 163037, Note_on_c, 0, 46, 48
2, 163037, Note_on_c, 0, 78, 70
2, 163041, Control_c, 0, 64, 71
2, 163057, Control_c, 0, 64, 70
2, 163072, Control_c, 0, 64, 67
2, 163087, Control_c, 0, 64, 64
2, 163102, Control_c, 0, 64, 54
2, 163117, Control_c, 0, 64, 26
2, 163132, Control_c, 0, 64, 0
2, 163157, Note_on_c, 0, 54, 0
2, 163193, Control_c, 0, 64, 55
2, 163209, Control_c, 0, 64, 64
2, 163224, Control_c, 0, 64, 68
2, 163239, Control_c, 0, 64, 72
2, 163239, Note_on_c, 0, 46, 0
2, 163254, Control_c, 0, 64, 75
2, 163300, Control_c, 0, 64, 73
2, 163315, Control_c, 0, 64, 72
2, 163331, Control_c, 0, 64, 71
2, 163346, Control_c, 0, 64, 71
2, 163361, Control_c, 0, 64, 69
2, 163371, Note_on_c, 0, 51, 75
2, 163377, Control_c, 0, 64, 67
2, 163392, Control_c, 0, 64, 65
2, 163394, Note_on_c, 0, 45, 46
2, 163408, Control_c, 0, 64, 65
2, 163419, Note_on_c, 0, 71, 65
2, 163422, Control_c, 0, 64, 64
2, 163437, Control_c, 0, 64, 64
2, 163453, Control_c, 0, 64, 62
2, 163468, Control_c, 0, 64, 60
2, 163483, Control_c, 0, 64, 55
2, 163499, Control_c, 0, 64, 48
2, 163513, Control_c, 0, 64, 29
2, 163529, Control_c, 0, 64, 0
2, 163531, Note_on_c, 0, 52, 0
2, 163536, Note_on_c, 0, 78, 0
2, 163677, Note_on_c, 0, 71, 0
2, 163736, Note_on_c, 0, 53, 55
2, 163752, Note_on_c, 0, 71, 61
2, 163794, Control_c, 0, 64, 22
2, 163810, Control_c, 0, 64, 39
2, 163825, Control_c, 0, 64, 47
2, 163840, Control_c, 0, 64, 52
2, 163855, Control_c, 0, 64, 54
2, 163870, Control_c, 0, 64, 55
2, 163871, Note_on_c, 0, 53, 0
2, 163872, Note_on_c, 0, 51, 0
2, 163873, Note_on_c, 0, 54, 65
2, 163886, Control_c, 0, 64, 56
2, 163916, Control_c, 0, 64, 55
2, 163931, Control_c, 0, 64, 54
2, 163934, Note_on_c, 0, 71, 0
2, 163946, Control_c, 0, 64, 54
2, 163961, Control_c, 0, 64, 53
2, 163976, Control_c, 0, 64, 53
2, 163991, Control_c, 0, 64, 51
2, 164007, Control_c, 0, 64, 45
2, 164022, Control_c, 0, 64, 28
2, 164025, Note_on_c, 0, 53, 53
2, 164028, Note_on_c, 0, 74, 67
2, 164037, Control_c, 0, 64, 0
2, 164049, Note_on_c, 0, 71, 57
2, 164148, Note_on_c, 0, 45, 0
2, 164153, Note_on_c, 0, 54, 0
2, 164159, Control_c, 0, 64, 53
2, 164175, Control_c, 0, 64, 62
2, 164190, Control_c, 0, 64, 65
2, 164206, Control_c, 0, 64, 67
2, 164216, Note_on_c, 0, 71, 0
2, 164220, Control_c, 0, 64, 67
2, 164323, Note_on_c, 0, 44, 48
2, 164328, Note_on_c, 0, 71, 68
2, 164350, Control_c, 0, 64, 65
2, 164364, Control_c, 0, 64, 58
2, 164380, Control_c, 0, 64, 29
2, 164395, Control_c, 0, 64, 0
2, 164456, Control_c, 0, 64, 26
2, 164456, Note_on_c, 0, 53, 0
2, 164471, Control_c, 0, 64, 54
2, 164487, Control_c, 0, 64, 60
2, 164502, Control_c, 0, 64, 61
2, 164532, Control_c, 0, 64, 61
2, 164578, Control_c, 0, 64, 60
2, 164593, Control_c, 0, 64, 60
2, 164609, Control_c, 0, 64, 59
2, 164623, Control_c, 0, 64, 59
2, 164633, Note_on_c, 0, 49, 39
2, 164638, Control_c, 0, 64, 58
2, 164654, Control_c, 0, 64, 57
2, 164669, Note_on_c, 0, 64, 65
2, 164699, Control_c, 0, 64, 56
2, 164712, Note_on_c, 0, 71, 0
2, 164714, Control_c, 0, 64, 52
2, 164730, Control_c, 0, 64, 37
2, 164730, Note_on_c, 0, 44, 0
2, 164744, Control_c, 0, 64, 0
2, 164835, Control_c, 0, 64, 49
2, 164851, Control_c, 0, 64, 53
2, 164943, Control_c, 0, 64, 52
2, 164980, Note_on_c, 0, 59, 47
2, 165006, Note_on_c, 0, 68, 63
2, 165019, Control_c, 0, 64, 51
2, 165034, Control_c, 0, 64, 44
2, 165049, Control_c, 0, 64, 0
2, 165107, Note_on_c, 0, 74, 0
2, 165133, Control_c, 0, 64, 40
2, 165148, Control_c, 0, 64, 57
2, 165163, Control_c, 0, 64, 62
2, 165163, Note_on_c, 0, 64, 0
2, 165179, Control_c, 0, 64, 63
2, 165194, Control_c, 0, 64, 63
2, 165255, Control_c, 0, 64, 62
2, 165291, Note_on_c, 0, 58, 44
2, 165313, Note_on_c, 0, 67, 63
2, 165331, Control_c, 0, 64, 62
2, 165345, Control_c, 0, 64, 60
2, 165360, Control_c, 0, 64, 54
2, 165360, Note_on_c, 0, 73, 50
2, 165363, Note_on_c, 0, 59, 0
2, 165376, Control_c, 0, 64, 38
2, 165391, Control_c, 0, 64, 0
2, 165449, Note_on_c, 0, 68, 0
2, 165482, Control_c, 0, 64, 54
2, 165498, Control_c, 0, 64, 60
2, 165513, Control_c, 0, 64, 60
2, 165543, Control_c, 0, 64, 61
2, 165603, Control_c, 0, 64, 61
2, 165619, Control_c, 0, 64, 62
2, 165621, Note_on_c, 0, 61, 42
2, 165629, Note_on_c, 0, 52, 47
2, 165631, Note_on_c, 0, 71, 59
2, 165638, Note_on_c, 0, 58, 0
2, 165650, Control_c, 0, 64, 61
2, 165664, Control_c, 0, 64, 55
2, 165676, Note_on_c, 0, 49, 0
2, 165679, Control_c, 0, 64, 36
2, 165695, Control_c, 0, 64, 0
2, 165742, Note_on_c, 0, 73, 0
2, 165755, Control_c, 0, 64, 38
2, 165762, Note_on_c, 0, 61, 0
2, 165772, Control_c, 0, 64, 59
2, 165776, Note_on_c, 0, 52, 0
2, 165787, Control_c, 0, 64, 65
2, 165802, Control_c, 0, 64, 69
2, 165817, Control_c, 0, 64, 73
2, 165832, Control_c, 0, 64, 75
2, 165887, Control_c, 0, 64, 75
2, 165901, Control_c, 0, 64, 73
2, 165916, Control_c, 0, 64, 72
2, 165932, Control_c, 0, 64, 71
2, 165970, Note_on_c, 0, 42, 20
2, 165977, Control_c, 0, 64, 72
2, 165987, Note_on_c, 0, 70, 52
2, 166008, Control_c, 0, 64, 71
2, 166022, Control_c, 0, 64, 66
2, 166037, Control_c, 0, 64, 53
2, 166053, Control_c, 0, 64, 12
2, 166068, Control_c, 0, 64, 0
2, 166098, Control_c, 0, 64, 26
2, 166107, Note_on_c, 0, 71, 0
2, 166113, Control_c, 0, 64, 53
2, 166129, Control_c, 0, 64, 63
2, 166144, Control_c, 0, 64, 70
2, 166153, Note_on_c, 0, 42, 0
2, 166159, Control_c, 0, 64, 77
2, 166175, Control_c, 0, 64, 86
2, 166189, Control_c, 0, 64, 93
2, 166204, Control_c, 0, 64, 99
2, 166220, Control_c, 0, 64, 100
2, 166235, Control_c, 0, 64, 99
2, 166251, Control_c, 0, 64, 97
2, 166266, Control_c, 0, 64, 95
2, 166281, Control_c, 0, 64, 93
2, 166296, Control_c, 0, 64, 92
2, 166311, Control_c, 0, 64, 89
2, 166327, Control_c, 0, 64, 86
2, 166342, Control_c, 0, 64, 85
2, 166373, Control_c, 0, 64, 85
2, 166392, Note_on_c, 0, 61, 52
2, 166392, Note_on_c, 0, 64, 56
2, 166398, Note_on_c, 0, 54, 43
2, 166416, Control_c, 0, 64, 85
2, 166430, Control_c, 0, 64, 83
2, 166445, Control_c, 0, 64, 79
2, 166461, Control_c, 0, 64, 70
2, 166465, Note_on_c, 0, 67, 0
2, 166476, Control_c, 0, 64, 60
2, 166491, Control_c, 0, 64, 45
2, 166506, Control_c, 0, 64, 46
2, 166521, Control_c, 0, 64, 55
2, 166537, Control_c, 0, 64, 62
2, 166552, Control_c, 0, 64, 66
2, 166567, Control_c, 0, 64, 69
2, 166583, Note_on_c, 0, 64, 0
2, 166584, Control_c, 0, 64, 71
2, 166599, Control_c, 0, 64, 70
2, 166614, Control_c, 0, 64, 69
2, 166636, Control_c, 0, 64, 68
2, 166651, Control_c, 0, 64, 67
2, 166667, Control_c, 0, 64, 67
2, 166682, Control_c, 0, 64, 66
2, 166698, Control_c, 0, 64, 64
2, 166713, Control_c, 0, 64, 63
2, 166728, Control_c, 0, 64, 62
2, 166733, Note_on_c, 0, 62, 48
2, 166746, Note_on_c, 0, 66, 51
2, 166747, Note_on_c, 0, 71, 53
2, 166756, Note_on_c, 0, 56, 50
2, 166758, Control_c, 0, 64, 61
2, 166774, Control_c, 0, 64, 58
2, 166789, Control_c, 0, 64, 54
2, 166798, Note_on_c, 0, 70, 0
2, 166804, Control_c, 0, 64, 47
2, 166819, Control_c, 0, 64, 34
2, 166834, Control_c, 0, 64, 0
2, 166849, Note_on_c, 0, 54, 0
2, 166857, Note_on_c, 0, 61, 0
2, 167051, Note_on_c, 0, 58, 46
2, 167056, Note_on_c, 0, 73, 67
2, 167059, Note_on_c, 0, 61, 41
2, 167063, Note_on_c, 0, 64, 56
2, 167112, Note_on_c, 0, 71, 0
2, 167136, Note_on_c, 0, 56, 0
2, 167155, Note_on_c, 0, 62, 0
2, 167184, Control_c, 0, 64, 41
2, 167199, Control_c, 0, 64, 57
2, 167215, Control_c, 0, 64, 62
2, 167229, Control_c, 0, 64, 66
2, 167240, Note_on_c, 0, 64, 0
2, 167244, Control_c, 0, 64, 71
2, 167260, Control_c, 0, 64, 75
2, 167272, Note_on_c, 0, 73, 0
2, 167274, Control_c, 0, 64, 78
2, 167289, Control_c, 0, 64, 79
2, 167305, Control_c, 0, 64, 79
2, 167336, Control_c, 0, 64, 79
2, 167363, Note_on_c, 0, 59, 55
2, 167365, Control_c, 0, 64, 78
2, 167368, Note_on_c, 0, 74, 67
2, 167377, Note_on_c, 0, 62, 52
2, 167380, Note_on_c, 0, 61, 0
2, 167381, Control_c, 0, 64, 77
2, 167404, Control_c, 0, 64, 76
2, 167420, Control_c, 0, 64, 75
2, 167435, Control_c, 0, 64, 74
2, 167450, Control_c, 0, 64, 73
2, 167465, Control_c, 0, 64, 72
2, 167480, Control_c, 0, 64, 70
2, 167493, Note_on_c, 0, 66, 0
2, 167496, Control_c, 0, 64, 69
2, 167506, Note_on_c, 0, 58, 0
2, 167511, Control_c, 0, 64, 67
2, 167526, Control_c, 0, 64, 66
2, 167542, Control_c, 0, 64, 65
2, 167571, Control_c, 0, 64, 65
2, 167587, Control_c, 0, 64, 64
2, 167602, Control_c, 0, 64, 63
2, 167618, Control_c, 0, 64, 62
2, 167678, Control_c, 0, 64, 61
2, 167678, Note_on_c, 0, 66, 64
2, 167684, Note_on_c, 0, 57, 47
2, 167694, Control_c, 0, 64, 61
2, 167708, Control_c, 0, 64, 60
2, 167724, Control_c, 0, 64, 59
2, 167740, Control_c, 0, 64, 59
2, 167755, Control_c, 0, 64, 57
2, 167770, Control_c, 0, 64, 54
2, 167785, Control_c, 0, 64, 50
2, 167800, Control_c, 0, 64, 46
2, 167805, Note_on_c, 0, 62, 0
2, 167816, Control_c, 0, 64, 43
2, 167831, Control_c, 0, 64, 39
2, 167845, Control_c, 0, 64, 33
2, 167861, Control_c, 0, 64, 24
2, 167876, Control_c, 0, 64, 0
2, 167981, Note_on_c, 0, 56, 36
2, 167988, Note_on_c, 0, 71, 58
2, 168084, Note_on_c, 0, 57, 0
2, 168104, Note_on_c, 0, 66, 0
2, 168275, Note_on_c, 0, 54, 40
2, 168289, Note_on_c, 0, 69, 59
2, 168379, Note_on_c, 0, 56, 0
2, 168391, Note_on_c, 0, 71, 0
2, 168589, Note_on_c, 0, 53, 40
2, 168598, Note_on_c, 0, 68, 55
2, 168690, Note_on_c, 0, 54, 0
2, 168738, Note_on_c, 0, 59, 0
2, 168744, Note_on_c, 0, 69, 0
2, 168904, Note_on_c, 0, 56, 50
2, 169221, Note_on_c, 0, 61, 47
2, 169254, Note_on_c, 0, 73, 55
2, 169341, Note_on_c, 0, 56, 0
2, 169355, Note_on_c, 0, 74, 0
2, 169537, Note_on_c, 0, 59, 54
2, 169593, Note_on_c, 0, 61, 0
2, 169639, Control_c, 0, 64, 25
2, 169654, Control_c, 0, 64, 45
2, 169669, Control_c, 0, 64, 51
2, 169684, Control_c, 0, 64, 56
2, 169708, Control_c, 0, 64, 58
2, 169723, Control_c, 0, 64, 59
2, 169738, Control_c, 0, 64, 60
2, 169861, Control_c, 0, 64, 59
2, 169888, Note_on_c, 0, 57, 45
2, 169891, Control_c, 0, 64, 58
2, 169907, Control_c, 0, 64, 57
2, 169921, Control_c, 0, 64, 54
2, 169926, Note_on_c, 0, 53, 0
2, 169937, Control_c, 0, 64, 49
2, 169951, Note_on_c, 0, 59, 0
2, 169952, Control_c, 0, 64, 39
2, 169966, Control_c, 0, 64, 23
2, 169982, Control_c, 0, 64, 0
2, 170028, Control_c, 0, 64, 38
2, 170042, Control_c, 0, 64, 53
2, 170058, Control_c, 0, 64, 60
2, 170073, Control_c, 0, 64, 64
2, 170088, Control_c, 0, 64, 66
2, 170104, Control_c, 0, 64, 67
2, 170134, Control_c, 0, 64, 67
2, 170149, Control_c, 0, 64, 66
2, 170164, Control_c, 0, 64, 65
2, 170226, Control_c, 0, 64, 65
2, 170269, Note_on_c, 0, 54, 47
2, 170286, Control_c, 0, 64, 64
2, 170289, Note_on_c, 0, 61, 39
2, 170301, Control_c, 0, 64, 60
2, 170316, Control_c, 0, 64, 47
2, 170331, Control_c, 0, 64, 10
2, 170347, Control_c, 0, 64, 0
2, 170382, Note_on_c, 0, 68, 0
2, 170407, Control_c, 0, 64, 22
2, 170423, Control_c, 0, 64, 54
2, 170438, Control_c, 0, 64, 61
2, 170453, Control_c, 0, 64, 63
2, 170476, Control_c, 0, 64, 64
2, 170502, Note_on_c, 0, 54, 0
2, 170506, Control_c, 0, 64, 64
2, 170597, Control_c, 0, 64, 64
2, 170613, Control_c, 0, 64, 62
2, 170616, Note_on_c, 0, 54, 63
2, 170628, Control_c, 0, 64, 55
2, 170629, Note_on_c, 0, 66, 47
2, 170643, Control_c, 0, 64, 32
2, 170658, Control_c, 0, 64, 0
2, 170705, Control_c, 0, 64, 31
2, 170720, Control_c, 0, 64, 56
2, 170735, Control_c, 0, 64, 64
2, 170750, Control_c, 0, 64, 69
2, 170765, Control_c, 0, 64, 74
2, 170776, Note_on_c, 0, 54, 0
2, 170781, Control_c, 0, 64, 76
2, 170790, Note_on_c, 0, 61, 0
2, 170797, Control_c, 0, 64, 76
2, 170811, Control_c, 0, 64, 76
2, 170842, Control_c, 0, 64, 75
2, 170911, Note_on_c, 0, 54, 54
2, 170922, Note_on_c, 0, 64, 56
2, 170934, Control_c, 0, 64, 72
2, 170948, Control_c, 0, 64, 66
2, 170963, Control_c, 0, 64, 55
2, 170979, Control_c, 0, 64, 51
2, 170994, Control_c, 0, 64, 54
2, 170996, Note_on_c, 0, 66, 0
2, 171009, Control_c, 0, 64, 60
2, 171024, Control_c, 0, 64, 63
2, 171039, Control_c, 0, 64, 66
2, 171055, Control_c, 0, 64, 67
2, 171085, Control_c, 0, 64, 66
2, 171100, Control_c, 0, 64, 65
2, 171115, Control_c, 0, 64, 64
2, 171130, Control_c, 0, 64, 64
2, 171146, Control_c, 0, 64, 63
2, 171161, Control_c, 0, 64, 61
2, 171177, Control_c, 0, 64, 59
2, 171192, Control_c, 0, 64, 58
2, 171223, Note_on_c, 0, 47, 55
2, 171275, Control_c, 0, 64, 56
2, 171275, Note_on_c, 0, 62, 46
2, 171290, Control_c, 0, 64, 54
2, 171305, Control_c, 0, 64, 49
2, 171320, Control_c, 0, 64, 44
2, 171336, Control_c, 0, 64, 38
2, 171351, Control_c, 0, 64, 37
2, 171362, Note_on_c, 0, 54, 0
2, 171362, Note_on_c, 0, 73, 0
2, 171382, Control_c, 0, 64, 37
2, 171397, Control_c, 0, 64, 40
2, 171408, Note_on_c, 0, 64, 0
2, 171411, Control_c, 0, 64, 40
2, 171427, Control_c, 0, 64, 41
2, 171558, Note_on_c, 0, 71, 55
2, 171565, Control_c, 0, 64, 40
2, 171569, Note_on_c, 0, 54, 52
2, 171610, Control_c, 0, 64, 39
2, 171626, Control_c, 0, 64, 39
2, 171632, Note_on_c, 0, 57, 0
2, 171641, Control_c, 0, 64, 37
2, 171656, Control_c, 0, 64, 35
2, 171671, Control_c, 0, 64, 29
2, 171686, Control_c, 0, 64, 21
2, 171697, Note_on_c, 0, 69, 57
2, 171702, Control_c, 0, 64, 8
2, 171717, Control_c, 0, 64, 0
2, 171737, Note_on_c, 0, 71, 0
2, 171865, Note_on_c, 0, 68, 56
2, 171867, Note_on_c, 0, 59, 52
2, 171874, Note_on_c, 0, 50, 48
2, 171923, Note_on_c, 0, 54, 0
2, 171963, Note_on_c, 0, 62, 0
2, 171977, Note_on_c, 0, 69, 0
2, 172022, Note_on_c, 0, 59, 0
2, 172043, Control_c, 0, 64, 8
2, 172063, Note_on_c, 0, 47, 0
2, 172104, Control_c, 0, 64, 0
2, 172174, Note_on_c, 0, 57, 40
2, 172179, Note_on_c, 0, 66, 51
2, 172198, Note_on_c, 0, 61, 46
2, 172240, Control_c, 0, 64, 44
2, 172241, Note_on_c, 0, 68, 0
2, 172256, Control_c, 0, 64, 58
2, 172271, Control_c, 0, 64, 63
2, 172286, Control_c, 0, 64, 66
2, 172302, Control_c, 0, 64, 70
2, 172317, Control_c, 0, 64, 73
2, 172333, Control_c, 0, 64, 75
2, 172337, Note_on_c, 0, 66, 0
2, 172342, Note_on_c, 0, 61, 0
2, 172363, Control_c, 0, 64, 74
2, 172378, Control_c, 0, 64, 73
2, 172386, Note_on_c, 0, 57, 0
2, 172393, Control_c, 0, 64, 71
2, 172408, Control_c, 0, 64, 69
2, 172423, Control_c, 0, 64, 69
2, 172438, Control_c, 0, 64, 68
2, 172454, Control_c, 0, 64, 66
2, 172469, Control_c, 0, 64, 65
2, 172482, Note_on_c, 0, 56, 44
2, 172484, Control_c, 0, 64, 64
2, 172504, Note_on_c, 0, 65, 51
2, 172514, Control_c, 0, 64, 64
2, 172523, Note_on_c, 0, 59, 42
2, 172529, Control_c, 0, 64, 63
2, 172545, Control_c, 0, 64, 62
2, 172560, Control_c, 0, 64, 61
2, 172564, Note_on_c, 0, 50, 0
2, 172575, Control_c, 0, 64, 61
2, 172590, Control_c, 0, 64, 60
2, 172605, Control_c, 0, 64, 60
2, 172635, Control_c, 0, 64, 59
2, 172650, Control_c, 0, 64, 58
2, 172666, Control_c, 0, 64, 57
2, 172696, Control_c, 0, 64, 57
2, 172780, Control_c, 0, 64, 56
2, 172795, Control_c, 0, 64, 56
2, 172816, Note_on_c, 0, 44, 55
2, 172826, Control_c, 0, 64, 55
2, 172856, Control_c, 0, 64, 54
2, 172871, Control_c, 0, 64, 52
2, 172886, Control_c, 0, 64, 51
2, 172902, Control_c, 0, 64, 50
2, 172916, Control_c, 0, 64, 49
2, 172931, Control_c, 0, 64, 46
2, 172947, Control_c, 0, 64, 41
2, 172962, Control_c, 0, 64, 35
2, 172978, Control_c, 0, 64, 31
2, 172993, Control_c, 0, 64, 30
2, 173008, Control_c, 0, 64, 29
2, 173023, Control_c, 0, 64, 28
2, 173038, Control_c, 0, 64, 27
2, 173054, Control_c, 0, 64, 26
2, 173123, Note_on_c, 0, 49, 59
2, 173237, Note_on_c, 0, 44, 0
2, 173421, Note_on_c, 0, 47, 57
2, 173494, Control_c, 0, 64, 26
2, 173509, Control_c, 0, 64, 25
2, 173511, Note_on_c, 0, 49, 0
2, 173547, Control_c, 0, 64, 25
2, 173562, Control_c, 0, 64, 38
2, 173578, Control_c, 0, 64, 47
2, 173593, Control_c, 0, 64, 51
2, 173607, Control_c, 0, 64, 53
2, 173623, Control_c, 0, 64, 53
2, 173638, Control_c, 0, 64, 54
2, 173654, Control_c, 0, 64, 55
2, 173669, Control_c, 0, 64, 56
2, 173699, Control_c, 0, 64, 56
2, 173714, Control_c, 0, 64, 58
2, 173729, Control_c, 0, 64, 60
2, 173745, Control_c, 0, 64, 61
2, 173760, Control_c, 0, 64, 60
2, 173774, Note_on_c, 0, 45, 52
2, 173776, Control_c, 0, 64, 55
2, 173791, Control_c, 0, 64, 44
2, 173805, Control_c, 0, 64, 31
2, 173821, Control_c, 0, 64, 13
2, 173836, Control_c, 0, 64, 0
2, 173851, Control_c, 0, 64, 15
2, 173867, Control_c, 0, 64, 45
2, 173875, Note_on_c, 0, 47, 0
2, 173881, Control_c, 0, 64, 57
2, 173897, Control_c, 0, 64, 61
2, 173897, Note_on_c, 0, 59, 0
2, 173912, Control_c, 0, 64, 63
2, 173918, Note_on_c, 0, 56, 0
2, 173927, Control_c, 0, 64, 64
2, 173943, Control_c, 0, 64, 66
2, 173959, Control_c, 0, 64, 67
2, 173974, Control_c, 0, 64, 69
2, 174004, Control_c, 0, 64, 69
2, 174020, Control_c, 0, 64, 71
2, 174034, Control_c, 0, 64, 74
2, 174065, Control_c, 0, 64, 70
2, 174080, Control_c, 0, 64, 62
2, 174096, Control_c, 0, 64, 52
2, 174103, Note_on_c, 0, 54, 45
2, 174110, Control_c, 0, 64, 50
2, 174116, Note_on_c, 0, 57, 46
2, 174117, Note_on_c, 0, 61, 48
2, 174125, Control_c, 0, 64, 53
2, 174141, Control_c, 0, 64, 59
2, 174156, Control_c, 0, 64, 63
2, 174161, Note_on_c, 0, 65, 0
2, 174171, Control_c, 0, 64, 66
2, 174171, Note_on_c, 0, 45, 0
2, 174186, Control_c, 0, 64, 69
2, 174201, Control_c, 0, 64, 72
2, 174217, Control_c, 0, 64, 75
2, 174231, Control_c, 0, 64, 77
2, 174246, Note_on_c, 0, 57, 0
2, 174246, Note_on_c, 0, 59, 54
2, 174249, Note_on_c, 0, 56, 52
2, 174262, Control_c, 0, 64, 77
2, 174264, Note_on_c, 0, 61, 0
2, 174277, Control_c, 0, 64, 76
2, 174293, Control_c, 0, 64, 76
2, 174315, Control_c, 0, 64, 75
2, 174327, Note_on_c, 0, 56, 0
2, 174330, Control_c, 0, 64, 75
2, 174346, Control_c, 0, 64, 73
2, 174361, Control_c, 0, 64, 71
2, 174377, Control_c, 0, 64, 70
2, 174387, Note_on_c, 0, 54, 0
2, 174391, Control_c, 0, 64, 69
2, 174411, Note_on_c, 0, 66, 57
2, 174413, Note_on_c, 0, 57, 45
2, 174419, Note_on_c, 0, 61, 47
2, 174451, Control_c, 0, 64, 68
2, 174467, Control_c, 0, 64, 63
2, 174482, Control_c, 0, 64, 47
2, 174498, Control_c, 0, 64, 0
2, 174518, Note_on_c, 0, 59, 0
2, 174574, Control_c, 0, 64, 12
2, 174589, Control_c, 0, 64, 48
2, 174604, Control_c, 0, 64, 56
2, 174619, Control_c, 0, 64, 58
2, 174634, Control_c, 0, 64, 60
2, 174649, Control_c, 0, 64, 61
2, 174665, Control_c, 0, 64, 62
2, 174680, Control_c, 0, 64, 63
2, 174691, Note_on_c, 0, 47, 41
2, 174696, Control_c, 0, 64, 64
2, 174711, Control_c, 0, 64, 63
2, 174711, Note_on_c, 0, 62, 52
2, 174725, Control_c, 0, 64, 58
2, 174741, Control_c, 0, 64, 43
2, 174756, Control_c, 0, 64, 0
2, 174791, Note_on_c, 0, 61, 0
2, 174825, Note_on_c, 0, 57, 0
2, 174833, Control_c, 0, 64, 39
2, 174848, Control_c, 0, 64, 53
2, 174864, Control_c, 0, 64, 59
2, 174878, Control_c, 0, 64, 61
2, 174894, Control_c, 0, 64, 62
2, 174909, Control_c, 0, 64, 63
2, 174924, Control_c, 0, 64, 64
2, 174969, Control_c, 0, 64, 63
2, 175016, Control_c, 0, 64, 63
2, 175030, Control_c, 0, 64, 62
2, 175043, Note_on_c, 0, 49, 43
2, 175043, Note_on_c, 0, 61, 51
2, 175045, Control_c, 0, 64, 61
2, 175061, Control_c, 0, 64, 61
2, 175061, Note_on_c, 0, 56, 30
2, 175083, Control_c, 0, 64, 60
2, 175099, Control_c, 0, 64, 59
2, 175114, Control_c, 0, 64, 58
2, 175129, Control_c, 0, 64, 55
2, 175145, Control_c, 0, 64, 53
2, 175160, Control_c, 0, 64, 50
2, 175175, Control_c, 0, 64, 46
2, 175190, Control_c, 0, 64, 38
2, 175191, Note_on_c, 0, 62, 0
2, 175200, Note_on_c, 0, 47, 0
2, 175205, Control_c, 0, 64, 25
2, 175220, Control_c, 0, 64, 0
2, 175356, Note_on_c, 0, 54, 51
2, 175419, Note_on_c, 0, 56, 0
2, 175695, Note_on_c, 0, 65, 52
2, 175704, Note_on_c, 0, 56, 31
2, 175824, Note_on_c, 0, 54, 0
2, 175834, Note_on_c, 0, 66, 0
2, 176056, Note_on_c, 0, 59, 46
2, 176140, Control_c, 0, 64, 34
2, 176155, Control_c, 0, 64, 46
2, 176155, Control_c, 0, 67, 9
2, 176162, Note_on_c, 0, 49, 0
2, 176170, Control_c, 0, 64, 55
2, 176170, Control_c, 0, 67, 17
2, 176186, Control_c, 0, 64, 61
2, 176186, Control_c, 0, 67, 27
2, 176198, Note_on_c, 0, 61, 0
2, 176201, Control_c, 0, 64, 65
2, 176201, Control_c, 0, 67, 38
2, 176216, Control_c, 0, 64, 68
2, 176216, Control_c, 0, 67, 48
2, 176231, Control_c, 0, 64, 72
2, 176231, Control_c, 0, 67, 55
2, 176246, Control_c, 0, 64, 77
2, 176246, Control_c, 0, 67, 64
2, 176252, Note_on_c, 0, 56, 0
2, 176261, Control_c, 0, 64, 82
2, 176261, Control_c, 0, 67, 72
2, 176261, Note_on_c, 0, 59, 0
2, 176276, Control_c, 0, 64, 89
2, 176276, Control_c, 0, 67, 81
2, 176291, Control_c, 0, 64, 98
2, 176291, Control_c, 0, 67, 90
2, 176307, Control_c, 0, 64, 111
2, 176307, Control_c, 0, 67, 100
2, 176322, Control_c, 0, 64, 119
2, 176322, Control_c, 0, 67, 109
2, 176338, Control_c, 0, 64, 124
2, 176338, Control_c, 0, 67, 116
2, 176353, Control_c, 0, 67, 122
2, 176368, Control_c, 0, 64, 127
2, 176368, Control_c, 0, 67, 126
2, 176383, Control_c, 0, 67, 127
2, 176415, Control_c, 0, 64, 124
2, 176430, Control_c, 0, 64, 116
2, 176444, Control_c, 0, 64, 110
2, 176460, Control_c, 0, 64, 107
2, 176490, Control_c, 0, 64, 107
2, 176505, Note_on_c, 0, 42, 42
2, 176506, Control_c, 0, 64, 104
2, 176521, Control_c, 0, 64, 99
2, 176521, Note_on_c, 0, 54, 31
2, 176521, Note_on_c, 0, 66, 50
2, 176536, Control_c, 0, 64, 93
2, 176539, Note_on_c, 0, 57, 38
2, 176551, Control_c, 0, 64, 87
2, 176566, Control_c, 0, 64, 83
2, 176582, Control_c, 0, 64, 82
2, 176597, Control_c, 0, 64, 81
2, 176620, Control_c, 0, 64, 77
2, 176635, Control_c, 0, 64, 71
2, 176649, Control_c, 0, 64, 64
2, 176665, Control_c, 0, 64, 43
2, 176680, Control_c, 0, 64, 0
2, 176706, Note_on_c, 0, 65, 0
2, 176760, Note_on_c, 0, 42, 0
2, 176771, Control_c, 0, 64, 45
2, 176787, Control_c, 0, 64, 60
2, 176802, Control_c, 0, 64, 65
2, 176818, Control_c, 0, 64, 70
2, 176818, Control_c, 0, 67, 127
2, 176833, Control_c, 0, 64, 76
2, 176833, Control_c, 0, 67, 126
2, 176848, Control_c, 0, 64, 84
2, 176863, Control_c, 0, 64, 94
2, 176863, Control_c, 0, 67, 126
2, 176878, Control_c, 0, 64, 108
2, 176878, Control_c, 0, 67, 125
2, 176888, Note_on_c, 0, 57, 0
2, 176894, Control_c, 0, 64, 117
2, 176894, Control_c, 0, 67, 124
2, 176903, Note_on_c, 0, 54, 0
2, 176908, Control_c, 0, 64, 120
2, 176908, Control_c, 0, 67, 124
2, 176923, Control_c, 0, 64, 120
2, 176939, Control_c, 0, 67, 123
2, 176946, Note_on_c, 0, 66, 0
2, 176954, Control_c, 0, 64, 120
2, 176969, Control_c, 0, 64, 117
2, 176969, Control_c, 0, 67, 123
2, 176984, Control_c, 0, 64, 115
2, 176984, Control_c, 0, 67, 122
2, 177015, Control_c, 0, 64, 112
2, 177015, Control_c, 0, 67, 122
2, 177029, Control_c, 0, 64, 108
2, 177044, Control_c, 0, 64, 104
2, 177060, Control_c, 0, 64, 101
2, 177060, Control_c, 0, 67, 121
2, 177075, Control_c, 0, 64, 99
2, 177090, Control_c, 0, 64, 98
2, 177105, Control_c, 0, 64, 95
2, 177120, Control_c, 0, 64, 91
2, 177127, Note_on_c, 0, 57, 41
2, 177136, Control_c, 0, 64, 87
2, 177151, Control_c, 0, 64, 84
2, 177166, Control_c, 0, 64, 82
2, 177181, Control_c, 0, 64, 80
2, 177196, Control_c, 0, 64, 77
2, 177211, Control_c, 0, 64, 71
2, 177228, Control_c, 0, 64, 61
2, 177243, Control_c, 0, 64, 30
2, 177243, Control_c, 0, 67, 121
2, 177259, Control_c, 0, 64, 0
2, 177259, Control_c, 0, 67, 120
2, 177274, Control_c, 0, 67, 119
2, 177288, Control_c, 0, 67, 118
2, 177304, Control_c, 0, 64, 46
2, 177304, Control_c, 0, 67, 117
2, 177319, Control_c, 0, 64, 60
2, 177319, Control_c, 0, 67, 115
2, 177335, Control_c, 0, 64, 66
2, 177335, Control_c, 0, 67, 112
2, 177349, Control_c, 0, 64, 71
2, 177349, Control_c, 0, 67, 106
2, 177364, Control_c, 0, 64, 74
2, 177364, Control_c, 0, 67, 100
2, 177388, Control_c, 0, 64, 76
2, 177388, Control_c, 0, 67, 95
2, 177392, Note_on_c, 0, 57, 0
2, 177403, Control_c, 0, 64, 77
2, 177403, Control_c, 0, 67, 91
2, 177418, Control_c, 0, 64, 77
2, 177418, Control_c, 0, 67, 88
2, 177433, Control_c, 0, 64, 78
2, 177433, Control_c, 0, 67, 86
2, 177448, Control_c, 0, 67, 82
2, 177464, Control_c, 0, 67, 77
2, 177478, Control_c, 0, 64, 78
2, 177478, Control_c, 0, 67, 72
2, 177494, Control_c, 0, 67, 69
2, 177509, Control_c, 0, 67, 66
2, 177524, Control_c, 0, 64, 77
2, 177524, Control_c, 0, 67, 63
2, 177526, Note_on_c, 0, 57, 53
2, 177540, Control_c, 0, 64, 74
2, 177540, Control_c, 0, 67, 61
2, 177554, Control_c, 0, 64, 66
2, 177554, Control_c, 0, 67, 58
2, 177569, Control_c, 0, 64, 56
2, 177569, Control_c, 0, 67, 55
2, 177585, Control_c, 0, 64, 47
2, 177585, Control_c, 0, 67, 50
2, 177600, Control_c, 0, 67, 43
2, 177616, Control_c, 0, 64, 47
2, 177616, Control_c, 0, 67, 34
2, 177631, Control_c, 0, 64, 53
2, 177631, Control_c, 0, 67, 27
2, 177646, Control_c, 0, 64, 62
2, 177646, Control_c, 0, 67, 19
2, 177661, Control_c, 0, 64, 68
2, 177661, Control_c, 0, 67, 12
2, 177676, Control_c, 0, 64, 76
2, 177676, Control_c, 0, 67, 0
2, 177691, Control_c, 0, 64, 85
2, 177707, Control_c, 0, 64, 91
2, 177722, Control_c, 0, 64, 97
2, 177724, Note_on_c, 0, 57, 0
2, 177738, Control_c, 0, 64, 98
2, 177753, Control_c, 0, 64, 97
2, 177768, Control_c, 0, 64, 96
2, 177784, Control_c, 0, 64, 94
2, 177799, Control_c, 0, 64, 92
2, 177815, Control_c, 0, 64, 89
2, 177829, Control_c, 0, 64, 86
2, 177844, Control_c, 0, 64, 85
2, 177860, Control_c, 0, 64, 85
2, 177874, Control_c, 0, 64, 84
2, 177880, Note_on_c, 0, 57, 41
2, 177888, Note_on_c, 0, 81, 63
2, 177889, Control_c, 0, 64, 81
2, 177905, Control_c, 0, 64, 77
2, 177920, Control_c, 0, 64, 73
2, 177936, Control_c, 0, 64, 67
2, 177950, Control_c, 0, 64, 57
2, 177965, Control_c, 0, 64, 10
2, 177981, Control_c, 0, 64, 0
2, 178026, Control_c, 0, 64, 13
2, 178041, Control_c, 0, 64, 53
2, 178058, Control_c, 0, 64, 62
2, 178073, Control_c, 0, 64, 65
2, 178086, Note_on_c, 0, 81, 0
2, 178088, Control_c, 0, 64, 66
2, 178171, Control_c, 0, 64, 65
2, 178231, Note_on_c, 0, 50, 35
2, 178235, Note_on_c, 0, 81, 58
2, 178248, Control_c, 0, 64, 65
2, 178263, Control_c, 0, 64, 64
2, 178278, Control_c, 0, 64, 61
2, 178294, Control_c, 0, 64, 53
2, 178308, Control_c, 0, 64, 39
2, 178323, Control_c, 0, 64, 12
2, 178339, Control_c, 0, 64, 0
2, 178369, Control_c, 0, 64, 33
2, 178370, Note_on_c, 0, 57, 0
2, 178384, Control_c, 0, 64, 57
2, 178399, Control_c, 0, 64, 64
2, 178415, Control_c, 0, 64, 67
2, 178430, Control_c, 0, 64, 70
2, 178442, Note_on_c, 0, 81, 0
2, 178445, Control_c, 0, 64, 72
2, 178475, Control_c, 0, 64, 72
2, 178490, Control_c, 0, 64, 71
2, 178520, Control_c, 0, 64, 71
2, 178551, Control_c, 0, 64, 70
2, 178566, Control_c, 0, 64, 70
2, 178567, Note_on_c, 0, 81, 62
2, 178582, Control_c, 0, 64, 68
2, 178582, Note_on_c, 0, 69, 44
2, 178597, Control_c, 0, 64, 63
2, 178612, Control_c, 0, 64, 52
2, 178627, Control_c, 0, 64, 32
2, 178642, Control_c, 0, 64, 0
2, 178704, Control_c, 0, 64, 48
2, 178718, Control_c, 0, 64, 60
2, 178734, Control_c, 0, 64, 64
2, 178738, Note_on_c, 0, 69, 0
2, 178749, Control_c, 0, 64, 65
2, 178764, Control_c, 0, 64, 66
2, 178809, Control_c, 0, 64, 66
2, 178825, Control_c, 0, 64, 66
2, 178840, Control_c, 0, 64, 65
2, 178872, Control_c, 0, 64, 65
2, 178887, Control_c, 0, 64, 64
2, 178895, Note_on_c, 0, 54, 39
2, 178902, Control_c, 0, 64, 64
2, 178913, Note_on_c, 0, 74, 51
2, 178924, Control_c, 0, 64, 63
2, 178928, Note_on_c, 0, 69, 34
2, 178954, Control_c, 0, 64, 62
2, 178969, Control_c, 0, 64, 57
2, 178985, Control_c, 0, 64, 42
2, 179000, Control_c, 0, 64, 0
2, 179025, Note_on_c, 0, 50, 0
2, 179076, Note_on_c, 0, 69, 0
2, 179077, Control_c, 0, 64, 46
2, 179092, Control_c, 0, 64, 57
2, 179107, Control_c, 0, 64, 59
2, 179111, Note_on_c, 0, 81, 0
2, 179122, Control_c, 0, 64, 60
2, 179138, Control_c, 0, 64, 61
2, 179152, Control_c, 0, 64, 63
2, 179167, Control_c, 0, 64, 64
2, 179183, Control_c, 0, 64, 65
2, 179198, Control_c, 0, 64, 66
2, 179214, Control_c, 0, 64, 65
2, 179228, Control_c, 0, 64, 59
2, 179236, Note_on_c, 0, 69, 46
2, 179242, Control_c, 0, 64, 46
2, 179258, Control_c, 0, 64, 36
2, 179288, Control_c, 0, 64, 42
2, 179303, Control_c, 0, 64, 53
2, 179318, Control_c, 0, 64, 59
2, 179334, Control_c, 0, 64, 65
2, 179349, Control_c, 0, 64, 69
2, 179364, Control_c, 0, 64, 75
2, 179380, Control_c, 0, 64, 81
2, 179394, Note_on_c, 0, 69, 0
2, 179395, Control_c, 0, 64, 86
2, 179410, Control_c, 0, 64, 91
2, 179425, Control_c, 0, 64, 93
2, 179456, Control_c, 0, 64, 92
2, 179471, Control_c, 0, 64, 91
2, 179485, Control_c, 0, 64, 90
2, 179501, Control_c, 0, 64, 89
2, 179516, Control_c, 0, 64, 87
2, 179531, Control_c, 0, 64, 85
2, 179549, Control_c, 0, 64, 82
2, 179586, Note_on_c, 0, 62, 28
2, 179610, Control_c, 0, 64, 81
2, 179625, Control_c, 0, 64, 78
2, 179629, Note_on_c, 0, 78, 54
2, 179639, Control_c, 0, 64, 69
2, 179655, Control_c, 0, 64, 58
2, 179670, Control_c, 0, 64, 48
2, 179675, Note_on_c, 0, 54, 0
2, 179709, Control_c, 0, 64, 53
2, 179724, Control_c, 0, 64, 59
2, 179740, Control_c, 0, 64, 64
2, 179754, Control_c, 0, 64, 69
2, 179770, Control_c, 0, 64, 75
2, 179785, Control_c, 0, 64, 81
2, 179800, Control_c, 0, 64, 85
2, 179803, Note_on_c, 0, 74, 0
2, 179816, Control_c, 0, 64, 88
2, 179830, Note_on_c, 0, 62, 0
2, 179831, Control_c, 0, 64, 89
2, 179892, Control_c, 0, 64, 88
2, 179907, Control_c, 0, 64, 88
2, 179922, Control_c, 0, 64, 87
2, 179938, Control_c, 0, 64, 86
2, 179952, Control_c, 0, 64, 84
2, 179968, Control_c, 0, 64, 82
2, 179983, Control_c, 0, 64, 80
2, 179997, Control_c, 0, 64, 77
2, 180013, Control_c, 0, 64, 76
2, 180028, Control_c, 0, 64, 74
2, 180036, Note_on_c, 0, 47, 48
2, 180043, Control_c, 0, 64, 73
2, 180049, Note_on_c, 0, 50, 39
2, 180059, Control_c, 0, 64, 72
2, 180073, Control_c, 0, 64, 71
2, 180089, Control_c, 0, 64, 70
2, 180104, Control_c, 0, 64, 69
2, 180119, Control_c, 0, 64, 67
2, 180134, Control_c, 0, 64, 66
2, 180149, Control_c, 0, 64, 64
2, 180164, Control_c, 0, 64, 61
2, 180180, Control_c, 0, 64, 58
2, 180195, Control_c, 0, 64, 54
2, 180211, Control_c, 0, 64, 49
2, 180225, Control_c, 0, 64, 43
2, 180240, Control_c, 0, 64, 35
2, 180256, Control_c, 0, 64, 26
2, 180271, Control_c, 0, 64, 8
2, 180287, Control_c, 0, 64, 0
2, 180376, Note_on_c, 0, 55, 39
2, 180377, Note_on_c, 0, 52, 40
2, 180442, Note_on_c, 0, 47, 0
2, 180468, Note_on_c, 0, 50, 0
2, 180598, Control_c, 0, 64, 19
2, 180614, Control_c, 0, 64, 26
2, 180629, Control_c, 0, 64, 32
2, 180639, Note_on_c, 0, 55, 0
2, 180644, Control_c, 0, 64, 38
2, 180660, Control_c, 0, 64, 44
2, 180669, Note_on_c, 0, 54, 30
2, 180675, Control_c, 0, 64, 50
2, 180675, Note_on_c, 0, 71, 51
2, 180684, Note_on_c, 0, 50, 29
2, 180691, Control_c, 0, 64, 54
2, 180705, Control_c, 0, 64, 59
2, 180720, Control_c, 0, 64, 62
2, 180736, Control_c, 0, 64, 64
2, 180740, Note_on_c, 0, 52, 0
2, 180751, Control_c, 0, 64, 67
2, 180752, Note_on_c, 0, 78, 0
2, 180765, Control_c, 0, 64, 70
2, 180782, Control_c, 0, 64, 73
2, 180797, Control_c, 0, 64, 76
2, 180800, Note_on_c, 0, 54, 0
2, 180813, Control_c, 0, 64, 79
2, 180828, Control_c, 0, 64, 82
2, 180839, Note_on_c, 0, 50, 0
2, 180842, Control_c, 0, 64, 83
2, 180858, Control_c, 0, 64, 84
2, 180889, Control_c, 0, 64, 83
2, 180904, Control_c, 0, 64, 83
2, 180918, Control_c, 0, 64, 82
2, 180934, Control_c, 0, 64, 82
2, 180949, Control_c, 0, 64, 81
2, 180964, Control_c, 0, 64, 80
2, 180979, Control_c, 0, 64, 79
2, 180994, Control_c, 0, 64, 78
2, 180997, Note_on_c, 0, 76, 52
2, 181007, Note_on_c, 0, 49, 35
2, 181009, Note_on_c, 0, 52, 41
2, 181010, Control_c, 0, 64, 76
2, 181025, Control_c, 0, 64, 74
2, 181040, Control_c, 0, 64, 73
2, 181055, Control_c, 0, 64, 70
2, 181070, Control_c, 0, 64, 67
2, 181078, Note_on_c, 0, 71, 0
2, 181085, Control_c, 0, 64, 64
2, 181101, Control_c, 0, 64, 63
2, 181116, Control_c, 0, 64, 61
2, 181131, Control_c, 0, 64, 61
2, 181146, Control_c, 0, 64, 59
2, 181161, Control_c, 0, 64, 58
2, 181177, Control_c, 0, 64, 57
2, 181191, Control_c, 0, 64, 56
2, 181207, Control_c, 0, 64, 55
2, 181230, Control_c, 0, 64, 55
2, 181245, Control_c, 0, 64, 54
2, 181260, Control_c, 0, 64, 53
2, 181275, Control_c, 0, 64, 51
2, 181290, Note_on_c, 0, 47, 42
2, 181291, Control_c, 0, 64, 50
2, 181305, Note_on_c, 0, 64, 52
2, 181305, Note_on_c, 0, 74, 58
2, 181306, Control_c, 0, 64, 48
2, 181314, Note_on_c, 0, 76, 0
2, 181321, Control_c, 0, 64, 44
2, 181338, Control_c, 0, 64, 38
2, 181353, Control_c, 0, 64, 31
2, 181363, Note_on_c, 0, 49, 0
2, 181368, Control_c, 0, 64, 28
2, 181383, Control_c, 0, 64, 27
2, 181428, Control_c, 0, 64, 29
2, 181443, Control_c, 0, 64, 35
2, 181457, Note_on_c, 0, 52, 0
2, 181459, Control_c, 0, 64, 37
2, 181474, Control_c, 0, 64, 38
2, 181519, Control_c, 0, 64, 38
2, 181614, Note_on_c, 0, 45, 38
2, 181630, Note_on_c, 0, 73, 60
2, 181642, Note_on_c, 0, 69, 44
2, 181683, Note_on_c, 0, 47, 0
2, 181687, Control_c, 0, 64, 39
2, 181702, Control_c, 0, 64, 42
2, 181717, Control_c, 0, 64, 47
2, 181717, Note_on_c, 0, 64, 0
2, 181723, Note_on_c, 0, 74, 0
2, 181733, Control_c, 0, 64, 54
2, 181748, Control_c, 0, 64, 61
2, 181762, Control_c, 0, 64, 64
2, 181778, Control_c, 0, 64, 67
2, 181793, Control_c, 0, 64, 71
2, 181809, Control_c, 0, 64, 74
2, 181823, Control_c, 0, 64, 76
2, 181838, Control_c, 0, 64, 78
2, 181854, Control_c, 0, 64, 79
2, 181869, Control_c, 0, 64, 79
2, 181882, Note_on_c, 0, 45, 0
2, 181914, Control_c, 0, 64, 79
2, 181930, Control_c, 0, 64, 78
2, 181941, Note_on_c, 0, 57, 58
2, 181944, Control_c, 0, 64, 78
2, 181959, Control_c, 0, 64, 77
2, 181961, Note_on_c, 0, 67, 47
2, 181975, Control_c, 0, 64, 76
2, 182002, Note_on_c, 0, 69, 0
2, 182014, Control_c, 0, 64, 76
2, 182028, Control_c, 0, 64, 75
2, 182043, Control_c, 0, 64, 74
2, 182059, Control_c, 0, 64, 73
2, 182074, Control_c, 0, 64, 71
2, 182090, Control_c, 0, 64, 71
2, 182104, Control_c, 0, 64, 70
2, 182119, Control_c, 0, 64, 69
2, 182135, Control_c, 0, 64, 68
2, 182151, Control_c, 0, 64, 66
2, 182167, Control_c, 0, 64, 65
2, 182182, Control_c, 0, 64, 64
2, 182212, Control_c, 0, 64, 64
2, 182227, Control_c, 0, 64, 63
2, 182257, Control_c, 0, 64, 62
2, 182274, Note_on_c, 0, 62, 52
2, 182288, Control_c, 0, 64, 62
2, 182305, Note_on_c, 0, 66, 43
2, 182318, Control_c, 0, 64, 61
2, 182333, Control_c, 0, 64, 61
2, 182363, Control_c, 0, 64, 60
2, 182379, Control_c, 0, 64, 59
2, 182393, Control_c, 0, 64, 57
2, 182405, Note_on_c, 0, 57, 0
2, 182409, Control_c, 0, 64, 53
2, 182415, Note_on_c, 0, 67, 0
2, 182424, Control_c, 0, 64, 49
2, 182439, Control_c, 0, 64, 47
2, 182439, Note_on_c, 0, 73, 0
2, 182455, Control_c, 0, 64, 46
2, 182469, Control_c, 0, 64, 45
2, 182484, Control_c, 0, 64, 45
2, 182620, Note_on_c, 0, 60, 48
2, 182642, Note_on_c, 0, 69, 55
2, 182653, Control_c, 0, 64, 44
2, 182682, Control_c, 0, 64, 44
2, 182743, Control_c, 0, 64, 44
2, 182754, Note_on_c, 0, 62, 0
2, 182758, Control_c, 0, 64, 48
2, 182781, Control_c, 0, 64, 51
2, 182786, Note_on_c, 0, 66, 0
2, 182796, Control_c, 0, 64, 53
2, 182812, Control_c, 0, 64, 54
2, 182827, Control_c, 0, 64, 55
2, 182842, Control_c, 0, 64, 55
2, 182858, Control_c, 0, 64, 56
2, 182872, Control_c, 0, 64, 57
2, 182903, Control_c, 0, 64, 57
2, 182934, Control_c, 0, 64, 58
2, 182947, Note_on_c, 0, 59, 47
2, 182951, Note_on_c, 0, 74, 59
2, 182963, Control_c, 0, 64, 54
2, 182980, Control_c, 0, 64, 45
2, 182995, Control_c, 0, 64, 33
2, 183011, Control_c, 0, 64, 12
2, 183025, Control_c, 0, 64, 0
2, 183040, Control_c, 0, 64, 16
2, 183049, Note_on_c, 0, 69, 0
2, 183056, Control_c, 0, 64, 42
2, 183063, Note_on_c, 0, 60, 0
2, 183071, Control_c, 0, 64, 55
2, 183085, Control_c, 0, 64, 61
2, 183100, Control_c, 0, 64, 63
2, 183115, Control_c, 0, 64, 64
2, 183131, Control_c, 0, 64, 65
2, 183146, Control_c, 0, 64, 66
2, 183161, Control_c, 0, 64, 68
2, 183176, Control_c, 0, 64, 69
2, 183207, Control_c, 0, 64, 68
2, 183222, Control_c, 0, 64, 64
2, 183237, Control_c, 0, 64, 56
2, 183253, Control_c, 0, 64, 46
2, 183259, Note_on_c, 0, 72, 62
2, 183264, Note_on_c, 0, 62, 42
2, 183267, Control_c, 0, 64, 39
2, 183278, Note_on_c, 0, 74, 0
2, 183282, Control_c, 0, 64, 30
2, 183298, Control_c, 0, 64, 28
2, 183313, Control_c, 0, 64, 31
2, 183329, Control_c, 0, 64, 50
2, 183344, Control_c, 0, 64, 60
2, 183359, Control_c, 0, 64, 64
2, 183375, Control_c, 0, 64, 67
2, 183389, Control_c, 0, 64, 71
2, 183404, Control_c, 0, 64, 73
2, 183420, Control_c, 0, 64, 74
2, 183434, Control_c, 0, 64, 75
2, 183450, Control_c, 0, 64, 76
2, 183465, Control_c, 0, 64, 76
2, 183480, Control_c, 0, 64, 77
2, 183496, Control_c, 0, 64, 79
2, 183510, Control_c, 0, 64, 79
2, 183525, Control_c, 0, 64, 78
2, 183549, Control_c, 0, 64, 72
2, 183564, Control_c, 0, 64, 64
2, 183582, Control_c, 0, 64, 56
2, 183582, Note_on_c, 0, 67, 51
2, 183587, Note_on_c, 0, 71, 56
2, 183612, Control_c, 0, 64, 59
2, 183627, Control_c, 0, 64, 63
2, 183642, Control_c, 0, 64, 67
2, 183657, Control_c, 0, 64, 71
2, 183661, Note_on_c, 0, 62, 0
2, 183672, Control_c, 0, 64, 77
2, 183688, Control_c, 0, 64, 81
2, 183694, Note_on_c, 0, 72, 0
2, 183703, Control_c, 0, 64, 84
2, 183717, Control_c, 0, 64, 85
2, 183756, Note_on_c, 0, 59, 0
2, 183778, Control_c, 0, 64, 85
2, 183795, Control_c, 0, 64, 83
2, 183811, Control_c, 0, 64, 81
2, 183825, Control_c, 0, 64, 79
2, 183841, Control_c, 0, 64, 79
2, 183885, Note_on_c, 0, 47, 56
2, 183895, Note_on_c, 0, 66, 48
2, 183908, Note_on_c, 0, 57, 43
2, 183932, Control_c, 0, 64, 78
2, 183946, Control_c, 0, 64, 74
2, 183962, Control_c, 0, 64, 64
2, 183977, Control_c, 0, 64, 43
2, 183992, Control_c, 0, 64, 8
2, 184008, Control_c, 0, 64, 0
2, 184022, Control_c, 0, 64, 21
2, 184037, Control_c, 0, 64, 46
2, 184040, Note_on_c, 0, 67, 0
2, 184053, Control_c, 0, 64, 58
2, 184067, Control_c, 0, 64, 64
2, 184073, Note_on_c, 0, 57, 0
2, 184083, Control_c, 0, 64, 67
2, 184098, Control_c, 0, 64, 69
2, 184113, Control_c, 0, 64, 70
2, 184175, Control_c, 0, 64, 70
2, 184190, Control_c, 0, 64, 72
2, 184200, Note_on_c, 0, 52, 58
2, 184206, Control_c, 0, 64, 73
2, 184212, Note_on_c, 0, 55, 52
2, 184220, Control_c, 0, 64, 74
2, 184221, Note_on_c, 0, 64, 49
2, 184235, Control_c, 0, 64, 71
2, 184251, Control_c, 0, 64, 64
2, 184266, Control_c, 0, 64, 43
2, 184281, Control_c, 0, 64, 27
2, 184296, Control_c, 0, 64, 23
2, 184323, Note_on_c, 0, 66, 0
2, 184334, Control_c, 0, 64, 35
2, 184349, Control_c, 0, 64, 53
2, 184365, Control_c, 0, 64, 60
2, 184376, Note_on_c, 0, 47, 0
2, 184380, Control_c, 0, 64, 63
2, 184381, Note_on_c, 0, 71, 0
2, 184486, Control_c, 0, 64, 62
2, 184514, Note_on_c, 0, 50, 54
2, 184522, Note_on_c, 0, 71, 60
2, 184532, Control_c, 0, 64, 62
2, 184547, Control_c, 0, 64, 61
2, 184562, Control_c, 0, 64, 60
2, 184577, Control_c, 0, 64, 56
2, 184592, Control_c, 0, 64, 49
2, 184609, Control_c, 0, 64, 42
2, 184624, Control_c, 0, 64, 39
2, 184652, Note_on_c, 0, 52, 0
2, 184655, Control_c, 0, 64, 41
2, 184670, Control_c, 0, 64, 46
2, 184686, Control_c, 0, 64, 48
2, 184701, Control_c, 0, 64, 48
2, 184829, Note_on_c, 0, 48, 45
2, 184852, Note_on_c, 0, 76, 62
2, 184867, Control_c, 0, 64, 47
2, 184883, Control_c, 0, 64, 43
2, 184898, Control_c, 0, 64, 33
2, 184912, Control_c, 0, 64, 12
2, 184928, Control_c, 0, 64, 0
2, 184930, Note_on_c, 0, 50, 0
2, 184974, Control_c, 0, 64, 39
2, 184976, Note_on_c, 0, 71, 0
2, 184985, Note_on_c, 0, 64, 0
2, 184988, Control_c, 0, 64, 54
2, 185004, Control_c, 0, 64, 61
2, 185019, Control_c, 0, 64, 63
2, 185034, Control_c, 0, 64, 64
2, 185049, Control_c, 0, 64, 65
2, 185072, Control_c, 0, 64, 66
2, 185088, Control_c, 0, 64, 67
2, 185103, Control_c, 0, 64, 68
2, 185118, Control_c, 0, 64, 69
2, 185133, Control_c, 0, 64, 70
2, 185148, Control_c, 0, 64, 71
2, 185164, Control_c, 0, 64, 71
2, 185168, Note_on_c, 0, 74, 68
2, 185171, Note_on_c, 0, 47, 48
2, 185178, Note_on_c, 0, 52, 50
2, 185179, Control_c, 0, 64, 68
2, 185184, Note_on_c, 0, 48, 0
2, 185194, Control_c, 0, 64, 61
2, 185209, Control_c, 0, 64, 50
2, 185212, Note_on_c, 0, 76, 0
2, 185224, Control_c, 0, 64, 48
2, 185240, Control_c, 0, 64, 49
2, 185254, Control_c, 0, 64, 57
2, 185258, Note_on_c, 0, 55, 0
2, 185269, Control_c, 0, 64, 63
2, 185285, Control_c, 0, 64, 66
2, 185299, Note_on_c, 0, 47, 0
2, 185300, Control_c, 0, 64, 69
2, 185315, Control_c, 0, 64, 72
2, 185331, Control_c, 0, 64, 74
2, 185361, Control_c, 0, 64, 73
2, 185376, Control_c, 0, 64, 73
2, 185400, Note_on_c, 0, 47, 11
2, 185407, Control_c, 0, 64, 72
2, 185422, Control_c, 0, 64, 71
2, 185437, Control_c, 0, 64, 70
2, 185453, Control_c, 0, 64, 70
2, 185484, Control_c, 0, 64, 70
2, 185484, Note_on_c, 0, 45, 52
2, 185496, Note_on_c, 0, 57, 45
2, 185500, Note_on_c, 0, 72, 66
2, 185513, Control_c, 0, 64, 69
2, 185529, Control_c, 0, 64, 63
2, 185544, Control_c, 0, 64, 47
2, 185560, Control_c, 0, 64, 15
2, 185575, Control_c, 0, 64, 0
2, 185591, Note_on_c, 0, 52, 0
2, 185603, Note_on_c, 0, 74, 0
2, 185606, Control_c, 0, 64, 8
2, 185606, Note_on_c, 0, 47, 0
2, 185621, Control_c, 0, 64, 46
2, 185635, Control_c, 0, 64, 60
2, 185651, Control_c, 0, 64, 64
2, 185666, Control_c, 0, 64, 67
2, 185672, Note_on_c, 0, 57, 0
2, 185681, Control_c, 0, 64, 68
2, 185803, Note_on_c, 0, 55, 57
2, 185811, Note_on_c, 0, 64, 65
2, 185818, Control_c, 0, 64, 67
2, 185841, Control_c, 0, 64, 65
2, 185856, Control_c, 0, 64, 57
2, 185871, Control_c, 0, 64, 39
2, 185887, Control_c, 0, 64, 19
2, 185901, Control_c, 0, 64, 12
2, 185916, Control_c, 0, 64, 18
2, 185932, Control_c, 0, 64, 42
2, 185947, Control_c, 0, 64, 54
2, 185963, Control_c, 0, 64, 61
2, 185977, Control_c, 0, 64, 63
2, 186068, Control_c, 0, 64, 62
2, 186084, Control_c, 0, 64, 61
2, 186118, Note_on_c, 0, 54, 45
2, 186131, Note_on_c, 0, 69, 55
2, 186144, Control_c, 0, 64, 60
2, 186158, Control_c, 0, 64, 50
2, 186173, Control_c, 0, 64, 28
2, 186188, Control_c, 0, 64, 0
2, 186207, Note_on_c, 0, 55, 0
2, 186232, Note_on_c, 0, 64, 0
2, 186266, Control_c, 0, 64, 55
2, 186281, Control_c, 0, 64, 62
2, 186296, Control_c, 0, 64, 65
2, 186311, Control_c, 0, 64, 66
2, 186326, Control_c, 0, 64, 68
2, 186341, Control_c, 0, 64, 69
2, 186356, Control_c, 0, 64, 70
2, 186372, Control_c, 0, 64, 71
2, 186415, Note_on_c, 0, 67, 58
2, 186417, Control_c, 0, 64, 70
2, 186426, Note_on_c, 0, 52, 58
2, 186432, Control_c, 0, 64, 65
2, 186448, Control_c, 0, 64, 54
2, 186463, Control_c, 0, 64, 43
2, 186477, Control_c, 0, 64, 44
2, 186486, Note_on_c, 0, 54, 0
2, 186493, Control_c, 0, 64, 53
2, 186504, Note_on_c, 0, 45, 0
2, 186508, Control_c, 0, 64, 60
2, 186524, Control_c, 0, 64, 64
2, 186538, Control_c, 0, 64, 67
2, 186553, Control_c, 0, 64, 71
2, 186569, Control_c, 0, 64, 72
2, 186584, Control_c, 0, 64, 72
2, 186588, Note_on_c, 0, 69, 0
2, 186622, Control_c, 0, 64, 71
2, 186668, Control_c, 0, 64, 71
2, 186683, Control_c, 0, 64, 70
2, 186698, Control_c, 0, 64, 70
2, 186718, Note_on_c, 0, 50, 45
2, 186722, Note_on_c, 0, 47, 41
2, 186735, Note_on_c, 0, 66, 58
2, 186758, Control_c, 0, 64, 68
2, 186774, Control_c, 0, 64, 64
2, 186789, Control_c, 0, 64, 53
2, 186789, Note_on_c, 0, 52, 0
2, 186805, Control_c, 0, 64, 39
2, 186819, Control_c, 0, 64, 35
2, 186847, Note_on_c, 0, 67, 0
2, 186850, Control_c, 0, 64, 36
2, 186865, Control_c, 0, 64, 43
2, 186881, Control_c, 0, 64, 47
2, 186927, Control_c, 0, 64, 46
2, 186941, Control_c, 0, 64, 43
2, 186956, Control_c, 0, 64, 40
2, 186972, Control_c, 0, 64, 37
2, 186987, Control_c, 0, 64, 35
2, 187003, Control_c, 0, 64, 32
2, 187017, Control_c, 0, 64, 31
2, 187042, Note_on_c, 0, 54, 45
2, 187046, Note_on_c, 0, 62, 58
2, 187064, Control_c, 0, 64, 32
2, 187080, Control_c, 0, 64, 33
2, 187095, Control_c, 0, 64, 38
2, 187109, Control_c, 0, 64, 42
2, 187109, Note_on_c, 0, 50, 0
2, 187125, Control_c, 0, 64, 46
2, 187128, Note_on_c, 0, 72, 0
2, 187140, Control_c, 0, 64, 52
2, 187153, Note_on_c, 0, 66, 0
2, 187155, Control_c, 0, 64, 58
2, 187170, Control_c, 0, 64, 62
2, 187185, Control_c, 0, 64, 65
2, 187201, Control_c, 0, 64, 68
2, 187216, Control_c, 0, 64, 72
2, 187231, Control_c, 0, 64, 76
2, 187246, Control_c, 0, 64, 79
2, 187261, Control_c, 0, 64, 80
2, 187276, Control_c, 0, 64, 81
2, 187292, Control_c, 0, 64, 81
2, 187337, Control_c, 0, 64, 81
2, 187352, Control_c, 0, 64, 80
2, 187384, Note_on_c, 0, 59, 46
2, 187406, Control_c, 0, 64, 80
2, 187421, Control_c, 0, 64, 79
2, 187438, Note_on_c, 0, 71, 57
2, 187451, Control_c, 0, 64, 79
2, 187458, Note_on_c, 0, 67, 49
2, 187482, Control_c, 0, 64, 77
2, 187497, Control_c, 0, 64, 71
2, 187511, Control_c, 0, 64, 63
2, 187512, Note_on_c, 0, 54, 0
2, 187527, Control_c, 0, 64, 43
2, 187542, Control_c, 0, 64, 40
2, 187557, Control_c, 0, 64, 43
2, 187566, Note_on_c, 0, 62, 0
2, 187573, Control_c, 0, 64, 54
2, 187587, Control_c, 0, 64, 62
2, 187603, Control_c, 0, 64, 67
2, 187606, Note_on_c, 0, 59, 0
2, 187618, Control_c, 0, 64, 73
2, 187633, Control_c, 0, 64, 83
2, 187649, Control_c, 0, 64, 89
2, 187663, Control_c, 0, 64, 92
2, 187678, Control_c, 0, 64, 91
2, 187695, Control_c, 0, 64, 88
2, 187709, Control_c, 0, 64, 87
2, 187771, Control_c, 0, 64, 86
2, 187785, Control_c, 0, 64, 84
2, 187786, Note_on_c, 0, 57, 53
2, 187796, Note_on_c, 0, 66, 52
2, 187798, Note_on_c, 0, 50, 52
2, 187801, Control_c, 0, 64, 82
2, 187816, Control_c, 0, 64, 81
2, 187862, Control_c, 0, 64, 78
2, 187877, Control_c, 0, 64, 73
2, 187893, Control_c, 0, 64, 68
2, 187908, Control_c, 0, 64, 65
2, 187924, Control_c, 0, 64, 63
2, 187924, Note_on_c, 0, 47, 0
2, 187941, Note_on_c, 0, 67, 0
2, 187953, Control_c, 0, 64, 62
2, 187969, Control_c, 0, 64, 61
2, 187984, Control_c, 0, 64, 59
2, 188000, Control_c, 0, 64, 57
2, 188015, Control_c, 0, 64, 56
2, 188030, Control_c, 0, 64, 55
2, 188046, Control_c, 0, 64, 54
2, 188061, Control_c, 0, 64, 52
2, 188075, Control_c, 0, 64, 50
2, 188091, Control_c, 0, 64, 48
2, 188099, Note_on_c, 0, 55, 61
2, 188106, Control_c, 0, 64, 46
2, 188106, Note_on_c, 0, 64, 51
2, 188122, Control_c, 0, 64, 43
2, 188137, Control_c, 0, 64, 40
2, 188158, Control_c, 0, 64, 38
2, 188189, Control_c, 0, 64, 39
2, 188205, Control_c, 0, 64, 47
2, 188207, Note_on_c, 0, 57, 0
2, 188218, Note_on_c, 0, 66, 0
2, 188220, Control_c, 0, 64, 51
2, 188233, Note_on_c, 0, 50, 0
2, 188265, Control_c, 0, 64, 52
2, 188281, Control_c, 0, 64, 55
2, 188296, Control_c, 0, 64, 58
2, 188342, Control_c, 0, 64, 57
2, 188356, Control_c, 0, 64, 56
2, 188391, Note_on_c, 0, 62, 48
2, 188396, Note_on_c, 0, 54, 52
2, 188418, Control_c, 0, 64, 58
2, 188432, Control_c, 0, 64, 61
2, 188448, Control_c, 0, 64, 64
2, 188463, Control_c, 0, 64, 66
2, 188478, Control_c, 0, 64, 70
2, 188494, Control_c, 0, 64, 72
2, 188508, Control_c, 0, 64, 72
2, 188534, Note_on_c, 0, 62, 0
2, 188553, Control_c, 0, 64, 72
2, 188584, Control_c, 0, 64, 71
2, 188615, Control_c, 0, 64, 71
2, 188629, Control_c, 0, 64, 70
2, 188645, Control_c, 0, 64, 68
2, 188660, Control_c, 0, 64, 67
2, 188675, Control_c, 0, 64, 66
2, 188691, Control_c, 0, 64, 65
2, 188697, Note_on_c, 0, 52, 50
2, 188705, Note_on_c, 0, 60, 60
2, 188707, Control_c, 0, 64, 63
2, 188723, Control_c, 0, 64, 61
2, 188737, Control_c, 0, 64, 60
2, 188752, Control_c, 0, 64, 58
2, 188754, Note_on_c, 0, 54, 0
2, 188758, Note_on_c, 0, 64, 0
2, 188768, Control_c, 0, 64, 56
2, 188782, Control_c, 0, 64, 54
2, 188797, Control_c, 0, 64, 51
2, 188813, Control_c, 0, 64, 49
2, 188828, Control_c, 0, 64, 47
2, 188844, Control_c, 0, 64, 47
2, 188859, Control_c, 0, 64, 46
2, 188873, Control_c, 0, 64, 43
2, 188889, Control_c, 0, 64, 39
2, 188912, Control_c, 0, 64, 35
2, 188928, Control_c, 0, 64, 34
2, 188942, Control_c, 0, 64, 33
2, 188957, Control_c, 0, 64, 33
2, 188973, Control_c, 0, 64, 31
2, 188987, Control_c, 0, 64, 28
2, 189003, Control_c, 0, 64, 22
2, 189012, Note_on_c, 0, 54, 44
2, 189015, Note_on_c, 0, 57, 30
2, 189018, Control_c, 0, 64, 18
2, 189018, Note_on_c, 0, 69, 61
2, 189033, Control_c, 0, 64, 12
2, 189049, Control_c, 0, 64, 0
2, 189067, Note_on_c, 0, 55, 0
2, 189122, Note_on_c, 0, 60, 0
2, 189126, Note_on_c, 0, 71, 0
2, 189149, Note_on_c, 0, 52, 0
2, 189313, Note_on_c, 0, 55, 37
2, 189325, Note_on_c, 0, 59, 57
2, 189380, Note_on_c, 0, 57, 0
2, 189421, Note_on_c, 0, 54, 0
2, 189612, Control_c, 0, 64, 34
2, 189622, Note_on_c, 0, 52, 36
2, 189623, Note_on_c, 0, 67, 56
2, 189626, Control_c, 0, 64, 47
2, 189642, Control_c, 0, 64, 53
2, 189643, Note_on_c, 0, 64, 47
2, 189657, Control_c, 0, 64, 58
2, 189681, Control_c, 0, 64, 62
2, 189692, Note_on_c, 0, 55, 0
2, 189696, Control_c, 0, 64, 66
2, 189706, Note_on_c, 0, 69, 0
2, 189710, Control_c, 0, 64, 69
2, 189726, Control_c, 0, 64, 72
2, 189738, Note_on_c, 0, 59, 0
2, 189741, Control_c, 0, 64, 75
2, 189754, Note_on_c, 0, 52, 0
2, 189755, Control_c, 0, 64, 76
2, 189771, Control_c, 0, 64, 77
2, 189817, Control_c, 0, 64, 76
2, 189831, Control_c, 0, 64, 75
2, 189847, Control_c, 0, 64, 74
2, 189862, Control_c, 0, 64, 74
2, 189877, Control_c, 0, 64, 73
2, 189893, Control_c, 0, 64, 72
2, 189907, Control_c, 0, 64, 70
2, 189923, Control_c, 0, 64, 68
2, 189938, Control_c, 0, 64, 66
2, 189938, Note_on_c, 0, 48, 42
2, 189939, Note_on_c, 0, 57, 48
2, 189953, Control_c, 0, 64, 65
2, 189969, Control_c, 0, 64, 64
2, 189984, Control_c, 0, 64, 63
2, 189998, Control_c, 0, 64, 61
2, 190014, Control_c, 0, 64, 60
2, 190024, Note_on_c, 0, 64, 0
2, 190029, Control_c, 0, 64, 58
2, 190044, Control_c, 0, 64, 56
2, 190059, Control_c, 0, 64, 53
2, 190074, Control_c, 0, 64, 51
2, 190090, Control_c, 0, 64, 49
2, 190105, Control_c, 0, 64, 48
2, 190120, Control_c, 0, 64, 47
2, 190135, Control_c, 0, 64, 47
2, 190150, Control_c, 0, 64, 45
2, 190165, Control_c, 0, 64, 43
2, 190180, Control_c, 0, 64, 41
2, 190195, Control_c, 0, 64, 39
2, 190211, Control_c, 0, 64, 38
2, 190222, Note_on_c, 0, 45, 38
2, 190226, Control_c, 0, 64, 37
2, 190241, Control_c, 0, 64, 37
2, 190252, Note_on_c, 0, 66, 48
2, 190256, Control_c, 0, 64, 35
2, 190271, Control_c, 0, 64, 33
2, 190286, Note_on_c, 0, 67, 0
2, 190287, Control_c, 0, 64, 32
2, 190302, Control_c, 0, 64, 31
2, 190316, Control_c, 0, 64, 30
2, 190316, Note_on_c, 0, 48, 0
2, 190332, Control_c, 0, 64, 30
2, 190348, Control_c, 0, 64, 29
2, 190364, Control_c, 0, 64, 27
2, 190379, Control_c, 0, 64, 26
2, 190381, Note_on_c, 0, 64, 55
2, 190393, Control_c, 0, 64, 24
2, 190396, Note_on_c, 0, 66, 0
2, 190409, Control_c, 0, 64, 21
2, 190424, Control_c, 0, 64, 10
2, 190448, Control_c, 0, 64, 0
2, 190546, Note_on_c, 0, 66, 52
2, 190548, Note_on_c, 0, 50, 38
2, 190556, Note_on_c, 0, 62, 40
2, 190592, Note_on_c, 0, 64, 0
2, 190653, Note_on_c, 0, 45, 0
2, 190735, Note_on_c, 0, 57, 0
2, 190858, Note_on_c, 0, 48, 43
2, 190914, Note_on_c, 0, 50, 0
2, 191082, Control_c, 0, 64, 8
2, 191098, Control_c, 0, 64, 36
2, 191113, Control_c, 0, 64, 42
2, 191129, Control_c, 0, 64, 44
2, 191171, Note_on_c, 0, 47, 41
2, 191190, Control_c, 0, 64, 43
2, 191196, Note_on_c, 0, 67, 36
2, 191200, Note_on_c, 0, 55, 35
2, 191214, Control_c, 0, 64, 38
2, 191229, Control_c, 0, 64, 12
2, 191243, Control_c, 0, 64, 0
2, 191264, Note_on_c, 0, 62, 0
2, 191273, Note_on_c, 0, 48, 0
2, 191327, Note_on_c, 0, 66, 0
2, 191335, Control_c, 0, 64, 48
2, 191350, Control_c, 0, 64, 54
2, 191381, Control_c, 0, 64, 54
2, 191411, Control_c, 0, 64, 55
2, 191413, Note_on_c, 0, 55, 0
2, 191492, Note_on_c, 0, 62, 51
2, 191502, Control_c, 0, 64, 54
2, 191516, Control_c, 0, 64, 48
2, 191517, Note_on_c, 0, 50, 32
2, 191533, Control_c, 0, 64, 34
2, 191548, Control_c, 0, 64, 0
2, 191593, Note_on_c, 0, 67, 0
2, 191615, Note_on_c, 0, 47, 0
2, 191624, Control_c, 0, 64, 36
2, 191639, Control_c, 0, 64, 57
2, 191654, Control_c, 0, 64, 63
2, 191669, Control_c, 0, 64, 65
2, 191684, Control_c, 0, 64, 67
2, 191700, Control_c, 0, 64, 70
2, 191702, Note_on_c, 0, 62, 0
2, 191715, Control_c, 0, 64, 72
2, 191731, Control_c, 0, 64, 74
2, 191746, Control_c, 0, 64, 76
2, 191760, Control_c, 0, 64, 77
2, 191776, Control_c, 0, 64, 77
2, 191788, Note_on_c, 0, 55, 48
2, 191807, Control_c, 0, 64, 73
2, 191807, Note_on_c, 0, 62, 70
2, 191822, Control_c, 0, 64, 65
2, 191837, Control_c, 0, 64, 42
2, 191840, Note_on_c, 0, 50, 0
2, 191852, Control_c, 0, 64, 0
2, 191898, Control_c, 0, 64, 45
2, 191913, Control_c, 0, 64, 61
2, 191928, Control_c, 0, 64, 67
2, 191943, Control_c, 0, 64, 75
2, 191958, Control_c, 0, 64, 82
2, 191968, Note_on_c, 0, 62, 0
2, 191974, Control_c, 0, 64, 88
2, 191997, Control_c, 0, 64, 92
2, 192013, Control_c, 0, 64, 93
2, 192028, Control_c, 0, 64, 93
2, 192073, Control_c, 0, 64, 94
2, 192088, Control_c, 0, 64, 94
2, 192094, Note_on_c, 0, 54, 48
2, 192103, Control_c, 0, 64, 90
2, 192112, Note_on_c, 0, 71, 71
2, 192118, Control_c, 0, 64, 81
2, 192128, Note_on_c, 0, 62, 52
2, 192134, Control_c, 0, 64, 69
2, 192149, Control_c, 0, 64, 52
2, 192164, Control_c, 0, 64, 22
2, 192180, Control_c, 0, 64, 0
2, 192186, Note_on_c, 0, 55, 0
2, 192211, Control_c, 0, 64, 26
2, 192226, Control_c, 0, 64, 56
2, 192240, Control_c, 0, 64, 65
2, 192256, Control_c, 0, 64, 71
2, 192268, Note_on_c, 0, 54, 0
2, 192271, Control_c, 0, 64, 77
2, 192287, Control_c, 0, 64, 82
2, 192290, Note_on_c, 0, 62, 0
2, 192301, Control_c, 0, 64, 83
2, 192313, Note_on_c, 0, 71, 0
2, 192332, Control_c, 0, 64, 83
2, 192347, Control_c, 0, 64, 81
2, 192361, Control_c, 0, 64, 80
2, 192377, Control_c, 0, 64, 79
2, 192392, Control_c, 0, 64, 78
2, 192408, Control_c, 0, 64, 77
2, 192416, Note_on_c, 0, 55, 58
2, 192422, Control_c, 0, 64, 76
2, 192432, Note_on_c, 0, 52, 53
2, 192437, Control_c, 0, 64, 74
2, 192439, Note_on_c, 0, 71, 72
2, 192453, Control_c, 0, 64, 73
2, 192468, Control_c, 0, 64, 71
2, 192483, Control_c, 0, 64, 68
2, 192498, Control_c, 0, 64, 63
2, 192513, Control_c, 0, 64, 45
2, 192529, Control_c, 0, 64, 0
2, 192604, Control_c, 0, 64, 46
2, 192620, Control_c, 0, 64, 57
2, 192635, Control_c, 0, 64, 61
2, 192645, Note_on_c, 0, 71, 0
2, 192651, Control_c, 0, 64, 65
2, 192666, Control_c, 0, 64, 71
2, 192681, Control_c, 0, 64, 76
2, 192696, Control_c, 0, 64, 77
2, 192711, Control_c, 0, 64, 72
2, 192727, Control_c, 0, 64, 64
2, 192742, Control_c, 0, 64, 55
2, 192754, Note_on_c, 0, 79, 75
2, 192762, Note_on_c, 0, 71, 66
2, 192764, Control_c, 0, 64, 53
2, 192779, Control_c, 0, 64, 56
2, 192794, Control_c, 0, 64, 61
2, 192811, Control_c, 0, 64, 65
2, 192826, Control_c, 0, 64, 69
2, 192841, Control_c, 0, 64, 74
2, 192856, Control_c, 0, 64, 79
2, 192871, Control_c, 0, 64, 85
2, 192887, Control_c, 0, 64, 91
2, 192902, Control_c, 0, 64, 95
2, 192923, Note_on_c, 0, 71, 0
2, 192934, Note_on_c, 0, 79, 0
2, 192947, Control_c, 0, 64, 94
2, 192978, Control_c, 0, 64, 93
2, 192993, Control_c, 0, 64, 92
2, 193009, Control_c, 0, 64, 92
2, 193038, Control_c, 0, 64, 91
2, 193051, Note_on_c, 0, 59, 67
2, 193054, Control_c, 0, 64, 90
2, 193058, Note_on_c, 0, 64, 64
2, 193064, Note_on_c, 0, 79, 81
2, 193069, Control_c, 0, 64, 88
2, 193084, Control_c, 0, 64, 84
2, 193100, Control_c, 0, 64, 73
2, 193115, Control_c, 0, 64, 63
2, 193130, Control_c, 0, 64, 36
2, 193145, Control_c, 0, 64, 0
2, 193177, Note_on_c, 0, 55, 0
2, 193191, Control_c, 0, 64, 10
2, 193205, Control_c, 0, 64, 53
2, 193221, Control_c, 0, 64, 61
2, 193236, Control_c, 0, 64, 64
2, 193252, Control_c, 0, 64, 66
2, 193266, Control_c, 0, 64, 69
2, 193271, Note_on_c, 0, 79, 0
2, 193281, Control_c, 0, 64, 73
2, 193283, Note_on_c, 0, 52, 0
2, 193297, Control_c, 0, 64, 78
2, 193312, Control_c, 0, 64, 79
2, 193328, Control_c, 0, 64, 75
2, 193342, Control_c, 0, 64, 66
2, 193357, Control_c, 0, 64, 52
2, 193370, Note_on_c, 0, 79, 86
2, 193373, Control_c, 0, 64, 27
2, 193388, Control_c, 0, 64, 20
2, 193403, Control_c, 0, 64, 19
2, 193418, Control_c, 0, 64, 28
2, 193433, Control_c, 0, 64, 47
2, 193449, Control_c, 0, 64, 58
2, 193464, Control_c, 0, 64, 62
2, 193479, Control_c, 0, 64, 65
2, 193495, Control_c, 0, 64, 69
2, 193517, Control_c, 0, 64, 73
2, 193533, Control_c, 0, 64, 76
2, 193547, Control_c, 0, 64, 79
2, 193552, Note_on_c, 0, 64, 0
2, 193562, Control_c, 0, 64, 82
2, 193578, Control_c, 0, 64, 84
2, 193592, Control_c, 0, 64, 84
2, 193635, Note_on_c, 0, 59, 0
2, 193640, Control_c, 0, 64, 84
2, 193655, Control_c, 0, 64, 83
2, 193670, Control_c, 0, 64, 83
2, 193685, Control_c, 0, 64, 82
2, 193704, Note_on_c, 0, 73, 72
2, 193729, Note_on_c, 0, 67, 51
2, 193731, Control_c, 0, 64, 82
2, 193791, Control_c, 0, 64, 82
2, 193880, Note_on_c, 0, 79, 0
2, 193885, Control_c, 0, 64, 82
2, 193900, Control_c, 0, 64, 81
2, 193914, Control_c, 0, 64, 80
2, 193930, Control_c, 0, 64, 79
2, 194036, Note_on_c, 0, 52, 63
2, 194049, Note_on_c, 0, 50, 61
2, 194066, Control_c, 0, 64, 77
2, 194082, Control_c, 0, 64, 70
2, 194097, Control_c, 0, 64, 61
2, 194111, Control_c, 0, 64, 39
2, 194127, Control_c, 0, 64, 12
2, 194142, Control_c, 0, 64, 0
2, 194157, Control_c, 0, 64, 22
2, 194173, Control_c, 0, 64, 46
2, 194187, Control_c, 0, 64, 59
2, 194203, Control_c, 0, 64, 65
2, 194214, Note_on_c, 0, 50, 0
2, 194218, Control_c, 0, 64, 69
2, 194233, Control_c, 0, 64, 74
2, 194249, Control_c, 0, 64, 77
2, 194264, Control_c, 0, 64, 76
2, 194280, Control_c, 0, 64, 75
2, 194302, Control_c, 0, 64, 74
2, 194316, Control_c, 0, 64, 72
2, 194332, Control_c, 0, 64, 70
2, 194347, Control_c, 0, 64, 69
2, 194363, Control_c, 0, 64, 67
2, 194368, Note_on_c, 0, 57, 60
2, 194377, Note_on_c, 0, 76, 63
2, 194378, Control_c, 0, 64, 66
2, 194382, Note_on_c, 0, 49, 53
2, 194408, Control_c, 0, 64, 65
2, 194423, Control_c, 0, 64, 64
2, 194440, Control_c, 0, 64, 59
2, 194455, Control_c, 0, 64, 47
2, 194470, Control_c, 0, 64, 0
2, 194475, Note_on_c, 0, 52, 0
2, 194482, Note_on_c, 0, 73, 0
2, 194492, Note_on_c, 0, 67, 0
2, 194561, Control_c, 0, 64, 54
2, 194576, Control_c, 0, 64, 62
2, 194591, Control_c, 0, 64, 65
2, 194602, Note_on_c, 0, 57, 0
2, 194608, Control_c, 0, 64, 66
2, 194622, Control_c, 0, 64, 67
2, 194667, Control_c, 0, 64, 66
2, 194729, Control_c, 0, 64, 67
2, 194732, Note_on_c, 0, 45, 51
2, 194735, Note_on_c, 0, 55, 60
2, 194742, Note_on_c, 0, 61, 57
2, 194775, Control_c, 0, 64, 66
2, 194787, Note_on_c, 0, 49, 0
2, 194789, Control_c, 0, 64, 63
2, 194805, Control_c, 0, 64, 51
2, 194820, Control_c, 0, 64, 26
2, 194835, Control_c, 0, 64, 15
2, 194851, Control_c, 0, 64, 18
2, 194866, Control_c, 0, 64, 39
2, 194881, Control_c, 0, 64, 53
2, 194895, Note_on_c, 0, 55, 0
2, 194896, Control_c, 0, 64, 59
2, 194911, Control_c, 0, 64, 63
2, 194927, Control_c, 0, 64, 64
2, 194942, Control_c, 0, 64, 65
2, 195003, Control_c, 0, 64, 65
2, 195032, Control_c, 0, 64, 64
2, 195069, Note_on_c, 0, 66, 58
2, 195074, Note_on_c, 0, 61, 0
2, 195076, Note_on_c, 0, 54, 49
2, 195077, Note_on_c, 0, 50, 50
2, 195101, Control_c, 0, 64, 63
2, 195116, Control_c, 0, 64, 62
2, 195132, Control_c, 0, 64, 60
2, 195147, Control_c, 0, 64, 58
2, 195162, Control_c, 0, 64, 55
2, 195177, Control_c, 0, 64, 53
2, 195192, Control_c, 0, 64, 52
2, 195205, Note_on_c, 0, 45, 0
2, 195208, Control_c, 0, 64, 51
2, 195208, Note_on_c, 0, 76, 0
2, 195223, Control_c, 0, 64, 50
2, 195237, Control_c, 0, 64, 50
2, 195253, Control_c, 0, 64, 49
2, 195269, Control_c, 0, 64, 48
2, 195330, Control_c, 0, 64, 47
2, 195345, Control_c, 0, 64, 42
2, 195361, Control_c, 0, 64, 31
2, 195373, Note_on_c, 0, 69, 64
2, 195376, Control_c, 0, 64, 0
2, 195384, Note_on_c, 0, 48, 49
2, 195392, Note_on_c, 0, 64, 53
2, 195466, Control_c, 0, 64, 16
2, 195482, Control_c, 0, 64, 50
2, 195497, Control_c, 0, 64, 57
2, 195502, Note_on_c, 0, 66, 0
2, 195511, Control_c, 0, 64, 61
2, 195517, Note_on_c, 0, 50, 0
2, 195527, Control_c, 0, 64, 63
2, 195542, Control_c, 0, 64, 65
2, 195548, Note_on_c, 0, 64, 0
2, 195557, Control_c, 0, 64, 67
2, 195573, Control_c, 0, 64, 68
2, 195588, Control_c, 0, 64, 70
2, 195603, Control_c, 0, 64, 70
2, 195618, Control_c, 0, 64, 71
2, 195649, Control_c, 0, 64, 71
2, 195673, Note_on_c, 0, 74, 68
2, 195680, Control_c, 0, 64, 70
2, 195686, Note_on_c, 0, 47, 48
2, 195693, Note_on_c, 0, 62, 41
2, 195695, Control_c, 0, 64, 66
2, 195710, Control_c, 0, 64, 57
2, 195725, Control_c, 0, 64, 27
2, 195740, Control_c, 0, 64, 17
2, 195753, Note_on_c, 0, 48, 0
2, 195768, Note_on_c, 0, 69, 0
2, 195771, Control_c, 0, 64, 35
2, 195786, Control_c, 0, 64, 51
2, 195801, Control_c, 0, 64, 59
2, 195816, Control_c, 0, 64, 64
2, 195838, Control_c, 0, 64, 68
2, 195854, Control_c, 0, 64, 72
2, 195869, Control_c, 0, 64, 75
2, 195885, Control_c, 0, 64, 76
2, 195900, Control_c, 0, 64, 72
2, 195914, Control_c, 0, 64, 66
2, 195930, Control_c, 0, 64, 63
2, 195945, Control_c, 0, 64, 65
2, 195961, Control_c, 0, 64, 68
2, 195965, Note_on_c, 0, 45, 48
2, 195973, Note_on_c, 0, 72, 70
2, 195976, Control_c, 0, 64, 71
2, 195991, Control_c, 0, 64, 73
2, 196006, Control_c, 0, 64, 75
2, 196019, Note_on_c, 0, 74, 0
2, 196021, Control_c, 0, 64, 77
2, 196036, Control_c, 0, 64, 78
2, 196052, Control_c, 0, 64, 78
2, 196066, Control_c, 0, 64, 79
2, 196072, Note_on_c, 0, 45, 0
2, 196083, Control_c, 0, 64, 80
2, 196089, Note_on_c, 0, 47, 0
2, 196098, Control_c, 0, 64, 80
2, 196129, Control_c, 0, 64, 80
2, 196144, Control_c, 0, 64, 79
2, 196158, Control_c, 0, 64, 78
2, 196174, Control_c, 0, 64, 77
2, 196189, Control_c, 0, 64, 76
2, 196205, Control_c, 0, 64, 74
2, 196220, Control_c, 0, 64, 71
2, 196234, Control_c, 0, 64, 69
2, 196250, Control_c, 0, 64, 66
2, 196264, Note_on_c, 0, 43, 54
2, 196265, Control_c, 0, 64, 65
2, 196281, Control_c, 0, 64, 64
2, 196287, Note_on_c, 0, 71, 58
2, 196296, Control_c, 0, 64, 64
2, 196310, Control_c, 0, 64, 63
2, 196326, Control_c, 0, 64, 61
2, 196341, Control_c, 0, 64, 58
2, 196355, Control_c, 0, 64, 53
2, 196362, Note_on_c, 0, 72, 0
2, 196371, Control_c, 0, 64, 42
2, 196386, Control_c, 0, 64, 13
2, 196402, Control_c, 0, 64, 0
2, 196562, Note_on_c, 0, 47, 59
2, 196649, Note_on_c, 0, 43, 0
2, 196652, Control_c, 0, 64, 32
2, 196667, Control_c, 0, 64, 49
2, 196683, Control_c, 0, 64, 55
2, 196695, Note_on_c, 0, 54, 0
2, 196698, Control_c, 0, 64, 59
2, 196712, Control_c, 0, 64, 62
2, 196728, Control_c, 0, 64, 63
2, 196743, Control_c, 0, 64, 64
2, 196758, Control_c, 0, 64, 65
2, 196774, Control_c, 0, 64, 65
2, 196820, Control_c, 0, 64, 65
2, 196850, Control_c, 0, 64, 64
2, 196860, Note_on_c, 0, 52, 55
2, 196865, Control_c, 0, 64, 64
2, 196877, Note_on_c, 0, 44, 46
2, 196881, Control_c, 0, 64, 63
2, 196896, Control_c, 0, 64, 63
2, 196911, Control_c, 0, 64, 62
2, 196927, Control_c, 0, 64, 61
2, 196942, Control_c, 0, 64, 61
2, 196957, Control_c, 0, 64, 60
2, 196966, Note_on_c, 0, 47, 0
2, 196973, Control_c, 0, 64, 58
2, 196988, Control_c, 0, 64, 57
2, 197018, Control_c, 0, 64, 57
2, 197033, Control_c, 0, 64, 56
2, 197049, Control_c, 0, 64, 55
2, 197064, Control_c, 0, 64, 54
2, 197078, Control_c, 0, 64, 53
2, 197109, Control_c, 0, 64, 53
2, 197139, Control_c, 0, 64, 50
2, 197154, Control_c, 0, 64, 46
2, 197165, Note_on_c, 0, 50, 51
2, 197170, Control_c, 0, 64, 38
2, 197175, Note_on_c, 0, 59, 58
2, 197185, Control_c, 0, 64, 0
2, 197261, Control_c, 0, 64, 21
2, 197263, Note_on_c, 0, 62, 0
2, 197275, Control_c, 0, 64, 45
2, 197291, Control_c, 0, 64, 53
2, 197306, Control_c, 0, 64, 56
2, 197313, Note_on_c, 0, 52, 0
2, 197322, Control_c, 0, 64, 59
2, 197337, Control_c, 0, 64, 60
2, 197347, Note_on_c, 0, 44, 0
2, 197360, Control_c, 0, 64, 61
2, 197375, Control_c, 0, 64, 61
2, 197466, Control_c, 0, 64, 61
2, 197481, Note_on_c, 0, 49, 51
2, 197482, Control_c, 0, 64, 58
2, 197484, Note_on_c, 0, 64, 58
2, 197493, Note_on_c, 0, 45, 42
2, 197496, Control_c, 0, 64, 51
2, 197511, Control_c, 0, 64, 24
2, 197527, Control_c, 0, 64, 0
2, 197577, Note_on_c, 0, 50, 0
2, 197603, Control_c, 0, 64, 19
2, 197618, Control_c, 0, 64, 55
2, 197628, Note_on_c, 0, 59, 0
2, 197633, Control_c, 0, 64, 61
2, 197649, Control_c, 0, 64, 64
2, 197664, Control_c, 0, 64, 66
2, 197678, Control_c, 0, 64, 69
2, 197678, Note_on_c, 0, 64, 0
2, 197694, Control_c, 0, 64, 71
2, 197709, Control_c, 0, 64, 72
2, 197725, Control_c, 0, 64, 73
2, 197755, Control_c, 0, 64, 73
2, 197771, Control_c, 0, 64, 73
2, 197777, Note_on_c, 0, 50, 49
2, 197786, Control_c, 0, 64, 68
2, 197802, Control_c, 0, 64, 59
2, 197803, Note_on_c, 0, 64, 63
2, 197814, Note_on_c, 0, 62, 40
2, 197817, Control_c, 0, 64, 31
2, 197831, Control_c, 0, 64, 0
2, 197862, Control_c, 0, 64, 16
2, 197877, Control_c, 0, 64, 45
2, 197878, Note_on_c, 0, 49, 0
2, 197893, Control_c, 0, 64, 57
2, 197893, Note_on_c, 0, 71, 0
2, 197908, Control_c, 0, 64, 63
2, 197923, Control_c, 0, 64, 66
2, 197932, Note_on_c, 0, 62, 0
2, 197938, Control_c, 0, 64, 69
2, 197953, Control_c, 0, 64, 72
2, 197969, Control_c, 0, 64, 73
2, 197983, Control_c, 0, 64, 74
2, 197998, Control_c, 0, 64, 73
2, 198014, Control_c, 0, 64, 71
2, 198029, Control_c, 0, 64, 70
2, 198045, Control_c, 0, 64, 69
2, 198059, Control_c, 0, 64, 67
2, 198074, Control_c, 0, 64, 65
2, 198090, Control_c, 0, 64, 63
2, 198105, Control_c, 0, 64, 62
2, 198112, Note_on_c, 0, 52, 40
2, 198128, Control_c, 0, 64, 61
2, 198128, Note_on_c, 0, 69, 56
2, 198143, Control_c, 0, 64, 60
2, 198145, Note_on_c, 0, 61, 47
2, 198158, Control_c, 0, 64, 58
2, 198174, Control_c, 0, 64, 55
2, 198188, Control_c, 0, 64, 50
2, 198204, Control_c, 0, 64, 44
2, 198219, Control_c, 0, 64, 31
2, 198234, Control_c, 0, 64, 0
2, 198238, Note_on_c, 0, 64, 0
2, 198260, Note_on_c, 0, 50, 0
2, 198310, Control_c, 0, 64, 30
2, 198326, Control_c, 0, 64, 46
2, 198340, Control_c, 0, 64, 53
2, 198355, Control_c, 0, 64, 57
2, 198371, Control_c, 0, 64, 60
2, 198385, Control_c, 0, 64, 62
2, 198401, Control_c, 0, 64, 63
2, 198416, Control_c, 0, 64, 65
2, 198430, Note_on_c, 0, 67, 49
2, 198431, Control_c, 0, 64, 66
2, 198447, Control_c, 0, 64, 68
2, 198447, Note_on_c, 0, 45, 0
2, 198461, Control_c, 0, 64, 71
2, 198476, Control_c, 0, 64, 73
2, 198492, Control_c, 0, 64, 74
2, 198506, Control_c, 0, 64, 74
2, 198521, Note_on_c, 0, 69, 0
2, 198569, Control_c, 0, 64, 74
2, 198599, Control_c, 0, 64, 73
2, 198645, Control_c, 0, 64, 73
2, 198660, Control_c, 0, 64, 72
2, 198675, Control_c, 0, 64, 71
2, 198690, Control_c, 0, 64, 70
2, 198705, Control_c, 0, 64, 70
2, 198721, Control_c, 0, 64, 69
2, 198722, Note_on_c, 0, 46, 43
2, 198736, Control_c, 0, 64, 67
2, 198737, Note_on_c, 0, 66, 54
2, 198751, Control_c, 0, 64, 66
2, 198766, Control_c, 0, 64, 64
2, 198798, Note_on_c, 0, 67, 0
2, 198812, Control_c, 0, 64, 64
2, 198826, Control_c, 0, 64, 63
2, 198842, Control_c, 0, 64, 62
2, 198857, Control_c, 0, 64, 61
2, 198872, Control_c, 0, 64, 60
2, 198895, Control_c, 0, 64, 59
2, 198910, Control_c, 0, 64, 57
2, 198926, Control_c, 0, 64, 55
2, 198933, Note_on_c, 0, 52, 0
2, 198941, Control_c, 0, 64, 54
2, 198956, Control_c, 0, 64, 52
2, 198972, Control_c, 0, 64, 50
2, 198986, Control_c, 0, 64, 46
2, 199002, Control_c, 0, 64, 39
2, 199017, Control_c, 0, 64, 25
2, 199031, Control_c, 0, 64, 0
2, 199043, Note_on_c, 0, 49, 46
2, 199107, Control_c, 0, 64, 31
2, 199123, Control_c, 0, 64, 55
2, 199138, Control_c, 0, 64, 61
2, 199152, Control_c, 0, 64, 64
2, 199168, Control_c, 0, 64, 67
2, 199183, Control_c, 0, 64, 70
2, 199198, Control_c, 0, 64, 71
2, 199214, Control_c, 0, 64, 72
2, 199290, Control_c, 0, 64, 71
2, 199305, Control_c, 0, 64, 71
2, 199321, Note_on_c, 0, 54, 35
2, 199342, Note_on_c, 0, 73, 56
2, 199367, Control_c, 0, 64, 70
2, 199382, Control_c, 0, 64, 69
2, 199397, Control_c, 0, 64, 64
2, 199413, Control_c, 0, 64, 48
2, 199428, Control_c, 0, 64, 30
2, 199443, Control_c, 0, 64, 29
2, 199458, Control_c, 0, 64, 30
2, 199461, Note_on_c, 0, 49, 0
2, 199473, Control_c, 0, 64, 45
2, 199483, Note_on_c, 0, 61, 0
2, 199489, Control_c, 0, 64, 57
2, 199504, Control_c, 0, 64, 64
2, 199519, Control_c, 0, 64, 67
2, 199534, Control_c, 0, 64, 71
2, 199549, Control_c, 0, 64, 73
2, 199565, Control_c, 0, 64, 74
2, 199580, Control_c, 0, 64, 74
2, 199625, Control_c, 0, 64, 72
2, 199629, Note_on_c, 0, 66, 0
2, 199634, Note_on_c, 0, 61, 55
2, 199635, Note_on_c, 0, 52, 40
2, 199641, Control_c, 0, 64, 67
2, 199656, Control_c, 0, 64, 59
2, 199678, Control_c, 0, 64, 50
2, 199694, Control_c, 0, 64, 49
2, 199709, Control_c, 0, 64, 54
2, 199725, Control_c, 0, 64, 62
2, 199740, Control_c, 0, 64, 67
2, 199750, Note_on_c, 0, 54, 0
2, 199754, Control_c, 0, 64, 73
2, 199770, Control_c, 0, 64, 78
2, 199785, Control_c, 0, 64, 81
2, 199790, Note_on_c, 0, 46, 0
2, 199799, Control_c, 0, 64, 82
2, 199830, Control_c, 0, 64, 81
2, 199846, Control_c, 0, 64, 80
2, 199861, Control_c, 0, 64, 80
2, 199875, Control_c, 0, 64, 79
2, 199891, Control_c, 0, 64, 77
2, 199906, Control_c, 0, 64, 76
2, 199922, Control_c, 0, 64, 76
2, 199929, Note_on_c, 0, 47, 42
2, 199944, Note_on_c, 0, 50, 33
2, 199951, Control_c, 0, 64, 75
2, 199956, Note_on_c, 0, 66, 56
2, 199967, Control_c, 0, 64, 73
2, 199982, Control_c, 0, 64, 69
2, 199996, Control_c, 0, 64, 61
2, 200012, Control_c, 0, 64, 43
2, 200027, Control_c, 0, 64, 0
2, 200068, Note_on_c, 0, 61, 0
2, 200088, Control_c, 0, 64, 52
2, 200090, Note_on_c, 0, 52, 0
2, 200103, Control_c, 0, 64, 63
2, 200118, Control_c, 0, 64, 68
2, 200134, Control_c, 0, 64, 73
2, 200149, Control_c, 0, 64, 74
2, 200177, Note_on_c, 0, 66, 0
2, 200180, Control_c, 0, 64, 75
2, 200271, Control_c, 0, 64, 75
2, 200287, Control_c, 0, 64, 75
2, 200291, Note_on_c, 0, 66, 67
2, 200300, Note_on_c, 0, 64, 44
2, 200302, Control_c, 0, 64, 71
2, 200317, Control_c, 0, 64, 64
2, 200333, Control_c, 0, 64, 47
2, 200348, Control_c, 0, 64, 32
2, 200364, Control_c, 0, 64, 30
2, 200378, Control_c, 0, 64, 33
2, 200393, Control_c, 0, 64, 50
2, 200405, Note_on_c, 0, 73, 0
2, 200409, Control_c, 0, 64, 62
2, 200430, Control_c, 0, 64, 68
2, 200446, Control_c, 0, 64, 77
2, 200456, Note_on_c, 0, 64, 0
2, 200461, Control_c, 0, 64, 83
2, 200476, Control_c, 0, 64, 86
2, 200492, Control_c, 0, 64, 85
2, 200507, Control_c, 0, 64, 85
2, 200538, Control_c, 0, 64, 84
2, 200568, Control_c, 0, 64, 84
2, 200583, Control_c, 0, 64, 82
2, 200598, Control_c, 0, 64, 80
2, 200602, Note_on_c, 0, 71, 66
2, 200614, Control_c, 0, 64, 77
2, 200617, Note_on_c, 0, 62, 48
2, 200629, Control_c, 0, 64, 71
2, 200644, Control_c, 0, 64, 63
2, 200659, Control_c, 0, 64, 45
2, 200674, Control_c, 0, 64, 0
2, 200704, Note_on_c, 0, 66, 0
2, 200735, Control_c, 0, 64, 39
2, 200749, Control_c, 0, 64, 58
2, 200765, Control_c, 0, 64, 61
2, 200794, Control_c, 0, 64, 61
2, 200871, Control_c, 0, 64, 61
2, 200888, Note_on_c, 0, 54, 44
2, 200901, Control_c, 0, 64, 60
2, 200905, Note_on_c, 0, 69, 64
2, 200916, Control_c, 0, 64, 56
2, 200932, Control_c, 0, 64, 47
2, 200947, Control_c, 0, 64, 33
2, 200963, Control_c, 0, 64, 13
2, 200978, Control_c, 0, 64, 0
2, 200991, Note_on_c, 0, 71, 0
2, 201009, Control_c, 0, 64, 28
2, 201024, Control_c, 0, 64, 43
2, 201033, Note_on_c, 0, 50, 0
2, 201038, Control_c, 0, 64, 46
2, 201131, Control_c, 0, 64, 46
2, 201145, Control_c, 0, 64, 45
2, 201161, Control_c, 0, 64, 43
2, 201176, Control_c, 0, 64, 41
2, 201198, Control_c, 0, 64, 39
2, 201211, Note_on_c, 0, 59, 59
2, 201214, Control_c, 0, 64, 37
2, 201228, Control_c, 0, 64, 36
2, 201244, Note_on_c, 0, 67, 65
2, 201259, Control_c, 0, 64, 37
2, 201274, Control_c, 0, 64, 41
2, 201290, Control_c, 0, 64, 50
2, 201305, Control_c, 0, 64, 57
2, 201321, Control_c, 0, 64, 61
2, 201327, Note_on_c, 0, 69, 0
2, 201336, Control_c, 0, 64, 64
2, 201336, Note_on_c, 0, 54, 0
2, 201351, Control_c, 0, 64, 67
2, 201366, Control_c, 0, 64, 70
2, 201381, Control_c, 0, 64, 73
2, 201396, Control_c, 0, 64, 75
2, 201406, Note_on_c, 0, 47, 0
2, 201433, Note_on_c, 0, 59, 0
2, 201442, Control_c, 0, 64, 73
2, 201457, Control_c, 0, 64, 72
2, 201472, Control_c, 0, 64, 71
2, 201487, Control_c, 0, 64, 70
2, 201502, Control_c, 0, 64, 67
2, 201518, Control_c, 0, 64, 65
2, 201534, Control_c, 0, 64, 64
2, 201555, Note_on_c, 0, 47, 51
2, 201558, Note_on_c, 0, 57, 57
2, 201594, Control_c, 0, 64, 63
2, 201609, Control_c, 0, 64, 59
2, 201624, Control_c, 0, 64, 51
2, 201639, Control_c, 0, 64, 37
2, 201655, Control_c, 0, 64, 16
2, 201670, Control_c, 0, 64, 0
2, 201685, Control_c, 0, 64, 16
2, 201700, Control_c, 0, 64, 42
2, 201715, Control_c, 0, 64, 57
2, 201731, Control_c, 0, 64, 62
2, 201746, Control_c, 0, 64, 65
2, 201753, Note_on_c, 0, 57, 0
2, 201761, Control_c, 0, 64, 68
2, 201776, Control_c, 0, 64, 71
2, 201791, Control_c, 0, 64, 72
2, 201838, Control_c, 0, 64, 72
2, 201854, Control_c, 0, 64, 71
2, 201868, Control_c, 0, 64, 70
2, 201898, Note_on_c, 0, 55, 51
2, 201899, Control_c, 0, 64, 69
2, 201905, Note_on_c, 0, 52, 54
2, 201913, Control_c, 0, 64, 68
2, 201929, Control_c, 0, 64, 66
2, 201944, Control_c, 0, 64, 64
2, 201968, Control_c, 0, 64, 62
2, 201983, Control_c, 0, 64, 61
2, 201988, Note_on_c, 0, 47, 0
2, 201997, Control_c, 0, 64, 60
2, 202013, Control_c, 0, 64, 58
2, 202028, Control_c, 0, 64, 56
2, 202043, Control_c, 0, 64, 54
2, 202058, Control_c, 0, 64, 52
2, 202073, Control_c, 0, 64, 51
2, 202089, Control_c, 0, 64, 50
2, 202104, Control_c, 0, 64, 49
2, 202118, Control_c, 0, 64, 47
2, 202134, Control_c, 0, 64, 45
2, 202149, Control_c, 0, 64, 42
2, 202165, Control_c, 0, 64, 39
2, 202180, Control_c, 0, 64, 35
2, 202194, Control_c, 0, 64, 33
2, 202194, Note_on_c, 0, 50, 52
2, 202201, Note_on_c, 0, 59, 57
2, 202210, Control_c, 0, 64, 30
2, 202225, Control_c, 0, 64, 28
2, 202241, Control_c, 0, 64, 25
2, 202256, Control_c, 0, 64, 21
2, 202271, Control_c, 0, 64, 15
2, 202276, Note_on_c, 0, 52, 0
2, 202287, Control_c, 0, 64, 0
2, 202288, Note_on_c, 0, 62, 0
2, 202499, Note_on_c, 0, 64, 53
2, 202500, Note_on_c, 0, 49, 57
2, 202587, Note_on_c, 0, 50, 0
2, 202602, Note_on_c, 0, 59, 0
2, 202814, Note_on_c, 0, 62, 55
2, 202816, Note_on_c, 0, 52, 60
2, 202890, Note_on_c, 0, 55, 0
2, 202913, Note_on_c, 0, 64, 0
2, 202957, Note_on_c, 0, 49, 0
2, 203113, Note_on_c, 0, 57, 64
2, 203113, Note_on_c, 0, 61, 66
2, 203178, Note_on_c, 0, 62, 0
2, 203249, Note_on_c, 0, 52, 0
2, 203407, Note_on_c, 0, 55, 63
2, 203408, Note_on_c, 0, 64, 70
2, 203449, Note_on_c, 0, 67, 0
2, 203514, Note_on_c, 0, 57, 0
2, 203693, Note_on_c, 0, 54, 64
2, 203704, Note_on_c, 0, 69, 70
2, 203792, Note_on_c, 0, 55, 0
2, 203813, Note_on_c, 0, 61, 0
2, 203827, Note_on_c, 0, 64, 0
2, 204008, Note_on_c, 0, 57, 70
2, 204008, Note_on_c, 0, 67, 66
2, 204025, Note_on_c, 0, 61, 52
2, 204063, Note_on_c, 0, 69, 0
2, 204095, Note_on_c, 0, 54, 0
2, 204137, Control_c, 0, 64, 26
2, 204152, Control_c, 0, 64, 37
2, 204167, Control_c, 0, 64, 42
2, 204183, Control_c, 0, 64, 44
2, 204198, Control_c, 0, 64, 45
2, 204203, Note_on_c, 0, 61, 0
2, 204212, Control_c, 0, 64, 46
2, 204228, Control_c, 0, 64, 46
2, 204243, Control_c, 0, 64, 47
2, 204310, Note_on_c, 0, 62, 69
2, 204325, Note_on_c, 0, 66, 70
2, 204388, Note_on_c, 0, 67, 0
2, 204400, Note_on_c, 0, 57, 0
2, 204585, Control_c, 0, 64, 46
2, 204600, Control_c, 0, 64, 46
2, 204600, Note_on_c, 0, 61, 77
2, 204616, Control_c, 0, 64, 44
2, 204618, Note_on_c, 0, 69, 70
2, 204627, Note_on_c, 0, 64, 56
2, 204631, Control_c, 0, 64, 41
2, 204646, Control_c, 0, 64, 36
2, 204661, Control_c, 0, 64, 33
2, 204676, Control_c, 0, 64, 32
2, 204701, Note_on_c, 0, 62, 0
2, 204704, Note_on_c, 0, 66, 0
2, 204707, Control_c, 0, 64, 34
2, 204721, Control_c, 0, 64, 46
2, 204737, Control_c, 0, 64, 56
2, 204752, Control_c, 0, 64, 63
2, 204764, Note_on_c, 0, 64, 0
2, 204767, Control_c, 0, 64, 66
2, 204783, Control_c, 0, 64, 69
2, 204798, Control_c, 0, 64, 73
2, 204813, Control_c, 0, 64, 76
2, 204829, Control_c, 0, 64, 77
2, 204874, Control_c, 0, 64, 77
2, 204889, Control_c, 0, 64, 76
2, 204904, Control_c, 0, 64, 76
2, 204910, Note_on_c, 0, 74, 81
2, 204913, Note_on_c, 0, 59, 71
2, 204919, Control_c, 0, 64, 75
2, 204920, Note_on_c, 0, 62, 65
2, 204935, Control_c, 0, 64, 75
2, 204950, Control_c, 0, 64, 74
2, 204965, Control_c, 0, 64, 73
2, 204980, Control_c, 0, 64, 72
2, 204994, Note_on_c, 0, 69, 0
2, 204995, Control_c, 0, 64, 71
2, 205000, Note_on_c, 0, 61, 0
2, 205010, Control_c, 0, 64, 70
2, 205033, Control_c, 0, 64, 68
2, 205048, Control_c, 0, 64, 66
2, 205064, Control_c, 0, 64, 66
2, 205079, Control_c, 0, 64, 65
2, 205095, Control_c, 0, 64, 64
2, 205110, Control_c, 0, 64, 63
2, 205125, Control_c, 0, 64, 61
2, 205141, Control_c, 0, 64, 59
2, 205156, Control_c, 0, 64, 58
2, 205171, Control_c, 0, 64, 55
2, 205187, Control_c, 0, 64, 53
2, 205201, Control_c, 0, 64, 51
2, 205217, Control_c, 0, 64, 49
2, 205220, Note_on_c, 0, 57, 72
2, 205226, Note_on_c, 0, 66, 73
2, 205226, Note_on_c, 0, 73, 81
2, 205232, Control_c, 0, 64, 45
2, 205247, Control_c, 0, 64, 40
2, 205263, Control_c, 0, 64, 32
2, 205278, Control_c, 0, 64, 0
2, 205280, Note_on_c, 0, 74, 0
2, 205284, Note_on_c, 0, 59, 0
2, 205366, Note_on_c, 0, 62, 0
2, 205391, Note_on_c, 0, 66, 0
2, 205505, Note_on_c, 0, 55, 63
2, 205531, Note_on_c, 0, 71, 78
2, 205610, Note_on_c, 0, 57, 0
2, 205639, Note_on_c, 0, 73, 0
2, 205749, Control_c, 0, 64, 12
2, 205764, Control_c, 0, 64, 37
2, 205780, Control_c, 0, 64, 45
2, 205802, Control_c, 0, 64, 50
2, 205805, Note_on_c, 0, 54, 52
2, 205818, Control_c, 0, 64, 53
2, 205820, Note_on_c, 0, 74, 83
2, 205829, Note_on_c, 0, 69, 69
2, 205832, Control_c, 0, 64, 56
2, 205847, Control_c, 0, 64, 59
2, 205863, Control_c, 0, 64, 62
2, 205867, Note_on_c, 0, 71, 0
2, 205877, Control_c, 0, 64, 65
2, 205884, Note_on_c, 0, 55, 0
2, 205892, Control_c, 0, 64, 69
2, 205910, Control_c, 0, 64, 76
2, 205925, Control_c, 0, 64, 81
2, 205940, Control_c, 0, 64, 86
2, 205955, Control_c, 0, 64, 90
2, 205969, Note_on_c, 0, 69, 0
2, 205970, Control_c, 0, 64, 94
2, 205976, Note_on_c, 0, 74, 0
2, 205985, Control_c, 0, 64, 95
2, 206031, Control_c, 0, 64, 95
2, 206046, Control_c, 0, 64, 94
2, 206061, Control_c, 0, 64, 93
2, 206076, Control_c, 0, 64, 91
2, 206091, Control_c, 0, 64, 89
2, 206106, Note_on_c, 0, 52, 51
2, 206107, Control_c, 0, 64, 88
2, 206122, Control_c, 0, 64, 87
2, 206123, Note_on_c, 0, 79, 93
2, 206136, Note_on_c, 0, 67, 72
2, 206138, Control_c, 0, 64, 85
2, 206152, Control_c, 0, 64, 82
2, 206167, Control_c, 0, 64, 78
2, 206183, Control_c, 0, 64, 75
2, 206198, Control_c, 0, 64, 74
2, 206210, Note_on_c, 0, 54, 0
2, 206213, Control_c, 0, 64, 73
2, 206229, Control_c, 0, 64, 71
2, 206244, Control_c, 0, 64, 67
2, 206260, Control_c, 0, 64, 64
2, 206274, Control_c, 0, 64, 62
2, 206289, Control_c, 0, 64, 61
2, 206305, Control_c, 0, 64, 60
2, 206320, Control_c, 0, 64, 57
2, 206336, Control_c, 0, 64, 52
2, 206350, Control_c, 0, 64, 45
2, 206365, Control_c, 0, 64, 39
2, 206381, Control_c, 0, 64, 34
2, 206395, Control_c, 0, 64, 25
2, 206403, Note_on_c, 0, 50, 56
2, 206410, Control_c, 0, 64, 0
2, 206412, Note_on_c, 0, 71, 78
2, 206484, Note_on_c, 0, 52, 0
2, 206518, Note_on_c, 0, 67, 0
2, 206715, Note_on_c, 0, 76, 78
2, 206727, Note_on_c, 0, 49, 65
2, 206834, Note_on_c, 0, 71, 0
2, 206861, Note_on_c, 0, 50, 0
2, 207028, Note_on_c, 0, 47, 64
2, 207029, Note_on_c, 0, 74, 79
2, 207118, Control_c, 0, 64, 10
2, 207133, Control_c, 0, 64, 47
2, 207149, Control_c, 0, 64, 56
2, 207159, Note_on_c, 0, 49, 0
2, 207163, Control_c, 0, 64, 63
2, 207179, Control_c, 0, 64, 66
2, 207194, Control_c, 0, 64, 70
2, 207209, Control_c, 0, 64, 74
2, 207225, Control_c, 0, 64, 76
2, 207281, Note_on_c, 0, 76, 0
2, 207315, Control_c, 0, 64, 75
2, 207326, Note_on_c, 0, 45, 68
2, 207330, Control_c, 0, 64, 75
2, 207332, Note_on_c, 0, 74, 0
2, 207344, Note_on_c, 0, 73, 73
2, 207354, Control_c, 0, 64, 74
2, 207368, Control_c, 0, 64, 74
2, 207384, Control_c, 0, 64, 73
2, 207399, Control_c, 0, 64, 73
2, 207406, Note_on_c, 0, 47, 0
2, 207415, Control_c, 0, 64, 71
2, 207430, Control_c, 0, 64, 69
2, 207444, Control_c, 0, 64, 66
2, 207460, Control_c, 0, 64, 65
2, 207506, Control_c, 0, 64, 64
2, 207520, Control_c, 0, 64, 64
2, 207536, Control_c, 0, 64, 62
2, 207552, Control_c, 0, 64, 60
2, 207567, Control_c, 0, 64, 59
2, 207597, Control_c, 0, 64, 58
2, 207612, Control_c, 0, 64, 58
2, 207628, Control_c, 0, 64, 57
2, 207635, Note_on_c, 0, 76, 75
2, 207643, Control_c, 0, 64, 57
2, 207645, Note_on_c, 0, 43, 75
2, 207673, Control_c, 0, 64, 56
2, 207684, Note_on_c, 0, 79, 0
2, 207688, Control_c, 0, 64, 55
2, 207704, Control_c, 0, 64, 47
2, 207719, Control_c, 0, 64, 28
2, 207735, Control_c, 0, 64, 0
2, 207740, Note_on_c, 0, 45, 0
2, 207846, Note_on_c, 0, 73, 0
2, 207938, Note_on_c, 0, 81, 87
2, 207940, Note_on_c, 0, 42, 75
2, 208058, Note_on_c, 0, 43, 0
2, 208087, Note_on_c, 0, 76, 0
2, 208265, Note_on_c, 0, 40, 77
2, 208267, Note_on_c, 0, 79, 87
2, 208346, Note_on_c, 0, 81, 0
2, 208398, Note_on_c, 0, 42, 0
2, 208506, Control_c, 0, 64, 55
2, 208520, Control_c, 0, 64, 64
2, 208536, Control_c, 0, 64, 68
2, 208551, Control_c, 0, 64, 71
2, 208566, Control_c, 0, 64, 72
2, 208582, Control_c, 0, 64, 71
2, 208596, Control_c, 0, 64, 70
2, 208612, Control_c, 0, 64, 68
2, 208627, Control_c, 0, 64, 67
2, 208641, Control_c, 0, 64, 67
2, 208653, Note_on_c, 0, 38, 66
2, 208672, Control_c, 0, 64, 66
2, 208674, Note_on_c, 0, 74, 65
2, 208674, Note_on_c, 0, 78, 74
2, 208688, Control_c, 0, 64, 65
2, 208703, Control_c, 0, 64, 64
2, 208717, Control_c, 0, 64, 60
2, 208733, Control_c, 0, 64, 47
2, 208748, Control_c, 0, 64, 0
2, 208757, Note_on_c, 0, 40, 0
2, 208809, Note_on_c, 0, 79, 0
2, 208839, Control_c, 0, 64, 59
2, 208855, Control_c, 0, 64, 69
2, 208877, Control_c, 0, 64, 78
2, 208879, Note_on_c, 0, 38, 0
2, 208893, Control_c, 0, 64, 91
2, 208908, Control_c, 0, 64, 106
2, 208923, Control_c, 0, 64, 113
2, 208938, Control_c, 0, 64, 114
2, 208953, Control_c, 0, 64, 116
2, 208969, Control_c, 0, 64, 119
2, 208983, Control_c, 0, 64, 120
2, 209014, Control_c, 0, 64, 119
2, 209029, Control_c, 0, 64, 118
2, 209044, Control_c, 0, 64, 117
2, 209059, Control_c, 0, 64, 115
2, 209074, Control_c, 0, 64, 112
2, 209090, Control_c, 0, 64, 111
2, 209108, Note_on_c, 0, 79, 71
2, 209117, Note_on_c, 0, 76, 57
2, 209118, Note_on_c, 0, 62, 82
2, 209120, Control_c, 0, 64, 113
2, 209136, Control_c, 0, 64, 113
2, 209166, Control_c, 0, 64, 106
2, 209182, Control_c, 0, 64, 94
2, 209196, Control_c, 0, 64, 79
2, 209212, Control_c, 0, 64, 64
2, 209227, Control_c, 0, 64, 33
2, 209242, Control_c, 0, 64, 0
2, 209248, Note_on_c, 0, 78, 0
2, 209258, Control_c, 0, 64, 30
2, 209273, Control_c, 0, 64, 59
2, 209274, Note_on_c, 0, 74, 0
2, 209288, Control_c, 0, 64, 67
2, 209303, Control_c, 0, 64, 76
2, 209318, Control_c, 0, 64, 91
2, 209334, Control_c, 0, 64, 108
2, 209349, Control_c, 0, 64, 113
2, 209363, Control_c, 0, 64, 113
2, 209394, Note_on_c, 0, 62, 0
2, 209455, Control_c, 0, 64, 114
2, 209470, Control_c, 0, 64, 115
2, 209481, Note_on_c, 0, 62, 84
2, 209483, Note_on_c, 0, 81, 78
2, 209484, Control_c, 0, 64, 106
2, 209484, Note_on_c, 0, 78, 71
2, 209500, Control_c, 0, 64, 91
2, 209515, Control_c, 0, 64, 75
2, 209531, Control_c, 0, 64, 61
2, 209546, Control_c, 0, 64, 17
2, 209561, Control_c, 0, 64, 0
2, 209576, Note_on_c, 0, 79, 0
2, 209591, Control_c, 0, 64, 54
2, 209606, Control_c, 0, 64, 66
2, 209622, Control_c, 0, 64, 76
2, 209644, Control_c, 0, 64, 94
2, 209660, Control_c, 0, 64, 127
2, 209671, Note_on_c, 0, 62, 0
2, 209676, Note_on_c, 0, 76, 0
2, 209814, Note_on_c, 0, 62, 77
2, 209819, Note_on_c, 0, 50, 73
2, 209872, Control_c, 0, 64, 98
2, 209888, Control_c, 0, 64, 78
2, 209903, Control_c, 0, 64, 58
2, 209918, Control_c, 0, 64, 0
2, 209949, Control_c, 0, 64, 25
2, 209964, Control_c, 0, 64, 61
2, 209979, Control_c, 0, 64, 73
2, 209994, Control_c, 0, 64, 90
2, 210010, Control_c, 0, 64, 127
2, 210056, Control_c, 0, 64, 121
2, 210071, Control_c, 0, 64, 113
2, 210086, Control_c, 0, 64, 108
2, 210102, Control_c, 0, 64, 103
2, 210117, Control_c, 0, 64, 97
2, 210117, Note_on_c, 0, 55, 78
2, 210132, Control_c, 0, 64, 94
2, 210133, Note_on_c, 0, 52, 72
2, 210147, Control_c, 0, 64, 93
2, 210162, Control_c, 0, 64, 91
2, 210178, Control_c, 0, 64, 87
2, 210193, Control_c, 0, 64, 83
2, 210208, Control_c, 0, 64, 79
2, 210223, Control_c, 0, 64, 76
2, 210238, Control_c, 0, 64, 73
2, 210254, Control_c, 0, 64, 69
2, 210268, Control_c, 0, 64, 65
2, 210273, Note_on_c, 0, 50, 0
2, 210283, Control_c, 0, 64, 60
2, 210299, Control_c, 0, 64, 54
2, 210307, Note_on_c, 0, 62, 0
2, 210314, Control_c, 0, 64, 46
2, 210330, Control_c, 0, 64, 41
2, 210344, Control_c, 0, 64, 35
2, 210359, Control_c, 0, 64, 21
2, 210375, Control_c, 0, 64, 0
2, 210429, Note_on_c, 0, 74, 77
2, 210444, Note_on_c, 0, 71, 62
2, 210466, Note_on_c, 0, 81, 0
2, 210504, Control_c, 0, 64, 22
2, 210519, Control_c, 0, 64, 49
2, 210522, Note_on_c, 0, 78, 0
2, 210535, Control_c, 0, 64, 60
2, 210549, Control_c, 0, 64, 65
2, 210564, Control_c, 0, 64, 70
2, 210580, Control_c, 0, 64, 76
2, 210595, Control_c, 0, 64, 82
2, 210611, Control_c, 0, 64, 85
2, 210625, Control_c, 0, 64, 85
2, 210640, Control_c, 0, 64, 83
2, 210656, Control_c, 0, 64, 82
2, 210670, Control_c, 0, 64, 80
2, 210685, Control_c, 0, 64, 78
2, 210701, Control_c, 0, 64, 77
2, 210716, Control_c, 0, 64, 77
2, 210732, Control_c, 0, 64, 76
2, 210745, Note_on_c, 0, 59, 79
2, 210746, Control_c, 0, 64, 75
2, 210758, Note_on_c, 0, 79, 70
2, 210761, Control_c, 0, 64, 75
2, 210775, Note_on_c, 0, 76, 59
2, 210777, Control_c, 0, 64, 74
2, 210791, Control_c, 0, 64, 72
2, 210806, Control_c, 0, 64, 68
2, 210823, Control_c, 0, 64, 63
2, 210838, Control_c, 0, 64, 57
2, 210854, Control_c, 0, 64, 51
2, 210857, Note_on_c, 0, 71, 0
2, 210869, Control_c, 0, 64, 46
2, 210872, Note_on_c, 0, 74, 0
2, 210884, Control_c, 0, 64, 43
2, 210914, Control_c, 0, 64, 44
2, 210914, Note_on_c, 0, 52, 0
2, 210914, Note_on_c, 0, 55, 0
2, 210930, Control_c, 0, 64, 49
2, 210945, Control_c, 0, 64, 56
2, 210960, Control_c, 0, 64, 59
2, 210975, Control_c, 0, 64, 60
2, 210990, Control_c, 0, 64, 61
2, 211036, Control_c, 0, 64, 60
2, 211051, Control_c, 0, 64, 58
2, 211065, Note_on_c, 0, 78, 72
2, 211066, Control_c, 0, 64, 56
2, 211076, Note_on_c, 0, 52, 63
2, 211077, Note_on_c, 0, 74, 69
2, 211081, Control_c, 0, 64, 54
2, 211097, Control_c, 0, 64, 53
2, 211111, Control_c, 0, 64, 51
2, 211121, Note_on_c, 0, 76, 0
2, 211126, Control_c, 0, 64, 50
2, 211142, Control_c, 0, 64, 49
2, 211157, Control_c, 0, 64, 48
2, 211169, Note_on_c, 0, 79, 0
2, 211195, Control_c, 0, 64, 48
2, 211271, Control_c, 0, 64, 48
2, 211286, Control_c, 0, 64, 49
2, 211383, Note_on_c, 0, 57, 61
2, 211406, Note_on_c, 0, 76, 70
2, 211410, Note_on_c, 0, 73, 64
2, 211438, Control_c, 0, 64, 48
2, 211453, Control_c, 0, 64, 48
2, 211465, Note_on_c, 0, 74, 0
2, 211490, Note_on_c, 0, 52, 0
2, 211499, Control_c, 0, 64, 51
2, 211513, Control_c, 0, 64, 57
2, 211517, Note_on_c, 0, 78, 0
2, 211529, Control_c, 0, 64, 63
2, 211544, Control_c, 0, 64, 67
2, 211559, Control_c, 0, 64, 72
2, 211575, Control_c, 0, 64, 76
2, 211589, Control_c, 0, 64, 78
2, 211604, Control_c, 0, 64, 78
2, 211620, Control_c, 0, 64, 78
2, 211652, Control_c, 0, 64, 77
2, 211667, Control_c, 0, 64, 76
2, 211682, Control_c, 0, 64, 76
2, 211742, Control_c, 0, 64, 75
2, 211744, Note_on_c, 0, 52, 68
2, 211746, Note_on_c, 0, 55, 65
2, 211770, Control_c, 0, 64, 74
2, 211786, Control_c, 0, 64, 72
2, 211801, Control_c, 0, 64, 69
2, 211816, Control_c, 0, 64, 65
2, 211817, Note_on_c, 0, 59, 0
2, 211831, Control_c, 0, 64, 63
2, 211876, Control_c, 0, 64, 63
2, 211891, Control_c, 0, 64, 64
2, 211897, Note_on_c, 0, 57, 0
2, 211922, Control_c, 0, 64, 64
2, 211925, Note_on_c, 0, 55, 0
2, 211938, Control_c, 0, 64, 65
2, 212067, Control_c, 0, 64, 64
2, 212069, Note_on_c, 0, 57, 72
2, 212073, Note_on_c, 0, 54, 68
2, 212112, Control_c, 0, 64, 64
2, 212143, Control_c, 0, 64, 63
2, 212146, Note_on_c, 0, 52, 0
2, 212157, Control_c, 0, 64, 61
2, 212172, Control_c, 0, 64, 59
2, 212188, Control_c, 0, 64, 57
2, 212203, Control_c, 0, 64, 55
2, 212219, Control_c, 0, 64, 52
2, 212234, Control_c, 0, 64, 50
2, 212248, Control_c, 0, 64, 46
2, 212265, Control_c, 0, 64, 41
2, 212279, Control_c, 0, 64, 35
2, 212295, Control_c, 0, 64, 30
2, 212310, Control_c, 0, 64, 22
2, 212325, Control_c, 0, 64, 0
2, 212353, Note_on_c, 0, 55, 60
2, 212361, Note_on_c, 0, 52, 58
2, 212370, Note_on_c, 0, 64, 78
2, 212434, Note_on_c, 0, 54, 0
2, 212469, Note_on_c, 0, 73, 0
2, 212472, Note_on_c, 0, 57, 0
2, 212651, Note_on_c, 0, 50, 57
2, 212662, Note_on_c, 0, 69, 74
2, 212670, Note_on_c, 0, 54, 54
2, 212749, Note_on_c, 0, 64, 0
2, 212787, Note_on_c, 0, 55, 0
2, 212790, Note_on_c, 0, 52, 0
2, 212961, Note_on_c, 0, 67, 74
2, 212970, Note_on_c, 0, 55, 65
2, 212983, Note_on_c, 0, 52, 68
2, 213050, Note_on_c, 0, 69, 0
2, 213057, Note_on_c, 0, 54, 0
2, 213093, Control_c, 0, 64, 19
2, 213099, Note_on_c, 0, 50, 0
2, 213109, Control_c, 0, 64, 48
2, 213114, Note_on_c, 0, 76, 0
2, 213123, Control_c, 0, 64, 54
2, 213139, Control_c, 0, 64, 55
2, 213154, Control_c, 0, 64, 55
2, 213199, Control_c, 0, 64, 55
2, 213215, Control_c, 0, 64, 53
2, 213230, Control_c, 0, 64, 51
2, 213245, Control_c, 0, 64, 49
2, 213261, Control_c, 0, 64, 47
2, 213267, Note_on_c, 0, 54, 58
2, 213267, Note_on_c, 0, 74, 68
2, 213269, Note_on_c, 0, 57, 57
2, 213276, Note_on_c, 0, 66, 64
2, 213277, Control_c, 0, 64, 45
2, 213292, Control_c, 0, 64, 43
2, 213307, Control_c, 0, 64, 41
2, 213322, Control_c, 0, 64, 38
2, 213338, Control_c, 0, 64, 33
2, 213353, Control_c, 0, 64, 28
2, 213366, Note_on_c, 0, 55, 0
2, 213367, Control_c, 0, 64, 23
2, 213383, Control_c, 0, 64, 20
2, 213385, Note_on_c, 0, 52, 0
2, 213391, Note_on_c, 0, 67, 0
2, 213398, Control_c, 0, 64, 16
2, 213413, Control_c, 0, 64, 8
2, 213429, Control_c, 0, 64, 0
2, 213582, Note_on_c, 0, 72, 72
2, 213591, Note_on_c, 0, 64, 61
2, 213632, Note_on_c, 0, 74, 0
2, 213665, Control_c, 0, 64, 25
2, 213679, Control_c, 0, 64, 39
2, 213695, Control_c, 0, 64, 45
2, 213710, Control_c, 0, 64, 48
2, 213725, Control_c, 0, 64, 50
2, 213741, Control_c, 0, 64, 53
2, 213756, Control_c, 0, 64, 55
2, 213762, Note_on_c, 0, 64, 0
2, 213770, Control_c, 0, 64, 56
2, 213786, Control_c, 0, 64, 57
2, 213817, Control_c, 0, 64, 57
2, 213846, Control_c, 0, 64, 56
2, 213862, Control_c, 0, 64, 51
2, 213873, Note_on_c, 0, 71, 68
2, 213877, Control_c, 0, 64, 44
2, 213882, Note_on_c, 0, 62, 51
2, 213891, Control_c, 0, 64, 37
2, 213922, Control_c, 0, 64, 39
2, 213938, Control_c, 0, 64, 49
2, 213939, Note_on_c, 0, 72, 0
2, 213953, Control_c, 0, 64, 57
2, 213967, Control_c, 0, 64, 62
2, 213983, Control_c, 0, 64, 65
2, 213998, Control_c, 0, 64, 70
2, 214013, Control_c, 0, 64, 75
2, 214021, Note_on_c, 0, 66, 0
2, 214029, Control_c, 0, 64, 79
2, 214043, Control_c, 0, 64, 82
2, 214059, Control_c, 0, 64, 83
2, 214074, Control_c, 0, 64, 83
2, 214089, Control_c, 0, 64, 82
2, 214106, Control_c, 0, 64, 81
2, 214120, Control_c, 0, 64, 80
2, 214136, Control_c, 0, 64, 79
2, 214151, Control_c, 0, 64, 78
2, 214166, Control_c, 0, 64, 77
2, 214170, Note_on_c, 0, 50, 61
2, 214177, Note_on_c, 0, 47, 59
2, 214182, Control_c, 0, 64, 75
2, 214196, Control_c, 0, 64, 73
2, 214211, Control_c, 0, 64, 72
2, 214227, Control_c, 0, 64, 70
2, 214242, Control_c, 0, 64, 68
2, 214266, Control_c, 0, 64, 66
2, 214266, Note_on_c, 0, 57, 0
2, 214280, Control_c, 0, 64, 64
2, 214296, Control_c, 0, 64, 63
2, 214311, Control_c, 0, 64, 62
2, 214313, Note_on_c, 0, 54, 0
2, 214326, Control_c, 0, 64, 61
2, 214341, Control_c, 0, 64, 59
2, 214356, Control_c, 0, 64, 56
2, 214371, Control_c, 0, 64, 53
2, 214387, Control_c, 0, 64, 51
2, 214401, Control_c, 0, 64, 50
2, 214417, Control_c, 0, 64, 49
2, 214432, Control_c, 0, 64, 47
2, 214447, Control_c, 0, 64, 45
2, 214463, Control_c, 0, 64, 42
2, 214477, Control_c, 0, 64, 40
2, 214485, Note_on_c, 0, 52, 62
2, 214492, Control_c, 0, 64, 39
2, 214496, Note_on_c, 0, 55, 58
2, 214499, Note_on_c, 0, 61, 60
2, 214508, Control_c, 0, 64, 36
2, 214523, Control_c, 0, 64, 31
2, 214539, Control_c, 0, 64, 19
2, 214554, Control_c, 0, 64, 0
2, 214607, Note_on_c, 0, 47, 0
2, 214624, Note_on_c, 0, 50, 0
2, 214628, Note_on_c, 0, 62, 0
2, 214798, Note_on_c, 0, 54, 59
2, 214798, Note_on_c, 0, 62, 61
2, 214806, Note_on_c, 0, 50, 52
2, 214860, Note_on_c, 0, 55, 0
2, 214873, Control_c, 0, 64, 43
2, 214886, Note_on_c, 0, 52, 0
2, 214887, Control_c, 0, 64, 55
2, 214900, Note_on_c, 0, 61, 0
2, 214903, Control_c, 0, 64, 60
2, 214919, Control_c, 0, 64, 63
2, 214935, Control_c, 0, 64, 65
2, 214950, Control_c, 0, 64, 67
2, 214958, Note_on_c, 0, 54, 0
2, 214964, Control_c, 0, 64, 69
2, 214980, Control_c, 0, 64, 69
2, 214985, Note_on_c, 0, 50, 0
2, 215034, Control_c, 0, 64, 69
2, 215048, Control_c, 0, 64, 68
2, 215079, Note_on_c, 0, 52, 60
2, 215083, Note_on_c, 0, 64, 69
2, 215097, Control_c, 0, 64, 68
2, 215104, Note_on_c, 0, 49, 58
2, 215112, Control_c, 0, 64, 67
2, 215126, Control_c, 0, 64, 65
2, 215142, Control_c, 0, 64, 60
2, 215157, Control_c, 0, 64, 33
2, 215173, Control_c, 0, 64, 0
2, 215233, Control_c, 0, 64, 26
2, 215238, Note_on_c, 0, 62, 0
2, 215248, Control_c, 0, 64, 48
2, 215263, Control_c, 0, 64, 57
2, 215271, Note_on_c, 0, 64, 0
2, 215278, Control_c, 0, 64, 61
2, 215294, Control_c, 0, 64, 63
2, 215309, Control_c, 0, 64, 65
2, 215324, Control_c, 0, 64, 65
2, 215339, Control_c, 0, 64, 65
2, 215354, Control_c, 0, 64, 62
2, 215370, Control_c, 0, 64, 57
2, 215385, Control_c, 0, 64, 56
2, 215388, Note_on_c, 0, 47, 63
2, 215390, Note_on_c, 0, 64, 70
2, 215394, Note_on_c, 0, 62, 46
2, 215400, Control_c, 0, 64, 57
2, 215416, Control_c, 0, 64, 60
2, 215431, Control_c, 0, 64, 62
2, 215445, Control_c, 0, 64, 63
2, 215461, Control_c, 0, 64, 64
2, 215476, Control_c, 0, 64, 67
2, 215485, Note_on_c, 0, 49, 0
2, 215490, Note_on_c, 0, 71, 0
2, 215492, Control_c, 0, 64, 69
2, 215506, Control_c, 0, 64, 71
2, 215521, Control_c, 0, 64, 72
2, 215538, Note_on_c, 0, 62, 0
2, 215582, Control_c, 0, 64, 72
2, 215597, Control_c, 0, 64, 71
2, 215613, Control_c, 0, 64, 70
2, 215628, Control_c, 0, 64, 69
2, 215643, Control_c, 0, 64, 67
2, 215658, Control_c, 0, 64, 66
2, 215673, Control_c, 0, 64, 66
2, 215686, Note_on_c, 0, 45, 58
2, 215689, Control_c, 0, 64, 65
2, 215704, Control_c, 0, 64, 64
2, 215712, Note_on_c, 0, 61, 55
2, 215714, Note_on_c, 0, 69, 55
2, 215718, Control_c, 0, 64, 63
2, 215736, Control_c, 0, 64, 62
2, 215751, Control_c, 0, 64, 61
2, 215765, Control_c, 0, 64, 61
2, 215781, Control_c, 0, 64, 60
2, 215803, Control_c, 0, 64, 59
2, 215813, Note_on_c, 0, 64, 0
2, 215819, Control_c, 0, 64, 57
2, 215834, Control_c, 0, 64, 55
2, 215850, Control_c, 0, 64, 51
2, 215865, Control_c, 0, 64, 46
2, 215880, Control_c, 0, 64, 37
2, 215895, Control_c, 0, 64, 0
2, 215915, Note_on_c, 0, 47, 0
2, 215940, Note_on_c, 0, 52, 0
2, 216036, Note_on_c, 0, 67, 63
2, 216042, Note_on_c, 0, 64, 55
2, 216114, Note_on_c, 0, 69, 0
2, 216151, Note_on_c, 0, 61, 0
2, 216348, Note_on_c, 0, 66, 65
2, 216427, Note_on_c, 0, 67, 0
2, 216441, Control_c, 0, 64, 50
2, 216457, Control_c, 0, 64, 60
2, 216472, Control_c, 0, 64, 65
2, 216488, Control_c, 0, 64, 69
2, 216502, Control_c, 0, 64, 75
2, 216517, Control_c, 0, 64, 80
2, 216533, Control_c, 0, 64, 83
2, 216556, Control_c, 0, 64, 84
2, 216617, Control_c, 0, 64, 84
2, 216661, Control_c, 0, 64, 83
2, 216676, Control_c, 0, 64, 83
2, 216688, Note_on_c, 0, 57, 73
2, 216691, Control_c, 0, 64, 82
2, 216707, Control_c, 0, 64, 81
2, 216728, Note_on_c, 0, 62, 47
2, 216737, Control_c, 0, 64, 80
2, 216752, Control_c, 0, 64, 78
2, 216767, Control_c, 0, 64, 75
2, 216783, Control_c, 0, 64, 73
2, 216797, Control_c, 0, 64, 72
2, 216812, Control_c, 0, 64, 72
2, 216828, Control_c, 0, 64, 73
2, 216848, Note_on_c, 0, 64, 0
2, 216859, Control_c, 0, 64, 72
2, 216888, Control_c, 0, 64, 72
2, 216921, Note_on_c, 0, 45, 0
2, 216933, Note_on_c, 0, 57, 0
2, 217009, Control_c, 0, 64, 71
2, 217025, Control_c, 0, 64, 65
2, 217034, Note_on_c, 0, 57, 77
2, 217040, Control_c, 0, 64, 48
2, 217051, Note_on_c, 0, 64, 56
2, 217056, Control_c, 0, 64, 39
2, 217085, Control_c, 0, 64, 41
2, 217101, Control_c, 0, 64, 49
2, 217116, Control_c, 0, 64, 57
2, 217131, Control_c, 0, 64, 63
2, 217147, Control_c, 0, 64, 67
2, 217162, Control_c, 0, 64, 72
2, 217178, Control_c, 0, 64, 76
2, 217192, Control_c, 0, 64, 79
2, 217207, Control_c, 0, 64, 81
2, 217223, Control_c, 0, 64, 85
2, 217228, Note_on_c, 0, 57, 0
2, 217238, Control_c, 0, 64, 88
2, 217251, Control_c, 0, 64, 91
2, 217266, Control_c, 0, 64, 89
2, 217281, Control_c, 0, 64, 82
2, 217296, Control_c, 0, 64, 70
2, 217312, Control_c, 0, 64, 60
2, 217334, Control_c, 0, 64, 54
2, 217344, Note_on_c, 0, 57, 73
2, 217350, Control_c, 0, 64, 57
2, 217362, Note_on_c, 0, 61, 57
2, 217364, Control_c, 0, 64, 61
2, 217380, Control_c, 0, 64, 64
2, 217396, Control_c, 0, 64, 68
2, 217400, Note_on_c, 0, 64, 0
2, 217411, Control_c, 0, 64, 73
2, 217426, Control_c, 0, 64, 77
2, 217437, Note_on_c, 0, 62, 0
2, 217441, Control_c, 0, 64, 80
2, 217456, Control_c, 0, 64, 82
2, 217463, Note_on_c, 0, 66, 0
2, 217487, Control_c, 0, 64, 82
2, 217503, Control_c, 0, 64, 81
2, 217532, Control_c, 0, 64, 81
2, 217548, Control_c, 0, 64, 79
2, 217563, Control_c, 0, 64, 75
2, 217578, Control_c, 0, 64, 72
2, 217594, Control_c, 0, 64, 71
2, 217609, Control_c, 0, 64, 70
2, 217625, Control_c, 0, 64, 70
2, 217639, Control_c, 0, 64, 69
2, 217647, Note_on_c, 0, 51, 86
2, 217654, Control_c, 0, 64, 68
2, 217667, Note_on_c, 0, 66, 57
2, 217670, Control_c, 0, 64, 67
2, 217679, Note_on_c, 0, 60, 55
2, 217685, Control_c, 0, 64, 64
2, 217700, Control_c, 0, 64, 60
2, 217715, Control_c, 0, 64, 48
2, 217730, Control_c, 0, 64, 0
2, 217772, Note_on_c, 0, 57, 0
2, 217790, Note_on_c, 0, 61, 0
2, 217806, Control_c, 0, 64, 40
2, 217822, Control_c, 0, 64, 59
2, 217835, Note_on_c, 0, 60, 0
2, 217836, Control_c, 0, 64, 63
2, 217851, Control_c, 0, 64, 63
2, 217912, Control_c, 0, 64, 63
2, 217927, Control_c, 0, 64, 62
2, 217943, Control_c, 0, 64, 61
2, 217982, Note_on_c, 0, 52, 65
2, 217983, Note_on_c, 0, 68, 69
2, 217988, Note_on_c, 0, 59, 56
2, 218003, Control_c, 0, 64, 61
2, 218018, Control_c, 0, 64, 59
2, 218034, Control_c, 0, 64, 52
2, 218049, Control_c, 0, 64, 34
2, 218065, Control_c, 0, 64, 0
2, 218073, Note_on_c, 0, 66, 0
2, 218121, Note_on_c, 0, 51, 0
2, 218163, Control_c, 0, 64, 44
2, 218170, Note_on_c, 0, 59, 0
2, 218177, Control_c, 0, 64, 62
2, 218195, Control_c, 0, 64, 68
2, 218210, Control_c, 0, 64, 73
2, 218225, Control_c, 0, 64, 76
2, 218240, Control_c, 0, 64, 77
2, 218285, Control_c, 0, 64, 76
2, 218300, Control_c, 0, 64, 74
2, 218316, Control_c, 0, 64, 73
2, 218331, Control_c, 0, 64, 72
2, 218345, Note_on_c, 0, 53, 69
2, 218346, Control_c, 0, 64, 71
2, 218361, Control_c, 0, 64, 70
2, 218376, Control_c, 0, 64, 68
2, 218392, Control_c, 0, 64, 66
2, 218393, Note_on_c, 0, 69, 63
2, 218402, Note_on_c, 0, 57, 59
2, 218453, Control_c, 0, 64, 65
2, 218468, Control_c, 0, 64, 63
2, 218483, Control_c, 0, 64, 59
2, 218491, Note_on_c, 0, 68, 0
2, 218498, Control_c, 0, 64, 53
2, 218514, Control_c, 0, 64, 42
2, 218521, Note_on_c, 0, 52, 0
2, 218529, Control_c, 0, 64, 28
2, 218545, Control_c, 0, 64, 0
2, 218756, Note_on_c, 0, 60, 69
2, 218771, Control_c, 0, 64, 18
2, 218787, Control_c, 0, 64, 30
2, 218834, Note_on_c, 0, 57, 0
2, 218847, Control_c, 0, 64, 32
2, 218871, Control_c, 0, 64, 36
2, 218885, Control_c, 0, 64, 41
2, 218900, Control_c, 0, 64, 45
2, 218916, Control_c, 0, 64, 49
2, 218931, Control_c, 0, 64, 53
2, 218947, Control_c, 0, 64, 55
2, 218961, Control_c, 0, 64, 57
2, 218976, Control_c, 0, 64, 58
2, 218992, Control_c, 0, 64, 59
2, 219007, Control_c, 0, 64, 60
2, 219024, Control_c, 0, 64, 61
2, 219086, Note_on_c, 0, 62, 67
2, 219144, Note_on_c, 0, 60, 0
2, 219236, Control_c, 0, 64, 61
2, 219251, Control_c, 0, 64, 60
2, 219267, Control_c, 0, 64, 59
2, 219282, Control_c, 0, 64, 59
2, 219297, Control_c, 0, 64, 58
2, 219312, Control_c, 0, 64, 58
2, 219327, Control_c, 0, 64, 57
2, 219343, Control_c, 0, 64, 56
2, 219358, Control_c, 0, 64, 54
2, 219373, Control_c, 0, 64, 52
2, 219389, Control_c, 0, 64, 51
2, 219389, Note_on_c, 0, 47, 62
2, 219389, Note_on_c, 0, 59, 68
2, 219403, Note_on_c, 0, 64, 67
2, 219404, Control_c, 0, 64, 50
2, 219419, Control_c, 0, 64, 50
2, 219435, Control_c, 0, 64, 49
2, 219449, Control_c, 0, 64, 47
2, 219449, Note_on_c, 0, 62, 0
2, 219465, Control_c, 0, 64, 45
2, 219480, Control_c, 0, 64, 43
2, 219495, Control_c, 0, 64, 42
2, 219508, Note_on_c, 0, 53, 0
2, 219535, Note_on_c, 0, 65, 76
2, 219540, Control_c, 0, 64, 42
2, 219556, Control_c, 0, 64, 41
2, 219557, Note_on_c, 0, 59, 0
2, 219557, Note_on_c, 0, 64, 0
2, 219571, Control_c, 0, 64, 40
2, 219587, Control_c, 0, 64, 39
2, 219616, Control_c, 0, 64, 39
2, 219639, Control_c, 0, 64, 38
2, 219654, Control_c, 0, 64, 37
2, 219670, Control_c, 0, 64, 35
2, 219683, Note_on_c, 0, 68, 71
2, 219684, Note_on_c, 0, 64, 66
2, 219685, Control_c, 0, 64, 33
2, 219686, Note_on_c, 0, 59, 67
2, 219696, Note_on_c, 0, 52, 64
2, 219700, Control_c, 0, 64, 22
2, 219716, Control_c, 0, 64, 0
2, 219725, Note_on_c, 0, 69, 0
2, 219776, Note_on_c, 0, 65, 0
2, 219846, Note_on_c, 0, 47, 0
2, 219879, Note_on_c, 0, 59, 0
2, 219992, Note_on_c, 0, 59, 73
2, 219994, Note_on_c, 0, 50, 68
2, 220099, Control_c, 0, 64, 46
2, 220114, Control_c, 0, 64, 58
2, 220115, Note_on_c, 0, 52, 0
2, 220130, Control_c, 0, 64, 63
2, 220145, Control_c, 0, 64, 66
2, 220160, Control_c, 0, 64, 68
2, 220174, Note_on_c, 0, 50, 0
2, 220176, Control_c, 0, 64, 69
2, 220236, Control_c, 0, 64, 69
2, 220325, Note_on_c, 0, 52, 50
2, 220328, Control_c, 0, 64, 67
2, 220330, Note_on_c, 0, 69, 61
2, 220338, Note_on_c, 0, 49, 54
2, 220343, Control_c, 0, 64, 63
2, 220358, Control_c, 0, 64, 49
2, 220372, Note_on_c, 0, 68, 0
2, 220373, Control_c, 0, 64, 0
2, 220419, Note_on_c, 0, 59, 0
2, 220423, Note_on_c, 0, 64, 0
2, 220488, Control_c, 0, 64, 48
2, 220497, Note_on_c, 0, 69, 0
2, 220502, Control_c, 0, 64, 63
2, 220517, Control_c, 0, 64, 69
2, 220533, Control_c, 0, 64, 76
2, 220548, Control_c, 0, 64, 82
2, 220563, Control_c, 0, 64, 87
2, 220578, Control_c, 0, 64, 91
2, 220609, Control_c, 0, 64, 90
2, 220624, Control_c, 0, 64, 88
2, 220638, Control_c, 0, 64, 88
2, 220671, Control_c, 0, 64, 87
2, 220685, Control_c, 0, 64, 86
2, 220690, Note_on_c, 0, 45, 51
2, 220701, Control_c, 0, 64, 85
2, 220716, Control_c, 0, 64, 83
2, 220731, Control_c, 0, 64, 80
2, 220733, Note_on_c, 0, 81, 85
2, 220746, Control_c, 0, 64, 74
2, 220761, Control_c, 0, 64, 66
2, 220777, Control_c, 0, 64, 51
2, 220792, Control_c, 0, 64, 0
2, 220796, Note_on_c, 0, 52, 0
2, 220863, Note_on_c, 0, 49, 0
2, 220868, Control_c, 0, 64, 44
2, 220882, Control_c, 0, 64, 58
2, 220898, Control_c, 0, 64, 62
2, 220913, Control_c, 0, 64, 64
2, 220929, Control_c, 0, 64, 66
2, 220937, Note_on_c, 0, 81, 0
2, 220943, Control_c, 0, 64, 68
2, 220958, Control_c, 0, 64, 70
2, 220974, Control_c, 0, 64, 73
2, 220989, Control_c, 0, 64, 75
2, 221004, Control_c, 0, 64, 76
2, 221035, Control_c, 0, 64, 74
2, 221043, Note_on_c, 0, 50, 57
2, 221050, Control_c, 0, 64, 69
2, 221051, Note_on_c, 0, 81, 86
2, 221065, Control_c, 0, 64, 59
2, 221080, Control_c, 0, 64, 21
2, 221096, Control_c, 0, 64, 0
2, 221141, Control_c, 0, 64, 39
2, 221163, Control_c, 0, 64, 58
2, 221163, Note_on_c, 0, 45, 0
2, 221179, Control_c, 0, 64, 65
2, 221194, Control_c, 0, 64, 70
2, 221210, Control_c, 0, 64, 76
2, 221224, Control_c, 0, 64, 81
2, 221239, Control_c, 0, 64, 83
2, 221252, Note_on_c, 0, 81, 0
2, 221285, Control_c, 0, 64, 82
2, 221301, Control_c, 0, 64, 81
2, 221316, Control_c, 0, 64, 80
2, 221332, Control_c, 0, 64, 79
2, 221346, Control_c, 0, 64, 78
2, 221350, Note_on_c, 0, 49, 47
2, 221361, Control_c, 0, 64, 77
2, 221369, Note_on_c, 0, 81, 78
2, 221374, Note_on_c, 0, 78, 78
2, 221408, Control_c, 0, 64, 74
2, 221422, Control_c, 0, 64, 66
2, 221437, Control_c, 0, 64, 49
2, 221453, Control_c, 0, 64, 0
2, 221459, Note_on_c, 0, 50, 0
2, 221500, Control_c, 0, 64, 28
2, 221515, Control_c, 0, 64, 57
2, 221530, Control_c, 0, 64, 65
2, 221534, Note_on_c, 0, 78, 0
2, 221545, Control_c, 0, 64, 70
2, 221560, Control_c, 0, 64, 76
2, 221575, Control_c, 0, 64, 79
2, 221590, Control_c, 0, 64, 79
2, 221643, Note_on_c, 0, 47, 60
2, 221651, Control_c, 0, 64, 80
2, 221666, Control_c, 0, 64, 80
2, 221681, Control_c, 0, 64, 80
2, 221693, Note_on_c, 0, 49, 0
2, 221695, Note_on_c, 0, 74, 73
2, 221697, Control_c, 0, 64, 78
2, 221698, Note_on_c, 0, 78, 74
2, 221711, Control_c, 0, 64, 72
2, 221726, Control_c, 0, 64, 63
2, 221742, Control_c, 0, 64, 39
2, 221757, Control_c, 0, 64, 0
2, 221818, Control_c, 0, 64, 53
2, 221818, Note_on_c, 0, 47, 0
2, 221833, Control_c, 0, 64, 63
2, 221835, Note_on_c, 0, 81, 0
2, 221849, Control_c, 0, 64, 68
2, 221863, Control_c, 0, 64, 74
2, 221878, Control_c, 0, 64, 81
2, 221879, Note_on_c, 0, 78, 0
2, 221894, Control_c, 0, 64, 86
2, 221909, Control_c, 0, 64, 92
2, 221924, Control_c, 0, 64, 96
2, 221947, Control_c, 0, 64, 97
2, 221962, Control_c, 0, 64, 97
2, 221978, Control_c, 0, 64, 94
2, 221992, Control_c, 0, 64, 89
2, 222008, Control_c, 0, 64, 80
2, 222010, Note_on_c, 0, 62, 74
2, 222016, Note_on_c, 0, 78, 69
2, 222023, Control_c, 0, 64, 68
2, 222038, Control_c, 0, 64, 51
2, 222054, Control_c, 0, 64, 0
2, 222114, Control_c, 0, 64, 31
2, 222130, Control_c, 0, 64, 58
2, 222145, Control_c, 0, 64, 65
2, 222160, Control_c, 0, 64, 69
2, 222175, Control_c, 0, 64, 74
2, 222182, Note_on_c, 0, 74, 0
2, 222190, Control_c, 0, 64, 78
2, 222200, Note_on_c, 0, 78, 0
2, 222205, Control_c, 0, 64, 80
2, 222227, Note_on_c, 0, 62, 0
2, 222252, Control_c, 0, 64, 81
2, 222267, Control_c, 0, 64, 82
2, 222282, Control_c, 0, 64, 85
2, 222298, Control_c, 0, 64, 84
2, 222312, Note_on_c, 0, 78, 80
2, 222313, Control_c, 0, 64, 76
2, 222315, Note_on_c, 0, 62, 75
2, 222329, Control_c, 0, 64, 65
2, 222330, Note_on_c, 0, 71, 58
2, 222343, Control_c, 0, 64, 46
2, 222358, Control_c, 0, 64, 24
2, 222374, Control_c, 0, 64, 21
2, 222389, Control_c, 0, 64, 26
2, 222404, Control_c, 0, 64, 53
2, 222420, Control_c, 0, 64, 63
2, 222435, Control_c, 0, 64, 68
2, 222451, Control_c, 0, 64, 73
2, 222463, Note_on_c, 0, 62, 0
2, 222466, Control_c, 0, 64, 80
2, 222481, Control_c, 0, 64, 86
2, 222496, Control_c, 0, 64, 91
2, 222511, Control_c, 0, 64, 95
2, 222526, Control_c, 0, 64, 98
2, 222542, Control_c, 0, 64, 99
2, 222556, Control_c, 0, 64, 100
2, 222587, Control_c, 0, 64, 100
2, 222602, Control_c, 0, 64, 99
2, 222618, Control_c, 0, 64, 93
2, 222625, Note_on_c, 0, 59, 68
2, 222626, Note_on_c, 0, 62, 66
2, 222632, Control_c, 0, 64, 82
2, 222648, Control_c, 0, 64, 68
2, 222663, Control_c, 0, 64, 52
2, 222678, Control_c, 0, 64, 37
2, 222694, Control_c, 0, 64, 38
2, 222716, Control_c, 0, 64, 54
2, 222732, Control_c, 0, 64, 63
2, 222747, Control_c, 0, 64, 70
2, 222761, Control_c, 0, 64, 81
2, 222777, Control_c, 0, 64, 96
2, 222792, Control_c, 0, 64, 114
2, 222808, Control_c, 0, 64, 112
2, 222811, Note_on_c, 0, 59, 0
2, 222823, Control_c, 0, 64, 110
2, 222827, Note_on_c, 0, 62, 0
2, 222853, Control_c, 0, 64, 111
2, 222899, Control_c, 0, 64, 111
2, 222932, Note_on_c, 0, 59, 58
2, 222943, Note_on_c, 0, 56, 58
2, 222943, Note_on_c, 0, 74, 74
2, 222944, Control_c, 0, 64, 110
2, 222958, Control_c, 0, 64, 104
2, 222974, Control_c, 0, 64, 93
2, 222989, Control_c, 0, 64, 79
2, 223004, Control_c, 0, 64, 64
2, 223019, Control_c, 0, 64, 23
2, 223033, Control_c, 0, 64, 0
2, 223079, Control_c, 0, 64, 52
2, 223080, Note_on_c, 0, 71, 0
2, 223094, Control_c, 0, 64, 64
2, 223102, Note_on_c, 0, 59, 0
2, 223111, Control_c, 0, 64, 71
2, 223125, Control_c, 0, 64, 81
2, 223141, Control_c, 0, 64, 95
2, 223156, Control_c, 0, 64, 110
2, 223158, Note_on_c, 0, 78, 0
2, 223172, Control_c, 0, 64, 116
2, 223186, Control_c, 0, 64, 103
2, 223201, Control_c, 0, 64, 87
2, 223217, Control_c, 0, 64, 72
2, 223232, Control_c, 0, 64, 62
2, 223235, Note_on_c, 0, 59, 63
2, 223240, Note_on_c, 0, 71, 65
2, 223262, Control_c, 0, 64, 66
2, 223277, Control_c, 0, 64, 71
2, 223293, Control_c, 0, 64, 78
2, 223308, Control_c, 0, 64, 87
2, 223323, Control_c, 0, 64, 95
2, 223338, Control_c, 0, 64, 105
2, 223352, Note_on_c, 0, 59, 0
2, 223353, Control_c, 0, 64, 111
2, 223358, Note_on_c, 0, 74, 0
2, 223369, Control_c, 0, 64, 113
2, 223384, Control_c, 0, 64, 113
2, 223414, Control_c, 0, 64, 113
2, 223429, Control_c, 0, 64, 110
2, 223444, Control_c, 0, 64, 107
2, 223460, Control_c, 0, 64, 105
2, 223482, Control_c, 0, 64, 104
2, 223498, Control_c, 0, 64, 103
2, 223513, Control_c, 0, 64, 99
2, 223528, Control_c, 0, 64, 95
2, 223539, Note_on_c, 0, 59, 65
2, 223543, Control_c, 0, 64, 91
2, 223551, Note_on_c, 0, 76, 67
2, 223553, Note_on_c, 0, 52, 62
2, 223558, Control_c, 0, 64, 89
2, 223619, Control_c, 0, 64, 89
2, 223634, Control_c, 0, 64, 88
2, 223650, Control_c, 0, 64, 85
2, 223652, Note_on_c, 0, 71, 0
2, 223665, Control_c, 0, 64, 80
2, 223679, Control_c, 0, 64, 77
2, 223695, Control_c, 0, 64, 75
2, 223710, Control_c, 0, 64, 73
2, 223725, Control_c, 0, 64, 71
2, 223741, Control_c, 0, 64, 68
2, 223747, Note_on_c, 0, 56, 0
2, 223756, Control_c, 0, 64, 65
2, 223771, Control_c, 0, 64, 63
2, 223786, Control_c, 0, 64, 61
2, 223801, Control_c, 0, 64, 55
2, 223817, Control_c, 0, 64, 41
2, 223832, Control_c, 0, 64, 10
2, 223848, Control_c, 0, 64, 0
2, 223851, Note_on_c, 0, 74, 68
2, 223859, Note_on_c, 0, 68, 57
2, 223898, Note_on_c, 0, 76, 0
2, 223908, Control_c, 0, 64, 25
2, 223924, Control_c, 0, 64, 45
2, 223939, Control_c, 0, 64, 55
2, 223954, Control_c, 0, 64, 60
2, 223970, Control_c, 0, 64, 63
2, 223985, Control_c, 0, 64, 67
2, 224000, Control_c, 0, 64, 71
2, 224016, Control_c, 0, 64, 75
2, 224030, Control_c, 0, 64, 78
2, 224045, Control_c, 0, 64, 78
2, 224092, Control_c, 0, 64, 78
2, 224106, Control_c, 0, 64, 77
2, 224121, Control_c, 0, 64, 76
2, 224137, Control_c, 0, 64, 75
2, 224152, Control_c, 0, 64, 74
2, 224175, Note_on_c, 0, 55, 57
2, 224182, Control_c, 0, 64, 74
2, 224197, Control_c, 0, 64, 73
2, 224213, Control_c, 0, 64, 73
2, 224223, Note_on_c, 0, 73, 70
2, 224281, Control_c, 0, 64, 72
2, 224297, Control_c, 0, 64, 68
2, 224312, Control_c, 0, 64, 62
2, 224326, Control_c, 0, 64, 53
2, 224337, Note_on_c, 0, 52, 0
2, 224342, Control_c, 0, 64, 51
2, 224350, Note_on_c, 0, 68, 0
2, 224372, Control_c, 0, 64, 52
2, 224387, Note_on_c, 0, 74, 0
2, 224478, Control_c, 0, 64, 51
2, 224512, Note_on_c, 0, 52, 48
2, 224523, Control_c, 0, 64, 51
2, 224530, Note_on_c, 0, 71, 67
2, 224539, Control_c, 0, 64, 47
2, 224554, Control_c, 0, 64, 36
2, 224569, Control_c, 0, 64, 0
2, 224593, Note_on_c, 0, 59, 0
2, 224645, Control_c, 0, 64, 45
2, 224661, Control_c, 0, 64, 55
2, 224676, Control_c, 0, 64, 59
2, 224692, Control_c, 0, 64, 62
2, 224707, Control_c, 0, 64, 64
2, 224721, Control_c, 0, 64, 66
2, 224737, Control_c, 0, 64, 68
2, 224752, Control_c, 0, 64, 68
2, 224768, Control_c, 0, 64, 66
2, 224783, Control_c, 0, 64, 61
2, 224798, Control_c, 0, 64, 52
2, 224810, Note_on_c, 0, 57, 53
2, 224814, Control_c, 0, 64, 49
2, 224835, Note_on_c, 0, 69, 67
2, 224844, Control_c, 0, 64, 51
2, 224860, Control_c, 0, 64, 54
2, 224874, Control_c, 0, 64, 57
2, 224882, Note_on_c, 0, 52, 0
2, 224890, Control_c, 0, 64, 61
2, 224905, Control_c, 0, 64, 65
2, 224920, Control_c, 0, 64, 69
2, 224924, Note_on_c, 0, 55, 0
2, 224936, Control_c, 0, 64, 72
2, 224950, Control_c, 0, 64, 75
2, 224965, Control_c, 0, 64, 77
2, 224981, Control_c, 0, 64, 78
2, 224984, Note_on_c, 0, 71, 0
2, 224990, Note_on_c, 0, 57, 0
2, 225095, Control_c, 0, 64, 78
2, 225110, Control_c, 0, 64, 77
2, 225113, Note_on_c, 0, 55, 54
2, 225129, Note_on_c, 0, 49, 53
2, 225171, Control_c, 0, 64, 77
2, 225186, Control_c, 0, 64, 75
2, 225201, Control_c, 0, 64, 74
2, 225216, Control_c, 0, 64, 73
2, 225231, Control_c, 0, 64, 72
2, 225246, Control_c, 0, 64, 71
2, 225262, Control_c, 0, 64, 70
2, 225277, Control_c, 0, 64, 69
2, 225292, Control_c, 0, 64, 68
2, 225307, Control_c, 0, 64, 67
2, 225322, Control_c, 0, 64, 65
2, 225337, Control_c, 0, 64, 64
2, 225367, Control_c, 0, 64, 64
2, 225383, Control_c, 0, 64, 63
2, 225398, Control_c, 0, 64, 63
2, 225431, Note_on_c, 0, 54, 39
2, 225450, Note_on_c, 0, 72, 72
2, 225505, Control_c, 0, 64, 62
2, 225520, Control_c, 0, 64, 59
2, 225535, Control_c, 0, 64, 55
2, 225550, Control_c, 0, 64, 53
2, 225569, Note_on_c, 0, 55, 0
2, 225591, Note_on_c, 0, 73, 0
2, 225609, Note_on_c, 0, 49, 0
2, 225638, Note_on_c, 0, 69, 0
2, 225760, Note_on_c, 0, 52, 53
2, 225774, Note_on_c, 0, 67, 61
2, 225877, Control_c, 0, 64, 52
2, 225893, Control_c, 0, 64, 52
2, 225908, Control_c, 0, 64, 51
2, 225999, Control_c, 0, 64, 50
2, 226015, Control_c, 0, 64, 49
2, 226030, Control_c, 0, 64, 48
2, 226045, Control_c, 0, 64, 47
2, 226052, Note_on_c, 0, 50, 55
2, 226059, Note_on_c, 0, 66, 63
2, 226060, Control_c, 0, 64, 46
2, 226161, Note_on_c, 0, 67, 0
2, 226166, Note_on_c, 0, 52, 0
2, 226179, Control_c, 0, 64, 46
2, 226346, Control_c, 0, 64, 45
2, 226361, Control_c, 0, 64, 45
2, 226364, Note_on_c, 0, 57, 63
2, 226364, Note_on_c, 0, 64, 63
2, 226377, Control_c, 0, 64, 44
2, 226466, Note_on_c, 0, 54, 0
2, 226466, Note_on_c, 0, 66, 0
2, 226671, Note_on_c, 0, 62, 65
2, 226701, Note_on_c, 0, 66, 51
2, 226753, Note_on_c, 0, 57, 0
2, 226796, Control_c, 0, 64, 46
2, 226810, Control_c, 0, 64, 47
2, 226821, Note_on_c, 0, 64, 0
2, 226826, Control_c, 0, 64, 47
2, 226857, Control_c, 0, 64, 48
2, 226872, Control_c, 0, 64, 48
2, 226978, Control_c, 0, 64, 48
2, 226983, Note_on_c, 0, 60, 67
2, 226985, Note_on_c, 0, 69, 60
2, 227023, Control_c, 0, 64, 48
2, 227038, Control_c, 0, 64, 52
2, 227045, Note_on_c, 0, 62, 0
2, 227051, Note_on_c, 0, 72, 0
2, 227053, Control_c, 0, 64, 57
2, 227069, Control_c, 0, 64, 59
2, 227084, Control_c, 0, 64, 60
2, 227099, Control_c, 0, 64, 61
2, 227114, Control_c, 0, 64, 62
2, 227129, Control_c, 0, 64, 63
2, 227190, Control_c, 0, 64, 63
2, 227206, Control_c, 0, 64, 65
2, 227222, Control_c, 0, 64, 66
2, 227237, Control_c, 0, 64, 67
2, 227251, Control_c, 0, 64, 66
2, 227267, Control_c, 0, 64, 62
2, 227277, Note_on_c, 0, 59, 62
2, 227282, Control_c, 0, 64, 53
2, 227298, Control_c, 0, 64, 42
2, 227300, Note_on_c, 0, 74, 67
2, 227321, Control_c, 0, 64, 38
2, 227351, Control_c, 0, 64, 45
2, 227366, Control_c, 0, 64, 57
2, 227382, Control_c, 0, 64, 64
2, 227396, Note_on_c, 0, 60, 0
2, 227397, Control_c, 0, 64, 70
2, 227402, Note_on_c, 0, 69, 0
2, 227411, Control_c, 0, 64, 76
2, 227427, Control_c, 0, 64, 82
2, 227432, Note_on_c, 0, 50, 0
2, 227442, Control_c, 0, 64, 86
2, 227458, Control_c, 0, 64, 86
2, 227469, Note_on_c, 0, 59, 0
2, 227472, Control_c, 0, 64, 85
2, 227487, Control_c, 0, 64, 84
2, 227503, Control_c, 0, 64, 83
2, 227518, Control_c, 0, 64, 83
2, 227563, Control_c, 0, 64, 82
2, 227576, Note_on_c, 0, 57, 61
2, 227579, Control_c, 0, 64, 80
2, 227581, Note_on_c, 0, 50, 54
2, 227586, Note_on_c, 0, 72, 68
2, 227594, Control_c, 0, 64, 78
2, 227609, Control_c, 0, 64, 75
2, 227624, Control_c, 0, 64, 71
2, 227631, Note_on_c, 0, 74, 0
2, 227639, Control_c, 0, 64, 66
2, 227654, Control_c, 0, 64, 61
2, 227670, Control_c, 0, 64, 58
2, 227685, Control_c, 0, 64, 56
2, 227701, Control_c, 0, 64, 54
2, 227716, Control_c, 0, 64, 52
2, 227731, Control_c, 0, 64, 50
2, 227746, Control_c, 0, 64, 47
2, 227761, Control_c, 0, 64, 44
2, 227777, Control_c, 0, 64, 43
2, 227791, Control_c, 0, 64, 43
2, 227806, Control_c, 0, 64, 42
2, 227822, Control_c, 0, 64, 41
2, 227837, Control_c, 0, 64, 40
2, 227852, Control_c, 0, 64, 38
2, 227867, Control_c, 0, 64, 35
2, 227882, Control_c, 0, 64, 33
2, 227897, Note_on_c, 0, 55, 61
2, 227898, Control_c, 0, 64, 29
2, 227903, Note_on_c, 0, 71, 63
2, 227913, Control_c, 0, 64, 25
2, 227928, Control_c, 0, 64, 21
2, 227943, Control_c, 0, 64, 19
2, 227958, Control_c, 0, 64, 17
2, 227973, Control_c, 0, 64, 16
2, 227987, Note_on_c, 0, 72, 0
2, 228003, Control_c, 0, 64, 15
2, 228013, Note_on_c, 0, 57, 0
2, 228034, Note_on_c, 0, 50, 0
2, 228037, Note_on_c, 0, 66, 0
2, 228193, Note_on_c, 0, 54, 47
2, 228218, Note_on_c, 0, 62, 63
2, 228477, Note_on_c, 0, 52, 52
2, 228502, Note_on_c, 0, 67, 60
2, 228554, Note_on_c, 0, 54, 0
2, 228621, Note_on_c, 0, 62, 0
2, 228635, Control_c, 0, 64, 16
2, 228681, Control_c, 0, 64, 17
2, 228697, Control_c, 0, 64, 19
2, 228711, Control_c, 0, 64, 22
2, 228726, Control_c, 0, 64, 24
2, 228742, Control_c, 0, 64, 26
2, 228757, Control_c, 0, 64, 26
2, 228772, Control_c, 0, 64, 28
2, 228783, Note_on_c, 0, 50, 51
2, 228786, Note_on_c, 0, 66, 61
2, 228787, Control_c, 0, 64, 30
2, 228802, Control_c, 0, 64, 33
2, 228818, Control_c, 0, 64, 39
2, 228825, Note_on_c, 0, 52, 0
2, 228841, Control_c, 0, 64, 48
2, 228857, Control_c, 0, 64, 55
2, 228872, Control_c, 0, 64, 59
2, 228887, Control_c, 0, 64, 62
2, 228902, Control_c, 0, 64, 64
2, 228917, Control_c, 0, 64, 66
2, 228932, Control_c, 0, 64, 68
2, 228940, Note_on_c, 0, 67, 0
2, 228948, Control_c, 0, 64, 69
2, 228994, Control_c, 0, 64, 68
2, 229009, Control_c, 0, 64, 68
2, 229024, Control_c, 0, 64, 67
2, 229039, Control_c, 0, 64, 67
2, 229054, Control_c, 0, 64, 66
2, 229070, Control_c, 0, 64, 66
2, 229077, Note_on_c, 0, 49, 53
2, 229093, Note_on_c, 0, 64, 58
2, 229130, Control_c, 0, 64, 65
2, 229136, Note_on_c, 0, 50, 0
2, 229146, Control_c, 0, 64, 61
2, 229161, Control_c, 0, 64, 51
2, 229177, Control_c, 0, 64, 33
2, 229192, Control_c, 0, 64, 0
2, 229197, Note_on_c, 0, 66, 0
2, 229216, Note_on_c, 0, 55, 0
2, 229237, Control_c, 0, 64, 36
2, 229252, Control_c, 0, 64, 52
2, 229268, Control_c, 0, 64, 58
2, 229282, Control_c, 0, 64, 61
2, 229298, Control_c, 0, 64, 62
2, 229344, Control_c, 0, 64, 63
2, 229373, Control_c, 0, 64, 64
2, 229379, Note_on_c, 0, 52, 60
2, 229386, Note_on_c, 0, 62, 54
2, 229389, Control_c, 0, 64, 65
2, 229404, Control_c, 0, 64, 66
2, 229420, Control_c, 0, 64, 65
2, 229434, Control_c, 0, 64, 59
2, 229449, Control_c, 0, 64, 38
2, 229465, Control_c, 0, 64, 0
2, 229483, Note_on_c, 0, 64, 0
2, 229496, Control_c, 0, 64, 17
2, 229511, Control_c, 0, 64, 49
2, 229521, Note_on_c, 0, 62, 0
2, 229526, Control_c, 0, 64, 61
2, 229541, Control_c, 0, 64, 66
2, 229556, Control_c, 0, 64, 70
2, 229559, Note_on_c, 0, 52, 0
2, 229571, Control_c, 0, 64, 71
2, 229602, Control_c, 0, 64, 71
2, 229625, Control_c, 0, 64, 70
2, 229639, Control_c, 0, 64, 70
2, 229654, Control_c, 0, 64, 70
2, 229685, Note_on_c, 0, 57, 47
2, 229700, Note_on_c, 0, 69, 57
2, 229715, Note_on_c, 0, 61, 49
2, 229731, Control_c, 0, 64, 67
2, 229747, Control_c, 0, 64, 60
2, 229762, Control_c, 0, 64, 23
2, 229778, Control_c, 0, 64, 0
2, 229801, Note_on_c, 0, 71, 0
2, 229807, Control_c, 0, 64, 33
2, 229823, Control_c, 0, 64, 57
2, 229834, Note_on_c, 0, 57, 0
2, 229838, Control_c, 0, 64, 65
2, 229853, Control_c, 0, 64, 72
2, 229868, Control_c, 0, 64, 80
2, 229883, Control_c, 0, 64, 85
2, 229899, Control_c, 0, 64, 87
2, 229929, Control_c, 0, 64, 86
2, 229945, Control_c, 0, 64, 85
2, 229960, Control_c, 0, 64, 84
2, 230005, Note_on_c, 0, 45, 59
2, 230010, Note_on_c, 0, 55, 53
2, 230036, Control_c, 0, 64, 82
2, 230051, Control_c, 0, 64, 76
2, 230057, Note_on_c, 0, 49, 0
2, 230067, Control_c, 0, 64, 65
2, 230081, Control_c, 0, 64, 57
2, 230097, Control_c, 0, 64, 58
2, 230112, Control_c, 0, 64, 62
2, 230126, Control_c, 0, 64, 66
2, 230142, Control_c, 0, 64, 69
2, 230157, Control_c, 0, 64, 74
2, 230166, Note_on_c, 0, 55, 0
2, 230172, Control_c, 0, 64, 79
2, 230188, Control_c, 0, 64, 82
2, 230202, Control_c, 0, 64, 85
2, 230218, Control_c, 0, 64, 87
2, 230233, Control_c, 0, 64, 87
2, 230264, Control_c, 0, 64, 86
2, 230278, Control_c, 0, 64, 85
2, 230293, Control_c, 0, 64, 84
2, 230309, Control_c, 0, 64, 83
2, 230324, Control_c, 0, 64, 82
2, 230339, Control_c, 0, 64, 79
2, 230354, Control_c, 0, 64, 77
2, 230357, Note_on_c, 0, 54, 52
2, 230358, Note_on_c, 0, 50, 61
2, 230369, Control_c, 0, 64, 75
2, 230393, Control_c, 0, 64, 74
2, 230407, Control_c, 0, 64, 74
2, 230423, Control_c, 0, 64, 72
2, 230438, Control_c, 0, 64, 69
2, 230453, Control_c, 0, 64, 66
2, 230468, Control_c, 0, 64, 64
2, 230485, Control_c, 0, 64, 63
2, 230501, Control_c, 0, 64, 62
2, 230503, Note_on_c, 0, 45, 0
2, 230515, Control_c, 0, 64, 61
2, 230530, Control_c, 0, 64, 60
2, 230546, Control_c, 0, 64, 58
2, 230560, Control_c, 0, 64, 57
2, 230576, Control_c, 0, 64, 56
2, 230591, Control_c, 0, 64, 54
2, 230606, Control_c, 0, 64, 52
2, 230622, Control_c, 0, 64, 49
2, 230636, Control_c, 0, 64, 46
2, 230651, Control_c, 0, 64, 42
2, 230667, Control_c, 0, 64, 38
2, 230682, Control_c, 0, 64, 33
2, 230682, Note_on_c, 0, 57, 61
2, 230691, Note_on_c, 0, 48, 49
2, 230697, Control_c, 0, 64, 26
2, 230712, Control_c, 0, 64, 19
2, 230727, Control_c, 0, 64, 13
2, 230743, Control_c, 0, 64, 12
2, 230772, Note_on_c, 0, 61, 0
2, 230797, Note_on_c, 0, 50, 0
2, 230879, Control_c, 0, 64, 13
2, 230909, Control_c, 0, 64, 15
2, 230924, Control_c, 0, 64, 17
2, 230940, Control_c, 0, 64, 18
2, 230955, Control_c, 0, 64, 19
2, 230989, Note_on_c, 0, 62, 61
2, 230993, Note_on_c, 0, 47, 57
2, 231000, Control_c, 0, 64, 18
2, 231031, Control_c, 0, 64, 17
2, 231061, Control_c, 0, 64, 20
2, 231076, Control_c, 0, 64, 37
2, 231086, Note_on_c, 0, 48, 0
2, 231091, Control_c, 0, 64, 51
2, 231094, Note_on_c, 0, 57, 0
2, 231107, Control_c, 0, 64, 59
2, 231122, Control_c, 0, 64, 62
2, 231137, Control_c, 0, 64, 64
2, 231160, Control_c, 0, 64, 66
2, 231174, Control_c, 0, 64, 67
2, 231190, Control_c, 0, 64, 69
2, 231205, Control_c, 0, 64, 71
2, 231221, Control_c, 0, 64, 72
2, 231236, Control_c, 0, 64, 72
2, 231253, Control_c, 0, 64, 74
2, 231283, Control_c, 0, 64, 71
2, 231286, Note_on_c, 0, 45, 54
2, 231299, Control_c, 0, 64, 64
2, 231304, Note_on_c, 0, 60, 62
2, 231315, Control_c, 0, 64, 52
2, 231331, Control_c, 0, 64, 49
2, 231346, Control_c, 0, 64, 53
2, 231360, Control_c, 0, 64, 61
2, 231367, Note_on_c, 0, 47, 0
2, 231376, Control_c, 0, 64, 66
2, 231391, Control_c, 0, 64, 71
2, 231402, Note_on_c, 0, 45, 0
2, 231405, Control_c, 0, 64, 78
2, 231421, Control_c, 0, 64, 84
2, 231436, Control_c, 0, 64, 91
2, 231452, Control_c, 0, 64, 97
2, 231467, Control_c, 0, 64, 100
2, 231473, Note_on_c, 0, 62, 0
2, 231481, Control_c, 0, 64, 99
2, 231497, Control_c, 0, 64, 97
2, 231512, Control_c, 0, 64, 96
2, 231527, Control_c, 0, 64, 95
2, 231543, Control_c, 0, 64, 94
2, 231558, Control_c, 0, 64, 92
2, 231574, Control_c, 0, 64, 89
2, 231589, Control_c, 0, 64, 85
2, 231598, Note_on_c, 0, 43, 60
2, 231604, Control_c, 0, 64, 82
2, 231612, Note_on_c, 0, 59, 69
2, 231619, Control_c, 0, 64, 79
2, 231634, Control_c, 0, 64, 77
2, 231650, Control_c, 0, 64, 75
2, 231665, Control_c, 0, 64, 73
2, 231679, Control_c, 0, 64, 71
2, 231695, Control_c, 0, 64, 68
2, 231710, Control_c, 0, 64, 65
2, 231725, Control_c, 0, 64, 63
2, 231733, Note_on_c, 0, 60, 0
2, 231740, Control_c, 0, 64, 61
2, 231755, Control_c, 0, 64, 54
2, 231771, Control_c, 0, 64, 45
2, 231786, Control_c, 0, 64, 32
2, 231801, Control_c, 0, 64, 0
2, 231900, Note_on_c, 0, 47, 69
2, 231996, Note_on_c, 0, 54, 0
2, 232223, Note_on_c, 0, 67, 69
2, 232241, Note_on_c, 0, 52, 52
2, 232357, Note_on_c, 0, 47, 0
2, 232396, Note_on_c, 0, 59, 0
2, 232414, Note_on_c, 0, 69, 0
2, 232552, Note_on_c, 0, 59, 65
2, 232556, Note_on_c, 0, 50, 45
2, 232683, Control_c, 0, 64, 53
2, 232699, Control_c, 0, 64, 64
2, 232709, Note_on_c, 0, 52, 0
2, 232714, Control_c, 0, 64, 68
2, 232730, Control_c, 0, 64, 71
2, 232744, Control_c, 0, 64, 74
2, 232744, Note_on_c, 0, 43, 0
2, 232866, Control_c, 0, 64, 73
2, 232879, Note_on_c, 0, 64, 68
2, 232897, Control_c, 0, 64, 73
2, 232898, Note_on_c, 0, 45, 44
2, 232899, Note_on_c, 0, 49, 46
2, 232943, Control_c, 0, 64, 70
2, 232958, Control_c, 0, 64, 66
2, 232974, Control_c, 0, 64, 59
2, 232989, Control_c, 0, 64, 43
2, 233004, Control_c, 0, 64, 18
2, 233019, Control_c, 0, 64, 0
2, 233031, Note_on_c, 0, 50, 0
2, 233063, Control_c, 0, 64, 49
2, 233072, Note_on_c, 0, 59, 0
2, 233078, Control_c, 0, 64, 64
2, 233092, Control_c, 0, 64, 70
2, 233108, Control_c, 0, 64, 76
2, 233117, Note_on_c, 0, 64, 0
2, 233123, Control_c, 0, 64, 80
2, 233139, Control_c, 0, 64, 81
2, 233218, Note_on_c, 0, 64, 74
2, 233219, Note_on_c, 0, 50, 47
2, 233226, Note_on_c, 0, 62, 54
2, 233244, Control_c, 0, 64, 77
2, 233260, Control_c, 0, 64, 69
2, 233275, Control_c, 0, 64, 56
2, 233290, Control_c, 0, 64, 27
2, 233305, Control_c, 0, 64, 18
2, 233336, Control_c, 0, 64, 27
2, 233351, Control_c, 0, 64, 49
2, 233366, Control_c, 0, 64, 61
2, 233369, Note_on_c, 0, 67, 0
2, 233381, Control_c, 0, 64, 66
2, 233381, Note_on_c, 0, 49, 0
2, 233396, Control_c, 0, 64, 72
2, 233404, Note_on_c, 0, 62, 0
2, 233411, Control_c, 0, 64, 77
2, 233427, Control_c, 0, 64, 81
2, 233442, Control_c, 0, 64, 82
2, 233496, Control_c, 0, 64, 81
2, 233510, Control_c, 0, 64, 80
2, 233525, Control_c, 0, 64, 78
2, 233541, Control_c, 0, 64, 76
2, 233555, Control_c, 0, 64, 76
2, 233562, Note_on_c, 0, 52, 49
2, 233570, Control_c, 0, 64, 75
2, 233584, Note_on_c, 0, 69, 68
2, 233586, Control_c, 0, 64, 73
2, 233588, Note_on_c, 0, 61, 62
2, 233601, Control_c, 0, 64, 70
2, 233617, Control_c, 0, 64, 69
2, 233632, Control_c, 0, 64, 68
2, 233647, Control_c, 0, 64, 66
2, 233663, Control_c, 0, 64, 65
2, 233678, Control_c, 0, 64, 62
2, 233692, Control_c, 0, 64, 57
2, 233708, Control_c, 0, 64, 53
2, 233709, Note_on_c, 0, 64, 0
2, 233723, Control_c, 0, 64, 48
2, 233739, Control_c, 0, 64, 44
2, 233754, Control_c, 0, 64, 38
2, 233769, Control_c, 0, 64, 35
2, 233785, Control_c, 0, 64, 34
2, 233797, Note_on_c, 0, 50, 0
2, 233831, Control_c, 0, 64, 35
2, 233891, Control_c, 0, 64, 35
2, 233956, Note_on_c, 0, 67, 69
2, 233978, Note_on_c, 0, 64, 59
2, 234035, Note_on_c, 0, 69, 0
2, 234043, Control_c, 0, 64, 35
2, 234059, Control_c, 0, 64, 33
2, 234073, Control_c, 0, 64, 28
2, 234088, Control_c, 0, 64, 0
2, 234133, Note_on_c, 0, 61, 0
2, 234180, Control_c, 0, 64, 35
2, 234194, Control_c, 0, 64, 55
2, 234209, Control_c, 0, 64, 61
2, 234233, Control_c, 0, 64, 64
2, 234248, Control_c, 0, 64, 65
2, 234264, Control_c, 0, 64, 67
2, 234340, Control_c, 0, 64, 66
2, 234362, Note_on_c, 0, 66, 70
2, 234369, Control_c, 0, 64, 66
2, 234385, Control_c, 0, 64, 65
2, 234461, Control_c, 0, 64, 64
2, 234476, Control_c, 0, 64, 61
2, 234490, Control_c, 0, 64, 51
2, 234506, Control_c, 0, 64, 38
2, 234521, Control_c, 0, 64, 33
2, 234521, Note_on_c, 0, 67, 0
2, 234551, Control_c, 0, 64, 40
2, 234566, Control_c, 0, 64, 52
2, 234583, Control_c, 0, 64, 60
2, 234598, Control_c, 0, 64, 65
2, 234613, Control_c, 0, 64, 68
2, 234628, Control_c, 0, 64, 73
2, 234643, Control_c, 0, 64, 76
2, 234659, Control_c, 0, 64, 77
2, 234674, Control_c, 0, 64, 77
2, 234689, Control_c, 0, 64, 76
2, 234704, Control_c, 0, 64, 75
2, 234719, Control_c, 0, 64, 74
2, 234734, Control_c, 0, 64, 73
2, 234750, Control_c, 0, 64, 72
2, 234764, Note_on_c, 0, 62, 68
2, 234765, Control_c, 0, 64, 71
2, 234769, Note_on_c, 0, 50, 52
2, 234780, Control_c, 0, 64, 70
2, 234856, Control_c, 0, 64, 69
2, 234871, Control_c, 0, 64, 68
2, 234886, Control_c, 0, 64, 65
2, 234889, Note_on_c, 0, 52, 0
2, 234899, Control_c, 0, 64, 61
2, 234914, Control_c, 0, 64, 54
2, 234929, Control_c, 0, 64, 47
2, 234960, Control_c, 0, 64, 51
2, 234975, Control_c, 0, 64, 57
2, 234998, Control_c, 0, 64, 61
2, 235000, Note_on_c, 0, 64, 0
2, 235013, Control_c, 0, 64, 65
2, 235029, Control_c, 0, 64, 68
2, 235043, Control_c, 0, 64, 73
2, 235058, Control_c, 0, 64, 77
2, 235074, Control_c, 0, 64, 80
2, 235089, Control_c, 0, 64, 84
2, 235105, Control_c, 0, 64, 87
2, 235119, Control_c, 0, 64, 89
2, 235134, Control_c, 0, 64, 88
2, 235150, Control_c, 0, 64, 88
2, 235179, Control_c, 0, 64, 87
2, 235195, Control_c, 0, 64, 87
2, 235210, Control_c, 0, 64, 85
2, 235226, Control_c, 0, 64, 83
2, 235241, Control_c, 0, 64, 82
2, 235269, Note_on_c, 0, 64, 76
2, 235271, Note_on_c, 0, 57, 49
2, 235272, Control_c, 0, 64, 81
2, 235287, Control_c, 0, 64, 80
2, 235301, Control_c, 0, 64, 79
2, 235316, Control_c, 0, 64, 76
2, 235331, Control_c, 0, 64, 75
2, 235347, Control_c, 0, 64, 74
2, 235376, Control_c, 0, 64, 73
2, 235394, Control_c, 0, 64, 72
2, 235409, Control_c, 0, 64, 70
2, 235424, Control_c, 0, 64, 66
2, 235439, Control_c, 0, 64, 62
2, 235454, Control_c, 0, 64, 55
2, 235469, Control_c, 0, 64, 40
2, 235470, Note_on_c, 0, 50, 0
2, 235484, Control_c, 0, 64, 0
2, 235522, Note_on_c, 0, 66, 0
2, 235560, Control_c, 0, 64, 45
2, 235575, Control_c, 0, 64, 57
2, 235591, Control_c, 0, 64, 62
2, 235606, Control_c, 0, 64, 65
2, 235620, Control_c, 0, 64, 70
2, 235636, Control_c, 0, 64, 75
2, 235651, Control_c, 0, 64, 79
2, 235656, Note_on_c, 0, 57, 0
2, 235667, Control_c, 0, 64, 82
2, 235681, Control_c, 0, 64, 85
2, 235696, Control_c, 0, 64, 86
2, 235780, Control_c, 0, 64, 85
2, 235796, Control_c, 0, 64, 85
2, 235810, Control_c, 0, 64, 84
2, 235826, Control_c, 0, 64, 82
2, 235826, Note_on_c, 0, 55, 50
2, 235827, Note_on_c, 0, 61, 54
2, 235841, Control_c, 0, 64, 81
2, 235856, Control_c, 0, 64, 80
2, 235872, Control_c, 0, 64, 79
2, 235886, Control_c, 0, 64, 76
2, 235901, Control_c, 0, 64, 73
2, 235917, Control_c, 0, 64, 71
2, 235932, Control_c, 0, 64, 70
2, 235948, Control_c, 0, 64, 68
2, 235962, Control_c, 0, 64, 67
2, 235977, Control_c, 0, 64, 65
2, 235993, Control_c, 0, 64, 63
2, 236008, Control_c, 0, 64, 62
2, 236010, Note_on_c, 0, 62, 0
2, 236024, Control_c, 0, 64, 61
2, 236039, Control_c, 0, 64, 59
2, 236054, Control_c, 0, 64, 56
2, 236070, Control_c, 0, 64, 52
2, 236085, Control_c, 0, 64, 47
2, 236099, Control_c, 0, 64, 40
2, 236115, Control_c, 0, 64, 37
2, 236130, Control_c, 0, 64, 33
2, 236146, Control_c, 0, 64, 22
2, 236161, Control_c, 0, 64, 0
2, 236314, Control_c, 0, 64, 49
2, 236329, Control_c, 0, 64, 59
2, 236345, Control_c, 0, 64, 65
2, 236360, Control_c, 0, 64, 71
2, 236375, Control_c, 0, 64, 78
2, 236390, Control_c, 0, 64, 84
2, 236405, Control_c, 0, 64, 90
2, 236420, Control_c, 0, 64, 96
2, 236433, Note_on_c, 0, 45, 0
2, 236436, Control_c, 0, 64, 100
2, 236450, Control_c, 0, 64, 101
2, 236466, Control_c, 0, 64, 104
2, 236481, Control_c, 0, 64, 107
2, 236496, Control_c, 0, 64, 112
2, 236509, Note_on_c, 0, 55, 0
2, 236512, Control_c, 0, 64, 119
2, 236534, Control_c, 0, 64, 127
2, 236561, Note_on_c, 0, 61, 0
2, 236919, Note_on_c, 0, 62, 52
2, 236934, Note_on_c, 0, 54, 44
2, 236937, Note_on_c, 0, 38, 41
2, 236937, Note_on_c, 0, 57, 42
2, 237081, Control_c, 0, 64, 119
2, 237096, Control_c, 0, 64, 110
2, 237112, Control_c, 0, 64, 104
2, 237127, Control_c, 0, 64, 96
2, 237143, Control_c, 0, 64, 87
2, 237157, Control_c, 0, 64, 79
2, 237172, Control_c, 0, 64, 73
2, 237188, Control_c, 0, 64, 68
2, 237203, Control_c, 0, 64, 64
2, 237205, Note_on_c, 0, 64, 0
2, 237218, Control_c, 0, 64, 56
2, 237233, Control_c, 0, 64, 30
2, 237248, Control_c, 0, 64, 0
2, 240403, Note_on_c, 0, 57, 0
2, 240492, Note_on_c, 0, 54, 0
2, 240536, Note_on_c, 0, 62, 0
2, 240557, Note_on_c, 0, 38, 0
2, 240558, End_track
0, 0, End_of_file
