0, 0, Header, 1, 2, 384
1, 0, Start_track
1, 0, Tempo, 500000
1, 0, Time_signature, 4, 2, 24, 8
1, 1, End_track
2,0,Start_track
2,0, Note_on_c, 0, 62, 50
2,11, Control_c, 0, 64, 49
2,27, Control_c, 0, 64, 41
2,41, Control_c, 0, 64, 22
2,65, Control_c, 0, 64, 0
2,125, Control_c, 0, 64, 39
2,141, Control_c, 0, 64, 54
2,156, Control_c, 0, 64, 60
2,170, Control_c, 0, 64, 63
2,186, Control_c, 0, 64, 65
2,201, Control_c, 0, 64, 66
2,217, Control_c, 0, 64, 67
2,224, Note_on_c, 0, 62, 0
2,232, Control_c, 0, 64, 66
2,293, Control_c, 0, 64, 67
2,340, Note_on_c, 0, 62, 62
2,354, Control_c, 0, 64, 65
2,369, Control_c, 0, 64, 60
2,386, Control_c, 0, 64, 47
2,400, Control_c, 0, 64, 36
2,431, Control_c, 0, 64, 43
2,446, Control_c, 0, 64, 54
2,462, Control_c, 0, 64, 61
2,476, Control_c, 0, 64, 65
2,491, Control_c, 0, 64, 68
2,507, Control_c, 0, 64, 72
2,521, Control_c, 0, 64, 74
2,537, Control_c, 0, 64, 76
2,552, Control_c, 0, 64, 75
2,556, Note_on_c, 0, 62, 0
2,567, Control_c, 0, 64, 75
2,583, Control_c, 0, 64, 74
2,597, Control_c, 0, 64, 74
2,628, Control_c, 0, 64, 73
2,643, Control_c, 0, 64, 72
2,648, Note_on_c, 0, 62, 69
2,659, Control_c, 0, 64, 71
2,673, Control_c, 0, 64, 69
2,688, Control_c, 0, 64, 69
2,704, Control_c, 0, 64, 68
2,719, Control_c, 0, 64, 67
2,735, Control_c, 0, 64, 65
2,750, Control_c, 0, 64, 64
2,765, Control_c, 0, 64, 62
2,781, Control_c, 0, 64, 60
2,795, Control_c, 0, 64, 58
2,810, Control_c, 0, 64, 55
2,833, Control_c, 0, 64, 52
2,848, Control_c, 0, 64, 48
2,864, Control_c, 0, 64, 43
2,879, Control_c, 0, 64, 38
2,893, Control_c, 0, 64, 34
2,909, Control_c, 0, 64, 30
2,924, Control_c, 0, 64, 23
2,940, Control_c, 0, 64, 17
2,955, Control_c, 0, 64, 12
2,969, Control_c, 0, 64, 8
2,985, Control_c, 0, 64, 0
2,997, Note_on_c, 0, 55, 65
2,1108, Note_on_c, 0, 62, 0
2,1305, Control_c, 0, 64, 20
2,1319, Control_c, 0, 64, 32
2,1335, Control_c, 0, 64, 42
2,1350, Control_c, 0, 64, 48
2,1364, Control_c, 0, 64, 53
2,1380, Control_c, 0, 64, 58
2,1395, Control_c, 0, 64, 62
2,1410, Control_c, 0, 64, 65
2,1426, Control_c, 0, 64, 68
2,1440, Control_c, 0, 64, 72
2,1456, Control_c, 0, 64, 76
2,1471, Control_c, 0, 64, 81
2,1486, Control_c, 0, 64, 86
2,1502, Control_c, 0, 64, 92
2,1517, Control_c, 0, 64, 96
2,1532, Control_c, 0, 64, 97
2,1562, Control_c, 0, 64, 96
2,1578, Control_c, 0, 64, 95
2,1600, Control_c, 0, 64, 93
2,1616, Control_c, 0, 64, 93
2,1631, Control_c, 0, 64, 92
2,1645, Control_c, 0, 64, 90
2,1661, Control_c, 0, 64, 88
2,1676, Control_c, 0, 64, 86
2,1691, Control_c, 0, 64, 84
2,1707, Control_c, 0, 64, 82
2,1716, Note_on_c, 0, 59, 61
2,1722, Control_c, 0, 64, 81
2,1738, Control_c, 0, 64, 80
2,1753, Control_c, 0, 64, 80
2,1767, Control_c, 0, 64, 78
2,1783, Control_c, 0, 64, 77
2,1798, Control_c, 0, 64, 75
2,1813, Control_c, 0, 64, 74
2,1829, Control_c, 0, 64, 74
2,1844, Control_c, 0, 64, 73
2,1859, Control_c, 0, 64, 71
2,1874, Control_c, 0, 64, 69
2,1889, Control_c, 0, 64, 68
2,1906, Control_c, 0, 64, 67
2,1920, Control_c, 0, 64, 66
2,1936, Control_c, 0, 64, 65
2,1951, Control_c, 0, 64, 64
2,1957, Note_on_c, 0, 55, 0
2,1966, Control_c, 0, 64, 63
2,1982, Control_c, 0, 64, 62
2,1997, Control_c, 0, 64, 60
2,2011, Control_c, 0, 64, 59
2,2027, Control_c, 0, 64, 57
2,2042, Control_c, 0, 64, 54
2,2058, Control_c, 0, 64, 51
2,2073, Control_c, 0, 64, 42
2,2087, Control_c, 0, 64, 32
2,2103, Control_c, 0, 64, 19
2,2118, Control_c, 0, 64, 0
2,2399, Control_c, 0, 64, 26
2,2415, Control_c, 0, 64, 42
2,2429, Control_c, 0, 64, 51
2,2444, Control_c, 0, 64, 57
2,2460, Control_c, 0, 64, 62
2,2475, Control_c, 0, 64, 65
2,2490, Control_c, 0, 64, 68
2,2505, Control_c, 0, 64, 72
2,2520, Control_c, 0, 64, 74
2,2536, Control_c, 0, 64, 77
2,2551, Control_c, 0, 64, 78
2,2565, Control_c, 0, 64, 79
2,2642, Control_c, 0, 64, 78
2,2658, Control_c, 0, 64, 78
2,2675, Control_c, 0, 64, 77
2,2690, Control_c, 0, 64, 77
2,2704, Control_c, 0, 64, 76
2,2709, Note_on_c, 0, 52, 51
2,2720, Control_c, 0, 64, 75
2,2736, Control_c, 0, 64, 74
2,2751, Control_c, 0, 64, 74
2,2766, Control_c, 0, 64, 73
2,2782, Control_c, 0, 64, 73
2,2797, Control_c, 0, 64, 72
2,2812, Control_c, 0, 64, 71
2,2827, Control_c, 0, 64, 69
2,2842, Control_c, 0, 64, 68
2,2846, Note_on_c, 0, 59, 0
2,2857, Control_c, 0, 64, 66
2,2872, Control_c, 0, 64, 65
2,2888, Control_c, 0, 64, 65
2,2903, Control_c, 0, 64, 64
2,2918, Control_c, 0, 64, 63
2,2933, Control_c, 0, 64, 62
2,2948, Control_c, 0, 64, 61
2,2963, Control_c, 0, 64, 60
2,2978, Control_c, 0, 64, 59
2,2993, Control_c, 0, 64, 58
2,3009, Control_c, 0, 64, 57
2,3024, Control_c, 0, 64, 56
2,3030, Note_on_c, 0, 57, 54
2,3039, Control_c, 0, 64, 55
2,3054, Control_c, 0, 64, 53
2,3069, Control_c, 0, 64, 50
2,3084, Control_c, 0, 64, 47
2,3100, Control_c, 0, 64, 45
2,3115, Control_c, 0, 64, 44
2,3138, Control_c, 0, 64, 42
2,3153, Control_c, 0, 64, 39
2,3169, Control_c, 0, 64, 36
2,3184, Control_c, 0, 64, 31
2,3185, Note_on_c, 0, 52, 0
2,3198, Control_c, 0, 64, 25
2,3214, Control_c, 0, 64, 18
2,3229, Control_c, 0, 64, 12
2,3244, Control_c, 0, 64, 0
2,3345, Note_on_c, 0, 55, 56
2,3464, Note_on_c, 0, 57, 0
2,3653, Note_on_c, 0, 54, 53
2,3861, Note_on_c, 0, 55, 0
2,3984, Note_on_c, 0, 69, 57
2,4073, Control_c, 0, 64, 35
2,4089, Control_c, 0, 64, 52
2,4104, Control_c, 0, 64, 59
2,4118, Control_c, 0, 64, 62
2,4134, Control_c, 0, 64, 64
2,4149, Control_c, 0, 64, 65
2,4164, Control_c, 0, 64, 65
2,4182, Note_on_c, 0, 69, 0
2,4253, Note_on_c, 0, 50, 41
2,4256, Control_c, 0, 64, 66
2,4273, Note_on_c, 0, 69, 63
2,4316, Control_c, 0, 64, 64
2,4332, Control_c, 0, 64, 58
2,4347, Control_c, 0, 64, 35
2,4362, Control_c, 0, 64, 0
2,4409, Control_c, 0, 64, 32
2,4424, Control_c, 0, 64, 51
2,4436, Note_on_c, 0, 54, 0
2,4439, Control_c, 0, 64, 59
2,4455, Control_c, 0, 64, 63
2,4469, Control_c, 0, 64, 64
2,4471, Note_on_c, 0, 69, 0
2,4484, Control_c, 0, 64, 65
2,4500, Control_c, 0, 64, 65
2,4515, Control_c, 0, 64, 65
2,4569, Note_on_c, 0, 69, 61
2,4576, Control_c, 0, 64, 65
2,4621, Control_c, 0, 64, 64
2,4636, Control_c, 0, 64, 57
2,4652, Control_c, 0, 64, 30
2,4674, Control_c, 0, 64, 0
2,4705, Control_c, 0, 64, 38
2,4720, Control_c, 0, 64, 53
2,4736, Control_c, 0, 64, 60
2,4736, Note_on_c, 0, 50, 0
2,4750, Control_c, 0, 64, 63
2,4765, Control_c, 0, 64, 65
2,4781, Control_c, 0, 64, 67
2,4796, Control_c, 0, 64, 68
2,4812, Control_c, 0, 64, 69
2,4841, Control_c, 0, 64, 68
2,4857, Control_c, 0, 64, 68
2,4872, Control_c, 0, 64, 67
2,4883, Note_on_c, 0, 62, 54
2,4886, Control_c, 0, 64, 66
2,4902, Control_c, 0, 64, 65
2,4917, Control_c, 0, 64, 63
2,4933, Control_c, 0, 64, 62
2,4948, Control_c, 0, 64, 62
2,4962, Control_c, 0, 64, 61
2,4978, Control_c, 0, 64, 60
2,4993, Control_c, 0, 64, 58
2,4993, Note_on_c, 0, 69, 0
2,5008, Control_c, 0, 64, 55
2,5023, Control_c, 0, 64, 52
2,5038, Control_c, 0, 64, 50
2,5054, Control_c, 0, 64, 49
2,5069, Control_c, 0, 64, 48
2,5084, Control_c, 0, 64, 47
2,5100, Control_c, 0, 64, 45
2,5115, Control_c, 0, 64, 43
2,5130, Control_c, 0, 64, 42
2,5145, Control_c, 0, 64, 40
2,5160, Control_c, 0, 64, 39
2,5176, Control_c, 0, 64, 37
2,5191, Control_c, 0, 64, 32
2,5191, Note_on_c, 0, 54, 43
2,5206, Control_c, 0, 64, 25
2,5222, Control_c, 0, 64, 12
2,5237, Control_c, 0, 64, 0
2,5479, Note_on_c, 0, 59, 33
2,5518, Note_on_c, 0, 66, 57
2,5617, Note_on_c, 0, 54, 0
2,5757, Note_on_c, 0, 62, 0
2,5802, Note_on_c, 0, 57, 44
2,5901, Note_on_c, 0, 59, 0
2,6098, Note_on_c, 0, 56, 46
2,6240, Control_c, 0, 64, 19
2,6255, Note_on_c, 0, 57, 0
2,6256, Control_c, 0, 64, 32
2,6271, Control_c, 0, 64, 39
2,6285, Control_c, 0, 64, 43
2,6301, Control_c, 0, 64, 45
2,6316, Control_c, 0, 64, 46
2,6415, Note_on_c, 0, 59, 50
2,6438, Control_c, 0, 64, 45
2,6454, Control_c, 0, 64, 43
2,6469, Control_c, 0, 64, 41
2,6483, Control_c, 0, 64, 39
2,6509, Note_on_c, 0, 66, 0
2,6514, Control_c, 0, 64, 39
2,6709, Note_on_c, 0, 64, 57
2,6711, Control_c, 0, 64, 39
2,6757, Control_c, 0, 64, 36
2,6772, Control_c, 0, 64, 22
2,6787, Control_c, 0, 64, 0
2,6814, Note_on_c, 0, 59, 0
2,6834, Control_c, 0, 64, 16
2,6850, Control_c, 0, 64, 28
2,6865, Control_c, 0, 64, 36
2,6879, Control_c, 0, 64, 42
2,6895, Control_c, 0, 64, 45
2,6910, Control_c, 0, 64, 48
2,6955, Control_c, 0, 64, 46
2,6979, Control_c, 0, 64, 43
2,7024, Control_c, 0, 64, 45
2,7025, Note_on_c, 0, 62, 54
2,7039, Control_c, 0, 64, 47
2,7055, Control_c, 0, 64, 50
2,7070, Control_c, 0, 64, 54
2,7084, Control_c, 0, 64, 60
2,7100, Control_c, 0, 64, 63
2,7115, Control_c, 0, 64, 66
2,7128, Note_on_c, 0, 64, 0
2,7130, Control_c, 0, 64, 68
2,7145, Control_c, 0, 64, 70
2,7160, Control_c, 0, 64, 71
2,7176, Control_c, 0, 64, 72
2,7221, Control_c, 0, 64, 72
2,7236, Control_c, 0, 64, 71
2,7252, Control_c, 0, 64, 70
2,7267, Control_c, 0, 64, 69
2,7282, Control_c, 0, 64, 68
2,7298, Control_c, 0, 64, 67
2,7313, Control_c, 0, 64, 66
2,7324, Note_on_c, 0, 62, 0
2,7329, Control_c, 0, 64, 66
2,7336, Note_on_c, 0, 57, 38
2,7347, Note_on_c, 0, 61, 52
2,7420, Control_c, 0, 64, 64
2,7435, Control_c, 0, 64, 56
2,7451, Control_c, 0, 64, 37
2,7465, Control_c, 0, 64, 0
2,7483, Note_on_c, 0, 56, 0
2,7526, Control_c, 0, 64, 24
2,7541, Control_c, 0, 64, 42
2,7556, Control_c, 0, 64, 50
2,7572, Control_c, 0, 64, 54
2,7587, Control_c, 0, 64, 57
2,7602, Control_c, 0, 64, 60
2,7617, Control_c, 0, 64, 61
2,7632, Control_c, 0, 64, 62
2,7634, Note_on_c, 0, 64, 62
2,7649, Control_c, 0, 64, 63
2,7707, Note_on_c, 0, 61, 0
2,7762, Control_c, 0, 64, 63
2,7793, Control_c, 0, 64, 62
2,7809, Control_c, 0, 64, 62
2,7824, Control_c, 0, 64, 61
2,7839, Control_c, 0, 64, 61
2,7854, Control_c, 0, 64, 60
2,7869, Control_c, 0, 64, 59
2,7884, Control_c, 0, 64, 59
2,7900, Control_c, 0, 64, 58
2,7930, Control_c, 0, 64, 58
2,7945, Control_c, 0, 64, 57
2,7945, Note_on_c, 0, 69, 52
2,7953, Note_on_c, 0, 61, 42
2,7960, Control_c, 0, 64, 55
2,7975, Control_c, 0, 64, 54
2,7990, Control_c, 0, 64, 54
2,8005, Control_c, 0, 64, 53
2,8021, Control_c, 0, 64, 52
2,8036, Control_c, 0, 64, 52
2,8051, Control_c, 0, 64, 51
2,8065, Control_c, 0, 64, 51
2,8080, Control_c, 0, 64, 50
2,8082, Note_on_c, 0, 64, 0
2,8096, Control_c, 0, 64, 50
2,8101, Note_on_c, 0, 57, 0
2,8111, Control_c, 0, 64, 48
2,8126, Control_c, 0, 64, 47
2,8142, Control_c, 0, 64, 45
2,8157, Control_c, 0, 64, 43
2,8172, Control_c, 0, 64, 39
2,8187, Control_c, 0, 64, 35
2,8202, Control_c, 0, 64, 32
2,8218, Control_c, 0, 64, 29
2,8233, Control_c, 0, 64, 26
2,8234, Note_on_c, 0, 67, 56
2,8249, Control_c, 0, 64, 22
2,8263, Control_c, 0, 64, 13
2,8278, Control_c, 0, 64, 0
2,8346, Note_on_c, 0, 69, 0
2,8543, Note_on_c, 0, 66, 53
2,8603, Note_on_c, 0, 61, 0
2,8709, Note_on_c, 0, 67, 0
2,8844, Note_on_c, 0, 57, 43
2,9132, Note_on_c, 0, 62, 31
2,9156, Note_on_c, 0, 69, 47
2,9205, Note_on_c, 0, 57, 0
2,9408, Note_on_c, 0, 66, 0
2,9445, Note_on_c, 0, 61, 46
2,9550, Note_on_c, 0, 62, 0
2,9745, Note_on_c, 0, 59, 45
2,9854, Note_on_c, 0, 61, 0
2,10071, Note_on_c, 0, 74, 64
2,10092, Note_on_c, 0, 62, 32
2,10196, Note_on_c, 0, 69, 0
2,10218, Control_c, 0, 64, 19
2,10233, Control_c, 0, 64, 29
2,10248, Control_c, 0, 64, 34
2,10263, Control_c, 0, 64, 37
2,10278, Control_c, 0, 64, 40
2,10281, Note_on_c, 0, 74, 0
2,10294, Control_c, 0, 64, 41
2,10309, Control_c, 0, 64, 42
2,10324, Control_c, 0, 64, 43
2,10371, Control_c, 0, 64, 40
2,10373, Note_on_c, 0, 74, 72
2,10386, Control_c, 0, 64, 32
2,10388, Note_on_c, 0, 67, 52
2,10401, Control_c, 0, 64, 29
2,10431, Control_c, 0, 64, 34
2,10446, Control_c, 0, 64, 42
2,10462, Control_c, 0, 64, 48
2,10477, Control_c, 0, 64, 54
2,10493, Control_c, 0, 64, 57
2,10500, Note_on_c, 0, 62, 0
2,10507, Control_c, 0, 64, 59
2,10522, Control_c, 0, 64, 61
2,10530, Note_on_c, 0, 74, 0
2,10538, Control_c, 0, 64, 62
2,10553, Control_c, 0, 64, 63
2,10568, Control_c, 0, 64, 63
2,10629, Control_c, 0, 64, 61
2,10643, Control_c, 0, 64, 58
2,10659, Control_c, 0, 64, 54
2,10660, Note_on_c, 0, 74, 66
2,10674, Control_c, 0, 64, 53
2,10679, Note_on_c, 0, 66, 51
2,10690, Control_c, 0, 64, 55
2,10705, Control_c, 0, 64, 59
2,10719, Control_c, 0, 64, 61
2,10735, Control_c, 0, 64, 63
2,10750, Control_c, 0, 64, 65
2,10764, Control_c, 0, 64, 67
2,10780, Control_c, 0, 64, 70
2,10786, Note_on_c, 0, 67, 0
2,10793, Note_on_c, 0, 66, 0
2,10795, Control_c, 0, 64, 73
2,10819, Control_c, 0, 64, 74
2,10835, Note_on_c, 0, 74, 0
2,10849, Control_c, 0, 64, 73
2,10859, Note_on_c, 0, 59, 0
2,10864, Control_c, 0, 64, 72
2,10879, Control_c, 0, 64, 72
2,10895, Control_c, 0, 64, 71
2,10910, Control_c, 0, 64, 70
2,10926, Control_c, 0, 64, 69
2,10942, Control_c, 0, 64, 69
2,10960, Note_on_c, 0, 67, 62
2,10979, Note_on_c, 0, 64, 51
2,10987, Control_c, 0, 64, 68
2,11001, Control_c, 0, 64, 68
2,11017, Control_c, 0, 64, 64
2,11032, Control_c, 0, 64, 54
2,11048, Control_c, 0, 64, 35
2,11063, Control_c, 0, 64, 28
2,11093, Control_c, 0, 64, 32
2,11108, Control_c, 0, 64, 45
2,11123, Control_c, 0, 64, 52
2,11139, Control_c, 0, 64, 55
2,11153, Control_c, 0, 64, 56
2,11214, Control_c, 0, 64, 56
2,11244, Control_c, 0, 64, 56
2,11244, Note_on_c, 0, 59, 49
2,11248, Note_on_c, 0, 66, 65
2,11260, Control_c, 0, 64, 52
2,11275, Control_c, 0, 64, 42
2,11291, Control_c, 0, 64, 32
2,11306, Control_c, 0, 64, 25
2,11321, Control_c, 0, 64, 24
2,11337, Control_c, 0, 64, 33
2,11349, Note_on_c, 0, 67, 0
2,11351, Control_c, 0, 64, 48
2,11352, Note_on_c, 0, 64, 0
2,11366, Control_c, 0, 64, 57
2,11382, Control_c, 0, 64, 61
2,11397, Control_c, 0, 64, 63
2,11412, Control_c, 0, 64, 64
2,11427, Control_c, 0, 64, 65
2,11442, Control_c, 0, 64, 64
2,11458, Control_c, 0, 64, 64
2,11473, Control_c, 0, 64, 63
2,11488, Control_c, 0, 64, 63
2,11503, Control_c, 0, 64, 62
2,11518, Control_c, 0, 64, 61
2,11534, Control_c, 0, 64, 60
2,11547, Note_on_c, 0, 64, 39
2,11549, Control_c, 0, 64, 58
2,11553, Note_on_c, 0, 71, 64
2,11563, Control_c, 0, 64, 57
2,11569, Note_on_c, 0, 67, 55
2,11617, Control_c, 0, 64, 57
2,11632, Control_c, 0, 64, 56
2,11646, Note_on_c, 0, 59, 0
2,11648, Control_c, 0, 64, 54
2,11663, Control_c, 0, 64, 51
2,11678, Control_c, 0, 64, 47
2,11691, Note_on_c, 0, 66, 0
2,11693, Control_c, 0, 64, 41
2,11708, Control_c, 0, 64, 34
2,11723, Control_c, 0, 64, 25
2,11740, Control_c, 0, 64, 10
2,11755, Control_c, 0, 64, 0
2,11839, Note_on_c, 0, 62, 49
2,11872, Note_on_c, 0, 64, 0
2,11966, Control_c, 0, 64, 40
2,11982, Control_c, 0, 64, 48
2,11997, Control_c, 0, 64, 50
2,12012, Control_c, 0, 64, 51
2,12027, Control_c, 0, 64, 53
2,12042, Control_c, 0, 64, 54
2,12058, Control_c, 0, 64, 56
2,12073, Control_c, 0, 64, 57
2,12089, Control_c, 0, 64, 57
2,12104, Control_c, 0, 64, 58
2,12118, Control_c, 0, 64, 59
2,12134, Control_c, 0, 64, 61
2,12144, Note_on_c, 0, 61, 43
2,12149, Control_c, 0, 64, 62
2,12164, Control_c, 0, 64, 63
2,12165, Note_on_c, 0, 62, 0
2,12180, Control_c, 0, 64, 63
2,12194, Control_c, 0, 64, 64
2,12210, Control_c, 0, 64, 65
2,12225, Control_c, 0, 64, 66
2,12239, Control_c, 0, 64, 67
2,12255, Control_c, 0, 64, 67
2,12354, Control_c, 0, 64, 67
2,12370, Control_c, 0, 64, 66
2,12384, Control_c, 0, 64, 65
2,12399, Control_c, 0, 64, 65
2,12430, Control_c, 0, 64, 64
2,12460, Note_on_c, 0, 57, 61
2,12475, Control_c, 0, 64, 63
2,12491, Control_c, 0, 64, 60
2,12506, Control_c, 0, 64, 50
2,12516, Note_on_c, 0, 64, 51
2,12521, Control_c, 0, 64, 22
2,12536, Control_c, 0, 64, 0
2,12598, Control_c, 0, 64, 20
2,12605, Note_on_c, 0, 71, 0
2,12612, Note_on_c, 0, 67, 0
2,12614, Control_c, 0, 64, 53
2,12629, Control_c, 0, 64, 61
2,12643, Control_c, 0, 64, 64
2,12659, Control_c, 0, 64, 64
2,12674, Control_c, 0, 64, 65
2,12685, Note_on_c, 0, 57, 0
2,12689, Control_c, 0, 64, 65
2,12704, Control_c, 0, 64, 66
2,12719, Control_c, 0, 64, 66
2,12735, Control_c, 0, 64, 67
2,12750, Control_c, 0, 64, 67
2,12764, Control_c, 0, 64, 68
2,12780, Control_c, 0, 64, 67
2,12792, Note_on_c, 0, 57, 76
2,12795, Control_c, 0, 64, 63
2,12800, Note_on_c, 0, 69, 45
2,12806, Note_on_c, 0, 66, 48
2,12810, Control_c, 0, 64, 51
2,12825, Control_c, 0, 64, 22
2,12840, Control_c, 0, 64, 0
2,12856, Control_c, 0, 64, 13
2,12871, Control_c, 0, 64, 46
2,12886, Control_c, 0, 64, 61
2,12902, Control_c, 0, 64, 67
2,12908, Note_on_c, 0, 64, 0
2,12917, Control_c, 0, 64, 71
2,12933, Control_c, 0, 64, 76
2,12948, Control_c, 0, 64, 81
2,12951, Note_on_c, 0, 57, 0
2,12962, Control_c, 0, 64, 84
2,12978, Control_c, 0, 64, 85
2,13023, Control_c, 0, 64, 86
2,13038, Control_c, 0, 64, 86
2,13069, Control_c, 0, 64, 84
2,13076, Note_on_c, 0, 57, 73
2,13084, Control_c, 0, 64, 80
2,13089, Note_on_c, 0, 64, 44
2,13092, Note_on_c, 0, 67, 57
2,13099, Control_c, 0, 64, 70
2,13122, Control_c, 0, 64, 58
2,13137, Control_c, 0, 64, 38
2,13152, Control_c, 0, 64, 36
2,13154, Note_on_c, 0, 61, 0
2,13168, Control_c, 0, 64, 40
2,13168, Note_on_c, 0, 66, 0
2,13178, Note_on_c, 0, 69, 0
2,13183, Control_c, 0, 64, 54
2,13198, Control_c, 0, 64, 63
2,13214, Control_c, 0, 64, 70
2,13228, Control_c, 0, 64, 77
2,13243, Control_c, 0, 64, 84
2,13259, Control_c, 0, 64, 90
2,13274, Control_c, 0, 64, 94
2,13290, Control_c, 0, 64, 96
2,13304, Control_c, 0, 64, 95
2,13319, Control_c, 0, 64, 93
2,13335, Control_c, 0, 64, 90
2,13350, Control_c, 0, 64, 89
2,13365, Control_c, 0, 64, 88
2,13382, Control_c, 0, 64, 87
2,13392, Note_on_c, 0, 50, 68
2,13397, Control_c, 0, 64, 84
2,13412, Control_c, 0, 64, 81
2,13427, Control_c, 0, 64, 79
2,13430, Note_on_c, 0, 66, 50
2,13441, Note_on_c, 0, 62, 38
2,13442, Control_c, 0, 64, 77
2,13457, Control_c, 0, 64, 77
2,13472, Control_c, 0, 64, 75
2,13488, Control_c, 0, 64, 73
2,13503, Control_c, 0, 64, 70
2,13518, Control_c, 0, 64, 67
2,13525, Note_on_c, 0, 57, 0
2,13533, Control_c, 0, 64, 63
2,13548, Control_c, 0, 64, 59
2,13563, Control_c, 0, 64, 53
2,13579, Control_c, 0, 64, 44
2,13594, Control_c, 0, 64, 30
2,13604, Note_on_c, 0, 64, 0
2,13609, Control_c, 0, 64, 0
2,13614, Note_on_c, 0, 67, 0
2,13712, Note_on_c, 0, 57, 66
2,13740, Note_on_c, 0, 62, 0
2,13997, Note_on_c, 0, 62, 57
2,14014, Note_on_c, 0, 54, 59
2,14085, Note_on_c, 0, 57, 0
2,14124, Note_on_c, 0, 50, 0
2,14195, Control_c, 0, 64, 10
2,14211, Control_c, 0, 64, 13
2,14241, Control_c, 0, 64, 10
2,14256, Control_c, 0, 64, 0
2,14308, Note_on_c, 0, 61, 69
2,14348, Control_c, 0, 64, 18
2,14363, Control_c, 0, 64, 47
2,14363, Note_on_c, 0, 62, 0
2,14380, Control_c, 0, 64, 57
2,14398, Control_c, 0, 64, 61
2,14413, Control_c, 0, 64, 63
2,14428, Control_c, 0, 64, 64
2,14444, Control_c, 0, 64, 65
2,14458, Control_c, 0, 64, 65
2,14503, Control_c, 0, 64, 66
2,14510, Note_on_c, 0, 61, 0
2,14519, Control_c, 0, 64, 67
2,14534, Control_c, 0, 64, 68
2,14549, Control_c, 0, 64, 69
2,14565, Control_c, 0, 64, 69
2,14579, Control_c, 0, 64, 67
2,14586, Note_on_c, 0, 59, 45
2,14595, Control_c, 0, 64, 63
2,14610, Control_c, 0, 64, 61
2,14612, Note_on_c, 0, 68, 68
2,14641, Control_c, 0, 64, 62
2,14663, Control_c, 0, 64, 63
2,14675, Note_on_c, 0, 54, 0
2,14679, Control_c, 0, 64, 65
2,14694, Control_c, 0, 64, 67
2,14709, Control_c, 0, 64, 68
2,14724, Control_c, 0, 64, 70
2,14739, Control_c, 0, 64, 71
2,14755, Control_c, 0, 64, 72
2,14785, Control_c, 0, 64, 71
2,14800, Control_c, 0, 64, 71
2,14808, Note_on_c, 0, 66, 0
2,14815, Control_c, 0, 64, 70
2,14830, Control_c, 0, 64, 69
2,14845, Control_c, 0, 64, 69
2,14860, Control_c, 0, 64, 68
2,14876, Control_c, 0, 64, 67
2,14891, Control_c, 0, 64, 66
2,14906, Control_c, 0, 64, 65
2,14910, Note_on_c, 0, 47, 60
2,14921, Control_c, 0, 64, 64
2,14936, Control_c, 0, 64, 64
2,14951, Control_c, 0, 64, 63
2,14967, Control_c, 0, 64, 62
2,14981, Control_c, 0, 64, 60
2,14996, Control_c, 0, 64, 58
2,15012, Control_c, 0, 64, 56
2,15026, Note_on_c, 0, 59, 0
2,15027, Control_c, 0, 64, 55
2,15043, Control_c, 0, 64, 53
2,15058, Control_c, 0, 64, 50
2,15073, Control_c, 0, 64, 45
2,15088, Control_c, 0, 64, 39
2,15103, Control_c, 0, 64, 36
2,15119, Control_c, 0, 64, 32
2,15134, Control_c, 0, 64, 29
2,15148, Control_c, 0, 64, 26
2,15164, Control_c, 0, 64, 23
2,15179, Control_c, 0, 64, 21
2,15195, Control_c, 0, 64, 18
2,15200, Note_on_c, 0, 52, 68
2,15210, Control_c, 0, 64, 13
2,15224, Control_c, 0, 64, 0
2,15319, Note_on_c, 0, 47, 0
2,15511, Note_on_c, 0, 50, 46
2,15521, Note_on_c, 0, 59, 66
2,15603, Note_on_c, 0, 52, 0
2,15824, Note_on_c, 0, 49, 51
2,15881, Note_on_c, 0, 69, 57
2,15882, Note_on_c, 0, 64, 54
2,15907, Note_on_c, 0, 50, 0
2,15976, Note_on_c, 0, 59, 0
2,16037, Note_on_c, 0, 68, 0
2,16113, Control_c, 0, 64, 10
2,16129, Control_c, 0, 64, 18
2,16144, Control_c, 0, 64, 23
2,16160, Control_c, 0, 64, 28
2,16175, Control_c, 0, 64, 32
2,16179, Note_on_c, 0, 47, 51
2,16181, Note_on_c, 0, 52, 54
2,16196, Note_on_c, 0, 62, 54
2,16198, Control_c, 0, 64, 35
2,16213, Control_c, 0, 64, 39
2,16216, Note_on_c, 0, 49, 0
2,16228, Control_c, 0, 64, 42
2,16242, Control_c, 0, 64, 46
2,16243, Note_on_c, 0, 64, 0
2,16257, Control_c, 0, 64, 52
2,16271, Control_c, 0, 64, 57
2,16287, Control_c, 0, 64, 61
2,16302, Control_c, 0, 64, 63
2,16317, Control_c, 0, 64, 64
2,16347, Control_c, 0, 64, 63
2,16363, Control_c, 0, 64, 62
2,16378, Control_c, 0, 64, 61
2,16393, Control_c, 0, 64, 60
2,16408, Control_c, 0, 64, 59
2,16423, Control_c, 0, 64, 58
2,16438, Control_c, 0, 64, 57
2,16454, Control_c, 0, 64, 57
2,16469, Control_c, 0, 64, 56
2,16485, Control_c, 0, 64, 53
2,16487, Note_on_c, 0, 57, 64
2,16493, Note_on_c, 0, 45, 58
2,16497, Note_on_c, 0, 61, 57
2,16499, Control_c, 0, 64, 48
2,16514, Control_c, 0, 64, 41
2,16530, Control_c, 0, 64, 28
2,16537, Note_on_c, 0, 47, 0
2,16545, Control_c, 0, 64, 0
2,16555, Note_on_c, 0, 52, 0
2,16586, Note_on_c, 0, 62, 0
2,16619, Control_c, 0, 64, 31
2,16634, Control_c, 0, 64, 48
2,16650, Control_c, 0, 64, 54
2,16665, Control_c, 0, 64, 57
2,16680, Control_c, 0, 64, 57
2,16700, Note_on_c, 0, 57, 0
2,16711, Control_c, 0, 64, 57
2,16726, Control_c, 0, 64, 56
2,16742, Control_c, 0, 64, 55
2,16756, Control_c, 0, 64, 55
2,16772, Control_c, 0, 64, 54
2,16787, Control_c, 0, 64, 52
2,16787, Note_on_c, 0, 55, 66
2,16789, Note_on_c, 0, 64, 60
2,16802, Control_c, 0, 64, 48
2,16818, Control_c, 0, 64, 43
2,16832, Control_c, 0, 64, 38
2,16848, Control_c, 0, 64, 29
2,16863, Control_c, 0, 64, 10
2,16875, Note_on_c, 0, 69, 0
2,16878, Control_c, 0, 64, 0
2,17097, Note_on_c, 0, 54, 55
2,17106, Note_on_c, 0, 69, 59
2,17160, Note_on_c, 0, 55, 0
2,17196, Note_on_c, 0, 64, 0
2,17222, Note_on_c, 0, 45, 0
2,17379, Note_on_c, 0, 52, 65
2,17388, Note_on_c, 0, 67, 56
2,17394, Note_on_c, 0, 45, 48
2,17425, Note_on_c, 0, 69, 0
2,17494, Note_on_c, 0, 54, 0
2,17696, Note_on_c, 0, 50, 61
2,17709, Note_on_c, 0, 66, 56
2,17786, Note_on_c, 0, 52, 0
2,17830, Note_on_c, 0, 67, 0
2,17833, Note_on_c, 0, 61, 0
2,17837, Note_on_c, 0, 45, 0
2,18011, Note_on_c, 0, 49, 55
2,18047, Note_on_c, 0, 57, 64
2,18148, Note_on_c, 0, 50, 0
2,18324, Note_on_c, 0, 62, 60
2,18332, Note_on_c, 0, 47, 58
2,18395, Note_on_c, 0, 49, 0
2,18420, Note_on_c, 0, 57, 0
2,18619, Note_on_c, 0, 61, 61
2,18624, Note_on_c, 0, 50, 56
2,18646, Note_on_c, 0, 45, 54
2,18660, Note_on_c, 0, 47, 0
2,18705, Note_on_c, 0, 62, 0
2,18726, Control_c, 0, 64, 21
2,18741, Control_c, 0, 64, 39
2,18756, Control_c, 0, 64, 43
2,18772, Control_c, 0, 64, 46
2,18817, Control_c, 0, 64, 44
2,18832, Control_c, 0, 64, 39
2,18846, Control_c, 0, 64, 35
2,18862, Control_c, 0, 64, 34
2,18877, Control_c, 0, 64, 33
2,18893, Control_c, 0, 64, 33
2,18908, Control_c, 0, 64, 31
2,18922, Control_c, 0, 64, 29
2,18938, Control_c, 0, 64, 26
2,18944, Note_on_c, 0, 64, 53
2,18949, Note_on_c, 0, 43, 58
2,18953, Control_c, 0, 64, 25
2,18955, Note_on_c, 0, 55, 59
2,18969, Control_c, 0, 64, 23
2,18969, Note_on_c, 0, 59, 40
2,18983, Control_c, 0, 64, 22
2,18998, Control_c, 0, 64, 20
2,19000, Note_on_c, 0, 45, 0
2,19011, Note_on_c, 0, 50, 0
2,19014, Control_c, 0, 64, 15
2,19029, Control_c, 0, 64, 0
2,19060, Note_on_c, 0, 61, 0
2,19108, Note_on_c, 0, 66, 0
2,19289, Note_on_c, 0, 54, 62
2,19302, Note_on_c, 0, 62, 47
2,19356, Note_on_c, 0, 55, 0
2,19394, Note_on_c, 0, 59, 0
2,19432, Control_c, 0, 64, 31
2,19447, Control_c, 0, 64, 37
2,19463, Control_c, 0, 64, 39
2,19478, Note_on_c, 0, 64, 0
2,19494, Control_c, 0, 64, 39
2,19539, Control_c, 0, 64, 40
2,19554, Control_c, 0, 64, 42
2,19570, Control_c, 0, 64, 43
2,19585, Note_on_c, 0, 61, 61
2,19588, Note_on_c, 0, 52, 67
2,19600, Control_c, 0, 64, 42
2,19613, Note_on_c, 0, 57, 41
2,19616, Control_c, 0, 64, 20
2,19626, Note_on_c, 0, 54, 0
2,19630, Control_c, 0, 64, 0
2,19671, Note_on_c, 0, 43, 0
2,19708, Control_c, 0, 64, 26
2,19724, Control_c, 0, 64, 53
2,19731, Note_on_c, 0, 62, 0
2,19739, Control_c, 0, 64, 58
2,19753, Control_c, 0, 64, 60
2,19769, Control_c, 0, 64, 61
2,19784, Control_c, 0, 64, 62
2,19847, Control_c, 0, 64, 62
2,19878, Control_c, 0, 64, 61
2,19893, Control_c, 0, 64, 56
2,19902, Note_on_c, 0, 42, 54
2,19907, Control_c, 0, 64, 42
2,19924, Control_c, 0, 64, 17
2,19939, Control_c, 0, 64, 13
2,19955, Control_c, 0, 64, 37
2,19957, Note_on_c, 0, 52, 0
2,19970, Control_c, 0, 64, 53
2,19985, Control_c, 0, 64, 61
2,20001, Control_c, 0, 64, 65
2,20005, Note_on_c, 0, 57, 0
2,20015, Control_c, 0, 64, 68
2,20039, Control_c, 0, 64, 73
2,20054, Control_c, 0, 64, 78
2,20068, Control_c, 0, 64, 81
2,20084, Control_c, 0, 64, 82
2,20099, Control_c, 0, 64, 81
2,20115, Control_c, 0, 64, 81
2,20130, Control_c, 0, 64, 80
2,20144, Control_c, 0, 64, 80
2,20160, Control_c, 0, 64, 79
2,20175, Control_c, 0, 64, 78
2,20189, Control_c, 0, 64, 77
2,20205, Control_c, 0, 64, 76
2,20210, Note_on_c, 0, 62, 54
2,20221, Note_on_c, 0, 50, 31
2,20221, Note_on_c, 0, 56, 51
2,20236, Control_c, 0, 64, 75
2,20241, Note_on_c, 0, 47, 43
2,20251, Control_c, 0, 64, 72
2,20268, Control_c, 0, 64, 63
2,20283, Control_c, 0, 64, 22
2,20285, Note_on_c, 0, 42, 0
2,20298, Control_c, 0, 64, 0
2,20360, Control_c, 0, 64, 54
2,20371, Note_on_c, 0, 56, 0
2,20375, Control_c, 0, 64, 64
2,20393, Control_c, 0, 64, 68
2,20407, Control_c, 0, 64, 71
2,20423, Control_c, 0, 64, 72
2,20424, Note_on_c, 0, 61, 0
2,20514, Control_c, 0, 64, 73
2,20517, Note_on_c, 0, 54, 42
2,20520, Note_on_c, 0, 49, 45
2,20523, Note_on_c, 0, 45, 46
2,20529, Control_c, 0, 64, 72
2,20545, Control_c, 0, 64, 68
2,20560, Control_c, 0, 64, 57
2,20575, Control_c, 0, 64, 0
2,20588, Note_on_c, 0, 47, 0
2,20651, Control_c, 0, 64, 50
2,20656, Note_on_c, 0, 45, 0
2,20667, Control_c, 0, 64, 61
2,20681, Control_c, 0, 64, 65
2,20685, Note_on_c, 0, 50, 0
2,20694, Note_on_c, 0, 54, 0
2,20696, Control_c, 0, 64, 68
2,20712, Control_c, 0, 64, 70
2,20727, Control_c, 0, 64, 72
2,20773, Control_c, 0, 64, 71
2,20789, Control_c, 0, 64, 70
2,20811, Control_c, 0, 64, 69
2,20827, Control_c, 0, 64, 68
2,20841, Control_c, 0, 64, 67
2,20848, Note_on_c, 0, 47, 37
2,20849, Note_on_c, 0, 52, 46
2,20856, Control_c, 0, 64, 65
2,20872, Control_c, 0, 64, 63
2,20873, Note_on_c, 0, 44, 27
2,20887, Control_c, 0, 64, 62
2,20903, Control_c, 0, 64, 59
2,20918, Control_c, 0, 64, 56
2,20933, Control_c, 0, 64, 52
2,20949, Control_c, 0, 64, 44
2,20964, Control_c, 0, 64, 33
2,20979, Control_c, 0, 64, 10
2,20994, Control_c, 0, 64, 0
2,21018, Note_on_c, 0, 49, 0
2,21150, Note_on_c, 0, 71, 52
2,21284, Note_on_c, 0, 69, 59
2,21301, Note_on_c, 0, 71, 0
2,21306, Note_on_c, 0, 62, 0
2,21440, Note_on_c, 0, 71, 57
2,21509, Note_on_c, 0, 69, 0
2,21738, Note_on_c, 0, 62, 49
2,21807, Control_c, 0, 64, 25
2,21823, Control_c, 0, 64, 38
2,21826, Note_on_c, 0, 71, 0
2,21834, Note_on_c, 0, 52, 0
2,21838, Control_c, 0, 64, 48
2,21853, Control_c, 0, 64, 54
2,21869, Control_c, 0, 64, 58
2,21883, Control_c, 0, 64, 61
2,21898, Control_c, 0, 64, 64
2,21914, Control_c, 0, 64, 67
2,21921, Note_on_c, 0, 44, 0
2,21929, Control_c, 0, 64, 71
2,21945, Control_c, 0, 64, 74
2,21959, Control_c, 0, 64, 77
2,21974, Control_c, 0, 64, 79
2,21990, Control_c, 0, 64, 79
2,22066, Control_c, 0, 64, 79
2,22081, Control_c, 0, 64, 77
2,22094, Note_on_c, 0, 52, 37
2,22094, Note_on_c, 0, 61, 54
2,22095, Control_c, 0, 64, 76
2,22098, Note_on_c, 0, 45, 44
2,22111, Control_c, 0, 64, 76
2,22126, Control_c, 0, 64, 75
2,22142, Control_c, 0, 64, 74
2,22157, Control_c, 0, 64, 73
2,22171, Control_c, 0, 64, 71
2,22187, Control_c, 0, 64, 68
2,22202, Control_c, 0, 64, 65
2,22217, Control_c, 0, 64, 63
2,22233, Control_c, 0, 64, 61
2,22241, Note_on_c, 0, 62, 0
2,22248, Control_c, 0, 64, 54
2,22262, Note_on_c, 0, 47, 0
2,22263, Control_c, 0, 64, 44
2,22278, Control_c, 0, 64, 33
2,22293, Control_c, 0, 64, 26
2,22309, Control_c, 0, 64, 18
2,22324, Control_c, 0, 64, 0
2,22489, Note_on_c, 0, 64, 56
2,22591, Control_c, 0, 64, 30
2,22605, Control_c, 0, 64, 52
2,22621, Control_c, 0, 64, 58
2,22627, Note_on_c, 0, 61, 0
2,22636, Control_c, 0, 64, 62
2,22651, Control_c, 0, 64, 64
2,22666, Control_c, 0, 64, 65
2,22681, Control_c, 0, 64, 67
2,22692, Note_on_c, 0, 64, 0
2,22696, Control_c, 0, 64, 68
2,22742, Control_c, 0, 64, 68
2,22772, Control_c, 0, 64, 69
2,22789, Note_on_c, 0, 43, 41
2,22798, Note_on_c, 0, 64, 63
2,22802, Control_c, 0, 64, 68
2,22817, Control_c, 0, 64, 63
2,22833, Control_c, 0, 64, 47
2,22848, Control_c, 0, 64, 27
2,22863, Control_c, 0, 64, 28
2,22878, Control_c, 0, 64, 45
2,22893, Control_c, 0, 64, 57
2,22901, Note_on_c, 0, 45, 0
2,22909, Control_c, 0, 64, 63
2,22924, Control_c, 0, 64, 66
2,22938, Control_c, 0, 64, 68
2,22954, Control_c, 0, 64, 70
2,22969, Control_c, 0, 64, 70
2,22985, Control_c, 0, 64, 71
2,22999, Note_on_c, 0, 64, 0
2,23000, Control_c, 0, 64, 71
2,23046, Control_c, 0, 64, 72
2,23061, Control_c, 0, 64, 74
2,23076, Control_c, 0, 64, 74
2,23091, Control_c, 0, 64, 74
2,23114, Control_c, 0, 64, 70
2,23115, Note_on_c, 0, 64, 73
2,23129, Control_c, 0, 64, 64
2,23144, Control_c, 0, 64, 59
2,23159, Control_c, 0, 64, 60
2,23174, Control_c, 0, 64, 62
2,23190, Control_c, 0, 64, 64
2,23200, Note_on_c, 0, 43, 0
2,23205, Control_c, 0, 64, 67
2,23222, Control_c, 0, 64, 70
2,23237, Control_c, 0, 64, 75
2,23251, Control_c, 0, 64, 79
2,23267, Control_c, 0, 64, 82
2,23282, Control_c, 0, 64, 84
2,23296, Control_c, 0, 64, 84
2,23327, Control_c, 0, 64, 84
2,23343, Control_c, 0, 64, 82
2,23358, Control_c, 0, 64, 81
2,23373, Control_c, 0, 64, 80
2,23388, Control_c, 0, 64, 79
2,23403, Control_c, 0, 64, 76
2,23414, Note_on_c, 0, 42, 41
2,23418, Control_c, 0, 64, 74
2,23434, Control_c, 0, 64, 73
2,23449, Control_c, 0, 64, 71
2,23455, Note_on_c, 0, 57, 60
2,23465, Control_c, 0, 64, 70
2,23480, Control_c, 0, 64, 70
2,23494, Control_c, 0, 64, 69
2,23510, Control_c, 0, 64, 68
2,23511, Note_on_c, 0, 52, 0
2,23524, Control_c, 0, 64, 67
2,23538, Control_c, 0, 64, 65
2,23554, Control_c, 0, 64, 62
2,23568, Control_c, 0, 64, 58
2,23572, Note_on_c, 0, 64, 0
2,23583, Control_c, 0, 64, 50
2,23599, Control_c, 0, 64, 41
2,23614, Control_c, 0, 64, 36
2,23630, Control_c, 0, 64, 35
2,23659, Control_c, 0, 64, 35
2,23675, Control_c, 0, 64, 33
2,23689, Control_c, 0, 64, 33
2,23735, Control_c, 0, 64, 36
2,23751, Control_c, 0, 64, 43
2,23758, Note_on_c, 0, 64, 56
2,23766, Control_c, 0, 64, 48
2,23775, Note_on_c, 0, 55, 43
2,23780, Control_c, 0, 64, 51
2,23796, Control_c, 0, 64, 55
2,23811, Control_c, 0, 64, 58
2,23826, Control_c, 0, 64, 61
2,23842, Control_c, 0, 64, 63
2,23857, Control_c, 0, 64, 66
2,23865, Note_on_c, 0, 57, 0
2,23880, Control_c, 0, 64, 68
2,23895, Control_c, 0, 64, 71
2,23910, Control_c, 0, 64, 74
2,23915, Note_on_c, 0, 42, 0
2,23925, Control_c, 0, 64, 76
2,23940, Control_c, 0, 64, 79
2,23956, Control_c, 0, 64, 80
2,24033, Control_c, 0, 64, 79
2,24048, Control_c, 0, 64, 78
2,24052, Note_on_c, 0, 54, 47
2,24063, Control_c, 0, 64, 77
2,24079, Control_c, 0, 64, 76
2,24086, Note_on_c, 0, 60, 59
2,24093, Control_c, 0, 64, 76
2,24108, Note_on_c, 0, 69, 45
2,24109, Control_c, 0, 64, 75
2,24124, Control_c, 0, 64, 74
2,24138, Control_c, 0, 64, 72
2,24154, Control_c, 0, 64, 70
2,24161, Note_on_c, 0, 55, 0
2,24169, Control_c, 0, 64, 69
2,24184, Control_c, 0, 64, 68
2,24201, Control_c, 0, 64, 66
2,24205, Note_on_c, 0, 64, 0
2,24215, Control_c, 0, 64, 64
2,24231, Control_c, 0, 64, 62
2,24246, Control_c, 0, 64, 60
2,24261, Control_c, 0, 64, 59
2,24277, Control_c, 0, 64, 58
2,24291, Control_c, 0, 64, 56
2,24306, Control_c, 0, 64, 55
2,24322, Control_c, 0, 64, 53
2,24337, Control_c, 0, 64, 51
2,24352, Control_c, 0, 64, 48
2,24367, Control_c, 0, 64, 43
2,24377, Note_on_c, 0, 67, 51
2,24382, Control_c, 0, 64, 35
2,24384, Note_on_c, 0, 52, 49
2,24398, Control_c, 0, 64, 19
2,24413, Control_c, 0, 64, 0
2,24446, Note_on_c, 0, 54, 0
2,24462, Note_on_c, 0, 69, 0
2,24520, Control_c, 0, 64, 27
2,24535, Control_c, 0, 64, 53
2,24550, Control_c, 0, 64, 58
2,24565, Control_c, 0, 64, 61
2,24580, Control_c, 0, 64, 62
2,24596, Control_c, 0, 64, 63
2,24649, Control_c, 0, 64, 63
2,24663, Control_c, 0, 64, 62
2,24694, Control_c, 0, 64, 63
2,24731, Note_on_c, 0, 47, 27
2,24732, Note_on_c, 0, 51, 40
2,24755, Control_c, 0, 64, 62
2,24761, Note_on_c, 0, 66, 45
2,24770, Control_c, 0, 64, 56
2,24785, Control_c, 0, 64, 33
2,24801, Control_c, 0, 64, 0
2,24808, Note_on_c, 0, 67, 0
2,24865, Note_on_c, 0, 52, 0
2,24878, Control_c, 0, 64, 37
2,24893, Control_c, 0, 64, 53
2,24908, Control_c, 0, 64, 60
2,24921, Note_on_c, 0, 60, 0
2,24923, Control_c, 0, 64, 63
2,24938, Control_c, 0, 64, 65
2,24954, Control_c, 0, 64, 66
2,24969, Control_c, 0, 64, 68
2,24983, Control_c, 0, 64, 69
2,24999, Control_c, 0, 64, 68
2,25014, Control_c, 0, 64, 68
2,25030, Control_c, 0, 64, 67
2,25045, Control_c, 0, 64, 67
2,25075, Control_c, 0, 64, 66
2,25090, Control_c, 0, 64, 65
2,25104, Control_c, 0, 64, 64
2,25120, Control_c, 0, 64, 63
2,25135, Control_c, 0, 64, 62
2,25142, Note_on_c, 0, 54, 48
2,25151, Control_c, 0, 64, 62
2,25180, Control_c, 0, 64, 61
2,25196, Control_c, 0, 64, 60
2,25211, Control_c, 0, 64, 60
2,25226, Control_c, 0, 64, 59
2,25242, Control_c, 0, 64, 58
2,25257, Control_c, 0, 64, 56
2,25273, Control_c, 0, 64, 54
2,25288, Control_c, 0, 64, 51
2,25302, Control_c, 0, 64, 47
2,25318, Control_c, 0, 64, 44
2,25333, Control_c, 0, 64, 40
2,25349, Control_c, 0, 64, 35
2,25364, Control_c, 0, 64, 31
2,25379, Control_c, 0, 64, 28
2,25394, Control_c, 0, 64, 26
2,25416, Control_c, 0, 64, 25
2,25432, Control_c, 0, 64, 25
2,25451, Note_on_c, 0, 59, 53
2,25462, Control_c, 0, 64, 24
2,25477, Control_c, 0, 64, 23
2,25492, Control_c, 0, 64, 22
2,25508, Control_c, 0, 64, 21
2,25523, Control_c, 0, 64, 18
2,25538, Control_c, 0, 64, 16
2,25542, Note_on_c, 0, 54, 0
2,25554, Control_c, 0, 64, 13
2,25569, Control_c, 0, 64, 10
2,25599, Control_c, 0, 64, 8
2,25753, Note_on_c, 0, 57, 54
2,25858, Control_c, 0, 64, 16
2,25860, Note_on_c, 0, 59, 0
2,25874, Control_c, 0, 64, 41
2,25889, Control_c, 0, 64, 54
2,25903, Control_c, 0, 64, 60
2,25919, Control_c, 0, 64, 62
2,25934, Control_c, 0, 64, 64
2,25949, Control_c, 0, 64, 65
2,25964, Control_c, 0, 64, 66
2,25979, Control_c, 0, 64, 67
2,25995, Control_c, 0, 64, 67
2,26040, Control_c, 0, 64, 68
2,26055, Control_c, 0, 64, 69
2,26071, Control_c, 0, 64, 70
2,26075, Note_on_c, 0, 52, 41
2,26086, Control_c, 0, 64, 71
2,26086, Note_on_c, 0, 55, 53
2,26101, Control_c, 0, 64, 70
2,26116, Control_c, 0, 64, 65
2,26131, Control_c, 0, 64, 54
2,26146, Control_c, 0, 64, 30
2,26152, Note_on_c, 0, 57, 0
2,26162, Control_c, 0, 64, 29
2,26184, Control_c, 0, 64, 33
2,26190, Note_on_c, 0, 51, 0
2,26200, Control_c, 0, 64, 50
2,26205, Note_on_c, 0, 66, 0
2,26215, Control_c, 0, 64, 61
2,26231, Control_c, 0, 64, 66
2,26245, Control_c, 0, 64, 73
2,26260, Control_c, 0, 64, 79
2,26276, Control_c, 0, 64, 84
2,26291, Control_c, 0, 64, 88
2,26296, Note_on_c, 0, 55, 0
2,26306, Control_c, 0, 64, 91
2,26336, Control_c, 0, 64, 90
2,26352, Control_c, 0, 64, 89
2,26367, Control_c, 0, 64, 88
2,26382, Control_c, 0, 64, 88
2,26398, Control_c, 0, 64, 87
2,26413, Control_c, 0, 64, 87
2,26426, Note_on_c, 0, 51, 49
2,26443, Control_c, 0, 64, 87
2,26458, Control_c, 0, 64, 88
2,26459, Note_on_c, 0, 71, 63
2,26474, Control_c, 0, 64, 87
2,26489, Control_c, 0, 64, 83
2,26491, Note_on_c, 0, 59, 54
2,26504, Control_c, 0, 64, 73
2,26520, Control_c, 0, 64, 61
2,26535, Control_c, 0, 64, 32
2,26551, Control_c, 0, 64, 20
2,26566, Control_c, 0, 64, 36
2,26581, Control_c, 0, 64, 56
2,26590, Note_on_c, 0, 52, 0
2,26596, Control_c, 0, 64, 64
2,26611, Control_c, 0, 64, 69
2,26626, Control_c, 0, 64, 75
2,26642, Control_c, 0, 64, 80
2,26653, Note_on_c, 0, 71, 0
2,26657, Control_c, 0, 64, 83
2,26672, Control_c, 0, 64, 84
2,26687, Control_c, 0, 64, 84
2,26702, Control_c, 0, 64, 82
2,26718, Control_c, 0, 64, 81
2,26733, Control_c, 0, 64, 80
2,26770, Note_on_c, 0, 55, 41
2,26775, Note_on_c, 0, 71, 70
2,26793, Control_c, 0, 64, 81
2,26798, Note_on_c, 0, 64, 58
2,26823, Control_c, 0, 64, 76
2,26839, Control_c, 0, 64, 66
2,26854, Control_c, 0, 64, 33
2,26869, Control_c, 0, 64, 0
2,26889, Note_on_c, 0, 51, 0
2,26914, Note_on_c, 0, 59, 0
2,26915, Control_c, 0, 64, 39
2,26929, Control_c, 0, 64, 59
2,26953, Control_c, 0, 64, 65
2,26968, Control_c, 0, 64, 68
2,26975, Note_on_c, 0, 71, 0
2,26983, Control_c, 0, 64, 71
2,26999, Control_c, 0, 64, 72
2,27029, Control_c, 0, 64, 71
2,27059, Control_c, 0, 64, 72
2,27075, Control_c, 0, 64, 74
2,27082, Note_on_c, 0, 71, 80
2,27089, Control_c, 0, 64, 75
2,27097, Note_on_c, 0, 62, 56
2,27104, Control_c, 0, 64, 71
2,27120, Control_c, 0, 64, 62
2,27134, Control_c, 0, 64, 38
2,27150, Control_c, 0, 64, 12
2,27180, Control_c, 0, 64, 26
2,27185, Note_on_c, 0, 64, 0
2,27196, Control_c, 0, 64, 52
2,27211, Control_c, 0, 64, 60
2,27225, Control_c, 0, 64, 64
2,27241, Control_c, 0, 64, 66
2,27256, Control_c, 0, 64, 69
2,27272, Control_c, 0, 64, 71
2,27272, Note_on_c, 0, 71, 0
2,27286, Control_c, 0, 64, 73
2,27301, Control_c, 0, 64, 74
2,27333, Control_c, 0, 64, 73
2,27349, Control_c, 0, 64, 71
2,27364, Control_c, 0, 64, 70
2,27378, Control_c, 0, 64, 69
2,27394, Control_c, 0, 64, 68
2,27409, Control_c, 0, 64, 66
2,27416, Note_on_c, 0, 64, 71
2,27424, Control_c, 0, 64, 64
2,27439, Control_c, 0, 64, 63
2,27440, Note_on_c, 0, 61, 57
2,27454, Control_c, 0, 64, 63
2,27485, Control_c, 0, 64, 62
2,27500, Control_c, 0, 64, 60
2,27515, Control_c, 0, 64, 55
2,27530, Control_c, 0, 64, 48
2,27545, Control_c, 0, 64, 38
2,27560, Control_c, 0, 64, 22
2,27572, Note_on_c, 0, 62, 0
2,27575, Control_c, 0, 64, 0
2,27734, Note_on_c, 0, 59, 67
2,27765, Note_on_c, 0, 61, 0
2,27796, Control_c, 0, 64, 16
2,27811, Control_c, 0, 64, 45
2,27826, Control_c, 0, 64, 54
2,27842, Control_c, 0, 64, 59
2,27851, Note_on_c, 0, 55, 0
2,27856, Control_c, 0, 64, 62
2,27872, Control_c, 0, 64, 64
2,27887, Control_c, 0, 64, 65
2,27902, Control_c, 0, 64, 65
2,27918, Control_c, 0, 64, 66
2,28009, Control_c, 0, 64, 65
2,28039, Control_c, 0, 64, 65
2,28048, Note_on_c, 0, 49, 32
2,28054, Control_c, 0, 64, 64
2,28064, Note_on_c, 0, 67, 61
2,28085, Control_c, 0, 64, 64
2,28087, Note_on_c, 0, 58, 45
2,28116, Control_c, 0, 64, 63
2,28131, Control_c, 0, 64, 63
2,28146, Control_c, 0, 64, 62
2,28162, Control_c, 0, 64, 62
2,28177, Control_c, 0, 64, 61
2,28192, Control_c, 0, 64, 59
2,28207, Control_c, 0, 64, 57
2,28221, Note_on_c, 0, 59, 0
2,28222, Control_c, 0, 64, 54
2,28228, Note_on_c, 0, 64, 0
2,28238, Control_c, 0, 64, 52
2,28253, Control_c, 0, 64, 50
2,28269, Control_c, 0, 64, 48
2,28283, Control_c, 0, 64, 46
2,28298, Control_c, 0, 64, 42
2,28314, Control_c, 0, 64, 38
2,28329, Control_c, 0, 64, 30
2,28344, Control_c, 0, 64, 13
2,28355, Note_on_c, 0, 59, 48
2,28357, Note_on_c, 0, 50, 29
2,28359, Control_c, 0, 64, 0
2,28406, Note_on_c, 0, 58, 0
2,28434, Note_on_c, 0, 49, 0
2,28488, Control_c, 0, 64, 12
2,28503, Control_c, 0, 64, 19
2,28519, Control_c, 0, 64, 23
2,28534, Control_c, 0, 64, 26
2,28550, Control_c, 0, 64, 28
2,28564, Control_c, 0, 64, 30
2,28579, Control_c, 0, 64, 32
2,28595, Control_c, 0, 64, 32
2,28624, Control_c, 0, 64, 32
2,28640, Control_c, 0, 64, 29
2,28655, Control_c, 0, 64, 22
2,28655, Note_on_c, 0, 52, 42
2,28669, Note_on_c, 0, 61, 54
2,28671, Control_c, 0, 64, 20
2,28700, Control_c, 0, 64, 21
2,28716, Control_c, 0, 64, 32
2,28731, Control_c, 0, 64, 46
2,28746, Control_c, 0, 64, 56
2,28762, Control_c, 0, 64, 61
2,28776, Control_c, 0, 64, 63
2,28792, Control_c, 0, 64, 65
2,28796, Note_on_c, 0, 50, 0
2,28807, Control_c, 0, 64, 66
2,28822, Control_c, 0, 64, 67
2,28826, Note_on_c, 0, 61, 0
2,28837, Control_c, 0, 64, 68
2,28852, Control_c, 0, 64, 69
2,28865, Note_on_c, 0, 59, 0
2,28868, Control_c, 0, 64, 70
2,28883, Control_c, 0, 64, 72
2,28898, Control_c, 0, 64, 73
2,28914, Control_c, 0, 64, 72
2,28929, Control_c, 0, 64, 68
2,28944, Control_c, 0, 64, 63
2,28954, Note_on_c, 0, 52, 0
2,28960, Control_c, 0, 64, 58
2,28969, Note_on_c, 0, 61, 54
2,28970, Note_on_c, 0, 55, 37
2,28991, Control_c, 0, 64, 61
2,28996, Note_on_c, 0, 64, 56
2,29005, Control_c, 0, 64, 63
2,29020, Control_c, 0, 64, 65
2,29036, Control_c, 0, 64, 67
2,29051, Control_c, 0, 64, 69
2,29066, Control_c, 0, 64, 72
2,29072, Note_on_c, 0, 67, 0
2,29082, Control_c, 0, 64, 75
2,29097, Control_c, 0, 64, 76
2,29099, Note_on_c, 0, 47, 0
2,29113, Control_c, 0, 64, 77
2,29158, Control_c, 0, 64, 76
2,29173, Control_c, 0, 64, 76
2,29189, Control_c, 0, 64, 75
2,29203, Control_c, 0, 64, 74
2,29218, Control_c, 0, 64, 73
2,29234, Control_c, 0, 64, 73
2,29256, Control_c, 0, 64, 72
2,29272, Control_c, 0, 64, 70
2,29287, Control_c, 0, 64, 68
2,29302, Control_c, 0, 64, 67
2,29312, Note_on_c, 0, 66, 52
2,29316, Note_on_c, 0, 62, 48
2,29317, Control_c, 0, 64, 66
2,29327, Note_on_c, 0, 46, 34
2,29330, Note_on_c, 0, 54, 28
2,29332, Control_c, 0, 64, 65
2,29348, Control_c, 0, 64, 65
2,29363, Control_c, 0, 64, 64
2,29377, Control_c, 0, 64, 63
2,29393, Control_c, 0, 64, 62
2,29408, Control_c, 0, 64, 58
2,29416, Note_on_c, 0, 64, 0
2,29422, Note_on_c, 0, 61, 0
2,29423, Control_c, 0, 64, 52
2,29439, Control_c, 0, 64, 41
2,29453, Note_on_c, 0, 55, 0
2,29454, Control_c, 0, 64, 13
2,29469, Control_c, 0, 64, 0
2,29605, Control_c, 0, 64, 31
2,29617, Note_on_c, 0, 64, 62
2,29620, Control_c, 0, 64, 45
2,29635, Control_c, 0, 64, 52
2,29639, Note_on_c, 0, 61, 46
2,29650, Control_c, 0, 64, 57
2,29664, Note_on_c, 0, 62, 0
2,29665, Control_c, 0, 64, 61
2,29681, Control_c, 0, 64, 64
2,29690, Note_on_c, 0, 66, 0
2,29696, Control_c, 0, 64, 67
2,29712, Control_c, 0, 64, 71
2,29727, Control_c, 0, 64, 75
2,29741, Control_c, 0, 64, 79
2,29757, Control_c, 0, 64, 83
2,29772, Note_on_c, 0, 46, 0
2,29773, Control_c, 0, 64, 85
2,29788, Control_c, 0, 64, 87
2,29812, Note_on_c, 0, 64, 0
2,29834, Control_c, 0, 64, 87
2,29838, Note_on_c, 0, 61, 0
2,29864, Control_c, 0, 64, 86
2,29894, Control_c, 0, 64, 85
2,29910, Control_c, 0, 64, 85
2,29925, Control_c, 0, 64, 84
2,29940, Control_c, 0, 64, 83
2,29940, Note_on_c, 0, 47, 39
2,29956, Control_c, 0, 64, 83
2,29970, Control_c, 0, 64, 81
2,29970, Note_on_c, 0, 62, 52
2,29985, Control_c, 0, 64, 80
2,29986, Note_on_c, 0, 59, 44
2,30001, Control_c, 0, 64, 78
2,30023, Control_c, 0, 64, 77
2,30039, Control_c, 0, 64, 75
2,30054, Control_c, 0, 64, 73
2,30070, Control_c, 0, 64, 70
2,30085, Control_c, 0, 64, 67
2,30094, Note_on_c, 0, 54, 0
2,30099, Control_c, 0, 64, 65
2,30115, Control_c, 0, 64, 63
2,30130, Control_c, 0, 64, 60
2,30145, Control_c, 0, 64, 55
2,30161, Control_c, 0, 64, 44
2,30175, Control_c, 0, 64, 0
2,30309, Note_on_c, 0, 57, 35
2,30341, Note_on_c, 0, 66, 57
2,30502, Note_on_c, 0, 59, 0
2,30516, Note_on_c, 0, 62, 0
2,30622, Note_on_c, 0, 56, 36
2,30641, Note_on_c, 0, 71, 64
2,30685, Note_on_c, 0, 57, 0
2,30763, Note_on_c, 0, 66, 0
2,30807, Control_c, 0, 64, 34
2,30821, Control_c, 0, 64, 47
2,30837, Control_c, 0, 64, 54
2,30852, Control_c, 0, 64, 58
2,30868, Control_c, 0, 64, 62
2,30883, Control_c, 0, 64, 65
2,30898, Control_c, 0, 64, 67
2,30913, Control_c, 0, 64, 71
2,30922, Note_on_c, 0, 54, 34
2,30928, Control_c, 0, 64, 74
2,30939, Note_on_c, 0, 69, 61
2,30943, Control_c, 0, 64, 78
2,30959, Control_c, 0, 64, 82
2,30974, Control_c, 0, 64, 87
2,30990, Control_c, 0, 64, 92
2,30992, Note_on_c, 0, 71, 0
2,31003, Note_on_c, 0, 56, 0
2,31005, Control_c, 0, 64, 99
2,31019, Control_c, 0, 64, 103
2,31035, Control_c, 0, 64, 105
2,31045, Note_on_c, 0, 47, 0
2,31050, Control_c, 0, 64, 105
2,31065, Control_c, 0, 64, 106
2,31080, Control_c, 0, 64, 107
2,31095, Control_c, 0, 64, 108
2,31127, Control_c, 0, 64, 107
2,31131, Note_on_c, 0, 69, 0
2,31142, Control_c, 0, 64, 106
2,31145, Note_on_c, 0, 54, 0
2,31188, Control_c, 0, 64, 105
2,31203, Control_c, 0, 64, 104
2,31215, Note_on_c, 0, 52, 48
2,31218, Control_c, 0, 64, 102
2,31233, Control_c, 0, 64, 99
2,31236, Note_on_c, 0, 68, 69
2,31248, Control_c, 0, 64, 98
2,31263, Control_c, 0, 64, 97
2,31278, Control_c, 0, 64, 96
2,31293, Control_c, 0, 64, 92
2,31309, Control_c, 0, 64, 88
2,31324, Control_c, 0, 64, 84
2,31339, Control_c, 0, 64, 79
2,31354, Control_c, 0, 64, 75
2,31369, Control_c, 0, 64, 72
2,31384, Control_c, 0, 64, 69
2,31401, Control_c, 0, 64, 67
2,31416, Control_c, 0, 64, 65
2,31432, Control_c, 0, 64, 64
2,31447, Control_c, 0, 64, 63
2,31461, Control_c, 0, 64, 63
2,31477, Control_c, 0, 64, 62
2,31492, Control_c, 0, 64, 60
2,31501, Note_on_c, 0, 50, 44
2,31506, Control_c, 0, 64, 59
2,31522, Control_c, 0, 64, 58
2,31525, Note_on_c, 0, 71, 70
2,31537, Control_c, 0, 64, 58
2,31561, Control_c, 0, 64, 54
2,31576, Control_c, 0, 64, 44
2,31591, Control_c, 0, 64, 0
2,31685, Note_on_c, 0, 68, 0
2,31771, Control_c, 0, 64, 10
2,31785, Control_c, 0, 64, 16
2,31801, Control_c, 0, 64, 17
2,31812, Note_on_c, 0, 49, 36
2,31816, Control_c, 0, 64, 18
2,31831, Note_on_c, 0, 76, 71
2,31862, Control_c, 0, 64, 16
2,31877, Control_c, 0, 64, 0
2,31923, Control_c, 0, 64, 41
2,31938, Control_c, 0, 64, 60
2,31945, Note_on_c, 0, 50, 0
2,31953, Control_c, 0, 64, 67
2,31956, Note_on_c, 0, 71, 0
2,31969, Control_c, 0, 64, 73
2,31984, Control_c, 0, 64, 80
2,31999, Control_c, 0, 64, 87
2,32014, Control_c, 0, 64, 91
2,32059, Control_c, 0, 64, 91
2,32075, Control_c, 0, 64, 90
2,32090, Control_c, 0, 64, 90
2,32104, Note_on_c, 0, 47, 43
2,32105, Control_c, 0, 64, 89
2,32113, Note_on_c, 0, 74, 80
2,32133, Control_c, 0, 64, 90
2,32148, Control_c, 0, 64, 89
2,32164, Control_c, 0, 64, 86
2,32179, Control_c, 0, 64, 78
2,32186, Note_on_c, 0, 76, 0
2,32193, Control_c, 0, 64, 66
2,32210, Control_c, 0, 64, 49
2,32218, Note_on_c, 0, 49, 0
2,32225, Control_c, 0, 64, 10
2,32240, Control_c, 0, 64, 8
2,32256, Control_c, 0, 64, 26
2,32271, Control_c, 0, 64, 50
2,32287, Control_c, 0, 64, 61
2,32301, Control_c, 0, 64, 65
2,32325, Control_c, 0, 64, 68
2,32340, Control_c, 0, 64, 70
2,32370, Control_c, 0, 64, 69
2,32400, Control_c, 0, 64, 69
2,32422, Note_on_c, 0, 45, 43
2,32430, Control_c, 0, 64, 68
2,32453, Note_on_c, 0, 73, 74
2,32491, Control_c, 0, 64, 68
2,32505, Note_on_c, 0, 74, 0
2,32506, Control_c, 0, 64, 65
2,32522, Control_c, 0, 64, 56
2,32537, Control_c, 0, 64, 32
2,32547, Note_on_c, 0, 52, 0
2,32551, Control_c, 0, 64, 0
2,32574, Note_on_c, 0, 47, 0
2,32627, Control_c, 0, 64, 53
2,32643, Control_c, 0, 64, 61
2,32658, Control_c, 0, 64, 63
2,32673, Control_c, 0, 64, 64
2,32688, Control_c, 0, 64, 65
2,32703, Control_c, 0, 64, 66
2,32718, Control_c, 0, 64, 67
2,32734, Control_c, 0, 64, 68
2,32765, Control_c, 0, 64, 69
2,32765, Note_on_c, 0, 52, 44
2,32780, Control_c, 0, 64, 70
2,32811, Control_c, 0, 64, 67
2,32814, Note_on_c, 0, 69, 72
2,32825, Control_c, 0, 64, 61
2,32840, Control_c, 0, 64, 44
2,32856, Control_c, 0, 64, 25
2,32871, Control_c, 0, 64, 24
2,32886, Control_c, 0, 64, 35
2,32901, Control_c, 0, 64, 54
2,32916, Control_c, 0, 64, 63
2,32932, Control_c, 0, 64, 67
2,32947, Control_c, 0, 64, 70
2,32962, Control_c, 0, 64, 73
2,32977, Control_c, 0, 64, 75
2,32981, Note_on_c, 0, 73, 0
2,32992, Control_c, 0, 64, 76
2,33003, Note_on_c, 0, 69, 0
2,33008, Control_c, 0, 64, 77
2,33023, Control_c, 0, 64, 78
2,33039, Control_c, 0, 64, 80
2,33055, Control_c, 0, 64, 81
2,33069, Control_c, 0, 64, 80
2,33092, Control_c, 0, 64, 75
2,33106, Note_on_c, 0, 57, 47
2,33107, Control_c, 0, 64, 65
2,33123, Control_c, 0, 64, 46
2,33131, Note_on_c, 0, 69, 76
2,33138, Control_c, 0, 64, 21
2,33152, Control_c, 0, 64, 22
2,33168, Control_c, 0, 64, 39
2,33183, Control_c, 0, 64, 55
2,33198, Control_c, 0, 64, 62
2,33214, Control_c, 0, 64, 66
2,33229, Control_c, 0, 64, 71
2,33245, Control_c, 0, 64, 76
2,33260, Control_c, 0, 64, 80
2,33260, Note_on_c, 0, 52, 0
2,33274, Control_c, 0, 64, 82
2,33290, Control_c, 0, 64, 84
2,33292, Note_on_c, 0, 57, 0
2,33305, Control_c, 0, 64, 88
2,33311, Note_on_c, 0, 45, 0
2,33311, Note_on_c, 0, 69, 0
2,33319, Control_c, 0, 64, 92
2,33335, Control_c, 0, 64, 97
2,33350, Control_c, 0, 64, 99
2,33366, Control_c, 0, 64, 96
2,33381, Control_c, 0, 64, 88
2,33395, Control_c, 0, 64, 76
2,33410, Control_c, 0, 64, 72
2,33410, Note_on_c, 0, 45, 48
2,33415, Note_on_c, 0, 69, 78
2,33422, Note_on_c, 0, 55, 44
2,33425, Control_c, 0, 64, 74
2,33440, Control_c, 0, 64, 77
2,33456, Control_c, 0, 64, 80
2,33470, Control_c, 0, 64, 81
2,33486, Control_c, 0, 64, 83
2,33511, Note_on_c, 0, 45, 0
2,33516, Control_c, 0, 64, 84
2,33532, Control_c, 0, 64, 86
2,33547, Control_c, 0, 64, 88
2,33563, Control_c, 0, 64, 87
2,33578, Control_c, 0, 64, 86
2,33593, Control_c, 0, 64, 82
2,33608, Control_c, 0, 64, 79
2,33623, Control_c, 0, 64, 76
2,33638, Control_c, 0, 64, 74
2,33654, Control_c, 0, 64, 71
2,33669, Control_c, 0, 64, 67
2,33684, Control_c, 0, 64, 65
2,33692, Note_on_c, 0, 47, 41
2,33702, Note_on_c, 0, 54, 38
2,33725, Note_on_c, 0, 62, 76
2,33729, Control_c, 0, 64, 64
2,33744, Control_c, 0, 64, 62
2,33759, Control_c, 0, 64, 56
2,33765, Note_on_c, 0, 55, 0
2,33775, Control_c, 0, 64, 38
2,33790, Control_c, 0, 64, 0
2,33830, Note_on_c, 0, 69, 0
2,33890, Control_c, 0, 64, 43
2,33905, Control_c, 0, 64, 53
2,33920, Control_c, 0, 64, 53
2,33936, Control_c, 0, 64, 54
2,33950, Control_c, 0, 64, 54
2,33966, Control_c, 0, 64, 55
2,33981, Control_c, 0, 64, 55
2,34012, Control_c, 0, 64, 54
2,34013, Note_on_c, 0, 54, 0
2,34027, Control_c, 0, 64, 52
2,34027, Note_on_c, 0, 52, 46
2,34042, Control_c, 0, 64, 49
2,34057, Control_c, 0, 64, 42
2,34057, Note_on_c, 0, 74, 81
2,34072, Control_c, 0, 64, 17
2,34088, Control_c, 0, 64, 0
2,34163, Control_c, 0, 64, 50
2,34179, Control_c, 0, 64, 62
2,34194, Control_c, 0, 64, 66
2,34210, Control_c, 0, 64, 70
2,34225, Control_c, 0, 64, 73
2,34225, Note_on_c, 0, 74, 0
2,34239, Control_c, 0, 64, 73
2,34255, Control_c, 0, 64, 74
2,34270, Control_c, 0, 64, 73
2,34300, Control_c, 0, 64, 73
2,34332, Note_on_c, 0, 50, 48
2,34340, Note_on_c, 0, 74, 77
2,34346, Control_c, 0, 64, 72
2,34346, Note_on_c, 0, 66, 70
2,34362, Control_c, 0, 64, 70
2,34376, Control_c, 0, 64, 64
2,34391, Control_c, 0, 64, 49
2,34399, Note_on_c, 0, 47, 0
2,34407, Control_c, 0, 64, 0
2,34432, Note_on_c, 0, 52, 0
2,34483, Control_c, 0, 64, 51
2,34498, Control_c, 0, 64, 62
2,34513, Control_c, 0, 64, 65
2,34529, Control_c, 0, 64, 67
2,34537, Note_on_c, 0, 74, 0
2,34544, Control_c, 0, 64, 70
2,34559, Control_c, 0, 64, 72
2,34567, Note_on_c, 0, 62, 0
2,34574, Control_c, 0, 64, 74
2,34589, Control_c, 0, 64, 76
2,34636, Note_on_c, 0, 47, 48
2,34643, Control_c, 0, 64, 74
2,34654, Note_on_c, 0, 74, 76
2,34657, Control_c, 0, 64, 68
2,34672, Control_c, 0, 64, 59
2,34689, Control_c, 0, 64, 36
2,34704, Control_c, 0, 64, 33
2,34719, Control_c, 0, 64, 42
2,34727, Note_on_c, 0, 50, 0
2,34734, Control_c, 0, 64, 56
2,34749, Control_c, 0, 64, 64
2,34765, Control_c, 0, 64, 69
2,34777, Note_on_c, 0, 74, 0
2,34780, Control_c, 0, 64, 76
2,34791, Note_on_c, 0, 47, 0
2,34795, Control_c, 0, 64, 82
2,34810, Control_c, 0, 64, 87
2,34825, Control_c, 0, 64, 90
2,34840, Control_c, 0, 64, 91
2,34856, Control_c, 0, 64, 90
2,34871, Control_c, 0, 64, 89
2,34887, Control_c, 0, 64, 88
2,34916, Control_c, 0, 64, 88
2,34932, Control_c, 0, 64, 87
2,34947, Control_c, 0, 64, 84
2,34963, Control_c, 0, 64, 83
2,34966, Note_on_c, 0, 40, 50
2,34972, Note_on_c, 0, 52, 39
2,34999, Note_on_c, 0, 67, 69
2,35008, Control_c, 0, 64, 82
2,35023, Control_c, 0, 64, 77
2,35038, Control_c, 0, 64, 67
2,35054, Control_c, 0, 64, 50
2,35069, Control_c, 0, 64, 0
2,35076, Note_on_c, 0, 40, 0
2,35099, Control_c, 0, 64, 38
2,35114, Control_c, 0, 64, 55
2,35129, Control_c, 0, 64, 63
2,35144, Control_c, 0, 64, 67
2,35159, Control_c, 0, 64, 73
2,35175, Control_c, 0, 64, 78
2,35190, Control_c, 0, 64, 81
2,35206, Control_c, 0, 64, 82
2,35296, Control_c, 0, 64, 82
2,35311, Control_c, 0, 64, 83
2,35330, Note_on_c, 0, 54, 45
2,35355, Note_on_c, 0, 59, 71
2,35357, Control_c, 0, 64, 80
2,35373, Control_c, 0, 64, 73
2,35387, Control_c, 0, 64, 64
2,35411, Control_c, 0, 64, 56
2,35425, Control_c, 0, 64, 59
2,35440, Control_c, 0, 64, 63
2,35446, Note_on_c, 0, 52, 0
2,35456, Control_c, 0, 64, 65
2,35465, Note_on_c, 0, 66, 0
2,35471, Control_c, 0, 64, 67
2,35471, Note_on_c, 0, 67, 0
2,35487, Control_c, 0, 64, 70
2,35503, Control_c, 0, 64, 73
2,35518, Control_c, 0, 64, 74
2,35564, Control_c, 0, 64, 73
2,35578, Control_c, 0, 64, 72
2,35593, Control_c, 0, 64, 71
2,35609, Control_c, 0, 64, 69
2,35624, Control_c, 0, 64, 66
2,35639, Control_c, 0, 64, 65
2,35654, Control_c, 0, 64, 65
2,35656, Note_on_c, 0, 55, 45
2,35676, Note_on_c, 0, 71, 67
2,35691, Note_on_c, 0, 64, 61
2,35700, Control_c, 0, 64, 64
2,35700, Note_on_c, 0, 54, 0
2,35715, Control_c, 0, 64, 63
2,35730, Control_c, 0, 64, 61
2,35745, Control_c, 0, 64, 59
2,35760, Control_c, 0, 64, 56
2,35776, Control_c, 0, 64, 54
2,35791, Control_c, 0, 64, 49
2,35800, Note_on_c, 0, 59, 0
2,35807, Control_c, 0, 64, 38
2,35822, Control_c, 0, 64, 15
2,35837, Control_c, 0, 64, 0
2,35913, Control_c, 0, 64, 21
2,35928, Control_c, 0, 64, 26
2,35943, Control_c, 0, 64, 27
2,35958, Control_c, 0, 64, 28
2,35969, Note_on_c, 0, 62, 59
2,35970, Note_on_c, 0, 52, 48
2,35972, Control_c, 0, 64, 30
2,35986, Control_c, 0, 64, 31
2,36001, Control_c, 0, 64, 33
2,36017, Control_c, 0, 64, 39
2,36030, Note_on_c, 0, 64, 0
2,36032, Control_c, 0, 64, 46
2,36047, Control_c, 0, 64, 53
2,36062, Control_c, 0, 64, 57
2,36077, Control_c, 0, 64, 60
2,36093, Control_c, 0, 64, 62
2,36108, Control_c, 0, 64, 63
2,36191, Control_c, 0, 64, 62
2,36222, Control_c, 0, 64, 62
2,36237, Control_c, 0, 64, 61
2,36267, Control_c, 0, 64, 61
2,36271, Note_on_c, 0, 61, 61
2,36278, Note_on_c, 0, 45, 43
2,36282, Control_c, 0, 64, 60
2,36298, Control_c, 0, 64, 60
2,36314, Control_c, 0, 64, 58
2,36314, Note_on_c, 0, 55, 0
2,36330, Control_c, 0, 64, 53
2,36345, Control_c, 0, 64, 45
2,36360, Control_c, 0, 64, 39
2,36360, Note_on_c, 0, 62, 0
2,36375, Control_c, 0, 64, 39
2,36405, Control_c, 0, 64, 41
2,36416, Note_on_c, 0, 52, 0
2,36420, Control_c, 0, 64, 44
2,36435, Control_c, 0, 64, 45
2,36466, Control_c, 0, 64, 45
2,36481, Control_c, 0, 64, 46
2,36496, Control_c, 0, 64, 47
2,36511, Control_c, 0, 64, 48
2,36526, Control_c, 0, 64, 48
2,36572, Control_c, 0, 64, 46
2,36587, Control_c, 0, 64, 37
2,36589, Note_on_c, 0, 64, 60
2,36595, Note_on_c, 0, 55, 46
2,36602, Control_c, 0, 64, 0
2,36675, Note_on_c, 0, 71, 0
2,36678, Control_c, 0, 64, 45
2,36694, Control_c, 0, 64, 58
2,36709, Control_c, 0, 64, 61
2,36724, Control_c, 0, 64, 63
2,36740, Control_c, 0, 64, 64
2,36816, Control_c, 0, 64, 64
2,36845, Control_c, 0, 64, 63
2,36899, Note_on_c, 0, 69, 57
2,36901, Note_on_c, 0, 54, 42
2,36921, Control_c, 0, 64, 63
2,36945, Control_c, 0, 64, 59
2,36959, Control_c, 0, 64, 42
2,36971, Note_on_c, 0, 55, 0
2,36975, Control_c, 0, 64, 0
2,36996, Note_on_c, 0, 64, 0
2,37051, Control_c, 0, 64, 49
2,37052, Note_on_c, 0, 45, 0
2,37066, Control_c, 0, 64, 60
2,37081, Control_c, 0, 64, 63
2,37097, Control_c, 0, 64, 65
2,37111, Control_c, 0, 64, 67
2,37126, Control_c, 0, 64, 68
2,37143, Control_c, 0, 64, 71
2,37158, Control_c, 0, 64, 73
2,37174, Control_c, 0, 64, 77
2,37189, Control_c, 0, 64, 79
2,37204, Control_c, 0, 64, 78
2,37214, Note_on_c, 0, 52, 47
2,37219, Control_c, 0, 64, 73
2,37223, Note_on_c, 0, 67, 56
2,37229, Note_on_c, 0, 45, 28
2,37234, Control_c, 0, 64, 65
2,37250, Control_c, 0, 64, 53
2,37264, Control_c, 0, 64, 42
2,37271, Note_on_c, 0, 69, 0
2,37272, Note_on_c, 0, 54, 0
2,37295, Control_c, 0, 64, 44
2,37310, Control_c, 0, 64, 54
2,37325, Control_c, 0, 64, 61
2,37340, Control_c, 0, 64, 65
2,37355, Control_c, 0, 64, 69
2,37371, Control_c, 0, 64, 74
2,37381, Note_on_c, 0, 45, 0
2,37385, Control_c, 0, 64, 78
2,37400, Control_c, 0, 64, 82
2,37416, Control_c, 0, 64, 84
2,37431, Control_c, 0, 64, 85
2,37451, Note_on_c, 0, 52, 0
2,37462, Control_c, 0, 64, 84
2,37476, Control_c, 0, 64, 83
2,37492, Control_c, 0, 64, 82
2,37507, Control_c, 0, 64, 80
2,37522, Control_c, 0, 64, 79
2,37538, Control_c, 0, 64, 76
2,37553, Control_c, 0, 64, 74
2,37569, Control_c, 0, 64, 72
2,37584, Control_c, 0, 64, 71
2,37598, Control_c, 0, 64, 70
2,37614, Control_c, 0, 64, 68
2,37614, Note_on_c, 0, 66, 50
2,37629, Control_c, 0, 64, 66
2,37634, Note_on_c, 0, 50, 32
2,37644, Control_c, 0, 64, 65
2,37644, Note_on_c, 0, 38, 34
2,37674, Control_c, 0, 64, 65
2,37690, Control_c, 0, 64, 64
2,37712, Control_c, 0, 64, 63
2,37727, Control_c, 0, 64, 61
2,37740, Note_on_c, 0, 67, 0
2,37743, Control_c, 0, 64, 58
2,37758, Control_c, 0, 64, 54
2,37774, Control_c, 0, 64, 50
2,37788, Control_c, 0, 64, 41
2,37797, Note_on_c, 0, 61, 0
2,37803, Control_c, 0, 64, 15
2,37819, Control_c, 0, 64, 0
2,37895, Control_c, 0, 64, 49
2,37910, Control_c, 0, 64, 58
2,37925, Control_c, 0, 64, 61
2,37933, Note_on_c, 0, 38, 0
2,37941, Control_c, 0, 64, 63
2,37956, Control_c, 0, 64, 64
2,37972, Control_c, 0, 64, 65
2,37987, Control_c, 0, 64, 66
2,38002, Control_c, 0, 64, 66
2,38063, Control_c, 0, 64, 66
2,38072, Note_on_c, 0, 57, 45
2,38078, Control_c, 0, 64, 64
2,38094, Control_c, 0, 64, 63
2,38095, Note_on_c, 0, 50, 0
2,38123, Control_c, 0, 64, 64
2,38139, Control_c, 0, 64, 65
2,38154, Control_c, 0, 64, 66
2,38170, Control_c, 0, 64, 66
2,38184, Control_c, 0, 64, 68
2,38199, Control_c, 0, 64, 69
2,38207, Note_on_c, 0, 66, 0
2,38215, Control_c, 0, 64, 72
2,38229, Control_c, 0, 64, 74
2,38244, Control_c, 0, 64, 76
2,38260, Control_c, 0, 64, 77
2,38340, Note_on_c, 0, 57, 0
2,38413, Note_on_c, 0, 62, 50
2,38442, Control_c, 0, 64, 77
2,38496, Control_c, 0, 64, 76
2,38525, Control_c, 0, 64, 76
2,38541, Control_c, 0, 64, 75
2,38556, Control_c, 0, 64, 74
2,38572, Control_c, 0, 64, 74
2,38587, Control_c, 0, 64, 73
2,38601, Control_c, 0, 64, 73
2,38617, Control_c, 0, 64, 72
2,38632, Control_c, 0, 64, 71
2,38647, Control_c, 0, 64, 70
2,38663, Control_c, 0, 64, 69
2,38678, Control_c, 0, 64, 68
2,38694, Control_c, 0, 64, 68
2,38726, Note_on_c, 0, 69, 50
2,38734, Note_on_c, 0, 60, 35
2,38739, Control_c, 0, 64, 67
2,38754, Control_c, 0, 64, 67
2,38770, Control_c, 0, 64, 66
2,38785, Control_c, 0, 64, 65
2,38816, Control_c, 0, 64, 65
2,38843, Note_on_c, 0, 62, 0
2,38846, Control_c, 0, 64, 64
2,38862, Control_c, 0, 64, 63
2,38876, Control_c, 0, 64, 63
2,38892, Control_c, 0, 64, 62
2,38907, Control_c, 0, 64, 62
2,38922, Control_c, 0, 64, 61
2,38938, Control_c, 0, 64, 61
2,38952, Control_c, 0, 64, 60
2,38967, Control_c, 0, 64, 59
2,38983, Control_c, 0, 64, 59
2,38997, Control_c, 0, 64, 58
2,39013, Control_c, 0, 64, 58
2,39019, Note_on_c, 0, 59, 42
2,39028, Control_c, 0, 64, 57
2,39033, Note_on_c, 0, 74, 62
2,39043, Control_c, 0, 64, 57
2,39059, Control_c, 0, 64, 56
2,39073, Control_c, 0, 64, 56
2,39089, Control_c, 0, 64, 55
2,39104, Control_c, 0, 64, 54
2,39119, Control_c, 0, 64, 54
2,39135, Control_c, 0, 64, 53
2,39135, Note_on_c, 0, 69, 0
2,39149, Control_c, 0, 64, 51
2,39149, Note_on_c, 0, 60, 0
2,39164, Control_c, 0, 64, 48
2,39180, Control_c, 0, 64, 45
2,39195, Control_c, 0, 64, 42
2,39211, Control_c, 0, 64, 39
2,39233, Control_c, 0, 64, 34
2,39249, Control_c, 0, 64, 27
2,39264, Control_c, 0, 64, 0
2,39342, Note_on_c, 0, 62, 43
2,39342, Note_on_c, 0, 72, 70
2,39463, Note_on_c, 0, 59, 0
2,39464, Note_on_c, 0, 74, 0
2,39629, Note_on_c, 0, 71, 71
2,39640, Note_on_c, 0, 67, 49
2,39697, Note_on_c, 0, 62, 0
2,39721, Note_on_c, 0, 72, 0
2,39931, Note_on_c, 0, 66, 48
2,39937, Note_on_c, 0, 74, 80
2,39964, Note_on_c, 0, 67, 0
2,40010, Note_on_c, 0, 71, 0
2,40031, Control_c, 0, 64, 56
2,40046, Control_c, 0, 64, 64
2,40061, Control_c, 0, 64, 67
2,40076, Control_c, 0, 64, 70
2,40092, Control_c, 0, 64, 73
2,40107, Control_c, 0, 64, 74
2,40137, Control_c, 0, 64, 74
2,40183, Control_c, 0, 64, 75
2,40213, Control_c, 0, 64, 74
2,40214, Note_on_c, 0, 66, 0
2,40220, Note_on_c, 0, 64, 61
2,40228, Control_c, 0, 64, 70
2,40243, Control_c, 0, 64, 64
2,40250, Note_on_c, 0, 79, 81
2,40259, Control_c, 0, 64, 57
2,40274, Control_c, 0, 64, 56
2,40305, Control_c, 0, 64, 57
2,40319, Control_c, 0, 64, 61
2,40334, Control_c, 0, 64, 65
2,40349, Control_c, 0, 64, 69
2,40362, Note_on_c, 0, 74, 0
2,40364, Control_c, 0, 64, 74
2,40380, Control_c, 0, 64, 79
2,40395, Control_c, 0, 64, 81
2,40412, Control_c, 0, 64, 82
2,40427, Control_c, 0, 64, 82
2,40430, Note_on_c, 0, 64, 0
2,40441, Control_c, 0, 64, 83
2,40531, Note_on_c, 0, 62, 57
2,40533, Control_c, 0, 64, 82
2,40533, Note_on_c, 0, 52, 54
2,40578, Control_c, 0, 64, 82
2,40609, Control_c, 0, 64, 81
2,40624, Control_c, 0, 64, 81
2,40638, Control_c, 0, 64, 80
2,40654, Control_c, 0, 64, 80
2,40669, Control_c, 0, 64, 79
2,40699, Control_c, 0, 64, 79
2,40714, Control_c, 0, 64, 78
2,40730, Control_c, 0, 64, 77
2,40745, Control_c, 0, 64, 77
2,40767, Control_c, 0, 64, 76
2,40783, Control_c, 0, 64, 75
2,40798, Control_c, 0, 64, 74
2,40814, Control_c, 0, 64, 73
2,40829, Control_c, 0, 64, 73
2,40843, Control_c, 0, 64, 72
2,40852, Note_on_c, 0, 78, 80
2,40859, Control_c, 0, 64, 71
2,40861, Note_on_c, 0, 61, 46
2,40867, Note_on_c, 0, 57, 39
2,40874, Control_c, 0, 64, 69
2,40890, Control_c, 0, 64, 65
2,40904, Control_c, 0, 64, 58
2,40919, Control_c, 0, 64, 49
2,40935, Control_c, 0, 64, 44
2,40949, Note_on_c, 0, 62, 0
2,40950, Control_c, 0, 64, 38
2,40965, Control_c, 0, 64, 34
2,40971, Note_on_c, 0, 52, 0
2,40978, Note_on_c, 0, 79, 0
2,40981, Control_c, 0, 64, 33
2,41011, Control_c, 0, 64, 34
2,41026, Control_c, 0, 64, 39
2,41041, Control_c, 0, 64, 43
2,41057, Control_c, 0, 64, 45
2,41072, Control_c, 0, 64, 45
2,41087, Control_c, 0, 64, 46
2,41103, Control_c, 0, 64, 46
2,41159, Note_on_c, 0, 76, 78
2,41163, Note_on_c, 0, 55, 48
2,41194, Control_c, 0, 64, 45
2,41210, Control_c, 0, 64, 43
2,41225, Control_c, 0, 64, 37
2,41228, Note_on_c, 0, 57, 0
2,41234, Note_on_c, 0, 78, 0
2,41240, Control_c, 0, 64, 15
2,41256, Control_c, 0, 64, 0
2,41302, Control_c, 0, 64, 36
2,41316, Control_c, 0, 64, 63
2,41332, Control_c, 0, 64, 71
2,41347, Control_c, 0, 64, 80
2,41362, Control_c, 0, 64, 86
2,41423, Control_c, 0, 64, 85
2,41454, Control_c, 0, 64, 85
2,41469, Control_c, 0, 64, 84
2,41479, Note_on_c, 0, 62, 38
2,41489, Note_on_c, 0, 54, 39
2,41498, Note_on_c, 0, 81, 81
2,41537, Control_c, 0, 64, 83
2,41552, Control_c, 0, 64, 79
2,41567, Control_c, 0, 64, 67
2,41582, Note_on_c, 0, 55, 0
2,41583, Control_c, 0, 64, 31
2,41598, Control_c, 0, 64, 0
2,41610, Note_on_c, 0, 61, 0
2,41631, Note_on_c, 0, 76, 0
2,41643, Control_c, 0, 64, 47
2,41659, Control_c, 0, 64, 63
2,41673, Control_c, 0, 64, 71
2,41682, Note_on_c, 0, 62, 0
2,41689, Control_c, 0, 64, 83
2,41704, Control_c, 0, 64, 89
2,41719, Control_c, 0, 64, 88
2,41735, Control_c, 0, 64, 84
2,41749, Control_c, 0, 64, 79
2,41764, Control_c, 0, 64, 78
2,41780, Control_c, 0, 64, 79
2,41795, Control_c, 0, 64, 80
2,41811, Control_c, 0, 64, 81
2,41832, Note_on_c, 0, 79, 87
2,41833, Note_on_c, 0, 64, 49
2,41844, Note_on_c, 0, 57, 49
2,41856, Control_c, 0, 64, 81
2,41870, Control_c, 0, 64, 82
2,41876, Note_on_c, 0, 81, 0
2,41885, Control_c, 0, 64, 84
2,41901, Control_c, 0, 64, 84
2,41941, Note_on_c, 0, 54, 0
2,41971, Note_on_c, 0, 79, 0
2,42023, Control_c, 0, 64, 84
2,42038, Control_c, 0, 64, 83
2,42054, Control_c, 0, 64, 81
2,42069, Control_c, 0, 64, 79
2,42084, Control_c, 0, 64, 77
2,42100, Control_c, 0, 64, 75
2,42115, Control_c, 0, 64, 73
2,42120, Note_on_c, 0, 62, 45
2,42125, Note_on_c, 0, 78, 84
2,42130, Control_c, 0, 64, 71
2,42145, Control_c, 0, 64, 69
2,42150, Note_on_c, 0, 66, 48
2,42160, Control_c, 0, 64, 67
2,42176, Control_c, 0, 64, 66
2,42191, Control_c, 0, 64, 64
2,42206, Control_c, 0, 64, 62
2,42213, Note_on_c, 0, 57, 0
2,42222, Control_c, 0, 64, 59
2,42225, Note_on_c, 0, 64, 0
2,42237, Control_c, 0, 64, 54
2,42252, Control_c, 0, 64, 49
2,42267, Control_c, 0, 64, 43
2,42282, Control_c, 0, 64, 38
2,42304, Control_c, 0, 64, 34
2,42319, Control_c, 0, 64, 30
2,42335, Control_c, 0, 64, 27
2,42350, Control_c, 0, 64, 26
2,42381, Control_c, 0, 64, 25
2,42396, Control_c, 0, 64, 21
2,42412, Control_c, 0, 64, 0
2,42429, Note_on_c, 0, 76, 69
2,42431, Note_on_c, 0, 61, 45
2,42487, Control_c, 0, 64, 31
2,42495, Note_on_c, 0, 62, 0
2,42503, Control_c, 0, 64, 51
2,42507, Note_on_c, 0, 78, 0
2,42517, Control_c, 0, 64, 59
2,42533, Control_c, 0, 64, 61
2,42548, Control_c, 0, 64, 62
2,42563, Control_c, 0, 64, 63
2,42579, Control_c, 0, 64, 65
2,42593, Control_c, 0, 64, 66
2,42609, Control_c, 0, 64, 68
2,42624, Control_c, 0, 64, 69
2,42639, Control_c, 0, 64, 70
2,42655, Control_c, 0, 64, 71
2,42656, Note_on_c, 0, 61, 0
2,42669, Control_c, 0, 64, 71
2,42684, Control_c, 0, 64, 70
2,42700, Control_c, 0, 64, 67
2,42714, Control_c, 0, 64, 65
2,42730, Control_c, 0, 64, 64
2,42731, Note_on_c, 0, 74, 67
2,42736, Note_on_c, 0, 59, 40
2,42760, Control_c, 0, 64, 65
2,42776, Control_c, 0, 64, 65
2,42790, Control_c, 0, 64, 66
2,42797, Note_on_c, 0, 76, 0
2,42805, Control_c, 0, 64, 67
2,42821, Control_c, 0, 64, 68
2,42836, Control_c, 0, 64, 69
2,42852, Control_c, 0, 64, 70
2,43037, Control_c, 0, 64, 70
2,43038, Note_on_c, 0, 47, 52
2,43091, Control_c, 0, 64, 69
2,43105, Control_c, 0, 64, 69
2,43136, Control_c, 0, 64, 68
2,43146, Note_on_c, 0, 66, 0
2,43150, Control_c, 0, 64, 67
2,43166, Control_c, 0, 64, 66
2,43181, Control_c, 0, 64, 66
2,43196, Control_c, 0, 64, 65
2,43212, Control_c, 0, 64, 65
2,43227, Control_c, 0, 64, 64
2,43241, Control_c, 0, 64, 63
2,43251, Note_on_c, 0, 59, 0
2,43257, Control_c, 0, 64, 62
2,43288, Control_c, 0, 64, 62
2,43342, Note_on_c, 0, 73, 63
2,43348, Note_on_c, 0, 52, 44
2,43350, Note_on_c, 0, 68, 51
2,43394, Control_c, 0, 64, 60
2,43410, Control_c, 0, 64, 55
2,43425, Control_c, 0, 64, 47
2,43439, Control_c, 0, 64, 40
2,43450, Note_on_c, 0, 47, 0
2,43455, Control_c, 0, 64, 38
2,43462, Note_on_c, 0, 74, 0
2,43470, Control_c, 0, 64, 38
2,43636, Control_c, 0, 64, 37
2,43643, Note_on_c, 0, 71, 66
2,43652, Control_c, 0, 64, 36
2,43664, Note_on_c, 0, 50, 31
2,43667, Control_c, 0, 64, 31
2,43684, Control_c, 0, 64, 22
2,43699, Control_c, 0, 64, 18
2,43718, Note_on_c, 0, 73, 0
2,43730, Control_c, 0, 64, 23
2,43743, Note_on_c, 0, 52, 0
2,43744, Control_c, 0, 64, 41
2,43759, Control_c, 0, 64, 56
2,43775, Control_c, 0, 64, 64
2,43789, Control_c, 0, 64, 69
2,43805, Control_c, 0, 64, 75
2,43820, Control_c, 0, 64, 80
2,43844, Control_c, 0, 64, 85
2,43859, Control_c, 0, 64, 88
2,43873, Control_c, 0, 64, 89
2,43913, Note_on_c, 0, 68, 0
2,43919, Control_c, 0, 64, 89
2,43935, Control_c, 0, 64, 88
2,43949, Control_c, 0, 64, 87
2,43988, Note_on_c, 0, 49, 43
2,44019, Note_on_c, 0, 76, 60
2,44025, Control_c, 0, 64, 86
2,44031, Note_on_c, 0, 50, 0
2,44040, Control_c, 0, 64, 79
2,44056, Control_c, 0, 64, 67
2,44070, Control_c, 0, 64, 54
2,44086, Control_c, 0, 64, 46
2,44101, Control_c, 0, 64, 52
2,44116, Control_c, 0, 64, 60
2,44132, Control_c, 0, 64, 65
2,44147, Control_c, 0, 64, 70
2,44150, Note_on_c, 0, 71, 0
2,44161, Control_c, 0, 64, 75
2,44177, Control_c, 0, 64, 79
2,44192, Control_c, 0, 64, 82
2,44207, Control_c, 0, 64, 82
2,44222, Control_c, 0, 64, 82
2,44237, Control_c, 0, 64, 81
2,44283, Control_c, 0, 64, 82
2,44298, Control_c, 0, 64, 83
2,44328, Control_c, 0, 64, 83
2,44343, Control_c, 0, 64, 80
2,44358, Control_c, 0, 64, 72
2,44359, Note_on_c, 0, 74, 64
2,44374, Control_c, 0, 64, 62
2,44382, Note_on_c, 0, 52, 44
2,44389, Control_c, 0, 64, 47
2,44391, Note_on_c, 0, 76, 0
2,44392, Note_on_c, 0, 59, 36
2,44419, Control_c, 0, 64, 56
2,44434, Control_c, 0, 64, 62
2,44450, Control_c, 0, 64, 66
2,44454, Note_on_c, 0, 49, 0
2,44465, Control_c, 0, 64, 71
2,44480, Control_c, 0, 64, 76
2,44490, Note_on_c, 0, 59, 0
2,44496, Control_c, 0, 64, 79
2,44511, Control_c, 0, 64, 82
2,44542, Control_c, 0, 64, 81
2,44556, Control_c, 0, 64, 80
2,44572, Control_c, 0, 64, 79
2,44587, Control_c, 0, 64, 77
2,44611, Control_c, 0, 64, 75
2,44626, Control_c, 0, 64, 73
2,44640, Control_c, 0, 64, 72
2,44656, Control_c, 0, 64, 71
2,44671, Control_c, 0, 64, 71
2,44681, Note_on_c, 0, 73, 61
2,44686, Note_on_c, 0, 57, 37
2,44687, Control_c, 0, 64, 70
2,44687, Note_on_c, 0, 61, 42
2,44697, Note_on_c, 0, 69, 47
2,44702, Control_c, 0, 64, 67
2,44716, Control_c, 0, 64, 64
2,44718, Note_on_c, 0, 74, 0
2,44732, Control_c, 0, 64, 59
2,44747, Control_c, 0, 64, 55
2,44763, Control_c, 0, 64, 51
2,44775, Note_on_c, 0, 52, 0
2,44777, Control_c, 0, 64, 47
2,44792, Control_c, 0, 64, 45
2,44829, Note_on_c, 0, 73, 0
2,44837, Control_c, 0, 64, 46
2,44847, Note_on_c, 0, 73, 38
2,44853, Control_c, 0, 64, 48
2,44868, Control_c, 0, 64, 48
2,44884, Control_c, 0, 64, 49
2,44987, Note_on_c, 0, 56, 42
2,44988, Note_on_c, 0, 71, 60
2,45008, Note_on_c, 0, 64, 48
2,45016, Note_on_c, 0, 69, 0
2,45021, Control_c, 0, 64, 49
2,45057, Note_on_c, 0, 57, 0
2,45086, Note_on_c, 0, 73, 0
2,45098, Control_c, 0, 64, 49
2,45128, Control_c, 0, 64, 48
2,45143, Control_c, 0, 64, 48
2,45234, Control_c, 0, 64, 47
2,45249, Control_c, 0, 64, 47
2,45264, Control_c, 0, 64, 46
2,45270, Note_on_c, 0, 69, 50
2,45288, Note_on_c, 0, 54, 42
2,45295, Control_c, 0, 64, 45
2,45310, Control_c, 0, 64, 45
2,45333, Note_on_c, 0, 56, 0
2,45357, Note_on_c, 0, 64, 0
2,45367, Note_on_c, 0, 71, 0
2,45368, Note_on_c, 0, 61, 0
2,45547, Control_c, 0, 64, 45
2,45561, Control_c, 0, 64, 46
2,45567, Note_on_c, 0, 69, 0
2,45577, Control_c, 0, 64, 49
2,45586, Note_on_c, 0, 73, 52
2,45587, Note_on_c, 0, 68, 50
2,45590, Note_on_c, 0, 57, 13
2,45592, Control_c, 0, 64, 52
2,45593, Note_on_c, 0, 52, 45
2,45601, Note_on_c, 0, 54, 0
2,45607, Control_c, 0, 64, 55
2,45622, Control_c, 0, 64, 58
2,45637, Control_c, 0, 64, 61
2,45653, Control_c, 0, 64, 63
2,45668, Control_c, 0, 64, 64
2,45683, Control_c, 0, 64, 66
2,45698, Control_c, 0, 64, 66
2,45744, Control_c, 0, 64, 66
2,45757, Note_on_c, 0, 73, 0
2,45759, Control_c, 0, 64, 65
2,45789, Control_c, 0, 64, 65
2,45805, Control_c, 0, 64, 64
2,45834, Control_c, 0, 64, 64
2,45850, Control_c, 0, 64, 63
2,45865, Control_c, 0, 64, 63
2,45880, Control_c, 0, 64, 62
2,45887, Note_on_c, 0, 62, 42
2,45896, Control_c, 0, 64, 62
2,45906, Note_on_c, 0, 50, 37
2,45911, Control_c, 0, 64, 61
2,45913, Note_on_c, 0, 71, 51
2,45927, Control_c, 0, 64, 60
2,45933, Note_on_c, 0, 66, 42
2,45942, Control_c, 0, 64, 59
2,45947, Note_on_c, 0, 57, 0
2,45956, Control_c, 0, 64, 58
2,45959, Note_on_c, 0, 52, 0
2,45972, Control_c, 0, 64, 57
2,45987, Control_c, 0, 64, 55
2,46003, Control_c, 0, 64, 53
2,46012, Note_on_c, 0, 68, 0
2,46017, Control_c, 0, 64, 51
2,46032, Control_c, 0, 64, 49
2,46048, Control_c, 0, 64, 46
2,46063, Control_c, 0, 64, 43
2,46078, Control_c, 0, 64, 39
2,46093, Control_c, 0, 64, 31
2,46108, Control_c, 0, 64, 25
2,46124, Control_c, 0, 64, 19
2,46147, Control_c, 0, 64, 12
2,46163, Control_c, 0, 64, 8
2,46178, Control_c, 0, 64, 0
2,46201, Note_on_c, 0, 69, 56
2,46211, Note_on_c, 0, 61, 52
2,46267, Note_on_c, 0, 62, 0
2,46269, Note_on_c, 0, 71, 0
2,46284, Control_c, 0, 64, 13
2,46299, Control_c, 0, 64, 29
2,46314, Control_c, 0, 64, 34
2,46330, Control_c, 0, 64, 35
2,46345, Control_c, 0, 64, 37
2,46436, Control_c, 0, 64, 39
2,46451, Control_c, 0, 64, 45
2,46466, Control_c, 0, 64, 51
2,46481, Control_c, 0, 64, 54
2,46497, Control_c, 0, 64, 58
2,46503, Note_on_c, 0, 59, 54
2,46503, Note_on_c, 0, 68, 56
2,46505, Note_on_c, 0, 64, 51
2,46512, Control_c, 0, 64, 62
2,46527, Control_c, 0, 64, 63
2,46537, Note_on_c, 0, 69, 0
2,46542, Control_c, 0, 64, 65
2,46557, Control_c, 0, 64, 67
2,46571, Note_on_c, 0, 61, 0
2,46573, Control_c, 0, 64, 68
2,46587, Control_c, 0, 64, 69
2,46594, Note_on_c, 0, 50, 0
2,46603, Control_c, 0, 64, 69
2,46645, Note_on_c, 0, 66, 0
2,46678, Control_c, 0, 64, 69
2,46695, Note_on_c, 0, 64, 0
2,46797, Note_on_c, 0, 49, 45
2,46800, Control_c, 0, 64, 68
2,46819, Note_on_c, 0, 64, 65
2,46831, Control_c, 0, 64, 68
2,46847, Control_c, 0, 64, 66
2,46861, Control_c, 0, 64, 64
2,46873, Note_on_c, 0, 59, 0
2,46876, Control_c, 0, 64, 62
2,46892, Control_c, 0, 64, 59
2,46914, Control_c, 0, 64, 57
2,46930, Control_c, 0, 64, 55
2,46944, Control_c, 0, 64, 53
2,46959, Control_c, 0, 64, 52
2,46976, Control_c, 0, 64, 50
2,46991, Control_c, 0, 64, 49
2,47007, Control_c, 0, 64, 47
2,47021, Control_c, 0, 64, 45
2,47036, Control_c, 0, 64, 42
2,47052, Control_c, 0, 64, 39
2,47067, Control_c, 0, 64, 38
2,47083, Control_c, 0, 64, 35
2,47097, Control_c, 0, 64, 32
2,47112, Control_c, 0, 64, 26
2,47118, Note_on_c, 0, 57, 38
2,47121, Note_on_c, 0, 54, 41
2,47128, Control_c, 0, 64, 19
2,47140, Note_on_c, 0, 69, 59
2,47143, Control_c, 0, 64, 0
2,47146, Note_on_c, 0, 62, 46
2,47213, Note_on_c, 0, 49, 0
2,47217, Note_on_c, 0, 64, 0
2,47259, Note_on_c, 0, 68, 0
2,47437, Note_on_c, 0, 56, 39
2,47439, Note_on_c, 0, 61, 56
2,47440, Note_on_c, 0, 52, 42
2,47494, Note_on_c, 0, 54, 0
2,47525, Note_on_c, 0, 62, 0
2,47598, Note_on_c, 0, 57, 0
2,47754, Note_on_c, 0, 59, 50
2,47758, Note_on_c, 0, 54, 31
2,47766, Note_on_c, 0, 50, 35
2,47851, Note_on_c, 0, 61, 0
2,47930, Note_on_c, 0, 52, 0
2,47945, Note_on_c, 0, 56, 0
2,48063, Note_on_c, 0, 61, 59
2,48112, Note_on_c, 0, 59, 0
2,48353, Note_on_c, 0, 52, 27
2,48355, Note_on_c, 0, 62, 44
2,48430, Note_on_c, 0, 61, 0
2,48492, Note_on_c, 0, 54, 0
2,48507, Note_on_c, 0, 50, 0
2,48669, Note_on_c, 0, 68, 52
2,48742, Note_on_c, 0, 69, 0
2,48785, Control_c, 0, 64, 39
2,48800, Control_c, 0, 64, 54
2,48816, Control_c, 0, 64, 59
2,48831, Control_c, 0, 64, 62
2,48847, Control_c, 0, 64, 64
2,48861, Control_c, 0, 64, 66
2,48876, Control_c, 0, 64, 67
2,48892, Control_c, 0, 64, 68
2,48983, Control_c, 0, 64, 68
2,49006, Note_on_c, 0, 45, 39
2,49014, Control_c, 0, 64, 67
2,49029, Control_c, 0, 64, 67
2,49043, Note_on_c, 0, 69, 45
2,49059, Control_c, 0, 64, 66
2,49074, Control_c, 0, 64, 66
2,49090, Control_c, 0, 64, 65
2,49105, Control_c, 0, 64, 64
2,49106, Note_on_c, 0, 68, 0
2,49119, Control_c, 0, 64, 64
2,49135, Control_c, 0, 64, 63
2,49150, Control_c, 0, 64, 63
2,49166, Control_c, 0, 64, 62
2,49181, Control_c, 0, 64, 61
2,49185, Note_on_c, 0, 52, 0
2,49195, Control_c, 0, 64, 60
2,49219, Control_c, 0, 64, 58
2,49234, Control_c, 0, 64, 56
2,49249, Control_c, 0, 64, 54
2,49264, Control_c, 0, 64, 52
2,49279, Control_c, 0, 64, 50
2,49295, Control_c, 0, 64, 48
2,49310, Control_c, 0, 64, 46
2,49325, Control_c, 0, 64, 43
2,49340, Control_c, 0, 64, 40
2,49355, Control_c, 0, 64, 37
2,49371, Control_c, 0, 64, 32
2,49380, Note_on_c, 0, 61, 50
2,49386, Control_c, 0, 64, 25
2,49400, Control_c, 0, 64, 12
2,49416, Control_c, 0, 64, 0
2,49492, Note_on_c, 0, 62, 0
2,49707, Note_on_c, 0, 66, 45
2,49788, Note_on_c, 0, 61, 0
2,49796, Control_c, 0, 64, 24
2,49812, Control_c, 0, 64, 50
2,49827, Control_c, 0, 64, 59
2,49843, Control_c, 0, 64, 63
2,49858, Control_c, 0, 64, 65
2,49870, Note_on_c, 0, 45, 0
2,49873, Control_c, 0, 64, 67
2,49888, Control_c, 0, 64, 68
2,49903, Control_c, 0, 64, 69
2,49934, Control_c, 0, 64, 68
2,49949, Control_c, 0, 64, 67
2,49964, Control_c, 0, 64, 66
2,49986, Control_c, 0, 64, 66
2,50017, Control_c, 0, 64, 65
2,50030, Note_on_c, 0, 42, 38
2,50032, Control_c, 0, 64, 64
2,50040, Note_on_c, 0, 64, 48
2,50048, Control_c, 0, 64, 63
2,50063, Control_c, 0, 64, 59
2,50078, Control_c, 0, 64, 50
2,50093, Control_c, 0, 64, 33
2,50108, Control_c, 0, 64, 0
2,50121, Note_on_c, 0, 66, 0
2,50169, Control_c, 0, 64, 12
2,50184, Control_c, 0, 64, 53
2,50199, Control_c, 0, 64, 63
2,50215, Control_c, 0, 64, 66
2,50230, Control_c, 0, 64, 68
2,50247, Control_c, 0, 64, 70
2,50276, Control_c, 0, 64, 69
2,50292, Control_c, 0, 64, 68
2,50307, Control_c, 0, 64, 67
2,50321, Control_c, 0, 64, 67
2,50365, Note_on_c, 0, 47, 46
2,50368, Control_c, 0, 64, 66
2,50383, Control_c, 0, 64, 65
2,50397, Control_c, 0, 64, 58
2,50412, Note_on_c, 0, 63, 46
2,50413, Control_c, 0, 64, 42
2,50419, Note_on_c, 0, 42, 0
2,50428, Control_c, 0, 64, 17
2,50444, Control_c, 0, 64, 0
2,50463, Note_on_c, 0, 64, 0
2,50504, Control_c, 0, 64, 38
2,50519, Control_c, 0, 64, 57
2,50531, Note_on_c, 0, 69, 0
2,50534, Control_c, 0, 64, 64
2,50549, Control_c, 0, 64, 68
2,50558, Note_on_c, 0, 47, 0
2,50565, Control_c, 0, 64, 73
2,50580, Control_c, 0, 64, 77
2,50595, Control_c, 0, 64, 81
2,50610, Control_c, 0, 64, 85
2,50625, Control_c, 0, 64, 85
2,50640, Control_c, 0, 64, 85
2,50656, Control_c, 0, 64, 84
2,50671, Control_c, 0, 64, 83
2,50687, Control_c, 0, 64, 81
2,50702, Control_c, 0, 64, 80
2,50717, Control_c, 0, 64, 78
2,50732, Control_c, 0, 64, 76
2,50754, Control_c, 0, 64, 73
2,50770, Control_c, 0, 64, 72
2,50793, Note_on_c, 0, 59, 64
2,50830, Control_c, 0, 64, 72
2,50833, Note_on_c, 0, 66, 37
2,50846, Control_c, 0, 64, 70
2,50861, Control_c, 0, 64, 66
2,50876, Control_c, 0, 64, 59
2,50892, Control_c, 0, 64, 40
2,50907, Control_c, 0, 64, 0
2,50983, Control_c, 0, 64, 47
2,50998, Control_c, 0, 64, 63
2,51013, Control_c, 0, 64, 67
2,51028, Control_c, 0, 64, 70
2,51029, Note_on_c, 0, 59, 0
2,51044, Control_c, 0, 64, 70
2,51105, Control_c, 0, 64, 70
2,51120, Control_c, 0, 64, 69
2,51152, Note_on_c, 0, 59, 72
2,51166, Control_c, 0, 64, 68
2,51169, Note_on_c, 0, 71, 46
2,51181, Control_c, 0, 64, 64
2,51196, Control_c, 0, 64, 53
2,51212, Control_c, 0, 64, 28
2,51227, Control_c, 0, 64, 0
2,51297, Note_on_c, 0, 66, 0
2,51303, Control_c, 0, 64, 39
2,51317, Control_c, 0, 64, 62
2,51333, Control_c, 0, 64, 66
2,51348, Control_c, 0, 64, 70
2,51359, Note_on_c, 0, 59, 0
2,51363, Control_c, 0, 64, 72
2,51409, Control_c, 0, 64, 71
2,51424, Control_c, 0, 64, 70
2,51460, Note_on_c, 0, 59, 75
2,51473, Note_on_c, 0, 69, 49
2,51485, Control_c, 0, 64, 68
2,51500, Control_c, 0, 64, 64
2,51515, Control_c, 0, 64, 50
2,51540, Control_c, 0, 64, 28
2,51556, Control_c, 0, 64, 0
2,51603, Note_on_c, 0, 71, 0
2,51616, Control_c, 0, 64, 46
2,51631, Control_c, 0, 64, 55
2,51647, Control_c, 0, 64, 56
2,51661, Control_c, 0, 64, 57
2,51677, Control_c, 0, 64, 57
2,51707, Control_c, 0, 64, 57
2,51722, Control_c, 0, 64, 55
2,51737, Control_c, 0, 64, 54
2,51768, Control_c, 0, 64, 54
2,51783, Control_c, 0, 64, 53
2,51789, Note_on_c, 0, 52, 67
2,51799, Control_c, 0, 64, 52
2,51814, Control_c, 0, 64, 51
2,51827, Note_on_c, 0, 67, 43
2,51829, Control_c, 0, 64, 50
2,51844, Control_c, 0, 64, 48
2,51858, Control_c, 0, 64, 44
2,51873, Control_c, 0, 64, 35
2,51890, Control_c, 0, 64, 24
2,51890, Note_on_c, 0, 69, 0
2,51893, Note_on_c, 0, 59, 0
2,51893, Note_on_c, 0, 63, 0
2,51905, Control_c, 0, 64, 0
2,52093, Note_on_c, 0, 50, 63
2,52153, Note_on_c, 0, 59, 52
2,52193, Control_c, 0, 64, 26
2,52208, Control_c, 0, 64, 46
2,52218, Note_on_c, 0, 67, 0
2,52223, Control_c, 0, 64, 56
2,52239, Control_c, 0, 64, 61
2,52248, Note_on_c, 0, 67, 15
2,52250, Note_on_c, 0, 50, 0
2,52254, Control_c, 0, 64, 64
2,52269, Control_c, 0, 64, 67
2,52292, Control_c, 0, 64, 71
2,52307, Control_c, 0, 64, 73
2,52323, Control_c, 0, 64, 74
2,52352, Control_c, 0, 64, 74
2,52368, Control_c, 0, 64, 73
2,52383, Control_c, 0, 64, 71
2,52399, Control_c, 0, 64, 69
2,52414, Control_c, 0, 64, 68
2,52424, Note_on_c, 0, 55, 74
2,52428, Control_c, 0, 64, 66
2,52441, Note_on_c, 0, 49, 57
2,52444, Control_c, 0, 64, 65
2,52459, Control_c, 0, 64, 63
2,52469, Note_on_c, 0, 59, 0
2,52474, Control_c, 0, 64, 61
2,52476, Note_on_c, 0, 64, 47
2,52490, Control_c, 0, 64, 59
2,52505, Control_c, 0, 64, 55
2,52520, Control_c, 0, 64, 50
2,52526, Note_on_c, 0, 52, 0
2,52535, Control_c, 0, 64, 43
2,52550, Control_c, 0, 64, 30
2,52566, Control_c, 0, 64, 0
2,52727, Note_on_c, 0, 47, 44
2,52728, Note_on_c, 0, 62, 55
2,52767, Note_on_c, 0, 49, 0
2,52838, Note_on_c, 0, 64, 0
2,52851, Note_on_c, 0, 67, 0
2,53036, Note_on_c, 0, 46, 42
2,53074, Note_on_c, 0, 61, 57
2,53099, Note_on_c, 0, 47, 0
2,53151, Control_c, 0, 64, 35
2,53153, Note_on_c, 0, 62, 0
2,53167, Control_c, 0, 64, 55
2,53182, Control_c, 0, 64, 62
2,53197, Control_c, 0, 64, 67
2,53212, Control_c, 0, 64, 71
2,53227, Control_c, 0, 64, 76
2,53240, Note_on_c, 0, 61, 0
2,53243, Control_c, 0, 64, 81
2,53258, Control_c, 0, 64, 84
2,53272, Control_c, 0, 64, 85
2,53288, Control_c, 0, 64, 85
2,53303, Control_c, 0, 64, 84
2,53318, Control_c, 0, 64, 83
2,53333, Control_c, 0, 64, 82
2,53348, Control_c, 0, 64, 80
2,53364, Control_c, 0, 64, 77
2,53379, Control_c, 0, 64, 74
2,53394, Control_c, 0, 64, 72
2,53404, Note_on_c, 0, 49, 49
2,53410, Control_c, 0, 64, 72
2,53425, Control_c, 0, 64, 71
2,53441, Control_c, 0, 64, 70
2,53456, Control_c, 0, 64, 69
2,53459, Note_on_c, 0, 78, 69
2,53470, Control_c, 0, 64, 66
2,53486, Control_c, 0, 64, 62
2,53501, Control_c, 0, 64, 47
2,53517, Control_c, 0, 64, 0
2,53572, Note_on_c, 0, 55, 0
2,53609, Control_c, 0, 64, 49
2,53623, Control_c, 0, 64, 60
2,53639, Control_c, 0, 64, 63
2,53654, Control_c, 0, 64, 63
2,53664, Note_on_c, 0, 78, 0
2,53669, Control_c, 0, 64, 64
2,53685, Control_c, 0, 64, 66
2,53699, Control_c, 0, 64, 67
2,53714, Control_c, 0, 64, 68
2,53730, Control_c, 0, 64, 65
2,53745, Control_c, 0, 64, 57
2,53746, Note_on_c, 0, 54, 62
2,53761, Control_c, 0, 64, 0
2,53769, Note_on_c, 0, 78, 74
2,53859, Control_c, 0, 64, 19
2,53874, Control_c, 0, 64, 59
2,53890, Control_c, 0, 64, 65
2,53904, Control_c, 0, 64, 69
2,53905, Note_on_c, 0, 46, 0
2,53905, Note_on_c, 0, 49, 0
2,53920, Control_c, 0, 64, 72
2,53935, Control_c, 0, 64, 74
2,53950, Control_c, 0, 64, 74
2,53954, Note_on_c, 0, 78, 0
2,53980, Control_c, 0, 64, 74
2,53996, Control_c, 0, 64, 73
2,54011, Control_c, 0, 64, 72
2,54026, Control_c, 0, 64, 72
2,54061, Note_on_c, 0, 52, 64
2,54067, Note_on_c, 0, 46, 48
2,54067, Note_on_c, 0, 78, 70
2,54071, Control_c, 0, 64, 71
2,54087, Control_c, 0, 64, 70
2,54102, Control_c, 0, 64, 67
2,54117, Control_c, 0, 64, 64
2,54132, Control_c, 0, 64, 54
2,54147, Control_c, 0, 64, 26
2,54162, Control_c, 0, 64, 0
2,54187, Note_on_c, 0, 54, 0
2,54223, Control_c, 0, 64, 55
2,54239, Control_c, 0, 64, 64
2,54254, Control_c, 0, 64, 68
2,54269, Control_c, 0, 64, 72
2,54269, Note_on_c, 0, 46, 0
2,54284, Control_c, 0, 64, 75
2,54330, Control_c, 0, 64, 73
2,54345, Control_c, 0, 64, 72
2,54361, Control_c, 0, 64, 71
2,54376, Control_c, 0, 64, 71
2,54391, Control_c, 0, 64, 69
2,54401, Note_on_c, 0, 51, 75
2,54407, Control_c, 0, 64, 67
2,54422, Control_c, 0, 64, 65
2,54424, Note_on_c, 0, 45, 46
2,54438, Control_c, 0, 64, 65
2,54449, Note_on_c, 0, 71, 65
2,54452, Control_c, 0, 64, 64
2,54467, Control_c, 0, 64, 64
2,54483, Control_c, 0, 64, 62
2,54498, Control_c, 0, 64, 60
2,54513, Control_c, 0, 64, 55
2,54529, Control_c, 0, 64, 48
2,54543, Control_c, 0, 64, 29
2,54559, Control_c, 0, 64, 0
2,54561, Note_on_c, 0, 52, 0
2,54566, Note_on_c, 0, 78, 0
2,54707, Note_on_c, 0, 71, 0
2,54766, Note_on_c, 0, 53, 55
2,54782, Note_on_c, 0, 71, 61
2,54824, Control_c, 0, 64, 22
2,54840, Control_c, 0, 64, 39
2,54855, Control_c, 0, 64, 47
2,54870, Control_c, 0, 64, 52
2,54885, Control_c, 0, 64, 54
2,54900, Control_c, 0, 64, 55
2,54901, Note_on_c, 0, 53, 0
2,54902, Note_on_c, 0, 51, 0
2,54903, Note_on_c, 0, 54, 65
2,54916, Control_c, 0, 64, 56
2,54946, Control_c, 0, 64, 55
2,54961, Control_c, 0, 64, 54
2,54964, Note_on_c, 0, 71, 0
2,54976, Control_c, 0, 64, 54
2,54991, Control_c, 0, 64, 53
2,55006, Control_c, 0, 64, 53
2,55021, Control_c, 0, 64, 51
2,55037, Control_c, 0, 64, 45
2,55052, Control_c, 0, 64, 28
2,55055, Note_on_c, 0, 53, 53
2,55058, Note_on_c, 0, 74, 67
2,55067, Control_c, 0, 64, 0
2,55079, Note_on_c, 0, 71, 57
2,55178, Note_on_c, 0, 45, 0
2,55183, Note_on_c, 0, 54, 0
2,55189, Control_c, 0, 64, 53
2,55205, Control_c, 0, 64, 62
2,55220, Control_c, 0, 64, 65
2,55236, Control_c, 0, 64, 67
2,55246, Note_on_c, 0, 71, 0
2,55250, Control_c, 0, 64, 67
2,55353, Note_on_c, 0, 44, 48
2,55358, Note_on_c, 0, 71, 68
2,55380, Control_c, 0, 64, 65
2,55394, Control_c, 0, 64, 58
2,55410, Control_c, 0, 64, 29
2,55425, Control_c, 0, 64, 0
2,55486, Control_c, 0, 64, 26
2,55486, Note_on_c, 0, 53, 0
2,55501, Control_c, 0, 64, 54
2,55517, Control_c, 0, 64, 60
2,55532, Control_c, 0, 64, 61
2,55562, Control_c, 0, 64, 61
2,55608, Control_c, 0, 64, 60
2,55623, Control_c, 0, 64, 60
2,55639, Control_c, 0, 64, 59
2,55653, Control_c, 0, 64, 59
2,55663, Note_on_c, 0, 49, 39
2,55668, Control_c, 0, 64, 58
2,55684, Control_c, 0, 64, 57
2,55699, Note_on_c, 0, 64, 65
2,55729, Control_c, 0, 64, 56
2,55742, Note_on_c, 0, 71, 0
2,55744, Control_c, 0, 64, 52
2,55760, Control_c, 0, 64, 37
2,55760, Note_on_c, 0, 44, 0
2,55774, Control_c, 0, 64, 0
2,55865, Control_c, 0, 64, 49
2,55881, Control_c, 0, 64, 53
2,55973, Control_c, 0, 64, 52
2,56010, Note_on_c, 0, 59, 47
2,56036, Note_on_c, 0, 68, 63
2,56049, Control_c, 0, 64, 51
2,56064, Control_c, 0, 64, 44
2,56079, Control_c, 0, 64, 0
2,56137, Note_on_c, 0, 74, 0
2,56163, Control_c, 0, 64, 40
2,56178, Control_c, 0, 64, 57
2,56193, Control_c, 0, 64, 62
2,56193, Note_on_c, 0, 64, 0
2,56209, Control_c, 0, 64, 63
2,56224, Control_c, 0, 64, 63
2,56285, Control_c, 0, 64, 62
2,56321, Note_on_c, 0, 58, 44
2,56343, Note_on_c, 0, 67, 63
2,56361, Control_c, 0, 64, 62
2,56375, Control_c, 0, 64, 60
2,56390, Control_c, 0, 64, 54
2,56390, Note_on_c, 0, 73, 50
2,56393, Note_on_c, 0, 59, 0
2,56406, Control_c, 0, 64, 38
2,56421, Control_c, 0, 64, 0
2,56479, Note_on_c, 0, 68, 0
2,56512, Control_c, 0, 64, 54
2,56528, Control_c, 0, 64, 60
2,56543, Control_c, 0, 64, 60
2,56573, Control_c, 0, 64, 61
2,56633, Control_c, 0, 64, 61
2,56649, Control_c, 0, 64, 62
2,56651, Note_on_c, 0, 61, 42
2,56659, Note_on_c, 0, 52, 47
2,56661, Note_on_c, 0, 71, 59
2,56668, Note_on_c, 0, 58, 0
2,56680, Control_c, 0, 64, 61
2,56694, Control_c, 0, 64, 55
2,56706, Note_on_c, 0, 49, 0
2,56709, Control_c, 0, 64, 36
2,56725, Control_c, 0, 64, 0
2,56772, Note_on_c, 0, 73, 0
2,56785, Control_c, 0, 64, 38
2,56792, Note_on_c, 0, 61, 0
2,56802, Control_c, 0, 64, 59
2,56806, Note_on_c, 0, 52, 0
2,56817, Control_c, 0, 64, 65
2,56832, Control_c, 0, 64, 69
2,56847, Control_c, 0, 64, 73
2,56862, Control_c, 0, 64, 75
2,56917, Control_c, 0, 64, 75
2,56931, Control_c, 0, 64, 73
2,56946, Control_c, 0, 64, 72
2,56962, Control_c, 0, 64, 71
2,57000, Note_on_c, 0, 42, 20
2,57007, Control_c, 0, 64, 72
2,57017, Note_on_c, 0, 70, 52
2,57038, Control_c, 0, 64, 71
2,57052, Control_c, 0, 64, 66
2,57067, Control_c, 0, 64, 53
2,57083, Control_c, 0, 64, 12
2,57098, Control_c, 0, 64, 0
2,57128, Control_c, 0, 64, 26
2,57137, Note_on_c, 0, 71, 0
2,57143, Control_c, 0, 64, 53
2,57159, Control_c, 0, 64, 63
2,57174, Control_c, 0, 64, 70
2,57183, Note_on_c, 0, 42, 0
2,57189, Control_c, 0, 64, 77
2,57205, Control_c, 0, 64, 86
2,57219, Control_c, 0, 64, 93
2,57234, Control_c, 0, 64, 99
2,57250, Control_c, 0, 64, 100
2,57265, Control_c, 0, 64, 99
2,57281, Control_c, 0, 64, 97
2,57296, Control_c, 0, 64, 95
2,57311, Control_c, 0, 64, 93
2,57326, Control_c, 0, 64, 92
2,57341, Control_c, 0, 64, 89
2,57357, Control_c, 0, 64, 86
2,57372, Control_c, 0, 64, 85
2,57403, Control_c, 0, 64, 85
2,57422, Note_on_c, 0, 61, 52
2,57422, Note_on_c, 0, 64, 56
2,57428, Note_on_c, 0, 54, 43
2,57446, Control_c, 0, 64, 85
2,57460, Control_c, 0, 64, 83
2,57475, Control_c, 0, 64, 79
2,57491, Control_c, 0, 64, 70
2,57495, Note_on_c, 0, 67, 0
2,57506, Control_c, 0, 64, 60
2,57521, Control_c, 0, 64, 45
2,57536, Control_c, 0, 64, 46
2,57551, Control_c, 0, 64, 55
2,57567, Control_c, 0, 64, 62
2,57582, Control_c, 0, 64, 66
2,57597, Control_c, 0, 64, 69
2,57613, Note_on_c, 0, 64, 0
2,57614, Control_c, 0, 64, 71
2,57629, Control_c, 0, 64, 70
2,57644, Control_c, 0, 64, 69
2,57666, Control_c, 0, 64, 68
2,57681, Control_c, 0, 64, 67
2,57697, Control_c, 0, 64, 67
2,57712, Control_c, 0, 64, 66
2,57728, Control_c, 0, 64, 64
2,57743, Control_c, 0, 64, 63
2,57758, Control_c, 0, 64, 62
2,57763, Note_on_c, 0, 62, 48
2,57776, Note_on_c, 0, 66, 51
2,57777, Note_on_c, 0, 71, 53
2,57786, Note_on_c, 0, 56, 50
2,57788, Control_c, 0, 64, 61
2,57804, Control_c, 0, 64, 58
2,57819, Control_c, 0, 64, 54
2,57828, Note_on_c, 0, 70, 0
2,57834, Control_c, 0, 64, 47
2,57849, Control_c, 0, 64, 34
2,57864, Control_c, 0, 64, 0
2,57879, Note_on_c, 0, 54, 0
2,57887, Note_on_c, 0, 61, 0
2,58081, Note_on_c, 0, 58, 46
2,58086, Note_on_c, 0, 73, 67
2,58089, Note_on_c, 0, 61, 41
2,58093, Note_on_c, 0, 64, 56
2,58142, Note_on_c, 0, 71, 0
2,58166, Note_on_c, 0, 56, 0
2,58185, Note_on_c, 0, 62, 0
2,58214, Control_c, 0, 64, 41
2,58229, Control_c, 0, 64, 57
2,58245, Control_c, 0, 64, 62
2,58259, Control_c, 0, 64, 66
2,58270, Note_on_c, 0, 64, 0
2,58274, Control_c, 0, 64, 71
2,58290, Control_c, 0, 64, 75
2,58302, Note_on_c, 0, 73, 0
2,58304, Control_c, 0, 64, 78
2,58319, Control_c, 0, 64, 79
2,58335, Control_c, 0, 64, 79
2,58366, Control_c, 0, 64, 79
2,58393, Note_on_c, 0, 59, 55
2,58395, Control_c, 0, 64, 78
2,58398, Note_on_c, 0, 74, 67
2,58407, Note_on_c, 0, 62, 52
2,58410, Note_on_c, 0, 61, 0
2,58411, Control_c, 0, 64, 77
2,58434, Control_c, 0, 64, 76
2,58450, Control_c, 0, 64, 75
2,58465, Control_c, 0, 64, 74
2,58480, Control_c, 0, 64, 73
2,58495, Control_c, 0, 64, 72
2,58510, Control_c, 0, 64, 70
2,58523, Note_on_c, 0, 66, 0
2,58526, Control_c, 0, 64, 69
2,58536, Note_on_c, 0, 58, 0
2,58541, Control_c, 0, 64, 67
2,58556, Control_c, 0, 64, 66
2,58572, Control_c, 0, 64, 65
2,58601, Control_c, 0, 64, 65
2,58617, Control_c, 0, 64, 64
2,58632, Control_c, 0, 64, 63
2,58648, Control_c, 0, 64, 62
2,58708, Control_c, 0, 64, 61
2,58708, Note_on_c, 0, 66, 64
2,58714, Note_on_c, 0, 57, 47
2,58724, Control_c, 0, 64, 61
2,58738, Control_c, 0, 64, 60
2,58754, Control_c, 0, 64, 59
2,58770, Control_c, 0, 64, 59
2,58785, Control_c, 0, 64, 57
2,58800, Control_c, 0, 64, 54
2,58815, Control_c, 0, 64, 50
2,58830, Control_c, 0, 64, 46
2,58835, Note_on_c, 0, 62, 0
2,58846, Control_c, 0, 64, 43
2,58861, Control_c, 0, 64, 39
2,58875, Control_c, 0, 64, 33
2,58891, Control_c, 0, 64, 24
2,58906, Control_c, 0, 64, 0
2,59011, Note_on_c, 0, 56, 36
2,59018, Note_on_c, 0, 71, 58
2,59114, Note_on_c, 0, 57, 0
2,59134, Note_on_c, 0, 66, 0
2,59305, Note_on_c, 0, 54, 40
2,59319, Note_on_c, 0, 69, 59
2,59409, Note_on_c, 0, 56, 0
2,59421, Note_on_c, 0, 71, 0
2,59619, Note_on_c, 0, 53, 40
2,59628, Note_on_c, 0, 68, 55
2,59720, Note_on_c, 0, 54, 0
2,59768, Note_on_c, 0, 59, 0
2,59774, Note_on_c, 0, 69, 0
2,59934, Note_on_c, 0, 56, 50
2,60251, Note_on_c, 0, 61, 47
2,60284, Note_on_c, 0, 73, 55
2,60371, Note_on_c, 0, 56, 0
2,60385, Note_on_c, 0, 74, 0
2,60567, Note_on_c, 0, 59, 54
2,60623, Note_on_c, 0, 61, 0
2,60669, Control_c, 0, 64, 25
2,60684, Control_c, 0, 64, 45
2,60699, Control_c, 0, 64, 51
2,60714, Control_c, 0, 64, 56
2,60738, Control_c, 0, 64, 58
2,60753, Control_c, 0, 64, 59
2,60768, Control_c, 0, 64, 60
2,60891, Control_c, 0, 64, 59
2,60918, Note_on_c, 0, 57, 45
2,60921, Control_c, 0, 64, 58
2,60937, Control_c, 0, 64, 57
2,60951, Control_c, 0, 64, 54
2,60956, Note_on_c, 0, 53, 0
2,60967, Control_c, 0, 64, 49
2,60981, Note_on_c, 0, 59, 0
2,60982, Control_c, 0, 64, 39
2,60996, Control_c, 0, 64, 23
2,61012, Control_c, 0, 64, 0
2,61058, Control_c, 0, 64, 38
2,61072, Control_c, 0, 64, 53
2,61088, Control_c, 0, 64, 60
2,61103, Control_c, 0, 64, 64
2,61118, Control_c, 0, 64, 66
2,61134, Control_c, 0, 64, 67
2,61164, Control_c, 0, 64, 67
2,61179, Control_c, 0, 64, 66
2,61194, Control_c, 0, 64, 65
2,61256, Control_c, 0, 64, 65
2,61299, Note_on_c, 0, 54, 47
2,61316, Control_c, 0, 64, 64
2,61319, Note_on_c, 0, 61, 39
2,61331, Control_c, 0, 64, 60
2,61346, Control_c, 0, 64, 47
2,61361, Control_c, 0, 64, 10
2,61377, Control_c, 0, 64, 0
2,61412, Note_on_c, 0, 68, 0
2,61437, Control_c, 0, 64, 22
2,61453, Control_c, 0, 64, 54
2,61468, Control_c, 0, 64, 61
2,61483, Control_c, 0, 64, 63
2,61506, Control_c, 0, 64, 64
2,61532, Note_on_c, 0, 54, 0
2,61536, Control_c, 0, 64, 64
2,61627, Control_c, 0, 64, 64
2,61643, Control_c, 0, 64, 62
2,61646, Note_on_c, 0, 54, 63
2,61658, Control_c, 0, 64, 55
2,61659, Note_on_c, 0, 66, 47
2,61673, Control_c, 0, 64, 32
2,61688, Control_c, 0, 64, 0
2,61735, Control_c, 0, 64, 31
2,61750, Control_c, 0, 64, 56
2,61765, Control_c, 0, 64, 64
2,61780, Control_c, 0, 64, 69
2,61795, Control_c, 0, 64, 74
2,61806, Note_on_c, 0, 54, 0
2,61811, Control_c, 0, 64, 76
2,61820, Note_on_c, 0, 61, 0
2,61827, Control_c, 0, 64, 76
2,61841, Control_c, 0, 64, 76
2,61872, Control_c, 0, 64, 75
2,61941, Note_on_c, 0, 54, 54
2,61952, Note_on_c, 0, 64, 56
2,61964, Control_c, 0, 64, 72
2,61978, Control_c, 0, 64, 66
2,61993, Control_c, 0, 64, 55
2,62009, Control_c, 0, 64, 51
2,62024, Control_c, 0, 64, 54
2,62026, Note_on_c, 0, 66, 0
2,62039, Control_c, 0, 64, 60
2,62054, Control_c, 0, 64, 63
2,62069, Control_c, 0, 64, 66
2,62085, Control_c, 0, 64, 67
2,62115, Control_c, 0, 64, 66
2,62130, Control_c, 0, 64, 65
2,62145, Control_c, 0, 64, 64
2,62160, Control_c, 0, 64, 64
2,62176, Control_c, 0, 64, 63
2,62191, Control_c, 0, 64, 61
2,62207, Control_c, 0, 64, 59
2,62222, Control_c, 0, 64, 58
2,62253, Note_on_c, 0, 47, 55
2,62305, Control_c, 0, 64, 56
2,62305, Note_on_c, 0, 62, 46
2,62320, Control_c, 0, 64, 54
2,62335, Control_c, 0, 64, 49
2,62350, Control_c, 0, 64, 44
2,62366, Control_c, 0, 64, 38
2,62381, Control_c, 0, 64, 37
2,62392, Note_on_c, 0, 54, 0
2,62392, Note_on_c, 0, 73, 0
2,62412, Control_c, 0, 64, 37
2,62427, Control_c, 0, 64, 40
2,62438, Note_on_c, 0, 64, 0
2,62441, Control_c, 0, 64, 40
2,62457, Control_c, 0, 64, 41
2,62588, Note_on_c, 0, 71, 55
2,62595, Control_c, 0, 64, 40
2,62599, Note_on_c, 0, 54, 52
2,62640, Control_c, 0, 64, 39
2,62656, Control_c, 0, 64, 39
2,62662, Note_on_c, 0, 57, 0
2,62671, Control_c, 0, 64, 37
2,62686, Control_c, 0, 64, 35
2,62701, Control_c, 0, 64, 29
2,62716, Control_c, 0, 64, 21
2,62727, Note_on_c, 0, 69, 57
2,62732, Control_c, 0, 64, 8
2,62747, Control_c, 0, 64, 0
2,62767, Note_on_c, 0, 71, 0
2,62895, Note_on_c, 0, 68, 56
2,62897, Note_on_c, 0, 59, 52
2,62904, Note_on_c, 0, 50, 48
2,62953, Note_on_c, 0, 54, 0
2,62993, Note_on_c, 0, 62, 0
2,63007, Note_on_c, 0, 69, 0
2,63052, Note_on_c, 0, 59, 0
2,63073, Control_c, 0, 64, 8
2,63093, Note_on_c, 0, 47, 0
2,63134, Control_c, 0, 64, 0
2,63204, Note_on_c, 0, 57, 40
2,63209, Note_on_c, 0, 66, 51
2,63228, Note_on_c, 0, 61, 46
2,63270, Control_c, 0, 64, 44
2,63271, Note_on_c, 0, 68, 0
2,63286, Control_c, 0, 64, 58
2,63301, Control_c, 0, 64, 63
2,63316, Control_c, 0, 64, 66
2,63332, Control_c, 0, 64, 70
2,63347, Control_c, 0, 64, 73
2,63363, Control_c, 0, 64, 75
2,63367, Note_on_c, 0, 66, 0
2,63372, Note_on_c, 0, 61, 0
2,63393, Control_c, 0, 64, 74
2,63408, Control_c, 0, 64, 73
2,63416, Note_on_c, 0, 57, 0
2,63423, Control_c, 0, 64, 71
2,63438, Control_c, 0, 64, 69
2,63453, Control_c, 0, 64, 69
2,63468, Control_c, 0, 64, 68
2,63484, Control_c, 0, 64, 66
2,63499, Control_c, 0, 64, 65
2,63512, Note_on_c, 0, 56, 44
2,63514, Control_c, 0, 64, 64
2,63534, Note_on_c, 0, 65, 51
2,63544, Control_c, 0, 64, 64
2,63553, Note_on_c, 0, 59, 42
2,63559, Control_c, 0, 64, 63
2,63575, Control_c, 0, 64, 62
2,63590, Control_c, 0, 64, 61
2,63594, Note_on_c, 0, 50, 0
2,63605, Control_c, 0, 64, 61
2,63620, Control_c, 0, 64, 60
2,63635, Control_c, 0, 64, 60
2,63665, Control_c, 0, 64, 59
2,63680, Control_c, 0, 64, 58
2,63696, Control_c, 0, 64, 57
2,63726, Control_c, 0, 64, 57
2,63810, Control_c, 0, 64, 56
2,63825, Control_c, 0, 64, 56
2,63846, Note_on_c, 0, 44, 55
2,63856, Control_c, 0, 64, 55
2,63886, Control_c, 0, 64, 54
2,63901, Control_c, 0, 64, 52
2,63916, Control_c, 0, 64, 51
2,63932, Control_c, 0, 64, 50
2,63946, Control_c, 0, 64, 49
2,63961, Control_c, 0, 64, 46
2,63977, Control_c, 0, 64, 41
2,63992, Control_c, 0, 64, 35
2,64008, Control_c, 0, 64, 31
2,64023, Control_c, 0, 64, 30
2,64038, Control_c, 0, 64, 29
2,64053, Control_c, 0, 64, 28
2,64068, Control_c, 0, 64, 27
2,64084, Control_c, 0, 64, 26
2,64153, Note_on_c, 0, 49, 59
2,64267, Note_on_c, 0, 44, 0
2,64451, Note_on_c, 0, 47, 57
2,64524, Control_c, 0, 64, 26
2,64539, Control_c, 0, 64, 25
2,64541, Note_on_c, 0, 49, 0
2,64577, Control_c, 0, 64, 25
2,64592, Control_c, 0, 64, 38
2,64608, Control_c, 0, 64, 47
2,64623, Control_c, 0, 64, 51
2,64637, Control_c, 0, 64, 53
2,64653, Control_c, 0, 64, 53
2,64668, Control_c, 0, 64, 54
2,64684, Control_c, 0, 64, 55
2,64699, Control_c, 0, 64, 56
2,64729, Control_c, 0, 64, 56
2,64744, Control_c, 0, 64, 58
2,64759, Control_c, 0, 64, 60
2,64775, Control_c, 0, 64, 61
2,64790, Control_c, 0, 64, 60
2,64804, Note_on_c, 0, 45, 52
2,64806, Control_c, 0, 64, 55
2,64821, Control_c, 0, 64, 44
2,64835, Control_c, 0, 64, 31
2,64851, Control_c, 0, 64, 13
2,64866, Control_c, 0, 64, 0
2,64881, Control_c, 0, 64, 15
2,64897, Control_c, 0, 64, 45
2,64905, Note_on_c, 0, 47, 0
2,64911, Control_c, 0, 64, 57
2,64927, Control_c, 0, 64, 61
2,64927, Note_on_c, 0, 59, 0
2,64942, Control_c, 0, 64, 63
2,64948, Note_on_c, 0, 56, 0
2,64957, Control_c, 0, 64, 64
2,64973, Control_c, 0, 64, 66
2,64989, Control_c, 0, 64, 67
2,65004, Control_c, 0, 64, 69
2,65034, Control_c, 0, 64, 69
2,65050, Control_c, 0, 64, 71
2,65064, Control_c, 0, 64, 74
2,65095, Control_c, 0, 64, 70
2,65110, Control_c, 0, 64, 62
2,65126, Control_c, 0, 64, 52
2,65133, Note_on_c, 0, 54, 45
2,65140, Control_c, 0, 64, 50
2,65146, Note_on_c, 0, 57, 46
2,65147, Note_on_c, 0, 61, 48
2,65155, Control_c, 0, 64, 53
2,65171, Control_c, 0, 64, 59
2,65186, Control_c, 0, 64, 63
2,65191, Note_on_c, 0, 65, 0
2,65201, Control_c, 0, 64, 66
2,65201, Note_on_c, 0, 45, 0
2,65216, Control_c, 0, 64, 69
2,65231, Control_c, 0, 64, 72
2,65247, Control_c, 0, 64, 75
2,65261, Control_c, 0, 64, 77
2,65276, Note_on_c, 0, 57, 0
2,65276, Note_on_c, 0, 59, 54
2,65279, Note_on_c, 0, 56, 52
2,65292, Control_c, 0, 64, 77
2,65294, Note_on_c, 0, 61, 0
2,65307, Control_c, 0, 64, 76
2,65323, Control_c, 0, 64, 76
2,65345, Control_c, 0, 64, 75
2,65357, Note_on_c, 0, 56, 0
2,65360, Control_c, 0, 64, 75
2,65376, Control_c, 0, 64, 73
2,65391, Control_c, 0, 64, 71
2,65407, Control_c, 0, 64, 70
2,65417, Note_on_c, 0, 54, 0
2,65421, Control_c, 0, 64, 69
2,65441, Note_on_c, 0, 66, 57
2,65443, Note_on_c, 0, 57, 45
2,65449, Note_on_c, 0, 61, 47
2,65481, Control_c, 0, 64, 68
2,65497, Control_c, 0, 64, 63
2,65512, Control_c, 0, 64, 47
2,65528, Control_c, 0, 64, 0
2,65548, Note_on_c, 0, 59, 0
2,65604, Control_c, 0, 64, 12
2,65619, Control_c, 0, 64, 48
2,65634, Control_c, 0, 64, 56
2,65649, Control_c, 0, 64, 58
2,65664, Control_c, 0, 64, 60
2,65679, Control_c, 0, 64, 61
2,65695, Control_c, 0, 64, 62
2,65710, Control_c, 0, 64, 63
2,65721, Note_on_c, 0, 47, 41
2,65726, Control_c, 0, 64, 64
2,65741, Control_c, 0, 64, 63
2,65741, Note_on_c, 0, 62, 52
2,65755, Control_c, 0, 64, 58
2,65771, Control_c, 0, 64, 43
2,65786, Control_c, 0, 64, 0
2,65821, Note_on_c, 0, 61, 0
2,65855, Note_on_c, 0, 57, 0
2,65863, Control_c, 0, 64, 39
2,65878, Control_c, 0, 64, 53
2,65894, Control_c, 0, 64, 59
2,65908, Control_c, 0, 64, 61
2,65924, Control_c, 0, 64, 62
2,65939, Control_c, 0, 64, 63
2,65954, Control_c, 0, 64, 64
2,65999, Control_c, 0, 64, 63
2,66046, Control_c, 0, 64, 63
2,66060, Control_c, 0, 64, 62
2,66073, Note_on_c, 0, 49, 43
2,66073, Note_on_c, 0, 61, 51
2,66075, Control_c, 0, 64, 61
2,66091, Control_c, 0, 64, 61
2,66091, Note_on_c, 0, 56, 30
2,66113, Control_c, 0, 64, 60
2,66129, Control_c, 0, 64, 59
2,66144, Control_c, 0, 64, 58
2,66159, Control_c, 0, 64, 55
2,66175, Control_c, 0, 64, 53
2,66190, Control_c, 0, 64, 50
2,66205, Control_c, 0, 64, 46
2,66220, Control_c, 0, 64, 38
2,66221, Note_on_c, 0, 62, 0
2,66230, Note_on_c, 0, 47, 0
2,66235, Control_c, 0, 64, 25
2,66250, Control_c, 0, 64, 0
2,66386, Note_on_c, 0, 54, 51
2,66449, Note_on_c, 0, 56, 0
2,66725, Note_on_c, 0, 65, 52
2,66734, Note_on_c, 0, 56, 31
2,66854, Note_on_c, 0, 54, 0
2,66864, Note_on_c, 0, 66, 0
2,67086, Note_on_c, 0, 59, 46
2,67170, Control_c, 0, 64, 34
2,67185, Control_c, 0, 64, 46
2,67185, Control_c, 0, 67, 9
2,67192, Note_on_c, 0, 49, 0
2,67200, Control_c, 0, 64, 55
2,67200, Control_c, 0, 67, 17
2,67216, Control_c, 0, 64, 61
2,67216, Control_c, 0, 67, 27
2,67228, Note_on_c, 0, 61, 0
2,67231, Control_c, 0, 64, 65
2,67231, Control_c, 0, 67, 38
2,67246, Control_c, 0, 64, 68
2,67246, Control_c, 0, 67, 48
2,67261, Control_c, 0, 64, 72
2,67261, Control_c, 0, 67, 55
2,67276, Control_c, 0, 64, 77
2,67276, Control_c, 0, 67, 64
2,67282, Note_on_c, 0, 56, 0
2,67291, Control_c, 0, 64, 82
2,67291, Control_c, 0, 67, 72
2,67291, Note_on_c, 0, 59, 0
2,67306, Control_c, 0, 64, 89
2,67306, Control_c, 0, 67, 81
2,67321, Control_c, 0, 64, 98
2,67321, Control_c, 0, 67, 90
2,67337, Control_c, 0, 64, 111
2,67337, Control_c, 0, 67, 100
2,67352, Control_c, 0, 64, 119
2,67352, Control_c, 0, 67, 109
2,67368, Control_c, 0, 64, 124
2,67368, Control_c, 0, 67, 116
2,67383, Control_c, 0, 67, 122
2,67398, Control_c, 0, 64, 127
2,67398, Control_c, 0, 67, 126
2,67413, Control_c, 0, 67, 127
2,67445, Control_c, 0, 64, 124
2,67460, Control_c, 0, 64, 116
2,67474, Control_c, 0, 64, 110
2,67490, Control_c, 0, 64, 107
2,67520, Control_c, 0, 64, 107
2,67535, Note_on_c, 0, 42, 42
2,67536, Control_c, 0, 64, 104
2,67551, Control_c, 0, 64, 99
2,67551, Note_on_c, 0, 54, 31
2,67551, Note_on_c, 0, 66, 50
2,67566, Control_c, 0, 64, 93
2,67569, Note_on_c, 0, 57, 38
2,67581, Control_c, 0, 64, 87
2,67596, Control_c, 0, 64, 83
2,67612, Control_c, 0, 64, 82
2,67627, Control_c, 0, 64, 81
2,67650, Control_c, 0, 64, 77
2,67665, Control_c, 0, 64, 71
2,67679, Control_c, 0, 64, 64
2,67695, Control_c, 0, 64, 43
2,67710, Control_c, 0, 64, 0
2,67736, Note_on_c, 0, 65, 0
2,67790, Note_on_c, 0, 42, 0
2,67801, Control_c, 0, 64, 45
2,67817, Control_c, 0, 64, 60
2,67832, Control_c, 0, 64, 65
2,67848, Control_c, 0, 64, 70
2,67848, Control_c, 0, 67, 127
2,67863, Control_c, 0, 64, 76
2,67863, Control_c, 0, 67, 126
2,67878, Control_c, 0, 64, 84
2,67893, Control_c, 0, 64, 94
2,67893, Control_c, 0, 67, 126
2,67908, Control_c, 0, 64, 108
2,67908, Control_c, 0, 67, 125
2,67918, Note_on_c, 0, 57, 0
2,67924, Control_c, 0, 64, 117
2,67924, Control_c, 0, 67, 124
2,67933, Note_on_c, 0, 54, 0
2,67938, Control_c, 0, 64, 120
2,67938, Control_c, 0, 67, 124
2,67953, Control_c, 0, 64, 120
2,67969, Control_c, 0, 67, 123
2,67976, Note_on_c, 0, 66, 0
2,67984, Control_c, 0, 64, 120
2,67999, Control_c, 0, 64, 117
2,67999, Control_c, 0, 67, 123
2,68014, Control_c, 0, 64, 115
2,68014, Control_c, 0, 67, 122
2,68045, Control_c, 0, 64, 112
2,68045, Control_c, 0, 67, 122
2,68059, Control_c, 0, 64, 108
2,68074, Control_c, 0, 64, 104
2,68090, Control_c, 0, 64, 101
2,68090, Control_c, 0, 67, 121
2,68105, Control_c, 0, 64, 99
2,68120, Control_c, 0, 64, 98
2,68135, Control_c, 0, 64, 95
2,68150, Control_c, 0, 64, 91
2,68157, Note_on_c, 0, 57, 41
2,68166, Control_c, 0, 64, 87
2,68181, Control_c, 0, 64, 84
2,68196, Control_c, 0, 64, 82
2,68211, Control_c, 0, 64, 80
2,68226, Control_c, 0, 64, 77
2,68241, Control_c, 0, 64, 71
2,68258, Control_c, 0, 64, 61
2,68273, Control_c, 0, 64, 30
2,68273, Control_c, 0, 67, 121
2,68289, Control_c, 0, 64, 0
2,68289, Control_c, 0, 67, 120
2,68304, Control_c, 0, 67, 119
2,68318, Control_c, 0, 67, 118
2,68334, Control_c, 0, 64, 46
2,68334, Control_c, 0, 67, 117
2,68349, Control_c, 0, 64, 60
2,68349, Control_c, 0, 67, 115
2,68365, Control_c, 0, 64, 66
2,68365, Control_c, 0, 67, 112
2,68379, Control_c, 0, 64, 71
2,68379, Control_c, 0, 67, 106
2,68394, Control_c, 0, 64, 74
2,68394, Control_c, 0, 67, 100
2,68418, Control_c, 0, 64, 76
2,68418, Control_c, 0, 67, 95
2,68422, Note_on_c, 0, 57, 0
2,68433, Control_c, 0, 64, 77
2,68433, Control_c, 0, 67, 91
2,68448, Control_c, 0, 64, 77
2,68448, Control_c, 0, 67, 88
2,68463, Control_c, 0, 64, 78
2,68463, Control_c, 0, 67, 86
2,68478, Control_c, 0, 67, 82
2,68494, Control_c, 0, 67, 77
2,68508, Control_c, 0, 64, 78
2,68508, Control_c, 0, 67, 72
2,68524, Control_c, 0, 67, 69
2,68539, Control_c, 0, 67, 66
2,68554, Control_c, 0, 64, 77
2,68554, Control_c, 0, 67, 63
2,68556, Note_on_c, 0, 57, 53
2,68570, Control_c, 0, 64, 74
2,68570, Control_c, 0, 67, 61
2,68584, Control_c, 0, 64, 66
2,68584, Control_c, 0, 67, 58
2,68599, Control_c, 0, 64, 56
2,68599, Control_c, 0, 67, 55
2,68615, Control_c, 0, 64, 47
2,68615, Control_c, 0, 67, 50
2,68630, Control_c, 0, 67, 43
2,68646, Control_c, 0, 64, 47
2,68646, Control_c, 0, 67, 34
2,68661, Control_c, 0, 64, 53
2,68661, Control_c, 0, 67, 27
2,68676, Control_c, 0, 64, 62
2,68676, Control_c, 0, 67, 19
2,68691, Control_c, 0, 64, 68
2,68691, Control_c, 0, 67, 12
2,68706, Control_c, 0, 64, 76
2,68706, Control_c, 0, 67, 0
2,68721, Control_c, 0, 64, 85
2,68737, Control_c, 0, 64, 91
2,68752, Control_c, 0, 64, 97
2,68754, Note_on_c, 0, 57, 0
2,68768, Control_c, 0, 64, 98
2,68783, Control_c, 0, 64, 97
2,68798, Control_c, 0, 64, 96
2,68814, Control_c, 0, 64, 94
2,68829, Control_c, 0, 64, 92
2,68845, Control_c, 0, 64, 89
2,68859, Control_c, 0, 64, 86
2,68874, Control_c, 0, 64, 85
2,68890, Control_c, 0, 64, 85
2,68904, Control_c, 0, 64, 84
2,68910, Note_on_c, 0, 57, 41
2,68918, Note_on_c, 0, 81, 63
2,68919, Control_c, 0, 64, 81
2,68935, Control_c, 0, 64, 77
2,68950, Control_c, 0, 64, 73
2,68966, Control_c, 0, 64, 67
2,68980, Control_c, 0, 64, 57
2,68995, Control_c, 0, 64, 10
2,69011, Control_c, 0, 64, 0
2,69056, Control_c, 0, 64, 13
2,69071, Control_c, 0, 64, 53
2,69088, Control_c, 0, 64, 62
2,69103, Control_c, 0, 64, 65
2,69116, Note_on_c, 0, 81, 0
2,69118, Control_c, 0, 64, 66
2,69201, Control_c, 0, 64, 65
2,69261, Note_on_c, 0, 50, 35
2,69265, Note_on_c, 0, 81, 58
2,69278, Control_c, 0, 64, 65
2,69293, Control_c, 0, 64, 64
2,69308, Control_c, 0, 64, 61
2,69324, Control_c, 0, 64, 53
2,69338, Control_c, 0, 64, 39
2,69353, Control_c, 0, 64, 12
2,69369, Control_c, 0, 64, 0
2,69399, Control_c, 0, 64, 33
2,69400, Note_on_c, 0, 57, 0
2,69414, Control_c, 0, 64, 57
2,69429, Control_c, 0, 64, 64
2,69445, Control_c, 0, 64, 67
2,69460, Control_c, 0, 64, 70
2,69472, Note_on_c, 0, 81, 0
2,69475, Control_c, 0, 64, 72
2,69505, Control_c, 0, 64, 72
2,69520, Control_c, 0, 64, 71
2,69550, Control_c, 0, 64, 71
2,69581, Control_c, 0, 64, 70
2,69596, Control_c, 0, 64, 70
2,69597, Note_on_c, 0, 81, 62
2,69612, Control_c, 0, 64, 68
2,69612, Note_on_c, 0, 69, 44
2,69627, Control_c, 0, 64, 63
2,69642, Control_c, 0, 64, 52
2,69657, Control_c, 0, 64, 32
2,69672, Control_c, 0, 64, 0
2,69734, Control_c, 0, 64, 48
2,69748, Control_c, 0, 64, 60
2,69764, Control_c, 0, 64, 64
2,69768, Note_on_c, 0, 69, 0
2,69779, Control_c, 0, 64, 65
2,69794, Control_c, 0, 64, 66
2,69839, Control_c, 0, 64, 66
2,69855, Control_c, 0, 64, 66
2,69870, Control_c, 0, 64, 65
2,69902, Control_c, 0, 64, 65
2,69917, Control_c, 0, 64, 64
2,69925, Note_on_c, 0, 54, 39
2,69932, Control_c, 0, 64, 64
2,69943, Note_on_c, 0, 74, 51
2,69954, Control_c, 0, 64, 63
2,69958, Note_on_c, 0, 69, 34
2,69984, Control_c, 0, 64, 62
2,69999, Control_c, 0, 64, 57
2,70015, Control_c, 0, 64, 42
2,70030, Control_c, 0, 64, 0
2,70055, Note_on_c, 0, 50, 0
2,70106, Note_on_c, 0, 69, 0
2,70107, Control_c, 0, 64, 46
2,70122, Control_c, 0, 64, 57
2,70137, Control_c, 0, 64, 59
2,70141, Note_on_c, 0, 81, 0
2,70152, Control_c, 0, 64, 60
2,70168, Control_c, 0, 64, 61
2,70182, Control_c, 0, 64, 63
2,70197, Control_c, 0, 64, 64
2,70213, Control_c, 0, 64, 65
2,70228, Control_c, 0, 64, 66
2,70244, Control_c, 0, 64, 65
2,70258, Control_c, 0, 64, 59
2,70266, Note_on_c, 0, 69, 46
2,70272, Control_c, 0, 64, 46
2,70288, Control_c, 0, 64, 36
2,70318, Control_c, 0, 64, 42
2,70333, Control_c, 0, 64, 53
2,70348, Control_c, 0, 64, 59
2,70364, Control_c, 0, 64, 65
2,70379, Control_c, 0, 64, 69
2,70394, Control_c, 0, 64, 75
2,70410, Control_c, 0, 64, 81
2,70424, Note_on_c, 0, 69, 0
2,70425, Control_c, 0, 64, 86
2,70440, Control_c, 0, 64, 91
2,70455, Control_c, 0, 64, 93
2,70486, Control_c, 0, 64, 92
2,70501, Control_c, 0, 64, 91
2,70515, Control_c, 0, 64, 90
2,70531, Control_c, 0, 64, 89
2,70546, Control_c, 0, 64, 87
2,70561, Control_c, 0, 64, 85
2,70579, Control_c, 0, 64, 82
2,70616, Note_on_c, 0, 62, 28
2,70640, Control_c, 0, 64, 81
2,70655, Control_c, 0, 64, 78
2,70659, Note_on_c, 0, 78, 54
2,70669, Control_c, 0, 64, 69
2,70685, Control_c, 0, 64, 58
2,70700, Control_c, 0, 64, 48
2,70705, Note_on_c, 0, 54, 0
2,70739, Control_c, 0, 64, 53
2,70754, Control_c, 0, 64, 59
2,70770, Control_c, 0, 64, 64
2,70784, Control_c, 0, 64, 69
2,70800, Control_c, 0, 64, 75
2,70815, Control_c, 0, 64, 81
2,70830, Control_c, 0, 64, 85
2,70833, Note_on_c, 0, 74, 0
2,70846, Control_c, 0, 64, 88
2,70860, Note_on_c, 0, 62, 0
2,70861, Control_c, 0, 64, 89
2,70922, Control_c, 0, 64, 88
2,70937, Control_c, 0, 64, 88
2,70952, Control_c, 0, 64, 87
2,70968, Control_c, 0, 64, 86
2,70982, Control_c, 0, 64, 84
2,70998, Control_c, 0, 64, 82
2,71013, Control_c, 0, 64, 80
2,71027, Control_c, 0, 64, 77
2,71043, Control_c, 0, 64, 76
2,71058, Control_c, 0, 64, 74
2,71066, Note_on_c, 0, 47, 48
2,71073, Control_c, 0, 64, 73
2,71079, Note_on_c, 0, 50, 39
2,71089, Control_c, 0, 64, 72
2,71103, Control_c, 0, 64, 71
2,71119, Control_c, 0, 64, 70
2,71134, Control_c, 0, 64, 69
2,71149, Control_c, 0, 64, 67
2,71164, Control_c, 0, 64, 66
2,71179, Control_c, 0, 64, 64
2,71194, Control_c, 0, 64, 61
2,71210, Control_c, 0, 64, 58
2,71225, Control_c, 0, 64, 54
2,71241, Control_c, 0, 64, 49
2,71255, Control_c, 0, 64, 43
2,71270, Control_c, 0, 64, 35
2,71286, Control_c, 0, 64, 26
2,71301, Control_c, 0, 64, 8
2,71317, Control_c, 0, 64, 0
2,71406, Note_on_c, 0, 55, 39
2,71407, Note_on_c, 0, 52, 40
2,71472, Note_on_c, 0, 47, 0
2,71498, Note_on_c, 0, 50, 0
2,71628, Control_c, 0, 64, 19
2,71644, Control_c, 0, 64, 26
2,71659, Control_c, 0, 64, 32
2,71669, Note_on_c, 0, 55, 0
2,71674, Control_c, 0, 64, 38
2,71690, Control_c, 0, 64, 44
2,71699, Note_on_c, 0, 54, 30
2,71705, Control_c, 0, 64, 50
2,71705, Note_on_c, 0, 71, 51
2,71714, Note_on_c, 0, 50, 29
2,71721, Control_c, 0, 64, 54
2,71735, Control_c, 0, 64, 59
2,71750, Control_c, 0, 64, 62
2,71766, Control_c, 0, 64, 64
2,71770, Note_on_c, 0, 52, 0
2,71781, Control_c, 0, 64, 67
2,71782, Note_on_c, 0, 78, 0
2,71795, Control_c, 0, 64, 70
2,71812, Control_c, 0, 64, 73
2,71827, Control_c, 0, 64, 76
2,71830, Note_on_c, 0, 54, 0
2,71843, Control_c, 0, 64, 79
2,71858, Control_c, 0, 64, 82
2,71869, Note_on_c, 0, 50, 0
2,71872, Control_c, 0, 64, 83
2,71888, Control_c, 0, 64, 84
2,71919, Control_c, 0, 64, 83
2,71934, Control_c, 0, 64, 83
2,71948, Control_c, 0, 64, 82
2,71964, Control_c, 0, 64, 82
2,71979, Control_c, 0, 64, 81
2,71994, Control_c, 0, 64, 80
2,72009, Control_c, 0, 64, 79
2,72024, Control_c, 0, 64, 78
2,72027, Note_on_c, 0, 76, 52
2,72037, Note_on_c, 0, 49, 35
2,72039, Note_on_c, 0, 52, 41
2,72040, Control_c, 0, 64, 76
2,72055, Control_c, 0, 64, 74
2,72070, Control_c, 0, 64, 73
2,72085, Control_c, 0, 64, 70
2,72100, Control_c, 0, 64, 67
2,72108, Note_on_c, 0, 71, 0
2,72115, Control_c, 0, 64, 64
2,72131, Control_c, 0, 64, 63
2,72146, Control_c, 0, 64, 61
2,72161, Control_c, 0, 64, 61
2,72176, Control_c, 0, 64, 59
2,72191, Control_c, 0, 64, 58
2,72207, Control_c, 0, 64, 57
2,72221, Control_c, 0, 64, 56
2,72237, Control_c, 0, 64, 55
2,72260, Control_c, 0, 64, 55
2,72275, Control_c, 0, 64, 54
2,72290, Control_c, 0, 64, 53
2,72305, Control_c, 0, 64, 51
2,72320, Note_on_c, 0, 47, 42
2,72321, Control_c, 0, 64, 50
2,72335, Note_on_c, 0, 64, 52
2,72335, Note_on_c, 0, 74, 58
2,72336, Control_c, 0, 64, 48
2,72344, Note_on_c, 0, 76, 0
2,72351, Control_c, 0, 64, 44
2,72368, Control_c, 0, 64, 38
2,72383, Control_c, 0, 64, 31
2,72393, Note_on_c, 0, 49, 0
2,72398, Control_c, 0, 64, 28
2,72413, Control_c, 0, 64, 27
2,72458, Control_c, 0, 64, 29
2,72473, Control_c, 0, 64, 35
2,72487, Note_on_c, 0, 52, 0
2,72489, Control_c, 0, 64, 37
2,72504, Control_c, 0, 64, 38
2,72549, Control_c, 0, 64, 38
2,72644, Note_on_c, 0, 45, 38
2,72660, Note_on_c, 0, 73, 60
2,72672, Note_on_c, 0, 69, 44
2,72713, Note_on_c, 0, 47, 0
2,72717, Control_c, 0, 64, 39
2,72732, Control_c, 0, 64, 42
2,72747, Control_c, 0, 64, 47
2,72747, Note_on_c, 0, 64, 0
2,72753, Note_on_c, 0, 74, 0
2,72763, Control_c, 0, 64, 54
2,72778, Control_c, 0, 64, 61
2,72792, Control_c, 0, 64, 64
2,72808, Control_c, 0, 64, 67
2,72823, Control_c, 0, 64, 71
2,72839, Control_c, 0, 64, 74
2,72853, Control_c, 0, 64, 76
2,72868, Control_c, 0, 64, 78
2,72884, Control_c, 0, 64, 79
2,72899, Control_c, 0, 64, 79
2,72912, Note_on_c, 0, 45, 0
2,72944, Control_c, 0, 64, 79
2,72960, Control_c, 0, 64, 78
2,72971, Note_on_c, 0, 57, 58
2,72974, Control_c, 0, 64, 78
2,72989, Control_c, 0, 64, 77
2,72991, Note_on_c, 0, 67, 47
2,73005, Control_c, 0, 64, 76
2,73032, Note_on_c, 0, 69, 0
2,73044, Control_c, 0, 64, 76
2,73058, Control_c, 0, 64, 75
2,73073, Control_c, 0, 64, 74
2,73089, Control_c, 0, 64, 73
2,73104, Control_c, 0, 64, 71
2,73120, Control_c, 0, 64, 71
2,73134, Control_c, 0, 64, 70
2,73149, Control_c, 0, 64, 69
2,73165, Control_c, 0, 64, 68
2,73181, Control_c, 0, 64, 66
2,73197, Control_c, 0, 64, 65
2,73212, Control_c, 0, 64, 64
2,73242, Control_c, 0, 64, 64
2,73257, Control_c, 0, 64, 63
2,73287, Control_c, 0, 64, 62
2,73304, Note_on_c, 0, 62, 52
2,73318, Control_c, 0, 64, 62
2,73335, Note_on_c, 0, 66, 43
2,73348, Control_c, 0, 64, 61
2,73363, Control_c, 0, 64, 61
2,73393, Control_c, 0, 64, 60
2,73409, Control_c, 0, 64, 59
2,73423, Control_c, 0, 64, 57
2,73435, Note_on_c, 0, 57, 0
2,73439, Control_c, 0, 64, 53
2,73445, Note_on_c, 0, 67, 0
2,73454, Control_c, 0, 64, 49
2,73469, Control_c, 0, 64, 47
2,73469, Note_on_c, 0, 73, 0
2,73485, Control_c, 0, 64, 46
2,73499, Control_c, 0, 64, 45
2,73514, Control_c, 0, 64, 45
2,73650, Note_on_c, 0, 60, 48
2,73672, Note_on_c, 0, 69, 55
2,73683, Control_c, 0, 64, 44
2,73712, Control_c, 0, 64, 44
2,73773, Control_c, 0, 64, 44
2,73784, Note_on_c, 0, 62, 0
2,73788, Control_c, 0, 64, 48
2,73811, Control_c, 0, 64, 51
2,73816, Note_on_c, 0, 66, 0
2,73826, Control_c, 0, 64, 53
2,73842, Control_c, 0, 64, 54
2,73857, Control_c, 0, 64, 55
2,73872, Control_c, 0, 64, 55
2,73888, Control_c, 0, 64, 56
2,73902, Control_c, 0, 64, 57
2,73933, Control_c, 0, 64, 57
2,73964, Control_c, 0, 64, 58
2,73977, Note_on_c, 0, 59, 47
2,73981, Note_on_c, 0, 74, 59
2,73993, Control_c, 0, 64, 54
2,74010, Control_c, 0, 64, 45
2,74025, Control_c, 0, 64, 33
2,74041, Control_c, 0, 64, 12
2,74055, Control_c, 0, 64, 0
2,74070, Control_c, 0, 64, 16
2,74079, Note_on_c, 0, 69, 0
2,74086, Control_c, 0, 64, 42
2,74093, Note_on_c, 0, 60, 0
2,74101, Control_c, 0, 64, 55
2,74115, Control_c, 0, 64, 61
2,74130, Control_c, 0, 64, 63
2,74145, Control_c, 0, 64, 64
2,74161, Control_c, 0, 64, 65
2,74176, Control_c, 0, 64, 66
2,74191, Control_c, 0, 64, 68
2,74206, Control_c, 0, 64, 69
2,74237, Control_c, 0, 64, 68
2,74252, Control_c, 0, 64, 64
2,74267, Control_c, 0, 64, 56
2,74283, Control_c, 0, 64, 46
2,74289, Note_on_c, 0, 72, 62
2,74294, Note_on_c, 0, 62, 42
2,74297, Control_c, 0, 64, 39
2,74308, Note_on_c, 0, 74, 0
2,74312, Control_c, 0, 64, 30
2,74328, Control_c, 0, 64, 28
2,74343, Control_c, 0, 64, 31
2,74359, Control_c, 0, 64, 50
2,74374, Control_c, 0, 64, 60
2,74389, Control_c, 0, 64, 64
2,74405, Control_c, 0, 64, 67
2,74419, Control_c, 0, 64, 71
2,74434, Control_c, 0, 64, 73
2,74450, Control_c, 0, 64, 74
2,74464, Control_c, 0, 64, 75
2,74480, Control_c, 0, 64, 76
2,74495, Control_c, 0, 64, 76
2,74510, Control_c, 0, 64, 77
2,74526, Control_c, 0, 64, 79
2,74540, Control_c, 0, 64, 79
2,74555, Control_c, 0, 64, 78
2,74579, Control_c, 0, 64, 72
2,74594, Control_c, 0, 64, 64
2,74612, Control_c, 0, 64, 56
2,74612, Note_on_c, 0, 67, 51
2,74617, Note_on_c, 0, 71, 56
2,74642, Control_c, 0, 64, 59
2,74657, Control_c, 0, 64, 63
2,74672, Control_c, 0, 64, 67
2,74687, Control_c, 0, 64, 71
2,74691, Note_on_c, 0, 62, 0
2,74702, Control_c, 0, 64, 77
2,74718, Control_c, 0, 64, 81
2,74724, Note_on_c, 0, 72, 0
2,74733, Control_c, 0, 64, 84
2,74747, Control_c, 0, 64, 85
2,74786, Note_on_c, 0, 59, 0
2,74808, Control_c, 0, 64, 85
2,74825, Control_c, 0, 64, 83
2,74841, Control_c, 0, 64, 81
2,74855, Control_c, 0, 64, 79
2,74871, Control_c, 0, 64, 79
2,74915, Note_on_c, 0, 47, 56
2,74925, Note_on_c, 0, 66, 48
2,74938, Note_on_c, 0, 57, 43
2,74962, Control_c, 0, 64, 78
2,74976, Control_c, 0, 64, 74
2,74992, Control_c, 0, 64, 64
2,75007, Control_c, 0, 64, 43
2,75022, Control_c, 0, 64, 8
2,75038, Control_c, 0, 64, 0
2,75052, Control_c, 0, 64, 21
2,75067, Control_c, 0, 64, 46
2,75070, Note_on_c, 0, 67, 0
2,75083, Control_c, 0, 64, 58
2,75097, Control_c, 0, 64, 64
2,75103, Note_on_c, 0, 57, 0
2,75113, Control_c, 0, 64, 67
2,75128, Control_c, 0, 64, 69
2,75143, Control_c, 0, 64, 70
2,75205, Control_c, 0, 64, 70
2,75220, Control_c, 0, 64, 72
2,75230, Note_on_c, 0, 52, 58
2,75236, Control_c, 0, 64, 73
2,75242, Note_on_c, 0, 55, 52
2,75250, Control_c, 0, 64, 74
2,75251, Note_on_c, 0, 64, 49
2,75265, Control_c, 0, 64, 71
2,75281, Control_c, 0, 64, 64
2,75296, Control_c, 0, 64, 43
2,75311, Control_c, 0, 64, 27
2,75326, Control_c, 0, 64, 23
2,75353, Note_on_c, 0, 66, 0
2,75364, Control_c, 0, 64, 35
2,75379, Control_c, 0, 64, 53
2,75395, Control_c, 0, 64, 60
2,75406, Note_on_c, 0, 47, 0
2,75410, Control_c, 0, 64, 63
2,75411, Note_on_c, 0, 71, 0
2,75516, Control_c, 0, 64, 62
2,75544, Note_on_c, 0, 50, 54
2,75552, Note_on_c, 0, 71, 60
2,75562, Control_c, 0, 64, 62
2,75577, Control_c, 0, 64, 61
2,75592, Control_c, 0, 64, 60
2,75607, Control_c, 0, 64, 56
2,75622, Control_c, 0, 64, 49
2,75639, Control_c, 0, 64, 42
2,75654, Control_c, 0, 64, 39
2,75682, Note_on_c, 0, 52, 0
2,75685, Control_c, 0, 64, 41
2,75700, Control_c, 0, 64, 46
2,75716, Control_c, 0, 64, 48
2,75731, Control_c, 0, 64, 48
2,75859, Note_on_c, 0, 48, 45
2,75882, Note_on_c, 0, 76, 62
2,75897, Control_c, 0, 64, 47
2,75913, Control_c, 0, 64, 43
2,75928, Control_c, 0, 64, 33
2,75942, Control_c, 0, 64, 12
2,75958, Control_c, 0, 64, 0
2,75960, Note_on_c, 0, 50, 0
2,76004, Control_c, 0, 64, 39
2,76006, Note_on_c, 0, 71, 0
2,76015, Note_on_c, 0, 64, 0
2,76018, Control_c, 0, 64, 54
2,76034, Control_c, 0, 64, 61
2,76049, Control_c, 0, 64, 63
2,76064, Control_c, 0, 64, 64
2,76079, Control_c, 0, 64, 65
2,76102, Control_c, 0, 64, 66
2,76118, Control_c, 0, 64, 67
2,76133, Control_c, 0, 64, 68
2,76148, Control_c, 0, 64, 69
2,76163, Control_c, 0, 64, 70
2,76178, Control_c, 0, 64, 71
2,76194, Control_c, 0, 64, 71
2,76198, Note_on_c, 0, 74, 68
2,76201, Note_on_c, 0, 47, 48
2,76208, Note_on_c, 0, 52, 50
2,76209, Control_c, 0, 64, 68
2,76214, Note_on_c, 0, 48, 0
2,76224, Control_c, 0, 64, 61
2,76239, Control_c, 0, 64, 50
2,76242, Note_on_c, 0, 76, 0
2,76254, Control_c, 0, 64, 48
2,76270, Control_c, 0, 64, 49
2,76284, Control_c, 0, 64, 57
2,76288, Note_on_c, 0, 55, 0
2,76299, Control_c, 0, 64, 63
2,76315, Control_c, 0, 64, 66
2,76329, Note_on_c, 0, 47, 0
2,76330, Control_c, 0, 64, 69
2,76345, Control_c, 0, 64, 72
2,76361, Control_c, 0, 64, 74
2,76391, Control_c, 0, 64, 73
2,76406, Control_c, 0, 64, 73
2,76430, Note_on_c, 0, 47, 11
2,76437, Control_c, 0, 64, 72
2,76452, Control_c, 0, 64, 71
2,76467, Control_c, 0, 64, 70
2,76483, Control_c, 0, 64, 70
2,76514, Control_c, 0, 64, 70
2,76514, Note_on_c, 0, 45, 52
2,76526, Note_on_c, 0, 57, 45
2,76530, Note_on_c, 0, 72, 66
2,76543, Control_c, 0, 64, 69
2,76559, Control_c, 0, 64, 63
2,76574, Control_c, 0, 64, 47
2,76590, Control_c, 0, 64, 15
2,76605, Control_c, 0, 64, 0
2,76621, Note_on_c, 0, 52, 0
2,76633, Note_on_c, 0, 74, 0
2,76636, Control_c, 0, 64, 8
2,76636, Note_on_c, 0, 47, 0
2,76651, Control_c, 0, 64, 46
2,76665, Control_c, 0, 64, 60
2,76681, Control_c, 0, 64, 64
2,76696, Control_c, 0, 64, 67
2,76702, Note_on_c, 0, 57, 0
2,76711, Control_c, 0, 64, 68
2,76833, Note_on_c, 0, 55, 57
2,76841, Note_on_c, 0, 64, 65
2,76848, Control_c, 0, 64, 67
2,76871, Control_c, 0, 64, 65
2,76886, Control_c, 0, 64, 57
2,76901, Control_c, 0, 64, 39
2,76917, Control_c, 0, 64, 19
2,76931, Control_c, 0, 64, 12
2,76946, Control_c, 0, 64, 18
2,76962, Control_c, 0, 64, 42
2,76977, Control_c, 0, 64, 54
2,76993, Control_c, 0, 64, 61
2,77007, Control_c, 0, 64, 63
2,77098, Control_c, 0, 64, 62
2,77114, Control_c, 0, 64, 61
2,77148, Note_on_c, 0, 54, 45
2,77161, Note_on_c, 0, 69, 55
2,77174, Control_c, 0, 64, 60
2,77188, Control_c, 0, 64, 50
2,77203, Control_c, 0, 64, 28
2,77218, Control_c, 0, 64, 0
2,77237, Note_on_c, 0, 55, 0
2,77262, Note_on_c, 0, 64, 0
2,77296, Control_c, 0, 64, 55
2,77311, Control_c, 0, 64, 62
2,77326, Control_c, 0, 64, 65
2,77341, Control_c, 0, 64, 66
2,77356, Control_c, 0, 64, 68
2,77371, Control_c, 0, 64, 69
2,77386, Control_c, 0, 64, 70
2,77402, Control_c, 0, 64, 71
2,77445, Note_on_c, 0, 67, 58
2,77447, Control_c, 0, 64, 70
2,77456, Note_on_c, 0, 52, 58
2,77462, Control_c, 0, 64, 65
2,77478, Control_c, 0, 64, 54
2,77493, Control_c, 0, 64, 43
2,77507, Control_c, 0, 64, 44
2,77516, Note_on_c, 0, 54, 0
2,77523, Control_c, 0, 64, 53
2,77534, Note_on_c, 0, 45, 0
2,77538, Control_c, 0, 64, 60
2,77554, Control_c, 0, 64, 64
2,77568, Control_c, 0, 64, 67
2,77583, Control_c, 0, 64, 71
2,77599, Control_c, 0, 64, 72
2,77614, Control_c, 0, 64, 72
2,77618, Note_on_c, 0, 69, 0
2,77652, Control_c, 0, 64, 71
2,77698, Control_c, 0, 64, 71
2,77713, Control_c, 0, 64, 70
2,77728, Control_c, 0, 64, 70
2,77748, Note_on_c, 0, 50, 45
2,77752, Note_on_c, 0, 47, 41
2,77765, Note_on_c, 0, 66, 58
2,77788, Control_c, 0, 64, 68
2,77804, Control_c, 0, 64, 64
2,77819, Control_c, 0, 64, 53
2,77819, Note_on_c, 0, 52, 0
2,77835, Control_c, 0, 64, 39
2,77849, Control_c, 0, 64, 35
2,77877, Note_on_c, 0, 67, 0
2,77880, Control_c, 0, 64, 36
2,77895, Control_c, 0, 64, 43
2,77911, Control_c, 0, 64, 47
2,77957, Control_c, 0, 64, 46
2,77971, Control_c, 0, 64, 43
2,77986, Control_c, 0, 64, 40
2,78002, Control_c, 0, 64, 37
2,78017, Control_c, 0, 64, 35
2,78033, Control_c, 0, 64, 32
2,78047, Control_c, 0, 64, 31
2,78072, Note_on_c, 0, 54, 45
2,78076, Note_on_c, 0, 62, 58
2,78094, Control_c, 0, 64, 32
2,78110, Control_c, 0, 64, 33
2,78125, Control_c, 0, 64, 38
2,78139, Control_c, 0, 64, 42
2,78139, Note_on_c, 0, 50, 0
2,78155, Control_c, 0, 64, 46
2,78158, Note_on_c, 0, 72, 0
2,78170, Control_c, 0, 64, 52
2,78183, Note_on_c, 0, 66, 0
2,78185, Control_c, 0, 64, 58
2,78200, Control_c, 0, 64, 62
2,78215, Control_c, 0, 64, 65
2,78231, Control_c, 0, 64, 68
2,78246, Control_c, 0, 64, 72
2,78261, Control_c, 0, 64, 76
2,78276, Control_c, 0, 64, 79
2,78291, Control_c, 0, 64, 80
2,78306, Control_c, 0, 64, 81
2,78322, Control_c, 0, 64, 81
2,78367, Control_c, 0, 64, 81
2,78382, Control_c, 0, 64, 80
2,78414, Note_on_c, 0, 59, 46
2,78436, Control_c, 0, 64, 80
2,78451, Control_c, 0, 64, 79
2,78468, Note_on_c, 0, 71, 57
2,78481, Control_c, 0, 64, 79
2,78488, Note_on_c, 0, 67, 49
2,78512, Control_c, 0, 64, 77
2,78527, Control_c, 0, 64, 71
2,78541, Control_c, 0, 64, 63
2,78542, Note_on_c, 0, 54, 0
2,78557, Control_c, 0, 64, 43
2,78572, Control_c, 0, 64, 40
2,78587, Control_c, 0, 64, 43
2,78596, Note_on_c, 0, 62, 0
2,78603, Control_c, 0, 64, 54
2,78617, Control_c, 0, 64, 62
2,78633, Control_c, 0, 64, 67
2,78636, Note_on_c, 0, 59, 0
2,78648, Control_c, 0, 64, 73
2,78663, Control_c, 0, 64, 83
2,78679, Control_c, 0, 64, 89
2,78693, Control_c, 0, 64, 92
2,78708, Control_c, 0, 64, 91
2,78725, Control_c, 0, 64, 88
2,78739, Control_c, 0, 64, 87
2,78801, Control_c, 0, 64, 86
2,78815, Control_c, 0, 64, 84
2,78816, Note_on_c, 0, 57, 53
2,78826, Note_on_c, 0, 66, 52
2,78828, Note_on_c, 0, 50, 52
2,78831, Control_c, 0, 64, 82
2,78846, Control_c, 0, 64, 81
2,78892, Control_c, 0, 64, 78
2,78907, Control_c, 0, 64, 73
2,78923, Control_c, 0, 64, 68
2,78938, Control_c, 0, 64, 65
2,78954, Control_c, 0, 64, 63
2,78954, Note_on_c, 0, 47, 0
2,78971, Note_on_c, 0, 67, 0
2,78983, Control_c, 0, 64, 62
2,78999, Control_c, 0, 64, 61
2,79014, Control_c, 0, 64, 59
2,79030, Control_c, 0, 64, 57
2,79045, Control_c, 0, 64, 56
2,79060, Control_c, 0, 64, 55
2,79076, Control_c, 0, 64, 54
2,79091, Control_c, 0, 64, 52
2,79105, Control_c, 0, 64, 50
2,79121, Control_c, 0, 64, 48
2,79129, Note_on_c, 0, 55, 61
2,79136, Control_c, 0, 64, 46
2,79136, Note_on_c, 0, 64, 51
2,79152, Control_c, 0, 64, 43
2,79167, Control_c, 0, 64, 40
2,79188, Control_c, 0, 64, 38
2,79219, Control_c, 0, 64, 39
2,79235, Control_c, 0, 64, 47
2,79237, Note_on_c, 0, 57, 0
2,79248, Note_on_c, 0, 66, 0
2,79250, Control_c, 0, 64, 51
2,79263, Note_on_c, 0, 50, 0
2,79295, Control_c, 0, 64, 52
2,79311, Control_c, 0, 64, 55
2,79326, Control_c, 0, 64, 58
2,79372, Control_c, 0, 64, 57
2,79386, Control_c, 0, 64, 56
2,79421, Note_on_c, 0, 62, 48
2,79426, Note_on_c, 0, 54, 52
2,79448, Control_c, 0, 64, 58
2,79462, Control_c, 0, 64, 61
2,79478, Control_c, 0, 64, 64
2,79493, Control_c, 0, 64, 66
2,79508, Control_c, 0, 64, 70
2,79524, Control_c, 0, 64, 72
2,79538, Control_c, 0, 64, 72
2,79564, Note_on_c, 0, 62, 0
2,79583, Control_c, 0, 64, 72
2,79614, Control_c, 0, 64, 71
2,79645, Control_c, 0, 64, 71
2,79659, Control_c, 0, 64, 70
2,79675, Control_c, 0, 64, 68
2,79690, Control_c, 0, 64, 67
2,79705, Control_c, 0, 64, 66
2,79721, Control_c, 0, 64, 65
2,79727, Note_on_c, 0, 52, 50
2,79735, Note_on_c, 0, 60, 60
2,79737, Control_c, 0, 64, 63
2,79753, Control_c, 0, 64, 61
2,79767, Control_c, 0, 64, 60
2,79782, Control_c, 0, 64, 58
2,79784, Note_on_c, 0, 54, 0
2,79788, Note_on_c, 0, 64, 0
2,79798, Control_c, 0, 64, 56
2,79812, Control_c, 0, 64, 54
2,79827, Control_c, 0, 64, 51
2,79843, Control_c, 0, 64, 49
2,79858, Control_c, 0, 64, 47
2,79874, Control_c, 0, 64, 47
2,79889, Control_c, 0, 64, 46
2,79903, Control_c, 0, 64, 43
2,79919, Control_c, 0, 64, 39
2,79942, Control_c, 0, 64, 35
2,79958, Control_c, 0, 64, 34
2,79972, Control_c, 0, 64, 33
2,79987, Control_c, 0, 64, 33
2,80003, Control_c, 0, 64, 31
2,80017, Control_c, 0, 64, 28
2,80033, Control_c, 0, 64, 22
2,80042, Note_on_c, 0, 54, 44
2,80045, Note_on_c, 0, 57, 30
2,80048, Control_c, 0, 64, 18
2,80048, Note_on_c, 0, 69, 61
2,80063, Control_c, 0, 64, 12
2,80079, Control_c, 0, 64, 0
2,80097, Note_on_c, 0, 55, 0
2,80152, Note_on_c, 0, 60, 0
2,80156, Note_on_c, 0, 71, 0
2,80179, Note_on_c, 0, 52, 0
2,80343, Note_on_c, 0, 55, 37
2,80355, Note_on_c, 0, 59, 57
2,80410, Note_on_c, 0, 57, 0
2,80451, Note_on_c, 0, 54, 0
2,80642, Control_c, 0, 64, 34
2,80652, Note_on_c, 0, 52, 36
2,80653, Note_on_c, 0, 67, 56
2,80656, Control_c, 0, 64, 47
2,80672, Control_c, 0, 64, 53
2,80673, Note_on_c, 0, 64, 47
2,80687, Control_c, 0, 64, 58
2,80711, Control_c, 0, 64, 62
2,80722, Note_on_c, 0, 55, 0
2,80726, Control_c, 0, 64, 66
2,80736, Note_on_c, 0, 69, 0
2,80740, Control_c, 0, 64, 69
2,80756, Control_c, 0, 64, 72
2,80768, Note_on_c, 0, 59, 0
2,80771, Control_c, 0, 64, 75
2,80784, Note_on_c, 0, 52, 0
2,80785, Control_c, 0, 64, 76
2,80801, Control_c, 0, 64, 77
2,80847, Control_c, 0, 64, 76
2,80861, Control_c, 0, 64, 75
2,80877, Control_c, 0, 64, 74
2,80892, Control_c, 0, 64, 74
2,80907, Control_c, 0, 64, 73
2,80923, Control_c, 0, 64, 72
2,80937, Control_c, 0, 64, 70
2,80953, Control_c, 0, 64, 68
2,80968, Control_c, 0, 64, 66
2,80968, Note_on_c, 0, 48, 42
2,80969, Note_on_c, 0, 57, 48
2,80983, Control_c, 0, 64, 65
2,80999, Control_c, 0, 64, 64
2,81014, Control_c, 0, 64, 63
2,81028, Control_c, 0, 64, 61
2,81044, Control_c, 0, 64, 60
2,81054, Note_on_c, 0, 64, 0
2,81059, Control_c, 0, 64, 58
2,81074, Control_c, 0, 64, 56
2,81089, Control_c, 0, 64, 53
2,81104, Control_c, 0, 64, 51
2,81120, Control_c, 0, 64, 49
2,81135, Control_c, 0, 64, 48
2,81150, Control_c, 0, 64, 47
2,81165, Control_c, 0, 64, 47
2,81180, Control_c, 0, 64, 45
2,81195, Control_c, 0, 64, 43
2,81210, Control_c, 0, 64, 41
2,81225, Control_c, 0, 64, 39
2,81241, Control_c, 0, 64, 38
2,81252, Note_on_c, 0, 45, 38
2,81256, Control_c, 0, 64, 37
2,81271, Control_c, 0, 64, 37
2,81282, Note_on_c, 0, 66, 48
2,81286, Control_c, 0, 64, 35
2,81301, Control_c, 0, 64, 33
2,81316, Note_on_c, 0, 67, 0
2,81317, Control_c, 0, 64, 32
2,81332, Control_c, 0, 64, 31
2,81346, Control_c, 0, 64, 30
2,81346, Note_on_c, 0, 48, 0
2,81362, Control_c, 0, 64, 30
2,81378, Control_c, 0, 64, 29
2,81394, Control_c, 0, 64, 27
2,81409, Control_c, 0, 64, 26
2,81411, Note_on_c, 0, 64, 55
2,81423, Control_c, 0, 64, 24
2,81426, Note_on_c, 0, 66, 0
2,81439, Control_c, 0, 64, 21
2,81454, Control_c, 0, 64, 10
2,81478, Control_c, 0, 64, 0
2,81576, Note_on_c, 0, 66, 52
2,81578, Note_on_c, 0, 50, 38
2,81586, Note_on_c, 0, 62, 40
2,81622, Note_on_c, 0, 64, 0
2,81683, Note_on_c, 0, 45, 0
2,81765, Note_on_c, 0, 57, 0
2,81888, Note_on_c, 0, 48, 43
2,81944, Note_on_c, 0, 50, 0
2,82112, Control_c, 0, 64, 8
2,82128, Control_c, 0, 64, 36
2,82143, Control_c, 0, 64, 42
2,82159, Control_c, 0, 64, 44
2,82201, Note_on_c, 0, 47, 41
2,82220, Control_c, 0, 64, 43
2,82226, Note_on_c, 0, 67, 36
2,82230, Note_on_c, 0, 55, 35
2,82244, Control_c, 0, 64, 38
2,82259, Control_c, 0, 64, 12
2,82273, Control_c, 0, 64, 0
2,82294, Note_on_c, 0, 62, 0
2,82303, Note_on_c, 0, 48, 0
2,82357, Note_on_c, 0, 66, 0
2,82365, Control_c, 0, 64, 48
2,82380, Control_c, 0, 64, 54
2,82411, Control_c, 0, 64, 54
2,82441, Control_c, 0, 64, 55
2,82443, Note_on_c, 0, 55, 0
2,82522, Note_on_c, 0, 62, 51
2,82532, Control_c, 0, 64, 54
2,82546, Control_c, 0, 64, 48
2,82547, Note_on_c, 0, 50, 32
2,82563, Control_c, 0, 64, 34
2,82578, Control_c, 0, 64, 0
2,82623, Note_on_c, 0, 67, 0
2,82645, Note_on_c, 0, 47, 0
2,82654, Control_c, 0, 64, 36
2,82669, Control_c, 0, 64, 57
2,82684, Control_c, 0, 64, 63
2,82699, Control_c, 0, 64, 65
2,82714, Control_c, 0, 64, 67
2,82730, Control_c, 0, 64, 70
2,82732, Note_on_c, 0, 62, 0
2,82745, Control_c, 0, 64, 72
2,82761, Control_c, 0, 64, 74
2,82776, Control_c, 0, 64, 76
2,82790, Control_c, 0, 64, 77
2,82806, Control_c, 0, 64, 77
2,82818, Note_on_c, 0, 55, 48
2,82837, Control_c, 0, 64, 73
2,82837, Note_on_c, 0, 62, 70
2,82852, Control_c, 0, 64, 65
2,82867, Control_c, 0, 64, 42
2,82870, Note_on_c, 0, 50, 0
2,82882, Control_c, 0, 64, 0
2,82928, Control_c, 0, 64, 45
2,82943, Control_c, 0, 64, 61
2,82958, Control_c, 0, 64, 67
2,82973, Control_c, 0, 64, 75
2,82988, Control_c, 0, 64, 82
2,82998, Note_on_c, 0, 62, 0
2,83004, Control_c, 0, 64, 88
2,83027, Control_c, 0, 64, 92
2,83043, Control_c, 0, 64, 93
2,83058, Control_c, 0, 64, 93
2,83103, Control_c, 0, 64, 94
2,83118, Control_c, 0, 64, 94
2,83124, Note_on_c, 0, 54, 48
2,83133, Control_c, 0, 64, 90
2,83142, Note_on_c, 0, 71, 71
2,83148, Control_c, 0, 64, 81
2,83158, Note_on_c, 0, 62, 52
2,83164, Control_c, 0, 64, 69
2,83179, Control_c, 0, 64, 52
2,83194, Control_c, 0, 64, 22
2,83210, Control_c, 0, 64, 0
2,83216, Note_on_c, 0, 55, 0
2,83241, Control_c, 0, 64, 26
2,83256, Control_c, 0, 64, 56
2,83270, Control_c, 0, 64, 65
2,83286, Control_c, 0, 64, 71
2,83298, Note_on_c, 0, 54, 0
2,83301, Control_c, 0, 64, 77
2,83317, Control_c, 0, 64, 82
2,83320, Note_on_c, 0, 62, 0
2,83331, Control_c, 0, 64, 83
2,83343, Note_on_c, 0, 71, 0
2,83362, Control_c, 0, 64, 83
2,83377, Control_c, 0, 64, 81
2,83391, Control_c, 0, 64, 80
2,83407, Control_c, 0, 64, 79
2,83422, Control_c, 0, 64, 78
2,83438, Control_c, 0, 64, 77
2,83446, Note_on_c, 0, 55, 58
2,83452, Control_c, 0, 64, 76
2,83462, Note_on_c, 0, 52, 53
2,83467, Control_c, 0, 64, 74
2,83469, Note_on_c, 0, 71, 72
2,83483, Control_c, 0, 64, 73
2,83498, Control_c, 0, 64, 71
2,83513, Control_c, 0, 64, 68
2,83528, Control_c, 0, 64, 63
2,83543, Control_c, 0, 64, 45
2,83559, Control_c, 0, 64, 0
2,83634, Control_c, 0, 64, 46
2,83650, Control_c, 0, 64, 57
2,83665, Control_c, 0, 64, 61
2,83675, Note_on_c, 0, 71, 0
2,83681, Control_c, 0, 64, 65
2,83696, Control_c, 0, 64, 71
2,83711, Control_c, 0, 64, 76
2,83726, Control_c, 0, 64, 77
2,83741, Control_c, 0, 64, 72
2,83757, Control_c, 0, 64, 64
2,83772, Control_c, 0, 64, 55
2,83784, Note_on_c, 0, 79, 75
2,83792, Note_on_c, 0, 71, 66
2,83794, Control_c, 0, 64, 53
2,83809, Control_c, 0, 64, 56
2,83824, Control_c, 0, 64, 61
2,83841, Control_c, 0, 64, 65
2,83856, Control_c, 0, 64, 69
2,83871, Control_c, 0, 64, 74
2,83886, Control_c, 0, 64, 79
2,83901, Control_c, 0, 64, 85
2,83917, Control_c, 0, 64, 91
2,83932, Control_c, 0, 64, 95
2,83953, Note_on_c, 0, 71, 0
2,83964, Note_on_c, 0, 79, 0
2,83977, Control_c, 0, 64, 94
2,84008, Control_c, 0, 64, 93
2,84023, Control_c, 0, 64, 92
2,84039, Control_c, 0, 64, 92
2,84068, Control_c, 0, 64, 91
2,84081, Note_on_c, 0, 59, 67
2,84084, Control_c, 0, 64, 90
2,84088, Note_on_c, 0, 64, 64
2,84094, Note_on_c, 0, 79, 81
2,84099, Control_c, 0, 64, 88
2,84114, Control_c, 0, 64, 84
2,84130, Control_c, 0, 64, 73
2,84145, Control_c, 0, 64, 63
2,84160, Control_c, 0, 64, 36
2,84175, Control_c, 0, 64, 0
2,84207, Note_on_c, 0, 55, 0
2,84221, Control_c, 0, 64, 10
2,84235, Control_c, 0, 64, 53
2,84251, Control_c, 0, 64, 61
2,84266, Control_c, 0, 64, 64
2,84282, Control_c, 0, 64, 66
2,84296, Control_c, 0, 64, 69
2,84301, Note_on_c, 0, 79, 0
2,84311, Control_c, 0, 64, 73
2,84313, Note_on_c, 0, 52, 0
2,84327, Control_c, 0, 64, 78
2,84342, Control_c, 0, 64, 79
2,84358, Control_c, 0, 64, 75
2,84372, Control_c, 0, 64, 66
2,84387, Control_c, 0, 64, 52
2,84400, Note_on_c, 0, 79, 86
2,84403, Control_c, 0, 64, 27
2,84418, Control_c, 0, 64, 20
2,84433, Control_c, 0, 64, 19
2,84448, Control_c, 0, 64, 28
2,84463, Control_c, 0, 64, 47
2,84479, Control_c, 0, 64, 58
2,84494, Control_c, 0, 64, 62
2,84509, Control_c, 0, 64, 65
2,84525, Control_c, 0, 64, 69
2,84547, Control_c, 0, 64, 73
2,84563, Control_c, 0, 64, 76
2,84577, Control_c, 0, 64, 79
2,84582, Note_on_c, 0, 64, 0
2,84592, Control_c, 0, 64, 82
2,84608, Control_c, 0, 64, 84
2,84622, Control_c, 0, 64, 84
2,84665, Note_on_c, 0, 59, 0
2,84670, Control_c, 0, 64, 84
2,84685, Control_c, 0, 64, 83
2,84700, Control_c, 0, 64, 83
2,84715, Control_c, 0, 64, 82
2,84734, Note_on_c, 0, 73, 72
2,84759, Note_on_c, 0, 67, 51
2,84761, Control_c, 0, 64, 82
2,84821, Control_c, 0, 64, 82
2,84910, Note_on_c, 0, 79, 0
2,84915, Control_c, 0, 64, 82
2,84930, Control_c, 0, 64, 81
2,84944, Control_c, 0, 64, 80
2,84960, Control_c, 0, 64, 79
2,85066, Note_on_c, 0, 52, 63
2,85079, Note_on_c, 0, 50, 61
2,85096, Control_c, 0, 64, 77
2,85112, Control_c, 0, 64, 70
2,85127, Control_c, 0, 64, 61
2,85141, Control_c, 0, 64, 39
2,85157, Control_c, 0, 64, 12
2,85172, Control_c, 0, 64, 0
2,85187, Control_c, 0, 64, 22
2,85203, Control_c, 0, 64, 46
2,85217, Control_c, 0, 64, 59
2,85233, Control_c, 0, 64, 65
2,85244, Note_on_c, 0, 50, 0
2,85248, Control_c, 0, 64, 69
2,85263, Control_c, 0, 64, 74
2,85279, Control_c, 0, 64, 77
2,85294, Control_c, 0, 64, 76
2,85310, Control_c, 0, 64, 75
2,85332, Control_c, 0, 64, 74
2,85346, Control_c, 0, 64, 72
2,85362, Control_c, 0, 64, 70
2,85377, Control_c, 0, 64, 69
2,85393, Control_c, 0, 64, 67
2,85398, Note_on_c, 0, 57, 60
2,85407, Note_on_c, 0, 76, 63
2,85408, Control_c, 0, 64, 66
2,85412, Note_on_c, 0, 49, 53
2,85438, Control_c, 0, 64, 65
2,85453, Control_c, 0, 64, 64
2,85470, Control_c, 0, 64, 59
2,85485, Control_c, 0, 64, 47
2,85500, Control_c, 0, 64, 0
2,85505, Note_on_c, 0, 52, 0
2,85512, Note_on_c, 0, 73, 0
2,85522, Note_on_c, 0, 67, 0
2,85591, Control_c, 0, 64, 54
2,85606, Control_c, 0, 64, 62
2,85621, Control_c, 0, 64, 65
2,85632, Note_on_c, 0, 57, 0
2,85638, Control_c, 0, 64, 66
2,85652, Control_c, 0, 64, 67
2,85697, Control_c, 0, 64, 66
2,85759, Control_c, 0, 64, 67
2,85762, Note_on_c, 0, 45, 51
2,85765, Note_on_c, 0, 55, 60
2,85772, Note_on_c, 0, 61, 57
2,85805, Control_c, 0, 64, 66
2,85817, Note_on_c, 0, 49, 0
2,85819, Control_c, 0, 64, 63
2,85835, Control_c, 0, 64, 51
2,85850, Control_c, 0, 64, 26
2,85865, Control_c, 0, 64, 15
2,85881, Control_c, 0, 64, 18
2,85896, Control_c, 0, 64, 39
2,85911, Control_c, 0, 64, 53
2,85925, Note_on_c, 0, 55, 0
2,85926, Control_c, 0, 64, 59
2,85941, Control_c, 0, 64, 63
2,85957, Control_c, 0, 64, 64
2,85972, Control_c, 0, 64, 65
2,86033, Control_c, 0, 64, 65
2,86062, Control_c, 0, 64, 64
2,86099, Note_on_c, 0, 66, 58
2,86104, Note_on_c, 0, 61, 0
2,86106, Note_on_c, 0, 54, 49
2,86107, Note_on_c, 0, 50, 50
2,86131, Control_c, 0, 64, 63
2,86146, Control_c, 0, 64, 62
2,86162, Control_c, 0, 64, 60
2,86177, Control_c, 0, 64, 58
2,86192, Control_c, 0, 64, 55
2,86207, Control_c, 0, 64, 53
2,86222, Control_c, 0, 64, 52
2,86235, Note_on_c, 0, 45, 0
2,86238, Control_c, 0, 64, 51
2,86238, Note_on_c, 0, 76, 0
2,86253, Control_c, 0, 64, 50
2,86267, Control_c, 0, 64, 50
2,86283, Control_c, 0, 64, 49
2,86299, Control_c, 0, 64, 48
2,86360, Control_c, 0, 64, 47
2,86375, Control_c, 0, 64, 42
2,86391, Control_c, 0, 64, 31
2,86403, Note_on_c, 0, 69, 64
2,86406, Control_c, 0, 64, 0
2,86414, Note_on_c, 0, 48, 49
2,86422, Note_on_c, 0, 64, 53
2,86496, Control_c, 0, 64, 16
2,86512, Control_c, 0, 64, 50
2,86527, Control_c, 0, 64, 57
2,86532, Note_on_c, 0, 66, 0
2,86541, Control_c, 0, 64, 61
2,86547, Note_on_c, 0, 50, 0
2,86557, Control_c, 0, 64, 63
2,86572, Control_c, 0, 64, 65
2,86578, Note_on_c, 0, 64, 0
2,86587, Control_c, 0, 64, 67
2,86603, Control_c, 0, 64, 68
2,86618, Control_c, 0, 64, 70
2,86633, Control_c, 0, 64, 70
2,86648, Control_c, 0, 64, 71
2,86679, Control_c, 0, 64, 71
2,86703, Note_on_c, 0, 74, 68
2,86710, Control_c, 0, 64, 70
2,86716, Note_on_c, 0, 47, 48
2,86723, Note_on_c, 0, 62, 41
2,86725, Control_c, 0, 64, 66
2,86740, Control_c, 0, 64, 57
2,86755, Control_c, 0, 64, 27
2,86770, Control_c, 0, 64, 17
2,86783, Note_on_c, 0, 48, 0
2,86798, Note_on_c, 0, 69, 0
2,86801, Control_c, 0, 64, 35
2,86816, Control_c, 0, 64, 51
2,86831, Control_c, 0, 64, 59
2,86846, Control_c, 0, 64, 64
2,86868, Control_c, 0, 64, 68
2,86884, Control_c, 0, 64, 72
2,86899, Control_c, 0, 64, 75
2,86915, Control_c, 0, 64, 76
2,86930, Control_c, 0, 64, 72
2,86944, Control_c, 0, 64, 66
2,86960, Control_c, 0, 64, 63
2,86975, Control_c, 0, 64, 65
2,86991, Control_c, 0, 64, 68
2,86995, Note_on_c, 0, 45, 48
2,87003, Note_on_c, 0, 72, 70
2,87006, Control_c, 0, 64, 71
2,87021, Control_c, 0, 64, 73
2,87036, Control_c, 0, 64, 75
2,87049, Note_on_c, 0, 74, 0
2,87051, Control_c, 0, 64, 77
2,87066, Control_c, 0, 64, 78
2,87082, Control_c, 0, 64, 78
2,87096, Control_c, 0, 64, 79
2,87102, Note_on_c, 0, 45, 0
2,87113, Control_c, 0, 64, 80
2,87119, Note_on_c, 0, 47, 0
2,87128, Control_c, 0, 64, 80
2,87159, Control_c, 0, 64, 80
2,87174, Control_c, 0, 64, 79
2,87188, Control_c, 0, 64, 78
2,87204, Control_c, 0, 64, 77
2,87219, Control_c, 0, 64, 76
2,87235, Control_c, 0, 64, 74
2,87250, Control_c, 0, 64, 71
2,87264, Control_c, 0, 64, 69
2,87280, Control_c, 0, 64, 66
2,87294, Note_on_c, 0, 43, 54
2,87295, Control_c, 0, 64, 65
2,87311, Control_c, 0, 64, 64
2,87317, Note_on_c, 0, 71, 58
2,87326, Control_c, 0, 64, 64
2,87340, Control_c, 0, 64, 63
2,87356, Control_c, 0, 64, 61
2,87371, Control_c, 0, 64, 58
2,87385, Control_c, 0, 64, 53
2,87392, Note_on_c, 0, 72, 0
2,87401, Control_c, 0, 64, 42
2,87416, Control_c, 0, 64, 13
2,87432, Control_c, 0, 64, 0
2,87592, Note_on_c, 0, 47, 59
2,87679, Note_on_c, 0, 43, 0
2,87682, Control_c, 0, 64, 32
2,87697, Control_c, 0, 64, 49
2,87713, Control_c, 0, 64, 55
2,87725, Note_on_c, 0, 54, 0
2,87728, Control_c, 0, 64, 59
2,87742, Control_c, 0, 64, 62
2,87758, Control_c, 0, 64, 63
2,87773, Control_c, 0, 64, 64
2,87788, Control_c, 0, 64, 65
2,87804, Control_c, 0, 64, 65
2,87850, Control_c, 0, 64, 65
2,87880, Control_c, 0, 64, 64
2,87890, Note_on_c, 0, 52, 55
2,87895, Control_c, 0, 64, 64
2,87907, Note_on_c, 0, 44, 46
2,87911, Control_c, 0, 64, 63
2,87926, Control_c, 0, 64, 63
2,87941, Control_c, 0, 64, 62
2,87957, Control_c, 0, 64, 61
2,87972, Control_c, 0, 64, 61
2,87987, Control_c, 0, 64, 60
2,87996, Note_on_c, 0, 47, 0
2,88003, Control_c, 0, 64, 58
2,88018, Control_c, 0, 64, 57
2,88048, Control_c, 0, 64, 57
2,88063, Control_c, 0, 64, 56
2,88079, Control_c, 0, 64, 55
2,88094, Control_c, 0, 64, 54
2,88108, Control_c, 0, 64, 53
2,88139, Control_c, 0, 64, 53
2,88169, Control_c, 0, 64, 50
2,88184, Control_c, 0, 64, 46
2,88195, Note_on_c, 0, 50, 51
2,88200, Control_c, 0, 64, 38
2,88205, Note_on_c, 0, 59, 58
2,88215, Control_c, 0, 64, 0
2,88291, Control_c, 0, 64, 21
2,88293, Note_on_c, 0, 62, 0
2,88305, Control_c, 0, 64, 45
2,88321, Control_c, 0, 64, 53
2,88336, Control_c, 0, 64, 56
2,88343, Note_on_c, 0, 52, 0
2,88352, Control_c, 0, 64, 59
2,88367, Control_c, 0, 64, 60
2,88377, Note_on_c, 0, 44, 0
2,88390, Control_c, 0, 64, 61
2,88405, Control_c, 0, 64, 61
2,88496, Control_c, 0, 64, 61
2,88511, Note_on_c, 0, 49, 51
2,88512, Control_c, 0, 64, 58
2,88514, Note_on_c, 0, 64, 58
2,88523, Note_on_c, 0, 45, 42
2,88526, Control_c, 0, 64, 51
2,88541, Control_c, 0, 64, 24
2,88557, Control_c, 0, 64, 0
2,88607, Note_on_c, 0, 50, 0
2,88633, Control_c, 0, 64, 19
2,88648, Control_c, 0, 64, 55
2,88658, Note_on_c, 0, 59, 0
2,88663, Control_c, 0, 64, 61
2,88679, Control_c, 0, 64, 64
2,88694, Control_c, 0, 64, 66
2,88708, Control_c, 0, 64, 69
2,88708, Note_on_c, 0, 64, 0
2,88724, Control_c, 0, 64, 71
2,88739, Control_c, 0, 64, 72
2,88755, Control_c, 0, 64, 73
2,88785, Control_c, 0, 64, 73
2,88801, Control_c, 0, 64, 73
2,88807, Note_on_c, 0, 50, 49
2,88816, Control_c, 0, 64, 68
2,88832, Control_c, 0, 64, 59
2,88833, Note_on_c, 0, 64, 63
2,88844, Note_on_c, 0, 62, 40
2,88847, Control_c, 0, 64, 31
2,88861, Control_c, 0, 64, 0
2,88892, Control_c, 0, 64, 16
2,88907, Control_c, 0, 64, 45
2,88908, Note_on_c, 0, 49, 0
2,88923, Control_c, 0, 64, 57
2,88923, Note_on_c, 0, 71, 0
2,88938, Control_c, 0, 64, 63
2,88953, Control_c, 0, 64, 66
2,88962, Note_on_c, 0, 62, 0
2,88968, Control_c, 0, 64, 69
2,88983, Control_c, 0, 64, 72
2,88999, Control_c, 0, 64, 73
2,89013, Control_c, 0, 64, 74
2,89028, Control_c, 0, 64, 73
2,89044, Control_c, 0, 64, 71
2,89059, Control_c, 0, 64, 70
2,89075, Control_c, 0, 64, 69
2,89089, Control_c, 0, 64, 67
2,89104, Control_c, 0, 64, 65
2,89120, Control_c, 0, 64, 63
2,89135, Control_c, 0, 64, 62
2,89142, Note_on_c, 0, 52, 40
2,89158, Control_c, 0, 64, 61
2,89158, Note_on_c, 0, 69, 56
2,89173, Control_c, 0, 64, 60
2,89175, Note_on_c, 0, 61, 47
2,89188, Control_c, 0, 64, 58
2,89204, Control_c, 0, 64, 55
2,89218, Control_c, 0, 64, 50
2,89234, Control_c, 0, 64, 44
2,89249, Control_c, 0, 64, 31
2,89264, Control_c, 0, 64, 0
2,89268, Note_on_c, 0, 64, 0
2,89290, Note_on_c, 0, 50, 0
2,89340, Control_c, 0, 64, 30
2,89356, Control_c, 0, 64, 46
2,89370, Control_c, 0, 64, 53
2,89385, Control_c, 0, 64, 57
2,89401, Control_c, 0, 64, 60
2,89415, Control_c, 0, 64, 62
2,89431, Control_c, 0, 64, 63
2,89446, Control_c, 0, 64, 65
2,89460, Note_on_c, 0, 67, 49
2,89461, Control_c, 0, 64, 66
2,89477, Control_c, 0, 64, 68
2,89477, Note_on_c, 0, 45, 0
2,89491, Control_c, 0, 64, 71
2,89506, Control_c, 0, 64, 73
2,89522, Control_c, 0, 64, 74
2,89536, Control_c, 0, 64, 74
2,89551, Note_on_c, 0, 69, 0
2,89599, Control_c, 0, 64, 74
2,89629, Control_c, 0, 64, 73
2,89675, Control_c, 0, 64, 73
2,89690, Control_c, 0, 64, 72
2,89705, Control_c, 0, 64, 71
2,89720, Control_c, 0, 64, 70
2,89735, Control_c, 0, 64, 70
2,89751, Control_c, 0, 64, 69
2,89752, Note_on_c, 0, 46, 43
2,89766, Control_c, 0, 64, 67
2,89767, Note_on_c, 0, 66, 54
2,89781, Control_c, 0, 64, 66
2,89796, Control_c, 0, 64, 64
2,89828, Note_on_c, 0, 67, 0
2,89842, Control_c, 0, 64, 64
2,89856, Control_c, 0, 64, 63
2,89872, Control_c, 0, 64, 62
2,89887, Control_c, 0, 64, 61
2,89902, Control_c, 0, 64, 60
2,89925, Control_c, 0, 64, 59
2,89940, Control_c, 0, 64, 57
2,89956, Control_c, 0, 64, 55
2,89963, Note_on_c, 0, 52, 0
2,89971, Control_c, 0, 64, 54
2,89986, Control_c, 0, 64, 52
2,90002, Control_c, 0, 64, 50
2,90016, Control_c, 0, 64, 46
2,90032, Control_c, 0, 64, 39
2,90047, Control_c, 0, 64, 25
2,90061, Control_c, 0, 64, 0
2,90073, Note_on_c, 0, 49, 46
2,90137, Control_c, 0, 64, 31
2,90153, Control_c, 0, 64, 55
2,90168, Control_c, 0, 64, 61
2,90182, Control_c, 0, 64, 64
2,90198, Control_c, 0, 64, 67
2,90213, Control_c, 0, 64, 70
2,90228, Control_c, 0, 64, 71
2,90244, Control_c, 0, 64, 72
2,90320, Control_c, 0, 64, 71
2,90335, Control_c, 0, 64, 71
2,90351, Note_on_c, 0, 54, 35
2,90372, Note_on_c, 0, 73, 56
2,90397, Control_c, 0, 64, 70
2,90412, Control_c, 0, 64, 69
2,90427, Control_c, 0, 64, 64
2,90443, Control_c, 0, 64, 48
2,90458, Control_c, 0, 64, 30
2,90473, Control_c, 0, 64, 29
2,90488, Control_c, 0, 64, 30
2,90491, Note_on_c, 0, 49, 0
2,90503, Control_c, 0, 64, 45
2,90513, Note_on_c, 0, 61, 0
2,90519, Control_c, 0, 64, 57
2,90534, Control_c, 0, 64, 64
2,90549, Control_c, 0, 64, 67
2,90564, Control_c, 0, 64, 71
2,90579, Control_c, 0, 64, 73
2,90595, Control_c, 0, 64, 74
2,90610, Control_c, 0, 64, 74
2,90655, Control_c, 0, 64, 72
2,90659, Note_on_c, 0, 66, 0
2,90664, Note_on_c, 0, 61, 55
2,90665, Note_on_c, 0, 52, 40
2,90671, Control_c, 0, 64, 67
2,90686, Control_c, 0, 64, 59
2,90708, Control_c, 0, 64, 50
2,90724, Control_c, 0, 64, 49
2,90739, Control_c, 0, 64, 54
2,90755, Control_c, 0, 64, 62
2,90770, Control_c, 0, 64, 67
2,90780, Note_on_c, 0, 54, 0
2,90784, Control_c, 0, 64, 73
2,90800, Control_c, 0, 64, 78
2,90815, Control_c, 0, 64, 81
2,90820, Note_on_c, 0, 46, 0
2,90829, Control_c, 0, 64, 82
2,90860, Control_c, 0, 64, 81
2,90876, Control_c, 0, 64, 80
2,90891, Control_c, 0, 64, 80
2,90905, Control_c, 0, 64, 79
2,90921, Control_c, 0, 64, 77
2,90936, Control_c, 0, 64, 76
2,90952, Control_c, 0, 64, 76
2,90959, Note_on_c, 0, 47, 42
2,90974, Note_on_c, 0, 50, 33
2,90981, Control_c, 0, 64, 75
2,90986, Note_on_c, 0, 66, 56
2,90997, Control_c, 0, 64, 73
2,91012, Control_c, 0, 64, 69
2,91026, Control_c, 0, 64, 61
2,91042, Control_c, 0, 64, 43
2,91057, Control_c, 0, 64, 0
2,91098, Note_on_c, 0, 61, 0
2,91118, Control_c, 0, 64, 52
2,91120, Note_on_c, 0, 52, 0
2,91133, Control_c, 0, 64, 63
2,91148, Control_c, 0, 64, 68
2,91164, Control_c, 0, 64, 73
2,91179, Control_c, 0, 64, 74
2,91207, Note_on_c, 0, 66, 0
2,91210, Control_c, 0, 64, 75
2,91301, Control_c, 0, 64, 75
2,91317, Control_c, 0, 64, 75
2,91321, Note_on_c, 0, 66, 67
2,91330, Note_on_c, 0, 64, 44
2,91332, Control_c, 0, 64, 71
2,91347, Control_c, 0, 64, 64
2,91363, Control_c, 0, 64, 47
2,91378, Control_c, 0, 64, 32
2,91394, Control_c, 0, 64, 30
2,91408, Control_c, 0, 64, 33
2,91423, Control_c, 0, 64, 50
2,91435, Note_on_c, 0, 73, 0
2,91439, Control_c, 0, 64, 62
2,91460, Control_c, 0, 64, 68
2,91476, Control_c, 0, 64, 77
2,91486, Note_on_c, 0, 64, 0
2,91491, Control_c, 0, 64, 83
2,91506, Control_c, 0, 64, 86
2,91522, Control_c, 0, 64, 85
2,91537, Control_c, 0, 64, 85
2,91568, Control_c, 0, 64, 84
2,91598, Control_c, 0, 64, 84
2,91613, Control_c, 0, 64, 82
2,91628, Control_c, 0, 64, 80
2,91632, Note_on_c, 0, 71, 66
2,91644, Control_c, 0, 64, 77
2,91647, Note_on_c, 0, 62, 48
2,91659, Control_c, 0, 64, 71
2,91674, Control_c, 0, 64, 63
2,91689, Control_c, 0, 64, 45
2,91704, Control_c, 0, 64, 0
2,91734, Note_on_c, 0, 66, 0
2,91765, Control_c, 0, 64, 39
2,91779, Control_c, 0, 64, 58
2,91795, Control_c, 0, 64, 61
2,91824, Control_c, 0, 64, 61
2,91901, Control_c, 0, 64, 61
2,91918, Note_on_c, 0, 54, 44
2,91931, Control_c, 0, 64, 60
2,91935, Note_on_c, 0, 69, 64
2,91946, Control_c, 0, 64, 56
2,91962, Control_c, 0, 64, 47
2,91977, Control_c, 0, 64, 33
2,91993, Control_c, 0, 64, 13
2,92008, Control_c, 0, 64, 0
2,92021, Note_on_c, 0, 71, 0
2,92039, Control_c, 0, 64, 28
2,92054, Control_c, 0, 64, 43
2,92063, Note_on_c, 0, 50, 0
2,92068, Control_c, 0, 64, 46
2,92161, Control_c, 0, 64, 46
2,92175, Control_c, 0, 64, 45
2,92191, Control_c, 0, 64, 43
2,92206, Control_c, 0, 64, 41
2,92228, Control_c, 0, 64, 39
2,92241, Note_on_c, 0, 59, 59
2,92244, Control_c, 0, 64, 37
2,92258, Control_c, 0, 64, 36
2,92274, Note_on_c, 0, 67, 65
2,92289, Control_c, 0, 64, 37
2,92304, Control_c, 0, 64, 41
2,92320, Control_c, 0, 64, 50
2,92335, Control_c, 0, 64, 57
2,92351, Control_c, 0, 64, 61
2,92357, Note_on_c, 0, 69, 0
2,92366, Control_c, 0, 64, 64
2,92366, Note_on_c, 0, 54, 0
2,92381, Control_c, 0, 64, 67
2,92396, Control_c, 0, 64, 70
2,92411, Control_c, 0, 64, 73
2,92426, Control_c, 0, 64, 75
2,92436, Note_on_c, 0, 47, 0
2,92463, Note_on_c, 0, 59, 0
2,92472, Control_c, 0, 64, 73
2,92487, Control_c, 0, 64, 72
2,92502, Control_c, 0, 64, 71
2,92517, Control_c, 0, 64, 70
2,92532, Control_c, 0, 64, 67
2,92548, Control_c, 0, 64, 65
2,92564, Control_c, 0, 64, 64
2,92585, Note_on_c, 0, 47, 51
2,92588, Note_on_c, 0, 57, 57
2,92624, Control_c, 0, 64, 63
2,92639, Control_c, 0, 64, 59
2,92654, Control_c, 0, 64, 51
2,92669, Control_c, 0, 64, 37
2,92685, Control_c, 0, 64, 16
2,92700, Control_c, 0, 64, 0
2,92715, Control_c, 0, 64, 16
2,92730, Control_c, 0, 64, 42
2,92745, Control_c, 0, 64, 57
2,92761, Control_c, 0, 64, 62
2,92776, Control_c, 0, 64, 65
2,92783, Note_on_c, 0, 57, 0
2,92791, Control_c, 0, 64, 68
2,92806, Control_c, 0, 64, 71
2,92821, Control_c, 0, 64, 72
2,92868, Control_c, 0, 64, 72
2,92884, Control_c, 0, 64, 71
2,92898, Control_c, 0, 64, 70
2,92928, Note_on_c, 0, 55, 51
2,92929, Control_c, 0, 64, 69
2,92935, Note_on_c, 0, 52, 54
2,92943, Control_c, 0, 64, 68
2,92959, Control_c, 0, 64, 66
2,92974, Control_c, 0, 64, 64
2,92998, Control_c, 0, 64, 62
2,93013, Control_c, 0, 64, 61
2,93018, Note_on_c, 0, 47, 0
2,93027, Control_c, 0, 64, 60
2,93043, Control_c, 0, 64, 58
2,93058, Control_c, 0, 64, 56
2,93073, Control_c, 0, 64, 54
2,93088, Control_c, 0, 64, 52
2,93103, Control_c, 0, 64, 51
2,93119, Control_c, 0, 64, 50
2,93134, Control_c, 0, 64, 49
2,93148, Control_c, 0, 64, 47
2,93164, Control_c, 0, 64, 45
2,93179, Control_c, 0, 64, 42
2,93195, Control_c, 0, 64, 39
2,93210, Control_c, 0, 64, 35
2,93224, Control_c, 0, 64, 33
2,93224, Note_on_c, 0, 50, 52
2,93231, Note_on_c, 0, 59, 57
2,93240, Control_c, 0, 64, 30
2,93255, Control_c, 0, 64, 28
2,93271, Control_c, 0, 64, 25
2,93286, Control_c, 0, 64, 21
2,93301, Control_c, 0, 64, 15
2,93306, Note_on_c, 0, 52, 0
2,93317, Control_c, 0, 64, 0
2,93318, Note_on_c, 0, 62, 0
2,93529, Note_on_c, 0, 64, 53
2,93530, Note_on_c, 0, 49, 57
2,93617, Note_on_c, 0, 50, 0
2,93632, Note_on_c, 0, 59, 0
2,93844, Note_on_c, 0, 62, 55
2,93846, Note_on_c, 0, 52, 60
2,93920, Note_on_c, 0, 55, 0
2,93943, Note_on_c, 0, 64, 0
2,93987, Note_on_c, 0, 49, 0
2,94143, Note_on_c, 0, 57, 64
2,94143, Note_on_c, 0, 61, 66
2,94208, Note_on_c, 0, 62, 0
2,94279, Note_on_c, 0, 52, 0
2,94437, Note_on_c, 0, 55, 63
2,94438, Note_on_c, 0, 64, 70
2,94479, Note_on_c, 0, 67, 0
2,94544, Note_on_c, 0, 57, 0
2,94723, Note_on_c, 0, 54, 64
2,94734, Note_on_c, 0, 69, 70
2,94822, Note_on_c, 0, 55, 0
2,94843, Note_on_c, 0, 61, 0
2,94857, Note_on_c, 0, 64, 0
2,95038, Note_on_c, 0, 57, 70
2,95038, Note_on_c, 0, 67, 66
2,95055, Note_on_c, 0, 61, 52
2,95093, Note_on_c, 0, 69, 0
2,95125, Note_on_c, 0, 54, 0
2,95167, Control_c, 0, 64, 26
2,95182, Control_c, 0, 64, 37
2,95197, Control_c, 0, 64, 42
2,95213, Control_c, 0, 64, 44
2,95228, Control_c, 0, 64, 45
2,95233, Note_on_c, 0, 61, 0
2,95242, Control_c, 0, 64, 46
2,95258, Control_c, 0, 64, 46
2,95273, Control_c, 0, 64, 47
2,95340, Note_on_c, 0, 62, 69
2,95355, Note_on_c, 0, 66, 70
2,95418, Note_on_c, 0, 67, 0
2,95430, Note_on_c, 0, 57, 0
2,95615, Control_c, 0, 64, 46
2,95630, Control_c, 0, 64, 46
2,95630, Note_on_c, 0, 61, 77
2,95646, Control_c, 0, 64, 44
2,95648, Note_on_c, 0, 69, 70
2,95657, Note_on_c, 0, 64, 56
2,95661, Control_c, 0, 64, 41
2,95676, Control_c, 0, 64, 36
2,95691, Control_c, 0, 64, 33
2,95706, Control_c, 0, 64, 32
2,95731, Note_on_c, 0, 62, 0
2,95734, Note_on_c, 0, 66, 0
2,95737, Control_c, 0, 64, 34
2,95751, Control_c, 0, 64, 46
2,95767, Control_c, 0, 64, 56
2,95782, Control_c, 0, 64, 63
2,95794, Note_on_c, 0, 64, 0
2,95797, Control_c, 0, 64, 66
2,95813, Control_c, 0, 64, 69
2,95828, Control_c, 0, 64, 73
2,95843, Control_c, 0, 64, 76
2,95859, Control_c, 0, 64, 77
2,95904, Control_c, 0, 64, 77
2,95919, Control_c, 0, 64, 76
2,95934, Control_c, 0, 64, 76
2,95940, Note_on_c, 0, 74, 81
2,95943, Note_on_c, 0, 59, 71
2,95949, Control_c, 0, 64, 75
2,95950, Note_on_c, 0, 62, 65
2,95965, Control_c, 0, 64, 75
2,95980, Control_c, 0, 64, 74
2,95995, Control_c, 0, 64, 73
2,96010, Control_c, 0, 64, 72
2,96024, Note_on_c, 0, 69, 0
2,96025, Control_c, 0, 64, 71
2,96030, Note_on_c, 0, 61, 0
2,96040, Control_c, 0, 64, 70
2,96063, Control_c, 0, 64, 68
2,96078, Control_c, 0, 64, 66
2,96094, Control_c, 0, 64, 66
2,96109, Control_c, 0, 64, 65
2,96125, Control_c, 0, 64, 64
2,96140, Control_c, 0, 64, 63
2,96155, Control_c, 0, 64, 61
2,96171, Control_c, 0, 64, 59
2,96186, Control_c, 0, 64, 58
2,96201, Control_c, 0, 64, 55
2,96217, Control_c, 0, 64, 53
2,96231, Control_c, 0, 64, 51
2,96247, Control_c, 0, 64, 49
2,96250, Note_on_c, 0, 57, 72
2,96256, Note_on_c, 0, 66, 73
2,96256, Note_on_c, 0, 73, 81
2,96262, Control_c, 0, 64, 45
2,96277, Control_c, 0, 64, 40
2,96293, Control_c, 0, 64, 32
2,96308, Control_c, 0, 64, 0
2,96310, Note_on_c, 0, 74, 0
2,96314, Note_on_c, 0, 59, 0
2,96396, Note_on_c, 0, 62, 0
2,96421, Note_on_c, 0, 66, 0
2,96535, Note_on_c, 0, 55, 63
2,96561, Note_on_c, 0, 71, 78
2,96640, Note_on_c, 0, 57, 0
2,96669, Note_on_c, 0, 73, 0
2,96779, Control_c, 0, 64, 12
2,96794, Control_c, 0, 64, 37
2,96810, Control_c, 0, 64, 45
2,96832, Control_c, 0, 64, 50
2,96835, Note_on_c, 0, 54, 52
2,96848, Control_c, 0, 64, 53
2,96850, Note_on_c, 0, 74, 83
2,96859, Note_on_c, 0, 69, 69
2,96862, Control_c, 0, 64, 56
2,96877, Control_c, 0, 64, 59
2,96893, Control_c, 0, 64, 62
2,96897, Note_on_c, 0, 71, 0
2,96907, Control_c, 0, 64, 65
2,96914, Note_on_c, 0, 55, 0
2,96922, Control_c, 0, 64, 69
2,96940, Control_c, 0, 64, 76
2,96955, Control_c, 0, 64, 81
2,96970, Control_c, 0, 64, 86
2,96985, Control_c, 0, 64, 90
2,96999, Note_on_c, 0, 69, 0
2,97000, Control_c, 0, 64, 94
2,97006, Note_on_c, 0, 74, 0
2,97015, Control_c, 0, 64, 95
2,97061, Control_c, 0, 64, 95
2,97076, Control_c, 0, 64, 94
2,97091, Control_c, 0, 64, 93
2,97106, Control_c, 0, 64, 91
2,97121, Control_c, 0, 64, 89
2,97136, Note_on_c, 0, 52, 51
2,97137, Control_c, 0, 64, 88
2,97152, Control_c, 0, 64, 87
2,97153, Note_on_c, 0, 79, 93
2,97166, Note_on_c, 0, 67, 72
2,97168, Control_c, 0, 64, 85
2,97182, Control_c, 0, 64, 82
2,97197, Control_c, 0, 64, 78
2,97213, Control_c, 0, 64, 75
2,97228, Control_c, 0, 64, 74
2,97240, Note_on_c, 0, 54, 0
2,97243, Control_c, 0, 64, 73
2,97259, Control_c, 0, 64, 71
2,97274, Control_c, 0, 64, 67
2,97290, Control_c, 0, 64, 64
2,97304, Control_c, 0, 64, 62
2,97319, Control_c, 0, 64, 61
2,97335, Control_c, 0, 64, 60
2,97350, Control_c, 0, 64, 57
2,97366, Control_c, 0, 64, 52
2,97380, Control_c, 0, 64, 45
2,97395, Control_c, 0, 64, 39
2,97411, Control_c, 0, 64, 34
2,97425, Control_c, 0, 64, 25
2,97433, Note_on_c, 0, 50, 56
2,97440, Control_c, 0, 64, 0
2,97442, Note_on_c, 0, 71, 78
2,97514, Note_on_c, 0, 52, 0
2,97548, Note_on_c, 0, 67, 0
2,97745, Note_on_c, 0, 76, 78
2,97757, Note_on_c, 0, 49, 65
2,97864, Note_on_c, 0, 71, 0
2,97891, Note_on_c, 0, 50, 0
2,98058, Note_on_c, 0, 47, 64
2,98059, Note_on_c, 0, 74, 79
2,98148, Control_c, 0, 64, 10
2,98163, Control_c, 0, 64, 47
2,98179, Control_c, 0, 64, 56
2,98189, Note_on_c, 0, 49, 0
2,98193, Control_c, 0, 64, 63
2,98209, Control_c, 0, 64, 66
2,98224, Control_c, 0, 64, 70
2,98239, Control_c, 0, 64, 74
2,98255, Control_c, 0, 64, 76
2,98311, Note_on_c, 0, 76, 0
2,98345, Control_c, 0, 64, 75
2,98356, Note_on_c, 0, 45, 68
2,98360, Control_c, 0, 64, 75
2,98362, Note_on_c, 0, 74, 0
2,98374, Note_on_c, 0, 73, 73
2,98384, Control_c, 0, 64, 74
2,98398, Control_c, 0, 64, 74
2,98414, Control_c, 0, 64, 73
2,98429, Control_c, 0, 64, 73
2,98436, Note_on_c, 0, 47, 0
2,98445, Control_c, 0, 64, 71
2,98460, Control_c, 0, 64, 69
2,98474, Control_c, 0, 64, 66
2,98490, Control_c, 0, 64, 65
2,98536, Control_c, 0, 64, 64
2,98550, Control_c, 0, 64, 64
2,98566, Control_c, 0, 64, 62
2,98582, Control_c, 0, 64, 60
2,98597, Control_c, 0, 64, 59
2,98627, Control_c, 0, 64, 58
2,98642, Control_c, 0, 64, 58
2,98658, Control_c, 0, 64, 57
2,98665, Note_on_c, 0, 76, 75
2,98673, Control_c, 0, 64, 57
2,98675, Note_on_c, 0, 43, 75
2,98703, Control_c, 0, 64, 56
2,98714, Note_on_c, 0, 79, 0
2,98718, Control_c, 0, 64, 55
2,98734, Control_c, 0, 64, 47
2,98749, Control_c, 0, 64, 28
2,98765, Control_c, 0, 64, 0
2,98770, Note_on_c, 0, 45, 0
2,98876, Note_on_c, 0, 73, 0
2,98968, Note_on_c, 0, 81, 87
2,98970, Note_on_c, 0, 42, 75
2,99088, Note_on_c, 0, 43, 0
2,99117, Note_on_c, 0, 76, 0
2,99295, Note_on_c, 0, 40, 77
2,99297, Note_on_c, 0, 79, 87
2,99376, Note_on_c, 0, 81, 0
2,99428, Note_on_c, 0, 42, 0
2,99536, Control_c, 0, 64, 55
2,99550, Control_c, 0, 64, 64
2,99566, Control_c, 0, 64, 68
2,99581, Control_c, 0, 64, 71
2,99596, Control_c, 0, 64, 72
2,99612, Control_c, 0, 64, 71
2,99626, Control_c, 0, 64, 70
2,99642, Control_c, 0, 64, 68
2,99657, Control_c, 0, 64, 67
2,99671, Control_c, 0, 64, 67
2,99683, Note_on_c, 0, 38, 66
2,99702, Control_c, 0, 64, 66
2,99704, Note_on_c, 0, 74, 65
2,99704, Note_on_c, 0, 78, 74
2,99718, Control_c, 0, 64, 65
2,99733, Control_c, 0, 64, 64
2,99747, Control_c, 0, 64, 60
2,99763, Control_c, 0, 64, 47
2,99778, Control_c, 0, 64, 0
2,99787, Note_on_c, 0, 40, 0
2,99839, Note_on_c, 0, 79, 0
2,99869, Control_c, 0, 64, 59
2,99885, Control_c, 0, 64, 69
2,99907, Control_c, 0, 64, 78
2,99909, Note_on_c, 0, 38, 0
2,99923, Control_c, 0, 64, 91
2,99938, Control_c, 0, 64, 106
2,99953, Control_c, 0, 64, 113
2,99968, Control_c, 0, 64, 114
2,99983, Control_c, 0, 64, 116
2,99999, Control_c, 0, 64, 119
2,100013, Control_c, 0, 64, 120
2,100044, Control_c, 0, 64, 119
2,100059, Control_c, 0, 64, 118
2,100074, Control_c, 0, 64, 117
2,100089, Control_c, 0, 64, 115
2,100104, Control_c, 0, 64, 112
2,100120, Control_c, 0, 64, 111
2,100138, Note_on_c, 0, 79, 71
2,100147, Note_on_c, 0, 76, 57
2,100148, Note_on_c, 0, 62, 82
2,100150, Control_c, 0, 64, 113
2,100166, Control_c, 0, 64, 113
2,100196, Control_c, 0, 64, 106
2,100212, Control_c, 0, 64, 94
2,100226, Control_c, 0, 64, 79
2,100242, Control_c, 0, 64, 64
2,100257, Control_c, 0, 64, 33
2,100272, Control_c, 0, 64, 0
2,100278, Note_on_c, 0, 78, 0
2,100288, Control_c, 0, 64, 30
2,100303, Control_c, 0, 64, 59
2,100304, Note_on_c, 0, 74, 0
2,100318, Control_c, 0, 64, 67
2,100333, Control_c, 0, 64, 76
2,100348, Control_c, 0, 64, 91
2,100364, Control_c, 0, 64, 108
2,100379, Control_c, 0, 64, 113
2,100393, Control_c, 0, 64, 113
2,100424, Note_on_c, 0, 62, 0
2,100485, Control_c, 0, 64, 114
2,100500, Control_c, 0, 64, 115
2,100511, Note_on_c, 0, 62, 84
2,100513, Note_on_c, 0, 81, 78
2,100514, Control_c, 0, 64, 106
2,100514, Note_on_c, 0, 78, 71
2,100530, Control_c, 0, 64, 91
2,100545, Control_c, 0, 64, 75
2,100561, Control_c, 0, 64, 61
2,100576, Control_c, 0, 64, 17
2,100591, Control_c, 0, 64, 0
2,100606, Note_on_c, 0, 79, 0
2,100621, Control_c, 0, 64, 54
2,100636, Control_c, 0, 64, 66
2,100652, Control_c, 0, 64, 76
2,100674, Control_c, 0, 64, 94
2,100690, Control_c, 0, 64, 127
2,100701, Note_on_c, 0, 62, 0
2,100706, Note_on_c, 0, 76, 0
2,100844, Note_on_c, 0, 62, 77
2,100849, Note_on_c, 0, 50, 73
2,100902, Control_c, 0, 64, 98
2,100918, Control_c, 0, 64, 78
2,100933, Control_c, 0, 64, 58
2,100948, Control_c, 0, 64, 0
2,100979, Control_c, 0, 64, 25
2,100994, Control_c, 0, 64, 61
2,101009, Control_c, 0, 64, 73
2,101024, Control_c, 0, 64, 90
2,101040, Control_c, 0, 64, 127
2,101086, Control_c, 0, 64, 121
2,101101, Control_c, 0, 64, 113
2,101116, Control_c, 0, 64, 108
2,101132, Control_c, 0, 64, 103
2,101147, Control_c, 0, 64, 97
2,101147, Note_on_c, 0, 55, 78
2,101162, Control_c, 0, 64, 94
2,101163, Note_on_c, 0, 52, 72
2,101177, Control_c, 0, 64, 93
2,101192, Control_c, 0, 64, 91
2,101208, Control_c, 0, 64, 87
2,101223, Control_c, 0, 64, 83
2,101238, Control_c, 0, 64, 79
2,101253, Control_c, 0, 64, 76
2,101268, Control_c, 0, 64, 73
2,101284, Control_c, 0, 64, 69
2,101298, Control_c, 0, 64, 65
2,101303, Note_on_c, 0, 50, 0
2,101313, Control_c, 0, 64, 60
2,101329, Control_c, 0, 64, 54
2,101337, Note_on_c, 0, 62, 0
2,101344, Control_c, 0, 64, 46
2,101360, Control_c, 0, 64, 41
2,101374, Control_c, 0, 64, 35
2,101389, Control_c, 0, 64, 21
2,101405, Control_c, 0, 64, 0
2,101459, Note_on_c, 0, 74, 77
2,101474, Note_on_c, 0, 71, 62
2,101496, Note_on_c, 0, 81, 0
2,101534, Control_c, 0, 64, 22
2,101549, Control_c, 0, 64, 49
2,101552, Note_on_c, 0, 78, 0
2,101565, Control_c, 0, 64, 60
2,101579, Control_c, 0, 64, 65
2,101594, Control_c, 0, 64, 70
2,101610, Control_c, 0, 64, 76
2,101625, Control_c, 0, 64, 82
2,101641, Control_c, 0, 64, 85
2,101655, Control_c, 0, 64, 85
2,101670, Control_c, 0, 64, 83
2,101686, Control_c, 0, 64, 82
2,101700, Control_c, 0, 64, 80
2,101715, Control_c, 0, 64, 78
2,101731, Control_c, 0, 64, 77
2,101746, Control_c, 0, 64, 77
2,101762, Control_c, 0, 64, 76
2,101775, Note_on_c, 0, 59, 79
2,101776, Control_c, 0, 64, 75
2,101788, Note_on_c, 0, 79, 70
2,101791, Control_c, 0, 64, 75
2,101805, Note_on_c, 0, 76, 59
2,101807, Control_c, 0, 64, 74
2,101821, Control_c, 0, 64, 72
2,101836, Control_c, 0, 64, 68
2,101853, Control_c, 0, 64, 63
2,101868, Control_c, 0, 64, 57
2,101884, Control_c, 0, 64, 51
2,101887, Note_on_c, 0, 71, 0
2,101899, Control_c, 0, 64, 46
2,101902, Note_on_c, 0, 74, 0
2,101914, Control_c, 0, 64, 43
2,101944, Control_c, 0, 64, 44
2,101944, Note_on_c, 0, 52, 0
2,101944, Note_on_c, 0, 55, 0
2,101960, Control_c, 0, 64, 49
2,101975, Control_c, 0, 64, 56
2,101990, Control_c, 0, 64, 59
2,102005, Control_c, 0, 64, 60
2,102020, Control_c, 0, 64, 61
2,102066, Control_c, 0, 64, 60
2,102081, Control_c, 0, 64, 58
2,102095, Note_on_c, 0, 78, 72
2,102096, Control_c, 0, 64, 56
2,102106, Note_on_c, 0, 52, 63
2,102107, Note_on_c, 0, 74, 69
2,102111, Control_c, 0, 64, 54
2,102127, Control_c, 0, 64, 53
2,102141, Control_c, 0, 64, 51
2,102151, Note_on_c, 0, 76, 0
2,102156, Control_c, 0, 64, 50
2,102172, Control_c, 0, 64, 49
2,102187, Control_c, 0, 64, 48
2,102199, Note_on_c, 0, 79, 0
2,102225, Control_c, 0, 64, 48
2,102301, Control_c, 0, 64, 48
2,102316, Control_c, 0, 64, 49
2,102413, Note_on_c, 0, 57, 61
2,102436, Note_on_c, 0, 76, 70
2,102440, Note_on_c, 0, 73, 64
2,102468, Control_c, 0, 64, 48
2,102483, Control_c, 0, 64, 48
2,102495, Note_on_c, 0, 74, 0
2,102520, Note_on_c, 0, 52, 0
2,102529, Control_c, 0, 64, 51
2,102543, Control_c, 0, 64, 57
2,102547, Note_on_c, 0, 78, 0
2,102559, Control_c, 0, 64, 63
2,102574, Control_c, 0, 64, 67
2,102589, Control_c, 0, 64, 72
2,102605, Control_c, 0, 64, 76
2,102619, Control_c, 0, 64, 78
2,102634, Control_c, 0, 64, 78
2,102650, Control_c, 0, 64, 78
2,102682, Control_c, 0, 64, 77
2,102697, Control_c, 0, 64, 76
2,102712, Control_c, 0, 64, 76
2,102772, Control_c, 0, 64, 75
2,102774, Note_on_c, 0, 52, 68
2,102776, Note_on_c, 0, 55, 65
2,102800, Control_c, 0, 64, 74
2,102816, Control_c, 0, 64, 72
2,102831, Control_c, 0, 64, 69
2,102846, Control_c, 0, 64, 65
2,102847, Note_on_c, 0, 59, 0
2,102861, Control_c, 0, 64, 63
2,102906, Control_c, 0, 64, 63
2,102921, Control_c, 0, 64, 64
2,102927, Note_on_c, 0, 57, 0
2,102952, Control_c, 0, 64, 64
2,102955, Note_on_c, 0, 55, 0
2,102968, Control_c, 0, 64, 65
2,103097, Control_c, 0, 64, 64
2,103099, Note_on_c, 0, 57, 72
2,103103, Note_on_c, 0, 54, 68
2,103142, Control_c, 0, 64, 64
2,103173, Control_c, 0, 64, 63
2,103176, Note_on_c, 0, 52, 0
2,103187, Control_c, 0, 64, 61
2,103202, Control_c, 0, 64, 59
2,103218, Control_c, 0, 64, 57
2,103233, Control_c, 0, 64, 55
2,103249, Control_c, 0, 64, 52
2,103264, Control_c, 0, 64, 50
2,103278, Control_c, 0, 64, 46
2,103295, Control_c, 0, 64, 41
2,103309, Control_c, 0, 64, 35
2,103325, Control_c, 0, 64, 30
2,103340, Control_c, 0, 64, 22
2,103355, Control_c, 0, 64, 0
2,103383, Note_on_c, 0, 55, 60
2,103391, Note_on_c, 0, 52, 58
2,103400, Note_on_c, 0, 64, 78
2,103464, Note_on_c, 0, 54, 0
2,103499, Note_on_c, 0, 73, 0
2,103502, Note_on_c, 0, 57, 0
2,103681, Note_on_c, 0, 50, 57
2,103692, Note_on_c, 0, 69, 74
2,103700, Note_on_c, 0, 54, 54
2,103779, Note_on_c, 0, 64, 0
2,103817, Note_on_c, 0, 55, 0
2,103820, Note_on_c, 0, 52, 0
2,103991, Note_on_c, 0, 67, 74
2,104000, Note_on_c, 0, 55, 65
2,104013, Note_on_c, 0, 52, 68
2,104080, Note_on_c, 0, 69, 0
2,104087, Note_on_c, 0, 54, 0
2,104123, Control_c, 0, 64, 19
2,104129, Note_on_c, 0, 50, 0
2,104139, Control_c, 0, 64, 48
2,104144, Note_on_c, 0, 76, 0
2,104153, Control_c, 0, 64, 54
2,104169, Control_c, 0, 64, 55
2,104184, Control_c, 0, 64, 55
2,104229, Control_c, 0, 64, 55
2,104245, Control_c, 0, 64, 53
2,104260, Control_c, 0, 64, 51
2,104275, Control_c, 0, 64, 49
2,104291, Control_c, 0, 64, 47
2,104297, Note_on_c, 0, 54, 58
2,104297, Note_on_c, 0, 74, 68
2,104299, Note_on_c, 0, 57, 57
2,104306, Note_on_c, 0, 66, 64
2,104307, Control_c, 0, 64, 45
2,104322, Control_c, 0, 64, 43
2,104337, Control_c, 0, 64, 41
2,104352, Control_c, 0, 64, 38
2,104368, Control_c, 0, 64, 33
2,104383, Control_c, 0, 64, 28
2,104396, Note_on_c, 0, 55, 0
2,104397, Control_c, 0, 64, 23
2,104413, Control_c, 0, 64, 20
2,104415, Note_on_c, 0, 52, 0
2,104421, Note_on_c, 0, 67, 0
2,104428, Control_c, 0, 64, 16
2,104443, Control_c, 0, 64, 8
2,104459, Control_c, 0, 64, 0
2,104612, Note_on_c, 0, 72, 72
2,104621, Note_on_c, 0, 64, 61
2,104662, Note_on_c, 0, 74, 0
2,104695, Control_c, 0, 64, 25
2,104709, Control_c, 0, 64, 39
2,104725, Control_c, 0, 64, 45
2,104740, Control_c, 0, 64, 48
2,104755, Control_c, 0, 64, 50
2,104771, Control_c, 0, 64, 53
2,104786, Control_c, 0, 64, 55
2,104792, Note_on_c, 0, 64, 0
2,104800, Control_c, 0, 64, 56
2,104816, Control_c, 0, 64, 57
2,104847, Control_c, 0, 64, 57
2,104876, Control_c, 0, 64, 56
2,104892, Control_c, 0, 64, 51
2,104903, Note_on_c, 0, 71, 68
2,104907, Control_c, 0, 64, 44
2,104912, Note_on_c, 0, 62, 51
2,104921, Control_c, 0, 64, 37
2,104952, Control_c, 0, 64, 39
2,104968, Control_c, 0, 64, 49
2,104969, Note_on_c, 0, 72, 0
2,104983, Control_c, 0, 64, 57
2,104997, Control_c, 0, 64, 62
2,105013, Control_c, 0, 64, 65
2,105028, Control_c, 0, 64, 70
2,105043, Control_c, 0, 64, 75
2,105051, Note_on_c, 0, 66, 0
2,105059, Control_c, 0, 64, 79
2,105073, Control_c, 0, 64, 82
2,105089, Control_c, 0, 64, 83
2,105104, Control_c, 0, 64, 83
2,105119, Control_c, 0, 64, 82
2,105136, Control_c, 0, 64, 81
2,105150, Control_c, 0, 64, 80
2,105166, Control_c, 0, 64, 79
2,105181, Control_c, 0, 64, 78
2,105196, Control_c, 0, 64, 77
2,105200, Note_on_c, 0, 50, 61
2,105207, Note_on_c, 0, 47, 59
2,105212, Control_c, 0, 64, 75
2,105226, Control_c, 0, 64, 73
2,105241, Control_c, 0, 64, 72
2,105257, Control_c, 0, 64, 70
2,105272, Control_c, 0, 64, 68
2,105296, Control_c, 0, 64, 66
2,105296, Note_on_c, 0, 57, 0
2,105310, Control_c, 0, 64, 64
2,105326, Control_c, 0, 64, 63
2,105341, Control_c, 0, 64, 62
2,105343, Note_on_c, 0, 54, 0
2,105356, Control_c, 0, 64, 61
2,105371, Control_c, 0, 64, 59
2,105386, Control_c, 0, 64, 56
2,105401, Control_c, 0, 64, 53
2,105417, Control_c, 0, 64, 51
2,105431, Control_c, 0, 64, 50
2,105447, Control_c, 0, 64, 49
2,105462, Control_c, 0, 64, 47
2,105477, Control_c, 0, 64, 45
2,105493, Control_c, 0, 64, 42
2,105507, Control_c, 0, 64, 40
2,105515, Note_on_c, 0, 52, 62
2,105522, Control_c, 0, 64, 39
2,105526, Note_on_c, 0, 55, 58
2,105529, Note_on_c, 0, 61, 60
2,105538, Control_c, 0, 64, 36
2,105553, Control_c, 0, 64, 31
2,105569, Control_c, 0, 64, 19
2,105584, Control_c, 0, 64, 0
2,105637, Note_on_c, 0, 47, 0
2,105654, Note_on_c, 0, 50, 0
2,105658, Note_on_c, 0, 62, 0
2,105828, Note_on_c, 0, 54, 59
2,105828, Note_on_c, 0, 62, 61
2,105836, Note_on_c, 0, 50, 52
2,105890, Note_on_c, 0, 55, 0
2,105903, Control_c, 0, 64, 43
2,105916, Note_on_c, 0, 52, 0
2,105917, Control_c, 0, 64, 55
2,105930, Note_on_c, 0, 61, 0
2,105933, Control_c, 0, 64, 60
2,105949, Control_c, 0, 64, 63
2,105965, Control_c, 0, 64, 65
2,105980, Control_c, 0, 64, 67
2,105988, Note_on_c, 0, 54, 0
2,105994, Control_c, 0, 64, 69
2,106010, Control_c, 0, 64, 69
2,106015, Note_on_c, 0, 50, 0
2,106064, Control_c, 0, 64, 69
2,106078, Control_c, 0, 64, 68
2,106109, Note_on_c, 0, 52, 60
2,106113, Note_on_c, 0, 64, 69
2,106127, Control_c, 0, 64, 68
2,106134, Note_on_c, 0, 49, 58
2,106142, Control_c, 0, 64, 67
2,106156, Control_c, 0, 64, 65
2,106172, Control_c, 0, 64, 60
2,106187, Control_c, 0, 64, 33
2,106203, Control_c, 0, 64, 0
2,106263, Control_c, 0, 64, 26
2,106268, Note_on_c, 0, 62, 0
2,106278, Control_c, 0, 64, 48
2,106293, Control_c, 0, 64, 57
2,106301, Note_on_c, 0, 64, 0
2,106308, Control_c, 0, 64, 61
2,106324, Control_c, 0, 64, 63
2,106339, Control_c, 0, 64, 65
2,106354, Control_c, 0, 64, 65
2,106369, Control_c, 0, 64, 65
2,106384, Control_c, 0, 64, 62
2,106400, Control_c, 0, 64, 57
2,106415, Control_c, 0, 64, 56
2,106418, Note_on_c, 0, 47, 63
2,106420, Note_on_c, 0, 64, 70
2,106424, Note_on_c, 0, 62, 46
2,106430, Control_c, 0, 64, 57
2,106446, Control_c, 0, 64, 60
2,106461, Control_c, 0, 64, 62
2,106475, Control_c, 0, 64, 63
2,106491, Control_c, 0, 64, 64
2,106506, Control_c, 0, 64, 67
2,106515, Note_on_c, 0, 49, 0
2,106520, Note_on_c, 0, 71, 0
2,106522, Control_c, 0, 64, 69
2,106536, Control_c, 0, 64, 71
2,106551, Control_c, 0, 64, 72
2,106568, Note_on_c, 0, 62, 0
2,106612, Control_c, 0, 64, 72
2,106627, Control_c, 0, 64, 71
2,106643, Control_c, 0, 64, 70
2,106658, Control_c, 0, 64, 69
2,106673, Control_c, 0, 64, 67
2,106688, Control_c, 0, 64, 66
2,106703, Control_c, 0, 64, 66
2,106716, Note_on_c, 0, 45, 58
2,106719, Control_c, 0, 64, 65
2,106734, Control_c, 0, 64, 64
2,106742, Note_on_c, 0, 61, 55
2,106744, Note_on_c, 0, 69, 55
2,106748, Control_c, 0, 64, 63
2,106766, Control_c, 0, 64, 62
2,106781, Control_c, 0, 64, 61
2,106795, Control_c, 0, 64, 61
2,106811, Control_c, 0, 64, 60
2,106833, Control_c, 0, 64, 59
2,106843, Note_on_c, 0, 64, 0
2,106849, Control_c, 0, 64, 57
2,106864, Control_c, 0, 64, 55
2,106880, Control_c, 0, 64, 51
2,106895, Control_c, 0, 64, 46
2,106910, Control_c, 0, 64, 37
2,106925, Control_c, 0, 64, 0
2,106945, Note_on_c, 0, 47, 0
2,106970, Note_on_c, 0, 52, 0
2,107066, Note_on_c, 0, 67, 63
2,107072, Note_on_c, 0, 64, 55
2,107144, Note_on_c, 0, 69, 0
2,107181, Note_on_c, 0, 61, 0
2,107378, Note_on_c, 0, 66, 65
2,107457, Note_on_c, 0, 67, 0
2,107471, Control_c, 0, 64, 50
2,107487, Control_c, 0, 64, 60
2,107502, Control_c, 0, 64, 65
2,107518, Control_c, 0, 64, 69
2,107532, Control_c, 0, 64, 75
2,107547, Control_c, 0, 64, 80
2,107563, Control_c, 0, 64, 83
2,107586, Control_c, 0, 64, 84
2,107647, Control_c, 0, 64, 84
2,107691, Control_c, 0, 64, 83
2,107706, Control_c, 0, 64, 83
2,107718, Note_on_c, 0, 57, 73
2,107721, Control_c, 0, 64, 82
2,107737, Control_c, 0, 64, 81
2,107758, Note_on_c, 0, 62, 47
2,107767, Control_c, 0, 64, 80
2,107782, Control_c, 0, 64, 78
2,107797, Control_c, 0, 64, 75
2,107813, Control_c, 0, 64, 73
2,107827, Control_c, 0, 64, 72
2,107842, Control_c, 0, 64, 72
2,107858, Control_c, 0, 64, 73
2,107878, Note_on_c, 0, 64, 0
2,107889, Control_c, 0, 64, 72
2,107918, Control_c, 0, 64, 72
2,107951, Note_on_c, 0, 45, 0
2,107963, Note_on_c, 0, 57, 0
2,108039, Control_c, 0, 64, 71
2,108055, Control_c, 0, 64, 65
2,108064, Note_on_c, 0, 57, 77
2,108070, Control_c, 0, 64, 48
2,108081, Note_on_c, 0, 64, 56
2,108086, Control_c, 0, 64, 39
2,108115, Control_c, 0, 64, 41
2,108131, Control_c, 0, 64, 49
2,108146, Control_c, 0, 64, 57
2,108161, Control_c, 0, 64, 63
2,108177, Control_c, 0, 64, 67
2,108192, Control_c, 0, 64, 72
2,108208, Control_c, 0, 64, 76
2,108222, Control_c, 0, 64, 79
2,108237, Control_c, 0, 64, 81
2,108253, Control_c, 0, 64, 85
2,108258, Note_on_c, 0, 57, 0
2,108268, Control_c, 0, 64, 88
2,108281, Control_c, 0, 64, 91
2,108296, Control_c, 0, 64, 89
2,108311, Control_c, 0, 64, 82
2,108326, Control_c, 0, 64, 70
2,108342, Control_c, 0, 64, 60
2,108364, Control_c, 0, 64, 54
2,108374, Note_on_c, 0, 57, 73
2,108380, Control_c, 0, 64, 57
2,108392, Note_on_c, 0, 61, 57
2,108394, Control_c, 0, 64, 61
2,108410, Control_c, 0, 64, 64
2,108426, Control_c, 0, 64, 68
2,108430, Note_on_c, 0, 64, 0
2,108441, Control_c, 0, 64, 73
2,108456, Control_c, 0, 64, 77
2,108467, Note_on_c, 0, 62, 0
2,108471, Control_c, 0, 64, 80
2,108486, Control_c, 0, 64, 82
2,108493, Note_on_c, 0, 66, 0
2,108517, Control_c, 0, 64, 82
2,108533, Control_c, 0, 64, 81
2,108562, Control_c, 0, 64, 81
2,108578, Control_c, 0, 64, 79
2,108593, Control_c, 0, 64, 75
2,108608, Control_c, 0, 64, 72
2,108624, Control_c, 0, 64, 71
2,108639, Control_c, 0, 64, 70
2,108655, Control_c, 0, 64, 70
2,108669, Control_c, 0, 64, 69
2,108677, Note_on_c, 0, 51, 86
2,108684, Control_c, 0, 64, 68
2,108697, Note_on_c, 0, 66, 57
2,108700, Control_c, 0, 64, 67
2,108709, Note_on_c, 0, 60, 55
2,108715, Control_c, 0, 64, 64
2,108730, Control_c, 0, 64, 60
2,108745, Control_c, 0, 64, 48
2,108760, Control_c, 0, 64, 0
2,108802, Note_on_c, 0, 57, 0
2,108820, Note_on_c, 0, 61, 0
2,108836, Control_c, 0, 64, 40
2,108852, Control_c, 0, 64, 59
2,108865, Note_on_c, 0, 60, 0
2,108866, Control_c, 0, 64, 63
2,108881, Control_c, 0, 64, 63
2,108942, Control_c, 0, 64, 63
2,108957, Control_c, 0, 64, 62
2,108973, Control_c, 0, 64, 61
2,109012, Note_on_c, 0, 52, 65
2,109013, Note_on_c, 0, 68, 69
2,109018, Note_on_c, 0, 59, 56
2,109033, Control_c, 0, 64, 61
2,109048, Control_c, 0, 64, 59
2,109064, Control_c, 0, 64, 52
2,109079, Control_c, 0, 64, 34
2,109095, Control_c, 0, 64, 0
2,109103, Note_on_c, 0, 66, 0
2,109151, Note_on_c, 0, 51, 0
2,109193, Control_c, 0, 64, 44
2,109200, Note_on_c, 0, 59, 0
2,109207, Control_c, 0, 64, 62
2,109225, Control_c, 0, 64, 68
2,109240, Control_c, 0, 64, 73
2,109255, Control_c, 0, 64, 76
2,109270, Control_c, 0, 64, 77
2,109315, Control_c, 0, 64, 76
2,109330, Control_c, 0, 64, 74
2,109346, Control_c, 0, 64, 73
2,109361, Control_c, 0, 64, 72
2,109375, Note_on_c, 0, 53, 69
2,109376, Control_c, 0, 64, 71
2,109391, Control_c, 0, 64, 70
2,109406, Control_c, 0, 64, 68
2,109422, Control_c, 0, 64, 66
2,109423, Note_on_c, 0, 69, 63
2,109432, Note_on_c, 0, 57, 59
2,109483, Control_c, 0, 64, 65
2,109498, Control_c, 0, 64, 63
2,109513, Control_c, 0, 64, 59
2,109521, Note_on_c, 0, 68, 0
2,109528, Control_c, 0, 64, 53
2,109544, Control_c, 0, 64, 42
2,109551, Note_on_c, 0, 52, 0
2,109559, Control_c, 0, 64, 28
2,109575, Control_c, 0, 64, 0
2,109786, Note_on_c, 0, 60, 69
2,109801, Control_c, 0, 64, 18
2,109817, Control_c, 0, 64, 30
2,109864, Note_on_c, 0, 57, 0
2,109877, Control_c, 0, 64, 32
2,109901, Control_c, 0, 64, 36
2,109915, Control_c, 0, 64, 41
2,109930, Control_c, 0, 64, 45
2,109946, Control_c, 0, 64, 49
2,109961, Control_c, 0, 64, 53
2,109977, Control_c, 0, 64, 55
2,109991, Control_c, 0, 64, 57
2,110006, Control_c, 0, 64, 58
2,110022, Control_c, 0, 64, 59
2,110037, Control_c, 0, 64, 60
2,110054, Control_c, 0, 64, 61
2,110116, Note_on_c, 0, 62, 67
2,110174, Note_on_c, 0, 60, 0
2,110266, Control_c, 0, 64, 61
2,110281, Control_c, 0, 64, 60
2,110297, Control_c, 0, 64, 59
2,110312, Control_c, 0, 64, 59
2,110327, Control_c, 0, 64, 58
2,110342, Control_c, 0, 64, 58
2,110357, Control_c, 0, 64, 57
2,110373, Control_c, 0, 64, 56
2,110388, Control_c, 0, 64, 54
2,110403, Control_c, 0, 64, 52
2,110419, Control_c, 0, 64, 51
2,110419, Note_on_c, 0, 47, 62
2,110419, Note_on_c, 0, 59, 68
2,110433, Note_on_c, 0, 64, 67
2,110434, Control_c, 0, 64, 50
2,110449, Control_c, 0, 64, 50
2,110465, Control_c, 0, 64, 49
2,110479, Control_c, 0, 64, 47
2,110479, Note_on_c, 0, 62, 0
2,110495, Control_c, 0, 64, 45
2,110510, Control_c, 0, 64, 43
2,110525, Control_c, 0, 64, 42
2,110538, Note_on_c, 0, 53, 0
2,110565, Note_on_c, 0, 65, 76
2,110570, Control_c, 0, 64, 42
2,110586, Control_c, 0, 64, 41
2,110587, Note_on_c, 0, 59, 0
2,110587, Note_on_c, 0, 64, 0
2,110601, Control_c, 0, 64, 40
2,110617, Control_c, 0, 64, 39
2,110646, Control_c, 0, 64, 39
2,110669, Control_c, 0, 64, 38
2,110684, Control_c, 0, 64, 37
2,110700, Control_c, 0, 64, 35
2,110713, Note_on_c, 0, 68, 71
2,110714, Note_on_c, 0, 64, 66
2,110715, Control_c, 0, 64, 33
2,110716, Note_on_c, 0, 59, 67
2,110726, Note_on_c, 0, 52, 64
2,110730, Control_c, 0, 64, 22
2,110746, Control_c, 0, 64, 0
2,110755, Note_on_c, 0, 69, 0
2,110806, Note_on_c, 0, 65, 0
2,110876, Note_on_c, 0, 47, 0
2,110909, Note_on_c, 0, 59, 0
2,111022, Note_on_c, 0, 59, 73
2,111024, Note_on_c, 0, 50, 68
2,111129, Control_c, 0, 64, 46
2,111144, Control_c, 0, 64, 58
2,111145, Note_on_c, 0, 52, 0
2,111160, Control_c, 0, 64, 63
2,111175, Control_c, 0, 64, 66
2,111190, Control_c, 0, 64, 68
2,111204, Note_on_c, 0, 50, 0
2,111206, Control_c, 0, 64, 69
2,111266, Control_c, 0, 64, 69
2,111355, Note_on_c, 0, 52, 50
2,111358, Control_c, 0, 64, 67
2,111360, Note_on_c, 0, 69, 61
2,111368, Note_on_c, 0, 49, 54
2,111373, Control_c, 0, 64, 63
2,111388, Control_c, 0, 64, 49
2,111402, Note_on_c, 0, 68, 0
2,111403, Control_c, 0, 64, 0
2,111449, Note_on_c, 0, 59, 0
2,111453, Note_on_c, 0, 64, 0
2,111518, Control_c, 0, 64, 48
2,111527, Note_on_c, 0, 69, 0
2,111532, Control_c, 0, 64, 63
2,111547, Control_c, 0, 64, 69
2,111563, Control_c, 0, 64, 76
2,111578, Control_c, 0, 64, 82
2,111593, Control_c, 0, 64, 87
2,111608, Control_c, 0, 64, 91
2,111639, Control_c, 0, 64, 90
2,111654, Control_c, 0, 64, 88
2,111668, Control_c, 0, 64, 88
2,111701, Control_c, 0, 64, 87
2,111715, Control_c, 0, 64, 86
2,111720, Note_on_c, 0, 45, 51
2,111731, Control_c, 0, 64, 85
2,111746, Control_c, 0, 64, 83
2,111761, Control_c, 0, 64, 80
2,111763, Note_on_c, 0, 81, 85
2,111776, Control_c, 0, 64, 74
2,111791, Control_c, 0, 64, 66
2,111807, Control_c, 0, 64, 51
2,111822, Control_c, 0, 64, 0
2,111826, Note_on_c, 0, 52, 0
2,111893, Note_on_c, 0, 49, 0
2,111898, Control_c, 0, 64, 44
2,111912, Control_c, 0, 64, 58
2,111928, Control_c, 0, 64, 62
2,111943, Control_c, 0, 64, 64
2,111959, Control_c, 0, 64, 66
2,111967, Note_on_c, 0, 81, 0
2,111973, Control_c, 0, 64, 68
2,111988, Control_c, 0, 64, 70
2,112004, Control_c, 0, 64, 73
2,112019, Control_c, 0, 64, 75
2,112034, Control_c, 0, 64, 76
2,112065, Control_c, 0, 64, 74
2,112073, Note_on_c, 0, 50, 57
2,112080, Control_c, 0, 64, 69
2,112081, Note_on_c, 0, 81, 86
2,112095, Control_c, 0, 64, 59
2,112110, Control_c, 0, 64, 21
2,112126, Control_c, 0, 64, 0
2,112171, Control_c, 0, 64, 39
2,112193, Control_c, 0, 64, 58
2,112193, Note_on_c, 0, 45, 0
2,112209, Control_c, 0, 64, 65
2,112224, Control_c, 0, 64, 70
2,112240, Control_c, 0, 64, 76
2,112254, Control_c, 0, 64, 81
2,112269, Control_c, 0, 64, 83
2,112282, Note_on_c, 0, 81, 0
2,112315, Control_c, 0, 64, 82
2,112331, Control_c, 0, 64, 81
2,112346, Control_c, 0, 64, 80
2,112362, Control_c, 0, 64, 79
2,112376, Control_c, 0, 64, 78
2,112380, Note_on_c, 0, 49, 47
2,112391, Control_c, 0, 64, 77
2,112399, Note_on_c, 0, 81, 78
2,112404, Note_on_c, 0, 78, 78
2,112438, Control_c, 0, 64, 74
2,112452, Control_c, 0, 64, 66
2,112467, Control_c, 0, 64, 49
2,112483, Control_c, 0, 64, 0
2,112489, Note_on_c, 0, 50, 0
2,112530, Control_c, 0, 64, 28
2,112545, Control_c, 0, 64, 57
2,112560, Control_c, 0, 64, 65
2,112564, Note_on_c, 0, 78, 0
2,112575, Control_c, 0, 64, 70
2,112590, Control_c, 0, 64, 76
2,112605, Control_c, 0, 64, 79
2,112620, Control_c, 0, 64, 79
2,112673, Note_on_c, 0, 47, 60
2,112681, Control_c, 0, 64, 80
2,112696, Control_c, 0, 64, 80
2,112711, Control_c, 0, 64, 80
2,112723, Note_on_c, 0, 49, 0
2,112725, Note_on_c, 0, 74, 73
2,112727, Control_c, 0, 64, 78
2,112728, Note_on_c, 0, 78, 74
2,112741, Control_c, 0, 64, 72
2,112756, Control_c, 0, 64, 63
2,112772, Control_c, 0, 64, 39
2,112787, Control_c, 0, 64, 0
2,112848, Control_c, 0, 64, 53
2,112848, Note_on_c, 0, 47, 0
2,112863, Control_c, 0, 64, 63
2,112865, Note_on_c, 0, 81, 0
2,112879, Control_c, 0, 64, 68
2,112893, Control_c, 0, 64, 74
2,112908, Control_c, 0, 64, 81
2,112909, Note_on_c, 0, 78, 0
2,112924, Control_c, 0, 64, 86
2,112939, Control_c, 0, 64, 92
2,112954, Control_c, 0, 64, 96
2,112977, Control_c, 0, 64, 97
2,112992, Control_c, 0, 64, 97
2,113008, Control_c, 0, 64, 94
2,113022, Control_c, 0, 64, 89
2,113038, Control_c, 0, 64, 80
2,113040, Note_on_c, 0, 62, 74
2,113046, Note_on_c, 0, 78, 69
2,113053, Control_c, 0, 64, 68
2,113068, Control_c, 0, 64, 51
2,113084, Control_c, 0, 64, 0
2,113144, Control_c, 0, 64, 31
2,113160, Control_c, 0, 64, 58
2,113175, Control_c, 0, 64, 65
2,113190, Control_c, 0, 64, 69
2,113205, Control_c, 0, 64, 74
2,113212, Note_on_c, 0, 74, 0
2,113220, Control_c, 0, 64, 78
2,113230, Note_on_c, 0, 78, 0
2,113235, Control_c, 0, 64, 80
2,113257, Note_on_c, 0, 62, 0
2,113282, Control_c, 0, 64, 81
2,113297, Control_c, 0, 64, 82
2,113312, Control_c, 0, 64, 85
2,113328, Control_c, 0, 64, 84
2,113342, Note_on_c, 0, 78, 80
2,113343, Control_c, 0, 64, 76
2,113345, Note_on_c, 0, 62, 75
2,113359, Control_c, 0, 64, 65
2,113360, Note_on_c, 0, 71, 58
2,113373, Control_c, 0, 64, 46
2,113388, Control_c, 0, 64, 24
2,113404, Control_c, 0, 64, 21
2,113419, Control_c, 0, 64, 26
2,113434, Control_c, 0, 64, 53
2,113450, Control_c, 0, 64, 63
2,113465, Control_c, 0, 64, 68
2,113481, Control_c, 0, 64, 73
2,113493, Note_on_c, 0, 62, 0
2,113496, Control_c, 0, 64, 80
2,113511, Control_c, 0, 64, 86
2,113526, Control_c, 0, 64, 91
2,113541, Control_c, 0, 64, 95
2,113556, Control_c, 0, 64, 98
2,113572, Control_c, 0, 64, 99
2,113586, Control_c, 0, 64, 100
2,113617, Control_c, 0, 64, 100
2,113632, Control_c, 0, 64, 99
2,113648, Control_c, 0, 64, 93
2,113655, Note_on_c, 0, 59, 68
2,113656, Note_on_c, 0, 62, 66
2,113662, Control_c, 0, 64, 82
2,113678, Control_c, 0, 64, 68
2,113693, Control_c, 0, 64, 52
2,113708, Control_c, 0, 64, 37
2,113724, Control_c, 0, 64, 38
2,113746, Control_c, 0, 64, 54
2,113762, Control_c, 0, 64, 63
2,113777, Control_c, 0, 64, 70
2,113791, Control_c, 0, 64, 81
2,113807, Control_c, 0, 64, 96
2,113822, Control_c, 0, 64, 114
2,113838, Control_c, 0, 64, 112
2,113841, Note_on_c, 0, 59, 0
2,113853, Control_c, 0, 64, 110
2,113857, Note_on_c, 0, 62, 0
2,113883, Control_c, 0, 64, 111
2,113929, Control_c, 0, 64, 111
2,113962, Note_on_c, 0, 59, 58
2,113973, Note_on_c, 0, 56, 58
2,113973, Note_on_c, 0, 74, 74
2,113974, Control_c, 0, 64, 110
2,113988, Control_c, 0, 64, 104
2,114004, Control_c, 0, 64, 93
2,114019, Control_c, 0, 64, 79
2,114034, Control_c, 0, 64, 64
2,114049, Control_c, 0, 64, 23
2,114063, Control_c, 0, 64, 0
2,114109, Control_c, 0, 64, 52
2,114110, Note_on_c, 0, 71, 0
2,114124, Control_c, 0, 64, 64
2,114132, Note_on_c, 0, 59, 0
2,114141, Control_c, 0, 64, 71
2,114155, Control_c, 0, 64, 81
2,114171, Control_c, 0, 64, 95
2,114186, Control_c, 0, 64, 110
2,114188, Note_on_c, 0, 78, 0
2,114202, Control_c, 0, 64, 116
2,114216, Control_c, 0, 64, 103
2,114231, Control_c, 0, 64, 87
2,114247, Control_c, 0, 64, 72
2,114262, Control_c, 0, 64, 62
2,114265, Note_on_c, 0, 59, 63
2,114270, Note_on_c, 0, 71, 65
2,114292, Control_c, 0, 64, 66
2,114307, Control_c, 0, 64, 71
2,114323, Control_c, 0, 64, 78
2,114338, Control_c, 0, 64, 87
2,114353, Control_c, 0, 64, 95
2,114368, Control_c, 0, 64, 105
2,114382, Note_on_c, 0, 59, 0
2,114383, Control_c, 0, 64, 111
2,114388, Note_on_c, 0, 74, 0
2,114399, Control_c, 0, 64, 113
2,114414, Control_c, 0, 64, 113
2,114444, Control_c, 0, 64, 113
2,114459, Control_c, 0, 64, 110
2,114474, Control_c, 0, 64, 107
2,114490, Control_c, 0, 64, 105
2,114512, Control_c, 0, 64, 104
2,114528, Control_c, 0, 64, 103
2,114543, Control_c, 0, 64, 99
2,114558, Control_c, 0, 64, 95
2,114569, Note_on_c, 0, 59, 65
2,114573, Control_c, 0, 64, 91
2,114581, Note_on_c, 0, 76, 67
2,114583, Note_on_c, 0, 52, 62
2,114588, Control_c, 0, 64, 89
2,114649, Control_c, 0, 64, 89
2,114664, Control_c, 0, 64, 88
2,114680, Control_c, 0, 64, 85
2,114682, Note_on_c, 0, 71, 0
2,114695, Control_c, 0, 64, 80
2,114709, Control_c, 0, 64, 77
2,114725, Control_c, 0, 64, 75
2,114740, Control_c, 0, 64, 73
2,114755, Control_c, 0, 64, 71
2,114771, Control_c, 0, 64, 68
2,114777, Note_on_c, 0, 56, 0
2,114786, Control_c, 0, 64, 65
2,114801, Control_c, 0, 64, 63
2,114816, Control_c, 0, 64, 61
2,114831, Control_c, 0, 64, 55
2,114847, Control_c, 0, 64, 41
2,114862, Control_c, 0, 64, 10
2,114878, Control_c, 0, 64, 0
2,114881, Note_on_c, 0, 74, 68
2,114889, Note_on_c, 0, 68, 57
2,114928, Note_on_c, 0, 76, 0
2,114938, Control_c, 0, 64, 25
2,114954, Control_c, 0, 64, 45
2,114969, Control_c, 0, 64, 55
2,114984, Control_c, 0, 64, 60
2,115000, Control_c, 0, 64, 63
2,115015, Control_c, 0, 64, 67
2,115030, Control_c, 0, 64, 71
2,115046, Control_c, 0, 64, 75
2,115060, Control_c, 0, 64, 78
2,115075, Control_c, 0, 64, 78
2,115122, Control_c, 0, 64, 78
2,115136, Control_c, 0, 64, 77
2,115151, Control_c, 0, 64, 76
2,115167, Control_c, 0, 64, 75
2,115182, Control_c, 0, 64, 74
2,115205, Note_on_c, 0, 55, 57
2,115212, Control_c, 0, 64, 74
2,115227, Control_c, 0, 64, 73
2,115243, Control_c, 0, 64, 73
2,115253, Note_on_c, 0, 73, 70
2,115311, Control_c, 0, 64, 72
2,115327, Control_c, 0, 64, 68
2,115342, Control_c, 0, 64, 62
2,115356, Control_c, 0, 64, 53
2,115367, Note_on_c, 0, 52, 0
2,115372, Control_c, 0, 64, 51
2,115380, Note_on_c, 0, 68, 0
2,115402, Control_c, 0, 64, 52
2,115417, Note_on_c, 0, 74, 0
2,115508, Control_c, 0, 64, 51
2,115542, Note_on_c, 0, 52, 48
2,115553, Control_c, 0, 64, 51
2,115560, Note_on_c, 0, 71, 67
2,115569, Control_c, 0, 64, 47
2,115584, Control_c, 0, 64, 36
2,115599, Control_c, 0, 64, 0
2,115623, Note_on_c, 0, 59, 0
2,115675, Control_c, 0, 64, 45
2,115691, Control_c, 0, 64, 55
2,115706, Control_c, 0, 64, 59
2,115722, Control_c, 0, 64, 62
2,115737, Control_c, 0, 64, 64
2,115751, Control_c, 0, 64, 66
2,115767, Control_c, 0, 64, 68
2,115782, Control_c, 0, 64, 68
2,115798, Control_c, 0, 64, 66
2,115813, Control_c, 0, 64, 61
2,115828, Control_c, 0, 64, 52
2,115840, Note_on_c, 0, 57, 53
2,115844, Control_c, 0, 64, 49
2,115865, Note_on_c, 0, 69, 67
2,115874, Control_c, 0, 64, 51
2,115890, Control_c, 0, 64, 54
2,115904, Control_c, 0, 64, 57
2,115912, Note_on_c, 0, 52, 0
2,115920, Control_c, 0, 64, 61
2,115935, Control_c, 0, 64, 65
2,115950, Control_c, 0, 64, 69
2,115954, Note_on_c, 0, 55, 0
2,115966, Control_c, 0, 64, 72
2,115980, Control_c, 0, 64, 75
2,115995, Control_c, 0, 64, 77
2,116011, Control_c, 0, 64, 78
2,116014, Note_on_c, 0, 71, 0
2,116020, Note_on_c, 0, 57, 0
2,116125, Control_c, 0, 64, 78
2,116140, Control_c, 0, 64, 77
2,116143, Note_on_c, 0, 55, 54
2,116159, Note_on_c, 0, 49, 53
2,116201, Control_c, 0, 64, 77
2,116216, Control_c, 0, 64, 75
2,116231, Control_c, 0, 64, 74
2,116246, Control_c, 0, 64, 73
2,116261, Control_c, 0, 64, 72
2,116276, Control_c, 0, 64, 71
2,116292, Control_c, 0, 64, 70
2,116307, Control_c, 0, 64, 69
2,116322, Control_c, 0, 64, 68
2,116337, Control_c, 0, 64, 67
2,116352, Control_c, 0, 64, 65
2,116367, Control_c, 0, 64, 64
2,116397, Control_c, 0, 64, 64
2,116413, Control_c, 0, 64, 63
2,116428, Control_c, 0, 64, 63
2,116461, Note_on_c, 0, 54, 39
2,116480, Note_on_c, 0, 72, 72
2,116535, Control_c, 0, 64, 62
2,116550, Control_c, 0, 64, 59
2,116565, Control_c, 0, 64, 55
2,116580, Control_c, 0, 64, 53
2,116599, Note_on_c, 0, 55, 0
2,116621, Note_on_c, 0, 73, 0
2,116639, Note_on_c, 0, 49, 0
2,116668, Note_on_c, 0, 69, 0
2,116790, Note_on_c, 0, 52, 53
2,116804, Note_on_c, 0, 67, 61
2,116907, Control_c, 0, 64, 52
2,116923, Control_c, 0, 64, 52
2,116938, Control_c, 0, 64, 51
2,117029, Control_c, 0, 64, 50
2,117045, Control_c, 0, 64, 49
2,117060, Control_c, 0, 64, 48
2,117075, Control_c, 0, 64, 47
2,117082, Note_on_c, 0, 50, 55
2,117089, Note_on_c, 0, 66, 63
2,117090, Control_c, 0, 64, 46
2,117191, Note_on_c, 0, 67, 0
2,117196, Note_on_c, 0, 52, 0
2,117209, Control_c, 0, 64, 46
2,117376, Control_c, 0, 64, 45
2,117391, Control_c, 0, 64, 45
2,117394, Note_on_c, 0, 57, 63
2,117394, Note_on_c, 0, 64, 63
2,117407, Control_c, 0, 64, 44
2,117496, Note_on_c, 0, 54, 0
2,117496, Note_on_c, 0, 66, 0
2,117701, Note_on_c, 0, 62, 65
2,117731, Note_on_c, 0, 66, 51
2,117783, Note_on_c, 0, 57, 0
2,117826, Control_c, 0, 64, 46
2,117840, Control_c, 0, 64, 47
2,117851, Note_on_c, 0, 64, 0
2,117856, Control_c, 0, 64, 47
2,117887, Control_c, 0, 64, 48
2,117902, Control_c, 0, 64, 48
2,118008, Control_c, 0, 64, 48
2,118013, Note_on_c, 0, 60, 67
2,118015, Note_on_c, 0, 69, 60
2,118053, Control_c, 0, 64, 48
2,118068, Control_c, 0, 64, 52
2,118075, Note_on_c, 0, 62, 0
2,118081, Note_on_c, 0, 72, 0
2,118083, Control_c, 0, 64, 57
2,118099, Control_c, 0, 64, 59
2,118114, Control_c, 0, 64, 60
2,118129, Control_c, 0, 64, 61
2,118144, Control_c, 0, 64, 62
2,118159, Control_c, 0, 64, 63
2,118220, Control_c, 0, 64, 63
2,118236, Control_c, 0, 64, 65
2,118252, Control_c, 0, 64, 66
2,118267, Control_c, 0, 64, 67
2,118281, Control_c, 0, 64, 66
2,118297, Control_c, 0, 64, 62
2,118307, Note_on_c, 0, 59, 62
2,118312, Control_c, 0, 64, 53
2,118328, Control_c, 0, 64, 42
2,118330, Note_on_c, 0, 74, 67
2,118351, Control_c, 0, 64, 38
2,118381, Control_c, 0, 64, 45
2,118396, Control_c, 0, 64, 57
2,118412, Control_c, 0, 64, 64
2,118426, Note_on_c, 0, 60, 0
2,118427, Control_c, 0, 64, 70
2,118432, Note_on_c, 0, 69, 0
2,118441, Control_c, 0, 64, 76
2,118457, Control_c, 0, 64, 82
2,118462, Note_on_c, 0, 50, 0
2,118472, Control_c, 0, 64, 86
2,118488, Control_c, 0, 64, 86
2,118499, Note_on_c, 0, 59, 0
2,118502, Control_c, 0, 64, 85
2,118517, Control_c, 0, 64, 84
2,118533, Control_c, 0, 64, 83
2,118548, Control_c, 0, 64, 83
2,118593, Control_c, 0, 64, 82
2,118606, Note_on_c, 0, 57, 61
2,118609, Control_c, 0, 64, 80
2,118611, Note_on_c, 0, 50, 54
2,118616, Note_on_c, 0, 72, 68
2,118624, Control_c, 0, 64, 78
2,118639, Control_c, 0, 64, 75
2,118654, Control_c, 0, 64, 71
2,118661, Note_on_c, 0, 74, 0
2,118669, Control_c, 0, 64, 66
2,118684, Control_c, 0, 64, 61
2,118700, Control_c, 0, 64, 58
2,118715, Control_c, 0, 64, 56
2,118731, Control_c, 0, 64, 54
2,118746, Control_c, 0, 64, 52
2,118761, Control_c, 0, 64, 50
2,118776, Control_c, 0, 64, 47
2,118791, Control_c, 0, 64, 44
2,118807, Control_c, 0, 64, 43
2,118821, Control_c, 0, 64, 43
2,118836, Control_c, 0, 64, 42
2,118852, Control_c, 0, 64, 41
2,118867, Control_c, 0, 64, 40
2,118882, Control_c, 0, 64, 38
2,118897, Control_c, 0, 64, 35
2,118912, Control_c, 0, 64, 33
2,118927, Note_on_c, 0, 55, 61
2,118928, Control_c, 0, 64, 29
2,118933, Note_on_c, 0, 71, 63
2,118943, Control_c, 0, 64, 25
2,118958, Control_c, 0, 64, 21
2,118973, Control_c, 0, 64, 19
2,118988, Control_c, 0, 64, 17
2,119003, Control_c, 0, 64, 16
2,119017, Note_on_c, 0, 72, 0
2,119033, Control_c, 0, 64, 15
2,119043, Note_on_c, 0, 57, 0
2,119064, Note_on_c, 0, 50, 0
2,119067, Note_on_c, 0, 66, 0
2,119223, Note_on_c, 0, 54, 47
2,119248, Note_on_c, 0, 62, 63
2,119507, Note_on_c, 0, 52, 52
2,119532, Note_on_c, 0, 67, 60
2,119584, Note_on_c, 0, 54, 0
2,119651, Note_on_c, 0, 62, 0
2,119665, Control_c, 0, 64, 16
2,119711, Control_c, 0, 64, 17
2,119727, Control_c, 0, 64, 19
2,119741, Control_c, 0, 64, 22
2,119756, Control_c, 0, 64, 24
2,119772, Control_c, 0, 64, 26
2,119787, Control_c, 0, 64, 26
2,119802, Control_c, 0, 64, 28
2,119813, Note_on_c, 0, 50, 51
2,119816, Note_on_c, 0, 66, 61
2,119817, Control_c, 0, 64, 30
2,119832, Control_c, 0, 64, 33
2,119848, Control_c, 0, 64, 39
2,119855, Note_on_c, 0, 52, 0
2,119871, Control_c, 0, 64, 48
2,119887, Control_c, 0, 64, 55
2,119902, Control_c, 0, 64, 59
2,119917, Control_c, 0, 64, 62
2,119932, Control_c, 0, 64, 64
2,119947, Control_c, 0, 64, 66
2,119962, Control_c, 0, 64, 68
2,119970, Note_on_c, 0, 67, 0
2,119978, Control_c, 0, 64, 69
2,120024, Control_c, 0, 64, 68
2,120039, Control_c, 0, 64, 68
2,120054, Control_c, 0, 64, 67
2,120069, Control_c, 0, 64, 67
2,120084, Control_c, 0, 64, 66
2,120100, Control_c, 0, 64, 66
2,120107, Note_on_c, 0, 49, 53
2,120123, Note_on_c, 0, 64, 58
2,120160, Control_c, 0, 64, 65
2,120166, Note_on_c, 0, 50, 0
2,120176, Control_c, 0, 64, 61
2,120191, Control_c, 0, 64, 51
2,120207, Control_c, 0, 64, 33
2,120222, Control_c, 0, 64, 0
2,120227, Note_on_c, 0, 66, 0
2,120246, Note_on_c, 0, 55, 0
2,120267, Control_c, 0, 64, 36
2,120282, Control_c, 0, 64, 52
2,120298, Control_c, 0, 64, 58
2,120312, Control_c, 0, 64, 61
2,120328, Control_c, 0, 64, 62
2,120374, Control_c, 0, 64, 63
2,120403, Control_c, 0, 64, 64
2,120409, Note_on_c, 0, 52, 60
2,120416, Note_on_c, 0, 62, 54
2,120419, Control_c, 0, 64, 65
2,120434, Control_c, 0, 64, 66
2,120450, Control_c, 0, 64, 65
2,120464, Control_c, 0, 64, 59
2,120479, Control_c, 0, 64, 38
2,120495, Control_c, 0, 64, 0
2,120513, Note_on_c, 0, 64, 0
2,120526, Control_c, 0, 64, 17
2,120541, Control_c, 0, 64, 49
2,120551, Note_on_c, 0, 62, 0
2,120556, Control_c, 0, 64, 61
2,120571, Control_c, 0, 64, 66
2,120586, Control_c, 0, 64, 70
2,120589, Note_on_c, 0, 52, 0
2,120601, Control_c, 0, 64, 71
2,120632, Control_c, 0, 64, 71
2,120655, Control_c, 0, 64, 70
2,120669, Control_c, 0, 64, 70
2,120684, Control_c, 0, 64, 70
2,120715, Note_on_c, 0, 57, 47
2,120730, Note_on_c, 0, 69, 57
2,120745, Note_on_c, 0, 61, 49
2,120761, Control_c, 0, 64, 67
2,120777, Control_c, 0, 64, 60
2,120792, Control_c, 0, 64, 23
2,120808, Control_c, 0, 64, 0
2,120831, Note_on_c, 0, 71, 0
2,120837, Control_c, 0, 64, 33
2,120853, Control_c, 0, 64, 57
2,120864, Note_on_c, 0, 57, 0
2,120868, Control_c, 0, 64, 65
2,120883, Control_c, 0, 64, 72
2,120898, Control_c, 0, 64, 80
2,120913, Control_c, 0, 64, 85
2,120929, Control_c, 0, 64, 87
2,120959, Control_c, 0, 64, 86
2,120975, Control_c, 0, 64, 85
2,120990, Control_c, 0, 64, 84
2,121035, Note_on_c, 0, 45, 59
2,121040, Note_on_c, 0, 55, 53
2,121066, Control_c, 0, 64, 82
2,121081, Control_c, 0, 64, 76
2,121087, Note_on_c, 0, 49, 0
2,121097, Control_c, 0, 64, 65
2,121111, Control_c, 0, 64, 57
2,121127, Control_c, 0, 64, 58
2,121142, Control_c, 0, 64, 62
2,121156, Control_c, 0, 64, 66
2,121172, Control_c, 0, 64, 69
2,121187, Control_c, 0, 64, 74
2,121196, Note_on_c, 0, 55, 0
2,121202, Control_c, 0, 64, 79
2,121218, Control_c, 0, 64, 82
2,121232, Control_c, 0, 64, 85
2,121248, Control_c, 0, 64, 87
2,121263, Control_c, 0, 64, 87
2,121294, Control_c, 0, 64, 86
2,121308, Control_c, 0, 64, 85
2,121323, Control_c, 0, 64, 84
2,121339, Control_c, 0, 64, 83
2,121354, Control_c, 0, 64, 82
2,121369, Control_c, 0, 64, 79
2,121384, Control_c, 0, 64, 77
2,121387, Note_on_c, 0, 54, 52
2,121388, Note_on_c, 0, 50, 61
2,121399, Control_c, 0, 64, 75
2,121423, Control_c, 0, 64, 74
2,121437, Control_c, 0, 64, 74
2,121453, Control_c, 0, 64, 72
2,121468, Control_c, 0, 64, 69
2,121483, Control_c, 0, 64, 66
2,121498, Control_c, 0, 64, 64
2,121515, Control_c, 0, 64, 63
2,121531, Control_c, 0, 64, 62
2,121533, Note_on_c, 0, 45, 0
2,121545, Control_c, 0, 64, 61
2,121560, Control_c, 0, 64, 60
2,121576, Control_c, 0, 64, 58
2,121590, Control_c, 0, 64, 57
2,121606, Control_c, 0, 64, 56
2,121621, Control_c, 0, 64, 54
2,121636, Control_c, 0, 64, 52
2,121652, Control_c, 0, 64, 49
2,121666, Control_c, 0, 64, 46
2,121681, Control_c, 0, 64, 42
2,121697, Control_c, 0, 64, 38
2,121712, Control_c, 0, 64, 33
2,121712, Note_on_c, 0, 57, 61
2,121721, Note_on_c, 0, 48, 49
2,121727, Control_c, 0, 64, 26
2,121742, Control_c, 0, 64, 19
2,121757, Control_c, 0, 64, 13
2,121773, Control_c, 0, 64, 12
2,121802, Note_on_c, 0, 61, 0
2,121827, Note_on_c, 0, 50, 0
2,121909, Control_c, 0, 64, 13
2,121939, Control_c, 0, 64, 15
2,121954, Control_c, 0, 64, 17
2,121970, Control_c, 0, 64, 18
2,121985, Control_c, 0, 64, 19
2,122019, Note_on_c, 0, 62, 61
2,122023, Note_on_c, 0, 47, 57
2,122030, Control_c, 0, 64, 18
2,122061, Control_c, 0, 64, 17
2,122091, Control_c, 0, 64, 20
2,122106, Control_c, 0, 64, 37
2,122116, Note_on_c, 0, 48, 0
2,122121, Control_c, 0, 64, 51
2,122124, Note_on_c, 0, 57, 0
2,122137, Control_c, 0, 64, 59
2,122152, Control_c, 0, 64, 62
2,122167, Control_c, 0, 64, 64
2,122190, Control_c, 0, 64, 66
2,122204, Control_c, 0, 64, 67
2,122220, Control_c, 0, 64, 69
2,122235, Control_c, 0, 64, 71
2,122251, Control_c, 0, 64, 72
2,122266, Control_c, 0, 64, 72
2,122283, Control_c, 0, 64, 74
2,122313, Control_c, 0, 64, 71
2,122316, Note_on_c, 0, 45, 54
2,122329, Control_c, 0, 64, 64
2,122334, Note_on_c, 0, 60, 62
2,122345, Control_c, 0, 64, 52
2,122361, Control_c, 0, 64, 49
2,122376, Control_c, 0, 64, 53
2,122390, Control_c, 0, 64, 61
2,122397, Note_on_c, 0, 47, 0
2,122406, Control_c, 0, 64, 66
2,122421, Control_c, 0, 64, 71
2,122432, Note_on_c, 0, 45, 0
2,122435, Control_c, 0, 64, 78
2,122451, Control_c, 0, 64, 84
2,122466, Control_c, 0, 64, 91
2,122482, Control_c, 0, 64, 97
2,122497, Control_c, 0, 64, 100
2,122503, Note_on_c, 0, 62, 0
2,122511, Control_c, 0, 64, 99
2,122527, Control_c, 0, 64, 97
2,122542, Control_c, 0, 64, 96
2,122557, Control_c, 0, 64, 95
2,122573, Control_c, 0, 64, 94
2,122588, Control_c, 0, 64, 92
2,122604, Control_c, 0, 64, 89
2,122619, Control_c, 0, 64, 85
2,122628, Note_on_c, 0, 43, 60
2,122634, Control_c, 0, 64, 82
2,122642, Note_on_c, 0, 59, 69
2,122649, Control_c, 0, 64, 79
2,122664, Control_c, 0, 64, 77
2,122680, Control_c, 0, 64, 75
2,122695, Control_c, 0, 64, 73
2,122709, Control_c, 0, 64, 71
2,122725, Control_c, 0, 64, 68
2,122740, Control_c, 0, 64, 65
2,122755, Control_c, 0, 64, 63
2,122763, Note_on_c, 0, 60, 0
2,122770, Control_c, 0, 64, 61
2,122785, Control_c, 0, 64, 54
2,122801, Control_c, 0, 64, 45
2,122816, Control_c, 0, 64, 32
2,122831, Control_c, 0, 64, 0
2,122930, Note_on_c, 0, 47, 69
2,123026, Note_on_c, 0, 54, 0
2,123253, Note_on_c, 0, 67, 69
2,123271, Note_on_c, 0, 52, 52
2,123387, Note_on_c, 0, 47, 0
2,123426, Note_on_c, 0, 59, 0
2,123444, Note_on_c, 0, 69, 0
2,123582, Note_on_c, 0, 59, 65
2,123586, Note_on_c, 0, 50, 45
2,123713, Control_c, 0, 64, 53
2,123729, Control_c, 0, 64, 64
2,123739, Note_on_c, 0, 52, 0
2,123744, Control_c, 0, 64, 68
2,123760, Control_c, 0, 64, 71
2,123774, Control_c, 0, 64, 74
2,123774, Note_on_c, 0, 43, 0
2,123896, Control_c, 0, 64, 73
2,123909, Note_on_c, 0, 64, 68
2,123927, Control_c, 0, 64, 73
2,123928, Note_on_c, 0, 45, 44
2,123929, Note_on_c, 0, 49, 46
2,123973, Control_c, 0, 64, 70
2,123988, Control_c, 0, 64, 66
2,124004, Control_c, 0, 64, 59
2,124019, Control_c, 0, 64, 43
2,124034, Control_c, 0, 64, 18
2,124049, Control_c, 0, 64, 0
2,124061, Note_on_c, 0, 50, 0
2,124093, Control_c, 0, 64, 49
2,124102, Note_on_c, 0, 59, 0
2,124108, Control_c, 0, 64, 64
2,124122, Control_c, 0, 64, 70
2,124138, Control_c, 0, 64, 76
2,124147, Note_on_c, 0, 64, 0
2,124153, Control_c, 0, 64, 80
2,124169, Control_c, 0, 64, 81
2,124248, Note_on_c, 0, 64, 74
2,124249, Note_on_c, 0, 50, 47
2,124256, Note_on_c, 0, 62, 54
2,124274, Control_c, 0, 64, 77
2,124290, Control_c, 0, 64, 69
2,124305, Control_c, 0, 64, 56
2,124320, Control_c, 0, 64, 27
2,124335, Control_c, 0, 64, 18
2,124366, Control_c, 0, 64, 27
2,124381, Control_c, 0, 64, 49
2,124396, Control_c, 0, 64, 61
2,124399, Note_on_c, 0, 67, 0
2,124411, Control_c, 0, 64, 66
2,124411, Note_on_c, 0, 49, 0
2,124426, Control_c, 0, 64, 72
2,124434, Note_on_c, 0, 62, 0
2,124441, Control_c, 0, 64, 77
2,124457, Control_c, 0, 64, 81
2,124472, Control_c, 0, 64, 82
2,124526, Control_c, 0, 64, 81
2,124540, Control_c, 0, 64, 80
2,124555, Control_c, 0, 64, 78
2,124571, Control_c, 0, 64, 76
2,124585, Control_c, 0, 64, 76
2,124592, Note_on_c, 0, 52, 49
2,124600, Control_c, 0, 64, 75
2,124614, Note_on_c, 0, 69, 68
2,124616, Control_c, 0, 64, 73
2,124618, Note_on_c, 0, 61, 62
2,124631, Control_c, 0, 64, 70
2,124647, Control_c, 0, 64, 69
2,124662, Control_c, 0, 64, 68
2,124677, Control_c, 0, 64, 66
2,124693, Control_c, 0, 64, 65
2,124708, Control_c, 0, 64, 62
2,124722, Control_c, 0, 64, 57
2,124738, Control_c, 0, 64, 53
2,124739, Note_on_c, 0, 64, 0
2,124753, Control_c, 0, 64, 48
2,124769, Control_c, 0, 64, 44
2,124784, Control_c, 0, 64, 38
2,124799, Control_c, 0, 64, 35
2,124815, Control_c, 0, 64, 34
2,124827, Note_on_c, 0, 50, 0
2,124861, Control_c, 0, 64, 35
2,124921, Control_c, 0, 64, 35
2,124986, Note_on_c, 0, 67, 69
2,125008, Note_on_c, 0, 64, 59
2,125065, Note_on_c, 0, 69, 0
2,125073, Control_c, 0, 64, 35
2,125089, Control_c, 0, 64, 33
2,125103, Control_c, 0, 64, 28
2,125118, Control_c, 0, 64, 0
2,125163, Note_on_c, 0, 61, 0
2,125210, Control_c, 0, 64, 35
2,125224, Control_c, 0, 64, 55
2,125239, Control_c, 0, 64, 61
2,125263, Control_c, 0, 64, 64
2,125278, Control_c, 0, 64, 65
2,125294, Control_c, 0, 64, 67
2,125370, Control_c, 0, 64, 66
2,125392, Note_on_c, 0, 66, 70
2,125399, Control_c, 0, 64, 66
2,125415, Control_c, 0, 64, 65
2,125491, Control_c, 0, 64, 64
2,125506, Control_c, 0, 64, 61
2,125520, Control_c, 0, 64, 51
2,125536, Control_c, 0, 64, 38
2,125551, Control_c, 0, 64, 33
2,125551, Note_on_c, 0, 67, 0
2,125581, Control_c, 0, 64, 40
2,125596, Control_c, 0, 64, 52
2,125613, Control_c, 0, 64, 60
2,125628, Control_c, 0, 64, 65
2,125643, Control_c, 0, 64, 68
2,125658, Control_c, 0, 64, 73
2,125673, Control_c, 0, 64, 76
2,125689, Control_c, 0, 64, 77
2,125704, Control_c, 0, 64, 77
2,125719, Control_c, 0, 64, 76
2,125734, Control_c, 0, 64, 75
2,125749, Control_c, 0, 64, 74
2,125764, Control_c, 0, 64, 73
2,125780, Control_c, 0, 64, 72
2,125794, Note_on_c, 0, 62, 68
2,125795, Control_c, 0, 64, 71
2,125799, Note_on_c, 0, 50, 52
2,125810, Control_c, 0, 64, 70
2,125886, Control_c, 0, 64, 69
2,125901, Control_c, 0, 64, 68
2,125916, Control_c, 0, 64, 65
2,125919, Note_on_c, 0, 52, 0
2,125929, Control_c, 0, 64, 61
2,125944, Control_c, 0, 64, 54
2,125959, Control_c, 0, 64, 47
2,125990, Control_c, 0, 64, 51
2,126005, Control_c, 0, 64, 57
2,126028, Control_c, 0, 64, 61
2,126030, Note_on_c, 0, 64, 0
2,126043, Control_c, 0, 64, 65
2,126059, Control_c, 0, 64, 68
2,126073, Control_c, 0, 64, 73
2,126088, Control_c, 0, 64, 77
2,126104, Control_c, 0, 64, 80
2,126119, Control_c, 0, 64, 84
2,126135, Control_c, 0, 64, 87
2,126149, Control_c, 0, 64, 89
2,126164, Control_c, 0, 64, 88
2,126180, Control_c, 0, 64, 88
2,126209, Control_c, 0, 64, 87
2,126225, Control_c, 0, 64, 87
2,126240, Control_c, 0, 64, 85
2,126256, Control_c, 0, 64, 83
2,126271, Control_c, 0, 64, 82
2,126299, Note_on_c, 0, 64, 76
2,126301, Note_on_c, 0, 57, 49
2,126302, Control_c, 0, 64, 81
2,126317, Control_c, 0, 64, 80
2,126331, Control_c, 0, 64, 79
2,126346, Control_c, 0, 64, 76
2,126361, Control_c, 0, 64, 75
2,126377, Control_c, 0, 64, 74
2,126406, Control_c, 0, 64, 73
2,126424, Control_c, 0, 64, 72
2,126439, Control_c, 0, 64, 70
2,126454, Control_c, 0, 64, 66
2,126469, Control_c, 0, 64, 62
2,126484, Control_c, 0, 64, 55
2,126499, Control_c, 0, 64, 40
2,126500, Note_on_c, 0, 50, 0
2,126514, Control_c, 0, 64, 0
2,126552, Note_on_c, 0, 66, 0
2,126590, Control_c, 0, 64, 45
2,126605, Control_c, 0, 64, 57
2,126621, Control_c, 0, 64, 62
2,126636, Control_c, 0, 64, 65
2,126650, Control_c, 0, 64, 70
2,126666, Control_c, 0, 64, 75
2,126681, Control_c, 0, 64, 79
2,126686, Note_on_c, 0, 57, 0
2,126697, Control_c, 0, 64, 82
2,126711, Control_c, 0, 64, 85
2,126726, Control_c, 0, 64, 86
2,126810, Control_c, 0, 64, 85
2,126826, Control_c, 0, 64, 85
2,126840, Control_c, 0, 64, 84
2,126856, Control_c, 0, 64, 82
2,126856, Note_on_c, 0, 55, 50
2,126857, Note_on_c, 0, 61, 54
2,126871, Control_c, 0, 64, 81
2,126886, Control_c, 0, 64, 80
2,126902, Control_c, 0, 64, 79
2,126916, Control_c, 0, 64, 76
2,126931, Control_c, 0, 64, 73
2,126947, Control_c, 0, 64, 71
2,126962, Control_c, 0, 64, 70
2,126978, Control_c, 0, 64, 68
2,126992, Control_c, 0, 64, 67
2,127007, Control_c, 0, 64, 65
2,127023, Control_c, 0, 64, 63
2,127038, Control_c, 0, 64, 62
2,127040, Note_on_c, 0, 62, 0
2,127054, Control_c, 0, 64, 61
2,127069, Control_c, 0, 64, 59
2,127084, Control_c, 0, 64, 56
2,127100, Control_c, 0, 64, 52
2,127115, Control_c, 0, 64, 47
2,127129, Control_c, 0, 64, 40
2,127145, Control_c, 0, 64, 37
2,127160, Control_c, 0, 64, 33
2,127176, Control_c, 0, 64, 22
2,127191, Control_c, 0, 64, 0
2,127344, Control_c, 0, 64, 49
2,127359, Control_c, 0, 64, 59
2,127375, Control_c, 0, 64, 65
2,127390, Control_c, 0, 64, 71
2,127405, Control_c, 0, 64, 78
2,127420, Control_c, 0, 64, 84
2,127435, Control_c, 0, 64, 90
2,127450, Control_c, 0, 64, 96
2,127463, Note_on_c, 0, 45, 0
2,127466, Control_c, 0, 64, 100
2,127480, Control_c, 0, 64, 101
2,127496, Control_c, 0, 64, 104
2,127511, Control_c, 0, 64, 107
2,127526, Control_c, 0, 64, 112
2,127539, Note_on_c, 0, 55, 0
2,127542, Control_c, 0, 64, 119
2,127564, Control_c, 0, 64, 127
2,127591, Note_on_c, 0, 61, 0
2,127949, Note_on_c, 0, 62, 52
2,127964, Note_on_c, 0, 54, 44
2,127967, Note_on_c, 0, 38, 41
2,127967, Note_on_c, 0, 57, 42
2,128111, Control_c, 0, 64, 119
2,128126, Control_c, 0, 64, 110
2,128142, Control_c, 0, 64, 104
2,128157, Control_c, 0, 64, 96
2,128173, Control_c, 0, 64, 87
2,128187, Control_c, 0, 64, 79
2,128202, Control_c, 0, 64, 73
2,128218, Control_c, 0, 64, 68
2,128233, Control_c, 0, 64, 64
2,128235, Note_on_c, 0, 64, 0
2,128248, Control_c, 0, 64, 56
2,128263, Control_c, 0, 64, 30
2,128278, Control_c, 0, 64, 0
2,131433, Note_on_c, 0, 57, 0
2,131522, Note_on_c, 0, 54, 0
2,131566, Note_on_c, 0, 62, 0
2,131587, Note_on_c, 0, 38, 0
2,131588, End_track
0, 0, End_of_file
