0, 0, Header, 1, 2, 384
1, 0, Start_track
1, 0, Tempo, 500000
1, 0, Time_signature, 4, 2, 24, 8
1, 1, End_track
2, 0, Start_track
2, 0, Title_t," ""17 to 19"""
2, 0, Program_c, 0, 0
2, 0, Control_c, 0, 64, 60
2, 0, Control_c, 0, 66, 0
2, 0, Control_c, 0, 67, 0
2, 12, Control_c, 0, 64, 63
2, 36, Control_c, 0, 64, 64
2, 51, Control_c, 0, 64, 67
2, 67, Control_c, 0, 64, 70
2, 81, Control_c, 0, 64, 74
2, 96, Control_c, 0, 64, 77
2, 112, Control_c, 0, 64, 80
2, 127, Control_c, 0, 64, 84
2, 143, Control_c, 0, 64, 88
2, 157, Control_c, 0, 64, 93
2, 172, Control_c, 0, 64, 100
2, 188, Control_c, 0, 64, 105
2, 202, Control_c, 0, 64, 109
2, 217, Control_c, 0, 64, 113
2, 233, Control_c, 0, 64, 120
2, 235, Control_c, 0, 64, 127
2, 719, Note_on_c, 0, 50, 88
2, 723, Note_on_c, 0, 38, 84
2, 784, Control_c, 0, 64, 120
2, 798, Control_c, 0, 64, 99
2, 814, Control_c, 0, 64, 84
2, 829, Control_c, 0, 64, 70
2, 844, Control_c, 0, 64, 58
2, 860, Control_c, 0, 64, 33
2, 875, Control_c, 0, 64, 0
2, 997, Note_on_c, 0, 62, 75
2, 1049, Note_on_c, 0, 62, 0
2, 1076, Note_on_c, 0, 64, 79
2, 1153, Note_on_c, 0, 66, 77
2, 1159, Note_on_c, 0, 64, 0
2, 1212, Note_on_c, 0, 67, 77
2, 1239, Note_on_c, 0, 66, 0
2, 1287, Note_on_c, 0, 69, 82
2, 1309, Note_on_c, 0, 67, 0
2, 1330, Note_on_c, 0, 69, 0
2, 1429, Note_on_c, 0, 66, 82
2, 1487, Note_on_c, 0, 66, 0
2, 1571, Note_on_c, 0, 69, 76
2, 1624, Note_on_c, 0, 69, 0
2, 1703, Note_on_c, 0, 74, 83
2, 1747, Note_on_c, 0, 74, 0
2, 1834, Note_on_c, 0, 69, 77
2, 1894, Note_on_c, 0, 69, 0
2, 1905, Note_on_c, 0, 38, 0
2, 1906, Note_on_c, 0, 50, 0
2, 1966, Note_on_c, 0, 74, 83
2, 2024, Note_on_c, 0, 74, 0
2, 2097, Note_on_c, 0, 78, 81
2, 2154, Note_on_c, 0, 78, 0
2, 2228, Note_on_c, 0, 74, 82
2, 2286, Note_on_c, 0, 74, 0
2, 2363, Note_on_c, 0, 78, 88
2, 2419, Note_on_c, 0, 78, 0
2, 2525, Note_on_c, 0, 81, 83
2, 2548, Control_c, 0, 64, 36
2, 2562, Control_c, 0, 64, 52
2, 2578, Control_c, 0, 64, 59
2, 2594, Control_c, 0, 64, 64
2, 2609, Control_c, 0, 64, 68
2, 2624, Control_c, 0, 64, 74
2, 2639, Control_c, 0, 64, 84
2, 2655, Control_c, 0, 64, 94
2, 2670, Control_c, 0, 64, 104
2, 2678, Note_on_c, 0, 81, 0
2, 2685, Control_c, 0, 64, 112
2, 2700, Control_c, 0, 64, 116
2, 2715, Control_c, 0, 64, 120
2, 2730, Control_c, 0, 64, 127
2, 2914, Control_c, 0, 64, 119
2, 2929, Control_c, 0, 64, 107
2, 2945, Control_c, 0, 64, 98
2, 2960, Control_c, 0, 64, 89
2, 2976, Control_c, 0, 64, 82
2, 2990, Control_c, 0, 64, 76
2, 3005, Control_c, 0, 64, 72
2, 3021, Control_c, 0, 64, 69
2, 3027, Note_on_c, 0, 81, 68
2, 3036, Control_c, 0, 64, 66
2, 3037, Note_on_c, 0, 78, 62
2, 3040, Note_on_c, 0, 62, 38
2, 3058, Control_c, 0, 64, 62
2, 3073, Control_c, 0, 64, 56
2, 3088, Control_c, 0, 64, 41
2, 3104, Control_c, 0, 64, 0
2, 3271, Control_c, 0, 64, 44
2, 3286, Control_c, 0, 64, 57
2, 3302, Control_c, 0, 64, 64
2, 3303, Note_on_c, 0, 81, 0
2, 3311, Note_on_c, 0, 78, 0
2, 3317, Control_c, 0, 64, 68
2, 3331, Control_c, 0, 64, 75
2, 3347, Control_c, 0, 64, 85
2, 3361, Control_c, 0, 64, 95
2, 3377, Control_c, 0, 64, 105
2, 3392, Control_c, 0, 64, 107
2, 3422, Control_c, 0, 64, 106
2, 3437, Control_c, 0, 64, 105
2, 3452, Control_c, 0, 64, 103
2, 3467, Control_c, 0, 64, 101
2, 3482, Control_c, 0, 64, 99
2, 3498, Control_c, 0, 64, 94
2, 3513, Control_c, 0, 64, 89
2, 3528, Control_c, 0, 64, 82
2, 3544, Control_c, 0, 64, 76
2, 3552, Note_on_c, 0, 81, 66
2, 3559, Control_c, 0, 64, 72
2, 3570, Note_on_c, 0, 69, 38
2, 3571, Note_on_c, 0, 78, 57
2, 3575, Control_c, 0, 64, 69
2, 3590, Control_c, 0, 64, 67
2, 3605, Control_c, 0, 64, 65
2, 3621, Control_c, 0, 64, 60
2, 3635, Control_c, 0, 64, 43
2, 3650, Control_c, 0, 64, 0
2, 3663, Note_on_c, 0, 62, 0
2, 3804, Note_on_c, 0, 79, 73
2, 3807, Note_on_c, 0, 76, 65
2, 3856, Note_on_c, 0, 81, 0
2, 3886, Control_c, 0, 64, 45
2, 3902, Control_c, 0, 64, 62
2, 3917, Control_c, 0, 64, 67
2, 3925, Note_on_c, 0, 78, 0
2, 3932, Control_c, 0, 64, 71
2, 3932, Note_on_c, 0, 76, 0
2, 3944, Note_on_c, 0, 79, 0
2, 3947, Control_c, 0, 64, 76
2, 3962, Control_c, 0, 64, 79
2, 3978, Control_c, 0, 64, 79
2, 4008, Control_c, 0, 64, 78
2, 4024, Control_c, 0, 64, 76
2, 4037, Note_on_c, 0, 69, 0
2, 4039, Control_c, 0, 64, 72
2, 4041, Note_on_c, 0, 79, 68
2, 4054, Control_c, 0, 64, 68
2, 4063, Note_on_c, 0, 76, 53
2, 4064, Note_on_c, 0, 57, 33
2, 4069, Control_c, 0, 64, 63
2, 4084, Control_c, 0, 64, 56
2, 4099, Control_c, 0, 64, 50
2, 4114, Control_c, 0, 64, 15
2, 4129, Control_c, 0, 64, 0
2, 4298, Note_on_c, 0, 78, 66
2, 4299, Note_on_c, 0, 74, 58
2, 4354, Note_on_c, 0, 76, 0
2, 4375, Note_on_c, 0, 79, 0
2, 4389, Control_c, 0, 64, 53
2, 4403, Control_c, 0, 64, 63
2, 4416, Note_on_c, 0, 78, 0
2, 4419, Control_c, 0, 64, 67
2, 4419, Note_on_c, 0, 74, 0
2, 4434, Control_c, 0, 64, 74
2, 4449, Control_c, 0, 64, 83
2, 4465, Control_c, 0, 64, 96
2, 4479, Control_c, 0, 64, 118
2, 4495, Control_c, 0, 64, 127
2, 4499, Note_on_c, 0, 57, 0
2, 4516, Note_on_c, 0, 62, 52
2, 4528, Note_on_c, 0, 78, 68
2, 4543, Note_on_c, 0, 74, 59
2, 4547, Note_on_c, 0, 62, 0
2, 4701, Note_on_c, 0, 50, 69
2, 4760, Note_on_c, 0, 52, 62
2, 4763, Note_on_c, 0, 50, 0
2, 4791, Control_c, 0, 64, 116
2, 4806, Control_c, 0, 64, 103
2, 4807, Note_on_c, 0, 54, 66
2, 4822, Control_c, 0, 64, 92
2, 4837, Control_c, 0, 64, 81
2, 4840, Note_on_c, 0, 52, 0
2, 4852, Control_c, 0, 64, 70
2, 4867, Control_c, 0, 64, 62
2, 4870, Note_on_c, 0, 55, 71
2, 4882, Control_c, 0, 64, 50
2, 4886, Note_on_c, 0, 54, 0
2, 4898, Control_c, 0, 64, 26
2, 4913, Control_c, 0, 64, 0
2, 4931, Note_on_c, 0, 57, 73
2, 4935, Note_on_c, 0, 55, 0
2, 4959, Note_on_c, 0, 57, 0
2, 5068, Note_on_c, 0, 54, 68
2, 5103, Note_on_c, 0, 54, 0
2, 5192, Note_on_c, 0, 57, 73
2, 5225, Note_on_c, 0, 57, 0
2, 5268, Note_on_c, 0, 78, 0
2, 5274, Note_on_c, 0, 74, 0
2, 5311, Note_on_c, 0, 62, 74
2, 5366, Note_on_c, 0, 62, 0
2, 5448, Note_on_c, 0, 57, 78
2, 5488, Note_on_c, 0, 57, 0
2, 5569, Note_on_c, 0, 62, 74
2, 5597, Note_on_c, 0, 62, 0
2, 5696, Note_on_c, 0, 66, 85
2, 5724, Note_on_c, 0, 66, 0
2, 5822, Note_on_c, 0, 62, 77
2, 5848, Note_on_c, 0, 62, 0
2, 5945, Note_on_c, 0, 66, 86
2, 5976, Note_on_c, 0, 66, 0
2, 6091, Control_c, 0, 64, 26
2, 6100, Note_on_c, 0, 69, 77
2, 6107, Control_c, 0, 64, 55
2, 6130, Control_c, 0, 64, 62
2, 6146, Control_c, 0, 64, 66
2, 6157, Note_on_c, 0, 69, 0
2, 6160, Control_c, 0, 64, 72
2, 6176, Control_c, 0, 64, 82
2, 6191, Control_c, 0, 64, 97
2, 6206, Control_c, 0, 64, 127
2, 6372, Control_c, 0, 64, 121
2, 6388, Control_c, 0, 64, 113
2, 6403, Control_c, 0, 64, 108
2, 6419, Control_c, 0, 64, 107
2, 6434, Control_c, 0, 64, 106
2, 6449, Control_c, 0, 64, 103
2, 6465, Control_c, 0, 64, 97
2, 6480, Control_c, 0, 64, 91
2, 6496, Control_c, 0, 64, 85
2, 6510, Control_c, 0, 64, 80
2, 6525, Control_c, 0, 64, 74
2, 6541, Control_c, 0, 64, 69
2, 6555, Control_c, 0, 64, 66
2, 6570, Control_c, 0, 64, 62
2, 6586, Control_c, 0, 64, 59
2, 6601, Control_c, 0, 64, 53
2, 6604, Note_on_c, 0, 78, 71
2, 6609, Note_on_c, 0, 50, 52
2, 6615, Note_on_c, 0, 69, 55
2, 6617, Control_c, 0, 64, 39
2, 6632, Control_c, 0, 64, 0
2, 6784, Control_c, 0, 64, 10
2, 6799, Control_c, 0, 64, 46
2, 6815, Control_c, 0, 64, 56
2, 6830, Control_c, 0, 64, 61
2, 6845, Control_c, 0, 64, 65
2, 6851, Note_on_c, 0, 69, 0
2, 6851, Note_on_c, 0, 78, 0
2, 6861, Control_c, 0, 64, 68
2, 6876, Control_c, 0, 64, 73
2, 6899, Control_c, 0, 64, 79
2, 6914, Control_c, 0, 64, 86
2, 6929, Control_c, 0, 64, 92
2, 6944, Control_c, 0, 64, 95
2, 6975, Control_c, 0, 64, 93
2, 6990, Control_c, 0, 64, 91
2, 7004, Control_c, 0, 64, 87
2, 7020, Control_c, 0, 64, 83
2, 7035, Control_c, 0, 64, 80
2, 7050, Control_c, 0, 64, 75
2, 7066, Control_c, 0, 64, 72
2, 7081, Control_c, 0, 64, 69
2, 7097, Control_c, 0, 64, 67
2, 7112, Control_c, 0, 64, 65
2, 7127, Control_c, 0, 64, 63
2, 7127, Note_on_c, 0, 57, 38
2, 7129, Note_on_c, 0, 78, 68
2, 7143, Control_c, 0, 64, 60
2, 7143, Note_on_c, 0, 69, 49
2, 7157, Control_c, 0, 64, 47
2, 7172, Control_c, 0, 64, 0
2, 7184, Note_on_c, 0, 50, 0
2, 7267, Note_on_c, 0, 69, 0
2, 7322, Control_c, 0, 64, 35
2, 7338, Control_c, 0, 64, 52
2, 7353, Control_c, 0, 64, 60
2, 7368, Control_c, 0, 64, 64
2, 7381, Note_on_c, 0, 76, 68
2, 7384, Control_c, 0, 64, 67
2, 7390, Note_on_c, 0, 67, 59
2, 7399, Control_c, 0, 64, 71
2, 7415, Control_c, 0, 64, 77
2, 7427, Note_on_c, 0, 78, 0
2, 7430, Control_c, 0, 64, 85
2, 7445, Control_c, 0, 64, 94
2, 7461, Control_c, 0, 64, 105
2, 7461, Note_on_c, 0, 67, 0
2, 7466, Note_on_c, 0, 76, 0
2, 7475, Control_c, 0, 64, 112
2, 7490, Control_c, 0, 64, 114
2, 7506, Control_c, 0, 64, 116
2, 7510, Note_on_c, 0, 57, 0
2, 7520, Control_c, 0, 64, 116
2, 7536, Control_c, 0, 64, 116
2, 7551, Control_c, 0, 64, 114
2, 7566, Control_c, 0, 64, 112
2, 7582, Control_c, 0, 64, 109
2, 7597, Control_c, 0, 64, 107
2, 7611, Control_c, 0, 64, 103
2, 7621, Note_on_c, 0, 45, 43
2, 7623, Note_on_c, 0, 67, 55
2, 7623, Note_on_c, 0, 76, 61
2, 7627, Control_c, 0, 64, 99
2, 7642, Control_c, 0, 64, 94
2, 7666, Control_c, 0, 64, 89
2, 7681, Control_c, 0, 64, 82
2, 7697, Control_c, 0, 64, 78
2, 7711, Control_c, 0, 64, 74
2, 7713, Note_on_c, 0, 67, 0
2, 7726, Control_c, 0, 64, 70
2, 7742, Control_c, 0, 64, 66
2, 7757, Control_c, 0, 64, 63
2, 7772, Control_c, 0, 64, 60
2, 7787, Control_c, 0, 64, 56
2, 7802, Control_c, 0, 64, 52
2, 7818, Control_c, 0, 64, 45
2, 7833, Control_c, 0, 64, 21
2, 7848, Control_c, 0, 64, 0
2, 7879, Note_on_c, 0, 74, 66
2, 7882, Note_on_c, 0, 66, 54
2, 7906, Note_on_c, 0, 76, 0
2, 7985, Control_c, 0, 64, 56
2, 8000, Control_c, 0, 64, 66
2, 8005, Note_on_c, 0, 66, 0
2, 8016, Control_c, 0, 64, 72
2, 8017, Note_on_c, 0, 74, 0
2, 8031, Control_c, 0, 64, 82
2, 8045, Control_c, 0, 64, 94
2, 8061, Control_c, 0, 64, 109
2, 8076, Control_c, 0, 64, 119
2, 8091, Control_c, 0, 64, 127
2, 8092, Note_on_c, 0, 45, 0
2, 8114, Note_on_c, 0, 50, 47
2, 8129, Note_on_c, 0, 74, 66
2, 8142, Note_on_c, 0, 66, 57
2, 8169, Note_on_c, 0, 74, 0
2, 8188, Note_on_c, 0, 66, 0
2, 8246, Note_on_c, 0, 50, 0
2, 8270, Note_on_c, 0, 50, 18
2, 8310, Note_on_c, 0, 66, 64
2, 8350, Control_c, 0, 64, 120
2, 8365, Control_c, 0, 64, 111
2, 8380, Control_c, 0, 64, 103
2, 8381, Note_on_c, 0, 64, 70
2, 8390, Note_on_c, 0, 66, 0
2, 8395, Control_c, 0, 64, 93
2, 8410, Control_c, 0, 64, 81
2, 8427, Note_on_c, 0, 64, 0
2, 8433, Control_c, 0, 64, 72
2, 8448, Control_c, 0, 64, 65
2, 8454, Note_on_c, 0, 62, 61
2, 8463, Control_c, 0, 64, 59
2, 8472, Note_on_c, 0, 50, 0
2, 8475, Note_on_c, 0, 38, 48
2, 8479, Control_c, 0, 64, 49
2, 8494, Note_on_c, 0, 62, 0
2, 8495, Control_c, 0, 64, 18
2, 8510, Control_c, 0, 64, 0
2, 8519, Note_on_c, 0, 61, 72
2, 8540, Note_on_c, 0, 38, 0
2, 8574, Note_on_c, 0, 61, 0
2, 8594, Note_on_c, 0, 59, 72
2, 8600, Note_on_c, 0, 50, 54
2, 8627, Note_on_c, 0, 59, 0
2, 8740, Note_on_c, 0, 62, 64
2, 8765, Note_on_c, 0, 50, 0
2, 8774, Note_on_c, 0, 62, 0
2, 8876, Note_on_c, 0, 59, 70
2, 8891, Note_on_c, 0, 50, 34
2, 8906, Note_on_c, 0, 59, 0
2, 8927, Note_on_c, 0, 50, 0
2, 9010, Note_on_c, 0, 56, 61
2, 9020, Note_on_c, 0, 50, 54
2, 9160, Note_on_c, 0, 64, 61
2, 9162, Note_on_c, 0, 56, 0
2, 9220, Note_on_c, 0, 64, 0
2, 9225, Note_on_c, 0, 66, 68
2, 9301, Note_on_c, 0, 68, 76
2, 9310, Note_on_c, 0, 66, 0
2, 9316, Note_on_c, 0, 50, 0
2, 9369, Note_on_c, 0, 69, 65
2, 9391, Note_on_c, 0, 68, 0
2, 9433, Note_on_c, 0, 71, 75
2, 9462, Note_on_c, 0, 69, 0
2, 9479, Note_on_c, 0, 71, 0
2, 9566, Note_on_c, 0, 52, 60
2, 9575, Note_on_c, 0, 68, 83
2, 9614, Note_on_c, 0, 52, 0
2, 9630, Note_on_c, 0, 68, 0
2, 9637, Note_on_c, 0, 50, 61
2, 9685, Note_on_c, 0, 50, 0
2, 9705, Note_on_c, 0, 49, 56
2, 9710, Note_on_c, 0, 71, 80
2, 9744, Note_on_c, 0, 49, 0
2, 9763, Note_on_c, 0, 71, 0
2, 9768, Note_on_c, 0, 47, 57
2, 9810, Control_c, 0, 64, 39
2, 9826, Control_c, 0, 64, 55
2, 9837, Note_on_c, 0, 49, 58
2, 9841, Control_c, 0, 64, 62
2, 9849, Note_on_c, 0, 47, 0
2, 9856, Control_c, 0, 64, 66
2, 9858, Note_on_c, 0, 76, 78
2, 9871, Control_c, 0, 64, 70
2, 9884, Note_on_c, 0, 76, 0
2, 9886, Control_c, 0, 64, 77
2, 9902, Control_c, 0, 64, 81
2, 9907, Note_on_c, 0, 49, 0
2, 9917, Control_c, 0, 64, 85
2, 9931, Control_c, 0, 64, 86
2, 9947, Control_c, 0, 64, 85
2, 9970, Control_c, 0, 64, 82
2, 9986, Control_c, 0, 64, 77
2, 9989, Note_on_c, 0, 49, 30
2, 10000, Control_c, 0, 64, 68
2, 10016, Control_c, 0, 64, 62
2, 10031, Control_c, 0, 64, 56
2, 10046, Control_c, 0, 64, 54
2, 10049, Note_on_c, 0, 64, 71
2, 10062, Control_c, 0, 64, 49
2, 10076, Control_c, 0, 64, 36
2, 10091, Control_c, 0, 64, 0
2, 10111, Note_on_c, 0, 62, 64
2, 10113, Note_on_c, 0, 64, 0
2, 10160, Note_on_c, 0, 49, 0
2, 10166, Note_on_c, 0, 37, 56
2, 10176, Note_on_c, 0, 61, 72
2, 10201, Note_on_c, 0, 62, 0
2, 10217, Note_on_c, 0, 37, 0
2, 10236, Note_on_c, 0, 59, 70
2, 10257, Note_on_c, 0, 61, 0
2, 10301, Note_on_c, 0, 49, 56
2, 10310, Note_on_c, 0, 59, 0
2, 10311, Note_on_c, 0, 57, 70
2, 10351, Note_on_c, 0, 57, 0
2, 10430, Note_on_c, 0, 49, 0
2, 10449, Note_on_c, 0, 61, 74
2, 10490, Note_on_c, 0, 61, 0
2, 10580, Note_on_c, 0, 49, 61
2, 10588, Note_on_c, 0, 57, 68
2, 10611, Note_on_c, 0, 49, 0
2, 10628, Note_on_c, 0, 57, 0
2, 10722, Note_on_c, 0, 54, 61
2, 10750, Note_on_c, 0, 49, 45
2, 10875, Note_on_c, 0, 62, 56
2, 10881, Note_on_c, 0, 54, 0
2, 10913, Note_on_c, 0, 62, 0
2, 10942, Note_on_c, 0, 64, 72
2, 11008, Note_on_c, 0, 64, 0
2, 11010, Note_on_c, 0, 66, 72
2, 11035, Note_on_c, 0, 49, 0
2, 11072, Note_on_c, 0, 68, 76
2, 11096, Note_on_c, 0, 66, 0
2, 11143, Note_on_c, 0, 69, 72
2, 11171, Note_on_c, 0, 68, 0
2, 11183, Note_on_c, 0, 69, 0
2, 11283, Note_on_c, 0, 50, 56
2, 11283, Note_on_c, 0, 66, 72
2, 11329, Note_on_c, 0, 66, 0
2, 11334, Note_on_c, 0, 50, 0
2, 11349, Note_on_c, 0, 49, 57
2, 11395, Note_on_c, 0, 49, 0
2, 11419, Note_on_c, 0, 47, 56
2, 11423, Note_on_c, 0, 69, 71
2, 11460, Note_on_c, 0, 47, 0
2, 11464, Note_on_c, 0, 69, 0
2, 11483, Note_on_c, 0, 45, 54
2, 11537, Control_c, 0, 64, 23
2, 11551, Control_c, 0, 64, 46
2, 11557, Note_on_c, 0, 47, 57
2, 11566, Control_c, 0, 64, 54
2, 11569, Note_on_c, 0, 45, 0
2, 11569, Note_on_c, 0, 74, 73
2, 11582, Control_c, 0, 64, 59
2, 11588, Note_on_c, 0, 47, 0
2, 11597, Control_c, 0, 64, 60
2, 11628, Control_c, 0, 64, 59
2, 11642, Control_c, 0, 64, 57
2, 11658, Control_c, 0, 64, 54
2, 11673, Control_c, 0, 64, 49
2, 11688, Control_c, 0, 64, 43
2, 11704, Control_c, 0, 64, 34
2, 11719, Control_c, 0, 64, 22
2, 11728, Note_on_c, 0, 54, 58
2, 11735, Control_c, 0, 64, 0
2, 11755, Note_on_c, 0, 54, 0
2, 11797, Note_on_c, 0, 52, 66
2, 11850, Note_on_c, 0, 52, 0
2, 11860, Note_on_c, 0, 50, 61
2, 11863, Note_on_c, 0, 66, 64
2, 11876, Note_on_c, 0, 74, 0
2, 11899, Note_on_c, 0, 66, 0
2, 11906, Note_on_c, 0, 50, 0
2, 11924, Note_on_c, 0, 49, 59
2, 11991, Note_on_c, 0, 47, 67
2, 11999, Note_on_c, 0, 74, 72
2, 12002, Note_on_c, 0, 49, 0
2, 12002, Note_on_c, 0, 66, 66
2, 12018, Note_on_c, 0, 47, 0
2, 12150, Note_on_c, 0, 50, 63
2, 12178, Note_on_c, 0, 50, 0
2, 12188, Note_on_c, 0, 74, 0
2, 12193, Note_on_c, 0, 66, 0
2, 12297, Note_on_c, 0, 47, 65
2, 12308, Note_on_c, 0, 74, 70
2, 12318, Note_on_c, 0, 66, 55
2, 12321, Note_on_c, 0, 47, 0
2, 12342, Note_on_c, 0, 74, 0
2, 12349, Note_on_c, 0, 66, 0
2, 12447, Note_on_c, 0, 74, 57
2, 12449, Note_on_c, 0, 44, 51
2, 12463, Note_on_c, 0, 64, 57
2, 12483, Note_on_c, 0, 44, 0
2, 12596, Note_on_c, 0, 47, 64
2, 12632, Note_on_c, 0, 47, 0
2, 12736, Note_on_c, 0, 44, 68
2, 12774, Note_on_c, 0, 44, 0
2, 12881, Note_on_c, 0, 40, 69
2, 12915, Note_on_c, 0, 40, 0
2, 13018, Note_on_c, 0, 44, 62
2, 13018, Note_on_c, 0, 64, 0
2, 13039, Note_on_c, 0, 74, 0
2, 13045, Note_on_c, 0, 76, 63
2, 13061, Note_on_c, 0, 44, 0
2, 13123, Note_on_c, 0, 74, 67
2, 13129, Note_on_c, 0, 76, 0
2, 13166, Note_on_c, 0, 40, 62
2, 13186, Note_on_c, 0, 73, 71
2, 13203, Note_on_c, 0, 40, 0
2, 13208, Note_on_c, 0, 74, 0
2, 13247, Note_on_c, 0, 73, 0
2, 13266, Note_on_c, 0, 71, 67
2, 13341, Note_on_c, 0, 45, 65
2, 13352, Note_on_c, 0, 73, 71
2, 13360, Note_on_c, 0, 71, 0
2, 13367, Note_on_c, 0, 45, 0
2, 13473, Note_on_c, 0, 73, 0
2, 13511, Note_on_c, 0, 49, 58
2, 13516, Note_on_c, 0, 69, 63
2, 13541, Note_on_c, 0, 49, 0
2, 13591, Note_on_c, 0, 69, 0
2, 13599, Note_on_c, 0, 71, 65
2, 13649, Note_on_c, 0, 45, 57
2, 13666, Note_on_c, 0, 73, 70
2, 13668, Note_on_c, 0, 71, 0
2, 13690, Note_on_c, 0, 45, 0
2, 13732, Note_on_c, 0, 74, 73
2, 13736, Note_on_c, 0, 73, 0
2, 13805, Note_on_c, 0, 42, 51
2, 13815, Note_on_c, 0, 76, 74
2, 13832, Note_on_c, 0, 74, 0
2, 13835, Note_on_c, 0, 42, 0
2, 13959, Note_on_c, 0, 45, 61
2, 13965, Note_on_c, 0, 74, 73
2, 13972, Note_on_c, 0, 76, 0
2, 13988, Note_on_c, 0, 45, 0
2, 14042, Note_on_c, 0, 73, 70
2, 14079, Note_on_c, 0, 74, 0
2, 14101, Note_on_c, 0, 42, 55
2, 14107, Note_on_c, 0, 71, 71
2, 14123, Note_on_c, 0, 73, 0
2, 14131, Note_on_c, 0, 42, 0
2, 14162, Note_on_c, 0, 71, 0
2, 14176, Note_on_c, 0, 69, 70
2, 14248, Note_on_c, 0, 47, 73
2, 14254, Note_on_c, 0, 74, 79
2, 14269, Note_on_c, 0, 69, 0
2, 14276, Note_on_c, 0, 47, 0
2, 14360, Note_on_c, 0, 74, 0
2, 14394, Note_on_c, 0, 71, 72
2, 14397, Note_on_c, 0, 50, 66
2, 14427, Note_on_c, 0, 50, 0
2, 14459, Note_on_c, 0, 73, 79
2, 14460, Note_on_c, 0, 71, 0
2, 14534, Note_on_c, 0, 47, 65
2, 14534, Note_on_c, 0, 74, 78
2, 14551, Note_on_c, 0, 73, 0
2, 14582, Note_on_c, 0, 47, 0
2, 14598, Note_on_c, 0, 76, 72
2, 14623, Note_on_c, 0, 74, 0
2, 14679, Note_on_c, 0, 44, 58
2, 14685, Note_on_c, 0, 78, 89
2, 14691, Note_on_c, 0, 76, 0
2, 14708, Note_on_c, 0, 44, 0
2, 14827, Note_on_c, 0, 47, 62
2, 14849, Note_on_c, 0, 78, 0
2, 14852, Note_on_c, 0, 76, 73
2, 14855, Note_on_c, 0, 47, 0
2, 14924, Note_on_c, 0, 74, 77
2, 14952, Note_on_c, 0, 44, 62
2, 14960, Note_on_c, 0, 76, 0
2, 14982, Note_on_c, 0, 44, 0
2, 14986, Note_on_c, 0, 73, 78
2, 14996, Note_on_c, 0, 74, 0
2, 15041, Note_on_c, 0, 73, 0
2, 15054, Note_on_c, 0, 71, 71
2, 15129, Note_on_c, 0, 49, 47
2, 15135, Note_on_c, 0, 76, 79
2, 15177, Note_on_c, 0, 71, 0
2, 15268, Note_on_c, 0, 49, 0
2, 15285, Note_on_c, 0, 57, 63
2, 15320, Note_on_c, 0, 57, 0
2, 15365, Note_on_c, 0, 59, 66
2, 15419, Note_on_c, 0, 59, 0
2, 15430, Note_on_c, 0, 61, 72
2, 15496, Note_on_c, 0, 61, 0
2, 15496, Note_on_c, 0, 62, 72
2, 15555, Note_on_c, 0, 62, 0
2, 15569, Note_on_c, 0, 64, 76
2, 15699, Note_on_c, 0, 64, 0
2, 15717, Note_on_c, 0, 62, 66
2, 15776, Note_on_c, 0, 62, 0
2, 15785, Note_on_c, 0, 61, 66
2, 15810, Note_on_c, 0, 61, 0
2, 15856, Note_on_c, 0, 59, 74
2, 15914, Note_on_c, 0, 59, 0
2, 15923, Control_c, 0, 64, 10
2, 15929, Note_on_c, 0, 57, 60
2, 15939, Control_c, 0, 64, 20
2, 15953, Control_c, 0, 64, 29
2, 15968, Control_c, 0, 64, 36
2, 15980, Note_on_c, 0, 66, 69
2, 15984, Control_c, 0, 64, 42
2, 15997, Note_on_c, 0, 57, 0
2, 15999, Control_c, 0, 64, 45
2, 16007, Note_on_c, 0, 50, 54
2, 16015, Control_c, 0, 64, 47
2, 16030, Control_c, 0, 64, 49
2, 16045, Control_c, 0, 64, 52
2, 16060, Control_c, 0, 64, 54
2, 16075, Control_c, 0, 64, 56
2, 16090, Control_c, 0, 64, 57
2, 16113, Control_c, 0, 64, 58
2, 16115, Note_on_c, 0, 50, 0
2, 16128, Control_c, 0, 64, 59
2, 16143, Control_c, 0, 64, 60
2, 16155, Note_on_c, 0, 59, 64
2, 16171, Note_on_c, 0, 66, 0
2, 16214, Note_on_c, 0, 59, 0
2, 16220, Control_c, 0, 64, 59
2, 16225, Note_on_c, 0, 61, 64
2, 16235, Control_c, 0, 64, 58
2, 16250, Control_c, 0, 64, 57
2, 16265, Control_c, 0, 64, 55
2, 16280, Control_c, 0, 64, 53
2, 16280, Note_on_c, 0, 61, 0
2, 16291, Note_on_c, 0, 62, 69
2, 16296, Control_c, 0, 64, 51
2, 16310, Control_c, 0, 64, 47
2, 16319, Note_on_c, 0, 62, 0
2, 16325, Control_c, 0, 64, 43
2, 16341, Control_c, 0, 64, 39
2, 16356, Control_c, 0, 64, 35
2, 16364, Note_on_c, 0, 64, 65
2, 16371, Control_c, 0, 64, 30
2, 16386, Control_c, 0, 64, 25
2, 16401, Control_c, 0, 64, 12
2, 16418, Control_c, 0, 64, 0
2, 16444, Note_on_c, 0, 64, 0
2, 16445, Note_on_c, 0, 66, 65
2, 16456, Note_on_c, 0, 74, 70
2, 16496, Note_on_c, 0, 76, 0
2, 16551, Note_on_c, 0, 66, 0
2, 16601, Note_on_c, 0, 64, 55
2, 16662, Note_on_c, 0, 64, 0
2, 16671, Note_on_c, 0, 62, 67
2, 16677, Control_c, 0, 64, 22
2, 16691, Control_c, 0, 64, 39
2, 16707, Control_c, 0, 64, 46
2, 16722, Control_c, 0, 64, 51
2, 16722, Control_c, 0, 67, 13
2, 16737, Note_on_c, 0, 62, 0
2, 16738, Control_c, 0, 64, 54
2, 16738, Control_c, 0, 67, 21
2, 16740, Note_on_c, 0, 61, 60
2, 16753, Control_c, 0, 64, 57
2, 16753, Control_c, 0, 67, 30
2, 16767, Control_c, 0, 64, 58
2, 16767, Control_c, 0, 67, 37
2, 16783, Control_c, 0, 64, 58
2, 16783, Control_c, 0, 67, 43
2, 16796, Note_on_c, 0, 59, 67
2, 16798, Control_c, 0, 64, 60
2, 16798, Control_c, 0, 67, 46
2, 16812, Note_on_c, 0, 61, 0
2, 16814, Control_c, 0, 64, 61
2, 16814, Control_c, 0, 67, 47
2, 16825, Note_on_c, 0, 59, 0
2, 16828, Control_c, 0, 64, 62
2, 16843, Control_c, 0, 64, 64
2, 16843, Control_c, 0, 67, 48
2, 16859, Control_c, 0, 64, 65
2, 16882, Control_c, 0, 67, 47
2, 16898, Control_c, 0, 64, 64
2, 16898, Control_c, 0, 67, 46
2, 16904, Note_on_c, 0, 68, 66
2, 16912, Control_c, 0, 64, 54
2, 16912, Control_c, 0, 67, 46
2, 16927, Control_c, 0, 64, 0
2, 16927, Control_c, 0, 67, 44
2, 16931, Note_on_c, 0, 52, 45
2, 16943, Control_c, 0, 67, 42
2, 16958, Control_c, 0, 67, 40
2, 16974, Control_c, 0, 67, 38
2, 16988, Control_c, 0, 67, 35
2, 17003, Control_c, 0, 67, 28
2, 17019, Control_c, 0, 67, 19
2, 17024, Note_on_c, 0, 74, 0
2, 17033, Control_c, 0, 67, 0
2, 17036, Note_on_c, 0, 68, 0
2, 17048, Control_c, 0, 64, 43
2, 17064, Control_c, 0, 64, 55
2, 17072, Note_on_c, 0, 64, 67
2, 17079, Control_c, 0, 64, 61
2, 17095, Control_c, 0, 64, 64
2, 17109, Control_c, 0, 64, 68
2, 17124, Control_c, 0, 64, 72
2, 17140, Control_c, 0, 64, 76
2, 17140, Note_on_c, 0, 64, 0
2, 17143, Note_on_c, 0, 66, 66
2, 17155, Control_c, 0, 64, 80
2, 17170, Control_c, 0, 64, 81
2, 17201, Control_c, 0, 64, 79
2, 17215, Note_on_c, 0, 68, 69
2, 17217, Control_c, 0, 64, 76
2, 17217, Note_on_c, 0, 40, 60
2, 17223, Note_on_c, 0, 66, 0
2, 17231, Control_c, 0, 64, 73
2, 17242, Note_on_c, 0, 68, 0
2, 17246, Control_c, 0, 64, 70
2, 17248, Note_on_c, 0, 40, 0
2, 17262, Control_c, 0, 64, 67
2, 17274, Note_on_c, 0, 69, 70
2, 17277, Control_c, 0, 64, 64
2, 17292, Control_c, 0, 64, 61
2, 17304, Note_on_c, 0, 52, 0
2, 17308, Control_c, 0, 64, 60
2, 17322, Control_c, 0, 64, 59
2, 17338, Control_c, 0, 64, 57
2, 17353, Control_c, 0, 64, 54
2, 17357, Note_on_c, 0, 69, 0
2, 17359, Note_on_c, 0, 40, 50
2, 17360, Note_on_c, 0, 74, 70
2, 17364, Note_on_c, 0, 71, 61
2, 17367, Control_c, 0, 64, 47
2, 17383, Control_c, 0, 64, 32
2, 17398, Control_c, 0, 64, 0
2, 17473, Note_on_c, 0, 71, 0
2, 17516, Note_on_c, 0, 68, 75
2, 17555, Note_on_c, 0, 40, 0
2, 17574, Note_on_c, 0, 68, 0
2, 17670, Note_on_c, 0, 71, 74
2, 17680, Note_on_c, 0, 40, 62
2, 17698, Note_on_c, 0, 74, 0
2, 17706, Note_on_c, 0, 71, 0
2, 17713, Note_on_c, 0, 40, 0
2, 17810, Note_on_c, 0, 40, 50
2, 17815, Note_on_c, 0, 80, 78
2, 17819, Note_on_c, 0, 74, 72
2, 17882, Note_on_c, 0, 74, 0
2, 17968, Note_on_c, 0, 71, 73
2, 18030, Note_on_c, 0, 71, 0
2, 18074, Control_c, 0, 64, 32
2, 18089, Control_c, 0, 64, 47
2, 18104, Note_on_c, 0, 74, 87
2, 18105, Control_c, 0, 64, 53
2, 18120, Control_c, 0, 64, 58
2, 18138, Control_c, 0, 64, 62
2, 18152, Control_c, 0, 64, 65
2, 18153, Note_on_c, 0, 40, 0
2, 18154, Note_on_c, 0, 74, 0
2, 18160, Note_on_c, 0, 80, 0
2, 18168, Control_c, 0, 64, 68
2, 18183, Control_c, 0, 64, 74
2, 18197, Control_c, 0, 64, 80
2, 18213, Control_c, 0, 64, 86
2, 18228, Control_c, 0, 64, 91
2, 18243, Control_c, 0, 64, 95
2, 18253, Note_on_c, 0, 83, 87
2, 18259, Control_c, 0, 64, 95
2, 18259, Note_on_c, 0, 80, 79
2, 18273, Control_c, 0, 64, 95
2, 18289, Control_c, 0, 64, 93
2, 18305, Control_c, 0, 64, 90
2, 18311, Note_on_c, 0, 80, 0
2, 18320, Control_c, 0, 64, 87
2, 18336, Control_c, 0, 64, 82
2, 18351, Control_c, 0, 64, 76
2, 18367, Control_c, 0, 64, 72
2, 18381, Control_c, 0, 64, 69
2, 18396, Control_c, 0, 64, 66
2, 18398, Note_on_c, 0, 74, 86
2, 18420, Control_c, 0, 64, 63
2, 18435, Control_c, 0, 64, 57
2, 18450, Control_c, 0, 64, 43
2, 18452, Note_on_c, 0, 74, 0
2, 18465, Control_c, 0, 64, 0
2, 18470, Note_on_c, 0, 47, 64
2, 18549, Note_on_c, 0, 49, 64
2, 18550, Note_on_c, 0, 80, 75
2, 18555, Note_on_c, 0, 47, 0
2, 18598, Note_on_c, 0, 80, 0
2, 18613, Note_on_c, 0, 50, 70
2, 18619, Note_on_c, 0, 49, 0
2, 18692, Note_on_c, 0, 52, 71
2, 18696, Note_on_c, 0, 50, 0
2, 18698, Note_on_c, 0, 73, 81
2, 18763, Note_on_c, 0, 73, 0
2, 18850, Note_on_c, 0, 81, 80
2, 18860, Note_on_c, 0, 83, 0
2, 18875, Control_c, 0, 64, 49
2, 18891, Control_c, 0, 64, 60
2, 18906, Control_c, 0, 64, 64
2, 18920, Control_c, 0, 64, 69
2, 18921, Note_on_c, 0, 80, 75
2, 18936, Control_c, 0, 64, 76
2, 18948, Note_on_c, 0, 81, 0
2, 18951, Control_c, 0, 64, 86
2, 18967, Control_c, 0, 64, 101
2, 18981, Control_c, 0, 64, 127
2, 18984, Note_on_c, 0, 40, 64
2, 18985, Note_on_c, 0, 78, 80
2, 19016, Note_on_c, 0, 80, 0
2, 19026, Note_on_c, 0, 40, 0
2, 19036, Note_on_c, 0, 52, 0
2, 19037, Note_on_c, 0, 76, 72
2, 19041, Control_c, 0, 64, 118
2, 19043, Note_on_c, 0, 78, 0
2, 19057, Control_c, 0, 64, 110
2, 19064, Note_on_c, 0, 76, 0
2, 19072, Control_c, 0, 64, 103
2, 19088, Control_c, 0, 64, 96
2, 19103, Control_c, 0, 64, 86
2, 19119, Control_c, 0, 64, 76
2, 19130, Note_on_c, 0, 40, 59
2, 19135, Control_c, 0, 64, 66
2, 19149, Control_c, 0, 64, 58
2, 19156, Note_on_c, 0, 75, 76
2, 19162, Note_on_c, 0, 69, 65
2, 19164, Control_c, 0, 64, 41
2, 19187, Control_c, 0, 64, 0
2, 19196, Note_on_c, 0, 75, 0
2, 19295, Note_on_c, 0, 78, 80
2, 19337, Note_on_c, 0, 40, 0
2, 19354, Note_on_c, 0, 78, 0
2, 19392, Note_on_c, 0, 69, 0
2, 19435, Note_on_c, 0, 75, 78
2, 19449, Note_on_c, 0, 40, 62
2, 19482, Note_on_c, 0, 40, 0
2, 19497, Note_on_c, 0, 75, 0
2, 19576, Note_on_c, 0, 40, 55
2, 19582, Note_on_c, 0, 69, 53
2, 19587, Note_on_c, 0, 66, 62
2, 19654, Note_on_c, 0, 69, 0
2, 19725, Note_on_c, 0, 75, 75
2, 19764, Control_c, 0, 64, 30
2, 19770, Note_on_c, 0, 75, 0
2, 19780, Control_c, 0, 64, 44
2, 19795, Control_c, 0, 64, 48
2, 19811, Control_c, 0, 64, 51
2, 19818, Note_on_c, 0, 66, 0
2, 19825, Control_c, 0, 64, 53
2, 19840, Control_c, 0, 64, 54
2, 19864, Note_on_c, 0, 69, 71
2, 19871, Control_c, 0, 64, 52
2, 19887, Control_c, 0, 64, 49
2, 19897, Note_on_c, 0, 69, 0
2, 19901, Control_c, 0, 64, 46
2, 19916, Control_c, 0, 64, 42
2, 19932, Control_c, 0, 64, 40
2, 19955, Control_c, 0, 64, 36
2, 19971, Control_c, 0, 64, 27
2, 19986, Control_c, 0, 64, 0
2, 20019, Note_on_c, 0, 66, 72
2, 20032, Note_on_c, 0, 63, 61
2, 20076, Note_on_c, 0, 66, 0
2, 20163, Note_on_c, 0, 69, 70
2, 20222, Note_on_c, 0, 63, 0
2, 20232, Note_on_c, 0, 69, 0
2, 20303, Note_on_c, 0, 66, 70
2, 20319, Note_on_c, 0, 40, 0
2, 20321, Control_c, 0, 64, 12
2, 20367, Note_on_c, 0, 66, 0
2, 20427, Control_c, 0, 64, 0
2, 20452, Note_on_c, 0, 68, 72
2, 20456, Note_on_c, 0, 64, 61
2, 20605, Note_on_c, 0, 66, 70
2, 20621, Note_on_c, 0, 64, 0
2, 20642, Note_on_c, 0, 68, 0
2, 20667, Note_on_c, 0, 49, 61
2, 20743, Note_on_c, 0, 50, 68
2, 20744, Note_on_c, 0, 49, 0
2, 20764, Note_on_c, 0, 64, 62
2, 20768, Note_on_c, 0, 66, 0
2, 20811, Note_on_c, 0, 50, 0
2, 20819, Note_on_c, 0, 52, 62
2, 20897, Note_on_c, 0, 52, 0
2, 20901, Note_on_c, 0, 54, 56
2, 20901, Note_on_c, 0, 61, 71
2, 20904, Note_on_c, 0, 69, 59
2, 20931, Note_on_c, 0, 64, 0
2, 20964, Control_c, 0, 64, 28
2, 20964, Note_on_c, 0, 54, 0
2, 20980, Control_c, 0, 64, 38
2, 20995, Control_c, 0, 64, 40
2, 21026, Control_c, 0, 64, 39
2, 21027, Note_on_c, 0, 61, 0
2, 21041, Control_c, 0, 64, 34
2, 21052, Note_on_c, 0, 52, 74
2, 21052, Note_on_c, 0, 69, 0
2, 21057, Control_c, 0, 64, 25
2, 21072, Control_c, 0, 64, 8
2, 21086, Control_c, 0, 64, 0
2, 21117, Note_on_c, 0, 52, 0
2, 21196, Note_on_c, 0, 74, 74
2, 21197, Note_on_c, 0, 50, 61
2, 21200, Note_on_c, 0, 69, 67
2, 21241, Note_on_c, 0, 50, 0
2, 21245, Note_on_c, 0, 69, 0
2, 21261, Note_on_c, 0, 74, 0
2, 21356, Note_on_c, 0, 73, 62
2, 21359, Note_on_c, 0, 52, 42
2, 21374, Note_on_c, 0, 69, 50
2, 21450, Control_c, 0, 64, 33
2, 21466, Control_c, 0, 64, 53
2, 21489, Control_c, 0, 64, 61
2, 21505, Control_c, 0, 64, 66
2, 21519, Control_c, 0, 64, 71
2, 21535, Control_c, 0, 64, 80
2, 21550, Control_c, 0, 64, 92
2, 21565, Control_c, 0, 64, 105
2, 21571, Note_on_c, 0, 69, 0
2, 21576, Note_on_c, 0, 73, 0
2, 21581, Control_c, 0, 64, 118
2, 21597, Control_c, 0, 64, 120
2, 21627, Control_c, 0, 64, 119
2, 21642, Control_c, 0, 64, 114
2, 21658, Control_c, 0, 64, 108
2, 21673, Control_c, 0, 64, 103
2, 21687, Control_c, 0, 64, 98
2, 21703, Control_c, 0, 64, 91
2, 21718, Control_c, 0, 64, 84
2, 21722, Note_on_c, 0, 71, 51
2, 21724, Note_on_c, 0, 68, 61
2, 21734, Control_c, 0, 64, 77
2, 21744, Note_on_c, 0, 71, 0
2, 21748, Control_c, 0, 64, 71
2, 21751, Note_on_c, 0, 68, 0
2, 21763, Control_c, 0, 64, 65
2, 21777, Note_on_c, 0, 73, 66
2, 21779, Control_c, 0, 64, 62
2, 21794, Control_c, 0, 64, 56
2, 21809, Control_c, 0, 64, 48
2, 21818, Note_on_c, 0, 71, 67
2, 21824, Control_c, 0, 64, 34
2, 21835, Note_on_c, 0, 40, 48
2, 21839, Control_c, 0, 64, 0
2, 21851, Note_on_c, 0, 52, 0
2, 21873, Note_on_c, 0, 73, 0
2, 21998, Note_on_c, 0, 69, 65
2, 22019, Note_on_c, 0, 71, 0
2, 22035, Note_on_c, 0, 40, 0
2, 22058, Note_on_c, 0, 69, 0
2, 22136, Note_on_c, 0, 71, 63
2, 22203, Note_on_c, 0, 71, 0
2, 22294, Note_on_c, 0, 45, 42
2, 22296, Note_on_c, 0, 69, 61
2, 22464, Note_on_c, 0, 73, 68
2, 22466, Note_on_c, 0, 69, 0
2, 22540, Note_on_c, 0, 71, 69
2, 22557, Note_on_c, 0, 73, 0
2, 22596, Note_on_c, 0, 71, 0
2, 22624, Note_on_c, 0, 69, 57
2, 22626, Note_on_c, 0, 52, 57
2, 22637, Note_on_c, 0, 45, 0
2, 22656, Note_on_c, 0, 52, 0
2, 22701, Note_on_c, 0, 68, 77
2, 22710, Note_on_c, 0, 69, 0
2, 22781, Note_on_c, 0, 57, 60
2, 22815, Note_on_c, 0, 66, 72
2, 22816, Note_on_c, 0, 57, 0
2, 22826, Note_on_c, 0, 56, 61
2, 22830, Note_on_c, 0, 68, 0
2, 22867, Note_on_c, 0, 56, 0
2, 22894, Note_on_c, 0, 57, 63
2, 22959, Note_on_c, 0, 66, 0
2, 22968, Note_on_c, 0, 69, 70
2, 23058, Note_on_c, 0, 68, 75
2, 23096, Note_on_c, 0, 69, 0
2, 23120, Note_on_c, 0, 66, 77
2, 23145, Note_on_c, 0, 68, 0
2, 23182, Note_on_c, 0, 66, 0
2, 23196, Note_on_c, 0, 64, 74
2, 23266, Note_on_c, 0, 63, 81
2, 23276, Note_on_c, 0, 64, 0
2, 23316, Note_on_c, 0, 63, 0
2, 23396, Note_on_c, 0, 57, 0
2, 23415, Note_on_c, 0, 66, 81
2, 23423, Note_on_c, 0, 59, 62
2, 23467, Note_on_c, 0, 66, 0
2, 23489, Note_on_c, 0, 59, 0
2, 23516, Note_on_c, 0, 57, 53
2, 23549, Note_on_c, 0, 57, 0
2, 23557, Note_on_c, 0, 71, 79
2, 23566, Note_on_c, 0, 56, 65
2, 23612, Note_on_c, 0, 71, 0
2, 23636, Note_on_c, 0, 54, 61
2, 23645, Note_on_c, 0, 56, 0
2, 23698, Note_on_c, 0, 71, 82
2, 23714, Note_on_c, 0, 53, 68
2, 23717, Note_on_c, 0, 54, 0
2, 23846, Note_on_c, 0, 53, 0
2, 23849, Note_on_c, 0, 54, 57
2, 23861, Note_on_c, 0, 68, 72
2, 23887, Note_on_c, 0, 54, 0
2, 23904, Note_on_c, 0, 68, 0
2, 23946, Note_on_c, 0, 53, 62
2, 23982, Note_on_c, 0, 53, 0
2, 24008, Note_on_c, 0, 51, 90
2, 24016, Note_on_c, 0, 65, 58
2, 24075, Note_on_c, 0, 51, 0
2, 24086, Note_on_c, 0, 49, 62
2, 24144, Note_on_c, 0, 65, 0
2, 24156, Note_on_c, 0, 54, 62
2, 24159, Note_on_c, 0, 49, 0
2, 24162, Note_on_c, 0, 61, 69
2, 24221, Note_on_c, 0, 61, 0
2, 24315, Note_on_c, 0, 69, 69
2, 24343, Note_on_c, 0, 71, 0
2, 24385, Note_on_c, 0, 68, 76
2, 24413, Note_on_c, 0, 69, 0
2, 24453, Note_on_c, 0, 66, 76
2, 24459, Note_on_c, 0, 42, 48
2, 24462, Note_on_c, 0, 54, 0
2, 24481, Note_on_c, 0, 68, 0
2, 24487, Note_on_c, 0, 42, 0
2, 24510, Note_on_c, 0, 66, 0
2, 24529, Note_on_c, 0, 64, 69
2, 24604, Note_on_c, 0, 54, 61
2, 24616, Note_on_c, 0, 62, 68
2, 24642, Note_on_c, 0, 54, 0
2, 24643, Note_on_c, 0, 64, 0
2, 24670, Note_on_c, 0, 52, 66
2, 24728, Note_on_c, 0, 54, 55
2, 24732, Note_on_c, 0, 52, 0
2, 24753, Note_on_c, 0, 62, 0
2, 24773, Note_on_c, 0, 66, 68
2, 24846, Note_on_c, 0, 64, 71
2, 24881, Note_on_c, 0, 66, 0
2, 24898, Note_on_c, 0, 64, 0
2, 24909, Note_on_c, 0, 62, 57
2, 24950, Note_on_c, 0, 62, 0
2, 24975, Note_on_c, 0, 61, 71
2, 25043, Note_on_c, 0, 61, 0
2, 25049, Note_on_c, 0, 59, 78
2, 25089, Note_on_c, 0, 59, 0
2, 25178, Note_on_c, 0, 54, 0
2, 25206, Note_on_c, 0, 55, 64
2, 25207, Note_on_c, 0, 62, 72
2, 25237, Note_on_c, 0, 62, 0
2, 25278, Note_on_c, 0, 55, 0
2, 25293, Note_on_c, 0, 54, 52
2, 25330, Note_on_c, 0, 54, 0
2, 25357, Note_on_c, 0, 52, 62
2, 25359, Note_on_c, 0, 67, 73
2, 25395, Note_on_c, 0, 67, 0
2, 25411, Note_on_c, 0, 52, 0
2, 25431, Note_on_c, 0, 50, 59
2, 25507, Note_on_c, 0, 67, 68
2, 25521, Note_on_c, 0, 49, 60
2, 25532, Note_on_c, 0, 50, 0
2, 25639, Note_on_c, 0, 49, 0
2, 25668, Note_on_c, 0, 50, 61
2, 25670, Note_on_c, 0, 64, 63
2, 25720, Note_on_c, 0, 64, 0
2, 25722, Note_on_c, 0, 50, 0
2, 25750, Note_on_c, 0, 49, 63
2, 25790, Note_on_c, 0, 49, 0
2, 25813, Note_on_c, 0, 47, 66
2, 25819, Note_on_c, 0, 61, 61
2, 25853, Note_on_c, 0, 61, 0
2, 25883, Note_on_c, 0, 45, 65
2, 25898, Note_on_c, 0, 47, 0
2, 25957, Note_on_c, 0, 50, 61
2, 25958, Note_on_c, 0, 57, 65
2, 25976, Note_on_c, 0, 45, 0
2, 26073, Note_on_c, 0, 57, 0
2, 26126, Note_on_c, 0, 66, 59
2, 26187, Note_on_c, 0, 67, 0
2, 26201, Note_on_c, 0, 64, 67
2, 26226, Note_on_c, 0, 66, 0
2, 26232, Note_on_c, 0, 64, 0
2, 26264, Note_on_c, 0, 38, 56
2, 26264, Note_on_c, 0, 62, 62
2, 26276, Note_on_c, 0, 50, 0
2, 26297, Note_on_c, 0, 38, 0
2, 26307, Note_on_c, 0, 62, 0
2, 26332, Note_on_c, 0, 61, 71
2, 26406, Note_on_c, 0, 50, 50
2, 26419, Note_on_c, 0, 61, 0
2, 26433, Note_on_c, 0, 59, 65
2, 26440, Note_on_c, 0, 50, 0
2, 26469, Note_on_c, 0, 49, 60
2, 26521, Note_on_c, 0, 49, 0
2, 26529, Note_on_c, 0, 50, 59
2, 26553, Note_on_c, 0, 59, 0
2, 26573, Note_on_c, 0, 62, 63
2, 26648, Note_on_c, 0, 61, 67
2, 26676, Note_on_c, 0, 62, 0
2, 26713, Note_on_c, 0, 59, 71
2, 26740, Note_on_c, 0, 61, 0
2, 26756, Note_on_c, 0, 59, 0
2, 26784, Note_on_c, 0, 57, 72
2, 26860, Note_on_c, 0, 56, 75
2, 26875, Note_on_c, 0, 57, 0
2, 26925, Note_on_c, 0, 56, 0
2, 26987, Note_on_c, 0, 50, 0
2, 27002, Note_on_c, 0, 52, 64
2, 27008, Note_on_c, 0, 59, 78
2, 27055, Note_on_c, 0, 59, 0
2, 27082, Note_on_c, 0, 52, 0
2, 27100, Note_on_c, 0, 50, 65
2, 27137, Note_on_c, 0, 50, 0
2, 27150, Note_on_c, 0, 49, 66
2, 27159, Note_on_c, 0, 64, 78
2, 27195, Note_on_c, 0, 64, 0
2, 27236, Note_on_c, 0, 47, 64
2, 27253, Note_on_c, 0, 49, 0
2, 27308, Note_on_c, 0, 47, 0
2, 27308, Note_on_c, 0, 61, 79
2, 27311, Note_on_c, 0, 45, 69
2, 27407, Note_on_c, 0, 61, 0
2, 27447, Note_on_c, 0, 47, 64
2, 27458, Note_on_c, 0, 45, 0
2, 27468, Note_on_c, 0, 64, 78
2, 27516, Note_on_c, 0, 49, 61
2, 27516, Note_on_c, 0, 64, 0
2, 27535, Note_on_c, 0, 47, 0
2, 27582, Note_on_c, 0, 50, 70
2, 27587, Note_on_c, 0, 49, 0
2, 27611, Note_on_c, 0, 69, 75
2, 27629, Note_on_c, 0, 50, 0
2, 27670, Note_on_c, 0, 52, 69
2, 27676, Note_on_c, 0, 69, 0
2, 27762, Note_on_c, 0, 54, 62
2, 27765, Note_on_c, 0, 62, 72
2, 27776, Note_on_c, 0, 52, 0
2, 27923, Note_on_c, 0, 54, 0
2, 27926, Note_on_c, 0, 52, 72
2, 27967, Note_on_c, 0, 62, 0
2, 28073, Note_on_c, 0, 71, 71
2, 28075, Note_on_c, 0, 50, 59
2, 28079, Note_on_c, 0, 52, 0
2, 28083, Note_on_c, 0, 62, 56
2, 28115, Note_on_c, 0, 71, 0
2, 28116, Note_on_c, 0, 62, 0
2, 28238, Note_on_c, 0, 52, 48
2, 28239, Note_on_c, 0, 64, 67
2, 28240, Note_on_c, 0, 61, 64
2, 28283, Note_on_c, 0, 50, 0
2, 28348, Note_on_c, 0, 61, 0
2, 28405, Note_on_c, 0, 69, 70
2, 28428, Note_on_c, 0, 64, 0
2, 28472, Note_on_c, 0, 69, 0
2, 28551, Note_on_c, 0, 68, 66
2, 28556, Note_on_c, 0, 40, 62
2, 28566, Note_on_c, 0, 59, 59
2, 28591, Note_on_c, 0, 40, 0
2, 28603, Note_on_c, 0, 68, 0
2, 28613, Note_on_c, 0, 59, 0
2, 28615, Note_on_c, 0, 52, 0
2, 28714, Note_on_c, 0, 61, 60
2, 28714, Note_on_c, 0, 69, 58
2, 28720, Note_on_c, 0, 45, 70
2, 28756, Note_on_c, 0, 45, 0
2, 28877, Note_on_c, 0, 49, 72
2, 28909, Note_on_c, 0, 49, 0
2, 29044, Note_on_c, 0, 52, 76
2, 29074, Note_on_c, 0, 52, 0
2, 29229, Control_c, 0, 64, 34
2, 29243, Control_c, 0, 64, 48
2, 29259, Control_c, 0, 64, 57
2, 29264, Note_on_c, 0, 57, 67
2, 29274, Control_c, 0, 64, 62
2, 29289, Control_c, 0, 64, 66
2, 29295, Note_on_c, 0, 69, 0
2, 29303, Note_on_c, 0, 57, 0
2, 29305, Control_c, 0, 64, 70
2, 29308, Note_on_c, 0, 61, 0
2, 29320, Control_c, 0, 64, 78
2, 29336, Control_c, 0, 64, 87
2, 29351, Control_c, 0, 64, 97
2, 29366, Control_c, 0, 64, 109
2, 29382, Control_c, 0, 64, 114
2, 29427, Control_c, 0, 64, 112
2, 29441, Control_c, 0, 64, 110
2, 29457, Control_c, 0, 64, 108
2, 29472, Control_c, 0, 64, 105
2, 29487, Control_c, 0, 64, 103
2, 29503, Control_c, 0, 64, 99
2, 29517, Control_c, 0, 64, 94
2, 29532, Control_c, 0, 64, 88
2, 29548, Control_c, 0, 64, 83
2, 29563, Control_c, 0, 64, 80
2, 29579, Control_c, 0, 64, 77
2, 29593, Control_c, 0, 64, 75
2, 29608, Control_c, 0, 64, 73
2, 29624, Control_c, 0, 64, 71
2, 29639, Control_c, 0, 64, 67
2, 29653, Control_c, 0, 64, 63
2, 29669, Control_c, 0, 64, 58
2, 29684, Control_c, 0, 64, 53
2, 29700, Control_c, 0, 64, 43
2, 29715, Control_c, 0, 64, 0
2, 29867, Note_on_c, 0, 57, 85
2, 29871, Note_on_c, 0, 45, 77
2, 30089, Note_on_c, 0, 76, 86
2, 30171, Note_on_c, 0, 74, 80
2, 30199, Note_on_c, 0, 76, 0
2, 30246, Note_on_c, 0, 73, 82
2, 30271, Note_on_c, 0, 74, 0
2, 30314, Note_on_c, 0, 71, 79
2, 30344, Note_on_c, 0, 73, 0
2, 30384, Note_on_c, 0, 69, 81
2, 30390, Note_on_c, 0, 71, 0
2, 30433, Note_on_c, 0, 69, 0
2, 30530, Note_on_c, 0, 73, 82
2, 30570, Note_on_c, 0, 57, 0
2, 30598, Note_on_c, 0, 73, 0
2, 30677, Note_on_c, 0, 69, 78
2, 30743, Note_on_c, 0, 69, 0
2, 30834, Note_on_c, 0, 64, 77
2, 30895, Note_on_c, 0, 64, 0
2, 30973, Note_on_c, 0, 69, 79
2, 31034, Note_on_c, 0, 69, 0
2, 31041, Note_on_c, 0, 45, 0
2, 31116, Note_on_c, 0, 64, 78
2, 31178, Note_on_c, 0, 64, 0
2, 31247, Note_on_c, 0, 61, 76
2, 31320, Note_on_c, 0, 61, 0
2, 31399, Note_on_c, 0, 64, 81
2, 31471, Note_on_c, 0, 64, 0
2, 31518, Control_c, 0, 64, 32
2, 31533, Control_c, 0, 64, 43
2, 31549, Control_c, 0, 64, 49
2, 31549, Note_on_c, 0, 61, 76
2, 31564, Control_c, 0, 64, 53
2, 31580, Control_c, 0, 64, 55
2, 31608, Note_on_c, 0, 61, 0
2, 31626, Control_c, 0, 64, 54
2, 31656, Control_c, 0, 64, 55
2, 31699, Note_on_c, 0, 57, 65
2, 31702, Control_c, 0, 64, 54
2, 31717, Control_c, 0, 64, 48
2, 31731, Control_c, 0, 64, 35
2, 31747, Control_c, 0, 64, 0
2, 31858, Note_on_c, 0, 69, 68
2, 31909, Note_on_c, 0, 57, 0
2, 31913, Control_c, 0, 64, 25
2, 31914, Note_on_c, 0, 69, 0
2, 31928, Control_c, 0, 64, 48
2, 31937, Note_on_c, 0, 71, 70
2, 31944, Control_c, 0, 64, 53
2, 31998, Note_on_c, 0, 73, 78
2, 32004, Control_c, 0, 64, 52
2, 32005, Note_on_c, 0, 71, 0
2, 32020, Control_c, 0, 64, 50
2, 32035, Control_c, 0, 64, 48
2, 32050, Control_c, 0, 64, 46
2, 32066, Note_on_c, 0, 74, 76
2, 32081, Control_c, 0, 64, 47
2, 32093, Note_on_c, 0, 73, 0
2, 32126, Control_c, 0, 64, 46
2, 32132, Note_on_c, 0, 61, 57
2, 32141, Note_on_c, 0, 76, 77
2, 32142, Control_c, 0, 64, 46
2, 32142, Note_on_c, 0, 57, 46
2, 32142, Note_on_c, 0, 69, 50
2, 32157, Control_c, 0, 64, 45
2, 32172, Control_c, 0, 64, 43
2, 32177, Note_on_c, 0, 74, 0
2, 32187, Control_c, 0, 64, 38
2, 32196, Note_on_c, 0, 76, 0
2, 32202, Control_c, 0, 64, 25
2, 32218, Control_c, 0, 64, 0
2, 32301, Note_on_c, 0, 73, 81
2, 32366, Note_on_c, 0, 73, 0
2, 32393, Control_c, 0, 64, 40
2, 32408, Control_c, 0, 64, 52
2, 32424, Control_c, 0, 64, 57
2, 32439, Control_c, 0, 64, 60
2, 32445, Note_on_c, 0, 76, 76
2, 32453, Control_c, 0, 64, 62
2, 32469, Control_c, 0, 64, 63
2, 32484, Control_c, 0, 64, 63
2, 32492, Note_on_c, 0, 69, 0
2, 32500, Note_on_c, 0, 61, 0
2, 32503, Note_on_c, 0, 57, 0
2, 32512, Note_on_c, 0, 76, 0
2, 32545, Control_c, 0, 64, 64
2, 32560, Control_c, 0, 64, 64
2, 32576, Control_c, 0, 64, 66
2, 32606, Control_c, 0, 64, 65
2, 32621, Control_c, 0, 64, 64
2, 32625, Note_on_c, 0, 81, 53
2, 32628, Note_on_c, 0, 69, 40
2, 32630, Note_on_c, 0, 57, 48
2, 32634, Note_on_c, 0, 61, 40
2, 32634, Note_on_c, 0, 79, 54
2, 32636, Control_c, 0, 64, 63
2, 32651, Control_c, 0, 64, 63
2, 32664, Note_on_c, 0, 61, 0
2, 32665, Note_on_c, 0, 69, 0
2, 32667, Control_c, 0, 64, 64
2, 32668, Note_on_c, 0, 79, 0
2, 32677, Note_on_c, 0, 81, 0
2, 32682, Control_c, 0, 64, 64
2, 32697, Control_c, 0, 64, 65
2, 32705, Note_on_c, 0, 76, 62
2, 32712, Control_c, 0, 64, 65
2, 32727, Control_c, 0, 64, 66
2, 32742, Control_c, 0, 64, 65
2, 32757, Control_c, 0, 64, 65
2, 32771, Note_on_c, 0, 78, 73
2, 32788, Control_c, 0, 64, 66
2, 32792, Note_on_c, 0, 76, 0
2, 32803, Control_c, 0, 64, 66
2, 32818, Control_c, 0, 64, 67
2, 32833, Control_c, 0, 64, 69
2, 32846, Note_on_c, 0, 71, 48
2, 32848, Control_c, 0, 64, 70
2, 32848, Note_on_c, 0, 62, 50
2, 32855, Note_on_c, 0, 80, 71
2, 32864, Control_c, 0, 64, 70
2, 32864, Note_on_c, 0, 57, 0
2, 32869, Note_on_c, 0, 78, 0
2, 32895, Control_c, 0, 64, 71
2, 32921, Note_on_c, 0, 62, 0
2, 32925, Note_on_c, 0, 80, 0
2, 32926, Note_on_c, 0, 81, 77
2, 32930, Note_on_c, 0, 71, 0
2, 33016, Note_on_c, 0, 80, 76
2, 33018, Note_on_c, 0, 81, 0
2, 33024, Control_c, 0, 64, 70
2, 33055, Control_c, 0, 64, 70
2, 33070, Control_c, 0, 64, 69
2, 33085, Control_c, 0, 64, 67
2, 33099, Note_on_c, 0, 80, 0
2, 33101, Control_c, 0, 64, 64
2, 33101, Note_on_c, 0, 81, 78
2, 33105, Note_on_c, 0, 71, 55
2, 33106, Note_on_c, 0, 62, 51
2, 33116, Control_c, 0, 64, 61
2, 33130, Control_c, 0, 64, 56
2, 33146, Control_c, 0, 64, 50
2, 33161, Control_c, 0, 64, 39
2, 33169, Note_on_c, 0, 71, 0
2, 33176, Note_on_c, 0, 81, 0
2, 33177, Control_c, 0, 64, 12
2, 33182, Note_on_c, 0, 76, 73
2, 33191, Control_c, 0, 64, 0
2, 33264, Note_on_c, 0, 78, 78
2, 33279, Note_on_c, 0, 76, 0
2, 33338, Note_on_c, 0, 80, 77
2, 33350, Note_on_c, 0, 64, 65
2, 33350, Note_on_c, 0, 73, 63
2, 33375, Note_on_c, 0, 78, 0
2, 33416, Note_on_c, 0, 81, 83
2, 33417, Note_on_c, 0, 80, 0
2, 33420, Note_on_c, 0, 62, 0
2, 33446, Note_on_c, 0, 73, 0
2, 33451, Note_on_c, 0, 64, 0
2, 33465, Control_c, 0, 64, 48
2, 33480, Control_c, 0, 64, 59
2, 33496, Control_c, 0, 64, 65
2, 33506, Note_on_c, 0, 80, 80
2, 33511, Control_c, 0, 64, 70
2, 33524, Note_on_c, 0, 81, 0
2, 33526, Control_c, 0, 64, 79
2, 33541, Control_c, 0, 64, 88
2, 33556, Control_c, 0, 64, 99
2, 33571, Control_c, 0, 64, 111
2, 33584, Note_on_c, 0, 64, 61
2, 33587, Control_c, 0, 64, 117
2, 33599, Note_on_c, 0, 81, 83
2, 33601, Control_c, 0, 64, 123
2, 33616, Note_on_c, 0, 64, 0
2, 33617, Control_c, 0, 64, 127
2, 33634, Note_on_c, 0, 80, 0
2, 33761, Note_on_c, 0, 80, 71
2, 33786, Note_on_c, 0, 64, 75
2, 33787, Note_on_c, 0, 81, 0
2, 33825, Note_on_c, 0, 64, 0
2, 33849, Note_on_c, 0, 78, 76
2, 33852, Control_c, 0, 64, 118
2, 33855, Note_on_c, 0, 62, 48
2, 33868, Control_c, 0, 64, 112
2, 33884, Control_c, 0, 64, 107
2, 33884, Note_on_c, 0, 80, 0
2, 33897, Note_on_c, 0, 62, 0
2, 33899, Control_c, 0, 64, 102
2, 33905, Note_on_c, 0, 61, 75
2, 33914, Control_c, 0, 64, 96
2, 33929, Control_c, 0, 64, 88
2, 33929, Note_on_c, 0, 76, 75
2, 33945, Control_c, 0, 64, 79
2, 33946, Note_on_c, 0, 78, 0
2, 33960, Control_c, 0, 64, 71
2, 33973, Note_on_c, 0, 76, 0
2, 33975, Control_c, 0, 64, 65
2, 33990, Control_c, 0, 64, 60
2, 34000, Note_on_c, 0, 74, 69
2, 34005, Control_c, 0, 64, 51
2, 34007, Note_on_c, 0, 61, 0
2, 34008, Note_on_c, 0, 59, 57
2, 34021, Control_c, 0, 64, 37
2, 34035, Control_c, 0, 64, 0
2, 34065, Note_on_c, 0, 59, 0
2, 34066, Note_on_c, 0, 74, 0
2, 34067, Note_on_c, 0, 57, 46
2, 34072, Note_on_c, 0, 73, 77
2, 34097, Note_on_c, 0, 57, 0
2, 34145, Note_on_c, 0, 73, 0
2, 34145, Note_on_c, 0, 74, 75
2, 34205, Note_on_c, 0, 61, 62
2, 34223, Note_on_c, 0, 76, 75
2, 34225, Note_on_c, 0, 74, 0
2, 34233, Note_on_c, 0, 61, 0
2, 34300, Note_on_c, 0, 74, 76
2, 34321, Note_on_c, 0, 76, 0
2, 34338, Note_on_c, 0, 57, 58
2, 34362, Note_on_c, 0, 57, 0
2, 34362, Note_on_c, 0, 73, 71
2, 34391, Note_on_c, 0, 74, 0
2, 34425, Note_on_c, 0, 71, 72
2, 34451, Note_on_c, 0, 73, 0
2, 34469, Note_on_c, 0, 71, 0
2, 34481, Note_on_c, 0, 52, 63
2, 34500, Note_on_c, 0, 69, 72
2, 34509, Note_on_c, 0, 52, 0
2, 34543, Note_on_c, 0, 69, 0
2, 34567, Note_on_c, 0, 71, 70
2, 34606, Note_on_c, 0, 71, 0
2, 34634, Note_on_c, 0, 57, 58
2, 34639, Note_on_c, 0, 69, 70
2, 34659, Note_on_c, 0, 57, 0
2, 34667, Note_on_c, 0, 69, 0
2, 34681, Note_on_c, 0, 71, 63
2, 34713, Note_on_c, 0, 71, 0
2, 34751, Note_on_c, 0, 69, 54
2, 34771, Note_on_c, 0, 52, 70
2, 34797, Note_on_c, 0, 52, 0
2, 34811, Note_on_c, 0, 69, 0
2, 34829, Note_on_c, 0, 69, 22
2, 34829, Note_on_c, 0, 71, 54
2, 34869, Note_on_c, 0, 69, 0
2, 34878, Note_on_c, 0, 71, 0
2, 34905, Note_on_c, 0, 49, 68
2, 34915, Note_on_c, 0, 69, 49
2, 34929, Note_on_c, 0, 71, 43
2, 34930, Note_on_c, 0, 49, 0
2, 34957, Note_on_c, 0, 71, 0
2, 34961, Note_on_c, 0, 69, 0
2, 34975, Note_on_c, 0, 69, 52
2, 35004, Note_on_c, 0, 69, 0
2, 35008, Note_on_c, 0, 71, 60
2, 35037, Note_on_c, 0, 71, 0
2, 35052, Note_on_c, 0, 52, 72
2, 35067, Note_on_c, 0, 69, 65
2, 35077, Note_on_c, 0, 52, 0
2, 35092, Control_c, 0, 64, 34
2, 35097, Note_on_c, 0, 69, 0
2, 35105, Note_on_c, 0, 71, 46
2, 35108, Control_c, 0, 64, 48
2, 35123, Control_c, 0, 64, 56
2, 35129, Note_on_c, 0, 71, 0
2, 35139, Control_c, 0, 64, 62
2, 35153, Control_c, 0, 64, 65
2, 35168, Control_c, 0, 64, 70
2, 35182, Note_on_c, 0, 71, 40
2, 35184, Control_c, 0, 64, 75
2, 35196, Note_on_c, 0, 49, 68
2, 35198, Control_c, 0, 64, 82
2, 35213, Control_c, 0, 64, 88
2, 35220, Note_on_c, 0, 71, 0
2, 35221, Note_on_c, 0, 49, 0
2, 35229, Control_c, 0, 64, 91
2, 35244, Control_c, 0, 64, 92
2, 35255, Note_on_c, 0, 69, 65
2, 35260, Control_c, 0, 64, 89
2, 35274, Control_c, 0, 64, 85
2, 35289, Control_c, 0, 64, 79
2, 35313, Control_c, 0, 64, 71
2, 35327, Control_c, 0, 64, 65
2, 35343, Control_c, 0, 64, 58
2, 35358, Control_c, 0, 64, 51
2, 35366, Note_on_c, 0, 45, 65
2, 35373, Control_c, 0, 64, 41
2, 35389, Control_c, 0, 64, 0
2, 35393, Note_on_c, 0, 69, 0
2, 35459, Note_on_c, 0, 71, 57
2, 35532, Note_on_c, 0, 69, 58
2, 35557, Note_on_c, 0, 71, 0
2, 35572, Control_c, 0, 64, 35
2, 35587, Control_c, 0, 64, 44
2, 35596, Note_on_c, 0, 69, 0
2, 35602, Control_c, 0, 64, 49
2, 35613, Note_on_c, 0, 68, 71
2, 35617, Note_on_c, 0, 45, 0
2, 35618, Control_c, 0, 64, 51
2, 35633, Control_c, 0, 64, 51
2, 35647, Control_c, 0, 64, 51
2, 35663, Control_c, 0, 64, 48
2, 35678, Control_c, 0, 64, 45
2, 35693, Control_c, 0, 64, 42
2, 35695, Note_on_c, 0, 68, 0
2, 35701, Note_on_c, 0, 69, 57
2, 35709, Control_c, 0, 64, 37
2, 35723, Control_c, 0, 64, 27
2, 35723, Note_on_c, 0, 69, 0
2, 35739, Control_c, 0, 64, 12
2, 35754, Control_c, 0, 64, 0
2, 35760, Note_on_c, 0, 64, 67
2, 35820, Note_on_c, 0, 49, 51
2, 35835, Note_on_c, 0, 45, 48
2, 35836, Note_on_c, 0, 64, 0
2, 35838, Note_on_c, 0, 61, 68
2, 35912, Note_on_c, 0, 61, 0
2, 35917, Note_on_c, 0, 66, 65
2, 35991, Note_on_c, 0, 64, 69
2, 36025, Note_on_c, 0, 66, 0
2, 36041, Note_on_c, 0, 64, 0
2, 36074, Note_on_c, 0, 62, 61
2, 36096, Note_on_c, 0, 45, 0
2, 36105, Note_on_c, 0, 49, 0
2, 36141, Note_on_c, 0, 62, 0
2, 36148, Note_on_c, 0, 64, 75
2, 36156, Control_c, 0, 64, 13
2, 36171, Control_c, 0, 64, 18
2, 36187, Control_c, 0, 64, 19
2, 36223, Note_on_c, 0, 61, 68
2, 36231, Note_on_c, 0, 64, 0
2, 36269, Note_on_c, 0, 61, 0
2, 36298, Note_on_c, 0, 57, 57
2, 36314, Note_on_c, 0, 49, 56
2, 36327, Note_on_c, 0, 45, 45
2, 36349, Note_on_c, 0, 57, 0
2, 36367, Note_on_c, 0, 59, 66
2, 36410, Note_on_c, 0, 59, 0
2, 36417, Control_c, 0, 64, 22
2, 36431, Control_c, 0, 64, 25
2, 36446, Control_c, 0, 64, 28
2, 36452, Note_on_c, 0, 57, 60
2, 36462, Control_c, 0, 64, 30
2, 36477, Control_c, 0, 64, 32
2, 36481, Note_on_c, 0, 57, 0
2, 36491, Control_c, 0, 64, 33
2, 36507, Control_c, 0, 64, 35
2, 36508, Note_on_c, 0, 59, 48
2, 36520, Note_on_c, 0, 50, 49
2, 36522, Control_c, 0, 64, 36
2, 36523, Note_on_c, 0, 47, 52
2, 36538, Control_c, 0, 64, 36
2, 36545, Note_on_c, 0, 59, 0
2, 36553, Control_c, 0, 64, 37
2, 36567, Control_c, 0, 64, 38
2, 36572, Note_on_c, 0, 57, 58
2, 36578, Note_on_c, 0, 49, 0
2, 36583, Control_c, 0, 64, 41
2, 36589, Note_on_c, 0, 45, 0
2, 36598, Control_c, 0, 64, 44
2, 36606, Note_on_c, 0, 50, 0
2, 36608, Note_on_c, 0, 57, 0
2, 36612, Control_c, 0, 64, 46
2, 36615, Note_on_c, 0, 47, 0
2, 36628, Control_c, 0, 64, 47
2, 36628, Note_on_c, 0, 59, 60
2, 36659, Control_c, 0, 64, 48
2, 36666, Note_on_c, 0, 59, 0
2, 36688, Control_c, 0, 64, 47
2, 36692, Note_on_c, 0, 57, 64
2, 36704, Control_c, 0, 64, 46
2, 36719, Control_c, 0, 64, 42
2, 36731, Note_on_c, 0, 57, 0
2, 36732, Note_on_c, 0, 50, 57
2, 36735, Control_c, 0, 64, 36
2, 36738, Note_on_c, 0, 47, 58
2, 36741, Note_on_c, 0, 59, 64
2, 36750, Control_c, 0, 64, 31
2, 36764, Control_c, 0, 64, 28
2, 36775, Note_on_c, 0, 59, 0
2, 36780, Control_c, 0, 64, 26
2, 36795, Control_c, 0, 64, 23
2, 36810, Control_c, 0, 64, 15
2, 36815, Note_on_c, 0, 57, 56
2, 36826, Control_c, 0, 64, 0
2, 36889, Note_on_c, 0, 57, 0
2, 36892, Note_on_c, 0, 59, 33
2, 36965, Note_on_c, 0, 57, 30
2, 36979, Note_on_c, 0, 59, 0
2, 36988, Note_on_c, 0, 52, 54
2, 36997, Note_on_c, 0, 59, 41
2, 37006, Note_on_c, 0, 49, 52
2, 37007, Note_on_c, 0, 57, 0
2, 37034, Note_on_c, 0, 50, 0
2, 37040, Note_on_c, 0, 59, 0
2, 37062, Control_c, 0, 64, 33
2, 37064, Note_on_c, 0, 47, 0
2, 37068, Note_on_c, 0, 57, 34
2, 37077, Control_c, 0, 64, 48
2, 37091, Control_c, 0, 64, 56
2, 37096, Note_on_c, 0, 52, 0
2, 37103, Note_on_c, 0, 49, 0
2, 37107, Control_c, 0, 64, 61
2, 37122, Control_c, 0, 64, 64
2, 37125, Note_on_c, 0, 57, 0
2, 37125, Note_on_c, 0, 57, 4
2, 37138, Control_c, 0, 64, 68
2, 37153, Control_c, 0, 64, 74
2, 37168, Control_c, 0, 64, 80
2, 37179, Note_on_c, 0, 57, 0
2, 37184, Control_c, 0, 64, 86
2, 37199, Control_c, 0, 64, 90
2, 37215, Control_c, 0, 64, 92
2, 37230, Control_c, 0, 64, 93
2, 37244, Control_c, 0, 64, 92
2, 37247, Note_on_c, 0, 52, 57
2, 37256, Note_on_c, 0, 49, 49
2, 37260, Control_c, 0, 64, 91
2, 37275, Control_c, 0, 64, 90
2, 37290, Control_c, 0, 64, 87
2, 37306, Control_c, 0, 64, 84
2, 37320, Control_c, 0, 64, 79
2, 37336, Control_c, 0, 64, 74
2, 37351, Control_c, 0, 64, 69
2, 37366, Control_c, 0, 64, 64
2, 37382, Control_c, 0, 64, 60
2, 37397, Control_c, 0, 64, 56
2, 37411, Control_c, 0, 64, 50
2, 37427, Control_c, 0, 64, 39
2, 37442, Control_c, 0, 64, 0
2, 37451, Note_on_c, 0, 57, 52
2, 37487, Control_c, 0, 67, 11
2, 37496, Note_on_c, 0, 57, 0
2, 37503, Control_c, 0, 67, 15
2, 37518, Control_c, 0, 67, 17
2, 37521, Note_on_c, 0, 59, 54
2, 37532, Control_c, 0, 67, 17
2, 37548, Control_c, 0, 67, 17
2, 37563, Control_c, 0, 67, 16
2, 37579, Note_on_c, 0, 59, 0
2, 37585, Note_on_c, 0, 61, 55
2, 37587, Note_on_c, 0, 49, 0
2, 37617, Control_c, 0, 67, 15
2, 37628, Note_on_c, 0, 52, 0
2, 37632, Control_c, 0, 67, 14
2, 37644, Note_on_c, 0, 61, 0
2, 37647, Control_c, 0, 67, 14
2, 37651, Note_on_c, 0, 62, 58
2, 37662, Control_c, 0, 67, 13
2, 37677, Control_c, 0, 67, 13
2, 37692, Control_c, 0, 67, 12
2, 37708, Control_c, 0, 67, 12
2, 37723, Control_c, 0, 67, 11
2, 37733, Note_on_c, 0, 64, 69
2, 37738, Control_c, 0, 67, 10
2, 37749, Note_on_c, 0, 62, 0
2, 37753, Control_c, 0, 67, 9
2, 37768, Control_c, 0, 67, 9
2, 37780, Note_on_c, 0, 64, 0
2, 37784, Control_c, 0, 67, 8
2, 37799, Control_c, 0, 67, 8
2, 37813, Control_c, 0, 67, 0
2, 37883, Note_on_c, 0, 61, 70
2, 37939, Note_on_c, 0, 61, 0
2, 38032, Note_on_c, 0, 64, 64
2, 38043, Note_on_c, 0, 57, 45
2, 38088, Note_on_c, 0, 64, 0
2, 38168, Note_on_c, 0, 57, 0
2, 38179, Note_on_c, 0, 67, 62
2, 38204, Note_on_c, 0, 59, 45
2, 38263, Note_on_c, 0, 59, 0
2, 38278, Note_on_c, 0, 67, 0
2, 38365, Note_on_c, 0, 76, 64
2, 38381, Note_on_c, 0, 61, 53
2, 38430, Note_on_c, 0, 61, 0
2, 38451, Note_on_c, 0, 74, 68
2, 38453, Note_on_c, 0, 76, 0
2, 38465, Note_on_c, 0, 59, 49
2, 38499, Note_on_c, 0, 59, 0
2, 38520, Note_on_c, 0, 73, 65
2, 38525, Note_on_c, 0, 57, 50
2, 38538, Note_on_c, 0, 74, 0
2, 38585, Note_on_c, 0, 71, 64
2, 38586, Note_on_c, 0, 57, 0
2, 38592, Note_on_c, 0, 59, 55
2, 38606, Note_on_c, 0, 73, 0
2, 38640, Note_on_c, 0, 59, 0
2, 38650, Note_on_c, 0, 69, 70
2, 38657, Note_on_c, 0, 61, 60
2, 38662, Note_on_c, 0, 71, 0
2, 38679, Note_on_c, 0, 61, 0
2, 38700, Note_on_c, 0, 69, 0
2, 38810, Note_on_c, 0, 76, 75
2, 38815, Note_on_c, 0, 62, 57
2, 38855, Note_on_c, 0, 62, 0
2, 38870, Note_on_c, 0, 76, 0
2, 38891, Note_on_c, 0, 61, 62
2, 38932, Note_on_c, 0, 61, 0
2, 38960, Note_on_c, 0, 67, 60
2, 38971, Note_on_c, 0, 59, 54
2, 38994, Note_on_c, 0, 67, 0
2, 39021, Note_on_c, 0, 59, 0
2, 39038, Note_on_c, 0, 61, 65
2, 39071, Note_on_c, 0, 61, 0
2, 39097, Note_on_c, 0, 66, 69
2, 39107, Note_on_c, 0, 62, 46
2, 39125, Note_on_c, 0, 66, 0
2, 39182, Note_on_c, 0, 62, 0
2, 39274, Note_on_c, 0, 62, 65
2, 39309, Note_on_c, 0, 62, 0
2, 39339, Note_on_c, 0, 64, 69
2, 39408, Note_on_c, 0, 64, 0
2, 39409, Note_on_c, 0, 66, 70
2, 39479, Note_on_c, 0, 66, 0
2, 39479, Note_on_c, 0, 67, 69
2, 39552, Note_on_c, 0, 69, 68
2, 39578, Note_on_c, 0, 67, 0
2, 39597, Note_on_c, 0, 69, 0
2, 39701, Note_on_c, 0, 66, 74
2, 39763, Note_on_c, 0, 66, 0
2, 39849, Note_on_c, 0, 50, 51
2, 39852, Note_on_c, 0, 69, 70
2, 39921, Note_on_c, 0, 50, 0
2, 39921, Note_on_c, 0, 69, 0
2, 40005, Note_on_c, 0, 72, 81
2, 40028, Note_on_c, 0, 52, 49
2, 40076, Note_on_c, 0, 52, 0
2, 40097, Note_on_c, 0, 72, 0
2, 40173, Note_on_c, 0, 81, 77
2, 40186, Note_on_c, 0, 54, 51
2, 40232, Note_on_c, 0, 54, 0
2, 40253, Note_on_c, 0, 79, 77
2, 40259, Note_on_c, 0, 52, 61
2, 40266, Note_on_c, 0, 81, 0
2, 40295, Note_on_c, 0, 52, 0
2, 40321, Note_on_c, 0, 78, 73
2, 40326, Note_on_c, 0, 50, 55
2, 40351, Note_on_c, 0, 79, 0
2, 40388, Note_on_c, 0, 76, 76
2, 40397, Note_on_c, 0, 52, 56
2, 40418, Note_on_c, 0, 50, 0
2, 40427, Note_on_c, 0, 78, 0
2, 40459, Note_on_c, 0, 52, 0
2, 40462, Note_on_c, 0, 74, 80
2, 40466, Note_on_c, 0, 54, 61
2, 40479, Note_on_c, 0, 76, 0
2, 40492, Note_on_c, 0, 54, 0
2, 40515, Note_on_c, 0, 74, 0
2, 40617, Note_on_c, 0, 55, 65
2, 40620, Note_on_c, 0, 81, 81
2, 40675, Note_on_c, 0, 55, 0
2, 40675, Note_on_c, 0, 81, 0
2, 40700, Note_on_c, 0, 54, 56
2, 40751, Note_on_c, 0, 54, 0
2, 40772, Note_on_c, 0, 52, 64
2, 40777, Note_on_c, 0, 72, 76
2, 40828, Note_on_c, 0, 72, 0
2, 40852, Note_on_c, 0, 52, 0
2, 40856, Note_on_c, 0, 54, 59
2, 40926, Note_on_c, 0, 55, 64
2, 40927, Note_on_c, 0, 71, 75
2, 40931, Note_on_c, 0, 54, 0
2, 40953, Note_on_c, 0, 55, 0
2, 41096, Note_on_c, 0, 59, 60
2, 41137, Note_on_c, 0, 59, 0
2, 41161, Note_on_c, 0, 57, 54
2, 41210, Note_on_c, 0, 57, 0
2, 41229, Note_on_c, 0, 55, 58
2, 41242, Note_on_c, 0, 69, 51
2, 41266, Note_on_c, 0, 69, 0
2, 41311, Note_on_c, 0, 54, 48
2, 41354, Note_on_c, 0, 55, 0
2, 41369, Note_on_c, 0, 52, 63
2, 41372, Note_on_c, 0, 69, 60
2, 41387, Note_on_c, 0, 54, 0
2, 41398, Note_on_c, 0, 52, 0
2, 41413, Note_on_c, 0, 69, 0
2, 41439, Note_on_c, 0, 67, 59
2, 41480, Note_on_c, 0, 67, 0
2, 41499, Note_on_c, 0, 69, 67
2, 41553, Note_on_c, 0, 55, 55
2, 41555, Note_on_c, 0, 67, 63
2, 41558, Note_on_c, 0, 69, 0
2, 41609, Note_on_c, 0, 55, 0
2, 41639, Note_on_c, 0, 54, 50
2, 41681, Note_on_c, 0, 54, 0
2, 41705, Note_on_c, 0, 52, 56
2, 41721, Note_on_c, 0, 66, 63
2, 41781, Note_on_c, 0, 52, 0
2, 41785, Note_on_c, 0, 50, 52
2, 41785, Note_on_c, 0, 66, 0
2, 41806, Note_on_c, 0, 67, 0
2, 41821, Control_c, 0, 67, 11
2, 41836, Control_c, 0, 67, 16
2, 41851, Control_c, 0, 67, 21
2, 41867, Control_c, 0, 67, 26
2, 41875, Note_on_c, 0, 49, 51
2, 41881, Control_c, 0, 67, 27
2, 41883, Note_on_c, 0, 64, 64
2, 41888, Note_on_c, 0, 50, 0
2, 41897, Control_c, 0, 67, 28
2, 41931, Note_on_c, 0, 71, 0
2, 41947, Note_on_c, 0, 49, 0
2, 41957, Control_c, 0, 67, 27
2, 41972, Control_c, 0, 67, 27
2, 41988, Control_c, 0, 67, 26
2, 42003, Control_c, 0, 67, 26
2, 42018, Control_c, 0, 67, 25
2, 42033, Control_c, 0, 67, 24
2, 42048, Control_c, 0, 67, 23
2, 42053, Note_on_c, 0, 52, 58
2, 42057, Note_on_c, 0, 73, 66
2, 42065, Control_c, 0, 67, 23
2, 42080, Control_c, 0, 67, 21
2, 42096, Control_c, 0, 67, 20
2, 42103, Note_on_c, 0, 52, 0
2, 42110, Control_c, 0, 67, 19
2, 42125, Control_c, 0, 67, 18
2, 42139, Note_on_c, 0, 71, 66
2, 42141, Control_c, 0, 67, 17
2, 42156, Control_c, 0, 67, 16
2, 42162, Note_on_c, 0, 73, 0
2, 42170, Control_c, 0, 67, 13
2, 42186, Control_c, 0, 67, 10
2, 42190, Note_on_c, 0, 71, 0
2, 42201, Control_c, 0, 67, 0
2, 42205, Note_on_c, 0, 49, 58
2, 42205, Note_on_c, 0, 70, 65
2, 42249, Note_on_c, 0, 49, 0
2, 42283, Note_on_c, 0, 70, 0
2, 42289, Note_on_c, 0, 71, 63
2, 42357, Note_on_c, 0, 73, 67
2, 42369, Note_on_c, 0, 46, 53
2, 42392, Note_on_c, 0, 71, 0
2, 42406, Note_on_c, 0, 46, 0
2, 42515, Note_on_c, 0, 49, 61
2, 42546, Note_on_c, 0, 49, 0
2, 42664, Note_on_c, 0, 46, 49
2, 42667, Note_on_c, 0, 64, 0
2, 42672, Note_on_c, 0, 67, 56
2, 42711, Note_on_c, 0, 46, 0
2, 42795, Note_on_c, 0, 73, 0
2, 42806, Note_on_c, 0, 67, 0
2, 42825, Note_on_c, 0, 66, 69
2, 42831, Note_on_c, 0, 50, 49
2, 42892, Note_on_c, 0, 50, 0
2, 43008, Note_on_c, 0, 74, 65
2, 43016, Note_on_c, 0, 54, 49
2, 43060, Note_on_c, 0, 54, 0
2, 43081, Note_on_c, 0, 73, 69
2, 43106, Note_on_c, 0, 74, 0
2, 43141, Note_on_c, 0, 73, 0
2, 43149, Note_on_c, 0, 50, 58
2, 43149, Note_on_c, 0, 71, 68
2, 43197, Note_on_c, 0, 50, 0
2, 43233, Note_on_c, 0, 73, 74
2, 43246, Note_on_c, 0, 71, 0
2, 43306, Note_on_c, 0, 47, 53
2, 43306, Note_on_c, 0, 74, 77
2, 43336, Note_on_c, 0, 73, 0
2, 43346, Note_on_c, 0, 47, 0
2, 43458, Note_on_c, 0, 50, 69
2, 43493, Note_on_c, 0, 50, 0
2, 43554, Note_on_c, 0, 66, 0
2, 43603, Note_on_c, 0, 47, 62
2, 43613, Note_on_c, 0, 69, 74
2, 43639, Note_on_c, 0, 47, 0
2, 43644, Note_on_c, 0, 74, 0
2, 43782, Note_on_c, 0, 67, 78
2, 43785, Note_on_c, 0, 52, 57
2, 43794, Note_on_c, 0, 69, 0
2, 43826, Note_on_c, 0, 52, 0
2, 43942, Note_on_c, 0, 76, 77
2, 43951, Note_on_c, 0, 55, 58
2, 43984, Note_on_c, 0, 55, 0
2, 44028, Note_on_c, 0, 74, 75
2, 44040, Note_on_c, 0, 76, 0
2, 44086, Note_on_c, 0, 52, 61
2, 44097, Note_on_c, 0, 73, 71
2, 44099, Note_on_c, 0, 74, 0
2, 44118, Note_on_c, 0, 52, 0
2, 44156, Note_on_c, 0, 74, 68
2, 44165, Note_on_c, 0, 73, 0
2, 44230, Note_on_c, 0, 49, 56
2, 44240, Note_on_c, 0, 76, 81
2, 44266, Note_on_c, 0, 49, 0
2, 44271, Note_on_c, 0, 74, 0
2, 44381, Note_on_c, 0, 52, 64
2, 44411, Note_on_c, 0, 52, 0
2, 44543, Note_on_c, 0, 49, 53
2, 44546, Note_on_c, 0, 67, 0
2, 44560, Note_on_c, 0, 71, 57
2, 44577, Note_on_c, 0, 49, 0
2, 44722, Note_on_c, 0, 71, 0
2, 44735, Note_on_c, 0, 54, 44
2, 44742, Control_c, 0, 64, 31
2, 44742, Note_on_c, 0, 70, 63
2, 44757, Control_c, 0, 64, 48
2, 44771, Control_c, 0, 64, 59
2, 44787, Control_c, 0, 64, 64
2, 44788, Note_on_c, 0, 76, 0
2, 44802, Control_c, 0, 64, 68
2, 44818, Control_c, 0, 64, 74
2, 44832, Control_c, 0, 64, 79
2, 44847, Control_c, 0, 64, 83
2, 44851, Note_on_c, 0, 54, 0
2, 44863, Control_c, 0, 64, 83
2, 44878, Control_c, 0, 64, 82
2, 44891, Note_on_c, 0, 70, 0
2, 44893, Control_c, 0, 64, 78
2, 44908, Control_c, 0, 64, 72
2, 44923, Control_c, 0, 64, 67
2, 44928, Note_on_c, 0, 79, 73
2, 44939, Control_c, 0, 64, 63
2, 44954, Control_c, 0, 64, 59
2, 44969, Control_c, 0, 64, 58
2, 44984, Control_c, 0, 64, 56
2, 44999, Control_c, 0, 64, 53
2, 45008, Note_on_c, 0, 78, 66
2, 45015, Control_c, 0, 64, 47
2, 45020, Note_on_c, 0, 79, 0
2, 45029, Control_c, 0, 64, 39
2, 45044, Control_c, 0, 64, 30
2, 45060, Control_c, 0, 64, 13
2, 45075, Control_c, 0, 64, 0
2, 45075, Control_c, 0, 67, 10
2, 45084, Note_on_c, 0, 76, 65
2, 45085, Note_on_c, 0, 59, 51
2, 45090, Control_c, 0, 67, 14
2, 45105, Control_c, 0, 67, 19
2, 45112, Note_on_c, 0, 59, 0
2, 45120, Control_c, 0, 67, 24
2, 45124, Note_on_c, 0, 78, 0
2, 45136, Control_c, 0, 67, 28
2, 45151, Control_c, 0, 67, 30
2, 45151, Note_on_c, 0, 76, 0
2, 45154, Note_on_c, 0, 75, 74
2, 45166, Control_c, 0, 67, 34
2, 45182, Control_c, 0, 67, 39
2, 45197, Control_c, 0, 67, 44
2, 45212, Control_c, 0, 67, 46
2, 45228, Control_c, 0, 67, 46
2, 45228, Note_on_c, 0, 58, 61
2, 45232, Note_on_c, 0, 76, 73
2, 45250, Note_on_c, 0, 75, 0
2, 45252, Note_on_c, 0, 58, 0
2, 45315, Note_on_c, 0, 76, 0
2, 45325, Control_c, 0, 67, 46
2, 45357, Control_c, 0, 67, 45
2, 45372, Control_c, 0, 67, 45
2, 45388, Control_c, 0, 67, 44
2, 45394, Note_on_c, 0, 79, 74
2, 45398, Note_on_c, 0, 59, 56
2, 45403, Control_c, 0, 67, 44
2, 45427, Note_on_c, 0, 59, 0
2, 45453, Note_on_c, 0, 79, 0
2, 45464, Control_c, 0, 67, 43
2, 45493, Control_c, 0, 67, 43
2, 45546, Note_on_c, 0, 61, 54
2, 45548, Note_on_c, 0, 75, 66
2, 45581, Note_on_c, 0, 61, 0
2, 45600, Control_c, 0, 67, 42
2, 45601, Note_on_c, 0, 75, 0
2, 45616, Control_c, 0, 67, 42
2, 45631, Control_c, 0, 64, 26
2, 45646, Control_c, 0, 64, 37
2, 45662, Control_c, 0, 64, 45
2, 45662, Control_c, 0, 67, 41
2, 45676, Control_c, 0, 64, 51
2, 45676, Control_c, 0, 67, 41
2, 45691, Control_c, 0, 64, 56
2, 45691, Control_c, 0, 67, 40
2, 45707, Control_c, 0, 64, 59
2, 45707, Control_c, 0, 67, 40
2, 45708, Note_on_c, 0, 54, 40
2, 45710, Note_on_c, 0, 76, 59
2, 45722, Control_c, 0, 64, 60
2, 45722, Control_c, 0, 67, 39
2, 45723, Note_on_c, 0, 73, 55
2, 45738, Control_c, 0, 64, 61
2, 45738, Control_c, 0, 67, 39
2, 45752, Control_c, 0, 64, 62
2, 45752, Control_c, 0, 67, 38
2, 45782, Note_on_c, 0, 54, 0
2, 45783, Control_c, 0, 64, 61
2, 45783, Control_c, 0, 67, 38
2, 45797, Control_c, 0, 64, 60
2, 45812, Control_c, 0, 64, 56
2, 45812, Control_c, 0, 67, 37
2, 45828, Control_c, 0, 64, 52
2, 45843, Control_c, 0, 64, 46
2, 45843, Control_c, 0, 67, 36
2, 45843, Note_on_c, 0, 73, 0
2, 45859, Control_c, 0, 64, 40
2, 45859, Control_c, 0, 67, 36
2, 45865, Note_on_c, 0, 76, 0
2, 45873, Control_c, 0, 64, 35
2, 45887, Note_on_c, 0, 79, 65
2, 45888, Control_c, 0, 64, 26
2, 45888, Control_c, 0, 67, 35
2, 45904, Control_c, 0, 64, 0
2, 45904, Control_c, 0, 67, 33
2, 45919, Control_c, 0, 67, 31
2, 45935, Control_c, 0, 67, 29
2, 45949, Control_c, 0, 67, 25
2, 45962, Note_on_c, 0, 78, 66
2, 45964, Control_c, 0, 67, 21
2, 45969, Note_on_c, 0, 79, 0
2, 45980, Control_c, 0, 67, 17
2, 45995, Control_c, 0, 67, 12
2, 46010, Control_c, 0, 67, 0
2, 46032, Note_on_c, 0, 59, 47
2, 46032, Note_on_c, 0, 76, 66
2, 46070, Note_on_c, 0, 59, 0
2, 46073, Note_on_c, 0, 78, 0
2, 46086, Note_on_c, 0, 76, 0
2, 46118, Note_on_c, 0, 75, 69
2, 46194, Note_on_c, 0, 76, 70
2, 46197, Note_on_c, 0, 75, 0
2, 46206, Note_on_c, 0, 58, 42
2, 46328, Note_on_c, 0, 76, 0
2, 46347, Note_on_c, 0, 58, 0
2, 46362, Note_on_c, 0, 78, 69
2, 46439, Note_on_c, 0, 76, 68
2, 46462, Note_on_c, 0, 78, 0
2, 46502, Note_on_c, 0, 76, 0
2, 46514, Note_on_c, 0, 59, 62
2, 46514, Note_on_c, 0, 75, 66
2, 46542, Note_on_c, 0, 59, 0
2, 46560, Note_on_c, 0, 75, 0
2, 46595, Note_on_c, 0, 73, 63
2, 46596, Control_c, 0, 64, 22
2, 46611, Control_c, 0, 64, 37
2, 46627, Control_c, 0, 64, 47
2, 46641, Control_c, 0, 64, 54
2, 46649, Note_on_c, 0, 73, 0
2, 46657, Control_c, 0, 64, 61
2, 46672, Control_c, 0, 64, 64
2, 46674, Note_on_c, 0, 47, 63
2, 46683, Note_on_c, 0, 75, 68
2, 46687, Control_c, 0, 64, 68
2, 46703, Control_c, 0, 64, 72
2, 46717, Control_c, 0, 64, 78
2, 46725, Note_on_c, 0, 47, 0
2, 46732, Control_c, 0, 64, 83
2, 46748, Control_c, 0, 64, 88
2, 46763, Control_c, 0, 64, 91
2, 46779, Control_c, 0, 64, 91
2, 46793, Control_c, 0, 64, 88
2, 46808, Control_c, 0, 64, 82
2, 46832, Control_c, 0, 64, 76
2, 46846, Note_on_c, 0, 72, 67
2, 46847, Control_c, 0, 64, 69
2, 46862, Control_c, 0, 64, 65
2, 46877, Control_c, 0, 64, 61
2, 46878, Note_on_c, 0, 75, 0
2, 46892, Control_c, 0, 64, 59
2, 46908, Control_c, 0, 64, 56
2, 46921, Note_on_c, 0, 71, 68
2, 46923, Control_c, 0, 64, 50
2, 46929, Note_on_c, 0, 72, 0
2, 46938, Control_c, 0, 64, 38
2, 46953, Control_c, 0, 64, 20
2, 46957, Note_on_c, 0, 71, 0
2, 46968, Control_c, 0, 64, 0
2, 46986, Note_on_c, 0, 64, 68
2, 46992, Note_on_c, 0, 69, 68
2, 47016, Note_on_c, 0, 64, 0
2, 47062, Note_on_c, 0, 68, 75
2, 47065, Note_on_c, 0, 69, 0
2, 47128, Note_on_c, 0, 63, 71
2, 47140, Note_on_c, 0, 69, 71
2, 47154, Note_on_c, 0, 63, 0
2, 47161, Note_on_c, 0, 68, 0
2, 47199, Note_on_c, 0, 69, 0
2, 47285, Note_on_c, 0, 72, 77
2, 47288, Note_on_c, 0, 64, 67
2, 47316, Note_on_c, 0, 64, 0
2, 47348, Note_on_c, 0, 72, 0
2, 47432, Note_on_c, 0, 68, 71
2, 47437, Note_on_c, 0, 66, 65
2, 47470, Note_on_c, 0, 66, 0
2, 47490, Note_on_c, 0, 68, 0
2, 47532, Control_c, 0, 64, 25
2, 47548, Control_c, 0, 64, 39
2, 47562, Control_c, 0, 64, 47
2, 47578, Control_c, 0, 64, 52
2, 47600, Control_c, 0, 64, 57
2, 47602, Note_on_c, 0, 59, 49
2, 47616, Control_c, 0, 64, 61
2, 47618, Note_on_c, 0, 78, 58
2, 47622, Note_on_c, 0, 69, 48
2, 47631, Control_c, 0, 64, 63
2, 47646, Control_c, 0, 64, 64
2, 47661, Control_c, 0, 64, 65
2, 47676, Control_c, 0, 64, 66
2, 47691, Control_c, 0, 64, 67
2, 47707, Note_on_c, 0, 59, 0
2, 47731, Note_on_c, 0, 78, 0
2, 47738, Control_c, 0, 64, 65
2, 47753, Control_c, 0, 64, 63
2, 47766, Note_on_c, 0, 69, 0
2, 47766, Note_on_c, 0, 72, 68
2, 47768, Control_c, 0, 64, 61
2, 47783, Control_c, 0, 64, 58
2, 47799, Control_c, 0, 64, 54
2, 47813, Control_c, 0, 64, 48
2, 47829, Control_c, 0, 64, 42
2, 47832, Note_on_c, 0, 72, 0
2, 47844, Control_c, 0, 64, 34
2, 47847, Note_on_c, 0, 71, 60
2, 47860, Control_c, 0, 64, 24
2, 47875, Control_c, 0, 64, 8
2, 47876, Note_on_c, 0, 71, 0
2, 47890, Control_c, 0, 64, 0
2, 47906, Note_on_c, 0, 69, 55
2, 47921, Note_on_c, 0, 64, 60
2, 47953, Note_on_c, 0, 64, 0
2, 47970, Note_on_c, 0, 69, 0
2, 47983, Note_on_c, 0, 68, 61
2, 48072, Note_on_c, 0, 63, 46
2, 48074, Note_on_c, 0, 69, 62
2, 48083, Note_on_c, 0, 68, 0
2, 48209, Note_on_c, 0, 63, 0
2, 48211, Note_on_c, 0, 69, 0
2, 48242, Note_on_c, 0, 71, 61
2, 48323, Note_on_c, 0, 69, 63
2, 48338, Note_on_c, 0, 71, 0
2, 48369, Note_on_c, 0, 69, 0
2, 48391, Note_on_c, 0, 64, 66
2, 48398, Control_c, 0, 64, 33
2, 48404, Note_on_c, 0, 67, 65
2, 48413, Control_c, 0, 64, 49
2, 48417, Note_on_c, 0, 64, 0
2, 48429, Control_c, 0, 64, 57
2, 48444, Control_c, 0, 64, 63
2, 48459, Control_c, 0, 64, 66
2, 48459, Note_on_c, 0, 67, 0
2, 48465, Note_on_c, 0, 66, 68
2, 48474, Control_c, 0, 64, 70
2, 48489, Control_c, 0, 64, 75
2, 48505, Control_c, 0, 64, 79
2, 48506, Note_on_c, 0, 66, 0
2, 48520, Control_c, 0, 64, 81
2, 48548, Note_on_c, 0, 67, 67
2, 48550, Control_c, 0, 64, 78
2, 48553, Note_on_c, 0, 52, 63
2, 48565, Control_c, 0, 64, 74
2, 48581, Control_c, 0, 64, 68
2, 48596, Control_c, 0, 64, 64
2, 48597, Note_on_c, 0, 52, 0
2, 48611, Control_c, 0, 64, 60
2, 48615, Note_on_c, 0, 67, 0
2, 48624, Note_on_c, 0, 71, 71
2, 48625, Note_on_c, 0, 55, 55
2, 48627, Control_c, 0, 64, 58
2, 48642, Control_c, 0, 64, 55
2, 48658, Control_c, 0, 64, 47
2, 48673, Control_c, 0, 64, 35
2, 48688, Control_c, 0, 64, 24
2, 48695, Note_on_c, 0, 55, 0
2, 48696, Note_on_c, 0, 57, 60
2, 48699, Note_on_c, 0, 71, 0
2, 48701, Note_on_c, 0, 73, 70
2, 48704, Control_c, 0, 64, 18
2, 48718, Control_c, 0, 64, 15
2, 48731, Note_on_c, 0, 57, 0
2, 48733, Control_c, 0, 64, 12
2, 48749, Control_c, 0, 64, 8
2, 48764, Control_c, 0, 64, 0
2, 48772, Note_on_c, 0, 75, 72
2, 48773, Note_on_c, 0, 59, 58
2, 48780, Note_on_c, 0, 73, 0
2, 48806, Note_on_c, 0, 75, 0
2, 48817, Note_on_c, 0, 59, 0
2, 48847, Note_on_c, 0, 76, 70
2, 48866, Note_on_c, 0, 61, 61
2, 48911, Note_on_c, 0, 76, 0
2, 48914, Note_on_c, 0, 61, 0
2, 48916, Note_on_c, 0, 78, 70
2, 48919, Note_on_c, 0, 63, 60
2, 48981, Note_on_c, 0, 78, 0
2, 48992, Note_on_c, 0, 79, 78
2, 48995, Note_on_c, 0, 64, 73
2, 49007, Note_on_c, 0, 63, 0
2, 49022, Note_on_c, 0, 64, 0
2, 49077, Note_on_c, 0, 78, 73
2, 49101, Note_on_c, 0, 79, 0
2, 49158, Note_on_c, 0, 76, 69
2, 49168, Note_on_c, 0, 67, 68
2, 49171, Note_on_c, 0, 78, 0
2, 49196, Note_on_c, 0, 67, 0
2, 49196, Note_on_c, 0, 76, 0
2, 49233, Note_on_c, 0, 74, 68
2, 49302, Note_on_c, 0, 74, 0
2, 49307, Note_on_c, 0, 73, 65
2, 49315, Note_on_c, 0, 64, 73
2, 49340, Note_on_c, 0, 64, 0
2, 49380, Note_on_c, 0, 73, 0
2, 49384, Note_on_c, 0, 71, 67
2, 49459, Note_on_c, 0, 61, 69
2, 49472, Note_on_c, 0, 76, 65
2, 49483, Note_on_c, 0, 71, 0
2, 49488, Note_on_c, 0, 61, 0
2, 49543, Note_on_c, 0, 74, 71
2, 49564, Note_on_c, 0, 76, 0
2, 49614, Note_on_c, 0, 64, 72
2, 49620, Note_on_c, 0, 73, 67
2, 49642, Note_on_c, 0, 64, 0
2, 49651, Note_on_c, 0, 74, 0
2, 49691, Note_on_c, 0, 71, 66
2, 49715, Note_on_c, 0, 73, 0
2, 49726, Note_on_c, 0, 71, 0
2, 49764, Note_on_c, 0, 61, 64
2, 49764, Note_on_c, 0, 69, 68
2, 49793, Note_on_c, 0, 61, 0
2, 49836, Note_on_c, 0, 68, 75
2, 49837, Note_on_c, 0, 69, 0
2, 49916, Note_on_c, 0, 57, 67
2, 49918, Note_on_c, 0, 68, 0
2, 49925, Note_on_c, 0, 73, 75
2, 49958, Note_on_c, 0, 57, 0
2, 50012, Note_on_c, 0, 71, 66
2, 50069, Note_on_c, 0, 61, 66
2, 50069, Note_on_c, 0, 73, 0
2, 50077, Note_on_c, 0, 69, 73
2, 50084, Note_on_c, 0, 71, 0
2, 50105, Note_on_c, 0, 61, 0
2, 50122, Note_on_c, 0, 69, 0
2, 50147, Control_c, 0, 64, 22
2, 50153, Note_on_c, 0, 67, 64
2, 50162, Control_c, 0, 64, 34
2, 50178, Control_c, 0, 64, 44
2, 50193, Control_c, 0, 64, 52
2, 50208, Control_c, 0, 64, 57
2, 50211, Note_on_c, 0, 66, 75
2, 50218, Note_on_c, 0, 57, 53
2, 50219, Note_on_c, 0, 67, 0
2, 50222, Control_c, 0, 64, 62
2, 50236, Control_c, 0, 64, 64
2, 50245, Note_on_c, 0, 57, 0
2, 50252, Control_c, 0, 64, 65
2, 50268, Control_c, 0, 64, 66
2, 50279, Note_on_c, 0, 66, 0
2, 50283, Control_c, 0, 64, 67
2, 50300, Note_on_c, 0, 64, 72
2, 50314, Control_c, 0, 64, 66
2, 50328, Control_c, 0, 64, 64
2, 50344, Control_c, 0, 64, 62
2, 50359, Control_c, 0, 64, 58
2, 50368, Note_on_c, 0, 50, 62
2, 50374, Control_c, 0, 64, 55
2, 50376, Note_on_c, 0, 66, 72
2, 50379, Note_on_c, 0, 64, 0
2, 50389, Control_c, 0, 64, 51
2, 50404, Control_c, 0, 64, 47
2, 50407, Note_on_c, 0, 66, 0
2, 50420, Control_c, 0, 64, 42
2, 50435, Control_c, 0, 64, 35
2, 50450, Control_c, 0, 64, 30
2, 50454, Note_on_c, 0, 69, 71
2, 50457, Note_on_c, 0, 50, 0
2, 50458, Note_on_c, 0, 54, 57
2, 50465, Control_c, 0, 64, 25
2, 50480, Control_c, 0, 64, 17
2, 50496, Control_c, 0, 64, 0
2, 50513, Note_on_c, 0, 69, 0
2, 50519, Note_on_c, 0, 54, 0
2, 50522, Note_on_c, 0, 55, 67
2, 50527, Note_on_c, 0, 71, 71
2, 50557, Note_on_c, 0, 55, 0
2, 50599, Note_on_c, 0, 57, 58
2, 50603, Note_on_c, 0, 71, 0
2, 50603, Note_on_c, 0, 73, 69
2, 50639, Note_on_c, 0, 73, 0
2, 50673, Note_on_c, 0, 57, 0
2, 50680, Note_on_c, 0, 59, 63
2, 50682, Note_on_c, 0, 74, 77
2, 50743, Note_on_c, 0, 74, 0
2, 50744, Note_on_c, 0, 59, 0
2, 50749, Note_on_c, 0, 61, 70
2, 50766, Note_on_c, 0, 76, 70
2, 50831, Note_on_c, 0, 62, 56
2, 50837, Note_on_c, 0, 76, 0
2, 50849, Note_on_c, 0, 78, 75
2, 50876, Note_on_c, 0, 61, 0
2, 50934, Note_on_c, 0, 76, 68
2, 50947, Note_on_c, 0, 78, 0
2, 50973, Note_on_c, 0, 76, 0
2, 51009, Note_on_c, 0, 74, 73
2, 51080, Note_on_c, 0, 74, 0
2, 51087, Note_on_c, 0, 73, 70
2, 51163, Note_on_c, 0, 71, 71
2, 51187, Note_on_c, 0, 73, 0
2, 51204, Note_on_c, 0, 71, 0
2, 51245, Note_on_c, 0, 69, 69
2, 51296, Note_on_c, 0, 69, 0
2, 51315, Note_on_c, 0, 68, 76
2, 51393, Note_on_c, 0, 68, 0
2, 51395, Note_on_c, 0, 71, 69
2, 51461, Note_on_c, 0, 71, 0
2, 51468, Note_on_c, 0, 61, 47
2, 51471, Note_on_c, 0, 76, 70
2, 51498, Note_on_c, 0, 62, 0
2, 51540, Note_on_c, 0, 76, 0
2, 51543, Note_on_c, 0, 74, 69
2, 51615, Note_on_c, 0, 61, 0
2, 51623, Note_on_c, 0, 74, 0
2, 51632, Note_on_c, 0, 76, 68
2, 51644, Note_on_c, 0, 59, 39
2, 51654, Control_c, 0, 64, 8
2, 51710, Note_on_c, 0, 67, 67
2, 51739, Note_on_c, 0, 67, 0
2, 51772, Note_on_c, 0, 59, 0
2, 51800, Note_on_c, 0, 66, 63
2, 51803, Note_on_c, 0, 58, 48
2, 51804, Note_on_c, 0, 76, 0
2, 51842, Note_on_c, 0, 58, 0
2, 51879, Note_on_c, 0, 70, 69
2, 51889, Note_on_c, 0, 61, 54
2, 51917, Note_on_c, 0, 61, 0
2, 51969, Note_on_c, 0, 73, 67
2, 51970, Note_on_c, 0, 70, 0
2, 51977, Note_on_c, 0, 59, 52
2, 52014, Note_on_c, 0, 59, 0
2, 52032, Note_on_c, 0, 74, 72
2, 52044, Note_on_c, 0, 58, 56
2, 52047, Note_on_c, 0, 73, 0
2, 52083, Note_on_c, 0, 58, 0
2, 52119, Note_on_c, 0, 56, 56
2, 52127, Note_on_c, 0, 76, 65
2, 52156, Control_c, 0, 64, 10
2, 52166, Note_on_c, 0, 74, 0
2, 52184, Note_on_c, 0, 54, 60
2, 52185, Note_on_c, 0, 76, 0
2, 52210, Note_on_c, 0, 66, 0
2, 52219, Note_on_c, 0, 56, 0
2, 52271, Control_c, 0, 64, 12
2, 52279, Note_on_c, 0, 59, 70
2, 52293, Note_on_c, 0, 54, 0
2, 52309, Note_on_c, 0, 59, 0
2, 52350, Note_on_c, 0, 66, 57
2, 52427, Note_on_c, 0, 54, 63
2, 52439, Note_on_c, 0, 68, 73
2, 52451, Note_on_c, 0, 66, 0
2, 52456, Note_on_c, 0, 54, 0
2, 52511, Note_on_c, 0, 68, 0
2, 52513, Note_on_c, 0, 70, 69
2, 52548, Note_on_c, 0, 70, 0
2, 52580, Note_on_c, 0, 50, 52
2, 52594, Note_on_c, 0, 71, 67
2, 52604, Note_on_c, 0, 50, 0
2, 52661, Note_on_c, 0, 73, 69
2, 52675, Note_on_c, 0, 71, 0
2, 52734, Note_on_c, 0, 73, 0
2, 52743, Note_on_c, 0, 47, 59
2, 52748, Note_on_c, 0, 74, 72
2, 52818, Control_c, 0, 64, 13
2, 52833, Note_on_c, 0, 73, 74
2, 52849, Control_c, 0, 64, 15
2, 52855, Note_on_c, 0, 74, 0
2, 52864, Control_c, 0, 64, 16
2, 52879, Control_c, 0, 64, 17
2, 52885, Note_on_c, 0, 47, 0
2, 52895, Control_c, 0, 64, 19
2, 52895, Note_on_c, 0, 49, 54
2, 52908, Note_on_c, 0, 71, 68
2, 52910, Control_c, 0, 64, 20
2, 52922, Note_on_c, 0, 73, 0
2, 52940, Control_c, 0, 64, 21
2, 52942, Note_on_c, 0, 71, 0
2, 52955, Control_c, 0, 64, 22
2, 52957, Note_on_c, 0, 49, 0
2, 52958, Note_on_c, 0, 50, 62
2, 52985, Note_on_c, 0, 69, 58
2, 53003, Note_on_c, 0, 50, 0
2, 53046, Note_on_c, 0, 69, 0
2, 53051, Note_on_c, 0, 52, 61
2, 53058, Note_on_c, 0, 67, 71
2, 53091, Note_on_c, 0, 52, 0
2, 53120, Note_on_c, 0, 67, 0
2, 53121, Note_on_c, 0, 66, 69
2, 53143, Note_on_c, 0, 54, 58
2, 53209, Note_on_c, 0, 71, 70
2, 53210, Note_on_c, 0, 54, 0
2, 53213, Note_on_c, 0, 55, 57
2, 53215, Note_on_c, 0, 66, 0
2, 53266, Note_on_c, 0, 55, 0
2, 53275, Note_on_c, 0, 69, 71
2, 53297, Note_on_c, 0, 57, 61
2, 53305, Note_on_c, 0, 71, 0
2, 53341, Note_on_c, 0, 57, 0
2, 53359, Note_on_c, 0, 67, 68
2, 53374, Note_on_c, 0, 59, 62
2, 53398, Note_on_c, 0, 69, 0
2, 53417, Note_on_c, 0, 59, 0
2, 53421, Note_on_c, 0, 66, 73
2, 53428, Note_on_c, 0, 67, 0
2, 53433, Control_c, 0, 64, 22
2, 53443, Note_on_c, 0, 57, 46
2, 53463, Control_c, 0, 64, 23
2, 53472, Note_on_c, 0, 66, 0
2, 53490, Note_on_c, 0, 57, 0
2, 53494, Control_c, 0, 64, 24
2, 53497, Note_on_c, 0, 64, 66
2, 53511, Note_on_c, 0, 55, 50
2, 53524, Control_c, 0, 64, 25
2, 53541, Control_c, 0, 64, 25
2, 53546, Note_on_c, 0, 55, 0
2, 53549, Note_on_c, 0, 54, 49
2, 53555, Control_c, 0, 64, 26
2, 53575, Note_on_c, 0, 62, 73
2, 53585, Note_on_c, 0, 64, 0
2, 53624, Note_on_c, 0, 54, 0
2, 53649, Note_on_c, 0, 62, 0
2, 53652, Note_on_c, 0, 52, 43
2, 53654, Note_on_c, 0, 67, 76
2, 53717, Note_on_c, 0, 52, 0
2, 53720, Note_on_c, 0, 54, 41
2, 53724, Note_on_c, 0, 66, 69
2, 53761, Note_on_c, 0, 54, 0
2, 53766, Note_on_c, 0, 67, 0
2, 53804, Note_on_c, 0, 64, 77
2, 53805, Note_on_c, 0, 55, 59
2, 53806, Control_c, 0, 64, 25
2, 53821, Control_c, 0, 64, 25
2, 53836, Control_c, 0, 64, 23
2, 53845, Note_on_c, 0, 55, 0
2, 53845, Note_on_c, 0, 66, 0
2, 53852, Control_c, 0, 64, 22
2, 53855, Note_on_c, 0, 64, 0
2, 53867, Control_c, 0, 64, 21
2, 53879, Note_on_c, 0, 62, 75
2, 53880, Note_on_c, 0, 54, 58
2, 53882, Control_c, 0, 64, 20
2, 53898, Control_c, 0, 64, 18
2, 53912, Control_c, 0, 64, 17
2, 53916, Note_on_c, 0, 54, 0
2, 53927, Control_c, 0, 64, 16
2, 53943, Control_c, 0, 64, 15
2, 53958, Control_c, 0, 64, 13
2, 53958, Note_on_c, 0, 55, 59
2, 53958, Note_on_c, 0, 61, 79
2, 53964, Note_on_c, 0, 62, 0
2, 53974, Control_c, 0, 64, 10
2, 53989, Control_c, 0, 64, 0
2, 53993, Note_on_c, 0, 55, 0
2, 54035, Note_on_c, 0, 61, 0
2, 54038, Note_on_c, 0, 64, 78
2, 54044, Note_on_c, 0, 52, 59
2, 54115, Note_on_c, 0, 52, 0
2, 54133, Note_on_c, 0, 64, 0
2, 54140, Note_on_c, 0, 58, 74
2, 54141, Note_on_c, 0, 54, 59
2, 54187, Control_c, 0, 64, 37
2, 54194, Note_on_c, 0, 58, 0
2, 54202, Control_c, 0, 64, 56
2, 54218, Control_c, 0, 64, 65
2, 54232, Control_c, 0, 64, 71
2, 54247, Control_c, 0, 64, 79
2, 54263, Control_c, 0, 64, 90
2, 54278, Control_c, 0, 64, 101
2, 54294, Control_c, 0, 64, 111
2, 54308, Control_c, 0, 64, 116
2, 54323, Control_c, 0, 64, 127
2, 54375, Note_on_c, 0, 79, 85
2, 54457, Note_on_c, 0, 78, 78
2, 54497, Note_on_c, 0, 79, 0
2, 54499, Note_on_c, 0, 42, 64
2, 54526, Note_on_c, 0, 76, 78
2, 54545, Control_c, 0, 64, 118
2, 54556, Note_on_c, 0, 78, 0
2, 54560, Control_c, 0, 64, 109
2, 54573, Note_on_c, 0, 42, 0
2, 54575, Note_on_c, 0, 76, 0
2, 54576, Control_c, 0, 64, 101
2, 54590, Note_on_c, 0, 54, 0
2, 54591, Control_c, 0, 64, 92
2, 54599, Note_on_c, 0, 74, 73
2, 54606, Control_c, 0, 64, 83
2, 54621, Control_c, 0, 64, 75
2, 54636, Control_c, 0, 64, 69
2, 54652, Control_c, 0, 64, 63
2, 54666, Control_c, 0, 64, 57
2, 54678, Note_on_c, 0, 42, 73
2, 54680, Note_on_c, 0, 70, 75
2, 54680, Note_on_c, 0, 73, 79
2, 54681, Control_c, 0, 64, 47
2, 54697, Control_c, 0, 64, 28
2, 54698, Note_on_c, 0, 74, 0
2, 54712, Control_c, 0, 64, 0
2, 54730, Note_on_c, 0, 73, 0
2, 54845, Note_on_c, 0, 76, 77
2, 54877, Note_on_c, 0, 42, 0
2, 54912, Note_on_c, 0, 76, 0
2, 54991, Note_on_c, 0, 42, 73
2, 54993, Note_on_c, 0, 73, 77
2, 55040, Note_on_c, 0, 70, 0
2, 55058, Note_on_c, 0, 73, 0
2, 55060, Note_on_c, 0, 42, 0
2, 55157, Note_on_c, 0, 42, 62
2, 55158, Note_on_c, 0, 70, 71
2, 55165, Note_on_c, 0, 64, 76
2, 55222, Note_on_c, 0, 70, 0
2, 55319, Note_on_c, 0, 73, 71
2, 55378, Note_on_c, 0, 73, 0
2, 55459, Note_on_c, 0, 70, 75
2, 55484, Note_on_c, 0, 64, 0
2, 55524, Note_on_c, 0, 70, 0
2, 55616, Note_on_c, 0, 64, 68
2, 55622, Note_on_c, 0, 61, 69
2, 55676, Note_on_c, 0, 42, 0
2, 55681, Note_on_c, 0, 64, 0
2, 55766, Note_on_c, 0, 70, 73
2, 55814, Note_on_c, 0, 70, 0
2, 55872, Note_on_c, 0, 49, 68
2, 55907, Note_on_c, 0, 64, 70
2, 55945, Note_on_c, 0, 50, 74
2, 55946, Note_on_c, 0, 49, 0
2, 55955, Note_on_c, 0, 64, 0
2, 56022, Note_on_c, 0, 50, 0
2, 56022, Note_on_c, 0, 52, 75
2, 56073, Note_on_c, 0, 62, 64
2, 56097, Note_on_c, 0, 54, 69
2, 56103, Note_on_c, 0, 52, 0
2, 56117, Note_on_c, 0, 61, 0
2, 56205, Note_on_c, 0, 62, 0
2, 56253, Note_on_c, 0, 59, 65
2, 56306, Note_on_c, 0, 59, 0
2, 56327, Note_on_c, 0, 61, 69
2, 56358, Note_on_c, 0, 61, 0
2, 56398, Note_on_c, 0, 62, 75
2, 56413, Note_on_c, 0, 42, 65
2, 56460, Note_on_c, 0, 42, 0
2, 56475, Note_on_c, 0, 62, 0
2, 56476, Note_on_c, 0, 64, 77
2, 56563, Note_on_c, 0, 66, 74
2, 56565, Note_on_c, 0, 42, 68
2, 56567, Note_on_c, 0, 71, 74
2, 56598, Note_on_c, 0, 54, 0
2, 56598, Note_on_c, 0, 64, 0
2, 56656, Note_on_c, 0, 66, 0
2, 56726, Note_on_c, 0, 62, 68
2, 56763, Note_on_c, 0, 42, 0
2, 56812, Note_on_c, 0, 62, 0
2, 56879, Note_on_c, 0, 66, 77
2, 56885, Note_on_c, 0, 42, 61
2, 56918, Note_on_c, 0, 42, 0
2, 56929, Note_on_c, 0, 71, 0
2, 56933, Note_on_c, 0, 66, 0
2, 57030, Note_on_c, 0, 74, 77
2, 57033, Note_on_c, 0, 42, 47
2, 57038, Note_on_c, 0, 71, 69
2, 57097, Note_on_c, 0, 71, 0
2, 57351, Note_on_c, 0, 71, 73
2, 57388, Note_on_c, 0, 71, 0
2, 57393, Note_on_c, 0, 74, 0
2, 57497, Note_on_c, 0, 77, 79
2, 57517, Note_on_c, 0, 74, 65
2, 57585, Note_on_c, 0, 74, 0
2, 57670, Note_on_c, 0, 71, 65
2, 57732, Note_on_c, 0, 71, 0
2, 57744, Note_on_c, 0, 77, 0
2, 57809, Note_on_c, 0, 74, 73
2, 57841, Note_on_c, 0, 74, 0
2, 57941, Note_on_c, 0, 42, 0
2, 57962, Note_on_c, 0, 78, 74
2, 57971, Note_on_c, 0, 73, 63
2, 58072, Note_on_c, 0, 73, 0
2, 58121, Note_on_c, 0, 70, 64
2, 58177, Control_c, 0, 67, 10
2, 58192, Control_c, 0, 67, 13
2, 58207, Control_c, 0, 67, 13
2, 58208, Note_on_c, 0, 50, 61
2, 58247, Note_on_c, 0, 78, 0
2, 58248, Note_on_c, 0, 70, 0
2, 58254, Note_on_c, 0, 76, 67
2, 58264, Note_on_c, 0, 73, 62
2, 58268, Control_c, 0, 67, 13
2, 58277, Note_on_c, 0, 52, 61
2, 58280, Note_on_c, 0, 50, 0
2, 58325, Note_on_c, 0, 73, 0
2, 58328, Control_c, 0, 67, 12
2, 58350, Note_on_c, 0, 52, 0
2, 58352, Control_c, 0, 67, 12
2, 58358, Note_on_c, 0, 54, 57
2, 58367, Control_c, 0, 67, 11
2, 58382, Control_c, 0, 67, 11
2, 58416, Note_on_c, 0, 74, 74
2, 58417, Note_on_c, 0, 54, 0
2, 58421, Note_on_c, 0, 71, 67
2, 58428, Control_c, 0, 67, 10
2, 58436, Note_on_c, 0, 55, 60
2, 58443, Control_c, 0, 67, 9
2, 58460, Control_c, 0, 67, 9
2, 58474, Control_c, 0, 67, 8
2, 58475, Note_on_c, 0, 55, 0
2, 58486, Note_on_c, 0, 76, 0
2, 58489, Control_c, 0, 67, 8
2, 58520, Control_c, 0, 67, 0
2, 58579, Note_on_c, 0, 54, 61
2, 58643, Note_on_c, 0, 54, 0
2, 58728, Note_on_c, 0, 79, 73
2, 58731, Note_on_c, 0, 52, 58
2, 58751, Note_on_c, 0, 71, 0
2, 58760, Note_on_c, 0, 74, 0
2, 58802, Note_on_c, 0, 52, 0
2, 58898, Note_on_c, 0, 74, 66
2, 58902, Note_on_c, 0, 54, 35
2, 58914, Note_on_c, 0, 71, 46
2, 58929, Note_on_c, 0, 79, 0
2, 59020, Control_c, 0, 64, 52
2, 59035, Control_c, 0, 64, 62
2, 59050, Control_c, 0, 64, 68
2, 59066, Control_c, 0, 64, 77
2, 59080, Control_c, 0, 64, 91
2, 59096, Control_c, 0, 64, 114
2, 59098, Note_on_c, 0, 71, 0
2, 59119, Control_c, 0, 64, 127
2, 59156, Note_on_c, 0, 74, 0
2, 59164, Control_c, 0, 67, 8
2, 59180, Control_c, 0, 67, 14
2, 59195, Control_c, 0, 67, 21
2, 59210, Control_c, 0, 67, 31
2, 59225, Control_c, 0, 67, 40
2, 59240, Control_c, 0, 67, 48
2, 59256, Control_c, 0, 67, 56
2, 59272, Control_c, 0, 67, 63
2, 59281, Note_on_c, 0, 54, 0
2, 59287, Control_c, 0, 67, 69
2, 59290, Note_on_c, 0, 73, 67
2, 59303, Control_c, 0, 64, 113
2, 59303, Control_c, 0, 67, 73
2, 59318, Control_c, 0, 64, 104
2, 59318, Control_c, 0, 67, 74
2, 59331, Note_on_c, 0, 73, 0
2, 59332, Control_c, 0, 64, 96
2, 59348, Control_c, 0, 64, 86
2, 59362, Note_on_c, 0, 74, 68
2, 59363, Control_c, 0, 64, 76
2, 59378, Control_c, 0, 64, 69
2, 59393, Control_c, 0, 64, 64
2, 59408, Control_c, 0, 64, 59
2, 59417, Note_on_c, 0, 42, 32
2, 59417, Note_on_c, 0, 73, 77
2, 59424, Control_c, 0, 64, 52
2, 59437, Note_on_c, 0, 74, 0
2, 59439, Control_c, 0, 64, 39
2, 59439, Control_c, 0, 67, 73
2, 59453, Control_c, 0, 64, 0
2, 59453, Control_c, 0, 67, 72
2, 59469, Control_c, 0, 67, 71
2, 59484, Control_c, 0, 67, 70
2, 59500, Control_c, 0, 67, 69
2, 59515, Control_c, 0, 67, 69
2, 59529, Control_c, 0, 67, 68
2, 59545, Control_c, 0, 67, 68
2, 59560, Control_c, 0, 67, 67
2, 59576, Control_c, 0, 67, 66
2, 59581, Note_on_c, 0, 71, 65
2, 59591, Control_c, 0, 67, 63
2, 59606, Control_c, 0, 67, 63
2, 59610, Note_on_c, 0, 73, 0
2, 59622, Control_c, 0, 67, 62
2, 59637, Control_c, 0, 67, 60
2, 59641, Note_on_c, 0, 42, 0
2, 59643, Note_on_c, 0, 71, 0
2, 59651, Control_c, 0, 67, 57
2, 59667, Control_c, 0, 67, 52
2, 59682, Control_c, 0, 67, 46
2, 59698, Control_c, 0, 67, 40
2, 59713, Control_c, 0, 67, 35
2, 59725, Note_on_c, 0, 73, 72
2, 59727, Control_c, 0, 67, 31
2, 59743, Control_c, 0, 67, 27
2, 59758, Control_c, 0, 67, 23
2, 59772, Control_c, 0, 67, 19
2, 59788, Control_c, 0, 67, 11
2, 59795, Note_on_c, 0, 73, 0
2, 59803, Control_c, 0, 67, 0
2, 59864, Note_on_c, 0, 47, 51
2, 59888, Note_on_c, 0, 71, 63
2, 60080, Note_on_c, 0, 74, 63
2, 60096, Note_on_c, 0, 71, 0
2, 60154, Note_on_c, 0, 73, 64
2, 60183, Note_on_c, 0, 74, 0
2, 60204, Note_on_c, 0, 47, 0
2, 60205, Note_on_c, 0, 54, 49
2, 60230, Note_on_c, 0, 71, 66
2, 60232, Note_on_c, 0, 54, 0
2, 60274, Note_on_c, 0, 73, 0
2, 60308, Note_on_c, 0, 69, 64
2, 60337, Note_on_c, 0, 71, 0
2, 60366, Note_on_c, 0, 59, 62
2, 60406, Note_on_c, 0, 59, 0
2, 60417, Note_on_c, 0, 69, 0
2, 60425, Note_on_c, 0, 58, 63
2, 60426, Note_on_c, 0, 67, 68
2, 60462, Note_on_c, 0, 58, 0
2, 60504, Note_on_c, 0, 59, 64
2, 60582, Note_on_c, 0, 67, 0
2, 60585, Note_on_c, 0, 71, 66
2, 60661, Note_on_c, 0, 69, 66
2, 60664, Note_on_c, 0, 71, 0
2, 60731, Note_on_c, 0, 67, 70
2, 60770, Note_on_c, 0, 69, 0
2, 60806, Note_on_c, 0, 66, 73
2, 60809, Note_on_c, 0, 67, 0
2, 60878, Note_on_c, 0, 64, 74
2, 60880, Note_on_c, 0, 66, 0
2, 60922, Note_on_c, 0, 64, 0
2, 60997, Note_on_c, 0, 59, 0
2, 61032, Note_on_c, 0, 67, 71
2, 61035, Note_on_c, 0, 60, 55
2, 61071, Note_on_c, 0, 67, 0
2, 61088, Note_on_c, 0, 60, 0
2, 61113, Note_on_c, 0, 59, 63
2, 61153, Note_on_c, 0, 59, 0
2, 61168, Note_on_c, 0, 57, 68
2, 61180, Note_on_c, 0, 72, 75
2, 61227, Note_on_c, 0, 72, 0
2, 61233, Note_on_c, 0, 57, 0
2, 61242, Note_on_c, 0, 55, 63
2, 61316, Note_on_c, 0, 72, 76
2, 61333, Note_on_c, 0, 54, 62
2, 61346, Note_on_c, 0, 55, 0
2, 61443, Note_on_c, 0, 54, 0
2, 61484, Note_on_c, 0, 69, 57
2, 61508, Note_on_c, 0, 55, 58
2, 61533, Note_on_c, 0, 69, 0
2, 61551, Note_on_c, 0, 55, 0
2, 61576, Note_on_c, 0, 54, 60
2, 61642, Note_on_c, 0, 66, 65
2, 61661, Note_on_c, 0, 54, 0
2, 61673, Note_on_c, 0, 52, 51
2, 61711, Note_on_c, 0, 66, 0
2, 61715, Note_on_c, 0, 52, 0
2, 61727, Note_on_c, 0, 50, 62
2, 61793, Note_on_c, 0, 62, 61
2, 61804, Note_on_c, 0, 50, 0
2, 61820, Note_on_c, 0, 55, 54
2, 61863, Note_on_c, 0, 55, 0
2, 61890, Note_on_c, 0, 57, 61
2, 61917, Note_on_c, 0, 57, 0
2, 61962, Note_on_c, 0, 59, 56
2, 61963, Note_on_c, 0, 67, 57
2, 61980, Note_on_c, 0, 62, 0
2, 62014, Note_on_c, 0, 59, 0
2, 62046, Note_on_c, 0, 55, 55
2, 62083, Note_on_c, 0, 55, 0
2, 62115, Note_on_c, 0, 71, 64
2, 62116, Note_on_c, 0, 54, 48
2, 62116, Note_on_c, 0, 72, 0
2, 62159, Note_on_c, 0, 54, 0
2, 62165, Note_on_c, 0, 71, 0
2, 62199, Note_on_c, 0, 55, 53
2, 62289, Note_on_c, 0, 71, 67
2, 62296, Note_on_c, 0, 49, 47
2, 62306, Note_on_c, 0, 55, 0
2, 62309, Note_on_c, 0, 67, 0
2, 62353, Note_on_c, 0, 49, 0
2, 62371, Note_on_c, 0, 69, 57
2, 62444, Note_on_c, 0, 67, 57
2, 62447, Note_on_c, 0, 52, 57
2, 62483, Note_on_c, 0, 52, 0
2, 62496, Note_on_c, 0, 69, 0
2, 62513, Note_on_c, 0, 67, 0
2, 62519, Note_on_c, 0, 66, 57
2, 62556, Note_on_c, 0, 66, 0
2, 62588, Note_on_c, 0, 64, 57
2, 62602, Note_on_c, 0, 49, 54
2, 62621, Note_on_c, 0, 64, 0
2, 62656, Note_on_c, 0, 49, 0
2, 62673, Note_on_c, 0, 62, 55
2, 62740, Note_on_c, 0, 62, 0
2, 62744, Note_on_c, 0, 61, 70
2, 62772, Note_on_c, 0, 54, 27
2, 62809, Note_on_c, 0, 54, 0
2, 62820, Note_on_c, 0, 55, 53
2, 62850, Note_on_c, 0, 61, 0
2, 62860, Note_on_c, 0, 55, 0
2, 62900, Note_on_c, 0, 57, 59
2, 62910, Note_on_c, 0, 66, 66
2, 62957, Note_on_c, 0, 57, 0
2, 62994, Note_on_c, 0, 54, 53
2, 63028, Note_on_c, 0, 54, 0
2, 63057, Note_on_c, 0, 69, 67
2, 63062, Note_on_c, 0, 52, 54
2, 63071, Note_on_c, 0, 71, 0
2, 63114, Note_on_c, 0, 69, 0
2, 63115, Note_on_c, 0, 52, 0
2, 63128, Note_on_c, 0, 54, 47
2, 63221, Note_on_c, 0, 47, 54
2, 63223, Note_on_c, 0, 69, 68
2, 63229, Note_on_c, 0, 54, 0
2, 63236, Note_on_c, 0, 66, 0
2, 63260, Note_on_c, 0, 47, 0
2, 63300, Note_on_c, 0, 67, 53
2, 63372, Note_on_c, 0, 66, 60
2, 63382, Note_on_c, 0, 50, 59
2, 63418, Note_on_c, 0, 50, 0
2, 63440, Note_on_c, 0, 67, 0
2, 63453, Note_on_c, 0, 64, 68
2, 63461, Control_c, 0, 67, 10
2, 63476, Control_c, 0, 67, 16
2, 63483, Note_on_c, 0, 66, 0
2, 63491, Control_c, 0, 67, 21
2, 63492, Note_on_c, 0, 64, 0
2, 63507, Control_c, 0, 67, 26
2, 63521, Control_c, 0, 67, 30
2, 63521, Note_on_c, 0, 62, 59
2, 63531, Note_on_c, 0, 47, 60
2, 63537, Control_c, 0, 67, 33
2, 63552, Control_c, 0, 67, 33
2, 63560, Note_on_c, 0, 62, 0
2, 63566, Note_on_c, 0, 47, 0
2, 63597, Control_c, 0, 67, 33
2, 63603, Note_on_c, 0, 61, 61
2, 63612, Control_c, 0, 67, 32
2, 63642, Control_c, 0, 67, 31
2, 63658, Control_c, 0, 67, 31
2, 63673, Control_c, 0, 67, 30
2, 63683, Note_on_c, 0, 59, 60
2, 63683, Note_on_c, 0, 61, 0
2, 63688, Control_c, 0, 67, 29
2, 63697, Note_on_c, 0, 52, 52
2, 63704, Control_c, 0, 67, 29
2, 63726, Control_c, 0, 67, 28
2, 63742, Control_c, 0, 67, 27
2, 63748, Note_on_c, 0, 52, 0
2, 63757, Control_c, 0, 67, 26
2, 63773, Note_on_c, 0, 54, 47
2, 63788, Control_c, 0, 67, 26
2, 63800, Note_on_c, 0, 54, 0
2, 63802, Control_c, 0, 67, 25
2, 63818, Control_c, 0, 67, 25
2, 63833, Control_c, 0, 67, 24
2, 63847, Control_c, 0, 67, 23
2, 63850, Note_on_c, 0, 64, 63
2, 63851, Note_on_c, 0, 55, 50
2, 63859, Note_on_c, 0, 59, 0
2, 63863, Control_c, 0, 67, 22
2, 63878, Control_c, 0, 67, 21
2, 63891, Note_on_c, 0, 55, 0
2, 63893, Control_c, 0, 67, 19
2, 63909, Control_c, 0, 67, 16
2, 63922, Note_on_c, 0, 52, 55
2, 63924, Control_c, 0, 67, 12
2, 63939, Control_c, 0, 67, 8
2, 63954, Control_c, 0, 67, 0
2, 63965, Note_on_c, 0, 52, 0
2, 63992, Note_on_c, 0, 69, 0
2, 64004, Note_on_c, 0, 50, 56
2, 64004, Note_on_c, 0, 67, 65
2, 64047, Note_on_c, 0, 50, 0
2, 64063, Note_on_c, 0, 67, 0
2, 64086, Note_on_c, 0, 52, 51
2, 64159, Note_on_c, 0, 45, 56
2, 64171, Note_on_c, 0, 67, 69
2, 64180, Note_on_c, 0, 52, 0
2, 64205, Note_on_c, 0, 64, 0
2, 64206, Note_on_c, 0, 45, 0
2, 64248, Note_on_c, 0, 66, 54
2, 64319, Note_on_c, 0, 49, 59
2, 64329, Note_on_c, 0, 64, 61
2, 64348, Note_on_c, 0, 49, 0
2, 64359, Note_on_c, 0, 66, 0
2, 64360, Note_on_c, 0, 64, 0
2, 64391, Note_on_c, 0, 62, 58
2, 64429, Note_on_c, 0, 62, 0
2, 64457, Note_on_c, 0, 45, 62
2, 64482, Note_on_c, 0, 61, 58
2, 64507, Note_on_c, 0, 45, 0
2, 64558, Note_on_c, 0, 59, 61
2, 64568, Note_on_c, 0, 61, 0
2, 64630, Note_on_c, 0, 57, 61
2, 64634, Note_on_c, 0, 50, 52
2, 64660, Note_on_c, 0, 59, 0
2, 64675, Note_on_c, 0, 50, 0
2, 64715, Note_on_c, 0, 52, 50
2, 64746, Note_on_c, 0, 52, 0
2, 64791, Note_on_c, 0, 57, 0
2, 64796, Note_on_c, 0, 62, 59
2, 64799, Note_on_c, 0, 54, 53
2, 64831, Note_on_c, 0, 54, 0
2, 64870, Note_on_c, 0, 50, 64
2, 64911, Note_on_c, 0, 50, 0
2, 64926, Note_on_c, 0, 49, 64
2, 64953, Note_on_c, 0, 66, 63
2, 64971, Note_on_c, 0, 49, 0
2, 64985, Note_on_c, 0, 67, 0
2, 65034, Note_on_c, 0, 50, 51
2, 65099, Note_on_c, 0, 50, 0
2, 65116, Note_on_c, 0, 47, 53
2, 65118, Note_on_c, 0, 66, 0
2, 65177, Note_on_c, 0, 48, 62
2, 65183, Note_on_c, 0, 47, 0
2, 65199, Control_c, 0, 64, 13
2, 65215, Control_c, 0, 64, 20
2, 65216, Note_on_c, 0, 48, 0
2, 65230, Control_c, 0, 64, 22
2, 65246, Control_c, 0, 64, 19
2, 65268, Control_c, 0, 64, 0
2, 65269, Note_on_c, 0, 66, 60
2, 65274, Note_on_c, 0, 50, 61
2, 65331, Note_on_c, 0, 50, 0
2, 65355, Note_on_c, 0, 47, 67
2, 65374, Control_c, 0, 64, 34
2, 65389, Control_c, 0, 64, 45
2, 65405, Control_c, 0, 64, 53
2, 65408, Note_on_c, 0, 47, 0
2, 65420, Control_c, 0, 64, 59
2, 65431, Note_on_c, 0, 72, 72
2, 65432, Note_on_c, 0, 45, 62
2, 65434, Control_c, 0, 64, 64
2, 65450, Control_c, 0, 64, 68
2, 65465, Control_c, 0, 64, 74
2, 65465, Note_on_c, 0, 66, 0
2, 65466, Note_on_c, 0, 45, 0
2, 65477, Note_on_c, 0, 72, 0
2, 65480, Control_c, 0, 64, 78
2, 65496, Control_c, 0, 64, 83
2, 65503, Note_on_c, 0, 47, 70
2, 65511, Control_c, 0, 64, 86
2, 65527, Control_c, 0, 64, 87
2, 65541, Control_c, 0, 64, 85
2, 65556, Control_c, 0, 64, 83
2, 65572, Control_c, 0, 64, 79
2, 65582, Note_on_c, 0, 47, 0
2, 65586, Control_c, 0, 64, 76
2, 65592, Note_on_c, 0, 71, 69
2, 65596, Note_on_c, 0, 43, 57
2, 65602, Control_c, 0, 64, 73
2, 65616, Control_c, 0, 64, 70
2, 65631, Control_c, 0, 64, 66
2, 65647, Control_c, 0, 64, 63
2, 65652, Note_on_c, 0, 62, 0
2, 65662, Control_c, 0, 64, 60
2, 65666, Note_on_c, 0, 43, 0
2, 65673, Note_on_c, 0, 45, 61
2, 65676, Control_c, 0, 64, 58
2, 65692, Control_c, 0, 64, 54
2, 65707, Control_c, 0, 64, 48
2, 65723, Control_c, 0, 64, 37
2, 65726, Note_on_c, 0, 45, 0
2, 65738, Control_c, 0, 64, 17
2, 65740, Note_on_c, 0, 47, 57
2, 65749, Note_on_c, 0, 67, 65
2, 65752, Control_c, 0, 64, 0
2, 65768, Note_on_c, 0, 47, 0
2, 65814, Note_on_c, 0, 45, 63
2, 65830, Note_on_c, 0, 66, 66
2, 65858, Note_on_c, 0, 67, 0
2, 65872, Note_on_c, 0, 45, 0
2, 65898, Note_on_c, 0, 43, 66
2, 65904, Note_on_c, 0, 64, 67
2, 65923, Note_on_c, 0, 66, 0
2, 65933, Note_on_c, 0, 64, 0
2, 65942, Note_on_c, 0, 43, 0
2, 65967, Note_on_c, 0, 42, 57
2, 65977, Note_on_c, 0, 62, 64
2, 66016, Note_on_c, 0, 42, 0
2, 66053, Note_on_c, 0, 40, 65
2, 66054, Note_on_c, 0, 71, 0
2, 66061, Note_on_c, 0, 67, 72
2, 66076, Note_on_c, 0, 62, 0
2, 66141, Note_on_c, 0, 40, 0
2, 66141, Note_on_c, 0, 42, 59
2, 66181, Note_on_c, 0, 42, 0
2, 66203, Note_on_c, 0, 43, 62
2, 66213, Note_on_c, 0, 73, 72
2, 66218, Note_on_c, 0, 67, 0
2, 66221, Note_on_c, 0, 64, 62
2, 66254, Note_on_c, 0, 43, 0
2, 66266, Note_on_c, 0, 42, 56
2, 66347, Note_on_c, 0, 42, 0
2, 66355, Note_on_c, 0, 40, 64
2, 66366, Note_on_c, 0, 74, 63
2, 66371, Note_on_c, 0, 66, 63
2, 66396, Note_on_c, 0, 64, 0
2, 66396, Note_on_c, 0, 73, 0
2, 66428, Note_on_c, 0, 66, 0
2, 66435, Note_on_c, 0, 40, 0
2, 66442, Note_on_c, 0, 38, 61
2, 66530, Note_on_c, 0, 45, 58
2, 66613, Note_on_c, 0, 38, 0
2, 66710, Note_on_c, 0, 62, 49
2, 66713, Note_on_c, 0, 71, 51
2, 66737, Note_on_c, 0, 74, 0
2, 66775, Note_on_c, 0, 62, 0
2, 66778, Control_c, 0, 64, 34
2, 66801, Control_c, 0, 64, 45
2, 66817, Control_c, 0, 64, 52
2, 66831, Control_c, 0, 64, 58
2, 66846, Control_c, 0, 64, 63
2, 66862, Control_c, 0, 64, 66
2, 66877, Control_c, 0, 64, 70
2, 66878, Note_on_c, 0, 73, 71
2, 66891, Note_on_c, 0, 64, 60
2, 66893, Control_c, 0, 64, 75
2, 66907, Control_c, 0, 64, 80
2, 66909, Note_on_c, 0, 71, 0
2, 66922, Control_c, 0, 64, 85
2, 66922, Note_on_c, 0, 64, 0
2, 66938, Control_c, 0, 64, 91
2, 66952, Control_c, 0, 64, 96
2, 66967, Control_c, 0, 64, 97
2, 66998, Control_c, 0, 64, 96
2, 67014, Control_c, 0, 64, 94
2, 67028, Control_c, 0, 64, 92
2, 67035, Note_on_c, 0, 76, 72
2, 67051, Note_on_c, 0, 67, 55
2, 67059, Control_c, 0, 64, 92
2, 67074, Control_c, 0, 64, 90
2, 67090, Control_c, 0, 64, 88
2, 67091, Note_on_c, 0, 73, 0
2, 67105, Control_c, 0, 64, 86
2, 67107, Note_on_c, 0, 45, 0
2, 67120, Control_c, 0, 64, 83
2, 67127, Note_on_c, 0, 44, 62
2, 67136, Control_c, 0, 64, 80
2, 67151, Control_c, 0, 64, 78
2, 67165, Control_c, 0, 64, 76
2, 67179, Control_c, 0, 64, 73
2, 67194, Control_c, 0, 64, 70
2, 67207, Note_on_c, 0, 46, 66
2, 67209, Control_c, 0, 64, 66
2, 67209, Note_on_c, 0, 44, 0
2, 67225, Control_c, 0, 64, 63
2, 67239, Control_c, 0, 64, 59
2, 67254, Control_c, 0, 64, 54
2, 67270, Control_c, 0, 64, 44
2, 67271, Note_on_c, 0, 46, 0
2, 67285, Control_c, 0, 64, 0
2, 67286, Note_on_c, 0, 47, 66
2, 67336, Note_on_c, 0, 67, 0
2, 67362, Note_on_c, 0, 49, 68
2, 67364, Note_on_c, 0, 47, 0
2, 67427, Note_on_c, 0, 49, 0
2, 67429, Note_on_c, 0, 46, 67
2, 67511, Note_on_c, 0, 47, 77
2, 67545, Note_on_c, 0, 46, 0
2, 67685, Note_on_c, 0, 73, 73
2, 67686, Note_on_c, 0, 64, 69
2, 67704, Control_c, 0, 64, 47
2, 67713, Note_on_c, 0, 76, 0
2, 67719, Control_c, 0, 64, 56
2, 67732, Note_on_c, 0, 64, 0
2, 67734, Control_c, 0, 64, 62
2, 67749, Control_c, 0, 64, 67
2, 67764, Control_c, 0, 64, 73
2, 67780, Control_c, 0, 64, 80
2, 67794, Control_c, 0, 64, 87
2, 67809, Control_c, 0, 64, 95
2, 67825, Control_c, 0, 64, 105
2, 67840, Control_c, 0, 64, 113
2, 67842, Note_on_c, 0, 74, 81
2, 67851, Note_on_c, 0, 66, 71
2, 67856, Control_c, 0, 64, 118
2, 67870, Control_c, 0, 64, 121
2, 67879, Note_on_c, 0, 66, 0
2, 67886, Control_c, 0, 64, 120
2, 67887, Note_on_c, 0, 73, 0
2, 67894, Note_on_c, 0, 74, 0
2, 67902, Control_c, 0, 64, 116
2, 67916, Control_c, 0, 64, 115
2, 67962, Control_c, 0, 64, 114
2, 67978, Control_c, 0, 64, 108
2, 67993, Control_c, 0, 64, 102
2, 68007, Control_c, 0, 64, 97
2, 68010, Note_on_c, 0, 79, 92
2, 68020, Note_on_c, 0, 71, 74
2, 68023, Control_c, 0, 64, 92
2, 68038, Control_c, 0, 64, 87
2, 68053, Control_c, 0, 64, 82
2, 68069, Control_c, 0, 64, 77
2, 68084, Control_c, 0, 64, 71
2, 68087, Note_on_c, 0, 47, 0
2, 68100, Control_c, 0, 64, 66
2, 68103, Note_on_c, 0, 45, 61
2, 68115, Control_c, 0, 64, 63
2, 68129, Control_c, 0, 64, 61
2, 68145, Control_c, 0, 64, 59
2, 68160, Control_c, 0, 64, 55
2, 68176, Control_c, 0, 64, 46
2, 68189, Note_on_c, 0, 47, 69
2, 68191, Control_c, 0, 64, 21
2, 68205, Control_c, 0, 64, 0
2, 68224, Note_on_c, 0, 45, 0
2, 68262, Note_on_c, 0, 47, 0
2, 68266, Note_on_c, 0, 50, 71
2, 68344, Note_on_c, 0, 49, 74
2, 68344, Note_on_c, 0, 50, 0
2, 68407, Note_on_c, 0, 49, 0
2, 68408, Note_on_c, 0, 71, 0
2, 68429, Note_on_c, 0, 52, 80
2, 68506, Note_on_c, 0, 52, 0
2, 68507, Note_on_c, 0, 50, 78
2, 68662, Note_on_c, 0, 78, 77
2, 68667, Note_on_c, 0, 69, 68
2, 68699, Note_on_c, 0, 79, 0
2, 68707, Note_on_c, 0, 69, 0
2, 68791, Control_c, 0, 64, 24
2, 68806, Control_c, 0, 64, 41
2, 68822, Control_c, 0, 64, 50
2, 68832, Note_on_c, 0, 76, 81
2, 68837, Control_c, 0, 64, 57
2, 68837, Note_on_c, 0, 67, 72
2, 68851, Control_c, 0, 64, 62
2, 68867, Control_c, 0, 64, 64
2, 68869, Note_on_c, 0, 67, 0
2, 68882, Control_c, 0, 64, 66
2, 68886, Note_on_c, 0, 78, 0
2, 68898, Control_c, 0, 64, 68
2, 68913, Control_c, 0, 64, 70
2, 68928, Control_c, 0, 64, 72
2, 68944, Control_c, 0, 64, 73
2, 68958, Control_c, 0, 64, 74
2, 69002, Note_on_c, 0, 78, 78
2, 69011, Note_on_c, 0, 69, 69
2, 69037, Note_on_c, 0, 76, 0
2, 69049, Control_c, 0, 64, 73
2, 69065, Control_c, 0, 64, 72
2, 69078, Note_on_c, 0, 50, 0
2, 69080, Control_c, 0, 64, 71
2, 69104, Control_c, 0, 64, 70
2, 69106, Note_on_c, 0, 52, 62
2, 69119, Control_c, 0, 64, 68
2, 69134, Control_c, 0, 64, 66
2, 69148, Note_on_c, 0, 52, 0
2, 69149, Control_c, 0, 64, 63
2, 69164, Control_c, 0, 64, 61
2, 69180, Control_c, 0, 64, 61
2, 69195, Control_c, 0, 64, 60
2, 69195, Note_on_c, 0, 50, 65
2, 69209, Control_c, 0, 64, 58
2, 69225, Control_c, 0, 64, 56
2, 69240, Control_c, 0, 64, 52
2, 69256, Control_c, 0, 64, 47
2, 69261, Note_on_c, 0, 50, 0
2, 69271, Control_c, 0, 64, 42
2, 69275, Note_on_c, 0, 48, 67
2, 69285, Control_c, 0, 64, 37
2, 69301, Control_c, 0, 64, 33
2, 69316, Control_c, 0, 64, 28
2, 69331, Control_c, 0, 64, 17
2, 69339, Note_on_c, 0, 78, 0
2, 69347, Control_c, 0, 64, 0
2, 69350, Note_on_c, 0, 48, 0
2, 69356, Note_on_c, 0, 47, 73
2, 69432, Note_on_c, 0, 45, 67
2, 69435, Note_on_c, 0, 47, 0
2, 69457, Note_on_c, 0, 69, 0
2, 69498, Note_on_c, 0, 45, 0
2, 69503, Note_on_c, 0, 43, 70
2, 69604, Note_on_c, 0, 50, 69
2, 69609, Note_on_c, 0, 43, 0
2, 69644, Note_on_c, 0, 50, 0
2, 69665, Note_on_c, 0, 76, 70
2, 69671, Note_on_c, 0, 67, 59
2, 69685, Note_on_c, 0, 52, 69
2, 69699, Note_on_c, 0, 67, 0
2, 69755, Note_on_c, 0, 52, 0
2, 69757, Note_on_c, 0, 54, 69
2, 69802, Note_on_c, 0, 76, 0
2, 69818, Note_on_c, 0, 74, 71
2, 69821, Note_on_c, 0, 66, 59
2, 69834, Note_on_c, 0, 55, 74
2, 69836, Note_on_c, 0, 54, 0
2, 69866, Note_on_c, 0, 66, 0
2, 69876, Note_on_c, 0, 55, 0
2, 69910, Note_on_c, 0, 57, 69
2, 69985, Note_on_c, 0, 67, 64
2, 69990, Note_on_c, 0, 57, 0
2, 69992, Note_on_c, 0, 58, 63
2, 69992, Note_on_c, 0, 76, 68
2, 69993, Control_c, 0, 64, 18
2, 69996, Note_on_c, 0, 74, 0
2, 70007, Control_c, 0, 64, 23
2, 70023, Control_c, 0, 64, 26
2, 70036, Note_on_c, 0, 67, 0
2, 70038, Control_c, 0, 64, 30
2, 70053, Control_c, 0, 64, 34
2, 70068, Control_c, 0, 64, 37
2, 70083, Control_c, 0, 64, 38
2, 70114, Control_c, 0, 64, 32
2, 70129, Control_c, 0, 64, 19
2, 70145, Control_c, 0, 64, 0
2, 70153, Note_on_c, 0, 73, 72
2, 70157, Note_on_c, 0, 76, 0
2, 70161, Note_on_c, 0, 64, 68
2, 70221, Control_c, 0, 64, 13
2, 70236, Control_c, 0, 64, 40
2, 70236, Note_on_c, 0, 73, 0
2, 70250, Control_c, 0, 64, 53
2, 70266, Control_c, 0, 64, 60
2, 70281, Control_c, 0, 64, 64
2, 70297, Control_c, 0, 64, 69
2, 70312, Control_c, 0, 64, 75
2, 70313, Note_on_c, 0, 74, 75
2, 70316, Note_on_c, 0, 66, 63
2, 70326, Control_c, 0, 64, 83
2, 70342, Control_c, 0, 64, 89
2, 70357, Control_c, 0, 64, 104
2, 70359, Note_on_c, 0, 66, 0
2, 70371, Control_c, 0, 64, 114
2, 70374, Note_on_c, 0, 64, 0
2, 70383, Note_on_c, 0, 74, 0
2, 70387, Control_c, 0, 64, 118
2, 70402, Control_c, 0, 64, 122
2, 70447, Control_c, 0, 64, 119
2, 70463, Control_c, 0, 64, 115
2, 70478, Control_c, 0, 64, 111
2, 70493, Control_c, 0, 64, 106
2, 70493, Note_on_c, 0, 64, 62
2, 70493, Note_on_c, 0, 74, 68
2, 70509, Control_c, 0, 64, 100
2, 70524, Control_c, 0, 64, 91
2, 70533, Note_on_c, 0, 74, 0
2, 70534, Note_on_c, 0, 73, 69
2, 70540, Control_c, 0, 64, 81
2, 70554, Control_c, 0, 64, 71
2, 70560, Note_on_c, 0, 73, 0
2, 70569, Control_c, 0, 64, 64
2, 70585, Control_c, 0, 64, 54
2, 70600, Control_c, 0, 64, 39
2, 70604, Note_on_c, 0, 74, 62
2, 70616, Control_c, 0, 64, 8
2, 70621, Note_on_c, 0, 73, 76
2, 70638, Control_c, 0, 64, 0
2, 70674, Note_on_c, 0, 58, 0
2, 70677, Note_on_c, 0, 74, 0
2, 70710, Note_on_c, 0, 57, 60
2, 70753, Note_on_c, 0, 57, 0
2, 70797, Note_on_c, 0, 58, 56
2, 70851, Note_on_c, 0, 58, 0
2, 70878, Note_on_c, 0, 55, 67
2, 70944, Note_on_c, 0, 55, 0
2, 70963, Note_on_c, 0, 52, 64
2, 71036, Note_on_c, 0, 52, 0
2, 71052, Note_on_c, 0, 55, 57
2, 71102, Note_on_c, 0, 64, 0
2, 71106, Note_on_c, 0, 55, 0
2, 71145, Note_on_c, 0, 65, 57
2, 71147, Note_on_c, 0, 57, 44
2, 71181, Note_on_c, 0, 57, 0
2, 71185, Note_on_c, 0, 65, 0
2, 71218, Note_on_c, 0, 64, 66
2, 71220, Note_on_c, 0, 55, 59
2, 71249, Note_on_c, 0, 55, 0
2, 71257, Note_on_c, 0, 64, 0
2, 71294, Note_on_c, 0, 57, 53
2, 71303, Note_on_c, 0, 65, 56
2, 71347, Note_on_c, 0, 57, 0
2, 71374, Note_on_c, 0, 65, 0
2, 71378, Note_on_c, 0, 53, 57
2, 71381, Note_on_c, 0, 62, 52
2, 71424, Note_on_c, 0, 53, 0
2, 71460, Note_on_c, 0, 73, 0
2, 71464, Note_on_c, 0, 69, 50
2, 71468, Note_on_c, 0, 50, 48
2, 71478, Note_on_c, 0, 62, 0
2, 71503, Note_on_c, 0, 69, 0
2, 71520, Note_on_c, 0, 50, 0
2, 71524, Note_on_c, 0, 65, 55
2, 71536, Note_on_c, 0, 53, 55
2, 71593, Note_on_c, 0, 53, 0
2, 71620, Note_on_c, 0, 70, 74
2, 71626, Note_on_c, 0, 55, 51
2, 71652, Note_on_c, 0, 65, 0
2, 71673, Note_on_c, 0, 55, 0
2, 71711, Note_on_c, 0, 53, 53
2, 71740, Note_on_c, 0, 53, 0
2, 71779, Note_on_c, 0, 55, 54
2, 71781, Note_on_c, 0, 64, 57
2, 71820, Note_on_c, 0, 55, 0
2, 71866, Note_on_c, 0, 52, 54
2, 71912, Note_on_c, 0, 52, 0
2, 71923, Note_on_c, 0, 70, 0
2, 71930, Note_on_c, 0, 67, 58
2, 71948, Note_on_c, 0, 49, 45
2, 72001, Note_on_c, 0, 49, 0
2, 72012, Note_on_c, 0, 52, 54
2, 72059, Note_on_c, 0, 52, 0
2, 72096, Note_on_c, 0, 53, 52
2, 72099, Note_on_c, 0, 69, 65
2, 72102, Note_on_c, 0, 64, 0
2, 72128, Note_on_c, 0, 67, 0
2, 72136, Note_on_c, 0, 53, 0
2, 72155, Note_on_c, 0, 52, 57
2, 72174, Control_c, 0, 64, 8
2, 72190, Control_c, 0, 64, 10
2, 72197, Note_on_c, 0, 52, 0
2, 72239, Note_on_c, 0, 53, 59
2, 72251, Control_c, 0, 64, 12
2, 72279, Note_on_c, 0, 61, 60
2, 72297, Control_c, 0, 64, 15
2, 72298, Note_on_c, 0, 53, 0
2, 72312, Control_c, 0, 64, 18
2, 72327, Control_c, 0, 64, 23
2, 72333, Note_on_c, 0, 50, 61
2, 72343, Control_c, 0, 64, 26
2, 72357, Control_c, 0, 64, 29
2, 72373, Control_c, 0, 64, 31
2, 72389, Control_c, 0, 64, 33
2, 72395, Note_on_c, 0, 50, 0
2, 72401, Note_on_c, 0, 69, 0
2, 72404, Control_c, 0, 64, 35
2, 72418, Note_on_c, 0, 47, 59
2, 72420, Control_c, 0, 64, 38
2, 72426, Note_on_c, 0, 62, 62
2, 72435, Control_c, 0, 64, 39
2, 72441, Note_on_c, 0, 61, 0
2, 72449, Control_c, 0, 64, 41
2, 72465, Control_c, 0, 64, 42
2, 72466, Note_on_c, 0, 47, 0
2, 72480, Control_c, 0, 64, 43
2, 72514, Note_on_c, 0, 50, 42
2, 72541, Control_c, 0, 64, 43
2, 72545, Note_on_c, 0, 50, 0
2, 72569, Note_on_c, 0, 52, 51
2, 72583, Note_on_c, 0, 67, 65
2, 72606, Note_on_c, 0, 52, 0
2, 72642, Note_on_c, 0, 50, 43
2, 72677, Control_c, 0, 64, 44
2, 72685, Note_on_c, 0, 50, 0
2, 72692, Control_c, 0, 64, 44
2, 72707, Control_c, 0, 64, 46
2, 72720, Note_on_c, 0, 62, 0
2, 72721, Note_on_c, 0, 52, 47
2, 72722, Control_c, 0, 64, 47
2, 72738, Control_c, 0, 64, 48
2, 72738, Note_on_c, 0, 61, 64
2, 72753, Control_c, 0, 64, 49
2, 72761, Note_on_c, 0, 52, 0
2, 72768, Control_c, 0, 64, 50
2, 72796, Note_on_c, 0, 49, 51
2, 72802, Note_on_c, 0, 67, 0
2, 72829, Control_c, 0, 64, 50
2, 72847, Note_on_c, 0, 49, 0
2, 72887, Note_on_c, 0, 64, 67
2, 72903, Note_on_c, 0, 45, 52
2, 72927, Note_on_c, 0, 61, 0
2, 72958, Control_c, 0, 64, 50
2, 72973, Control_c, 0, 64, 48
2, 72976, Note_on_c, 0, 45, 0
2, 72987, Note_on_c, 0, 49, 49
2, 72989, Control_c, 0, 64, 46
2, 73003, Control_c, 0, 64, 44
2, 73019, Note_on_c, 0, 49, 0
2, 73037, Note_on_c, 0, 50, 54
2, 73049, Control_c, 0, 64, 46
2, 73057, Note_on_c, 0, 65, 71
2, 73065, Control_c, 0, 64, 47
2, 73080, Control_c, 0, 64, 48
2, 73092, Note_on_c, 0, 50, 0
2, 73096, Control_c, 0, 64, 47
2, 73122, Note_on_c, 0, 49, 54
2, 73171, Control_c, 0, 64, 46
2, 73187, Control_c, 0, 64, 32
2, 73202, Control_c, 0, 64, 0
2, 73203, Note_on_c, 0, 49, 0
2, 73208, Note_on_c, 0, 57, 67
2, 73209, Note_on_c, 0, 50, 59
2, 73232, Note_on_c, 0, 64, 0
2, 73251, Note_on_c, 0, 50, 0
2, 73287, Note_on_c, 0, 53, 56
2, 73327, Note_on_c, 0, 53, 0
2, 73340, Control_c, 0, 64, 32
2, 73349, Note_on_c, 0, 57, 0
2, 73352, Note_on_c, 0, 62, 63
2, 73354, Control_c, 0, 64, 42
2, 73355, Note_on_c, 0, 46, 58
2, 73369, Control_c, 0, 64, 50
2, 73385, Control_c, 0, 64, 57
2, 73400, Control_c, 0, 64, 61
2, 73403, Note_on_c, 0, 46, 0
2, 73416, Control_c, 0, 64, 62
2, 73430, Control_c, 0, 64, 63
2, 73436, Note_on_c, 0, 50, 61
2, 73472, Note_on_c, 0, 50, 0
2, 73475, Control_c, 0, 64, 62
2, 73490, Control_c, 0, 64, 61
2, 73499, Note_on_c, 0, 44, 65
2, 73506, Control_c, 0, 64, 60
2, 73506, Note_on_c, 0, 62, 0
2, 73521, Control_c, 0, 64, 58
2, 73537, Control_c, 0, 64, 56
2, 73551, Control_c, 0, 64, 51
2, 73555, Note_on_c, 0, 59, 57
2, 73558, Note_on_c, 0, 44, 0
2, 73566, Control_c, 0, 64, 48
2, 73582, Control_c, 0, 64, 45
2, 73596, Note_on_c, 0, 45, 68
2, 73597, Control_c, 0, 64, 42
2, 73612, Control_c, 0, 64, 34
2, 73627, Control_c, 0, 64, 21
2, 73636, Note_on_c, 0, 64, 65
2, 73642, Control_c, 0, 64, 0
2, 73643, Note_on_c, 0, 59, 0
2, 73645, Note_on_c, 0, 45, 0
2, 73645, Note_on_c, 0, 65, 0
2, 73675, Note_on_c, 0, 44, 67
2, 73717, Note_on_c, 0, 62, 60
2, 73746, Note_on_c, 0, 44, 0
2, 73755, Note_on_c, 0, 64, 0
2, 73766, Note_on_c, 0, 45, 65
2, 73791, Note_on_c, 0, 61, 73
2, 73795, Note_on_c, 0, 62, 0
2, 73829, Note_on_c, 0, 45, 0
2, 73835, Note_on_c, 0, 61, 0
2, 73844, Note_on_c, 0, 44, 68
2, 73864, Note_on_c, 0, 62, 63
2, 73900, Note_on_c, 0, 44, 0
2, 73927, Note_on_c, 0, 45, 55
2, 73934, Note_on_c, 0, 65, 75
2, 73936, Note_on_c, 0, 62, 0
2, 73966, Note_on_c, 0, 45, 0
2, 73997, Note_on_c, 0, 44, 61
2, 74017, Note_on_c, 0, 71, 76
2, 74019, Note_on_c, 0, 65, 0
2, 74038, Note_on_c, 0, 44, 0
2, 74054, Note_on_c, 0, 45, 62
2, 74061, Control_c, 0, 64, 27
2, 74076, Control_c, 0, 64, 41
2, 74091, Control_c, 0, 64, 48
2, 74107, Control_c, 0, 64, 53
2, 74110, Note_on_c, 0, 45, 0
2, 74110, Note_on_c, 0, 65, 69
2, 74116, Note_on_c, 0, 71, 0
2, 74121, Control_c, 0, 64, 58
2, 74126, Note_on_c, 0, 44, 68
2, 74137, Control_c, 0, 64, 61
2, 74152, Control_c, 0, 64, 63
2, 74165, Note_on_c, 0, 44, 0
2, 74167, Control_c, 0, 64, 64
2, 74178, Note_on_c, 0, 64, 74
2, 74182, Note_on_c, 0, 65, 0
2, 74183, Control_c, 0, 64, 66
2, 74197, Control_c, 0, 64, 67
2, 74205, Note_on_c, 0, 45, 62
2, 74219, Note_on_c, 0, 64, 0
2, 74250, Note_on_c, 0, 45, 0
2, 74256, Note_on_c, 0, 62, 63
2, 74259, Control_c, 0, 64, 66
2, 74268, Note_on_c, 0, 44, 67
2, 74273, Control_c, 0, 64, 64
2, 74288, Control_c, 0, 64, 62
2, 74304, Control_c, 0, 64, 59
2, 74318, Control_c, 0, 64, 56
2, 74319, Note_on_c, 0, 62, 0
2, 74323, Note_on_c, 0, 61, 68
2, 74326, Note_on_c, 0, 44, 0
2, 74333, Control_c, 0, 64, 53
2, 74334, Note_on_c, 0, 42, 70
2, 74349, Control_c, 0, 64, 49
2, 74364, Control_c, 0, 64, 44
2, 74380, Control_c, 0, 64, 37
2, 74393, Note_on_c, 0, 61, 0
2, 74394, Control_c, 0, 64, 22
2, 74397, Note_on_c, 0, 44, 67
2, 74401, Note_on_c, 0, 59, 69
2, 74409, Control_c, 0, 64, 0
2, 74420, Note_on_c, 0, 42, 0
2, 74483, Note_on_c, 0, 45, 68
2, 74499, Note_on_c, 0, 59, 0
2, 74502, Note_on_c, 0, 61, 78
2, 74556, Note_on_c, 0, 44, 0
2, 74586, Note_on_c, 0, 57, 66
2, 74609, Note_on_c, 0, 61, 0
2, 74643, Note_on_c, 0, 57, 0
2, 74670, Note_on_c, 0, 55, 75
2, 74749, Note_on_c, 0, 54, 71
2, 74751, Note_on_c, 0, 55, 0
2, 74824, Note_on_c, 0, 52, 78
2, 74862, Note_on_c, 0, 54, 0
2, 74886, Note_on_c, 0, 52, 0
2, 74905, Note_on_c, 0, 50, 77
2, 74979, Note_on_c, 0, 49, 86
2, 74999, Note_on_c, 0, 50, 0
2, 75062, Note_on_c, 0, 47, 81
2, 75069, Note_on_c, 0, 45, 0
2, 75095, Note_on_c, 0, 49, 0
2, 75113, Note_on_c, 0, 47, 0
2, 75152, Note_on_c, 0, 45, 86
2, 75232, Note_on_c, 0, 43, 83
2, 75236, Note_on_c, 0, 45, 0
2, 75325, Note_on_c, 0, 42, 80
2, 75335, Note_on_c, 0, 43, 0
2, 75412, Note_on_c, 0, 40, 86
2, 75441, Note_on_c, 0, 42, 0
2, 75540, Note_on_c, 0, 38, 87
2, 75620, Note_on_c, 0, 40, 0
2, 75755, Note_on_c, 0, 50, 78
2, 75808, Note_on_c, 0, 50, 0
2, 75837, Note_on_c, 0, 52, 74
2, 75909, Note_on_c, 0, 54, 72
2, 75923, Note_on_c, 0, 52, 0
2, 75979, Note_on_c, 0, 55, 77
2, 75999, Note_on_c, 0, 54, 0
2, 76070, Note_on_c, 0, 57, 81
2, 76101, Note_on_c, 0, 55, 0
2, 76123, Note_on_c, 0, 57, 0
2, 76223, Note_on_c, 0, 54, 68
2, 76293, Note_on_c, 0, 54, 0
2, 76370, Note_on_c, 0, 57, 60
2, 76390, Note_on_c, 0, 59, 52
2, 76420, Note_on_c, 0, 59, 0
2, 76428, Note_on_c, 0, 57, 0
2, 76514, Note_on_c, 0, 62, 70
2, 76569, Note_on_c, 0, 62, 0
2, 76660, Note_on_c, 0, 57, 75
2, 76724, Note_on_c, 0, 57, 0
2, 76806, Note_on_c, 0, 62, 75
2, 76846, Note_on_c, 0, 38, 0
2, 76872, Note_on_c, 0, 62, 0
2, 76951, Note_on_c, 0, 66, 79
2, 77033, Note_on_c, 0, 66, 0
2, 77094, Note_on_c, 0, 62, 77
2, 77164, Note_on_c, 0, 62, 0
2, 77239, Note_on_c, 0, 66, 83
2, 77314, Note_on_c, 0, 66, 0
2, 77418, Note_on_c, 0, 69, 72
2, 77497, Control_c, 0, 64, 45
2, 77512, Control_c, 0, 64, 54
2, 77527, Control_c, 0, 64, 59
2, 77550, Control_c, 0, 64, 64
2, 77565, Control_c, 0, 64, 68
2, 77581, Control_c, 0, 64, 74
2, 77595, Control_c, 0, 64, 80
2, 77595, Note_on_c, 0, 69, 0
2, 77610, Control_c, 0, 64, 87
2, 77626, Control_c, 0, 64, 97
2, 77641, Control_c, 0, 64, 108
2, 77657, Control_c, 0, 64, 113
2, 77687, Control_c, 0, 64, 111
2, 77702, Control_c, 0, 64, 107
2, 77717, Control_c, 0, 64, 101
2, 77732, Control_c, 0, 64, 94
2, 77748, Control_c, 0, 64, 86
2, 77762, Control_c, 0, 64, 81
2, 77778, Control_c, 0, 64, 76
2, 77793, Control_c, 0, 64, 72
2, 77808, Control_c, 0, 64, 68
2, 77823, Control_c, 0, 64, 65
2, 77838, Control_c, 0, 64, 62
2, 77853, Control_c, 0, 64, 60
2, 77870, Control_c, 0, 64, 56
2, 77885, Control_c, 0, 64, 49
2, 77901, Control_c, 0, 64, 33
2, 77915, Control_c, 0, 64, 0
2, 77938, Note_on_c, 0, 78, 68
2, 77944, Note_on_c, 0, 69, 53
2, 77964, Note_on_c, 0, 50, 36
2, 78144, Control_c, 0, 64, 43
2, 78159, Control_c, 0, 64, 52
2, 78174, Control_c, 0, 64, 58
2, 78189, Control_c, 0, 64, 63
2, 78204, Control_c, 0, 64, 67
2, 78220, Control_c, 0, 64, 72
2, 78226, Note_on_c, 0, 78, 0
2, 78229, Note_on_c, 0, 69, 0
2, 78235, Control_c, 0, 64, 78
2, 78250, Control_c, 0, 64, 83
2, 78265, Control_c, 0, 64, 88
2, 78280, Control_c, 0, 64, 90
2, 78295, Control_c, 0, 64, 90
2, 78319, Control_c, 0, 64, 86
2, 78334, Control_c, 0, 64, 81
2, 78349, Control_c, 0, 64, 75
2, 78364, Control_c, 0, 64, 70
2, 78380, Control_c, 0, 64, 66
2, 78394, Control_c, 0, 64, 64
2, 78409, Control_c, 0, 64, 62
2, 78425, Control_c, 0, 64, 57
2, 78440, Control_c, 0, 64, 50
2, 78455, Control_c, 0, 64, 33
2, 78467, Note_on_c, 0, 78, 65
2, 78470, Control_c, 0, 64, 0
2, 78477, Note_on_c, 0, 57, 37
2, 78481, Note_on_c, 0, 69, 50
2, 78561, Note_on_c, 0, 50, 0
2, 78607, Note_on_c, 0, 69, 0
2, 78623, Control_c, 0, 64, 42
2, 78638, Control_c, 0, 64, 54
2, 78653, Control_c, 0, 64, 59
2, 78669, Control_c, 0, 64, 63
2, 78683, Control_c, 0, 64, 65
2, 78699, Control_c, 0, 64, 68
2, 78714, Control_c, 0, 64, 72
2, 78721, Note_on_c, 0, 76, 67
2, 78729, Control_c, 0, 64, 77
2, 78733, Note_on_c, 0, 67, 58
2, 78745, Control_c, 0, 64, 81
2, 78759, Control_c, 0, 64, 85
2, 78760, Note_on_c, 0, 78, 0
2, 78774, Control_c, 0, 64, 88
2, 78790, Control_c, 0, 64, 89
2, 78790, Note_on_c, 0, 67, 0
2, 78798, Note_on_c, 0, 76, 0
2, 78820, Control_c, 0, 64, 88
2, 78835, Control_c, 0, 64, 86
2, 78850, Control_c, 0, 64, 84
2, 78866, Control_c, 0, 64, 80
2, 78880, Control_c, 0, 64, 76
2, 78895, Control_c, 0, 64, 73
2, 78911, Control_c, 0, 64, 69
2, 78927, Control_c, 0, 64, 67
2, 78943, Control_c, 0, 64, 65
2, 78958, Control_c, 0, 64, 63
2, 78961, Note_on_c, 0, 45, 39
2, 78961, Note_on_c, 0, 57, 0
2, 78964, Note_on_c, 0, 76, 59
2, 78967, Note_on_c, 0, 67, 50
2, 78972, Control_c, 0, 64, 61
2, 78988, Control_c, 0, 64, 59
2, 79003, Control_c, 0, 64, 55
2, 79019, Control_c, 0, 64, 50
2, 79033, Control_c, 0, 64, 42
2, 79048, Control_c, 0, 64, 25
2, 79049, Note_on_c, 0, 67, 0
2, 79064, Control_c, 0, 64, 0
2, 79211, Note_on_c, 0, 74, 62
2, 79223, Note_on_c, 0, 66, 47
2, 79285, Note_on_c, 0, 76, 0
2, 79300, Control_c, 0, 64, 37
2, 79314, Control_c, 0, 64, 54
2, 79325, Note_on_c, 0, 66, 0
2, 79329, Control_c, 0, 64, 61
2, 79337, Note_on_c, 0, 74, 0
2, 79345, Control_c, 0, 64, 64
2, 79360, Control_c, 0, 64, 67
2, 79375, Control_c, 0, 64, 73
2, 79390, Control_c, 0, 64, 79
2, 79405, Control_c, 0, 64, 86
2, 79421, Control_c, 0, 64, 92
2, 79436, Control_c, 0, 64, 98
2, 79441, Note_on_c, 0, 74, 58
2, 79451, Control_c, 0, 64, 101
2, 79459, Note_on_c, 0, 50, 36
2, 79466, Note_on_c, 0, 66, 51
2, 79491, Note_on_c, 0, 74, 0
2, 79498, Control_c, 0, 64, 99
2, 79505, Note_on_c, 0, 66, 0
2, 79512, Control_c, 0, 64, 98
2, 79527, Control_c, 0, 64, 96
2, 79543, Control_c, 0, 64, 94
2, 79544, Note_on_c, 0, 45, 0
2, 79558, Control_c, 0, 64, 90
2, 79572, Control_c, 0, 64, 84
2, 79588, Control_c, 0, 64, 77
2, 79603, Control_c, 0, 64, 70
2, 79619, Control_c, 0, 64, 65
2, 79634, Control_c, 0, 64, 61
2, 79648, Control_c, 0, 64, 58
2, 79650, Note_on_c, 0, 62, 57
2, 79664, Control_c, 0, 64, 54
2, 79679, Control_c, 0, 64, 46
2, 79689, Note_on_c, 0, 62, 0
2, 79694, Control_c, 0, 64, 28
2, 79710, Control_c, 0, 64, 0
2, 79719, Note_on_c, 0, 64, 57
2, 79782, Note_on_c, 0, 50, 0
2, 79785, Note_on_c, 0, 66, 69
2, 79788, Note_on_c, 0, 64, 0
2, 79860, Note_on_c, 0, 67, 72
2, 79863, Note_on_c, 0, 66, 0
2, 79939, Note_on_c, 0, 69, 72
2, 79960, Note_on_c, 0, 67, 0
2, 79980, Note_on_c, 0, 69, 0
2, 80087, Note_on_c, 0, 66, 72
2, 80100, Note_on_c, 0, 60, 53
2, 80135, Note_on_c, 0, 66, 0
2, 80141, Note_on_c, 0, 60, 0
2, 80158, Note_on_c, 0, 59, 64
2, 80203, Note_on_c, 0, 59, 0
2, 80215, Note_on_c, 0, 57, 66
2, 80231, Note_on_c, 0, 69, 69
2, 80273, Note_on_c, 0, 55, 63
2, 80277, Note_on_c, 0, 57, 0
2, 80281, Note_on_c, 0, 69, 0
2, 80366, Note_on_c, 0, 54, 61
2, 80366, Note_on_c, 0, 72, 74
2, 80372, Note_on_c, 0, 55, 0
2, 80425, Note_on_c, 0, 72, 0
2, 80447, Note_on_c, 0, 54, 0
2, 80513, Note_on_c, 0, 69, 74
2, 80527, Note_on_c, 0, 57, 58
2, 80570, Note_on_c, 0, 57, 0
2, 80574, Note_on_c, 0, 69, 0
2, 80662, Note_on_c, 0, 72, 84
2, 80668, Note_on_c, 0, 54, 59
2, 80702, Note_on_c, 0, 54, 0
2, 80714, Note_on_c, 0, 72, 0
2, 80805, Note_on_c, 0, 78, 81
2, 80809, Note_on_c, 0, 50, 64
2, 80849, Note_on_c, 0, 50, 0
2, 80870, Note_on_c, 0, 78, 0
2, 80954, Note_on_c, 0, 72, 78
2, 80959, Note_on_c, 0, 54, 57
2, 80997, Note_on_c, 0, 54, 0
2, 81015, Note_on_c, 0, 72, 0
2, 81088, Note_on_c, 0, 78, 73
2, 81093, Note_on_c, 0, 50, 56
2, 81128, Note_on_c, 0, 50, 0
2, 81150, Note_on_c, 0, 78, 0
2, 81235, Note_on_c, 0, 45, 56
2, 81240, Note_on_c, 0, 81, 64
2, 81245, Control_c, 0, 64, 26
2, 81260, Control_c, 0, 64, 39
2, 81275, Control_c, 0, 64, 47
2, 81279, Note_on_c, 0, 45, 0
2, 81290, Control_c, 0, 64, 52
2, 81306, Control_c, 0, 64, 55
2, 81321, Control_c, 0, 64, 58
2, 81335, Control_c, 0, 64, 60
2, 81351, Control_c, 0, 64, 62
2, 81366, Control_c, 0, 64, 63
2, 81391, Note_on_c, 0, 50, 62
2, 81405, Note_on_c, 0, 81, 0
2, 81421, Control_c, 0, 64, 62
2, 81436, Control_c, 0, 64, 60
2, 81447, Note_on_c, 0, 50, 0
2, 81450, Control_c, 0, 64, 58
2, 81466, Control_c, 0, 64, 55
2, 81481, Control_c, 0, 64, 50
2, 81497, Control_c, 0, 64, 45
2, 81512, Control_c, 0, 64, 38
2, 81527, Control_c, 0, 64, 27
2, 81537, Note_on_c, 0, 45, 69
2, 81543, Control_c, 0, 64, 10
2, 81558, Control_c, 0, 64, 0
2, 81577, Note_on_c, 0, 45, 0
2, 81681, Note_on_c, 0, 42, 56
2, 81690, Note_on_c, 0, 72, 69
2, 81691, Note_on_c, 0, 69, 56
2, 81726, Note_on_c, 0, 42, 0
2, 81838, Note_on_c, 0, 45, 70
2, 81879, Note_on_c, 0, 45, 0
2, 81948, Note_on_c, 0, 72, 0
2, 81954, Note_on_c, 0, 69, 0
2, 81983, Note_on_c, 0, 42, 69
2, 82041, Note_on_c, 0, 42, 0
2, 82139, Note_on_c, 0, 38, 54
2, 82157, Note_on_c, 0, 72, 62
2, 82166, Note_on_c, 0, 69, 54
2, 82341, Control_c, 0, 64, 30
2, 82356, Control_c, 0, 64, 44
2, 82371, Control_c, 0, 64, 52
2, 82387, Control_c, 0, 64, 57
2, 82393, Note_on_c, 0, 71, 66
2, 82396, Note_on_c, 0, 67, 59
2, 82402, Control_c, 0, 64, 62
2, 82417, Control_c, 0, 64, 64
2, 82432, Control_c, 0, 64, 67
2, 82447, Control_c, 0, 64, 70
2, 82447, Note_on_c, 0, 69, 0
2, 82453, Note_on_c, 0, 72, 0
2, 82463, Control_c, 0, 64, 73
2, 82478, Control_c, 0, 64, 76
2, 82487, Note_on_c, 0, 67, 0
2, 82493, Control_c, 0, 64, 78
2, 82500, Note_on_c, 0, 71, 0
2, 82509, Control_c, 0, 64, 78
2, 82539, Control_c, 0, 64, 77
2, 82554, Control_c, 0, 64, 75
2, 82569, Control_c, 0, 64, 73
2, 82585, Control_c, 0, 64, 70
2, 82600, Control_c, 0, 64, 68
2, 82614, Control_c, 0, 64, 65
2, 82630, Control_c, 0, 64, 63
2, 82636, Note_on_c, 0, 71, 53
2, 82640, Note_on_c, 0, 50, 42
2, 82643, Note_on_c, 0, 67, 53
2, 82645, Control_c, 0, 64, 61
2, 82661, Control_c, 0, 64, 59
2, 82675, Control_c, 0, 64, 56
2, 82690, Control_c, 0, 64, 52
2, 82706, Control_c, 0, 64, 46
2, 82721, Control_c, 0, 64, 34
2, 82735, Control_c, 0, 64, 0
2, 82748, Note_on_c, 0, 38, 0
2, 82873, Note_on_c, 0, 69, 62
2, 82875, Note_on_c, 0, 67, 0
2, 82881, Note_on_c, 0, 66, 57
2, 82930, Note_on_c, 0, 71, 0
2, 83119, Note_on_c, 0, 43, 48
2, 83121, Note_on_c, 0, 66, 0
2, 83140, Control_c, 0, 64, 25
2, 83142, Note_on_c, 0, 71, 57
2, 83149, Note_on_c, 0, 67, 54
2, 83155, Control_c, 0, 64, 43
2, 83170, Control_c, 0, 64, 52
2, 83185, Control_c, 0, 64, 58
2, 83186, Note_on_c, 0, 50, 0
2, 83200, Control_c, 0, 64, 63
2, 83211, Note_on_c, 0, 69, 0
2, 83212, Note_on_c, 0, 67, 0
2, 83215, Control_c, 0, 64, 67
2, 83222, Note_on_c, 0, 71, 0
2, 83231, Control_c, 0, 64, 71
2, 83246, Control_c, 0, 64, 75
2, 83261, Control_c, 0, 64, 79
2, 83276, Control_c, 0, 64, 82
2, 83307, Control_c, 0, 64, 80
2, 83322, Control_c, 0, 64, 75
2, 83338, Control_c, 0, 64, 69
2, 83353, Control_c, 0, 64, 64
2, 83361, Note_on_c, 0, 83, 74
2, 83367, Control_c, 0, 64, 58
2, 83383, Control_c, 0, 64, 52
2, 83398, Control_c, 0, 64, 46
2, 83413, Control_c, 0, 64, 33
2, 83429, Control_c, 0, 64, 0
2, 83432, Note_on_c, 0, 81, 74
2, 83441, Note_on_c, 0, 83, 0
2, 83490, Note_on_c, 0, 50, 46
2, 83502, Note_on_c, 0, 79, 76
2, 83538, Note_on_c, 0, 81, 0
2, 83539, Note_on_c, 0, 43, 0
2, 83566, Note_on_c, 0, 78, 76
2, 83572, Note_on_c, 0, 79, 0
2, 83582, Note_on_c, 0, 50, 0
2, 83640, Note_on_c, 0, 55, 58
2, 83642, Note_on_c, 0, 76, 75
2, 83655, Note_on_c, 0, 78, 0
2, 83691, Note_on_c, 0, 76, 0
2, 83814, Note_on_c, 0, 81, 55
2, 83815, Note_on_c, 0, 79, 66
2, 83830, Note_on_c, 0, 55, 0
2, 83844, Note_on_c, 0, 81, 0
2, 83848, Note_on_c, 0, 79, 0
2, 83940, Note_on_c, 0, 76, 65
2, 83942, Note_on_c, 0, 55, 58
2, 83973, Note_on_c, 0, 55, 0
2, 83980, Note_on_c, 0, 76, 0
2, 83984, Control_c, 0, 64, 13
2, 83999, Control_c, 0, 64, 44
2, 84014, Control_c, 0, 64, 53
2, 84029, Control_c, 0, 64, 57
2, 84044, Control_c, 0, 64, 61
2, 84060, Control_c, 0, 64, 62
2, 84086, Note_on_c, 0, 73, 66
2, 84089, Note_on_c, 0, 55, 49
2, 84105, Control_c, 0, 64, 60
2, 84114, Note_on_c, 0, 73, 0
2, 84120, Control_c, 0, 64, 54
2, 84135, Control_c, 0, 64, 43
2, 84151, Control_c, 0, 64, 31
2, 84165, Control_c, 0, 64, 0
2, 84245, Note_on_c, 0, 57, 66
2, 84285, Note_on_c, 0, 57, 0
2, 84315, Note_on_c, 0, 59, 69
2, 84337, Note_on_c, 0, 55, 0
2, 84384, Note_on_c, 0, 59, 0
2, 84386, Note_on_c, 0, 61, 72
2, 84463, Note_on_c, 0, 62, 64
2, 84468, Note_on_c, 0, 61, 0
2, 84525, Note_on_c, 0, 64, 76
2, 84549, Note_on_c, 0, 62, 0
2, 84566, Note_on_c, 0, 64, 0
2, 84663, Note_on_c, 0, 45, 60
2, 84673, Note_on_c, 0, 61, 74
2, 84713, Note_on_c, 0, 45, 0
2, 84722, Note_on_c, 0, 61, 0
2, 84734, Note_on_c, 0, 43, 57
2, 84779, Note_on_c, 0, 43, 0
2, 84801, Note_on_c, 0, 42, 60
2, 84811, Note_on_c, 0, 64, 68
2, 84854, Note_on_c, 0, 42, 0
2, 84858, Note_on_c, 0, 64, 0
2, 84900, Note_on_c, 0, 40, 43
2, 84934, Control_c, 0, 64, 37
2, 84949, Control_c, 0, 64, 45
2, 84964, Control_c, 0, 64, 50
2, 84973, Note_on_c, 0, 69, 65
2, 84978, Note_on_c, 0, 42, 53
2, 84980, Control_c, 0, 64, 53
2, 84994, Control_c, 0, 64, 55
2, 85032, Note_on_c, 0, 69, 0
2, 85035, Note_on_c, 0, 40, 0
2, 85040, Control_c, 0, 64, 53
2, 85055, Control_c, 0, 64, 49
2, 85071, Control_c, 0, 64, 44
2, 85086, Control_c, 0, 64, 37
2, 85102, Control_c, 0, 64, 28
2, 85116, Control_c, 0, 64, 18
2, 85116, Note_on_c, 0, 42, 0
2, 85131, Control_c, 0, 64, 0
2, 85141, Note_on_c, 0, 81, 81
2, 85212, Note_on_c, 0, 79, 80
2, 85234, Note_on_c, 0, 81, 0
2, 85284, Note_on_c, 0, 54, 60
2, 85290, Note_on_c, 0, 78, 74
2, 85318, Note_on_c, 0, 79, 0
2, 85320, Note_on_c, 0, 54, 0
2, 85360, Note_on_c, 0, 76, 72
2, 85388, Note_on_c, 0, 78, 0
2, 85431, Note_on_c, 0, 54, 52
2, 85435, Note_on_c, 0, 74, 77
2, 85446, Note_on_c, 0, 76, 0
2, 85488, Note_on_c, 0, 74, 0
2, 85566, Note_on_c, 0, 54, 0
2, 85578, Note_on_c, 0, 78, 78
2, 85647, Note_on_c, 0, 78, 0
2, 85711, Note_on_c, 0, 54, 54
2, 85721, Note_on_c, 0, 74, 72
2, 85748, Control_c, 0, 64, 24
2, 85750, Note_on_c, 0, 54, 0
2, 85762, Control_c, 0, 64, 48
2, 85766, Note_on_c, 0, 74, 0
2, 85778, Control_c, 0, 64, 56
2, 85793, Control_c, 0, 64, 60
2, 85808, Control_c, 0, 64, 63
2, 85824, Control_c, 0, 64, 66
2, 85838, Control_c, 0, 64, 69
2, 85853, Control_c, 0, 64, 70
2, 85858, Note_on_c, 0, 71, 70
2, 85864, Note_on_c, 0, 54, 49
2, 85869, Control_c, 0, 64, 70
2, 85884, Control_c, 0, 64, 66
2, 85884, Note_on_c, 0, 71, 0
2, 85900, Control_c, 0, 64, 59
2, 85915, Control_c, 0, 64, 44
2, 85929, Control_c, 0, 64, 32
2, 85945, Control_c, 0, 64, 22
2, 85960, Control_c, 0, 64, 0
2, 86033, Note_on_c, 0, 55, 61
2, 86075, Note_on_c, 0, 55, 0
2, 86104, Note_on_c, 0, 57, 62
2, 86131, Note_on_c, 0, 54, 0
2, 86172, Note_on_c, 0, 57, 0
2, 86173, Note_on_c, 0, 59, 66
2, 86235, Note_on_c, 0, 59, 0
2, 86238, Note_on_c, 0, 61, 67
2, 86309, Note_on_c, 0, 62, 69
2, 86346, Note_on_c, 0, 61, 0
2, 86360, Note_on_c, 0, 62, 0
2, 86455, Note_on_c, 0, 43, 46
2, 86462, Note_on_c, 0, 59, 66
2, 86494, Note_on_c, 0, 43, 0
2, 86512, Note_on_c, 0, 42, 49
2, 86522, Note_on_c, 0, 59, 0
2, 86554, Note_on_c, 0, 42, 0
2, 86602, Note_on_c, 0, 40, 51
2, 86605, Note_on_c, 0, 62, 60
2, 86636, Note_on_c, 0, 62, 0
2, 86642, Note_on_c, 0, 40, 0
2, 86692, Note_on_c, 0, 38, 35
2, 86740, Note_on_c, 0, 40, 59
2, 86749, Note_on_c, 0, 38, 0
2, 86761, Note_on_c, 0, 67, 64
2, 86789, Note_on_c, 0, 40, 0
2, 86939, Note_on_c, 0, 59, 58
2, 86972, Note_on_c, 0, 59, 0
2, 86988, Note_on_c, 0, 57, 62
2, 87034, Note_on_c, 0, 67, 0
2, 87045, Note_on_c, 0, 57, 0
2, 87067, Note_on_c, 0, 71, 61
2, 87068, Note_on_c, 0, 62, 61
2, 87072, Note_on_c, 0, 55, 48
2, 87101, Note_on_c, 0, 71, 0
2, 87102, Note_on_c, 0, 62, 0
2, 87116, Note_on_c, 0, 55, 0
2, 87125, Note_on_c, 0, 54, 46
2, 87209, Note_on_c, 0, 71, 65
2, 87213, Note_on_c, 0, 67, 59
2, 87214, Note_on_c, 0, 52, 62
2, 87227, Note_on_c, 0, 54, 0
2, 87253, Note_on_c, 0, 52, 0
2, 87366, Note_on_c, 0, 55, 68
2, 87397, Note_on_c, 0, 55, 0
2, 87403, Note_on_c, 0, 71, 0
2, 87406, Note_on_c, 0, 67, 0
2, 87518, Note_on_c, 0, 52, 64
2, 87518, Note_on_c, 0, 71, 67
2, 87535, Note_on_c, 0, 67, 60
2, 87553, Note_on_c, 0, 52, 0
2, 87585, Note_on_c, 0, 67, 0
2, 87603, Note_on_c, 0, 71, 0
2, 87687, Note_on_c, 0, 69, 59
2, 87690, Note_on_c, 0, 49, 54
2, 87707, Note_on_c, 0, 67, 53
2, 87733, Note_on_c, 0, 49, 0
2, 87840, Note_on_c, 0, 52, 64
2, 87876, Note_on_c, 0, 52, 0
2, 87988, Note_on_c, 0, 49, 60
2, 88028, Note_on_c, 0, 49, 0
2, 88035, Control_c, 0, 67, 8
2, 88050, Control_c, 0, 67, 10
2, 88066, Control_c, 0, 67, 12
2, 88081, Control_c, 0, 67, 14
2, 88095, Control_c, 0, 67, 16
2, 88111, Control_c, 0, 67, 20
2, 88126, Control_c, 0, 67, 25
2, 88126, Note_on_c, 0, 45, 62
2, 88142, Control_c, 0, 67, 31
2, 88153, Note_on_c, 0, 67, 0
2, 88157, Control_c, 0, 67, 38
2, 88158, Note_on_c, 0, 69, 0
2, 88171, Control_c, 0, 67, 44
2, 88186, Note_on_c, 0, 45, 0
2, 88187, Control_c, 0, 67, 49
2, 88202, Control_c, 0, 67, 55
2, 88217, Control_c, 0, 67, 60
2, 88232, Control_c, 0, 67, 64
2, 88247, Control_c, 0, 67, 65
2, 88263, Control_c, 0, 67, 66
2, 88278, Control_c, 0, 67, 65
2, 88284, Note_on_c, 0, 69, 62
2, 88299, Note_on_c, 0, 49, 58
2, 88301, Control_c, 0, 67, 65
2, 88316, Control_c, 0, 67, 64
2, 88331, Control_c, 0, 67, 63
2, 88335, Note_on_c, 0, 49, 0
2, 88347, Control_c, 0, 67, 62
2, 88362, Control_c, 0, 67, 60
2, 88370, Note_on_c, 0, 67, 62
2, 88374, Note_on_c, 0, 69, 0
2, 88377, Control_c, 0, 67, 57
2, 88392, Control_c, 0, 67, 56
2, 88407, Control_c, 0, 67, 55
2, 88423, Control_c, 0, 67, 52
2, 88437, Control_c, 0, 67, 48
2, 88439, Note_on_c, 0, 66, 64
2, 88440, Note_on_c, 0, 45, 47
2, 88452, Control_c, 0, 67, 40
2, 88453, Note_on_c, 0, 67, 0
2, 88468, Control_c, 0, 67, 30
2, 88483, Control_c, 0, 67, 20
2, 88488, Note_on_c, 0, 45, 0
2, 88490, Note_on_c, 0, 66, 0
2, 88498, Control_c, 0, 67, 11
2, 88513, Control_c, 0, 67, 0
2, 88519, Note_on_c, 0, 64, 63
2, 88612, Note_on_c, 0, 50, 51
2, 88612, Note_on_c, 0, 66, 63
2, 88654, Note_on_c, 0, 50, 0
2, 88663, Note_on_c, 0, 64, 0
2, 88728, Note_on_c, 0, 66, 0
2, 88778, Note_on_c, 0, 62, 55
2, 88783, Note_on_c, 0, 54, 54
2, 88828, Note_on_c, 0, 54, 0
2, 88850, Note_on_c, 0, 62, 0
2, 88860, Note_on_c, 0, 64, 63
2, 88917, Note_on_c, 0, 50, 61
2, 88919, Note_on_c, 0, 64, 0
2, 88925, Note_on_c, 0, 66, 62
2, 88953, Note_on_c, 0, 66, 0
2, 88965, Note_on_c, 0, 50, 0
2, 88997, Note_on_c, 0, 67, 69
2, 89076, Note_on_c, 0, 67, 0
2, 89079, Note_on_c, 0, 47, 56
2, 89085, Note_on_c, 0, 74, 66
2, 89107, Note_on_c, 0, 69, 52
2, 89123, Note_on_c, 0, 47, 0
2, 89198, Note_on_c, 0, 74, 0
2, 89217, Note_on_c, 0, 69, 0
2, 89239, Note_on_c, 0, 50, 65
2, 89257, Note_on_c, 0, 67, 60
2, 89274, Note_on_c, 0, 50, 0
2, 89301, Note_on_c, 0, 67, 0
2, 89325, Note_on_c, 0, 66, 67
2, 89385, Note_on_c, 0, 47, 60
2, 89398, Note_on_c, 0, 64, 65
2, 89402, Note_on_c, 0, 66, 0
2, 89418, Note_on_c, 0, 47, 0
2, 89429, Note_on_c, 0, 64, 0
2, 89464, Note_on_c, 0, 62, 59
2, 89532, Note_on_c, 0, 52, 65
2, 89543, Note_on_c, 0, 71, 72
2, 89547, Note_on_c, 0, 62, 0
2, 89550, Note_on_c, 0, 67, 64
2, 89586, Note_on_c, 0, 52, 0
2, 89647, Note_on_c, 0, 67, 0
2, 89684, Note_on_c, 0, 71, 0
2, 89697, Note_on_c, 0, 55, 61
2, 89700, Note_on_c, 0, 64, 66
2, 89732, Note_on_c, 0, 55, 0
2, 89755, Note_on_c, 0, 64, 0
2, 89771, Note_on_c, 0, 66, 63
2, 89806, Note_on_c, 0, 66, 0
2, 89848, Note_on_c, 0, 52, 62
2, 89851, Note_on_c, 0, 67, 76
2, 89879, Note_on_c, 0, 52, 0
2, 89914, Control_c, 0, 64, 8
2, 89916, Note_on_c, 0, 67, 0
2, 89917, Note_on_c, 0, 69, 74
2, 89990, Control_c, 0, 64, 10
2, 89992, Note_on_c, 0, 49, 47
2, 89999, Note_on_c, 0, 76, 75
2, 90022, Note_on_c, 0, 69, 0
2, 90024, Note_on_c, 0, 71, 65
2, 90042, Note_on_c, 0, 49, 0
2, 90126, Note_on_c, 0, 71, 0
2, 90155, Note_on_c, 0, 52, 66
2, 90159, Note_on_c, 0, 69, 60
2, 90190, Note_on_c, 0, 52, 0
2, 90191, Note_on_c, 0, 69, 0
2, 90218, Control_c, 0, 64, 8
2, 90218, Note_on_c, 0, 67, 67
2, 90233, Control_c, 0, 64, 0
2, 90269, Note_on_c, 0, 67, 0
2, 90293, Note_on_c, 0, 49, 68
2, 90297, Note_on_c, 0, 66, 68
2, 90326, Note_on_c, 0, 49, 0
2, 90332, Note_on_c, 0, 66, 0
2, 90370, Note_on_c, 0, 64, 70
2, 90452, Note_on_c, 0, 69, 67
2, 90468, Note_on_c, 0, 54, 57
2, 90482, Note_on_c, 0, 64, 0
2, 90615, Note_on_c, 0, 54, 0
2, 90624, Note_on_c, 0, 50, 59
2, 90705, Note_on_c, 0, 50, 0
2, 90709, Note_on_c, 0, 52, 63
2, 90753, Note_on_c, 0, 76, 0
2, 90757, Note_on_c, 0, 69, 0
2, 90772, Note_on_c, 0, 67, 65
2, 90788, Note_on_c, 0, 54, 62
2, 90789, Note_on_c, 0, 52, 0
2, 90861, Note_on_c, 0, 55, 70
2, 90865, Note_on_c, 0, 54, 0
2, 90931, Note_on_c, 0, 74, 69
2, 90941, Note_on_c, 0, 55, 0
2, 90943, Note_on_c, 0, 66, 63
2, 90949, Note_on_c, 0, 57, 57
2, 91050, Note_on_c, 0, 67, 0
2, 91087, Note_on_c, 0, 57, 0
2, 91090, Note_on_c, 0, 55, 69
2, 91115, Note_on_c, 0, 74, 0
2, 91156, Note_on_c, 0, 55, 0
2, 91161, Note_on_c, 0, 54, 60
2, 91236, Note_on_c, 0, 52, 70
2, 91244, Note_on_c, 0, 54, 0
2, 91245, Note_on_c, 0, 72, 77
2, 91326, Note_on_c, 0, 50, 62
2, 91326, Note_on_c, 0, 52, 0
2, 91393, Note_on_c, 0, 71, 75
2, 91414, Note_on_c, 0, 50, 0
2, 91415, Note_on_c, 0, 55, 64
2, 91427, Note_on_c, 0, 72, 0
2, 91561, Note_on_c, 0, 52, 69
2, 91561, Note_on_c, 0, 55, 0
2, 91623, Note_on_c, 0, 54, 66
2, 91642, Note_on_c, 0, 52, 0
2, 91695, Note_on_c, 0, 69, 69
2, 91701, Note_on_c, 0, 55, 72
2, 91705, Note_on_c, 0, 66, 0
2, 91724, Note_on_c, 0, 54, 0
2, 91772, Note_on_c, 0, 71, 0
2, 91778, Note_on_c, 0, 55, 0
2, 91783, Note_on_c, 0, 57, 67
2, 91852, Note_on_c, 0, 57, 0
2, 91852, Note_on_c, 0, 67, 68
2, 91866, Note_on_c, 0, 64, 57
2, 91869, Note_on_c, 0, 69, 0
2, 91876, Note_on_c, 0, 59, 57
2, 91985, Note_on_c, 0, 64, 0
2, 91994, Note_on_c, 0, 59, 0
2, 92013, Note_on_c, 0, 57, 59
2, 92091, Note_on_c, 0, 57, 0
2, 92108, Note_on_c, 0, 55, 57
2, 92165, Note_on_c, 0, 55, 0
2, 92176, Note_on_c, 0, 62, 62
2, 92193, Note_on_c, 0, 54, 51
2, 92257, Note_on_c, 0, 54, 0
2, 92269, Note_on_c, 0, 52, 55
2, 92341, Note_on_c, 0, 62, 0
2, 92344, Note_on_c, 0, 52, 0
2, 92355, Note_on_c, 0, 61, 61
2, 92377, Note_on_c, 0, 57, 44
2, 92433, Control_c, 0, 64, 41
2, 92444, Note_on_c, 0, 57, 0
2, 92447, Control_c, 0, 64, 54
2, 92463, Control_c, 0, 64, 61
2, 92478, Control_c, 0, 64, 65
2, 92493, Control_c, 0, 64, 68
2, 92493, Note_on_c, 0, 61, 0
2, 92508, Control_c, 0, 64, 72
2, 92512, Note_on_c, 0, 67, 0
2, 92523, Control_c, 0, 64, 77
2, 92539, Control_c, 0, 64, 81
2, 92543, Note_on_c, 0, 57, 65
2, 92554, Control_c, 0, 64, 84
2, 92570, Control_c, 0, 64, 85
2, 92585, Control_c, 0, 64, 83
2, 92600, Control_c, 0, 64, 80
2, 92603, Note_on_c, 0, 57, 0
2, 92611, Note_on_c, 0, 59, 65
2, 92616, Control_c, 0, 64, 77
2, 92631, Control_c, 0, 64, 75
2, 92645, Control_c, 0, 64, 72
2, 92661, Control_c, 0, 64, 68
2, 92664, Note_on_c, 0, 45, 56
2, 92676, Control_c, 0, 64, 64
2, 92679, Note_on_c, 0, 61, 71
2, 92688, Note_on_c, 0, 59, 0
2, 92692, Control_c, 0, 64, 57
2, 92698, Note_on_c, 0, 45, 0
2, 92706, Control_c, 0, 64, 49
2, 92709, Note_on_c, 0, 61, 0
2, 92721, Control_c, 0, 64, 36
2, 92737, Control_c, 0, 64, 10
2, 92752, Control_c, 0, 64, 0
2, 92755, Note_on_c, 0, 62, 67
2, 92819, Note_on_c, 0, 45, 55
2, 92822, Note_on_c, 0, 62, 0
2, 92824, Note_on_c, 0, 67, 70
2, 92832, Note_on_c, 0, 64, 61
2, 92961, Note_on_c, 0, 64, 0
2, 92995, Note_on_c, 0, 61, 70
2, 93019, Note_on_c, 0, 45, 0
2, 93028, Note_on_c, 0, 61, 0
2, 93137, Note_on_c, 0, 45, 64
2, 93139, Note_on_c, 0, 64, 76
2, 93180, Note_on_c, 0, 45, 0
2, 93181, Note_on_c, 0, 67, 0
2, 93183, Note_on_c, 0, 64, 0
2, 93284, Note_on_c, 0, 45, 61
2, 93290, Note_on_c, 0, 67, 68
2, 93291, Note_on_c, 0, 73, 72
2, 93352, Note_on_c, 0, 67, 0
2, 93444, Note_on_c, 0, 64, 74
2, 93507, Note_on_c, 0, 64, 0
2, 93591, Note_on_c, 0, 67, 81
2, 93641, Note_on_c, 0, 67, 0
2, 93652, Note_on_c, 0, 73, 0
2, 93746, Note_on_c, 0, 76, 79
2, 93753, Note_on_c, 0, 45, 0
2, 93759, Note_on_c, 0, 73, 74
2, 93810, Note_on_c, 0, 73, 0
2, 93906, Note_on_c, 0, 67, 78
2, 93957, Note_on_c, 0, 67, 0
2, 93981, Note_on_c, 0, 52, 61
2, 94052, Note_on_c, 0, 73, 73
2, 94062, Note_on_c, 0, 54, 68
2, 94071, Note_on_c, 0, 52, 0
2, 94109, Note_on_c, 0, 73, 0
2, 94132, Note_on_c, 0, 55, 76
2, 94141, Note_on_c, 0, 54, 0
2, 94200, Note_on_c, 0, 57, 73
2, 94200, Note_on_c, 0, 66, 71
2, 94218, Note_on_c, 0, 55, 0
2, 94254, Note_on_c, 0, 66, 0
2, 94362, Note_on_c, 0, 74, 77
2, 94364, Control_c, 0, 64, 38
2, 94379, Note_on_c, 0, 76, 0
2, 94380, Control_c, 0, 64, 53
2, 94394, Control_c, 0, 64, 59
2, 94410, Control_c, 0, 64, 63
2, 94425, Control_c, 0, 64, 65
2, 94433, Note_on_c, 0, 73, 74
2, 94447, Control_c, 0, 64, 69
2, 94463, Control_c, 0, 64, 73
2, 94472, Note_on_c, 0, 74, 0
2, 94477, Control_c, 0, 64, 77
2, 94493, Control_c, 0, 64, 80
2, 94498, Note_on_c, 0, 45, 64
2, 94502, Note_on_c, 0, 71, 75
2, 94509, Control_c, 0, 64, 81
2, 94524, Control_c, 0, 64, 80
2, 94536, Note_on_c, 0, 45, 0
2, 94540, Control_c, 0, 64, 76
2, 94542, Note_on_c, 0, 57, 0
2, 94542, Note_on_c, 0, 73, 0
2, 94555, Control_c, 0, 64, 70
2, 94557, Note_on_c, 0, 69, 60
2, 94557, Note_on_c, 0, 71, 0
2, 94570, Control_c, 0, 64, 61
2, 94578, Note_on_c, 0, 69, 0
2, 94585, Control_c, 0, 64, 53
2, 94600, Control_c, 0, 64, 46
2, 94616, Control_c, 0, 64, 39
2, 94630, Control_c, 0, 64, 30
2, 94645, Control_c, 0, 64, 12
2, 94652, Note_on_c, 0, 45, 60
2, 94661, Control_c, 0, 64, 0
2, 94663, Note_on_c, 0, 68, 77
2, 94667, Note_on_c, 0, 62, 68
2, 94704, Note_on_c, 0, 68, 0
2, 94816, Note_on_c, 0, 71, 70
2, 94842, Note_on_c, 0, 45, 0
2, 94873, Note_on_c, 0, 71, 0
2, 94945, Note_on_c, 0, 45, 55
2, 94954, Note_on_c, 0, 68, 72
2, 94982, Note_on_c, 0, 45, 0
2, 94991, Note_on_c, 0, 62, 0
2, 94995, Note_on_c, 0, 68, 0
2, 95093, Note_on_c, 0, 45, 49
2, 95103, Note_on_c, 0, 62, 62
2, 95111, Note_on_c, 0, 59, 56
2, 95182, Note_on_c, 0, 62, 0
2, 95193, Control_c, 0, 64, 8
2, 95216, Control_c, 0, 64, 26
2, 95231, Control_c, 0, 64, 37
2, 95245, Control_c, 0, 64, 42
2, 95252, Note_on_c, 0, 68, 71
2, 95261, Control_c, 0, 64, 45
2, 95276, Control_c, 0, 64, 46
2, 95327, Note_on_c, 0, 68, 0
2, 95334, Note_on_c, 0, 59, 0
2, 95368, Control_c, 0, 64, 45
2, 95384, Control_c, 0, 64, 44
2, 95384, Control_c, 0, 67, 11
2, 95398, Control_c, 0, 64, 41
2, 95398, Control_c, 0, 67, 16
2, 95399, Note_on_c, 0, 62, 66
2, 95414, Control_c, 0, 64, 37
2, 95414, Control_c, 0, 67, 23
2, 95428, Note_on_c, 0, 62, 0
2, 95429, Control_c, 0, 64, 30
2, 95429, Control_c, 0, 67, 30
2, 95444, Control_c, 0, 64, 23
2, 95444, Control_c, 0, 67, 35
2, 95460, Control_c, 0, 64, 17
2, 95460, Control_c, 0, 67, 39
2, 95474, Control_c, 0, 64, 12
2, 95474, Control_c, 0, 67, 42
2, 95490, Control_c, 0, 64, 0
2, 95490, Control_c, 0, 67, 45
2, 95505, Control_c, 0, 67, 50
2, 95520, Control_c, 0, 67, 56
2, 95536, Control_c, 0, 67, 62
2, 95550, Control_c, 0, 67, 67
2, 95553, Note_on_c, 0, 56, 59
2, 95561, Note_on_c, 0, 59, 61
2, 95565, Control_c, 0, 67, 68
2, 95581, Control_c, 0, 67, 69
2, 95636, Note_on_c, 0, 59, 0
2, 95642, Control_c, 0, 67, 68
2, 95658, Control_c, 0, 67, 67
2, 95684, Note_on_c, 0, 62, 64
2, 95703, Control_c, 0, 67, 66
2, 95707, Note_on_c, 0, 56, 0
2, 95718, Control_c, 0, 67, 66
2, 95734, Control_c, 0, 67, 65
2, 95748, Control_c, 0, 67, 64
2, 95763, Control_c, 0, 67, 63
2, 95794, Control_c, 0, 67, 62
2, 95808, Control_c, 0, 67, 61
2, 95812, Note_on_c, 0, 62, 0
2, 95824, Control_c, 0, 67, 60
2, 95830, Note_on_c, 0, 59, 66
2, 95839, Control_c, 0, 67, 60
2, 95855, Control_c, 0, 67, 59
2, 95870, Control_c, 0, 67, 58
2, 95871, Note_on_c, 0, 59, 0
2, 95884, Control_c, 0, 67, 57
2, 95900, Control_c, 0, 67, 57
2, 95915, Control_c, 0, 67, 54
2, 95931, Control_c, 0, 67, 51
2, 95946, Control_c, 0, 67, 49
2, 95960, Control_c, 0, 67, 47
2, 95963, Note_on_c, 0, 45, 0
2, 95984, Control_c, 0, 67, 46
2, 95985, Note_on_c, 0, 61, 61
2, 95988, Note_on_c, 0, 57, 52
2, 95999, Control_c, 0, 67, 44
2, 96014, Control_c, 0, 67, 41
2, 96029, Control_c, 0, 67, 37
2, 96044, Control_c, 0, 67, 33
2, 96060, Control_c, 0, 67, 31
2, 96075, Control_c, 0, 67, 29
2, 96090, Control_c, 0, 67, 28
2, 96105, Control_c, 0, 67, 27
2, 96120, Control_c, 0, 67, 25
2, 96137, Control_c, 0, 67, 21
2, 96145, Note_on_c, 0, 59, 62
2, 96152, Control_c, 0, 67, 16
2, 96167, Control_c, 0, 67, 12
2, 96178, Note_on_c, 0, 61, 0
2, 96182, Control_c, 0, 67, 0
2, 96183, Note_on_c, 0, 57, 0
2, 96208, Note_on_c, 0, 42, 61
2, 96245, Note_on_c, 0, 59, 0
2, 96278, Note_on_c, 0, 42, 0
2, 96284, Note_on_c, 0, 43, 62
2, 96284, Note_on_c, 0, 57, 56
2, 96340, Note_on_c, 0, 43, 0
2, 96351, Note_on_c, 0, 45, 66
2, 96427, Note_on_c, 0, 47, 61
2, 96429, Note_on_c, 0, 45, 0
2, 96434, Note_on_c, 0, 62, 59
2, 96445, Note_on_c, 0, 54, 55
2, 96450, Note_on_c, 0, 57, 0
2, 96475, Note_on_c, 0, 47, 0
2, 96581, Note_on_c, 0, 54, 0
2, 96590, Note_on_c, 0, 45, 71
2, 96617, Note_on_c, 0, 62, 0
2, 96664, Note_on_c, 0, 45, 0
2, 96750, Note_on_c, 0, 67, 65
2, 96758, Note_on_c, 0, 43, 54
2, 96770, Note_on_c, 0, 64, 59
2, 96853, Note_on_c, 0, 43, 0
2, 96902, Control_c, 0, 64, 13
2, 96902, Note_on_c, 0, 45, 48
2, 96911, Note_on_c, 0, 67, 0
2, 96917, Control_c, 0, 64, 33
2, 96920, Note_on_c, 0, 61, 64
2, 96931, Control_c, 0, 64, 44
2, 96947, Control_c, 0, 64, 50
2, 96957, Note_on_c, 0, 64, 0
2, 96963, Control_c, 0, 64, 55
2, 96979, Control_c, 0, 64, 58
2, 96994, Control_c, 0, 64, 60
2, 97009, Control_c, 0, 64, 61
2, 97023, Note_on_c, 0, 45, 0
2, 97024, Control_c, 0, 64, 62
2, 97039, Control_c, 0, 64, 63
2, 97070, Control_c, 0, 64, 62
2, 97083, Note_on_c, 0, 66, 61
2, 97084, Control_c, 0, 64, 61
2, 97086, Note_on_c, 0, 61, 0
2, 97100, Control_c, 0, 64, 60
2, 97115, Control_c, 0, 64, 58
2, 97129, Note_on_c, 0, 66, 0
2, 97130, Control_c, 0, 64, 55
2, 97146, Control_c, 0, 64, 49
2, 97160, Control_c, 0, 64, 42
2, 97165, Note_on_c, 0, 64, 60
2, 97175, Control_c, 0, 64, 33
2, 97191, Control_c, 0, 64, 25
2, 97205, Control_c, 0, 64, 12
2, 97221, Control_c, 0, 64, 0
2, 97221, Note_on_c, 0, 57, 60
2, 97234, Note_on_c, 0, 62, 54
2, 97239, Note_on_c, 0, 64, 0
2, 97245, Note_on_c, 0, 66, 64
2, 97277, Note_on_c, 0, 57, 0
2, 97398, Note_on_c, 0, 57, 56
2, 97400, Note_on_c, 0, 64, 64
2, 97422, Note_on_c, 0, 62, 0
2, 97532, Control_c, 0, 64, 13
2, 97548, Control_c, 0, 64, 22
2, 97554, Note_on_c, 0, 64, 0
2, 97563, Control_c, 0, 64, 27
2, 97563, Note_on_c, 0, 61, 64
2, 97575, Note_on_c, 0, 66, 0
2, 97579, Control_c, 0, 64, 29
2, 97594, Control_c, 0, 64, 30
2, 97608, Control_c, 0, 64, 31
2, 97608, Note_on_c, 0, 61, 0
2, 97624, Control_c, 0, 64, 32
2, 97631, Note_on_c, 0, 57, 0
2, 97639, Control_c, 0, 64, 34
2, 97647, Note_on_c, 0, 59, 57
2, 97654, Control_c, 0, 64, 35
2, 97670, Control_c, 0, 64, 36
2, 97685, Control_c, 0, 64, 37
2, 97700, Control_c, 0, 64, 34
2, 97704, Note_on_c, 0, 45, 55
2, 97715, Control_c, 0, 64, 0
2, 97722, Note_on_c, 0, 59, 0
2, 97722, Note_on_c, 0, 69, 59
2, 97734, Note_on_c, 0, 61, 55
2, 97807, Control_c, 0, 64, 39
2, 97810, Note_on_c, 0, 61, 0
2, 97823, Control_c, 0, 64, 54
2, 97838, Control_c, 0, 64, 60
2, 97852, Control_c, 0, 64, 63
2, 97863, Note_on_c, 0, 45, 0
2, 97868, Control_c, 0, 64, 65
2, 97883, Control_c, 0, 64, 67
2, 97897, Note_on_c, 0, 50, 52
2, 97899, Control_c, 0, 64, 70
2, 97910, Note_on_c, 0, 66, 60
2, 97914, Control_c, 0, 64, 72
2, 97928, Control_c, 0, 64, 73
2, 97941, Note_on_c, 0, 69, 0
2, 97972, Note_on_c, 0, 66, 0
2, 97974, Control_c, 0, 64, 72
2, 97984, Note_on_c, 0, 50, 0
2, 97990, Control_c, 0, 64, 70
2, 98004, Control_c, 0, 64, 68
2, 98020, Control_c, 0, 64, 65
2, 98033, Note_on_c, 0, 69, 62
2, 98035, Control_c, 0, 64, 61
2, 98047, Note_on_c, 0, 50, 34
2, 98049, Control_c, 0, 64, 55
2, 98065, Control_c, 0, 64, 50
2, 98079, Note_on_c, 0, 69, 0
2, 98080, Control_c, 0, 64, 44
2, 98095, Control_c, 0, 64, 34
2, 98099, Note_on_c, 0, 71, 67
2, 98111, Control_c, 0, 64, 12
2, 98125, Control_c, 0, 64, 0
2, 98163, Note_on_c, 0, 71, 0
2, 98170, Note_on_c, 0, 73, 70
2, 98201, Note_on_c, 0, 73, 0
2, 98230, Note_on_c, 0, 50, 0
2, 98236, Note_on_c, 0, 57, 60
2, 98242, Note_on_c, 0, 74, 79
2, 98262, Note_on_c, 0, 57, 0
2, 98312, Note_on_c, 0, 74, 0
2, 98320, Note_on_c, 0, 76, 74
2, 98384, Note_on_c, 0, 62, 56
2, 98403, Note_on_c, 0, 76, 0
2, 98409, Note_on_c, 0, 78, 83
2, 98412, Note_on_c, 0, 62, 0
2, 98423, Note_on_c, 0, 61, 67
2, 98464, Note_on_c, 0, 61, 0
2, 98490, Note_on_c, 0, 62, 62
2, 98492, Note_on_c, 0, 76, 71
2, 98502, Note_on_c, 0, 78, 0
2, 98534, Note_on_c, 0, 76, 0
2, 98564, Note_on_c, 0, 74, 73
2, 98638, Note_on_c, 0, 73, 74
2, 98639, Note_on_c, 0, 74, 0
2, 98714, Note_on_c, 0, 71, 74
2, 98743, Note_on_c, 0, 73, 0
2, 98761, Note_on_c, 0, 71, 0
2, 98789, Note_on_c, 0, 69, 74
2, 98862, Note_on_c, 0, 68, 84
2, 98894, Note_on_c, 0, 69, 0
2, 98939, Note_on_c, 0, 68, 0
2, 98990, Note_on_c, 0, 62, 0
2, 99019, Note_on_c, 0, 64, 62
2, 99021, Note_on_c, 0, 71, 76
2, 99086, Note_on_c, 0, 71, 0
2, 99098, Note_on_c, 0, 64, 0
2, 99105, Note_on_c, 0, 62, 64
2, 99156, Note_on_c, 0, 62, 0
2, 99161, Note_on_c, 0, 61, 72
2, 99184, Note_on_c, 0, 76, 81
2, 99239, Note_on_c, 0, 59, 71
2, 99241, Note_on_c, 0, 61, 0
2, 99253, Note_on_c, 0, 76, 0
2, 99331, Note_on_c, 0, 76, 81
2, 99354, Note_on_c, 0, 58, 63
2, 99384, Note_on_c, 0, 59, 0
2, 99462, Note_on_c, 0, 58, 0
2, 99492, Note_on_c, 0, 73, 63
2, 99499, Note_on_c, 0, 59, 69
2, 99527, Note_on_c, 0, 73, 0
2, 99561, Note_on_c, 0, 59, 0
2, 99579, Note_on_c, 0, 58, 70
2, 99634, Note_on_c, 0, 58, 0
2, 99643, Note_on_c, 0, 70, 71
2, 99653, Note_on_c, 0, 56, 64
2, 99676, Note_on_c, 0, 76, 0
2, 99717, Note_on_c, 0, 54, 63
2, 99728, Note_on_c, 0, 56, 0
2, 99779, Note_on_c, 0, 70, 0
2, 99800, Note_on_c, 0, 59, 64
2, 99801, Note_on_c, 0, 66, 68
2, 99809, Note_on_c, 0, 54, 0
2, 99912, Control_c, 0, 64, 31
2, 99927, Control_c, 0, 64, 43
2, 99943, Control_c, 0, 64, 51
2, 99957, Control_c, 0, 64, 57
2, 99972, Control_c, 0, 64, 61
2, 99972, Note_on_c, 0, 68, 71
2, 99982, Note_on_c, 0, 66, 0
2, 99988, Control_c, 0, 64, 64
2, 100003, Control_c, 0, 64, 66
2, 100018, Control_c, 0, 64, 68
2, 100033, Control_c, 0, 64, 69
2, 100051, Note_on_c, 0, 70, 68
2, 100058, Note_on_c, 0, 68, 0
2, 100064, Control_c, 0, 64, 68
2, 100079, Control_c, 0, 64, 66
2, 100088, Note_on_c, 0, 70, 0
2, 100094, Control_c, 0, 64, 64
2, 100100, Note_on_c, 0, 47, 59
2, 100110, Control_c, 0, 64, 60
2, 100113, Note_on_c, 0, 71, 71
2, 100118, Note_on_c, 0, 59, 0
2, 100125, Control_c, 0, 64, 56
2, 100128, Note_on_c, 0, 47, 0
2, 100141, Control_c, 0, 64, 52
2, 100155, Control_c, 0, 64, 45
2, 100170, Control_c, 0, 64, 35
2, 100186, Control_c, 0, 64, 22
2, 100186, Note_on_c, 0, 73, 79
2, 100197, Note_on_c, 0, 71, 0
2, 100201, Control_c, 0, 64, 0
2, 100259, Note_on_c, 0, 59, 58
2, 100259, Note_on_c, 0, 73, 0
2, 100265, Note_on_c, 0, 74, 78
2, 100298, Note_on_c, 0, 59, 0
2, 100321, Note_on_c, 0, 58, 61
2, 100342, Note_on_c, 0, 73, 75
2, 100379, Note_on_c, 0, 74, 0
2, 100386, Note_on_c, 0, 58, 0
2, 100409, Note_on_c, 0, 71, 77
2, 100417, Note_on_c, 0, 59, 53
2, 100443, Note_on_c, 0, 73, 0
2, 100472, Note_on_c, 0, 71, 0
2, 100485, Note_on_c, 0, 69, 68
2, 100564, Note_on_c, 0, 67, 78
2, 100567, Note_on_c, 0, 69, 0
2, 100644, Note_on_c, 0, 66, 79
2, 100651, Note_on_c, 0, 67, 0
2, 100718, Note_on_c, 0, 64, 83
2, 100745, Note_on_c, 0, 66, 0
2, 100786, Note_on_c, 0, 64, 0
2, 100847, Note_on_c, 0, 59, 0
2, 100874, Note_on_c, 0, 60, 56
2, 100878, Note_on_c, 0, 67, 80
2, 100929, Note_on_c, 0, 60, 0
2, 100932, Note_on_c, 0, 67, 0
2, 100955, Note_on_c, 0, 59, 69
2, 100995, Note_on_c, 0, 59, 0
2, 101018, Note_on_c, 0, 57, 65
2, 101034, Note_on_c, 0, 72, 82
2, 101090, Note_on_c, 0, 72, 0
2, 101094, Note_on_c, 0, 57, 0
2, 101095, Note_on_c, 0, 55, 67
2, 101179, Note_on_c, 0, 72, 76
2, 101203, Note_on_c, 0, 54, 56
2, 101238, Note_on_c, 0, 55, 0
2, 101316, Note_on_c, 0, 54, 0
2, 101357, Note_on_c, 0, 69, 62
2, 101360, Note_on_c, 0, 55, 63
2, 101405, Note_on_c, 0, 55, 0
2, 101412, Note_on_c, 0, 69, 0
2, 101439, Note_on_c, 0, 54, 53
2, 101476, Note_on_c, 0, 54, 0
2, 101503, Note_on_c, 0, 66, 67
2, 101516, Note_on_c, 0, 52, 59
2, 101576, Note_on_c, 0, 52, 0
2, 101578, Note_on_c, 0, 50, 63
2, 101593, Note_on_c, 0, 66, 0
2, 101663, Note_on_c, 0, 55, 58
2, 101664, Note_on_c, 0, 72, 0
2, 101665, Note_on_c, 0, 62, 65
2, 101678, Note_on_c, 0, 50, 0
2, 101812, Note_on_c, 0, 62, 0
2, 101821, Note_on_c, 0, 64, 68
2, 101892, Note_on_c, 0, 66, 69
2, 101899, Note_on_c, 0, 64, 0
2, 101928, Note_on_c, 0, 66, 0
2, 101968, Note_on_c, 0, 67, 70
2, 101975, Note_on_c, 0, 43, 52
2, 101987, Note_on_c, 0, 55, 0
2, 102004, Note_on_c, 0, 43, 0
2, 102030, Note_on_c, 0, 67, 0
2, 102038, Note_on_c, 0, 69, 68
2, 102113, Note_on_c, 0, 69, 0
2, 102127, Note_on_c, 0, 71, 68
2, 102134, Note_on_c, 0, 55, 46
2, 102164, Note_on_c, 0, 55, 0
2, 102176, Note_on_c, 0, 54, 56
2, 102211, Note_on_c, 0, 69, 61
2, 102238, Note_on_c, 0, 71, 0
2, 102246, Note_on_c, 0, 69, 0
2, 102254, Note_on_c, 0, 54, 0
2, 102256, Note_on_c, 0, 55, 49
2, 102288, Note_on_c, 0, 67, 68
2, 102357, Note_on_c, 0, 67, 0
2, 102360, Note_on_c, 0, 66, 73
2, 102442, Note_on_c, 0, 64, 71
2, 102466, Note_on_c, 0, 66, 0
2, 102476, Note_on_c, 0, 64, 0
2, 102517, Note_on_c, 0, 62, 64
2, 102586, Note_on_c, 0, 61, 70
2, 102608, Note_on_c, 0, 62, 0
2, 102719, Note_on_c, 0, 55, 0
2, 102745, Note_on_c, 0, 57, 58
2, 102746, Note_on_c, 0, 64, 72
2, 102772, Note_on_c, 0, 61, 0
2, 102794, Note_on_c, 0, 64, 0
2, 102812, Note_on_c, 0, 57, 0
2, 102828, Note_on_c, 0, 55, 61
2, 102875, Note_on_c, 0, 55, 0
2, 102898, Note_on_c, 0, 54, 65
2, 102909, Note_on_c, 0, 61, 69
2, 102909, Note_on_c, 0, 69, 66
2, 102947, Note_on_c, 0, 61, 0
2, 102962, Note_on_c, 0, 69, 0
2, 102987, Note_on_c, 0, 52, 67
2, 103005, Note_on_c, 0, 54, 0
2, 103060, Note_on_c, 0, 66, 74
2, 103066, Note_on_c, 0, 52, 0
2, 103066, Note_on_c, 0, 62, 63
2, 103075, Note_on_c, 0, 50, 64
2, 103149, Note_on_c, 0, 66, 0
2, 103213, Note_on_c, 0, 50, 0
2, 103214, Note_on_c, 0, 69, 75
2, 103218, Note_on_c, 0, 52, 65
2, 103256, Note_on_c, 0, 62, 0
2, 103267, Note_on_c, 0, 69, 0
2, 103301, Note_on_c, 0, 54, 70
2, 103314, Note_on_c, 0, 52, 0
2, 103371, Note_on_c, 0, 74, 78
2, 103372, Note_on_c, 0, 55, 76
2, 103374, Note_on_c, 0, 54, 0
2, 103374, Note_on_c, 0, 66, 79
2, 103422, Note_on_c, 0, 55, 0
2, 103430, Note_on_c, 0, 66, 0
2, 103433, Note_on_c, 0, 74, 0
2, 103459, Note_on_c, 0, 57, 67
2, 103543, Note_on_c, 0, 67, 80
2, 103552, Note_on_c, 0, 59, 71
2, 103576, Note_on_c, 0, 57, 0
2, 103724, Note_on_c, 0, 69, 80
2, 103732, Note_on_c, 0, 57, 59
2, 103767, Note_on_c, 0, 67, 0
2, 103769, Note_on_c, 0, 59, 0
2, 103829, Note_on_c, 0, 69, 0
2, 103894, Note_on_c, 0, 55, 58
2, 103895, Note_on_c, 0, 71, 74
2, 103896, Note_on_c, 0, 76, 76
2, 103931, Note_on_c, 0, 57, 0
2, 103980, Note_on_c, 0, 76, 0
2, 104022, Note_on_c, 0, 71, 0
2, 104075, Note_on_c, 0, 57, 51
2, 104082, Note_on_c, 0, 69, 63
2, 104086, Note_on_c, 0, 66, 72
2, 104127, Note_on_c, 0, 55, 0
2, 104203, Note_on_c, 0, 66, 0
2, 104280, Note_on_c, 0, 74, 82
2, 104306, Note_on_c, 0, 69, 0
2, 104376, Control_c, 0, 64, 22
2, 104392, Control_c, 0, 64, 37
2, 104406, Control_c, 0, 64, 46
2, 104430, Control_c, 0, 64, 54
2, 104441, Note_on_c, 0, 57, 0
2, 104445, Control_c, 0, 64, 59
2, 104460, Control_c, 0, 64, 62
2, 104475, Control_c, 0, 64, 65
2, 104480, Note_on_c, 0, 45, 53
2, 104483, Note_on_c, 0, 73, 71
2, 104490, Control_c, 0, 64, 68
2, 104495, Note_on_c, 0, 64, 63
2, 104505, Note_on_c, 0, 67, 61
2, 104506, Control_c, 0, 64, 72
2, 104513, Note_on_c, 0, 74, 0
2, 104521, Control_c, 0, 64, 77
2, 104530, Note_on_c, 0, 45, 0
2, 104535, Control_c, 0, 64, 83
2, 104551, Control_c, 0, 64, 90
2, 104566, Control_c, 0, 64, 97
2, 104581, Control_c, 0, 64, 103
2, 104596, Control_c, 0, 64, 104
2, 104611, Control_c, 0, 64, 102
2, 104627, Control_c, 0, 64, 98
2, 104642, Control_c, 0, 64, 93
2, 104656, Control_c, 0, 64, 89
2, 104668, Note_on_c, 0, 64, 0
2, 104672, Control_c, 0, 64, 85
2, 104687, Control_c, 0, 64, 81
2, 104703, Control_c, 0, 64, 76
2, 104715, Note_on_c, 0, 38, 54
2, 104717, Note_on_c, 0, 74, 75
2, 104718, Control_c, 0, 64, 70
2, 104732, Control_c, 0, 64, 64
2, 104748, Control_c, 0, 64, 56
2, 104763, Control_c, 0, 64, 45
2, 104779, Control_c, 0, 64, 0
2, 104779, Note_on_c, 0, 67, 0
2, 104781, Note_on_c, 0, 73, 0
2, 104960, Note_on_c, 0, 69, 73
2, 105231, Note_on_c, 0, 66, 72
2, 105646, Note_on_c, 0, 62, 63
2, 107092, Note_on_c, 0, 38, 0
2, 107094, Note_on_c, 0, 74, 0
2, 107181, Note_on_c, 0, 62, 0
2, 107185, Note_on_c, 0, 66, 0
2, 107194, Note_on_c, 0, 69, 0
2, 108723, Control_c, 0, 64, 26
2, 108738, Control_c, 0, 64, 41
2, 108754, Control_c, 0, 64, 47
2, 108769, Control_c, 0, 64, 50
2, 108785, Control_c, 0, 64, 51
2, 108799, Control_c, 0, 64, 51
2, 108830, Control_c, 0, 64, 52
2, 108966, Control_c, 0, 64, 51
2, 108970,End_track
0, 0, End_of_file
