0, 0, Header, 1, 2, 384
1, 0, Start_track
1, 0, Tempo, 500000
1, 0, Time_signature, 4, 2, 24, 8
1, 1, End_track
2, 0, Start_track
2, 0, Program_c, 0, 0
2, 0, Control_c, 0, 64, 0
2, 0, Control_c, 0, 67, 127
2, 164, Note_on_c, 0, 50, 57
2, 197, Note_on_c, 0, 50, 0
2, 251, Note_on_c, 0, 74, 53
2, 331, Note_on_c, 0, 74, 0
2, 335, Note_on_c, 0, 76, 55
2, 417, Note_on_c, 0, 76, 0
2, 420, Note_on_c, 0, 78, 58
2, 467, Note_on_c, 0, 78, 0
2, 497, Note_on_c, 0, 69, 62
2, 499, Note_on_c, 0, 62, 50
2, 528, Control_c, 0, 67, 117
2, 532, Note_on_c, 0, 62, 0
2, 543, Control_c, 0, 67, 102
2, 559, Control_c, 0, 67, 83
2, 574, Control_c, 0, 67, 63
2, 580, Note_on_c, 0, 78, 60
2, 582, Note_on_c, 0, 69, 0
2, 589, Control_c, 0, 67, 45
2, 604, Control_c, 0, 67, 29
2, 619, Control_c, 0, 67, 22
2, 635, Control_c, 0, 67, 16
2, 649, Control_c, 0, 67, 9
2, 650, Note_on_c, 0, 76, 57
2, 661, Note_on_c, 0, 78, 0
2, 665, Control_c, 0, 67, 0
2, 714, Note_on_c, 0, 76, 0
2, 738, Note_on_c, 0, 74, 51
2, 783, Note_on_c, 0, 74, 0
2, 802, Note_on_c, 0, 54, 50
2, 805, Note_on_c, 0, 81, 63
2, 835, Note_on_c, 0, 54, 0
2, 870, Note_on_c, 0, 81, 0
2, 897, Note_on_c, 0, 74, 56
2, 958, Note_on_c, 0, 74, 0
2, 976, Note_on_c, 0, 76, 48
2, 1041, Note_on_c, 0, 76, 0
2, 1047, Note_on_c, 0, 78, 60
2, 1099, Note_on_c, 0, 78, 0
2, 1124, Note_on_c, 0, 62, 46
2, 1132, Note_on_c, 0, 69, 61
2, 1157, Note_on_c, 0, 62, 0
2, 1215, Note_on_c, 0, 69, 0
2, 1221, Note_on_c, 0, 78, 60
2, 1298, Note_on_c, 0, 76, 56
2, 1306, Note_on_c, 0, 78, 0
2, 1350, Note_on_c, 0, 76, 0
2, 1365, Note_on_c, 0, 74, 54
2, 1419, Note_on_c, 0, 74, 0
2, 1430, Note_on_c, 0, 52, 49
2, 1444, Note_on_c, 0, 79, 62
2, 1462, Note_on_c, 0, 52, 0
2, 1514, Note_on_c, 0, 79, 0
2, 1537, Note_on_c, 0, 76, 50
2, 1603, Note_on_c, 0, 76, 0
2, 1603, Note_on_c, 0, 78, 61
2, 1680, Note_on_c, 0, 79, 54
2, 1686, Note_on_c, 0, 78, 0
2, 1730, Note_on_c, 0, 79, 0
2, 1759, Note_on_c, 0, 71, 52
2, 1765, Note_on_c, 0, 62, 41
2, 1802, Note_on_c, 0, 62, 0
2, 1826, Note_on_c, 0, 74, 54
2, 1833, Note_on_c, 0, 71, 0
2, 1891, Note_on_c, 0, 74, 0
2, 1912, Note_on_c, 0, 73, 57
2, 1969, Note_on_c, 0, 73, 0
2, 1993, Note_on_c, 0, 71, 58
2, 2075, Note_on_c, 0, 71, 0
2, 2086, Note_on_c, 0, 57, 44
2, 2090, Note_on_c, 0, 73, 58
2, 2131, Note_on_c, 0, 57, 0
2, 2149, Note_on_c, 0, 73, 0
2, 2151, Note_on_c, 0, 76, 55
2, 2233, Note_on_c, 0, 78, 62
2, 2242, Note_on_c, 0, 76, 0
2, 2302, Note_on_c, 0, 79, 53
2, 2322, Note_on_c, 0, 78, 0
2, 2360, Note_on_c, 0, 79, 0
2, 2398, Note_on_c, 0, 69, 60
2, 2400, Note_on_c, 0, 61, 48
2, 2435, Note_on_c, 0, 61, 0
2, 2475, Note_on_c, 0, 79, 62
2, 2479, Note_on_c, 0, 69, 0
2, 2547, Note_on_c, 0, 79, 0
2, 2548, Note_on_c, 0, 78, 59
2, 2612, Note_on_c, 0, 78, 0
2, 2622, Note_on_c, 0, 76, 59
2, 2713, Note_on_c, 0, 78, 69
2, 2716, Note_on_c, 0, 76, 0
2, 2731, Note_on_c, 0, 50, 35
2, 2765, Note_on_c, 0, 50, 0
2, 2786, Note_on_c, 0, 78, 0
2, 2799, Note_on_c, 0, 74, 62
2, 2887, Note_on_c, 0, 74, 0
2, 2891, Note_on_c, 0, 76, 62
2, 2960, Note_on_c, 0, 76, 0
2, 2967, Note_on_c, 0, 78, 64
2, 3015, Note_on_c, 0, 78, 0
2, 3055, Note_on_c, 0, 62, 43
2, 3057, Note_on_c, 0, 69, 52
2, 3093, Note_on_c, 0, 62, 0
2, 3128, Note_on_c, 0, 69, 0
2, 3129, Note_on_c, 0, 73, 51
2, 3216, Note_on_c, 0, 73, 0
2, 3218, Note_on_c, 0, 71, 58
2, 3274, Note_on_c, 0, 71, 0
2, 3309, Note_on_c, 0, 69, 51
2, 3367, Note_on_c, 0, 69, 0
2, 3377, Note_on_c, 0, 50, 35
2, 3388, Note_on_c, 0, 71, 60
2, 3422, Note_on_c, 0, 50, 0
2, 3460, Note_on_c, 0, 74, 61
2, 3461, Note_on_c, 0, 71, 0
2, 3543, Note_on_c, 0, 76, 62
2, 3561, Note_on_c, 0, 74, 0
2, 3631, Note_on_c, 0, 76, 0
2, 3631, Note_on_c, 0, 78, 64
2, 3689, Note_on_c, 0, 78, 0
2, 3706, Note_on_c, 0, 62, 51
2, 3714, Note_on_c, 0, 71, 64
2, 3740, Note_on_c, 0, 62, 0
2, 3794, Note_on_c, 0, 81, 65
2, 3800, Note_on_c, 0, 71, 0
2, 3872, Note_on_c, 0, 80, 64
2, 3881, Note_on_c, 0, 81, 0
2, 3939, Note_on_c, 0, 80, 0
2, 3942, Note_on_c, 0, 78, 69
2, 4033, Note_on_c, 0, 50, 57
2, 4033, Note_on_c, 0, 80, 72
2, 4037, Note_on_c, 0, 78, 0
2, 4065, Note_on_c, 0, 50, 0
2, 4095, Note_on_c, 0, 80, 0
2, 4112, Note_on_c, 0, 76, 65
2, 4177, Control_c, 0, 64, 11
2, 4187, Note_on_c, 0, 78, 64
2, 4193, Control_c, 0, 64, 12
2, 4193, Note_on_c, 0, 76, 0
2, 4208, Control_c, 0, 64, 13
2, 4285, Note_on_c, 0, 80, 59
2, 4292, Control_c, 0, 64, 15
2, 4297, Note_on_c, 0, 78, 0
2, 4342, Note_on_c, 0, 80, 0
2, 4365, Note_on_c, 0, 56, 55
2, 4377, Note_on_c, 0, 71, 59
2, 4383, Control_c, 0, 64, 16
2, 4413, Note_on_c, 0, 56, 0
2, 4462, Note_on_c, 0, 74, 56
2, 4465, Note_on_c, 0, 71, 0
2, 4530, Note_on_c, 0, 73, 62
2, 4551, Control_c, 0, 64, 17
2, 4551, Note_on_c, 0, 74, 0
2, 4605, Note_on_c, 0, 73, 0
2, 4614, Note_on_c, 0, 71, 59
2, 4670, Note_on_c, 0, 71, 0
2, 4685, Note_on_c, 0, 49, 50
2, 4698, Note_on_c, 0, 69, 58
2, 4734, Note_on_c, 0, 49, 0
2, 4758, Note_on_c, 0, 69, 0
2, 4765, Note_on_c, 0, 73, 60
2, 4847, Note_on_c, 0, 73, 0
2, 4865, Note_on_c, 0, 74, 57
2, 4941, Note_on_c, 0, 74, 0
2, 4948, Note_on_c, 0, 76, 63
2, 5007, Note_on_c, 0, 76, 0
2, 5028, Note_on_c, 0, 66, 52
2, 5035, Note_on_c, 0, 57, 46
2, 5063, Note_on_c, 0, 57, 0
2, 5100, Note_on_c, 0, 66, 0
2, 5114, Note_on_c, 0, 76, 57
2, 5176, Note_on_c, 0, 76, 0
2, 5182, Note_on_c, 0, 74, 61
2, 5256, Note_on_c, 0, 74, 0
2, 5272, Note_on_c, 0, 73, 59
2, 5338, Note_on_c, 0, 47, 43
2, 5346, Note_on_c, 0, 73, 0
2, 5349, Note_on_c, 0, 74, 62
2, 5374, Note_on_c, 0, 47, 0
2, 5416, Note_on_c, 0, 74, 0
2, 5431, Note_on_c, 0, 71, 57
2, 5503, Note_on_c, 0, 71, 0
2, 5505, Note_on_c, 0, 73, 55
2, 5599, Note_on_c, 0, 73, 0
2, 5599, Note_on_c, 0, 74, 62
2, 5641, Note_on_c, 0, 74, 0
2, 5676, Note_on_c, 0, 57, 52
2, 5682, Note_on_c, 0, 66, 55
2, 5708, Note_on_c, 0, 57, 0
2, 5746, Note_on_c, 0, 66, 0
2, 5777, Note_on_c, 0, 69, 53
2, 5846, Note_on_c, 0, 69, 0
2, 5858, Note_on_c, 0, 68, 60
2, 5911, Note_on_c, 0, 68, 0
2, 5938, Note_on_c, 0, 66, 56
2, 6013, Note_on_c, 0, 66, 0
2, 6018, Note_on_c, 0, 52, 46
2, 6028, Note_on_c, 0, 68, 63
2, 6054, Note_on_c, 0, 52, 0
2, 6100, Note_on_c, 0, 68, 0
2, 6100, Note_on_c, 0, 71, 60
2, 6180, Note_on_c, 0, 73, 59
2, 6190, Note_on_c, 0, 71, 0
2, 6258, Note_on_c, 0, 74, 63
2, 6263, Note_on_c, 0, 73, 0
2, 6309, Note_on_c, 0, 74, 0
2, 6342, Note_on_c, 0, 64, 57
2, 6345, Note_on_c, 0, 56, 50
2, 6382, Note_on_c, 0, 56, 0
2, 6421, Note_on_c, 0, 64, 0
2, 6430, Note_on_c, 0, 74, 55
2, 6501, Note_on_c, 0, 73, 57
2, 6534, Note_on_c, 0, 74, 0
2, 6577, Note_on_c, 0, 73, 0
2, 6590, Note_on_c, 0, 71, 58
2, 6681, Note_on_c, 0, 45, 42
2, 6684, Note_on_c, 0, 71, 0
2, 6686, Note_on_c, 0, 73, 64
2, 6713, Note_on_c, 0, 45, 0
2, 6757, Note_on_c, 0, 73, 0
2, 6771, Note_on_c, 0, 69, 56
2, 6831, Note_on_c, 0, 69, 0
2, 6852, Note_on_c, 0, 71, 50
2, 6921, Note_on_c, 0, 73, 57
2, 6923, Note_on_c, 0, 71, 0
2, 6978, Note_on_c, 0, 73, 0
2, 7026, Note_on_c, 0, 64, 49
2, 7030, Note_on_c, 0, 57, 40
2, 7068, Note_on_c, 0, 57, 0
2, 7107, Note_on_c, 0, 67, 49
2, 7115, Note_on_c, 0, 64, 0
2, 7171, Note_on_c, 0, 67, 0
2, 7192, Note_on_c, 0, 66, 55
2, 7241, Note_on_c, 0, 66, 0
2, 7266, Note_on_c, 0, 64, 50
2, 7351, Note_on_c, 0, 45, 40
2, 7363, Note_on_c, 0, 64, 0
2, 7365, Note_on_c, 0, 66, 57
2, 7398, Note_on_c, 0, 45, 0
2, 7440, Note_on_c, 0, 69, 57
2, 7455, Note_on_c, 0, 66, 0
2, 7514, Note_on_c, 0, 71, 62
2, 7531, Note_on_c, 0, 69, 0
2, 7600, Note_on_c, 0, 71, 0
2, 7600, Note_on_c, 0, 73, 63
2, 7645, Note_on_c, 0, 73, 0
2, 7676, Note_on_c, 0, 57, 57
2, 7680, Note_on_c, 0, 66, 64
2, 7712, Note_on_c, 0, 57, 0
2, 7755, Note_on_c, 0, 76, 69
2, 7836, Note_on_c, 0, 75, 64
2, 7840, Note_on_c, 0, 66, 0
2, 7862, Note_on_c, 0, 76, 0
2, 7911, Note_on_c, 0, 73, 65
2, 7911, Note_on_c, 0, 75, 0
2, 7986, Note_on_c, 0, 45, 50
2, 7996, Note_on_c, 0, 75, 74
2, 8018, Note_on_c, 0, 73, 0
2, 8025, Note_on_c, 0, 45, 0
2, 8078, Note_on_c, 0, 71, 64
2, 8080, Note_on_c, 0, 75, 0
2, 8116, Control_c, 0, 64, 17
2, 8151, Note_on_c, 0, 73, 66
2, 8156, Note_on_c, 0, 71, 0
2, 8162, Control_c, 0, 64, 18
2, 8176, Control_c, 0, 64, 20
2, 8192, Control_c, 0, 64, 24
2, 8207, Control_c, 0, 64, 25
2, 8222, Control_c, 0, 64, 25
2, 8239, Note_on_c, 0, 75, 69
2, 8246, Note_on_c, 0, 73, 0
2, 8268, Control_c, 0, 64, 26
2, 8283, Control_c, 0, 64, 27
2, 8294, Note_on_c, 0, 75, 0
2, 8318, Note_on_c, 0, 51, 56
2, 8326, Note_on_c, 0, 66, 63
2, 8345, Control_c, 0, 64, 27
2, 8360, Note_on_c, 0, 66, 0
2, 8363, Note_on_c, 0, 51, 0
2, 8418, Note_on_c, 0, 69, 59
2, 8490, Note_on_c, 0, 67, 63
2, 8497, Control_c, 0, 64, 28
2, 8505, Note_on_c, 0, 69, 0
2, 8565, Note_on_c, 0, 67, 0
2, 8573, Note_on_c, 0, 66, 62
2, 8643, Note_on_c, 0, 66, 0
2, 8654, Note_on_c, 0, 43, 34
2, 8659, Note_on_c, 0, 64, 61
2, 8679, Control_c, 0, 64, 27
2, 8692, Note_on_c, 0, 43, 0
2, 8694, Control_c, 0, 64, 27
2, 8710, Control_c, 0, 64, 25
2, 8724, Control_c, 0, 64, 24
2, 8727, Note_on_c, 0, 64, 0
2, 8738, Note_on_c, 0, 67, 60
2, 8739, Control_c, 0, 64, 23
2, 8755, Control_c, 0, 64, 23
2, 8770, Control_c, 0, 64, 22
2, 8786, Control_c, 0, 64, 21
2, 8800, Control_c, 0, 64, 21
2, 8815, Control_c, 0, 64, 20
2, 8818, Note_on_c, 0, 67, 0
2, 8818, Note_on_c, 0, 69, 62
2, 8910, Note_on_c, 0, 69, 0
2, 8922, Note_on_c, 0, 71, 60
2, 8953, Note_on_c, 0, 71, 0
2, 8980, Note_on_c, 0, 52, 42
2, 8987, Note_on_c, 0, 61, 55
2, 9036, Note_on_c, 0, 52, 0
2, 9040, Note_on_c, 0, 61, 0
2, 9063, Note_on_c, 0, 74, 65
2, 9153, Note_on_c, 0, 73, 55
2, 9163, Note_on_c, 0, 74, 0
2, 9226, Note_on_c, 0, 71, 61
2, 9261, Note_on_c, 0, 73, 0
2, 9295, Note_on_c, 0, 42, 49
2, 9320, Note_on_c, 0, 70, 59
2, 9335, Note_on_c, 0, 71, 0
2, 9355, Note_on_c, 0, 42, 0
2, 9373, Note_on_c, 0, 70, 0
2, 9399, Note_on_c, 0, 64, 53
2, 9482, Note_on_c, 0, 66, 49
2, 9484, Note_on_c, 0, 64, 0
2, 9522, Control_c, 0, 64, 21
2, 9537, Control_c, 0, 64, 22
2, 9548, Note_on_c, 0, 67, 57
2, 9549, Note_on_c, 0, 66, 0
2, 9553, Control_c, 0, 64, 23
2, 9568, Control_c, 0, 64, 24
2, 9582, Control_c, 0, 64, 25
2, 9606, Control_c, 0, 64, 25
2, 9619, Note_on_c, 0, 67, 0
2, 9621, Control_c, 0, 64, 26
2, 9637, Control_c, 0, 64, 26
2, 9652, Control_c, 0, 64, 27
2, 9654, Note_on_c, 0, 61, 59
2, 9660, Note_on_c, 0, 54, 50
2, 9682, Control_c, 0, 64, 27
2, 9700, Note_on_c, 0, 54, 0
2, 9723, Note_on_c, 0, 61, 0
2, 9726, Note_on_c, 0, 67, 53
2, 9810, Note_on_c, 0, 66, 61
2, 9820, Note_on_c, 0, 67, 0
2, 9834, Control_c, 0, 64, 27
2, 9849, Control_c, 0, 64, 25
2, 9865, Control_c, 0, 64, 24
2, 9879, Control_c, 0, 64, 23
2, 9891, Note_on_c, 0, 64, 58
2, 9895, Note_on_c, 0, 66, 0
2, 9910, Control_c, 0, 64, 22
2, 9925, Control_c, 0, 64, 21
2, 9947, Note_on_c, 0, 64, 0
2, 9983, Note_on_c, 0, 42, 45
2, 9983, Note_on_c, 0, 62, 58
2, 10037, Note_on_c, 0, 42, 0
2, 10049, Note_on_c, 0, 62, 0
2, 10077, Note_on_c, 0, 71, 45
2, 10143, Note_on_c, 0, 73, 60
2, 10155, Note_on_c, 0, 71, 0
2, 10230, Note_on_c, 0, 73, 0
2, 10237, Note_on_c, 0, 74, 58
2, 10280, Note_on_c, 0, 74, 0
2, 10305, Note_on_c, 0, 66, 57
2, 10323, Note_on_c, 0, 54, 43
2, 10357, Note_on_c, 0, 66, 0
2, 10360, Note_on_c, 0, 54, 0
2, 10393, Note_on_c, 0, 69, 63
2, 10436, Control_c, 0, 64, 21
2, 10465, Note_on_c, 0, 68, 66
2, 10474, Note_on_c, 0, 69, 0
2, 10539, Note_on_c, 0, 68, 0
2, 10542, Control_c, 0, 64, 20
2, 10542, Note_on_c, 0, 66, 63
2, 10600, Note_on_c, 0, 66, 0
2, 10620, Note_on_c, 0, 42, 39
2, 10623, Note_on_c, 0, 65, 62
2, 10674, Note_on_c, 0, 42, 0
2, 10694, Control_c, 0, 64, 19
2, 10700, Note_on_c, 0, 65, 0
2, 10702, Note_on_c, 0, 68, 62
2, 10779, Note_on_c, 0, 69, 64
2, 10799, Note_on_c, 0, 68, 0
2, 10857, Note_on_c, 0, 69, 0
2, 10865, Note_on_c, 0, 71, 66
2, 10907, Control_c, 0, 64, 18
2, 10908, Note_on_c, 0, 71, 0
2, 10937, Control_c, 0, 64, 17
2, 10951, Note_on_c, 0, 65, 63
2, 10959, Note_on_c, 0, 54, 50
2, 10998, Note_on_c, 0, 54, 0
2, 11018, Note_on_c, 0, 65, 0
2, 11033, Note_on_c, 0, 74, 72
2, 11075, Control_c, 0, 64, 17
2, 11112, Note_on_c, 0, 74, 0
2, 11119, Note_on_c, 0, 73, 70
2, 11171, Note_on_c, 0, 73, 0
2, 11188, Note_on_c, 0, 71, 75
2, 11263, Note_on_c, 0, 42, 49
2, 11270, Note_on_c, 0, 80, 76
2, 11273, Note_on_c, 0, 71, 0
2, 11325, Note_on_c, 0, 42, 0
2, 11352, Note_on_c, 0, 77, 74
2, 11354, Note_on_c, 0, 80, 0
2, 11440, Note_on_c, 0, 78, 76
2, 11465, Note_on_c, 0, 77, 0
2, 11513, Note_on_c, 0, 80, 74
2, 11524, Note_on_c, 0, 78, 0
2, 11593, Note_on_c, 0, 80, 0
2, 11603, Note_on_c, 0, 73, 74
2, 11611, Note_on_c, 0, 54, 43
2, 11659, Note_on_c, 0, 54, 0
2, 11673, Note_on_c, 0, 83, 70
2, 11691, Control_c, 0, 64, 17
2, 11713, Note_on_c, 0, 73, 0
2, 11759, Note_on_c, 0, 83, 0
2, 11766, Note_on_c, 0, 81, 65
2, 11840, Note_on_c, 0, 80, 66
2, 11842, Note_on_c, 0, 81, 0
2, 11875, Control_c, 0, 64, 18
2, 11936, Note_on_c, 0, 42, 38
2, 11949, Note_on_c, 0, 81, 69
2, 11960, Note_on_c, 0, 80, 0
2, 12009, Note_on_c, 0, 42, 0
2, 12025, Note_on_c, 0, 81, 0
2, 12028, Note_on_c, 0, 78, 67
2, 12095, Control_c, 0, 64, 19
2, 12105, Note_on_c, 0, 78, 0
2, 12107, Note_on_c, 0, 80, 64
2, 12156, Control_c, 0, 64, 20
2, 12193, Note_on_c, 0, 80, 0
2, 12194, Note_on_c, 0, 81, 59
2, 12202, Control_c, 0, 64, 21
2, 12218, Control_c, 0, 64, 21
2, 12251, Note_on_c, 0, 81, 0
2, 12263, Control_c, 0, 64, 22
2, 12270, Note_on_c, 0, 73, 59
2, 12289, Note_on_c, 0, 54, 47
2, 12293, Control_c, 0, 64, 23
2, 12338, Note_on_c, 0, 54, 0
2, 12348, Note_on_c, 0, 73, 0
2, 12358, Note_on_c, 0, 76, 54
2, 12384, Control_c, 0, 64, 23
2, 12430, Note_on_c, 0, 76, 0
2, 12446, Note_on_c, 0, 75, 59
2, 12475, Control_c, 0, 64, 24
2, 12492, Note_on_c, 0, 75, 0
2, 12519, Note_on_c, 0, 73, 53
2, 12605, Note_on_c, 0, 73, 0
2, 12612, Note_on_c, 0, 75, 64
2, 12620, Note_on_c, 0, 47, 42
2, 12654, Note_on_c, 0, 47, 0
2, 12691, Note_on_c, 0, 78, 63
2, 12694, Note_on_c, 0, 75, 0
2, 12778, Note_on_c, 0, 79, 54
2, 12787, Note_on_c, 0, 78, 0
2, 12833, Control_c, 0, 64, 24
2, 12843, Note_on_c, 0, 79, 0
2, 12850, Note_on_c, 0, 81, 58
2, 12878, Control_c, 0, 64, 25
2, 12893, Control_c, 0, 64, 26
2, 12906, Note_on_c, 0, 81, 0
2, 12909, Control_c, 0, 64, 27
2, 12924, Control_c, 0, 64, 27
2, 12927, Note_on_c, 0, 71, 59
2, 12935, Note_on_c, 0, 51, 52
2, 12940, Control_c, 0, 64, 28
2, 12954, Control_c, 0, 64, 30
2, 12969, Control_c, 0, 64, 31
2, 12974, Note_on_c, 0, 51, 0
2, 12985, Control_c, 0, 64, 31
2, 13000, Control_c, 0, 64, 32
2, 13003, Note_on_c, 0, 81, 58
2, 13015, Control_c, 0, 64, 32
2, 13015, Note_on_c, 0, 71, 0
2, 13082, Note_on_c, 0, 81, 0
2, 13094, Note_on_c, 0, 79, 53
2, 13122, Control_c, 0, 64, 33
2, 13159, Note_on_c, 0, 79, 0
2, 13168, Note_on_c, 0, 78, 60
2, 13265, Note_on_c, 0, 79, 65
2, 13266, Note_on_c, 0, 78, 0
2, 13270, Note_on_c, 0, 40, 54
2, 13304, Note_on_c, 0, 40, 0
2, 13327, Note_on_c, 0, 79, 0
2, 13343, Note_on_c, 0, 76, 56
2, 13409, Note_on_c, 0, 76, 0
2, 13421, Note_on_c, 0, 78, 60
2, 13523, Note_on_c, 0, 79, 58
2, 13524, Note_on_c, 0, 78, 0
2, 13587, Note_on_c, 0, 79, 0
2, 13607, Note_on_c, 0, 71, 58
2, 13611, Note_on_c, 0, 52, 52
2, 13648, Note_on_c, 0, 52, 0
2, 13687, Note_on_c, 0, 71, 0
2, 13688, Note_on_c, 0, 74, 58
2, 13760, Note_on_c, 0, 74, 0
2, 13773, Note_on_c, 0, 72, 62
2, 13832, Note_on_c, 0, 72, 0
2, 13855, Note_on_c, 0, 71, 53
2, 13933, Note_on_c, 0, 40, 41
2, 13934, Note_on_c, 0, 71, 0
2, 13949, Note_on_c, 0, 72, 57
2, 13975, Note_on_c, 0, 40, 0
2, 14009, Note_on_c, 0, 72, 0
2, 14015, Note_on_c, 0, 75, 61
2, 14094, Note_on_c, 0, 76, 60
2, 14103, Note_on_c, 0, 75, 0
2, 14183, Note_on_c, 0, 76, 0
2, 14186, Note_on_c, 0, 78, 64
2, 14233, Control_c, 0, 64, 33
2, 14259, Note_on_c, 0, 78, 0
2, 14266, Note_on_c, 0, 69, 61
2, 14281, Note_on_c, 0, 51, 48
2, 14315, Note_on_c, 0, 51, 0
2, 14352, Note_on_c, 0, 69, 0
2, 14352, Note_on_c, 0, 72, 60
2, 14437, Note_on_c, 0, 71, 57
2, 14492, Note_on_c, 0, 72, 0
2, 14506, Note_on_c, 0, 71, 0
2, 14515, Note_on_c, 0, 69, 61
2, 14564, Note_on_c, 0, 69, 0
2, 14594, Note_on_c, 0, 40, 52
2, 14594, Note_on_c, 0, 67, 64
2, 14630, Note_on_c, 0, 40, 0
2, 14655, Note_on_c, 0, 67, 0
2, 14678, Note_on_c, 0, 76, 65
2, 14767, Note_on_c, 0, 78, 64
2, 14780, Note_on_c, 0, 76, 0
2, 14852, Note_on_c, 0, 79, 63
2, 14871, Note_on_c, 0, 78, 0
2, 14911, Note_on_c, 0, 79, 0
2, 14921, Note_on_c, 0, 52, 44
2, 14925, Note_on_c, 0, 71, 62
2, 14960, Note_on_c, 0, 52, 0
2, 15009, Note_on_c, 0, 74, 63
2, 15010, Note_on_c, 0, 71, 0
2, 15081, Note_on_c, 0, 74, 0
2, 15090, Note_on_c, 0, 73, 65
2, 15147, Note_on_c, 0, 73, 0
2, 15169, Note_on_c, 0, 71, 64
2, 15249, Note_on_c, 0, 45, 47
2, 15260, Note_on_c, 0, 71, 0
2, 15268, Note_on_c, 0, 73, 67
2, 15295, Note_on_c, 0, 45, 0
2, 15335, Note_on_c, 0, 73, 0
2, 15342, Note_on_c, 0, 76, 61
2, 15420, Note_on_c, 0, 78, 64
2, 15433, Note_on_c, 0, 76, 0
2, 15496, Note_on_c, 0, 79, 62
2, 15510, Note_on_c, 0, 78, 0
2, 15558, Note_on_c, 0, 79, 0
2, 15586, Note_on_c, 0, 49, 48
2, 15590, Note_on_c, 0, 69, 63
2, 15624, Note_on_c, 0, 49, 0
2, 15669, Note_on_c, 0, 79, 64
2, 15672, Note_on_c, 0, 69, 0
2, 15755, Note_on_c, 0, 79, 0
2, 15759, Note_on_c, 0, 78, 58
2, 15826, Note_on_c, 0, 78, 0
2, 15833, Note_on_c, 0, 76, 62
2, 15890, Control_c, 0, 64, 34
2, 15906, Control_c, 0, 64, 34
2, 15917, Note_on_c, 0, 38, 35
2, 15921, Control_c, 0, 64, 35
2, 15929, Note_on_c, 0, 76, 0
2, 15929, Note_on_c, 0, 78, 71
2, 15935, Control_c, 0, 64, 35
2, 15956, Note_on_c, 0, 38, 0
2, 15981, Control_c, 0, 64, 36
2, 15996, Control_c, 0, 64, 36
2, 15999, Note_on_c, 0, 78, 0
2, 16011, Note_on_c, 0, 74, 59
2, 16042, Control_c, 0, 64, 37
2, 16094, Note_on_c, 0, 76, 58
2, 16109, Note_on_c, 0, 74, 0
2, 16133, Control_c, 0, 64, 37
2, 16164, Control_c, 0, 64, 38
2, 16178, Note_on_c, 0, 78, 68
2, 16184, Note_on_c, 0, 76, 0
2, 16241, Note_on_c, 0, 78, 0
2, 16248, Note_on_c, 0, 50, 47
2, 16266, Note_on_c, 0, 69, 57
2, 16282, Note_on_c, 0, 50, 0
2, 16330, Control_c, 0, 64, 38
2, 16331, Note_on_c, 0, 69, 0
2, 16349, Note_on_c, 0, 72, 59
2, 16415, Note_on_c, 0, 71, 65
2, 16421, Control_c, 0, 64, 39
2, 16429, Note_on_c, 0, 72, 0
2, 16451, Control_c, 0, 64, 39
2, 16479, Note_on_c, 0, 71, 0
2, 16481, Control_c, 0, 64, 40
2, 16503, Note_on_c, 0, 69, 62
2, 16550, Control_c, 0, 64, 40
2, 16573, Note_on_c, 0, 69, 0
2, 16586, Note_on_c, 0, 71, 66
2, 16590, Note_on_c, 0, 38, 47
2, 16616, Note_on_c, 0, 71, 0
2, 16627, Note_on_c, 0, 38, 0
2, 16656, Control_c, 0, 64, 41
2, 16665, Note_on_c, 0, 67, 58
2, 16712, Note_on_c, 0, 67, 0
2, 16745, Note_on_c, 0, 69, 60
2, 16786, Note_on_c, 0, 69, 0
2, 16838, Note_on_c, 0, 71, 60
2, 16839, Control_c, 0, 64, 41
2, 16873, Note_on_c, 0, 71, 0
2, 16900, Control_c, 0, 64, 42
2, 16911, Note_on_c, 0, 50, 48
2, 16912, Note_on_c, 0, 61, 65
2, 16946, Control_c, 0, 64, 42
2, 16947, Note_on_c, 0, 50, 0
2, 16981, Note_on_c, 0, 61, 0
2, 16991, Note_on_c, 0, 71, 57
2, 17055, Note_on_c, 0, 71, 0
2, 17067, Control_c, 0, 64, 43
2, 17067, Note_on_c, 0, 69, 61
2, 17152, Note_on_c, 0, 67, 60
2, 17160, Note_on_c, 0, 69, 0
2, 17232, Note_on_c, 0, 67, 0
2, 17242, Note_on_c, 0, 66, 59
2, 17258, Note_on_c, 0, 38, 41
2, 17302, Note_on_c, 0, 38, 0
2, 17305, Note_on_c, 0, 66, 0
2, 17331, Note_on_c, 0, 62, 53
2, 17402, Note_on_c, 0, 62, 0
2, 17413, Note_on_c, 0, 64, 54
2, 17475, Note_on_c, 0, 64, 0
2, 17491, Note_on_c, 0, 66, 57
2, 17532, Note_on_c, 0, 66, 0
2, 17583, Note_on_c, 0, 50, 49
2, 17584, Note_on_c, 0, 57, 60
2, 17621, Note_on_c, 0, 50, 0
2, 17658, Note_on_c, 0, 57, 0
2, 17666, Note_on_c, 0, 60, 51
2, 17725, Note_on_c, 0, 60, 0
2, 17744, Note_on_c, 0, 59, 61
2, 17788, Note_on_c, 0, 59, 0
2, 17825, Note_on_c, 0, 57, 52
2, 17893, Note_on_c, 0, 57, 0
2, 17907, Note_on_c, 0, 38, 39
2, 17914, Note_on_c, 0, 59, 56
2, 17944, Note_on_c, 0, 38, 0
2, 17990, Note_on_c, 0, 62, 54
2, 17991, Note_on_c, 0, 59, 0
2, 18081, Note_on_c, 0, 64, 59
2, 18092, Note_on_c, 0, 62, 0
2, 18160, Note_on_c, 0, 64, 0
2, 18165, Note_on_c, 0, 66, 58
2, 18212, Note_on_c, 0, 66, 0
2, 18234, Note_on_c, 0, 50, 52
2, 18246, Note_on_c, 0, 59, 56
2, 18270, Note_on_c, 0, 50, 0
2, 18317, Note_on_c, 0, 69, 65
2, 18339, Note_on_c, 0, 59, 0
2, 18396, Note_on_c, 0, 69, 0
2, 18399, Note_on_c, 0, 68, 60
2, 18467, Note_on_c, 0, 66, 60
2, 18467, Note_on_c, 0, 68, 0
2, 18567, Note_on_c, 0, 68, 62
2, 18578, Note_on_c, 0, 66, 0
2, 18589, Note_on_c, 0, 38, 21
2, 18630, Note_on_c, 0, 68, 0
2, 18636, Note_on_c, 0, 38, 0
2, 18639, Note_on_c, 0, 64, 57
2, 18716, Note_on_c, 0, 66, 59
2, 18723, Note_on_c, 0, 64, 0
2, 18806, Note_on_c, 0, 68, 66
2, 18822, Note_on_c, 0, 66, 0
2, 18878, Note_on_c, 0, 68, 0
2, 18905, Note_on_c, 0, 59, 57
2, 18917, Note_on_c, 0, 56, 49
2, 18955, Note_on_c, 0, 56, 0
2, 18959, Note_on_c, 0, 59, 0
2, 18994, Note_on_c, 0, 62, 51
2, 19061, Note_on_c, 0, 60, 66
2, 19076, Note_on_c, 0, 62, 0
2, 19137, Note_on_c, 0, 60, 0
2, 19159, Note_on_c, 0, 59, 60
2, 19204, Note_on_c, 0, 59, 0
2, 19241, Note_on_c, 0, 57, 55
2, 19244, Note_on_c, 0, 48, 37
2, 19295, Note_on_c, 0, 48, 0
2, 19311, Note_on_c, 0, 57, 0
2, 19323, Note_on_c, 0, 60, 55
2, 19408, Note_on_c, 0, 62, 50
2, 19411, Note_on_c, 0, 60, 0
2, 19474, Note_on_c, 0, 62, 0
2, 19482, Note_on_c, 0, 64, 56
2, 19491, Control_c, 0, 64, 43
2, 19528, Note_on_c, 0, 64, 0
2, 19552, Note_on_c, 0, 54, 53
2, 19567, Control_c, 0, 64, 44
2, 19573, Note_on_c, 0, 57, 57
2, 19614, Note_on_c, 0, 54, 0
2, 19651, Note_on_c, 0, 67, 61
2, 19668, Note_on_c, 0, 57, 0
2, 19748, Note_on_c, 0, 66, 52
2, 19756, Note_on_c, 0, 67, 0
2, 19823, Note_on_c, 0, 64, 58
2, 19828, Note_on_c, 0, 66, 0
2, 19908, Note_on_c, 0, 47, 40
2, 19916, Note_on_c, 0, 63, 58
2, 19916, Note_on_c, 0, 64, 0
2, 19961, Note_on_c, 0, 47, 0
2, 19963, Note_on_c, 0, 63, 0
2, 20002, Note_on_c, 0, 57, 52
2, 20077, Note_on_c, 0, 57, 0
2, 20085, Note_on_c, 0, 59, 55
2, 20128, Note_on_c, 0, 59, 0
2, 20155, Note_on_c, 0, 60, 56
2, 20209, Note_on_c, 0, 60, 0
2, 20246, Note_on_c, 0, 54, 58
2, 20249, Note_on_c, 0, 51, 54
2, 20295, Note_on_c, 0, 51, 0
2, 20298, Note_on_c, 0, 54, 0
2, 20321, Note_on_c, 0, 60, 61
2, 20406, Note_on_c, 0, 60, 0
2, 20411, Note_on_c, 0, 59, 61
2, 20479, Note_on_c, 0, 59, 0
2, 20489, Note_on_c, 0, 57, 60
2, 20534, Note_on_c, 0, 57, 0
2, 20574, Note_on_c, 0, 55, 64
2, 20577, Note_on_c, 0, 52, 64
2, 20615, Note_on_c, 0, 52, 0
2, 20644, Note_on_c, 0, 55, 0
2, 20659, Note_on_c, 0, 64, 64
2, 20739, Note_on_c, 0, 66, 60
2, 20748, Note_on_c, 0, 64, 0
2, 20783, Control_c, 0, 64, 44
2, 20814, Control_c, 0, 64, 45
2, 20819, Note_on_c, 0, 67, 63
2, 20830, Control_c, 0, 64, 45
2, 20831, Note_on_c, 0, 66, 0
2, 20871, Note_on_c, 0, 67, 0
2, 20875, Control_c, 0, 64, 46
2, 20904, Note_on_c, 0, 55, 49
2, 20909, Note_on_c, 0, 59, 60
2, 20943, Note_on_c, 0, 55, 0
2, 20989, Note_on_c, 0, 62, 61
2, 20991, Note_on_c, 0, 59, 0
2, 21061, Note_on_c, 0, 61, 64
2, 21075, Note_on_c, 0, 62, 0
2, 21144, Note_on_c, 0, 61, 0
2, 21146, Note_on_c, 0, 59, 63
2, 21186, Control_c, 0, 64, 46
2, 21208, Note_on_c, 0, 59, 0
2, 21232, Note_on_c, 0, 58, 72
2, 21238, Note_on_c, 0, 47, 53
2, 21246, Control_c, 0, 64, 47
2, 21285, Note_on_c, 0, 47, 0
2, 21301, Note_on_c, 0, 58, 0
2, 21308, Note_on_c, 0, 61, 66
2, 21382, Note_on_c, 0, 62, 68
2, 21412, Note_on_c, 0, 61, 0
2, 21459, Note_on_c, 0, 62, 0
2, 21461, Note_on_c, 0, 64, 69
2, 21517, Note_on_c, 0, 64, 0
2, 21535, Control_c, 0, 64, 47
2, 21547, Note_on_c, 0, 52, 69
2, 21555, Note_on_c, 0, 58, 71
2, 21591, Note_on_c, 0, 52, 0
2, 21604, Note_on_c, 0, 58, 0
2, 21612, Control_c, 0, 64, 48
2, 21641, Note_on_c, 0, 67, 72
2, 21711, Note_on_c, 0, 66, 69
2, 21726, Note_on_c, 0, 67, 0
2, 21784, Note_on_c, 0, 66, 0
2, 21791, Note_on_c, 0, 64, 74
2, 21824, Note_on_c, 0, 64, 0
2, 21876, Note_on_c, 0, 55, 70
2, 21878, Note_on_c, 0, 73, 79
2, 21950, Note_on_c, 0, 55, 0
2, 21969, Note_on_c, 0, 70, 78
2, 21969, Note_on_c, 0, 73, 0
2, 22016, Control_c, 0, 64, 47
2, 22034, Note_on_c, 0, 70, 0
2, 22050, Note_on_c, 0, 71, 79
2, 22120, Note_on_c, 0, 73, 78
2, 22121, Note_on_c, 0, 71, 0
2, 22209, Note_on_c, 0, 58, 65
2, 22224, Note_on_c, 0, 66, 81
2, 22271, Note_on_c, 0, 58, 0
2, 22290, Note_on_c, 0, 73, 0
2, 22295, Note_on_c, 0, 76, 72
2, 22298, Note_on_c, 0, 66, 0
2, 22393, Note_on_c, 0, 74, 67
2, 22393, Note_on_c, 0, 76, 0
2, 22464, Note_on_c, 0, 74, 0
2, 22470, Note_on_c, 0, 73, 65
2, 22529, Note_on_c, 0, 73, 0
2, 22565, Note_on_c, 0, 47, 54
2, 22565, Note_on_c, 0, 74, 60
2, 22601, Note_on_c, 0, 47, 0
2, 22617, Note_on_c, 0, 74, 0
2, 22647, Note_on_c, 0, 71, 59
2, 22714, Note_on_c, 0, 71, 0
2, 22746, Note_on_c, 0, 73, 49
2, 22818, Note_on_c, 0, 73, 0
2, 22835, Note_on_c, 0, 74, 55
2, 22876, Note_on_c, 0, 74, 0
2, 22890, Control_c, 0, 64, 48
2, 22911, Note_on_c, 0, 66, 58
2, 22920, Control_c, 0, 64, 48
2, 22928, Note_on_c, 0, 59, 40
2, 22959, Note_on_c, 0, 59, 0
2, 22966, Control_c, 0, 64, 49
2, 22986, Note_on_c, 0, 66, 0
2, 23002, Note_on_c, 0, 69, 53
2, 23042, Control_c, 0, 64, 48
2, 23066, Note_on_c, 0, 69, 0
2, 23072, Control_c, 0, 64, 48
2, 23077, Note_on_c, 0, 68, 58
2, 23087, Control_c, 0, 64, 47
2, 23102, Control_c, 0, 64, 47
2, 23118, Control_c, 0, 64, 46
2, 23126, Note_on_c, 0, 68, 0
2, 23133, Control_c, 0, 64, 46
2, 23156, Note_on_c, 0, 66, 53
2, 23229, Note_on_c, 0, 66, 0
2, 23239, Note_on_c, 0, 52, 56
2, 23252, Note_on_c, 0, 68, 63
2, 23271, Control_c, 0, 64, 45
2, 23271, Note_on_c, 0, 52, 0
2, 23336, Note_on_c, 0, 68, 0
2, 23341, Note_on_c, 0, 71, 47
2, 23423, Note_on_c, 0, 72, 59
2, 23428, Note_on_c, 0, 71, 0
2, 23430, Control_c, 0, 64, 46
2, 23445, Control_c, 0, 64, 46
2, 23498, Note_on_c, 0, 72, 0
2, 23500, Note_on_c, 0, 74, 57
2, 23521, Control_c, 0, 64, 47
2, 23551, Note_on_c, 0, 74, 0
2, 23576, Note_on_c, 0, 56, 49
2, 23589, Note_on_c, 0, 64, 48
2, 23606, Note_on_c, 0, 56, 0
2, 23662, Note_on_c, 0, 74, 62
2, 23667, Note_on_c, 0, 64, 0
2, 23736, Note_on_c, 0, 74, 0
2, 23757, Note_on_c, 0, 72, 59
2, 23827, Note_on_c, 0, 72, 0
2, 23833, Note_on_c, 0, 71, 57
2, 23840, Control_c, 0, 64, 46
2, 23886, Control_c, 0, 64, 46
2, 23901, Note_on_c, 0, 45, 50
2, 23926, Note_on_c, 0, 71, 0
2, 23928, Note_on_c, 0, 72, 66
2, 23931, Control_c, 0, 64, 45
2, 23940, Note_on_c, 0, 45, 0
2, 23970, Note_on_c, 0, 72, 0
2, 24002, Note_on_c, 0, 69, 55
2, 24059, Note_on_c, 0, 69, 0
2, 24088, Note_on_c, 0, 71, 51
2, 24148, Note_on_c, 0, 71, 0
2, 24164, Note_on_c, 0, 72, 55
2, 24224, Note_on_c, 0, 72, 0
2, 24250, Note_on_c, 0, 57, 51
2, 24258, Note_on_c, 0, 64, 54
2, 24294, Note_on_c, 0, 57, 0
2, 24340, Note_on_c, 0, 64, 0
2, 24347, Note_on_c, 0, 67, 55
2, 24403, Note_on_c, 0, 67, 0
2, 24433, Note_on_c, 0, 66, 51
2, 24481, Note_on_c, 0, 66, 0
2, 24501, Note_on_c, 0, 64, 54
2, 24576, Note_on_c, 0, 64, 0
2, 24579, Note_on_c, 0, 50, 42
2, 24594, Note_on_c, 0, 66, 54
2, 24615, Note_on_c, 0, 50, 0
2, 24672, Note_on_c, 0, 66, 0
2, 24673, Note_on_c, 0, 69, 57
2, 24698, Control_c, 0, 64, 46
2, 24740, Note_on_c, 0, 69, 0
2, 24743, Note_on_c, 0, 71, 60
2, 24805, Control_c, 0, 64, 46
2, 24829, Note_on_c, 0, 71, 0
2, 24830, Note_on_c, 0, 72, 64
2, 24894, Note_on_c, 0, 72, 0
2, 24897, Control_c, 0, 64, 47
2, 24907, Note_on_c, 0, 54, 42
2, 24928, Note_on_c, 0, 62, 49
2, 24936, Note_on_c, 0, 54, 0
2, 25002, Note_on_c, 0, 72, 58
2, 25016, Note_on_c, 0, 62, 0
2, 25074, Note_on_c, 0, 72, 0
2, 25088, Note_on_c, 0, 71, 52
2, 25154, Note_on_c, 0, 71, 0
2, 25166, Note_on_c, 0, 69, 60
2, 25236, Note_on_c, 0, 43, 41
2, 25254, Note_on_c, 0, 69, 0
2, 25258, Note_on_c, 0, 71, 64
2, 25294, Note_on_c, 0, 43, 0
2, 25316, Note_on_c, 0, 71, 0
2, 25339, Note_on_c, 0, 67, 57
2, 25411, Note_on_c, 0, 67, 0
2, 25429, Note_on_c, 0, 69, 49
2, 25497, Note_on_c, 0, 69, 0
2, 25512, Note_on_c, 0, 71, 56
2, 25552, Note_on_c, 0, 71, 0
2, 25591, Note_on_c, 0, 62, 48
2, 25594, Note_on_c, 0, 55, 43
2, 25629, Note_on_c, 0, 55, 0
2, 25669, Note_on_c, 0, 71, 63
2, 25711, Note_on_c, 0, 62, 0
2, 25757, Note_on_c, 0, 71, 0
2, 25762, Note_on_c, 0, 69, 62
2, 25830, Note_on_c, 0, 69, 0
2, 25842, Note_on_c, 0, 67, 56
2, 25915, Note_on_c, 0, 67, 0
2, 25916, Note_on_c, 0, 47, 48
2, 25926, Note_on_c, 0, 74, 68
2, 25948, Control_c, 0, 64, 47
2, 25964, Note_on_c, 0, 47, 0
2, 25995, Note_on_c, 0, 74, 0
2, 26008, Note_on_c, 0, 67, 55
2, 26071, Note_on_c, 0, 67, 0
2, 26085, Note_on_c, 0, 69, 53
2, 26170, Note_on_c, 0, 69, 0
2, 26184, Note_on_c, 0, 71, 59
2, 26230, Note_on_c, 0, 71, 0
2, 26249, Note_on_c, 0, 55, 47
2, 26267, Note_on_c, 0, 62, 50
2, 26297, Note_on_c, 0, 55, 0
2, 26353, Note_on_c, 0, 62, 0
2, 26353, Note_on_c, 0, 71, 53
2, 26428, Note_on_c, 0, 69, 56
2, 26428, Note_on_c, 0, 71, 0
2, 26481, Note_on_c, 0, 69, 0
2, 26516, Note_on_c, 0, 67, 50
2, 26571, Note_on_c, 0, 67, 0
2, 26597, Note_on_c, 0, 72, 53
2, 26600, Note_on_c, 0, 45, 44
2, 26645, Note_on_c, 0, 45, 0
2, 26646, Note_on_c, 0, 72, 0
2, 26670, Control_c, 0, 64, 47
2, 26676, Note_on_c, 0, 69, 53
2, 26734, Note_on_c, 0, 69, 0
2, 26760, Note_on_c, 0, 71, 57
2, 26839, Note_on_c, 0, 71, 0
2, 26848, Note_on_c, 0, 72, 60
2, 26897, Control_c, 0, 64, 46
2, 26898, Note_on_c, 0, 72, 0
2, 26913, Note_on_c, 0, 55, 43
2, 26924, Note_on_c, 0, 64, 51
2, 26962, Note_on_c, 0, 55, 0
2, 26998, Note_on_c, 0, 64, 0
2, 27002, Note_on_c, 0, 67, 54
2, 27068, Note_on_c, 0, 67, 0
2, 27083, Note_on_c, 0, 66, 59
2, 27131, Note_on_c, 0, 66, 0
2, 27162, Note_on_c, 0, 64, 52
2, 27244, Note_on_c, 0, 50, 37
2, 27248, Note_on_c, 0, 64, 0
2, 27258, Note_on_c, 0, 66, 58
2, 27302, Note_on_c, 0, 50, 0
2, 27339, Note_on_c, 0, 66, 0
2, 27341, Note_on_c, 0, 69, 54
2, 27409, Note_on_c, 0, 71, 61
2, 27411, Note_on_c, 0, 69, 0
2, 27486, Note_on_c, 0, 71, 0
2, 27491, Note_on_c, 0, 72, 62
2, 27550, Note_on_c, 0, 72, 0
2, 27568, Note_on_c, 0, 54, 48
2, 27580, Note_on_c, 0, 62, 55
2, 27611, Note_on_c, 0, 54, 0
2, 27656, Note_on_c, 0, 72, 59
2, 27670, Note_on_c, 0, 62, 0
2, 27721, Note_on_c, 0, 72, 0
2, 27732, Note_on_c, 0, 71, 57
2, 27798, Note_on_c, 0, 71, 0
2, 27801, Control_c, 0, 64, 47
2, 27810, Note_on_c, 0, 69, 62
2, 27877, Control_c, 0, 64, 47
2, 27878, Note_on_c, 0, 43, 38
2, 27896, Note_on_c, 0, 69, 0
2, 27906, Note_on_c, 0, 71, 64
2, 27933, Note_on_c, 0, 43, 0
2, 27937, Control_c, 0, 64, 48
2, 27966, Note_on_c, 0, 71, 0
2, 27982, Control_c, 0, 64, 48
2, 27991, Note_on_c, 0, 67, 56
2, 28036, Control_c, 0, 64, 49
2, 28077, Note_on_c, 0, 67, 0
2, 28087, Note_on_c, 0, 69, 55
2, 28097, Control_c, 0, 64, 49
2, 28127, Control_c, 0, 64, 50
2, 28147, Note_on_c, 0, 69, 0
2, 28165, Note_on_c, 0, 71, 58
2, 28190, Control_c, 0, 64, 50
2, 28220, Note_on_c, 0, 71, 0
2, 28239, Note_on_c, 0, 55, 47
2, 28250, Control_c, 0, 64, 51
2, 28252, Note_on_c, 0, 62, 49
2, 28288, Note_on_c, 0, 55, 0
2, 28318, Note_on_c, 0, 62, 0
2, 28322, Note_on_c, 0, 66, 48
2, 28326, Control_c, 0, 64, 51
2, 28386, Note_on_c, 0, 66, 0
2, 28398, Note_on_c, 0, 64, 55
2, 28402, Control_c, 0, 64, 52
2, 28447, Note_on_c, 0, 64, 0
2, 28462, Control_c, 0, 64, 52
2, 28480, Note_on_c, 0, 62, 51
2, 28523, Control_c, 0, 64, 53
2, 28538, Control_c, 0, 64, 53
2, 28548, Note_on_c, 0, 62, 0
2, 28559, Note_on_c, 0, 43, 44
2, 28571, Note_on_c, 0, 64, 57
2, 28584, Control_c, 0, 64, 54
2, 28594, Note_on_c, 0, 43, 0
2, 28638, Note_on_c, 0, 64, 0
2, 28643, Note_on_c, 0, 67, 58
2, 28720, Note_on_c, 0, 69, 67
2, 28725, Note_on_c, 0, 67, 0
2, 28781, Control_c, 0, 64, 53
2, 28807, Note_on_c, 0, 69, 0
2, 28815, Note_on_c, 0, 71, 60
2, 28819, Control_c, 0, 64, 53
2, 28853, Note_on_c, 0, 71, 0
2, 28866, Control_c, 0, 64, 52
2, 28880, Control_c, 0, 64, 52
2, 28895, Control_c, 0, 64, 51
2, 28899, Note_on_c, 0, 55, 42
2, 28903, Note_on_c, 0, 64, 60
2, 28926, Control_c, 0, 64, 51
2, 28934, Note_on_c, 0, 55, 0
2, 28941, Control_c, 0, 64, 50
2, 28957, Control_c, 0, 64, 50
2, 28969, Note_on_c, 0, 74, 64
2, 28972, Control_c, 0, 64, 49
2, 28978, Note_on_c, 0, 64, 0
2, 29003, Control_c, 0, 64, 48
2, 29018, Control_c, 0, 64, 48
2, 29034, Control_c, 0, 64, 47
2, 29049, Control_c, 0, 64, 46
2, 29061, Note_on_c, 0, 73, 58
2, 29061, Note_on_c, 0, 74, 0
2, 29063, Control_c, 0, 64, 45
2, 29079, Control_c, 0, 64, 45
2, 29094, Control_c, 0, 64, 44
2, 29109, Control_c, 0, 64, 44
2, 29124, Control_c, 0, 64, 43
2, 29127, Note_on_c, 0, 73, 0
2, 29137, Note_on_c, 0, 71, 66
2, 29139, Control_c, 0, 64, 42
2, 29157, Control_c, 0, 64, 41
2, 29226, Note_on_c, 0, 43, 55
2, 29228, Note_on_c, 0, 73, 72
2, 29233, Control_c, 0, 64, 40
2, 29234, Note_on_c, 0, 71, 0
2, 29248, Control_c, 0, 64, 39
2, 29263, Control_c, 0, 64, 38
2, 29265, Note_on_c, 0, 43, 0
2, 29278, Control_c, 0, 64, 37
2, 29292, Note_on_c, 0, 73, 0
2, 29293, Control_c, 0, 64, 36
2, 29309, Control_c, 0, 64, 36
2, 29314, Note_on_c, 0, 69, 55
2, 29323, Control_c, 0, 64, 35
2, 29388, Note_on_c, 0, 69, 0
2, 29392, Note_on_c, 0, 71, 54
2, 29480, Note_on_c, 0, 71, 0
2, 29480, Note_on_c, 0, 73, 60
2, 29491, Control_c, 0, 64, 36
2, 29507, Control_c, 0, 64, 37
2, 29524, Note_on_c, 0, 73, 0
2, 29537, Control_c, 0, 64, 37
2, 29553, Control_c, 0, 64, 38
2, 29563, Note_on_c, 0, 64, 57
2, 29580, Note_on_c, 0, 49, 47
2, 29605, Control_c, 0, 64, 38
2, 29620, Note_on_c, 0, 49, 0
2, 29636, Control_c, 0, 64, 39
2, 29651, Control_c, 0, 64, 39
2, 29656, Note_on_c, 0, 64, 0
2, 29662, Note_on_c, 0, 67, 55
2, 29681, Control_c, 0, 64, 40
2, 29712, Control_c, 0, 64, 40
2, 29726, Control_c, 0, 64, 41
2, 29729, Note_on_c, 0, 66, 61
2, 29742, Control_c, 0, 64, 41
2, 29745, Note_on_c, 0, 67, 0
2, 29757, Control_c, 0, 64, 42
2, 29772, Control_c, 0, 64, 42
2, 29807, Note_on_c, 0, 66, 0
2, 29812, Note_on_c, 0, 64, 57
2, 29820, Control_c, 0, 64, 43
2, 29865, Control_c, 0, 64, 43
2, 29881, Note_on_c, 0, 64, 0
2, 29895, Control_c, 0, 64, 44
2, 29905, Note_on_c, 0, 42, 53
2, 29908, Note_on_c, 0, 62, 52
2, 29948, Note_on_c, 0, 42, 0
2, 29956, Control_c, 0, 64, 44
2, 29965, Note_on_c, 0, 62, 0
2, 29979, Note_on_c, 0, 66, 55
2, 30017, Control_c, 0, 64, 45
2, 30032, Control_c, 0, 64, 45
2, 30060, Note_on_c, 0, 66, 0
2, 30062, Note_on_c, 0, 67, 57
2, 30123, Control_c, 0, 64, 46
2, 30136, Note_on_c, 0, 67, 0
2, 30158, Note_on_c, 0, 69, 60
2, 30209, Note_on_c, 0, 69, 0
2, 30246, Note_on_c, 0, 50, 49
2, 30247, Note_on_c, 0, 59, 54
2, 30283, Note_on_c, 0, 50, 0
2, 30317, Note_on_c, 0, 59, 0
2, 30324, Note_on_c, 0, 69, 58
2, 30396, Note_on_c, 0, 69, 0
2, 30411, Note_on_c, 0, 67, 53
2, 30476, Note_on_c, 0, 67, 0
2, 30480, Control_c, 0, 64, 46
2, 30491, Note_on_c, 0, 66, 51
2, 30579, Note_on_c, 0, 67, 65
2, 30580, Note_on_c, 0, 40, 43
2, 30601, Note_on_c, 0, 66, 0
2, 30613, Note_on_c, 0, 40, 0
2, 30639, Note_on_c, 0, 67, 0
2, 30667, Note_on_c, 0, 64, 52
2, 30709, Control_c, 0, 64, 47
2, 30727, Note_on_c, 0, 64, 0
2, 30740, Control_c, 0, 64, 47
2, 30744, Note_on_c, 0, 66, 52
2, 30815, Note_on_c, 0, 66, 0
2, 30825, Note_on_c, 0, 67, 51
2, 30873, Note_on_c, 0, 67, 0
2, 30909, Note_on_c, 0, 59, 56
2, 30915, Note_on_c, 0, 50, 43
2, 30955, Note_on_c, 0, 50, 0
2, 30991, Note_on_c, 0, 59, 0
2, 30996, Note_on_c, 0, 62, 54
2, 31056, Note_on_c, 0, 62, 0
2, 31078, Note_on_c, 0, 61, 54
2, 31133, Note_on_c, 0, 61, 0
2, 31163, Note_on_c, 0, 59, 55
2, 31240, Note_on_c, 0, 45, 50
2, 31250, Note_on_c, 0, 59, 0
2, 31256, Note_on_c, 0, 61, 58
2, 31275, Note_on_c, 0, 45, 0
2, 31325, Note_on_c, 0, 64, 55
2, 31330, Note_on_c, 0, 61, 0
2, 31405, Note_on_c, 0, 66, 57
2, 31411, Note_on_c, 0, 64, 0
2, 31479, Note_on_c, 0, 67, 56
2, 31491, Note_on_c, 0, 66, 0
2, 31546, Note_on_c, 0, 67, 0
2, 31577, Note_on_c, 0, 49, 45
2, 31583, Note_on_c, 0, 57, 55
2, 31609, Note_on_c, 0, 49, 0
2, 31666, Note_on_c, 0, 57, 0
2, 31666, Note_on_c, 0, 67, 53
2, 31705, Control_c, 0, 64, 48
2, 31719, Control_c, 0, 64, 48
2, 31732, Note_on_c, 0, 66, 53
2, 31755, Note_on_c, 0, 67, 0
2, 31808, Note_on_c, 0, 66, 0
2, 31821, Note_on_c, 0, 64, 52
2, 31841, Control_c, 0, 64, 49
2, 31855, Control_c, 0, 64, 49
2, 31879, Control_c, 0, 64, 51
2, 31894, Control_c, 0, 64, 52
2, 31910, Control_c, 0, 64, 53
2, 31923, Note_on_c, 0, 64, 0
2, 31924, Control_c, 0, 64, 53
2, 31931, Note_on_c, 0, 38, 30
2, 31931, Note_on_c, 0, 66, 58
2, 31940, Control_c, 0, 64, 54
2, 31970, Control_c, 0, 64, 54
2, 31974, Note_on_c, 0, 38, 0
2, 31980, Note_on_c, 0, 66, 0
2, 32009, Note_on_c, 0, 62, 46
2, 32093, Note_on_c, 0, 62, 0
2, 32095, Note_on_c, 0, 64, 51
2, 32107, Control_c, 0, 64, 54
2, 32122, Control_c, 0, 64, 53
2, 32136, Control_c, 0, 64, 52
2, 32152, Control_c, 0, 64, 51
2, 32167, Control_c, 0, 64, 50
2, 32174, Note_on_c, 0, 64, 0
2, 32179, Note_on_c, 0, 66, 62
2, 32182, Control_c, 0, 64, 49
2, 32197, Control_c, 0, 64, 49
2, 32212, Control_c, 0, 64, 48
2, 32228, Control_c, 0, 64, 47
2, 32244, Control_c, 0, 64, 46
2, 32246, Note_on_c, 0, 66, 0
2, 32260, Control_c, 0, 64, 45
2, 32266, Note_on_c, 0, 50, 43
2, 32267, Note_on_c, 0, 57, 55
2, 32275, Control_c, 0, 64, 45
2, 32305, Control_c, 0, 64, 44
2, 32326, Note_on_c, 0, 50, 0
2, 32339, Note_on_c, 0, 66, 59
2, 32358, Note_on_c, 0, 57, 0
2, 32421, Note_on_c, 0, 64, 62
2, 32439, Note_on_c, 0, 66, 0
2, 32482, Note_on_c, 0, 64, 0
2, 32487, Control_c, 0, 64, 45
2, 32489, Note_on_c, 0, 62, 63
2, 32518, Control_c, 0, 64, 45
2, 32539, Note_on_c, 0, 62, 0
2, 32549, Control_c, 0, 64, 46
2, 32579, Control_c, 0, 64, 46
2, 32580, Note_on_c, 0, 69, 73
2, 32588, Note_on_c, 0, 42, 56
2, 32594, Control_c, 0, 64, 47
2, 32654, Note_on_c, 0, 42, 0
2, 32671, Note_on_c, 0, 69, 0
2, 32674, Note_on_c, 0, 66, 71
2, 32677, Control_c, 0, 64, 47
2, 32739, Control_c, 0, 64, 48
2, 32748, Note_on_c, 0, 67, 70
2, 32776, Note_on_c, 0, 66, 0
2, 32814, Control_c, 0, 64, 48
2, 32827, Note_on_c, 0, 69, 71
2, 32833, Note_on_c, 0, 67, 0
2, 32886, Note_on_c, 0, 69, 0
2, 32912, Note_on_c, 0, 54, 63
2, 32916, Note_on_c, 0, 62, 68
2, 32969, Note_on_c, 0, 54, 0
2, 32974, Note_on_c, 0, 72, 78
2, 32996, Control_c, 0, 64, 48
2, 33011, Control_c, 0, 64, 47
2, 33014, Note_on_c, 0, 62, 0
2, 33026, Control_c, 0, 64, 47
2, 33041, Control_c, 0, 64, 46
2, 33059, Control_c, 0, 64, 46
2, 33064, Note_on_c, 0, 71, 73
2, 33102, Note_on_c, 0, 72, 0
2, 33104, Control_c, 0, 64, 45
2, 33133, Control_c, 0, 64, 45
2, 33142, Note_on_c, 0, 69, 76
2, 33151, Note_on_c, 0, 71, 0
2, 33164, Control_c, 0, 64, 44
2, 33216, Note_on_c, 0, 43, 67
2, 33240, Note_on_c, 0, 71, 86
2, 33245, Note_on_c, 0, 69, 0
2, 33264, Note_on_c, 0, 43, 0
2, 33326, Note_on_c, 0, 71, 0
2, 33334, Note_on_c, 0, 67, 74
2, 33412, Note_on_c, 0, 69, 72
2, 33420, Note_on_c, 0, 67, 0
2, 33493, Note_on_c, 0, 69, 0
2, 33493, Note_on_c, 0, 71, 79
2, 33562, Note_on_c, 0, 71, 0
2, 33585, Note_on_c, 0, 55, 55
2, 33585, Note_on_c, 0, 62, 67
2, 33626, Note_on_c, 0, 55, 0
2, 33659, Note_on_c, 0, 71, 73
2, 33677, Note_on_c, 0, 62, 0
2, 33741, Note_on_c, 0, 69, 74
2, 33760, Note_on_c, 0, 71, 0
2, 33810, Note_on_c, 0, 69, 0
2, 33811, Note_on_c, 0, 67, 78
2, 33881, Note_on_c, 0, 67, 0
2, 33884, Note_on_c, 0, 47, 62
2, 33893, Note_on_c, 0, 74, 85
2, 33917, Note_on_c, 0, 47, 0
2, 33971, Note_on_c, 0, 71, 78
2, 34033, Note_on_c, 0, 74, 0
2, 34045, Note_on_c, 0, 73, 77
2, 34070, Control_c, 0, 64, 45
2, 34071, Note_on_c, 0, 71, 0
2, 34133, Note_on_c, 0, 74, 75
2, 34159, Note_on_c, 0, 73, 0
2, 34224, Note_on_c, 0, 68, 85
2, 34229, Note_on_c, 0, 59, 58
2, 34264, Note_on_c, 0, 59, 0
2, 34307, Note_on_c, 0, 77, 78
2, 34322, Note_on_c, 0, 74, 0
2, 34329, Note_on_c, 0, 68, 0
2, 34405, Note_on_c, 0, 76, 75
2, 34435, Note_on_c, 0, 77, 0
2, 34493, Note_on_c, 0, 74, 79
2, 34529, Note_on_c, 0, 76, 0
2, 34607, Note_on_c, 0, 45, 59
2, 34611, Note_on_c, 0, 73, 88
2, 34646, Note_on_c, 0, 74, 0
2, 34731, Note_on_c, 0, 69, 74
2, 34737, Note_on_c, 0, 73, 0
2, 34833, Note_on_c, 0, 71, 73
2, 34849, Note_on_c, 0, 69, 0
2, 34883, Control_c, 0, 64, 45
2, 34914, Note_on_c, 0, 73, 73
2, 34918, Note_on_c, 0, 71, 0
2, 34928, Control_c, 0, 64, 46
2, 34992, Note_on_c, 0, 73, 0
2, 35012, Control_c, 0, 64, 46
2, 35017, Note_on_c, 0, 55, 61
2, 35017, Note_on_c, 0, 64, 73
2, 35042, Control_c, 0, 64, 47
2, 35071, Note_on_c, 0, 55, 0
2, 35088, Control_c, 0, 64, 47
2, 35092, Note_on_c, 0, 64, 0
2, 35095, Note_on_c, 0, 67, 73
2, 35149, Control_c, 0, 64, 48
2, 35179, Control_c, 0, 64, 48
2, 35179, Note_on_c, 0, 66, 67
2, 35202, Note_on_c, 0, 67, 0
2, 35251, Note_on_c, 0, 66, 0
2, 35254, Note_on_c, 0, 64, 73
2, 35270, Control_c, 0, 64, 49
2, 35312, Note_on_c, 0, 64, 0
2, 35316, Note_on_c, 0, 54, 64
2, 35333, Note_on_c, 0, 69, 78
2, 35346, Control_c, 0, 64, 49
2, 35346, Note_on_c, 0, 54, 0
2, 35396, Note_on_c, 0, 69, 0
2, 35417, Note_on_c, 0, 74, 74
2, 35468, Control_c, 0, 64, 50
2, 35492, Note_on_c, 0, 76, 67
2, 35526, Note_on_c, 0, 74, 0
2, 35560, Control_c, 0, 64, 50
2, 35563, Note_on_c, 0, 78, 73
2, 35588, Note_on_c, 0, 76, 0
2, 35605, Control_c, 0, 64, 51
2, 35634, Note_on_c, 0, 50, 68
2, 35634, Note_on_c, 0, 78, 0
2, 35639, Note_on_c, 0, 71, 79
2, 35668, Note_on_c, 0, 50, 0
2, 35707, Note_on_c, 0, 81, 68
2, 35727, Note_on_c, 0, 71, 0
2, 35796, Note_on_c, 0, 79, 69
2, 35825, Note_on_c, 0, 81, 0
2, 35869, Note_on_c, 0, 79, 0
2, 35870, Note_on_c, 0, 78, 73
2, 35945, Note_on_c, 0, 52, 71
2, 35957, Note_on_c, 0, 79, 79
2, 35961, Note_on_c, 0, 78, 0
2, 35975, Note_on_c, 0, 52, 0
2, 36027, Note_on_c, 0, 73, 65
2, 36105, Note_on_c, 0, 79, 0
2, 36108, Note_on_c, 0, 73, 0
2, 36108, Note_on_c, 0, 74, 63
2, 36180, Note_on_c, 0, 76, 70
2, 36210, Note_on_c, 0, 74, 0
2, 36244, Note_on_c, 0, 49, 68
2, 36257, Note_on_c, 0, 69, 73
2, 36281, Control_c, 0, 64, 51
2, 36282, Note_on_c, 0, 49, 0
2, 36303, Note_on_c, 0, 76, 0
2, 36308, Note_on_c, 0, 79, 74
2, 36319, Note_on_c, 0, 69, 0
2, 36396, Note_on_c, 0, 78, 67
2, 36445, Note_on_c, 0, 79, 0
2, 36471, Note_on_c, 0, 76, 68
2, 36502, Note_on_c, 0, 78, 0
2, 36563, Note_on_c, 0, 50, 64
2, 36571, Note_on_c, 0, 78, 81
2, 36577, Note_on_c, 0, 76, 0
2, 36600, Note_on_c, 0, 50, 0
2, 36608, Control_c, 0, 64, 51
2, 36639, Control_c, 0, 64, 50
2, 36664, Note_on_c, 0, 71, 64
2, 36670, Control_c, 0, 64, 50
2, 36737, Note_on_c, 0, 78, 0
2, 36740, Note_on_c, 0, 73, 64
2, 36741, Note_on_c, 0, 71, 0
2, 36823, Note_on_c, 0, 74, 61
2, 36826, Note_on_c, 0, 73, 0
2, 36875, Note_on_c, 0, 47, 63
2, 36897, Note_on_c, 0, 68, 74
2, 36935, Note_on_c, 0, 47, 0
2, 36972, Control_c, 0, 64, 49
2, 36972, Note_on_c, 0, 78, 71
2, 36975, Note_on_c, 0, 74, 0
2, 37016, Note_on_c, 0, 68, 0
2, 37060, Note_on_c, 0, 76, 66
2, 37084, Note_on_c, 0, 78, 0
2, 37137, Note_on_c, 0, 74, 64
2, 37164, Note_on_c, 0, 76, 0
2, 37236, Note_on_c, 0, 73, 69
2, 37242, Note_on_c, 0, 74, 0
2, 37309, Note_on_c, 0, 73, 0
2, 37329, Note_on_c, 0, 67, 62
2, 37332, Note_on_c, 0, 52, 47
2, 37348, Control_c, 0, 64, 50
2, 37404, Note_on_c, 0, 54, 60
2, 37409, Note_on_c, 0, 52, 0
2, 37413, Note_on_c, 0, 69, 66
2, 37415, Note_on_c, 0, 67, 0
2, 37476, Note_on_c, 0, 54, 0
2, 37484, Note_on_c, 0, 55, 56
2, 37488, Note_on_c, 0, 70, 69
2, 37489, Note_on_c, 0, 69, 0
2, 37536, Note_on_c, 0, 55, 0
2, 37552, Note_on_c, 0, 70, 0
2, 37560, Control_c, 0, 64, 50
2, 37568, Note_on_c, 0, 64, 68
2, 37576, Note_on_c, 0, 49, 53
2, 37639, Note_on_c, 0, 49, 0
2, 37639, Note_on_c, 0, 64, 0
2, 37642, Note_on_c, 0, 67, 70
2, 37664, Note_on_c, 0, 52, 61
2, 37667, Control_c, 0, 64, 50
2, 37722, Note_on_c, 0, 52, 0
2, 37722, Note_on_c, 0, 65, 66
2, 37727, Control_c, 0, 64, 49
2, 37733, Note_on_c, 0, 50, 59
2, 37743, Control_c, 0, 64, 49
2, 37750, Note_on_c, 0, 67, 0
2, 37757, Control_c, 0, 64, 48
2, 37772, Control_c, 0, 64, 48
2, 37786, Note_on_c, 0, 50, 0
2, 37791, Note_on_c, 0, 64, 73
2, 37791, Note_on_c, 0, 65, 0
2, 37801, Note_on_c, 0, 49, 56
2, 37803, Control_c, 0, 64, 47
2, 37813, Note_on_c, 0, 45, 0
2, 37817, Control_c, 0, 64, 47
2, 37833, Control_c, 0, 64, 46
2, 37846, Note_on_c, 0, 64, 0
2, 37847, Control_c, 0, 64, 46
2, 37869, Note_on_c, 0, 50, 62
2, 37876, Note_on_c, 0, 65, 74
2, 37878, Control_c, 0, 64, 45
2, 37878, Note_on_c, 0, 49, 0
2, 37892, Control_c, 0, 64, 45
2, 37926, Note_on_c, 0, 50, 0
2, 37942, Note_on_c, 0, 53, 64
2, 37948, Note_on_c, 0, 65, 0
2, 37948, Note_on_c, 0, 74, 74
2, 37983, Note_on_c, 0, 53, 0
2, 38033, Note_on_c, 0, 76, 71
2, 38040, Note_on_c, 0, 55, 64
2, 38042, Note_on_c, 0, 74, 0
2, 38083, Control_c, 0, 64, 45
2, 38088, Note_on_c, 0, 55, 0
2, 38109, Note_on_c, 0, 77, 77
2, 38110, Note_on_c, 0, 76, 0
2, 38114, Control_c, 0, 64, 46
2, 38127, Note_on_c, 0, 57, 65
2, 38128, Control_c, 0, 64, 46
2, 38144, Control_c, 0, 64, 47
2, 38159, Control_c, 0, 64, 47
2, 38181, Note_on_c, 0, 57, 0
2, 38189, Note_on_c, 0, 77, 0
2, 38190, Control_c, 0, 64, 48
2, 38193, Note_on_c, 0, 73, 73
2, 38196, Note_on_c, 0, 52, 64
2, 38220, Control_c, 0, 64, 48
2, 38235, Control_c, 0, 64, 49
2, 38250, Control_c, 0, 64, 49
2, 38252, Note_on_c, 0, 52, 0
2, 38269, Note_on_c, 0, 73, 0
2, 38270, Note_on_c, 0, 76, 77
2, 38281, Note_on_c, 0, 55, 64
2, 38344, Note_on_c, 0, 55, 0
2, 38345, Note_on_c, 0, 53, 65
2, 38346, Note_on_c, 0, 74, 78
2, 38375, Note_on_c, 0, 76, 0
2, 38421, Note_on_c, 0, 53, 0
2, 38421, Note_on_c, 0, 73, 80
2, 38424, Note_on_c, 0, 52, 67
2, 38426, Note_on_c, 0, 74, 0
2, 38463, Control_c, 0, 64, 49
2, 38480, Note_on_c, 0, 73, 0
2, 38489, Note_on_c, 0, 52, 0
2, 38502, Note_on_c, 0, 74, 85
2, 38506, Note_on_c, 0, 53, 69
2, 38524, Control_c, 0, 64, 48
2, 38554, Control_c, 0, 64, 48
2, 38568, Note_on_c, 0, 53, 0
2, 38572, Note_on_c, 0, 50, 69
2, 38581, Note_on_c, 0, 74, 0
2, 38589, Note_on_c, 0, 82, 43
2, 38590, Note_on_c, 0, 82, 0
2, 38602, Note_on_c, 0, 81, 61
2, 38630, Note_on_c, 0, 80, 60
2, 38657, Note_on_c, 0, 50, 0
2, 38660, Note_on_c, 0, 52, 61
2, 38663, Note_on_c, 0, 80, 0
2, 38719, Note_on_c, 0, 52, 0
2, 38725, Note_on_c, 0, 53, 65
2, 38737, Note_on_c, 0, 79, 75
2, 38771, Note_on_c, 0, 81, 0
2, 38780, Note_on_c, 0, 53, 0
2, 38826, Note_on_c, 0, 45, 59
2, 38826, Note_on_c, 0, 77, 85
2, 38842, Note_on_c, 0, 79, 0
2, 38899, Note_on_c, 0, 45, 0
2, 38899, Note_on_c, 0, 77, 0
2, 38903, Note_on_c, 0, 76, 73
2, 38910, Note_on_c, 0, 48, 56
2, 38983, Note_on_c, 0, 74, 79
2, 38988, Note_on_c, 0, 48, 0
2, 38993, Note_on_c, 0, 46, 64
2, 38999, Note_on_c, 0, 76, 0
2, 39071, Note_on_c, 0, 73, 84
2, 39075, Note_on_c, 0, 46, 0
2, 39081, Note_on_c, 0, 45, 64
2, 39081, Note_on_c, 0, 74, 0
2, 39186, Note_on_c, 0, 74, 87
2, 39196, Note_on_c, 0, 44, 71
2, 39213, Note_on_c, 0, 45, 0
2, 39219, Note_on_c, 0, 73, 0
2, 39313, Note_on_c, 0, 77, 81
2, 39345, Note_on_c, 0, 74, 0
2, 39353, Control_c, 0, 64, 49
2, 39368, Control_c, 0, 64, 49
2, 39383, Control_c, 0, 64, 50
2, 39398, Control_c, 0, 64, 50
2, 39413, Control_c, 0, 64, 51
2, 39428, Control_c, 0, 64, 53
2, 39434, Note_on_c, 0, 76, 79
2, 39443, Control_c, 0, 64, 54
2, 39451, Note_on_c, 0, 77, 0
2, 39459, Control_c, 0, 64, 56
2, 39474, Control_c, 0, 64, 57
2, 39489, Control_c, 0, 64, 58
2, 39504, Control_c, 0, 64, 58
2, 39512, Note_on_c, 0, 76, 0
2, 39519, Control_c, 0, 64, 59
2, 39529, Note_on_c, 0, 74, 79
2, 39620, Control_c, 0, 64, 58
2, 39624, Note_on_c, 0, 83, 93
2, 39635, Control_c, 0, 64, 58
2, 39650, Control_c, 0, 64, 57
2, 39666, Control_c, 0, 64, 57
2, 39681, Control_c, 0, 64, 56
2, 39695, Control_c, 0, 64, 56
2, 39711, Control_c, 0, 64, 55
2, 39712, Note_on_c, 0, 80, 73
2, 39726, Control_c, 0, 64, 55
2, 39728, Note_on_c, 0, 74, 0
2, 39744, Note_on_c, 0, 83, 0
2, 39756, Control_c, 0, 64, 54
2, 39771, Control_c, 0, 64, 54
2, 39808, Note_on_c, 0, 81, 64
2, 39834, Note_on_c, 0, 80, 0
2, 39881, Note_on_c, 0, 83, 81
2, 39886, Note_on_c, 0, 81, 0
2, 39958, Note_on_c, 0, 77, 86
2, 39972, Note_on_c, 0, 83, 0
2, 40024, Note_on_c, 0, 77, 0
2, 40038, Note_on_c, 0, 74, 74
2, 40075, Control_c, 0, 64, 54
2, 40090, Control_c, 0, 64, 55
2, 40104, Note_on_c, 0, 74, 0
2, 40110, Note_on_c, 0, 76, 69
2, 40121, Control_c, 0, 64, 55
2, 40166, Control_c, 0, 64, 56
2, 40182, Note_on_c, 0, 77, 71
2, 40195, Note_on_c, 0, 76, 0
2, 40225, Note_on_c, 0, 77, 0
2, 40250, Note_on_c, 0, 71, 72
2, 40302, Note_on_c, 0, 71, 0
2, 40339, Note_on_c, 0, 68, 73
2, 40428, Note_on_c, 0, 69, 66
2, 40434, Note_on_c, 0, 68, 0
2, 40505, Note_on_c, 0, 69, 0
2, 40509, Note_on_c, 0, 71, 69
2, 40576, Note_on_c, 0, 64, 58
2, 40643, Note_on_c, 0, 71, 0
2, 40656, Note_on_c, 0, 66, 69
2, 40663, Note_on_c, 0, 64, 0
2, 40736, Control_c, 0, 64, 55
2, 40741, Note_on_c, 0, 68, 75
2, 40750, Note_on_c, 0, 66, 0
2, 40782, Control_c, 0, 64, 55
2, 40800, Note_on_c, 0, 68, 0
2, 40816, Note_on_c, 0, 69, 78
2, 40888, Note_on_c, 0, 69, 0
2, 40888, Note_on_c, 0, 71, 80
2, 40972, Note_on_c, 0, 73, 84
2, 40989, Note_on_c, 0, 71, 0
2, 41054, Note_on_c, 0, 73, 0
2, 41060, Note_on_c, 0, 74, 85
2, 41151, Note_on_c, 0, 76, 84
2, 41169, Note_on_c, 0, 74, 0
2, 41250, Note_on_c, 0, 44, 0
2, 41261, Note_on_c, 0, 45, 64
2, 41274, Note_on_c, 0, 77, 91
2, 41295, Note_on_c, 0, 76, 0
2, 41372, Note_on_c, 0, 73, 78
2, 41476, Note_on_c, 0, 57, 66
2, 41476, Note_on_c, 0, 74, 79
2, 41501, Note_on_c, 0, 73, 0
2, 41536, Note_on_c, 0, 57, 0
2, 41555, Note_on_c, 0, 74, 0
2, 41556, Note_on_c, 0, 69, 71
2, 41668, Note_on_c, 0, 69, 0
2, 41674, Note_on_c, 0, 55, 56
2, 41679, Note_on_c, 0, 70, 40
2, 41700, Note_on_c, 0, 71, 48
2, 41708, Note_on_c, 0, 55, 0
2, 41709, Note_on_c, 0, 70, 0
2, 41722, Note_on_c, 0, 71, 0
2, 41747, Note_on_c, 0, 77, 0
2, 41750, Note_on_c, 0, 67, 76
2, 41831, Note_on_c, 0, 67, 0
2, 41835, Note_on_c, 0, 76, 83
2, 41850, Note_on_c, 0, 49, 55
2, 41879, Control_c, 0, 64, 54
2, 41909, Note_on_c, 0, 49, 0
2, 41939, Note_on_c, 0, 67, 74
2, 42023, Note_on_c, 0, 67, 0
2, 42026, Note_on_c, 0, 69, 71
2, 42038, Note_on_c, 0, 53, 54
2, 42068, Note_on_c, 0, 53, 0
2, 42093, Note_on_c, 0, 76, 0
2, 42119, Note_on_c, 0, 65, 73
2, 42158, Note_on_c, 0, 69, 0
2, 42185, Control_c, 0, 64, 54
2, 42199, Note_on_c, 0, 50, 63
2, 42204, Note_on_c, 0, 74, 85
2, 42224, Note_on_c, 0, 65, 0
2, 42239, Note_on_c, 0, 50, 0
2, 42275, Control_c, 0, 64, 53
2, 42318, Note_on_c, 0, 65, 71
2, 42450, Note_on_c, 0, 67, 71
2, 42457, Note_on_c, 0, 65, 0
2, 42459, Note_on_c, 0, 52, 51
2, 42490, Note_on_c, 0, 52, 0
2, 42577, Note_on_c, 0, 64, 66
2, 42619, Note_on_c, 0, 67, 0
2, 42719, Note_on_c, 0, 55, 64
2, 42729, Note_on_c, 0, 73, 83
2, 42753, Control_c, 0, 64, 54
2, 42759, Note_on_c, 0, 64, 0
2, 42768, Control_c, 0, 64, 55
2, 42784, Control_c, 0, 64, 56
2, 42799, Control_c, 0, 64, 58
2, 42799, Note_on_c, 0, 74, 0
2, 42815, Control_c, 0, 64, 60
2, 42830, Control_c, 0, 64, 62
2, 42845, Control_c, 0, 64, 64
2, 42860, Control_c, 0, 64, 67
2, 42875, Control_c, 0, 64, 71
2, 42891, Control_c, 0, 64, 78
2, 42907, Control_c, 0, 64, 88
2, 42921, Control_c, 0, 64, 100
2, 42924, Note_on_c, 0, 64, 64
2, 42937, Control_c, 0, 64, 127
2, 42975, Note_on_c, 0, 45, 0
2, 43028, Control_c, 0, 64, 99
2, 43043, Control_c, 0, 64, 83
2, 43059, Control_c, 0, 64, 71
2, 43074, Control_c, 0, 64, 65
2, 43089, Control_c, 0, 64, 64
2, 43089, Note_on_c, 0, 55, 0
2, 43090, Note_on_c, 0, 45, 58
2, 43105, Control_c, 0, 64, 68
2, 43119, Control_c, 0, 64, 74
2, 43135, Control_c, 0, 64, 83
2, 43150, Control_c, 0, 64, 93
2, 43164, Control_c, 0, 64, 104
2, 43180, Control_c, 0, 64, 127
2, 43197, Note_on_c, 0, 73, 0
2, 43215, Note_on_c, 0, 50, 58
2, 43241, Note_on_c, 0, 64, 0
2, 43261, Note_on_c, 0, 45, 0
2, 43301, Note_on_c, 0, 53, 55
2, 43353, Note_on_c, 0, 56, 74
2, 43414, Note_on_c, 0, 59, 68
2, 43423, Note_on_c, 0, 62, 70
2, 43484, Note_on_c, 0, 65, 71
2, 43511, Note_on_c, 0, 68, 72
2, 43515, Note_on_c, 0, 62, 0
2, 43553, Note_on_c, 0, 71, 76
2, 43603, Note_on_c, 0, 74, 85
2, 44406, Note_on_c, 0, 59, 0
2, 44482, Note_on_c, 0, 71, 0
2, 44499, Note_on_c, 0, 65, 0
2, 44525, Note_on_c, 0, 68, 0
2, 44606, Note_on_c, 0, 56, 0
2, 44760, Note_on_c, 0, 53, 0
2, 44769, Note_on_c, 0, 50, 0
2, 44900, Control_c, 0, 64, 87
2, 44915, Control_c, 0, 64, 65
2, 44937, Control_c, 0, 64, 35
2, 44952, Control_c, 0, 64, 0
2, 45222, Note_on_c, 0, 73, 54
2, 45281, Note_on_c, 0, 74, 0
2, 45328, Note_on_c, 0, 71, 58
2, 45362, Note_on_c, 0, 73, 0
2, 45392, Note_on_c, 0, 71, 0
2, 45407, Control_c, 0, 64, 23
2, 45417, Note_on_c, 0, 69, 60
2, 45423, Control_c, 0, 64, 35
2, 45438, Control_c, 0, 64, 38
2, 45468, Control_c, 0, 64, 38
2, 45473, Note_on_c, 0, 69, 0
2, 45483, Control_c, 0, 64, 41
2, 45497, Control_c, 0, 64, 45
2, 45502, Note_on_c, 0, 68, 62
2, 45513, Control_c, 0, 64, 47
2, 45527, Control_c, 0, 64, 48
2, 45561, Note_on_c, 0, 68, 0
2, 45567, Note_on_c, 0, 66, 65
2, 45604, Note_on_c, 0, 66, 0
2, 45618, Note_on_c, 0, 64, 64
2, 45674, Note_on_c, 0, 64, 0
2, 45679, Note_on_c, 0, 66, 70
2, 45751, Note_on_c, 0, 68, 77
2, 45752, Note_on_c, 0, 66, 0
2, 45777, Note_on_c, 0, 68, 0
2, 45791, Control_c, 0, 64, 48
2, 45805, Note_on_c, 0, 69, 76
2, 45806, Control_c, 0, 64, 49
2, 45821, Control_c, 0, 64, 49
2, 45852, Note_on_c, 0, 69, 0
2, 45868, Note_on_c, 0, 71, 69
2, 45897, Control_c, 0, 64, 50
2, 45901, Note_on_c, 0, 73, 73
2, 45910, Note_on_c, 0, 71, 0
2, 45913, Control_c, 0, 64, 50
2, 45943, Control_c, 0, 64, 51
2, 45953, Note_on_c, 0, 73, 0
2, 45971, Note_on_c, 0, 74, 79
2, 46030, Note_on_c, 0, 74, 0
2, 46038, Note_on_c, 0, 76, 59
2, 46050, Note_on_c, 0, 77, 50
2, 46076, Note_on_c, 0, 77, 0
2, 46076, Note_on_c, 0, 77, 31
2, 46078, Note_on_c, 0, 76, 0
2, 46151, Note_on_c, 0, 76, 77
2, 46157, Control_c, 0, 64, 51
2, 46161, Note_on_c, 0, 77, 0
2, 46183, Note_on_c, 0, 76, 0
2, 46188, Control_c, 0, 64, 52
2, 46202, Control_c, 0, 64, 54
2, 46204, Note_on_c, 0, 74, 64
2, 46217, Control_c, 0, 64, 55
2, 46233, Control_c, 0, 64, 57
2, 46248, Control_c, 0, 64, 58
2, 46263, Control_c, 0, 64, 59
2, 46272, Note_on_c, 0, 73, 69
2, 46274, Note_on_c, 0, 74, 0
2, 46279, Control_c, 0, 64, 60
2, 46293, Control_c, 0, 64, 60
2, 46324, Control_c, 0, 64, 61
2, 46324, Note_on_c, 0, 71, 68
2, 46338, Control_c, 0, 64, 61
2, 46354, Control_c, 0, 64, 62
2, 46357, Note_on_c, 0, 71, 0
2, 46360, Note_on_c, 0, 73, 0
2, 46384, Control_c, 0, 64, 62
2, 46390, Note_on_c, 0, 69, 74
2, 46436, Note_on_c, 0, 69, 0
2, 46467, Note_on_c, 0, 68, 68
2, 46483, Control_c, 0, 64, 63
2, 46522, Note_on_c, 0, 66, 66
2, 46534, Note_on_c, 0, 68, 0
2, 46584, Note_on_c, 0, 66, 0
2, 46585, Note_on_c, 0, 64, 66
2, 46605, Control_c, 0, 64, 62
2, 46633, Note_on_c, 0, 64, 0
2, 46656, Note_on_c, 0, 62, 66
2, 46698, Note_on_c, 0, 62, 0
2, 46714, Note_on_c, 0, 61, 49
2, 46726, Control_c, 0, 64, 62
2, 46785, Note_on_c, 0, 64, 60
2, 46829, Note_on_c, 0, 67, 65
2, 46894, Note_on_c, 0, 70, 72
2, 46914, Note_on_c, 0, 73, 58
2, 46924, Control_c, 0, 64, 61
2, 46939, Control_c, 0, 64, 60
2, 46953, Note_on_c, 0, 76, 68
2, 46954, Control_c, 0, 64, 60
2, 46985, Control_c, 0, 64, 61
2, 46993, Note_on_c, 0, 73, 0
2, 47001, Control_c, 0, 64, 62
2, 47003, Note_on_c, 0, 79, 78
2, 47016, Control_c, 0, 64, 64
2, 47032, Control_c, 0, 64, 68
2, 47036, Note_on_c, 0, 70, 0
2, 47046, Control_c, 0, 64, 79
2, 47054, Note_on_c, 0, 82, 94
2, 47059, Note_on_c, 0, 76, 0
2, 47061, Control_c, 0, 64, 127
2, 47077, Note_on_c, 0, 79, 0
2, 47081, Note_on_c, 0, 64, 0
2, 47089, Note_on_c, 0, 67, 0
2, 47092, Note_on_c, 0, 82, 0
2, 47111, Note_on_c, 0, 61, 0
2, 47297, Control_c, 0, 64, 108
2, 47312, Control_c, 0, 64, 90
2, 47327, Control_c, 0, 64, 81
2, 47342, Control_c, 0, 64, 75
2, 47358, Control_c, 0, 64, 71
2, 47373, Control_c, 0, 64, 68
2, 47388, Control_c, 0, 64, 65
2, 47403, Control_c, 0, 64, 61
2, 47418, Control_c, 0, 64, 53
2, 47434, Control_c, 0, 64, 34
2, 47449, Control_c, 0, 64, 0
2, 47484, Note_on_c, 0, 62, 52
2, 47538, Note_on_c, 0, 65, 57
2, 47539, Control_c, 0, 64, 28
2, 47555, Control_c, 0, 64, 44
2, 47570, Control_c, 0, 64, 53
2, 47583, Control_c, 0, 64, 58
2, 47583, Note_on_c, 0, 68, 69
2, 47599, Control_c, 0, 64, 60
2, 47614, Control_c, 0, 64, 63
2, 47628, Note_on_c, 0, 71, 70
2, 47629, Control_c, 0, 64, 67
2, 47645, Control_c, 0, 64, 76
2, 47659, Control_c, 0, 64, 103
2, 47670, Note_on_c, 0, 71, 0
2, 47675, Control_c, 0, 64, 127
2, 47677, Note_on_c, 0, 68, 0
2, 47681, Note_on_c, 0, 74, 73
2, 47694, Note_on_c, 0, 65, 0
2, 47728, Note_on_c, 0, 77, 71
2, 47759, Note_on_c, 0, 80, 83
2, 47763, Note_on_c, 0, 62, 0
2, 47770, Note_on_c, 0, 74, 0
2, 47815, Note_on_c, 0, 83, 95
2, 47829, Note_on_c, 0, 77, 0
2, 47841, Note_on_c, 0, 80, 0
2, 47866, Note_on_c, 0, 83, 0
2, 48381, Control_c, 0, 64, 104
2, 48397, Control_c, 0, 64, 95
2, 48412, Control_c, 0, 64, 89
2, 48427, Control_c, 0, 64, 85
2, 48443, Control_c, 0, 64, 81
2, 48457, Control_c, 0, 64, 78
2, 48472, Control_c, 0, 64, 76
2, 48488, Control_c, 0, 64, 74
2, 48503, Control_c, 0, 64, 71
2, 48519, Control_c, 0, 64, 69
2, 48534, Control_c, 0, 64, 66
2, 48549, Control_c, 0, 64, 63
2, 48564, Control_c, 0, 64, 61
2, 48579, Control_c, 0, 64, 59
2, 48596, Control_c, 0, 64, 57
2, 48611, Control_c, 0, 64, 54
2, 48626, Control_c, 0, 64, 48
2, 48642, Control_c, 0, 64, 34
2, 48657, Control_c, 0, 64, 9
2, 48671, Control_c, 0, 64, 0
2, 48915, Note_on_c, 0, 74, 67
2, 48917, Note_on_c, 0, 45, 46
2, 48918, Note_on_c, 0, 69, 58
2, 48920, Note_on_c, 0, 64, 59
2, 48926, Note_on_c, 0, 57, 46
2, 48931, Note_on_c, 0, 52, 38
2, 48938, Control_c, 0, 64, 30
2, 48952, Control_c, 0, 64, 46
2, 48968, Control_c, 0, 64, 53
2, 48983, Control_c, 0, 64, 56
2, 48999, Control_c, 0, 64, 58
2, 49014, Control_c, 0, 64, 60
2, 49029, Control_c, 0, 64, 62
2, 49045, Control_c, 0, 64, 65
2, 49060, Control_c, 0, 64, 68
2, 49075, Control_c, 0, 64, 75
2, 49090, Control_c, 0, 64, 86
2, 49105, Control_c, 0, 64, 121
2, 49121, Control_c, 0, 64, 127
2, 49176, Note_on_c, 0, 57, 0
2, 49502, Note_on_c, 0, 52, 0
2, 49871, Control_c, 0, 64, 107
2, 49878, Note_on_c, 0, 73, 68
2, 49887, Control_c, 0, 64, 89
2, 49887, Note_on_c, 0, 55, 41
2, 49902, Control_c, 0, 64, 75
2, 49917, Control_c, 0, 64, 65
2, 49930, Note_on_c, 0, 74, 0
2, 49932, Control_c, 0, 64, 54
2, 49947, Control_c, 0, 64, 38
2, 49963, Control_c, 0, 64, 33
2, 49977, Control_c, 0, 64, 41
2, 49992, Control_c, 0, 64, 51
2, 50008, Control_c, 0, 64, 59
2, 50023, Control_c, 0, 64, 63
2, 50039, Control_c, 0, 64, 65
2, 50053, Control_c, 0, 64, 69
2, 50068, Control_c, 0, 64, 75
2, 50084, Control_c, 0, 64, 84
2, 50099, Control_c, 0, 64, 102
2, 50115, Control_c, 0, 64, 127
2, 50205, Note_on_c, 0, 64, 0
2, 50471, Note_on_c, 0, 69, 0
2, 50472, Note_on_c, 0, 55, 0
2, 51196, Control_c, 0, 64, 108
2, 51197, Note_on_c, 0, 66, 40
2, 51205, Note_on_c, 0, 69, 49
2, 51206, Note_on_c, 0, 74, 54
2, 51211, Control_c, 0, 64, 94
2, 51216, Note_on_c, 0, 54, 46
2, 51222, Note_on_c, 0, 57, 39
2, 51226, Control_c, 0, 64, 83
2, 51226, Note_on_c, 0, 50, 43
2, 51242, Control_c, 0, 64, 73
2, 51251, Note_on_c, 0, 45, 0
2, 51254, Control_c, 0, 64, 65
2, 51256, Note_on_c, 0, 73, 0
2, 51267, Control_c, 0, 64, 56
2, 51282, Control_c, 0, 64, 42
2, 51298, Control_c, 0, 64, 27
2, 51313, Control_c, 0, 64, 17
2, 51328, Control_c, 0, 64, 0
2, 51556, Control_c, 0, 64, 23
2, 51572, Control_c, 0, 64, 34
2, 51587, Control_c, 0, 64, 38
2, 51601, Control_c, 0, 64, 40
2, 51617, Control_c, 0, 64, 43
2, 51632, Control_c, 0, 64, 46
2, 51648, Control_c, 0, 64, 49
2, 51662, Control_c, 0, 64, 51
2, 51677, Control_c, 0, 64, 53
2, 51693, Control_c, 0, 64, 54
2, 51708, Control_c, 0, 64, 54
2, 51723, Control_c, 0, 64, 55
2, 51738, Control_c, 0, 64, 56
2, 51753, Control_c, 0, 64, 57
2, 51769, Control_c, 0, 64, 58
2, 51784, Control_c, 0, 64, 58
2, 51799, Control_c, 0, 64, 59
2, 51814, Control_c, 0, 64, 60
2, 51837, Control_c, 0, 64, 60
2, 51853, Control_c, 0, 64, 61
2, 51867, Control_c, 0, 64, 62
2, 51882, Control_c, 0, 64, 62
2, 51914, Control_c, 0, 64, 63
2, 51945, Control_c, 0, 64, 63
2, 51959, Control_c, 0, 64, 64
2, 51990, Control_c, 0, 64, 64
2, 52005, Control_c, 0, 64, 65
2, 52021, Control_c, 0, 64, 65
2, 52036, Control_c, 0, 64, 66
2, 52051, Control_c, 0, 64, 66
2, 52081, Control_c, 0, 64, 67
2, 52096, Control_c, 0, 64, 67
2, 52111, Control_c, 0, 64, 68
2, 52126, Control_c, 0, 64, 70
2, 52142, Control_c, 0, 64, 72
2, 52157, Control_c, 0, 64, 74
2, 52172, Control_c, 0, 64, 77
2, 52187, Control_c, 0, 64, 79
2, 52202, Control_c, 0, 64, 81
2, 52218, Control_c, 0, 64, 83
2, 52233, Control_c, 0, 64, 84
2, 52248, Control_c, 0, 64, 84
2, 52278, Control_c, 0, 64, 85
2, 52308, Control_c, 0, 64, 85
2, 52339, Control_c, 0, 64, 86
2, 52354, Control_c, 0, 64, 86
2, 52370, Control_c, 0, 64, 87
2, 52385, Control_c, 0, 64, 88
2, 52400, Control_c, 0, 64, 89
2, 52416, Control_c, 0, 64, 90
2, 52430, Control_c, 0, 64, 90
2, 52445, Control_c, 0, 64, 91
2, 52461, Control_c, 0, 64, 92
2, 52476, Control_c, 0, 64, 93
2, 52492, Control_c, 0, 64, 94
2, 52506, Control_c, 0, 64, 97
2, 52521, Control_c, 0, 64, 99
2, 52537, Control_c, 0, 64, 102
2, 52552, Control_c, 0, 64, 107
2, 52568, Control_c, 0, 64, 113
2, 52582, Control_c, 0, 64, 127
2, 53464, Control_c, 0, 64, 118
2, 53479, Control_c, 0, 64, 115
2, 53495, Control_c, 0, 64, 113
2, 53510, Control_c, 0, 64, 110
2, 53525, Control_c, 0, 64, 107
2, 53541, Control_c, 0, 64, 105
2, 53556, Control_c, 0, 64, 104
2, 53601, Control_c, 0, 64, 104
2, 53617, Control_c, 0, 64, 103
2, 53632, Control_c, 0, 64, 101
2, 53648, Control_c, 0, 64, 99
2, 53663, Control_c, 0, 64, 97
2, 53678, Control_c, 0, 64, 96
2, 53694, Control_c, 0, 64, 94
2, 53708, Control_c, 0, 64, 90
2, 53723, Control_c, 0, 64, 83
2, 53730, Note_on_c, 0, 57, 0
2, 53739, Control_c, 0, 64, 77
2, 53748, Note_on_c, 0, 74, 0
2, 53752, Note_on_c, 0, 69, 0
2, 53754, Control_c, 0, 64, 73
2, 53757, Note_on_c, 0, 66, 0
2, 53770, Control_c, 0, 64, 70
2, 53775, Note_on_c, 0, 50, 0
2, 53784, Control_c, 0, 64, 67
2, 53799, Control_c, 0, 64, 65
2, 53810, Note_on_c, 0, 54, 0
2, 53815, Control_c, 0, 64, 63
2, 53830, Control_c, 0, 64, 60
2, 53845, Control_c, 0, 64, 56
2, 53860, Control_c, 0, 64, 51
2, 53875, Control_c, 0, 64, 45
2, 53891, Control_c, 0, 64, 38
2, 53905, Control_c, 0, 64, 29
2, 53920, Control_c, 0, 64, 20
2, 53936, Control_c, 0, 64, 0
2, 54239, Note_on_c, 0, 50, 44
2, 54311, Note_on_c, 0, 50, 0
2, 54325, Note_on_c, 0, 52, 55
2, 54391, Note_on_c, 0, 52, 0
2, 54402, Note_on_c, 0, 54, 55
2, 54448, Note_on_c, 0, 54, 0
2, 54470, Note_on_c, 0, 55, 58
2, 54550, Note_on_c, 0, 55, 0
2, 54552, Note_on_c, 0, 54, 65
2, 54618, Note_on_c, 0, 54, 0
2, 54624, Note_on_c, 0, 52, 62
2, 54702, Note_on_c, 0, 52, 0
2, 54720, Note_on_c, 0, 54, 62
2, 54778, Note_on_c, 0, 54, 0
2, 54781, Note_on_c, 0, 50, 58
2, 54882, Note_on_c, 0, 50, 0
2, 54895, Note_on_c, 0, 59, 68
2, 55036, Control_c, 0, 64, 32
2, 55050, Control_c, 0, 64, 43
2, 55065, Control_c, 0, 64, 51
2, 55081, Control_c, 0, 64, 56
2, 55095, Control_c, 0, 64, 60
2, 55110, Control_c, 0, 64, 63
2, 55126, Control_c, 0, 64, 66
2, 55141, Control_c, 0, 64, 73
2, 55157, Control_c, 0, 64, 88
2, 55171, Note_on_c, 0, 59, 0
2, 55173, Control_c, 0, 64, 127
2, 55510, Note_on_c, 0, 59, 63
2, 55569, Note_on_c, 0, 59, 0
2, 55682, Control_c, 0, 64, 107
2, 55697, Control_c, 0, 64, 91
2, 55705, Note_on_c, 0, 57, 72
2, 55712, Control_c, 0, 64, 76
2, 55728, Control_c, 0, 64, 67
2, 55742, Control_c, 0, 64, 57
2, 55758, Control_c, 0, 64, 30
2, 55773, Control_c, 0, 64, 0
2, 55880, Control_c, 0, 64, 31
2, 55894, Control_c, 0, 64, 45
2, 55909, Control_c, 0, 64, 52
2, 55925, Control_c, 0, 64, 56
2, 55939, Control_c, 0, 64, 58
2, 55955, Control_c, 0, 64, 61
2, 55970, Control_c, 0, 64, 63
2, 55986, Control_c, 0, 64, 66
2, 56002, Control_c, 0, 64, 71
2, 56017, Control_c, 0, 64, 79
2, 56032, Control_c, 0, 64, 98
2, 56047, Control_c, 0, 64, 127
2, 56077, Note_on_c, 0, 57, 0
2, 56257, Note_on_c, 0, 55, 63
2, 56309, Note_on_c, 0, 55, 0
2, 56414, Control_c, 0, 64, 107
2, 56430, Control_c, 0, 64, 97
2, 56452, Control_c, 0, 64, 89
2, 56467, Control_c, 0, 64, 80
2, 56476, Note_on_c, 0, 54, 72
2, 56482, Control_c, 0, 64, 70
2, 56497, Control_c, 0, 64, 64
2, 56513, Control_c, 0, 64, 52
2, 56528, Control_c, 0, 64, 0
2, 56680, Control_c, 0, 64, 35
2, 56695, Control_c, 0, 64, 49
2, 56711, Control_c, 0, 64, 55
2, 56726, Control_c, 0, 64, 60
2, 56740, Control_c, 0, 64, 63
2, 56756, Control_c, 0, 64, 66
2, 56771, Control_c, 0, 64, 71
2, 56785, Control_c, 0, 64, 79
2, 56801, Control_c, 0, 64, 95
2, 56818, Control_c, 0, 64, 127
2, 56831, Note_on_c, 0, 54, 0
2, 56996, Note_on_c, 0, 55, 71
2, 57040, Note_on_c, 0, 55, 0
2, 57076, Control_c, 0, 64, 119
2, 57091, Control_c, 0, 64, 110
2, 57105, Control_c, 0, 64, 106
2, 57121, Control_c, 0, 64, 104
2, 57136, Control_c, 0, 64, 99
2, 57152, Control_c, 0, 64, 92
2, 57167, Control_c, 0, 64, 81
2, 57182, Control_c, 0, 64, 70
2, 57192, Note_on_c, 0, 54, 67
2, 57195, Note_on_c, 0, 57, 69
2, 57198, Control_c, 0, 64, 62
2, 57219, Control_c, 0, 64, 50
2, 57235, Control_c, 0, 64, 26
2, 57250, Control_c, 0, 64, 0
2, 57283, Note_on_c, 0, 59, 65
2, 57301, Note_on_c, 0, 57, 0
2, 57360, Note_on_c, 0, 61, 72
2, 57391, Note_on_c, 0, 59, 0
2, 57437, Note_on_c, 0, 61, 0
2, 57441, Note_on_c, 0, 62, 76
2, 57526, Note_on_c, 0, 61, 75
2, 57540, Note_on_c, 0, 62, 0
2, 57550, Note_on_c, 0, 54, 0
2, 57597, Note_on_c, 0, 61, 0
2, 57606, Note_on_c, 0, 59, 76
2, 57690, Note_on_c, 0, 61, 78
2, 57696, Note_on_c, 0, 52, 44
2, 57696, Note_on_c, 0, 59, 0
2, 57727, Note_on_c, 0, 52, 0
2, 57753, Note_on_c, 0, 61, 0
2, 57763, Note_on_c, 0, 57, 76
2, 57857, Note_on_c, 0, 66, 82
2, 57866, Note_on_c, 0, 50, 59
2, 57907, Control_c, 0, 64, 21
2, 57922, Control_c, 0, 64, 43
2, 57936, Control_c, 0, 64, 54
2, 57952, Control_c, 0, 64, 58
2, 57967, Control_c, 0, 64, 60
2, 57991, Control_c, 0, 64, 62
2, 58006, Control_c, 0, 64, 65
2, 58021, Control_c, 0, 64, 68
2, 58036, Control_c, 0, 64, 76
2, 58051, Control_c, 0, 64, 94
2, 58058, Note_on_c, 0, 50, 0
2, 58066, Control_c, 0, 64, 127
2, 58248, Note_on_c, 0, 66, 0
2, 58264, Note_on_c, 0, 57, 0
2, 58421, Note_on_c, 0, 66, 72
2, 58515, Note_on_c, 0, 66, 0
2, 58630, Control_c, 0, 64, 121
2, 58634, Note_on_c, 0, 64, 75
2, 58643, Note_on_c, 0, 52, 55
2, 58645, Control_c, 0, 64, 89
2, 58660, Control_c, 0, 64, 70
2, 58675, Control_c, 0, 64, 58
2, 58690, Control_c, 0, 64, 24
2, 58705, Control_c, 0, 64, 0
2, 58789, Control_c, 0, 64, 30
2, 58804, Control_c, 0, 64, 44
2, 58820, Control_c, 0, 64, 53
2, 58835, Control_c, 0, 64, 57
2, 58850, Control_c, 0, 64, 60
2, 58865, Control_c, 0, 64, 63
2, 58880, Control_c, 0, 64, 65
2, 58895, Control_c, 0, 64, 69
2, 58911, Control_c, 0, 64, 75
2, 58925, Control_c, 0, 64, 88
2, 58941, Control_c, 0, 64, 127
2, 58974, Note_on_c, 0, 52, 0
2, 59025, Note_on_c, 0, 64, 0
2, 59227, Note_on_c, 0, 62, 61
2, 59291, Control_c, 0, 64, 121
2, 59304, Note_on_c, 0, 62, 0
2, 59307, Control_c, 0, 64, 113
2, 59322, Control_c, 0, 64, 109
2, 59337, Control_c, 0, 64, 104
2, 59352, Control_c, 0, 64, 101
2, 59367, Control_c, 0, 64, 99
2, 59383, Control_c, 0, 64, 97
2, 59398, Control_c, 0, 64, 95
2, 59413, Control_c, 0, 64, 92
2, 59428, Control_c, 0, 64, 85
2, 59431, Note_on_c, 0, 45, 48
2, 59435, Note_on_c, 0, 61, 66
2, 59443, Control_c, 0, 64, 75
2, 59458, Control_c, 0, 64, 65
2, 59474, Control_c, 0, 64, 54
2, 59489, Control_c, 0, 64, 23
2, 59504, Control_c, 0, 64, 0
2, 59557, Control_c, 0, 64, 38
2, 59572, Control_c, 0, 64, 53
2, 59588, Control_c, 0, 64, 60
2, 59603, Control_c, 0, 64, 63
2, 59618, Control_c, 0, 64, 66
2, 59633, Control_c, 0, 64, 71
2, 59647, Note_on_c, 0, 45, 0
2, 59648, Control_c, 0, 64, 81
2, 59664, Control_c, 0, 64, 112
2, 59678, Control_c, 0, 64, 127
2, 59765, Note_on_c, 0, 61, 0
2, 59955, Note_on_c, 0, 52, 57
2, 60034, Note_on_c, 0, 54, 65
2, 60037, Note_on_c, 0, 52, 0
2, 60074, Control_c, 0, 64, 108
2, 60089, Control_c, 0, 64, 89
2, 60102, Note_on_c, 0, 55, 64
2, 60104, Note_on_c, 0, 54, 0
2, 60105, Control_c, 0, 64, 75
2, 60119, Control_c, 0, 64, 66
2, 60134, Control_c, 0, 64, 57
2, 60150, Control_c, 0, 64, 43
2, 60165, Control_c, 0, 64, 24
2, 60165, Note_on_c, 0, 55, 0
2, 60175, Note_on_c, 0, 57, 66
2, 60181, Control_c, 0, 64, 0
2, 60194, Note_on_c, 0, 66, 78
2, 60386, Control_c, 0, 64, 33
2, 60400, Control_c, 0, 64, 50
2, 60415, Control_c, 0, 64, 56
2, 60431, Control_c, 0, 64, 60
2, 60446, Control_c, 0, 64, 64
2, 60462, Control_c, 0, 64, 68
2, 60476, Control_c, 0, 64, 78
2, 60491, Control_c, 0, 64, 127
2, 60542, Note_on_c, 0, 66, 0
2, 60747, Note_on_c, 0, 66, 65
2, 60795, Control_c, 0, 64, 95
2, 60797, Note_on_c, 0, 66, 0
2, 60810, Control_c, 0, 64, 81
2, 60826, Control_c, 0, 64, 73
2, 60841, Control_c, 0, 64, 69
2, 60856, Control_c, 0, 64, 67
2, 60872, Control_c, 0, 64, 66
2, 60886, Control_c, 0, 64, 65
2, 60903, Control_c, 0, 64, 62
2, 60918, Control_c, 0, 64, 57
2, 60933, Control_c, 0, 64, 50
2, 60947, Note_on_c, 0, 59, 69
2, 60948, Control_c, 0, 64, 43
2, 60959, Note_on_c, 0, 57, 0
2, 60963, Control_c, 0, 64, 31
2, 60978, Control_c, 0, 64, 0
2, 61122, Control_c, 0, 64, 19
2, 61137, Control_c, 0, 64, 46
2, 61153, Control_c, 0, 64, 58
2, 61168, Control_c, 0, 64, 61
2, 61184, Control_c, 0, 64, 63
2, 61199, Control_c, 0, 64, 65
2, 61214, Control_c, 0, 64, 70
2, 61230, Control_c, 0, 64, 79
2, 61244, Control_c, 0, 64, 99
2, 61260, Control_c, 0, 64, 127
2, 61278, Note_on_c, 0, 59, 0
2, 61416, Note_on_c, 0, 59, 55
2, 61481, Note_on_c, 0, 59, 0
2, 61487, Note_on_c, 0, 61, 55
2, 61547, Note_on_c, 0, 62, 63
2, 61563, Control_c, 0, 64, 104
2, 61563, Note_on_c, 0, 61, 0
2, 61578, Control_c, 0, 64, 93
2, 61593, Control_c, 0, 64, 85
2, 61608, Control_c, 0, 64, 80
2, 61622, Note_on_c, 0, 64, 74
2, 61624, Control_c, 0, 64, 75
2, 61624, Note_on_c, 0, 62, 0
2, 61632, Note_on_c, 0, 55, 57
2, 61639, Control_c, 0, 64, 70
2, 61654, Control_c, 0, 64, 66
2, 61670, Control_c, 0, 64, 63
2, 61685, Control_c, 0, 64, 58
2, 61701, Control_c, 0, 64, 51
2, 61716, Control_c, 0, 64, 43
2, 61731, Control_c, 0, 64, 36
2, 61746, Control_c, 0, 64, 31
2, 61761, Control_c, 0, 64, 27
2, 61776, Control_c, 0, 64, 21
2, 61792, Control_c, 0, 64, 0
2, 61798, Note_on_c, 0, 64, 0
2, 61807, Note_on_c, 0, 62, 65
2, 61849, Note_on_c, 0, 62, 0
2, 61981, Note_on_c, 0, 64, 72
2, 62013, Note_on_c, 0, 64, 0
2, 62163, Note_on_c, 0, 61, 70
2, 62201, Note_on_c, 0, 61, 0
2, 62316, Control_c, 0, 64, 28
2, 62331, Control_c, 0, 64, 43
2, 62346, Control_c, 0, 64, 50
2, 62361, Control_c, 0, 64, 54
2, 62375, Note_on_c, 0, 57, 59
2, 62376, Control_c, 0, 64, 58
2, 62392, Control_c, 0, 64, 61
2, 62407, Control_c, 0, 64, 64
2, 62422, Control_c, 0, 64, 66
2, 62437, Control_c, 0, 64, 69
2, 62452, Control_c, 0, 64, 74
2, 62468, Control_c, 0, 64, 83
2, 62471, Note_on_c, 0, 57, 0
2, 62483, Control_c, 0, 64, 108
2, 62498, Control_c, 0, 64, 127
2, 62866, Note_on_c, 0, 55, 0
2, 62898, Note_on_c, 0, 54, 59
2, 62954, Note_on_c, 0, 54, 0
2, 62972, Note_on_c, 0, 52, 62
2, 62977, Control_c, 0, 64, 110
2, 62993, Control_c, 0, 64, 94
2, 63008, Control_c, 0, 64, 86
2, 63024, Control_c, 0, 64, 80
2, 63039, Control_c, 0, 64, 77
2, 63048, Note_on_c, 0, 52, 0
2, 63053, Control_c, 0, 64, 73
2, 63062, Note_on_c, 0, 54, 68
2, 63069, Control_c, 0, 64, 69
2, 63072, Note_on_c, 0, 62, 64
2, 63084, Control_c, 0, 64, 66
2, 63100, Control_c, 0, 64, 63
2, 63115, Control_c, 0, 64, 61
2, 63129, Control_c, 0, 64, 59
2, 63145, Control_c, 0, 64, 56
2, 63153, Note_on_c, 0, 64, 65
2, 63160, Control_c, 0, 64, 53
2, 63168, Note_on_c, 0, 62, 0
2, 63175, Control_c, 0, 64, 49
2, 63189, Control_c, 0, 64, 45
2, 63204, Control_c, 0, 64, 42
2, 63220, Control_c, 0, 64, 39
2, 63223, Note_on_c, 0, 66, 65
2, 63235, Control_c, 0, 64, 35
2, 63250, Control_c, 0, 64, 27
2, 63253, Note_on_c, 0, 64, 0
2, 63266, Control_c, 0, 64, 20
2, 63281, Control_c, 0, 64, 17
2, 63296, Control_c, 0, 64, 15
2, 63300, Note_on_c, 0, 66, 0
2, 63305, Note_on_c, 0, 67, 70
2, 63312, Control_c, 0, 64, 13
2, 63327, Control_c, 0, 64, 9
2, 63342, Control_c, 0, 64, 0
2, 63388, Note_on_c, 0, 66, 70
2, 63406, Note_on_c, 0, 67, 0
2, 63413, Note_on_c, 0, 54, 0
2, 63460, Note_on_c, 0, 66, 0
2, 63467, Note_on_c, 0, 64, 71
2, 63551, Note_on_c, 0, 66, 74
2, 63559, Note_on_c, 0, 50, 47
2, 63565, Note_on_c, 0, 64, 0
2, 63605, Note_on_c, 0, 50, 0
2, 63611, Note_on_c, 0, 66, 0
2, 63624, Control_c, 0, 64, 16
2, 63628, Note_on_c, 0, 62, 74
2, 63639, Control_c, 0, 64, 20
2, 63669, Control_c, 0, 64, 21
2, 63700, Control_c, 0, 64, 21
2, 63715, Control_c, 0, 64, 24
2, 63722, Note_on_c, 0, 71, 80
2, 63725, Note_on_c, 0, 55, 44
2, 63730, Control_c, 0, 64, 27
2, 63746, Control_c, 0, 64, 30
2, 63761, Control_c, 0, 64, 34
2, 63775, Control_c, 0, 64, 40
2, 63791, Control_c, 0, 64, 47
2, 63806, Control_c, 0, 64, 54
2, 63821, Control_c, 0, 64, 58
2, 63836, Control_c, 0, 64, 62
2, 63851, Control_c, 0, 64, 65
2, 63866, Note_on_c, 0, 55, 0
2, 63867, Control_c, 0, 64, 68
2, 63882, Control_c, 0, 64, 76
2, 63896, Control_c, 0, 64, 92
2, 63912, Control_c, 0, 64, 127
2, 64001, Note_on_c, 0, 71, 0
2, 64079, Note_on_c, 0, 62, 0
2, 64271, Note_on_c, 0, 71, 68
2, 64278, Note_on_c, 0, 52, 43
2, 64330, Note_on_c, 0, 52, 0
2, 64342, Note_on_c, 0, 71, 0
2, 64377, Control_c, 0, 64, 106
2, 64393, Control_c, 0, 64, 91
2, 64408, Control_c, 0, 64, 81
2, 64423, Control_c, 0, 64, 75
2, 64438, Control_c, 0, 64, 71
2, 64453, Control_c, 0, 64, 66
2, 64460, Note_on_c, 0, 69, 65
2, 64467, Note_on_c, 0, 61, 59
2, 64468, Control_c, 0, 64, 62
2, 64469, Note_on_c, 0, 57, 45
2, 64483, Control_c, 0, 64, 53
2, 64498, Control_c, 0, 64, 28
2, 64514, Control_c, 0, 64, 0
2, 64574, Control_c, 0, 64, 24
2, 64590, Control_c, 0, 64, 48
2, 64605, Control_c, 0, 64, 57
2, 64621, Control_c, 0, 64, 61
2, 64635, Control_c, 0, 64, 63
2, 64650, Control_c, 0, 64, 65
2, 64666, Control_c, 0, 64, 70
2, 64681, Control_c, 0, 64, 79
2, 64696, Control_c, 0, 64, 119
2, 64712, Control_c, 0, 64, 127
2, 64749, Note_on_c, 0, 69, 0
2, 64762, Note_on_c, 0, 61, 0
2, 64797, Note_on_c, 0, 57, 0
2, 64999, Note_on_c, 0, 67, 61
2, 65018, Note_on_c, 0, 45, 40
2, 65063, Note_on_c, 0, 45, 0
2, 65067, Note_on_c, 0, 67, 0
2, 65115, Control_c, 0, 64, 106
2, 65130, Control_c, 0, 64, 97
2, 65146, Control_c, 0, 64, 88
2, 65161, Control_c, 0, 64, 80
2, 65176, Control_c, 0, 64, 71
2, 65191, Control_c, 0, 64, 64
2, 65192, Note_on_c, 0, 50, 47
2, 65196, Note_on_c, 0, 66, 62
2, 65198, Note_on_c, 0, 62, 58
2, 65206, Control_c, 0, 64, 56
2, 65222, Control_c, 0, 64, 43
2, 65237, Control_c, 0, 64, 21
2, 65252, Control_c, 0, 64, 0
2, 65358, Control_c, 0, 64, 19
2, 65373, Control_c, 0, 64, 46
2, 65388, Control_c, 0, 64, 57
2, 65403, Control_c, 0, 64, 61
2, 65418, Control_c, 0, 64, 64
2, 65434, Control_c, 0, 64, 66
2, 65449, Control_c, 0, 64, 72
2, 65462, Note_on_c, 0, 50, 0
2, 65464, Control_c, 0, 64, 81
2, 65479, Control_c, 0, 64, 102
2, 65494, Control_c, 0, 64, 127
2, 65510, Note_on_c, 0, 66, 0
2, 65523, Note_on_c, 0, 62, 0
2, 65715, Note_on_c, 0, 68, 64
2, 65721, Note_on_c, 0, 52, 56
2, 65762, Note_on_c, 0, 52, 0
2, 65788, Note_on_c, 0, 68, 0
2, 65883, Control_c, 0, 64, 111
2, 65898, Control_c, 0, 64, 98
2, 65913, Control_c, 0, 64, 89
2, 65913, Note_on_c, 0, 69, 69
2, 65926, Note_on_c, 0, 61, 54
2, 65928, Control_c, 0, 64, 82
2, 65932, Note_on_c, 0, 54, 51
2, 65944, Control_c, 0, 64, 79
2, 65959, Control_c, 0, 64, 76
2, 65974, Control_c, 0, 64, 73
2, 65990, Control_c, 0, 64, 70
2, 65996, Note_on_c, 0, 71, 66
2, 66000, Note_on_c, 0, 69, 0
2, 66005, Control_c, 0, 64, 68
2, 66021, Control_c, 0, 64, 65
2, 66035, Control_c, 0, 64, 64
2, 66050, Control_c, 0, 64, 63
2, 66066, Control_c, 0, 64, 62
2, 66072, Note_on_c, 0, 73, 68
2, 66081, Control_c, 0, 64, 62
2, 66096, Control_c, 0, 64, 61
2, 66109, Note_on_c, 0, 71, 0
2, 66111, Control_c, 0, 64, 60
2, 66126, Control_c, 0, 64, 58
2, 66142, Control_c, 0, 64, 57
2, 66152, Note_on_c, 0, 73, 0
2, 66152, Note_on_c, 0, 74, 73
2, 66184, Note_on_c, 0, 61, 0
2, 66187, Control_c, 0, 64, 57
2, 66202, Control_c, 0, 64, 56
2, 66217, Control_c, 0, 64, 55
2, 66232, Control_c, 0, 64, 54
2, 66237, Note_on_c, 0, 73, 74
2, 66260, Note_on_c, 0, 74, 0
2, 66277, Control_c, 0, 64, 54
2, 66292, Control_c, 0, 64, 53
2, 66308, Control_c, 0, 64, 52
2, 66308, Note_on_c, 0, 73, 0
2, 66313, Note_on_c, 0, 71, 75
2, 66323, Control_c, 0, 64, 52
2, 66326, Note_on_c, 0, 54, 0
2, 66338, Control_c, 0, 64, 51
2, 66394, Note_on_c, 0, 52, 45
2, 66397, Note_on_c, 0, 73, 80
2, 66399, Control_c, 0, 64, 51
2, 66409, Note_on_c, 0, 71, 0
2, 66442, Note_on_c, 0, 52, 0
2, 66469, Note_on_c, 0, 73, 0
2, 66479, Note_on_c, 0, 69, 74
2, 66497, Control_c, 0, 64, 50
2, 66513, Control_c, 0, 64, 50
2, 66528, Control_c, 0, 64, 49
2, 66544, Control_c, 0, 64, 48
2, 66572, Note_on_c, 0, 78, 84
2, 66586, Note_on_c, 0, 50, 49
2, 66595, Note_on_c, 0, 59, 39
2, 66620, Control_c, 0, 64, 49
2, 66635, Control_c, 0, 64, 51
2, 66651, Control_c, 0, 64, 54
2, 66666, Control_c, 0, 64, 58
2, 66681, Control_c, 0, 64, 61
2, 66696, Control_c, 0, 64, 64
2, 66712, Control_c, 0, 64, 67
2, 66727, Control_c, 0, 64, 72
2, 66742, Control_c, 0, 64, 79
2, 66757, Control_c, 0, 64, 90
2, 66772, Control_c, 0, 64, 117
2, 66788, Control_c, 0, 64, 127
2, 66919, Note_on_c, 0, 78, 0
2, 67120, Note_on_c, 0, 78, 72
2, 67123, Note_on_c, 0, 47, 48
2, 67124, Note_on_c, 0, 50, 0
2, 67133, Note_on_c, 0, 69, 0
2, 67161, Note_on_c, 0, 59, 0
2, 67218, Note_on_c, 0, 78, 0
2, 67266, Control_c, 0, 64, 114
2, 67280, Note_on_c, 0, 47, 0
2, 67281, Control_c, 0, 64, 106
2, 67295, Control_c, 0, 64, 100
2, 67311, Control_c, 0, 64, 95
2, 67325, Note_on_c, 0, 52, 48
2, 67326, Control_c, 0, 64, 89
2, 67327, Note_on_c, 0, 76, 68
2, 67338, Note_on_c, 0, 68, 60
2, 67342, Control_c, 0, 64, 83
2, 67356, Control_c, 0, 64, 76
2, 67371, Control_c, 0, 64, 68
2, 67387, Control_c, 0, 64, 63
2, 67402, Control_c, 0, 64, 56
2, 67417, Control_c, 0, 64, 44
2, 67433, Control_c, 0, 64, 19
2, 67448, Control_c, 0, 64, 0
2, 67510, Control_c, 0, 64, 17
2, 67524, Control_c, 0, 64, 43
2, 67540, Control_c, 0, 64, 54
2, 67555, Control_c, 0, 64, 60
2, 67570, Control_c, 0, 64, 63
2, 67586, Control_c, 0, 64, 65
2, 67601, Control_c, 0, 64, 68
2, 67616, Control_c, 0, 64, 73
2, 67628, Note_on_c, 0, 76, 0
2, 67632, Control_c, 0, 64, 80
2, 67641, Note_on_c, 0, 68, 0
2, 67646, Control_c, 0, 64, 94
2, 67662, Control_c, 0, 64, 127
2, 67701, Note_on_c, 0, 52, 0
2, 67857, Note_on_c, 0, 74, 59
2, 67937, Note_on_c, 0, 74, 0
2, 67965, Control_c, 0, 64, 119
2, 67988, Control_c, 0, 64, 111
2, 68003, Control_c, 0, 64, 103
2, 68018, Control_c, 0, 64, 97
2, 68034, Control_c, 0, 64, 91
2, 68048, Control_c, 0, 64, 83
2, 68064, Control_c, 0, 64, 73
2, 68073, Note_on_c, 0, 45, 44
2, 68077, Note_on_c, 0, 57, 36
2, 68078, Note_on_c, 0, 73, 60
2, 68079, Control_c, 0, 64, 63
2, 68082, Note_on_c, 0, 69, 57
2, 68094, Control_c, 0, 64, 46
2, 68110, Control_c, 0, 64, 0
2, 68140, Control_c, 0, 64, 13
2, 68155, Control_c, 0, 64, 39
2, 68170, Control_c, 0, 64, 54
2, 68185, Control_c, 0, 64, 61
2, 68200, Control_c, 0, 64, 64
2, 68215, Control_c, 0, 64, 67
2, 68230, Note_on_c, 0, 73, 0
2, 68231, Control_c, 0, 64, 73
2, 68246, Control_c, 0, 64, 82
2, 68255, Note_on_c, 0, 45, 0
2, 68262, Control_c, 0, 64, 103
2, 68277, Control_c, 0, 64, 127
2, 68305, Note_on_c, 0, 57, 0
2, 68317, Note_on_c, 0, 69, 0
2, 68519, Note_on_c, 0, 76, 47
2, 68567, Control_c, 0, 64, 121
2, 68583, Control_c, 0, 64, 104
2, 68598, Control_c, 0, 64, 94
2, 68602, Note_on_c, 0, 78, 54
2, 68605, Note_on_c, 0, 76, 0
2, 68612, Control_c, 0, 64, 89
2, 68628, Control_c, 0, 64, 86
2, 68643, Control_c, 0, 64, 84
2, 68658, Control_c, 0, 64, 82
2, 68674, Control_c, 0, 64, 79
2, 68686, Note_on_c, 0, 78, 0
2, 68688, Control_c, 0, 64, 77
2, 68689, Note_on_c, 0, 79, 54
2, 68704, Control_c, 0, 64, 74
2, 68719, Control_c, 0, 64, 72
2, 68742, Control_c, 0, 64, 71
2, 68757, Control_c, 0, 64, 71
2, 68772, Control_c, 0, 64, 69
2, 68775, Note_on_c, 0, 73, 61
2, 68775, Note_on_c, 0, 81, 57
2, 68778, Note_on_c, 0, 66, 47
2, 68788, Control_c, 0, 64, 67
2, 68803, Control_c, 0, 64, 65
2, 68817, Control_c, 0, 64, 63
2, 68826, Note_on_c, 0, 79, 0
2, 68833, Control_c, 0, 64, 62
2, 68848, Control_c, 0, 64, 61
2, 68850, Note_on_c, 0, 66, 0
2, 68864, Control_c, 0, 64, 60
2, 68874, Note_on_c, 0, 67, 48
2, 68879, Control_c, 0, 64, 59
2, 68894, Control_c, 0, 64, 57
2, 68910, Control_c, 0, 64, 55
2, 68925, Control_c, 0, 64, 53
2, 68926, Note_on_c, 0, 67, 0
2, 68941, Control_c, 0, 64, 52
2, 68945, Note_on_c, 0, 69, 51
2, 68970, Control_c, 0, 64, 51
2, 68986, Control_c, 0, 64, 50
2, 68994, Note_on_c, 0, 69, 0
2, 69001, Control_c, 0, 64, 49
2, 69016, Control_c, 0, 64, 47
2, 69031, Control_c, 0, 64, 45
2, 69034, Note_on_c, 0, 71, 57
2, 69046, Control_c, 0, 64, 44
2, 69062, Control_c, 0, 64, 43
2, 69077, Control_c, 0, 64, 42
2, 69084, Note_on_c, 0, 73, 0
2, 69090, Note_on_c, 0, 71, 0
2, 69092, Control_c, 0, 64, 41
2, 69108, Control_c, 0, 64, 40
2, 69111, Note_on_c, 0, 81, 0
2, 69120, Note_on_c, 0, 69, 54
2, 69138, Control_c, 0, 64, 40
2, 69154, Control_c, 0, 64, 39
2, 69167, Note_on_c, 0, 69, 0
2, 69195, Note_on_c, 0, 67, 51
2, 69251, Note_on_c, 0, 67, 0
2, 69282, Note_on_c, 0, 81, 56
2, 69292, Note_on_c, 0, 69, 52
2, 69335, Note_on_c, 0, 81, 0
2, 69366, Control_c, 0, 64, 40
2, 69368, Note_on_c, 0, 69, 0
2, 69378, Note_on_c, 0, 66, 51
2, 69396, Control_c, 0, 64, 41
2, 69411, Control_c, 0, 64, 43
2, 69427, Control_c, 0, 64, 46
2, 69442, Control_c, 0, 64, 51
2, 69456, Control_c, 0, 64, 57
2, 69466, Note_on_c, 0, 81, 59
2, 69467, Note_on_c, 0, 71, 52
2, 69472, Control_c, 0, 64, 61
2, 69474, Note_on_c, 0, 66, 0
2, 69475, Note_on_c, 0, 74, 50
2, 69487, Control_c, 0, 64, 64
2, 69511, Control_c, 0, 64, 67
2, 69526, Control_c, 0, 64, 71
2, 69541, Control_c, 0, 64, 77
2, 69556, Control_c, 0, 64, 87
2, 69571, Control_c, 0, 64, 114
2, 69586, Control_c, 0, 64, 127
2, 69732, Note_on_c, 0, 81, 0
2, 69753, Note_on_c, 0, 74, 0
2, 69784, Note_on_c, 0, 71, 0
2, 69875, Control_c, 0, 64, 112
2, 69890, Control_c, 0, 64, 97
2, 69906, Control_c, 0, 64, 88
2, 69921, Control_c, 0, 64, 82
2, 69936, Control_c, 0, 64, 78
2, 69945, Note_on_c, 0, 74, 45
2, 69952, Control_c, 0, 64, 76
2, 69967, Control_c, 0, 64, 76
2, 69998, Control_c, 0, 64, 75
2, 70013, Control_c, 0, 64, 74
2, 70019, Note_on_c, 0, 76, 60
2, 70029, Control_c, 0, 64, 72
2, 70029, Note_on_c, 0, 74, 0
2, 70043, Control_c, 0, 64, 70
2, 70058, Control_c, 0, 64, 69
2, 70074, Control_c, 0, 64, 67
2, 70085, Note_on_c, 0, 78, 63
2, 70089, Control_c, 0, 64, 65
2, 70104, Control_c, 0, 64, 63
2, 70119, Control_c, 0, 64, 60
2, 70124, Note_on_c, 0, 76, 0
2, 70134, Control_c, 0, 64, 55
2, 70150, Control_c, 0, 64, 48
2, 70163, Note_on_c, 0, 64, 48
2, 70165, Control_c, 0, 64, 39
2, 70166, Note_on_c, 0, 74, 62
2, 70168, Note_on_c, 0, 79, 65
2, 70179, Control_c, 0, 64, 26
2, 70195, Control_c, 0, 64, 0
2, 70201, Note_on_c, 0, 78, 0
2, 70234, Note_on_c, 0, 64, 0
2, 70253, Note_on_c, 0, 66, 55
2, 70321, Note_on_c, 0, 66, 0
2, 70339, Control_c, 0, 64, 23
2, 70347, Note_on_c, 0, 67, 52
2, 70355, Control_c, 0, 64, 44
2, 70370, Control_c, 0, 64, 54
2, 70381, Note_on_c, 0, 74, 0
2, 70385, Control_c, 0, 64, 57
2, 70391, Note_on_c, 0, 67, 0
2, 70400, Control_c, 0, 64, 59
2, 70415, Control_c, 0, 64, 60
2, 70423, Note_on_c, 0, 69, 55
2, 70431, Control_c, 0, 64, 62
2, 70445, Control_c, 0, 64, 63
2, 70475, Note_on_c, 0, 69, 0
2, 70476, Control_c, 0, 64, 62
2, 70491, Control_c, 0, 64, 61
2, 70497, Note_on_c, 0, 79, 0
2, 70506, Control_c, 0, 64, 60
2, 70515, Note_on_c, 0, 67, 47
2, 70521, Control_c, 0, 64, 59
2, 70536, Control_c, 0, 64, 58
2, 70552, Control_c, 0, 64, 58
2, 70561, Note_on_c, 0, 67, 0
2, 70567, Control_c, 0, 64, 56
2, 70583, Control_c, 0, 64, 55
2, 70594, Note_on_c, 0, 66, 46
2, 70597, Control_c, 0, 64, 54
2, 70643, Control_c, 0, 64, 53
2, 70656, Note_on_c, 0, 79, 57
2, 70658, Control_c, 0, 64, 53
2, 70662, Note_on_c, 0, 66, 0
2, 70674, Control_c, 0, 64, 52
2, 70681, Note_on_c, 0, 67, 45
2, 70705, Control_c, 0, 64, 51
2, 70719, Control_c, 0, 64, 51
2, 70724, Note_on_c, 0, 79, 0
2, 70734, Control_c, 0, 64, 50
2, 70750, Control_c, 0, 64, 49
2, 70761, Note_on_c, 0, 67, 0
2, 70765, Control_c, 0, 64, 49
2, 70793, Note_on_c, 0, 64, 46
2, 70811, Control_c, 0, 64, 49
2, 70827, Control_c, 0, 64, 51
2, 70842, Control_c, 0, 64, 54
2, 70850, Note_on_c, 0, 64, 0
2, 70852, Note_on_c, 0, 79, 59
2, 70857, Control_c, 0, 64, 58
2, 70870, Control_c, 0, 64, 61
2, 70871, Note_on_c, 0, 73, 45
2, 70872, Note_on_c, 0, 69, 41
2, 70885, Control_c, 0, 64, 64
2, 70901, Control_c, 0, 64, 67
2, 70916, Control_c, 0, 64, 71
2, 70931, Control_c, 0, 64, 80
2, 70946, Control_c, 0, 64, 101
2, 70961, Control_c, 0, 64, 127
2, 71079, Note_on_c, 0, 79, 0
2, 71271, Note_on_c, 0, 73, 0
2, 71283, Note_on_c, 0, 76, 66
2, 71298, Note_on_c, 0, 69, 0
2, 71370, Note_on_c, 0, 74, 67
2, 71403, Note_on_c, 0, 76, 0
2, 71440, Note_on_c, 0, 73, 75
2, 71440, Note_on_c, 0, 74, 0
2, 71516, Note_on_c, 0, 74, 78
2, 71517, Note_on_c, 0, 38, 53
2, 71519, Note_on_c, 0, 69, 86
2, 71519, Note_on_c, 0, 78, 88
2, 71531, Control_c, 0, 64, 102
2, 71541, Note_on_c, 0, 73, 0
2, 71547, Control_c, 0, 64, 85
2, 71563, Control_c, 0, 64, 73
2, 71577, Control_c, 0, 64, 66
2, 71593, Control_c, 0, 64, 64
2, 71595, Note_on_c, 0, 38, 0
2, 71596, Note_on_c, 0, 40, 65
2, 71608, Control_c, 0, 64, 63
2, 71624, Control_c, 0, 64, 61
2, 71639, Control_c, 0, 64, 60
2, 71653, Control_c, 0, 64, 56
2, 71668, Note_on_c, 0, 42, 75
2, 71669, Control_c, 0, 64, 54
2, 71684, Control_c, 0, 64, 53
2, 71688, Note_on_c, 0, 40, 0
2, 71714, Control_c, 0, 64, 52
2, 71729, Control_c, 0, 64, 51
2, 71745, Control_c, 0, 64, 50
2, 71760, Control_c, 0, 64, 48
2, 71767, Note_on_c, 0, 43, 75
2, 71769, Note_on_c, 0, 42, 0
2, 71790, Control_c, 0, 64, 48
2, 71829, Control_c, 0, 64, 47
2, 71838, Note_on_c, 0, 69, 0
2, 71865, Note_on_c, 0, 42, 79
2, 71883, Note_on_c, 0, 43, 0
2, 71884, Note_on_c, 0, 78, 0
2, 71889, Control_c, 0, 64, 47
2, 71958, Note_on_c, 0, 40, 66
2, 71971, Note_on_c, 0, 42, 0
2, 71981, Control_c, 0, 64, 46
2, 71995, Control_c, 0, 64, 45
2, 72009, Note_on_c, 0, 74, 0
2, 72010, Control_c, 0, 64, 44
2, 72026, Control_c, 0, 64, 43
2, 72028, Note_on_c, 0, 73, 71
2, 72029, Note_on_c, 0, 67, 77
2, 72030, Note_on_c, 0, 76, 71
2, 72047, Note_on_c, 0, 42, 74
2, 72055, Note_on_c, 0, 40, 0
2, 72056, Control_c, 0, 64, 43
2, 72068, Note_on_c, 0, 73, 0
2, 72071, Control_c, 0, 64, 41
2, 72071, Note_on_c, 0, 76, 0
2, 72072, Note_on_c, 0, 67, 0
2, 72086, Control_c, 0, 64, 39
2, 72102, Control_c, 0, 64, 37
2, 72117, Control_c, 0, 64, 37
2, 72128, Note_on_c, 0, 38, 66
2, 72137, Note_on_c, 0, 42, 0
2, 72231, Note_on_c, 0, 74, 75
2, 72233, Note_on_c, 0, 71, 75
2, 72234, Note_on_c, 0, 66, 81
2, 72239, Control_c, 0, 64, 36
2, 72246, Note_on_c, 0, 47, 71
2, 72254, Control_c, 0, 64, 36
2, 72268, Note_on_c, 0, 38, 0
2, 72284, Control_c, 0, 64, 38
2, 72299, Control_c, 0, 64, 47
2, 72315, Control_c, 0, 64, 55
2, 72329, Control_c, 0, 64, 61
2, 72345, Control_c, 0, 64, 64
2, 72360, Control_c, 0, 64, 67
2, 72376, Control_c, 0, 64, 72
2, 72392, Control_c, 0, 64, 82
2, 72407, Control_c, 0, 64, 98
2, 72419, Note_on_c, 0, 47, 0
2, 72423, Control_c, 0, 64, 127
2, 72545, Note_on_c, 0, 66, 0
2, 72565, Note_on_c, 0, 71, 0
2, 72667, Note_on_c, 0, 74, 0
2, 72796, Note_on_c, 0, 76, 76
2, 72798, Note_on_c, 0, 67, 75
2, 72818, Note_on_c, 0, 47, 66
2, 72853, Note_on_c, 0, 47, 0
2, 72859, Note_on_c, 0, 67, 0
2, 72880, Note_on_c, 0, 76, 0
2, 72916, Control_c, 0, 64, 117
2, 72931, Control_c, 0, 64, 112
2, 72947, Control_c, 0, 64, 108
2, 72961, Control_c, 0, 64, 104
2, 72976, Control_c, 0, 64, 99
2, 72992, Control_c, 0, 64, 88
2, 72998, Note_on_c, 0, 73, 79
2, 73000, Note_on_c, 0, 45, 61
2, 73000, Note_on_c, 0, 64, 75
2, 73005, Note_on_c, 0, 69, 68
2, 73007, Control_c, 0, 64, 75
2, 73023, Control_c, 0, 64, 64
2, 73037, Control_c, 0, 64, 45
2, 73050, Control_c, 0, 64, 0
2, 73111, Control_c, 0, 64, 21
2, 73126, Control_c, 0, 64, 46
2, 73141, Control_c, 0, 64, 58
2, 73157, Control_c, 0, 64, 63
2, 73172, Control_c, 0, 64, 66
2, 73188, Control_c, 0, 64, 72
2, 73203, Control_c, 0, 64, 83
2, 73218, Control_c, 0, 64, 111
2, 73234, Control_c, 0, 64, 127
2, 73340, Note_on_c, 0, 64, 0
2, 73355, Note_on_c, 0, 45, 0
2, 73369, Note_on_c, 0, 73, 0
2, 73530, Control_c, 0, 64, 113
2, 73531, Note_on_c, 0, 73, 76
2, 73532, Note_on_c, 0, 43, 57
2, 73537, Note_on_c, 0, 69, 0
2, 73545, Control_c, 0, 64, 92
2, 73561, Control_c, 0, 64, 80
2, 73570, Note_on_c, 0, 43, 0
2, 73576, Control_c, 0, 64, 71
2, 73591, Control_c, 0, 64, 66
2, 73606, Control_c, 0, 64, 63
2, 73621, Control_c, 0, 64, 62
2, 73634, Note_on_c, 0, 73, 0
2, 73652, Control_c, 0, 64, 61
2, 73668, Control_c, 0, 64, 61
2, 73682, Control_c, 0, 64, 60
2, 73697, Control_c, 0, 64, 58
2, 73713, Control_c, 0, 64, 56
2, 73727, Control_c, 0, 64, 51
2, 73735, Note_on_c, 0, 69, 66
2, 73735, Note_on_c, 0, 73, 77
2, 73737, Note_on_c, 0, 62, 67
2, 73742, Control_c, 0, 64, 39
2, 73742, Note_on_c, 0, 42, 59
2, 73758, Control_c, 0, 64, 0
2, 73864, Control_c, 0, 64, 32
2, 73879, Control_c, 0, 64, 58
2, 73894, Control_c, 0, 64, 67
2, 73897, Note_on_c, 0, 42, 0
2, 73910, Control_c, 0, 64, 76
2, 73925, Control_c, 0, 64, 95
2, 73939, Control_c, 0, 64, 127
2, 74046, Note_on_c, 0, 62, 0
2, 74105, Note_on_c, 0, 69, 0
2, 74126, Note_on_c, 0, 73, 0
2, 74221, Note_on_c, 0, 50, 62
2, 74291, Note_on_c, 0, 52, 61
2, 74316, Note_on_c, 0, 50, 0
2, 74343, Control_c, 0, 64, 108
2, 74359, Control_c, 0, 64, 100
2, 74366, Note_on_c, 0, 54, 69
2, 74373, Control_c, 0, 64, 95
2, 74389, Control_c, 0, 64, 91
2, 74404, Control_c, 0, 64, 87
2, 74404, Note_on_c, 0, 52, 0
2, 74419, Control_c, 0, 64, 83
2, 74435, Control_c, 0, 64, 77
2, 74449, Control_c, 0, 64, 73
2, 74450, Note_on_c, 0, 55, 66
2, 74459, Note_on_c, 0, 71, 77
2, 74460, Note_on_c, 0, 62, 63
2, 74464, Control_c, 0, 64, 69
2, 74479, Note_on_c, 0, 54, 0
2, 74480, Control_c, 0, 64, 65
2, 74495, Control_c, 0, 64, 62
2, 74511, Control_c, 0, 64, 56
2, 74525, Control_c, 0, 64, 48
2, 74530, Note_on_c, 0, 73, 74
2, 74540, Control_c, 0, 64, 42
2, 74556, Control_c, 0, 64, 38
2, 74570, Control_c, 0, 64, 34
2, 74584, Note_on_c, 0, 71, 0
2, 74585, Control_c, 0, 64, 26
2, 74601, Control_c, 0, 64, 16
2, 74612, Note_on_c, 0, 74, 71
2, 74616, Control_c, 0, 64, 0
2, 74683, Note_on_c, 0, 73, 0
2, 74695, Note_on_c, 0, 76, 76
2, 74699, Note_on_c, 0, 74, 0
2, 74708, Control_c, 0, 64, 9
2, 74722, Control_c, 0, 64, 17
2, 74737, Control_c, 0, 64, 24
2, 74753, Control_c, 0, 64, 28
2, 74768, Control_c, 0, 64, 30
2, 74777, Note_on_c, 0, 74, 78
2, 74799, Control_c, 0, 64, 30
2, 74805, Note_on_c, 0, 55, 0
2, 74808, Note_on_c, 0, 76, 0
2, 74814, Control_c, 0, 64, 31
2, 74830, Control_c, 0, 64, 33
2, 74831, Note_on_c, 0, 62, 0
2, 74845, Control_c, 0, 64, 34
2, 74864, Note_on_c, 0, 74, 0
2, 74865, Note_on_c, 0, 73, 78
2, 74914, Control_c, 0, 64, 35
2, 74929, Control_c, 0, 64, 37
2, 74944, Control_c, 0, 64, 38
2, 74955, Note_on_c, 0, 74, 84
2, 74956, Note_on_c, 0, 54, 55
2, 74960, Control_c, 0, 64, 39
2, 74973, Note_on_c, 0, 73, 0
2, 74974, Control_c, 0, 64, 40
2, 74990, Control_c, 0, 64, 40
2, 74995, Note_on_c, 0, 54, 0
2, 75026, Note_on_c, 0, 74, 0
2, 75041, Note_on_c, 0, 71, 78
2, 75141, Control_c, 0, 64, 41
2, 75146, Note_on_c, 0, 79, 83
2, 75152, Note_on_c, 0, 52, 67
2, 75153, Note_on_c, 0, 61, 70
2, 75157, Control_c, 0, 64, 44
2, 75172, Control_c, 0, 64, 50
2, 75188, Control_c, 0, 64, 56
2, 75202, Control_c, 0, 64, 61
2, 75217, Control_c, 0, 64, 64
2, 75233, Control_c, 0, 64, 67
2, 75248, Control_c, 0, 64, 72
2, 75263, Control_c, 0, 64, 82
2, 75279, Control_c, 0, 64, 106
2, 75293, Control_c, 0, 64, 127
2, 75345, Note_on_c, 0, 61, 0
2, 75438, Note_on_c, 0, 79, 0
2, 75538, Note_on_c, 0, 71, 0
2, 75710, Note_on_c, 0, 79, 72
2, 75715, Note_on_c, 0, 49, 60
2, 75753, Note_on_c, 0, 52, 0
2, 75780, Note_on_c, 0, 79, 0
2, 75834, Control_c, 0, 64, 121
2, 75849, Control_c, 0, 64, 109
2, 75863, Control_c, 0, 64, 102
2, 75879, Control_c, 0, 64, 96
2, 75894, Control_c, 0, 64, 89
2, 75908, Note_on_c, 0, 78, 80
2, 75909, Note_on_c, 0, 70, 77
2, 75910, Control_c, 0, 64, 79
2, 75916, Note_on_c, 0, 54, 68
2, 75925, Control_c, 0, 64, 68
2, 75939, Control_c, 0, 64, 58
2, 75939, Note_on_c, 0, 49, 0
2, 75955, Control_c, 0, 64, 12
2, 75970, Control_c, 0, 64, 0
2, 76046, Control_c, 0, 64, 45
2, 76061, Control_c, 0, 64, 59
2, 76077, Control_c, 0, 64, 64
2, 76092, Control_c, 0, 64, 68
2, 76108, Control_c, 0, 64, 74
2, 76123, Control_c, 0, 64, 87
2, 76137, Control_c, 0, 64, 127
2, 76156, Note_on_c, 0, 54, 0
2, 76217, Note_on_c, 0, 78, 0
2, 76332, Note_on_c, 0, 70, 0
2, 76470, Note_on_c, 0, 76, 73
2, 76569, Note_on_c, 0, 76, 0
2, 76637, Control_c, 0, 64, 114
2, 76652, Control_c, 0, 64, 102
2, 76663, Note_on_c, 0, 74, 73
2, 76665, Note_on_c, 0, 71, 70
2, 76668, Control_c, 0, 64, 91
2, 76673, Note_on_c, 0, 47, 46
2, 76678, Note_on_c, 0, 59, 36
2, 76683, Control_c, 0, 64, 79
2, 76699, Control_c, 0, 64, 69
2, 76713, Control_c, 0, 64, 61
2, 76728, Control_c, 0, 64, 47
2, 76744, Control_c, 0, 64, 41
2, 76745, Note_on_c, 0, 59, 0
2, 76759, Control_c, 0, 64, 43
2, 76759, Note_on_c, 0, 47, 0
2, 76762, Note_on_c, 0, 49, 53
2, 76775, Control_c, 0, 64, 47
2, 76789, Control_c, 0, 64, 50
2, 76804, Control_c, 0, 64, 54
2, 76820, Control_c, 0, 64, 56
2, 76834, Control_c, 0, 64, 57
2, 76843, Note_on_c, 0, 50, 57
2, 76855, Note_on_c, 0, 49, 0
2, 76865, Control_c, 0, 64, 58
2, 76880, Control_c, 0, 64, 58
2, 76896, Control_c, 0, 64, 59
2, 76902, Note_on_c, 0, 50, 0
2, 76907, Note_on_c, 0, 52, 68
2, 76910, Control_c, 0, 64, 59
2, 76956, Control_c, 0, 64, 59
2, 76980, Note_on_c, 0, 71, 0
2, 76986, Control_c, 0, 64, 58
2, 76986, Note_on_c, 0, 52, 0
2, 76998, Note_on_c, 0, 50, 58
2, 77017, Control_c, 0, 64, 58
2, 77032, Control_c, 0, 64, 57
2, 77047, Control_c, 0, 64, 57
2, 77051, Note_on_c, 0, 74, 0
2, 77052, Note_on_c, 0, 50, 0
2, 77063, Control_c, 0, 64, 56
2, 77064, Note_on_c, 0, 49, 59
2, 77123, Control_c, 0, 64, 56
2, 77146, Note_on_c, 0, 49, 0
2, 77179, Note_on_c, 0, 50, 49
2, 77185, Control_c, 0, 64, 55
2, 77206, Control_c, 0, 64, 55
2, 77222, Control_c, 0, 64, 54
2, 77222, Note_on_c, 0, 50, 0
2, 77237, Control_c, 0, 64, 54
2, 77237, Note_on_c, 0, 47, 46
2, 77252, Control_c, 0, 64, 52
2, 77268, Control_c, 0, 64, 51
2, 77282, Control_c, 0, 64, 50
2, 77299, Control_c, 0, 64, 48
2, 77314, Control_c, 0, 64, 47
2, 77329, Control_c, 0, 64, 46
2, 77344, Control_c, 0, 64, 45
2, 77360, Note_on_c, 0, 56, 44
2, 77377, Note_on_c, 0, 83, 57
2, 77384, Note_on_c, 0, 47, 0
2, 77390, Control_c, 0, 64, 47
2, 77405, Control_c, 0, 64, 50
2, 77421, Control_c, 0, 64, 53
2, 77435, Control_c, 0, 64, 56
2, 77450, Control_c, 0, 64, 57
2, 77466, Control_c, 0, 64, 59
2, 77481, Control_c, 0, 64, 60
2, 77497, Control_c, 0, 64, 62
2, 77512, Control_c, 0, 64, 63
2, 77527, Control_c, 0, 64, 65
2, 77543, Control_c, 0, 64, 67
2, 77556, Note_on_c, 0, 81, 54
2, 77557, Control_c, 0, 64, 69
2, 77558, Note_on_c, 0, 83, 0
2, 77572, Control_c, 0, 64, 72
2, 77588, Control_c, 0, 64, 78
2, 77603, Control_c, 0, 64, 86
2, 77619, Control_c, 0, 64, 97
2, 77625, Note_on_c, 0, 56, 0
2, 77633, Control_c, 0, 64, 127
2, 77745, Note_on_c, 0, 81, 0
2, 77745, Note_on_c, 0, 83, 60
2, 77899, Note_on_c, 0, 83, 0
2, 77911, Note_on_c, 0, 80, 57
2, 77984, Note_on_c, 0, 80, 0
2, 78066, Control_c, 0, 64, 117
2, 78080, Control_c, 0, 64, 107
2, 78096, Control_c, 0, 64, 95
2, 78111, Control_c, 0, 64, 83
2, 78111, Note_on_c, 0, 80, 59
2, 78112, Note_on_c, 0, 71, 48
2, 78119, Note_on_c, 0, 74, 38
2, 78126, Control_c, 0, 64, 72
2, 78142, Control_c, 0, 64, 65
2, 78157, Control_c, 0, 64, 58
2, 78172, Control_c, 0, 64, 52
2, 78188, Control_c, 0, 64, 49
2, 78203, Control_c, 0, 64, 50
2, 78219, Control_c, 0, 64, 52
2, 78234, Control_c, 0, 64, 57
2, 78248, Control_c, 0, 64, 62
2, 78264, Control_c, 0, 64, 65
2, 78279, Control_c, 0, 64, 69
2, 78287, Note_on_c, 0, 74, 0
2, 78288, Note_on_c, 0, 78, 60
2, 78295, Control_c, 0, 64, 73
2, 78307, Note_on_c, 0, 80, 0
2, 78310, Control_c, 0, 64, 78
2, 78324, Control_c, 0, 64, 85
2, 78337, Note_on_c, 0, 71, 0
2, 78340, Control_c, 0, 64, 94
2, 78355, Control_c, 0, 64, 115
2, 78370, Control_c, 0, 64, 127
2, 78474, Note_on_c, 0, 80, 57
2, 78646, Note_on_c, 0, 76, 57
2, 78647, Note_on_c, 0, 80, 0
2, 78657, Note_on_c, 0, 68, 49
2, 78672, Note_on_c, 0, 71, 29
2, 78674, Control_c, 0, 64, 114
2, 78689, Control_c, 0, 64, 109
2, 78692, Note_on_c, 0, 78, 0
2, 78694, Note_on_c, 0, 76, 0
2, 78700, Note_on_c, 0, 68, 0
2, 78705, Control_c, 0, 64, 105
2, 78709, Note_on_c, 0, 71, 0
2, 78719, Control_c, 0, 64, 102
2, 78742, Control_c, 0, 64, 98
2, 78757, Control_c, 0, 64, 95
2, 78772, Control_c, 0, 64, 92
2, 78788, Control_c, 0, 64, 88
2, 78803, Control_c, 0, 64, 83
2, 78818, Control_c, 0, 64, 74
2, 78833, Control_c, 0, 64, 65
2, 78848, Control_c, 0, 64, 56
2, 78848, Note_on_c, 0, 76, 57
2, 78851, Note_on_c, 0, 68, 37
2, 78851, Note_on_c, 0, 71, 40
2, 78864, Control_c, 0, 64, 47
2, 78878, Control_c, 0, 64, 45
2, 78894, Control_c, 0, 64, 47
2, 78909, Control_c, 0, 64, 50
2, 78924, Control_c, 0, 64, 56
2, 78941, Control_c, 0, 64, 60
2, 78956, Control_c, 0, 64, 62
2, 78970, Control_c, 0, 64, 64
2, 78986, Control_c, 0, 64, 65
2, 79001, Control_c, 0, 64, 68
2, 79008, Note_on_c, 0, 76, 0
2, 79010, Note_on_c, 0, 74, 58
2, 79017, Control_c, 0, 64, 72
2, 79032, Control_c, 0, 64, 77
2, 79046, Control_c, 0, 64, 83
2, 79049, Note_on_c, 0, 71, 0
2, 79062, Control_c, 0, 64, 93
2, 79077, Control_c, 0, 64, 116
2, 79092, Control_c, 0, 64, 127
2, 79135, Note_on_c, 0, 68, 0
2, 79207, Note_on_c, 0, 76, 60
2, 79365, Note_on_c, 0, 64, 65
2, 79365, Note_on_c, 0, 76, 0
2, 79369, Note_on_c, 0, 74, 0
2, 79370, Note_on_c, 0, 73, 71
2, 79377, Note_on_c, 0, 69, 46
2, 79403, Note_on_c, 0, 64, 0
2, 79403, Note_on_c, 0, 69, 0
2, 79423, Note_on_c, 0, 73, 0
2, 79563, Note_on_c, 0, 69, 75
2, 79564, Note_on_c, 0, 73, 74
2, 79569, Note_on_c, 0, 64, 79
2, 79571, Control_c, 0, 64, 102
2, 79578, Note_on_c, 0, 45, 43
2, 79586, Control_c, 0, 64, 85
2, 79586, Note_on_c, 0, 47, 52
2, 79601, Control_c, 0, 64, 76
2, 79617, Control_c, 0, 64, 71
2, 79632, Control_c, 0, 64, 68
2, 79633, Note_on_c, 0, 47, 0
2, 79646, Control_c, 0, 64, 66
2, 79662, Control_c, 0, 64, 65
2, 79672, Note_on_c, 0, 45, 0
2, 79677, Control_c, 0, 64, 65
2, 79692, Control_c, 0, 64, 64
2, 79707, Control_c, 0, 64, 64
2, 79722, Control_c, 0, 64, 63
2, 79738, Control_c, 0, 64, 63
2, 79744, Note_on_c, 0, 49, 67
2, 79754, Control_c, 0, 64, 62
2, 79769, Control_c, 0, 64, 62
2, 79785, Control_c, 0, 64, 60
2, 79800, Control_c, 0, 64, 59
2, 79821, Note_on_c, 0, 49, 0
2, 79827, Note_on_c, 0, 50, 73
2, 79830, Control_c, 0, 64, 59
2, 79845, Control_c, 0, 64, 58
2, 79861, Control_c, 0, 64, 57
2, 79876, Control_c, 0, 64, 56
2, 79879, Note_on_c, 0, 64, 0
2, 79890, Control_c, 0, 64, 55
2, 79914, Note_on_c, 0, 69, 0
2, 79916, Note_on_c, 0, 49, 70
2, 79927, Note_on_c, 0, 50, 0
2, 79943, Note_on_c, 0, 73, 0
2, 79952, Control_c, 0, 64, 55
2, 79983, Control_c, 0, 64, 55
2, 80000, Note_on_c, 0, 47, 72
2, 80000, Note_on_c, 0, 49, 0
2, 80043, Control_c, 0, 64, 55
2, 80088, Note_on_c, 0, 47, 0
2, 80092, Note_on_c, 0, 49, 72
2, 80157, Note_on_c, 0, 49, 0
2, 80161, Control_c, 0, 64, 54
2, 80173, Note_on_c, 0, 45, 57
2, 80176, Control_c, 0, 64, 53
2, 80192, Control_c, 0, 64, 52
2, 80237, Control_c, 0, 64, 51
2, 80259, Control_c, 0, 64, 49
2, 80275, Control_c, 0, 64, 46
2, 80280, Note_on_c, 0, 81, 61
2, 80282, Note_on_c, 0, 54, 54
2, 80290, Control_c, 0, 64, 43
2, 80305, Control_c, 0, 64, 42
2, 80317, Note_on_c, 0, 45, 0
2, 80320, Control_c, 0, 64, 41
2, 80366, Control_c, 0, 64, 43
2, 80381, Control_c, 0, 64, 48
2, 80397, Control_c, 0, 64, 54
2, 80411, Control_c, 0, 64, 59
2, 80426, Control_c, 0, 64, 62
2, 80442, Control_c, 0, 64, 64
2, 80457, Control_c, 0, 64, 67
2, 80473, Control_c, 0, 64, 72
2, 80474, Note_on_c, 0, 79, 58
2, 80487, Control_c, 0, 64, 79
2, 80491, Note_on_c, 0, 81, 0
2, 80502, Control_c, 0, 64, 88
2, 80518, Control_c, 0, 64, 99
2, 80531, Note_on_c, 0, 54, 0
2, 80533, Control_c, 0, 64, 115
2, 80548, Control_c, 0, 64, 127
2, 80655, Note_on_c, 0, 79, 0
2, 80660, Note_on_c, 0, 81, 57
2, 80731, Control_c, 0, 64, 123
2, 80746, Control_c, 0, 64, 114
2, 80762, Control_c, 0, 64, 109
2, 80776, Control_c, 0, 64, 104
2, 80792, Control_c, 0, 64, 100
2, 80807, Control_c, 0, 64, 97
2, 80822, Control_c, 0, 64, 93
2, 80824, Note_on_c, 0, 81, 0
2, 80831, Note_on_c, 0, 78, 64
2, 80838, Control_c, 0, 64, 90
2, 80852, Control_c, 0, 64, 89
2, 80868, Control_c, 0, 64, 87
2, 80883, Control_c, 0, 64, 87
2, 80895, Note_on_c, 0, 78, 0
2, 80898, Control_c, 0, 64, 86
2, 80914, Control_c, 0, 64, 85
2, 80929, Control_c, 0, 64, 83
2, 80944, Control_c, 0, 64, 81
2, 80959, Control_c, 0, 64, 79
2, 80974, Control_c, 0, 64, 76
2, 80990, Control_c, 0, 64, 70
2, 81005, Control_c, 0, 64, 64
2, 81025, Note_on_c, 0, 78, 64
2, 81028, Control_c, 0, 64, 54
2, 81028, Note_on_c, 0, 69, 46
2, 81030, Note_on_c, 0, 72, 48
2, 81043, Control_c, 0, 64, 42
2, 81057, Control_c, 0, 64, 30
2, 81073, Control_c, 0, 64, 29
2, 81088, Control_c, 0, 64, 31
2, 81103, Control_c, 0, 64, 40
2, 81119, Control_c, 0, 64, 53
2, 81133, Control_c, 0, 64, 59
2, 81149, Control_c, 0, 64, 62
2, 81164, Control_c, 0, 64, 64
2, 81179, Control_c, 0, 64, 66
2, 81195, Control_c, 0, 64, 68
2, 81200, Note_on_c, 0, 72, 0
2, 81210, Control_c, 0, 64, 73
2, 81213, Note_on_c, 0, 78, 0
2, 81220, Note_on_c, 0, 76, 51
2, 81225, Control_c, 0, 64, 78
2, 81241, Control_c, 0, 64, 85
2, 81255, Control_c, 0, 64, 95
2, 81271, Control_c, 0, 64, 107
2, 81284, Note_on_c, 0, 69, 0
2, 81286, Control_c, 0, 64, 127
2, 81402, Note_on_c, 0, 78, 59
2, 81414, Note_on_c, 0, 76, 0
2, 81439, Control_c, 0, 64, 123
2, 81454, Control_c, 0, 64, 114
2, 81470, Control_c, 0, 64, 109
2, 81484, Control_c, 0, 64, 105
2, 81499, Control_c, 0, 64, 103
2, 81515, Control_c, 0, 64, 101
2, 81530, Control_c, 0, 64, 100
2, 81545, Control_c, 0, 64, 98
2, 81560, Control_c, 0, 64, 95
2, 81571, Note_on_c, 0, 69, 43
2, 81573, Note_on_c, 0, 66, 45
2, 81575, Control_c, 0, 64, 92
2, 81575, Note_on_c, 0, 74, 59
2, 81580, Note_on_c, 0, 78, 0
2, 81591, Control_c, 0, 64, 88
2, 81605, Note_on_c, 0, 66, 0
2, 81606, Control_c, 0, 64, 84
2, 81611, Note_on_c, 0, 69, 0
2, 81616, Note_on_c, 0, 74, 0
2, 81620, Control_c, 0, 64, 79
2, 81635, Control_c, 0, 64, 74
2, 81650, Control_c, 0, 64, 69
2, 81665, Control_c, 0, 64, 66
2, 81681, Control_c, 0, 64, 63
2, 81695, Control_c, 0, 64, 60
2, 81711, Control_c, 0, 64, 56
2, 81726, Control_c, 0, 64, 47
2, 81741, Control_c, 0, 64, 34
2, 81757, Control_c, 0, 64, 24
2, 81766, Note_on_c, 0, 74, 58
2, 81767, Note_on_c, 0, 69, 46
2, 81772, Control_c, 0, 64, 25
2, 81774, Note_on_c, 0, 66, 41
2, 81788, Control_c, 0, 64, 35
2, 81810, Control_c, 0, 64, 47
2, 81824, Control_c, 0, 64, 56
2, 81840, Control_c, 0, 64, 60
2, 81855, Control_c, 0, 64, 62
2, 81871, Control_c, 0, 64, 64
2, 81886, Control_c, 0, 64, 66
2, 81901, Control_c, 0, 64, 68
2, 81916, Control_c, 0, 64, 71
2, 81931, Control_c, 0, 64, 75
2, 81944, Note_on_c, 0, 72, 47
2, 81946, Control_c, 0, 64, 80
2, 81959, Note_on_c, 0, 74, 0
2, 81962, Control_c, 0, 64, 84
2, 81977, Control_c, 0, 64, 90
2, 81990, Note_on_c, 0, 69, 0
2, 81993, Control_c, 0, 64, 97
2, 82008, Control_c, 0, 64, 110
2, 82023, Control_c, 0, 64, 127
2, 82085, Note_on_c, 0, 66, 0
2, 82127, Note_on_c, 0, 74, 59
2, 82175, Note_on_c, 0, 72, 0
2, 82289, Note_on_c, 0, 74, 0
2, 82295, Note_on_c, 0, 71, 65
2, 82304, Note_on_c, 0, 62, 42
2, 82306, Note_on_c, 0, 67, 18
2, 82329, Note_on_c, 0, 71, 0
2, 82334, Note_on_c, 0, 62, 0
2, 82349, Note_on_c, 0, 67, 0
2, 82389, Control_c, 0, 64, 115
2, 82403, Control_c, 0, 64, 100
2, 82418, Control_c, 0, 64, 90
2, 82434, Control_c, 0, 64, 81
2, 82449, Control_c, 0, 64, 74
2, 82463, Control_c, 0, 64, 69
2, 82479, Control_c, 0, 64, 66
2, 82482, Note_on_c, 0, 43, 62
2, 82488, Note_on_c, 0, 67, 61
2, 82492, Note_on_c, 0, 71, 79
2, 82494, Control_c, 0, 64, 64
2, 82494, Note_on_c, 0, 62, 71
2, 82510, Control_c, 0, 64, 61
2, 82525, Control_c, 0, 64, 58
2, 82540, Control_c, 0, 64, 55
2, 82563, Control_c, 0, 64, 53
2, 82578, Control_c, 0, 64, 53
2, 82582, Note_on_c, 0, 43, 0
2, 82589, Note_on_c, 0, 45, 61
2, 82594, Control_c, 0, 64, 52
2, 82651, Note_on_c, 0, 45, 0
2, 82654, Control_c, 0, 64, 53
2, 82655, Note_on_c, 0, 47, 68
2, 82669, Control_c, 0, 64, 53
2, 82699, Control_c, 0, 64, 54
2, 82730, Control_c, 0, 64, 54
2, 82732, Note_on_c, 0, 47, 0
2, 82744, Control_c, 0, 64, 55
2, 82748, Note_on_c, 0, 48, 66
2, 82825, Note_on_c, 0, 62, 0
2, 82836, Note_on_c, 0, 47, 69
2, 82836, Note_on_c, 0, 48, 0
2, 82863, Note_on_c, 0, 67, 0
2, 82879, Note_on_c, 0, 71, 0
2, 82916, Note_on_c, 0, 47, 0
2, 82920, Note_on_c, 0, 45, 68
2, 82928, Control_c, 0, 64, 55
2, 82973, Control_c, 0, 64, 54
2, 82996, Note_on_c, 0, 45, 0
2, 83001, Note_on_c, 0, 47, 70
2, 83020, Control_c, 0, 64, 54
2, 83035, Control_c, 0, 64, 53
2, 83065, Control_c, 0, 64, 53
2, 83081, Control_c, 0, 64, 52
2, 83088, Note_on_c, 0, 47, 0
2, 83094, Note_on_c, 0, 43, 63
2, 83095, Control_c, 0, 64, 52
2, 83111, Control_c, 0, 64, 51
2, 83126, Control_c, 0, 64, 50
2, 83141, Control_c, 0, 64, 49
2, 83157, Control_c, 0, 64, 48
2, 83170, Note_on_c, 0, 67, 77
2, 83171, Control_c, 0, 64, 45
2, 83179, Note_on_c, 0, 52, 64
2, 83186, Control_c, 0, 64, 41
2, 83191, Note_on_c, 0, 43, 0
2, 83202, Control_c, 0, 64, 36
2, 83217, Control_c, 0, 64, 32
2, 83233, Control_c, 0, 64, 31
2, 83246, Note_on_c, 0, 69, 73
2, 83247, Control_c, 0, 64, 27
2, 83262, Control_c, 0, 64, 11
2, 83266, Note_on_c, 0, 67, 0
2, 83278, Control_c, 0, 64, 0
2, 83340, Note_on_c, 0, 71, 72
2, 83383, Note_on_c, 0, 69, 0
2, 83415, Note_on_c, 0, 72, 79
2, 83417, Note_on_c, 0, 71, 0
2, 83500, Note_on_c, 0, 71, 79
2, 83521, Note_on_c, 0, 72, 0
2, 83582, Note_on_c, 0, 71, 0
2, 83590, Note_on_c, 0, 69, 81
2, 83603, Note_on_c, 0, 52, 0
2, 83679, Note_on_c, 0, 50, 63
2, 83681, Note_on_c, 0, 71, 82
2, 83692, Note_on_c, 0, 69, 0
2, 83714, Note_on_c, 0, 50, 0
2, 83754, Note_on_c, 0, 71, 0
2, 83774, Note_on_c, 0, 67, 80
2, 83870, Note_on_c, 0, 48, 64
2, 83872, Note_on_c, 0, 76, 86
2, 83894, Control_c, 0, 64, 22
2, 83910, Control_c, 0, 64, 35
2, 83925, Control_c, 0, 64, 46
2, 83940, Control_c, 0, 64, 54
2, 83956, Control_c, 0, 64, 58
2, 83971, Control_c, 0, 64, 62
2, 83986, Control_c, 0, 64, 65
2, 84001, Control_c, 0, 64, 69
2, 84016, Control_c, 0, 64, 76
2, 84032, Control_c, 0, 64, 91
2, 84047, Control_c, 0, 64, 127
2, 84069, Note_on_c, 0, 48, 0
2, 84224, Note_on_c, 0, 76, 0
2, 84281, Note_on_c, 0, 67, 0
2, 84420, Note_on_c, 0, 76, 73
2, 84517, Note_on_c, 0, 76, 0
2, 84607, Note_on_c, 0, 74, 81
2, 84610, Note_on_c, 0, 50, 65
2, 84632, Control_c, 0, 64, 82
2, 84646, Control_c, 0, 64, 63
2, 84662, Control_c, 0, 64, 47
2, 84678, Control_c, 0, 64, 34
2, 84708, Control_c, 0, 64, 40
2, 84723, Control_c, 0, 64, 49
2, 84738, Control_c, 0, 64, 58
2, 84754, Control_c, 0, 64, 64
2, 84769, Control_c, 0, 64, 67
2, 84783, Control_c, 0, 64, 72
2, 84799, Control_c, 0, 64, 80
2, 84814, Control_c, 0, 64, 96
2, 84830, Control_c, 0, 64, 127
2, 84964, Note_on_c, 0, 74, 0
2, 85167, Note_on_c, 0, 50, 0
2, 85172, Note_on_c, 0, 72, 67
2, 85257, Note_on_c, 0, 72, 0
2, 85337, Control_c, 0, 64, 121
2, 85353, Control_c, 0, 64, 88
2, 85366, Note_on_c, 0, 71, 79
2, 85368, Control_c, 0, 64, 70
2, 85371, Note_on_c, 0, 55, 53
2, 85383, Control_c, 0, 64, 57
2, 85399, Control_c, 0, 64, 27
2, 85414, Control_c, 0, 64, 0
2, 85475, Control_c, 0, 64, 25
2, 85491, Control_c, 0, 64, 49
2, 85505, Control_c, 0, 64, 60
2, 85521, Control_c, 0, 64, 63
2, 85536, Control_c, 0, 64, 64
2, 85552, Control_c, 0, 64, 66
2, 85567, Control_c, 0, 64, 70
2, 85582, Control_c, 0, 64, 77
2, 85597, Control_c, 0, 64, 97
2, 85612, Control_c, 0, 64, 127
2, 85612, Note_on_c, 0, 55, 0
2, 85649, Note_on_c, 0, 71, 0
2, 85909, Note_on_c, 0, 73, 68
2, 85912, Note_on_c, 0, 57, 59
2, 85954, Note_on_c, 0, 57, 0
2, 85955, Control_c, 0, 64, 102
2, 85969, Control_c, 0, 64, 89
2, 85984, Control_c, 0, 64, 80
2, 86000, Control_c, 0, 64, 76
2, 86015, Control_c, 0, 64, 73
2, 86031, Control_c, 0, 64, 71
2, 86035, Note_on_c, 0, 73, 0
2, 86045, Control_c, 0, 64, 67
2, 86060, Control_c, 0, 64, 63
2, 86076, Control_c, 0, 64, 58
2, 86090, Control_c, 0, 64, 54
2, 86099, Note_on_c, 0, 74, 58
2, 86105, Control_c, 0, 64, 56
2, 86108, Note_on_c, 0, 59, 54
2, 86111, Note_on_c, 0, 62, 58
2, 86121, Control_c, 0, 64, 60
2, 86136, Control_c, 0, 64, 64
2, 86137, Note_on_c, 0, 74, 0
2, 86152, Control_c, 0, 64, 69
2, 86166, Control_c, 0, 64, 75
2, 86181, Control_c, 0, 64, 82
2, 86197, Control_c, 0, 64, 87
2, 86212, Control_c, 0, 64, 90
2, 86219, Note_on_c, 0, 64, 59
2, 86228, Control_c, 0, 64, 93
2, 86242, Control_c, 0, 64, 94
2, 86273, Note_on_c, 0, 66, 68
2, 86280, Note_on_c, 0, 62, 0
2, 86288, Control_c, 0, 64, 93
2, 86304, Control_c, 0, 64, 93
2, 86309, Note_on_c, 0, 64, 0
2, 86311, Note_on_c, 0, 59, 0
2, 86320, Control_c, 0, 64, 92
2, 86335, Control_c, 0, 64, 91
2, 86350, Control_c, 0, 64, 89
2, 86356, Note_on_c, 0, 66, 0
2, 86364, Note_on_c, 0, 67, 70
2, 86365, Control_c, 0, 64, 85
2, 86380, Control_c, 0, 64, 82
2, 86396, Control_c, 0, 64, 79
2, 86418, Control_c, 0, 64, 77
2, 86434, Control_c, 0, 64, 74
2, 86449, Control_c, 0, 64, 71
2, 86460, Note_on_c, 0, 66, 70
2, 86464, Control_c, 0, 64, 68
2, 86480, Control_c, 0, 64, 66
2, 86491, Note_on_c, 0, 67, 0
2, 86494, Control_c, 0, 64, 65
2, 86510, Control_c, 0, 64, 64
2, 86525, Control_c, 0, 64, 64
2, 86531, Note_on_c, 0, 66, 0
2, 86533, Note_on_c, 0, 64, 73
2, 86540, Control_c, 0, 64, 63
2, 86556, Control_c, 0, 64, 62
2, 86570, Control_c, 0, 64, 61
2, 86585, Control_c, 0, 64, 60
2, 86601, Control_c, 0, 64, 59
2, 86601, Note_on_c, 0, 57, 48
2, 86615, Control_c, 0, 64, 57
2, 86628, Note_on_c, 0, 66, 74
2, 86631, Control_c, 0, 64, 56
2, 86641, Note_on_c, 0, 64, 0
2, 86646, Control_c, 0, 64, 54
2, 86650, Note_on_c, 0, 57, 0
2, 86661, Control_c, 0, 64, 51
2, 86677, Control_c, 0, 64, 46
2, 86692, Control_c, 0, 64, 41
2, 86708, Control_c, 0, 64, 33
2, 86708, Note_on_c, 0, 66, 0
2, 86709, Note_on_c, 0, 62, 67
2, 86722, Control_c, 0, 64, 22
2, 86737, Control_c, 0, 64, 0
2, 86796, Note_on_c, 0, 55, 58
2, 86799, Note_on_c, 0, 71, 77
2, 86844, Control_c, 0, 64, 15
2, 86859, Control_c, 0, 64, 44
2, 86875, Control_c, 0, 64, 54
2, 86889, Control_c, 0, 64, 58
2, 86904, Control_c, 0, 64, 61
2, 86920, Control_c, 0, 64, 64
2, 86921, Note_on_c, 0, 55, 0
2, 86934, Control_c, 0, 64, 69
2, 86950, Control_c, 0, 64, 76
2, 86965, Control_c, 0, 64, 90
2, 86980, Control_c, 0, 64, 127
2, 87084, Note_on_c, 0, 71, 0
2, 87200, Note_on_c, 0, 62, 0
2, 87353, Note_on_c, 0, 71, 72
2, 87358, Note_on_c, 0, 52, 50
2, 87407, Note_on_c, 0, 52, 0
2, 87419, Note_on_c, 0, 71, 0
2, 87475, Control_c, 0, 64, 118
2, 87490, Control_c, 0, 64, 109
2, 87505, Control_c, 0, 64, 99
2, 87521, Control_c, 0, 64, 83
2, 87530, Note_on_c, 0, 69, 74
2, 87530, Note_on_c, 0, 73, 74
2, 87535, Control_c, 0, 64, 69
2, 87541, Note_on_c, 0, 57, 52
2, 87551, Control_c, 0, 64, 58
2, 87566, Control_c, 0, 64, 36
2, 87581, Control_c, 0, 64, 26
2, 87597, Control_c, 0, 64, 30
2, 87612, Control_c, 0, 64, 43
2, 87628, Control_c, 0, 64, 53
2, 87643, Control_c, 0, 64, 60
2, 87657, Control_c, 0, 64, 63
2, 87673, Control_c, 0, 64, 65
2, 87688, Control_c, 0, 64, 67
2, 87703, Control_c, 0, 64, 71
2, 87719, Control_c, 0, 64, 74
2, 87733, Control_c, 0, 64, 77
2, 87749, Control_c, 0, 64, 80
2, 87765, Control_c, 0, 64, 82
2, 87780, Control_c, 0, 64, 85
2, 87786, Note_on_c, 0, 73, 0
2, 87795, Control_c, 0, 64, 86
2, 87810, Control_c, 0, 64, 87
2, 87811, Note_on_c, 0, 57, 0
2, 87820, Note_on_c, 0, 69, 0
2, 87825, Control_c, 0, 64, 88
2, 88001, Control_c, 0, 64, 87
2, 88046, Control_c, 0, 64, 87
2, 88071, Note_on_c, 0, 67, 63
2, 88077, Control_c, 0, 64, 86
2, 88086, Note_on_c, 0, 45, 38
2, 88092, Control_c, 0, 64, 85
2, 88108, Control_c, 0, 64, 85
2, 88123, Control_c, 0, 64, 83
2, 88135, Note_on_c, 0, 45, 0
2, 88138, Control_c, 0, 64, 82
2, 88144, Note_on_c, 0, 67, 0
2, 88154, Control_c, 0, 64, 81
2, 88168, Control_c, 0, 64, 79
2, 88183, Control_c, 0, 64, 78
2, 88199, Control_c, 0, 64, 77
2, 88214, Control_c, 0, 64, 75
2, 88229, Control_c, 0, 64, 74
2, 88244, Control_c, 0, 64, 72
2, 88259, Control_c, 0, 64, 70
2, 88264, Note_on_c, 0, 74, 58
2, 88266, Note_on_c, 0, 66, 55
2, 88275, Control_c, 0, 64, 68
2, 88279, Note_on_c, 0, 47, 40
2, 88290, Control_c, 0, 64, 66
2, 88304, Control_c, 0, 64, 64
2, 88320, Control_c, 0, 64, 62
2, 88335, Control_c, 0, 64, 61
2, 88342, Note_on_c, 0, 47, 0
2, 88351, Control_c, 0, 64, 59
2, 88358, Note_on_c, 0, 49, 49
2, 88366, Control_c, 0, 64, 58
2, 88380, Control_c, 0, 64, 55
2, 88396, Control_c, 0, 64, 53
2, 88411, Control_c, 0, 64, 52
2, 88425, Control_c, 0, 64, 51
2, 88431, Note_on_c, 0, 49, 0
2, 88441, Control_c, 0, 64, 51
2, 88443, Note_on_c, 0, 50, 52
2, 88456, Control_c, 0, 64, 50
2, 88472, Control_c, 0, 64, 49
2, 88487, Control_c, 0, 64, 48
2, 88488, Note_on_c, 0, 50, 0
2, 88508, Note_on_c, 0, 52, 53
2, 88517, Control_c, 0, 64, 48
2, 88525, Note_on_c, 0, 66, 0
2, 88563, Control_c, 0, 64, 47
2, 88574, Note_on_c, 0, 52, 0
2, 88581, Note_on_c, 0, 50, 56
2, 88593, Control_c, 0, 64, 47
2, 88608, Control_c, 0, 64, 46
2, 88652, Note_on_c, 0, 50, 0
2, 88676, Note_on_c, 0, 49, 48
2, 88685, Note_on_c, 0, 74, 0
2, 88765, Note_on_c, 0, 49, 0
2, 88771, Note_on_c, 0, 69, 59
2, 88799, Control_c, 0, 64, 47
2, 88801, Note_on_c, 0, 50, 38
2, 88810, Note_on_c, 0, 69, 0
2, 88829, Control_c, 0, 64, 47
2, 88838, Note_on_c, 0, 50, 0
2, 88844, Control_c, 0, 64, 48
2, 88859, Control_c, 0, 64, 48
2, 88875, Control_c, 0, 64, 49
2, 88878, Note_on_c, 0, 47, 43
2, 88890, Control_c, 0, 64, 49
2, 88905, Control_c, 0, 64, 50
2, 88921, Note_on_c, 0, 47, 0
2, 88955, Note_on_c, 0, 74, 63
2, 88963, Note_on_c, 0, 59, 53
2, 89047, Note_on_c, 0, 76, 57
2, 89049, Note_on_c, 0, 74, 0
2, 89057, Control_c, 0, 64, 50
2, 89111, Note_on_c, 0, 76, 0
2, 89119, Note_on_c, 0, 78, 65
2, 89133, Control_c, 0, 64, 51
2, 89198, Note_on_c, 0, 78, 0
2, 89211, Note_on_c, 0, 79, 63
2, 89299, Control_c, 0, 64, 51
2, 89299, Note_on_c, 0, 78, 70
2, 89318, Note_on_c, 0, 79, 0
2, 89345, Control_c, 0, 64, 52
2, 89368, Note_on_c, 0, 78, 0
2, 89375, Note_on_c, 0, 76, 70
2, 89376, Note_on_c, 0, 59, 0
2, 89406, Control_c, 0, 64, 52
2, 89452, Control_c, 0, 64, 53
2, 89454, Note_on_c, 0, 57, 47
2, 89458, Note_on_c, 0, 78, 71
2, 89461, Note_on_c, 0, 76, 0
2, 89502, Note_on_c, 0, 57, 0
2, 89520, Control_c, 0, 64, 53
2, 89524, Note_on_c, 0, 78, 0
2, 89542, Note_on_c, 0, 74, 70
2, 89661, Note_on_c, 0, 83, 71
2, 89688, Control_c, 0, 64, 54
2, 89689, Note_on_c, 0, 55, 26
2, 89703, Control_c, 0, 64, 54
2, 89719, Control_c, 0, 64, 57
2, 89734, Control_c, 0, 64, 60
2, 89750, Control_c, 0, 64, 63
2, 89764, Control_c, 0, 64, 65
2, 89779, Control_c, 0, 64, 69
2, 89795, Control_c, 0, 64, 77
2, 89810, Control_c, 0, 64, 96
2, 89825, Control_c, 0, 64, 127
2, 89894, Note_on_c, 0, 55, 0
2, 89926, Note_on_c, 0, 83, 0
2, 89943, Note_on_c, 0, 74, 0
2, 90231, Note_on_c, 0, 83, 73
2, 90257, Note_on_c, 0, 52, 28
2, 90302, Note_on_c, 0, 52, 0
2, 90314, Note_on_c, 0, 83, 0
2, 90364, Control_c, 0, 64, 121
2, 90379, Control_c, 0, 64, 104
2, 90395, Control_c, 0, 64, 98
2, 90411, Control_c, 0, 64, 94
2, 90425, Control_c, 0, 64, 92
2, 90441, Control_c, 0, 64, 91
2, 90447, Note_on_c, 0, 81, 61
2, 90452, Note_on_c, 0, 72, 59
2, 90456, Control_c, 0, 64, 89
2, 90456, Note_on_c, 0, 57, 42
2, 90472, Control_c, 0, 64, 85
2, 90486, Control_c, 0, 64, 79
2, 90501, Control_c, 0, 64, 71
2, 90517, Control_c, 0, 64, 65
2, 90532, Control_c, 0, 64, 61
2, 90548, Control_c, 0, 64, 56
2, 90562, Control_c, 0, 64, 50
2, 90577, Control_c, 0, 64, 40
2, 90593, Control_c, 0, 64, 36
2, 90608, Control_c, 0, 64, 38
2, 90623, Control_c, 0, 64, 46
2, 90639, Control_c, 0, 64, 55
2, 90654, Control_c, 0, 64, 61
2, 90670, Control_c, 0, 64, 64
2, 90684, Control_c, 0, 64, 67
2, 90699, Control_c, 0, 64, 71
2, 90715, Control_c, 0, 64, 76
2, 90730, Control_c, 0, 64, 83
2, 90745, Control_c, 0, 64, 92
2, 90760, Control_c, 0, 64, 103
2, 90775, Control_c, 0, 64, 114
2, 90791, Control_c, 0, 64, 127
2, 90853, Note_on_c, 0, 81, 0
2, 91026, Control_c, 0, 64, 116
2, 91034, Note_on_c, 0, 79, 58
2, 91035, Note_on_c, 0, 45, 39
2, 91041, Control_c, 0, 64, 107
2, 91056, Control_c, 0, 64, 99
2, 91072, Control_c, 0, 64, 94
2, 91087, Control_c, 0, 64, 91
2, 91093, Note_on_c, 0, 45, 0
2, 91101, Control_c, 0, 64, 88
2, 91117, Control_c, 0, 64, 86
2, 91132, Control_c, 0, 64, 84
2, 91148, Control_c, 0, 64, 81
2, 91163, Control_c, 0, 64, 78
2, 91177, Control_c, 0, 64, 77
2, 91193, Control_c, 0, 64, 76
2, 91208, Control_c, 0, 64, 76
2, 91224, Control_c, 0, 64, 74
2, 91232, Note_on_c, 0, 78, 64
2, 91234, Note_on_c, 0, 50, 41
2, 91240, Control_c, 0, 64, 71
2, 91255, Control_c, 0, 64, 66
2, 91264, Note_on_c, 0, 79, 0
2, 91270, Control_c, 0, 64, 61
2, 91285, Control_c, 0, 64, 53
2, 91300, Control_c, 0, 64, 44
2, 91316, Control_c, 0, 64, 35
2, 91330, Control_c, 0, 64, 34
2, 91345, Control_c, 0, 64, 40
2, 91361, Control_c, 0, 64, 50
2, 91376, Control_c, 0, 64, 59
2, 91392, Control_c, 0, 64, 64
2, 91406, Control_c, 0, 64, 68
2, 91421, Control_c, 0, 64, 72
2, 91431, Note_on_c, 0, 78, 0
2, 91437, Control_c, 0, 64, 80
2, 91452, Control_c, 0, 64, 89
2, 91468, Control_c, 0, 64, 104
2, 91483, Control_c, 0, 64, 127
2, 91527, Note_on_c, 0, 50, 0
2, 91538, Note_on_c, 0, 57, 0
2, 91550, Note_on_c, 0, 72, 0
2, 91687, Note_on_c, 0, 74, 57
2, 91785, Note_on_c, 0, 76, 61
2, 91788, Note_on_c, 0, 74, 0
2, 91795, Control_c, 0, 64, 119
2, 91810, Control_c, 0, 64, 116
2, 91825, Control_c, 0, 64, 111
2, 91840, Control_c, 0, 64, 105
2, 91855, Control_c, 0, 64, 99
2, 91855, Note_on_c, 0, 78, 64
2, 91864, Note_on_c, 0, 76, 0
2, 91871, Control_c, 0, 64, 94
2, 91886, Control_c, 0, 64, 90
2, 91901, Control_c, 0, 64, 88
2, 91917, Control_c, 0, 64, 86
2, 91931, Control_c, 0, 64, 81
2, 91945, Note_on_c, 0, 52, 50
2, 91946, Control_c, 0, 64, 75
2, 91949, Note_on_c, 0, 71, 68
2, 91951, Note_on_c, 0, 79, 68
2, 91962, Control_c, 0, 64, 68
2, 91963, Note_on_c, 0, 55, 48
2, 91977, Control_c, 0, 64, 63
2, 91988, Note_on_c, 0, 78, 0
2, 91993, Control_c, 0, 64, 61
2, 92008, Control_c, 0, 64, 60
2, 92008, Note_on_c, 0, 52, 0
2, 92022, Control_c, 0, 64, 59
2, 92037, Note_on_c, 0, 57, 56
2, 92039, Control_c, 0, 64, 57
2, 92054, Control_c, 0, 64, 56
2, 92070, Control_c, 0, 64, 56
2, 92076, Note_on_c, 0, 55, 0
2, 92115, Control_c, 0, 64, 55
2, 92120, Note_on_c, 0, 59, 58
2, 92137, Note_on_c, 0, 57, 0
2, 92145, Control_c, 0, 64, 55
2, 92161, Control_c, 0, 64, 54
2, 92189, Note_on_c, 0, 59, 0
2, 92207, Note_on_c, 0, 60, 58
2, 92251, Control_c, 0, 64, 54
2, 92282, Note_on_c, 0, 60, 0
2, 92291, Note_on_c, 0, 59, 61
2, 92304, Note_on_c, 0, 79, 0
2, 92360, Note_on_c, 0, 59, 0
2, 92370, Note_on_c, 0, 57, 61
2, 92399, Note_on_c, 0, 71, 0
2, 92443, Note_on_c, 0, 79, 69
2, 92468, Note_on_c, 0, 59, 66
2, 92494, Control_c, 0, 64, 54
2, 92502, Note_on_c, 0, 57, 0
2, 92510, Control_c, 0, 64, 55
2, 92512, Note_on_c, 0, 59, 0
2, 92528, Note_on_c, 0, 79, 0
2, 92537, Note_on_c, 0, 55, 52
2, 92577, Control_c, 0, 64, 54
2, 92629, Note_on_c, 0, 55, 0
2, 92643, Note_on_c, 0, 79, 74
2, 92647, Note_on_c, 0, 69, 71
2, 92651, Note_on_c, 0, 60, 54
2, 92658, Note_on_c, 0, 64, 58
2, 92699, Control_c, 0, 64, 55
2, 92715, Control_c, 0, 64, 56
2, 92730, Control_c, 0, 64, 58
2, 92745, Control_c, 0, 64, 60
2, 92761, Control_c, 0, 64, 63
2, 92775, Control_c, 0, 64, 66
2, 92791, Control_c, 0, 64, 70
2, 92806, Control_c, 0, 64, 78
2, 92821, Control_c, 0, 64, 91
2, 92837, Control_c, 0, 64, 127
2, 92862, Note_on_c, 0, 60, 0
2, 92875, Note_on_c, 0, 64, 0
2, 93113, Note_on_c, 0, 69, 0
2, 93191, Note_on_c, 0, 79, 0
2, 93213, Note_on_c, 0, 81, 71
2, 93221, Note_on_c, 0, 57, 51
2, 93222, Note_on_c, 0, 64, 53
2, 93260, Note_on_c, 0, 64, 0
2, 93269, Note_on_c, 0, 57, 0
2, 93375, Control_c, 0, 64, 117
2, 93391, Control_c, 0, 64, 108
2, 93406, Control_c, 0, 64, 101
2, 93416, Note_on_c, 0, 78, 80
2, 93420, Control_c, 0, 64, 89
2, 93431, Note_on_c, 0, 81, 0
2, 93436, Control_c, 0, 64, 72
2, 93440, Note_on_c, 0, 62, 50
2, 93451, Control_c, 0, 64, 61
2, 93466, Control_c, 0, 64, 39
2, 93482, Control_c, 0, 64, 0
2, 93527, Control_c, 0, 64, 28
2, 93542, Control_c, 0, 64, 51
2, 93557, Control_c, 0, 64, 60
2, 93572, Control_c, 0, 64, 65
2, 93588, Control_c, 0, 64, 69
2, 93603, Control_c, 0, 64, 77
2, 93618, Control_c, 0, 64, 92
2, 93633, Control_c, 0, 64, 127
2, 93729, Note_on_c, 0, 62, 0
2, 93735, Note_on_c, 0, 78, 0
2, 93999, Note_on_c, 0, 60, 43
2, 94002, Note_on_c, 0, 50, 48
2, 94010, Note_on_c, 0, 78, 67
2, 94044, Note_on_c, 0, 50, 0
2, 94063, Note_on_c, 0, 60, 0
2, 94135, Note_on_c, 0, 78, 0
2, 94189, Control_c, 0, 64, 121
2, 94204, Control_c, 0, 64, 108
2, 94219, Control_c, 0, 64, 100
2, 94235, Control_c, 0, 64, 94
2, 94249, Control_c, 0, 64, 83
2, 94252, Note_on_c, 0, 78, 70
2, 94255, Note_on_c, 0, 67, 50
2, 94258, Note_on_c, 0, 55, 42
2, 94263, Note_on_c, 0, 59, 45
2, 94264, Control_c, 0, 64, 70
2, 94280, Control_c, 0, 64, 58
2, 94295, Control_c, 0, 64, 32
2, 94311, Control_c, 0, 64, 19
2, 94326, Control_c, 0, 64, 33
2, 94340, Control_c, 0, 64, 50
2, 94356, Control_c, 0, 64, 60
2, 94371, Control_c, 0, 64, 65
2, 94386, Control_c, 0, 64, 69
2, 94401, Control_c, 0, 64, 76
2, 94416, Control_c, 0, 64, 85
2, 94432, Control_c, 0, 64, 98
2, 94445, Control_c, 0, 64, 127
2, 94461, Note_on_c, 0, 59, 0
2, 94526, Note_on_c, 0, 78, 0
2, 94529, Note_on_c, 0, 55, 0
2, 94547, Note_on_c, 0, 67, 0
2, 94803, Note_on_c, 0, 76, 62
2, 94888, Note_on_c, 0, 75, 75
2, 94913, Note_on_c, 0, 76, 0
2, 94975, Note_on_c, 0, 76, 82
2, 94976, Note_on_c, 0, 40, 55
2, 94979, Note_on_c, 0, 64, 82
2, 94981, Note_on_c, 0, 71, 75
2, 94984, Control_c, 0, 64, 94
2, 94990, Note_on_c, 0, 75, 0
2, 95000, Control_c, 0, 64, 79
2, 95015, Control_c, 0, 64, 70
2, 95030, Control_c, 0, 64, 65
2, 95045, Control_c, 0, 64, 62
2, 95045, Note_on_c, 0, 42, 70
2, 95056, Note_on_c, 0, 40, 0
2, 95060, Control_c, 0, 64, 59
2, 95076, Control_c, 0, 64, 54
2, 95091, Control_c, 0, 64, 45
2, 95106, Control_c, 0, 64, 17
2, 95122, Control_c, 0, 64, 0
2, 95128, Note_on_c, 0, 43, 68
2, 95143, Note_on_c, 0, 42, 0
2, 95216, Note_on_c, 0, 45, 72
2, 95223, Note_on_c, 0, 43, 0
2, 95292, Note_on_c, 0, 43, 66
2, 95312, Note_on_c, 0, 45, 0
2, 95365, Note_on_c, 0, 71, 0
2, 95381, Note_on_c, 0, 42, 77
2, 95388, Note_on_c, 0, 43, 0
2, 95392, Note_on_c, 0, 64, 0
2, 95416, Note_on_c, 0, 76, 0
2, 95464, Note_on_c, 0, 43, 75
2, 95476, Note_on_c, 0, 42, 0
2, 95546, Note_on_c, 0, 40, 70
2, 95553, Note_on_c, 0, 43, 0
2, 95638, Note_on_c, 0, 76, 83
2, 95640, Note_on_c, 0, 66, 79
2, 95642, Note_on_c, 0, 69, 75
2, 95654, Note_on_c, 0, 48, 75
2, 95690, Note_on_c, 0, 40, 0
2, 95738, Control_c, 0, 64, 16
2, 95752, Control_c, 0, 64, 39
2, 95768, Control_c, 0, 64, 50
2, 95783, Control_c, 0, 64, 55
2, 95799, Control_c, 0, 64, 58
2, 95814, Control_c, 0, 64, 62
2, 95828, Control_c, 0, 64, 65
2, 95844, Control_c, 0, 64, 70
2, 95859, Control_c, 0, 64, 78
2, 95873, Control_c, 0, 64, 94
2, 95889, Control_c, 0, 64, 127
2, 95900, Note_on_c, 0, 48, 0
2, 95979, Note_on_c, 0, 76, 0
2, 96210, Note_on_c, 0, 75, 84
2, 96222, Note_on_c, 0, 48, 73
2, 96286, Note_on_c, 0, 48, 0
2, 96341, Note_on_c, 0, 75, 0
2, 96418, Note_on_c, 0, 76, 86
2, 96421, Note_on_c, 0, 47, 73
2, 96430, Control_c, 0, 64, 102
2, 96446, Control_c, 0, 64, 81
2, 96460, Control_c, 0, 64, 67
2, 96476, Control_c, 0, 64, 54
2, 96491, Control_c, 0, 64, 29
2, 96506, Control_c, 0, 64, 0
2, 96567, Control_c, 0, 64, 16
2, 96582, Control_c, 0, 64, 48
2, 96597, Control_c, 0, 64, 61
2, 96612, Control_c, 0, 64, 66
2, 96627, Control_c, 0, 64, 73
2, 96642, Control_c, 0, 64, 88
2, 96657, Control_c, 0, 64, 127
2, 96733, Note_on_c, 0, 76, 0
2, 96829, Note_on_c, 0, 47, 0
2, 96980, Note_on_c, 0, 78, 87
2, 96981, Note_on_c, 0, 45, 65
2, 97032, Note_on_c, 0, 45, 0
2, 97075, Note_on_c, 0, 78, 0
2, 97207, Note_on_c, 0, 71, 87
2, 97213, Control_c, 0, 64, 100
2, 97216, Note_on_c, 0, 43, 68
2, 97228, Control_c, 0, 64, 77
2, 97244, Control_c, 0, 64, 63
2, 97259, Control_c, 0, 64, 0
2, 97396, Control_c, 0, 64, 32
2, 97411, Control_c, 0, 64, 51
2, 97426, Control_c, 0, 64, 61
2, 97441, Control_c, 0, 64, 69
2, 97456, Control_c, 0, 64, 84
2, 97471, Control_c, 0, 64, 127
2, 97472, Note_on_c, 0, 43, 0
2, 97509, Note_on_c, 0, 69, 0
2, 97544, Note_on_c, 0, 66, 0
2, 97770, Note_on_c, 0, 72, 74
2, 97776, Control_c, 0, 64, 92
2, 97777, Note_on_c, 0, 42, 59
2, 97790, Control_c, 0, 64, 73
2, 97806, Control_c, 0, 64, 62
2, 97807, Note_on_c, 0, 71, 0
2, 97821, Control_c, 0, 64, 43
2, 97825, Note_on_c, 0, 42, 0
2, 97837, Control_c, 0, 64, 21
2, 97852, Control_c, 0, 64, 0
2, 97862, Note_on_c, 0, 69, 78
2, 97877, Note_on_c, 0, 72, 0
2, 97948, Note_on_c, 0, 71, 86
2, 97953, Note_on_c, 0, 43, 62
2, 97958, Note_on_c, 0, 67, 75
2, 97973, Note_on_c, 0, 69, 0
2, 98042, Control_c, 0, 64, 27
2, 98057, Control_c, 0, 64, 52
2, 98072, Control_c, 0, 64, 62
2, 98087, Control_c, 0, 64, 67
2, 98087, Note_on_c, 0, 43, 0
2, 98102, Control_c, 0, 64, 77
2, 98118, Control_c, 0, 64, 127
2, 98147, Note_on_c, 0, 71, 0
2, 98224, Note_on_c, 0, 67, 0
2, 98503, Note_on_c, 0, 72, 72
2, 98505, Note_on_c, 0, 54, 59
2, 98510, Note_on_c, 0, 64, 64
2, 98515, Note_on_c, 0, 45, 52
2, 98539, Note_on_c, 0, 54, 0
2, 98558, Note_on_c, 0, 45, 0
2, 98569, Note_on_c, 0, 72, 0
2, 98575, Control_c, 0, 64, 102
2, 98592, Control_c, 0, 64, 90
2, 98601, Note_on_c, 0, 64, 0
2, 98607, Control_c, 0, 64, 84
2, 98622, Control_c, 0, 64, 79
2, 98637, Control_c, 0, 64, 76
2, 98652, Control_c, 0, 64, 72
2, 98667, Control_c, 0, 64, 68
2, 98683, Control_c, 0, 64, 63
2, 98706, Control_c, 0, 64, 55
2, 98721, Control_c, 0, 64, 44
2, 98728, Note_on_c, 0, 64, 71
2, 98728, Note_on_c, 0, 67, 74
2, 98736, Control_c, 0, 64, 25
2, 98737, Note_on_c, 0, 47, 57
2, 98740, Note_on_c, 0, 55, 54
2, 98752, Control_c, 0, 64, 0
2, 98857, Control_c, 0, 64, 31
2, 98873, Control_c, 0, 64, 47
2, 98888, Control_c, 0, 64, 56
2, 98903, Control_c, 0, 64, 60
2, 98919, Control_c, 0, 64, 62
2, 98933, Control_c, 0, 64, 64
2, 98949, Control_c, 0, 64, 66
2, 98964, Control_c, 0, 64, 68
2, 98979, Control_c, 0, 64, 73
2, 98995, Control_c, 0, 64, 77
2, 99010, Control_c, 0, 64, 82
2, 99025, Control_c, 0, 64, 87
2, 99041, Control_c, 0, 64, 92
2, 99055, Control_c, 0, 64, 96
2, 99063, Note_on_c, 0, 55, 0
2, 99071, Control_c, 0, 64, 97
2, 99086, Control_c, 0, 64, 97
2, 99101, Control_c, 0, 64, 96
2, 99117, Control_c, 0, 64, 95
2, 99146, Control_c, 0, 64, 94
2, 99162, Control_c, 0, 64, 93
2, 99176, Control_c, 0, 64, 91
2, 99192, Control_c, 0, 64, 89
2, 99207, Control_c, 0, 64, 87
2, 99222, Control_c, 0, 64, 86
2, 99238, Control_c, 0, 64, 85
2, 99252, Control_c, 0, 64, 82
2, 99265, Note_on_c, 0, 57, 58
2, 99267, Control_c, 0, 64, 79
2, 99283, Control_c, 0, 64, 76
2, 99298, Control_c, 0, 64, 73
2, 99310, Note_on_c, 0, 57, 0
2, 99314, Control_c, 0, 64, 71
2, 99328, Control_c, 0, 64, 68
2, 99343, Control_c, 0, 64, 66
2, 99359, Control_c, 0, 64, 63
2, 99374, Control_c, 0, 64, 61
2, 99389, Control_c, 0, 64, 58
2, 99405, Control_c, 0, 64, 55
2, 99412, Note_on_c, 0, 64, 0
2, 99420, Control_c, 0, 64, 49
2, 99436, Control_c, 0, 64, 38
2, 99459, Control_c, 0, 64, 0
2, 99481, Note_on_c, 0, 63, 65
2, 99483, Note_on_c, 0, 66, 64
2, 99492, Note_on_c, 0, 59, 47
2, 99520, Note_on_c, 0, 67, 0
2, 99535, Control_c, 0, 64, 21
2, 99551, Control_c, 0, 64, 49
2, 99565, Control_c, 0, 64, 58
2, 99580, Control_c, 0, 64, 62
2, 99596, Control_c, 0, 64, 65
2, 99610, Control_c, 0, 64, 68
2, 99625, Control_c, 0, 64, 72
2, 99641, Control_c, 0, 64, 80
2, 99656, Control_c, 0, 64, 98
2, 99672, Control_c, 0, 64, 127
2, 99725, Note_on_c, 0, 59, 0
2, 99821, Note_on_c, 0, 63, 0
2, 99822, Note_on_c, 0, 66, 0
2, 100012, Note_on_c, 0, 57, 61
2, 100048, Note_on_c, 0, 57, 0
2, 100066, Control_c, 0, 64, 104
2, 100082, Control_c, 0, 64, 88
2, 100096, Control_c, 0, 64, 77
2, 100112, Control_c, 0, 64, 69
2, 100127, Control_c, 0, 64, 64
2, 100142, Control_c, 0, 64, 62
2, 100157, Control_c, 0, 64, 60
2, 100172, Control_c, 0, 64, 58
2, 100187, Control_c, 0, 64, 55
2, 100199, Note_on_c, 0, 52, 47
2, 100203, Control_c, 0, 64, 51
2, 100204, Note_on_c, 0, 64, 53
2, 100206, Note_on_c, 0, 55, 45
2, 100226, Control_c, 0, 64, 43
2, 100242, Control_c, 0, 64, 35
2, 100257, Control_c, 0, 64, 26
2, 100258, Note_on_c, 0, 47, 0
2, 100273, Control_c, 0, 64, 16
2, 100288, Control_c, 0, 64, 0
2, 100314, Note_on_c, 0, 66, 60
2, 100319, Note_on_c, 0, 64, 0
2, 100399, Note_on_c, 0, 66, 0
2, 100399, Note_on_c, 0, 67, 64
2, 100462, Note_on_c, 0, 67, 0
2, 100469, Note_on_c, 0, 69, 68
2, 100551, Note_on_c, 0, 67, 72
2, 100560, Note_on_c, 0, 55, 0
2, 100561, Note_on_c, 0, 69, 0
2, 100613, Note_on_c, 0, 67, 0
2, 100615, Note_on_c, 0, 52, 0
2, 100624, Note_on_c, 0, 66, 72
2, 100697, Note_on_c, 0, 66, 0
2, 100698, Note_on_c, 0, 67, 72
2, 100735, Note_on_c, 0, 67, 0
2, 100784, Note_on_c, 0, 64, 59
2, 100824, Note_on_c, 0, 64, 0
2, 100835, Control_c, 0, 64, 9
2, 100850, Control_c, 0, 64, 22
2, 100864, Control_c, 0, 64, 30
2, 100880, Control_c, 0, 64, 38
2, 100895, Control_c, 0, 64, 48
2, 100902, Note_on_c, 0, 59, 42
2, 100911, Control_c, 0, 64, 55
2, 100913, Note_on_c, 0, 79, 67
2, 100926, Control_c, 0, 64, 60
2, 100940, Control_c, 0, 64, 64
2, 100956, Control_c, 0, 64, 67
2, 100971, Control_c, 0, 64, 71
2, 100986, Control_c, 0, 64, 81
2, 101009, Control_c, 0, 64, 102
2, 101024, Control_c, 0, 64, 127
2, 101027, Note_on_c, 0, 79, 0
2, 101096, Note_on_c, 0, 59, 0
2, 101098, Note_on_c, 0, 57, 52
2, 101208, Note_on_c, 0, 57, 0
2, 101284, Note_on_c, 0, 59, 50
2, 101358, Note_on_c, 0, 59, 0
2, 101450, Control_c, 0, 64, 119
2, 101456, Note_on_c, 0, 55, 48
2, 101465, Control_c, 0, 64, 107
2, 101481, Control_c, 0, 64, 102
2, 101496, Control_c, 0, 64, 98
2, 101501, Note_on_c, 0, 55, 0
2, 101511, Control_c, 0, 64, 95
2, 101526, Control_c, 0, 64, 93
2, 101541, Control_c, 0, 64, 93
2, 101557, Control_c, 0, 64, 92
2, 101572, Control_c, 0, 64, 91
2, 101603, Control_c, 0, 64, 90
2, 101617, Control_c, 0, 64, 87
2, 101633, Control_c, 0, 64, 81
2, 101640, Note_on_c, 0, 64, 61
2, 101648, Control_c, 0, 64, 71
2, 101654, Note_on_c, 0, 59, 59
2, 101660, Note_on_c, 0, 55, 40
2, 101663, Control_c, 0, 64, 63
2, 101679, Control_c, 0, 64, 54
2, 101694, Control_c, 0, 64, 39
2, 101709, Control_c, 0, 64, 23
2, 101724, Control_c, 0, 64, 16
2, 101739, Control_c, 0, 64, 17
2, 101755, Control_c, 0, 64, 32
2, 101777, Control_c, 0, 64, 48
2, 101792, Control_c, 0, 64, 57
2, 101807, Control_c, 0, 64, 61
2, 101822, Control_c, 0, 64, 63
2, 101838, Control_c, 0, 64, 64
2, 101838, Note_on_c, 0, 55, 0
2, 101851, Note_on_c, 0, 54, 38
2, 101853, Control_c, 0, 64, 66
2, 101869, Control_c, 0, 64, 68
2, 101884, Control_c, 0, 64, 70
2, 101899, Control_c, 0, 64, 72
2, 101954, Note_on_c, 0, 59, 0
2, 101960, Control_c, 0, 64, 71
2, 102012, Note_on_c, 0, 55, 45
2, 102015, Note_on_c, 0, 54, 0
2, 102021, Control_c, 0, 64, 71
2, 102052, Control_c, 0, 64, 70
2, 102066, Note_on_c, 0, 55, 0
2, 102113, Control_c, 0, 64, 70
2, 102128, Control_c, 0, 64, 69
2, 102143, Control_c, 0, 64, 69
2, 102173, Control_c, 0, 64, 68
2, 102193, Note_on_c, 0, 61, 58
2, 102194, Note_on_c, 0, 52, 46
2, 102197, Note_on_c, 0, 55, 44
2, 102204, Control_c, 0, 64, 67
2, 102218, Control_c, 0, 64, 65
2, 102230, Note_on_c, 0, 52, 0
2, 102234, Control_c, 0, 64, 62
2, 102249, Control_c, 0, 64, 57
2, 102250, Note_on_c, 0, 55, 0
2, 102264, Control_c, 0, 64, 52
2, 102267, Note_on_c, 0, 61, 0
2, 102279, Control_c, 0, 64, 46
2, 102294, Control_c, 0, 64, 39
2, 102310, Control_c, 0, 64, 27
2, 102325, Control_c, 0, 64, 0
2, 102374, Note_on_c, 0, 52, 36
2, 102380, Note_on_c, 0, 55, 53
2, 102391, Note_on_c, 0, 61, 60
2, 102439, Note_on_c, 0, 64, 0
2, 102523, Control_c, 0, 64, 27
2, 102545, Control_c, 0, 64, 42
2, 102560, Control_c, 0, 64, 50
2, 102572, Note_on_c, 0, 50, 42
2, 102575, Control_c, 0, 64, 55
2, 102575, Note_on_c, 0, 52, 0
2, 102591, Control_c, 0, 64, 57
2, 102606, Control_c, 0, 64, 59
2, 102621, Control_c, 0, 64, 61
2, 102636, Control_c, 0, 64, 62
2, 102651, Control_c, 0, 64, 64
2, 102665, Note_on_c, 0, 55, 0
2, 102666, Control_c, 0, 64, 65
2, 102682, Control_c, 0, 64, 66
2, 102698, Control_c, 0, 64, 68
2, 102713, Control_c, 0, 64, 71
2, 102723, Note_on_c, 0, 50, 0
2, 102728, Control_c, 0, 64, 73
2, 102743, Control_c, 0, 64, 75
2, 102747, Note_on_c, 0, 52, 47
2, 102759, Control_c, 0, 64, 78
2, 102774, Control_c, 0, 64, 80
2, 102789, Control_c, 0, 64, 83
2, 102804, Control_c, 0, 64, 85
2, 102819, Control_c, 0, 64, 85
2, 102850, Control_c, 0, 64, 85
2, 102881, Control_c, 0, 64, 84
2, 102895, Control_c, 0, 64, 83
2, 102898, Note_on_c, 0, 52, 0
2, 102907, Note_on_c, 0, 49, 48
2, 102911, Control_c, 0, 64, 81
2, 102918, Note_on_c, 0, 57, 63
2, 102926, Control_c, 0, 64, 79
2, 102941, Control_c, 0, 64, 75
2, 102944, Note_on_c, 0, 49, 0
2, 102955, Note_on_c, 0, 57, 0
2, 102957, Control_c, 0, 64, 72
2, 102972, Control_c, 0, 64, 70
2, 102982, Note_on_c, 0, 61, 0
2, 102987, Control_c, 0, 64, 68
2, 103002, Control_c, 0, 64, 67
2, 103017, Control_c, 0, 64, 65
2, 103033, Control_c, 0, 64, 63
2, 103048, Control_c, 0, 64, 60
2, 103063, Control_c, 0, 64, 56
2, 103078, Control_c, 0, 64, 54
2, 103093, Control_c, 0, 64, 50
2, 103109, Control_c, 0, 64, 45
2, 103113, Note_on_c, 0, 49, 49
2, 103113, Note_on_c, 0, 52, 54
2, 103117, Note_on_c, 0, 69, 72
2, 103119, Note_on_c, 0, 57, 54
2, 103123, Control_c, 0, 64, 38
2, 103139, Control_c, 0, 64, 29
2, 103155, Control_c, 0, 64, 18
2, 103170, Control_c, 0, 64, 9
2, 103185, Control_c, 0, 64, 0
2, 103206, Note_on_c, 0, 71, 70
2, 103219, Note_on_c, 0, 69, 0
2, 103299, Note_on_c, 0, 73, 71
2, 103317, Note_on_c, 0, 71, 0
2, 103365, Note_on_c, 0, 74, 78
2, 103367, Note_on_c, 0, 73, 0
2, 103451, Note_on_c, 0, 73, 76
2, 103480, Note_on_c, 0, 52, 0
2, 103483, Note_on_c, 0, 57, 0
2, 103483, Note_on_c, 0, 74, 0
2, 103522, Note_on_c, 0, 73, 0
2, 103523, Note_on_c, 0, 71, 80
2, 103571, Note_on_c, 0, 49, 0
2, 103611, Note_on_c, 0, 73, 80
2, 103621, Note_on_c, 0, 71, 0
2, 103672, Note_on_c, 0, 73, 0
2, 103682, Note_on_c, 0, 69, 78
2, 103790, Note_on_c, 0, 78, 84
2, 103801, Note_on_c, 0, 57, 43
2, 103816, Control_c, 0, 64, 30
2, 103832, Control_c, 0, 64, 45
2, 103846, Control_c, 0, 64, 53
2, 103861, Control_c, 0, 64, 57
2, 103877, Control_c, 0, 64, 61
2, 103892, Control_c, 0, 64, 64
2, 103905, Control_c, 0, 64, 68
2, 103909, Note_on_c, 0, 69, 0
2, 103921, Control_c, 0, 64, 76
2, 103936, Control_c, 0, 64, 87
2, 103952, Control_c, 0, 64, 119
2, 103966, Control_c, 0, 64, 127
2, 103981, Note_on_c, 0, 55, 44
2, 103984, Note_on_c, 0, 57, 0
2, 103985, Note_on_c, 0, 78, 0
2, 104125, Note_on_c, 0, 55, 0
2, 104174, Note_on_c, 0, 57, 56
2, 104236, Note_on_c, 0, 57, 0
2, 104339, Control_c, 0, 64, 117
2, 104341, Note_on_c, 0, 54, 51
2, 104355, Control_c, 0, 64, 110
2, 104370, Control_c, 0, 64, 105
2, 104385, Control_c, 0, 64, 101
2, 104387, Note_on_c, 0, 54, 0
2, 104400, Control_c, 0, 64, 97
2, 104415, Control_c, 0, 64, 93
2, 104431, Control_c, 0, 64, 90
2, 104446, Control_c, 0, 64, 88
2, 104461, Control_c, 0, 64, 86
2, 104477, Control_c, 0, 64, 83
2, 104491, Control_c, 0, 64, 79
2, 104506, Control_c, 0, 64, 74
2, 104522, Control_c, 0, 64, 68
2, 104527, Note_on_c, 0, 62, 61
2, 104530, Note_on_c, 0, 57, 52
2, 104534, Note_on_c, 0, 54, 40
2, 104537, Control_c, 0, 64, 63
2, 104553, Control_c, 0, 64, 57
2, 104568, Control_c, 0, 64, 50
2, 104583, Control_c, 0, 64, 40
2, 104599, Control_c, 0, 64, 34
2, 104613, Control_c, 0, 64, 36
2, 104629, Control_c, 0, 64, 46
2, 104644, Control_c, 0, 64, 55
2, 104659, Control_c, 0, 64, 61
2, 104675, Control_c, 0, 64, 64
2, 104689, Control_c, 0, 64, 66
2, 104701, Note_on_c, 0, 52, 47
2, 104704, Control_c, 0, 64, 69
2, 104720, Control_c, 0, 64, 74
2, 104720, Note_on_c, 0, 54, 0
2, 104734, Control_c, 0, 64, 78
2, 104750, Control_c, 0, 64, 81
2, 104765, Control_c, 0, 64, 83
2, 104810, Control_c, 0, 64, 83
2, 104825, Control_c, 0, 64, 82
2, 104849, Control_c, 0, 64, 81
2, 104856, Note_on_c, 0, 52, 0
2, 104864, Control_c, 0, 64, 81
2, 104880, Control_c, 0, 64, 80
2, 104894, Control_c, 0, 64, 78
2, 104899, Note_on_c, 0, 54, 46
2, 104910, Control_c, 0, 64, 77
2, 104925, Control_c, 0, 64, 76
2, 104939, Control_c, 0, 64, 76
2, 104944, Note_on_c, 0, 54, 0
2, 104955, Control_c, 0, 64, 75
2, 104970, Control_c, 0, 64, 73
2, 104985, Control_c, 0, 64, 71
2, 105001, Control_c, 0, 64, 69
2, 105015, Control_c, 0, 64, 69
2, 105031, Control_c, 0, 64, 68
2, 105046, Control_c, 0, 64, 67
2, 105061, Control_c, 0, 64, 66
2, 105072, Note_on_c, 0, 54, 45
2, 105073, Note_on_c, 0, 59, 54
2, 105077, Control_c, 0, 64, 65
2, 105083, Note_on_c, 0, 50, 46
2, 105091, Control_c, 0, 64, 63
2, 105097, Note_on_c, 0, 57, 0
2, 105106, Control_c, 0, 64, 63
2, 105125, Note_on_c, 0, 50, 0
2, 105134, Note_on_c, 0, 54, 0
2, 105138, Control_c, 0, 64, 62
2, 105154, Control_c, 0, 64, 60
2, 105158, Note_on_c, 0, 59, 0
2, 105168, Control_c, 0, 64, 58
2, 105183, Control_c, 0, 64, 55
2, 105199, Control_c, 0, 64, 53
2, 105214, Control_c, 0, 64, 52
2, 105230, Control_c, 0, 64, 48
2, 105241, Note_on_c, 0, 62, 0
2, 105244, Control_c, 0, 64, 41
2, 105259, Control_c, 0, 64, 29
2, 105259, Note_on_c, 0, 50, 39
2, 105260, Note_on_c, 0, 59, 60
2, 105262, Note_on_c, 0, 54, 51
2, 105275, Control_c, 0, 64, 0
2, 105351, Control_c, 0, 64, 31
2, 105366, Control_c, 0, 64, 44
2, 105381, Control_c, 0, 64, 52
2, 105397, Control_c, 0, 64, 57
2, 105412, Control_c, 0, 64, 59
2, 105415, Note_on_c, 0, 49, 43
2, 105427, Control_c, 0, 64, 61
2, 105431, Note_on_c, 0, 50, 0
2, 105443, Control_c, 0, 64, 63
2, 105457, Control_c, 0, 64, 64
2, 105473, Control_c, 0, 64, 65
2, 105482, Note_on_c, 0, 54, 0
2, 105488, Control_c, 0, 64, 67
2, 105503, Control_c, 0, 64, 68
2, 105519, Control_c, 0, 64, 70
2, 105533, Control_c, 0, 64, 72
2, 105549, Control_c, 0, 64, 74
2, 105564, Control_c, 0, 64, 76
2, 105578, Control_c, 0, 64, 77
2, 105594, Control_c, 0, 64, 78
2, 105608, Note_on_c, 0, 49, 0
2, 105610, Note_on_c, 0, 50, 52
2, 105616, Control_c, 0, 64, 77
2, 105632, Control_c, 0, 64, 77
2, 105667, Note_on_c, 0, 50, 0
2, 105678, Control_c, 0, 64, 76
2, 105693, Control_c, 0, 64, 76
2, 105709, Control_c, 0, 64, 75
2, 105724, Control_c, 0, 64, 74
2, 105738, Control_c, 0, 64, 72
2, 105754, Control_c, 0, 64, 72
2, 105769, Control_c, 0, 64, 70
2, 105783, Control_c, 0, 64, 69
2, 105794, Note_on_c, 0, 55, 62
2, 105797, Note_on_c, 0, 47, 46
2, 105799, Control_c, 0, 64, 67
2, 105814, Control_c, 0, 64, 66
2, 105830, Control_c, 0, 64, 65
2, 105845, Control_c, 0, 64, 65
2, 105845, Note_on_c, 0, 55, 0
2, 105859, Control_c, 0, 64, 64
2, 105859, Note_on_c, 0, 59, 0
2, 105860, Note_on_c, 0, 47, 0
2, 105875, Control_c, 0, 64, 64
2, 105890, Control_c, 0, 64, 62
2, 105905, Control_c, 0, 64, 61
2, 105921, Control_c, 0, 64, 60
2, 105935, Control_c, 0, 64, 59
2, 105951, Control_c, 0, 64, 57
2, 105967, Control_c, 0, 64, 53
2, 105982, Control_c, 0, 64, 47
2, 105998, Control_c, 0, 64, 41
2, 105998, Note_on_c, 0, 47, 43
2, 106000, Note_on_c, 0, 55, 45
2, 106002, Note_on_c, 0, 67, 71
2, 106012, Control_c, 0, 64, 35
2, 106013, Note_on_c, 0, 50, 46
2, 106027, Control_c, 0, 64, 30
2, 106043, Control_c, 0, 64, 21
2, 106058, Control_c, 0, 64, 0
2, 106082, Note_on_c, 0, 67, 0
2, 106082, Note_on_c, 0, 69, 65
2, 106161, Note_on_c, 0, 71, 72
2, 106173, Note_on_c, 0, 69, 0
2, 106233, Note_on_c, 0, 71, 0
2, 106236, Note_on_c, 0, 72, 78
2, 106326, Note_on_c, 0, 71, 80
2, 106331, Control_c, 0, 64, 12
2, 106335, Note_on_c, 0, 72, 0
2, 106346, Control_c, 0, 64, 16
2, 106362, Control_c, 0, 64, 18
2, 106384, Control_c, 0, 64, 20
2, 106397, Note_on_c, 0, 71, 0
2, 106399, Note_on_c, 0, 50, 0
2, 106400, Control_c, 0, 64, 22
2, 106414, Control_c, 0, 64, 23
2, 106414, Note_on_c, 0, 69, 76
2, 106420, Note_on_c, 0, 55, 0
2, 106430, Control_c, 0, 64, 25
2, 106434, Note_on_c, 0, 47, 0
2, 106445, Control_c, 0, 64, 27
2, 106460, Control_c, 0, 64, 28
2, 106476, Control_c, 0, 64, 29
2, 106491, Control_c, 0, 64, 30
2, 106494, Note_on_c, 0, 71, 80
2, 106498, Note_on_c, 0, 69, 0
2, 106521, Control_c, 0, 64, 31
2, 106556, Note_on_c, 0, 71, 0
2, 106566, Control_c, 0, 64, 31
2, 106579, Note_on_c, 0, 67, 77
2, 106581, Control_c, 0, 64, 32
2, 106597, Control_c, 0, 64, 33
2, 106626, Control_c, 0, 64, 34
2, 106642, Control_c, 0, 64, 35
2, 106657, Control_c, 0, 64, 36
2, 106673, Control_c, 0, 64, 38
2, 106688, Control_c, 0, 64, 38
2, 106696, Note_on_c, 0, 76, 79
2, 106702, Control_c, 0, 64, 39
2, 106705, Note_on_c, 0, 55, 45
2, 106718, Control_c, 0, 64, 42
2, 106733, Control_c, 0, 64, 45
2, 106749, Control_c, 0, 64, 50
2, 106763, Control_c, 0, 64, 53
2, 106780, Control_c, 0, 64, 56
2, 106796, Control_c, 0, 64, 58
2, 106810, Control_c, 0, 64, 60
2, 106825, Control_c, 0, 64, 62
2, 106841, Control_c, 0, 64, 65
2, 106855, Control_c, 0, 64, 68
2, 106871, Control_c, 0, 64, 73
2, 106881, Note_on_c, 0, 54, 50
2, 106886, Control_c, 0, 64, 79
2, 106890, Note_on_c, 0, 55, 0
2, 106901, Control_c, 0, 64, 87
2, 106916, Note_on_c, 0, 67, 0
2, 106917, Control_c, 0, 64, 92
2, 106931, Control_c, 0, 64, 96
2, 106946, Control_c, 0, 64, 100
2, 106953, Note_on_c, 0, 76, 0
2, 106962, Control_c, 0, 64, 104
2, 106978, Control_c, 0, 64, 105
2, 107008, Control_c, 0, 64, 105
2, 107053, Control_c, 0, 64, 105
2, 107075, Note_on_c, 0, 55, 53
2, 107099, Control_c, 0, 64, 105
2, 107110, Note_on_c, 0, 54, 0
2, 107115, Control_c, 0, 64, 104
2, 107168, Control_c, 0, 64, 102
2, 107183, Control_c, 0, 64, 100
2, 107185, Note_on_c, 0, 55, 0
2, 107198, Control_c, 0, 64, 96
2, 107213, Control_c, 0, 64, 93
2, 107229, Control_c, 0, 64, 91
2, 107244, Control_c, 0, 64, 90
2, 107246, Note_on_c, 0, 52, 53
2, 107259, Control_c, 0, 64, 88
2, 107274, Control_c, 0, 64, 85
2, 107286, Note_on_c, 0, 52, 0
2, 107289, Control_c, 0, 64, 81
2, 107304, Control_c, 0, 64, 78
2, 107320, Control_c, 0, 64, 77
2, 107335, Control_c, 0, 64, 76
2, 107351, Control_c, 0, 64, 75
2, 107366, Control_c, 0, 64, 75
2, 107380, Control_c, 0, 64, 73
2, 107396, Control_c, 0, 64, 69
2, 107411, Control_c, 0, 64, 65
2, 107426, Control_c, 0, 64, 62
2, 107426, Note_on_c, 0, 55, 62
2, 107426, Note_on_c, 0, 61, 63
2, 107440, Note_on_c, 0, 52, 40
2, 107442, Control_c, 0, 64, 57
2, 107457, Control_c, 0, 64, 48
2, 107472, Control_c, 0, 64, 30
2, 107487, Control_c, 0, 64, 0
2, 107547, Control_c, 0, 64, 38
2, 107563, Control_c, 0, 64, 52
2, 107578, Control_c, 0, 64, 59
2, 107584, Note_on_c, 0, 52, 0
2, 107594, Control_c, 0, 64, 62
2, 107610, Control_c, 0, 64, 64
2, 107624, Control_c, 0, 64, 65
2, 107625, Note_on_c, 0, 50, 35
2, 107640, Control_c, 0, 64, 68
2, 107655, Control_c, 0, 64, 71
2, 107671, Control_c, 0, 64, 74
2, 107686, Control_c, 0, 64, 75
2, 107716, Control_c, 0, 64, 74
2, 107731, Control_c, 0, 64, 74
2, 107763, Note_on_c, 0, 50, 0
2, 107792, Control_c, 0, 64, 73
2, 107807, Control_c, 0, 64, 73
2, 107809, Note_on_c, 0, 52, 36
2, 107822, Control_c, 0, 64, 72
2, 107837, Control_c, 0, 64, 72
2, 107843, Note_on_c, 0, 52, 0
2, 107867, Control_c, 0, 64, 71
2, 107883, Control_c, 0, 64, 71
2, 107898, Control_c, 0, 64, 70
2, 107921, Control_c, 0, 64, 70
2, 107952, Control_c, 0, 64, 69
2, 107974, Note_on_c, 0, 49, 42
2, 107974, Note_on_c, 0, 52, 37
2, 107980, Note_on_c, 0, 57, 59
2, 107981, Control_c, 0, 64, 69
2, 107997, Control_c, 0, 64, 68
2, 108012, Control_c, 0, 64, 67
2, 108013, Note_on_c, 0, 55, 0
2, 108027, Control_c, 0, 64, 67
2, 108029, Note_on_c, 0, 49, 0
2, 108042, Control_c, 0, 64, 66
2, 108050, Note_on_c, 0, 52, 0
2, 108057, Control_c, 0, 64, 65
2, 108072, Note_on_c, 0, 57, 0
2, 108073, Control_c, 0, 64, 64
2, 108088, Control_c, 0, 64, 61
2, 108103, Control_c, 0, 64, 56
2, 108118, Control_c, 0, 64, 48
2, 108133, Control_c, 0, 64, 37
2, 108149, Control_c, 0, 64, 0
2, 108161, Note_on_c, 0, 49, 39
2, 108168, Note_on_c, 0, 57, 63
2, 108172, Note_on_c, 0, 52, 55
2, 108224, Control_c, 0, 64, 19
2, 108240, Control_c, 0, 64, 47
2, 108255, Control_c, 0, 64, 57
2, 108256, Note_on_c, 0, 61, 0
2, 108271, Control_c, 0, 64, 61
2, 108286, Control_c, 0, 64, 63
2, 108301, Control_c, 0, 64, 64
2, 108316, Control_c, 0, 64, 65
2, 108328, Note_on_c, 0, 47, 49
2, 108331, Control_c, 0, 64, 67
2, 108335, Note_on_c, 0, 49, 0
2, 108346, Control_c, 0, 64, 71
2, 108362, Control_c, 0, 64, 74
2, 108377, Control_c, 0, 64, 76
2, 108392, Control_c, 0, 64, 77
2, 108407, Control_c, 0, 64, 77
2, 108419, Note_on_c, 0, 52, 0
2, 108423, Control_c, 0, 64, 78
2, 108439, Control_c, 0, 64, 79
2, 108454, Control_c, 0, 64, 80
2, 108499, Control_c, 0, 64, 79
2, 108523, Note_on_c, 0, 47, 0
2, 108525, Note_on_c, 0, 49, 45
2, 108544, Control_c, 0, 64, 79
2, 108560, Control_c, 0, 64, 78
2, 108575, Control_c, 0, 64, 77
2, 108591, Control_c, 0, 64, 76
2, 108601, Note_on_c, 0, 49, 0
2, 108606, Control_c, 0, 64, 76
2, 108620, Control_c, 0, 64, 75
2, 108636, Control_c, 0, 64, 75
2, 108651, Control_c, 0, 64, 74
2, 108666, Control_c, 0, 64, 73
2, 108689, Control_c, 0, 64, 71
2, 108696, Note_on_c, 0, 54, 68
2, 108704, Control_c, 0, 64, 69
2, 108712, Note_on_c, 0, 57, 0
2, 108717, Note_on_c, 0, 45, 51
2, 108720, Control_c, 0, 64, 69
2, 108735, Control_c, 0, 64, 68
2, 108751, Control_c, 0, 64, 67
2, 108757, Note_on_c, 0, 45, 0
2, 108757, Note_on_c, 0, 54, 0
2, 108765, Control_c, 0, 64, 65
2, 108780, Control_c, 0, 64, 63
2, 108796, Control_c, 0, 64, 61
2, 108811, Control_c, 0, 64, 59
2, 108826, Control_c, 0, 64, 57
2, 108841, Control_c, 0, 64, 55
2, 108856, Control_c, 0, 64, 51
2, 108872, Control_c, 0, 64, 46
2, 108886, Control_c, 0, 64, 40
2, 108901, Control_c, 0, 64, 33
2, 108907, Note_on_c, 0, 66, 65
2, 108916, Note_on_c, 0, 49, 47
2, 108917, Control_c, 0, 64, 21
2, 108920, Note_on_c, 0, 45, 52
2, 108923, Note_on_c, 0, 54, 51
2, 108932, Control_c, 0, 64, 0
2, 108977, Note_on_c, 0, 66, 0
2, 109005, Note_on_c, 0, 67, 60
2, 109053, Control_c, 0, 64, 25
2, 109064, Note_on_c, 0, 69, 69
2, 109069, Control_c, 0, 64, 40
2, 109070, Note_on_c, 0, 67, 0
2, 109084, Control_c, 0, 64, 49
2, 109099, Control_c, 0, 64, 54
2, 109115, Control_c, 0, 64, 57
2, 109129, Control_c, 0, 64, 59
2, 109138, Note_on_c, 0, 69, 0
2, 109144, Control_c, 0, 64, 60
2, 109153, Note_on_c, 0, 71, 66
2, 109160, Control_c, 0, 64, 62
2, 109175, Control_c, 0, 64, 63
2, 109191, Control_c, 0, 64, 63
2, 109206, Control_c, 0, 64, 64
2, 109220, Control_c, 0, 64, 64
2, 109234, Note_on_c, 0, 69, 72
2, 109237, Control_c, 0, 64, 65
2, 109239, Note_on_c, 0, 45, 0
2, 109241, Note_on_c, 0, 71, 0
2, 109252, Control_c, 0, 64, 66
2, 109280, Note_on_c, 0, 69, 0
2, 109289, Note_on_c, 0, 54, 0
2, 109297, Control_c, 0, 64, 66
2, 109302, Note_on_c, 0, 49, 0
2, 109309, Note_on_c, 0, 67, 64
2, 109328, Control_c, 0, 64, 65
2, 109359, Control_c, 0, 64, 65
2, 109374, Control_c, 0, 64, 64
2, 109384, Note_on_c, 0, 69, 74
2, 109387, Note_on_c, 0, 67, 0
2, 109389, Control_c, 0, 64, 62
2, 109404, Control_c, 0, 64, 60
2, 109419, Control_c, 0, 64, 59
2, 109435, Control_c, 0, 64, 59
2, 109457, Control_c, 0, 64, 58
2, 109472, Control_c, 0, 64, 56
2, 109481, Note_on_c, 0, 66, 74
2, 109487, Control_c, 0, 64, 53
2, 109487, Note_on_c, 0, 69, 0
2, 109502, Control_c, 0, 64, 50
2, 109518, Control_c, 0, 64, 47
2, 109533, Control_c, 0, 64, 45
2, 109549, Control_c, 0, 64, 42
2, 109564, Control_c, 0, 64, 36
2, 109567, Note_on_c, 0, 74, 80
2, 109569, Note_on_c, 0, 59, 53
2, 109579, Control_c, 0, 64, 25
2, 109592, Note_on_c, 0, 66, 0
2, 109595, Control_c, 0, 64, 0
2, 109661, Note_on_c, 0, 59, 0
2, 109671, Note_on_c, 0, 61, 54
2, 109740, Note_on_c, 0, 61, 0
2, 109745, Control_c, 0, 64, 22
2, 109750, Note_on_c, 0, 62, 55
2, 109761, Control_c, 0, 64, 31
2, 109776, Control_c, 0, 64, 40
2, 109792, Control_c, 0, 64, 46
2, 109806, Control_c, 0, 64, 50
2, 109816, Note_on_c, 0, 62, 0
2, 109821, Control_c, 0, 64, 53
2, 109834, Note_on_c, 0, 64, 59
2, 109837, Control_c, 0, 64, 55
2, 109851, Control_c, 0, 64, 57
2, 109866, Control_c, 0, 64, 59
2, 109882, Control_c, 0, 64, 61
2, 109897, Control_c, 0, 64, 63
2, 109911, Note_on_c, 0, 64, 0
2, 109913, Control_c, 0, 64, 64
2, 109926, Note_on_c, 0, 62, 53
2, 109928, Control_c, 0, 64, 66
2, 109942, Control_c, 0, 64, 69
2, 109958, Control_c, 0, 64, 72
2, 109964, Note_on_c, 0, 74, 0
2, 109973, Control_c, 0, 64, 74
2, 109989, Control_c, 0, 64, 76
2, 110001, Note_on_c, 0, 62, 0
2, 110004, Control_c, 0, 64, 78
2, 110019, Control_c, 0, 64, 79
2, 110023, Note_on_c, 0, 61, 54
2, 110065, Control_c, 0, 64, 79
2, 110081, Control_c, 0, 64, 78
2, 110095, Control_c, 0, 64, 78
2, 110098, Note_on_c, 0, 74, 75
2, 110111, Control_c, 0, 64, 77
2, 110118, Note_on_c, 0, 61, 0
2, 110120, Note_on_c, 0, 62, 63
2, 110126, Control_c, 0, 64, 76
2, 110141, Control_c, 0, 64, 73
2, 110156, Control_c, 0, 64, 70
2, 110158, Note_on_c, 0, 62, 0
2, 110163, Note_on_c, 0, 59, 57
2, 110171, Control_c, 0, 64, 67
2, 110184, Note_on_c, 0, 74, 0
2, 110186, Control_c, 0, 64, 65
2, 110190, Note_on_c, 0, 59, 0
2, 110202, Control_c, 0, 64, 64
2, 110224, Control_c, 0, 64, 62
2, 110240, Control_c, 0, 64, 60
2, 110254, Control_c, 0, 64, 56
2, 110270, Control_c, 0, 64, 51
2, 110285, Control_c, 0, 64, 45
2, 110285, Note_on_c, 0, 52, 63
2, 110288, Note_on_c, 0, 74, 79
2, 110290, Note_on_c, 0, 67, 66
2, 110300, Control_c, 0, 64, 39
2, 110316, Control_c, 0, 64, 32
2, 110331, Control_c, 0, 64, 22
2, 110346, Control_c, 0, 64, 0
2, 110374, Note_on_c, 0, 52, 0
2, 110374, Note_on_c, 0, 54, 58
2, 110439, Note_on_c, 0, 54, 0
2, 110450, Note_on_c, 0, 55, 58
2, 110513, Control_c, 0, 64, 21
2, 110528, Control_c, 0, 64, 41
2, 110533, Note_on_c, 0, 55, 0
2, 110539, Note_on_c, 0, 57, 59
2, 110543, Control_c, 0, 64, 52
2, 110559, Control_c, 0, 64, 58
2, 110573, Control_c, 0, 64, 61
2, 110589, Control_c, 0, 64, 63
2, 110604, Control_c, 0, 64, 64
2, 110619, Control_c, 0, 64, 67
2, 110621, Note_on_c, 0, 57, 0
2, 110635, Control_c, 0, 64, 70
2, 110640, Note_on_c, 0, 55, 61
2, 110649, Control_c, 0, 64, 73
2, 110664, Control_c, 0, 64, 76
2, 110680, Control_c, 0, 64, 77
2, 110698, Note_on_c, 0, 55, 0
2, 110716, Note_on_c, 0, 54, 71
2, 110740, Control_c, 0, 64, 76
2, 110756, Control_c, 0, 64, 76
2, 110771, Control_c, 0, 64, 75
2, 110786, Control_c, 0, 64, 74
2, 110802, Control_c, 0, 64, 73
2, 110805, Note_on_c, 0, 67, 0
2, 110817, Control_c, 0, 64, 72
2, 110821, Note_on_c, 0, 76, 77
2, 110823, Note_on_c, 0, 74, 0
2, 110830, Note_on_c, 0, 54, 0
2, 110830, Note_on_c, 0, 55, 65
2, 110833, Control_c, 0, 64, 71
2, 110848, Control_c, 0, 64, 70
2, 110863, Control_c, 0, 64, 69
2, 110870, Note_on_c, 0, 52, 53
2, 110870, Note_on_c, 0, 55, 0
2, 110879, Control_c, 0, 64, 67
2, 110894, Control_c, 0, 64, 65
2, 110896, Note_on_c, 0, 52, 0
2, 110910, Control_c, 0, 64, 64
2, 110916, Note_on_c, 0, 76, 0
2, 110924, Control_c, 0, 64, 63
2, 110970, Control_c, 0, 64, 62
2, 110994, Control_c, 0, 64, 60
2, 111005, Note_on_c, 0, 57, 55
2, 111007, Note_on_c, 0, 74, 65
2, 111008, Control_c, 0, 64, 57
2, 111023, Control_c, 0, 64, 51
2, 111039, Control_c, 0, 64, 46
2, 111052, Note_on_c, 0, 74, 0
2, 111054, Control_c, 0, 64, 40
2, 111061, Note_on_c, 0, 73, 70
2, 111062, Note_on_c, 0, 57, 0
2, 111070, Control_c, 0, 64, 34
2, 111078, Note_on_c, 0, 59, 54
2, 111084, Control_c, 0, 64, 29
2, 111099, Control_c, 0, 64, 26
2, 111117, Note_on_c, 0, 73, 0
2, 111118, Note_on_c, 0, 74, 73
2, 111130, Control_c, 0, 64, 31
2, 111141, Note_on_c, 0, 59, 0
2, 111144, Control_c, 0, 64, 41
2, 111146, Note_on_c, 0, 61, 60
2, 111160, Control_c, 0, 64, 51
2, 111175, Control_c, 0, 64, 56
2, 111181, Note_on_c, 0, 73, 79
2, 111190, Note_on_c, 0, 74, 0
2, 111191, Control_c, 0, 64, 60
2, 111206, Control_c, 0, 64, 62
2, 111218, Note_on_c, 0, 61, 0
2, 111220, Control_c, 0, 64, 63
2, 111236, Control_c, 0, 64, 64
2, 111240, Note_on_c, 0, 62, 60
2, 111251, Control_c, 0, 64, 65
2, 111282, Control_c, 0, 64, 64
2, 111328, Control_c, 0, 64, 64
2, 111330, Note_on_c, 0, 62, 0
2, 111343, Note_on_c, 0, 61, 56
2, 111373, Control_c, 0, 64, 63
2, 111389, Control_c, 0, 64, 63
2, 111395, Note_on_c, 0, 61, 0
2, 111404, Control_c, 0, 64, 62
2, 111416, Note_on_c, 0, 59, 60
2, 111434, Control_c, 0, 64, 62
2, 111449, Control_c, 0, 64, 61
2, 111480, Control_c, 0, 64, 61
2, 111494, Control_c, 0, 64, 60
2, 111499, Note_on_c, 0, 59, 0
2, 111504, Note_on_c, 0, 61, 66
2, 111525, Control_c, 0, 64, 60
2, 111532, Note_on_c, 0, 74, 69
2, 111539, Control_c, 0, 64, 59
2, 111550, Note_on_c, 0, 73, 0
2, 111555, Control_c, 0, 64, 59
2, 111566, Note_on_c, 0, 57, 56
2, 111578, Note_on_c, 0, 61, 0
2, 111585, Control_c, 0, 64, 58
2, 111603, Note_on_c, 0, 76, 73
2, 111610, Note_on_c, 0, 57, 0
2, 111631, Control_c, 0, 64, 58
2, 111631, Note_on_c, 0, 74, 0
2, 111693, Note_on_c, 0, 62, 35
2, 111699, Note_on_c, 0, 66, 62
2, 111699, Note_on_c, 0, 78, 80
2, 111709, Control_c, 0, 64, 57
2, 111717, Note_on_c, 0, 50, 54
2, 111723, Control_c, 0, 64, 53
2, 111746, Control_c, 0, 64, 42
2, 111752, Note_on_c, 0, 62, 0
2, 111756, Note_on_c, 0, 76, 0
2, 111762, Control_c, 0, 64, 23
2, 111768, Note_on_c, 0, 50, 0
2, 111776, Control_c, 0, 64, 13
2, 111777, Note_on_c, 0, 52, 53
2, 111792, Control_c, 0, 64, 17
2, 111807, Control_c, 0, 64, 31
2, 111822, Control_c, 0, 64, 44
2, 111838, Control_c, 0, 64, 53
2, 111852, Control_c, 0, 64, 57
2, 111867, Control_c, 0, 64, 60
2, 111874, Note_on_c, 0, 52, 0
2, 111883, Control_c, 0, 64, 61
2, 111887, Note_on_c, 0, 54, 55
2, 111898, Control_c, 0, 64, 62
2, 111914, Control_c, 0, 64, 63
2, 111928, Control_c, 0, 64, 64
2, 111937, Note_on_c, 0, 54, 0
2, 111965, Note_on_c, 0, 55, 53
2, 111973, Note_on_c, 0, 66, 0
2, 112060, Note_on_c, 0, 54, 61
2, 112064, Control_c, 0, 64, 63
2, 112075, Note_on_c, 0, 55, 0
2, 112080, Control_c, 0, 64, 63
2, 112091, Note_on_c, 0, 78, 0
2, 112132, Note_on_c, 0, 54, 0
2, 112169, Note_on_c, 0, 52, 39
2, 112171, Control_c, 0, 64, 62
2, 112215, Note_on_c, 0, 52, 0
2, 112217, Control_c, 0, 64, 62
2, 112257, Note_on_c, 0, 54, 48
2, 112262, Control_c, 0, 64, 61
2, 112293, Control_c, 0, 64, 61
2, 112324, Control_c, 0, 64, 60
2, 112331, Note_on_c, 0, 54, 0
2, 112336, Note_on_c, 0, 50, 35
2, 112338, Control_c, 0, 64, 60
2, 112354, Control_c, 0, 64, 59
2, 112369, Control_c, 0, 64, 59
2, 112399, Control_c, 0, 64, 58
2, 112414, Control_c, 0, 64, 56
2, 112430, Control_c, 0, 64, 52
2, 112445, Control_c, 0, 64, 44
2, 112450, Note_on_c, 0, 83, 51
2, 112456, Note_on_c, 0, 55, 39
2, 112459, Control_c, 0, 64, 38
2, 112472, Note_on_c, 0, 50, 0
2, 112475, Control_c, 0, 64, 35
2, 112505, Control_c, 0, 64, 36
2, 112529, Control_c, 0, 64, 42
2, 112544, Control_c, 0, 64, 50
2, 112560, Control_c, 0, 64, 55
2, 112575, Control_c, 0, 64, 58
2, 112591, Control_c, 0, 64, 60
2, 112606, Control_c, 0, 64, 62
2, 112620, Control_c, 0, 64, 63
2, 112636, Control_c, 0, 64, 65
2, 112651, Control_c, 0, 64, 67
2, 112657, Note_on_c, 0, 81, 52
2, 112666, Control_c, 0, 64, 69
2, 112682, Control_c, 0, 64, 72
2, 112691, Note_on_c, 0, 83, 0
2, 112696, Control_c, 0, 64, 75
2, 112712, Control_c, 0, 64, 78
2, 112713, Note_on_c, 0, 55, 0
2, 112727, Control_c, 0, 64, 81
2, 112742, Control_c, 0, 64, 84
2, 112758, Control_c, 0, 64, 86
2, 112772, Control_c, 0, 64, 89
2, 112787, Control_c, 0, 64, 92
2, 112803, Control_c, 0, 64, 95
2, 112817, Control_c, 0, 64, 99
2, 112833, Control_c, 0, 64, 100
2, 112841, Note_on_c, 0, 83, 57
2, 112863, Control_c, 0, 64, 101
2, 112879, Control_c, 0, 64, 102
2, 112889, Note_on_c, 0, 81, 0
2, 112893, Control_c, 0, 64, 106
2, 112909, Control_c, 0, 64, 110
2, 112924, Control_c, 0, 64, 111
2, 113000, Control_c, 0, 64, 110
2, 113013, Note_on_c, 0, 83, 0
2, 113015, Control_c, 0, 64, 108
2, 113022, Note_on_c, 0, 79, 59
2, 113031, Control_c, 0, 64, 107
2, 113080, Note_on_c, 0, 79, 0
2, 113092, Control_c, 0, 64, 105
2, 113106, Control_c, 0, 64, 102
2, 113122, Control_c, 0, 64, 98
2, 113137, Control_c, 0, 64, 96
2, 113153, Control_c, 0, 64, 94
2, 113168, Control_c, 0, 64, 93
2, 113182, Control_c, 0, 64, 90
2, 113198, Control_c, 0, 64, 86
2, 113208, Note_on_c, 0, 79, 62
2, 113212, Note_on_c, 0, 71, 45
2, 113213, Control_c, 0, 64, 78
2, 113220, Note_on_c, 0, 74, 43
2, 113227, Control_c, 0, 64, 71
2, 113243, Control_c, 0, 64, 64
2, 113258, Control_c, 0, 64, 57
2, 113274, Control_c, 0, 64, 51
2, 113296, Control_c, 0, 64, 51
2, 113312, Control_c, 0, 64, 52
2, 113327, Control_c, 0, 64, 54
2, 113342, Control_c, 0, 64, 58
2, 113358, Control_c, 0, 64, 62
2, 113373, Control_c, 0, 64, 65
2, 113389, Control_c, 0, 64, 68
2, 113395, Note_on_c, 0, 74, 0
2, 113404, Control_c, 0, 64, 72
2, 113404, Note_on_c, 0, 78, 59
2, 113419, Control_c, 0, 64, 77
2, 113421, Note_on_c, 0, 79, 0
2, 113435, Control_c, 0, 64, 82
2, 113444, Note_on_c, 0, 71, 0
2, 113450, Control_c, 0, 64, 88
2, 113464, Control_c, 0, 64, 94
2, 113480, Control_c, 0, 64, 102
2, 113495, Control_c, 0, 64, 119
2, 113511, Control_c, 0, 64, 127
2, 113580, Note_on_c, 0, 79, 54
2, 113692, Note_on_c, 0, 78, 0
2, 113763, Note_on_c, 0, 71, 35
2, 113763, Note_on_c, 0, 76, 60
2, 113771, Note_on_c, 0, 67, 45
2, 113794, Note_on_c, 0, 79, 0
2, 113809, Note_on_c, 0, 71, 0
2, 113810, Note_on_c, 0, 76, 0
2, 113813, Note_on_c, 0, 67, 0
2, 113890, Control_c, 0, 64, 118
2, 113905, Control_c, 0, 64, 106
2, 113921, Control_c, 0, 64, 97
2, 113935, Control_c, 0, 64, 92
2, 113951, Control_c, 0, 64, 87
2, 113963, Note_on_c, 0, 76, 60
2, 113966, Control_c, 0, 64, 82
2, 113969, Note_on_c, 0, 67, 41
2, 113969, Note_on_c, 0, 71, 44
2, 113981, Control_c, 0, 64, 73
2, 113996, Control_c, 0, 64, 65
2, 114011, Control_c, 0, 64, 59
2, 114026, Control_c, 0, 64, 53
2, 114042, Control_c, 0, 64, 52
2, 114064, Control_c, 0, 64, 53
2, 114080, Control_c, 0, 64, 56
2, 114094, Control_c, 0, 64, 60
2, 114110, Control_c, 0, 64, 63
2, 114125, Control_c, 0, 64, 66
2, 114132, Note_on_c, 0, 76, 0
2, 114140, Control_c, 0, 64, 71
2, 114149, Note_on_c, 0, 74, 57
2, 114157, Control_c, 0, 64, 77
2, 114165, Note_on_c, 0, 71, 0
2, 114172, Control_c, 0, 64, 87
2, 114186, Control_c, 0, 64, 97
2, 114202, Control_c, 0, 64, 119
2, 114217, Control_c, 0, 64, 127
2, 114275, Note_on_c, 0, 67, 0
2, 114355, Note_on_c, 0, 76, 54
2, 114557, Note_on_c, 0, 73, 63
2, 114559, Note_on_c, 0, 69, 31
2, 114559, Note_on_c, 0, 74, 0
2, 114566, Note_on_c, 0, 76, 0
2, 114572, Note_on_c, 0, 64, 38
2, 114593, Note_on_c, 0, 69, 0
2, 114602, Note_on_c, 0, 64, 0
2, 114602, Note_on_c, 0, 73, 0
2, 114764, Control_c, 0, 64, 123
2, 114779, Control_c, 0, 64, 105
2, 114794, Control_c, 0, 64, 99
2, 114809, Control_c, 0, 64, 95
2, 114832, Control_c, 0, 64, 92
2, 114844, Note_on_c, 0, 69, 53
2, 114847, Control_c, 0, 64, 86
2, 114851, Note_on_c, 0, 73, 58
2, 114855, Note_on_c, 0, 64, 50
2, 114862, Control_c, 0, 64, 79
2, 114878, Control_c, 0, 64, 72
2, 114880, Note_on_c, 0, 55, 28
2, 114881, Note_on_c, 0, 43, 35
2, 114892, Control_c, 0, 64, 67
2, 114907, Control_c, 0, 64, 63
2, 114923, Control_c, 0, 64, 61
2, 114938, Control_c, 0, 64, 58
2, 114954, Control_c, 0, 64, 54
2, 114969, Control_c, 0, 64, 52
2, 115000, Control_c, 0, 64, 55
2, 115015, Control_c, 0, 64, 59
2, 115031, Control_c, 0, 64, 63
2, 115046, Control_c, 0, 64, 66
2, 115060, Control_c, 0, 64, 69
2, 115076, Control_c, 0, 64, 73
2, 115091, Control_c, 0, 64, 78
2, 115106, Control_c, 0, 64, 85
2, 115122, Control_c, 0, 64, 94
2, 115137, Control_c, 0, 64, 104
2, 115152, Control_c, 0, 64, 127
2, 115230, Note_on_c, 0, 55, 0
2, 115261, Note_on_c, 0, 43, 0
2, 115287, Note_on_c, 0, 64, 0
2, 115323, Note_on_c, 0, 73, 0
2, 115358, Note_on_c, 0, 69, 0
2, 115694, Note_on_c, 0, 74, 81
2, 115702, Note_on_c, 0, 66, 77
2, 115705, Note_on_c, 0, 54, 77
2, 115705, Note_on_c, 0, 69, 76
2, 115767, Control_c, 0, 64, 91
2, 115780, Note_on_c, 0, 55, 72
2, 115782, Control_c, 0, 64, 73
2, 115798, Control_c, 0, 64, 63
2, 115813, Control_c, 0, 64, 60
2, 115838, Note_on_c, 0, 54, 0
2, 115859, Control_c, 0, 64, 59
2, 115874, Control_c, 0, 64, 57
2, 115876, Note_on_c, 0, 55, 0
2, 115884, Note_on_c, 0, 57, 69
2, 115889, Control_c, 0, 64, 55
2, 115904, Control_c, 0, 64, 54
2, 115920, Control_c, 0, 64, 53
2, 115935, Control_c, 0, 64, 52
2, 115951, Control_c, 0, 64, 51
2, 115966, Control_c, 0, 64, 48
2, 115976, Note_on_c, 0, 57, 0
2, 115981, Control_c, 0, 64, 46
2, 115984, Note_on_c, 0, 55, 66
2, 116011, Control_c, 0, 64, 45
2, 116026, Control_c, 0, 64, 45
2, 116042, Control_c, 0, 64, 42
2, 116053, Note_on_c, 0, 54, 66
2, 116057, Control_c, 0, 64, 36
2, 116057, Note_on_c, 0, 55, 0
2, 116072, Control_c, 0, 64, 28
2, 116087, Control_c, 0, 64, 15
2, 116090, Note_on_c, 0, 54, 0
2, 116098, Note_on_c, 0, 74, 0
2, 116102, Control_c, 0, 64, 0
2, 116120, Note_on_c, 0, 69, 0
2, 116121, Note_on_c, 0, 66, 0
2, 116125, Note_on_c, 0, 52, 75
2, 116204, Note_on_c, 0, 50, 70
2, 116205, Note_on_c, 0, 52, 0
2, 116219, Note_on_c, 0, 74, 75
2, 116224, Note_on_c, 0, 66, 74
2, 116227, Note_on_c, 0, 69, 70
2, 116301, Note_on_c, 0, 49, 52
2, 116305, Note_on_c, 0, 69, 0
2, 116311, Note_on_c, 0, 66, 0
2, 116315, Note_on_c, 0, 74, 0
2, 116323, Note_on_c, 0, 50, 0
2, 116381, Note_on_c, 0, 49, 0
2, 116397, Note_on_c, 0, 47, 72
2, 116407, Note_on_c, 0, 71, 80
2, 116407, Note_on_c, 0, 74, 86
2, 116410, Note_on_c, 0, 66, 85
2, 116484, Note_on_c, 0, 47, 0
2, 116493, Note_on_c, 0, 49, 70
2, 116562, Note_on_c, 0, 49, 0
2, 116577, Note_on_c, 0, 50, 64
2, 116678, Note_on_c, 0, 49, 67
2, 116696, Note_on_c, 0, 50, 0
2, 116733, Control_c, 0, 64, 9
2, 116749, Control_c, 0, 64, 21
2, 116758, Note_on_c, 0, 47, 62
2, 116764, Control_c, 0, 64, 30
2, 116767, Note_on_c, 0, 49, 0
2, 116773, Note_on_c, 0, 66, 0
2, 116779, Control_c, 0, 64, 38
2, 116781, Note_on_c, 0, 71, 0
2, 116795, Control_c, 0, 64, 44
2, 116810, Control_c, 0, 64, 48
2, 116817, Note_on_c, 0, 74, 0
2, 116824, Control_c, 0, 64, 49
2, 116839, Note_on_c, 0, 47, 0
2, 116840, Control_c, 0, 64, 50
2, 116843, Note_on_c, 0, 45, 63
2, 116871, Control_c, 0, 64, 51
2, 116886, Control_c, 0, 64, 52
2, 116932, Note_on_c, 0, 45, 0
2, 116946, Note_on_c, 0, 67, 73
2, 116949, Note_on_c, 0, 47, 63
2, 116950, Note_on_c, 0, 76, 69
2, 116960, Note_on_c, 0, 71, 46
2, 116961, Control_c, 0, 64, 53
2, 116975, Control_c, 0, 64, 54
2, 117002, Note_on_c, 0, 71, 0
2, 117007, Note_on_c, 0, 67, 0
2, 117011, Note_on_c, 0, 76, 0
2, 117024, Note_on_c, 0, 47, 0
2, 117043, Note_on_c, 0, 43, 54
2, 117097, Control_c, 0, 64, 53
2, 117113, Control_c, 0, 64, 51
2, 117135, Control_c, 0, 64, 50
2, 117142, Note_on_c, 0, 74, 60
2, 117149, Note_on_c, 0, 64, 55
2, 117159, Note_on_c, 0, 43, 0
2, 117164, Note_on_c, 0, 45, 56
2, 117180, Control_c, 0, 64, 51
2, 117196, Control_c, 0, 64, 53
2, 117210, Note_on_c, 0, 73, 67
2, 117211, Control_c, 0, 64, 54
2, 117226, Control_c, 0, 64, 54
2, 117227, Note_on_c, 0, 74, 0
2, 117254, Note_on_c, 0, 73, 0
2, 117256, Control_c, 0, 64, 55
2, 117259, Note_on_c, 0, 71, 63
2, 117326, Note_on_c, 0, 73, 66
2, 117335, Note_on_c, 0, 71, 0
2, 117378, Control_c, 0, 64, 54
2, 117394, Control_c, 0, 64, 53
2, 117394, Note_on_c, 0, 73, 0
2, 117409, Note_on_c, 0, 74, 61
2, 117424, Control_c, 0, 64, 53
2, 117438, Note_on_c, 0, 73, 66
2, 117440, Control_c, 0, 64, 52
2, 117443, Note_on_c, 0, 74, 0
2, 117455, Control_c, 0, 64, 50
2, 117471, Control_c, 0, 64, 49
2, 117485, Control_c, 0, 64, 47
2, 117499, Note_on_c, 0, 73, 0
2, 117500, Control_c, 0, 64, 46
2, 117507, Note_on_c, 0, 74, 71
2, 117516, Control_c, 0, 64, 45
2, 117546, Control_c, 0, 64, 46
2, 117559, Note_on_c, 0, 73, 71
2, 117562, Control_c, 0, 64, 47
2, 117577, Control_c, 0, 64, 47
2, 117580, Note_on_c, 0, 74, 0
2, 117593, Control_c, 0, 64, 48
2, 117607, Control_c, 0, 64, 50
2, 117622, Control_c, 0, 64, 52
2, 117638, Control_c, 0, 64, 55
2, 117653, Control_c, 0, 64, 59
2, 117669, Control_c, 0, 64, 61
2, 117683, Control_c, 0, 64, 64
2, 117698, Control_c, 0, 64, 68
2, 117714, Control_c, 0, 64, 74
2, 117724, Note_on_c, 0, 45, 0
2, 117729, Control_c, 0, 64, 86
2, 117743, Control_c, 0, 64, 127
2, 117817, Note_on_c, 0, 64, 0
2, 117964, Note_on_c, 0, 74, 71
2, 117966, Note_on_c, 0, 45, 39
2, 117992, Note_on_c, 0, 73, 0
2, 118000, Note_on_c, 0, 45, 0
2, 118032, Note_on_c, 0, 74, 0
2, 118116, Control_c, 0, 64, 109
2, 118131, Control_c, 0, 64, 99
2, 118145, Control_c, 0, 64, 91
2, 118161, Control_c, 0, 64, 84
2, 118176, Control_c, 0, 64, 72
2, 118178, Note_on_c, 0, 74, 63
2, 118179, Note_on_c, 0, 69, 59
2, 118182, Note_on_c, 0, 66, 63
2, 118192, Control_c, 0, 64, 62
2, 118196, Note_on_c, 0, 38, 48
2, 118207, Control_c, 0, 64, 40
2, 118222, Control_c, 0, 64, 0
2, 118253, Control_c, 0, 64, 24
2, 118269, Control_c, 0, 64, 52
2, 118284, Control_c, 0, 64, 63
2, 118291, Note_on_c, 0, 38, 0
2, 118299, Control_c, 0, 64, 69
2, 118315, Control_c, 0, 64, 80
2, 118329, Control_c, 0, 64, 107
2, 118344, Control_c, 0, 64, 127
2, 118467, Note_on_c, 0, 66, 0
2, 118596, Note_on_c, 0, 69, 0
2, 118635, Note_on_c, 0, 74, 0
2, 118684, Note_on_c, 0, 50, 55
2, 118765, Note_on_c, 0, 52, 60
2, 118766, Note_on_c, 0, 50, 0
2, 118809, Control_c, 0, 64, 100
2, 118824, Control_c, 0, 64, 88
2, 118831, Note_on_c, 0, 52, 0
2, 118836, Note_on_c, 0, 54, 63
2, 118840, Control_c, 0, 64, 79
2, 118855, Control_c, 0, 64, 72
2, 118870, Control_c, 0, 64, 67
2, 118885, Control_c, 0, 64, 64
2, 118900, Control_c, 0, 64, 59
2, 118906, Note_on_c, 0, 54, 0
2, 118916, Control_c, 0, 64, 50
2, 118916, Note_on_c, 0, 55, 64
2, 118916, Note_on_c, 0, 71, 63
2, 118931, Control_c, 0, 64, 26
2, 118945, Control_c, 0, 64, 0
2, 118997, Note_on_c, 0, 73, 66
2, 119014, Note_on_c, 0, 71, 0
2, 119078, Note_on_c, 0, 74, 70
2, 119085, Note_on_c, 0, 73, 0
2, 119129, Control_c, 0, 64, 32
2, 119144, Control_c, 0, 64, 53
2, 119152, Note_on_c, 0, 74, 0
2, 119158, Note_on_c, 0, 76, 71
2, 119160, Control_c, 0, 64, 62
2, 119174, Control_c, 0, 64, 66
2, 119190, Control_c, 0, 64, 70
2, 119205, Control_c, 0, 64, 77
2, 119219, Control_c, 0, 64, 94
2, 119225, Note_on_c, 0, 55, 0
2, 119235, Control_c, 0, 64, 127
2, 119245, Note_on_c, 0, 74, 67
2, 119248, Note_on_c, 0, 76, 0
2, 119324, Note_on_c, 0, 74, 0
2, 119332, Note_on_c, 0, 73, 68
2, 119411, Note_on_c, 0, 73, 0
2, 119411, Note_on_c, 0, 74, 73
2, 119479, Note_on_c, 0, 74, 0
2, 119504, Note_on_c, 0, 71, 61
2, 119527, Note_on_c, 0, 71, 0
2, 119592, Control_c, 0, 64, 107
2, 119601, Note_on_c, 0, 76, 79
2, 119607, Control_c, 0, 64, 87
2, 119607, Note_on_c, 0, 71, 68
2, 119615, Note_on_c, 0, 64, 74
2, 119616, Note_on_c, 0, 49, 48
2, 119622, Control_c, 0, 64, 76
2, 119640, Control_c, 0, 64, 70
2, 119655, Control_c, 0, 64, 66
2, 119671, Control_c, 0, 64, 65
2, 119686, Control_c, 0, 64, 63
2, 119695, Note_on_c, 0, 49, 0
2, 119700, Control_c, 0, 64, 62
2, 119704, Note_on_c, 0, 50, 52
2, 119716, Control_c, 0, 64, 58
2, 119731, Control_c, 0, 64, 54
2, 119747, Control_c, 0, 64, 50
2, 119762, Control_c, 0, 64, 49
2, 119776, Note_on_c, 0, 52, 58
2, 119778, Note_on_c, 0, 50, 0
2, 119792, Control_c, 0, 64, 48
2, 119807, Control_c, 0, 64, 47
2, 119823, Control_c, 0, 64, 45
2, 119837, Control_c, 0, 64, 45
2, 119841, Note_on_c, 0, 52, 0
2, 119867, Note_on_c, 0, 54, 61
2, 119868, Control_c, 0, 64, 46
2, 119883, Control_c, 0, 64, 46
2, 119899, Control_c, 0, 64, 47
2, 119942, Note_on_c, 0, 54, 0
2, 119945, Control_c, 0, 64, 48
2, 119945, Note_on_c, 0, 52, 59
2, 119960, Control_c, 0, 64, 49
2, 119975, Control_c, 0, 64, 49
2, 119979, Note_on_c, 0, 76, 0
2, 120011, Note_on_c, 0, 52, 0
2, 120016, Note_on_c, 0, 50, 65
2, 120020, Control_c, 0, 64, 50
2, 120036, Control_c, 0, 64, 50
2, 120039, Note_on_c, 0, 71, 0
2, 120070, Note_on_c, 0, 64, 0
2, 120076, Note_on_c, 0, 50, 0
2, 120081, Control_c, 0, 64, 50
2, 120098, Note_on_c, 0, 52, 67
2, 120170, Note_on_c, 0, 52, 0
2, 120177, Note_on_c, 0, 49, 59
2, 120188, Control_c, 0, 64, 50
2, 120211, Control_c, 0, 64, 51
2, 120226, Control_c, 0, 64, 52
2, 120241, Control_c, 0, 64, 54
2, 120256, Control_c, 0, 64, 57
2, 120272, Control_c, 0, 64, 59
2, 120279, Note_on_c, 0, 69, 62
2, 120286, Control_c, 0, 64, 61
2, 120289, Note_on_c, 0, 54, 56
2, 120302, Control_c, 0, 64, 63
2, 120317, Control_c, 0, 64, 64
2, 120332, Control_c, 0, 64, 66
2, 120348, Control_c, 0, 64, 70
2, 120359, Note_on_c, 0, 71, 68
2, 120362, Control_c, 0, 64, 75
2, 120370, Note_on_c, 0, 49, 0
2, 120370, Note_on_c, 0, 69, 0
2, 120377, Control_c, 0, 64, 85
2, 120393, Control_c, 0, 64, 98
2, 120407, Control_c, 0, 64, 127
2, 120444, Note_on_c, 0, 73, 65
2, 120446, Note_on_c, 0, 54, 0
2, 120462, Note_on_c, 0, 71, 0
2, 120523, Note_on_c, 0, 73, 0
2, 120532, Note_on_c, 0, 74, 73
2, 120626, Note_on_c, 0, 73, 72
2, 120667, Control_c, 0, 64, 109
2, 120667, Note_on_c, 0, 74, 0
2, 120682, Control_c, 0, 64, 101
2, 120696, Control_c, 0, 64, 96
2, 120700, Note_on_c, 0, 71, 61
2, 120702, Note_on_c, 0, 73, 0
2, 120713, Control_c, 0, 64, 93
2, 120728, Control_c, 0, 64, 91
2, 120744, Control_c, 0, 64, 88
2, 120759, Control_c, 0, 64, 84
2, 120774, Control_c, 0, 64, 82
2, 120784, Note_on_c, 0, 73, 79
2, 120789, Control_c, 0, 64, 81
2, 120803, Control_c, 0, 64, 80
2, 120818, Control_c, 0, 64, 79
2, 120827, Note_on_c, 0, 71, 0
2, 120834, Control_c, 0, 64, 77
2, 120849, Control_c, 0, 64, 74
2, 120864, Control_c, 0, 64, 72
2, 120869, Note_on_c, 0, 69, 70
2, 120873, Note_on_c, 0, 73, 0
2, 120879, Control_c, 0, 64, 70
2, 120894, Control_c, 0, 64, 69
2, 120906, Note_on_c, 0, 69, 0
2, 120909, Control_c, 0, 64, 68
2, 120924, Control_c, 0, 64, 66
2, 120939, Control_c, 0, 64, 61
2, 120954, Note_on_c, 0, 47, 43
2, 120955, Control_c, 0, 64, 52
2, 120957, Note_on_c, 0, 74, 80
2, 120973, Note_on_c, 0, 69, 58
2, 120975, Note_on_c, 0, 62, 68
2, 120978, Control_c, 0, 64, 39
2, 120993, Control_c, 0, 64, 0
2, 121052, Note_on_c, 0, 49, 56
2, 121057, Note_on_c, 0, 47, 0
2, 121128, Note_on_c, 0, 49, 0
2, 121129, Control_c, 0, 64, 22
2, 121138, Note_on_c, 0, 50, 61
2, 121145, Control_c, 0, 64, 44
2, 121160, Control_c, 0, 64, 53
2, 121175, Control_c, 0, 64, 58
2, 121191, Control_c, 0, 64, 62
2, 121205, Control_c, 0, 64, 64
2, 121205, Note_on_c, 0, 50, 0
2, 121216, Note_on_c, 0, 52, 66
2, 121220, Control_c, 0, 64, 68
2, 121236, Control_c, 0, 64, 73
2, 121248, Note_on_c, 0, 62, 0
2, 121251, Control_c, 0, 64, 79
2, 121267, Control_c, 0, 64, 88
2, 121282, Control_c, 0, 64, 97
2, 121297, Control_c, 0, 64, 100
2, 121306, Note_on_c, 0, 52, 0
2, 121309, Note_on_c, 0, 50, 63
2, 121312, Control_c, 0, 64, 98
2, 121327, Control_c, 0, 64, 97
2, 121358, Control_c, 0, 64, 96
2, 121373, Control_c, 0, 64, 95
2, 121389, Control_c, 0, 64, 94
2, 121389, Note_on_c, 0, 50, 0
2, 121391, Note_on_c, 0, 49, 65
2, 121403, Control_c, 0, 64, 91
2, 121418, Control_c, 0, 64, 87
2, 121434, Control_c, 0, 64, 84
2, 121448, Control_c, 0, 64, 80
2, 121464, Control_c, 0, 64, 76
2, 121474, Note_on_c, 0, 49, 0
2, 121479, Control_c, 0, 64, 73
2, 121479, Note_on_c, 0, 50, 66
2, 121494, Control_c, 0, 64, 70
2, 121510, Control_c, 0, 64, 68
2, 121526, Control_c, 0, 64, 66
2, 121541, Control_c, 0, 64, 66
2, 121550, Note_on_c, 0, 47, 59
2, 121553, Note_on_c, 0, 74, 0
2, 121555, Note_on_c, 0, 50, 0
2, 121556, Control_c, 0, 64, 65
2, 121571, Control_c, 0, 64, 65
2, 121580, Note_on_c, 0, 47, 0
2, 121587, Control_c, 0, 64, 64
2, 121602, Control_c, 0, 64, 63
2, 121617, Control_c, 0, 64, 62
2, 121632, Control_c, 0, 64, 62
2, 121647, Control_c, 0, 64, 61
2, 121653, Note_on_c, 0, 69, 0
2, 121663, Control_c, 0, 64, 60
2, 121664, Note_on_c, 0, 67, 67
2, 121670, Note_on_c, 0, 52, 64
2, 121677, Control_c, 0, 64, 59
2, 121692, Control_c, 0, 64, 57
2, 121708, Control_c, 0, 64, 55
2, 121723, Control_c, 0, 64, 54
2, 121747, Control_c, 0, 64, 52
2, 121758, Note_on_c, 0, 69, 68
2, 121761, Control_c, 0, 64, 50
2, 121761, Note_on_c, 0, 52, 0
2, 121761, Note_on_c, 0, 54, 63
2, 121773, Note_on_c, 0, 67, 0
2, 121776, Control_c, 0, 64, 46
2, 121792, Control_c, 0, 64, 39
2, 121807, Control_c, 0, 64, 22
2, 121823, Control_c, 0, 64, 0
2, 121827, Note_on_c, 0, 54, 0
2, 121834, Note_on_c, 0, 55, 59
2, 121843, Note_on_c, 0, 71, 71
2, 121863, Note_on_c, 0, 69, 0
2, 121890, Note_on_c, 0, 55, 0
2, 121911, Note_on_c, 0, 57, 61
2, 121916, Note_on_c, 0, 71, 0
2, 121918, Note_on_c, 0, 72, 78
2, 121998, Note_on_c, 0, 57, 0
2, 122001, Note_on_c, 0, 55, 60
2, 122011, Note_on_c, 0, 71, 78
2, 122019, Control_c, 0, 64, 17
2, 122035, Control_c, 0, 64, 40
2, 122039, Note_on_c, 0, 72, 0
2, 122049, Control_c, 0, 64, 50
2, 122065, Control_c, 0, 64, 54
2, 122074, Note_on_c, 0, 71, 0
2, 122080, Control_c, 0, 64, 57
2, 122080, Note_on_c, 0, 55, 0
2, 122083, Note_on_c, 0, 69, 79
2, 122085, Note_on_c, 0, 54, 64
2, 122095, Control_c, 0, 64, 60
2, 122110, Control_c, 0, 64, 63
2, 122125, Control_c, 0, 64, 66
2, 122140, Control_c, 0, 64, 69
2, 122156, Control_c, 0, 64, 73
2, 122167, Note_on_c, 0, 71, 83
2, 122170, Note_on_c, 0, 69, 0
2, 122171, Control_c, 0, 64, 78
2, 122173, Note_on_c, 0, 54, 0
2, 122180, Note_on_c, 0, 55, 64
2, 122187, Control_c, 0, 64, 84
2, 122202, Control_c, 0, 64, 86
2, 122217, Control_c, 0, 64, 85
2, 122223, Note_on_c, 0, 71, 0
2, 122233, Control_c, 0, 64, 84
2, 122241, Note_on_c, 0, 67, 78
2, 122245, Note_on_c, 0, 52, 65
2, 122245, Note_on_c, 0, 55, 0
2, 122247, Control_c, 0, 64, 82
2, 122263, Control_c, 0, 64, 78
2, 122266, Note_on_c, 0, 52, 0
2, 122278, Control_c, 0, 64, 75
2, 122290, Note_on_c, 0, 67, 0
2, 122292, Control_c, 0, 64, 71
2, 122308, Control_c, 0, 64, 68
2, 122323, Control_c, 0, 64, 65
2, 122339, Control_c, 0, 64, 63
2, 122343, Note_on_c, 0, 73, 78
2, 122355, Control_c, 0, 64, 60
2, 122362, Note_on_c, 0, 57, 67
2, 122370, Control_c, 0, 64, 56
2, 122386, Control_c, 0, 64, 51
2, 122401, Control_c, 0, 64, 44
2, 122416, Control_c, 0, 64, 34
2, 122419, Note_on_c, 0, 59, 66
2, 122421, Note_on_c, 0, 73, 0
2, 122431, Control_c, 0, 64, 24
2, 122432, Note_on_c, 0, 57, 0
2, 122435, Note_on_c, 0, 74, 82
2, 122446, Control_c, 0, 64, 16
2, 122461, Control_c, 0, 64, 12
2, 122477, Control_c, 0, 64, 11
2, 122506, Note_on_c, 0, 76, 79
2, 122508, Note_on_c, 0, 61, 67
2, 122517, Note_on_c, 0, 74, 0
2, 122523, Note_on_c, 0, 59, 0
2, 122545, Control_c, 0, 64, 20
2, 122560, Control_c, 0, 64, 35
2, 122575, Control_c, 0, 64, 49
2, 122584, Note_on_c, 0, 61, 0
2, 122587, Note_on_c, 0, 76, 0
2, 122590, Note_on_c, 0, 78, 77
2, 122591, Control_c, 0, 64, 55
2, 122595, Note_on_c, 0, 62, 69
2, 122605, Control_c, 0, 64, 58
2, 122620, Control_c, 0, 64, 60
2, 122636, Control_c, 0, 64, 63
2, 122651, Control_c, 0, 64, 65
2, 122667, Control_c, 0, 64, 69
2, 122673, Note_on_c, 0, 76, 85
2, 122679, Note_on_c, 0, 62, 0
2, 122681, Note_on_c, 0, 61, 66
2, 122682, Control_c, 0, 64, 75
2, 122697, Control_c, 0, 64, 81
2, 122712, Note_on_c, 0, 78, 0
2, 122713, Control_c, 0, 64, 88
2, 122728, Control_c, 0, 64, 94
2, 122737, Note_on_c, 0, 76, 0
2, 122743, Control_c, 0, 64, 100
2, 122754, Note_on_c, 0, 74, 80
2, 122758, Control_c, 0, 64, 104
2, 122764, Note_on_c, 0, 61, 0
2, 122769, Note_on_c, 0, 59, 64
2, 122773, Control_c, 0, 64, 105
2, 122789, Control_c, 0, 64, 107
2, 122804, Control_c, 0, 64, 108
2, 122818, Control_c, 0, 64, 108
2, 122835, Note_on_c, 0, 76, 83
2, 122840, Note_on_c, 0, 61, 67
2, 122841, Note_on_c, 0, 74, 0
2, 122849, Control_c, 0, 64, 108
2, 122865, Control_c, 0, 64, 106
2, 122880, Control_c, 0, 64, 104
2, 122893, Note_on_c, 0, 59, 0
2, 122894, Control_c, 0, 64, 102
2, 122903, Note_on_c, 0, 76, 0
2, 122910, Control_c, 0, 64, 99
2, 122913, Note_on_c, 0, 73, 82
2, 122914, Note_on_c, 0, 61, 0
2, 122925, Control_c, 0, 64, 96
2, 122934, Note_on_c, 0, 73, 0
2, 122939, Control_c, 0, 64, 92
2, 122955, Control_c, 0, 64, 88
2, 122970, Control_c, 0, 64, 85
2, 122986, Control_c, 0, 64, 83
2, 123001, Control_c, 0, 64, 80
2, 123006, Note_on_c, 0, 62, 75
2, 123011, Note_on_c, 0, 78, 88
2, 123015, Control_c, 0, 64, 78
2, 123031, Control_c, 0, 64, 76
2, 123046, Control_c, 0, 64, 73
2, 123060, Control_c, 0, 64, 71
2, 123076, Control_c, 0, 64, 69
2, 123085, Note_on_c, 0, 78, 0
2, 123090, Note_on_c, 0, 64, 69
2, 123091, Control_c, 0, 64, 68
2, 123093, Note_on_c, 0, 79, 81
2, 123100, Note_on_c, 0, 62, 0
2, 123107, Control_c, 0, 64, 67
2, 123122, Control_c, 0, 64, 66
2, 123137, Control_c, 0, 64, 65
2, 123153, Control_c, 0, 64, 63
2, 123168, Control_c, 0, 64, 59
2, 123171, Note_on_c, 0, 81, 76
2, 123173, Note_on_c, 0, 66, 70
2, 123184, Control_c, 0, 64, 52
2, 123186, Note_on_c, 0, 64, 0
2, 123190, Note_on_c, 0, 79, 0
2, 123199, Control_c, 0, 64, 40
2, 123214, Control_c, 0, 64, 0
2, 123240, Note_on_c, 0, 66, 0
2, 123248, Note_on_c, 0, 83, 88
2, 123251, Note_on_c, 0, 81, 0
2, 123253, Note_on_c, 0, 67, 67
2, 123345, Note_on_c, 0, 81, 85
2, 123348, Note_on_c, 0, 67, 0
2, 123350, Note_on_c, 0, 66, 71
2, 123373, Note_on_c, 0, 83, 0
2, 123415, Note_on_c, 0, 66, 0
2, 123421, Note_on_c, 0, 81, 0
2, 123430, Note_on_c, 0, 79, 85
2, 123431, Note_on_c, 0, 64, 45
2, 123517, Note_on_c, 0, 66, 63
2, 123517, Note_on_c, 0, 81, 83
2, 123519, Note_on_c, 0, 64, 0
2, 123529, Note_on_c, 0, 79, 0
2, 123584, Note_on_c, 0, 67, 44
2, 123600, Note_on_c, 0, 78, 87
2, 123602, Note_on_c, 0, 66, 0
2, 123638, Note_on_c, 0, 81, 0
2, 123726, Note_on_c, 0, 83, 92
2, 123744, Note_on_c, 0, 62, 67
2, 123752, Note_on_c, 0, 78, 0
2, 123754, Control_c, 0, 64, 32
2, 123769, Control_c, 0, 64, 47
2, 123784, Control_c, 0, 64, 56
2, 123799, Control_c, 0, 64, 60
2, 123808, Note_on_c, 0, 67, 0
2, 123814, Control_c, 0, 64, 63
2, 123830, Control_c, 0, 64, 64
2, 123834, Note_on_c, 0, 62, 0
2, 123845, Control_c, 0, 64, 66
2, 123859, Control_c, 0, 64, 70
2, 123868, Note_on_c, 0, 83, 0
2, 123875, Control_c, 0, 64, 77
2, 123890, Control_c, 0, 64, 91
2, 123905, Control_c, 0, 64, 127
2, 124067, Control_c, 0, 64, 107
2, 124082, Control_c, 0, 64, 95
2, 124096, Control_c, 0, 64, 90
2, 124112, Control_c, 0, 64, 87
2, 124127, Control_c, 0, 64, 85
2, 124143, Control_c, 0, 64, 80
2, 124158, Control_c, 0, 64, 75
2, 124172, Control_c, 0, 64, 73
2, 124188, Control_c, 0, 64, 72
2, 124203, Control_c, 0, 64, 73
2, 124217, Control_c, 0, 64, 72
2, 124233, Control_c, 0, 64, 72
2, 124248, Control_c, 0, 64, 71
2, 124264, Control_c, 0, 64, 70
2, 124286, Note_on_c, 0, 73, 70
2, 124293, Note_on_c, 0, 64, 66
2, 124308, Note_on_c, 0, 55, 58
2, 124311, Note_on_c, 0, 69, 55
2, 124324, Control_c, 0, 64, 69
2, 124332, Note_on_c, 0, 55, 0
2, 124336, Note_on_c, 0, 64, 0
2, 124339, Control_c, 0, 64, 67
2, 124348, Note_on_c, 0, 69, 0
2, 124354, Control_c, 0, 64, 66
2, 124369, Control_c, 0, 64, 64
2, 124385, Control_c, 0, 64, 63
2, 124415, Control_c, 0, 64, 63
2, 124446, Control_c, 0, 64, 62
2, 124461, Control_c, 0, 64, 61
2, 124477, Control_c, 0, 64, 60
2, 124483, Note_on_c, 0, 73, 0
2, 124492, Control_c, 0, 64, 58
2, 124507, Control_c, 0, 64, 54
2, 124516, Note_on_c, 0, 74, 76
2, 124522, Control_c, 0, 64, 45
2, 124527, Note_on_c, 0, 66, 68
2, 124528, Note_on_c, 0, 69, 68
2, 124531, Note_on_c, 0, 54, 65
2, 124537, Control_c, 0, 64, 21
2, 124552, Control_c, 0, 64, 0
2, 124598, Control_c, 0, 64, 23
2, 124613, Control_c, 0, 64, 47
2, 124628, Control_c, 0, 64, 57
2, 124643, Control_c, 0, 64, 62
2, 124651, Note_on_c, 0, 54, 0
2, 124658, Control_c, 0, 64, 64
2, 124674, Control_c, 0, 64, 66
2, 124689, Control_c, 0, 64, 68
2, 124704, Control_c, 0, 64, 71
2, 124719, Control_c, 0, 64, 76
2, 124734, Control_c, 0, 64, 83
2, 124749, Control_c, 0, 64, 95
2, 124764, Control_c, 0, 64, 127
2, 124849, Note_on_c, 0, 66, 0
2, 124849, Note_on_c, 0, 74, 0
2, 124915, Note_on_c, 0, 69, 0
2, 125032, Control_c, 0, 64, 123
2, 125047, Control_c, 0, 64, 107
2, 125061, Control_c, 0, 64, 100
2, 125077, Control_c, 0, 64, 96
2, 125092, Control_c, 0, 64, 92
2, 125108, Control_c, 0, 64, 87
2, 125113, Note_on_c, 0, 76, 72
2, 125115, Note_on_c, 0, 67, 69
2, 125116, Note_on_c, 0, 73, 66
2, 125123, Control_c, 0, 64, 80
2, 125123, Note_on_c, 0, 52, 49
2, 125137, Control_c, 0, 64, 74
2, 125153, Control_c, 0, 64, 70
2, 125158, Note_on_c, 0, 67, 0
2, 125159, Note_on_c, 0, 52, 0
2, 125160, Note_on_c, 0, 73, 0
2, 125168, Control_c, 0, 64, 69
2, 125181, Note_on_c, 0, 76, 0
2, 125184, Control_c, 0, 64, 68
2, 125198, Control_c, 0, 64, 66
2, 125213, Control_c, 0, 64, 65
2, 125229, Control_c, 0, 64, 64
2, 125244, Control_c, 0, 64, 63
2, 125259, Control_c, 0, 64, 62
2, 125275, Control_c, 0, 64, 60
2, 125290, Control_c, 0, 64, 54
2, 125305, Control_c, 0, 64, 39
2, 125320, Control_c, 0, 64, 0
2, 125330, Note_on_c, 0, 74, 56
2, 125333, Note_on_c, 0, 78, 78
2, 125338, Note_on_c, 0, 69, 68
2, 125346, Note_on_c, 0, 50, 64
2, 125366, Control_c, 0, 64, 34
2, 125381, Control_c, 0, 64, 55
2, 125396, Control_c, 0, 64, 64
2, 125410, Control_c, 0, 64, 70
2, 125426, Control_c, 0, 64, 80
2, 125441, Control_c, 0, 64, 123
2, 125453, Note_on_c, 0, 50, 0
2, 125456, Control_c, 0, 64, 127
2, 125465, Note_on_c, 0, 74, 0
2, 125470, Note_on_c, 0, 78, 0
2, 125481, Note_on_c, 0, 69, 0
2, 125926, Note_on_c, 0, 66, 62
2, 125932, Note_on_c, 0, 57, 62
2, 125938, Note_on_c, 0, 48, 53
2, 125950, Note_on_c, 0, 62, 51
2, 125966, Control_c, 0, 64, 121
2, 125980, Control_c, 0, 64, 98
2, 125987, Note_on_c, 0, 48, 0
2, 125994, Note_on_c, 0, 62, 0
2, 125996, Control_c, 0, 64, 84
2, 125996, Note_on_c, 0, 57, 0
2, 126011, Control_c, 0, 64, 75
2, 126023, Note_on_c, 0, 66, 0
2, 126027, Control_c, 0, 64, 71
2, 126042, Control_c, 0, 64, 69
2, 126057, Control_c, 0, 64, 69
2, 126073, Control_c, 0, 64, 68
2, 126088, Control_c, 0, 64, 67
2, 126103, Control_c, 0, 64, 65
2, 126118, Control_c, 0, 64, 64
2, 126133, Control_c, 0, 64, 63
2, 126145, Note_on_c, 0, 67, 76
2, 126149, Control_c, 0, 64, 60
2, 126150, Note_on_c, 0, 59, 68
2, 126155, Note_on_c, 0, 47, 57
2, 126155, Note_on_c, 0, 62, 64
2, 126164, Control_c, 0, 64, 55
2, 126179, Control_c, 0, 64, 44
2, 126194, Control_c, 0, 64, 23
2, 126209, Control_c, 0, 64, 0
2, 126254, Control_c, 0, 64, 35
2, 126270, Control_c, 0, 64, 52
2, 126285, Control_c, 0, 64, 60
2, 126300, Control_c, 0, 64, 64
2, 126315, Control_c, 0, 64, 66
2, 126330, Control_c, 0, 64, 70
2, 126354, Control_c, 0, 64, 76
2, 126369, Control_c, 0, 64, 86
2, 126384, Control_c, 0, 64, 109
2, 126399, Control_c, 0, 64, 127
2, 126467, Note_on_c, 0, 62, 0
2, 126489, Note_on_c, 0, 59, 0
2, 126528, Note_on_c, 0, 67, 0
2, 126666, Note_on_c, 0, 47, 0
2, 126800, Note_on_c, 0, 60, 74
2, 126801, Note_on_c, 0, 66, 69
2, 126803, Note_on_c, 0, 69, 72
2, 126808, Note_on_c, 0, 45, 57
2, 126855, Control_c, 0, 64, 115
2, 126871, Control_c, 0, 64, 111
2, 126874, Note_on_c, 0, 45, 0
2, 126901, Control_c, 0, 64, 111
2, 126904, Note_on_c, 0, 60, 0
2, 126916, Control_c, 0, 64, 109
2, 126931, Control_c, 0, 64, 106
2, 126932, Note_on_c, 0, 69, 0
2, 126947, Control_c, 0, 64, 101
2, 126962, Control_c, 0, 64, 97
2, 126965, Note_on_c, 0, 66, 0
2, 126977, Control_c, 0, 64, 95
2, 126993, Control_c, 0, 64, 94
2, 127007, Control_c, 0, 64, 92
2, 127023, Control_c, 0, 64, 87
2, 127028, Note_on_c, 0, 67, 79
2, 127033, Note_on_c, 0, 71, 85
2, 127034, Note_on_c, 0, 62, 82
2, 127036, Note_on_c, 0, 43, 67
2, 127038, Control_c, 0, 64, 79
2, 127053, Control_c, 0, 64, 68
2, 127069, Control_c, 0, 64, 45
2, 127083, Control_c, 0, 64, 0
2, 127167, Control_c, 0, 64, 33
2, 127183, Control_c, 0, 64, 52
2, 127198, Control_c, 0, 64, 60
2, 127212, Control_c, 0, 64, 64
2, 127228, Control_c, 0, 64, 67
2, 127243, Control_c, 0, 64, 71
2, 127258, Control_c, 0, 64, 79
2, 127258, Note_on_c, 0, 43, 0
2, 127274, Control_c, 0, 64, 92
2, 127289, Control_c, 0, 64, 127
2, 127303, Note_on_c, 0, 67, 0
2, 127356, Note_on_c, 0, 62, 0
2, 127374, Note_on_c, 0, 71, 0
2, 127666, Control_c, 0, 64, 110
2, 127676, Note_on_c, 0, 71, 83
2, 127678, Note_on_c, 0, 62, 82
2, 127682, Control_c, 0, 64, 85
2, 127682, Note_on_c, 0, 42, 72
2, 127682, Note_on_c, 0, 67, 76
2, 127697, Control_c, 0, 64, 68
2, 127712, Control_c, 0, 64, 56
2, 127727, Control_c, 0, 64, 57
2, 127742, Control_c, 0, 64, 65
2, 127758, Control_c, 0, 64, 74
2, 127773, Control_c, 0, 64, 91
2, 127788, Control_c, 0, 64, 127
2, 127790, Note_on_c, 0, 62, 0
2, 127832, Note_on_c, 0, 71, 0
2, 127877, Note_on_c, 0, 67, 0
2, 127944, Note_on_c, 0, 73, 90
2, 127946, Note_on_c, 0, 64, 91
2, 127947, Control_c, 0, 64, 108
2, 127952, Note_on_c, 0, 40, 66
2, 127953, Note_on_c, 0, 67, 80
2, 127963, Control_c, 0, 64, 79
2, 127978, Control_c, 0, 64, 62
2, 127991, Note_on_c, 0, 42, 0
2, 127994, Control_c, 0, 64, 0
2, 128068, Control_c, 0, 64, 32
2, 128085, Control_c, 0, 64, 48
2, 128100, Control_c, 0, 64, 55
2, 128116, Control_c, 0, 64, 60
2, 128131, Control_c, 0, 64, 62
2, 128146, Control_c, 0, 64, 65
2, 128161, Control_c, 0, 64, 67
2, 128176, Control_c, 0, 64, 71
2, 128192, Control_c, 0, 64, 77
2, 128207, Control_c, 0, 64, 88
2, 128222, Control_c, 0, 64, 109
2, 128237, Control_c, 0, 64, 127
2, 128391, Note_on_c, 0, 64, 0
2, 128403, Note_on_c, 0, 67, 0
2, 128484, Note_on_c, 0, 73, 0
2, 128745, Control_c, 0, 64, 113
2, 128753, Note_on_c, 0, 74, 82
2, 128754, Note_on_c, 0, 38, 72
2, 128758, Note_on_c, 0, 69, 79
2, 128761, Control_c, 0, 64, 86
2, 128762, Note_on_c, 0, 66, 82
2, 128776, Control_c, 0, 64, 69
2, 128792, Control_c, 0, 64, 54
2, 128795, Note_on_c, 0, 40, 0
2, 128807, Control_c, 0, 64, 49
2, 128821, Control_c, 0, 64, 59
2, 128826, Note_on_c, 0, 74, 0
2, 128837, Control_c, 0, 64, 66
2, 128837, Note_on_c, 0, 69, 0
2, 128852, Control_c, 0, 64, 73
2, 128864, Note_on_c, 0, 66, 0
2, 128867, Control_c, 0, 64, 84
2, 128883, Control_c, 0, 64, 103
2, 128898, Control_c, 0, 64, 127
2, 129091, Note_on_c, 0, 66, 82
2, 129094, Note_on_c, 0, 57, 80
2, 129096, Note_on_c, 0, 62, 78
2, 129099, Note_on_c, 0, 45, 67
2, 129109, Control_c, 0, 64, 107
2, 129122, Note_on_c, 0, 38, 0
2, 129125, Control_c, 0, 64, 90
2, 129139, Control_c, 0, 64, 75
2, 129154, Control_c, 0, 64, 63
2, 129170, Control_c, 0, 64, 46
2, 129185, Control_c, 0, 64, 0
2, 129466, Control_c, 0, 64, 16
2, 129482, Control_c, 0, 64, 34
2, 129496, Control_c, 0, 64, 43
2, 129511, Control_c, 0, 64, 50
2, 129527, Control_c, 0, 64, 54
2, 129541, Control_c, 0, 64, 58
2, 129557, Control_c, 0, 64, 61
2, 129572, Control_c, 0, 64, 63
2, 129587, Control_c, 0, 64, 67
2, 129603, Control_c, 0, 64, 71
2, 129618, Control_c, 0, 64, 77
2, 129632, Control_c, 0, 64, 87
2, 129648, Control_c, 0, 64, 100
2, 129663, Control_c, 0, 64, 127
2, 129696, Note_on_c, 0, 57, 0
2, 129740, Note_on_c, 0, 62, 0
2, 130264, Note_on_c, 0, 55, 58
2, 130267, Note_on_c, 0, 64, 62
2, 130271, Note_on_c, 0, 61, 54
2, 130296, Control_c, 0, 64, 105
2, 130310, Control_c, 0, 64, 92
2, 130324, Note_on_c, 0, 66, 0
2, 130326, Control_c, 0, 64, 82
2, 130341, Control_c, 0, 64, 74
2, 130357, Control_c, 0, 64, 68
2, 130372, Control_c, 0, 64, 61
2, 130386, Control_c, 0, 64, 52
2, 130402, Control_c, 0, 64, 39
2, 130417, Control_c, 0, 64, 27
2, 130432, Control_c, 0, 64, 18
2, 130448, Control_c, 0, 64, 11
2, 130462, Control_c, 0, 64, 0
2, 130493, Control_c, 0, 64, 16
2, 130507, Control_c, 0, 64, 34
2, 130523, Control_c, 0, 64, 47
2, 130540, Control_c, 0, 64, 55
2, 130555, Control_c, 0, 64, 59
2, 130570, Control_c, 0, 64, 62
2, 130585, Control_c, 0, 64, 64
2, 130601, Control_c, 0, 64, 66
2, 130615, Control_c, 0, 64, 68
2, 130630, Control_c, 0, 64, 70
2, 130646, Control_c, 0, 64, 74
2, 130661, Control_c, 0, 64, 78
2, 130677, Control_c, 0, 64, 86
2, 130691, Control_c, 0, 64, 98
2, 130706, Control_c, 0, 64, 119
2, 130722, Control_c, 0, 64, 127
2, 130872, Note_on_c, 0, 61, 0
2, 131029, Note_on_c, 0, 55, 0
2, 131739, Control_c, 0, 64, 107
2, 131742, Note_on_c, 0, 62, 52
2, 131751, Note_on_c, 0, 54, 43
2, 131754, Control_c, 0, 64, 95
2, 131757, Note_on_c, 0, 57, 45
2, 131758, Note_on_c, 0, 38, 28
2, 131758, Note_on_c, 0, 45, 0
2, 131770, Control_c, 0, 64, 86
2, 131785, Control_c, 0, 64, 79
2, 131794, Note_on_c, 0, 64, 0
2, 131801, Control_c, 0, 64, 73
2, 131816, Control_c, 0, 64, 68
2, 131831, Control_c, 0, 64, 64
2, 131847, Control_c, 0, 64, 59
2, 131861, Control_c, 0, 64, 55
2, 131877, Control_c, 0, 64, 52
2, 131892, Control_c, 0, 64, 49
2, 131907, Control_c, 0, 64, 44
2, 131920, Control_c, 0, 64, 39
2, 131936, Control_c, 0, 64, 30
2, 131950, Control_c, 0, 64, 21
2, 131966, Control_c, 0, 64, 17
2, 131975, Control_c, 0, 64, 17
2, 132026, Control_c, 0, 64, 16
2, 132086, Control_c, 0, 64, 17
2, 132102, Control_c, 0, 64, 18
2, 132117, Control_c, 0, 64, 19
2, 132132, Control_c, 0, 64, 22
2, 132147, Control_c, 0, 64, 27
2, 132163, Control_c, 0, 64, 33
2, 132179, Control_c, 0, 64, 38
2, 132194, Control_c, 0, 64, 41
2, 132208, Control_c, 0, 64, 42
2, 132224, Control_c, 0, 64, 43
2, 132235, Control_c, 0, 64, 46
2, 132250, Control_c, 0, 64, 49
2, 132266, Control_c, 0, 64, 52
2, 132280, Control_c, 0, 64, 53
2, 132295, Control_c, 0, 64, 54
2, 132311, Control_c, 0, 64, 55
2, 132326, Control_c, 0, 64, 57
2, 132341, Control_c, 0, 64, 58
2, 132356, Control_c, 0, 64, 60
2, 132371, Control_c, 0, 64, 61
2, 132387, Control_c, 0, 64, 62
2, 132402, Control_c, 0, 64, 63
2, 132417, Control_c, 0, 64, 63
2, 132433, Control_c, 0, 64, 64
2, 132448, Control_c, 0, 64, 65
2, 132471, Control_c, 0, 64, 66
2, 132485, Control_c, 0, 64, 67
2, 132500, Control_c, 0, 64, 68
2, 132516, Control_c, 0, 64, 70
2, 132531, Control_c, 0, 64, 71
2, 132547, Control_c, 0, 64, 72
2, 132561, Control_c, 0, 64, 74
2, 132576, Control_c, 0, 64, 75
2, 132592, Control_c, 0, 64, 76
2, 132607, Control_c, 0, 64, 77
2, 132622, Control_c, 0, 64, 78
2, 132638, Control_c, 0, 64, 78
2, 132652, Control_c, 0, 64, 79
2, 132668, Control_c, 0, 64, 80
2, 132683, Control_c, 0, 64, 80
2, 132698, Control_c, 0, 64, 81
2, 132744, Control_c, 0, 64, 81
2, 133239, Control_c, 0, 64, 81
2, 133573, Control_c, 0, 64, 81
2, 133893, Control_c, 0, 64, 81
2, 133984, Control_c, 0, 64, 80
2, 134038, Control_c, 0, 64, 80
2, 134069, Control_c, 0, 64, 79
2, 134083, Control_c, 0, 64, 78
2, 134098, Control_c, 0, 64, 78
2, 134129, Control_c, 0, 64, 77
2, 134144, Control_c, 0, 64, 76
2, 134160, Control_c, 0, 64, 76
2, 134174, Control_c, 0, 64, 75
2, 134190, Control_c, 0, 64, 74
2, 134205, Control_c, 0, 64, 74
2, 134220, Control_c, 0, 64, 73
2, 134228, Note_on_c, 0, 57, 0
2, 134235, Control_c, 0, 64, 72
2, 134241, Note_on_c, 0, 54, 0
2, 134250, Control_c, 0, 64, 70
2, 134266, Control_c, 0, 64, 69
2, 134266, Note_on_c, 0, 38, 0
2, 134278, Note_on_c, 0, 62, 0
2, 134281, Control_c, 0, 64, 68
2, 134296, Control_c, 0, 64, 66
2, 134311, Control_c, 0, 64, 65
2, 134326, Control_c, 0, 64, 63
2, 134341, Control_c, 0, 64, 61
2, 134357, Control_c, 0, 64, 59
2, 134372, Control_c, 0, 64, 58
2, 134387, Control_c, 0, 64, 57
2, 134402, Control_c, 0, 64, 55
2, 134417, Control_c, 0, 64, 52
2, 134432, Control_c, 0, 64, 50
2, 134447, Control_c, 0, 64, 47
2, 134462, Control_c, 0, 64, 46
2, 134478, Control_c, 0, 64, 45
2, 134493, Control_c, 0, 64, 43
2, 134509, Control_c, 0, 64, 40
2, 134524, Control_c, 0, 64, 36
2, 134539, Control_c, 0, 64, 33
2, 134555, Control_c, 0, 64, 31
2, 134569, Control_c, 0, 64, 30
2, 134584, Control_c, 0, 64, 27
2, 134600, Control_c, 0, 64, 23
2, 134615, Control_c, 0, 64, 16
2, 134631, Control_c, 0, 64, 0
2, 134989, Control_c, 0, 64, 9
2, 135004, Control_c, 0, 64, 13
2, 135018, Control_c, 0, 64, 16
2, 135034, Control_c, 0, 64, 17
2, 135064, Control_c, 0, 64, 18
2, 135079, Control_c, 0, 64, 21
2, 135080, End_track
0, 0, End_of_file
