0, 0, Header, 1, 2, 384
1, 0, Start_track
1, 0, Tempo, 500000
1, 0, Time_signature, 4, 2, 24, 8
1, 1, End_track
2,0,Start_track
2,0, Note_on_c, 0, 50, 44
2,72, Note_on_c, 0, 50, 0
2,86, Note_on_c, 0, 52, 55
2,152, Note_on_c, 0, 52, 0
2,163, Note_on_c, 0, 54, 55
2,209, Note_on_c, 0, 54, 0
2,231, Note_on_c, 0, 55, 58
2,311, Note_on_c, 0, 55, 0
2,313, Note_on_c, 0, 54, 65
2,379, Note_on_c, 0, 54, 0
2,385, Note_on_c, 0, 52, 62
2,463, Note_on_c, 0, 52, 0
2,481, Note_on_c, 0, 54, 62
2,539, Note_on_c, 0, 54, 0
2,542, Note_on_c, 0, 50, 58
2,643, Note_on_c, 0, 50, 0
2,656, Note_on_c, 0, 59, 68
2,797, Control_c, 0, 64, 32
2,811, Control_c, 0, 64, 43
2,826, Control_c, 0, 64, 51
2,842, Control_c, 0, 64, 56
2,856, Control_c, 0, 64, 60
2,871, Control_c, 0, 64, 63
2,887, Control_c, 0, 64, 66
2,902, Control_c, 0, 64, 73
2,918, Control_c, 0, 64, 88
2,932, Note_on_c, 0, 59, 0
2,934, Control_c, 0, 64, 127
2,1271, Note_on_c, 0, 59, 63
2,1330, Note_on_c, 0, 59, 0
2,1443, Control_c, 0, 64, 107
2,1458, Control_c, 0, 64, 91
2,1466, Note_on_c, 0, 57, 72
2,1473, Control_c, 0, 64, 76
2,1489, Control_c, 0, 64, 67
2,1503, Control_c, 0, 64, 57
2,1519, Control_c, 0, 64, 30
2,1534, Control_c, 0, 64, 0
2,1641, Control_c, 0, 64, 31
2,1655, Control_c, 0, 64, 45
2,1670, Control_c, 0, 64, 52
2,1686, Control_c, 0, 64, 56
2,1700, Control_c, 0, 64, 58
2,1716, Control_c, 0, 64, 61
2,1731, Control_c, 0, 64, 63
2,1747, Control_c, 0, 64, 66
2,1763, Control_c, 0, 64, 71
2,1778, Control_c, 0, 64, 79
2,1793, Control_c, 0, 64, 98
2,1808, Control_c, 0, 64, 127
2,1838, Note_on_c, 0, 57, 0
2,2018, Note_on_c, 0, 55, 63
2,2070, Note_on_c, 0, 55, 0
2,2175, Control_c, 0, 64, 107
2,2191, Control_c, 0, 64, 97
2,2213, Control_c, 0, 64, 89
2,2228, Control_c, 0, 64, 80
2,2237, Note_on_c, 0, 54, 72
2,2243, Control_c, 0, 64, 70
2,2258, Control_c, 0, 64, 64
2,2274, Control_c, 0, 64, 52
2,2289, Control_c, 0, 64, 0
2,2441, Control_c, 0, 64, 35
2,2456, Control_c, 0, 64, 49
2,2472, Control_c, 0, 64, 55
2,2487, Control_c, 0, 64, 60
2,2501, Control_c, 0, 64, 63
2,2517, Control_c, 0, 64, 66
2,2532, Control_c, 0, 64, 71
2,2546, Control_c, 0, 64, 79
2,2562, Control_c, 0, 64, 95
2,2579, Control_c, 0, 64, 127
2,2592, Note_on_c, 0, 54, 0
2,2757, Note_on_c, 0, 55, 71
2,2801, Note_on_c, 0, 55, 0
2,2837, Control_c, 0, 64, 119
2,2852, Control_c, 0, 64, 110
2,2866, Control_c, 0, 64, 106
2,2882, Control_c, 0, 64, 104
2,2897, Control_c, 0, 64, 99
2,2913, Control_c, 0, 64, 92
2,2928, Control_c, 0, 64, 81
2,2943, Control_c, 0, 64, 70
2,2953, Note_on_c, 0, 54, 67
2,2956, Note_on_c, 0, 57, 69
2,2959, Control_c, 0, 64, 62
2,2980, Control_c, 0, 64, 50
2,2996, Control_c, 0, 64, 26
2,3011, Control_c, 0, 64, 0
2,3044, Note_on_c, 0, 59, 65
2,3062, Note_on_c, 0, 57, 0
2,3121, Note_on_c, 0, 61, 72
2,3152, Note_on_c, 0, 59, 0
2,3198, Note_on_c, 0, 61, 0
2,3202, Note_on_c, 0, 62, 76
2,3287, Note_on_c, 0, 61, 75
2,3301, Note_on_c, 0, 62, 0
2,3311, Note_on_c, 0, 54, 0
2,3358, Note_on_c, 0, 61, 0
2,3367, Note_on_c, 0, 59, 76
2,3451, Note_on_c, 0, 61, 78
2,3457, Note_on_c, 0, 52, 44
2,3457, Note_on_c, 0, 59, 0
2,3488, Note_on_c, 0, 52, 0
2,3514, Note_on_c, 0, 61, 0
2,3524, Note_on_c, 0, 57, 76
2,3618, Note_on_c, 0, 66, 82
2,3627, Note_on_c, 0, 50, 59
2,3668, Control_c, 0, 64, 21
2,3683, Control_c, 0, 64, 43
2,3697, Control_c, 0, 64, 54
2,3713, Control_c, 0, 64, 58
2,3728, Control_c, 0, 64, 60
2,3752, Control_c, 0, 64, 62
2,3767, Control_c, 0, 64, 65
2,3782, Control_c, 0, 64, 68
2,3797, Control_c, 0, 64, 76
2,3812, Control_c, 0, 64, 94
2,3819, Note_on_c, 0, 50, 0
2,3827, Control_c, 0, 64, 127
2,4009, Note_on_c, 0, 66, 0
2,4025, Note_on_c, 0, 57, 0
2,4182, Note_on_c, 0, 66, 72
2,4276, Note_on_c, 0, 66, 0
2,4391, Control_c, 0, 64, 121
2,4395, Note_on_c, 0, 64, 75
2,4404, Note_on_c, 0, 52, 55
2,4406, Control_c, 0, 64, 89
2,4421, Control_c, 0, 64, 70
2,4436, Control_c, 0, 64, 58
2,4451, Control_c, 0, 64, 24
2,4466, Control_c, 0, 64, 0
2,4550, Control_c, 0, 64, 30
2,4565, Control_c, 0, 64, 44
2,4581, Control_c, 0, 64, 53
2,4596, Control_c, 0, 64, 57
2,4611, Control_c, 0, 64, 60
2,4626, Control_c, 0, 64, 63
2,4641, Control_c, 0, 64, 65
2,4656, Control_c, 0, 64, 69
2,4672, Control_c, 0, 64, 75
2,4686, Control_c, 0, 64, 88
2,4702, Control_c, 0, 64, 127
2,4735, Note_on_c, 0, 52, 0
2,4786, Note_on_c, 0, 64, 0
2,4988, Note_on_c, 0, 62, 61
2,5052, Control_c, 0, 64, 121
2,5065, Note_on_c, 0, 62, 0
2,5068, Control_c, 0, 64, 113
2,5083, Control_c, 0, 64, 109
2,5098, Control_c, 0, 64, 104
2,5113, Control_c, 0, 64, 101
2,5128, Control_c, 0, 64, 99
2,5144, Control_c, 0, 64, 97
2,5159, Control_c, 0, 64, 95
2,5174, Control_c, 0, 64, 92
2,5189, Control_c, 0, 64, 85
2,5192, Note_on_c, 0, 45, 48
2,5196, Note_on_c, 0, 61, 66
2,5204, Control_c, 0, 64, 75
2,5219, Control_c, 0, 64, 65
2,5235, Control_c, 0, 64, 54
2,5250, Control_c, 0, 64, 23
2,5265, Control_c, 0, 64, 0
2,5318, Control_c, 0, 64, 38
2,5333, Control_c, 0, 64, 53
2,5349, Control_c, 0, 64, 60
2,5364, Control_c, 0, 64, 63
2,5379, Control_c, 0, 64, 66
2,5394, Control_c, 0, 64, 71
2,5408, Note_on_c, 0, 45, 0
2,5409, Control_c, 0, 64, 81
2,5425, Control_c, 0, 64, 112
2,5439, Control_c, 0, 64, 127
2,5526, Note_on_c, 0, 61, 0
2,5716, Note_on_c, 0, 52, 57
2,5795, Note_on_c, 0, 54, 65
2,5798, Note_on_c, 0, 52, 0
2,5835, Control_c, 0, 64, 108
2,5850, Control_c, 0, 64, 89
2,5863, Note_on_c, 0, 55, 64
2,5865, Note_on_c, 0, 54, 0
2,5866, Control_c, 0, 64, 75
2,5880, Control_c, 0, 64, 66
2,5895, Control_c, 0, 64, 57
2,5911, Control_c, 0, 64, 43
2,5926, Control_c, 0, 64, 24
2,5926, Note_on_c, 0, 55, 0
2,5936, Note_on_c, 0, 57, 66
2,5942, Control_c, 0, 64, 0
2,5955, Note_on_c, 0, 66, 78
2,6147, Control_c, 0, 64, 33
2,6161, Control_c, 0, 64, 50
2,6176, Control_c, 0, 64, 56
2,6192, Control_c, 0, 64, 60
2,6207, Control_c, 0, 64, 64
2,6223, Control_c, 0, 64, 68
2,6237, Control_c, 0, 64, 78
2,6252, Control_c, 0, 64, 127
2,6303, Note_on_c, 0, 66, 0
2,6508, Note_on_c, 0, 66, 65
2,6556, Control_c, 0, 64, 95
2,6558, Note_on_c, 0, 66, 0
2,6571, Control_c, 0, 64, 81
2,6587, Control_c, 0, 64, 73
2,6602, Control_c, 0, 64, 69
2,6617, Control_c, 0, 64, 67
2,6633, Control_c, 0, 64, 66
2,6647, Control_c, 0, 64, 65
2,6664, Control_c, 0, 64, 62
2,6679, Control_c, 0, 64, 57
2,6694, Control_c, 0, 64, 50
2,6708, Note_on_c, 0, 59, 69
2,6709, Control_c, 0, 64, 43
2,6720, Note_on_c, 0, 57, 0
2,6724, Control_c, 0, 64, 31
2,6739, Control_c, 0, 64, 0
2,6883, Control_c, 0, 64, 19
2,6898, Control_c, 0, 64, 46
2,6914, Control_c, 0, 64, 58
2,6929, Control_c, 0, 64, 61
2,6945, Control_c, 0, 64, 63
2,6960, Control_c, 0, 64, 65
2,6975, Control_c, 0, 64, 70
2,6991, Control_c, 0, 64, 79
2,7005, Control_c, 0, 64, 99
2,7021, Control_c, 0, 64, 127
2,7039, Note_on_c, 0, 59, 0
2,7177, Note_on_c, 0, 59, 55
2,7242, Note_on_c, 0, 59, 0
2,7248, Note_on_c, 0, 61, 55
2,7308, Note_on_c, 0, 62, 63
2,7324, Control_c, 0, 64, 104
2,7324, Note_on_c, 0, 61, 0
2,7339, Control_c, 0, 64, 93
2,7354, Control_c, 0, 64, 85
2,7369, Control_c, 0, 64, 80
2,7383, Note_on_c, 0, 64, 74
2,7385, Control_c, 0, 64, 75
2,7385, Note_on_c, 0, 62, 0
2,7393, Note_on_c, 0, 55, 57
2,7400, Control_c, 0, 64, 70
2,7415, Control_c, 0, 64, 66
2,7431, Control_c, 0, 64, 63
2,7446, Control_c, 0, 64, 58
2,7462, Control_c, 0, 64, 51
2,7477, Control_c, 0, 64, 43
2,7492, Control_c, 0, 64, 36
2,7507, Control_c, 0, 64, 31
2,7522, Control_c, 0, 64, 27
2,7537, Control_c, 0, 64, 21
2,7553, Control_c, 0, 64, 0
2,7559, Note_on_c, 0, 64, 0
2,7568, Note_on_c, 0, 62, 65
2,7610, Note_on_c, 0, 62, 0
2,7742, Note_on_c, 0, 64, 72
2,7774, Note_on_c, 0, 64, 0
2,7924, Note_on_c, 0, 61, 70
2,7962, Note_on_c, 0, 61, 0
2,8077, Control_c, 0, 64, 28
2,8092, Control_c, 0, 64, 43
2,8107, Control_c, 0, 64, 50
2,8122, Control_c, 0, 64, 54
2,8136, Note_on_c, 0, 57, 59
2,8137, Control_c, 0, 64, 58
2,8153, Control_c, 0, 64, 61
2,8168, Control_c, 0, 64, 64
2,8183, Control_c, 0, 64, 66
2,8198, Control_c, 0, 64, 69
2,8213, Control_c, 0, 64, 74
2,8229, Control_c, 0, 64, 83
2,8232, Note_on_c, 0, 57, 0
2,8244, Control_c, 0, 64, 108
2,8259, Control_c, 0, 64, 127
2,8627, Note_on_c, 0, 55, 0
2,8659, Note_on_c, 0, 54, 59
2,8715, Note_on_c, 0, 54, 0
2,8733, Note_on_c, 0, 52, 62
2,8738, Control_c, 0, 64, 110
2,8754, Control_c, 0, 64, 94
2,8769, Control_c, 0, 64, 86
2,8785, Control_c, 0, 64, 80
2,8800, Control_c, 0, 64, 77
2,8809, Note_on_c, 0, 52, 0
2,8814, Control_c, 0, 64, 73
2,8823, Note_on_c, 0, 54, 68
2,8830, Control_c, 0, 64, 69
2,8833, Note_on_c, 0, 62, 64
2,8845, Control_c, 0, 64, 66
2,8861, Control_c, 0, 64, 63
2,8876, Control_c, 0, 64, 61
2,8890, Control_c, 0, 64, 59
2,8906, Control_c, 0, 64, 56
2,8914, Note_on_c, 0, 64, 65
2,8921, Control_c, 0, 64, 53
2,8929, Note_on_c, 0, 62, 0
2,8936, Control_c, 0, 64, 49
2,8950, Control_c, 0, 64, 45
2,8965, Control_c, 0, 64, 42
2,8981, Control_c, 0, 64, 39
2,8984, Note_on_c, 0, 66, 65
2,8996, Control_c, 0, 64, 35
2,9011, Control_c, 0, 64, 27
2,9014, Note_on_c, 0, 64, 0
2,9027, Control_c, 0, 64, 20
2,9042, Control_c, 0, 64, 17
2,9057, Control_c, 0, 64, 15
2,9061, Note_on_c, 0, 66, 0
2,9066, Note_on_c, 0, 67, 70
2,9073, Control_c, 0, 64, 13
2,9088, Control_c, 0, 64, 9
2,9103, Control_c, 0, 64, 0
2,9149, Note_on_c, 0, 66, 70
2,9167, Note_on_c, 0, 67, 0
2,9174, Note_on_c, 0, 54, 0
2,9221, Note_on_c, 0, 66, 0
2,9228, Note_on_c, 0, 64, 71
2,9312, Note_on_c, 0, 66, 74
2,9320, Note_on_c, 0, 50, 47
2,9326, Note_on_c, 0, 64, 0
2,9366, Note_on_c, 0, 50, 0
2,9372, Note_on_c, 0, 66, 0
2,9385, Control_c, 0, 64, 16
2,9389, Note_on_c, 0, 62, 74
2,9400, Control_c, 0, 64, 20
2,9430, Control_c, 0, 64, 21
2,9461, Control_c, 0, 64, 21
2,9476, Control_c, 0, 64, 24
2,9483, Note_on_c, 0, 71, 80
2,9486, Note_on_c, 0, 55, 44
2,9491, Control_c, 0, 64, 27
2,9507, Control_c, 0, 64, 30
2,9522, Control_c, 0, 64, 34
2,9536, Control_c, 0, 64, 40
2,9552, Control_c, 0, 64, 47
2,9567, Control_c, 0, 64, 54
2,9582, Control_c, 0, 64, 58
2,9597, Control_c, 0, 64, 62
2,9612, Control_c, 0, 64, 65
2,9627, Note_on_c, 0, 55, 0
2,9628, Control_c, 0, 64, 68
2,9643, Control_c, 0, 64, 76
2,9657, Control_c, 0, 64, 92
2,9673, Control_c, 0, 64, 127
2,9762, Note_on_c, 0, 71, 0
2,9840, Note_on_c, 0, 62, 0
2,10032, Note_on_c, 0, 71, 68
2,10039, Note_on_c, 0, 52, 43
2,10091, Note_on_c, 0, 52, 0
2,10103, Note_on_c, 0, 71, 0
2,10138, Control_c, 0, 64, 106
2,10154, Control_c, 0, 64, 91
2,10169, Control_c, 0, 64, 81
2,10184, Control_c, 0, 64, 75
2,10199, Control_c, 0, 64, 71
2,10214, Control_c, 0, 64, 66
2,10221, Note_on_c, 0, 69, 65
2,10228, Note_on_c, 0, 61, 59
2,10229, Control_c, 0, 64, 62
2,10230, Note_on_c, 0, 57, 45
2,10244, Control_c, 0, 64, 53
2,10259, Control_c, 0, 64, 28
2,10275, Control_c, 0, 64, 0
2,10335, Control_c, 0, 64, 24
2,10351, Control_c, 0, 64, 48
2,10366, Control_c, 0, 64, 57
2,10382, Control_c, 0, 64, 61
2,10396, Control_c, 0, 64, 63
2,10411, Control_c, 0, 64, 65
2,10427, Control_c, 0, 64, 70
2,10442, Control_c, 0, 64, 79
2,10457, Control_c, 0, 64, 119
2,10473, Control_c, 0, 64, 127
2,10510, Note_on_c, 0, 69, 0
2,10523, Note_on_c, 0, 61, 0
2,10558, Note_on_c, 0, 57, 0
2,10760, Note_on_c, 0, 67, 61
2,10779, Note_on_c, 0, 45, 40
2,10824, Note_on_c, 0, 45, 0
2,10828, Note_on_c, 0, 67, 0
2,10876, Control_c, 0, 64, 106
2,10891, Control_c, 0, 64, 97
2,10907, Control_c, 0, 64, 88
2,10922, Control_c, 0, 64, 80
2,10937, Control_c, 0, 64, 71
2,10952, Control_c, 0, 64, 64
2,10953, Note_on_c, 0, 50, 47
2,10957, Note_on_c, 0, 66, 62
2,10959, Note_on_c, 0, 62, 58
2,10967, Control_c, 0, 64, 56
2,10983, Control_c, 0, 64, 43
2,10998, Control_c, 0, 64, 21
2,11013, Control_c, 0, 64, 0
2,11119, Control_c, 0, 64, 19
2,11134, Control_c, 0, 64, 46
2,11149, Control_c, 0, 64, 57
2,11164, Control_c, 0, 64, 61
2,11179, Control_c, 0, 64, 64
2,11195, Control_c, 0, 64, 66
2,11210, Control_c, 0, 64, 72
2,11223, Note_on_c, 0, 50, 0
2,11225, Control_c, 0, 64, 81
2,11240, Control_c, 0, 64, 102
2,11255, Control_c, 0, 64, 127
2,11271, Note_on_c, 0, 66, 0
2,11284, Note_on_c, 0, 62, 0
2,11476, Note_on_c, 0, 68, 64
2,11482, Note_on_c, 0, 52, 56
2,11523, Note_on_c, 0, 52, 0
2,11549, Note_on_c, 0, 68, 0
2,11644, Control_c, 0, 64, 111
2,11659, Control_c, 0, 64, 98
2,11674, Control_c, 0, 64, 89
2,11674, Note_on_c, 0, 69, 69
2,11687, Note_on_c, 0, 61, 54
2,11689, Control_c, 0, 64, 82
2,11693, Note_on_c, 0, 54, 51
2,11705, Control_c, 0, 64, 79
2,11720, Control_c, 0, 64, 76
2,11735, Control_c, 0, 64, 73
2,11751, Control_c, 0, 64, 70
2,11757, Note_on_c, 0, 71, 66
2,11761, Note_on_c, 0, 69, 0
2,11766, Control_c, 0, 64, 68
2,11782, Control_c, 0, 64, 65
2,11796, Control_c, 0, 64, 64
2,11811, Control_c, 0, 64, 63
2,11827, Control_c, 0, 64, 62
2,11833, Note_on_c, 0, 73, 68
2,11842, Control_c, 0, 64, 62
2,11857, Control_c, 0, 64, 61
2,11870, Note_on_c, 0, 71, 0
2,11872, Control_c, 0, 64, 60
2,11887, Control_c, 0, 64, 58
2,11903, Control_c, 0, 64, 57
2,11913, Note_on_c, 0, 73, 0
2,11913, Note_on_c, 0, 74, 73
2,11945, Note_on_c, 0, 61, 0
2,11948, Control_c, 0, 64, 57
2,11963, Control_c, 0, 64, 56
2,11978, Control_c, 0, 64, 55
2,11993, Control_c, 0, 64, 54
2,11998, Note_on_c, 0, 73, 74
2,12021, Note_on_c, 0, 74, 0
2,12038, Control_c, 0, 64, 54
2,12053, Control_c, 0, 64, 53
2,12069, Control_c, 0, 64, 52
2,12069, Note_on_c, 0, 73, 0
2,12074, Note_on_c, 0, 71, 75
2,12084, Control_c, 0, 64, 52
2,12087, Note_on_c, 0, 54, 0
2,12099, Control_c, 0, 64, 51
2,12155, Note_on_c, 0, 52, 45
2,12158, Note_on_c, 0, 73, 80
2,12160, Control_c, 0, 64, 51
2,12170, Note_on_c, 0, 71, 0
2,12203, Note_on_c, 0, 52, 0
2,12230, Note_on_c, 0, 73, 0
2,12240, Note_on_c, 0, 69, 74
2,12258, Control_c, 0, 64, 50
2,12274, Control_c, 0, 64, 50
2,12289, Control_c, 0, 64, 49
2,12305, Control_c, 0, 64, 48
2,12333, Note_on_c, 0, 78, 84
2,12347, Note_on_c, 0, 50, 49
2,12356, Note_on_c, 0, 59, 39
2,12381, Control_c, 0, 64, 49
2,12396, Control_c, 0, 64, 51
2,12412, Control_c, 0, 64, 54
2,12427, Control_c, 0, 64, 58
2,12442, Control_c, 0, 64, 61
2,12457, Control_c, 0, 64, 64
2,12473, Control_c, 0, 64, 67
2,12488, Control_c, 0, 64, 72
2,12503, Control_c, 0, 64, 79
2,12518, Control_c, 0, 64, 90
2,12533, Control_c, 0, 64, 117
2,12549, Control_c, 0, 64, 127
2,12680, Note_on_c, 0, 78, 0
2,12881, Note_on_c, 0, 78, 72
2,12884, Note_on_c, 0, 47, 48
2,12885, Note_on_c, 0, 50, 0
2,12894, Note_on_c, 0, 69, 0
2,12922, Note_on_c, 0, 59, 0
2,12979, Note_on_c, 0, 78, 0
2,13027, Control_c, 0, 64, 114
2,13041, Note_on_c, 0, 47, 0
2,13042, Control_c, 0, 64, 106
2,13056, Control_c, 0, 64, 100
2,13072, Control_c, 0, 64, 95
2,13086, Note_on_c, 0, 52, 48
2,13087, Control_c, 0, 64, 89
2,13088, Note_on_c, 0, 76, 68
2,13099, Note_on_c, 0, 68, 60
2,13103, Control_c, 0, 64, 83
2,13117, Control_c, 0, 64, 76
2,13132, Control_c, 0, 64, 68
2,13148, Control_c, 0, 64, 63
2,13163, Control_c, 0, 64, 56
2,13178, Control_c, 0, 64, 44
2,13194, Control_c, 0, 64, 19
2,13209, Control_c, 0, 64, 0
2,13271, Control_c, 0, 64, 17
2,13285, Control_c, 0, 64, 43
2,13301, Control_c, 0, 64, 54
2,13316, Control_c, 0, 64, 60
2,13331, Control_c, 0, 64, 63
2,13347, Control_c, 0, 64, 65
2,13362, Control_c, 0, 64, 68
2,13377, Control_c, 0, 64, 73
2,13389, Note_on_c, 0, 76, 0
2,13393, Control_c, 0, 64, 80
2,13402, Note_on_c, 0, 68, 0
2,13407, Control_c, 0, 64, 94
2,13423, Control_c, 0, 64, 127
2,13462, Note_on_c, 0, 52, 0
2,13618, Note_on_c, 0, 74, 59
2,13698, Note_on_c, 0, 74, 0
2,13726, Control_c, 0, 64, 119
2,13749, Control_c, 0, 64, 111
2,13764, Control_c, 0, 64, 103
2,13779, Control_c, 0, 64, 97
2,13795, Control_c, 0, 64, 91
2,13809, Control_c, 0, 64, 83
2,13825, Control_c, 0, 64, 73
2,13834, Note_on_c, 0, 45, 44
2,13838, Note_on_c, 0, 57, 36
2,13839, Note_on_c, 0, 73, 60
2,13840, Control_c, 0, 64, 63
2,13843, Note_on_c, 0, 69, 57
2,13855, Control_c, 0, 64, 46
2,13871, Control_c, 0, 64, 0
2,13901, Control_c, 0, 64, 13
2,13916, Control_c, 0, 64, 39
2,13931, Control_c, 0, 64, 54
2,13946, Control_c, 0, 64, 61
2,13961, Control_c, 0, 64, 64
2,13976, Control_c, 0, 64, 67
2,13991, Note_on_c, 0, 73, 0
2,13992, Control_c, 0, 64, 73
2,14007, Control_c, 0, 64, 82
2,14016, Note_on_c, 0, 45, 0
2,14023, Control_c, 0, 64, 103
2,14038, Control_c, 0, 64, 127
2,14066, Note_on_c, 0, 57, 0
2,14078, Note_on_c, 0, 69, 0
2,14280, Note_on_c, 0, 76, 47
2,14328, Control_c, 0, 64, 121
2,14344, Control_c, 0, 64, 104
2,14359, Control_c, 0, 64, 94
2,14363, Note_on_c, 0, 78, 54
2,14366, Note_on_c, 0, 76, 0
2,14373, Control_c, 0, 64, 89
2,14389, Control_c, 0, 64, 86
2,14404, Control_c, 0, 64, 84
2,14419, Control_c, 0, 64, 82
2,14435, Control_c, 0, 64, 79
2,14447, Note_on_c, 0, 78, 0
2,14449, Control_c, 0, 64, 77
2,14450, Note_on_c, 0, 79, 54
2,14465, Control_c, 0, 64, 74
2,14480, Control_c, 0, 64, 72
2,14503, Control_c, 0, 64, 71
2,14518, Control_c, 0, 64, 71
2,14533, Control_c, 0, 64, 69
2,14536, Note_on_c, 0, 73, 61
2,14536, Note_on_c, 0, 81, 57
2,14539, Note_on_c, 0, 66, 47
2,14549, Control_c, 0, 64, 67
2,14564, Control_c, 0, 64, 65
2,14578, Control_c, 0, 64, 63
2,14587, Note_on_c, 0, 79, 0
2,14594, Control_c, 0, 64, 62
2,14609, Control_c, 0, 64, 61
2,14611, Note_on_c, 0, 66, 0
2,14625, Control_c, 0, 64, 60
2,14635, Note_on_c, 0, 67, 48
2,14640, Control_c, 0, 64, 59
2,14655, Control_c, 0, 64, 57
2,14671, Control_c, 0, 64, 55
2,14686, Control_c, 0, 64, 53
2,14687, Note_on_c, 0, 67, 0
2,14702, Control_c, 0, 64, 52
2,14706, Note_on_c, 0, 69, 51
2,14731, Control_c, 0, 64, 51
2,14747, Control_c, 0, 64, 50
2,14755, Note_on_c, 0, 69, 0
2,14762, Control_c, 0, 64, 49
2,14777, Control_c, 0, 64, 47
2,14792, Control_c, 0, 64, 45
2,14795, Note_on_c, 0, 71, 57
2,14807, Control_c, 0, 64, 44
2,14823, Control_c, 0, 64, 43
2,14838, Control_c, 0, 64, 42
2,14845, Note_on_c, 0, 73, 0
2,14851, Note_on_c, 0, 71, 0
2,14853, Control_c, 0, 64, 41
2,14869, Control_c, 0, 64, 40
2,14872, Note_on_c, 0, 81, 0
2,14881, Note_on_c, 0, 69, 54
2,14899, Control_c, 0, 64, 40
2,14915, Control_c, 0, 64, 39
2,14928, Note_on_c, 0, 69, 0
2,14956, Note_on_c, 0, 67, 51
2,15012, Note_on_c, 0, 67, 0
2,15043, Note_on_c, 0, 81, 56
2,15053, Note_on_c, 0, 69, 52
2,15096, Note_on_c, 0, 81, 0
2,15127, Control_c, 0, 64, 40
2,15129, Note_on_c, 0, 69, 0
2,15139, Note_on_c, 0, 66, 51
2,15157, Control_c, 0, 64, 41
2,15172, Control_c, 0, 64, 43
2,15188, Control_c, 0, 64, 46
2,15203, Control_c, 0, 64, 51
2,15217, Control_c, 0, 64, 57
2,15227, Note_on_c, 0, 81, 59
2,15228, Note_on_c, 0, 71, 52
2,15233, Control_c, 0, 64, 61
2,15235, Note_on_c, 0, 66, 0
2,15236, Note_on_c, 0, 74, 50
2,15248, Control_c, 0, 64, 64
2,15272, Control_c, 0, 64, 67
2,15287, Control_c, 0, 64, 71
2,15302, Control_c, 0, 64, 77
2,15317, Control_c, 0, 64, 87
2,15332, Control_c, 0, 64, 114
2,15347, Control_c, 0, 64, 127
2,15493, Note_on_c, 0, 81, 0
2,15514, Note_on_c, 0, 74, 0
2,15545, Note_on_c, 0, 71, 0
2,15636, Control_c, 0, 64, 112
2,15651, Control_c, 0, 64, 97
2,15667, Control_c, 0, 64, 88
2,15682, Control_c, 0, 64, 82
2,15697, Control_c, 0, 64, 78
2,15706, Note_on_c, 0, 74, 45
2,15713, Control_c, 0, 64, 76
2,15728, Control_c, 0, 64, 76
2,15759, Control_c, 0, 64, 75
2,15774, Control_c, 0, 64, 74
2,15780, Note_on_c, 0, 76, 60
2,15790, Control_c, 0, 64, 72
2,15790, Note_on_c, 0, 74, 0
2,15804, Control_c, 0, 64, 70
2,15819, Control_c, 0, 64, 69
2,15835, Control_c, 0, 64, 67
2,15846, Note_on_c, 0, 78, 63
2,15850, Control_c, 0, 64, 65
2,15865, Control_c, 0, 64, 63
2,15880, Control_c, 0, 64, 60
2,15885, Note_on_c, 0, 76, 0
2,15895, Control_c, 0, 64, 55
2,15911, Control_c, 0, 64, 48
2,15924, Note_on_c, 0, 64, 48
2,15926, Control_c, 0, 64, 39
2,15927, Note_on_c, 0, 74, 62
2,15929, Note_on_c, 0, 79, 65
2,15940, Control_c, 0, 64, 26
2,15956, Control_c, 0, 64, 0
2,15962, Note_on_c, 0, 78, 0
2,15995, Note_on_c, 0, 64, 0
2,16014, Note_on_c, 0, 66, 55
2,16082, Note_on_c, 0, 66, 0
2,16100, Control_c, 0, 64, 23
2,16108, Note_on_c, 0, 67, 52
2,16116, Control_c, 0, 64, 44
2,16131, Control_c, 0, 64, 54
2,16142, Note_on_c, 0, 74, 0
2,16146, Control_c, 0, 64, 57
2,16152, Note_on_c, 0, 67, 0
2,16161, Control_c, 0, 64, 59
2,16176, Control_c, 0, 64, 60
2,16184, Note_on_c, 0, 69, 55
2,16192, Control_c, 0, 64, 62
2,16206, Control_c, 0, 64, 63
2,16236, Note_on_c, 0, 69, 0
2,16237, Control_c, 0, 64, 62
2,16252, Control_c, 0, 64, 61
2,16258, Note_on_c, 0, 79, 0
2,16267, Control_c, 0, 64, 60
2,16276, Note_on_c, 0, 67, 47
2,16282, Control_c, 0, 64, 59
2,16297, Control_c, 0, 64, 58
2,16313, Control_c, 0, 64, 58
2,16322, Note_on_c, 0, 67, 0
2,16328, Control_c, 0, 64, 56
2,16344, Control_c, 0, 64, 55
2,16355, Note_on_c, 0, 66, 46
2,16358, Control_c, 0, 64, 54
2,16404, Control_c, 0, 64, 53
2,16417, Note_on_c, 0, 79, 57
2,16419, Control_c, 0, 64, 53
2,16423, Note_on_c, 0, 66, 0
2,16435, Control_c, 0, 64, 52
2,16442, Note_on_c, 0, 67, 45
2,16466, Control_c, 0, 64, 51
2,16480, Control_c, 0, 64, 51
2,16485, Note_on_c, 0, 79, 0
2,16495, Control_c, 0, 64, 50
2,16511, Control_c, 0, 64, 49
2,16522, Note_on_c, 0, 67, 0
2,16526, Control_c, 0, 64, 49
2,16554, Note_on_c, 0, 64, 46
2,16572, Control_c, 0, 64, 49
2,16588, Control_c, 0, 64, 51
2,16603, Control_c, 0, 64, 54
2,16611, Note_on_c, 0, 64, 0
2,16613, Note_on_c, 0, 79, 59
2,16618, Control_c, 0, 64, 58
2,16631, Control_c, 0, 64, 61
2,16632, Note_on_c, 0, 73, 45
2,16633, Note_on_c, 0, 69, 41
2,16646, Control_c, 0, 64, 64
2,16662, Control_c, 0, 64, 67
2,16677, Control_c, 0, 64, 71
2,16692, Control_c, 0, 64, 80
2,16707, Control_c, 0, 64, 101
2,16722, Control_c, 0, 64, 127
2,16840, Note_on_c, 0, 79, 0
2,17032, Note_on_c, 0, 73, 0
2,17044, Note_on_c, 0, 76, 66
2,17059, Note_on_c, 0, 69, 0
2,17131, Note_on_c, 0, 74, 67
2,17164, Note_on_c, 0, 76, 0
2,17201, Note_on_c, 0, 73, 75
2,17201, Note_on_c, 0, 74, 0
2,17277, Note_on_c, 0, 74, 78
2,17278, Note_on_c, 0, 38, 53
2,17280, Note_on_c, 0, 69, 86
2,17280, Note_on_c, 0, 78, 88
2,17292, Control_c, 0, 64, 102
2,17302, Note_on_c, 0, 73, 0
2,17308, Control_c, 0, 64, 85
2,17324, Control_c, 0, 64, 73
2,17338, Control_c, 0, 64, 66
2,17354, Control_c, 0, 64, 64
2,17356, Note_on_c, 0, 38, 0
2,17357, Note_on_c, 0, 40, 65
2,17369, Control_c, 0, 64, 63
2,17385, Control_c, 0, 64, 61
2,17400, Control_c, 0, 64, 60
2,17414, Control_c, 0, 64, 56
2,17429, Note_on_c, 0, 42, 75
2,17430, Control_c, 0, 64, 54
2,17445, Control_c, 0, 64, 53
2,17449, Note_on_c, 0, 40, 0
2,17475, Control_c, 0, 64, 52
2,17490, Control_c, 0, 64, 51
2,17506, Control_c, 0, 64, 50
2,17521, Control_c, 0, 64, 48
2,17528, Note_on_c, 0, 43, 75
2,17530, Note_on_c, 0, 42, 0
2,17551, Control_c, 0, 64, 48
2,17590, Control_c, 0, 64, 47
2,17599, Note_on_c, 0, 69, 0
2,17626, Note_on_c, 0, 42, 79
2,17644, Note_on_c, 0, 43, 0
2,17645, Note_on_c, 0, 78, 0
2,17650, Control_c, 0, 64, 47
2,17719, Note_on_c, 0, 40, 66
2,17732, Note_on_c, 0, 42, 0
2,17742, Control_c, 0, 64, 46
2,17756, Control_c, 0, 64, 45
2,17770, Note_on_c, 0, 74, 0
2,17771, Control_c, 0, 64, 44
2,17787, Control_c, 0, 64, 43
2,17789, Note_on_c, 0, 73, 71
2,17790, Note_on_c, 0, 67, 77
2,17791, Note_on_c, 0, 76, 71
2,17808, Note_on_c, 0, 42, 74
2,17816, Note_on_c, 0, 40, 0
2,17817, Control_c, 0, 64, 43
2,17829, Note_on_c, 0, 73, 0
2,17832, Control_c, 0, 64, 41
2,17832, Note_on_c, 0, 76, 0
2,17833, Note_on_c, 0, 67, 0
2,17847, Control_c, 0, 64, 39
2,17863, Control_c, 0, 64, 37
2,17878, Control_c, 0, 64, 37
2,17889, Note_on_c, 0, 38, 66
2,17898, Note_on_c, 0, 42, 0
2,17992, Note_on_c, 0, 74, 75
2,17994, Note_on_c, 0, 71, 75
2,17995, Note_on_c, 0, 66, 81
2,18000, Control_c, 0, 64, 36
2,18007, Note_on_c, 0, 47, 71
2,18015, Control_c, 0, 64, 36
2,18029, Note_on_c, 0, 38, 0
2,18045, Control_c, 0, 64, 38
2,18060, Control_c, 0, 64, 47
2,18076, Control_c, 0, 64, 55
2,18090, Control_c, 0, 64, 61
2,18106, Control_c, 0, 64, 64
2,18121, Control_c, 0, 64, 67
2,18137, Control_c, 0, 64, 72
2,18153, Control_c, 0, 64, 82
2,18168, Control_c, 0, 64, 98
2,18180, Note_on_c, 0, 47, 0
2,18184, Control_c, 0, 64, 127
2,18306, Note_on_c, 0, 66, 0
2,18326, Note_on_c, 0, 71, 0
2,18428, Note_on_c, 0, 74, 0
2,18557, Note_on_c, 0, 76, 76
2,18559, Note_on_c, 0, 67, 75
2,18579, Note_on_c, 0, 47, 66
2,18614, Note_on_c, 0, 47, 0
2,18620, Note_on_c, 0, 67, 0
2,18641, Note_on_c, 0, 76, 0
2,18677, Control_c, 0, 64, 117
2,18692, Control_c, 0, 64, 112
2,18708, Control_c, 0, 64, 108
2,18722, Control_c, 0, 64, 104
2,18737, Control_c, 0, 64, 99
2,18753, Control_c, 0, 64, 88
2,18759, Note_on_c, 0, 73, 79
2,18761, Note_on_c, 0, 45, 61
2,18761, Note_on_c, 0, 64, 75
2,18766, Note_on_c, 0, 69, 68
2,18768, Control_c, 0, 64, 75
2,18784, Control_c, 0, 64, 64
2,18798, Control_c, 0, 64, 45
2,18811, Control_c, 0, 64, 0
2,18872, Control_c, 0, 64, 21
2,18887, Control_c, 0, 64, 46
2,18902, Control_c, 0, 64, 58
2,18918, Control_c, 0, 64, 63
2,18933, Control_c, 0, 64, 66
2,18949, Control_c, 0, 64, 72
2,18964, Control_c, 0, 64, 83
2,18979, Control_c, 0, 64, 111
2,18995, Control_c, 0, 64, 127
2,19101, Note_on_c, 0, 64, 0
2,19116, Note_on_c, 0, 45, 0
2,19130, Note_on_c, 0, 73, 0
2,19291, Control_c, 0, 64, 113
2,19292, Note_on_c, 0, 73, 76
2,19293, Note_on_c, 0, 43, 57
2,19298, Note_on_c, 0, 69, 0
2,19306, Control_c, 0, 64, 92
2,19322, Control_c, 0, 64, 80
2,19331, Note_on_c, 0, 43, 0
2,19337, Control_c, 0, 64, 71
2,19352, Control_c, 0, 64, 66
2,19367, Control_c, 0, 64, 63
2,19382, Control_c, 0, 64, 62
2,19395, Note_on_c, 0, 73, 0
2,19413, Control_c, 0, 64, 61
2,19429, Control_c, 0, 64, 61
2,19443, Control_c, 0, 64, 60
2,19458, Control_c, 0, 64, 58
2,19474, Control_c, 0, 64, 56
2,19488, Control_c, 0, 64, 51
2,19496, Note_on_c, 0, 69, 66
2,19496, Note_on_c, 0, 73, 77
2,19498, Note_on_c, 0, 62, 67
2,19503, Control_c, 0, 64, 39
2,19503, Note_on_c, 0, 42, 59
2,19519, Control_c, 0, 64, 0
2,19625, Control_c, 0, 64, 32
2,19640, Control_c, 0, 64, 58
2,19655, Control_c, 0, 64, 67
2,19658, Note_on_c, 0, 42, 0
2,19671, Control_c, 0, 64, 76
2,19686, Control_c, 0, 64, 95
2,19700, Control_c, 0, 64, 127
2,19807, Note_on_c, 0, 62, 0
2,19866, Note_on_c, 0, 69, 0
2,19887, Note_on_c, 0, 73, 0
2,19982, Note_on_c, 0, 50, 62
2,20052, Note_on_c, 0, 52, 61
2,20077, Note_on_c, 0, 50, 0
2,20104, Control_c, 0, 64, 108
2,20120, Control_c, 0, 64, 100
2,20127, Note_on_c, 0, 54, 69
2,20134, Control_c, 0, 64, 95
2,20150, Control_c, 0, 64, 91
2,20165, Control_c, 0, 64, 87
2,20165, Note_on_c, 0, 52, 0
2,20180, Control_c, 0, 64, 83
2,20196, Control_c, 0, 64, 77
2,20210, Control_c, 0, 64, 73
2,20211, Note_on_c, 0, 55, 66
2,20220, Note_on_c, 0, 71, 77
2,20221, Note_on_c, 0, 62, 63
2,20225, Control_c, 0, 64, 69
2,20240, Note_on_c, 0, 54, 0
2,20241, Control_c, 0, 64, 65
2,20256, Control_c, 0, 64, 62
2,20272, Control_c, 0, 64, 56
2,20286, Control_c, 0, 64, 48
2,20291, Note_on_c, 0, 73, 74
2,20301, Control_c, 0, 64, 42
2,20317, Control_c, 0, 64, 38
2,20331, Control_c, 0, 64, 34
2,20345, Note_on_c, 0, 71, 0
2,20346, Control_c, 0, 64, 26
2,20362, Control_c, 0, 64, 16
2,20373, Note_on_c, 0, 74, 71
2,20377, Control_c, 0, 64, 0
2,20444, Note_on_c, 0, 73, 0
2,20456, Note_on_c, 0, 76, 76
2,20460, Note_on_c, 0, 74, 0
2,20469, Control_c, 0, 64, 9
2,20483, Control_c, 0, 64, 17
2,20498, Control_c, 0, 64, 24
2,20514, Control_c, 0, 64, 28
2,20529, Control_c, 0, 64, 30
2,20538, Note_on_c, 0, 74, 78
2,20560, Control_c, 0, 64, 30
2,20566, Note_on_c, 0, 55, 0
2,20569, Note_on_c, 0, 76, 0
2,20575, Control_c, 0, 64, 31
2,20591, Control_c, 0, 64, 33
2,20592, Note_on_c, 0, 62, 0
2,20606, Control_c, 0, 64, 34
2,20625, Note_on_c, 0, 74, 0
2,20626, Note_on_c, 0, 73, 78
2,20675, Control_c, 0, 64, 35
2,20690, Control_c, 0, 64, 37
2,20705, Control_c, 0, 64, 38
2,20716, Note_on_c, 0, 74, 84
2,20717, Note_on_c, 0, 54, 55
2,20721, Control_c, 0, 64, 39
2,20734, Note_on_c, 0, 73, 0
2,20735, Control_c, 0, 64, 40
2,20751, Control_c, 0, 64, 40
2,20756, Note_on_c, 0, 54, 0
2,20787, Note_on_c, 0, 74, 0
2,20802, Note_on_c, 0, 71, 78
2,20902, Control_c, 0, 64, 41
2,20907, Note_on_c, 0, 79, 83
2,20913, Note_on_c, 0, 52, 67
2,20914, Note_on_c, 0, 61, 70
2,20918, Control_c, 0, 64, 44
2,20933, Control_c, 0, 64, 50
2,20949, Control_c, 0, 64, 56
2,20963, Control_c, 0, 64, 61
2,20978, Control_c, 0, 64, 64
2,20994, Control_c, 0, 64, 67
2,21009, Control_c, 0, 64, 72
2,21024, Control_c, 0, 64, 82
2,21040, Control_c, 0, 64, 106
2,21054, Control_c, 0, 64, 127
2,21106, Note_on_c, 0, 61, 0
2,21199, Note_on_c, 0, 79, 0
2,21299, Note_on_c, 0, 71, 0
2,21471, Note_on_c, 0, 79, 72
2,21476, Note_on_c, 0, 49, 60
2,21514, Note_on_c, 0, 52, 0
2,21541, Note_on_c, 0, 79, 0
2,21595, Control_c, 0, 64, 121
2,21610, Control_c, 0, 64, 109
2,21624, Control_c, 0, 64, 102
2,21640, Control_c, 0, 64, 96
2,21655, Control_c, 0, 64, 89
2,21669, Note_on_c, 0, 78, 80
2,21670, Note_on_c, 0, 70, 77
2,21671, Control_c, 0, 64, 79
2,21677, Note_on_c, 0, 54, 68
2,21686, Control_c, 0, 64, 68
2,21700, Control_c, 0, 64, 58
2,21700, Note_on_c, 0, 49, 0
2,21716, Control_c, 0, 64, 12
2,21731, Control_c, 0, 64, 0
2,21807, Control_c, 0, 64, 45
2,21822, Control_c, 0, 64, 59
2,21838, Control_c, 0, 64, 64
2,21853, Control_c, 0, 64, 68
2,21869, Control_c, 0, 64, 74
2,21884, Control_c, 0, 64, 87
2,21898, Control_c, 0, 64, 127
2,21917, Note_on_c, 0, 54, 0
2,21978, Note_on_c, 0, 78, 0
2,22093, Note_on_c, 0, 70, 0
2,22231, Note_on_c, 0, 76, 73
2,22330, Note_on_c, 0, 76, 0
2,22398, Control_c, 0, 64, 114
2,22413, Control_c, 0, 64, 102
2,22424, Note_on_c, 0, 74, 73
2,22426, Note_on_c, 0, 71, 70
2,22429, Control_c, 0, 64, 91
2,22434, Note_on_c, 0, 47, 46
2,22439, Note_on_c, 0, 59, 36
2,22444, Control_c, 0, 64, 79
2,22460, Control_c, 0, 64, 69
2,22474, Control_c, 0, 64, 61
2,22489, Control_c, 0, 64, 47
2,22505, Control_c, 0, 64, 41
2,22506, Note_on_c, 0, 59, 0
2,22520, Control_c, 0, 64, 43
2,22520, Note_on_c, 0, 47, 0
2,22523, Note_on_c, 0, 49, 53
2,22536, Control_c, 0, 64, 47
2,22550, Control_c, 0, 64, 50
2,22565, Control_c, 0, 64, 54
2,22581, Control_c, 0, 64, 56
2,22595, Control_c, 0, 64, 57
2,22604, Note_on_c, 0, 50, 57
2,22616, Note_on_c, 0, 49, 0
2,22626, Control_c, 0, 64, 58
2,22641, Control_c, 0, 64, 58
2,22657, Control_c, 0, 64, 59
2,22663, Note_on_c, 0, 50, 0
2,22668, Note_on_c, 0, 52, 68
2,22671, Control_c, 0, 64, 59
2,22717, Control_c, 0, 64, 59
2,22741, Note_on_c, 0, 71, 0
2,22747, Control_c, 0, 64, 58
2,22747, Note_on_c, 0, 52, 0
2,22759, Note_on_c, 0, 50, 58
2,22778, Control_c, 0, 64, 58
2,22793, Control_c, 0, 64, 57
2,22808, Control_c, 0, 64, 57
2,22812, Note_on_c, 0, 74, 0
2,22813, Note_on_c, 0, 50, 0
2,22824, Control_c, 0, 64, 56
2,22825, Note_on_c, 0, 49, 59
2,22884, Control_c, 0, 64, 56
2,22907, Note_on_c, 0, 49, 0
2,22940, Note_on_c, 0, 50, 49
2,22946, Control_c, 0, 64, 55
2,22967, Control_c, 0, 64, 55
2,22983, Control_c, 0, 64, 54
2,22983, Note_on_c, 0, 50, 0
2,22998, Control_c, 0, 64, 54
2,22998, Note_on_c, 0, 47, 46
2,23013, Control_c, 0, 64, 52
2,23029, Control_c, 0, 64, 51
2,23043, Control_c, 0, 64, 50
2,23060, Control_c, 0, 64, 48
2,23075, Control_c, 0, 64, 47
2,23090, Control_c, 0, 64, 46
2,23105, Control_c, 0, 64, 45
2,23121, Note_on_c, 0, 56, 44
2,23138, Note_on_c, 0, 83, 57
2,23145, Note_on_c, 0, 47, 0
2,23151, Control_c, 0, 64, 47
2,23166, Control_c, 0, 64, 50
2,23182, Control_c, 0, 64, 53
2,23196, Control_c, 0, 64, 56
2,23211, Control_c, 0, 64, 57
2,23227, Control_c, 0, 64, 59
2,23242, Control_c, 0, 64, 60
2,23258, Control_c, 0, 64, 62
2,23273, Control_c, 0, 64, 63
2,23288, Control_c, 0, 64, 65
2,23304, Control_c, 0, 64, 67
2,23317, Note_on_c, 0, 81, 54
2,23318, Control_c, 0, 64, 69
2,23319, Note_on_c, 0, 83, 0
2,23333, Control_c, 0, 64, 72
2,23349, Control_c, 0, 64, 78
2,23364, Control_c, 0, 64, 86
2,23380, Control_c, 0, 64, 97
2,23386, Note_on_c, 0, 56, 0
2,23394, Control_c, 0, 64, 127
2,23506, Note_on_c, 0, 81, 0
2,23506, Note_on_c, 0, 83, 60
2,23660, Note_on_c, 0, 83, 0
2,23672, Note_on_c, 0, 80, 57
2,23745, Note_on_c, 0, 80, 0
2,23827, Control_c, 0, 64, 117
2,23841, Control_c, 0, 64, 107
2,23857, Control_c, 0, 64, 95
2,23872, Control_c, 0, 64, 83
2,23872, Note_on_c, 0, 80, 59
2,23873, Note_on_c, 0, 71, 48
2,23880, Note_on_c, 0, 74, 38
2,23887, Control_c, 0, 64, 72
2,23903, Control_c, 0, 64, 65
2,23918, Control_c, 0, 64, 58
2,23933, Control_c, 0, 64, 52
2,23949, Control_c, 0, 64, 49
2,23964, Control_c, 0, 64, 50
2,23980, Control_c, 0, 64, 52
2,23995, Control_c, 0, 64, 57
2,24009, Control_c, 0, 64, 62
2,24025, Control_c, 0, 64, 65
2,24040, Control_c, 0, 64, 69
2,24048, Note_on_c, 0, 74, 0
2,24049, Note_on_c, 0, 78, 60
2,24056, Control_c, 0, 64, 73
2,24068, Note_on_c, 0, 80, 0
2,24071, Control_c, 0, 64, 78
2,24085, Control_c, 0, 64, 85
2,24098, Note_on_c, 0, 71, 0
2,24101, Control_c, 0, 64, 94
2,24116, Control_c, 0, 64, 115
2,24131, Control_c, 0, 64, 127
2,24235, Note_on_c, 0, 80, 57
2,24407, Note_on_c, 0, 76, 57
2,24408, Note_on_c, 0, 80, 0
2,24418, Note_on_c, 0, 68, 49
2,24433, Note_on_c, 0, 71, 29
2,24435, Control_c, 0, 64, 114
2,24450, Control_c, 0, 64, 109
2,24453, Note_on_c, 0, 78, 0
2,24455, Note_on_c, 0, 76, 0
2,24461, Note_on_c, 0, 68, 0
2,24466, Control_c, 0, 64, 105
2,24470, Note_on_c, 0, 71, 0
2,24480, Control_c, 0, 64, 102
2,24503, Control_c, 0, 64, 98
2,24518, Control_c, 0, 64, 95
2,24533, Control_c, 0, 64, 92
2,24549, Control_c, 0, 64, 88
2,24564, Control_c, 0, 64, 83
2,24579, Control_c, 0, 64, 74
2,24594, Control_c, 0, 64, 65
2,24609, Control_c, 0, 64, 56
2,24609, Note_on_c, 0, 76, 57
2,24612, Note_on_c, 0, 68, 37
2,24612, Note_on_c, 0, 71, 40
2,24625, Control_c, 0, 64, 47
2,24639, Control_c, 0, 64, 45
2,24655, Control_c, 0, 64, 47
2,24670, Control_c, 0, 64, 50
2,24685, Control_c, 0, 64, 56
2,24702, Control_c, 0, 64, 60
2,24717, Control_c, 0, 64, 62
2,24731, Control_c, 0, 64, 64
2,24747, Control_c, 0, 64, 65
2,24762, Control_c, 0, 64, 68
2,24769, Note_on_c, 0, 76, 0
2,24771, Note_on_c, 0, 74, 58
2,24778, Control_c, 0, 64, 72
2,24793, Control_c, 0, 64, 77
2,24807, Control_c, 0, 64, 83
2,24810, Note_on_c, 0, 71, 0
2,24823, Control_c, 0, 64, 93
2,24838, Control_c, 0, 64, 116
2,24853, Control_c, 0, 64, 127
2,24896, Note_on_c, 0, 68, 0
2,24968, Note_on_c, 0, 76, 60
2,25126, Note_on_c, 0, 64, 65
2,25126, Note_on_c, 0, 76, 0
2,25130, Note_on_c, 0, 74, 0
2,25131, Note_on_c, 0, 73, 71
2,25138, Note_on_c, 0, 69, 46
2,25164, Note_on_c, 0, 64, 0
2,25164, Note_on_c, 0, 69, 0
2,25184, Note_on_c, 0, 73, 0
2,25324, Note_on_c, 0, 69, 75
2,25325, Note_on_c, 0, 73, 74
2,25330, Note_on_c, 0, 64, 79
2,25332, Control_c, 0, 64, 102
2,25339, Note_on_c, 0, 45, 43
2,25347, Control_c, 0, 64, 85
2,25347, Note_on_c, 0, 47, 52
2,25362, Control_c, 0, 64, 76
2,25378, Control_c, 0, 64, 71
2,25393, Control_c, 0, 64, 68
2,25394, Note_on_c, 0, 47, 0
2,25407, Control_c, 0, 64, 66
2,25423, Control_c, 0, 64, 65
2,25433, Note_on_c, 0, 45, 0
2,25438, Control_c, 0, 64, 65
2,25453, Control_c, 0, 64, 64
2,25468, Control_c, 0, 64, 64
2,25483, Control_c, 0, 64, 63
2,25499, Control_c, 0, 64, 63
2,25505, Note_on_c, 0, 49, 67
2,25515, Control_c, 0, 64, 62
2,25530, Control_c, 0, 64, 62
2,25546, Control_c, 0, 64, 60
2,25561, Control_c, 0, 64, 59
2,25582, Note_on_c, 0, 49, 0
2,25588, Note_on_c, 0, 50, 73
2,25591, Control_c, 0, 64, 59
2,25606, Control_c, 0, 64, 58
2,25622, Control_c, 0, 64, 57
2,25637, Control_c, 0, 64, 56
2,25640, Note_on_c, 0, 64, 0
2,25651, Control_c, 0, 64, 55
2,25675, Note_on_c, 0, 69, 0
2,25677, Note_on_c, 0, 49, 70
2,25688, Note_on_c, 0, 50, 0
2,25704, Note_on_c, 0, 73, 0
2,25713, Control_c, 0, 64, 55
2,25744, Control_c, 0, 64, 55
2,25761, Note_on_c, 0, 47, 72
2,25761, Note_on_c, 0, 49, 0
2,25804, Control_c, 0, 64, 55
2,25849, Note_on_c, 0, 47, 0
2,25853, Note_on_c, 0, 49, 72
2,25918, Note_on_c, 0, 49, 0
2,25922, Control_c, 0, 64, 54
2,25934, Note_on_c, 0, 45, 57
2,25937, Control_c, 0, 64, 53
2,25953, Control_c, 0, 64, 52
2,25998, Control_c, 0, 64, 51
2,26020, Control_c, 0, 64, 49
2,26036, Control_c, 0, 64, 46
2,26041, Note_on_c, 0, 81, 61
2,26043, Note_on_c, 0, 54, 54
2,26051, Control_c, 0, 64, 43
2,26066, Control_c, 0, 64, 42
2,26078, Note_on_c, 0, 45, 0
2,26081, Control_c, 0, 64, 41
2,26127, Control_c, 0, 64, 43
2,26142, Control_c, 0, 64, 48
2,26158, Control_c, 0, 64, 54
2,26172, Control_c, 0, 64, 59
2,26187, Control_c, 0, 64, 62
2,26203, Control_c, 0, 64, 64
2,26218, Control_c, 0, 64, 67
2,26234, Control_c, 0, 64, 72
2,26235, Note_on_c, 0, 79, 58
2,26248, Control_c, 0, 64, 79
2,26252, Note_on_c, 0, 81, 0
2,26263, Control_c, 0, 64, 88
2,26279, Control_c, 0, 64, 99
2,26292, Note_on_c, 0, 54, 0
2,26294, Control_c, 0, 64, 115
2,26309, Control_c, 0, 64, 127
2,26416, Note_on_c, 0, 79, 0
2,26421, Note_on_c, 0, 81, 57
2,26492, Control_c, 0, 64, 123
2,26507, Control_c, 0, 64, 114
2,26523, Control_c, 0, 64, 109
2,26537, Control_c, 0, 64, 104
2,26553, Control_c, 0, 64, 100
2,26568, Control_c, 0, 64, 97
2,26583, Control_c, 0, 64, 93
2,26585, Note_on_c, 0, 81, 0
2,26592, Note_on_c, 0, 78, 64
2,26599, Control_c, 0, 64, 90
2,26613, Control_c, 0, 64, 89
2,26629, Control_c, 0, 64, 87
2,26644, Control_c, 0, 64, 87
2,26656, Note_on_c, 0, 78, 0
2,26659, Control_c, 0, 64, 86
2,26675, Control_c, 0, 64, 85
2,26690, Control_c, 0, 64, 83
2,26705, Control_c, 0, 64, 81
2,26720, Control_c, 0, 64, 79
2,26735, Control_c, 0, 64, 76
2,26751, Control_c, 0, 64, 70
2,26766, Control_c, 0, 64, 64
2,26786, Note_on_c, 0, 78, 64
2,26789, Control_c, 0, 64, 54
2,26789, Note_on_c, 0, 69, 46
2,26791, Note_on_c, 0, 72, 48
2,26804, Control_c, 0, 64, 42
2,26818, Control_c, 0, 64, 30
2,26834, Control_c, 0, 64, 29
2,26849, Control_c, 0, 64, 31
2,26864, Control_c, 0, 64, 40
2,26880, Control_c, 0, 64, 53
2,26894, Control_c, 0, 64, 59
2,26910, Control_c, 0, 64, 62
2,26925, Control_c, 0, 64, 64
2,26940, Control_c, 0, 64, 66
2,26956, Control_c, 0, 64, 68
2,26961, Note_on_c, 0, 72, 0
2,26971, Control_c, 0, 64, 73
2,26974, Note_on_c, 0, 78, 0
2,26981, Note_on_c, 0, 76, 51
2,26986, Control_c, 0, 64, 78
2,27002, Control_c, 0, 64, 85
2,27016, Control_c, 0, 64, 95
2,27032, Control_c, 0, 64, 107
2,27045, Note_on_c, 0, 69, 0
2,27047, Control_c, 0, 64, 127
2,27163, Note_on_c, 0, 78, 59
2,27175, Note_on_c, 0, 76, 0
2,27200, Control_c, 0, 64, 123
2,27215, Control_c, 0, 64, 114
2,27231, Control_c, 0, 64, 109
2,27245, Control_c, 0, 64, 105
2,27260, Control_c, 0, 64, 103
2,27276, Control_c, 0, 64, 101
2,27291, Control_c, 0, 64, 100
2,27306, Control_c, 0, 64, 98
2,27321, Control_c, 0, 64, 95
2,27332, Note_on_c, 0, 69, 43
2,27334, Note_on_c, 0, 66, 45
2,27336, Control_c, 0, 64, 92
2,27336, Note_on_c, 0, 74, 59
2,27341, Note_on_c, 0, 78, 0
2,27352, Control_c, 0, 64, 88
2,27366, Note_on_c, 0, 66, 0
2,27367, Control_c, 0, 64, 84
2,27372, Note_on_c, 0, 69, 0
2,27377, Note_on_c, 0, 74, 0
2,27381, Control_c, 0, 64, 79
2,27396, Control_c, 0, 64, 74
2,27411, Control_c, 0, 64, 69
2,27426, Control_c, 0, 64, 66
2,27442, Control_c, 0, 64, 63
2,27456, Control_c, 0, 64, 60
2,27472, Control_c, 0, 64, 56
2,27487, Control_c, 0, 64, 47
2,27502, Control_c, 0, 64, 34
2,27518, Control_c, 0, 64, 24
2,27527, Note_on_c, 0, 74, 58
2,27528, Note_on_c, 0, 69, 46
2,27533, Control_c, 0, 64, 25
2,27535, Note_on_c, 0, 66, 41
2,27549, Control_c, 0, 64, 35
2,27571, Control_c, 0, 64, 47
2,27585, Control_c, 0, 64, 56
2,27601, Control_c, 0, 64, 60
2,27616, Control_c, 0, 64, 62
2,27632, Control_c, 0, 64, 64
2,27647, Control_c, 0, 64, 66
2,27662, Control_c, 0, 64, 68
2,27677, Control_c, 0, 64, 71
2,27692, Control_c, 0, 64, 75
2,27705, Note_on_c, 0, 72, 47
2,27707, Control_c, 0, 64, 80
2,27720, Note_on_c, 0, 74, 0
2,27723, Control_c, 0, 64, 84
2,27738, Control_c, 0, 64, 90
2,27751, Note_on_c, 0, 69, 0
2,27754, Control_c, 0, 64, 97
2,27769, Control_c, 0, 64, 110
2,27784, Control_c, 0, 64, 127
2,27846, Note_on_c, 0, 66, 0
2,27888, Note_on_c, 0, 74, 59
2,27936, Note_on_c, 0, 72, 0
2,28050, Note_on_c, 0, 74, 0
2,28056, Note_on_c, 0, 71, 65
2,28065, Note_on_c, 0, 62, 42
2,28067, Note_on_c, 0, 67, 18
2,28090, Note_on_c, 0, 71, 0
2,28095, Note_on_c, 0, 62, 0
2,28110, Note_on_c, 0, 67, 0
2,28150, Control_c, 0, 64, 115
2,28164, Control_c, 0, 64, 100
2,28179, Control_c, 0, 64, 90
2,28195, Control_c, 0, 64, 81
2,28210, Control_c, 0, 64, 74
2,28224, Control_c, 0, 64, 69
2,28240, Control_c, 0, 64, 66
2,28243, Note_on_c, 0, 43, 62
2,28249, Note_on_c, 0, 67, 61
2,28253, Note_on_c, 0, 71, 79
2,28255, Control_c, 0, 64, 64
2,28255, Note_on_c, 0, 62, 71
2,28271, Control_c, 0, 64, 61
2,28286, Control_c, 0, 64, 58
2,28301, Control_c, 0, 64, 55
2,28324, Control_c, 0, 64, 53
2,28339, Control_c, 0, 64, 53
2,28343, Note_on_c, 0, 43, 0
2,28350, Note_on_c, 0, 45, 61
2,28355, Control_c, 0, 64, 52
2,28412, Note_on_c, 0, 45, 0
2,28415, Control_c, 0, 64, 53
2,28416, Note_on_c, 0, 47, 68
2,28430, Control_c, 0, 64, 53
2,28460, Control_c, 0, 64, 54
2,28491, Control_c, 0, 64, 54
2,28493, Note_on_c, 0, 47, 0
2,28505, Control_c, 0, 64, 55
2,28509, Note_on_c, 0, 48, 66
2,28586, Note_on_c, 0, 62, 0
2,28597, Note_on_c, 0, 47, 69
2,28597, Note_on_c, 0, 48, 0
2,28624, Note_on_c, 0, 67, 0
2,28640, Note_on_c, 0, 71, 0
2,28677, Note_on_c, 0, 47, 0
2,28681, Note_on_c, 0, 45, 68
2,28689, Control_c, 0, 64, 55
2,28734, Control_c, 0, 64, 54
2,28757, Note_on_c, 0, 45, 0
2,28762, Note_on_c, 0, 47, 70
2,28781, Control_c, 0, 64, 54
2,28796, Control_c, 0, 64, 53
2,28826, Control_c, 0, 64, 53
2,28842, Control_c, 0, 64, 52
2,28849, Note_on_c, 0, 47, 0
2,28855, Note_on_c, 0, 43, 63
2,28856, Control_c, 0, 64, 52
2,28872, Control_c, 0, 64, 51
2,28887, Control_c, 0, 64, 50
2,28902, Control_c, 0, 64, 49
2,28918, Control_c, 0, 64, 48
2,28931, Note_on_c, 0, 67, 77
2,28932, Control_c, 0, 64, 45
2,28940, Note_on_c, 0, 52, 64
2,28947, Control_c, 0, 64, 41
2,28952, Note_on_c, 0, 43, 0
2,28963, Control_c, 0, 64, 36
2,28978, Control_c, 0, 64, 32
2,28994, Control_c, 0, 64, 31
2,29007, Note_on_c, 0, 69, 73
2,29008, Control_c, 0, 64, 27
2,29023, Control_c, 0, 64, 11
2,29027, Note_on_c, 0, 67, 0
2,29039, Control_c, 0, 64, 0
2,29101, Note_on_c, 0, 71, 72
2,29144, Note_on_c, 0, 69, 0
2,29176, Note_on_c, 0, 72, 79
2,29178, Note_on_c, 0, 71, 0
2,29261, Note_on_c, 0, 71, 79
2,29282, Note_on_c, 0, 72, 0
2,29343, Note_on_c, 0, 71, 0
2,29351, Note_on_c, 0, 69, 81
2,29364, Note_on_c, 0, 52, 0
2,29440, Note_on_c, 0, 50, 63
2,29442, Note_on_c, 0, 71, 82
2,29453, Note_on_c, 0, 69, 0
2,29475, Note_on_c, 0, 50, 0
2,29515, Note_on_c, 0, 71, 0
2,29535, Note_on_c, 0, 67, 80
2,29631, Note_on_c, 0, 48, 64
2,29633, Note_on_c, 0, 76, 86
2,29655, Control_c, 0, 64, 22
2,29671, Control_c, 0, 64, 35
2,29686, Control_c, 0, 64, 46
2,29701, Control_c, 0, 64, 54
2,29717, Control_c, 0, 64, 58
2,29732, Control_c, 0, 64, 62
2,29747, Control_c, 0, 64, 65
2,29762, Control_c, 0, 64, 69
2,29777, Control_c, 0, 64, 76
2,29793, Control_c, 0, 64, 91
2,29808, Control_c, 0, 64, 127
2,29830, Note_on_c, 0, 48, 0
2,29985, Note_on_c, 0, 76, 0
2,30042, Note_on_c, 0, 67, 0
2,30181, Note_on_c, 0, 76, 73
2,30278, Note_on_c, 0, 76, 0
2,30368, Note_on_c, 0, 74, 81
2,30371, Note_on_c, 0, 50, 65
2,30393, Control_c, 0, 64, 82
2,30407, Control_c, 0, 64, 63
2,30423, Control_c, 0, 64, 47
2,30439, Control_c, 0, 64, 34
2,30469, Control_c, 0, 64, 40
2,30484, Control_c, 0, 64, 49
2,30499, Control_c, 0, 64, 58
2,30515, Control_c, 0, 64, 64
2,30530, Control_c, 0, 64, 67
2,30544, Control_c, 0, 64, 72
2,30560, Control_c, 0, 64, 80
2,30575, Control_c, 0, 64, 96
2,30591, Control_c, 0, 64, 127
2,30725, Note_on_c, 0, 74, 0
2,30928, Note_on_c, 0, 50, 0
2,30933, Note_on_c, 0, 72, 67
2,31018, Note_on_c, 0, 72, 0
2,31098, Control_c, 0, 64, 121
2,31114, Control_c, 0, 64, 88
2,31127, Note_on_c, 0, 71, 79
2,31129, Control_c, 0, 64, 70
2,31132, Note_on_c, 0, 55, 53
2,31144, Control_c, 0, 64, 57
2,31160, Control_c, 0, 64, 27
2,31175, Control_c, 0, 64, 0
2,31236, Control_c, 0, 64, 25
2,31252, Control_c, 0, 64, 49
2,31266, Control_c, 0, 64, 60
2,31282, Control_c, 0, 64, 63
2,31297, Control_c, 0, 64, 64
2,31313, Control_c, 0, 64, 66
2,31328, Control_c, 0, 64, 70
2,31343, Control_c, 0, 64, 77
2,31358, Control_c, 0, 64, 97
2,31373, Control_c, 0, 64, 127
2,31373, Note_on_c, 0, 55, 0
2,31410, Note_on_c, 0, 71, 0
2,31670, Note_on_c, 0, 73, 68
2,31673, Note_on_c, 0, 57, 59
2,31715, Note_on_c, 0, 57, 0
2,31716, Control_c, 0, 64, 102
2,31730, Control_c, 0, 64, 89
2,31745, Control_c, 0, 64, 80
2,31761, Control_c, 0, 64, 76
2,31776, Control_c, 0, 64, 73
2,31792, Control_c, 0, 64, 71
2,31796, Note_on_c, 0, 73, 0
2,31806, Control_c, 0, 64, 67
2,31821, Control_c, 0, 64, 63
2,31837, Control_c, 0, 64, 58
2,31851, Control_c, 0, 64, 54
2,31860, Note_on_c, 0, 74, 58
2,31866, Control_c, 0, 64, 56
2,31869, Note_on_c, 0, 59, 54
2,31872, Note_on_c, 0, 62, 58
2,31882, Control_c, 0, 64, 60
2,31897, Control_c, 0, 64, 64
2,31898, Note_on_c, 0, 74, 0
2,31913, Control_c, 0, 64, 69
2,31927, Control_c, 0, 64, 75
2,31942, Control_c, 0, 64, 82
2,31958, Control_c, 0, 64, 87
2,31973, Control_c, 0, 64, 90
2,31980, Note_on_c, 0, 64, 59
2,31989, Control_c, 0, 64, 93
2,32003, Control_c, 0, 64, 94
2,32034, Note_on_c, 0, 66, 68
2,32041, Note_on_c, 0, 62, 0
2,32049, Control_c, 0, 64, 93
2,32065, Control_c, 0, 64, 93
2,32070, Note_on_c, 0, 64, 0
2,32072, Note_on_c, 0, 59, 0
2,32081, Control_c, 0, 64, 92
2,32096, Control_c, 0, 64, 91
2,32111, Control_c, 0, 64, 89
2,32117, Note_on_c, 0, 66, 0
2,32125, Note_on_c, 0, 67, 70
2,32126, Control_c, 0, 64, 85
2,32141, Control_c, 0, 64, 82
2,32157, Control_c, 0, 64, 79
2,32179, Control_c, 0, 64, 77
2,32195, Control_c, 0, 64, 74
2,32210, Control_c, 0, 64, 71
2,32221, Note_on_c, 0, 66, 70
2,32225, Control_c, 0, 64, 68
2,32241, Control_c, 0, 64, 66
2,32252, Note_on_c, 0, 67, 0
2,32255, Control_c, 0, 64, 65
2,32271, Control_c, 0, 64, 64
2,32286, Control_c, 0, 64, 64
2,32292, Note_on_c, 0, 66, 0
2,32294, Note_on_c, 0, 64, 73
2,32301, Control_c, 0, 64, 63
2,32317, Control_c, 0, 64, 62
2,32331, Control_c, 0, 64, 61
2,32346, Control_c, 0, 64, 60
2,32362, Control_c, 0, 64, 59
2,32362, Note_on_c, 0, 57, 48
2,32376, Control_c, 0, 64, 57
2,32389, Note_on_c, 0, 66, 74
2,32392, Control_c, 0, 64, 56
2,32402, Note_on_c, 0, 64, 0
2,32407, Control_c, 0, 64, 54
2,32411, Note_on_c, 0, 57, 0
2,32422, Control_c, 0, 64, 51
2,32438, Control_c, 0, 64, 46
2,32453, Control_c, 0, 64, 41
2,32469, Control_c, 0, 64, 33
2,32469, Note_on_c, 0, 66, 0
2,32470, Note_on_c, 0, 62, 67
2,32483, Control_c, 0, 64, 22
2,32498, Control_c, 0, 64, 0
2,32557, Note_on_c, 0, 55, 58
2,32560, Note_on_c, 0, 71, 77
2,32605, Control_c, 0, 64, 15
2,32620, Control_c, 0, 64, 44
2,32636, Control_c, 0, 64, 54
2,32650, Control_c, 0, 64, 58
2,32665, Control_c, 0, 64, 61
2,32681, Control_c, 0, 64, 64
2,32682, Note_on_c, 0, 55, 0
2,32695, Control_c, 0, 64, 69
2,32711, Control_c, 0, 64, 76
2,32726, Control_c, 0, 64, 90
2,32741, Control_c, 0, 64, 127
2,32845, Note_on_c, 0, 71, 0
2,32961, Note_on_c, 0, 62, 0
2,33114, Note_on_c, 0, 71, 72
2,33119, Note_on_c, 0, 52, 50
2,33168, Note_on_c, 0, 52, 0
2,33180, Note_on_c, 0, 71, 0
2,33236, Control_c, 0, 64, 118
2,33251, Control_c, 0, 64, 109
2,33266, Control_c, 0, 64, 99
2,33282, Control_c, 0, 64, 83
2,33291, Note_on_c, 0, 69, 74
2,33291, Note_on_c, 0, 73, 74
2,33296, Control_c, 0, 64, 69
2,33302, Note_on_c, 0, 57, 52
2,33312, Control_c, 0, 64, 58
2,33327, Control_c, 0, 64, 36
2,33342, Control_c, 0, 64, 26
2,33358, Control_c, 0, 64, 30
2,33373, Control_c, 0, 64, 43
2,33389, Control_c, 0, 64, 53
2,33404, Control_c, 0, 64, 60
2,33418, Control_c, 0, 64, 63
2,33434, Control_c, 0, 64, 65
2,33449, Control_c, 0, 64, 67
2,33464, Control_c, 0, 64, 71
2,33480, Control_c, 0, 64, 74
2,33494, Control_c, 0, 64, 77
2,33510, Control_c, 0, 64, 80
2,33526, Control_c, 0, 64, 82
2,33541, Control_c, 0, 64, 85
2,33547, Note_on_c, 0, 73, 0
2,33556, Control_c, 0, 64, 86
2,33571, Control_c, 0, 64, 87
2,33572, Note_on_c, 0, 57, 0
2,33581, Note_on_c, 0, 69, 0
2,33586, Control_c, 0, 64, 88
2,33762, Control_c, 0, 64, 87
2,33807, Control_c, 0, 64, 87
2,33832, Note_on_c, 0, 67, 63
2,33838, Control_c, 0, 64, 86
2,33847, Note_on_c, 0, 45, 38
2,33853, Control_c, 0, 64, 85
2,33869, Control_c, 0, 64, 85
2,33884, Control_c, 0, 64, 83
2,33896, Note_on_c, 0, 45, 0
2,33899, Control_c, 0, 64, 82
2,33905, Note_on_c, 0, 67, 0
2,33915, Control_c, 0, 64, 81
2,33929, Control_c, 0, 64, 79
2,33944, Control_c, 0, 64, 78
2,33960, Control_c, 0, 64, 77
2,33975, Control_c, 0, 64, 75
2,33990, Control_c, 0, 64, 74
2,34005, Control_c, 0, 64, 72
2,34020, Control_c, 0, 64, 70
2,34025, Note_on_c, 0, 74, 58
2,34027, Note_on_c, 0, 66, 55
2,34036, Control_c, 0, 64, 68
2,34040, Note_on_c, 0, 47, 40
2,34051, Control_c, 0, 64, 66
2,34065, Control_c, 0, 64, 64
2,34081, Control_c, 0, 64, 62
2,34096, Control_c, 0, 64, 61
2,34103, Note_on_c, 0, 47, 0
2,34112, Control_c, 0, 64, 59
2,34119, Note_on_c, 0, 49, 49
2,34127, Control_c, 0, 64, 58
2,34141, Control_c, 0, 64, 55
2,34157, Control_c, 0, 64, 53
2,34172, Control_c, 0, 64, 52
2,34186, Control_c, 0, 64, 51
2,34192, Note_on_c, 0, 49, 0
2,34202, Control_c, 0, 64, 51
2,34204, Note_on_c, 0, 50, 52
2,34217, Control_c, 0, 64, 50
2,34233, Control_c, 0, 64, 49
2,34248, Control_c, 0, 64, 48
2,34249, Note_on_c, 0, 50, 0
2,34269, Note_on_c, 0, 52, 53
2,34278, Control_c, 0, 64, 48
2,34286, Note_on_c, 0, 66, 0
2,34324, Control_c, 0, 64, 47
2,34335, Note_on_c, 0, 52, 0
2,34342, Note_on_c, 0, 50, 56
2,34354, Control_c, 0, 64, 47
2,34369, Control_c, 0, 64, 46
2,34413, Note_on_c, 0, 50, 0
2,34437, Note_on_c, 0, 49, 48
2,34446, Note_on_c, 0, 74, 0
2,34526, Note_on_c, 0, 49, 0
2,34532, Note_on_c, 0, 69, 59
2,34560, Control_c, 0, 64, 47
2,34562, Note_on_c, 0, 50, 38
2,34571, Note_on_c, 0, 69, 0
2,34590, Control_c, 0, 64, 47
2,34599, Note_on_c, 0, 50, 0
2,34605, Control_c, 0, 64, 48
2,34620, Control_c, 0, 64, 48
2,34636, Control_c, 0, 64, 49
2,34639, Note_on_c, 0, 47, 43
2,34651, Control_c, 0, 64, 49
2,34666, Control_c, 0, 64, 50
2,34682, Note_on_c, 0, 47, 0
2,34716, Note_on_c, 0, 74, 63
2,34724, Note_on_c, 0, 59, 53
2,34808, Note_on_c, 0, 76, 57
2,34810, Note_on_c, 0, 74, 0
2,34818, Control_c, 0, 64, 50
2,34872, Note_on_c, 0, 76, 0
2,34880, Note_on_c, 0, 78, 65
2,34894, Control_c, 0, 64, 51
2,34959, Note_on_c, 0, 78, 0
2,34972, Note_on_c, 0, 79, 63
2,35060, Control_c, 0, 64, 51
2,35060, Note_on_c, 0, 78, 70
2,35079, Note_on_c, 0, 79, 0
2,35106, Control_c, 0, 64, 52
2,35129, Note_on_c, 0, 78, 0
2,35136, Note_on_c, 0, 76, 70
2,35137, Note_on_c, 0, 59, 0
2,35167, Control_c, 0, 64, 52
2,35213, Control_c, 0, 64, 53
2,35215, Note_on_c, 0, 57, 47
2,35219, Note_on_c, 0, 78, 71
2,35222, Note_on_c, 0, 76, 0
2,35263, Note_on_c, 0, 57, 0
2,35281, Control_c, 0, 64, 53
2,35285, Note_on_c, 0, 78, 0
2,35303, Note_on_c, 0, 74, 70
2,35422, Note_on_c, 0, 83, 71
2,35449, Control_c, 0, 64, 54
2,35450, Note_on_c, 0, 55, 26
2,35464, Control_c, 0, 64, 54
2,35480, Control_c, 0, 64, 57
2,35495, Control_c, 0, 64, 60
2,35511, Control_c, 0, 64, 63
2,35525, Control_c, 0, 64, 65
2,35540, Control_c, 0, 64, 69
2,35556, Control_c, 0, 64, 77
2,35571, Control_c, 0, 64, 96
2,35586, Control_c, 0, 64, 127
2,35655, Note_on_c, 0, 55, 0
2,35687, Note_on_c, 0, 83, 0
2,35704, Note_on_c, 0, 74, 0
2,35992, Note_on_c, 0, 83, 73
2,36018, Note_on_c, 0, 52, 28
2,36063, Note_on_c, 0, 52, 0
2,36075, Note_on_c, 0, 83, 0
2,36125, Control_c, 0, 64, 121
2,36140, Control_c, 0, 64, 104
2,36156, Control_c, 0, 64, 98
2,36172, Control_c, 0, 64, 94
2,36186, Control_c, 0, 64, 92
2,36202, Control_c, 0, 64, 91
2,36208, Note_on_c, 0, 81, 61
2,36213, Note_on_c, 0, 72, 59
2,36217, Control_c, 0, 64, 89
2,36217, Note_on_c, 0, 57, 42
2,36233, Control_c, 0, 64, 85
2,36247, Control_c, 0, 64, 79
2,36262, Control_c, 0, 64, 71
2,36278, Control_c, 0, 64, 65
2,36293, Control_c, 0, 64, 61
2,36309, Control_c, 0, 64, 56
2,36323, Control_c, 0, 64, 50
2,36338, Control_c, 0, 64, 40
2,36354, Control_c, 0, 64, 36
2,36369, Control_c, 0, 64, 38
2,36384, Control_c, 0, 64, 46
2,36400, Control_c, 0, 64, 55
2,36415, Control_c, 0, 64, 61
2,36431, Control_c, 0, 64, 64
2,36445, Control_c, 0, 64, 67
2,36460, Control_c, 0, 64, 71
2,36476, Control_c, 0, 64, 76
2,36491, Control_c, 0, 64, 83
2,36506, Control_c, 0, 64, 92
2,36521, Control_c, 0, 64, 103
2,36536, Control_c, 0, 64, 114
2,36552, Control_c, 0, 64, 127
2,36614, Note_on_c, 0, 81, 0
2,36787, Control_c, 0, 64, 116
2,36795, Note_on_c, 0, 79, 58
2,36796, Note_on_c, 0, 45, 39
2,36802, Control_c, 0, 64, 107
2,36817, Control_c, 0, 64, 99
2,36833, Control_c, 0, 64, 94
2,36848, Control_c, 0, 64, 91
2,36854, Note_on_c, 0, 45, 0
2,36862, Control_c, 0, 64, 88
2,36878, Control_c, 0, 64, 86
2,36893, Control_c, 0, 64, 84
2,36909, Control_c, 0, 64, 81
2,36924, Control_c, 0, 64, 78
2,36938, Control_c, 0, 64, 77
2,36954, Control_c, 0, 64, 76
2,36969, Control_c, 0, 64, 76
2,36985, Control_c, 0, 64, 74
2,36993, Note_on_c, 0, 78, 64
2,36995, Note_on_c, 0, 50, 41
2,37001, Control_c, 0, 64, 71
2,37016, Control_c, 0, 64, 66
2,37025, Note_on_c, 0, 79, 0
2,37031, Control_c, 0, 64, 61
2,37046, Control_c, 0, 64, 53
2,37061, Control_c, 0, 64, 44
2,37077, Control_c, 0, 64, 35
2,37091, Control_c, 0, 64, 34
2,37106, Control_c, 0, 64, 40
2,37122, Control_c, 0, 64, 50
2,37137, Control_c, 0, 64, 59
2,37153, Control_c, 0, 64, 64
2,37167, Control_c, 0, 64, 68
2,37182, Control_c, 0, 64, 72
2,37192, Note_on_c, 0, 78, 0
2,37198, Control_c, 0, 64, 80
2,37213, Control_c, 0, 64, 89
2,37229, Control_c, 0, 64, 104
2,37244, Control_c, 0, 64, 127
2,37288, Note_on_c, 0, 50, 0
2,37299, Note_on_c, 0, 57, 0
2,37311, Note_on_c, 0, 72, 0
2,37448, Note_on_c, 0, 74, 57
2,37546, Note_on_c, 0, 76, 61
2,37549, Note_on_c, 0, 74, 0
2,37556, Control_c, 0, 64, 119
2,37571, Control_c, 0, 64, 116
2,37586, Control_c, 0, 64, 111
2,37601, Control_c, 0, 64, 105
2,37616, Control_c, 0, 64, 99
2,37616, Note_on_c, 0, 78, 64
2,37625, Note_on_c, 0, 76, 0
2,37632, Control_c, 0, 64, 94
2,37647, Control_c, 0, 64, 90
2,37662, Control_c, 0, 64, 88
2,37678, Control_c, 0, 64, 86
2,37692, Control_c, 0, 64, 81
2,37706, Note_on_c, 0, 52, 50
2,37707, Control_c, 0, 64, 75
2,37710, Note_on_c, 0, 71, 68
2,37712, Note_on_c, 0, 79, 68
2,37723, Control_c, 0, 64, 68
2,37724, Note_on_c, 0, 55, 48
2,37738, Control_c, 0, 64, 63
2,37749, Note_on_c, 0, 78, 0
2,37754, Control_c, 0, 64, 61
2,37769, Control_c, 0, 64, 60
2,37769, Note_on_c, 0, 52, 0
2,37783, Control_c, 0, 64, 59
2,37798, Note_on_c, 0, 57, 56
2,37800, Control_c, 0, 64, 57
2,37815, Control_c, 0, 64, 56
2,37831, Control_c, 0, 64, 56
2,37837, Note_on_c, 0, 55, 0
2,37876, Control_c, 0, 64, 55
2,37881, Note_on_c, 0, 59, 58
2,37898, Note_on_c, 0, 57, 0
2,37906, Control_c, 0, 64, 55
2,37922, Control_c, 0, 64, 54
2,37950, Note_on_c, 0, 59, 0
2,37968, Note_on_c, 0, 60, 58
2,38012, Control_c, 0, 64, 54
2,38043, Note_on_c, 0, 60, 0
2,38052, Note_on_c, 0, 59, 61
2,38065, Note_on_c, 0, 79, 0
2,38121, Note_on_c, 0, 59, 0
2,38131, Note_on_c, 0, 57, 61
2,38160, Note_on_c, 0, 71, 0
2,38204, Note_on_c, 0, 79, 69
2,38229, Note_on_c, 0, 59, 66
2,38255, Control_c, 0, 64, 54
2,38263, Note_on_c, 0, 57, 0
2,38271, Control_c, 0, 64, 55
2,38273, Note_on_c, 0, 59, 0
2,38289, Note_on_c, 0, 79, 0
2,38298, Note_on_c, 0, 55, 52
2,38338, Control_c, 0, 64, 54
2,38390, Note_on_c, 0, 55, 0
2,38404, Note_on_c, 0, 79, 74
2,38408, Note_on_c, 0, 69, 71
2,38412, Note_on_c, 0, 60, 54
2,38419, Note_on_c, 0, 64, 58
2,38460, Control_c, 0, 64, 55
2,38476, Control_c, 0, 64, 56
2,38491, Control_c, 0, 64, 58
2,38506, Control_c, 0, 64, 60
2,38522, Control_c, 0, 64, 63
2,38536, Control_c, 0, 64, 66
2,38552, Control_c, 0, 64, 70
2,38567, Control_c, 0, 64, 78
2,38582, Control_c, 0, 64, 91
2,38598, Control_c, 0, 64, 127
2,38623, Note_on_c, 0, 60, 0
2,38636, Note_on_c, 0, 64, 0
2,38874, Note_on_c, 0, 69, 0
2,38952, Note_on_c, 0, 79, 0
2,38974, Note_on_c, 0, 81, 71
2,38982, Note_on_c, 0, 57, 51
2,38983, Note_on_c, 0, 64, 53
2,39021, Note_on_c, 0, 64, 0
2,39030, Note_on_c, 0, 57, 0
2,39136, Control_c, 0, 64, 117
2,39152, Control_c, 0, 64, 108
2,39167, Control_c, 0, 64, 101
2,39177, Note_on_c, 0, 78, 80
2,39181, Control_c, 0, 64, 89
2,39192, Note_on_c, 0, 81, 0
2,39197, Control_c, 0, 64, 72
2,39201, Note_on_c, 0, 62, 50
2,39212, Control_c, 0, 64, 61
2,39227, Control_c, 0, 64, 39
2,39243, Control_c, 0, 64, 0
2,39288, Control_c, 0, 64, 28
2,39303, Control_c, 0, 64, 51
2,39318, Control_c, 0, 64, 60
2,39333, Control_c, 0, 64, 65
2,39349, Control_c, 0, 64, 69
2,39364, Control_c, 0, 64, 77
2,39379, Control_c, 0, 64, 92
2,39394, Control_c, 0, 64, 127
2,39490, Note_on_c, 0, 62, 0
2,39496, Note_on_c, 0, 78, 0
2,39760, Note_on_c, 0, 60, 43
2,39763, Note_on_c, 0, 50, 48
2,39771, Note_on_c, 0, 78, 67
2,39805, Note_on_c, 0, 50, 0
2,39824, Note_on_c, 0, 60, 0
2,39896, Note_on_c, 0, 78, 0
2,39950, Control_c, 0, 64, 121
2,39965, Control_c, 0, 64, 108
2,39980, Control_c, 0, 64, 100
2,39996, Control_c, 0, 64, 94
2,40010, Control_c, 0, 64, 83
2,40013, Note_on_c, 0, 78, 70
2,40016, Note_on_c, 0, 67, 50
2,40019, Note_on_c, 0, 55, 42
2,40024, Note_on_c, 0, 59, 45
2,40025, Control_c, 0, 64, 70
2,40041, Control_c, 0, 64, 58
2,40056, Control_c, 0, 64, 32
2,40072, Control_c, 0, 64, 19
2,40087, Control_c, 0, 64, 33
2,40101, Control_c, 0, 64, 50
2,40117, Control_c, 0, 64, 60
2,40132, Control_c, 0, 64, 65
2,40147, Control_c, 0, 64, 69
2,40162, Control_c, 0, 64, 76
2,40177, Control_c, 0, 64, 85
2,40193, Control_c, 0, 64, 98
2,40206, Control_c, 0, 64, 127
2,40222, Note_on_c, 0, 59, 0
2,40287, Note_on_c, 0, 78, 0
2,40290, Note_on_c, 0, 55, 0
2,40308, Note_on_c, 0, 67, 0
2,40564, Note_on_c, 0, 76, 62
2,40649, Note_on_c, 0, 75, 75
2,40674, Note_on_c, 0, 76, 0
2,40736, Note_on_c, 0, 76, 82
2,40737, Note_on_c, 0, 40, 55
2,40740, Note_on_c, 0, 64, 82
2,40742, Note_on_c, 0, 71, 75
2,40745, Control_c, 0, 64, 94
2,40751, Note_on_c, 0, 75, 0
2,40761, Control_c, 0, 64, 79
2,40776, Control_c, 0, 64, 70
2,40791, Control_c, 0, 64, 65
2,40806, Control_c, 0, 64, 62
2,40806, Note_on_c, 0, 42, 70
2,40817, Note_on_c, 0, 40, 0
2,40821, Control_c, 0, 64, 59
2,40837, Control_c, 0, 64, 54
2,40852, Control_c, 0, 64, 45
2,40867, Control_c, 0, 64, 17
2,40883, Control_c, 0, 64, 0
2,40889, Note_on_c, 0, 43, 68
2,40904, Note_on_c, 0, 42, 0
2,40977, Note_on_c, 0, 45, 72
2,40984, Note_on_c, 0, 43, 0
2,41053, Note_on_c, 0, 43, 66
2,41073, Note_on_c, 0, 45, 0
2,41126, Note_on_c, 0, 71, 0
2,41142, Note_on_c, 0, 42, 77
2,41149, Note_on_c, 0, 43, 0
2,41153, Note_on_c, 0, 64, 0
2,41177, Note_on_c, 0, 76, 0
2,41225, Note_on_c, 0, 43, 75
2,41237, Note_on_c, 0, 42, 0
2,41307, Note_on_c, 0, 40, 70
2,41314, Note_on_c, 0, 43, 0
2,41399, Note_on_c, 0, 76, 83
2,41401, Note_on_c, 0, 66, 79
2,41403, Note_on_c, 0, 69, 75
2,41415, Note_on_c, 0, 48, 75
2,41451, Note_on_c, 0, 40, 0
2,41499, Control_c, 0, 64, 16
2,41513, Control_c, 0, 64, 39
2,41529, Control_c, 0, 64, 50
2,41544, Control_c, 0, 64, 55
2,41560, Control_c, 0, 64, 58
2,41575, Control_c, 0, 64, 62
2,41589, Control_c, 0, 64, 65
2,41605, Control_c, 0, 64, 70
2,41620, Control_c, 0, 64, 78
2,41634, Control_c, 0, 64, 94
2,41650, Control_c, 0, 64, 127
2,41661, Note_on_c, 0, 48, 0
2,41740, Note_on_c, 0, 76, 0
2,41971, Note_on_c, 0, 75, 84
2,41983, Note_on_c, 0, 48, 73
2,42047, Note_on_c, 0, 48, 0
2,42102, Note_on_c, 0, 75, 0
2,42179, Note_on_c, 0, 76, 86
2,42182, Note_on_c, 0, 47, 73
2,42191, Control_c, 0, 64, 102
2,42207, Control_c, 0, 64, 81
2,42221, Control_c, 0, 64, 67
2,42237, Control_c, 0, 64, 54
2,42252, Control_c, 0, 64, 29
2,42267, Control_c, 0, 64, 0
2,42328, Control_c, 0, 64, 16
2,42343, Control_c, 0, 64, 48
2,42358, Control_c, 0, 64, 61
2,42373, Control_c, 0, 64, 66
2,42388, Control_c, 0, 64, 73
2,42403, Control_c, 0, 64, 88
2,42418, Control_c, 0, 64, 127
2,42494, Note_on_c, 0, 76, 0
2,42590, Note_on_c, 0, 47, 0
2,42741, Note_on_c, 0, 78, 87
2,42742, Note_on_c, 0, 45, 65
2,42793, Note_on_c, 0, 45, 0
2,42836, Note_on_c, 0, 78, 0
2,42968, Note_on_c, 0, 71, 87
2,42974, Control_c, 0, 64, 100
2,42977, Note_on_c, 0, 43, 68
2,42989, Control_c, 0, 64, 77
2,43005, Control_c, 0, 64, 63
2,43020, Control_c, 0, 64, 0
2,43157, Control_c, 0, 64, 32
2,43172, Control_c, 0, 64, 51
2,43187, Control_c, 0, 64, 61
2,43202, Control_c, 0, 64, 69
2,43217, Control_c, 0, 64, 84
2,43232, Control_c, 0, 64, 127
2,43233, Note_on_c, 0, 43, 0
2,43270, Note_on_c, 0, 69, 0
2,43305, Note_on_c, 0, 66, 0
2,43531, Note_on_c, 0, 72, 74
2,43537, Control_c, 0, 64, 92
2,43538, Note_on_c, 0, 42, 59
2,43551, Control_c, 0, 64, 73
2,43567, Control_c, 0, 64, 62
2,43568, Note_on_c, 0, 71, 0
2,43582, Control_c, 0, 64, 43
2,43586, Note_on_c, 0, 42, 0
2,43598, Control_c, 0, 64, 21
2,43613, Control_c, 0, 64, 0
2,43623, Note_on_c, 0, 69, 78
2,43638, Note_on_c, 0, 72, 0
2,43709, Note_on_c, 0, 71, 86
2,43714, Note_on_c, 0, 43, 62
2,43719, Note_on_c, 0, 67, 75
2,43734, Note_on_c, 0, 69, 0
2,43803, Control_c, 0, 64, 27
2,43818, Control_c, 0, 64, 52
2,43833, Control_c, 0, 64, 62
2,43848, Control_c, 0, 64, 67
2,43848, Note_on_c, 0, 43, 0
2,43863, Control_c, 0, 64, 77
2,43879, Control_c, 0, 64, 127
2,43908, Note_on_c, 0, 71, 0
2,43985, Note_on_c, 0, 67, 0
2,44264, Note_on_c, 0, 72, 72
2,44266, Note_on_c, 0, 54, 59
2,44271, Note_on_c, 0, 64, 64
2,44276, Note_on_c, 0, 45, 52
2,44300, Note_on_c, 0, 54, 0
2,44319, Note_on_c, 0, 45, 0
2,44330, Note_on_c, 0, 72, 0
2,44336, Control_c, 0, 64, 102
2,44353, Control_c, 0, 64, 90
2,44362, Note_on_c, 0, 64, 0
2,44368, Control_c, 0, 64, 84
2,44383, Control_c, 0, 64, 79
2,44398, Control_c, 0, 64, 76
2,44413, Control_c, 0, 64, 72
2,44428, Control_c, 0, 64, 68
2,44444, Control_c, 0, 64, 63
2,44467, Control_c, 0, 64, 55
2,44482, Control_c, 0, 64, 44
2,44489, Note_on_c, 0, 64, 71
2,44489, Note_on_c, 0, 67, 74
2,44497, Control_c, 0, 64, 25
2,44498, Note_on_c, 0, 47, 57
2,44501, Note_on_c, 0, 55, 54
2,44513, Control_c, 0, 64, 0
2,44618, Control_c, 0, 64, 31
2,44634, Control_c, 0, 64, 47
2,44649, Control_c, 0, 64, 56
2,44664, Control_c, 0, 64, 60
2,44680, Control_c, 0, 64, 62
2,44694, Control_c, 0, 64, 64
2,44710, Control_c, 0, 64, 66
2,44725, Control_c, 0, 64, 68
2,44740, Control_c, 0, 64, 73
2,44756, Control_c, 0, 64, 77
2,44771, Control_c, 0, 64, 82
2,44786, Control_c, 0, 64, 87
2,44802, Control_c, 0, 64, 92
2,44816, Control_c, 0, 64, 96
2,44824, Note_on_c, 0, 55, 0
2,44832, Control_c, 0, 64, 97
2,44847, Control_c, 0, 64, 97
2,44862, Control_c, 0, 64, 96
2,44878, Control_c, 0, 64, 95
2,44907, Control_c, 0, 64, 94
2,44923, Control_c, 0, 64, 93
2,44937, Control_c, 0, 64, 91
2,44953, Control_c, 0, 64, 89
2,44968, Control_c, 0, 64, 87
2,44983, Control_c, 0, 64, 86
2,44999, Control_c, 0, 64, 85
2,45013, Control_c, 0, 64, 82
2,45026, Note_on_c, 0, 57, 58
2,45028, Control_c, 0, 64, 79
2,45044, Control_c, 0, 64, 76
2,45059, Control_c, 0, 64, 73
2,45071, Note_on_c, 0, 57, 0
2,45075, Control_c, 0, 64, 71
2,45089, Control_c, 0, 64, 68
2,45104, Control_c, 0, 64, 66
2,45120, Control_c, 0, 64, 63
2,45135, Control_c, 0, 64, 61
2,45150, Control_c, 0, 64, 58
2,45166, Control_c, 0, 64, 55
2,45173, Note_on_c, 0, 64, 0
2,45181, Control_c, 0, 64, 49
2,45197, Control_c, 0, 64, 38
2,45220, Control_c, 0, 64, 0
2,45242, Note_on_c, 0, 63, 65
2,45244, Note_on_c, 0, 66, 64
2,45253, Note_on_c, 0, 59, 47
2,45281, Note_on_c, 0, 67, 0
2,45296, Control_c, 0, 64, 21
2,45312, Control_c, 0, 64, 49
2,45326, Control_c, 0, 64, 58
2,45341, Control_c, 0, 64, 62
2,45357, Control_c, 0, 64, 65
2,45371, Control_c, 0, 64, 68
2,45386, Control_c, 0, 64, 72
2,45402, Control_c, 0, 64, 80
2,45417, Control_c, 0, 64, 98
2,45433, Control_c, 0, 64, 127
2,45486, Note_on_c, 0, 59, 0
2,45582, Note_on_c, 0, 63, 0
2,45583, Note_on_c, 0, 66, 0
2,45773, Note_on_c, 0, 57, 61
2,45809, Note_on_c, 0, 57, 0
2,45827, Control_c, 0, 64, 104
2,45843, Control_c, 0, 64, 88
2,45857, Control_c, 0, 64, 77
2,45873, Control_c, 0, 64, 69
2,45888, Control_c, 0, 64, 64
2,45903, Control_c, 0, 64, 62
2,45918, Control_c, 0, 64, 60
2,45933, Control_c, 0, 64, 58
2,45948, Control_c, 0, 64, 55
2,45960, Note_on_c, 0, 52, 47
2,45964, Control_c, 0, 64, 51
2,45965, Note_on_c, 0, 64, 53
2,45967, Note_on_c, 0, 55, 45
2,45987, Control_c, 0, 64, 43
2,46003, Control_c, 0, 64, 35
2,46018, Control_c, 0, 64, 26
2,46019, Note_on_c, 0, 47, 0
2,46034, Control_c, 0, 64, 16
2,46049, Control_c, 0, 64, 0
2,46075, Note_on_c, 0, 66, 60
2,46080, Note_on_c, 0, 64, 0
2,46160, Note_on_c, 0, 66, 0
2,46160, Note_on_c, 0, 67, 64
2,46223, Note_on_c, 0, 67, 0
2,46230, Note_on_c, 0, 69, 68
2,46312, Note_on_c, 0, 67, 72
2,46321, Note_on_c, 0, 55, 0
2,46322, Note_on_c, 0, 69, 0
2,46374, Note_on_c, 0, 67, 0
2,46376, Note_on_c, 0, 52, 0
2,46385, Note_on_c, 0, 66, 72
2,46458, Note_on_c, 0, 66, 0
2,46459, Note_on_c, 0, 67, 72
2,46496, Note_on_c, 0, 67, 0
2,46545, Note_on_c, 0, 64, 59
2,46585, Note_on_c, 0, 64, 0
2,46596, Control_c, 0, 64, 9
2,46611, Control_c, 0, 64, 22
2,46625, Control_c, 0, 64, 30
2,46641, Control_c, 0, 64, 38
2,46656, Control_c, 0, 64, 48
2,46663, Note_on_c, 0, 59, 42
2,46672, Control_c, 0, 64, 55
2,46674, Note_on_c, 0, 79, 67
2,46687, Control_c, 0, 64, 60
2,46701, Control_c, 0, 64, 64
2,46717, Control_c, 0, 64, 67
2,46732, Control_c, 0, 64, 71
2,46747, Control_c, 0, 64, 81
2,46770, Control_c, 0, 64, 102
2,46785, Control_c, 0, 64, 127
2,46788, Note_on_c, 0, 79, 0
2,46857, Note_on_c, 0, 59, 0
2,46859, Note_on_c, 0, 57, 52
2,46969, Note_on_c, 0, 57, 0
2,47045, Note_on_c, 0, 59, 50
2,47119, Note_on_c, 0, 59, 0
2,47211, Control_c, 0, 64, 119
2,47217, Note_on_c, 0, 55, 48
2,47226, Control_c, 0, 64, 107
2,47242, Control_c, 0, 64, 102
2,47257, Control_c, 0, 64, 98
2,47262, Note_on_c, 0, 55, 0
2,47272, Control_c, 0, 64, 95
2,47287, Control_c, 0, 64, 93
2,47302, Control_c, 0, 64, 93
2,47318, Control_c, 0, 64, 92
2,47333, Control_c, 0, 64, 91
2,47364, Control_c, 0, 64, 90
2,47378, Control_c, 0, 64, 87
2,47394, Control_c, 0, 64, 81
2,47401, Note_on_c, 0, 64, 61
2,47409, Control_c, 0, 64, 71
2,47415, Note_on_c, 0, 59, 59
2,47421, Note_on_c, 0, 55, 40
2,47424, Control_c, 0, 64, 63
2,47440, Control_c, 0, 64, 54
2,47455, Control_c, 0, 64, 39
2,47470, Control_c, 0, 64, 23
2,47485, Control_c, 0, 64, 16
2,47500, Control_c, 0, 64, 17
2,47516, Control_c, 0, 64, 32
2,47538, Control_c, 0, 64, 48
2,47553, Control_c, 0, 64, 57
2,47568, Control_c, 0, 64, 61
2,47583, Control_c, 0, 64, 63
2,47599, Control_c, 0, 64, 64
2,47599, Note_on_c, 0, 55, 0
2,47612, Note_on_c, 0, 54, 38
2,47614, Control_c, 0, 64, 66
2,47630, Control_c, 0, 64, 68
2,47645, Control_c, 0, 64, 70
2,47660, Control_c, 0, 64, 72
2,47715, Note_on_c, 0, 59, 0
2,47721, Control_c, 0, 64, 71
2,47773, Note_on_c, 0, 55, 45
2,47776, Note_on_c, 0, 54, 0
2,47782, Control_c, 0, 64, 71
2,47813, Control_c, 0, 64, 70
2,47827, Note_on_c, 0, 55, 0
2,47874, Control_c, 0, 64, 70
2,47889, Control_c, 0, 64, 69
2,47904, Control_c, 0, 64, 69
2,47934, Control_c, 0, 64, 68
2,47954, Note_on_c, 0, 61, 58
2,47955, Note_on_c, 0, 52, 46
2,47958, Note_on_c, 0, 55, 44
2,47965, Control_c, 0, 64, 67
2,47979, Control_c, 0, 64, 65
2,47991, Note_on_c, 0, 52, 0
2,47995, Control_c, 0, 64, 62
2,48010, Control_c, 0, 64, 57
2,48011, Note_on_c, 0, 55, 0
2,48025, Control_c, 0, 64, 52
2,48028, Note_on_c, 0, 61, 0
2,48040, Control_c, 0, 64, 46
2,48055, Control_c, 0, 64, 39
2,48071, Control_c, 0, 64, 27
2,48086, Control_c, 0, 64, 0
2,48135, Note_on_c, 0, 52, 36
2,48141, Note_on_c, 0, 55, 53
2,48152, Note_on_c, 0, 61, 60
2,48200, Note_on_c, 0, 64, 0
2,48284, Control_c, 0, 64, 27
2,48306, Control_c, 0, 64, 42
2,48321, Control_c, 0, 64, 50
2,48333, Note_on_c, 0, 50, 42
2,48336, Control_c, 0, 64, 55
2,48336, Note_on_c, 0, 52, 0
2,48352, Control_c, 0, 64, 57
2,48367, Control_c, 0, 64, 59
2,48382, Control_c, 0, 64, 61
2,48397, Control_c, 0, 64, 62
2,48412, Control_c, 0, 64, 64
2,48426, Note_on_c, 0, 55, 0
2,48427, Control_c, 0, 64, 65
2,48443, Control_c, 0, 64, 66
2,48459, Control_c, 0, 64, 68
2,48474, Control_c, 0, 64, 71
2,48484, Note_on_c, 0, 50, 0
2,48489, Control_c, 0, 64, 73
2,48504, Control_c, 0, 64, 75
2,48508, Note_on_c, 0, 52, 47
2,48520, Control_c, 0, 64, 78
2,48535, Control_c, 0, 64, 80
2,48550, Control_c, 0, 64, 83
2,48565, Control_c, 0, 64, 85
2,48580, Control_c, 0, 64, 85
2,48611, Control_c, 0, 64, 85
2,48642, Control_c, 0, 64, 84
2,48656, Control_c, 0, 64, 83
2,48659, Note_on_c, 0, 52, 0
2,48668, Note_on_c, 0, 49, 48
2,48672, Control_c, 0, 64, 81
2,48679, Note_on_c, 0, 57, 63
2,48687, Control_c, 0, 64, 79
2,48702, Control_c, 0, 64, 75
2,48705, Note_on_c, 0, 49, 0
2,48716, Note_on_c, 0, 57, 0
2,48718, Control_c, 0, 64, 72
2,48733, Control_c, 0, 64, 70
2,48743, Note_on_c, 0, 61, 0
2,48748, Control_c, 0, 64, 68
2,48763, Control_c, 0, 64, 67
2,48778, Control_c, 0, 64, 65
2,48794, Control_c, 0, 64, 63
2,48809, Control_c, 0, 64, 60
2,48824, Control_c, 0, 64, 56
2,48839, Control_c, 0, 64, 54
2,48854, Control_c, 0, 64, 50
2,48870, Control_c, 0, 64, 45
2,48874, Note_on_c, 0, 49, 49
2,48874, Note_on_c, 0, 52, 54
2,48878, Note_on_c, 0, 69, 72
2,48880, Note_on_c, 0, 57, 54
2,48884, Control_c, 0, 64, 38
2,48900, Control_c, 0, 64, 29
2,48916, Control_c, 0, 64, 18
2,48931, Control_c, 0, 64, 9
2,48946, Control_c, 0, 64, 0
2,48967, Note_on_c, 0, 71, 70
2,48980, Note_on_c, 0, 69, 0
2,49060, Note_on_c, 0, 73, 71
2,49078, Note_on_c, 0, 71, 0
2,49126, Note_on_c, 0, 74, 78
2,49128, Note_on_c, 0, 73, 0
2,49212, Note_on_c, 0, 73, 76
2,49241, Note_on_c, 0, 52, 0
2,49244, Note_on_c, 0, 57, 0
2,49244, Note_on_c, 0, 74, 0
2,49283, Note_on_c, 0, 73, 0
2,49284, Note_on_c, 0, 71, 80
2,49332, Note_on_c, 0, 49, 0
2,49372, Note_on_c, 0, 73, 80
2,49382, Note_on_c, 0, 71, 0
2,49433, Note_on_c, 0, 73, 0
2,49443, Note_on_c, 0, 69, 78
2,49551, Note_on_c, 0, 78, 84
2,49562, Note_on_c, 0, 57, 43
2,49577, Control_c, 0, 64, 30
2,49593, Control_c, 0, 64, 45
2,49607, Control_c, 0, 64, 53
2,49622, Control_c, 0, 64, 57
2,49638, Control_c, 0, 64, 61
2,49653, Control_c, 0, 64, 64
2,49666, Control_c, 0, 64, 68
2,49670, Note_on_c, 0, 69, 0
2,49682, Control_c, 0, 64, 76
2,49697, Control_c, 0, 64, 87
2,49713, Control_c, 0, 64, 119
2,49727, Control_c, 0, 64, 127
2,49742, Note_on_c, 0, 55, 44
2,49745, Note_on_c, 0, 57, 0
2,49746, Note_on_c, 0, 78, 0
2,49886, Note_on_c, 0, 55, 0
2,49935, Note_on_c, 0, 57, 56
2,49997, Note_on_c, 0, 57, 0
2,50100, Control_c, 0, 64, 117
2,50102, Note_on_c, 0, 54, 51
2,50116, Control_c, 0, 64, 110
2,50131, Control_c, 0, 64, 105
2,50146, Control_c, 0, 64, 101
2,50148, Note_on_c, 0, 54, 0
2,50161, Control_c, 0, 64, 97
2,50176, Control_c, 0, 64, 93
2,50192, Control_c, 0, 64, 90
2,50207, Control_c, 0, 64, 88
2,50222, Control_c, 0, 64, 86
2,50238, Control_c, 0, 64, 83
2,50252, Control_c, 0, 64, 79
2,50267, Control_c, 0, 64, 74
2,50283, Control_c, 0, 64, 68
2,50288, Note_on_c, 0, 62, 61
2,50291, Note_on_c, 0, 57, 52
2,50295, Note_on_c, 0, 54, 40
2,50298, Control_c, 0, 64, 63
2,50314, Control_c, 0, 64, 57
2,50329, Control_c, 0, 64, 50
2,50344, Control_c, 0, 64, 40
2,50360, Control_c, 0, 64, 34
2,50374, Control_c, 0, 64, 36
2,50390, Control_c, 0, 64, 46
2,50405, Control_c, 0, 64, 55
2,50420, Control_c, 0, 64, 61
2,50436, Control_c, 0, 64, 64
2,50450, Control_c, 0, 64, 66
2,50462, Note_on_c, 0, 52, 47
2,50465, Control_c, 0, 64, 69
2,50481, Control_c, 0, 64, 74
2,50481, Note_on_c, 0, 54, 0
2,50495, Control_c, 0, 64, 78
2,50511, Control_c, 0, 64, 81
2,50526, Control_c, 0, 64, 83
2,50571, Control_c, 0, 64, 83
2,50586, Control_c, 0, 64, 82
2,50610, Control_c, 0, 64, 81
2,50617, Note_on_c, 0, 52, 0
2,50625, Control_c, 0, 64, 81
2,50641, Control_c, 0, 64, 80
2,50655, Control_c, 0, 64, 78
2,50660, Note_on_c, 0, 54, 46
2,50671, Control_c, 0, 64, 77
2,50686, Control_c, 0, 64, 76
2,50700, Control_c, 0, 64, 76
2,50705, Note_on_c, 0, 54, 0
2,50716, Control_c, 0, 64, 75
2,50731, Control_c, 0, 64, 73
2,50746, Control_c, 0, 64, 71
2,50762, Control_c, 0, 64, 69
2,50776, Control_c, 0, 64, 69
2,50792, Control_c, 0, 64, 68
2,50807, Control_c, 0, 64, 67
2,50822, Control_c, 0, 64, 66
2,50833, Note_on_c, 0, 54, 45
2,50834, Note_on_c, 0, 59, 54
2,50838, Control_c, 0, 64, 65
2,50844, Note_on_c, 0, 50, 46
2,50852, Control_c, 0, 64, 63
2,50858, Note_on_c, 0, 57, 0
2,50867, Control_c, 0, 64, 63
2,50886, Note_on_c, 0, 50, 0
2,50895, Note_on_c, 0, 54, 0
2,50899, Control_c, 0, 64, 62
2,50915, Control_c, 0, 64, 60
2,50919, Note_on_c, 0, 59, 0
2,50929, Control_c, 0, 64, 58
2,50944, Control_c, 0, 64, 55
2,50960, Control_c, 0, 64, 53
2,50975, Control_c, 0, 64, 52
2,50991, Control_c, 0, 64, 48
2,51002, Note_on_c, 0, 62, 0
2,51005, Control_c, 0, 64, 41
2,51020, Control_c, 0, 64, 29
2,51020, Note_on_c, 0, 50, 39
2,51021, Note_on_c, 0, 59, 60
2,51023, Note_on_c, 0, 54, 51
2,51036, Control_c, 0, 64, 0
2,51112, Control_c, 0, 64, 31
2,51127, Control_c, 0, 64, 44
2,51142, Control_c, 0, 64, 52
2,51158, Control_c, 0, 64, 57
2,51173, Control_c, 0, 64, 59
2,51176, Note_on_c, 0, 49, 43
2,51188, Control_c, 0, 64, 61
2,51192, Note_on_c, 0, 50, 0
2,51204, Control_c, 0, 64, 63
2,51218, Control_c, 0, 64, 64
2,51234, Control_c, 0, 64, 65
2,51243, Note_on_c, 0, 54, 0
2,51249, Control_c, 0, 64, 67
2,51264, Control_c, 0, 64, 68
2,51280, Control_c, 0, 64, 70
2,51294, Control_c, 0, 64, 72
2,51310, Control_c, 0, 64, 74
2,51325, Control_c, 0, 64, 76
2,51339, Control_c, 0, 64, 77
2,51355, Control_c, 0, 64, 78
2,51369, Note_on_c, 0, 49, 0
2,51371, Note_on_c, 0, 50, 52
2,51377, Control_c, 0, 64, 77
2,51393, Control_c, 0, 64, 77
2,51428, Note_on_c, 0, 50, 0
2,51439, Control_c, 0, 64, 76
2,51454, Control_c, 0, 64, 76
2,51470, Control_c, 0, 64, 75
2,51485, Control_c, 0, 64, 74
2,51499, Control_c, 0, 64, 72
2,51515, Control_c, 0, 64, 72
2,51530, Control_c, 0, 64, 70
2,51544, Control_c, 0, 64, 69
2,51555, Note_on_c, 0, 55, 62
2,51558, Note_on_c, 0, 47, 46
2,51560, Control_c, 0, 64, 67
2,51575, Control_c, 0, 64, 66
2,51591, Control_c, 0, 64, 65
2,51606, Control_c, 0, 64, 65
2,51606, Note_on_c, 0, 55, 0
2,51620, Control_c, 0, 64, 64
2,51620, Note_on_c, 0, 59, 0
2,51621, Note_on_c, 0, 47, 0
2,51636, Control_c, 0, 64, 64
2,51651, Control_c, 0, 64, 62
2,51666, Control_c, 0, 64, 61
2,51682, Control_c, 0, 64, 60
2,51696, Control_c, 0, 64, 59
2,51712, Control_c, 0, 64, 57
2,51728, Control_c, 0, 64, 53
2,51743, Control_c, 0, 64, 47
2,51759, Control_c, 0, 64, 41
2,51759, Note_on_c, 0, 47, 43
2,51761, Note_on_c, 0, 55, 45
2,51763, Note_on_c, 0, 67, 71
2,51773, Control_c, 0, 64, 35
2,51774, Note_on_c, 0, 50, 46
2,51788, Control_c, 0, 64, 30
2,51804, Control_c, 0, 64, 21
2,51819, Control_c, 0, 64, 0
2,51843, Note_on_c, 0, 67, 0
2,51843, Note_on_c, 0, 69, 65
2,51922, Note_on_c, 0, 71, 72
2,51934, Note_on_c, 0, 69, 0
2,51994, Note_on_c, 0, 71, 0
2,51997, Note_on_c, 0, 72, 78
2,52087, Note_on_c, 0, 71, 80
2,52092, Control_c, 0, 64, 12
2,52096, Note_on_c, 0, 72, 0
2,52107, Control_c, 0, 64, 16
2,52123, Control_c, 0, 64, 18
2,52145, Control_c, 0, 64, 20
2,52158, Note_on_c, 0, 71, 0
2,52160, Note_on_c, 0, 50, 0
2,52161, Control_c, 0, 64, 22
2,52175, Control_c, 0, 64, 23
2,52175, Note_on_c, 0, 69, 76
2,52181, Note_on_c, 0, 55, 0
2,52191, Control_c, 0, 64, 25
2,52195, Note_on_c, 0, 47, 0
2,52206, Control_c, 0, 64, 27
2,52221, Control_c, 0, 64, 28
2,52237, Control_c, 0, 64, 29
2,52252, Control_c, 0, 64, 30
2,52255, Note_on_c, 0, 71, 80
2,52259, Note_on_c, 0, 69, 0
2,52282, Control_c, 0, 64, 31
2,52317, Note_on_c, 0, 71, 0
2,52327, Control_c, 0, 64, 31
2,52340, Note_on_c, 0, 67, 77
2,52342, Control_c, 0, 64, 32
2,52358, Control_c, 0, 64, 33
2,52387, Control_c, 0, 64, 34
2,52403, Control_c, 0, 64, 35
2,52418, Control_c, 0, 64, 36
2,52434, Control_c, 0, 64, 38
2,52449, Control_c, 0, 64, 38
2,52457, Note_on_c, 0, 76, 79
2,52463, Control_c, 0, 64, 39
2,52466, Note_on_c, 0, 55, 45
2,52479, Control_c, 0, 64, 42
2,52494, Control_c, 0, 64, 45
2,52510, Control_c, 0, 64, 50
2,52524, Control_c, 0, 64, 53
2,52541, Control_c, 0, 64, 56
2,52557, Control_c, 0, 64, 58
2,52571, Control_c, 0, 64, 60
2,52586, Control_c, 0, 64, 62
2,52602, Control_c, 0, 64, 65
2,52616, Control_c, 0, 64, 68
2,52632, Control_c, 0, 64, 73
2,52642, Note_on_c, 0, 54, 50
2,52647, Control_c, 0, 64, 79
2,52651, Note_on_c, 0, 55, 0
2,52662, Control_c, 0, 64, 87
2,52677, Note_on_c, 0, 67, 0
2,52678, Control_c, 0, 64, 92
2,52692, Control_c, 0, 64, 96
2,52707, Control_c, 0, 64, 100
2,52714, Note_on_c, 0, 76, 0
2,52723, Control_c, 0, 64, 104
2,52739, Control_c, 0, 64, 105
2,52769, Control_c, 0, 64, 105
2,52814, Control_c, 0, 64, 105
2,52836, Note_on_c, 0, 55, 53
2,52860, Control_c, 0, 64, 105
2,52871, Note_on_c, 0, 54, 0
2,52876, Control_c, 0, 64, 104
2,52929, Control_c, 0, 64, 102
2,52944, Control_c, 0, 64, 100
2,52946, Note_on_c, 0, 55, 0
2,52959, Control_c, 0, 64, 96
2,52974, Control_c, 0, 64, 93
2,52990, Control_c, 0, 64, 91
2,53005, Control_c, 0, 64, 90
2,53007, Note_on_c, 0, 52, 53
2,53020, Control_c, 0, 64, 88
2,53035, Control_c, 0, 64, 85
2,53047, Note_on_c, 0, 52, 0
2,53050, Control_c, 0, 64, 81
2,53065, Control_c, 0, 64, 78
2,53081, Control_c, 0, 64, 77
2,53096, Control_c, 0, 64, 76
2,53112, Control_c, 0, 64, 75
2,53127, Control_c, 0, 64, 75
2,53141, Control_c, 0, 64, 73
2,53157, Control_c, 0, 64, 69
2,53172, Control_c, 0, 64, 65
2,53187, Control_c, 0, 64, 62
2,53187, Note_on_c, 0, 55, 62
2,53187, Note_on_c, 0, 61, 63
2,53201, Note_on_c, 0, 52, 40
2,53203, Control_c, 0, 64, 57
2,53218, Control_c, 0, 64, 48
2,53233, Control_c, 0, 64, 30
2,53248, Control_c, 0, 64, 0
2,53308, Control_c, 0, 64, 38
2,53324, Control_c, 0, 64, 52
2,53339, Control_c, 0, 64, 59
2,53345, Note_on_c, 0, 52, 0
2,53355, Control_c, 0, 64, 62
2,53371, Control_c, 0, 64, 64
2,53385, Control_c, 0, 64, 65
2,53386, Note_on_c, 0, 50, 35
2,53401, Control_c, 0, 64, 68
2,53416, Control_c, 0, 64, 71
2,53432, Control_c, 0, 64, 74
2,53447, Control_c, 0, 64, 75
2,53477, Control_c, 0, 64, 74
2,53492, Control_c, 0, 64, 74
2,53524, Note_on_c, 0, 50, 0
2,53553, Control_c, 0, 64, 73
2,53568, Control_c, 0, 64, 73
2,53570, Note_on_c, 0, 52, 36
2,53583, Control_c, 0, 64, 72
2,53598, Control_c, 0, 64, 72
2,53604, Note_on_c, 0, 52, 0
2,53628, Control_c, 0, 64, 71
2,53644, Control_c, 0, 64, 71
2,53659, Control_c, 0, 64, 70
2,53682, Control_c, 0, 64, 70
2,53713, Control_c, 0, 64, 69
2,53735, Note_on_c, 0, 49, 42
2,53735, Note_on_c, 0, 52, 37
2,53741, Note_on_c, 0, 57, 59
2,53742, Control_c, 0, 64, 69
2,53758, Control_c, 0, 64, 68
2,53773, Control_c, 0, 64, 67
2,53774, Note_on_c, 0, 55, 0
2,53788, Control_c, 0, 64, 67
2,53790, Note_on_c, 0, 49, 0
2,53803, Control_c, 0, 64, 66
2,53811, Note_on_c, 0, 52, 0
2,53818, Control_c, 0, 64, 65
2,53833, Note_on_c, 0, 57, 0
2,53834, Control_c, 0, 64, 64
2,53849, Control_c, 0, 64, 61
2,53864, Control_c, 0, 64, 56
2,53879, Control_c, 0, 64, 48
2,53894, Control_c, 0, 64, 37
2,53910, Control_c, 0, 64, 0
2,53922, Note_on_c, 0, 49, 39
2,53929, Note_on_c, 0, 57, 63
2,53933, Note_on_c, 0, 52, 55
2,53985, Control_c, 0, 64, 19
2,54001, Control_c, 0, 64, 47
2,54016, Control_c, 0, 64, 57
2,54017, Note_on_c, 0, 61, 0
2,54032, Control_c, 0, 64, 61
2,54047, Control_c, 0, 64, 63
2,54062, Control_c, 0, 64, 64
2,54077, Control_c, 0, 64, 65
2,54089, Note_on_c, 0, 47, 49
2,54092, Control_c, 0, 64, 67
2,54096, Note_on_c, 0, 49, 0
2,54107, Control_c, 0, 64, 71
2,54123, Control_c, 0, 64, 74
2,54138, Control_c, 0, 64, 76
2,54153, Control_c, 0, 64, 77
2,54168, Control_c, 0, 64, 77
2,54180, Note_on_c, 0, 52, 0
2,54184, Control_c, 0, 64, 78
2,54200, Control_c, 0, 64, 79
2,54215, Control_c, 0, 64, 80
2,54260, Control_c, 0, 64, 79
2,54284, Note_on_c, 0, 47, 0
2,54286, Note_on_c, 0, 49, 45
2,54305, Control_c, 0, 64, 79
2,54321, Control_c, 0, 64, 78
2,54336, Control_c, 0, 64, 77
2,54352, Control_c, 0, 64, 76
2,54362, Note_on_c, 0, 49, 0
2,54367, Control_c, 0, 64, 76
2,54381, Control_c, 0, 64, 75
2,54397, Control_c, 0, 64, 75
2,54412, Control_c, 0, 64, 74
2,54427, Control_c, 0, 64, 73
2,54450, Control_c, 0, 64, 71
2,54457, Note_on_c, 0, 54, 68
2,54465, Control_c, 0, 64, 69
2,54473, Note_on_c, 0, 57, 0
2,54478, Note_on_c, 0, 45, 51
2,54481, Control_c, 0, 64, 69
2,54496, Control_c, 0, 64, 68
2,54512, Control_c, 0, 64, 67
2,54518, Note_on_c, 0, 45, 0
2,54518, Note_on_c, 0, 54, 0
2,54526, Control_c, 0, 64, 65
2,54541, Control_c, 0, 64, 63
2,54557, Control_c, 0, 64, 61
2,54572, Control_c, 0, 64, 59
2,54587, Control_c, 0, 64, 57
2,54602, Control_c, 0, 64, 55
2,54617, Control_c, 0, 64, 51
2,54633, Control_c, 0, 64, 46
2,54647, Control_c, 0, 64, 40
2,54662, Control_c, 0, 64, 33
2,54668, Note_on_c, 0, 66, 65
2,54677, Note_on_c, 0, 49, 47
2,54678, Control_c, 0, 64, 21
2,54681, Note_on_c, 0, 45, 52
2,54684, Note_on_c, 0, 54, 51
2,54693, Control_c, 0, 64, 0
2,54738, Note_on_c, 0, 66, 0
2,54766, Note_on_c, 0, 67, 60
2,54814, Control_c, 0, 64, 25
2,54825, Note_on_c, 0, 69, 69
2,54830, Control_c, 0, 64, 40
2,54831, Note_on_c, 0, 67, 0
2,54845, Control_c, 0, 64, 49
2,54860, Control_c, 0, 64, 54
2,54876, Control_c, 0, 64, 57
2,54890, Control_c, 0, 64, 59
2,54899, Note_on_c, 0, 69, 0
2,54905, Control_c, 0, 64, 60
2,54914, Note_on_c, 0, 71, 66
2,54921, Control_c, 0, 64, 62
2,54936, Control_c, 0, 64, 63
2,54952, Control_c, 0, 64, 63
2,54967, Control_c, 0, 64, 64
2,54981, Control_c, 0, 64, 64
2,54995, Note_on_c, 0, 69, 72
2,54998, Control_c, 0, 64, 65
2,55000, Note_on_c, 0, 45, 0
2,55002, Note_on_c, 0, 71, 0
2,55013, Control_c, 0, 64, 66
2,55041, Note_on_c, 0, 69, 0
2,55050, Note_on_c, 0, 54, 0
2,55058, Control_c, 0, 64, 66
2,55063, Note_on_c, 0, 49, 0
2,55070, Note_on_c, 0, 67, 64
2,55089, Control_c, 0, 64, 65
2,55120, Control_c, 0, 64, 65
2,55135, Control_c, 0, 64, 64
2,55145, Note_on_c, 0, 69, 74
2,55148, Note_on_c, 0, 67, 0
2,55150, Control_c, 0, 64, 62
2,55165, Control_c, 0, 64, 60
2,55180, Control_c, 0, 64, 59
2,55196, Control_c, 0, 64, 59
2,55218, Control_c, 0, 64, 58
2,55233, Control_c, 0, 64, 56
2,55242, Note_on_c, 0, 66, 74
2,55248, Control_c, 0, 64, 53
2,55248, Note_on_c, 0, 69, 0
2,55263, Control_c, 0, 64, 50
2,55279, Control_c, 0, 64, 47
2,55294, Control_c, 0, 64, 45
2,55310, Control_c, 0, 64, 42
2,55325, Control_c, 0, 64, 36
2,55328, Note_on_c, 0, 74, 80
2,55330, Note_on_c, 0, 59, 53
2,55340, Control_c, 0, 64, 25
2,55353, Note_on_c, 0, 66, 0
2,55356, Control_c, 0, 64, 0
2,55422, Note_on_c, 0, 59, 0
2,55432, Note_on_c, 0, 61, 54
2,55501, Note_on_c, 0, 61, 0
2,55506, Control_c, 0, 64, 22
2,55511, Note_on_c, 0, 62, 55
2,55522, Control_c, 0, 64, 31
2,55537, Control_c, 0, 64, 40
2,55553, Control_c, 0, 64, 46
2,55567, Control_c, 0, 64, 50
2,55577, Note_on_c, 0, 62, 0
2,55582, Control_c, 0, 64, 53
2,55595, Note_on_c, 0, 64, 59
2,55598, Control_c, 0, 64, 55
2,55612, Control_c, 0, 64, 57
2,55627, Control_c, 0, 64, 59
2,55643, Control_c, 0, 64, 61
2,55658, Control_c, 0, 64, 63
2,55672, Note_on_c, 0, 64, 0
2,55674, Control_c, 0, 64, 64
2,55687, Note_on_c, 0, 62, 53
2,55689, Control_c, 0, 64, 66
2,55703, Control_c, 0, 64, 69
2,55719, Control_c, 0, 64, 72
2,55725, Note_on_c, 0, 74, 0
2,55734, Control_c, 0, 64, 74
2,55750, Control_c, 0, 64, 76
2,55762, Note_on_c, 0, 62, 0
2,55765, Control_c, 0, 64, 78
2,55780, Control_c, 0, 64, 79
2,55784, Note_on_c, 0, 61, 54
2,55826, Control_c, 0, 64, 79
2,55842, Control_c, 0, 64, 78
2,55856, Control_c, 0, 64, 78
2,55859, Note_on_c, 0, 74, 75
2,55872, Control_c, 0, 64, 77
2,55879, Note_on_c, 0, 61, 0
2,55881, Note_on_c, 0, 62, 63
2,55887, Control_c, 0, 64, 76
2,55902, Control_c, 0, 64, 73
2,55917, Control_c, 0, 64, 70
2,55919, Note_on_c, 0, 62, 0
2,55924, Note_on_c, 0, 59, 57
2,55932, Control_c, 0, 64, 67
2,55945, Note_on_c, 0, 74, 0
2,55947, Control_c, 0, 64, 65
2,55951, Note_on_c, 0, 59, 0
2,55963, Control_c, 0, 64, 64
2,55985, Control_c, 0, 64, 62
2,56001, Control_c, 0, 64, 60
2,56015, Control_c, 0, 64, 56
2,56031, Control_c, 0, 64, 51
2,56046, Control_c, 0, 64, 45
2,56046, Note_on_c, 0, 52, 63
2,56049, Note_on_c, 0, 74, 79
2,56051, Note_on_c, 0, 67, 66
2,56061, Control_c, 0, 64, 39
2,56077, Control_c, 0, 64, 32
2,56092, Control_c, 0, 64, 22
2,56107, Control_c, 0, 64, 0
2,56135, Note_on_c, 0, 52, 0
2,56135, Note_on_c, 0, 54, 58
2,56200, Note_on_c, 0, 54, 0
2,56211, Note_on_c, 0, 55, 58
2,56274, Control_c, 0, 64, 21
2,56289, Control_c, 0, 64, 41
2,56294, Note_on_c, 0, 55, 0
2,56300, Note_on_c, 0, 57, 59
2,56304, Control_c, 0, 64, 52
2,56320, Control_c, 0, 64, 58
2,56334, Control_c, 0, 64, 61
2,56350, Control_c, 0, 64, 63
2,56365, Control_c, 0, 64, 64
2,56380, Control_c, 0, 64, 67
2,56382, Note_on_c, 0, 57, 0
2,56396, Control_c, 0, 64, 70
2,56401, Note_on_c, 0, 55, 61
2,56410, Control_c, 0, 64, 73
2,56425, Control_c, 0, 64, 76
2,56441, Control_c, 0, 64, 77
2,56459, Note_on_c, 0, 55, 0
2,56477, Note_on_c, 0, 54, 71
2,56501, Control_c, 0, 64, 76
2,56517, Control_c, 0, 64, 76
2,56532, Control_c, 0, 64, 75
2,56547, Control_c, 0, 64, 74
2,56563, Control_c, 0, 64, 73
2,56566, Note_on_c, 0, 67, 0
2,56578, Control_c, 0, 64, 72
2,56582, Note_on_c, 0, 76, 77
2,56584, Note_on_c, 0, 74, 0
2,56591, Note_on_c, 0, 54, 0
2,56591, Note_on_c, 0, 55, 65
2,56594, Control_c, 0, 64, 71
2,56609, Control_c, 0, 64, 70
2,56624, Control_c, 0, 64, 69
2,56631, Note_on_c, 0, 52, 53
2,56631, Note_on_c, 0, 55, 0
2,56640, Control_c, 0, 64, 67
2,56655, Control_c, 0, 64, 65
2,56657, Note_on_c, 0, 52, 0
2,56671, Control_c, 0, 64, 64
2,56677, Note_on_c, 0, 76, 0
2,56685, Control_c, 0, 64, 63
2,56731, Control_c, 0, 64, 62
2,56755, Control_c, 0, 64, 60
2,56766, Note_on_c, 0, 57, 55
2,56768, Note_on_c, 0, 74, 65
2,56769, Control_c, 0, 64, 57
2,56784, Control_c, 0, 64, 51
2,56800, Control_c, 0, 64, 46
2,56813, Note_on_c, 0, 74, 0
2,56815, Control_c, 0, 64, 40
2,56822, Note_on_c, 0, 73, 70
2,56823, Note_on_c, 0, 57, 0
2,56831, Control_c, 0, 64, 34
2,56839, Note_on_c, 0, 59, 54
2,56845, Control_c, 0, 64, 29
2,56860, Control_c, 0, 64, 26
2,56878, Note_on_c, 0, 73, 0
2,56879, Note_on_c, 0, 74, 73
2,56891, Control_c, 0, 64, 31
2,56902, Note_on_c, 0, 59, 0
2,56905, Control_c, 0, 64, 41
2,56907, Note_on_c, 0, 61, 60
2,56921, Control_c, 0, 64, 51
2,56936, Control_c, 0, 64, 56
2,56942, Note_on_c, 0, 73, 79
2,56951, Note_on_c, 0, 74, 0
2,56952, Control_c, 0, 64, 60
2,56967, Control_c, 0, 64, 62
2,56979, Note_on_c, 0, 61, 0
2,56981, Control_c, 0, 64, 63
2,56997, Control_c, 0, 64, 64
2,57001, Note_on_c, 0, 62, 60
2,57012, Control_c, 0, 64, 65
2,57043, Control_c, 0, 64, 64
2,57089, Control_c, 0, 64, 64
2,57091, Note_on_c, 0, 62, 0
2,57104, Note_on_c, 0, 61, 56
2,57134, Control_c, 0, 64, 63
2,57150, Control_c, 0, 64, 63
2,57156, Note_on_c, 0, 61, 0
2,57165, Control_c, 0, 64, 62
2,57177, Note_on_c, 0, 59, 60
2,57195, Control_c, 0, 64, 62
2,57210, Control_c, 0, 64, 61
2,57241, Control_c, 0, 64, 61
2,57255, Control_c, 0, 64, 60
2,57260, Note_on_c, 0, 59, 0
2,57265, Note_on_c, 0, 61, 66
2,57286, Control_c, 0, 64, 60
2,57293, Note_on_c, 0, 74, 69
2,57300, Control_c, 0, 64, 59
2,57311, Note_on_c, 0, 73, 0
2,57316, Control_c, 0, 64, 59
2,57327, Note_on_c, 0, 57, 56
2,57339, Note_on_c, 0, 61, 0
2,57346, Control_c, 0, 64, 58
2,57364, Note_on_c, 0, 76, 73
2,57371, Note_on_c, 0, 57, 0
2,57392, Control_c, 0, 64, 58
2,57392, Note_on_c, 0, 74, 0
2,57454, Note_on_c, 0, 62, 35
2,57460, Note_on_c, 0, 66, 62
2,57460, Note_on_c, 0, 78, 80
2,57470, Control_c, 0, 64, 57
2,57478, Note_on_c, 0, 50, 54
2,57484, Control_c, 0, 64, 53
2,57507, Control_c, 0, 64, 42
2,57513, Note_on_c, 0, 62, 0
2,57517, Note_on_c, 0, 76, 0
2,57523, Control_c, 0, 64, 23
2,57529, Note_on_c, 0, 50, 0
2,57537, Control_c, 0, 64, 13
2,57538, Note_on_c, 0, 52, 53
2,57553, Control_c, 0, 64, 17
2,57568, Control_c, 0, 64, 31
2,57583, Control_c, 0, 64, 44
2,57599, Control_c, 0, 64, 53
2,57613, Control_c, 0, 64, 57
2,57628, Control_c, 0, 64, 60
2,57635, Note_on_c, 0, 52, 0
2,57644, Control_c, 0, 64, 61
2,57648, Note_on_c, 0, 54, 55
2,57659, Control_c, 0, 64, 62
2,57675, Control_c, 0, 64, 63
2,57689, Control_c, 0, 64, 64
2,57698, Note_on_c, 0, 54, 0
2,57726, Note_on_c, 0, 55, 53
2,57734, Note_on_c, 0, 66, 0
2,57821, Note_on_c, 0, 54, 61
2,57825, Control_c, 0, 64, 63
2,57836, Note_on_c, 0, 55, 0
2,57841, Control_c, 0, 64, 63
2,57852, Note_on_c, 0, 78, 0
2,57893, Note_on_c, 0, 54, 0
2,57930, Note_on_c, 0, 52, 39
2,57932, Control_c, 0, 64, 62
2,57976, Note_on_c, 0, 52, 0
2,57978, Control_c, 0, 64, 62
2,58018, Note_on_c, 0, 54, 48
2,58023, Control_c, 0, 64, 61
2,58054, Control_c, 0, 64, 61
2,58085, Control_c, 0, 64, 60
2,58092, Note_on_c, 0, 54, 0
2,58097, Note_on_c, 0, 50, 35
2,58099, Control_c, 0, 64, 60
2,58115, Control_c, 0, 64, 59
2,58130, Control_c, 0, 64, 59
2,58160, Control_c, 0, 64, 58
2,58175, Control_c, 0, 64, 56
2,58191, Control_c, 0, 64, 52
2,58206, Control_c, 0, 64, 44
2,58211, Note_on_c, 0, 83, 51
2,58217, Note_on_c, 0, 55, 39
2,58220, Control_c, 0, 64, 38
2,58233, Note_on_c, 0, 50, 0
2,58236, Control_c, 0, 64, 35
2,58266, Control_c, 0, 64, 36
2,58290, Control_c, 0, 64, 42
2,58305, Control_c, 0, 64, 50
2,58321, Control_c, 0, 64, 55
2,58336, Control_c, 0, 64, 58
2,58352, Control_c, 0, 64, 60
2,58367, Control_c, 0, 64, 62
2,58381, Control_c, 0, 64, 63
2,58397, Control_c, 0, 64, 65
2,58412, Control_c, 0, 64, 67
2,58418, Note_on_c, 0, 81, 52
2,58427, Control_c, 0, 64, 69
2,58443, Control_c, 0, 64, 72
2,58452, Note_on_c, 0, 83, 0
2,58457, Control_c, 0, 64, 75
2,58473, Control_c, 0, 64, 78
2,58474, Note_on_c, 0, 55, 0
2,58488, Control_c, 0, 64, 81
2,58503, Control_c, 0, 64, 84
2,58519, Control_c, 0, 64, 86
2,58533, Control_c, 0, 64, 89
2,58548, Control_c, 0, 64, 92
2,58564, Control_c, 0, 64, 95
2,58578, Control_c, 0, 64, 99
2,58594, Control_c, 0, 64, 100
2,58602, Note_on_c, 0, 83, 57
2,58624, Control_c, 0, 64, 101
2,58640, Control_c, 0, 64, 102
2,58650, Note_on_c, 0, 81, 0
2,58654, Control_c, 0, 64, 106
2,58670, Control_c, 0, 64, 110
2,58685, Control_c, 0, 64, 111
2,58761, Control_c, 0, 64, 110
2,58774, Note_on_c, 0, 83, 0
2,58776, Control_c, 0, 64, 108
2,58783, Note_on_c, 0, 79, 59
2,58792, Control_c, 0, 64, 107
2,58841, Note_on_c, 0, 79, 0
2,58853, Control_c, 0, 64, 105
2,58867, Control_c, 0, 64, 102
2,58883, Control_c, 0, 64, 98
2,58898, Control_c, 0, 64, 96
2,58914, Control_c, 0, 64, 94
2,58929, Control_c, 0, 64, 93
2,58943, Control_c, 0, 64, 90
2,58959, Control_c, 0, 64, 86
2,58969, Note_on_c, 0, 79, 62
2,58973, Note_on_c, 0, 71, 45
2,58974, Control_c, 0, 64, 78
2,58981, Note_on_c, 0, 74, 43
2,58988, Control_c, 0, 64, 71
2,59004, Control_c, 0, 64, 64
2,59019, Control_c, 0, 64, 57
2,59035, Control_c, 0, 64, 51
2,59057, Control_c, 0, 64, 51
2,59073, Control_c, 0, 64, 52
2,59088, Control_c, 0, 64, 54
2,59103, Control_c, 0, 64, 58
2,59119, Control_c, 0, 64, 62
2,59134, Control_c, 0, 64, 65
2,59150, Control_c, 0, 64, 68
2,59156, Note_on_c, 0, 74, 0
2,59165, Control_c, 0, 64, 72
2,59165, Note_on_c, 0, 78, 59
2,59180, Control_c, 0, 64, 77
2,59182, Note_on_c, 0, 79, 0
2,59196, Control_c, 0, 64, 82
2,59205, Note_on_c, 0, 71, 0
2,59211, Control_c, 0, 64, 88
2,59225, Control_c, 0, 64, 94
2,59241, Control_c, 0, 64, 102
2,59256, Control_c, 0, 64, 119
2,59272, Control_c, 0, 64, 127
2,59341, Note_on_c, 0, 79, 54
2,59453, Note_on_c, 0, 78, 0
2,59524, Note_on_c, 0, 71, 35
2,59524, Note_on_c, 0, 76, 60
2,59532, Note_on_c, 0, 67, 45
2,59555, Note_on_c, 0, 79, 0
2,59570, Note_on_c, 0, 71, 0
2,59571, Note_on_c, 0, 76, 0
2,59574, Note_on_c, 0, 67, 0
2,59651, Control_c, 0, 64, 118
2,59666, Control_c, 0, 64, 106
2,59682, Control_c, 0, 64, 97
2,59696, Control_c, 0, 64, 92
2,59712, Control_c, 0, 64, 87
2,59724, Note_on_c, 0, 76, 60
2,59727, Control_c, 0, 64, 82
2,59730, Note_on_c, 0, 67, 41
2,59730, Note_on_c, 0, 71, 44
2,59742, Control_c, 0, 64, 73
2,59757, Control_c, 0, 64, 65
2,59772, Control_c, 0, 64, 59
2,59787, Control_c, 0, 64, 53
2,59803, Control_c, 0, 64, 52
2,59825, Control_c, 0, 64, 53
2,59841, Control_c, 0, 64, 56
2,59855, Control_c, 0, 64, 60
2,59871, Control_c, 0, 64, 63
2,59886, Control_c, 0, 64, 66
2,59893, Note_on_c, 0, 76, 0
2,59901, Control_c, 0, 64, 71
2,59910, Note_on_c, 0, 74, 57
2,59918, Control_c, 0, 64, 77
2,59926, Note_on_c, 0, 71, 0
2,59933, Control_c, 0, 64, 87
2,59947, Control_c, 0, 64, 97
2,59963, Control_c, 0, 64, 119
2,59978, Control_c, 0, 64, 127
2,60036, Note_on_c, 0, 67, 0
2,60116, Note_on_c, 0, 76, 54
2,60318, Note_on_c, 0, 73, 63
2,60320, Note_on_c, 0, 69, 31
2,60320, Note_on_c, 0, 74, 0
2,60327, Note_on_c, 0, 76, 0
2,60333, Note_on_c, 0, 64, 38
2,60354, Note_on_c, 0, 69, 0
2,60363, Note_on_c, 0, 64, 0
2,60363, Note_on_c, 0, 73, 0
2,60525, Control_c, 0, 64, 123
2,60540, Control_c, 0, 64, 105
2,60555, Control_c, 0, 64, 99
2,60570, Control_c, 0, 64, 95
2,60593, Control_c, 0, 64, 92
2,60605, Note_on_c, 0, 69, 53
2,60608, Control_c, 0, 64, 86
2,60612, Note_on_c, 0, 73, 58
2,60616, Note_on_c, 0, 64, 50
2,60623, Control_c, 0, 64, 79
2,60639, Control_c, 0, 64, 72
2,60641, Note_on_c, 0, 55, 28
2,60642, Note_on_c, 0, 43, 35
2,60653, Control_c, 0, 64, 67
2,60668, Control_c, 0, 64, 63
2,60684, Control_c, 0, 64, 61
2,60699, Control_c, 0, 64, 58
2,60715, Control_c, 0, 64, 54
2,60730, Control_c, 0, 64, 52
2,60761, Control_c, 0, 64, 55
2,60776, Control_c, 0, 64, 59
2,60792, Control_c, 0, 64, 63
2,60807, Control_c, 0, 64, 66
2,60821, Control_c, 0, 64, 69
2,60837, Control_c, 0, 64, 73
2,60852, Control_c, 0, 64, 78
2,60867, Control_c, 0, 64, 85
2,60883, Control_c, 0, 64, 94
2,60898, Control_c, 0, 64, 104
2,60913, Control_c, 0, 64, 127
2,60991, Note_on_c, 0, 55, 0
2,61022, Note_on_c, 0, 43, 0
2,61048, Note_on_c, 0, 64, 0
2,61084, Note_on_c, 0, 73, 0
2,61119, Note_on_c, 0, 69, 0
2,61455, Note_on_c, 0, 74, 81
2,61463, Note_on_c, 0, 66, 77
2,61466, Note_on_c, 0, 54, 77
2,61466, Note_on_c, 0, 69, 76
2,61528, Control_c, 0, 64, 91
2,61541, Note_on_c, 0, 55, 72
2,61543, Control_c, 0, 64, 73
2,61559, Control_c, 0, 64, 63
2,61574, Control_c, 0, 64, 60
2,61599, Note_on_c, 0, 54, 0
2,61620, Control_c, 0, 64, 59
2,61635, Control_c, 0, 64, 57
2,61637, Note_on_c, 0, 55, 0
2,61645, Note_on_c, 0, 57, 69
2,61650, Control_c, 0, 64, 55
2,61665, Control_c, 0, 64, 54
2,61681, Control_c, 0, 64, 53
2,61696, Control_c, 0, 64, 52
2,61712, Control_c, 0, 64, 51
2,61727, Control_c, 0, 64, 48
2,61737, Note_on_c, 0, 57, 0
2,61742, Control_c, 0, 64, 46
2,61745, Note_on_c, 0, 55, 66
2,61772, Control_c, 0, 64, 45
2,61787, Control_c, 0, 64, 45
2,61803, Control_c, 0, 64, 42
2,61814, Note_on_c, 0, 54, 66
2,61818, Control_c, 0, 64, 36
2,61818, Note_on_c, 0, 55, 0
2,61833, Control_c, 0, 64, 28
2,61848, Control_c, 0, 64, 15
2,61851, Note_on_c, 0, 54, 0
2,61859, Note_on_c, 0, 74, 0
2,61863, Control_c, 0, 64, 0
2,61881, Note_on_c, 0, 69, 0
2,61882, Note_on_c, 0, 66, 0
2,61886, Note_on_c, 0, 52, 75
2,61965, Note_on_c, 0, 50, 70
2,61966, Note_on_c, 0, 52, 0
2,61980, Note_on_c, 0, 74, 75
2,61985, Note_on_c, 0, 66, 74
2,61988, Note_on_c, 0, 69, 70
2,62062, Note_on_c, 0, 49, 52
2,62066, Note_on_c, 0, 69, 0
2,62072, Note_on_c, 0, 66, 0
2,62076, Note_on_c, 0, 74, 0
2,62084, Note_on_c, 0, 50, 0
2,62142, Note_on_c, 0, 49, 0
2,62158, Note_on_c, 0, 47, 72
2,62168, Note_on_c, 0, 71, 80
2,62168, Note_on_c, 0, 74, 86
2,62171, Note_on_c, 0, 66, 85
2,62245, Note_on_c, 0, 47, 0
2,62254, Note_on_c, 0, 49, 70
2,62323, Note_on_c, 0, 49, 0
2,62338, Note_on_c, 0, 50, 64
2,62439, Note_on_c, 0, 49, 67
2,62457, Note_on_c, 0, 50, 0
2,62494, Control_c, 0, 64, 9
2,62510, Control_c, 0, 64, 21
2,62519, Note_on_c, 0, 47, 62
2,62525, Control_c, 0, 64, 30
2,62528, Note_on_c, 0, 49, 0
2,62534, Note_on_c, 0, 66, 0
2,62540, Control_c, 0, 64, 38
2,62542, Note_on_c, 0, 71, 0
2,62556, Control_c, 0, 64, 44
2,62571, Control_c, 0, 64, 48
2,62578, Note_on_c, 0, 74, 0
2,62585, Control_c, 0, 64, 49
2,62600, Note_on_c, 0, 47, 0
2,62601, Control_c, 0, 64, 50
2,62604, Note_on_c, 0, 45, 63
2,62632, Control_c, 0, 64, 51
2,62647, Control_c, 0, 64, 52
2,62693, Note_on_c, 0, 45, 0
2,62707, Note_on_c, 0, 67, 73
2,62710, Note_on_c, 0, 47, 63
2,62711, Note_on_c, 0, 76, 69
2,62721, Note_on_c, 0, 71, 46
2,62722, Control_c, 0, 64, 53
2,62736, Control_c, 0, 64, 54
2,62763, Note_on_c, 0, 71, 0
2,62768, Note_on_c, 0, 67, 0
2,62772, Note_on_c, 0, 76, 0
2,62785, Note_on_c, 0, 47, 0
2,62804, Note_on_c, 0, 43, 54
2,62858, Control_c, 0, 64, 53
2,62874, Control_c, 0, 64, 51
2,62896, Control_c, 0, 64, 50
2,62903, Note_on_c, 0, 74, 60
2,62910, Note_on_c, 0, 64, 55
2,62920, Note_on_c, 0, 43, 0
2,62925, Note_on_c, 0, 45, 56
2,62941, Control_c, 0, 64, 51
2,62957, Control_c, 0, 64, 53
2,62971, Note_on_c, 0, 73, 67
2,62972, Control_c, 0, 64, 54
2,62987, Control_c, 0, 64, 54
2,62988, Note_on_c, 0, 74, 0
2,63015, Note_on_c, 0, 73, 0
2,63017, Control_c, 0, 64, 55
2,63020, Note_on_c, 0, 71, 63
2,63087, Note_on_c, 0, 73, 66
2,63096, Note_on_c, 0, 71, 0
2,63139, Control_c, 0, 64, 54
2,63155, Control_c, 0, 64, 53
2,63155, Note_on_c, 0, 73, 0
2,63170, Note_on_c, 0, 74, 61
2,63185, Control_c, 0, 64, 53
2,63199, Note_on_c, 0, 73, 66
2,63201, Control_c, 0, 64, 52
2,63204, Note_on_c, 0, 74, 0
2,63216, Control_c, 0, 64, 50
2,63232, Control_c, 0, 64, 49
2,63246, Control_c, 0, 64, 47
2,63260, Note_on_c, 0, 73, 0
2,63261, Control_c, 0, 64, 46
2,63268, Note_on_c, 0, 74, 71
2,63277, Control_c, 0, 64, 45
2,63307, Control_c, 0, 64, 46
2,63320, Note_on_c, 0, 73, 71
2,63323, Control_c, 0, 64, 47
2,63338, Control_c, 0, 64, 47
2,63341, Note_on_c, 0, 74, 0
2,63354, Control_c, 0, 64, 48
2,63368, Control_c, 0, 64, 50
2,63383, Control_c, 0, 64, 52
2,63399, Control_c, 0, 64, 55
2,63414, Control_c, 0, 64, 59
2,63430, Control_c, 0, 64, 61
2,63444, Control_c, 0, 64, 64
2,63459, Control_c, 0, 64, 68
2,63475, Control_c, 0, 64, 74
2,63485, Note_on_c, 0, 45, 0
2,63490, Control_c, 0, 64, 86
2,63504, Control_c, 0, 64, 127
2,63578, Note_on_c, 0, 64, 0
2,63725, Note_on_c, 0, 74, 71
2,63727, Note_on_c, 0, 45, 39
2,63753, Note_on_c, 0, 73, 0
2,63761, Note_on_c, 0, 45, 0
2,63793, Note_on_c, 0, 74, 0
2,63877, Control_c, 0, 64, 109
2,63892, Control_c, 0, 64, 99
2,63906, Control_c, 0, 64, 91
2,63922, Control_c, 0, 64, 84
2,63937, Control_c, 0, 64, 72
2,63939, Note_on_c, 0, 74, 63
2,63940, Note_on_c, 0, 69, 59
2,63943, Note_on_c, 0, 66, 63
2,63953, Control_c, 0, 64, 62
2,63957, Note_on_c, 0, 38, 48
2,63968, Control_c, 0, 64, 40
2,63983, Control_c, 0, 64, 0
2,64014, Control_c, 0, 64, 24
2,64030, Control_c, 0, 64, 52
2,64045, Control_c, 0, 64, 63
2,64052, Note_on_c, 0, 38, 0
2,64060, Control_c, 0, 64, 69
2,64076, Control_c, 0, 64, 80
2,64090, Control_c, 0, 64, 107
2,64105, Control_c, 0, 64, 127
2,64228, Note_on_c, 0, 66, 0
2,64357, Note_on_c, 0, 69, 0
2,64396, Note_on_c, 0, 74, 0
2,64445, Note_on_c, 0, 50, 55
2,64526, Note_on_c, 0, 52, 60
2,64527, Note_on_c, 0, 50, 0
2,64570, Control_c, 0, 64, 100
2,64585, Control_c, 0, 64, 88
2,64592, Note_on_c, 0, 52, 0
2,64597, Note_on_c, 0, 54, 63
2,64601, Control_c, 0, 64, 79
2,64616, Control_c, 0, 64, 72
2,64631, Control_c, 0, 64, 67
2,64646, Control_c, 0, 64, 64
2,64661, Control_c, 0, 64, 59
2,64667, Note_on_c, 0, 54, 0
2,64677, Control_c, 0, 64, 50
2,64677, Note_on_c, 0, 55, 64
2,64677, Note_on_c, 0, 71, 63
2,64692, Control_c, 0, 64, 26
2,64706, Control_c, 0, 64, 0
2,64758, Note_on_c, 0, 73, 66
2,64775, Note_on_c, 0, 71, 0
2,64839, Note_on_c, 0, 74, 70
2,64846, Note_on_c, 0, 73, 0
2,64890, Control_c, 0, 64, 32
2,64905, Control_c, 0, 64, 53
2,64913, Note_on_c, 0, 74, 0
2,64919, Note_on_c, 0, 76, 71
2,64921, Control_c, 0, 64, 62
2,64935, Control_c, 0, 64, 66
2,64951, Control_c, 0, 64, 70
2,64966, Control_c, 0, 64, 77
2,64980, Control_c, 0, 64, 94
2,64986, Note_on_c, 0, 55, 0
2,64996, Control_c, 0, 64, 127
2,65006, Note_on_c, 0, 74, 67
2,65009, Note_on_c, 0, 76, 0
2,65085, Note_on_c, 0, 74, 0
2,65093, Note_on_c, 0, 73, 68
2,65172, Note_on_c, 0, 73, 0
2,65172, Note_on_c, 0, 74, 73
2,65240, Note_on_c, 0, 74, 0
2,65265, Note_on_c, 0, 71, 61
2,65288, Note_on_c, 0, 71, 0
2,65353, Control_c, 0, 64, 107
2,65362, Note_on_c, 0, 76, 79
2,65368, Control_c, 0, 64, 87
2,65368, Note_on_c, 0, 71, 68
2,65376, Note_on_c, 0, 64, 74
2,65377, Note_on_c, 0, 49, 48
2,65383, Control_c, 0, 64, 76
2,65401, Control_c, 0, 64, 70
2,65416, Control_c, 0, 64, 66
2,65432, Control_c, 0, 64, 65
2,65447, Control_c, 0, 64, 63
2,65456, Note_on_c, 0, 49, 0
2,65461, Control_c, 0, 64, 62
2,65465, Note_on_c, 0, 50, 52
2,65477, Control_c, 0, 64, 58
2,65492, Control_c, 0, 64, 54
2,65508, Control_c, 0, 64, 50
2,65523, Control_c, 0, 64, 49
2,65537, Note_on_c, 0, 52, 58
2,65539, Note_on_c, 0, 50, 0
2,65553, Control_c, 0, 64, 48
2,65568, Control_c, 0, 64, 47
2,65584, Control_c, 0, 64, 45
2,65598, Control_c, 0, 64, 45
2,65602, Note_on_c, 0, 52, 0
2,65628, Note_on_c, 0, 54, 61
2,65629, Control_c, 0, 64, 46
2,65644, Control_c, 0, 64, 46
2,65660, Control_c, 0, 64, 47
2,65703, Note_on_c, 0, 54, 0
2,65706, Control_c, 0, 64, 48
2,65706, Note_on_c, 0, 52, 59
2,65721, Control_c, 0, 64, 49
2,65736, Control_c, 0, 64, 49
2,65740, Note_on_c, 0, 76, 0
2,65772, Note_on_c, 0, 52, 0
2,65777, Note_on_c, 0, 50, 65
2,65781, Control_c, 0, 64, 50
2,65797, Control_c, 0, 64, 50
2,65800, Note_on_c, 0, 71, 0
2,65831, Note_on_c, 0, 64, 0
2,65837, Note_on_c, 0, 50, 0
2,65842, Control_c, 0, 64, 50
2,65859, Note_on_c, 0, 52, 67
2,65931, Note_on_c, 0, 52, 0
2,65938, Note_on_c, 0, 49, 59
2,65949, Control_c, 0, 64, 50
2,65972, Control_c, 0, 64, 51
2,65987, Control_c, 0, 64, 52
2,66002, Control_c, 0, 64, 54
2,66017, Control_c, 0, 64, 57
2,66033, Control_c, 0, 64, 59
2,66040, Note_on_c, 0, 69, 62
2,66047, Control_c, 0, 64, 61
2,66050, Note_on_c, 0, 54, 56
2,66063, Control_c, 0, 64, 63
2,66078, Control_c, 0, 64, 64
2,66093, Control_c, 0, 64, 66
2,66109, Control_c, 0, 64, 70
2,66120, Note_on_c, 0, 71, 68
2,66123, Control_c, 0, 64, 75
2,66131, Note_on_c, 0, 49, 0
2,66131, Note_on_c, 0, 69, 0
2,66138, Control_c, 0, 64, 85
2,66154, Control_c, 0, 64, 98
2,66168, Control_c, 0, 64, 127
2,66205, Note_on_c, 0, 73, 65
2,66207, Note_on_c, 0, 54, 0
2,66223, Note_on_c, 0, 71, 0
2,66284, Note_on_c, 0, 73, 0
2,66293, Note_on_c, 0, 74, 73
2,66387, Note_on_c, 0, 73, 72
2,66428, Control_c, 0, 64, 109
2,66428, Note_on_c, 0, 74, 0
2,66443, Control_c, 0, 64, 101
2,66457, Control_c, 0, 64, 96
2,66461, Note_on_c, 0, 71, 61
2,66463, Note_on_c, 0, 73, 0
2,66474, Control_c, 0, 64, 93
2,66489, Control_c, 0, 64, 91
2,66505, Control_c, 0, 64, 88
2,66520, Control_c, 0, 64, 84
2,66535, Control_c, 0, 64, 82
2,66545, Note_on_c, 0, 73, 79
2,66550, Control_c, 0, 64, 81
2,66564, Control_c, 0, 64, 80
2,66579, Control_c, 0, 64, 79
2,66588, Note_on_c, 0, 71, 0
2,66595, Control_c, 0, 64, 77
2,66610, Control_c, 0, 64, 74
2,66625, Control_c, 0, 64, 72
2,66630, Note_on_c, 0, 69, 70
2,66634, Note_on_c, 0, 73, 0
2,66640, Control_c, 0, 64, 70
2,66655, Control_c, 0, 64, 69
2,66667, Note_on_c, 0, 69, 0
2,66670, Control_c, 0, 64, 68
2,66685, Control_c, 0, 64, 66
2,66700, Control_c, 0, 64, 61
2,66715, Note_on_c, 0, 47, 43
2,66716, Control_c, 0, 64, 52
2,66718, Note_on_c, 0, 74, 80
2,66734, Note_on_c, 0, 69, 58
2,66736, Note_on_c, 0, 62, 68
2,66739, Control_c, 0, 64, 39
2,66754, Control_c, 0, 64, 0
2,66813, Note_on_c, 0, 49, 56
2,66818, Note_on_c, 0, 47, 0
2,66889, Note_on_c, 0, 49, 0
2,66890, Control_c, 0, 64, 22
2,66899, Note_on_c, 0, 50, 61
2,66906, Control_c, 0, 64, 44
2,66921, Control_c, 0, 64, 53
2,66936, Control_c, 0, 64, 58
2,66952, Control_c, 0, 64, 62
2,66966, Control_c, 0, 64, 64
2,66966, Note_on_c, 0, 50, 0
2,66977, Note_on_c, 0, 52, 66
2,66981, Control_c, 0, 64, 68
2,66997, Control_c, 0, 64, 73
2,67009, Note_on_c, 0, 62, 0
2,67012, Control_c, 0, 64, 79
2,67028, Control_c, 0, 64, 88
2,67043, Control_c, 0, 64, 97
2,67058, Control_c, 0, 64, 100
2,67067, Note_on_c, 0, 52, 0
2,67070, Note_on_c, 0, 50, 63
2,67073, Control_c, 0, 64, 98
2,67088, Control_c, 0, 64, 97
2,67119, Control_c, 0, 64, 96
2,67134, Control_c, 0, 64, 95
2,67150, Control_c, 0, 64, 94
2,67150, Note_on_c, 0, 50, 0
2,67152, Note_on_c, 0, 49, 65
2,67164, Control_c, 0, 64, 91
2,67179, Control_c, 0, 64, 87
2,67195, Control_c, 0, 64, 84
2,67209, Control_c, 0, 64, 80
2,67225, Control_c, 0, 64, 76
2,67235, Note_on_c, 0, 49, 0
2,67240, Control_c, 0, 64, 73
2,67240, Note_on_c, 0, 50, 66
2,67255, Control_c, 0, 64, 70
2,67271, Control_c, 0, 64, 68
2,67287, Control_c, 0, 64, 66
2,67302, Control_c, 0, 64, 66
2,67311, Note_on_c, 0, 47, 59
2,67314, Note_on_c, 0, 74, 0
2,67316, Note_on_c, 0, 50, 0
2,67317, Control_c, 0, 64, 65
2,67332, Control_c, 0, 64, 65
2,67341, Note_on_c, 0, 47, 0
2,67348, Control_c, 0, 64, 64
2,67363, Control_c, 0, 64, 63
2,67378, Control_c, 0, 64, 62
2,67393, Control_c, 0, 64, 62
2,67408, Control_c, 0, 64, 61
2,67414, Note_on_c, 0, 69, 0
2,67424, Control_c, 0, 64, 60
2,67425, Note_on_c, 0, 67, 67
2,67431, Note_on_c, 0, 52, 64
2,67438, Control_c, 0, 64, 59
2,67453, Control_c, 0, 64, 57
2,67469, Control_c, 0, 64, 55
2,67484, Control_c, 0, 64, 54
2,67508, Control_c, 0, 64, 52
2,67519, Note_on_c, 0, 69, 68
2,67522, Control_c, 0, 64, 50
2,67522, Note_on_c, 0, 52, 0
2,67522, Note_on_c, 0, 54, 63
2,67534, Note_on_c, 0, 67, 0
2,67537, Control_c, 0, 64, 46
2,67553, Control_c, 0, 64, 39
2,67568, Control_c, 0, 64, 22
2,67584, Control_c, 0, 64, 0
2,67588, Note_on_c, 0, 54, 0
2,67595, Note_on_c, 0, 55, 59
2,67604, Note_on_c, 0, 71, 71
2,67624, Note_on_c, 0, 69, 0
2,67651, Note_on_c, 0, 55, 0
2,67672, Note_on_c, 0, 57, 61
2,67677, Note_on_c, 0, 71, 0
2,67679, Note_on_c, 0, 72, 78
2,67759, Note_on_c, 0, 57, 0
2,67762, Note_on_c, 0, 55, 60
2,67772, Note_on_c, 0, 71, 78
2,67780, Control_c, 0, 64, 17
2,67796, Control_c, 0, 64, 40
2,67800, Note_on_c, 0, 72, 0
2,67810, Control_c, 0, 64, 50
2,67826, Control_c, 0, 64, 54
2,67835, Note_on_c, 0, 71, 0
2,67841, Control_c, 0, 64, 57
2,67841, Note_on_c, 0, 55, 0
2,67844, Note_on_c, 0, 69, 79
2,67846, Note_on_c, 0, 54, 64
2,67856, Control_c, 0, 64, 60
2,67871, Control_c, 0, 64, 63
2,67886, Control_c, 0, 64, 66
2,67901, Control_c, 0, 64, 69
2,67917, Control_c, 0, 64, 73
2,67928, Note_on_c, 0, 71, 83
2,67931, Note_on_c, 0, 69, 0
2,67932, Control_c, 0, 64, 78
2,67934, Note_on_c, 0, 54, 0
2,67941, Note_on_c, 0, 55, 64
2,67948, Control_c, 0, 64, 84
2,67963, Control_c, 0, 64, 86
2,67978, Control_c, 0, 64, 85
2,67984, Note_on_c, 0, 71, 0
2,67994, Control_c, 0, 64, 84
2,68002, Note_on_c, 0, 67, 78
2,68006, Note_on_c, 0, 52, 65
2,68006, Note_on_c, 0, 55, 0
2,68008, Control_c, 0, 64, 82
2,68024, Control_c, 0, 64, 78
2,68027, Note_on_c, 0, 52, 0
2,68039, Control_c, 0, 64, 75
2,68051, Note_on_c, 0, 67, 0
2,68053, Control_c, 0, 64, 71
2,68069, Control_c, 0, 64, 68
2,68084, Control_c, 0, 64, 65
2,68100, Control_c, 0, 64, 63
2,68104, Note_on_c, 0, 73, 78
2,68116, Control_c, 0, 64, 60
2,68123, Note_on_c, 0, 57, 67
2,68131, Control_c, 0, 64, 56
2,68147, Control_c, 0, 64, 51
2,68162, Control_c, 0, 64, 44
2,68177, Control_c, 0, 64, 34
2,68180, Note_on_c, 0, 59, 66
2,68182, Note_on_c, 0, 73, 0
2,68192, Control_c, 0, 64, 24
2,68193, Note_on_c, 0, 57, 0
2,68196, Note_on_c, 0, 74, 82
2,68207, Control_c, 0, 64, 16
2,68222, Control_c, 0, 64, 12
2,68238, Control_c, 0, 64, 11
2,68267, Note_on_c, 0, 76, 79
2,68269, Note_on_c, 0, 61, 67
2,68278, Note_on_c, 0, 74, 0
2,68284, Note_on_c, 0, 59, 0
2,68306, Control_c, 0, 64, 20
2,68321, Control_c, 0, 64, 35
2,68336, Control_c, 0, 64, 49
2,68345, Note_on_c, 0, 61, 0
2,68348, Note_on_c, 0, 76, 0
2,68351, Note_on_c, 0, 78, 77
2,68352, Control_c, 0, 64, 55
2,68356, Note_on_c, 0, 62, 69
2,68366, Control_c, 0, 64, 58
2,68381, Control_c, 0, 64, 60
2,68397, Control_c, 0, 64, 63
2,68412, Control_c, 0, 64, 65
2,68428, Control_c, 0, 64, 69
2,68434, Note_on_c, 0, 76, 85
2,68440, Note_on_c, 0, 62, 0
2,68442, Note_on_c, 0, 61, 66
2,68443, Control_c, 0, 64, 75
2,68458, Control_c, 0, 64, 81
2,68473, Note_on_c, 0, 78, 0
2,68474, Control_c, 0, 64, 88
2,68489, Control_c, 0, 64, 94
2,68498, Note_on_c, 0, 76, 0
2,68504, Control_c, 0, 64, 100
2,68515, Note_on_c, 0, 74, 80
2,68519, Control_c, 0, 64, 104
2,68525, Note_on_c, 0, 61, 0
2,68530, Note_on_c, 0, 59, 64
2,68534, Control_c, 0, 64, 105
2,68550, Control_c, 0, 64, 107
2,68565, Control_c, 0, 64, 108
2,68579, Control_c, 0, 64, 108
2,68596, Note_on_c, 0, 76, 83
2,68601, Note_on_c, 0, 61, 67
2,68602, Note_on_c, 0, 74, 0
2,68610, Control_c, 0, 64, 108
2,68626, Control_c, 0, 64, 106
2,68641, Control_c, 0, 64, 104
2,68654, Note_on_c, 0, 59, 0
2,68655, Control_c, 0, 64, 102
2,68664, Note_on_c, 0, 76, 0
2,68671, Control_c, 0, 64, 99
2,68674, Note_on_c, 0, 73, 82
2,68675, Note_on_c, 0, 61, 0
2,68686, Control_c, 0, 64, 96
2,68695, Note_on_c, 0, 73, 0
2,68700, Control_c, 0, 64, 92
2,68716, Control_c, 0, 64, 88
2,68731, Control_c, 0, 64, 85
2,68747, Control_c, 0, 64, 83
2,68762, Control_c, 0, 64, 80
2,68767, Note_on_c, 0, 62, 75
2,68772, Note_on_c, 0, 78, 88
2,68776, Control_c, 0, 64, 78
2,68792, Control_c, 0, 64, 76
2,68807, Control_c, 0, 64, 73
2,68821, Control_c, 0, 64, 71
2,68837, Control_c, 0, 64, 69
2,68846, Note_on_c, 0, 78, 0
2,68851, Note_on_c, 0, 64, 69
2,68852, Control_c, 0, 64, 68
2,68854, Note_on_c, 0, 79, 81
2,68861, Note_on_c, 0, 62, 0
2,68868, Control_c, 0, 64, 67
2,68883, Control_c, 0, 64, 66
2,68898, Control_c, 0, 64, 65
2,68914, Control_c, 0, 64, 63
2,68929, Control_c, 0, 64, 59
2,68932, Note_on_c, 0, 81, 76
2,68934, Note_on_c, 0, 66, 70
2,68945, Control_c, 0, 64, 52
2,68947, Note_on_c, 0, 64, 0
2,68951, Note_on_c, 0, 79, 0
2,68960, Control_c, 0, 64, 40
2,68975, Control_c, 0, 64, 0
2,69001, Note_on_c, 0, 66, 0
2,69009, Note_on_c, 0, 83, 88
2,69012, Note_on_c, 0, 81, 0
2,69014, Note_on_c, 0, 67, 67
2,69106, Note_on_c, 0, 81, 85
2,69109, Note_on_c, 0, 67, 0
2,69111, Note_on_c, 0, 66, 71
2,69134, Note_on_c, 0, 83, 0
2,69176, Note_on_c, 0, 66, 0
2,69182, Note_on_c, 0, 81, 0
2,69191, Note_on_c, 0, 79, 85
2,69192, Note_on_c, 0, 64, 45
2,69278, Note_on_c, 0, 66, 63
2,69278, Note_on_c, 0, 81, 83
2,69280, Note_on_c, 0, 64, 0
2,69290, Note_on_c, 0, 79, 0
2,69345, Note_on_c, 0, 67, 44
2,69361, Note_on_c, 0, 78, 87
2,69363, Note_on_c, 0, 66, 0
2,69399, Note_on_c, 0, 81, 0
2,69487, Note_on_c, 0, 83, 92
2,69505, Note_on_c, 0, 62, 67
2,69513, Note_on_c, 0, 78, 0
2,69515, Control_c, 0, 64, 32
2,69530, Control_c, 0, 64, 47
2,69545, Control_c, 0, 64, 56
2,69560, Control_c, 0, 64, 60
2,69569, Note_on_c, 0, 67, 0
2,69575, Control_c, 0, 64, 63
2,69591, Control_c, 0, 64, 64
2,69595, Note_on_c, 0, 62, 0
2,69606, Control_c, 0, 64, 66
2,69620, Control_c, 0, 64, 70
2,69629, Note_on_c, 0, 83, 0
2,69636, Control_c, 0, 64, 77
2,69651, Control_c, 0, 64, 91
2,69666, Control_c, 0, 64, 127
2,69828, Control_c, 0, 64, 107
2,69843, Control_c, 0, 64, 95
2,69857, Control_c, 0, 64, 90
2,69873, Control_c, 0, 64, 87
2,69888, Control_c, 0, 64, 85
2,69904, Control_c, 0, 64, 80
2,69919, Control_c, 0, 64, 75
2,69933, Control_c, 0, 64, 73
2,69949, Control_c, 0, 64, 72
2,69964, Control_c, 0, 64, 73
2,69978, Control_c, 0, 64, 72
2,69994, Control_c, 0, 64, 72
2,70009, Control_c, 0, 64, 71
2,70025, Control_c, 0, 64, 70
2,70047, Note_on_c, 0, 73, 70
2,70054, Note_on_c, 0, 64, 66
2,70069, Note_on_c, 0, 55, 58
2,70072, Note_on_c, 0, 69, 55
2,70085, Control_c, 0, 64, 69
2,70093, Note_on_c, 0, 55, 0
2,70097, Note_on_c, 0, 64, 0
2,70100, Control_c, 0, 64, 67
2,70109, Note_on_c, 0, 69, 0
2,70115, Control_c, 0, 64, 66
2,70130, Control_c, 0, 64, 64
2,70146, Control_c, 0, 64, 63
2,70176, Control_c, 0, 64, 63
2,70207, Control_c, 0, 64, 62
2,70222, Control_c, 0, 64, 61
2,70238, Control_c, 0, 64, 60
2,70244, Note_on_c, 0, 73, 0
2,70253, Control_c, 0, 64, 58
2,70268, Control_c, 0, 64, 54
2,70277, Note_on_c, 0, 74, 76
2,70283, Control_c, 0, 64, 45
2,70288, Note_on_c, 0, 66, 68
2,70289, Note_on_c, 0, 69, 68
2,70292, Note_on_c, 0, 54, 65
2,70298, Control_c, 0, 64, 21
2,70313, Control_c, 0, 64, 0
2,70359, Control_c, 0, 64, 23
2,70374, Control_c, 0, 64, 47
2,70389, Control_c, 0, 64, 57
2,70404, Control_c, 0, 64, 62
2,70412, Note_on_c, 0, 54, 0
2,70419, Control_c, 0, 64, 64
2,70435, Control_c, 0, 64, 66
2,70450, Control_c, 0, 64, 68
2,70465, Control_c, 0, 64, 71
2,70480, Control_c, 0, 64, 76
2,70495, Control_c, 0, 64, 83
2,70510, Control_c, 0, 64, 95
2,70525, Control_c, 0, 64, 127
2,70610, Note_on_c, 0, 66, 0
2,70610, Note_on_c, 0, 74, 0
2,70676, Note_on_c, 0, 69, 0
2,70793, Control_c, 0, 64, 123
2,70808, Control_c, 0, 64, 107
2,70822, Control_c, 0, 64, 100
2,70838, Control_c, 0, 64, 96
2,70853, Control_c, 0, 64, 92
2,70869, Control_c, 0, 64, 87
2,70874, Note_on_c, 0, 76, 72
2,70876, Note_on_c, 0, 67, 69
2,70877, Note_on_c, 0, 73, 66
2,70884, Control_c, 0, 64, 80
2,70884, Note_on_c, 0, 52, 49
2,70898, Control_c, 0, 64, 74
2,70914, Control_c, 0, 64, 70
2,70919, Note_on_c, 0, 67, 0
2,70920, Note_on_c, 0, 52, 0
2,70921, Note_on_c, 0, 73, 0
2,70929, Control_c, 0, 64, 69
2,70942, Note_on_c, 0, 76, 0
2,70945, Control_c, 0, 64, 68
2,70959, Control_c, 0, 64, 66
2,70974, Control_c, 0, 64, 65
2,70990, Control_c, 0, 64, 64
2,71005, Control_c, 0, 64, 63
2,71020, Control_c, 0, 64, 62
2,71036, Control_c, 0, 64, 60
2,71051, Control_c, 0, 64, 54
2,71066, Control_c, 0, 64, 39
2,71081, Control_c, 0, 64, 0
2,71091, Note_on_c, 0, 74, 56
2,71094, Note_on_c, 0, 78, 78
2,71099, Note_on_c, 0, 69, 68
2,71107, Note_on_c, 0, 50, 64
2,71127, Control_c, 0, 64, 34
2,71142, Control_c, 0, 64, 55
2,71157, Control_c, 0, 64, 64
2,71171, Control_c, 0, 64, 70
2,71187, Control_c, 0, 64, 80
2,71202, Control_c, 0, 64, 123
2,71214, Note_on_c, 0, 50, 0
2,71217, Control_c, 0, 64, 127
2,71226, Note_on_c, 0, 74, 0
2,71231, Note_on_c, 0, 78, 0
2,71242, Note_on_c, 0, 69, 0
2,71687, Note_on_c, 0, 66, 62
2,71693, Note_on_c, 0, 57, 62
2,71699, Note_on_c, 0, 48, 53
2,71711, Note_on_c, 0, 62, 51
2,71727, Control_c, 0, 64, 121
2,71741, Control_c, 0, 64, 98
2,71748, Note_on_c, 0, 48, 0
2,71755, Note_on_c, 0, 62, 0
2,71757, Control_c, 0, 64, 84
2,71757, Note_on_c, 0, 57, 0
2,71772, Control_c, 0, 64, 75
2,71784, Note_on_c, 0, 66, 0
2,71788, Control_c, 0, 64, 71
2,71803, Control_c, 0, 64, 69
2,71818, Control_c, 0, 64, 69
2,71834, Control_c, 0, 64, 68
2,71849, Control_c, 0, 64, 67
2,71864, Control_c, 0, 64, 65
2,71879, Control_c, 0, 64, 64
2,71894, Control_c, 0, 64, 63
2,71906, Note_on_c, 0, 67, 76
2,71910, Control_c, 0, 64, 60
2,71911, Note_on_c, 0, 59, 68
2,71916, Note_on_c, 0, 47, 57
2,71916, Note_on_c, 0, 62, 64
2,71925, Control_c, 0, 64, 55
2,71940, Control_c, 0, 64, 44
2,71955, Control_c, 0, 64, 23
2,71970, Control_c, 0, 64, 0
2,72015, Control_c, 0, 64, 35
2,72031, Control_c, 0, 64, 52
2,72046, Control_c, 0, 64, 60
2,72061, Control_c, 0, 64, 64
2,72076, Control_c, 0, 64, 66
2,72091, Control_c, 0, 64, 70
2,72115, Control_c, 0, 64, 76
2,72130, Control_c, 0, 64, 86
2,72145, Control_c, 0, 64, 109
2,72160, Control_c, 0, 64, 127
2,72228, Note_on_c, 0, 62, 0
2,72250, Note_on_c, 0, 59, 0
2,72289, Note_on_c, 0, 67, 0
2,72427, Note_on_c, 0, 47, 0
2,72561, Note_on_c, 0, 60, 74
2,72562, Note_on_c, 0, 66, 69
2,72564, Note_on_c, 0, 69, 72
2,72569, Note_on_c, 0, 45, 57
2,72616, Control_c, 0, 64, 115
2,72632, Control_c, 0, 64, 111
2,72635, Note_on_c, 0, 45, 0
2,72662, Control_c, 0, 64, 111
2,72665, Note_on_c, 0, 60, 0
2,72677, Control_c, 0, 64, 109
2,72692, Control_c, 0, 64, 106
2,72693, Note_on_c, 0, 69, 0
2,72708, Control_c, 0, 64, 101
2,72723, Control_c, 0, 64, 97
2,72726, Note_on_c, 0, 66, 0
2,72738, Control_c, 0, 64, 95
2,72754, Control_c, 0, 64, 94
2,72768, Control_c, 0, 64, 92
2,72784, Control_c, 0, 64, 87
2,72789, Note_on_c, 0, 67, 79
2,72794, Note_on_c, 0, 71, 85
2,72795, Note_on_c, 0, 62, 82
2,72797, Note_on_c, 0, 43, 67
2,72799, Control_c, 0, 64, 79
2,72814, Control_c, 0, 64, 68
2,72830, Control_c, 0, 64, 45
2,72844, Control_c, 0, 64, 0
2,72928, Control_c, 0, 64, 33
2,72944, Control_c, 0, 64, 52
2,72959, Control_c, 0, 64, 60
2,72973, Control_c, 0, 64, 64
2,72989, Control_c, 0, 64, 67
2,73004, Control_c, 0, 64, 71
2,73019, Control_c, 0, 64, 79
2,73019, Note_on_c, 0, 43, 0
2,73035, Control_c, 0, 64, 92
2,73050, Control_c, 0, 64, 127
2,73064, Note_on_c, 0, 67, 0
2,73117, Note_on_c, 0, 62, 0
2,73135, Note_on_c, 0, 71, 0
2,73427, Control_c, 0, 64, 110
2,73437, Note_on_c, 0, 71, 83
2,73439, Note_on_c, 0, 62, 82
2,73443, Control_c, 0, 64, 85
2,73443, Note_on_c, 0, 42, 72
2,73443, Note_on_c, 0, 67, 76
2,73458, Control_c, 0, 64, 68
2,73473, Control_c, 0, 64, 56
2,73488, Control_c, 0, 64, 57
2,73503, Control_c, 0, 64, 65
2,73519, Control_c, 0, 64, 74
2,73534, Control_c, 0, 64, 91
2,73549, Control_c, 0, 64, 127
2,73551, Note_on_c, 0, 62, 0
2,73593, Note_on_c, 0, 71, 0
2,73638, Note_on_c, 0, 67, 0
2,73705, Note_on_c, 0, 73, 90
2,73707, Note_on_c, 0, 64, 91
2,73708, Control_c, 0, 64, 108
2,73713, Note_on_c, 0, 40, 66
2,73714, Note_on_c, 0, 67, 80
2,73724, Control_c, 0, 64, 79
2,73739, Control_c, 0, 64, 62
2,73752, Note_on_c, 0, 42, 0
2,73755, Control_c, 0, 64, 0
2,73829, Control_c, 0, 64, 32
2,73846, Control_c, 0, 64, 48
2,73861, Control_c, 0, 64, 55
2,73877, Control_c, 0, 64, 60
2,73892, Control_c, 0, 64, 62
2,73907, Control_c, 0, 64, 65
2,73922, Control_c, 0, 64, 67
2,73937, Control_c, 0, 64, 71
2,73953, Control_c, 0, 64, 77
2,73968, Control_c, 0, 64, 88
2,73983, Control_c, 0, 64, 109
2,73998, Control_c, 0, 64, 127
2,74152, Note_on_c, 0, 64, 0
2,74164, Note_on_c, 0, 67, 0
2,74245, Note_on_c, 0, 73, 0
2,74506, Control_c, 0, 64, 113
2,74514, Note_on_c, 0, 74, 82
2,74515, Note_on_c, 0, 38, 72
2,74519, Note_on_c, 0, 69, 79
2,74522, Control_c, 0, 64, 86
2,74523, Note_on_c, 0, 66, 82
2,74537, Control_c, 0, 64, 69
2,74553, Control_c, 0, 64, 54
2,74556, Note_on_c, 0, 40, 0
2,74568, Control_c, 0, 64, 49
2,74582, Control_c, 0, 64, 59
2,74587, Note_on_c, 0, 74, 0
2,74598, Control_c, 0, 64, 66
2,74598, Note_on_c, 0, 69, 0
2,74613, Control_c, 0, 64, 73
2,74625, Note_on_c, 0, 66, 0
2,74628, Control_c, 0, 64, 84
2,74644, Control_c, 0, 64, 103
2,74659, Control_c, 0, 64, 127
2,74852, Note_on_c, 0, 66, 82
2,74855, Note_on_c, 0, 57, 80
2,74857, Note_on_c, 0, 62, 78
2,74860, Note_on_c, 0, 45, 67
2,74870, Control_c, 0, 64, 107
2,74883, Note_on_c, 0, 38, 0
2,74886, Control_c, 0, 64, 90
2,74900, Control_c, 0, 64, 75
2,74915, Control_c, 0, 64, 63
2,74931, Control_c, 0, 64, 46
2,74946, Control_c, 0, 64, 0
2,75227, Control_c, 0, 64, 16
2,75243, Control_c, 0, 64, 34
2,75257, Control_c, 0, 64, 43
2,75272, Control_c, 0, 64, 50
2,75288, Control_c, 0, 64, 54
2,75302, Control_c, 0, 64, 58
2,75318, Control_c, 0, 64, 61
2,75333, Control_c, 0, 64, 63
2,75348, Control_c, 0, 64, 67
2,75364, Control_c, 0, 64, 71
2,75379, Control_c, 0, 64, 77
2,75393, Control_c, 0, 64, 87
2,75409, Control_c, 0, 64, 100
2,75424, Control_c, 0, 64, 127
2,75457, Note_on_c, 0, 57, 0
2,75501, Note_on_c, 0, 62, 0
2,76025, Note_on_c, 0, 55, 58
2,76028, Note_on_c, 0, 64, 62
2,76032, Note_on_c, 0, 61, 54
2,76057, Control_c, 0, 64, 105
2,76071, Control_c, 0, 64, 92
2,76085, Note_on_c, 0, 66, 0
2,76087, Control_c, 0, 64, 82
2,76102, Control_c, 0, 64, 74
2,76118, Control_c, 0, 64, 68
2,76133, Control_c, 0, 64, 61
2,76147, Control_c, 0, 64, 52
2,76163, Control_c, 0, 64, 39
2,76178, Control_c, 0, 64, 27
2,76193, Control_c, 0, 64, 18
2,76209, Control_c, 0, 64, 11
2,76223, Control_c, 0, 64, 0
2,76254, Control_c, 0, 64, 16
2,76268, Control_c, 0, 64, 34
2,76284, Control_c, 0, 64, 47
2,76301, Control_c, 0, 64, 55
2,76316, Control_c, 0, 64, 59
2,76331, Control_c, 0, 64, 62
2,76346, Control_c, 0, 64, 64
2,76362, Control_c, 0, 64, 66
2,76376, Control_c, 0, 64, 68
2,76391, Control_c, 0, 64, 70
2,76407, Control_c, 0, 64, 74
2,76422, Control_c, 0, 64, 78
2,76438, Control_c, 0, 64, 86
2,76452, Control_c, 0, 64, 98
2,76467, Control_c, 0, 64, 119
2,76483, Control_c, 0, 64, 127
2,76633, Note_on_c, 0, 61, 0
2,76790, Note_on_c, 0, 55, 0
2,77500, Control_c, 0, 64, 107
2,77503, Note_on_c, 0, 62, 52
2,77512, Note_on_c, 0, 54, 43
2,77515, Control_c, 0, 64, 95
2,77518, Note_on_c, 0, 57, 45
2,77519, Note_on_c, 0, 38, 28
2,77519, Note_on_c, 0, 45, 0
2,77531, Control_c, 0, 64, 86
2,77546, Control_c, 0, 64, 79
2,77555, Note_on_c, 0, 64, 0
2,77562, Control_c, 0, 64, 73
2,77577, Control_c, 0, 64, 68
2,77592, Control_c, 0, 64, 64
2,77608, Control_c, 0, 64, 59
2,77622, Control_c, 0, 64, 55
2,77638, Control_c, 0, 64, 52
2,77653, Control_c, 0, 64, 49
2,77668, Control_c, 0, 64, 44
2,77681, Control_c, 0, 64, 39
2,77697, Control_c, 0, 64, 30
2,77711, Control_c, 0, 64, 21
2,77727, Control_c, 0, 64, 17
2,77736, Control_c, 0, 64, 17
2,77787, Control_c, 0, 64, 16
2,77847, Control_c, 0, 64, 17
2,77863, Control_c, 0, 64, 18
2,77878, Control_c, 0, 64, 19
2,77893, Control_c, 0, 64, 22
2,77908, Control_c, 0, 64, 27
2,77924, Control_c, 0, 64, 33
2,77940, Control_c, 0, 64, 38
2,77955, Control_c, 0, 64, 41
2,77969, Control_c, 0, 64, 42
2,77985, Control_c, 0, 64, 43
2,77996, Control_c, 0, 64, 46
2,78011, Control_c, 0, 64, 49
2,78027, Control_c, 0, 64, 52
2,78041, Control_c, 0, 64, 53
2,78056, Control_c, 0, 64, 54
2,78072, Control_c, 0, 64, 55
2,78087, Control_c, 0, 64, 57
2,78102, Control_c, 0, 64, 58
2,78117, Control_c, 0, 64, 60
2,78132, Control_c, 0, 64, 61
2,78148, Control_c, 0, 64, 62
2,78163, Control_c, 0, 64, 63
2,78178, Control_c, 0, 64, 63
2,78194, Control_c, 0, 64, 64
2,78209, Control_c, 0, 64, 65
2,78232, Control_c, 0, 64, 66
2,78246, Control_c, 0, 64, 67
2,78261, Control_c, 0, 64, 68
2,78277, Control_c, 0, 64, 70
2,78292, Control_c, 0, 64, 71
2,78308, Control_c, 0, 64, 72
2,78322, Control_c, 0, 64, 74
2,78337, Control_c, 0, 64, 75
2,78353, Control_c, 0, 64, 76
2,78368, Control_c, 0, 64, 77
2,78383, Control_c, 0, 64, 78
2,78399, Control_c, 0, 64, 78
2,78413, Control_c, 0, 64, 79
2,78429, Control_c, 0, 64, 80
2,78444, Control_c, 0, 64, 80
2,78459, Control_c, 0, 64, 81
2,78505, Control_c, 0, 64, 81
2,79000, Control_c, 0, 64, 81
2,79334, Control_c, 0, 64, 81
2,79654, Control_c, 0, 64, 81
2,79745, Control_c, 0, 64, 80
2,79799, Control_c, 0, 64, 80
2,79830, Control_c, 0, 64, 79
2,79844, Control_c, 0, 64, 78
2,79859, Control_c, 0, 64, 78
2,79890, Control_c, 0, 64, 77
2,79905, Control_c, 0, 64, 76
2,79921, Control_c, 0, 64, 76
2,79935, Control_c, 0, 64, 75
2,79951, Control_c, 0, 64, 74
2,79966, Control_c, 0, 64, 74
2,79981, Control_c, 0, 64, 73
2,79989, Note_on_c, 0, 57, 0
2,79996, Control_c, 0, 64, 72
2,80002, Note_on_c, 0, 54, 0
2,80011, Control_c, 0, 64, 70
2,80027, Control_c, 0, 64, 69
2,80027, Note_on_c, 0, 38, 0
2,80039, Note_on_c, 0, 62, 0
2,80042, Control_c, 0, 64, 68
2,80057, Control_c, 0, 64, 66
2,80072, Control_c, 0, 64, 65
2,80087, Control_c, 0, 64, 63
2,80102, Control_c, 0, 64, 61
2,80118, Control_c, 0, 64, 59
2,80133, Control_c, 0, 64, 58
2,80148, Control_c, 0, 64, 57
2,80163, Control_c, 0, 64, 55
2,80178, Control_c, 0, 64, 52
2,80193, Control_c, 0, 64, 50
2,80208, Control_c, 0, 64, 47
2,80223, Control_c, 0, 64, 46
2,80239, Control_c, 0, 64, 45
2,80254, Control_c, 0, 64, 43
2,80270, Control_c, 0, 64, 40
2,80285, Control_c, 0, 64, 36
2,80300, Control_c, 0, 64, 33
2,80316, Control_c, 0, 64, 31
2,80330, Control_c, 0, 64, 30
2,80345, Control_c, 0, 64, 27
2,80361, Control_c, 0, 64, 23
2,80376, Control_c, 0, 64, 16
2,80392, Control_c, 0, 64, 0
2,80750, Control_c, 0, 64, 9
2,80765, Control_c, 0, 64, 13
2,80779, Control_c, 0, 64, 16
2,80795, Control_c, 0, 64, 17
2,80825, Control_c, 0, 64, 18
2,80840, Control_c, 0, 64, 21
2,80841, End_track
0, 0, End_of_file
