0, 0, Header, 1, 2, 384
1, 0, Start_track
1, 0, Tempo, 500000
1, 0, Time_signature, 4, 2, 24, 8
1, 1, End_track
2, 0, Start_track
2, 0, Program_c, 0, 0
2, 0, Control_c, 0, 64, 0
2, 0, Control_c, 0, 67, 127
2, 164, Note_on_c, 0, 50, 57
2, 197, Note_on_c, 0, 50, 0
2, 251, Note_on_c, 0, 74, 53
2, 331, Note_on_c, 0, 74, 0
2, 335, Note_on_c, 0, 76, 55
2, 417, Note_on_c, 0, 76, 0
2, 420, Note_on_c, 0, 78, 58
2, 467, Note_on_c, 0, 78, 0
2, 497, Note_on_c, 0, 69, 62
2, 499, Note_on_c, 0, 62, 50
2, 528, Control_c, 0, 67, 117
2, 532, Note_on_c, 0, 62, 0
2, 543, Control_c, 0, 67, 102
2, 559, Control_c, 0, 67, 83
2, 574, Control_c, 0, 67, 63
2, 580, Note_on_c, 0, 78, 60
2, 582, Note_on_c, 0, 69, 0
2, 589, Control_c, 0, 67, 45
2, 604, Control_c, 0, 67, 29
2, 619, Control_c, 0, 67, 22
2, 635, Control_c, 0, 67, 16
2, 649, Control_c, 0, 67, 9
2, 650, Note_on_c, 0, 76, 57
2, 661, Note_on_c, 0, 78, 0
2, 665, Control_c, 0, 67, 0
2, 714, Note_on_c, 0, 76, 0
2, 738, Note_on_c, 0, 74, 51
2, 783, Note_on_c, 0, 74, 0
2, 802, Note_on_c, 0, 54, 50
2, 805, Note_on_c, 0, 81, 63
2, 835, Note_on_c, 0, 54, 0
2, 870, Note_on_c, 0, 81, 0
2, 897, Note_on_c, 0, 74, 56
2, 958, Note_on_c, 0, 74, 0
2, 976, Note_on_c, 0, 76, 48
2, 1041, Note_on_c, 0, 76, 0
2, 1047, Note_on_c, 0, 78, 60
2, 1099, Note_on_c, 0, 78, 0
2, 1124, Note_on_c, 0, 62, 46
2, 1132, Note_on_c, 0, 69, 61
2, 1157, Note_on_c, 0, 62, 0
2, 1215, Note_on_c, 0, 69, 0
2, 1221, Note_on_c, 0, 78, 60
2, 1298, Note_on_c, 0, 76, 56
2, 1306, Note_on_c, 0, 78, 0
2, 1350, Note_on_c, 0, 76, 0
2, 1365, Note_on_c, 0, 74, 54
2, 1419, Note_on_c, 0, 74, 0
2, 1430, Note_on_c, 0, 52, 49
2, 1444, Note_on_c, 0, 79, 62
2, 1462, Note_on_c, 0, 52, 0
2, 1514, Note_on_c, 0, 79, 0
2, 1537, Note_on_c, 0, 76, 50
2, 1603, Note_on_c, 0, 76, 0
2, 1603, Note_on_c, 0, 78, 61
2, 1680, Note_on_c, 0, 79, 54
2, 1686, Note_on_c, 0, 78, 0
2, 1730, Note_on_c, 0, 79, 0
2, 1759, Note_on_c, 0, 71, 52
2, 1765, Note_on_c, 0, 62, 41
2, 1802, Note_on_c, 0, 62, 0
2, 1826, Note_on_c, 0, 74, 54
2, 1833, Note_on_c, 0, 71, 0
2, 1891, Note_on_c, 0, 74, 0
2, 1912, Note_on_c, 0, 73, 57
2, 1969, Note_on_c, 0, 73, 0
2, 1993, Note_on_c, 0, 71, 58
2, 2075, Note_on_c, 0, 71, 0
2, 2086, Note_on_c, 0, 57, 44
2, 2090, Note_on_c, 0, 73, 58
2, 2131, Note_on_c, 0, 57, 0
2, 2149, Note_on_c, 0, 73, 0
2, 2151, Note_on_c, 0, 76, 55
2, 2233, Note_on_c, 0, 78, 62
2, 2242, Note_on_c, 0, 76, 0
2, 2302, Note_on_c, 0, 79, 53
2, 2322, Note_on_c, 0, 78, 0
2, 2360, Note_on_c, 0, 79, 0
2, 2398, Note_on_c, 0, 69, 60
2, 2400, Note_on_c, 0, 61, 48
2, 2435, Note_on_c, 0, 61, 0
2, 2475, Note_on_c, 0, 79, 62
2, 2479, Note_on_c, 0, 69, 0
2, 2547, Note_on_c, 0, 79, 0
2, 2548, Note_on_c, 0, 78, 59
2, 2612, Note_on_c, 0, 78, 0
2, 2622, Note_on_c, 0, 76, 59
2, 2713, Note_on_c, 0, 78, 69
2, 2716, Note_on_c, 0, 76, 0
2, 2731, Note_on_c, 0, 50, 35
2, 2765, Note_on_c, 0, 50, 0
2, 2786, Note_on_c, 0, 78, 0
2, 2799, Note_on_c, 0, 74, 62
2, 2887, Note_on_c, 0, 74, 0
2, 2891, Note_on_c, 0, 76, 62
2, 2960, Note_on_c, 0, 76, 0
2, 2967, Note_on_c, 0, 78, 64
2, 3015, Note_on_c, 0, 78, 0
2, 3055, Note_on_c, 0, 62, 43
2, 3057, Note_on_c, 0, 69, 52
2, 3093, Note_on_c, 0, 62, 0
2, 3128, Note_on_c, 0, 69, 0
2, 3129, Note_on_c, 0, 73, 51
2, 3216, Note_on_c, 0, 73, 0
2, 3218, Note_on_c, 0, 71, 58
2, 3274, Note_on_c, 0, 71, 0
2, 3309, Note_on_c, 0, 69, 51
2, 3367, Note_on_c, 0, 69, 0
2, 3377, Note_on_c, 0, 50, 35
2, 3388, Note_on_c, 0, 71, 60
2, 3422, Note_on_c, 0, 50, 0
2, 3460, Note_on_c, 0, 74, 61
2, 3461, Note_on_c, 0, 71, 0
2, 3543, Note_on_c, 0, 76, 62
2, 3561, Note_on_c, 0, 74, 0
2, 3631, Note_on_c, 0, 76, 0
2, 3631, Note_on_c, 0, 78, 64
2, 3689, Note_on_c, 0, 78, 0
2, 3706, Note_on_c, 0, 62, 51
2, 3714, Note_on_c, 0, 71, 64
2, 3740, Note_on_c, 0, 62, 0
2, 3794, Note_on_c, 0, 81, 65
2, 3800, Note_on_c, 0, 71, 0
2, 3872, Note_on_c, 0, 80, 64
2, 3881, Note_on_c, 0, 81, 0
2, 3939, Note_on_c, 0, 80, 0
2, 3942, Note_on_c, 0, 78, 69
2, 4033, Note_on_c, 0, 50, 57
2, 4033, Note_on_c, 0, 80, 72
2, 4037, Note_on_c, 0, 78, 0
2, 4065, Note_on_c, 0, 50, 0
2, 4095, Note_on_c, 0, 80, 0
2, 4112, Note_on_c, 0, 76, 65
2, 4177, Control_c, 0, 64, 11
2, 4187, Note_on_c, 0, 78, 64
2, 4193, Control_c, 0, 64, 12
2, 4193, Note_on_c, 0, 76, 0
2, 4208, Control_c, 0, 64, 13
2, 4285, Note_on_c, 0, 80, 59
2, 4292, Control_c, 0, 64, 15
2, 4297, Note_on_c, 0, 78, 0
2, 4342, Note_on_c, 0, 80, 0
2, 4365, Note_on_c, 0, 56, 55
2, 4377, Note_on_c, 0, 71, 59
2, 4383, Control_c, 0, 64, 16
2, 4413, Note_on_c, 0, 56, 0
2, 4462, Note_on_c, 0, 74, 56
2, 4465, Note_on_c, 0, 71, 0
2, 4530, Note_on_c, 0, 73, 62
2, 4551, Control_c, 0, 64, 17
2, 4551, Note_on_c, 0, 74, 0
2, 4605, Note_on_c, 0, 73, 0
2, 4614, Note_on_c, 0, 71, 59
2, 4670, Note_on_c, 0, 71, 0
2, 4685, Note_on_c, 0, 49, 50
2, 4698, Note_on_c, 0, 69, 58
2, 4734, Note_on_c, 0, 49, 0
2, 4758, Note_on_c, 0, 69, 0
2, 4765, Note_on_c, 0, 73, 60
2, 4847, Note_on_c, 0, 73, 0
2, 4865, Note_on_c, 0, 74, 57
2, 4941, Note_on_c, 0, 74, 0
2, 4948, Note_on_c, 0, 76, 63
2, 5007, Note_on_c, 0, 76, 0
2, 5028, Note_on_c, 0, 66, 52
2, 5035, Note_on_c, 0, 57, 46
2, 5063, Note_on_c, 0, 57, 0
2, 5100, Note_on_c, 0, 66, 0
2, 5114, Note_on_c, 0, 76, 57
2, 5176, Note_on_c, 0, 76, 0
2, 5182, Note_on_c, 0, 74, 61
2, 5256, Note_on_c, 0, 74, 0
2, 5272, Note_on_c, 0, 73, 59
2, 5338, Note_on_c, 0, 47, 43
2, 5346, Note_on_c, 0, 73, 0
2, 5349, Note_on_c, 0, 74, 62
2, 5374, Note_on_c, 0, 47, 0
2, 5416, Note_on_c, 0, 74, 0
2, 5431, Note_on_c, 0, 71, 57
2, 5503, Note_on_c, 0, 71, 0
2, 5505, Note_on_c, 0, 73, 55
2, 5599, Note_on_c, 0, 73, 0
2, 5599, Note_on_c, 0, 74, 62
2, 5641, Note_on_c, 0, 74, 0
2, 5676, Note_on_c, 0, 57, 52
2, 5682, Note_on_c, 0, 66, 55
2, 5708, Note_on_c, 0, 57, 0
2, 5746, Note_on_c, 0, 66, 0
2, 5777, Note_on_c, 0, 69, 53
2, 5846, Note_on_c, 0, 69, 0
2, 5858, Note_on_c, 0, 68, 60
2, 5911, Note_on_c, 0, 68, 0
2, 5938, Note_on_c, 0, 66, 56
2, 6013, Note_on_c, 0, 66, 0
2, 6018, Note_on_c, 0, 52, 46
2, 6028, Note_on_c, 0, 68, 63
2, 6054, Note_on_c, 0, 52, 0
2, 6100, Note_on_c, 0, 68, 0
2, 6100, Note_on_c, 0, 71, 60
2, 6180, Note_on_c, 0, 73, 59
2, 6190, Note_on_c, 0, 71, 0
2, 6258, Note_on_c, 0, 74, 63
2, 6263, Note_on_c, 0, 73, 0
2, 6309, Note_on_c, 0, 74, 0
2, 6342, Note_on_c, 0, 64, 57
2, 6345, Note_on_c, 0, 56, 50
2, 6382, Note_on_c, 0, 56, 0
2, 6421, Note_on_c, 0, 64, 0
2, 6430, Note_on_c, 0, 74, 55
2, 6501, Note_on_c, 0, 73, 57
2, 6534, Note_on_c, 0, 74, 0
2, 6577, Note_on_c, 0, 73, 0
2, 6590, Note_on_c, 0, 71, 58
2, 6681, Note_on_c, 0, 45, 42
2, 6684, Note_on_c, 0, 71, 0
2, 6686, Note_on_c, 0, 73, 64
2, 6713, Note_on_c, 0, 45, 0
2, 6757, Note_on_c, 0, 73, 0
2, 6771, Note_on_c, 0, 69, 56
2, 6831, Note_on_c, 0, 69, 0
2, 6852, Note_on_c, 0, 71, 50
2, 6921, Note_on_c, 0, 73, 57
2, 6923, Note_on_c, 0, 71, 0
2, 6978, Note_on_c, 0, 73, 0
2, 7026, Note_on_c, 0, 64, 49
2, 7030, Note_on_c, 0, 57, 40
2, 7068, Note_on_c, 0, 57, 0
2, 7107, Note_on_c, 0, 67, 49
2, 7115, Note_on_c, 0, 64, 0
2, 7171, Note_on_c, 0, 67, 0
2, 7192, Note_on_c, 0, 66, 55
2, 7241, Note_on_c, 0, 66, 0
2, 7266, Note_on_c, 0, 64, 50
2, 7351, Note_on_c, 0, 45, 40
2, 7363, Note_on_c, 0, 64, 0
2, 7365, Note_on_c, 0, 66, 57
2, 7398, Note_on_c, 0, 45, 0
2, 7440, Note_on_c, 0, 69, 57
2, 7455, Note_on_c, 0, 66, 0
2, 7514, Note_on_c, 0, 71, 62
2, 7531, Note_on_c, 0, 69, 0
2, 7600, Note_on_c, 0, 71, 0
2, 7600, Note_on_c, 0, 73, 63
2, 7645, Note_on_c, 0, 73, 0
2, 7676, Note_on_c, 0, 57, 57
2, 7680, Note_on_c, 0, 66, 64
2, 7712, Note_on_c, 0, 57, 0
2, 7755, Note_on_c, 0, 76, 69
2, 7836, Note_on_c, 0, 75, 64
2, 7840, Note_on_c, 0, 66, 0
2, 7862, Note_on_c, 0, 76, 0
2, 7911, Note_on_c, 0, 73, 65
2, 7911, Note_on_c, 0, 75, 0
2, 7986, Note_on_c, 0, 45, 50
2, 7996, Note_on_c, 0, 75, 74
2, 8018, Note_on_c, 0, 73, 0
2, 8025, Note_on_c, 0, 45, 0
2, 8078, Note_on_c, 0, 71, 64
2, 8080, Note_on_c, 0, 75, 0
2, 8116, Control_c, 0, 64, 17
2, 8151, Note_on_c, 0, 73, 66
2, 8156, Note_on_c, 0, 71, 0
2, 8162, Control_c, 0, 64, 18
2, 8176, Control_c, 0, 64, 20
2, 8192, Control_c, 0, 64, 24
2, 8207, Control_c, 0, 64, 25
2, 8222, Control_c, 0, 64, 25
2, 8239, Note_on_c, 0, 75, 69
2, 8246, Note_on_c, 0, 73, 0
2, 8268, Control_c, 0, 64, 26
2, 8283, Control_c, 0, 64, 27
2, 8294, Note_on_c, 0, 75, 0
2, 8318, Note_on_c, 0, 51, 56
2, 8326, Note_on_c, 0, 66, 63
2, 8345, Control_c, 0, 64, 27
2, 8360, Note_on_c, 0, 66, 0
2, 8363, Note_on_c, 0, 51, 0
2, 8418, Note_on_c, 0, 69, 59
2, 8490, Note_on_c, 0, 67, 63
2, 8497, Control_c, 0, 64, 28
2, 8505, Note_on_c, 0, 69, 0
2, 8565, Note_on_c, 0, 67, 0
2, 8573, Note_on_c, 0, 66, 62
2, 8643, Note_on_c, 0, 66, 0
2, 8654, Note_on_c, 0, 43, 34
2, 8659, Note_on_c, 0, 64, 61
2, 8679, Control_c, 0, 64, 27
2, 8692, Note_on_c, 0, 43, 0
2, 8694, Control_c, 0, 64, 27
2, 8710, Control_c, 0, 64, 25
2, 8724, Control_c, 0, 64, 24
2, 8727, Note_on_c, 0, 64, 0
2, 8738, Note_on_c, 0, 67, 60
2, 8739, Control_c, 0, 64, 23
2, 8755, Control_c, 0, 64, 23
2, 8770, Control_c, 0, 64, 22
2, 8786, Control_c, 0, 64, 21
2, 8800, Control_c, 0, 64, 21
2, 8815, Control_c, 0, 64, 20
2, 8818, Note_on_c, 0, 67, 0
2, 8818, Note_on_c, 0, 69, 62
2, 8910, Note_on_c, 0, 69, 0
2, 8922, Note_on_c, 0, 71, 60
2, 8953, Note_on_c, 0, 71, 0
2, 8980, Note_on_c, 0, 52, 42
2, 8987, Note_on_c, 0, 61, 55
2, 9036, Note_on_c, 0, 52, 0
2, 9040, Note_on_c, 0, 61, 0
2, 9063, Note_on_c, 0, 74, 65
2, 9153, Note_on_c, 0, 73, 55
2, 9163, Note_on_c, 0, 74, 0
2, 9226, Note_on_c, 0, 71, 61
2, 9261, Note_on_c, 0, 73, 0
2, 9295, Note_on_c, 0, 42, 49
2, 9320, Note_on_c, 0, 70, 59
2, 9335, Note_on_c, 0, 71, 0
2, 9355, Note_on_c, 0, 42, 0
2, 9373, Note_on_c, 0, 70, 0
2, 9399, Note_on_c, 0, 64, 53
2, 9482, Note_on_c, 0, 66, 49
2, 9484, Note_on_c, 0, 64, 0
2, 9522, Control_c, 0, 64, 21
2, 9537, Control_c, 0, 64, 22
2, 9548, Note_on_c, 0, 67, 57
2, 9549, Note_on_c, 0, 66, 0
2, 9553, Control_c, 0, 64, 23
2, 9568, Control_c, 0, 64, 24
2, 9582, Control_c, 0, 64, 25
2, 9606, Control_c, 0, 64, 25
2, 9619, Note_on_c, 0, 67, 0
2, 9621, Control_c, 0, 64, 26
2, 9637, Control_c, 0, 64, 26
2, 9652, Control_c, 0, 64, 27
2, 9654, Note_on_c, 0, 61, 59
2, 9660, Note_on_c, 0, 54, 50
2, 9682, Control_c, 0, 64, 27
2, 9700, Note_on_c, 0, 54, 0
2, 9723, Note_on_c, 0, 61, 0
2, 9726, Note_on_c, 0, 67, 53
2, 9810, Note_on_c, 0, 66, 61
2, 9820, Note_on_c, 0, 67, 0
2, 9834, Control_c, 0, 64, 27
2, 9849, Control_c, 0, 64, 25
2, 9865, Control_c, 0, 64, 24
2, 9879, Control_c, 0, 64, 23
2, 9891, Note_on_c, 0, 64, 58
2, 9895, Note_on_c, 0, 66, 0
2, 9910, Control_c, 0, 64, 22
2, 9925, Control_c, 0, 64, 21
2, 9947, Note_on_c, 0, 64, 0
2, 9983, Note_on_c, 0, 42, 45
2, 9983, Note_on_c, 0, 62, 58
2, 10037, Note_on_c, 0, 42, 0
2, 10049, Note_on_c, 0, 62, 0
2, 10077, Note_on_c, 0, 71, 45
2, 10143, Note_on_c, 0, 73, 60
2, 10155, Note_on_c, 0, 71, 0
2, 10230, Note_on_c, 0, 73, 0
2, 10237, Note_on_c, 0, 74, 58
2, 10280, Note_on_c, 0, 74, 0
2, 10305, Note_on_c, 0, 66, 57
2, 10323, Note_on_c, 0, 54, 43
2, 10357, Note_on_c, 0, 66, 0
2, 10360, Note_on_c, 0, 54, 0
2, 10393, Note_on_c, 0, 69, 63
2, 10436, Control_c, 0, 64, 21
2, 10465, Note_on_c, 0, 68, 66
2, 10474, Note_on_c, 0, 69, 0
2, 10539, Note_on_c, 0, 68, 0
2, 10542, Control_c, 0, 64, 20
2, 10542, Note_on_c, 0, 66, 63
2, 10600, Note_on_c, 0, 66, 0
2, 10620, Note_on_c, 0, 42, 39
2, 10623, Note_on_c, 0, 65, 62
2, 10674, Note_on_c, 0, 42, 0
2, 10694, Control_c, 0, 64, 19
2, 10700, Note_on_c, 0, 65, 0
2, 10702, Note_on_c, 0, 68, 62
2, 10779, Note_on_c, 0, 69, 64
2, 10799, Note_on_c, 0, 68, 0
2, 10857, Note_on_c, 0, 69, 0
2, 10865, Note_on_c, 0, 71, 66
2, 10907, Control_c, 0, 64, 18
2, 10908, Note_on_c, 0, 71, 0
2, 10937, Control_c, 0, 64, 17
2, 10951, Note_on_c, 0, 65, 63
2, 10959, Note_on_c, 0, 54, 50
2, 10998, Note_on_c, 0, 54, 0
2, 11018, Note_on_c, 0, 65, 0
2, 11033, Note_on_c, 0, 74, 72
2, 11075, Control_c, 0, 64, 17
2, 11112, Note_on_c, 0, 74, 0
2, 11119, Note_on_c, 0, 73, 70
2, 11171, Note_on_c, 0, 73, 0
2, 11188, Note_on_c, 0, 71, 75
2, 11263, Note_on_c, 0, 42, 49
2, 11270, Note_on_c, 0, 80, 76
2, 11273, Note_on_c, 0, 71, 0
2, 11325, Note_on_c, 0, 42, 0
2, 11352, Note_on_c, 0, 77, 74
2, 11354, Note_on_c, 0, 80, 0
2, 11440, Note_on_c, 0, 78, 76
2, 11465, Note_on_c, 0, 77, 0
2, 11513, Note_on_c, 0, 80, 74
2, 11524, Note_on_c, 0, 78, 0
2, 11593, Note_on_c, 0, 80, 0
2, 11603, Note_on_c, 0, 73, 74
2, 11611, Note_on_c, 0, 54, 43
2, 11659, Note_on_c, 0, 54, 0
2, 11673, Note_on_c, 0, 83, 70
2, 11691, Control_c, 0, 64, 17
2, 11713, Note_on_c, 0, 73, 0
2, 11759, Note_on_c, 0, 83, 0
2, 11766, Note_on_c, 0, 81, 65
2, 11840, Note_on_c, 0, 80, 66
2, 11842, Note_on_c, 0, 81, 0
2, 11875, Control_c, 0, 64, 18
2, 11936, Note_on_c, 0, 42, 38
2, 11949, Note_on_c, 0, 81, 69
2, 11960, Note_on_c, 0, 80, 0
2, 12009, Note_on_c, 0, 42, 0
2, 12025, Note_on_c, 0, 81, 0
2, 12028, Note_on_c, 0, 78, 67
2, 12095, Control_c, 0, 64, 19
2, 12105, Note_on_c, 0, 78, 0
2, 12107, Note_on_c, 0, 80, 64
2, 12156, Control_c, 0, 64, 20
2, 12193, Note_on_c, 0, 80, 0
2, 12194, Note_on_c, 0, 81, 59
2, 12202, Control_c, 0, 64, 21
2, 12218, Control_c, 0, 64, 21
2, 12251, Note_on_c, 0, 81, 0
2, 12263, Control_c, 0, 64, 22
2, 12270, Note_on_c, 0, 73, 59
2, 12289, Note_on_c, 0, 54, 47
2, 12293, Control_c, 0, 64, 23
2, 12338, Note_on_c, 0, 54, 0
2, 12348, Note_on_c, 0, 73, 0
2, 12358, Note_on_c, 0, 76, 54
2, 12384, Control_c, 0, 64, 23
2, 12430, Note_on_c, 0, 76, 0
2, 12446, Note_on_c, 0, 75, 59
2, 12475, Control_c, 0, 64, 24
2, 12492, Note_on_c, 0, 75, 0
2, 12519, Note_on_c, 0, 73, 53
2, 12605, Note_on_c, 0, 73, 0
2, 12612, Note_on_c, 0, 75, 64
2, 12620, Note_on_c, 0, 47, 42
2, 12654, Note_on_c, 0, 47, 0
2, 12691, Note_on_c, 0, 78, 63
2, 12694, Note_on_c, 0, 75, 0
2, 12778, Note_on_c, 0, 79, 54
2, 12787, Note_on_c, 0, 78, 0
2, 12833, Control_c, 0, 64, 24
2, 12843, Note_on_c, 0, 79, 0
2, 12850, Note_on_c, 0, 81, 58
2, 12878, Control_c, 0, 64, 25
2, 12893, Control_c, 0, 64, 26
2, 12906, Note_on_c, 0, 81, 0
2, 12909, Control_c, 0, 64, 27
2, 12924, Control_c, 0, 64, 27
2, 12927, Note_on_c, 0, 71, 59
2, 12935, Note_on_c, 0, 51, 52
2, 12940, Control_c, 0, 64, 28
2, 12954, Control_c, 0, 64, 30
2, 12969, Control_c, 0, 64, 31
2, 12974, Note_on_c, 0, 51, 0
2, 12985, Control_c, 0, 64, 31
2, 13000, Control_c, 0, 64, 32
2, 13003, Note_on_c, 0, 81, 58
2, 13015, Control_c, 0, 64, 32
2, 13015, Note_on_c, 0, 71, 0
2, 13082, Note_on_c, 0, 81, 0
2, 13094, Note_on_c, 0, 79, 53
2, 13122, Control_c, 0, 64, 33
2, 13159, Note_on_c, 0, 79, 0
2, 13168, Note_on_c, 0, 78, 60
2, 13265, Note_on_c, 0, 79, 65
2, 13266, Note_on_c, 0, 78, 0
2, 13270, Note_on_c, 0, 40, 54
2, 13304, Note_on_c, 0, 40, 0
2, 13327, Note_on_c, 0, 79, 0
2, 13343, Note_on_c, 0, 76, 56
2, 13409, Note_on_c, 0, 76, 0
2, 13421, Note_on_c, 0, 78, 60
2, 13523, Note_on_c, 0, 79, 58
2, 13524, Note_on_c, 0, 78, 0
2, 13587, Note_on_c, 0, 79, 0
2, 13607, Note_on_c, 0, 71, 58
2, 13611, Note_on_c, 0, 52, 52
2, 13648, Note_on_c, 0, 52, 0
2, 13687, Note_on_c, 0, 71, 0
2, 13688, Note_on_c, 0, 74, 58
2, 13760, Note_on_c, 0, 74, 0
2, 13773, Note_on_c, 0, 72, 62
2, 13832, Note_on_c, 0, 72, 0
2, 13855, Note_on_c, 0, 71, 53
2, 13933, Note_on_c, 0, 40, 41
2, 13934, Note_on_c, 0, 71, 0
2, 13949, Note_on_c, 0, 72, 57
2, 13975, Note_on_c, 0, 40, 0
2, 14009, Note_on_c, 0, 72, 0
2, 14015, Note_on_c, 0, 75, 61
2, 14094, Note_on_c, 0, 76, 60
2, 14103, Note_on_c, 0, 75, 0
2, 14183, Note_on_c, 0, 76, 0
2, 14186, Note_on_c, 0, 78, 64
2, 14233, Control_c, 0, 64, 33
2, 14259, Note_on_c, 0, 78, 0
2, 14266, Note_on_c, 0, 69, 61
2, 14281, Note_on_c, 0, 51, 48
2, 14315, Note_on_c, 0, 51, 0
2, 14352, Note_on_c, 0, 69, 0
2, 14352, Note_on_c, 0, 72, 60
2, 14437, Note_on_c, 0, 71, 57
2, 14492, Note_on_c, 0, 72, 0
2, 14506, Note_on_c, 0, 71, 0
2, 14515, Note_on_c, 0, 69, 61
2, 14564, Note_on_c, 0, 69, 0
2, 14594, Note_on_c, 0, 40, 52
2, 14594, Note_on_c, 0, 67, 64
2, 14630, Note_on_c, 0, 40, 0
2, 14655, Note_on_c, 0, 67, 0
2, 14678, Note_on_c, 0, 76, 65
2, 14767, Note_on_c, 0, 78, 64
2, 14780, Note_on_c, 0, 76, 0
2, 14852, Note_on_c, 0, 79, 63
2, 14871, Note_on_c, 0, 78, 0
2, 14911, Note_on_c, 0, 79, 0
2, 14921, Note_on_c, 0, 52, 44
2, 14925, Note_on_c, 0, 71, 62
2, 14960, Note_on_c, 0, 52, 0
2, 15009, Note_on_c, 0, 74, 63
2, 15010, Note_on_c, 0, 71, 0
2, 15081, Note_on_c, 0, 74, 0
2, 15090, Note_on_c, 0, 73, 65
2, 15147, Note_on_c, 0, 73, 0
2, 15169, Note_on_c, 0, 71, 64
2, 15249, Note_on_c, 0, 45, 47
2, 15260, Note_on_c, 0, 71, 0
2, 15268, Note_on_c, 0, 73, 67
2, 15295, Note_on_c, 0, 45, 0
2, 15335, Note_on_c, 0, 73, 0
2, 15342, Note_on_c, 0, 76, 61
2, 15420, Note_on_c, 0, 78, 64
2, 15433, Note_on_c, 0, 76, 0
2, 15496, Note_on_c, 0, 79, 62
2, 15510, Note_on_c, 0, 78, 0
2, 15558, Note_on_c, 0, 79, 0
2, 15586, Note_on_c, 0, 49, 48
2, 15590, Note_on_c, 0, 69, 63
2, 15624, Note_on_c, 0, 49, 0
2, 15669, Note_on_c, 0, 79, 64
2, 15672, Note_on_c, 0, 69, 0
2, 15755, Note_on_c, 0, 79, 0
2, 15759, Note_on_c, 0, 78, 58
2, 15826, Note_on_c, 0, 78, 0
2, 15833, Note_on_c, 0, 76, 62
2, 15890, Control_c, 0, 64, 34
2, 15906, Control_c, 0, 64, 34
2, 15917, Note_on_c, 0, 38, 35
2, 15921, Control_c, 0, 64, 35
2, 15929, Note_on_c, 0, 76, 0
2, 15929, Note_on_c, 0, 78, 71
2, 15935, Control_c, 0, 64, 35
2, 15956, Note_on_c, 0, 38, 0
2, 15981, Control_c, 0, 64, 36
2, 15996, Control_c, 0, 64, 36
2, 15999, Note_on_c, 0, 78, 0
2, 16011, Note_on_c, 0, 74, 59
2, 16042, Control_c, 0, 64, 37
2, 16094, Note_on_c, 0, 76, 58
2, 16109, Note_on_c, 0, 74, 0
2, 16133, Control_c, 0, 64, 37
2, 16164, Control_c, 0, 64, 38
2, 16178, Note_on_c, 0, 78, 68
2, 16184, Note_on_c, 0, 76, 0
2, 16241, Note_on_c, 0, 78, 0
2, 16248, Note_on_c, 0, 50, 47
2, 16266, Note_on_c, 0, 69, 57
2, 16282, Note_on_c, 0, 50, 0
2, 16330, Control_c, 0, 64, 38
2, 16331, Note_on_c, 0, 69, 0
2, 16349, Note_on_c, 0, 72, 59
2, 16415, Note_on_c, 0, 71, 65
2, 16421, Control_c, 0, 64, 39
2, 16429, Note_on_c, 0, 72, 0
2, 16451, Control_c, 0, 64, 39
2, 16479, Note_on_c, 0, 71, 0
2, 16481, Control_c, 0, 64, 40
2, 16503, Note_on_c, 0, 69, 62
2, 16550, Control_c, 0, 64, 40
2, 16573, Note_on_c, 0, 69, 0
2, 16586, Note_on_c, 0, 71, 66
2, 16590, Note_on_c, 0, 38, 47
2, 16616, Note_on_c, 0, 71, 0
2, 16627, Note_on_c, 0, 38, 0
2, 16656, Control_c, 0, 64, 41
2, 16665, Note_on_c, 0, 67, 58
2, 16712, Note_on_c, 0, 67, 0
2, 16745, Note_on_c, 0, 69, 60
2, 16786, Note_on_c, 0, 69, 0
2, 16838, Note_on_c, 0, 71, 60
2, 16839, Control_c, 0, 64, 41
2, 16873, Note_on_c, 0, 71, 0
2, 16900, Control_c, 0, 64, 42
2, 16911, Note_on_c, 0, 50, 48
2, 16912, Note_on_c, 0, 61, 65
2, 16946, Control_c, 0, 64, 42
2, 16947, Note_on_c, 0, 50, 0
2, 16981, Note_on_c, 0, 61, 0
2, 16991, Note_on_c, 0, 71, 57
2, 17055, Note_on_c, 0, 71, 0
2, 17067, Control_c, 0, 64, 43
2, 17067, Note_on_c, 0, 69, 61
2, 17152, Note_on_c, 0, 67, 60
2, 17160, Note_on_c, 0, 69, 0
2, 17232, Note_on_c, 0, 67, 0
2, 17242, Note_on_c, 0, 66, 59
2, 17258, Note_on_c, 0, 38, 41
2, 17302, Note_on_c, 0, 38, 0
2, 17305, Note_on_c, 0, 66, 0
2, 17331, Note_on_c, 0, 62, 53
2, 17402, Note_on_c, 0, 62, 0
2, 17413, Note_on_c, 0, 64, 54
2, 17475, Note_on_c, 0, 64, 0
2, 17491, Note_on_c, 0, 66, 57
2, 17532, Note_on_c, 0, 66, 0
2, 17583, Note_on_c, 0, 50, 49
2, 17584, Note_on_c, 0, 57, 60
2, 17621, Note_on_c, 0, 50, 0
2, 17658, Note_on_c, 0, 57, 0
2, 17666, Note_on_c, 0, 60, 51
2, 17725, Note_on_c, 0, 60, 0
2, 17744, Note_on_c, 0, 59, 61
2, 17788, Note_on_c, 0, 59, 0
2, 17825, Note_on_c, 0, 57, 52
2, 17893, Note_on_c, 0, 57, 0
2, 17907, Note_on_c, 0, 38, 39
2, 17914, Note_on_c, 0, 59, 56
2, 17944, Note_on_c, 0, 38, 0
2, 17990, Note_on_c, 0, 62, 54
2, 17991, Note_on_c, 0, 59, 0
2, 18081, Note_on_c, 0, 64, 59
2, 18092, Note_on_c, 0, 62, 0
2, 18160, Note_on_c, 0, 64, 0
2, 18165, Note_on_c, 0, 66, 58
2, 18212, Note_on_c, 0, 66, 0
2, 18234, Note_on_c, 0, 50, 52
2, 18246, Note_on_c, 0, 59, 56
2, 18270, Note_on_c, 0, 50, 0
2, 18317, Note_on_c, 0, 69, 65
2, 18339, Note_on_c, 0, 59, 0
2, 18396, Note_on_c, 0, 69, 0
2, 18399, Note_on_c, 0, 68, 60
2, 18467, Note_on_c, 0, 66, 60
2, 18467, Note_on_c, 0, 68, 0
2, 18567, Note_on_c, 0, 68, 62
2, 18578, Note_on_c, 0, 66, 0
2, 18589, Note_on_c, 0, 38, 21
2, 18630, Note_on_c, 0, 68, 0
2, 18636, Note_on_c, 0, 38, 0
2, 18639, Note_on_c, 0, 64, 57
2, 18716, Note_on_c, 0, 66, 59
2, 18723, Note_on_c, 0, 64, 0
2, 18806, Note_on_c, 0, 68, 66
2, 18822, Note_on_c, 0, 66, 0
2, 18878, Note_on_c, 0, 68, 0
2, 18905, Note_on_c, 0, 59, 57
2, 18917, Note_on_c, 0, 56, 49
2, 18955, Note_on_c, 0, 56, 0
2, 18959, Note_on_c, 0, 59, 0
2, 18994, Note_on_c, 0, 62, 51
2, 19061, Note_on_c, 0, 60, 66
2, 19076, Note_on_c, 0, 62, 0
2, 19137, Note_on_c, 0, 60, 0
2, 19159, Note_on_c, 0, 59, 60
2, 19204, Note_on_c, 0, 59, 0
2, 19241, Note_on_c, 0, 57, 55
2, 19244, Note_on_c, 0, 48, 37
2, 19295, Note_on_c, 0, 48, 0
2, 19311, Note_on_c, 0, 57, 0
2, 19323, Note_on_c, 0, 60, 55
2, 19408, Note_on_c, 0, 62, 50
2, 19411, Note_on_c, 0, 60, 0
2, 19474, Note_on_c, 0, 62, 0
2, 19482, Note_on_c, 0, 64, 56
2, 19491, Control_c, 0, 64, 43
2, 19528, Note_on_c, 0, 64, 0
2, 19552, Note_on_c, 0, 54, 53
2, 19567, Control_c, 0, 64, 44
2, 19573, Note_on_c, 0, 57, 57
2, 19614, Note_on_c, 0, 54, 0
2, 19651, Note_on_c, 0, 67, 61
2, 19668, Note_on_c, 0, 57, 0
2, 19748, Note_on_c, 0, 66, 52
2, 19756, Note_on_c, 0, 67, 0
2, 19823, Note_on_c, 0, 64, 58
2, 19828, Note_on_c, 0, 66, 0
2, 19908, Note_on_c, 0, 47, 40
2, 19916, Note_on_c, 0, 63, 58
2, 19916, Note_on_c, 0, 64, 0
2, 19961, Note_on_c, 0, 47, 0
2, 19963, Note_on_c, 0, 63, 0
2, 20002, Note_on_c, 0, 57, 52
2, 20077, Note_on_c, 0, 57, 0
2, 20085, Note_on_c, 0, 59, 55
2, 20128, Note_on_c, 0, 59, 0
2, 20155, Note_on_c, 0, 60, 56
2, 20209, Note_on_c, 0, 60, 0
2, 20246, Note_on_c, 0, 54, 58
2, 20249, Note_on_c, 0, 51, 54
2, 20295, Note_on_c, 0, 51, 0
2, 20298, Note_on_c, 0, 54, 0
2, 20321, Note_on_c, 0, 60, 61
2, 20406, Note_on_c, 0, 60, 0
2, 20411, Note_on_c, 0, 59, 61
2, 20479, Note_on_c, 0, 59, 0
2, 20489, Note_on_c, 0, 57, 60
2, 20534, Note_on_c, 0, 57, 0
2, 20574, Note_on_c, 0, 55, 64
2, 20577, Note_on_c, 0, 52, 64
2, 20615, Note_on_c, 0, 52, 0
2, 20644, Note_on_c, 0, 55, 0
2, 20659, Note_on_c, 0, 64, 64
2, 20739, Note_on_c, 0, 66, 60
2, 20748, Note_on_c, 0, 64, 0
2, 20783, Control_c, 0, 64, 44
2, 20814, Control_c, 0, 64, 45
2, 20819, Note_on_c, 0, 67, 63
2, 20830, Control_c, 0, 64, 45
2, 20831, Note_on_c, 0, 66, 0
2, 20871, Note_on_c, 0, 67, 0
2, 20875, Control_c, 0, 64, 46
2, 20904, Note_on_c, 0, 55, 49
2, 20909, Note_on_c, 0, 59, 60
2, 20943, Note_on_c, 0, 55, 0
2, 20989, Note_on_c, 0, 62, 61
2, 20991, Note_on_c, 0, 59, 0
2, 21061, Note_on_c, 0, 61, 64
2, 21075, Note_on_c, 0, 62, 0
2, 21144, Note_on_c, 0, 61, 0
2, 21146, Note_on_c, 0, 59, 63
2, 21186, Control_c, 0, 64, 46
2, 21208, Note_on_c, 0, 59, 0
2, 21232, Note_on_c, 0, 58, 72
2, 21238, Note_on_c, 0, 47, 53
2, 21246, Control_c, 0, 64, 47
2, 21285, Note_on_c, 0, 47, 0
2, 21301, Note_on_c, 0, 58, 0
2, 21308, Note_on_c, 0, 61, 66
2, 21382, Note_on_c, 0, 62, 68
2, 21412, Note_on_c, 0, 61, 0
2, 21459, Note_on_c, 0, 62, 0
2, 21461, Note_on_c, 0, 64, 69
2, 21517, Note_on_c, 0, 64, 0
2, 21535, Control_c, 0, 64, 47
2, 21547, Note_on_c, 0, 52, 69
2, 21555, Note_on_c, 0, 58, 71
2, 21591, Note_on_c, 0, 52, 0
2, 21604, Note_on_c, 0, 58, 0
2, 21612, Control_c, 0, 64, 48
2, 21641, Note_on_c, 0, 67, 72
2, 21711, Note_on_c, 0, 66, 69
2, 21726, Note_on_c, 0, 67, 0
2, 21784, Note_on_c, 0, 66, 0
2, 21791, Note_on_c, 0, 64, 74
2, 21824, Note_on_c, 0, 64, 0
2, 21876, Note_on_c, 0, 55, 70
2, 21878, Note_on_c, 0, 73, 79
2, 21950, Note_on_c, 0, 55, 0
2, 21969, Note_on_c, 0, 70, 78
2, 21969, Note_on_c, 0, 73, 0
2, 22016, Control_c, 0, 64, 47
2, 22034, Note_on_c, 0, 70, 0
2, 22050, Note_on_c, 0, 71, 79
2, 22120, Note_on_c, 0, 73, 78
2, 22121, Note_on_c, 0, 71, 0
2, 22209, Note_on_c, 0, 58, 65
2, 22224, Note_on_c, 0, 66, 81
2, 22271, Note_on_c, 0, 58, 0
2, 22290, Note_on_c, 0, 73, 0
2, 22295, Note_on_c, 0, 76, 72
2, 22298, Note_on_c, 0, 66, 0
2, 22393, Note_on_c, 0, 74, 67
2, 22393, Note_on_c, 0, 76, 0
2, 22464, Note_on_c, 0, 74, 0
2, 22470, Note_on_c, 0, 73, 65
2, 22529, Note_on_c, 0, 73, 0
2, 22565, Note_on_c, 0, 47, 54
2, 22565, Note_on_c, 0, 74, 60
2, 22601, Note_on_c, 0, 47, 0
2, 22617, Note_on_c, 0, 74, 0
2, 22647, Note_on_c, 0, 71, 59
2, 22714, Note_on_c, 0, 71, 0
2, 22746, Note_on_c, 0, 73, 49
2, 22818, Note_on_c, 0, 73, 0
2, 22835, Note_on_c, 0, 74, 55
2, 22876, Note_on_c, 0, 74, 0
2, 22890, Control_c, 0, 64, 48
2, 22911, Note_on_c, 0, 66, 58
2, 22920, Control_c, 0, 64, 48
2, 22928, Note_on_c, 0, 59, 40
2, 22959, Note_on_c, 0, 59, 0
2, 22966, Control_c, 0, 64, 49
2, 22986, Note_on_c, 0, 66, 0
2, 23002, Note_on_c, 0, 69, 53
2, 23042, Control_c, 0, 64, 48
2, 23066, Note_on_c, 0, 69, 0
2, 23072, Control_c, 0, 64, 48
2, 23077, Note_on_c, 0, 68, 58
2, 23087, Control_c, 0, 64, 47
2, 23102, Control_c, 0, 64, 47
2, 23118, Control_c, 0, 64, 46
2, 23126, Note_on_c, 0, 68, 0
2, 23133, Control_c, 0, 64, 46
2, 23156, Note_on_c, 0, 66, 53
2, 23229, Note_on_c, 0, 66, 0
2, 23239, Note_on_c, 0, 52, 56
2, 23252, Note_on_c, 0, 68, 63
2, 23271, Control_c, 0, 64, 45
2, 23271, Note_on_c, 0, 52, 0
2, 23336, Note_on_c, 0, 68, 0
2, 23341, Note_on_c, 0, 71, 47
2, 23423, Note_on_c, 0, 72, 59
2, 23428, Note_on_c, 0, 71, 0
2, 23430, Control_c, 0, 64, 46
2, 23445, Control_c, 0, 64, 46
2, 23498, Note_on_c, 0, 72, 0
2, 23500, Note_on_c, 0, 74, 57
2, 23521, Control_c, 0, 64, 47
2, 23551, Note_on_c, 0, 74, 0
2, 23576, Note_on_c, 0, 56, 49
2, 23589, Note_on_c, 0, 64, 48
2, 23606, Note_on_c, 0, 56, 0
2, 23662, Note_on_c, 0, 74, 62
2, 23667, Note_on_c, 0, 64, 0
2, 23736, Note_on_c, 0, 74, 0
2, 23757, Note_on_c, 0, 72, 59
2, 23827, Note_on_c, 0, 72, 0
2, 23833, Note_on_c, 0, 71, 57
2, 23840, Control_c, 0, 64, 46
2, 23886, Control_c, 0, 64, 46
2, 23901, Note_on_c, 0, 45, 50
2, 23926, Note_on_c, 0, 71, 0
2, 23928, Note_on_c, 0, 72, 66
2, 23931, Control_c, 0, 64, 45
2, 23940, Note_on_c, 0, 45, 0
2, 23970, Note_on_c, 0, 72, 0
2, 24002, Note_on_c, 0, 69, 55
2, 24059, Note_on_c, 0, 69, 0
2, 24088, Note_on_c, 0, 71, 51
2, 24148, Note_on_c, 0, 71, 0
2, 24164, Note_on_c, 0, 72, 55
2, 24224, Note_on_c, 0, 72, 0
2, 24250, Note_on_c, 0, 57, 51
2, 24258, Note_on_c, 0, 64, 54
2, 24294, Note_on_c, 0, 57, 0
2, 24340, Note_on_c, 0, 64, 0
2, 24347, Note_on_c, 0, 67, 55
2, 24403, Note_on_c, 0, 67, 0
2, 24433, Note_on_c, 0, 66, 51
2, 24481, Note_on_c, 0, 66, 0
2, 24501, Note_on_c, 0, 64, 54
2, 24576, Note_on_c, 0, 64, 0
2, 24579, Note_on_c, 0, 50, 42
2, 24594, Note_on_c, 0, 66, 54
2, 24615, Note_on_c, 0, 50, 0
2, 24672, Note_on_c, 0, 66, 0
2, 24673, Note_on_c, 0, 69, 57
2, 24698, Control_c, 0, 64, 46
2, 24740, Note_on_c, 0, 69, 0
2, 24743, Note_on_c, 0, 71, 60
2, 24805, Control_c, 0, 64, 46
2, 24829, Note_on_c, 0, 71, 0
2, 24830, Note_on_c, 0, 72, 64
2, 24894, Note_on_c, 0, 72, 0
2, 24897, Control_c, 0, 64, 47
2, 24907, Note_on_c, 0, 54, 42
2, 24928, Note_on_c, 0, 62, 49
2, 24936, Note_on_c, 0, 54, 0
2, 25002, Note_on_c, 0, 72, 58
2, 25016, Note_on_c, 0, 62, 0
2, 25074, Note_on_c, 0, 72, 0
2, 25088, Note_on_c, 0, 71, 52
2, 25154, Note_on_c, 0, 71, 0
2, 25166, Note_on_c, 0, 69, 60
2, 25236, Note_on_c, 0, 43, 41
2, 25254, Note_on_c, 0, 69, 0
2, 25258, Note_on_c, 0, 71, 64
2, 25294, Note_on_c, 0, 43, 0
2, 25316, Note_on_c, 0, 71, 0
2, 25339, Note_on_c, 0, 67, 57
2, 25411, Note_on_c, 0, 67, 0
2, 25429, Note_on_c, 0, 69, 49
2, 25497, Note_on_c, 0, 69, 0
2, 25512, Note_on_c, 0, 71, 56
2, 25552, Note_on_c, 0, 71, 0
2, 25591, Note_on_c, 0, 62, 48
2, 25594, Note_on_c, 0, 55, 43
2, 25629, Note_on_c, 0, 55, 0
2, 25669, Note_on_c, 0, 71, 63
2, 25711, Note_on_c, 0, 62, 0
2, 25757, Note_on_c, 0, 71, 0
2, 25762, Note_on_c, 0, 69, 62
2, 25830, Note_on_c, 0, 69, 0
2, 25842, Note_on_c, 0, 67, 56
2, 25915, Note_on_c, 0, 67, 0
2, 25916, Note_on_c, 0, 47, 48
2, 25926, Note_on_c, 0, 74, 68
2, 25948, Control_c, 0, 64, 47
2, 25964, Note_on_c, 0, 47, 0
2, 25995, Note_on_c, 0, 74, 0
2, 26008, Note_on_c, 0, 67, 55
2, 26071, Note_on_c, 0, 67, 0
2, 26085, Note_on_c, 0, 69, 53
2, 26170, Note_on_c, 0, 69, 0
2, 26184, Note_on_c, 0, 71, 59
2, 26230, Note_on_c, 0, 71, 0
2, 26249, Note_on_c, 0, 55, 47
2, 26267, Note_on_c, 0, 62, 50
2, 26297, Note_on_c, 0, 55, 0
2, 26353, Note_on_c, 0, 62, 0
2, 26353, Note_on_c, 0, 71, 53
2, 26428, Note_on_c, 0, 69, 56
2, 26428, Note_on_c, 0, 71, 0
2, 26481, Note_on_c, 0, 69, 0
2, 26516, Note_on_c, 0, 67, 50
2, 26571, Note_on_c, 0, 67, 0
2, 26597, Note_on_c, 0, 72, 53
2, 26600, Note_on_c, 0, 45, 44
2, 26645, Note_on_c, 0, 45, 0
2, 26646, Note_on_c, 0, 72, 0
2, 26670, Control_c, 0, 64, 47
2, 26676, Note_on_c, 0, 69, 53
2, 26734, Note_on_c, 0, 69, 0
2, 26760, Note_on_c, 0, 71, 57
2, 26839, Note_on_c, 0, 71, 0
2, 26848, Note_on_c, 0, 72, 60
2, 26897, Control_c, 0, 64, 46
2, 26898, Note_on_c, 0, 72, 0
2, 26913, Note_on_c, 0, 55, 43
2, 26924, Note_on_c, 0, 64, 51
2, 26962, Note_on_c, 0, 55, 0
2, 26998, Note_on_c, 0, 64, 0
2, 27002, Note_on_c, 0, 67, 54
2, 27068, Note_on_c, 0, 67, 0
2, 27083, Note_on_c, 0, 66, 59
2, 27131, Note_on_c, 0, 66, 0
2, 27162, Note_on_c, 0, 64, 52
2, 27244, Note_on_c, 0, 50, 37
2, 27248, Note_on_c, 0, 64, 0
2, 27258, Note_on_c, 0, 66, 58
2, 27302, Note_on_c, 0, 50, 0
2, 27339, Note_on_c, 0, 66, 0
2, 27341, Note_on_c, 0, 69, 54
2, 27409, Note_on_c, 0, 71, 61
2, 27411, Note_on_c, 0, 69, 0
2, 27486, Note_on_c, 0, 71, 0
2, 27491, Note_on_c, 0, 72, 62
2, 27550, Note_on_c, 0, 72, 0
2, 27568, Note_on_c, 0, 54, 48
2, 27580, Note_on_c, 0, 62, 55
2, 27611, Note_on_c, 0, 54, 0
2, 27656, Note_on_c, 0, 72, 59
2, 27670, Note_on_c, 0, 62, 0
2, 27721, Note_on_c, 0, 72, 0
2, 27732, Note_on_c, 0, 71, 57
2, 27798, Note_on_c, 0, 71, 0
2, 27801, Control_c, 0, 64, 47
2, 27810, Note_on_c, 0, 69, 62
2, 27877, Control_c, 0, 64, 47
2, 27878, Note_on_c, 0, 43, 38
2, 27896, Note_on_c, 0, 69, 0
2, 27906, Note_on_c, 0, 71, 64
2, 27933, Note_on_c, 0, 43, 0
2, 27937, Control_c, 0, 64, 48
2, 27966, Note_on_c, 0, 71, 0
2, 27982, Control_c, 0, 64, 48
2, 27991, Note_on_c, 0, 67, 56
2, 28036, Control_c, 0, 64, 49
2, 28077, Note_on_c, 0, 67, 0
2, 28087, Note_on_c, 0, 69, 55
2, 28097, Control_c, 0, 64, 49
2, 28127, Control_c, 0, 64, 50
2, 28147, Note_on_c, 0, 69, 0
2, 28165, Note_on_c, 0, 71, 58
2, 28190, Control_c, 0, 64, 50
2, 28220, Note_on_c, 0, 71, 0
2, 28239, Note_on_c, 0, 55, 47
2, 28250, Control_c, 0, 64, 51
2, 28252, Note_on_c, 0, 62, 49
2, 28288, Note_on_c, 0, 55, 0
2, 28318, Note_on_c, 0, 62, 0
2, 28322, Note_on_c, 0, 66, 48
2, 28326, Control_c, 0, 64, 51
2, 28386, Note_on_c, 0, 66, 0
2, 28398, Note_on_c, 0, 64, 55
2, 28402, Control_c, 0, 64, 52
2, 28447, Note_on_c, 0, 64, 0
2, 28462, Control_c, 0, 64, 52
2, 28480, Note_on_c, 0, 62, 51
2, 28523, Control_c, 0, 64, 53
2, 28538, Control_c, 0, 64, 53
2, 28548, Note_on_c, 0, 62, 0
2, 28559, Note_on_c, 0, 43, 44
2, 28571, Note_on_c, 0, 64, 57
2, 28584, Control_c, 0, 64, 54
2, 28594, Note_on_c, 0, 43, 0
2, 28638, Note_on_c, 0, 64, 0
2, 28643, Note_on_c, 0, 67, 58
2, 28720, Note_on_c, 0, 69, 67
2, 28725, Note_on_c, 0, 67, 0
2, 28781, Control_c, 0, 64, 53
2, 28807, Note_on_c, 0, 69, 0
2, 28815, Note_on_c, 0, 71, 60
2, 28819, Control_c, 0, 64, 53
2, 28853, Note_on_c, 0, 71, 0
2, 28866, Control_c, 0, 64, 52
2, 28880, Control_c, 0, 64, 52
2, 28895, Control_c, 0, 64, 51
2, 28899, Note_on_c, 0, 55, 42
2, 28903, Note_on_c, 0, 64, 60
2, 28926, Control_c, 0, 64, 51
2, 28934, Note_on_c, 0, 55, 0
2, 28941, Control_c, 0, 64, 50
2, 28957, Control_c, 0, 64, 50
2, 28969, Note_on_c, 0, 74, 64
2, 28972, Control_c, 0, 64, 49
2, 28978, Note_on_c, 0, 64, 0
2, 29003, Control_c, 0, 64, 48
2, 29018, Control_c, 0, 64, 48
2, 29034, Control_c, 0, 64, 47
2, 29049, Control_c, 0, 64, 46
2, 29061, Note_on_c, 0, 73, 58
2, 29061, Note_on_c, 0, 74, 0
2, 29063, Control_c, 0, 64, 45
2, 29079, Control_c, 0, 64, 45
2, 29094, Control_c, 0, 64, 44
2, 29109, Control_c, 0, 64, 44
2, 29124, Control_c, 0, 64, 43
2, 29127, Note_on_c, 0, 73, 0
2, 29137, Note_on_c, 0, 71, 66
2, 29139, Control_c, 0, 64, 42
2, 29157, Control_c, 0, 64, 41
2, 29226, Note_on_c, 0, 43, 55
2, 29228, Note_on_c, 0, 73, 72
2, 29233, Control_c, 0, 64, 40
2, 29234, Note_on_c, 0, 71, 0
2, 29248, Control_c, 0, 64, 39
2, 29263, Control_c, 0, 64, 38
2, 29265, Note_on_c, 0, 43, 0
2, 29278, Control_c, 0, 64, 37
2, 29292, Note_on_c, 0, 73, 0
2, 29293, Control_c, 0, 64, 36
2, 29309, Control_c, 0, 64, 36
2, 29314, Note_on_c, 0, 69, 55
2, 29323, Control_c, 0, 64, 35
2, 29388, Note_on_c, 0, 69, 0
2, 29392, Note_on_c, 0, 71, 54
2, 29480, Note_on_c, 0, 71, 0
2, 29480, Note_on_c, 0, 73, 60
2, 29491, Control_c, 0, 64, 36
2, 29507, Control_c, 0, 64, 37
2, 29524, Note_on_c, 0, 73, 0
2, 29537, Control_c, 0, 64, 37
2, 29553, Control_c, 0, 64, 38
2, 29563, Note_on_c, 0, 64, 57
2, 29580, Note_on_c, 0, 49, 47
2, 29605, Control_c, 0, 64, 38
2, 29620, Note_on_c, 0, 49, 0
2, 29636, Control_c, 0, 64, 39
2, 29651, Control_c, 0, 64, 39
2, 29656, Note_on_c, 0, 64, 0
2, 29662, Note_on_c, 0, 67, 55
2, 29681, Control_c, 0, 64, 40
2, 29712, Control_c, 0, 64, 40
2, 29726, Control_c, 0, 64, 41
2, 29729, Note_on_c, 0, 66, 61
2, 29742, Control_c, 0, 64, 41
2, 29745, Note_on_c, 0, 67, 0
2, 29757, Control_c, 0, 64, 42
2, 29772, Control_c, 0, 64, 42
2, 29807, Note_on_c, 0, 66, 0
2, 29812, Note_on_c, 0, 64, 57
2, 29820, Control_c, 0, 64, 43
2, 29865, Control_c, 0, 64, 43
2, 29881, Note_on_c, 0, 64, 0
2, 29895, Control_c, 0, 64, 44
2, 29905, Note_on_c, 0, 42, 53
2, 29908, Note_on_c, 0, 62, 52
2, 29948, Note_on_c, 0, 42, 0
2, 29956, Control_c, 0, 64, 44
2, 29965, Note_on_c, 0, 62, 0
2, 29979, Note_on_c, 0, 66, 55
2, 30017, Control_c, 0, 64, 45
2, 30032, Control_c, 0, 64, 45
2, 30060, Note_on_c, 0, 66, 0
2, 30062, Note_on_c, 0, 67, 57
2, 30123, Control_c, 0, 64, 46
2, 30136, Note_on_c, 0, 67, 0
2, 30158, Note_on_c, 0, 69, 60
2, 30209, Note_on_c, 0, 69, 0
2, 30246, Note_on_c, 0, 50, 49
2, 30247, Note_on_c, 0, 59, 54
2, 30283, Note_on_c, 0, 50, 0
2, 30317, Note_on_c, 0, 59, 0
2, 30324, Note_on_c, 0, 69, 58
2, 30396, Note_on_c, 0, 69, 0
2, 30411, Note_on_c, 0, 67, 53
2, 30476, Note_on_c, 0, 67, 0
2, 30480, Control_c, 0, 64, 46
2, 30491, Note_on_c, 0, 66, 51
2, 30579, Note_on_c, 0, 67, 65
2, 30580, Note_on_c, 0, 40, 43
2, 30601, Note_on_c, 0, 66, 0
2, 30613, Note_on_c, 0, 40, 0
2, 30639, Note_on_c, 0, 67, 0
2, 30667, Note_on_c, 0, 64, 52
2, 30709, Control_c, 0, 64, 47
2, 30727, Note_on_c, 0, 64, 0
2, 30740, Control_c, 0, 64, 47
2, 30744, Note_on_c, 0, 66, 52
2, 30815, Note_on_c, 0, 66, 0
2, 30825, Note_on_c, 0, 67, 51
2, 30873, Note_on_c, 0, 67, 0
2, 30909, Note_on_c, 0, 59, 56
2, 30915, Note_on_c, 0, 50, 43
2, 30955, Note_on_c, 0, 50, 0
2, 30991, Note_on_c, 0, 59, 0
2, 30996, Note_on_c, 0, 62, 54
2, 31056, Note_on_c, 0, 62, 0
2, 31078, Note_on_c, 0, 61, 54
2, 31133, Note_on_c, 0, 61, 0
2, 31163, Note_on_c, 0, 59, 55
2, 31240, Note_on_c, 0, 45, 50
2, 31250, Note_on_c, 0, 59, 0
2, 31256, Note_on_c, 0, 61, 58
2, 31275, Note_on_c, 0, 45, 0
2, 31325, Note_on_c, 0, 64, 55
2, 31330, Note_on_c, 0, 61, 0
2, 31405, Note_on_c, 0, 66, 57
2, 31411, Note_on_c, 0, 64, 0
2, 31479, Note_on_c, 0, 67, 56
2, 31491, Note_on_c, 0, 66, 0
2, 31546, Note_on_c, 0, 67, 0
2, 31577, Note_on_c, 0, 49, 45
2, 31583, Note_on_c, 0, 57, 55
2, 31609, Note_on_c, 0, 49, 0
2, 31666, Note_on_c, 0, 57, 0
2, 31666, Note_on_c, 0, 67, 53
2, 31705, Control_c, 0, 64, 48
2, 31719, Control_c, 0, 64, 48
2, 31732, Note_on_c, 0, 66, 53
2, 31755, Note_on_c, 0, 67, 0
2, 31808, Note_on_c, 0, 66, 0
2, 31821, Note_on_c, 0, 64, 52
2, 31841, Control_c, 0, 64, 49
2, 31855, Control_c, 0, 64, 49
2, 31879, Control_c, 0, 64, 51
2, 31894, Control_c, 0, 64, 52
2, 31910, Control_c, 0, 64, 53
2, 31923, Note_on_c, 0, 64, 0
2, 31924, Control_c, 0, 64, 53
2, 31931, Note_on_c, 0, 38, 30
2, 31931, Note_on_c, 0, 66, 58
2, 31940, Control_c, 0, 64, 54
2, 31970, Control_c, 0, 64, 54
2, 31974, Note_on_c, 0, 38, 0
2, 31980, Note_on_c, 0, 66, 0
2, 32009, Note_on_c, 0, 62, 46
2, 32093, Note_on_c, 0, 62, 0
2, 32095, Note_on_c, 0, 64, 51
2, 32107, Control_c, 0, 64, 54
2, 32122, Control_c, 0, 64, 53
2, 32136, Control_c, 0, 64, 52
2, 32152, Control_c, 0, 64, 51
2, 32167, Control_c, 0, 64, 50
2, 32174, Note_on_c, 0, 64, 0
2, 32179, Note_on_c, 0, 66, 62
2, 32182, Control_c, 0, 64, 49
2, 32197, Control_c, 0, 64, 49
2, 32212, Control_c, 0, 64, 48
2, 32228, Control_c, 0, 64, 47
2, 32244, Control_c, 0, 64, 46
2, 32246, Note_on_c, 0, 66, 0
2, 32260, Control_c, 0, 64, 45
2, 32266, Note_on_c, 0, 50, 43
2, 32267, Note_on_c, 0, 57, 55
2, 32275, Control_c, 0, 64, 45
2, 32305, Control_c, 0, 64, 44
2, 32326, Note_on_c, 0, 50, 0
2, 32339, Note_on_c, 0, 66, 59
2, 32358, Note_on_c, 0, 57, 0
2, 32421, Note_on_c, 0, 64, 62
2, 32439, Note_on_c, 0, 66, 0
2, 32482, Note_on_c, 0, 64, 0
2, 32487, Control_c, 0, 64, 45
2, 32489, Note_on_c, 0, 62, 63
2, 32518, Control_c, 0, 64, 45
2, 32539, Note_on_c, 0, 62, 0
2, 32549, Control_c, 0, 64, 46
2, 32579, Control_c, 0, 64, 46
2, 32580, Note_on_c, 0, 69, 73
2, 32588, Note_on_c, 0, 42, 56
2, 32594, Control_c, 0, 64, 47
2, 32654, Note_on_c, 0, 42, 0
2, 32671, Note_on_c, 0, 69, 0
2, 32674, Note_on_c, 0, 66, 71
2, 32677, Control_c, 0, 64, 47
2, 32739, Control_c, 0, 64, 48
2, 32748, Note_on_c, 0, 67, 70
2, 32776, Note_on_c, 0, 66, 0
2, 32814, Control_c, 0, 64, 48
2, 32827, Note_on_c, 0, 69, 71
2, 32833, Note_on_c, 0, 67, 0
2, 32886, Note_on_c, 0, 69, 0
2, 32912, Note_on_c, 0, 54, 63
2, 32916, Note_on_c, 0, 62, 68
2, 32969, Note_on_c, 0, 54, 0
2, 32974, Note_on_c, 0, 72, 78
2, 32996, Control_c, 0, 64, 48
2, 33011, Control_c, 0, 64, 47
2, 33014, Note_on_c, 0, 62, 0
2, 33026, Control_c, 0, 64, 47
2, 33041, Control_c, 0, 64, 46
2, 33059, Control_c, 0, 64, 46
2, 33064, Note_on_c, 0, 71, 73
2, 33102, Note_on_c, 0, 72, 0
2, 33104, Control_c, 0, 64, 45
2, 33133, Control_c, 0, 64, 45
2, 33142, Note_on_c, 0, 69, 76
2, 33151, Note_on_c, 0, 71, 0
2, 33164, Control_c, 0, 64, 44
2, 33216, Note_on_c, 0, 43, 67
2, 33240, Note_on_c, 0, 71, 86
2, 33245, Note_on_c, 0, 69, 0
2, 33264, Note_on_c, 0, 43, 0
2, 33326, Note_on_c, 0, 71, 0
2, 33334, Note_on_c, 0, 67, 74
2, 33412, Note_on_c, 0, 69, 72
2, 33420, Note_on_c, 0, 67, 0
2, 33493, Note_on_c, 0, 69, 0
2, 33493, Note_on_c, 0, 71, 79
2, 33562, Note_on_c, 0, 71, 0
2, 33585, Note_on_c, 0, 55, 55
2, 33585, Note_on_c, 0, 62, 67
2, 33626, Note_on_c, 0, 55, 0
2, 33659, Note_on_c, 0, 71, 73
2, 33677, Note_on_c, 0, 62, 0
2, 33741, Note_on_c, 0, 69, 74
2, 33760, Note_on_c, 0, 71, 0
2, 33810, Note_on_c, 0, 69, 0
2, 33811, Note_on_c, 0, 67, 78
2, 33881, Note_on_c, 0, 67, 0
2, 33884, Note_on_c, 0, 47, 62
2, 33893, Note_on_c, 0, 74, 85
2, 33917, Note_on_c, 0, 47, 0
2, 33971, Note_on_c, 0, 71, 78
2, 34033, Note_on_c, 0, 74, 0
2, 34045, Note_on_c, 0, 73, 77
2, 34070, Control_c, 0, 64, 45
2, 34071, Note_on_c, 0, 71, 0
2, 34133, Note_on_c, 0, 74, 75
2, 34159, Note_on_c, 0, 73, 0
2, 34224, Note_on_c, 0, 68, 85
2, 34229, Note_on_c, 0, 59, 58
2, 34264, Note_on_c, 0, 59, 0
2, 34307, Note_on_c, 0, 77, 78
2, 34322, Note_on_c, 0, 74, 0
2, 34329, Note_on_c, 0, 68, 0
2, 34405, Note_on_c, 0, 76, 75
2, 34435, Note_on_c, 0, 77, 0
2, 34493, Note_on_c, 0, 74, 79
2, 34529, Note_on_c, 0, 76, 0
2, 34607, Note_on_c, 0, 45, 59
2, 34611, Note_on_c, 0, 73, 88
2, 34646, Note_on_c, 0, 74, 0
2, 34731, Note_on_c, 0, 69, 74
2, 34737, Note_on_c, 0, 73, 0
2, 34833, Note_on_c, 0, 71, 73
2, 34849, Note_on_c, 0, 69, 0
2, 34883, Control_c, 0, 64, 45
2, 34914, Note_on_c, 0, 73, 73
2, 34918, Note_on_c, 0, 71, 0
2, 34928, Control_c, 0, 64, 46
2, 34992, Note_on_c, 0, 73, 0
2, 35012, Control_c, 0, 64, 46
2, 35017, Note_on_c, 0, 55, 61
2, 35017, Note_on_c, 0, 64, 73
2, 35042, Control_c, 0, 64, 47
2, 35071, Note_on_c, 0, 55, 0
2, 35088, Control_c, 0, 64, 47
2, 35092, Note_on_c, 0, 64, 0
2, 35095, Note_on_c, 0, 67, 73
2, 35149, Control_c, 0, 64, 48
2, 35179, Control_c, 0, 64, 48
2, 35179, Note_on_c, 0, 66, 67
2, 35202, Note_on_c, 0, 67, 0
2, 35251, Note_on_c, 0, 66, 0
2, 35254, Note_on_c, 0, 64, 73
2, 35270, Control_c, 0, 64, 49
2, 35312, Note_on_c, 0, 64, 0
2, 35316, Note_on_c, 0, 54, 64
2, 35333, Note_on_c, 0, 69, 78
2, 35346, Control_c, 0, 64, 49
2, 35346, Note_on_c, 0, 54, 0
2, 35396, Note_on_c, 0, 69, 0
2, 35417, Note_on_c, 0, 74, 74
2, 35468, Control_c, 0, 64, 50
2, 35492, Note_on_c, 0, 76, 67
2, 35526, Note_on_c, 0, 74, 0
2, 35560, Control_c, 0, 64, 50
2, 35563, Note_on_c, 0, 78, 73
2, 35588, Note_on_c, 0, 76, 0
2, 35605, Control_c, 0, 64, 51
2, 35634, Note_on_c, 0, 50, 68
2, 35634, Note_on_c, 0, 78, 0
2, 35639, Note_on_c, 0, 71, 79
2, 35668, Note_on_c, 0, 50, 0
2, 35707, Note_on_c, 0, 81, 68
2, 35727, Note_on_c, 0, 71, 0
2, 35796, Note_on_c, 0, 79, 69
2, 35825, Note_on_c, 0, 81, 0
2, 35869, Note_on_c, 0, 79, 0
2, 35870, Note_on_c, 0, 78, 73
2, 35945, Note_on_c, 0, 52, 71
2, 35957, Note_on_c, 0, 79, 79
2, 35961, Note_on_c, 0, 78, 0
2, 35975, Note_on_c, 0, 52, 0
2, 36027, Note_on_c, 0, 73, 65
2, 36105, Note_on_c, 0, 79, 0
2, 36108, Note_on_c, 0, 73, 0
2, 36108, Note_on_c, 0, 74, 63
2, 36180, Note_on_c, 0, 76, 70
2, 36210, Note_on_c, 0, 74, 0
2, 36244, Note_on_c, 0, 49, 68
2, 36257, Note_on_c, 0, 69, 73
2, 36281, Control_c, 0, 64, 51
2, 36282, Note_on_c, 0, 49, 0
2, 36303, Note_on_c, 0, 76, 0
2, 36308, Note_on_c, 0, 79, 74
2, 36319, Note_on_c, 0, 69, 0
2, 36396, Note_on_c, 0, 78, 67
2, 36445, Note_on_c, 0, 79, 0
2, 36471, Note_on_c, 0, 76, 68
2, 36502, Note_on_c, 0, 78, 0
2, 36563, Note_on_c, 0, 50, 64
2, 36571, Note_on_c, 0, 78, 81
2, 36577, Note_on_c, 0, 76, 0
2, 36600, Note_on_c, 0, 50, 0
2, 36608, Control_c, 0, 64, 51
2, 36639, Control_c, 0, 64, 50
2, 36664, Note_on_c, 0, 71, 64
2, 36670, Control_c, 0, 64, 50
2, 36737, Note_on_c, 0, 78, 0
2, 36740, Note_on_c, 0, 73, 64
2, 36741, Note_on_c, 0, 71, 0
2, 36823, Note_on_c, 0, 74, 61
2, 36826, Note_on_c, 0, 73, 0
2, 36875, Note_on_c, 0, 47, 63
2, 36897, Note_on_c, 0, 68, 74
2, 36935, Note_on_c, 0, 47, 0
2, 36972, Control_c, 0, 64, 49
2, 36972, Note_on_c, 0, 78, 71
2, 36975, Note_on_c, 0, 74, 0
2, 37016, Note_on_c, 0, 68, 0
2, 37060, Note_on_c, 0, 76, 66
2, 37084, Note_on_c, 0, 78, 0
2, 37137, Note_on_c, 0, 74, 64
2, 37164, Note_on_c, 0, 76, 0
2, 37236, Note_on_c, 0, 73, 69
2, 37242, Note_on_c, 0, 74, 0
2, 37309, Note_on_c, 0, 73, 0
2, 37329, Note_on_c, 0, 67, 62
2, 37332, Note_on_c, 0, 52, 47
2, 37348, Control_c, 0, 64, 50
2, 37404, Note_on_c, 0, 54, 60
2, 37409, Note_on_c, 0, 52, 0
2, 37413, Note_on_c, 0, 69, 66
2, 37415, Note_on_c, 0, 67, 0
2, 37476, Note_on_c, 0, 54, 0
2, 37484, Note_on_c, 0, 55, 56
2, 37488, Note_on_c, 0, 70, 69
2, 37489, Note_on_c, 0, 69, 0
2, 37536, Note_on_c, 0, 55, 0
2, 37552, Note_on_c, 0, 70, 0
2, 37560, Control_c, 0, 64, 50
2, 37568, Note_on_c, 0, 64, 68
2, 37576, Note_on_c, 0, 49, 53
2, 37639, Note_on_c, 0, 49, 0
2, 37639, Note_on_c, 0, 64, 0
2, 37642, Note_on_c, 0, 67, 70
2, 37664, Note_on_c, 0, 52, 61
2, 37667, Control_c, 0, 64, 50
2, 37722, Note_on_c, 0, 52, 0
2, 37722, Note_on_c, 0, 65, 66
2, 37727, Control_c, 0, 64, 49
2, 37733, Note_on_c, 0, 50, 59
2, 37743, Control_c, 0, 64, 49
2, 37750, Note_on_c, 0, 67, 0
2, 37757, Control_c, 0, 64, 48
2, 37772, Control_c, 0, 64, 48
2, 37786, Note_on_c, 0, 50, 0
2, 37791, Note_on_c, 0, 64, 73
2, 37791, Note_on_c, 0, 65, 0
2, 37801, Note_on_c, 0, 49, 56
2, 37803, Control_c, 0, 64, 47
2, 37813, Note_on_c, 0, 45, 0
2, 37817, Control_c, 0, 64, 47
2, 37833, Control_c, 0, 64, 46
2, 37846, Note_on_c, 0, 64, 0
2, 37847, Control_c, 0, 64, 46
2, 37869, Note_on_c, 0, 50, 62
2, 37876, Note_on_c, 0, 65, 74
2, 37878, Control_c, 0, 64, 45
2, 37878, Note_on_c, 0, 49, 0
2, 37892, Control_c, 0, 64, 45
2, 37926, Note_on_c, 0, 50, 0
2, 37942, Note_on_c, 0, 53, 64
2, 37948, Note_on_c, 0, 65, 0
2, 37948, Note_on_c, 0, 74, 74
2, 37983, Note_on_c, 0, 53, 0
2, 38033, Note_on_c, 0, 76, 71
2, 38040, Note_on_c, 0, 55, 64
2, 38042, Note_on_c, 0, 74, 0
2, 38083, Control_c, 0, 64, 45
2, 38088, Note_on_c, 0, 55, 0
2, 38109, Note_on_c, 0, 77, 77
2, 38110, Note_on_c, 0, 76, 0
2, 38114, Control_c, 0, 64, 46
2, 38127, Note_on_c, 0, 57, 65
2, 38128, Control_c, 0, 64, 46
2, 38144, Control_c, 0, 64, 47
2, 38159, Control_c, 0, 64, 47
2, 38181, Note_on_c, 0, 57, 0
2, 38189, Note_on_c, 0, 77, 0
2, 38190, Control_c, 0, 64, 48
2, 38193, Note_on_c, 0, 73, 73
2, 38196, Note_on_c, 0, 52, 64
2, 38220, Control_c, 0, 64, 48
2, 38235, Control_c, 0, 64, 49
2, 38250, Control_c, 0, 64, 49
2, 38252, Note_on_c, 0, 52, 0
2, 38269, Note_on_c, 0, 73, 0
2, 38270, Note_on_c, 0, 76, 77
2, 38281, Note_on_c, 0, 55, 64
2, 38344, Note_on_c, 0, 55, 0
2, 38345, Note_on_c, 0, 53, 65
2, 38346, Note_on_c, 0, 74, 78
2, 38375, Note_on_c, 0, 76, 0
2, 38421, Note_on_c, 0, 53, 0
2, 38421, Note_on_c, 0, 73, 80
2, 38424, Note_on_c, 0, 52, 67
2, 38426, Note_on_c, 0, 74, 0
2, 38463, Control_c, 0, 64, 49
2, 38480, Note_on_c, 0, 73, 0
2, 38489, Note_on_c, 0, 52, 0
2, 38502, Note_on_c, 0, 74, 85
2, 38506, Note_on_c, 0, 53, 69
2, 38524, Control_c, 0, 64, 48
2, 38554, Control_c, 0, 64, 48
2, 38568, Note_on_c, 0, 53, 0
2, 38572, Note_on_c, 0, 50, 69
2, 38581, Note_on_c, 0, 74, 0
2, 38589, Note_on_c, 0, 82, 43
2, 38590, Note_on_c, 0, 82, 0
2, 38602, Note_on_c, 0, 81, 61
2, 38630, Note_on_c, 0, 80, 60
2, 38657, Note_on_c, 0, 50, 0
2, 38660, Note_on_c, 0, 52, 61
2, 38663, Note_on_c, 0, 80, 0
2, 38719, Note_on_c, 0, 52, 0
2, 38725, Note_on_c, 0, 53, 65
2, 38737, Note_on_c, 0, 79, 75
2, 38771, Note_on_c, 0, 81, 0
2, 38780, Note_on_c, 0, 53, 0
2, 38826, Note_on_c, 0, 45, 59
2, 38826, Note_on_c, 0, 77, 85
2, 38842, Note_on_c, 0, 79, 0
2, 38899, Note_on_c, 0, 45, 0
2, 38899, Note_on_c, 0, 77, 0
2, 38903, Note_on_c, 0, 76, 73
2, 38910, Note_on_c, 0, 48, 56
2, 38983, Note_on_c, 0, 74, 79
2, 38988, Note_on_c, 0, 48, 0
2, 38993, Note_on_c, 0, 46, 64
2, 38999, Note_on_c, 0, 76, 0
2, 39071, Note_on_c, 0, 73, 84
2, 39075, Note_on_c, 0, 46, 0
2, 39081, Note_on_c, 0, 45, 64
2, 39081, Note_on_c, 0, 74, 0
2, 39186, Note_on_c, 0, 74, 87
2, 39196, Note_on_c, 0, 44, 71
2, 39213, Note_on_c, 0, 45, 0
2, 39219, Note_on_c, 0, 73, 0
2, 39313, Note_on_c, 0, 77, 81
2, 39345, Note_on_c, 0, 74, 0
2, 39353, Control_c, 0, 64, 49
2, 39368, Control_c, 0, 64, 49
2, 39383, Control_c, 0, 64, 50
2, 39398, Control_c, 0, 64, 50
2, 39413, Control_c, 0, 64, 51
2, 39428, Control_c, 0, 64, 53
2, 39434, Note_on_c, 0, 76, 79
2, 39443, Control_c, 0, 64, 54
2, 39451, Note_on_c, 0, 77, 0
2, 39459, Control_c, 0, 64, 56
2, 39474, Control_c, 0, 64, 57
2, 39489, Control_c, 0, 64, 58
2, 39504, Control_c, 0, 64, 58
2, 39512, Note_on_c, 0, 76, 0
2, 39519, Control_c, 0, 64, 59
2, 39529, Note_on_c, 0, 74, 79
2, 39620, Control_c, 0, 64, 58
2, 39624, Note_on_c, 0, 83, 93
2, 39635, Control_c, 0, 64, 58
2, 39650, Control_c, 0, 64, 57
2, 39666, Control_c, 0, 64, 57
2, 39681, Control_c, 0, 64, 56
2, 39695, Control_c, 0, 64, 56
2, 39711, Control_c, 0, 64, 55
2, 39712, Note_on_c, 0, 80, 73
2, 39726, Control_c, 0, 64, 55
2, 39728, Note_on_c, 0, 74, 0
2, 39744, Note_on_c, 0, 83, 0
2, 39756, Control_c, 0, 64, 54
2, 39771, Control_c, 0, 64, 54
2, 39808, Note_on_c, 0, 81, 64
2, 39834, Note_on_c, 0, 80, 0
2, 39881, Note_on_c, 0, 83, 81
2, 39886, Note_on_c, 0, 81, 0
2, 39958, Note_on_c, 0, 77, 86
2, 39972, Note_on_c, 0, 83, 0
2, 40024, Note_on_c, 0, 77, 0
2, 40038, Note_on_c, 0, 74, 74
2, 40075, Control_c, 0, 64, 54
2, 40090, Control_c, 0, 64, 55
2, 40104, Note_on_c, 0, 74, 0
2, 40110, Note_on_c, 0, 76, 69
2, 40121, Control_c, 0, 64, 55
2, 40166, Control_c, 0, 64, 56
2, 40182, Note_on_c, 0, 77, 71
2, 40195, Note_on_c, 0, 76, 0
2, 40225, Note_on_c, 0, 77, 0
2, 40250, Note_on_c, 0, 71, 72
2, 40302, Note_on_c, 0, 71, 0
2, 40339, Note_on_c, 0, 68, 73
2, 40428, Note_on_c, 0, 69, 66
2, 40434, Note_on_c, 0, 68, 0
2, 40505, Note_on_c, 0, 69, 0
2, 40509, Note_on_c, 0, 71, 69
2, 40576, Note_on_c, 0, 64, 58
2, 40643, Note_on_c, 0, 71, 0
2, 40656, Note_on_c, 0, 66, 69
2, 40663, Note_on_c, 0, 64, 0
2, 40736, Control_c, 0, 64, 55
2, 40741, Note_on_c, 0, 68, 75
2, 40750, Note_on_c, 0, 66, 0
2, 40782, Control_c, 0, 64, 55
2, 40800, Note_on_c, 0, 68, 0
2, 40816, Note_on_c, 0, 69, 78
2, 40888, Note_on_c, 0, 69, 0
2, 40888, Note_on_c, 0, 71, 80
2, 40972, Note_on_c, 0, 73, 84
2, 40989, Note_on_c, 0, 71, 0
2, 41054, Note_on_c, 0, 73, 0
2, 41060, Note_on_c, 0, 74, 85
2, 41151, Note_on_c, 0, 76, 84
2, 41169, Note_on_c, 0, 74, 0
2, 41250, Note_on_c, 0, 44, 0
2, 41261, Note_on_c, 0, 45, 64
2, 41274, Note_on_c, 0, 77, 91
2, 41295, Note_on_c, 0, 76, 0
2, 41372, Note_on_c, 0, 73, 78
2, 41476, Note_on_c, 0, 57, 66
2, 41476, Note_on_c, 0, 74, 79
2, 41501, Note_on_c, 0, 73, 0
2, 41536, Note_on_c, 0, 57, 0
2, 41555, Note_on_c, 0, 74, 0
2, 41556, Note_on_c, 0, 69, 71
2, 41668, Note_on_c, 0, 69, 0
2, 41674, Note_on_c, 0, 55, 56
2, 41679, Note_on_c, 0, 70, 40
2, 41700, Note_on_c, 0, 71, 48
2, 41708, Note_on_c, 0, 55, 0
2, 41709, Note_on_c, 0, 70, 0
2, 41722, Note_on_c, 0, 71, 0
2, 41747, Note_on_c, 0, 77, 0
2, 41750, Note_on_c, 0, 67, 76
2, 41831, Note_on_c, 0, 67, 0
2, 41835, Note_on_c, 0, 76, 83
2, 41850, Note_on_c, 0, 49, 55
2, 41879, Control_c, 0, 64, 54
2, 41909, Note_on_c, 0, 49, 0
2, 41939, Note_on_c, 0, 67, 74
2, 42023, Note_on_c, 0, 67, 0
2, 42026, Note_on_c, 0, 69, 71
2, 42038, Note_on_c, 0, 53, 54
2, 42068, Note_on_c, 0, 53, 0
2, 42093, Note_on_c, 0, 76, 0
2, 42119, Note_on_c, 0, 65, 73
2, 42158, Note_on_c, 0, 69, 0
2, 42185, Control_c, 0, 64, 54
2, 42199, Note_on_c, 0, 50, 63
2, 42204, Note_on_c, 0, 74, 85
2, 42224, Note_on_c, 0, 65, 0
2, 42239, Note_on_c, 0, 50, 0
2, 42275, Control_c, 0, 64, 53
2, 42318, Note_on_c, 0, 65, 71
2, 42450, Note_on_c, 0, 67, 71
2, 42457, Note_on_c, 0, 65, 0
2, 42459, Note_on_c, 0, 52, 51
2, 42490, Note_on_c, 0, 52, 0
2, 42577, Note_on_c, 0, 64, 66
2, 42619, Note_on_c, 0, 67, 0
2, 42719, Note_on_c, 0, 55, 64
2, 42729, Note_on_c, 0, 73, 83
2, 42753, Control_c, 0, 64, 54
2, 42759, Note_on_c, 0, 64, 0
2, 42768, Control_c, 0, 64, 55
2, 42784, Control_c, 0, 64, 56
2, 42799, Control_c, 0, 64, 58
2, 42799, Note_on_c, 0, 74, 0
2, 42815, Control_c, 0, 64, 60
2, 42830, Control_c, 0, 64, 62
2, 42845, Control_c, 0, 64, 64
2, 42860, Control_c, 0, 64, 67
2, 42875, Control_c, 0, 64, 71
2, 42891, Control_c, 0, 64, 78
2, 42907, Control_c, 0, 64, 88
2, 42921, Control_c, 0, 64, 100
2, 42924, Note_on_c, 0, 64, 64
2, 42937, Control_c, 0, 64, 127
2, 42975, Note_on_c, 0, 45, 0
2, 43028, Control_c, 0, 64, 99
2, 43043, Control_c, 0, 64, 83
2, 43059, Control_c, 0, 64, 71
2, 43074, Control_c, 0, 64, 65
2, 43089, Control_c, 0, 64, 64
2, 43089, Note_on_c, 0, 55, 0
2, 43090, Note_on_c, 0, 45, 58
2, 43105, Control_c, 0, 64, 68
2, 43119, Control_c, 0, 64, 74
2, 43135, Control_c, 0, 64, 83
2, 43150, Control_c, 0, 64, 93
2, 43164, Control_c, 0, 64, 104
2, 43180, Control_c, 0, 64, 127
2, 43197, Note_on_c, 0, 73, 0
2, 43215, Note_on_c, 0, 50, 58
2, 43241, Note_on_c, 0, 64, 0
2, 43261, Note_on_c, 0, 45, 0
2, 43301, Note_on_c, 0, 53, 55
2, 43353, Note_on_c, 0, 56, 74
2, 43414, Note_on_c, 0, 59, 68
2, 43423, Note_on_c, 0, 62, 70
2, 43484, Note_on_c, 0, 65, 71
2, 43511, Note_on_c, 0, 68, 72
2, 43515, Note_on_c, 0, 62, 0
2, 43553, Note_on_c, 0, 71, 76
2, 43603, Note_on_c, 0, 74, 85
2, 44406, Note_on_c, 0, 59, 0
2, 44482, Note_on_c, 0, 71, 0
2, 44499, Note_on_c, 0, 65, 0
2, 44525, Note_on_c, 0, 68, 0
2, 44606, Note_on_c, 0, 56, 0
2, 44760, Note_on_c, 0, 53, 0
2, 44769, Note_on_c, 0, 50, 0
2, 44900, Control_c, 0, 64, 87
2, 44915, Control_c, 0, 64, 65
2, 44937, Control_c, 0, 64, 35
2, 44952, Control_c, 0, 64, 0
2, 45222, Note_on_c, 0, 73, 54
2, 45281, Note_on_c, 0, 74, 0
2, 45328, Note_on_c, 0, 71, 58
2, 45362, Note_on_c, 0, 73, 0
2, 45392, Note_on_c, 0, 71, 0
2, 45407, Control_c, 0, 64, 23
2, 45417, Note_on_c, 0, 69, 60
2, 45423, Control_c, 0, 64, 35
2, 45438, Control_c, 0, 64, 38
2, 45468, Control_c, 0, 64, 38
2, 45473, Note_on_c, 0, 69, 0
2, 45483, Control_c, 0, 64, 41
2, 45497, Control_c, 0, 64, 45
2, 45502, Note_on_c, 0, 68, 62
2, 45513, Control_c, 0, 64, 47
2, 45527, Control_c, 0, 64, 48
2, 45561, Note_on_c, 0, 68, 0
2, 45567, Note_on_c, 0, 66, 65
2, 45604, Note_on_c, 0, 66, 0
2, 45618, Note_on_c, 0, 64, 64
2, 45674, Note_on_c, 0, 64, 0
2, 45679, Note_on_c, 0, 66, 70
2, 45751, Note_on_c, 0, 68, 77
2, 45752, Note_on_c, 0, 66, 0
2, 45777, Note_on_c, 0, 68, 0
2, 45791, Control_c, 0, 64, 48
2, 45805, Note_on_c, 0, 69, 76
2, 45806, Control_c, 0, 64, 49
2, 45821, Control_c, 0, 64, 49
2, 45852, Note_on_c, 0, 69, 0
2, 45868, Note_on_c, 0, 71, 69
2, 45897, Control_c, 0, 64, 50
2, 45901, Note_on_c, 0, 73, 73
2, 45910, Note_on_c, 0, 71, 0
2, 45913, Control_c, 0, 64, 50
2, 45943, Control_c, 0, 64, 51
2, 45953, Note_on_c, 0, 73, 0
2, 45971, Note_on_c, 0, 74, 79
2, 46030, Note_on_c, 0, 74, 0
2, 46038, Note_on_c, 0, 76, 59
2, 46050, Note_on_c, 0, 77, 50
2, 46076, Note_on_c, 0, 77, 0
2, 46076, Note_on_c, 0, 77, 31
2, 46078, Note_on_c, 0, 76, 0
2, 46151, Note_on_c, 0, 76, 77
2, 46157, Control_c, 0, 64, 51
2, 46161, Note_on_c, 0, 77, 0
2, 46183, Note_on_c, 0, 76, 0
2, 46188, Control_c, 0, 64, 52
2, 46202, Control_c, 0, 64, 54
2, 46204, Note_on_c, 0, 74, 64
2, 46217, Control_c, 0, 64, 55
2, 46233, Control_c, 0, 64, 57
2, 46248, Control_c, 0, 64, 58
2, 46263, Control_c, 0, 64, 59
2, 46272, Note_on_c, 0, 73, 69
2, 46274, Note_on_c, 0, 74, 0
2, 46279, Control_c, 0, 64, 60
2, 46293, Control_c, 0, 64, 60
2, 46324, Control_c, 0, 64, 61
2, 46324, Note_on_c, 0, 71, 68
2, 46338, Control_c, 0, 64, 61
2, 46354, Control_c, 0, 64, 62
2, 46357, Note_on_c, 0, 71, 0
2, 46360, Note_on_c, 0, 73, 0
2, 46384, Control_c, 0, 64, 62
2, 46390, Note_on_c, 0, 69, 74
2, 46436, Note_on_c, 0, 69, 0
2, 46467, Note_on_c, 0, 68, 68
2, 46483, Control_c, 0, 64, 63
2, 46522, Note_on_c, 0, 66, 66
2, 46534, Note_on_c, 0, 68, 0
2, 46584, Note_on_c, 0, 66, 0
2, 46585, Note_on_c, 0, 64, 66
2, 46605, Control_c, 0, 64, 62
2, 46633, Note_on_c, 0, 64, 0
2, 46656, Note_on_c, 0, 62, 66
2, 46698, Note_on_c, 0, 62, 0
2, 46714, Note_on_c, 0, 61, 49
2, 46726, Control_c, 0, 64, 62
2, 46785, Note_on_c, 0, 64, 60
2, 46829, Note_on_c, 0, 67, 65
2, 46894, Note_on_c, 0, 70, 72
2, 46914, Note_on_c, 0, 73, 58
2, 46924, Control_c, 0, 64, 61
2, 46939, Control_c, 0, 64, 60
2, 46953, Note_on_c, 0, 76, 68
2, 46954, Control_c, 0, 64, 60
2, 46985, Control_c, 0, 64, 61
2, 46993, Note_on_c, 0, 73, 0
2, 47001, Control_c, 0, 64, 62
2, 47003, Note_on_c, 0, 79, 78
2, 47016, Control_c, 0, 64, 64
2, 47032, Control_c, 0, 64, 68
2, 47036, Note_on_c, 0, 70, 0
2, 47046, Control_c, 0, 64, 79
2, 47054, Note_on_c, 0, 82, 94
2, 47059, Note_on_c, 0, 76, 0
2, 47061, Control_c, 0, 64, 127
2, 47077, Note_on_c, 0, 79, 0
2, 47081, Note_on_c, 0, 64, 0
2, 47089, Note_on_c, 0, 67, 0
2, 47092, Note_on_c, 0, 82, 0
2, 47111, Note_on_c, 0, 61, 0
2, 47297, Control_c, 0, 64, 108
2, 47312, Control_c, 0, 64, 90
2, 47327, Control_c, 0, 64, 81
2, 47342, Control_c, 0, 64, 75
2, 47358, Control_c, 0, 64, 71
2, 47373, Control_c, 0, 64, 68
2, 47388, Control_c, 0, 64, 65
2, 47403, Control_c, 0, 64, 61
2, 47418, Control_c, 0, 64, 53
2, 47434, Control_c, 0, 64, 34
2, 47449, Control_c, 0, 64, 0
2, 47484, Note_on_c, 0, 62, 52
2, 47538, Note_on_c, 0, 65, 57
2, 47539, Control_c, 0, 64, 28
2, 47555, Control_c, 0, 64, 44
2, 47570, Control_c, 0, 64, 53
2, 47583, Control_c, 0, 64, 58
2, 47583, Note_on_c, 0, 68, 69
2, 47599, Control_c, 0, 64, 60
2, 47614, Control_c, 0, 64, 63
2, 47628, Note_on_c, 0, 71, 70
2, 47629, Control_c, 0, 64, 67
2, 47645, Control_c, 0, 64, 76
2, 47659, Control_c, 0, 64, 103
2, 47670, Note_on_c, 0, 71, 0
2, 47675, Control_c, 0, 64, 127
2, 47677, Note_on_c, 0, 68, 0
2, 47681, Note_on_c, 0, 74, 73
2, 47694, Note_on_c, 0, 65, 0
2, 47728, Note_on_c, 0, 77, 71
2, 47759, Note_on_c, 0, 80, 83
2, 47763, Note_on_c, 0, 62, 0
2, 47770, Note_on_c, 0, 74, 0
2, 47815, Note_on_c, 0, 83, 95
2, 47829, Note_on_c, 0, 77, 0
2, 47841, Note_on_c, 0, 80, 0
2, 47866, Note_on_c, 0, 83, 0
2, 48381, Control_c, 0, 64, 104
2, 48397, Control_c, 0, 64, 95
2, 48412, Control_c, 0, 64, 89
2, 48427, Control_c, 0, 64, 85
2, 48443, Control_c, 0, 64, 81
2, 48457, Control_c, 0, 64, 78
2, 48472, Control_c, 0, 64, 76
2, 48488, Control_c, 0, 64, 74
2, 48503, Control_c, 0, 64, 71
2, 48519, Control_c, 0, 64, 69
2, 48534, Control_c, 0, 64, 66
2, 48549, Control_c, 0, 64, 63
2, 48564, Control_c, 0, 64, 61
2, 48579, Control_c, 0, 64, 59
2, 48596, Control_c, 0, 64, 57
2, 48611, Control_c, 0, 64, 54
2, 48626, Control_c, 0, 64, 48
2, 48642, Control_c, 0, 64, 34
2, 48657, Control_c, 0, 64, 9
2, 48671, Control_c, 0, 64, 0
2, 48915, Note_on_c, 0, 74, 67
2, 48917, Note_on_c, 0, 45, 46
2, 48918, Note_on_c, 0, 69, 58
2, 48920, Note_on_c, 0, 64, 59
2, 48926, Note_on_c, 0, 57, 46
2, 48931, Note_on_c, 0, 52, 38
2, 48938, Control_c, 0, 64, 30
2, 48952, Control_c, 0, 64, 46
2, 48968, Control_c, 0, 64, 53
2, 48983, Control_c, 0, 64, 56
2, 48999, Control_c, 0, 64, 58
2, 49014, Control_c, 0, 64, 60
2, 49029, Control_c, 0, 64, 62
2, 49045, Control_c, 0, 64, 65
2, 49060, Control_c, 0, 64, 68
2, 49075, Control_c, 0, 64, 75
2, 49090, Control_c, 0, 64, 86
2, 49105, Control_c, 0, 64, 121
2, 49121, Control_c, 0, 64, 127
2, 49176, Note_on_c, 0, 57, 0
2, 49502, Note_on_c, 0, 52, 0
2, 49871, Control_c, 0, 64, 107
2, 49878, Note_on_c, 0, 73, 68
2, 49887, Control_c, 0, 64, 89
2, 49887, Note_on_c, 0, 55, 41
2, 49902, Control_c, 0, 64, 75
2, 49917, Control_c, 0, 64, 65
2, 49930, Note_on_c, 0, 74, 0
2, 49932, Control_c, 0, 64, 54
2, 49947, Control_c, 0, 64, 38
2, 49963, Control_c, 0, 64, 33
2, 49977, Control_c, 0, 64, 41
2, 49992, Control_c, 0, 64, 51
2, 50008, Control_c, 0, 64, 59
2, 50023, Control_c, 0, 64, 63
2, 50039, Control_c, 0, 64, 65
2, 50053, Control_c, 0, 64, 69
2, 50068, Control_c, 0, 64, 75
2, 50084, Control_c, 0, 64, 84
2, 50099, Control_c, 0, 64, 102
2, 50115, Control_c, 0, 64, 127
2, 50205, Note_on_c, 0, 64, 0
2, 50471, Note_on_c, 0, 69, 0
2, 50472, Note_on_c, 0, 55, 0
2, 51196, Control_c, 0, 64, 108
2, 51197, Note_on_c, 0, 66, 40
2, 51205, Note_on_c, 0, 69, 49
2, 51206, Note_on_c, 0, 74, 54
2, 51211, Control_c, 0, 64, 94
2, 51216, Note_on_c, 0, 54, 46
2, 51222, Note_on_c, 0, 57, 39
2, 51226, Control_c, 0, 64, 83
2, 51226, Note_on_c, 0, 50, 43
2, 51242, Control_c, 0, 64, 73
2, 51251, Note_on_c, 0, 45, 0
2, 51254, Control_c, 0, 64, 65
2, 51256, Note_on_c, 0, 73, 0
2, 51267, Control_c, 0, 64, 56
2, 51282, Control_c, 0, 64, 42
2, 51298, Control_c, 0, 64, 27
2, 51313, Control_c, 0, 64, 17
2, 51328, Control_c, 0, 64, 0
2, 51556, Control_c, 0, 64, 23
2, 51572, Control_c, 0, 64, 34
2, 51587, Control_c, 0, 64, 38
2, 51601, Control_c, 0, 64, 40
2, 51617, Control_c, 0, 64, 43
2, 51632, Control_c, 0, 64, 46
2, 51648, Control_c, 0, 64, 49
2, 51662, Control_c, 0, 64, 51
2, 51677, Control_c, 0, 64, 53
2, 51693, Control_c, 0, 64, 54
2, 51708, Control_c, 0, 64, 54
2, 51723, Control_c, 0, 64, 55
2, 51738, Control_c, 0, 64, 56
2, 51753, Control_c, 0, 64, 57
2, 51769, Control_c, 0, 64, 58
2, 51784, Control_c, 0, 64, 58
2, 51799, Control_c, 0, 64, 59
2, 51814, Control_c, 0, 64, 60
2, 51837, Control_c, 0, 64, 60
2, 51853, Control_c, 0, 64, 61
2, 51867, Control_c, 0, 64, 62
2, 51882, Control_c, 0, 64, 62
2, 51914, Control_c, 0, 64, 63
2, 51945, Control_c, 0, 64, 63
2, 51959, Control_c, 0, 64, 64
2, 51990, Control_c, 0, 64, 64
2, 52005, Control_c, 0, 64, 65
2, 52021, Control_c, 0, 64, 65
2, 52036, Control_c, 0, 64, 66
2, 52051, Control_c, 0, 64, 66
2, 52081, Control_c, 0, 64, 67
2, 52096, Control_c, 0, 64, 67
2, 52111, Control_c, 0, 64, 68
2, 52126, Control_c, 0, 64, 70
2, 52142, Control_c, 0, 64, 72
2, 52157, Control_c, 0, 64, 74
2, 52172, Control_c, 0, 64, 77
2, 52187, Control_c, 0, 64, 79
2, 52202, Control_c, 0, 64, 81
2, 52218, Control_c, 0, 64, 83
2, 52233, Control_c, 0, 64, 84
2, 52248, Control_c, 0, 64, 84
2, 52278, Control_c, 0, 64, 85
2, 52308, Control_c, 0, 64, 85
2, 52339, Control_c, 0, 64, 86
2, 52354, Control_c, 0, 64, 86
2, 52370, Control_c, 0, 64, 87
2, 52385, Control_c, 0, 64, 88
2, 52400, Control_c, 0, 64, 89
2, 52416, Control_c, 0, 64, 90
2, 52430, Control_c, 0, 64, 90
2, 52445, Control_c, 0, 64, 91
2, 52461, Control_c, 0, 64, 92
2, 52476, Control_c, 0, 64, 93
2, 52492, Control_c, 0, 64, 94
2, 52506, Control_c, 0, 64, 97
2, 52521, Control_c, 0, 64, 99
2, 52537, Control_c, 0, 64, 102
2, 52552, Control_c, 0, 64, 107
2, 52568, Control_c, 0, 64, 113
2, 52582, Control_c, 0, 64, 127
2, 53464, Control_c, 0, 64, 118
2, 53479, Control_c, 0, 64, 115
2, 53495, Control_c, 0, 64, 113
2, 53510, Control_c, 0, 64, 110
2, 53525, Control_c, 0, 64, 107
2, 53541, Control_c, 0, 64, 105
2, 53556, Control_c, 0, 64, 104
2, 53601, Control_c, 0, 64, 104
2, 53617, Control_c, 0, 64, 103
2, 53632, Control_c, 0, 64, 101
2, 53648, Control_c, 0, 64, 99
2, 53663, Control_c, 0, 64, 97
2, 53678, Control_c, 0, 64, 96
2, 53694, Control_c, 0, 64, 94
2, 53708, Control_c, 0, 64, 90
2, 53723, Control_c, 0, 64, 83
2, 53730, Note_on_c, 0, 57, 0
2, 53739, Control_c, 0, 64, 77
2, 53748, Note_on_c, 0, 74, 0
2, 53752, Note_on_c, 0, 69, 0
2, 53754, Control_c, 0, 64, 73
2, 53757, Note_on_c, 0, 66, 0
2, 53770, Control_c, 0, 64, 70
2, 53775, Note_on_c, 0, 50, 0
2, 53784, Control_c, 0, 64, 67
2, 53799, Control_c, 0, 64, 65
2, 53810, Note_on_c, 0, 54, 0
2, 53815, Control_c, 0, 64, 63
2, 53830, Control_c, 0, 64, 60
2, 53845, Control_c, 0, 64, 56
2, 53860, Control_c, 0, 64, 51
2, 53875, Control_c, 0, 64, 45
2, 53891, Control_c, 0, 64, 38
2, 53905, Control_c, 0, 64, 29
2, 53920, Control_c, 0, 64, 20
2, 53936, Control_c, 0, 64, 0
2, 54239,End_track
0, 0, End_of_file
