0, 0, Header, 1, 2, 480
1, 0, Start_track
1, 0, Tempo, 500000
1, 0, Time_signature, 4, 2, 24, 8
1, 1, End_track
2,0,Start_track
2,0, Note_on_c, 0, 50, 58
2,122, Note_on_c, 0, 52, 74
2,166, Note_on_c, 0, 50, 0
2,239, Note_on_c, 0, 54, 77
2,254, Note_on_c, 0, 52, 0
2,339, Note_on_c, 0, 54, 0
2,340, Note_on_c, 0, 55, 76
2,452, Note_on_c, 0, 54, 78
2,457, Note_on_c, 0, 55, 0
2,562, Note_on_c, 0, 52, 78
2,564, Note_on_c, 0, 54, 0
2,676, Note_on_c, 0, 54, 84
2,683, Note_on_c, 0, 52, 0
2,792, Note_on_c, 0, 50, 83
2,800, Note_on_c, 0, 54, 0
2,969, Note_on_c, 0, 59, 81
2,1008, Note_on_c, 0, 50, 0
2,1222, Control_c, 0, 64, 17
2,1242, Control_c, 0, 64, 53
2,1260, Control_c, 0, 64, 64
2,1279, Control_c, 0, 64, 69
2,1299, Control_c, 0, 64, 77
2,1317, Control_c, 0, 64, 94
2,1337, Control_c, 0, 64, 127
2,1669, Note_on_c, 0, 59, 0
2,1914, Note_on_c, 0, 59, 86
2,2047, Control_c, 0, 64, 91
2,2066, Control_c, 0, 64, 75
2,2085, Control_c, 0, 64, 65
2,2104, Control_c, 0, 64, 57
2,2124, Control_c, 0, 64, 48
2,2143, Control_c, 0, 64, 42
2,2162, Control_c, 0, 64, 38
2,2181, Control_c, 0, 64, 11
2,2187, Note_on_c, 0, 57, 79
2,2200, Control_c, 0, 64, 0
2,2205, Note_on_c, 0, 59, 0
2,3153, Note_on_c, 0, 55, 74
2,3209, Note_on_c, 0, 57, 0
2,3437, Note_on_c, 0, 54, 77
2,3467, Note_on_c, 0, 55, 0
2,4395, Note_on_c, 0, 55, 77
2,4455, Note_on_c, 0, 54, 0
2,4683, Note_on_c, 0, 54, 63
2,4683, Note_on_c, 0, 57, 74
2,4750, Note_on_c, 0, 55, 0
2,4810, Note_on_c, 0, 59, 79
2,4825, Note_on_c, 0, 57, 0
2,4931, Note_on_c, 0, 61, 78
2,4942, Note_on_c, 0, 59, 0
2,5036, Note_on_c, 0, 62, 75
2,5050, Note_on_c, 0, 61, 0
2,5143, Note_on_c, 0, 61, 78
2,5144, Note_on_c, 0, 62, 0
2,5251, Note_on_c, 0, 59, 81
2,5260, Note_on_c, 0, 61, 0
2,5369, Note_on_c, 0, 61, 87
2,5383, Note_on_c, 0, 59, 0
2,5398, Note_on_c, 0, 52, 67
2,5408, Note_on_c, 0, 54, 0
2,5481, Note_on_c, 0, 57, 77
2,5503, Note_on_c, 0, 61, 0
2,5658, Note_on_c, 0, 66, 86
2,5667, Note_on_c, 0, 50, 61
2,5675, Note_on_c, 0, 52, 0
2,5679, Note_on_c, 0, 57, 0
2,5926, Control_c, 0, 64, 36
2,5945, Control_c, 0, 64, 55
2,5965, Control_c, 0, 64, 61
2,5983, Control_c, 0, 64, 63
2,6003, Control_c, 0, 64, 65
2,6022, Control_c, 0, 64, 70
2,6041, Control_c, 0, 64, 78
2,6060, Control_c, 0, 64, 94
2,6079, Control_c, 0, 64, 127
2,6305, Note_on_c, 0, 66, 0
2,6596, Note_on_c, 0, 66, 82
2,6751, Control_c, 0, 64, 107
2,6771, Control_c, 0, 64, 89
2,6790, Control_c, 0, 64, 78
2,6809, Control_c, 0, 64, 69
2,6828, Control_c, 0, 64, 64
2,6848, Control_c, 0, 64, 58
2,6867, Control_c, 0, 64, 52
2,6886, Control_c, 0, 64, 44
2,6894, Note_on_c, 0, 64, 75
2,6905, Control_c, 0, 64, 17
2,6914, Note_on_c, 0, 52, 52
2,6917, Note_on_c, 0, 50, 0
2,6925, Control_c, 0, 64, 0
2,6947, Note_on_c, 0, 66, 0
2,7174, Control_c, 0, 64, 42
2,7193, Control_c, 0, 64, 60
2,7213, Control_c, 0, 64, 65
2,7231, Control_c, 0, 64, 68
2,7251, Control_c, 0, 64, 74
2,7270, Control_c, 0, 64, 89
2,7289, Control_c, 0, 64, 127
2,7825, Note_on_c, 0, 62, 60
2,7892, Note_on_c, 0, 64, 0
2,8096, Control_c, 0, 64, 110
2,8114, Control_c, 0, 64, 86
2,8114, Note_on_c, 0, 62, 0
2,8118, Note_on_c, 0, 61, 53
2,8128, Note_on_c, 0, 52, 0
2,8133, Note_on_c, 0, 45, 37
2,8134, Control_c, 0, 64, 70
2,8153, Control_c, 0, 64, 57
2,8173, Control_c, 0, 64, 0
2,8365, Control_c, 0, 64, 24
2,8383, Control_c, 0, 64, 49
2,8403, Control_c, 0, 64, 60
2,8422, Control_c, 0, 64, 64
2,8441, Control_c, 0, 64, 66
2,8460, Control_c, 0, 64, 68
2,8479, Control_c, 0, 64, 73
2,8499, Control_c, 0, 64, 84
2,8517, Control_c, 0, 64, 99
2,8537, Control_c, 0, 64, 127
2,8617, Note_on_c, 0, 45, 0
2,8921, Note_on_c, 0, 61, 0
2,9196, Note_on_c, 0, 52, 60
2,9276, Note_on_c, 0, 54, 74
2,9292, Note_on_c, 0, 52, 0
2,9342, Control_c, 0, 64, 107
2,9343, Note_on_c, 0, 55, 71
2,9358, Note_on_c, 0, 54, 0
2,9360, Control_c, 0, 64, 90
2,9380, Control_c, 0, 64, 74
2,9399, Control_c, 0, 64, 62
2,9414, Note_on_c, 0, 66, 89
2,9418, Control_c, 0, 64, 0
2,9431, Note_on_c, 0, 55, 0
2,9439, Note_on_c, 0, 57, 65
2,9706, Control_c, 0, 64, 26
2,9726, Control_c, 0, 64, 51
2,9745, Control_c, 0, 64, 63
2,9764, Control_c, 0, 64, 65
2,9783, Control_c, 0, 64, 68
2,9802, Control_c, 0, 64, 71
2,9822, Control_c, 0, 64, 81
2,9840, Control_c, 0, 64, 102
2,9860, Control_c, 0, 64, 127
2,9909, Note_on_c, 0, 66, 0
2,10354, Note_on_c, 0, 66, 81
2,10475, Control_c, 0, 64, 105
2,10495, Control_c, 0, 64, 84
2,10513, Control_c, 0, 64, 68
2,10533, Control_c, 0, 64, 50
2,10552, Control_c, 0, 64, 0
2,10657, Note_on_c, 0, 59, 74
2,10695, Note_on_c, 0, 66, 0
2,10783, Control_c, 0, 64, 41
2,10801, Control_c, 0, 64, 55
2,10821, Control_c, 0, 64, 61
2,10840, Control_c, 0, 64, 63
2,10859, Control_c, 0, 64, 64
2,10878, Control_c, 0, 64, 66
2,10898, Control_c, 0, 64, 68
2,10917, Control_c, 0, 64, 75
2,10936, Control_c, 0, 64, 89
2,10955, Control_c, 0, 64, 116
2,10975, Control_c, 0, 64, 127
2,11114, Note_on_c, 0, 59, 0
2,11569, Note_on_c, 0, 59, 60
2,11666, Note_on_c, 0, 61, 70
2,11691, Note_on_c, 0, 59, 0
2,11768, Note_on_c, 0, 62, 65
2,11800, Control_c, 0, 64, 101
2,11809, Note_on_c, 0, 61, 0
2,11819, Control_c, 0, 64, 85
2,11838, Control_c, 0, 64, 72
2,11858, Control_c, 0, 64, 63
2,11877, Control_c, 0, 64, 46
2,11896, Control_c, 0, 64, 0
2,11906, Note_on_c, 0, 55, 37
2,11935, Note_on_c, 0, 64, 65
2,12018, Note_on_c, 0, 62, 0
2,12036, Note_on_c, 0, 57, 0
2,12216, Note_on_c, 0, 62, 61
2,12292, Note_on_c, 0, 64, 0
2,12486, Note_on_c, 0, 64, 53
2,12527, Note_on_c, 0, 62, 0
2,12741, Note_on_c, 0, 61, 44
2,12788, Note_on_c, 0, 64, 0
2,13034, Note_on_c, 0, 57, 48
2,13094, Note_on_c, 0, 61, 0
2,13164, Control_c, 0, 64, 30
2,13183, Control_c, 0, 64, 49
2,13201, Control_c, 0, 64, 58
2,13221, Control_c, 0, 64, 61
2,13240, Control_c, 0, 64, 62
2,13259, Control_c, 0, 64, 63
2,13278, Control_c, 0, 64, 63
2,13298, Control_c, 0, 64, 64
2,13317, Control_c, 0, 64, 66
2,13336, Control_c, 0, 64, 69
2,13355, Control_c, 0, 64, 74
2,13375, Control_c, 0, 64, 80
2,13393, Control_c, 0, 64, 88
2,13413, Control_c, 0, 64, 94
2,13432, Control_c, 0, 64, 99
2,13452, Control_c, 0, 64, 106
2,13470, Control_c, 0, 64, 114
2,13490, Control_c, 0, 64, 127
2,13764, Note_on_c, 0, 57, 0
2,14003, Note_on_c, 0, 54, 55
2,14028, Note_on_c, 0, 55, 0
2,14099, Note_on_c, 0, 54, 0
2,14117, Note_on_c, 0, 52, 60
2,14143, Control_c, 0, 64, 100
2,14161, Control_c, 0, 64, 84
2,14181, Control_c, 0, 64, 70
2,14200, Control_c, 0, 64, 56
2,14219, Control_c, 0, 64, 0
2,14249, Note_on_c, 0, 62, 65
2,14264, Note_on_c, 0, 54, 58
2,14276, Note_on_c, 0, 52, 0
2,14367, Note_on_c, 0, 64, 70
2,14457, Note_on_c, 0, 62, 0
2,14486, Note_on_c, 0, 66, 74
2,14494, Note_on_c, 0, 64, 0
2,14601, Note_on_c, 0, 67, 73
2,14608, Note_on_c, 0, 66, 0
2,14723, Note_on_c, 0, 66, 82
2,14728, Note_on_c, 0, 67, 0
2,14838, Note_on_c, 0, 64, 79
2,14860, Note_on_c, 0, 66, 0
2,14954, Note_on_c, 0, 66, 84
2,14969, Note_on_c, 0, 50, 65
2,14974, Note_on_c, 0, 54, 0
2,14983, Note_on_c, 0, 64, 0
2,15071, Note_on_c, 0, 62, 80
2,15095, Note_on_c, 0, 66, 0
2,15274, Note_on_c, 0, 71, 85
2,15280, Note_on_c, 0, 50, 0
2,15286, Note_on_c, 0, 55, 52
2,15507, Control_c, 0, 64, 35
2,15526, Control_c, 0, 64, 54
2,15545, Control_c, 0, 64, 60
2,15565, Control_c, 0, 64, 62
2,15583, Control_c, 0, 64, 63
2,15602, Control_c, 0, 64, 64
2,15622, Control_c, 0, 64, 65
2,15641, Control_c, 0, 64, 66
2,15660, Control_c, 0, 64, 70
2,15679, Control_c, 0, 64, 76
2,15699, Control_c, 0, 64, 84
2,15717, Control_c, 0, 64, 94
2,15737, Control_c, 0, 64, 107
2,15756, Control_c, 0, 64, 127
2,15990, Note_on_c, 0, 71, 0
2,16216, Note_on_c, 0, 71, 88
2,16228, Note_on_c, 0, 52, 69
2,16231, Note_on_c, 0, 55, 0
2,16235, Control_c, 0, 64, 84
2,16255, Control_c, 0, 64, 62
2,16273, Control_c, 0, 64, 0
2,16282, Note_on_c, 0, 62, 0
2,16312, Control_c, 0, 64, 27
2,16332, Control_c, 0, 64, 58
2,16350, Control_c, 0, 64, 69
2,16370, Control_c, 0, 64, 81
2,16389, Control_c, 0, 64, 111
2,16408, Control_c, 0, 64, 127
2,16476, Note_on_c, 0, 71, 0
2,16528, Note_on_c, 0, 69, 86
2,16546, Note_on_c, 0, 52, 0
2,16546, Note_on_c, 0, 57, 61
2,16546, Note_on_c, 0, 61, 68
2,16561, Control_c, 0, 64, 119
2,16581, Control_c, 0, 64, 82
2,16600, Control_c, 0, 64, 64
2,16619, Control_c, 0, 64, 0
2,16792, Control_c, 0, 64, 36
2,16812, Control_c, 0, 64, 55
2,16830, Control_c, 0, 64, 62
2,16850, Control_c, 0, 64, 65
2,16869, Control_c, 0, 64, 67
2,16888, Control_c, 0, 64, 72
2,16907, Control_c, 0, 64, 80
2,16927, Control_c, 0, 64, 92
2,16946, Control_c, 0, 64, 108
2,16965, Control_c, 0, 64, 127
2,17215, Note_on_c, 0, 61, 0
2,17445, Note_on_c, 0, 67, 78
2,17473, Note_on_c, 0, 45, 56
2,17542, Note_on_c, 0, 69, 0
2,17637, Control_c, 0, 64, 97
2,17656, Control_c, 0, 64, 80
2,17675, Control_c, 0, 64, 67
2,17695, Control_c, 0, 64, 54
2,17713, Control_c, 0, 64, 0
2,17736, Note_on_c, 0, 45, 0
2,17751, Note_on_c, 0, 66, 69
2,17777, Note_on_c, 0, 50, 50
2,17779, Note_on_c, 0, 62, 49
2,17780, Note_on_c, 0, 57, 0
2,17842, Note_on_c, 0, 67, 0
2,17922, Control_c, 0, 64, 13
2,17942, Control_c, 0, 64, 47
2,17961, Control_c, 0, 64, 60
2,17981, Control_c, 0, 64, 64
2,17999, Control_c, 0, 64, 65
2,18019, Control_c, 0, 64, 66
2,18038, Control_c, 0, 64, 69
2,18058, Control_c, 0, 64, 73
2,18076, Control_c, 0, 64, 81
2,18096, Control_c, 0, 64, 89
2,18115, Control_c, 0, 64, 96
2,18134, Control_c, 0, 64, 109
2,18153, Control_c, 0, 64, 127
2,18318, Note_on_c, 0, 62, 0
2,18710, Control_c, 0, 64, 78
2,18730, Control_c, 0, 64, 59
2,18732, Note_on_c, 0, 50, 0
2,18733, Note_on_c, 0, 68, 86
2,18737, Note_on_c, 0, 52, 61
2,18748, Control_c, 0, 64, 37
2,18768, Control_c, 0, 64, 53
2,18779, Note_on_c, 0, 66, 0
2,18787, Control_c, 0, 64, 63
2,18806, Control_c, 0, 64, 68
2,18824, Control_c, 0, 64, 81
2,18843, Control_c, 0, 64, 127
2,18935, Note_on_c, 0, 68, 0
2,18998, Note_on_c, 0, 54, 66
2,18998, Note_on_c, 0, 69, 83
2,19002, Note_on_c, 0, 61, 61
2,19013, Note_on_c, 0, 52, 0
2,19094, Control_c, 0, 64, 106
2,19113, Control_c, 0, 64, 78
2,19133, Control_c, 0, 64, 60
2,19134, Note_on_c, 0, 71, 82
2,19152, Control_c, 0, 64, 0
2,19264, Note_on_c, 0, 73, 84
2,19275, Note_on_c, 0, 71, 0
2,19375, Note_on_c, 0, 74, 76
2,19393, Note_on_c, 0, 73, 0
2,19495, Note_on_c, 0, 73, 80
2,19499, Note_on_c, 0, 74, 0
2,19612, Note_on_c, 0, 71, 76
2,19614, Note_on_c, 0, 73, 0
2,19665, Note_on_c, 0, 69, 0
2,19697, Note_on_c, 0, 61, 0
2,19720, Note_on_c, 0, 52, 63
2,19728, Note_on_c, 0, 73, 83
2,19742, Note_on_c, 0, 71, 0
2,19743, Note_on_c, 0, 54, 0
2,19831, Note_on_c, 0, 69, 77
2,19857, Note_on_c, 0, 73, 0
2,19982, Note_on_c, 0, 52, 0
2,19992, Note_on_c, 0, 78, 91
2,20000, Note_on_c, 0, 50, 62
2,20013, Note_on_c, 0, 59, 58
2,20266, Control_c, 0, 64, 36
2,20286, Control_c, 0, 64, 50
2,20305, Control_c, 0, 64, 56
2,20323, Control_c, 0, 64, 59
2,20343, Control_c, 0, 64, 61
2,20362, Control_c, 0, 64, 62
2,20382, Control_c, 0, 64, 63
2,20400, Control_c, 0, 64, 65
2,20420, Control_c, 0, 64, 66
2,20439, Control_c, 0, 64, 68
2,20458, Control_c, 0, 64, 73
2,20477, Control_c, 0, 64, 80
2,20497, Control_c, 0, 64, 91
2,20516, Control_c, 0, 64, 109
2,20535, Control_c, 0, 64, 127
2,20714, Note_on_c, 0, 78, 0
2,20959, Note_on_c, 0, 78, 90
2,20966, Note_on_c, 0, 47, 72
2,20968, Note_on_c, 0, 50, 0
2,20978, Control_c, 0, 64, 96
2,20997, Control_c, 0, 64, 67
2,21010, Note_on_c, 0, 69, 0
2,21016, Control_c, 0, 64, 0
2,21073, Control_c, 0, 64, 54
2,21093, Control_c, 0, 64, 66
2,21112, Control_c, 0, 64, 77
2,21132, Control_c, 0, 64, 103
2,21150, Control_c, 0, 64, 127
2,21159, Note_on_c, 0, 78, 0
2,21249, Note_on_c, 0, 76, 90
2,21274, Note_on_c, 0, 52, 62
2,21277, Note_on_c, 0, 68, 62
2,21282, Note_on_c, 0, 47, 0
2,21284, Control_c, 0, 64, 102
2,21304, Control_c, 0, 64, 69
2,21323, Control_c, 0, 64, 9
2,21343, Control_c, 0, 64, 0
2,21496, Control_c, 0, 64, 43
2,21515, Control_c, 0, 64, 60
2,21535, Control_c, 0, 64, 65
2,21553, Control_c, 0, 64, 69
2,21573, Control_c, 0, 64, 76
2,21592, Control_c, 0, 64, 89
2,21612, Control_c, 0, 64, 127
2,21618, Note_on_c, 0, 68, 0
2,21742, Note_on_c, 0, 59, 0
2,21790, Note_on_c, 0, 76, 0
2,22184, Note_on_c, 0, 74, 66
2,22373, Note_on_c, 0, 52, 0
2,22453, Note_on_c, 0, 74, 0
2,22477, Note_on_c, 0, 73, 61
2,22487, Note_on_c, 0, 45, 37
2,22504, Note_on_c, 0, 69, 49
2,22513, Control_c, 0, 64, 88
2,22528, Note_on_c, 0, 57, 32
2,22533, Control_c, 0, 64, 66
2,22552, Control_c, 0, 64, 19
2,22572, Control_c, 0, 64, 0
2,22636, Note_on_c, 0, 57, 0
2,22706, Control_c, 0, 64, 19
2,22724, Control_c, 0, 64, 48
2,22744, Control_c, 0, 64, 60
2,22763, Control_c, 0, 64, 65
2,22783, Control_c, 0, 64, 69
2,22801, Control_c, 0, 64, 76
2,22821, Control_c, 0, 64, 97
2,22840, Control_c, 0, 64, 127
2,22912, Note_on_c, 0, 69, 0
2,22971, Note_on_c, 0, 73, 0
2,23047, Note_on_c, 0, 45, 0
2,23441, Note_on_c, 0, 76, 88
2,23560, Note_on_c, 0, 78, 84
2,23606, Note_on_c, 0, 76, 0
2,23673, Note_on_c, 0, 79, 83
2,23717, Note_on_c, 0, 78, 0
2,23793, Note_on_c, 0, 81, 90
2,23799, Note_on_c, 0, 79, 0
2,23800, Control_c, 0, 64, 82
2,23807, Note_on_c, 0, 73, 76
2,23816, Note_on_c, 0, 66, 69
2,23819, Control_c, 0, 64, 60
2,23838, Control_c, 0, 64, 0
2,23915, Control_c, 0, 64, 26
2,23928, Note_on_c, 0, 67, 69
2,23929, Note_on_c, 0, 66, 0
2,23935, Control_c, 0, 64, 53
2,23953, Control_c, 0, 64, 61
2,23973, Control_c, 0, 64, 63
2,24047, Note_on_c, 0, 69, 76
2,24050, Control_c, 0, 64, 62
2,24051, Note_on_c, 0, 67, 0
2,24069, Control_c, 0, 64, 59
2,24088, Control_c, 0, 64, 50
2,24107, Control_c, 0, 64, 0
2,24130, Note_on_c, 0, 69, 0
2,24146, Note_on_c, 0, 71, 78
2,24253, Note_on_c, 0, 69, 80
2,24257, Note_on_c, 0, 71, 0
2,24261, Control_c, 0, 64, 36
2,24279, Note_on_c, 0, 81, 0
2,24280, Control_c, 0, 64, 58
2,24299, Control_c, 0, 64, 65
2,24318, Control_c, 0, 64, 71
2,24338, Control_c, 0, 64, 78
2,24357, Control_c, 0, 64, 88
2,24372, Note_on_c, 0, 69, 0
2,24373, Note_on_c, 0, 67, 75
2,24376, Control_c, 0, 64, 101
2,24395, Control_c, 0, 64, 127
2,24452, Note_on_c, 0, 73, 0
2,24472, Note_on_c, 0, 67, 0
2,24484, Note_on_c, 0, 81, 91
2,24492, Note_on_c, 0, 69, 81
2,24613, Note_on_c, 0, 69, 0
2,24618, Note_on_c, 0, 66, 68
2,24637, Note_on_c, 0, 81, 0
2,24751, Note_on_c, 0, 66, 0
2,24758, Control_c, 0, 64, 93
2,24760, Note_on_c, 0, 81, 94
2,24778, Control_c, 0, 64, 72
2,24778, Note_on_c, 0, 74, 72
2,24782, Note_on_c, 0, 71, 69
2,24796, Control_c, 0, 64, 50
2,24816, Control_c, 0, 64, 0
2,25027, Control_c, 0, 64, 33
2,25047, Control_c, 0, 64, 54
2,25065, Control_c, 0, 64, 62
2,25084, Control_c, 0, 64, 64
2,25104, Control_c, 0, 64, 66
2,25122, Control_c, 0, 64, 69
2,25142, Control_c, 0, 64, 79
2,25161, Control_c, 0, 64, 102
2,25181, Control_c, 0, 64, 127
2,25193, Note_on_c, 0, 74, 0
2,25334, Note_on_c, 0, 71, 0
2,25441, Note_on_c, 0, 81, 0
2,25583, Note_on_c, 0, 74, 80
2,25698, Note_on_c, 0, 76, 83
2,25731, Note_on_c, 0, 74, 0
2,25807, Note_on_c, 0, 78, 87
2,25834, Note_on_c, 0, 76, 0
2,25884, Note_on_c, 0, 78, 0
2,25891, Control_c, 0, 64, 109
2,25910, Control_c, 0, 64, 85
2,25930, Control_c, 0, 64, 67
2,25932, Note_on_c, 0, 79, 93
2,25947, Note_on_c, 0, 64, 70
2,25947, Note_on_c, 0, 74, 77
2,25948, Control_c, 0, 64, 24
2,25968, Control_c, 0, 64, 0
2,26067, Note_on_c, 0, 66, 75
2,26082, Note_on_c, 0, 64, 0
2,26102, Control_c, 0, 64, 23
2,26121, Control_c, 0, 64, 28
2,26159, Control_c, 0, 64, 23
2,26179, Control_c, 0, 64, 0
2,26182, Note_on_c, 0, 67, 73
2,26191, Note_on_c, 0, 66, 0
2,26283, Note_on_c, 0, 67, 0
2,26293, Note_on_c, 0, 69, 77
2,26413, Note_on_c, 0, 67, 77
2,26415, Note_on_c, 0, 69, 0
2,26435, Note_on_c, 0, 79, 0
2,26524, Control_c, 0, 64, 27
2,26527, Note_on_c, 0, 67, 0
2,26535, Note_on_c, 0, 66, 73
2,26544, Control_c, 0, 64, 48
2,26563, Control_c, 0, 64, 58
2,26583, Control_c, 0, 64, 62
2,26602, Control_c, 0, 64, 63
2,26622, Control_c, 0, 64, 65
2,26640, Control_c, 0, 64, 67
2,26650, Note_on_c, 0, 66, 0
2,26650, Note_on_c, 0, 67, 77
2,26650, Note_on_c, 0, 79, 92
2,26660, Control_c, 0, 64, 74
2,26679, Control_c, 0, 64, 82
2,26698, Control_c, 0, 64, 86
2,26717, Control_c, 0, 64, 87
2,26737, Control_c, 0, 64, 89
2,26756, Control_c, 0, 64, 93
2,26773, Note_on_c, 0, 67, 0
2,26775, Control_c, 0, 64, 99
2,26778, Note_on_c, 0, 64, 74
2,26781, Note_on_c, 0, 79, 0
2,26794, Control_c, 0, 64, 109
2,26814, Control_c, 0, 64, 127
2,26893, Note_on_c, 0, 64, 0
2,26938, Note_on_c, 0, 79, 88
2,26948, Control_c, 0, 64, 107
2,26948, Note_on_c, 0, 73, 77
2,26950, Note_on_c, 0, 69, 69
2,26968, Control_c, 0, 64, 83
2,26972, Note_on_c, 0, 74, 0
2,26986, Control_c, 0, 64, 63
2,27005, Control_c, 0, 64, 0
2,27159, Control_c, 0, 64, 15
2,27178, Control_c, 0, 64, 44
2,27197, Control_c, 0, 64, 59
2,27217, Control_c, 0, 64, 64
2,27236, Control_c, 0, 64, 66
2,27255, Control_c, 0, 64, 68
2,27274, Control_c, 0, 64, 71
2,27294, Control_c, 0, 64, 79
2,27313, Control_c, 0, 64, 91
2,27332, Control_c, 0, 64, 116
2,27351, Control_c, 0, 64, 127
2,27370, Note_on_c, 0, 69, 0
2,27459, Note_on_c, 0, 79, 0
2,27845, Note_on_c, 0, 76, 87
2,27851, Control_c, 0, 64, 92
2,27858, Note_on_c, 0, 73, 0
2,27869, Control_c, 0, 64, 65
2,27889, Control_c, 0, 64, 0
2,27928, Control_c, 0, 64, 20
2,27946, Control_c, 0, 64, 56
2,27965, Control_c, 0, 64, 65
2,27970, Note_on_c, 0, 74, 83
2,27985, Control_c, 0, 64, 71
2,28003, Control_c, 0, 64, 80
2,28007, Note_on_c, 0, 76, 0
2,28023, Control_c, 0, 64, 95
2,28042, Control_c, 0, 64, 127
2,28079, Note_on_c, 0, 73, 91
2,28121, Note_on_c, 0, 74, 0
2,28215, Note_on_c, 0, 69, 82
2,28224, Note_on_c, 0, 78, 89
2,28235, Note_on_c, 0, 74, 78
2,28239, Note_on_c, 0, 38, 83
2,28264, Note_on_c, 0, 73, 0
2,28273, Control_c, 0, 64, 77
2,28292, Control_c, 0, 64, 49
2,28311, Control_c, 0, 64, 0
2,28352, Note_on_c, 0, 40, 76
2,28368, Note_on_c, 0, 38, 0
2,28473, Note_on_c, 0, 42, 80
2,28482, Note_on_c, 0, 40, 0
2,28540, Control_c, 0, 64, 48
2,28559, Control_c, 0, 64, 63
2,28574, Note_on_c, 0, 42, 0
2,28578, Control_c, 0, 64, 70
2,28578, Note_on_c, 0, 43, 77
2,28598, Control_c, 0, 64, 82
2,28616, Control_c, 0, 64, 113
2,28636, Control_c, 0, 64, 127
2,28641, Note_on_c, 0, 69, 0
2,28641, Note_on_c, 0, 78, 0
2,28644, Note_on_c, 0, 74, 0
2,28687, Note_on_c, 0, 42, 84
2,28695, Note_on_c, 0, 43, 0
2,28786, Note_on_c, 0, 42, 0
2,28790, Note_on_c, 0, 40, 77
2,28904, Control_c, 0, 64, 80
2,28913, Note_on_c, 0, 42, 80
2,28914, Note_on_c, 0, 40, 0
2,28921, Control_c, 0, 64, 53
2,28939, Note_on_c, 0, 76, 93
2,28940, Control_c, 0, 64, 0
2,28942, Note_on_c, 0, 73, 84
2,28948, Note_on_c, 0, 67, 80
2,28998, Control_c, 0, 64, 57
2,29017, Control_c, 0, 64, 68
2,29036, Control_c, 0, 64, 79
2,29051, Note_on_c, 0, 38, 82
2,29055, Control_c, 0, 64, 104
2,29063, Note_on_c, 0, 42, 0
2,29067, Note_on_c, 0, 67, 0
2,29075, Control_c, 0, 64, 127
2,29101, Note_on_c, 0, 76, 0
2,29247, Note_on_c, 0, 74, 88
2,29256, Note_on_c, 0, 47, 77
2,29256, Note_on_c, 0, 71, 79
2,29259, Note_on_c, 0, 66, 82
2,29267, Control_c, 0, 64, 117
2,29284, Note_on_c, 0, 73, 0
2,29286, Control_c, 0, 64, 77
2,29305, Control_c, 0, 64, 54
2,29305, Note_on_c, 0, 38, 0
2,29324, Control_c, 0, 64, 0
2,29534, Control_c, 0, 64, 42
2,29554, Control_c, 0, 64, 58
2,29572, Control_c, 0, 64, 63
2,29592, Control_c, 0, 64, 65
2,29611, Control_c, 0, 64, 69
2,29631, Control_c, 0, 64, 79
2,29649, Control_c, 0, 64, 104
2,29669, Control_c, 0, 64, 127
2,29832, Note_on_c, 0, 74, 0
2,29857, Note_on_c, 0, 66, 0
2,29887, Note_on_c, 0, 47, 0
2,30177, Note_on_c, 0, 76, 90
2,30188, Note_on_c, 0, 67, 76
2,30188, Note_on_c, 0, 71, 0
2,30201, Note_on_c, 0, 47, 72
2,30257, Note_on_c, 0, 67, 0
2,30357, Note_on_c, 0, 76, 0
2,30383, Note_on_c, 0, 47, 0
2,30490, Note_on_c, 0, 73, 93
2,30493, Note_on_c, 0, 45, 76
2,30499, Note_on_c, 0, 69, 76
2,30507, Note_on_c, 0, 64, 74
2,30532, Control_c, 0, 64, 105
2,30552, Control_c, 0, 64, 70
2,30571, Control_c, 0, 64, 0
2,30743, Control_c, 0, 64, 18
2,30763, Control_c, 0, 64, 54
2,30782, Control_c, 0, 64, 65
2,30802, Control_c, 0, 64, 71
2,30820, Control_c, 0, 64, 83
2,30840, Control_c, 0, 64, 127
2,31219, Note_on_c, 0, 73, 0
2,31416, Control_c, 0, 64, 74
2,31435, Control_c, 0, 64, 41
2,31448, Note_on_c, 0, 43, 58
2,31451, Note_on_c, 0, 73, 89
2,31454, Control_c, 0, 64, 0
2,31476, Note_on_c, 0, 45, 0
2,31502, Note_on_c, 0, 69, 0
2,31512, Control_c, 0, 64, 52
2,31531, Control_c, 0, 64, 67
2,31551, Control_c, 0, 64, 77
2,31569, Control_c, 0, 64, 96
2,31589, Control_c, 0, 64, 127
2,31615, Note_on_c, 0, 64, 0
2,31679, Note_on_c, 0, 73, 0
2,31953, Note_on_c, 0, 43, 0
2,31968, Note_on_c, 0, 73, 59
2,31972, Note_on_c, 0, 42, 42
2,31987, Note_on_c, 0, 69, 55
2,31988, Note_on_c, 0, 62, 42
2,31992, Control_c, 0, 64, 114
2,32011, Control_c, 0, 64, 86
2,32031, Control_c, 0, 64, 70
2,32049, Control_c, 0, 64, 51
2,32069, Control_c, 0, 64, 0
2,32245, Control_c, 0, 64, 35
2,32263, Control_c, 0, 64, 59
2,32283, Control_c, 0, 64, 68
2,32302, Control_c, 0, 64, 79
2,32321, Control_c, 0, 64, 96
2,32340, Control_c, 0, 64, 127
2,32514, Note_on_c, 0, 42, 0
2,32683, Note_on_c, 0, 62, 0
2,32820, Note_on_c, 0, 69, 0
2,32975, Note_on_c, 0, 50, 51
2,33013, Note_on_c, 0, 73, 0
2,33081, Note_on_c, 0, 50, 0
2,33094, Note_on_c, 0, 52, 60
2,33194, Note_on_c, 0, 52, 0
2,33202, Note_on_c, 0, 54, 64
2,33318, Note_on_c, 0, 54, 0
2,33321, Control_c, 0, 64, 105
2,33340, Control_c, 0, 64, 89
2,33345, Note_on_c, 0, 62, 42
2,33357, Note_on_c, 0, 71, 64
2,33359, Control_c, 0, 64, 75
2,33366, Note_on_c, 0, 55, 37
2,33378, Control_c, 0, 64, 65
2,33398, Control_c, 0, 64, 50
2,33416, Control_c, 0, 64, 27
2,33435, Control_c, 0, 64, 0
2,33463, Note_on_c, 0, 73, 68
2,33590, Note_on_c, 0, 74, 73
2,33610, Note_on_c, 0, 73, 0
2,33710, Note_on_c, 0, 76, 75
2,33715, Note_on_c, 0, 74, 0
2,33832, Note_on_c, 0, 74, 74
2,33833, Note_on_c, 0, 76, 0
2,33947, Note_on_c, 0, 74, 0
2,33953, Note_on_c, 0, 73, 73
2,34016, Note_on_c, 0, 71, 0
2,34064, Note_on_c, 0, 62, 0
2,34065, Note_on_c, 0, 73, 0
2,34068, Note_on_c, 0, 54, 59
2,34071, Note_on_c, 0, 55, 0
2,34075, Note_on_c, 0, 74, 68
2,34125, Note_on_c, 0, 74, 0
2,34178, Note_on_c, 0, 71, 55
2,34339, Note_on_c, 0, 54, 0
2,34362, Note_on_c, 0, 79, 67
2,34383, Note_on_c, 0, 61, 30
2,34646, Control_c, 0, 64, 18
2,34665, Control_c, 0, 64, 51
2,34684, Control_c, 0, 64, 63
2,34704, Control_c, 0, 64, 66
2,34723, Control_c, 0, 64, 68
2,34742, Control_c, 0, 64, 75
2,34761, Control_c, 0, 64, 90
2,34781, Control_c, 0, 64, 127
2,34938, Note_on_c, 0, 79, 0
2,35183, Note_on_c, 0, 79, 67
2,35197, Note_on_c, 0, 71, 0
2,35205, Note_on_c, 0, 49, 41
2,35433, Control_c, 0, 64, 110
2,35453, Control_c, 0, 64, 95
2,35472, Control_c, 0, 64, 80
2,35491, Control_c, 0, 64, 69
2,35499, Note_on_c, 0, 78, 61
2,35510, Control_c, 0, 64, 56
2,35513, Note_on_c, 0, 54, 39
2,35515, Note_on_c, 0, 49, 0
2,35517, Note_on_c, 0, 70, 43
2,35530, Control_c, 0, 64, 0
2,35570, Note_on_c, 0, 79, 0
2,35664, Control_c, 0, 64, 36
2,35683, Control_c, 0, 64, 57
2,35702, Control_c, 0, 64, 64
2,35721, Control_c, 0, 64, 66
2,35741, Control_c, 0, 64, 70
2,35759, Control_c, 0, 64, 78
2,35779, Control_c, 0, 64, 90
2,35798, Control_c, 0, 64, 105
2,35818, Control_c, 0, 64, 127
2,36076, Note_on_c, 0, 61, 0
2,36121, Note_on_c, 0, 54, 0
2,36217, Note_on_c, 0, 70, 0
2,36409, Note_on_c, 0, 76, 55
2,36436, Note_on_c, 0, 78, 0
2,36678, Note_on_c, 0, 76, 0
2,36681, Control_c, 0, 64, 106
2,36689, Note_on_c, 0, 47, 50
2,36701, Control_c, 0, 64, 81
2,36703, Note_on_c, 0, 74, 47
2,36719, Control_c, 0, 64, 66
2,36726, Note_on_c, 0, 59, 38
2,36729, Note_on_c, 0, 71, 41
2,36739, Control_c, 0, 64, 43
2,36758, Control_c, 0, 64, 0
2,36803, Note_on_c, 0, 49, 56
2,36834, Note_on_c, 0, 47, 0
2,36923, Note_on_c, 0, 50, 59
2,36948, Note_on_c, 0, 49, 0
2,37030, Note_on_c, 0, 50, 0
2,37044, Note_on_c, 0, 52, 62
2,37170, Note_on_c, 0, 52, 0
2,37183, Note_on_c, 0, 50, 67
2,37232, Note_on_c, 0, 71, 0
2,37277, Note_on_c, 0, 50, 0
2,37293, Note_on_c, 0, 74, 0
2,37294, Note_on_c, 0, 49, 63
2,37423, Note_on_c, 0, 49, 0
2,37430, Note_on_c, 0, 50, 62
2,37506, Note_on_c, 0, 50, 0
2,37600, Note_on_c, 0, 47, 12
2,37776, Note_on_c, 0, 83, 56
2,37779, Note_on_c, 0, 56, 44
2,37785, Note_on_c, 0, 47, 0
2,37891, Control_c, 0, 64, 29
2,37910, Control_c, 0, 64, 53
2,37930, Control_c, 0, 64, 61
2,37948, Control_c, 0, 64, 63
2,37967, Control_c, 0, 64, 63
2,37987, Control_c, 0, 64, 64
2,38007, Control_c, 0, 64, 67
2,38014, Note_on_c, 0, 59, 0
2,38026, Control_c, 0, 64, 72
2,38045, Control_c, 0, 64, 80
2,38067, Control_c, 0, 64, 88
2,38068, Note_on_c, 0, 83, 0
2,38078, Note_on_c, 0, 81, 56
2,38085, Control_c, 0, 64, 94
2,38105, Control_c, 0, 64, 101
2,38124, Control_c, 0, 64, 127
2,38250, Note_on_c, 0, 56, 0
2,38316, Control_c, 0, 64, 104
2,38336, Control_c, 0, 64, 81
2,38342, Note_on_c, 0, 83, 63
2,38353, Note_on_c, 0, 81, 0
2,38354, Control_c, 0, 64, 65
2,38374, Control_c, 0, 64, 52
2,38393, Control_c, 0, 64, 53
2,38413, Control_c, 0, 64, 60
2,38431, Control_c, 0, 64, 63
2,38451, Control_c, 0, 64, 64
2,38470, Control_c, 0, 64, 66
2,38489, Control_c, 0, 64, 71
2,38508, Control_c, 0, 64, 80
2,38527, Control_c, 0, 64, 96
2,38547, Control_c, 0, 64, 108
2,38565, Control_c, 0, 64, 109
2,38604, Control_c, 0, 64, 111
2,38623, Control_c, 0, 64, 127
2,38623, Note_on_c, 0, 80, 66
2,38650, Note_on_c, 0, 83, 0
2,38711, Note_on_c, 0, 80, 0
2,38873, Control_c, 0, 64, 102
2,38893, Control_c, 0, 64, 85
2,38908, Note_on_c, 0, 80, 55
2,38911, Control_c, 0, 64, 67
2,38916, Note_on_c, 0, 71, 36
2,38931, Control_c, 0, 64, 53
2,38932, Note_on_c, 0, 74, 22
2,38948, Control_c, 0, 64, 38
2,38967, Control_c, 0, 64, 48
2,38986, Control_c, 0, 64, 58
2,39005, Control_c, 0, 64, 62
2,39025, Control_c, 0, 64, 64
2,39043, Control_c, 0, 64, 66
2,39063, Control_c, 0, 64, 69
2,39082, Control_c, 0, 64, 73
2,39102, Control_c, 0, 64, 79
2,39120, Control_c, 0, 64, 87
2,39140, Control_c, 0, 64, 94
2,39159, Control_c, 0, 64, 101
2,39160, Note_on_c, 0, 71, 0
2,39162, Note_on_c, 0, 74, 0
2,39178, Control_c, 0, 64, 111
2,39197, Control_c, 0, 64, 127
2,39197, Note_on_c, 0, 78, 58
2,39236, Note_on_c, 0, 80, 0
2,39332, Control_c, 0, 64, 117
2,39351, Control_c, 0, 64, 105
2,39371, Control_c, 0, 64, 96
2,39389, Control_c, 0, 64, 87
2,39409, Control_c, 0, 64, 78
2,39428, Control_c, 0, 64, 69
2,39447, Control_c, 0, 64, 56
2,39465, Note_on_c, 0, 78, 0
2,39466, Control_c, 0, 64, 18
2,39485, Control_c, 0, 64, 0
2,39485, Note_on_c, 0, 80, 56
2,39600, Control_c, 0, 64, 26
2,39620, Control_c, 0, 64, 44
2,39639, Control_c, 0, 64, 56
2,39658, Control_c, 0, 64, 61
2,39677, Control_c, 0, 64, 63
2,39697, Control_c, 0, 64, 65
2,39716, Control_c, 0, 64, 67
2,39720, Note_on_c, 0, 80, 0
2,39735, Control_c, 0, 64, 71
2,39738, Note_on_c, 0, 76, 58
2,39754, Control_c, 0, 64, 77
2,39756, Note_on_c, 0, 68, 30
2,39763, Note_on_c, 0, 71, 36
2,39774, Control_c, 0, 64, 86
2,39793, Control_c, 0, 64, 96
2,39805, Note_on_c, 0, 71, 0
2,39809, Note_on_c, 0, 68, 0
2,39812, Control_c, 0, 64, 103
2,39831, Control_c, 0, 64, 108
2,39834, Note_on_c, 0, 76, 0
2,39851, Control_c, 0, 64, 117
2,39869, Control_c, 0, 64, 127
2,39945, Control_c, 0, 64, 119
2,39964, Control_c, 0, 64, 98
2,39984, Control_c, 0, 64, 79
2,40003, Control_c, 0, 64, 63
2,40013, Note_on_c, 0, 76, 52
2,40022, Control_c, 0, 64, 32
2,40039, Note_on_c, 0, 68, 27
2,40041, Control_c, 0, 64, 19
2,40048, Note_on_c, 0, 71, 37
2,40061, Control_c, 0, 64, 40
2,40079, Control_c, 0, 64, 54
2,40099, Control_c, 0, 64, 61
2,40118, Control_c, 0, 64, 63
2,40138, Control_c, 0, 64, 65
2,40156, Control_c, 0, 64, 67
2,40176, Control_c, 0, 64, 71
2,40195, Control_c, 0, 64, 81
2,40214, Control_c, 0, 64, 97
2,40233, Control_c, 0, 64, 113
2,40253, Control_c, 0, 64, 127
2,40285, Note_on_c, 0, 76, 0
2,40297, Note_on_c, 0, 74, 56
2,40300, Note_on_c, 0, 71, 0
2,40354, Note_on_c, 0, 68, 0
2,40536, Note_on_c, 0, 74, 0
2,40550, Note_on_c, 0, 76, 61
2,40559, Control_c, 0, 64, 106
2,40579, Control_c, 0, 64, 81
2,40598, Control_c, 0, 64, 65
2,40618, Control_c, 0, 64, 24
2,40636, Control_c, 0, 64, 0
2,40694, Control_c, 0, 64, 37
2,40713, Control_c, 0, 64, 58
2,40733, Control_c, 0, 64, 64
2,40752, Control_c, 0, 64, 67
2,40771, Control_c, 0, 64, 71
2,40790, Control_c, 0, 64, 78
2,40810, Control_c, 0, 64, 92
2,40828, Control_c, 0, 64, 116
2,40831, Note_on_c, 0, 73, 57
2,40833, Note_on_c, 0, 76, 0
2,40841, Note_on_c, 0, 64, 45
2,40843, Note_on_c, 0, 69, 43
2,40847, Control_c, 0, 64, 127
2,40887, Note_on_c, 0, 64, 0
2,40890, Note_on_c, 0, 69, 0
2,40905, Note_on_c, 0, 73, 0
2,41135, Control_c, 0, 64, 114
2,41143, Note_on_c, 0, 45, 58
2,41145, Note_on_c, 0, 73, 59
2,41154, Control_c, 0, 64, 90
2,41155, Note_on_c, 0, 69, 52
2,41165, Note_on_c, 0, 64, 47
2,41173, Control_c, 0, 64, 72
2,41192, Control_c, 0, 64, 55
2,41212, Control_c, 0, 64, 0
2,41250, Note_on_c, 0, 47, 66
2,41269, Note_on_c, 0, 45, 0
2,41373, Note_on_c, 0, 49, 79
2,41394, Note_on_c, 0, 47, 0
2,41404, Note_on_c, 0, 64, 0
2,41490, Note_on_c, 0, 50, 74
2,41503, Note_on_c, 0, 49, 0
2,41504, Note_on_c, 0, 69, 0
2,41565, Note_on_c, 0, 73, 0
2,41615, Note_on_c, 0, 49, 80
2,41623, Note_on_c, 0, 50, 0
2,41739, Note_on_c, 0, 47, 78
2,41741, Note_on_c, 0, 49, 0
2,41862, Note_on_c, 0, 49, 79
2,41875, Note_on_c, 0, 47, 0
2,41980, Note_on_c, 0, 49, 0
2,41998, Note_on_c, 0, 45, 61
2,42188, Note_on_c, 0, 54, 51
2,42190, Note_on_c, 0, 81, 57
2,42234, Note_on_c, 0, 45, 0
2,42326, Control_c, 0, 64, 37
2,42345, Control_c, 0, 64, 59
2,42364, Control_c, 0, 64, 63
2,42384, Control_c, 0, 64, 64
2,42403, Control_c, 0, 64, 64
2,42422, Control_c, 0, 64, 65
2,42441, Control_c, 0, 64, 67
2,42461, Control_c, 0, 64, 69
2,42479, Control_c, 0, 64, 73
2,42490, Note_on_c, 0, 79, 70
2,42499, Control_c, 0, 64, 78
2,42518, Control_c, 0, 64, 84
2,42538, Control_c, 0, 64, 89
2,42539, Note_on_c, 0, 81, 0
2,42556, Control_c, 0, 64, 92
2,42576, Control_c, 0, 64, 94
2,42595, Control_c, 0, 64, 95
2,42601, Note_on_c, 0, 54, 0
2,42614, Control_c, 0, 64, 95
2,42672, Control_c, 0, 64, 95
2,42691, Control_c, 0, 64, 92
2,42710, Control_c, 0, 64, 84
2,42730, Control_c, 0, 64, 74
2,42748, Control_c, 0, 64, 63
2,42763, Note_on_c, 0, 81, 72
2,42767, Control_c, 0, 64, 42
2,42786, Note_on_c, 0, 79, 0
2,42787, Control_c, 0, 64, 0
2,42902, Control_c, 0, 64, 29
2,42921, Control_c, 0, 64, 44
2,42941, Control_c, 0, 64, 56
2,42959, Control_c, 0, 64, 61
2,42979, Control_c, 0, 64, 64
2,42998, Control_c, 0, 64, 66
2,43018, Control_c, 0, 64, 68
2,43036, Control_c, 0, 64, 73
2,43050, Note_on_c, 0, 78, 68
2,43056, Control_c, 0, 64, 79
2,43075, Control_c, 0, 64, 86
2,43094, Control_c, 0, 64, 93
2,43095, Note_on_c, 0, 81, 0
2,43113, Control_c, 0, 64, 96
2,43133, Control_c, 0, 64, 98
2,43152, Control_c, 0, 64, 99
2,43165, Note_on_c, 0, 78, 0
2,43171, Control_c, 0, 64, 101
2,43190, Control_c, 0, 64, 102
2,43305, Control_c, 0, 64, 100
2,43321, Note_on_c, 0, 72, 43
2,43324, Control_c, 0, 64, 94
2,43331, Note_on_c, 0, 78, 58
2,43341, Note_on_c, 0, 69, 47
2,43344, Control_c, 0, 64, 85
2,43363, Control_c, 0, 64, 76
2,43382, Control_c, 0, 64, 67
2,43401, Control_c, 0, 64, 60
2,43421, Control_c, 0, 64, 56
2,43439, Control_c, 0, 64, 59
2,43459, Control_c, 0, 64, 61
2,43478, Control_c, 0, 64, 62
2,43498, Control_c, 0, 64, 63
2,43516, Control_c, 0, 64, 65
2,43536, Control_c, 0, 64, 67
2,43555, Control_c, 0, 64, 70
2,43574, Control_c, 0, 64, 76
2,43593, Control_c, 0, 64, 83
2,43611, Note_on_c, 0, 76, 60
2,43613, Control_c, 0, 64, 91
2,43632, Control_c, 0, 64, 101
2,43647, Note_on_c, 0, 72, 0
2,43651, Control_c, 0, 64, 108
2,43667, Note_on_c, 0, 78, 0
2,43669, Note_on_c, 0, 69, 0
2,43670, Control_c, 0, 64, 112
2,43765, Control_c, 0, 64, 112
2,43784, Control_c, 0, 64, 109
2,43803, Control_c, 0, 64, 104
2,43823, Control_c, 0, 64, 98
2,43843, Control_c, 0, 64, 92
2,43862, Control_c, 0, 64, 85
2,43881, Control_c, 0, 64, 77
2,43886, Note_on_c, 0, 78, 64
2,43895, Note_on_c, 0, 76, 0
2,43901, Control_c, 0, 64, 68
2,43919, Control_c, 0, 64, 57
2,43939, Control_c, 0, 64, 0
2,44093, Control_c, 0, 64, 39
2,44112, Control_c, 0, 64, 57
2,44131, Control_c, 0, 64, 63
2,44150, Control_c, 0, 64, 66
2,44166, Note_on_c, 0, 78, 0
2,44170, Control_c, 0, 64, 68
2,44173, Note_on_c, 0, 74, 49
2,44175, Note_on_c, 0, 66, 33
2,44186, Note_on_c, 0, 69, 35
2,44188, Control_c, 0, 64, 71
2,44207, Control_c, 0, 64, 76
2,44227, Control_c, 0, 64, 82
2,44227, Note_on_c, 0, 66, 0
2,44233, Note_on_c, 0, 69, 0
2,44246, Control_c, 0, 64, 87
2,44265, Control_c, 0, 64, 91
2,44280, Note_on_c, 0, 74, 0
2,44284, Control_c, 0, 64, 96
2,44304, Control_c, 0, 64, 104
2,44323, Control_c, 0, 64, 121
2,44342, Control_c, 0, 64, 127
2,44399, Control_c, 0, 64, 108
2,44419, Control_c, 0, 64, 91
2,44438, Control_c, 0, 64, 74
2,44458, Control_c, 0, 64, 60
2,44474, Note_on_c, 0, 69, 35
2,44476, Control_c, 0, 64, 0
2,44476, Note_on_c, 0, 74, 35
2,44488, Note_on_c, 0, 66, 26
2,44515, Control_c, 0, 64, 15
2,44534, Control_c, 0, 64, 37
2,44553, Control_c, 0, 64, 52
2,44573, Control_c, 0, 64, 60
2,44592, Control_c, 0, 64, 63
2,44611, Control_c, 0, 64, 64
2,44630, Control_c, 0, 64, 66
2,44650, Control_c, 0, 64, 70
2,44668, Control_c, 0, 64, 78
2,44687, Control_c, 0, 64, 93
2,44705, Control_c, 0, 64, 106
2,44724, Control_c, 0, 64, 121
2,44743, Control_c, 0, 64, 127
2,44757, Note_on_c, 0, 72, 57
2,44780, Note_on_c, 0, 74, 0
2,44841, Note_on_c, 0, 69, 0
2,44979, Note_on_c, 0, 66, 0
2,45023, Note_on_c, 0, 72, 0
2,45033, Control_c, 0, 64, 87
2,45037, Note_on_c, 0, 74, 61
2,45053, Control_c, 0, 64, 66
2,45072, Control_c, 0, 64, 34
2,45091, Control_c, 0, 64, 0
2,45130, Control_c, 0, 64, 42
2,45148, Control_c, 0, 64, 60
2,45167, Control_c, 0, 64, 65
2,45187, Control_c, 0, 64, 69
2,45206, Control_c, 0, 64, 76
2,45225, Control_c, 0, 64, 91
2,45244, Control_c, 0, 64, 112
2,45264, Control_c, 0, 64, 127
2,45301, Note_on_c, 0, 71, 64
2,45312, Note_on_c, 0, 67, 50
2,45319, Note_on_c, 0, 62, 47
2,45326, Note_on_c, 0, 74, 0
2,45366, Note_on_c, 0, 67, 0
2,45371, Note_on_c, 0, 62, 0
2,45400, Note_on_c, 0, 71, 0
2,45552, Control_c, 0, 64, 102
2,45571, Control_c, 0, 64, 89
2,45590, Control_c, 0, 64, 75
2,45599, Note_on_c, 0, 43, 64
2,45599, Note_on_c, 0, 71, 64
2,45609, Control_c, 0, 64, 63
2,45614, Note_on_c, 0, 67, 52
2,45618, Note_on_c, 0, 62, 51
2,45628, Control_c, 0, 64, 19
2,45647, Control_c, 0, 64, 0
2,45719, Note_on_c, 0, 45, 65
2,45753, Note_on_c, 0, 43, 0
2,45842, Note_on_c, 0, 47, 75
2,45857, Note_on_c, 0, 45, 0
2,45952, Note_on_c, 0, 47, 0
2,45954, Note_on_c, 0, 48, 73
2,46013, Note_on_c, 0, 62, 0
2,46078, Note_on_c, 0, 47, 80
2,46078, Note_on_c, 0, 48, 0
2,46105, Note_on_c, 0, 67, 0
2,46123, Note_on_c, 0, 71, 0
2,46204, Note_on_c, 0, 45, 79
2,46205, Note_on_c, 0, 47, 0
2,46326, Note_on_c, 0, 47, 82
2,46328, Note_on_c, 0, 45, 0
2,46443, Note_on_c, 0, 47, 0
2,46445, Note_on_c, 0, 43, 79
2,46633, Note_on_c, 0, 52, 75
2,46656, Note_on_c, 0, 67, 74
2,46706, Note_on_c, 0, 43, 0
2,46777, Note_on_c, 0, 69, 83
2,46798, Note_on_c, 0, 67, 0
2,46904, Note_on_c, 0, 71, 82
2,46931, Note_on_c, 0, 69, 0
2,47015, Note_on_c, 0, 72, 80
2,47032, Note_on_c, 0, 71, 0
2,47136, Note_on_c, 0, 71, 82
2,47136, Note_on_c, 0, 72, 0
2,47259, Note_on_c, 0, 69, 83
2,47260, Note_on_c, 0, 71, 0
2,47373, Note_on_c, 0, 71, 84
2,47377, Note_on_c, 0, 50, 68
2,47387, Note_on_c, 0, 52, 0
2,47396, Note_on_c, 0, 69, 0
2,47473, Note_on_c, 0, 71, 0
2,47493, Note_on_c, 0, 67, 76
2,47652, Note_on_c, 0, 67, 0
2,47654, Note_on_c, 0, 76, 91
2,47660, Note_on_c, 0, 48, 62
2,47684, Note_on_c, 0, 50, 0
2,47913, Control_c, 0, 64, 11
2,47933, Control_c, 0, 64, 47
2,47952, Control_c, 0, 64, 59
2,47971, Control_c, 0, 64, 64
2,47990, Control_c, 0, 64, 66
2,48009, Control_c, 0, 64, 70
2,48028, Control_c, 0, 64, 76
2,48047, Control_c, 0, 64, 89
2,48067, Control_c, 0, 64, 121
2,48086, Control_c, 0, 64, 127
2,48249, Note_on_c, 0, 76, 0
2,48515, Note_on_c, 0, 76, 88
2,48814, Note_on_c, 0, 74, 87
2,48815, Note_on_c, 0, 48, 0
2,48818, Note_on_c, 0, 50, 69
2,48835, Control_c, 0, 64, 88
2,48848, Note_on_c, 0, 76, 0
2,48854, Control_c, 0, 64, 65
2,48873, Control_c, 0, 64, 0
2,48988, Control_c, 0, 64, 45
2,49007, Control_c, 0, 64, 63
2,49027, Control_c, 0, 64, 68
2,49046, Control_c, 0, 64, 74
2,49065, Control_c, 0, 64, 84
2,49084, Control_c, 0, 64, 106
2,49104, Control_c, 0, 64, 127
2,49459, Note_on_c, 0, 50, 0
2,49706, Note_on_c, 0, 72, 87
2,49764, Note_on_c, 0, 74, 0
2,50006, Note_on_c, 0, 55, 69
2,50009, Note_on_c, 0, 71, 88
2,50052, Note_on_c, 0, 72, 0
2,50064, Control_c, 0, 64, 89
2,50083, Control_c, 0, 64, 64
2,50102, Control_c, 0, 64, 0
2,50218, Control_c, 0, 64, 43
2,50236, Control_c, 0, 64, 62
2,50256, Control_c, 0, 64, 67
2,50275, Control_c, 0, 64, 71
2,50294, Control_c, 0, 64, 78
2,50313, Control_c, 0, 64, 96
2,50333, Control_c, 0, 64, 127
2,50914, Note_on_c, 0, 73, 83
2,50923, Note_on_c, 0, 71, 0
2,50928, Note_on_c, 0, 57, 57
2,50933, Note_on_c, 0, 55, 0
2,51205, Note_on_c, 0, 59, 54
2,51208, Note_on_c, 0, 74, 70
2,51214, Note_on_c, 0, 62, 49
2,51253, Control_c, 0, 64, 97
2,51260, Note_on_c, 0, 73, 0
2,51264, Note_on_c, 0, 57, 0
2,51271, Control_c, 0, 64, 77
2,51290, Control_c, 0, 64, 65
2,51310, Control_c, 0, 64, 44
2,51328, Control_c, 0, 64, 0
2,51328, Note_on_c, 0, 64, 59
2,51448, Note_on_c, 0, 64, 0
2,51463, Note_on_c, 0, 66, 63
2,51558, Note_on_c, 0, 66, 0
2,51574, Note_on_c, 0, 67, 58
2,51676, Note_on_c, 0, 67, 0
2,51693, Note_on_c, 0, 66, 68
2,51785, Note_on_c, 0, 66, 0
2,51823, Note_on_c, 0, 64, 63
2,51899, Note_on_c, 0, 64, 0
2,51930, Note_on_c, 0, 62, 0
2,51939, Note_on_c, 0, 59, 0
2,51943, Note_on_c, 0, 66, 61
2,51962, Note_on_c, 0, 57, 41
2,52043, Note_on_c, 0, 66, 0
2,52078, Note_on_c, 0, 62, 54
2,52191, Note_on_c, 0, 62, 0
2,52234, Note_on_c, 0, 71, 48
2,52273, Note_on_c, 0, 57, 0
2,52279, Note_on_c, 0, 55, 37
2,52443, Control_c, 0, 64, 31
2,52463, Control_c, 0, 64, 50
2,52483, Control_c, 0, 64, 59
2,52502, Control_c, 0, 64, 61
2,52521, Control_c, 0, 64, 62
2,52541, Control_c, 0, 64, 63
2,52559, Control_c, 0, 64, 64
2,52579, Control_c, 0, 64, 66
2,52598, Control_c, 0, 64, 67
2,52618, Control_c, 0, 64, 70
2,52636, Control_c, 0, 64, 76
2,52656, Control_c, 0, 64, 88
2,52675, Control_c, 0, 64, 101
2,52694, Control_c, 0, 64, 115
2,52713, Control_c, 0, 64, 127
2,52821, Note_on_c, 0, 71, 0
2,53154, Note_on_c, 0, 71, 80
2,53165, Note_on_c, 0, 52, 59
2,53174, Note_on_c, 0, 55, 0
2,53196, Note_on_c, 0, 74, 0
2,53213, Control_c, 0, 64, 108
2,53232, Control_c, 0, 64, 82
2,53250, Control_c, 0, 64, 64
2,53270, Control_c, 0, 64, 0
2,53452, Note_on_c, 0, 52, 0
2,53455, Note_on_c, 0, 71, 0
2,53461, Note_on_c, 0, 73, 64
2,53470, Note_on_c, 0, 69, 61
2,53492, Note_on_c, 0, 57, 38
2,53693, Control_c, 0, 64, 35
2,53712, Control_c, 0, 64, 51
2,53730, Control_c, 0, 64, 59
2,53750, Control_c, 0, 64, 62
2,53769, Control_c, 0, 64, 63
2,53788, Control_c, 0, 64, 65
2,53807, Control_c, 0, 64, 67
2,53827, Control_c, 0, 64, 72
2,53846, Control_c, 0, 64, 84
2,53865, Control_c, 0, 64, 100
2,53884, Control_c, 0, 64, 111
2,53904, Control_c, 0, 64, 118
2,53923, Control_c, 0, 64, 127
2,54315, Note_on_c, 0, 57, 0
2,54366, Note_on_c, 0, 45, 50
2,54373, Note_on_c, 0, 69, 0
2,54374, Note_on_c, 0, 67, 59
2,54409, Note_on_c, 0, 73, 0
2,54622, Note_on_c, 0, 45, 0
2,54662, Note_on_c, 0, 47, 57
2,54676, Note_on_c, 0, 74, 67
2,54684, Note_on_c, 0, 67, 0
2,54686, Note_on_c, 0, 66, 59
2,54710, Control_c, 0, 64, 110
2,54729, Control_c, 0, 64, 85
2,54748, Control_c, 0, 64, 71
2,54767, Control_c, 0, 64, 60
2,54787, Control_c, 0, 64, 13
2,54789, Note_on_c, 0, 49, 65
2,54793, Note_on_c, 0, 47, 0
2,54806, Control_c, 0, 64, 0
2,54914, Note_on_c, 0, 50, 71
2,54916, Note_on_c, 0, 49, 0
2,55017, Note_on_c, 0, 50, 0
2,55035, Note_on_c, 0, 52, 70
2,55153, Note_on_c, 0, 52, 0
2,55161, Note_on_c, 0, 50, 74
2,55292, Note_on_c, 0, 50, 0
2,55301, Note_on_c, 0, 66, 0
2,55305, Note_on_c, 0, 49, 70
2,55423, Note_on_c, 0, 49, 0
2,55423, Note_on_c, 0, 50, 81
2,55444, Note_on_c, 0, 69, 81
2,55538, Note_on_c, 0, 50, 0
2,55551, Note_on_c, 0, 47, 77
2,55567, Note_on_c, 0, 69, 0
2,55609, Note_on_c, 0, 74, 0
2,55705, Note_on_c, 0, 59, 79
2,55708, Note_on_c, 0, 74, 75
2,55833, Note_on_c, 0, 76, 81
2,55841, Control_c, 0, 64, 26
2,55857, Note_on_c, 0, 47, 0
2,55860, Control_c, 0, 64, 53
2,55879, Control_c, 0, 64, 62
2,55899, Control_c, 0, 64, 64
2,55918, Control_c, 0, 64, 66
2,55937, Control_c, 0, 64, 69
2,55956, Control_c, 0, 64, 79
2,55957, Note_on_c, 0, 78, 84
2,55976, Control_c, 0, 64, 98
2,55986, Note_on_c, 0, 76, 0
2,55994, Control_c, 0, 64, 127
2,56076, Note_on_c, 0, 79, 83
2,56105, Note_on_c, 0, 78, 0
2,56167, Control_c, 0, 64, 105
2,56187, Control_c, 0, 64, 85
2,56205, Control_c, 0, 64, 69
2,56208, Note_on_c, 0, 78, 78
2,56213, Note_on_c, 0, 79, 0
2,56225, Control_c, 0, 64, 40
2,56244, Control_c, 0, 64, 0
2,56313, Note_on_c, 0, 76, 84
2,56323, Note_on_c, 0, 74, 0
2,56343, Note_on_c, 0, 78, 0
2,56454, Note_on_c, 0, 78, 91
2,56463, Note_on_c, 0, 57, 73
2,56476, Note_on_c, 0, 59, 0
2,56489, Note_on_c, 0, 76, 0
2,56574, Note_on_c, 0, 74, 83
2,56614, Note_on_c, 0, 78, 0
2,56759, Note_on_c, 0, 83, 91
2,56762, Note_on_c, 0, 55, 67
2,56780, Note_on_c, 0, 57, 0
2,57088, Control_c, 0, 64, 20
2,57108, Control_c, 0, 64, 36
2,57127, Control_c, 0, 64, 42
2,57147, Control_c, 0, 64, 45
2,57165, Control_c, 0, 64, 48
2,57185, Control_c, 0, 64, 54
2,57204, Control_c, 0, 64, 60
2,57223, Control_c, 0, 64, 64
2,57242, Control_c, 0, 64, 69
2,57262, Control_c, 0, 64, 76
2,57282, Control_c, 0, 64, 92
2,57301, Control_c, 0, 64, 127
2,57454, Note_on_c, 0, 83, 0
2,57707, Note_on_c, 0, 83, 93
2,57711, Note_on_c, 0, 52, 70
2,57723, Note_on_c, 0, 55, 0
2,57743, Control_c, 0, 64, 70
2,57762, Control_c, 0, 64, 43
2,57775, Note_on_c, 0, 74, 0
2,57781, Control_c, 0, 64, 0
2,57800, Control_c, 0, 64, 19
2,57820, Control_c, 0, 64, 62
2,57838, Control_c, 0, 64, 71
2,57858, Control_c, 0, 64, 85
2,57877, Control_c, 0, 64, 127
2,58005, Note_on_c, 0, 81, 96
2,58007, Note_on_c, 0, 83, 0
2,58022, Note_on_c, 0, 57, 69
2,58022, Note_on_c, 0, 72, 82
2,58034, Note_on_c, 0, 52, 0
2,58049, Control_c, 0, 64, 95
2,58069, Control_c, 0, 64, 67
2,58088, Control_c, 0, 64, 0
2,58223, Control_c, 0, 64, 25
2,58240, Control_c, 0, 64, 54
2,58259, Control_c, 0, 64, 64
2,58278, Control_c, 0, 64, 67
2,58298, Control_c, 0, 64, 73
2,58317, Control_c, 0, 64, 82
2,58336, Control_c, 0, 64, 97
2,58355, Control_c, 0, 64, 127
2,58545, Note_on_c, 0, 81, 0
2,58928, Note_on_c, 0, 79, 91
2,58942, Note_on_c, 0, 45, 65
2,59084, Control_c, 0, 64, 96
2,59103, Control_c, 0, 64, 70
2,59122, Control_c, 0, 64, 49
2,59142, Control_c, 0, 64, 0
2,59236, Note_on_c, 0, 45, 0
2,59241, Note_on_c, 0, 78, 89
2,59243, Note_on_c, 0, 50, 66
2,59285, Note_on_c, 0, 79, 0
2,59355, Control_c, 0, 64, 38
2,59375, Control_c, 0, 64, 59
2,59394, Control_c, 0, 64, 65
2,59414, Control_c, 0, 64, 69
2,59432, Control_c, 0, 64, 74
2,59451, Control_c, 0, 64, 91
2,59471, Control_c, 0, 64, 127
2,59586, Note_on_c, 0, 57, 0
2,59686, Note_on_c, 0, 50, 0
2,59797, Note_on_c, 0, 78, 0
2,59821, Note_on_c, 0, 72, 0
2,60164, Note_on_c, 0, 74, 74
2,60299, Note_on_c, 0, 76, 79
2,60361, Note_on_c, 0, 74, 0
2,60408, Note_on_c, 0, 78, 82
2,60445, Note_on_c, 0, 76, 0
2,60499, Note_on_c, 0, 78, 0
2,60547, Note_on_c, 0, 79, 89
2,60552, Note_on_c, 0, 71, 83
2,60559, Note_on_c, 0, 52, 63
2,60559, Note_on_c, 0, 55, 66
2,60603, Control_c, 0, 64, 100
2,60623, Control_c, 0, 64, 73
2,60642, Control_c, 0, 64, 41
2,60661, Control_c, 0, 64, 0
2,60685, Note_on_c, 0, 57, 65
2,60749, Note_on_c, 0, 55, 0
2,60826, Note_on_c, 0, 59, 81
2,60833, Note_on_c, 0, 57, 0
2,60931, Note_on_c, 0, 59, 0
2,60943, Note_on_c, 0, 60, 75
2,61055, Note_on_c, 0, 60, 0
2,61063, Note_on_c, 0, 59, 81
2,61141, Control_c, 0, 64, 54
2,61160, Control_c, 0, 64, 66
2,61170, Note_on_c, 0, 79, 0
2,61172, Note_on_c, 0, 59, 0
2,61180, Control_c, 0, 64, 74
2,61180, Note_on_c, 0, 57, 75
2,61198, Control_c, 0, 64, 88
2,61218, Control_c, 0, 64, 109
2,61237, Control_c, 0, 64, 127
2,61292, Note_on_c, 0, 57, 0
2,61295, Control_c, 0, 64, 99
2,61304, Note_on_c, 0, 59, 85
2,61311, Note_on_c, 0, 79, 95
2,61314, Control_c, 0, 64, 68
2,61334, Control_c, 0, 64, 0
2,61428, Note_on_c, 0, 59, 0
2,61429, Control_c, 0, 64, 53
2,61442, Note_on_c, 0, 55, 64
2,61448, Control_c, 0, 64, 70
2,61468, Control_c, 0, 64, 85
2,61486, Control_c, 0, 64, 127
2,61531, Note_on_c, 0, 71, 0
2,61549, Note_on_c, 0, 79, 0
2,61637, Note_on_c, 0, 79, 90
2,61648, Note_on_c, 0, 60, 61
2,61648, Note_on_c, 0, 64, 62
2,61655, Note_on_c, 0, 69, 73
2,61661, Note_on_c, 0, 55, 0
2,61670, Note_on_c, 0, 52, 0
2,61678, Control_c, 0, 64, 84
2,61698, Control_c, 0, 64, 59
2,61717, Control_c, 0, 64, 0
2,61871, Control_c, 0, 64, 27
2,61889, Control_c, 0, 64, 41
2,61909, Control_c, 0, 64, 50
2,61928, Control_c, 0, 64, 56
2,61948, Control_c, 0, 64, 60
2,61966, Control_c, 0, 64, 61
2,61985, Control_c, 0, 64, 63
2,62004, Control_c, 0, 64, 65
2,62024, Control_c, 0, 64, 70
2,62042, Control_c, 0, 64, 80
2,62062, Control_c, 0, 64, 102
2,62081, Control_c, 0, 64, 127
2,62315, Note_on_c, 0, 64, 0
2,62502, Note_on_c, 0, 79, 0
2,62619, Control_c, 0, 64, 86
2,62635, Note_on_c, 0, 60, 0
2,62638, Control_c, 0, 64, 65
2,62640, Note_on_c, 0, 81, 95
2,62651, Note_on_c, 0, 64, 74
2,62657, Control_c, 0, 64, 37
2,62657, Note_on_c, 0, 57, 63
2,62676, Control_c, 0, 64, 20
2,62696, Control_c, 0, 64, 56
2,62714, Control_c, 0, 64, 67
2,62734, Control_c, 0, 64, 79
2,62753, Control_c, 0, 64, 118
2,62772, Control_c, 0, 64, 127
2,62906, Note_on_c, 0, 57, 0
2,62923, Note_on_c, 0, 64, 0
2,62946, Note_on_c, 0, 62, 76
2,62954, Note_on_c, 0, 78, 94
2,62964, Control_c, 0, 64, 85
2,62966, Note_on_c, 0, 81, 0
2,62984, Control_c, 0, 64, 58
2,63002, Control_c, 0, 64, 0
2,63099, Control_c, 0, 64, 59
2,63118, Control_c, 0, 64, 69
2,63137, Control_c, 0, 64, 81
2,63156, Control_c, 0, 64, 110
2,63176, Control_c, 0, 64, 127
2,63364, Note_on_c, 0, 62, 0
2,63566, Note_on_c, 0, 78, 0
2,63960, Control_c, 0, 64, 110
2,63980, Control_c, 0, 64, 66
2,63997, Note_on_c, 0, 78, 94
2,63999, Control_c, 0, 64, 0
2,63999, Note_on_c, 0, 60, 86
2,64006, Note_on_c, 0, 50, 80
2,64050, Note_on_c, 0, 69, 0
2,64057, Control_c, 0, 64, 42
2,64075, Control_c, 0, 64, 67
2,64095, Control_c, 0, 64, 85
2,64114, Control_c, 0, 64, 127
2,64168, Note_on_c, 0, 78, 0
2,64244, Note_on_c, 0, 60, 0
2,64408, Note_on_c, 0, 78, 93
2,64416, Note_on_c, 0, 59, 79
2,64421, Note_on_c, 0, 55, 75
2,64421, Note_on_c, 0, 67, 81
2,64459, Note_on_c, 0, 50, 0
2,64479, Control_c, 0, 64, 74
2,64498, Control_c, 0, 64, 0
2,64652, Control_c, 0, 64, 42
2,64671, Control_c, 0, 64, 63
2,64691, Control_c, 0, 64, 67
2,64709, Control_c, 0, 64, 73
2,64729, Control_c, 0, 64, 93
2,64748, Control_c, 0, 64, 127
2,64880, Note_on_c, 0, 59, 0
2,64965, Note_on_c, 0, 55, 0
2,65182, Note_on_c, 0, 78, 0
2,65460, Note_on_c, 0, 67, 0
2,65531, Note_on_c, 0, 76, 85
2,65655, Note_on_c, 0, 75, 89
2,65672, Note_on_c, 0, 76, 0
2,65714, Note_on_c, 0, 75, 0
2,65786, Note_on_c, 0, 71, 90
2,65786, Note_on_c, 0, 76, 96
2,65787, Note_on_c, 0, 40, 77
2,65798, Note_on_c, 0, 67, 74
2,65905, Note_on_c, 0, 42, 80
2,65925, Note_on_c, 0, 40, 0
2,65977, Control_c, 0, 64, 121
2,65995, Control_c, 0, 64, 80
2,66015, Control_c, 0, 64, 64
2,66020, Note_on_c, 0, 43, 75
2,66034, Control_c, 0, 64, 0
2,66047, Note_on_c, 0, 42, 0
2,66141, Note_on_c, 0, 45, 73
2,66145, Note_on_c, 0, 43, 0
2,66260, Note_on_c, 0, 43, 81
2,66267, Note_on_c, 0, 45, 0
2,66382, Note_on_c, 0, 42, 77
2,66389, Note_on_c, 0, 43, 0
2,66393, Note_on_c, 0, 71, 0
2,66413, Note_on_c, 0, 67, 0
2,66515, Note_on_c, 0, 43, 78
2,66525, Note_on_c, 0, 42, 0
2,66624, Note_on_c, 0, 43, 0
2,66626, Note_on_c, 0, 40, 80
2,66774, Note_on_c, 0, 69, 83
2,66787, Note_on_c, 0, 66, 73
2,66790, Note_on_c, 0, 48, 75
2,66876, Note_on_c, 0, 40, 0
2,67181, Control_c, 0, 64, 35
2,67201, Control_c, 0, 64, 52
2,67220, Control_c, 0, 64, 60
2,67239, Control_c, 0, 64, 63
2,67258, Control_c, 0, 64, 64
2,67278, Control_c, 0, 64, 66
2,67297, Control_c, 0, 64, 69
2,67316, Control_c, 0, 64, 75
2,67335, Control_c, 0, 64, 85
2,67355, Control_c, 0, 64, 105
2,67373, Control_c, 0, 64, 127
2,67436, Note_on_c, 0, 76, 0
2,67539, Note_on_c, 0, 48, 0
2,67743, Note_on_c, 0, 75, 89
2,67752, Note_on_c, 0, 48, 68
2,67759, Control_c, 0, 64, 99
2,67779, Control_c, 0, 64, 68
2,67797, Control_c, 0, 64, 34
2,67817, Control_c, 0, 64, 0
2,67837, Control_c, 0, 64, 26
2,67856, Control_c, 0, 64, 60
2,67875, Control_c, 0, 64, 70
2,67895, Control_c, 0, 64, 82
2,67914, Control_c, 0, 64, 123
2,67933, Control_c, 0, 64, 127
2,67989, Note_on_c, 0, 75, 0
2,68055, Note_on_c, 0, 76, 93
2,68059, Note_on_c, 0, 47, 74
2,68065, Note_on_c, 0, 48, 0
2,68067, Control_c, 0, 64, 93
2,68087, Control_c, 0, 64, 66
2,68106, Control_c, 0, 64, 0
2,68278, Control_c, 0, 64, 13
2,68298, Control_c, 0, 64, 46
2,68317, Control_c, 0, 64, 59
2,68336, Control_c, 0, 64, 63
2,68355, Control_c, 0, 64, 64
2,68375, Control_c, 0, 64, 65
2,68394, Control_c, 0, 64, 68
2,68413, Control_c, 0, 64, 74
2,68432, Control_c, 0, 64, 85
2,68452, Control_c, 0, 64, 98
2,68470, Control_c, 0, 64, 118
2,68490, Control_c, 0, 64, 127
2,69032, Note_on_c, 0, 76, 0
2,69072, Note_on_c, 0, 78, 85
2,69087, Note_on_c, 0, 45, 63
2,69097, Note_on_c, 0, 47, 0
2,69105, Control_c, 0, 64, 106
2,69125, Control_c, 0, 64, 71
2,69144, Control_c, 0, 64, 0
2,69201, Control_c, 0, 64, 21
2,69221, Control_c, 0, 64, 61
2,69239, Control_c, 0, 64, 71
2,69259, Control_c, 0, 64, 86
2,69275, Note_on_c, 0, 78, 0
2,69278, Control_c, 0, 64, 127
2,69398, Note_on_c, 0, 71, 82
2,69419, Note_on_c, 0, 43, 60
2,69431, Control_c, 0, 64, 102
2,69438, Note_on_c, 0, 45, 0
2,69451, Control_c, 0, 64, 72
2,69470, Control_c, 0, 64, 41
2,69490, Control_c, 0, 64, 0
2,69605, Control_c, 0, 64, 46
2,69624, Control_c, 0, 64, 59
2,69642, Control_c, 0, 64, 63
2,69662, Control_c, 0, 64, 65
2,69681, Control_c, 0, 64, 66
2,69701, Control_c, 0, 64, 72
2,69719, Control_c, 0, 64, 84
2,69739, Control_c, 0, 64, 114
2,69758, Control_c, 0, 64, 127
2,70042, Note_on_c, 0, 71, 0
2,70144, Note_on_c, 0, 66, 0
2,70159, Note_on_c, 0, 69, 0
2,70328, Note_on_c, 0, 43, 0
2,70373, Note_on_c, 0, 42, 50
2,70375, Note_on_c, 0, 72, 66
2,70488, Note_on_c, 0, 42, 0
2,70490, Note_on_c, 0, 72, 0
2,70492, Note_on_c, 0, 69, 68
2,70640, Note_on_c, 0, 69, 0
2,70642, Note_on_c, 0, 71, 69
2,70646, Note_on_c, 0, 43, 49
2,70656, Note_on_c, 0, 64, 49
2,70661, Control_c, 0, 64, 93
2,70665, Note_on_c, 0, 67, 50
2,70679, Control_c, 0, 64, 69
2,70699, Control_c, 0, 64, 37
2,70716, Control_c, 0, 64, 0
2,70774, Control_c, 0, 64, 23
2,70793, Control_c, 0, 64, 51
2,70812, Control_c, 0, 64, 62
2,70831, Control_c, 0, 64, 63
2,70851, Control_c, 0, 64, 63
2,70870, Control_c, 0, 64, 65
2,70889, Control_c, 0, 64, 68
2,70908, Control_c, 0, 64, 71
2,70928, Control_c, 0, 64, 78
2,70946, Control_c, 0, 64, 87
2,70966, Control_c, 0, 64, 93
2,70985, Control_c, 0, 64, 101
2,71005, Control_c, 0, 64, 121
2,71023, Control_c, 0, 64, 127
2,71133, Note_on_c, 0, 43, 0
2,71274, Note_on_c, 0, 64, 0
2,71530, Note_on_c, 0, 71, 0
2,71708, Note_on_c, 0, 72, 65
2,71713, Note_on_c, 0, 54, 46
2,71721, Note_on_c, 0, 67, 0
2,71726, Note_on_c, 0, 45, 43
2,71782, Note_on_c, 0, 45, 0
2,71789, Note_on_c, 0, 54, 0
2,72063, Control_c, 0, 64, 116
2,72065, Note_on_c, 0, 67, 51
2,72082, Control_c, 0, 64, 95
2,72086, Note_on_c, 0, 64, 45
2,72089, Note_on_c, 0, 55, 35
2,72102, Control_c, 0, 64, 79
2,72117, Note_on_c, 0, 47, 28
2,72120, Control_c, 0, 64, 68
2,72140, Control_c, 0, 64, 58
2,72159, Control_c, 0, 64, 38
2,72159, Note_on_c, 0, 72, 0
2,72179, Control_c, 0, 64, 19
2,72197, Control_c, 0, 64, 18
2,72254, Control_c, 0, 64, 22
2,72274, Control_c, 0, 64, 30
2,72293, Control_c, 0, 64, 37
2,72313, Control_c, 0, 64, 45
2,72331, Control_c, 0, 64, 51
2,72351, Control_c, 0, 64, 57
2,72370, Control_c, 0, 64, 63
2,72389, Control_c, 0, 64, 65
2,72408, Control_c, 0, 64, 67
2,72428, Control_c, 0, 64, 69
2,72447, Control_c, 0, 64, 73
2,72466, Control_c, 0, 64, 82
2,72485, Control_c, 0, 64, 91
2,72505, Control_c, 0, 64, 97
2,72523, Control_c, 0, 64, 102
2,72542, Control_c, 0, 64, 109
2,72561, Control_c, 0, 64, 127
2,73176, Note_on_c, 0, 57, 36
2,73243, Note_on_c, 0, 55, 0
2,73426, Control_c, 0, 64, 118
2,73445, Control_c, 0, 64, 110
2,73465, Control_c, 0, 64, 104
2,73483, Control_c, 0, 64, 95
2,73503, Control_c, 0, 64, 85
2,73519, Note_on_c, 0, 66, 42
2,73522, Control_c, 0, 64, 73
2,73525, Note_on_c, 0, 63, 29
2,73541, Note_on_c, 0, 59, 27
2,73542, Control_c, 0, 64, 63
2,73558, Note_on_c, 0, 64, 0
2,73560, Control_c, 0, 64, 32
2,73567, Note_on_c, 0, 57, 0
2,73580, Control_c, 0, 64, 0
2,73643, Note_on_c, 0, 67, 0
2,73677, Control_c, 0, 64, 27
2,73696, Control_c, 0, 64, 54
2,73715, Control_c, 0, 64, 64
2,73734, Control_c, 0, 64, 66
2,73753, Control_c, 0, 64, 68
2,73772, Control_c, 0, 64, 73
2,73792, Control_c, 0, 64, 83
2,73811, Control_c, 0, 64, 95
2,73818, Note_on_c, 0, 47, 0
2,73830, Control_c, 0, 64, 107
2,73849, Control_c, 0, 64, 117
2,73869, Control_c, 0, 64, 127
2,74429, Note_on_c, 0, 66, 0
2,74568, Note_on_c, 0, 63, 0
2,74584, Note_on_c, 0, 57, 32
2,74612, Note_on_c, 0, 59, 0
2,74927, Note_on_c, 0, 55, 36
2,74931, Note_on_c, 0, 52, 35
2,75006, Note_on_c, 0, 64, 38
2,75059, Control_c, 0, 64, 94
2,75078, Control_c, 0, 64, 69
2,75097, Note_on_c, 0, 64, 0
2,75098, Control_c, 0, 64, 49
2,75117, Control_c, 0, 64, 0
2,75117, Note_on_c, 0, 66, 51
2,75126, Note_on_c, 0, 57, 0
2,75193, Control_c, 0, 64, 35
2,75212, Control_c, 0, 64, 57
2,75232, Control_c, 0, 64, 65
2,75244, Note_on_c, 0, 66, 0
2,75248, Note_on_c, 0, 67, 59
2,75251, Control_c, 0, 64, 67
2,75270, Control_c, 0, 64, 70
2,75289, Control_c, 0, 64, 73
2,75309, Control_c, 0, 64, 80
2,75328, Control_c, 0, 64, 88
2,75347, Control_c, 0, 64, 93
2,75356, Note_on_c, 0, 67, 0
2,75362, Note_on_c, 0, 69, 67
2,75386, Control_c, 0, 64, 91
2,75404, Control_c, 0, 64, 88
2,75424, Control_c, 0, 64, 80
2,75443, Control_c, 0, 64, 69
2,75463, Control_c, 0, 64, 53
2,75464, Note_on_c, 0, 69, 0
2,75481, Control_c, 0, 64, 0
2,75486, Note_on_c, 0, 67, 57
2,75539, Control_c, 0, 64, 50
2,75558, Control_c, 0, 64, 63
2,75580, Control_c, 0, 64, 64
2,75582, Note_on_c, 0, 67, 0
2,75600, Control_c, 0, 64, 61
2,75615, Note_on_c, 0, 66, 58
2,75618, Control_c, 0, 64, 35
2,75638, Control_c, 0, 64, 0
2,75704, Note_on_c, 0, 66, 0
2,75721, Note_on_c, 0, 67, 64
2,75734, Control_c, 0, 64, 33
2,75753, Control_c, 0, 64, 53
2,75772, Control_c, 0, 64, 61
2,75775, Note_on_c, 0, 67, 0
2,75792, Control_c, 0, 64, 63
2,75811, Control_c, 0, 64, 65
2,75830, Control_c, 0, 64, 68
2,75847, Note_on_c, 0, 64, 58
2,75849, Control_c, 0, 64, 72
2,75869, Control_c, 0, 64, 78
2,75887, Control_c, 0, 64, 84
2,75906, Control_c, 0, 64, 88
2,75926, Control_c, 0, 64, 89
2,75932, Note_on_c, 0, 64, 0
2,75983, Control_c, 0, 64, 88
2,76021, Control_c, 0, 64, 88
2,76041, Control_c, 0, 64, 87
2,76060, Control_c, 0, 64, 85
2,76080, Control_c, 0, 64, 82
2,76098, Control_c, 0, 64, 78
2,76110, Note_on_c, 0, 79, 55
2,76118, Control_c, 0, 64, 73
2,76119, Note_on_c, 0, 59, 36
2,76137, Control_c, 0, 64, 65
2,76157, Control_c, 0, 64, 44
2,76175, Control_c, 0, 64, 0
2,76192, Note_on_c, 0, 55, 0
2,76291, Control_c, 0, 64, 55
2,76310, Control_c, 0, 64, 65
2,76329, Control_c, 0, 64, 66
2,76367, Control_c, 0, 64, 66
2,76386, Control_c, 0, 64, 64
2,76406, Control_c, 0, 64, 59
2,76425, Control_c, 0, 64, 25
2,76444, Control_c, 0, 64, 0
2,76465, Note_on_c, 0, 59, 0
2,76476, Note_on_c, 0, 57, 40
2,76521, Control_c, 0, 64, 29
2,76540, Control_c, 0, 64, 55
2,76560, Control_c, 0, 64, 63
2,76578, Control_c, 0, 64, 65
2,76583, Note_on_c, 0, 52, 0
2,76617, Control_c, 0, 64, 64
2,76637, Control_c, 0, 64, 63
2,76655, Control_c, 0, 64, 60
2,76675, Control_c, 0, 64, 42
2,76694, Control_c, 0, 64, 0
2,76696, Note_on_c, 0, 79, 0
2,76730, Note_on_c, 0, 57, 0
2,76757, Note_on_c, 0, 59, 49
2,76790, Control_c, 0, 64, 44
2,76809, Control_c, 0, 64, 62
2,76829, Control_c, 0, 64, 65
2,76847, Control_c, 0, 64, 66
2,76886, Control_c, 0, 64, 67
2,76905, Control_c, 0, 64, 71
2,76924, Control_c, 0, 64, 81
2,76943, Control_c, 0, 64, 99
2,76963, Control_c, 0, 64, 127
2,77030, Note_on_c, 0, 59, 0
2,77031, Note_on_c, 0, 55, 48
2,77127, Note_on_c, 0, 55, 0
2,77318, Note_on_c, 0, 64, 56
2,77327, Control_c, 0, 64, 101
2,77328, Note_on_c, 0, 55, 38
2,77344, Note_on_c, 0, 59, 41
2,77346, Control_c, 0, 64, 74
2,77366, Control_c, 0, 64, 52
2,77385, Control_c, 0, 64, 0
2,77481, Control_c, 0, 64, 35
2,77500, Control_c, 0, 64, 57
2,77520, Control_c, 0, 64, 65
2,77538, Control_c, 0, 64, 68
2,77558, Control_c, 0, 64, 72
2,77565, Note_on_c, 0, 55, 0
2,77577, Control_c, 0, 64, 77
2,77597, Control_c, 0, 64, 85
2,77605, Note_on_c, 0, 54, 50
2,77615, Control_c, 0, 64, 94
2,77635, Control_c, 0, 64, 103
2,77654, Control_c, 0, 64, 108
2,77673, Control_c, 0, 64, 115
2,77692, Control_c, 0, 64, 127
2,77699, Note_on_c, 0, 64, 0
2,77706, Note_on_c, 0, 59, 0
2,77826, Control_c, 0, 64, 105
2,77846, Control_c, 0, 64, 79
2,77864, Note_on_c, 0, 54, 0
2,77865, Control_c, 0, 64, 64
2,77876, Note_on_c, 0, 55, 48
2,77884, Control_c, 0, 64, 41
2,77903, Control_c, 0, 64, 43
2,77923, Control_c, 0, 64, 53
2,77941, Control_c, 0, 64, 62
2,77961, Control_c, 0, 64, 66
2,77980, Control_c, 0, 64, 70
2,78000, Control_c, 0, 64, 78
2,78018, Control_c, 0, 64, 90
2,78038, Control_c, 0, 64, 96
2,78038, Note_on_c, 0, 55, 0
2,78057, Control_c, 0, 64, 92
2,78077, Control_c, 0, 64, 84
2,78095, Control_c, 0, 64, 69
2,78115, Control_c, 0, 64, 56
2,78134, Control_c, 0, 64, 40
2,78151, Note_on_c, 0, 61, 56
2,78153, Control_c, 0, 64, 50
2,78161, Note_on_c, 0, 52, 45
2,78172, Control_c, 0, 64, 59
2,78186, Note_on_c, 0, 55, 33
2,78192, Control_c, 0, 64, 64
2,78211, Control_c, 0, 64, 67
2,78230, Control_c, 0, 64, 72
2,78232, Note_on_c, 0, 52, 0
2,78249, Control_c, 0, 64, 78
2,78260, Note_on_c, 0, 55, 0
2,78269, Control_c, 0, 64, 85
2,78277, Note_on_c, 0, 61, 0
2,78287, Control_c, 0, 64, 93
2,78305, Control_c, 0, 64, 98
2,78325, Control_c, 0, 64, 98
2,78344, Control_c, 0, 64, 99
2,78382, Control_c, 0, 64, 98
2,78405, Control_c, 0, 64, 94
2,78423, Control_c, 0, 64, 85
2,78443, Control_c, 0, 64, 72
2,78451, Note_on_c, 0, 52, 38
2,78462, Control_c, 0, 64, 60
2,78465, Note_on_c, 0, 61, 47
2,78481, Control_c, 0, 64, 29
2,78500, Control_c, 0, 64, 32
2,78520, Control_c, 0, 64, 47
2,78539, Control_c, 0, 64, 57
2,78558, Control_c, 0, 64, 63
2,78577, Control_c, 0, 64, 65
2,78597, Control_c, 0, 64, 68
2,78616, Control_c, 0, 64, 71
2,78635, Control_c, 0, 64, 74
2,78654, Control_c, 0, 64, 73
2,78674, Control_c, 0, 64, 69
2,78692, Control_c, 0, 64, 62
2,78703, Note_on_c, 0, 52, 0
2,78712, Control_c, 0, 64, 31
2,78731, Control_c, 0, 64, 0
2,78751, Note_on_c, 0, 50, 37
2,78789, Control_c, 0, 64, 24
2,78808, Control_c, 0, 64, 53
2,78826, Control_c, 0, 64, 64
2,78846, Control_c, 0, 64, 68
2,78865, Control_c, 0, 64, 72
2,78885, Control_c, 0, 64, 77
2,78903, Control_c, 0, 64, 82
2,78923, Control_c, 0, 64, 83
2,78942, Control_c, 0, 64, 78
2,78961, Control_c, 0, 64, 71
2,78980, Control_c, 0, 64, 64
2,79000, Control_c, 0, 64, 51
2,79019, Control_c, 0, 64, 50
2,79023, Note_on_c, 0, 50, 0
2,79025, Note_on_c, 0, 52, 44
2,79038, Control_c, 0, 64, 61
2,79057, Control_c, 0, 64, 69
2,79077, Control_c, 0, 64, 79
2,79081, Note_on_c, 0, 61, 0
2,79096, Control_c, 0, 64, 101
2,79115, Control_c, 0, 64, 127
2,79164, Note_on_c, 0, 52, 0
2,79211, Control_c, 0, 64, 84
2,79231, Control_c, 0, 64, 65
2,79249, Control_c, 0, 64, 0
2,79323, Control_c, 0, 64, 40
2,79342, Control_c, 0, 64, 61
2,79360, Note_on_c, 0, 57, 31
2,79363, Note_on_c, 0, 52, 37
2,79366, Control_c, 0, 64, 67
2,79368, Note_on_c, 0, 49, 30
2,79384, Control_c, 0, 64, 72
2,79404, Control_c, 0, 64, 79
2,79423, Control_c, 0, 64, 86
2,79442, Control_c, 0, 64, 90
2,79461, Control_c, 0, 64, 91
2,79472, Note_on_c, 0, 57, 0
2,79476, Note_on_c, 0, 52, 0
2,79481, Note_on_c, 0, 49, 0
2,79519, Control_c, 0, 64, 92
2,79538, Control_c, 0, 64, 92
2,79576, Control_c, 0, 64, 91
2,79596, Control_c, 0, 64, 90
2,79615, Control_c, 0, 64, 89
2,79635, Control_c, 0, 64, 89
2,79653, Control_c, 0, 64, 87
2,79673, Control_c, 0, 64, 85
2,79692, Control_c, 0, 64, 82
2,79702, Note_on_c, 0, 49, 29
2,79704, Note_on_c, 0, 57, 33
2,79710, Note_on_c, 0, 52, 30
2,79712, Control_c, 0, 64, 80
2,79730, Control_c, 0, 64, 78
2,79750, Control_c, 0, 64, 73
2,79757, Note_on_c, 0, 69, 54
2,79769, Control_c, 0, 64, 68
2,79788, Control_c, 0, 64, 62
2,79807, Control_c, 0, 64, 46
2,79826, Control_c, 0, 64, 0
2,79877, Note_on_c, 0, 69, 0
2,79877, Note_on_c, 0, 71, 61
2,79997, Note_on_c, 0, 73, 69
2,80011, Note_on_c, 0, 71, 0
2,80119, Note_on_c, 0, 74, 73
2,80123, Note_on_c, 0, 73, 0
2,80242, Note_on_c, 0, 73, 78
2,80255, Note_on_c, 0, 74, 0
2,80351, Note_on_c, 0, 52, 0
2,80359, Note_on_c, 0, 71, 78
2,80367, Note_on_c, 0, 73, 0
2,80390, Note_on_c, 0, 57, 0
2,80411, Note_on_c, 0, 49, 0
2,80473, Note_on_c, 0, 73, 79
2,80485, Note_on_c, 0, 71, 0
2,80566, Note_on_c, 0, 73, 0
2,80597, Note_on_c, 0, 69, 74
2,80766, Note_on_c, 0, 69, 0
2,80802, Note_on_c, 0, 78, 66
2,80806, Note_on_c, 0, 57, 35
2,80995, Control_c, 0, 64, 33
2,81014, Control_c, 0, 64, 53
2,81033, Control_c, 0, 64, 62
2,81052, Control_c, 0, 64, 65
2,81072, Control_c, 0, 64, 66
2,81088, Note_on_c, 0, 57, 0
2,81091, Control_c, 0, 64, 69
2,81110, Control_c, 0, 64, 73
2,81117, Note_on_c, 0, 55, 39
2,81129, Control_c, 0, 64, 79
2,81149, Control_c, 0, 64, 82
2,81167, Control_c, 0, 64, 81
2,81186, Control_c, 0, 64, 78
2,81206, Control_c, 0, 64, 72
2,81225, Control_c, 0, 64, 64
2,81244, Control_c, 0, 64, 48
2,81263, Control_c, 0, 64, 0
2,81319, Control_c, 0, 64, 41
2,81338, Control_c, 0, 64, 59
2,81358, Control_c, 0, 64, 65
2,81368, Note_on_c, 0, 78, 0
2,81376, Control_c, 0, 64, 67
2,81376, Note_on_c, 0, 55, 0
2,81393, Note_on_c, 0, 57, 50
2,81396, Control_c, 0, 64, 68
2,81415, Control_c, 0, 64, 71
2,81435, Control_c, 0, 64, 75
2,81453, Control_c, 0, 64, 81
2,81473, Control_c, 0, 64, 86
2,81492, Control_c, 0, 64, 87
2,81530, Control_c, 0, 64, 87
2,81550, Control_c, 0, 64, 85
2,81569, Control_c, 0, 64, 81
2,81587, Control_c, 0, 64, 72
2,81607, Control_c, 0, 64, 61
2,81626, Control_c, 0, 64, 21
2,81646, Control_c, 0, 64, 0
2,81664, Control_c, 0, 64, 34
2,81672, Note_on_c, 0, 54, 53
2,81683, Note_on_c, 0, 57, 0
2,81684, Control_c, 0, 64, 57
2,81703, Control_c, 0, 64, 65
2,81722, Control_c, 0, 64, 69
2,81741, Control_c, 0, 64, 73
2,81761, Control_c, 0, 64, 81
2,81773, Note_on_c, 0, 54, 0
2,81780, Control_c, 0, 64, 90
2,81799, Control_c, 0, 64, 94
2,81818, Control_c, 0, 64, 95
2,81915, Control_c, 0, 64, 93
2,81933, Control_c, 0, 64, 90
2,81953, Control_c, 0, 64, 83
2,81967, Note_on_c, 0, 62, 59
2,81971, Note_on_c, 0, 54, 39
2,81972, Control_c, 0, 64, 72
2,81987, Note_on_c, 0, 57, 38
2,81992, Control_c, 0, 64, 60
2,82010, Control_c, 0, 64, 0
2,82141, Control_c, 0, 64, 38
2,82159, Control_c, 0, 64, 57
2,82178, Control_c, 0, 64, 64
2,82198, Control_c, 0, 64, 66
2,82216, Control_c, 0, 64, 69
2,82241, Note_on_c, 0, 54, 0
2,82242, Control_c, 0, 64, 75
2,82260, Note_on_c, 0, 52, 50
2,82261, Control_c, 0, 64, 84
2,82280, Control_c, 0, 64, 90
2,82299, Control_c, 0, 64, 91
2,82319, Control_c, 0, 64, 90
2,82337, Control_c, 0, 64, 87
2,82340, Note_on_c, 0, 57, 0
2,82357, Control_c, 0, 64, 84
2,82361, Note_on_c, 0, 62, 0
2,82376, Control_c, 0, 64, 77
2,82396, Control_c, 0, 64, 68
2,82414, Control_c, 0, 64, 57
2,82434, Control_c, 0, 64, 0
2,82511, Note_on_c, 0, 52, 0
2,82535, Note_on_c, 0, 54, 53
2,82549, Control_c, 0, 64, 36
2,82568, Control_c, 0, 64, 58
2,82587, Control_c, 0, 64, 65
2,82606, Control_c, 0, 64, 68
2,82625, Control_c, 0, 64, 73
2,82645, Control_c, 0, 64, 83
2,82664, Control_c, 0, 64, 91
2,82683, Control_c, 0, 64, 92
2,82702, Control_c, 0, 64, 88
2,82715, Note_on_c, 0, 54, 0
2,82722, Control_c, 0, 64, 79
2,82741, Control_c, 0, 64, 67
2,82760, Control_c, 0, 64, 55
2,82779, Control_c, 0, 64, 42
2,82799, Control_c, 0, 64, 52
2,82803, Note_on_c, 0, 59, 68
2,82817, Control_c, 0, 64, 58
2,82824, Note_on_c, 0, 50, 40
2,82837, Control_c, 0, 64, 63
2,82846, Note_on_c, 0, 54, 30
2,82856, Control_c, 0, 64, 66
2,82876, Control_c, 0, 64, 69
2,82877, Note_on_c, 0, 50, 0
2,82894, Control_c, 0, 64, 74
2,82914, Control_c, 0, 64, 81
2,82926, Note_on_c, 0, 54, 0
2,82930, Note_on_c, 0, 59, 0
2,82933, Control_c, 0, 64, 84
2,82952, Control_c, 0, 64, 85
2,82991, Control_c, 0, 64, 85
2,83048, Control_c, 0, 64, 84
2,83067, Control_c, 0, 64, 82
2,83086, Control_c, 0, 64, 76
2,83097, Note_on_c, 0, 59, 68
2,83103, Control_c, 0, 64, 66
2,83106, Note_on_c, 0, 50, 42
2,83123, Control_c, 0, 64, 43
2,83132, Note_on_c, 0, 54, 14
2,83142, Control_c, 0, 64, 0
2,83240, Control_c, 0, 64, 32
2,83259, Control_c, 0, 64, 50
2,83279, Control_c, 0, 64, 58
2,83297, Control_c, 0, 64, 60
2,83374, Control_c, 0, 64, 59
2,83374, Note_on_c, 0, 50, 0
2,83378, Note_on_c, 0, 49, 49
2,83394, Control_c, 0, 64, 58
2,83413, Control_c, 0, 64, 56
2,83432, Control_c, 0, 64, 53
2,83451, Control_c, 0, 64, 45
2,83463, Note_on_c, 0, 54, 0
2,83471, Control_c, 0, 64, 37
2,83490, Control_c, 0, 64, 31
2,83497, Note_on_c, 0, 59, 0
2,83509, Control_c, 0, 64, 30
2,83585, Control_c, 0, 64, 31
2,83605, Control_c, 0, 64, 30
2,83624, Control_c, 0, 64, 17
2,83643, Control_c, 0, 64, 0
2,83671, Note_on_c, 0, 50, 57
2,83723, Note_on_c, 0, 49, 0
2,83739, Control_c, 0, 64, 42
2,83759, Control_c, 0, 64, 61
2,83777, Control_c, 0, 64, 66
2,83797, Control_c, 0, 64, 70
2,83810, Note_on_c, 0, 50, 0
2,83816, Control_c, 0, 64, 76
2,83836, Control_c, 0, 64, 84
2,83854, Control_c, 0, 64, 92
2,83874, Control_c, 0, 64, 95
2,83893, Control_c, 0, 64, 91
2,83912, Control_c, 0, 64, 81
2,83931, Control_c, 0, 64, 70
2,83951, Control_c, 0, 64, 59
2,83970, Control_c, 0, 64, 36
2,83973, Note_on_c, 0, 55, 44
2,83986, Note_on_c, 0, 47, 39
2,83989, Control_c, 0, 64, 39
2,83991, Note_on_c, 0, 50, 43
2,84008, Control_c, 0, 64, 53
2,84027, Control_c, 0, 64, 61
2,84046, Control_c, 0, 64, 64
2,84065, Control_c, 0, 64, 66
2,84085, Control_c, 0, 64, 69
2,84104, Control_c, 0, 64, 74
2,84104, Note_on_c, 0, 50, 0
2,84116, Note_on_c, 0, 55, 0
2,84117, Note_on_c, 0, 47, 0
2,84123, Control_c, 0, 64, 79
2,84142, Control_c, 0, 64, 85
2,84163, Control_c, 0, 64, 88
2,84278, Control_c, 0, 64, 87
2,84297, Control_c, 0, 64, 85
2,84309, Note_on_c, 0, 55, 45
2,84311, Note_on_c, 0, 47, 41
2,84313, Note_on_c, 0, 50, 41
2,84317, Control_c, 0, 64, 81
2,84335, Control_c, 0, 64, 77
2,84343, Note_on_c, 0, 67, 54
2,84355, Control_c, 0, 64, 71
2,84374, Control_c, 0, 64, 64
2,84393, Control_c, 0, 64, 52
2,84412, Control_c, 0, 64, 0
2,84455, Note_on_c, 0, 69, 68
2,84466, Note_on_c, 0, 67, 0
2,84589, Note_on_c, 0, 71, 72
2,84608, Note_on_c, 0, 69, 0
2,84711, Note_on_c, 0, 72, 76
2,84717, Note_on_c, 0, 71, 0
2,84802, Note_on_c, 0, 55, 0
2,84820, Note_on_c, 0, 47, 0
2,84826, Note_on_c, 0, 50, 0
2,84834, Note_on_c, 0, 72, 0
2,84837, Note_on_c, 0, 71, 78
2,84947, Note_on_c, 0, 71, 0
2,84951, Note_on_c, 0, 69, 75
2,85079, Note_on_c, 0, 69, 0
2,85082, Note_on_c, 0, 71, 68
2,85149, Note_on_c, 0, 71, 0
2,85189, Note_on_c, 0, 67, 59
2,85368, Note_on_c, 0, 76, 62
2,85377, Note_on_c, 0, 55, 34
2,85384, Note_on_c, 0, 67, 0
2,85621, Control_c, 0, 64, 21
2,85641, Control_c, 0, 64, 51
2,85655, Note_on_c, 0, 54, 43
2,85660, Control_c, 0, 64, 63
2,85680, Control_c, 0, 64, 66
2,85693, Note_on_c, 0, 55, 0
2,85698, Control_c, 0, 64, 68
2,85718, Control_c, 0, 64, 71
2,85737, Control_c, 0, 64, 75
2,85757, Control_c, 0, 64, 82
2,85775, Control_c, 0, 64, 88
2,85795, Control_c, 0, 64, 92
2,85814, Control_c, 0, 64, 92
2,85833, Control_c, 0, 64, 91
2,85849, Note_on_c, 0, 76, 0
2,85852, Control_c, 0, 64, 87
2,85872, Control_c, 0, 64, 80
2,85891, Control_c, 0, 64, 70
2,85910, Control_c, 0, 64, 57
2,85929, Control_c, 0, 64, 0
2,85930, Note_on_c, 0, 54, 0
2,85941, Note_on_c, 0, 55, 50
2,86024, Control_c, 0, 64, 34
2,86043, Control_c, 0, 64, 49
2,86062, Control_c, 0, 64, 56
2,86083, Control_c, 0, 64, 58
2,86101, Control_c, 0, 64, 59
2,86121, Control_c, 0, 64, 60
2,86140, Control_c, 0, 64, 62
2,86160, Control_c, 0, 64, 65
2,86178, Control_c, 0, 64, 68
2,86198, Control_c, 0, 64, 73
2,86208, Note_on_c, 0, 55, 0
2,86217, Control_c, 0, 64, 80
2,86230, Note_on_c, 0, 52, 55
2,86237, Control_c, 0, 64, 85
2,86255, Control_c, 0, 64, 88
2,86275, Control_c, 0, 64, 89
2,86294, Control_c, 0, 64, 90
2,86313, Control_c, 0, 64, 92
2,86332, Control_c, 0, 64, 93
2,86343, Note_on_c, 0, 52, 0
2,86352, Control_c, 0, 64, 94
2,86447, Control_c, 0, 64, 93
2,86466, Control_c, 0, 64, 92
2,86486, Control_c, 0, 64, 90
2,86505, Control_c, 0, 64, 88
2,86516, Note_on_c, 0, 61, 64
2,86524, Control_c, 0, 64, 85
2,86532, Note_on_c, 0, 52, 44
2,86538, Note_on_c, 0, 55, 43
2,86543, Control_c, 0, 64, 81
2,86563, Control_c, 0, 64, 73
2,86581, Control_c, 0, 64, 63
2,86601, Control_c, 0, 64, 23
2,86620, Control_c, 0, 64, 0
2,86717, Control_c, 0, 64, 20
2,86735, Control_c, 0, 64, 48
2,86755, Control_c, 0, 64, 60
2,86774, Control_c, 0, 64, 64
2,86780, Note_on_c, 0, 52, 0
2,86792, Note_on_c, 0, 50, 49
2,86793, Control_c, 0, 64, 65
2,86812, Control_c, 0, 64, 66
2,86832, Control_c, 0, 64, 67
2,86851, Control_c, 0, 64, 72
2,86870, Control_c, 0, 64, 78
2,86881, Note_on_c, 0, 55, 0
2,86889, Control_c, 0, 64, 84
2,86899, Note_on_c, 0, 61, 0
2,86908, Control_c, 0, 64, 85
2,86966, Control_c, 0, 64, 86
2,87023, Control_c, 0, 64, 85
2,87043, Control_c, 0, 64, 82
2,87061, Control_c, 0, 64, 76
2,87081, Control_c, 0, 64, 67
2,87082, Note_on_c, 0, 52, 48
2,87084, Note_on_c, 0, 50, 0
2,87100, Control_c, 0, 64, 50
2,87120, Control_c, 0, 64, 0
2,87197, Control_c, 0, 64, 32
2,87215, Control_c, 0, 64, 55
2,87235, Control_c, 0, 64, 64
2,87243, Note_on_c, 0, 52, 0
2,87273, Control_c, 0, 64, 61
2,87292, Control_c, 0, 64, 54
2,87312, Control_c, 0, 64, 40
2,87350, Control_c, 0, 64, 49
2,87361, Note_on_c, 0, 57, 62
2,87369, Control_c, 0, 64, 57
2,87375, Note_on_c, 0, 49, 45
2,87385, Note_on_c, 0, 52, 47
2,87388, Control_c, 0, 64, 64
2,87407, Control_c, 0, 64, 68
2,87426, Control_c, 0, 64, 72
2,87446, Control_c, 0, 64, 80
2,87465, Control_c, 0, 64, 87
2,87482, Note_on_c, 0, 52, 0
2,87484, Control_c, 0, 64, 90
2,87486, Note_on_c, 0, 49, 0
2,87503, Control_c, 0, 64, 91
2,87503, Note_on_c, 0, 57, 0
2,87580, Control_c, 0, 64, 91
2,87600, Control_c, 0, 64, 86
2,87618, Control_c, 0, 64, 76
2,87638, Control_c, 0, 64, 65
2,87649, Note_on_c, 0, 49, 52
2,87657, Control_c, 0, 64, 47
2,87660, Note_on_c, 0, 57, 63
2,87677, Control_c, 0, 64, 0
2,87687, Note_on_c, 0, 52, 33
2,87695, Control_c, 0, 64, 17
2,87715, Control_c, 0, 64, 38
2,87734, Control_c, 0, 64, 56
2,87753, Control_c, 0, 64, 64
2,87772, Control_c, 0, 64, 67
2,87792, Control_c, 0, 64, 70
2,87811, Control_c, 0, 64, 75
2,87830, Control_c, 0, 64, 83
2,87849, Control_c, 0, 64, 90
2,87868, Control_c, 0, 64, 91
2,87926, Note_on_c, 0, 49, 0
2,87943, Note_on_c, 0, 47, 51
2,87990, Note_on_c, 0, 52, 0
2,88020, Control_c, 0, 64, 91
2,88058, Control_c, 0, 64, 90
2,88078, Control_c, 0, 64, 89
2,88096, Control_c, 0, 64, 86
2,88099, Note_on_c, 0, 57, 0
2,88116, Control_c, 0, 64, 82
2,88135, Control_c, 0, 64, 74
2,88155, Control_c, 0, 64, 62
2,88173, Control_c, 0, 64, 0
2,88218, Note_on_c, 0, 49, 55
2,88248, Note_on_c, 0, 47, 0
2,88270, Control_c, 0, 64, 30
2,88289, Control_c, 0, 64, 60
2,88307, Control_c, 0, 64, 70
2,88327, Control_c, 0, 64, 82
2,88346, Control_c, 0, 64, 105
2,88366, Control_c, 0, 64, 127
2,88387, Note_on_c, 0, 49, 0
2,88404, Control_c, 0, 64, 111
2,88423, Control_c, 0, 64, 80
2,88442, Control_c, 0, 64, 64
2,88461, Control_c, 0, 64, 11
2,88481, Control_c, 0, 64, 0
2,88500, Control_c, 0, 64, 28
2,88519, Control_c, 0, 64, 57
2,88525, Note_on_c, 0, 49, 49
2,88527, Note_on_c, 0, 54, 50
2,88534, Note_on_c, 0, 45, 44
2,88538, Control_c, 0, 64, 65
2,88558, Control_c, 0, 64, 70
2,88576, Control_c, 0, 64, 75
2,88596, Control_c, 0, 64, 81
2,88615, Control_c, 0, 64, 87
2,88630, Note_on_c, 0, 49, 0
2,88631, Note_on_c, 0, 54, 0
2,88634, Note_on_c, 0, 45, 0
2,88635, Control_c, 0, 64, 93
2,88653, Control_c, 0, 64, 99
2,88673, Control_c, 0, 64, 101
2,88750, Control_c, 0, 64, 101
2,88787, Control_c, 0, 64, 101
2,88826, Control_c, 0, 64, 100
2,88846, Control_c, 0, 64, 99
2,88857, Note_on_c, 0, 54, 33
2,88864, Control_c, 0, 64, 97
2,88868, Note_on_c, 0, 49, 40
2,88876, Note_on_c, 0, 45, 26
2,88879, Note_on_c, 0, 66, 52
2,88884, Control_c, 0, 64, 94
2,88903, Control_c, 0, 64, 88
2,88922, Control_c, 0, 64, 78
2,88941, Control_c, 0, 64, 68
2,88963, Control_c, 0, 64, 51
2,88981, Control_c, 0, 64, 0
2,88981, Note_on_c, 0, 66, 0
2,88999, Note_on_c, 0, 67, 55
2,89107, Note_on_c, 0, 67, 0
2,89114, Note_on_c, 0, 69, 63
2,89226, Note_on_c, 0, 69, 0
2,89237, Note_on_c, 0, 71, 66
2,89366, Note_on_c, 0, 71, 0
2,89370, Note_on_c, 0, 69, 70
2,89406, Note_on_c, 0, 45, 0
2,89425, Note_on_c, 0, 49, 0
2,89432, Note_on_c, 0, 54, 0
2,89466, Note_on_c, 0, 69, 0
2,89478, Note_on_c, 0, 67, 59
2,89611, Note_on_c, 0, 67, 0
2,89625, Note_on_c, 0, 69, 55
2,89688, Note_on_c, 0, 69, 0
2,89738, Note_on_c, 0, 66, 51
2,89889, Note_on_c, 0, 74, 61
2,89894, Note_on_c, 0, 66, 0
2,89915, Note_on_c, 0, 59, 43
2,89999, Control_c, 0, 64, 39
2,90005, Note_on_c, 0, 59, 0
2,90017, Control_c, 0, 64, 58
2,90035, Note_on_c, 0, 61, 58
2,90037, Control_c, 0, 64, 64
2,90056, Control_c, 0, 64, 67
2,90076, Control_c, 0, 64, 71
2,90094, Control_c, 0, 64, 76
2,90114, Control_c, 0, 64, 87
2,90120, Note_on_c, 0, 61, 0
2,90133, Control_c, 0, 64, 110
2,90152, Control_c, 0, 64, 127
2,90170, Note_on_c, 0, 62, 54
2,90235, Note_on_c, 0, 62, 0
2,90283, Note_on_c, 0, 64, 61
2,90344, Control_c, 0, 64, 84
2,90363, Control_c, 0, 64, 64
2,90382, Control_c, 0, 64, 0
2,90388, Note_on_c, 0, 64, 0
2,90406, Note_on_c, 0, 62, 61
2,90440, Control_c, 0, 64, 21
2,90459, Control_c, 0, 64, 54
2,90479, Control_c, 0, 64, 65
2,90497, Control_c, 0, 64, 69
2,90515, Note_on_c, 0, 74, 0
2,90517, Control_c, 0, 64, 75
2,90517, Note_on_c, 0, 62, 0
2,90536, Control_c, 0, 64, 85
2,90541, Note_on_c, 0, 61, 64
2,90556, Control_c, 0, 64, 101
2,90574, Control_c, 0, 64, 127
2,90622, Note_on_c, 0, 61, 0
2,90655, Note_on_c, 0, 74, 76
2,90664, Note_on_c, 0, 62, 66
2,90746, Note_on_c, 0, 74, 0
2,90751, Note_on_c, 0, 62, 0
2,90775, Note_on_c, 0, 59, 67
2,90902, Note_on_c, 0, 59, 0
2,90920, Control_c, 0, 64, 101
2,90923, Note_on_c, 0, 52, 58
2,90933, Note_on_c, 0, 74, 82
2,90939, Control_c, 0, 64, 70
2,90955, Note_on_c, 0, 67, 66
2,90959, Control_c, 0, 64, 23
2,90977, Control_c, 0, 64, 0
2,91054, Control_c, 0, 64, 30
2,91054, Note_on_c, 0, 52, 0
2,91060, Note_on_c, 0, 54, 65
2,91074, Control_c, 0, 64, 58
2,91093, Control_c, 0, 64, 66
2,91112, Control_c, 0, 64, 70
2,91131, Control_c, 0, 64, 75
2,91148, Control_c, 0, 64, 83
2,91167, Control_c, 0, 64, 94
2,91186, Control_c, 0, 64, 101
2,91189, Note_on_c, 0, 54, 0
2,91193, Note_on_c, 0, 55, 80
2,91205, Control_c, 0, 64, 104
2,91225, Control_c, 0, 64, 104
2,91243, Control_c, 0, 64, 105
2,91263, Control_c, 0, 64, 108
2,91282, Control_c, 0, 64, 115
2,91293, Note_on_c, 0, 55, 0
2,91302, Control_c, 0, 64, 127
2,91315, Note_on_c, 0, 57, 74
2,91436, Control_c, 0, 64, 110
2,91436, Note_on_c, 0, 55, 77
2,91437, Note_on_c, 0, 57, 0
2,91454, Control_c, 0, 64, 97
2,91474, Control_c, 0, 64, 81
2,91493, Control_c, 0, 64, 64
2,91513, Control_c, 0, 64, 0
2,91548, Note_on_c, 0, 55, 0
2,91560, Note_on_c, 0, 54, 75
2,91666, Control_c, 0, 64, 15
2,91685, Control_c, 0, 64, 44
2,91685, Note_on_c, 0, 54, 0
2,91687, Note_on_c, 0, 67, 0
2,91693, Note_on_c, 0, 55, 70
2,91705, Control_c, 0, 64, 63
2,91707, Note_on_c, 0, 76, 89
2,91709, Note_on_c, 0, 67, 40
2,91723, Control_c, 0, 64, 70
2,91742, Control_c, 0, 64, 78
2,91752, Note_on_c, 0, 74, 0
2,91761, Control_c, 0, 64, 91
2,91781, Control_c, 0, 64, 114
2,91799, Control_c, 0, 64, 127
2,91815, Note_on_c, 0, 55, 0
2,91827, Note_on_c, 0, 52, 70
2,91870, Note_on_c, 0, 52, 0
2,91895, Note_on_c, 0, 76, 0
2,91995, Control_c, 0, 64, 110
2,92004, Note_on_c, 0, 74, 75
2,92008, Note_on_c, 0, 57, 59
2,92014, Control_c, 0, 64, 70
2,92034, Control_c, 0, 64, 0
2,92074, Note_on_c, 0, 74, 0
2,92083, Note_on_c, 0, 73, 74
2,92111, Control_c, 0, 64, 51
2,92125, Note_on_c, 0, 59, 67
2,92129, Control_c, 0, 64, 71
2,92140, Note_on_c, 0, 74, 73
2,92149, Control_c, 0, 64, 89
2,92159, Note_on_c, 0, 73, 0
2,92168, Control_c, 0, 64, 127
2,92227, Note_on_c, 0, 73, 84
2,92238, Note_on_c, 0, 74, 0
2,92244, Note_on_c, 0, 59, 0
2,92252, Note_on_c, 0, 61, 68
2,92322, Control_c, 0, 64, 112
2,92341, Control_c, 0, 64, 69
2,92358, Note_on_c, 0, 61, 0
2,92360, Control_c, 0, 64, 0
2,92376, Note_on_c, 0, 62, 70
2,92448, Note_on_c, 0, 67, 0
2,92475, Control_c, 0, 64, 50
2,92494, Control_c, 0, 64, 63
2,92509, Note_on_c, 0, 61, 75
2,92512, Note_on_c, 0, 62, 0
2,92514, Control_c, 0, 64, 69
2,92533, Control_c, 0, 64, 76
2,92544, Note_on_c, 0, 57, 0
2,92552, Control_c, 0, 64, 99
2,92571, Control_c, 0, 64, 127
2,92615, Note_on_c, 0, 61, 0
2,92628, Note_on_c, 0, 59, 74
2,92736, Note_on_c, 0, 59, 0
2,92743, Note_on_c, 0, 61, 79
2,92758, Note_on_c, 0, 74, 82
2,92788, Note_on_c, 0, 73, 0
2,92834, Note_on_c, 0, 61, 0
2,92867, Note_on_c, 0, 57, 64
2,92874, Note_on_c, 0, 76, 85
2,92903, Note_on_c, 0, 57, 0
2,92910, Note_on_c, 0, 74, 0
2,93013, Note_on_c, 0, 78, 89
2,93015, Note_on_c, 0, 66, 83
2,93021, Note_on_c, 0, 62, 77
2,93026, Note_on_c, 0, 50, 78
2,93051, Note_on_c, 0, 76, 0
2,93069, Control_c, 0, 64, 94
2,93088, Control_c, 0, 64, 57
2,93107, Control_c, 0, 64, 0
2,93150, Note_on_c, 0, 52, 73
2,93197, Note_on_c, 0, 50, 0
2,93283, Note_on_c, 0, 54, 77
2,93310, Note_on_c, 0, 52, 0
2,93402, Note_on_c, 0, 55, 77
2,93404, Note_on_c, 0, 54, 0
2,93504, Note_on_c, 0, 66, 0
2,93526, Note_on_c, 0, 54, 80
2,93541, Note_on_c, 0, 55, 0
2,93639, Note_on_c, 0, 78, 0
2,93656, Note_on_c, 0, 52, 70
2,93683, Note_on_c, 0, 54, 0
2,93805, Note_on_c, 0, 54, 72
2,93807, Note_on_c, 0, 52, 0
2,93940, Note_on_c, 0, 54, 0
2,93965, Note_on_c, 0, 50, 53
2,94181, Note_on_c, 0, 50, 0
2,94214, Note_on_c, 0, 83, 56
2,94254, Note_on_c, 0, 55, 15
2,94373, Control_c, 0, 64, 46
2,94393, Control_c, 0, 64, 61
2,94411, Control_c, 0, 64, 65
2,94431, Control_c, 0, 64, 67
2,94450, Control_c, 0, 64, 71
2,94454, Note_on_c, 0, 62, 0
2,94469, Control_c, 0, 64, 80
2,94488, Control_c, 0, 64, 99
2,94508, Control_c, 0, 64, 127
2,94540, Note_on_c, 0, 81, 66
2,94584, Note_on_c, 0, 83, 0
2,94764, Note_on_c, 0, 55, 0
2,94818, Note_on_c, 0, 83, 75
2,94834, Control_c, 0, 64, 85
2,94848, Note_on_c, 0, 81, 0
2,94853, Control_c, 0, 64, 66
2,94873, Control_c, 0, 64, 35
2,94891, Control_c, 0, 64, 0
2,94911, Control_c, 0, 64, 11
2,94930, Control_c, 0, 64, 54
2,94949, Control_c, 0, 64, 66
2,94968, Control_c, 0, 64, 73
2,94988, Control_c, 0, 64, 85
2,95007, Control_c, 0, 64, 127
2,95101, Note_on_c, 0, 79, 78
2,95133, Note_on_c, 0, 83, 0
2,95240, Note_on_c, 0, 79, 0
2,95405, Note_on_c, 0, 79, 70
2,95418, Note_on_c, 0, 74, 47
2,95420, Note_on_c, 0, 71, 49
2,95429, Control_c, 0, 64, 121
2,95448, Control_c, 0, 64, 77
2,95468, Control_c, 0, 64, 59
2,95487, Control_c, 0, 64, 0
2,95564, Control_c, 0, 64, 47
2,95583, Control_c, 0, 64, 61
2,95602, Control_c, 0, 64, 66
2,95622, Control_c, 0, 64, 71
2,95640, Control_c, 0, 64, 80
2,95660, Control_c, 0, 64, 98
2,95679, Control_c, 0, 64, 127
2,95686, Note_on_c, 0, 78, 77
2,95769, Note_on_c, 0, 79, 0
2,95806, Note_on_c, 0, 74, 0
2,95815, Note_on_c, 0, 71, 0
2,95928, Control_c, 0, 64, 90
2,95948, Control_c, 0, 64, 66
2,95961, Note_on_c, 0, 79, 86
2,95967, Control_c, 0, 64, 0
2,96000, Note_on_c, 0, 78, 0
2,96140, Control_c, 0, 64, 13
2,96159, Control_c, 0, 64, 52
2,96178, Control_c, 0, 64, 65
2,96197, Control_c, 0, 64, 76
2,96216, Control_c, 0, 64, 114
2,96236, Control_c, 0, 64, 127
2,96236, Note_on_c, 0, 71, 73
2,96243, Note_on_c, 0, 67, 68
2,96245, Note_on_c, 0, 76, 84
2,96253, Note_on_c, 0, 79, 0
2,96329, Note_on_c, 0, 71, 0
2,96352, Note_on_c, 0, 67, 0
2,96406, Note_on_c, 0, 76, 0
2,96525, Note_on_c, 0, 76, 64
2,96530, Note_on_c, 0, 67, 76
2,96532, Note_on_c, 0, 71, 82
2,96538, Control_c, 0, 64, 79
2,96558, Control_c, 0, 64, 27
2,96577, Control_c, 0, 64, 0
2,96639, Control_c, 0, 64, 49
2,96658, Control_c, 0, 64, 70
2,96677, Control_c, 0, 64, 88
2,96696, Control_c, 0, 64, 127
2,96815, Note_on_c, 0, 74, 91
2,96816, Note_on_c, 0, 71, 0
2,96840, Note_on_c, 0, 76, 0
2,96879, Note_on_c, 0, 67, 0
2,97119, Control_c, 0, 64, 91
2,97122, Note_on_c, 0, 76, 94
2,97138, Control_c, 0, 64, 56
2,97157, Control_c, 0, 64, 0
2,97168, Note_on_c, 0, 74, 0
2,97214, Control_c, 0, 64, 18
2,97234, Control_c, 0, 64, 55
2,97253, Control_c, 0, 64, 67
2,97273, Control_c, 0, 64, 77
2,97291, Control_c, 0, 64, 101
2,97311, Control_c, 0, 64, 127
2,97457, Note_on_c, 0, 76, 0
2,97474, Note_on_c, 0, 73, 95
2,97479, Note_on_c, 0, 69, 83
2,97483, Note_on_c, 0, 64, 84
2,97557, Note_on_c, 0, 64, 0
2,97597, Note_on_c, 0, 69, 0
2,97599, Note_on_c, 0, 73, 0
2,97957, Note_on_c, 0, 73, 93
2,97964, Note_on_c, 0, 64, 86
2,97966, Note_on_c, 0, 55, 80
2,97971, Note_on_c, 0, 43, 74
2,97973, Note_on_c, 0, 69, 78
2,98023, Control_c, 0, 64, 104
2,98041, Control_c, 0, 64, 64
2,98061, Control_c, 0, 64, 0
2,98198, Control_c, 0, 64, 27
2,98217, Control_c, 0, 64, 44
2,98237, Control_c, 0, 64, 58
2,98255, Control_c, 0, 64, 64
2,98275, Control_c, 0, 64, 68
2,98294, Control_c, 0, 64, 73
2,98313, Control_c, 0, 64, 87
2,98332, Control_c, 0, 64, 127
2,98716, Note_on_c, 0, 64, 0
2,98780, Note_on_c, 0, 43, 0
2,98782, Note_on_c, 0, 55, 0
2,98867, Note_on_c, 0, 69, 0
2,99097, Note_on_c, 0, 73, 0
2,99536, Note_on_c, 0, 54, 75
2,99545, Note_on_c, 0, 74, 90
2,99554, Note_on_c, 0, 69, 82
2,99557, Note_on_c, 0, 66, 82
2,99656, Control_c, 0, 64, 87
2,99676, Control_c, 0, 64, 59
2,99688, Note_on_c, 0, 55, 71
2,99694, Control_c, 0, 64, 0
2,99706, Note_on_c, 0, 54, 0
2,99798, Note_on_c, 0, 55, 0
2,99819, Note_on_c, 0, 57, 65
2,99828, Control_c, 0, 64, 47
2,99848, Control_c, 0, 64, 61
2,99867, Control_c, 0, 64, 65
2,99887, Control_c, 0, 64, 66
2,99905, Control_c, 0, 64, 68
2,99924, Note_on_c, 0, 57, 0
2,99925, Control_c, 0, 64, 73
2,99936, Note_on_c, 0, 55, 75
2,99944, Control_c, 0, 64, 81
2,99963, Control_c, 0, 64, 90
2,99982, Control_c, 0, 64, 92
2,100002, Control_c, 0, 64, 92
2,100021, Control_c, 0, 64, 91
2,100040, Control_c, 0, 64, 93
2,100050, Note_on_c, 0, 66, 0
2,100059, Control_c, 0, 64, 96
2,100063, Note_on_c, 0, 55, 0
2,100065, Note_on_c, 0, 69, 0
2,100065, Note_on_c, 0, 74, 0
2,100069, Note_on_c, 0, 54, 77
2,100079, Control_c, 0, 64, 101
2,100097, Control_c, 0, 64, 108
2,100117, Control_c, 0, 64, 112
2,100145, Note_on_c, 0, 54, 0
2,100174, Control_c, 0, 64, 112
2,100175, Note_on_c, 0, 52, 78
2,100194, Control_c, 0, 64, 114
2,100213, Control_c, 0, 64, 118
2,100232, Control_c, 0, 64, 121
2,100251, Control_c, 0, 64, 119
2,100270, Control_c, 0, 64, 110
2,100290, Control_c, 0, 64, 92
2,100296, Note_on_c, 0, 50, 80
2,100296, Note_on_c, 0, 52, 0
2,100308, Control_c, 0, 64, 72
2,100308, Note_on_c, 0, 69, 87
2,100315, Note_on_c, 0, 74, 86
2,100321, Note_on_c, 0, 66, 74
2,100328, Control_c, 0, 64, 48
2,100347, Control_c, 0, 64, 0
2,100423, Control_c, 0, 64, 34
2,100426, Note_on_c, 0, 50, 0
2,100435, Note_on_c, 0, 49, 77
2,100442, Control_c, 0, 64, 58
2,100461, Control_c, 0, 64, 65
2,100482, Control_c, 0, 64, 69
2,100488, Note_on_c, 0, 66, 0
2,100501, Control_c, 0, 64, 74
2,100507, Note_on_c, 0, 74, 0
2,100520, Control_c, 0, 64, 90
2,100537, Note_on_c, 0, 69, 0
2,100539, Control_c, 0, 64, 110
2,100556, Control_c, 0, 64, 127
2,100568, Note_on_c, 0, 47, 74
2,100569, Note_on_c, 0, 49, 0
2,100574, Control_c, 0, 64, 119
2,100584, Note_on_c, 0, 74, 83
2,100592, Note_on_c, 0, 71, 83
2,100594, Control_c, 0, 64, 98
2,100603, Note_on_c, 0, 66, 76
2,100613, Control_c, 0, 64, 77
2,100633, Control_c, 0, 64, 59
2,100651, Control_c, 0, 64, 0
2,100690, Control_c, 0, 64, 51
2,100709, Control_c, 0, 64, 68
2,100709, Note_on_c, 0, 49, 75
2,100716, Note_on_c, 0, 47, 0
2,100728, Control_c, 0, 64, 80
2,100748, Control_c, 0, 64, 96
2,100767, Control_c, 0, 64, 92
2,100786, Control_c, 0, 64, 74
2,100805, Control_c, 0, 64, 59
2,100815, Note_on_c, 0, 49, 0
2,100825, Control_c, 0, 64, 0
2,100829, Note_on_c, 0, 50, 76
2,100882, Control_c, 0, 64, 41
2,100902, Control_c, 0, 64, 59
2,100920, Control_c, 0, 64, 61
2,100933, Note_on_c, 0, 49, 80
2,100939, Control_c, 0, 64, 54
2,100949, Note_on_c, 0, 50, 0
2,100959, Control_c, 0, 64, 27
2,100978, Control_c, 0, 64, 0
2,101036, Control_c, 0, 64, 30
2,101048, Note_on_c, 0, 74, 0
2,101054, Control_c, 0, 64, 61
2,101055, Note_on_c, 0, 71, 0
2,101059, Note_on_c, 0, 47, 79
2,101074, Control_c, 0, 64, 68
2,101085, Note_on_c, 0, 49, 0
2,101093, Control_c, 0, 64, 73
2,101113, Control_c, 0, 64, 76
2,101131, Control_c, 0, 64, 78
2,101151, Control_c, 0, 64, 78
2,101162, Note_on_c, 0, 66, 0
2,101170, Control_c, 0, 64, 80
2,101182, Note_on_c, 0, 45, 81
2,101189, Control_c, 0, 64, 82
2,101208, Control_c, 0, 64, 83
2,101228, Control_c, 0, 64, 81
2,101240, Note_on_c, 0, 47, 0
2,101247, Control_c, 0, 64, 74
2,101266, Control_c, 0, 64, 65
2,101285, Control_c, 0, 64, 34
2,101305, Control_c, 0, 64, 0
2,101305, Note_on_c, 0, 45, 0
2,101320, Note_on_c, 0, 47, 77
2,101321, Note_on_c, 0, 76, 92
2,101327, Note_on_c, 0, 71, 82
2,101336, Note_on_c, 0, 67, 75
2,101378, Control_c, 0, 64, 25
2,101398, Control_c, 0, 64, 50
2,101416, Control_c, 0, 64, 59
2,101437, Control_c, 0, 64, 62
2,101459, Note_on_c, 0, 43, 73
2,101475, Control_c, 0, 64, 63
2,101494, Control_c, 0, 64, 63
2,101505, Note_on_c, 0, 47, 0
2,101514, Control_c, 0, 64, 64
2,101533, Control_c, 0, 64, 64
2,101538, Note_on_c, 0, 67, 0
2,101538, Note_on_c, 0, 76, 0
2,101591, Control_c, 0, 64, 64
2,101609, Control_c, 0, 64, 63
2,101629, Control_c, 0, 64, 63
2,101648, Control_c, 0, 64, 60
2,101668, Control_c, 0, 64, 47
2,101681, Note_on_c, 0, 45, 73
2,101684, Note_on_c, 0, 74, 84
2,101686, Control_c, 0, 64, 0
2,101686, Note_on_c, 0, 69, 81
2,101695, Note_on_c, 0, 64, 71
2,101711, Note_on_c, 0, 71, 0
2,101722, Note_on_c, 0, 43, 0
2,101821, Control_c, 0, 64, 40
2,101840, Control_c, 0, 64, 60
2,101859, Control_c, 0, 64, 66
2,101865, Note_on_c, 0, 69, 0
2,101879, Control_c, 0, 64, 71
2,101888, Note_on_c, 0, 73, 74
2,101897, Control_c, 0, 64, 79
2,101904, Note_on_c, 0, 74, 0
2,101917, Control_c, 0, 64, 90
2,101936, Control_c, 0, 64, 112
2,101955, Control_c, 0, 64, 127
2,101999, Note_on_c, 0, 73, 0
2,102006, Note_on_c, 0, 71, 75
2,102097, Note_on_c, 0, 71, 0
2,102102, Note_on_c, 0, 73, 75
2,102172, Note_on_c, 0, 73, 0
2,102178, Note_on_c, 0, 74, 74
2,102184, Note_on_c, 0, 45, 0
2,102264, Note_on_c, 0, 73, 74
2,102266, Note_on_c, 0, 74, 0
2,102320, Note_on_c, 0, 73, 0
2,102329, Note_on_c, 0, 74, 68
2,102396, Note_on_c, 0, 73, 81
2,102486, Note_on_c, 0, 74, 0
2,102516, Control_c, 0, 64, 81
2,102535, Control_c, 0, 64, 59
2,102554, Control_c, 0, 64, 0
2,102569, Note_on_c, 0, 45, 74
2,102593, Control_c, 0, 64, 18
2,102612, Control_c, 0, 64, 58
2,102631, Control_c, 0, 64, 68
2,102650, Control_c, 0, 64, 77
2,102658, Note_on_c, 0, 64, 0
2,102670, Control_c, 0, 64, 94
2,102689, Control_c, 0, 64, 127
2,102719, Note_on_c, 0, 73, 0
2,102719, Note_on_c, 0, 74, 84
2,102838, Note_on_c, 0, 74, 0
2,102954, Note_on_c, 0, 45, 0
2,102960, Note_on_c, 0, 74, 96
2,102971, Note_on_c, 0, 66, 76
2,102971, Note_on_c, 0, 69, 69
2,102972, Note_on_c, 0, 38, 66
2,102976, Control_c, 0, 64, 86
2,102996, Control_c, 0, 64, 51
2,103015, Control_c, 0, 64, 0
2,103130, Control_c, 0, 64, 35
2,103150, Control_c, 0, 64, 59
2,103169, Control_c, 0, 64, 68
2,103188, Control_c, 0, 64, 79
2,103207, Control_c, 0, 64, 111
2,103227, Control_c, 0, 64, 127
2,103379, Note_on_c, 0, 38, 0
2,103411, Note_on_c, 0, 66, 0
2,103507, Note_on_c, 0, 69, 0
2,104136, Note_on_c, 0, 50, 43
2,104183, Control_c, 0, 64, 119
2,104202, Control_c, 0, 64, 87
2,104220, Control_c, 0, 64, 66
2,104223, Note_on_c, 0, 50, 0
2,104240, Control_c, 0, 64, 47
2,104259, Control_c, 0, 64, 15
2,104275, Note_on_c, 0, 52, 32
2,104279, Control_c, 0, 64, 30
2,104297, Control_c, 0, 64, 43
2,104316, Control_c, 0, 64, 55
2,104335, Control_c, 0, 64, 62
2,104340, Note_on_c, 0, 74, 0
2,104354, Control_c, 0, 64, 64
2,104359, Note_on_c, 0, 52, 0
2,104373, Control_c, 0, 64, 66
2,104393, Control_c, 0, 64, 69
2,104401, Note_on_c, 0, 54, 38
2,104412, Control_c, 0, 64, 72
2,104431, Control_c, 0, 64, 75
2,104450, Control_c, 0, 64, 77
2,104470, Control_c, 0, 64, 77
2,104485, Note_on_c, 0, 54, 0
2,104489, Control_c, 0, 64, 76
2,104508, Control_c, 0, 64, 74
2,104527, Control_c, 0, 64, 71
2,104547, Control_c, 0, 64, 65
2,104548, Note_on_c, 0, 71, 39
2,104565, Control_c, 0, 64, 55
2,104575, Note_on_c, 0, 55, 17
2,104585, Control_c, 0, 64, 27
2,104604, Control_c, 0, 64, 18
2,104624, Control_c, 0, 64, 23
2,104639, Note_on_c, 0, 71, 0
2,104642, Control_c, 0, 64, 34
2,104662, Control_c, 0, 64, 42
2,104679, Note_on_c, 0, 73, 42
2,104681, Control_c, 0, 64, 54
2,104699, Control_c, 0, 64, 62
2,104719, Control_c, 0, 64, 64
2,104738, Control_c, 0, 64, 65
2,104758, Control_c, 0, 64, 66
2,104776, Control_c, 0, 64, 69
2,104796, Control_c, 0, 64, 74
2,104800, Note_on_c, 0, 73, 0
2,104809, Note_on_c, 0, 74, 53
2,104815, Control_c, 0, 64, 80
2,104834, Control_c, 0, 64, 83
2,104853, Control_c, 0, 64, 82
2,104873, Control_c, 0, 64, 79
2,104892, Control_c, 0, 64, 74
2,104911, Control_c, 0, 64, 64
2,104911, Note_on_c, 0, 74, 0
2,104930, Control_c, 0, 64, 44
2,104933, Note_on_c, 0, 76, 58
2,104950, Control_c, 0, 64, 0
2,105045, Control_c, 0, 64, 11
2,105048, Note_on_c, 0, 76, 0
2,105060, Note_on_c, 0, 74, 61
2,105065, Control_c, 0, 64, 47
2,105084, Control_c, 0, 64, 63
2,105104, Control_c, 0, 64, 66
2,105122, Control_c, 0, 64, 67
2,105142, Control_c, 0, 64, 68
2,105161, Control_c, 0, 64, 72
2,105173, Note_on_c, 0, 74, 0
2,105179, Control_c, 0, 64, 82
2,105189, Note_on_c, 0, 73, 64
2,105199, Control_c, 0, 64, 94
2,105218, Control_c, 0, 64, 103
2,105238, Control_c, 0, 64, 104
2,105283, Control_c, 0, 64, 105
2,105302, Control_c, 0, 64, 106
2,105304, Note_on_c, 0, 73, 0
2,105321, Control_c, 0, 64, 106
2,105324, Note_on_c, 0, 74, 65
2,105431, Note_on_c, 0, 74, 0
2,105434, Note_on_c, 0, 71, 68
2,105475, Control_c, 0, 64, 105
2,105476, Note_on_c, 0, 71, 0
2,105493, Control_c, 0, 64, 103
2,105513, Control_c, 0, 64, 99
2,105526, Note_on_c, 0, 55, 0
2,105532, Control_c, 0, 64, 90
2,105552, Control_c, 0, 64, 75
2,105570, Control_c, 0, 64, 62
2,105587, Note_on_c, 0, 71, 49
2,105590, Control_c, 0, 64, 0
2,105604, Note_on_c, 0, 76, 57
2,105624, Note_on_c, 0, 49, 45
2,105647, Control_c, 0, 64, 18
2,105667, Control_c, 0, 64, 50
2,105686, Control_c, 0, 64, 62
2,105705, Control_c, 0, 64, 65
2,105715, Note_on_c, 0, 49, 0
2,105724, Control_c, 0, 64, 65
2,105744, Control_c, 0, 64, 66
2,105749, Note_on_c, 0, 50, 49
2,105763, Control_c, 0, 64, 67
2,105782, Control_c, 0, 64, 66
2,105801, Control_c, 0, 64, 66
2,105820, Control_c, 0, 64, 65
2,105839, Control_c, 0, 64, 64
2,105856, Note_on_c, 0, 50, 0
2,105858, Control_c, 0, 64, 61
2,105878, Control_c, 0, 64, 40
2,105883, Note_on_c, 0, 52, 54
2,105897, Control_c, 0, 64, 0
2,105971, Note_on_c, 0, 52, 0
2,105989, Note_on_c, 0, 54, 68
2,106089, Note_on_c, 0, 54, 0
2,106121, Note_on_c, 0, 52, 65
2,106176, Note_on_c, 0, 71, 0
2,106229, Note_on_c, 0, 52, 0
2,106239, Note_on_c, 0, 76, 0
2,106244, Note_on_c, 0, 50, 62
2,106348, Note_on_c, 0, 50, 0
2,106386, Note_on_c, 0, 52, 56
2,106479, Note_on_c, 0, 52, 0
2,106520, Note_on_c, 0, 49, 52
2,106605, Note_on_c, 0, 49, 0
2,106651, Note_on_c, 0, 69, 50
2,106674, Note_on_c, 0, 54, 40
2,106719, Control_c, 0, 64, 36
2,106738, Control_c, 0, 64, 55
2,106757, Control_c, 0, 64, 62
2,106761, Note_on_c, 0, 69, 0
2,106776, Control_c, 0, 64, 64
2,106776, Note_on_c, 0, 71, 50
2,106796, Control_c, 0, 64, 65
2,106814, Control_c, 0, 64, 66
2,106834, Control_c, 0, 64, 68
2,106853, Control_c, 0, 64, 73
2,106873, Control_c, 0, 64, 79
2,106891, Control_c, 0, 64, 86
2,106911, Control_c, 0, 64, 91
2,106911, Note_on_c, 0, 71, 0
2,106912, Note_on_c, 0, 73, 61
2,106930, Control_c, 0, 64, 95
2,106949, Control_c, 0, 64, 97
2,106968, Control_c, 0, 64, 99
2,106988, Control_c, 0, 64, 101
2,107007, Control_c, 0, 64, 102
2,107016, Note_on_c, 0, 73, 0
2,107038, Note_on_c, 0, 74, 60
2,107103, Control_c, 0, 64, 101
2,107121, Control_c, 0, 64, 96
2,107138, Note_on_c, 0, 74, 0
2,107140, Control_c, 0, 64, 85
2,107155, Note_on_c, 0, 73, 74
2,107159, Control_c, 0, 64, 71
2,107178, Control_c, 0, 64, 56
2,107199, Control_c, 0, 64, 0
2,107237, Control_c, 0, 64, 25
2,107256, Control_c, 0, 64, 58
2,107276, Control_c, 0, 64, 65
2,107280, Note_on_c, 0, 71, 77
2,107293, Note_on_c, 0, 73, 0
2,107294, Control_c, 0, 64, 70
2,107314, Control_c, 0, 64, 79
2,107333, Control_c, 0, 64, 97
2,107353, Control_c, 0, 64, 127
2,107400, Note_on_c, 0, 54, 0
2,107409, Note_on_c, 0, 73, 70
2,107472, Note_on_c, 0, 71, 0
2,107527, Note_on_c, 0, 69, 74
2,107538, Note_on_c, 0, 73, 0
2,107578, Note_on_c, 0, 69, 0
2,107583, Control_c, 0, 64, 96
2,107602, Control_c, 0, 64, 76
2,107622, Control_c, 0, 64, 60
2,107640, Control_c, 0, 64, 0
2,107674, Note_on_c, 0, 74, 62
2,107688, Note_on_c, 0, 47, 41
2,107692, Note_on_c, 0, 62, 45
2,107706, Note_on_c, 0, 69, 43
2,107798, Note_on_c, 0, 49, 62
2,107801, Note_on_c, 0, 47, 0
2,107913, Note_on_c, 0, 49, 0
2,107923, Note_on_c, 0, 50, 67
2,108035, Note_on_c, 0, 50, 0
2,108051, Note_on_c, 0, 52, 65
2,108111, Note_on_c, 0, 62, 0
2,108177, Note_on_c, 0, 52, 0
2,108185, Note_on_c, 0, 50, 72
2,108212, Note_on_c, 0, 69, 0
2,108253, Note_on_c, 0, 74, 0
2,108290, Note_on_c, 0, 50, 0
2,108309, Note_on_c, 0, 49, 68
2,108414, Note_on_c, 0, 49, 0
2,108434, Note_on_c, 0, 50, 67
2,108533, Note_on_c, 0, 50, 0
2,108576, Note_on_c, 0, 47, 52
2,108670, Note_on_c, 0, 47, 0
2,108695, Control_c, 0, 64, 45
2,108715, Control_c, 0, 64, 58
2,108717, Note_on_c, 0, 67, 57
2,108733, Control_c, 0, 64, 61
2,108733, Note_on_c, 0, 52, 44
2,108753, Control_c, 0, 64, 62
2,108772, Control_c, 0, 64, 62
2,108830, Control_c, 0, 64, 62
2,108834, Note_on_c, 0, 69, 61
2,108835, Note_on_c, 0, 52, 0
2,108839, Note_on_c, 0, 67, 0
2,108849, Control_c, 0, 64, 61
2,108854, Note_on_c, 0, 54, 58
2,108869, Control_c, 0, 64, 60
2,108887, Control_c, 0, 64, 58
2,108907, Control_c, 0, 64, 54
2,108926, Control_c, 0, 64, 43
2,108945, Control_c, 0, 64, 0
2,108959, Note_on_c, 0, 54, 0
2,108974, Note_on_c, 0, 71, 70
2,108979, Note_on_c, 0, 55, 57
2,108980, Note_on_c, 0, 69, 0
2,109080, Note_on_c, 0, 55, 0
2,109090, Note_on_c, 0, 72, 71
2,109095, Note_on_c, 0, 57, 59
2,109097, Note_on_c, 0, 71, 0
2,109209, Note_on_c, 0, 57, 0
2,109223, Note_on_c, 0, 71, 81
2,109226, Note_on_c, 0, 55, 66
2,109249, Note_on_c, 0, 72, 0
2,109327, Note_on_c, 0, 55, 0
2,109348, Note_on_c, 0, 54, 65
2,109348, Note_on_c, 0, 69, 74
2,109363, Note_on_c, 0, 71, 0
2,109463, Note_on_c, 0, 54, 0
2,109478, Note_on_c, 0, 71, 80
2,109484, Note_on_c, 0, 55, 62
2,109493, Note_on_c, 0, 69, 0
2,109566, Note_on_c, 0, 71, 0
2,109578, Note_on_c, 0, 55, 0
2,109590, Note_on_c, 0, 52, 61
2,109600, Note_on_c, 0, 67, 69
2,109712, Note_on_c, 0, 52, 0
2,109737, Note_on_c, 0, 73, 71
2,109747, Note_on_c, 0, 57, 53
2,109777, Note_on_c, 0, 67, 0
2,109829, Control_c, 0, 64, 39
2,109847, Control_c, 0, 64, 55
2,109867, Control_c, 0, 64, 61
2,109869, Note_on_c, 0, 74, 78
2,109876, Note_on_c, 0, 59, 73
2,109886, Control_c, 0, 64, 62
2,109894, Note_on_c, 0, 57, 0
2,109903, Note_on_c, 0, 73, 0
2,109905, Control_c, 0, 64, 63
2,109944, Control_c, 0, 64, 64
2,109981, Control_c, 0, 64, 63
2,109993, Note_on_c, 0, 76, 79
2,110001, Control_c, 0, 64, 62
2,110008, Note_on_c, 0, 59, 0
2,110009, Note_on_c, 0, 61, 69
2,110020, Control_c, 0, 64, 57
2,110027, Note_on_c, 0, 74, 0
2,110039, Control_c, 0, 64, 37
2,110058, Control_c, 0, 64, 0
2,110116, Note_on_c, 0, 61, 0
2,110125, Note_on_c, 0, 78, 81
2,110131, Note_on_c, 0, 62, 70
2,110136, Control_c, 0, 64, 18
2,110156, Control_c, 0, 64, 55
2,110159, Note_on_c, 0, 76, 0
2,110174, Control_c, 0, 64, 63
2,110194, Control_c, 0, 64, 65
2,110233, Control_c, 0, 64, 64
2,110249, Note_on_c, 0, 61, 81
2,110251, Control_c, 0, 64, 61
2,110253, Note_on_c, 0, 62, 0
2,110253, Note_on_c, 0, 76, 83
2,110271, Control_c, 0, 64, 53
2,110290, Control_c, 0, 64, 23
2,110291, Note_on_c, 0, 78, 0
2,110309, Control_c, 0, 64, 0
2,110367, Control_c, 0, 64, 32
2,110373, Note_on_c, 0, 74, 85
2,110375, Note_on_c, 0, 61, 0
2,110383, Note_on_c, 0, 59, 75
2,110386, Control_c, 0, 64, 60
2,110387, Note_on_c, 0, 76, 0
2,110405, Control_c, 0, 64, 66
2,110425, Control_c, 0, 64, 67
2,110463, Control_c, 0, 64, 66
2,110482, Control_c, 0, 64, 63
2,110501, Control_c, 0, 64, 46
2,110506, Note_on_c, 0, 76, 86
2,110510, Note_on_c, 0, 59, 0
2,110510, Note_on_c, 0, 61, 78
2,110518, Note_on_c, 0, 74, 0
2,110520, Control_c, 0, 64, 0
2,110597, Control_c, 0, 64, 41
2,110609, Note_on_c, 0, 76, 0
2,110616, Control_c, 0, 64, 63
2,110636, Control_c, 0, 64, 68
2,110639, Note_on_c, 0, 61, 0
2,110640, Note_on_c, 0, 57, 76
2,110640, Note_on_c, 0, 73, 80
2,110654, Control_c, 0, 64, 71
2,110674, Control_c, 0, 64, 76
2,110693, Control_c, 0, 64, 83
2,110713, Control_c, 0, 64, 85
2,110731, Control_c, 0, 64, 83
2,110731, Note_on_c, 0, 57, 0
2,110751, Control_c, 0, 64, 78
2,110770, Control_c, 0, 64, 69
2,110780, Note_on_c, 0, 62, 60
2,110788, Note_on_c, 0, 78, 73
2,110789, Control_c, 0, 64, 56
2,110804, Note_on_c, 0, 73, 0
2,110808, Control_c, 0, 64, 0
2,110885, Control_c, 0, 64, 36
2,110905, Control_c, 0, 64, 54
2,110912, Note_on_c, 0, 79, 82
2,110913, Note_on_c, 0, 64, 69
2,110919, Note_on_c, 0, 62, 0
2,110924, Control_c, 0, 64, 61
2,110930, Note_on_c, 0, 78, 0
2,110941, Control_c, 0, 64, 63
2,110962, Control_c, 0, 64, 63
2,110981, Control_c, 0, 64, 64
2,111000, Control_c, 0, 64, 65
2,111019, Control_c, 0, 64, 66
2,111041, Control_c, 0, 64, 65
2,111046, Note_on_c, 0, 81, 87
2,111050, Note_on_c, 0, 66, 74
2,111058, Note_on_c, 0, 64, 0
2,111059, Control_c, 0, 64, 64
2,111079, Control_c, 0, 64, 59
2,111090, Note_on_c, 0, 79, 0
2,111098, Control_c, 0, 64, 45
2,111118, Control_c, 0, 64, 32
2,111136, Control_c, 0, 64, 40
2,111156, Control_c, 0, 64, 49
2,111175, Control_c, 0, 64, 57
2,111184, Note_on_c, 0, 67, 77
2,111186, Note_on_c, 0, 83, 90
2,111190, Note_on_c, 0, 66, 0
2,111194, Control_c, 0, 64, 62
2,111213, Control_c, 0, 64, 65
2,111220, Note_on_c, 0, 81, 0
2,111233, Control_c, 0, 64, 67
2,111252, Control_c, 0, 64, 67
2,111290, Control_c, 0, 64, 66
2,111310, Control_c, 0, 64, 63
2,111322, Note_on_c, 0, 66, 82
2,111329, Control_c, 0, 64, 41
2,111332, Note_on_c, 0, 81, 93
2,111348, Control_c, 0, 64, 0
2,111354, Note_on_c, 0, 67, 0
2,111386, Note_on_c, 0, 83, 0
2,111444, Control_c, 0, 64, 42
2,111464, Control_c, 0, 64, 62
2,111473, Note_on_c, 0, 64, 80
2,111474, Note_on_c, 0, 79, 90
2,111482, Control_c, 0, 64, 65
2,111486, Note_on_c, 0, 66, 0
2,111509, Note_on_c, 0, 81, 0
2,111521, Control_c, 0, 64, 66
2,111539, Control_c, 0, 64, 67
2,111559, Control_c, 0, 64, 70
2,111578, Control_c, 0, 64, 72
2,111598, Control_c, 0, 64, 69
2,111612, Note_on_c, 0, 66, 84
2,111616, Control_c, 0, 64, 61
2,111625, Note_on_c, 0, 64, 0
2,111626, Note_on_c, 0, 81, 89
2,111636, Control_c, 0, 64, 0
2,111665, Note_on_c, 0, 79, 0
2,111778, Note_on_c, 0, 78, 94
2,111788, Note_on_c, 0, 62, 73
2,111790, Control_c, 0, 64, 50
2,111798, Note_on_c, 0, 81, 0
2,111799, Note_on_c, 0, 66, 0
2,111809, Control_c, 0, 64, 61
2,111828, Control_c, 0, 64, 66
2,111847, Control_c, 0, 64, 71
2,111867, Control_c, 0, 64, 79
2,111885, Control_c, 0, 64, 91
2,111905, Control_c, 0, 64, 103
2,111923, Control_c, 0, 64, 115
2,111943, Control_c, 0, 64, 127
2,112037, Note_on_c, 0, 78, 0
2,112066, Note_on_c, 0, 62, 0
2,112080, Note_on_c, 0, 83, 98
2,112082, Note_on_c, 0, 67, 79
2,112094, Control_c, 0, 64, 87
2,112113, Control_c, 0, 64, 61
2,112132, Control_c, 0, 64, 0
2,112267, Control_c, 0, 64, 37
2,112286, Control_c, 0, 64, 58
2,112305, Control_c, 0, 64, 64
2,112324, Control_c, 0, 64, 70
2,112344, Control_c, 0, 64, 86
2,112363, Control_c, 0, 64, 127
2,112475, Note_on_c, 0, 67, 0
2,112628, Note_on_c, 0, 83, 0
2,113301, Note_on_c, 0, 73, 93
2,113313, Note_on_c, 0, 69, 76
2,113315, Note_on_c, 0, 55, 79
2,113316, Note_on_c, 0, 64, 77
2,113320, Control_c, 0, 64, 91
2,113321, Note_on_c, 0, 43, 70
2,113339, Control_c, 0, 64, 59
2,113358, Control_c, 0, 64, 0
2,113416, Control_c, 0, 64, 50
2,113435, Control_c, 0, 64, 72
2,113455, Control_c, 0, 64, 97
2,113471, Note_on_c, 0, 64, 0
2,113473, Control_c, 0, 64, 127
2,113499, Note_on_c, 0, 43, 0
2,113506, Note_on_c, 0, 55, 0
2,113553, Note_on_c, 0, 69, 0
2,113573, Note_on_c, 0, 73, 0
2,113632, Note_on_c, 0, 74, 95
2,113641, Note_on_c, 0, 66, 78
2,113643, Note_on_c, 0, 54, 82
2,113648, Note_on_c, 0, 42, 78
2,113652, Note_on_c, 0, 69, 75
2,113684, Control_c, 0, 64, 91
2,113690, Note_on_c, 0, 73, 67
2,113704, Control_c, 0, 64, 60
2,113723, Control_c, 0, 64, 0
2,113761, Note_on_c, 0, 73, 0
2,113838, Control_c, 0, 64, 44
2,113858, Control_c, 0, 64, 64
2,113876, Control_c, 0, 64, 68
2,113896, Control_c, 0, 64, 78
2,113917, Control_c, 0, 64, 101
2,113936, Control_c, 0, 64, 127
2,114042, Note_on_c, 0, 54, 0
2,114080, Note_on_c, 0, 42, 0
2,114093, Note_on_c, 0, 69, 0
2,114357, Note_on_c, 0, 74, 0
2,114449, Note_on_c, 0, 66, 0
2,114666, Control_c, 0, 64, 81
2,114685, Control_c, 0, 64, 57
2,114689, Note_on_c, 0, 76, 88
2,114693, Note_on_c, 0, 73, 81
2,114697, Note_on_c, 0, 67, 76
2,114698, Note_on_c, 0, 52, 79
2,114704, Control_c, 0, 64, 44
2,114710, Note_on_c, 0, 40, 65
2,114723, Control_c, 0, 64, 61
2,114743, Control_c, 0, 64, 69
2,114761, Control_c, 0, 64, 83
2,114774, Note_on_c, 0, 67, 0
2,114781, Control_c, 0, 64, 127
2,114783, Note_on_c, 0, 73, 0
2,114795, Note_on_c, 0, 52, 0
2,114816, Note_on_c, 0, 40, 0
2,114873, Note_on_c, 0, 76, 0
2,115003, Note_on_c, 0, 78, 99
2,115007, Note_on_c, 0, 74, 81
2,115011, Note_on_c, 0, 69, 83
2,115027, Note_on_c, 0, 50, 73
2,115037, Note_on_c, 0, 38, 71
2,115046, Control_c, 0, 64, 74
2,115065, Control_c, 0, 64, 29
2,115084, Control_c, 0, 64, 0
2,115257, Control_c, 0, 64, 43
2,115276, Control_c, 0, 64, 61
2,115296, Control_c, 0, 64, 66
2,115315, Control_c, 0, 64, 71
2,115334, Control_c, 0, 64, 83
2,115353, Control_c, 0, 64, 127
2,115414, Note_on_c, 0, 69, 0
2,115464, Note_on_c, 0, 74, 0
2,115464, Note_on_c, 0, 78, 0
2,115516, Note_on_c, 0, 38, 0
2,115649, Note_on_c, 0, 50, 0
2,116090, Note_on_c, 0, 66, 88
2,116101, Note_on_c, 0, 48, 72
2,116103, Note_on_c, 0, 62, 76
2,116107, Note_on_c, 0, 57, 75
2,116116, Note_on_c, 0, 36, 64
2,116280, Note_on_c, 0, 57, 0
2,116281, Note_on_c, 0, 62, 0
2,116286, Note_on_c, 0, 48, 0
2,116299, Note_on_c, 0, 36, 0
2,116326, Note_on_c, 0, 66, 0
2,116401, Note_on_c, 0, 67, 94
2,116409, Note_on_c, 0, 59, 84
2,116413, Note_on_c, 0, 62, 79
2,116423, Note_on_c, 0, 47, 68
2,116424, Note_on_c, 0, 35, 68
2,116436, Control_c, 0, 64, 81
2,116455, Control_c, 0, 64, 51
2,116475, Control_c, 0, 64, 0
2,116762, Control_c, 0, 64, 46
2,116781, Control_c, 0, 64, 59
2,116799, Control_c, 0, 64, 63
2,116818, Control_c, 0, 64, 65
2,116837, Control_c, 0, 64, 67
2,116856, Control_c, 0, 64, 74
2,116876, Control_c, 0, 64, 86
2,116895, Control_c, 0, 64, 105
2,116913, Control_c, 0, 64, 127
2,116999, Note_on_c, 0, 59, 0
2,117054, Note_on_c, 0, 62, 0
2,117108, Note_on_c, 0, 47, 0
2,117137, Note_on_c, 0, 35, 0
2,117137, Note_on_c, 0, 67, 0
2,117445, Note_on_c, 0, 69, 89
2,117454, Note_on_c, 0, 45, 73
2,117461, Note_on_c, 0, 33, 66
2,117462, Note_on_c, 0, 66, 77
2,117463, Note_on_c, 0, 60, 70
2,117470, Control_c, 0, 64, 89
2,117490, Control_c, 0, 64, 65
2,117509, Control_c, 0, 64, 0
2,117547, Control_c, 0, 64, 50
2,117567, Control_c, 0, 64, 66
2,117586, Control_c, 0, 64, 75
2,117605, Control_c, 0, 64, 96
2,117624, Control_c, 0, 64, 127
2,117641, Note_on_c, 0, 60, 0
2,117649, Note_on_c, 0, 45, 0
2,117654, Note_on_c, 0, 33, 0
2,117692, Note_on_c, 0, 66, 0
2,117709, Note_on_c, 0, 69, 0
2,117768, Note_on_c, 0, 71, 94
2,117777, Note_on_c, 0, 43, 75
2,117777, Note_on_c, 0, 67, 84
2,117778, Note_on_c, 0, 62, 84
2,117782, Note_on_c, 0, 31, 73
2,117797, Control_c, 0, 64, 102
2,117816, Control_c, 0, 64, 70
2,117836, Control_c, 0, 64, 0
2,118027, Control_c, 0, 64, 17
2,118047, Control_c, 0, 64, 43
2,118066, Control_c, 0, 64, 58
2,118085, Control_c, 0, 64, 63
2,118104, Control_c, 0, 64, 65
2,118124, Control_c, 0, 64, 67
2,118142, Control_c, 0, 64, 71
2,118162, Control_c, 0, 64, 78
2,118181, Control_c, 0, 64, 91
2,118201, Control_c, 0, 64, 127
2,118365, Note_on_c, 0, 43, 0
2,118388, Note_on_c, 0, 31, 0
2,118436, Note_on_c, 0, 67, 0
2,118457, Note_on_c, 0, 62, 0
2,118487, Note_on_c, 0, 71, 0
2,118872, Control_c, 0, 64, 112
2,118882, Note_on_c, 0, 71, 94
2,118892, Control_c, 0, 64, 70
2,118892, Note_on_c, 0, 62, 81
2,118893, Note_on_c, 0, 67, 76
2,118898, Note_on_c, 0, 42, 78
2,118902, Note_on_c, 0, 30, 73
2,118910, Control_c, 0, 64, 32
2,118930, Control_c, 0, 64, 0
2,118968, Control_c, 0, 64, 55
2,118987, Control_c, 0, 64, 66
2,119007, Control_c, 0, 64, 74
2,119026, Control_c, 0, 64, 91
2,119030, Note_on_c, 0, 42, 0
2,119045, Control_c, 0, 64, 127
2,119046, Note_on_c, 0, 62, 0
2,119111, Note_on_c, 0, 71, 0
2,119145, Note_on_c, 0, 67, 0
2,119229, Note_on_c, 0, 30, 0
2,119262, Note_on_c, 0, 73, 95
2,119273, Note_on_c, 0, 40, 77
2,119281, Note_on_c, 0, 28, 75
2,119281, Note_on_c, 0, 64, 76
2,119283, Note_on_c, 0, 67, 67
2,119313, Control_c, 0, 64, 91
2,119333, Control_c, 0, 64, 64
2,119352, Control_c, 0, 64, 0
2,119506, Control_c, 0, 64, 27
2,119525, Control_c, 0, 64, 44
2,119544, Control_c, 0, 64, 60
2,119564, Control_c, 0, 64, 66
2,119582, Control_c, 0, 64, 71
2,119602, Control_c, 0, 64, 79
2,119621, Control_c, 0, 64, 96
2,119641, Control_c, 0, 64, 127
2,119733, Note_on_c, 0, 64, 0
2,119773, Note_on_c, 0, 67, 0
2,119948, Note_on_c, 0, 28, 0
2,119970, Note_on_c, 0, 40, 0
2,120229, Note_on_c, 0, 73, 0
2,120466, Control_c, 0, 64, 74
2,120477, Note_on_c, 0, 74, 86
2,120481, Note_on_c, 0, 69, 81
2,120485, Control_c, 0, 64, 0
2,120486, Note_on_c, 0, 26, 75
2,120486, Note_on_c, 0, 38, 79
2,120489, Note_on_c, 0, 66, 76
2,120542, Control_c, 0, 64, 51
2,120562, Control_c, 0, 64, 67
2,120572, Note_on_c, 0, 26, 0
2,120580, Note_on_c, 0, 69, 0
2,120581, Control_c, 0, 64, 84
2,120596, Note_on_c, 0, 74, 0
2,120600, Note_on_c, 0, 38, 0
2,120601, Control_c, 0, 64, 127
2,120626, Note_on_c, 0, 66, 0
2,121012, Note_on_c, 0, 66, 92
2,121017, Note_on_c, 0, 45, 72
2,121018, Note_on_c, 0, 57, 82
2,121021, Note_on_c, 0, 33, 72
2,121023, Note_on_c, 0, 62, 77
2,121062, Control_c, 0, 64, 94
2,121082, Control_c, 0, 64, 64
2,121100, Control_c, 0, 64, 0
2,121408, Control_c, 0, 64, 15
2,121426, Control_c, 0, 64, 49
2,121446, Control_c, 0, 64, 62
2,121465, Control_c, 0, 64, 66
2,121485, Control_c, 0, 64, 69
2,121503, Control_c, 0, 64, 74
2,121523, Control_c, 0, 64, 83
2,121542, Control_c, 0, 64, 111
2,121562, Control_c, 0, 64, 127
2,121754, Note_on_c, 0, 57, 0
2,121817, Note_on_c, 0, 62, 0
2,121845, Note_on_c, 0, 66, 0
2,122671, Note_on_c, 0, 64, 94
2,122678, Note_on_c, 0, 55, 89
2,122683, Note_on_c, 0, 61, 84
2,122713, Control_c, 0, 64, 101
2,122732, Control_c, 0, 64, 67
2,122751, Control_c, 0, 64, 0
2,122886, Control_c, 0, 64, 38
2,122905, Control_c, 0, 64, 60
2,122925, Control_c, 0, 64, 65
2,122943, Control_c, 0, 64, 70
2,122963, Control_c, 0, 64, 78
2,122982, Control_c, 0, 64, 96
2,123002, Control_c, 0, 64, 127
2,123266, Note_on_c, 0, 45, 0
2,123367, Note_on_c, 0, 61, 0
2,123407, Note_on_c, 0, 33, 0
2,123581, Note_on_c, 0, 55, 0
2,123791, Note_on_c, 0, 64, 0
2,124715, Note_on_c, 0, 62, 88
2,124719, Note_on_c, 0, 26, 75
2,124721, Note_on_c, 0, 57, 82
2,124724, Note_on_c, 0, 38, 80
2,124730, Note_on_c, 0, 54, 77
2,124787, Control_c, 0, 64, 84
2,124807, Control_c, 0, 64, 64
2,124826, Control_c, 0, 64, 0
2,125267, Control_c, 0, 64, 23
2,125287, Control_c, 0, 64, 40
2,125306, Control_c, 0, 64, 49
2,125326, Control_c, 0, 64, 53
2,125344, Control_c, 0, 64, 55
2,125363, Control_c, 0, 64, 56
2,125382, Control_c, 0, 64, 56
2,125402, Control_c, 0, 64, 57
2,125420, Control_c, 0, 64, 57
2,125440, Control_c, 0, 64, 58
2,125459, Control_c, 0, 64, 58
2,125517, Control_c, 0, 64, 59
2,125554, Control_c, 0, 64, 59
2,125593, Control_c, 0, 64, 60
2,125631, Control_c, 0, 64, 60
2,125651, Control_c, 0, 64, 61
2,125670, Control_c, 0, 64, 62
2,125689, Control_c, 0, 64, 63
2,125708, Control_c, 0, 64, 64
2,125728, Control_c, 0, 64, 65
2,125747, Control_c, 0, 64, 65
2,125766, Control_c, 0, 64, 66
2,125785, Control_c, 0, 64, 68
2,125805, Control_c, 0, 64, 69
2,125823, Control_c, 0, 64, 71
2,125843, Control_c, 0, 64, 73
2,125862, Control_c, 0, 64, 76
2,125882, Control_c, 0, 64, 78
2,125900, Control_c, 0, 64, 80
2,125920, Control_c, 0, 64, 81
2,125939, Control_c, 0, 64, 84
2,125958, Control_c, 0, 64, 86
2,125977, Control_c, 0, 64, 88
2,125997, Control_c, 0, 64, 91
2,126016, Control_c, 0, 64, 93
2,126034, Control_c, 0, 64, 96
2,126054, Control_c, 0, 64, 100
2,126073, Control_c, 0, 64, 104
2,126092, Control_c, 0, 64, 110
2,126111, Control_c, 0, 64, 117
2,126131, Control_c, 0, 64, 127
2,127788, Note_on_c, 0, 54, 0
2,127860, Note_on_c, 0, 26, 0
2,127872, Note_on_c, 0, 57, 0
2,127941, Note_on_c, 0, 38, 0
2,127976, Note_on_c, 0, 62, 0
2,129895, Control_c, 0, 64, 104
2,129914, Control_c, 0, 64, 77
2,129933, Control_c, 0, 64, 64
2,129952, Control_c, 0, 64, 39
2,129972, Control_c, 0, 64, 0
2,129973, End_track
0, 0, End_of_file
