0, 0, Header, 1, 2, 480
1, 0, Start_track
1, 0, Tempo, 500000
1, 0, Time_signature, 4, 2, 24, 8
1, 1, End_track
2, 0, Start_track
2, 0, Program_c, 0, 0
2, 0, Control_c, 0, 64, 47
2, 0, Control_c, 0, 67, 12
2, 379, Control_c, 0, 67, 11
2, 437, Control_c, 0, 64, 47
2, 495, Control_c, 0, 67, 11
2, 553, Control_c, 0, 64, 47
2, 591, Control_c, 0, 64, 46
2, 610, Control_c, 0, 67, 10
2, 630, Control_c, 0, 64, 46
2, 668, Control_c, 0, 64, 45
2, 668, Control_c, 0, 67, 10
2, 739, Control_c, 0, 64, 45
2, 854, Control_c, 0, 64, 44
2, 871, Control_c, 0, 67, 9
2, 900, Control_c, 0, 67, 9
2, 915, Note_on_c, 0, 50, 33
2, 931, Control_c, 0, 67, 8
2, 949, Control_c, 0, 64, 44
2, 952, Note_on_c, 0, 50, 0
2, 988, Control_c, 0, 64, 43
2, 988, Control_c, 0, 67, 8
2, 1007, Control_c, 0, 64, 43
2, 1007, Control_c, 0, 67, 0
2, 1027, Note_on_c, 0, 74, 45
2, 1046, Control_c, 0, 64, 42
2, 1115, Note_on_c, 0, 74, 0
2, 1123, Control_c, 0, 64, 41
2, 1142, Control_c, 0, 64, 40
2, 1143, Note_on_c, 0, 76, 48
2, 1161, Control_c, 0, 64, 38
2, 1180, Control_c, 0, 64, 36
2, 1200, Control_c, 0, 64, 32
2, 1216, Note_on_c, 0, 76, 0
2, 1218, Control_c, 0, 64, 28
2, 1223, Note_on_c, 0, 78, 62
2, 1237, Control_c, 0, 64, 22
2, 1257, Control_c, 0, 64, 11
2, 1276, Control_c, 0, 64, 0
2, 1278, Note_on_c, 0, 78, 0
2, 1332, Note_on_c, 0, 62, 51
2, 1338, Note_on_c, 0, 69, 64
2, 1364, Note_on_c, 0, 62, 0
2, 1412, Note_on_c, 0, 69, 0
2, 1423, Note_on_c, 0, 78, 67
2, 1501, Note_on_c, 0, 78, 0
2, 1523, Note_on_c, 0, 76, 66
2, 1605, Note_on_c, 0, 76, 0
2, 1622, Note_on_c, 0, 74, 67
2, 1676, Note_on_c, 0, 74, 0
2, 1721, Note_on_c, 0, 54, 49
2, 1721, Note_on_c, 0, 81, 69
2, 1753, Note_on_c, 0, 54, 0
2, 1773, Note_on_c, 0, 81, 0
2, 1818, Note_on_c, 0, 74, 59
2, 1910, Note_on_c, 0, 74, 0
2, 1931, Note_on_c, 0, 76, 63
2, 2001, Note_on_c, 0, 76, 0
2, 2027, Note_on_c, 0, 78, 64
2, 2107, Note_on_c, 0, 78, 0
2, 2139, Note_on_c, 0, 62, 49
2, 2142, Note_on_c, 0, 69, 72
2, 2173, Note_on_c, 0, 62, 0
2, 2242, Note_on_c, 0, 78, 75
2, 2248, Note_on_c, 0, 69, 0
2, 2317, Note_on_c, 0, 78, 0
2, 2355, Note_on_c, 0, 76, 56
2, 2432, Note_on_c, 0, 76, 0
2, 2444, Note_on_c, 0, 74, 66
2, 2540, Note_on_c, 0, 74, 0
2, 2543, Note_on_c, 0, 52, 54
2, 2548, Note_on_c, 0, 79, 72
2, 2582, Note_on_c, 0, 52, 0
2, 2627, Note_on_c, 0, 79, 0
2, 2657, Note_on_c, 0, 76, 64
2, 2744, Note_on_c, 0, 76, 0
2, 2760, Note_on_c, 0, 78, 61
2, 2840, Note_on_c, 0, 78, 0
2, 2859, Note_on_c, 0, 79, 54
2, 2904, Note_on_c, 0, 79, 0
2, 2954, Note_on_c, 0, 71, 62
2, 2957, Note_on_c, 0, 62, 50
2, 2994, Note_on_c, 0, 62, 0
2, 3032, Note_on_c, 0, 71, 0
2, 3054, Note_on_c, 0, 74, 63
2, 3118, Note_on_c, 0, 74, 0
2, 3152, Note_on_c, 0, 73, 68
2, 3213, Note_on_c, 0, 73, 0
2, 3257, Note_on_c, 0, 71, 65
2, 3348, Note_on_c, 0, 71, 0
2, 3363, Note_on_c, 0, 73, 67
2, 3367, Note_on_c, 0, 57, 50
2, 3407, Note_on_c, 0, 57, 0
2, 3461, Note_on_c, 0, 73, 0
2, 3463, Note_on_c, 0, 76, 61
2, 3549, Note_on_c, 0, 76, 0
2, 3569, Note_on_c, 0, 78, 59
2, 3646, Note_on_c, 0, 78, 0
2, 3662, Note_on_c, 0, 79, 61
2, 3720, Note_on_c, 0, 79, 0
2, 3769, Note_on_c, 0, 69, 73
2, 3774, Note_on_c, 0, 61, 61
2, 3809, Note_on_c, 0, 61, 0
2, 3863, Note_on_c, 0, 79, 75
2, 3877, Note_on_c, 0, 69, 0
2, 3973, Note_on_c, 0, 78, 73
2, 3987, Note_on_c, 0, 79, 0
2, 4071, Note_on_c, 0, 78, 0
2, 4072, Note_on_c, 0, 76, 73
2, 4172, Note_on_c, 0, 76, 0
2, 4184, Note_on_c, 0, 78, 69
2, 4186, Note_on_c, 0, 50, 59
2, 4227, Note_on_c, 0, 50, 0
2, 4263, Note_on_c, 0, 78, 0
2, 4282, Note_on_c, 0, 74, 61
2, 4375, Note_on_c, 0, 74, 0
2, 4394, Note_on_c, 0, 76, 58
2, 4470, Note_on_c, 0, 76, 0
2, 4494, Note_on_c, 0, 78, 64
2, 4548, Note_on_c, 0, 78, 0
2, 4592, Note_on_c, 0, 62, 54
2, 4603, Note_on_c, 0, 69, 63
2, 4627, Note_on_c, 0, 62, 0
2, 4690, Note_on_c, 0, 69, 0
2, 4697, Note_on_c, 0, 73, 56
2, 4763, Note_on_c, 0, 73, 0
2, 4791, Note_on_c, 0, 71, 58
2, 4859, Note_on_c, 0, 71, 0
2, 4889, Note_on_c, 0, 69, 67
2, 4968, Note_on_c, 0, 69, 0
2, 4997, Note_on_c, 0, 50, 48
2, 5006, Note_on_c, 0, 71, 67
2, 5030, Note_on_c, 0, 50, 0
2, 5095, Note_on_c, 0, 71, 0
2, 5103, Note_on_c, 0, 74, 66
2, 5210, Note_on_c, 0, 74, 0
2, 5213, Note_on_c, 0, 76, 70
2, 5304, Note_on_c, 0, 76, 0
2, 5305, Note_on_c, 0, 78, 73
2, 5389, Note_on_c, 0, 78, 0
2, 5413, Note_on_c, 0, 71, 76
2, 5420, Note_on_c, 0, 62, 56
2, 5458, Note_on_c, 0, 62, 0
2, 5507, Note_on_c, 0, 81, 81
2, 5522, Note_on_c, 0, 71, 0
2, 5621, Note_on_c, 0, 80, 72
2, 5636, Note_on_c, 0, 81, 0
2, 5713, Note_on_c, 0, 78, 73
2, 5721, Note_on_c, 0, 80, 0
2, 5826, Note_on_c, 0, 78, 0
2, 5828, Note_on_c, 0, 80, 74
2, 5832, Note_on_c, 0, 50, 58
2, 5871, Note_on_c, 0, 50, 0
2, 5913, Note_on_c, 0, 80, 0
2, 5930, Note_on_c, 0, 76, 64
2, 6030, Note_on_c, 0, 76, 0
2, 6033, Note_on_c, 0, 78, 64
2, 6119, Note_on_c, 0, 78, 0
2, 6137, Note_on_c, 0, 80, 64
2, 6199, Note_on_c, 0, 80, 0
2, 6249, Note_on_c, 0, 71, 65
2, 6250, Note_on_c, 0, 56, 55
2, 6285, Note_on_c, 0, 56, 0
2, 6343, Note_on_c, 0, 71, 0
2, 6344, Note_on_c, 0, 74, 62
2, 6429, Note_on_c, 0, 74, 0
2, 6449, Note_on_c, 0, 73, 62
2, 6521, Note_on_c, 0, 73, 0
2, 6525, Note_on_c, 0, 71, 58
2, 6625, Note_on_c, 0, 71, 0
2, 6628, Note_on_c, 0, 49, 63
2, 6647, Note_on_c, 0, 69, 65
2, 6665, Note_on_c, 0, 49, 0
2, 6723, Note_on_c, 0, 69, 0
2, 6749, Note_on_c, 0, 73, 66
2, 6846, Note_on_c, 0, 73, 0
2, 6852, Note_on_c, 0, 74, 66
2, 6949, Note_on_c, 0, 74, 0
2, 6962, Note_on_c, 0, 76, 69
2, 7032, Note_on_c, 0, 76, 0
2, 7047, Note_on_c, 0, 66, 69
2, 7052, Note_on_c, 0, 57, 55
2, 7095, Note_on_c, 0, 57, 0
2, 7129, Note_on_c, 0, 66, 0
2, 7154, Note_on_c, 0, 76, 74
2, 7257, Note_on_c, 0, 74, 67
2, 7261, Note_on_c, 0, 76, 0
2, 7337, Note_on_c, 0, 74, 0
2, 7359, Note_on_c, 0, 73, 68
2, 7443, Note_on_c, 0, 47, 59
2, 7454, Note_on_c, 0, 73, 0
2, 7468, Note_on_c, 0, 74, 64
2, 7481, Note_on_c, 0, 47, 0
2, 7544, Note_on_c, 0, 74, 0
2, 7549, Note_on_c, 0, 71, 71
2, 7637, Note_on_c, 0, 71, 0
2, 7655, Note_on_c, 0, 73, 65
2, 7730, Note_on_c, 0, 73, 0
2, 7748, Note_on_c, 0, 74, 63
2, 7819, Note_on_c, 0, 74, 0
2, 7860, Note_on_c, 0, 57, 55
2, 7861, Note_on_c, 0, 66, 63
2, 7899, Note_on_c, 0, 57, 0
2, 7954, Note_on_c, 0, 66, 0
2, 7974, Note_on_c, 0, 69, 63
2, 8033, Note_on_c, 0, 69, 0
2, 8067, Note_on_c, 0, 68, 71
2, 8141, Note_on_c, 0, 68, 0
2, 8174, Note_on_c, 0, 66, 59
2, 8224, Note_on_c, 0, 66, 0
2, 8262, Note_on_c, 0, 52, 58
2, 8279, Note_on_c, 0, 68, 66
2, 8301, Note_on_c, 0, 52, 0
2, 8381, Note_on_c, 0, 68, 0
2, 8396, Note_on_c, 0, 71, 55
2, 8458, Note_on_c, 0, 71, 0
2, 8477, Note_on_c, 0, 73, 58
2, 8561, Note_on_c, 0, 73, 0
2, 8587, Note_on_c, 0, 74, 55
2, 8643, Note_on_c, 0, 74, 0
2, 8687, Note_on_c, 0, 56, 55
2, 8691, Note_on_c, 0, 64, 65
2, 8726, Note_on_c, 0, 56, 0
2, 8755, Note_on_c, 0, 64, 0
2, 8781, Note_on_c, 0, 74, 60
2, 8868, Note_on_c, 0, 74, 0
2, 8887, Note_on_c, 0, 73, 59
2, 8966, Note_on_c, 0, 73, 0
2, 8985, Note_on_c, 0, 71, 56
2, 9067, Note_on_c, 0, 71, 0
2, 9081, Note_on_c, 0, 73, 65
2, 9092, Note_on_c, 0, 45, 48
2, 9127, Note_on_c, 0, 45, 0
2, 9166, Note_on_c, 0, 73, 0
2, 9182, Note_on_c, 0, 69, 65
2, 9271, Note_on_c, 0, 69, 0
2, 9283, Note_on_c, 0, 71, 60
2, 9377, Note_on_c, 0, 71, 0
2, 9392, Note_on_c, 0, 73, 64
2, 9454, Note_on_c, 0, 73, 0
2, 9507, Note_on_c, 0, 57, 54
2, 9511, Note_on_c, 0, 64, 56
2, 9542, Note_on_c, 0, 57, 0
2, 9570, Note_on_c, 0, 64, 0
2, 9608, Note_on_c, 0, 67, 59
2, 9688, Note_on_c, 0, 67, 0
2, 9707, Note_on_c, 0, 66, 68
2, 9764, Note_on_c, 0, 66, 0
2, 9807, Note_on_c, 0, 64, 65
2, 9893, Note_on_c, 0, 64, 0
2, 9902, Note_on_c, 0, 66, 71
2, 9907, Note_on_c, 0, 45, 59
2, 9948, Note_on_c, 0, 45, 0
2, 10004, Note_on_c, 0, 69, 68
2, 10014, Note_on_c, 0, 66, 0
2, 10099, Note_on_c, 0, 69, 0
2, 10112, Note_on_c, 0, 71, 58
2, 10205, Note_on_c, 0, 71, 0
2, 10211, Note_on_c, 0, 73, 68
2, 10264, Note_on_c, 0, 73, 0
2, 10310, Note_on_c, 0, 57, 55
2, 10311, Note_on_c, 0, 66, 67
2, 10355, Note_on_c, 0, 57, 0
2, 10386, Note_on_c, 0, 66, 0
2, 10415, Note_on_c, 0, 76, 70
2, 10513, Note_on_c, 0, 75, 72
2, 10530, Note_on_c, 0, 76, 0
2, 10606, Note_on_c, 0, 73, 75
2, 10606, Note_on_c, 0, 75, 0
2, 10708, Note_on_c, 0, 75, 81
2, 10718, Note_on_c, 0, 73, 0
2, 10724, Note_on_c, 0, 45, 59
2, 10766, Note_on_c, 0, 45, 0
2, 10806, Note_on_c, 0, 75, 0
2, 10817, Note_on_c, 0, 71, 71
2, 10910, Note_on_c, 0, 71, 0
2, 10916, Note_on_c, 0, 73, 77
2, 11007, Note_on_c, 0, 73, 0
2, 11022, Note_on_c, 0, 75, 69
2, 11096, Note_on_c, 0, 75, 0
2, 11105, Note_on_c, 0, 51, 60
2, 11117, Note_on_c, 0, 66, 69
2, 11141, Note_on_c, 0, 51, 0
2, 11170, Note_on_c, 0, 66, 0
2, 11219, Note_on_c, 0, 69, 72
2, 11304, Note_on_c, 0, 69, 0
2, 11325, Note_on_c, 0, 67, 63
2, 11404, Note_on_c, 0, 67, 0
2, 11413, Note_on_c, 0, 66, 69
2, 11490, Note_on_c, 0, 43, 68
2, 11501, Note_on_c, 0, 66, 0
2, 11509, Note_on_c, 0, 64, 74
2, 11534, Note_on_c, 0, 43, 0
2, 11596, Note_on_c, 0, 64, 0
2, 11612, Note_on_c, 0, 67, 76
2, 11707, Note_on_c, 0, 69, 68
2, 11709, Note_on_c, 0, 67, 0
2, 11797, Note_on_c, 0, 69, 0
2, 11800, Note_on_c, 0, 71, 72
2, 11852, Note_on_c, 0, 71, 0
2, 11910, Note_on_c, 0, 52, 69
2, 11914, Note_on_c, 0, 61, 74
2, 11959, Note_on_c, 0, 52, 0
2, 11984, Note_on_c, 0, 61, 0
2, 12023, Note_on_c, 0, 74, 69
2, 12120, Note_on_c, 0, 73, 73
2, 12146, Note_on_c, 0, 74, 0
2, 12217, Note_on_c, 0, 71, 70
2, 12240, Note_on_c, 0, 73, 0
2, 12314, Note_on_c, 0, 70, 83
2, 12317, Note_on_c, 0, 42, 76
2, 12320, Note_on_c, 0, 71, 0
2, 12363, Note_on_c, 0, 42, 0
2, 12397, Note_on_c, 0, 70, 0
2, 12422, Note_on_c, 0, 64, 69
2, 12487, Note_on_c, 0, 64, 0
2, 12535, Note_on_c, 0, 66, 72
2, 12638, Note_on_c, 0, 66, 0
2, 12653, Note_on_c, 0, 67, 60
2, 12729, Note_on_c, 0, 67, 0
2, 12733, Note_on_c, 0, 54, 53
2, 12744, Note_on_c, 0, 61, 65
2, 12769, Note_on_c, 0, 54, 0
2, 12827, Note_on_c, 0, 61, 0
2, 12848, Note_on_c, 0, 67, 60
2, 12932, Note_on_c, 0, 67, 0
2, 12941, Note_on_c, 0, 66, 58
2, 13034, Note_on_c, 0, 66, 0
2, 13052, Note_on_c, 0, 64, 62
2, 13106, Note_on_c, 0, 64, 0
2, 13131, Note_on_c, 0, 42, 61
2, 13142, Note_on_c, 0, 62, 64
2, 13179, Note_on_c, 0, 42, 0
2, 13214, Note_on_c, 0, 62, 0
2, 13255, Note_on_c, 0, 71, 64
2, 13323, Note_on_c, 0, 71, 0
2, 13341, Note_on_c, 0, 73, 63
2, 13427, Note_on_c, 0, 73, 0
2, 13439, Note_on_c, 0, 74, 60
2, 13507, Note_on_c, 0, 74, 0
2, 13549, Note_on_c, 0, 54, 60
2, 13550, Note_on_c, 0, 66, 68
2, 13589, Note_on_c, 0, 54, 0
2, 13628, Note_on_c, 0, 66, 0
2, 13646, Note_on_c, 0, 69, 66
2, 13741, Note_on_c, 0, 69, 0
2, 13746, Note_on_c, 0, 68, 65
2, 13827, Note_on_c, 0, 68, 0
2, 13852, Note_on_c, 0, 66, 57
2, 13933, Note_on_c, 0, 66, 0
2, 13955, Note_on_c, 0, 42, 62
2, 13964, Note_on_c, 0, 65, 65
2, 14000, Note_on_c, 0, 42, 0
2, 14043, Note_on_c, 0, 65, 0
2, 14052, Note_on_c, 0, 68, 73
2, 14151, Note_on_c, 0, 68, 0
2, 14157, Note_on_c, 0, 69, 68
2, 14252, Note_on_c, 0, 69, 0
2, 14252, Note_on_c, 0, 71, 70
2, 14336, Note_on_c, 0, 71, 0
2, 14370, Note_on_c, 0, 65, 72
2, 14374, Note_on_c, 0, 54, 63
2, 14413, Note_on_c, 0, 54, 0
2, 14449, Note_on_c, 0, 65, 0
2, 14468, Note_on_c, 0, 74, 75
2, 14570, Note_on_c, 0, 74, 0
2, 14573, Note_on_c, 0, 73, 77
2, 14652, Note_on_c, 0, 73, 0
2, 14675, Note_on_c, 0, 71, 76
2, 14768, Note_on_c, 0, 42, 72
2, 14768, Note_on_c, 0, 71, 0
2, 14781, Note_on_c, 0, 80, 84
2, 14808, Note_on_c, 0, 42, 0
2, 14869, Note_on_c, 0, 80, 0
2, 14875, Note_on_c, 0, 77, 78
2, 14979, Note_on_c, 0, 78, 81
2, 14988, Note_on_c, 0, 77, 0
2, 15081, Note_on_c, 0, 80, 77
2, 15086, Note_on_c, 0, 78, 0
2, 15171, Note_on_c, 0, 80, 0
2, 15178, Note_on_c, 0, 73, 82
2, 15184, Note_on_c, 0, 54, 69
2, 15231, Note_on_c, 0, 54, 0
2, 15264, Note_on_c, 0, 73, 0
2, 15288, Note_on_c, 0, 83, 80
2, 15399, Note_on_c, 0, 81, 78
2, 15417, Note_on_c, 0, 83, 0
2, 15470, Note_on_c, 0, 81, 0
2, 15488, Note_on_c, 0, 80, 79
2, 15594, Note_on_c, 0, 80, 0
2, 15600, Note_on_c, 0, 81, 81
2, 15603, Note_on_c, 0, 42, 78
2, 15644, Note_on_c, 0, 42, 0
2, 15699, Note_on_c, 0, 78, 74
2, 15701, Note_on_c, 0, 81, 0
2, 15809, Note_on_c, 0, 78, 0
2, 15815, Note_on_c, 0, 80, 68
2, 15901, Note_on_c, 0, 80, 0
2, 15916, Note_on_c, 0, 81, 63
2, 15978, Note_on_c, 0, 81, 0
2, 16020, Note_on_c, 0, 54, 60
2, 16020, Note_on_c, 0, 73, 66
2, 16058, Note_on_c, 0, 54, 0
2, 16110, Note_on_c, 0, 73, 0
2, 16120, Note_on_c, 0, 76, 64
2, 16193, Note_on_c, 0, 76, 0
2, 16218, Note_on_c, 0, 75, 70
2, 16286, Note_on_c, 0, 75, 0
2, 16329, Note_on_c, 0, 73, 66
2, 16415, Note_on_c, 0, 47, 63
2, 16425, Note_on_c, 0, 73, 0
2, 16430, Note_on_c, 0, 75, 68
2, 16455, Note_on_c, 0, 47, 0
2, 16532, Note_on_c, 0, 75, 0
2, 16536, Note_on_c, 0, 78, 64
2, 16634, Note_on_c, 0, 78, 0
2, 16637, Note_on_c, 0, 79, 60
2, 16713, Note_on_c, 0, 79, 0
2, 16731, Note_on_c, 0, 81, 65
2, 16800, Note_on_c, 0, 81, 0
2, 16829, Note_on_c, 0, 51, 64
2, 16838, Note_on_c, 0, 71, 70
2, 16862, Note_on_c, 0, 51, 0
2, 16904, Note_on_c, 0, 71, 0
2, 16948, Note_on_c, 0, 81, 65
2, 17038, Note_on_c, 0, 81, 0
2, 17054, Note_on_c, 0, 79, 65
2, 17117, Note_on_c, 0, 79, 0
2, 17143, Note_on_c, 0, 78, 64
2, 17240, Note_on_c, 0, 78, 0
2, 17253, Note_on_c, 0, 40, 58
2, 17258, Note_on_c, 0, 79, 69
2, 17288, Note_on_c, 0, 40, 0
2, 17332, Note_on_c, 0, 79, 0
2, 17356, Note_on_c, 0, 76, 62
2, 17453, Note_on_c, 0, 76, 0
2, 17475, Note_on_c, 0, 78, 64
2, 17558, Note_on_c, 0, 78, 0
2, 17580, Note_on_c, 0, 79, 59
2, 17634, Note_on_c, 0, 79, 0
2, 17679, Note_on_c, 0, 52, 60
2, 17685, Note_on_c, 0, 71, 59
2, 17721, Note_on_c, 0, 52, 0
2, 17752, Note_on_c, 0, 71, 0
2, 17782, Note_on_c, 0, 74, 64
2, 17855, Note_on_c, 0, 74, 0
2, 17888, Note_on_c, 0, 72, 75
2, 17966, Note_on_c, 0, 72, 0
2, 18003, Note_on_c, 0, 71, 71
2, 18081, Note_on_c, 0, 40, 59
2, 18097, Note_on_c, 0, 71, 0
2, 18100, Note_on_c, 0, 72, 78
2, 18117, Note_on_c, 0, 40, 0
2, 18197, Note_on_c, 0, 72, 0
2, 18212, Note_on_c, 0, 75, 65
2, 18294, Note_on_c, 0, 75, 0
2, 18304, Note_on_c, 0, 76, 65
2, 18397, Note_on_c, 0, 76, 0
2, 18408, Note_on_c, 0, 78, 69
2, 18478, Note_on_c, 0, 78, 0
2, 18512, Note_on_c, 0, 51, 53
2, 18519, Note_on_c, 0, 69, 69
2, 18552, Note_on_c, 0, 51, 0
2, 18597, Note_on_c, 0, 69, 0
2, 18612, Note_on_c, 0, 72, 65
2, 18696, Note_on_c, 0, 72, 0
2, 18713, Note_on_c, 0, 71, 63
2, 18794, Note_on_c, 0, 71, 0
2, 18813, Note_on_c, 0, 69, 55
2, 18883, Note_on_c, 0, 69, 0
2, 18917, Note_on_c, 0, 40, 47
2, 18917, Note_on_c, 0, 67, 61
2, 18956, Note_on_c, 0, 40, 0
2, 18977, Note_on_c, 0, 67, 0
2, 19020, Note_on_c, 0, 76, 60
2, 19104, Note_on_c, 0, 76, 0
2, 19120, Note_on_c, 0, 78, 61
2, 19200, Note_on_c, 0, 78, 0
2, 19226, Note_on_c, 0, 79, 55
2, 19288, Note_on_c, 0, 79, 0
2, 19325, Note_on_c, 0, 52, 43
2, 19333, Note_on_c, 0, 71, 56
2, 19361, Note_on_c, 0, 52, 0
2, 19396, Note_on_c, 0, 71, 0
2, 19427, Note_on_c, 0, 74, 59
2, 19494, Note_on_c, 0, 74, 0
2, 19535, Note_on_c, 0, 73, 60
2, 19595, Note_on_c, 0, 73, 0
2, 19634, Note_on_c, 0, 71, 58
2, 19730, Note_on_c, 0, 71, 0
2, 19740, Note_on_c, 0, 45, 56
2, 19745, Note_on_c, 0, 73, 64
2, 19781, Note_on_c, 0, 45, 0
2, 19838, Note_on_c, 0, 73, 0
2, 19848, Note_on_c, 0, 76, 63
2, 19930, Note_on_c, 0, 76, 0
2, 19956, Note_on_c, 0, 78, 61
2, 20030, Note_on_c, 0, 78, 0
2, 20051, Note_on_c, 0, 79, 59
2, 20106, Note_on_c, 0, 79, 0
2, 20149, Note_on_c, 0, 69, 72
2, 20150, Note_on_c, 0, 49, 59
2, 20192, Note_on_c, 0, 49, 0
2, 20241, Note_on_c, 0, 69, 0
2, 20253, Note_on_c, 0, 79, 70
2, 20351, Note_on_c, 0, 79, 0
2, 20360, Note_on_c, 0, 78, 65
2, 20449, Note_on_c, 0, 78, 0
2, 20450, Note_on_c, 0, 76, 67
2, 20555, Note_on_c, 0, 76, 0
2, 20570, Note_on_c, 0, 38, 62
2, 20573, Note_on_c, 0, 78, 72
2, 20606, Note_on_c, 0, 38, 0
2, 20659, Note_on_c, 0, 78, 0
2, 20666, Note_on_c, 0, 74, 68
2, 20764, Note_on_c, 0, 74, 0
2, 20777, Note_on_c, 0, 76, 62
2, 20853, Note_on_c, 0, 76, 0
2, 20880, Note_on_c, 0, 78, 68
2, 20935, Control_c, 0, 64, 46
2, 20947, Note_on_c, 0, 78, 0
2, 20954, Control_c, 0, 64, 58
2, 20973, Control_c, 0, 64, 62
2, 20976, Note_on_c, 0, 50, 51
2, 20988, Note_on_c, 0, 69, 69
2, 21007, Note_on_c, 0, 50, 0
2, 21012, Control_c, 0, 64, 60
2, 21031, Control_c, 0, 64, 59
2, 21050, Control_c, 0, 64, 58
2, 21069, Control_c, 0, 64, 56
2, 21082, Note_on_c, 0, 69, 0
2, 21084, Note_on_c, 0, 72, 73
2, 21089, Control_c, 0, 64, 52
2, 21107, Control_c, 0, 64, 44
2, 21127, Control_c, 0, 64, 28
2, 21146, Control_c, 0, 64, 0
2, 21157, Note_on_c, 0, 72, 0
2, 21181, Note_on_c, 0, 71, 73
2, 21262, Note_on_c, 0, 71, 0
2, 21287, Note_on_c, 0, 69, 73
2, 21388, Note_on_c, 0, 71, 82
2, 21393, Note_on_c, 0, 38, 63
2, 21395, Note_on_c, 0, 69, 0
2, 21436, Note_on_c, 0, 38, 0
2, 21456, Note_on_c, 0, 71, 0
2, 21490, Note_on_c, 0, 67, 68
2, 21549, Note_on_c, 0, 67, 0
2, 21591, Note_on_c, 0, 69, 78
2, 21673, Note_on_c, 0, 69, 0
2, 21700, Note_on_c, 0, 71, 68
2, 21741, Control_c, 0, 64, 33
2, 21760, Control_c, 0, 64, 59
2, 21780, Control_c, 0, 64, 65
2, 21782, Note_on_c, 0, 71, 0
2, 21798, Control_c, 0, 64, 66
2, 21798, Note_on_c, 0, 61, 75
2, 21799, Note_on_c, 0, 50, 68
2, 21818, Control_c, 0, 64, 65
2, 21837, Control_c, 0, 64, 64
2, 21849, Note_on_c, 0, 50, 0
2, 21857, Control_c, 0, 64, 63
2, 21863, Note_on_c, 0, 61, 0
2, 21875, Control_c, 0, 64, 60
2, 21895, Control_c, 0, 64, 50
2, 21900, Note_on_c, 0, 71, 76
2, 21914, Control_c, 0, 64, 31
2, 21933, Control_c, 0, 64, 0
2, 22008, Note_on_c, 0, 71, 0
2, 22009, Note_on_c, 0, 69, 72
2, 22103, Note_on_c, 0, 67, 67
2, 22109, Note_on_c, 0, 69, 0
2, 22206, Note_on_c, 0, 67, 0
2, 22207, Note_on_c, 0, 66, 82
2, 22209, Note_on_c, 0, 38, 74
2, 22248, Note_on_c, 0, 38, 0
2, 22292, Note_on_c, 0, 66, 0
2, 22299, Note_on_c, 0, 62, 72
2, 22410, Note_on_c, 0, 62, 0
2, 22413, Note_on_c, 0, 64, 71
2, 22496, Note_on_c, 0, 64, 0
2, 22512, Note_on_c, 0, 66, 75
2, 22548, Control_c, 0, 64, 20
2, 22568, Control_c, 0, 64, 55
2, 22587, Control_c, 0, 64, 66
2, 22587, Note_on_c, 0, 66, 0
2, 22607, Control_c, 0, 64, 68
2, 22608, Note_on_c, 0, 50, 71
2, 22617, Note_on_c, 0, 57, 73
2, 22625, Control_c, 0, 64, 67
2, 22645, Control_c, 0, 64, 66
2, 22650, Note_on_c, 0, 50, 0
2, 22664, Control_c, 0, 64, 64
2, 22682, Control_c, 0, 64, 58
2, 22690, Note_on_c, 0, 57, 0
2, 22702, Control_c, 0, 64, 41
2, 22717, Note_on_c, 0, 60, 75
2, 22721, Control_c, 0, 64, 0
2, 22807, Note_on_c, 0, 60, 0
2, 22815, Note_on_c, 0, 59, 73
2, 22908, Note_on_c, 0, 59, 0
2, 22926, Note_on_c, 0, 57, 76
2, 23017, Note_on_c, 0, 57, 0
2, 23021, Note_on_c, 0, 38, 80
2, 23029, Note_on_c, 0, 59, 90
2, 23060, Note_on_c, 0, 38, 0
2, 23130, Note_on_c, 0, 59, 0
2, 23132, Note_on_c, 0, 62, 80
2, 23233, Note_on_c, 0, 64, 74
2, 23239, Note_on_c, 0, 62, 0
2, 23333, Note_on_c, 0, 66, 77
2, 23346, Note_on_c, 0, 64, 0
2, 23436, Note_on_c, 0, 50, 74
2, 23442, Note_on_c, 0, 59, 81
2, 23448, Note_on_c, 0, 66, 0
2, 23494, Note_on_c, 0, 50, 0
2, 23546, Note_on_c, 0, 69, 77
2, 23550, Note_on_c, 0, 59, 0
2, 23645, Note_on_c, 0, 68, 80
2, 23684, Note_on_c, 0, 69, 0
2, 23747, Note_on_c, 0, 66, 83
2, 23758, Control_c, 0, 64, 19
2, 23769, Note_on_c, 0, 68, 0
2, 23777, Control_c, 0, 64, 59
2, 23796, Control_c, 0, 64, 70
2, 23816, Control_c, 0, 64, 80
2, 23835, Control_c, 0, 64, 91
2, 23836, Note_on_c, 0, 38, 84
2, 23845, Note_on_c, 0, 68, 83
2, 23852, Control_c, 0, 64, 90
2, 23867, Note_on_c, 0, 38, 0
2, 23867, Note_on_c, 0, 66, 0
2, 23870, Control_c, 0, 64, 81
2, 23890, Control_c, 0, 64, 68
2, 23909, Control_c, 0, 64, 50
2, 23930, Control_c, 0, 64, 0
2, 23948, Note_on_c, 0, 64, 78
2, 23949, Note_on_c, 0, 68, 0
2, 24049, Note_on_c, 0, 66, 74
2, 24054, Note_on_c, 0, 64, 0
2, 24152, Note_on_c, 0, 68, 70
2, 24168, Note_on_c, 0, 66, 0
2, 24228, Note_on_c, 0, 68, 0
2, 24233, Note_on_c, 0, 56, 78
2, 24247, Note_on_c, 0, 59, 74
2, 24266, Note_on_c, 0, 56, 0
2, 24308, Note_on_c, 0, 59, 0
2, 24340, Note_on_c, 0, 62, 81
2, 24429, Note_on_c, 0, 62, 0
2, 24439, Note_on_c, 0, 60, 73
2, 24537, Note_on_c, 0, 60, 0
2, 24543, Note_on_c, 0, 59, 83
2, 24617, Note_on_c, 0, 59, 0
2, 24625, Note_on_c, 0, 48, 83
2, 24631, Note_on_c, 0, 57, 83
2, 24680, Note_on_c, 0, 48, 0
2, 24735, Note_on_c, 0, 60, 81
2, 24741, Note_on_c, 0, 57, 0
2, 24837, Note_on_c, 0, 62, 77
2, 24864, Note_on_c, 0, 60, 0
2, 24931, Note_on_c, 0, 64, 74
2, 24945, Note_on_c, 0, 62, 0
2, 25017, Note_on_c, 0, 64, 0
2, 25036, Note_on_c, 0, 54, 83
2, 25041, Note_on_c, 0, 57, 81
2, 25069, Note_on_c, 0, 54, 0
2, 25143, Note_on_c, 0, 67, 72
2, 25145, Note_on_c, 0, 57, 0
2, 25237, Note_on_c, 0, 66, 70
2, 25256, Note_on_c, 0, 67, 0
2, 25322, Note_on_c, 0, 64, 74
2, 25338, Note_on_c, 0, 66, 0
2, 25427, Control_c, 0, 64, 40
2, 25430, Note_on_c, 0, 63, 87
2, 25438, Note_on_c, 0, 47, 83
2, 25439, Note_on_c, 0, 64, 0
2, 25447, Control_c, 0, 64, 50
2, 25466, Control_c, 0, 64, 54
2, 25475, Note_on_c, 0, 47, 0
2, 25486, Control_c, 0, 64, 50
2, 25504, Control_c, 0, 64, 35
2, 25523, Control_c, 0, 64, 0
2, 25527, Note_on_c, 0, 57, 74
2, 25528, Note_on_c, 0, 63, 0
2, 25642, Note_on_c, 0, 57, 0
2, 25645, Note_on_c, 0, 59, 72
2, 25732, Note_on_c, 0, 59, 0
2, 25745, Note_on_c, 0, 60, 61
2, 25827, Note_on_c, 0, 60, 0
2, 25851, Note_on_c, 0, 51, 67
2, 25861, Note_on_c, 0, 54, 74
2, 25881, Note_on_c, 0, 51, 0
2, 25915, Note_on_c, 0, 54, 0
2, 25968, Note_on_c, 0, 60, 72
2, 26058, Note_on_c, 0, 60, 0
2, 26065, Note_on_c, 0, 59, 70
2, 26166, Note_on_c, 0, 59, 0
2, 26171, Note_on_c, 0, 57, 73
2, 26257, Note_on_c, 0, 57, 0
2, 26270, Note_on_c, 0, 55, 80
2, 26276, Note_on_c, 0, 52, 79
2, 26314, Note_on_c, 0, 52, 0
2, 26347, Note_on_c, 0, 55, 0
2, 26383, Note_on_c, 0, 64, 78
2, 26477, Note_on_c, 0, 64, 0
2, 26492, Note_on_c, 0, 66, 67
2, 26573, Note_on_c, 0, 66, 0
2, 26589, Note_on_c, 0, 67, 63
2, 26671, Note_on_c, 0, 67, 0
2, 26678, Note_on_c, 0, 55, 69
2, 26685, Note_on_c, 0, 59, 77
2, 26710, Note_on_c, 0, 55, 0
2, 26773, Note_on_c, 0, 59, 0
2, 26780, Note_on_c, 0, 62, 73
2, 26867, Note_on_c, 0, 62, 0
2, 26882, Note_on_c, 0, 61, 75
2, 26956, Note_on_c, 0, 61, 0
2, 26983, Note_on_c, 0, 59, 78
2, 27074, Note_on_c, 0, 59, 0
2, 27085, Note_on_c, 0, 58, 80
2, 27097, Note_on_c, 0, 47, 69
2, 27132, Note_on_c, 0, 47, 0
2, 27186, Note_on_c, 0, 61, 72
2, 27201, Note_on_c, 0, 58, 0
2, 27288, Note_on_c, 0, 62, 64
2, 27296, Note_on_c, 0, 61, 0
2, 27385, Note_on_c, 0, 62, 0
2, 27389, Note_on_c, 0, 64, 69
2, 27455, Note_on_c, 0, 64, 0
2, 27489, Note_on_c, 0, 52, 70
2, 27496, Note_on_c, 0, 58, 74
2, 27523, Note_on_c, 0, 52, 0
2, 27566, Note_on_c, 0, 58, 0
2, 27591, Note_on_c, 0, 67, 76
2, 27698, Note_on_c, 0, 66, 70
2, 27699, Note_on_c, 0, 67, 0
2, 27780, Note_on_c, 0, 66, 0
2, 27788, Note_on_c, 0, 64, 74
2, 27887, Note_on_c, 0, 64, 0
2, 27898, Note_on_c, 0, 55, 73
2, 27899, Note_on_c, 0, 73, 85
2, 27940, Note_on_c, 0, 55, 0
2, 28000, Note_on_c, 0, 70, 81
2, 28009, Note_on_c, 0, 73, 0
2, 28108, Note_on_c, 0, 71, 74
2, 28173, Note_on_c, 0, 70, 0
2, 28196, Note_on_c, 0, 73, 73
2, 28218, Note_on_c, 0, 71, 0
2, 28289, Note_on_c, 0, 58, 73
2, 28294, Note_on_c, 0, 66, 81
2, 28296, Note_on_c, 0, 73, 0
2, 28317, Note_on_c, 0, 58, 0
2, 28378, Note_on_c, 0, 66, 0
2, 28401, Note_on_c, 0, 76, 84
2, 28514, Note_on_c, 0, 74, 70
2, 28533, Note_on_c, 0, 76, 0
2, 28591, Note_on_c, 0, 74, 0
2, 28603, Note_on_c, 0, 73, 75
2, 28716, Note_on_c, 0, 73, 0
2, 28728, Note_on_c, 0, 74, 73
2, 28732, Note_on_c, 0, 47, 66
2, 28769, Note_on_c, 0, 47, 0
2, 28827, Note_on_c, 0, 71, 66
2, 28827, Note_on_c, 0, 74, 0
2, 28917, Note_on_c, 0, 71, 0
2, 28940, Note_on_c, 0, 73, 59
2, 29017, Note_on_c, 0, 73, 0
2, 29040, Note_on_c, 0, 74, 59
2, 29091, Note_on_c, 0, 74, 0
2, 29132, Note_on_c, 0, 66, 65
2, 29141, Note_on_c, 0, 59, 61
2, 29180, Note_on_c, 0, 59, 0
2, 29237, Note_on_c, 0, 66, 0
2, 29239, Note_on_c, 0, 69, 67
2, 29314, Note_on_c, 0, 69, 0
2, 29352, Note_on_c, 0, 68, 64
2, 29406, Note_on_c, 0, 68, 0
2, 29431, Note_on_c, 0, 66, 61
2, 29527, Note_on_c, 0, 66, 0
2, 29542, Note_on_c, 0, 52, 51
2, 29544, Note_on_c, 0, 68, 65
2, 29588, Note_on_c, 0, 52, 0
2, 29640, Note_on_c, 0, 71, 59
2, 29646, Note_on_c, 0, 68, 0
2, 29726, Note_on_c, 0, 71, 0
2, 29744, Note_on_c, 0, 72, 56
2, 29803, Note_on_c, 0, 72, 0
2, 29834, Note_on_c, 0, 74, 56
2, 29895, Note_on_c, 0, 74, 0
2, 29944, Note_on_c, 0, 64, 64
2, 29948, Note_on_c, 0, 56, 55
2, 29987, Note_on_c, 0, 56, 0
2, 30037, Note_on_c, 0, 64, 0
2, 30055, Note_on_c, 0, 74, 51
2, 30118, Note_on_c, 0, 74, 0
2, 30144, Note_on_c, 0, 72, 59
2, 30225, Note_on_c, 0, 72, 0
2, 30251, Note_on_c, 0, 71, 61
2, 30331, Note_on_c, 0, 71, 0
2, 30362, Note_on_c, 0, 45, 48
2, 30366, Note_on_c, 0, 72, 60
2, 30398, Note_on_c, 0, 45, 0
2, 30420, Note_on_c, 0, 72, 0
2, 30457, Note_on_c, 0, 69, 56
2, 30549, Note_on_c, 0, 69, 0
2, 30573, Control_c, 0, 67, 8
2, 30580, Note_on_c, 0, 71, 53
2, 30592, Control_c, 0, 67, 10
2, 30612, Control_c, 0, 67, 10
2, 30631, Control_c, 0, 67, 11
2, 30636, Note_on_c, 0, 71, 0
2, 30650, Control_c, 0, 67, 11
2, 30669, Control_c, 0, 67, 12
2, 30670, Note_on_c, 0, 72, 54
2, 30689, Control_c, 0, 67, 12
2, 30707, Control_c, 0, 67, 14
2, 30727, Control_c, 0, 67, 15
2, 30728, Note_on_c, 0, 72, 0
2, 30746, Control_c, 0, 67, 17
2, 30766, Control_c, 0, 67, 19
2, 30771, Note_on_c, 0, 57, 52
2, 30773, Note_on_c, 0, 64, 47
2, 30784, Control_c, 0, 67, 21
2, 30803, Control_c, 0, 67, 24
2, 30815, Note_on_c, 0, 57, 0
2, 30823, Control_c, 0, 67, 27
2, 30836, Note_on_c, 0, 64, 0
2, 30842, Control_c, 0, 67, 30
2, 30861, Control_c, 0, 67, 34
2, 30875, Note_on_c, 0, 67, 50
2, 30880, Control_c, 0, 67, 38
2, 30900, Control_c, 0, 67, 43
2, 30918, Control_c, 0, 67, 49
2, 30931, Note_on_c, 0, 67, 0
2, 30938, Control_c, 0, 67, 55
2, 30957, Control_c, 0, 67, 61
2, 30977, Control_c, 0, 67, 65
2, 30979, Note_on_c, 0, 66, 55
2, 30995, Control_c, 0, 67, 68
2, 31015, Control_c, 0, 67, 70
2, 31026, Note_on_c, 0, 66, 0
2, 31034, Control_c, 0, 67, 70
2, 31053, Control_c, 0, 67, 71
2, 31077, Note_on_c, 0, 64, 56
2, 31149, Control_c, 0, 67, 71
2, 31151, Note_on_c, 0, 64, 0
2, 31176, Note_on_c, 0, 66, 54
2, 31182, Note_on_c, 0, 50, 46
2, 31220, Note_on_c, 0, 50, 0
2, 31264, Control_c, 0, 67, 72
2, 31277, Note_on_c, 0, 66, 0
2, 31293, Note_on_c, 0, 69, 52
2, 31322, Control_c, 0, 67, 73
2, 31341, Control_c, 0, 67, 74
2, 31357, Note_on_c, 0, 69, 0
2, 31360, Control_c, 0, 67, 77
2, 31380, Control_c, 0, 67, 82
2, 31382, Note_on_c, 0, 71, 55
2, 31398, Control_c, 0, 67, 87
2, 31418, Control_c, 0, 67, 92
2, 31437, Control_c, 0, 67, 97
2, 31457, Control_c, 0, 67, 103
2, 31457, Note_on_c, 0, 71, 0
2, 31475, Control_c, 0, 67, 108
2, 31483, Note_on_c, 0, 72, 57
2, 31495, Control_c, 0, 67, 115
2, 31514, Control_c, 0, 67, 123
2, 31532, Control_c, 0, 67, 127
2, 31549, Note_on_c, 0, 72, 0
2, 31590, Note_on_c, 0, 62, 53
2, 31607, Note_on_c, 0, 54, 39
2, 31641, Note_on_c, 0, 54, 0
2, 31688, Note_on_c, 0, 62, 0
2, 31700, Note_on_c, 0, 72, 56
2, 31769, Note_on_c, 0, 72, 0
2, 31809, Note_on_c, 0, 71, 53
2, 31882, Note_on_c, 0, 71, 0
2, 31914, Note_on_c, 0, 69, 53
2, 31979, Note_on_c, 0, 69, 0
2, 32007, Note_on_c, 0, 43, 44
2, 32029, Note_on_c, 0, 71, 58
2, 32050, Note_on_c, 0, 43, 0
2, 32081, Note_on_c, 0, 71, 0
2, 32122, Note_on_c, 0, 67, 52
2, 32209, Note_on_c, 0, 67, 0
2, 32227, Note_on_c, 0, 69, 58
2, 32298, Note_on_c, 0, 69, 0
2, 32336, Note_on_c, 0, 71, 55
2, 32396, Note_on_c, 0, 71, 0
2, 32449, Note_on_c, 0, 62, 47
2, 32454, Note_on_c, 0, 55, 35
2, 32500, Note_on_c, 0, 55, 0
2, 32521, Note_on_c, 0, 62, 0
2, 32536, Note_on_c, 0, 71, 55
2, 32625, Note_on_c, 0, 71, 0
2, 32633, Note_on_c, 0, 69, 62
2, 32705, Note_on_c, 0, 69, 0
2, 32741, Note_on_c, 0, 67, 58
2, 32820, Note_on_c, 0, 67, 0
2, 32836, Note_on_c, 0, 47, 33
2, 32839, Note_on_c, 0, 74, 61
2, 32874, Note_on_c, 0, 47, 0
2, 32895, Note_on_c, 0, 74, 0
2, 32947, Note_on_c, 0, 67, 48
2, 33012, Note_on_c, 0, 67, 0
2, 33050, Note_on_c, 0, 69, 55
2, 33107, Note_on_c, 0, 69, 0
2, 33145, Note_on_c, 0, 71, 57
2, 33210, Note_on_c, 0, 71, 0
2, 33256, Note_on_c, 0, 55, 42
2, 33268, Note_on_c, 0, 62, 55
2, 33299, Note_on_c, 0, 55, 0
2, 33351, Note_on_c, 0, 71, 66
2, 33359, Note_on_c, 0, 62, 0
2, 33450, Note_on_c, 0, 71, 0
2, 33454, Note_on_c, 0, 69, 64
2, 33538, Note_on_c, 0, 69, 0
2, 33554, Note_on_c, 0, 67, 63
2, 33641, Note_on_c, 0, 67, 0
2, 33675, Note_on_c, 0, 45, 44
2, 33689, Note_on_c, 0, 72, 29
2, 33715, Note_on_c, 0, 45, 0
2, 33717, Note_on_c, 0, 71, 16
2, 33730, Note_on_c, 0, 72, 0
2, 33750, Note_on_c, 0, 71, 0
2, 33761, Note_on_c, 0, 69, 58
2, 33844, Note_on_c, 0, 69, 0
2, 33873, Note_on_c, 0, 71, 62
2, 33946, Note_on_c, 0, 71, 0
2, 33979, Note_on_c, 0, 72, 58
2, 34032, Note_on_c, 0, 72, 0
2, 34082, Note_on_c, 0, 55, 48
2, 34092, Note_on_c, 0, 64, 49
2, 34141, Note_on_c, 0, 55, 0
2, 34156, Note_on_c, 0, 64, 0
2, 34187, Note_on_c, 0, 67, 50
2, 34242, Note_on_c, 0, 67, 0
2, 34284, Note_on_c, 0, 66, 59
2, 34348, Note_on_c, 0, 66, 0
2, 34391, Note_on_c, 0, 64, 56
2, 34474, Note_on_c, 0, 64, 0
2, 34494, Note_on_c, 0, 50, 51
2, 34495, Note_on_c, 0, 66, 62
2, 34547, Note_on_c, 0, 50, 0
2, 34592, Note_on_c, 0, 66, 0
2, 34593, Note_on_c, 0, 69, 58
2, 34686, Note_on_c, 0, 69, 0
2, 34700, Note_on_c, 0, 71, 56
2, 34777, Note_on_c, 0, 71, 0
2, 34794, Note_on_c, 0, 72, 64
2, 34854, Note_on_c, 0, 72, 0
2, 34897, Note_on_c, 0, 54, 54
2, 34910, Note_on_c, 0, 62, 62
2, 34942, Note_on_c, 0, 54, 0
2, 35002, Note_on_c, 0, 72, 69
2, 35013, Note_on_c, 0, 62, 0
2, 35110, Note_on_c, 0, 71, 70
2, 35122, Note_on_c, 0, 72, 0
2, 35203, Note_on_c, 0, 71, 0
2, 35212, Note_on_c, 0, 69, 70
2, 35308, Note_on_c, 0, 69, 0
2, 35314, Note_on_c, 0, 71, 68
2, 35334, Note_on_c, 0, 43, 54
2, 35370, Note_on_c, 0, 43, 0
2, 35399, Note_on_c, 0, 71, 0
2, 35421, Note_on_c, 0, 67, 64
2, 35511, Note_on_c, 0, 67, 0
2, 35533, Note_on_c, 0, 69, 62
2, 35614, Note_on_c, 0, 69, 0
2, 35640, Note_on_c, 0, 71, 59
2, 35690, Note_on_c, 0, 71, 0
2, 35740, Note_on_c, 0, 62, 55
2, 35745, Note_on_c, 0, 55, 52
2, 35793, Note_on_c, 0, 55, 0
2, 35837, Note_on_c, 0, 66, 60
2, 35842, Note_on_c, 0, 62, 0
2, 35916, Note_on_c, 0, 66, 0
2, 35949, Note_on_c, 0, 64, 57
2, 36018, Note_on_c, 0, 64, 0
2, 36050, Note_on_c, 0, 62, 55
2, 36120, Note_on_c, 0, 62, 0
2, 36152, Note_on_c, 0, 43, 49
2, 36164, Note_on_c, 0, 64, 67
2, 36198, Note_on_c, 0, 43, 0
2, 36227, Note_on_c, 0, 64, 0
2, 36258, Note_on_c, 0, 67, 66
2, 36363, Note_on_c, 0, 69, 70
2, 36381, Note_on_c, 0, 67, 0
2, 36467, Note_on_c, 0, 69, 0
2, 36471, Note_on_c, 0, 71, 67
2, 36549, Note_on_c, 0, 71, 0
2, 36569, Note_on_c, 0, 64, 71
2, 36585, Note_on_c, 0, 55, 52
2, 36640, Note_on_c, 0, 55, 0
2, 36673, Note_on_c, 0, 74, 69
2, 36683, Note_on_c, 0, 64, 0
2, 36780, Note_on_c, 0, 73, 71
2, 36783, Note_on_c, 0, 74, 0
2, 36884, Note_on_c, 0, 71, 66
2, 36889, Note_on_c, 0, 73, 0
2, 36995, Note_on_c, 0, 71, 0
2, 36999, Note_on_c, 0, 73, 70
2, 37009, Note_on_c, 0, 43, 48
2, 37048, Note_on_c, 0, 43, 0
2, 37087, Note_on_c, 0, 73, 0
2, 37099, Note_on_c, 0, 69, 66
2, 37193, Note_on_c, 0, 69, 0
2, 37212, Note_on_c, 0, 71, 63
2, 37289, Note_on_c, 0, 71, 0
2, 37314, Note_on_c, 0, 73, 60
2, 37384, Note_on_c, 0, 73, 0
2, 37426, Note_on_c, 0, 49, 55
2, 37434, Note_on_c, 0, 64, 56
2, 37475, Note_on_c, 0, 49, 0
2, 37511, Note_on_c, 0, 64, 0
2, 37533, Note_on_c, 0, 67, 55
2, 37629, Note_on_c, 0, 67, 0
2, 37640, Note_on_c, 0, 66, 58
2, 37725, Note_on_c, 0, 66, 0
2, 37745, Note_on_c, 0, 64, 62
2, 37829, Note_on_c, 0, 64, 0
2, 37849, Note_on_c, 0, 42, 58
2, 37859, Note_on_c, 0, 62, 62
2, 37891, Note_on_c, 0, 42, 0
2, 37921, Note_on_c, 0, 62, 0
2, 37951, Note_on_c, 0, 66, 60
2, 38058, Note_on_c, 0, 66, 0
2, 38059, Note_on_c, 0, 67, 56
2, 38154, Note_on_c, 0, 67, 0
2, 38164, Note_on_c, 0, 69, 68
2, 38242, Note_on_c, 0, 69, 0
2, 38282, Note_on_c, 0, 59, 70
2, 38284, Note_on_c, 0, 50, 56
2, 38330, Note_on_c, 0, 50, 0
2, 38373, Note_on_c, 0, 59, 0
2, 38383, Note_on_c, 0, 69, 72
2, 38479, Note_on_c, 0, 69, 0
2, 38488, Note_on_c, 0, 67, 63
2, 38575, Note_on_c, 0, 67, 0
2, 38596, Note_on_c, 0, 66, 63
2, 38691, Note_on_c, 0, 66, 0
2, 38709, Note_on_c, 0, 40, 49
2, 38709, Note_on_c, 0, 67, 63
2, 38715, Control_c, 0, 67, 125
2, 38734, Control_c, 0, 67, 123
2, 38747, Note_on_c, 0, 40, 0
2, 38753, Control_c, 0, 67, 122
2, 38773, Control_c, 0, 67, 121
2, 38778, Note_on_c, 0, 67, 0
2, 38792, Control_c, 0, 67, 120
2, 38799, Note_on_c, 0, 64, 59
2, 38811, Control_c, 0, 67, 119
2, 38830, Control_c, 0, 67, 118
2, 38850, Control_c, 0, 67, 117
2, 38868, Control_c, 0, 67, 116
2, 38888, Control_c, 0, 67, 115
2, 38893, Note_on_c, 0, 64, 0
2, 38917, Note_on_c, 0, 66, 63
2, 38945, Control_c, 0, 67, 115
2, 39003, Note_on_c, 0, 66, 0
2, 39025, Note_on_c, 0, 67, 57
2, 39093, Note_on_c, 0, 67, 0
2, 39099, Control_c, 0, 67, 114
2, 39138, Control_c, 0, 67, 114
2, 39138, Note_on_c, 0, 59, 53
2, 39153, Note_on_c, 0, 50, 49
2, 39156, Control_c, 0, 67, 113
2, 39194, Note_on_c, 0, 50, 0
2, 39195, Control_c, 0, 67, 113
2, 39212, Control_c, 0, 67, 112
2, 39215, Note_on_c, 0, 59, 0
2, 39230, Control_c, 0, 67, 109
2, 39235, Note_on_c, 0, 62, 50
2, 39250, Control_c, 0, 67, 106
2, 39269, Control_c, 0, 67, 104
2, 39289, Control_c, 0, 67, 104
2, 39320, Note_on_c, 0, 62, 0
2, 39328, Control_c, 0, 67, 103
2, 39348, Note_on_c, 0, 61, 62
2, 39404, Control_c, 0, 67, 104
2, 39419, Note_on_c, 0, 61, 0
2, 39460, Note_on_c, 0, 59, 62
2, 39548, Note_on_c, 0, 59, 0
2, 39552, Note_on_c, 0, 45, 57
2, 39563, Note_on_c, 0, 61, 66
2, 39591, Note_on_c, 0, 45, 0
2, 39658, Note_on_c, 0, 61, 0
2, 39663, Note_on_c, 0, 64, 63
2, 39754, Note_on_c, 0, 64, 0
2, 39769, Note_on_c, 0, 66, 59
2, 39858, Note_on_c, 0, 66, 0
2, 39871, Note_on_c, 0, 67, 54
2, 39925, Note_on_c, 0, 67, 0
2, 39978, Note_on_c, 0, 49, 56
2, 39980, Note_on_c, 0, 57, 60
2, 39999, Control_c, 0, 67, 103
2, 40022, Note_on_c, 0, 49, 0
2, 40066, Note_on_c, 0, 57, 0
2, 40082, Note_on_c, 0, 67, 55
2, 40134, Control_c, 0, 67, 103
2, 40182, Note_on_c, 0, 67, 0
2, 40192, Note_on_c, 0, 66, 61
2, 40211, Control_c, 0, 67, 103
2, 40288, Note_on_c, 0, 66, 0
2, 40293, Note_on_c, 0, 64, 60
2, 40383, Control_c, 0, 67, 104
2, 40388, Note_on_c, 0, 64, 0
2, 40397, Note_on_c, 0, 66, 65
2, 40409, Note_on_c, 0, 38, 51
2, 40443, Note_on_c, 0, 38, 0
2, 40460, Control_c, 0, 67, 103
2, 40493, Note_on_c, 0, 66, 0
2, 40512, Note_on_c, 0, 62, 60
2, 40537, Control_c, 0, 67, 103
2, 40602, Note_on_c, 0, 62, 0
2, 40616, Note_on_c, 0, 64, 52
2, 40710, Control_c, 0, 67, 102
2, 40711, Note_on_c, 0, 64, 0
2, 40729, Control_c, 0, 67, 102
2, 40729, Note_on_c, 0, 66, 61
2, 40787, Control_c, 0, 67, 101
2, 40789, Note_on_c, 0, 66, 0
2, 40805, Control_c, 0, 67, 101
2, 40809, Note_on_c, 0, 50, 53
2, 40825, Control_c, 0, 67, 100
2, 40827, Note_on_c, 0, 57, 63
2, 40844, Control_c, 0, 67, 100
2, 40854, Note_on_c, 0, 50, 0
2, 40863, Control_c, 0, 67, 95
2, 40882, Control_c, 0, 67, 91
2, 40902, Control_c, 0, 67, 88
2, 40917, Note_on_c, 0, 57, 0
2, 40918, Note_on_c, 0, 66, 72
2, 40921, Control_c, 0, 67, 85
2, 40940, Control_c, 0, 67, 84
2, 40959, Control_c, 0, 67, 82
2, 40979, Control_c, 0, 67, 81
2, 40997, Control_c, 0, 67, 80
2, 41017, Control_c, 0, 67, 79
2, 41020, Note_on_c, 0, 66, 0
2, 41030, Note_on_c, 0, 64, 65
2, 41036, Control_c, 0, 67, 79
2, 41122, Note_on_c, 0, 64, 0
2, 41130, Note_on_c, 0, 62, 64
2, 41172, Control_c, 0, 67, 78
2, 41192, Note_on_c, 0, 62, 0
2, 41210, Control_c, 0, 67, 78
2, 41223, Note_on_c, 0, 42, 74
2, 41232, Note_on_c, 0, 69, 66
2, 41249, Control_c, 0, 67, 77
2, 41261, Note_on_c, 0, 42, 0
2, 41267, Control_c, 0, 67, 76
2, 41286, Control_c, 0, 67, 74
2, 41306, Control_c, 0, 67, 73
2, 41318, Note_on_c, 0, 69, 0
2, 41325, Control_c, 0, 67, 72
2, 41330, Note_on_c, 0, 66, 67
2, 41363, Control_c, 0, 67, 72
2, 41383, Control_c, 0, 67, 71
2, 41402, Control_c, 0, 67, 69
2, 41421, Control_c, 0, 67, 66
2, 41440, Control_c, 0, 67, 62
2, 41440, Note_on_c, 0, 67, 69
2, 41457, Note_on_c, 0, 66, 0
2, 41460, Control_c, 0, 67, 58
2, 41478, Control_c, 0, 67, 53
2, 41498, Control_c, 0, 67, 49
2, 41517, Control_c, 0, 67, 46
2, 41537, Control_c, 0, 67, 42
2, 41539, Note_on_c, 0, 69, 71
2, 41544, Note_on_c, 0, 67, 0
2, 41555, Control_c, 0, 67, 39
2, 41575, Control_c, 0, 67, 38
2, 41594, Control_c, 0, 67, 37
2, 41631, Note_on_c, 0, 69, 0
2, 41642, Note_on_c, 0, 62, 75
2, 41645, Note_on_c, 0, 57, 61
2, 41691, Note_on_c, 0, 57, 0
2, 41740, Note_on_c, 0, 72, 77
2, 41753, Note_on_c, 0, 62, 0
2, 41824, Control_c, 0, 67, 37
2, 41843, Control_c, 0, 67, 36
2, 41844, Note_on_c, 0, 71, 73
2, 41854, Note_on_c, 0, 72, 0
2, 41863, Control_c, 0, 67, 36
2, 41882, Control_c, 0, 67, 34
2, 41901, Control_c, 0, 67, 30
2, 41920, Control_c, 0, 67, 27
2, 41940, Control_c, 0, 67, 23
2, 41943, Note_on_c, 0, 71, 0
2, 41949, Note_on_c, 0, 69, 74
2, 41958, Control_c, 0, 67, 20
2, 41978, Control_c, 0, 67, 18
2, 41997, Control_c, 0, 67, 15
2, 42017, Control_c, 0, 67, 11
2, 42035, Control_c, 0, 67, 0
2, 42049, Note_on_c, 0, 43, 70
2, 42052, Note_on_c, 0, 71, 78
2, 42064, Note_on_c, 0, 69, 0
2, 42084, Note_on_c, 0, 43, 0
2, 42155, Note_on_c, 0, 67, 77
2, 42155, Note_on_c, 0, 71, 0
2, 42269, Note_on_c, 0, 69, 75
2, 42280, Note_on_c, 0, 67, 0
2, 42383, Note_on_c, 0, 71, 74
2, 42392, Note_on_c, 0, 69, 0
2, 42469, Note_on_c, 0, 71, 0
2, 42472, Note_on_c, 0, 55, 70
2, 42480, Note_on_c, 0, 62, 75
2, 42523, Note_on_c, 0, 55, 0
2, 42582, Note_on_c, 0, 71, 77
2, 42593, Note_on_c, 0, 62, 0
2, 42685, Note_on_c, 0, 69, 76
2, 42704, Note_on_c, 0, 71, 0
2, 42795, Note_on_c, 0, 69, 0
2, 42799, Note_on_c, 0, 67, 75
2, 42870, Note_on_c, 0, 67, 0
2, 42893, Note_on_c, 0, 47, 78
2, 42897, Note_on_c, 0, 74, 82
2, 42931, Note_on_c, 0, 47, 0
2, 42994, Note_on_c, 0, 71, 83
2, 43002, Note_on_c, 0, 74, 0
2, 43097, Note_on_c, 0, 72, 79
2, 43130, Note_on_c, 0, 71, 0
2, 43198, Note_on_c, 0, 74, 70
2, 43206, Note_on_c, 0, 72, 0
2, 43280, Note_on_c, 0, 74, 0
2, 43305, Note_on_c, 0, 68, 87
2, 43306, Note_on_c, 0, 62, 82
2, 43335, Note_on_c, 0, 62, 0
2, 43370, Note_on_c, 0, 68, 0
2, 43399, Note_on_c, 0, 77, 78
2, 43511, Note_on_c, 0, 76, 72
2, 43524, Note_on_c, 0, 77, 0
2, 43619, Note_on_c, 0, 74, 65
2, 43655, Note_on_c, 0, 76, 0
2, 43724, Note_on_c, 0, 45, 85
2, 43725, Note_on_c, 0, 73, 81
2, 43726, Control_c, 0, 64, 39
2, 43728, Note_on_c, 0, 74, 0
2, 43746, Control_c, 0, 64, 64
2, 43764, Control_c, 0, 64, 69
2, 43784, Control_c, 0, 64, 74
2, 43803, Control_c, 0, 64, 78
2, 43813, Note_on_c, 0, 73, 0
2, 43822, Control_c, 0, 64, 77
2, 43827, Note_on_c, 0, 69, 78
2, 43841, Control_c, 0, 64, 72
2, 43861, Control_c, 0, 64, 65
2, 43880, Control_c, 0, 64, 31
2, 43899, Control_c, 0, 64, 0
2, 43935, Note_on_c, 0, 71, 78
2, 43941, Note_on_c, 0, 69, 0
2, 44027, Note_on_c, 0, 71, 0
2, 44042, Note_on_c, 0, 73, 74
2, 44110, Note_on_c, 0, 73, 0
2, 44135, Note_on_c, 0, 55, 75
2, 44153, Note_on_c, 0, 64, 68
2, 44169, Note_on_c, 0, 55, 0
2, 44247, Note_on_c, 0, 67, 68
2, 44252, Note_on_c, 0, 64, 0
2, 44338, Note_on_c, 0, 67, 0
2, 44341, Note_on_c, 0, 66, 65
2, 44450, Note_on_c, 0, 64, 68
2, 44452, Note_on_c, 0, 66, 0
2, 44522, Note_on_c, 0, 64, 0
2, 44550, Note_on_c, 0, 54, 82
2, 44556, Note_on_c, 0, 69, 85
2, 44602, Note_on_c, 0, 54, 0
2, 44661, Note_on_c, 0, 69, 0
2, 44665, Note_on_c, 0, 74, 79
2, 44769, Note_on_c, 0, 76, 69
2, 44802, Note_on_c, 0, 74, 0
2, 44869, Note_on_c, 0, 78, 69
2, 44881, Note_on_c, 0, 76, 0
2, 44960, Note_on_c, 0, 71, 79
2, 44962, Note_on_c, 0, 78, 0
2, 44967, Note_on_c, 0, 50, 72
2, 45000, Note_on_c, 0, 50, 0
2, 45050, Note_on_c, 0, 71, 0
2, 45064, Note_on_c, 0, 81, 80
2, 45169, Note_on_c, 0, 79, 75
2, 45173, Note_on_c, 0, 81, 0
2, 45250, Note_on_c, 0, 79, 0
2, 45261, Note_on_c, 0, 78, 73
2, 45349, Note_on_c, 0, 78, 0
2, 45373, Note_on_c, 0, 79, 83
2, 45374, Note_on_c, 0, 52, 78
2, 45412, Note_on_c, 0, 52, 0
2, 45474, Note_on_c, 0, 79, 0
2, 45478, Note_on_c, 0, 73, 78
2, 45591, Note_on_c, 0, 74, 72
2, 45618, Note_on_c, 0, 73, 0
2, 45688, Note_on_c, 0, 76, 69
2, 45705, Note_on_c, 0, 74, 0
2, 45775, Note_on_c, 0, 76, 0
2, 45788, Note_on_c, 0, 49, 76
2, 45789, Note_on_c, 0, 69, 80
2, 45851, Note_on_c, 0, 49, 0
2, 45901, Note_on_c, 0, 79, 79
2, 45903, Note_on_c, 0, 69, 0
2, 46000, Note_on_c, 0, 78, 81
2, 46032, Note_on_c, 0, 79, 0
2, 46103, Note_on_c, 0, 76, 77
2, 46120, Note_on_c, 0, 78, 0
2, 46165, Control_c, 0, 64, 35
2, 46185, Control_c, 0, 64, 65
2, 46204, Control_c, 0, 64, 74
2, 46205, Note_on_c, 0, 78, 82
2, 46216, Note_on_c, 0, 50, 85
2, 46223, Control_c, 0, 64, 80
2, 46230, Note_on_c, 0, 76, 0
2, 46242, Control_c, 0, 64, 75
2, 46262, Control_c, 0, 64, 69
2, 46266, Note_on_c, 0, 50, 0
2, 46280, Control_c, 0, 64, 62
2, 46300, Control_c, 0, 64, 31
2, 46312, Note_on_c, 0, 78, 0
2, 46317, Note_on_c, 0, 71, 81
2, 46319, Control_c, 0, 64, 0
2, 46415, Note_on_c, 0, 73, 84
2, 46420, Note_on_c, 0, 71, 0
2, 46514, Note_on_c, 0, 74, 77
2, 46518, Note_on_c, 0, 73, 0
2, 46601, Note_on_c, 0, 74, 0
2, 46606, Note_on_c, 0, 47, 72
2, 46609, Note_on_c, 0, 68, 86
2, 46647, Note_on_c, 0, 47, 0
2, 46694, Note_on_c, 0, 68, 0
2, 46715, Note_on_c, 0, 78, 82
2, 46814, Note_on_c, 0, 76, 75
2, 46850, Note_on_c, 0, 78, 0
2, 46916, Note_on_c, 0, 74, 77
2, 46965, Note_on_c, 0, 76, 0
2, 47028, Note_on_c, 0, 73, 83
2, 47045, Note_on_c, 0, 74, 0
2, 47087, Control_c, 0, 64, 37
2, 47106, Control_c, 0, 64, 61
2, 47123, Note_on_c, 0, 67, 71
2, 47123, Note_on_c, 0, 73, 0
2, 47125, Control_c, 0, 64, 67
2, 47128, Note_on_c, 0, 52, 66
2, 47145, Control_c, 0, 64, 73
2, 47164, Control_c, 0, 64, 82
2, 47183, Control_c, 0, 64, 89
2, 47202, Control_c, 0, 64, 101
2, 47204, Note_on_c, 0, 52, 0
2, 47222, Control_c, 0, 64, 121
2, 47226, Note_on_c, 0, 69, 87
2, 47228, Note_on_c, 0, 53, 59
2, 47228, Note_on_c, 0, 67, 0
2, 47240, Control_c, 0, 64, 127
2, 47275, Note_on_c, 0, 53, 0
2, 47291, Note_on_c, 0, 55, 51
2, 47317, Control_c, 0, 64, 108
2, 47324, Note_on_c, 0, 70, 85
2, 47336, Control_c, 0, 64, 93
2, 47337, Note_on_c, 0, 69, 0
2, 47356, Control_c, 0, 64, 75
2, 47362, Note_on_c, 0, 55, 0
2, 47375, Control_c, 0, 64, 62
2, 47394, Control_c, 0, 64, 0
2, 47408, Note_on_c, 0, 70, 0
2, 47416, Note_on_c, 0, 64, 75
2, 47421, Note_on_c, 0, 49, 63
2, 47471, Control_c, 0, 64, 55
2, 47490, Control_c, 0, 64, 68
2, 47490, Note_on_c, 0, 49, 0
2, 47492, Note_on_c, 0, 64, 0
2, 47504, Note_on_c, 0, 52, 70
2, 47510, Control_c, 0, 64, 73
2, 47516, Note_on_c, 0, 67, 79
2, 47528, Control_c, 0, 64, 80
2, 47548, Control_c, 0, 64, 84
2, 47567, Control_c, 0, 64, 86
2, 47586, Control_c, 0, 64, 86
2, 47586, Note_on_c, 0, 52, 0
2, 47617, Note_on_c, 0, 65, 76
2, 47621, Note_on_c, 0, 50, 68
2, 47622, Note_on_c, 0, 67, 0
2, 47625, Control_c, 0, 64, 85
2, 47644, Control_c, 0, 64, 82
2, 47663, Control_c, 0, 64, 76
2, 47669, Note_on_c, 0, 50, 0
2, 47682, Control_c, 0, 64, 66
2, 47702, Control_c, 0, 64, 40
2, 47705, Note_on_c, 0, 49, 64
2, 47711, Note_on_c, 0, 65, 0
2, 47719, Note_on_c, 0, 64, 74
2, 47720, Control_c, 0, 64, 0
2, 47795, Note_on_c, 0, 64, 0
2, 47796, Note_on_c, 0, 50, 73
2, 47797, Control_c, 0, 64, 41
2, 47803, Note_on_c, 0, 49, 0
2, 47814, Note_on_c, 0, 65, 77
2, 47816, Control_c, 0, 64, 63
2, 47836, Control_c, 0, 64, 69
2, 47854, Control_c, 0, 64, 75
2, 47871, Note_on_c, 0, 50, 0
2, 47873, Control_c, 0, 64, 82
2, 47885, Note_on_c, 0, 53, 76
2, 47892, Control_c, 0, 64, 86
2, 47902, Note_on_c, 0, 65, 0
2, 47912, Control_c, 0, 64, 87
2, 47916, Note_on_c, 0, 74, 79
2, 47931, Control_c, 0, 64, 85
2, 47951, Control_c, 0, 64, 78
2, 47970, Control_c, 0, 64, 66
2, 47989, Note_on_c, 0, 53, 0
2, 47990, Control_c, 0, 64, 22
2, 47994, Note_on_c, 0, 55, 75
2, 48008, Control_c, 0, 64, 0
2, 48018, Note_on_c, 0, 76, 69
2, 48039, Note_on_c, 0, 74, 0
2, 48047, Control_c, 0, 64, 22
2, 48053, Note_on_c, 0, 55, 0
2, 48066, Control_c, 0, 64, 59
2, 48085, Control_c, 0, 64, 67
2, 48095, Note_on_c, 0, 57, 78
2, 48105, Control_c, 0, 64, 73
2, 48113, Note_on_c, 0, 77, 66
2, 48124, Control_c, 0, 64, 79
2, 48143, Control_c, 0, 64, 83
2, 48147, Note_on_c, 0, 57, 0
2, 48148, Note_on_c, 0, 76, 0
2, 48162, Control_c, 0, 64, 78
2, 48182, Control_c, 0, 64, 65
2, 48193, Note_on_c, 0, 77, 0
2, 48197, Note_on_c, 0, 73, 84
2, 48200, Control_c, 0, 64, 0
2, 48210, Note_on_c, 0, 52, 66
2, 48258, Control_c, 0, 64, 22
2, 48267, Note_on_c, 0, 52, 0
2, 48277, Control_c, 0, 64, 61
2, 48287, Note_on_c, 0, 76, 76
2, 48290, Note_on_c, 0, 55, 71
2, 48293, Note_on_c, 0, 73, 0
2, 48296, Control_c, 0, 64, 70
2, 48316, Control_c, 0, 64, 78
2, 48335, Control_c, 0, 64, 84
2, 48349, Note_on_c, 0, 55, 0
2, 48354, Control_c, 0, 64, 85
2, 48373, Control_c, 0, 64, 83
2, 48383, Note_on_c, 0, 53, 76
2, 48390, Note_on_c, 0, 74, 74
2, 48393, Control_c, 0, 64, 76
2, 48411, Control_c, 0, 64, 68
2, 48425, Note_on_c, 0, 76, 0
2, 48431, Control_c, 0, 64, 54
2, 48447, Note_on_c, 0, 53, 0
2, 48450, Control_c, 0, 64, 0
2, 48469, Note_on_c, 0, 74, 0
2, 48476, Note_on_c, 0, 52, 74
2, 48477, Note_on_c, 0, 73, 84
2, 48525, Note_on_c, 0, 52, 0
2, 48527, Control_c, 0, 64, 36
2, 48546, Control_c, 0, 64, 62
2, 48565, Control_c, 0, 64, 69
2, 48566, Note_on_c, 0, 73, 0
2, 48578, Note_on_c, 0, 53, 77
2, 48584, Note_on_c, 0, 74, 83
2, 48585, Control_c, 0, 64, 79
2, 48604, Control_c, 0, 64, 86
2, 48623, Control_c, 0, 64, 87
2, 48642, Control_c, 0, 64, 78
2, 48660, Note_on_c, 0, 45, 0
2, 48662, Control_c, 0, 64, 66
2, 48669, Note_on_c, 0, 53, 0
2, 48671, Note_on_c, 0, 74, 0
2, 48680, Control_c, 0, 64, 26
2, 48680, Note_on_c, 0, 82, 78
2, 48698, Note_on_c, 0, 50, 70
2, 48700, Control_c, 0, 64, 0
2, 48711, Note_on_c, 0, 82, 0
2, 48719, Control_c, 0, 64, 46
2, 48738, Control_c, 0, 64, 67
2, 48757, Control_c, 0, 64, 82
2, 48776, Control_c, 0, 64, 127
2, 48778, Note_on_c, 0, 50, 0
2, 48778, Note_on_c, 0, 80, 50
2, 48785, Note_on_c, 0, 81, 76
2, 48788, Note_on_c, 0, 52, 78
2, 48828, Note_on_c, 0, 80, 0
2, 48831, Control_c, 0, 64, 116
2, 48850, Control_c, 0, 64, 70
2, 48851, Note_on_c, 0, 52, 0
2, 48870, Control_c, 0, 64, 0
2, 48873, Note_on_c, 0, 79, 82
2, 48893, Note_on_c, 0, 53, 71
2, 48917, Note_on_c, 0, 81, 0
2, 48951, Control_c, 0, 64, 19
2, 48969, Control_c, 0, 64, 57
2, 48969, Note_on_c, 0, 53, 0
2, 48985, Note_on_c, 0, 45, 77
2, 48989, Control_c, 0, 64, 66
2, 48998, Note_on_c, 0, 77, 86
2, 49008, Control_c, 0, 64, 72
2, 49020, Note_on_c, 0, 79, 0
2, 49027, Control_c, 0, 64, 78
2, 49046, Control_c, 0, 64, 82
2, 49066, Control_c, 0, 64, 84
2, 49085, Control_c, 0, 64, 84
2, 49092, Note_on_c, 0, 48, 69
2, 49100, Note_on_c, 0, 76, 85
2, 49102, Note_on_c, 0, 77, 0
2, 49103, Note_on_c, 0, 45, 0
2, 49123, Control_c, 0, 64, 85
2, 49161, Control_c, 0, 64, 86
2, 49168, Note_on_c, 0, 76, 0
2, 49181, Control_c, 0, 64, 87
2, 49198, Note_on_c, 0, 48, 0
2, 49200, Control_c, 0, 64, 87
2, 49204, Note_on_c, 0, 46, 74
2, 49215, Note_on_c, 0, 74, 87
2, 49220, Control_c, 0, 64, 88
2, 49238, Control_c, 0, 64, 88
2, 49277, Control_c, 0, 64, 89
2, 49283, Note_on_c, 0, 46, 0
2, 49295, Control_c, 0, 64, 89
2, 49313, Note_on_c, 0, 74, 0
2, 49314, Note_on_c, 0, 73, 88
2, 49315, Control_c, 0, 64, 91
2, 49315, Note_on_c, 0, 45, 69
2, 49334, Control_c, 0, 64, 92
2, 49427, Note_on_c, 0, 45, 0
2, 49431, Control_c, 0, 64, 91
2, 49449, Control_c, 0, 64, 88
2, 49469, Control_c, 0, 64, 82
2, 49474, Note_on_c, 0, 74, 91
2, 49476, Note_on_c, 0, 44, 75
2, 49488, Control_c, 0, 64, 71
2, 49488, Note_on_c, 0, 73, 0
2, 49507, Control_c, 0, 64, 58
2, 49526, Control_c, 0, 64, 0
2, 49624, Note_on_c, 0, 77, 81
2, 49640, Note_on_c, 0, 74, 0
2, 49745, Note_on_c, 0, 76, 84
2, 49754, Note_on_c, 0, 77, 0
2, 49771, Control_c, 0, 64, 42
2, 49791, Control_c, 0, 64, 62
2, 49809, Control_c, 0, 64, 67
2, 49829, Control_c, 0, 64, 74
2, 49835, Note_on_c, 0, 76, 0
2, 49836, Note_on_c, 0, 74, 81
2, 49851, Control_c, 0, 64, 88
2, 49871, Control_c, 0, 64, 111
2, 49890, Control_c, 0, 64, 127
2, 49942, Note_on_c, 0, 83, 80
2, 49948, Control_c, 0, 64, 97
2, 49953, Note_on_c, 0, 74, 0
2, 49967, Control_c, 0, 64, 71
2, 49986, Control_c, 0, 64, 51
2, 50005, Control_c, 0, 64, 0
2, 50031, Note_on_c, 0, 80, 85
2, 50041, Note_on_c, 0, 83, 0
2, 50044, Control_c, 0, 64, 41
2, 50063, Control_c, 0, 64, 64
2, 50082, Control_c, 0, 64, 74
2, 50102, Control_c, 0, 64, 102
2, 50120, Control_c, 0, 64, 127
2, 50150, Note_on_c, 0, 81, 76
2, 50181, Note_on_c, 0, 80, 0
2, 50242, Note_on_c, 0, 83, 72
2, 50256, Note_on_c, 0, 81, 0
2, 50330, Note_on_c, 0, 77, 89
2, 50331, Control_c, 0, 64, 104
2, 50332, Note_on_c, 0, 83, 0
2, 50351, Control_c, 0, 64, 70
2, 50370, Control_c, 0, 64, 0
2, 50427, Note_on_c, 0, 77, 0
2, 50428, Control_c, 0, 64, 55
2, 50436, Note_on_c, 0, 74, 78
2, 50447, Control_c, 0, 64, 66
2, 50466, Control_c, 0, 64, 75
2, 50485, Control_c, 0, 64, 91
2, 50505, Control_c, 0, 64, 127
2, 50532, Note_on_c, 0, 74, 0
2, 50536, Note_on_c, 0, 76, 81
2, 50624, Note_on_c, 0, 76, 0
2, 50627, Note_on_c, 0, 77, 80
2, 50703, Note_on_c, 0, 77, 0
2, 50716, Control_c, 0, 64, 104
2, 50725, Note_on_c, 0, 71, 73
2, 50733, Control_c, 0, 64, 73
2, 50752, Control_c, 0, 64, 50
2, 50771, Control_c, 0, 64, 0
2, 50791, Control_c, 0, 64, 29
2, 50810, Control_c, 0, 64, 59
2, 50826, Note_on_c, 0, 71, 0
2, 50830, Control_c, 0, 64, 68
2, 50833, Note_on_c, 0, 68, 76
2, 50849, Control_c, 0, 64, 74
2, 50869, Control_c, 0, 64, 86
2, 50887, Control_c, 0, 64, 98
2, 50907, Control_c, 0, 64, 104
2, 50928, Note_on_c, 0, 69, 73
2, 50941, Note_on_c, 0, 68, 0
2, 50946, Control_c, 0, 64, 98
2, 50964, Control_c, 0, 64, 84
2, 50984, Control_c, 0, 64, 69
2, 51003, Control_c, 0, 64, 49
2, 51022, Control_c, 0, 64, 0
2, 51027, Note_on_c, 0, 71, 70
2, 51053, Note_on_c, 0, 69, 0
2, 51061, Control_c, 0, 64, 43
2, 51080, Control_c, 0, 64, 66
2, 51098, Control_c, 0, 64, 77
2, 51118, Control_c, 0, 64, 99
2, 51124, Note_on_c, 0, 64, 75
2, 51125, Note_on_c, 0, 71, 0
2, 51137, Control_c, 0, 64, 127
2, 51223, Note_on_c, 0, 66, 79
2, 51229, Note_on_c, 0, 64, 0
2, 51233, Control_c, 0, 64, 112
2, 51252, Control_c, 0, 64, 82
2, 51272, Control_c, 0, 64, 63
2, 51290, Control_c, 0, 64, 0
2, 51319, Note_on_c, 0, 68, 83
2, 51343, Note_on_c, 0, 66, 0
2, 51349, Control_c, 0, 64, 46
2, 51367, Control_c, 0, 64, 63
2, 51387, Control_c, 0, 64, 70
2, 51396, Note_on_c, 0, 68, 0
2, 51406, Control_c, 0, 64, 79
2, 51408, Note_on_c, 0, 69, 79
2, 51426, Control_c, 0, 64, 94
2, 51444, Control_c, 0, 64, 108
2, 51464, Control_c, 0, 64, 127
2, 51507, Note_on_c, 0, 71, 89
2, 51515, Note_on_c, 0, 69, 0
2, 51538, Note_on_c, 0, 44, 0
2, 51605, Note_on_c, 0, 73, 86
2, 51627, Note_on_c, 0, 71, 0
2, 51702, Note_on_c, 0, 73, 0
2, 51709, Note_on_c, 0, 74, 90
2, 51815, Note_on_c, 0, 76, 90
2, 51846, Note_on_c, 0, 74, 0
2, 51941, Note_on_c, 0, 45, 80
2, 51977, Note_on_c, 0, 77, 83
2, 51982, Control_c, 0, 64, 91
2, 51998, Note_on_c, 0, 76, 0
2, 52001, Control_c, 0, 64, 64
2, 52021, Control_c, 0, 64, 0
2, 52116, Control_c, 0, 64, 13
2, 52126, Note_on_c, 0, 73, 66
2, 52135, Control_c, 0, 64, 54
2, 52155, Control_c, 0, 64, 64
2, 52174, Control_c, 0, 64, 67
2, 52193, Control_c, 0, 64, 69
2, 52212, Control_c, 0, 64, 72
2, 52232, Control_c, 0, 64, 79
2, 52243, Note_on_c, 0, 74, 67
2, 52249, Note_on_c, 0, 73, 0
2, 52250, Control_c, 0, 64, 94
2, 52270, Control_c, 0, 64, 127
2, 52276, Note_on_c, 0, 57, 66
2, 52347, Note_on_c, 0, 69, 77
2, 52347, Note_on_c, 0, 74, 0
2, 52409, Note_on_c, 0, 57, 0
2, 52410, Note_on_c, 0, 77, 0
2, 52446, Note_on_c, 0, 70, 88
2, 52454, Note_on_c, 0, 69, 0
2, 52463, Note_on_c, 0, 55, 70
2, 52549, Note_on_c, 0, 70, 0
2, 52551, Note_on_c, 0, 67, 78
2, 52622, Note_on_c, 0, 55, 0
2, 52646, Note_on_c, 0, 76, 93
2, 52653, Note_on_c, 0, 49, 67
2, 52670, Note_on_c, 0, 67, 0
2, 52692, Control_c, 0, 64, 87
2, 52712, Control_c, 0, 64, 60
2, 52730, Control_c, 0, 64, 0
2, 52759, Note_on_c, 0, 67, 76
2, 52769, Control_c, 0, 64, 18
2, 52789, Control_c, 0, 64, 60
2, 52807, Control_c, 0, 64, 73
2, 52827, Control_c, 0, 64, 107
2, 52846, Control_c, 0, 64, 127
2, 52849, Note_on_c, 0, 53, 70
2, 52864, Note_on_c, 0, 67, 0
2, 52867, Note_on_c, 0, 69, 79
2, 52915, Note_on_c, 0, 76, 0
2, 52941, Note_on_c, 0, 49, 0
2, 52964, Note_on_c, 0, 69, 0
2, 52966, Note_on_c, 0, 65, 79
2, 53017, Note_on_c, 0, 53, 0
2, 53062, Note_on_c, 0, 50, 84
2, 53073, Note_on_c, 0, 74, 89
2, 53090, Note_on_c, 0, 65, 0
2, 53095, Control_c, 0, 64, 78
2, 53115, Control_c, 0, 64, 39
2, 53134, Control_c, 0, 64, 0
2, 53187, Note_on_c, 0, 65, 72
2, 53192, Control_c, 0, 64, 42
2, 53210, Control_c, 0, 64, 66
2, 53230, Control_c, 0, 64, 88
2, 53249, Control_c, 0, 64, 127
2, 53289, Note_on_c, 0, 67, 80
2, 53290, Note_on_c, 0, 52, 83
2, 53292, Note_on_c, 0, 50, 0
2, 53299, Note_on_c, 0, 65, 0
2, 53326, Control_c, 0, 64, 74
2, 53336, Note_on_c, 0, 74, 0
2, 53346, Control_c, 0, 64, 47
2, 53364, Control_c, 0, 64, 46
2, 53384, Control_c, 0, 64, 63
2, 53403, Control_c, 0, 64, 77
2, 53406, Note_on_c, 0, 64, 82
2, 53422, Control_c, 0, 64, 119
2, 53427, Note_on_c, 0, 67, 0
2, 53441, Control_c, 0, 64, 127
2, 53537, Control_c, 0, 64, 70
2, 53546, Note_on_c, 0, 64, 0
2, 53550, Note_on_c, 0, 52, 0
2, 53555, Note_on_c, 0, 73, 88
2, 53556, Control_c, 0, 64, 0
2, 53556, Note_on_c, 0, 45, 0
2, 53562, Note_on_c, 0, 55, 78
2, 53595, Control_c, 0, 64, 40
2, 53610, Control_c, 0, 64, 65
2, 53630, Control_c, 0, 64, 80
2, 53648, Control_c, 0, 64, 127
2, 53690, Note_on_c, 0, 64, 82
2, 53742, Note_on_c, 0, 55, 0
2, 53777, Note_on_c, 0, 73, 0
2, 53787, Note_on_c, 0, 64, 0
2, 53845, Control_c, 0, 64, 94
2, 53865, Control_c, 0, 64, 57
2, 53877, Note_on_c, 0, 45, 82
2, 53884, Control_c, 0, 64, 0
2, 53942, Control_c, 0, 64, 46
2, 53960, Control_c, 0, 64, 77
2, 53979, Control_c, 0, 64, 127
2, 54055, Note_on_c, 0, 45, 0
2, 54063, Note_on_c, 0, 50, 74
2, 54146, Note_on_c, 0, 53, 60
2, 54213, Note_on_c, 0, 56, 80
2, 54303, Note_on_c, 0, 59, 71
2, 54320, Note_on_c, 0, 56, 0
2, 54339, Note_on_c, 0, 62, 69
2, 54387, Note_on_c, 0, 56, 45
2, 54390, Note_on_c, 0, 65, 77
2, 54443, Note_on_c, 0, 68, 81
2, 54497, Note_on_c, 0, 71, 84
2, 54544, Note_on_c, 0, 74, 89
2, 55911, Note_on_c, 0, 59, 0
2, 55917, Note_on_c, 0, 53, 0
2, 55921, Note_on_c, 0, 50, 0
2, 55923, Control_c, 0, 64, 89
2, 55935, Note_on_c, 0, 56, 0
2, 55936, Note_on_c, 0, 65, 0
2, 55941, Note_on_c, 0, 62, 0
2, 55942, Control_c, 0, 64, 63
2, 55942, Note_on_c, 0, 68, 0
2, 55961, Control_c, 0, 64, 0
2, 55972, Note_on_c, 0, 71, 0
2, 56418, Note_on_c, 0, 73, 79
2, 56469, Note_on_c, 0, 74, 0
2, 56510, Control_c, 0, 64, 31
2, 56529, Control_c, 0, 64, 51
2, 56549, Control_c, 0, 64, 59
2, 56567, Control_c, 0, 64, 63
2, 56587, Control_c, 0, 64, 64
2, 56606, Control_c, 0, 64, 65
2, 56626, Control_c, 0, 64, 67
2, 56644, Control_c, 0, 64, 70
2, 56664, Control_c, 0, 64, 74
2, 56683, Control_c, 0, 64, 81
2, 56703, Control_c, 0, 64, 86
2, 56721, Control_c, 0, 64, 89
2, 56741, Control_c, 0, 64, 91
2, 56748, Note_on_c, 0, 71, 80
2, 56760, Control_c, 0, 64, 92
2, 56779, Control_c, 0, 64, 94
2, 56791, Note_on_c, 0, 73, 0
2, 56798, Control_c, 0, 64, 95
2, 56818, Control_c, 0, 64, 98
2, 56837, Control_c, 0, 64, 100
2, 56856, Control_c, 0, 64, 102
2, 56895, Control_c, 0, 64, 103
2, 56945, Note_on_c, 0, 71, 0
2, 56948, Note_on_c, 0, 69, 83
2, 57009, Control_c, 0, 64, 103
2, 57106, Note_on_c, 0, 68, 84
2, 57124, Control_c, 0, 64, 102
2, 57137, Note_on_c, 0, 69, 0
2, 57144, Control_c, 0, 64, 94
2, 57163, Control_c, 0, 64, 82
2, 57183, Control_c, 0, 64, 68
2, 57201, Control_c, 0, 64, 55
2, 57221, Control_c, 0, 64, 36
2, 57240, Control_c, 0, 64, 50
2, 57243, Note_on_c, 0, 68, 0
2, 57244, Note_on_c, 0, 66, 73
2, 57259, Control_c, 0, 64, 59
2, 57278, Control_c, 0, 64, 63
2, 57298, Control_c, 0, 64, 64
2, 57317, Control_c, 0, 64, 67
2, 57336, Control_c, 0, 64, 72
2, 57342, Note_on_c, 0, 66, 0
2, 57355, Control_c, 0, 64, 83
2, 57356, Note_on_c, 0, 64, 76
2, 57375, Control_c, 0, 64, 93
2, 57393, Control_c, 0, 64, 95
2, 57432, Control_c, 0, 64, 96
2, 57436, Note_on_c, 0, 64, 0
2, 57444, Note_on_c, 0, 66, 75
2, 57452, Control_c, 0, 64, 98
2, 57470, Control_c, 0, 64, 103
2, 57489, Control_c, 0, 64, 110
2, 57509, Control_c, 0, 64, 117
2, 57527, Control_c, 0, 64, 123
2, 57540, Note_on_c, 0, 68, 83
2, 57547, Control_c, 0, 64, 127
2, 57553, Note_on_c, 0, 66, 0
2, 57599, Note_on_c, 0, 68, 0
2, 57616, Note_on_c, 0, 69, 77
2, 57689, Note_on_c, 0, 69, 0
2, 57700, Note_on_c, 0, 71, 83
2, 57776, Note_on_c, 0, 73, 82
2, 57783, Note_on_c, 0, 71, 0
2, 57838, Note_on_c, 0, 73, 0
2, 57855, Control_c, 0, 64, 90
2, 57864, Note_on_c, 0, 74, 74
2, 57873, Control_c, 0, 64, 67
2, 57893, Control_c, 0, 64, 0
2, 57939, Note_on_c, 0, 76, 82
2, 57941, Note_on_c, 0, 74, 0
2, 57989, Control_c, 0, 64, 41
2, 58007, Control_c, 0, 64, 63
2, 58019, Note_on_c, 0, 76, 0
2, 58022, Note_on_c, 0, 77, 80
2, 58027, Control_c, 0, 64, 69
2, 58046, Control_c, 0, 64, 75
2, 58066, Control_c, 0, 64, 84
2, 58084, Control_c, 0, 64, 92
2, 58099, Note_on_c, 0, 77, 0
2, 58104, Control_c, 0, 64, 101
2, 58109, Note_on_c, 0, 76, 77
2, 58123, Control_c, 0, 64, 119
2, 58143, Control_c, 0, 64, 127
2, 58148, Note_on_c, 0, 76, 0
2, 58178, Note_on_c, 0, 74, 72
2, 58254, Note_on_c, 0, 74, 0
2, 58266, Note_on_c, 0, 73, 75
2, 58336, Note_on_c, 0, 71, 71
2, 58337, Note_on_c, 0, 73, 0
2, 58379, Note_on_c, 0, 71, 0
2, 58413, Note_on_c, 0, 69, 75
2, 58492, Note_on_c, 0, 69, 0
2, 58499, Note_on_c, 0, 68, 79
2, 58569, Note_on_c, 0, 66, 72
2, 58619, Note_on_c, 0, 68, 0
2, 58635, Note_on_c, 0, 64, 76
2, 58699, Note_on_c, 0, 62, 76
2, 58712, Note_on_c, 0, 64, 0
2, 58723, Note_on_c, 0, 66, 0
2, 58748, Note_on_c, 0, 62, 0
2, 58773, Note_on_c, 0, 61, 72
2, 58793, Control_c, 0, 64, 74
2, 58813, Control_c, 0, 64, 0
2, 58867, Note_on_c, 0, 64, 71
2, 58889, Control_c, 0, 64, 24
2, 58908, Control_c, 0, 64, 60
2, 58922, Note_on_c, 0, 67, 71
2, 58927, Control_c, 0, 64, 71
2, 58947, Control_c, 0, 64, 94
2, 58966, Control_c, 0, 64, 127
2, 59000, Note_on_c, 0, 70, 75
2, 59022, Note_on_c, 0, 73, 62
2, 59089, Note_on_c, 0, 76, 80
2, 59171, Note_on_c, 0, 79, 76
2, 59215, Note_on_c, 0, 82, 91
2, 59252, Note_on_c, 0, 76, 0
2, 59315, Note_on_c, 0, 64, 0
2, 59348, Note_on_c, 0, 67, 0
2, 59361, Note_on_c, 0, 61, 0
2, 59369, Note_on_c, 0, 73, 0
2, 59413, Note_on_c, 0, 79, 0
2, 59418, Note_on_c, 0, 82, 0
2, 59432, Note_on_c, 0, 70, 0
2, 59659, Control_c, 0, 64, 123
2, 59678, Control_c, 0, 64, 78
2, 59698, Control_c, 0, 64, 60
2, 59717, Control_c, 0, 64, 0
2, 59863, Note_on_c, 0, 62, 83
2, 59889, Control_c, 0, 64, 48
2, 59909, Control_c, 0, 64, 81
2, 59927, Control_c, 0, 64, 127
2, 59994, Note_on_c, 0, 65, 76
2, 60086, Note_on_c, 0, 68, 77
2, 60154, Note_on_c, 0, 71, 76
2, 60202, Note_on_c, 0, 68, 0
2, 60213, Note_on_c, 0, 74, 75
2, 60216, Note_on_c, 0, 71, 0
2, 60228, Note_on_c, 0, 62, 0
2, 60256, Note_on_c, 0, 65, 0
2, 60268, Note_on_c, 0, 77, 74
2, 60335, Note_on_c, 0, 80, 86
2, 60403, Note_on_c, 0, 83, 89
2, 60434, Note_on_c, 0, 74, 0
2, 60438, Note_on_c, 0, 77, 0
2, 60517, Note_on_c, 0, 80, 0
2, 60602, Note_on_c, 0, 83, 0
2, 60963, Control_c, 0, 64, 79
2, 60983, Control_c, 0, 64, 56
2, 61002, Control_c, 0, 64, 0
2, 61267, Note_on_c, 0, 45, 76
2, 61309, Control_c, 0, 64, 55
2, 61328, Control_c, 0, 64, 65
2, 61348, Control_c, 0, 64, 74
2, 61367, Control_c, 0, 64, 101
2, 61387, Control_c, 0, 64, 127
2, 61521, Note_on_c, 0, 52, 72
2, 61627, Note_on_c, 0, 57, 69
2, 61714, Note_on_c, 0, 64, 72
2, 61782, Note_on_c, 0, 69, 81
2, 61867, Note_on_c, 0, 74, 90
2, 62813, Note_on_c, 0, 57, 0
2, 62961, Note_on_c, 0, 74, 0
2, 63128, Note_on_c, 0, 73, 86
2, 63140, Note_on_c, 0, 55, 64
2, 63175, Control_c, 0, 64, 73
2, 63195, Control_c, 0, 64, 41
2, 63214, Control_c, 0, 64, 0
2, 63290, Control_c, 0, 64, 36
2, 63310, Control_c, 0, 64, 63
2, 63329, Control_c, 0, 64, 69
2, 63349, Control_c, 0, 64, 78
2, 63367, Control_c, 0, 64, 97
2, 63387, Control_c, 0, 64, 127
2, 63481, Note_on_c, 0, 64, 0
2, 63700, Note_on_c, 0, 69, 0
2, 63853, Note_on_c, 0, 55, 0
2, 63940, Note_on_c, 0, 52, 0
2, 64099, Note_on_c, 0, 45, 0
2, 64375, Note_on_c, 0, 73, 0
2, 64820, Note_on_c, 0, 74, 88
2, 64832, Note_on_c, 0, 69, 77
2, 64835, Note_on_c, 0, 57, 56
2, 64840, Note_on_c, 0, 66, 68
2, 64842, Note_on_c, 0, 50, 57
2, 64843, Note_on_c, 0, 54, 57
2, 64884, Control_c, 0, 64, 94
2, 64904, Control_c, 0, 64, 73
2, 64923, Control_c, 0, 64, 58
2, 64941, Control_c, 0, 64, 0
2, 65403, Control_c, 0, 64, 9
2, 65421, Control_c, 0, 64, 21
2, 65441, Control_c, 0, 64, 29
2, 65460, Control_c, 0, 64, 38
2, 65480, Control_c, 0, 64, 48
2, 65498, Control_c, 0, 64, 59
2, 65518, Control_c, 0, 64, 61
2, 65595, Control_c, 0, 64, 61
2, 65614, Control_c, 0, 64, 62
2, 65633, Control_c, 0, 64, 63
2, 65729, Control_c, 0, 64, 64
2, 65749, Control_c, 0, 64, 64
2, 65767, Control_c, 0, 64, 65
2, 65844, Control_c, 0, 64, 66
2, 65864, Control_c, 0, 64, 67
2, 65883, Control_c, 0, 64, 70
2, 65901, Control_c, 0, 64, 74
2, 65921, Control_c, 0, 64, 79
2, 65940, Control_c, 0, 64, 83
2, 65960, Control_c, 0, 64, 86
2, 65978, Control_c, 0, 64, 89
2, 65998, Control_c, 0, 64, 93
2, 66017, Control_c, 0, 64, 97
2, 66036, Control_c, 0, 64, 101
2, 66055, Control_c, 0, 64, 105
2, 66075, Control_c, 0, 64, 110
2, 66094, Control_c, 0, 64, 127
2, 68180, Note_on_c, 0, 66, 0
2, 68239, Note_on_c, 0, 74, 0
2, 68252, Note_on_c, 0, 57, 0
2, 68296, Note_on_c, 0, 69, 0
2, 68321, Note_on_c, 0, 54, 0
2, 68323, Note_on_c, 0, 50, 0
2, 68608, Control_c, 0, 64, 100
2, 68628, Control_c, 0, 64, 82
2, 68646, Control_c, 0, 64, 70
2, 68666, Control_c, 0, 64, 62
2, 68685, Control_c, 0, 64, 57
2, 68705, Control_c, 0, 64, 57
2, 68800, Control_c, 0, 64, 56
2, 68819, Control_c, 0, 64, 55
2, 68839, Control_c, 0, 64, 54
2, 68857, Control_c, 0, 64, 53
2, 68877, Control_c, 0, 64, 53
2, 68973, Control_c, 0, 64, 53
2, 68992, Control_c, 0, 64, 54
2, 69108, Control_c, 0, 64, 54
2, 69185, Control_c, 0, 64, 55
2, 69414, Control_c, 0, 64, 55
2, 69645, Control_c, 0, 64, 55
2, 71046, Control_c, 0, 64, 54
2, 71373, Control_c, 0, 64, 54
2, 71411, Control_c, 0, 64, 53
2, 71431, Control_c, 0, 64, 52
2, 71450, Control_c, 0, 64, 44
2, 71469, Control_c, 0, 64, 0
2, 72263,End_track
0, 0, End_of_file
