0, 0, Header, 1, 2, 480
1, 0, Start_track
1, 0, Tempo, 500000
1, 0, Time_signature, 4, 2, 24, 8
1, 1, End_track
2, 0, Start_track
2, 0, Program_c, 0, 0
2, 0, Control_c, 0, 64, 47
2, 0, Control_c, 0, 67, 12
2, 379, Control_c, 0, 67, 11
2, 437, Control_c, 0, 64, 47
2, 495, Control_c, 0, 67, 11
2, 553, Control_c, 0, 64, 47
2, 591, Control_c, 0, 64, 46
2, 610, Control_c, 0, 67, 10
2, 630, Control_c, 0, 64, 46
2, 668, Control_c, 0, 64, 45
2, 668, Control_c, 0, 67, 10
2, 739, Control_c, 0, 64, 45
2, 854, Control_c, 0, 64, 44
2, 871, Control_c, 0, 67, 9
2, 900, Control_c, 0, 67, 9
2, 915, Note_on_c, 0, 50, 33
2, 931, Control_c, 0, 67, 8
2, 949, Control_c, 0, 64, 44
2, 952, Note_on_c, 0, 50, 0
2, 988, Control_c, 0, 64, 43
2, 988, Control_c, 0, 67, 8
2, 1007, Control_c, 0, 64, 43
2, 1007, Control_c, 0, 67, 0
2, 1027, Note_on_c, 0, 74, 45
2, 1046, Control_c, 0, 64, 42
2, 1115, Note_on_c, 0, 74, 0
2, 1123, Control_c, 0, 64, 41
2, 1142, Control_c, 0, 64, 40
2, 1143, Note_on_c, 0, 76, 48
2, 1161, Control_c, 0, 64, 38
2, 1180, Control_c, 0, 64, 36
2, 1200, Control_c, 0, 64, 32
2, 1216, Note_on_c, 0, 76, 0
2, 1218, Control_c, 0, 64, 28
2, 1223, Note_on_c, 0, 78, 62
2, 1237, Control_c, 0, 64, 22
2, 1257, Control_c, 0, 64, 11
2, 1276, Control_c, 0, 64, 0
2, 1278, Note_on_c, 0, 78, 0
2, 1332, Note_on_c, 0, 62, 51
2, 1338, Note_on_c, 0, 69, 64
2, 1364, Note_on_c, 0, 62, 0
2, 1412, Note_on_c, 0, 69, 0
2, 1423, Note_on_c, 0, 78, 67
2, 1501, Note_on_c, 0, 78, 0
2, 1523, Note_on_c, 0, 76, 66
2, 1605, Note_on_c, 0, 76, 0
2, 1622, Note_on_c, 0, 74, 67
2, 1676, Note_on_c, 0, 74, 0
2, 1721, Note_on_c, 0, 54, 49
2, 1721, Note_on_c, 0, 81, 69
2, 1753, Note_on_c, 0, 54, 0
2, 1773, Note_on_c, 0, 81, 0
2, 1818, Note_on_c, 0, 74, 59
2, 1910, Note_on_c, 0, 74, 0
2, 1931, Note_on_c, 0, 76, 63
2, 2001, Note_on_c, 0, 76, 0
2, 2027, Note_on_c, 0, 78, 64
2, 2107, Note_on_c, 0, 78, 0
2, 2139, Note_on_c, 0, 62, 49
2, 2142, Note_on_c, 0, 69, 72
2, 2173, Note_on_c, 0, 62, 0
2, 2242, Note_on_c, 0, 78, 75
2, 2248, Note_on_c, 0, 69, 0
2, 2317, Note_on_c, 0, 78, 0
2, 2355, Note_on_c, 0, 76, 56
2, 2432, Note_on_c, 0, 76, 0
2, 2444, Note_on_c, 0, 74, 66
2, 2540, Note_on_c, 0, 74, 0
2, 2543, Note_on_c, 0, 52, 54
2, 2548, Note_on_c, 0, 79, 72
2, 2582, Note_on_c, 0, 52, 0
2, 2627, Note_on_c, 0, 79, 0
2, 2657, Note_on_c, 0, 76, 64
2, 2744, Note_on_c, 0, 76, 0
2, 2760, Note_on_c, 0, 78, 61
2, 2840, Note_on_c, 0, 78, 0
2, 2859, Note_on_c, 0, 79, 54
2, 2904, Note_on_c, 0, 79, 0
2, 2954, Note_on_c, 0, 71, 62
2, 2957, Note_on_c, 0, 62, 50
2, 2994, Note_on_c, 0, 62, 0
2, 3032, Note_on_c, 0, 71, 0
2, 3054, Note_on_c, 0, 74, 63
2, 3118, Note_on_c, 0, 74, 0
2, 3152, Note_on_c, 0, 73, 68
2, 3213, Note_on_c, 0, 73, 0
2, 3257, Note_on_c, 0, 71, 65
2, 3348, Note_on_c, 0, 71, 0
2, 3363, Note_on_c, 0, 73, 67
2, 3367, Note_on_c, 0, 57, 50
2, 3407, Note_on_c, 0, 57, 0
2, 3461, Note_on_c, 0, 73, 0
2, 3463, Note_on_c, 0, 76, 61
2, 3549, Note_on_c, 0, 76, 0
2, 3569, Note_on_c, 0, 78, 59
2, 3646, Note_on_c, 0, 78, 0
2, 3662, Note_on_c, 0, 79, 61
2, 3720, Note_on_c, 0, 79, 0
2, 3769, Note_on_c, 0, 69, 73
2, 3774, Note_on_c, 0, 61, 61
2, 3809, Note_on_c, 0, 61, 0
2, 3863, Note_on_c, 0, 79, 75
2, 3877, Note_on_c, 0, 69, 0
2, 3973, Note_on_c, 0, 78, 73
2, 3987, Note_on_c, 0, 79, 0
2, 4071, Note_on_c, 0, 78, 0
2, 4072, Note_on_c, 0, 76, 73
2, 4172, Note_on_c, 0, 76, 0
2, 4184, Note_on_c, 0, 78, 69
2, 4186, Note_on_c, 0, 50, 59
2, 4227, Note_on_c, 0, 50, 0
2, 4263, Note_on_c, 0, 78, 0
2, 4282, Note_on_c, 0, 74, 61
2, 4375, Note_on_c, 0, 74, 0
2, 4394, Note_on_c, 0, 76, 58
2, 4470, Note_on_c, 0, 76, 0
2, 4494, Note_on_c, 0, 78, 64
2, 4548, Note_on_c, 0, 78, 0
2, 4592, Note_on_c, 0, 62, 54
2, 4603, Note_on_c, 0, 69, 63
2, 4627, Note_on_c, 0, 62, 0
2, 4690, Note_on_c, 0, 69, 0
2, 4697, Note_on_c, 0, 73, 56
2, 4763, Note_on_c, 0, 73, 0
2, 4791, Note_on_c, 0, 71, 58
2, 4859, Note_on_c, 0, 71, 0
2, 4889, Note_on_c, 0, 69, 67
2, 4968, Note_on_c, 0, 69, 0
2, 4997, Note_on_c, 0, 50, 48
2, 5006, Note_on_c, 0, 71, 67
2, 5030, Note_on_c, 0, 50, 0
2, 5095, Note_on_c, 0, 71, 0
2, 5103, Note_on_c, 0, 74, 66
2, 5210, Note_on_c, 0, 74, 0
2, 5213, Note_on_c, 0, 76, 70
2, 5304, Note_on_c, 0, 76, 0
2, 5305, Note_on_c, 0, 78, 73
2, 5389, Note_on_c, 0, 78, 0
2, 5413, Note_on_c, 0, 71, 76
2, 5420, Note_on_c, 0, 62, 56
2, 5458, Note_on_c, 0, 62, 0
2, 5507, Note_on_c, 0, 81, 81
2, 5522, Note_on_c, 0, 71, 0
2, 5621, Note_on_c, 0, 80, 72
2, 5636, Note_on_c, 0, 81, 0
2, 5713, Note_on_c, 0, 78, 73
2, 5721, Note_on_c, 0, 80, 0
2, 5826, Note_on_c, 0, 78, 0
2, 5828, Note_on_c, 0, 80, 74
2, 5832, Note_on_c, 0, 50, 58
2, 5871, Note_on_c, 0, 50, 0
2, 5913, Note_on_c, 0, 80, 0
2, 5930, Note_on_c, 0, 76, 64
2, 6030, Note_on_c, 0, 76, 0
2, 6033, Note_on_c, 0, 78, 64
2, 6119, Note_on_c, 0, 78, 0
2, 6137, Note_on_c, 0, 80, 64
2, 6199, Note_on_c, 0, 80, 0
2, 6249, Note_on_c, 0, 71, 65
2, 6250, Note_on_c, 0, 56, 55
2, 6285, Note_on_c, 0, 56, 0
2, 6343, Note_on_c, 0, 71, 0
2, 6344, Note_on_c, 0, 74, 62
2, 6429, Note_on_c, 0, 74, 0
2, 6449, Note_on_c, 0, 73, 62
2, 6521, Note_on_c, 0, 73, 0
2, 6525, Note_on_c, 0, 71, 58
2, 6625, Note_on_c, 0, 71, 0
2, 6628, Note_on_c, 0, 49, 63
2, 6647, Note_on_c, 0, 69, 65
2, 6665, Note_on_c, 0, 49, 0
2, 6723, Note_on_c, 0, 69, 0
2, 6749, Note_on_c, 0, 73, 66
2, 6846, Note_on_c, 0, 73, 0
2, 6852, Note_on_c, 0, 74, 66
2, 6949, Note_on_c, 0, 74, 0
2, 6962, Note_on_c, 0, 76, 69
2, 7032, Note_on_c, 0, 76, 0
2, 7047, Note_on_c, 0, 66, 69
2, 7052, Note_on_c, 0, 57, 55
2, 7095, Note_on_c, 0, 57, 0
2, 7129, Note_on_c, 0, 66, 0
2, 7154, Note_on_c, 0, 76, 74
2, 7257, Note_on_c, 0, 74, 67
2, 7261, Note_on_c, 0, 76, 0
2, 7337, Note_on_c, 0, 74, 0
2, 7359, Note_on_c, 0, 73, 68
2, 7443, Note_on_c, 0, 47, 59
2, 7454, Note_on_c, 0, 73, 0
2, 7468, Note_on_c, 0, 74, 64
2, 7481, Note_on_c, 0, 47, 0
2, 7544, Note_on_c, 0, 74, 0
2, 7549, Note_on_c, 0, 71, 71
2, 7637, Note_on_c, 0, 71, 0
2, 7655, Note_on_c, 0, 73, 65
2, 7730, Note_on_c, 0, 73, 0
2, 7748, Note_on_c, 0, 74, 63
2, 7819, Note_on_c, 0, 74, 0
2, 7860, Note_on_c, 0, 57, 55
2, 7861, Note_on_c, 0, 66, 63
2, 7899, Note_on_c, 0, 57, 0
2, 7954, Note_on_c, 0, 66, 0
2, 7974, Note_on_c, 0, 69, 63
2, 8033, Note_on_c, 0, 69, 0
2, 8067, Note_on_c, 0, 68, 71
2, 8141, Note_on_c, 0, 68, 0
2, 8174, Note_on_c, 0, 66, 59
2, 8224, Note_on_c, 0, 66, 0
2, 8262, Note_on_c, 0, 52, 58
2, 8279, Note_on_c, 0, 68, 66
2, 8301, Note_on_c, 0, 52, 0
2, 8381, Note_on_c, 0, 68, 0
2, 8396, Note_on_c, 0, 71, 55
2, 8458, Note_on_c, 0, 71, 0
2, 8477, Note_on_c, 0, 73, 58
2, 8561, Note_on_c, 0, 73, 0
2, 8587, Note_on_c, 0, 74, 55
2, 8643, Note_on_c, 0, 74, 0
2, 8687, Note_on_c, 0, 56, 55
2, 8691, Note_on_c, 0, 64, 65
2, 8726, Note_on_c, 0, 56, 0
2, 8755, Note_on_c, 0, 64, 0
2, 8781, Note_on_c, 0, 74, 60
2, 8868, Note_on_c, 0, 74, 0
2, 8887, Note_on_c, 0, 73, 59
2, 8966, Note_on_c, 0, 73, 0
2, 8985, Note_on_c, 0, 71, 56
2, 9067, Note_on_c, 0, 71, 0
2, 9081, Note_on_c, 0, 73, 65
2, 9092, Note_on_c, 0, 45, 48
2, 9127, Note_on_c, 0, 45, 0
2, 9166, Note_on_c, 0, 73, 0
2, 9182, Note_on_c, 0, 69, 65
2, 9271, Note_on_c, 0, 69, 0
2, 9283, Note_on_c, 0, 71, 60
2, 9377, Note_on_c, 0, 71, 0
2, 9392, Note_on_c, 0, 73, 64
2, 9454, Note_on_c, 0, 73, 0
2, 9507, Note_on_c, 0, 57, 54
2, 9511, Note_on_c, 0, 64, 56
2, 9542, Note_on_c, 0, 57, 0
2, 9570, Note_on_c, 0, 64, 0
2, 9608, Note_on_c, 0, 67, 59
2, 9688, Note_on_c, 0, 67, 0
2, 9707, Note_on_c, 0, 66, 68
2, 9764, Note_on_c, 0, 66, 0
2, 9807, Note_on_c, 0, 64, 65
2, 9893, Note_on_c, 0, 64, 0
2, 9902, Note_on_c, 0, 66, 71
2, 9907, Note_on_c, 0, 45, 59
2, 9948, Note_on_c, 0, 45, 0
2, 10004, Note_on_c, 0, 69, 68
2, 10014, Note_on_c, 0, 66, 0
2, 10099, Note_on_c, 0, 69, 0
2, 10112, Note_on_c, 0, 71, 58
2, 10205, Note_on_c, 0, 71, 0
2, 10211, Note_on_c, 0, 73, 68
2, 10264, Note_on_c, 0, 73, 0
2, 10310, Note_on_c, 0, 57, 55
2, 10311, Note_on_c, 0, 66, 67
2, 10355, Note_on_c, 0, 57, 0
2, 10386, Note_on_c, 0, 66, 0
2, 10415, Note_on_c, 0, 76, 70
2, 10513, Note_on_c, 0, 75, 72
2, 10530, Note_on_c, 0, 76, 0
2, 10606, Note_on_c, 0, 73, 75
2, 10606, Note_on_c, 0, 75, 0
2, 10708, Note_on_c, 0, 75, 81
2, 10718, Note_on_c, 0, 73, 0
2, 10724, Note_on_c, 0, 45, 59
2, 10766, Note_on_c, 0, 45, 0
2, 10806, Note_on_c, 0, 75, 0
2, 10817, Note_on_c, 0, 71, 71
2, 10910, Note_on_c, 0, 71, 0
2, 10916, Note_on_c, 0, 73, 77
2, 11007, Note_on_c, 0, 73, 0
2, 11022, Note_on_c, 0, 75, 69
2, 11096, Note_on_c, 0, 75, 0
2, 11105, Note_on_c, 0, 51, 60
2, 11117, Note_on_c, 0, 66, 69
2, 11141, Note_on_c, 0, 51, 0
2, 11170, Note_on_c, 0, 66, 0
2, 11219, Note_on_c, 0, 69, 72
2, 11304, Note_on_c, 0, 69, 0
2, 11325, Note_on_c, 0, 67, 63
2, 11404, Note_on_c, 0, 67, 0
2, 11413, Note_on_c, 0, 66, 69
2, 11490, Note_on_c, 0, 43, 68
2, 11501, Note_on_c, 0, 66, 0
2, 11509, Note_on_c, 0, 64, 74
2, 11534, Note_on_c, 0, 43, 0
2, 11596, Note_on_c, 0, 64, 0
2, 11612, Note_on_c, 0, 67, 76
2, 11707, Note_on_c, 0, 69, 68
2, 11709, Note_on_c, 0, 67, 0
2, 11797, Note_on_c, 0, 69, 0
2, 11800, Note_on_c, 0, 71, 72
2, 11852, Note_on_c, 0, 71, 0
2, 11910, Note_on_c, 0, 52, 69
2, 11914, Note_on_c, 0, 61, 74
2, 11959, Note_on_c, 0, 52, 0
2, 11984, Note_on_c, 0, 61, 0
2, 12023, Note_on_c, 0, 74, 69
2, 12120, Note_on_c, 0, 73, 73
2, 12146, Note_on_c, 0, 74, 0
2, 12217, Note_on_c, 0, 71, 70
2, 12240, Note_on_c, 0, 73, 0
2, 12314, Note_on_c, 0, 70, 83
2, 12317, Note_on_c, 0, 42, 76
2, 12320, Note_on_c, 0, 71, 0
2, 12363, Note_on_c, 0, 42, 0
2, 12397, Note_on_c, 0, 70, 0
2, 12422, Note_on_c, 0, 64, 69
2, 12487, Note_on_c, 0, 64, 0
2, 12535, Note_on_c, 0, 66, 72
2, 12638, Note_on_c, 0, 66, 0
2, 12653, Note_on_c, 0, 67, 60
2, 12729, Note_on_c, 0, 67, 0
2, 12733, Note_on_c, 0, 54, 53
2, 12744, Note_on_c, 0, 61, 65
2, 12769, Note_on_c, 0, 54, 0
2, 12827, Note_on_c, 0, 61, 0
2, 12848, Note_on_c, 0, 67, 60
2, 12932, Note_on_c, 0, 67, 0
2, 12941, Note_on_c, 0, 66, 58
2, 13034, Note_on_c, 0, 66, 0
2, 13052, Note_on_c, 0, 64, 62
2, 13106, Note_on_c, 0, 64, 0
2, 13131, Note_on_c, 0, 42, 61
2, 13142, Note_on_c, 0, 62, 64
2, 13179, Note_on_c, 0, 42, 0
2, 13214, Note_on_c, 0, 62, 0
2, 13255, Note_on_c, 0, 71, 64
2, 13323, Note_on_c, 0, 71, 0
2, 13341, Note_on_c, 0, 73, 63
2, 13427, Note_on_c, 0, 73, 0
2, 13439, Note_on_c, 0, 74, 60
2, 13507, Note_on_c, 0, 74, 0
2, 13549, Note_on_c, 0, 54, 60
2, 13550, Note_on_c, 0, 66, 68
2, 13589, Note_on_c, 0, 54, 0
2, 13628, Note_on_c, 0, 66, 0
2, 13646, Note_on_c, 0, 69, 66
2, 13741, Note_on_c, 0, 69, 0
2, 13746, Note_on_c, 0, 68, 65
2, 13827, Note_on_c, 0, 68, 0
2, 13852, Note_on_c, 0, 66, 57
2, 13933, Note_on_c, 0, 66, 0
2, 13955, Note_on_c, 0, 42, 62
2, 13964, Note_on_c, 0, 65, 65
2, 14000, Note_on_c, 0, 42, 0
2, 14043, Note_on_c, 0, 65, 0
2, 14052, Note_on_c, 0, 68, 73
2, 14151, Note_on_c, 0, 68, 0
2, 14157, Note_on_c, 0, 69, 68
2, 14252, Note_on_c, 0, 69, 0
2, 14252, Note_on_c, 0, 71, 70
2, 14336, Note_on_c, 0, 71, 0
2, 14370, Note_on_c, 0, 65, 72
2, 14374, Note_on_c, 0, 54, 63
2, 14413, Note_on_c, 0, 54, 0
2, 14449, Note_on_c, 0, 65, 0
2, 14468, Note_on_c, 0, 74, 75
2, 14570, Note_on_c, 0, 74, 0
2, 14573, Note_on_c, 0, 73, 77
2, 14652, Note_on_c, 0, 73, 0
2, 14675, Note_on_c, 0, 71, 76
2, 14768, Note_on_c, 0, 42, 72
2, 14768, Note_on_c, 0, 71, 0
2, 14781, Note_on_c, 0, 80, 84
2, 14808, Note_on_c, 0, 42, 0
2, 14869, Note_on_c, 0, 80, 0
2, 14875, Note_on_c, 0, 77, 78
2, 14979, Note_on_c, 0, 78, 81
2, 14988, Note_on_c, 0, 77, 0
2, 15081, Note_on_c, 0, 80, 77
2, 15086, Note_on_c, 0, 78, 0
2, 15171, Note_on_c, 0, 80, 0
2, 15178, Note_on_c, 0, 73, 82
2, 15184, Note_on_c, 0, 54, 69
2, 15231, Note_on_c, 0, 54, 0
2, 15264, Note_on_c, 0, 73, 0
2, 15288, Note_on_c, 0, 83, 80
2, 15399, Note_on_c, 0, 81, 78
2, 15417, Note_on_c, 0, 83, 0
2, 15470, Note_on_c, 0, 81, 0
2, 15488, Note_on_c, 0, 80, 79
2, 15594, Note_on_c, 0, 80, 0
2, 15600, Note_on_c, 0, 81, 81
2, 15603, Note_on_c, 0, 42, 78
2, 15644, Note_on_c, 0, 42, 0
2, 15699, Note_on_c, 0, 78, 74
2, 15701, Note_on_c, 0, 81, 0
2, 15809, Note_on_c, 0, 78, 0
2, 15815, Note_on_c, 0, 80, 68
2, 15901, Note_on_c, 0, 80, 0
2, 15916, Note_on_c, 0, 81, 63
2, 15978, Note_on_c, 0, 81, 0
2, 16020, Note_on_c, 0, 54, 60
2, 16020, Note_on_c, 0, 73, 66
2, 16058, Note_on_c, 0, 54, 0
2, 16110, Note_on_c, 0, 73, 0
2, 16120, Note_on_c, 0, 76, 64
2, 16193, Note_on_c, 0, 76, 0
2, 16218, Note_on_c, 0, 75, 70
2, 16286, Note_on_c, 0, 75, 0
2, 16329, Note_on_c, 0, 73, 66
2, 16415, Note_on_c, 0, 47, 63
2, 16425, Note_on_c, 0, 73, 0
2, 16430, Note_on_c, 0, 75, 68
2, 16455, Note_on_c, 0, 47, 0
2, 16532, Note_on_c, 0, 75, 0
2, 16536, Note_on_c, 0, 78, 64
2, 16634, Note_on_c, 0, 78, 0
2, 16637, Note_on_c, 0, 79, 60
2, 16713, Note_on_c, 0, 79, 0
2, 16731, Note_on_c, 0, 81, 65
2, 16800, Note_on_c, 0, 81, 0
2, 16829, Note_on_c, 0, 51, 64
2, 16838, Note_on_c, 0, 71, 70
2, 16862, Note_on_c, 0, 51, 0
2, 16904, Note_on_c, 0, 71, 0
2, 16948, Note_on_c, 0, 81, 65
2, 17038, Note_on_c, 0, 81, 0
2, 17054, Note_on_c, 0, 79, 65
2, 17117, Note_on_c, 0, 79, 0
2, 17143, Note_on_c, 0, 78, 64
2, 17240, Note_on_c, 0, 78, 0
2, 17253, Note_on_c, 0, 40, 58
2, 17258, Note_on_c, 0, 79, 69
2, 17288, Note_on_c, 0, 40, 0
2, 17332, Note_on_c, 0, 79, 0
2, 17356, Note_on_c, 0, 76, 62
2, 17453, Note_on_c, 0, 76, 0
2, 17475, Note_on_c, 0, 78, 64
2, 17558, Note_on_c, 0, 78, 0
2, 17580, Note_on_c, 0, 79, 59
2, 17634, Note_on_c, 0, 79, 0
2, 17679, Note_on_c, 0, 52, 60
2, 17685, Note_on_c, 0, 71, 59
2, 17721, Note_on_c, 0, 52, 0
2, 17752, Note_on_c, 0, 71, 0
2, 17782, Note_on_c, 0, 74, 64
2, 17855, Note_on_c, 0, 74, 0
2, 17888, Note_on_c, 0, 72, 75
2, 17966, Note_on_c, 0, 72, 0
2, 18003, Note_on_c, 0, 71, 71
2, 18081, Note_on_c, 0, 40, 59
2, 18097, Note_on_c, 0, 71, 0
2, 18100, Note_on_c, 0, 72, 78
2, 18117, Note_on_c, 0, 40, 0
2, 18197, Note_on_c, 0, 72, 0
2, 18212, Note_on_c, 0, 75, 65
2, 18294, Note_on_c, 0, 75, 0
2, 18304, Note_on_c, 0, 76, 65
2, 18397, Note_on_c, 0, 76, 0
2, 18408, Note_on_c, 0, 78, 69
2, 18478, Note_on_c, 0, 78, 0
2, 18512, Note_on_c, 0, 51, 53
2, 18519, Note_on_c, 0, 69, 69
2, 18552, Note_on_c, 0, 51, 0
2, 18597, Note_on_c, 0, 69, 0
2, 18612, Note_on_c, 0, 72, 65
2, 18696, Note_on_c, 0, 72, 0
2, 18713, Note_on_c, 0, 71, 63
2, 18794, Note_on_c, 0, 71, 0
2, 18813, Note_on_c, 0, 69, 55
2, 18883, Note_on_c, 0, 69, 0
2, 18917, Note_on_c, 0, 40, 47
2, 18917, Note_on_c, 0, 67, 61
2, 18956, Note_on_c, 0, 40, 0
2, 18977, Note_on_c, 0, 67, 0
2, 19020, Note_on_c, 0, 76, 60
2, 19104, Note_on_c, 0, 76, 0
2, 19120, Note_on_c, 0, 78, 61
2, 19200, Note_on_c, 0, 78, 0
2, 19226, Note_on_c, 0, 79, 55
2, 19288, Note_on_c, 0, 79, 0
2, 19325, Note_on_c, 0, 52, 43
2, 19333, Note_on_c, 0, 71, 56
2, 19361, Note_on_c, 0, 52, 0
2, 19396, Note_on_c, 0, 71, 0
2, 19427, Note_on_c, 0, 74, 59
2, 19494, Note_on_c, 0, 74, 0
2, 19535, Note_on_c, 0, 73, 60
2, 19595, Note_on_c, 0, 73, 0
2, 19634, Note_on_c, 0, 71, 58
2, 19730, Note_on_c, 0, 71, 0
2, 19740, Note_on_c, 0, 45, 56
2, 19745, Note_on_c, 0, 73, 64
2, 19781, Note_on_c, 0, 45, 0
2, 19838, Note_on_c, 0, 73, 0
2, 19848, Note_on_c, 0, 76, 63
2, 19930, Note_on_c, 0, 76, 0
2, 19956, Note_on_c, 0, 78, 61
2, 20030, Note_on_c, 0, 78, 0
2, 20051, Note_on_c, 0, 79, 59
2, 20106, Note_on_c, 0, 79, 0
2, 20149, Note_on_c, 0, 69, 72
2, 20150, Note_on_c, 0, 49, 59
2, 20192, Note_on_c, 0, 49, 0
2, 20241, Note_on_c, 0, 69, 0
2, 20253, Note_on_c, 0, 79, 70
2, 20351, Note_on_c, 0, 79, 0
2, 20360, Note_on_c, 0, 78, 65
2, 20449, Note_on_c, 0, 78, 0
2, 20450, Note_on_c, 0, 76, 67
2, 20555, Note_on_c, 0, 76, 0
2, 20570, Note_on_c, 0, 38, 62
2, 20573, Note_on_c, 0, 78, 72
2, 20606, Note_on_c, 0, 38, 0
2, 20659, Note_on_c, 0, 78, 0
2, 20666, Note_on_c, 0, 74, 68
2, 20764, Note_on_c, 0, 74, 0
2, 20777, Note_on_c, 0, 76, 62
2, 20853, Note_on_c, 0, 76, 0
2, 20880, Note_on_c, 0, 78, 68
2, 20935, Control_c, 0, 64, 46
2, 20947, Note_on_c, 0, 78, 0
2, 20954, Control_c, 0, 64, 58
2, 20973, Control_c, 0, 64, 62
2, 20976, Note_on_c, 0, 50, 51
2, 20988, Note_on_c, 0, 69, 69
2, 21007, Note_on_c, 0, 50, 0
2, 21012, Control_c, 0, 64, 60
2, 21031, Control_c, 0, 64, 59
2, 21050, Control_c, 0, 64, 58
2, 21069, Control_c, 0, 64, 56
2, 21082, Note_on_c, 0, 69, 0
2, 21084, Note_on_c, 0, 72, 73
2, 21089, Control_c, 0, 64, 52
2, 21107, Control_c, 0, 64, 44
2, 21127, Control_c, 0, 64, 28
2, 21146, Control_c, 0, 64, 0
2, 21157, Note_on_c, 0, 72, 0
2, 21181, Note_on_c, 0, 71, 73
2, 21262, Note_on_c, 0, 71, 0
2, 21287, Note_on_c, 0, 69, 73
2, 21388, Note_on_c, 0, 71, 82
2, 21393, Note_on_c, 0, 38, 63
2, 21395, Note_on_c, 0, 69, 0
2, 21436, Note_on_c, 0, 38, 0
2, 21456, Note_on_c, 0, 71, 0
2, 21490, Note_on_c, 0, 67, 68
2, 21549, Note_on_c, 0, 67, 0
2, 21591, Note_on_c, 0, 69, 78
2, 21673, Note_on_c, 0, 69, 0
2, 21700, Note_on_c, 0, 71, 68
2, 21741, Control_c, 0, 64, 33
2, 21760, Control_c, 0, 64, 59
2, 21780, Control_c, 0, 64, 65
2, 21782, Note_on_c, 0, 71, 0
2, 21798, Control_c, 0, 64, 66
2, 21798, Note_on_c, 0, 61, 75
2, 21799, Note_on_c, 0, 50, 68
2, 21818, Control_c, 0, 64, 65
2, 21837, Control_c, 0, 64, 64
2, 21849, Note_on_c, 0, 50, 0
2, 21857, Control_c, 0, 64, 63
2, 21863, Note_on_c, 0, 61, 0
2, 21875, Control_c, 0, 64, 60
2, 21895, Control_c, 0, 64, 50
2, 21900, Note_on_c, 0, 71, 76
2, 21914, Control_c, 0, 64, 31
2, 21933, Control_c, 0, 64, 0
2, 22008, Note_on_c, 0, 71, 0
2, 22009, Note_on_c, 0, 69, 72
2, 22103, Note_on_c, 0, 67, 67
2, 22109, Note_on_c, 0, 69, 0
2, 22206, Note_on_c, 0, 67, 0
2, 22207, Note_on_c, 0, 66, 82
2, 22209, Note_on_c, 0, 38, 74
2, 22248, Note_on_c, 0, 38, 0
2, 22292, Note_on_c, 0, 66, 0
2, 22299, Note_on_c, 0, 62, 72
2, 22410, Note_on_c, 0, 62, 0
2, 22413, Note_on_c, 0, 64, 71
2, 22496, Note_on_c, 0, 64, 0
2, 22512, Note_on_c, 0, 66, 75
2, 22548, Control_c, 0, 64, 20
2, 22568, Control_c, 0, 64, 55
2, 22587, Control_c, 0, 64, 66
2, 22587, Note_on_c, 0, 66, 0
2, 22607, Control_c, 0, 64, 68
2, 22608, Note_on_c, 0, 50, 71
2, 22617, Note_on_c, 0, 57, 73
2, 22625, Control_c, 0, 64, 67
2, 22645, Control_c, 0, 64, 66
2, 22650, Note_on_c, 0, 50, 0
2, 22664, Control_c, 0, 64, 64
2, 22682, Control_c, 0, 64, 58
2, 22690, Note_on_c, 0, 57, 0
2, 22702, Control_c, 0, 64, 41
2, 22717, Note_on_c, 0, 60, 75
2, 22721, Control_c, 0, 64, 0
2, 22807, Note_on_c, 0, 60, 0
2, 22815, Note_on_c, 0, 59, 73
2, 22908, Note_on_c, 0, 59, 0
2, 22926, Note_on_c, 0, 57, 76
2, 23017, Note_on_c, 0, 57, 0
2, 23021, Note_on_c, 0, 38, 80
2, 23029, Note_on_c, 0, 59, 90
2, 23060, Note_on_c, 0, 38, 0
2, 23130, Note_on_c, 0, 59, 0
2, 23132, Note_on_c, 0, 62, 80
2, 23233, Note_on_c, 0, 64, 74
2, 23239, Note_on_c, 0, 62, 0
2, 23333, Note_on_c, 0, 66, 77
2, 23346, Note_on_c, 0, 64, 0
2, 23436, Note_on_c, 0, 50, 74
2, 23442, Note_on_c, 0, 59, 81
2, 23448, Note_on_c, 0, 66, 0
2, 23494, Note_on_c, 0, 50, 0
2, 23546, Note_on_c, 0, 69, 77
2, 23550, Note_on_c, 0, 59, 0
2, 23645, Note_on_c, 0, 68, 80
2, 23684, Note_on_c, 0, 69, 0
2, 23747, Note_on_c, 0, 66, 83
2, 23758, Control_c, 0, 64, 19
2, 23769, Note_on_c, 0, 68, 0
2, 23777, Control_c, 0, 64, 59
2, 23796, Control_c, 0, 64, 70
2, 23816, Control_c, 0, 64, 80
2, 23835, Control_c, 0, 64, 91
2, 23836, Note_on_c, 0, 38, 84
2, 23845, Note_on_c, 0, 68, 83
2, 23852, Control_c, 0, 64, 90
2, 23867, Note_on_c, 0, 38, 0
2, 23867, Note_on_c, 0, 66, 0
2, 23870, Control_c, 0, 64, 81
2, 23890, Control_c, 0, 64, 68
2, 23909, Control_c, 0, 64, 50
2, 23930, Control_c, 0, 64, 0
2, 23948, Note_on_c, 0, 64, 78
2, 23949, Note_on_c, 0, 68, 0
2, 24049, Note_on_c, 0, 66, 74
2, 24054, Note_on_c, 0, 64, 0
2, 24152, Note_on_c, 0, 68, 70
2, 24168, Note_on_c, 0, 66, 0
2, 24228, Note_on_c, 0, 68, 0
2, 24233, Note_on_c, 0, 56, 78
2, 24247, Note_on_c, 0, 59, 74
2, 24266, Note_on_c, 0, 56, 0
2, 24308, Note_on_c, 0, 59, 0
2, 24340, Note_on_c, 0, 62, 81
2, 24429, Note_on_c, 0, 62, 0
2, 24439, Note_on_c, 0, 60, 73
2, 24537, Note_on_c, 0, 60, 0
2, 24543, Note_on_c, 0, 59, 83
2, 24617, Note_on_c, 0, 59, 0
2, 24625, Note_on_c, 0, 48, 83
2, 24631, Note_on_c, 0, 57, 83
2, 24680, Note_on_c, 0, 48, 0
2, 24735, Note_on_c, 0, 60, 81
2, 24741, Note_on_c, 0, 57, 0
2, 24837, Note_on_c, 0, 62, 77
2, 24864, Note_on_c, 0, 60, 0
2, 24931, Note_on_c, 0, 64, 74
2, 24945, Note_on_c, 0, 62, 0
2, 25017, Note_on_c, 0, 64, 0
2, 25036, Note_on_c, 0, 54, 83
2, 25041, Note_on_c, 0, 57, 81
2, 25069, Note_on_c, 0, 54, 0
2, 25143, Note_on_c, 0, 67, 72
2, 25145, Note_on_c, 0, 57, 0
2, 25237, Note_on_c, 0, 66, 70
2, 25256, Note_on_c, 0, 67, 0
2, 25322, Note_on_c, 0, 64, 74
2, 25338, Note_on_c, 0, 66, 0
2, 25427, Control_c, 0, 64, 40
2, 25430, Note_on_c, 0, 63, 87
2, 25438, Note_on_c, 0, 47, 83
2, 25439, Note_on_c, 0, 64, 0
2, 25447, Control_c, 0, 64, 50
2, 25466, Control_c, 0, 64, 54
2, 25475, Note_on_c, 0, 47, 0
2, 25486, Control_c, 0, 64, 50
2, 25504, Control_c, 0, 64, 35
2, 25523, Control_c, 0, 64, 0
2, 25527, Note_on_c, 0, 57, 74
2, 25528, Note_on_c, 0, 63, 0
2, 25642, Note_on_c, 0, 57, 0
2, 25645, Note_on_c, 0, 59, 72
2, 25732, Note_on_c, 0, 59, 0
2, 25745, Note_on_c, 0, 60, 61
2, 25827, Note_on_c, 0, 60, 0
2, 25851, Note_on_c, 0, 51, 67
2, 25861, Note_on_c, 0, 54, 74
2, 25881, Note_on_c, 0, 51, 0
2, 25915, Note_on_c, 0, 54, 0
2, 25968, Note_on_c, 0, 60, 72
2, 26058, Note_on_c, 0, 60, 0
2, 26065, Note_on_c, 0, 59, 70
2, 26166, Note_on_c, 0, 59, 0
2, 26171, Note_on_c, 0, 57, 73
2, 26257, Note_on_c, 0, 57, 0
2, 26270, Note_on_c, 0, 55, 80
2, 26276, Note_on_c, 0, 52, 79
2, 26314, Note_on_c, 0, 52, 0
2, 26347, Note_on_c, 0, 55, 0
2, 26383, Note_on_c, 0, 64, 78
2, 26477, Note_on_c, 0, 64, 0
2, 26492, Note_on_c, 0, 66, 67
2, 26573, Note_on_c, 0, 66, 0
2, 26589, Note_on_c, 0, 67, 63
2, 26671, Note_on_c, 0, 67, 0
2, 26678, Note_on_c, 0, 55, 69
2, 26685, Note_on_c, 0, 59, 77
2, 26710, Note_on_c, 0, 55, 0
2, 26773, Note_on_c, 0, 59, 0
2, 26780, Note_on_c, 0, 62, 73
2, 26867, Note_on_c, 0, 62, 0
2, 26882, Note_on_c, 0, 61, 75
2, 26956, Note_on_c, 0, 61, 0
2, 26983, Note_on_c, 0, 59, 78
2, 27074, Note_on_c, 0, 59, 0
2, 27085, Note_on_c, 0, 58, 80
2, 27097, Note_on_c, 0, 47, 69
2, 27132, Note_on_c, 0, 47, 0
2, 27186, Note_on_c, 0, 61, 72
2, 27201, Note_on_c, 0, 58, 0
2, 27288, Note_on_c, 0, 62, 64
2, 27296, Note_on_c, 0, 61, 0
2, 27385, Note_on_c, 0, 62, 0
2, 27389, Note_on_c, 0, 64, 69
2, 27455, Note_on_c, 0, 64, 0
2, 27489, Note_on_c, 0, 52, 70
2, 27496, Note_on_c, 0, 58, 74
2, 27523, Note_on_c, 0, 52, 0
2, 27566, Note_on_c, 0, 58, 0
2, 27591, Note_on_c, 0, 67, 76
2, 27698, Note_on_c, 0, 66, 70
2, 27699, Note_on_c, 0, 67, 0
2, 27780, Note_on_c, 0, 66, 0
2, 27788, Note_on_c, 0, 64, 74
2, 27887, Note_on_c, 0, 64, 0
2, 27898, Note_on_c, 0, 55, 73
2, 27899, Note_on_c, 0, 73, 85
2, 27940, Note_on_c, 0, 55, 0
2, 28000, Note_on_c, 0, 70, 81
2, 28009, Note_on_c, 0, 73, 0
2, 28108, Note_on_c, 0, 71, 74
2, 28173, Note_on_c, 0, 70, 0
2, 28196, Note_on_c, 0, 73, 73
2, 28218, Note_on_c, 0, 71, 0
2, 28289, Note_on_c, 0, 58, 73
2, 28294, Note_on_c, 0, 66, 81
2, 28296, Note_on_c, 0, 73, 0
2, 28317, Note_on_c, 0, 58, 0
2, 28378, Note_on_c, 0, 66, 0
2, 28401, Note_on_c, 0, 76, 84
2, 28514, Note_on_c, 0, 74, 70
2, 28533, Note_on_c, 0, 76, 0
2, 28591, Note_on_c, 0, 74, 0
2, 28603, Note_on_c, 0, 73, 75
2, 28716, Note_on_c, 0, 73, 0
2, 28728, Note_on_c, 0, 74, 73
2, 28732, Note_on_c, 0, 47, 66
2, 28769, Note_on_c, 0, 47, 0
2, 28827, Note_on_c, 0, 71, 66
2, 28827, Note_on_c, 0, 74, 0
2, 28917, Note_on_c, 0, 71, 0
2, 28940, Note_on_c, 0, 73, 59
2, 29017, Note_on_c, 0, 73, 0
2, 29040, Note_on_c, 0, 74, 59
2, 29091, Note_on_c, 0, 74, 0
2, 29132, Note_on_c, 0, 66, 65
2, 29141, Note_on_c, 0, 59, 61
2, 29180, Note_on_c, 0, 59, 0
2, 29237, Note_on_c, 0, 66, 0
2, 29239, Note_on_c, 0, 69, 67
2, 29314, Note_on_c, 0, 69, 0
2, 29352, Note_on_c, 0, 68, 64
2, 29406, Note_on_c, 0, 68, 0
2, 29431, Note_on_c, 0, 66, 61
2, 29527, Note_on_c, 0, 66, 0
2, 29542, Note_on_c, 0, 52, 51
2, 29544, Note_on_c, 0, 68, 65
2, 29588, Note_on_c, 0, 52, 0
2, 29640, Note_on_c, 0, 71, 59
2, 29646, Note_on_c, 0, 68, 0
2, 29726, Note_on_c, 0, 71, 0
2, 29744, Note_on_c, 0, 72, 56
2, 29803, Note_on_c, 0, 72, 0
2, 29834, Note_on_c, 0, 74, 56
2, 29895, Note_on_c, 0, 74, 0
2, 29944, Note_on_c, 0, 64, 64
2, 29948, Note_on_c, 0, 56, 55
2, 29987, Note_on_c, 0, 56, 0
2, 30037, Note_on_c, 0, 64, 0
2, 30055, Note_on_c, 0, 74, 51
2, 30118, Note_on_c, 0, 74, 0
2, 30144, Note_on_c, 0, 72, 59
2, 30225, Note_on_c, 0, 72, 0
2, 30251, Note_on_c, 0, 71, 61
2, 30331, Note_on_c, 0, 71, 0
2, 30362, Note_on_c, 0, 45, 48
2, 30366, Note_on_c, 0, 72, 60
2, 30398, Note_on_c, 0, 45, 0
2, 30420, Note_on_c, 0, 72, 0
2, 30457, Note_on_c, 0, 69, 56
2, 30549, Note_on_c, 0, 69, 0
2, 30573, Control_c, 0, 67, 8
2, 30580, Note_on_c, 0, 71, 53
2, 30592, Control_c, 0, 67, 10
2, 30612, Control_c, 0, 67, 10
2, 30631, Control_c, 0, 67, 11
2, 30636, Note_on_c, 0, 71, 0
2, 30650, Control_c, 0, 67, 11
2, 30669, Control_c, 0, 67, 12
2, 30670, Note_on_c, 0, 72, 54
2, 30689, Control_c, 0, 67, 12
2, 30707, Control_c, 0, 67, 14
2, 30727, Control_c, 0, 67, 15
2, 30728, Note_on_c, 0, 72, 0
2, 30746, Control_c, 0, 67, 17
2, 30766, Control_c, 0, 67, 19
2, 30771, Note_on_c, 0, 57, 52
2, 30773, Note_on_c, 0, 64, 47
2, 30784, Control_c, 0, 67, 21
2, 30803, Control_c, 0, 67, 24
2, 30815, Note_on_c, 0, 57, 0
2, 30823, Control_c, 0, 67, 27
2, 30836, Note_on_c, 0, 64, 0
2, 30842, Control_c, 0, 67, 30
2, 30861, Control_c, 0, 67, 34
2, 30875, Note_on_c, 0, 67, 50
2, 30880, Control_c, 0, 67, 38
2, 30900, Control_c, 0, 67, 43
2, 30918, Control_c, 0, 67, 49
2, 30931, Note_on_c, 0, 67, 0
2, 30938, Control_c, 0, 67, 55
2, 30957, Control_c, 0, 67, 61
2, 30977, Control_c, 0, 67, 65
2, 30979, Note_on_c, 0, 66, 55
2, 30995, Control_c, 0, 67, 68
2, 31015, Control_c, 0, 67, 70
2, 31026, Note_on_c, 0, 66, 0
2, 31034, Control_c, 0, 67, 70
2, 31053, Control_c, 0, 67, 71
2, 31077, Note_on_c, 0, 64, 56
2, 31149, Control_c, 0, 67, 71
2, 31151, Note_on_c, 0, 64, 0
2, 31176, Note_on_c, 0, 66, 54
2, 31182, Note_on_c, 0, 50, 46
2, 31220, Note_on_c, 0, 50, 0
2, 31264, Control_c, 0, 67, 72
2, 31277, Note_on_c, 0, 66, 0
2, 31293, Note_on_c, 0, 69, 52
2, 31322, Control_c, 0, 67, 73
2, 31341, Control_c, 0, 67, 74
2, 31357, Note_on_c, 0, 69, 0
2, 31360, Control_c, 0, 67, 77
2, 31380, Control_c, 0, 67, 82
2, 31382, Note_on_c, 0, 71, 55
2, 31398, Control_c, 0, 67, 87
2, 31418, Control_c, 0, 67, 92
2, 31437, Control_c, 0, 67, 97
2, 31457, Control_c, 0, 67, 103
2, 31457, Note_on_c, 0, 71, 0
2, 31475, Control_c, 0, 67, 108
2, 31483, Note_on_c, 0, 72, 57
2, 31495, Control_c, 0, 67, 115
2, 31514, Control_c, 0, 67, 123
2, 31532, Control_c, 0, 67, 127
2, 31549, Note_on_c, 0, 72, 0
2, 31590, Note_on_c, 0, 62, 53
2, 31607, Note_on_c, 0, 54, 39
2, 31641, Note_on_c, 0, 54, 0
2, 31688, Note_on_c, 0, 62, 0
2, 31700, Note_on_c, 0, 72, 56
2, 31769, Note_on_c, 0, 72, 0
2, 31809, Note_on_c, 0, 71, 53
2, 31882, Note_on_c, 0, 71, 0
2, 31914, Note_on_c, 0, 69, 53
2, 31979, Note_on_c, 0, 69, 0
2, 32007, Note_on_c, 0, 43, 44
2, 32029, Note_on_c, 0, 71, 58
2, 32050, Note_on_c, 0, 43, 0
2, 32081, Note_on_c, 0, 71, 0
2, 32122, Note_on_c, 0, 67, 52
2, 32209, Note_on_c, 0, 67, 0
2, 32227, Note_on_c, 0, 69, 58
2, 32298, Note_on_c, 0, 69, 0
2, 32336, Note_on_c, 0, 71, 55
2, 32396, Note_on_c, 0, 71, 0
2, 32449, Note_on_c, 0, 62, 47
2, 32454, Note_on_c, 0, 55, 35
2, 32500, Note_on_c, 0, 55, 0
2, 32521, Note_on_c, 0, 62, 0
2, 32536, Note_on_c, 0, 71, 55
2, 32625, Note_on_c, 0, 71, 0
2, 32633, Note_on_c, 0, 69, 62
2, 32705, Note_on_c, 0, 69, 0
2, 32741, Note_on_c, 0, 67, 58
2, 32820, Note_on_c, 0, 67, 0
2, 32836, Note_on_c, 0, 47, 33
2, 32839, Note_on_c, 0, 74, 61
2, 32874, Note_on_c, 0, 47, 0
2, 32895, Note_on_c, 0, 74, 0
2, 32947, Note_on_c, 0, 67, 48
2, 33012, Note_on_c, 0, 67, 0
2, 33050, Note_on_c, 0, 69, 55
2, 33107, Note_on_c, 0, 69, 0
2, 33145, Note_on_c, 0, 71, 57
2, 33210, Note_on_c, 0, 71, 0
2, 33256, Note_on_c, 0, 55, 42
2, 33268, Note_on_c, 0, 62, 55
2, 33299, Note_on_c, 0, 55, 0
2, 33351, Note_on_c, 0, 71, 66
2, 33359, Note_on_c, 0, 62, 0
2, 33450, Note_on_c, 0, 71, 0
2, 33454, Note_on_c, 0, 69, 64
2, 33538, Note_on_c, 0, 69, 0
2, 33554, Note_on_c, 0, 67, 63
2, 33641, Note_on_c, 0, 67, 0
2, 33675, Note_on_c, 0, 45, 44
2, 33689, Note_on_c, 0, 72, 29
2, 33715, Note_on_c, 0, 45, 0
2, 33717, Note_on_c, 0, 71, 16
2, 33730, Note_on_c, 0, 72, 0
2, 33750, Note_on_c, 0, 71, 0
2, 33761, Note_on_c, 0, 69, 58
2, 33844, Note_on_c, 0, 69, 0
2, 33873, Note_on_c, 0, 71, 62
2, 33946, Note_on_c, 0, 71, 0
2, 33979, Note_on_c, 0, 72, 58
2, 34032, Note_on_c, 0, 72, 0
2, 34082, Note_on_c, 0, 55, 48
2, 34092, Note_on_c, 0, 64, 49
2, 34141, Note_on_c, 0, 55, 0
2, 34156, Note_on_c, 0, 64, 0
2, 34187, Note_on_c, 0, 67, 50
2, 34242, Note_on_c, 0, 67, 0
2, 34284, Note_on_c, 0, 66, 59
2, 34348, Note_on_c, 0, 66, 0
2, 34391, Note_on_c, 0, 64, 56
2, 34474, Note_on_c, 0, 64, 0
2, 34494, Note_on_c, 0, 50, 51
2, 34495, Note_on_c, 0, 66, 62
2, 34547, Note_on_c, 0, 50, 0
2, 34592, Note_on_c, 0, 66, 0
2, 34593, Note_on_c, 0, 69, 58
2, 34686, Note_on_c, 0, 69, 0
2, 34700, Note_on_c, 0, 71, 56
2, 34777, Note_on_c, 0, 71, 0
2, 34794, Note_on_c, 0, 72, 64
2, 34854, Note_on_c, 0, 72, 0
2, 34897, Note_on_c, 0, 54, 54
2, 34910, Note_on_c, 0, 62, 62
2, 34942, Note_on_c, 0, 54, 0
2, 35002, Note_on_c, 0, 72, 69
2, 35013, Note_on_c, 0, 62, 0
2, 35110, Note_on_c, 0, 71, 70
2, 35122, Note_on_c, 0, 72, 0
2, 35203, Note_on_c, 0, 71, 0
2, 35212, Note_on_c, 0, 69, 70
2, 35308, Note_on_c, 0, 69, 0
2, 35314, Note_on_c, 0, 71, 68
2, 35334, Note_on_c, 0, 43, 54
2, 35370, Note_on_c, 0, 43, 0
2, 35399, Note_on_c, 0, 71, 0
2, 35421, Note_on_c, 0, 67, 64
2, 35511, Note_on_c, 0, 67, 0
2, 35533, Note_on_c, 0, 69, 62
2, 35614, Note_on_c, 0, 69, 0
2, 35640, Note_on_c, 0, 71, 59
2, 35690, Note_on_c, 0, 71, 0
2, 35740, Note_on_c, 0, 62, 55
2, 35745, Note_on_c, 0, 55, 52
2, 35793, Note_on_c, 0, 55, 0
2, 35837, Note_on_c, 0, 66, 60
2, 35842, Note_on_c, 0, 62, 0
2, 35916, Note_on_c, 0, 66, 0
2, 35949, Note_on_c, 0, 64, 57
2, 36018, Note_on_c, 0, 64, 0
2, 36050, Note_on_c, 0, 62, 55
2, 36120, Note_on_c, 0, 62, 0
2, 36152, Note_on_c, 0, 43, 49
2, 36164, Note_on_c, 0, 64, 67
2, 36198, Note_on_c, 0, 43, 0
2, 36227, Note_on_c, 0, 64, 0
2, 36258, Note_on_c, 0, 67, 66
2, 36363, Note_on_c, 0, 69, 70
2, 36381, Note_on_c, 0, 67, 0
2, 36467, Note_on_c, 0, 69, 0
2, 36471, Note_on_c, 0, 71, 67
2, 36549, Note_on_c, 0, 71, 0
2, 36569, Note_on_c, 0, 64, 71
2, 36585, Note_on_c, 0, 55, 52
2, 36640, Note_on_c, 0, 55, 0
2, 36673, Note_on_c, 0, 74, 69
2, 36683, Note_on_c, 0, 64, 0
2, 36780, Note_on_c, 0, 73, 71
2, 36783, Note_on_c, 0, 74, 0
2, 36884, Note_on_c, 0, 71, 66
2, 36889, Note_on_c, 0, 73, 0
2, 36995, Note_on_c, 0, 71, 0
2, 36999, Note_on_c, 0, 73, 70
2, 37009, Note_on_c, 0, 43, 48
2, 37048, Note_on_c, 0, 43, 0
2, 37087, Note_on_c, 0, 73, 0
2, 37099, Note_on_c, 0, 69, 66
2, 37193, Note_on_c, 0, 69, 0
2, 37212, Note_on_c, 0, 71, 63
2, 37289, Note_on_c, 0, 71, 0
2, 37314, Note_on_c, 0, 73, 60
2, 37384, Note_on_c, 0, 73, 0
2, 37426, Note_on_c, 0, 49, 55
2, 37434, Note_on_c, 0, 64, 56
2, 37475, Note_on_c, 0, 49, 0
2, 37511, Note_on_c, 0, 64, 0
2, 37533, Note_on_c, 0, 67, 55
2, 37629, Note_on_c, 0, 67, 0
2, 37640, Note_on_c, 0, 66, 58
2, 37725, Note_on_c, 0, 66, 0
2, 37745, Note_on_c, 0, 64, 62
2, 37829, Note_on_c, 0, 64, 0
2, 37849, Note_on_c, 0, 42, 58
2, 37859, Note_on_c, 0, 62, 62
2, 37891, Note_on_c, 0, 42, 0
2, 37921, Note_on_c, 0, 62, 0
2, 37951, Note_on_c, 0, 66, 60
2, 38058, Note_on_c, 0, 66, 0
2, 38059, Note_on_c, 0, 67, 56
2, 38154, Note_on_c, 0, 67, 0
2, 38164, Note_on_c, 0, 69, 68
2, 38242, Note_on_c, 0, 69, 0
2, 38282, Note_on_c, 0, 59, 70
2, 38284, Note_on_c, 0, 50, 56
2, 38330, Note_on_c, 0, 50, 0
2, 38373, Note_on_c, 0, 59, 0
2, 38383, Note_on_c, 0, 69, 72
2, 38479, Note_on_c, 0, 69, 0
2, 38488, Note_on_c, 0, 67, 63
2, 38575, Note_on_c, 0, 67, 0
2, 38596, Note_on_c, 0, 66, 63
2, 38691, Note_on_c, 0, 66, 0
2, 38709, Note_on_c, 0, 40, 49
2, 38709, Note_on_c, 0, 67, 63
2, 38715, Control_c, 0, 67, 125
2, 38734, Control_c, 0, 67, 123
2, 38747, Note_on_c, 0, 40, 0
2, 38753, Control_c, 0, 67, 122
2, 38773, Control_c, 0, 67, 121
2, 38778, Note_on_c, 0, 67, 0
2, 38792, Control_c, 0, 67, 120
2, 38799, Note_on_c, 0, 64, 59
2, 38811, Control_c, 0, 67, 119
2, 38830, Control_c, 0, 67, 118
2, 38850, Control_c, 0, 67, 117
2, 38868, Control_c, 0, 67, 116
2, 38888, Control_c, 0, 67, 115
2, 38893, Note_on_c, 0, 64, 0
2, 38917, Note_on_c, 0, 66, 63
2, 38945, Control_c, 0, 67, 115
2, 39003, Note_on_c, 0, 66, 0
2, 39025, Note_on_c, 0, 67, 57
2, 39093, Note_on_c, 0, 67, 0
2, 39099, Control_c, 0, 67, 114
2, 39138, Control_c, 0, 67, 114
2, 39138, Note_on_c, 0, 59, 53
2, 39153, Note_on_c, 0, 50, 49
2, 39156, Control_c, 0, 67, 113
2, 39194, Note_on_c, 0, 50, 0
2, 39195, Control_c, 0, 67, 113
2, 39212, Control_c, 0, 67, 112
2, 39215, Note_on_c, 0, 59, 0
2, 39230, Control_c, 0, 67, 109
2, 39235, Note_on_c, 0, 62, 50
2, 39250, Control_c, 0, 67, 106
2, 39269, Control_c, 0, 67, 104
2, 39289, Control_c, 0, 67, 104
2, 39320, Note_on_c, 0, 62, 0
2, 39328, Control_c, 0, 67, 103
2, 39348, Note_on_c, 0, 61, 62
2, 39404, Control_c, 0, 67, 104
2, 39419, Note_on_c, 0, 61, 0
2, 39460, Note_on_c, 0, 59, 62
2, 39548, Note_on_c, 0, 59, 0
2, 39552, Note_on_c, 0, 45, 57
2, 39563, Note_on_c, 0, 61, 66
2, 39591, Note_on_c, 0, 45, 0
2, 39658, Note_on_c, 0, 61, 0
2, 39663, Note_on_c, 0, 64, 63
2, 39754, Note_on_c, 0, 64, 0
2, 39769, Note_on_c, 0, 66, 59
2, 39858, Note_on_c, 0, 66, 0
2, 39871, Note_on_c, 0, 67, 54
2, 39925, Note_on_c, 0, 67, 0
2, 39978, Note_on_c, 0, 49, 56
2, 39980, Note_on_c, 0, 57, 60
2, 39999, Control_c, 0, 67, 103
2, 40022, Note_on_c, 0, 49, 0
2, 40066, Note_on_c, 0, 57, 0
2, 40082, Note_on_c, 0, 67, 55
2, 40134, Control_c, 0, 67, 103
2, 40182, Note_on_c, 0, 67, 0
2, 40192, Note_on_c, 0, 66, 61
2, 40211, Control_c, 0, 67, 103
2, 40288, Note_on_c, 0, 66, 0
2, 40293, Note_on_c, 0, 64, 60
2, 40383, Control_c, 0, 67, 104
2, 40388, Note_on_c, 0, 64, 0
2, 40397, Note_on_c, 0, 66, 65
2, 40409, Note_on_c, 0, 38, 51
2, 40443, Note_on_c, 0, 38, 0
2, 40460, Control_c, 0, 67, 103
2, 40493, Note_on_c, 0, 66, 0
2, 40512, Note_on_c, 0, 62, 60
2, 40537, Control_c, 0, 67, 103
2, 40602, Note_on_c, 0, 62, 0
2, 40616, Note_on_c, 0, 64, 52
2, 40710, Control_c, 0, 67, 102
2, 40711, Note_on_c, 0, 64, 0
2, 40729, Control_c, 0, 67, 102
2, 40729, Note_on_c, 0, 66, 61
2, 40787, Control_c, 0, 67, 101
2, 40789, Note_on_c, 0, 66, 0
2, 40805, Control_c, 0, 67, 101
2, 40809, Note_on_c, 0, 50, 53
2, 40825, Control_c, 0, 67, 100
2, 40827, Note_on_c, 0, 57, 63
2, 40844, Control_c, 0, 67, 100
2, 40854, Note_on_c, 0, 50, 0
2, 40863, Control_c, 0, 67, 95
2, 40882, Control_c, 0, 67, 91
2, 40902, Control_c, 0, 67, 88
2, 40917, Note_on_c, 0, 57, 0
2, 40918, Note_on_c, 0, 66, 72
2, 40921, Control_c, 0, 67, 85
2, 40940, Control_c, 0, 67, 84
2, 40959, Control_c, 0, 67, 82
2, 40979, Control_c, 0, 67, 81
2, 40997, Control_c, 0, 67, 80
2, 41017, Control_c, 0, 67, 79
2, 41020, Note_on_c, 0, 66, 0
2, 41030, Note_on_c, 0, 64, 65
2, 41036, Control_c, 0, 67, 79
2, 41122, Note_on_c, 0, 64, 0
2, 41130, Note_on_c, 0, 62, 64
2, 41172, Control_c, 0, 67, 78
2, 41192, Note_on_c, 0, 62, 0
2, 41210, Control_c, 0, 67, 78
2, 41223, Note_on_c, 0, 42, 74
2, 41232, Note_on_c, 0, 69, 66
2, 41249, Control_c, 0, 67, 77
2, 41261, Note_on_c, 0, 42, 0
2, 41267, Control_c, 0, 67, 76
2, 41286, Control_c, 0, 67, 74
2, 41306, Control_c, 0, 67, 73
2, 41318, Note_on_c, 0, 69, 0
2, 41325, Control_c, 0, 67, 72
2, 41330, Note_on_c, 0, 66, 67
2, 41363, Control_c, 0, 67, 72
2, 41383, Control_c, 0, 67, 71
2, 41402, Control_c, 0, 67, 69
2, 41421, Control_c, 0, 67, 66
2, 41440, Control_c, 0, 67, 62
2, 41440, Note_on_c, 0, 67, 69
2, 41457, Note_on_c, 0, 66, 0
2, 41460, Control_c, 0, 67, 58
2, 41478, Control_c, 0, 67, 53
2, 41498, Control_c, 0, 67, 49
2, 41517, Control_c, 0, 67, 46
2, 41537, Control_c, 0, 67, 42
2, 41539, Note_on_c, 0, 69, 71
2, 41544, Note_on_c, 0, 67, 0
2, 41555, Control_c, 0, 67, 39
2, 41575, Control_c, 0, 67, 38
2, 41594, Control_c, 0, 67, 37
2, 41631, Note_on_c, 0, 69, 0
2, 41642, Note_on_c, 0, 62, 75
2, 41645, Note_on_c, 0, 57, 61
2, 41691, Note_on_c, 0, 57, 0
2, 41740, Note_on_c, 0, 72, 77
2, 41753, Note_on_c, 0, 62, 0
2, 41824, Control_c, 0, 67, 37
2, 41843, Control_c, 0, 67, 36
2, 41844, Note_on_c, 0, 71, 73
2, 41854, Note_on_c, 0, 72, 0
2, 41863, Control_c, 0, 67, 36
2, 41882, Control_c, 0, 67, 34
2, 41901, Control_c, 0, 67, 30
2, 41920, Control_c, 0, 67, 27
2, 41940, Control_c, 0, 67, 23
2, 41943, Note_on_c, 0, 71, 0
2, 41949, Note_on_c, 0, 69, 74
2, 41958, Control_c, 0, 67, 20
2, 41978, Control_c, 0, 67, 18
2, 41997, Control_c, 0, 67, 15
2, 42017, Control_c, 0, 67, 11
2, 42035, Control_c, 0, 67, 0
2, 42049, Note_on_c, 0, 43, 70
2, 42052, Note_on_c, 0, 71, 78
2, 42064, Note_on_c, 0, 69, 0
2, 42084, Note_on_c, 0, 43, 0
2, 42155, Note_on_c, 0, 67, 77
2, 42155, Note_on_c, 0, 71, 0
2, 42269, Note_on_c, 0, 69, 75
2, 42280, Note_on_c, 0, 67, 0
2, 42383, Note_on_c, 0, 71, 74
2, 42392, Note_on_c, 0, 69, 0
2, 42469, Note_on_c, 0, 71, 0
2, 42472, Note_on_c, 0, 55, 70
2, 42480, Note_on_c, 0, 62, 75
2, 42523, Note_on_c, 0, 55, 0
2, 42582, Note_on_c, 0, 71, 77
2, 42593, Note_on_c, 0, 62, 0
2, 42685, Note_on_c, 0, 69, 76
2, 42704, Note_on_c, 0, 71, 0
2, 42795, Note_on_c, 0, 69, 0
2, 42799, Note_on_c, 0, 67, 75
2, 42870, Note_on_c, 0, 67, 0
2, 42893, Note_on_c, 0, 47, 78
2, 42897, Note_on_c, 0, 74, 82
2, 42931, Note_on_c, 0, 47, 0
2, 42994, Note_on_c, 0, 71, 83
2, 43002, Note_on_c, 0, 74, 0
2, 43097, Note_on_c, 0, 72, 79
2, 43130, Note_on_c, 0, 71, 0
2, 43198, Note_on_c, 0, 74, 70
2, 43206, Note_on_c, 0, 72, 0
2, 43280, Note_on_c, 0, 74, 0
2, 43305, Note_on_c, 0, 68, 87
2, 43306, Note_on_c, 0, 62, 82
2, 43335, Note_on_c, 0, 62, 0
2, 43370, Note_on_c, 0, 68, 0
2, 43399, Note_on_c, 0, 77, 78
2, 43511, Note_on_c, 0, 76, 72
2, 43524, Note_on_c, 0, 77, 0
2, 43619, Note_on_c, 0, 74, 65
2, 43655, Note_on_c, 0, 76, 0
2, 43724, Note_on_c, 0, 45, 85
2, 43725, Note_on_c, 0, 73, 81
2, 43726, Control_c, 0, 64, 39
2, 43728, Note_on_c, 0, 74, 0
2, 43746, Control_c, 0, 64, 64
2, 43764, Control_c, 0, 64, 69
2, 43784, Control_c, 0, 64, 74
2, 43803, Control_c, 0, 64, 78
2, 43813, Note_on_c, 0, 73, 0
2, 43822, Control_c, 0, 64, 77
2, 43827, Note_on_c, 0, 69, 78
2, 43841, Control_c, 0, 64, 72
2, 43861, Control_c, 0, 64, 65
2, 43880, Control_c, 0, 64, 31
2, 43899, Control_c, 0, 64, 0
2, 43935, Note_on_c, 0, 71, 78
2, 43941, Note_on_c, 0, 69, 0
2, 44027, Note_on_c, 0, 71, 0
2, 44042, Note_on_c, 0, 73, 74
2, 44110, Note_on_c, 0, 73, 0
2, 44135, Note_on_c, 0, 55, 75
2, 44153, Note_on_c, 0, 64, 68
2, 44169, Note_on_c, 0, 55, 0
2, 44247, Note_on_c, 0, 67, 68
2, 44252, Note_on_c, 0, 64, 0
2, 44338, Note_on_c, 0, 67, 0
2, 44341, Note_on_c, 0, 66, 65
2, 44450, Note_on_c, 0, 64, 68
2, 44452, Note_on_c, 0, 66, 0
2, 44522, Note_on_c, 0, 64, 0
2, 44550, Note_on_c, 0, 54, 82
2, 44556, Note_on_c, 0, 69, 85
2, 44602, Note_on_c, 0, 54, 0
2, 44661, Note_on_c, 0, 69, 0
2, 44665, Note_on_c, 0, 74, 79
2, 44769, Note_on_c, 0, 76, 69
2, 44802, Note_on_c, 0, 74, 0
2, 44869, Note_on_c, 0, 78, 69
2, 44881, Note_on_c, 0, 76, 0
2, 44960, Note_on_c, 0, 71, 79
2, 44962, Note_on_c, 0, 78, 0
2, 44967, Note_on_c, 0, 50, 72
2, 45000, Note_on_c, 0, 50, 0
2, 45050, Note_on_c, 0, 71, 0
2, 45064, Note_on_c, 0, 81, 80
2, 45169, Note_on_c, 0, 79, 75
2, 45173, Note_on_c, 0, 81, 0
2, 45250, Note_on_c, 0, 79, 0
2, 45261, Note_on_c, 0, 78, 73
2, 45349, Note_on_c, 0, 78, 0
2, 45373, Note_on_c, 0, 79, 83
2, 45374, Note_on_c, 0, 52, 78
2, 45412, Note_on_c, 0, 52, 0
2, 45474, Note_on_c, 0, 79, 0
2, 45478, Note_on_c, 0, 73, 78
2, 45591, Note_on_c, 0, 74, 72
2, 45618, Note_on_c, 0, 73, 0
2, 45688, Note_on_c, 0, 76, 69
2, 45705, Note_on_c, 0, 74, 0
2, 45775, Note_on_c, 0, 76, 0
2, 45788, Note_on_c, 0, 49, 76
2, 45789, Note_on_c, 0, 69, 80
2, 45851, Note_on_c, 0, 49, 0
2, 45901, Note_on_c, 0, 79, 79
2, 45903, Note_on_c, 0, 69, 0
2, 46000, Note_on_c, 0, 78, 81
2, 46032, Note_on_c, 0, 79, 0
2, 46103, Note_on_c, 0, 76, 77
2, 46120, Note_on_c, 0, 78, 0
2, 46165, Control_c, 0, 64, 35
2, 46185, Control_c, 0, 64, 65
2, 46204, Control_c, 0, 64, 74
2, 46205, Note_on_c, 0, 78, 82
2, 46216, Note_on_c, 0, 50, 85
2, 46223, Control_c, 0, 64, 80
2, 46230, Note_on_c, 0, 76, 0
2, 46242, Control_c, 0, 64, 75
2, 46262, Control_c, 0, 64, 69
2, 46266, Note_on_c, 0, 50, 0
2, 46280, Control_c, 0, 64, 62
2, 46300, Control_c, 0, 64, 31
2, 46312, Note_on_c, 0, 78, 0
2, 46317, Note_on_c, 0, 71, 81
2, 46319, Control_c, 0, 64, 0
2, 46415, Note_on_c, 0, 73, 84
2, 46420, Note_on_c, 0, 71, 0
2, 46514, Note_on_c, 0, 74, 77
2, 46518, Note_on_c, 0, 73, 0
2, 46601, Note_on_c, 0, 74, 0
2, 46606, Note_on_c, 0, 47, 72
2, 46609, Note_on_c, 0, 68, 86
2, 46647, Note_on_c, 0, 47, 0
2, 46694, Note_on_c, 0, 68, 0
2, 46715, Note_on_c, 0, 78, 82
2, 46814, Note_on_c, 0, 76, 75
2, 46850, Note_on_c, 0, 78, 0
2, 46916, Note_on_c, 0, 74, 77
2, 46965, Note_on_c, 0, 76, 0
2, 47028, Note_on_c, 0, 73, 83
2, 47045, Note_on_c, 0, 74, 0
2, 47087, Control_c, 0, 64, 37
2, 47106, Control_c, 0, 64, 61
2, 47123, Note_on_c, 0, 67, 71
2, 47123, Note_on_c, 0, 73, 0
2, 47125, Control_c, 0, 64, 67
2, 47128, Note_on_c, 0, 52, 66
2, 47145, Control_c, 0, 64, 73
2, 47164, Control_c, 0, 64, 82
2, 47183, Control_c, 0, 64, 89
2, 47202, Control_c, 0, 64, 101
2, 47204, Note_on_c, 0, 52, 0
2, 47222, Control_c, 0, 64, 121
2, 47226, Note_on_c, 0, 69, 87
2, 47228, Note_on_c, 0, 53, 59
2, 47228, Note_on_c, 0, 67, 0
2, 47240, Control_c, 0, 64, 127
2, 47275, Note_on_c, 0, 53, 0
2, 47291, Note_on_c, 0, 55, 51
2, 47317, Control_c, 0, 64, 108
2, 47324, Note_on_c, 0, 70, 85
2, 47336, Control_c, 0, 64, 93
2, 47337, Note_on_c, 0, 69, 0
2, 47356, Control_c, 0, 64, 75
2, 47362, Note_on_c, 0, 55, 0
2, 47375, Control_c, 0, 64, 62
2, 47394, Control_c, 0, 64, 0
2, 47408, Note_on_c, 0, 70, 0
2, 47416, Note_on_c, 0, 64, 75
2, 47421, Note_on_c, 0, 49, 63
2, 47471, Control_c, 0, 64, 55
2, 47490, Control_c, 0, 64, 68
2, 47490, Note_on_c, 0, 49, 0
2, 47492, Note_on_c, 0, 64, 0
2, 47504, Note_on_c, 0, 52, 70
2, 47510, Control_c, 0, 64, 73
2, 47516, Note_on_c, 0, 67, 79
2, 47528, Control_c, 0, 64, 80
2, 47548, Control_c, 0, 64, 84
2, 47567, Control_c, 0, 64, 86
2, 47586, Control_c, 0, 64, 86
2, 47586, Note_on_c, 0, 52, 0
2, 47617, Note_on_c, 0, 65, 76
2, 47621, Note_on_c, 0, 50, 68
2, 47622, Note_on_c, 0, 67, 0
2, 47625, Control_c, 0, 64, 85
2, 47644, Control_c, 0, 64, 82
2, 47663, Control_c, 0, 64, 76
2, 47669, Note_on_c, 0, 50, 0
2, 47682, Control_c, 0, 64, 66
2, 47702, Control_c, 0, 64, 40
2, 47705, Note_on_c, 0, 49, 64
2, 47711, Note_on_c, 0, 65, 0
2, 47719, Note_on_c, 0, 64, 74
2, 47720, Control_c, 0, 64, 0
2, 47795, Note_on_c, 0, 64, 0
2, 47796, Note_on_c, 0, 50, 73
2, 47797, Control_c, 0, 64, 41
2, 47803, Note_on_c, 0, 49, 0
2, 47814, Note_on_c, 0, 65, 77
2, 47816, Control_c, 0, 64, 63
2, 47836, Control_c, 0, 64, 69
2, 47854, Control_c, 0, 64, 75
2, 47871, Note_on_c, 0, 50, 0
2, 47873, Control_c, 0, 64, 82
2, 47885, Note_on_c, 0, 53, 76
2, 47892, Control_c, 0, 64, 86
2, 47902, Note_on_c, 0, 65, 0
2, 47912, Control_c, 0, 64, 87
2, 47916, Note_on_c, 0, 74, 79
2, 47931, Control_c, 0, 64, 85
2, 47951, Control_c, 0, 64, 78
2, 47970, Control_c, 0, 64, 66
2, 47989, Note_on_c, 0, 53, 0
2, 47990, Control_c, 0, 64, 22
2, 47994, Note_on_c, 0, 55, 75
2, 48008, Control_c, 0, 64, 0
2, 48018, Note_on_c, 0, 76, 69
2, 48039, Note_on_c, 0, 74, 0
2, 48047, Control_c, 0, 64, 22
2, 48053, Note_on_c, 0, 55, 0
2, 48066, Control_c, 0, 64, 59
2, 48085, Control_c, 0, 64, 67
2, 48095, Note_on_c, 0, 57, 78
2, 48105, Control_c, 0, 64, 73
2, 48113, Note_on_c, 0, 77, 66
2, 48124, Control_c, 0, 64, 79
2, 48143, Control_c, 0, 64, 83
2, 48147, Note_on_c, 0, 57, 0
2, 48148, Note_on_c, 0, 76, 0
2, 48162, Control_c, 0, 64, 78
2, 48182, Control_c, 0, 64, 65
2, 48193, Note_on_c, 0, 77, 0
2, 48197, Note_on_c, 0, 73, 84
2, 48200, Control_c, 0, 64, 0
2, 48210, Note_on_c, 0, 52, 66
2, 48258, Control_c, 0, 64, 22
2, 48267, Note_on_c, 0, 52, 0
2, 48277, Control_c, 0, 64, 61
2, 48287, Note_on_c, 0, 76, 76
2, 48290, Note_on_c, 0, 55, 71
2, 48293, Note_on_c, 0, 73, 0
2, 48296, Control_c, 0, 64, 70
2, 48316, Control_c, 0, 64, 78
2, 48335, Control_c, 0, 64, 84
2, 48349, Note_on_c, 0, 55, 0
2, 48354, Control_c, 0, 64, 85
2, 48373, Control_c, 0, 64, 83
2, 48383, Note_on_c, 0, 53, 76
2, 48390, Note_on_c, 0, 74, 74
2, 48393, Control_c, 0, 64, 76
2, 48411, Control_c, 0, 64, 68
2, 48425, Note_on_c, 0, 76, 0
2, 48431, Control_c, 0, 64, 54
2, 48447, Note_on_c, 0, 53, 0
2, 48450, Control_c, 0, 64, 0
2, 48469, Note_on_c, 0, 74, 0
2, 48476, Note_on_c, 0, 52, 74
2, 48477, Note_on_c, 0, 73, 84
2, 48525, Note_on_c, 0, 52, 0
2, 48527, Control_c, 0, 64, 36
2, 48546, Control_c, 0, 64, 62
2, 48565, Control_c, 0, 64, 69
2, 48566, Note_on_c, 0, 73, 0
2, 48578, Note_on_c, 0, 53, 77
2, 48584, Note_on_c, 0, 74, 83
2, 48585, Control_c, 0, 64, 79
2, 48604, Control_c, 0, 64, 86
2, 48623, Control_c, 0, 64, 87
2, 48642, Control_c, 0, 64, 78
2, 48660, Note_on_c, 0, 45, 0
2, 48662, Control_c, 0, 64, 66
2, 48669, Note_on_c, 0, 53, 0
2, 48671, Note_on_c, 0, 74, 0
2, 48680, Control_c, 0, 64, 26
2, 48680, Note_on_c, 0, 82, 78
2, 48698, Note_on_c, 0, 50, 70
2, 48700, Control_c, 0, 64, 0
2, 48711, Note_on_c, 0, 82, 0
2, 48719, Control_c, 0, 64, 46
2, 48738, Control_c, 0, 64, 67
2, 48757, Control_c, 0, 64, 82
2, 48776, Control_c, 0, 64, 127
2, 48778, Note_on_c, 0, 50, 0
2, 48778, Note_on_c, 0, 80, 50
2, 48785, Note_on_c, 0, 81, 76
2, 48788, Note_on_c, 0, 52, 78
2, 48828, Note_on_c, 0, 80, 0
2, 48831, Control_c, 0, 64, 116
2, 48850, Control_c, 0, 64, 70
2, 48851, Note_on_c, 0, 52, 0
2, 48870, Control_c, 0, 64, 0
2, 48873, Note_on_c, 0, 79, 82
2, 48893, Note_on_c, 0, 53, 71
2, 48917, Note_on_c, 0, 81, 0
2, 48951, Control_c, 0, 64, 19
2, 48969, Control_c, 0, 64, 57
2, 48969, Note_on_c, 0, 53, 0
2, 48985, Note_on_c, 0, 45, 77
2, 48989, Control_c, 0, 64, 66
2, 48998, Note_on_c, 0, 77, 86
2, 49008, Control_c, 0, 64, 72
2, 49020, Note_on_c, 0, 79, 0
2, 49027, Control_c, 0, 64, 78
2, 49046, Control_c, 0, 64, 82
2, 49066, Control_c, 0, 64, 84
2, 49085, Control_c, 0, 64, 84
2, 49092, Note_on_c, 0, 48, 69
2, 49100, Note_on_c, 0, 76, 85
2, 49102, Note_on_c, 0, 77, 0
2, 49103, Note_on_c, 0, 45, 0
2, 49123, Control_c, 0, 64, 85
2, 49161, Control_c, 0, 64, 86
2, 49168, Note_on_c, 0, 76, 0
2, 49181, Control_c, 0, 64, 87
2, 49198, Note_on_c, 0, 48, 0
2, 49200, Control_c, 0, 64, 87
2, 49204, Note_on_c, 0, 46, 74
2, 49215, Note_on_c, 0, 74, 87
2, 49220, Control_c, 0, 64, 88
2, 49238, Control_c, 0, 64, 88
2, 49277, Control_c, 0, 64, 89
2, 49283, Note_on_c, 0, 46, 0
2, 49295, Control_c, 0, 64, 89
2, 49313, Note_on_c, 0, 74, 0
2, 49314, Note_on_c, 0, 73, 88
2, 49315, Control_c, 0, 64, 91
2, 49315, Note_on_c, 0, 45, 69
2, 49334, Control_c, 0, 64, 92
2, 49427, Note_on_c, 0, 45, 0
2, 49431, Control_c, 0, 64, 91
2, 49449, Control_c, 0, 64, 88
2, 49469, Control_c, 0, 64, 82
2, 49474, Note_on_c, 0, 74, 91
2, 49476, Note_on_c, 0, 44, 75
2, 49488, Control_c, 0, 64, 71
2, 49488, Note_on_c, 0, 73, 0
2, 49507, Control_c, 0, 64, 58
2, 49526, Control_c, 0, 64, 0
2, 49624, Note_on_c, 0, 77, 81
2, 49640, Note_on_c, 0, 74, 0
2, 49745, Note_on_c, 0, 76, 84
2, 49754, Note_on_c, 0, 77, 0
2, 49771, Control_c, 0, 64, 42
2, 49791, Control_c, 0, 64, 62
2, 49809, Control_c, 0, 64, 67
2, 49829, Control_c, 0, 64, 74
2, 49835, Note_on_c, 0, 76, 0
2, 49836, Note_on_c, 0, 74, 81
2, 49851, Control_c, 0, 64, 88
2, 49871, Control_c, 0, 64, 111
2, 49890, Control_c, 0, 64, 127
2, 49942, Note_on_c, 0, 83, 80
2, 49948, Control_c, 0, 64, 97
2, 49953, Note_on_c, 0, 74, 0
2, 49967, Control_c, 0, 64, 71
2, 49986, Control_c, 0, 64, 51
2, 50005, Control_c, 0, 64, 0
2, 50031, Note_on_c, 0, 80, 85
2, 50041, Note_on_c, 0, 83, 0
2, 50044, Control_c, 0, 64, 41
2, 50063, Control_c, 0, 64, 64
2, 50082, Control_c, 0, 64, 74
2, 50102, Control_c, 0, 64, 102
2, 50120, Control_c, 0, 64, 127
2, 50150, Note_on_c, 0, 81, 76
2, 50181, Note_on_c, 0, 80, 0
2, 50242, Note_on_c, 0, 83, 72
2, 50256, Note_on_c, 0, 81, 0
2, 50330, Note_on_c, 0, 77, 89
2, 50331, Control_c, 0, 64, 104
2, 50332, Note_on_c, 0, 83, 0
2, 50351, Control_c, 0, 64, 70
2, 50370, Control_c, 0, 64, 0
2, 50427, Note_on_c, 0, 77, 0
2, 50428, Control_c, 0, 64, 55
2, 50436, Note_on_c, 0, 74, 78
2, 50447, Control_c, 0, 64, 66
2, 50466, Control_c, 0, 64, 75
2, 50485, Control_c, 0, 64, 91
2, 50505, Control_c, 0, 64, 127
2, 50532, Note_on_c, 0, 74, 0
2, 50536, Note_on_c, 0, 76, 81
2, 50624, Note_on_c, 0, 76, 0
2, 50627, Note_on_c, 0, 77, 80
2, 50703, Note_on_c, 0, 77, 0
2, 50716, Control_c, 0, 64, 104
2, 50725, Note_on_c, 0, 71, 73
2, 50733, Control_c, 0, 64, 73
2, 50752, Control_c, 0, 64, 50
2, 50771, Control_c, 0, 64, 0
2, 50791, Control_c, 0, 64, 29
2, 50810, Control_c, 0, 64, 59
2, 50826, Note_on_c, 0, 71, 0
2, 50830, Control_c, 0, 64, 68
2, 50833, Note_on_c, 0, 68, 76
2, 50849, Control_c, 0, 64, 74
2, 50869, Control_c, 0, 64, 86
2, 50887, Control_c, 0, 64, 98
2, 50907, Control_c, 0, 64, 104
2, 50928, Note_on_c, 0, 69, 73
2, 50941, Note_on_c, 0, 68, 0
2, 50946, Control_c, 0, 64, 98
2, 50964, Control_c, 0, 64, 84
2, 50984, Control_c, 0, 64, 69
2, 51003, Control_c, 0, 64, 49
2, 51022, Control_c, 0, 64, 0
2, 51027, Note_on_c, 0, 71, 70
2, 51053, Note_on_c, 0, 69, 0
2, 51061, Control_c, 0, 64, 43
2, 51080, Control_c, 0, 64, 66
2, 51098, Control_c, 0, 64, 77
2, 51118, Control_c, 0, 64, 99
2, 51124, Note_on_c, 0, 64, 75
2, 51125, Note_on_c, 0, 71, 0
2, 51137, Control_c, 0, 64, 127
2, 51223, Note_on_c, 0, 66, 79
2, 51229, Note_on_c, 0, 64, 0
2, 51233, Control_c, 0, 64, 112
2, 51252, Control_c, 0, 64, 82
2, 51272, Control_c, 0, 64, 63
2, 51290, Control_c, 0, 64, 0
2, 51319, Note_on_c, 0, 68, 83
2, 51343, Note_on_c, 0, 66, 0
2, 51349, Control_c, 0, 64, 46
2, 51367, Control_c, 0, 64, 63
2, 51387, Control_c, 0, 64, 70
2, 51396, Note_on_c, 0, 68, 0
2, 51406, Control_c, 0, 64, 79
2, 51408, Note_on_c, 0, 69, 79
2, 51426, Control_c, 0, 64, 94
2, 51444, Control_c, 0, 64, 108
2, 51464, Control_c, 0, 64, 127
2, 51507, Note_on_c, 0, 71, 89
2, 51515, Note_on_c, 0, 69, 0
2, 51538, Note_on_c, 0, 44, 0
2, 51605, Note_on_c, 0, 73, 86
2, 51627, Note_on_c, 0, 71, 0
2, 51702, Note_on_c, 0, 73, 0
2, 51709, Note_on_c, 0, 74, 90
2, 51815, Note_on_c, 0, 76, 90
2, 51846, Note_on_c, 0, 74, 0
2, 51941, Note_on_c, 0, 45, 80
2, 51977, Note_on_c, 0, 77, 83
2, 51982, Control_c, 0, 64, 91
2, 51998, Note_on_c, 0, 76, 0
2, 52001, Control_c, 0, 64, 64
2, 52021, Control_c, 0, 64, 0
2, 52116, Control_c, 0, 64, 13
2, 52126, Note_on_c, 0, 73, 66
2, 52135, Control_c, 0, 64, 54
2, 52155, Control_c, 0, 64, 64
2, 52174, Control_c, 0, 64, 67
2, 52193, Control_c, 0, 64, 69
2, 52212, Control_c, 0, 64, 72
2, 52232, Control_c, 0, 64, 79
2, 52243, Note_on_c, 0, 74, 67
2, 52249, Note_on_c, 0, 73, 0
2, 52250, Control_c, 0, 64, 94
2, 52270, Control_c, 0, 64, 127
2, 52276, Note_on_c, 0, 57, 66
2, 52347, Note_on_c, 0, 69, 77
2, 52347, Note_on_c, 0, 74, 0
2, 52409, Note_on_c, 0, 57, 0
2, 52410, Note_on_c, 0, 77, 0
2, 52446, Note_on_c, 0, 70, 88
2, 52454, Note_on_c, 0, 69, 0
2, 52463, Note_on_c, 0, 55, 70
2, 52549, Note_on_c, 0, 70, 0
2, 52551, Note_on_c, 0, 67, 78
2, 52622, Note_on_c, 0, 55, 0
2, 52646, Note_on_c, 0, 76, 93
2, 52653, Note_on_c, 0, 49, 67
2, 52670, Note_on_c, 0, 67, 0
2, 52692, Control_c, 0, 64, 87
2, 52712, Control_c, 0, 64, 60
2, 52730, Control_c, 0, 64, 0
2, 52759, Note_on_c, 0, 67, 76
2, 52769, Control_c, 0, 64, 18
2, 52789, Control_c, 0, 64, 60
2, 52807, Control_c, 0, 64, 73
2, 52827, Control_c, 0, 64, 107
2, 52846, Control_c, 0, 64, 127
2, 52849, Note_on_c, 0, 53, 70
2, 52864, Note_on_c, 0, 67, 0
2, 52867, Note_on_c, 0, 69, 79
2, 52915, Note_on_c, 0, 76, 0
2, 52941, Note_on_c, 0, 49, 0
2, 52964, Note_on_c, 0, 69, 0
2, 52966, Note_on_c, 0, 65, 79
2, 53017, Note_on_c, 0, 53, 0
2, 53062, Note_on_c, 0, 50, 84
2, 53073, Note_on_c, 0, 74, 89
2, 53090, Note_on_c, 0, 65, 0
2, 53095, Control_c, 0, 64, 78
2, 53115, Control_c, 0, 64, 39
2, 53134, Control_c, 0, 64, 0
2, 53187, Note_on_c, 0, 65, 72
2, 53192, Control_c, 0, 64, 42
2, 53210, Control_c, 0, 64, 66
2, 53230, Control_c, 0, 64, 88
2, 53249, Control_c, 0, 64, 127
2, 53289, Note_on_c, 0, 67, 80
2, 53290, Note_on_c, 0, 52, 83
2, 53292, Note_on_c, 0, 50, 0
2, 53299, Note_on_c, 0, 65, 0
2, 53326, Control_c, 0, 64, 74
2, 53336, Note_on_c, 0, 74, 0
2, 53346, Control_c, 0, 64, 47
2, 53364, Control_c, 0, 64, 46
2, 53384, Control_c, 0, 64, 63
2, 53403, Control_c, 0, 64, 77
2, 53406, Note_on_c, 0, 64, 82
2, 53422, Control_c, 0, 64, 119
2, 53427, Note_on_c, 0, 67, 0
2, 53441, Control_c, 0, 64, 127
2, 53537, Control_c, 0, 64, 70
2, 53546, Note_on_c, 0, 64, 0
2, 53550, Note_on_c, 0, 52, 0
2, 53555, Note_on_c, 0, 73, 88
2, 53556, Control_c, 0, 64, 0
2, 53556, Note_on_c, 0, 45, 0
2, 53562, Note_on_c, 0, 55, 78
2, 53595, Control_c, 0, 64, 40
2, 53610, Control_c, 0, 64, 65
2, 53630, Control_c, 0, 64, 80
2, 53648, Control_c, 0, 64, 127
2, 53690, Note_on_c, 0, 64, 82
2, 53742, Note_on_c, 0, 55, 0
2, 53777, Note_on_c, 0, 73, 0
2, 53787, Note_on_c, 0, 64, 0
2, 53845, Control_c, 0, 64, 94
2, 53865, Control_c, 0, 64, 57
2, 53877, Note_on_c, 0, 45, 82
2, 53884, Control_c, 0, 64, 0
2, 53942, Control_c, 0, 64, 46
2, 53960, Control_c, 0, 64, 77
2, 53979, Control_c, 0, 64, 127
2, 54055, Note_on_c, 0, 45, 0
2, 54063, Note_on_c, 0, 50, 74
2, 54146, Note_on_c, 0, 53, 60
2, 54213, Note_on_c, 0, 56, 80
2, 54303, Note_on_c, 0, 59, 71
2, 54320, Note_on_c, 0, 56, 0
2, 54339, Note_on_c, 0, 62, 69
2, 54387, Note_on_c, 0, 56, 45
2, 54390, Note_on_c, 0, 65, 77
2, 54443, Note_on_c, 0, 68, 81
2, 54497, Note_on_c, 0, 71, 84
2, 54544, Note_on_c, 0, 74, 89
2, 55911, Note_on_c, 0, 59, 0
2, 55917, Note_on_c, 0, 53, 0
2, 55921, Note_on_c, 0, 50, 0
2, 55923, Control_c, 0, 64, 89
2, 55935, Note_on_c, 0, 56, 0
2, 55936, Note_on_c, 0, 65, 0
2, 55941, Note_on_c, 0, 62, 0
2, 55942, Control_c, 0, 64, 63
2, 55942, Note_on_c, 0, 68, 0
2, 55961, Control_c, 0, 64, 0
2, 55972, Note_on_c, 0, 71, 0
2, 56418, Note_on_c, 0, 73, 79
2, 56469, Note_on_c, 0, 74, 0
2, 56510, Control_c, 0, 64, 31
2, 56529, Control_c, 0, 64, 51
2, 56549, Control_c, 0, 64, 59
2, 56567, Control_c, 0, 64, 63
2, 56587, Control_c, 0, 64, 64
2, 56606, Control_c, 0, 64, 65
2, 56626, Control_c, 0, 64, 67
2, 56644, Control_c, 0, 64, 70
2, 56664, Control_c, 0, 64, 74
2, 56683, Control_c, 0, 64, 81
2, 56703, Control_c, 0, 64, 86
2, 56721, Control_c, 0, 64, 89
2, 56741, Control_c, 0, 64, 91
2, 56748, Note_on_c, 0, 71, 80
2, 56760, Control_c, 0, 64, 92
2, 56779, Control_c, 0, 64, 94
2, 56791, Note_on_c, 0, 73, 0
2, 56798, Control_c, 0, 64, 95
2, 56818, Control_c, 0, 64, 98
2, 56837, Control_c, 0, 64, 100
2, 56856, Control_c, 0, 64, 102
2, 56895, Control_c, 0, 64, 103
2, 56945, Note_on_c, 0, 71, 0
2, 56948, Note_on_c, 0, 69, 83
2, 57009, Control_c, 0, 64, 103
2, 57106, Note_on_c, 0, 68, 84
2, 57124, Control_c, 0, 64, 102
2, 57137, Note_on_c, 0, 69, 0
2, 57144, Control_c, 0, 64, 94
2, 57163, Control_c, 0, 64, 82
2, 57183, Control_c, 0, 64, 68
2, 57201, Control_c, 0, 64, 55
2, 57221, Control_c, 0, 64, 36
2, 57240, Control_c, 0, 64, 50
2, 57243, Note_on_c, 0, 68, 0
2, 57244, Note_on_c, 0, 66, 73
2, 57259, Control_c, 0, 64, 59
2, 57278, Control_c, 0, 64, 63
2, 57298, Control_c, 0, 64, 64
2, 57317, Control_c, 0, 64, 67
2, 57336, Control_c, 0, 64, 72
2, 57342, Note_on_c, 0, 66, 0
2, 57355, Control_c, 0, 64, 83
2, 57356, Note_on_c, 0, 64, 76
2, 57375, Control_c, 0, 64, 93
2, 57393, Control_c, 0, 64, 95
2, 57432, Control_c, 0, 64, 96
2, 57436, Note_on_c, 0, 64, 0
2, 57444, Note_on_c, 0, 66, 75
2, 57452, Control_c, 0, 64, 98
2, 57470, Control_c, 0, 64, 103
2, 57489, Control_c, 0, 64, 110
2, 57509, Control_c, 0, 64, 117
2, 57527, Control_c, 0, 64, 123
2, 57540, Note_on_c, 0, 68, 83
2, 57547, Control_c, 0, 64, 127
2, 57553, Note_on_c, 0, 66, 0
2, 57599, Note_on_c, 0, 68, 0
2, 57616, Note_on_c, 0, 69, 77
2, 57689, Note_on_c, 0, 69, 0
2, 57700, Note_on_c, 0, 71, 83
2, 57776, Note_on_c, 0, 73, 82
2, 57783, Note_on_c, 0, 71, 0
2, 57838, Note_on_c, 0, 73, 0
2, 57855, Control_c, 0, 64, 90
2, 57864, Note_on_c, 0, 74, 74
2, 57873, Control_c, 0, 64, 67
2, 57893, Control_c, 0, 64, 0
2, 57939, Note_on_c, 0, 76, 82
2, 57941, Note_on_c, 0, 74, 0
2, 57989, Control_c, 0, 64, 41
2, 58007, Control_c, 0, 64, 63
2, 58019, Note_on_c, 0, 76, 0
2, 58022, Note_on_c, 0, 77, 80
2, 58027, Control_c, 0, 64, 69
2, 58046, Control_c, 0, 64, 75
2, 58066, Control_c, 0, 64, 84
2, 58084, Control_c, 0, 64, 92
2, 58099, Note_on_c, 0, 77, 0
2, 58104, Control_c, 0, 64, 101
2, 58109, Note_on_c, 0, 76, 77
2, 58123, Control_c, 0, 64, 119
2, 58143, Control_c, 0, 64, 127
2, 58148, Note_on_c, 0, 76, 0
2, 58178, Note_on_c, 0, 74, 72
2, 58254, Note_on_c, 0, 74, 0
2, 58266, Note_on_c, 0, 73, 75
2, 58336, Note_on_c, 0, 71, 71
2, 58337, Note_on_c, 0, 73, 0
2, 58379, Note_on_c, 0, 71, 0
2, 58413, Note_on_c, 0, 69, 75
2, 58492, Note_on_c, 0, 69, 0
2, 58499, Note_on_c, 0, 68, 79
2, 58569, Note_on_c, 0, 66, 72
2, 58619, Note_on_c, 0, 68, 0
2, 58635, Note_on_c, 0, 64, 76
2, 58699, Note_on_c, 0, 62, 76
2, 58712, Note_on_c, 0, 64, 0
2, 58723, Note_on_c, 0, 66, 0
2, 58748, Note_on_c, 0, 62, 0
2, 58773, Note_on_c, 0, 61, 72
2, 58793, Control_c, 0, 64, 74
2, 58813, Control_c, 0, 64, 0
2, 58867, Note_on_c, 0, 64, 71
2, 58889, Control_c, 0, 64, 24
2, 58908, Control_c, 0, 64, 60
2, 58922, Note_on_c, 0, 67, 71
2, 58927, Control_c, 0, 64, 71
2, 58947, Control_c, 0, 64, 94
2, 58966, Control_c, 0, 64, 127
2, 59000, Note_on_c, 0, 70, 75
2, 59022, Note_on_c, 0, 73, 62
2, 59089, Note_on_c, 0, 76, 80
2, 59171, Note_on_c, 0, 79, 76
2, 59215, Note_on_c, 0, 82, 91
2, 59252, Note_on_c, 0, 76, 0
2, 59315, Note_on_c, 0, 64, 0
2, 59348, Note_on_c, 0, 67, 0
2, 59361, Note_on_c, 0, 61, 0
2, 59369, Note_on_c, 0, 73, 0
2, 59413, Note_on_c, 0, 79, 0
2, 59418, Note_on_c, 0, 82, 0
2, 59432, Note_on_c, 0, 70, 0
2, 59659, Control_c, 0, 64, 123
2, 59678, Control_c, 0, 64, 78
2, 59698, Control_c, 0, 64, 60
2, 59717, Control_c, 0, 64, 0
2, 59863, Note_on_c, 0, 62, 83
2, 59889, Control_c, 0, 64, 48
2, 59909, Control_c, 0, 64, 81
2, 59927, Control_c, 0, 64, 127
2, 59994, Note_on_c, 0, 65, 76
2, 60086, Note_on_c, 0, 68, 77
2, 60154, Note_on_c, 0, 71, 76
2, 60202, Note_on_c, 0, 68, 0
2, 60213, Note_on_c, 0, 74, 75
2, 60216, Note_on_c, 0, 71, 0
2, 60228, Note_on_c, 0, 62, 0
2, 60256, Note_on_c, 0, 65, 0
2, 60268, Note_on_c, 0, 77, 74
2, 60335, Note_on_c, 0, 80, 86
2, 60403, Note_on_c, 0, 83, 89
2, 60434, Note_on_c, 0, 74, 0
2, 60438, Note_on_c, 0, 77, 0
2, 60517, Note_on_c, 0, 80, 0
2, 60602, Note_on_c, 0, 83, 0
2, 60963, Control_c, 0, 64, 79
2, 60983, Control_c, 0, 64, 56
2, 61002, Control_c, 0, 64, 0
2, 61267, Note_on_c, 0, 45, 76
2, 61309, Control_c, 0, 64, 55
2, 61328, Control_c, 0, 64, 65
2, 61348, Control_c, 0, 64, 74
2, 61367, Control_c, 0, 64, 101
2, 61387, Control_c, 0, 64, 127
2, 61521, Note_on_c, 0, 52, 72
2, 61627, Note_on_c, 0, 57, 69
2, 61714, Note_on_c, 0, 64, 72
2, 61782, Note_on_c, 0, 69, 81
2, 61867, Note_on_c, 0, 74, 90
2, 62813, Note_on_c, 0, 57, 0
2, 62961, Note_on_c, 0, 74, 0
2, 63128, Note_on_c, 0, 73, 86
2, 63140, Note_on_c, 0, 55, 64
2, 63175, Control_c, 0, 64, 73
2, 63195, Control_c, 0, 64, 41
2, 63214, Control_c, 0, 64, 0
2, 63290, Control_c, 0, 64, 36
2, 63310, Control_c, 0, 64, 63
2, 63329, Control_c, 0, 64, 69
2, 63349, Control_c, 0, 64, 78
2, 63367, Control_c, 0, 64, 97
2, 63387, Control_c, 0, 64, 127
2, 63481, Note_on_c, 0, 64, 0
2, 63700, Note_on_c, 0, 69, 0
2, 63853, Note_on_c, 0, 55, 0
2, 63940, Note_on_c, 0, 52, 0
2, 64099, Note_on_c, 0, 45, 0
2, 64375, Note_on_c, 0, 73, 0
2, 64820, Note_on_c, 0, 74, 88
2, 64832, Note_on_c, 0, 69, 77
2, 64835, Note_on_c, 0, 57, 56
2, 64840, Note_on_c, 0, 66, 68
2, 64842, Note_on_c, 0, 50, 57
2, 64843, Note_on_c, 0, 54, 57
2, 64884, Control_c, 0, 64, 94
2, 64904, Control_c, 0, 64, 73
2, 64923, Control_c, 0, 64, 58
2, 64941, Control_c, 0, 64, 0
2, 65403, Control_c, 0, 64, 9
2, 65421, Control_c, 0, 64, 21
2, 65441, Control_c, 0, 64, 29
2, 65460, Control_c, 0, 64, 38
2, 65480, Control_c, 0, 64, 48
2, 65498, Control_c, 0, 64, 59
2, 65518, Control_c, 0, 64, 61
2, 65595, Control_c, 0, 64, 61
2, 65614, Control_c, 0, 64, 62
2, 65633, Control_c, 0, 64, 63
2, 65729, Control_c, 0, 64, 64
2, 65749, Control_c, 0, 64, 64
2, 65767, Control_c, 0, 64, 65
2, 65844, Control_c, 0, 64, 66
2, 65864, Control_c, 0, 64, 67
2, 65883, Control_c, 0, 64, 70
2, 65901, Control_c, 0, 64, 74
2, 65921, Control_c, 0, 64, 79
2, 65940, Control_c, 0, 64, 83
2, 65960, Control_c, 0, 64, 86
2, 65978, Control_c, 0, 64, 89
2, 65998, Control_c, 0, 64, 93
2, 66017, Control_c, 0, 64, 97
2, 66036, Control_c, 0, 64, 101
2, 66055, Control_c, 0, 64, 105
2, 66075, Control_c, 0, 64, 110
2, 66094, Control_c, 0, 64, 127
2, 68180, Note_on_c, 0, 66, 0
2, 68239, Note_on_c, 0, 74, 0
2, 68252, Note_on_c, 0, 57, 0
2, 68296, Note_on_c, 0, 69, 0
2, 68321, Note_on_c, 0, 54, 0
2, 68323, Note_on_c, 0, 50, 0
2, 68608, Control_c, 0, 64, 100
2, 68628, Control_c, 0, 64, 82
2, 68646, Control_c, 0, 64, 70
2, 68666, Control_c, 0, 64, 62
2, 68685, Control_c, 0, 64, 57
2, 68705, Control_c, 0, 64, 57
2, 68800, Control_c, 0, 64, 56
2, 68819, Control_c, 0, 64, 55
2, 68839, Control_c, 0, 64, 54
2, 68857, Control_c, 0, 64, 53
2, 68877, Control_c, 0, 64, 53
2, 68973, Control_c, 0, 64, 53
2, 68992, Control_c, 0, 64, 54
2, 69108, Control_c, 0, 64, 54
2, 69185, Control_c, 0, 64, 55
2, 69414, Control_c, 0, 64, 55
2, 69645, Control_c, 0, 64, 55
2, 71046, Control_c, 0, 64, 54
2, 71373, Control_c, 0, 64, 54
2, 71411, Control_c, 0, 64, 53
2, 71431, Control_c, 0, 64, 52
2, 71450, Control_c, 0, 64, 44
2, 71469, Control_c, 0, 64, 0
2, 72263, Note_on_c, 0, 50, 58
2, 72385, Note_on_c, 0, 52, 74
2, 72429, Note_on_c, 0, 50, 0
2, 72502, Note_on_c, 0, 54, 77
2, 72517, Note_on_c, 0, 52, 0
2, 72602, Note_on_c, 0, 54, 0
2, 72603, Note_on_c, 0, 55, 76
2, 72715, Note_on_c, 0, 54, 78
2, 72720, Note_on_c, 0, 55, 0
2, 72825, Note_on_c, 0, 52, 78
2, 72827, Note_on_c, 0, 54, 0
2, 72939, Note_on_c, 0, 54, 84
2, 72946, Note_on_c, 0, 52, 0
2, 73055, Note_on_c, 0, 50, 83
2, 73063, Note_on_c, 0, 54, 0
2, 73232, Note_on_c, 0, 59, 81
2, 73271, Note_on_c, 0, 50, 0
2, 73485, Control_c, 0, 64, 17
2, 73505, Control_c, 0, 64, 53
2, 73523, Control_c, 0, 64, 64
2, 73542, Control_c, 0, 64, 69
2, 73562, Control_c, 0, 64, 77
2, 73580, Control_c, 0, 64, 94
2, 73600, Control_c, 0, 64, 127
2, 73932, Note_on_c, 0, 59, 0
2, 74177, Note_on_c, 0, 59, 86
2, 74310, Control_c, 0, 64, 91
2, 74329, Control_c, 0, 64, 75
2, 74348, Control_c, 0, 64, 65
2, 74367, Control_c, 0, 64, 57
2, 74387, Control_c, 0, 64, 48
2, 74406, Control_c, 0, 64, 42
2, 74425, Control_c, 0, 64, 38
2, 74444, Control_c, 0, 64, 11
2, 74450, Note_on_c, 0, 57, 79
2, 74463, Control_c, 0, 64, 0
2, 74468, Note_on_c, 0, 59, 0
2, 75416, Note_on_c, 0, 55, 74
2, 75472, Note_on_c, 0, 57, 0
2, 75700, Note_on_c, 0, 54, 77
2, 75730, Note_on_c, 0, 55, 0
2, 76658, Note_on_c, 0, 55, 77
2, 76718, Note_on_c, 0, 54, 0
2, 76946, Note_on_c, 0, 54, 63
2, 76946, Note_on_c, 0, 57, 74
2, 77013, Note_on_c, 0, 55, 0
2, 77073, Note_on_c, 0, 59, 79
2, 77088, Note_on_c, 0, 57, 0
2, 77194, Note_on_c, 0, 61, 78
2, 77205, Note_on_c, 0, 59, 0
2, 77299, Note_on_c, 0, 62, 75
2, 77313, Note_on_c, 0, 61, 0
2, 77406, Note_on_c, 0, 61, 78
2, 77407, Note_on_c, 0, 62, 0
2, 77514, Note_on_c, 0, 59, 81
2, 77523, Note_on_c, 0, 61, 0
2, 77632, Note_on_c, 0, 61, 87
2, 77646, Note_on_c, 0, 59, 0
2, 77661, Note_on_c, 0, 52, 67
2, 77671, Note_on_c, 0, 54, 0
2, 77744, Note_on_c, 0, 57, 77
2, 77766, Note_on_c, 0, 61, 0
2, 77921, Note_on_c, 0, 66, 86
2, 77930, Note_on_c, 0, 50, 61
2, 77938, Note_on_c, 0, 52, 0
2, 77942, Note_on_c, 0, 57, 0
2, 78189, Control_c, 0, 64, 36
2, 78208, Control_c, 0, 64, 55
2, 78228, Control_c, 0, 64, 61
2, 78246, Control_c, 0, 64, 63
2, 78266, Control_c, 0, 64, 65
2, 78285, Control_c, 0, 64, 70
2, 78304, Control_c, 0, 64, 78
2, 78323, Control_c, 0, 64, 94
2, 78342, Control_c, 0, 64, 127
2, 78568, Note_on_c, 0, 66, 0
2, 78859, Note_on_c, 0, 66, 82
2, 79014, Control_c, 0, 64, 107
2, 79034, Control_c, 0, 64, 89
2, 79053, Control_c, 0, 64, 78
2, 79072, Control_c, 0, 64, 69
2, 79091, Control_c, 0, 64, 64
2, 79111, Control_c, 0, 64, 58
2, 79130, Control_c, 0, 64, 52
2, 79149, Control_c, 0, 64, 44
2, 79157, Note_on_c, 0, 64, 75
2, 79168, Control_c, 0, 64, 17
2, 79177, Note_on_c, 0, 52, 52
2, 79180, Note_on_c, 0, 50, 0
2, 79188, Control_c, 0, 64, 0
2, 79210, Note_on_c, 0, 66, 0
2, 79437, Control_c, 0, 64, 42
2, 79456, Control_c, 0, 64, 60
2, 79476, Control_c, 0, 64, 65
2, 79494, Control_c, 0, 64, 68
2, 79514, Control_c, 0, 64, 74
2, 79533, Control_c, 0, 64, 89
2, 79552, Control_c, 0, 64, 127
2, 80088, Note_on_c, 0, 62, 60
2, 80155, Note_on_c, 0, 64, 0
2, 80359, Control_c, 0, 64, 110
2, 80377, Control_c, 0, 64, 86
2, 80377, Note_on_c, 0, 62, 0
2, 80381, Note_on_c, 0, 61, 53
2, 80391, Note_on_c, 0, 52, 0
2, 80396, Note_on_c, 0, 45, 37
2, 80397, Control_c, 0, 64, 70
2, 80416, Control_c, 0, 64, 57
2, 80436, Control_c, 0, 64, 0
2, 80628, Control_c, 0, 64, 24
2, 80646, Control_c, 0, 64, 49
2, 80666, Control_c, 0, 64, 60
2, 80685, Control_c, 0, 64, 64
2, 80704, Control_c, 0, 64, 66
2, 80723, Control_c, 0, 64, 68
2, 80742, Control_c, 0, 64, 73
2, 80762, Control_c, 0, 64, 84
2, 80780, Control_c, 0, 64, 99
2, 80800, Control_c, 0, 64, 127
2, 80880, Note_on_c, 0, 45, 0
2, 81184, Note_on_c, 0, 61, 0
2, 81459, Note_on_c, 0, 52, 60
2, 81539, Note_on_c, 0, 54, 74
2, 81555, Note_on_c, 0, 52, 0
2, 81605, Control_c, 0, 64, 107
2, 81606, Note_on_c, 0, 55, 71
2, 81621, Note_on_c, 0, 54, 0
2, 81623, Control_c, 0, 64, 90
2, 81643, Control_c, 0, 64, 74
2, 81662, Control_c, 0, 64, 62
2, 81677, Note_on_c, 0, 66, 89
2, 81681, Control_c, 0, 64, 0
2, 81694, Note_on_c, 0, 55, 0
2, 81702, Note_on_c, 0, 57, 65
2, 81969, Control_c, 0, 64, 26
2, 81989, Control_c, 0, 64, 51
2, 82008, Control_c, 0, 64, 63
2, 82027, Control_c, 0, 64, 65
2, 82046, Control_c, 0, 64, 68
2, 82065, Control_c, 0, 64, 71
2, 82085, Control_c, 0, 64, 81
2, 82103, Control_c, 0, 64, 102
2, 82123, Control_c, 0, 64, 127
2, 82172, Note_on_c, 0, 66, 0
2, 82617, Note_on_c, 0, 66, 81
2, 82738, Control_c, 0, 64, 105
2, 82758, Control_c, 0, 64, 84
2, 82776, Control_c, 0, 64, 68
2, 82796, Control_c, 0, 64, 50
2, 82815, Control_c, 0, 64, 0
2, 82920, Note_on_c, 0, 59, 74
2, 82958, Note_on_c, 0, 66, 0
2, 83046, Control_c, 0, 64, 41
2, 83064, Control_c, 0, 64, 55
2, 83084, Control_c, 0, 64, 61
2, 83103, Control_c, 0, 64, 63
2, 83122, Control_c, 0, 64, 64
2, 83141, Control_c, 0, 64, 66
2, 83161, Control_c, 0, 64, 68
2, 83180, Control_c, 0, 64, 75
2, 83199, Control_c, 0, 64, 89
2, 83218, Control_c, 0, 64, 116
2, 83238, Control_c, 0, 64, 127
2, 83377, Note_on_c, 0, 59, 0
2, 83832, Note_on_c, 0, 59, 60
2, 83929, Note_on_c, 0, 61, 70
2, 83954, Note_on_c, 0, 59, 0
2, 84031, Note_on_c, 0, 62, 65
2, 84063, Control_c, 0, 64, 101
2, 84072, Note_on_c, 0, 61, 0
2, 84082, Control_c, 0, 64, 85
2, 84101, Control_c, 0, 64, 72
2, 84121, Control_c, 0, 64, 63
2, 84140, Control_c, 0, 64, 46
2, 84159, Control_c, 0, 64, 0
2, 84169, Note_on_c, 0, 55, 37
2, 84198, Note_on_c, 0, 64, 65
2, 84281, Note_on_c, 0, 62, 0
2, 84299, Note_on_c, 0, 57, 0
2, 84479, Note_on_c, 0, 62, 61
2, 84555, Note_on_c, 0, 64, 0
2, 84749, Note_on_c, 0, 64, 53
2, 84790, Note_on_c, 0, 62, 0
2, 85004, Note_on_c, 0, 61, 44
2, 85051, Note_on_c, 0, 64, 0
2, 85297, Note_on_c, 0, 57, 48
2, 85357, Note_on_c, 0, 61, 0
2, 85427, Control_c, 0, 64, 30
2, 85446, Control_c, 0, 64, 49
2, 85464, Control_c, 0, 64, 58
2, 85484, Control_c, 0, 64, 61
2, 85503, Control_c, 0, 64, 62
2, 85522, Control_c, 0, 64, 63
2, 85541, Control_c, 0, 64, 63
2, 85561, Control_c, 0, 64, 64
2, 85580, Control_c, 0, 64, 66
2, 85599, Control_c, 0, 64, 69
2, 85618, Control_c, 0, 64, 74
2, 85638, Control_c, 0, 64, 80
2, 85656, Control_c, 0, 64, 88
2, 85676, Control_c, 0, 64, 94
2, 85695, Control_c, 0, 64, 99
2, 85715, Control_c, 0, 64, 106
2, 85733, Control_c, 0, 64, 114
2, 85753, Control_c, 0, 64, 127
2, 86027, Note_on_c, 0, 57, 0
2, 86266, Note_on_c, 0, 54, 55
2, 86291, Note_on_c, 0, 55, 0
2, 86362, Note_on_c, 0, 54, 0
2, 86380, Note_on_c, 0, 52, 60
2, 86406, Control_c, 0, 64, 100
2, 86424, Control_c, 0, 64, 84
2, 86444, Control_c, 0, 64, 70
2, 86463, Control_c, 0, 64, 56
2, 86482, Control_c, 0, 64, 0
2, 86512, Note_on_c, 0, 62, 65
2, 86527, Note_on_c, 0, 54, 58
2, 86539, Note_on_c, 0, 52, 0
2, 86630, Note_on_c, 0, 64, 70
2, 86720, Note_on_c, 0, 62, 0
2, 86749, Note_on_c, 0, 66, 74
2, 86757, Note_on_c, 0, 64, 0
2, 86864, Note_on_c, 0, 67, 73
2, 86871, Note_on_c, 0, 66, 0
2, 86986, Note_on_c, 0, 66, 82
2, 86991, Note_on_c, 0, 67, 0
2, 87101, Note_on_c, 0, 64, 79
2, 87123, Note_on_c, 0, 66, 0
2, 87217, Note_on_c, 0, 66, 84
2, 87232, Note_on_c, 0, 50, 65
2, 87237, Note_on_c, 0, 54, 0
2, 87246, Note_on_c, 0, 64, 0
2, 87334, Note_on_c, 0, 62, 80
2, 87358, Note_on_c, 0, 66, 0
2, 87537, Note_on_c, 0, 71, 85
2, 87543, Note_on_c, 0, 50, 0
2, 87549, Note_on_c, 0, 55, 52
2, 87770, Control_c, 0, 64, 35
2, 87789, Control_c, 0, 64, 54
2, 87808, Control_c, 0, 64, 60
2, 87828, Control_c, 0, 64, 62
2, 87846, Control_c, 0, 64, 63
2, 87865, Control_c, 0, 64, 64
2, 87885, Control_c, 0, 64, 65
2, 87904, Control_c, 0, 64, 66
2, 87923, Control_c, 0, 64, 70
2, 87942, Control_c, 0, 64, 76
2, 87962, Control_c, 0, 64, 84
2, 87980, Control_c, 0, 64, 94
2, 88000, Control_c, 0, 64, 107
2, 88019, Control_c, 0, 64, 127
2, 88253, Note_on_c, 0, 71, 0
2, 88479, Note_on_c, 0, 71, 88
2, 88491, Note_on_c, 0, 52, 69
2, 88494, Note_on_c, 0, 55, 0
2, 88498, Control_c, 0, 64, 84
2, 88518, Control_c, 0, 64, 62
2, 88536, Control_c, 0, 64, 0
2, 88545, Note_on_c, 0, 62, 0
2, 88575, Control_c, 0, 64, 27
2, 88595, Control_c, 0, 64, 58
2, 88613, Control_c, 0, 64, 69
2, 88633, Control_c, 0, 64, 81
2, 88652, Control_c, 0, 64, 111
2, 88671, Control_c, 0, 64, 127
2, 88739, Note_on_c, 0, 71, 0
2, 88791, Note_on_c, 0, 69, 86
2, 88809, Note_on_c, 0, 52, 0
2, 88809, Note_on_c, 0, 57, 61
2, 88809, Note_on_c, 0, 61, 68
2, 88824, Control_c, 0, 64, 119
2, 88844, Control_c, 0, 64, 82
2, 88863, Control_c, 0, 64, 64
2, 88882, Control_c, 0, 64, 0
2, 89055, Control_c, 0, 64, 36
2, 89075, Control_c, 0, 64, 55
2, 89093, Control_c, 0, 64, 62
2, 89113, Control_c, 0, 64, 65
2, 89132, Control_c, 0, 64, 67
2, 89151, Control_c, 0, 64, 72
2, 89170, Control_c, 0, 64, 80
2, 89190, Control_c, 0, 64, 92
2, 89209, Control_c, 0, 64, 108
2, 89228, Control_c, 0, 64, 127
2, 89478, Note_on_c, 0, 61, 0
2, 89708, Note_on_c, 0, 67, 78
2, 89736, Note_on_c, 0, 45, 56
2, 89805, Note_on_c, 0, 69, 0
2, 89900, Control_c, 0, 64, 97
2, 89919, Control_c, 0, 64, 80
2, 89938, Control_c, 0, 64, 67
2, 89958, Control_c, 0, 64, 54
2, 89976, Control_c, 0, 64, 0
2, 89999, Note_on_c, 0, 45, 0
2, 90014, Note_on_c, 0, 66, 69
2, 90040, Note_on_c, 0, 50, 50
2, 90042, Note_on_c, 0, 62, 49
2, 90043, Note_on_c, 0, 57, 0
2, 90105, Note_on_c, 0, 67, 0
2, 90185, Control_c, 0, 64, 13
2, 90205, Control_c, 0, 64, 47
2, 90224, Control_c, 0, 64, 60
2, 90244, Control_c, 0, 64, 64
2, 90262, Control_c, 0, 64, 65
2, 90282, Control_c, 0, 64, 66
2, 90301, Control_c, 0, 64, 69
2, 90321, Control_c, 0, 64, 73
2, 90339, Control_c, 0, 64, 81
2, 90359, Control_c, 0, 64, 89
2, 90378, Control_c, 0, 64, 96
2, 90397, Control_c, 0, 64, 109
2, 90416, Control_c, 0, 64, 127
2, 90581, Note_on_c, 0, 62, 0
2, 90973, Control_c, 0, 64, 78
2, 90993, Control_c, 0, 64, 59
2, 90995, Note_on_c, 0, 50, 0
2, 90996, Note_on_c, 0, 68, 86
2, 91000, Note_on_c, 0, 52, 61
2, 91011, Control_c, 0, 64, 37
2, 91031, Control_c, 0, 64, 53
2, 91042, Note_on_c, 0, 66, 0
2, 91050, Control_c, 0, 64, 63
2, 91069, Control_c, 0, 64, 68
2, 91087, Control_c, 0, 64, 81
2, 91106, Control_c, 0, 64, 127
2, 91198, Note_on_c, 0, 68, 0
2, 91261, Note_on_c, 0, 54, 66
2, 91261, Note_on_c, 0, 69, 83
2, 91265, Note_on_c, 0, 61, 61
2, 91276, Note_on_c, 0, 52, 0
2, 91357, Control_c, 0, 64, 106
2, 91376, Control_c, 0, 64, 78
2, 91396, Control_c, 0, 64, 60
2, 91397, Note_on_c, 0, 71, 82
2, 91415, Control_c, 0, 64, 0
2, 91527, Note_on_c, 0, 73, 84
2, 91538, Note_on_c, 0, 71, 0
2, 91638, Note_on_c, 0, 74, 76
2, 91656, Note_on_c, 0, 73, 0
2, 91758, Note_on_c, 0, 73, 80
2, 91762, Note_on_c, 0, 74, 0
2, 91875, Note_on_c, 0, 71, 76
2, 91877, Note_on_c, 0, 73, 0
2, 91928, Note_on_c, 0, 69, 0
2, 91960, Note_on_c, 0, 61, 0
2, 91983, Note_on_c, 0, 52, 63
2, 91991, Note_on_c, 0, 73, 83
2, 92005, Note_on_c, 0, 71, 0
2, 92006, Note_on_c, 0, 54, 0
2, 92094, Note_on_c, 0, 69, 77
2, 92120, Note_on_c, 0, 73, 0
2, 92245, Note_on_c, 0, 52, 0
2, 92255, Note_on_c, 0, 78, 91
2, 92263, Note_on_c, 0, 50, 62
2, 92276, Note_on_c, 0, 59, 58
2, 92529, Control_c, 0, 64, 36
2, 92549, Control_c, 0, 64, 50
2, 92568, Control_c, 0, 64, 56
2, 92586, Control_c, 0, 64, 59
2, 92606, Control_c, 0, 64, 61
2, 92625, Control_c, 0, 64, 62
2, 92645, Control_c, 0, 64, 63
2, 92663, Control_c, 0, 64, 65
2, 92683, Control_c, 0, 64, 66
2, 92702, Control_c, 0, 64, 68
2, 92721, Control_c, 0, 64, 73
2, 92740, Control_c, 0, 64, 80
2, 92760, Control_c, 0, 64, 91
2, 92779, Control_c, 0, 64, 109
2, 92798, Control_c, 0, 64, 127
2, 92977, Note_on_c, 0, 78, 0
2, 93222, Note_on_c, 0, 78, 90
2, 93229, Note_on_c, 0, 47, 72
2, 93231, Note_on_c, 0, 50, 0
2, 93241, Control_c, 0, 64, 96
2, 93260, Control_c, 0, 64, 67
2, 93273, Note_on_c, 0, 69, 0
2, 93279, Control_c, 0, 64, 0
2, 93336, Control_c, 0, 64, 54
2, 93356, Control_c, 0, 64, 66
2, 93375, Control_c, 0, 64, 77
2, 93395, Control_c, 0, 64, 103
2, 93413, Control_c, 0, 64, 127
2, 93422, Note_on_c, 0, 78, 0
2, 93512, Note_on_c, 0, 76, 90
2, 93537, Note_on_c, 0, 52, 62
2, 93540, Note_on_c, 0, 68, 62
2, 93545, Note_on_c, 0, 47, 0
2, 93547, Control_c, 0, 64, 102
2, 93567, Control_c, 0, 64, 69
2, 93586, Control_c, 0, 64, 9
2, 93606, Control_c, 0, 64, 0
2, 93759, Control_c, 0, 64, 43
2, 93778, Control_c, 0, 64, 60
2, 93798, Control_c, 0, 64, 65
2, 93816, Control_c, 0, 64, 69
2, 93836, Control_c, 0, 64, 76
2, 93855, Control_c, 0, 64, 89
2, 93875, Control_c, 0, 64, 127
2, 93881, Note_on_c, 0, 68, 0
2, 94005, Note_on_c, 0, 59, 0
2, 94053, Note_on_c, 0, 76, 0
2, 94447, Note_on_c, 0, 74, 66
2, 94636, Note_on_c, 0, 52, 0
2, 94716, Note_on_c, 0, 74, 0
2, 94740, Note_on_c, 0, 73, 61
2, 94750, Note_on_c, 0, 45, 37
2, 94767, Note_on_c, 0, 69, 49
2, 94776, Control_c, 0, 64, 88
2, 94791, Note_on_c, 0, 57, 32
2, 94796, Control_c, 0, 64, 66
2, 94815, Control_c, 0, 64, 19
2, 94835, Control_c, 0, 64, 0
2, 94899, Note_on_c, 0, 57, 0
2, 94969, Control_c, 0, 64, 19
2, 94987, Control_c, 0, 64, 48
2, 95007, Control_c, 0, 64, 60
2, 95026, Control_c, 0, 64, 65
2, 95046, Control_c, 0, 64, 69
2, 95064, Control_c, 0, 64, 76
2, 95084, Control_c, 0, 64, 97
2, 95103, Control_c, 0, 64, 127
2, 95175, Note_on_c, 0, 69, 0
2, 95234, Note_on_c, 0, 73, 0
2, 95310, Note_on_c, 0, 45, 0
2, 95704, Note_on_c, 0, 76, 88
2, 95823, Note_on_c, 0, 78, 84
2, 95869, Note_on_c, 0, 76, 0
2, 95936, Note_on_c, 0, 79, 83
2, 95980, Note_on_c, 0, 78, 0
2, 96056, Note_on_c, 0, 81, 90
2, 96062, Note_on_c, 0, 79, 0
2, 96063, Control_c, 0, 64, 82
2, 96070, Note_on_c, 0, 73, 76
2, 96079, Note_on_c, 0, 66, 69
2, 96082, Control_c, 0, 64, 60
2, 96101, Control_c, 0, 64, 0
2, 96178, Control_c, 0, 64, 26
2, 96191, Note_on_c, 0, 67, 69
2, 96192, Note_on_c, 0, 66, 0
2, 96198, Control_c, 0, 64, 53
2, 96216, Control_c, 0, 64, 61
2, 96236, Control_c, 0, 64, 63
2, 96310, Note_on_c, 0, 69, 76
2, 96313, Control_c, 0, 64, 62
2, 96314, Note_on_c, 0, 67, 0
2, 96332, Control_c, 0, 64, 59
2, 96351, Control_c, 0, 64, 50
2, 96370, Control_c, 0, 64, 0
2, 96393, Note_on_c, 0, 69, 0
2, 96409, Note_on_c, 0, 71, 78
2, 96516, Note_on_c, 0, 69, 80
2, 96520, Note_on_c, 0, 71, 0
2, 96524, Control_c, 0, 64, 36
2, 96542, Note_on_c, 0, 81, 0
2, 96543, Control_c, 0, 64, 58
2, 96562, Control_c, 0, 64, 65
2, 96581, Control_c, 0, 64, 71
2, 96601, Control_c, 0, 64, 78
2, 96620, Control_c, 0, 64, 88
2, 96635, Note_on_c, 0, 69, 0
2, 96636, Note_on_c, 0, 67, 75
2, 96639, Control_c, 0, 64, 101
2, 96658, Control_c, 0, 64, 127
2, 96715, Note_on_c, 0, 73, 0
2, 96735, Note_on_c, 0, 67, 0
2, 96747, Note_on_c, 0, 81, 91
2, 96755, Note_on_c, 0, 69, 81
2, 96876, Note_on_c, 0, 69, 0
2, 96881, Note_on_c, 0, 66, 68
2, 96900, Note_on_c, 0, 81, 0
2, 97014, Note_on_c, 0, 66, 0
2, 97021, Control_c, 0, 64, 93
2, 97023, Note_on_c, 0, 81, 94
2, 97041, Control_c, 0, 64, 72
2, 97041, Note_on_c, 0, 74, 72
2, 97045, Note_on_c, 0, 71, 69
2, 97059, Control_c, 0, 64, 50
2, 97079, Control_c, 0, 64, 0
2, 97290, Control_c, 0, 64, 33
2, 97310, Control_c, 0, 64, 54
2, 97328, Control_c, 0, 64, 62
2, 97347, Control_c, 0, 64, 64
2, 97367, Control_c, 0, 64, 66
2, 97385, Control_c, 0, 64, 69
2, 97405, Control_c, 0, 64, 79
2, 97424, Control_c, 0, 64, 102
2, 97444, Control_c, 0, 64, 127
2, 97456, Note_on_c, 0, 74, 0
2, 97597, Note_on_c, 0, 71, 0
2, 97704, Note_on_c, 0, 81, 0
2, 97846, Note_on_c, 0, 74, 80
2, 97961, Note_on_c, 0, 76, 83
2, 97994, Note_on_c, 0, 74, 0
2, 98070, Note_on_c, 0, 78, 87
2, 98097, Note_on_c, 0, 76, 0
2, 98147, Note_on_c, 0, 78, 0
2, 98154, Control_c, 0, 64, 109
2, 98173, Control_c, 0, 64, 85
2, 98193, Control_c, 0, 64, 67
2, 98195, Note_on_c, 0, 79, 93
2, 98210, Note_on_c, 0, 64, 70
2, 98210, Note_on_c, 0, 74, 77
2, 98211, Control_c, 0, 64, 24
2, 98231, Control_c, 0, 64, 0
2, 98330, Note_on_c, 0, 66, 75
2, 98345, Note_on_c, 0, 64, 0
2, 98365, Control_c, 0, 64, 23
2, 98384, Control_c, 0, 64, 28
2, 98422, Control_c, 0, 64, 23
2, 98442, Control_c, 0, 64, 0
2, 98445, Note_on_c, 0, 67, 73
2, 98454, Note_on_c, 0, 66, 0
2, 98546, Note_on_c, 0, 67, 0
2, 98556, Note_on_c, 0, 69, 77
2, 98676, Note_on_c, 0, 67, 77
2, 98678, Note_on_c, 0, 69, 0
2, 98698, Note_on_c, 0, 79, 0
2, 98787, Control_c, 0, 64, 27
2, 98790, Note_on_c, 0, 67, 0
2, 98798, Note_on_c, 0, 66, 73
2, 98807, Control_c, 0, 64, 48
2, 98826, Control_c, 0, 64, 58
2, 98846, Control_c, 0, 64, 62
2, 98865, Control_c, 0, 64, 63
2, 98885, Control_c, 0, 64, 65
2, 98903, Control_c, 0, 64, 67
2, 98913, Note_on_c, 0, 66, 0
2, 98913, Note_on_c, 0, 67, 77
2, 98913, Note_on_c, 0, 79, 92
2, 98923, Control_c, 0, 64, 74
2, 98942, Control_c, 0, 64, 82
2, 98961, Control_c, 0, 64, 86
2, 98980, Control_c, 0, 64, 87
2, 99000, Control_c, 0, 64, 89
2, 99019, Control_c, 0, 64, 93
2, 99036, Note_on_c, 0, 67, 0
2, 99038, Control_c, 0, 64, 99
2, 99041, Note_on_c, 0, 64, 74
2, 99044, Note_on_c, 0, 79, 0
2, 99057, Control_c, 0, 64, 109
2, 99077, Control_c, 0, 64, 127
2, 99156, Note_on_c, 0, 64, 0
2, 99201, Note_on_c, 0, 79, 88
2, 99211, Control_c, 0, 64, 107
2, 99211, Note_on_c, 0, 73, 77
2, 99213, Note_on_c, 0, 69, 69
2, 99231, Control_c, 0, 64, 83
2, 99235, Note_on_c, 0, 74, 0
2, 99249, Control_c, 0, 64, 63
2, 99268, Control_c, 0, 64, 0
2, 99422, Control_c, 0, 64, 15
2, 99441, Control_c, 0, 64, 44
2, 99460, Control_c, 0, 64, 59
2, 99480, Control_c, 0, 64, 64
2, 99499, Control_c, 0, 64, 66
2, 99518, Control_c, 0, 64, 68
2, 99537, Control_c, 0, 64, 71
2, 99557, Control_c, 0, 64, 79
2, 99576, Control_c, 0, 64, 91
2, 99595, Control_c, 0, 64, 116
2, 99614, Control_c, 0, 64, 127
2, 99633, Note_on_c, 0, 69, 0
2, 99722, Note_on_c, 0, 79, 0
2, 100108, Note_on_c, 0, 76, 87
2, 100114, Control_c, 0, 64, 92
2, 100121, Note_on_c, 0, 73, 0
2, 100132, Control_c, 0, 64, 65
2, 100152, Control_c, 0, 64, 0
2, 100191, Control_c, 0, 64, 20
2, 100209, Control_c, 0, 64, 56
2, 100228, Control_c, 0, 64, 65
2, 100233, Note_on_c, 0, 74, 83
2, 100248, Control_c, 0, 64, 71
2, 100266, Control_c, 0, 64, 80
2, 100270, Note_on_c, 0, 76, 0
2, 100286, Control_c, 0, 64, 95
2, 100305, Control_c, 0, 64, 127
2, 100342, Note_on_c, 0, 73, 91
2, 100384, Note_on_c, 0, 74, 0
2, 100478, Note_on_c, 0, 69, 82
2, 100487, Note_on_c, 0, 78, 89
2, 100498, Note_on_c, 0, 74, 78
2, 100502, Note_on_c, 0, 38, 83
2, 100527, Note_on_c, 0, 73, 0
2, 100536, Control_c, 0, 64, 77
2, 100555, Control_c, 0, 64, 49
2, 100574, Control_c, 0, 64, 0
2, 100615, Note_on_c, 0, 40, 76
2, 100631, Note_on_c, 0, 38, 0
2, 100736, Note_on_c, 0, 42, 80
2, 100745, Note_on_c, 0, 40, 0
2, 100803, Control_c, 0, 64, 48
2, 100822, Control_c, 0, 64, 63
2, 100837, Note_on_c, 0, 42, 0
2, 100841, Control_c, 0, 64, 70
2, 100841, Note_on_c, 0, 43, 77
2, 100861, Control_c, 0, 64, 82
2, 100879, Control_c, 0, 64, 113
2, 100899, Control_c, 0, 64, 127
2, 100904, Note_on_c, 0, 69, 0
2, 100904, Note_on_c, 0, 78, 0
2, 100907, Note_on_c, 0, 74, 0
2, 100950, Note_on_c, 0, 42, 84
2, 100958, Note_on_c, 0, 43, 0
2, 101049, Note_on_c, 0, 42, 0
2, 101053, Note_on_c, 0, 40, 77
2, 101167, Control_c, 0, 64, 80
2, 101176, Note_on_c, 0, 42, 80
2, 101177, Note_on_c, 0, 40, 0
2, 101184, Control_c, 0, 64, 53
2, 101202, Note_on_c, 0, 76, 93
2, 101203, Control_c, 0, 64, 0
2, 101205, Note_on_c, 0, 73, 84
2, 101211, Note_on_c, 0, 67, 80
2, 101261, Control_c, 0, 64, 57
2, 101280, Control_c, 0, 64, 68
2, 101299, Control_c, 0, 64, 79
2, 101314, Note_on_c, 0, 38, 82
2, 101318, Control_c, 0, 64, 104
2, 101326, Note_on_c, 0, 42, 0
2, 101330, Note_on_c, 0, 67, 0
2, 101338, Control_c, 0, 64, 127
2, 101364, Note_on_c, 0, 76, 0
2, 101510, Note_on_c, 0, 74, 88
2, 101519, Note_on_c, 0, 47, 77
2, 101519, Note_on_c, 0, 71, 79
2, 101522, Note_on_c, 0, 66, 82
2, 101530, Control_c, 0, 64, 117
2, 101547, Note_on_c, 0, 73, 0
2, 101549, Control_c, 0, 64, 77
2, 101568, Control_c, 0, 64, 54
2, 101568, Note_on_c, 0, 38, 0
2, 101587, Control_c, 0, 64, 0
2, 101797, Control_c, 0, 64, 42
2, 101817, Control_c, 0, 64, 58
2, 101835, Control_c, 0, 64, 63
2, 101855, Control_c, 0, 64, 65
2, 101874, Control_c, 0, 64, 69
2, 101894, Control_c, 0, 64, 79
2, 101912, Control_c, 0, 64, 104
2, 101932, Control_c, 0, 64, 127
2, 102095, Note_on_c, 0, 74, 0
2, 102120, Note_on_c, 0, 66, 0
2, 102150, Note_on_c, 0, 47, 0
2, 102440, Note_on_c, 0, 76, 90
2, 102451, Note_on_c, 0, 67, 76
2, 102451, Note_on_c, 0, 71, 0
2, 102464, Note_on_c, 0, 47, 72
2, 102520, Note_on_c, 0, 67, 0
2, 102620, Note_on_c, 0, 76, 0
2, 102646, Note_on_c, 0, 47, 0
2, 102753, Note_on_c, 0, 73, 93
2, 102756, Note_on_c, 0, 45, 76
2, 102762, Note_on_c, 0, 69, 76
2, 102770, Note_on_c, 0, 64, 74
2, 102795, Control_c, 0, 64, 105
2, 102815, Control_c, 0, 64, 70
2, 102834, Control_c, 0, 64, 0
2, 103006, Control_c, 0, 64, 18
2, 103026, Control_c, 0, 64, 54
2, 103045, Control_c, 0, 64, 65
2, 103065, Control_c, 0, 64, 71
2, 103083, Control_c, 0, 64, 83
2, 103103, Control_c, 0, 64, 127
2, 103482, Note_on_c, 0, 73, 0
2, 103679, Control_c, 0, 64, 74
2, 103698, Control_c, 0, 64, 41
2, 103711, Note_on_c, 0, 43, 58
2, 103714, Note_on_c, 0, 73, 89
2, 103717, Control_c, 0, 64, 0
2, 103739, Note_on_c, 0, 45, 0
2, 103765, Note_on_c, 0, 69, 0
2, 103775, Control_c, 0, 64, 52
2, 103794, Control_c, 0, 64, 67
2, 103814, Control_c, 0, 64, 77
2, 103832, Control_c, 0, 64, 96
2, 103852, Control_c, 0, 64, 127
2, 103878, Note_on_c, 0, 64, 0
2, 103942, Note_on_c, 0, 73, 0
2, 104216, Note_on_c, 0, 43, 0
2, 104231, Note_on_c, 0, 73, 59
2, 104235, Note_on_c, 0, 42, 42
2, 104250, Note_on_c, 0, 69, 55
2, 104251, Note_on_c, 0, 62, 42
2, 104255, Control_c, 0, 64, 114
2, 104274, Control_c, 0, 64, 86
2, 104294, Control_c, 0, 64, 70
2, 104312, Control_c, 0, 64, 51
2, 104332, Control_c, 0, 64, 0
2, 104508, Control_c, 0, 64, 35
2, 104526, Control_c, 0, 64, 59
2, 104546, Control_c, 0, 64, 68
2, 104565, Control_c, 0, 64, 79
2, 104584, Control_c, 0, 64, 96
2, 104603, Control_c, 0, 64, 127
2, 104777, Note_on_c, 0, 42, 0
2, 104946, Note_on_c, 0, 62, 0
2, 105083, Note_on_c, 0, 69, 0
2, 105238, Note_on_c, 0, 50, 51
2, 105276, Note_on_c, 0, 73, 0
2, 105344, Note_on_c, 0, 50, 0
2, 105357, Note_on_c, 0, 52, 60
2, 105457, Note_on_c, 0, 52, 0
2, 105465, Note_on_c, 0, 54, 64
2, 105581, Note_on_c, 0, 54, 0
2, 105584, Control_c, 0, 64, 105
2, 105603, Control_c, 0, 64, 89
2, 105608, Note_on_c, 0, 62, 42
2, 105620, Note_on_c, 0, 71, 64
2, 105622, Control_c, 0, 64, 75
2, 105629, Note_on_c, 0, 55, 37
2, 105641, Control_c, 0, 64, 65
2, 105661, Control_c, 0, 64, 50
2, 105679, Control_c, 0, 64, 27
2, 105698, Control_c, 0, 64, 0
2, 105726, Note_on_c, 0, 73, 68
2, 105853, Note_on_c, 0, 74, 73
2, 105873, Note_on_c, 0, 73, 0
2, 105973, Note_on_c, 0, 76, 75
2, 105978, Note_on_c, 0, 74, 0
2, 106095, Note_on_c, 0, 74, 74
2, 106096, Note_on_c, 0, 76, 0
2, 106210, Note_on_c, 0, 74, 0
2, 106216, Note_on_c, 0, 73, 73
2, 106279, Note_on_c, 0, 71, 0
2, 106327, Note_on_c, 0, 62, 0
2, 106328, Note_on_c, 0, 73, 0
2, 106331, Note_on_c, 0, 54, 59
2, 106334, Note_on_c, 0, 55, 0
2, 106338, Note_on_c, 0, 74, 68
2, 106388, Note_on_c, 0, 74, 0
2, 106441, Note_on_c, 0, 71, 55
2, 106602, Note_on_c, 0, 54, 0
2, 106625, Note_on_c, 0, 79, 67
2, 106646, Note_on_c, 0, 61, 30
2, 106909, Control_c, 0, 64, 18
2, 106928, Control_c, 0, 64, 51
2, 106947, Control_c, 0, 64, 63
2, 106967, Control_c, 0, 64, 66
2, 106986, Control_c, 0, 64, 68
2, 107005, Control_c, 0, 64, 75
2, 107024, Control_c, 0, 64, 90
2, 107044, Control_c, 0, 64, 127
2, 107201, Note_on_c, 0, 79, 0
2, 107446, Note_on_c, 0, 79, 67
2, 107460, Note_on_c, 0, 71, 0
2, 107468, Note_on_c, 0, 49, 41
2, 107696, Control_c, 0, 64, 110
2, 107716, Control_c, 0, 64, 95
2, 107735, Control_c, 0, 64, 80
2, 107754, Control_c, 0, 64, 69
2, 107762, Note_on_c, 0, 78, 61
2, 107773, Control_c, 0, 64, 56
2, 107776, Note_on_c, 0, 54, 39
2, 107778, Note_on_c, 0, 49, 0
2, 107780, Note_on_c, 0, 70, 43
2, 107793, Control_c, 0, 64, 0
2, 107833, Note_on_c, 0, 79, 0
2, 107927, Control_c, 0, 64, 36
2, 107946, Control_c, 0, 64, 57
2, 107965, Control_c, 0, 64, 64
2, 107984, Control_c, 0, 64, 66
2, 108004, Control_c, 0, 64, 70
2, 108022, Control_c, 0, 64, 78
2, 108042, Control_c, 0, 64, 90
2, 108061, Control_c, 0, 64, 105
2, 108081, Control_c, 0, 64, 127
2, 108339, Note_on_c, 0, 61, 0
2, 108384, Note_on_c, 0, 54, 0
2, 108480, Note_on_c, 0, 70, 0
2, 108672, Note_on_c, 0, 76, 55
2, 108699, Note_on_c, 0, 78, 0
2, 108941, Note_on_c, 0, 76, 0
2, 108944, Control_c, 0, 64, 106
2, 108952, Note_on_c, 0, 47, 50
2, 108964, Control_c, 0, 64, 81
2, 108966, Note_on_c, 0, 74, 47
2, 108982, Control_c, 0, 64, 66
2, 108989, Note_on_c, 0, 59, 38
2, 108992, Note_on_c, 0, 71, 41
2, 109002, Control_c, 0, 64, 43
2, 109021, Control_c, 0, 64, 0
2, 109066, Note_on_c, 0, 49, 56
2, 109097, Note_on_c, 0, 47, 0
2, 109186, Note_on_c, 0, 50, 59
2, 109211, Note_on_c, 0, 49, 0
2, 109293, Note_on_c, 0, 50, 0
2, 109307, Note_on_c, 0, 52, 62
2, 109433, Note_on_c, 0, 52, 0
2, 109446, Note_on_c, 0, 50, 67
2, 109495, Note_on_c, 0, 71, 0
2, 109540, Note_on_c, 0, 50, 0
2, 109556, Note_on_c, 0, 74, 0
2, 109557, Note_on_c, 0, 49, 63
2, 109686, Note_on_c, 0, 49, 0
2, 109693, Note_on_c, 0, 50, 62
2, 109769, Note_on_c, 0, 50, 0
2, 109863, Note_on_c, 0, 47, 12
2, 110039, Note_on_c, 0, 83, 56
2, 110042, Note_on_c, 0, 56, 44
2, 110048, Note_on_c, 0, 47, 0
2, 110154, Control_c, 0, 64, 29
2, 110173, Control_c, 0, 64, 53
2, 110193, Control_c, 0, 64, 61
2, 110211, Control_c, 0, 64, 63
2, 110230, Control_c, 0, 64, 63
2, 110250, Control_c, 0, 64, 64
2, 110270, Control_c, 0, 64, 67
2, 110277, Note_on_c, 0, 59, 0
2, 110289, Control_c, 0, 64, 72
2, 110308, Control_c, 0, 64, 80
2, 110330, Control_c, 0, 64, 88
2, 110331, Note_on_c, 0, 83, 0
2, 110341, Note_on_c, 0, 81, 56
2, 110348, Control_c, 0, 64, 94
2, 110368, Control_c, 0, 64, 101
2, 110387, Control_c, 0, 64, 127
2, 110513, Note_on_c, 0, 56, 0
2, 110579, Control_c, 0, 64, 104
2, 110599, Control_c, 0, 64, 81
2, 110605, Note_on_c, 0, 83, 63
2, 110616, Note_on_c, 0, 81, 0
2, 110617, Control_c, 0, 64, 65
2, 110637, Control_c, 0, 64, 52
2, 110656, Control_c, 0, 64, 53
2, 110676, Control_c, 0, 64, 60
2, 110694, Control_c, 0, 64, 63
2, 110714, Control_c, 0, 64, 64
2, 110733, Control_c, 0, 64, 66
2, 110752, Control_c, 0, 64, 71
2, 110771, Control_c, 0, 64, 80
2, 110790, Control_c, 0, 64, 96
2, 110810, Control_c, 0, 64, 108
2, 110828, Control_c, 0, 64, 109
2, 110867, Control_c, 0, 64, 111
2, 110886, Control_c, 0, 64, 127
2, 110886, Note_on_c, 0, 80, 66
2, 110913, Note_on_c, 0, 83, 0
2, 110974, Note_on_c, 0, 80, 0
2, 111136, Control_c, 0, 64, 102
2, 111156, Control_c, 0, 64, 85
2, 111171, Note_on_c, 0, 80, 55
2, 111174, Control_c, 0, 64, 67
2, 111179, Note_on_c, 0, 71, 36
2, 111194, Control_c, 0, 64, 53
2, 111195, Note_on_c, 0, 74, 22
2, 111211, Control_c, 0, 64, 38
2, 111230, Control_c, 0, 64, 48
2, 111249, Control_c, 0, 64, 58
2, 111268, Control_c, 0, 64, 62
2, 111288, Control_c, 0, 64, 64
2, 111306, Control_c, 0, 64, 66
2, 111326, Control_c, 0, 64, 69
2, 111345, Control_c, 0, 64, 73
2, 111365, Control_c, 0, 64, 79
2, 111383, Control_c, 0, 64, 87
2, 111403, Control_c, 0, 64, 94
2, 111422, Control_c, 0, 64, 101
2, 111423, Note_on_c, 0, 71, 0
2, 111425, Note_on_c, 0, 74, 0
2, 111441, Control_c, 0, 64, 111
2, 111460, Control_c, 0, 64, 127
2, 111460, Note_on_c, 0, 78, 58
2, 111499, Note_on_c, 0, 80, 0
2, 111595, Control_c, 0, 64, 117
2, 111614, Control_c, 0, 64, 105
2, 111634, Control_c, 0, 64, 96
2, 111652, Control_c, 0, 64, 87
2, 111672, Control_c, 0, 64, 78
2, 111691, Control_c, 0, 64, 69
2, 111710, Control_c, 0, 64, 56
2, 111728, Note_on_c, 0, 78, 0
2, 111729, Control_c, 0, 64, 18
2, 111748, Control_c, 0, 64, 0
2, 111748, Note_on_c, 0, 80, 56
2, 111863, Control_c, 0, 64, 26
2, 111883, Control_c, 0, 64, 44
2, 111902, Control_c, 0, 64, 56
2, 111921, Control_c, 0, 64, 61
2, 111940, Control_c, 0, 64, 63
2, 111960, Control_c, 0, 64, 65
2, 111979, Control_c, 0, 64, 67
2, 111983, Note_on_c, 0, 80, 0
2, 111998, Control_c, 0, 64, 71
2, 112001, Note_on_c, 0, 76, 58
2, 112017, Control_c, 0, 64, 77
2, 112019, Note_on_c, 0, 68, 30
2, 112026, Note_on_c, 0, 71, 36
2, 112037, Control_c, 0, 64, 86
2, 112056, Control_c, 0, 64, 96
2, 112068, Note_on_c, 0, 71, 0
2, 112072, Note_on_c, 0, 68, 0
2, 112075, Control_c, 0, 64, 103
2, 112094, Control_c, 0, 64, 108
2, 112097, Note_on_c, 0, 76, 0
2, 112114, Control_c, 0, 64, 117
2, 112132, Control_c, 0, 64, 127
2, 112208, Control_c, 0, 64, 119
2, 112227, Control_c, 0, 64, 98
2, 112247, Control_c, 0, 64, 79
2, 112266, Control_c, 0, 64, 63
2, 112276, Note_on_c, 0, 76, 52
2, 112285, Control_c, 0, 64, 32
2, 112302, Note_on_c, 0, 68, 27
2, 112304, Control_c, 0, 64, 19
2, 112311, Note_on_c, 0, 71, 37
2, 112324, Control_c, 0, 64, 40
2, 112342, Control_c, 0, 64, 54
2, 112362, Control_c, 0, 64, 61
2, 112381, Control_c, 0, 64, 63
2, 112401, Control_c, 0, 64, 65
2, 112419, Control_c, 0, 64, 67
2, 112439, Control_c, 0, 64, 71
2, 112458, Control_c, 0, 64, 81
2, 112477, Control_c, 0, 64, 97
2, 112496, Control_c, 0, 64, 113
2, 112516, Control_c, 0, 64, 127
2, 112548, Note_on_c, 0, 76, 0
2, 112560, Note_on_c, 0, 74, 56
2, 112563, Note_on_c, 0, 71, 0
2, 112617, Note_on_c, 0, 68, 0
2, 112799, Note_on_c, 0, 74, 0
2, 112813, Note_on_c, 0, 76, 61
2, 112822, Control_c, 0, 64, 106
2, 112842, Control_c, 0, 64, 81
2, 112861, Control_c, 0, 64, 65
2, 112881, Control_c, 0, 64, 24
2, 112899, Control_c, 0, 64, 0
2, 112957, Control_c, 0, 64, 37
2, 112976, Control_c, 0, 64, 58
2, 112996, Control_c, 0, 64, 64
2, 113015, Control_c, 0, 64, 67
2, 113034, Control_c, 0, 64, 71
2, 113053, Control_c, 0, 64, 78
2, 113073, Control_c, 0, 64, 92
2, 113091, Control_c, 0, 64, 116
2, 113094, Note_on_c, 0, 73, 57
2, 113096, Note_on_c, 0, 76, 0
2, 113104, Note_on_c, 0, 64, 45
2, 113106, Note_on_c, 0, 69, 43
2, 113110, Control_c, 0, 64, 127
2, 113150, Note_on_c, 0, 64, 0
2, 113153, Note_on_c, 0, 69, 0
2, 113168, Note_on_c, 0, 73, 0
2, 113398, Control_c, 0, 64, 114
2, 113406, Note_on_c, 0, 45, 58
2, 113408, Note_on_c, 0, 73, 59
2, 113417, Control_c, 0, 64, 90
2, 113418, Note_on_c, 0, 69, 52
2, 113428, Note_on_c, 0, 64, 47
2, 113436, Control_c, 0, 64, 72
2, 113455, Control_c, 0, 64, 55
2, 113475, Control_c, 0, 64, 0
2, 113513, Note_on_c, 0, 47, 66
2, 113532, Note_on_c, 0, 45, 0
2, 113636, Note_on_c, 0, 49, 79
2, 113657, Note_on_c, 0, 47, 0
2, 113667, Note_on_c, 0, 64, 0
2, 113753, Note_on_c, 0, 50, 74
2, 113766, Note_on_c, 0, 49, 0
2, 113767, Note_on_c, 0, 69, 0
2, 113828, Note_on_c, 0, 73, 0
2, 113878, Note_on_c, 0, 49, 80
2, 113886, Note_on_c, 0, 50, 0
2, 114002, Note_on_c, 0, 47, 78
2, 114004, Note_on_c, 0, 49, 0
2, 114125, Note_on_c, 0, 49, 79
2, 114138, Note_on_c, 0, 47, 0
2, 114243, Note_on_c, 0, 49, 0
2, 114261, Note_on_c, 0, 45, 61
2, 114451, Note_on_c, 0, 54, 51
2, 114453, Note_on_c, 0, 81, 57
2, 114497, Note_on_c, 0, 45, 0
2, 114589, Control_c, 0, 64, 37
2, 114608, Control_c, 0, 64, 59
2, 114627, Control_c, 0, 64, 63
2, 114647, Control_c, 0, 64, 64
2, 114666, Control_c, 0, 64, 64
2, 114685, Control_c, 0, 64, 65
2, 114704, Control_c, 0, 64, 67
2, 114724, Control_c, 0, 64, 69
2, 114742, Control_c, 0, 64, 73
2, 114753, Note_on_c, 0, 79, 70
2, 114762, Control_c, 0, 64, 78
2, 114781, Control_c, 0, 64, 84
2, 114801, Control_c, 0, 64, 89
2, 114802, Note_on_c, 0, 81, 0
2, 114819, Control_c, 0, 64, 92
2, 114839, Control_c, 0, 64, 94
2, 114858, Control_c, 0, 64, 95
2, 114864, Note_on_c, 0, 54, 0
2, 114877, Control_c, 0, 64, 95
2, 114935, Control_c, 0, 64, 95
2, 114954, Control_c, 0, 64, 92
2, 114973, Control_c, 0, 64, 84
2, 114993, Control_c, 0, 64, 74
2, 115011, Control_c, 0, 64, 63
2, 115026, Note_on_c, 0, 81, 72
2, 115030, Control_c, 0, 64, 42
2, 115049, Note_on_c, 0, 79, 0
2, 115050, Control_c, 0, 64, 0
2, 115165, Control_c, 0, 64, 29
2, 115184, Control_c, 0, 64, 44
2, 115204, Control_c, 0, 64, 56
2, 115222, Control_c, 0, 64, 61
2, 115242, Control_c, 0, 64, 64
2, 115261, Control_c, 0, 64, 66
2, 115281, Control_c, 0, 64, 68
2, 115299, Control_c, 0, 64, 73
2, 115313, Note_on_c, 0, 78, 68
2, 115319, Control_c, 0, 64, 79
2, 115338, Control_c, 0, 64, 86
2, 115357, Control_c, 0, 64, 93
2, 115358, Note_on_c, 0, 81, 0
2, 115376, Control_c, 0, 64, 96
2, 115396, Control_c, 0, 64, 98
2, 115415, Control_c, 0, 64, 99
2, 115428, Note_on_c, 0, 78, 0
2, 115434, Control_c, 0, 64, 101
2, 115453, Control_c, 0, 64, 102
2, 115568, Control_c, 0, 64, 100
2, 115584, Note_on_c, 0, 72, 43
2, 115587, Control_c, 0, 64, 94
2, 115594, Note_on_c, 0, 78, 58
2, 115604, Note_on_c, 0, 69, 47
2, 115607, Control_c, 0, 64, 85
2, 115626, Control_c, 0, 64, 76
2, 115645, Control_c, 0, 64, 67
2, 115664, Control_c, 0, 64, 60
2, 115684, Control_c, 0, 64, 56
2, 115702, Control_c, 0, 64, 59
2, 115722, Control_c, 0, 64, 61
2, 115741, Control_c, 0, 64, 62
2, 115761, Control_c, 0, 64, 63
2, 115779, Control_c, 0, 64, 65
2, 115799, Control_c, 0, 64, 67
2, 115818, Control_c, 0, 64, 70
2, 115837, Control_c, 0, 64, 76
2, 115856, Control_c, 0, 64, 83
2, 115874, Note_on_c, 0, 76, 60
2, 115876, Control_c, 0, 64, 91
2, 115895, Control_c, 0, 64, 101
2, 115910, Note_on_c, 0, 72, 0
2, 115914, Control_c, 0, 64, 108
2, 115930, Note_on_c, 0, 78, 0
2, 115932, Note_on_c, 0, 69, 0
2, 115933, Control_c, 0, 64, 112
2, 116028, Control_c, 0, 64, 112
2, 116047, Control_c, 0, 64, 109
2, 116066, Control_c, 0, 64, 104
2, 116086, Control_c, 0, 64, 98
2, 116106, Control_c, 0, 64, 92
2, 116125, Control_c, 0, 64, 85
2, 116144, Control_c, 0, 64, 77
2, 116149, Note_on_c, 0, 78, 64
2, 116158, Note_on_c, 0, 76, 0
2, 116164, Control_c, 0, 64, 68
2, 116182, Control_c, 0, 64, 57
2, 116202, Control_c, 0, 64, 0
2, 116356, Control_c, 0, 64, 39
2, 116375, Control_c, 0, 64, 57
2, 116394, Control_c, 0, 64, 63
2, 116413, Control_c, 0, 64, 66
2, 116429, Note_on_c, 0, 78, 0
2, 116433, Control_c, 0, 64, 68
2, 116436, Note_on_c, 0, 74, 49
2, 116438, Note_on_c, 0, 66, 33
2, 116449, Note_on_c, 0, 69, 35
2, 116451, Control_c, 0, 64, 71
2, 116470, Control_c, 0, 64, 76
2, 116490, Control_c, 0, 64, 82
2, 116490, Note_on_c, 0, 66, 0
2, 116496, Note_on_c, 0, 69, 0
2, 116509, Control_c, 0, 64, 87
2, 116528, Control_c, 0, 64, 91
2, 116543, Note_on_c, 0, 74, 0
2, 116547, Control_c, 0, 64, 96
2, 116567, Control_c, 0, 64, 104
2, 116586, Control_c, 0, 64, 121
2, 116605, Control_c, 0, 64, 127
2, 116662, Control_c, 0, 64, 108
2, 116682, Control_c, 0, 64, 91
2, 116701, Control_c, 0, 64, 74
2, 116721, Control_c, 0, 64, 60
2, 116737, Note_on_c, 0, 69, 35
2, 116739, Control_c, 0, 64, 0
2, 116739, Note_on_c, 0, 74, 35
2, 116751, Note_on_c, 0, 66, 26
2, 116778, Control_c, 0, 64, 15
2, 116797, Control_c, 0, 64, 37
2, 116816, Control_c, 0, 64, 52
2, 116836, Control_c, 0, 64, 60
2, 116855, Control_c, 0, 64, 63
2, 116874, Control_c, 0, 64, 64
2, 116893, Control_c, 0, 64, 66
2, 116913, Control_c, 0, 64, 70
2, 116931, Control_c, 0, 64, 78
2, 116950, Control_c, 0, 64, 93
2, 116968, Control_c, 0, 64, 106
2, 116987, Control_c, 0, 64, 121
2, 117006, Control_c, 0, 64, 127
2, 117020, Note_on_c, 0, 72, 57
2, 117043, Note_on_c, 0, 74, 0
2, 117104, Note_on_c, 0, 69, 0
2, 117242, Note_on_c, 0, 66, 0
2, 117286, Note_on_c, 0, 72, 0
2, 117296, Control_c, 0, 64, 87
2, 117300, Note_on_c, 0, 74, 61
2, 117316, Control_c, 0, 64, 66
2, 117335, Control_c, 0, 64, 34
2, 117354, Control_c, 0, 64, 0
2, 117393, Control_c, 0, 64, 42
2, 117411, Control_c, 0, 64, 60
2, 117430, Control_c, 0, 64, 65
2, 117450, Control_c, 0, 64, 69
2, 117469, Control_c, 0, 64, 76
2, 117488, Control_c, 0, 64, 91
2, 117507, Control_c, 0, 64, 112
2, 117527, Control_c, 0, 64, 127
2, 117564, Note_on_c, 0, 71, 64
2, 117575, Note_on_c, 0, 67, 50
2, 117582, Note_on_c, 0, 62, 47
2, 117589, Note_on_c, 0, 74, 0
2, 117629, Note_on_c, 0, 67, 0
2, 117634, Note_on_c, 0, 62, 0
2, 117663, Note_on_c, 0, 71, 0
2, 117815, Control_c, 0, 64, 102
2, 117834, Control_c, 0, 64, 89
2, 117853, Control_c, 0, 64, 75
2, 117862, Note_on_c, 0, 43, 64
2, 117862, Note_on_c, 0, 71, 64
2, 117872, Control_c, 0, 64, 63
2, 117877, Note_on_c, 0, 67, 52
2, 117881, Note_on_c, 0, 62, 51
2, 117891, Control_c, 0, 64, 19
2, 117910, Control_c, 0, 64, 0
2, 117982, Note_on_c, 0, 45, 65
2, 118016, Note_on_c, 0, 43, 0
2, 118105, Note_on_c, 0, 47, 75
2, 118120, Note_on_c, 0, 45, 0
2, 118215, Note_on_c, 0, 47, 0
2, 118217, Note_on_c, 0, 48, 73
2, 118276, Note_on_c, 0, 62, 0
2, 118341, Note_on_c, 0, 47, 80
2, 118341, Note_on_c, 0, 48, 0
2, 118368, Note_on_c, 0, 67, 0
2, 118386, Note_on_c, 0, 71, 0
2, 118467, Note_on_c, 0, 45, 79
2, 118468, Note_on_c, 0, 47, 0
2, 118589, Note_on_c, 0, 47, 82
2, 118591, Note_on_c, 0, 45, 0
2, 118706, Note_on_c, 0, 47, 0
2, 118708, Note_on_c, 0, 43, 79
2, 118896, Note_on_c, 0, 52, 75
2, 118919, Note_on_c, 0, 67, 74
2, 118969, Note_on_c, 0, 43, 0
2, 119040, Note_on_c, 0, 69, 83
2, 119061, Note_on_c, 0, 67, 0
2, 119167, Note_on_c, 0, 71, 82
2, 119194, Note_on_c, 0, 69, 0
2, 119278, Note_on_c, 0, 72, 80
2, 119295, Note_on_c, 0, 71, 0
2, 119399, Note_on_c, 0, 71, 82
2, 119399, Note_on_c, 0, 72, 0
2, 119522, Note_on_c, 0, 69, 83
2, 119523, Note_on_c, 0, 71, 0
2, 119636, Note_on_c, 0, 71, 84
2, 119640, Note_on_c, 0, 50, 68
2, 119650, Note_on_c, 0, 52, 0
2, 119659, Note_on_c, 0, 69, 0
2, 119736, Note_on_c, 0, 71, 0
2, 119756, Note_on_c, 0, 67, 76
2, 119915, Note_on_c, 0, 67, 0
2, 119917, Note_on_c, 0, 76, 91
2, 119923, Note_on_c, 0, 48, 62
2, 119947, Note_on_c, 0, 50, 0
2, 120176, Control_c, 0, 64, 11
2, 120196, Control_c, 0, 64, 47
2, 120215, Control_c, 0, 64, 59
2, 120234, Control_c, 0, 64, 64
2, 120253, Control_c, 0, 64, 66
2, 120272, Control_c, 0, 64, 70
2, 120291, Control_c, 0, 64, 76
2, 120310, Control_c, 0, 64, 89
2, 120330, Control_c, 0, 64, 121
2, 120349, Control_c, 0, 64, 127
2, 120512, Note_on_c, 0, 76, 0
2, 120778, Note_on_c, 0, 76, 88
2, 121077, Note_on_c, 0, 74, 87
2, 121078, Note_on_c, 0, 48, 0
2, 121081, Note_on_c, 0, 50, 69
2, 121098, Control_c, 0, 64, 88
2, 121111, Note_on_c, 0, 76, 0
2, 121117, Control_c, 0, 64, 65
2, 121136, Control_c, 0, 64, 0
2, 121251, Control_c, 0, 64, 45
2, 121270, Control_c, 0, 64, 63
2, 121290, Control_c, 0, 64, 68
2, 121309, Control_c, 0, 64, 74
2, 121328, Control_c, 0, 64, 84
2, 121347, Control_c, 0, 64, 106
2, 121367, Control_c, 0, 64, 127
2, 121722, Note_on_c, 0, 50, 0
2, 121969, Note_on_c, 0, 72, 87
2, 122027, Note_on_c, 0, 74, 0
2, 122269, Note_on_c, 0, 55, 69
2, 122272, Note_on_c, 0, 71, 88
2, 122315, Note_on_c, 0, 72, 0
2, 122327, Control_c, 0, 64, 89
2, 122346, Control_c, 0, 64, 64
2, 122365, Control_c, 0, 64, 0
2, 122481, Control_c, 0, 64, 43
2, 122499, Control_c, 0, 64, 62
2, 122519, Control_c, 0, 64, 67
2, 122538, Control_c, 0, 64, 71
2, 122557, Control_c, 0, 64, 78
2, 122576, Control_c, 0, 64, 96
2, 122596, Control_c, 0, 64, 127
2, 123177, Note_on_c, 0, 73, 83
2, 123186, Note_on_c, 0, 71, 0
2, 123191, Note_on_c, 0, 57, 57
2, 123196, Note_on_c, 0, 55, 0
2, 123468, Note_on_c, 0, 59, 54
2, 123471, Note_on_c, 0, 74, 70
2, 123477, Note_on_c, 0, 62, 49
2, 123516, Control_c, 0, 64, 97
2, 123523, Note_on_c, 0, 73, 0
2, 123527, Note_on_c, 0, 57, 0
2, 123534, Control_c, 0, 64, 77
2, 123553, Control_c, 0, 64, 65
2, 123573, Control_c, 0, 64, 44
2, 123591, Control_c, 0, 64, 0
2, 123591, Note_on_c, 0, 64, 59
2, 123711, Note_on_c, 0, 64, 0
2, 123726, Note_on_c, 0, 66, 63
2, 123821, Note_on_c, 0, 66, 0
2, 123837, Note_on_c, 0, 67, 58
2, 123939, Note_on_c, 0, 67, 0
2, 123956, Note_on_c, 0, 66, 68
2, 124048, Note_on_c, 0, 66, 0
2, 124086, Note_on_c, 0, 64, 63
2, 124162, Note_on_c, 0, 64, 0
2, 124193, Note_on_c, 0, 62, 0
2, 124202, Note_on_c, 0, 59, 0
2, 124206, Note_on_c, 0, 66, 61
2, 124225, Note_on_c, 0, 57, 41
2, 124306, Note_on_c, 0, 66, 0
2, 124341, Note_on_c, 0, 62, 54
2, 124454, Note_on_c, 0, 62, 0
2, 124497, Note_on_c, 0, 71, 48
2, 124536, Note_on_c, 0, 57, 0
2, 124542, Note_on_c, 0, 55, 37
2, 124706, Control_c, 0, 64, 31
2, 124726, Control_c, 0, 64, 50
2, 124746, Control_c, 0, 64, 59
2, 124765, Control_c, 0, 64, 61
2, 124784, Control_c, 0, 64, 62
2, 124804, Control_c, 0, 64, 63
2, 124822, Control_c, 0, 64, 64
2, 124842, Control_c, 0, 64, 66
2, 124861, Control_c, 0, 64, 67
2, 124881, Control_c, 0, 64, 70
2, 124899, Control_c, 0, 64, 76
2, 124919, Control_c, 0, 64, 88
2, 124938, Control_c, 0, 64, 101
2, 124957, Control_c, 0, 64, 115
2, 124976, Control_c, 0, 64, 127
2, 125084, Note_on_c, 0, 71, 0
2, 125417, Note_on_c, 0, 71, 80
2, 125428, Note_on_c, 0, 52, 59
2, 125437, Note_on_c, 0, 55, 0
2, 125459, Note_on_c, 0, 74, 0
2, 125476, Control_c, 0, 64, 108
2, 125495, Control_c, 0, 64, 82
2, 125513, Control_c, 0, 64, 64
2, 125533, Control_c, 0, 64, 0
2, 125715, Note_on_c, 0, 52, 0
2, 125718, Note_on_c, 0, 71, 0
2, 125724, Note_on_c, 0, 73, 64
2, 125733, Note_on_c, 0, 69, 61
2, 125755, Note_on_c, 0, 57, 38
2, 125956, Control_c, 0, 64, 35
2, 125975, Control_c, 0, 64, 51
2, 125993, Control_c, 0, 64, 59
2, 126013, Control_c, 0, 64, 62
2, 126032, Control_c, 0, 64, 63
2, 126051, Control_c, 0, 64, 65
2, 126070, Control_c, 0, 64, 67
2, 126090, Control_c, 0, 64, 72
2, 126109, Control_c, 0, 64, 84
2, 126128, Control_c, 0, 64, 100
2, 126147, Control_c, 0, 64, 111
2, 126167, Control_c, 0, 64, 118
2, 126186, Control_c, 0, 64, 127
2, 126578, Note_on_c, 0, 57, 0
2, 126629, Note_on_c, 0, 45, 50
2, 126636, Note_on_c, 0, 69, 0
2, 126637, Note_on_c, 0, 67, 59
2, 126672, Note_on_c, 0, 73, 0
2, 126885, Note_on_c, 0, 45, 0
2, 126925, Note_on_c, 0, 47, 57
2, 126939, Note_on_c, 0, 74, 67
2, 126947, Note_on_c, 0, 67, 0
2, 126949, Note_on_c, 0, 66, 59
2, 126973, Control_c, 0, 64, 110
2, 126992, Control_c, 0, 64, 85
2, 127011, Control_c, 0, 64, 71
2, 127030, Control_c, 0, 64, 60
2, 127050, Control_c, 0, 64, 13
2, 127052, Note_on_c, 0, 49, 65
2, 127056, Note_on_c, 0, 47, 0
2, 127069, Control_c, 0, 64, 0
2, 127177, Note_on_c, 0, 50, 71
2, 127179, Note_on_c, 0, 49, 0
2, 127280, Note_on_c, 0, 50, 0
2, 127298, Note_on_c, 0, 52, 70
2, 127416, Note_on_c, 0, 52, 0
2, 127424, Note_on_c, 0, 50, 74
2, 127555, Note_on_c, 0, 50, 0
2, 127564, Note_on_c, 0, 66, 0
2, 127568, Note_on_c, 0, 49, 70
2, 127686, Note_on_c, 0, 49, 0
2, 127686, Note_on_c, 0, 50, 81
2, 127707, Note_on_c, 0, 69, 81
2, 127801, Note_on_c, 0, 50, 0
2, 127814, Note_on_c, 0, 47, 77
2, 127830, Note_on_c, 0, 69, 0
2, 127872, Note_on_c, 0, 74, 0
2, 127968, Note_on_c, 0, 59, 79
2, 127971, Note_on_c, 0, 74, 75
2, 128096, Note_on_c, 0, 76, 81
2, 128104, Control_c, 0, 64, 26
2, 128120, Note_on_c, 0, 47, 0
2, 128123, Control_c, 0, 64, 53
2, 128142, Control_c, 0, 64, 62
2, 128162, Control_c, 0, 64, 64
2, 128181, Control_c, 0, 64, 66
2, 128200, Control_c, 0, 64, 69
2, 128219, Control_c, 0, 64, 79
2, 128220, Note_on_c, 0, 78, 84
2, 128239, Control_c, 0, 64, 98
2, 128249, Note_on_c, 0, 76, 0
2, 128257, Control_c, 0, 64, 127
2, 128339, Note_on_c, 0, 79, 83
2, 128368, Note_on_c, 0, 78, 0
2, 128430, Control_c, 0, 64, 105
2, 128450, Control_c, 0, 64, 85
2, 128468, Control_c, 0, 64, 69
2, 128471, Note_on_c, 0, 78, 78
2, 128476, Note_on_c, 0, 79, 0
2, 128488, Control_c, 0, 64, 40
2, 128507, Control_c, 0, 64, 0
2, 128576, Note_on_c, 0, 76, 84
2, 128586, Note_on_c, 0, 74, 0
2, 128606, Note_on_c, 0, 78, 0
2, 128717, Note_on_c, 0, 78, 91
2, 128726, Note_on_c, 0, 57, 73
2, 128739, Note_on_c, 0, 59, 0
2, 128752, Note_on_c, 0, 76, 0
2, 128837, Note_on_c, 0, 74, 83
2, 128877, Note_on_c, 0, 78, 0
2, 129022, Note_on_c, 0, 83, 91
2, 129025, Note_on_c, 0, 55, 67
2, 129043, Note_on_c, 0, 57, 0
2, 129351, Control_c, 0, 64, 20
2, 129371, Control_c, 0, 64, 36
2, 129390, Control_c, 0, 64, 42
2, 129410, Control_c, 0, 64, 45
2, 129428, Control_c, 0, 64, 48
2, 129448, Control_c, 0, 64, 54
2, 129467, Control_c, 0, 64, 60
2, 129486, Control_c, 0, 64, 64
2, 129505, Control_c, 0, 64, 69
2, 129525, Control_c, 0, 64, 76
2, 129545, Control_c, 0, 64, 92
2, 129564, Control_c, 0, 64, 127
2, 129717, Note_on_c, 0, 83, 0
2, 129970, Note_on_c, 0, 83, 93
2, 129974, Note_on_c, 0, 52, 70
2, 129986, Note_on_c, 0, 55, 0
2, 130006, Control_c, 0, 64, 70
2, 130025, Control_c, 0, 64, 43
2, 130038, Note_on_c, 0, 74, 0
2, 130044, Control_c, 0, 64, 0
2, 130063, Control_c, 0, 64, 19
2, 130083, Control_c, 0, 64, 62
2, 130101, Control_c, 0, 64, 71
2, 130121, Control_c, 0, 64, 85
2, 130140, Control_c, 0, 64, 127
2, 130268, Note_on_c, 0, 81, 96
2, 130270, Note_on_c, 0, 83, 0
2, 130285, Note_on_c, 0, 57, 69
2, 130285, Note_on_c, 0, 72, 82
2, 130297, Note_on_c, 0, 52, 0
2, 130312, Control_c, 0, 64, 95
2, 130332, Control_c, 0, 64, 67
2, 130351, Control_c, 0, 64, 0
2, 130486, Control_c, 0, 64, 25
2, 130503, Control_c, 0, 64, 54
2, 130522, Control_c, 0, 64, 64
2, 130541, Control_c, 0, 64, 67
2, 130561, Control_c, 0, 64, 73
2, 130580, Control_c, 0, 64, 82
2, 130599, Control_c, 0, 64, 97
2, 130618, Control_c, 0, 64, 127
2, 130808, Note_on_c, 0, 81, 0
2, 131191, Note_on_c, 0, 79, 91
2, 131205, Note_on_c, 0, 45, 65
2, 131347, Control_c, 0, 64, 96
2, 131366, Control_c, 0, 64, 70
2, 131385, Control_c, 0, 64, 49
2, 131405, Control_c, 0, 64, 0
2, 131499, Note_on_c, 0, 45, 0
2, 131504, Note_on_c, 0, 78, 89
2, 131506, Note_on_c, 0, 50, 66
2, 131548, Note_on_c, 0, 79, 0
2, 131618, Control_c, 0, 64, 38
2, 131638, Control_c, 0, 64, 59
2, 131657, Control_c, 0, 64, 65
2, 131677, Control_c, 0, 64, 69
2, 131695, Control_c, 0, 64, 74
2, 131714, Control_c, 0, 64, 91
2, 131734, Control_c, 0, 64, 127
2, 131849, Note_on_c, 0, 57, 0
2, 131949, Note_on_c, 0, 50, 0
2, 132060, Note_on_c, 0, 78, 0
2, 132084, Note_on_c, 0, 72, 0
2, 132427, Note_on_c, 0, 74, 74
2, 132562, Note_on_c, 0, 76, 79
2, 132624, Note_on_c, 0, 74, 0
2, 132671, Note_on_c, 0, 78, 82
2, 132708, Note_on_c, 0, 76, 0
2, 132762, Note_on_c, 0, 78, 0
2, 132810, Note_on_c, 0, 79, 89
2, 132815, Note_on_c, 0, 71, 83
2, 132822, Note_on_c, 0, 52, 63
2, 132822, Note_on_c, 0, 55, 66
2, 132866, Control_c, 0, 64, 100
2, 132886, Control_c, 0, 64, 73
2, 132905, Control_c, 0, 64, 41
2, 132924, Control_c, 0, 64, 0
2, 132948, Note_on_c, 0, 57, 65
2, 133012, Note_on_c, 0, 55, 0
2, 133089, Note_on_c, 0, 59, 81
2, 133096, Note_on_c, 0, 57, 0
2, 133194, Note_on_c, 0, 59, 0
2, 133206, Note_on_c, 0, 60, 75
2, 133318, Note_on_c, 0, 60, 0
2, 133326, Note_on_c, 0, 59, 81
2, 133404, Control_c, 0, 64, 54
2, 133423, Control_c, 0, 64, 66
2, 133433, Note_on_c, 0, 79, 0
2, 133435, Note_on_c, 0, 59, 0
2, 133443, Control_c, 0, 64, 74
2, 133443, Note_on_c, 0, 57, 75
2, 133461, Control_c, 0, 64, 88
2, 133481, Control_c, 0, 64, 109
2, 133500, Control_c, 0, 64, 127
2, 133555, Note_on_c, 0, 57, 0
2, 133558, Control_c, 0, 64, 99
2, 133567, Note_on_c, 0, 59, 85
2, 133574, Note_on_c, 0, 79, 95
2, 133577, Control_c, 0, 64, 68
2, 133597, Control_c, 0, 64, 0
2, 133691, Note_on_c, 0, 59, 0
2, 133692, Control_c, 0, 64, 53
2, 133705, Note_on_c, 0, 55, 64
2, 133711, Control_c, 0, 64, 70
2, 133731, Control_c, 0, 64, 85
2, 133749, Control_c, 0, 64, 127
2, 133794, Note_on_c, 0, 71, 0
2, 133812, Note_on_c, 0, 79, 0
2, 133900, Note_on_c, 0, 79, 90
2, 133911, Note_on_c, 0, 60, 61
2, 133911, Note_on_c, 0, 64, 62
2, 133918, Note_on_c, 0, 69, 73
2, 133924, Note_on_c, 0, 55, 0
2, 133933, Note_on_c, 0, 52, 0
2, 133941, Control_c, 0, 64, 84
2, 133961, Control_c, 0, 64, 59
2, 133980, Control_c, 0, 64, 0
2, 134134, Control_c, 0, 64, 27
2, 134152, Control_c, 0, 64, 41
2, 134172, Control_c, 0, 64, 50
2, 134191, Control_c, 0, 64, 56
2, 134211, Control_c, 0, 64, 60
2, 134229, Control_c, 0, 64, 61
2, 134248, Control_c, 0, 64, 63
2, 134267, Control_c, 0, 64, 65
2, 134287, Control_c, 0, 64, 70
2, 134305, Control_c, 0, 64, 80
2, 134325, Control_c, 0, 64, 102
2, 134344, Control_c, 0, 64, 127
2, 134578, Note_on_c, 0, 64, 0
2, 134765, Note_on_c, 0, 79, 0
2, 134882, Control_c, 0, 64, 86
2, 134898, Note_on_c, 0, 60, 0
2, 134901, Control_c, 0, 64, 65
2, 134903, Note_on_c, 0, 81, 95
2, 134914, Note_on_c, 0, 64, 74
2, 134920, Control_c, 0, 64, 37
2, 134920, Note_on_c, 0, 57, 63
2, 134939, Control_c, 0, 64, 20
2, 134959, Control_c, 0, 64, 56
2, 134977, Control_c, 0, 64, 67
2, 134997, Control_c, 0, 64, 79
2, 135016, Control_c, 0, 64, 118
2, 135035, Control_c, 0, 64, 127
2, 135169, Note_on_c, 0, 57, 0
2, 135186, Note_on_c, 0, 64, 0
2, 135209, Note_on_c, 0, 62, 76
2, 135217, Note_on_c, 0, 78, 94
2, 135227, Control_c, 0, 64, 85
2, 135229, Note_on_c, 0, 81, 0
2, 135247, Control_c, 0, 64, 58
2, 135265, Control_c, 0, 64, 0
2, 135362, Control_c, 0, 64, 59
2, 135381, Control_c, 0, 64, 69
2, 135400, Control_c, 0, 64, 81
2, 135419, Control_c, 0, 64, 110
2, 135439, Control_c, 0, 64, 127
2, 135627, Note_on_c, 0, 62, 0
2, 135829, Note_on_c, 0, 78, 0
2, 136223, Control_c, 0, 64, 110
2, 136243, Control_c, 0, 64, 66
2, 136260, Note_on_c, 0, 78, 94
2, 136262, Control_c, 0, 64, 0
2, 136262, Note_on_c, 0, 60, 86
2, 136269, Note_on_c, 0, 50, 80
2, 136313, Note_on_c, 0, 69, 0
2, 136320, Control_c, 0, 64, 42
2, 136338, Control_c, 0, 64, 67
2, 136358, Control_c, 0, 64, 85
2, 136377, Control_c, 0, 64, 127
2, 136431, Note_on_c, 0, 78, 0
2, 136507, Note_on_c, 0, 60, 0
2, 136671, Note_on_c, 0, 78, 93
2, 136679, Note_on_c, 0, 59, 79
2, 136684, Note_on_c, 0, 55, 75
2, 136684, Note_on_c, 0, 67, 81
2, 136722, Note_on_c, 0, 50, 0
2, 136742, Control_c, 0, 64, 74
2, 136761, Control_c, 0, 64, 0
2, 136915, Control_c, 0, 64, 42
2, 136934, Control_c, 0, 64, 63
2, 136954, Control_c, 0, 64, 67
2, 136972, Control_c, 0, 64, 73
2, 136992, Control_c, 0, 64, 93
2, 137011, Control_c, 0, 64, 127
2, 137143, Note_on_c, 0, 59, 0
2, 137228, Note_on_c, 0, 55, 0
2, 137445, Note_on_c, 0, 78, 0
2, 137723, Note_on_c, 0, 67, 0
2, 137794, Note_on_c, 0, 76, 85
2, 137918, Note_on_c, 0, 75, 89
2, 137935, Note_on_c, 0, 76, 0
2, 137977, Note_on_c, 0, 75, 0
2, 138049, Note_on_c, 0, 71, 90
2, 138049, Note_on_c, 0, 76, 96
2, 138050, Note_on_c, 0, 40, 77
2, 138061, Note_on_c, 0, 67, 74
2, 138168, Note_on_c, 0, 42, 80
2, 138188, Note_on_c, 0, 40, 0
2, 138240, Control_c, 0, 64, 121
2, 138258, Control_c, 0, 64, 80
2, 138278, Control_c, 0, 64, 64
2, 138283, Note_on_c, 0, 43, 75
2, 138297, Control_c, 0, 64, 0
2, 138310, Note_on_c, 0, 42, 0
2, 138404, Note_on_c, 0, 45, 73
2, 138408, Note_on_c, 0, 43, 0
2, 138523, Note_on_c, 0, 43, 81
2, 138530, Note_on_c, 0, 45, 0
2, 138645, Note_on_c, 0, 42, 77
2, 138652, Note_on_c, 0, 43, 0
2, 138656, Note_on_c, 0, 71, 0
2, 138676, Note_on_c, 0, 67, 0
2, 138778, Note_on_c, 0, 43, 78
2, 138788, Note_on_c, 0, 42, 0
2, 138887, Note_on_c, 0, 43, 0
2, 138889, Note_on_c, 0, 40, 80
2, 139037, Note_on_c, 0, 69, 83
2, 139050, Note_on_c, 0, 66, 73
2, 139053, Note_on_c, 0, 48, 75
2, 139139, Note_on_c, 0, 40, 0
2, 139444, Control_c, 0, 64, 35
2, 139464, Control_c, 0, 64, 52
2, 139483, Control_c, 0, 64, 60
2, 139502, Control_c, 0, 64, 63
2, 139521, Control_c, 0, 64, 64
2, 139541, Control_c, 0, 64, 66
2, 139560, Control_c, 0, 64, 69
2, 139579, Control_c, 0, 64, 75
2, 139598, Control_c, 0, 64, 85
2, 139618, Control_c, 0, 64, 105
2, 139636, Control_c, 0, 64, 127
2, 139699, Note_on_c, 0, 76, 0
2, 139802, Note_on_c, 0, 48, 0
2, 140006, Note_on_c, 0, 75, 89
2, 140015, Note_on_c, 0, 48, 68
2, 140022, Control_c, 0, 64, 99
2, 140042, Control_c, 0, 64, 68
2, 140060, Control_c, 0, 64, 34
2, 140080, Control_c, 0, 64, 0
2, 140100, Control_c, 0, 64, 26
2, 140119, Control_c, 0, 64, 60
2, 140138, Control_c, 0, 64, 70
2, 140158, Control_c, 0, 64, 82
2, 140177, Control_c, 0, 64, 123
2, 140196, Control_c, 0, 64, 127
2, 140252, Note_on_c, 0, 75, 0
2, 140318, Note_on_c, 0, 76, 93
2, 140322, Note_on_c, 0, 47, 74
2, 140328, Note_on_c, 0, 48, 0
2, 140330, Control_c, 0, 64, 93
2, 140350, Control_c, 0, 64, 66
2, 140369, Control_c, 0, 64, 0
2, 140541, Control_c, 0, 64, 13
2, 140561, Control_c, 0, 64, 46
2, 140580, Control_c, 0, 64, 59
2, 140599, Control_c, 0, 64, 63
2, 140618, Control_c, 0, 64, 64
2, 140638, Control_c, 0, 64, 65
2, 140657, Control_c, 0, 64, 68
2, 140676, Control_c, 0, 64, 74
2, 140695, Control_c, 0, 64, 85
2, 140715, Control_c, 0, 64, 98
2, 140733, Control_c, 0, 64, 118
2, 140753, Control_c, 0, 64, 127
2, 141295, Note_on_c, 0, 76, 0
2, 141335, Note_on_c, 0, 78, 85
2, 141350, Note_on_c, 0, 45, 63
2, 141360, Note_on_c, 0, 47, 0
2, 141368, Control_c, 0, 64, 106
2, 141388, Control_c, 0, 64, 71
2, 141407, Control_c, 0, 64, 0
2, 141464, Control_c, 0, 64, 21
2, 141484, Control_c, 0, 64, 61
2, 141502, Control_c, 0, 64, 71
2, 141522, Control_c, 0, 64, 86
2, 141538, Note_on_c, 0, 78, 0
2, 141541, Control_c, 0, 64, 127
2, 141661, Note_on_c, 0, 71, 82
2, 141682, Note_on_c, 0, 43, 60
2, 141694, Control_c, 0, 64, 102
2, 141701, Note_on_c, 0, 45, 0
2, 141714, Control_c, 0, 64, 72
2, 141733, Control_c, 0, 64, 41
2, 141753, Control_c, 0, 64, 0
2, 141868, Control_c, 0, 64, 46
2, 141887, Control_c, 0, 64, 59
2, 141905, Control_c, 0, 64, 63
2, 141925, Control_c, 0, 64, 65
2, 141944, Control_c, 0, 64, 66
2, 141964, Control_c, 0, 64, 72
2, 141982, Control_c, 0, 64, 84
2, 142002, Control_c, 0, 64, 114
2, 142021, Control_c, 0, 64, 127
2, 142305, Note_on_c, 0, 71, 0
2, 142407, Note_on_c, 0, 66, 0
2, 142422, Note_on_c, 0, 69, 0
2, 142591, Note_on_c, 0, 43, 0
2, 142636, Note_on_c, 0, 42, 50
2, 142638, Note_on_c, 0, 72, 66
2, 142751, Note_on_c, 0, 42, 0
2, 142753, Note_on_c, 0, 72, 0
2, 142755, Note_on_c, 0, 69, 68
2, 142903, Note_on_c, 0, 69, 0
2, 142905, Note_on_c, 0, 71, 69
2, 142909, Note_on_c, 0, 43, 49
2, 142919, Note_on_c, 0, 64, 49
2, 142924, Control_c, 0, 64, 93
2, 142928, Note_on_c, 0, 67, 50
2, 142942, Control_c, 0, 64, 69
2, 142962, Control_c, 0, 64, 37
2, 142979, Control_c, 0, 64, 0
2, 143037, Control_c, 0, 64, 23
2, 143056, Control_c, 0, 64, 51
2, 143075, Control_c, 0, 64, 62
2, 143094, Control_c, 0, 64, 63
2, 143114, Control_c, 0, 64, 63
2, 143133, Control_c, 0, 64, 65
2, 143152, Control_c, 0, 64, 68
2, 143171, Control_c, 0, 64, 71
2, 143191, Control_c, 0, 64, 78
2, 143209, Control_c, 0, 64, 87
2, 143229, Control_c, 0, 64, 93
2, 143248, Control_c, 0, 64, 101
2, 143268, Control_c, 0, 64, 121
2, 143286, Control_c, 0, 64, 127
2, 143396, Note_on_c, 0, 43, 0
2, 143537, Note_on_c, 0, 64, 0
2, 143793, Note_on_c, 0, 71, 0
2, 143971, Note_on_c, 0, 72, 65
2, 143976, Note_on_c, 0, 54, 46
2, 143984, Note_on_c, 0, 67, 0
2, 143989, Note_on_c, 0, 45, 43
2, 144045, Note_on_c, 0, 45, 0
2, 144052, Note_on_c, 0, 54, 0
2, 144326, Control_c, 0, 64, 116
2, 144328, Note_on_c, 0, 67, 51
2, 144345, Control_c, 0, 64, 95
2, 144349, Note_on_c, 0, 64, 45
2, 144352, Note_on_c, 0, 55, 35
2, 144365, Control_c, 0, 64, 79
2, 144380, Note_on_c, 0, 47, 28
2, 144383, Control_c, 0, 64, 68
2, 144403, Control_c, 0, 64, 58
2, 144422, Control_c, 0, 64, 38
2, 144422, Note_on_c, 0, 72, 0
2, 144442, Control_c, 0, 64, 19
2, 144460, Control_c, 0, 64, 18
2, 144517, Control_c, 0, 64, 22
2, 144537, Control_c, 0, 64, 30
2, 144556, Control_c, 0, 64, 37
2, 144576, Control_c, 0, 64, 45
2, 144594, Control_c, 0, 64, 51
2, 144614, Control_c, 0, 64, 57
2, 144633, Control_c, 0, 64, 63
2, 144652, Control_c, 0, 64, 65
2, 144671, Control_c, 0, 64, 67
2, 144691, Control_c, 0, 64, 69
2, 144710, Control_c, 0, 64, 73
2, 144729, Control_c, 0, 64, 82
2, 144748, Control_c, 0, 64, 91
2, 144768, Control_c, 0, 64, 97
2, 144786, Control_c, 0, 64, 102
2, 144805, Control_c, 0, 64, 109
2, 144824, Control_c, 0, 64, 127
2, 145439, Note_on_c, 0, 57, 36
2, 145506, Note_on_c, 0, 55, 0
2, 145689, Control_c, 0, 64, 118
2, 145708, Control_c, 0, 64, 110
2, 145728, Control_c, 0, 64, 104
2, 145746, Control_c, 0, 64, 95
2, 145766, Control_c, 0, 64, 85
2, 145782, Note_on_c, 0, 66, 42
2, 145785, Control_c, 0, 64, 73
2, 145788, Note_on_c, 0, 63, 29
2, 145804, Note_on_c, 0, 59, 27
2, 145805, Control_c, 0, 64, 63
2, 145821, Note_on_c, 0, 64, 0
2, 145823, Control_c, 0, 64, 32
2, 145830, Note_on_c, 0, 57, 0
2, 145843, Control_c, 0, 64, 0
2, 145906, Note_on_c, 0, 67, 0
2, 145940, Control_c, 0, 64, 27
2, 145959, Control_c, 0, 64, 54
2, 145978, Control_c, 0, 64, 64
2, 145997, Control_c, 0, 64, 66
2, 146016, Control_c, 0, 64, 68
2, 146035, Control_c, 0, 64, 73
2, 146055, Control_c, 0, 64, 83
2, 146074, Control_c, 0, 64, 95
2, 146081, Note_on_c, 0, 47, 0
2, 146093, Control_c, 0, 64, 107
2, 146112, Control_c, 0, 64, 117
2, 146132, Control_c, 0, 64, 127
2, 146692, Note_on_c, 0, 66, 0
2, 146831, Note_on_c, 0, 63, 0
2, 146847, Note_on_c, 0, 57, 32
2, 146875, Note_on_c, 0, 59, 0
2, 147190, Note_on_c, 0, 55, 36
2, 147194, Note_on_c, 0, 52, 35
2, 147269, Note_on_c, 0, 64, 38
2, 147322, Control_c, 0, 64, 94
2, 147341, Control_c, 0, 64, 69
2, 147360, Note_on_c, 0, 64, 0
2, 147361, Control_c, 0, 64, 49
2, 147380, Control_c, 0, 64, 0
2, 147380, Note_on_c, 0, 66, 51
2, 147389, Note_on_c, 0, 57, 0
2, 147456, Control_c, 0, 64, 35
2, 147475, Control_c, 0, 64, 57
2, 147495, Control_c, 0, 64, 65
2, 147507, Note_on_c, 0, 66, 0
2, 147511, Note_on_c, 0, 67, 59
2, 147514, Control_c, 0, 64, 67
2, 147533, Control_c, 0, 64, 70
2, 147552, Control_c, 0, 64, 73
2, 147572, Control_c, 0, 64, 80
2, 147591, Control_c, 0, 64, 88
2, 147610, Control_c, 0, 64, 93
2, 147619, Note_on_c, 0, 67, 0
2, 147625, Note_on_c, 0, 69, 67
2, 147649, Control_c, 0, 64, 91
2, 147667, Control_c, 0, 64, 88
2, 147687, Control_c, 0, 64, 80
2, 147706, Control_c, 0, 64, 69
2, 147726, Control_c, 0, 64, 53
2, 147727, Note_on_c, 0, 69, 0
2, 147744, Control_c, 0, 64, 0
2, 147749, Note_on_c, 0, 67, 57
2, 147802, Control_c, 0, 64, 50
2, 147821, Control_c, 0, 64, 63
2, 147843, Control_c, 0, 64, 64
2, 147845, Note_on_c, 0, 67, 0
2, 147863, Control_c, 0, 64, 61
2, 147878, Note_on_c, 0, 66, 58
2, 147881, Control_c, 0, 64, 35
2, 147901, Control_c, 0, 64, 0
2, 147967, Note_on_c, 0, 66, 0
2, 147984, Note_on_c, 0, 67, 64
2, 147997, Control_c, 0, 64, 33
2, 148016, Control_c, 0, 64, 53
2, 148035, Control_c, 0, 64, 61
2, 148038, Note_on_c, 0, 67, 0
2, 148055, Control_c, 0, 64, 63
2, 148074, Control_c, 0, 64, 65
2, 148093, Control_c, 0, 64, 68
2, 148110, Note_on_c, 0, 64, 58
2, 148112, Control_c, 0, 64, 72
2, 148132, Control_c, 0, 64, 78
2, 148150, Control_c, 0, 64, 84
2, 148169, Control_c, 0, 64, 88
2, 148189, Control_c, 0, 64, 89
2, 148195, Note_on_c, 0, 64, 0
2, 148246, Control_c, 0, 64, 88
2, 148284, Control_c, 0, 64, 88
2, 148304, Control_c, 0, 64, 87
2, 148323, Control_c, 0, 64, 85
2, 148343, Control_c, 0, 64, 82
2, 148361, Control_c, 0, 64, 78
2, 148373, Note_on_c, 0, 79, 55
2, 148381, Control_c, 0, 64, 73
2, 148382, Note_on_c, 0, 59, 36
2, 148400, Control_c, 0, 64, 65
2, 148420, Control_c, 0, 64, 44
2, 148438, Control_c, 0, 64, 0
2, 148455, Note_on_c, 0, 55, 0
2, 148554, Control_c, 0, 64, 55
2, 148573, Control_c, 0, 64, 65
2, 148592, Control_c, 0, 64, 66
2, 148630, Control_c, 0, 64, 66
2, 148649, Control_c, 0, 64, 64
2, 148669, Control_c, 0, 64, 59
2, 148688, Control_c, 0, 64, 25
2, 148707, Control_c, 0, 64, 0
2, 148728, Note_on_c, 0, 59, 0
2, 148739, Note_on_c, 0, 57, 40
2, 148784, Control_c, 0, 64, 29
2, 148803, Control_c, 0, 64, 55
2, 148823, Control_c, 0, 64, 63
2, 148841, Control_c, 0, 64, 65
2, 148846, Note_on_c, 0, 52, 0
2, 148880, Control_c, 0, 64, 64
2, 148900, Control_c, 0, 64, 63
2, 148918, Control_c, 0, 64, 60
2, 148938, Control_c, 0, 64, 42
2, 148957, Control_c, 0, 64, 0
2, 148959, Note_on_c, 0, 79, 0
2, 148993, Note_on_c, 0, 57, 0
2, 149020, Note_on_c, 0, 59, 49
2, 149053, Control_c, 0, 64, 44
2, 149072, Control_c, 0, 64, 62
2, 149092, Control_c, 0, 64, 65
2, 149110, Control_c, 0, 64, 66
2, 149149, Control_c, 0, 64, 67
2, 149168, Control_c, 0, 64, 71
2, 149187, Control_c, 0, 64, 81
2, 149206, Control_c, 0, 64, 99
2, 149226, Control_c, 0, 64, 127
2, 149293, Note_on_c, 0, 59, 0
2, 149294, Note_on_c, 0, 55, 48
2, 149390, Note_on_c, 0, 55, 0
2, 149581, Note_on_c, 0, 64, 56
2, 149590, Control_c, 0, 64, 101
2, 149591, Note_on_c, 0, 55, 38
2, 149607, Note_on_c, 0, 59, 41
2, 149609, Control_c, 0, 64, 74
2, 149629, Control_c, 0, 64, 52
2, 149648, Control_c, 0, 64, 0
2, 149744, Control_c, 0, 64, 35
2, 149763, Control_c, 0, 64, 57
2, 149783, Control_c, 0, 64, 65
2, 149801, Control_c, 0, 64, 68
2, 149821, Control_c, 0, 64, 72
2, 149828, Note_on_c, 0, 55, 0
2, 149840, Control_c, 0, 64, 77
2, 149860, Control_c, 0, 64, 85
2, 149868, Note_on_c, 0, 54, 50
2, 149878, Control_c, 0, 64, 94
2, 149898, Control_c, 0, 64, 103
2, 149917, Control_c, 0, 64, 108
2, 149936, Control_c, 0, 64, 115
2, 149955, Control_c, 0, 64, 127
2, 149962, Note_on_c, 0, 64, 0
2, 149969, Note_on_c, 0, 59, 0
2, 150089, Control_c, 0, 64, 105
2, 150109, Control_c, 0, 64, 79
2, 150127, Note_on_c, 0, 54, 0
2, 150128, Control_c, 0, 64, 64
2, 150139, Note_on_c, 0, 55, 48
2, 150147, Control_c, 0, 64, 41
2, 150166, Control_c, 0, 64, 43
2, 150186, Control_c, 0, 64, 53
2, 150204, Control_c, 0, 64, 62
2, 150224, Control_c, 0, 64, 66
2, 150243, Control_c, 0, 64, 70
2, 150263, Control_c, 0, 64, 78
2, 150281, Control_c, 0, 64, 90
2, 150301, Control_c, 0, 64, 96
2, 150301, Note_on_c, 0, 55, 0
2, 150320, Control_c, 0, 64, 92
2, 150340, Control_c, 0, 64, 84
2, 150358, Control_c, 0, 64, 69
2, 150378, Control_c, 0, 64, 56
2, 150397, Control_c, 0, 64, 40
2, 150414, Note_on_c, 0, 61, 56
2, 150416, Control_c, 0, 64, 50
2, 150424, Note_on_c, 0, 52, 45
2, 150435, Control_c, 0, 64, 59
2, 150449, Note_on_c, 0, 55, 33
2, 150455, Control_c, 0, 64, 64
2, 150474, Control_c, 0, 64, 67
2, 150493, Control_c, 0, 64, 72
2, 150495, Note_on_c, 0, 52, 0
2, 150512, Control_c, 0, 64, 78
2, 150523, Note_on_c, 0, 55, 0
2, 150532, Control_c, 0, 64, 85
2, 150540, Note_on_c, 0, 61, 0
2, 150550, Control_c, 0, 64, 93
2, 150568, Control_c, 0, 64, 98
2, 150588, Control_c, 0, 64, 98
2, 150607, Control_c, 0, 64, 99
2, 150645, Control_c, 0, 64, 98
2, 150668, Control_c, 0, 64, 94
2, 150686, Control_c, 0, 64, 85
2, 150706, Control_c, 0, 64, 72
2, 150714, Note_on_c, 0, 52, 38
2, 150725, Control_c, 0, 64, 60
2, 150728, Note_on_c, 0, 61, 47
2, 150744, Control_c, 0, 64, 29
2, 150763, Control_c, 0, 64, 32
2, 150783, Control_c, 0, 64, 47
2, 150802, Control_c, 0, 64, 57
2, 150821, Control_c, 0, 64, 63
2, 150840, Control_c, 0, 64, 65
2, 150860, Control_c, 0, 64, 68
2, 150879, Control_c, 0, 64, 71
2, 150898, Control_c, 0, 64, 74
2, 150917, Control_c, 0, 64, 73
2, 150937, Control_c, 0, 64, 69
2, 150955, Control_c, 0, 64, 62
2, 150966, Note_on_c, 0, 52, 0
2, 150975, Control_c, 0, 64, 31
2, 150994, Control_c, 0, 64, 0
2, 151014, Note_on_c, 0, 50, 37
2, 151052, Control_c, 0, 64, 24
2, 151071, Control_c, 0, 64, 53
2, 151089, Control_c, 0, 64, 64
2, 151109, Control_c, 0, 64, 68
2, 151128, Control_c, 0, 64, 72
2, 151148, Control_c, 0, 64, 77
2, 151166, Control_c, 0, 64, 82
2, 151186, Control_c, 0, 64, 83
2, 151205, Control_c, 0, 64, 78
2, 151224, Control_c, 0, 64, 71
2, 151243, Control_c, 0, 64, 64
2, 151263, Control_c, 0, 64, 51
2, 151282, Control_c, 0, 64, 50
2, 151286, Note_on_c, 0, 50, 0
2, 151288, Note_on_c, 0, 52, 44
2, 151301, Control_c, 0, 64, 61
2, 151320, Control_c, 0, 64, 69
2, 151340, Control_c, 0, 64, 79
2, 151344, Note_on_c, 0, 61, 0
2, 151359, Control_c, 0, 64, 101
2, 151378, Control_c, 0, 64, 127
2, 151427, Note_on_c, 0, 52, 0
2, 151474, Control_c, 0, 64, 84
2, 151494, Control_c, 0, 64, 65
2, 151512, Control_c, 0, 64, 0
2, 151586, Control_c, 0, 64, 40
2, 151605, Control_c, 0, 64, 61
2, 151623, Note_on_c, 0, 57, 31
2, 151626, Note_on_c, 0, 52, 37
2, 151629, Control_c, 0, 64, 67
2, 151631, Note_on_c, 0, 49, 30
2, 151647, Control_c, 0, 64, 72
2, 151667, Control_c, 0, 64, 79
2, 151686, Control_c, 0, 64, 86
2, 151705, Control_c, 0, 64, 90
2, 151724, Control_c, 0, 64, 91
2, 151735, Note_on_c, 0, 57, 0
2, 151739, Note_on_c, 0, 52, 0
2, 151744, Note_on_c, 0, 49, 0
2, 151782, Control_c, 0, 64, 92
2, 151801, Control_c, 0, 64, 92
2, 151839, Control_c, 0, 64, 91
2, 151859, Control_c, 0, 64, 90
2, 151878, Control_c, 0, 64, 89
2, 151898, Control_c, 0, 64, 89
2, 151916, Control_c, 0, 64, 87
2, 151936, Control_c, 0, 64, 85
2, 151955, Control_c, 0, 64, 82
2, 151965, Note_on_c, 0, 49, 29
2, 151967, Note_on_c, 0, 57, 33
2, 151973, Note_on_c, 0, 52, 30
2, 151975, Control_c, 0, 64, 80
2, 151993, Control_c, 0, 64, 78
2, 152013, Control_c, 0, 64, 73
2, 152020, Note_on_c, 0, 69, 54
2, 152032, Control_c, 0, 64, 68
2, 152051, Control_c, 0, 64, 62
2, 152070, Control_c, 0, 64, 46
2, 152089, Control_c, 0, 64, 0
2, 152140, Note_on_c, 0, 69, 0
2, 152140, Note_on_c, 0, 71, 61
2, 152260, Note_on_c, 0, 73, 69
2, 152274, Note_on_c, 0, 71, 0
2, 152382, Note_on_c, 0, 74, 73
2, 152386, Note_on_c, 0, 73, 0
2, 152505, Note_on_c, 0, 73, 78
2, 152518, Note_on_c, 0, 74, 0
2, 152614, Note_on_c, 0, 52, 0
2, 152622, Note_on_c, 0, 71, 78
2, 152630, Note_on_c, 0, 73, 0
2, 152653, Note_on_c, 0, 57, 0
2, 152674, Note_on_c, 0, 49, 0
2, 152736, Note_on_c, 0, 73, 79
2, 152748, Note_on_c, 0, 71, 0
2, 152829, Note_on_c, 0, 73, 0
2, 152860, Note_on_c, 0, 69, 74
2, 153029, Note_on_c, 0, 69, 0
2, 153065, Note_on_c, 0, 78, 66
2, 153069, Note_on_c, 0, 57, 35
2, 153258, Control_c, 0, 64, 33
2, 153277, Control_c, 0, 64, 53
2, 153296, Control_c, 0, 64, 62
2, 153315, Control_c, 0, 64, 65
2, 153335, Control_c, 0, 64, 66
2, 153351, Note_on_c, 0, 57, 0
2, 153354, Control_c, 0, 64, 69
2, 153373, Control_c, 0, 64, 73
2, 153380, Note_on_c, 0, 55, 39
2, 153392, Control_c, 0, 64, 79
2, 153412, Control_c, 0, 64, 82
2, 153430, Control_c, 0, 64, 81
2, 153449, Control_c, 0, 64, 78
2, 153469, Control_c, 0, 64, 72
2, 153488, Control_c, 0, 64, 64
2, 153507, Control_c, 0, 64, 48
2, 153526, Control_c, 0, 64, 0
2, 153582, Control_c, 0, 64, 41
2, 153601, Control_c, 0, 64, 59
2, 153621, Control_c, 0, 64, 65
2, 153631, Note_on_c, 0, 78, 0
2, 153639, Control_c, 0, 64, 67
2, 153639, Note_on_c, 0, 55, 0
2, 153656, Note_on_c, 0, 57, 50
2, 153659, Control_c, 0, 64, 68
2, 153678, Control_c, 0, 64, 71
2, 153698, Control_c, 0, 64, 75
2, 153716, Control_c, 0, 64, 81
2, 153736, Control_c, 0, 64, 86
2, 153755, Control_c, 0, 64, 87
2, 153793, Control_c, 0, 64, 87
2, 153813, Control_c, 0, 64, 85
2, 153832, Control_c, 0, 64, 81
2, 153850, Control_c, 0, 64, 72
2, 153870, Control_c, 0, 64, 61
2, 153889, Control_c, 0, 64, 21
2, 153909, Control_c, 0, 64, 0
2, 153927, Control_c, 0, 64, 34
2, 153935, Note_on_c, 0, 54, 53
2, 153946, Note_on_c, 0, 57, 0
2, 153947, Control_c, 0, 64, 57
2, 153966, Control_c, 0, 64, 65
2, 153985, Control_c, 0, 64, 69
2, 154004, Control_c, 0, 64, 73
2, 154024, Control_c, 0, 64, 81
2, 154036, Note_on_c, 0, 54, 0
2, 154043, Control_c, 0, 64, 90
2, 154062, Control_c, 0, 64, 94
2, 154081, Control_c, 0, 64, 95
2, 154178, Control_c, 0, 64, 93
2, 154196, Control_c, 0, 64, 90
2, 154216, Control_c, 0, 64, 83
2, 154230, Note_on_c, 0, 62, 59
2, 154234, Note_on_c, 0, 54, 39
2, 154235, Control_c, 0, 64, 72
2, 154250, Note_on_c, 0, 57, 38
2, 154255, Control_c, 0, 64, 60
2, 154273, Control_c, 0, 64, 0
2, 154404, Control_c, 0, 64, 38
2, 154422, Control_c, 0, 64, 57
2, 154441, Control_c, 0, 64, 64
2, 154461, Control_c, 0, 64, 66
2, 154479, Control_c, 0, 64, 69
2, 154504, Note_on_c, 0, 54, 0
2, 154505, Control_c, 0, 64, 75
2, 154523, Note_on_c, 0, 52, 50
2, 154524, Control_c, 0, 64, 84
2, 154543, Control_c, 0, 64, 90
2, 154562, Control_c, 0, 64, 91
2, 154582, Control_c, 0, 64, 90
2, 154600, Control_c, 0, 64, 87
2, 154603, Note_on_c, 0, 57, 0
2, 154620, Control_c, 0, 64, 84
2, 154624, Note_on_c, 0, 62, 0
2, 154639, Control_c, 0, 64, 77
2, 154659, Control_c, 0, 64, 68
2, 154677, Control_c, 0, 64, 57
2, 154697, Control_c, 0, 64, 0
2, 154774, Note_on_c, 0, 52, 0
2, 154798, Note_on_c, 0, 54, 53
2, 154812, Control_c, 0, 64, 36
2, 154831, Control_c, 0, 64, 58
2, 154850, Control_c, 0, 64, 65
2, 154869, Control_c, 0, 64, 68
2, 154888, Control_c, 0, 64, 73
2, 154908, Control_c, 0, 64, 83
2, 154927, Control_c, 0, 64, 91
2, 154946, Control_c, 0, 64, 92
2, 154965, Control_c, 0, 64, 88
2, 154978, Note_on_c, 0, 54, 0
2, 154985, Control_c, 0, 64, 79
2, 155004, Control_c, 0, 64, 67
2, 155023, Control_c, 0, 64, 55
2, 155042, Control_c, 0, 64, 42
2, 155062, Control_c, 0, 64, 52
2, 155066, Note_on_c, 0, 59, 68
2, 155080, Control_c, 0, 64, 58
2, 155087, Note_on_c, 0, 50, 40
2, 155100, Control_c, 0, 64, 63
2, 155109, Note_on_c, 0, 54, 30
2, 155119, Control_c, 0, 64, 66
2, 155139, Control_c, 0, 64, 69
2, 155140, Note_on_c, 0, 50, 0
2, 155157, Control_c, 0, 64, 74
2, 155177, Control_c, 0, 64, 81
2, 155189, Note_on_c, 0, 54, 0
2, 155193, Note_on_c, 0, 59, 0
2, 155196, Control_c, 0, 64, 84
2, 155215, Control_c, 0, 64, 85
2, 155254, Control_c, 0, 64, 85
2, 155311, Control_c, 0, 64, 84
2, 155330, Control_c, 0, 64, 82
2, 155349, Control_c, 0, 64, 76
2, 155360, Note_on_c, 0, 59, 68
2, 155366, Control_c, 0, 64, 66
2, 155369, Note_on_c, 0, 50, 42
2, 155386, Control_c, 0, 64, 43
2, 155395, Note_on_c, 0, 54, 14
2, 155405, Control_c, 0, 64, 0
2, 155503, Control_c, 0, 64, 32
2, 155522, Control_c, 0, 64, 50
2, 155542, Control_c, 0, 64, 58
2, 155560, Control_c, 0, 64, 60
2, 155637, Control_c, 0, 64, 59
2, 155637, Note_on_c, 0, 50, 0
2, 155641, Note_on_c, 0, 49, 49
2, 155657, Control_c, 0, 64, 58
2, 155676, Control_c, 0, 64, 56
2, 155695, Control_c, 0, 64, 53
2, 155714, Control_c, 0, 64, 45
2, 155726, Note_on_c, 0, 54, 0
2, 155734, Control_c, 0, 64, 37
2, 155753, Control_c, 0, 64, 31
2, 155760, Note_on_c, 0, 59, 0
2, 155772, Control_c, 0, 64, 30
2, 155848, Control_c, 0, 64, 31
2, 155868, Control_c, 0, 64, 30
2, 155887, Control_c, 0, 64, 17
2, 155906, Control_c, 0, 64, 0
2, 155934, Note_on_c, 0, 50, 57
2, 155986, Note_on_c, 0, 49, 0
2, 156002, Control_c, 0, 64, 42
2, 156022, Control_c, 0, 64, 61
2, 156040, Control_c, 0, 64, 66
2, 156060, Control_c, 0, 64, 70
2, 156073, Note_on_c, 0, 50, 0
2, 156079, Control_c, 0, 64, 76
2, 156099, Control_c, 0, 64, 84
2, 156117, Control_c, 0, 64, 92
2, 156137, Control_c, 0, 64, 95
2, 156156, Control_c, 0, 64, 91
2, 156175, Control_c, 0, 64, 81
2, 156194, Control_c, 0, 64, 70
2, 156214, Control_c, 0, 64, 59
2, 156233, Control_c, 0, 64, 36
2, 156236, Note_on_c, 0, 55, 44
2, 156249, Note_on_c, 0, 47, 39
2, 156252, Control_c, 0, 64, 39
2, 156254, Note_on_c, 0, 50, 43
2, 156271, Control_c, 0, 64, 53
2, 156290, Control_c, 0, 64, 61
2, 156309, Control_c, 0, 64, 64
2, 156328, Control_c, 0, 64, 66
2, 156348, Control_c, 0, 64, 69
2, 156367, Control_c, 0, 64, 74
2, 156367, Note_on_c, 0, 50, 0
2, 156379, Note_on_c, 0, 55, 0
2, 156380, Note_on_c, 0, 47, 0
2, 156386, Control_c, 0, 64, 79
2, 156405, Control_c, 0, 64, 85
2, 156426, Control_c, 0, 64, 88
2, 156541, Control_c, 0, 64, 87
2, 156560, Control_c, 0, 64, 85
2, 156572, Note_on_c, 0, 55, 45
2, 156574, Note_on_c, 0, 47, 41
2, 156576, Note_on_c, 0, 50, 41
2, 156580, Control_c, 0, 64, 81
2, 156598, Control_c, 0, 64, 77
2, 156606, Note_on_c, 0, 67, 54
2, 156618, Control_c, 0, 64, 71
2, 156637, Control_c, 0, 64, 64
2, 156656, Control_c, 0, 64, 52
2, 156675, Control_c, 0, 64, 0
2, 156718, Note_on_c, 0, 69, 68
2, 156729, Note_on_c, 0, 67, 0
2, 156852, Note_on_c, 0, 71, 72
2, 156871, Note_on_c, 0, 69, 0
2, 156974, Note_on_c, 0, 72, 76
2, 156980, Note_on_c, 0, 71, 0
2, 157065, Note_on_c, 0, 55, 0
2, 157083, Note_on_c, 0, 47, 0
2, 157089, Note_on_c, 0, 50, 0
2, 157097, Note_on_c, 0, 72, 0
2, 157100, Note_on_c, 0, 71, 78
2, 157210, Note_on_c, 0, 71, 0
2, 157214, Note_on_c, 0, 69, 75
2, 157342, Note_on_c, 0, 69, 0
2, 157345, Note_on_c, 0, 71, 68
2, 157412, Note_on_c, 0, 71, 0
2, 157452, Note_on_c, 0, 67, 59
2, 157631, Note_on_c, 0, 76, 62
2, 157640, Note_on_c, 0, 55, 34
2, 157647, Note_on_c, 0, 67, 0
2, 157884, Control_c, 0, 64, 21
2, 157904, Control_c, 0, 64, 51
2, 157918, Note_on_c, 0, 54, 43
2, 157923, Control_c, 0, 64, 63
2, 157943, Control_c, 0, 64, 66
2, 157956, Note_on_c, 0, 55, 0
2, 157961, Control_c, 0, 64, 68
2, 157981, Control_c, 0, 64, 71
2, 158000, Control_c, 0, 64, 75
2, 158020, Control_c, 0, 64, 82
2, 158038, Control_c, 0, 64, 88
2, 158058, Control_c, 0, 64, 92
2, 158077, Control_c, 0, 64, 92
2, 158096, Control_c, 0, 64, 91
2, 158112, Note_on_c, 0, 76, 0
2, 158115, Control_c, 0, 64, 87
2, 158135, Control_c, 0, 64, 80
2, 158154, Control_c, 0, 64, 70
2, 158173, Control_c, 0, 64, 57
2, 158192, Control_c, 0, 64, 0
2, 158193, Note_on_c, 0, 54, 0
2, 158204, Note_on_c, 0, 55, 50
2, 158287, Control_c, 0, 64, 34
2, 158306, Control_c, 0, 64, 49
2, 158325, Control_c, 0, 64, 56
2, 158346, Control_c, 0, 64, 58
2, 158364, Control_c, 0, 64, 59
2, 158384, Control_c, 0, 64, 60
2, 158403, Control_c, 0, 64, 62
2, 158423, Control_c, 0, 64, 65
2, 158441, Control_c, 0, 64, 68
2, 158461, Control_c, 0, 64, 73
2, 158471, Note_on_c, 0, 55, 0
2, 158480, Control_c, 0, 64, 80
2, 158493, Note_on_c, 0, 52, 55
2, 158500, Control_c, 0, 64, 85
2, 158518, Control_c, 0, 64, 88
2, 158538, Control_c, 0, 64, 89
2, 158557, Control_c, 0, 64, 90
2, 158576, Control_c, 0, 64, 92
2, 158595, Control_c, 0, 64, 93
2, 158606, Note_on_c, 0, 52, 0
2, 158615, Control_c, 0, 64, 94
2, 158710, Control_c, 0, 64, 93
2, 158729, Control_c, 0, 64, 92
2, 158749, Control_c, 0, 64, 90
2, 158768, Control_c, 0, 64, 88
2, 158779, Note_on_c, 0, 61, 64
2, 158787, Control_c, 0, 64, 85
2, 158795, Note_on_c, 0, 52, 44
2, 158801, Note_on_c, 0, 55, 43
2, 158806, Control_c, 0, 64, 81
2, 158826, Control_c, 0, 64, 73
2, 158844, Control_c, 0, 64, 63
2, 158864, Control_c, 0, 64, 23
2, 158883, Control_c, 0, 64, 0
2, 158980, Control_c, 0, 64, 20
2, 158998, Control_c, 0, 64, 48
2, 159018, Control_c, 0, 64, 60
2, 159037, Control_c, 0, 64, 64
2, 159043, Note_on_c, 0, 52, 0
2, 159055, Note_on_c, 0, 50, 49
2, 159056, Control_c, 0, 64, 65
2, 159075, Control_c, 0, 64, 66
2, 159095, Control_c, 0, 64, 67
2, 159114, Control_c, 0, 64, 72
2, 159133, Control_c, 0, 64, 78
2, 159144, Note_on_c, 0, 55, 0
2, 159152, Control_c, 0, 64, 84
2, 159162, Note_on_c, 0, 61, 0
2, 159171, Control_c, 0, 64, 85
2, 159229, Control_c, 0, 64, 86
2, 159286, Control_c, 0, 64, 85
2, 159306, Control_c, 0, 64, 82
2, 159324, Control_c, 0, 64, 76
2, 159344, Control_c, 0, 64, 67
2, 159345, Note_on_c, 0, 52, 48
2, 159347, Note_on_c, 0, 50, 0
2, 159363, Control_c, 0, 64, 50
2, 159383, Control_c, 0, 64, 0
2, 159460, Control_c, 0, 64, 32
2, 159478, Control_c, 0, 64, 55
2, 159498, Control_c, 0, 64, 64
2, 159506, Note_on_c, 0, 52, 0
2, 159536, Control_c, 0, 64, 61
2, 159555, Control_c, 0, 64, 54
2, 159575, Control_c, 0, 64, 40
2, 159613, Control_c, 0, 64, 49
2, 159624, Note_on_c, 0, 57, 62
2, 159632, Control_c, 0, 64, 57
2, 159638, Note_on_c, 0, 49, 45
2, 159648, Note_on_c, 0, 52, 47
2, 159651, Control_c, 0, 64, 64
2, 159670, Control_c, 0, 64, 68
2, 159689, Control_c, 0, 64, 72
2, 159709, Control_c, 0, 64, 80
2, 159728, Control_c, 0, 64, 87
2, 159745, Note_on_c, 0, 52, 0
2, 159747, Control_c, 0, 64, 90
2, 159749, Note_on_c, 0, 49, 0
2, 159766, Control_c, 0, 64, 91
2, 159766, Note_on_c, 0, 57, 0
2, 159843, Control_c, 0, 64, 91
2, 159863, Control_c, 0, 64, 86
2, 159881, Control_c, 0, 64, 76
2, 159901, Control_c, 0, 64, 65
2, 159912, Note_on_c, 0, 49, 52
2, 159920, Control_c, 0, 64, 47
2, 159923, Note_on_c, 0, 57, 63
2, 159940, Control_c, 0, 64, 0
2, 159950, Note_on_c, 0, 52, 33
2, 159958, Control_c, 0, 64, 17
2, 159978, Control_c, 0, 64, 38
2, 159997, Control_c, 0, 64, 56
2, 160016, Control_c, 0, 64, 64
2, 160035, Control_c, 0, 64, 67
2, 160055, Control_c, 0, 64, 70
2, 160074, Control_c, 0, 64, 75
2, 160093, Control_c, 0, 64, 83
2, 160112, Control_c, 0, 64, 90
2, 160131, Control_c, 0, 64, 91
2, 160189, Note_on_c, 0, 49, 0
2, 160206, Note_on_c, 0, 47, 51
2, 160253, Note_on_c, 0, 52, 0
2, 160283, Control_c, 0, 64, 91
2, 160321, Control_c, 0, 64, 90
2, 160341, Control_c, 0, 64, 89
2, 160359, Control_c, 0, 64, 86
2, 160362, Note_on_c, 0, 57, 0
2, 160379, Control_c, 0, 64, 82
2, 160398, Control_c, 0, 64, 74
2, 160418, Control_c, 0, 64, 62
2, 160436, Control_c, 0, 64, 0
2, 160481, Note_on_c, 0, 49, 55
2, 160511, Note_on_c, 0, 47, 0
2, 160533, Control_c, 0, 64, 30
2, 160552, Control_c, 0, 64, 60
2, 160570, Control_c, 0, 64, 70
2, 160590, Control_c, 0, 64, 82
2, 160609, Control_c, 0, 64, 105
2, 160629, Control_c, 0, 64, 127
2, 160650, Note_on_c, 0, 49, 0
2, 160667, Control_c, 0, 64, 111
2, 160686, Control_c, 0, 64, 80
2, 160705, Control_c, 0, 64, 64
2, 160724, Control_c, 0, 64, 11
2, 160744, Control_c, 0, 64, 0
2, 160763, Control_c, 0, 64, 28
2, 160782, Control_c, 0, 64, 57
2, 160788, Note_on_c, 0, 49, 49
2, 160790, Note_on_c, 0, 54, 50
2, 160797, Note_on_c, 0, 45, 44
2, 160801, Control_c, 0, 64, 65
2, 160821, Control_c, 0, 64, 70
2, 160839, Control_c, 0, 64, 75
2, 160859, Control_c, 0, 64, 81
2, 160878, Control_c, 0, 64, 87
2, 160893, Note_on_c, 0, 49, 0
2, 160894, Note_on_c, 0, 54, 0
2, 160897, Note_on_c, 0, 45, 0
2, 160898, Control_c, 0, 64, 93
2, 160916, Control_c, 0, 64, 99
2, 160936, Control_c, 0, 64, 101
2, 161013, Control_c, 0, 64, 101
2, 161050, Control_c, 0, 64, 101
2, 161089, Control_c, 0, 64, 100
2, 161109, Control_c, 0, 64, 99
2, 161120, Note_on_c, 0, 54, 33
2, 161127, Control_c, 0, 64, 97
2, 161131, Note_on_c, 0, 49, 40
2, 161139, Note_on_c, 0, 45, 26
2, 161142, Note_on_c, 0, 66, 52
2, 161147, Control_c, 0, 64, 94
2, 161166, Control_c, 0, 64, 88
2, 161185, Control_c, 0, 64, 78
2, 161204, Control_c, 0, 64, 68
2, 161226, Control_c, 0, 64, 51
2, 161244, Control_c, 0, 64, 0
2, 161244, Note_on_c, 0, 66, 0
2, 161262, Note_on_c, 0, 67, 55
2, 161370, Note_on_c, 0, 67, 0
2, 161377, Note_on_c, 0, 69, 63
2, 161489, Note_on_c, 0, 69, 0
2, 161500, Note_on_c, 0, 71, 66
2, 161629, Note_on_c, 0, 71, 0
2, 161633, Note_on_c, 0, 69, 70
2, 161669, Note_on_c, 0, 45, 0
2, 161688, Note_on_c, 0, 49, 0
2, 161695, Note_on_c, 0, 54, 0
2, 161729, Note_on_c, 0, 69, 0
2, 161741, Note_on_c, 0, 67, 59
2, 161874, Note_on_c, 0, 67, 0
2, 161888, Note_on_c, 0, 69, 55
2, 161951, Note_on_c, 0, 69, 0
2, 162001, Note_on_c, 0, 66, 51
2, 162152, Note_on_c, 0, 74, 61
2, 162157, Note_on_c, 0, 66, 0
2, 162178, Note_on_c, 0, 59, 43
2, 162262, Control_c, 0, 64, 39
2, 162268, Note_on_c, 0, 59, 0
2, 162280, Control_c, 0, 64, 58
2, 162298, Note_on_c, 0, 61, 58
2, 162300, Control_c, 0, 64, 64
2, 162319, Control_c, 0, 64, 67
2, 162339, Control_c, 0, 64, 71
2, 162357, Control_c, 0, 64, 76
2, 162377, Control_c, 0, 64, 87
2, 162383, Note_on_c, 0, 61, 0
2, 162396, Control_c, 0, 64, 110
2, 162415, Control_c, 0, 64, 127
2, 162433, Note_on_c, 0, 62, 54
2, 162498, Note_on_c, 0, 62, 0
2, 162546, Note_on_c, 0, 64, 61
2, 162607, Control_c, 0, 64, 84
2, 162626, Control_c, 0, 64, 64
2, 162645, Control_c, 0, 64, 0
2, 162651, Note_on_c, 0, 64, 0
2, 162669, Note_on_c, 0, 62, 61
2, 162703, Control_c, 0, 64, 21
2, 162722, Control_c, 0, 64, 54
2, 162742, Control_c, 0, 64, 65
2, 162760, Control_c, 0, 64, 69
2, 162778, Note_on_c, 0, 74, 0
2, 162780, Control_c, 0, 64, 75
2, 162780, Note_on_c, 0, 62, 0
2, 162799, Control_c, 0, 64, 85
2, 162804, Note_on_c, 0, 61, 64
2, 162819, Control_c, 0, 64, 101
2, 162837, Control_c, 0, 64, 127
2, 162885, Note_on_c, 0, 61, 0
2, 162918, Note_on_c, 0, 74, 76
2, 162927, Note_on_c, 0, 62, 66
2, 163009, Note_on_c, 0, 74, 0
2, 163014, Note_on_c, 0, 62, 0
2, 163038, Note_on_c, 0, 59, 67
2, 163165, Note_on_c, 0, 59, 0
2, 163183, Control_c, 0, 64, 101
2, 163186, Note_on_c, 0, 52, 58
2, 163196, Note_on_c, 0, 74, 82
2, 163202, Control_c, 0, 64, 70
2, 163218, Note_on_c, 0, 67, 66
2, 163222, Control_c, 0, 64, 23
2, 163240, Control_c, 0, 64, 0
2, 163317, Control_c, 0, 64, 30
2, 163317, Note_on_c, 0, 52, 0
2, 163323, Note_on_c, 0, 54, 65
2, 163337, Control_c, 0, 64, 58
2, 163356, Control_c, 0, 64, 66
2, 163375, Control_c, 0, 64, 70
2, 163394, Control_c, 0, 64, 75
2, 163411, Control_c, 0, 64, 83
2, 163430, Control_c, 0, 64, 94
2, 163449, Control_c, 0, 64, 101
2, 163452, Note_on_c, 0, 54, 0
2, 163456, Note_on_c, 0, 55, 80
2, 163468, Control_c, 0, 64, 104
2, 163488, Control_c, 0, 64, 104
2, 163506, Control_c, 0, 64, 105
2, 163526, Control_c, 0, 64, 108
2, 163545, Control_c, 0, 64, 115
2, 163556, Note_on_c, 0, 55, 0
2, 163565, Control_c, 0, 64, 127
2, 163578, Note_on_c, 0, 57, 74
2, 163699, Control_c, 0, 64, 110
2, 163699, Note_on_c, 0, 55, 77
2, 163700, Note_on_c, 0, 57, 0
2, 163717, Control_c, 0, 64, 97
2, 163737, Control_c, 0, 64, 81
2, 163756, Control_c, 0, 64, 64
2, 163776, Control_c, 0, 64, 0
2, 163811, Note_on_c, 0, 55, 0
2, 163823, Note_on_c, 0, 54, 75
2, 163929, Control_c, 0, 64, 15
2, 163948, Control_c, 0, 64, 44
2, 163948, Note_on_c, 0, 54, 0
2, 163950, Note_on_c, 0, 67, 0
2, 163956, Note_on_c, 0, 55, 70
2, 163968, Control_c, 0, 64, 63
2, 163970, Note_on_c, 0, 76, 89
2, 163972, Note_on_c, 0, 67, 40
2, 163986, Control_c, 0, 64, 70
2, 164005, Control_c, 0, 64, 78
2, 164015, Note_on_c, 0, 74, 0
2, 164024, Control_c, 0, 64, 91
2, 164044, Control_c, 0, 64, 114
2, 164062, Control_c, 0, 64, 127
2, 164078, Note_on_c, 0, 55, 0
2, 164090, Note_on_c, 0, 52, 70
2, 164133, Note_on_c, 0, 52, 0
2, 164158, Note_on_c, 0, 76, 0
2, 164258, Control_c, 0, 64, 110
2, 164267, Note_on_c, 0, 74, 75
2, 164271, Note_on_c, 0, 57, 59
2, 164277, Control_c, 0, 64, 70
2, 164297, Control_c, 0, 64, 0
2, 164337, Note_on_c, 0, 74, 0
2, 164346, Note_on_c, 0, 73, 74
2, 164374, Control_c, 0, 64, 51
2, 164388, Note_on_c, 0, 59, 67
2, 164392, Control_c, 0, 64, 71
2, 164403, Note_on_c, 0, 74, 73
2, 164412, Control_c, 0, 64, 89
2, 164422, Note_on_c, 0, 73, 0
2, 164431, Control_c, 0, 64, 127
2, 164490, Note_on_c, 0, 73, 84
2, 164501, Note_on_c, 0, 74, 0
2, 164507, Note_on_c, 0, 59, 0
2, 164515, Note_on_c, 0, 61, 68
2, 164585, Control_c, 0, 64, 112
2, 164604, Control_c, 0, 64, 69
2, 164621, Note_on_c, 0, 61, 0
2, 164623, Control_c, 0, 64, 0
2, 164639, Note_on_c, 0, 62, 70
2, 164711, Note_on_c, 0, 67, 0
2, 164738, Control_c, 0, 64, 50
2, 164757, Control_c, 0, 64, 63
2, 164772, Note_on_c, 0, 61, 75
2, 164775, Note_on_c, 0, 62, 0
2, 164777, Control_c, 0, 64, 69
2, 164796, Control_c, 0, 64, 76
2, 164807, Note_on_c, 0, 57, 0
2, 164815, Control_c, 0, 64, 99
2, 164834, Control_c, 0, 64, 127
2, 164878, Note_on_c, 0, 61, 0
2, 164891, Note_on_c, 0, 59, 74
2, 164999, Note_on_c, 0, 59, 0
2, 165006, Note_on_c, 0, 61, 79
2, 165021, Note_on_c, 0, 74, 82
2, 165051, Note_on_c, 0, 73, 0
2, 165097, Note_on_c, 0, 61, 0
2, 165130, Note_on_c, 0, 57, 64
2, 165137, Note_on_c, 0, 76, 85
2, 165166, Note_on_c, 0, 57, 0
2, 165173, Note_on_c, 0, 74, 0
2, 165276, Note_on_c, 0, 78, 89
2, 165278, Note_on_c, 0, 66, 83
2, 165284, Note_on_c, 0, 62, 77
2, 165289, Note_on_c, 0, 50, 78
2, 165314, Note_on_c, 0, 76, 0
2, 165332, Control_c, 0, 64, 94
2, 165351, Control_c, 0, 64, 57
2, 165370, Control_c, 0, 64, 0
2, 165413, Note_on_c, 0, 52, 73
2, 165460, Note_on_c, 0, 50, 0
2, 165546, Note_on_c, 0, 54, 77
2, 165573, Note_on_c, 0, 52, 0
2, 165665, Note_on_c, 0, 55, 77
2, 165667, Note_on_c, 0, 54, 0
2, 165767, Note_on_c, 0, 66, 0
2, 165789, Note_on_c, 0, 54, 80
2, 165804, Note_on_c, 0, 55, 0
2, 165902, Note_on_c, 0, 78, 0
2, 165919, Note_on_c, 0, 52, 70
2, 165946, Note_on_c, 0, 54, 0
2, 166068, Note_on_c, 0, 54, 72
2, 166070, Note_on_c, 0, 52, 0
2, 166203, Note_on_c, 0, 54, 0
2, 166228, Note_on_c, 0, 50, 53
2, 166444, Note_on_c, 0, 50, 0
2, 166477, Note_on_c, 0, 83, 56
2, 166517, Note_on_c, 0, 55, 15
2, 166636, Control_c, 0, 64, 46
2, 166656, Control_c, 0, 64, 61
2, 166674, Control_c, 0, 64, 65
2, 166694, Control_c, 0, 64, 67
2, 166713, Control_c, 0, 64, 71
2, 166717, Note_on_c, 0, 62, 0
2, 166732, Control_c, 0, 64, 80
2, 166751, Control_c, 0, 64, 99
2, 166771, Control_c, 0, 64, 127
2, 166803, Note_on_c, 0, 81, 66
2, 166847, Note_on_c, 0, 83, 0
2, 167027, Note_on_c, 0, 55, 0
2, 167081, Note_on_c, 0, 83, 75
2, 167097, Control_c, 0, 64, 85
2, 167111, Note_on_c, 0, 81, 0
2, 167116, Control_c, 0, 64, 66
2, 167136, Control_c, 0, 64, 35
2, 167154, Control_c, 0, 64, 0
2, 167174, Control_c, 0, 64, 11
2, 167193, Control_c, 0, 64, 54
2, 167212, Control_c, 0, 64, 66
2, 167231, Control_c, 0, 64, 73
2, 167251, Control_c, 0, 64, 85
2, 167270, Control_c, 0, 64, 127
2, 167364, Note_on_c, 0, 79, 78
2, 167396, Note_on_c, 0, 83, 0
2, 167503, Note_on_c, 0, 79, 0
2, 167668, Note_on_c, 0, 79, 70
2, 167681, Note_on_c, 0, 74, 47
2, 167683, Note_on_c, 0, 71, 49
2, 167692, Control_c, 0, 64, 121
2, 167711, Control_c, 0, 64, 77
2, 167731, Control_c, 0, 64, 59
2, 167750, Control_c, 0, 64, 0
2, 167827, Control_c, 0, 64, 47
2, 167846, Control_c, 0, 64, 61
2, 167865, Control_c, 0, 64, 66
2, 167885, Control_c, 0, 64, 71
2, 167903, Control_c, 0, 64, 80
2, 167923, Control_c, 0, 64, 98
2, 167942, Control_c, 0, 64, 127
2, 167949, Note_on_c, 0, 78, 77
2, 168032, Note_on_c, 0, 79, 0
2, 168069, Note_on_c, 0, 74, 0
2, 168078, Note_on_c, 0, 71, 0
2, 168191, Control_c, 0, 64, 90
2, 168211, Control_c, 0, 64, 66
2, 168224, Note_on_c, 0, 79, 86
2, 168230, Control_c, 0, 64, 0
2, 168263, Note_on_c, 0, 78, 0
2, 168403, Control_c, 0, 64, 13
2, 168422, Control_c, 0, 64, 52
2, 168441, Control_c, 0, 64, 65
2, 168460, Control_c, 0, 64, 76
2, 168479, Control_c, 0, 64, 114
2, 168499, Control_c, 0, 64, 127
2, 168499, Note_on_c, 0, 71, 73
2, 168506, Note_on_c, 0, 67, 68
2, 168508, Note_on_c, 0, 76, 84
2, 168516, Note_on_c, 0, 79, 0
2, 168592, Note_on_c, 0, 71, 0
2, 168615, Note_on_c, 0, 67, 0
2, 168669, Note_on_c, 0, 76, 0
2, 168788, Note_on_c, 0, 76, 64
2, 168793, Note_on_c, 0, 67, 76
2, 168795, Note_on_c, 0, 71, 82
2, 168801, Control_c, 0, 64, 79
2, 168821, Control_c, 0, 64, 27
2, 168840, Control_c, 0, 64, 0
2, 168902, Control_c, 0, 64, 49
2, 168921, Control_c, 0, 64, 70
2, 168940, Control_c, 0, 64, 88
2, 168959, Control_c, 0, 64, 127
2, 169078, Note_on_c, 0, 74, 91
2, 169079, Note_on_c, 0, 71, 0
2, 169103, Note_on_c, 0, 76, 0
2, 169142, Note_on_c, 0, 67, 0
2, 169382, Control_c, 0, 64, 91
2, 169385, Note_on_c, 0, 76, 94
2, 169401, Control_c, 0, 64, 56
2, 169420, Control_c, 0, 64, 0
2, 169431, Note_on_c, 0, 74, 0
2, 169477, Control_c, 0, 64, 18
2, 169497, Control_c, 0, 64, 55
2, 169516, Control_c, 0, 64, 67
2, 169536, Control_c, 0, 64, 77
2, 169554, Control_c, 0, 64, 101
2, 169574, Control_c, 0, 64, 127
2, 169720, Note_on_c, 0, 76, 0
2, 169737, Note_on_c, 0, 73, 95
2, 169742, Note_on_c, 0, 69, 83
2, 169746, Note_on_c, 0, 64, 84
2, 169820, Note_on_c, 0, 64, 0
2, 169860, Note_on_c, 0, 69, 0
2, 169862, Note_on_c, 0, 73, 0
2, 170220, Note_on_c, 0, 73, 93
2, 170227, Note_on_c, 0, 64, 86
2, 170229, Note_on_c, 0, 55, 80
2, 170234, Note_on_c, 0, 43, 74
2, 170236, Note_on_c, 0, 69, 78
2, 170286, Control_c, 0, 64, 104
2, 170304, Control_c, 0, 64, 64
2, 170324, Control_c, 0, 64, 0
2, 170461, Control_c, 0, 64, 27
2, 170480, Control_c, 0, 64, 44
2, 170500, Control_c, 0, 64, 58
2, 170518, Control_c, 0, 64, 64
2, 170538, Control_c, 0, 64, 68
2, 170557, Control_c, 0, 64, 73
2, 170576, Control_c, 0, 64, 87
2, 170595, Control_c, 0, 64, 127
2, 170979, Note_on_c, 0, 64, 0
2, 171043, Note_on_c, 0, 43, 0
2, 171045, Note_on_c, 0, 55, 0
2, 171130, Note_on_c, 0, 69, 0
2, 171360, Note_on_c, 0, 73, 0
2, 171799, Note_on_c, 0, 54, 75
2, 171808, Note_on_c, 0, 74, 90
2, 171817, Note_on_c, 0, 69, 82
2, 171820, Note_on_c, 0, 66, 82
2, 171919, Control_c, 0, 64, 87
2, 171939, Control_c, 0, 64, 59
2, 171951, Note_on_c, 0, 55, 71
2, 171957, Control_c, 0, 64, 0
2, 171969, Note_on_c, 0, 54, 0
2, 172061, Note_on_c, 0, 55, 0
2, 172082, Note_on_c, 0, 57, 65
2, 172091, Control_c, 0, 64, 47
2, 172111, Control_c, 0, 64, 61
2, 172130, Control_c, 0, 64, 65
2, 172150, Control_c, 0, 64, 66
2, 172168, Control_c, 0, 64, 68
2, 172187, Note_on_c, 0, 57, 0
2, 172188, Control_c, 0, 64, 73
2, 172199, Note_on_c, 0, 55, 75
2, 172207, Control_c, 0, 64, 81
2, 172226, Control_c, 0, 64, 90
2, 172245, Control_c, 0, 64, 92
2, 172265, Control_c, 0, 64, 92
2, 172284, Control_c, 0, 64, 91
2, 172303, Control_c, 0, 64, 93
2, 172313, Note_on_c, 0, 66, 0
2, 172322, Control_c, 0, 64, 96
2, 172326, Note_on_c, 0, 55, 0
2, 172328, Note_on_c, 0, 69, 0
2, 172328, Note_on_c, 0, 74, 0
2, 172332, Note_on_c, 0, 54, 77
2, 172342, Control_c, 0, 64, 101
2, 172360, Control_c, 0, 64, 108
2, 172380, Control_c, 0, 64, 112
2, 172408, Note_on_c, 0, 54, 0
2, 172437, Control_c, 0, 64, 112
2, 172438, Note_on_c, 0, 52, 78
2, 172457, Control_c, 0, 64, 114
2, 172476, Control_c, 0, 64, 118
2, 172495, Control_c, 0, 64, 121
2, 172514, Control_c, 0, 64, 119
2, 172533, Control_c, 0, 64, 110
2, 172553, Control_c, 0, 64, 92
2, 172559, Note_on_c, 0, 50, 80
2, 172559, Note_on_c, 0, 52, 0
2, 172571, Control_c, 0, 64, 72
2, 172571, Note_on_c, 0, 69, 87
2, 172578, Note_on_c, 0, 74, 86
2, 172584, Note_on_c, 0, 66, 74
2, 172591, Control_c, 0, 64, 48
2, 172610, Control_c, 0, 64, 0
2, 172686, Control_c, 0, 64, 34
2, 172689, Note_on_c, 0, 50, 0
2, 172698, Note_on_c, 0, 49, 77
2, 172705, Control_c, 0, 64, 58
2, 172724, Control_c, 0, 64, 65
2, 172745, Control_c, 0, 64, 69
2, 172751, Note_on_c, 0, 66, 0
2, 172764, Control_c, 0, 64, 74
2, 172770, Note_on_c, 0, 74, 0
2, 172783, Control_c, 0, 64, 90
2, 172800, Note_on_c, 0, 69, 0
2, 172802, Control_c, 0, 64, 110
2, 172819, Control_c, 0, 64, 127
2, 172831, Note_on_c, 0, 47, 74
2, 172832, Note_on_c, 0, 49, 0
2, 172837, Control_c, 0, 64, 119
2, 172847, Note_on_c, 0, 74, 83
2, 172855, Note_on_c, 0, 71, 83
2, 172857, Control_c, 0, 64, 98
2, 172866, Note_on_c, 0, 66, 76
2, 172876, Control_c, 0, 64, 77
2, 172896, Control_c, 0, 64, 59
2, 172914, Control_c, 0, 64, 0
2, 172953, Control_c, 0, 64, 51
2, 172972, Control_c, 0, 64, 68
2, 172972, Note_on_c, 0, 49, 75
2, 172979, Note_on_c, 0, 47, 0
2, 172991, Control_c, 0, 64, 80
2, 173011, Control_c, 0, 64, 96
2, 173030, Control_c, 0, 64, 92
2, 173049, Control_c, 0, 64, 74
2, 173068, Control_c, 0, 64, 59
2, 173078, Note_on_c, 0, 49, 0
2, 173088, Control_c, 0, 64, 0
2, 173092, Note_on_c, 0, 50, 76
2, 173145, Control_c, 0, 64, 41
2, 173165, Control_c, 0, 64, 59
2, 173183, Control_c, 0, 64, 61
2, 173196, Note_on_c, 0, 49, 80
2, 173202, Control_c, 0, 64, 54
2, 173212, Note_on_c, 0, 50, 0
2, 173222, Control_c, 0, 64, 27
2, 173241, Control_c, 0, 64, 0
2, 173299, Control_c, 0, 64, 30
2, 173311, Note_on_c, 0, 74, 0
2, 173317, Control_c, 0, 64, 61
2, 173318, Note_on_c, 0, 71, 0
2, 173322, Note_on_c, 0, 47, 79
2, 173337, Control_c, 0, 64, 68
2, 173348, Note_on_c, 0, 49, 0
2, 173356, Control_c, 0, 64, 73
2, 173376, Control_c, 0, 64, 76
2, 173394, Control_c, 0, 64, 78
2, 173414, Control_c, 0, 64, 78
2, 173425, Note_on_c, 0, 66, 0
2, 173433, Control_c, 0, 64, 80
2, 173445, Note_on_c, 0, 45, 81
2, 173452, Control_c, 0, 64, 82
2, 173471, Control_c, 0, 64, 83
2, 173491, Control_c, 0, 64, 81
2, 173503, Note_on_c, 0, 47, 0
2, 173510, Control_c, 0, 64, 74
2, 173529, Control_c, 0, 64, 65
2, 173548, Control_c, 0, 64, 34
2, 173568, Control_c, 0, 64, 0
2, 173568, Note_on_c, 0, 45, 0
2, 173583, Note_on_c, 0, 47, 77
2, 173584, Note_on_c, 0, 76, 92
2, 173590, Note_on_c, 0, 71, 82
2, 173599, Note_on_c, 0, 67, 75
2, 173641, Control_c, 0, 64, 25
2, 173661, Control_c, 0, 64, 50
2, 173679, Control_c, 0, 64, 59
2, 173700, Control_c, 0, 64, 62
2, 173722, Note_on_c, 0, 43, 73
2, 173738, Control_c, 0, 64, 63
2, 173757, Control_c, 0, 64, 63
2, 173768, Note_on_c, 0, 47, 0
2, 173777, Control_c, 0, 64, 64
2, 173796, Control_c, 0, 64, 64
2, 173801, Note_on_c, 0, 67, 0
2, 173801, Note_on_c, 0, 76, 0
2, 173854, Control_c, 0, 64, 64
2, 173872, Control_c, 0, 64, 63
2, 173892, Control_c, 0, 64, 63
2, 173911, Control_c, 0, 64, 60
2, 173931, Control_c, 0, 64, 47
2, 173944, Note_on_c, 0, 45, 73
2, 173947, Note_on_c, 0, 74, 84
2, 173949, Control_c, 0, 64, 0
2, 173949, Note_on_c, 0, 69, 81
2, 173958, Note_on_c, 0, 64, 71
2, 173974, Note_on_c, 0, 71, 0
2, 173985, Note_on_c, 0, 43, 0
2, 174084, Control_c, 0, 64, 40
2, 174103, Control_c, 0, 64, 60
2, 174122, Control_c, 0, 64, 66
2, 174128, Note_on_c, 0, 69, 0
2, 174142, Control_c, 0, 64, 71
2, 174151, Note_on_c, 0, 73, 74
2, 174160, Control_c, 0, 64, 79
2, 174167, Note_on_c, 0, 74, 0
2, 174180, Control_c, 0, 64, 90
2, 174199, Control_c, 0, 64, 112
2, 174218, Control_c, 0, 64, 127
2, 174262, Note_on_c, 0, 73, 0
2, 174269, Note_on_c, 0, 71, 75
2, 174360, Note_on_c, 0, 71, 0
2, 174365, Note_on_c, 0, 73, 75
2, 174435, Note_on_c, 0, 73, 0
2, 174441, Note_on_c, 0, 74, 74
2, 174447, Note_on_c, 0, 45, 0
2, 174527, Note_on_c, 0, 73, 74
2, 174529, Note_on_c, 0, 74, 0
2, 174583, Note_on_c, 0, 73, 0
2, 174592, Note_on_c, 0, 74, 68
2, 174659, Note_on_c, 0, 73, 81
2, 174749, Note_on_c, 0, 74, 0
2, 174779, Control_c, 0, 64, 81
2, 174798, Control_c, 0, 64, 59
2, 174817, Control_c, 0, 64, 0
2, 174832, Note_on_c, 0, 45, 74
2, 174856, Control_c, 0, 64, 18
2, 174875, Control_c, 0, 64, 58
2, 174894, Control_c, 0, 64, 68
2, 174913, Control_c, 0, 64, 77
2, 174921, Note_on_c, 0, 64, 0
2, 174933, Control_c, 0, 64, 94
2, 174952, Control_c, 0, 64, 127
2, 174982, Note_on_c, 0, 73, 0
2, 174982, Note_on_c, 0, 74, 84
2, 175101, Note_on_c, 0, 74, 0
2, 175217, Note_on_c, 0, 45, 0
2, 175223, Note_on_c, 0, 74, 96
2, 175234, Note_on_c, 0, 66, 76
2, 175234, Note_on_c, 0, 69, 69
2, 175235, Note_on_c, 0, 38, 66
2, 175239, Control_c, 0, 64, 86
2, 175259, Control_c, 0, 64, 51
2, 175278, Control_c, 0, 64, 0
2, 175393, Control_c, 0, 64, 35
2, 175413, Control_c, 0, 64, 59
2, 175432, Control_c, 0, 64, 68
2, 175451, Control_c, 0, 64, 79
2, 175470, Control_c, 0, 64, 111
2, 175490, Control_c, 0, 64, 127
2, 175642, Note_on_c, 0, 38, 0
2, 175674, Note_on_c, 0, 66, 0
2, 175770, Note_on_c, 0, 69, 0
2, 176399, Note_on_c, 0, 50, 43
2, 176446, Control_c, 0, 64, 119
2, 176465, Control_c, 0, 64, 87
2, 176483, Control_c, 0, 64, 66
2, 176486, Note_on_c, 0, 50, 0
2, 176503, Control_c, 0, 64, 47
2, 176522, Control_c, 0, 64, 15
2, 176538, Note_on_c, 0, 52, 32
2, 176542, Control_c, 0, 64, 30
2, 176560, Control_c, 0, 64, 43
2, 176579, Control_c, 0, 64, 55
2, 176598, Control_c, 0, 64, 62
2, 176603, Note_on_c, 0, 74, 0
2, 176617, Control_c, 0, 64, 64
2, 176622, Note_on_c, 0, 52, 0
2, 176636, Control_c, 0, 64, 66
2, 176656, Control_c, 0, 64, 69
2, 176664, Note_on_c, 0, 54, 38
2, 176675, Control_c, 0, 64, 72
2, 176694, Control_c, 0, 64, 75
2, 176713, Control_c, 0, 64, 77
2, 176733, Control_c, 0, 64, 77
2, 176748, Note_on_c, 0, 54, 0
2, 176752, Control_c, 0, 64, 76
2, 176771, Control_c, 0, 64, 74
2, 176790, Control_c, 0, 64, 71
2, 176810, Control_c, 0, 64, 65
2, 176811, Note_on_c, 0, 71, 39
2, 176828, Control_c, 0, 64, 55
2, 176838, Note_on_c, 0, 55, 17
2, 176848, Control_c, 0, 64, 27
2, 176867, Control_c, 0, 64, 18
2, 176887, Control_c, 0, 64, 23
2, 176902, Note_on_c, 0, 71, 0
2, 176905, Control_c, 0, 64, 34
2, 176925, Control_c, 0, 64, 42
2, 176942, Note_on_c, 0, 73, 42
2, 176944, Control_c, 0, 64, 54
2, 176962, Control_c, 0, 64, 62
2, 176982, Control_c, 0, 64, 64
2, 177001, Control_c, 0, 64, 65
2, 177021, Control_c, 0, 64, 66
2, 177039, Control_c, 0, 64, 69
2, 177059, Control_c, 0, 64, 74
2, 177063, Note_on_c, 0, 73, 0
2, 177072, Note_on_c, 0, 74, 53
2, 177078, Control_c, 0, 64, 80
2, 177097, Control_c, 0, 64, 83
2, 177116, Control_c, 0, 64, 82
2, 177136, Control_c, 0, 64, 79
2, 177155, Control_c, 0, 64, 74
2, 177174, Control_c, 0, 64, 64
2, 177174, Note_on_c, 0, 74, 0
2, 177193, Control_c, 0, 64, 44
2, 177196, Note_on_c, 0, 76, 58
2, 177213, Control_c, 0, 64, 0
2, 177308, Control_c, 0, 64, 11
2, 177311, Note_on_c, 0, 76, 0
2, 177323, Note_on_c, 0, 74, 61
2, 177328, Control_c, 0, 64, 47
2, 177347, Control_c, 0, 64, 63
2, 177367, Control_c, 0, 64, 66
2, 177385, Control_c, 0, 64, 67
2, 177405, Control_c, 0, 64, 68
2, 177424, Control_c, 0, 64, 72
2, 177436, Note_on_c, 0, 74, 0
2, 177442, Control_c, 0, 64, 82
2, 177452, Note_on_c, 0, 73, 64
2, 177462, Control_c, 0, 64, 94
2, 177481, Control_c, 0, 64, 103
2, 177501, Control_c, 0, 64, 104
2, 177546, Control_c, 0, 64, 105
2, 177565, Control_c, 0, 64, 106
2, 177567, Note_on_c, 0, 73, 0
2, 177584, Control_c, 0, 64, 106
2, 177587, Note_on_c, 0, 74, 65
2, 177694, Note_on_c, 0, 74, 0
2, 177697, Note_on_c, 0, 71, 68
2, 177738, Control_c, 0, 64, 105
2, 177739, Note_on_c, 0, 71, 0
2, 177756, Control_c, 0, 64, 103
2, 177776, Control_c, 0, 64, 99
2, 177789, Note_on_c, 0, 55, 0
2, 177795, Control_c, 0, 64, 90
2, 177815, Control_c, 0, 64, 75
2, 177833, Control_c, 0, 64, 62
2, 177850, Note_on_c, 0, 71, 49
2, 177853, Control_c, 0, 64, 0
2, 177867, Note_on_c, 0, 76, 57
2, 177887, Note_on_c, 0, 49, 45
2, 177910, Control_c, 0, 64, 18
2, 177930, Control_c, 0, 64, 50
2, 177949, Control_c, 0, 64, 62
2, 177968, Control_c, 0, 64, 65
2, 177978, Note_on_c, 0, 49, 0
2, 177987, Control_c, 0, 64, 65
2, 178007, Control_c, 0, 64, 66
2, 178012, Note_on_c, 0, 50, 49
2, 178026, Control_c, 0, 64, 67
2, 178045, Control_c, 0, 64, 66
2, 178064, Control_c, 0, 64, 66
2, 178083, Control_c, 0, 64, 65
2, 178102, Control_c, 0, 64, 64
2, 178119, Note_on_c, 0, 50, 0
2, 178121, Control_c, 0, 64, 61
2, 178141, Control_c, 0, 64, 40
2, 178146, Note_on_c, 0, 52, 54
2, 178160, Control_c, 0, 64, 0
2, 178234, Note_on_c, 0, 52, 0
2, 178252, Note_on_c, 0, 54, 68
2, 178352, Note_on_c, 0, 54, 0
2, 178384, Note_on_c, 0, 52, 65
2, 178439, Note_on_c, 0, 71, 0
2, 178492, Note_on_c, 0, 52, 0
2, 178502, Note_on_c, 0, 76, 0
2, 178507, Note_on_c, 0, 50, 62
2, 178611, Note_on_c, 0, 50, 0
2, 178649, Note_on_c, 0, 52, 56
2, 178742, Note_on_c, 0, 52, 0
2, 178783, Note_on_c, 0, 49, 52
2, 178868, Note_on_c, 0, 49, 0
2, 178914, Note_on_c, 0, 69, 50
2, 178937, Note_on_c, 0, 54, 40
2, 178982, Control_c, 0, 64, 36
2, 179001, Control_c, 0, 64, 55
2, 179020, Control_c, 0, 64, 62
2, 179024, Note_on_c, 0, 69, 0
2, 179039, Control_c, 0, 64, 64
2, 179039, Note_on_c, 0, 71, 50
2, 179059, Control_c, 0, 64, 65
2, 179077, Control_c, 0, 64, 66
2, 179097, Control_c, 0, 64, 68
2, 179116, Control_c, 0, 64, 73
2, 179136, Control_c, 0, 64, 79
2, 179154, Control_c, 0, 64, 86
2, 179174, Control_c, 0, 64, 91
2, 179174, Note_on_c, 0, 71, 0
2, 179175, Note_on_c, 0, 73, 61
2, 179193, Control_c, 0, 64, 95
2, 179212, Control_c, 0, 64, 97
2, 179231, Control_c, 0, 64, 99
2, 179251, Control_c, 0, 64, 101
2, 179270, Control_c, 0, 64, 102
2, 179279, Note_on_c, 0, 73, 0
2, 179301, Note_on_c, 0, 74, 60
2, 179366, Control_c, 0, 64, 101
2, 179384, Control_c, 0, 64, 96
2, 179401, Note_on_c, 0, 74, 0
2, 179403, Control_c, 0, 64, 85
2, 179418, Note_on_c, 0, 73, 74
2, 179422, Control_c, 0, 64, 71
2, 179441, Control_c, 0, 64, 56
2, 179462, Control_c, 0, 64, 0
2, 179500, Control_c, 0, 64, 25
2, 179519, Control_c, 0, 64, 58
2, 179539, Control_c, 0, 64, 65
2, 179543, Note_on_c, 0, 71, 77
2, 179556, Note_on_c, 0, 73, 0
2, 179557, Control_c, 0, 64, 70
2, 179577, Control_c, 0, 64, 79
2, 179596, Control_c, 0, 64, 97
2, 179616, Control_c, 0, 64, 127
2, 179663, Note_on_c, 0, 54, 0
2, 179672, Note_on_c, 0, 73, 70
2, 179735, Note_on_c, 0, 71, 0
2, 179790, Note_on_c, 0, 69, 74
2, 179801, Note_on_c, 0, 73, 0
2, 179841, Note_on_c, 0, 69, 0
2, 179846, Control_c, 0, 64, 96
2, 179865, Control_c, 0, 64, 76
2, 179885, Control_c, 0, 64, 60
2, 179903, Control_c, 0, 64, 0
2, 179937, Note_on_c, 0, 74, 62
2, 179951, Note_on_c, 0, 47, 41
2, 179955, Note_on_c, 0, 62, 45
2, 179969, Note_on_c, 0, 69, 43
2, 180061, Note_on_c, 0, 49, 62
2, 180064, Note_on_c, 0, 47, 0
2, 180176, Note_on_c, 0, 49, 0
2, 180186, Note_on_c, 0, 50, 67
2, 180298, Note_on_c, 0, 50, 0
2, 180314, Note_on_c, 0, 52, 65
2, 180374, Note_on_c, 0, 62, 0
2, 180440, Note_on_c, 0, 52, 0
2, 180448, Note_on_c, 0, 50, 72
2, 180475, Note_on_c, 0, 69, 0
2, 180516, Note_on_c, 0, 74, 0
2, 180553, Note_on_c, 0, 50, 0
2, 180572, Note_on_c, 0, 49, 68
2, 180677, Note_on_c, 0, 49, 0
2, 180697, Note_on_c, 0, 50, 67
2, 180796, Note_on_c, 0, 50, 0
2, 180839, Note_on_c, 0, 47, 52
2, 180933, Note_on_c, 0, 47, 0
2, 180958, Control_c, 0, 64, 45
2, 180978, Control_c, 0, 64, 58
2, 180980, Note_on_c, 0, 67, 57
2, 180996, Control_c, 0, 64, 61
2, 180996, Note_on_c, 0, 52, 44
2, 181016, Control_c, 0, 64, 62
2, 181035, Control_c, 0, 64, 62
2, 181093, Control_c, 0, 64, 62
2, 181097, Note_on_c, 0, 69, 61
2, 181098, Note_on_c, 0, 52, 0
2, 181102, Note_on_c, 0, 67, 0
2, 181112, Control_c, 0, 64, 61
2, 181117, Note_on_c, 0, 54, 58
2, 181132, Control_c, 0, 64, 60
2, 181150, Control_c, 0, 64, 58
2, 181170, Control_c, 0, 64, 54
2, 181189, Control_c, 0, 64, 43
2, 181208, Control_c, 0, 64, 0
2, 181222, Note_on_c, 0, 54, 0
2, 181237, Note_on_c, 0, 71, 70
2, 181242, Note_on_c, 0, 55, 57
2, 181243, Note_on_c, 0, 69, 0
2, 181343, Note_on_c, 0, 55, 0
2, 181353, Note_on_c, 0, 72, 71
2, 181358, Note_on_c, 0, 57, 59
2, 181360, Note_on_c, 0, 71, 0
2, 181472, Note_on_c, 0, 57, 0
2, 181486, Note_on_c, 0, 71, 81
2, 181489, Note_on_c, 0, 55, 66
2, 181512, Note_on_c, 0, 72, 0
2, 181590, Note_on_c, 0, 55, 0
2, 181611, Note_on_c, 0, 54, 65
2, 181611, Note_on_c, 0, 69, 74
2, 181626, Note_on_c, 0, 71, 0
2, 181726, Note_on_c, 0, 54, 0
2, 181741, Note_on_c, 0, 71, 80
2, 181747, Note_on_c, 0, 55, 62
2, 181756, Note_on_c, 0, 69, 0
2, 181829, Note_on_c, 0, 71, 0
2, 181841, Note_on_c, 0, 55, 0
2, 181853, Note_on_c, 0, 52, 61
2, 181863, Note_on_c, 0, 67, 69
2, 181975, Note_on_c, 0, 52, 0
2, 182000, Note_on_c, 0, 73, 71
2, 182010, Note_on_c, 0, 57, 53
2, 182040, Note_on_c, 0, 67, 0
2, 182092, Control_c, 0, 64, 39
2, 182110, Control_c, 0, 64, 55
2, 182130, Control_c, 0, 64, 61
2, 182132, Note_on_c, 0, 74, 78
2, 182139, Note_on_c, 0, 59, 73
2, 182149, Control_c, 0, 64, 62
2, 182157, Note_on_c, 0, 57, 0
2, 182166, Note_on_c, 0, 73, 0
2, 182168, Control_c, 0, 64, 63
2, 182207, Control_c, 0, 64, 64
2, 182244, Control_c, 0, 64, 63
2, 182256, Note_on_c, 0, 76, 79
2, 182264, Control_c, 0, 64, 62
2, 182271, Note_on_c, 0, 59, 0
2, 182272, Note_on_c, 0, 61, 69
2, 182283, Control_c, 0, 64, 57
2, 182290, Note_on_c, 0, 74, 0
2, 182302, Control_c, 0, 64, 37
2, 182321, Control_c, 0, 64, 0
2, 182379, Note_on_c, 0, 61, 0
2, 182388, Note_on_c, 0, 78, 81
2, 182394, Note_on_c, 0, 62, 70
2, 182399, Control_c, 0, 64, 18
2, 182419, Control_c, 0, 64, 55
2, 182422, Note_on_c, 0, 76, 0
2, 182437, Control_c, 0, 64, 63
2, 182457, Control_c, 0, 64, 65
2, 182496, Control_c, 0, 64, 64
2, 182512, Note_on_c, 0, 61, 81
2, 182514, Control_c, 0, 64, 61
2, 182516, Note_on_c, 0, 62, 0
2, 182516, Note_on_c, 0, 76, 83
2, 182534, Control_c, 0, 64, 53
2, 182553, Control_c, 0, 64, 23
2, 182554, Note_on_c, 0, 78, 0
2, 182572, Control_c, 0, 64, 0
2, 182630, Control_c, 0, 64, 32
2, 182636, Note_on_c, 0, 74, 85
2, 182638, Note_on_c, 0, 61, 0
2, 182646, Note_on_c, 0, 59, 75
2, 182649, Control_c, 0, 64, 60
2, 182650, Note_on_c, 0, 76, 0
2, 182668, Control_c, 0, 64, 66
2, 182688, Control_c, 0, 64, 67
2, 182726, Control_c, 0, 64, 66
2, 182745, Control_c, 0, 64, 63
2, 182764, Control_c, 0, 64, 46
2, 182769, Note_on_c, 0, 76, 86
2, 182773, Note_on_c, 0, 59, 0
2, 182773, Note_on_c, 0, 61, 78
2, 182781, Note_on_c, 0, 74, 0
2, 182783, Control_c, 0, 64, 0
2, 182860, Control_c, 0, 64, 41
2, 182872, Note_on_c, 0, 76, 0
2, 182879, Control_c, 0, 64, 63
2, 182899, Control_c, 0, 64, 68
2, 182902, Note_on_c, 0, 61, 0
2, 182903, Note_on_c, 0, 57, 76
2, 182903, Note_on_c, 0, 73, 80
2, 182917, Control_c, 0, 64, 71
2, 182937, Control_c, 0, 64, 76
2, 182956, Control_c, 0, 64, 83
2, 182976, Control_c, 0, 64, 85
2, 182994, Control_c, 0, 64, 83
2, 182994, Note_on_c, 0, 57, 0
2, 183014, Control_c, 0, 64, 78
2, 183033, Control_c, 0, 64, 69
2, 183043, Note_on_c, 0, 62, 60
2, 183051, Note_on_c, 0, 78, 73
2, 183052, Control_c, 0, 64, 56
2, 183067, Note_on_c, 0, 73, 0
2, 183071, Control_c, 0, 64, 0
2, 183148, Control_c, 0, 64, 36
2, 183168, Control_c, 0, 64, 54
2, 183175, Note_on_c, 0, 79, 82
2, 183176, Note_on_c, 0, 64, 69
2, 183182, Note_on_c, 0, 62, 0
2, 183187, Control_c, 0, 64, 61
2, 183193, Note_on_c, 0, 78, 0
2, 183204, Control_c, 0, 64, 63
2, 183225, Control_c, 0, 64, 63
2, 183244, Control_c, 0, 64, 64
2, 183263, Control_c, 0, 64, 65
2, 183282, Control_c, 0, 64, 66
2, 183304, Control_c, 0, 64, 65
2, 183309, Note_on_c, 0, 81, 87
2, 183313, Note_on_c, 0, 66, 74
2, 183321, Note_on_c, 0, 64, 0
2, 183322, Control_c, 0, 64, 64
2, 183342, Control_c, 0, 64, 59
2, 183353, Note_on_c, 0, 79, 0
2, 183361, Control_c, 0, 64, 45
2, 183381, Control_c, 0, 64, 32
2, 183399, Control_c, 0, 64, 40
2, 183419, Control_c, 0, 64, 49
2, 183438, Control_c, 0, 64, 57
2, 183447, Note_on_c, 0, 67, 77
2, 183449, Note_on_c, 0, 83, 90
2, 183453, Note_on_c, 0, 66, 0
2, 183457, Control_c, 0, 64, 62
2, 183476, Control_c, 0, 64, 65
2, 183483, Note_on_c, 0, 81, 0
2, 183496, Control_c, 0, 64, 67
2, 183515, Control_c, 0, 64, 67
2, 183553, Control_c, 0, 64, 66
2, 183573, Control_c, 0, 64, 63
2, 183585, Note_on_c, 0, 66, 82
2, 183592, Control_c, 0, 64, 41
2, 183595, Note_on_c, 0, 81, 93
2, 183611, Control_c, 0, 64, 0
2, 183617, Note_on_c, 0, 67, 0
2, 183649, Note_on_c, 0, 83, 0
2, 183707, Control_c, 0, 64, 42
2, 183727, Control_c, 0, 64, 62
2, 183736, Note_on_c, 0, 64, 80
2, 183737, Note_on_c, 0, 79, 90
2, 183745, Control_c, 0, 64, 65
2, 183749, Note_on_c, 0, 66, 0
2, 183772, Note_on_c, 0, 81, 0
2, 183784, Control_c, 0, 64, 66
2, 183802, Control_c, 0, 64, 67
2, 183822, Control_c, 0, 64, 70
2, 183841, Control_c, 0, 64, 72
2, 183861, Control_c, 0, 64, 69
2, 183875, Note_on_c, 0, 66, 84
2, 183879, Control_c, 0, 64, 61
2, 183888, Note_on_c, 0, 64, 0
2, 183889, Note_on_c, 0, 81, 89
2, 183899, Control_c, 0, 64, 0
2, 183928, Note_on_c, 0, 79, 0
2, 184041, Note_on_c, 0, 78, 94
2, 184051, Note_on_c, 0, 62, 73
2, 184053, Control_c, 0, 64, 50
2, 184061, Note_on_c, 0, 81, 0
2, 184062, Note_on_c, 0, 66, 0
2, 184072, Control_c, 0, 64, 61
2, 184091, Control_c, 0, 64, 66
2, 184110, Control_c, 0, 64, 71
2, 184130, Control_c, 0, 64, 79
2, 184148, Control_c, 0, 64, 91
2, 184168, Control_c, 0, 64, 103
2, 184186, Control_c, 0, 64, 115
2, 184206, Control_c, 0, 64, 127
2, 184300, Note_on_c, 0, 78, 0
2, 184329, Note_on_c, 0, 62, 0
2, 184343, Note_on_c, 0, 83, 98
2, 184345, Note_on_c, 0, 67, 79
2, 184357, Control_c, 0, 64, 87
2, 184376, Control_c, 0, 64, 61
2, 184395, Control_c, 0, 64, 0
2, 184530, Control_c, 0, 64, 37
2, 184549, Control_c, 0, 64, 58
2, 184568, Control_c, 0, 64, 64
2, 184587, Control_c, 0, 64, 70
2, 184607, Control_c, 0, 64, 86
2, 184626, Control_c, 0, 64, 127
2, 184738, Note_on_c, 0, 67, 0
2, 184891, Note_on_c, 0, 83, 0
2, 185564, Note_on_c, 0, 73, 93
2, 185576, Note_on_c, 0, 69, 76
2, 185578, Note_on_c, 0, 55, 79
2, 185579, Note_on_c, 0, 64, 77
2, 185583, Control_c, 0, 64, 91
2, 185584, Note_on_c, 0, 43, 70
2, 185602, Control_c, 0, 64, 59
2, 185621, Control_c, 0, 64, 0
2, 185679, Control_c, 0, 64, 50
2, 185698, Control_c, 0, 64, 72
2, 185718, Control_c, 0, 64, 97
2, 185734, Note_on_c, 0, 64, 0
2, 185736, Control_c, 0, 64, 127
2, 185762, Note_on_c, 0, 43, 0
2, 185769, Note_on_c, 0, 55, 0
2, 185816, Note_on_c, 0, 69, 0
2, 185836, Note_on_c, 0, 73, 0
2, 185895, Note_on_c, 0, 74, 95
2, 185904, Note_on_c, 0, 66, 78
2, 185906, Note_on_c, 0, 54, 82
2, 185911, Note_on_c, 0, 42, 78
2, 185915, Note_on_c, 0, 69, 75
2, 185947, Control_c, 0, 64, 91
2, 185953, Note_on_c, 0, 73, 67
2, 185967, Control_c, 0, 64, 60
2, 185986, Control_c, 0, 64, 0
2, 186024, Note_on_c, 0, 73, 0
2, 186101, Control_c, 0, 64, 44
2, 186121, Control_c, 0, 64, 64
2, 186139, Control_c, 0, 64, 68
2, 186159, Control_c, 0, 64, 78
2, 186180, Control_c, 0, 64, 101
2, 186199, Control_c, 0, 64, 127
2, 186305, Note_on_c, 0, 54, 0
2, 186343, Note_on_c, 0, 42, 0
2, 186356, Note_on_c, 0, 69, 0
2, 186620, Note_on_c, 0, 74, 0
2, 186712, Note_on_c, 0, 66, 0
2, 186929, Control_c, 0, 64, 81
2, 186948, Control_c, 0, 64, 57
2, 186952, Note_on_c, 0, 76, 88
2, 186956, Note_on_c, 0, 73, 81
2, 186960, Note_on_c, 0, 67, 76
2, 186961, Note_on_c, 0, 52, 79
2, 186967, Control_c, 0, 64, 44
2, 186973, Note_on_c, 0, 40, 65
2, 186986, Control_c, 0, 64, 61
2, 187006, Control_c, 0, 64, 69
2, 187024, Control_c, 0, 64, 83
2, 187037, Note_on_c, 0, 67, 0
2, 187044, Control_c, 0, 64, 127
2, 187046, Note_on_c, 0, 73, 0
2, 187058, Note_on_c, 0, 52, 0
2, 187079, Note_on_c, 0, 40, 0
2, 187136, Note_on_c, 0, 76, 0
2, 187266, Note_on_c, 0, 78, 99
2, 187270, Note_on_c, 0, 74, 81
2, 187274, Note_on_c, 0, 69, 83
2, 187290, Note_on_c, 0, 50, 73
2, 187300, Note_on_c, 0, 38, 71
2, 187309, Control_c, 0, 64, 74
2, 187328, Control_c, 0, 64, 29
2, 187347, Control_c, 0, 64, 0
2, 187520, Control_c, 0, 64, 43
2, 187539, Control_c, 0, 64, 61
2, 187559, Control_c, 0, 64, 66
2, 187578, Control_c, 0, 64, 71
2, 187597, Control_c, 0, 64, 83
2, 187616, Control_c, 0, 64, 127
2, 187677, Note_on_c, 0, 69, 0
2, 187727, Note_on_c, 0, 74, 0
2, 187727, Note_on_c, 0, 78, 0
2, 187779, Note_on_c, 0, 38, 0
2, 187912, Note_on_c, 0, 50, 0
2, 188353, Note_on_c, 0, 66, 88
2, 188364, Note_on_c, 0, 48, 72
2, 188366, Note_on_c, 0, 62, 76
2, 188370, Note_on_c, 0, 57, 75
2, 188379, Note_on_c, 0, 36, 64
2, 188543, Note_on_c, 0, 57, 0
2, 188544, Note_on_c, 0, 62, 0
2, 188549, Note_on_c, 0, 48, 0
2, 188562, Note_on_c, 0, 36, 0
2, 188589, Note_on_c, 0, 66, 0
2, 188664, Note_on_c, 0, 67, 94
2, 188672, Note_on_c, 0, 59, 84
2, 188676, Note_on_c, 0, 62, 79
2, 188686, Note_on_c, 0, 47, 68
2, 188687, Note_on_c, 0, 35, 68
2, 188699, Control_c, 0, 64, 81
2, 188718, Control_c, 0, 64, 51
2, 188738, Control_c, 0, 64, 0
2, 189025, Control_c, 0, 64, 46
2, 189044, Control_c, 0, 64, 59
2, 189062, Control_c, 0, 64, 63
2, 189081, Control_c, 0, 64, 65
2, 189100, Control_c, 0, 64, 67
2, 189119, Control_c, 0, 64, 74
2, 189139, Control_c, 0, 64, 86
2, 189158, Control_c, 0, 64, 105
2, 189176, Control_c, 0, 64, 127
2, 189262, Note_on_c, 0, 59, 0
2, 189317, Note_on_c, 0, 62, 0
2, 189371, Note_on_c, 0, 47, 0
2, 189400, Note_on_c, 0, 35, 0
2, 189400, Note_on_c, 0, 67, 0
2, 189708, Note_on_c, 0, 69, 89
2, 189717, Note_on_c, 0, 45, 73
2, 189724, Note_on_c, 0, 33, 66
2, 189725, Note_on_c, 0, 66, 77
2, 189726, Note_on_c, 0, 60, 70
2, 189733, Control_c, 0, 64, 89
2, 189753, Control_c, 0, 64, 65
2, 189772, Control_c, 0, 64, 0
2, 189810, Control_c, 0, 64, 50
2, 189830, Control_c, 0, 64, 66
2, 189849, Control_c, 0, 64, 75
2, 189868, Control_c, 0, 64, 96
2, 189887, Control_c, 0, 64, 127
2, 189904, Note_on_c, 0, 60, 0
2, 189912, Note_on_c, 0, 45, 0
2, 189917, Note_on_c, 0, 33, 0
2, 189955, Note_on_c, 0, 66, 0
2, 189972, Note_on_c, 0, 69, 0
2, 190031, Note_on_c, 0, 71, 94
2, 190040, Note_on_c, 0, 43, 75
2, 190040, Note_on_c, 0, 67, 84
2, 190041, Note_on_c, 0, 62, 84
2, 190045, Note_on_c, 0, 31, 73
2, 190060, Control_c, 0, 64, 102
2, 190079, Control_c, 0, 64, 70
2, 190099, Control_c, 0, 64, 0
2, 190290, Control_c, 0, 64, 17
2, 190310, Control_c, 0, 64, 43
2, 190329, Control_c, 0, 64, 58
2, 190348, Control_c, 0, 64, 63
2, 190367, Control_c, 0, 64, 65
2, 190387, Control_c, 0, 64, 67
2, 190405, Control_c, 0, 64, 71
2, 190425, Control_c, 0, 64, 78
2, 190444, Control_c, 0, 64, 91
2, 190464, Control_c, 0, 64, 127
2, 190628, Note_on_c, 0, 43, 0
2, 190651, Note_on_c, 0, 31, 0
2, 190699, Note_on_c, 0, 67, 0
2, 190720, Note_on_c, 0, 62, 0
2, 190750, Note_on_c, 0, 71, 0
2, 191135, Control_c, 0, 64, 112
2, 191145, Note_on_c, 0, 71, 94
2, 191155, Control_c, 0, 64, 70
2, 191155, Note_on_c, 0, 62, 81
2, 191156, Note_on_c, 0, 67, 76
2, 191161, Note_on_c, 0, 42, 78
2, 191165, Note_on_c, 0, 30, 73
2, 191173, Control_c, 0, 64, 32
2, 191193, Control_c, 0, 64, 0
2, 191231, Control_c, 0, 64, 55
2, 191250, Control_c, 0, 64, 66
2, 191270, Control_c, 0, 64, 74
2, 191289, Control_c, 0, 64, 91
2, 191293, Note_on_c, 0, 42, 0
2, 191308, Control_c, 0, 64, 127
2, 191309, Note_on_c, 0, 62, 0
2, 191374, Note_on_c, 0, 71, 0
2, 191408, Note_on_c, 0, 67, 0
2, 191492, Note_on_c, 0, 30, 0
2, 191525, Note_on_c, 0, 73, 95
2, 191536, Note_on_c, 0, 40, 77
2, 191544, Note_on_c, 0, 28, 75
2, 191544, Note_on_c, 0, 64, 76
2, 191546, Note_on_c, 0, 67, 67
2, 191576, Control_c, 0, 64, 91
2, 191596, Control_c, 0, 64, 64
2, 191615, Control_c, 0, 64, 0
2, 191769, Control_c, 0, 64, 27
2, 191788, Control_c, 0, 64, 44
2, 191807, Control_c, 0, 64, 60
2, 191827, Control_c, 0, 64, 66
2, 191845, Control_c, 0, 64, 71
2, 191865, Control_c, 0, 64, 79
2, 191884, Control_c, 0, 64, 96
2, 191904, Control_c, 0, 64, 127
2, 191996, Note_on_c, 0, 64, 0
2, 192036, Note_on_c, 0, 67, 0
2, 192211, Note_on_c, 0, 28, 0
2, 192233, Note_on_c, 0, 40, 0
2, 192492, Note_on_c, 0, 73, 0
2, 192729, Control_c, 0, 64, 74
2, 192740, Note_on_c, 0, 74, 86
2, 192744, Note_on_c, 0, 69, 81
2, 192748, Control_c, 0, 64, 0
2, 192749, Note_on_c, 0, 26, 75
2, 192749, Note_on_c, 0, 38, 79
2, 192752, Note_on_c, 0, 66, 76
2, 192805, Control_c, 0, 64, 51
2, 192825, Control_c, 0, 64, 67
2, 192835, Note_on_c, 0, 26, 0
2, 192843, Note_on_c, 0, 69, 0
2, 192844, Control_c, 0, 64, 84
2, 192859, Note_on_c, 0, 74, 0
2, 192863, Note_on_c, 0, 38, 0
2, 192864, Control_c, 0, 64, 127
2, 192889, Note_on_c, 0, 66, 0
2, 193275, Note_on_c, 0, 66, 92
2, 193280, Note_on_c, 0, 45, 72
2, 193281, Note_on_c, 0, 57, 82
2, 193284, Note_on_c, 0, 33, 72
2, 193286, Note_on_c, 0, 62, 77
2, 193325, Control_c, 0, 64, 94
2, 193345, Control_c, 0, 64, 64
2, 193363, Control_c, 0, 64, 0
2, 193671, Control_c, 0, 64, 15
2, 193689, Control_c, 0, 64, 49
2, 193709, Control_c, 0, 64, 62
2, 193728, Control_c, 0, 64, 66
2, 193748, Control_c, 0, 64, 69
2, 193766, Control_c, 0, 64, 74
2, 193786, Control_c, 0, 64, 83
2, 193805, Control_c, 0, 64, 111
2, 193825, Control_c, 0, 64, 127
2, 194017, Note_on_c, 0, 57, 0
2, 194080, Note_on_c, 0, 62, 0
2, 194108, Note_on_c, 0, 66, 0
2, 194934, Note_on_c, 0, 64, 94
2, 194941, Note_on_c, 0, 55, 89
2, 194946, Note_on_c, 0, 61, 84
2, 194976, Control_c, 0, 64, 101
2, 194995, Control_c, 0, 64, 67
2, 195014, Control_c, 0, 64, 0
2, 195149, Control_c, 0, 64, 38
2, 195168, Control_c, 0, 64, 60
2, 195188, Control_c, 0, 64, 65
2, 195206, Control_c, 0, 64, 70
2, 195226, Control_c, 0, 64, 78
2, 195245, Control_c, 0, 64, 96
2, 195265, Control_c, 0, 64, 127
2, 195529, Note_on_c, 0, 45, 0
2, 195630, Note_on_c, 0, 61, 0
2, 195670, Note_on_c, 0, 33, 0
2, 195844, Note_on_c, 0, 55, 0
2, 196054, Note_on_c, 0, 64, 0
2, 196978, Note_on_c, 0, 62, 88
2, 196982, Note_on_c, 0, 26, 75
2, 196984, Note_on_c, 0, 57, 82
2, 196987, Note_on_c, 0, 38, 80
2, 196993, Note_on_c, 0, 54, 77
2, 197050, Control_c, 0, 64, 84
2, 197070, Control_c, 0, 64, 64
2, 197089, Control_c, 0, 64, 0
2, 197530, Control_c, 0, 64, 23
2, 197550, Control_c, 0, 64, 40
2, 197569, Control_c, 0, 64, 49
2, 197589, Control_c, 0, 64, 53
2, 197607, Control_c, 0, 64, 55
2, 197626, Control_c, 0, 64, 56
2, 197645, Control_c, 0, 64, 56
2, 197665, Control_c, 0, 64, 57
2, 197683, Control_c, 0, 64, 57
2, 197703, Control_c, 0, 64, 58
2, 197722, Control_c, 0, 64, 58
2, 197780, Control_c, 0, 64, 59
2, 197817, Control_c, 0, 64, 59
2, 197856, Control_c, 0, 64, 60
2, 197894, Control_c, 0, 64, 60
2, 197914, Control_c, 0, 64, 61
2, 197933, Control_c, 0, 64, 62
2, 197952, Control_c, 0, 64, 63
2, 197971, Control_c, 0, 64, 64
2, 197991, Control_c, 0, 64, 65
2, 198010, Control_c, 0, 64, 65
2, 198029, Control_c, 0, 64, 66
2, 198048, Control_c, 0, 64, 68
2, 198068, Control_c, 0, 64, 69
2, 198086, Control_c, 0, 64, 71
2, 198106, Control_c, 0, 64, 73
2, 198125, Control_c, 0, 64, 76
2, 198145, Control_c, 0, 64, 78
2, 198163, Control_c, 0, 64, 80
2, 198183, Control_c, 0, 64, 81
2, 198202, Control_c, 0, 64, 84
2, 198221, Control_c, 0, 64, 86
2, 198240, Control_c, 0, 64, 88
2, 198260, Control_c, 0, 64, 91
2, 198279, Control_c, 0, 64, 93
2, 198297, Control_c, 0, 64, 96
2, 198317, Control_c, 0, 64, 100
2, 198336, Control_c, 0, 64, 104
2, 198355, Control_c, 0, 64, 110
2, 198374, Control_c, 0, 64, 117
2, 198394, Control_c, 0, 64, 127
2, 200051, Note_on_c, 0, 54, 0
2, 200123, Note_on_c, 0, 26, 0
2, 200135, Note_on_c, 0, 57, 0
2, 200204, Note_on_c, 0, 38, 0
2, 200239, Note_on_c, 0, 62, 0
2, 202158, Control_c, 0, 64, 104
2, 202177, Control_c, 0, 64, 77
2, 202196, Control_c, 0, 64, 64
2, 202215, Control_c, 0, 64, 39
2, 202235, Control_c, 0, 64, 0
2, 202236, End_track
0, 0, End_of_file
