0, 0, Header, 1, 2, 480
1, 0, Start_track
1, 0, Tempo, 500000
1, 0, Time_signature, 4, 2, 24, 8
1, 1, End_track
2, 0, Start_track
2, 0, Program_c, 0, 0
2, 0, Control_c, 0, 64, 0
2, 0, Control_c, 0, 67, 0
2, 993, Note_on_c, 0, 50, 87
2, 1002, Note_on_c, 0, 38, 76
2, 1280, Note_on_c, 0, 62, 89
2, 1371, Note_on_c, 0, 64, 86
2, 1387, Note_on_c, 0, 62, 0
2, 1462, Note_on_c, 0, 66, 79
2, 1507, Note_on_c, 0, 64, 0
2, 1543, Note_on_c, 0, 67, 82
2, 1548, Note_on_c, 0, 66, 0
2, 1585, Note_on_c, 0, 50, 0
2, 1600, Note_on_c, 0, 38, 0
2, 1638, Note_on_c, 0, 69, 95
2, 1660, Note_on_c, 0, 67, 0
2, 1674, Note_on_c, 0, 69, 0
2, 1843, Note_on_c, 0, 66, 83
2, 1880, Note_on_c, 0, 66, 0
2, 2034, Note_on_c, 0, 69, 82
2, 2067, Note_on_c, 0, 69, 0
2, 2232, Note_on_c, 0, 74, 98
2, 2275, Note_on_c, 0, 74, 0
2, 2420, Note_on_c, 0, 69, 90
2, 2481, Note_on_c, 0, 69, 0
2, 2617, Note_on_c, 0, 74, 101
2, 2664, Note_on_c, 0, 74, 0
2, 2804, Note_on_c, 0, 78, 101
2, 2859, Note_on_c, 0, 78, 0
2, 2992, Note_on_c, 0, 74, 97
2, 3049, Note_on_c, 0, 74, 0
2, 3187, Note_on_c, 0, 78, 102
2, 3236, Note_on_c, 0, 78, 0
2, 3439, Note_on_c, 0, 81, 96
2, 3816, Control_c, 0, 64, 27
2, 3836, Control_c, 0, 64, 45
2, 3855, Control_c, 0, 64, 58
2, 3874, Control_c, 0, 64, 63
2, 3892, Control_c, 0, 64, 65
2, 3912, Control_c, 0, 64, 68
2, 3932, Control_c, 0, 64, 73
2, 3952, Control_c, 0, 64, 80
2, 3970, Control_c, 0, 64, 84
2, 3988, Control_c, 0, 64, 86
2, 4008, Control_c, 0, 64, 87
2, 4015, Note_on_c, 0, 81, 0
2, 4068, Control_c, 0, 64, 86
2, 4086, Control_c, 0, 64, 85
2, 4106, Control_c, 0, 64, 82
2, 4123, Control_c, 0, 64, 79
2, 4143, Control_c, 0, 64, 73
2, 4148, Note_on_c, 0, 81, 84
2, 4159, Note_on_c, 0, 62, 49
2, 4163, Control_c, 0, 64, 67
2, 4169, Note_on_c, 0, 78, 75
2, 4181, Control_c, 0, 64, 63
2, 4202, Control_c, 0, 64, 59
2, 4222, Control_c, 0, 64, 56
2, 4239, Control_c, 0, 64, 53
2, 4257, Control_c, 0, 64, 49
2, 4279, Control_c, 0, 64, 42
2, 4297, Control_c, 0, 64, 36
2, 4317, Control_c, 0, 64, 32
2, 4336, Control_c, 0, 64, 31
2, 4392, Control_c, 0, 64, 34
2, 4412, Control_c, 0, 64, 41
2, 4430, Control_c, 0, 64, 53
2, 4450, Control_c, 0, 64, 62
2, 4469, Control_c, 0, 64, 66
2, 4487, Control_c, 0, 64, 70
2, 4507, Control_c, 0, 64, 78
2, 4529, Control_c, 0, 64, 90
2, 4545, Control_c, 0, 64, 103
2, 4567, Control_c, 0, 64, 109
2, 4583, Note_on_c, 0, 81, 0
2, 4603, Control_c, 0, 64, 107
2, 4621, Control_c, 0, 64, 104
2, 4625, Note_on_c, 0, 78, 0
2, 4642, Control_c, 0, 64, 102
2, 4660, Control_c, 0, 64, 100
2, 4678, Control_c, 0, 64, 96
2, 4699, Control_c, 0, 64, 91
2, 4719, Control_c, 0, 64, 86
2, 4741, Control_c, 0, 64, 82
2, 4761, Control_c, 0, 64, 77
2, 4776, Control_c, 0, 64, 73
2, 4796, Control_c, 0, 64, 69
2, 4817, Control_c, 0, 64, 65
2, 4835, Control_c, 0, 64, 62
2, 4844, Note_on_c, 0, 81, 80
2, 4856, Control_c, 0, 64, 60
2, 4856, Note_on_c, 0, 69, 57
2, 4864, Note_on_c, 0, 78, 71
2, 4873, Control_c, 0, 64, 59
2, 4890, Control_c, 0, 64, 58
2, 4912, Control_c, 0, 64, 57
2, 4929, Control_c, 0, 64, 55
2, 4949, Control_c, 0, 64, 52
2, 4967, Control_c, 0, 64, 48
2, 4988, Control_c, 0, 64, 45
2, 5007, Control_c, 0, 64, 43
2, 5027, Control_c, 0, 64, 42
2, 5033, Note_on_c, 0, 62, 0
2, 5045, Control_c, 0, 64, 41
2, 5082, Control_c, 0, 64, 39
2, 5105, Control_c, 0, 64, 36
2, 5123, Control_c, 0, 64, 32
2, 5142, Control_c, 0, 64, 29
2, 5161, Control_c, 0, 64, 25
2, 5182, Control_c, 0, 64, 24
2, 5188, Note_on_c, 0, 76, 79
2, 5193, Note_on_c, 0, 79, 79
2, 5197, Note_on_c, 0, 81, 0
2, 5250, Note_on_c, 0, 78, 0
2, 5257, Control_c, 0, 64, 27
2, 5275, Control_c, 0, 64, 32
2, 5294, Control_c, 0, 64, 39
2, 5315, Control_c, 0, 64, 50
2, 5336, Control_c, 0, 64, 60
2, 5352, Control_c, 0, 64, 62
2, 5410, Control_c, 0, 64, 61
2, 5414, Note_on_c, 0, 76, 0
2, 5421, Note_on_c, 0, 79, 0
2, 5448, Control_c, 0, 64, 60
2, 5485, Control_c, 0, 64, 59
2, 5507, Control_c, 0, 64, 58
2, 5525, Control_c, 0, 64, 57
2, 5546, Note_on_c, 0, 57, 65
2, 5546, Note_on_c, 0, 79, 79
2, 5551, Control_c, 0, 64, 55
2, 5551, Note_on_c, 0, 76, 76
2, 5564, Control_c, 0, 64, 53
2, 5586, Control_c, 0, 64, 49
2, 5602, Control_c, 0, 64, 46
2, 5624, Control_c, 0, 64, 43
2, 5641, Control_c, 0, 64, 41
2, 5659, Control_c, 0, 64, 39
2, 5681, Control_c, 0, 64, 38
2, 5717, Control_c, 0, 64, 37
2, 5730, Note_on_c, 0, 69, 0
2, 5738, Control_c, 0, 64, 36
2, 5759, Control_c, 0, 64, 35
2, 5774, Control_c, 0, 64, 34
2, 5793, Control_c, 0, 64, 32
2, 5901, Note_on_c, 0, 78, 71
2, 5905, Note_on_c, 0, 74, 57
2, 5920, Note_on_c, 0, 79, 0
2, 5940, Note_on_c, 0, 76, 0
2, 6120, Note_on_c, 0, 74, 0
2, 6139, Note_on_c, 0, 78, 0
2, 6225, Note_on_c, 0, 57, 0
2, 6239, Note_on_c, 0, 78, 69
2, 6243, Note_on_c, 0, 62, 62
2, 6254, Note_on_c, 0, 74, 65
2, 6259, Control_c, 0, 64, 34
2, 6273, Control_c, 0, 64, 39
2, 6293, Control_c, 0, 64, 46
2, 6311, Control_c, 0, 64, 56
2, 6331, Control_c, 0, 64, 62
2, 6351, Control_c, 0, 64, 63
2, 6369, Control_c, 0, 64, 62
2, 6426, Control_c, 0, 64, 61
2, 6462, Note_on_c, 0, 62, 0
2, 6469, Control_c, 0, 64, 60
2, 6482, Note_on_c, 0, 50, 77
2, 6487, Control_c, 0, 64, 58
2, 6505, Control_c, 0, 64, 57
2, 6520, Note_on_c, 0, 78, 0
2, 6524, Control_c, 0, 64, 55
2, 6548, Control_c, 0, 64, 50
2, 6548, Note_on_c, 0, 74, 0
2, 6561, Control_c, 0, 64, 40
2, 6568, Note_on_c, 0, 52, 73
2, 6581, Control_c, 0, 64, 15
2, 6601, Control_c, 0, 64, 0
2, 6601, Note_on_c, 0, 50, 0
2, 6654, Note_on_c, 0, 54, 83
2, 6680, Note_on_c, 0, 52, 0
2, 6749, Note_on_c, 0, 55, 82
2, 6758, Note_on_c, 0, 54, 0
2, 6839, Note_on_c, 0, 57, 97
2, 6844, Note_on_c, 0, 55, 0
2, 6890, Note_on_c, 0, 57, 0
2, 7035, Note_on_c, 0, 54, 86
2, 7094, Note_on_c, 0, 54, 0
2, 7239, Note_on_c, 0, 57, 93
2, 7275, Note_on_c, 0, 57, 0
2, 7421, Note_on_c, 0, 62, 102
2, 7469, Note_on_c, 0, 62, 0
2, 7622, Note_on_c, 0, 57, 92
2, 7679, Note_on_c, 0, 57, 0
2, 7824, Note_on_c, 0, 62, 95
2, 7867, Note_on_c, 0, 62, 0
2, 8023, Note_on_c, 0, 66, 97
2, 8073, Note_on_c, 0, 66, 0
2, 8207, Note_on_c, 0, 62, 89
2, 8267, Note_on_c, 0, 62, 0
2, 8408, Note_on_c, 0, 66, 96
2, 8451, Note_on_c, 0, 66, 0
2, 8648, Note_on_c, 0, 69, 94
2, 8824, Control_c, 0, 64, 16
2, 8843, Control_c, 0, 64, 32
2, 8863, Control_c, 0, 64, 43
2, 8884, Control_c, 0, 64, 52
2, 8901, Control_c, 0, 64, 58
2, 8921, Control_c, 0, 64, 61
2, 8940, Control_c, 0, 64, 62
2, 8961, Control_c, 0, 64, 63
2, 8977, Control_c, 0, 64, 65
2, 8997, Control_c, 0, 64, 68
2, 9018, Control_c, 0, 64, 72
2, 9036, Control_c, 0, 64, 79
2, 9054, Control_c, 0, 64, 84
2, 9075, Control_c, 0, 64, 85
2, 9095, Control_c, 0, 64, 86
2, 9171, Control_c, 0, 64, 85
2, 9189, Control_c, 0, 64, 84
2, 9208, Control_c, 0, 64, 83
2, 9229, Control_c, 0, 64, 80
2, 9242, Note_on_c, 0, 69, 0
2, 9247, Control_c, 0, 64, 77
2, 9265, Control_c, 0, 64, 76
2, 9285, Control_c, 0, 64, 74
2, 9305, Control_c, 0, 64, 73
2, 9323, Control_c, 0, 64, 72
2, 9341, Control_c, 0, 64, 70
2, 9357, Note_on_c, 0, 78, 93
2, 9363, Control_c, 0, 64, 66
2, 9369, Note_on_c, 0, 69, 70
2, 9380, Control_c, 0, 64, 62
2, 9380, Note_on_c, 0, 50, 47
2, 9403, Control_c, 0, 64, 59
2, 9419, Control_c, 0, 64, 57
2, 9439, Control_c, 0, 64, 56
2, 9458, Control_c, 0, 64, 55
2, 9477, Control_c, 0, 64, 52
2, 9497, Control_c, 0, 64, 45
2, 9515, Control_c, 0, 64, 27
2, 9535, Control_c, 0, 64, 0
2, 9630, Control_c, 0, 64, 15
2, 9651, Control_c, 0, 64, 23
2, 9670, Control_c, 0, 64, 30
2, 9690, Control_c, 0, 64, 44
2, 9708, Control_c, 0, 64, 56
2, 9726, Control_c, 0, 64, 62
2, 9746, Control_c, 0, 64, 64
2, 9764, Control_c, 0, 64, 65
2, 9784, Control_c, 0, 64, 69
2, 9802, Control_c, 0, 64, 74
2, 9826, Control_c, 0, 64, 78
2, 9844, Control_c, 0, 64, 79
2, 9881, Control_c, 0, 64, 78
2, 9912, Note_on_c, 0, 78, 0
2, 9916, Note_on_c, 0, 69, 0
2, 9920, Control_c, 0, 64, 77
2, 9940, Control_c, 0, 64, 76
2, 9957, Control_c, 0, 64, 75
2, 9975, Control_c, 0, 64, 73
2, 9997, Control_c, 0, 64, 71
2, 10015, Control_c, 0, 64, 70
2, 10034, Control_c, 0, 64, 68
2, 10052, Control_c, 0, 64, 67
2, 10073, Control_c, 0, 64, 64
2, 10093, Control_c, 0, 64, 61
2, 10097, Note_on_c, 0, 78, 91
2, 10109, Note_on_c, 0, 57, 64
2, 10109, Note_on_c, 0, 69, 70
2, 10113, Control_c, 0, 64, 59
2, 10131, Control_c, 0, 64, 58
2, 10149, Control_c, 0, 64, 56
2, 10169, Control_c, 0, 64, 55
2, 10205, Control_c, 0, 64, 54
2, 10308, Note_on_c, 0, 50, 0
2, 10313, Note_on_c, 0, 69, 0
2, 10381, Control_c, 0, 64, 53
2, 10418, Control_c, 0, 64, 54
2, 10444, Note_on_c, 0, 67, 67
2, 10450, Note_on_c, 0, 76, 78
2, 10450, Note_on_c, 0, 78, 0
2, 10495, Control_c, 0, 64, 55
2, 10513, Control_c, 0, 64, 56
2, 10534, Control_c, 0, 64, 57
2, 10554, Control_c, 0, 64, 59
2, 10591, Control_c, 0, 64, 60
2, 10633, Note_on_c, 0, 76, 0
2, 10635, Note_on_c, 0, 67, 0
2, 10649, Control_c, 0, 64, 59
2, 10707, Control_c, 0, 64, 58
2, 10782, Control_c, 0, 64, 57
2, 10795, Note_on_c, 0, 45, 61
2, 10804, Note_on_c, 0, 76, 77
2, 10808, Note_on_c, 0, 67, 57
2, 10821, Control_c, 0, 64, 56
2, 10841, Control_c, 0, 64, 55
2, 10878, Control_c, 0, 64, 54
2, 10956, Control_c, 0, 64, 55
2, 10990, Note_on_c, 0, 76, 0
2, 10994, Control_c, 0, 64, 56
2, 11054, Control_c, 0, 64, 55
2, 11079, Note_on_c, 0, 57, 0
2, 11129, Control_c, 0, 64, 54
2, 11148, Control_c, 0, 64, 55
2, 11159, Note_on_c, 0, 66, 63
2, 11163, Note_on_c, 0, 74, 62
2, 11209, Note_on_c, 0, 67, 0
2, 11245, Control_c, 0, 64, 56
2, 11321, Control_c, 0, 64, 55
2, 11326, Note_on_c, 0, 74, 0
2, 11354, Note_on_c, 0, 66, 0
2, 11397, Control_c, 0, 64, 54
2, 11417, Control_c, 0, 64, 52
2, 11434, Control_c, 0, 64, 46
2, 11453, Control_c, 0, 64, 38
2, 11473, Control_c, 0, 64, 33
2, 11493, Control_c, 0, 64, 34
2, 11506, Note_on_c, 0, 74, 66
2, 11515, Note_on_c, 0, 50, 53
2, 11519, Control_c, 0, 64, 37
2, 11519, Note_on_c, 0, 45, 0
2, 11519, Note_on_c, 0, 66, 64
2, 11530, Control_c, 0, 64, 42
2, 11551, Control_c, 0, 64, 49
2, 11573, Control_c, 0, 64, 57
2, 11591, Control_c, 0, 64, 60
2, 11608, Note_on_c, 0, 74, 0
2, 11649, Note_on_c, 0, 66, 0
2, 11685, Control_c, 0, 64, 59
2, 11705, Control_c, 0, 64, 58
2, 11724, Control_c, 0, 64, 57
2, 11742, Control_c, 0, 64, 56
2, 11762, Control_c, 0, 64, 54
2, 11785, Control_c, 0, 64, 49
2, 11785, Note_on_c, 0, 66, 77
2, 11800, Control_c, 0, 64, 33
2, 11819, Control_c, 0, 64, 0
2, 11859, Note_on_c, 0, 66, 0
2, 11875, Note_on_c, 0, 64, 71
2, 11924, Note_on_c, 0, 50, 0
2, 11924, Note_on_c, 0, 64, 0
2, 11952, Note_on_c, 0, 62, 70
2, 11963, Note_on_c, 0, 38, 57
2, 12007, Note_on_c, 0, 38, 0
2, 12031, Note_on_c, 0, 62, 0
2, 12051, Note_on_c, 0, 61, 68
2, 12131, Note_on_c, 0, 61, 0
2, 12160, Note_on_c, 0, 59, 82
2, 12179, Note_on_c, 0, 50, 60
2, 12190, Note_on_c, 0, 59, 0
2, 12371, Note_on_c, 0, 62, 80
2, 12408, Note_on_c, 0, 50, 0
2, 12413, Note_on_c, 0, 62, 0
2, 12574, Note_on_c, 0, 59, 79
2, 12586, Note_on_c, 0, 50, 74
2, 12606, Note_on_c, 0, 59, 0
2, 12626, Note_on_c, 0, 50, 0
2, 12824, Note_on_c, 0, 50, 72
2, 12824, Note_on_c, 0, 56, 75
2, 13054, Note_on_c, 0, 64, 78
2, 13155, Note_on_c, 0, 66, 88
2, 13177, Note_on_c, 0, 64, 0
2, 13233, Note_on_c, 0, 50, 0
2, 13240, Note_on_c, 0, 56, 0
2, 13262, Note_on_c, 0, 68, 85
2, 13309, Note_on_c, 0, 66, 0
2, 13352, Note_on_c, 0, 69, 78
2, 13357, Note_on_c, 0, 68, 0
2, 13458, Note_on_c, 0, 71, 95
2, 13480, Note_on_c, 0, 69, 0
2, 13493, Note_on_c, 0, 71, 0
2, 13670, Note_on_c, 0, 68, 89
2, 13675, Note_on_c, 0, 52, 79
2, 13707, Note_on_c, 0, 68, 0
2, 13741, Note_on_c, 0, 52, 0
2, 13778, Note_on_c, 0, 50, 78
2, 13865, Note_on_c, 0, 50, 0
2, 13870, Note_on_c, 0, 49, 77
2, 13872, Note_on_c, 0, 71, 95
2, 13911, Note_on_c, 0, 71, 0
2, 13962, Note_on_c, 0, 49, 0
2, 13984, Note_on_c, 0, 47, 73
2, 14098, Note_on_c, 0, 47, 0
2, 14102, Note_on_c, 0, 49, 74
2, 14109, Note_on_c, 0, 76, 98
2, 14138, Control_c, 0, 64, 9
2, 14158, Control_c, 0, 64, 45
2, 14178, Control_c, 0, 64, 64
2, 14200, Control_c, 0, 64, 73
2, 14215, Control_c, 0, 64, 84
2, 14215, Note_on_c, 0, 76, 0
2, 14236, Control_c, 0, 64, 89
2, 14256, Control_c, 0, 64, 93
2, 14293, Control_c, 0, 64, 92
2, 14314, Control_c, 0, 64, 87
2, 14334, Control_c, 0, 64, 77
2, 14350, Control_c, 0, 64, 70
2, 14369, Control_c, 0, 64, 65
2, 14387, Note_on_c, 0, 65, 53
2, 14392, Control_c, 0, 64, 62
2, 14392, Note_on_c, 0, 64, 60
2, 14410, Control_c, 0, 64, 58
2, 14414, Note_on_c, 0, 65, 0
2, 14430, Control_c, 0, 64, 54
2, 14450, Control_c, 0, 64, 48
2, 14460, Note_on_c, 0, 64, 0
2, 14465, Note_on_c, 0, 62, 78
2, 14467, Control_c, 0, 64, 36
2, 14487, Control_c, 0, 64, 21
2, 14505, Control_c, 0, 64, 0
2, 14517, Note_on_c, 0, 49, 0
2, 14562, Note_on_c, 0, 37, 53
2, 14576, Note_on_c, 0, 61, 65
2, 14580, Note_on_c, 0, 62, 0
2, 14600, Note_on_c, 0, 37, 0
2, 14657, Note_on_c, 0, 61, 0
2, 14664, Note_on_c, 0, 59, 73
2, 14742, Note_on_c, 0, 59, 0
2, 14774, Note_on_c, 0, 57, 76
2, 14778, Note_on_c, 0, 49, 67
2, 14806, Note_on_c, 0, 57, 0
2, 14987, Note_on_c, 0, 61, 65
2, 15003, Note_on_c, 0, 49, 0
2, 15022, Note_on_c, 0, 61, 0
2, 15203, Note_on_c, 0, 57, 67
2, 15212, Note_on_c, 0, 49, 62
2, 15240, Note_on_c, 0, 57, 0
2, 15253, Note_on_c, 0, 49, 0
2, 15458, Note_on_c, 0, 49, 52
2, 15460, Note_on_c, 0, 54, 56
2, 15717, Note_on_c, 0, 62, 66
2, 15805, Note_on_c, 0, 62, 0
2, 15823, Note_on_c, 0, 64, 74
2, 15845, Note_on_c, 0, 54, 0
2, 15878, Note_on_c, 0, 49, 0
2, 15919, Note_on_c, 0, 64, 0
2, 15928, Note_on_c, 0, 66, 66
2, 16000, Note_on_c, 0, 66, 0
2, 16009, Note_on_c, 0, 68, 74
2, 16122, Note_on_c, 0, 69, 77
2, 16126, Note_on_c, 0, 68, 0
2, 16155, Note_on_c, 0, 69, 0
2, 16334, Note_on_c, 0, 66, 75
2, 16347, Note_on_c, 0, 50, 65
2, 16369, Note_on_c, 0, 66, 0
2, 16405, Note_on_c, 0, 50, 0
2, 16451, Note_on_c, 0, 49, 65
2, 16507, Note_on_c, 0, 49, 0
2, 16534, Note_on_c, 0, 69, 70
2, 16554, Note_on_c, 0, 47, 67
2, 16576, Note_on_c, 0, 69, 0
2, 16599, Note_on_c, 0, 47, 0
2, 16652, Note_on_c, 0, 45, 65
2, 16755, Note_on_c, 0, 45, 0
2, 16764, Note_on_c, 0, 74, 75
2, 16786, Note_on_c, 0, 47, 57
2, 16839, Note_on_c, 0, 47, 0
2, 17014, Note_on_c, 0, 54, 58
2, 17067, Note_on_c, 0, 54, 0
2, 17116, Note_on_c, 0, 52, 61
2, 17181, Note_on_c, 0, 52, 0
2, 17213, Note_on_c, 0, 50, 66
2, 17213, Note_on_c, 0, 66, 66
2, 17256, Note_on_c, 0, 74, 0
2, 17269, Note_on_c, 0, 50, 0
2, 17288, Note_on_c, 0, 66, 0
2, 17304, Note_on_c, 0, 49, 65
2, 17412, Note_on_c, 0, 49, 0
2, 17437, Note_on_c, 0, 47, 60
2, 17437, Note_on_c, 0, 74, 82
2, 17445, Note_on_c, 0, 66, 64
2, 17481, Note_on_c, 0, 47, 0
2, 17634, Control_c, 0, 64, 21
2, 17652, Control_c, 0, 64, 30
2, 17661, Note_on_c, 0, 50, 74
2, 17672, Control_c, 0, 64, 36
2, 17695, Control_c, 0, 64, 40
2, 17711, Control_c, 0, 64, 43
2, 17715, Note_on_c, 0, 50, 0
2, 17734, Control_c, 0, 64, 46
2, 17750, Note_on_c, 0, 66, 0
2, 17754, Control_c, 0, 64, 48
2, 17777, Note_on_c, 0, 74, 0
2, 17828, Control_c, 0, 64, 47
2, 17845, Control_c, 0, 64, 46
2, 17865, Control_c, 0, 64, 45
2, 17876, Note_on_c, 0, 47, 76
2, 17885, Control_c, 0, 64, 44
2, 17889, Note_on_c, 0, 66, 84
2, 17889, Note_on_c, 0, 74, 87
2, 17904, Control_c, 0, 64, 42
2, 17918, Note_on_c, 0, 47, 0
2, 17942, Control_c, 0, 64, 41
2, 17981, Control_c, 0, 64, 40
2, 17990, Note_on_c, 0, 66, 0
2, 18024, Note_on_c, 0, 74, 0
2, 18074, Control_c, 0, 64, 39
2, 18116, Control_c, 0, 64, 30
2, 18116, Note_on_c, 0, 44, 79
2, 18120, Note_on_c, 0, 64, 80
2, 18120, Note_on_c, 0, 74, 83
2, 18134, Control_c, 0, 64, 0
2, 18147, Note_on_c, 0, 44, 0
2, 18343, Note_on_c, 0, 47, 72
2, 18381, Note_on_c, 0, 47, 0
2, 18562, Note_on_c, 0, 44, 76
2, 18602, Note_on_c, 0, 44, 0
2, 18786, Note_on_c, 0, 40, 70
2, 18819, Note_on_c, 0, 40, 0
2, 18992, Note_on_c, 0, 64, 0
2, 18997, Note_on_c, 0, 74, 0
2, 19008, Note_on_c, 0, 44, 67
2, 19014, Note_on_c, 0, 76, 68
2, 19056, Note_on_c, 0, 44, 0
2, 19101, Note_on_c, 0, 76, 0
2, 19119, Note_on_c, 0, 74, 62
2, 19191, Note_on_c, 0, 74, 0
2, 19200, Note_on_c, 0, 73, 67
2, 19223, Note_on_c, 0, 40, 46
2, 19260, Note_on_c, 0, 40, 0
2, 19283, Note_on_c, 0, 73, 0
2, 19309, Note_on_c, 0, 71, 62
2, 19418, Note_on_c, 0, 71, 0
2, 19431, Note_on_c, 0, 73, 60
2, 19438, Note_on_c, 0, 45, 60
2, 19475, Note_on_c, 0, 45, 0
2, 19641, Note_on_c, 0, 73, 0
2, 19666, Note_on_c, 0, 49, 58
2, 19672, Note_on_c, 0, 69, 56
2, 19705, Note_on_c, 0, 49, 0
2, 19730, Note_on_c, 0, 69, 0
2, 19770, Note_on_c, 0, 71, 65
2, 19873, Note_on_c, 0, 45, 51
2, 19879, Note_on_c, 0, 73, 74
2, 19884, Note_on_c, 0, 71, 0
2, 19913, Note_on_c, 0, 45, 0
2, 19953, Note_on_c, 0, 73, 0
2, 19992, Note_on_c, 0, 74, 60
2, 20083, Note_on_c, 0, 76, 82
2, 20094, Note_on_c, 0, 42, 62
2, 20094, Note_on_c, 0, 74, 0
2, 20134, Note_on_c, 0, 42, 0
2, 20311, Note_on_c, 0, 44, 71
2, 20322, Note_on_c, 0, 76, 0
2, 20326, Note_on_c, 0, 74, 75
2, 20363, Note_on_c, 0, 44, 0
2, 20421, Note_on_c, 0, 73, 82
2, 20443, Note_on_c, 0, 74, 0
2, 20518, Note_on_c, 0, 73, 0
2, 20520, Note_on_c, 0, 71, 78
2, 20553, Note_on_c, 0, 43, 32
2, 20611, Note_on_c, 0, 43, 0
2, 20611, Note_on_c, 0, 71, 0
2, 20616, Note_on_c, 0, 69, 80
2, 20738, Note_on_c, 0, 74, 90
2, 20746, Note_on_c, 0, 47, 71
2, 20776, Note_on_c, 0, 69, 0
2, 20785, Note_on_c, 0, 47, 0
2, 20966, Note_on_c, 0, 74, 0
2, 20970, Note_on_c, 0, 71, 87
2, 20977, Note_on_c, 0, 50, 76
2, 21017, Note_on_c, 0, 50, 0
2, 21059, Note_on_c, 0, 71, 0
2, 21064, Note_on_c, 0, 73, 93
2, 21167, Note_on_c, 0, 73, 0
2, 21171, Note_on_c, 0, 47, 68
2, 21171, Note_on_c, 0, 74, 94
2, 21209, Note_on_c, 0, 47, 0
2, 21285, Note_on_c, 0, 76, 79
2, 21285, Note_on_c, 0, 77, 78
2, 21309, Note_on_c, 0, 74, 0
2, 21378, Note_on_c, 0, 77, 0
2, 21382, Note_on_c, 0, 44, 76
2, 21387, Note_on_c, 0, 78, 95
2, 21416, Note_on_c, 0, 76, 0
2, 21453, Note_on_c, 0, 44, 0
2, 21608, Note_on_c, 0, 76, 87
2, 21617, Note_on_c, 0, 47, 73
2, 21617, Note_on_c, 0, 78, 0
2, 21658, Note_on_c, 0, 47, 0
2, 21699, Note_on_c, 0, 76, 0
2, 21708, Note_on_c, 0, 74, 91
2, 21817, Note_on_c, 0, 73, 91
2, 21824, Note_on_c, 0, 44, 60
2, 21835, Note_on_c, 0, 74, 0
2, 21866, Note_on_c, 0, 44, 0
2, 21920, Note_on_c, 0, 71, 86
2, 21931, Note_on_c, 0, 73, 0
2, 22031, Note_on_c, 0, 49, 61
2, 22045, Note_on_c, 0, 76, 92
2, 22078, Note_on_c, 0, 71, 0
2, 22185, Control_c, 0, 64, 14
2, 22203, Control_c, 0, 64, 24
2, 22225, Control_c, 0, 64, 29
2, 22243, Control_c, 0, 64, 32
2, 22258, Note_on_c, 0, 49, 0
2, 22292, Note_on_c, 0, 57, 80
2, 22299, Control_c, 0, 64, 31
2, 22322, Control_c, 0, 64, 29
2, 22338, Control_c, 0, 64, 27
2, 22356, Control_c, 0, 64, 25
2, 22374, Control_c, 0, 64, 24
2, 22399, Control_c, 0, 64, 22
2, 22399, Note_on_c, 0, 59, 79
2, 22404, Note_on_c, 0, 57, 0
2, 22415, Control_c, 0, 64, 21
2, 22436, Control_c, 0, 64, 19
2, 22453, Control_c, 0, 64, 16
2, 22471, Control_c, 0, 64, 11
2, 22487, Note_on_c, 0, 61, 83
2, 22491, Control_c, 0, 64, 0
2, 22506, Note_on_c, 0, 59, 0
2, 22586, Note_on_c, 0, 62, 88
2, 22601, Note_on_c, 0, 61, 0
2, 22661, Note_on_c, 0, 62, 0
2, 22679, Note_on_c, 0, 64, 89
2, 22917, Note_on_c, 0, 62, 72
2, 22925, Note_on_c, 0, 64, 0
2, 22996, Note_on_c, 0, 62, 0
2, 23030, Note_on_c, 0, 61, 70
2, 23105, Note_on_c, 0, 61, 0
2, 23134, Note_on_c, 0, 59, 75
2, 23198, Note_on_c, 0, 59, 0
2, 23235, Note_on_c, 0, 57, 71
2, 23297, Note_on_c, 0, 57, 0
2, 23338, Note_on_c, 0, 50, 58
2, 23350, Note_on_c, 0, 66, 72
2, 23508, Control_c, 0, 64, 16
2, 23527, Control_c, 0, 64, 37
2, 23545, Note_on_c, 0, 50, 0
2, 23549, Control_c, 0, 64, 51
2, 23568, Control_c, 0, 64, 56
2, 23605, Note_on_c, 0, 59, 76
2, 23647, Control_c, 0, 64, 55
2, 23663, Control_c, 0, 64, 54
2, 23676, Note_on_c, 0, 59, 0
2, 23681, Control_c, 0, 64, 52
2, 23702, Note_on_c, 0, 61, 73
2, 23707, Control_c, 0, 64, 51
2, 23707, Note_on_c, 0, 66, 0
2, 23723, Control_c, 0, 64, 48
2, 23739, Control_c, 0, 64, 43
2, 23759, Control_c, 0, 64, 36
2, 23776, Control_c, 0, 64, 27
2, 23799, Control_c, 0, 64, 18
2, 23803, Note_on_c, 0, 62, 85
2, 23806, Note_on_c, 0, 61, 0
2, 23816, Control_c, 0, 64, 0
2, 23872, Note_on_c, 0, 62, 0
2, 23902, Note_on_c, 0, 64, 87
2, 24016, Note_on_c, 0, 74, 98
2, 24029, Note_on_c, 0, 66, 86
2, 24051, Note_on_c, 0, 64, 0
2, 24094, Note_on_c, 0, 76, 0
2, 24246, Note_on_c, 0, 66, 0
2, 24271, Note_on_c, 0, 64, 82
2, 24373, Note_on_c, 0, 62, 84
2, 24373, Note_on_c, 0, 64, 0
2, 24462, Note_on_c, 0, 62, 0
2, 24466, Note_on_c, 0, 61, 77
2, 24518, Note_on_c, 0, 61, 0
2, 24560, Note_on_c, 0, 59, 72
2, 24681, Note_on_c, 0, 68, 84
2, 24690, Note_on_c, 0, 59, 0
2, 24706, Note_on_c, 0, 52, 67
2, 24743, Note_on_c, 0, 74, 0
2, 24914, Control_c, 0, 64, 9
2, 24920, Note_on_c, 0, 68, 0
2, 24932, Control_c, 0, 64, 15
2, 24937, Note_on_c, 0, 64, 63
2, 24955, Control_c, 0, 64, 20
2, 24973, Control_c, 0, 64, 27
2, 24990, Control_c, 0, 64, 33
2, 24992, Note_on_c, 0, 64, 0
2, 25011, Control_c, 0, 64, 40
2, 25029, Control_c, 0, 64, 45
2, 25042, Note_on_c, 0, 66, 69
2, 25049, Control_c, 0, 64, 48
2, 25066, Control_c, 0, 64, 49
2, 25112, Note_on_c, 0, 52, 0
2, 25126, Control_c, 0, 64, 48
2, 25144, Note_on_c, 0, 66, 0
2, 25148, Note_on_c, 0, 40, 61
2, 25148, Note_on_c, 0, 68, 76
2, 25163, Control_c, 0, 64, 47
2, 25183, Control_c, 0, 64, 46
2, 25183, Note_on_c, 0, 40, 0
2, 25207, Control_c, 0, 64, 45
2, 25207, Note_on_c, 0, 68, 0
2, 25244, Control_c, 0, 64, 44
2, 25244, Note_on_c, 0, 69, 76
2, 25278, Control_c, 0, 64, 43
2, 25284, Note_on_c, 0, 69, 0
2, 25298, Control_c, 0, 64, 42
2, 25335, Control_c, 0, 64, 38
2, 25355, Control_c, 0, 64, 27
2, 25365, Note_on_c, 0, 74, 89
2, 25370, Note_on_c, 0, 40, 64
2, 25375, Control_c, 0, 64, 0
2, 25380, Note_on_c, 0, 71, 84
2, 25469, Note_on_c, 0, 71, 0
2, 25491, Control_c, 0, 64, 8
2, 25510, Control_c, 0, 64, 18
2, 25534, Control_c, 0, 64, 25
2, 25549, Control_c, 0, 64, 35
2, 25571, Control_c, 0, 64, 48
2, 25590, Control_c, 0, 64, 58
2, 25604, Note_on_c, 0, 68, 86
2, 25608, Control_c, 0, 64, 61
2, 25637, Note_on_c, 0, 40, 0
2, 25643, Note_on_c, 0, 68, 0
2, 25647, Control_c, 0, 64, 62
2, 25665, Control_c, 0, 64, 63
2, 25724, Control_c, 0, 64, 62
2, 25780, Control_c, 0, 64, 61
2, 25824, Note_on_c, 0, 74, 0
2, 25827, Note_on_c, 0, 71, 89
2, 25833, Note_on_c, 0, 40, 75
2, 25872, Note_on_c, 0, 40, 0
2, 25876, Control_c, 0, 64, 62
2, 26029, Control_c, 0, 64, 61
2, 26072, Control_c, 0, 64, 60
2, 26072, Note_on_c, 0, 80, 101
2, 26079, Note_on_c, 0, 40, 69
2, 26083, Note_on_c, 0, 74, 81
2, 26088, Control_c, 0, 64, 59
2, 26110, Control_c, 0, 64, 58
2, 26115, Note_on_c, 0, 71, 0
2, 26128, Control_c, 0, 64, 56
2, 26146, Control_c, 0, 64, 53
2, 26163, Control_c, 0, 64, 43
2, 26183, Control_c, 0, 64, 0
2, 26239, Note_on_c, 0, 74, 0
2, 26310, Note_on_c, 0, 71, 88
2, 26357, Control_c, 0, 64, 21
2, 26375, Control_c, 0, 64, 31
2, 26383, Note_on_c, 0, 71, 0
2, 26395, Control_c, 0, 64, 37
2, 26413, Control_c, 0, 64, 41
2, 26432, Control_c, 0, 64, 45
2, 26452, Control_c, 0, 64, 48
2, 26472, Control_c, 0, 64, 50
2, 26492, Control_c, 0, 64, 53
2, 26509, Control_c, 0, 64, 54
2, 26530, Note_on_c, 0, 74, 93
2, 26534, Control_c, 0, 64, 56
2, 26548, Control_c, 0, 64, 59
2, 26570, Note_on_c, 0, 80, 0
2, 26574, Control_c, 0, 64, 64
2, 26586, Control_c, 0, 64, 66
2, 26605, Control_c, 0, 64, 71
2, 26624, Control_c, 0, 64, 80
2, 26645, Control_c, 0, 64, 97
2, 26662, Control_c, 0, 64, 127
2, 26752, Note_on_c, 0, 83, 98
2, 26783, Note_on_c, 0, 80, 71
2, 26841, Note_on_c, 0, 74, 0
2, 26874, Control_c, 0, 64, 109
2, 26894, Control_c, 0, 64, 99
2, 26914, Control_c, 0, 64, 90
2, 26932, Control_c, 0, 64, 82
2, 26952, Control_c, 0, 64, 76
2, 26970, Control_c, 0, 64, 71
2, 26975, Note_on_c, 0, 80, 0
2, 26991, Control_c, 0, 64, 65
2, 26997, Note_on_c, 0, 74, 94
2, 27009, Control_c, 0, 64, 61
2, 27028, Control_c, 0, 64, 57
2, 27048, Control_c, 0, 64, 55
2, 27059, Note_on_c, 0, 74, 0
2, 27068, Control_c, 0, 64, 52
2, 27086, Control_c, 0, 64, 49
2, 27091, Note_on_c, 0, 40, 0
2, 27100, Note_on_c, 0, 47, 81
2, 27105, Control_c, 0, 64, 44
2, 27125, Control_c, 0, 64, 32
2, 27142, Control_c, 0, 64, 0
2, 27199, Note_on_c, 0, 49, 82
2, 27201, Note_on_c, 0, 80, 83
2, 27209, Note_on_c, 0, 47, 0
2, 27267, Note_on_c, 0, 80, 0
2, 27295, Note_on_c, 0, 50, 87
2, 27306, Note_on_c, 0, 49, 0
2, 27413, Note_on_c, 0, 52, 92
2, 27438, Note_on_c, 0, 73, 93
2, 27441, Note_on_c, 0, 50, 0
2, 27463, Note_on_c, 0, 83, 0
2, 27689, Note_on_c, 0, 81, 84
2, 27807, Note_on_c, 0, 80, 78
2, 27870, Note_on_c, 0, 40, 61
2, 27879, Note_on_c, 0, 52, 0
2, 27886, Note_on_c, 0, 81, 0
2, 27896, Note_on_c, 0, 78, 81
2, 27920, Note_on_c, 0, 40, 0
2, 28001, Note_on_c, 0, 76, 82
2, 28001, Note_on_c, 0, 80, 0
2, 28023, Note_on_c, 0, 73, 0
2, 28023, Note_on_c, 0, 78, 0
2, 28039, Note_on_c, 0, 76, 0
2, 28117, Note_on_c, 0, 40, 51
2, 28123, Note_on_c, 0, 69, 87
2, 28138, Note_on_c, 0, 75, 74
2, 28173, Note_on_c, 0, 75, 0
2, 28343, Note_on_c, 0, 78, 84
2, 28369, Note_on_c, 0, 40, 0
2, 28408, Note_on_c, 0, 78, 0
2, 28570, Note_on_c, 0, 75, 76
2, 28588, Note_on_c, 0, 40, 58
2, 28610, Note_on_c, 0, 75, 0
2, 28613, Note_on_c, 0, 69, 0
2, 28633, Note_on_c, 0, 40, 0
2, 28807, Note_on_c, 0, 66, 75
2, 28807, Note_on_c, 0, 69, 66
2, 28811, Note_on_c, 0, 40, 55
2, 29035, Note_on_c, 0, 75, 76
2, 29039, Note_on_c, 0, 69, 0
2, 29082, Note_on_c, 0, 75, 0
2, 29256, Note_on_c, 0, 69, 69
2, 29309, Note_on_c, 0, 69, 0
2, 29316, Note_on_c, 0, 66, 0
2, 29496, Note_on_c, 0, 66, 61
2, 29504, Note_on_c, 0, 63, 63
2, 29698, Note_on_c, 0, 40, 0
2, 29722, Note_on_c, 0, 69, 61
2, 29724, Note_on_c, 0, 66, 0
2, 29776, Note_on_c, 0, 69, 0
2, 29810, Note_on_c, 0, 63, 0
2, 29954, Note_on_c, 0, 66, 62
2, 29996, Note_on_c, 0, 64, 33
2, 30005, Note_on_c, 0, 66, 0
2, 30043, Note_on_c, 0, 64, 0
2, 30171, Note_on_c, 0, 68, 79
2, 30175, Note_on_c, 0, 64, 62
2, 30218, Note_on_c, 0, 64, 0
2, 30385, Note_on_c, 0, 66, 71
2, 30413, Note_on_c, 0, 68, 0
2, 30427, Note_on_c, 0, 66, 0
2, 30613, Note_on_c, 0, 64, 76
2, 30626, Note_on_c, 0, 62, 67
2, 30630, Note_on_c, 0, 52, 64
2, 30663, Note_on_c, 0, 62, 0
2, 30663, Note_on_c, 0, 64, 0
2, 30667, Note_on_c, 0, 52, 0
2, 30845, Note_on_c, 0, 69, 73
2, 30849, Note_on_c, 0, 61, 69
2, 30858, Note_on_c, 0, 54, 75
2, 30905, Note_on_c, 0, 54, 0
2, 31041, Note_on_c, 0, 61, 0
2, 31041, Note_on_c, 0, 69, 0
2, 31085, Note_on_c, 0, 52, 72
2, 31117, Note_on_c, 0, 52, 0
2, 31307, Note_on_c, 0, 74, 89
2, 31311, Note_on_c, 0, 50, 83
2, 31316, Note_on_c, 0, 69, 74
2, 31340, Note_on_c, 0, 50, 0
2, 31344, Note_on_c, 0, 69, 0
2, 31586, Note_on_c, 0, 73, 91
2, 31587, Note_on_c, 0, 52, 85
2, 31587, Note_on_c, 0, 69, 76
2, 31663, Note_on_c, 0, 74, 0
2, 31842, Control_c, 0, 64, 25
2, 31864, Control_c, 0, 64, 39
2, 31883, Control_c, 0, 64, 50
2, 31900, Control_c, 0, 64, 61
2, 31920, Control_c, 0, 64, 67
2, 31943, Control_c, 0, 64, 74
2, 31962, Control_c, 0, 64, 93
2, 31977, Control_c, 0, 64, 127
2, 32036, Note_on_c, 0, 69, 0
2, 32083, Note_on_c, 0, 73, 0
2, 32232, Control_c, 0, 64, 108
2, 32248, Control_c, 0, 64, 101
2, 32266, Control_c, 0, 64, 95
2, 32285, Control_c, 0, 64, 90
2, 32307, Control_c, 0, 64, 85
2, 32325, Control_c, 0, 64, 78
2, 32343, Control_c, 0, 64, 71
2, 32362, Control_c, 0, 64, 64
2, 32385, Control_c, 0, 64, 59
2, 32388, Note_on_c, 0, 73, 80
2, 32402, Control_c, 0, 64, 55
2, 32411, Note_on_c, 0, 68, 72
2, 32420, Control_c, 0, 64, 50
2, 32420, Note_on_c, 0, 40, 63
2, 32440, Control_c, 0, 64, 42
2, 32440, Note_on_c, 0, 71, 83
2, 32461, Control_c, 0, 64, 28
2, 32479, Control_c, 0, 64, 0
2, 32479, Note_on_c, 0, 73, 0
2, 32500, Note_on_c, 0, 52, 0
2, 32626, Note_on_c, 0, 71, 0
2, 32649, Note_on_c, 0, 69, 68
2, 32697, Note_on_c, 0, 69, 0
2, 32877, Note_on_c, 0, 71, 71
2, 32892, Note_on_c, 0, 68, 0
2, 32928, Note_on_c, 0, 71, 0
2, 33124, Note_on_c, 0, 69, 64
2, 33135, Note_on_c, 0, 40, 0
2, 33135, Note_on_c, 0, 45, 62
2, 33367, Note_on_c, 0, 73, 78
2, 33398, Note_on_c, 0, 69, 0
2, 33483, Note_on_c, 0, 71, 83
2, 33502, Note_on_c, 0, 73, 0
2, 33563, Note_on_c, 0, 52, 74
2, 33563, Note_on_c, 0, 71, 0
2, 33568, Note_on_c, 0, 45, 0
2, 33580, Note_on_c, 0, 69, 75
2, 33594, Note_on_c, 0, 52, 0
2, 33663, Note_on_c, 0, 68, 90
2, 33678, Note_on_c, 0, 69, 0
2, 33762, Note_on_c, 0, 57, 77
2, 33762, Note_on_c, 0, 66, 88
2, 33775, Note_on_c, 0, 68, 0
2, 33799, Note_on_c, 0, 57, 0
2, 33820, Note_on_c, 0, 56, 79
2, 33893, Note_on_c, 0, 57, 86
2, 33933, Note_on_c, 0, 56, 0
2, 34000, Note_on_c, 0, 66, 0
2, 34004, Note_on_c, 0, 69, 83
2, 34103, Note_on_c, 0, 68, 84
2, 34137, Note_on_c, 0, 69, 0
2, 34207, Note_on_c, 0, 66, 80
2, 34212, Note_on_c, 0, 68, 0
2, 34289, Note_on_c, 0, 66, 0
2, 34305, Note_on_c, 0, 64, 85
2, 34428, Note_on_c, 0, 63, 87
2, 34435, Note_on_c, 0, 64, 0
2, 34466, Note_on_c, 0, 63, 0
2, 34653, Note_on_c, 0, 57, 0
2, 34657, Note_on_c, 0, 66, 90
2, 34676, Note_on_c, 0, 59, 74
2, 34682, Note_on_c, 0, 66, 0
2, 34755, Note_on_c, 0, 59, 0
2, 34771, Note_on_c, 0, 57, 76
2, 34860, Note_on_c, 0, 57, 0
2, 34869, Note_on_c, 0, 56, 78
2, 34882, Note_on_c, 0, 71, 89
2, 34910, Note_on_c, 0, 71, 0
2, 34953, Note_on_c, 0, 56, 0
2, 34972, Note_on_c, 0, 54, 69
2, 35101, Note_on_c, 0, 53, 68
2, 35120, Note_on_c, 0, 71, 91
2, 35130, Note_on_c, 0, 54, 0
2, 35346, Note_on_c, 0, 53, 0
2, 35377, Note_on_c, 0, 54, 71
2, 35377, Note_on_c, 0, 68, 78
2, 35405, Note_on_c, 0, 68, 0
2, 35431, Note_on_c, 0, 54, 0
2, 35480, Note_on_c, 0, 53, 67
2, 35558, Note_on_c, 0, 53, 0
2, 35574, Note_on_c, 0, 51, 73
2, 35586, Note_on_c, 0, 65, 69
2, 35627, Note_on_c, 0, 65, 0
2, 35657, Note_on_c, 0, 51, 0
2, 35682, Note_on_c, 0, 49, 65
2, 35799, Note_on_c, 0, 49, 0
2, 35821, Note_on_c, 0, 54, 65
2, 35826, Note_on_c, 0, 61, 68
2, 35850, Note_on_c, 0, 71, 0
2, 36086, Note_on_c, 0, 69, 65
2, 36110, Note_on_c, 0, 61, 0
2, 36193, Note_on_c, 0, 68, 68
2, 36197, Note_on_c, 0, 69, 0
2, 36247, Note_on_c, 0, 54, 0
2, 36268, Note_on_c, 0, 42, 53
2, 36286, Note_on_c, 0, 66, 60
2, 36308, Note_on_c, 0, 42, 0
2, 36308, Note_on_c, 0, 68, 0
2, 36362, Note_on_c, 0, 66, 0
2, 36383, Note_on_c, 0, 64, 69
2, 36473, Note_on_c, 0, 64, 0
2, 36498, Note_on_c, 0, 62, 64
2, 36508, Note_on_c, 0, 54, 64
2, 36550, Note_on_c, 0, 54, 0
2, 36571, Note_on_c, 0, 52, 69
2, 36658, Note_on_c, 0, 52, 0
2, 36667, Note_on_c, 0, 54, 62
2, 36708, Note_on_c, 0, 66, 66
2, 36709, Note_on_c, 0, 62, 0
2, 36805, Note_on_c, 0, 66, 0
2, 36810, Note_on_c, 0, 64, 73
2, 36885, Note_on_c, 0, 64, 0
2, 36919, Note_on_c, 0, 62, 69
2, 36977, Note_on_c, 0, 62, 0
2, 37010, Note_on_c, 0, 61, 61
2, 37106, Note_on_c, 0, 61, 0
2, 37130, Note_on_c, 0, 59, 66
2, 37330, Note_on_c, 0, 59, 0
2, 37339, Note_on_c, 0, 54, 0
2, 37348, Note_on_c, 0, 62, 74
2, 37368, Note_on_c, 0, 55, 61
2, 37379, Note_on_c, 0, 62, 0
2, 37420, Note_on_c, 0, 55, 0
2, 37453, Note_on_c, 0, 54, 67
2, 37526, Note_on_c, 0, 54, 0
2, 37578, Note_on_c, 0, 52, 64
2, 37578, Note_on_c, 0, 67, 78
2, 37606, Note_on_c, 0, 67, 0
2, 37638, Note_on_c, 0, 52, 0
2, 37665, Note_on_c, 0, 50, 66
2, 37779, Note_on_c, 0, 50, 0
2, 37802, Note_on_c, 0, 49, 60
2, 37815, Note_on_c, 0, 67, 86
2, 38057, Note_on_c, 0, 49, 0
2, 38065, Note_on_c, 0, 64, 80
2, 38069, Note_on_c, 0, 50, 71
2, 38102, Note_on_c, 0, 64, 0
2, 38163, Note_on_c, 0, 50, 0
2, 38181, Note_on_c, 0, 49, 68
2, 38269, Note_on_c, 0, 49, 0
2, 38273, Note_on_c, 0, 61, 74
2, 38280, Note_on_c, 0, 47, 73
2, 38315, Note_on_c, 0, 61, 0
2, 38360, Note_on_c, 0, 47, 0
2, 38374, Note_on_c, 0, 45, 76
2, 38511, Note_on_c, 0, 50, 84
2, 38535, Note_on_c, 0, 57, 80
2, 38553, Note_on_c, 0, 45, 0
2, 38754, Note_on_c, 0, 57, 0
2, 38765, Note_on_c, 0, 66, 84
2, 38866, Note_on_c, 0, 67, 0
2, 38870, Note_on_c, 0, 64, 84
2, 38899, Note_on_c, 0, 66, 0
2, 38944, Note_on_c, 0, 38, 83
2, 38959, Note_on_c, 0, 64, 0
2, 38970, Note_on_c, 0, 62, 84
2, 38986, Control_c, 0, 64, 25
2, 39007, Control_c, 0, 64, 40
2, 39013, Note_on_c, 0, 50, 0
2, 39024, Control_c, 0, 64, 51
2, 39044, Control_c, 0, 64, 56
2, 39066, Control_c, 0, 64, 55
2, 39066, Note_on_c, 0, 38, 0
2, 39070, Note_on_c, 0, 61, 79
2, 39096, Note_on_c, 0, 62, 0
2, 39102, Control_c, 0, 64, 54
2, 39121, Control_c, 0, 64, 51
2, 39140, Control_c, 0, 64, 47
2, 39158, Control_c, 0, 64, 33
2, 39166, Note_on_c, 0, 50, 87
2, 39171, Note_on_c, 0, 59, 88
2, 39178, Control_c, 0, 64, 0
2, 39199, Note_on_c, 0, 61, 0
2, 39261, Note_on_c, 0, 50, 0
2, 39276, Note_on_c, 0, 49, 74
2, 39394, Note_on_c, 0, 50, 82
2, 39407, Note_on_c, 0, 59, 0
2, 39419, Note_on_c, 0, 49, 0
2, 39419, Note_on_c, 0, 62, 89
2, 39516, Note_on_c, 0, 61, 80
2, 39557, Note_on_c, 0, 62, 0
2, 39615, Note_on_c, 0, 59, 77
2, 39622, Note_on_c, 0, 61, 0
2, 39691, Note_on_c, 0, 59, 0
2, 39717, Note_on_c, 0, 57, 82
2, 39789, Note_on_c, 0, 57, 0
2, 39841, Note_on_c, 0, 56, 83
2, 39871, Note_on_c, 0, 56, 0
2, 40046, Note_on_c, 0, 50, 0
2, 40065, Note_on_c, 0, 59, 80
2, 40080, Note_on_c, 0, 52, 73
2, 40096, Note_on_c, 0, 59, 0
2, 40156, Note_on_c, 0, 52, 0
2, 40178, Note_on_c, 0, 50, 79
2, 40276, Note_on_c, 0, 50, 0
2, 40284, Note_on_c, 0, 49, 79
2, 40291, Note_on_c, 0, 64, 89
2, 40321, Note_on_c, 0, 64, 0
2, 40374, Note_on_c, 0, 49, 0
2, 40398, Note_on_c, 0, 47, 80
2, 40511, Note_on_c, 0, 61, 95
2, 40524, Note_on_c, 0, 45, 78
2, 40529, Note_on_c, 0, 47, 0
2, 40740, Note_on_c, 0, 45, 0
2, 40746, Note_on_c, 0, 47, 77
2, 40771, Note_on_c, 0, 64, 89
2, 40799, Note_on_c, 0, 61, 0
2, 40804, Note_on_c, 0, 64, 0
2, 40865, Note_on_c, 0, 49, 80
2, 40876, Note_on_c, 0, 47, 0
2, 40963, Note_on_c, 0, 49, 0
2, 40972, Note_on_c, 0, 69, 93
2, 40976, Note_on_c, 0, 50, 86
2, 41016, Note_on_c, 0, 69, 0
2, 41046, Note_on_c, 0, 50, 0
2, 41077, Note_on_c, 0, 52, 87
2, 41194, Note_on_c, 0, 54, 88
2, 41200, Note_on_c, 0, 62, 98
2, 41213, Note_on_c, 0, 52, 0
2, 41258, Note_on_c, 0, 54, 0
2, 41441, Note_on_c, 0, 52, 85
2, 41495, Note_on_c, 0, 52, 0
2, 41568, Note_on_c, 0, 62, 0
2, 41673, Control_c, 0, 64, 20
2, 41685, Note_on_c, 0, 71, 95
2, 41693, Control_c, 0, 64, 44
2, 41698, Note_on_c, 0, 50, 82
2, 41698, Note_on_c, 0, 62, 90
2, 41712, Control_c, 0, 64, 63
2, 41729, Note_on_c, 0, 50, 0
2, 41735, Control_c, 0, 64, 68
2, 41752, Control_c, 0, 64, 72
2, 41752, Note_on_c, 0, 62, 0
2, 41772, Control_c, 0, 64, 73
2, 41789, Control_c, 0, 64, 72
2, 41800, Note_on_c, 0, 71, 0
2, 41809, Control_c, 0, 64, 71
2, 41828, Control_c, 0, 64, 70
2, 41850, Control_c, 0, 64, 67
2, 41868, Control_c, 0, 64, 64
2, 41886, Control_c, 0, 64, 60
2, 41906, Control_c, 0, 64, 56
2, 41926, Control_c, 0, 64, 52
2, 41943, Note_on_c, 0, 61, 92
2, 41947, Control_c, 0, 64, 50
2, 41947, Note_on_c, 0, 64, 87
2, 41952, Note_on_c, 0, 52, 88
2, 41962, Control_c, 0, 64, 48
2, 41985, Control_c, 0, 64, 45
2, 42002, Control_c, 0, 64, 38
2, 42019, Control_c, 0, 64, 29
2, 42041, Control_c, 0, 64, 18
2, 42060, Control_c, 0, 64, 0
2, 42168, Note_on_c, 0, 69, 86
2, 42277, Note_on_c, 0, 61, 0
2, 42286, Note_on_c, 0, 64, 0
2, 42290, Note_on_c, 0, 69, 0
2, 42382, Note_on_c, 0, 40, 77
2, 42387, Note_on_c, 0, 52, 0
2, 42396, Note_on_c, 0, 68, 93
2, 42400, Note_on_c, 0, 59, 86
2, 42420, Note_on_c, 0, 40, 0
2, 42444, Note_on_c, 0, 59, 0
2, 42506, Note_on_c, 0, 68, 0
2, 42633, Note_on_c, 0, 45, 82
2, 42638, Note_on_c, 0, 61, 93
2, 42642, Note_on_c, 0, 69, 85
2, 42804, Note_on_c, 0, 45, 0
2, 42865, Note_on_c, 0, 49, 85
2, 42898, Note_on_c, 0, 49, 0
2, 43099, Note_on_c, 0, 52, 95
2, 43129, Note_on_c, 0, 52, 0
2, 43390, Note_on_c, 0, 57, 100
2, 43596, Control_c, 0, 64, 13
2, 43613, Control_c, 0, 64, 46
2, 43632, Control_c, 0, 64, 61
2, 43646, Note_on_c, 0, 61, 0
2, 43652, Control_c, 0, 64, 65
2, 43671, Control_c, 0, 64, 68
2, 43692, Control_c, 0, 64, 74
2, 43701, Note_on_c, 0, 57, 0
2, 43709, Control_c, 0, 64, 87
2, 43722, Note_on_c, 0, 69, 0
2, 43729, Control_c, 0, 64, 101
2, 43750, Control_c, 0, 64, 106
2, 43766, Control_c, 0, 64, 107
2, 43806, Control_c, 0, 64, 106
2, 43866, Control_c, 0, 64, 104
2, 43884, Control_c, 0, 64, 103
2, 43904, Control_c, 0, 64, 102
2, 43921, Control_c, 0, 64, 100
2, 44017, Control_c, 0, 64, 99
2, 44039, Control_c, 0, 64, 97
2, 44054, Control_c, 0, 64, 94
2, 44077, Control_c, 0, 64, 90
2, 44093, Control_c, 0, 64, 86
2, 44112, Control_c, 0, 64, 81
2, 44135, Control_c, 0, 64, 76
2, 44150, Control_c, 0, 64, 71
2, 44170, Control_c, 0, 64, 66
2, 44189, Control_c, 0, 64, 60
2, 44208, Control_c, 0, 64, 41
2, 44226, Control_c, 0, 64, 0
2, 44231, Note_on_c, 0, 45, 80
2, 44231, Note_on_c, 0, 57, 96
2, 44525, Note_on_c, 0, 76, 90
2, 44617, Note_on_c, 0, 74, 88
2, 44663, Note_on_c, 0, 76, 0
2, 44717, Note_on_c, 0, 73, 91
2, 44767, Note_on_c, 0, 74, 0
2, 44812, Note_on_c, 0, 71, 92
2, 44849, Note_on_c, 0, 73, 0
2, 44923, Note_on_c, 0, 69, 97
2, 44945, Note_on_c, 0, 71, 0
2, 44978, Note_on_c, 0, 69, 0
2, 44993, Note_on_c, 0, 57, 0
2, 45060, Note_on_c, 0, 45, 0
2, 45148, Note_on_c, 0, 73, 97
2, 45207, Note_on_c, 0, 73, 0
2, 45369, Note_on_c, 0, 69, 88
2, 45413, Note_on_c, 0, 69, 0
2, 45598, Note_on_c, 0, 64, 97
2, 45650, Note_on_c, 0, 64, 0
2, 45819, Note_on_c, 0, 69, 86
2, 45861, Note_on_c, 0, 69, 0
2, 46047, Note_on_c, 0, 64, 88
2, 46084, Note_on_c, 0, 64, 0
2, 46286, Note_on_c, 0, 61, 81
2, 46333, Note_on_c, 0, 61, 0
2, 46508, Note_on_c, 0, 64, 79
2, 46545, Note_on_c, 0, 64, 0
2, 46744, Note_on_c, 0, 61, 71
2, 46785, Note_on_c, 0, 61, 0
2, 46997, Note_on_c, 0, 57, 70
2, 47253, Note_on_c, 0, 69, 77
2, 47354, Note_on_c, 0, 71, 85
2, 47365, Note_on_c, 0, 69, 0
2, 47461, Note_on_c, 0, 73, 76
2, 47469, Note_on_c, 0, 71, 0
2, 47490, Note_on_c, 0, 57, 0
2, 47544, Note_on_c, 0, 73, 0
2, 47552, Note_on_c, 0, 74, 75
2, 47669, Note_on_c, 0, 74, 0
2, 47669, Note_on_c, 0, 76, 79
2, 47673, Note_on_c, 0, 69, 61
2, 47681, Note_on_c, 0, 61, 55
2, 47694, Note_on_c, 0, 57, 40
2, 47694, Note_on_c, 0, 76, 0
2, 47894, Note_on_c, 0, 73, 73
2, 47927, Note_on_c, 0, 73, 0
2, 48036, Note_on_c, 0, 61, 0
2, 48097, Note_on_c, 0, 69, 0
2, 48120, Note_on_c, 0, 76, 79
2, 48161, Note_on_c, 0, 76, 0
2, 48290, Note_on_c, 0, 76, 30
2, 48339, Note_on_c, 0, 61, 48
2, 48343, Note_on_c, 0, 69, 48
2, 48360, Note_on_c, 0, 76, 0
2, 48360, Note_on_c, 0, 81, 78
2, 48475, Note_on_c, 0, 76, 80
2, 48488, Note_on_c, 0, 81, 0
2, 48528, Note_on_c, 0, 69, 0
2, 48584, Note_on_c, 0, 78, 92
2, 48616, Note_on_c, 0, 76, 0
2, 48706, Note_on_c, 0, 80, 89
2, 48712, Note_on_c, 0, 62, 67
2, 48745, Note_on_c, 0, 78, 0
2, 48769, Note_on_c, 0, 57, 0
2, 48820, Note_on_c, 0, 81, 87
2, 48829, Note_on_c, 0, 80, 0
2, 48844, Note_on_c, 0, 61, 0
2, 48934, Note_on_c, 0, 80, 89
2, 48943, Note_on_c, 0, 62, 0
2, 48950, Note_on_c, 0, 81, 0
2, 49050, Note_on_c, 0, 80, 0
2, 49054, Note_on_c, 0, 71, 74
2, 49057, Note_on_c, 0, 81, 82
2, 49077, Note_on_c, 0, 62, 63
2, 49172, Note_on_c, 0, 76, 76
2, 49177, Note_on_c, 0, 81, 0
2, 49242, Note_on_c, 0, 71, 0
2, 49286, Note_on_c, 0, 78, 77
2, 49291, Note_on_c, 0, 76, 0
2, 49399, Note_on_c, 0, 78, 0
2, 49408, Note_on_c, 0, 80, 70
2, 49410, Note_on_c, 0, 64, 64
2, 49414, Note_on_c, 0, 62, 0
2, 49414, Note_on_c, 0, 73, 69
2, 49507, Note_on_c, 0, 80, 0
2, 49540, Note_on_c, 0, 81, 60
2, 49590, Note_on_c, 0, 64, 0
2, 49614, Note_on_c, 0, 73, 0
2, 49654, Note_on_c, 0, 81, 0
2, 49661, Note_on_c, 0, 80, 60
2, 49772, Note_on_c, 0, 80, 0
2, 49786, Note_on_c, 0, 73, 51
2, 49790, Note_on_c, 0, 64, 51
2, 49795, Note_on_c, 0, 81, 64
2, 49811, Control_c, 0, 64, 35
2, 49834, Control_c, 0, 64, 59
2, 49848, Note_on_c, 0, 73, 0
2, 49853, Control_c, 0, 64, 72
2, 49868, Control_c, 0, 64, 82
2, 49885, Note_on_c, 0, 64, 0
2, 49892, Control_c, 0, 64, 92
2, 49912, Control_c, 0, 64, 97
2, 49927, Control_c, 0, 64, 100
2, 49966, Control_c, 0, 64, 96
2, 49987, Control_c, 0, 64, 92
2, 50002, Control_c, 0, 64, 90
2, 50022, Control_c, 0, 64, 88
2, 50044, Control_c, 0, 64, 85
2, 50055, Note_on_c, 0, 64, 74
2, 50067, Control_c, 0, 64, 79
2, 50067, Note_on_c, 0, 80, 74
2, 50081, Control_c, 0, 64, 74
2, 50100, Control_c, 0, 64, 67
2, 50105, Note_on_c, 0, 81, 0
2, 50119, Control_c, 0, 64, 59
2, 50136, Note_on_c, 0, 64, 0
2, 50140, Control_c, 0, 64, 48
2, 50158, Control_c, 0, 64, 30
2, 50167, Note_on_c, 0, 62, 75
2, 50178, Control_c, 0, 64, 0
2, 50178, Note_on_c, 0, 78, 85
2, 50185, Note_on_c, 0, 80, 0
2, 50255, Note_on_c, 0, 62, 0
2, 50261, Note_on_c, 0, 61, 72
2, 50275, Note_on_c, 0, 76, 77
2, 50279, Note_on_c, 0, 78, 0
2, 50339, Note_on_c, 0, 61, 0
2, 50361, Note_on_c, 0, 59, 75
2, 50377, Note_on_c, 0, 74, 79
2, 50390, Note_on_c, 0, 76, 0
2, 50472, Note_on_c, 0, 59, 0
2, 50479, Note_on_c, 0, 57, 87
2, 50483, Note_on_c, 0, 73, 86
2, 50488, Note_on_c, 0, 74, 0
2, 50509, Note_on_c, 0, 57, 0
2, 50567, Note_on_c, 0, 73, 0
2, 50601, Note_on_c, 0, 74, 72
2, 50703, Note_on_c, 0, 74, 0
2, 50710, Note_on_c, 0, 61, 71
2, 50717, Note_on_c, 0, 76, 75
2, 50742, Note_on_c, 0, 61, 0
2, 50827, Note_on_c, 0, 74, 65
2, 50827, Note_on_c, 0, 76, 0
2, 50896, Note_on_c, 0, 73, 73
2, 50925, Note_on_c, 0, 74, 0
2, 50936, Note_on_c, 0, 57, 74
2, 50968, Note_on_c, 0, 57, 0
2, 50980, Note_on_c, 0, 73, 0
2, 51006, Note_on_c, 0, 71, 74
2, 51040, Note_on_c, 0, 71, 0
2, 51115, Note_on_c, 0, 71, 85
2, 51123, Note_on_c, 0, 52, 82
2, 51157, Note_on_c, 0, 52, 0
2, 51186, Note_on_c, 0, 71, 0
2, 51208, Note_on_c, 0, 69, 68
2, 51264, Note_on_c, 0, 69, 0
2, 51279, Note_on_c, 0, 71, 70
2, 51316, Note_on_c, 0, 71, 0
2, 51345, Note_on_c, 0, 57, 77
2, 51345, Note_on_c, 0, 69, 71
2, 51377, Note_on_c, 0, 57, 0
2, 51390, Note_on_c, 0, 71, 76
2, 51395, Note_on_c, 0, 69, 0
2, 51438, Note_on_c, 0, 71, 0
2, 51462, Note_on_c, 0, 69, 66
2, 51516, Note_on_c, 0, 69, 0
2, 51526, Note_on_c, 0, 71, 74
2, 51565, Note_on_c, 0, 52, 74
2, 51576, Note_on_c, 0, 71, 0
2, 51593, Note_on_c, 0, 69, 65
2, 51597, Note_on_c, 0, 52, 0
2, 51644, Note_on_c, 0, 69, 0
2, 51660, Note_on_c, 0, 71, 63
2, 51703, Note_on_c, 0, 71, 0
2, 51719, Note_on_c, 0, 69, 70
2, 51771, Note_on_c, 0, 49, 81
2, 51775, Note_on_c, 0, 69, 0
2, 51779, Note_on_c, 0, 71, 76
2, 51805, Note_on_c, 0, 49, 0
2, 51827, Note_on_c, 0, 71, 0
2, 51856, Note_on_c, 0, 69, 65
2, 51901, Note_on_c, 0, 69, 0
2, 51916, Note_on_c, 0, 71, 69
2, 51962, Note_on_c, 0, 71, 0
2, 51978, Note_on_c, 0, 69, 69
2, 52006, Note_on_c, 0, 52, 78
2, 52033, Note_on_c, 0, 69, 0
2, 52036, Note_on_c, 0, 52, 0
2, 52044, Note_on_c, 0, 71, 68
2, 52088, Note_on_c, 0, 71, 0
2, 52106, Note_on_c, 0, 69, 70
2, 52160, Note_on_c, 0, 69, 0
2, 52164, Note_on_c, 0, 71, 75
2, 52225, Note_on_c, 0, 49, 75
2, 52225, Note_on_c, 0, 71, 0
2, 52233, Note_on_c, 0, 69, 68
2, 52255, Note_on_c, 0, 49, 0
2, 52283, Note_on_c, 0, 69, 0
2, 52287, Note_on_c, 0, 71, 68
2, 52358, Note_on_c, 0, 71, 0
2, 52364, Note_on_c, 0, 69, 76
2, 52450, Note_on_c, 0, 45, 83
2, 52579, Note_on_c, 0, 71, 77
2, 52583, Note_on_c, 0, 69, 0
2, 52685, Note_on_c, 0, 71, 0
2, 52688, Note_on_c, 0, 69, 75
2, 52774, Note_on_c, 0, 69, 0
2, 52799, Note_on_c, 0, 68, 79
2, 52885, Control_c, 0, 64, 21
2, 52902, Control_c, 0, 64, 39
2, 52913, Note_on_c, 0, 68, 0
2, 52913, Note_on_c, 0, 69, 72
2, 52924, Control_c, 0, 64, 50
2, 52942, Control_c, 0, 64, 55
2, 52999, Note_on_c, 0, 69, 0
2, 53025, Note_on_c, 0, 64, 67
2, 53040, Control_c, 0, 64, 54
2, 53043, Note_on_c, 0, 45, 0
2, 53097, Control_c, 0, 64, 53
2, 53114, Control_c, 0, 64, 52
2, 53118, Note_on_c, 0, 64, 0
2, 53134, Control_c, 0, 64, 51
2, 53143, Note_on_c, 0, 61, 68
2, 53151, Control_c, 0, 64, 49
2, 53156, Note_on_c, 0, 52, 69
2, 53171, Control_c, 0, 64, 47
2, 53178, Note_on_c, 0, 49, 53
2, 53191, Control_c, 0, 64, 42
2, 53196, Note_on_c, 0, 45, 52
2, 53211, Control_c, 0, 64, 34
2, 53228, Control_c, 0, 64, 25
2, 53248, Note_on_c, 0, 61, 0
2, 53251, Control_c, 0, 64, 21
2, 53255, Note_on_c, 0, 66, 67
2, 53359, Note_on_c, 0, 66, 0
2, 53381, Note_on_c, 0, 64, 72
2, 53480, Control_c, 0, 64, 23
2, 53488, Note_on_c, 0, 62, 80
2, 53488, Note_on_c, 0, 64, 0
2, 53501, Control_c, 0, 64, 25
2, 53516, Control_c, 0, 64, 27
2, 53538, Control_c, 0, 64, 29
2, 53559, Control_c, 0, 64, 32
2, 53575, Control_c, 0, 64, 37
2, 53582, Note_on_c, 0, 62, 0
2, 53593, Control_c, 0, 64, 47
2, 53606, Note_on_c, 0, 64, 71
2, 53615, Control_c, 0, 64, 58
2, 53633, Control_c, 0, 64, 62
2, 53684, Note_on_c, 0, 45, 0
2, 53684, Note_on_c, 0, 52, 0
2, 53688, Note_on_c, 0, 49, 0
2, 53703, Note_on_c, 0, 64, 0
2, 53715, Note_on_c, 0, 61, 67
2, 53761, Note_on_c, 0, 61, 0
2, 53787, Control_c, 0, 64, 61
2, 53826, Control_c, 0, 64, 60
2, 53834, Note_on_c, 0, 52, 61
2, 53847, Control_c, 0, 64, 58
2, 53852, Note_on_c, 0, 49, 57
2, 53852, Note_on_c, 0, 59, 74
2, 53856, Note_on_c, 0, 45, 50
2, 53862, Control_c, 0, 64, 57
2, 53883, Control_c, 0, 64, 54
2, 53901, Control_c, 0, 64, 50
2, 53905, Note_on_c, 0, 59, 0
2, 53921, Control_c, 0, 64, 44
2, 53930, Note_on_c, 0, 57, 73
2, 53940, Control_c, 0, 64, 34
2, 53960, Control_c, 0, 64, 12
2, 53979, Control_c, 0, 64, 0
2, 53986, Note_on_c, 0, 57, 0
2, 54012, Note_on_c, 0, 59, 68
2, 54059, Note_on_c, 0, 59, 0
2, 54082, Note_on_c, 0, 57, 64
2, 54134, Note_on_c, 0, 57, 0
2, 54154, Note_on_c, 0, 59, 58
2, 54199, Note_on_c, 0, 59, 0
2, 54211, Note_on_c, 0, 57, 55
2, 54215, Note_on_c, 0, 47, 61
2, 54219, Note_on_c, 0, 50, 58
2, 54259, Note_on_c, 0, 49, 0
2, 54263, Note_on_c, 0, 52, 0
2, 54263, Note_on_c, 0, 57, 0
2, 54289, Note_on_c, 0, 59, 63
2, 54330, Note_on_c, 0, 59, 0
2, 54357, Note_on_c, 0, 57, 63
2, 54396, Note_on_c, 0, 57, 0
2, 54418, Note_on_c, 0, 59, 65
2, 54454, Note_on_c, 0, 47, 0
2, 54458, Note_on_c, 0, 50, 0
2, 54458, Note_on_c, 0, 59, 0
2, 54487, Note_on_c, 0, 57, 66
2, 54531, Note_on_c, 0, 57, 0
2, 54542, Note_on_c, 0, 59, 66
2, 54590, Note_on_c, 0, 50, 59
2, 54594, Note_on_c, 0, 47, 58
2, 54594, Note_on_c, 0, 59, 0
2, 54619, Note_on_c, 0, 57, 65
2, 54660, Note_on_c, 0, 57, 0
2, 54680, Note_on_c, 0, 59, 64
2, 54725, Note_on_c, 0, 59, 0
2, 54759, Note_on_c, 0, 57, 58
2, 54802, Note_on_c, 0, 57, 0
2, 54811, Note_on_c, 0, 59, 65
2, 54855, Note_on_c, 0, 59, 0
2, 54885, Note_on_c, 0, 57, 54
2, 54931, Note_on_c, 0, 57, 0
2, 54944, Note_on_c, 0, 59, 63
2, 54977, Note_on_c, 0, 52, 52
2, 54984, Note_on_c, 0, 59, 0
2, 54986, Note_on_c, 0, 49, 53
2, 54999, Note_on_c, 0, 47, 0
2, 54999, Note_on_c, 0, 57, 62
2, 55044, Note_on_c, 0, 50, 0
2, 55044, Note_on_c, 0, 57, 0
2, 55069, Note_on_c, 0, 59, 68
2, 55121, Note_on_c, 0, 59, 0
2, 55140, Note_on_c, 0, 57, 61
2, 55165, Note_on_c, 0, 49, 0
2, 55178, Note_on_c, 0, 52, 0
2, 55321, Note_on_c, 0, 57, 0
2, 55348, Note_on_c, 0, 52, 65
2, 55355, Note_on_c, 0, 49, 54
2, 55646, Note_on_c, 0, 57, 85
2, 55745, Note_on_c, 0, 59, 86
2, 55760, Note_on_c, 0, 57, 0
2, 55841, Note_on_c, 0, 61, 81
2, 55850, Note_on_c, 0, 59, 0
2, 55876, Note_on_c, 0, 45, 0
2, 55898, Note_on_c, 0, 52, 0
2, 55924, Note_on_c, 0, 49, 0
2, 55933, Note_on_c, 0, 62, 92
2, 55940, Note_on_c, 0, 61, 0
2, 56005, Note_on_c, 0, 62, 0
2, 56056, Note_on_c, 0, 64, 96
2, 56094, Note_on_c, 0, 64, 0
2, 56286, Note_on_c, 0, 61, 84
2, 56317, Note_on_c, 0, 61, 0
2, 56517, Note_on_c, 0, 64, 89
2, 56529, Note_on_c, 0, 57, 75
2, 56557, Note_on_c, 0, 57, 0
2, 56571, Note_on_c, 0, 64, 0
2, 56724, Control_c, 0, 64, 18
2, 56743, Control_c, 0, 64, 41
2, 56758, Note_on_c, 0, 67, 77
2, 56763, Control_c, 0, 64, 57
2, 56771, Note_on_c, 0, 59, 58
2, 56780, Control_c, 0, 64, 63
2, 56935, Control_c, 0, 64, 62
2, 56973, Control_c, 0, 64, 61
2, 56992, Control_c, 0, 64, 60
2, 57014, Control_c, 0, 64, 58
2, 57015, Note_on_c, 0, 59, 0
2, 57021, Note_on_c, 0, 76, 82
2, 57036, Control_c, 0, 64, 55
2, 57036, Note_on_c, 0, 61, 61
2, 57053, Control_c, 0, 64, 48
2, 57069, Control_c, 0, 64, 32
2, 57084, Note_on_c, 0, 67, 0
2, 57089, Control_c, 0, 64, 0
2, 57129, Note_on_c, 0, 61, 0
2, 57129, Note_on_c, 0, 74, 78
2, 57149, Note_on_c, 0, 59, 70
2, 57170, Note_on_c, 0, 76, 0
2, 57201, Note_on_c, 0, 59, 0
2, 57228, Note_on_c, 0, 73, 85
2, 57239, Note_on_c, 0, 57, 61
2, 57265, Note_on_c, 0, 74, 0
2, 57314, Note_on_c, 0, 57, 0
2, 57339, Note_on_c, 0, 59, 68
2, 57346, Note_on_c, 0, 73, 0
2, 57350, Note_on_c, 0, 71, 80
2, 57409, Note_on_c, 0, 59, 0
2, 57438, Note_on_c, 0, 71, 0
2, 57449, Note_on_c, 0, 61, 57
2, 57463, Note_on_c, 0, 69, 70
2, 57676, Note_on_c, 0, 61, 0
2, 57694, Note_on_c, 0, 76, 78
2, 57700, Note_on_c, 0, 69, 0
2, 57713, Note_on_c, 0, 62, 57
2, 57725, Note_on_c, 0, 76, 0
2, 57776, Note_on_c, 0, 62, 0
2, 57826, Note_on_c, 0, 61, 56
2, 57884, Note_on_c, 0, 61, 0
2, 57921, Note_on_c, 0, 67, 70
2, 57930, Note_on_c, 0, 59, 60
2, 57956, Note_on_c, 0, 67, 0
2, 57980, Note_on_c, 0, 59, 0
2, 58034, Note_on_c, 0, 61, 54
2, 58082, Note_on_c, 0, 61, 0
2, 58154, Note_on_c, 0, 62, 55
2, 58162, Note_on_c, 0, 66, 68
2, 58221, Control_c, 0, 64, 14
2, 58241, Control_c, 0, 64, 48
2, 58259, Control_c, 0, 64, 62
2, 58277, Note_on_c, 0, 62, 0
2, 58282, Control_c, 0, 64, 65
2, 58297, Control_c, 0, 64, 67
2, 58317, Control_c, 0, 64, 69
2, 58336, Control_c, 0, 64, 75
2, 58356, Control_c, 0, 64, 82
2, 58373, Control_c, 0, 64, 89
2, 58414, Control_c, 0, 64, 88
2, 58433, Control_c, 0, 64, 85
2, 58437, Note_on_c, 0, 62, 90
2, 58443, Note_on_c, 0, 66, 0
2, 58452, Control_c, 0, 64, 80
2, 58469, Control_c, 0, 64, 75
2, 58491, Control_c, 0, 64, 70
2, 58510, Control_c, 0, 64, 62
2, 58526, Control_c, 0, 64, 52
2, 58533, Note_on_c, 0, 64, 93
2, 58549, Control_c, 0, 64, 34
2, 58553, Note_on_c, 0, 62, 0
2, 58569, Control_c, 0, 64, 0
2, 58642, Note_on_c, 0, 66, 87
2, 58679, Note_on_c, 0, 64, 0
2, 58739, Note_on_c, 0, 67, 83
2, 58743, Note_on_c, 0, 66, 0
2, 58858, Note_on_c, 0, 69, 94
2, 58878, Note_on_c, 0, 67, 0
2, 58894, Note_on_c, 0, 69, 0
2, 59092, Note_on_c, 0, 66, 89
2, 59119, Note_on_c, 0, 66, 0
2, 59322, Note_on_c, 0, 50, 75
2, 59326, Note_on_c, 0, 69, 90
2, 59352, Note_on_c, 0, 50, 0
2, 59378, Note_on_c, 0, 69, 0
2, 59451, Control_c, 0, 64, 15
2, 59469, Control_c, 0, 64, 47
2, 59489, Control_c, 0, 64, 63
2, 59507, Control_c, 0, 64, 67
2, 59528, Control_c, 0, 64, 68
2, 59545, Control_c, 0, 64, 69
2, 59565, Control_c, 0, 64, 70
2, 59569, Note_on_c, 0, 72, 94
2, 59586, Control_c, 0, 64, 71
2, 59595, Note_on_c, 0, 52, 63
2, 59604, Control_c, 0, 64, 72
2, 59698, Control_c, 0, 64, 71
2, 59718, Control_c, 0, 64, 70
2, 59758, Control_c, 0, 64, 68
2, 59778, Control_c, 0, 64, 67
2, 59792, Note_on_c, 0, 52, 0
2, 59797, Control_c, 0, 64, 66
2, 59814, Control_c, 0, 64, 65
2, 59828, Note_on_c, 0, 81, 90
2, 59837, Control_c, 0, 64, 64
2, 59837, Note_on_c, 0, 54, 57
2, 59852, Control_c, 0, 64, 63
2, 59874, Control_c, 0, 64, 61
2, 59874, Note_on_c, 0, 72, 0
2, 59892, Control_c, 0, 64, 58
2, 59911, Control_c, 0, 64, 55
2, 59931, Control_c, 0, 64, 53
2, 59944, Note_on_c, 0, 79, 91
2, 59953, Control_c, 0, 64, 51
2, 59953, Note_on_c, 0, 54, 0
2, 59957, Note_on_c, 0, 52, 72
2, 59969, Control_c, 0, 64, 49
2, 59986, Control_c, 0, 64, 47
2, 60006, Control_c, 0, 64, 45
2, 60028, Control_c, 0, 64, 44
2, 60044, Control_c, 0, 64, 43
2, 60055, Note_on_c, 0, 50, 72
2, 60055, Note_on_c, 0, 78, 96
2, 60060, Note_on_c, 0, 52, 0
2, 60064, Note_on_c, 0, 81, 0
2, 60085, Control_c, 0, 64, 42
2, 60119, Note_on_c, 0, 79, 0
2, 60123, Control_c, 0, 64, 41
2, 60159, Note_on_c, 0, 52, 73
2, 60165, Note_on_c, 0, 76, 98
2, 60171, Note_on_c, 0, 50, 0
2, 60214, Note_on_c, 0, 78, 0
2, 60284, Note_on_c, 0, 74, 93
2, 60291, Note_on_c, 0, 54, 77
2, 60300, Note_on_c, 0, 52, 0
2, 60370, Note_on_c, 0, 76, 0
2, 60531, Note_on_c, 0, 54, 0
2, 60535, Note_on_c, 0, 55, 76
2, 60535, Note_on_c, 0, 81, 91
2, 60564, Control_c, 0, 64, 40
2, 60610, Note_on_c, 0, 74, 0
2, 60621, Control_c, 0, 64, 39
2, 60643, Note_on_c, 0, 54, 85
2, 60648, Note_on_c, 0, 55, 0
2, 60659, Control_c, 0, 64, 37
2, 60681, Control_c, 0, 64, 36
2, 60698, Control_c, 0, 64, 35
2, 60718, Control_c, 0, 64, 34
2, 60738, Control_c, 0, 64, 33
2, 60738, Note_on_c, 0, 54, 0
2, 60756, Control_c, 0, 64, 32
2, 60760, Note_on_c, 0, 72, 91
2, 60760, Note_on_c, 0, 81, 0
2, 60765, Note_on_c, 0, 52, 79
2, 60815, Control_c, 0, 64, 31
2, 60852, Control_c, 0, 64, 30
2, 60863, Note_on_c, 0, 54, 84
2, 60876, Note_on_c, 0, 52, 0
2, 60891, Control_c, 0, 64, 29
2, 60911, Control_c, 0, 64, 27
2, 60929, Control_c, 0, 64, 26
2, 60949, Control_c, 0, 64, 25
2, 60966, Control_c, 0, 64, 24
2, 60987, Control_c, 0, 64, 23
2, 60991, Note_on_c, 0, 71, 89
2, 61008, Note_on_c, 0, 55, 85
2, 61014, Note_on_c, 0, 54, 0
2, 61037, Note_on_c, 0, 72, 0
2, 61143, Note_on_c, 0, 55, 0
2, 61201, Control_c, 0, 64, 21
2, 61216, Control_c, 0, 64, 0
2, 61272, Note_on_c, 0, 59, 69
2, 61276, Note_on_c, 0, 60, 58
2, 61299, Note_on_c, 0, 60, 0
2, 61353, Note_on_c, 0, 57, 83
2, 61357, Note_on_c, 0, 59, 0
2, 61423, Note_on_c, 0, 57, 0
2, 61444, Note_on_c, 0, 69, 69
2, 61467, Note_on_c, 0, 55, 81
2, 61511, Note_on_c, 0, 69, 0
2, 61547, Note_on_c, 0, 55, 0
2, 61556, Note_on_c, 0, 54, 82
2, 61667, Note_on_c, 0, 67, 75
2, 61679, Note_on_c, 0, 52, 75
2, 61682, Note_on_c, 0, 54, 0
2, 61709, Note_on_c, 0, 67, 0
2, 61709, Note_on_c, 0, 69, 73
2, 61781, Note_on_c, 0, 67, 68
2, 61781, Note_on_c, 0, 69, 0
2, 61801, Note_on_c, 0, 52, 0
2, 61935, Note_on_c, 0, 55, 66
2, 62011, Note_on_c, 0, 55, 0
2, 62033, Note_on_c, 0, 54, 71
2, 62109, Note_on_c, 0, 67, 0
2, 62113, Note_on_c, 0, 54, 0
2, 62113, Note_on_c, 0, 66, 58
2, 62151, Note_on_c, 0, 66, 0
2, 62159, Note_on_c, 0, 52, 67
2, 62214, Note_on_c, 0, 52, 0
2, 62247, Note_on_c, 0, 50, 68
2, 62369, Note_on_c, 0, 50, 0
2, 62380, Note_on_c, 0, 49, 61
2, 62380, Note_on_c, 0, 64, 69
2, 62385, Note_on_c, 0, 71, 0
2, 62543, Note_on_c, 0, 49, 0
2, 62626, Note_on_c, 0, 73, 70
2, 62639, Note_on_c, 0, 52, 58
2, 62676, Note_on_c, 0, 52, 0
2, 62724, Note_on_c, 0, 73, 0
2, 62732, Note_on_c, 0, 71, 65
2, 62821, Note_on_c, 0, 71, 0
2, 62851, Note_on_c, 0, 70, 63
2, 62855, Note_on_c, 0, 49, 52
2, 62891, Note_on_c, 0, 49, 0
2, 62938, Note_on_c, 0, 70, 0
2, 62958, Note_on_c, 0, 71, 62
2, 63032, Note_on_c, 0, 71, 0
2, 63077, Note_on_c, 0, 73, 73
2, 63080, Note_on_c, 0, 46, 62
2, 63121, Note_on_c, 0, 46, 0
2, 63198, Note_on_c, 0, 64, 0
2, 63301, Note_on_c, 0, 49, 61
2, 63346, Note_on_c, 0, 49, 0
2, 63544, Note_on_c, 0, 46, 55
2, 63547, Note_on_c, 0, 67, 62
2, 63588, Note_on_c, 0, 46, 0
2, 63588, Note_on_c, 0, 67, 0
2, 63791, Note_on_c, 0, 66, 76
2, 63805, Note_on_c, 0, 50, 55
2, 63809, Control_c, 0, 64, 30
2, 63828, Control_c, 0, 64, 44
2, 63850, Control_c, 0, 64, 54
2, 63850, Note_on_c, 0, 50, 0
2, 63858, Note_on_c, 0, 73, 0
2, 63866, Control_c, 0, 64, 58
2, 63943, Control_c, 0, 64, 57
2, 63965, Control_c, 0, 64, 56
2, 63981, Control_c, 0, 64, 55
2, 64001, Control_c, 0, 64, 54
2, 64020, Control_c, 0, 64, 53
2, 64039, Control_c, 0, 64, 51
2, 64043, Note_on_c, 0, 74, 78
2, 64050, Note_on_c, 0, 54, 64
2, 64059, Control_c, 0, 64, 50
2, 64077, Control_c, 0, 64, 48
2, 64088, Note_on_c, 0, 54, 0
2, 64098, Control_c, 0, 64, 43
2, 64117, Control_c, 0, 64, 37
2, 64133, Control_c, 0, 64, 30
2, 64146, Note_on_c, 0, 73, 85
2, 64154, Control_c, 0, 64, 21
2, 64159, Note_on_c, 0, 74, 0
2, 64173, Control_c, 0, 64, 13
2, 64192, Control_c, 0, 64, 0
2, 64259, Note_on_c, 0, 50, 60
2, 64263, Note_on_c, 0, 71, 82
2, 64263, Note_on_c, 0, 73, 0
2, 64297, Note_on_c, 0, 50, 0
2, 64365, Note_on_c, 0, 73, 86
2, 64397, Note_on_c, 0, 71, 0
2, 64498, Note_on_c, 0, 47, 68
2, 64498, Note_on_c, 0, 74, 92
2, 64518, Note_on_c, 0, 73, 0
2, 64531, Note_on_c, 0, 47, 0
2, 64624, Note_on_c, 0, 66, 0
2, 64739, Note_on_c, 0, 50, 69
2, 64780, Note_on_c, 0, 50, 0
2, 64969, Note_on_c, 0, 69, 78
2, 64973, Note_on_c, 0, 47, 71
2, 65007, Note_on_c, 0, 47, 0
2, 65012, Note_on_c, 0, 69, 0
2, 65152, Control_c, 0, 64, 16
2, 65174, Control_c, 0, 64, 28
2, 65192, Control_c, 0, 64, 43
2, 65210, Control_c, 0, 64, 59
2, 65219, Note_on_c, 0, 52, 78
2, 65221, Note_on_c, 0, 67, 85
2, 65230, Control_c, 0, 64, 65
2, 65262, Note_on_c, 0, 52, 0
2, 65269, Control_c, 0, 64, 66
2, 65274, Note_on_c, 0, 74, 0
2, 65305, Control_c, 0, 64, 65
2, 65347, Control_c, 0, 64, 64
2, 65362, Control_c, 0, 64, 63
2, 65402, Control_c, 0, 64, 61
2, 65422, Control_c, 0, 64, 60
2, 65440, Control_c, 0, 64, 59
2, 65454, Note_on_c, 0, 76, 93
2, 65459, Control_c, 0, 64, 57
2, 65470, Note_on_c, 0, 55, 72
2, 65479, Control_c, 0, 64, 55
2, 65497, Control_c, 0, 64, 50
2, 65508, Note_on_c, 0, 55, 0
2, 65517, Control_c, 0, 64, 43
2, 65537, Control_c, 0, 64, 33
2, 65557, Control_c, 0, 64, 28
2, 65559, Note_on_c, 0, 74, 87
2, 65574, Control_c, 0, 64, 25
2, 65594, Control_c, 0, 64, 24
2, 65601, Note_on_c, 0, 76, 0
2, 65613, Control_c, 0, 64, 18
2, 65632, Control_c, 0, 64, 0
2, 65666, Note_on_c, 0, 73, 92
2, 65675, Note_on_c, 0, 74, 0
2, 65679, Note_on_c, 0, 52, 70
2, 65716, Note_on_c, 0, 52, 0
2, 65778, Note_on_c, 0, 74, 89
2, 65822, Note_on_c, 0, 73, 0
2, 65903, Note_on_c, 0, 76, 100
2, 65907, Note_on_c, 0, 49, 75
2, 65916, Note_on_c, 0, 74, 0
2, 65960, Note_on_c, 0, 49, 0
2, 66120, Note_on_c, 0, 67, 0
2, 66134, Note_on_c, 0, 52, 83
2, 66171, Note_on_c, 0, 52, 0
2, 66364, Note_on_c, 0, 71, 91
2, 66368, Note_on_c, 0, 49, 66
2, 66422, Note_on_c, 0, 49, 0
2, 66426, Note_on_c, 0, 71, 0
2, 66593, Control_c, 0, 64, 8
2, 66613, Control_c, 0, 64, 34
2, 66613, Note_on_c, 0, 54, 81
2, 66625, Note_on_c, 0, 70, 87
2, 66631, Control_c, 0, 64, 51
2, 66647, Note_on_c, 0, 76, 0
2, 66652, Control_c, 0, 64, 60
2, 66670, Control_c, 0, 64, 59
2, 66687, Control_c, 0, 64, 60
2, 66802, Control_c, 0, 64, 59
2, 66852, Note_on_c, 0, 70, 0
2, 66863, Control_c, 0, 64, 58
2, 66877, Note_on_c, 0, 79, 96
2, 66899, Control_c, 0, 64, 56
2, 66919, Control_c, 0, 64, 55
2, 66938, Control_c, 0, 64, 53
2, 66956, Control_c, 0, 64, 51
2, 66978, Control_c, 0, 64, 47
2, 66986, Note_on_c, 0, 78, 87
2, 66995, Control_c, 0, 64, 41
2, 67017, Control_c, 0, 64, 34
2, 67034, Control_c, 0, 64, 30
2, 67052, Control_c, 0, 64, 27
2, 67072, Control_c, 0, 64, 25
2, 67090, Note_on_c, 0, 76, 89
2, 67094, Control_c, 0, 64, 21
2, 67094, Note_on_c, 0, 79, 0
2, 67099, Note_on_c, 0, 59, 87
2, 67110, Control_c, 0, 64, 18
2, 67119, Note_on_c, 0, 54, 0
2, 67129, Control_c, 0, 64, 17
2, 67129, Note_on_c, 0, 59, 0
2, 67149, Control_c, 0, 64, 16
2, 67169, Control_c, 0, 64, 15
2, 67189, Control_c, 0, 64, 13
2, 67193, Note_on_c, 0, 75, 91
2, 67193, Note_on_c, 0, 78, 0
2, 67217, Note_on_c, 0, 76, 0
2, 67264, Control_c, 0, 64, 12
2, 67284, Control_c, 0, 64, 11
2, 67325, Note_on_c, 0, 76, 97
2, 67327, Note_on_c, 0, 58, 79
2, 67376, Note_on_c, 0, 75, 0
2, 67400, Control_c, 0, 64, 9
2, 67417, Control_c, 0, 64, 0
2, 67562, Note_on_c, 0, 79, 92
2, 67569, Note_on_c, 0, 59, 88
2, 67575, Note_on_c, 0, 76, 0
2, 67580, Note_on_c, 0, 58, 0
2, 67611, Note_on_c, 0, 59, 0
2, 67622, Note_on_c, 0, 79, 0
2, 67799, Note_on_c, 0, 75, 89
2, 67814, Note_on_c, 0, 61, 73
2, 67848, Note_on_c, 0, 61, 0
2, 67876, Note_on_c, 0, 75, 0
2, 68034, Control_c, 0, 64, 17
2, 68055, Control_c, 0, 64, 30
2, 68055, Note_on_c, 0, 54, 73
2, 68059, Note_on_c, 0, 73, 82
2, 68059, Note_on_c, 0, 76, 83
2, 68071, Control_c, 0, 64, 46
2, 68092, Control_c, 0, 64, 62
2, 68109, Control_c, 0, 64, 67
2, 68129, Control_c, 0, 64, 69
2, 68147, Control_c, 0, 64, 72
2, 68158, Note_on_c, 0, 54, 0
2, 68170, Control_c, 0, 64, 76
2, 68188, Control_c, 0, 64, 77
2, 68205, Control_c, 0, 64, 76
2, 68225, Control_c, 0, 64, 74
2, 68245, Control_c, 0, 64, 73
2, 68264, Control_c, 0, 64, 71
2, 68264, Note_on_c, 0, 73, 0
2, 68282, Control_c, 0, 64, 69
2, 68302, Control_c, 0, 64, 67
2, 68309, Note_on_c, 0, 76, 0
2, 68309, Note_on_c, 0, 79, 91
2, 68320, Control_c, 0, 64, 64
2, 68340, Control_c, 0, 64, 61
2, 68358, Control_c, 0, 64, 57
2, 68378, Control_c, 0, 64, 55
2, 68398, Control_c, 0, 64, 53
2, 68417, Control_c, 0, 64, 50
2, 68422, Note_on_c, 0, 78, 93
2, 68435, Control_c, 0, 64, 46
2, 68455, Control_c, 0, 64, 41
2, 68475, Control_c, 0, 64, 33
2, 68493, Control_c, 0, 64, 26
2, 68513, Control_c, 0, 64, 22
2, 68513, Note_on_c, 0, 79, 0
2, 68533, Control_c, 0, 64, 21
2, 68533, Note_on_c, 0, 59, 78
2, 68542, Note_on_c, 0, 76, 89
2, 68553, Control_c, 0, 64, 20
2, 68553, Note_on_c, 0, 77, 75
2, 68573, Control_c, 0, 64, 18
2, 68578, Note_on_c, 0, 78, 0
2, 68582, Note_on_c, 0, 77, 0
2, 68591, Control_c, 0, 64, 11
2, 68609, Control_c, 0, 64, 0
2, 68644, Note_on_c, 0, 75, 88
2, 68664, Note_on_c, 0, 76, 0
2, 68769, Note_on_c, 0, 58, 72
2, 68784, Note_on_c, 0, 76, 93
2, 68811, Note_on_c, 0, 59, 0
2, 68851, Note_on_c, 0, 75, 0
2, 68955, Note_on_c, 0, 76, 0
2, 68983, Note_on_c, 0, 58, 0
2, 69032, Note_on_c, 0, 78, 86
2, 69143, Note_on_c, 0, 76, 76
2, 69161, Note_on_c, 0, 78, 0
2, 69243, Note_on_c, 0, 76, 0
2, 69249, Note_on_c, 0, 75, 68
2, 69266, Note_on_c, 0, 59, 66
2, 69333, Note_on_c, 0, 75, 0
2, 69359, Note_on_c, 0, 73, 67
2, 69437, Note_on_c, 0, 59, 0
2, 69494, Note_on_c, 0, 47, 54
2, 69494, Note_on_c, 0, 75, 64
2, 69502, Note_on_c, 0, 73, 0
2, 69587, Control_c, 0, 64, 25
2, 69607, Control_c, 0, 64, 46
2, 69627, Control_c, 0, 64, 60
2, 69645, Control_c, 0, 64, 63
2, 69649, Note_on_c, 0, 75, 0
2, 69673, Note_on_c, 0, 47, 0
2, 69683, Control_c, 0, 64, 64
2, 69702, Control_c, 0, 64, 65
2, 69731, Note_on_c, 0, 72, 65
2, 69740, Control_c, 0, 64, 64
2, 69780, Control_c, 0, 64, 63
2, 69800, Control_c, 0, 64, 62
2, 69815, Note_on_c, 0, 72, 0
2, 69819, Control_c, 0, 64, 61
2, 69837, Control_c, 0, 64, 59
2, 69839, Note_on_c, 0, 71, 63
2, 69857, Control_c, 0, 64, 56
2, 69877, Control_c, 0, 64, 51
2, 69895, Control_c, 0, 64, 43
2, 69914, Control_c, 0, 64, 27
2, 69927, Note_on_c, 0, 71, 0
2, 69934, Control_c, 0, 64, 0
2, 69960, Note_on_c, 0, 64, 59
2, 69962, Note_on_c, 0, 69, 65
2, 70036, Note_on_c, 0, 69, 0
2, 70064, Note_on_c, 0, 68, 64
2, 70186, Note_on_c, 0, 64, 0
2, 70186, Note_on_c, 0, 68, 0
2, 70190, Note_on_c, 0, 69, 66
2, 70194, Note_on_c, 0, 63, 61
2, 70221, Note_on_c, 0, 69, 0
2, 70229, Note_on_c, 0, 63, 0
2, 70441, Note_on_c, 0, 64, 49
2, 70451, Note_on_c, 0, 72, 57
2, 70472, Note_on_c, 0, 64, 0
2, 70479, Note_on_c, 0, 72, 0
2, 70673, Note_on_c, 0, 66, 66
2, 70673, Note_on_c, 0, 68, 63
2, 70701, Note_on_c, 0, 66, 0
2, 70709, Note_on_c, 0, 68, 0
2, 70911, Control_c, 0, 64, 24
2, 70923, Note_on_c, 0, 59, 56
2, 70927, Note_on_c, 0, 78, 65
2, 70934, Control_c, 0, 64, 45
2, 70934, Note_on_c, 0, 69, 51
2, 70951, Control_c, 0, 64, 61
2, 70972, Control_c, 0, 64, 68
2, 70986, Note_on_c, 0, 59, 0
2, 70987, Control_c, 0, 64, 75
2, 71009, Control_c, 0, 64, 82
2, 71029, Control_c, 0, 64, 89
2, 71045, Control_c, 0, 64, 94
2, 71085, Control_c, 0, 64, 93
2, 71105, Control_c, 0, 64, 88
2, 71110, Note_on_c, 0, 78, 0
2, 71125, Control_c, 0, 64, 83
2, 71142, Control_c, 0, 64, 78
2, 71162, Control_c, 0, 64, 74
2, 71182, Note_on_c, 0, 72, 81
2, 71186, Control_c, 0, 64, 70
2, 71200, Control_c, 0, 64, 66
2, 71214, Note_on_c, 0, 69, 0
2, 71219, Control_c, 0, 64, 62
2, 71238, Control_c, 0, 64, 58
2, 71257, Control_c, 0, 64, 54
2, 71277, Control_c, 0, 64, 52
2, 71291, Note_on_c, 0, 71, 81
2, 71299, Control_c, 0, 64, 49
2, 71299, Note_on_c, 0, 72, 0
2, 71316, Control_c, 0, 64, 43
2, 71334, Control_c, 0, 64, 35
2, 71353, Control_c, 0, 64, 20
2, 71373, Control_c, 0, 64, 0
2, 71381, Note_on_c, 0, 71, 0
2, 71411, Note_on_c, 0, 69, 73
2, 71415, Note_on_c, 0, 64, 61
2, 71508, Note_on_c, 0, 69, 0
2, 71514, Note_on_c, 0, 68, 75
2, 71636, Note_on_c, 0, 68, 0
2, 71650, Note_on_c, 0, 64, 0
2, 71650, Note_on_c, 0, 69, 65
2, 71655, Note_on_c, 0, 63, 56
2, 71805, Note_on_c, 0, 69, 0
2, 71842, Note_on_c, 0, 63, 0
2, 71902, Note_on_c, 0, 71, 68
2, 71956, Note_on_c, 0, 71, 0
2, 72003, Note_on_c, 0, 69, 59
2, 72088, Note_on_c, 0, 64, 51
2, 72113, Note_on_c, 0, 69, 0
2, 72115, Note_on_c, 0, 67, 64
2, 72197, Note_on_c, 0, 67, 0
2, 72213, Note_on_c, 0, 66, 69
2, 72254, Note_on_c, 0, 64, 0
2, 72288, Note_on_c, 0, 66, 0
2, 72319, Note_on_c, 0, 52, 69
2, 72329, Note_on_c, 0, 67, 78
2, 72411, Note_on_c, 0, 52, 0
2, 72418, Note_on_c, 0, 67, 0
2, 72427, Note_on_c, 0, 71, 76
2, 72431, Note_on_c, 0, 55, 63
2, 72502, Note_on_c, 0, 55, 0
2, 72523, Note_on_c, 0, 71, 0
2, 72532, Note_on_c, 0, 73, 77
2, 72554, Note_on_c, 0, 57, 63
2, 72594, Note_on_c, 0, 57, 0
2, 72628, Note_on_c, 0, 73, 0
2, 72643, Note_on_c, 0, 75, 68
2, 72655, Note_on_c, 0, 59, 70
2, 72719, Note_on_c, 0, 75, 0
2, 72742, Note_on_c, 0, 59, 0
2, 72759, Note_on_c, 0, 61, 67
2, 72759, Note_on_c, 0, 76, 76
2, 72848, Note_on_c, 0, 76, 0
2, 72853, Note_on_c, 0, 61, 0
2, 72864, Note_on_c, 0, 78, 79
2, 72869, Note_on_c, 0, 63, 75
2, 72946, Note_on_c, 0, 63, 0
2, 72953, Note_on_c, 0, 78, 0
2, 72978, Note_on_c, 0, 79, 84
2, 72988, Note_on_c, 0, 64, 85
2, 73018, Note_on_c, 0, 64, 0
2, 73089, Note_on_c, 0, 79, 0
2, 73095, Note_on_c, 0, 78, 79
2, 73214, Note_on_c, 0, 67, 71
2, 73214, Note_on_c, 0, 78, 0
2, 73234, Note_on_c, 0, 76, 76
2, 73249, Note_on_c, 0, 67, 0
2, 73339, Note_on_c, 0, 74, 79
2, 73339, Note_on_c, 0, 76, 0
2, 73417, Note_on_c, 0, 74, 0
2, 73447, Note_on_c, 0, 73, 76
2, 73452, Note_on_c, 0, 64, 66
2, 73489, Note_on_c, 0, 64, 0
2, 73523, Note_on_c, 0, 73, 0
2, 73561, Note_on_c, 0, 71, 65
2, 73614, Note_on_c, 0, 71, 0
2, 73674, Note_on_c, 0, 76, 82
2, 73679, Note_on_c, 0, 61, 67
2, 73716, Note_on_c, 0, 61, 0
2, 73775, Note_on_c, 0, 76, 0
2, 73791, Note_on_c, 0, 74, 72
2, 73882, Note_on_c, 0, 74, 0
2, 73910, Note_on_c, 0, 73, 73
2, 73916, Note_on_c, 0, 64, 68
2, 73953, Note_on_c, 0, 64, 0
2, 73990, Note_on_c, 0, 73, 0
2, 74025, Note_on_c, 0, 71, 70
2, 74132, Note_on_c, 0, 71, 0
2, 74141, Note_on_c, 0, 69, 68
2, 74148, Note_on_c, 0, 61, 68
2, 74181, Note_on_c, 0, 61, 0
2, 74195, Note_on_c, 0, 69, 0
2, 74245, Note_on_c, 0, 68, 69
2, 74346, Note_on_c, 0, 68, 0
2, 74362, Note_on_c, 0, 57, 81
2, 74362, Note_on_c, 0, 73, 77
2, 74395, Note_on_c, 0, 57, 0
2, 74433, Note_on_c, 0, 73, 0
2, 74469, Note_on_c, 0, 71, 70
2, 74549, Note_on_c, 0, 71, 0
2, 74593, Note_on_c, 0, 61, 59
2, 74593, Note_on_c, 0, 69, 66
2, 74633, Note_on_c, 0, 61, 0
2, 74685, Note_on_c, 0, 69, 0
2, 74700, Note_on_c, 0, 67, 64
2, 74794, Note_on_c, 0, 67, 0
2, 74815, Note_on_c, 0, 66, 65
2, 74819, Note_on_c, 0, 57, 65
2, 74856, Note_on_c, 0, 57, 0
2, 74887, Note_on_c, 0, 66, 0
2, 74935, Note_on_c, 0, 64, 63
2, 75002, Note_on_c, 0, 64, 0
2, 75053, Note_on_c, 0, 66, 72
2, 75062, Note_on_c, 0, 50, 70
2, 75151, Note_on_c, 0, 66, 0
2, 75178, Note_on_c, 0, 54, 76
2, 75178, Note_on_c, 0, 69, 74
2, 75182, Note_on_c, 0, 50, 0
2, 75285, Note_on_c, 0, 71, 82
2, 75289, Note_on_c, 0, 69, 0
2, 75296, Note_on_c, 0, 55, 76
2, 75300, Note_on_c, 0, 54, 0
2, 75370, Note_on_c, 0, 55, 0
2, 75392, Note_on_c, 0, 57, 85
2, 75392, Note_on_c, 0, 73, 89
2, 75404, Note_on_c, 0, 71, 0
2, 75496, Note_on_c, 0, 59, 86
2, 75503, Note_on_c, 0, 73, 0
2, 75503, Note_on_c, 0, 74, 88
2, 75511, Note_on_c, 0, 57, 0
2, 75605, Note_on_c, 0, 76, 89
2, 75610, Note_on_c, 0, 61, 83
2, 75614, Note_on_c, 0, 59, 0
2, 75616, Note_on_c, 0, 74, 0
2, 75726, Note_on_c, 0, 78, 87
2, 75733, Note_on_c, 0, 62, 95
2, 75739, Note_on_c, 0, 76, 0
2, 75848, Note_on_c, 0, 61, 0
2, 75852, Note_on_c, 0, 76, 86
2, 75866, Note_on_c, 0, 78, 0
2, 75967, Note_on_c, 0, 76, 0
2, 75978, Note_on_c, 0, 74, 75
2, 76074, Note_on_c, 0, 73, 76
2, 76083, Note_on_c, 0, 74, 0
2, 76190, Note_on_c, 0, 71, 77
2, 76198, Note_on_c, 0, 73, 0
2, 76277, Note_on_c, 0, 71, 0
2, 76295, Note_on_c, 0, 69, 78
2, 76408, Note_on_c, 0, 68, 87
2, 76442, Note_on_c, 0, 69, 0
2, 76523, Note_on_c, 0, 71, 83
2, 76555, Note_on_c, 0, 68, 0
2, 76642, Note_on_c, 0, 71, 0
2, 76642, Note_on_c, 0, 76, 88
2, 76656, Note_on_c, 0, 61, 84
2, 76697, Note_on_c, 0, 62, 0
2, 76749, Note_on_c, 0, 74, 83
2, 76783, Note_on_c, 0, 76, 0
2, 76869, Note_on_c, 0, 59, 91
2, 76883, Note_on_c, 0, 76, 90
2, 76903, Note_on_c, 0, 74, 0
2, 76943, Note_on_c, 0, 61, 0
2, 77003, Note_on_c, 0, 67, 76
2, 77032, Note_on_c, 0, 67, 0
2, 77118, Note_on_c, 0, 58, 80
2, 77126, Note_on_c, 0, 59, 0
2, 77131, Note_on_c, 0, 66, 88
2, 77222, Note_on_c, 0, 58, 0
2, 77225, Note_on_c, 0, 76, 0
2, 77235, Note_on_c, 0, 70, 83
2, 77244, Note_on_c, 0, 61, 75
2, 77330, Note_on_c, 0, 61, 0
2, 77343, Note_on_c, 0, 73, 81
2, 77358, Note_on_c, 0, 59, 78
2, 77381, Note_on_c, 0, 70, 0
2, 77462, Note_on_c, 0, 74, 77
2, 77466, Note_on_c, 0, 59, 0
2, 77470, Note_on_c, 0, 58, 78
2, 77470, Note_on_c, 0, 73, 0
2, 77549, Note_on_c, 0, 58, 0
2, 77577, Note_on_c, 0, 56, 69
2, 77595, Note_on_c, 0, 76, 82
2, 77622, Note_on_c, 0, 74, 0
2, 77651, Note_on_c, 0, 56, 0
2, 77692, Note_on_c, 0, 54, 71
2, 77712, Note_on_c, 0, 66, 0
2, 77797, Note_on_c, 0, 54, 0
2, 77821, Note_on_c, 0, 59, 86
2, 77912, Note_on_c, 0, 76, 0
2, 77944, Note_on_c, 0, 66, 77
2, 77974, Note_on_c, 0, 59, 0
2, 78049, Note_on_c, 0, 66, 0
2, 78053, Note_on_c, 0, 68, 82
2, 78057, Note_on_c, 0, 54, 81
2, 78084, Note_on_c, 0, 54, 0
2, 78165, Note_on_c, 0, 70, 83
2, 78185, Note_on_c, 0, 68, 0
2, 78279, Note_on_c, 0, 70, 0
2, 78286, Note_on_c, 0, 71, 90
2, 78290, Note_on_c, 0, 50, 82
2, 78316, Note_on_c, 0, 50, 0
2, 78399, Note_on_c, 0, 73, 91
2, 78432, Note_on_c, 0, 71, 0
2, 78519, Note_on_c, 0, 74, 88
2, 78528, Note_on_c, 0, 47, 86
2, 78535, Note_on_c, 0, 73, 0
2, 78648, Note_on_c, 0, 73, 86
2, 78652, Note_on_c, 0, 74, 0
2, 78762, Note_on_c, 0, 73, 0
2, 78771, Note_on_c, 0, 71, 73
2, 78786, Note_on_c, 0, 47, 0
2, 78786, Note_on_c, 0, 49, 70
2, 78842, Note_on_c, 0, 71, 0
2, 78861, Note_on_c, 0, 49, 0
2, 78889, Note_on_c, 0, 50, 74
2, 78889, Note_on_c, 0, 69, 66
2, 78959, Note_on_c, 0, 69, 0
2, 78966, Note_on_c, 0, 50, 0
2, 78980, Note_on_c, 0, 67, 78
2, 79005, Note_on_c, 0, 52, 77
2, 79091, Note_on_c, 0, 66, 82
2, 79106, Note_on_c, 0, 67, 0
2, 79113, Note_on_c, 0, 52, 0
2, 79113, Note_on_c, 0, 54, 76
2, 79214, Note_on_c, 0, 54, 0
2, 79220, Note_on_c, 0, 71, 89
2, 79227, Note_on_c, 0, 55, 79
2, 79229, Note_on_c, 0, 66, 0
2, 79288, Note_on_c, 0, 55, 0
2, 79332, Note_on_c, 0, 69, 82
2, 79336, Note_on_c, 0, 57, 80
2, 79369, Note_on_c, 0, 71, 0
2, 79449, Note_on_c, 0, 57, 0
2, 79449, Note_on_c, 0, 59, 83
2, 79456, Note_on_c, 0, 67, 81
2, 79473, Note_on_c, 0, 69, 0
2, 79531, Note_on_c, 0, 59, 0
2, 79560, Note_on_c, 0, 66, 86
2, 79564, Note_on_c, 0, 67, 0
2, 79567, Note_on_c, 0, 57, 88
2, 79654, Note_on_c, 0, 66, 0
2, 79675, Note_on_c, 0, 55, 83
2, 79680, Note_on_c, 0, 57, 0
2, 79680, Note_on_c, 0, 64, 91
2, 79749, Note_on_c, 0, 64, 0
2, 79775, Note_on_c, 0, 55, 0
2, 79788, Note_on_c, 0, 54, 86
2, 79796, Note_on_c, 0, 62, 92
2, 79908, Note_on_c, 0, 54, 0
2, 79910, Note_on_c, 0, 52, 88
2, 79915, Note_on_c, 0, 67, 93
2, 79931, Note_on_c, 0, 62, 0
2, 80019, Note_on_c, 0, 66, 89
2, 80024, Note_on_c, 0, 54, 88
2, 80037, Note_on_c, 0, 52, 0
2, 80042, Note_on_c, 0, 67, 0
2, 80144, Note_on_c, 0, 55, 88
2, 80146, Note_on_c, 0, 64, 73
2, 80150, Note_on_c, 0, 54, 0
2, 80150, Note_on_c, 0, 65, 71
2, 80154, Note_on_c, 0, 66, 0
2, 80218, Note_on_c, 0, 65, 0
2, 80251, Note_on_c, 0, 62, 84
2, 80253, Note_on_c, 0, 64, 0
2, 80262, Note_on_c, 0, 54, 86
2, 80266, Note_on_c, 0, 55, 0
2, 80360, Note_on_c, 0, 61, 87
2, 80374, Note_on_c, 0, 55, 88
2, 80387, Note_on_c, 0, 54, 0
2, 80394, Note_on_c, 0, 62, 0
2, 80467, Note_on_c, 0, 55, 0
2, 80480, Note_on_c, 0, 52, 84
2, 80480, Note_on_c, 0, 64, 94
2, 80504, Note_on_c, 0, 61, 0
2, 80624, Note_on_c, 0, 64, 0
2, 80628, Control_c, 0, 64, 13
2, 80639, Note_on_c, 0, 58, 95
2, 80646, Control_c, 0, 64, 38
2, 80652, Note_on_c, 0, 54, 83
2, 80666, Control_c, 0, 64, 57
2, 80666, Note_on_c, 0, 52, 0
2, 80683, Control_c, 0, 64, 71
2, 80706, Control_c, 0, 64, 81
2, 80724, Control_c, 0, 64, 97
2, 80742, Control_c, 0, 64, 109
2, 80762, Control_c, 0, 64, 127
2, 80870, Note_on_c, 0, 58, 0
2, 80878, Control_c, 0, 64, 120
2, 80899, Control_c, 0, 64, 112
2, 80918, Control_c, 0, 64, 105
2, 80936, Control_c, 0, 64, 99
2, 80954, Control_c, 0, 64, 92
2, 80960, Note_on_c, 0, 79, 97
2, 80975, Control_c, 0, 64, 89
2, 80978, Note_on_c, 0, 54, 0
2, 80993, Control_c, 0, 64, 88
2, 81011, Control_c, 0, 64, 87
2, 81031, Control_c, 0, 64, 85
2, 81049, Control_c, 0, 64, 80
2, 81065, Note_on_c, 0, 78, 89
2, 81070, Control_c, 0, 64, 75
2, 81086, Control_c, 0, 64, 67
2, 81106, Control_c, 0, 64, 60
2, 81110, Note_on_c, 0, 80, 53
2, 81115, Note_on_c, 0, 79, 0
2, 81126, Control_c, 0, 64, 49
2, 81141, Note_on_c, 0, 80, 0
2, 81145, Note_on_c, 0, 42, 85
2, 81149, Control_c, 0, 64, 30
2, 81164, Control_c, 0, 64, 0
2, 81173, Note_on_c, 0, 76, 90
2, 81184, Note_on_c, 0, 42, 0
2, 81207, Note_on_c, 0, 78, 0
2, 81263, Note_on_c, 0, 76, 0
2, 81268, Note_on_c, 0, 74, 87
2, 81395, Note_on_c, 0, 70, 89
2, 81395, Note_on_c, 0, 73, 92
2, 81399, Note_on_c, 0, 42, 86
2, 81421, Note_on_c, 0, 74, 0
2, 81568, Control_c, 0, 64, 16
2, 81590, Control_c, 0, 64, 26
2, 81604, Control_c, 0, 64, 32
2, 81626, Control_c, 0, 64, 36
2, 81626, Note_on_c, 0, 73, 0
2, 81646, Control_c, 0, 64, 39
2, 81652, Note_on_c, 0, 76, 89
2, 81684, Control_c, 0, 64, 40
2, 81760, Note_on_c, 0, 42, 0
2, 81772, Note_on_c, 0, 76, 0
2, 81779, Control_c, 0, 64, 39
2, 81802, Control_c, 0, 64, 38
2, 81837, Control_c, 0, 64, 37
2, 81875, Control_c, 0, 64, 38
2, 81896, Control_c, 0, 64, 39
2, 81896, Note_on_c, 0, 42, 84
2, 81896, Note_on_c, 0, 73, 100
2, 81912, Control_c, 0, 64, 41
2, 81932, Control_c, 0, 64, 43
2, 81949, Note_on_c, 0, 42, 0
2, 81954, Control_c, 0, 64, 49
2, 81954, Note_on_c, 0, 70, 0
2, 81970, Control_c, 0, 64, 57
2, 81990, Control_c, 0, 64, 60
2, 82105, Control_c, 0, 64, 59
2, 82143, Control_c, 0, 64, 58
2, 82152, Note_on_c, 0, 64, 93
2, 82154, Note_on_c, 0, 70, 90
2, 82156, Note_on_c, 0, 42, 85
2, 82163, Control_c, 0, 64, 57
2, 82183, Control_c, 0, 64, 56
2, 82196, Note_on_c, 0, 73, 0
2, 82201, Control_c, 0, 64, 55
2, 82241, Control_c, 0, 64, 54
2, 82259, Control_c, 0, 64, 51
2, 82278, Control_c, 0, 64, 42
2, 82298, Control_c, 0, 64, 18
2, 82317, Control_c, 0, 64, 0
2, 82402, Note_on_c, 0, 73, 94
2, 82432, Control_c, 0, 64, 20
2, 82437, Note_on_c, 0, 70, 0
2, 82453, Control_c, 0, 64, 33
2, 82471, Control_c, 0, 64, 50
2, 82490, Control_c, 0, 64, 60
2, 82509, Control_c, 0, 64, 62
2, 82546, Control_c, 0, 64, 64
2, 82565, Control_c, 0, 64, 67
2, 82585, Control_c, 0, 64, 73
2, 82606, Control_c, 0, 64, 85
2, 82624, Control_c, 0, 64, 97
2, 82644, Note_on_c, 0, 42, 0
2, 82646, Control_c, 0, 64, 109
2, 82651, Note_on_c, 0, 70, 87
2, 82664, Control_c, 0, 64, 127
2, 82694, Note_on_c, 0, 64, 0
2, 82779, Note_on_c, 0, 73, 0
2, 82865, Note_on_c, 0, 70, 0
2, 82899, Note_on_c, 0, 64, 81
2, 82903, Note_on_c, 0, 61, 90
2, 82912, Control_c, 0, 64, 122
2, 82933, Control_c, 0, 64, 113
2, 82951, Control_c, 0, 64, 107
2, 82969, Control_c, 0, 64, 103
2, 82988, Control_c, 0, 64, 99
2, 83008, Control_c, 0, 64, 96
2, 83028, Control_c, 0, 64, 92
2, 83045, Control_c, 0, 64, 87
2, 83065, Control_c, 0, 64, 83
2, 83086, Control_c, 0, 64, 78
2, 83104, Control_c, 0, 64, 74
2, 83122, Control_c, 0, 64, 70
2, 83142, Control_c, 0, 64, 66
2, 83160, Note_on_c, 0, 70, 88
2, 83164, Control_c, 0, 64, 62
2, 83181, Control_c, 0, 64, 58
2, 83194, Note_on_c, 0, 64, 0
2, 83198, Control_c, 0, 64, 53
2, 83218, Control_c, 0, 64, 49
2, 83240, Control_c, 0, 64, 46
2, 83245, Note_on_c, 0, 70, 0
2, 83260, Control_c, 0, 64, 45
2, 83284, Note_on_c, 0, 49, 78
2, 83296, Control_c, 0, 64, 44
2, 83354, Control_c, 0, 64, 43
2, 83368, Note_on_c, 0, 64, 75
2, 83392, Control_c, 0, 64, 42
2, 83392, Note_on_c, 0, 50, 78
2, 83410, Control_c, 0, 64, 41
2, 83424, Note_on_c, 0, 49, 0
2, 83430, Control_c, 0, 64, 39
2, 83450, Control_c, 0, 64, 38
2, 83459, Note_on_c, 0, 64, 0
2, 83473, Control_c, 0, 64, 37
2, 83494, Note_on_c, 0, 52, 85
2, 83506, Note_on_c, 0, 50, 0
2, 83608, Note_on_c, 0, 62, 88
2, 83624, Note_on_c, 0, 54, 88
2, 83639, Note_on_c, 0, 52, 0
2, 83639, Note_on_c, 0, 61, 0
2, 83679, Control_c, 0, 64, 36
2, 83700, Control_c, 0, 64, 35
2, 83717, Control_c, 0, 64, 29
2, 83737, Control_c, 0, 64, 0
2, 83877, Note_on_c, 0, 59, 77
2, 83884, Note_on_c, 0, 62, 0
2, 83971, Note_on_c, 0, 59, 0
2, 83983, Note_on_c, 0, 61, 77
2, 84042, Note_on_c, 0, 54, 0
2, 84069, Note_on_c, 0, 42, 71
2, 84091, Note_on_c, 0, 62, 86
2, 84095, Note_on_c, 0, 61, 0
2, 84108, Note_on_c, 0, 42, 0
2, 84186, Note_on_c, 0, 62, 0
2, 84197, Note_on_c, 0, 64, 81
2, 84265, Note_on_c, 0, 64, 0
2, 84323, Note_on_c, 0, 71, 93
2, 84332, Note_on_c, 0, 42, 59
2, 84341, Note_on_c, 0, 66, 75
2, 84584, Note_on_c, 0, 62, 69
2, 84624, Note_on_c, 0, 62, 0
2, 84624, Note_on_c, 0, 66, 0
2, 84650, Note_on_c, 0, 42, 0
2, 84697, Control_c, 0, 64, 8
2, 84715, Control_c, 0, 64, 15
2, 84736, Control_c, 0, 64, 25
2, 84756, Control_c, 0, 64, 41
2, 84776, Control_c, 0, 64, 53
2, 84791, Control_c, 0, 64, 56
2, 84814, Note_on_c, 0, 66, 79
2, 84823, Note_on_c, 0, 42, 75
2, 84858, Note_on_c, 0, 42, 0
2, 84858, Note_on_c, 0, 71, 0
2, 84876, Note_on_c, 0, 66, 0
2, 84908, Control_c, 0, 64, 55
2, 84965, Control_c, 0, 64, 54
2, 85021, Control_c, 0, 64, 53
2, 85044, Control_c, 0, 64, 52
2, 85059, Note_on_c, 0, 74, 95
2, 85068, Note_on_c, 0, 71, 87
2, 85073, Note_on_c, 0, 42, 79
2, 85082, Control_c, 0, 64, 51
2, 85100, Control_c, 0, 64, 49
2, 85120, Control_c, 0, 64, 44
2, 85139, Control_c, 0, 64, 29
2, 85160, Control_c, 0, 64, 0
2, 85315, Note_on_c, 0, 66, 94
2, 85381, Note_on_c, 0, 66, 0
2, 85392, Note_on_c, 0, 71, 0
2, 85559, Note_on_c, 0, 71, 91
2, 85601, Note_on_c, 0, 74, 0
2, 85804, Note_on_c, 0, 77, 101
2, 85824, Note_on_c, 0, 74, 80
2, 85862, Note_on_c, 0, 71, 0
2, 85945, Control_c, 0, 64, 16
2, 85965, Control_c, 0, 64, 32
2, 85987, Control_c, 0, 64, 40
2, 85989, Note_on_c, 0, 74, 0
2, 86004, Control_c, 0, 64, 43
2, 86021, Control_c, 0, 64, 46
2, 86041, Control_c, 0, 64, 50
2, 86045, Note_on_c, 0, 71, 89
2, 86061, Control_c, 0, 64, 53
2, 86079, Control_c, 0, 64, 55
2, 86099, Control_c, 0, 64, 57
2, 86120, Control_c, 0, 64, 58
2, 86132, Note_on_c, 0, 71, 0
2, 86138, Control_c, 0, 64, 60
2, 86145, Note_on_c, 0, 42, 0
2, 86156, Control_c, 0, 64, 61
2, 86174, Control_c, 0, 64, 62
2, 86194, Control_c, 0, 64, 64
2, 86217, Control_c, 0, 64, 65
2, 86236, Control_c, 0, 64, 67
2, 86254, Control_c, 0, 64, 70
2, 86270, Control_c, 0, 64, 74
2, 86277, Note_on_c, 0, 74, 94
2, 86292, Control_c, 0, 64, 77
2, 86323, Note_on_c, 0, 77, 0
2, 86327, Control_c, 0, 64, 76
2, 86366, Control_c, 0, 64, 75
2, 86426, Control_c, 0, 64, 74
2, 86464, Control_c, 0, 64, 73
2, 86522, Control_c, 0, 64, 72
2, 86537, Note_on_c, 0, 78, 101
2, 86540, Control_c, 0, 64, 70
2, 86558, Control_c, 0, 64, 67
2, 86565, Note_on_c, 0, 73, 75
2, 86573, Note_on_c, 0, 74, 0
2, 86578, Control_c, 0, 64, 64
2, 86598, Control_c, 0, 64, 61
2, 86639, Control_c, 0, 64, 60
2, 86674, Control_c, 0, 64, 58
2, 86694, Control_c, 0, 64, 55
2, 86711, Control_c, 0, 64, 52
2, 86731, Control_c, 0, 64, 48
2, 86750, Control_c, 0, 64, 44
2, 86771, Control_c, 0, 64, 40
2, 86789, Control_c, 0, 64, 35
2, 86808, Control_c, 0, 64, 29
2, 86814, Note_on_c, 0, 70, 81
2, 86830, Control_c, 0, 64, 24
2, 86834, Note_on_c, 0, 78, 0
2, 86847, Control_c, 0, 64, 21
2, 86867, Control_c, 0, 64, 18
2, 86884, Note_on_c, 0, 73, 0
2, 86888, Control_c, 0, 64, 15
2, 86907, Control_c, 0, 64, 0
2, 86914, Note_on_c, 0, 50, 86
2, 87027, Note_on_c, 0, 52, 88
2, 87029, Note_on_c, 0, 76, 92
2, 87036, Note_on_c, 0, 73, 86
2, 87059, Note_on_c, 0, 50, 0
2, 87077, Note_on_c, 0, 70, 0
2, 87144, Note_on_c, 0, 54, 92
2, 87155, Note_on_c, 0, 52, 0
2, 87263, Note_on_c, 0, 55, 92
2, 87265, Note_on_c, 0, 71, 91
2, 87274, Note_on_c, 0, 74, 90
2, 87282, Note_on_c, 0, 76, 0
2, 87289, Note_on_c, 0, 54, 0
2, 87306, Note_on_c, 0, 73, 0
2, 87344, Note_on_c, 0, 55, 0
2, 87540, Note_on_c, 0, 54, 91
2, 87585, Note_on_c, 0, 54, 0
2, 87787, Note_on_c, 0, 79, 94
2, 87792, Note_on_c, 0, 52, 84
2, 87822, Note_on_c, 0, 52, 0
2, 87822, Note_on_c, 0, 74, 0
2, 87840, Note_on_c, 0, 71, 0
2, 88111, Note_on_c, 0, 71, 85
2, 88111, Note_on_c, 0, 74, 91
2, 88116, Note_on_c, 0, 54, 90
2, 88151, Note_on_c, 0, 79, 0
2, 88249, Control_c, 0, 64, 25
2, 88270, Control_c, 0, 64, 37
2, 88287, Control_c, 0, 64, 49
2, 88305, Control_c, 0, 64, 57
2, 88325, Control_c, 0, 64, 60
2, 88345, Control_c, 0, 64, 61
2, 88365, Control_c, 0, 64, 63
2, 88385, Control_c, 0, 64, 66
2, 88403, Control_c, 0, 64, 72
2, 88422, Control_c, 0, 64, 82
2, 88440, Control_c, 0, 64, 99
2, 88461, Control_c, 0, 64, 127
2, 88508, Note_on_c, 0, 71, 0
2, 88558, Note_on_c, 0, 74, 0
2, 88944, Note_on_c, 0, 70, 85
2, 88944, Note_on_c, 0, 74, 86
2, 88949, Note_on_c, 0, 42, 78
2, 88971, Note_on_c, 0, 73, 87
2, 88978, Control_c, 0, 64, 86
2, 89001, Control_c, 0, 64, 62
2, 89019, Note_on_c, 0, 54, 0
2, 89019, Note_on_c, 0, 74, 0
2, 89021, Control_c, 0, 64, 24
2, 89037, Control_c, 0, 64, 0
2, 89221, Note_on_c, 0, 73, 0
2, 89226, Note_on_c, 0, 71, 79
2, 89267, Note_on_c, 0, 71, 0
2, 89455, Note_on_c, 0, 73, 76
2, 89495, Note_on_c, 0, 73, 0
2, 89733, Note_on_c, 0, 71, 67
2, 89735, Note_on_c, 0, 47, 67
2, 89748, Note_on_c, 0, 70, 0
2, 89761, Note_on_c, 0, 42, 0
2, 90024, Note_on_c, 0, 71, 0
2, 90028, Note_on_c, 0, 74, 72
2, 90129, Note_on_c, 0, 73, 71
2, 90155, Note_on_c, 0, 74, 0
2, 90199, Note_on_c, 0, 73, 0
2, 90224, Note_on_c, 0, 47, 0
2, 90238, Note_on_c, 0, 71, 66
2, 90242, Note_on_c, 0, 54, 55
2, 90277, Note_on_c, 0, 54, 0
2, 90328, Note_on_c, 0, 71, 0
2, 90340, Note_on_c, 0, 69, 63
2, 90446, Note_on_c, 0, 59, 60
2, 90464, Note_on_c, 0, 69, 0
2, 90477, Note_on_c, 0, 67, 63
2, 90480, Note_on_c, 0, 59, 0
2, 90493, Note_on_c, 0, 57, 67
2, 90568, Note_on_c, 0, 59, 78
2, 90572, Note_on_c, 0, 57, 0
2, 90748, Note_on_c, 0, 67, 0
2, 90748, Note_on_c, 0, 71, 71
2, 90849, Note_on_c, 0, 69, 68
2, 90859, Note_on_c, 0, 71, 0
2, 90969, Note_on_c, 0, 67, 77
2, 90982, Note_on_c, 0, 69, 0
2, 91069, Note_on_c, 0, 66, 79
2, 91075, Note_on_c, 0, 67, 0
2, 91180, Note_on_c, 0, 64, 82
2, 91218, Note_on_c, 0, 66, 0
2, 91396, Note_on_c, 0, 59, 0
2, 91410, Note_on_c, 0, 64, 0
2, 91416, Note_on_c, 0, 67, 70
2, 91440, Note_on_c, 0, 60, 61
2, 91450, Note_on_c, 0, 67, 0
2, 91493, Note_on_c, 0, 60, 0
2, 91540, Note_on_c, 0, 59, 57
2, 91603, Note_on_c, 0, 59, 0
2, 91642, Note_on_c, 0, 57, 60
2, 91660, Note_on_c, 0, 72, 79
2, 91693, Note_on_c, 0, 72, 0
2, 91700, Note_on_c, 0, 57, 0
2, 91750, Note_on_c, 0, 55, 54
2, 91892, Note_on_c, 0, 55, 0
2, 91912, Note_on_c, 0, 72, 72
2, 91925, Note_on_c, 0, 54, 51
2, 92112, Note_on_c, 0, 54, 0
2, 92150, Note_on_c, 0, 69, 66
2, 92161, Note_on_c, 0, 55, 59
2, 92191, Note_on_c, 0, 69, 0
2, 92234, Note_on_c, 0, 55, 0
2, 92266, Note_on_c, 0, 54, 63
2, 92334, Note_on_c, 0, 54, 0
2, 92377, Note_on_c, 0, 52, 51
2, 92397, Note_on_c, 0, 66, 60
2, 92424, Note_on_c, 0, 52, 0
2, 92432, Note_on_c, 0, 66, 0
2, 92469, Note_on_c, 0, 50, 52
2, 92621, Note_on_c, 0, 62, 74
2, 92625, Note_on_c, 0, 50, 0
2, 92653, Note_on_c, 0, 55, 47
2, 92716, Note_on_c, 0, 55, 0
2, 92743, Note_on_c, 0, 57, 55
2, 92848, Note_on_c, 0, 57, 0
2, 92862, Note_on_c, 0, 67, 80
2, 92878, Note_on_c, 0, 59, 70
2, 92887, Note_on_c, 0, 72, 0
2, 92904, Note_on_c, 0, 62, 0
2, 92973, Note_on_c, 0, 59, 0
2, 92986, Note_on_c, 0, 55, 72
2, 93095, Note_on_c, 0, 55, 0
2, 93101, Note_on_c, 0, 71, 78
2, 93106, Note_on_c, 0, 54, 75
2, 93191, Note_on_c, 0, 71, 0
2, 93196, Note_on_c, 0, 54, 0
2, 93233, Note_on_c, 0, 55, 70
2, 93349, Note_on_c, 0, 49, 79
2, 93349, Note_on_c, 0, 55, 0
2, 93356, Note_on_c, 0, 71, 83
2, 93371, Note_on_c, 0, 67, 0
2, 93382, Note_on_c, 0, 49, 0
2, 93480, Note_on_c, 0, 69, 76
2, 93605, Note_on_c, 0, 67, 76
2, 93616, Note_on_c, 0, 52, 55
2, 93652, Note_on_c, 0, 52, 0
2, 93680, Note_on_c, 0, 69, 0
2, 93697, Note_on_c, 0, 67, 0
2, 93710, Note_on_c, 0, 66, 73
2, 93802, Note_on_c, 0, 66, 0
2, 93828, Note_on_c, 0, 49, 58
2, 93835, Note_on_c, 0, 64, 74
2, 93868, Note_on_c, 0, 49, 0
2, 93918, Note_on_c, 0, 64, 0
2, 93943, Note_on_c, 0, 62, 71
2, 93978, Note_on_c, 0, 71, 0
2, 94064, Note_on_c, 0, 54, 60
2, 94069, Note_on_c, 0, 62, 0
2, 94071, Note_on_c, 0, 61, 75
2, 94201, Note_on_c, 0, 54, 0
2, 94205, Note_on_c, 0, 55, 71
2, 94296, Note_on_c, 0, 55, 0
2, 94305, Note_on_c, 0, 66, 90
2, 94310, Note_on_c, 0, 57, 81
2, 94394, Note_on_c, 0, 61, 0
2, 94417, Note_on_c, 0, 54, 79
2, 94417, Note_on_c, 0, 57, 0
2, 94526, Note_on_c, 0, 54, 0
2, 94538, Note_on_c, 0, 52, 78
2, 94550, Note_on_c, 0, 69, 82
2, 94635, Note_on_c, 0, 52, 0
2, 94651, Note_on_c, 0, 69, 0
2, 94658, Note_on_c, 0, 54, 80
2, 94749, Note_on_c, 0, 54, 0
2, 94787, Note_on_c, 0, 47, 89
2, 94792, Note_on_c, 0, 66, 0
2, 94796, Note_on_c, 0, 69, 77
2, 94829, Note_on_c, 0, 47, 0
2, 94920, Note_on_c, 0, 67, 69
2, 95041, Note_on_c, 0, 50, 71
2, 95041, Note_on_c, 0, 66, 73
2, 95044, Note_on_c, 0, 69, 0
2, 95053, Note_on_c, 0, 67, 0
2, 95078, Note_on_c, 0, 50, 0
2, 95148, Note_on_c, 0, 66, 0
2, 95148, Note_on_c, 0, 69, 27
2, 95178, Note_on_c, 0, 64, 64
2, 95262, Note_on_c, 0, 64, 0
2, 95284, Note_on_c, 0, 47, 67
2, 95284, Note_on_c, 0, 62, 65
2, 95316, Note_on_c, 0, 47, 0
2, 95342, Note_on_c, 0, 62, 0
2, 95410, Note_on_c, 0, 61, 58
2, 95514, Note_on_c, 0, 61, 0
2, 95523, Note_on_c, 0, 52, 58
2, 95536, Note_on_c, 0, 59, 65
2, 95617, Note_on_c, 0, 52, 0
2, 95637, Note_on_c, 0, 54, 67
2, 95747, Note_on_c, 0, 54, 0
2, 95765, Note_on_c, 0, 59, 0
2, 95769, Note_on_c, 0, 69, 0
2, 95773, Note_on_c, 0, 64, 69
2, 95782, Note_on_c, 0, 55, 54
2, 95850, Note_on_c, 0, 55, 0
2, 95885, Note_on_c, 0, 52, 66
2, 95976, Note_on_c, 0, 52, 0
2, 96007, Note_on_c, 0, 50, 59
2, 96016, Note_on_c, 0, 67, 65
2, 96069, Note_on_c, 0, 50, 0
2, 96075, Note_on_c, 0, 67, 0
2, 96131, Note_on_c, 0, 52, 63
2, 96220, Note_on_c, 0, 52, 0
2, 96251, Note_on_c, 0, 45, 68
2, 96269, Note_on_c, 0, 67, 69
2, 96276, Note_on_c, 0, 64, 0
2, 96282, Note_on_c, 0, 45, 0
2, 96389, Note_on_c, 0, 66, 61
2, 96499, Note_on_c, 0, 49, 63
2, 96517, Note_on_c, 0, 64, 71
2, 96535, Note_on_c, 0, 49, 0
2, 96573, Note_on_c, 0, 64, 0
2, 96602, Note_on_c, 0, 66, 0
2, 96631, Note_on_c, 0, 62, 62
2, 96709, Note_on_c, 0, 62, 0
2, 96748, Note_on_c, 0, 45, 60
2, 96752, Note_on_c, 0, 61, 57
2, 96787, Note_on_c, 0, 45, 0
2, 96861, Note_on_c, 0, 61, 0
2, 96870, Note_on_c, 0, 59, 52
2, 96969, Note_on_c, 0, 59, 0
2, 96993, Note_on_c, 0, 50, 60
2, 96997, Note_on_c, 0, 57, 65
2, 97090, Note_on_c, 0, 50, 0
2, 97118, Note_on_c, 0, 52, 65
2, 97213, Note_on_c, 0, 52, 0
2, 97236, Note_on_c, 0, 62, 67
2, 97248, Note_on_c, 0, 54, 66
2, 97248, Note_on_c, 0, 57, 0
2, 97322, Note_on_c, 0, 54, 0
2, 97357, Note_on_c, 0, 50, 63
2, 97448, Note_on_c, 0, 50, 0
2, 97470, Note_on_c, 0, 49, 63
2, 97475, Note_on_c, 0, 66, 68
2, 97479, Note_on_c, 0, 67, 0
2, 97589, Note_on_c, 0, 49, 0
2, 97609, Note_on_c, 0, 50, 68
2, 97713, Note_on_c, 0, 66, 0
2, 97727, Note_on_c, 0, 47, 80
2, 97733, Note_on_c, 0, 50, 0
2, 97839, Note_on_c, 0, 47, 0
2, 97843, Note_on_c, 0, 48, 78
2, 97949, Note_on_c, 0, 48, 0
2, 97956, Note_on_c, 0, 66, 84
2, 97967, Note_on_c, 0, 50, 76
2, 98067, Note_on_c, 0, 50, 0
2, 98072, Note_on_c, 0, 48, 82
2, 98178, Note_on_c, 0, 47, 84
2, 98182, Note_on_c, 0, 48, 0
2, 98204, Note_on_c, 0, 72, 92
2, 98255, Note_on_c, 0, 62, 0
2, 98266, Note_on_c, 0, 66, 0
2, 98297, Note_on_c, 0, 47, 0
2, 98301, Note_on_c, 0, 45, 77
2, 98440, Note_on_c, 0, 71, 97
2, 98445, Note_on_c, 0, 43, 82
2, 98445, Note_on_c, 0, 45, 0
2, 98493, Note_on_c, 0, 72, 0
2, 98578, Note_on_c, 0, 45, 78
2, 98667, Note_on_c, 0, 43, 0
2, 98667, Note_on_c, 0, 45, 0
2, 98698, Note_on_c, 0, 67, 76
2, 98702, Note_on_c, 0, 47, 82
2, 98804, Note_on_c, 0, 47, 0
2, 98813, Note_on_c, 0, 45, 81
2, 98817, Note_on_c, 0, 66, 86
2, 98817, Note_on_c, 0, 67, 0
2, 98917, Note_on_c, 0, 43, 85
2, 98921, Note_on_c, 0, 45, 0
2, 98927, Note_on_c, 0, 64, 85
2, 98945, Note_on_c, 0, 66, 0
2, 99021, Note_on_c, 0, 64, 0
2, 99026, Note_on_c, 0, 62, 85
2, 99046, Note_on_c, 0, 42, 79
2, 99061, Note_on_c, 0, 43, 0
2, 99148, Note_on_c, 0, 67, 89
2, 99171, Note_on_c, 0, 71, 0
2, 99184, Note_on_c, 0, 62, 0
2, 99191, Note_on_c, 0, 40, 75
2, 99191, Note_on_c, 0, 42, 0
2, 99298, Note_on_c, 0, 42, 86
2, 99313, Note_on_c, 0, 40, 0
2, 99396, Note_on_c, 0, 73, 98
2, 99401, Note_on_c, 0, 64, 82
2, 99412, Note_on_c, 0, 43, 89
2, 99416, Note_on_c, 0, 42, 0
2, 99454, Note_on_c, 0, 67, 0
2, 99519, Note_on_c, 0, 42, 90
2, 99541, Note_on_c, 0, 43, 0
2, 99585, Note_on_c, 0, 73, 0
2, 99634, Note_on_c, 0, 40, 81
2, 99645, Note_on_c, 0, 66, 86
2, 99650, Note_on_c, 0, 74, 91
2, 99656, Note_on_c, 0, 42, 0
2, 99686, Note_on_c, 0, 64, 0
2, 99744, Note_on_c, 0, 38, 84
2, 99748, Note_on_c, 0, 40, 0
2, 99887, Note_on_c, 0, 45, 91
2, 99962, Note_on_c, 0, 38, 0
2, 99975, Note_on_c, 0, 66, 0
2, 100162, Note_on_c, 0, 71, 85
2, 100166, Note_on_c, 0, 62, 84
2, 100209, Note_on_c, 0, 74, 0
2, 100293, Note_on_c, 0, 62, 0
2, 100420, Note_on_c, 0, 73, 97
2, 100425, Control_c, 0, 64, 13
2, 100429, Note_on_c, 0, 64, 77
2, 100443, Control_c, 0, 64, 36
2, 100454, Note_on_c, 0, 71, 0
2, 100464, Control_c, 0, 64, 53
2, 100481, Control_c, 0, 64, 64
2, 100501, Control_c, 0, 64, 68
2, 100508, Note_on_c, 0, 64, 0
2, 100521, Control_c, 0, 64, 73
2, 100541, Control_c, 0, 64, 77
2, 100558, Control_c, 0, 64, 81
2, 100578, Control_c, 0, 64, 83
2, 100597, Control_c, 0, 64, 82
2, 100602, Note_on_c, 0, 73, 0
2, 100617, Control_c, 0, 64, 81
2, 100635, Control_c, 0, 64, 78
2, 100655, Control_c, 0, 64, 77
2, 100693, Note_on_c, 0, 76, 100
2, 100709, Note_on_c, 0, 67, 75
2, 100713, Control_c, 0, 64, 76
2, 100732, Control_c, 0, 64, 75
2, 100752, Control_c, 0, 64, 74
2, 100771, Control_c, 0, 64, 72
2, 100791, Control_c, 0, 64, 69
2, 100808, Control_c, 0, 64, 66
2, 100828, Control_c, 0, 64, 62
2, 100834, Note_on_c, 0, 44, 76
2, 100845, Note_on_c, 0, 45, 0
2, 100849, Control_c, 0, 64, 60
2, 100868, Control_c, 0, 64, 58
2, 100923, Control_c, 0, 64, 56
2, 100943, Control_c, 0, 64, 53
2, 100947, Note_on_c, 0, 46, 79
2, 100951, Note_on_c, 0, 44, 0
2, 100965, Control_c, 0, 64, 49
2, 100983, Control_c, 0, 64, 44
2, 101001, Control_c, 0, 64, 41
2, 101021, Control_c, 0, 64, 40
2, 101039, Control_c, 0, 64, 39
2, 101052, Note_on_c, 0, 46, 0
2, 101058, Control_c, 0, 64, 37
2, 101065, Note_on_c, 0, 47, 85
2, 101078, Control_c, 0, 64, 35
2, 101098, Control_c, 0, 64, 32
2, 101115, Control_c, 0, 64, 30
2, 101136, Control_c, 0, 64, 26
2, 101153, Control_c, 0, 64, 24
2, 101173, Control_c, 0, 64, 22
2, 101177, Note_on_c, 0, 49, 86
2, 101205, Note_on_c, 0, 47, 0
2, 101282, Note_on_c, 0, 46, 86
2, 101310, Note_on_c, 0, 49, 0
2, 101365, Note_on_c, 0, 67, 0
2, 101423, Note_on_c, 0, 47, 91
2, 101461, Control_c, 0, 64, 21
2, 101490, Note_on_c, 0, 46, 0
2, 101657, Control_c, 0, 64, 20
2, 101683, Note_on_c, 0, 73, 91
2, 101685, Note_on_c, 0, 64, 81
2, 101718, Note_on_c, 0, 76, 0
2, 101748, Control_c, 0, 64, 19
2, 101768, Control_c, 0, 64, 15
2, 101788, Control_c, 0, 64, 0
2, 101797, Note_on_c, 0, 64, 0
2, 101936, Note_on_c, 0, 74, 95
2, 101963, Control_c, 0, 64, 21
2, 101963, Note_on_c, 0, 66, 76
2, 101979, Control_c, 0, 64, 39
2, 101979, Note_on_c, 0, 73, 0
2, 102002, Control_c, 0, 64, 57
2, 102017, Control_c, 0, 64, 66
2, 102028, Note_on_c, 0, 66, 0
2, 102038, Control_c, 0, 64, 69
2, 102057, Control_c, 0, 64, 75
2, 102077, Control_c, 0, 64, 83
2, 102086, Note_on_c, 0, 74, 0
2, 102098, Control_c, 0, 64, 90
2, 102114, Control_c, 0, 64, 93
2, 102153, Control_c, 0, 64, 92
2, 102171, Control_c, 0, 64, 90
2, 102192, Control_c, 0, 64, 88
2, 102209, Control_c, 0, 64, 86
2, 102229, Note_on_c, 0, 79, 100
2, 102233, Control_c, 0, 64, 83
2, 102238, Note_on_c, 0, 71, 81
2, 102251, Control_c, 0, 64, 80
2, 102266, Control_c, 0, 64, 77
2, 102286, Control_c, 0, 64, 70
2, 102306, Control_c, 0, 64, 65
2, 102327, Control_c, 0, 64, 60
2, 102345, Note_on_c, 0, 47, 0
2, 102349, Control_c, 0, 64, 56
2, 102364, Control_c, 0, 64, 55
2, 102364, Note_on_c, 0, 45, 70
2, 102420, Control_c, 0, 64, 54
2, 102460, Control_c, 0, 64, 53
2, 102475, Note_on_c, 0, 47, 79
2, 102480, Note_on_c, 0, 45, 0
2, 102501, Control_c, 0, 64, 51
2, 102518, Control_c, 0, 64, 49
2, 102538, Control_c, 0, 64, 46
2, 102556, Control_c, 0, 64, 43
2, 102560, Note_on_c, 0, 47, 0
2, 102576, Control_c, 0, 64, 41
2, 102580, Note_on_c, 0, 50, 81
2, 102632, Control_c, 0, 64, 40
2, 102652, Control_c, 0, 64, 39
2, 102695, Note_on_c, 0, 49, 80
2, 102699, Note_on_c, 0, 50, 0
2, 102810, Note_on_c, 0, 52, 91
2, 102817, Note_on_c, 0, 49, 0
2, 102844, Control_c, 0, 64, 38
2, 102956, Note_on_c, 0, 50, 92
2, 102980, Control_c, 0, 64, 37
2, 102997, Control_c, 0, 64, 36
2, 103045, Note_on_c, 0, 71, 0
2, 103069, Note_on_c, 0, 52, 0
2, 103150, Control_c, 0, 64, 35
2, 103196, Note_on_c, 0, 78, 97
2, 103212, Note_on_c, 0, 69, 72
2, 103227, Control_c, 0, 64, 34
2, 103267, Control_c, 0, 64, 33
2, 103365, Note_on_c, 0, 69, 0
2, 103455, Note_on_c, 0, 76, 91
2, 103455, Note_on_c, 0, 79, 0
2, 103470, Note_on_c, 0, 67, 83
2, 103519, Note_on_c, 0, 78, 0
2, 103535, Control_c, 0, 64, 34
2, 103572, Control_c, 0, 64, 35
2, 103604, Note_on_c, 0, 67, 0
2, 103704, Note_on_c, 0, 78, 96
2, 103709, Control_c, 0, 64, 34
2, 103718, Note_on_c, 0, 69, 74
2, 103725, Control_c, 0, 64, 33
2, 103745, Control_c, 0, 64, 32
2, 103756, Note_on_c, 0, 76, 0
2, 103767, Control_c, 0, 64, 27
2, 103785, Control_c, 0, 64, 18
2, 103789, Note_on_c, 0, 50, 0
2, 103803, Control_c, 0, 64, 8
2, 103824, Control_c, 0, 64, 0
2, 103841, Note_on_c, 0, 52, 67
2, 103920, Note_on_c, 0, 52, 0
2, 103941, Note_on_c, 0, 50, 71
2, 104020, Note_on_c, 0, 50, 0
2, 104054, Control_c, 0, 64, 8
2, 104072, Note_on_c, 0, 48, 63
2, 104142, Note_on_c, 0, 48, 0
2, 104164, Note_on_c, 0, 47, 69
2, 104254, Note_on_c, 0, 47, 0
2, 104265, Control_c, 0, 64, 9
2, 104284, Control_c, 0, 64, 11
2, 104296, Note_on_c, 0, 45, 57
2, 104319, Control_c, 0, 64, 13
2, 104338, Control_c, 0, 64, 17
2, 104352, Note_on_c, 0, 45, 0
2, 104357, Control_c, 0, 64, 23
2, 104377, Control_c, 0, 64, 29
2, 104396, Control_c, 0, 64, 39
2, 104396, Note_on_c, 0, 43, 64
2, 104418, Control_c, 0, 64, 54
2, 104437, Control_c, 0, 64, 62
2, 104504, Note_on_c, 0, 43, 0
2, 104508, Note_on_c, 0, 50, 67
2, 104529, Control_c, 0, 64, 61
2, 104533, Note_on_c, 0, 69, 0
2, 104558, Note_on_c, 0, 50, 0
2, 104571, Control_c, 0, 64, 60
2, 104571, Note_on_c, 0, 78, 0
2, 104626, Control_c, 0, 64, 59
2, 104630, Note_on_c, 0, 52, 70
2, 104641, Note_on_c, 0, 76, 88
2, 104645, Control_c, 0, 64, 58
2, 104650, Note_on_c, 0, 67, 77
2, 104663, Control_c, 0, 64, 57
2, 104685, Control_c, 0, 64, 55
2, 104696, Note_on_c, 0, 67, 0
2, 104704, Control_c, 0, 64, 53
2, 104720, Control_c, 0, 64, 51
2, 104740, Control_c, 0, 64, 49
2, 104740, Note_on_c, 0, 54, 81
2, 104749, Note_on_c, 0, 52, 0
2, 104758, Control_c, 0, 64, 47
2, 104778, Control_c, 0, 64, 46
2, 104835, Control_c, 0, 64, 45
2, 104860, Note_on_c, 0, 74, 83
2, 104869, Note_on_c, 0, 66, 75
2, 104876, Control_c, 0, 64, 43
2, 104876, Note_on_c, 0, 55, 82
2, 104880, Note_on_c, 0, 54, 0
2, 104891, Control_c, 0, 64, 41
2, 104912, Control_c, 0, 64, 37
2, 104921, Note_on_c, 0, 76, 0
2, 104932, Control_c, 0, 64, 35
2, 104953, Note_on_c, 0, 55, 0
2, 104978, Note_on_c, 0, 57, 87
2, 104983, Note_on_c, 0, 66, 0
2, 104992, Control_c, 0, 64, 34
2, 105103, Control_c, 0, 64, 32
2, 105125, Control_c, 0, 64, 27
2, 105129, Note_on_c, 0, 76, 90
2, 105134, Note_on_c, 0, 67, 73
2, 105139, Note_on_c, 0, 58, 80
2, 105143, Control_c, 0, 64, 19
2, 105161, Control_c, 0, 64, 13
2, 105183, Control_c, 0, 64, 12
2, 105183, Note_on_c, 0, 74, 0
2, 105205, Note_on_c, 0, 57, 0
2, 105238, Note_on_c, 0, 67, 0
2, 105298, Control_c, 0, 64, 13
2, 105315, Control_c, 0, 64, 14
2, 105333, Control_c, 0, 64, 15
2, 105355, Control_c, 0, 64, 16
2, 105373, Control_c, 0, 64, 18
2, 105391, Control_c, 0, 64, 20
2, 105396, Note_on_c, 0, 64, 79
2, 105402, Note_on_c, 0, 73, 87
2, 105415, Control_c, 0, 64, 22
2, 105415, Control_c, 0, 67, 15
2, 105430, Control_c, 0, 64, 24
2, 105435, Control_c, 0, 67, 28
2, 105441, Note_on_c, 0, 76, 0
2, 105452, Control_c, 0, 64, 26
2, 105452, Control_c, 0, 67, 40
2, 105468, Control_c, 0, 64, 27
2, 105474, Control_c, 0, 67, 48
2, 105485, Note_on_c, 0, 64, 0
2, 105490, Control_c, 0, 64, 29
2, 105490, Control_c, 0, 67, 54
2, 105508, Control_c, 0, 64, 32
2, 105508, Control_c, 0, 67, 56
2, 105526, Control_c, 0, 64, 36
2, 105548, Control_c, 0, 64, 44
2, 105568, Control_c, 0, 64, 51
2, 105568, Control_c, 0, 67, 55
2, 105586, Control_c, 0, 64, 56
2, 105586, Control_c, 0, 67, 54
2, 105604, Control_c, 0, 64, 58
2, 105604, Control_c, 0, 67, 53
2, 105624, Control_c, 0, 64, 60
2, 105624, Control_c, 0, 67, 52
2, 105646, Control_c, 0, 64, 64
2, 105646, Control_c, 0, 67, 50
2, 105657, Note_on_c, 0, 74, 79
2, 105663, Control_c, 0, 64, 69
2, 105665, Control_c, 0, 67, 49
2, 105671, Note_on_c, 0, 65, 64
2, 105671, Note_on_c, 0, 73, 0
2, 105680, Control_c, 0, 64, 78
2, 105684, Control_c, 0, 67, 48
2, 105705, Control_c, 0, 64, 89
2, 105705, Control_c, 0, 67, 46
2, 105719, Control_c, 0, 64, 102
2, 105723, Control_c, 0, 67, 45
2, 105739, Control_c, 0, 64, 120
2, 105739, Control_c, 0, 67, 44
2, 105759, Control_c, 0, 64, 127
2, 105764, Note_on_c, 0, 65, 0
2, 105764, Note_on_c, 0, 74, 0
2, 105775, Control_c, 0, 67, 43
2, 105814, Control_c, 0, 67, 42
2, 105832, Control_c, 0, 67, 41
2, 105872, Control_c, 0, 67, 40
2, 105912, Control_c, 0, 64, 109
2, 105912, Control_c, 0, 67, 39
2, 105916, Note_on_c, 0, 73, 81
2, 105932, Control_c, 0, 64, 97
2, 105932, Control_c, 0, 67, 37
2, 105938, Note_on_c, 0, 64, 56
2, 105940, Note_on_c, 0, 73, 0
2, 105951, Control_c, 0, 64, 85
2, 105951, Control_c, 0, 67, 30
2, 105970, Control_c, 0, 64, 74
2, 105970, Control_c, 0, 67, 20
2, 105982, Note_on_c, 0, 74, 72
2, 105990, Control_c, 0, 64, 65
2, 105990, Control_c, 0, 67, 11
2, 106013, Control_c, 0, 64, 57
2, 106013, Control_c, 0, 67, 0
2, 106013, Note_on_c, 0, 73, 79
2, 106026, Control_c, 0, 64, 50
2, 106045, Note_on_c, 0, 74, 0
2, 106049, Control_c, 0, 64, 45
2, 106067, Control_c, 0, 64, 43
2, 106077, Note_on_c, 0, 58, 0
2, 106084, Control_c, 0, 64, 42
2, 106122, Control_c, 0, 64, 41
2, 106133, Note_on_c, 0, 57, 56
2, 106140, Control_c, 0, 64, 40
2, 106160, Control_c, 0, 64, 38
2, 106180, Control_c, 0, 64, 36
2, 106191, Note_on_c, 0, 57, 0
2, 106198, Control_c, 0, 64, 34
2, 106218, Control_c, 0, 64, 31
2, 106230, Note_on_c, 0, 58, 58
2, 106239, Control_c, 0, 64, 27
2, 106257, Control_c, 0, 64, 18
2, 106275, Control_c, 0, 64, 0
2, 106295, Note_on_c, 0, 58, 0
2, 106360, Note_on_c, 0, 55, 48
2, 106429, Control_c, 0, 67, 8
2, 106433, Note_on_c, 0, 55, 0
2, 106494, Note_on_c, 0, 52, 47
2, 106541, Note_on_c, 0, 73, 0
2, 106563, Note_on_c, 0, 52, 0
2, 106601, Note_on_c, 0, 55, 50
2, 106664, Note_on_c, 0, 55, 0
2, 106732, Note_on_c, 0, 64, 0
2, 106736, Note_on_c, 0, 57, 60
2, 106736, Note_on_c, 0, 65, 62
2, 106788, Note_on_c, 0, 57, 0
2, 106828, Note_on_c, 0, 65, 0
2, 106833, Control_c, 0, 67, 9
2, 106845, Note_on_c, 0, 55, 50
2, 106861, Note_on_c, 0, 64, 56
2, 106909, Note_on_c, 0, 55, 0
2, 106938, Note_on_c, 0, 64, 0
2, 106952, Note_on_c, 0, 57, 56
2, 106977, Note_on_c, 0, 65, 58
2, 107020, Note_on_c, 0, 57, 0
2, 107024, Note_on_c, 0, 65, 0
2, 107070, Note_on_c, 0, 53, 59
2, 107074, Note_on_c, 0, 62, 67
2, 107151, Note_on_c, 0, 53, 0
2, 107186, Note_on_c, 0, 69, 68
2, 107204, Note_on_c, 0, 50, 54
2, 107224, Note_on_c, 0, 62, 0
2, 107273, Note_on_c, 0, 50, 0
2, 107282, Note_on_c, 0, 65, 63
2, 107286, Note_on_c, 0, 69, 0
2, 107294, Note_on_c, 0, 53, 59
2, 107384, Note_on_c, 0, 53, 0
2, 107418, Note_on_c, 0, 70, 85
2, 107432, Note_on_c, 0, 55, 62
2, 107501, Note_on_c, 0, 65, 0
2, 107517, Note_on_c, 0, 55, 0
2, 107544, Note_on_c, 0, 53, 61
2, 107648, Note_on_c, 0, 53, 0
2, 107659, Control_c, 0, 64, 20
2, 107670, Note_on_c, 0, 64, 65
2, 107681, Control_c, 0, 64, 28
2, 107681, Note_on_c, 0, 55, 60
2, 107699, Control_c, 0, 64, 36
2, 107718, Control_c, 0, 64, 42
2, 107736, Control_c, 0, 64, 49
2, 107756, Control_c, 0, 64, 55
2, 107771, Note_on_c, 0, 55, 0
2, 107776, Control_c, 0, 64, 58
2, 107794, Control_c, 0, 64, 59
2, 107794, Note_on_c, 0, 52, 62
2, 107812, Control_c, 0, 64, 60
2, 107834, Control_c, 0, 64, 62
2, 107853, Control_c, 0, 64, 65
2, 107872, Control_c, 0, 64, 67
2, 107890, Control_c, 0, 64, 68
2, 107897, Note_on_c, 0, 52, 0
2, 107910, Control_c, 0, 64, 70
2, 107910, Note_on_c, 0, 67, 71
2, 107923, Note_on_c, 0, 49, 57
2, 107928, Control_c, 0, 64, 71
2, 107946, Control_c, 0, 64, 70
2, 107972, Note_on_c, 0, 70, 0
2, 108007, Control_c, 0, 64, 69
2, 108014, Note_on_c, 0, 49, 0
2, 108024, Control_c, 0, 64, 68
2, 108043, Note_on_c, 0, 52, 63
2, 108047, Control_c, 0, 64, 67
2, 108082, Control_c, 0, 64, 66
2, 108100, Control_c, 0, 64, 65
2, 108120, Control_c, 0, 64, 64
2, 108133, Note_on_c, 0, 52, 0
2, 108140, Control_c, 0, 64, 62
2, 108155, Note_on_c, 0, 69, 92
2, 108159, Control_c, 0, 64, 60
2, 108177, Note_on_c, 0, 53, 73
2, 108179, Control_c, 0, 64, 59
2, 108189, Note_on_c, 0, 67, 0
2, 108199, Control_c, 0, 64, 57
2, 108217, Control_c, 0, 64, 56
2, 108237, Control_c, 0, 64, 55
2, 108255, Control_c, 0, 64, 54
2, 108277, Note_on_c, 0, 53, 0
2, 108286, Note_on_c, 0, 52, 72
2, 108294, Control_c, 0, 64, 53
2, 108314, Control_c, 0, 64, 51
2, 108331, Control_c, 0, 64, 50
2, 108350, Control_c, 0, 64, 48
2, 108369, Control_c, 0, 64, 46
2, 108390, Control_c, 0, 64, 45
2, 108401, Note_on_c, 0, 52, 0
2, 108407, Control_c, 0, 64, 44
2, 108407, Note_on_c, 0, 61, 76
2, 108414, Note_on_c, 0, 53, 70
2, 108443, Note_on_c, 0, 64, 0
2, 108510, Note_on_c, 0, 53, 0
2, 108524, Note_on_c, 0, 50, 78
2, 108541, Control_c, 0, 64, 45
2, 108599, Control_c, 0, 64, 46
2, 108621, Control_c, 0, 64, 47
2, 108641, Control_c, 0, 64, 48
2, 108643, Note_on_c, 0, 50, 0
2, 108663, Control_c, 0, 64, 50
2, 108663, Note_on_c, 0, 62, 87
2, 108667, Note_on_c, 0, 47, 69
2, 108678, Control_c, 0, 64, 52
2, 108698, Control_c, 0, 64, 55
2, 108715, Control_c, 0, 64, 57
2, 108735, Control_c, 0, 64, 58
2, 108744, Note_on_c, 0, 69, 0
2, 108755, Control_c, 0, 64, 59
2, 108774, Control_c, 0, 64, 60
2, 108774, Note_on_c, 0, 47, 0
2, 108778, Note_on_c, 0, 50, 73
2, 108835, Note_on_c, 0, 61, 0
2, 108846, Note_on_c, 0, 50, 0
2, 108851, Control_c, 0, 64, 59
2, 108885, Note_on_c, 0, 52, 80
2, 108890, Control_c, 0, 64, 58
2, 108894, Note_on_c, 0, 67, 101
2, 108907, Control_c, 0, 64, 57
2, 108926, Control_c, 0, 64, 56
2, 108967, Control_c, 0, 64, 55
2, 108989, Control_c, 0, 64, 53
2, 108993, Note_on_c, 0, 62, 0
2, 108998, Note_on_c, 0, 52, 0
2, 109002, Note_on_c, 0, 50, 80
2, 109010, Control_c, 0, 64, 51
2, 109025, Control_c, 0, 64, 49
2, 109045, Control_c, 0, 64, 47
2, 109065, Control_c, 0, 64, 46
2, 109131, Note_on_c, 0, 52, 79
2, 109133, Note_on_c, 0, 50, 0
2, 109146, Note_on_c, 0, 61, 87
2, 109179, Control_c, 0, 64, 47
2, 109199, Control_c, 0, 64, 48
2, 109216, Control_c, 0, 64, 49
2, 109242, Note_on_c, 0, 49, 82
2, 109255, Note_on_c, 0, 52, 0
2, 109259, Control_c, 0, 64, 50
2, 109382, Note_on_c, 0, 45, 75
2, 109382, Note_on_c, 0, 49, 0
2, 109394, Note_on_c, 0, 64, 90
2, 109461, Note_on_c, 0, 67, 0
2, 109503, Note_on_c, 0, 49, 82
2, 109516, Note_on_c, 0, 45, 0
2, 109621, Control_c, 0, 64, 49
2, 109630, Note_on_c, 0, 49, 0
2, 109630, Note_on_c, 0, 65, 96
2, 109637, Note_on_c, 0, 50, 78
2, 109642, Control_c, 0, 64, 48
2, 109660, Control_c, 0, 64, 45
2, 109678, Control_c, 0, 64, 36
2, 109683, Note_on_c, 0, 61, 0
2, 109686, Note_on_c, 0, 64, 0
2, 109696, Control_c, 0, 64, 0
2, 109762, Note_on_c, 0, 50, 0
2, 109764, Note_on_c, 0, 49, 80
2, 109856, Note_on_c, 0, 49, 0
2, 109860, Note_on_c, 0, 50, 71
2, 109879, Note_on_c, 0, 57, 80
2, 109948, Note_on_c, 0, 50, 0
2, 109985, Note_on_c, 0, 53, 70
2, 110098, Note_on_c, 0, 53, 0
2, 110118, Note_on_c, 0, 46, 69
2, 110120, Note_on_c, 0, 57, 0
2, 110120, Note_on_c, 0, 62, 76
2, 110192, Note_on_c, 0, 46, 0
2, 110236, Control_c, 0, 67, 8
2, 110239, Note_on_c, 0, 50, 61
2, 110254, Control_c, 0, 64, 20
2, 110273, Control_c, 0, 64, 34
2, 110292, Control_c, 0, 64, 44
2, 110306, Note_on_c, 0, 50, 0
2, 110313, Control_c, 0, 64, 52
2, 110322, Note_on_c, 0, 62, 0
2, 110331, Control_c, 0, 64, 57
2, 110347, Note_on_c, 0, 59, 66
2, 110362, Note_on_c, 0, 44, 63
2, 110410, Control_c, 0, 64, 56
2, 110462, Note_on_c, 0, 44, 0
2, 110498, Note_on_c, 0, 45, 57
2, 110509, Note_on_c, 0, 64, 75
2, 110525, Note_on_c, 0, 59, 0
2, 110530, Note_on_c, 0, 65, 0
2, 110540, Note_on_c, 0, 45, 0
2, 110544, Control_c, 0, 64, 57
2, 110577, Note_on_c, 0, 44, 55
2, 110581, Control_c, 0, 64, 58
2, 110619, Note_on_c, 0, 62, 79
2, 110623, Control_c, 0, 64, 59
2, 110628, Note_on_c, 0, 44, 0
2, 110650, Note_on_c, 0, 45, 67
2, 110681, Note_on_c, 0, 64, 0
2, 110697, Control_c, 0, 64, 58
2, 110708, Note_on_c, 0, 45, 0
2, 110727, Note_on_c, 0, 61, 79
2, 110727, Note_on_c, 0, 62, 0
2, 110731, Note_on_c, 0, 44, 77
2, 110807, Note_on_c, 0, 44, 0
2, 110828, Note_on_c, 0, 45, 75
2, 110845, Note_on_c, 0, 62, 91
2, 110852, Control_c, 0, 64, 57
2, 110852, Note_on_c, 0, 61, 0
2, 110877, Note_on_c, 0, 45, 0
2, 110890, Control_c, 0, 67, 0
2, 110910, Note_on_c, 0, 44, 73
2, 110929, Control_c, 0, 64, 56
2, 110960, Note_on_c, 0, 65, 84
2, 110965, Control_c, 0, 64, 55
2, 110972, Note_on_c, 0, 62, 0
2, 110978, Note_on_c, 0, 44, 0
2, 110983, Note_on_c, 0, 45, 80
2, 111003, Control_c, 0, 64, 54
2, 111021, Control_c, 0, 64, 53
2, 111033, Note_on_c, 0, 45, 0
2, 111043, Control_c, 0, 64, 52
2, 111063, Control_c, 0, 64, 50
2, 111069, Note_on_c, 0, 44, 77
2, 111079, Control_c, 0, 64, 47
2, 111084, Note_on_c, 0, 71, 95
2, 111099, Control_c, 0, 64, 44
2, 111103, Note_on_c, 0, 65, 0
2, 111119, Control_c, 0, 64, 42
2, 111138, Control_c, 0, 64, 41
2, 111151, Note_on_c, 0, 44, 0
2, 111156, Note_on_c, 0, 45, 77
2, 111210, Note_on_c, 0, 65, 89
2, 111223, Note_on_c, 0, 71, 0
2, 111232, Note_on_c, 0, 44, 80
2, 111236, Note_on_c, 0, 45, 0
2, 111309, Note_on_c, 0, 44, 0
2, 111321, Note_on_c, 0, 45, 78
2, 111330, Note_on_c, 0, 64, 91
2, 111334, Note_on_c, 0, 65, 0
2, 111386, Note_on_c, 0, 45, 0
2, 111399, Note_on_c, 0, 44, 77
2, 111452, Note_on_c, 0, 62, 89
2, 111456, Note_on_c, 0, 64, 0
2, 111465, Control_c, 0, 64, 42
2, 111475, Note_on_c, 0, 44, 0
2, 111482, Note_on_c, 0, 45, 81
2, 111486, Control_c, 0, 64, 43
2, 111502, Control_c, 0, 64, 44
2, 111521, Note_on_c, 0, 45, 0
2, 111526, Control_c, 0, 64, 45
2, 111542, Control_c, 0, 64, 47
2, 111555, Note_on_c, 0, 61, 83
2, 111560, Control_c, 0, 64, 49
2, 111560, Note_on_c, 0, 44, 80
2, 111573, Note_on_c, 0, 62, 0
2, 111580, Control_c, 0, 64, 52
2, 111598, Control_c, 0, 64, 55
2, 111619, Control_c, 0, 64, 57
2, 111639, Control_c, 0, 64, 60
2, 111639, Note_on_c, 0, 45, 86
2, 111650, Note_on_c, 0, 44, 0
2, 111657, Control_c, 0, 64, 61
2, 111666, Note_on_c, 0, 59, 94
2, 111671, Note_on_c, 0, 45, 0
2, 111695, Note_on_c, 0, 61, 0
2, 111734, Control_c, 0, 64, 60
2, 111761, Note_on_c, 0, 45, 96
2, 111772, Control_c, 0, 64, 57
2, 111791, Control_c, 0, 64, 48
2, 111807, Note_on_c, 0, 61, 84
2, 111812, Control_c, 0, 64, 26
2, 111816, Note_on_c, 0, 59, 0
2, 111831, Control_c, 0, 64, 0
2, 111928, Note_on_c, 0, 57, 92
2, 111947, Control_c, 0, 64, 25
2, 111947, Note_on_c, 0, 61, 0
2, 111964, Control_c, 0, 64, 39
2, 111981, Control_c, 0, 64, 48
2, 112001, Note_on_c, 0, 57, 0
2, 112005, Control_c, 0, 64, 54
2, 112020, Control_c, 0, 64, 56
2, 112035, Note_on_c, 0, 57, 62
2, 112041, Control_c, 0, 64, 57
2, 112046, Note_on_c, 0, 55, 82
2, 112060, Control_c, 0, 64, 58
2, 112075, Note_on_c, 0, 57, 0
2, 112080, Control_c, 0, 64, 60
2, 112096, Control_c, 0, 64, 63
2, 112119, Control_c, 0, 64, 64
2, 112139, Control_c, 0, 64, 65
2, 112154, Note_on_c, 0, 54, 85
2, 112159, Control_c, 0, 64, 66
2, 112174, Note_on_c, 0, 45, 0
2, 112186, Note_on_c, 0, 55, 0
2, 112212, Control_c, 0, 64, 65
2, 112270, Note_on_c, 0, 52, 90
2, 112285, Note_on_c, 0, 54, 0
2, 112307, Control_c, 0, 64, 64
2, 112367, Control_c, 0, 64, 63
2, 112384, Note_on_c, 0, 50, 90
2, 112398, Note_on_c, 0, 52, 0
2, 112424, Control_c, 0, 64, 62
2, 112445, Control_c, 0, 64, 59
2, 112460, Control_c, 0, 64, 49
2, 112482, Control_c, 0, 64, 0
2, 112503, Note_on_c, 0, 49, 85
2, 112530, Note_on_c, 0, 50, 0
2, 112621, Note_on_c, 0, 47, 92
2, 112657, Note_on_c, 0, 49, 0
2, 112726, Note_on_c, 0, 45, 89
2, 112763, Note_on_c, 0, 47, 0
2, 112836, Note_on_c, 0, 43, 89
2, 112846, Note_on_c, 0, 45, 0
2, 112943, Note_on_c, 0, 42, 88
2, 112965, Note_on_c, 0, 43, 0
2, 113057, Note_on_c, 0, 42, 0
2, 113065, Note_on_c, 0, 40, 75
2, 113203, Note_on_c, 0, 38, 92
2, 113315, Note_on_c, 0, 40, 0
2, 113509, Note_on_c, 0, 50, 89
2, 113604, Note_on_c, 0, 52, 89
2, 113635, Note_on_c, 0, 50, 0
2, 113707, Note_on_c, 0, 54, 86
2, 113747, Note_on_c, 0, 52, 0
2, 113813, Note_on_c, 0, 55, 83
2, 113817, Note_on_c, 0, 54, 0
2, 113931, Note_on_c, 0, 57, 100
2, 113959, Note_on_c, 0, 55, 0
2, 113971, Note_on_c, 0, 57, 0
2, 113981, Note_on_c, 0, 38, 0
2, 114172, Note_on_c, 0, 54, 82
2, 114217, Note_on_c, 0, 54, 0
2, 114408, Note_on_c, 0, 57, 89
2, 114451, Note_on_c, 0, 57, 0
2, 114637, Note_on_c, 0, 62, 97
2, 114681, Note_on_c, 0, 62, 0
2, 114861, Note_on_c, 0, 57, 92
2, 114923, Note_on_c, 0, 57, 0
2, 115083, Note_on_c, 0, 62, 100
2, 115139, Note_on_c, 0, 62, 0
2, 115315, Note_on_c, 0, 66, 103
2, 115367, Note_on_c, 0, 66, 0
2, 115531, Note_on_c, 0, 62, 93
2, 115589, Note_on_c, 0, 62, 0
2, 115762, Note_on_c, 0, 66, 98
2, 115808, Note_on_c, 0, 66, 0
2, 116048, Note_on_c, 0, 69, 94
2, 116164, Control_c, 0, 64, 13
2, 116184, Control_c, 0, 64, 21
2, 116202, Control_c, 0, 64, 28
2, 116222, Control_c, 0, 64, 35
2, 116240, Control_c, 0, 64, 40
2, 116259, Control_c, 0, 64, 45
2, 116281, Control_c, 0, 64, 49
2, 116299, Control_c, 0, 64, 53
2, 116317, Control_c, 0, 64, 57
2, 116338, Control_c, 0, 64, 59
2, 116358, Control_c, 0, 64, 60
2, 116376, Control_c, 0, 64, 62
2, 116396, Control_c, 0, 64, 64
2, 116415, Control_c, 0, 64, 65
2, 116433, Control_c, 0, 64, 69
2, 116451, Control_c, 0, 64, 76
2, 116472, Control_c, 0, 64, 89
2, 116492, Control_c, 0, 64, 106
2, 116510, Control_c, 0, 64, 127
2, 116774, Note_on_c, 0, 69, 0
2, 116840, Control_c, 0, 64, 118
2, 116855, Control_c, 0, 64, 108
2, 116877, Control_c, 0, 64, 101
2, 116894, Control_c, 0, 64, 96
2, 116905, Note_on_c, 0, 69, 73
2, 116909, Note_on_c, 0, 78, 87
2, 116914, Control_c, 0, 64, 90
2, 116934, Control_c, 0, 64, 82
2, 116934, Note_on_c, 0, 50, 41
2, 116952, Control_c, 0, 64, 73
2, 116972, Control_c, 0, 64, 65
2, 116989, Control_c, 0, 64, 59
2, 117011, Control_c, 0, 64, 53
2, 117030, Control_c, 0, 64, 50
2, 117048, Control_c, 0, 64, 49
2, 117066, Control_c, 0, 64, 48
2, 117085, Control_c, 0, 64, 43
2, 117105, Control_c, 0, 64, 37
2, 117123, Control_c, 0, 64, 32
2, 117143, Control_c, 0, 64, 30
2, 117183, Control_c, 0, 64, 32
2, 117201, Control_c, 0, 64, 33
2, 117221, Control_c, 0, 64, 35
2, 117239, Control_c, 0, 64, 38
2, 117259, Control_c, 0, 64, 44
2, 117279, Control_c, 0, 64, 54
2, 117297, Control_c, 0, 64, 61
2, 117317, Control_c, 0, 64, 62
2, 117339, Control_c, 0, 64, 64
2, 117358, Control_c, 0, 64, 67
2, 117375, Control_c, 0, 64, 72
2, 117392, Control_c, 0, 64, 79
2, 117412, Control_c, 0, 64, 86
2, 117431, Control_c, 0, 64, 92
2, 117451, Control_c, 0, 64, 96
2, 117469, Control_c, 0, 64, 100
2, 117492, Note_on_c, 0, 69, 0
2, 117509, Note_on_c, 0, 78, 0
2, 117547, Control_c, 0, 64, 99
2, 117565, Control_c, 0, 64, 97
2, 117584, Control_c, 0, 64, 94
2, 117604, Control_c, 0, 64, 90
2, 117625, Control_c, 0, 64, 87
2, 117644, Control_c, 0, 64, 84
2, 117662, Control_c, 0, 64, 80
2, 117677, Note_on_c, 0, 78, 88
2, 117681, Control_c, 0, 64, 75
2, 117695, Note_on_c, 0, 69, 65
2, 117699, Note_on_c, 0, 57, 61
2, 117703, Control_c, 0, 64, 68
2, 117723, Control_c, 0, 64, 62
2, 117741, Control_c, 0, 64, 57
2, 117758, Control_c, 0, 64, 55
2, 117816, Control_c, 0, 64, 54
2, 117958, Note_on_c, 0, 69, 0
2, 117969, Note_on_c, 0, 50, 0
2, 118084, Note_on_c, 0, 76, 75
2, 118091, Note_on_c, 0, 67, 67
2, 118104, Control_c, 0, 64, 53
2, 118108, Note_on_c, 0, 78, 0
2, 118220, Control_c, 0, 64, 54
2, 118238, Control_c, 0, 64, 56
2, 118258, Control_c, 0, 64, 59
2, 118276, Control_c, 0, 64, 62
2, 118296, Control_c, 0, 64, 64
2, 118335, Note_on_c, 0, 67, 0
2, 118353, Note_on_c, 0, 76, 0
2, 118391, Control_c, 0, 64, 63
2, 118429, Control_c, 0, 64, 62
2, 118469, Control_c, 0, 64, 61
2, 118474, Note_on_c, 0, 45, 55
2, 118476, Note_on_c, 0, 76, 81
2, 118479, Note_on_c, 0, 67, 65
2, 118489, Control_c, 0, 64, 60
2, 118507, Control_c, 0, 64, 59
2, 118528, Control_c, 0, 64, 57
2, 118550, Control_c, 0, 64, 52
2, 118566, Control_c, 0, 64, 47
2, 118585, Control_c, 0, 64, 43
2, 118642, Control_c, 0, 64, 44
2, 118662, Control_c, 0, 64, 45
2, 118683, Control_c, 0, 64, 47
2, 118718, Control_c, 0, 64, 48
2, 118755, Note_on_c, 0, 76, 0
2, 118757, Control_c, 0, 64, 49
2, 118776, Note_on_c, 0, 57, 0
2, 118813, Control_c, 0, 64, 48
2, 118854, Control_c, 0, 64, 47
2, 118854, Note_on_c, 0, 66, 65
2, 118861, Note_on_c, 0, 74, 65
2, 118908, Control_c, 0, 64, 46
2, 118913, Note_on_c, 0, 67, 0
2, 119061, Note_on_c, 0, 74, 0
2, 119081, Note_on_c, 0, 66, 0
2, 119179, Control_c, 0, 64, 45
2, 119199, Control_c, 0, 64, 43
2, 119216, Control_c, 0, 64, 37
2, 119234, Control_c, 0, 64, 26
2, 119245, Note_on_c, 0, 74, 62
2, 119249, Note_on_c, 0, 66, 60
2, 119254, Control_c, 0, 64, 19
2, 119261, Note_on_c, 0, 50, 44
2, 119270, Note_on_c, 0, 45, 0
2, 119277, Control_c, 0, 64, 18
2, 119293, Control_c, 0, 64, 19
2, 119311, Control_c, 0, 64, 24
2, 119330, Control_c, 0, 64, 33
2, 119350, Control_c, 0, 64, 51
2, 119368, Control_c, 0, 64, 65
2, 119388, Control_c, 0, 64, 71
2, 119406, Control_c, 0, 64, 81
2, 119406, Note_on_c, 0, 74, 0
2, 119426, Control_c, 0, 64, 89
2, 119440, Note_on_c, 0, 66, 0
2, 119446, Control_c, 0, 64, 98
2, 119465, Control_c, 0, 64, 101
2, 119484, Control_c, 0, 64, 99
2, 119502, Control_c, 0, 64, 92
2, 119522, Control_c, 0, 64, 84
2, 119542, Control_c, 0, 64, 78
2, 119562, Control_c, 0, 64, 73
2, 119569, Note_on_c, 0, 50, 0
2, 119581, Control_c, 0, 64, 68
2, 119600, Control_c, 0, 64, 63
2, 119600, Note_on_c, 0, 62, 70
2, 119620, Control_c, 0, 64, 58
2, 119638, Control_c, 0, 64, 52
2, 119658, Control_c, 0, 64, 44
2, 119664, Note_on_c, 0, 62, 0
2, 119680, Control_c, 0, 64, 30
2, 119695, Control_c, 0, 64, 0
2, 119695, Note_on_c, 0, 64, 66
2, 119776, Note_on_c, 0, 64, 0
2, 119805, Note_on_c, 0, 66, 59
2, 119844, Note_on_c, 0, 66, 0
2, 119894, Note_on_c, 0, 67, 60
2, 119992, Note_on_c, 0, 67, 0
2, 120001, Note_on_c, 0, 69, 66
2, 120032, Note_on_c, 0, 69, 0
2, 120230, Note_on_c, 0, 66, 64
2, 120249, Note_on_c, 0, 60, 62
2, 120269, Note_on_c, 0, 66, 0
2, 120298, Note_on_c, 0, 60, 0
2, 120353, Note_on_c, 0, 59, 58
2, 120413, Note_on_c, 0, 59, 0
2, 120446, Note_on_c, 0, 57, 68
2, 120453, Note_on_c, 0, 69, 61
2, 120495, Note_on_c, 0, 69, 0
2, 120501, Note_on_c, 0, 57, 0
2, 120556, Note_on_c, 0, 55, 55
2, 120661, Note_on_c, 0, 55, 0
2, 120663, Note_on_c, 0, 72, 85
2, 120674, Note_on_c, 0, 54, 62
2, 120701, Note_on_c, 0, 72, 0
2, 120726, Note_on_c, 0, 54, 0
2, 120897, Note_on_c, 0, 69, 84
2, 120913, Note_on_c, 0, 57, 74
2, 120950, Note_on_c, 0, 69, 0
2, 120952, Note_on_c, 0, 57, 0
2, 121128, Note_on_c, 0, 72, 97
2, 121137, Note_on_c, 0, 54, 75
2, 121171, Note_on_c, 0, 72, 0
2, 121175, Note_on_c, 0, 54, 0
2, 121364, Note_on_c, 0, 50, 76
2, 121364, Note_on_c, 0, 78, 100
2, 121406, Note_on_c, 0, 50, 0
2, 121417, Note_on_c, 0, 78, 0
2, 121594, Note_on_c, 0, 72, 94
2, 121599, Note_on_c, 0, 54, 74
2, 121642, Note_on_c, 0, 54, 0
2, 121647, Note_on_c, 0, 72, 0
2, 121817, Note_on_c, 0, 78, 95
2, 121833, Note_on_c, 0, 50, 75
2, 121856, Note_on_c, 0, 78, 0
2, 121874, Note_on_c, 0, 50, 0
2, 122054, Note_on_c, 0, 45, 77
2, 122059, Note_on_c, 0, 81, 93
2, 122094, Note_on_c, 0, 45, 0
2, 122293, Note_on_c, 0, 50, 81
2, 122346, Note_on_c, 0, 50, 0
2, 122529, Note_on_c, 0, 45, 82
2, 122564, Note_on_c, 0, 45, 0
2, 122766, Note_on_c, 0, 42, 78
2, 122771, Note_on_c, 0, 72, 93
2, 122775, Note_on_c, 0, 69, 81
2, 122809, Note_on_c, 0, 42, 0
2, 122829, Note_on_c, 0, 81, 0
2, 122986, Note_on_c, 0, 45, 71
2, 123023, Note_on_c, 0, 45, 0
2, 123134, Control_c, 0, 64, 16
2, 123150, Control_c, 0, 64, 30
2, 123170, Control_c, 0, 64, 42
2, 123191, Control_c, 0, 64, 55
2, 123209, Control_c, 0, 64, 64
2, 123237, Note_on_c, 0, 42, 72
2, 123248, Control_c, 0, 64, 65
2, 123267, Control_c, 0, 64, 67
2, 123276, Note_on_c, 0, 42, 0
2, 123289, Control_c, 0, 64, 68
2, 123289, Note_on_c, 0, 72, 0
2, 123304, Control_c, 0, 64, 69
2, 123322, Control_c, 0, 64, 68
2, 123343, Control_c, 0, 64, 67
2, 123354, Note_on_c, 0, 69, 0
2, 123381, Control_c, 0, 64, 66
2, 123401, Control_c, 0, 64, 65
2, 123440, Control_c, 0, 64, 64
2, 123459, Control_c, 0, 64, 62
2, 123481, Control_c, 0, 64, 59
2, 123496, Note_on_c, 0, 69, 75
2, 123496, Note_on_c, 0, 72, 80
2, 123501, Control_c, 0, 64, 55
2, 123501, Note_on_c, 0, 38, 66
2, 123516, Control_c, 0, 64, 50
2, 123535, Control_c, 0, 64, 44
2, 123555, Control_c, 0, 64, 40
2, 123575, Control_c, 0, 64, 36
2, 123592, Control_c, 0, 64, 35
2, 123612, Control_c, 0, 64, 33
2, 123630, Control_c, 0, 64, 30
2, 123650, Control_c, 0, 64, 26
2, 123670, Control_c, 0, 64, 22
2, 123688, Control_c, 0, 64, 19
2, 123708, Control_c, 0, 64, 18
2, 123728, Control_c, 0, 64, 17
2, 123746, Control_c, 0, 64, 16
2, 123768, Control_c, 0, 64, 15
2, 123785, Control_c, 0, 64, 14
2, 123804, Control_c, 0, 64, 13
2, 123888, Note_on_c, 0, 71, 73
2, 123899, Note_on_c, 0, 67, 66
2, 123917, Note_on_c, 0, 72, 0
2, 123944, Note_on_c, 0, 69, 0
2, 123957, Control_c, 0, 64, 16
2, 123976, Control_c, 0, 64, 19
2, 123998, Control_c, 0, 64, 23
2, 124015, Control_c, 0, 64, 28
2, 124033, Control_c, 0, 64, 34
2, 124052, Control_c, 0, 64, 40
2, 124072, Control_c, 0, 64, 47
2, 124093, Control_c, 0, 64, 53
2, 124111, Control_c, 0, 64, 55
2, 124143, Note_on_c, 0, 67, 0
2, 124143, Note_on_c, 0, 71, 0
2, 124189, Control_c, 0, 64, 54
2, 124225, Control_c, 0, 64, 53
2, 124245, Control_c, 0, 64, 52
2, 124265, Control_c, 0, 64, 51
2, 124265, Note_on_c, 0, 50, 57
2, 124269, Note_on_c, 0, 71, 72
2, 124276, Note_on_c, 0, 67, 66
2, 124287, Control_c, 0, 64, 50
2, 124303, Control_c, 0, 64, 49
2, 124323, Control_c, 0, 64, 48
2, 124343, Control_c, 0, 64, 46
2, 124361, Control_c, 0, 64, 44
2, 124380, Control_c, 0, 64, 42
2, 124385, Note_on_c, 0, 38, 0
2, 124400, Control_c, 0, 64, 40
2, 124437, Control_c, 0, 64, 39
2, 124455, Control_c, 0, 64, 38
2, 124475, Control_c, 0, 64, 37
2, 124495, Control_c, 0, 64, 36
2, 124514, Control_c, 0, 64, 35
2, 124659, Note_on_c, 0, 67, 0
2, 124666, Note_on_c, 0, 69, 60
2, 124671, Control_c, 0, 64, 36
2, 124677, Note_on_c, 0, 66, 58
2, 124682, Note_on_c, 0, 71, 0
2, 124686, Control_c, 0, 64, 37
2, 124707, Control_c, 0, 64, 39
2, 124727, Control_c, 0, 64, 42
2, 124747, Control_c, 0, 64, 44
2, 124764, Control_c, 0, 64, 48
2, 124783, Control_c, 0, 64, 52
2, 124803, Control_c, 0, 64, 55
2, 124820, Control_c, 0, 64, 56
2, 124873, Note_on_c, 0, 66, 0
2, 124899, Note_on_c, 0, 69, 0
2, 124917, Control_c, 0, 64, 55
2, 124974, Control_c, 0, 64, 53
2, 124993, Control_c, 0, 64, 50
2, 125013, Control_c, 0, 64, 44
2, 125027, Note_on_c, 0, 43, 48
2, 125036, Control_c, 0, 64, 34
2, 125051, Control_c, 0, 64, 29
2, 125056, Note_on_c, 0, 67, 59
2, 125060, Note_on_c, 0, 50, 0
2, 125073, Control_c, 0, 64, 32
2, 125082, Note_on_c, 0, 71, 58
2, 125092, Control_c, 0, 64, 40
2, 125110, Control_c, 0, 64, 52
2, 125131, Control_c, 0, 64, 62
2, 125131, Note_on_c, 0, 67, 0
2, 125149, Control_c, 0, 64, 65
2, 125168, Control_c, 0, 64, 68
2, 125186, Control_c, 0, 64, 70
2, 125206, Control_c, 0, 64, 72
2, 125228, Note_on_c, 0, 71, 0
2, 125246, Control_c, 0, 64, 71
2, 125262, Control_c, 0, 64, 69
2, 125282, Control_c, 0, 64, 67
2, 125321, Control_c, 0, 64, 66
2, 125343, Control_c, 0, 64, 65
2, 125343, Note_on_c, 0, 83, 80
2, 125359, Control_c, 0, 64, 63
2, 125378, Control_c, 0, 64, 60
2, 125397, Control_c, 0, 64, 55
2, 125419, Control_c, 0, 64, 49
2, 125435, Control_c, 0, 64, 41
2, 125439, Note_on_c, 0, 81, 84
2, 125455, Control_c, 0, 64, 23
2, 125474, Control_c, 0, 64, 0
2, 125490, Note_on_c, 0, 83, 0
2, 125545, Note_on_c, 0, 50, 71
2, 125545, Note_on_c, 0, 79, 92
2, 125550, Note_on_c, 0, 43, 0
2, 125579, Note_on_c, 0, 50, 0
2, 125585, Note_on_c, 0, 81, 0
2, 125649, Note_on_c, 0, 78, 95
2, 125686, Note_on_c, 0, 79, 0
2, 125763, Note_on_c, 0, 76, 95
2, 125777, Note_on_c, 0, 55, 74
2, 125796, Note_on_c, 0, 78, 0
2, 125811, Note_on_c, 0, 76, 0
2, 126005, Note_on_c, 0, 79, 93
2, 126035, Note_on_c, 0, 55, 0
2, 126047, Note_on_c, 0, 79, 0
2, 126229, Note_on_c, 0, 76, 90
2, 126241, Note_on_c, 0, 55, 74
2, 126274, Note_on_c, 0, 55, 0
2, 126278, Note_on_c, 0, 76, 0
2, 126491, Note_on_c, 0, 55, 61
2, 126500, Note_on_c, 0, 73, 82
2, 126511, Control_c, 0, 64, 22
2, 126533, Control_c, 0, 64, 51
2, 126550, Control_c, 0, 64, 70
2, 126569, Note_on_c, 0, 73, 0
2, 126574, Control_c, 0, 64, 90
2, 126587, Control_c, 0, 64, 127
2, 126683, Note_on_c, 0, 55, 0
2, 126773, Note_on_c, 0, 57, 78
2, 126800, Control_c, 0, 64, 116
2, 126820, Control_c, 0, 64, 87
2, 126840, Control_c, 0, 64, 70
2, 126858, Control_c, 0, 64, 60
2, 126862, Note_on_c, 0, 57, 0
2, 126866, Note_on_c, 0, 59, 79
2, 126877, Control_c, 0, 64, 49
2, 126895, Control_c, 0, 64, 38
2, 126915, Control_c, 0, 64, 30
2, 126933, Control_c, 0, 64, 24
2, 126955, Control_c, 0, 64, 15
2, 126973, Control_c, 0, 64, 0
2, 126977, Note_on_c, 0, 59, 0
2, 126982, Note_on_c, 0, 61, 67
2, 127065, Note_on_c, 0, 61, 0
2, 127083, Note_on_c, 0, 62, 70
2, 127196, Note_on_c, 0, 64, 80
2, 127200, Note_on_c, 0, 62, 0
2, 127228, Note_on_c, 0, 64, 0
2, 127435, Note_on_c, 0, 61, 70
2, 127439, Note_on_c, 0, 45, 65
2, 127468, Note_on_c, 0, 61, 0
2, 127491, Note_on_c, 0, 45, 0
2, 127535, Note_on_c, 0, 43, 66
2, 127627, Note_on_c, 0, 43, 0
2, 127638, Note_on_c, 0, 42, 71
2, 127644, Note_on_c, 0, 64, 83
2, 127694, Note_on_c, 0, 64, 0
2, 127723, Note_on_c, 0, 42, 0
2, 127752, Note_on_c, 0, 40, 61
2, 127887, Note_on_c, 0, 40, 0
2, 127887, Note_on_c, 0, 42, 67
2, 127906, Note_on_c, 0, 69, 76
2, 127953, Control_c, 0, 64, 13
2, 127970, Control_c, 0, 64, 29
2, 127990, Control_c, 0, 64, 38
2, 128008, Control_c, 0, 64, 43
2, 128026, Control_c, 0, 64, 46
2, 128045, Control_c, 0, 64, 47
2, 128086, Control_c, 0, 64, 46
2, 128124, Control_c, 0, 64, 45
2, 128144, Control_c, 0, 64, 44
2, 128155, Note_on_c, 0, 81, 82
2, 128162, Control_c, 0, 64, 42
2, 128182, Control_c, 0, 64, 40
2, 128182, Note_on_c, 0, 69, 0
2, 128200, Control_c, 0, 64, 37
2, 128221, Control_c, 0, 64, 28
2, 128238, Control_c, 0, 64, 0
2, 128257, Note_on_c, 0, 79, 78
2, 128369, Note_on_c, 0, 81, 0
2, 128373, Note_on_c, 0, 78, 94
2, 128384, Note_on_c, 0, 54, 68
2, 128395, Note_on_c, 0, 42, 0
2, 128418, Note_on_c, 0, 54, 0
2, 128447, Note_on_c, 0, 79, 0
2, 128485, Note_on_c, 0, 76, 93
2, 128543, Note_on_c, 0, 78, 0
2, 128607, Note_on_c, 0, 74, 88
2, 128613, Note_on_c, 0, 76, 0
2, 128635, Note_on_c, 0, 54, 69
2, 128652, Note_on_c, 0, 74, 0
2, 128852, Note_on_c, 0, 78, 85
2, 128895, Note_on_c, 0, 78, 0
2, 128900, Note_on_c, 0, 54, 0
2, 129091, Note_on_c, 0, 74, 83
2, 129121, Note_on_c, 0, 54, 60
2, 129134, Note_on_c, 0, 74, 0
2, 129148, Note_on_c, 0, 54, 0
2, 129353, Note_on_c, 0, 54, 58
2, 129357, Note_on_c, 0, 71, 77
2, 129374, Control_c, 0, 64, 21
2, 129390, Control_c, 0, 64, 50
2, 129410, Control_c, 0, 64, 68
2, 129432, Control_c, 0, 64, 76
2, 129432, Note_on_c, 0, 71, 0
2, 129454, Control_c, 0, 64, 91
2, 129468, Control_c, 0, 64, 98
2, 129488, Control_c, 0, 64, 109
2, 129508, Control_c, 0, 64, 115
2, 129528, Control_c, 0, 64, 113
2, 129546, Control_c, 0, 64, 105
2, 129570, Control_c, 0, 64, 102
2, 129570, Note_on_c, 0, 54, 0
2, 129588, Control_c, 0, 64, 100
2, 129607, Control_c, 0, 64, 98
2, 129623, Control_c, 0, 64, 93
2, 129627, Note_on_c, 0, 55, 78
2, 129645, Control_c, 0, 64, 86
2, 129662, Control_c, 0, 64, 78
2, 129684, Control_c, 0, 64, 70
2, 129700, Control_c, 0, 64, 64
2, 129721, Control_c, 0, 64, 59
2, 129725, Note_on_c, 0, 57, 89
2, 129739, Control_c, 0, 64, 54
2, 129755, Note_on_c, 0, 55, 0
2, 129759, Control_c, 0, 64, 51
2, 129778, Control_c, 0, 64, 47
2, 129796, Control_c, 0, 64, 42
2, 129815, Control_c, 0, 64, 28
2, 129833, Note_on_c, 0, 59, 86
2, 129838, Control_c, 0, 64, 0
2, 129875, Note_on_c, 0, 57, 0
2, 129929, Note_on_c, 0, 61, 77
2, 129971, Note_on_c, 0, 59, 0
2, 130061, Note_on_c, 0, 62, 95
2, 130099, Note_on_c, 0, 61, 0
2, 130312, Note_on_c, 0, 43, 83
2, 130312, Note_on_c, 0, 59, 81
2, 130325, Note_on_c, 0, 62, 0
2, 130341, Note_on_c, 0, 59, 0
2, 130411, Note_on_c, 0, 42, 86
2, 130420, Note_on_c, 0, 43, 0
2, 130530, Note_on_c, 0, 62, 86
2, 130539, Note_on_c, 0, 40, 80
2, 130553, Note_on_c, 0, 42, 0
2, 130573, Note_on_c, 0, 62, 0
2, 130640, Note_on_c, 0, 38, 86
2, 130645, Note_on_c, 0, 40, 0
2, 130779, Note_on_c, 0, 67, 94
2, 130783, Note_on_c, 0, 40, 77
2, 130794, Note_on_c, 0, 38, 0
2, 130890, Control_c, 0, 64, 18
2, 130903, Note_on_c, 0, 40, 0
2, 130909, Control_c, 0, 64, 30
2, 130929, Control_c, 0, 64, 43
2, 130949, Control_c, 0, 64, 49
2, 130968, Control_c, 0, 64, 48
2, 130988, Control_c, 0, 64, 47
2, 131025, Control_c, 0, 64, 46
2, 131046, Control_c, 0, 64, 45
2, 131049, Note_on_c, 0, 59, 83
2, 131064, Control_c, 0, 64, 44
2, 131123, Control_c, 0, 64, 45
2, 131141, Control_c, 0, 64, 46
2, 131147, Note_on_c, 0, 57, 83
2, 131162, Control_c, 0, 64, 48
2, 131162, Note_on_c, 0, 59, 0
2, 131179, Control_c, 0, 64, 49
2, 131199, Control_c, 0, 64, 53
2, 131214, Control_c, 0, 64, 58
2, 131234, Control_c, 0, 64, 60
2, 131261, Note_on_c, 0, 55, 88
2, 131261, Note_on_c, 0, 71, 85
2, 131263, Note_on_c, 0, 57, 0
2, 131274, Note_on_c, 0, 65, 62
2, 131275, Note_on_c, 0, 65, 0
2, 131320, Note_on_c, 0, 67, 0
2, 131325, Note_on_c, 0, 71, 0
2, 131331, Control_c, 0, 64, 59
2, 131361, Note_on_c, 0, 54, 81
2, 131367, Note_on_c, 0, 55, 0
2, 131427, Control_c, 0, 64, 58
2, 131463, Control_c, 0, 64, 57
2, 131483, Control_c, 0, 64, 56
2, 131498, Note_on_c, 0, 52, 84
2, 131505, Note_on_c, 0, 71, 92
2, 131509, Note_on_c, 0, 67, 78
2, 131518, Note_on_c, 0, 54, 0
2, 131523, Control_c, 0, 64, 55
2, 131560, Control_c, 0, 64, 53
2, 131574, Note_on_c, 0, 52, 0
2, 131582, Control_c, 0, 64, 49
2, 131599, Control_c, 0, 64, 39
2, 131619, Control_c, 0, 64, 25
2, 131639, Control_c, 0, 64, 16
2, 131696, Control_c, 0, 64, 18
2, 131716, Control_c, 0, 64, 21
2, 131735, Control_c, 0, 64, 26
2, 131754, Control_c, 0, 64, 32
2, 131758, Note_on_c, 0, 55, 83
2, 131772, Control_c, 0, 64, 38
2, 131791, Control_c, 0, 64, 49
2, 131811, Control_c, 0, 64, 58
2, 131830, Control_c, 0, 64, 60
2, 131839, Note_on_c, 0, 55, 0
2, 131877, Note_on_c, 0, 67, 0
2, 131888, Control_c, 0, 64, 61
2, 131909, Note_on_c, 0, 71, 0
2, 131925, Control_c, 0, 64, 60
2, 131985, Control_c, 0, 64, 59
2, 131985, Note_on_c, 0, 52, 83
2, 131991, Note_on_c, 0, 67, 91
2, 131996, Note_on_c, 0, 71, 93
2, 132002, Control_c, 0, 64, 58
2, 132023, Control_c, 0, 64, 57
2, 132041, Control_c, 0, 64, 56
2, 132048, Note_on_c, 0, 52, 0
2, 132081, Control_c, 0, 64, 54
2, 132099, Control_c, 0, 64, 52
2, 132119, Control_c, 0, 64, 47
2, 132138, Control_c, 0, 64, 40
2, 132138, Note_on_c, 0, 67, 0
2, 132159, Control_c, 0, 64, 30
2, 132177, Control_c, 0, 64, 20
2, 132194, Control_c, 0, 64, 0
2, 132246, Note_on_c, 0, 49, 91
2, 132251, Note_on_c, 0, 69, 87
2, 132255, Note_on_c, 0, 67, 84
2, 132286, Note_on_c, 0, 49, 0
2, 132298, Note_on_c, 0, 71, 0
2, 132495, Note_on_c, 0, 52, 84
2, 132530, Note_on_c, 0, 52, 0
2, 132724, Note_on_c, 0, 49, 75
2, 132770, Note_on_c, 0, 49, 0
2, 132975, Note_on_c, 0, 45, 81
2, 133015, Note_on_c, 0, 45, 0
2, 133148, Note_on_c, 0, 69, 0
2, 133219, Note_on_c, 0, 49, 65
2, 133230, Note_on_c, 0, 67, 0
2, 133266, Note_on_c, 0, 49, 0
2, 133267, Note_on_c, 0, 69, 42
2, 133354, Note_on_c, 0, 67, 65
2, 133369, Note_on_c, 0, 69, 0
2, 133434, Note_on_c, 0, 67, 0
2, 133447, Note_on_c, 0, 45, 56
2, 133447, Note_on_c, 0, 66, 68
2, 133487, Note_on_c, 0, 45, 0
2, 133511, Note_on_c, 0, 66, 0
2, 133548, Note_on_c, 0, 64, 63
2, 133675, Note_on_c, 0, 66, 68
2, 133683, Note_on_c, 0, 50, 58
2, 133694, Note_on_c, 0, 64, 0
2, 133725, Note_on_c, 0, 50, 0
2, 133913, Note_on_c, 0, 66, 0
2, 133920, Note_on_c, 0, 54, 65
2, 133920, Note_on_c, 0, 62, 68
2, 133959, Note_on_c, 0, 54, 0
2, 133986, Note_on_c, 0, 62, 0
2, 134024, Note_on_c, 0, 64, 66
2, 134104, Note_on_c, 0, 64, 0
2, 134131, Note_on_c, 0, 66, 64
2, 134139, Note_on_c, 0, 50, 50
2, 134177, Note_on_c, 0, 50, 0
2, 134186, Note_on_c, 0, 66, 0
2, 134230, Note_on_c, 0, 67, 66
2, 134363, Note_on_c, 0, 74, 82
2, 134368, Note_on_c, 0, 67, 0
2, 134372, Note_on_c, 0, 47, 52
2, 134390, Note_on_c, 0, 69, 63
2, 134419, Note_on_c, 0, 47, 0
2, 134572, Note_on_c, 0, 69, 0
2, 134621, Note_on_c, 0, 50, 58
2, 134626, Note_on_c, 0, 67, 65
2, 134662, Note_on_c, 0, 50, 0
2, 134700, Note_on_c, 0, 67, 0
2, 134733, Note_on_c, 0, 66, 61
2, 134839, Note_on_c, 0, 64, 70
2, 134844, Note_on_c, 0, 74, 0
2, 134853, Note_on_c, 0, 47, 61
2, 134882, Note_on_c, 0, 66, 0
2, 134895, Note_on_c, 0, 47, 0
2, 134951, Note_on_c, 0, 64, 0
2, 134966, Note_on_c, 0, 62, 67
2, 135085, Note_on_c, 0, 52, 75
2, 135085, Note_on_c, 0, 71, 96
2, 135108, Note_on_c, 0, 62, 0
2, 135114, Note_on_c, 0, 67, 74
2, 135123, Note_on_c, 0, 52, 0
2, 135327, Note_on_c, 0, 67, 0
2, 135341, Note_on_c, 0, 55, 75
2, 135341, Note_on_c, 0, 64, 82
2, 135378, Note_on_c, 0, 55, 0
2, 135449, Note_on_c, 0, 64, 0
2, 135449, Note_on_c, 0, 66, 82
2, 135549, Note_on_c, 0, 52, 71
2, 135569, Note_on_c, 0, 67, 86
2, 135578, Note_on_c, 0, 71, 0
2, 135588, Note_on_c, 0, 66, 0
2, 135593, Note_on_c, 0, 52, 0
2, 135674, Note_on_c, 0, 69, 90
2, 135692, Note_on_c, 0, 67, 0
2, 135793, Note_on_c, 0, 49, 73
2, 135797, Note_on_c, 0, 76, 101
2, 135815, Note_on_c, 0, 71, 85
2, 135828, Note_on_c, 0, 69, 0
2, 135855, Note_on_c, 0, 49, 0
2, 136064, Note_on_c, 0, 69, 81
2, 136073, Note_on_c, 0, 52, 66
2, 136077, Note_on_c, 0, 71, 0
2, 136118, Note_on_c, 0, 52, 0
2, 136158, Note_on_c, 0, 69, 0
2, 136169, Note_on_c, 0, 67, 82
2, 136268, Note_on_c, 0, 49, 58
2, 136291, Note_on_c, 0, 66, 82
2, 136299, Note_on_c, 0, 67, 0
2, 136312, Note_on_c, 0, 49, 0
2, 136401, Note_on_c, 0, 66, 0
2, 136405, Note_on_c, 0, 64, 83
2, 136533, Note_on_c, 0, 54, 69
2, 136533, Note_on_c, 0, 69, 79
2, 136596, Note_on_c, 0, 64, 0
2, 136688, Control_c, 0, 64, 20
2, 136708, Control_c, 0, 64, 45
2, 136708, Note_on_c, 0, 54, 0
2, 136724, Control_c, 0, 64, 52
2, 136764, Control_c, 0, 64, 51
2, 136773, Note_on_c, 0, 50, 78
2, 136803, Control_c, 0, 64, 50
2, 136820, Control_c, 0, 64, 49
2, 136839, Control_c, 0, 64, 47
2, 136862, Control_c, 0, 64, 45
2, 136879, Control_c, 0, 64, 41
2, 136883, Note_on_c, 0, 52, 80
2, 136887, Note_on_c, 0, 50, 0
2, 136899, Control_c, 0, 64, 37
2, 136917, Control_c, 0, 64, 33
2, 136936, Control_c, 0, 64, 29
2, 136956, Control_c, 0, 64, 25
2, 136973, Control_c, 0, 64, 19
2, 136978, Note_on_c, 0, 76, 0
2, 136983, Note_on_c, 0, 67, 80
2, 136996, Control_c, 0, 64, 13
2, 136996, Note_on_c, 0, 54, 85
2, 137005, Note_on_c, 0, 52, 0
2, 137017, Control_c, 0, 64, 10
2, 137033, Control_c, 0, 64, 8
2, 137050, Control_c, 0, 64, 0
2, 137054, Note_on_c, 0, 69, 0
2, 137096, Note_on_c, 0, 54, 0
2, 137096, Note_on_c, 0, 55, 83
2, 137227, Note_on_c, 0, 57, 79
2, 137238, Note_on_c, 0, 66, 88
2, 137243, Note_on_c, 0, 55, 0
2, 137243, Note_on_c, 0, 74, 94
2, 137301, Control_c, 0, 64, 8
2, 137315, Note_on_c, 0, 67, 0
2, 137323, Control_c, 0, 64, 13
2, 137340, Control_c, 0, 64, 18
2, 137361, Control_c, 0, 64, 23
2, 137378, Control_c, 0, 64, 26
2, 137378, Note_on_c, 0, 57, 0
2, 137398, Control_c, 0, 64, 28
2, 137417, Control_c, 0, 64, 29
2, 137493, Control_c, 0, 64, 28
2, 137500, Note_on_c, 0, 55, 76
2, 137512, Control_c, 0, 64, 26
2, 137531, Control_c, 0, 64, 24
2, 137553, Control_c, 0, 64, 23
2, 137569, Control_c, 0, 64, 21
2, 137590, Control_c, 0, 64, 18
2, 137598, Note_on_c, 0, 55, 0
2, 137609, Control_c, 0, 64, 8
2, 137613, Note_on_c, 0, 54, 71
2, 137629, Control_c, 0, 64, 0
2, 137702, Note_on_c, 0, 54, 0
2, 137729, Note_on_c, 0, 52, 68
2, 137729, Note_on_c, 0, 72, 80
2, 137809, Note_on_c, 0, 52, 0
2, 137818, Note_on_c, 0, 74, 0
2, 137824, Note_on_c, 0, 50, 65
2, 137976, Note_on_c, 0, 50, 0
2, 137978, Note_on_c, 0, 71, 79
2, 137983, Note_on_c, 0, 55, 67
2, 138038, Note_on_c, 0, 72, 0
2, 138099, Note_on_c, 0, 55, 0
2, 138241, Note_on_c, 0, 52, 59
2, 138320, Note_on_c, 0, 52, 0
2, 138337, Note_on_c, 0, 54, 63
2, 138432, Note_on_c, 0, 54, 0
2, 138460, Note_on_c, 0, 55, 61
2, 138478, Note_on_c, 0, 69, 64
2, 138487, Note_on_c, 0, 71, 0
2, 138538, Note_on_c, 0, 55, 0
2, 138586, Note_on_c, 0, 57, 59
2, 138705, Note_on_c, 0, 67, 65
2, 138719, Note_on_c, 0, 69, 0
2, 138724, Note_on_c, 0, 64, 61
2, 138728, Note_on_c, 0, 57, 0
2, 138728, Note_on_c, 0, 59, 64
2, 138766, Note_on_c, 0, 66, 0
2, 138812, Note_on_c, 0, 59, 0
2, 138994, Note_on_c, 0, 57, 63
2, 139053, Note_on_c, 0, 57, 0
2, 139100, Note_on_c, 0, 55, 56
2, 139173, Note_on_c, 0, 55, 0
2, 139182, Note_on_c, 0, 67, 0
2, 139195, Note_on_c, 0, 64, 0
2, 139208, Note_on_c, 0, 62, 55
2, 139215, Note_on_c, 0, 54, 65
2, 139274, Note_on_c, 0, 54, 0
2, 139320, Note_on_c, 0, 52, 59
2, 139416, Note_on_c, 0, 52, 0
2, 139441, Note_on_c, 0, 62, 0
2, 139461, Note_on_c, 0, 61, 56
2, 139468, Note_on_c, 0, 57, 65
2, 139529, Control_c, 0, 64, 42
2, 139548, Control_c, 0, 64, 60
2, 139567, Control_c, 0, 64, 64
2, 139573, Note_on_c, 0, 57, 0
2, 139682, Control_c, 0, 64, 63
2, 139714, Note_on_c, 0, 61, 0
2, 139721, Control_c, 0, 64, 62
2, 139730, Note_on_c, 0, 57, 61
2, 139761, Control_c, 0, 64, 61
2, 139782, Control_c, 0, 64, 60
2, 139782, Note_on_c, 0, 57, 0
2, 139798, Control_c, 0, 64, 58
2, 139816, Control_c, 0, 64, 55
2, 139825, Note_on_c, 0, 59, 62
2, 139837, Control_c, 0, 64, 51
2, 139855, Control_c, 0, 64, 46
2, 139873, Control_c, 0, 64, 40
2, 139895, Control_c, 0, 64, 35
2, 139915, Control_c, 0, 64, 32
2, 139915, Note_on_c, 0, 59, 0
2, 139919, Note_on_c, 0, 45, 65
2, 139935, Control_c, 0, 64, 30
2, 139935, Note_on_c, 0, 61, 65
2, 139949, Note_on_c, 0, 45, 0
2, 140005, Note_on_c, 0, 61, 0
2, 140042, Note_on_c, 0, 62, 73
2, 140087, Note_on_c, 0, 62, 0
2, 140163, Control_c, 0, 64, 31
2, 140174, Note_on_c, 0, 67, 74
2, 140176, Note_on_c, 0, 45, 65
2, 140181, Control_c, 0, 64, 33
2, 140185, Note_on_c, 0, 64, 67
2, 140200, Control_c, 0, 64, 35
2, 140220, Control_c, 0, 64, 37
2, 140238, Control_c, 0, 64, 41
2, 140248, Note_on_c, 0, 64, 0
2, 140256, Control_c, 0, 64, 48
2, 140278, Control_c, 0, 64, 60
2, 140298, Control_c, 0, 64, 65
2, 140334, Control_c, 0, 64, 66
2, 140353, Control_c, 0, 64, 67
2, 140394, Control_c, 0, 64, 66
2, 140394, Note_on_c, 0, 45, 0
2, 140411, Control_c, 0, 64, 65
2, 140424, Note_on_c, 0, 61, 74
2, 140458, Note_on_c, 0, 61, 0
2, 140471, Control_c, 0, 64, 64
2, 140528, Control_c, 0, 64, 63
2, 140544, Control_c, 0, 64, 62
2, 140564, Control_c, 0, 64, 60
2, 140584, Control_c, 0, 64, 58
2, 140607, Control_c, 0, 64, 56
2, 140622, Control_c, 0, 64, 53
2, 140644, Control_c, 0, 64, 50
2, 140663, Control_c, 0, 64, 45
2, 140663, Note_on_c, 0, 45, 78
2, 140671, Note_on_c, 0, 64, 84
2, 140671, Note_on_c, 0, 67, 0
2, 140679, Control_c, 0, 64, 39
2, 140699, Note_on_c, 0, 45, 0
2, 140704, Control_c, 0, 64, 32
2, 140719, Control_c, 0, 64, 29
2, 140921, Note_on_c, 0, 73, 97
2, 140932, Note_on_c, 0, 67, 78
2, 140934, Note_on_c, 0, 45, 78
2, 140973, Note_on_c, 0, 64, 0
2, 141026, Control_c, 0, 64, 28
2, 141162, Note_on_c, 0, 67, 0
2, 141170, Note_on_c, 0, 64, 79
2, 141234, Note_on_c, 0, 64, 0
2, 141239, Control_c, 0, 64, 29
2, 141296, Control_c, 0, 64, 30
2, 141334, Control_c, 0, 64, 31
2, 141351, Control_c, 0, 64, 32
2, 141371, Control_c, 0, 64, 33
2, 141391, Control_c, 0, 64, 35
2, 141404, Note_on_c, 0, 67, 88
2, 141414, Control_c, 0, 64, 36
2, 141428, Control_c, 0, 64, 37
2, 141450, Control_c, 0, 64, 38
2, 141468, Control_c, 0, 64, 40
2, 141474, Note_on_c, 0, 73, 0
2, 141487, Control_c, 0, 64, 43
2, 141505, Control_c, 0, 64, 50
2, 141525, Control_c, 0, 64, 57
2, 141547, Control_c, 0, 64, 58
2, 141664, Note_on_c, 0, 76, 102
2, 141686, Note_on_c, 0, 73, 77
2, 141697, Control_c, 0, 64, 57
2, 141750, Note_on_c, 0, 67, 0
2, 141757, Control_c, 0, 64, 56
2, 141797, Control_c, 0, 64, 55
2, 141832, Control_c, 0, 64, 54
2, 141869, Control_c, 0, 64, 53
2, 141890, Control_c, 0, 64, 52
2, 141909, Control_c, 0, 64, 51
2, 141909, Note_on_c, 0, 73, 0
2, 141922, Note_on_c, 0, 67, 79
2, 141927, Control_c, 0, 64, 49
2, 141949, Control_c, 0, 64, 46
2, 141966, Control_c, 0, 64, 43
2, 141966, Note_on_c, 0, 67, 0
2, 141986, Control_c, 0, 64, 38
2, 142005, Control_c, 0, 64, 34
2, 142024, Control_c, 0, 64, 32
2, 142041, Note_on_c, 0, 52, 89
2, 142046, Control_c, 0, 64, 31
2, 142051, Note_on_c, 0, 45, 0
2, 142085, Control_c, 0, 64, 30
2, 142149, Note_on_c, 0, 54, 88
2, 142156, Note_on_c, 0, 52, 0
2, 142156, Note_on_c, 0, 73, 78
2, 142194, Note_on_c, 0, 73, 0
2, 142199, Control_c, 0, 64, 29
2, 142256, Note_on_c, 0, 55, 90
2, 142265, Note_on_c, 0, 54, 0
2, 142311, Control_c, 0, 64, 28
2, 142390, Note_on_c, 0, 57, 92
2, 142394, Note_on_c, 0, 66, 88
2, 142408, Note_on_c, 0, 55, 0
2, 142412, Note_on_c, 0, 76, 0
2, 142428, Control_c, 0, 64, 27
2, 142670, Note_on_c, 0, 74, 85
2, 142718, Control_c, 0, 64, 28
2, 142734, Control_c, 0, 64, 30
2, 142756, Control_c, 0, 64, 32
2, 142773, Control_c, 0, 64, 33
2, 142785, Note_on_c, 0, 73, 75
2, 142812, Control_c, 0, 64, 34
2, 142869, Note_on_c, 0, 74, 0
2, 142875, Note_on_c, 0, 57, 0
2, 142880, Note_on_c, 0, 45, 66
2, 142882, Note_on_c, 0, 71, 77
2, 142925, Note_on_c, 0, 45, 0
2, 142965, Control_c, 0, 64, 33
2, 142991, Note_on_c, 0, 69, 74
2, 142991, Note_on_c, 0, 71, 0
2, 142991, Note_on_c, 0, 73, 0
2, 143009, Control_c, 0, 64, 32
2, 143009, Note_on_c, 0, 66, 0
2, 143020, Note_on_c, 0, 69, 0
2, 143025, Control_c, 0, 64, 31
2, 143041, Control_c, 0, 64, 29
2, 143062, Control_c, 0, 64, 22
2, 143082, Control_c, 0, 64, 0
2, 143113, Note_on_c, 0, 62, 88
2, 143121, Note_on_c, 0, 68, 74
2, 143126, Note_on_c, 0, 45, 62
2, 143155, Note_on_c, 0, 68, 0
2, 143358, Note_on_c, 0, 71, 80
2, 143405, Note_on_c, 0, 45, 0
2, 143433, Note_on_c, 0, 71, 0
2, 143599, Note_on_c, 0, 68, 78
2, 143616, Note_on_c, 0, 45, 62
2, 143641, Note_on_c, 0, 68, 0
2, 143645, Note_on_c, 0, 62, 0
2, 143659, Note_on_c, 0, 45, 0
2, 143841, Note_on_c, 0, 62, 72
2, 143850, Note_on_c, 0, 59, 60
2, 143857, Note_on_c, 0, 45, 57
2, 144099, Note_on_c, 0, 62, 0
2, 144099, Note_on_c, 0, 68, 69
2, 144149, Note_on_c, 0, 68, 0
2, 144341, Note_on_c, 0, 62, 64
2, 144370, Note_on_c, 0, 59, 0
2, 144397, Note_on_c, 0, 62, 0
2, 144586, Note_on_c, 0, 59, 66
2, 144610, Note_on_c, 0, 56, 55
2, 144826, Note_on_c, 0, 59, 0
2, 144833, Note_on_c, 0, 62, 63
2, 144878, Note_on_c, 0, 45, 0
2, 144887, Note_on_c, 0, 62, 0
2, 145088, Note_on_c, 0, 59, 50
2, 145148, Note_on_c, 0, 59, 0
2, 145175, Note_on_c, 0, 56, 0
2, 145332, Note_on_c, 0, 57, 55
2, 145332, Note_on_c, 0, 61, 52
2, 145598, Note_on_c, 0, 59, 64
2, 145616, Note_on_c, 0, 57, 0
2, 145635, Note_on_c, 0, 59, 0
2, 145641, Note_on_c, 0, 61, 0
2, 145718, Note_on_c, 0, 42, 70
2, 145808, Note_on_c, 0, 57, 62
2, 145819, Note_on_c, 0, 43, 74
2, 145823, Note_on_c, 0, 42, 0
2, 145828, Note_on_c, 0, 55, 57
2, 145869, Note_on_c, 0, 57, 0
2, 145873, Note_on_c, 0, 55, 0
2, 145913, Note_on_c, 0, 43, 0
2, 145924, Note_on_c, 0, 45, 76
2, 146015, Note_on_c, 0, 45, 0
2, 146051, Note_on_c, 0, 62, 83
2, 146060, Note_on_c, 0, 47, 83
2, 146060, Note_on_c, 0, 54, 77
2, 146104, Note_on_c, 0, 47, 0
2, 146240, Note_on_c, 0, 54, 0
2, 146255, Note_on_c, 0, 62, 0
2, 146309, Note_on_c, 0, 45, 79
2, 146351, Note_on_c, 0, 45, 0
2, 146549, Note_on_c, 0, 67, 74
2, 146561, Note_on_c, 0, 43, 63
2, 146561, Note_on_c, 0, 64, 69
2, 146602, Note_on_c, 0, 43, 0
2, 146829, Note_on_c, 0, 61, 60
2, 146841, Note_on_c, 0, 45, 63
2, 146841, Note_on_c, 0, 67, 0
2, 146897, Note_on_c, 0, 64, 0
2, 147083, Note_on_c, 0, 66, 64
2, 147136, Note_on_c, 0, 61, 0
2, 147189, Note_on_c, 0, 66, 0
2, 147194, Note_on_c, 0, 64, 69
2, 147321, Note_on_c, 0, 64, 0
2, 147323, Note_on_c, 0, 57, 66
2, 147323, Note_on_c, 0, 66, 71
2, 147329, Note_on_c, 0, 62, 62
2, 147347, Note_on_c, 0, 45, 0
2, 147356, Note_on_c, 0, 57, 0
2, 147593, Note_on_c, 0, 64, 71
2, 147607, Note_on_c, 0, 57, 70
2, 147819, Note_on_c, 0, 62, 0
2, 147823, Note_on_c, 0, 64, 0
2, 147837, Note_on_c, 0, 66, 0
2, 147861, Note_on_c, 0, 61, 69
2, 147873, Note_on_c, 0, 57, 0
2, 147937, Note_on_c, 0, 61, 0
2, 147993, Note_on_c, 0, 59, 57
2, 148058, Note_on_c, 0, 45, 65
2, 148063, Note_on_c, 0, 59, 0
2, 148067, Note_on_c, 0, 61, 71
2, 148081, Note_on_c, 0, 69, 57
2, 148096, Note_on_c, 0, 45, 0
2, 148141, Note_on_c, 0, 61, 0
2, 148366, Note_on_c, 0, 50, 59
2, 148370, Note_on_c, 0, 69, 0
2, 148375, Note_on_c, 0, 66, 74
2, 148423, Note_on_c, 0, 66, 0
2, 148488, Note_on_c, 0, 69, 85
2, 148598, Note_on_c, 0, 71, 83
2, 148624, Note_on_c, 0, 69, 0
2, 148708, Note_on_c, 0, 73, 88
2, 148727, Note_on_c, 0, 71, 0
2, 148810, Note_on_c, 0, 50, 0
2, 148810, Note_on_c, 0, 57, 85
2, 148826, Note_on_c, 0, 73, 0
2, 148826, Note_on_c, 0, 74, 90
2, 148837, Note_on_c, 0, 57, 0
2, 148936, Note_on_c, 0, 76, 90
2, 148948, Note_on_c, 0, 74, 0
2, 149064, Note_on_c, 0, 62, 100
2, 149064, Note_on_c, 0, 78, 91
2, 149078, Note_on_c, 0, 76, 0
2, 149196, Note_on_c, 0, 76, 90
2, 149234, Note_on_c, 0, 78, 0
2, 149303, Note_on_c, 0, 74, 83
2, 149309, Note_on_c, 0, 76, 0
2, 149403, Note_on_c, 0, 73, 88
2, 149414, Note_on_c, 0, 74, 0
2, 149515, Note_on_c, 0, 71, 87
2, 149530, Note_on_c, 0, 73, 0
2, 149616, Note_on_c, 0, 71, 0
2, 149625, Note_on_c, 0, 69, 81
2, 149747, Note_on_c, 0, 68, 91
2, 149784, Note_on_c, 0, 69, 0
2, 149987, Note_on_c, 0, 62, 0
2, 150005, Note_on_c, 0, 71, 84
2, 150010, Note_on_c, 0, 64, 75
2, 150019, Note_on_c, 0, 68, 0
2, 150035, Note_on_c, 0, 71, 0
2, 150086, Note_on_c, 0, 64, 0
2, 150105, Note_on_c, 0, 62, 78
2, 150205, Note_on_c, 0, 62, 0
2, 150220, Note_on_c, 0, 61, 74
2, 150224, Note_on_c, 0, 76, 96
2, 150252, Note_on_c, 0, 76, 0
2, 150308, Note_on_c, 0, 61, 0
2, 150333, Note_on_c, 0, 59, 75
2, 150478, Note_on_c, 0, 76, 97
2, 150493, Note_on_c, 0, 58, 69
2, 150493, Note_on_c, 0, 59, 0
2, 150711, Note_on_c, 0, 58, 0
2, 150722, Note_on_c, 0, 59, 78
2, 150733, Note_on_c, 0, 73, 89
2, 150795, Note_on_c, 0, 73, 0
2, 150830, Note_on_c, 0, 59, 0
2, 150843, Note_on_c, 0, 58, 78
2, 150950, Note_on_c, 0, 58, 0
2, 150959, Note_on_c, 0, 56, 74
2, 150977, Note_on_c, 0, 70, 69
2, 151010, Note_on_c, 0, 70, 0
2, 151053, Note_on_c, 0, 56, 0
2, 151065, Note_on_c, 0, 54, 69
2, 151195, Note_on_c, 0, 59, 76
2, 151233, Note_on_c, 0, 54, 0
2, 151293, Note_on_c, 0, 76, 0
2, 151313, Note_on_c, 0, 66, 77
2, 151431, Note_on_c, 0, 66, 0
2, 151431, Note_on_c, 0, 68, 77
2, 151541, Note_on_c, 0, 70, 71
2, 151547, Note_on_c, 0, 68, 0
2, 151626, Note_on_c, 0, 70, 0
2, 151650, Note_on_c, 0, 71, 78
2, 151662, Note_on_c, 0, 47, 69
2, 151666, Note_on_c, 0, 59, 0
2, 151702, Note_on_c, 0, 47, 0
2, 151754, Note_on_c, 0, 71, 0
2, 151766, Note_on_c, 0, 73, 78
2, 151871, Note_on_c, 0, 73, 0
2, 151893, Note_on_c, 0, 74, 75
2, 151913, Note_on_c, 0, 59, 86
2, 152020, Note_on_c, 0, 73, 75
2, 152031, Note_on_c, 0, 74, 0
2, 152135, Note_on_c, 0, 73, 0
2, 152139, Note_on_c, 0, 71, 71
2, 152247, Note_on_c, 0, 71, 0
2, 152249, Note_on_c, 0, 69, 71
2, 152340, Note_on_c, 0, 69, 0
2, 152362, Note_on_c, 0, 67, 74
2, 152444, Note_on_c, 0, 67, 0
2, 152470, Note_on_c, 0, 66, 76
2, 152598, Note_on_c, 0, 64, 72
2, 152610, Note_on_c, 0, 66, 0
2, 152806, Note_on_c, 0, 64, 0
2, 152815, Note_on_c, 0, 59, 0
2, 152827, Note_on_c, 0, 67, 73
2, 152859, Note_on_c, 0, 67, 0
2, 152863, Note_on_c, 0, 60, 61
2, 152911, Note_on_c, 0, 60, 0
2, 152933, Note_on_c, 0, 59, 68
2, 153040, Note_on_c, 0, 59, 0
2, 153060, Note_on_c, 0, 72, 80
2, 153063, Note_on_c, 0, 57, 66
2, 153090, Note_on_c, 0, 72, 0
2, 153127, Note_on_c, 0, 57, 0
2, 153165, Note_on_c, 0, 55, 63
2, 153308, Note_on_c, 0, 55, 0
2, 153314, Note_on_c, 0, 54, 61
2, 153325, Note_on_c, 0, 72, 72
2, 153337, Note_on_c, 0, 71, 76
2, 153484, Note_on_c, 0, 71, 0
2, 153539, Note_on_c, 0, 54, 0
2, 153560, Note_on_c, 0, 69, 73
2, 153571, Note_on_c, 0, 55, 71
2, 153638, Note_on_c, 0, 69, 0
2, 153681, Note_on_c, 0, 54, 77
2, 153681, Note_on_c, 0, 55, 0
2, 153785, Note_on_c, 0, 54, 0
2, 153799, Note_on_c, 0, 66, 76
2, 153801, Note_on_c, 0, 52, 78
2, 153829, Note_on_c, 0, 66, 0
2, 153887, Note_on_c, 0, 52, 0
2, 153904, Note_on_c, 0, 50, 80
2, 154046, Note_on_c, 0, 55, 86
2, 154109, Note_on_c, 0, 50, 0
2, 154163, Note_on_c, 0, 62, 85
2, 154169, Note_on_c, 0, 72, 0
2, 154276, Note_on_c, 0, 64, 88
2, 154293, Note_on_c, 0, 62, 0
2, 154376, Note_on_c, 0, 66, 86
2, 154410, Note_on_c, 0, 64, 0
2, 154494, Note_on_c, 0, 43, 85
2, 154500, Note_on_c, 0, 67, 90
2, 154514, Note_on_c, 0, 66, 0
2, 154579, Note_on_c, 0, 55, 0
2, 154606, Note_on_c, 0, 43, 0
2, 154622, Note_on_c, 0, 69, 86
2, 154639, Note_on_c, 0, 67, 0
2, 154744, Note_on_c, 0, 71, 89
2, 154764, Note_on_c, 0, 55, 88
2, 154764, Note_on_c, 0, 69, 0
2, 154872, Note_on_c, 0, 69, 85
2, 154872, Note_on_c, 0, 71, 0
2, 154980, Note_on_c, 0, 69, 0
2, 154984, Note_on_c, 0, 67, 83
2, 155088, Note_on_c, 0, 66, 84
2, 155097, Note_on_c, 0, 67, 0
2, 155208, Note_on_c, 0, 64, 78
2, 155208, Note_on_c, 0, 66, 0
2, 155288, Note_on_c, 0, 64, 0
2, 155299, Note_on_c, 0, 62, 76
2, 155447, Note_on_c, 0, 61, 82
2, 155476, Note_on_c, 0, 62, 0
2, 155522, Note_on_c, 0, 61, 0
2, 155662, Note_on_c, 0, 55, 0
2, 155694, Note_on_c, 0, 64, 71
2, 155703, Note_on_c, 0, 57, 71
2, 155727, Note_on_c, 0, 64, 0
2, 155778, Note_on_c, 0, 57, 0
2, 155793, Note_on_c, 0, 55, 76
2, 155916, Note_on_c, 0, 55, 0
2, 155920, Note_on_c, 0, 54, 75
2, 155923, Note_on_c, 0, 69, 75
2, 155927, Note_on_c, 0, 61, 77
2, 155960, Note_on_c, 0, 61, 0
2, 155971, Note_on_c, 0, 69, 0
2, 156022, Note_on_c, 0, 54, 0
2, 156037, Note_on_c, 0, 52, 75
2, 156184, Note_on_c, 0, 50, 78
2, 156184, Note_on_c, 0, 66, 81
2, 156190, Note_on_c, 0, 62, 80
2, 156194, Note_on_c, 0, 52, 0
2, 156386, Note_on_c, 0, 62, 0
2, 156424, Note_on_c, 0, 69, 88
2, 156431, Note_on_c, 0, 52, 82
2, 156444, Note_on_c, 0, 50, 0
2, 156464, Note_on_c, 0, 66, 0
2, 156545, Note_on_c, 0, 54, 88
2, 156556, Note_on_c, 0, 69, 0
2, 156560, Note_on_c, 0, 52, 0
2, 156665, Note_on_c, 0, 54, 0
2, 156667, Note_on_c, 0, 74, 94
2, 156671, Note_on_c, 0, 55, 86
2, 156673, Note_on_c, 0, 66, 88
2, 156714, Note_on_c, 0, 66, 0
2, 156721, Note_on_c, 0, 74, 0
2, 156767, Note_on_c, 0, 55, 0
2, 156781, Note_on_c, 0, 57, 87
2, 156908, Note_on_c, 0, 67, 95
2, 156914, Note_on_c, 0, 59, 96
2, 156956, Note_on_c, 0, 59, 0
2, 156966, Note_on_c, 0, 57, 0
2, 157184, Note_on_c, 0, 57, 86
2, 157184, Note_on_c, 0, 69, 93
2, 157220, Note_on_c, 0, 67, 0
2, 157246, Note_on_c, 0, 57, 0
2, 157323, Note_on_c, 0, 69, 0
2, 157464, Note_on_c, 0, 76, 95
2, 157473, Note_on_c, 0, 55, 86
2, 157477, Note_on_c, 0, 70, 59
2, 157482, Note_on_c, 0, 70, 0
2, 157482, Note_on_c, 0, 71, 87
2, 157572, Note_on_c, 0, 55, 0
2, 157580, Note_on_c, 0, 76, 0
2, 157691, Note_on_c, 0, 71, 0
2, 157794, Note_on_c, 0, 69, 84
2, 157799, Note_on_c, 0, 57, 88
2, 157804, Note_on_c, 0, 66, 92
2, 157958, Control_c, 0, 64, 12
2, 157978, Control_c, 0, 64, 37
2, 157995, Control_c, 0, 64, 54
2, 158015, Control_c, 0, 64, 63
2, 158033, Control_c, 0, 64, 66
2, 158051, Control_c, 0, 64, 70
2, 158072, Control_c, 0, 64, 79
2, 158092, Note_on_c, 0, 57, 0
2, 158096, Control_c, 0, 64, 98
2, 158112, Control_c, 0, 64, 127
2, 158131, Note_on_c, 0, 74, 91
2, 158204, Note_on_c, 0, 69, 0
2, 158252, Note_on_c, 0, 74, 0
2, 158310, Note_on_c, 0, 66, 0
2, 158512, Note_on_c, 0, 45, 80
2, 158519, Note_on_c, 0, 73, 96
2, 158523, Note_on_c, 0, 64, 85
2, 158523, Note_on_c, 0, 67, 84
2, 158534, Control_c, 0, 64, 104
2, 158553, Control_c, 0, 64, 84
2, 158573, Control_c, 0, 64, 69
2, 158591, Control_c, 0, 64, 55
2, 158609, Control_c, 0, 64, 35
2, 158630, Control_c, 0, 64, 12
2, 158650, Control_c, 0, 64, 11
2, 158687, Control_c, 0, 64, 13
2, 158705, Control_c, 0, 64, 18
2, 158725, Control_c, 0, 64, 26
2, 158742, Control_c, 0, 64, 35
2, 158762, Control_c, 0, 64, 51
2, 158783, Control_c, 0, 64, 64
2, 158801, Control_c, 0, 64, 69
2, 158819, Control_c, 0, 64, 78
2, 158833, Note_on_c, 0, 73, 0
2, 158841, Control_c, 0, 64, 87
2, 158854, Note_on_c, 0, 67, 0
2, 158861, Control_c, 0, 64, 99
2, 158879, Control_c, 0, 64, 107
2, 158895, Control_c, 0, 64, 111
2, 158936, Control_c, 0, 64, 110
2, 158954, Control_c, 0, 64, 106
2, 158970, Note_on_c, 0, 74, 97
2, 158979, Control_c, 0, 64, 102
2, 158979, Note_on_c, 0, 38, 81
2, 158979, Note_on_c, 0, 66, 85
2, 158995, Control_c, 0, 64, 94
2, 159012, Control_c, 0, 64, 85
2, 159032, Control_c, 0, 64, 73
2, 159053, Control_c, 0, 64, 64
2, 159070, Control_c, 0, 64, 57
2, 159089, Control_c, 0, 64, 51
2, 159097, Note_on_c, 0, 64, 0
2, 159110, Control_c, 0, 64, 48
2, 159119, Note_on_c, 0, 45, 0
2, 159128, Control_c, 0, 64, 45
2, 159148, Control_c, 0, 64, 39
2, 159166, Control_c, 0, 64, 30
2, 159187, Control_c, 0, 64, 0
2, 159361, Note_on_c, 0, 69, 82
2, 159490, Note_on_c, 0, 66, 0
2, 159773, Note_on_c, 0, 66, 83
2, 160373, Note_on_c, 0, 62, 78
2, 161416, Control_c, 0, 64, 13
2, 161434, Control_c, 0, 64, 18
2, 161454, Control_c, 0, 64, 23
2, 161474, Control_c, 0, 64, 28
2, 161491, Control_c, 0, 64, 35
2, 161511, Control_c, 0, 64, 43
2, 161529, Control_c, 0, 64, 49
2, 161549, Control_c, 0, 64, 51
2, 161568, Control_c, 0, 64, 52
2, 161607, Control_c, 0, 64, 54
2, 161627, Control_c, 0, 64, 57
2, 161645, Control_c, 0, 64, 58
2, 161666, Control_c, 0, 64, 59
2, 161685, Control_c, 0, 64, 60
2, 161704, Control_c, 0, 64, 61
2, 161722, Control_c, 0, 64, 62
2, 161743, Control_c, 0, 64, 63
2, 161763, Control_c, 0, 64, 64
2, 161781, Control_c, 0, 64, 65
2, 161799, Control_c, 0, 64, 66
2, 161821, Control_c, 0, 64, 68
2, 161838, Control_c, 0, 64, 72
2, 161857, Control_c, 0, 64, 76
2, 161876, Control_c, 0, 64, 81
2, 161895, Control_c, 0, 64, 86
2, 161915, Control_c, 0, 64, 90
2, 161934, Control_c, 0, 64, 95
2, 161954, Control_c, 0, 64, 102
2, 161973, Control_c, 0, 64, 111
2, 161990, Control_c, 0, 64, 127
2, 162115, Note_on_c, 0, 74, 0
2, 162218, Note_on_c, 0, 62, 0
2, 162334, Note_on_c, 0, 66, 0
2, 162363, Note_on_c, 0, 69, 0
2, 162413, Control_c, 0, 64, 122
2, 162432, Control_c, 0, 64, 120
2, 162453, Control_c, 0, 64, 115
2, 162474, Control_c, 0, 64, 111
2, 162491, Control_c, 0, 64, 107
2, 162505, Note_on_c, 0, 38, 0
2, 162509, Control_c, 0, 64, 103
2, 162528, Control_c, 0, 64, 99
2, 162550, Control_c, 0, 64, 97
2, 162567, Control_c, 0, 64, 96
2, 162586, Control_c, 0, 64, 94
2, 162606, Control_c, 0, 64, 90
2, 162625, Control_c, 0, 64, 87
2, 162646, Control_c, 0, 64, 85
2, 162664, Control_c, 0, 64, 83
2, 162682, Control_c, 0, 64, 81
2, 162702, Control_c, 0, 64, 77
2, 162724, Control_c, 0, 64, 73
2, 162740, Control_c, 0, 64, 70
2, 162758, Control_c, 0, 64, 67
2, 162780, Control_c, 0, 64, 66
2, 162798, Control_c, 0, 64, 64
2, 162818, Control_c, 0, 64, 62
2, 162836, Control_c, 0, 64, 60
2, 162855, Control_c, 0, 64, 59
2, 162913, Control_c, 0, 64, 58
2, 162951, Control_c, 0, 64, 56
2, 162971, Control_c, 0, 64, 55
2, 162990, Control_c, 0, 64, 53
2, 163009, Control_c, 0, 64, 52
2, 163066, Control_c, 0, 64, 51
2, 163085, Control_c, 0, 64, 49
2, 163103, Control_c, 0, 64, 47
2, 163585, Control_c, 0, 64, 48
2, 163641, Control_c, 0, 64, 49
2, 163698, Control_c, 0, 64, 50
2, 163759, Control_c, 0, 64, 51
2, 163988, Control_c, 0, 67, 8
2, 164008, Control_c, 0, 67, 12
2, 164030, Control_c, 0, 67, 16
2, 164045, Control_c, 0, 67, 19
2, 164064, Control_c, 0, 67, 23
2, 164083, Control_c, 0, 67, 26
2, 164103, Control_c, 0, 67, 30
2, 164122, Control_c, 0, 67, 33
2, 164141, Control_c, 0, 67, 37
2, 164161, Control_c, 0, 67, 41
2, 164180, Control_c, 0, 67, 45
2, 164200, Control_c, 0, 67, 49
2, 164220, Control_c, 0, 67, 55
2, 164238, Control_c, 0, 67, 60
2, 164259, Control_c, 0, 67, 66
2, 164277, Control_c, 0, 67, 71
2, 164296, Control_c, 0, 67, 76
2, 164316, Control_c, 0, 67, 81
2, 164334, Control_c, 0, 67, 87
2, 164354, Control_c, 0, 67, 95
2, 164371, Control_c, 0, 67, 102
2, 164392, Control_c, 0, 67, 108
2, 164410, Control_c, 0, 67, 114
2, 164430, Control_c, 0, 67, 120
2, 164450, Control_c, 0, 67, 127
2, 164601, Control_c, 0, 64, 52
2, 164683, Control_c, 0, 64, 53
2, 164737, Control_c, 0, 64, 54
2, 164796, Control_c, 0, 64, 55
2, 164813, Control_c, 0, 64, 56
2, 164833, Control_c, 0, 64, 57
2, 164852, Control_c, 0, 64, 58
2, 164966, Control_c, 0, 64, 59
2, 165024, Control_c, 0, 64, 58
2, 165122, Control_c, 0, 64, 59
2, 165178, Control_c, 0, 64, 60
2, 165216, Control_c, 0, 64, 61
2, 165255, Control_c, 0, 64, 62
2, 165292, Control_c, 0, 64, 63
2, 165333, Control_c, 0, 64, 64
2, 165369, Control_c, 0, 64, 65
2, 165466, Control_c, 0, 64, 66
2, 165489, Control_c, 0, 64, 67
2, 165582, Control_c, 0, 64, 68
2, 165602, Control_c, 0, 64, 69
2, 165621, Control_c, 0, 64, 70
2, 165641, Control_c, 0, 64, 71
2, 165659, Control_c, 0, 64, 72
2, 165679, Control_c, 0, 64, 73
2, 165698, Control_c, 0, 64, 74
2, 165718, Control_c, 0, 64, 75
2, 165735, Control_c, 0, 64, 76
2, 165755, Control_c, 0, 64, 78
2, 165775, Control_c, 0, 64, 81
2, 165794, Control_c, 0, 64, 83
2, 165812, Control_c, 0, 64, 85
2, 165831, Control_c, 0, 64, 87
2, 165852, Control_c, 0, 64, 89
2, 165870, Control_c, 0, 64, 91
2, 165888, Control_c, 0, 64, 92
2, 165911, Control_c, 0, 64, 94
2, 165928, Control_c, 0, 64, 97
2, 165948, Control_c, 0, 64, 100
2, 165965, Control_c, 0, 64, 102
2, 165986, Control_c, 0, 64, 104
2, 166003, Control_c, 0, 64, 107
2, 166024, Control_c, 0, 64, 111
2, 166044, Control_c, 0, 64, 115
2, 166063, Control_c, 0, 64, 120
2, 166081, Control_c, 0, 64, 127
2, 168189,End_track
0, 0, End_of_file
