0, 0, Header, 1, 2, 480
1, 0, Start_track
1, 0, Tempo, 500000
1, 0, Time_signature, 4, 2, 24, 8
1, 1, End_track
2,0,Start_track
2,0, Note_on_c, 0, 62, 42
2,349, Note_on_c, 0, 62, 0
2,516, Note_on_c, 0, 62, 52
2,745, Note_on_c, 0, 62, 0
2,995, Note_on_c, 0, 62, 55
2,1215, Control_c, 0, 64, 120
2,1234, Control_c, 0, 64, 113
2,1252, Control_c, 0, 64, 110
2,1271, Control_c, 0, 64, 109
2,1290, Control_c, 0, 64, 108
2,1309, Control_c, 0, 64, 106
2,1329, Control_c, 0, 64, 103
2,1348, Control_c, 0, 64, 101
2,1368, Control_c, 0, 64, 97
2,1385, Control_c, 0, 64, 92
2,1405, Control_c, 0, 64, 87
2,1425, Control_c, 0, 64, 83
2,1447, Control_c, 0, 64, 82
2,1466, Control_c, 0, 64, 80
2,1481, Control_c, 0, 64, 78
2,1501, Control_c, 0, 64, 74
2,1522, Note_on_c, 0, 55, 50
2,1524, Control_c, 0, 64, 71
2,1539, Control_c, 0, 64, 68
2,1558, Control_c, 0, 64, 65
2,1578, Control_c, 0, 64, 64
2,1597, Control_c, 0, 64, 63
2,1655, Control_c, 0, 64, 62
2,1675, Control_c, 0, 64, 60
2,1693, Control_c, 0, 64, 59
2,1714, Control_c, 0, 64, 58
2,1734, Control_c, 0, 64, 57
2,1750, Control_c, 0, 64, 56
2,1792, Control_c, 0, 64, 55
2,1810, Control_c, 0, 64, 54
2,1827, Control_c, 0, 64, 52
2,1847, Control_c, 0, 64, 51
2,1869, Control_c, 0, 64, 50
2,1885, Control_c, 0, 64, 49
2,1907, Control_c, 0, 64, 48
2,1922, Control_c, 0, 64, 46
2,1943, Control_c, 0, 64, 44
2,1963, Control_c, 0, 64, 42
2,1980, Control_c, 0, 64, 41
2,2000, Control_c, 0, 64, 39
2,2019, Control_c, 0, 64, 38
2,2024, Note_on_c, 0, 62, 0
2,2040, Control_c, 0, 64, 36
2,2056, Control_c, 0, 64, 35
2,2078, Control_c, 0, 64, 33
2,2098, Control_c, 0, 64, 29
2,2116, Control_c, 0, 64, 26
2,2135, Control_c, 0, 64, 25
2,2346, Control_c, 0, 64, 24
2,2481, Control_c, 0, 64, 23
2,2510, Note_on_c, 0, 59, 57
2,2542, Control_c, 0, 64, 22
2,2578, Control_c, 0, 64, 21
2,2615, Control_c, 0, 64, 20
2,2709, Control_c, 0, 64, 19
2,2732, Control_c, 0, 64, 18
2,2750, Control_c, 0, 64, 17
2,2786, Control_c, 0, 64, 16
2,2808, Control_c, 0, 64, 14
2,2825, Control_c, 0, 64, 13
2,2845, Control_c, 0, 64, 12
2,2864, Control_c, 0, 64, 11
2,2923, Control_c, 0, 64, 10
2,2952, Note_on_c, 0, 55, 0
2,2979, Control_c, 0, 64, 9
2,3055, Control_c, 0, 64, 8
2,3133, Control_c, 0, 64, 0
2,3932, Note_on_c, 0, 52, 44
2,4264, Note_on_c, 0, 59, 0
2,4422, Note_on_c, 0, 57, 53
2,4650, Note_on_c, 0, 52, 0
2,4876, Note_on_c, 0, 55, 51
2,5137, Note_on_c, 0, 57, 0
2,5339, Note_on_c, 0, 54, 43
2,5490, Note_on_c, 0, 55, 0
2,5594, Control_c, 0, 64, 8
2,5631, Control_c, 0, 64, 9
2,5651, Control_c, 0, 64, 10
2,5690, Control_c, 0, 64, 11
2,5708, Control_c, 0, 64, 12
2,5727, Control_c, 0, 64, 13
2,5747, Control_c, 0, 64, 15
2,5765, Control_c, 0, 64, 16
2,5785, Control_c, 0, 64, 17
2,5789, Note_on_c, 0, 69, 47
2,5807, Control_c, 0, 64, 19
2,5825, Control_c, 0, 64, 22
2,5844, Control_c, 0, 64, 25
2,5862, Control_c, 0, 64, 28
2,5880, Control_c, 0, 64, 33
2,5901, Control_c, 0, 64, 45
2,5919, Control_c, 0, 64, 55
2,5939, Control_c, 0, 64, 60
2,5977, Control_c, 0, 64, 61
2,5997, Control_c, 0, 64, 63
2,6016, Control_c, 0, 64, 65
2,6034, Control_c, 0, 64, 68
2,6052, Control_c, 0, 64, 74
2,6073, Control_c, 0, 64, 82
2,6092, Control_c, 0, 64, 91
2,6105, Note_on_c, 0, 69, 0
2,6114, Control_c, 0, 64, 94
2,6188, Control_c, 0, 64, 93
2,6227, Control_c, 0, 64, 92
2,6245, Control_c, 0, 64, 90
2,6251, Note_on_c, 0, 69, 62
2,6265, Control_c, 0, 64, 88
2,6269, Note_on_c, 0, 50, 38
2,6284, Control_c, 0, 64, 85
2,6307, Control_c, 0, 64, 81
2,6322, Control_c, 0, 64, 75
2,6341, Control_c, 0, 64, 70
2,6359, Control_c, 0, 64, 64
2,6381, Control_c, 0, 64, 56
2,6399, Control_c, 0, 64, 48
2,6418, Control_c, 0, 64, 44
2,6440, Control_c, 0, 64, 43
2,6476, Control_c, 0, 64, 44
2,6483, Note_on_c, 0, 54, 0
2,6496, Control_c, 0, 64, 46
2,6514, Control_c, 0, 64, 51
2,6535, Control_c, 0, 64, 58
2,6553, Control_c, 0, 64, 63
2,6565, Note_on_c, 0, 69, 0
2,6574, Control_c, 0, 64, 64
2,6591, Control_c, 0, 64, 67
2,6613, Control_c, 0, 64, 71
2,6629, Control_c, 0, 64, 79
2,6648, Control_c, 0, 64, 88
2,6668, Control_c, 0, 64, 93
2,6687, Control_c, 0, 64, 95
2,6699, Note_on_c, 0, 69, 63
2,6709, Control_c, 0, 64, 100
2,6727, Control_c, 0, 64, 103
2,6782, Control_c, 0, 64, 102
2,6822, Control_c, 0, 64, 100
2,6840, Control_c, 0, 64, 98
2,6860, Control_c, 0, 64, 95
2,6882, Control_c, 0, 64, 91
2,6899, Control_c, 0, 64, 87
2,6918, Control_c, 0, 64, 82
2,6937, Control_c, 0, 64, 80
2,6955, Control_c, 0, 64, 79
2,6977, Control_c, 0, 64, 77
2,6994, Control_c, 0, 64, 75
2,7014, Control_c, 0, 64, 73
2,7036, Control_c, 0, 64, 70
2,7055, Control_c, 0, 64, 68
2,7071, Control_c, 0, 64, 67
2,7091, Control_c, 0, 64, 66
2,7123, Note_on_c, 0, 50, 0
2,7129, Control_c, 0, 64, 65
2,7162, Note_on_c, 0, 62, 62
2,7167, Control_c, 0, 64, 64
2,7189, Control_c, 0, 64, 63
2,7224, Control_c, 0, 64, 62
2,7243, Control_c, 0, 64, 61
2,7264, Control_c, 0, 64, 60
2,7283, Control_c, 0, 64, 59
2,7340, Control_c, 0, 64, 58
2,7360, Control_c, 0, 64, 56
2,7379, Note_on_c, 0, 69, 0
2,7384, Control_c, 0, 64, 55
2,7397, Control_c, 0, 64, 54
2,7417, Control_c, 0, 64, 53
2,7456, Control_c, 0, 64, 52
2,7477, Control_c, 0, 64, 51
2,7512, Control_c, 0, 64, 50
2,7571, Control_c, 0, 64, 49
2,7584, Note_on_c, 0, 54, 44
2,7608, Control_c, 0, 64, 48
2,7631, Control_c, 0, 64, 47
2,7647, Control_c, 0, 64, 46
2,7703, Control_c, 0, 64, 45
2,8050, Note_on_c, 0, 66, 66
2,8054, Note_on_c, 0, 59, 43
2,8204, Note_on_c, 0, 54, 0
2,8276, Note_on_c, 0, 62, 0
2,8375, Control_c, 0, 64, 44
2,8415, Control_c, 0, 64, 43
2,8452, Control_c, 0, 64, 42
2,8480, Note_on_c, 0, 57, 50
2,8492, Control_c, 0, 64, 41
2,8568, Control_c, 0, 64, 40
2,8644, Note_on_c, 0, 59, 0
2,8928, Note_on_c, 0, 56, 45
2,9049, Control_c, 0, 64, 39
2,9113, Note_on_c, 0, 57, 0
2,9361, Note_on_c, 0, 59, 46
2,9607, Note_on_c, 0, 66, 0
2,9817, Note_on_c, 0, 64, 50
2,10008, Note_on_c, 0, 59, 0
2,10245, Note_on_c, 0, 62, 52
2,10444, Note_on_c, 0, 64, 0
2,10679, Note_on_c, 0, 57, 42
2,10696, Note_on_c, 0, 61, 47
2,10792, Note_on_c, 0, 62, 0
2,10927, Note_on_c, 0, 56, 0
2,10929, Control_c, 0, 64, 40
2,11084, Control_c, 0, 64, 41
2,11129, Note_on_c, 0, 64, 59
2,11325, Note_on_c, 0, 61, 0
2,11567, Note_on_c, 0, 69, 65
2,11583, Note_on_c, 0, 61, 48
2,11779, Note_on_c, 0, 64, 0
2,11902, Note_on_c, 0, 57, 0
2,12011, Note_on_c, 0, 67, 68
2,12188, Note_on_c, 0, 69, 0
2,12254, Control_c, 0, 67, 125
2,12273, Control_c, 0, 67, 118
2,12292, Control_c, 0, 67, 111
2,12310, Control_c, 0, 67, 107
2,12328, Control_c, 0, 67, 102
2,12350, Control_c, 0, 67, 94
2,12370, Control_c, 0, 67, 83
2,12386, Control_c, 0, 67, 72
2,12406, Control_c, 0, 67, 60
2,12426, Control_c, 0, 67, 49
2,12445, Control_c, 0, 67, 40
2,12461, Note_on_c, 0, 66, 65
2,12465, Control_c, 0, 67, 34
2,12483, Control_c, 0, 67, 32
2,12496, Note_on_c, 0, 61, 0
2,12594, Note_on_c, 0, 67, 0
2,12638, Control_c, 0, 67, 31
2,12809, Control_c, 0, 67, 32
2,12883, Note_on_c, 0, 57, 47
2,12945, Control_c, 0, 67, 33
2,13311, Control_c, 0, 67, 34
2,13327, Note_on_c, 0, 69, 64
2,13344, Note_on_c, 0, 62, 41
2,13426, Control_c, 0, 67, 35
2,13562, Note_on_c, 0, 66, 0
2,13591, Note_on_c, 0, 57, 0
2,13810, Note_on_c, 0, 61, 45
2,13998, Note_on_c, 0, 62, 0
2,14211, Note_on_c, 0, 59, 49
2,14351, Note_on_c, 0, 61, 0
2,14635, Control_c, 0, 64, 42
2,14644, Note_on_c, 0, 74, 71
2,14667, Note_on_c, 0, 62, 38
2,14710, Control_c, 0, 64, 43
2,14749, Control_c, 0, 64, 44
2,14771, Control_c, 0, 64, 45
2,14787, Control_c, 0, 64, 46
2,14807, Control_c, 0, 64, 49
2,14827, Control_c, 0, 64, 54
2,14845, Control_c, 0, 64, 60
2,14864, Control_c, 0, 64, 61
2,14882, Control_c, 0, 64, 62
2,14902, Control_c, 0, 64, 64
2,14922, Control_c, 0, 64, 67
2,14941, Control_c, 0, 64, 72
2,14963, Control_c, 0, 64, 79
2,14963, Note_on_c, 0, 74, 0
2,14980, Control_c, 0, 64, 86
2,14999, Control_c, 0, 64, 94
2,15017, Control_c, 0, 64, 99
2,15038, Control_c, 0, 64, 103
2,15092, Note_on_c, 0, 74, 83
2,15116, Control_c, 0, 64, 102
2,15120, Note_on_c, 0, 67, 45
2,15153, Control_c, 0, 64, 101
2,15172, Control_c, 0, 64, 99
2,15193, Control_c, 0, 64, 98
2,15209, Control_c, 0, 64, 96
2,15230, Control_c, 0, 64, 94
2,15245, Note_on_c, 0, 62, 0
2,15250, Control_c, 0, 64, 93
2,15268, Control_c, 0, 64, 92
2,15306, Control_c, 0, 64, 91
2,15356, Note_on_c, 0, 74, 0
2,15363, Control_c, 0, 64, 90
2,15381, Control_c, 0, 64, 89
2,15402, Control_c, 0, 64, 88
2,15421, Control_c, 0, 64, 87
2,15458, Control_c, 0, 64, 86
2,15480, Control_c, 0, 64, 85
2,15499, Control_c, 0, 64, 83
2,15517, Control_c, 0, 64, 81
2,15538, Note_on_c, 0, 66, 54
2,15538, Note_on_c, 0, 74, 81
2,15542, Control_c, 0, 64, 78
2,15547, Note_on_c, 0, 67, 0
2,15556, Control_c, 0, 64, 74
2,15574, Control_c, 0, 64, 71
2,15593, Control_c, 0, 64, 68
2,15615, Control_c, 0, 64, 66
2,15632, Control_c, 0, 64, 65
2,15652, Control_c, 0, 64, 64
2,15747, Control_c, 0, 64, 63
2,15804, Control_c, 0, 64, 62
2,15825, Control_c, 0, 64, 61
2,15842, Control_c, 0, 64, 60
2,15903, Control_c, 0, 64, 59
2,15956, Control_c, 0, 64, 58
2,15994, Note_on_c, 0, 67, 79
2,15998, Control_c, 0, 64, 57
2,16021, Note_on_c, 0, 64, 50
2,16037, Control_c, 0, 64, 56
2,16056, Control_c, 0, 64, 55
2,16075, Control_c, 0, 64, 52
2,16082, Note_on_c, 0, 69, 0
2,16092, Control_c, 0, 64, 50
2,16112, Control_c, 0, 64, 47
2,16132, Control_c, 0, 64, 45
2,16145, Note_on_c, 0, 66, 0
2,16189, Control_c, 0, 64, 46
2,16226, Note_on_c, 0, 59, 0
2,16230, Control_c, 0, 64, 47
2,16305, Control_c, 0, 64, 48
2,16381, Control_c, 0, 64, 49
2,16399, Control_c, 0, 64, 50
2,16420, Control_c, 0, 64, 51
2,16441, Control_c, 0, 64, 52
2,16452, Note_on_c, 0, 59, 48
2,16457, Note_on_c, 0, 66, 61
2,16459, Control_c, 0, 64, 54
2,16478, Control_c, 0, 64, 56
2,16496, Control_c, 0, 64, 57
2,16516, Control_c, 0, 64, 59
2,16533, Control_c, 0, 64, 60
2,16553, Control_c, 0, 64, 61
2,16573, Control_c, 0, 64, 63
2,16593, Control_c, 0, 64, 64
2,16604, Note_on_c, 0, 74, 0
2,16610, Control_c, 0, 64, 65
2,16630, Control_c, 0, 64, 68
2,16650, Control_c, 0, 64, 72
2,16669, Control_c, 0, 64, 78
2,16689, Control_c, 0, 64, 85
2,16709, Control_c, 0, 64, 88
2,16718, Note_on_c, 0, 64, 0
2,16762, Note_on_c, 0, 67, 0
2,16823, Control_c, 0, 64, 87
2,16862, Control_c, 0, 64, 85
2,16880, Control_c, 0, 64, 84
2,16901, Control_c, 0, 64, 82
2,16901, Note_on_c, 0, 71, 84
2,16923, Control_c, 0, 64, 80
2,16923, Note_on_c, 0, 64, 52
2,16943, Control_c, 0, 64, 78
2,16943, Note_on_c, 0, 67, 58
2,16957, Control_c, 0, 64, 77
2,16978, Control_c, 0, 64, 74
2,16996, Control_c, 0, 64, 70
2,17016, Control_c, 0, 64, 66
2,17036, Control_c, 0, 64, 63
2,17048, Note_on_c, 0, 66, 0
2,17053, Control_c, 0, 64, 62
2,17073, Control_c, 0, 64, 61
2,17092, Control_c, 0, 64, 60
2,17130, Control_c, 0, 64, 59
2,17148, Control_c, 0, 64, 58
2,17167, Control_c, 0, 64, 57
2,17178, Note_on_c, 0, 59, 0
2,17284, Control_c, 0, 64, 56
2,17358, Note_on_c, 0, 62, 63
2,17381, Control_c, 0, 64, 55
2,17417, Control_c, 0, 64, 54
2,17494, Control_c, 0, 64, 53
2,17555, Note_on_c, 0, 64, 0
2,17803, Note_on_c, 0, 61, 58
2,17821, Control_c, 0, 64, 54
2,17870, Note_on_c, 0, 62, 0
2,18168, Control_c, 0, 64, 55
2,18243, Note_on_c, 0, 57, 66
2,18264, Control_c, 0, 64, 56
2,18293, Note_on_c, 0, 64, 47
2,18320, Control_c, 0, 64, 57
2,18359, Control_c, 0, 64, 58
2,18378, Control_c, 0, 67, 36
2,18396, Control_c, 0, 64, 59
2,18416, Control_c, 0, 64, 60
2,18438, Control_c, 0, 64, 63
2,18442, Note_on_c, 0, 67, 0
2,18458, Control_c, 0, 64, 67
2,18475, Control_c, 0, 64, 73
2,18482, Note_on_c, 0, 71, 0
2,18496, Control_c, 0, 64, 86
2,18513, Control_c, 0, 64, 102
2,18513, Control_c, 0, 67, 35
2,18531, Control_c, 0, 64, 120
2,18549, Control_c, 0, 64, 127
2,18593, Note_on_c, 0, 57, 0
2,18669, Control_c, 0, 64, 122
2,18685, Control_c, 0, 64, 113
2,18704, Control_c, 0, 64, 106
2,18718, Note_on_c, 0, 57, 77
2,18718, Note_on_c, 0, 69, 65
2,18724, Control_c, 0, 64, 98
2,18729, Note_on_c, 0, 66, 61
2,18743, Control_c, 0, 64, 91
2,18763, Control_c, 0, 64, 85
2,18767, Control_c, 0, 67, 36
2,18781, Control_c, 0, 64, 80
2,18800, Control_c, 0, 64, 72
2,18820, Control_c, 0, 64, 64
2,18842, Control_c, 0, 64, 54
2,18860, Control_c, 0, 64, 42
2,18875, Control_c, 0, 64, 39
2,18916, Control_c, 0, 64, 40
2,18934, Control_c, 0, 64, 42
2,18945, Note_on_c, 0, 64, 0
2,18954, Control_c, 0, 64, 45
2,18973, Control_c, 0, 64, 50
2,18995, Control_c, 0, 64, 59
2,19009, Control_c, 0, 64, 63
2,19031, Control_c, 0, 64, 65
2,19052, Control_c, 0, 64, 67
2,19069, Note_on_c, 0, 57, 0
2,19074, Control_c, 0, 64, 70
2,19087, Control_c, 0, 64, 74
2,19111, Control_c, 0, 64, 76
2,19111, Control_c, 0, 67, 35
2,19145, Control_c, 0, 64, 75
2,19174, Note_on_c, 0, 64, 65
2,19180, Note_on_c, 0, 57, 76
2,19180, Note_on_c, 0, 67, 66
2,19187, Control_c, 0, 64, 74
2,19222, Control_c, 0, 67, 36
2,19242, Control_c, 0, 64, 73
2,19260, Control_c, 0, 64, 72
2,19282, Control_c, 0, 64, 70
2,19282, Note_on_c, 0, 69, 0
2,19297, Control_c, 0, 64, 67
2,19320, Control_c, 0, 64, 63
2,19324, Note_on_c, 0, 66, 0
2,19338, Control_c, 0, 64, 62
2,19358, Control_c, 0, 64, 63
2,19375, Control_c, 0, 64, 64
2,19395, Control_c, 0, 64, 66
2,19404, Note_on_c, 0, 61, 0
2,19415, Control_c, 0, 64, 69
2,19437, Control_c, 0, 64, 75
2,19452, Control_c, 0, 64, 89
2,19475, Control_c, 0, 64, 100
2,19492, Control_c, 0, 64, 103
2,19511, Control_c, 0, 67, 35
2,19529, Control_c, 0, 64, 102
2,19550, Control_c, 0, 64, 100
2,19570, Control_c, 0, 64, 98
2,19589, Control_c, 0, 64, 95
2,19589, Control_c, 0, 67, 36
2,19609, Control_c, 0, 64, 93
2,19629, Control_c, 0, 64, 89
2,19633, Note_on_c, 0, 50, 76
2,19646, Control_c, 0, 64, 84
2,19655, Note_on_c, 0, 66, 68
2,19666, Control_c, 0, 64, 79
2,19666, Note_on_c, 0, 62, 57
2,19684, Control_c, 0, 64, 76
2,19702, Control_c, 0, 64, 73
2,19721, Note_on_c, 0, 67, 0
2,19725, Control_c, 0, 64, 70
2,19740, Control_c, 0, 64, 67
2,19751, Note_on_c, 0, 64, 0
2,19762, Control_c, 0, 64, 63
2,19782, Control_c, 0, 64, 60
2,19799, Control_c, 0, 64, 56
2,19815, Control_c, 0, 64, 53
2,19839, Control_c, 0, 64, 51
2,19871, Note_on_c, 0, 57, 0
2,19951, Control_c, 0, 64, 52
2,19991, Control_c, 0, 64, 53
2,20029, Control_c, 0, 64, 54
2,20068, Control_c, 0, 64, 55
2,20088, Control_c, 0, 64, 56
2,20108, Control_c, 0, 64, 58
2,20108, Note_on_c, 0, 57, 55
2,20125, Control_c, 0, 64, 59
2,20144, Control_c, 0, 64, 61
2,20163, Control_c, 0, 64, 63
2,20181, Control_c, 0, 64, 65
2,20201, Control_c, 0, 64, 68
2,20223, Control_c, 0, 64, 74
2,20241, Control_c, 0, 64, 83
2,20258, Control_c, 0, 64, 91
2,20280, Control_c, 0, 64, 97
2,20298, Control_c, 0, 64, 99
2,20311, Note_on_c, 0, 62, 0
2,20393, Control_c, 0, 64, 97
2,20413, Control_c, 0, 64, 95
2,20433, Control_c, 0, 64, 94
2,20451, Control_c, 0, 64, 92
2,20469, Control_c, 0, 64, 91
2,20491, Control_c, 0, 64, 89
2,20508, Control_c, 0, 64, 87
2,20526, Control_c, 0, 64, 85
2,20547, Control_c, 0, 64, 82
2,20547, Note_on_c, 0, 54, 77
2,20567, Control_c, 0, 64, 79
2,20585, Control_c, 0, 64, 77
2,20589, Note_on_c, 0, 62, 59
2,20605, Control_c, 0, 64, 75
2,20623, Control_c, 0, 64, 73
2,20645, Control_c, 0, 64, 71
2,20663, Control_c, 0, 64, 69
2,20680, Control_c, 0, 64, 65
2,20700, Control_c, 0, 64, 62
2,20720, Control_c, 0, 64, 61
2,20738, Control_c, 0, 64, 60
2,20855, Note_on_c, 0, 66, 0
2,20874, Control_c, 0, 64, 59
2,20952, Control_c, 0, 64, 58
2,20974, Note_on_c, 0, 57, 0
2,20990, Control_c, 0, 64, 57
2,20990, Control_c, 0, 67, 37
2,21010, Note_on_c, 0, 50, 0
2,21015, Note_on_c, 0, 61, 61
2,21027, Control_c, 0, 64, 56
2,21084, Control_c, 0, 64, 55
2,21201, Control_c, 0, 67, 38
2,21240, Control_c, 0, 64, 54
2,21279, Note_on_c, 0, 62, 0
2,21411, Control_c, 0, 64, 55
2,21468, Note_on_c, 0, 68, 80
2,21498, Note_on_c, 0, 59, 44
2,21584, Control_c, 0, 64, 56
2,21625, Control_c, 0, 64, 57
2,21625, Control_c, 0, 67, 37
2,21641, Control_c, 0, 64, 58
2,21681, Control_c, 0, 64, 59
2,21699, Control_c, 0, 64, 60
2,21721, Control_c, 0, 64, 61
2,21741, Control_c, 0, 64, 62
2,21757, Control_c, 0, 64, 63
2,21779, Control_c, 0, 64, 64
2,21794, Control_c, 0, 64, 67
2,21817, Control_c, 0, 64, 70
2,21836, Control_c, 0, 64, 72
2,21874, Control_c, 0, 64, 71
2,21912, Control_c, 0, 64, 70
2,21926, Note_on_c, 0, 47, 70
2,21930, Control_c, 0, 64, 69
2,21968, Control_c, 0, 64, 68
2,21986, Control_c, 0, 64, 67
2,22004, Control_c, 0, 64, 66
2,22024, Control_c, 0, 64, 65
2,22045, Control_c, 0, 64, 64
2,22083, Control_c, 0, 64, 63
2,22102, Control_c, 0, 64, 62
2,22142, Control_c, 0, 64, 61
2,22168, Note_on_c, 0, 54, 0
2,22185, Note_on_c, 0, 59, 0
2,22199, Control_c, 0, 64, 60
2,22257, Control_c, 0, 64, 59
2,22293, Control_c, 0, 67, 38
2,22313, Control_c, 0, 64, 58
2,22323, Note_on_c, 0, 61, 0
2,22334, Control_c, 0, 64, 57
2,22352, Control_c, 0, 64, 56
2,22370, Control_c, 0, 64, 55
2,22390, Control_c, 0, 64, 54
2,22400, Note_on_c, 0, 52, 71
2,22412, Control_c, 0, 64, 53
2,22449, Control_c, 0, 64, 52
2,22449, Control_c, 0, 67, 39
2,22486, Control_c, 0, 64, 51
2,22603, Control_c, 0, 64, 50
2,22667, Note_on_c, 0, 47, 0
2,22678, Control_c, 0, 67, 40
2,22825, Note_on_c, 0, 59, 70
2,22836, Note_on_c, 0, 50, 57
2,22872, Control_c, 0, 67, 39
2,22910, Control_c, 0, 64, 49
2,23004, Control_c, 0, 64, 48
2,23052, Note_on_c, 0, 52, 0
2,23100, Control_c, 0, 67, 40
2,23278, Note_on_c, 0, 69, 65
2,23291, Note_on_c, 0, 49, 51
2,23310, Note_on_c, 0, 64, 48
2,23331, Control_c, 0, 64, 47
2,23350, Control_c, 0, 64, 46
2,23370, Control_c, 0, 64, 42
2,23388, Control_c, 0, 64, 38
2,23408, Control_c, 0, 64, 33
2,23428, Control_c, 0, 64, 30
2,23439, Note_on_c, 0, 68, 0
2,23446, Control_c, 0, 64, 29
2,23473, Note_on_c, 0, 59, 0
2,23486, Note_on_c, 0, 50, 0
2,23522, Control_c, 0, 64, 30
2,23562, Control_c, 0, 64, 31
2,23620, Control_c, 0, 64, 32
2,23726, Note_on_c, 0, 52, 68
2,23747, Note_on_c, 0, 62, 61
2,23773, Note_on_c, 0, 47, 43
2,23877, Note_on_c, 0, 64, 0
2,23882, Note_on_c, 0, 49, 0
2,23928, Control_c, 0, 64, 31
2,24192, Note_on_c, 0, 57, 76
2,24209, Note_on_c, 0, 61, 51
2,24220, Note_on_c, 0, 45, 55
2,24224, Note_on_c, 0, 62, 0
2,24316, Note_on_c, 0, 47, 0
2,24331, Control_c, 0, 64, 30
2,24372, Control_c, 0, 64, 29
2,24372, Note_on_c, 0, 52, 0
2,24387, Control_c, 0, 64, 28
2,24391, Control_c, 0, 67, 41
2,24406, Control_c, 0, 64, 27
2,24520, Control_c, 0, 67, 42
2,24626, Note_on_c, 0, 64, 81
2,24630, Note_on_c, 0, 55, 58
2,24801, Note_on_c, 0, 57, 0
2,24801, Note_on_c, 0, 69, 0
2,24870, Control_c, 0, 67, 41
2,24984, Control_c, 0, 67, 40
2,25061, Control_c, 0, 67, 39
2,25070, Note_on_c, 0, 69, 79
2,25096, Note_on_c, 0, 54, 59
2,25159, Control_c, 0, 67, 38
2,25197, Note_on_c, 0, 55, 0
2,25232, Note_on_c, 0, 64, 0
2,25352, Note_on_c, 0, 45, 0
2,25387, Control_c, 0, 67, 39
2,25443, Control_c, 0, 67, 40
2,25497, Note_on_c, 0, 45, 69
2,25504, Note_on_c, 0, 67, 77
2,25582, Note_on_c, 0, 52, 8
2,25692, Note_on_c, 0, 54, 0
2,25721, Note_on_c, 0, 69, 0
2,25971, Note_on_c, 0, 50, 70
2,25982, Note_on_c, 0, 66, 70
2,26049, Note_on_c, 0, 67, 0
2,26155, Note_on_c, 0, 61, 0
2,26159, Note_on_c, 0, 52, 0
2,26264, Note_on_c, 0, 45, 0
2,26347, Control_c, 0, 64, 26
2,26422, Note_on_c, 0, 57, 73
2,26431, Note_on_c, 0, 49, 57
2,26577, Control_c, 0, 67, 41
2,26624, Note_on_c, 0, 50, 0
2,26874, Note_on_c, 0, 62, 65
2,26876, Note_on_c, 0, 47, 52
2,27025, Note_on_c, 0, 57, 0
2,27029, Note_on_c, 0, 49, 0
2,27046, Note_on_c, 0, 66, 0
2,27309, Control_c, 0, 64, 27
2,27309, Note_on_c, 0, 61, 56
2,27313, Note_on_c, 0, 45, 53
2,27331, Note_on_c, 0, 47, 0
2,27331, Note_on_c, 0, 50, 49
2,27349, Control_c, 0, 64, 29
2,27357, Note_on_c, 0, 62, 0
2,27366, Control_c, 0, 64, 31
2,27384, Control_c, 0, 64, 34
2,27404, Control_c, 0, 64, 36
2,27423, Control_c, 0, 64, 38
2,27440, Control_c, 0, 64, 41
2,27461, Control_c, 0, 64, 43
2,27480, Control_c, 0, 64, 46
2,27502, Control_c, 0, 64, 49
2,27595, Control_c, 0, 64, 48
2,27635, Control_c, 0, 64, 47
2,27689, Control_c, 0, 64, 46
2,27731, Control_c, 0, 64, 45
2,27750, Control_c, 0, 64, 44
2,27784, Note_on_c, 0, 64, 69
2,27789, Control_c, 0, 64, 43
2,27793, Note_on_c, 0, 55, 48
2,27793, Note_on_c, 0, 59, 54
2,27802, Note_on_c, 0, 43, 39
2,27808, Note_on_c, 0, 50, 0
2,27813, Control_c, 0, 64, 42
2,27813, Control_c, 0, 67, 40
2,27845, Control_c, 0, 64, 41
2,27864, Control_c, 0, 64, 40
2,27883, Control_c, 0, 64, 38
2,27899, Note_on_c, 0, 61, 0
2,27903, Control_c, 0, 64, 37
2,27914, Note_on_c, 0, 45, 0
2,27922, Control_c, 0, 64, 35
2,27940, Control_c, 0, 64, 34
2,27982, Control_c, 0, 64, 33
2,28037, Control_c, 0, 64, 32
2,28190, Control_c, 0, 64, 31
2,28244, Note_on_c, 0, 62, 69
2,28262, Note_on_c, 0, 54, 41
2,28357, Note_on_c, 0, 64, 0
2,28388, Note_on_c, 0, 55, 0
2,28516, Control_c, 0, 67, 41
2,28574, Control_c, 0, 67, 42
2,28612, Control_c, 0, 67, 43
2,28632, Control_c, 0, 67, 44
2,28654, Control_c, 0, 67, 45
2,28671, Control_c, 0, 67, 46
2,28689, Control_c, 0, 67, 47
2,28694, Note_on_c, 0, 54, 0
2,28701, Note_on_c, 0, 52, 46
2,28703, Note_on_c, 0, 61, 56
2,28713, Control_c, 0, 67, 49
2,28713, Note_on_c, 0, 57, 50
2,28747, Control_c, 0, 67, 51
2,28772, Note_on_c, 0, 62, 0
2,28785, Control_c, 0, 67, 57
2,28806, Control_c, 0, 67, 68
2,28819, Note_on_c, 0, 59, 0
2,28825, Control_c, 0, 67, 80
2,28843, Control_c, 0, 67, 87
2,28862, Control_c, 0, 67, 95
2,28883, Control_c, 0, 64, 32
2,28883, Control_c, 0, 67, 103
2,28892, Note_on_c, 0, 43, 0
2,28901, Control_c, 0, 67, 113
2,28922, Control_c, 0, 67, 123
2,28940, Control_c, 0, 64, 33
2,28940, Control_c, 0, 67, 127
2,28977, Control_c, 0, 64, 34
2,28997, Control_c, 0, 64, 35
2,29035, Control_c, 0, 64, 36
2,29055, Control_c, 0, 64, 37
2,29075, Control_c, 0, 64, 38
2,29093, Control_c, 0, 64, 39
2,29115, Control_c, 0, 64, 41
2,29132, Control_c, 0, 64, 42
2,29151, Control_c, 0, 64, 44
2,29151, Note_on_c, 0, 42, 50
2,29173, Control_c, 0, 64, 47
2,29189, Control_c, 0, 64, 52
2,29209, Control_c, 0, 64, 57
2,29228, Control_c, 0, 64, 61
2,29247, Control_c, 0, 64, 64
2,29266, Control_c, 0, 64, 67
2,29283, Control_c, 0, 64, 72
2,29296, Note_on_c, 0, 52, 0
2,29305, Control_c, 0, 64, 82
2,29323, Control_c, 0, 64, 96
2,29341, Control_c, 0, 64, 118
2,29360, Control_c, 0, 64, 127
2,29376, Note_on_c, 0, 61, 0
2,29572, Control_c, 0, 64, 101
2,29592, Control_c, 0, 64, 90
2,29603, Note_on_c, 0, 50, 43
2,29608, Note_on_c, 0, 62, 68
2,29612, Control_c, 0, 64, 83
2,29612, Note_on_c, 0, 47, 42
2,29633, Control_c, 0, 64, 78
2,29633, Note_on_c, 0, 56, 55
2,29651, Control_c, 0, 64, 73
2,29668, Control_c, 0, 64, 68
2,29688, Control_c, 0, 64, 64
2,29706, Control_c, 0, 64, 59
2,29726, Control_c, 0, 64, 55
2,29745, Control_c, 0, 64, 53
2,29764, Control_c, 0, 64, 51
2,29773, Note_on_c, 0, 57, 0
2,29783, Control_c, 0, 64, 50
2,29798, Note_on_c, 0, 42, 0
2,29803, Control_c, 0, 64, 48
2,29823, Control_c, 0, 64, 45
2,29825, Control_c, 0, 67, 125
2,29842, Control_c, 0, 64, 41
2,29847, Control_c, 0, 67, 118
2,29862, Control_c, 0, 64, 37
2,29862, Control_c, 0, 67, 109
2,29880, Control_c, 0, 64, 34
2,29884, Control_c, 0, 67, 98
2,29902, Control_c, 0, 64, 32
2,29902, Control_c, 0, 67, 85
2,29920, Control_c, 0, 64, 30
2,29920, Control_c, 0, 67, 72
2,29939, Control_c, 0, 64, 28
2,29939, Control_c, 0, 67, 58
2,29959, Control_c, 0, 64, 25
2,29959, Control_c, 0, 67, 42
2,29977, Control_c, 0, 64, 22
2,29979, Control_c, 0, 67, 28
2,29995, Control_c, 0, 64, 21
2,30000, Control_c, 0, 67, 17
2,30017, Control_c, 0, 64, 20
2,30017, Control_c, 0, 67, 9
2,30035, Control_c, 0, 64, 19
2,30035, Control_c, 0, 67, 0
2,30055, Control_c, 0, 64, 18
2,30071, Control_c, 0, 64, 17
2,30075, Note_on_c, 0, 54, 57
2,30084, Note_on_c, 0, 49, 34
2,30092, Control_c, 0, 64, 16
2,30096, Note_on_c, 0, 45, 34
2,30111, Control_c, 0, 64, 15
2,30168, Control_c, 0, 64, 14
2,30189, Control_c, 0, 64, 13
2,30207, Note_on_c, 0, 50, 0
2,30211, Note_on_c, 0, 47, 0
2,30253, Note_on_c, 0, 56, 0
2,30401, Control_c, 0, 64, 14
2,30439, Control_c, 0, 64, 15
2,30475, Control_c, 0, 64, 16
2,30515, Control_c, 0, 64, 17
2,30515, Note_on_c, 0, 54, 0
2,30544, Note_on_c, 0, 52, 48
2,30556, Note_on_c, 0, 44, 45
2,30563, Note_on_c, 0, 47, 48
2,30573, Control_c, 0, 64, 18
2,30649, Control_c, 0, 64, 19
2,30682, Note_on_c, 0, 62, 0
2,30700, Note_on_c, 0, 49, 0
2,30726, Note_on_c, 0, 45, 0
2,31041, Note_on_c, 0, 71, 68
2,31260, Note_on_c, 0, 69, 76
2,31282, Control_c, 0, 64, 20
2,31339, Note_on_c, 0, 71, 0
2,31506, Note_on_c, 0, 71, 77
2,31599, Note_on_c, 0, 69, 0
2,31974, Note_on_c, 0, 62, 62
2,32043, Note_on_c, 0, 52, 0
2,32155, Note_on_c, 0, 71, 0
2,32459, Note_on_c, 0, 52, 46
2,32464, Note_on_c, 0, 61, 50
2,32489, Note_on_c, 0, 45, 32
2,32587, Note_on_c, 0, 62, 0
2,32657, Note_on_c, 0, 44, 0
2,32749, Note_on_c, 0, 47, 0
2,32973, Note_on_c, 0, 64, 79
2,33013, Control_c, 0, 64, 22
2,33029, Control_c, 0, 64, 23
2,33047, Control_c, 0, 64, 25
2,33067, Control_c, 0, 64, 27
2,33086, Control_c, 0, 64, 29
2,33108, Control_c, 0, 64, 33
2,33123, Control_c, 0, 64, 38
2,33142, Control_c, 0, 64, 46
2,33164, Control_c, 0, 64, 58
2,33183, Control_c, 0, 64, 64
2,33201, Control_c, 0, 64, 66
2,33221, Control_c, 0, 64, 71
2,33239, Control_c, 0, 64, 77
2,33260, Control_c, 0, 64, 83
2,33278, Control_c, 0, 64, 85
2,33307, Note_on_c, 0, 64, 0
2,33375, Control_c, 0, 64, 84
2,33413, Control_c, 0, 64, 83
2,33431, Control_c, 0, 64, 81
2,33444, Note_on_c, 0, 43, 68
2,33444, Note_on_c, 0, 64, 87
2,33453, Control_c, 0, 64, 79
2,33470, Control_c, 0, 64, 76
2,33489, Control_c, 0, 64, 72
2,33508, Control_c, 0, 64, 67
2,33527, Control_c, 0, 64, 63
2,33547, Control_c, 0, 64, 60
2,33569, Control_c, 0, 64, 57
2,33584, Control_c, 0, 64, 55
2,33605, Control_c, 0, 64, 52
2,33609, Note_on_c, 0, 45, 0
2,33625, Control_c, 0, 64, 47
2,33643, Control_c, 0, 64, 41
2,33665, Control_c, 0, 64, 38
2,33682, Control_c, 0, 64, 37
2,33702, Control_c, 0, 64, 39
2,33720, Control_c, 0, 64, 41
2,33737, Control_c, 0, 64, 44
2,33759, Control_c, 0, 64, 47
2,33776, Control_c, 0, 64, 51
2,33794, Note_on_c, 0, 64, 0
2,33798, Control_c, 0, 64, 58
2,33817, Control_c, 0, 64, 61
2,33856, Control_c, 0, 64, 62
2,33873, Control_c, 0, 64, 63
2,33893, Control_c, 0, 64, 64
2,33902, Note_on_c, 0, 64, 86
2,33913, Control_c, 0, 64, 65
2,33931, Control_c, 0, 64, 67
2,33950, Control_c, 0, 64, 69
2,33972, Control_c, 0, 64, 71
2,33989, Control_c, 0, 64, 74
2,34011, Control_c, 0, 64, 75
2,34065, Control_c, 0, 64, 76
2,34083, Control_c, 0, 64, 77
2,34102, Control_c, 0, 64, 80
2,34125, Control_c, 0, 64, 85
2,34144, Control_c, 0, 64, 95
2,34161, Control_c, 0, 64, 120
2,34181, Control_c, 0, 64, 127
2,34221, Note_on_c, 0, 61, 0
2,34385, Note_on_c, 0, 57, 90
2,34391, Note_on_c, 0, 42, 63
2,34394, Control_c, 0, 64, 101
2,34411, Control_c, 0, 64, 87
2,34432, Control_c, 0, 64, 75
2,34450, Control_c, 0, 64, 65
2,34454, Note_on_c, 0, 43, 0
2,34469, Control_c, 0, 64, 58
2,34488, Control_c, 0, 64, 53
2,34506, Control_c, 0, 64, 51
2,34526, Control_c, 0, 64, 48
2,34544, Control_c, 0, 64, 40
2,34565, Control_c, 0, 64, 27
2,34583, Control_c, 0, 64, 14
2,34596, Note_on_c, 0, 52, 0
2,34606, Control_c, 0, 64, 15
2,34606, Note_on_c, 0, 64, 0
2,34623, Control_c, 0, 64, 20
2,34640, Control_c, 0, 64, 27
2,34660, Control_c, 0, 64, 35
2,34680, Control_c, 0, 64, 46
2,34699, Control_c, 0, 64, 59
2,34717, Control_c, 0, 64, 64
2,34737, Control_c, 0, 64, 65
2,34756, Control_c, 0, 64, 68
2,34776, Control_c, 0, 64, 73
2,34794, Control_c, 0, 64, 82
2,34815, Control_c, 0, 64, 92
2,34835, Control_c, 0, 64, 100
2,34853, Control_c, 0, 64, 106
2,34869, Note_on_c, 0, 42, 0
2,34873, Control_c, 0, 64, 113
2,34873, Note_on_c, 0, 55, 52
2,34875, Note_on_c, 0, 64, 81
2,34893, Control_c, 0, 64, 127
2,35072, Note_on_c, 0, 57, 0
2,35257, Control_c, 0, 64, 120
2,35276, Control_c, 0, 64, 112
2,35294, Control_c, 0, 64, 107
2,35312, Control_c, 0, 64, 103
2,35327, Note_on_c, 0, 54, 62
2,35333, Control_c, 0, 64, 97
2,35333, Note_on_c, 0, 60, 88
2,35353, Control_c, 0, 64, 92
2,35357, Note_on_c, 0, 69, 68
2,35375, Control_c, 0, 64, 88
2,35390, Control_c, 0, 64, 83
2,35408, Control_c, 0, 64, 75
2,35428, Control_c, 0, 64, 69
2,35448, Control_c, 0, 64, 65
2,35466, Control_c, 0, 64, 62
2,35485, Control_c, 0, 64, 61
2,35549, Note_on_c, 0, 55, 0
2,35585, Control_c, 0, 64, 60
2,35585, Note_on_c, 0, 64, 0
2,35660, Control_c, 0, 64, 59
2,35678, Control_c, 0, 64, 58
2,35736, Control_c, 0, 64, 57
2,35754, Control_c, 0, 64, 55
2,35774, Control_c, 0, 64, 53
2,35778, Note_on_c, 0, 67, 78
2,35782, Note_on_c, 0, 52, 67
2,35794, Control_c, 0, 64, 51
2,35812, Control_c, 0, 64, 50
2,35832, Control_c, 0, 64, 49
2,35891, Control_c, 0, 64, 48
2,35927, Control_c, 0, 64, 47
2,35947, Control_c, 0, 64, 46
2,35958, Note_on_c, 0, 69, 0
2,35969, Control_c, 0, 64, 45
2,35984, Control_c, 0, 64, 44
2,36027, Note_on_c, 0, 54, 0
2,36243, Note_on_c, 0, 51, 62
2,36243, Note_on_c, 0, 66, 77
2,36251, Note_on_c, 0, 47, 52
2,36330, Control_c, 0, 64, 45
2,36341, Note_on_c, 0, 67, 0
2,36447, Control_c, 0, 64, 46
2,36464, Control_c, 0, 64, 47
2,36480, Note_on_c, 0, 52, 0
2,36485, Control_c, 0, 64, 48
2,36524, Control_c, 0, 64, 49
2,36638, Control_c, 0, 64, 48
2,36692, Note_on_c, 0, 54, 73
2,36716, Control_c, 0, 64, 47
2,36790, Control_c, 0, 64, 46
2,36842, Note_on_c, 0, 60, 0
2,36908, Note_on_c, 0, 51, 0
2,37142, Note_on_c, 0, 59, 76
2,37391, Note_on_c, 0, 54, 0
2,37591, Note_on_c, 0, 57, 78
2,37754, Note_on_c, 0, 59, 0
2,38036, Note_on_c, 0, 55, 60
2,38041, Note_on_c, 0, 52, 51
2,38193, Note_on_c, 0, 57, 0
2,38281, Note_on_c, 0, 47, 0
2,38523, Note_on_c, 0, 50, 46
2,38528, Note_on_c, 0, 71, 90
2,38566, Note_on_c, 0, 59, 58
2,38598, Control_c, 0, 64, 45
2,38616, Control_c, 0, 64, 44
2,38634, Note_on_c, 0, 52, 0
2,38636, Control_c, 0, 64, 42
2,38648, Note_on_c, 0, 66, 0
2,38655, Control_c, 0, 64, 36
2,38673, Control_c, 0, 64, 32
2,38713, Control_c, 0, 64, 31
2,38750, Control_c, 0, 64, 32
2,38769, Control_c, 0, 64, 35
2,38790, Control_c, 0, 64, 43
2,38805, Note_on_c, 0, 55, 0
2,38810, Control_c, 0, 64, 58
2,38827, Control_c, 0, 64, 66
2,38846, Control_c, 0, 64, 73
2,38867, Control_c, 0, 64, 89
2,38883, Control_c, 0, 64, 112
2,38903, Control_c, 0, 64, 127
2,38910, Note_on_c, 0, 71, 0
2,39008, Note_on_c, 0, 71, 98
2,39021, Control_c, 0, 64, 107
2,39021, Note_on_c, 0, 55, 52
2,39039, Control_c, 0, 64, 91
2,39039, Note_on_c, 0, 64, 59
2,39057, Control_c, 0, 64, 75
2,39077, Control_c, 0, 64, 62
2,39095, Control_c, 0, 64, 48
2,39115, Control_c, 0, 64, 34
2,39137, Control_c, 0, 64, 30
2,39171, Control_c, 0, 64, 31
2,39193, Control_c, 0, 64, 35
2,39214, Control_c, 0, 64, 41
2,39231, Control_c, 0, 64, 54
2,39249, Control_c, 0, 64, 64
2,39258, Note_on_c, 0, 59, 0
2,39269, Control_c, 0, 64, 71
2,39291, Control_c, 0, 64, 86
2,39307, Control_c, 0, 64, 122
2,39320, Note_on_c, 0, 71, 0
2,39327, Control_c, 0, 64, 127
2,39446, Note_on_c, 0, 71, 94
2,39461, Control_c, 0, 64, 113
2,39478, Note_on_c, 0, 62, 75
2,39483, Control_c, 0, 64, 91
2,39500, Control_c, 0, 64, 73
2,39518, Control_c, 0, 64, 62
2,39538, Control_c, 0, 64, 46
2,39556, Control_c, 0, 64, 35
2,39579, Control_c, 0, 64, 33
2,39592, Note_on_c, 0, 64, 0
2,39594, Control_c, 0, 64, 34
2,39613, Control_c, 0, 64, 36
2,39632, Control_c, 0, 64, 41
2,39652, Control_c, 0, 64, 51
2,39670, Control_c, 0, 64, 63
2,39693, Control_c, 0, 64, 71
2,39710, Control_c, 0, 64, 85
2,39731, Control_c, 0, 64, 108
2,39747, Control_c, 0, 64, 127
2,39757, Note_on_c, 0, 71, 0
2,39904, Control_c, 0, 64, 101
2,39905, Note_on_c, 0, 64, 88
2,39922, Control_c, 0, 64, 86
2,39927, Note_on_c, 0, 61, 65
2,39942, Control_c, 0, 64, 73
2,39961, Control_c, 0, 64, 62
2,39979, Control_c, 0, 64, 54
2,39998, Control_c, 0, 64, 48
2,40018, Control_c, 0, 64, 46
2,40033, Note_on_c, 0, 62, 0
2,40038, Control_c, 0, 64, 42
2,40058, Control_c, 0, 64, 25
2,40075, Control_c, 0, 64, 0
2,40362, Note_on_c, 0, 59, 77
2,40380, Control_c, 0, 64, 22
2,40398, Control_c, 0, 64, 34
2,40418, Control_c, 0, 64, 43
2,40437, Control_c, 0, 64, 50
2,40457, Control_c, 0, 64, 56
2,40475, Control_c, 0, 64, 59
2,40484, Note_on_c, 0, 61, 0
2,40496, Control_c, 0, 64, 60
2,40514, Control_c, 0, 64, 63
2,40535, Control_c, 0, 64, 66
2,40552, Control_c, 0, 64, 71
2,40573, Control_c, 0, 64, 78
2,40590, Control_c, 0, 64, 85
2,40611, Control_c, 0, 64, 87
2,40621, Note_on_c, 0, 64, 0
2,40688, Control_c, 0, 64, 86
2,40724, Control_c, 0, 64, 85
2,40746, Control_c, 0, 64, 83
2,40767, Control_c, 0, 64, 82
2,40783, Control_c, 0, 64, 79
2,40787, Note_on_c, 0, 67, 88
2,40803, Control_c, 0, 64, 76
2,40807, Note_on_c, 0, 49, 57
2,40822, Note_on_c, 0, 58, 65
2,40827, Control_c, 0, 64, 72
2,40840, Control_c, 0, 64, 68
2,40860, Control_c, 0, 64, 64
2,40882, Control_c, 0, 64, 60
2,40896, Note_on_c, 0, 50, 0
2,40900, Control_c, 0, 64, 58
2,40917, Control_c, 0, 64, 57
2,40975, Control_c, 0, 64, 55
2,40997, Control_c, 0, 64, 53
2,41014, Control_c, 0, 64, 49
2,41027, Note_on_c, 0, 59, 0
2,41036, Control_c, 0, 64, 45
2,41053, Control_c, 0, 64, 40
2,41070, Control_c, 0, 64, 36
2,41089, Control_c, 0, 64, 32
2,41109, Control_c, 0, 64, 28
2,41128, Control_c, 0, 64, 25
2,41149, Control_c, 0, 64, 22
2,41166, Control_c, 0, 64, 20
2,41182, Note_on_c, 0, 55, 0
2,41186, Control_c, 0, 64, 19
2,41206, Control_c, 0, 64, 17
2,41226, Control_c, 0, 64, 15
2,41253, Note_on_c, 0, 50, 65
2,41253, Note_on_c, 0, 59, 66
2,41282, Control_c, 0, 64, 14
2,41302, Control_c, 0, 64, 13
2,41307, Note_on_c, 0, 58, 0
2,41475, Note_on_c, 0, 49, 0
2,41681, Note_on_c, 0, 52, 67
2,41699, Note_on_c, 0, 61, 58
2,41759, Note_on_c, 0, 59, 0
2,41783, Note_on_c, 0, 50, 0
2,41804, Control_c, 0, 64, 14
2,41819, Control_c, 0, 64, 16
2,41839, Control_c, 0, 64, 20
2,41857, Control_c, 0, 64, 27
2,41877, Control_c, 0, 64, 38
2,41897, Control_c, 0, 64, 57
2,41917, Control_c, 0, 64, 64
2,41935, Control_c, 0, 64, 65
2,41955, Control_c, 0, 64, 67
2,41974, Control_c, 0, 64, 69
2,41994, Control_c, 0, 64, 73
2,42011, Control_c, 0, 64, 76
2,42020, Note_on_c, 0, 61, 0
2,42050, Control_c, 0, 64, 75
2,42072, Control_c, 0, 64, 74
2,42090, Control_c, 0, 64, 73
2,42109, Control_c, 0, 64, 72
2,42128, Control_c, 0, 64, 70
2,42128, Note_on_c, 0, 55, 63
2,42138, Note_on_c, 0, 64, 73
2,42145, Control_c, 0, 64, 67
2,42154, Note_on_c, 0, 61, 61
2,42165, Control_c, 0, 64, 62
2,42185, Control_c, 0, 64, 55
2,42203, Note_on_c, 0, 52, 0
2,42207, Control_c, 0, 64, 46
2,42223, Control_c, 0, 64, 37
2,42242, Control_c, 0, 64, 34
2,42262, Control_c, 0, 64, 35
2,42270, Note_on_c, 0, 67, 0
2,42284, Control_c, 0, 64, 39
2,42298, Control_c, 0, 64, 45
2,42319, Control_c, 0, 64, 56
2,42337, Control_c, 0, 64, 65
2,42357, Control_c, 0, 64, 70
2,42379, Control_c, 0, 64, 78
2,42396, Control_c, 0, 64, 86
2,42405, Note_on_c, 0, 55, 0
2,42416, Control_c, 0, 64, 92
2,42437, Control_c, 0, 64, 94
2,42452, Control_c, 0, 64, 93
2,42472, Control_c, 0, 64, 91
2,42492, Control_c, 0, 64, 89
2,42512, Control_c, 0, 64, 88
2,42532, Control_c, 0, 64, 86
2,42550, Control_c, 0, 64, 83
2,42572, Control_c, 0, 64, 79
2,42590, Note_on_c, 0, 54, 58
2,42590, Note_on_c, 0, 66, 76
2,42594, Control_c, 0, 64, 75
2,42601, Note_on_c, 0, 46, 53
2,42610, Control_c, 0, 64, 70
2,42610, Note_on_c, 0, 62, 58
2,42626, Control_c, 0, 64, 65
2,42648, Control_c, 0, 64, 60
2,42666, Control_c, 0, 64, 56
2,42686, Control_c, 0, 64, 51
2,42704, Control_c, 0, 64, 45
2,42719, Note_on_c, 0, 61, 0
2,42720, Note_on_c, 0, 64, 0
2,42726, Control_c, 0, 64, 36
2,42742, Control_c, 0, 64, 30
2,42760, Control_c, 0, 64, 25
2,42783, Control_c, 0, 64, 20
2,42800, Control_c, 0, 64, 15
2,42818, Control_c, 0, 64, 9
2,42838, Control_c, 0, 64, 0
2,43020, Note_on_c, 0, 64, 63
2,43028, Note_on_c, 0, 61, 41
2,43050, Control_c, 0, 67, 11
2,43067, Control_c, 0, 67, 18
2,43086, Control_c, 0, 67, 21
2,43128, Note_on_c, 0, 66, 0
2,43130, Note_on_c, 0, 62, 0
2,43183, Control_c, 0, 67, 20
2,43223, Control_c, 0, 67, 19
2,43259, Control_c, 0, 67, 18
2,43297, Control_c, 0, 67, 17
2,43336, Control_c, 0, 67, 16
2,43375, Control_c, 0, 67, 15
2,43413, Control_c, 0, 67, 14
2,43429, Note_on_c, 0, 64, 0
2,43433, Control_c, 0, 67, 13
2,43438, Note_on_c, 0, 54, 0
2,43464, Note_on_c, 0, 47, 45
2,43470, Control_c, 0, 67, 12
2,43480, Note_on_c, 0, 62, 47
2,43483, Note_on_c, 0, 59, 44
2,43491, Control_c, 0, 67, 11
2,43531, Control_c, 0, 67, 10
2,43531, Note_on_c, 0, 61, 0
2,43545, Note_on_c, 0, 46, 0
2,43550, Control_c, 0, 67, 9
2,43568, Control_c, 0, 64, 14
2,43589, Control_c, 0, 64, 20
2,43589, Control_c, 0, 67, 8
2,43606, Control_c, 0, 64, 28
2,43626, Control_c, 0, 64, 38
2,43648, Control_c, 0, 64, 50
2,43648, Control_c, 0, 67, 0
2,43663, Control_c, 0, 64, 59
2,43682, Control_c, 0, 64, 64
2,43714, Note_on_c, 0, 62, 0
2,43758, Control_c, 0, 64, 63
2,43816, Control_c, 0, 64, 62
2,43836, Control_c, 0, 64, 61
2,43893, Control_c, 0, 64, 60
2,43919, Note_on_c, 0, 66, 61
2,43930, Note_on_c, 0, 57, 46
2,43953, Control_c, 0, 64, 59
2,44066, Control_c, 0, 64, 58
2,44094, Note_on_c, 0, 59, 0
2,44182, Control_c, 0, 64, 57
2,44200, Control_c, 0, 64, 56
2,44219, Control_c, 0, 64, 55
2,44258, Control_c, 0, 64, 54
2,44316, Control_c, 0, 64, 53
2,44354, Control_c, 0, 64, 52
2,44366, Note_on_c, 0, 71, 72
2,44377, Control_c, 0, 64, 51
2,44390, Note_on_c, 0, 56, 41
2,44431, Control_c, 0, 64, 50
2,44470, Control_c, 0, 64, 49
2,44491, Note_on_c, 0, 57, 0
2,44530, Control_c, 0, 64, 48
2,44530, Note_on_c, 0, 66, 0
2,44547, Control_c, 0, 64, 47
2,44584, Control_c, 0, 64, 46
2,44605, Control_c, 0, 64, 45
2,44760, Control_c, 0, 64, 44
2,44808, Note_on_c, 0, 54, 55
2,44808, Note_on_c, 0, 69, 62
2,44908, Note_on_c, 0, 56, 0
2,44927, Note_on_c, 0, 71, 0
2,45084, Control_c, 0, 64, 45
2,45104, Control_c, 0, 64, 46
2,45141, Control_c, 0, 64, 47
2,45237, Control_c, 0, 64, 48
2,45267, Note_on_c, 0, 68, 71
2,45285, Note_on_c, 0, 52, 48
2,45333, Control_c, 0, 67, 8
2,45353, Note_on_c, 0, 69, 0
2,45394, Note_on_c, 0, 54, 0
2,45429, Control_c, 0, 64, 49
2,45468, Control_c, 0, 64, 50
2,45490, Control_c, 0, 64, 51
2,45505, Control_c, 0, 64, 52
2,45525, Control_c, 0, 64, 53
2,45545, Control_c, 0, 64, 54
2,45676, Note_on_c, 0, 47, 0
2,45714, Note_on_c, 0, 71, 84
2,45718, Note_on_c, 0, 50, 56
2,45722, Control_c, 0, 64, 53
2,45755, Control_c, 0, 67, 9
2,45854, Control_c, 0, 64, 52
2,45893, Control_c, 0, 67, 10
2,45915, Note_on_c, 0, 68, 0
2,45932, Control_c, 0, 64, 51
2,45976, Note_on_c, 0, 52, 0
2,46045, Control_c, 0, 64, 50
2,46100, Control_c, 0, 67, 9
2,46140, Control_c, 0, 64, 49
2,46162, Note_on_c, 0, 76, 91
2,46167, Note_on_c, 0, 49, 63
2,46200, Control_c, 0, 64, 48
2,46273, Control_c, 0, 64, 47
2,46293, Control_c, 0, 64, 46
2,46333, Control_c, 0, 64, 45
2,46333, Note_on_c, 0, 50, 0
2,46351, Control_c, 0, 64, 44
2,46367, Note_on_c, 0, 71, 0
2,46371, Control_c, 0, 64, 43
2,46388, Control_c, 0, 64, 42
2,46410, Control_c, 0, 64, 41
2,46427, Control_c, 0, 64, 39
2,46449, Control_c, 0, 64, 38
2,46467, Control_c, 0, 64, 37
2,46489, Control_c, 0, 67, 8
2,46524, Control_c, 0, 64, 36
2,46546, Control_c, 0, 67, 0
2,46619, Note_on_c, 0, 47, 67
2,46619, Note_on_c, 0, 74, 90
2,46640, Control_c, 0, 64, 35
2,46763, Note_on_c, 0, 76, 0
2,46811, Control_c, 0, 64, 34
2,46863, Note_on_c, 0, 49, 0
2,47089, Note_on_c, 0, 73, 91
2,47114, Note_on_c, 0, 45, 52
2,47138, Note_on_c, 0, 74, 0
2,47266, Note_on_c, 0, 47, 0
2,47448, Control_c, 0, 64, 35
2,47503, Control_c, 0, 64, 36
2,47582, Note_on_c, 0, 69, 84
2,47598, Note_on_c, 0, 52, 65
2,47676, Control_c, 0, 64, 37
2,47694, Control_c, 0, 64, 38
2,47715, Control_c, 0, 64, 40
2,47734, Control_c, 0, 64, 46
2,47753, Control_c, 0, 64, 56
2,47771, Control_c, 0, 64, 63
2,47791, Control_c, 0, 64, 67
2,47811, Control_c, 0, 64, 77
2,47829, Control_c, 0, 64, 97
2,47849, Control_c, 0, 64, 127
2,47924, Note_on_c, 0, 69, 0
2,48035, Note_on_c, 0, 69, 91
2,48040, Note_on_c, 0, 57, 75
2,48060, Control_c, 0, 64, 101
2,48078, Control_c, 0, 64, 73
2,48098, Control_c, 0, 64, 59
2,48120, Control_c, 0, 64, 45
2,48138, Control_c, 0, 64, 39
2,48138, Note_on_c, 0, 52, 0
2,48156, Control_c, 0, 64, 40
2,48176, Control_c, 0, 64, 44
2,48194, Control_c, 0, 64, 51
2,48214, Control_c, 0, 64, 63
2,48227, Note_on_c, 0, 45, 0
2,48233, Control_c, 0, 64, 71
2,48254, Control_c, 0, 64, 91
2,48271, Control_c, 0, 64, 127
2,48340, Note_on_c, 0, 57, 0
2,48371, Note_on_c, 0, 69, 0
2,48484, Control_c, 0, 64, 99
2,48484, Note_on_c, 0, 69, 86
2,48487, Note_on_c, 0, 55, 77
2,48499, Note_on_c, 0, 45, 55
2,48501, Control_c, 0, 64, 85
2,48523, Control_c, 0, 64, 75
2,48542, Control_c, 0, 64, 68
2,48557, Control_c, 0, 64, 64
2,48579, Control_c, 0, 64, 61
2,48599, Control_c, 0, 64, 60
2,48617, Control_c, 0, 64, 59
2,48676, Control_c, 0, 64, 58
2,48712, Control_c, 0, 64, 57
2,48754, Control_c, 0, 64, 56
2,48792, Control_c, 0, 64, 55
2,48810, Control_c, 0, 64, 54
2,48830, Control_c, 0, 64, 53
2,48884, Control_c, 0, 64, 52
2,48922, Control_c, 0, 64, 51
2,48943, Control_c, 0, 64, 49
2,48957, Note_on_c, 0, 62, 92
2,48961, Control_c, 0, 64, 47
2,48966, Note_on_c, 0, 54, 78
2,48973, Note_on_c, 0, 47, 60
2,48980, Control_c, 0, 64, 45
2,48999, Control_c, 0, 64, 43
2,49020, Control_c, 0, 64, 41
2,49039, Control_c, 0, 64, 40
2,49118, Note_on_c, 0, 69, 0
2,49130, Note_on_c, 0, 45, 0
2,49151, Note_on_c, 0, 55, 0
2,49228, Note_on_c, 0, 73, 0
2,49289, Control_c, 0, 64, 41
2,49307, Control_c, 0, 64, 42
2,49346, Control_c, 0, 64, 43
2,49430, Note_on_c, 0, 74, 96
2,49441, Note_on_c, 0, 52, 69
2,49461, Control_c, 0, 64, 42
2,49482, Control_c, 0, 64, 41
2,49502, Control_c, 0, 64, 40
2,49531, Note_on_c, 0, 54, 0
2,49561, Control_c, 0, 64, 41
2,49575, Control_c, 0, 64, 42
2,49595, Control_c, 0, 64, 46
2,49615, Control_c, 0, 64, 51
2,49637, Control_c, 0, 64, 60
2,49653, Control_c, 0, 64, 65
2,49672, Control_c, 0, 64, 69
2,49695, Control_c, 0, 64, 75
2,49710, Control_c, 0, 64, 82
2,49733, Control_c, 0, 64, 88
2,49772, Note_on_c, 0, 74, 0
2,49866, Control_c, 0, 64, 87
2,49884, Control_c, 0, 64, 85
2,49903, Note_on_c, 0, 74, 99
2,49908, Control_c, 0, 64, 82
2,49912, Note_on_c, 0, 50, 79
2,49922, Control_c, 0, 64, 76
2,49931, Note_on_c, 0, 66, 66
2,49941, Control_c, 0, 64, 67
2,49961, Control_c, 0, 64, 57
2,49981, Control_c, 0, 64, 40
2,49999, Control_c, 0, 64, 16
2,50019, Control_c, 0, 64, 11
2,50047, Note_on_c, 0, 52, 0
2,50058, Control_c, 0, 64, 14
2,50076, Control_c, 0, 64, 20
2,50093, Control_c, 0, 64, 27
2,50113, Control_c, 0, 64, 38
2,50134, Control_c, 0, 64, 52
2,50142, Note_on_c, 0, 47, 0
2,50151, Control_c, 0, 64, 65
2,50172, Control_c, 0, 64, 68
2,50192, Control_c, 0, 64, 71
2,50205, Note_on_c, 0, 74, 0
2,50210, Control_c, 0, 64, 74
2,50228, Control_c, 0, 64, 77
2,50247, Control_c, 0, 64, 78
2,50287, Control_c, 0, 64, 77
2,50307, Control_c, 0, 64, 76
2,50326, Control_c, 0, 64, 75
2,50348, Control_c, 0, 64, 73
2,50363, Control_c, 0, 64, 70
2,50363, Note_on_c, 0, 74, 95
2,50377, Note_on_c, 0, 47, 78
2,50382, Control_c, 0, 64, 64
2,50402, Control_c, 0, 64, 54
2,50423, Control_c, 0, 64, 25
2,50440, Control_c, 0, 64, 0
2,50499, Control_c, 0, 64, 19
2,50510, Note_on_c, 0, 50, 0
2,50516, Control_c, 0, 64, 41
2,50539, Control_c, 0, 64, 60
2,50555, Control_c, 0, 64, 73
2,50575, Control_c, 0, 64, 90
2,50579, Note_on_c, 0, 74, 0
2,50590, Note_on_c, 0, 47, 0
2,50594, Control_c, 0, 64, 127
2,50660, Note_on_c, 0, 62, 0
2,50827, Control_c, 0, 64, 108
2,50827, Note_on_c, 0, 52, 88
2,50835, Note_on_c, 0, 67, 89
2,50844, Control_c, 0, 64, 86
2,50863, Control_c, 0, 64, 67
2,50867, Note_on_c, 0, 40, 57
2,50885, Control_c, 0, 64, 51
2,50902, Control_c, 0, 64, 0
2,50998, Control_c, 0, 64, 31
2,51020, Control_c, 0, 64, 56
2,51035, Control_c, 0, 64, 70
2,51039, Note_on_c, 0, 40, 0
2,51043, Note_on_c, 0, 66, 0
2,51059, Control_c, 0, 64, 80
2,51073, Control_c, 0, 64, 104
2,51094, Control_c, 0, 64, 127
2,51137, Note_on_c, 0, 52, 0
2,51228, Control_c, 0, 64, 118
2,51246, Control_c, 0, 64, 103
2,51266, Control_c, 0, 64, 94
2,51286, Control_c, 0, 64, 86
2,51306, Control_c, 0, 64, 79
2,51306, Note_on_c, 0, 54, 88
2,51314, Note_on_c, 0, 59, 83
2,51323, Control_c, 0, 64, 72
2,51343, Control_c, 0, 64, 65
2,51365, Control_c, 0, 64, 58
2,51381, Control_c, 0, 64, 43
2,51399, Control_c, 0, 64, 30
2,51419, Control_c, 0, 64, 27
2,51440, Control_c, 0, 64, 29
2,51461, Control_c, 0, 64, 34
2,51476, Control_c, 0, 64, 42
2,51496, Control_c, 0, 64, 57
2,51516, Control_c, 0, 64, 70
2,51529, Note_on_c, 0, 67, 0
2,51535, Control_c, 0, 64, 81
2,51553, Control_c, 0, 64, 107
2,51572, Control_c, 0, 64, 127
2,51685, Note_on_c, 0, 54, 0
2,51784, Control_c, 0, 64, 100
2,51789, Note_on_c, 0, 71, 96
2,51793, Note_on_c, 0, 55, 79
2,51804, Control_c, 0, 64, 81
2,51821, Control_c, 0, 64, 70
2,51829, Note_on_c, 0, 64, 54
2,51842, Control_c, 0, 64, 62
2,51860, Control_c, 0, 64, 56
2,51880, Control_c, 0, 64, 51
2,51900, Control_c, 0, 64, 48
2,51917, Control_c, 0, 64, 46
2,51940, Control_c, 0, 64, 43
2,51960, Control_c, 0, 64, 38
2,51975, Control_c, 0, 64, 30
2,51987, Note_on_c, 0, 59, 0
2,51996, Control_c, 0, 64, 22
2,52017, Control_c, 0, 64, 19
2,52033, Control_c, 0, 64, 18
2,52053, Control_c, 0, 64, 16
2,52073, Control_c, 0, 64, 10
2,52093, Control_c, 0, 64, 0
2,52236, Note_on_c, 0, 52, 61
2,52236, Note_on_c, 0, 62, 74
2,52303, Control_c, 0, 67, 9
2,52321, Control_c, 0, 67, 13
2,52340, Control_c, 0, 67, 18
2,52359, Control_c, 0, 67, 22
2,52380, Control_c, 0, 67, 25
2,52387, Note_on_c, 0, 64, 0
2,52398, Control_c, 0, 67, 27
2,52419, Control_c, 0, 67, 28
2,52436, Control_c, 0, 67, 29
2,52494, Control_c, 0, 67, 28
2,52534, Control_c, 0, 67, 27
2,52551, Control_c, 0, 67, 26
2,52572, Control_c, 0, 67, 25
2,52610, Control_c, 0, 67, 24
2,52628, Control_c, 0, 67, 23
2,52668, Control_c, 0, 67, 22
2,52706, Note_on_c, 0, 45, 56
2,52706, Note_on_c, 0, 61, 68
2,52726, Control_c, 0, 67, 21
2,52855, Note_on_c, 0, 55, 0
2,52888, Note_on_c, 0, 52, 0
2,52917, Note_on_c, 0, 62, 0
2,52976, Control_c, 0, 67, 20
2,53053, Note_on_c, 0, 71, 0
2,53155, Note_on_c, 0, 64, 64
2,53172, Note_on_c, 0, 55, 49
2,53583, Note_on_c, 0, 55, 0
2,53616, Note_on_c, 0, 54, 52
2,53620, Note_on_c, 0, 69, 62
2,53669, Note_on_c, 0, 64, 0
2,53764, Control_c, 0, 64, 22
2,53764, Control_c, 0, 67, 19
2,53782, Control_c, 0, 64, 37
2,53800, Control_c, 0, 64, 55
2,53823, Control_c, 0, 64, 67
2,53823, Control_c, 0, 67, 18
2,53841, Control_c, 0, 64, 76
2,53858, Control_c, 0, 64, 100
2,53869, Note_on_c, 0, 54, 0
2,53881, Control_c, 0, 64, 127
2,53881, Control_c, 0, 67, 17
2,53881, Note_on_c, 0, 45, 0
2,53954, Control_c, 0, 64, 113
2,53976, Control_c, 0, 64, 101
2,53995, Control_c, 0, 64, 94
2,53995, Control_c, 0, 67, 18
2,54012, Control_c, 0, 64, 89
2,54031, Control_c, 0, 64, 84
2,54049, Control_c, 0, 64, 77
2,54073, Control_c, 0, 64, 69
2,54077, Note_on_c, 0, 45, 42
2,54077, Note_on_c, 0, 52, 54
2,54077, Note_on_c, 0, 67, 62
2,54089, Control_c, 0, 64, 61
2,54089, Control_c, 0, 67, 19
2,54108, Control_c, 0, 64, 51
2,54125, Control_c, 0, 64, 39
2,54130, Note_on_c, 0, 61, 0
2,54147, Control_c, 0, 64, 26
2,54164, Control_c, 0, 64, 20
2,54186, Note_on_c, 0, 69, 0
2,54205, Control_c, 0, 64, 22
2,54222, Control_c, 0, 64, 28
2,54244, Control_c, 0, 64, 38
2,54264, Control_c, 0, 64, 55
2,54282, Control_c, 0, 64, 66
2,54282, Control_c, 0, 67, 18
2,54300, Control_c, 0, 64, 71
2,54320, Control_c, 0, 64, 77
2,54329, Note_on_c, 0, 52, 0
2,54339, Control_c, 0, 67, 17
2,54377, Control_c, 0, 64, 75
2,54394, Control_c, 0, 64, 72
2,54414, Control_c, 0, 64, 69
2,54435, Control_c, 0, 64, 68
2,54452, Control_c, 0, 64, 67
2,54473, Control_c, 0, 64, 65
2,54495, Control_c, 0, 64, 63
2,54515, Control_c, 0, 64, 60
2,54528, Control_c, 0, 64, 56
2,54551, Control_c, 0, 64, 49
2,54551, Note_on_c, 0, 45, 0
2,54562, Note_on_c, 0, 50, 48
2,54569, Note_on_c, 0, 38, 42
2,54573, Control_c, 0, 64, 36
2,54573, Note_on_c, 0, 66, 50
2,54588, Control_c, 0, 64, 0
2,54606, Note_on_c, 0, 67, 0
2,54704, Control_c, 0, 64, 22
2,54725, Control_c, 0, 64, 45
2,54741, Control_c, 0, 64, 64
2,54761, Control_c, 0, 64, 73
2,54768, Note_on_c, 0, 38, 0
2,54780, Control_c, 0, 64, 86
2,54799, Control_c, 0, 64, 104
2,54814, Note_on_c, 0, 50, 0
2,54819, Control_c, 0, 64, 127
2,54893, Control_c, 0, 67, 18
2,54956, Control_c, 0, 67, 19
2,54960, Note_on_c, 0, 66, 0
2,54990, Control_c, 0, 64, 104
2,55010, Control_c, 0, 64, 97
2,55030, Control_c, 0, 64, 94
2,55048, Control_c, 0, 64, 91
2,55053, Control_c, 0, 67, 20
2,55057, Note_on_c, 0, 57, 54
2,55068, Control_c, 0, 64, 86
2,55088, Control_c, 0, 64, 79
2,55106, Control_c, 0, 64, 71
2,55125, Control_c, 0, 64, 67
2,55144, Control_c, 0, 64, 64
2,55182, Control_c, 0, 64, 63
2,55203, Control_c, 0, 64, 62
2,55221, Control_c, 0, 64, 60
2,55239, Control_c, 0, 64, 58
2,55259, Control_c, 0, 64, 56
2,55279, Control_c, 0, 64, 55
2,55299, Control_c, 0, 64, 53
2,55319, Control_c, 0, 64, 51
2,55337, Control_c, 0, 64, 48
2,55358, Control_c, 0, 64, 43
2,55358, Control_c, 0, 67, 21
2,55375, Control_c, 0, 64, 37
2,55397, Control_c, 0, 64, 29
2,55414, Control_c, 0, 64, 11
2,55414, Control_c, 0, 67, 22
2,55434, Control_c, 0, 64, 0
2,55434, Control_c, 0, 67, 23
2,55470, Control_c, 0, 67, 24
2,55490, Control_c, 0, 67, 25
2,55494, Note_on_c, 0, 62, 59
2,55528, Control_c, 0, 67, 26
2,55549, Control_c, 0, 67, 27
2,55586, Control_c, 0, 67, 28
2,55655, Note_on_c, 0, 57, 0
2,55664, Control_c, 0, 67, 29
2,55722, Control_c, 0, 67, 30
2,55739, Control_c, 0, 67, 31
2,55778, Control_c, 0, 67, 38
2,55797, Control_c, 0, 67, 53
2,55817, Control_c, 0, 67, 62
2,55834, Control_c, 0, 67, 66
2,55856, Control_c, 0, 67, 68
2,55874, Control_c, 0, 67, 70
2,55894, Control_c, 0, 67, 71
2,55953, Note_on_c, 0, 60, 43
2,55953, Note_on_c, 0, 69, 46
2,56028, Control_c, 0, 67, 70
2,56081, Note_on_c, 0, 62, 0
2,56088, Control_c, 0, 67, 69
2,56122, Control_c, 0, 67, 68
2,56142, Control_c, 0, 67, 67
2,56182, Control_c, 0, 67, 66
2,56239, Control_c, 0, 67, 65
2,56393, Note_on_c, 0, 74, 57
2,56411, Note_on_c, 0, 59, 36
2,56487, Control_c, 0, 67, 64
2,56503, Note_on_c, 0, 60, 0
2,56527, Note_on_c, 0, 69, 0
2,56565, Control_c, 0, 67, 63
2,56587, Control_c, 0, 67, 62
2,56623, Control_c, 0, 67, 61
2,56643, Control_c, 0, 67, 60
2,56663, Control_c, 0, 67, 59
2,56701, Control_c, 0, 67, 58
2,56737, Control_c, 0, 67, 57
2,56779, Control_c, 0, 67, 56
2,56834, Note_on_c, 0, 72, 61
2,56838, Control_c, 0, 67, 55
2,56868, Note_on_c, 0, 62, 34
2,56910, Control_c, 0, 67, 54
2,56967, Control_c, 0, 67, 53
2,57006, Control_c, 0, 67, 52
2,57020, Note_on_c, 0, 74, 0
2,57083, Control_c, 0, 67, 51
2,57104, Control_c, 0, 67, 49
2,57125, Control_c, 0, 67, 41
2,57141, Control_c, 0, 67, 30
2,57141, Note_on_c, 0, 59, 0
2,57159, Control_c, 0, 67, 22
2,57180, Control_c, 0, 67, 15
2,57198, Control_c, 0, 67, 10
2,57217, Control_c, 0, 67, 8
2,57239, Control_c, 0, 67, 0
2,57277, Note_on_c, 0, 71, 64
2,57306, Note_on_c, 0, 67, 30
2,57378, Note_on_c, 0, 72, 0
2,57418, Note_on_c, 0, 62, 0
2,57724, Note_on_c, 0, 74, 69
2,57751, Note_on_c, 0, 66, 33
2,57851, Note_on_c, 0, 71, 0
2,57856, Note_on_c, 0, 67, 0
2,58174, Note_on_c, 0, 66, 0
2,58195, Note_on_c, 0, 79, 78
2,58212, Note_on_c, 0, 64, 37
2,58328, Note_on_c, 0, 74, 0
2,58332, Control_c, 0, 64, 14
2,58350, Control_c, 0, 64, 31
2,58370, Control_c, 0, 64, 47
2,58389, Control_c, 0, 64, 58
2,58408, Control_c, 0, 64, 61
2,58446, Control_c, 0, 64, 63
2,58464, Control_c, 0, 64, 66
2,58476, Note_on_c, 0, 64, 0
2,58488, Control_c, 0, 64, 70
2,58505, Control_c, 0, 64, 76
2,58523, Control_c, 0, 64, 86
2,58541, Control_c, 0, 64, 101
2,58563, Control_c, 0, 64, 109
2,58619, Control_c, 0, 64, 106
2,58640, Control_c, 0, 64, 104
2,58660, Control_c, 0, 64, 102
2,58676, Control_c, 0, 64, 100
2,58693, Note_on_c, 0, 52, 35
2,58698, Control_c, 0, 64, 96
2,58700, Note_on_c, 0, 62, 42
2,58719, Control_c, 0, 64, 92
2,58733, Control_c, 0, 64, 88
2,58754, Control_c, 0, 64, 85
2,58774, Control_c, 0, 64, 82
2,58794, Control_c, 0, 64, 79
2,58812, Control_c, 0, 64, 75
2,58829, Control_c, 0, 64, 71
2,58850, Control_c, 0, 64, 68
2,58869, Control_c, 0, 64, 66
2,58888, Control_c, 0, 64, 65
2,58925, Control_c, 0, 64, 64
2,58945, Control_c, 0, 64, 63
2,59002, Control_c, 0, 64, 62
2,59060, Control_c, 0, 64, 61
2,59084, Control_c, 0, 64, 60
2,59115, Note_on_c, 0, 78, 77
2,59119, Control_c, 0, 64, 59
2,59123, Note_on_c, 0, 57, 48
2,59133, Note_on_c, 0, 61, 45
2,59177, Control_c, 0, 64, 58
2,59195, Control_c, 0, 64, 57
2,59215, Control_c, 0, 64, 56
2,59235, Control_c, 0, 64, 55
2,59253, Control_c, 0, 64, 53
2,59270, Control_c, 0, 64, 51
2,59295, Control_c, 0, 64, 48
2,59295, Note_on_c, 0, 79, 0
2,59303, Note_on_c, 0, 62, 0
2,59312, Control_c, 0, 64, 45
2,59330, Control_c, 0, 64, 42
2,59350, Control_c, 0, 64, 40
2,59368, Control_c, 0, 64, 37
2,59387, Control_c, 0, 64, 35
2,59391, Note_on_c, 0, 52, 0
2,59407, Control_c, 0, 64, 33
2,59425, Control_c, 0, 64, 32
2,59447, Control_c, 0, 64, 31
2,59467, Control_c, 0, 64, 30
2,59487, Control_c, 0, 64, 29
2,59556, Note_on_c, 0, 76, 71
2,59577, Note_on_c, 0, 55, 48
2,59633, Note_on_c, 0, 57, 0
2,59694, Control_c, 0, 64, 30
2,59706, Note_on_c, 0, 78, 0
2,59713, Control_c, 0, 64, 31
2,59732, Control_c, 0, 64, 32
2,59752, Control_c, 0, 64, 34
2,59770, Control_c, 0, 64, 35
2,59791, Control_c, 0, 64, 37
2,59811, Control_c, 0, 64, 38
2,59832, Control_c, 0, 64, 40
2,59847, Control_c, 0, 64, 41
2,59867, Control_c, 0, 64, 42
2,59997, Note_on_c, 0, 81, 76
2,60003, Control_c, 0, 64, 41
2,60003, Note_on_c, 0, 54, 39
2,60025, Note_on_c, 0, 55, 0
2,60032, Note_on_c, 0, 62, 38
2,60060, Control_c, 0, 64, 40
2,60078, Control_c, 0, 64, 39
2,60098, Control_c, 0, 64, 38
2,60118, Control_c, 0, 64, 37
2,60136, Control_c, 0, 64, 36
2,60144, Note_on_c, 0, 61, 0
2,60156, Control_c, 0, 64, 34
2,60175, Control_c, 0, 64, 32
2,60197, Control_c, 0, 64, 29
2,60204, Note_on_c, 0, 76, 0
2,60213, Control_c, 0, 64, 16
2,60231, Control_c, 0, 64, 0
2,60460, Note_on_c, 0, 79, 83
2,60476, Note_on_c, 0, 64, 53
2,60488, Note_on_c, 0, 57, 41
2,60529, Note_on_c, 0, 62, 0
2,60557, Note_on_c, 0, 54, 0
2,60577, Control_c, 0, 64, 27
2,60590, Note_on_c, 0, 81, 0
2,60599, Control_c, 0, 64, 40
2,60615, Control_c, 0, 64, 51
2,60637, Control_c, 0, 64, 57
2,60653, Control_c, 0, 64, 59
2,60673, Control_c, 0, 64, 60
2,60693, Control_c, 0, 64, 62
2,60706, Note_on_c, 0, 64, 0
2,60713, Control_c, 0, 64, 64
2,60730, Control_c, 0, 64, 66
2,60751, Control_c, 0, 64, 69
2,60769, Control_c, 0, 64, 72
2,60789, Control_c, 0, 64, 74
2,60865, Control_c, 0, 64, 73
2,60885, Note_on_c, 0, 78, 78
2,60906, Control_c, 0, 64, 71
2,60911, Note_on_c, 0, 62, 45
2,60911, Note_on_c, 0, 66, 50
2,60922, Control_c, 0, 64, 69
2,60941, Note_on_c, 0, 79, 0
2,60942, Control_c, 0, 64, 65
2,60964, Control_c, 0, 64, 58
2,60982, Control_c, 0, 64, 51
2,60999, Control_c, 0, 64, 44
2,61009, Note_on_c, 0, 57, 0
2,61021, Control_c, 0, 64, 42
2,61038, Control_c, 0, 64, 44
2,61059, Control_c, 0, 64, 48
2,61077, Control_c, 0, 64, 53
2,61095, Control_c, 0, 64, 61
2,61117, Control_c, 0, 64, 66
2,61135, Control_c, 0, 64, 71
2,61152, Control_c, 0, 64, 79
2,61174, Control_c, 0, 64, 86
2,61194, Control_c, 0, 64, 90
2,61198, Note_on_c, 0, 78, 0
2,61250, Control_c, 0, 64, 89
2,61271, Control_c, 0, 64, 87
2,61287, Control_c, 0, 64, 86
2,61309, Control_c, 0, 64, 85
2,61326, Control_c, 0, 64, 83
2,61331, Note_on_c, 0, 61, 52
2,61340, Note_on_c, 0, 66, 0
2,61340, Note_on_c, 0, 76, 85
2,61349, Control_c, 0, 64, 80
2,61364, Control_c, 0, 64, 77
2,61385, Control_c, 0, 64, 74
2,61405, Control_c, 0, 64, 72
2,61556, Control_c, 0, 64, 71
2,61560, Note_on_c, 0, 62, 0
2,61616, Control_c, 0, 64, 70
2,61634, Control_c, 0, 64, 69
2,61652, Control_c, 0, 64, 68
2,61672, Control_c, 0, 64, 66
2,61692, Control_c, 0, 64, 65
2,61713, Control_c, 0, 64, 64
2,61768, Control_c, 0, 64, 63
2,61788, Control_c, 0, 64, 62
2,61803, Note_on_c, 0, 74, 81
2,61807, Control_c, 0, 64, 61
2,61821, Note_on_c, 0, 59, 57
2,61825, Control_c, 0, 64, 60
2,61834, Note_on_c, 0, 66, 43
2,61884, Control_c, 0, 64, 59
2,61890, Note_on_c, 0, 76, 0
2,61921, Control_c, 0, 64, 58
2,61940, Control_c, 0, 64, 57
2,61958, Control_c, 0, 64, 56
2,61978, Note_on_c, 0, 61, 0
2,62018, Control_c, 0, 64, 55
2,62036, Control_c, 0, 64, 54
2,62075, Control_c, 0, 64, 53
2,62210, Control_c, 0, 64, 54
2,62275, Note_on_c, 0, 47, 72
2,62364, Control_c, 0, 64, 55
2,62400, Control_c, 0, 64, 56
2,62440, Control_c, 0, 64, 57
2,62459, Control_c, 0, 64, 58
2,62478, Control_c, 0, 64, 59
2,62500, Control_c, 0, 64, 60
2,62516, Control_c, 0, 64, 62
2,62537, Control_c, 0, 64, 64
2,62545, Note_on_c, 0, 59, 0
2,62555, Control_c, 0, 64, 65
2,62578, Control_c, 0, 64, 66
2,62596, Control_c, 0, 64, 67
2,62596, Note_on_c, 0, 66, 0
2,62692, Control_c, 0, 64, 66
2,62727, Control_c, 0, 64, 65
2,62738, Note_on_c, 0, 73, 88
2,62743, Note_on_c, 0, 52, 68
2,62757, Note_on_c, 0, 68, 62
2,62787, Control_c, 0, 64, 64
2,62842, Control_c, 0, 64, 63
2,62851, Note_on_c, 0, 74, 0
2,62900, Control_c, 0, 64, 62
2,62920, Control_c, 0, 64, 60
2,62940, Control_c, 0, 64, 59
2,63038, Note_on_c, 0, 47, 0
2,63054, Control_c, 0, 64, 58
2,63094, Control_c, 0, 64, 57
2,63132, Control_c, 0, 64, 56
2,63179, Note_on_c, 0, 71, 84
2,63188, Control_c, 0, 64, 55
2,63199, Note_on_c, 0, 50, 64
2,63303, Control_c, 0, 64, 54
2,63362, Control_c, 0, 64, 53
2,63377, Note_on_c, 0, 52, 0
2,63402, Control_c, 0, 64, 52
2,63452, Note_on_c, 0, 73, 0
2,63573, Control_c, 0, 64, 51
2,63620, Note_on_c, 0, 49, 63
2,63631, Note_on_c, 0, 76, 84
2,63708, Control_c, 0, 64, 50
2,63730, Note_on_c, 0, 50, 0
2,63812, Note_on_c, 0, 71, 0
2,63823, Note_on_c, 0, 68, 0
2,63863, Control_c, 0, 64, 51
2,64074, Note_on_c, 0, 74, 78
2,64091, Note_on_c, 0, 52, 54
2,64091, Note_on_c, 0, 59, 57
2,64172, Note_on_c, 0, 49, 0
2,64202, Note_on_c, 0, 76, 0
2,64228, Control_c, 0, 64, 53
2,64245, Control_c, 0, 64, 55
2,64263, Control_c, 0, 64, 56
2,64282, Control_c, 0, 64, 57
2,64304, Control_c, 0, 64, 59
2,64322, Control_c, 0, 64, 61
2,64335, Note_on_c, 0, 59, 0
2,64456, Control_c, 0, 64, 60
2,64512, Control_c, 0, 64, 59
2,64525, Note_on_c, 0, 73, 82
2,64536, Note_on_c, 0, 57, 48
2,64536, Note_on_c, 0, 69, 61
2,64548, Note_on_c, 0, 61, 43
2,64552, Control_c, 0, 64, 57
2,64571, Control_c, 0, 64, 54
2,64589, Control_c, 0, 64, 47
2,64596, Note_on_c, 0, 74, 0
2,64609, Control_c, 0, 64, 39
2,64629, Control_c, 0, 64, 33
2,64629, Note_on_c, 0, 52, 0
2,64647, Control_c, 0, 64, 32
2,64667, Control_c, 0, 64, 33
2,64689, Control_c, 0, 64, 36
2,64705, Control_c, 0, 64, 41
2,64727, Control_c, 0, 64, 50
2,64744, Control_c, 0, 64, 62
2,64764, Control_c, 0, 64, 69
2,64783, Control_c, 0, 64, 78
2,64805, Control_c, 0, 64, 95
2,64824, Control_c, 0, 64, 127
2,64844, Note_on_c, 0, 73, 0
2,64904, Note_on_c, 0, 69, 0
2,64984, Note_on_c, 0, 64, 78
2,64988, Note_on_c, 0, 71, 76
2,64993, Note_on_c, 0, 56, 55
2,65013, Control_c, 0, 64, 106
2,65030, Control_c, 0, 64, 93
2,65051, Control_c, 0, 64, 83
2,65070, Control_c, 0, 64, 76
2,65088, Control_c, 0, 64, 70
2,65110, Control_c, 0, 64, 66
2,65130, Control_c, 0, 64, 64
2,65150, Control_c, 0, 64, 62
2,65162, Note_on_c, 0, 61, 0
2,65189, Control_c, 0, 64, 61
2,65212, Note_on_c, 0, 57, 0
2,65227, Control_c, 0, 64, 60
2,65242, Control_c, 0, 64, 59
2,65262, Control_c, 0, 64, 57
2,65283, Control_c, 0, 64, 55
2,65320, Control_c, 0, 64, 54
2,65377, Control_c, 0, 64, 53
2,65415, Control_c, 0, 64, 52
2,65451, Note_on_c, 0, 54, 58
2,65464, Note_on_c, 0, 69, 77
2,65608, Control_c, 0, 64, 53
2,65622, Note_on_c, 0, 71, 0
2,65646, Control_c, 0, 64, 54
2,65664, Control_c, 0, 64, 55
2,65687, Control_c, 0, 64, 56
2,65687, Note_on_c, 0, 64, 0
2,65704, Control_c, 0, 64, 57
2,65722, Control_c, 0, 64, 58
2,65726, Note_on_c, 0, 56, 0
2,65743, Control_c, 0, 64, 59
2,65839, Control_c, 0, 64, 58
2,65875, Control_c, 0, 64, 57
2,65896, Note_on_c, 0, 68, 70
2,65900, Note_on_c, 0, 73, 85
2,65907, Note_on_c, 0, 57, 75
2,65916, Control_c, 0, 64, 56
2,65927, Note_on_c, 0, 52, 63
2,65936, Control_c, 0, 64, 54
2,65953, Control_c, 0, 64, 50
2,65974, Control_c, 0, 64, 43
2,65994, Control_c, 0, 64, 36
2,65994, Note_on_c, 0, 69, 0
2,66010, Control_c, 0, 64, 33
2,66031, Note_on_c, 0, 54, 0
2,66053, Control_c, 0, 64, 36
2,66069, Control_c, 0, 64, 41
2,66087, Control_c, 0, 64, 50
2,66109, Control_c, 0, 64, 63
2,66127, Control_c, 0, 64, 69
2,66147, Control_c, 0, 64, 78
2,66147, Note_on_c, 0, 73, 0
2,66163, Control_c, 0, 64, 89
2,66186, Control_c, 0, 64, 103
2,66206, Control_c, 0, 64, 112
2,66223, Control_c, 0, 64, 113
2,66241, Control_c, 0, 64, 112
2,66259, Control_c, 0, 64, 109
2,66279, Control_c, 0, 64, 107
2,66288, Note_on_c, 0, 68, 0
2,66301, Control_c, 0, 64, 104
2,66317, Control_c, 0, 64, 101
2,66337, Control_c, 0, 64, 96
2,66357, Control_c, 0, 64, 90
2,66370, Note_on_c, 0, 71, 83
2,66374, Note_on_c, 0, 62, 77
2,66376, Note_on_c, 0, 50, 61
2,66381, Control_c, 0, 64, 82
2,66385, Note_on_c, 0, 66, 75
2,66396, Control_c, 0, 64, 77
2,66416, Control_c, 0, 64, 72
2,66434, Control_c, 0, 64, 69
2,66453, Control_c, 0, 64, 65
2,66471, Control_c, 0, 64, 63
2,66493, Control_c, 0, 64, 61
2,66527, Note_on_c, 0, 52, 0
2,66531, Control_c, 0, 64, 60
2,66548, Control_c, 0, 64, 59
2,66555, Note_on_c, 0, 57, 0
2,66587, Control_c, 0, 64, 58
2,66605, Control_c, 0, 64, 57
2,66644, Control_c, 0, 64, 56
2,66665, Control_c, 0, 64, 55
2,66682, Control_c, 0, 64, 53
2,66702, Control_c, 0, 64, 52
2,66722, Control_c, 0, 64, 50
2,66743, Control_c, 0, 64, 48
2,66759, Control_c, 0, 64, 45
2,66778, Control_c, 0, 64, 42
2,66798, Control_c, 0, 64, 37
2,66814, Note_on_c, 0, 69, 76
2,66818, Control_c, 0, 64, 33
2,66822, Note_on_c, 0, 61, 67
2,66837, Control_c, 0, 64, 29
2,66860, Control_c, 0, 64, 26
2,66895, Control_c, 0, 64, 25
2,66899, Note_on_c, 0, 71, 0
2,66917, Note_on_c, 0, 62, 0
2,66990, Control_c, 0, 67, 8
2,67030, Control_c, 0, 67, 9
2,67067, Control_c, 0, 67, 12
2,67085, Control_c, 0, 67, 20
2,67105, Control_c, 0, 67, 29
2,67125, Control_c, 0, 67, 34
2,67145, Control_c, 0, 67, 35
2,67260, Control_c, 0, 64, 26
2,67268, Note_on_c, 0, 68, 87
2,67282, Control_c, 0, 64, 27
2,67295, Note_on_c, 0, 59, 52
2,67318, Control_c, 0, 64, 28
2,67318, Note_on_c, 0, 61, 0
2,67318, Note_on_c, 0, 64, 53
2,67327, Note_on_c, 0, 69, 0
2,67336, Control_c, 0, 64, 30
2,67355, Control_c, 0, 64, 32
2,67378, Control_c, 0, 64, 35
2,67394, Control_c, 0, 64, 38
2,67394, Control_c, 0, 67, 34
2,67400, Note_on_c, 0, 66, 0
2,67418, Control_c, 0, 64, 42
2,67433, Control_c, 0, 64, 47
2,67434, Control_c, 0, 67, 33
2,67453, Control_c, 0, 64, 55
2,67453, Control_c, 0, 67, 32
2,67471, Control_c, 0, 64, 62
2,67491, Control_c, 0, 64, 65
2,67491, Control_c, 0, 67, 31
2,67510, Control_c, 0, 64, 68
2,67514, Note_on_c, 0, 50, 0
2,67529, Control_c, 0, 64, 74
2,67548, Control_c, 0, 64, 86
2,67548, Control_c, 0, 67, 30
2,67566, Control_c, 0, 64, 101
2,67585, Control_c, 0, 64, 111
2,67607, Control_c, 0, 64, 115
2,67607, Note_on_c, 0, 64, 0
2,67641, Control_c, 0, 64, 112
2,67662, Control_c, 0, 64, 109
2,67683, Control_c, 0, 64, 105
2,67704, Control_c, 0, 64, 100
2,67719, Control_c, 0, 64, 94
2,67733, Note_on_c, 0, 64, 81
2,67739, Note_on_c, 0, 49, 54
2,67744, Control_c, 0, 64, 87
2,67758, Control_c, 0, 64, 80
2,67777, Control_c, 0, 64, 74
2,67797, Control_c, 0, 64, 70
2,67817, Control_c, 0, 64, 67
2,67835, Control_c, 0, 64, 65
2,67853, Control_c, 0, 64, 64
2,67875, Control_c, 0, 64, 63
2,67875, Control_c, 0, 67, 31
2,67896, Control_c, 0, 64, 62
2,67912, Note_on_c, 0, 59, 0
2,67916, Control_c, 0, 64, 61
2,67970, Control_c, 0, 64, 60
2,68008, Control_c, 0, 64, 59
2,68046, Control_c, 0, 64, 58
2,68084, Control_c, 0, 64, 57
2,68102, Control_c, 0, 64, 56
2,68123, Control_c, 0, 64, 54
2,68142, Control_c, 0, 64, 53
2,68163, Control_c, 0, 64, 51
2,68177, Note_on_c, 0, 69, 75
2,68181, Control_c, 0, 64, 48
2,68203, Control_c, 0, 64, 47
2,68203, Note_on_c, 0, 54, 46
2,68203, Note_on_c, 0, 57, 46
2,68207, Note_on_c, 0, 62, 53
2,68219, Control_c, 0, 64, 46
2,68239, Control_c, 0, 64, 44
2,68243, Control_c, 0, 67, 32
2,68260, Control_c, 0, 64, 43
2,68266, Note_on_c, 0, 64, 0
2,68279, Control_c, 0, 64, 42
2,68279, Control_c, 0, 67, 33
2,68296, Control_c, 0, 64, 41
2,68309, Note_on_c, 0, 68, 0
2,68317, Control_c, 0, 64, 39
2,68317, Control_c, 0, 67, 34
2,68348, Note_on_c, 0, 49, 0
2,68358, Control_c, 0, 64, 38
2,68358, Control_c, 0, 67, 35
2,68393, Control_c, 0, 64, 37
2,68393, Control_c, 0, 67, 36
2,68450, Control_c, 0, 64, 36
2,68450, Control_c, 0, 67, 37
2,68623, Control_c, 0, 64, 35
2,68630, Note_on_c, 0, 61, 61
2,68639, Note_on_c, 0, 52, 48
2,68656, Note_on_c, 0, 56, 45
2,68669, Note_on_c, 0, 62, 0
2,68737, Control_c, 0, 64, 34
2,68755, Note_on_c, 0, 54, 0
2,68777, Control_c, 0, 67, 36
2,68804, Note_on_c, 0, 57, 0
2,68872, Control_c, 0, 67, 35
2,68986, Control_c, 0, 67, 34
2,69102, Note_on_c, 0, 59, 58
2,69108, Note_on_c, 0, 50, 47
2,69124, Note_on_c, 0, 54, 48
2,69196, Note_on_c, 0, 52, 0
2,69216, Note_on_c, 0, 61, 0
2,69221, Control_c, 0, 67, 33
2,69253, Note_on_c, 0, 56, 0
2,69255, Control_c, 0, 64, 33
2,69547, Note_on_c, 0, 61, 51
2,69637, Note_on_c, 0, 59, 0
2,70011, Note_on_c, 0, 52, 58
2,70028, Note_on_c, 0, 62, 48
2,70097, Note_on_c, 0, 61, 0
2,70269, Note_on_c, 0, 50, 0
2,70373, Control_c, 0, 67, 32
2,70386, Note_on_c, 0, 54, 0
2,70461, Note_on_c, 0, 68, 60
2,70569, Note_on_c, 0, 69, 0
2,70951, Note_on_c, 0, 45, 41
2,70971, Note_on_c, 0, 69, 52
2,71090, Note_on_c, 0, 68, 0
2,71175, Control_c, 0, 64, 34
2,71235, Control_c, 0, 64, 35
2,71253, Control_c, 0, 64, 36
2,71273, Control_c, 0, 64, 37
2,71291, Control_c, 0, 64, 38
2,71313, Control_c, 0, 64, 39
2,71368, Control_c, 0, 67, 31
2,71467, Note_on_c, 0, 61, 44
2,71629, Note_on_c, 0, 62, 0
2,71636, Control_c, 0, 64, 38
2,71658, Note_on_c, 0, 52, 0
2,71924, Note_on_c, 0, 45, 0
2,71928, Note_on_c, 0, 66, 58
2,72041, Control_c, 0, 67, 30
2,72159, Note_on_c, 0, 61, 0
2,72370, Note_on_c, 0, 64, 60
2,72378, Note_on_c, 0, 42, 39
2,72605, Note_on_c, 0, 66, 0
2,72673, Control_c, 0, 67, 31
2,72787, Control_c, 0, 64, 39
2,72828, Control_c, 0, 64, 40
2,72828, Note_on_c, 0, 47, 46
2,72833, Note_on_c, 0, 63, 53
2,72853, Note_on_c, 0, 42, 0
2,72900, Note_on_c, 0, 64, 0
2,72904, Control_c, 0, 64, 41
2,72962, Control_c, 0, 64, 42
2,72980, Control_c, 0, 64, 43
2,72999, Control_c, 0, 64, 44
2,73008, Note_on_c, 0, 69, 0
2,73022, Control_c, 0, 64, 47
2,73040, Control_c, 0, 64, 52
2,73058, Control_c, 0, 64, 60
2,73077, Control_c, 0, 64, 62
2,73269, Control_c, 0, 64, 61
2,73288, Note_on_c, 0, 59, 62
2,73297, Note_on_c, 0, 66, 66
2,73326, Control_c, 0, 64, 60
2,73363, Control_c, 0, 64, 59
2,73384, Control_c, 0, 64, 57
2,73404, Control_c, 0, 64, 55
2,73408, Control_c, 0, 67, 32
2,73426, Control_c, 0, 64, 52
2,73441, Control_c, 0, 64, 53
2,73461, Control_c, 0, 64, 54
2,73479, Control_c, 0, 64, 56
2,73501, Control_c, 0, 64, 58
2,73518, Control_c, 0, 64, 63
2,73537, Control_c, 0, 64, 66
2,73542, Control_c, 0, 67, 31
2,73559, Control_c, 0, 64, 70
2,73577, Control_c, 0, 64, 74
2,73577, Control_c, 0, 67, 30
2,73595, Control_c, 0, 64, 78
2,73617, Note_on_c, 0, 59, 0
2,73632, Control_c, 0, 64, 77
2,73653, Control_c, 0, 64, 75
2,73670, Control_c, 0, 64, 74
2,73692, Control_c, 0, 64, 73
2,73710, Control_c, 0, 64, 71
2,73726, Note_on_c, 0, 71, 78
2,73730, Control_c, 0, 64, 69
2,73751, Control_c, 0, 64, 67
2,73751, Control_c, 0, 67, 29
2,73751, Note_on_c, 0, 59, 74
2,73767, Control_c, 0, 64, 65
2,73791, Control_c, 0, 64, 63
2,73807, Control_c, 0, 64, 60
2,73826, Control_c, 0, 64, 58
2,73846, Control_c, 0, 64, 55
2,73865, Control_c, 0, 64, 53
2,73901, Control_c, 0, 64, 54
2,73913, Note_on_c, 0, 66, 0
2,73924, Control_c, 0, 64, 56
2,73942, Control_c, 0, 64, 57
2,73962, Control_c, 0, 64, 59
2,73978, Control_c, 0, 64, 60
2,73999, Control_c, 0, 64, 62
2,74049, Note_on_c, 0, 59, 0
2,74056, Control_c, 0, 64, 61
2,74113, Control_c, 0, 64, 60
2,74151, Control_c, 0, 64, 59
2,74179, Note_on_c, 0, 69, 64
2,74191, Control_c, 0, 64, 58
2,74195, Note_on_c, 0, 59, 65
2,74228, Control_c, 0, 64, 57
2,74287, Note_on_c, 0, 71, 0
2,74305, Control_c, 0, 67, 30
2,74645, Note_on_c, 0, 52, 63
2,74661, Note_on_c, 0, 69, 0
2,74665, Note_on_c, 0, 67, 58
2,74798, Note_on_c, 0, 63, 0
2,74817, Note_on_c, 0, 59, 0
2,74901, Control_c, 0, 67, 29
2,74941, Note_on_c, 0, 47, 0
2,75095, Note_on_c, 0, 59, 79
2,75105, Note_on_c, 0, 50, 67
2,75147, Control_c, 0, 67, 28
2,75244, Control_c, 0, 64, 56
2,75531, Control_c, 0, 67, 27
2,75554, Note_on_c, 0, 55, 68
2,75556, Note_on_c, 0, 64, 82
2,75563, Note_on_c, 0, 49, 57
2,75701, Note_on_c, 0, 59, 0
2,75751, Note_on_c, 0, 50, 0
2,75755, Note_on_c, 0, 52, 0
2,75762, Control_c, 0, 67, 26
2,75798, Control_c, 0, 67, 25
2,75823, Control_c, 0, 64, 55
2,75843, Control_c, 0, 64, 54
2,75843, Control_c, 0, 67, 24
2,75857, Control_c, 0, 64, 53
2,75859, Control_c, 0, 67, 22
2,75879, Control_c, 0, 64, 52
2,75896, Control_c, 0, 64, 50
2,75896, Control_c, 0, 67, 21
2,75916, Control_c, 0, 64, 48
2,75934, Control_c, 0, 64, 46
2,75934, Control_c, 0, 67, 20
2,75954, Control_c, 0, 64, 45
2,75975, Control_c, 0, 64, 44
2,75992, Control_c, 0, 64, 42
2,75999, Note_on_c, 0, 62, 76
2,76013, Control_c, 0, 64, 41
2,76013, Control_c, 0, 67, 19
2,76013, Note_on_c, 0, 47, 56
2,76030, Control_c, 0, 64, 39
2,76069, Control_c, 0, 64, 38
2,76073, Control_c, 0, 67, 18
2,76111, Control_c, 0, 67, 17
2,76111, Note_on_c, 0, 49, 0
2,76145, Control_c, 0, 67, 15
2,76166, Control_c, 0, 67, 10
2,76183, Control_c, 0, 67, 0
2,76203, Note_on_c, 0, 64, 0
2,76222, Control_c, 0, 64, 37
2,76255, Note_on_c, 0, 67, 0
2,76446, Note_on_c, 0, 46, 55
2,76450, Note_on_c, 0, 61, 63
2,76488, Note_on_c, 0, 62, 0
2,76493, Note_on_c, 0, 47, 0
2,76548, Control_c, 0, 64, 38
2,76568, Control_c, 0, 64, 39
2,76587, Control_c, 0, 64, 42
2,76606, Control_c, 0, 64, 46
2,76626, Control_c, 0, 64, 54
2,76646, Control_c, 0, 64, 63
2,76666, Control_c, 0, 64, 69
2,76683, Control_c, 0, 64, 79
2,76701, Control_c, 0, 64, 100
2,76712, Note_on_c, 0, 61, 0
2,76721, Control_c, 0, 64, 127
2,76755, Note_on_c, 0, 55, 0
2,76930, Note_on_c, 0, 78, 95
2,76944, Note_on_c, 0, 49, 51
2,76970, Control_c, 0, 64, 109
2,76990, Control_c, 0, 64, 90
2,77008, Control_c, 0, 64, 75
2,77029, Control_c, 0, 64, 63
2,77049, Control_c, 0, 64, 50
2,77068, Control_c, 0, 64, 36
2,77087, Control_c, 0, 64, 32
2,77124, Control_c, 0, 64, 34
2,77144, Control_c, 0, 64, 39
2,77162, Control_c, 0, 64, 46
2,77182, Control_c, 0, 64, 57
2,77202, Control_c, 0, 64, 66
2,77220, Control_c, 0, 64, 73
2,77238, Control_c, 0, 64, 86
2,77258, Control_c, 0, 64, 127
2,77278, Note_on_c, 0, 78, 0
2,77393, Note_on_c, 0, 54, 56
2,77393, Note_on_c, 0, 78, 104
2,77451, Control_c, 0, 64, 89
2,77471, Control_c, 0, 64, 71
2,77489, Control_c, 0, 64, 60
2,77508, Control_c, 0, 64, 50
2,77517, Note_on_c, 0, 49, 0
2,77526, Control_c, 0, 64, 48
2,77547, Control_c, 0, 64, 50
2,77566, Control_c, 0, 64, 54
2,77585, Control_c, 0, 64, 57
2,77601, Note_on_c, 0, 46, 0
2,77605, Control_c, 0, 64, 61
2,77622, Control_c, 0, 64, 66
2,77642, Control_c, 0, 64, 76
2,77662, Control_c, 0, 64, 115
2,77680, Control_c, 0, 64, 127
2,77756, Note_on_c, 0, 78, 0
2,77853, Note_on_c, 0, 52, 60
2,77861, Note_on_c, 0, 78, 101
2,77872, Note_on_c, 0, 46, 41
2,77892, Control_c, 0, 64, 102
2,77912, Control_c, 0, 64, 74
2,77916, Note_on_c, 0, 54, 0
2,77930, Control_c, 0, 64, 58
2,77948, Control_c, 0, 64, 16
2,77969, Control_c, 0, 64, 0
2,78338, Note_on_c, 0, 45, 42
2,78338, Note_on_c, 0, 71, 91
2,78349, Note_on_c, 0, 51, 50
2,78364, Note_on_c, 0, 52, 0
2,78414, Note_on_c, 0, 46, 0
2,78449, Note_on_c, 0, 78, 0
2,78487, Control_c, 0, 64, 24
2,78507, Control_c, 0, 64, 47
2,78525, Control_c, 0, 64, 58
2,78543, Control_c, 0, 64, 63
2,78566, Control_c, 0, 64, 66
2,78584, Control_c, 0, 64, 72
2,78603, Control_c, 0, 64, 87
2,78621, Control_c, 0, 64, 127
2,78664, Note_on_c, 0, 71, 0
2,78792, Note_on_c, 0, 71, 93
2,78799, Note_on_c, 0, 53, 66
2,78835, Control_c, 0, 64, 105
2,78835, Note_on_c, 0, 51, 0
2,78853, Control_c, 0, 64, 88
2,78873, Control_c, 0, 64, 72
2,78891, Control_c, 0, 64, 60
2,78909, Control_c, 0, 64, 41
2,78928, Control_c, 0, 64, 28
2,78948, Control_c, 0, 64, 27
2,78968, Control_c, 0, 64, 28
2,78987, Control_c, 0, 64, 30
2,79000, Note_on_c, 0, 54, 78
2,79006, Control_c, 0, 64, 35
2,79030, Control_c, 0, 64, 45
2,79045, Control_c, 0, 64, 62
2,79054, Note_on_c, 0, 53, 0
2,79067, Control_c, 0, 64, 69
2,79083, Control_c, 0, 64, 76
2,79102, Control_c, 0, 64, 83
2,79123, Control_c, 0, 64, 88
2,79127, Note_on_c, 0, 71, 0
2,79143, Control_c, 0, 64, 90
2,79178, Control_c, 0, 64, 88
2,79198, Control_c, 0, 64, 84
2,79218, Control_c, 0, 64, 81
2,79227, Note_on_c, 0, 74, 91
2,79239, Control_c, 0, 64, 78
2,79242, Note_on_c, 0, 53, 72
2,79242, Note_on_c, 0, 71, 87
2,79257, Control_c, 0, 64, 73
2,79273, Control_c, 0, 64, 64
2,79293, Control_c, 0, 64, 53
2,79311, Note_on_c, 0, 54, 0
2,79313, Control_c, 0, 64, 32
2,79333, Control_c, 0, 64, 0
2,79390, Control_c, 0, 64, 10
2,79409, Control_c, 0, 64, 21
2,79428, Control_c, 0, 64, 36
2,79449, Control_c, 0, 64, 56
2,79466, Control_c, 0, 64, 67
2,79486, Control_c, 0, 64, 72
2,79506, Control_c, 0, 64, 77
2,79519, Note_on_c, 0, 45, 0
2,79525, Control_c, 0, 64, 79
2,79543, Control_c, 0, 64, 80
2,79568, Note_on_c, 0, 71, 0
2,79584, Control_c, 0, 64, 78
2,79602, Control_c, 0, 64, 76
2,79619, Control_c, 0, 64, 74
2,79640, Control_c, 0, 64, 73
2,79659, Control_c, 0, 64, 70
2,79668, Note_on_c, 0, 44, 70
2,79680, Control_c, 0, 64, 68
2,79685, Note_on_c, 0, 71, 92
2,79696, Control_c, 0, 64, 64
2,79716, Control_c, 0, 64, 59
2,79738, Control_c, 0, 64, 49
2,79756, Control_c, 0, 64, 35
2,79774, Control_c, 0, 64, 20
2,79791, Control_c, 0, 64, 16
2,79832, Control_c, 0, 64, 17
2,79849, Control_c, 0, 64, 21
2,79871, Control_c, 0, 64, 27
2,79889, Control_c, 0, 64, 34
2,79907, Control_c, 0, 64, 45
2,79920, Note_on_c, 0, 53, 0
2,79927, Control_c, 0, 64, 59
2,79947, Control_c, 0, 64, 64
2,79967, Control_c, 0, 64, 65
2,79985, Control_c, 0, 64, 66
2,80064, Control_c, 0, 64, 65
2,80103, Control_c, 0, 64, 64
2,80146, Note_on_c, 0, 64, 93
2,80157, Control_c, 0, 64, 63
2,80171, Note_on_c, 0, 49, 53
2,80177, Control_c, 0, 64, 62
2,80197, Control_c, 0, 64, 60
2,80217, Control_c, 0, 64, 57
2,80237, Control_c, 0, 64, 53
2,80255, Control_c, 0, 64, 50
2,80273, Control_c, 0, 64, 47
2,80291, Control_c, 0, 64, 44
2,80312, Control_c, 0, 64, 43
2,80316, Note_on_c, 0, 44, 0
2,80332, Control_c, 0, 64, 41
2,80350, Control_c, 0, 64, 38
2,80370, Control_c, 0, 64, 35
2,80388, Note_on_c, 0, 71, 0
2,80391, Control_c, 0, 64, 33
2,80395, Note_on_c, 0, 74, 0
2,80522, Control_c, 0, 64, 34
2,80543, Control_c, 0, 64, 35
2,80562, Control_c, 0, 64, 36
2,80581, Control_c, 0, 64, 37
2,80596, Note_on_c, 0, 68, 78
2,80603, Control_c, 0, 64, 39
2,80603, Note_on_c, 0, 59, 55
2,80618, Control_c, 0, 64, 41
2,80637, Control_c, 0, 64, 44
2,80657, Control_c, 0, 64, 51
2,80675, Control_c, 0, 64, 59
2,80695, Control_c, 0, 64, 62
2,80733, Control_c, 0, 64, 64
2,80753, Control_c, 0, 64, 67
2,80772, Control_c, 0, 64, 73
2,80792, Control_c, 0, 64, 82
2,80812, Control_c, 0, 64, 96
2,80831, Control_c, 0, 64, 127
2,80848, Note_on_c, 0, 64, 0
2,81050, Note_on_c, 0, 58, 70
2,81063, Control_c, 0, 64, 120
2,81063, Note_on_c, 0, 67, 87
2,81067, Note_on_c, 0, 73, 80
2,81080, Control_c, 0, 64, 102
2,81098, Control_c, 0, 64, 92
2,81118, Control_c, 0, 64, 79
2,81138, Control_c, 0, 64, 70
2,81157, Control_c, 0, 64, 63
2,81179, Control_c, 0, 64, 58
2,81197, Control_c, 0, 64, 55
2,81202, Note_on_c, 0, 68, 0
2,81252, Note_on_c, 0, 59, 0
2,81256, Control_c, 0, 64, 54
2,81290, Control_c, 0, 64, 53
2,81330, Control_c, 0, 64, 52
2,81348, Control_c, 0, 64, 49
2,81367, Control_c, 0, 64, 45
2,81387, Control_c, 0, 64, 37
2,81407, Control_c, 0, 64, 30
2,81425, Control_c, 0, 64, 26
2,81444, Control_c, 0, 64, 25
2,81513, Note_on_c, 0, 71, 89
2,81522, Note_on_c, 0, 61, 71
2,81528, Note_on_c, 0, 52, 60
2,81543, Control_c, 0, 64, 28
2,81564, Note_on_c, 0, 49, 0
2,81566, Control_c, 0, 64, 32
2,81581, Control_c, 0, 64, 36
2,81601, Control_c, 0, 64, 43
2,81614, Note_on_c, 0, 73, 0
2,81621, Control_c, 0, 64, 53
2,81631, Note_on_c, 0, 58, 0
2,81641, Control_c, 0, 64, 61
2,81658, Control_c, 0, 64, 63
2,81678, Control_c, 0, 64, 65
2,81697, Control_c, 0, 64, 70
2,81718, Control_c, 0, 64, 79
2,81736, Control_c, 0, 64, 90
2,81744, Note_on_c, 0, 61, 0
2,81756, Control_c, 0, 64, 99
2,81774, Control_c, 0, 64, 103
2,81793, Control_c, 0, 64, 104
2,81807, Note_on_c, 0, 52, 0
2,81870, Control_c, 0, 64, 103
2,81888, Control_c, 0, 64, 102
2,81908, Control_c, 0, 64, 100
2,81928, Control_c, 0, 64, 97
2,81946, Control_c, 0, 64, 92
2,81965, Control_c, 0, 64, 88
2,81983, Note_on_c, 0, 42, 81
2,81983, Note_on_c, 0, 70, 83
2,81988, Control_c, 0, 64, 82
2,82003, Control_c, 0, 64, 74
2,82013, Note_on_c, 0, 71, 0
2,82022, Control_c, 0, 64, 64
2,82042, Control_c, 0, 64, 50
2,82062, Control_c, 0, 64, 34
2,82082, Control_c, 0, 64, 29
2,82099, Control_c, 0, 64, 30
2,82118, Control_c, 0, 64, 34
2,82141, Control_c, 0, 64, 40
2,82157, Control_c, 0, 64, 51
2,82177, Control_c, 0, 64, 63
2,82196, Control_c, 0, 64, 69
2,82211, Note_on_c, 0, 42, 0
2,82215, Control_c, 0, 64, 81
2,82235, Control_c, 0, 64, 95
2,82255, Control_c, 0, 64, 127
2,82428, Control_c, 0, 64, 112
2,82447, Control_c, 0, 64, 104
2,82465, Control_c, 0, 64, 99
2,82485, Control_c, 0, 64, 95
2,82507, Control_c, 0, 64, 92
2,82525, Control_c, 0, 64, 87
2,82538, Note_on_c, 0, 64, 92
2,82542, Control_c, 0, 64, 79
2,82547, Note_on_c, 0, 61, 75
2,82563, Control_c, 0, 64, 71
2,82569, Note_on_c, 0, 54, 61
2,82582, Control_c, 0, 64, 65
2,82600, Control_c, 0, 64, 60
2,82618, Control_c, 0, 64, 57
2,82666, Note_on_c, 0, 67, 0
2,82734, Control_c, 0, 64, 56
2,82754, Control_c, 0, 64, 55
2,82771, Control_c, 0, 64, 54
2,82791, Control_c, 0, 64, 55
2,83016, Note_on_c, 0, 56, 69
2,83016, Note_on_c, 0, 71, 88
2,83027, Note_on_c, 0, 62, 76
2,83036, Note_on_c, 0, 66, 71
2,83062, Control_c, 0, 64, 54
2,83062, Note_on_c, 0, 70, 0
2,83079, Control_c, 0, 64, 52
2,83100, Control_c, 0, 64, 50
2,83118, Control_c, 0, 64, 49
2,83125, Note_on_c, 0, 54, 0
2,83136, Note_on_c, 0, 61, 0
2,83201, Note_on_c, 0, 64, 0
2,83251, Control_c, 0, 64, 50
2,83269, Control_c, 0, 64, 52
2,83290, Control_c, 0, 64, 57
2,83309, Control_c, 0, 64, 62
2,83331, Control_c, 0, 64, 65
2,83350, Control_c, 0, 64, 66
2,83387, Control_c, 0, 64, 67
2,83405, Control_c, 0, 64, 66
2,83416, Note_on_c, 0, 66, 0
2,83445, Control_c, 0, 64, 65
2,83465, Control_c, 0, 64, 64
2,83469, Note_on_c, 0, 61, 74
2,83473, Note_on_c, 0, 58, 67
2,83473, Note_on_c, 0, 73, 97
2,83485, Control_c, 0, 64, 62
2,83485, Note_on_c, 0, 64, 73
2,83501, Control_c, 0, 64, 57
2,83518, Note_on_c, 0, 71, 0
2,83522, Control_c, 0, 64, 49
2,83542, Control_c, 0, 64, 38
2,83546, Note_on_c, 0, 62, 0
2,83560, Control_c, 0, 64, 30
2,83577, Control_c, 0, 64, 29
2,83582, Note_on_c, 0, 56, 0
2,83597, Control_c, 0, 64, 31
2,83620, Control_c, 0, 64, 34
2,83635, Control_c, 0, 64, 40
2,83657, Control_c, 0, 64, 52
2,83674, Control_c, 0, 64, 63
2,83694, Control_c, 0, 64, 67
2,83712, Control_c, 0, 64, 72
2,83732, Control_c, 0, 64, 79
2,83752, Control_c, 0, 64, 87
2,83770, Control_c, 0, 64, 90
2,83809, Control_c, 0, 64, 89
2,83823, Note_on_c, 0, 64, 0
2,83832, Control_c, 0, 64, 88
2,83849, Control_c, 0, 64, 87
2,83866, Control_c, 0, 64, 86
2,83886, Control_c, 0, 64, 83
2,83906, Control_c, 0, 64, 80
2,83926, Control_c, 0, 64, 76
2,83934, Note_on_c, 0, 74, 91
2,83939, Note_on_c, 0, 59, 75
2,83943, Control_c, 0, 64, 71
2,83961, Note_on_c, 0, 62, 75
2,83965, Control_c, 0, 64, 66
2,83983, Control_c, 0, 64, 62
2,83999, Control_c, 0, 64, 59
2,84019, Control_c, 0, 64, 58
2,84072, Note_on_c, 0, 61, 0
2,84076, Control_c, 0, 64, 57
2,84099, Note_on_c, 0, 58, 0
2,84116, Control_c, 0, 64, 56
2,84120, Note_on_c, 0, 73, 0
2,84135, Control_c, 0, 64, 54
2,84153, Control_c, 0, 64, 51
2,84174, Control_c, 0, 64, 50
2,84195, Control_c, 0, 64, 49
2,84395, Note_on_c, 0, 66, 79
2,84409, Note_on_c, 0, 57, 54
2,84481, Control_c, 0, 64, 48
2,84501, Control_c, 0, 64, 47
2,84519, Control_c, 0, 64, 46
2,84538, Control_c, 0, 64, 45
2,84848, Note_on_c, 0, 71, 85
2,84877, Note_on_c, 0, 56, 51
2,85031, Note_on_c, 0, 57, 0
2,85044, Note_on_c, 0, 66, 0
2,85289, Note_on_c, 0, 69, 79
2,85312, Note_on_c, 0, 54, 50
2,85423, Note_on_c, 0, 56, 0
2,85443, Note_on_c, 0, 71, 0
2,85762, Note_on_c, 0, 68, 78
2,85768, Note_on_c, 0, 53, 55
2,85914, Note_on_c, 0, 54, 0
2,85934, Note_on_c, 0, 69, 0
2,86221, Note_on_c, 0, 56, 71
2,86446, Note_on_c, 0, 62, 0
2,86490, Note_on_c, 0, 59, 0
2,86660, Note_on_c, 0, 61, 68
2,86679, Note_on_c, 0, 73, 83
2,86823, Note_on_c, 0, 74, 0
2,86877, Note_on_c, 0, 56, 0
2,87112, Note_on_c, 0, 59, 77
2,87261, Note_on_c, 0, 61, 0
2,87265, Note_on_c, 0, 68, 0
2,87596, Note_on_c, 0, 57, 79
2,87678, Note_on_c, 0, 53, 0
2,87703, Note_on_c, 0, 59, 0
2,87861, Control_c, 0, 64, 46
2,87919, Control_c, 0, 64, 47
2,88127, Note_on_c, 0, 54, 78
2,88178, Note_on_c, 0, 61, 50
2,88245, Control_c, 0, 64, 48
2,88282, Control_c, 0, 64, 49
2,88300, Control_c, 0, 64, 51
2,88320, Control_c, 0, 64, 54
2,88341, Control_c, 0, 64, 59
2,88358, Control_c, 0, 64, 62
2,88378, Control_c, 0, 64, 65
2,88396, Control_c, 0, 64, 71
2,88416, Control_c, 0, 64, 88
2,88436, Control_c, 0, 64, 127
2,88502, Note_on_c, 0, 54, 0
2,88551, Control_c, 0, 64, 122
2,88572, Control_c, 0, 64, 105
2,88592, Control_c, 0, 64, 98
2,88609, Control_c, 0, 64, 92
2,88628, Control_c, 0, 64, 85
2,88639, Note_on_c, 0, 54, 86
2,88643, Note_on_c, 0, 66, 77
2,88648, Control_c, 0, 64, 77
2,88666, Control_c, 0, 64, 69
2,88684, Control_c, 0, 64, 63
2,88705, Control_c, 0, 64, 59
2,88723, Control_c, 0, 64, 57
2,88743, Control_c, 0, 64, 56
2,88762, Control_c, 0, 64, 55
2,88781, Control_c, 0, 64, 53
2,88799, Control_c, 0, 64, 52
2,88838, Control_c, 0, 64, 54
2,88858, Control_c, 0, 64, 56
2,88876, Control_c, 0, 64, 59
2,88896, Control_c, 0, 64, 64
2,88916, Control_c, 0, 64, 69
2,88935, Control_c, 0, 64, 76
2,88954, Control_c, 0, 64, 84
2,88974, Control_c, 0, 64, 90
2,88979, Note_on_c, 0, 54, 0
2,89007, Note_on_c, 0, 61, 0
2,89012, Control_c, 0, 64, 89
2,89031, Control_c, 0, 64, 88
2,89051, Control_c, 0, 64, 87
2,89070, Control_c, 0, 64, 86
2,89087, Control_c, 0, 64, 85
2,89100, Note_on_c, 0, 54, 88
2,89102, Note_on_c, 0, 64, 75
2,89108, Control_c, 0, 64, 84
2,89127, Control_c, 0, 64, 82
2,89147, Control_c, 0, 64, 80
2,89165, Control_c, 0, 64, 78
2,89185, Control_c, 0, 64, 77
2,89196, Note_on_c, 0, 73, 0
2,89205, Control_c, 0, 64, 76
2,89223, Control_c, 0, 64, 75
2,89241, Control_c, 0, 64, 72
2,89261, Control_c, 0, 64, 69
2,89280, Control_c, 0, 64, 65
2,89302, Control_c, 0, 64, 63
2,89320, Control_c, 0, 64, 62
2,89435, Control_c, 0, 64, 63
2,89491, Control_c, 0, 64, 62
2,89558, Note_on_c, 0, 47, 84
2,89571, Control_c, 0, 64, 61
2,89578, Note_on_c, 0, 66, 0
2,89590, Control_c, 0, 64, 60
2,89590, Note_on_c, 0, 62, 62
2,89607, Control_c, 0, 64, 59
2,89626, Control_c, 0, 64, 58
2,89647, Control_c, 0, 64, 56
2,89667, Control_c, 0, 64, 54
2,89682, Control_c, 0, 64, 52
2,89702, Control_c, 0, 64, 51
2,89779, Control_c, 0, 64, 50
2,89818, Control_c, 0, 64, 49
2,89832, Note_on_c, 0, 54, 0
2,89857, Control_c, 0, 64, 48
2,89875, Control_c, 0, 64, 47
2,89895, Control_c, 0, 64, 46
2,89935, Control_c, 0, 64, 45
2,90003, Note_on_c, 0, 54, 66
2,90012, Note_on_c, 0, 71, 75
2,90025, Note_on_c, 0, 64, 0
2,90197, Note_on_c, 0, 69, 72
2,90210, Note_on_c, 0, 57, 0
2,90222, Control_c, 0, 64, 44
2,90259, Control_c, 0, 64, 43
2,90351, Note_on_c, 0, 71, 0
2,90414, Control_c, 0, 64, 42
2,90442, Note_on_c, 0, 59, 83
2,90447, Note_on_c, 0, 50, 65
2,90455, Control_c, 0, 64, 41
2,90455, Note_on_c, 0, 68, 86
2,90472, Control_c, 0, 64, 39
2,90505, Note_on_c, 0, 69, 0
2,90531, Control_c, 0, 64, 38
2,90566, Control_c, 0, 64, 37
2,90605, Control_c, 0, 64, 36
2,90642, Note_on_c, 0, 47, 0
2,90657, Note_on_c, 0, 54, 0
2,90874, Control_c, 0, 64, 37
2,90892, Note_on_c, 0, 66, 84
2,90896, Note_on_c, 0, 61, 77
2,90901, Note_on_c, 0, 57, 76
2,90971, Control_c, 0, 64, 38
2,90995, Note_on_c, 0, 59, 0
2,91010, Control_c, 0, 64, 39
2,91019, Note_on_c, 0, 62, 0
2,91047, Control_c, 0, 64, 40
2,91052, Note_on_c, 0, 68, 0
2,91104, Control_c, 0, 64, 41
2,91125, Control_c, 0, 64, 42
2,91142, Control_c, 0, 64, 43
2,91162, Control_c, 0, 64, 47
2,91182, Control_c, 0, 64, 56
2,91200, Control_c, 0, 64, 64
2,91221, Control_c, 0, 64, 68
2,91240, Control_c, 0, 64, 75
2,91260, Control_c, 0, 64, 86
2,91278, Control_c, 0, 64, 100
2,91296, Control_c, 0, 64, 111
2,91316, Control_c, 0, 64, 112
2,91354, Control_c, 0, 64, 107
2,91374, Control_c, 0, 64, 103
2,91392, Control_c, 0, 64, 100
2,91399, Note_on_c, 0, 65, 87
2,91408, Note_on_c, 0, 56, 80
2,91408, Note_on_c, 0, 59, 83
2,91412, Control_c, 0, 64, 95
2,91430, Control_c, 0, 64, 91
2,91449, Control_c, 0, 64, 85
2,91471, Control_c, 0, 64, 78
2,91491, Control_c, 0, 64, 71
2,91491, Note_on_c, 0, 57, 0
2,91508, Control_c, 0, 64, 66
2,91526, Control_c, 0, 64, 63
2,91548, Control_c, 0, 64, 61
2,91555, Note_on_c, 0, 61, 0
2,91566, Control_c, 0, 64, 60
2,91583, Note_on_c, 0, 50, 0
2,91583, Note_on_c, 0, 66, 0
2,91622, Control_c, 0, 64, 59
2,91661, Control_c, 0, 64, 58
2,91680, Control_c, 0, 64, 57
2,91700, Control_c, 0, 64, 56
2,91718, Control_c, 0, 64, 54
2,91738, Control_c, 0, 64, 53
2,91758, Control_c, 0, 64, 51
2,91776, Control_c, 0, 64, 50
2,91815, Control_c, 0, 64, 49
2,91837, Control_c, 0, 64, 48
2,91853, Control_c, 0, 64, 45
2,91871, Control_c, 0, 64, 41
2,91892, Control_c, 0, 64, 37
2,91914, Control_c, 0, 64, 30
2,91929, Control_c, 0, 64, 19
2,91948, Control_c, 0, 64, 0
2,91956, Note_on_c, 0, 44, 85
2,92484, Note_on_c, 0, 49, 79
2,92702, Note_on_c, 0, 44, 0
2,92940, Note_on_c, 0, 47, 77
2,93143, Note_on_c, 0, 49, 0
2,93407, Note_on_c, 0, 45, 68
2,93567, Note_on_c, 0, 47, 0
2,93875, Note_on_c, 0, 54, 60
2,93881, Note_on_c, 0, 57, 59
2,93881, Note_on_c, 0, 61, 58
2,93897, Note_on_c, 0, 56, 0
2,93923, Note_on_c, 0, 59, 0
2,93980, Note_on_c, 0, 65, 0
2,94074, Note_on_c, 0, 59, 71
2,94086, Note_on_c, 0, 56, 59
2,94109, Note_on_c, 0, 61, 0
2,94114, Note_on_c, 0, 54, 0
2,94118, Note_on_c, 0, 57, 0
2,94315, Note_on_c, 0, 66, 71
2,94334, Note_on_c, 0, 56, 0
2,94342, Note_on_c, 0, 61, 48
2,94349, Note_on_c, 0, 57, 63
2,94353, Note_on_c, 0, 59, 0
2,94465, Control_c, 0, 64, 22
2,94483, Control_c, 0, 64, 37
2,94502, Control_c, 0, 64, 53
2,94521, Control_c, 0, 64, 63
2,94543, Control_c, 0, 64, 65
2,94560, Control_c, 0, 64, 69
2,94578, Control_c, 0, 64, 74
2,94596, Note_on_c, 0, 45, 0
2,94600, Control_c, 0, 64, 83
2,94618, Control_c, 0, 64, 91
2,94636, Control_c, 0, 64, 92
2,94658, Control_c, 0, 64, 90
2,94671, Note_on_c, 0, 61, 0
2,94676, Control_c, 0, 64, 87
2,94695, Control_c, 0, 64, 83
2,94714, Control_c, 0, 64, 81
2,94734, Control_c, 0, 64, 79
2,94754, Control_c, 0, 64, 77
2,94767, Note_on_c, 0, 47, 60
2,94771, Control_c, 0, 64, 74
2,94784, Note_on_c, 0, 62, 62
2,94791, Control_c, 0, 64, 70
2,94813, Control_c, 0, 64, 66
2,94830, Control_c, 0, 64, 63
2,94849, Control_c, 0, 64, 61
2,94888, Control_c, 0, 64, 60
2,94943, Control_c, 0, 64, 59
2,94963, Control_c, 0, 64, 58
2,94986, Control_c, 0, 64, 57
2,95003, Control_c, 0, 64, 56
2,95022, Control_c, 0, 64, 55
2,95042, Control_c, 0, 64, 54
2,95060, Control_c, 0, 64, 53
2,95077, Control_c, 0, 64, 51
2,95100, Control_c, 0, 64, 49
2,95117, Control_c, 0, 64, 46
2,95135, Control_c, 0, 64, 43
2,95155, Control_c, 0, 64, 41
2,95178, Control_c, 0, 64, 40
2,95193, Control_c, 0, 64, 39
2,95221, Note_on_c, 0, 56, 54
2,95221, Note_on_c, 0, 61, 55
2,95230, Note_on_c, 0, 49, 48
2,95234, Control_c, 0, 64, 37
2,95254, Control_c, 0, 64, 35
2,95271, Control_c, 0, 64, 33
2,95286, Note_on_c, 0, 47, 0
2,95286, Note_on_c, 0, 62, 0
2,95291, Control_c, 0, 64, 31
2,95293, Control_c, 0, 67, 9
2,95311, Control_c, 0, 64, 29
2,95311, Control_c, 0, 67, 11
2,95331, Control_c, 0, 64, 28
2,95335, Control_c, 0, 67, 13
2,95335, Note_on_c, 0, 57, 0
2,95348, Control_c, 0, 64, 27
2,95348, Control_c, 0, 67, 15
2,95368, Control_c, 0, 64, 26
2,95368, Control_c, 0, 67, 17
2,95387, Control_c, 0, 64, 25
2,95387, Control_c, 0, 67, 18
2,95423, Control_c, 0, 64, 24
2,95443, Control_c, 0, 67, 17
2,95502, Control_c, 0, 64, 23
2,95502, Control_c, 0, 67, 16
2,95559, Control_c, 0, 67, 15
2,95598, Control_c, 0, 67, 14
2,95675, Control_c, 0, 67, 13
2,95702, Note_on_c, 0, 54, 56
2,95759, Note_on_c, 0, 56, 0
2,95904, Control_c, 0, 67, 12
2,96097, Control_c, 0, 67, 11
2,96161, Note_on_c, 0, 56, 45
2,96165, Note_on_c, 0, 65, 56
2,96187, Note_on_c, 0, 54, 0
2,96211, Control_c, 0, 64, 22
2,96236, Note_on_c, 0, 61, 0
2,96265, Note_on_c, 0, 66, 0
2,96308, Control_c, 0, 67, 10
2,96385, Control_c, 0, 64, 23
2,96385, Control_c, 0, 67, 9
2,96407, Control_c, 0, 64, 25
2,96427, Control_c, 0, 64, 27
2,96444, Control_c, 0, 64, 28
2,96444, Control_c, 0, 67, 8
2,96464, Control_c, 0, 64, 30
2,96464, Control_c, 0, 67, 0
2,96482, Control_c, 0, 64, 31
2,96500, Control_c, 0, 64, 33
2,96518, Control_c, 0, 64, 35
2,96539, Control_c, 0, 64, 38
2,96559, Control_c, 0, 64, 42
2,96577, Control_c, 0, 64, 48
2,96595, Control_c, 0, 64, 52
2,96611, Note_on_c, 0, 59, 48
2,96615, Control_c, 0, 64, 55
2,96636, Control_c, 0, 64, 56
2,96656, Control_c, 0, 64, 57
2,96673, Control_c, 0, 64, 59
2,96693, Control_c, 0, 64, 62
2,96702, Note_on_c, 0, 49, 0
2,96711, Control_c, 0, 64, 64
2,96731, Control_c, 0, 64, 66
2,96751, Control_c, 0, 64, 69
2,96751, Note_on_c, 0, 56, 0
2,96769, Control_c, 0, 64, 75
2,96788, Control_c, 0, 64, 81
2,96807, Control_c, 0, 64, 85
2,96827, Control_c, 0, 64, 86
2,96921, Control_c, 0, 64, 85
2,96960, Control_c, 0, 64, 83
2,96979, Control_c, 0, 64, 82
2,96999, Control_c, 0, 64, 81
2,97017, Control_c, 0, 64, 80
2,97037, Control_c, 0, 64, 79
2,97056, Control_c, 0, 64, 78
2,97076, Control_c, 0, 64, 76
2,97094, Control_c, 0, 64, 74
2,97115, Control_c, 0, 64, 73
2,97135, Control_c, 0, 64, 71
2,97135, Note_on_c, 0, 66, 50
2,97153, Control_c, 0, 64, 69
2,97170, Control_c, 0, 64, 65
2,97170, Note_on_c, 0, 57, 40
2,97184, Note_on_c, 0, 42, 34
2,97188, Note_on_c, 0, 54, 33
2,97193, Control_c, 0, 64, 61
2,97209, Control_c, 0, 64, 58
2,97230, Control_c, 0, 64, 55
2,97235, Note_on_c, 0, 59, 0
2,97244, Note_on_c, 0, 65, 0
2,97248, Control_c, 0, 64, 51
2,97269, Control_c, 0, 64, 43
2,97289, Control_c, 0, 64, 36
2,97309, Control_c, 0, 64, 31
2,97324, Control_c, 0, 64, 32
2,97344, Control_c, 0, 64, 34
2,97365, Control_c, 0, 64, 38
2,97385, Control_c, 0, 64, 44
2,97402, Control_c, 0, 64, 53
2,97422, Control_c, 0, 64, 61
2,97422, Note_on_c, 0, 42, 0
2,97443, Control_c, 0, 64, 65
2,97458, Control_c, 0, 64, 67
2,97478, Control_c, 0, 64, 70
2,97499, Control_c, 0, 64, 77
2,97509, Note_on_c, 0, 57, 0
2,97517, Control_c, 0, 64, 85
2,97529, Note_on_c, 0, 54, 0
2,97539, Control_c, 0, 64, 91
2,97556, Control_c, 0, 64, 94
2,97574, Control_c, 0, 64, 96
2,97595, Control_c, 0, 64, 98
2,97611, Control_c, 0, 64, 100
2,97623, Note_on_c, 0, 66, 0
2,97691, Control_c, 0, 64, 99
2,97708, Control_c, 0, 64, 98
2,97729, Control_c, 0, 64, 96
2,97745, Note_on_c, 0, 57, 87
2,97749, Control_c, 0, 64, 95
2,97768, Control_c, 0, 64, 93
2,97787, Control_c, 0, 64, 90
2,97805, Control_c, 0, 64, 86
2,97825, Control_c, 0, 64, 83
2,97844, Control_c, 0, 64, 78
2,97862, Control_c, 0, 64, 70
2,97884, Control_c, 0, 64, 61
2,97901, Control_c, 0, 64, 50
2,97921, Control_c, 0, 64, 42
2,97939, Control_c, 0, 64, 45
2,97959, Control_c, 0, 64, 48
2,97977, Control_c, 0, 64, 52
2,97999, Control_c, 0, 64, 58
2,98017, Control_c, 0, 64, 63
2,98037, Control_c, 0, 64, 66
2,98054, Control_c, 0, 64, 72
2,98076, Control_c, 0, 64, 82
2,98093, Control_c, 0, 64, 102
2,98113, Control_c, 0, 64, 127
2,98177, Note_on_c, 0, 57, 0
2,98307, Note_on_c, 0, 57, 93
2,98652, Note_on_c, 0, 57, 0
2,98756, Note_on_c, 0, 81, 95
2,98766, Note_on_c, 0, 57, 83
2,99112, Note_on_c, 0, 81, 0
2,99230, Note_on_c, 0, 50, 77
2,99246, Note_on_c, 0, 81, 96
2,99321, Control_c, 0, 64, 104
2,99342, Control_c, 0, 64, 78
2,99361, Control_c, 0, 64, 62
2,99380, Control_c, 0, 64, 43
2,99397, Control_c, 0, 64, 16
2,99417, Control_c, 0, 64, 15
2,99437, Control_c, 0, 64, 18
2,99456, Control_c, 0, 64, 25
2,99476, Control_c, 0, 64, 37
2,99495, Control_c, 0, 64, 55
2,99503, Note_on_c, 0, 57, 0
2,99517, Control_c, 0, 64, 67
2,99534, Control_c, 0, 64, 76
2,99554, Control_c, 0, 64, 98
2,99571, Control_c, 0, 64, 127
2,99578, Note_on_c, 0, 81, 0
2,99692, Note_on_c, 0, 81, 99
2,99720, Note_on_c, 0, 69, 60
2,99783, Note_on_c, 0, 69, 0
2,99785, Note_on_c, 0, 69, 19
2,99998, Note_on_c, 0, 69, 0
2,100108, Control_c, 0, 64, 118
2,100129, Control_c, 0, 64, 110
2,100148, Control_c, 0, 64, 106
2,100151, Note_on_c, 0, 74, 95
2,100162, Note_on_c, 0, 54, 76
2,100166, Control_c, 0, 64, 104
2,100171, Note_on_c, 0, 69, 65
2,100187, Control_c, 0, 64, 100
2,100205, Control_c, 0, 64, 93
2,100225, Control_c, 0, 64, 84
2,100243, Control_c, 0, 64, 76
2,100265, Control_c, 0, 64, 66
2,100282, Control_c, 0, 64, 61
2,100302, Control_c, 0, 64, 52
2,100322, Control_c, 0, 64, 37
2,100340, Control_c, 0, 64, 0
2,100355, Note_on_c, 0, 50, 0
2,100397, Control_c, 0, 64, 15
2,100416, Control_c, 0, 64, 34
2,100426, Note_on_c, 0, 69, 0
2,100435, Control_c, 0, 64, 56
2,100455, Control_c, 0, 64, 68
2,100473, Control_c, 0, 64, 76
2,100495, Control_c, 0, 64, 88
2,100511, Control_c, 0, 64, 103
2,100531, Control_c, 0, 64, 127
2,100589, Note_on_c, 0, 69, 79
2,100784, Note_on_c, 0, 69, 0
2,101042, Note_on_c, 0, 62, 71
2,101042, Note_on_c, 0, 78, 99
2,101118, Note_on_c, 0, 81, 0
2,101223, Note_on_c, 0, 62, 0
2,101357, Note_on_c, 0, 54, 0
2,101357, Note_on_c, 0, 74, 0
2,101376, Control_c, 0, 64, 116
2,101395, Control_c, 0, 64, 112
2,101414, Control_c, 0, 64, 109
2,101434, Control_c, 0, 64, 106
2,101456, Control_c, 0, 64, 101
2,101460, Note_on_c, 0, 47, 76
2,101469, Note_on_c, 0, 50, 75
2,101474, Control_c, 0, 64, 95
2,101490, Control_c, 0, 64, 88
2,101510, Control_c, 0, 64, 83
2,101532, Control_c, 0, 64, 78
2,101548, Control_c, 0, 64, 74
2,101568, Control_c, 0, 64, 71
2,101590, Control_c, 0, 64, 67
2,101607, Control_c, 0, 64, 65
2,101627, Control_c, 0, 64, 64
2,101783, Control_c, 0, 64, 63
2,101836, Control_c, 0, 64, 62
2,101914, Control_c, 0, 64, 61
2,101934, Control_c, 0, 64, 60
2,101934, Note_on_c, 0, 55, 85
2,101943, Note_on_c, 0, 52, 66
2,101951, Control_c, 0, 64, 59
2,101971, Control_c, 0, 64, 58
2,101990, Control_c, 0, 64, 57
2,102010, Control_c, 0, 64, 56
2,102028, Control_c, 0, 64, 55
2,102048, Control_c, 0, 64, 54
2,102068, Control_c, 0, 64, 53
2,102088, Control_c, 0, 64, 51
2,102105, Control_c, 0, 64, 50
2,102124, Control_c, 0, 64, 49
2,102131, Note_on_c, 0, 50, 0
2,102135, Note_on_c, 0, 47, 0
2,102165, Control_c, 0, 64, 48
2,102344, Note_on_c, 0, 71, 93
2,102362, Note_on_c, 0, 50, 60
2,102362, Note_on_c, 0, 54, 65
2,102371, Control_c, 0, 64, 49
2,102424, Note_on_c, 0, 55, 0
2,102450, Control_c, 0, 64, 50
2,102542, Note_on_c, 0, 78, 0
2,102546, Note_on_c, 0, 52, 0
2,102755, Control_c, 0, 64, 49
2,102805, Note_on_c, 0, 76, 93
2,102809, Note_on_c, 0, 52, 56
2,102816, Control_c, 0, 64, 48
2,102821, Note_on_c, 0, 49, 55
2,102831, Note_on_c, 0, 54, 0
2,102833, Control_c, 0, 64, 46
2,102840, Note_on_c, 0, 50, 0
2,102852, Control_c, 0, 64, 40
2,102871, Control_c, 0, 64, 33
2,102890, Control_c, 0, 64, 30
2,102909, Control_c, 0, 64, 29
2,102916, Note_on_c, 0, 71, 0
2,102950, Control_c, 0, 64, 31
2,102968, Control_c, 0, 64, 35
2,102986, Control_c, 0, 64, 43
2,103006, Control_c, 0, 64, 56
2,103024, Control_c, 0, 64, 66
2,103043, Control_c, 0, 64, 72
2,103061, Control_c, 0, 64, 83
2,103083, Control_c, 0, 64, 96
2,103100, Control_c, 0, 64, 120
2,103122, Control_c, 0, 64, 127
2,103139, Note_on_c, 0, 76, 0
2,103159, Control_c, 0, 64, 115
2,103179, Control_c, 0, 64, 107
2,103196, Control_c, 0, 64, 102
2,103216, Control_c, 0, 64, 99
2,103236, Control_c, 0, 64, 94
2,103240, Note_on_c, 0, 64, 83
2,103257, Note_on_c, 0, 74, 81
2,103261, Control_c, 0, 64, 87
2,103261, Note_on_c, 0, 47, 55
2,103275, Control_c, 0, 64, 77
2,103293, Control_c, 0, 64, 71
2,103311, Control_c, 0, 64, 67
2,103333, Control_c, 0, 64, 64
2,103345, Note_on_c, 0, 49, 0
2,103351, Control_c, 0, 64, 62
2,103372, Control_c, 0, 64, 61
2,103390, Control_c, 0, 64, 60
2,103410, Control_c, 0, 64, 59
2,103428, Control_c, 0, 64, 58
2,103486, Control_c, 0, 64, 57
2,103524, Control_c, 0, 64, 56
2,103534, Note_on_c, 0, 52, 0
2,103546, Control_c, 0, 64, 55
2,103562, Control_c, 0, 64, 53
2,103581, Control_c, 0, 64, 51
2,103601, Control_c, 0, 64, 48
2,103620, Control_c, 0, 64, 46
2,103638, Control_c, 0, 64, 44
2,103656, Control_c, 0, 64, 42
2,103676, Control_c, 0, 64, 40
2,103685, Note_on_c, 0, 45, 63
2,103698, Control_c, 0, 64, 35
2,103707, Note_on_c, 0, 69, 62
2,103707, Note_on_c, 0, 73, 86
2,103711, Note_on_c, 0, 47, 0
2,103716, Control_c, 0, 64, 25
2,103736, Control_c, 0, 64, 0
2,103808, Note_on_c, 0, 64, 0
2,103819, Note_on_c, 0, 74, 0
2,103849, Control_c, 0, 64, 14
2,103868, Control_c, 0, 64, 31
2,103888, Control_c, 0, 64, 53
2,103908, Control_c, 0, 64, 66
2,103926, Control_c, 0, 64, 72
2,103945, Control_c, 0, 64, 81
2,103963, Note_on_c, 0, 45, 0
2,103967, Control_c, 0, 64, 88
2,103984, Control_c, 0, 64, 95
2,104004, Control_c, 0, 64, 97
2,104042, Control_c, 0, 64, 95
2,104061, Control_c, 0, 64, 93
2,104099, Control_c, 0, 64, 91
2,104119, Control_c, 0, 64, 88
2,104140, Control_c, 0, 64, 85
2,104151, Note_on_c, 0, 57, 82
2,104156, Control_c, 0, 64, 82
2,104167, Note_on_c, 0, 67, 64
2,104176, Control_c, 0, 64, 79
2,104194, Control_c, 0, 64, 76
2,104214, Control_c, 0, 64, 73
2,104234, Control_c, 0, 64, 68
2,104254, Control_c, 0, 64, 65
2,104258, Note_on_c, 0, 69, 0
2,104277, Control_c, 0, 64, 62
2,104290, Control_c, 0, 64, 61
2,104313, Control_c, 0, 64, 60
2,104503, Control_c, 0, 64, 59
2,104560, Control_c, 0, 64, 58
2,104597, Control_c, 0, 64, 56
2,104613, Note_on_c, 0, 62, 83
2,104617, Control_c, 0, 64, 54
2,104622, Note_on_c, 0, 67, 0
2,104635, Note_on_c, 0, 66, 61
2,104639, Control_c, 0, 64, 52
2,104657, Control_c, 0, 64, 51
2,104715, Control_c, 0, 64, 50
2,104772, Control_c, 0, 64, 49
2,104792, Control_c, 0, 64, 48
2,104806, Note_on_c, 0, 57, 0
2,105051, Note_on_c, 0, 69, 73
2,105060, Note_on_c, 0, 60, 60
2,105239, Note_on_c, 0, 62, 0
2,105270, Control_c, 0, 64, 47
2,105274, Note_on_c, 0, 73, 0
2,105501, Note_on_c, 0, 59, 58
2,105504, Control_c, 0, 64, 45
2,105508, Note_on_c, 0, 74, 75
2,105522, Control_c, 0, 64, 42
2,105541, Control_c, 0, 64, 39
2,105575, Note_on_c, 0, 69, 0
2,105611, Note_on_c, 0, 60, 0
2,105616, Control_c, 0, 64, 41
2,105635, Control_c, 0, 64, 44
2,105656, Control_c, 0, 64, 50
2,105674, Control_c, 0, 64, 60
2,105692, Control_c, 0, 64, 68
2,105714, Control_c, 0, 64, 78
2,105727, Note_on_c, 0, 74, 0
2,105735, Control_c, 0, 64, 100
2,105751, Control_c, 0, 64, 127
2,105866, Control_c, 0, 64, 110
2,105886, Control_c, 0, 64, 102
2,105903, Control_c, 0, 64, 95
2,105923, Control_c, 0, 64, 89
2,105945, Control_c, 0, 64, 82
2,105945, Note_on_c, 0, 72, 78
2,105962, Control_c, 0, 64, 74
2,105967, Note_on_c, 0, 62, 67
2,105980, Control_c, 0, 64, 67
2,106000, Control_c, 0, 64, 60
2,106020, Control_c, 0, 64, 49
2,106038, Control_c, 0, 64, 41
2,106059, Control_c, 0, 64, 37
2,106059, Note_on_c, 0, 66, 0
2,106077, Control_c, 0, 64, 36
2,106114, Control_c, 0, 64, 39
2,106134, Control_c, 0, 64, 43
2,106154, Control_c, 0, 64, 50
2,106174, Control_c, 0, 64, 62
2,106192, Control_c, 0, 64, 67
2,106212, Control_c, 0, 64, 73
2,106223, Note_on_c, 0, 62, 0
2,106230, Control_c, 0, 64, 82
2,106250, Control_c, 0, 64, 93
2,106271, Control_c, 0, 64, 98
2,106309, Control_c, 0, 64, 96
2,106327, Control_c, 0, 64, 93
2,106345, Control_c, 0, 64, 92
2,106364, Control_c, 0, 64, 91
2,106384, Control_c, 0, 64, 90
2,106402, Note_on_c, 0, 71, 69
2,106404, Control_c, 0, 64, 87
2,106423, Control_c, 0, 64, 83
2,106423, Note_on_c, 0, 67, 61
2,106441, Control_c, 0, 64, 79
2,106463, Control_c, 0, 64, 76
2,106467, Note_on_c, 0, 59, 0
2,106481, Control_c, 0, 64, 75
2,106519, Note_on_c, 0, 72, 0
2,106521, Control_c, 0, 64, 73
2,106541, Control_c, 0, 64, 71
2,106557, Control_c, 0, 64, 68
2,106576, Control_c, 0, 64, 66
2,106652, Control_c, 0, 64, 65
2,106711, Control_c, 0, 64, 64
2,106729, Control_c, 0, 64, 63
2,106751, Control_c, 0, 64, 62
2,106807, Control_c, 0, 64, 61
2,106825, Note_on_c, 0, 47, 70
2,106846, Control_c, 0, 64, 59
2,106854, Note_on_c, 0, 66, 50
2,106856, Note_on_c, 0, 57, 56
2,106868, Control_c, 0, 64, 58
2,106883, Control_c, 0, 64, 57
2,106921, Control_c, 0, 64, 56
2,106941, Control_c, 0, 64, 55
2,106962, Control_c, 0, 64, 53
2,106980, Control_c, 0, 64, 50
2,106984, Note_on_c, 0, 67, 0
2,107000, Control_c, 0, 64, 49
2,107307, Note_on_c, 0, 52, 56
2,107307, Note_on_c, 0, 64, 58
2,107312, Note_on_c, 0, 55, 54
2,107417, Note_on_c, 0, 66, 0
2,107445, Note_on_c, 0, 57, 0
2,107498, Control_c, 0, 64, 50
2,107519, Note_on_c, 0, 47, 0
2,107548, Note_on_c, 0, 71, 0
2,107613, Control_c, 0, 64, 49
2,107756, Note_on_c, 0, 50, 56
2,107756, Note_on_c, 0, 71, 85
2,107973, Note_on_c, 0, 52, 0
2,108215, Note_on_c, 0, 76, 93
2,108224, Note_on_c, 0, 48, 72
2,108380, Control_c, 0, 64, 48
2,108388, Note_on_c, 0, 50, 0
2,108486, Note_on_c, 0, 71, 0
2,108659, Note_on_c, 0, 74, 90
2,108661, Note_on_c, 0, 52, 76
2,108674, Note_on_c, 0, 47, 68
2,108768, Note_on_c, 0, 48, 0
2,108805, Control_c, 0, 64, 47
2,108822, Control_c, 0, 64, 46
2,108841, Control_c, 0, 64, 44
2,108848, Note_on_c, 0, 76, 0
2,108864, Control_c, 0, 64, 43
2,108883, Control_c, 0, 64, 42
2,108919, Note_on_c, 0, 55, 0
2,108923, Control_c, 0, 64, 41
2,108938, Control_c, 0, 64, 40
2,108958, Control_c, 0, 64, 39
2,109161, Note_on_c, 0, 72, 90
2,109175, Note_on_c, 0, 57, 67
2,109180, Note_on_c, 0, 45, 55
2,109236, Note_on_c, 0, 74, 0
2,109266, Control_c, 0, 64, 38
2,109275, Note_on_c, 0, 47, 0
2,109337, Note_on_c, 0, 52, 0
2,109346, Note_on_c, 0, 64, 0
2,109363, Control_c, 0, 64, 37
2,109382, Control_c, 0, 64, 36
2,109402, Control_c, 0, 64, 35
2,109459, Control_c, 0, 64, 34
2,109678, Note_on_c, 0, 64, 88
2,109689, Note_on_c, 0, 55, 46
2,109883, Note_on_c, 0, 57, 0
2,110146, Note_on_c, 0, 69, 81
2,110166, Note_on_c, 0, 54, 55
2,110287, Note_on_c, 0, 55, 0
2,110324, Note_on_c, 0, 64, 0
2,110400, Control_c, 0, 64, 33
2,110514, Control_c, 0, 64, 32
2,110610, Note_on_c, 0, 67, 82
2,110614, Control_c, 0, 64, 31
2,110621, Note_on_c, 0, 52, 53
2,110632, Control_c, 0, 64, 30
2,110707, Control_c, 0, 64, 29
2,110755, Note_on_c, 0, 69, 0
2,110786, Note_on_c, 0, 54, 0
2,110844, Control_c, 0, 64, 28
2,110860, Control_c, 0, 64, 27
2,110879, Control_c, 0, 64, 26
2,111048, Note_on_c, 0, 66, 76
2,111052, Control_c, 0, 64, 25
2,111060, Note_on_c, 0, 47, 46
2,111079, Note_on_c, 0, 50, 40
2,111206, Note_on_c, 0, 52, 0
2,111208, Note_on_c, 0, 67, 0
2,111224, Note_on_c, 0, 45, 0
2,111456, Control_c, 0, 64, 26
2,111512, Control_c, 0, 64, 27
2,111517, Note_on_c, 0, 62, 60
2,111522, Note_on_c, 0, 54, 54
2,111574, Control_c, 0, 64, 28
2,111574, Note_on_c, 0, 72, 0
2,111591, Control_c, 0, 64, 29
2,111613, Control_c, 0, 64, 30
2,111628, Control_c, 0, 64, 33
2,111646, Note_on_c, 0, 50, 0
2,111648, Control_c, 0, 64, 37
2,111666, Control_c, 0, 64, 42
2,111687, Control_c, 0, 64, 48
2,111709, Control_c, 0, 64, 55
2,111725, Control_c, 0, 64, 61
2,111743, Control_c, 0, 64, 63
2,111785, Control_c, 0, 64, 64
2,111800, Control_c, 0, 64, 66
2,111820, Control_c, 0, 64, 68
2,111840, Control_c, 0, 64, 69
2,111936, Control_c, 0, 64, 68
2,111974, Control_c, 0, 64, 67
2,111989, Note_on_c, 0, 71, 86
2,111993, Control_c, 0, 64, 66
2,112007, Note_on_c, 0, 59, 50
2,112012, Control_c, 0, 64, 65
2,112012, Note_on_c, 0, 67, 65
2,112032, Control_c, 0, 64, 64
2,112051, Control_c, 0, 64, 63
2,112071, Control_c, 0, 64, 61
2,112080, Note_on_c, 0, 66, 0
2,112089, Control_c, 0, 64, 59
2,112109, Control_c, 0, 64, 56
2,112128, Control_c, 0, 64, 53
2,112148, Control_c, 0, 64, 49
2,112148, Note_on_c, 0, 54, 0
2,112167, Control_c, 0, 64, 44
2,112185, Control_c, 0, 64, 41
2,112206, Control_c, 0, 64, 39
2,112226, Control_c, 0, 64, 38
2,112241, Control_c, 0, 64, 37
2,112261, Control_c, 0, 64, 35
2,112282, Control_c, 0, 64, 34
2,112302, Control_c, 0, 64, 32
2,112321, Control_c, 0, 64, 30
2,112361, Control_c, 0, 64, 29
2,112395, Control_c, 0, 64, 28
2,112442, Note_on_c, 0, 57, 58
2,112453, Note_on_c, 0, 50, 44
2,112453, Note_on_c, 0, 62, 0
2,112457, Note_on_c, 0, 66, 63
2,112474, Control_c, 0, 64, 27
2,112559, Note_on_c, 0, 59, 0
2,112570, Control_c, 0, 64, 26
2,112602, Note_on_c, 0, 47, 0
2,112618, Note_on_c, 0, 67, 0
2,112780, Control_c, 0, 64, 25
2,112892, Note_on_c, 0, 64, 63
2,112915, Note_on_c, 0, 55, 51
2,113012, Note_on_c, 0, 57, 0
2,113031, Note_on_c, 0, 66, 0
2,113049, Control_c, 0, 64, 24
2,113106, Control_c, 0, 64, 23
2,113343, Note_on_c, 0, 62, 61
2,113350, Note_on_c, 0, 54, 51
2,113433, Note_on_c, 0, 64, 0
2,113458, Note_on_c, 0, 55, 0
2,113492, Control_c, 0, 64, 22
2,113827, Note_on_c, 0, 55, 39
2,113827, Note_on_c, 0, 60, 57
2,113842, Note_on_c, 0, 52, 39
2,113853, Note_on_c, 0, 62, 0
2,113915, Control_c, 0, 64, 23
2,113919, Note_on_c, 0, 54, 0
2,113957, Note_on_c, 0, 50, 0
2,114028, Control_c, 0, 64, 24
2,114085, Control_c, 0, 64, 25
2,114184, Control_c, 0, 64, 26
2,114268, Note_on_c, 0, 69, 69
2,114299, Note_on_c, 0, 54, 47
2,114308, Note_on_c, 0, 57, 45
2,114350, Note_on_c, 0, 55, 0
2,114361, Note_on_c, 0, 52, 0
2,114376, Note_on_c, 0, 71, 0
2,114520, Note_on_c, 0, 60, 0
2,114731, Note_on_c, 0, 55, 44
2,114736, Note_on_c, 0, 59, 59
2,114773, Note_on_c, 0, 54, 0
2,114782, Note_on_c, 0, 57, 0
2,114799, Control_c, 0, 64, 27
2,115196, Note_on_c, 0, 52, 32
2,115196, Note_on_c, 0, 67, 62
2,115201, Note_on_c, 0, 64, 55
2,115209, Note_on_c, 0, 55, 0
2,115271, Note_on_c, 0, 69, 0
2,115353, Control_c, 0, 64, 33
2,115371, Control_c, 0, 64, 42
2,115391, Control_c, 0, 64, 57
2,115400, Note_on_c, 0, 64, 0
2,115410, Control_c, 0, 64, 65
2,115434, Control_c, 0, 64, 69
2,115434, Note_on_c, 0, 59, 0
2,115449, Control_c, 0, 64, 73
2,115469, Control_c, 0, 64, 77
2,115479, Note_on_c, 0, 52, 0
2,115488, Control_c, 0, 64, 80
2,115507, Control_c, 0, 64, 81
2,115545, Control_c, 0, 64, 80
2,115566, Control_c, 0, 64, 79
2,115586, Control_c, 0, 64, 78
2,115606, Control_c, 0, 64, 77
2,115641, Control_c, 0, 64, 75
2,115663, Control_c, 0, 64, 73
2,115672, Note_on_c, 0, 57, 57
2,115672, Note_on_c, 0, 64, 55
2,115674, Note_on_c, 0, 48, 47
2,115681, Control_c, 0, 64, 71
2,115699, Control_c, 0, 64, 70
2,115718, Control_c, 0, 64, 69
2,115736, Control_c, 0, 64, 68
2,115756, Control_c, 0, 64, 67
2,115767, Note_on_c, 0, 67, 0
2,115775, Control_c, 0, 64, 65
2,115798, Control_c, 0, 64, 63
2,115815, Control_c, 0, 64, 62
2,115835, Control_c, 0, 64, 61
2,115872, Control_c, 0, 64, 60
2,115891, Control_c, 0, 64, 59
2,115911, Control_c, 0, 64, 58
2,115930, Control_c, 0, 64, 57
2,115949, Control_c, 0, 64, 55
2,115968, Control_c, 0, 64, 54
2,115987, Control_c, 0, 64, 53
2,116007, Control_c, 0, 64, 52
2,116028, Control_c, 0, 64, 51
2,116044, Control_c, 0, 64, 49
2,116064, Control_c, 0, 64, 47
2,116083, Control_c, 0, 64, 45
2,116102, Control_c, 0, 64, 44
2,116114, Note_on_c, 0, 45, 62
2,116125, Note_on_c, 0, 66, 52
2,116140, Control_c, 0, 64, 43
2,116160, Note_on_c, 0, 64, 0
2,116179, Control_c, 0, 64, 41
2,116197, Control_c, 0, 64, 40
2,116235, Control_c, 0, 64, 39
2,116290, Note_on_c, 0, 48, 0
2,116323, Note_on_c, 0, 64, 62
2,116334, Note_on_c, 0, 66, 0
2,116581, Note_on_c, 0, 50, 53
2,116581, Note_on_c, 0, 66, 59
2,116585, Control_c, 0, 64, 38
2,116610, Note_on_c, 0, 62, 44
2,116638, Note_on_c, 0, 64, 0
2,116658, Control_c, 0, 64, 37
2,116706, Note_on_c, 0, 45, 0
2,116802, Note_on_c, 0, 57, 0
2,116909, Control_c, 0, 64, 36
2,116965, Control_c, 0, 64, 35
2,117038, Note_on_c, 0, 48, 48
2,117081, Control_c, 0, 64, 34
2,117131, Note_on_c, 0, 50, 0
2,117505, Note_on_c, 0, 62, 0
2,117514, Note_on_c, 0, 67, 45
2,117523, Note_on_c, 0, 47, 42
2,117527, Note_on_c, 0, 55, 41
2,117552, Note_on_c, 0, 66, 0
2,117574, Note_on_c, 0, 48, 0
2,117620, Control_c, 0, 64, 35
2,117638, Control_c, 0, 64, 36
2,117656, Control_c, 0, 64, 39
2,117677, Control_c, 0, 64, 42
2,117695, Control_c, 0, 64, 47
2,117716, Control_c, 0, 64, 56
2,117737, Control_c, 0, 64, 67
2,117737, Note_on_c, 0, 47, 0
2,117753, Control_c, 0, 64, 74
2,117774, Control_c, 0, 64, 87
2,117792, Control_c, 0, 64, 100
2,117810, Control_c, 0, 64, 122
2,117830, Control_c, 0, 64, 127
2,117835, Note_on_c, 0, 55, 0
2,117891, Control_c, 0, 64, 115
2,117907, Control_c, 0, 64, 111
2,117925, Control_c, 0, 64, 110
2,117947, Control_c, 0, 64, 109
2,117968, Control_c, 0, 64, 104
2,117968, Note_on_c, 0, 67, 0
2,117984, Control_c, 0, 64, 99
2,118002, Control_c, 0, 64, 94
2,118023, Control_c, 0, 64, 89
2,118023, Note_on_c, 0, 62, 59
2,118036, Note_on_c, 0, 50, 48
2,118041, Control_c, 0, 64, 85
2,118059, Control_c, 0, 64, 81
2,118078, Control_c, 0, 64, 75
2,118100, Control_c, 0, 64, 68
2,118117, Control_c, 0, 64, 61
2,118140, Control_c, 0, 64, 53
2,118158, Control_c, 0, 64, 47
2,118193, Control_c, 0, 64, 50
2,118216, Control_c, 0, 64, 52
2,118234, Control_c, 0, 64, 56
2,118252, Control_c, 0, 64, 62
2,118271, Control_c, 0, 64, 67
2,118291, Control_c, 0, 64, 75
2,118312, Control_c, 0, 64, 85
2,118329, Control_c, 0, 64, 97
2,118340, Note_on_c, 0, 62, 0
2,118350, Control_c, 0, 64, 102
2,118386, Control_c, 0, 64, 101
2,118406, Control_c, 0, 64, 98
2,118427, Control_c, 0, 64, 95
2,118443, Control_c, 0, 64, 93
2,118463, Control_c, 0, 64, 89
2,118483, Control_c, 0, 64, 84
2,118497, Note_on_c, 0, 62, 67
2,118501, Control_c, 0, 64, 77
2,118512, Note_on_c, 0, 55, 51
2,118520, Control_c, 0, 64, 71
2,118541, Control_c, 0, 64, 64
2,118560, Control_c, 0, 64, 58
2,118581, Control_c, 0, 64, 55
2,118598, Control_c, 0, 64, 56
2,118618, Control_c, 0, 64, 57
2,118626, Note_on_c, 0, 50, 0
2,118636, Control_c, 0, 64, 58
2,118655, Control_c, 0, 64, 60
2,118674, Control_c, 0, 64, 63
2,118695, Control_c, 0, 64, 68
2,118715, Control_c, 0, 64, 76
2,118733, Control_c, 0, 64, 88
2,118752, Control_c, 0, 64, 99
2,118765, Note_on_c, 0, 62, 0
2,118774, Control_c, 0, 64, 100
2,118809, Control_c, 0, 64, 97
2,118830, Control_c, 0, 64, 95
2,118839, Note_on_c, 0, 55, 0
2,118848, Control_c, 0, 64, 93
2,118866, Control_c, 0, 64, 91
2,118887, Control_c, 0, 64, 89
2,118906, Control_c, 0, 64, 85
2,118924, Control_c, 0, 64, 80
2,118942, Control_c, 0, 64, 76
2,118949, Note_on_c, 0, 71, 69
2,118967, Control_c, 0, 64, 71
2,118967, Note_on_c, 0, 62, 42
2,118974, Note_on_c, 0, 54, 42
2,118983, Control_c, 0, 64, 65
2,119002, Control_c, 0, 64, 59
2,119020, Control_c, 0, 64, 51
2,119042, Control_c, 0, 64, 45
2,119059, Control_c, 0, 64, 44
2,119098, Control_c, 0, 64, 46
2,119118, Control_c, 0, 64, 49
2,119135, Control_c, 0, 64, 54
2,119154, Control_c, 0, 64, 60
2,119174, Control_c, 0, 64, 66
2,119178, Note_on_c, 0, 54, 0
2,119194, Control_c, 0, 64, 72
2,119213, Control_c, 0, 64, 84
2,119231, Control_c, 0, 64, 102
2,119244, Note_on_c, 0, 71, 0
2,119254, Control_c, 0, 64, 127
2,119384, Control_c, 0, 64, 112
2,119405, Control_c, 0, 64, 104
2,119418, Note_on_c, 0, 71, 68
2,119425, Control_c, 0, 64, 97
2,119444, Control_c, 0, 64, 91
2,119454, Note_on_c, 0, 55, 39
2,119463, Control_c, 0, 64, 88
2,119463, Note_on_c, 0, 52, 40
2,119481, Control_c, 0, 64, 87
2,119500, Control_c, 0, 64, 86
2,119518, Control_c, 0, 64, 82
2,119540, Control_c, 0, 64, 76
2,119564, Control_c, 0, 64, 69
2,119576, Control_c, 0, 64, 64
2,119595, Control_c, 0, 64, 61
2,119619, Control_c, 0, 64, 60
2,119619, Note_on_c, 0, 62, 0
2,119635, Control_c, 0, 64, 59
2,119653, Control_c, 0, 64, 58
2,119674, Control_c, 0, 64, 57
2,119694, Control_c, 0, 64, 55
2,119711, Control_c, 0, 64, 52
2,119731, Control_c, 0, 64, 46
2,119749, Control_c, 0, 64, 39
2,119770, Control_c, 0, 64, 34
2,119789, Control_c, 0, 64, 29
2,119808, Control_c, 0, 64, 21
2,119826, Control_c, 0, 64, 0
2,119893, Note_on_c, 0, 79, 84
2,120155, Control_c, 0, 64, 28
2,120172, Control_c, 0, 64, 50
2,120194, Control_c, 0, 64, 62
2,120210, Control_c, 0, 64, 66
2,120231, Control_c, 0, 64, 70
2,120238, Note_on_c, 0, 79, 0
2,120247, Control_c, 0, 64, 77
2,120267, Control_c, 0, 64, 88
2,120287, Control_c, 0, 64, 98
2,120307, Control_c, 0, 64, 104
2,120326, Control_c, 0, 64, 106
2,120346, Control_c, 0, 64, 103
2,120366, Note_on_c, 0, 79, 91
2,120370, Control_c, 0, 64, 97
2,120386, Control_c, 0, 64, 88
2,120386, Note_on_c, 0, 59, 45
2,120396, Note_on_c, 0, 64, 45
2,120402, Control_c, 0, 64, 76
2,120421, Control_c, 0, 64, 65
2,120442, Control_c, 0, 64, 55
2,120460, Control_c, 0, 64, 41
2,120480, Control_c, 0, 64, 28
2,120500, Control_c, 0, 64, 27
2,120536, Control_c, 0, 64, 30
2,120556, Control_c, 0, 64, 38
2,120575, Control_c, 0, 64, 51
2,120595, Control_c, 0, 64, 62
2,120614, Control_c, 0, 64, 66
2,120632, Control_c, 0, 64, 71
2,120654, Control_c, 0, 64, 82
2,120672, Control_c, 0, 64, 105
2,120681, Note_on_c, 0, 79, 0
2,120690, Control_c, 0, 64, 127
2,120765, Note_on_c, 0, 64, 0
2,120809, Note_on_c, 0, 79, 90
2,121081, Note_on_c, 0, 71, 0
2,121119, Note_on_c, 0, 52, 0
2,121130, Note_on_c, 0, 79, 0
2,121136, Note_on_c, 0, 59, 0
2,121267, Note_on_c, 0, 55, 0
2,121285, Note_on_c, 0, 73, 82
2,121324, Note_on_c, 0, 67, 47
2,121382, Control_c, 0, 64, 103
2,121400, Control_c, 0, 64, 91
2,121421, Control_c, 0, 64, 82
2,121442, Control_c, 0, 64, 75
2,121458, Control_c, 0, 64, 68
2,121479, Control_c, 0, 64, 64
2,121499, Control_c, 0, 64, 63
2,121518, Control_c, 0, 64, 62
2,121633, Control_c, 0, 64, 61
2,121671, Control_c, 0, 64, 60
2,121688, Control_c, 0, 64, 59
2,121708, Control_c, 0, 64, 58
2,121723, Note_on_c, 0, 52, 54
2,121729, Control_c, 0, 64, 57
2,121747, Control_c, 0, 64, 56
2,121763, Note_on_c, 0, 50, 47
2,121765, Control_c, 0, 64, 55
2,121784, Control_c, 0, 64, 53
2,121804, Control_c, 0, 64, 52
2,121824, Control_c, 0, 64, 50
2,121842, Control_c, 0, 64, 49
2,121862, Control_c, 0, 64, 47
2,121880, Control_c, 0, 64, 46
2,121900, Control_c, 0, 64, 45
2,122169, Control_c, 0, 64, 46
2,122184, Note_on_c, 0, 49, 39
2,122193, Note_on_c, 0, 50, 0
2,122193, Note_on_c, 0, 57, 44
2,122200, Note_on_c, 0, 76, 71
2,122209, Control_c, 0, 64, 47
2,122209, Note_on_c, 0, 52, 0
2,122227, Control_c, 0, 64, 48
2,122248, Control_c, 0, 64, 50
2,122257, Note_on_c, 0, 67, 0
2,122261, Note_on_c, 0, 73, 0
2,122266, Control_c, 0, 64, 54
2,122285, Control_c, 0, 64, 59
2,122306, Control_c, 0, 64, 61
2,122326, Control_c, 0, 64, 64
2,122341, Control_c, 0, 64, 67
2,122360, Control_c, 0, 64, 73
2,122380, Control_c, 0, 64, 85
2,122399, Control_c, 0, 64, 102
2,122423, Control_c, 0, 64, 127
2,122423, Note_on_c, 0, 57, 0
2,122432, Note_on_c, 0, 76, 0
2,122516, Control_c, 0, 64, 115
2,122534, Control_c, 0, 64, 106
2,122556, Control_c, 0, 64, 99
2,122571, Control_c, 0, 64, 93
2,122591, Control_c, 0, 64, 86
2,122611, Control_c, 0, 64, 79
2,122626, Note_on_c, 0, 61, 60
2,122631, Control_c, 0, 64, 73
2,122642, Note_on_c, 0, 45, 39
2,122648, Note_on_c, 0, 55, 38
2,122652, Control_c, 0, 64, 68
2,122667, Control_c, 0, 64, 65
2,122687, Control_c, 0, 64, 63
2,122709, Control_c, 0, 64, 62
2,122725, Control_c, 0, 64, 61
2,122744, Control_c, 0, 64, 60
2,122764, Control_c, 0, 64, 59
2,122786, Control_c, 0, 64, 58
2,122803, Control_c, 0, 64, 57
2,122803, Note_on_c, 0, 49, 0
2,122822, Control_c, 0, 64, 56
2,122841, Control_c, 0, 64, 55
2,122861, Control_c, 0, 64, 54
2,122881, Control_c, 0, 64, 53
2,122899, Control_c, 0, 64, 51
2,122917, Control_c, 0, 64, 50
2,122937, Control_c, 0, 64, 49
2,122995, Control_c, 0, 64, 48
2,123033, Control_c, 0, 64, 47
2,123053, Control_c, 0, 64, 46
2,123084, Note_on_c, 0, 66, 63
2,123092, Control_c, 0, 64, 45
2,123101, Note_on_c, 0, 50, 38
2,123108, Note_on_c, 0, 54, 39
2,123164, Note_on_c, 0, 61, 0
2,123258, Note_on_c, 0, 45, 0
2,123258, Note_on_c, 0, 55, 0
2,123523, Note_on_c, 0, 69, 63
2,123534, Note_on_c, 0, 48, 48
2,123556, Control_c, 0, 64, 46
2,123556, Note_on_c, 0, 50, 0
2,123556, Note_on_c, 0, 64, 48
2,123609, Control_c, 0, 64, 47
2,123629, Control_c, 0, 64, 48
2,123649, Control_c, 0, 64, 49
2,123664, Note_on_c, 0, 66, 0
2,123669, Control_c, 0, 64, 50
2,123684, Control_c, 0, 64, 52
2,123704, Control_c, 0, 64, 56
2,123724, Control_c, 0, 64, 61
2,123745, Control_c, 0, 64, 64
2,123763, Control_c, 0, 64, 67
2,123783, Control_c, 0, 64, 72
2,123801, Control_c, 0, 64, 78
2,123821, Control_c, 0, 64, 81
2,123843, Note_on_c, 0, 64, 0
2,123861, Control_c, 0, 64, 80
2,123880, Control_c, 0, 64, 79
2,123897, Control_c, 0, 64, 77
2,123918, Control_c, 0, 64, 75
2,123936, Control_c, 0, 64, 72
2,123954, Control_c, 0, 64, 71
2,123966, Note_on_c, 0, 74, 72
2,123973, Control_c, 0, 64, 69
2,123985, Note_on_c, 0, 62, 58
2,123989, Note_on_c, 0, 47, 43
2,123994, Control_c, 0, 64, 67
2,124014, Control_c, 0, 64, 64
2,124032, Control_c, 0, 64, 61
2,124047, Note_on_c, 0, 48, 0
2,124051, Control_c, 0, 64, 58
2,124069, Control_c, 0, 64, 55
2,124091, Control_c, 0, 64, 54
2,124095, Note_on_c, 0, 69, 0
2,124108, Control_c, 0, 64, 53
2,124127, Control_c, 0, 64, 52
2,124147, Control_c, 0, 64, 51
2,124401, Note_on_c, 0, 72, 70
2,124421, Note_on_c, 0, 45, 49
2,124436, Control_c, 0, 64, 50
2,124472, Control_c, 0, 64, 49
2,124512, Control_c, 0, 64, 48
2,124550, Note_on_c, 0, 47, 0
2,124554, Note_on_c, 0, 74, 0
2,124862, Note_on_c, 0, 71, 61
2,124867, Note_on_c, 0, 43, 50
2,124894, Control_c, 0, 64, 49
2,124974, Note_on_c, 0, 72, 0
2,124990, Control_c, 0, 64, 50
2,124997, Note_on_c, 0, 45, 0
2,125313, Note_on_c, 0, 47, 63
2,125517, Note_on_c, 0, 54, 0
2,125645, Control_c, 0, 64, 49
2,125786, Note_on_c, 0, 52, 62
2,125819, Note_on_c, 0, 44, 51
2,125956, Note_on_c, 0, 43, 0
2,125969, Note_on_c, 0, 47, 0
2,126229, Note_on_c, 0, 50, 53
2,126242, Note_on_c, 0, 59, 69
2,126343, Note_on_c, 0, 52, 0
2,126361, Note_on_c, 0, 62, 0
2,126686, Note_on_c, 0, 44, 0
2,126707, Note_on_c, 0, 64, 65
2,126717, Note_on_c, 0, 49, 46
2,126726, Note_on_c, 0, 45, 36
2,126750, Note_on_c, 0, 71, 0
2,126757, Control_c, 0, 64, 50
2,126770, Note_on_c, 0, 59, 0
2,126793, Note_on_c, 0, 50, 0
2,126912, Control_c, 0, 64, 51
2,126930, Control_c, 0, 64, 53
2,126950, Control_c, 0, 64, 59
2,126970, Control_c, 0, 64, 64
2,126989, Control_c, 0, 64, 69
2,127008, Control_c, 0, 64, 78
2,127029, Control_c, 0, 64, 88
2,127041, Note_on_c, 0, 64, 0
2,127045, Control_c, 0, 64, 104
2,127067, Control_c, 0, 64, 107
2,127086, Control_c, 0, 64, 106
2,127104, Control_c, 0, 64, 101
2,127121, Control_c, 0, 64, 95
2,127141, Control_c, 0, 64, 91
2,127161, Control_c, 0, 64, 87
2,127165, Note_on_c, 0, 50, 54
2,127172, Note_on_c, 0, 62, 54
2,127172, Note_on_c, 0, 64, 74
2,127179, Control_c, 0, 64, 85
2,127201, Control_c, 0, 64, 83
2,127220, Control_c, 0, 64, 80
2,127238, Control_c, 0, 64, 75
2,127256, Control_c, 0, 64, 70
2,127277, Control_c, 0, 64, 66
2,127297, Control_c, 0, 64, 63
2,127315, Control_c, 0, 64, 61
2,127374, Note_on_c, 0, 49, 0
2,127392, Control_c, 0, 64, 60
2,127431, Control_c, 0, 64, 59
2,127451, Control_c, 0, 64, 58
2,127488, Control_c, 0, 64, 57
2,127526, Control_c, 0, 64, 56
2,127547, Control_c, 0, 64, 55
2,127564, Control_c, 0, 64, 54
2,127584, Control_c, 0, 64, 52
2,127602, Control_c, 0, 64, 51
2,127617, Note_on_c, 0, 69, 68
2,127622, Control_c, 0, 64, 49
2,127642, Note_on_c, 0, 61, 50
2,127646, Control_c, 0, 64, 47
2,127660, Note_on_c, 0, 52, 49
2,127664, Control_c, 0, 64, 46
2,127679, Control_c, 0, 64, 45
2,127716, Note_on_c, 0, 62, 0
2,127721, Control_c, 0, 64, 44
2,127731, Note_on_c, 0, 64, 0
2,127737, Control_c, 0, 64, 43
2,127776, Control_c, 0, 64, 42
2,127816, Note_on_c, 0, 50, 0
2,128046, Control_c, 0, 64, 43
2,128083, Control_c, 0, 64, 44
2,128087, Note_on_c, 0, 67, 73
2,128122, Control_c, 0, 64, 45
2,128179, Control_c, 0, 64, 46
2,128215, Note_on_c, 0, 69, 0
2,128371, Control_c, 0, 64, 45
2,128530, Note_on_c, 0, 46, 63
2,128545, Note_on_c, 0, 66, 69
2,128615, Note_on_c, 0, 67, 0
2,128639, Control_c, 0, 64, 44
2,128745, Note_on_c, 0, 45, 0
2,129015, Note_on_c, 0, 49, 75
2,129272, Note_on_c, 0, 52, 0
2,129314, Note_on_c, 0, 61, 0
2,129453, Note_on_c, 0, 54, 73
2,129457, Note_on_c, 0, 73, 89
2,129481, Control_c, 0, 64, 43
2,129695, Note_on_c, 0, 49, 0
2,129901, Note_on_c, 0, 61, 76
2,129905, Note_on_c, 0, 52, 75
2,130022, Note_on_c, 0, 66, 0
2,130141, Note_on_c, 0, 54, 0
2,130367, Note_on_c, 0, 66, 86
2,130376, Note_on_c, 0, 47, 62
2,130380, Note_on_c, 0, 50, 64
2,130383, Control_c, 0, 64, 42
2,130406, Control_c, 0, 64, 39
2,130424, Control_c, 0, 64, 26
2,130441, Control_c, 0, 64, 0
2,130453, Note_on_c, 0, 52, 0
2,130461, Note_on_c, 0, 46, 0
2,130503, Note_on_c, 0, 73, 0
2,130525, Note_on_c, 0, 61, 0
2,130594, Control_c, 0, 64, 13
2,130614, Control_c, 0, 64, 43
2,130635, Control_c, 0, 64, 62
2,130652, Control_c, 0, 64, 67
2,130672, Control_c, 0, 64, 73
2,130689, Control_c, 0, 64, 78
2,130709, Control_c, 0, 64, 85
2,130729, Control_c, 0, 64, 89
2,130747, Note_on_c, 0, 66, 0
2,130769, Control_c, 0, 64, 88
2,130787, Control_c, 0, 64, 85
2,130806, Control_c, 0, 64, 81
2,130825, Control_c, 0, 64, 78
2,130836, Note_on_c, 0, 66, 86
2,130841, Note_on_c, 0, 64, 77
2,130846, Control_c, 0, 64, 75
2,130862, Control_c, 0, 64, 73
2,130882, Control_c, 0, 64, 70
2,130901, Control_c, 0, 64, 66
2,130923, Control_c, 0, 64, 61
2,130941, Control_c, 0, 64, 50
2,130958, Control_c, 0, 64, 33
2,130978, Control_c, 0, 64, 0
2,131037, Control_c, 0, 64, 17
2,131057, Control_c, 0, 64, 37
2,131074, Control_c, 0, 64, 59
2,131093, Control_c, 0, 64, 69
2,131114, Control_c, 0, 64, 73
2,131132, Control_c, 0, 64, 76
2,131159, Note_on_c, 0, 64, 0
2,131190, Control_c, 0, 64, 75
2,131210, Control_c, 0, 64, 74
2,131229, Control_c, 0, 64, 73
2,131267, Control_c, 0, 64, 72
2,131287, Note_on_c, 0, 71, 89
2,131292, Control_c, 0, 64, 70
2,131307, Control_c, 0, 64, 69
2,131307, Note_on_c, 0, 62, 70
2,131325, Control_c, 0, 64, 66
2,131343, Control_c, 0, 64, 63
2,131362, Control_c, 0, 64, 60
2,131384, Control_c, 0, 64, 57
2,131404, Control_c, 0, 64, 56
2,131419, Control_c, 0, 64, 54
2,131439, Control_c, 0, 64, 52
2,131460, Control_c, 0, 64, 48
2,131480, Control_c, 0, 64, 42
2,131484, Note_on_c, 0, 66, 0
2,131497, Control_c, 0, 64, 36
2,131519, Control_c, 0, 64, 33
2,131535, Control_c, 0, 64, 30
2,131555, Control_c, 0, 64, 28
2,131575, Control_c, 0, 64, 27
2,131652, Control_c, 0, 64, 26
2,131694, Note_on_c, 0, 69, 79
2,131708, Note_on_c, 0, 54, 83
2,131750, Control_c, 0, 64, 25
2,131785, Control_c, 0, 64, 23
2,131802, Control_c, 0, 64, 21
2,131824, Control_c, 0, 64, 19
2,131843, Control_c, 0, 64, 18
2,131863, Control_c, 0, 64, 17
2,131867, Note_on_c, 0, 71, 0
2,131879, Control_c, 0, 64, 16
2,131899, Control_c, 0, 64, 15
2,131919, Control_c, 0, 64, 14
2,131948, Note_on_c, 0, 50, 0
2,131957, Control_c, 0, 64, 13
2,132193, Note_on_c, 0, 67, 83
2,132198, Note_on_c, 0, 59, 85
2,132262, Note_on_c, 0, 69, 0
2,132283, Note_on_c, 0, 54, 0
2,132322, Control_c, 0, 64, 14
2,132342, Control_c, 0, 64, 18
2,132360, Control_c, 0, 64, 24
2,132379, Control_c, 0, 64, 32
2,132399, Control_c, 0, 64, 43
2,132417, Control_c, 0, 64, 58
2,132436, Control_c, 0, 64, 67
2,132456, Control_c, 0, 64, 75
2,132479, Control_c, 0, 64, 84
2,132483, Note_on_c, 0, 47, 0
2,132496, Control_c, 0, 64, 93
2,132514, Control_c, 0, 64, 106
2,132532, Control_c, 0, 64, 122
2,132559, Note_on_c, 0, 59, 0
2,132572, Control_c, 0, 64, 118
2,132593, Control_c, 0, 64, 110
2,132613, Control_c, 0, 64, 108
2,132630, Control_c, 0, 64, 104
2,132648, Control_c, 0, 64, 100
2,132669, Control_c, 0, 64, 95
2,132689, Control_c, 0, 64, 92
2,132689, Note_on_c, 0, 57, 75
2,132697, Note_on_c, 0, 47, 47
2,132700, Note_on_c, 0, 62, 0
2,132705, Control_c, 0, 64, 90
2,132726, Control_c, 0, 64, 89
2,132746, Control_c, 0, 64, 87
2,132762, Control_c, 0, 64, 85
2,132785, Control_c, 0, 64, 82
2,132804, Control_c, 0, 64, 79
2,132823, Control_c, 0, 64, 78
2,132841, Control_c, 0, 64, 76
2,132859, Control_c, 0, 64, 75
2,132880, Control_c, 0, 64, 72
2,132898, Control_c, 0, 64, 70
2,132918, Control_c, 0, 64, 69
2,132937, Control_c, 0, 64, 67
2,132994, Control_c, 0, 64, 66
2,133017, Control_c, 0, 64, 65
2,133033, Control_c, 0, 64, 64
2,133051, Control_c, 0, 64, 63
2,133071, Control_c, 0, 64, 61
2,133092, Control_c, 0, 64, 59
2,133110, Control_c, 0, 64, 55
2,133130, Control_c, 0, 64, 51
2,133130, Note_on_c, 0, 52, 57
2,133130, Note_on_c, 0, 55, 59
2,133149, Control_c, 0, 64, 42
2,133169, Control_c, 0, 64, 31
2,133187, Control_c, 0, 64, 0
2,133261, Note_on_c, 0, 57, 0
2,133263, Note_on_c, 0, 47, 0
2,133576, Note_on_c, 0, 59, 63
2,133580, Note_on_c, 0, 50, 50
2,133666, Note_on_c, 0, 52, 0
2,133870, Note_on_c, 0, 55, 0
2,134005, Note_on_c, 0, 49, 41
2,134014, Note_on_c, 0, 64, 64
2,134100, Note_on_c, 0, 67, 0
2,134104, Note_on_c, 0, 59, 0
2,134128, Note_on_c, 0, 50, 0
2,134453, Note_on_c, 0, 52, 49
2,134453, Note_on_c, 0, 62, 58
2,134495, Note_on_c, 0, 64, 0
2,134567, Note_on_c, 0, 49, 0
2,134899, Note_on_c, 0, 61, 52
2,134911, Note_on_c, 0, 57, 45
2,134955, Note_on_c, 0, 62, 0
2,135022, Note_on_c, 0, 52, 0
2,135341, Note_on_c, 0, 64, 58
2,135345, Note_on_c, 0, 55, 48
2,135497, Note_on_c, 0, 57, 0
2,135512, Note_on_c, 0, 61, 0
2,135780, Note_on_c, 0, 69, 61
2,135786, Note_on_c, 0, 54, 48
2,135865, Note_on_c, 0, 55, 0
2,135904, Note_on_c, 0, 64, 0
2,136230, Note_on_c, 0, 67, 67
2,136237, Note_on_c, 0, 57, 49
2,136250, Note_on_c, 0, 61, 48
2,136324, Note_on_c, 0, 69, 0
2,136407, Note_on_c, 0, 54, 0
2,136683, Note_on_c, 0, 62, 59
2,136683, Note_on_c, 0, 66, 75
2,136739, Note_on_c, 0, 67, 0
2,136768, Note_on_c, 0, 61, 0
2,136850, Note_on_c, 0, 57, 0
2,137127, Note_on_c, 0, 69, 80
2,137131, Note_on_c, 0, 61, 64
2,137153, Note_on_c, 0, 64, 69
2,137236, Note_on_c, 0, 62, 0
2,137274, Note_on_c, 0, 66, 0
2,137472, Note_on_c, 0, 64, 0
2,137557, Note_on_c, 0, 74, 89
2,137563, Note_on_c, 0, 59, 71
2,137578, Note_on_c, 0, 62, 66
2,137639, Note_on_c, 0, 69, 0
2,137739, Note_on_c, 0, 61, 0
2,138005, Note_on_c, 0, 73, 83
2,138009, Note_on_c, 0, 57, 76
2,138009, Note_on_c, 0, 66, 74
2,138085, Note_on_c, 0, 62, 0
2,138106, Note_on_c, 0, 59, 0
2,138160, Note_on_c, 0, 74, 0
2,138415, Note_on_c, 0, 73, 0
2,138430, Note_on_c, 0, 55, 81
2,138436, Note_on_c, 0, 71, 88
2,138477, Note_on_c, 0, 66, 0
2,138486, Note_on_c, 0, 57, 0
2,138523, Control_c, 0, 64, 22
2,138543, Control_c, 0, 64, 33
2,138562, Control_c, 0, 64, 42
2,138581, Control_c, 0, 64, 56
2,138602, Control_c, 0, 64, 64
2,138622, Control_c, 0, 64, 67
2,138639, Control_c, 0, 64, 71
2,138657, Control_c, 0, 64, 84
2,138677, Control_c, 0, 64, 109
2,138699, Control_c, 0, 64, 127
2,138699, Note_on_c, 0, 71, 0
2,138859, Note_on_c, 0, 74, 92
2,138863, Note_on_c, 0, 54, 85
2,138863, Note_on_c, 0, 69, 75
2,138870, Control_c, 0, 64, 110
2,138890, Control_c, 0, 64, 95
2,138907, Control_c, 0, 64, 79
2,138928, Control_c, 0, 64, 63
2,138945, Control_c, 0, 64, 48
2,138965, Control_c, 0, 64, 27
2,138986, Control_c, 0, 64, 18
2,138990, Note_on_c, 0, 55, 0
2,139004, Control_c, 0, 64, 21
2,139025, Control_c, 0, 64, 27
2,139042, Control_c, 0, 64, 34
2,139061, Control_c, 0, 64, 46
2,139079, Control_c, 0, 64, 60
2,139099, Control_c, 0, 64, 67
2,139119, Control_c, 0, 64, 71
2,139140, Control_c, 0, 64, 76
2,139157, Control_c, 0, 64, 83
2,139177, Control_c, 0, 64, 88
2,139181, Note_on_c, 0, 69, 0
2,139195, Control_c, 0, 64, 89
2,139215, Control_c, 0, 64, 88
2,139233, Control_c, 0, 64, 86
2,139253, Control_c, 0, 64, 82
2,139272, Control_c, 0, 64, 79
2,139294, Control_c, 0, 64, 76
2,139312, Control_c, 0, 64, 71
2,139312, Note_on_c, 0, 79, 104
2,139332, Control_c, 0, 64, 66
2,139332, Note_on_c, 0, 52, 81
2,139332, Note_on_c, 0, 67, 78
2,139351, Control_c, 0, 64, 61
2,139369, Control_c, 0, 64, 57
2,139387, Control_c, 0, 64, 55
2,139407, Control_c, 0, 64, 54
2,139429, Control_c, 0, 64, 52
2,139445, Control_c, 0, 64, 48
2,139465, Control_c, 0, 64, 42
2,139478, Note_on_c, 0, 54, 0
2,139487, Control_c, 0, 64, 34
2,139504, Control_c, 0, 64, 25
2,139522, Control_c, 0, 64, 18
2,139531, Note_on_c, 0, 74, 0
2,139544, Control_c, 0, 64, 12
2,139565, Control_c, 0, 64, 8
2,139580, Control_c, 0, 64, 0
2,139759, Note_on_c, 0, 50, 81
2,139768, Note_on_c, 0, 71, 92
2,139899, Note_on_c, 0, 67, 0
2,139920, Note_on_c, 0, 52, 0
2,140206, Note_on_c, 0, 76, 94
2,140213, Note_on_c, 0, 49, 82
2,140379, Note_on_c, 0, 50, 0
2,140418, Note_on_c, 0, 71, 0
2,140641, Note_on_c, 0, 74, 95
2,140648, Note_on_c, 0, 47, 86
2,140715, Note_on_c, 0, 76, 0
2,140792, Note_on_c, 0, 49, 0
2,140930, Note_on_c, 0, 79, 0
2,141091, Note_on_c, 0, 73, 96
2,141095, Note_on_c, 0, 45, 87
2,141154, Note_on_c, 0, 74, 0
2,141275, Note_on_c, 0, 47, 0
2,141538, Note_on_c, 0, 76, 99
2,141551, Note_on_c, 0, 43, 86
2,141650, Note_on_c, 0, 73, 0
2,141714, Note_on_c, 0, 45, 0
2,142011, Note_on_c, 0, 81, 99
2,142015, Note_on_c, 0, 42, 94
2,142163, Note_on_c, 0, 43, 0
2,142245, Note_on_c, 0, 76, 0
2,142339, Control_c, 0, 64, 8
2,142356, Control_c, 0, 64, 13
2,142377, Control_c, 0, 64, 17
2,142395, Control_c, 0, 64, 18
2,142434, Control_c, 0, 64, 19
2,142493, Control_c, 0, 64, 18
2,142524, Note_on_c, 0, 40, 86
2,142524, Note_on_c, 0, 79, 101
2,142550, Control_c, 0, 64, 17
2,142571, Note_on_c, 0, 81, 0
2,142585, Control_c, 0, 64, 16
2,142605, Control_c, 0, 64, 15
2,142646, Note_on_c, 0, 42, 0
2,142664, Control_c, 0, 64, 16
2,142682, Control_c, 0, 64, 18
2,142702, Control_c, 0, 64, 20
2,142720, Control_c, 0, 64, 27
2,142738, Control_c, 0, 64, 40
2,142760, Control_c, 0, 64, 57
2,142778, Control_c, 0, 64, 68
2,142795, Control_c, 0, 64, 76
2,142817, Control_c, 0, 64, 101
2,142836, Control_c, 0, 64, 127
2,142976, Note_on_c, 0, 40, 0
2,143020, Note_on_c, 0, 79, 0
2,143097, Note_on_c, 0, 74, 93
2,143097, Note_on_c, 0, 78, 105
2,143102, Note_on_c, 0, 38, 85
2,143123, Control_c, 0, 64, 98
2,143127, Note_on_c, 0, 36, 48
2,143131, Note_on_c, 0, 36, 0
2,143145, Control_c, 0, 64, 67
2,143162, Control_c, 0, 64, 46
2,143184, Control_c, 0, 64, 0
2,143297, Control_c, 0, 64, 12
2,143317, Control_c, 0, 64, 53
2,143336, Control_c, 0, 64, 70
2,143350, Note_on_c, 0, 38, 0
2,143359, Control_c, 0, 64, 90
2,143374, Control_c, 0, 64, 127
2,143581, Note_on_c, 0, 78, 0
2,143720, Note_on_c, 0, 79, 104
2,143724, Note_on_c, 0, 76, 97
2,143732, Note_on_c, 0, 62, 94
2,143795, Control_c, 0, 64, 95
2,143804, Note_on_c, 0, 74, 0
2,143815, Control_c, 0, 64, 66
2,143835, Control_c, 0, 64, 43
2,143856, Control_c, 0, 64, 0
2,143953, Control_c, 0, 64, 38
2,143974, Control_c, 0, 64, 60
2,143994, Control_c, 0, 64, 72
2,144013, Control_c, 0, 64, 92
2,144029, Control_c, 0, 64, 127
2,144076, Note_on_c, 0, 79, 0
2,144165, Note_on_c, 0, 62, 0
2,144297, Note_on_c, 0, 81, 94
2,144308, Note_on_c, 0, 62, 95
2,144308, Note_on_c, 0, 78, 93
2,144410, Note_on_c, 0, 76, 0
2,144618, Note_on_c, 0, 81, 0
2,144665, Note_on_c, 0, 62, 0
2,144793, Note_on_c, 0, 62, 96
2,144816, Note_on_c, 0, 50, 76
2,145124, Note_on_c, 0, 62, 0
2,145260, Note_on_c, 0, 55, 93
2,145270, Note_on_c, 0, 52, 79
2,145279, Control_c, 0, 64, 106
2,145298, Control_c, 0, 64, 89
2,145320, Control_c, 0, 64, 79
2,145337, Control_c, 0, 64, 72
2,145354, Control_c, 0, 64, 68
2,145376, Control_c, 0, 64, 66
2,145394, Control_c, 0, 64, 65
2,145505, Note_on_c, 0, 50, 0
2,145512, Control_c, 0, 64, 64
2,145566, Control_c, 0, 64, 63
2,145606, Control_c, 0, 64, 62
2,145662, Control_c, 0, 64, 61
2,145684, Control_c, 0, 64, 59
2,145704, Note_on_c, 0, 71, 92
2,145704, Note_on_c, 0, 74, 90
2,145705, Control_c, 0, 64, 53
2,145720, Control_c, 0, 64, 40
2,145742, Control_c, 0, 64, 15
2,145758, Control_c, 0, 64, 0
2,145817, Control_c, 0, 64, 12
2,145835, Control_c, 0, 64, 32
2,145855, Control_c, 0, 64, 49
2,145875, Control_c, 0, 64, 61
2,145893, Control_c, 0, 64, 64
2,145911, Note_on_c, 0, 78, 0
2,145915, Control_c, 0, 64, 67
2,145933, Control_c, 0, 64, 73
2,145953, Control_c, 0, 64, 87
2,145971, Control_c, 0, 64, 106
2,145991, Control_c, 0, 64, 127
2,146109, Note_on_c, 0, 52, 0
2,146143, Note_on_c, 0, 76, 93
2,146143, Note_on_c, 0, 79, 94
2,146147, Control_c, 0, 64, 112
2,146152, Note_on_c, 0, 59, 91
2,146164, Control_c, 0, 64, 101
2,146182, Control_c, 0, 64, 89
2,146198, Note_on_c, 0, 71, 0
2,146200, Control_c, 0, 64, 78
2,146219, Control_c, 0, 64, 68
2,146238, Control_c, 0, 64, 64
2,146258, Control_c, 0, 64, 60
2,146280, Control_c, 0, 64, 55
2,146280, Note_on_c, 0, 74, 0
2,146295, Control_c, 0, 64, 50
2,146314, Control_c, 0, 64, 49
2,146336, Control_c, 0, 64, 50
2,146354, Control_c, 0, 64, 55
2,146374, Control_c, 0, 64, 62
2,146394, Control_c, 0, 64, 69
2,146412, Control_c, 0, 64, 80
2,146432, Note_on_c, 0, 55, 0
2,146437, Control_c, 0, 64, 103
2,146441, Note_on_c, 0, 76, 0
2,146450, Control_c, 0, 64, 127
2,146526, Control_c, 0, 64, 112
2,146545, Control_c, 0, 64, 101
2,146566, Control_c, 0, 64, 92
2,146566, Note_on_c, 0, 52, 87
2,146578, Note_on_c, 0, 74, 87
2,146582, Note_on_c, 0, 78, 98
2,146583, Control_c, 0, 64, 82
2,146605, Control_c, 0, 64, 71
2,146620, Note_on_c, 0, 79, 0
2,146624, Control_c, 0, 64, 61
2,146641, Control_c, 0, 64, 44
2,146661, Control_c, 0, 64, 16
2,146681, Control_c, 0, 64, 0
2,146756, Control_c, 0, 64, 15
2,146776, Control_c, 0, 64, 42
2,146796, Control_c, 0, 64, 60
2,146816, Control_c, 0, 64, 68
2,146835, Control_c, 0, 64, 75
2,146853, Control_c, 0, 64, 85
2,146871, Control_c, 0, 64, 95
2,146894, Control_c, 0, 64, 100
2,146894, Note_on_c, 0, 78, 0
2,146911, Control_c, 0, 64, 101
2,146911, Note_on_c, 0, 59, 0
2,146950, Control_c, 0, 64, 99
2,146970, Control_c, 0, 64, 98
2,146987, Control_c, 0, 64, 97
2,147008, Control_c, 0, 64, 96
2,147019, Note_on_c, 0, 57, 90
2,147019, Note_on_c, 0, 76, 92
2,147029, Control_c, 0, 64, 93
2,147029, Note_on_c, 0, 73, 86
2,147048, Control_c, 0, 64, 80
2,147065, Control_c, 0, 64, 64
2,147078, Note_on_c, 0, 74, 0
2,147085, Control_c, 0, 64, 48
2,147106, Control_c, 0, 64, 16
2,147121, Control_c, 0, 64, 0
2,147161, Control_c, 0, 64, 16
2,147178, Control_c, 0, 64, 35
2,147199, Control_c, 0, 64, 57
2,147221, Control_c, 0, 64, 66
2,147237, Control_c, 0, 64, 72
2,147259, Control_c, 0, 64, 81
2,147259, Note_on_c, 0, 52, 0
2,147277, Control_c, 0, 64, 91
2,147294, Control_c, 0, 64, 100
2,147313, Control_c, 0, 64, 103
2,147346, Note_on_c, 0, 57, 0
2,147353, Control_c, 0, 64, 102
2,147390, Control_c, 0, 64, 100
2,147409, Control_c, 0, 64, 96
2,147430, Control_c, 0, 64, 91
2,147450, Control_c, 0, 64, 85
2,147454, Note_on_c, 0, 55, 88
2,147469, Control_c, 0, 64, 77
2,147469, Note_on_c, 0, 52, 67
2,147487, Control_c, 0, 64, 70
2,147508, Control_c, 0, 64, 65
2,147524, Control_c, 0, 64, 63
2,147546, Control_c, 0, 64, 62
2,147564, Control_c, 0, 64, 61
2,147584, Control_c, 0, 64, 60
2,147620, Control_c, 0, 64, 59
2,147660, Control_c, 0, 64, 58
2,147681, Control_c, 0, 64, 57
2,147699, Control_c, 0, 64, 56
2,147718, Control_c, 0, 64, 55
2,147737, Control_c, 0, 64, 54
2,147775, Control_c, 0, 64, 52
2,147796, Control_c, 0, 64, 49
2,147814, Control_c, 0, 64, 46
2,147832, Control_c, 0, 64, 44
2,147852, Control_c, 0, 64, 43
2,147889, Control_c, 0, 64, 42
2,147898, Note_on_c, 0, 54, 73
2,147902, Note_on_c, 0, 57, 80
2,147912, Control_c, 0, 64, 39
2,147931, Control_c, 0, 64, 34
2,147949, Control_c, 0, 64, 30
2,147966, Control_c, 0, 64, 28
2,148054, Note_on_c, 0, 52, 0
2,148064, Control_c, 0, 64, 27
2,148064, Note_on_c, 0, 55, 0
2,148082, Control_c, 0, 64, 26
2,148330, Note_on_c, 0, 52, 63
2,148330, Note_on_c, 0, 64, 90
2,148346, Note_on_c, 0, 55, 69
2,148449, Note_on_c, 0, 57, 0
2,148527, Note_on_c, 0, 54, 0
2,148754, Control_c, 0, 64, 27
2,148775, Note_on_c, 0, 69, 87
2,148780, Note_on_c, 0, 50, 58
2,148784, Note_on_c, 0, 54, 65
2,148860, Note_on_c, 0, 52, 0
2,148956, Note_on_c, 0, 64, 0
2,148980, Note_on_c, 0, 55, 0
2,149160, Control_c, 0, 64, 26
2,149178, Control_c, 0, 64, 25
2,149194, Control_c, 0, 64, 20
2,149216, Note_on_c, 0, 67, 85
2,149218, Control_c, 0, 64, 12
2,149222, Note_on_c, 0, 55, 65
2,149223, Note_on_c, 0, 52, 57
2,149235, Control_c, 0, 64, 0
2,149304, Note_on_c, 0, 54, 0
2,149326, Note_on_c, 0, 69, 0
2,149364, Note_on_c, 0, 50, 0
2,149368, Control_c, 0, 64, 14
2,149386, Control_c, 0, 64, 26
2,149407, Control_c, 0, 64, 44
2,149427, Control_c, 0, 64, 60
2,149443, Note_on_c, 0, 76, 0
2,149446, Control_c, 0, 64, 66
2,149464, Control_c, 0, 64, 69
2,149485, Control_c, 0, 64, 72
2,149485, Note_on_c, 0, 73, 0
2,149507, Control_c, 0, 64, 74
2,149521, Control_c, 0, 64, 76
2,149579, Control_c, 0, 64, 75
2,149639, Control_c, 0, 64, 74
2,149657, Control_c, 0, 64, 72
2,149668, Note_on_c, 0, 74, 95
2,149680, Control_c, 0, 64, 68
2,149680, Note_on_c, 0, 57, 56
2,149686, Note_on_c, 0, 54, 53
2,149693, Note_on_c, 0, 66, 69
2,149697, Control_c, 0, 64, 64
2,149714, Control_c, 0, 64, 58
2,149735, Control_c, 0, 64, 48
2,149753, Control_c, 0, 64, 25
2,149771, Control_c, 0, 64, 0
2,149778, Note_on_c, 0, 55, 0
2,149787, Note_on_c, 0, 52, 0
2,149859, Note_on_c, 0, 67, 0
2,149907, Control_c, 0, 64, 30
2,149925, Control_c, 0, 64, 50
2,149945, Control_c, 0, 64, 62
2,149963, Control_c, 0, 64, 64
2,149983, Control_c, 0, 64, 67
2,150005, Control_c, 0, 64, 73
2,150009, Note_on_c, 0, 74, 0
2,150020, Control_c, 0, 64, 83
2,150042, Control_c, 0, 64, 91
2,150062, Control_c, 0, 64, 92
2,150097, Control_c, 0, 64, 91
2,150118, Control_c, 0, 64, 89
2,150140, Control_c, 0, 64, 85
2,150157, Control_c, 0, 64, 81
2,150157, Note_on_c, 0, 72, 101
2,150174, Control_c, 0, 64, 72
2,150183, Note_on_c, 0, 64, 66
2,150195, Control_c, 0, 64, 62
2,150216, Control_c, 0, 64, 43
2,150232, Control_c, 0, 64, 0
2,150310, Control_c, 0, 64, 18
2,150330, Control_c, 0, 64, 37
2,150348, Control_c, 0, 64, 59
2,150357, Note_on_c, 0, 66, 0
2,150367, Control_c, 0, 64, 67
2,150386, Control_c, 0, 64, 72
2,150406, Control_c, 0, 64, 81
2,150426, Control_c, 0, 64, 90
2,150443, Control_c, 0, 64, 97
2,150463, Control_c, 0, 64, 99
2,150501, Note_on_c, 0, 64, 0
2,150520, Control_c, 0, 64, 97
2,150542, Control_c, 0, 64, 94
2,150560, Control_c, 0, 64, 90
2,150579, Control_c, 0, 64, 87
2,150596, Control_c, 0, 64, 84
2,150615, Control_c, 0, 64, 79
2,150620, Note_on_c, 0, 71, 95
2,150637, Control_c, 0, 64, 69
2,150642, Note_on_c, 0, 62, 75
2,150655, Control_c, 0, 64, 58
2,150676, Control_c, 0, 64, 38
2,150692, Control_c, 0, 64, 0
2,150743, Note_on_c, 0, 72, 0
2,150789, Control_c, 0, 64, 31
2,150810, Control_c, 0, 64, 55
2,150828, Control_c, 0, 64, 67
2,150848, Control_c, 0, 64, 75
2,150866, Control_c, 0, 64, 90
2,150884, Control_c, 0, 64, 107
2,150904, Control_c, 0, 64, 127
2,150917, Note_on_c, 0, 57, 0
2,150976, Note_on_c, 0, 54, 0
2,151041, Control_c, 0, 64, 108
2,151056, Note_on_c, 0, 47, 78
2,151063, Control_c, 0, 64, 96
2,151063, Note_on_c, 0, 50, 75
2,151082, Control_c, 0, 64, 87
2,151100, Control_c, 0, 64, 81
2,151120, Control_c, 0, 64, 78
2,151138, Control_c, 0, 64, 76
2,151158, Control_c, 0, 64, 72
2,151175, Control_c, 0, 64, 68
2,151196, Control_c, 0, 64, 66
2,151216, Control_c, 0, 64, 65
2,151233, Control_c, 0, 64, 64
2,151273, Control_c, 0, 64, 63
2,151310, Control_c, 0, 64, 62
2,151330, Control_c, 0, 64, 61
2,151352, Control_c, 0, 64, 59
2,151406, Control_c, 0, 64, 58
2,151445, Control_c, 0, 64, 57
2,151463, Control_c, 0, 64, 56
2,151485, Control_c, 0, 64, 55
2,151496, Note_on_c, 0, 52, 69
2,151503, Note_on_c, 0, 55, 76
2,151503, Note_on_c, 0, 61, 88
2,151523, Control_c, 0, 64, 54
2,151539, Control_c, 0, 64, 53
2,151561, Control_c, 0, 64, 50
2,151580, Control_c, 0, 64, 47
2,151598, Control_c, 0, 64, 43
2,151617, Control_c, 0, 64, 40
2,151637, Control_c, 0, 64, 39
2,151657, Control_c, 0, 64, 38
2,151675, Control_c, 0, 64, 35
2,151695, Control_c, 0, 64, 30
2,151708, Note_on_c, 0, 62, 0
2,151715, Control_c, 0, 64, 25
2,151733, Control_c, 0, 64, 23
2,151733, Note_on_c, 0, 50, 0
2,151792, Control_c, 0, 64, 22
2,151799, Note_on_c, 0, 47, 0
2,151812, Control_c, 0, 64, 20
2,151828, Control_c, 0, 64, 18
2,151906, Control_c, 0, 64, 16
2,151937, Note_on_c, 0, 62, 91
2,151956, Note_on_c, 0, 50, 65
2,151956, Note_on_c, 0, 54, 73
2,151983, Control_c, 0, 64, 15
2,152022, Control_c, 0, 64, 14
2,152042, Control_c, 0, 64, 13
2,152059, Control_c, 0, 64, 12
2,152079, Control_c, 0, 64, 11
2,152100, Note_on_c, 0, 55, 0
2,152116, Control_c, 0, 64, 10
2,152129, Note_on_c, 0, 61, 0
2,152136, Control_c, 0, 64, 0
2,152163, Note_on_c, 0, 52, 0
2,152238, Note_on_c, 0, 71, 0
2,152396, Note_on_c, 0, 52, 63
2,152396, Note_on_c, 0, 64, 95
2,152401, Note_on_c, 0, 49, 65
2,152436, Note_on_c, 0, 50, 0
2,152481, Note_on_c, 0, 62, 0
2,152485, Note_on_c, 0, 54, 0
2,152558, Control_c, 0, 64, 17
2,152577, Control_c, 0, 64, 36
2,152596, Control_c, 0, 64, 50
2,152614, Control_c, 0, 64, 62
2,152634, Control_c, 0, 64, 66
2,152654, Control_c, 0, 64, 70
2,152675, Control_c, 0, 64, 74
2,152693, Control_c, 0, 64, 79
2,152712, Control_c, 0, 64, 80
2,152724, Note_on_c, 0, 64, 0
2,152753, Control_c, 0, 64, 79
2,152770, Control_c, 0, 64, 78
2,152788, Control_c, 0, 64, 77
2,152808, Control_c, 0, 64, 76
2,152829, Control_c, 0, 64, 73
2,152831, Note_on_c, 0, 64, 94
2,152835, Note_on_c, 0, 47, 73
2,152846, Control_c, 0, 64, 72
2,152847, Note_on_c, 0, 62, 71
2,152866, Control_c, 0, 64, 69
2,152885, Control_c, 0, 64, 64
2,152905, Control_c, 0, 64, 57
2,152926, Control_c, 0, 64, 43
2,152926, Note_on_c, 0, 49, 0
2,152942, Control_c, 0, 64, 9
2,152961, Control_c, 0, 64, 0
2,153077, Control_c, 0, 64, 30
2,153095, Control_c, 0, 64, 52
2,153115, Control_c, 0, 64, 65
2,153133, Control_c, 0, 64, 68
2,153153, Control_c, 0, 64, 70
2,153175, Control_c, 0, 64, 71
2,153193, Control_c, 0, 64, 72
2,153249, Control_c, 0, 64, 71
2,153270, Control_c, 0, 64, 70
2,153287, Control_c, 0, 64, 68
2,153307, Control_c, 0, 64, 66
2,153312, Note_on_c, 0, 69, 88
2,153329, Control_c, 0, 64, 62
2,153329, Note_on_c, 0, 61, 69
2,153333, Note_on_c, 0, 45, 63
2,153345, Control_c, 0, 64, 58
2,153365, Control_c, 0, 64, 48
2,153374, Note_on_c, 0, 64, 0
2,153385, Control_c, 0, 64, 0
2,153442, Note_on_c, 0, 47, 0
2,153510, Note_on_c, 0, 62, 0
2,153522, Control_c, 0, 64, 9
2,153541, Control_c, 0, 64, 37
2,153557, Control_c, 0, 64, 58
2,153575, Control_c, 0, 64, 67
2,153597, Control_c, 0, 64, 72
2,153615, Control_c, 0, 64, 82
2,153634, Control_c, 0, 64, 101
2,153653, Control_c, 0, 64, 127
2,153657, Note_on_c, 0, 69, 0
2,153808, Note_on_c, 0, 67, 94
2,153829, Note_on_c, 0, 64, 75
2,153846, Control_c, 0, 64, 102
2,153867, Control_c, 0, 64, 81
2,153883, Control_c, 0, 64, 64
2,153905, Control_c, 0, 64, 45
2,153909, Note_on_c, 0, 61, 0
2,153924, Control_c, 0, 64, 0
2,153979, Control_c, 0, 64, 19
2,153998, Control_c, 0, 64, 39
2,154017, Control_c, 0, 64, 57
2,154037, Control_c, 0, 64, 66
2,154057, Control_c, 0, 64, 69
2,154075, Control_c, 0, 64, 74
2,154097, Control_c, 0, 64, 80
2,154113, Control_c, 0, 64, 87
2,154132, Control_c, 0, 64, 92
2,154152, Control_c, 0, 64, 93
2,154171, Control_c, 0, 64, 92
2,154190, Control_c, 0, 64, 91
2,154210, Control_c, 0, 64, 90
2,154229, Control_c, 0, 64, 89
2,154250, Control_c, 0, 64, 88
2,154267, Control_c, 0, 64, 87
2,154286, Control_c, 0, 64, 85
2,154306, Control_c, 0, 64, 84
2,154345, Control_c, 0, 64, 83
2,154362, Control_c, 0, 64, 82
2,154382, Control_c, 0, 64, 81
2,154402, Control_c, 0, 64, 77
2,154407, Note_on_c, 0, 66, 94
2,154423, Control_c, 0, 64, 73
2,154440, Control_c, 0, 64, 68
2,154459, Control_c, 0, 64, 65
2,154479, Control_c, 0, 64, 62
2,154500, Control_c, 0, 64, 60
2,154515, Control_c, 0, 64, 58
2,154535, Control_c, 0, 64, 57
2,154546, Note_on_c, 0, 67, 0
2,154554, Control_c, 0, 64, 56
2,154575, Control_c, 0, 64, 55
2,154595, Control_c, 0, 64, 54
2,154613, Control_c, 0, 64, 52
2,154633, Control_c, 0, 64, 49
2,154652, Control_c, 0, 64, 46
2,154670, Control_c, 0, 64, 45
2,154961, Note_on_c, 0, 57, 60
2,154976, Note_on_c, 0, 62, 78
2,155055, Control_c, 0, 64, 46
2,155066, Note_on_c, 0, 64, 0
2,155079, Note_on_c, 0, 52, 0
2,155093, Control_c, 0, 64, 47
2,155111, Control_c, 0, 64, 48
2,155133, Control_c, 0, 64, 49
2,155151, Control_c, 0, 64, 52
2,155170, Control_c, 0, 64, 58
2,155190, Control_c, 0, 64, 64
2,155209, Control_c, 0, 64, 67
2,155229, Control_c, 0, 64, 70
2,155247, Control_c, 0, 64, 73
2,155265, Control_c, 0, 64, 77
2,155286, Control_c, 0, 64, 79
2,155307, Control_c, 0, 64, 80
2,155324, Note_on_c, 0, 57, 0
2,155329, Control_c, 0, 64, 79
2,155400, Control_c, 0, 64, 78
2,155438, Control_c, 0, 64, 76
2,155443, Note_on_c, 0, 64, 92
2,155462, Control_c, 0, 64, 74
2,155463, Note_on_c, 0, 57, 80
2,155479, Control_c, 0, 64, 71
2,155496, Control_c, 0, 64, 66
2,155517, Control_c, 0, 64, 60
2,155534, Control_c, 0, 64, 50
2,155557, Control_c, 0, 64, 28
2,155574, Control_c, 0, 64, 0
2,155647, Note_on_c, 0, 66, 0
2,155667, Control_c, 0, 64, 20
2,155684, Control_c, 0, 64, 38
2,155704, Control_c, 0, 64, 57
2,155726, Control_c, 0, 64, 66
2,155742, Control_c, 0, 64, 69
2,155762, Control_c, 0, 64, 73
2,155780, Control_c, 0, 64, 76
2,155800, Control_c, 0, 64, 80
2,155820, Control_c, 0, 64, 82
2,155836, Note_on_c, 0, 57, 0
2,155879, Control_c, 0, 64, 81
2,155896, Control_c, 0, 64, 80
2,155914, Control_c, 0, 64, 79
2,155953, Control_c, 0, 64, 77
2,155973, Control_c, 0, 64, 76
2,155990, Note_on_c, 0, 61, 84
2,155995, Control_c, 0, 64, 74
2,155995, Note_on_c, 0, 57, 84
2,156013, Control_c, 0, 64, 72
2,156031, Control_c, 0, 64, 69
2,156050, Control_c, 0, 64, 64
2,156072, Control_c, 0, 64, 54
2,156089, Control_c, 0, 64, 35
2,156107, Control_c, 0, 64, 0
2,156221, Control_c, 0, 64, 10
2,156241, Control_c, 0, 64, 27
2,156263, Control_c, 0, 64, 44
2,156279, Control_c, 0, 64, 60
2,156301, Control_c, 0, 64, 64
2,156311, Note_on_c, 0, 62, 0
2,156336, Control_c, 0, 64, 67
2,156357, Control_c, 0, 64, 73
2,156377, Control_c, 0, 64, 84
2,156395, Control_c, 0, 64, 97
2,156413, Control_c, 0, 64, 103
2,156531, Control_c, 0, 64, 102
2,156549, Control_c, 0, 64, 101
2,156567, Control_c, 0, 64, 99
2,156586, Control_c, 0, 64, 97
2,156606, Control_c, 0, 64, 94
2,156626, Control_c, 0, 64, 91
2,156644, Control_c, 0, 64, 87
2,156652, Note_on_c, 0, 51, 77
2,156654, Note_on_c, 0, 66, 87
2,156668, Control_c, 0, 64, 81
2,156668, Note_on_c, 0, 60, 73
2,156684, Control_c, 0, 64, 71
2,156701, Control_c, 0, 64, 63
2,156721, Control_c, 0, 64, 56
2,156740, Control_c, 0, 64, 49
2,156761, Control_c, 0, 64, 45
2,156771, Note_on_c, 0, 64, 0
2,156780, Control_c, 0, 64, 40
2,156798, Control_c, 0, 64, 30
2,156818, Control_c, 0, 64, 0
2,156849, Note_on_c, 0, 61, 0
2,156854, Note_on_c, 0, 57, 0
2,156879, Note_on_c, 0, 45, 0
2,156971, Control_c, 0, 64, 20
2,156989, Control_c, 0, 64, 43
2,157009, Control_c, 0, 64, 61
2,157030, Control_c, 0, 64, 66
2,157050, Control_c, 0, 64, 69
2,157066, Control_c, 0, 64, 73
2,157086, Control_c, 0, 64, 79
2,157097, Note_on_c, 0, 60, 0
2,157108, Control_c, 0, 64, 88
2,157125, Control_c, 0, 64, 93
2,157144, Control_c, 0, 64, 97
2,157163, Control_c, 0, 64, 100
2,157182, Control_c, 0, 64, 102
2,157221, Control_c, 0, 64, 101
2,157241, Control_c, 0, 64, 97
2,157261, Control_c, 0, 64, 92
2,157265, Note_on_c, 0, 68, 94
2,157270, Note_on_c, 0, 52, 77
2,157281, Control_c, 0, 64, 85
2,157281, Note_on_c, 0, 59, 74
2,157300, Control_c, 0, 64, 75
2,157318, Control_c, 0, 64, 64
2,157337, Control_c, 0, 64, 50
2,157348, Note_on_c, 0, 66, 0
2,157355, Control_c, 0, 64, 20
2,157377, Control_c, 0, 64, 0
2,157377, Note_on_c, 0, 51, 0
2,157432, Control_c, 0, 64, 20
2,157452, Control_c, 0, 64, 40
2,157474, Control_c, 0, 64, 59
2,157491, Control_c, 0, 64, 70
2,157508, Control_c, 0, 64, 81
2,157528, Control_c, 0, 64, 97
2,157547, Control_c, 0, 64, 127
2,157598, Note_on_c, 0, 59, 0
2,157685, Control_c, 0, 64, 109
2,157700, Control_c, 0, 64, 98
2,157719, Control_c, 0, 64, 88
2,157741, Control_c, 0, 64, 80
2,157752, Note_on_c, 0, 69, 83
2,157753, Note_on_c, 0, 53, 72
2,157759, Control_c, 0, 64, 73
2,157771, Note_on_c, 0, 57, 73
2,157781, Control_c, 0, 64, 67
2,157797, Control_c, 0, 64, 61
2,157819, Control_c, 0, 64, 56
2,157839, Control_c, 0, 64, 52
2,157839, Note_on_c, 0, 68, 0
2,157855, Control_c, 0, 64, 48
2,157873, Control_c, 0, 64, 42
2,157892, Control_c, 0, 64, 32
2,157914, Control_c, 0, 64, 18
2,157914, Note_on_c, 0, 52, 0
2,157931, Control_c, 0, 64, 0
2,158026, Control_c, 0, 64, 13
2,158045, Control_c, 0, 64, 18
2,158066, Control_c, 0, 64, 22
2,158085, Control_c, 0, 64, 25
2,158105, Control_c, 0, 64, 26
2,158125, Control_c, 0, 64, 28
2,158143, Control_c, 0, 64, 30
2,158161, Control_c, 0, 64, 32
2,158180, Control_c, 0, 64, 36
2,158196, Note_on_c, 0, 60, 79
2,158202, Control_c, 0, 64, 48
2,158219, Control_c, 0, 64, 57
2,158237, Control_c, 0, 64, 60
2,158298, Control_c, 0, 64, 62
2,158318, Control_c, 0, 64, 64
2,158335, Control_c, 0, 64, 66
2,158344, Note_on_c, 0, 57, 0
2,158355, Control_c, 0, 64, 68
2,158374, Control_c, 0, 64, 72
2,158392, Control_c, 0, 64, 76
2,158410, Control_c, 0, 64, 79
2,158468, Control_c, 0, 64, 78
2,158530, Control_c, 0, 64, 77
2,158566, Control_c, 0, 64, 76
2,158586, Control_c, 0, 64, 74
2,158604, Control_c, 0, 64, 72
2,158626, Control_c, 0, 64, 71
2,158643, Control_c, 0, 64, 69
2,158650, Note_on_c, 0, 62, 80
2,158661, Control_c, 0, 64, 68
2,158683, Control_c, 0, 64, 66
2,158699, Control_c, 0, 64, 64
2,158719, Control_c, 0, 64, 63
2,158737, Control_c, 0, 64, 62
2,158784, Note_on_c, 0, 60, 0
2,158798, Control_c, 0, 64, 61
2,158798, Control_c, 0, 67, 11
2,158816, Control_c, 0, 67, 20
2,158834, Control_c, 0, 64, 60
2,158836, Control_c, 0, 67, 24
2,158854, Control_c, 0, 67, 26
2,158873, Control_c, 0, 67, 29
2,158893, Control_c, 0, 64, 59
2,158893, Control_c, 0, 67, 33
2,158910, Control_c, 0, 67, 36
2,158930, Control_c, 0, 67, 37
2,159008, Control_c, 0, 64, 58
2,159066, Control_c, 0, 64, 57
2,159070, Note_on_c, 0, 47, 52
2,159079, Note_on_c, 0, 64, 74
2,159086, Note_on_c, 0, 59, 51
2,159123, Control_c, 0, 64, 56
2,159131, Note_on_c, 0, 69, 0
2,159194, Note_on_c, 0, 53, 0
2,159218, Control_c, 0, 64, 55
2,159240, Note_on_c, 0, 62, 0
2,159268, Note_on_c, 0, 65, 62
2,159294, Control_c, 0, 64, 54
2,159334, Control_c, 0, 64, 53
2,159345, Note_on_c, 0, 64, 0
2,159349, Note_on_c, 0, 59, 0
2,159352, Control_c, 0, 64, 52
2,159390, Control_c, 0, 64, 51
2,159432, Control_c, 0, 64, 50
2,159432, Control_c, 0, 67, 36
2,159506, Control_c, 0, 64, 49
2,159512, Note_on_c, 0, 64, 60
2,159517, Note_on_c, 0, 68, 72
2,159541, Note_on_c, 0, 59, 48
2,159543, Control_c, 0, 64, 48
2,159548, Note_on_c, 0, 52, 47
2,159571, Note_on_c, 0, 65, 0
2,159691, Note_on_c, 0, 47, 0
2,159698, Control_c, 0, 67, 35
2,159774, Note_on_c, 0, 59, 0
2,159795, Control_c, 0, 67, 34
2,159832, Control_c, 0, 64, 49
2,159910, Control_c, 0, 67, 33
2,159991, Note_on_c, 0, 50, 54
2,159997, Note_on_c, 0, 59, 53
2,160132, Note_on_c, 0, 52, 0
2,160184, Note_on_c, 0, 64, 0
2,160255, Control_c, 0, 64, 48
2,160400, Note_on_c, 0, 59, 0
2,160466, Note_on_c, 0, 52, 42
2,160488, Note_on_c, 0, 49, 43
2,160492, Note_on_c, 0, 50, 0
2,160492, Note_on_c, 0, 69, 52
2,160545, Note_on_c, 0, 68, 0
2,160621, Control_c, 0, 67, 32
2,161047, Note_on_c, 0, 45, 36
2,161062, Control_c, 0, 64, 49
2,161077, Note_on_c, 0, 81, 61
2,161178, Control_c, 0, 64, 50
2,161196, Control_c, 0, 64, 51
2,161216, Control_c, 0, 64, 52
2,161220, Note_on_c, 0, 49, 0
2,161237, Control_c, 0, 64, 54
2,161252, Control_c, 0, 64, 55
2,161275, Control_c, 0, 64, 60
2,161290, Control_c, 0, 64, 64
2,161313, Control_c, 0, 64, 67
2,161313, Control_c, 0, 67, 31
2,161331, Control_c, 0, 64, 71
2,161348, Control_c, 0, 64, 77
2,161367, Control_c, 0, 64, 82
2,161387, Control_c, 0, 64, 83
2,161405, Note_on_c, 0, 81, 0
2,161425, Control_c, 0, 64, 82
2,161445, Control_c, 0, 64, 81
2,161463, Control_c, 0, 64, 80
2,161483, Control_c, 0, 64, 78
2,161501, Control_c, 0, 64, 75
2,161520, Control_c, 0, 64, 73
2,161541, Control_c, 0, 64, 71
2,161561, Control_c, 0, 64, 69
2,161569, Note_on_c, 0, 81, 74
2,161576, Note_on_c, 0, 50, 45
2,161580, Control_c, 0, 64, 67
2,161600, Control_c, 0, 64, 65
2,161619, Control_c, 0, 64, 62
2,161636, Control_c, 0, 64, 57
2,161657, Control_c, 0, 64, 54
2,161677, Control_c, 0, 64, 50
2,161696, Control_c, 0, 64, 46
2,161712, Control_c, 0, 64, 45
2,161735, Control_c, 0, 64, 46
2,161753, Control_c, 0, 64, 49
2,161773, Control_c, 0, 64, 52
2,161790, Control_c, 0, 64, 59
2,161800, Note_on_c, 0, 52, 0
2,161812, Control_c, 0, 64, 63
2,161828, Control_c, 0, 64, 65
2,161851, Control_c, 0, 64, 67
2,161865, Control_c, 0, 64, 69
2,161880, Note_on_c, 0, 81, 0
2,161887, Control_c, 0, 64, 72
2,161907, Control_c, 0, 67, 30
2,161943, Control_c, 0, 64, 71
2,161962, Control_c, 0, 64, 70
2,161979, Note_on_c, 0, 45, 0
2,161986, Control_c, 0, 64, 69
2,161986, Control_c, 0, 67, 31
2,162001, Control_c, 0, 64, 68
2,162022, Control_c, 0, 64, 67
2,162029, Note_on_c, 0, 81, 80
2,162040, Control_c, 0, 64, 65
2,162057, Note_on_c, 0, 49, 43
2,162060, Control_c, 0, 64, 64
2,162069, Note_on_c, 0, 78, 51
2,162078, Control_c, 0, 64, 61
2,162098, Control_c, 0, 64, 56
2,162117, Control_c, 0, 64, 48
2,162137, Control_c, 0, 64, 38
2,162155, Control_c, 0, 64, 33
2,162174, Control_c, 0, 64, 34
2,162194, Control_c, 0, 64, 38
2,162205, Note_on_c, 0, 50, 0
2,162214, Control_c, 0, 64, 43
2,162232, Note_on_c, 0, 69, 0
2,162237, Control_c, 0, 64, 54
2,162250, Control_c, 0, 64, 63
2,162270, Control_c, 0, 64, 67
2,162290, Control_c, 0, 64, 70
2,162308, Control_c, 0, 64, 74
2,162330, Control_c, 0, 64, 79
2,162330, Control_c, 0, 67, 30
2,162348, Control_c, 0, 64, 81
2,162357, Note_on_c, 0, 78, 0
2,162403, Control_c, 0, 64, 80
2,162425, Control_c, 0, 64, 79
2,162442, Control_c, 0, 64, 77
2,162462, Control_c, 0, 64, 75
2,162482, Control_c, 0, 64, 73
2,162500, Note_on_c, 0, 47, 44
2,162500, Note_on_c, 0, 78, 80
2,162504, Control_c, 0, 64, 71
2,162519, Control_c, 0, 64, 67
2,162536, Note_on_c, 0, 74, 52
2,162540, Control_c, 0, 64, 62
2,162545, Note_on_c, 0, 49, 0
2,162559, Control_c, 0, 64, 54
2,162579, Control_c, 0, 64, 44
2,162596, Control_c, 0, 64, 39
2,162616, Control_c, 0, 64, 40
2,162638, Control_c, 0, 64, 42
2,162656, Control_c, 0, 64, 46
2,162671, Note_on_c, 0, 81, 0
2,162676, Control_c, 0, 64, 51
2,162696, Control_c, 0, 64, 58
2,162711, Control_c, 0, 64, 64
2,162734, Control_c, 0, 64, 66
2,162734, Note_on_c, 0, 47, 0
2,162749, Control_c, 0, 64, 69
2,162770, Control_c, 0, 64, 73
2,162792, Control_c, 0, 64, 84
2,162809, Control_c, 0, 64, 97
2,162829, Control_c, 0, 64, 105
2,162829, Note_on_c, 0, 78, 0
2,162846, Control_c, 0, 64, 106
2,162866, Control_c, 0, 64, 110
2,162884, Control_c, 0, 64, 127
2,162972, Note_on_c, 0, 78, 82
2,162983, Control_c, 0, 67, 29
2,162987, Note_on_c, 0, 62, 47
2,163081, Note_on_c, 0, 74, 0
2,163154, Control_c, 0, 64, 120
2,163172, Control_c, 0, 64, 112
2,163191, Control_c, 0, 64, 107
2,163210, Control_c, 0, 64, 103
2,163232, Control_c, 0, 64, 100
2,163232, Control_c, 0, 67, 30
2,163249, Control_c, 0, 64, 98
2,163253, Note_on_c, 0, 62, 0
2,163271, Control_c, 0, 64, 95
2,163289, Control_c, 0, 64, 93
2,163307, Control_c, 0, 64, 91
2,163325, Control_c, 0, 64, 90
2,163345, Control_c, 0, 64, 89
2,163350, Note_on_c, 0, 78, 0
2,163368, Control_c, 0, 64, 88
2,163403, Control_c, 0, 64, 87
2,163425, Control_c, 0, 64, 85
2,163442, Control_c, 0, 64, 82
2,163449, Note_on_c, 0, 78, 88
2,163462, Control_c, 0, 64, 79
2,163466, Note_on_c, 0, 62, 52
2,163481, Control_c, 0, 64, 75
2,163497, Note_on_c, 0, 71, 49
2,163501, Control_c, 0, 64, 69
2,163519, Control_c, 0, 64, 63
2,163538, Control_c, 0, 64, 56
2,163556, Control_c, 0, 64, 49
2,163578, Control_c, 0, 64, 45
2,163596, Control_c, 0, 64, 46
2,163614, Control_c, 0, 64, 48
2,163633, Control_c, 0, 64, 51
2,163653, Control_c, 0, 64, 57
2,163672, Control_c, 0, 64, 63
2,163690, Control_c, 0, 64, 65
2,163709, Control_c, 0, 64, 69
2,163728, Control_c, 0, 64, 74
2,163748, Control_c, 0, 64, 82
2,163768, Control_c, 0, 64, 90
2,163788, Control_c, 0, 64, 94
2,163793, Note_on_c, 0, 62, 0
2,163884, Control_c, 0, 64, 95
2,163915, Note_on_c, 0, 62, 77
2,163929, Note_on_c, 0, 59, 49
2,163942, Control_c, 0, 64, 94
2,164018, Control_c, 0, 64, 93
2,164055, Control_c, 0, 64, 92
2,164076, Control_c, 0, 64, 91
2,164095, Control_c, 0, 64, 89
2,164113, Control_c, 0, 64, 88
2,164134, Control_c, 0, 64, 87
2,164151, Control_c, 0, 64, 86
2,164156, Control_c, 0, 67, 29
2,164194, Note_on_c, 0, 62, 0
2,164213, Control_c, 0, 64, 85
2,164228, Note_on_c, 0, 59, 0
2,164247, Note_on_c, 0, 71, 0
2,164252, Control_c, 0, 64, 83
2,164286, Control_c, 0, 64, 82
2,164308, Control_c, 0, 64, 81
2,164326, Control_c, 0, 64, 80
2,164344, Control_c, 0, 64, 79
2,164363, Note_on_c, 0, 59, 78
2,164382, Control_c, 0, 64, 78
2,164402, Control_c, 0, 64, 77
2,164411, Note_on_c, 0, 56, 44
2,164422, Control_c, 0, 64, 75
2,164441, Control_c, 0, 64, 74
2,164460, Control_c, 0, 64, 72
2,164479, Control_c, 0, 64, 69
2,164497, Control_c, 0, 64, 67
2,164517, Control_c, 0, 64, 66
2,164535, Control_c, 0, 64, 65
2,164574, Control_c, 0, 64, 66
2,164613, Control_c, 0, 64, 67
2,164635, Control_c, 0, 67, 28
2,164647, Note_on_c, 0, 59, 0
2,164671, Control_c, 0, 64, 68
2,164747, Control_c, 0, 64, 67
2,164793, Note_on_c, 0, 71, 78
2,164800, Note_on_c, 0, 59, 61
2,164824, Control_c, 0, 67, 29
2,164925, Note_on_c, 0, 78, 0
2,165085, Note_on_c, 0, 59, 0
2,165268, Note_on_c, 0, 76, 80
2,165285, Note_on_c, 0, 52, 49
2,165289, Note_on_c, 0, 59, 51
2,165305, Control_c, 0, 64, 66
2,165381, Control_c, 0, 64, 65
2,165402, Control_c, 0, 67, 30
2,165420, Control_c, 0, 64, 64
2,165438, Control_c, 0, 64, 62
2,165455, Control_c, 0, 64, 61
2,165479, Control_c, 0, 64, 60
2,165515, Note_on_c, 0, 71, 0
2,165555, Control_c, 0, 64, 59
2,165591, Control_c, 0, 64, 58
2,165611, Control_c, 0, 64, 57
2,165642, Note_on_c, 0, 56, 0
2,165649, Control_c, 0, 64, 56
2,165688, Control_c, 0, 64, 55
2,165710, Control_c, 0, 64, 54
2,165714, Note_on_c, 0, 74, 76
2,165725, Control_c, 0, 64, 53
2,165748, Control_c, 0, 64, 51
2,165766, Control_c, 0, 64, 46
2,165766, Control_c, 0, 67, 31
2,165785, Control_c, 0, 64, 36
2,165803, Control_c, 0, 64, 11
2,165803, Control_c, 0, 67, 32
2,165824, Control_c, 0, 64, 0
2,165843, Control_c, 0, 67, 33
2,165908, Note_on_c, 0, 76, 0
2,166155, Note_on_c, 0, 55, 63
2,166176, Note_on_c, 0, 73, 71
2,166187, Control_c, 0, 67, 32
2,166331, Note_on_c, 0, 74, 0
2,166340, Control_c, 0, 67, 31
2,166399, Control_c, 0, 67, 30
2,166407, Note_on_c, 0, 52, 0
2,166434, Note_on_c, 0, 59, 0
2,166458, Control_c, 0, 67, 29
2,166636, Note_on_c, 0, 52, 62
2,166643, Note_on_c, 0, 71, 64
2,166899, Control_c, 0, 67, 28
2,167095, Note_on_c, 0, 57, 60
2,167095, Note_on_c, 0, 69, 64
2,167165, Note_on_c, 0, 55, 0
2,167261, Note_on_c, 0, 71, 0
2,167470, Note_on_c, 0, 52, 0
2,167524, Note_on_c, 0, 55, 56
2,167529, Note_on_c, 0, 49, 53
2,167685, Note_on_c, 0, 57, 0
2,167762, Control_c, 0, 67, 27
2,167899, Note_on_c, 0, 73, 0
2,167994, Note_on_c, 0, 72, 77
2,167999, Note_on_c, 0, 54, 50
2,168145, Note_on_c, 0, 69, 0
2,168171, Note_on_c, 0, 55, 0
2,168222, Control_c, 0, 67, 26
2,168237, Note_on_c, 0, 49, 0
2,168454, Note_on_c, 0, 52, 54
2,168472, Note_on_c, 0, 67, 50
2,168644, Note_on_c, 0, 54, 0
2,168744, Control_c, 0, 67, 25
2,168819, Control_c, 0, 67, 24
2,168893, Control_c, 0, 67, 23
2,168911, Note_on_c, 0, 50, 56
2,168932, Note_on_c, 0, 66, 49
2,168972, Control_c, 0, 67, 22
2,168990, Note_on_c, 0, 67, 0
2,169048, Control_c, 0, 67, 21
2,169089, Note_on_c, 0, 52, 0
2,169163, Control_c, 0, 67, 20
2,169359, Note_on_c, 0, 57, 67
2,169412, Note_on_c, 0, 64, 39
2,169496, Note_on_c, 0, 66, 0
2,169586, Note_on_c, 0, 50, 0
2,169777, Control_c, 0, 67, 21
2,169838, Note_on_c, 0, 62, 69
2,169857, Note_on_c, 0, 66, 56
2,170002, Note_on_c, 0, 64, 0
2,170013, Note_on_c, 0, 72, 0
2,170017, Note_on_c, 0, 57, 0
2,170276, Note_on_c, 0, 69, 71
2,170296, Note_on_c, 0, 60, 50
2,170301, Control_c, 0, 67, 22
2,170469, Note_on_c, 0, 62, 0
2,170625, Note_on_c, 0, 66, 0
2,170747, Note_on_c, 0, 74, 78
2,170758, Note_on_c, 0, 59, 52
2,170915, Note_on_c, 0, 69, 0
2,170924, Note_on_c, 0, 60, 0
2,170929, Control_c, 0, 64, 13
2,170948, Control_c, 0, 64, 29
2,170966, Control_c, 0, 64, 46
2,170986, Control_c, 0, 64, 57
2,171008, Control_c, 0, 64, 60
2,171064, Control_c, 0, 67, 21
2,171102, Control_c, 0, 64, 59
2,171182, Control_c, 0, 64, 58
2,171191, Note_on_c, 0, 72, 72
2,171195, Note_on_c, 0, 50, 62
2,171233, Note_on_c, 0, 57, 48
2,171256, Control_c, 0, 64, 57
2,171294, Control_c, 0, 64, 56
2,171316, Control_c, 0, 64, 54
2,171332, Control_c, 0, 64, 51
2,171345, Note_on_c, 0, 74, 0
2,171353, Control_c, 0, 64, 49
2,171378, Note_on_c, 0, 59, 0
2,171393, Control_c, 0, 64, 48
2,171408, Control_c, 0, 64, 47
2,171545, Control_c, 0, 64, 46
2,171679, Note_on_c, 0, 55, 71
2,171693, Note_on_c, 0, 71, 58
2,171739, Control_c, 0, 64, 45
2,171746, Note_on_c, 0, 72, 0
2,171814, Control_c, 0, 64, 44
2,171830, Control_c, 0, 67, 22
2,171882, Note_on_c, 0, 57, 0
2,171890, Control_c, 0, 64, 43
2,171918, Note_on_c, 0, 50, 0
2,171927, Control_c, 0, 64, 42
2,171965, Control_c, 0, 64, 41
2,172153, Note_on_c, 0, 62, 71
2,172160, Note_on_c, 0, 54, 53
2,172273, Control_c, 0, 67, 21
2,172341, Note_on_c, 0, 55, 0
2,172618, Note_on_c, 0, 67, 72
2,172620, Note_on_c, 0, 52, 46
2,172684, Control_c, 0, 64, 40
2,172749, Note_on_c, 0, 62, 0
2,172827, Note_on_c, 0, 54, 0
2,173085, Note_on_c, 0, 50, 47
2,173099, Note_on_c, 0, 66, 59
2,173267, Note_on_c, 0, 52, 0
2,173274, Note_on_c, 0, 67, 0
2,173555, Note_on_c, 0, 64, 65
2,173576, Note_on_c, 0, 49, 48
2,173753, Note_on_c, 0, 50, 0
2,173811, Note_on_c, 0, 66, 0
2,174028, Note_on_c, 0, 52, 68
2,174044, Note_on_c, 0, 62, 52
2,174086, Control_c, 0, 64, 41
2,174122, Control_c, 0, 67, 22
2,174192, Note_on_c, 0, 64, 0
2,174201, Control_c, 0, 64, 42
2,174220, Control_c, 0, 64, 44
2,174237, Control_c, 0, 64, 48
2,174259, Control_c, 0, 64, 55
2,174276, Control_c, 0, 64, 60
2,174291, Note_on_c, 0, 71, 0
2,174295, Control_c, 0, 64, 61
2,174314, Control_c, 0, 67, 21
2,174334, Control_c, 0, 64, 62
2,174343, Note_on_c, 0, 49, 0
2,174430, Control_c, 0, 64, 61
2,174487, Control_c, 0, 64, 60
2,174508, Control_c, 0, 64, 59
2,174527, Control_c, 0, 64, 58
2,174543, Control_c, 0, 64, 56
2,174543, Note_on_c, 0, 69, 70
2,174552, Note_on_c, 0, 57, 71
2,174567, Control_c, 0, 64, 52
2,174567, Control_c, 0, 67, 22
2,174571, Note_on_c, 0, 61, 38
2,174582, Control_c, 0, 64, 43
2,174602, Control_c, 0, 64, 32
2,174621, Control_c, 0, 64, 25
2,174641, Control_c, 0, 64, 23
2,174678, Note_on_c, 0, 52, 0
2,174695, Note_on_c, 0, 62, 0
2,174702, Control_c, 0, 64, 25
2,174718, Control_c, 0, 64, 28
2,174737, Control_c, 0, 64, 33
2,174755, Control_c, 0, 64, 42
2,174779, Control_c, 0, 64, 55
2,174779, Control_c, 0, 67, 21
2,174794, Control_c, 0, 64, 64
2,174818, Control_c, 0, 64, 68
2,174831, Control_c, 0, 64, 74
2,174852, Control_c, 0, 64, 84
2,174871, Control_c, 0, 64, 99
2,174890, Control_c, 0, 64, 103
2,174902, Note_on_c, 0, 57, 0
2,174930, Control_c, 0, 64, 101
2,174949, Control_c, 0, 64, 96
2,174969, Control_c, 0, 64, 93
2,174969, Control_c, 0, 67, 22
2,174987, Control_c, 0, 64, 91
2,174987, Control_c, 0, 67, 23
2,175007, Control_c, 0, 64, 89
2,175007, Control_c, 0, 67, 24
2,175025, Control_c, 0, 64, 85
2,175029, Control_c, 0, 67, 25
2,175034, Note_on_c, 0, 55, 71
2,175046, Control_c, 0, 64, 78
2,175057, Note_on_c, 0, 45, 46
2,175063, Control_c, 0, 64, 71
2,175083, Control_c, 0, 64, 66
2,175087, Control_c, 0, 67, 26
2,175105, Control_c, 0, 64, 64
2,175105, Control_c, 0, 67, 27
2,175120, Control_c, 0, 67, 28
2,175140, Control_c, 0, 67, 29
2,175180, Control_c, 0, 67, 30
2,175199, Control_c, 0, 64, 63
2,175199, Control_c, 0, 67, 31
2,175217, Control_c, 0, 67, 32
2,175237, Control_c, 0, 64, 62
2,175241, Control_c, 0, 67, 33
2,175255, Control_c, 0, 64, 60
2,175275, Control_c, 0, 67, 34
2,175295, Control_c, 0, 64, 59
2,175295, Control_c, 0, 67, 35
2,175313, Control_c, 0, 67, 36
2,175333, Control_c, 0, 64, 58
2,175351, Control_c, 0, 64, 56
2,175351, Control_c, 0, 67, 37
2,175392, Control_c, 0, 64, 55
2,175408, Control_c, 0, 67, 38
2,175430, Control_c, 0, 64, 54
2,175448, Control_c, 0, 64, 53
2,175448, Control_c, 0, 67, 39
2,175466, Control_c, 0, 64, 51
2,175486, Control_c, 0, 64, 50
2,175506, Control_c, 0, 64, 49
2,175506, Control_c, 0, 67, 40
2,175526, Control_c, 0, 64, 48
2,175526, Control_c, 0, 67, 44
2,175544, Control_c, 0, 64, 46
2,175544, Control_c, 0, 67, 50
2,175564, Control_c, 0, 64, 45
2,175564, Control_c, 0, 67, 57
2,175573, Note_on_c, 0, 54, 69
2,175587, Control_c, 0, 64, 43
2,175587, Control_c, 0, 67, 62
2,175599, Note_on_c, 0, 50, 45
2,175606, Control_c, 0, 64, 42
2,175606, Control_c, 0, 67, 67
2,175625, Control_c, 0, 64, 40
2,175625, Control_c, 0, 67, 70
2,175644, Control_c, 0, 64, 37
2,175644, Control_c, 0, 67, 71
2,175662, Control_c, 0, 64, 36
2,175662, Control_c, 0, 67, 72
2,175680, Control_c, 0, 64, 35
2,175697, Control_c, 0, 64, 34
2,175758, Control_c, 0, 64, 33
2,175793, Control_c, 0, 67, 71
2,175815, Control_c, 0, 64, 32
2,175815, Note_on_c, 0, 45, 0
2,175851, Control_c, 0, 67, 70
2,175880, Note_on_c, 0, 55, 0
2,175910, Control_c, 0, 67, 69
2,175932, Control_c, 0, 67, 68
2,175970, Control_c, 0, 67, 67
2,175987, Control_c, 0, 67, 66
2,176025, Control_c, 0, 67, 65
2,176064, Control_c, 0, 67, 64
2,176102, Control_c, 0, 67, 63
2,176122, Control_c, 0, 64, 31
2,176152, Note_on_c, 0, 57, 68
2,176181, Control_c, 0, 67, 62
2,176181, Note_on_c, 0, 48, 44
2,176199, Control_c, 0, 64, 30
2,176216, Control_c, 0, 64, 29
2,176254, Control_c, 0, 64, 28
2,176326, Note_on_c, 0, 50, 0
2,176360, Note_on_c, 0, 61, 0
2,176467, Control_c, 0, 67, 61
2,176658, Note_on_c, 0, 62, 72
2,176672, Note_on_c, 0, 47, 41
2,176747, Note_on_c, 0, 48, 0
2,176842, Note_on_c, 0, 57, 0
2,177124, Note_on_c, 0, 60, 59
2,177128, Note_on_c, 0, 45, 49
2,177246, Note_on_c, 0, 62, 0
2,177294, Note_on_c, 0, 47, 0
2,177592, Note_on_c, 0, 43, 49
2,177597, Note_on_c, 0, 59, 57
2,177735, Note_on_c, 0, 45, 0
2,177793, Note_on_c, 0, 60, 0
2,178051, Note_on_c, 0, 47, 61
2,178261, Note_on_c, 0, 54, 0
2,178576, Note_on_c, 0, 67, 63
2,178593, Note_on_c, 0, 52, 50
2,178618, Control_c, 0, 67, 62
2,178675, Note_on_c, 0, 69, 0
2,178745, Note_on_c, 0, 59, 0
2,178753, Note_on_c, 0, 47, 0
2,178808, Control_c, 0, 67, 61
2,179095, Note_on_c, 0, 50, 47
2,179095, Note_on_c, 0, 59, 59
2,179240, Note_on_c, 0, 52, 0
2,179289, Control_c, 0, 64, 29
2,179404, Control_c, 0, 64, 30
2,179437, Note_on_c, 0, 43, 0
2,179539, Control_c, 0, 67, 60
2,179652, Note_on_c, 0, 64, 58
2,179674, Note_on_c, 0, 45, 29
2,179679, Note_on_c, 0, 49, 38
2,179782, Control_c, 0, 67, 61
2,179797, Note_on_c, 0, 67, 0
2,179836, Note_on_c, 0, 50, 0
2,179843, Note_on_c, 0, 59, 0
2,179860, Control_c, 0, 64, 31
2,179882, Control_c, 0, 64, 32
2,179898, Control_c, 0, 64, 33
2,179918, Control_c, 0, 64, 35
2,179936, Control_c, 0, 64, 40
2,179957, Control_c, 0, 64, 52
2,179977, Control_c, 0, 64, 61
2,179995, Control_c, 0, 64, 64
2,180014, Control_c, 0, 64, 66
2,180037, Control_c, 0, 64, 69
2,180037, Control_c, 0, 67, 60
2,180055, Control_c, 0, 64, 77
2,180070, Control_c, 0, 64, 87
2,180091, Control_c, 0, 64, 95
2,180091, Note_on_c, 0, 64, 0
2,180146, Control_c, 0, 64, 94
2,180168, Control_c, 0, 64, 92
2,180187, Control_c, 0, 64, 90
2,180205, Control_c, 0, 64, 88
2,180214, Note_on_c, 0, 64, 70
2,180219, Note_on_c, 0, 50, 45
2,180226, Control_c, 0, 64, 85
2,180237, Note_on_c, 0, 62, 48
2,180243, Control_c, 0, 64, 82
2,180266, Control_c, 0, 64, 77
2,180281, Control_c, 0, 64, 73
2,180303, Control_c, 0, 64, 67
2,180322, Control_c, 0, 64, 63
2,180342, Control_c, 0, 64, 60
2,180359, Control_c, 0, 64, 58
2,180408, Note_on_c, 0, 49, 0
2,180417, Control_c, 0, 64, 57
2,180436, Control_c, 0, 64, 55
2,180454, Control_c, 0, 64, 52
2,180475, Control_c, 0, 64, 50
2,180492, Control_c, 0, 64, 48
2,180512, Control_c, 0, 64, 47
2,180742, Note_on_c, 0, 52, 46
2,180746, Note_on_c, 0, 69, 70
2,180778, Note_on_c, 0, 61, 39
2,180835, Note_on_c, 0, 64, 0
2,180877, Control_c, 0, 64, 46
2,180888, Note_on_c, 0, 50, 0
2,180954, Control_c, 0, 64, 47
2,180980, Note_on_c, 0, 62, 0
2,180995, Control_c, 0, 64, 48
2,181011, Control_c, 0, 64, 50
2,181030, Control_c, 0, 64, 54
2,181050, Control_c, 0, 64, 60
2,181072, Control_c, 0, 64, 63
2,181088, Control_c, 0, 64, 65
2,181108, Control_c, 0, 64, 67
2,181116, Note_on_c, 0, 69, 0
2,181127, Control_c, 0, 64, 69
2,181132, Control_c, 0, 67, 59
2,181146, Control_c, 0, 64, 72
2,181166, Control_c, 0, 64, 73
2,181282, Control_c, 0, 64, 72
2,181319, Control_c, 0, 64, 71
2,181339, Control_c, 0, 64, 70
2,181348, Note_on_c, 0, 67, 63
2,181358, Control_c, 0, 64, 68
2,181377, Note_on_c, 0, 64, 45
2,181381, Control_c, 0, 64, 66
2,181395, Control_c, 0, 64, 65
2,181415, Control_c, 0, 64, 64
2,181435, Control_c, 0, 64, 63
2,181452, Control_c, 0, 64, 62
2,181471, Control_c, 0, 64, 60
2,181480, Note_on_c, 0, 61, 0
2,181516, Control_c, 0, 64, 59
2,181516, Control_c, 0, 67, 60
2,181548, Control_c, 0, 64, 58
2,181588, Control_c, 0, 64, 57
2,181607, Control_c, 0, 64, 55
2,181646, Control_c, 0, 64, 54
2,181685, Control_c, 0, 64, 53
2,181704, Control_c, 0, 64, 52
2,181724, Control_c, 0, 64, 51
2,181741, Control_c, 0, 64, 50
2,181762, Control_c, 0, 64, 49
2,181782, Control_c, 0, 67, 61
2,181839, Control_c, 0, 64, 48
2,181839, Control_c, 0, 67, 62
2,181877, Control_c, 0, 67, 63
2,181917, Control_c, 0, 67, 64
2,181970, Control_c, 0, 67, 65
2,182012, Control_c, 0, 64, 47
2,182012, Control_c, 0, 67, 66
2,182050, Control_c, 0, 64, 46
2,182050, Control_c, 0, 67, 67
2,182072, Note_on_c, 0, 66, 67
2,182106, Control_c, 0, 67, 68
2,182146, Control_c, 0, 67, 69
2,182220, Control_c, 0, 67, 70
2,182273, Note_on_c, 0, 67, 0
2,182300, Control_c, 0, 67, 71
2,182375, Control_c, 0, 67, 72
2,182413, Control_c, 0, 64, 45
2,182451, Control_c, 0, 67, 73
2,182471, Control_c, 0, 64, 44
2,182493, Control_c, 0, 64, 43
2,182587, Control_c, 0, 67, 74
2,182645, Control_c, 0, 67, 79
2,182663, Control_c, 0, 67, 87
2,182681, Control_c, 0, 67, 94
2,182701, Control_c, 0, 67, 97
2,182722, Control_c, 0, 67, 100
2,182740, Control_c, 0, 67, 103
2,182760, Control_c, 0, 67, 104
2,182780, Control_c, 0, 67, 105
2,182814, Note_on_c, 0, 50, 40
2,182820, Note_on_c, 0, 62, 45
2,182836, Control_c, 0, 67, 106
2,182916, Note_on_c, 0, 64, 0
2,182932, Control_c, 0, 67, 107
2,182953, Control_c, 0, 67, 109
2,182971, Control_c, 0, 67, 114
2,182989, Control_c, 0, 67, 120
2,183008, Control_c, 0, 67, 125
2,183021, Note_on_c, 0, 52, 0
2,183032, Control_c, 0, 67, 127
2,183555, Note_on_c, 0, 64, 54
2,183568, Note_on_c, 0, 57, 43
2,183800, Note_on_c, 0, 66, 0
2,183856, Note_on_c, 0, 50, 0
2,184488, Note_on_c, 0, 61, 42
2,184494, Note_on_c, 0, 55, 37
2,184644, Note_on_c, 0, 57, 0
2,184654, Note_on_c, 0, 62, 0
2,184700, Control_c, 0, 64, 44
2,184737, Control_c, 0, 64, 46
2,184757, Control_c, 0, 64, 47
2,184775, Control_c, 0, 64, 51
2,184793, Control_c, 0, 64, 57
2,184815, Control_c, 0, 64, 60
2,184815, Control_c, 0, 67, 126
2,184833, Control_c, 0, 64, 62
2,184851, Control_c, 0, 64, 64
2,184870, Control_c, 0, 64, 66
2,184890, Control_c, 0, 64, 70
2,184894, Control_c, 0, 67, 125
2,184909, Control_c, 0, 64, 75
2,184929, Control_c, 0, 64, 81
2,184950, Control_c, 0, 64, 90
2,184966, Control_c, 0, 64, 106
2,184985, Control_c, 0, 64, 127
2,184995, Note_on_c, 0, 64, 0
2,185084, Note_on_c, 0, 45, 0
2,185117, Note_on_c, 0, 55, 0
2,185180, Note_on_c, 0, 61, 0
2,185200, Control_c, 0, 67, 124
2,186129, Note_on_c, 0, 62, 41
2,186134, Control_c, 0, 64, 118
2,186138, Note_on_c, 0, 50, 38
2,186138, Note_on_c, 0, 54, 24
2,186138, Note_on_c, 0, 57, 42
2,186142, Note_on_c, 0, 38, 32
2,186149, Control_c, 0, 64, 107
2,186167, Control_c, 0, 64, 101
2,186180, Control_c, 0, 64, 94
2,186200, Control_c, 0, 64, 86
2,186219, Control_c, 0, 64, 77
2,186238, Control_c, 0, 64, 70
2,186259, Control_c, 0, 64, 66
2,186278, Control_c, 0, 64, 64
2,186338, Control_c, 0, 64, 63
2,186368, Control_c, 0, 64, 62
2,186388, Control_c, 0, 64, 61
2,186427, Control_c, 0, 64, 60
2,186445, Control_c, 0, 64, 59
2,186482, Control_c, 0, 64, 58
2,186501, Control_c, 0, 64, 57
2,186520, Control_c, 0, 64, 56
2,186537, Control_c, 0, 64, 54
2,186557, Control_c, 0, 64, 52
2,186615, Control_c, 0, 64, 51
2,186648, Control_c, 0, 64, 50
2,186667, Control_c, 0, 64, 49
2,186686, Control_c, 0, 64, 47
2,186705, Control_c, 0, 64, 45
2,186725, Control_c, 0, 64, 44
2,186743, Control_c, 0, 64, 43
2,186763, Control_c, 0, 64, 42
2,187090, Control_c, 0, 64, 43
2,187166, Control_c, 0, 64, 44
2,187243, Control_c, 0, 64, 45
2,187300, Control_c, 0, 64, 46
2,187338, Control_c, 0, 64, 47
2,187395, Control_c, 0, 64, 48
2,187416, Control_c, 0, 64, 49
2,187436, Control_c, 0, 64, 51
2,187455, Control_c, 0, 64, 53
2,187568, Control_c, 0, 64, 54
2,187606, Control_c, 0, 64, 55
2,187628, Control_c, 0, 64, 56
2,187761, Control_c, 0, 64, 57
2,187782, Control_c, 0, 64, 58
2,187782, Control_c, 0, 67, 123
2,187801, Control_c, 0, 64, 59
2,187837, Control_c, 0, 64, 60
2,187857, Control_c, 0, 64, 61
2,187894, Control_c, 0, 64, 62
2,187934, Control_c, 0, 64, 63
2,187971, Control_c, 0, 64, 64
2,187991, Control_c, 0, 64, 65
2,188011, Control_c, 0, 64, 66
2,188031, Control_c, 0, 64, 67
2,188048, Control_c, 0, 64, 68
2,188069, Control_c, 0, 64, 69
2,188088, Control_c, 0, 64, 71
2,188107, Control_c, 0, 64, 72
2,188125, Control_c, 0, 64, 74
2,188166, Control_c, 0, 64, 75
2,188261, Control_c, 0, 64, 76
2,188299, Control_c, 0, 64, 77
2,188319, Control_c, 0, 64, 79
2,188337, Control_c, 0, 64, 82
2,188356, Control_c, 0, 64, 85
2,188375, Control_c, 0, 64, 87
2,188395, Control_c, 0, 64, 89
2,188413, Control_c, 0, 64, 90
2,188433, Control_c, 0, 64, 92
2,188455, Control_c, 0, 64, 94
2,188472, Control_c, 0, 64, 96
2,188492, Control_c, 0, 64, 97
2,188510, Control_c, 0, 64, 99
2,188532, Control_c, 0, 64, 101
2,188547, Control_c, 0, 64, 102
2,188569, Control_c, 0, 67, 122
2,188588, Control_c, 0, 64, 103
2,188666, Control_c, 0, 64, 104
2,188701, Control_c, 0, 64, 106
2,188723, Control_c, 0, 64, 109
2,188743, Control_c, 0, 64, 113
2,188759, Control_c, 0, 64, 115
2,188779, Control_c, 0, 64, 116
2,188893, Control_c, 0, 64, 115
2,188932, Control_c, 0, 64, 113
2,189105, Control_c, 0, 64, 112
2,189124, Control_c, 0, 64, 111
2,189144, Control_c, 0, 64, 110
2,189164, Control_c, 0, 64, 109
2,189182, Control_c, 0, 64, 107
2,189202, Control_c, 0, 64, 106
2,189220, Control_c, 0, 64, 104
2,189239, Control_c, 0, 64, 103
2,189259, Control_c, 0, 64, 101
2,189280, Control_c, 0, 64, 100
2,189336, Control_c, 0, 64, 99
2,189373, Control_c, 0, 64, 98
2,189568, Control_c, 0, 64, 97
2,189568, Note_on_c, 0, 62, 0
2,189623, Control_c, 0, 67, 121
2,189701, Control_c, 0, 64, 96
2,189737, Control_c, 0, 64, 95
2,189757, Control_c, 0, 64, 94
2,189779, Control_c, 0, 64, 93
2,189797, Control_c, 0, 64, 92
2,189818, Control_c, 0, 64, 91
2,189839, Control_c, 0, 64, 90
2,189839, Note_on_c, 0, 50, 0
2,189841, Note_on_c, 0, 54, 0
2,189855, Control_c, 0, 64, 89
2,189872, Control_c, 0, 64, 87
2,189894, Control_c, 0, 64, 85
2,189911, Control_c, 0, 64, 83
2,189931, Control_c, 0, 64, 81
2,189949, Control_c, 0, 64, 80
2,189970, Control_c, 0, 64, 79
2,189985, Note_on_c, 0, 57, 0
2,190010, Control_c, 0, 64, 78
2,190047, Control_c, 0, 64, 76
2,190065, Control_c, 0, 64, 75
2,190076, Note_on_c, 0, 38, 0
2,190085, Control_c, 0, 64, 74
2,190103, Control_c, 0, 64, 73
2,190160, Control_c, 0, 64, 72
2,190180, Control_c, 0, 64, 71
2,190220, Control_c, 0, 64, 70
2,190237, Control_c, 0, 64, 69
2,190276, Control_c, 0, 64, 68
2,190334, Control_c, 0, 64, 67
2,190373, Control_c, 0, 64, 66
2,190391, Control_c, 0, 64, 65
2,190448, Control_c, 0, 64, 64
2,190488, Control_c, 0, 64, 63
2,190525, Control_c, 0, 64, 62
2,190565, Control_c, 0, 64, 61
2,190583, Control_c, 0, 64, 60
2,190622, Control_c, 0, 64, 59
2,190660, Control_c, 0, 64, 58
2,190679, Control_c, 0, 64, 57
2,190737, Control_c, 0, 64, 56
2,190759, Control_c, 0, 64, 55
2,190834, Control_c, 0, 64, 54
2,190872, Control_c, 0, 64, 53
2,190929, Control_c, 0, 64, 52
2,191199, Control_c, 0, 64, 51
2,191200, End_track
0, 0, End_of_file
