0, 0, Header, 1, 2, 480
1, 0, Start_track
1, 0, Tempo, 500000
1, 0, Time_signature, 4, 2, 24, 8
1, 1, End_track
2, 0, Start_track
2, 0, Program_c, 0, 0
2, 0, Control_c, 0, 64, 0
2, 0, Control_c, 0, 67, 0
2, 993, Note_on_c, 0, 50, 87
2, 1002, Note_on_c, 0, 38, 76
2, 1280, Note_on_c, 0, 62, 89
2, 1371, Note_on_c, 0, 64, 86
2, 1387, Note_on_c, 0, 62, 0
2, 1462, Note_on_c, 0, 66, 79
2, 1507, Note_on_c, 0, 64, 0
2, 1543, Note_on_c, 0, 67, 82
2, 1548, Note_on_c, 0, 66, 0
2, 1585, Note_on_c, 0, 50, 0
2, 1600, Note_on_c, 0, 38, 0
2, 1638, Note_on_c, 0, 69, 95
2, 1660, Note_on_c, 0, 67, 0
2, 1674, Note_on_c, 0, 69, 0
2, 1843, Note_on_c, 0, 66, 83
2, 1880, Note_on_c, 0, 66, 0
2, 2034, Note_on_c, 0, 69, 82
2, 2067, Note_on_c, 0, 69, 0
2, 2232, Note_on_c, 0, 74, 98
2, 2275, Note_on_c, 0, 74, 0
2, 2420, Note_on_c, 0, 69, 90
2, 2481, Note_on_c, 0, 69, 0
2, 2617, Note_on_c, 0, 74, 101
2, 2664, Note_on_c, 0, 74, 0
2, 2804, Note_on_c, 0, 78, 101
2, 2859, Note_on_c, 0, 78, 0
2, 2992, Note_on_c, 0, 74, 97
2, 3049, Note_on_c, 0, 74, 0
2, 3187, Note_on_c, 0, 78, 102
2, 3236, Note_on_c, 0, 78, 0
2, 3439, Note_on_c, 0, 81, 96
2, 3816, Control_c, 0, 64, 27
2, 3836, Control_c, 0, 64, 45
2, 3855, Control_c, 0, 64, 58
2, 3874, Control_c, 0, 64, 63
2, 3892, Control_c, 0, 64, 65
2, 3912, Control_c, 0, 64, 68
2, 3932, Control_c, 0, 64, 73
2, 3952, Control_c, 0, 64, 80
2, 3970, Control_c, 0, 64, 84
2, 3988, Control_c, 0, 64, 86
2, 4008, Control_c, 0, 64, 87
2, 4015, Note_on_c, 0, 81, 0
2, 4068, Control_c, 0, 64, 86
2, 4086, Control_c, 0, 64, 85
2, 4106, Control_c, 0, 64, 82
2, 4123, Control_c, 0, 64, 79
2, 4143, Control_c, 0, 64, 73
2, 4148, Note_on_c, 0, 81, 84
2, 4159, Note_on_c, 0, 62, 49
2, 4163, Control_c, 0, 64, 67
2, 4169, Note_on_c, 0, 78, 75
2, 4181, Control_c, 0, 64, 63
2, 4202, Control_c, 0, 64, 59
2, 4222, Control_c, 0, 64, 56
2, 4239, Control_c, 0, 64, 53
2, 4257, Control_c, 0, 64, 49
2, 4279, Control_c, 0, 64, 42
2, 4297, Control_c, 0, 64, 36
2, 4317, Control_c, 0, 64, 32
2, 4336, Control_c, 0, 64, 31
2, 4392, Control_c, 0, 64, 34
2, 4412, Control_c, 0, 64, 41
2, 4430, Control_c, 0, 64, 53
2, 4450, Control_c, 0, 64, 62
2, 4469, Control_c, 0, 64, 66
2, 4487, Control_c, 0, 64, 70
2, 4507, Control_c, 0, 64, 78
2, 4529, Control_c, 0, 64, 90
2, 4545, Control_c, 0, 64, 103
2, 4567, Control_c, 0, 64, 109
2, 4583, Note_on_c, 0, 81, 0
2, 4603, Control_c, 0, 64, 107
2, 4621, Control_c, 0, 64, 104
2, 4625, Note_on_c, 0, 78, 0
2, 4642, Control_c, 0, 64, 102
2, 4660, Control_c, 0, 64, 100
2, 4678, Control_c, 0, 64, 96
2, 4699, Control_c, 0, 64, 91
2, 4719, Control_c, 0, 64, 86
2, 4741, Control_c, 0, 64, 82
2, 4761, Control_c, 0, 64, 77
2, 4776, Control_c, 0, 64, 73
2, 4796, Control_c, 0, 64, 69
2, 4817, Control_c, 0, 64, 65
2, 4835, Control_c, 0, 64, 62
2, 4844, Note_on_c, 0, 81, 80
2, 4856, Control_c, 0, 64, 60
2, 4856, Note_on_c, 0, 69, 57
2, 4864, Note_on_c, 0, 78, 71
2, 4873, Control_c, 0, 64, 59
2, 4890, Control_c, 0, 64, 58
2, 4912, Control_c, 0, 64, 57
2, 4929, Control_c, 0, 64, 55
2, 4949, Control_c, 0, 64, 52
2, 4967, Control_c, 0, 64, 48
2, 4988, Control_c, 0, 64, 45
2, 5007, Control_c, 0, 64, 43
2, 5027, Control_c, 0, 64, 42
2, 5033, Note_on_c, 0, 62, 0
2, 5045, Control_c, 0, 64, 41
2, 5082, Control_c, 0, 64, 39
2, 5105, Control_c, 0, 64, 36
2, 5123, Control_c, 0, 64, 32
2, 5142, Control_c, 0, 64, 29
2, 5161, Control_c, 0, 64, 25
2, 5182, Control_c, 0, 64, 24
2, 5188, Note_on_c, 0, 76, 79
2, 5193, Note_on_c, 0, 79, 79
2, 5197, Note_on_c, 0, 81, 0
2, 5250, Note_on_c, 0, 78, 0
2, 5257, Control_c, 0, 64, 27
2, 5275, Control_c, 0, 64, 32
2, 5294, Control_c, 0, 64, 39
2, 5315, Control_c, 0, 64, 50
2, 5336, Control_c, 0, 64, 60
2, 5352, Control_c, 0, 64, 62
2, 5410, Control_c, 0, 64, 61
2, 5414, Note_on_c, 0, 76, 0
2, 5421, Note_on_c, 0, 79, 0
2, 5448, Control_c, 0, 64, 60
2, 5485, Control_c, 0, 64, 59
2, 5507, Control_c, 0, 64, 58
2, 5525, Control_c, 0, 64, 57
2, 5546, Note_on_c, 0, 57, 65
2, 5546, Note_on_c, 0, 79, 79
2, 5551, Control_c, 0, 64, 55
2, 5551, Note_on_c, 0, 76, 76
2, 5564, Control_c, 0, 64, 53
2, 5586, Control_c, 0, 64, 49
2, 5602, Control_c, 0, 64, 46
2, 5624, Control_c, 0, 64, 43
2, 5641, Control_c, 0, 64, 41
2, 5659, Control_c, 0, 64, 39
2, 5681, Control_c, 0, 64, 38
2, 5717, Control_c, 0, 64, 37
2, 5730, Note_on_c, 0, 69, 0
2, 5738, Control_c, 0, 64, 36
2, 5759, Control_c, 0, 64, 35
2, 5774, Control_c, 0, 64, 34
2, 5793, Control_c, 0, 64, 32
2, 5901, Note_on_c, 0, 78, 71
2, 5905, Note_on_c, 0, 74, 57
2, 5920, Note_on_c, 0, 79, 0
2, 5940, Note_on_c, 0, 76, 0
2, 6120, Note_on_c, 0, 74, 0
2, 6139, Note_on_c, 0, 78, 0
2, 6225, Note_on_c, 0, 57, 0
2, 6239, Note_on_c, 0, 78, 69
2, 6243, Note_on_c, 0, 62, 62
2, 6254, Note_on_c, 0, 74, 65
2, 6259, Control_c, 0, 64, 34
2, 6273, Control_c, 0, 64, 39
2, 6293, Control_c, 0, 64, 46
2, 6311, Control_c, 0, 64, 56
2, 6331, Control_c, 0, 64, 62
2, 6351, Control_c, 0, 64, 63
2, 6369, Control_c, 0, 64, 62
2, 6426, Control_c, 0, 64, 61
2, 6462, Note_on_c, 0, 62, 0
2, 6469, Control_c, 0, 64, 60
2, 6482, Note_on_c, 0, 50, 77
2, 6487, Control_c, 0, 64, 58
2, 6505, Control_c, 0, 64, 57
2, 6520, Note_on_c, 0, 78, 0
2, 6524, Control_c, 0, 64, 55
2, 6548, Control_c, 0, 64, 50
2, 6548, Note_on_c, 0, 74, 0
2, 6561, Control_c, 0, 64, 40
2, 6568, Note_on_c, 0, 52, 73
2, 6581, Control_c, 0, 64, 15
2, 6601, Control_c, 0, 64, 0
2, 6601, Note_on_c, 0, 50, 0
2, 6654, Note_on_c, 0, 54, 83
2, 6680, Note_on_c, 0, 52, 0
2, 6749, Note_on_c, 0, 55, 82
2, 6758, Note_on_c, 0, 54, 0
2, 6839, Note_on_c, 0, 57, 97
2, 6844, Note_on_c, 0, 55, 0
2, 6890, Note_on_c, 0, 57, 0
2, 7035, Note_on_c, 0, 54, 86
2, 7094, Note_on_c, 0, 54, 0
2, 7239, Note_on_c, 0, 57, 93
2, 7275, Note_on_c, 0, 57, 0
2, 7421, Note_on_c, 0, 62, 102
2, 7469, Note_on_c, 0, 62, 0
2, 7622, Note_on_c, 0, 57, 92
2, 7679, Note_on_c, 0, 57, 0
2, 7824, Note_on_c, 0, 62, 95
2, 7867, Note_on_c, 0, 62, 0
2, 8023, Note_on_c, 0, 66, 97
2, 8073, Note_on_c, 0, 66, 0
2, 8207, Note_on_c, 0, 62, 89
2, 8267, Note_on_c, 0, 62, 0
2, 8408, Note_on_c, 0, 66, 96
2, 8451, Note_on_c, 0, 66, 0
2, 8648, Note_on_c, 0, 69, 94
2, 8824, Control_c, 0, 64, 16
2, 8843, Control_c, 0, 64, 32
2, 8863, Control_c, 0, 64, 43
2, 8884, Control_c, 0, 64, 52
2, 8901, Control_c, 0, 64, 58
2, 8921, Control_c, 0, 64, 61
2, 8940, Control_c, 0, 64, 62
2, 8961, Control_c, 0, 64, 63
2, 8977, Control_c, 0, 64, 65
2, 8997, Control_c, 0, 64, 68
2, 9018, Control_c, 0, 64, 72
2, 9036, Control_c, 0, 64, 79
2, 9054, Control_c, 0, 64, 84
2, 9075, Control_c, 0, 64, 85
2, 9095, Control_c, 0, 64, 86
2, 9171, Control_c, 0, 64, 85
2, 9189, Control_c, 0, 64, 84
2, 9208, Control_c, 0, 64, 83
2, 9229, Control_c, 0, 64, 80
2, 9242, Note_on_c, 0, 69, 0
2, 9247, Control_c, 0, 64, 77
2, 9265, Control_c, 0, 64, 76
2, 9285, Control_c, 0, 64, 74
2, 9305, Control_c, 0, 64, 73
2, 9323, Control_c, 0, 64, 72
2, 9341, Control_c, 0, 64, 70
2, 9357, Note_on_c, 0, 78, 93
2, 9363, Control_c, 0, 64, 66
2, 9369, Note_on_c, 0, 69, 70
2, 9380, Control_c, 0, 64, 62
2, 9380, Note_on_c, 0, 50, 47
2, 9403, Control_c, 0, 64, 59
2, 9419, Control_c, 0, 64, 57
2, 9439, Control_c, 0, 64, 56
2, 9458, Control_c, 0, 64, 55
2, 9477, Control_c, 0, 64, 52
2, 9497, Control_c, 0, 64, 45
2, 9515, Control_c, 0, 64, 27
2, 9535, Control_c, 0, 64, 0
2, 9630, Control_c, 0, 64, 15
2, 9651, Control_c, 0, 64, 23
2, 9670, Control_c, 0, 64, 30
2, 9690, Control_c, 0, 64, 44
2, 9708, Control_c, 0, 64, 56
2, 9726, Control_c, 0, 64, 62
2, 9746, Control_c, 0, 64, 64
2, 9764, Control_c, 0, 64, 65
2, 9784, Control_c, 0, 64, 69
2, 9802, Control_c, 0, 64, 74
2, 9826, Control_c, 0, 64, 78
2, 9844, Control_c, 0, 64, 79
2, 9881, Control_c, 0, 64, 78
2, 9912, Note_on_c, 0, 78, 0
2, 9916, Note_on_c, 0, 69, 0
2, 9920, Control_c, 0, 64, 77
2, 9940, Control_c, 0, 64, 76
2, 9957, Control_c, 0, 64, 75
2, 9975, Control_c, 0, 64, 73
2, 9997, Control_c, 0, 64, 71
2, 10015, Control_c, 0, 64, 70
2, 10034, Control_c, 0, 64, 68
2, 10052, Control_c, 0, 64, 67
2, 10073, Control_c, 0, 64, 64
2, 10093, Control_c, 0, 64, 61
2, 10097, Note_on_c, 0, 78, 91
2, 10109, Note_on_c, 0, 57, 64
2, 10109, Note_on_c, 0, 69, 70
2, 10113, Control_c, 0, 64, 59
2, 10131, Control_c, 0, 64, 58
2, 10149, Control_c, 0, 64, 56
2, 10169, Control_c, 0, 64, 55
2, 10205, Control_c, 0, 64, 54
2, 10308, Note_on_c, 0, 50, 0
2, 10313, Note_on_c, 0, 69, 0
2, 10381, Control_c, 0, 64, 53
2, 10418, Control_c, 0, 64, 54
2, 10444, Note_on_c, 0, 67, 67
2, 10450, Note_on_c, 0, 76, 78
2, 10450, Note_on_c, 0, 78, 0
2, 10495, Control_c, 0, 64, 55
2, 10513, Control_c, 0, 64, 56
2, 10534, Control_c, 0, 64, 57
2, 10554, Control_c, 0, 64, 59
2, 10591, Control_c, 0, 64, 60
2, 10633, Note_on_c, 0, 76, 0
2, 10635, Note_on_c, 0, 67, 0
2, 10649, Control_c, 0, 64, 59
2, 10707, Control_c, 0, 64, 58
2, 10782, Control_c, 0, 64, 57
2, 10795, Note_on_c, 0, 45, 61
2, 10804, Note_on_c, 0, 76, 77
2, 10808, Note_on_c, 0, 67, 57
2, 10821, Control_c, 0, 64, 56
2, 10841, Control_c, 0, 64, 55
2, 10878, Control_c, 0, 64, 54
2, 10956, Control_c, 0, 64, 55
2, 10990, Note_on_c, 0, 76, 0
2, 10994, Control_c, 0, 64, 56
2, 11054, Control_c, 0, 64, 55
2, 11079, Note_on_c, 0, 57, 0
2, 11129, Control_c, 0, 64, 54
2, 11148, Control_c, 0, 64, 55
2, 11159, Note_on_c, 0, 66, 63
2, 11163, Note_on_c, 0, 74, 62
2, 11209, Note_on_c, 0, 67, 0
2, 11245, Control_c, 0, 64, 56
2, 11321, Control_c, 0, 64, 55
2, 11326, Note_on_c, 0, 74, 0
2, 11354, Note_on_c, 0, 66, 0
2, 11397, Control_c, 0, 64, 54
2, 11417, Control_c, 0, 64, 52
2, 11434, Control_c, 0, 64, 46
2, 11453, Control_c, 0, 64, 38
2, 11473, Control_c, 0, 64, 33
2, 11493, Control_c, 0, 64, 34
2, 11506, Note_on_c, 0, 74, 66
2, 11515, Note_on_c, 0, 50, 53
2, 11519, Control_c, 0, 64, 37
2, 11519, Note_on_c, 0, 45, 0
2, 11519, Note_on_c, 0, 66, 64
2, 11530, Control_c, 0, 64, 42
2, 11551, Control_c, 0, 64, 49
2, 11573, Control_c, 0, 64, 57
2, 11591, Control_c, 0, 64, 60
2, 11608, Note_on_c, 0, 74, 0
2, 11649, Note_on_c, 0, 66, 0
2, 11685, Control_c, 0, 64, 59
2, 11705, Control_c, 0, 64, 58
2, 11724, Control_c, 0, 64, 57
2, 11742, Control_c, 0, 64, 56
2, 11762, Control_c, 0, 64, 54
2, 11785, Control_c, 0, 64, 49
2, 11785, Note_on_c, 0, 66, 77
2, 11800, Control_c, 0, 64, 33
2, 11819, Control_c, 0, 64, 0
2, 11859, Note_on_c, 0, 66, 0
2, 11875, Note_on_c, 0, 64, 71
2, 11924, Note_on_c, 0, 50, 0
2, 11924, Note_on_c, 0, 64, 0
2, 11952, Note_on_c, 0, 62, 70
2, 11963, Note_on_c, 0, 38, 57
2, 12007, Note_on_c, 0, 38, 0
2, 12031, Note_on_c, 0, 62, 0
2, 12051, Note_on_c, 0, 61, 68
2, 12131, Note_on_c, 0, 61, 0
2, 12160, Note_on_c, 0, 59, 82
2, 12179, Note_on_c, 0, 50, 60
2, 12190, Note_on_c, 0, 59, 0
2, 12371, Note_on_c, 0, 62, 80
2, 12408, Note_on_c, 0, 50, 0
2, 12413, Note_on_c, 0, 62, 0
2, 12574, Note_on_c, 0, 59, 79
2, 12586, Note_on_c, 0, 50, 74
2, 12606, Note_on_c, 0, 59, 0
2, 12626, Note_on_c, 0, 50, 0
2, 12824, Note_on_c, 0, 50, 72
2, 12824, Note_on_c, 0, 56, 75
2, 13054, Note_on_c, 0, 64, 78
2, 13155, Note_on_c, 0, 66, 88
2, 13177, Note_on_c, 0, 64, 0
2, 13233, Note_on_c, 0, 50, 0
2, 13240, Note_on_c, 0, 56, 0
2, 13262, Note_on_c, 0, 68, 85
2, 13309, Note_on_c, 0, 66, 0
2, 13352, Note_on_c, 0, 69, 78
2, 13357, Note_on_c, 0, 68, 0
2, 13458, Note_on_c, 0, 71, 95
2, 13480, Note_on_c, 0, 69, 0
2, 13493, Note_on_c, 0, 71, 0
2, 13670, Note_on_c, 0, 68, 89
2, 13675, Note_on_c, 0, 52, 79
2, 13707, Note_on_c, 0, 68, 0
2, 13741, Note_on_c, 0, 52, 0
2, 13778, Note_on_c, 0, 50, 78
2, 13865, Note_on_c, 0, 50, 0
2, 13870, Note_on_c, 0, 49, 77
2, 13872, Note_on_c, 0, 71, 95
2, 13911, Note_on_c, 0, 71, 0
2, 13962, Note_on_c, 0, 49, 0
2, 13984, Note_on_c, 0, 47, 73
2, 14098, Note_on_c, 0, 47, 0
2, 14102, Note_on_c, 0, 49, 74
2, 14109, Note_on_c, 0, 76, 98
2, 14138, Control_c, 0, 64, 9
2, 14158, Control_c, 0, 64, 45
2, 14178, Control_c, 0, 64, 64
2, 14200, Control_c, 0, 64, 73
2, 14215, Control_c, 0, 64, 84
2, 14215, Note_on_c, 0, 76, 0
2, 14236, Control_c, 0, 64, 89
2, 14256, Control_c, 0, 64, 93
2, 14293, Control_c, 0, 64, 92
2, 14314, Control_c, 0, 64, 87
2, 14334, Control_c, 0, 64, 77
2, 14350, Control_c, 0, 64, 70
2, 14369, Control_c, 0, 64, 65
2, 14387, Note_on_c, 0, 65, 53
2, 14392, Control_c, 0, 64, 62
2, 14392, Note_on_c, 0, 64, 60
2, 14410, Control_c, 0, 64, 58
2, 14414, Note_on_c, 0, 65, 0
2, 14430, Control_c, 0, 64, 54
2, 14450, Control_c, 0, 64, 48
2, 14460, Note_on_c, 0, 64, 0
2, 14465, Note_on_c, 0, 62, 78
2, 14467, Control_c, 0, 64, 36
2, 14487, Control_c, 0, 64, 21
2, 14505, Control_c, 0, 64, 0
2, 14517, Note_on_c, 0, 49, 0
2, 14562, Note_on_c, 0, 37, 53
2, 14576, Note_on_c, 0, 61, 65
2, 14580, Note_on_c, 0, 62, 0
2, 14600, Note_on_c, 0, 37, 0
2, 14657, Note_on_c, 0, 61, 0
2, 14664, Note_on_c, 0, 59, 73
2, 14742, Note_on_c, 0, 59, 0
2, 14774, Note_on_c, 0, 57, 76
2, 14778, Note_on_c, 0, 49, 67
2, 14806, Note_on_c, 0, 57, 0
2, 14987, Note_on_c, 0, 61, 65
2, 15003, Note_on_c, 0, 49, 0
2, 15022, Note_on_c, 0, 61, 0
2, 15203, Note_on_c, 0, 57, 67
2, 15212, Note_on_c, 0, 49, 62
2, 15240, Note_on_c, 0, 57, 0
2, 15253, Note_on_c, 0, 49, 0
2, 15458, Note_on_c, 0, 49, 52
2, 15460, Note_on_c, 0, 54, 56
2, 15717, Note_on_c, 0, 62, 66
2, 15805, Note_on_c, 0, 62, 0
2, 15823, Note_on_c, 0, 64, 74
2, 15845, Note_on_c, 0, 54, 0
2, 15878, Note_on_c, 0, 49, 0
2, 15919, Note_on_c, 0, 64, 0
2, 15928, Note_on_c, 0, 66, 66
2, 16000, Note_on_c, 0, 66, 0
2, 16009, Note_on_c, 0, 68, 74
2, 16122, Note_on_c, 0, 69, 77
2, 16126, Note_on_c, 0, 68, 0
2, 16155, Note_on_c, 0, 69, 0
2, 16334, Note_on_c, 0, 66, 75
2, 16347, Note_on_c, 0, 50, 65
2, 16369, Note_on_c, 0, 66, 0
2, 16405, Note_on_c, 0, 50, 0
2, 16451, Note_on_c, 0, 49, 65
2, 16507, Note_on_c, 0, 49, 0
2, 16534, Note_on_c, 0, 69, 70
2, 16554, Note_on_c, 0, 47, 67
2, 16576, Note_on_c, 0, 69, 0
2, 16599, Note_on_c, 0, 47, 0
2, 16652, Note_on_c, 0, 45, 65
2, 16755, Note_on_c, 0, 45, 0
2, 16764, Note_on_c, 0, 74, 75
2, 16786, Note_on_c, 0, 47, 57
2, 16839, Note_on_c, 0, 47, 0
2, 17014, Note_on_c, 0, 54, 58
2, 17067, Note_on_c, 0, 54, 0
2, 17116, Note_on_c, 0, 52, 61
2, 17181, Note_on_c, 0, 52, 0
2, 17213, Note_on_c, 0, 50, 66
2, 17213, Note_on_c, 0, 66, 66
2, 17256, Note_on_c, 0, 74, 0
2, 17269, Note_on_c, 0, 50, 0
2, 17288, Note_on_c, 0, 66, 0
2, 17304, Note_on_c, 0, 49, 65
2, 17412, Note_on_c, 0, 49, 0
2, 17437, Note_on_c, 0, 47, 60
2, 17437, Note_on_c, 0, 74, 82
2, 17445, Note_on_c, 0, 66, 64
2, 17481, Note_on_c, 0, 47, 0
2, 17634, Control_c, 0, 64, 21
2, 17652, Control_c, 0, 64, 30
2, 17661, Note_on_c, 0, 50, 74
2, 17672, Control_c, 0, 64, 36
2, 17695, Control_c, 0, 64, 40
2, 17711, Control_c, 0, 64, 43
2, 17715, Note_on_c, 0, 50, 0
2, 17734, Control_c, 0, 64, 46
2, 17750, Note_on_c, 0, 66, 0
2, 17754, Control_c, 0, 64, 48
2, 17777, Note_on_c, 0, 74, 0
2, 17828, Control_c, 0, 64, 47
2, 17845, Control_c, 0, 64, 46
2, 17865, Control_c, 0, 64, 45
2, 17876, Note_on_c, 0, 47, 76
2, 17885, Control_c, 0, 64, 44
2, 17889, Note_on_c, 0, 66, 84
2, 17889, Note_on_c, 0, 74, 87
2, 17904, Control_c, 0, 64, 42
2, 17918, Note_on_c, 0, 47, 0
2, 17942, Control_c, 0, 64, 41
2, 17981, Control_c, 0, 64, 40
2, 17990, Note_on_c, 0, 66, 0
2, 18024, Note_on_c, 0, 74, 0
2, 18074, Control_c, 0, 64, 39
2, 18116, Control_c, 0, 64, 30
2, 18116, Note_on_c, 0, 44, 79
2, 18120, Note_on_c, 0, 64, 80
2, 18120, Note_on_c, 0, 74, 83
2, 18134, Control_c, 0, 64, 0
2, 18147, Note_on_c, 0, 44, 0
2, 18343, Note_on_c, 0, 47, 72
2, 18381, Note_on_c, 0, 47, 0
2, 18562, Note_on_c, 0, 44, 76
2, 18602, Note_on_c, 0, 44, 0
2, 18786, Note_on_c, 0, 40, 70
2, 18819, Note_on_c, 0, 40, 0
2, 18992, Note_on_c, 0, 64, 0
2, 18997, Note_on_c, 0, 74, 0
2, 19008, Note_on_c, 0, 44, 67
2, 19014, Note_on_c, 0, 76, 68
2, 19056, Note_on_c, 0, 44, 0
2, 19101, Note_on_c, 0, 76, 0
2, 19119, Note_on_c, 0, 74, 62
2, 19191, Note_on_c, 0, 74, 0
2, 19200, Note_on_c, 0, 73, 67
2, 19223, Note_on_c, 0, 40, 46
2, 19260, Note_on_c, 0, 40, 0
2, 19283, Note_on_c, 0, 73, 0
2, 19309, Note_on_c, 0, 71, 62
2, 19418, Note_on_c, 0, 71, 0
2, 19431, Note_on_c, 0, 73, 60
2, 19438, Note_on_c, 0, 45, 60
2, 19475, Note_on_c, 0, 45, 0
2, 19641, Note_on_c, 0, 73, 0
2, 19666, Note_on_c, 0, 49, 58
2, 19672, Note_on_c, 0, 69, 56
2, 19705, Note_on_c, 0, 49, 0
2, 19730, Note_on_c, 0, 69, 0
2, 19770, Note_on_c, 0, 71, 65
2, 19873, Note_on_c, 0, 45, 51
2, 19879, Note_on_c, 0, 73, 74
2, 19884, Note_on_c, 0, 71, 0
2, 19913, Note_on_c, 0, 45, 0
2, 19953, Note_on_c, 0, 73, 0
2, 19992, Note_on_c, 0, 74, 60
2, 20083, Note_on_c, 0, 76, 82
2, 20094, Note_on_c, 0, 42, 62
2, 20094, Note_on_c, 0, 74, 0
2, 20134, Note_on_c, 0, 42, 0
2, 20311, Note_on_c, 0, 44, 71
2, 20322, Note_on_c, 0, 76, 0
2, 20326, Note_on_c, 0, 74, 75
2, 20363, Note_on_c, 0, 44, 0
2, 20421, Note_on_c, 0, 73, 82
2, 20443, Note_on_c, 0, 74, 0
2, 20518, Note_on_c, 0, 73, 0
2, 20520, Note_on_c, 0, 71, 78
2, 20553, Note_on_c, 0, 43, 32
2, 20611, Note_on_c, 0, 43, 0
2, 20611, Note_on_c, 0, 71, 0
2, 20616, Note_on_c, 0, 69, 80
2, 20738, Note_on_c, 0, 74, 90
2, 20746, Note_on_c, 0, 47, 71
2, 20776, Note_on_c, 0, 69, 0
2, 20785, Note_on_c, 0, 47, 0
2, 20966, Note_on_c, 0, 74, 0
2, 20970, Note_on_c, 0, 71, 87
2, 20977, Note_on_c, 0, 50, 76
2, 21017, Note_on_c, 0, 50, 0
2, 21059, Note_on_c, 0, 71, 0
2, 21064, Note_on_c, 0, 73, 93
2, 21167, Note_on_c, 0, 73, 0
2, 21171, Note_on_c, 0, 47, 68
2, 21171, Note_on_c, 0, 74, 94
2, 21209, Note_on_c, 0, 47, 0
2, 21285, Note_on_c, 0, 76, 79
2, 21285, Note_on_c, 0, 77, 78
2, 21309, Note_on_c, 0, 74, 0
2, 21378, Note_on_c, 0, 77, 0
2, 21382, Note_on_c, 0, 44, 76
2, 21387, Note_on_c, 0, 78, 95
2, 21416, Note_on_c, 0, 76, 0
2, 21453, Note_on_c, 0, 44, 0
2, 21608, Note_on_c, 0, 76, 87
2, 21617, Note_on_c, 0, 47, 73
2, 21617, Note_on_c, 0, 78, 0
2, 21658, Note_on_c, 0, 47, 0
2, 21699, Note_on_c, 0, 76, 0
2, 21708, Note_on_c, 0, 74, 91
2, 21817, Note_on_c, 0, 73, 91
2, 21824, Note_on_c, 0, 44, 60
2, 21835, Note_on_c, 0, 74, 0
2, 21866, Note_on_c, 0, 44, 0
2, 21920, Note_on_c, 0, 71, 86
2, 21931, Note_on_c, 0, 73, 0
2, 22031, Note_on_c, 0, 49, 61
2, 22045, Note_on_c, 0, 76, 92
2, 22078, Note_on_c, 0, 71, 0
2, 22185, Control_c, 0, 64, 14
2, 22203, Control_c, 0, 64, 24
2, 22225, Control_c, 0, 64, 29
2, 22243, Control_c, 0, 64, 32
2, 22258, Note_on_c, 0, 49, 0
2, 22292, Note_on_c, 0, 57, 80
2, 22299, Control_c, 0, 64, 31
2, 22322, Control_c, 0, 64, 29
2, 22338, Control_c, 0, 64, 27
2, 22356, Control_c, 0, 64, 25
2, 22374, Control_c, 0, 64, 24
2, 22399, Control_c, 0, 64, 22
2, 22399, Note_on_c, 0, 59, 79
2, 22404, Note_on_c, 0, 57, 0
2, 22415, Control_c, 0, 64, 21
2, 22436, Control_c, 0, 64, 19
2, 22453, Control_c, 0, 64, 16
2, 22471, Control_c, 0, 64, 11
2, 22487, Note_on_c, 0, 61, 83
2, 22491, Control_c, 0, 64, 0
2, 22506, Note_on_c, 0, 59, 0
2, 22586, Note_on_c, 0, 62, 88
2, 22601, Note_on_c, 0, 61, 0
2, 22661, Note_on_c, 0, 62, 0
2, 22679, Note_on_c, 0, 64, 89
2, 22917, Note_on_c, 0, 62, 72
2, 22925, Note_on_c, 0, 64, 0
2, 22996, Note_on_c, 0, 62, 0
2, 23030, Note_on_c, 0, 61, 70
2, 23105, Note_on_c, 0, 61, 0
2, 23134, Note_on_c, 0, 59, 75
2, 23198, Note_on_c, 0, 59, 0
2, 23235, Note_on_c, 0, 57, 71
2, 23297, Note_on_c, 0, 57, 0
2, 23338, Note_on_c, 0, 50, 58
2, 23350, Note_on_c, 0, 66, 72
2, 23508, Control_c, 0, 64, 16
2, 23527, Control_c, 0, 64, 37
2, 23545, Note_on_c, 0, 50, 0
2, 23549, Control_c, 0, 64, 51
2, 23568, Control_c, 0, 64, 56
2, 23605, Note_on_c, 0, 59, 76
2, 23647, Control_c, 0, 64, 55
2, 23663, Control_c, 0, 64, 54
2, 23676, Note_on_c, 0, 59, 0
2, 23681, Control_c, 0, 64, 52
2, 23702, Note_on_c, 0, 61, 73
2, 23707, Control_c, 0, 64, 51
2, 23707, Note_on_c, 0, 66, 0
2, 23723, Control_c, 0, 64, 48
2, 23739, Control_c, 0, 64, 43
2, 23759, Control_c, 0, 64, 36
2, 23776, Control_c, 0, 64, 27
2, 23799, Control_c, 0, 64, 18
2, 23803, Note_on_c, 0, 62, 85
2, 23806, Note_on_c, 0, 61, 0
2, 23816, Control_c, 0, 64, 0
2, 23872, Note_on_c, 0, 62, 0
2, 23902, Note_on_c, 0, 64, 87
2, 24016, Note_on_c, 0, 74, 98
2, 24029, Note_on_c, 0, 66, 86
2, 24051, Note_on_c, 0, 64, 0
2, 24094, Note_on_c, 0, 76, 0
2, 24246, Note_on_c, 0, 66, 0
2, 24271, Note_on_c, 0, 64, 82
2, 24373, Note_on_c, 0, 62, 84
2, 24373, Note_on_c, 0, 64, 0
2, 24462, Note_on_c, 0, 62, 0
2, 24466, Note_on_c, 0, 61, 77
2, 24518, Note_on_c, 0, 61, 0
2, 24560, Note_on_c, 0, 59, 72
2, 24681, Note_on_c, 0, 68, 84
2, 24690, Note_on_c, 0, 59, 0
2, 24706, Note_on_c, 0, 52, 67
2, 24743, Note_on_c, 0, 74, 0
2, 24914, Control_c, 0, 64, 9
2, 24920, Note_on_c, 0, 68, 0
2, 24932, Control_c, 0, 64, 15
2, 24937, Note_on_c, 0, 64, 63
2, 24955, Control_c, 0, 64, 20
2, 24973, Control_c, 0, 64, 27
2, 24990, Control_c, 0, 64, 33
2, 24992, Note_on_c, 0, 64, 0
2, 25011, Control_c, 0, 64, 40
2, 25029, Control_c, 0, 64, 45
2, 25042, Note_on_c, 0, 66, 69
2, 25049, Control_c, 0, 64, 48
2, 25066, Control_c, 0, 64, 49
2, 25112, Note_on_c, 0, 52, 0
2, 25126, Control_c, 0, 64, 48
2, 25144, Note_on_c, 0, 66, 0
2, 25148, Note_on_c, 0, 40, 61
2, 25148, Note_on_c, 0, 68, 76
2, 25163, Control_c, 0, 64, 47
2, 25183, Control_c, 0, 64, 46
2, 25183, Note_on_c, 0, 40, 0
2, 25207, Control_c, 0, 64, 45
2, 25207, Note_on_c, 0, 68, 0
2, 25244, Control_c, 0, 64, 44
2, 25244, Note_on_c, 0, 69, 76
2, 25278, Control_c, 0, 64, 43
2, 25284, Note_on_c, 0, 69, 0
2, 25298, Control_c, 0, 64, 42
2, 25335, Control_c, 0, 64, 38
2, 25355, Control_c, 0, 64, 27
2, 25365, Note_on_c, 0, 74, 89
2, 25370, Note_on_c, 0, 40, 64
2, 25375, Control_c, 0, 64, 0
2, 25380, Note_on_c, 0, 71, 84
2, 25469, Note_on_c, 0, 71, 0
2, 25491, Control_c, 0, 64, 8
2, 25510, Control_c, 0, 64, 18
2, 25534, Control_c, 0, 64, 25
2, 25549, Control_c, 0, 64, 35
2, 25571, Control_c, 0, 64, 48
2, 25590, Control_c, 0, 64, 58
2, 25604, Note_on_c, 0, 68, 86
2, 25608, Control_c, 0, 64, 61
2, 25637, Note_on_c, 0, 40, 0
2, 25643, Note_on_c, 0, 68, 0
2, 25647, Control_c, 0, 64, 62
2, 25665, Control_c, 0, 64, 63
2, 25724, Control_c, 0, 64, 62
2, 25780, Control_c, 0, 64, 61
2, 25824, Note_on_c, 0, 74, 0
2, 25827, Note_on_c, 0, 71, 89
2, 25833, Note_on_c, 0, 40, 75
2, 25872, Note_on_c, 0, 40, 0
2, 25876, Control_c, 0, 64, 62
2, 26029, Control_c, 0, 64, 61
2, 26072, Control_c, 0, 64, 60
2, 26072, Note_on_c, 0, 80, 101
2, 26079, Note_on_c, 0, 40, 69
2, 26083, Note_on_c, 0, 74, 81
2, 26088, Control_c, 0, 64, 59
2, 26110, Control_c, 0, 64, 58
2, 26115, Note_on_c, 0, 71, 0
2, 26128, Control_c, 0, 64, 56
2, 26146, Control_c, 0, 64, 53
2, 26163, Control_c, 0, 64, 43
2, 26183, Control_c, 0, 64, 0
2, 26239, Note_on_c, 0, 74, 0
2, 26310, Note_on_c, 0, 71, 88
2, 26357, Control_c, 0, 64, 21
2, 26375, Control_c, 0, 64, 31
2, 26383, Note_on_c, 0, 71, 0
2, 26395, Control_c, 0, 64, 37
2, 26413, Control_c, 0, 64, 41
2, 26432, Control_c, 0, 64, 45
2, 26452, Control_c, 0, 64, 48
2, 26472, Control_c, 0, 64, 50
2, 26492, Control_c, 0, 64, 53
2, 26509, Control_c, 0, 64, 54
2, 26530, Note_on_c, 0, 74, 93
2, 26534, Control_c, 0, 64, 56
2, 26548, Control_c, 0, 64, 59
2, 26570, Note_on_c, 0, 80, 0
2, 26574, Control_c, 0, 64, 64
2, 26586, Control_c, 0, 64, 66
2, 26605, Control_c, 0, 64, 71
2, 26624, Control_c, 0, 64, 80
2, 26645, Control_c, 0, 64, 97
2, 26662, Control_c, 0, 64, 127
2, 26752, Note_on_c, 0, 83, 98
2, 26783, Note_on_c, 0, 80, 71
2, 26841, Note_on_c, 0, 74, 0
2, 26874, Control_c, 0, 64, 109
2, 26894, Control_c, 0, 64, 99
2, 26914, Control_c, 0, 64, 90
2, 26932, Control_c, 0, 64, 82
2, 26952, Control_c, 0, 64, 76
2, 26970, Control_c, 0, 64, 71
2, 26975, Note_on_c, 0, 80, 0
2, 26991, Control_c, 0, 64, 65
2, 26997, Note_on_c, 0, 74, 94
2, 27009, Control_c, 0, 64, 61
2, 27028, Control_c, 0, 64, 57
2, 27048, Control_c, 0, 64, 55
2, 27059, Note_on_c, 0, 74, 0
2, 27068, Control_c, 0, 64, 52
2, 27086, Control_c, 0, 64, 49
2, 27091, Note_on_c, 0, 40, 0
2, 27100, Note_on_c, 0, 47, 81
2, 27105, Control_c, 0, 64, 44
2, 27125, Control_c, 0, 64, 32
2, 27142, Control_c, 0, 64, 0
2, 27199, Note_on_c, 0, 49, 82
2, 27201, Note_on_c, 0, 80, 83
2, 27209, Note_on_c, 0, 47, 0
2, 27267, Note_on_c, 0, 80, 0
2, 27295, Note_on_c, 0, 50, 87
2, 27306, Note_on_c, 0, 49, 0
2, 27413, Note_on_c, 0, 52, 92
2, 27438, Note_on_c, 0, 73, 93
2, 27441, Note_on_c, 0, 50, 0
2, 27463, Note_on_c, 0, 83, 0
2, 27689, Note_on_c, 0, 81, 84
2, 27807, Note_on_c, 0, 80, 78
2, 27870, Note_on_c, 0, 40, 61
2, 27879, Note_on_c, 0, 52, 0
2, 27886, Note_on_c, 0, 81, 0
2, 27896, Note_on_c, 0, 78, 81
2, 27920, Note_on_c, 0, 40, 0
2, 28001, Note_on_c, 0, 76, 82
2, 28001, Note_on_c, 0, 80, 0
2, 28023, Note_on_c, 0, 73, 0
2, 28023, Note_on_c, 0, 78, 0
2, 28039, Note_on_c, 0, 76, 0
2, 28117, Note_on_c, 0, 40, 51
2, 28123, Note_on_c, 0, 69, 87
2, 28138, Note_on_c, 0, 75, 74
2, 28173, Note_on_c, 0, 75, 0
2, 28343, Note_on_c, 0, 78, 84
2, 28369, Note_on_c, 0, 40, 0
2, 28408, Note_on_c, 0, 78, 0
2, 28570, Note_on_c, 0, 75, 76
2, 28588, Note_on_c, 0, 40, 58
2, 28610, Note_on_c, 0, 75, 0
2, 28613, Note_on_c, 0, 69, 0
2, 28633, Note_on_c, 0, 40, 0
2, 28807, Note_on_c, 0, 66, 75
2, 28807, Note_on_c, 0, 69, 66
2, 28811, Note_on_c, 0, 40, 55
2, 29035, Note_on_c, 0, 75, 76
2, 29039, Note_on_c, 0, 69, 0
2, 29082, Note_on_c, 0, 75, 0
2, 29256, Note_on_c, 0, 69, 69
2, 29309, Note_on_c, 0, 69, 0
2, 29316, Note_on_c, 0, 66, 0
2, 29496, Note_on_c, 0, 66, 61
2, 29504, Note_on_c, 0, 63, 63
2, 29698, Note_on_c, 0, 40, 0
2, 29722, Note_on_c, 0, 69, 61
2, 29724, Note_on_c, 0, 66, 0
2, 29776, Note_on_c, 0, 69, 0
2, 29810, Note_on_c, 0, 63, 0
2, 29954, Note_on_c, 0, 66, 62
2, 29996, Note_on_c, 0, 64, 33
2, 30005, Note_on_c, 0, 66, 0
2, 30043, Note_on_c, 0, 64, 0
2, 30171, Note_on_c, 0, 68, 79
2, 30175, Note_on_c, 0, 64, 62
2, 30218, Note_on_c, 0, 64, 0
2, 30385, Note_on_c, 0, 66, 71
2, 30413, Note_on_c, 0, 68, 0
2, 30427, Note_on_c, 0, 66, 0
2, 30613, Note_on_c, 0, 64, 76
2, 30626, Note_on_c, 0, 62, 67
2, 30630, Note_on_c, 0, 52, 64
2, 30663, Note_on_c, 0, 62, 0
2, 30663, Note_on_c, 0, 64, 0
2, 30667, Note_on_c, 0, 52, 0
2, 30845, Note_on_c, 0, 69, 73
2, 30849, Note_on_c, 0, 61, 69
2, 30858, Note_on_c, 0, 54, 75
2, 30905, Note_on_c, 0, 54, 0
2, 31041, Note_on_c, 0, 61, 0
2, 31041, Note_on_c, 0, 69, 0
2, 31085, Note_on_c, 0, 52, 72
2, 31117, Note_on_c, 0, 52, 0
2, 31307, Note_on_c, 0, 74, 89
2, 31311, Note_on_c, 0, 50, 83
2, 31316, Note_on_c, 0, 69, 74
2, 31340, Note_on_c, 0, 50, 0
2, 31344, Note_on_c, 0, 69, 0
2, 31586, Note_on_c, 0, 73, 91
2, 31587, Note_on_c, 0, 52, 85
2, 31587, Note_on_c, 0, 69, 76
2, 31663, Note_on_c, 0, 74, 0
2, 31842, Control_c, 0, 64, 25
2, 31864, Control_c, 0, 64, 39
2, 31883, Control_c, 0, 64, 50
2, 31900, Control_c, 0, 64, 61
2, 31920, Control_c, 0, 64, 67
2, 31943, Control_c, 0, 64, 74
2, 31962, Control_c, 0, 64, 93
2, 31977, Control_c, 0, 64, 127
2, 32036, Note_on_c, 0, 69, 0
2, 32083, Note_on_c, 0, 73, 0
2, 32232, Control_c, 0, 64, 108
2, 32248, Control_c, 0, 64, 101
2, 32266, Control_c, 0, 64, 95
2, 32285, Control_c, 0, 64, 90
2, 32307, Control_c, 0, 64, 85
2, 32325, Control_c, 0, 64, 78
2, 32343, Control_c, 0, 64, 71
2, 32362, Control_c, 0, 64, 64
2, 32385, Control_c, 0, 64, 59
2, 32388, Note_on_c, 0, 73, 80
2, 32402, Control_c, 0, 64, 55
2, 32411, Note_on_c, 0, 68, 72
2, 32420, Control_c, 0, 64, 50
2, 32420, Note_on_c, 0, 40, 63
2, 32440, Control_c, 0, 64, 42
2, 32440, Note_on_c, 0, 71, 83
2, 32461, Control_c, 0, 64, 28
2, 32479, Control_c, 0, 64, 0
2, 32479, Note_on_c, 0, 73, 0
2, 32500, Note_on_c, 0, 52, 0
2, 32626, Note_on_c, 0, 71, 0
2, 32649, Note_on_c, 0, 69, 68
2, 32697, Note_on_c, 0, 69, 0
2, 32877, Note_on_c, 0, 71, 71
2, 32892, Note_on_c, 0, 68, 0
2, 32928, Note_on_c, 0, 71, 0
2, 33124, Note_on_c, 0, 69, 64
2, 33135, Note_on_c, 0, 40, 0
2, 33135, Note_on_c, 0, 45, 62
2, 33367, Note_on_c, 0, 73, 78
2, 33398, Note_on_c, 0, 69, 0
2, 33483, Note_on_c, 0, 71, 83
2, 33502, Note_on_c, 0, 73, 0
2, 33563, Note_on_c, 0, 52, 74
2, 33563, Note_on_c, 0, 71, 0
2, 33568, Note_on_c, 0, 45, 0
2, 33580, Note_on_c, 0, 69, 75
2, 33594, Note_on_c, 0, 52, 0
2, 33663, Note_on_c, 0, 68, 90
2, 33678, Note_on_c, 0, 69, 0
2, 33762, Note_on_c, 0, 57, 77
2, 33762, Note_on_c, 0, 66, 88
2, 33775, Note_on_c, 0, 68, 0
2, 33799, Note_on_c, 0, 57, 0
2, 33820, Note_on_c, 0, 56, 79
2, 33893, Note_on_c, 0, 57, 86
2, 33933, Note_on_c, 0, 56, 0
2, 34000, Note_on_c, 0, 66, 0
2, 34004, Note_on_c, 0, 69, 83
2, 34103, Note_on_c, 0, 68, 84
2, 34137, Note_on_c, 0, 69, 0
2, 34207, Note_on_c, 0, 66, 80
2, 34212, Note_on_c, 0, 68, 0
2, 34289, Note_on_c, 0, 66, 0
2, 34305, Note_on_c, 0, 64, 85
2, 34428, Note_on_c, 0, 63, 87
2, 34435, Note_on_c, 0, 64, 0
2, 34466, Note_on_c, 0, 63, 0
2, 34653, Note_on_c, 0, 57, 0
2, 34657, Note_on_c, 0, 66, 90
2, 34676, Note_on_c, 0, 59, 74
2, 34682, Note_on_c, 0, 66, 0
2, 34755, Note_on_c, 0, 59, 0
2, 34771, Note_on_c, 0, 57, 76
2, 34860, Note_on_c, 0, 57, 0
2, 34869, Note_on_c, 0, 56, 78
2, 34882, Note_on_c, 0, 71, 89
2, 34910, Note_on_c, 0, 71, 0
2, 34953, Note_on_c, 0, 56, 0
2, 34972, Note_on_c, 0, 54, 69
2, 35101, Note_on_c, 0, 53, 68
2, 35120, Note_on_c, 0, 71, 91
2, 35130, Note_on_c, 0, 54, 0
2, 35346, Note_on_c, 0, 53, 0
2, 35377, Note_on_c, 0, 54, 71
2, 35377, Note_on_c, 0, 68, 78
2, 35405, Note_on_c, 0, 68, 0
2, 35431, Note_on_c, 0, 54, 0
2, 35480, Note_on_c, 0, 53, 67
2, 35558, Note_on_c, 0, 53, 0
2, 35574, Note_on_c, 0, 51, 73
2, 35586, Note_on_c, 0, 65, 69
2, 35627, Note_on_c, 0, 65, 0
2, 35657, Note_on_c, 0, 51, 0
2, 35682, Note_on_c, 0, 49, 65
2, 35799, Note_on_c, 0, 49, 0
2, 35821, Note_on_c, 0, 54, 65
2, 35826, Note_on_c, 0, 61, 68
2, 35850, Note_on_c, 0, 71, 0
2, 36086, Note_on_c, 0, 69, 65
2, 36110, Note_on_c, 0, 61, 0
2, 36193, Note_on_c, 0, 68, 68
2, 36197, Note_on_c, 0, 69, 0
2, 36247, Note_on_c, 0, 54, 0
2, 36268, Note_on_c, 0, 42, 53
2, 36286, Note_on_c, 0, 66, 60
2, 36308, Note_on_c, 0, 42, 0
2, 36308, Note_on_c, 0, 68, 0
2, 36362, Note_on_c, 0, 66, 0
2, 36383, Note_on_c, 0, 64, 69
2, 36473, Note_on_c, 0, 64, 0
2, 36498, Note_on_c, 0, 62, 64
2, 36508, Note_on_c, 0, 54, 64
2, 36550, Note_on_c, 0, 54, 0
2, 36571, Note_on_c, 0, 52, 69
2, 36658, Note_on_c, 0, 52, 0
2, 36667, Note_on_c, 0, 54, 62
2, 36708, Note_on_c, 0, 66, 66
2, 36709, Note_on_c, 0, 62, 0
2, 36805, Note_on_c, 0, 66, 0
2, 36810, Note_on_c, 0, 64, 73
2, 36885, Note_on_c, 0, 64, 0
2, 36919, Note_on_c, 0, 62, 69
2, 36977, Note_on_c, 0, 62, 0
2, 37010, Note_on_c, 0, 61, 61
2, 37106, Note_on_c, 0, 61, 0
2, 37130, Note_on_c, 0, 59, 66
2, 37330, Note_on_c, 0, 59, 0
2, 37339, Note_on_c, 0, 54, 0
2, 37348, Note_on_c, 0, 62, 74
2, 37368, Note_on_c, 0, 55, 61
2, 37379, Note_on_c, 0, 62, 0
2, 37420, Note_on_c, 0, 55, 0
2, 37453, Note_on_c, 0, 54, 67
2, 37526, Note_on_c, 0, 54, 0
2, 37578, Note_on_c, 0, 52, 64
2, 37578, Note_on_c, 0, 67, 78
2, 37606, Note_on_c, 0, 67, 0
2, 37638, Note_on_c, 0, 52, 0
2, 37665, Note_on_c, 0, 50, 66
2, 37779, Note_on_c, 0, 50, 0
2, 37802, Note_on_c, 0, 49, 60
2, 37815, Note_on_c, 0, 67, 86
2, 38057, Note_on_c, 0, 49, 0
2, 38065, Note_on_c, 0, 64, 80
2, 38069, Note_on_c, 0, 50, 71
2, 38102, Note_on_c, 0, 64, 0
2, 38163, Note_on_c, 0, 50, 0
2, 38181, Note_on_c, 0, 49, 68
2, 38269, Note_on_c, 0, 49, 0
2, 38273, Note_on_c, 0, 61, 74
2, 38280, Note_on_c, 0, 47, 73
2, 38315, Note_on_c, 0, 61, 0
2, 38360, Note_on_c, 0, 47, 0
2, 38374, Note_on_c, 0, 45, 76
2, 38511, Note_on_c, 0, 50, 84
2, 38535, Note_on_c, 0, 57, 80
2, 38553, Note_on_c, 0, 45, 0
2, 38754, Note_on_c, 0, 57, 0
2, 38765, Note_on_c, 0, 66, 84
2, 38866, Note_on_c, 0, 67, 0
2, 38870, Note_on_c, 0, 64, 84
2, 38899, Note_on_c, 0, 66, 0
2, 38944, Note_on_c, 0, 38, 83
2, 38959, Note_on_c, 0, 64, 0
2, 38970, Note_on_c, 0, 62, 84
2, 38986, Control_c, 0, 64, 25
2, 39007, Control_c, 0, 64, 40
2, 39013, Note_on_c, 0, 50, 0
2, 39024, Control_c, 0, 64, 51
2, 39044, Control_c, 0, 64, 56
2, 39066, Control_c, 0, 64, 55
2, 39066, Note_on_c, 0, 38, 0
2, 39070, Note_on_c, 0, 61, 79
2, 39096, Note_on_c, 0, 62, 0
2, 39102, Control_c, 0, 64, 54
2, 39121, Control_c, 0, 64, 51
2, 39140, Control_c, 0, 64, 47
2, 39158, Control_c, 0, 64, 33
2, 39166, Note_on_c, 0, 50, 87
2, 39171, Note_on_c, 0, 59, 88
2, 39178, Control_c, 0, 64, 0
2, 39199, Note_on_c, 0, 61, 0
2, 39261, Note_on_c, 0, 50, 0
2, 39276, Note_on_c, 0, 49, 74
2, 39394, Note_on_c, 0, 50, 82
2, 39407, Note_on_c, 0, 59, 0
2, 39419, Note_on_c, 0, 49, 0
2, 39419, Note_on_c, 0, 62, 89
2, 39516, Note_on_c, 0, 61, 80
2, 39557, Note_on_c, 0, 62, 0
2, 39615, Note_on_c, 0, 59, 77
2, 39622, Note_on_c, 0, 61, 0
2, 39691, Note_on_c, 0, 59, 0
2, 39717, Note_on_c, 0, 57, 82
2, 39789, Note_on_c, 0, 57, 0
2, 39841, Note_on_c, 0, 56, 83
2, 39871, Note_on_c, 0, 56, 0
2, 40046, Note_on_c, 0, 50, 0
2, 40065, Note_on_c, 0, 59, 80
2, 40080, Note_on_c, 0, 52, 73
2, 40096, Note_on_c, 0, 59, 0
2, 40156, Note_on_c, 0, 52, 0
2, 40178, Note_on_c, 0, 50, 79
2, 40276, Note_on_c, 0, 50, 0
2, 40284, Note_on_c, 0, 49, 79
2, 40291, Note_on_c, 0, 64, 89
2, 40321, Note_on_c, 0, 64, 0
2, 40374, Note_on_c, 0, 49, 0
2, 40398, Note_on_c, 0, 47, 80
2, 40511, Note_on_c, 0, 61, 95
2, 40524, Note_on_c, 0, 45, 78
2, 40529, Note_on_c, 0, 47, 0
2, 40740, Note_on_c, 0, 45, 0
2, 40746, Note_on_c, 0, 47, 77
2, 40771, Note_on_c, 0, 64, 89
2, 40799, Note_on_c, 0, 61, 0
2, 40804, Note_on_c, 0, 64, 0
2, 40865, Note_on_c, 0, 49, 80
2, 40876, Note_on_c, 0, 47, 0
2, 40963, Note_on_c, 0, 49, 0
2, 40972, Note_on_c, 0, 69, 93
2, 40976, Note_on_c, 0, 50, 86
2, 41016, Note_on_c, 0, 69, 0
2, 41046, Note_on_c, 0, 50, 0
2, 41077, Note_on_c, 0, 52, 87
2, 41194, Note_on_c, 0, 54, 88
2, 41200, Note_on_c, 0, 62, 98
2, 41213, Note_on_c, 0, 52, 0
2, 41258, Note_on_c, 0, 54, 0
2, 41441, Note_on_c, 0, 52, 85
2, 41495, Note_on_c, 0, 52, 0
2, 41568, Note_on_c, 0, 62, 0
2, 41673, Control_c, 0, 64, 20
2, 41685, Note_on_c, 0, 71, 95
2, 41693, Control_c, 0, 64, 44
2, 41698, Note_on_c, 0, 50, 82
2, 41698, Note_on_c, 0, 62, 90
2, 41712, Control_c, 0, 64, 63
2, 41729, Note_on_c, 0, 50, 0
2, 41735, Control_c, 0, 64, 68
2, 41752, Control_c, 0, 64, 72
2, 41752, Note_on_c, 0, 62, 0
2, 41772, Control_c, 0, 64, 73
2, 41789, Control_c, 0, 64, 72
2, 41800, Note_on_c, 0, 71, 0
2, 41809, Control_c, 0, 64, 71
2, 41828, Control_c, 0, 64, 70
2, 41850, Control_c, 0, 64, 67
2, 41868, Control_c, 0, 64, 64
2, 41886, Control_c, 0, 64, 60
2, 41906, Control_c, 0, 64, 56
2, 41926, Control_c, 0, 64, 52
2, 41943, Note_on_c, 0, 61, 92
2, 41947, Control_c, 0, 64, 50
2, 41947, Note_on_c, 0, 64, 87
2, 41952, Note_on_c, 0, 52, 88
2, 41962, Control_c, 0, 64, 48
2, 41985, Control_c, 0, 64, 45
2, 42002, Control_c, 0, 64, 38
2, 42019, Control_c, 0, 64, 29
2, 42041, Control_c, 0, 64, 18
2, 42060, Control_c, 0, 64, 0
2, 42168, Note_on_c, 0, 69, 86
2, 42277, Note_on_c, 0, 61, 0
2, 42286, Note_on_c, 0, 64, 0
2, 42290, Note_on_c, 0, 69, 0
2, 42382, Note_on_c, 0, 40, 77
2, 42387, Note_on_c, 0, 52, 0
2, 42396, Note_on_c, 0, 68, 93
2, 42400, Note_on_c, 0, 59, 86
2, 42420, Note_on_c, 0, 40, 0
2, 42444, Note_on_c, 0, 59, 0
2, 42506, Note_on_c, 0, 68, 0
2, 42633, Note_on_c, 0, 45, 82
2, 42638, Note_on_c, 0, 61, 93
2, 42642, Note_on_c, 0, 69, 85
2, 42804, Note_on_c, 0, 45, 0
2, 42865, Note_on_c, 0, 49, 85
2, 42898, Note_on_c, 0, 49, 0
2, 43099, Note_on_c, 0, 52, 95
2, 43129, Note_on_c, 0, 52, 0
2, 43390, Note_on_c, 0, 57, 100
2, 43596, Control_c, 0, 64, 13
2, 43613, Control_c, 0, 64, 46
2, 43632, Control_c, 0, 64, 61
2, 43646, Note_on_c, 0, 61, 0
2, 43652, Control_c, 0, 64, 65
2, 43671, Control_c, 0, 64, 68
2, 43692, Control_c, 0, 64, 74
2, 43701, Note_on_c, 0, 57, 0
2, 43709, Control_c, 0, 64, 87
2, 43722, Note_on_c, 0, 69, 0
2, 43729, Control_c, 0, 64, 101
2, 43750, Control_c, 0, 64, 106
2, 43766, Control_c, 0, 64, 107
2, 43806, Control_c, 0, 64, 106
2, 43866, Control_c, 0, 64, 104
2, 43884, Control_c, 0, 64, 103
2, 43904, Control_c, 0, 64, 102
2, 43921, Control_c, 0, 64, 100
2, 44017, Control_c, 0, 64, 99
2, 44039, Control_c, 0, 64, 97
2, 44054, Control_c, 0, 64, 94
2, 44077, Control_c, 0, 64, 90
2, 44093, Control_c, 0, 64, 86
2, 44112, Control_c, 0, 64, 81
2, 44135, Control_c, 0, 64, 76
2, 44150, Control_c, 0, 64, 71
2, 44170, Control_c, 0, 64, 66
2, 44189, Control_c, 0, 64, 60
2, 44208, Control_c, 0, 64, 41
2, 44226, Control_c, 0, 64, 0
2, 44231, Note_on_c, 0, 45, 80
2, 44231, Note_on_c, 0, 57, 96
2, 44525, Note_on_c, 0, 76, 90
2, 44617, Note_on_c, 0, 74, 88
2, 44663, Note_on_c, 0, 76, 0
2, 44717, Note_on_c, 0, 73, 91
2, 44767, Note_on_c, 0, 74, 0
2, 44812, Note_on_c, 0, 71, 92
2, 44849, Note_on_c, 0, 73, 0
2, 44923, Note_on_c, 0, 69, 97
2, 44945, Note_on_c, 0, 71, 0
2, 44978, Note_on_c, 0, 69, 0
2, 44993, Note_on_c, 0, 57, 0
2, 45060, Note_on_c, 0, 45, 0
2, 45148, Note_on_c, 0, 73, 97
2, 45207, Note_on_c, 0, 73, 0
2, 45369, Note_on_c, 0, 69, 88
2, 45413, Note_on_c, 0, 69, 0
2, 45598, Note_on_c, 0, 64, 97
2, 45650, Note_on_c, 0, 64, 0
2, 45819, Note_on_c, 0, 69, 86
2, 45861, Note_on_c, 0, 69, 0
2, 46047, Note_on_c, 0, 64, 88
2, 46084, Note_on_c, 0, 64, 0
2, 46286, Note_on_c, 0, 61, 81
2, 46333, Note_on_c, 0, 61, 0
2, 46508, Note_on_c, 0, 64, 79
2, 46545, Note_on_c, 0, 64, 0
2, 46744, Note_on_c, 0, 61, 71
2, 46785, Note_on_c, 0, 61, 0
2, 46997, Note_on_c, 0, 57, 70
2, 47253, Note_on_c, 0, 69, 77
2, 47354, Note_on_c, 0, 71, 85
2, 47365, Note_on_c, 0, 69, 0
2, 47461, Note_on_c, 0, 73, 76
2, 47469, Note_on_c, 0, 71, 0
2, 47490, Note_on_c, 0, 57, 0
2, 47544, Note_on_c, 0, 73, 0
2, 47552, Note_on_c, 0, 74, 75
2, 47669, Note_on_c, 0, 74, 0
2, 47669, Note_on_c, 0, 76, 79
2, 47673, Note_on_c, 0, 69, 61
2, 47681, Note_on_c, 0, 61, 55
2, 47694, Note_on_c, 0, 57, 40
2, 47694, Note_on_c, 0, 76, 0
2, 47894, Note_on_c, 0, 73, 73
2, 47927, Note_on_c, 0, 73, 0
2, 48036, Note_on_c, 0, 61, 0
2, 48097, Note_on_c, 0, 69, 0
2, 48120, Note_on_c, 0, 76, 79
2, 48161, Note_on_c, 0, 76, 0
2, 48290, Note_on_c, 0, 76, 30
2, 48339, Note_on_c, 0, 61, 48
2, 48343, Note_on_c, 0, 69, 48
2, 48360, Note_on_c, 0, 76, 0
2, 48360, Note_on_c, 0, 81, 78
2, 48475, Note_on_c, 0, 76, 80
2, 48488, Note_on_c, 0, 81, 0
2, 48528, Note_on_c, 0, 69, 0
2, 48584, Note_on_c, 0, 78, 92
2, 48616, Note_on_c, 0, 76, 0
2, 48706, Note_on_c, 0, 80, 89
2, 48712, Note_on_c, 0, 62, 67
2, 48745, Note_on_c, 0, 78, 0
2, 48769, Note_on_c, 0, 57, 0
2, 48820, Note_on_c, 0, 81, 87
2, 48829, Note_on_c, 0, 80, 0
2, 48844, Note_on_c, 0, 61, 0
2, 48934, Note_on_c, 0, 80, 89
2, 48943, Note_on_c, 0, 62, 0
2, 48950, Note_on_c, 0, 81, 0
2, 49050, Note_on_c, 0, 80, 0
2, 49054, Note_on_c, 0, 71, 74
2, 49057, Note_on_c, 0, 81, 82
2, 49077, Note_on_c, 0, 62, 63
2, 49172, Note_on_c, 0, 76, 76
2, 49177, Note_on_c, 0, 81, 0
2, 49242, Note_on_c, 0, 71, 0
2, 49286, Note_on_c, 0, 78, 77
2, 49291, Note_on_c, 0, 76, 0
2, 49399, Note_on_c, 0, 78, 0
2, 49408, Note_on_c, 0, 80, 70
2, 49410, Note_on_c, 0, 64, 64
2, 49414, Note_on_c, 0, 62, 0
2, 49414, Note_on_c, 0, 73, 69
2, 49507, Note_on_c, 0, 80, 0
2, 49540, Note_on_c, 0, 81, 60
2, 49590, Note_on_c, 0, 64, 0
2, 49614, Note_on_c, 0, 73, 0
2, 49654, Note_on_c, 0, 81, 0
2, 49661, Note_on_c, 0, 80, 60
2, 49772, Note_on_c, 0, 80, 0
2, 49786, Note_on_c, 0, 73, 51
2, 49790, Note_on_c, 0, 64, 51
2, 49795, Note_on_c, 0, 81, 64
2, 49811, Control_c, 0, 64, 35
2, 49834, Control_c, 0, 64, 59
2, 49848, Note_on_c, 0, 73, 0
2, 49853, Control_c, 0, 64, 72
2, 49868, Control_c, 0, 64, 82
2, 49885, Note_on_c, 0, 64, 0
2, 49892, Control_c, 0, 64, 92
2, 49912, Control_c, 0, 64, 97
2, 49927, Control_c, 0, 64, 100
2, 49966, Control_c, 0, 64, 96
2, 49987, Control_c, 0, 64, 92
2, 50002, Control_c, 0, 64, 90
2, 50022, Control_c, 0, 64, 88
2, 50044, Control_c, 0, 64, 85
2, 50055, Note_on_c, 0, 64, 74
2, 50067, Control_c, 0, 64, 79
2, 50067, Note_on_c, 0, 80, 74
2, 50081, Control_c, 0, 64, 74
2, 50100, Control_c, 0, 64, 67
2, 50105, Note_on_c, 0, 81, 0
2, 50119, Control_c, 0, 64, 59
2, 50136, Note_on_c, 0, 64, 0
2, 50140, Control_c, 0, 64, 48
2, 50158, Control_c, 0, 64, 30
2, 50167, Note_on_c, 0, 62, 75
2, 50178, Control_c, 0, 64, 0
2, 50178, Note_on_c, 0, 78, 85
2, 50185, Note_on_c, 0, 80, 0
2, 50255, Note_on_c, 0, 62, 0
2, 50261, Note_on_c, 0, 61, 72
2, 50275, Note_on_c, 0, 76, 77
2, 50279, Note_on_c, 0, 78, 0
2, 50339, Note_on_c, 0, 61, 0
2, 50361, Note_on_c, 0, 59, 75
2, 50377, Note_on_c, 0, 74, 79
2, 50390, Note_on_c, 0, 76, 0
2, 50472, Note_on_c, 0, 59, 0
2, 50479, Note_on_c, 0, 57, 87
2, 50483, Note_on_c, 0, 73, 86
2, 50488, Note_on_c, 0, 74, 0
2, 50509, Note_on_c, 0, 57, 0
2, 50567, Note_on_c, 0, 73, 0
2, 50601, Note_on_c, 0, 74, 72
2, 50703, Note_on_c, 0, 74, 0
2, 50710, Note_on_c, 0, 61, 71
2, 50717, Note_on_c, 0, 76, 75
2, 50742, Note_on_c, 0, 61, 0
2, 50827, Note_on_c, 0, 74, 65
2, 50827, Note_on_c, 0, 76, 0
2, 50896, Note_on_c, 0, 73, 73
2, 50925, Note_on_c, 0, 74, 0
2, 50936, Note_on_c, 0, 57, 74
2, 50968, Note_on_c, 0, 57, 0
2, 50980, Note_on_c, 0, 73, 0
2, 51006, Note_on_c, 0, 71, 74
2, 51040, Note_on_c, 0, 71, 0
2, 51115, Note_on_c, 0, 71, 85
2, 51123, Note_on_c, 0, 52, 82
2, 51157, Note_on_c, 0, 52, 0
2, 51186, Note_on_c, 0, 71, 0
2, 51208, Note_on_c, 0, 69, 68
2, 51264, Note_on_c, 0, 69, 0
2, 51279, Note_on_c, 0, 71, 70
2, 51316, Note_on_c, 0, 71, 0
2, 51345, Note_on_c, 0, 57, 77
2, 51345, Note_on_c, 0, 69, 71
2, 51377, Note_on_c, 0, 57, 0
2, 51390, Note_on_c, 0, 71, 76
2, 51395, Note_on_c, 0, 69, 0
2, 51438, Note_on_c, 0, 71, 0
2, 51462, Note_on_c, 0, 69, 66
2, 51516, Note_on_c, 0, 69, 0
2, 51526, Note_on_c, 0, 71, 74
2, 51565, Note_on_c, 0, 52, 74
2, 51576, Note_on_c, 0, 71, 0
2, 51593, Note_on_c, 0, 69, 65
2, 51597, Note_on_c, 0, 52, 0
2, 51644, Note_on_c, 0, 69, 0
2, 51660, Note_on_c, 0, 71, 63
2, 51703, Note_on_c, 0, 71, 0
2, 51719, Note_on_c, 0, 69, 70
2, 51771, Note_on_c, 0, 49, 81
2, 51775, Note_on_c, 0, 69, 0
2, 51779, Note_on_c, 0, 71, 76
2, 51805, Note_on_c, 0, 49, 0
2, 51827, Note_on_c, 0, 71, 0
2, 51856, Note_on_c, 0, 69, 65
2, 51901, Note_on_c, 0, 69, 0
2, 51916, Note_on_c, 0, 71, 69
2, 51962, Note_on_c, 0, 71, 0
2, 51978, Note_on_c, 0, 69, 69
2, 52006, Note_on_c, 0, 52, 78
2, 52033, Note_on_c, 0, 69, 0
2, 52036, Note_on_c, 0, 52, 0
2, 52044, Note_on_c, 0, 71, 68
2, 52088, Note_on_c, 0, 71, 0
2, 52106, Note_on_c, 0, 69, 70
2, 52160, Note_on_c, 0, 69, 0
2, 52164, Note_on_c, 0, 71, 75
2, 52225, Note_on_c, 0, 49, 75
2, 52225, Note_on_c, 0, 71, 0
2, 52233, Note_on_c, 0, 69, 68
2, 52255, Note_on_c, 0, 49, 0
2, 52283, Note_on_c, 0, 69, 0
2, 52287, Note_on_c, 0, 71, 68
2, 52358, Note_on_c, 0, 71, 0
2, 52364, Note_on_c, 0, 69, 76
2, 52450, Note_on_c, 0, 45, 83
2, 52579, Note_on_c, 0, 71, 77
2, 52583, Note_on_c, 0, 69, 0
2, 52685, Note_on_c, 0, 71, 0
2, 52688, Note_on_c, 0, 69, 75
2, 52774, Note_on_c, 0, 69, 0
2, 52799, Note_on_c, 0, 68, 79
2, 52885, Control_c, 0, 64, 21
2, 52902, Control_c, 0, 64, 39
2, 52913, Note_on_c, 0, 68, 0
2, 52913, Note_on_c, 0, 69, 72
2, 52924, Control_c, 0, 64, 50
2, 52942, Control_c, 0, 64, 55
2, 52999, Note_on_c, 0, 69, 0
2, 53025, Note_on_c, 0, 64, 67
2, 53040, Control_c, 0, 64, 54
2, 53043, Note_on_c, 0, 45, 0
2, 53097, Control_c, 0, 64, 53
2, 53114, Control_c, 0, 64, 52
2, 53118, Note_on_c, 0, 64, 0
2, 53134, Control_c, 0, 64, 51
2, 53143, Note_on_c, 0, 61, 68
2, 53151, Control_c, 0, 64, 49
2, 53156, Note_on_c, 0, 52, 69
2, 53171, Control_c, 0, 64, 47
2, 53178, Note_on_c, 0, 49, 53
2, 53191, Control_c, 0, 64, 42
2, 53196, Note_on_c, 0, 45, 52
2, 53211, Control_c, 0, 64, 34
2, 53228, Control_c, 0, 64, 25
2, 53248, Note_on_c, 0, 61, 0
2, 53251, Control_c, 0, 64, 21
2, 53255, Note_on_c, 0, 66, 67
2, 53359, Note_on_c, 0, 66, 0
2, 53381, Note_on_c, 0, 64, 72
2, 53480, Control_c, 0, 64, 23
2, 53488, Note_on_c, 0, 62, 80
2, 53488, Note_on_c, 0, 64, 0
2, 53501, Control_c, 0, 64, 25
2, 53516, Control_c, 0, 64, 27
2, 53538, Control_c, 0, 64, 29
2, 53559, Control_c, 0, 64, 32
2, 53575, Control_c, 0, 64, 37
2, 53582, Note_on_c, 0, 62, 0
2, 53593, Control_c, 0, 64, 47
2, 53606, Note_on_c, 0, 64, 71
2, 53615, Control_c, 0, 64, 58
2, 53633, Control_c, 0, 64, 62
2, 53684, Note_on_c, 0, 45, 0
2, 53684, Note_on_c, 0, 52, 0
2, 53688, Note_on_c, 0, 49, 0
2, 53703, Note_on_c, 0, 64, 0
2, 53715, Note_on_c, 0, 61, 67
2, 53761, Note_on_c, 0, 61, 0
2, 53787, Control_c, 0, 64, 61
2, 53826, Control_c, 0, 64, 60
2, 53834, Note_on_c, 0, 52, 61
2, 53847, Control_c, 0, 64, 58
2, 53852, Note_on_c, 0, 49, 57
2, 53852, Note_on_c, 0, 59, 74
2, 53856, Note_on_c, 0, 45, 50
2, 53862, Control_c, 0, 64, 57
2, 53883, Control_c, 0, 64, 54
2, 53901, Control_c, 0, 64, 50
2, 53905, Note_on_c, 0, 59, 0
2, 53921, Control_c, 0, 64, 44
2, 53930, Note_on_c, 0, 57, 73
2, 53940, Control_c, 0, 64, 34
2, 53960, Control_c, 0, 64, 12
2, 53979, Control_c, 0, 64, 0
2, 53986, Note_on_c, 0, 57, 0
2, 54012, Note_on_c, 0, 59, 68
2, 54059, Note_on_c, 0, 59, 0
2, 54082, Note_on_c, 0, 57, 64
2, 54134, Note_on_c, 0, 57, 0
2, 54154, Note_on_c, 0, 59, 58
2, 54199, Note_on_c, 0, 59, 0
2, 54211, Note_on_c, 0, 57, 55
2, 54215, Note_on_c, 0, 47, 61
2, 54219, Note_on_c, 0, 50, 58
2, 54259, Note_on_c, 0, 49, 0
2, 54263, Note_on_c, 0, 52, 0
2, 54263, Note_on_c, 0, 57, 0
2, 54289, Note_on_c, 0, 59, 63
2, 54330, Note_on_c, 0, 59, 0
2, 54357, Note_on_c, 0, 57, 63
2, 54396, Note_on_c, 0, 57, 0
2, 54418, Note_on_c, 0, 59, 65
2, 54454, Note_on_c, 0, 47, 0
2, 54458, Note_on_c, 0, 50, 0
2, 54458, Note_on_c, 0, 59, 0
2, 54487, Note_on_c, 0, 57, 66
2, 54531, Note_on_c, 0, 57, 0
2, 54542, Note_on_c, 0, 59, 66
2, 54590, Note_on_c, 0, 50, 59
2, 54594, Note_on_c, 0, 47, 58
2, 54594, Note_on_c, 0, 59, 0
2, 54619, Note_on_c, 0, 57, 65
2, 54660, Note_on_c, 0, 57, 0
2, 54680, Note_on_c, 0, 59, 64
2, 54725, Note_on_c, 0, 59, 0
2, 54759, Note_on_c, 0, 57, 58
2, 54802, Note_on_c, 0, 57, 0
2, 54811, Note_on_c, 0, 59, 65
2, 54855, Note_on_c, 0, 59, 0
2, 54885, Note_on_c, 0, 57, 54
2, 54931, Note_on_c, 0, 57, 0
2, 54944, Note_on_c, 0, 59, 63
2, 54977, Note_on_c, 0, 52, 52
2, 54984, Note_on_c, 0, 59, 0
2, 54986, Note_on_c, 0, 49, 53
2, 54999, Note_on_c, 0, 47, 0
2, 54999, Note_on_c, 0, 57, 62
2, 55044, Note_on_c, 0, 50, 0
2, 55044, Note_on_c, 0, 57, 0
2, 55069, Note_on_c, 0, 59, 68
2, 55121, Note_on_c, 0, 59, 0
2, 55140, Note_on_c, 0, 57, 61
2, 55165, Note_on_c, 0, 49, 0
2, 55178, Note_on_c, 0, 52, 0
2, 55321, Note_on_c, 0, 57, 0
2, 55348, Note_on_c, 0, 52, 65
2, 55355, Note_on_c, 0, 49, 54
2, 55646, Note_on_c, 0, 57, 85
2, 55745, Note_on_c, 0, 59, 86
2, 55760, Note_on_c, 0, 57, 0
2, 55841, Note_on_c, 0, 61, 81
2, 55850, Note_on_c, 0, 59, 0
2, 55876, Note_on_c, 0, 45, 0
2, 55898, Note_on_c, 0, 52, 0
2, 55924, Note_on_c, 0, 49, 0
2, 55933, Note_on_c, 0, 62, 92
2, 55940, Note_on_c, 0, 61, 0
2, 56005, Note_on_c, 0, 62, 0
2, 56056, Note_on_c, 0, 64, 96
2, 56094, Note_on_c, 0, 64, 0
2, 56286, Note_on_c, 0, 61, 84
2, 56317, Note_on_c, 0, 61, 0
2, 56517, Note_on_c, 0, 64, 89
2, 56529, Note_on_c, 0, 57, 75
2, 56557, Note_on_c, 0, 57, 0
2, 56571, Note_on_c, 0, 64, 0
2, 56724, Control_c, 0, 64, 18
2, 56743, Control_c, 0, 64, 41
2, 56758, Note_on_c, 0, 67, 77
2, 56763, Control_c, 0, 64, 57
2, 56771, Note_on_c, 0, 59, 58
2, 56780, Control_c, 0, 64, 63
2, 56935, Control_c, 0, 64, 62
2, 56973, Control_c, 0, 64, 61
2, 56992, Control_c, 0, 64, 60
2, 57014, Control_c, 0, 64, 58
2, 57015, Note_on_c, 0, 59, 0
2, 57021, Note_on_c, 0, 76, 82
2, 57036, Control_c, 0, 64, 55
2, 57036, Note_on_c, 0, 61, 61
2, 57053, Control_c, 0, 64, 48
2, 57069, Control_c, 0, 64, 32
2, 57084, Note_on_c, 0, 67, 0
2, 57089, Control_c, 0, 64, 0
2, 57129, Note_on_c, 0, 61, 0
2, 57129, Note_on_c, 0, 74, 78
2, 57149, Note_on_c, 0, 59, 70
2, 57170, Note_on_c, 0, 76, 0
2, 57201, Note_on_c, 0, 59, 0
2, 57228, Note_on_c, 0, 73, 85
2, 57239, Note_on_c, 0, 57, 61
2, 57265, Note_on_c, 0, 74, 0
2, 57314, Note_on_c, 0, 57, 0
2, 57339, Note_on_c, 0, 59, 68
2, 57346, Note_on_c, 0, 73, 0
2, 57350, Note_on_c, 0, 71, 80
2, 57409, Note_on_c, 0, 59, 0
2, 57438, Note_on_c, 0, 71, 0
2, 57449, Note_on_c, 0, 61, 57
2, 57463, Note_on_c, 0, 69, 70
2, 57676, Note_on_c, 0, 61, 0
2, 57694, Note_on_c, 0, 76, 78
2, 57700, Note_on_c, 0, 69, 0
2, 57713, Note_on_c, 0, 62, 57
2, 57725, Note_on_c, 0, 76, 0
2, 57776, Note_on_c, 0, 62, 0
2, 57826, Note_on_c, 0, 61, 56
2, 57884, Note_on_c, 0, 61, 0
2, 57921, Note_on_c, 0, 67, 70
2, 57930, Note_on_c, 0, 59, 60
2, 57956, Note_on_c, 0, 67, 0
2, 57980, Note_on_c, 0, 59, 0
2, 58034, Note_on_c, 0, 61, 54
2, 58082, Note_on_c, 0, 61, 0
2, 58154, Note_on_c, 0, 62, 55
2, 58162, Note_on_c, 0, 66, 68
2, 58221, Control_c, 0, 64, 14
2, 58241, Control_c, 0, 64, 48
2, 58259, Control_c, 0, 64, 62
2, 58277, Note_on_c, 0, 62, 0
2, 58282, Control_c, 0, 64, 65
2, 58297, Control_c, 0, 64, 67
2, 58317, Control_c, 0, 64, 69
2, 58336, Control_c, 0, 64, 75
2, 58356, Control_c, 0, 64, 82
2, 58373, Control_c, 0, 64, 89
2, 58414, Control_c, 0, 64, 88
2, 58433, Control_c, 0, 64, 85
2, 58437, Note_on_c, 0, 62, 90
2, 58443, Note_on_c, 0, 66, 0
2, 58452, Control_c, 0, 64, 80
2, 58469, Control_c, 0, 64, 75
2, 58491, Control_c, 0, 64, 70
2, 58510, Control_c, 0, 64, 62
2, 58526, Control_c, 0, 64, 52
2, 58533, Note_on_c, 0, 64, 93
2, 58549, Control_c, 0, 64, 34
2, 58553, Note_on_c, 0, 62, 0
2, 58569, Control_c, 0, 64, 0
2, 58642, Note_on_c, 0, 66, 87
2, 58679, Note_on_c, 0, 64, 0
2, 58739, Note_on_c, 0, 67, 83
2, 58743, Note_on_c, 0, 66, 0
2, 58858, Note_on_c, 0, 69, 94
2, 58878, Note_on_c, 0, 67, 0
2, 58894, Note_on_c, 0, 69, 0
2, 59092, Note_on_c, 0, 66, 89
2, 59119, Note_on_c, 0, 66, 0
2, 59322, Note_on_c, 0, 50, 75
2, 59326, Note_on_c, 0, 69, 90
2, 59352, Note_on_c, 0, 50, 0
2, 59378, Note_on_c, 0, 69, 0
2, 59451, Control_c, 0, 64, 15
2, 59469, Control_c, 0, 64, 47
2, 59489, Control_c, 0, 64, 63
2, 59507, Control_c, 0, 64, 67
2, 59528, Control_c, 0, 64, 68
2, 59545, Control_c, 0, 64, 69
2, 59565, Control_c, 0, 64, 70
2, 59569, Note_on_c, 0, 72, 94
2, 59586, Control_c, 0, 64, 71
2, 59595, Note_on_c, 0, 52, 63
2, 59604, Control_c, 0, 64, 72
2, 59698, Control_c, 0, 64, 71
2, 59718, Control_c, 0, 64, 70
2, 59758, Control_c, 0, 64, 68
2, 59778, Control_c, 0, 64, 67
2, 59792, Note_on_c, 0, 52, 0
2, 59797, Control_c, 0, 64, 66
2, 59814, Control_c, 0, 64, 65
2, 59828, Note_on_c, 0, 81, 90
2, 59837, Control_c, 0, 64, 64
2, 59837, Note_on_c, 0, 54, 57
2, 59852, Control_c, 0, 64, 63
2, 59874, Control_c, 0, 64, 61
2, 59874, Note_on_c, 0, 72, 0
2, 59892, Control_c, 0, 64, 58
2, 59911, Control_c, 0, 64, 55
2, 59931, Control_c, 0, 64, 53
2, 59944, Note_on_c, 0, 79, 91
2, 59953, Control_c, 0, 64, 51
2, 59953, Note_on_c, 0, 54, 0
2, 59957, Note_on_c, 0, 52, 72
2, 59969, Control_c, 0, 64, 49
2, 59986, Control_c, 0, 64, 47
2, 60006, Control_c, 0, 64, 45
2, 60028, Control_c, 0, 64, 44
2, 60044, Control_c, 0, 64, 43
2, 60055, Note_on_c, 0, 50, 72
2, 60055, Note_on_c, 0, 78, 96
2, 60060, Note_on_c, 0, 52, 0
2, 60064, Note_on_c, 0, 81, 0
2, 60085, Control_c, 0, 64, 42
2, 60119, Note_on_c, 0, 79, 0
2, 60123, Control_c, 0, 64, 41
2, 60159, Note_on_c, 0, 52, 73
2, 60165, Note_on_c, 0, 76, 98
2, 60171, Note_on_c, 0, 50, 0
2, 60214, Note_on_c, 0, 78, 0
2, 60284, Note_on_c, 0, 74, 93
2, 60291, Note_on_c, 0, 54, 77
2, 60300, Note_on_c, 0, 52, 0
2, 60370, Note_on_c, 0, 76, 0
2, 60531, Note_on_c, 0, 54, 0
2, 60535, Note_on_c, 0, 55, 76
2, 60535, Note_on_c, 0, 81, 91
2, 60564, Control_c, 0, 64, 40
2, 60610, Note_on_c, 0, 74, 0
2, 60621, Control_c, 0, 64, 39
2, 60643, Note_on_c, 0, 54, 85
2, 60648, Note_on_c, 0, 55, 0
2, 60659, Control_c, 0, 64, 37
2, 60681, Control_c, 0, 64, 36
2, 60698, Control_c, 0, 64, 35
2, 60718, Control_c, 0, 64, 34
2, 60738, Control_c, 0, 64, 33
2, 60738, Note_on_c, 0, 54, 0
2, 60756, Control_c, 0, 64, 32
2, 60760, Note_on_c, 0, 72, 91
2, 60760, Note_on_c, 0, 81, 0
2, 60765, Note_on_c, 0, 52, 79
2, 60815, Control_c, 0, 64, 31
2, 60852, Control_c, 0, 64, 30
2, 60863, Note_on_c, 0, 54, 84
2, 60876, Note_on_c, 0, 52, 0
2, 60891, Control_c, 0, 64, 29
2, 60911, Control_c, 0, 64, 27
2, 60929, Control_c, 0, 64, 26
2, 60949, Control_c, 0, 64, 25
2, 60966, Control_c, 0, 64, 24
2, 60987, Control_c, 0, 64, 23
2, 60991, Note_on_c, 0, 71, 89
2, 61008, Note_on_c, 0, 55, 85
2, 61014, Note_on_c, 0, 54, 0
2, 61037, Note_on_c, 0, 72, 0
2, 61143, Note_on_c, 0, 55, 0
2, 61201, Control_c, 0, 64, 21
2, 61216, Control_c, 0, 64, 0
2, 61272, Note_on_c, 0, 59, 69
2, 61276, Note_on_c, 0, 60, 58
2, 61299, Note_on_c, 0, 60, 0
2, 61353, Note_on_c, 0, 57, 83
2, 61357, Note_on_c, 0, 59, 0
2, 61423, Note_on_c, 0, 57, 0
2, 61444, Note_on_c, 0, 69, 69
2, 61467, Note_on_c, 0, 55, 81
2, 61511, Note_on_c, 0, 69, 0
2, 61547, Note_on_c, 0, 55, 0
2, 61556, Note_on_c, 0, 54, 82
2, 61667, Note_on_c, 0, 67, 75
2, 61679, Note_on_c, 0, 52, 75
2, 61682, Note_on_c, 0, 54, 0
2, 61709, Note_on_c, 0, 67, 0
2, 61709, Note_on_c, 0, 69, 73
2, 61781, Note_on_c, 0, 67, 68
2, 61781, Note_on_c, 0, 69, 0
2, 61801, Note_on_c, 0, 52, 0
2, 61935, Note_on_c, 0, 55, 66
2, 62011, Note_on_c, 0, 55, 0
2, 62033, Note_on_c, 0, 54, 71
2, 62109, Note_on_c, 0, 67, 0
2, 62113, Note_on_c, 0, 54, 0
2, 62113, Note_on_c, 0, 66, 58
2, 62151, Note_on_c, 0, 66, 0
2, 62159, Note_on_c, 0, 52, 67
2, 62214, Note_on_c, 0, 52, 0
2, 62247, Note_on_c, 0, 50, 68
2, 62369, Note_on_c, 0, 50, 0
2, 62380, Note_on_c, 0, 49, 61
2, 62380, Note_on_c, 0, 64, 69
2, 62385, Note_on_c, 0, 71, 0
2, 62543, Note_on_c, 0, 49, 0
2, 62626, Note_on_c, 0, 73, 70
2, 62639, Note_on_c, 0, 52, 58
2, 62676, Note_on_c, 0, 52, 0
2, 62724, Note_on_c, 0, 73, 0
2, 62732, Note_on_c, 0, 71, 65
2, 62821, Note_on_c, 0, 71, 0
2, 62851, Note_on_c, 0, 70, 63
2, 62855, Note_on_c, 0, 49, 52
2, 62891, Note_on_c, 0, 49, 0
2, 62938, Note_on_c, 0, 70, 0
2, 62958, Note_on_c, 0, 71, 62
2, 63032, Note_on_c, 0, 71, 0
2, 63077, Note_on_c, 0, 73, 73
2, 63080, Note_on_c, 0, 46, 62
2, 63121, Note_on_c, 0, 46, 0
2, 63198, Note_on_c, 0, 64, 0
2, 63301, Note_on_c, 0, 49, 61
2, 63346, Note_on_c, 0, 49, 0
2, 63544, Note_on_c, 0, 46, 55
2, 63547, Note_on_c, 0, 67, 62
2, 63588, Note_on_c, 0, 46, 0
2, 63588, Note_on_c, 0, 67, 0
2, 63791, Note_on_c, 0, 66, 76
2, 63805, Note_on_c, 0, 50, 55
2, 63809, Control_c, 0, 64, 30
2, 63828, Control_c, 0, 64, 44
2, 63850, Control_c, 0, 64, 54
2, 63850, Note_on_c, 0, 50, 0
2, 63858, Note_on_c, 0, 73, 0
2, 63866, Control_c, 0, 64, 58
2, 63943, Control_c, 0, 64, 57
2, 63965, Control_c, 0, 64, 56
2, 63981, Control_c, 0, 64, 55
2, 64001, Control_c, 0, 64, 54
2, 64020, Control_c, 0, 64, 53
2, 64039, Control_c, 0, 64, 51
2, 64043, Note_on_c, 0, 74, 78
2, 64050, Note_on_c, 0, 54, 64
2, 64059, Control_c, 0, 64, 50
2, 64077, Control_c, 0, 64, 48
2, 64088, Note_on_c, 0, 54, 0
2, 64098, Control_c, 0, 64, 43
2, 64117, Control_c, 0, 64, 37
2, 64133, Control_c, 0, 64, 30
2, 64146, Note_on_c, 0, 73, 85
2, 64154, Control_c, 0, 64, 21
2, 64159, Note_on_c, 0, 74, 0
2, 64173, Control_c, 0, 64, 13
2, 64192, Control_c, 0, 64, 0
2, 64259, Note_on_c, 0, 50, 60
2, 64263, Note_on_c, 0, 71, 82
2, 64263, Note_on_c, 0, 73, 0
2, 64297, Note_on_c, 0, 50, 0
2, 64365, Note_on_c, 0, 73, 86
2, 64397, Note_on_c, 0, 71, 0
2, 64498, Note_on_c, 0, 47, 68
2, 64498, Note_on_c, 0, 74, 92
2, 64518, Note_on_c, 0, 73, 0
2, 64531, Note_on_c, 0, 47, 0
2, 64624, Note_on_c, 0, 66, 0
2, 64739, Note_on_c, 0, 50, 69
2, 64780, Note_on_c, 0, 50, 0
2, 64969, Note_on_c, 0, 69, 78
2, 64973, Note_on_c, 0, 47, 71
2, 65007, Note_on_c, 0, 47, 0
2, 65012, Note_on_c, 0, 69, 0
2, 65152, Control_c, 0, 64, 16
2, 65174, Control_c, 0, 64, 28
2, 65192, Control_c, 0, 64, 43
2, 65210, Control_c, 0, 64, 59
2, 65219, Note_on_c, 0, 52, 78
2, 65221, Note_on_c, 0, 67, 85
2, 65230, Control_c, 0, 64, 65
2, 65262, Note_on_c, 0, 52, 0
2, 65269, Control_c, 0, 64, 66
2, 65274, Note_on_c, 0, 74, 0
2, 65305, Control_c, 0, 64, 65
2, 65347, Control_c, 0, 64, 64
2, 65362, Control_c, 0, 64, 63
2, 65402, Control_c, 0, 64, 61
2, 65422, Control_c, 0, 64, 60
2, 65440, Control_c, 0, 64, 59
2, 65454, Note_on_c, 0, 76, 93
2, 65459, Control_c, 0, 64, 57
2, 65470, Note_on_c, 0, 55, 72
2, 65479, Control_c, 0, 64, 55
2, 65497, Control_c, 0, 64, 50
2, 65508, Note_on_c, 0, 55, 0
2, 65517, Control_c, 0, 64, 43
2, 65537, Control_c, 0, 64, 33
2, 65557, Control_c, 0, 64, 28
2, 65559, Note_on_c, 0, 74, 87
2, 65574, Control_c, 0, 64, 25
2, 65594, Control_c, 0, 64, 24
2, 65601, Note_on_c, 0, 76, 0
2, 65613, Control_c, 0, 64, 18
2, 65632, Control_c, 0, 64, 0
2, 65666, Note_on_c, 0, 73, 92
2, 65675, Note_on_c, 0, 74, 0
2, 65679, Note_on_c, 0, 52, 70
2, 65716, Note_on_c, 0, 52, 0
2, 65778, Note_on_c, 0, 74, 89
2, 65822, Note_on_c, 0, 73, 0
2, 65903, Note_on_c, 0, 76, 100
2, 65907, Note_on_c, 0, 49, 75
2, 65916, Note_on_c, 0, 74, 0
2, 65960, Note_on_c, 0, 49, 0
2, 66120, Note_on_c, 0, 67, 0
2, 66134, Note_on_c, 0, 52, 83
2, 66171, Note_on_c, 0, 52, 0
2, 66364, Note_on_c, 0, 71, 91
2, 66368, Note_on_c, 0, 49, 66
2, 66422, Note_on_c, 0, 49, 0
2, 66426, Note_on_c, 0, 71, 0
2, 66593, Control_c, 0, 64, 8
2, 66613, Control_c, 0, 64, 34
2, 66613, Note_on_c, 0, 54, 81
2, 66625, Note_on_c, 0, 70, 87
2, 66631, Control_c, 0, 64, 51
2, 66647, Note_on_c, 0, 76, 0
2, 66652, Control_c, 0, 64, 60
2, 66670, Control_c, 0, 64, 59
2, 66687, Control_c, 0, 64, 60
2, 66802, Control_c, 0, 64, 59
2, 66852, Note_on_c, 0, 70, 0
2, 66863, Control_c, 0, 64, 58
2, 66877, Note_on_c, 0, 79, 96
2, 66899, Control_c, 0, 64, 56
2, 66919, Control_c, 0, 64, 55
2, 66938, Control_c, 0, 64, 53
2, 66956, Control_c, 0, 64, 51
2, 66978, Control_c, 0, 64, 47
2, 66986, Note_on_c, 0, 78, 87
2, 66995, Control_c, 0, 64, 41
2, 67017, Control_c, 0, 64, 34
2, 67034, Control_c, 0, 64, 30
2, 67052, Control_c, 0, 64, 27
2, 67072, Control_c, 0, 64, 25
2, 67090, Note_on_c, 0, 76, 89
2, 67094, Control_c, 0, 64, 21
2, 67094, Note_on_c, 0, 79, 0
2, 67099, Note_on_c, 0, 59, 87
2, 67110, Control_c, 0, 64, 18
2, 67119, Note_on_c, 0, 54, 0
2, 67129, Control_c, 0, 64, 17
2, 67129, Note_on_c, 0, 59, 0
2, 67149, Control_c, 0, 64, 16
2, 67169, Control_c, 0, 64, 15
2, 67189, Control_c, 0, 64, 13
2, 67193, Note_on_c, 0, 75, 91
2, 67193, Note_on_c, 0, 78, 0
2, 67217, Note_on_c, 0, 76, 0
2, 67264, Control_c, 0, 64, 12
2, 67284, Control_c, 0, 64, 11
2, 67325, Note_on_c, 0, 76, 97
2, 67327, Note_on_c, 0, 58, 79
2, 67376, Note_on_c, 0, 75, 0
2, 67400, Control_c, 0, 64, 9
2, 67417, Control_c, 0, 64, 0
2, 67562, Note_on_c, 0, 79, 92
2, 67569, Note_on_c, 0, 59, 88
2, 67575, Note_on_c, 0, 76, 0
2, 67580, Note_on_c, 0, 58, 0
2, 67611, Note_on_c, 0, 59, 0
2, 67622, Note_on_c, 0, 79, 0
2, 67799, Note_on_c, 0, 75, 89
2, 67814, Note_on_c, 0, 61, 73
2, 67848, Note_on_c, 0, 61, 0
2, 67876, Note_on_c, 0, 75, 0
2, 68034, Control_c, 0, 64, 17
2, 68055, Control_c, 0, 64, 30
2, 68055, Note_on_c, 0, 54, 73
2, 68059, Note_on_c, 0, 73, 82
2, 68059, Note_on_c, 0, 76, 83
2, 68071, Control_c, 0, 64, 46
2, 68092, Control_c, 0, 64, 62
2, 68109, Control_c, 0, 64, 67
2, 68129, Control_c, 0, 64, 69
2, 68147, Control_c, 0, 64, 72
2, 68158, Note_on_c, 0, 54, 0
2, 68170, Control_c, 0, 64, 76
2, 68188, Control_c, 0, 64, 77
2, 68205, Control_c, 0, 64, 76
2, 68225, Control_c, 0, 64, 74
2, 68245, Control_c, 0, 64, 73
2, 68264, Control_c, 0, 64, 71
2, 68264, Note_on_c, 0, 73, 0
2, 68282, Control_c, 0, 64, 69
2, 68302, Control_c, 0, 64, 67
2, 68309, Note_on_c, 0, 76, 0
2, 68309, Note_on_c, 0, 79, 91
2, 68320, Control_c, 0, 64, 64
2, 68340, Control_c, 0, 64, 61
2, 68358, Control_c, 0, 64, 57
2, 68378, Control_c, 0, 64, 55
2, 68398, Control_c, 0, 64, 53
2, 68417, Control_c, 0, 64, 50
2, 68422, Note_on_c, 0, 78, 93
2, 68435, Control_c, 0, 64, 46
2, 68455, Control_c, 0, 64, 41
2, 68475, Control_c, 0, 64, 33
2, 68493, Control_c, 0, 64, 26
2, 68513, Control_c, 0, 64, 22
2, 68513, Note_on_c, 0, 79, 0
2, 68533, Control_c, 0, 64, 21
2, 68533, Note_on_c, 0, 59, 78
2, 68542, Note_on_c, 0, 76, 89
2, 68553, Control_c, 0, 64, 20
2, 68553, Note_on_c, 0, 77, 75
2, 68573, Control_c, 0, 64, 18
2, 68578, Note_on_c, 0, 78, 0
2, 68582, Note_on_c, 0, 77, 0
2, 68591, Control_c, 0, 64, 11
2, 68609, Control_c, 0, 64, 0
2, 68644, Note_on_c, 0, 75, 88
2, 68664, Note_on_c, 0, 76, 0
2, 68769, Note_on_c, 0, 58, 72
2, 68784, Note_on_c, 0, 76, 93
2, 68811, Note_on_c, 0, 59, 0
2, 68851, Note_on_c, 0, 75, 0
2, 68955, Note_on_c, 0, 76, 0
2, 68983, Note_on_c, 0, 58, 0
2, 69032, Note_on_c, 0, 78, 86
2, 69143, Note_on_c, 0, 76, 76
2, 69161, Note_on_c, 0, 78, 0
2, 69243, Note_on_c, 0, 76, 0
2, 69249, Note_on_c, 0, 75, 68
2, 69266, Note_on_c, 0, 59, 66
2, 69333, Note_on_c, 0, 75, 0
2, 69359, Note_on_c, 0, 73, 67
2, 69437, Note_on_c, 0, 59, 0
2, 69494, Note_on_c, 0, 47, 54
2, 69494, Note_on_c, 0, 75, 64
2, 69502, Note_on_c, 0, 73, 0
2, 69587, Control_c, 0, 64, 25
2, 69607, Control_c, 0, 64, 46
2, 69627, Control_c, 0, 64, 60
2, 69645, Control_c, 0, 64, 63
2, 69649, Note_on_c, 0, 75, 0
2, 69673, Note_on_c, 0, 47, 0
2, 69683, Control_c, 0, 64, 64
2, 69702, Control_c, 0, 64, 65
2, 69731, Note_on_c, 0, 72, 65
2, 69740, Control_c, 0, 64, 64
2, 69780, Control_c, 0, 64, 63
2, 69800, Control_c, 0, 64, 62
2, 69815, Note_on_c, 0, 72, 0
2, 69819, Control_c, 0, 64, 61
2, 69837, Control_c, 0, 64, 59
2, 69839, Note_on_c, 0, 71, 63
2, 69857, Control_c, 0, 64, 56
2, 69877, Control_c, 0, 64, 51
2, 69895, Control_c, 0, 64, 43
2, 69914, Control_c, 0, 64, 27
2, 69927, Note_on_c, 0, 71, 0
2, 69934, Control_c, 0, 64, 0
2, 69960, Note_on_c, 0, 64, 59
2, 69962, Note_on_c, 0, 69, 65
2, 70036, Note_on_c, 0, 69, 0
2, 70064, Note_on_c, 0, 68, 64
2, 70186, Note_on_c, 0, 64, 0
2, 70186, Note_on_c, 0, 68, 0
2, 70190, Note_on_c, 0, 69, 66
2, 70194, Note_on_c, 0, 63, 61
2, 70221, Note_on_c, 0, 69, 0
2, 70229, Note_on_c, 0, 63, 0
2, 70441, Note_on_c, 0, 64, 49
2, 70451, Note_on_c, 0, 72, 57
2, 70472, Note_on_c, 0, 64, 0
2, 70479, Note_on_c, 0, 72, 0
2, 70673, Note_on_c, 0, 66, 66
2, 70673, Note_on_c, 0, 68, 63
2, 70701, Note_on_c, 0, 66, 0
2, 70709, Note_on_c, 0, 68, 0
2, 70911, Control_c, 0, 64, 24
2, 70923, Note_on_c, 0, 59, 56
2, 70927, Note_on_c, 0, 78, 65
2, 70934, Control_c, 0, 64, 45
2, 70934, Note_on_c, 0, 69, 51
2, 70951, Control_c, 0, 64, 61
2, 70972, Control_c, 0, 64, 68
2, 70986, Note_on_c, 0, 59, 0
2, 70987, Control_c, 0, 64, 75
2, 71009, Control_c, 0, 64, 82
2, 71029, Control_c, 0, 64, 89
2, 71045, Control_c, 0, 64, 94
2, 71085, Control_c, 0, 64, 93
2, 71105, Control_c, 0, 64, 88
2, 71110, Note_on_c, 0, 78, 0
2, 71125, Control_c, 0, 64, 83
2, 71142, Control_c, 0, 64, 78
2, 71162, Control_c, 0, 64, 74
2, 71182, Note_on_c, 0, 72, 81
2, 71186, Control_c, 0, 64, 70
2, 71200, Control_c, 0, 64, 66
2, 71214, Note_on_c, 0, 69, 0
2, 71219, Control_c, 0, 64, 62
2, 71238, Control_c, 0, 64, 58
2, 71257, Control_c, 0, 64, 54
2, 71277, Control_c, 0, 64, 52
2, 71291, Note_on_c, 0, 71, 81
2, 71299, Control_c, 0, 64, 49
2, 71299, Note_on_c, 0, 72, 0
2, 71316, Control_c, 0, 64, 43
2, 71334, Control_c, 0, 64, 35
2, 71353, Control_c, 0, 64, 20
2, 71373, Control_c, 0, 64, 0
2, 71381, Note_on_c, 0, 71, 0
2, 71411, Note_on_c, 0, 69, 73
2, 71415, Note_on_c, 0, 64, 61
2, 71508, Note_on_c, 0, 69, 0
2, 71514, Note_on_c, 0, 68, 75
2, 71636, Note_on_c, 0, 68, 0
2, 71650, Note_on_c, 0, 64, 0
2, 71650, Note_on_c, 0, 69, 65
2, 71655, Note_on_c, 0, 63, 56
2, 71805, Note_on_c, 0, 69, 0
2, 71842, Note_on_c, 0, 63, 0
2, 71902, Note_on_c, 0, 71, 68
2, 71956, Note_on_c, 0, 71, 0
2, 72003, Note_on_c, 0, 69, 59
2, 72088, Note_on_c, 0, 64, 51
2, 72113, Note_on_c, 0, 69, 0
2, 72115, Note_on_c, 0, 67, 64
2, 72197, Note_on_c, 0, 67, 0
2, 72213, Note_on_c, 0, 66, 69
2, 72254, Note_on_c, 0, 64, 0
2, 72288, Note_on_c, 0, 66, 0
2, 72319, Note_on_c, 0, 52, 69
2, 72329, Note_on_c, 0, 67, 78
2, 72411, Note_on_c, 0, 52, 0
2, 72418, Note_on_c, 0, 67, 0
2, 72427, Note_on_c, 0, 71, 76
2, 72431, Note_on_c, 0, 55, 63
2, 72502, Note_on_c, 0, 55, 0
2, 72523, Note_on_c, 0, 71, 0
2, 72532, Note_on_c, 0, 73, 77
2, 72554, Note_on_c, 0, 57, 63
2, 72594, Note_on_c, 0, 57, 0
2, 72628, Note_on_c, 0, 73, 0
2, 72643, Note_on_c, 0, 75, 68
2, 72655, Note_on_c, 0, 59, 70
2, 72719, Note_on_c, 0, 75, 0
2, 72742, Note_on_c, 0, 59, 0
2, 72759, Note_on_c, 0, 61, 67
2, 72759, Note_on_c, 0, 76, 76
2, 72848, Note_on_c, 0, 76, 0
2, 72853, Note_on_c, 0, 61, 0
2, 72864, Note_on_c, 0, 78, 79
2, 72869, Note_on_c, 0, 63, 75
2, 72946, Note_on_c, 0, 63, 0
2, 72953, Note_on_c, 0, 78, 0
2, 72978, Note_on_c, 0, 79, 84
2, 72988, Note_on_c, 0, 64, 85
2, 73018, Note_on_c, 0, 64, 0
2, 73089, Note_on_c, 0, 79, 0
2, 73095, Note_on_c, 0, 78, 79
2, 73214, Note_on_c, 0, 67, 71
2, 73214, Note_on_c, 0, 78, 0
2, 73234, Note_on_c, 0, 76, 76
2, 73249, Note_on_c, 0, 67, 0
2, 73339, Note_on_c, 0, 74, 79
2, 73339, Note_on_c, 0, 76, 0
2, 73417, Note_on_c, 0, 74, 0
2, 73447, Note_on_c, 0, 73, 76
2, 73452, Note_on_c, 0, 64, 66
2, 73489, Note_on_c, 0, 64, 0
2, 73523, Note_on_c, 0, 73, 0
2, 73561, Note_on_c, 0, 71, 65
2, 73614, Note_on_c, 0, 71, 0
2, 73674, Note_on_c, 0, 76, 82
2, 73679, Note_on_c, 0, 61, 67
2, 73716, Note_on_c, 0, 61, 0
2, 73775, Note_on_c, 0, 76, 0
2, 73791, Note_on_c, 0, 74, 72
2, 73882, Note_on_c, 0, 74, 0
2, 73910, Note_on_c, 0, 73, 73
2, 73916, Note_on_c, 0, 64, 68
2, 73953, Note_on_c, 0, 64, 0
2, 73990, Note_on_c, 0, 73, 0
2, 74025, Note_on_c, 0, 71, 70
2, 74132, Note_on_c, 0, 71, 0
2, 74141, Note_on_c, 0, 69, 68
2, 74148, Note_on_c, 0, 61, 68
2, 74181, Note_on_c, 0, 61, 0
2, 74195, Note_on_c, 0, 69, 0
2, 74245, Note_on_c, 0, 68, 69
2, 74346, Note_on_c, 0, 68, 0
2, 74362, Note_on_c, 0, 57, 81
2, 74362, Note_on_c, 0, 73, 77
2, 74395, Note_on_c, 0, 57, 0
2, 74433, Note_on_c, 0, 73, 0
2, 74469, Note_on_c, 0, 71, 70
2, 74549, Note_on_c, 0, 71, 0
2, 74593, Note_on_c, 0, 61, 59
2, 74593, Note_on_c, 0, 69, 66
2, 74633, Note_on_c, 0, 61, 0
2, 74685, Note_on_c, 0, 69, 0
2, 74700, Note_on_c, 0, 67, 64
2, 74794, Note_on_c, 0, 67, 0
2, 74815, Note_on_c, 0, 66, 65
2, 74819, Note_on_c, 0, 57, 65
2, 74856, Note_on_c, 0, 57, 0
2, 74887, Note_on_c, 0, 66, 0
2, 74935, Note_on_c, 0, 64, 63
2, 75002, Note_on_c, 0, 64, 0
2, 75053, Note_on_c, 0, 66, 72
2, 75062, Note_on_c, 0, 50, 70
2, 75151, Note_on_c, 0, 66, 0
2, 75178, Note_on_c, 0, 54, 76
2, 75178, Note_on_c, 0, 69, 74
2, 75182, Note_on_c, 0, 50, 0
2, 75285, Note_on_c, 0, 71, 82
2, 75289, Note_on_c, 0, 69, 0
2, 75296, Note_on_c, 0, 55, 76
2, 75300, Note_on_c, 0, 54, 0
2, 75370, Note_on_c, 0, 55, 0
2, 75392, Note_on_c, 0, 57, 85
2, 75392, Note_on_c, 0, 73, 89
2, 75404, Note_on_c, 0, 71, 0
2, 75496, Note_on_c, 0, 59, 86
2, 75503, Note_on_c, 0, 73, 0
2, 75503, Note_on_c, 0, 74, 88
2, 75511, Note_on_c, 0, 57, 0
2, 75605, Note_on_c, 0, 76, 89
2, 75610, Note_on_c, 0, 61, 83
2, 75614, Note_on_c, 0, 59, 0
2, 75616, Note_on_c, 0, 74, 0
2, 75726, Note_on_c, 0, 78, 87
2, 75733, Note_on_c, 0, 62, 95
2, 75739, Note_on_c, 0, 76, 0
2, 75848, Note_on_c, 0, 61, 0
2, 75852, Note_on_c, 0, 76, 86
2, 75866, Note_on_c, 0, 78, 0
2, 75967, Note_on_c, 0, 76, 0
2, 75978, Note_on_c, 0, 74, 75
2, 76074, Note_on_c, 0, 73, 76
2, 76083, Note_on_c, 0, 74, 0
2, 76190, Note_on_c, 0, 71, 77
2, 76198, Note_on_c, 0, 73, 0
2, 76277, Note_on_c, 0, 71, 0
2, 76295, Note_on_c, 0, 69, 78
2, 76408, Note_on_c, 0, 68, 87
2, 76442, Note_on_c, 0, 69, 0
2, 76523, Note_on_c, 0, 71, 83
2, 76555, Note_on_c, 0, 68, 0
2, 76642, Note_on_c, 0, 71, 0
2, 76642, Note_on_c, 0, 76, 88
2, 76656, Note_on_c, 0, 61, 84
2, 76697, Note_on_c, 0, 62, 0
2, 76749, Note_on_c, 0, 74, 83
2, 76783, Note_on_c, 0, 76, 0
2, 76869, Note_on_c, 0, 59, 91
2, 76883, Note_on_c, 0, 76, 90
2, 76903, Note_on_c, 0, 74, 0
2, 76943, Note_on_c, 0, 61, 0
2, 77003, Note_on_c, 0, 67, 76
2, 77032, Note_on_c, 0, 67, 0
2, 77118, Note_on_c, 0, 58, 80
2, 77126, Note_on_c, 0, 59, 0
2, 77131, Note_on_c, 0, 66, 88
2, 77222, Note_on_c, 0, 58, 0
2, 77225, Note_on_c, 0, 76, 0
2, 77235, Note_on_c, 0, 70, 83
2, 77244, Note_on_c, 0, 61, 75
2, 77330, Note_on_c, 0, 61, 0
2, 77343, Note_on_c, 0, 73, 81
2, 77358, Note_on_c, 0, 59, 78
2, 77381, Note_on_c, 0, 70, 0
2, 77462, Note_on_c, 0, 74, 77
2, 77466, Note_on_c, 0, 59, 0
2, 77470, Note_on_c, 0, 58, 78
2, 77470, Note_on_c, 0, 73, 0
2, 77549, Note_on_c, 0, 58, 0
2, 77577, Note_on_c, 0, 56, 69
2, 77595, Note_on_c, 0, 76, 82
2, 77622, Note_on_c, 0, 74, 0
2, 77651, Note_on_c, 0, 56, 0
2, 77692, Note_on_c, 0, 54, 71
2, 77712, Note_on_c, 0, 66, 0
2, 77797, Note_on_c, 0, 54, 0
2, 77821, Note_on_c, 0, 59, 86
2, 77912, Note_on_c, 0, 76, 0
2, 77944, Note_on_c, 0, 66, 77
2, 77974, Note_on_c, 0, 59, 0
2, 78049, Note_on_c, 0, 66, 0
2, 78053, Note_on_c, 0, 68, 82
2, 78057, Note_on_c, 0, 54, 81
2, 78084, Note_on_c, 0, 54, 0
2, 78165, Note_on_c, 0, 70, 83
2, 78185, Note_on_c, 0, 68, 0
2, 78279, Note_on_c, 0, 70, 0
2, 78286, Note_on_c, 0, 71, 90
2, 78290, Note_on_c, 0, 50, 82
2, 78316, Note_on_c, 0, 50, 0
2, 78399, Note_on_c, 0, 73, 91
2, 78432, Note_on_c, 0, 71, 0
2, 78519, Note_on_c, 0, 74, 88
2, 78528, Note_on_c, 0, 47, 86
2, 78535, Note_on_c, 0, 73, 0
2, 78648, Note_on_c, 0, 73, 86
2, 78652, Note_on_c, 0, 74, 0
2, 78762, Note_on_c, 0, 73, 0
2, 78771, Note_on_c, 0, 71, 73
2, 78786, Note_on_c, 0, 47, 0
2, 78786, Note_on_c, 0, 49, 70
2, 78842, Note_on_c, 0, 71, 0
2, 78861, Note_on_c, 0, 49, 0
2, 78889, Note_on_c, 0, 50, 74
2, 78889, Note_on_c, 0, 69, 66
2, 78959, Note_on_c, 0, 69, 0
2, 78966, Note_on_c, 0, 50, 0
2, 78980, Note_on_c, 0, 67, 78
2, 79005, Note_on_c, 0, 52, 77
2, 79091, Note_on_c, 0, 66, 82
2, 79106, Note_on_c, 0, 67, 0
2, 79113, Note_on_c, 0, 52, 0
2, 79113, Note_on_c, 0, 54, 76
2, 79214, Note_on_c, 0, 54, 0
2, 79220, Note_on_c, 0, 71, 89
2, 79227, Note_on_c, 0, 55, 79
2, 79229, Note_on_c, 0, 66, 0
2, 79288, Note_on_c, 0, 55, 0
2, 79332, Note_on_c, 0, 69, 82
2, 79336, Note_on_c, 0, 57, 80
2, 79369, Note_on_c, 0, 71, 0
2, 79449, Note_on_c, 0, 57, 0
2, 79449, Note_on_c, 0, 59, 83
2, 79456, Note_on_c, 0, 67, 81
2, 79473, Note_on_c, 0, 69, 0
2, 79531, Note_on_c, 0, 59, 0
2, 79560, Note_on_c, 0, 66, 86
2, 79564, Note_on_c, 0, 67, 0
2, 79567, Note_on_c, 0, 57, 88
2, 79654, Note_on_c, 0, 66, 0
2, 79675, Note_on_c, 0, 55, 83
2, 79680, Note_on_c, 0, 57, 0
2, 79680, Note_on_c, 0, 64, 91
2, 79749, Note_on_c, 0, 64, 0
2, 79775, Note_on_c, 0, 55, 0
2, 79788, Note_on_c, 0, 54, 86
2, 79796, Note_on_c, 0, 62, 92
2, 79908, Note_on_c, 0, 54, 0
2, 79910, Note_on_c, 0, 52, 88
2, 79915, Note_on_c, 0, 67, 93
2, 79931, Note_on_c, 0, 62, 0
2, 80019, Note_on_c, 0, 66, 89
2, 80024, Note_on_c, 0, 54, 88
2, 80037, Note_on_c, 0, 52, 0
2, 80042, Note_on_c, 0, 67, 0
2, 80144, Note_on_c, 0, 55, 88
2, 80146, Note_on_c, 0, 64, 73
2, 80150, Note_on_c, 0, 54, 0
2, 80150, Note_on_c, 0, 65, 71
2, 80154, Note_on_c, 0, 66, 0
2, 80218, Note_on_c, 0, 65, 0
2, 80251, Note_on_c, 0, 62, 84
2, 80253, Note_on_c, 0, 64, 0
2, 80262, Note_on_c, 0, 54, 86
2, 80266, Note_on_c, 0, 55, 0
2, 80360, Note_on_c, 0, 61, 87
2, 80374, Note_on_c, 0, 55, 88
2, 80387, Note_on_c, 0, 54, 0
2, 80394, Note_on_c, 0, 62, 0
2, 80467, Note_on_c, 0, 55, 0
2, 80480, Note_on_c, 0, 52, 84
2, 80480, Note_on_c, 0, 64, 94
2, 80504, Note_on_c, 0, 61, 0
2, 80624, Note_on_c, 0, 64, 0
2, 80628, Control_c, 0, 64, 13
2, 80639, Note_on_c, 0, 58, 95
2, 80646, Control_c, 0, 64, 38
2, 80652, Note_on_c, 0, 54, 83
2, 80666, Control_c, 0, 64, 57
2, 80666, Note_on_c, 0, 52, 0
2, 80683, Control_c, 0, 64, 71
2, 80706, Control_c, 0, 64, 81
2, 80724, Control_c, 0, 64, 97
2, 80742, Control_c, 0, 64, 109
2, 80762, Control_c, 0, 64, 127
2, 80870, Note_on_c, 0, 58, 0
2, 80878, Control_c, 0, 64, 120
2, 80899, Control_c, 0, 64, 112
2, 80918, Control_c, 0, 64, 105
2, 80936, Control_c, 0, 64, 99
2, 80954, Control_c, 0, 64, 92
2, 80960, Note_on_c, 0, 79, 97
2, 80975, Control_c, 0, 64, 89
2, 80978, Note_on_c, 0, 54, 0
2, 80993, Control_c, 0, 64, 88
2, 81011, Control_c, 0, 64, 87
2, 81031, Control_c, 0, 64, 85
2, 81049, Control_c, 0, 64, 80
2, 81065, Note_on_c, 0, 78, 89
2, 81070, Control_c, 0, 64, 75
2, 81086, Control_c, 0, 64, 67
2, 81106, Control_c, 0, 64, 60
2, 81110, Note_on_c, 0, 80, 53
2, 81115, Note_on_c, 0, 79, 0
2, 81126, Control_c, 0, 64, 49
2, 81141, Note_on_c, 0, 80, 0
2, 81145, Note_on_c, 0, 42, 85
2, 81149, Control_c, 0, 64, 30
2, 81164, Control_c, 0, 64, 0
2, 81173, Note_on_c, 0, 76, 90
2, 81184, Note_on_c, 0, 42, 0
2, 81207, Note_on_c, 0, 78, 0
2, 81263, Note_on_c, 0, 76, 0
2, 81268, Note_on_c, 0, 74, 87
2, 81395, Note_on_c, 0, 70, 89
2, 81395, Note_on_c, 0, 73, 92
2, 81399, Note_on_c, 0, 42, 86
2, 81421, Note_on_c, 0, 74, 0
2, 81568, Control_c, 0, 64, 16
2, 81590, Control_c, 0, 64, 26
2, 81604, Control_c, 0, 64, 32
2, 81626, Control_c, 0, 64, 36
2, 81626, Note_on_c, 0, 73, 0
2, 81646, Control_c, 0, 64, 39
2, 81652, Note_on_c, 0, 76, 89
2, 81684, Control_c, 0, 64, 40
2, 81760, Note_on_c, 0, 42, 0
2, 81772, Note_on_c, 0, 76, 0
2, 81779, Control_c, 0, 64, 39
2, 81802, Control_c, 0, 64, 38
2, 81837, Control_c, 0, 64, 37
2, 81875, Control_c, 0, 64, 38
2, 81896, Control_c, 0, 64, 39
2, 81896, Note_on_c, 0, 42, 84
2, 81896, Note_on_c, 0, 73, 100
2, 81912, Control_c, 0, 64, 41
2, 81932, Control_c, 0, 64, 43
2, 81949, Note_on_c, 0, 42, 0
2, 81954, Control_c, 0, 64, 49
2, 81954, Note_on_c, 0, 70, 0
2, 81970, Control_c, 0, 64, 57
2, 81990, Control_c, 0, 64, 60
2, 82105, Control_c, 0, 64, 59
2, 82143, Control_c, 0, 64, 58
2, 82152, Note_on_c, 0, 64, 93
2, 82154, Note_on_c, 0, 70, 90
2, 82156, Note_on_c, 0, 42, 85
2, 82163, Control_c, 0, 64, 57
2, 82183, Control_c, 0, 64, 56
2, 82196, Note_on_c, 0, 73, 0
2, 82201, Control_c, 0, 64, 55
2, 82241, Control_c, 0, 64, 54
2, 82259, Control_c, 0, 64, 51
2, 82278, Control_c, 0, 64, 42
2, 82298, Control_c, 0, 64, 18
2, 82317, Control_c, 0, 64, 0
2, 82402, Note_on_c, 0, 73, 94
2, 82432, Control_c, 0, 64, 20
2, 82437, Note_on_c, 0, 70, 0
2, 82453, Control_c, 0, 64, 33
2, 82471, Control_c, 0, 64, 50
2, 82490, Control_c, 0, 64, 60
2, 82509, Control_c, 0, 64, 62
2, 82546, Control_c, 0, 64, 64
2, 82565, Control_c, 0, 64, 67
2, 82585, Control_c, 0, 64, 73
2, 82606, Control_c, 0, 64, 85
2, 82624, Control_c, 0, 64, 97
2, 82644, Note_on_c, 0, 42, 0
2, 82646, Control_c, 0, 64, 109
2, 82651, Note_on_c, 0, 70, 87
2, 82664, Control_c, 0, 64, 127
2, 82694, Note_on_c, 0, 64, 0
2, 82779, Note_on_c, 0, 73, 0
2, 82865, Note_on_c, 0, 70, 0
2, 82899, Note_on_c, 0, 64, 81
2, 82903, Note_on_c, 0, 61, 90
2, 82912, Control_c, 0, 64, 122
2, 82933, Control_c, 0, 64, 113
2, 82951, Control_c, 0, 64, 107
2, 82969, Control_c, 0, 64, 103
2, 82988, Control_c, 0, 64, 99
2, 83008, Control_c, 0, 64, 96
2, 83028, Control_c, 0, 64, 92
2, 83045, Control_c, 0, 64, 87
2, 83065, Control_c, 0, 64, 83
2, 83086, Control_c, 0, 64, 78
2, 83104, Control_c, 0, 64, 74
2, 83122, Control_c, 0, 64, 70
2, 83142, Control_c, 0, 64, 66
2, 83160, Note_on_c, 0, 70, 88
2, 83164, Control_c, 0, 64, 62
2, 83181, Control_c, 0, 64, 58
2, 83194, Note_on_c, 0, 64, 0
2, 83198, Control_c, 0, 64, 53
2, 83218, Control_c, 0, 64, 49
2, 83240, Control_c, 0, 64, 46
2, 83245, Note_on_c, 0, 70, 0
2, 83260, Control_c, 0, 64, 45
2, 83284, Note_on_c, 0, 49, 78
2, 83296, Control_c, 0, 64, 44
2, 83354, Control_c, 0, 64, 43
2, 83368, Note_on_c, 0, 64, 75
2, 83392, Control_c, 0, 64, 42
2, 83392, Note_on_c, 0, 50, 78
2, 83410, Control_c, 0, 64, 41
2, 83424, Note_on_c, 0, 49, 0
2, 83430, Control_c, 0, 64, 39
2, 83450, Control_c, 0, 64, 38
2, 83459, Note_on_c, 0, 64, 0
2, 83473, Control_c, 0, 64, 37
2, 83494, Note_on_c, 0, 52, 85
2, 83506, Note_on_c, 0, 50, 0
2, 83608, Note_on_c, 0, 62, 88
2, 83624, Note_on_c, 0, 54, 88
2, 83639, Note_on_c, 0, 52, 0
2, 83639, Note_on_c, 0, 61, 0
2, 83679, Control_c, 0, 64, 36
2, 83700, Control_c, 0, 64, 35
2, 83717, Control_c, 0, 64, 29
2, 83737, Control_c, 0, 64, 0
2, 83877, Note_on_c, 0, 59, 77
2, 83884, Note_on_c, 0, 62, 0
2, 83971, Note_on_c, 0, 59, 0
2, 83983, Note_on_c, 0, 61, 77
2, 84042, Note_on_c, 0, 54, 0
2, 84069, Note_on_c, 0, 42, 71
2, 84091, Note_on_c, 0, 62, 86
2, 84095, Note_on_c, 0, 61, 0
2, 84108, Note_on_c, 0, 42, 0
2, 84186, Note_on_c, 0, 62, 0
2, 84197, Note_on_c, 0, 64, 81
2, 84265, Note_on_c, 0, 64, 0
2, 84323, Note_on_c, 0, 71, 93
2, 84332, Note_on_c, 0, 42, 59
2, 84341, Note_on_c, 0, 66, 75
2, 84584, Note_on_c, 0, 62, 69
2, 84624, Note_on_c, 0, 62, 0
2, 84624, Note_on_c, 0, 66, 0
2, 84650, Note_on_c, 0, 42, 0
2, 84697, Control_c, 0, 64, 8
2, 84715, Control_c, 0, 64, 15
2, 84736, Control_c, 0, 64, 25
2, 84756, Control_c, 0, 64, 41
2, 84776, Control_c, 0, 64, 53
2, 84791, Control_c, 0, 64, 56
2, 84814, Note_on_c, 0, 66, 79
2, 84823, Note_on_c, 0, 42, 75
2, 84858, Note_on_c, 0, 42, 0
2, 84858, Note_on_c, 0, 71, 0
2, 84876, Note_on_c, 0, 66, 0
2, 84908, Control_c, 0, 64, 55
2, 84965, Control_c, 0, 64, 54
2, 85021, Control_c, 0, 64, 53
2, 85044, Control_c, 0, 64, 52
2, 85059, Note_on_c, 0, 74, 95
2, 85068, Note_on_c, 0, 71, 87
2, 85073, Note_on_c, 0, 42, 79
2, 85082, Control_c, 0, 64, 51
2, 85100, Control_c, 0, 64, 49
2, 85120, Control_c, 0, 64, 44
2, 85139, Control_c, 0, 64, 29
2, 85160, Control_c, 0, 64, 0
2, 85315, Note_on_c, 0, 66, 94
2, 85381, Note_on_c, 0, 66, 0
2, 85392, Note_on_c, 0, 71, 0
2, 85559, Note_on_c, 0, 71, 91
2, 85601, Note_on_c, 0, 74, 0
2, 85804, Note_on_c, 0, 77, 101
2, 85824, Note_on_c, 0, 74, 80
2, 85862, Note_on_c, 0, 71, 0
2, 85945, Control_c, 0, 64, 16
2, 85965, Control_c, 0, 64, 32
2, 85987, Control_c, 0, 64, 40
2, 85989, Note_on_c, 0, 74, 0
2, 86004, Control_c, 0, 64, 43
2, 86021, Control_c, 0, 64, 46
2, 86041, Control_c, 0, 64, 50
2, 86045, Note_on_c, 0, 71, 89
2, 86061, Control_c, 0, 64, 53
2, 86079, Control_c, 0, 64, 55
2, 86099, Control_c, 0, 64, 57
2, 86120, Control_c, 0, 64, 58
2, 86132, Note_on_c, 0, 71, 0
2, 86138, Control_c, 0, 64, 60
2, 86145, Note_on_c, 0, 42, 0
2, 86156, Control_c, 0, 64, 61
2, 86174, Control_c, 0, 64, 62
2, 86194, Control_c, 0, 64, 64
2, 86217, Control_c, 0, 64, 65
2, 86236, Control_c, 0, 64, 67
2, 86254, Control_c, 0, 64, 70
2, 86270, Control_c, 0, 64, 74
2, 86277, Note_on_c, 0, 74, 94
2, 86292, Control_c, 0, 64, 77
2, 86323, Note_on_c, 0, 77, 0
2, 86327, Control_c, 0, 64, 76
2, 86366, Control_c, 0, 64, 75
2, 86426, Control_c, 0, 64, 74
2, 86464, Control_c, 0, 64, 73
2, 86522, Control_c, 0, 64, 72
2, 86537, Note_on_c, 0, 78, 101
2, 86540, Control_c, 0, 64, 70
2, 86558, Control_c, 0, 64, 67
2, 86565, Note_on_c, 0, 73, 75
2, 86573, Note_on_c, 0, 74, 0
2, 86578, Control_c, 0, 64, 64
2, 86598, Control_c, 0, 64, 61
2, 86639, Control_c, 0, 64, 60
2, 86674, Control_c, 0, 64, 58
2, 86694, Control_c, 0, 64, 55
2, 86711, Control_c, 0, 64, 52
2, 86731, Control_c, 0, 64, 48
2, 86750, Control_c, 0, 64, 44
2, 86771, Control_c, 0, 64, 40
2, 86789, Control_c, 0, 64, 35
2, 86808, Control_c, 0, 64, 29
2, 86814, Note_on_c, 0, 70, 81
2, 86830, Control_c, 0, 64, 24
2, 86834, Note_on_c, 0, 78, 0
2, 86847, Control_c, 0, 64, 21
2, 86867, Control_c, 0, 64, 18
2, 86884, Note_on_c, 0, 73, 0
2, 86888, Control_c, 0, 64, 15
2, 86907, Control_c, 0, 64, 0
2, 86914, Note_on_c, 0, 50, 86
2, 87027, Note_on_c, 0, 52, 88
2, 87029, Note_on_c, 0, 76, 92
2, 87036, Note_on_c, 0, 73, 86
2, 87059, Note_on_c, 0, 50, 0
2, 87077, Note_on_c, 0, 70, 0
2, 87144, Note_on_c, 0, 54, 92
2, 87155, Note_on_c, 0, 52, 0
2, 87263, Note_on_c, 0, 55, 92
2, 87265, Note_on_c, 0, 71, 91
2, 87274, Note_on_c, 0, 74, 90
2, 87282, Note_on_c, 0, 76, 0
2, 87289, Note_on_c, 0, 54, 0
2, 87306, Note_on_c, 0, 73, 0
2, 87344, Note_on_c, 0, 55, 0
2, 87540, Note_on_c, 0, 54, 91
2, 87585, Note_on_c, 0, 54, 0
2, 87787, Note_on_c, 0, 79, 94
2, 87792, Note_on_c, 0, 52, 84
2, 87822, Note_on_c, 0, 52, 0
2, 87822, Note_on_c, 0, 74, 0
2, 87840, Note_on_c, 0, 71, 0
2, 88111, Note_on_c, 0, 71, 85
2, 88111, Note_on_c, 0, 74, 91
2, 88116, Note_on_c, 0, 54, 90
2, 88151, Note_on_c, 0, 79, 0
2, 88249, Control_c, 0, 64, 25
2, 88270, Control_c, 0, 64, 37
2, 88287, Control_c, 0, 64, 49
2, 88305, Control_c, 0, 64, 57
2, 88325, Control_c, 0, 64, 60
2, 88345, Control_c, 0, 64, 61
2, 88365, Control_c, 0, 64, 63
2, 88385, Control_c, 0, 64, 66
2, 88403, Control_c, 0, 64, 72
2, 88422, Control_c, 0, 64, 82
2, 88440, Control_c, 0, 64, 99
2, 88461, Control_c, 0, 64, 127
2, 88508, Note_on_c, 0, 71, 0
2, 88558, Note_on_c, 0, 74, 0
2, 88944, Note_on_c, 0, 70, 85
2, 88944, Note_on_c, 0, 74, 86
2, 88949, Note_on_c, 0, 42, 78
2, 88971, Note_on_c, 0, 73, 87
2, 88978, Control_c, 0, 64, 86
2, 89001, Control_c, 0, 64, 62
2, 89019, Note_on_c, 0, 54, 0
2, 89019, Note_on_c, 0, 74, 0
2, 89021, Control_c, 0, 64, 24
2, 89037, Control_c, 0, 64, 0
2, 89221, Note_on_c, 0, 73, 0
2, 89226, Note_on_c, 0, 71, 79
2, 89267, Note_on_c, 0, 71, 0
2, 89455, Note_on_c, 0, 73, 76
2, 89495, Note_on_c, 0, 73, 0
2, 89733, Note_on_c, 0, 71, 67
2, 89735, Note_on_c, 0, 47, 67
2, 89748, Note_on_c, 0, 70, 0
2, 89761, Note_on_c, 0, 42, 0
2, 90024, Note_on_c, 0, 71, 0
2, 90028, Note_on_c, 0, 74, 72
2, 90129, Note_on_c, 0, 73, 71
2, 90155, Note_on_c, 0, 74, 0
2, 90199, Note_on_c, 0, 73, 0
2, 90224, Note_on_c, 0, 47, 0
2, 90238, Note_on_c, 0, 71, 66
2, 90242, Note_on_c, 0, 54, 55
2, 90277, Note_on_c, 0, 54, 0
2, 90328, Note_on_c, 0, 71, 0
2, 90340, Note_on_c, 0, 69, 63
2, 90446, Note_on_c, 0, 59, 60
2, 90464, Note_on_c, 0, 69, 0
2, 90477, Note_on_c, 0, 67, 63
2, 90480, Note_on_c, 0, 59, 0
2, 90493, Note_on_c, 0, 57, 67
2, 90568, Note_on_c, 0, 59, 78
2, 90572, Note_on_c, 0, 57, 0
2, 90748, Note_on_c, 0, 67, 0
2, 90748, Note_on_c, 0, 71, 71
2, 90849, Note_on_c, 0, 69, 68
2, 90859, Note_on_c, 0, 71, 0
2, 90969, Note_on_c, 0, 67, 77
2, 90982, Note_on_c, 0, 69, 0
2, 91069, Note_on_c, 0, 66, 79
2, 91075, Note_on_c, 0, 67, 0
2, 91180, Note_on_c, 0, 64, 82
2, 91218, Note_on_c, 0, 66, 0
2, 91396, Note_on_c, 0, 59, 0
2, 91410, Note_on_c, 0, 64, 0
2, 91416, Note_on_c, 0, 67, 70
2, 91440, Note_on_c, 0, 60, 61
2, 91450, Note_on_c, 0, 67, 0
2, 91493, Note_on_c, 0, 60, 0
2, 91540, Note_on_c, 0, 59, 57
2, 91603, Note_on_c, 0, 59, 0
2, 91642, Note_on_c, 0, 57, 60
2, 91660, Note_on_c, 0, 72, 79
2, 91693, Note_on_c, 0, 72, 0
2, 91700, Note_on_c, 0, 57, 0
2, 91750, Note_on_c, 0, 55, 54
2, 91892, Note_on_c, 0, 55, 0
2, 91912, Note_on_c, 0, 72, 72
2, 91925, Note_on_c, 0, 54, 51
2, 92112, Note_on_c, 0, 54, 0
2, 92150, Note_on_c, 0, 69, 66
2, 92161, Note_on_c, 0, 55, 59
2, 92191, Note_on_c, 0, 69, 0
2, 92234, Note_on_c, 0, 55, 0
2, 92266, Note_on_c, 0, 54, 63
2, 92334, Note_on_c, 0, 54, 0
2, 92377, Note_on_c, 0, 52, 51
2, 92397, Note_on_c, 0, 66, 60
2, 92424, Note_on_c, 0, 52, 0
2, 92432, Note_on_c, 0, 66, 0
2, 92469, Note_on_c, 0, 50, 52
2, 92621, Note_on_c, 0, 62, 74
2, 92625, Note_on_c, 0, 50, 0
2, 92653, Note_on_c, 0, 55, 47
2, 92716, Note_on_c, 0, 55, 0
2, 92743, Note_on_c, 0, 57, 55
2, 92848, Note_on_c, 0, 57, 0
2, 92862, Note_on_c, 0, 67, 80
2, 92878, Note_on_c, 0, 59, 70
2, 92887, Note_on_c, 0, 72, 0
2, 92904, Note_on_c, 0, 62, 0
2, 92973, Note_on_c, 0, 59, 0
2, 92986, Note_on_c, 0, 55, 72
2, 93095, Note_on_c, 0, 55, 0
2, 93101, Note_on_c, 0, 71, 78
2, 93106, Note_on_c, 0, 54, 75
2, 93191, Note_on_c, 0, 71, 0
2, 93196, Note_on_c, 0, 54, 0
2, 93233, Note_on_c, 0, 55, 70
2, 93349, Note_on_c, 0, 49, 79
2, 93349, Note_on_c, 0, 55, 0
2, 93356, Note_on_c, 0, 71, 83
2, 93371, Note_on_c, 0, 67, 0
2, 93382, Note_on_c, 0, 49, 0
2, 93480, Note_on_c, 0, 69, 76
2, 93605, Note_on_c, 0, 67, 76
2, 93616, Note_on_c, 0, 52, 55
2, 93652, Note_on_c, 0, 52, 0
2, 93680, Note_on_c, 0, 69, 0
2, 93697, Note_on_c, 0, 67, 0
2, 93710, Note_on_c, 0, 66, 73
2, 93802, Note_on_c, 0, 66, 0
2, 93828, Note_on_c, 0, 49, 58
2, 93835, Note_on_c, 0, 64, 74
2, 93868, Note_on_c, 0, 49, 0
2, 93918, Note_on_c, 0, 64, 0
2, 93943, Note_on_c, 0, 62, 71
2, 93978, Note_on_c, 0, 71, 0
2, 94064, Note_on_c, 0, 54, 60
2, 94069, Note_on_c, 0, 62, 0
2, 94071, Note_on_c, 0, 61, 75
2, 94201, Note_on_c, 0, 54, 0
2, 94205, Note_on_c, 0, 55, 71
2, 94296, Note_on_c, 0, 55, 0
2, 94305, Note_on_c, 0, 66, 90
2, 94310, Note_on_c, 0, 57, 81
2, 94394, Note_on_c, 0, 61, 0
2, 94417, Note_on_c, 0, 54, 79
2, 94417, Note_on_c, 0, 57, 0
2, 94526, Note_on_c, 0, 54, 0
2, 94538, Note_on_c, 0, 52, 78
2, 94550, Note_on_c, 0, 69, 82
2, 94635, Note_on_c, 0, 52, 0
2, 94651, Note_on_c, 0, 69, 0
2, 94658, Note_on_c, 0, 54, 80
2, 94749, Note_on_c, 0, 54, 0
2, 94787, Note_on_c, 0, 47, 89
2, 94792, Note_on_c, 0, 66, 0
2, 94796, Note_on_c, 0, 69, 77
2, 94829, Note_on_c, 0, 47, 0
2, 94920, Note_on_c, 0, 67, 69
2, 95041, Note_on_c, 0, 50, 71
2, 95041, Note_on_c, 0, 66, 73
2, 95044, Note_on_c, 0, 69, 0
2, 95053, Note_on_c, 0, 67, 0
2, 95078, Note_on_c, 0, 50, 0
2, 95148, Note_on_c, 0, 66, 0
2, 95148, Note_on_c, 0, 69, 27
2, 95178, Note_on_c, 0, 64, 64
2, 95262, Note_on_c, 0, 64, 0
2, 95284, Note_on_c, 0, 47, 67
2, 95284, Note_on_c, 0, 62, 65
2, 95316, Note_on_c, 0, 47, 0
2, 95342, Note_on_c, 0, 62, 0
2, 95410, Note_on_c, 0, 61, 58
2, 95514, Note_on_c, 0, 61, 0
2, 95523, Note_on_c, 0, 52, 58
2, 95536, Note_on_c, 0, 59, 65
2, 95617, Note_on_c, 0, 52, 0
2, 95637, Note_on_c, 0, 54, 67
2, 95747, Note_on_c, 0, 54, 0
2, 95765, Note_on_c, 0, 59, 0
2, 95769, Note_on_c, 0, 69, 0
2, 95773, Note_on_c, 0, 64, 69
2, 95782, Note_on_c, 0, 55, 54
2, 95850, Note_on_c, 0, 55, 0
2, 95885, Note_on_c, 0, 52, 66
2, 95976, Note_on_c, 0, 52, 0
2, 96007, Note_on_c, 0, 50, 59
2, 96016, Note_on_c, 0, 67, 65
2, 96069, Note_on_c, 0, 50, 0
2, 96075, Note_on_c, 0, 67, 0
2, 96131, Note_on_c, 0, 52, 63
2, 96220, Note_on_c, 0, 52, 0
2, 96251, Note_on_c, 0, 45, 68
2, 96269, Note_on_c, 0, 67, 69
2, 96276, Note_on_c, 0, 64, 0
2, 96282, Note_on_c, 0, 45, 0
2, 96389, Note_on_c, 0, 66, 61
2, 96499, Note_on_c, 0, 49, 63
2, 96517, Note_on_c, 0, 64, 71
2, 96535, Note_on_c, 0, 49, 0
2, 96573, Note_on_c, 0, 64, 0
2, 96602, Note_on_c, 0, 66, 0
2, 96631, Note_on_c, 0, 62, 62
2, 96709, Note_on_c, 0, 62, 0
2, 96748, Note_on_c, 0, 45, 60
2, 96752, Note_on_c, 0, 61, 57
2, 96787, Note_on_c, 0, 45, 0
2, 96861, Note_on_c, 0, 61, 0
2, 96870, Note_on_c, 0, 59, 52
2, 96969, Note_on_c, 0, 59, 0
2, 96993, Note_on_c, 0, 50, 60
2, 96997, Note_on_c, 0, 57, 65
2, 97090, Note_on_c, 0, 50, 0
2, 97118, Note_on_c, 0, 52, 65
2, 97213, Note_on_c, 0, 52, 0
2, 97236, Note_on_c, 0, 62, 67
2, 97248, Note_on_c, 0, 54, 66
2, 97248, Note_on_c, 0, 57, 0
2, 97322, Note_on_c, 0, 54, 0
2, 97357, Note_on_c, 0, 50, 63
2, 97448, Note_on_c, 0, 50, 0
2, 97470, Note_on_c, 0, 49, 63
2, 97475, Note_on_c, 0, 66, 68
2, 97479, Note_on_c, 0, 67, 0
2, 97589, Note_on_c, 0, 49, 0
2, 97609, Note_on_c, 0, 50, 68
2, 97713, Note_on_c, 0, 66, 0
2, 97727, Note_on_c, 0, 47, 80
2, 97733, Note_on_c, 0, 50, 0
2, 97839, Note_on_c, 0, 47, 0
2, 97843, Note_on_c, 0, 48, 78
2, 97949, Note_on_c, 0, 48, 0
2, 97956, Note_on_c, 0, 66, 84
2, 97967, Note_on_c, 0, 50, 76
2, 98067, Note_on_c, 0, 50, 0
2, 98072, Note_on_c, 0, 48, 82
2, 98178, Note_on_c, 0, 47, 84
2, 98182, Note_on_c, 0, 48, 0
2, 98204, Note_on_c, 0, 72, 92
2, 98255, Note_on_c, 0, 62, 0
2, 98266, Note_on_c, 0, 66, 0
2, 98297, Note_on_c, 0, 47, 0
2, 98301, Note_on_c, 0, 45, 77
2, 98440, Note_on_c, 0, 71, 97
2, 98445, Note_on_c, 0, 43, 82
2, 98445, Note_on_c, 0, 45, 0
2, 98493, Note_on_c, 0, 72, 0
2, 98578, Note_on_c, 0, 45, 78
2, 98667, Note_on_c, 0, 43, 0
2, 98667, Note_on_c, 0, 45, 0
2, 98698, Note_on_c, 0, 67, 76
2, 98702, Note_on_c, 0, 47, 82
2, 98804, Note_on_c, 0, 47, 0
2, 98813, Note_on_c, 0, 45, 81
2, 98817, Note_on_c, 0, 66, 86
2, 98817, Note_on_c, 0, 67, 0
2, 98917, Note_on_c, 0, 43, 85
2, 98921, Note_on_c, 0, 45, 0
2, 98927, Note_on_c, 0, 64, 85
2, 98945, Note_on_c, 0, 66, 0
2, 99021, Note_on_c, 0, 64, 0
2, 99026, Note_on_c, 0, 62, 85
2, 99046, Note_on_c, 0, 42, 79
2, 99061, Note_on_c, 0, 43, 0
2, 99148, Note_on_c, 0, 67, 89
2, 99171, Note_on_c, 0, 71, 0
2, 99184, Note_on_c, 0, 62, 0
2, 99191, Note_on_c, 0, 40, 75
2, 99191, Note_on_c, 0, 42, 0
2, 99298, Note_on_c, 0, 42, 86
2, 99313, Note_on_c, 0, 40, 0
2, 99396, Note_on_c, 0, 73, 98
2, 99401, Note_on_c, 0, 64, 82
2, 99412, Note_on_c, 0, 43, 89
2, 99416, Note_on_c, 0, 42, 0
2, 99454, Note_on_c, 0, 67, 0
2, 99519, Note_on_c, 0, 42, 90
2, 99541, Note_on_c, 0, 43, 0
2, 99585, Note_on_c, 0, 73, 0
2, 99634, Note_on_c, 0, 40, 81
2, 99645, Note_on_c, 0, 66, 86
2, 99650, Note_on_c, 0, 74, 91
2, 99656, Note_on_c, 0, 42, 0
2, 99686, Note_on_c, 0, 64, 0
2, 99744, Note_on_c, 0, 38, 84
2, 99748, Note_on_c, 0, 40, 0
2, 99887, Note_on_c, 0, 45, 91
2, 99962, Note_on_c, 0, 38, 0
2, 99975, Note_on_c, 0, 66, 0
2, 100162, Note_on_c, 0, 71, 85
2, 100166, Note_on_c, 0, 62, 84
2, 100209, Note_on_c, 0, 74, 0
2, 100293, Note_on_c, 0, 62, 0
2, 100420, Note_on_c, 0, 73, 97
2, 100425, Control_c, 0, 64, 13
2, 100429, Note_on_c, 0, 64, 77
2, 100443, Control_c, 0, 64, 36
2, 100454, Note_on_c, 0, 71, 0
2, 100464, Control_c, 0, 64, 53
2, 100481, Control_c, 0, 64, 64
2, 100501, Control_c, 0, 64, 68
2, 100508, Note_on_c, 0, 64, 0
2, 100521, Control_c, 0, 64, 73
2, 100541, Control_c, 0, 64, 77
2, 100558, Control_c, 0, 64, 81
2, 100578, Control_c, 0, 64, 83
2, 100597, Control_c, 0, 64, 82
2, 100602, Note_on_c, 0, 73, 0
2, 100617, Control_c, 0, 64, 81
2, 100635, Control_c, 0, 64, 78
2, 100655, Control_c, 0, 64, 77
2, 100693, Note_on_c, 0, 76, 100
2, 100709, Note_on_c, 0, 67, 75
2, 100713, Control_c, 0, 64, 76
2, 100732, Control_c, 0, 64, 75
2, 100752, Control_c, 0, 64, 74
2, 100771, Control_c, 0, 64, 72
2, 100791, Control_c, 0, 64, 69
2, 100808, Control_c, 0, 64, 66
2, 100828, Control_c, 0, 64, 62
2, 100834, Note_on_c, 0, 44, 76
2, 100845, Note_on_c, 0, 45, 0
2, 100849, Control_c, 0, 64, 60
2, 100868, Control_c, 0, 64, 58
2, 100923, Control_c, 0, 64, 56
2, 100943, Control_c, 0, 64, 53
2, 100947, Note_on_c, 0, 46, 79
2, 100951, Note_on_c, 0, 44, 0
2, 100965, Control_c, 0, 64, 49
2, 100983, Control_c, 0, 64, 44
2, 101001, Control_c, 0, 64, 41
2, 101021, Control_c, 0, 64, 40
2, 101039, Control_c, 0, 64, 39
2, 101052, Note_on_c, 0, 46, 0
2, 101058, Control_c, 0, 64, 37
2, 101065, Note_on_c, 0, 47, 85
2, 101078, Control_c, 0, 64, 35
2, 101098, Control_c, 0, 64, 32
2, 101115, Control_c, 0, 64, 30
2, 101136, Control_c, 0, 64, 26
2, 101153, Control_c, 0, 64, 24
2, 101173, Control_c, 0, 64, 22
2, 101177, Note_on_c, 0, 49, 86
2, 101205, Note_on_c, 0, 47, 0
2, 101282, Note_on_c, 0, 46, 86
2, 101310, Note_on_c, 0, 49, 0
2, 101365, Note_on_c, 0, 67, 0
2, 101423, Note_on_c, 0, 47, 91
2, 101461, Control_c, 0, 64, 21
2, 101490, Note_on_c, 0, 46, 0
2, 101657, Control_c, 0, 64, 20
2, 101683, Note_on_c, 0, 73, 91
2, 101685, Note_on_c, 0, 64, 81
2, 101718, Note_on_c, 0, 76, 0
2, 101748, Control_c, 0, 64, 19
2, 101768, Control_c, 0, 64, 15
2, 101788, Control_c, 0, 64, 0
2, 101797, Note_on_c, 0, 64, 0
2, 101936, Note_on_c, 0, 74, 95
2, 101963, Control_c, 0, 64, 21
2, 101963, Note_on_c, 0, 66, 76
2, 101979, Control_c, 0, 64, 39
2, 101979, Note_on_c, 0, 73, 0
2, 102002, Control_c, 0, 64, 57
2, 102017, Control_c, 0, 64, 66
2, 102028, Note_on_c, 0, 66, 0
2, 102038, Control_c, 0, 64, 69
2, 102057, Control_c, 0, 64, 75
2, 102077, Control_c, 0, 64, 83
2, 102086, Note_on_c, 0, 74, 0
2, 102098, Control_c, 0, 64, 90
2, 102114, Control_c, 0, 64, 93
2, 102153, Control_c, 0, 64, 92
2, 102171, Control_c, 0, 64, 90
2, 102192, Control_c, 0, 64, 88
2, 102209, Control_c, 0, 64, 86
2, 102229, Note_on_c, 0, 79, 100
2, 102233, Control_c, 0, 64, 83
2, 102238, Note_on_c, 0, 71, 81
2, 102251, Control_c, 0, 64, 80
2, 102266, Control_c, 0, 64, 77
2, 102286, Control_c, 0, 64, 70
2, 102306, Control_c, 0, 64, 65
2, 102327, Control_c, 0, 64, 60
2, 102345, Note_on_c, 0, 47, 0
2, 102349, Control_c, 0, 64, 56
2, 102364, Control_c, 0, 64, 55
2, 102364, Note_on_c, 0, 45, 70
2, 102420, Control_c, 0, 64, 54
2, 102460, Control_c, 0, 64, 53
2, 102475, Note_on_c, 0, 47, 79
2, 102480, Note_on_c, 0, 45, 0
2, 102501, Control_c, 0, 64, 51
2, 102518, Control_c, 0, 64, 49
2, 102538, Control_c, 0, 64, 46
2, 102556, Control_c, 0, 64, 43
2, 102560, Note_on_c, 0, 47, 0
2, 102576, Control_c, 0, 64, 41
2, 102580, Note_on_c, 0, 50, 81
2, 102632, Control_c, 0, 64, 40
2, 102652, Control_c, 0, 64, 39
2, 102695, Note_on_c, 0, 49, 80
2, 102699, Note_on_c, 0, 50, 0
2, 102810, Note_on_c, 0, 52, 91
2, 102817, Note_on_c, 0, 49, 0
2, 102844, Control_c, 0, 64, 38
2, 102956, Note_on_c, 0, 50, 92
2, 102980, Control_c, 0, 64, 37
2, 102997, Control_c, 0, 64, 36
2, 103045, Note_on_c, 0, 71, 0
2, 103069, Note_on_c, 0, 52, 0
2, 103150, Control_c, 0, 64, 35
2, 103196, Note_on_c, 0, 78, 97
2, 103212, Note_on_c, 0, 69, 72
2, 103227, Control_c, 0, 64, 34
2, 103267, Control_c, 0, 64, 33
2, 103365, Note_on_c, 0, 69, 0
2, 103455, Note_on_c, 0, 76, 91
2, 103455, Note_on_c, 0, 79, 0
2, 103470, Note_on_c, 0, 67, 83
2, 103519, Note_on_c, 0, 78, 0
2, 103535, Control_c, 0, 64, 34
2, 103572, Control_c, 0, 64, 35
2, 103604, Note_on_c, 0, 67, 0
2, 103704, Note_on_c, 0, 78, 96
2, 103709, Control_c, 0, 64, 34
2, 103718, Note_on_c, 0, 69, 74
2, 103725, Control_c, 0, 64, 33
2, 103745, Control_c, 0, 64, 32
2, 103756, Note_on_c, 0, 76, 0
2, 103767, Control_c, 0, 64, 27
2, 103785, Control_c, 0, 64, 18
2, 103789, Note_on_c, 0, 50, 0
2, 103803, Control_c, 0, 64, 8
2, 103824, Control_c, 0, 64, 0
2, 103841, Note_on_c, 0, 52, 67
2, 103920, Note_on_c, 0, 52, 0
2, 103941, Note_on_c, 0, 50, 71
2, 104020, Note_on_c, 0, 50, 0
2, 104054, Control_c, 0, 64, 8
2, 104072, Note_on_c, 0, 48, 63
2, 104142, Note_on_c, 0, 48, 0
2, 104164, Note_on_c, 0, 47, 69
2, 104254, Note_on_c, 0, 47, 0
2, 104265, Control_c, 0, 64, 9
2, 104284, Control_c, 0, 64, 11
2, 104296, Note_on_c, 0, 45, 57
2, 104319, Control_c, 0, 64, 13
2, 104338, Control_c, 0, 64, 17
2, 104352, Note_on_c, 0, 45, 0
2, 104357, Control_c, 0, 64, 23
2, 104377, Control_c, 0, 64, 29
2, 104396, Control_c, 0, 64, 39
2, 104396, Note_on_c, 0, 43, 64
2, 104418, Control_c, 0, 64, 54
2, 104437, Control_c, 0, 64, 62
2, 104504, Note_on_c, 0, 43, 0
2, 104508, Note_on_c, 0, 50, 67
2, 104529, Control_c, 0, 64, 61
2, 104533, Note_on_c, 0, 69, 0
2, 104558, Note_on_c, 0, 50, 0
2, 104571, Control_c, 0, 64, 60
2, 104571, Note_on_c, 0, 78, 0
2, 104626, Control_c, 0, 64, 59
2, 104630, Note_on_c, 0, 52, 70
2, 104641, Note_on_c, 0, 76, 88
2, 104645, Control_c, 0, 64, 58
2, 104650, Note_on_c, 0, 67, 77
2, 104663, Control_c, 0, 64, 57
2, 104685, Control_c, 0, 64, 55
2, 104696, Note_on_c, 0, 67, 0
2, 104704, Control_c, 0, 64, 53
2, 104720, Control_c, 0, 64, 51
2, 104740, Control_c, 0, 64, 49
2, 104740, Note_on_c, 0, 54, 81
2, 104749, Note_on_c, 0, 52, 0
2, 104758, Control_c, 0, 64, 47
2, 104778, Control_c, 0, 64, 46
2, 104835, Control_c, 0, 64, 45
2, 104860, Note_on_c, 0, 74, 83
2, 104869, Note_on_c, 0, 66, 75
2, 104876, Control_c, 0, 64, 43
2, 104876, Note_on_c, 0, 55, 82
2, 104880, Note_on_c, 0, 54, 0
2, 104891, Control_c, 0, 64, 41
2, 104912, Control_c, 0, 64, 37
2, 104921, Note_on_c, 0, 76, 0
2, 104932, Control_c, 0, 64, 35
2, 104953, Note_on_c, 0, 55, 0
2, 104978, Note_on_c, 0, 57, 87
2, 104983, Note_on_c, 0, 66, 0
2, 104992, Control_c, 0, 64, 34
2, 105103, Control_c, 0, 64, 32
2, 105125, Control_c, 0, 64, 27
2, 105129, Note_on_c, 0, 76, 90
2, 105134, Note_on_c, 0, 67, 73
2, 105139, Note_on_c, 0, 58, 80
2, 105143, Control_c, 0, 64, 19
2, 105161, Control_c, 0, 64, 13
2, 105183, Control_c, 0, 64, 12
2, 105183, Note_on_c, 0, 74, 0
2, 105205, Note_on_c, 0, 57, 0
2, 105238, Note_on_c, 0, 67, 0
2, 105298, Control_c, 0, 64, 13
2, 105315, Control_c, 0, 64, 14
2, 105333, Control_c, 0, 64, 15
2, 105355, Control_c, 0, 64, 16
2, 105373, Control_c, 0, 64, 18
2, 105391, Control_c, 0, 64, 20
2, 105396, Note_on_c, 0, 64, 79
2, 105402, Note_on_c, 0, 73, 87
2, 105415, Control_c, 0, 64, 22
2, 105415, Control_c, 0, 67, 15
2, 105430, Control_c, 0, 64, 24
2, 105435, Control_c, 0, 67, 28
2, 105441, Note_on_c, 0, 76, 0
2, 105452, Control_c, 0, 64, 26
2, 105452, Control_c, 0, 67, 40
2, 105468, Control_c, 0, 64, 27
2, 105474, Control_c, 0, 67, 48
2, 105485, Note_on_c, 0, 64, 0
2, 105490, Control_c, 0, 64, 29
2, 105490, Control_c, 0, 67, 54
2, 105508, Control_c, 0, 64, 32
2, 105508, Control_c, 0, 67, 56
2, 105526, Control_c, 0, 64, 36
2, 105548, Control_c, 0, 64, 44
2, 105568, Control_c, 0, 64, 51
2, 105568, Control_c, 0, 67, 55
2, 105586, Control_c, 0, 64, 56
2, 105586, Control_c, 0, 67, 54
2, 105604, Control_c, 0, 64, 58
2, 105604, Control_c, 0, 67, 53
2, 105624, Control_c, 0, 64, 60
2, 105624, Control_c, 0, 67, 52
2, 105646, Control_c, 0, 64, 64
2, 105646, Control_c, 0, 67, 50
2, 105657, Note_on_c, 0, 74, 79
2, 105663, Control_c, 0, 64, 69
2, 105665, Control_c, 0, 67, 49
2, 105671, Note_on_c, 0, 65, 64
2, 105671, Note_on_c, 0, 73, 0
2, 105680, Control_c, 0, 64, 78
2, 105684, Control_c, 0, 67, 48
2, 105705, Control_c, 0, 64, 89
2, 105705, Control_c, 0, 67, 46
2, 105719, Control_c, 0, 64, 102
2, 105723, Control_c, 0, 67, 45
2, 105739, Control_c, 0, 64, 120
2, 105739, Control_c, 0, 67, 44
2, 105759, Control_c, 0, 64, 127
2, 105764, Note_on_c, 0, 65, 0
2, 105764, Note_on_c, 0, 74, 0
2, 105775, Control_c, 0, 67, 43
2, 105814, Control_c, 0, 67, 42
2, 105832, Control_c, 0, 67, 41
2, 105872, Control_c, 0, 67, 40
2, 105912, Control_c, 0, 64, 109
2, 105912, Control_c, 0, 67, 39
2, 105916, Note_on_c, 0, 73, 81
2, 105932, Control_c, 0, 64, 97
2, 105932, Control_c, 0, 67, 37
2, 105938, Note_on_c, 0, 64, 56
2, 105940, Note_on_c, 0, 73, 0
2, 105951, Control_c, 0, 64, 85
2, 105951, Control_c, 0, 67, 30
2, 105970, Control_c, 0, 64, 74
2, 105970, Control_c, 0, 67, 20
2, 105982, Note_on_c, 0, 74, 72
2, 105990, Control_c, 0, 64, 65
2, 105990, Control_c, 0, 67, 11
2, 106013, Control_c, 0, 64, 57
2, 106013, Control_c, 0, 67, 0
2, 106013, Note_on_c, 0, 73, 79
2, 106026, Control_c, 0, 64, 50
2, 106045, Note_on_c, 0, 74, 0
2, 106049, Control_c, 0, 64, 45
2, 106067, Control_c, 0, 64, 43
2, 106077, Note_on_c, 0, 58, 0
2, 106084, Control_c, 0, 64, 42
2, 106122, Control_c, 0, 64, 41
2, 106133, Note_on_c, 0, 57, 56
2, 106140, Control_c, 0, 64, 40
2, 106160, Control_c, 0, 64, 38
2, 106180, Control_c, 0, 64, 36
2, 106191, Note_on_c, 0, 57, 0
2, 106198, Control_c, 0, 64, 34
2, 106218, Control_c, 0, 64, 31
2, 106230, Note_on_c, 0, 58, 58
2, 106239, Control_c, 0, 64, 27
2, 106257, Control_c, 0, 64, 18
2, 106275, Control_c, 0, 64, 0
2, 106295, Note_on_c, 0, 58, 0
2, 106360, Note_on_c, 0, 55, 48
2, 106429, Control_c, 0, 67, 8
2, 106433, Note_on_c, 0, 55, 0
2, 106494, Note_on_c, 0, 52, 47
2, 106541, Note_on_c, 0, 73, 0
2, 106563, Note_on_c, 0, 52, 0
2, 106601, Note_on_c, 0, 55, 50
2, 106664, Note_on_c, 0, 55, 0
2, 106732, Note_on_c, 0, 64, 0
2, 106736, Note_on_c, 0, 57, 60
2, 106736, Note_on_c, 0, 65, 62
2, 106788, Note_on_c, 0, 57, 0
2, 106828, Note_on_c, 0, 65, 0
2, 106833, Control_c, 0, 67, 9
2, 106845, Note_on_c, 0, 55, 50
2, 106861, Note_on_c, 0, 64, 56
2, 106909, Note_on_c, 0, 55, 0
2, 106938, Note_on_c, 0, 64, 0
2, 106952, Note_on_c, 0, 57, 56
2, 106977, Note_on_c, 0, 65, 58
2, 107020, Note_on_c, 0, 57, 0
2, 107024, Note_on_c, 0, 65, 0
2, 107070, Note_on_c, 0, 53, 59
2, 107074, Note_on_c, 0, 62, 67
2, 107151, Note_on_c, 0, 53, 0
2, 107186, Note_on_c, 0, 69, 68
2, 107204, Note_on_c, 0, 50, 54
2, 107224, Note_on_c, 0, 62, 0
2, 107273, Note_on_c, 0, 50, 0
2, 107282, Note_on_c, 0, 65, 63
2, 107286, Note_on_c, 0, 69, 0
2, 107294, Note_on_c, 0, 53, 59
2, 107384, Note_on_c, 0, 53, 0
2, 107418, Note_on_c, 0, 70, 85
2, 107432, Note_on_c, 0, 55, 62
2, 107501, Note_on_c, 0, 65, 0
2, 107517, Note_on_c, 0, 55, 0
2, 107544, Note_on_c, 0, 53, 61
2, 107648, Note_on_c, 0, 53, 0
2, 107659, Control_c, 0, 64, 20
2, 107670, Note_on_c, 0, 64, 65
2, 107681, Control_c, 0, 64, 28
2, 107681, Note_on_c, 0, 55, 60
2, 107699, Control_c, 0, 64, 36
2, 107718, Control_c, 0, 64, 42
2, 107736, Control_c, 0, 64, 49
2, 107756, Control_c, 0, 64, 55
2, 107771, Note_on_c, 0, 55, 0
2, 107776, Control_c, 0, 64, 58
2, 107794, Control_c, 0, 64, 59
2, 107794, Note_on_c, 0, 52, 62
2, 107812, Control_c, 0, 64, 60
2, 107834, Control_c, 0, 64, 62
2, 107853, Control_c, 0, 64, 65
2, 107872, Control_c, 0, 64, 67
2, 107890, Control_c, 0, 64, 68
2, 107897, Note_on_c, 0, 52, 0
2, 107910, Control_c, 0, 64, 70
2, 107910, Note_on_c, 0, 67, 71
2, 107923, Note_on_c, 0, 49, 57
2, 107928, Control_c, 0, 64, 71
2, 107946, Control_c, 0, 64, 70
2, 107972, Note_on_c, 0, 70, 0
2, 108007, Control_c, 0, 64, 69
2, 108014, Note_on_c, 0, 49, 0
2, 108024, Control_c, 0, 64, 68
2, 108043, Note_on_c, 0, 52, 63
2, 108047, Control_c, 0, 64, 67
2, 108082, Control_c, 0, 64, 66
2, 108100, Control_c, 0, 64, 65
2, 108120, Control_c, 0, 64, 64
2, 108133, Note_on_c, 0, 52, 0
2, 108140, Control_c, 0, 64, 62
2, 108155, Note_on_c, 0, 69, 92
2, 108159, Control_c, 0, 64, 60
2, 108177, Note_on_c, 0, 53, 73
2, 108179, Control_c, 0, 64, 59
2, 108189, Note_on_c, 0, 67, 0
2, 108199, Control_c, 0, 64, 57
2, 108217, Control_c, 0, 64, 56
2, 108237, Control_c, 0, 64, 55
2, 108255, Control_c, 0, 64, 54
2, 108277, Note_on_c, 0, 53, 0
2, 108286, Note_on_c, 0, 52, 72
2, 108294, Control_c, 0, 64, 53
2, 108314, Control_c, 0, 64, 51
2, 108331, Control_c, 0, 64, 50
2, 108350, Control_c, 0, 64, 48
2, 108369, Control_c, 0, 64, 46
2, 108390, Control_c, 0, 64, 45
2, 108401, Note_on_c, 0, 52, 0
2, 108407, Control_c, 0, 64, 44
2, 108407, Note_on_c, 0, 61, 76
2, 108414, Note_on_c, 0, 53, 70
2, 108443, Note_on_c, 0, 64, 0
2, 108510, Note_on_c, 0, 53, 0
2, 108524, Note_on_c, 0, 50, 78
2, 108541, Control_c, 0, 64, 45
2, 108599, Control_c, 0, 64, 46
2, 108621, Control_c, 0, 64, 47
2, 108641, Control_c, 0, 64, 48
2, 108643, Note_on_c, 0, 50, 0
2, 108663, Control_c, 0, 64, 50
2, 108663, Note_on_c, 0, 62, 87
2, 108667, Note_on_c, 0, 47, 69
2, 108678, Control_c, 0, 64, 52
2, 108698, Control_c, 0, 64, 55
2, 108715, Control_c, 0, 64, 57
2, 108735, Control_c, 0, 64, 58
2, 108744, Note_on_c, 0, 69, 0
2, 108755, Control_c, 0, 64, 59
2, 108774, Control_c, 0, 64, 60
2, 108774, Note_on_c, 0, 47, 0
2, 108778, Note_on_c, 0, 50, 73
2, 108835, Note_on_c, 0, 61, 0
2, 108846, Note_on_c, 0, 50, 0
2, 108851, Control_c, 0, 64, 59
2, 108885, Note_on_c, 0, 52, 80
2, 108890, Control_c, 0, 64, 58
2, 108894, Note_on_c, 0, 67, 101
2, 108907, Control_c, 0, 64, 57
2, 108926, Control_c, 0, 64, 56
2, 108967, Control_c, 0, 64, 55
2, 108989, Control_c, 0, 64, 53
2, 108993, Note_on_c, 0, 62, 0
2, 108998, Note_on_c, 0, 52, 0
2, 109002, Note_on_c, 0, 50, 80
2, 109010, Control_c, 0, 64, 51
2, 109025, Control_c, 0, 64, 49
2, 109045, Control_c, 0, 64, 47
2, 109065, Control_c, 0, 64, 46
2, 109131, Note_on_c, 0, 52, 79
2, 109133, Note_on_c, 0, 50, 0
2, 109146, Note_on_c, 0, 61, 87
2, 109179, Control_c, 0, 64, 47
2, 109199, Control_c, 0, 64, 48
2, 109216, Control_c, 0, 64, 49
2, 109242, Note_on_c, 0, 49, 82
2, 109255, Note_on_c, 0, 52, 0
2, 109259, Control_c, 0, 64, 50
2, 109382, Note_on_c, 0, 45, 75
2, 109382, Note_on_c, 0, 49, 0
2, 109394, Note_on_c, 0, 64, 90
2, 109461, Note_on_c, 0, 67, 0
2, 109503, Note_on_c, 0, 49, 82
2, 109516, Note_on_c, 0, 45, 0
2, 109621, Control_c, 0, 64, 49
2, 109630, Note_on_c, 0, 49, 0
2, 109630, Note_on_c, 0, 65, 96
2, 109637, Note_on_c, 0, 50, 78
2, 109642, Control_c, 0, 64, 48
2, 109660, Control_c, 0, 64, 45
2, 109678, Control_c, 0, 64, 36
2, 109683, Note_on_c, 0, 61, 0
2, 109686, Note_on_c, 0, 64, 0
2, 109696, Control_c, 0, 64, 0
2, 109762, Note_on_c, 0, 50, 0
2, 109764, Note_on_c, 0, 49, 80
2, 109856, Note_on_c, 0, 49, 0
2, 109860, Note_on_c, 0, 50, 71
2, 109879, Note_on_c, 0, 57, 80
2, 109948, Note_on_c, 0, 50, 0
2, 109985, Note_on_c, 0, 53, 70
2, 110098, Note_on_c, 0, 53, 0
2, 110118, Note_on_c, 0, 46, 69
2, 110120, Note_on_c, 0, 57, 0
2, 110120, Note_on_c, 0, 62, 76
2, 110192, Note_on_c, 0, 46, 0
2, 110236, Control_c, 0, 67, 8
2, 110239, Note_on_c, 0, 50, 61
2, 110254, Control_c, 0, 64, 20
2, 110273, Control_c, 0, 64, 34
2, 110292, Control_c, 0, 64, 44
2, 110306, Note_on_c, 0, 50, 0
2, 110313, Control_c, 0, 64, 52
2, 110322, Note_on_c, 0, 62, 0
2, 110331, Control_c, 0, 64, 57
2, 110347, Note_on_c, 0, 59, 66
2, 110362, Note_on_c, 0, 44, 63
2, 110410, Control_c, 0, 64, 56
2, 110462, Note_on_c, 0, 44, 0
2, 110498, Note_on_c, 0, 45, 57
2, 110509, Note_on_c, 0, 64, 75
2, 110525, Note_on_c, 0, 59, 0
2, 110530, Note_on_c, 0, 65, 0
2, 110540, Note_on_c, 0, 45, 0
2, 110544, Control_c, 0, 64, 57
2, 110577, Note_on_c, 0, 44, 55
2, 110581, Control_c, 0, 64, 58
2, 110619, Note_on_c, 0, 62, 79
2, 110623, Control_c, 0, 64, 59
2, 110628, Note_on_c, 0, 44, 0
2, 110650, Note_on_c, 0, 45, 67
2, 110681, Note_on_c, 0, 64, 0
2, 110697, Control_c, 0, 64, 58
2, 110708, Note_on_c, 0, 45, 0
2, 110727, Note_on_c, 0, 61, 79
2, 110727, Note_on_c, 0, 62, 0
2, 110731, Note_on_c, 0, 44, 77
2, 110807, Note_on_c, 0, 44, 0
2, 110828, Note_on_c, 0, 45, 75
2, 110845, Note_on_c, 0, 62, 91
2, 110852, Control_c, 0, 64, 57
2, 110852, Note_on_c, 0, 61, 0
2, 110877, Note_on_c, 0, 45, 0
2, 110890, Control_c, 0, 67, 0
2, 110910, Note_on_c, 0, 44, 73
2, 110929, Control_c, 0, 64, 56
2, 110960, Note_on_c, 0, 65, 84
2, 110965, Control_c, 0, 64, 55
2, 110972, Note_on_c, 0, 62, 0
2, 110978, Note_on_c, 0, 44, 0
2, 110983, Note_on_c, 0, 45, 80
2, 111003, Control_c, 0, 64, 54
2, 111021, Control_c, 0, 64, 53
2, 111033, Note_on_c, 0, 45, 0
2, 111043, Control_c, 0, 64, 52
2, 111063, Control_c, 0, 64, 50
2, 111069, Note_on_c, 0, 44, 77
2, 111079, Control_c, 0, 64, 47
2, 111084, Note_on_c, 0, 71, 95
2, 111099, Control_c, 0, 64, 44
2, 111103, Note_on_c, 0, 65, 0
2, 111119, Control_c, 0, 64, 42
2, 111138, Control_c, 0, 64, 41
2, 111151, Note_on_c, 0, 44, 0
2, 111156, Note_on_c, 0, 45, 77
2, 111210, Note_on_c, 0, 65, 89
2, 111223, Note_on_c, 0, 71, 0
2, 111232, Note_on_c, 0, 44, 80
2, 111236, Note_on_c, 0, 45, 0
2, 111309, Note_on_c, 0, 44, 0
2, 111321, Note_on_c, 0, 45, 78
2, 111330, Note_on_c, 0, 64, 91
2, 111334, Note_on_c, 0, 65, 0
2, 111386, Note_on_c, 0, 45, 0
2, 111399, Note_on_c, 0, 44, 77
2, 111452, Note_on_c, 0, 62, 89
2, 111456, Note_on_c, 0, 64, 0
2, 111465, Control_c, 0, 64, 42
2, 111475, Note_on_c, 0, 44, 0
2, 111482, Note_on_c, 0, 45, 81
2, 111486, Control_c, 0, 64, 43
2, 111502, Control_c, 0, 64, 44
2, 111521, Note_on_c, 0, 45, 0
2, 111526, Control_c, 0, 64, 45
2, 111542, Control_c, 0, 64, 47
2, 111555, Note_on_c, 0, 61, 83
2, 111560, Control_c, 0, 64, 49
2, 111560, Note_on_c, 0, 44, 80
2, 111573, Note_on_c, 0, 62, 0
2, 111580, Control_c, 0, 64, 52
2, 111598, Control_c, 0, 64, 55
2, 111619, Control_c, 0, 64, 57
2, 111639, Control_c, 0, 64, 60
2, 111639, Note_on_c, 0, 45, 86
2, 111650, Note_on_c, 0, 44, 0
2, 111657, Control_c, 0, 64, 61
2, 111666, Note_on_c, 0, 59, 94
2, 111671, Note_on_c, 0, 45, 0
2, 111695, Note_on_c, 0, 61, 0
2, 111734, Control_c, 0, 64, 60
2, 111761, Note_on_c, 0, 45, 96
2, 111772, Control_c, 0, 64, 57
2, 111791, Control_c, 0, 64, 48
2, 111807, Note_on_c, 0, 61, 84
2, 111812, Control_c, 0, 64, 26
2, 111816, Note_on_c, 0, 59, 0
2, 111831, Control_c, 0, 64, 0
2, 111928, Note_on_c, 0, 57, 92
2, 111947, Control_c, 0, 64, 25
2, 111947, Note_on_c, 0, 61, 0
2, 111964, Control_c, 0, 64, 39
2, 111981, Control_c, 0, 64, 48
2, 112001, Note_on_c, 0, 57, 0
2, 112005, Control_c, 0, 64, 54
2, 112020, Control_c, 0, 64, 56
2, 112035, Note_on_c, 0, 57, 62
2, 112041, Control_c, 0, 64, 57
2, 112046, Note_on_c, 0, 55, 82
2, 112060, Control_c, 0, 64, 58
2, 112075, Note_on_c, 0, 57, 0
2, 112080, Control_c, 0, 64, 60
2, 112096, Control_c, 0, 64, 63
2, 112119, Control_c, 0, 64, 64
2, 112139, Control_c, 0, 64, 65
2, 112154, Note_on_c, 0, 54, 85
2, 112159, Control_c, 0, 64, 66
2, 112174, Note_on_c, 0, 45, 0
2, 112186, Note_on_c, 0, 55, 0
2, 112212, Control_c, 0, 64, 65
2, 112270, Note_on_c, 0, 52, 90
2, 112285, Note_on_c, 0, 54, 0
2, 112307, Control_c, 0, 64, 64
2, 112367, Control_c, 0, 64, 63
2, 112384, Note_on_c, 0, 50, 90
2, 112398, Note_on_c, 0, 52, 0
2, 112424, Control_c, 0, 64, 62
2, 112445, Control_c, 0, 64, 59
2, 112460, Control_c, 0, 64, 49
2, 112482, Control_c, 0, 64, 0
2, 112503, Note_on_c, 0, 49, 85
2, 112530, Note_on_c, 0, 50, 0
2, 112621, Note_on_c, 0, 47, 92
2, 112657, Note_on_c, 0, 49, 0
2, 112726, Note_on_c, 0, 45, 89
2, 112763, Note_on_c, 0, 47, 0
2, 112836, Note_on_c, 0, 43, 89
2, 112846, Note_on_c, 0, 45, 0
2, 112943, Note_on_c, 0, 42, 88
2, 112965, Note_on_c, 0, 43, 0
2, 113057, Note_on_c, 0, 42, 0
2, 113065, Note_on_c, 0, 40, 75
2, 113203, Note_on_c, 0, 38, 92
2, 113315, Note_on_c, 0, 40, 0
2, 113509, Note_on_c, 0, 50, 89
2, 113604, Note_on_c, 0, 52, 89
2, 113635, Note_on_c, 0, 50, 0
2, 113707, Note_on_c, 0, 54, 86
2, 113747, Note_on_c, 0, 52, 0
2, 113813, Note_on_c, 0, 55, 83
2, 113817, Note_on_c, 0, 54, 0
2, 113931, Note_on_c, 0, 57, 100
2, 113959, Note_on_c, 0, 55, 0
2, 113971, Note_on_c, 0, 57, 0
2, 113981, Note_on_c, 0, 38, 0
2, 114172, Note_on_c, 0, 54, 82
2, 114217, Note_on_c, 0, 54, 0
2, 114408, Note_on_c, 0, 57, 89
2, 114451, Note_on_c, 0, 57, 0
2, 114637, Note_on_c, 0, 62, 97
2, 114681, Note_on_c, 0, 62, 0
2, 114861, Note_on_c, 0, 57, 92
2, 114923, Note_on_c, 0, 57, 0
2, 115083, Note_on_c, 0, 62, 100
2, 115139, Note_on_c, 0, 62, 0
2, 115315, Note_on_c, 0, 66, 103
2, 115367, Note_on_c, 0, 66, 0
2, 115531, Note_on_c, 0, 62, 93
2, 115589, Note_on_c, 0, 62, 0
2, 115762, Note_on_c, 0, 66, 98
2, 115808, Note_on_c, 0, 66, 0
2, 116048, Note_on_c, 0, 69, 94
2, 116164, Control_c, 0, 64, 13
2, 116184, Control_c, 0, 64, 21
2, 116202, Control_c, 0, 64, 28
2, 116222, Control_c, 0, 64, 35
2, 116240, Control_c, 0, 64, 40
2, 116259, Control_c, 0, 64, 45
2, 116281, Control_c, 0, 64, 49
2, 116299, Control_c, 0, 64, 53
2, 116317, Control_c, 0, 64, 57
2, 116338, Control_c, 0, 64, 59
2, 116358, Control_c, 0, 64, 60
2, 116376, Control_c, 0, 64, 62
2, 116396, Control_c, 0, 64, 64
2, 116415, Control_c, 0, 64, 65
2, 116433, Control_c, 0, 64, 69
2, 116451, Control_c, 0, 64, 76
2, 116472, Control_c, 0, 64, 89
2, 116492, Control_c, 0, 64, 106
2, 116510, Control_c, 0, 64, 127
2, 116774, Note_on_c, 0, 69, 0
2, 116840, Control_c, 0, 64, 118
2, 116855, Control_c, 0, 64, 108
2, 116877, Control_c, 0, 64, 101
2, 116894, Control_c, 0, 64, 96
2, 116905, Note_on_c, 0, 69, 73
2, 116909, Note_on_c, 0, 78, 87
2, 116914, Control_c, 0, 64, 90
2, 116934, Control_c, 0, 64, 82
2, 116934, Note_on_c, 0, 50, 41
2, 116952, Control_c, 0, 64, 73
2, 116972, Control_c, 0, 64, 65
2, 116989, Control_c, 0, 64, 59
2, 117011, Control_c, 0, 64, 53
2, 117030, Control_c, 0, 64, 50
2, 117048, Control_c, 0, 64, 49
2, 117066, Control_c, 0, 64, 48
2, 117085, Control_c, 0, 64, 43
2, 117105, Control_c, 0, 64, 37
2, 117123, Control_c, 0, 64, 32
2, 117143, Control_c, 0, 64, 30
2, 117183, Control_c, 0, 64, 32
2, 117201, Control_c, 0, 64, 33
2, 117221, Control_c, 0, 64, 35
2, 117239, Control_c, 0, 64, 38
2, 117259, Control_c, 0, 64, 44
2, 117279, Control_c, 0, 64, 54
2, 117297, Control_c, 0, 64, 61
2, 117317, Control_c, 0, 64, 62
2, 117339, Control_c, 0, 64, 64
2, 117358, Control_c, 0, 64, 67
2, 117375, Control_c, 0, 64, 72
2, 117392, Control_c, 0, 64, 79
2, 117412, Control_c, 0, 64, 86
2, 117431, Control_c, 0, 64, 92
2, 117451, Control_c, 0, 64, 96
2, 117469, Control_c, 0, 64, 100
2, 117492, Note_on_c, 0, 69, 0
2, 117509, Note_on_c, 0, 78, 0
2, 117547, Control_c, 0, 64, 99
2, 117565, Control_c, 0, 64, 97
2, 117584, Control_c, 0, 64, 94
2, 117604, Control_c, 0, 64, 90
2, 117625, Control_c, 0, 64, 87
2, 117644, Control_c, 0, 64, 84
2, 117662, Control_c, 0, 64, 80
2, 117677, Note_on_c, 0, 78, 88
2, 117681, Control_c, 0, 64, 75
2, 117695, Note_on_c, 0, 69, 65
2, 117699, Note_on_c, 0, 57, 61
2, 117703, Control_c, 0, 64, 68
2, 117723, Control_c, 0, 64, 62
2, 117741, Control_c, 0, 64, 57
2, 117758, Control_c, 0, 64, 55
2, 117816, Control_c, 0, 64, 54
2, 117958, Note_on_c, 0, 69, 0
2, 117969, Note_on_c, 0, 50, 0
2, 118084, Note_on_c, 0, 76, 75
2, 118091, Note_on_c, 0, 67, 67
2, 118104, Control_c, 0, 64, 53
2, 118108, Note_on_c, 0, 78, 0
2, 118220, Control_c, 0, 64, 54
2, 118238, Control_c, 0, 64, 56
2, 118258, Control_c, 0, 64, 59
2, 118276, Control_c, 0, 64, 62
2, 118296, Control_c, 0, 64, 64
2, 118335, Note_on_c, 0, 67, 0
2, 118353, Note_on_c, 0, 76, 0
2, 118391, Control_c, 0, 64, 63
2, 118429, Control_c, 0, 64, 62
2, 118469, Control_c, 0, 64, 61
2, 118474, Note_on_c, 0, 45, 55
2, 118476, Note_on_c, 0, 76, 81
2, 118479, Note_on_c, 0, 67, 65
2, 118489, Control_c, 0, 64, 60
2, 118507, Control_c, 0, 64, 59
2, 118528, Control_c, 0, 64, 57
2, 118550, Control_c, 0, 64, 52
2, 118566, Control_c, 0, 64, 47
2, 118585, Control_c, 0, 64, 43
2, 118642, Control_c, 0, 64, 44
2, 118662, Control_c, 0, 64, 45
2, 118683, Control_c, 0, 64, 47
2, 118718, Control_c, 0, 64, 48
2, 118755, Note_on_c, 0, 76, 0
2, 118757, Control_c, 0, 64, 49
2, 118776, Note_on_c, 0, 57, 0
2, 118813, Control_c, 0, 64, 48
2, 118854, Control_c, 0, 64, 47
2, 118854, Note_on_c, 0, 66, 65
2, 118861, Note_on_c, 0, 74, 65
2, 118908, Control_c, 0, 64, 46
2, 118913, Note_on_c, 0, 67, 0
2, 119061, Note_on_c, 0, 74, 0
2, 119081, Note_on_c, 0, 66, 0
2, 119179, Control_c, 0, 64, 45
2, 119199, Control_c, 0, 64, 43
2, 119216, Control_c, 0, 64, 37
2, 119234, Control_c, 0, 64, 26
2, 119245, Note_on_c, 0, 74, 62
2, 119249, Note_on_c, 0, 66, 60
2, 119254, Control_c, 0, 64, 19
2, 119261, Note_on_c, 0, 50, 44
2, 119270, Note_on_c, 0, 45, 0
2, 119277, Control_c, 0, 64, 18
2, 119293, Control_c, 0, 64, 19
2, 119311, Control_c, 0, 64, 24
2, 119330, Control_c, 0, 64, 33
2, 119350, Control_c, 0, 64, 51
2, 119368, Control_c, 0, 64, 65
2, 119388, Control_c, 0, 64, 71
2, 119406, Control_c, 0, 64, 81
2, 119406, Note_on_c, 0, 74, 0
2, 119426, Control_c, 0, 64, 89
2, 119440, Note_on_c, 0, 66, 0
2, 119446, Control_c, 0, 64, 98
2, 119465, Control_c, 0, 64, 101
2, 119484, Control_c, 0, 64, 99
2, 119502, Control_c, 0, 64, 92
2, 119522, Control_c, 0, 64, 84
2, 119542, Control_c, 0, 64, 78
2, 119562, Control_c, 0, 64, 73
2, 119569, Note_on_c, 0, 50, 0
2, 119581, Control_c, 0, 64, 68
2, 119600, Control_c, 0, 64, 63
2, 119600, Note_on_c, 0, 62, 70
2, 119620, Control_c, 0, 64, 58
2, 119638, Control_c, 0, 64, 52
2, 119658, Control_c, 0, 64, 44
2, 119664, Note_on_c, 0, 62, 0
2, 119680, Control_c, 0, 64, 30
2, 119695, Control_c, 0, 64, 0
2, 119695, Note_on_c, 0, 64, 66
2, 119776, Note_on_c, 0, 64, 0
2, 119805, Note_on_c, 0, 66, 59
2, 119844, Note_on_c, 0, 66, 0
2, 119894, Note_on_c, 0, 67, 60
2, 119992, Note_on_c, 0, 67, 0
2, 120001, Note_on_c, 0, 69, 66
2, 120032, Note_on_c, 0, 69, 0
2, 120230, Note_on_c, 0, 66, 64
2, 120249, Note_on_c, 0, 60, 62
2, 120269, Note_on_c, 0, 66, 0
2, 120298, Note_on_c, 0, 60, 0
2, 120353, Note_on_c, 0, 59, 58
2, 120413, Note_on_c, 0, 59, 0
2, 120446, Note_on_c, 0, 57, 68
2, 120453, Note_on_c, 0, 69, 61
2, 120495, Note_on_c, 0, 69, 0
2, 120501, Note_on_c, 0, 57, 0
2, 120556, Note_on_c, 0, 55, 55
2, 120661, Note_on_c, 0, 55, 0
2, 120663, Note_on_c, 0, 72, 85
2, 120674, Note_on_c, 0, 54, 62
2, 120701, Note_on_c, 0, 72, 0
2, 120726, Note_on_c, 0, 54, 0
2, 120897, Note_on_c, 0, 69, 84
2, 120913, Note_on_c, 0, 57, 74
2, 120950, Note_on_c, 0, 69, 0
2, 120952, Note_on_c, 0, 57, 0
2, 121128, Note_on_c, 0, 72, 97
2, 121137, Note_on_c, 0, 54, 75
2, 121171, Note_on_c, 0, 72, 0
2, 121175, Note_on_c, 0, 54, 0
2, 121364, Note_on_c, 0, 50, 76
2, 121364, Note_on_c, 0, 78, 100
2, 121406, Note_on_c, 0, 50, 0
2, 121417, Note_on_c, 0, 78, 0
2, 121594, Note_on_c, 0, 72, 94
2, 121599, Note_on_c, 0, 54, 74
2, 121642, Note_on_c, 0, 54, 0
2, 121647, Note_on_c, 0, 72, 0
2, 121817, Note_on_c, 0, 78, 95
2, 121833, Note_on_c, 0, 50, 75
2, 121856, Note_on_c, 0, 78, 0
2, 121874, Note_on_c, 0, 50, 0
2, 122054, Note_on_c, 0, 45, 77
2, 122059, Note_on_c, 0, 81, 93
2, 122094, Note_on_c, 0, 45, 0
2, 122293, Note_on_c, 0, 50, 81
2, 122346, Note_on_c, 0, 50, 0
2, 122529, Note_on_c, 0, 45, 82
2, 122564, Note_on_c, 0, 45, 0
2, 122766, Note_on_c, 0, 42, 78
2, 122771, Note_on_c, 0, 72, 93
2, 122775, Note_on_c, 0, 69, 81
2, 122809, Note_on_c, 0, 42, 0
2, 122829, Note_on_c, 0, 81, 0
2, 122986, Note_on_c, 0, 45, 71
2, 123023, Note_on_c, 0, 45, 0
2, 123134, Control_c, 0, 64, 16
2, 123150, Control_c, 0, 64, 30
2, 123170, Control_c, 0, 64, 42
2, 123191, Control_c, 0, 64, 55
2, 123209, Control_c, 0, 64, 64
2, 123237, Note_on_c, 0, 42, 72
2, 123248, Control_c, 0, 64, 65
2, 123267, Control_c, 0, 64, 67
2, 123276, Note_on_c, 0, 42, 0
2, 123289, Control_c, 0, 64, 68
2, 123289, Note_on_c, 0, 72, 0
2, 123304, Control_c, 0, 64, 69
2, 123322, Control_c, 0, 64, 68
2, 123343, Control_c, 0, 64, 67
2, 123354, Note_on_c, 0, 69, 0
2, 123381, Control_c, 0, 64, 66
2, 123401, Control_c, 0, 64, 65
2, 123440, Control_c, 0, 64, 64
2, 123459, Control_c, 0, 64, 62
2, 123481, Control_c, 0, 64, 59
2, 123496, Note_on_c, 0, 69, 75
2, 123496, Note_on_c, 0, 72, 80
2, 123501, Control_c, 0, 64, 55
2, 123501, Note_on_c, 0, 38, 66
2, 123516, Control_c, 0, 64, 50
2, 123535, Control_c, 0, 64, 44
2, 123555, Control_c, 0, 64, 40
2, 123575, Control_c, 0, 64, 36
2, 123592, Control_c, 0, 64, 35
2, 123612, Control_c, 0, 64, 33
2, 123630, Control_c, 0, 64, 30
2, 123650, Control_c, 0, 64, 26
2, 123670, Control_c, 0, 64, 22
2, 123688, Control_c, 0, 64, 19
2, 123708, Control_c, 0, 64, 18
2, 123728, Control_c, 0, 64, 17
2, 123746, Control_c, 0, 64, 16
2, 123768, Control_c, 0, 64, 15
2, 123785, Control_c, 0, 64, 14
2, 123804, Control_c, 0, 64, 13
2, 123888, Note_on_c, 0, 71, 73
2, 123899, Note_on_c, 0, 67, 66
2, 123917, Note_on_c, 0, 72, 0
2, 123944, Note_on_c, 0, 69, 0
2, 123957, Control_c, 0, 64, 16
2, 123976, Control_c, 0, 64, 19
2, 123998, Control_c, 0, 64, 23
2, 124015, Control_c, 0, 64, 28
2, 124033, Control_c, 0, 64, 34
2, 124052, Control_c, 0, 64, 40
2, 124072, Control_c, 0, 64, 47
2, 124093, Control_c, 0, 64, 53
2, 124111, Control_c, 0, 64, 55
2, 124143, Note_on_c, 0, 67, 0
2, 124143, Note_on_c, 0, 71, 0
2, 124189, Control_c, 0, 64, 54
2, 124225, Control_c, 0, 64, 53
2, 124245, Control_c, 0, 64, 52
2, 124265, Control_c, 0, 64, 51
2, 124265, Note_on_c, 0, 50, 57
2, 124269, Note_on_c, 0, 71, 72
2, 124276, Note_on_c, 0, 67, 66
2, 124287, Control_c, 0, 64, 50
2, 124303, Control_c, 0, 64, 49
2, 124323, Control_c, 0, 64, 48
2, 124343, Control_c, 0, 64, 46
2, 124361, Control_c, 0, 64, 44
2, 124380, Control_c, 0, 64, 42
2, 124385, Note_on_c, 0, 38, 0
2, 124400, Control_c, 0, 64, 40
2, 124437, Control_c, 0, 64, 39
2, 124455, Control_c, 0, 64, 38
2, 124475, Control_c, 0, 64, 37
2, 124495, Control_c, 0, 64, 36
2, 124514, Control_c, 0, 64, 35
2, 124659, Note_on_c, 0, 67, 0
2, 124666, Note_on_c, 0, 69, 60
2, 124671, Control_c, 0, 64, 36
2, 124677, Note_on_c, 0, 66, 58
2, 124682, Note_on_c, 0, 71, 0
2, 124686, Control_c, 0, 64, 37
2, 124707, Control_c, 0, 64, 39
2, 124727, Control_c, 0, 64, 42
2, 124747, Control_c, 0, 64, 44
2, 124764, Control_c, 0, 64, 48
2, 124783, Control_c, 0, 64, 52
2, 124803, Control_c, 0, 64, 55
2, 124820, Control_c, 0, 64, 56
2, 124873, Note_on_c, 0, 66, 0
2, 124899, Note_on_c, 0, 69, 0
2, 124917, Control_c, 0, 64, 55
2, 124974, Control_c, 0, 64, 53
2, 124993, Control_c, 0, 64, 50
2, 125013, Control_c, 0, 64, 44
2, 125027, Note_on_c, 0, 43, 48
2, 125036, Control_c, 0, 64, 34
2, 125051, Control_c, 0, 64, 29
2, 125056, Note_on_c, 0, 67, 59
2, 125060, Note_on_c, 0, 50, 0
2, 125073, Control_c, 0, 64, 32
2, 125082, Note_on_c, 0, 71, 58
2, 125092, Control_c, 0, 64, 40
2, 125110, Control_c, 0, 64, 52
2, 125131, Control_c, 0, 64, 62
2, 125131, Note_on_c, 0, 67, 0
2, 125149, Control_c, 0, 64, 65
2, 125168, Control_c, 0, 64, 68
2, 125186, Control_c, 0, 64, 70
2, 125206, Control_c, 0, 64, 72
2, 125228, Note_on_c, 0, 71, 0
2, 125246, Control_c, 0, 64, 71
2, 125262, Control_c, 0, 64, 69
2, 125282, Control_c, 0, 64, 67
2, 125321, Control_c, 0, 64, 66
2, 125343, Control_c, 0, 64, 65
2, 125343, Note_on_c, 0, 83, 80
2, 125359, Control_c, 0, 64, 63
2, 125378, Control_c, 0, 64, 60
2, 125397, Control_c, 0, 64, 55
2, 125419, Control_c, 0, 64, 49
2, 125435, Control_c, 0, 64, 41
2, 125439, Note_on_c, 0, 81, 84
2, 125455, Control_c, 0, 64, 23
2, 125474, Control_c, 0, 64, 0
2, 125490, Note_on_c, 0, 83, 0
2, 125545, Note_on_c, 0, 50, 71
2, 125545, Note_on_c, 0, 79, 92
2, 125550, Note_on_c, 0, 43, 0
2, 125579, Note_on_c, 0, 50, 0
2, 125585, Note_on_c, 0, 81, 0
2, 125649, Note_on_c, 0, 78, 95
2, 125686, Note_on_c, 0, 79, 0
2, 125763, Note_on_c, 0, 76, 95
2, 125777, Note_on_c, 0, 55, 74
2, 125796, Note_on_c, 0, 78, 0
2, 125811, Note_on_c, 0, 76, 0
2, 126005, Note_on_c, 0, 79, 93
2, 126035, Note_on_c, 0, 55, 0
2, 126047, Note_on_c, 0, 79, 0
2, 126229, Note_on_c, 0, 76, 90
2, 126241, Note_on_c, 0, 55, 74
2, 126274, Note_on_c, 0, 55, 0
2, 126278, Note_on_c, 0, 76, 0
2, 126491, Note_on_c, 0, 55, 61
2, 126500, Note_on_c, 0, 73, 82
2, 126511, Control_c, 0, 64, 22
2, 126533, Control_c, 0, 64, 51
2, 126550, Control_c, 0, 64, 70
2, 126569, Note_on_c, 0, 73, 0
2, 126574, Control_c, 0, 64, 90
2, 126587, Control_c, 0, 64, 127
2, 126683, Note_on_c, 0, 55, 0
2, 126773, Note_on_c, 0, 57, 78
2, 126800, Control_c, 0, 64, 116
2, 126820, Control_c, 0, 64, 87
2, 126840, Control_c, 0, 64, 70
2, 126858, Control_c, 0, 64, 60
2, 126862, Note_on_c, 0, 57, 0
2, 126866, Note_on_c, 0, 59, 79
2, 126877, Control_c, 0, 64, 49
2, 126895, Control_c, 0, 64, 38
2, 126915, Control_c, 0, 64, 30
2, 126933, Control_c, 0, 64, 24
2, 126955, Control_c, 0, 64, 15
2, 126973, Control_c, 0, 64, 0
2, 126977, Note_on_c, 0, 59, 0
2, 126982, Note_on_c, 0, 61, 67
2, 127065, Note_on_c, 0, 61, 0
2, 127083, Note_on_c, 0, 62, 70
2, 127196, Note_on_c, 0, 64, 80
2, 127200, Note_on_c, 0, 62, 0
2, 127228, Note_on_c, 0, 64, 0
2, 127435, Note_on_c, 0, 61, 70
2, 127439, Note_on_c, 0, 45, 65
2, 127468, Note_on_c, 0, 61, 0
2, 127491, Note_on_c, 0, 45, 0
2, 127535, Note_on_c, 0, 43, 66
2, 127627, Note_on_c, 0, 43, 0
2, 127638, Note_on_c, 0, 42, 71
2, 127644, Note_on_c, 0, 64, 83
2, 127694, Note_on_c, 0, 64, 0
2, 127723, Note_on_c, 0, 42, 0
2, 127752, Note_on_c, 0, 40, 61
2, 127887, Note_on_c, 0, 40, 0
2, 127887, Note_on_c, 0, 42, 67
2, 127906, Note_on_c, 0, 69, 76
2, 127953, Control_c, 0, 64, 13
2, 127970, Control_c, 0, 64, 29
2, 127990, Control_c, 0, 64, 38
2, 128008, Control_c, 0, 64, 43
2, 128026, Control_c, 0, 64, 46
2, 128045, Control_c, 0, 64, 47
2, 128086, Control_c, 0, 64, 46
2, 128124, Control_c, 0, 64, 45
2, 128144, Control_c, 0, 64, 44
2, 128155, Note_on_c, 0, 81, 82
2, 128162, Control_c, 0, 64, 42
2, 128182, Control_c, 0, 64, 40
2, 128182, Note_on_c, 0, 69, 0
2, 128200, Control_c, 0, 64, 37
2, 128221, Control_c, 0, 64, 28
2, 128238, Control_c, 0, 64, 0
2, 128257, Note_on_c, 0, 79, 78
2, 128369, Note_on_c, 0, 81, 0
2, 128373, Note_on_c, 0, 78, 94
2, 128384, Note_on_c, 0, 54, 68
2, 128395, Note_on_c, 0, 42, 0
2, 128418, Note_on_c, 0, 54, 0
2, 128447, Note_on_c, 0, 79, 0
2, 128485, Note_on_c, 0, 76, 93
2, 128543, Note_on_c, 0, 78, 0
2, 128607, Note_on_c, 0, 74, 88
2, 128613, Note_on_c, 0, 76, 0
2, 128635, Note_on_c, 0, 54, 69
2, 128652, Note_on_c, 0, 74, 0
2, 128852, Note_on_c, 0, 78, 85
2, 128895, Note_on_c, 0, 78, 0
2, 128900, Note_on_c, 0, 54, 0
2, 129091, Note_on_c, 0, 74, 83
2, 129121, Note_on_c, 0, 54, 60
2, 129134, Note_on_c, 0, 74, 0
2, 129148, Note_on_c, 0, 54, 0
2, 129353, Note_on_c, 0, 54, 58
2, 129357, Note_on_c, 0, 71, 77
2, 129374, Control_c, 0, 64, 21
2, 129390, Control_c, 0, 64, 50
2, 129410, Control_c, 0, 64, 68
2, 129432, Control_c, 0, 64, 76
2, 129432, Note_on_c, 0, 71, 0
2, 129454, Control_c, 0, 64, 91
2, 129468, Control_c, 0, 64, 98
2, 129488, Control_c, 0, 64, 109
2, 129508, Control_c, 0, 64, 115
2, 129528, Control_c, 0, 64, 113
2, 129546, Control_c, 0, 64, 105
2, 129570, Control_c, 0, 64, 102
2, 129570, Note_on_c, 0, 54, 0
2, 129588, Control_c, 0, 64, 100
2, 129607, Control_c, 0, 64, 98
2, 129623, Control_c, 0, 64, 93
2, 129627, Note_on_c, 0, 55, 78
2, 129645, Control_c, 0, 64, 86
2, 129662, Control_c, 0, 64, 78
2, 129684, Control_c, 0, 64, 70
2, 129700, Control_c, 0, 64, 64
2, 129721, Control_c, 0, 64, 59
2, 129725, Note_on_c, 0, 57, 89
2, 129739, Control_c, 0, 64, 54
2, 129755, Note_on_c, 0, 55, 0
2, 129759, Control_c, 0, 64, 51
2, 129778, Control_c, 0, 64, 47
2, 129796, Control_c, 0, 64, 42
2, 129815, Control_c, 0, 64, 28
2, 129833, Note_on_c, 0, 59, 86
2, 129838, Control_c, 0, 64, 0
2, 129875, Note_on_c, 0, 57, 0
2, 129929, Note_on_c, 0, 61, 77
2, 129971, Note_on_c, 0, 59, 0
2, 130061, Note_on_c, 0, 62, 95
2, 130099, Note_on_c, 0, 61, 0
2, 130312, Note_on_c, 0, 43, 83
2, 130312, Note_on_c, 0, 59, 81
2, 130325, Note_on_c, 0, 62, 0
2, 130341, Note_on_c, 0, 59, 0
2, 130411, Note_on_c, 0, 42, 86
2, 130420, Note_on_c, 0, 43, 0
2, 130530, Note_on_c, 0, 62, 86
2, 130539, Note_on_c, 0, 40, 80
2, 130553, Note_on_c, 0, 42, 0
2, 130573, Note_on_c, 0, 62, 0
2, 130640, Note_on_c, 0, 38, 86
2, 130645, Note_on_c, 0, 40, 0
2, 130779, Note_on_c, 0, 67, 94
2, 130783, Note_on_c, 0, 40, 77
2, 130794, Note_on_c, 0, 38, 0
2, 130890, Control_c, 0, 64, 18
2, 130903, Note_on_c, 0, 40, 0
2, 130909, Control_c, 0, 64, 30
2, 130929, Control_c, 0, 64, 43
2, 130949, Control_c, 0, 64, 49
2, 130968, Control_c, 0, 64, 48
2, 130988, Control_c, 0, 64, 47
2, 131025, Control_c, 0, 64, 46
2, 131046, Control_c, 0, 64, 45
2, 131049, Note_on_c, 0, 59, 83
2, 131064, Control_c, 0, 64, 44
2, 131123, Control_c, 0, 64, 45
2, 131141, Control_c, 0, 64, 46
2, 131147, Note_on_c, 0, 57, 83
2, 131162, Control_c, 0, 64, 48
2, 131162, Note_on_c, 0, 59, 0
2, 131179, Control_c, 0, 64, 49
2, 131199, Control_c, 0, 64, 53
2, 131214, Control_c, 0, 64, 58
2, 131234, Control_c, 0, 64, 60
2, 131261, Note_on_c, 0, 55, 88
2, 131261, Note_on_c, 0, 71, 85
2, 131263, Note_on_c, 0, 57, 0
2, 131274, Note_on_c, 0, 65, 62
2, 131275, Note_on_c, 0, 65, 0
2, 131320, Note_on_c, 0, 67, 0
2, 131325, Note_on_c, 0, 71, 0
2, 131331, Control_c, 0, 64, 59
2, 131361, Note_on_c, 0, 54, 81
2, 131367, Note_on_c, 0, 55, 0
2, 131427, Control_c, 0, 64, 58
2, 131463, Control_c, 0, 64, 57
2, 131483, Control_c, 0, 64, 56
2, 131498, Note_on_c, 0, 52, 84
2, 131505, Note_on_c, 0, 71, 92
2, 131509, Note_on_c, 0, 67, 78
2, 131518, Note_on_c, 0, 54, 0
2, 131523, Control_c, 0, 64, 55
2, 131560, Control_c, 0, 64, 53
2, 131574, Note_on_c, 0, 52, 0
2, 131582, Control_c, 0, 64, 49
2, 131599, Control_c, 0, 64, 39
2, 131619, Control_c, 0, 64, 25
2, 131639, Control_c, 0, 64, 16
2, 131696, Control_c, 0, 64, 18
2, 131716, Control_c, 0, 64, 21
2, 131735, Control_c, 0, 64, 26
2, 131754, Control_c, 0, 64, 32
2, 131758, Note_on_c, 0, 55, 83
2, 131772, Control_c, 0, 64, 38
2, 131791, Control_c, 0, 64, 49
2, 131811, Control_c, 0, 64, 58
2, 131830, Control_c, 0, 64, 60
2, 131839, Note_on_c, 0, 55, 0
2, 131877, Note_on_c, 0, 67, 0
2, 131888, Control_c, 0, 64, 61
2, 131909, Note_on_c, 0, 71, 0
2, 131925, Control_c, 0, 64, 60
2, 131985, Control_c, 0, 64, 59
2, 131985, Note_on_c, 0, 52, 83
2, 131991, Note_on_c, 0, 67, 91
2, 131996, Note_on_c, 0, 71, 93
2, 132002, Control_c, 0, 64, 58
2, 132023, Control_c, 0, 64, 57
2, 132041, Control_c, 0, 64, 56
2, 132048, Note_on_c, 0, 52, 0
2, 132081, Control_c, 0, 64, 54
2, 132099, Control_c, 0, 64, 52
2, 132119, Control_c, 0, 64, 47
2, 132138, Control_c, 0, 64, 40
2, 132138, Note_on_c, 0, 67, 0
2, 132159, Control_c, 0, 64, 30
2, 132177, Control_c, 0, 64, 20
2, 132194, Control_c, 0, 64, 0
2, 132246, Note_on_c, 0, 49, 91
2, 132251, Note_on_c, 0, 69, 87
2, 132255, Note_on_c, 0, 67, 84
2, 132286, Note_on_c, 0, 49, 0
2, 132298, Note_on_c, 0, 71, 0
2, 132495, Note_on_c, 0, 52, 84
2, 132530, Note_on_c, 0, 52, 0
2, 132724, Note_on_c, 0, 49, 75
2, 132770, Note_on_c, 0, 49, 0
2, 132975, Note_on_c, 0, 45, 81
2, 133015, Note_on_c, 0, 45, 0
2, 133148, Note_on_c, 0, 69, 0
2, 133219, Note_on_c, 0, 49, 65
2, 133230, Note_on_c, 0, 67, 0
2, 133266, Note_on_c, 0, 49, 0
2, 133267, Note_on_c, 0, 69, 42
2, 133354, Note_on_c, 0, 67, 65
2, 133369, Note_on_c, 0, 69, 0
2, 133434, Note_on_c, 0, 67, 0
2, 133447, Note_on_c, 0, 45, 56
2, 133447, Note_on_c, 0, 66, 68
2, 133487, Note_on_c, 0, 45, 0
2, 133511, Note_on_c, 0, 66, 0
2, 133548, Note_on_c, 0, 64, 63
2, 133675, Note_on_c, 0, 66, 68
2, 133683, Note_on_c, 0, 50, 58
2, 133694, Note_on_c, 0, 64, 0
2, 133725, Note_on_c, 0, 50, 0
2, 133913, Note_on_c, 0, 66, 0
2, 133920, Note_on_c, 0, 54, 65
2, 133920, Note_on_c, 0, 62, 68
2, 133959, Note_on_c, 0, 54, 0
2, 133986, Note_on_c, 0, 62, 0
2, 134024, Note_on_c, 0, 64, 66
2, 134104, Note_on_c, 0, 64, 0
2, 134131, Note_on_c, 0, 66, 64
2, 134139, Note_on_c, 0, 50, 50
2, 134177, Note_on_c, 0, 50, 0
2, 134186, Note_on_c, 0, 66, 0
2, 134230, Note_on_c, 0, 67, 66
2, 134363, Note_on_c, 0, 74, 82
2, 134368, Note_on_c, 0, 67, 0
2, 134372, Note_on_c, 0, 47, 52
2, 134390, Note_on_c, 0, 69, 63
2, 134419, Note_on_c, 0, 47, 0
2, 134572, Note_on_c, 0, 69, 0
2, 134621, Note_on_c, 0, 50, 58
2, 134626, Note_on_c, 0, 67, 65
2, 134662, Note_on_c, 0, 50, 0
2, 134700, Note_on_c, 0, 67, 0
2, 134733, Note_on_c, 0, 66, 61
2, 134839, Note_on_c, 0, 64, 70
2, 134844, Note_on_c, 0, 74, 0
2, 134853, Note_on_c, 0, 47, 61
2, 134882, Note_on_c, 0, 66, 0
2, 134895, Note_on_c, 0, 47, 0
2, 134951, Note_on_c, 0, 64, 0
2, 134966, Note_on_c, 0, 62, 67
2, 135085, Note_on_c, 0, 52, 75
2, 135085, Note_on_c, 0, 71, 96
2, 135108, Note_on_c, 0, 62, 0
2, 135114, Note_on_c, 0, 67, 74
2, 135123, Note_on_c, 0, 52, 0
2, 135327, Note_on_c, 0, 67, 0
2, 135341, Note_on_c, 0, 55, 75
2, 135341, Note_on_c, 0, 64, 82
2, 135378, Note_on_c, 0, 55, 0
2, 135449, Note_on_c, 0, 64, 0
2, 135449, Note_on_c, 0, 66, 82
2, 135549, Note_on_c, 0, 52, 71
2, 135569, Note_on_c, 0, 67, 86
2, 135578, Note_on_c, 0, 71, 0
2, 135588, Note_on_c, 0, 66, 0
2, 135593, Note_on_c, 0, 52, 0
2, 135674, Note_on_c, 0, 69, 90
2, 135692, Note_on_c, 0, 67, 0
2, 135793, Note_on_c, 0, 49, 73
2, 135797, Note_on_c, 0, 76, 101
2, 135815, Note_on_c, 0, 71, 85
2, 135828, Note_on_c, 0, 69, 0
2, 135855, Note_on_c, 0, 49, 0
2, 136064, Note_on_c, 0, 69, 81
2, 136073, Note_on_c, 0, 52, 66
2, 136077, Note_on_c, 0, 71, 0
2, 136118, Note_on_c, 0, 52, 0
2, 136158, Note_on_c, 0, 69, 0
2, 136169, Note_on_c, 0, 67, 82
2, 136268, Note_on_c, 0, 49, 58
2, 136291, Note_on_c, 0, 66, 82
2, 136299, Note_on_c, 0, 67, 0
2, 136312, Note_on_c, 0, 49, 0
2, 136401, Note_on_c, 0, 66, 0
2, 136405, Note_on_c, 0, 64, 83
2, 136533, Note_on_c, 0, 54, 69
2, 136533, Note_on_c, 0, 69, 79
2, 136596, Note_on_c, 0, 64, 0
2, 136688, Control_c, 0, 64, 20
2, 136708, Control_c, 0, 64, 45
2, 136708, Note_on_c, 0, 54, 0
2, 136724, Control_c, 0, 64, 52
2, 136764, Control_c, 0, 64, 51
2, 136773, Note_on_c, 0, 50, 78
2, 136803, Control_c, 0, 64, 50
2, 136820, Control_c, 0, 64, 49
2, 136839, Control_c, 0, 64, 47
2, 136862, Control_c, 0, 64, 45
2, 136879, Control_c, 0, 64, 41
2, 136883, Note_on_c, 0, 52, 80
2, 136887, Note_on_c, 0, 50, 0
2, 136899, Control_c, 0, 64, 37
2, 136917, Control_c, 0, 64, 33
2, 136936, Control_c, 0, 64, 29
2, 136956, Control_c, 0, 64, 25
2, 136973, Control_c, 0, 64, 19
2, 136978, Note_on_c, 0, 76, 0
2, 136983, Note_on_c, 0, 67, 80
2, 136996, Control_c, 0, 64, 13
2, 136996, Note_on_c, 0, 54, 85
2, 137005, Note_on_c, 0, 52, 0
2, 137017, Control_c, 0, 64, 10
2, 137033, Control_c, 0, 64, 8
2, 137050, Control_c, 0, 64, 0
2, 137054, Note_on_c, 0, 69, 0
2, 137096, Note_on_c, 0, 54, 0
2, 137096, Note_on_c, 0, 55, 83
2, 137227, Note_on_c, 0, 57, 79
2, 137238, Note_on_c, 0, 66, 88
2, 137243, Note_on_c, 0, 55, 0
2, 137243, Note_on_c, 0, 74, 94
2, 137301, Control_c, 0, 64, 8
2, 137315, Note_on_c, 0, 67, 0
2, 137323, Control_c, 0, 64, 13
2, 137340, Control_c, 0, 64, 18
2, 137361, Control_c, 0, 64, 23
2, 137378, Control_c, 0, 64, 26
2, 137378, Note_on_c, 0, 57, 0
2, 137398, Control_c, 0, 64, 28
2, 137417, Control_c, 0, 64, 29
2, 137493, Control_c, 0, 64, 28
2, 137500, Note_on_c, 0, 55, 76
2, 137512, Control_c, 0, 64, 26
2, 137531, Control_c, 0, 64, 24
2, 137553, Control_c, 0, 64, 23
2, 137569, Control_c, 0, 64, 21
2, 137590, Control_c, 0, 64, 18
2, 137598, Note_on_c, 0, 55, 0
2, 137609, Control_c, 0, 64, 8
2, 137613, Note_on_c, 0, 54, 71
2, 137629, Control_c, 0, 64, 0
2, 137702, Note_on_c, 0, 54, 0
2, 137729, Note_on_c, 0, 52, 68
2, 137729, Note_on_c, 0, 72, 80
2, 137809, Note_on_c, 0, 52, 0
2, 137818, Note_on_c, 0, 74, 0
2, 137824, Note_on_c, 0, 50, 65
2, 137976, Note_on_c, 0, 50, 0
2, 137978, Note_on_c, 0, 71, 79
2, 137983, Note_on_c, 0, 55, 67
2, 138038, Note_on_c, 0, 72, 0
2, 138099, Note_on_c, 0, 55, 0
2, 138241, Note_on_c, 0, 52, 59
2, 138320, Note_on_c, 0, 52, 0
2, 138337, Note_on_c, 0, 54, 63
2, 138432, Note_on_c, 0, 54, 0
2, 138460, Note_on_c, 0, 55, 61
2, 138478, Note_on_c, 0, 69, 64
2, 138487, Note_on_c, 0, 71, 0
2, 138538, Note_on_c, 0, 55, 0
2, 138586, Note_on_c, 0, 57, 59
2, 138705, Note_on_c, 0, 67, 65
2, 138719, Note_on_c, 0, 69, 0
2, 138724, Note_on_c, 0, 64, 61
2, 138728, Note_on_c, 0, 57, 0
2, 138728, Note_on_c, 0, 59, 64
2, 138766, Note_on_c, 0, 66, 0
2, 138812, Note_on_c, 0, 59, 0
2, 138994, Note_on_c, 0, 57, 63
2, 139053, Note_on_c, 0, 57, 0
2, 139100, Note_on_c, 0, 55, 56
2, 139173, Note_on_c, 0, 55, 0
2, 139182, Note_on_c, 0, 67, 0
2, 139195, Note_on_c, 0, 64, 0
2, 139208, Note_on_c, 0, 62, 55
2, 139215, Note_on_c, 0, 54, 65
2, 139274, Note_on_c, 0, 54, 0
2, 139320, Note_on_c, 0, 52, 59
2, 139416, Note_on_c, 0, 52, 0
2, 139441, Note_on_c, 0, 62, 0
2, 139461, Note_on_c, 0, 61, 56
2, 139468, Note_on_c, 0, 57, 65
2, 139529, Control_c, 0, 64, 42
2, 139548, Control_c, 0, 64, 60
2, 139567, Control_c, 0, 64, 64
2, 139573, Note_on_c, 0, 57, 0
2, 139682, Control_c, 0, 64, 63
2, 139714, Note_on_c, 0, 61, 0
2, 139721, Control_c, 0, 64, 62
2, 139730, Note_on_c, 0, 57, 61
2, 139761, Control_c, 0, 64, 61
2, 139782, Control_c, 0, 64, 60
2, 139782, Note_on_c, 0, 57, 0
2, 139798, Control_c, 0, 64, 58
2, 139816, Control_c, 0, 64, 55
2, 139825, Note_on_c, 0, 59, 62
2, 139837, Control_c, 0, 64, 51
2, 139855, Control_c, 0, 64, 46
2, 139873, Control_c, 0, 64, 40
2, 139895, Control_c, 0, 64, 35
2, 139915, Control_c, 0, 64, 32
2, 139915, Note_on_c, 0, 59, 0
2, 139919, Note_on_c, 0, 45, 65
2, 139935, Control_c, 0, 64, 30
2, 139935, Note_on_c, 0, 61, 65
2, 139949, Note_on_c, 0, 45, 0
2, 140005, Note_on_c, 0, 61, 0
2, 140042, Note_on_c, 0, 62, 73
2, 140087, Note_on_c, 0, 62, 0
2, 140163, Control_c, 0, 64, 31
2, 140174, Note_on_c, 0, 67, 74
2, 140176, Note_on_c, 0, 45, 65
2, 140181, Control_c, 0, 64, 33
2, 140185, Note_on_c, 0, 64, 67
2, 140200, Control_c, 0, 64, 35
2, 140220, Control_c, 0, 64, 37
2, 140238, Control_c, 0, 64, 41
2, 140248, Note_on_c, 0, 64, 0
2, 140256, Control_c, 0, 64, 48
2, 140278, Control_c, 0, 64, 60
2, 140298, Control_c, 0, 64, 65
2, 140334, Control_c, 0, 64, 66
2, 140353, Control_c, 0, 64, 67
2, 140394, Control_c, 0, 64, 66
2, 140394, Note_on_c, 0, 45, 0
2, 140411, Control_c, 0, 64, 65
2, 140424, Note_on_c, 0, 61, 74
2, 140458, Note_on_c, 0, 61, 0
2, 140471, Control_c, 0, 64, 64
2, 140528, Control_c, 0, 64, 63
2, 140544, Control_c, 0, 64, 62
2, 140564, Control_c, 0, 64, 60
2, 140584, Control_c, 0, 64, 58
2, 140607, Control_c, 0, 64, 56
2, 140622, Control_c, 0, 64, 53
2, 140644, Control_c, 0, 64, 50
2, 140663, Control_c, 0, 64, 45
2, 140663, Note_on_c, 0, 45, 78
2, 140671, Note_on_c, 0, 64, 84
2, 140671, Note_on_c, 0, 67, 0
2, 140679, Control_c, 0, 64, 39
2, 140699, Note_on_c, 0, 45, 0
2, 140704, Control_c, 0, 64, 32
2, 140719, Control_c, 0, 64, 29
2, 140921, Note_on_c, 0, 73, 97
2, 140932, Note_on_c, 0, 67, 78
2, 140934, Note_on_c, 0, 45, 78
2, 140973, Note_on_c, 0, 64, 0
2, 141026, Control_c, 0, 64, 28
2, 141162, Note_on_c, 0, 67, 0
2, 141170, Note_on_c, 0, 64, 79
2, 141234, Note_on_c, 0, 64, 0
2, 141239, Control_c, 0, 64, 29
2, 141296, Control_c, 0, 64, 30
2, 141334, Control_c, 0, 64, 31
2, 141351, Control_c, 0, 64, 32
2, 141371, Control_c, 0, 64, 33
2, 141391, Control_c, 0, 64, 35
2, 141404, Note_on_c, 0, 67, 88
2, 141414, Control_c, 0, 64, 36
2, 141428, Control_c, 0, 64, 37
2, 141450, Control_c, 0, 64, 38
2, 141468, Control_c, 0, 64, 40
2, 141474, Note_on_c, 0, 73, 0
2, 141487, Control_c, 0, 64, 43
2, 141505, Control_c, 0, 64, 50
2, 141525, Control_c, 0, 64, 57
2, 141547, Control_c, 0, 64, 58
2, 141664, Note_on_c, 0, 76, 102
2, 141686, Note_on_c, 0, 73, 77
2, 141697, Control_c, 0, 64, 57
2, 141750, Note_on_c, 0, 67, 0
2, 141757, Control_c, 0, 64, 56
2, 141797, Control_c, 0, 64, 55
2, 141832, Control_c, 0, 64, 54
2, 141869, Control_c, 0, 64, 53
2, 141890, Control_c, 0, 64, 52
2, 141909, Control_c, 0, 64, 51
2, 141909, Note_on_c, 0, 73, 0
2, 141922, Note_on_c, 0, 67, 79
2, 141927, Control_c, 0, 64, 49
2, 141949, Control_c, 0, 64, 46
2, 141966, Control_c, 0, 64, 43
2, 141966, Note_on_c, 0, 67, 0
2, 141986, Control_c, 0, 64, 38
2, 142005, Control_c, 0, 64, 34
2, 142024, Control_c, 0, 64, 32
2, 142041, Note_on_c, 0, 52, 89
2, 142046, Control_c, 0, 64, 31
2, 142051, Note_on_c, 0, 45, 0
2, 142085, Control_c, 0, 64, 30
2, 142149, Note_on_c, 0, 54, 88
2, 142156, Note_on_c, 0, 52, 0
2, 142156, Note_on_c, 0, 73, 78
2, 142194, Note_on_c, 0, 73, 0
2, 142199, Control_c, 0, 64, 29
2, 142256, Note_on_c, 0, 55, 90
2, 142265, Note_on_c, 0, 54, 0
2, 142311, Control_c, 0, 64, 28
2, 142390, Note_on_c, 0, 57, 92
2, 142394, Note_on_c, 0, 66, 88
2, 142408, Note_on_c, 0, 55, 0
2, 142412, Note_on_c, 0, 76, 0
2, 142428, Control_c, 0, 64, 27
2, 142670, Note_on_c, 0, 74, 85
2, 142718, Control_c, 0, 64, 28
2, 142734, Control_c, 0, 64, 30
2, 142756, Control_c, 0, 64, 32
2, 142773, Control_c, 0, 64, 33
2, 142785, Note_on_c, 0, 73, 75
2, 142812, Control_c, 0, 64, 34
2, 142869, Note_on_c, 0, 74, 0
2, 142875, Note_on_c, 0, 57, 0
2, 142880, Note_on_c, 0, 45, 66
2, 142882, Note_on_c, 0, 71, 77
2, 142925, Note_on_c, 0, 45, 0
2, 142965, Control_c, 0, 64, 33
2, 142991, Note_on_c, 0, 69, 74
2, 142991, Note_on_c, 0, 71, 0
2, 142991, Note_on_c, 0, 73, 0
2, 143009, Control_c, 0, 64, 32
2, 143009, Note_on_c, 0, 66, 0
2, 143020, Note_on_c, 0, 69, 0
2, 143025, Control_c, 0, 64, 31
2, 143041, Control_c, 0, 64, 29
2, 143062, Control_c, 0, 64, 22
2, 143082, Control_c, 0, 64, 0
2, 143113, Note_on_c, 0, 62, 88
2, 143121, Note_on_c, 0, 68, 74
2, 143126, Note_on_c, 0, 45, 62
2, 143155, Note_on_c, 0, 68, 0
2, 143358, Note_on_c, 0, 71, 80
2, 143405, Note_on_c, 0, 45, 0
2, 143433, Note_on_c, 0, 71, 0
2, 143599, Note_on_c, 0, 68, 78
2, 143616, Note_on_c, 0, 45, 62
2, 143641, Note_on_c, 0, 68, 0
2, 143645, Note_on_c, 0, 62, 0
2, 143659, Note_on_c, 0, 45, 0
2, 143841, Note_on_c, 0, 62, 72
2, 143850, Note_on_c, 0, 59, 60
2, 143857, Note_on_c, 0, 45, 57
2, 144099, Note_on_c, 0, 62, 0
2, 144099, Note_on_c, 0, 68, 69
2, 144149, Note_on_c, 0, 68, 0
2, 144341, Note_on_c, 0, 62, 64
2, 144370, Note_on_c, 0, 59, 0
2, 144397, Note_on_c, 0, 62, 0
2, 144586, Note_on_c, 0, 59, 66
2, 144610, Note_on_c, 0, 56, 55
2, 144826, Note_on_c, 0, 59, 0
2, 144833, Note_on_c, 0, 62, 63
2, 144878, Note_on_c, 0, 45, 0
2, 144887, Note_on_c, 0, 62, 0
2, 145088, Note_on_c, 0, 59, 50
2, 145148, Note_on_c, 0, 59, 0
2, 145175, Note_on_c, 0, 56, 0
2, 145332, Note_on_c, 0, 57, 55
2, 145332, Note_on_c, 0, 61, 52
2, 145598, Note_on_c, 0, 59, 64
2, 145616, Note_on_c, 0, 57, 0
2, 145635, Note_on_c, 0, 59, 0
2, 145641, Note_on_c, 0, 61, 0
2, 145718, Note_on_c, 0, 42, 70
2, 145808, Note_on_c, 0, 57, 62
2, 145819, Note_on_c, 0, 43, 74
2, 145823, Note_on_c, 0, 42, 0
2, 145828, Note_on_c, 0, 55, 57
2, 145869, Note_on_c, 0, 57, 0
2, 145873, Note_on_c, 0, 55, 0
2, 145913, Note_on_c, 0, 43, 0
2, 145924, Note_on_c, 0, 45, 76
2, 146015, Note_on_c, 0, 45, 0
2, 146051, Note_on_c, 0, 62, 83
2, 146060, Note_on_c, 0, 47, 83
2, 146060, Note_on_c, 0, 54, 77
2, 146104, Note_on_c, 0, 47, 0
2, 146240, Note_on_c, 0, 54, 0
2, 146255, Note_on_c, 0, 62, 0
2, 146309, Note_on_c, 0, 45, 79
2, 146351, Note_on_c, 0, 45, 0
2, 146549, Note_on_c, 0, 67, 74
2, 146561, Note_on_c, 0, 43, 63
2, 146561, Note_on_c, 0, 64, 69
2, 146602, Note_on_c, 0, 43, 0
2, 146829, Note_on_c, 0, 61, 60
2, 146841, Note_on_c, 0, 45, 63
2, 146841, Note_on_c, 0, 67, 0
2, 146897, Note_on_c, 0, 64, 0
2, 147083, Note_on_c, 0, 66, 64
2, 147136, Note_on_c, 0, 61, 0
2, 147189, Note_on_c, 0, 66, 0
2, 147194, Note_on_c, 0, 64, 69
2, 147321, Note_on_c, 0, 64, 0
2, 147323, Note_on_c, 0, 57, 66
2, 147323, Note_on_c, 0, 66, 71
2, 147329, Note_on_c, 0, 62, 62
2, 147347, Note_on_c, 0, 45, 0
2, 147356, Note_on_c, 0, 57, 0
2, 147593, Note_on_c, 0, 64, 71
2, 147607, Note_on_c, 0, 57, 70
2, 147819, Note_on_c, 0, 62, 0
2, 147823, Note_on_c, 0, 64, 0
2, 147837, Note_on_c, 0, 66, 0
2, 147861, Note_on_c, 0, 61, 69
2, 147873, Note_on_c, 0, 57, 0
2, 147937, Note_on_c, 0, 61, 0
2, 147993, Note_on_c, 0, 59, 57
2, 148058, Note_on_c, 0, 45, 65
2, 148063, Note_on_c, 0, 59, 0
2, 148067, Note_on_c, 0, 61, 71
2, 148081, Note_on_c, 0, 69, 57
2, 148096, Note_on_c, 0, 45, 0
2, 148141, Note_on_c, 0, 61, 0
2, 148366, Note_on_c, 0, 50, 59
2, 148370, Note_on_c, 0, 69, 0
2, 148375, Note_on_c, 0, 66, 74
2, 148423, Note_on_c, 0, 66, 0
2, 148488, Note_on_c, 0, 69, 85
2, 148598, Note_on_c, 0, 71, 83
2, 148624, Note_on_c, 0, 69, 0
2, 148708, Note_on_c, 0, 73, 88
2, 148727, Note_on_c, 0, 71, 0
2, 148810, Note_on_c, 0, 50, 0
2, 148810, Note_on_c, 0, 57, 85
2, 148826, Note_on_c, 0, 73, 0
2, 148826, Note_on_c, 0, 74, 90
2, 148837, Note_on_c, 0, 57, 0
2, 148936, Note_on_c, 0, 76, 90
2, 148948, Note_on_c, 0, 74, 0
2, 149064, Note_on_c, 0, 62, 100
2, 149064, Note_on_c, 0, 78, 91
2, 149078, Note_on_c, 0, 76, 0
2, 149196, Note_on_c, 0, 76, 90
2, 149234, Note_on_c, 0, 78, 0
2, 149303, Note_on_c, 0, 74, 83
2, 149309, Note_on_c, 0, 76, 0
2, 149403, Note_on_c, 0, 73, 88
2, 149414, Note_on_c, 0, 74, 0
2, 149515, Note_on_c, 0, 71, 87
2, 149530, Note_on_c, 0, 73, 0
2, 149616, Note_on_c, 0, 71, 0
2, 149625, Note_on_c, 0, 69, 81
2, 149747, Note_on_c, 0, 68, 91
2, 149784, Note_on_c, 0, 69, 0
2, 149987, Note_on_c, 0, 62, 0
2, 150005, Note_on_c, 0, 71, 84
2, 150010, Note_on_c, 0, 64, 75
2, 150019, Note_on_c, 0, 68, 0
2, 150035, Note_on_c, 0, 71, 0
2, 150086, Note_on_c, 0, 64, 0
2, 150105, Note_on_c, 0, 62, 78
2, 150205, Note_on_c, 0, 62, 0
2, 150220, Note_on_c, 0, 61, 74
2, 150224, Note_on_c, 0, 76, 96
2, 150252, Note_on_c, 0, 76, 0
2, 150308, Note_on_c, 0, 61, 0
2, 150333, Note_on_c, 0, 59, 75
2, 150478, Note_on_c, 0, 76, 97
2, 150493, Note_on_c, 0, 58, 69
2, 150493, Note_on_c, 0, 59, 0
2, 150711, Note_on_c, 0, 58, 0
2, 150722, Note_on_c, 0, 59, 78
2, 150733, Note_on_c, 0, 73, 89
2, 150795, Note_on_c, 0, 73, 0
2, 150830, Note_on_c, 0, 59, 0
2, 150843, Note_on_c, 0, 58, 78
2, 150950, Note_on_c, 0, 58, 0
2, 150959, Note_on_c, 0, 56, 74
2, 150977, Note_on_c, 0, 70, 69
2, 151010, Note_on_c, 0, 70, 0
2, 151053, Note_on_c, 0, 56, 0
2, 151065, Note_on_c, 0, 54, 69
2, 151195, Note_on_c, 0, 59, 76
2, 151233, Note_on_c, 0, 54, 0
2, 151293, Note_on_c, 0, 76, 0
2, 151313, Note_on_c, 0, 66, 77
2, 151431, Note_on_c, 0, 66, 0
2, 151431, Note_on_c, 0, 68, 77
2, 151541, Note_on_c, 0, 70, 71
2, 151547, Note_on_c, 0, 68, 0
2, 151626, Note_on_c, 0, 70, 0
2, 151650, Note_on_c, 0, 71, 78
2, 151662, Note_on_c, 0, 47, 69
2, 151666, Note_on_c, 0, 59, 0
2, 151702, Note_on_c, 0, 47, 0
2, 151754, Note_on_c, 0, 71, 0
2, 151766, Note_on_c, 0, 73, 78
2, 151871, Note_on_c, 0, 73, 0
2, 151893, Note_on_c, 0, 74, 75
2, 151913, Note_on_c, 0, 59, 86
2, 152020, Note_on_c, 0, 73, 75
2, 152031, Note_on_c, 0, 74, 0
2, 152135, Note_on_c, 0, 73, 0
2, 152139, Note_on_c, 0, 71, 71
2, 152247, Note_on_c, 0, 71, 0
2, 152249, Note_on_c, 0, 69, 71
2, 152340, Note_on_c, 0, 69, 0
2, 152362, Note_on_c, 0, 67, 74
2, 152444, Note_on_c, 0, 67, 0
2, 152470, Note_on_c, 0, 66, 76
2, 152598, Note_on_c, 0, 64, 72
2, 152610, Note_on_c, 0, 66, 0
2, 152806, Note_on_c, 0, 64, 0
2, 152815, Note_on_c, 0, 59, 0
2, 152827, Note_on_c, 0, 67, 73
2, 152859, Note_on_c, 0, 67, 0
2, 152863, Note_on_c, 0, 60, 61
2, 152911, Note_on_c, 0, 60, 0
2, 152933, Note_on_c, 0, 59, 68
2, 153040, Note_on_c, 0, 59, 0
2, 153060, Note_on_c, 0, 72, 80
2, 153063, Note_on_c, 0, 57, 66
2, 153090, Note_on_c, 0, 72, 0
2, 153127, Note_on_c, 0, 57, 0
2, 153165, Note_on_c, 0, 55, 63
2, 153308, Note_on_c, 0, 55, 0
2, 153314, Note_on_c, 0, 54, 61
2, 153325, Note_on_c, 0, 72, 72
2, 153337, Note_on_c, 0, 71, 76
2, 153484, Note_on_c, 0, 71, 0
2, 153539, Note_on_c, 0, 54, 0
2, 153560, Note_on_c, 0, 69, 73
2, 153571, Note_on_c, 0, 55, 71
2, 153638, Note_on_c, 0, 69, 0
2, 153681, Note_on_c, 0, 54, 77
2, 153681, Note_on_c, 0, 55, 0
2, 153785, Note_on_c, 0, 54, 0
2, 153799, Note_on_c, 0, 66, 76
2, 153801, Note_on_c, 0, 52, 78
2, 153829, Note_on_c, 0, 66, 0
2, 153887, Note_on_c, 0, 52, 0
2, 153904, Note_on_c, 0, 50, 80
2, 154046, Note_on_c, 0, 55, 86
2, 154109, Note_on_c, 0, 50, 0
2, 154163, Note_on_c, 0, 62, 85
2, 154169, Note_on_c, 0, 72, 0
2, 154276, Note_on_c, 0, 64, 88
2, 154293, Note_on_c, 0, 62, 0
2, 154376, Note_on_c, 0, 66, 86
2, 154410, Note_on_c, 0, 64, 0
2, 154494, Note_on_c, 0, 43, 85
2, 154500, Note_on_c, 0, 67, 90
2, 154514, Note_on_c, 0, 66, 0
2, 154579, Note_on_c, 0, 55, 0
2, 154606, Note_on_c, 0, 43, 0
2, 154622, Note_on_c, 0, 69, 86
2, 154639, Note_on_c, 0, 67, 0
2, 154744, Note_on_c, 0, 71, 89
2, 154764, Note_on_c, 0, 55, 88
2, 154764, Note_on_c, 0, 69, 0
2, 154872, Note_on_c, 0, 69, 85
2, 154872, Note_on_c, 0, 71, 0
2, 154980, Note_on_c, 0, 69, 0
2, 154984, Note_on_c, 0, 67, 83
2, 155088, Note_on_c, 0, 66, 84
2, 155097, Note_on_c, 0, 67, 0
2, 155208, Note_on_c, 0, 64, 78
2, 155208, Note_on_c, 0, 66, 0
2, 155288, Note_on_c, 0, 64, 0
2, 155299, Note_on_c, 0, 62, 76
2, 155447, Note_on_c, 0, 61, 82
2, 155476, Note_on_c, 0, 62, 0
2, 155522, Note_on_c, 0, 61, 0
2, 155662, Note_on_c, 0, 55, 0
2, 155694, Note_on_c, 0, 64, 71
2, 155703, Note_on_c, 0, 57, 71
2, 155727, Note_on_c, 0, 64, 0
2, 155778, Note_on_c, 0, 57, 0
2, 155793, Note_on_c, 0, 55, 76
2, 155916, Note_on_c, 0, 55, 0
2, 155920, Note_on_c, 0, 54, 75
2, 155923, Note_on_c, 0, 69, 75
2, 155927, Note_on_c, 0, 61, 77
2, 155960, Note_on_c, 0, 61, 0
2, 155971, Note_on_c, 0, 69, 0
2, 156022, Note_on_c, 0, 54, 0
2, 156037, Note_on_c, 0, 52, 75
2, 156184, Note_on_c, 0, 50, 78
2, 156184, Note_on_c, 0, 66, 81
2, 156190, Note_on_c, 0, 62, 80
2, 156194, Note_on_c, 0, 52, 0
2, 156386, Note_on_c, 0, 62, 0
2, 156424, Note_on_c, 0, 69, 88
2, 156431, Note_on_c, 0, 52, 82
2, 156444, Note_on_c, 0, 50, 0
2, 156464, Note_on_c, 0, 66, 0
2, 156545, Note_on_c, 0, 54, 88
2, 156556, Note_on_c, 0, 69, 0
2, 156560, Note_on_c, 0, 52, 0
2, 156665, Note_on_c, 0, 54, 0
2, 156667, Note_on_c, 0, 74, 94
2, 156671, Note_on_c, 0, 55, 86
2, 156673, Note_on_c, 0, 66, 88
2, 156714, Note_on_c, 0, 66, 0
2, 156721, Note_on_c, 0, 74, 0
2, 156767, Note_on_c, 0, 55, 0
2, 156781, Note_on_c, 0, 57, 87
2, 156908, Note_on_c, 0, 67, 95
2, 156914, Note_on_c, 0, 59, 96
2, 156956, Note_on_c, 0, 59, 0
2, 156966, Note_on_c, 0, 57, 0
2, 157184, Note_on_c, 0, 57, 86
2, 157184, Note_on_c, 0, 69, 93
2, 157220, Note_on_c, 0, 67, 0
2, 157246, Note_on_c, 0, 57, 0
2, 157323, Note_on_c, 0, 69, 0
2, 157464, Note_on_c, 0, 76, 95
2, 157473, Note_on_c, 0, 55, 86
2, 157477, Note_on_c, 0, 70, 59
2, 157482, Note_on_c, 0, 70, 0
2, 157482, Note_on_c, 0, 71, 87
2, 157572, Note_on_c, 0, 55, 0
2, 157580, Note_on_c, 0, 76, 0
2, 157691, Note_on_c, 0, 71, 0
2, 157794, Note_on_c, 0, 69, 84
2, 157799, Note_on_c, 0, 57, 88
2, 157804, Note_on_c, 0, 66, 92
2, 157958, Control_c, 0, 64, 12
2, 157978, Control_c, 0, 64, 37
2, 157995, Control_c, 0, 64, 54
2, 158015, Control_c, 0, 64, 63
2, 158033, Control_c, 0, 64, 66
2, 158051, Control_c, 0, 64, 70
2, 158072, Control_c, 0, 64, 79
2, 158092, Note_on_c, 0, 57, 0
2, 158096, Control_c, 0, 64, 98
2, 158112, Control_c, 0, 64, 127
2, 158131, Note_on_c, 0, 74, 91
2, 158204, Note_on_c, 0, 69, 0
2, 158252, Note_on_c, 0, 74, 0
2, 158310, Note_on_c, 0, 66, 0
2, 158512, Note_on_c, 0, 45, 80
2, 158519, Note_on_c, 0, 73, 96
2, 158523, Note_on_c, 0, 64, 85
2, 158523, Note_on_c, 0, 67, 84
2, 158534, Control_c, 0, 64, 104
2, 158553, Control_c, 0, 64, 84
2, 158573, Control_c, 0, 64, 69
2, 158591, Control_c, 0, 64, 55
2, 158609, Control_c, 0, 64, 35
2, 158630, Control_c, 0, 64, 12
2, 158650, Control_c, 0, 64, 11
2, 158687, Control_c, 0, 64, 13
2, 158705, Control_c, 0, 64, 18
2, 158725, Control_c, 0, 64, 26
2, 158742, Control_c, 0, 64, 35
2, 158762, Control_c, 0, 64, 51
2, 158783, Control_c, 0, 64, 64
2, 158801, Control_c, 0, 64, 69
2, 158819, Control_c, 0, 64, 78
2, 158833, Note_on_c, 0, 73, 0
2, 158841, Control_c, 0, 64, 87
2, 158854, Note_on_c, 0, 67, 0
2, 158861, Control_c, 0, 64, 99
2, 158879, Control_c, 0, 64, 107
2, 158895, Control_c, 0, 64, 111
2, 158936, Control_c, 0, 64, 110
2, 158954, Control_c, 0, 64, 106
2, 158970, Note_on_c, 0, 74, 97
2, 158979, Control_c, 0, 64, 102
2, 158979, Note_on_c, 0, 38, 81
2, 158979, Note_on_c, 0, 66, 85
2, 158995, Control_c, 0, 64, 94
2, 159012, Control_c, 0, 64, 85
2, 159032, Control_c, 0, 64, 73
2, 159053, Control_c, 0, 64, 64
2, 159070, Control_c, 0, 64, 57
2, 159089, Control_c, 0, 64, 51
2, 159097, Note_on_c, 0, 64, 0
2, 159110, Control_c, 0, 64, 48
2, 159119, Note_on_c, 0, 45, 0
2, 159128, Control_c, 0, 64, 45
2, 159148, Control_c, 0, 64, 39
2, 159166, Control_c, 0, 64, 30
2, 159187, Control_c, 0, 64, 0
2, 159361, Note_on_c, 0, 69, 82
2, 159490, Note_on_c, 0, 66, 0
2, 159773, Note_on_c, 0, 66, 83
2, 160373, Note_on_c, 0, 62, 78
2, 161416, Control_c, 0, 64, 13
2, 161434, Control_c, 0, 64, 18
2, 161454, Control_c, 0, 64, 23
2, 161474, Control_c, 0, 64, 28
2, 161491, Control_c, 0, 64, 35
2, 161511, Control_c, 0, 64, 43
2, 161529, Control_c, 0, 64, 49
2, 161549, Control_c, 0, 64, 51
2, 161568, Control_c, 0, 64, 52
2, 161607, Control_c, 0, 64, 54
2, 161627, Control_c, 0, 64, 57
2, 161645, Control_c, 0, 64, 58
2, 161666, Control_c, 0, 64, 59
2, 161685, Control_c, 0, 64, 60
2, 161704, Control_c, 0, 64, 61
2, 161722, Control_c, 0, 64, 62
2, 161743, Control_c, 0, 64, 63
2, 161763, Control_c, 0, 64, 64
2, 161781, Control_c, 0, 64, 65
2, 161799, Control_c, 0, 64, 66
2, 161821, Control_c, 0, 64, 68
2, 161838, Control_c, 0, 64, 72
2, 161857, Control_c, 0, 64, 76
2, 161876, Control_c, 0, 64, 81
2, 161895, Control_c, 0, 64, 86
2, 161915, Control_c, 0, 64, 90
2, 161934, Control_c, 0, 64, 95
2, 161954, Control_c, 0, 64, 102
2, 161973, Control_c, 0, 64, 111
2, 161990, Control_c, 0, 64, 127
2, 162115, Note_on_c, 0, 74, 0
2, 162218, Note_on_c, 0, 62, 0
2, 162334, Note_on_c, 0, 66, 0
2, 162363, Note_on_c, 0, 69, 0
2, 162413, Control_c, 0, 64, 122
2, 162432, Control_c, 0, 64, 120
2, 162453, Control_c, 0, 64, 115
2, 162474, Control_c, 0, 64, 111
2, 162491, Control_c, 0, 64, 107
2, 162505, Note_on_c, 0, 38, 0
2, 162509, Control_c, 0, 64, 103
2, 162528, Control_c, 0, 64, 99
2, 162550, Control_c, 0, 64, 97
2, 162567, Control_c, 0, 64, 96
2, 162586, Control_c, 0, 64, 94
2, 162606, Control_c, 0, 64, 90
2, 162625, Control_c, 0, 64, 87
2, 162646, Control_c, 0, 64, 85
2, 162664, Control_c, 0, 64, 83
2, 162682, Control_c, 0, 64, 81
2, 162702, Control_c, 0, 64, 77
2, 162724, Control_c, 0, 64, 73
2, 162740, Control_c, 0, 64, 70
2, 162758, Control_c, 0, 64, 67
2, 162780, Control_c, 0, 64, 66
2, 162798, Control_c, 0, 64, 64
2, 162818, Control_c, 0, 64, 62
2, 162836, Control_c, 0, 64, 60
2, 162855, Control_c, 0, 64, 59
2, 162913, Control_c, 0, 64, 58
2, 162951, Control_c, 0, 64, 56
2, 162971, Control_c, 0, 64, 55
2, 162990, Control_c, 0, 64, 53
2, 163009, Control_c, 0, 64, 52
2, 163066, Control_c, 0, 64, 51
2, 163085, Control_c, 0, 64, 49
2, 163103, Control_c, 0, 64, 47
2, 163585, Control_c, 0, 64, 48
2, 163641, Control_c, 0, 64, 49
2, 163698, Control_c, 0, 64, 50
2, 163759, Control_c, 0, 64, 51
2, 163988, Control_c, 0, 67, 8
2, 164008, Control_c, 0, 67, 12
2, 164030, Control_c, 0, 67, 16
2, 164045, Control_c, 0, 67, 19
2, 164064, Control_c, 0, 67, 23
2, 164083, Control_c, 0, 67, 26
2, 164103, Control_c, 0, 67, 30
2, 164122, Control_c, 0, 67, 33
2, 164141, Control_c, 0, 67, 37
2, 164161, Control_c, 0, 67, 41
2, 164180, Control_c, 0, 67, 45
2, 164200, Control_c, 0, 67, 49
2, 164220, Control_c, 0, 67, 55
2, 164238, Control_c, 0, 67, 60
2, 164259, Control_c, 0, 67, 66
2, 164277, Control_c, 0, 67, 71
2, 164296, Control_c, 0, 67, 76
2, 164316, Control_c, 0, 67, 81
2, 164334, Control_c, 0, 67, 87
2, 164354, Control_c, 0, 67, 95
2, 164371, Control_c, 0, 67, 102
2, 164392, Control_c, 0, 67, 108
2, 164410, Control_c, 0, 67, 114
2, 164430, Control_c, 0, 67, 120
2, 164450, Control_c, 0, 67, 127
2, 164601, Control_c, 0, 64, 52
2, 164683, Control_c, 0, 64, 53
2, 164737, Control_c, 0, 64, 54
2, 164796, Control_c, 0, 64, 55
2, 164813, Control_c, 0, 64, 56
2, 164833, Control_c, 0, 64, 57
2, 164852, Control_c, 0, 64, 58
2, 164966, Control_c, 0, 64, 59
2, 165024, Control_c, 0, 64, 58
2, 165122, Control_c, 0, 64, 59
2, 165178, Control_c, 0, 64, 60
2, 165216, Control_c, 0, 64, 61
2, 165255, Control_c, 0, 64, 62
2, 165292, Control_c, 0, 64, 63
2, 165333, Control_c, 0, 64, 64
2, 165369, Control_c, 0, 64, 65
2, 165466, Control_c, 0, 64, 66
2, 165489, Control_c, 0, 64, 67
2, 165582, Control_c, 0, 64, 68
2, 165602, Control_c, 0, 64, 69
2, 165621, Control_c, 0, 64, 70
2, 165641, Control_c, 0, 64, 71
2, 165659, Control_c, 0, 64, 72
2, 165679, Control_c, 0, 64, 73
2, 165698, Control_c, 0, 64, 74
2, 165718, Control_c, 0, 64, 75
2, 165735, Control_c, 0, 64, 76
2, 165755, Control_c, 0, 64, 78
2, 165775, Control_c, 0, 64, 81
2, 165794, Control_c, 0, 64, 83
2, 165812, Control_c, 0, 64, 85
2, 165831, Control_c, 0, 64, 87
2, 165852, Control_c, 0, 64, 89
2, 165870, Control_c, 0, 64, 91
2, 165888, Control_c, 0, 64, 92
2, 165911, Control_c, 0, 64, 94
2, 165928, Control_c, 0, 64, 97
2, 165948, Control_c, 0, 64, 100
2, 165965, Control_c, 0, 64, 102
2, 165986, Control_c, 0, 64, 104
2, 166003, Control_c, 0, 64, 107
2, 166024, Control_c, 0, 64, 111
2, 166044, Control_c, 0, 64, 115
2, 166063, Control_c, 0, 64, 120
2, 166081, Control_c, 0, 64, 127
2, 168189, Note_on_c, 0, 62, 42
2, 168538, Note_on_c, 0, 62, 0
2, 168705, Note_on_c, 0, 62, 52
2, 168934, Note_on_c, 0, 62, 0
2, 169184, Note_on_c, 0, 62, 55
2, 169404, Control_c, 0, 64, 120
2, 169423, Control_c, 0, 64, 113
2, 169441, Control_c, 0, 64, 110
2, 169460, Control_c, 0, 64, 109
2, 169479, Control_c, 0, 64, 108
2, 169498, Control_c, 0, 64, 106
2, 169518, Control_c, 0, 64, 103
2, 169537, Control_c, 0, 64, 101
2, 169557, Control_c, 0, 64, 97
2, 169574, Control_c, 0, 64, 92
2, 169594, Control_c, 0, 64, 87
2, 169614, Control_c, 0, 64, 83
2, 169636, Control_c, 0, 64, 82
2, 169655, Control_c, 0, 64, 80
2, 169670, Control_c, 0, 64, 78
2, 169690, Control_c, 0, 64, 74
2, 169711, Note_on_c, 0, 55, 50
2, 169713, Control_c, 0, 64, 71
2, 169728, Control_c, 0, 64, 68
2, 169747, Control_c, 0, 64, 65
2, 169767, Control_c, 0, 64, 64
2, 169786, Control_c, 0, 64, 63
2, 169844, Control_c, 0, 64, 62
2, 169864, Control_c, 0, 64, 60
2, 169882, Control_c, 0, 64, 59
2, 169903, Control_c, 0, 64, 58
2, 169923, Control_c, 0, 64, 57
2, 169939, Control_c, 0, 64, 56
2, 169981, Control_c, 0, 64, 55
2, 169999, Control_c, 0, 64, 54
2, 170016, Control_c, 0, 64, 52
2, 170036, Control_c, 0, 64, 51
2, 170058, Control_c, 0, 64, 50
2, 170074, Control_c, 0, 64, 49
2, 170096, Control_c, 0, 64, 48
2, 170111, Control_c, 0, 64, 46
2, 170132, Control_c, 0, 64, 44
2, 170152, Control_c, 0, 64, 42
2, 170169, Control_c, 0, 64, 41
2, 170189, Control_c, 0, 64, 39
2, 170208, Control_c, 0, 64, 38
2, 170213, Note_on_c, 0, 62, 0
2, 170229, Control_c, 0, 64, 36
2, 170245, Control_c, 0, 64, 35
2, 170267, Control_c, 0, 64, 33
2, 170287, Control_c, 0, 64, 29
2, 170305, Control_c, 0, 64, 26
2, 170324, Control_c, 0, 64, 25
2, 170535, Control_c, 0, 64, 24
2, 170670, Control_c, 0, 64, 23
2, 170699, Note_on_c, 0, 59, 57
2, 170731, Control_c, 0, 64, 22
2, 170767, Control_c, 0, 64, 21
2, 170804, Control_c, 0, 64, 20
2, 170898, Control_c, 0, 64, 19
2, 170921, Control_c, 0, 64, 18
2, 170939, Control_c, 0, 64, 17
2, 170975, Control_c, 0, 64, 16
2, 170997, Control_c, 0, 64, 14
2, 171014, Control_c, 0, 64, 13
2, 171034, Control_c, 0, 64, 12
2, 171053, Control_c, 0, 64, 11
2, 171112, Control_c, 0, 64, 10
2, 171141, Note_on_c, 0, 55, 0
2, 171168, Control_c, 0, 64, 9
2, 171244, Control_c, 0, 64, 8
2, 171322, Control_c, 0, 64, 0
2, 172121, Note_on_c, 0, 52, 44
2, 172453, Note_on_c, 0, 59, 0
2, 172611, Note_on_c, 0, 57, 53
2, 172839, Note_on_c, 0, 52, 0
2, 173065, Note_on_c, 0, 55, 51
2, 173326, Note_on_c, 0, 57, 0
2, 173528, Note_on_c, 0, 54, 43
2, 173679, Note_on_c, 0, 55, 0
2, 173783, Control_c, 0, 64, 8
2, 173820, Control_c, 0, 64, 9
2, 173840, Control_c, 0, 64, 10
2, 173879, Control_c, 0, 64, 11
2, 173897, Control_c, 0, 64, 12
2, 173916, Control_c, 0, 64, 13
2, 173936, Control_c, 0, 64, 15
2, 173954, Control_c, 0, 64, 16
2, 173974, Control_c, 0, 64, 17
2, 173978, Note_on_c, 0, 69, 47
2, 173996, Control_c, 0, 64, 19
2, 174014, Control_c, 0, 64, 22
2, 174033, Control_c, 0, 64, 25
2, 174051, Control_c, 0, 64, 28
2, 174069, Control_c, 0, 64, 33
2, 174090, Control_c, 0, 64, 45
2, 174108, Control_c, 0, 64, 55
2, 174128, Control_c, 0, 64, 60
2, 174166, Control_c, 0, 64, 61
2, 174186, Control_c, 0, 64, 63
2, 174205, Control_c, 0, 64, 65
2, 174223, Control_c, 0, 64, 68
2, 174241, Control_c, 0, 64, 74
2, 174262, Control_c, 0, 64, 82
2, 174281, Control_c, 0, 64, 91
2, 174294, Note_on_c, 0, 69, 0
2, 174303, Control_c, 0, 64, 94
2, 174377, Control_c, 0, 64, 93
2, 174416, Control_c, 0, 64, 92
2, 174434, Control_c, 0, 64, 90
2, 174440, Note_on_c, 0, 69, 62
2, 174454, Control_c, 0, 64, 88
2, 174458, Note_on_c, 0, 50, 38
2, 174473, Control_c, 0, 64, 85
2, 174496, Control_c, 0, 64, 81
2, 174511, Control_c, 0, 64, 75
2, 174530, Control_c, 0, 64, 70
2, 174548, Control_c, 0, 64, 64
2, 174570, Control_c, 0, 64, 56
2, 174588, Control_c, 0, 64, 48
2, 174607, Control_c, 0, 64, 44
2, 174629, Control_c, 0, 64, 43
2, 174665, Control_c, 0, 64, 44
2, 174672, Note_on_c, 0, 54, 0
2, 174685, Control_c, 0, 64, 46
2, 174703, Control_c, 0, 64, 51
2, 174724, Control_c, 0, 64, 58
2, 174742, Control_c, 0, 64, 63
2, 174754, Note_on_c, 0, 69, 0
2, 174763, Control_c, 0, 64, 64
2, 174780, Control_c, 0, 64, 67
2, 174802, Control_c, 0, 64, 71
2, 174818, Control_c, 0, 64, 79
2, 174837, Control_c, 0, 64, 88
2, 174857, Control_c, 0, 64, 93
2, 174876, Control_c, 0, 64, 95
2, 174888, Note_on_c, 0, 69, 63
2, 174898, Control_c, 0, 64, 100
2, 174916, Control_c, 0, 64, 103
2, 174971, Control_c, 0, 64, 102
2, 175011, Control_c, 0, 64, 100
2, 175029, Control_c, 0, 64, 98
2, 175049, Control_c, 0, 64, 95
2, 175071, Control_c, 0, 64, 91
2, 175088, Control_c, 0, 64, 87
2, 175107, Control_c, 0, 64, 82
2, 175126, Control_c, 0, 64, 80
2, 175144, Control_c, 0, 64, 79
2, 175166, Control_c, 0, 64, 77
2, 175183, Control_c, 0, 64, 75
2, 175203, Control_c, 0, 64, 73
2, 175225, Control_c, 0, 64, 70
2, 175244, Control_c, 0, 64, 68
2, 175260, Control_c, 0, 64, 67
2, 175280, Control_c, 0, 64, 66
2, 175312, Note_on_c, 0, 50, 0
2, 175318, Control_c, 0, 64, 65
2, 175351, Note_on_c, 0, 62, 62
2, 175356, Control_c, 0, 64, 64
2, 175378, Control_c, 0, 64, 63
2, 175413, Control_c, 0, 64, 62
2, 175432, Control_c, 0, 64, 61
2, 175453, Control_c, 0, 64, 60
2, 175472, Control_c, 0, 64, 59
2, 175529, Control_c, 0, 64, 58
2, 175549, Control_c, 0, 64, 56
2, 175568, Note_on_c, 0, 69, 0
2, 175573, Control_c, 0, 64, 55
2, 175586, Control_c, 0, 64, 54
2, 175606, Control_c, 0, 64, 53
2, 175645, Control_c, 0, 64, 52
2, 175666, Control_c, 0, 64, 51
2, 175701, Control_c, 0, 64, 50
2, 175760, Control_c, 0, 64, 49
2, 175773, Note_on_c, 0, 54, 44
2, 175797, Control_c, 0, 64, 48
2, 175820, Control_c, 0, 64, 47
2, 175836, Control_c, 0, 64, 46
2, 175892, Control_c, 0, 64, 45
2, 176239, Note_on_c, 0, 66, 66
2, 176243, Note_on_c, 0, 59, 43
2, 176393, Note_on_c, 0, 54, 0
2, 176465, Note_on_c, 0, 62, 0
2, 176564, Control_c, 0, 64, 44
2, 176604, Control_c, 0, 64, 43
2, 176641, Control_c, 0, 64, 42
2, 176669, Note_on_c, 0, 57, 50
2, 176681, Control_c, 0, 64, 41
2, 176757, Control_c, 0, 64, 40
2, 176833, Note_on_c, 0, 59, 0
2, 177117, Note_on_c, 0, 56, 45
2, 177238, Control_c, 0, 64, 39
2, 177302, Note_on_c, 0, 57, 0
2, 177550, Note_on_c, 0, 59, 46
2, 177796, Note_on_c, 0, 66, 0
2, 178006, Note_on_c, 0, 64, 50
2, 178197, Note_on_c, 0, 59, 0
2, 178434, Note_on_c, 0, 62, 52
2, 178633, Note_on_c, 0, 64, 0
2, 178868, Note_on_c, 0, 57, 42
2, 178885, Note_on_c, 0, 61, 47
2, 178981, Note_on_c, 0, 62, 0
2, 179116, Note_on_c, 0, 56, 0
2, 179118, Control_c, 0, 64, 40
2, 179273, Control_c, 0, 64, 41
2, 179318, Note_on_c, 0, 64, 59
2, 179514, Note_on_c, 0, 61, 0
2, 179756, Note_on_c, 0, 69, 65
2, 179772, Note_on_c, 0, 61, 48
2, 179968, Note_on_c, 0, 64, 0
2, 180091, Note_on_c, 0, 57, 0
2, 180200, Note_on_c, 0, 67, 68
2, 180377, Note_on_c, 0, 69, 0
2, 180443, Control_c, 0, 67, 125
2, 180462, Control_c, 0, 67, 118
2, 180481, Control_c, 0, 67, 111
2, 180499, Control_c, 0, 67, 107
2, 180517, Control_c, 0, 67, 102
2, 180539, Control_c, 0, 67, 94
2, 180559, Control_c, 0, 67, 83
2, 180575, Control_c, 0, 67, 72
2, 180595, Control_c, 0, 67, 60
2, 180615, Control_c, 0, 67, 49
2, 180634, Control_c, 0, 67, 40
2, 180650, Note_on_c, 0, 66, 65
2, 180654, Control_c, 0, 67, 34
2, 180672, Control_c, 0, 67, 32
2, 180685, Note_on_c, 0, 61, 0
2, 180783, Note_on_c, 0, 67, 0
2, 180827, Control_c, 0, 67, 31
2, 180998, Control_c, 0, 67, 32
2, 181072, Note_on_c, 0, 57, 47
2, 181134, Control_c, 0, 67, 33
2, 181500, Control_c, 0, 67, 34
2, 181516, Note_on_c, 0, 69, 64
2, 181533, Note_on_c, 0, 62, 41
2, 181615, Control_c, 0, 67, 35
2, 181751, Note_on_c, 0, 66, 0
2, 181780, Note_on_c, 0, 57, 0
2, 181999, Note_on_c, 0, 61, 45
2, 182187, Note_on_c, 0, 62, 0
2, 182400, Note_on_c, 0, 59, 49
2, 182540, Note_on_c, 0, 61, 0
2, 182824, Control_c, 0, 64, 42
2, 182833, Note_on_c, 0, 74, 71
2, 182856, Note_on_c, 0, 62, 38
2, 182899, Control_c, 0, 64, 43
2, 182938, Control_c, 0, 64, 44
2, 182960, Control_c, 0, 64, 45
2, 182976, Control_c, 0, 64, 46
2, 182996, Control_c, 0, 64, 49
2, 183016, Control_c, 0, 64, 54
2, 183034, Control_c, 0, 64, 60
2, 183053, Control_c, 0, 64, 61
2, 183071, Control_c, 0, 64, 62
2, 183091, Control_c, 0, 64, 64
2, 183111, Control_c, 0, 64, 67
2, 183130, Control_c, 0, 64, 72
2, 183152, Control_c, 0, 64, 79
2, 183152, Note_on_c, 0, 74, 0
2, 183169, Control_c, 0, 64, 86
2, 183188, Control_c, 0, 64, 94
2, 183206, Control_c, 0, 64, 99
2, 183227, Control_c, 0, 64, 103
2, 183281, Note_on_c, 0, 74, 83
2, 183305, Control_c, 0, 64, 102
2, 183309, Note_on_c, 0, 67, 45
2, 183342, Control_c, 0, 64, 101
2, 183361, Control_c, 0, 64, 99
2, 183382, Control_c, 0, 64, 98
2, 183398, Control_c, 0, 64, 96
2, 183419, Control_c, 0, 64, 94
2, 183434, Note_on_c, 0, 62, 0
2, 183439, Control_c, 0, 64, 93
2, 183457, Control_c, 0, 64, 92
2, 183495, Control_c, 0, 64, 91
2, 183545, Note_on_c, 0, 74, 0
2, 183552, Control_c, 0, 64, 90
2, 183570, Control_c, 0, 64, 89
2, 183591, Control_c, 0, 64, 88
2, 183610, Control_c, 0, 64, 87
2, 183647, Control_c, 0, 64, 86
2, 183669, Control_c, 0, 64, 85
2, 183688, Control_c, 0, 64, 83
2, 183706, Control_c, 0, 64, 81
2, 183727, Note_on_c, 0, 66, 54
2, 183727, Note_on_c, 0, 74, 81
2, 183731, Control_c, 0, 64, 78
2, 183736, Note_on_c, 0, 67, 0
2, 183745, Control_c, 0, 64, 74
2, 183763, Control_c, 0, 64, 71
2, 183782, Control_c, 0, 64, 68
2, 183804, Control_c, 0, 64, 66
2, 183821, Control_c, 0, 64, 65
2, 183841, Control_c, 0, 64, 64
2, 183936, Control_c, 0, 64, 63
2, 183993, Control_c, 0, 64, 62
2, 184014, Control_c, 0, 64, 61
2, 184031, Control_c, 0, 64, 60
2, 184092, Control_c, 0, 64, 59
2, 184145, Control_c, 0, 64, 58
2, 184183, Note_on_c, 0, 67, 79
2, 184187, Control_c, 0, 64, 57
2, 184210, Note_on_c, 0, 64, 50
2, 184226, Control_c, 0, 64, 56
2, 184245, Control_c, 0, 64, 55
2, 184264, Control_c, 0, 64, 52
2, 184271, Note_on_c, 0, 69, 0
2, 184281, Control_c, 0, 64, 50
2, 184301, Control_c, 0, 64, 47
2, 184321, Control_c, 0, 64, 45
2, 184334, Note_on_c, 0, 66, 0
2, 184378, Control_c, 0, 64, 46
2, 184415, Note_on_c, 0, 59, 0
2, 184419, Control_c, 0, 64, 47
2, 184494, Control_c, 0, 64, 48
2, 184570, Control_c, 0, 64, 49
2, 184588, Control_c, 0, 64, 50
2, 184609, Control_c, 0, 64, 51
2, 184630, Control_c, 0, 64, 52
2, 184641, Note_on_c, 0, 59, 48
2, 184646, Note_on_c, 0, 66, 61
2, 184648, Control_c, 0, 64, 54
2, 184667, Control_c, 0, 64, 56
2, 184685, Control_c, 0, 64, 57
2, 184705, Control_c, 0, 64, 59
2, 184722, Control_c, 0, 64, 60
2, 184742, Control_c, 0, 64, 61
2, 184762, Control_c, 0, 64, 63
2, 184782, Control_c, 0, 64, 64
2, 184793, Note_on_c, 0, 74, 0
2, 184799, Control_c, 0, 64, 65
2, 184819, Control_c, 0, 64, 68
2, 184839, Control_c, 0, 64, 72
2, 184858, Control_c, 0, 64, 78
2, 184878, Control_c, 0, 64, 85
2, 184898, Control_c, 0, 64, 88
2, 184907, Note_on_c, 0, 64, 0
2, 184951, Note_on_c, 0, 67, 0
2, 185012, Control_c, 0, 64, 87
2, 185051, Control_c, 0, 64, 85
2, 185069, Control_c, 0, 64, 84
2, 185090, Control_c, 0, 64, 82
2, 185090, Note_on_c, 0, 71, 84
2, 185112, Control_c, 0, 64, 80
2, 185112, Note_on_c, 0, 64, 52
2, 185132, Control_c, 0, 64, 78
2, 185132, Note_on_c, 0, 67, 58
2, 185146, Control_c, 0, 64, 77
2, 185167, Control_c, 0, 64, 74
2, 185185, Control_c, 0, 64, 70
2, 185205, Control_c, 0, 64, 66
2, 185225, Control_c, 0, 64, 63
2, 185237, Note_on_c, 0, 66, 0
2, 185242, Control_c, 0, 64, 62
2, 185262, Control_c, 0, 64, 61
2, 185281, Control_c, 0, 64, 60
2, 185319, Control_c, 0, 64, 59
2, 185337, Control_c, 0, 64, 58
2, 185356, Control_c, 0, 64, 57
2, 185367, Note_on_c, 0, 59, 0
2, 185473, Control_c, 0, 64, 56
2, 185547, Note_on_c, 0, 62, 63
2, 185570, Control_c, 0, 64, 55
2, 185606, Control_c, 0, 64, 54
2, 185683, Control_c, 0, 64, 53
2, 185744, Note_on_c, 0, 64, 0
2, 185992, Note_on_c, 0, 61, 58
2, 186010, Control_c, 0, 64, 54
2, 186059, Note_on_c, 0, 62, 0
2, 186357, Control_c, 0, 64, 55
2, 186432, Note_on_c, 0, 57, 66
2, 186453, Control_c, 0, 64, 56
2, 186482, Note_on_c, 0, 64, 47
2, 186509, Control_c, 0, 64, 57
2, 186548, Control_c, 0, 64, 58
2, 186567, Control_c, 0, 67, 36
2, 186585, Control_c, 0, 64, 59
2, 186605, Control_c, 0, 64, 60
2, 186627, Control_c, 0, 64, 63
2, 186631, Note_on_c, 0, 67, 0
2, 186647, Control_c, 0, 64, 67
2, 186664, Control_c, 0, 64, 73
2, 186671, Note_on_c, 0, 71, 0
2, 186685, Control_c, 0, 64, 86
2, 186702, Control_c, 0, 64, 102
2, 186702, Control_c, 0, 67, 35
2, 186720, Control_c, 0, 64, 120
2, 186738, Control_c, 0, 64, 127
2, 186782, Note_on_c, 0, 57, 0
2, 186858, Control_c, 0, 64, 122
2, 186874, Control_c, 0, 64, 113
2, 186893, Control_c, 0, 64, 106
2, 186907, Note_on_c, 0, 57, 77
2, 186907, Note_on_c, 0, 69, 65
2, 186913, Control_c, 0, 64, 98
2, 186918, Note_on_c, 0, 66, 61
2, 186932, Control_c, 0, 64, 91
2, 186952, Control_c, 0, 64, 85
2, 186956, Control_c, 0, 67, 36
2, 186970, Control_c, 0, 64, 80
2, 186989, Control_c, 0, 64, 72
2, 187009, Control_c, 0, 64, 64
2, 187031, Control_c, 0, 64, 54
2, 187049, Control_c, 0, 64, 42
2, 187064, Control_c, 0, 64, 39
2, 187105, Control_c, 0, 64, 40
2, 187123, Control_c, 0, 64, 42
2, 187134, Note_on_c, 0, 64, 0
2, 187143, Control_c, 0, 64, 45
2, 187162, Control_c, 0, 64, 50
2, 187184, Control_c, 0, 64, 59
2, 187198, Control_c, 0, 64, 63
2, 187220, Control_c, 0, 64, 65
2, 187241, Control_c, 0, 64, 67
2, 187258, Note_on_c, 0, 57, 0
2, 187263, Control_c, 0, 64, 70
2, 187276, Control_c, 0, 64, 74
2, 187300, Control_c, 0, 64, 76
2, 187300, Control_c, 0, 67, 35
2, 187334, Control_c, 0, 64, 75
2, 187363, Note_on_c, 0, 64, 65
2, 187369, Note_on_c, 0, 57, 76
2, 187369, Note_on_c, 0, 67, 66
2, 187376, Control_c, 0, 64, 74
2, 187411, Control_c, 0, 67, 36
2, 187431, Control_c, 0, 64, 73
2, 187449, Control_c, 0, 64, 72
2, 187471, Control_c, 0, 64, 70
2, 187471, Note_on_c, 0, 69, 0
2, 187486, Control_c, 0, 64, 67
2, 187509, Control_c, 0, 64, 63
2, 187513, Note_on_c, 0, 66, 0
2, 187527, Control_c, 0, 64, 62
2, 187547, Control_c, 0, 64, 63
2, 187564, Control_c, 0, 64, 64
2, 187584, Control_c, 0, 64, 66
2, 187593, Note_on_c, 0, 61, 0
2, 187604, Control_c, 0, 64, 69
2, 187626, Control_c, 0, 64, 75
2, 187641, Control_c, 0, 64, 89
2, 187664, Control_c, 0, 64, 100
2, 187681, Control_c, 0, 64, 103
2, 187700, Control_c, 0, 67, 35
2, 187718, Control_c, 0, 64, 102
2, 187739, Control_c, 0, 64, 100
2, 187759, Control_c, 0, 64, 98
2, 187778, Control_c, 0, 64, 95
2, 187778, Control_c, 0, 67, 36
2, 187798, Control_c, 0, 64, 93
2, 187818, Control_c, 0, 64, 89
2, 187822, Note_on_c, 0, 50, 76
2, 187835, Control_c, 0, 64, 84
2, 187844, Note_on_c, 0, 66, 68
2, 187855, Control_c, 0, 64, 79
2, 187855, Note_on_c, 0, 62, 57
2, 187873, Control_c, 0, 64, 76
2, 187891, Control_c, 0, 64, 73
2, 187910, Note_on_c, 0, 67, 0
2, 187914, Control_c, 0, 64, 70
2, 187929, Control_c, 0, 64, 67
2, 187940, Note_on_c, 0, 64, 0
2, 187951, Control_c, 0, 64, 63
2, 187971, Control_c, 0, 64, 60
2, 187988, Control_c, 0, 64, 56
2, 188004, Control_c, 0, 64, 53
2, 188028, Control_c, 0, 64, 51
2, 188060, Note_on_c, 0, 57, 0
2, 188140, Control_c, 0, 64, 52
2, 188180, Control_c, 0, 64, 53
2, 188218, Control_c, 0, 64, 54
2, 188257, Control_c, 0, 64, 55
2, 188277, Control_c, 0, 64, 56
2, 188297, Control_c, 0, 64, 58
2, 188297, Note_on_c, 0, 57, 55
2, 188314, Control_c, 0, 64, 59
2, 188333, Control_c, 0, 64, 61
2, 188352, Control_c, 0, 64, 63
2, 188370, Control_c, 0, 64, 65
2, 188390, Control_c, 0, 64, 68
2, 188412, Control_c, 0, 64, 74
2, 188430, Control_c, 0, 64, 83
2, 188447, Control_c, 0, 64, 91
2, 188469, Control_c, 0, 64, 97
2, 188487, Control_c, 0, 64, 99
2, 188500, Note_on_c, 0, 62, 0
2, 188582, Control_c, 0, 64, 97
2, 188602, Control_c, 0, 64, 95
2, 188622, Control_c, 0, 64, 94
2, 188640, Control_c, 0, 64, 92
2, 188658, Control_c, 0, 64, 91
2, 188680, Control_c, 0, 64, 89
2, 188697, Control_c, 0, 64, 87
2, 188715, Control_c, 0, 64, 85
2, 188736, Control_c, 0, 64, 82
2, 188736, Note_on_c, 0, 54, 77
2, 188756, Control_c, 0, 64, 79
2, 188774, Control_c, 0, 64, 77
2, 188778, Note_on_c, 0, 62, 59
2, 188794, Control_c, 0, 64, 75
2, 188812, Control_c, 0, 64, 73
2, 188834, Control_c, 0, 64, 71
2, 188852, Control_c, 0, 64, 69
2, 188869, Control_c, 0, 64, 65
2, 188889, Control_c, 0, 64, 62
2, 188909, Control_c, 0, 64, 61
2, 188927, Control_c, 0, 64, 60
2, 189044, Note_on_c, 0, 66, 0
2, 189063, Control_c, 0, 64, 59
2, 189141, Control_c, 0, 64, 58
2, 189163, Note_on_c, 0, 57, 0
2, 189179, Control_c, 0, 64, 57
2, 189179, Control_c, 0, 67, 37
2, 189199, Note_on_c, 0, 50, 0
2, 189204, Note_on_c, 0, 61, 61
2, 189216, Control_c, 0, 64, 56
2, 189273, Control_c, 0, 64, 55
2, 189390, Control_c, 0, 67, 38
2, 189429, Control_c, 0, 64, 54
2, 189468, Note_on_c, 0, 62, 0
2, 189600, Control_c, 0, 64, 55
2, 189657, Note_on_c, 0, 68, 80
2, 189687, Note_on_c, 0, 59, 44
2, 189773, Control_c, 0, 64, 56
2, 189814, Control_c, 0, 64, 57
2, 189814, Control_c, 0, 67, 37
2, 189830, Control_c, 0, 64, 58
2, 189870, Control_c, 0, 64, 59
2, 189888, Control_c, 0, 64, 60
2, 189910, Control_c, 0, 64, 61
2, 189930, Control_c, 0, 64, 62
2, 189946, Control_c, 0, 64, 63
2, 189968, Control_c, 0, 64, 64
2, 189983, Control_c, 0, 64, 67
2, 190006, Control_c, 0, 64, 70
2, 190025, Control_c, 0, 64, 72
2, 190063, Control_c, 0, 64, 71
2, 190101, Control_c, 0, 64, 70
2, 190115, Note_on_c, 0, 47, 70
2, 190119, Control_c, 0, 64, 69
2, 190157, Control_c, 0, 64, 68
2, 190175, Control_c, 0, 64, 67
2, 190193, Control_c, 0, 64, 66
2, 190213, Control_c, 0, 64, 65
2, 190234, Control_c, 0, 64, 64
2, 190272, Control_c, 0, 64, 63
2, 190291, Control_c, 0, 64, 62
2, 190331, Control_c, 0, 64, 61
2, 190357, Note_on_c, 0, 54, 0
2, 190374, Note_on_c, 0, 59, 0
2, 190388, Control_c, 0, 64, 60
2, 190446, Control_c, 0, 64, 59
2, 190482, Control_c, 0, 67, 38
2, 190502, Control_c, 0, 64, 58
2, 190512, Note_on_c, 0, 61, 0
2, 190523, Control_c, 0, 64, 57
2, 190541, Control_c, 0, 64, 56
2, 190559, Control_c, 0, 64, 55
2, 190579, Control_c, 0, 64, 54
2, 190589, Note_on_c, 0, 52, 71
2, 190601, Control_c, 0, 64, 53
2, 190638, Control_c, 0, 64, 52
2, 190638, Control_c, 0, 67, 39
2, 190675, Control_c, 0, 64, 51
2, 190792, Control_c, 0, 64, 50
2, 190856, Note_on_c, 0, 47, 0
2, 190867, Control_c, 0, 67, 40
2, 191014, Note_on_c, 0, 59, 70
2, 191025, Note_on_c, 0, 50, 57
2, 191061, Control_c, 0, 67, 39
2, 191099, Control_c, 0, 64, 49
2, 191193, Control_c, 0, 64, 48
2, 191241, Note_on_c, 0, 52, 0
2, 191289, Control_c, 0, 67, 40
2, 191467, Note_on_c, 0, 69, 65
2, 191480, Note_on_c, 0, 49, 51
2, 191499, Note_on_c, 0, 64, 48
2, 191520, Control_c, 0, 64, 47
2, 191539, Control_c, 0, 64, 46
2, 191559, Control_c, 0, 64, 42
2, 191577, Control_c, 0, 64, 38
2, 191597, Control_c, 0, 64, 33
2, 191617, Control_c, 0, 64, 30
2, 191628, Note_on_c, 0, 68, 0
2, 191635, Control_c, 0, 64, 29
2, 191662, Note_on_c, 0, 59, 0
2, 191675, Note_on_c, 0, 50, 0
2, 191711, Control_c, 0, 64, 30
2, 191751, Control_c, 0, 64, 31
2, 191809, Control_c, 0, 64, 32
2, 191915, Note_on_c, 0, 52, 68
2, 191936, Note_on_c, 0, 62, 61
2, 191962, Note_on_c, 0, 47, 43
2, 192066, Note_on_c, 0, 64, 0
2, 192071, Note_on_c, 0, 49, 0
2, 192117, Control_c, 0, 64, 31
2, 192381, Note_on_c, 0, 57, 76
2, 192398, Note_on_c, 0, 61, 51
2, 192409, Note_on_c, 0, 45, 55
2, 192413, Note_on_c, 0, 62, 0
2, 192505, Note_on_c, 0, 47, 0
2, 192520, Control_c, 0, 64, 30
2, 192561, Control_c, 0, 64, 29
2, 192561, Note_on_c, 0, 52, 0
2, 192576, Control_c, 0, 64, 28
2, 192580, Control_c, 0, 67, 41
2, 192595, Control_c, 0, 64, 27
2, 192709, Control_c, 0, 67, 42
2, 192815, Note_on_c, 0, 64, 81
2, 192819, Note_on_c, 0, 55, 58
2, 192990, Note_on_c, 0, 57, 0
2, 192990, Note_on_c, 0, 69, 0
2, 193059, Control_c, 0, 67, 41
2, 193173, Control_c, 0, 67, 40
2, 193250, Control_c, 0, 67, 39
2, 193259, Note_on_c, 0, 69, 79
2, 193285, Note_on_c, 0, 54, 59
2, 193348, Control_c, 0, 67, 38
2, 193386, Note_on_c, 0, 55, 0
2, 193421, Note_on_c, 0, 64, 0
2, 193541, Note_on_c, 0, 45, 0
2, 193576, Control_c, 0, 67, 39
2, 193632, Control_c, 0, 67, 40
2, 193686, Note_on_c, 0, 45, 69
2, 193693, Note_on_c, 0, 67, 77
2, 193771, Note_on_c, 0, 52, 8
2, 193881, Note_on_c, 0, 54, 0
2, 193910, Note_on_c, 0, 69, 0
2, 194160, Note_on_c, 0, 50, 70
2, 194171, Note_on_c, 0, 66, 70
2, 194238, Note_on_c, 0, 67, 0
2, 194344, Note_on_c, 0, 61, 0
2, 194348, Note_on_c, 0, 52, 0
2, 194453, Note_on_c, 0, 45, 0
2, 194536, Control_c, 0, 64, 26
2, 194611, Note_on_c, 0, 57, 73
2, 194620, Note_on_c, 0, 49, 57
2, 194766, Control_c, 0, 67, 41
2, 194813, Note_on_c, 0, 50, 0
2, 195063, Note_on_c, 0, 62, 65
2, 195065, Note_on_c, 0, 47, 52
2, 195214, Note_on_c, 0, 57, 0
2, 195218, Note_on_c, 0, 49, 0
2, 195235, Note_on_c, 0, 66, 0
2, 195498, Control_c, 0, 64, 27
2, 195498, Note_on_c, 0, 61, 56
2, 195502, Note_on_c, 0, 45, 53
2, 195520, Note_on_c, 0, 47, 0
2, 195520, Note_on_c, 0, 50, 49
2, 195538, Control_c, 0, 64, 29
2, 195546, Note_on_c, 0, 62, 0
2, 195555, Control_c, 0, 64, 31
2, 195573, Control_c, 0, 64, 34
2, 195593, Control_c, 0, 64, 36
2, 195612, Control_c, 0, 64, 38
2, 195629, Control_c, 0, 64, 41
2, 195650, Control_c, 0, 64, 43
2, 195669, Control_c, 0, 64, 46
2, 195691, Control_c, 0, 64, 49
2, 195784, Control_c, 0, 64, 48
2, 195824, Control_c, 0, 64, 47
2, 195878, Control_c, 0, 64, 46
2, 195920, Control_c, 0, 64, 45
2, 195939, Control_c, 0, 64, 44
2, 195973, Note_on_c, 0, 64, 69
2, 195978, Control_c, 0, 64, 43
2, 195982, Note_on_c, 0, 55, 48
2, 195982, Note_on_c, 0, 59, 54
2, 195991, Note_on_c, 0, 43, 39
2, 195997, Note_on_c, 0, 50, 0
2, 196002, Control_c, 0, 64, 42
2, 196002, Control_c, 0, 67, 40
2, 196034, Control_c, 0, 64, 41
2, 196053, Control_c, 0, 64, 40
2, 196072, Control_c, 0, 64, 38
2, 196088, Note_on_c, 0, 61, 0
2, 196092, Control_c, 0, 64, 37
2, 196103, Note_on_c, 0, 45, 0
2, 196111, Control_c, 0, 64, 35
2, 196129, Control_c, 0, 64, 34
2, 196171, Control_c, 0, 64, 33
2, 196226, Control_c, 0, 64, 32
2, 196379, Control_c, 0, 64, 31
2, 196433, Note_on_c, 0, 62, 69
2, 196451, Note_on_c, 0, 54, 41
2, 196546, Note_on_c, 0, 64, 0
2, 196577, Note_on_c, 0, 55, 0
2, 196705, Control_c, 0, 67, 41
2, 196763, Control_c, 0, 67, 42
2, 196801, Control_c, 0, 67, 43
2, 196821, Control_c, 0, 67, 44
2, 196843, Control_c, 0, 67, 45
2, 196860, Control_c, 0, 67, 46
2, 196878, Control_c, 0, 67, 47
2, 196883, Note_on_c, 0, 54, 0
2, 196890, Note_on_c, 0, 52, 46
2, 196892, Note_on_c, 0, 61, 56
2, 196902, Control_c, 0, 67, 49
2, 196902, Note_on_c, 0, 57, 50
2, 196936, Control_c, 0, 67, 51
2, 196961, Note_on_c, 0, 62, 0
2, 196974, Control_c, 0, 67, 57
2, 196995, Control_c, 0, 67, 68
2, 197008, Note_on_c, 0, 59, 0
2, 197014, Control_c, 0, 67, 80
2, 197032, Control_c, 0, 67, 87
2, 197051, Control_c, 0, 67, 95
2, 197072, Control_c, 0, 64, 32
2, 197072, Control_c, 0, 67, 103
2, 197081, Note_on_c, 0, 43, 0
2, 197090, Control_c, 0, 67, 113
2, 197111, Control_c, 0, 67, 123
2, 197129, Control_c, 0, 64, 33
2, 197129, Control_c, 0, 67, 127
2, 197166, Control_c, 0, 64, 34
2, 197186, Control_c, 0, 64, 35
2, 197224, Control_c, 0, 64, 36
2, 197244, Control_c, 0, 64, 37
2, 197264, Control_c, 0, 64, 38
2, 197282, Control_c, 0, 64, 39
2, 197304, Control_c, 0, 64, 41
2, 197321, Control_c, 0, 64, 42
2, 197340, Control_c, 0, 64, 44
2, 197340, Note_on_c, 0, 42, 50
2, 197362, Control_c, 0, 64, 47
2, 197378, Control_c, 0, 64, 52
2, 197398, Control_c, 0, 64, 57
2, 197417, Control_c, 0, 64, 61
2, 197436, Control_c, 0, 64, 64
2, 197455, Control_c, 0, 64, 67
2, 197472, Control_c, 0, 64, 72
2, 197485, Note_on_c, 0, 52, 0
2, 197494, Control_c, 0, 64, 82
2, 197512, Control_c, 0, 64, 96
2, 197530, Control_c, 0, 64, 118
2, 197549, Control_c, 0, 64, 127
2, 197565, Note_on_c, 0, 61, 0
2, 197761, Control_c, 0, 64, 101
2, 197781, Control_c, 0, 64, 90
2, 197792, Note_on_c, 0, 50, 43
2, 197797, Note_on_c, 0, 62, 68
2, 197801, Control_c, 0, 64, 83
2, 197801, Note_on_c, 0, 47, 42
2, 197822, Control_c, 0, 64, 78
2, 197822, Note_on_c, 0, 56, 55
2, 197840, Control_c, 0, 64, 73
2, 197857, Control_c, 0, 64, 68
2, 197877, Control_c, 0, 64, 64
2, 197895, Control_c, 0, 64, 59
2, 197915, Control_c, 0, 64, 55
2, 197934, Control_c, 0, 64, 53
2, 197953, Control_c, 0, 64, 51
2, 197962, Note_on_c, 0, 57, 0
2, 197972, Control_c, 0, 64, 50
2, 197987, Note_on_c, 0, 42, 0
2, 197992, Control_c, 0, 64, 48
2, 198012, Control_c, 0, 64, 45
2, 198014, Control_c, 0, 67, 125
2, 198031, Control_c, 0, 64, 41
2, 198036, Control_c, 0, 67, 118
2, 198051, Control_c, 0, 64, 37
2, 198051, Control_c, 0, 67, 109
2, 198069, Control_c, 0, 64, 34
2, 198073, Control_c, 0, 67, 98
2, 198091, Control_c, 0, 64, 32
2, 198091, Control_c, 0, 67, 85
2, 198109, Control_c, 0, 64, 30
2, 198109, Control_c, 0, 67, 72
2, 198128, Control_c, 0, 64, 28
2, 198128, Control_c, 0, 67, 58
2, 198148, Control_c, 0, 64, 25
2, 198148, Control_c, 0, 67, 42
2, 198166, Control_c, 0, 64, 22
2, 198168, Control_c, 0, 67, 28
2, 198184, Control_c, 0, 64, 21
2, 198189, Control_c, 0, 67, 17
2, 198206, Control_c, 0, 64, 20
2, 198206, Control_c, 0, 67, 9
2, 198224, Control_c, 0, 64, 19
2, 198224, Control_c, 0, 67, 0
2, 198244, Control_c, 0, 64, 18
2, 198260, Control_c, 0, 64, 17
2, 198264, Note_on_c, 0, 54, 57
2, 198273, Note_on_c, 0, 49, 34
2, 198281, Control_c, 0, 64, 16
2, 198285, Note_on_c, 0, 45, 34
2, 198300, Control_c, 0, 64, 15
2, 198357, Control_c, 0, 64, 14
2, 198378, Control_c, 0, 64, 13
2, 198396, Note_on_c, 0, 50, 0
2, 198400, Note_on_c, 0, 47, 0
2, 198442, Note_on_c, 0, 56, 0
2, 198590, Control_c, 0, 64, 14
2, 198628, Control_c, 0, 64, 15
2, 198664, Control_c, 0, 64, 16
2, 198704, Control_c, 0, 64, 17
2, 198704, Note_on_c, 0, 54, 0
2, 198733, Note_on_c, 0, 52, 48
2, 198745, Note_on_c, 0, 44, 45
2, 198752, Note_on_c, 0, 47, 48
2, 198762, Control_c, 0, 64, 18
2, 198838, Control_c, 0, 64, 19
2, 198871, Note_on_c, 0, 62, 0
2, 198889, Note_on_c, 0, 49, 0
2, 198915, Note_on_c, 0, 45, 0
2, 199230, Note_on_c, 0, 71, 68
2, 199449, Note_on_c, 0, 69, 76
2, 199471, Control_c, 0, 64, 20
2, 199528, Note_on_c, 0, 71, 0
2, 199695, Note_on_c, 0, 71, 77
2, 199788, Note_on_c, 0, 69, 0
2, 200163, Note_on_c, 0, 62, 62
2, 200232, Note_on_c, 0, 52, 0
2, 200344, Note_on_c, 0, 71, 0
2, 200648, Note_on_c, 0, 52, 46
2, 200653, Note_on_c, 0, 61, 50
2, 200678, Note_on_c, 0, 45, 32
2, 200776, Note_on_c, 0, 62, 0
2, 200846, Note_on_c, 0, 44, 0
2, 200938, Note_on_c, 0, 47, 0
2, 201162, Note_on_c, 0, 64, 79
2, 201202, Control_c, 0, 64, 22
2, 201218, Control_c, 0, 64, 23
2, 201236, Control_c, 0, 64, 25
2, 201256, Control_c, 0, 64, 27
2, 201275, Control_c, 0, 64, 29
2, 201297, Control_c, 0, 64, 33
2, 201312, Control_c, 0, 64, 38
2, 201331, Control_c, 0, 64, 46
2, 201353, Control_c, 0, 64, 58
2, 201372, Control_c, 0, 64, 64
2, 201390, Control_c, 0, 64, 66
2, 201410, Control_c, 0, 64, 71
2, 201428, Control_c, 0, 64, 77
2, 201449, Control_c, 0, 64, 83
2, 201467, Control_c, 0, 64, 85
2, 201496, Note_on_c, 0, 64, 0
2, 201564, Control_c, 0, 64, 84
2, 201602, Control_c, 0, 64, 83
2, 201620, Control_c, 0, 64, 81
2, 201633, Note_on_c, 0, 43, 68
2, 201633, Note_on_c, 0, 64, 87
2, 201642, Control_c, 0, 64, 79
2, 201659, Control_c, 0, 64, 76
2, 201678, Control_c, 0, 64, 72
2, 201697, Control_c, 0, 64, 67
2, 201716, Control_c, 0, 64, 63
2, 201736, Control_c, 0, 64, 60
2, 201758, Control_c, 0, 64, 57
2, 201773, Control_c, 0, 64, 55
2, 201794, Control_c, 0, 64, 52
2, 201798, Note_on_c, 0, 45, 0
2, 201814, Control_c, 0, 64, 47
2, 201832, Control_c, 0, 64, 41
2, 201854, Control_c, 0, 64, 38
2, 201871, Control_c, 0, 64, 37
2, 201891, Control_c, 0, 64, 39
2, 201909, Control_c, 0, 64, 41
2, 201926, Control_c, 0, 64, 44
2, 201948, Control_c, 0, 64, 47
2, 201965, Control_c, 0, 64, 51
2, 201983, Note_on_c, 0, 64, 0
2, 201987, Control_c, 0, 64, 58
2, 202006, Control_c, 0, 64, 61
2, 202045, Control_c, 0, 64, 62
2, 202062, Control_c, 0, 64, 63
2, 202082, Control_c, 0, 64, 64
2, 202091, Note_on_c, 0, 64, 86
2, 202102, Control_c, 0, 64, 65
2, 202120, Control_c, 0, 64, 67
2, 202139, Control_c, 0, 64, 69
2, 202161, Control_c, 0, 64, 71
2, 202178, Control_c, 0, 64, 74
2, 202200, Control_c, 0, 64, 75
2, 202254, Control_c, 0, 64, 76
2, 202272, Control_c, 0, 64, 77
2, 202291, Control_c, 0, 64, 80
2, 202314, Control_c, 0, 64, 85
2, 202333, Control_c, 0, 64, 95
2, 202350, Control_c, 0, 64, 120
2, 202370, Control_c, 0, 64, 127
2, 202410, Note_on_c, 0, 61, 0
2, 202574, Note_on_c, 0, 57, 90
2, 202580, Note_on_c, 0, 42, 63
2, 202583, Control_c, 0, 64, 101
2, 202600, Control_c, 0, 64, 87
2, 202621, Control_c, 0, 64, 75
2, 202639, Control_c, 0, 64, 65
2, 202643, Note_on_c, 0, 43, 0
2, 202658, Control_c, 0, 64, 58
2, 202677, Control_c, 0, 64, 53
2, 202695, Control_c, 0, 64, 51
2, 202715, Control_c, 0, 64, 48
2, 202733, Control_c, 0, 64, 40
2, 202754, Control_c, 0, 64, 27
2, 202772, Control_c, 0, 64, 14
2, 202785, Note_on_c, 0, 52, 0
2, 202795, Control_c, 0, 64, 15
2, 202795, Note_on_c, 0, 64, 0
2, 202812, Control_c, 0, 64, 20
2, 202829, Control_c, 0, 64, 27
2, 202849, Control_c, 0, 64, 35
2, 202869, Control_c, 0, 64, 46
2, 202888, Control_c, 0, 64, 59
2, 202906, Control_c, 0, 64, 64
2, 202926, Control_c, 0, 64, 65
2, 202945, Control_c, 0, 64, 68
2, 202965, Control_c, 0, 64, 73
2, 202983, Control_c, 0, 64, 82
2, 203004, Control_c, 0, 64, 92
2, 203024, Control_c, 0, 64, 100
2, 203042, Control_c, 0, 64, 106
2, 203058, Note_on_c, 0, 42, 0
2, 203062, Control_c, 0, 64, 113
2, 203062, Note_on_c, 0, 55, 52
2, 203064, Note_on_c, 0, 64, 81
2, 203082, Control_c, 0, 64, 127
2, 203261, Note_on_c, 0, 57, 0
2, 203446, Control_c, 0, 64, 120
2, 203465, Control_c, 0, 64, 112
2, 203483, Control_c, 0, 64, 107
2, 203501, Control_c, 0, 64, 103
2, 203516, Note_on_c, 0, 54, 62
2, 203522, Control_c, 0, 64, 97
2, 203522, Note_on_c, 0, 60, 88
2, 203542, Control_c, 0, 64, 92
2, 203546, Note_on_c, 0, 69, 68
2, 203564, Control_c, 0, 64, 88
2, 203579, Control_c, 0, 64, 83
2, 203597, Control_c, 0, 64, 75
2, 203617, Control_c, 0, 64, 69
2, 203637, Control_c, 0, 64, 65
2, 203655, Control_c, 0, 64, 62
2, 203674, Control_c, 0, 64, 61
2, 203738, Note_on_c, 0, 55, 0
2, 203774, Control_c, 0, 64, 60
2, 203774, Note_on_c, 0, 64, 0
2, 203849, Control_c, 0, 64, 59
2, 203867, Control_c, 0, 64, 58
2, 203925, Control_c, 0, 64, 57
2, 203943, Control_c, 0, 64, 55
2, 203963, Control_c, 0, 64, 53
2, 203967, Note_on_c, 0, 67, 78
2, 203971, Note_on_c, 0, 52, 67
2, 203983, Control_c, 0, 64, 51
2, 204001, Control_c, 0, 64, 50
2, 204021, Control_c, 0, 64, 49
2, 204080, Control_c, 0, 64, 48
2, 204116, Control_c, 0, 64, 47
2, 204136, Control_c, 0, 64, 46
2, 204147, Note_on_c, 0, 69, 0
2, 204158, Control_c, 0, 64, 45
2, 204173, Control_c, 0, 64, 44
2, 204216, Note_on_c, 0, 54, 0
2, 204432, Note_on_c, 0, 51, 62
2, 204432, Note_on_c, 0, 66, 77
2, 204440, Note_on_c, 0, 47, 52
2, 204519, Control_c, 0, 64, 45
2, 204530, Note_on_c, 0, 67, 0
2, 204636, Control_c, 0, 64, 46
2, 204653, Control_c, 0, 64, 47
2, 204669, Note_on_c, 0, 52, 0
2, 204674, Control_c, 0, 64, 48
2, 204713, Control_c, 0, 64, 49
2, 204827, Control_c, 0, 64, 48
2, 204881, Note_on_c, 0, 54, 73
2, 204905, Control_c, 0, 64, 47
2, 204979, Control_c, 0, 64, 46
2, 205031, Note_on_c, 0, 60, 0
2, 205097, Note_on_c, 0, 51, 0
2, 205331, Note_on_c, 0, 59, 76
2, 205580, Note_on_c, 0, 54, 0
2, 205780, Note_on_c, 0, 57, 78
2, 205943, Note_on_c, 0, 59, 0
2, 206225, Note_on_c, 0, 55, 60
2, 206230, Note_on_c, 0, 52, 51
2, 206382, Note_on_c, 0, 57, 0
2, 206470, Note_on_c, 0, 47, 0
2, 206712, Note_on_c, 0, 50, 46
2, 206717, Note_on_c, 0, 71, 90
2, 206755, Note_on_c, 0, 59, 58
2, 206787, Control_c, 0, 64, 45
2, 206805, Control_c, 0, 64, 44
2, 206823, Note_on_c, 0, 52, 0
2, 206825, Control_c, 0, 64, 42
2, 206837, Note_on_c, 0, 66, 0
2, 206844, Control_c, 0, 64, 36
2, 206862, Control_c, 0, 64, 32
2, 206902, Control_c, 0, 64, 31
2, 206939, Control_c, 0, 64, 32
2, 206958, Control_c, 0, 64, 35
2, 206979, Control_c, 0, 64, 43
2, 206994, Note_on_c, 0, 55, 0
2, 206999, Control_c, 0, 64, 58
2, 207016, Control_c, 0, 64, 66
2, 207035, Control_c, 0, 64, 73
2, 207056, Control_c, 0, 64, 89
2, 207072, Control_c, 0, 64, 112
2, 207092, Control_c, 0, 64, 127
2, 207099, Note_on_c, 0, 71, 0
2, 207197, Note_on_c, 0, 71, 98
2, 207210, Control_c, 0, 64, 107
2, 207210, Note_on_c, 0, 55, 52
2, 207228, Control_c, 0, 64, 91
2, 207228, Note_on_c, 0, 64, 59
2, 207246, Control_c, 0, 64, 75
2, 207266, Control_c, 0, 64, 62
2, 207284, Control_c, 0, 64, 48
2, 207304, Control_c, 0, 64, 34
2, 207326, Control_c, 0, 64, 30
2, 207360, Control_c, 0, 64, 31
2, 207382, Control_c, 0, 64, 35
2, 207403, Control_c, 0, 64, 41
2, 207420, Control_c, 0, 64, 54
2, 207438, Control_c, 0, 64, 64
2, 207447, Note_on_c, 0, 59, 0
2, 207458, Control_c, 0, 64, 71
2, 207480, Control_c, 0, 64, 86
2, 207496, Control_c, 0, 64, 122
2, 207509, Note_on_c, 0, 71, 0
2, 207516, Control_c, 0, 64, 127
2, 207635, Note_on_c, 0, 71, 94
2, 207650, Control_c, 0, 64, 113
2, 207667, Note_on_c, 0, 62, 75
2, 207672, Control_c, 0, 64, 91
2, 207689, Control_c, 0, 64, 73
2, 207707, Control_c, 0, 64, 62
2, 207727, Control_c, 0, 64, 46
2, 207745, Control_c, 0, 64, 35
2, 207768, Control_c, 0, 64, 33
2, 207781, Note_on_c, 0, 64, 0
2, 207783, Control_c, 0, 64, 34
2, 207802, Control_c, 0, 64, 36
2, 207821, Control_c, 0, 64, 41
2, 207841, Control_c, 0, 64, 51
2, 207859, Control_c, 0, 64, 63
2, 207882, Control_c, 0, 64, 71
2, 207899, Control_c, 0, 64, 85
2, 207920, Control_c, 0, 64, 108
2, 207936, Control_c, 0, 64, 127
2, 207946, Note_on_c, 0, 71, 0
2, 208093, Control_c, 0, 64, 101
2, 208094, Note_on_c, 0, 64, 88
2, 208111, Control_c, 0, 64, 86
2, 208116, Note_on_c, 0, 61, 65
2, 208131, Control_c, 0, 64, 73
2, 208150, Control_c, 0, 64, 62
2, 208168, Control_c, 0, 64, 54
2, 208187, Control_c, 0, 64, 48
2, 208207, Control_c, 0, 64, 46
2, 208222, Note_on_c, 0, 62, 0
2, 208227, Control_c, 0, 64, 42
2, 208247, Control_c, 0, 64, 25
2, 208264, Control_c, 0, 64, 0
2, 208551, Note_on_c, 0, 59, 77
2, 208569, Control_c, 0, 64, 22
2, 208587, Control_c, 0, 64, 34
2, 208607, Control_c, 0, 64, 43
2, 208626, Control_c, 0, 64, 50
2, 208646, Control_c, 0, 64, 56
2, 208664, Control_c, 0, 64, 59
2, 208673, Note_on_c, 0, 61, 0
2, 208685, Control_c, 0, 64, 60
2, 208703, Control_c, 0, 64, 63
2, 208724, Control_c, 0, 64, 66
2, 208741, Control_c, 0, 64, 71
2, 208762, Control_c, 0, 64, 78
2, 208779, Control_c, 0, 64, 85
2, 208800, Control_c, 0, 64, 87
2, 208810, Note_on_c, 0, 64, 0
2, 208877, Control_c, 0, 64, 86
2, 208913, Control_c, 0, 64, 85
2, 208935, Control_c, 0, 64, 83
2, 208956, Control_c, 0, 64, 82
2, 208972, Control_c, 0, 64, 79
2, 208976, Note_on_c, 0, 67, 88
2, 208992, Control_c, 0, 64, 76
2, 208996, Note_on_c, 0, 49, 57
2, 209011, Note_on_c, 0, 58, 65
2, 209016, Control_c, 0, 64, 72
2, 209029, Control_c, 0, 64, 68
2, 209049, Control_c, 0, 64, 64
2, 209071, Control_c, 0, 64, 60
2, 209085, Note_on_c, 0, 50, 0
2, 209089, Control_c, 0, 64, 58
2, 209106, Control_c, 0, 64, 57
2, 209164, Control_c, 0, 64, 55
2, 209186, Control_c, 0, 64, 53
2, 209203, Control_c, 0, 64, 49
2, 209216, Note_on_c, 0, 59, 0
2, 209225, Control_c, 0, 64, 45
2, 209242, Control_c, 0, 64, 40
2, 209259, Control_c, 0, 64, 36
2, 209278, Control_c, 0, 64, 32
2, 209298, Control_c, 0, 64, 28
2, 209317, Control_c, 0, 64, 25
2, 209338, Control_c, 0, 64, 22
2, 209355, Control_c, 0, 64, 20
2, 209371, Note_on_c, 0, 55, 0
2, 209375, Control_c, 0, 64, 19
2, 209395, Control_c, 0, 64, 17
2, 209415, Control_c, 0, 64, 15
2, 209442, Note_on_c, 0, 50, 65
2, 209442, Note_on_c, 0, 59, 66
2, 209471, Control_c, 0, 64, 14
2, 209491, Control_c, 0, 64, 13
2, 209496, Note_on_c, 0, 58, 0
2, 209664, Note_on_c, 0, 49, 0
2, 209870, Note_on_c, 0, 52, 67
2, 209888, Note_on_c, 0, 61, 58
2, 209948, Note_on_c, 0, 59, 0
2, 209972, Note_on_c, 0, 50, 0
2, 209993, Control_c, 0, 64, 14
2, 210008, Control_c, 0, 64, 16
2, 210028, Control_c, 0, 64, 20
2, 210046, Control_c, 0, 64, 27
2, 210066, Control_c, 0, 64, 38
2, 210086, Control_c, 0, 64, 57
2, 210106, Control_c, 0, 64, 64
2, 210124, Control_c, 0, 64, 65
2, 210144, Control_c, 0, 64, 67
2, 210163, Control_c, 0, 64, 69
2, 210183, Control_c, 0, 64, 73
2, 210200, Control_c, 0, 64, 76
2, 210209, Note_on_c, 0, 61, 0
2, 210239, Control_c, 0, 64, 75
2, 210261, Control_c, 0, 64, 74
2, 210279, Control_c, 0, 64, 73
2, 210298, Control_c, 0, 64, 72
2, 210317, Control_c, 0, 64, 70
2, 210317, Note_on_c, 0, 55, 63
2, 210327, Note_on_c, 0, 64, 73
2, 210334, Control_c, 0, 64, 67
2, 210343, Note_on_c, 0, 61, 61
2, 210354, Control_c, 0, 64, 62
2, 210374, Control_c, 0, 64, 55
2, 210392, Note_on_c, 0, 52, 0
2, 210396, Control_c, 0, 64, 46
2, 210412, Control_c, 0, 64, 37
2, 210431, Control_c, 0, 64, 34
2, 210451, Control_c, 0, 64, 35
2, 210459, Note_on_c, 0, 67, 0
2, 210473, Control_c, 0, 64, 39
2, 210487, Control_c, 0, 64, 45
2, 210508, Control_c, 0, 64, 56
2, 210526, Control_c, 0, 64, 65
2, 210546, Control_c, 0, 64, 70
2, 210568, Control_c, 0, 64, 78
2, 210585, Control_c, 0, 64, 86
2, 210594, Note_on_c, 0, 55, 0
2, 210605, Control_c, 0, 64, 92
2, 210626, Control_c, 0, 64, 94
2, 210641, Control_c, 0, 64, 93
2, 210661, Control_c, 0, 64, 91
2, 210681, Control_c, 0, 64, 89
2, 210701, Control_c, 0, 64, 88
2, 210721, Control_c, 0, 64, 86
2, 210739, Control_c, 0, 64, 83
2, 210761, Control_c, 0, 64, 79
2, 210779, Note_on_c, 0, 54, 58
2, 210779, Note_on_c, 0, 66, 76
2, 210783, Control_c, 0, 64, 75
2, 210790, Note_on_c, 0, 46, 53
2, 210799, Control_c, 0, 64, 70
2, 210799, Note_on_c, 0, 62, 58
2, 210815, Control_c, 0, 64, 65
2, 210837, Control_c, 0, 64, 60
2, 210855, Control_c, 0, 64, 56
2, 210875, Control_c, 0, 64, 51
2, 210893, Control_c, 0, 64, 45
2, 210908, Note_on_c, 0, 61, 0
2, 210909, Note_on_c, 0, 64, 0
2, 210915, Control_c, 0, 64, 36
2, 210931, Control_c, 0, 64, 30
2, 210949, Control_c, 0, 64, 25
2, 210972, Control_c, 0, 64, 20
2, 210989, Control_c, 0, 64, 15
2, 211007, Control_c, 0, 64, 9
2, 211027, Control_c, 0, 64, 0
2, 211209, Note_on_c, 0, 64, 63
2, 211217, Note_on_c, 0, 61, 41
2, 211239, Control_c, 0, 67, 11
2, 211256, Control_c, 0, 67, 18
2, 211275, Control_c, 0, 67, 21
2, 211317, Note_on_c, 0, 66, 0
2, 211319, Note_on_c, 0, 62, 0
2, 211372, Control_c, 0, 67, 20
2, 211412, Control_c, 0, 67, 19
2, 211448, Control_c, 0, 67, 18
2, 211486, Control_c, 0, 67, 17
2, 211525, Control_c, 0, 67, 16
2, 211564, Control_c, 0, 67, 15
2, 211602, Control_c, 0, 67, 14
2, 211618, Note_on_c, 0, 64, 0
2, 211622, Control_c, 0, 67, 13
2, 211627, Note_on_c, 0, 54, 0
2, 211653, Note_on_c, 0, 47, 45
2, 211659, Control_c, 0, 67, 12
2, 211669, Note_on_c, 0, 62, 47
2, 211672, Note_on_c, 0, 59, 44
2, 211680, Control_c, 0, 67, 11
2, 211720, Control_c, 0, 67, 10
2, 211720, Note_on_c, 0, 61, 0
2, 211734, Note_on_c, 0, 46, 0
2, 211739, Control_c, 0, 67, 9
2, 211757, Control_c, 0, 64, 14
2, 211778, Control_c, 0, 64, 20
2, 211778, Control_c, 0, 67, 8
2, 211795, Control_c, 0, 64, 28
2, 211815, Control_c, 0, 64, 38
2, 211837, Control_c, 0, 64, 50
2, 211837, Control_c, 0, 67, 0
2, 211852, Control_c, 0, 64, 59
2, 211871, Control_c, 0, 64, 64
2, 211903, Note_on_c, 0, 62, 0
2, 211947, Control_c, 0, 64, 63
2, 212005, Control_c, 0, 64, 62
2, 212025, Control_c, 0, 64, 61
2, 212082, Control_c, 0, 64, 60
2, 212108, Note_on_c, 0, 66, 61
2, 212119, Note_on_c, 0, 57, 46
2, 212142, Control_c, 0, 64, 59
2, 212255, Control_c, 0, 64, 58
2, 212283, Note_on_c, 0, 59, 0
2, 212371, Control_c, 0, 64, 57
2, 212389, Control_c, 0, 64, 56
2, 212408, Control_c, 0, 64, 55
2, 212447, Control_c, 0, 64, 54
2, 212505, Control_c, 0, 64, 53
2, 212543, Control_c, 0, 64, 52
2, 212555, Note_on_c, 0, 71, 72
2, 212566, Control_c, 0, 64, 51
2, 212579, Note_on_c, 0, 56, 41
2, 212620, Control_c, 0, 64, 50
2, 212659, Control_c, 0, 64, 49
2, 212680, Note_on_c, 0, 57, 0
2, 212719, Control_c, 0, 64, 48
2, 212719, Note_on_c, 0, 66, 0
2, 212736, Control_c, 0, 64, 47
2, 212773, Control_c, 0, 64, 46
2, 212794, Control_c, 0, 64, 45
2, 212949, Control_c, 0, 64, 44
2, 212997, Note_on_c, 0, 54, 55
2, 212997, Note_on_c, 0, 69, 62
2, 213097, Note_on_c, 0, 56, 0
2, 213116, Note_on_c, 0, 71, 0
2, 213273, Control_c, 0, 64, 45
2, 213293, Control_c, 0, 64, 46
2, 213330, Control_c, 0, 64, 47
2, 213426, Control_c, 0, 64, 48
2, 213456, Note_on_c, 0, 68, 71
2, 213474, Note_on_c, 0, 52, 48
2, 213522, Control_c, 0, 67, 8
2, 213542, Note_on_c, 0, 69, 0
2, 213583, Note_on_c, 0, 54, 0
2, 213618, Control_c, 0, 64, 49
2, 213657, Control_c, 0, 64, 50
2, 213679, Control_c, 0, 64, 51
2, 213694, Control_c, 0, 64, 52
2, 213714, Control_c, 0, 64, 53
2, 213734, Control_c, 0, 64, 54
2, 213865, Note_on_c, 0, 47, 0
2, 213903, Note_on_c, 0, 71, 84
2, 213907, Note_on_c, 0, 50, 56
2, 213911, Control_c, 0, 64, 53
2, 213944, Control_c, 0, 67, 9
2, 214043, Control_c, 0, 64, 52
2, 214082, Control_c, 0, 67, 10
2, 214104, Note_on_c, 0, 68, 0
2, 214121, Control_c, 0, 64, 51
2, 214165, Note_on_c, 0, 52, 0
2, 214234, Control_c, 0, 64, 50
2, 214289, Control_c, 0, 67, 9
2, 214329, Control_c, 0, 64, 49
2, 214351, Note_on_c, 0, 76, 91
2, 214356, Note_on_c, 0, 49, 63
2, 214389, Control_c, 0, 64, 48
2, 214462, Control_c, 0, 64, 47
2, 214482, Control_c, 0, 64, 46
2, 214522, Control_c, 0, 64, 45
2, 214522, Note_on_c, 0, 50, 0
2, 214540, Control_c, 0, 64, 44
2, 214556, Note_on_c, 0, 71, 0
2, 214560, Control_c, 0, 64, 43
2, 214577, Control_c, 0, 64, 42
2, 214599, Control_c, 0, 64, 41
2, 214616, Control_c, 0, 64, 39
2, 214638, Control_c, 0, 64, 38
2, 214656, Control_c, 0, 64, 37
2, 214678, Control_c, 0, 67, 8
2, 214713, Control_c, 0, 64, 36
2, 214735, Control_c, 0, 67, 0
2, 214808, Note_on_c, 0, 47, 67
2, 214808, Note_on_c, 0, 74, 90
2, 214829, Control_c, 0, 64, 35
2, 214952, Note_on_c, 0, 76, 0
2, 215000, Control_c, 0, 64, 34
2, 215052, Note_on_c, 0, 49, 0
2, 215278, Note_on_c, 0, 73, 91
2, 215303, Note_on_c, 0, 45, 52
2, 215327, Note_on_c, 0, 74, 0
2, 215455, Note_on_c, 0, 47, 0
2, 215637, Control_c, 0, 64, 35
2, 215692, Control_c, 0, 64, 36
2, 215771, Note_on_c, 0, 69, 84
2, 215787, Note_on_c, 0, 52, 65
2, 215865, Control_c, 0, 64, 37
2, 215883, Control_c, 0, 64, 38
2, 215904, Control_c, 0, 64, 40
2, 215923, Control_c, 0, 64, 46
2, 215942, Control_c, 0, 64, 56
2, 215960, Control_c, 0, 64, 63
2, 215980, Control_c, 0, 64, 67
2, 216000, Control_c, 0, 64, 77
2, 216018, Control_c, 0, 64, 97
2, 216038, Control_c, 0, 64, 127
2, 216113, Note_on_c, 0, 69, 0
2, 216224, Note_on_c, 0, 69, 91
2, 216229, Note_on_c, 0, 57, 75
2, 216249, Control_c, 0, 64, 101
2, 216267, Control_c, 0, 64, 73
2, 216287, Control_c, 0, 64, 59
2, 216309, Control_c, 0, 64, 45
2, 216327, Control_c, 0, 64, 39
2, 216327, Note_on_c, 0, 52, 0
2, 216345, Control_c, 0, 64, 40
2, 216365, Control_c, 0, 64, 44
2, 216383, Control_c, 0, 64, 51
2, 216403, Control_c, 0, 64, 63
2, 216416, Note_on_c, 0, 45, 0
2, 216422, Control_c, 0, 64, 71
2, 216443, Control_c, 0, 64, 91
2, 216460, Control_c, 0, 64, 127
2, 216529, Note_on_c, 0, 57, 0
2, 216560, Note_on_c, 0, 69, 0
2, 216673, Control_c, 0, 64, 99
2, 216673, Note_on_c, 0, 69, 86
2, 216676, Note_on_c, 0, 55, 77
2, 216688, Note_on_c, 0, 45, 55
2, 216690, Control_c, 0, 64, 85
2, 216712, Control_c, 0, 64, 75
2, 216731, Control_c, 0, 64, 68
2, 216746, Control_c, 0, 64, 64
2, 216768, Control_c, 0, 64, 61
2, 216788, Control_c, 0, 64, 60
2, 216806, Control_c, 0, 64, 59
2, 216865, Control_c, 0, 64, 58
2, 216901, Control_c, 0, 64, 57
2, 216943, Control_c, 0, 64, 56
2, 216981, Control_c, 0, 64, 55
2, 216999, Control_c, 0, 64, 54
2, 217019, Control_c, 0, 64, 53
2, 217073, Control_c, 0, 64, 52
2, 217111, Control_c, 0, 64, 51
2, 217132, Control_c, 0, 64, 49
2, 217146, Note_on_c, 0, 62, 92
2, 217150, Control_c, 0, 64, 47
2, 217155, Note_on_c, 0, 54, 78
2, 217162, Note_on_c, 0, 47, 60
2, 217169, Control_c, 0, 64, 45
2, 217188, Control_c, 0, 64, 43
2, 217209, Control_c, 0, 64, 41
2, 217228, Control_c, 0, 64, 40
2, 217307, Note_on_c, 0, 69, 0
2, 217319, Note_on_c, 0, 45, 0
2, 217340, Note_on_c, 0, 55, 0
2, 217417, Note_on_c, 0, 73, 0
2, 217478, Control_c, 0, 64, 41
2, 217496, Control_c, 0, 64, 42
2, 217535, Control_c, 0, 64, 43
2, 217619, Note_on_c, 0, 74, 96
2, 217630, Note_on_c, 0, 52, 69
2, 217650, Control_c, 0, 64, 42
2, 217671, Control_c, 0, 64, 41
2, 217691, Control_c, 0, 64, 40
2, 217720, Note_on_c, 0, 54, 0
2, 217750, Control_c, 0, 64, 41
2, 217764, Control_c, 0, 64, 42
2, 217784, Control_c, 0, 64, 46
2, 217804, Control_c, 0, 64, 51
2, 217826, Control_c, 0, 64, 60
2, 217842, Control_c, 0, 64, 65
2, 217861, Control_c, 0, 64, 69
2, 217884, Control_c, 0, 64, 75
2, 217899, Control_c, 0, 64, 82
2, 217922, Control_c, 0, 64, 88
2, 217961, Note_on_c, 0, 74, 0
2, 218055, Control_c, 0, 64, 87
2, 218073, Control_c, 0, 64, 85
2, 218092, Note_on_c, 0, 74, 99
2, 218097, Control_c, 0, 64, 82
2, 218101, Note_on_c, 0, 50, 79
2, 218111, Control_c, 0, 64, 76
2, 218120, Note_on_c, 0, 66, 66
2, 218130, Control_c, 0, 64, 67
2, 218150, Control_c, 0, 64, 57
2, 218170, Control_c, 0, 64, 40
2, 218188, Control_c, 0, 64, 16
2, 218208, Control_c, 0, 64, 11
2, 218236, Note_on_c, 0, 52, 0
2, 218247, Control_c, 0, 64, 14
2, 218265, Control_c, 0, 64, 20
2, 218282, Control_c, 0, 64, 27
2, 218302, Control_c, 0, 64, 38
2, 218323, Control_c, 0, 64, 52
2, 218331, Note_on_c, 0, 47, 0
2, 218340, Control_c, 0, 64, 65
2, 218361, Control_c, 0, 64, 68
2, 218381, Control_c, 0, 64, 71
2, 218394, Note_on_c, 0, 74, 0
2, 218399, Control_c, 0, 64, 74
2, 218417, Control_c, 0, 64, 77
2, 218436, Control_c, 0, 64, 78
2, 218476, Control_c, 0, 64, 77
2, 218496, Control_c, 0, 64, 76
2, 218515, Control_c, 0, 64, 75
2, 218537, Control_c, 0, 64, 73
2, 218552, Control_c, 0, 64, 70
2, 218552, Note_on_c, 0, 74, 95
2, 218566, Note_on_c, 0, 47, 78
2, 218571, Control_c, 0, 64, 64
2, 218591, Control_c, 0, 64, 54
2, 218612, Control_c, 0, 64, 25
2, 218629, Control_c, 0, 64, 0
2, 218688, Control_c, 0, 64, 19
2, 218699, Note_on_c, 0, 50, 0
2, 218705, Control_c, 0, 64, 41
2, 218728, Control_c, 0, 64, 60
2, 218744, Control_c, 0, 64, 73
2, 218764, Control_c, 0, 64, 90
2, 218768, Note_on_c, 0, 74, 0
2, 218779, Note_on_c, 0, 47, 0
2, 218783, Control_c, 0, 64, 127
2, 218849, Note_on_c, 0, 62, 0
2, 219016, Control_c, 0, 64, 108
2, 219016, Note_on_c, 0, 52, 88
2, 219024, Note_on_c, 0, 67, 89
2, 219033, Control_c, 0, 64, 86
2, 219052, Control_c, 0, 64, 67
2, 219056, Note_on_c, 0, 40, 57
2, 219074, Control_c, 0, 64, 51
2, 219091, Control_c, 0, 64, 0
2, 219187, Control_c, 0, 64, 31
2, 219209, Control_c, 0, 64, 56
2, 219224, Control_c, 0, 64, 70
2, 219228, Note_on_c, 0, 40, 0
2, 219232, Note_on_c, 0, 66, 0
2, 219248, Control_c, 0, 64, 80
2, 219262, Control_c, 0, 64, 104
2, 219283, Control_c, 0, 64, 127
2, 219326, Note_on_c, 0, 52, 0
2, 219417, Control_c, 0, 64, 118
2, 219435, Control_c, 0, 64, 103
2, 219455, Control_c, 0, 64, 94
2, 219475, Control_c, 0, 64, 86
2, 219495, Control_c, 0, 64, 79
2, 219495, Note_on_c, 0, 54, 88
2, 219503, Note_on_c, 0, 59, 83
2, 219512, Control_c, 0, 64, 72
2, 219532, Control_c, 0, 64, 65
2, 219554, Control_c, 0, 64, 58
2, 219570, Control_c, 0, 64, 43
2, 219588, Control_c, 0, 64, 30
2, 219608, Control_c, 0, 64, 27
2, 219629, Control_c, 0, 64, 29
2, 219650, Control_c, 0, 64, 34
2, 219665, Control_c, 0, 64, 42
2, 219685, Control_c, 0, 64, 57
2, 219705, Control_c, 0, 64, 70
2, 219718, Note_on_c, 0, 67, 0
2, 219724, Control_c, 0, 64, 81
2, 219742, Control_c, 0, 64, 107
2, 219761, Control_c, 0, 64, 127
2, 219874, Note_on_c, 0, 54, 0
2, 219973, Control_c, 0, 64, 100
2, 219978, Note_on_c, 0, 71, 96
2, 219982, Note_on_c, 0, 55, 79
2, 219993, Control_c, 0, 64, 81
2, 220010, Control_c, 0, 64, 70
2, 220018, Note_on_c, 0, 64, 54
2, 220031, Control_c, 0, 64, 62
2, 220049, Control_c, 0, 64, 56
2, 220069, Control_c, 0, 64, 51
2, 220089, Control_c, 0, 64, 48
2, 220106, Control_c, 0, 64, 46
2, 220129, Control_c, 0, 64, 43
2, 220149, Control_c, 0, 64, 38
2, 220164, Control_c, 0, 64, 30
2, 220176, Note_on_c, 0, 59, 0
2, 220185, Control_c, 0, 64, 22
2, 220206, Control_c, 0, 64, 19
2, 220222, Control_c, 0, 64, 18
2, 220242, Control_c, 0, 64, 16
2, 220262, Control_c, 0, 64, 10
2, 220282, Control_c, 0, 64, 0
2, 220425, Note_on_c, 0, 52, 61
2, 220425, Note_on_c, 0, 62, 74
2, 220492, Control_c, 0, 67, 9
2, 220510, Control_c, 0, 67, 13
2, 220529, Control_c, 0, 67, 18
2, 220548, Control_c, 0, 67, 22
2, 220569, Control_c, 0, 67, 25
2, 220576, Note_on_c, 0, 64, 0
2, 220587, Control_c, 0, 67, 27
2, 220608, Control_c, 0, 67, 28
2, 220625, Control_c, 0, 67, 29
2, 220683, Control_c, 0, 67, 28
2, 220723, Control_c, 0, 67, 27
2, 220740, Control_c, 0, 67, 26
2, 220761, Control_c, 0, 67, 25
2, 220799, Control_c, 0, 67, 24
2, 220817, Control_c, 0, 67, 23
2, 220857, Control_c, 0, 67, 22
2, 220895, Note_on_c, 0, 45, 56
2, 220895, Note_on_c, 0, 61, 68
2, 220915, Control_c, 0, 67, 21
2, 221044, Note_on_c, 0, 55, 0
2, 221077, Note_on_c, 0, 52, 0
2, 221106, Note_on_c, 0, 62, 0
2, 221165, Control_c, 0, 67, 20
2, 221242, Note_on_c, 0, 71, 0
2, 221344, Note_on_c, 0, 64, 64
2, 221361, Note_on_c, 0, 55, 49
2, 221772, Note_on_c, 0, 55, 0
2, 221805, Note_on_c, 0, 54, 52
2, 221809, Note_on_c, 0, 69, 62
2, 221858, Note_on_c, 0, 64, 0
2, 221953, Control_c, 0, 64, 22
2, 221953, Control_c, 0, 67, 19
2, 221971, Control_c, 0, 64, 37
2, 221989, Control_c, 0, 64, 55
2, 222012, Control_c, 0, 64, 67
2, 222012, Control_c, 0, 67, 18
2, 222030, Control_c, 0, 64, 76
2, 222047, Control_c, 0, 64, 100
2, 222058, Note_on_c, 0, 54, 0
2, 222070, Control_c, 0, 64, 127
2, 222070, Control_c, 0, 67, 17
2, 222070, Note_on_c, 0, 45, 0
2, 222143, Control_c, 0, 64, 113
2, 222165, Control_c, 0, 64, 101
2, 222184, Control_c, 0, 64, 94
2, 222184, Control_c, 0, 67, 18
2, 222201, Control_c, 0, 64, 89
2, 222220, Control_c, 0, 64, 84
2, 222238, Control_c, 0, 64, 77
2, 222262, Control_c, 0, 64, 69
2, 222266, Note_on_c, 0, 45, 42
2, 222266, Note_on_c, 0, 52, 54
2, 222266, Note_on_c, 0, 67, 62
2, 222278, Control_c, 0, 64, 61
2, 222278, Control_c, 0, 67, 19
2, 222297, Control_c, 0, 64, 51
2, 222314, Control_c, 0, 64, 39
2, 222319, Note_on_c, 0, 61, 0
2, 222336, Control_c, 0, 64, 26
2, 222353, Control_c, 0, 64, 20
2, 222375, Note_on_c, 0, 69, 0
2, 222394, Control_c, 0, 64, 22
2, 222411, Control_c, 0, 64, 28
2, 222433, Control_c, 0, 64, 38
2, 222453, Control_c, 0, 64, 55
2, 222471, Control_c, 0, 64, 66
2, 222471, Control_c, 0, 67, 18
2, 222489, Control_c, 0, 64, 71
2, 222509, Control_c, 0, 64, 77
2, 222518, Note_on_c, 0, 52, 0
2, 222528, Control_c, 0, 67, 17
2, 222566, Control_c, 0, 64, 75
2, 222583, Control_c, 0, 64, 72
2, 222603, Control_c, 0, 64, 69
2, 222624, Control_c, 0, 64, 68
2, 222641, Control_c, 0, 64, 67
2, 222662, Control_c, 0, 64, 65
2, 222684, Control_c, 0, 64, 63
2, 222704, Control_c, 0, 64, 60
2, 222717, Control_c, 0, 64, 56
2, 222740, Control_c, 0, 64, 49
2, 222740, Note_on_c, 0, 45, 0
2, 222751, Note_on_c, 0, 50, 48
2, 222758, Note_on_c, 0, 38, 42
2, 222762, Control_c, 0, 64, 36
2, 222762, Note_on_c, 0, 66, 50
2, 222777, Control_c, 0, 64, 0
2, 222795, Note_on_c, 0, 67, 0
2, 222893, Control_c, 0, 64, 22
2, 222914, Control_c, 0, 64, 45
2, 222930, Control_c, 0, 64, 64
2, 222950, Control_c, 0, 64, 73
2, 222957, Note_on_c, 0, 38, 0
2, 222969, Control_c, 0, 64, 86
2, 222988, Control_c, 0, 64, 104
2, 223003, Note_on_c, 0, 50, 0
2, 223008, Control_c, 0, 64, 127
2, 223082, Control_c, 0, 67, 18
2, 223145, Control_c, 0, 67, 19
2, 223149, Note_on_c, 0, 66, 0
2, 223179, Control_c, 0, 64, 104
2, 223199, Control_c, 0, 64, 97
2, 223219, Control_c, 0, 64, 94
2, 223237, Control_c, 0, 64, 91
2, 223242, Control_c, 0, 67, 20
2, 223246, Note_on_c, 0, 57, 54
2, 223257, Control_c, 0, 64, 86
2, 223277, Control_c, 0, 64, 79
2, 223295, Control_c, 0, 64, 71
2, 223314, Control_c, 0, 64, 67
2, 223333, Control_c, 0, 64, 64
2, 223371, Control_c, 0, 64, 63
2, 223392, Control_c, 0, 64, 62
2, 223410, Control_c, 0, 64, 60
2, 223428, Control_c, 0, 64, 58
2, 223448, Control_c, 0, 64, 56
2, 223468, Control_c, 0, 64, 55
2, 223488, Control_c, 0, 64, 53
2, 223508, Control_c, 0, 64, 51
2, 223526, Control_c, 0, 64, 48
2, 223547, Control_c, 0, 64, 43
2, 223547, Control_c, 0, 67, 21
2, 223564, Control_c, 0, 64, 37
2, 223586, Control_c, 0, 64, 29
2, 223603, Control_c, 0, 64, 11
2, 223603, Control_c, 0, 67, 22
2, 223623, Control_c, 0, 64, 0
2, 223623, Control_c, 0, 67, 23
2, 223659, Control_c, 0, 67, 24
2, 223679, Control_c, 0, 67, 25
2, 223683, Note_on_c, 0, 62, 59
2, 223717, Control_c, 0, 67, 26
2, 223738, Control_c, 0, 67, 27
2, 223775, Control_c, 0, 67, 28
2, 223844, Note_on_c, 0, 57, 0
2, 223853, Control_c, 0, 67, 29
2, 223911, Control_c, 0, 67, 30
2, 223928, Control_c, 0, 67, 31
2, 223967, Control_c, 0, 67, 38
2, 223986, Control_c, 0, 67, 53
2, 224006, Control_c, 0, 67, 62
2, 224023, Control_c, 0, 67, 66
2, 224045, Control_c, 0, 67, 68
2, 224063, Control_c, 0, 67, 70
2, 224083, Control_c, 0, 67, 71
2, 224142, Note_on_c, 0, 60, 43
2, 224142, Note_on_c, 0, 69, 46
2, 224217, Control_c, 0, 67, 70
2, 224270, Note_on_c, 0, 62, 0
2, 224277, Control_c, 0, 67, 69
2, 224311, Control_c, 0, 67, 68
2, 224331, Control_c, 0, 67, 67
2, 224371, Control_c, 0, 67, 66
2, 224428, Control_c, 0, 67, 65
2, 224582, Note_on_c, 0, 74, 57
2, 224600, Note_on_c, 0, 59, 36
2, 224676, Control_c, 0, 67, 64
2, 224692, Note_on_c, 0, 60, 0
2, 224716, Note_on_c, 0, 69, 0
2, 224754, Control_c, 0, 67, 63
2, 224776, Control_c, 0, 67, 62
2, 224812, Control_c, 0, 67, 61
2, 224832, Control_c, 0, 67, 60
2, 224852, Control_c, 0, 67, 59
2, 224890, Control_c, 0, 67, 58
2, 224926, Control_c, 0, 67, 57
2, 224968, Control_c, 0, 67, 56
2, 225023, Note_on_c, 0, 72, 61
2, 225027, Control_c, 0, 67, 55
2, 225057, Note_on_c, 0, 62, 34
2, 225099, Control_c, 0, 67, 54
2, 225156, Control_c, 0, 67, 53
2, 225195, Control_c, 0, 67, 52
2, 225209, Note_on_c, 0, 74, 0
2, 225272, Control_c, 0, 67, 51
2, 225293, Control_c, 0, 67, 49
2, 225314, Control_c, 0, 67, 41
2, 225330, Control_c, 0, 67, 30
2, 225330, Note_on_c, 0, 59, 0
2, 225348, Control_c, 0, 67, 22
2, 225369, Control_c, 0, 67, 15
2, 225387, Control_c, 0, 67, 10
2, 225406, Control_c, 0, 67, 8
2, 225428, Control_c, 0, 67, 0
2, 225466, Note_on_c, 0, 71, 64
2, 225495, Note_on_c, 0, 67, 30
2, 225567, Note_on_c, 0, 72, 0
2, 225607, Note_on_c, 0, 62, 0
2, 225913, Note_on_c, 0, 74, 69
2, 225940, Note_on_c, 0, 66, 33
2, 226040, Note_on_c, 0, 71, 0
2, 226045, Note_on_c, 0, 67, 0
2, 226363, Note_on_c, 0, 66, 0
2, 226384, Note_on_c, 0, 79, 78
2, 226401, Note_on_c, 0, 64, 37
2, 226517, Note_on_c, 0, 74, 0
2, 226521, Control_c, 0, 64, 14
2, 226539, Control_c, 0, 64, 31
2, 226559, Control_c, 0, 64, 47
2, 226578, Control_c, 0, 64, 58
2, 226597, Control_c, 0, 64, 61
2, 226635, Control_c, 0, 64, 63
2, 226653, Control_c, 0, 64, 66
2, 226665, Note_on_c, 0, 64, 0
2, 226677, Control_c, 0, 64, 70
2, 226694, Control_c, 0, 64, 76
2, 226712, Control_c, 0, 64, 86
2, 226730, Control_c, 0, 64, 101
2, 226752, Control_c, 0, 64, 109
2, 226808, Control_c, 0, 64, 106
2, 226829, Control_c, 0, 64, 104
2, 226849, Control_c, 0, 64, 102
2, 226865, Control_c, 0, 64, 100
2, 226882, Note_on_c, 0, 52, 35
2, 226887, Control_c, 0, 64, 96
2, 226889, Note_on_c, 0, 62, 42
2, 226908, Control_c, 0, 64, 92
2, 226922, Control_c, 0, 64, 88
2, 226943, Control_c, 0, 64, 85
2, 226963, Control_c, 0, 64, 82
2, 226983, Control_c, 0, 64, 79
2, 227001, Control_c, 0, 64, 75
2, 227018, Control_c, 0, 64, 71
2, 227039, Control_c, 0, 64, 68
2, 227058, Control_c, 0, 64, 66
2, 227077, Control_c, 0, 64, 65
2, 227114, Control_c, 0, 64, 64
2, 227134, Control_c, 0, 64, 63
2, 227191, Control_c, 0, 64, 62
2, 227249, Control_c, 0, 64, 61
2, 227273, Control_c, 0, 64, 60
2, 227304, Note_on_c, 0, 78, 77
2, 227308, Control_c, 0, 64, 59
2, 227312, Note_on_c, 0, 57, 48
2, 227322, Note_on_c, 0, 61, 45
2, 227366, Control_c, 0, 64, 58
2, 227384, Control_c, 0, 64, 57
2, 227404, Control_c, 0, 64, 56
2, 227424, Control_c, 0, 64, 55
2, 227442, Control_c, 0, 64, 53
2, 227459, Control_c, 0, 64, 51
2, 227484, Control_c, 0, 64, 48
2, 227484, Note_on_c, 0, 79, 0
2, 227492, Note_on_c, 0, 62, 0
2, 227501, Control_c, 0, 64, 45
2, 227519, Control_c, 0, 64, 42
2, 227539, Control_c, 0, 64, 40
2, 227557, Control_c, 0, 64, 37
2, 227576, Control_c, 0, 64, 35
2, 227580, Note_on_c, 0, 52, 0
2, 227596, Control_c, 0, 64, 33
2, 227614, Control_c, 0, 64, 32
2, 227636, Control_c, 0, 64, 31
2, 227656, Control_c, 0, 64, 30
2, 227676, Control_c, 0, 64, 29
2, 227745, Note_on_c, 0, 76, 71
2, 227766, Note_on_c, 0, 55, 48
2, 227822, Note_on_c, 0, 57, 0
2, 227883, Control_c, 0, 64, 30
2, 227895, Note_on_c, 0, 78, 0
2, 227902, Control_c, 0, 64, 31
2, 227921, Control_c, 0, 64, 32
2, 227941, Control_c, 0, 64, 34
2, 227959, Control_c, 0, 64, 35
2, 227980, Control_c, 0, 64, 37
2, 228000, Control_c, 0, 64, 38
2, 228021, Control_c, 0, 64, 40
2, 228036, Control_c, 0, 64, 41
2, 228056, Control_c, 0, 64, 42
2, 228186, Note_on_c, 0, 81, 76
2, 228192, Control_c, 0, 64, 41
2, 228192, Note_on_c, 0, 54, 39
2, 228214, Note_on_c, 0, 55, 0
2, 228221, Note_on_c, 0, 62, 38
2, 228249, Control_c, 0, 64, 40
2, 228267, Control_c, 0, 64, 39
2, 228287, Control_c, 0, 64, 38
2, 228307, Control_c, 0, 64, 37
2, 228325, Control_c, 0, 64, 36
2, 228333, Note_on_c, 0, 61, 0
2, 228345, Control_c, 0, 64, 34
2, 228364, Control_c, 0, 64, 32
2, 228386, Control_c, 0, 64, 29
2, 228393, Note_on_c, 0, 76, 0
2, 228402, Control_c, 0, 64, 16
2, 228420, Control_c, 0, 64, 0
2, 228649, Note_on_c, 0, 79, 83
2, 228665, Note_on_c, 0, 64, 53
2, 228677, Note_on_c, 0, 57, 41
2, 228718, Note_on_c, 0, 62, 0
2, 228746, Note_on_c, 0, 54, 0
2, 228766, Control_c, 0, 64, 27
2, 228779, Note_on_c, 0, 81, 0
2, 228788, Control_c, 0, 64, 40
2, 228804, Control_c, 0, 64, 51
2, 228826, Control_c, 0, 64, 57
2, 228842, Control_c, 0, 64, 59
2, 228862, Control_c, 0, 64, 60
2, 228882, Control_c, 0, 64, 62
2, 228895, Note_on_c, 0, 64, 0
2, 228902, Control_c, 0, 64, 64
2, 228919, Control_c, 0, 64, 66
2, 228940, Control_c, 0, 64, 69
2, 228958, Control_c, 0, 64, 72
2, 228978, Control_c, 0, 64, 74
2, 229054, Control_c, 0, 64, 73
2, 229074, Note_on_c, 0, 78, 78
2, 229095, Control_c, 0, 64, 71
2, 229100, Note_on_c, 0, 62, 45
2, 229100, Note_on_c, 0, 66, 50
2, 229111, Control_c, 0, 64, 69
2, 229130, Note_on_c, 0, 79, 0
2, 229131, Control_c, 0, 64, 65
2, 229153, Control_c, 0, 64, 58
2, 229171, Control_c, 0, 64, 51
2, 229188, Control_c, 0, 64, 44
2, 229198, Note_on_c, 0, 57, 0
2, 229210, Control_c, 0, 64, 42
2, 229227, Control_c, 0, 64, 44
2, 229248, Control_c, 0, 64, 48
2, 229266, Control_c, 0, 64, 53
2, 229284, Control_c, 0, 64, 61
2, 229306, Control_c, 0, 64, 66
2, 229324, Control_c, 0, 64, 71
2, 229341, Control_c, 0, 64, 79
2, 229363, Control_c, 0, 64, 86
2, 229383, Control_c, 0, 64, 90
2, 229387, Note_on_c, 0, 78, 0
2, 229439, Control_c, 0, 64, 89
2, 229460, Control_c, 0, 64, 87
2, 229476, Control_c, 0, 64, 86
2, 229498, Control_c, 0, 64, 85
2, 229515, Control_c, 0, 64, 83
2, 229520, Note_on_c, 0, 61, 52
2, 229529, Note_on_c, 0, 66, 0
2, 229529, Note_on_c, 0, 76, 85
2, 229538, Control_c, 0, 64, 80
2, 229553, Control_c, 0, 64, 77
2, 229574, Control_c, 0, 64, 74
2, 229594, Control_c, 0, 64, 72
2, 229745, Control_c, 0, 64, 71
2, 229749, Note_on_c, 0, 62, 0
2, 229805, Control_c, 0, 64, 70
2, 229823, Control_c, 0, 64, 69
2, 229841, Control_c, 0, 64, 68
2, 229861, Control_c, 0, 64, 66
2, 229881, Control_c, 0, 64, 65
2, 229902, Control_c, 0, 64, 64
2, 229957, Control_c, 0, 64, 63
2, 229977, Control_c, 0, 64, 62
2, 229992, Note_on_c, 0, 74, 81
2, 229996, Control_c, 0, 64, 61
2, 230010, Note_on_c, 0, 59, 57
2, 230014, Control_c, 0, 64, 60
2, 230023, Note_on_c, 0, 66, 43
2, 230073, Control_c, 0, 64, 59
2, 230079, Note_on_c, 0, 76, 0
2, 230110, Control_c, 0, 64, 58
2, 230129, Control_c, 0, 64, 57
2, 230147, Control_c, 0, 64, 56
2, 230167, Note_on_c, 0, 61, 0
2, 230207, Control_c, 0, 64, 55
2, 230225, Control_c, 0, 64, 54
2, 230264, Control_c, 0, 64, 53
2, 230399, Control_c, 0, 64, 54
2, 230464, Note_on_c, 0, 47, 72
2, 230553, Control_c, 0, 64, 55
2, 230589, Control_c, 0, 64, 56
2, 230629, Control_c, 0, 64, 57
2, 230648, Control_c, 0, 64, 58
2, 230667, Control_c, 0, 64, 59
2, 230689, Control_c, 0, 64, 60
2, 230705, Control_c, 0, 64, 62
2, 230726, Control_c, 0, 64, 64
2, 230734, Note_on_c, 0, 59, 0
2, 230744, Control_c, 0, 64, 65
2, 230767, Control_c, 0, 64, 66
2, 230785, Control_c, 0, 64, 67
2, 230785, Note_on_c, 0, 66, 0
2, 230881, Control_c, 0, 64, 66
2, 230916, Control_c, 0, 64, 65
2, 230927, Note_on_c, 0, 73, 88
2, 230932, Note_on_c, 0, 52, 68
2, 230946, Note_on_c, 0, 68, 62
2, 230976, Control_c, 0, 64, 64
2, 231031, Control_c, 0, 64, 63
2, 231040, Note_on_c, 0, 74, 0
2, 231089, Control_c, 0, 64, 62
2, 231109, Control_c, 0, 64, 60
2, 231129, Control_c, 0, 64, 59
2, 231227, Note_on_c, 0, 47, 0
2, 231243, Control_c, 0, 64, 58
2, 231283, Control_c, 0, 64, 57
2, 231321, Control_c, 0, 64, 56
2, 231368, Note_on_c, 0, 71, 84
2, 231377, Control_c, 0, 64, 55
2, 231388, Note_on_c, 0, 50, 64
2, 231492, Control_c, 0, 64, 54
2, 231551, Control_c, 0, 64, 53
2, 231566, Note_on_c, 0, 52, 0
2, 231591, Control_c, 0, 64, 52
2, 231641, Note_on_c, 0, 73, 0
2, 231762, Control_c, 0, 64, 51
2, 231809, Note_on_c, 0, 49, 63
2, 231820, Note_on_c, 0, 76, 84
2, 231897, Control_c, 0, 64, 50
2, 231919, Note_on_c, 0, 50, 0
2, 232001, Note_on_c, 0, 71, 0
2, 232012, Note_on_c, 0, 68, 0
2, 232052, Control_c, 0, 64, 51
2, 232263, Note_on_c, 0, 74, 78
2, 232280, Note_on_c, 0, 52, 54
2, 232280, Note_on_c, 0, 59, 57
2, 232361, Note_on_c, 0, 49, 0
2, 232391, Note_on_c, 0, 76, 0
2, 232417, Control_c, 0, 64, 53
2, 232434, Control_c, 0, 64, 55
2, 232452, Control_c, 0, 64, 56
2, 232471, Control_c, 0, 64, 57
2, 232493, Control_c, 0, 64, 59
2, 232511, Control_c, 0, 64, 61
2, 232524, Note_on_c, 0, 59, 0
2, 232645, Control_c, 0, 64, 60
2, 232701, Control_c, 0, 64, 59
2, 232714, Note_on_c, 0, 73, 82
2, 232725, Note_on_c, 0, 57, 48
2, 232725, Note_on_c, 0, 69, 61
2, 232737, Note_on_c, 0, 61, 43
2, 232741, Control_c, 0, 64, 57
2, 232760, Control_c, 0, 64, 54
2, 232778, Control_c, 0, 64, 47
2, 232785, Note_on_c, 0, 74, 0
2, 232798, Control_c, 0, 64, 39
2, 232818, Control_c, 0, 64, 33
2, 232818, Note_on_c, 0, 52, 0
2, 232836, Control_c, 0, 64, 32
2, 232856, Control_c, 0, 64, 33
2, 232878, Control_c, 0, 64, 36
2, 232894, Control_c, 0, 64, 41
2, 232916, Control_c, 0, 64, 50
2, 232933, Control_c, 0, 64, 62
2, 232953, Control_c, 0, 64, 69
2, 232972, Control_c, 0, 64, 78
2, 232994, Control_c, 0, 64, 95
2, 233013, Control_c, 0, 64, 127
2, 233033, Note_on_c, 0, 73, 0
2, 233093, Note_on_c, 0, 69, 0
2, 233173, Note_on_c, 0, 64, 78
2, 233177, Note_on_c, 0, 71, 76
2, 233182, Note_on_c, 0, 56, 55
2, 233202, Control_c, 0, 64, 106
2, 233219, Control_c, 0, 64, 93
2, 233240, Control_c, 0, 64, 83
2, 233259, Control_c, 0, 64, 76
2, 233277, Control_c, 0, 64, 70
2, 233299, Control_c, 0, 64, 66
2, 233319, Control_c, 0, 64, 64
2, 233339, Control_c, 0, 64, 62
2, 233351, Note_on_c, 0, 61, 0
2, 233378, Control_c, 0, 64, 61
2, 233401, Note_on_c, 0, 57, 0
2, 233416, Control_c, 0, 64, 60
2, 233431, Control_c, 0, 64, 59
2, 233451, Control_c, 0, 64, 57
2, 233472, Control_c, 0, 64, 55
2, 233509, Control_c, 0, 64, 54
2, 233566, Control_c, 0, 64, 53
2, 233604, Control_c, 0, 64, 52
2, 233640, Note_on_c, 0, 54, 58
2, 233653, Note_on_c, 0, 69, 77
2, 233797, Control_c, 0, 64, 53
2, 233811, Note_on_c, 0, 71, 0
2, 233835, Control_c, 0, 64, 54
2, 233853, Control_c, 0, 64, 55
2, 233876, Control_c, 0, 64, 56
2, 233876, Note_on_c, 0, 64, 0
2, 233893, Control_c, 0, 64, 57
2, 233911, Control_c, 0, 64, 58
2, 233915, Note_on_c, 0, 56, 0
2, 233932, Control_c, 0, 64, 59
2, 234028, Control_c, 0, 64, 58
2, 234064, Control_c, 0, 64, 57
2, 234085, Note_on_c, 0, 68, 70
2, 234089, Note_on_c, 0, 73, 85
2, 234096, Note_on_c, 0, 57, 75
2, 234105, Control_c, 0, 64, 56
2, 234116, Note_on_c, 0, 52, 63
2, 234125, Control_c, 0, 64, 54
2, 234142, Control_c, 0, 64, 50
2, 234163, Control_c, 0, 64, 43
2, 234183, Control_c, 0, 64, 36
2, 234183, Note_on_c, 0, 69, 0
2, 234199, Control_c, 0, 64, 33
2, 234220, Note_on_c, 0, 54, 0
2, 234242, Control_c, 0, 64, 36
2, 234258, Control_c, 0, 64, 41
2, 234276, Control_c, 0, 64, 50
2, 234298, Control_c, 0, 64, 63
2, 234316, Control_c, 0, 64, 69
2, 234336, Control_c, 0, 64, 78
2, 234336, Note_on_c, 0, 73, 0
2, 234352, Control_c, 0, 64, 89
2, 234375, Control_c, 0, 64, 103
2, 234395, Control_c, 0, 64, 112
2, 234412, Control_c, 0, 64, 113
2, 234430, Control_c, 0, 64, 112
2, 234448, Control_c, 0, 64, 109
2, 234468, Control_c, 0, 64, 107
2, 234477, Note_on_c, 0, 68, 0
2, 234490, Control_c, 0, 64, 104
2, 234506, Control_c, 0, 64, 101
2, 234526, Control_c, 0, 64, 96
2, 234546, Control_c, 0, 64, 90
2, 234559, Note_on_c, 0, 71, 83
2, 234563, Note_on_c, 0, 62, 77
2, 234565, Note_on_c, 0, 50, 61
2, 234570, Control_c, 0, 64, 82
2, 234574, Note_on_c, 0, 66, 75
2, 234585, Control_c, 0, 64, 77
2, 234605, Control_c, 0, 64, 72
2, 234623, Control_c, 0, 64, 69
2, 234642, Control_c, 0, 64, 65
2, 234660, Control_c, 0, 64, 63
2, 234682, Control_c, 0, 64, 61
2, 234716, Note_on_c, 0, 52, 0
2, 234720, Control_c, 0, 64, 60
2, 234737, Control_c, 0, 64, 59
2, 234744, Note_on_c, 0, 57, 0
2, 234776, Control_c, 0, 64, 58
2, 234794, Control_c, 0, 64, 57
2, 234833, Control_c, 0, 64, 56
2, 234854, Control_c, 0, 64, 55
2, 234871, Control_c, 0, 64, 53
2, 234891, Control_c, 0, 64, 52
2, 234911, Control_c, 0, 64, 50
2, 234932, Control_c, 0, 64, 48
2, 234948, Control_c, 0, 64, 45
2, 234967, Control_c, 0, 64, 42
2, 234987, Control_c, 0, 64, 37
2, 235003, Note_on_c, 0, 69, 76
2, 235007, Control_c, 0, 64, 33
2, 235011, Note_on_c, 0, 61, 67
2, 235026, Control_c, 0, 64, 29
2, 235049, Control_c, 0, 64, 26
2, 235084, Control_c, 0, 64, 25
2, 235088, Note_on_c, 0, 71, 0
2, 235106, Note_on_c, 0, 62, 0
2, 235179, Control_c, 0, 67, 8
2, 235219, Control_c, 0, 67, 9
2, 235256, Control_c, 0, 67, 12
2, 235274, Control_c, 0, 67, 20
2, 235294, Control_c, 0, 67, 29
2, 235314, Control_c, 0, 67, 34
2, 235334, Control_c, 0, 67, 35
2, 235449, Control_c, 0, 64, 26
2, 235457, Note_on_c, 0, 68, 87
2, 235471, Control_c, 0, 64, 27
2, 235484, Note_on_c, 0, 59, 52
2, 235507, Control_c, 0, 64, 28
2, 235507, Note_on_c, 0, 61, 0
2, 235507, Note_on_c, 0, 64, 53
2, 235516, Note_on_c, 0, 69, 0
2, 235525, Control_c, 0, 64, 30
2, 235544, Control_c, 0, 64, 32
2, 235567, Control_c, 0, 64, 35
2, 235583, Control_c, 0, 64, 38
2, 235583, Control_c, 0, 67, 34
2, 235589, Note_on_c, 0, 66, 0
2, 235607, Control_c, 0, 64, 42
2, 235622, Control_c, 0, 64, 47
2, 235623, Control_c, 0, 67, 33
2, 235642, Control_c, 0, 64, 55
2, 235642, Control_c, 0, 67, 32
2, 235660, Control_c, 0, 64, 62
2, 235680, Control_c, 0, 64, 65
2, 235680, Control_c, 0, 67, 31
2, 235699, Control_c, 0, 64, 68
2, 235703, Note_on_c, 0, 50, 0
2, 235718, Control_c, 0, 64, 74
2, 235737, Control_c, 0, 64, 86
2, 235737, Control_c, 0, 67, 30
2, 235755, Control_c, 0, 64, 101
2, 235774, Control_c, 0, 64, 111
2, 235796, Control_c, 0, 64, 115
2, 235796, Note_on_c, 0, 64, 0
2, 235830, Control_c, 0, 64, 112
2, 235851, Control_c, 0, 64, 109
2, 235872, Control_c, 0, 64, 105
2, 235893, Control_c, 0, 64, 100
2, 235908, Control_c, 0, 64, 94
2, 235922, Note_on_c, 0, 64, 81
2, 235928, Note_on_c, 0, 49, 54
2, 235933, Control_c, 0, 64, 87
2, 235947, Control_c, 0, 64, 80
2, 235966, Control_c, 0, 64, 74
2, 235986, Control_c, 0, 64, 70
2, 236006, Control_c, 0, 64, 67
2, 236024, Control_c, 0, 64, 65
2, 236042, Control_c, 0, 64, 64
2, 236064, Control_c, 0, 64, 63
2, 236064, Control_c, 0, 67, 31
2, 236085, Control_c, 0, 64, 62
2, 236101, Note_on_c, 0, 59, 0
2, 236105, Control_c, 0, 64, 61
2, 236159, Control_c, 0, 64, 60
2, 236197, Control_c, 0, 64, 59
2, 236235, Control_c, 0, 64, 58
2, 236273, Control_c, 0, 64, 57
2, 236291, Control_c, 0, 64, 56
2, 236312, Control_c, 0, 64, 54
2, 236331, Control_c, 0, 64, 53
2, 236352, Control_c, 0, 64, 51
2, 236366, Note_on_c, 0, 69, 75
2, 236370, Control_c, 0, 64, 48
2, 236392, Control_c, 0, 64, 47
2, 236392, Note_on_c, 0, 54, 46
2, 236392, Note_on_c, 0, 57, 46
2, 236396, Note_on_c, 0, 62, 53
2, 236408, Control_c, 0, 64, 46
2, 236428, Control_c, 0, 64, 44
2, 236432, Control_c, 0, 67, 32
2, 236449, Control_c, 0, 64, 43
2, 236455, Note_on_c, 0, 64, 0
2, 236468, Control_c, 0, 64, 42
2, 236468, Control_c, 0, 67, 33
2, 236485, Control_c, 0, 64, 41
2, 236498, Note_on_c, 0, 68, 0
2, 236506, Control_c, 0, 64, 39
2, 236506, Control_c, 0, 67, 34
2, 236537, Note_on_c, 0, 49, 0
2, 236547, Control_c, 0, 64, 38
2, 236547, Control_c, 0, 67, 35
2, 236582, Control_c, 0, 64, 37
2, 236582, Control_c, 0, 67, 36
2, 236639, Control_c, 0, 64, 36
2, 236639, Control_c, 0, 67, 37
2, 236812, Control_c, 0, 64, 35
2, 236819, Note_on_c, 0, 61, 61
2, 236828, Note_on_c, 0, 52, 48
2, 236845, Note_on_c, 0, 56, 45
2, 236858, Note_on_c, 0, 62, 0
2, 236926, Control_c, 0, 64, 34
2, 236944, Note_on_c, 0, 54, 0
2, 236966, Control_c, 0, 67, 36
2, 236993, Note_on_c, 0, 57, 0
2, 237061, Control_c, 0, 67, 35
2, 237175, Control_c, 0, 67, 34
2, 237291, Note_on_c, 0, 59, 58
2, 237297, Note_on_c, 0, 50, 47
2, 237313, Note_on_c, 0, 54, 48
2, 237385, Note_on_c, 0, 52, 0
2, 237405, Note_on_c, 0, 61, 0
2, 237410, Control_c, 0, 67, 33
2, 237442, Note_on_c, 0, 56, 0
2, 237444, Control_c, 0, 64, 33
2, 237736, Note_on_c, 0, 61, 51
2, 237826, Note_on_c, 0, 59, 0
2, 238200, Note_on_c, 0, 52, 58
2, 238217, Note_on_c, 0, 62, 48
2, 238286, Note_on_c, 0, 61, 0
2, 238458, Note_on_c, 0, 50, 0
2, 238562, Control_c, 0, 67, 32
2, 238575, Note_on_c, 0, 54, 0
2, 238650, Note_on_c, 0, 68, 60
2, 238758, Note_on_c, 0, 69, 0
2, 239140, Note_on_c, 0, 45, 41
2, 239160, Note_on_c, 0, 69, 52
2, 239279, Note_on_c, 0, 68, 0
2, 239364, Control_c, 0, 64, 34
2, 239424, Control_c, 0, 64, 35
2, 239442, Control_c, 0, 64, 36
2, 239462, Control_c, 0, 64, 37
2, 239480, Control_c, 0, 64, 38
2, 239502, Control_c, 0, 64, 39
2, 239557, Control_c, 0, 67, 31
2, 239656, Note_on_c, 0, 61, 44
2, 239818, Note_on_c, 0, 62, 0
2, 239825, Control_c, 0, 64, 38
2, 239847, Note_on_c, 0, 52, 0
2, 240113, Note_on_c, 0, 45, 0
2, 240117, Note_on_c, 0, 66, 58
2, 240230, Control_c, 0, 67, 30
2, 240348, Note_on_c, 0, 61, 0
2, 240559, Note_on_c, 0, 64, 60
2, 240567, Note_on_c, 0, 42, 39
2, 240794, Note_on_c, 0, 66, 0
2, 240862, Control_c, 0, 67, 31
2, 240976, Control_c, 0, 64, 39
2, 241017, Control_c, 0, 64, 40
2, 241017, Note_on_c, 0, 47, 46
2, 241022, Note_on_c, 0, 63, 53
2, 241042, Note_on_c, 0, 42, 0
2, 241089, Note_on_c, 0, 64, 0
2, 241093, Control_c, 0, 64, 41
2, 241151, Control_c, 0, 64, 42
2, 241169, Control_c, 0, 64, 43
2, 241188, Control_c, 0, 64, 44
2, 241197, Note_on_c, 0, 69, 0
2, 241211, Control_c, 0, 64, 47
2, 241229, Control_c, 0, 64, 52
2, 241247, Control_c, 0, 64, 60
2, 241266, Control_c, 0, 64, 62
2, 241458, Control_c, 0, 64, 61
2, 241477, Note_on_c, 0, 59, 62
2, 241486, Note_on_c, 0, 66, 66
2, 241515, Control_c, 0, 64, 60
2, 241552, Control_c, 0, 64, 59
2, 241573, Control_c, 0, 64, 57
2, 241593, Control_c, 0, 64, 55
2, 241597, Control_c, 0, 67, 32
2, 241615, Control_c, 0, 64, 52
2, 241630, Control_c, 0, 64, 53
2, 241650, Control_c, 0, 64, 54
2, 241668, Control_c, 0, 64, 56
2, 241690, Control_c, 0, 64, 58
2, 241707, Control_c, 0, 64, 63
2, 241726, Control_c, 0, 64, 66
2, 241731, Control_c, 0, 67, 31
2, 241748, Control_c, 0, 64, 70
2, 241766, Control_c, 0, 64, 74
2, 241766, Control_c, 0, 67, 30
2, 241784, Control_c, 0, 64, 78
2, 241806, Note_on_c, 0, 59, 0
2, 241821, Control_c, 0, 64, 77
2, 241842, Control_c, 0, 64, 75
2, 241859, Control_c, 0, 64, 74
2, 241881, Control_c, 0, 64, 73
2, 241899, Control_c, 0, 64, 71
2, 241915, Note_on_c, 0, 71, 78
2, 241919, Control_c, 0, 64, 69
2, 241940, Control_c, 0, 64, 67
2, 241940, Control_c, 0, 67, 29
2, 241940, Note_on_c, 0, 59, 74
2, 241956, Control_c, 0, 64, 65
2, 241980, Control_c, 0, 64, 63
2, 241996, Control_c, 0, 64, 60
2, 242015, Control_c, 0, 64, 58
2, 242035, Control_c, 0, 64, 55
2, 242054, Control_c, 0, 64, 53
2, 242090, Control_c, 0, 64, 54
2, 242102, Note_on_c, 0, 66, 0
2, 242113, Control_c, 0, 64, 56
2, 242131, Control_c, 0, 64, 57
2, 242151, Control_c, 0, 64, 59
2, 242167, Control_c, 0, 64, 60
2, 242188, Control_c, 0, 64, 62
2, 242238, Note_on_c, 0, 59, 0
2, 242245, Control_c, 0, 64, 61
2, 242302, Control_c, 0, 64, 60
2, 242340, Control_c, 0, 64, 59
2, 242368, Note_on_c, 0, 69, 64
2, 242380, Control_c, 0, 64, 58
2, 242384, Note_on_c, 0, 59, 65
2, 242417, Control_c, 0, 64, 57
2, 242476, Note_on_c, 0, 71, 0
2, 242494, Control_c, 0, 67, 30
2, 242834, Note_on_c, 0, 52, 63
2, 242850, Note_on_c, 0, 69, 0
2, 242854, Note_on_c, 0, 67, 58
2, 242987, Note_on_c, 0, 63, 0
2, 243006, Note_on_c, 0, 59, 0
2, 243090, Control_c, 0, 67, 29
2, 243130, Note_on_c, 0, 47, 0
2, 243284, Note_on_c, 0, 59, 79
2, 243294, Note_on_c, 0, 50, 67
2, 243336, Control_c, 0, 67, 28
2, 243433, Control_c, 0, 64, 56
2, 243720, Control_c, 0, 67, 27
2, 243743, Note_on_c, 0, 55, 68
2, 243745, Note_on_c, 0, 64, 82
2, 243752, Note_on_c, 0, 49, 57
2, 243890, Note_on_c, 0, 59, 0
2, 243940, Note_on_c, 0, 50, 0
2, 243944, Note_on_c, 0, 52, 0
2, 243951, Control_c, 0, 67, 26
2, 243987, Control_c, 0, 67, 25
2, 244012, Control_c, 0, 64, 55
2, 244032, Control_c, 0, 64, 54
2, 244032, Control_c, 0, 67, 24
2, 244046, Control_c, 0, 64, 53
2, 244048, Control_c, 0, 67, 22
2, 244068, Control_c, 0, 64, 52
2, 244085, Control_c, 0, 64, 50
2, 244085, Control_c, 0, 67, 21
2, 244105, Control_c, 0, 64, 48
2, 244123, Control_c, 0, 64, 46
2, 244123, Control_c, 0, 67, 20
2, 244143, Control_c, 0, 64, 45
2, 244164, Control_c, 0, 64, 44
2, 244181, Control_c, 0, 64, 42
2, 244188, Note_on_c, 0, 62, 76
2, 244202, Control_c, 0, 64, 41
2, 244202, Control_c, 0, 67, 19
2, 244202, Note_on_c, 0, 47, 56
2, 244219, Control_c, 0, 64, 39
2, 244258, Control_c, 0, 64, 38
2, 244262, Control_c, 0, 67, 18
2, 244300, Control_c, 0, 67, 17
2, 244300, Note_on_c, 0, 49, 0
2, 244334, Control_c, 0, 67, 15
2, 244355, Control_c, 0, 67, 10
2, 244372, Control_c, 0, 67, 0
2, 244392, Note_on_c, 0, 64, 0
2, 244411, Control_c, 0, 64, 37
2, 244444, Note_on_c, 0, 67, 0
2, 244635, Note_on_c, 0, 46, 55
2, 244639, Note_on_c, 0, 61, 63
2, 244677, Note_on_c, 0, 62, 0
2, 244682, Note_on_c, 0, 47, 0
2, 244737, Control_c, 0, 64, 38
2, 244757, Control_c, 0, 64, 39
2, 244776, Control_c, 0, 64, 42
2, 244795, Control_c, 0, 64, 46
2, 244815, Control_c, 0, 64, 54
2, 244835, Control_c, 0, 64, 63
2, 244855, Control_c, 0, 64, 69
2, 244872, Control_c, 0, 64, 79
2, 244890, Control_c, 0, 64, 100
2, 244901, Note_on_c, 0, 61, 0
2, 244910, Control_c, 0, 64, 127
2, 244944, Note_on_c, 0, 55, 0
2, 245119, Note_on_c, 0, 78, 95
2, 245133, Note_on_c, 0, 49, 51
2, 245159, Control_c, 0, 64, 109
2, 245179, Control_c, 0, 64, 90
2, 245197, Control_c, 0, 64, 75
2, 245218, Control_c, 0, 64, 63
2, 245238, Control_c, 0, 64, 50
2, 245257, Control_c, 0, 64, 36
2, 245276, Control_c, 0, 64, 32
2, 245313, Control_c, 0, 64, 34
2, 245333, Control_c, 0, 64, 39
2, 245351, Control_c, 0, 64, 46
2, 245371, Control_c, 0, 64, 57
2, 245391, Control_c, 0, 64, 66
2, 245409, Control_c, 0, 64, 73
2, 245427, Control_c, 0, 64, 86
2, 245447, Control_c, 0, 64, 127
2, 245467, Note_on_c, 0, 78, 0
2, 245582, Note_on_c, 0, 54, 56
2, 245582, Note_on_c, 0, 78, 104
2, 245640, Control_c, 0, 64, 89
2, 245660, Control_c, 0, 64, 71
2, 245678, Control_c, 0, 64, 60
2, 245697, Control_c, 0, 64, 50
2, 245706, Note_on_c, 0, 49, 0
2, 245715, Control_c, 0, 64, 48
2, 245736, Control_c, 0, 64, 50
2, 245755, Control_c, 0, 64, 54
2, 245774, Control_c, 0, 64, 57
2, 245790, Note_on_c, 0, 46, 0
2, 245794, Control_c, 0, 64, 61
2, 245811, Control_c, 0, 64, 66
2, 245831, Control_c, 0, 64, 76
2, 245851, Control_c, 0, 64, 115
2, 245869, Control_c, 0, 64, 127
2, 245945, Note_on_c, 0, 78, 0
2, 246042, Note_on_c, 0, 52, 60
2, 246050, Note_on_c, 0, 78, 101
2, 246061, Note_on_c, 0, 46, 41
2, 246081, Control_c, 0, 64, 102
2, 246101, Control_c, 0, 64, 74
2, 246105, Note_on_c, 0, 54, 0
2, 246119, Control_c, 0, 64, 58
2, 246137, Control_c, 0, 64, 16
2, 246158, Control_c, 0, 64, 0
2, 246527, Note_on_c, 0, 45, 42
2, 246527, Note_on_c, 0, 71, 91
2, 246538, Note_on_c, 0, 51, 50
2, 246553, Note_on_c, 0, 52, 0
2, 246603, Note_on_c, 0, 46, 0
2, 246638, Note_on_c, 0, 78, 0
2, 246676, Control_c, 0, 64, 24
2, 246696, Control_c, 0, 64, 47
2, 246714, Control_c, 0, 64, 58
2, 246732, Control_c, 0, 64, 63
2, 246755, Control_c, 0, 64, 66
2, 246773, Control_c, 0, 64, 72
2, 246792, Control_c, 0, 64, 87
2, 246810, Control_c, 0, 64, 127
2, 246853, Note_on_c, 0, 71, 0
2, 246981, Note_on_c, 0, 71, 93
2, 246988, Note_on_c, 0, 53, 66
2, 247024, Control_c, 0, 64, 105
2, 247024, Note_on_c, 0, 51, 0
2, 247042, Control_c, 0, 64, 88
2, 247062, Control_c, 0, 64, 72
2, 247080, Control_c, 0, 64, 60
2, 247098, Control_c, 0, 64, 41
2, 247117, Control_c, 0, 64, 28
2, 247137, Control_c, 0, 64, 27
2, 247157, Control_c, 0, 64, 28
2, 247176, Control_c, 0, 64, 30
2, 247189, Note_on_c, 0, 54, 78
2, 247195, Control_c, 0, 64, 35
2, 247219, Control_c, 0, 64, 45
2, 247234, Control_c, 0, 64, 62
2, 247243, Note_on_c, 0, 53, 0
2, 247256, Control_c, 0, 64, 69
2, 247272, Control_c, 0, 64, 76
2, 247291, Control_c, 0, 64, 83
2, 247312, Control_c, 0, 64, 88
2, 247316, Note_on_c, 0, 71, 0
2, 247332, Control_c, 0, 64, 90
2, 247367, Control_c, 0, 64, 88
2, 247387, Control_c, 0, 64, 84
2, 247407, Control_c, 0, 64, 81
2, 247416, Note_on_c, 0, 74, 91
2, 247428, Control_c, 0, 64, 78
2, 247431, Note_on_c, 0, 53, 72
2, 247431, Note_on_c, 0, 71, 87
2, 247446, Control_c, 0, 64, 73
2, 247462, Control_c, 0, 64, 64
2, 247482, Control_c, 0, 64, 53
2, 247500, Note_on_c, 0, 54, 0
2, 247502, Control_c, 0, 64, 32
2, 247522, Control_c, 0, 64, 0
2, 247579, Control_c, 0, 64, 10
2, 247598, Control_c, 0, 64, 21
2, 247617, Control_c, 0, 64, 36
2, 247638, Control_c, 0, 64, 56
2, 247655, Control_c, 0, 64, 67
2, 247675, Control_c, 0, 64, 72
2, 247695, Control_c, 0, 64, 77
2, 247708, Note_on_c, 0, 45, 0
2, 247714, Control_c, 0, 64, 79
2, 247732, Control_c, 0, 64, 80
2, 247757, Note_on_c, 0, 71, 0
2, 247773, Control_c, 0, 64, 78
2, 247791, Control_c, 0, 64, 76
2, 247808, Control_c, 0, 64, 74
2, 247829, Control_c, 0, 64, 73
2, 247848, Control_c, 0, 64, 70
2, 247857, Note_on_c, 0, 44, 70
2, 247869, Control_c, 0, 64, 68
2, 247874, Note_on_c, 0, 71, 92
2, 247885, Control_c, 0, 64, 64
2, 247905, Control_c, 0, 64, 59
2, 247927, Control_c, 0, 64, 49
2, 247945, Control_c, 0, 64, 35
2, 247963, Control_c, 0, 64, 20
2, 247980, Control_c, 0, 64, 16
2, 248021, Control_c, 0, 64, 17
2, 248038, Control_c, 0, 64, 21
2, 248060, Control_c, 0, 64, 27
2, 248078, Control_c, 0, 64, 34
2, 248096, Control_c, 0, 64, 45
2, 248109, Note_on_c, 0, 53, 0
2, 248116, Control_c, 0, 64, 59
2, 248136, Control_c, 0, 64, 64
2, 248156, Control_c, 0, 64, 65
2, 248174, Control_c, 0, 64, 66
2, 248253, Control_c, 0, 64, 65
2, 248292, Control_c, 0, 64, 64
2, 248335, Note_on_c, 0, 64, 93
2, 248346, Control_c, 0, 64, 63
2, 248360, Note_on_c, 0, 49, 53
2, 248366, Control_c, 0, 64, 62
2, 248386, Control_c, 0, 64, 60
2, 248406, Control_c, 0, 64, 57
2, 248426, Control_c, 0, 64, 53
2, 248444, Control_c, 0, 64, 50
2, 248462, Control_c, 0, 64, 47
2, 248480, Control_c, 0, 64, 44
2, 248501, Control_c, 0, 64, 43
2, 248505, Note_on_c, 0, 44, 0
2, 248521, Control_c, 0, 64, 41
2, 248539, Control_c, 0, 64, 38
2, 248559, Control_c, 0, 64, 35
2, 248577, Note_on_c, 0, 71, 0
2, 248580, Control_c, 0, 64, 33
2, 248584, Note_on_c, 0, 74, 0
2, 248711, Control_c, 0, 64, 34
2, 248732, Control_c, 0, 64, 35
2, 248751, Control_c, 0, 64, 36
2, 248770, Control_c, 0, 64, 37
2, 248785, Note_on_c, 0, 68, 78
2, 248792, Control_c, 0, 64, 39
2, 248792, Note_on_c, 0, 59, 55
2, 248807, Control_c, 0, 64, 41
2, 248826, Control_c, 0, 64, 44
2, 248846, Control_c, 0, 64, 51
2, 248864, Control_c, 0, 64, 59
2, 248884, Control_c, 0, 64, 62
2, 248922, Control_c, 0, 64, 64
2, 248942, Control_c, 0, 64, 67
2, 248961, Control_c, 0, 64, 73
2, 248981, Control_c, 0, 64, 82
2, 249001, Control_c, 0, 64, 96
2, 249020, Control_c, 0, 64, 127
2, 249037, Note_on_c, 0, 64, 0
2, 249239, Note_on_c, 0, 58, 70
2, 249252, Control_c, 0, 64, 120
2, 249252, Note_on_c, 0, 67, 87
2, 249256, Note_on_c, 0, 73, 80
2, 249269, Control_c, 0, 64, 102
2, 249287, Control_c, 0, 64, 92
2, 249307, Control_c, 0, 64, 79
2, 249327, Control_c, 0, 64, 70
2, 249346, Control_c, 0, 64, 63
2, 249368, Control_c, 0, 64, 58
2, 249386, Control_c, 0, 64, 55
2, 249391, Note_on_c, 0, 68, 0
2, 249441, Note_on_c, 0, 59, 0
2, 249445, Control_c, 0, 64, 54
2, 249479, Control_c, 0, 64, 53
2, 249519, Control_c, 0, 64, 52
2, 249537, Control_c, 0, 64, 49
2, 249556, Control_c, 0, 64, 45
2, 249576, Control_c, 0, 64, 37
2, 249596, Control_c, 0, 64, 30
2, 249614, Control_c, 0, 64, 26
2, 249633, Control_c, 0, 64, 25
2, 249702, Note_on_c, 0, 71, 89
2, 249711, Note_on_c, 0, 61, 71
2, 249717, Note_on_c, 0, 52, 60
2, 249732, Control_c, 0, 64, 28
2, 249753, Note_on_c, 0, 49, 0
2, 249755, Control_c, 0, 64, 32
2, 249770, Control_c, 0, 64, 36
2, 249790, Control_c, 0, 64, 43
2, 249803, Note_on_c, 0, 73, 0
2, 249810, Control_c, 0, 64, 53
2, 249820, Note_on_c, 0, 58, 0
2, 249830, Control_c, 0, 64, 61
2, 249847, Control_c, 0, 64, 63
2, 249867, Control_c, 0, 64, 65
2, 249886, Control_c, 0, 64, 70
2, 249907, Control_c, 0, 64, 79
2, 249925, Control_c, 0, 64, 90
2, 249933, Note_on_c, 0, 61, 0
2, 249945, Control_c, 0, 64, 99
2, 249963, Control_c, 0, 64, 103
2, 249982, Control_c, 0, 64, 104
2, 249996, Note_on_c, 0, 52, 0
2, 250059, Control_c, 0, 64, 103
2, 250077, Control_c, 0, 64, 102
2, 250097, Control_c, 0, 64, 100
2, 250117, Control_c, 0, 64, 97
2, 250135, Control_c, 0, 64, 92
2, 250154, Control_c, 0, 64, 88
2, 250172, Note_on_c, 0, 42, 81
2, 250172, Note_on_c, 0, 70, 83
2, 250177, Control_c, 0, 64, 82
2, 250192, Control_c, 0, 64, 74
2, 250202, Note_on_c, 0, 71, 0
2, 250211, Control_c, 0, 64, 64
2, 250231, Control_c, 0, 64, 50
2, 250251, Control_c, 0, 64, 34
2, 250271, Control_c, 0, 64, 29
2, 250288, Control_c, 0, 64, 30
2, 250307, Control_c, 0, 64, 34
2, 250330, Control_c, 0, 64, 40
2, 250346, Control_c, 0, 64, 51
2, 250366, Control_c, 0, 64, 63
2, 250385, Control_c, 0, 64, 69
2, 250400, Note_on_c, 0, 42, 0
2, 250404, Control_c, 0, 64, 81
2, 250424, Control_c, 0, 64, 95
2, 250444, Control_c, 0, 64, 127
2, 250617, Control_c, 0, 64, 112
2, 250636, Control_c, 0, 64, 104
2, 250654, Control_c, 0, 64, 99
2, 250674, Control_c, 0, 64, 95
2, 250696, Control_c, 0, 64, 92
2, 250714, Control_c, 0, 64, 87
2, 250727, Note_on_c, 0, 64, 92
2, 250731, Control_c, 0, 64, 79
2, 250736, Note_on_c, 0, 61, 75
2, 250752, Control_c, 0, 64, 71
2, 250758, Note_on_c, 0, 54, 61
2, 250771, Control_c, 0, 64, 65
2, 250789, Control_c, 0, 64, 60
2, 250807, Control_c, 0, 64, 57
2, 250855, Note_on_c, 0, 67, 0
2, 250923, Control_c, 0, 64, 56
2, 250943, Control_c, 0, 64, 55
2, 250960, Control_c, 0, 64, 54
2, 250980, Control_c, 0, 64, 55
2, 251205, Note_on_c, 0, 56, 69
2, 251205, Note_on_c, 0, 71, 88
2, 251216, Note_on_c, 0, 62, 76
2, 251225, Note_on_c, 0, 66, 71
2, 251251, Control_c, 0, 64, 54
2, 251251, Note_on_c, 0, 70, 0
2, 251268, Control_c, 0, 64, 52
2, 251289, Control_c, 0, 64, 50
2, 251307, Control_c, 0, 64, 49
2, 251314, Note_on_c, 0, 54, 0
2, 251325, Note_on_c, 0, 61, 0
2, 251390, Note_on_c, 0, 64, 0
2, 251440, Control_c, 0, 64, 50
2, 251458, Control_c, 0, 64, 52
2, 251479, Control_c, 0, 64, 57
2, 251498, Control_c, 0, 64, 62
2, 251520, Control_c, 0, 64, 65
2, 251539, Control_c, 0, 64, 66
2, 251576, Control_c, 0, 64, 67
2, 251594, Control_c, 0, 64, 66
2, 251605, Note_on_c, 0, 66, 0
2, 251634, Control_c, 0, 64, 65
2, 251654, Control_c, 0, 64, 64
2, 251658, Note_on_c, 0, 61, 74
2, 251662, Note_on_c, 0, 58, 67
2, 251662, Note_on_c, 0, 73, 97
2, 251674, Control_c, 0, 64, 62
2, 251674, Note_on_c, 0, 64, 73
2, 251690, Control_c, 0, 64, 57
2, 251707, Note_on_c, 0, 71, 0
2, 251711, Control_c, 0, 64, 49
2, 251731, Control_c, 0, 64, 38
2, 251735, Note_on_c, 0, 62, 0
2, 251749, Control_c, 0, 64, 30
2, 251766, Control_c, 0, 64, 29
2, 251771, Note_on_c, 0, 56, 0
2, 251786, Control_c, 0, 64, 31
2, 251809, Control_c, 0, 64, 34
2, 251824, Control_c, 0, 64, 40
2, 251846, Control_c, 0, 64, 52
2, 251863, Control_c, 0, 64, 63
2, 251883, Control_c, 0, 64, 67
2, 251901, Control_c, 0, 64, 72
2, 251921, Control_c, 0, 64, 79
2, 251941, Control_c, 0, 64, 87
2, 251959, Control_c, 0, 64, 90
2, 251998, Control_c, 0, 64, 89
2, 252012, Note_on_c, 0, 64, 0
2, 252021, Control_c, 0, 64, 88
2, 252038, Control_c, 0, 64, 87
2, 252055, Control_c, 0, 64, 86
2, 252075, Control_c, 0, 64, 83
2, 252095, Control_c, 0, 64, 80
2, 252115, Control_c, 0, 64, 76
2, 252123, Note_on_c, 0, 74, 91
2, 252128, Note_on_c, 0, 59, 75
2, 252132, Control_c, 0, 64, 71
2, 252150, Note_on_c, 0, 62, 75
2, 252154, Control_c, 0, 64, 66
2, 252172, Control_c, 0, 64, 62
2, 252188, Control_c, 0, 64, 59
2, 252208, Control_c, 0, 64, 58
2, 252261, Note_on_c, 0, 61, 0
2, 252265, Control_c, 0, 64, 57
2, 252288, Note_on_c, 0, 58, 0
2, 252305, Control_c, 0, 64, 56
2, 252309, Note_on_c, 0, 73, 0
2, 252324, Control_c, 0, 64, 54
2, 252342, Control_c, 0, 64, 51
2, 252363, Control_c, 0, 64, 50
2, 252384, Control_c, 0, 64, 49
2, 252584, Note_on_c, 0, 66, 79
2, 252598, Note_on_c, 0, 57, 54
2, 252670, Control_c, 0, 64, 48
2, 252690, Control_c, 0, 64, 47
2, 252708, Control_c, 0, 64, 46
2, 252727, Control_c, 0, 64, 45
2, 253037, Note_on_c, 0, 71, 85
2, 253066, Note_on_c, 0, 56, 51
2, 253220, Note_on_c, 0, 57, 0
2, 253233, Note_on_c, 0, 66, 0
2, 253478, Note_on_c, 0, 69, 79
2, 253501, Note_on_c, 0, 54, 50
2, 253612, Note_on_c, 0, 56, 0
2, 253632, Note_on_c, 0, 71, 0
2, 253951, Note_on_c, 0, 68, 78
2, 253957, Note_on_c, 0, 53, 55
2, 254103, Note_on_c, 0, 54, 0
2, 254123, Note_on_c, 0, 69, 0
2, 254410, Note_on_c, 0, 56, 71
2, 254635, Note_on_c, 0, 62, 0
2, 254679, Note_on_c, 0, 59, 0
2, 254849, Note_on_c, 0, 61, 68
2, 254868, Note_on_c, 0, 73, 83
2, 255012, Note_on_c, 0, 74, 0
2, 255066, Note_on_c, 0, 56, 0
2, 255301, Note_on_c, 0, 59, 77
2, 255450, Note_on_c, 0, 61, 0
2, 255454, Note_on_c, 0, 68, 0
2, 255785, Note_on_c, 0, 57, 79
2, 255867, Note_on_c, 0, 53, 0
2, 255892, Note_on_c, 0, 59, 0
2, 256050, Control_c, 0, 64, 46
2, 256108, Control_c, 0, 64, 47
2, 256316, Note_on_c, 0, 54, 78
2, 256367, Note_on_c, 0, 61, 50
2, 256434, Control_c, 0, 64, 48
2, 256471, Control_c, 0, 64, 49
2, 256489, Control_c, 0, 64, 51
2, 256509, Control_c, 0, 64, 54
2, 256530, Control_c, 0, 64, 59
2, 256547, Control_c, 0, 64, 62
2, 256567, Control_c, 0, 64, 65
2, 256585, Control_c, 0, 64, 71
2, 256605, Control_c, 0, 64, 88
2, 256625, Control_c, 0, 64, 127
2, 256691, Note_on_c, 0, 54, 0
2, 256740, Control_c, 0, 64, 122
2, 256761, Control_c, 0, 64, 105
2, 256781, Control_c, 0, 64, 98
2, 256798, Control_c, 0, 64, 92
2, 256817, Control_c, 0, 64, 85
2, 256828, Note_on_c, 0, 54, 86
2, 256832, Note_on_c, 0, 66, 77
2, 256837, Control_c, 0, 64, 77
2, 256855, Control_c, 0, 64, 69
2, 256873, Control_c, 0, 64, 63
2, 256894, Control_c, 0, 64, 59
2, 256912, Control_c, 0, 64, 57
2, 256932, Control_c, 0, 64, 56
2, 256951, Control_c, 0, 64, 55
2, 256970, Control_c, 0, 64, 53
2, 256988, Control_c, 0, 64, 52
2, 257027, Control_c, 0, 64, 54
2, 257047, Control_c, 0, 64, 56
2, 257065, Control_c, 0, 64, 59
2, 257085, Control_c, 0, 64, 64
2, 257105, Control_c, 0, 64, 69
2, 257124, Control_c, 0, 64, 76
2, 257143, Control_c, 0, 64, 84
2, 257163, Control_c, 0, 64, 90
2, 257168, Note_on_c, 0, 54, 0
2, 257196, Note_on_c, 0, 61, 0
2, 257201, Control_c, 0, 64, 89
2, 257220, Control_c, 0, 64, 88
2, 257240, Control_c, 0, 64, 87
2, 257259, Control_c, 0, 64, 86
2, 257276, Control_c, 0, 64, 85
2, 257289, Note_on_c, 0, 54, 88
2, 257291, Note_on_c, 0, 64, 75
2, 257297, Control_c, 0, 64, 84
2, 257316, Control_c, 0, 64, 82
2, 257336, Control_c, 0, 64, 80
2, 257354, Control_c, 0, 64, 78
2, 257374, Control_c, 0, 64, 77
2, 257385, Note_on_c, 0, 73, 0
2, 257394, Control_c, 0, 64, 76
2, 257412, Control_c, 0, 64, 75
2, 257430, Control_c, 0, 64, 72
2, 257450, Control_c, 0, 64, 69
2, 257469, Control_c, 0, 64, 65
2, 257491, Control_c, 0, 64, 63
2, 257509, Control_c, 0, 64, 62
2, 257624, Control_c, 0, 64, 63
2, 257680, Control_c, 0, 64, 62
2, 257747, Note_on_c, 0, 47, 84
2, 257760, Control_c, 0, 64, 61
2, 257767, Note_on_c, 0, 66, 0
2, 257779, Control_c, 0, 64, 60
2, 257779, Note_on_c, 0, 62, 62
2, 257796, Control_c, 0, 64, 59
2, 257815, Control_c, 0, 64, 58
2, 257836, Control_c, 0, 64, 56
2, 257856, Control_c, 0, 64, 54
2, 257871, Control_c, 0, 64, 52
2, 257891, Control_c, 0, 64, 51
2, 257968, Control_c, 0, 64, 50
2, 258007, Control_c, 0, 64, 49
2, 258021, Note_on_c, 0, 54, 0
2, 258046, Control_c, 0, 64, 48
2, 258064, Control_c, 0, 64, 47
2, 258084, Control_c, 0, 64, 46
2, 258124, Control_c, 0, 64, 45
2, 258192, Note_on_c, 0, 54, 66
2, 258201, Note_on_c, 0, 71, 75
2, 258214, Note_on_c, 0, 64, 0
2, 258386, Note_on_c, 0, 69, 72
2, 258399, Note_on_c, 0, 57, 0
2, 258411, Control_c, 0, 64, 44
2, 258448, Control_c, 0, 64, 43
2, 258540, Note_on_c, 0, 71, 0
2, 258603, Control_c, 0, 64, 42
2, 258631, Note_on_c, 0, 59, 83
2, 258636, Note_on_c, 0, 50, 65
2, 258644, Control_c, 0, 64, 41
2, 258644, Note_on_c, 0, 68, 86
2, 258661, Control_c, 0, 64, 39
2, 258694, Note_on_c, 0, 69, 0
2, 258720, Control_c, 0, 64, 38
2, 258755, Control_c, 0, 64, 37
2, 258794, Control_c, 0, 64, 36
2, 258831, Note_on_c, 0, 47, 0
2, 258846, Note_on_c, 0, 54, 0
2, 259063, Control_c, 0, 64, 37
2, 259081, Note_on_c, 0, 66, 84
2, 259085, Note_on_c, 0, 61, 77
2, 259090, Note_on_c, 0, 57, 76
2, 259160, Control_c, 0, 64, 38
2, 259184, Note_on_c, 0, 59, 0
2, 259199, Control_c, 0, 64, 39
2, 259208, Note_on_c, 0, 62, 0
2, 259236, Control_c, 0, 64, 40
2, 259241, Note_on_c, 0, 68, 0
2, 259293, Control_c, 0, 64, 41
2, 259314, Control_c, 0, 64, 42
2, 259331, Control_c, 0, 64, 43
2, 259351, Control_c, 0, 64, 47
2, 259371, Control_c, 0, 64, 56
2, 259389, Control_c, 0, 64, 64
2, 259410, Control_c, 0, 64, 68
2, 259429, Control_c, 0, 64, 75
2, 259449, Control_c, 0, 64, 86
2, 259467, Control_c, 0, 64, 100
2, 259485, Control_c, 0, 64, 111
2, 259505, Control_c, 0, 64, 112
2, 259543, Control_c, 0, 64, 107
2, 259563, Control_c, 0, 64, 103
2, 259581, Control_c, 0, 64, 100
2, 259588, Note_on_c, 0, 65, 87
2, 259597, Note_on_c, 0, 56, 80
2, 259597, Note_on_c, 0, 59, 83
2, 259601, Control_c, 0, 64, 95
2, 259619, Control_c, 0, 64, 91
2, 259638, Control_c, 0, 64, 85
2, 259660, Control_c, 0, 64, 78
2, 259680, Control_c, 0, 64, 71
2, 259680, Note_on_c, 0, 57, 0
2, 259697, Control_c, 0, 64, 66
2, 259715, Control_c, 0, 64, 63
2, 259737, Control_c, 0, 64, 61
2, 259744, Note_on_c, 0, 61, 0
2, 259755, Control_c, 0, 64, 60
2, 259772, Note_on_c, 0, 50, 0
2, 259772, Note_on_c, 0, 66, 0
2, 259811, Control_c, 0, 64, 59
2, 259850, Control_c, 0, 64, 58
2, 259869, Control_c, 0, 64, 57
2, 259889, Control_c, 0, 64, 56
2, 259907, Control_c, 0, 64, 54
2, 259927, Control_c, 0, 64, 53
2, 259947, Control_c, 0, 64, 51
2, 259965, Control_c, 0, 64, 50
2, 260004, Control_c, 0, 64, 49
2, 260026, Control_c, 0, 64, 48
2, 260042, Control_c, 0, 64, 45
2, 260060, Control_c, 0, 64, 41
2, 260081, Control_c, 0, 64, 37
2, 260103, Control_c, 0, 64, 30
2, 260118, Control_c, 0, 64, 19
2, 260137, Control_c, 0, 64, 0
2, 260145, Note_on_c, 0, 44, 85
2, 260673, Note_on_c, 0, 49, 79
2, 260891, Note_on_c, 0, 44, 0
2, 261129, Note_on_c, 0, 47, 77
2, 261332, Note_on_c, 0, 49, 0
2, 261596, Note_on_c, 0, 45, 68
2, 261756, Note_on_c, 0, 47, 0
2, 262064, Note_on_c, 0, 54, 60
2, 262070, Note_on_c, 0, 57, 59
2, 262070, Note_on_c, 0, 61, 58
2, 262086, Note_on_c, 0, 56, 0
2, 262112, Note_on_c, 0, 59, 0
2, 262169, Note_on_c, 0, 65, 0
2, 262263, Note_on_c, 0, 59, 71
2, 262275, Note_on_c, 0, 56, 59
2, 262298, Note_on_c, 0, 61, 0
2, 262303, Note_on_c, 0, 54, 0
2, 262307, Note_on_c, 0, 57, 0
2, 262504, Note_on_c, 0, 66, 71
2, 262523, Note_on_c, 0, 56, 0
2, 262531, Note_on_c, 0, 61, 48
2, 262538, Note_on_c, 0, 57, 63
2, 262542, Note_on_c, 0, 59, 0
2, 262654, Control_c, 0, 64, 22
2, 262672, Control_c, 0, 64, 37
2, 262691, Control_c, 0, 64, 53
2, 262710, Control_c, 0, 64, 63
2, 262732, Control_c, 0, 64, 65
2, 262749, Control_c, 0, 64, 69
2, 262767, Control_c, 0, 64, 74
2, 262785, Note_on_c, 0, 45, 0
2, 262789, Control_c, 0, 64, 83
2, 262807, Control_c, 0, 64, 91
2, 262825, Control_c, 0, 64, 92
2, 262847, Control_c, 0, 64, 90
2, 262860, Note_on_c, 0, 61, 0
2, 262865, Control_c, 0, 64, 87
2, 262884, Control_c, 0, 64, 83
2, 262903, Control_c, 0, 64, 81
2, 262923, Control_c, 0, 64, 79
2, 262943, Control_c, 0, 64, 77
2, 262956, Note_on_c, 0, 47, 60
2, 262960, Control_c, 0, 64, 74
2, 262973, Note_on_c, 0, 62, 62
2, 262980, Control_c, 0, 64, 70
2, 263002, Control_c, 0, 64, 66
2, 263019, Control_c, 0, 64, 63
2, 263038, Control_c, 0, 64, 61
2, 263077, Control_c, 0, 64, 60
2, 263132, Control_c, 0, 64, 59
2, 263152, Control_c, 0, 64, 58
2, 263175, Control_c, 0, 64, 57
2, 263192, Control_c, 0, 64, 56
2, 263211, Control_c, 0, 64, 55
2, 263231, Control_c, 0, 64, 54
2, 263249, Control_c, 0, 64, 53
2, 263266, Control_c, 0, 64, 51
2, 263289, Control_c, 0, 64, 49
2, 263306, Control_c, 0, 64, 46
2, 263324, Control_c, 0, 64, 43
2, 263344, Control_c, 0, 64, 41
2, 263367, Control_c, 0, 64, 40
2, 263382, Control_c, 0, 64, 39
2, 263410, Note_on_c, 0, 56, 54
2, 263410, Note_on_c, 0, 61, 55
2, 263419, Note_on_c, 0, 49, 48
2, 263423, Control_c, 0, 64, 37
2, 263443, Control_c, 0, 64, 35
2, 263460, Control_c, 0, 64, 33
2, 263475, Note_on_c, 0, 47, 0
2, 263475, Note_on_c, 0, 62, 0
2, 263480, Control_c, 0, 64, 31
2, 263482, Control_c, 0, 67, 9
2, 263500, Control_c, 0, 64, 29
2, 263500, Control_c, 0, 67, 11
2, 263520, Control_c, 0, 64, 28
2, 263524, Control_c, 0, 67, 13
2, 263524, Note_on_c, 0, 57, 0
2, 263537, Control_c, 0, 64, 27
2, 263537, Control_c, 0, 67, 15
2, 263557, Control_c, 0, 64, 26
2, 263557, Control_c, 0, 67, 17
2, 263576, Control_c, 0, 64, 25
2, 263576, Control_c, 0, 67, 18
2, 263612, Control_c, 0, 64, 24
2, 263632, Control_c, 0, 67, 17
2, 263691, Control_c, 0, 64, 23
2, 263691, Control_c, 0, 67, 16
2, 263748, Control_c, 0, 67, 15
2, 263787, Control_c, 0, 67, 14
2, 263864, Control_c, 0, 67, 13
2, 263891, Note_on_c, 0, 54, 56
2, 263948, Note_on_c, 0, 56, 0
2, 264093, Control_c, 0, 67, 12
2, 264286, Control_c, 0, 67, 11
2, 264350, Note_on_c, 0, 56, 45
2, 264354, Note_on_c, 0, 65, 56
2, 264376, Note_on_c, 0, 54, 0
2, 264400, Control_c, 0, 64, 22
2, 264425, Note_on_c, 0, 61, 0
2, 264454, Note_on_c, 0, 66, 0
2, 264497, Control_c, 0, 67, 10
2, 264574, Control_c, 0, 64, 23
2, 264574, Control_c, 0, 67, 9
2, 264596, Control_c, 0, 64, 25
2, 264616, Control_c, 0, 64, 27
2, 264633, Control_c, 0, 64, 28
2, 264633, Control_c, 0, 67, 8
2, 264653, Control_c, 0, 64, 30
2, 264653, Control_c, 0, 67, 0
2, 264671, Control_c, 0, 64, 31
2, 264689, Control_c, 0, 64, 33
2, 264707, Control_c, 0, 64, 35
2, 264728, Control_c, 0, 64, 38
2, 264748, Control_c, 0, 64, 42
2, 264766, Control_c, 0, 64, 48
2, 264784, Control_c, 0, 64, 52
2, 264800, Note_on_c, 0, 59, 48
2, 264804, Control_c, 0, 64, 55
2, 264825, Control_c, 0, 64, 56
2, 264845, Control_c, 0, 64, 57
2, 264862, Control_c, 0, 64, 59
2, 264882, Control_c, 0, 64, 62
2, 264891, Note_on_c, 0, 49, 0
2, 264900, Control_c, 0, 64, 64
2, 264920, Control_c, 0, 64, 66
2, 264940, Control_c, 0, 64, 69
2, 264940, Note_on_c, 0, 56, 0
2, 264958, Control_c, 0, 64, 75
2, 264977, Control_c, 0, 64, 81
2, 264996, Control_c, 0, 64, 85
2, 265016, Control_c, 0, 64, 86
2, 265110, Control_c, 0, 64, 85
2, 265149, Control_c, 0, 64, 83
2, 265168, Control_c, 0, 64, 82
2, 265188, Control_c, 0, 64, 81
2, 265206, Control_c, 0, 64, 80
2, 265226, Control_c, 0, 64, 79
2, 265245, Control_c, 0, 64, 78
2, 265265, Control_c, 0, 64, 76
2, 265283, Control_c, 0, 64, 74
2, 265304, Control_c, 0, 64, 73
2, 265324, Control_c, 0, 64, 71
2, 265324, Note_on_c, 0, 66, 50
2, 265342, Control_c, 0, 64, 69
2, 265359, Control_c, 0, 64, 65
2, 265359, Note_on_c, 0, 57, 40
2, 265373, Note_on_c, 0, 42, 34
2, 265377, Note_on_c, 0, 54, 33
2, 265382, Control_c, 0, 64, 61
2, 265398, Control_c, 0, 64, 58
2, 265419, Control_c, 0, 64, 55
2, 265424, Note_on_c, 0, 59, 0
2, 265433, Note_on_c, 0, 65, 0
2, 265437, Control_c, 0, 64, 51
2, 265458, Control_c, 0, 64, 43
2, 265478, Control_c, 0, 64, 36
2, 265498, Control_c, 0, 64, 31
2, 265513, Control_c, 0, 64, 32
2, 265533, Control_c, 0, 64, 34
2, 265554, Control_c, 0, 64, 38
2, 265574, Control_c, 0, 64, 44
2, 265591, Control_c, 0, 64, 53
2, 265611, Control_c, 0, 64, 61
2, 265611, Note_on_c, 0, 42, 0
2, 265632, Control_c, 0, 64, 65
2, 265647, Control_c, 0, 64, 67
2, 265667, Control_c, 0, 64, 70
2, 265688, Control_c, 0, 64, 77
2, 265698, Note_on_c, 0, 57, 0
2, 265706, Control_c, 0, 64, 85
2, 265718, Note_on_c, 0, 54, 0
2, 265728, Control_c, 0, 64, 91
2, 265745, Control_c, 0, 64, 94
2, 265763, Control_c, 0, 64, 96
2, 265784, Control_c, 0, 64, 98
2, 265800, Control_c, 0, 64, 100
2, 265812, Note_on_c, 0, 66, 0
2, 265880, Control_c, 0, 64, 99
2, 265897, Control_c, 0, 64, 98
2, 265918, Control_c, 0, 64, 96
2, 265934, Note_on_c, 0, 57, 87
2, 265938, Control_c, 0, 64, 95
2, 265957, Control_c, 0, 64, 93
2, 265976, Control_c, 0, 64, 90
2, 265994, Control_c, 0, 64, 86
2, 266014, Control_c, 0, 64, 83
2, 266033, Control_c, 0, 64, 78
2, 266051, Control_c, 0, 64, 70
2, 266073, Control_c, 0, 64, 61
2, 266090, Control_c, 0, 64, 50
2, 266110, Control_c, 0, 64, 42
2, 266128, Control_c, 0, 64, 45
2, 266148, Control_c, 0, 64, 48
2, 266166, Control_c, 0, 64, 52
2, 266188, Control_c, 0, 64, 58
2, 266206, Control_c, 0, 64, 63
2, 266226, Control_c, 0, 64, 66
2, 266243, Control_c, 0, 64, 72
2, 266265, Control_c, 0, 64, 82
2, 266282, Control_c, 0, 64, 102
2, 266302, Control_c, 0, 64, 127
2, 266366, Note_on_c, 0, 57, 0
2, 266496, Note_on_c, 0, 57, 93
2, 266841, Note_on_c, 0, 57, 0
2, 266945, Note_on_c, 0, 81, 95
2, 266955, Note_on_c, 0, 57, 83
2, 267301, Note_on_c, 0, 81, 0
2, 267419, Note_on_c, 0, 50, 77
2, 267435, Note_on_c, 0, 81, 96
2, 267510, Control_c, 0, 64, 104
2, 267531, Control_c, 0, 64, 78
2, 267550, Control_c, 0, 64, 62
2, 267569, Control_c, 0, 64, 43
2, 267586, Control_c, 0, 64, 16
2, 267606, Control_c, 0, 64, 15
2, 267626, Control_c, 0, 64, 18
2, 267645, Control_c, 0, 64, 25
2, 267665, Control_c, 0, 64, 37
2, 267684, Control_c, 0, 64, 55
2, 267692, Note_on_c, 0, 57, 0
2, 267706, Control_c, 0, 64, 67
2, 267723, Control_c, 0, 64, 76
2, 267743, Control_c, 0, 64, 98
2, 267760, Control_c, 0, 64, 127
2, 267767, Note_on_c, 0, 81, 0
2, 267881, Note_on_c, 0, 81, 99
2, 267909, Note_on_c, 0, 69, 60
2, 267972, Note_on_c, 0, 69, 0
2, 267974, Note_on_c, 0, 69, 19
2, 268187, Note_on_c, 0, 69, 0
2, 268297, Control_c, 0, 64, 118
2, 268318, Control_c, 0, 64, 110
2, 268337, Control_c, 0, 64, 106
2, 268340, Note_on_c, 0, 74, 95
2, 268351, Note_on_c, 0, 54, 76
2, 268355, Control_c, 0, 64, 104
2, 268360, Note_on_c, 0, 69, 65
2, 268376, Control_c, 0, 64, 100
2, 268394, Control_c, 0, 64, 93
2, 268414, Control_c, 0, 64, 84
2, 268432, Control_c, 0, 64, 76
2, 268454, Control_c, 0, 64, 66
2, 268471, Control_c, 0, 64, 61
2, 268491, Control_c, 0, 64, 52
2, 268511, Control_c, 0, 64, 37
2, 268529, Control_c, 0, 64, 0
2, 268544, Note_on_c, 0, 50, 0
2, 268586, Control_c, 0, 64, 15
2, 268605, Control_c, 0, 64, 34
2, 268615, Note_on_c, 0, 69, 0
2, 268624, Control_c, 0, 64, 56
2, 268644, Control_c, 0, 64, 68
2, 268662, Control_c, 0, 64, 76
2, 268684, Control_c, 0, 64, 88
2, 268700, Control_c, 0, 64, 103
2, 268720, Control_c, 0, 64, 127
2, 268778, Note_on_c, 0, 69, 79
2, 268973, Note_on_c, 0, 69, 0
2, 269231, Note_on_c, 0, 62, 71
2, 269231, Note_on_c, 0, 78, 99
2, 269307, Note_on_c, 0, 81, 0
2, 269412, Note_on_c, 0, 62, 0
2, 269546, Note_on_c, 0, 54, 0
2, 269546, Note_on_c, 0, 74, 0
2, 269565, Control_c, 0, 64, 116
2, 269584, Control_c, 0, 64, 112
2, 269603, Control_c, 0, 64, 109
2, 269623, Control_c, 0, 64, 106
2, 269645, Control_c, 0, 64, 101
2, 269649, Note_on_c, 0, 47, 76
2, 269658, Note_on_c, 0, 50, 75
2, 269663, Control_c, 0, 64, 95
2, 269679, Control_c, 0, 64, 88
2, 269699, Control_c, 0, 64, 83
2, 269721, Control_c, 0, 64, 78
2, 269737, Control_c, 0, 64, 74
2, 269757, Control_c, 0, 64, 71
2, 269779, Control_c, 0, 64, 67
2, 269796, Control_c, 0, 64, 65
2, 269816, Control_c, 0, 64, 64
2, 269972, Control_c, 0, 64, 63
2, 270025, Control_c, 0, 64, 62
2, 270103, Control_c, 0, 64, 61
2, 270123, Control_c, 0, 64, 60
2, 270123, Note_on_c, 0, 55, 85
2, 270132, Note_on_c, 0, 52, 66
2, 270140, Control_c, 0, 64, 59
2, 270160, Control_c, 0, 64, 58
2, 270179, Control_c, 0, 64, 57
2, 270199, Control_c, 0, 64, 56
2, 270217, Control_c, 0, 64, 55
2, 270237, Control_c, 0, 64, 54
2, 270257, Control_c, 0, 64, 53
2, 270277, Control_c, 0, 64, 51
2, 270294, Control_c, 0, 64, 50
2, 270313, Control_c, 0, 64, 49
2, 270320, Note_on_c, 0, 50, 0
2, 270324, Note_on_c, 0, 47, 0
2, 270354, Control_c, 0, 64, 48
2, 270533, Note_on_c, 0, 71, 93
2, 270551, Note_on_c, 0, 50, 60
2, 270551, Note_on_c, 0, 54, 65
2, 270560, Control_c, 0, 64, 49
2, 270613, Note_on_c, 0, 55, 0
2, 270639, Control_c, 0, 64, 50
2, 270731, Note_on_c, 0, 78, 0
2, 270735, Note_on_c, 0, 52, 0
2, 270944, Control_c, 0, 64, 49
2, 270994, Note_on_c, 0, 76, 93
2, 270998, Note_on_c, 0, 52, 56
2, 271005, Control_c, 0, 64, 48
2, 271010, Note_on_c, 0, 49, 55
2, 271020, Note_on_c, 0, 54, 0
2, 271022, Control_c, 0, 64, 46
2, 271029, Note_on_c, 0, 50, 0
2, 271041, Control_c, 0, 64, 40
2, 271060, Control_c, 0, 64, 33
2, 271079, Control_c, 0, 64, 30
2, 271098, Control_c, 0, 64, 29
2, 271105, Note_on_c, 0, 71, 0
2, 271139, Control_c, 0, 64, 31
2, 271157, Control_c, 0, 64, 35
2, 271175, Control_c, 0, 64, 43
2, 271195, Control_c, 0, 64, 56
2, 271213, Control_c, 0, 64, 66
2, 271232, Control_c, 0, 64, 72
2, 271250, Control_c, 0, 64, 83
2, 271272, Control_c, 0, 64, 96
2, 271289, Control_c, 0, 64, 120
2, 271311, Control_c, 0, 64, 127
2, 271328, Note_on_c, 0, 76, 0
2, 271348, Control_c, 0, 64, 115
2, 271368, Control_c, 0, 64, 107
2, 271385, Control_c, 0, 64, 102
2, 271405, Control_c, 0, 64, 99
2, 271425, Control_c, 0, 64, 94
2, 271429, Note_on_c, 0, 64, 83
2, 271446, Note_on_c, 0, 74, 81
2, 271450, Control_c, 0, 64, 87
2, 271450, Note_on_c, 0, 47, 55
2, 271464, Control_c, 0, 64, 77
2, 271482, Control_c, 0, 64, 71
2, 271500, Control_c, 0, 64, 67
2, 271522, Control_c, 0, 64, 64
2, 271534, Note_on_c, 0, 49, 0
2, 271540, Control_c, 0, 64, 62
2, 271561, Control_c, 0, 64, 61
2, 271579, Control_c, 0, 64, 60
2, 271599, Control_c, 0, 64, 59
2, 271617, Control_c, 0, 64, 58
2, 271675, Control_c, 0, 64, 57
2, 271713, Control_c, 0, 64, 56
2, 271723, Note_on_c, 0, 52, 0
2, 271735, Control_c, 0, 64, 55
2, 271751, Control_c, 0, 64, 53
2, 271770, Control_c, 0, 64, 51
2, 271790, Control_c, 0, 64, 48
2, 271809, Control_c, 0, 64, 46
2, 271827, Control_c, 0, 64, 44
2, 271845, Control_c, 0, 64, 42
2, 271865, Control_c, 0, 64, 40
2, 271874, Note_on_c, 0, 45, 63
2, 271887, Control_c, 0, 64, 35
2, 271896, Note_on_c, 0, 69, 62
2, 271896, Note_on_c, 0, 73, 86
2, 271900, Note_on_c, 0, 47, 0
2, 271905, Control_c, 0, 64, 25
2, 271925, Control_c, 0, 64, 0
2, 271997, Note_on_c, 0, 64, 0
2, 272008, Note_on_c, 0, 74, 0
2, 272038, Control_c, 0, 64, 14
2, 272057, Control_c, 0, 64, 31
2, 272077, Control_c, 0, 64, 53
2, 272097, Control_c, 0, 64, 66
2, 272115, Control_c, 0, 64, 72
2, 272134, Control_c, 0, 64, 81
2, 272152, Note_on_c, 0, 45, 0
2, 272156, Control_c, 0, 64, 88
2, 272173, Control_c, 0, 64, 95
2, 272193, Control_c, 0, 64, 97
2, 272231, Control_c, 0, 64, 95
2, 272250, Control_c, 0, 64, 93
2, 272288, Control_c, 0, 64, 91
2, 272308, Control_c, 0, 64, 88
2, 272329, Control_c, 0, 64, 85
2, 272340, Note_on_c, 0, 57, 82
2, 272345, Control_c, 0, 64, 82
2, 272356, Note_on_c, 0, 67, 64
2, 272365, Control_c, 0, 64, 79
2, 272383, Control_c, 0, 64, 76
2, 272403, Control_c, 0, 64, 73
2, 272423, Control_c, 0, 64, 68
2, 272443, Control_c, 0, 64, 65
2, 272447, Note_on_c, 0, 69, 0
2, 272466, Control_c, 0, 64, 62
2, 272479, Control_c, 0, 64, 61
2, 272502, Control_c, 0, 64, 60
2, 272692, Control_c, 0, 64, 59
2, 272749, Control_c, 0, 64, 58
2, 272786, Control_c, 0, 64, 56
2, 272802, Note_on_c, 0, 62, 83
2, 272806, Control_c, 0, 64, 54
2, 272811, Note_on_c, 0, 67, 0
2, 272824, Note_on_c, 0, 66, 61
2, 272828, Control_c, 0, 64, 52
2, 272846, Control_c, 0, 64, 51
2, 272904, Control_c, 0, 64, 50
2, 272961, Control_c, 0, 64, 49
2, 272981, Control_c, 0, 64, 48
2, 272995, Note_on_c, 0, 57, 0
2, 273240, Note_on_c, 0, 69, 73
2, 273249, Note_on_c, 0, 60, 60
2, 273428, Note_on_c, 0, 62, 0
2, 273459, Control_c, 0, 64, 47
2, 273463, Note_on_c, 0, 73, 0
2, 273690, Note_on_c, 0, 59, 58
2, 273693, Control_c, 0, 64, 45
2, 273697, Note_on_c, 0, 74, 75
2, 273711, Control_c, 0, 64, 42
2, 273730, Control_c, 0, 64, 39
2, 273764, Note_on_c, 0, 69, 0
2, 273800, Note_on_c, 0, 60, 0
2, 273805, Control_c, 0, 64, 41
2, 273824, Control_c, 0, 64, 44
2, 273845, Control_c, 0, 64, 50
2, 273863, Control_c, 0, 64, 60
2, 273881, Control_c, 0, 64, 68
2, 273903, Control_c, 0, 64, 78
2, 273916, Note_on_c, 0, 74, 0
2, 273924, Control_c, 0, 64, 100
2, 273940, Control_c, 0, 64, 127
2, 274055, Control_c, 0, 64, 110
2, 274075, Control_c, 0, 64, 102
2, 274092, Control_c, 0, 64, 95
2, 274112, Control_c, 0, 64, 89
2, 274134, Control_c, 0, 64, 82
2, 274134, Note_on_c, 0, 72, 78
2, 274151, Control_c, 0, 64, 74
2, 274156, Note_on_c, 0, 62, 67
2, 274169, Control_c, 0, 64, 67
2, 274189, Control_c, 0, 64, 60
2, 274209, Control_c, 0, 64, 49
2, 274227, Control_c, 0, 64, 41
2, 274248, Control_c, 0, 64, 37
2, 274248, Note_on_c, 0, 66, 0
2, 274266, Control_c, 0, 64, 36
2, 274303, Control_c, 0, 64, 39
2, 274323, Control_c, 0, 64, 43
2, 274343, Control_c, 0, 64, 50
2, 274363, Control_c, 0, 64, 62
2, 274381, Control_c, 0, 64, 67
2, 274401, Control_c, 0, 64, 73
2, 274412, Note_on_c, 0, 62, 0
2, 274419, Control_c, 0, 64, 82
2, 274439, Control_c, 0, 64, 93
2, 274460, Control_c, 0, 64, 98
2, 274498, Control_c, 0, 64, 96
2, 274516, Control_c, 0, 64, 93
2, 274534, Control_c, 0, 64, 92
2, 274553, Control_c, 0, 64, 91
2, 274573, Control_c, 0, 64, 90
2, 274591, Note_on_c, 0, 71, 69
2, 274593, Control_c, 0, 64, 87
2, 274612, Control_c, 0, 64, 83
2, 274612, Note_on_c, 0, 67, 61
2, 274630, Control_c, 0, 64, 79
2, 274652, Control_c, 0, 64, 76
2, 274656, Note_on_c, 0, 59, 0
2, 274670, Control_c, 0, 64, 75
2, 274708, Note_on_c, 0, 72, 0
2, 274710, Control_c, 0, 64, 73
2, 274730, Control_c, 0, 64, 71
2, 274746, Control_c, 0, 64, 68
2, 274765, Control_c, 0, 64, 66
2, 274841, Control_c, 0, 64, 65
2, 274900, Control_c, 0, 64, 64
2, 274918, Control_c, 0, 64, 63
2, 274940, Control_c, 0, 64, 62
2, 274996, Control_c, 0, 64, 61
2, 275014, Note_on_c, 0, 47, 70
2, 275035, Control_c, 0, 64, 59
2, 275043, Note_on_c, 0, 66, 50
2, 275045, Note_on_c, 0, 57, 56
2, 275057, Control_c, 0, 64, 58
2, 275072, Control_c, 0, 64, 57
2, 275110, Control_c, 0, 64, 56
2, 275130, Control_c, 0, 64, 55
2, 275151, Control_c, 0, 64, 53
2, 275169, Control_c, 0, 64, 50
2, 275173, Note_on_c, 0, 67, 0
2, 275189, Control_c, 0, 64, 49
2, 275496, Note_on_c, 0, 52, 56
2, 275496, Note_on_c, 0, 64, 58
2, 275501, Note_on_c, 0, 55, 54
2, 275606, Note_on_c, 0, 66, 0
2, 275634, Note_on_c, 0, 57, 0
2, 275687, Control_c, 0, 64, 50
2, 275708, Note_on_c, 0, 47, 0
2, 275737, Note_on_c, 0, 71, 0
2, 275802, Control_c, 0, 64, 49
2, 275945, Note_on_c, 0, 50, 56
2, 275945, Note_on_c, 0, 71, 85
2, 276162, Note_on_c, 0, 52, 0
2, 276404, Note_on_c, 0, 76, 93
2, 276413, Note_on_c, 0, 48, 72
2, 276569, Control_c, 0, 64, 48
2, 276577, Note_on_c, 0, 50, 0
2, 276675, Note_on_c, 0, 71, 0
2, 276848, Note_on_c, 0, 74, 90
2, 276850, Note_on_c, 0, 52, 76
2, 276863, Note_on_c, 0, 47, 68
2, 276957, Note_on_c, 0, 48, 0
2, 276994, Control_c, 0, 64, 47
2, 277011, Control_c, 0, 64, 46
2, 277030, Control_c, 0, 64, 44
2, 277037, Note_on_c, 0, 76, 0
2, 277053, Control_c, 0, 64, 43
2, 277072, Control_c, 0, 64, 42
2, 277108, Note_on_c, 0, 55, 0
2, 277112, Control_c, 0, 64, 41
2, 277127, Control_c, 0, 64, 40
2, 277147, Control_c, 0, 64, 39
2, 277350, Note_on_c, 0, 72, 90
2, 277364, Note_on_c, 0, 57, 67
2, 277369, Note_on_c, 0, 45, 55
2, 277425, Note_on_c, 0, 74, 0
2, 277455, Control_c, 0, 64, 38
2, 277464, Note_on_c, 0, 47, 0
2, 277526, Note_on_c, 0, 52, 0
2, 277535, Note_on_c, 0, 64, 0
2, 277552, Control_c, 0, 64, 37
2, 277571, Control_c, 0, 64, 36
2, 277591, Control_c, 0, 64, 35
2, 277648, Control_c, 0, 64, 34
2, 277867, Note_on_c, 0, 64, 88
2, 277878, Note_on_c, 0, 55, 46
2, 278072, Note_on_c, 0, 57, 0
2, 278335, Note_on_c, 0, 69, 81
2, 278355, Note_on_c, 0, 54, 55
2, 278476, Note_on_c, 0, 55, 0
2, 278513, Note_on_c, 0, 64, 0
2, 278589, Control_c, 0, 64, 33
2, 278703, Control_c, 0, 64, 32
2, 278799, Note_on_c, 0, 67, 82
2, 278803, Control_c, 0, 64, 31
2, 278810, Note_on_c, 0, 52, 53
2, 278821, Control_c, 0, 64, 30
2, 278896, Control_c, 0, 64, 29
2, 278944, Note_on_c, 0, 69, 0
2, 278975, Note_on_c, 0, 54, 0
2, 279033, Control_c, 0, 64, 28
2, 279049, Control_c, 0, 64, 27
2, 279068, Control_c, 0, 64, 26
2, 279237, Note_on_c, 0, 66, 76
2, 279241, Control_c, 0, 64, 25
2, 279249, Note_on_c, 0, 47, 46
2, 279268, Note_on_c, 0, 50, 40
2, 279395, Note_on_c, 0, 52, 0
2, 279397, Note_on_c, 0, 67, 0
2, 279413, Note_on_c, 0, 45, 0
2, 279645, Control_c, 0, 64, 26
2, 279701, Control_c, 0, 64, 27
2, 279706, Note_on_c, 0, 62, 60
2, 279711, Note_on_c, 0, 54, 54
2, 279763, Control_c, 0, 64, 28
2, 279763, Note_on_c, 0, 72, 0
2, 279780, Control_c, 0, 64, 29
2, 279802, Control_c, 0, 64, 30
2, 279817, Control_c, 0, 64, 33
2, 279835, Note_on_c, 0, 50, 0
2, 279837, Control_c, 0, 64, 37
2, 279855, Control_c, 0, 64, 42
2, 279876, Control_c, 0, 64, 48
2, 279898, Control_c, 0, 64, 55
2, 279914, Control_c, 0, 64, 61
2, 279932, Control_c, 0, 64, 63
2, 279974, Control_c, 0, 64, 64
2, 279989, Control_c, 0, 64, 66
2, 280009, Control_c, 0, 64, 68
2, 280029, Control_c, 0, 64, 69
2, 280125, Control_c, 0, 64, 68
2, 280163, Control_c, 0, 64, 67
2, 280178, Note_on_c, 0, 71, 86
2, 280182, Control_c, 0, 64, 66
2, 280196, Note_on_c, 0, 59, 50
2, 280201, Control_c, 0, 64, 65
2, 280201, Note_on_c, 0, 67, 65
2, 280221, Control_c, 0, 64, 64
2, 280240, Control_c, 0, 64, 63
2, 280260, Control_c, 0, 64, 61
2, 280269, Note_on_c, 0, 66, 0
2, 280278, Control_c, 0, 64, 59
2, 280298, Control_c, 0, 64, 56
2, 280317, Control_c, 0, 64, 53
2, 280337, Control_c, 0, 64, 49
2, 280337, Note_on_c, 0, 54, 0
2, 280356, Control_c, 0, 64, 44
2, 280374, Control_c, 0, 64, 41
2, 280395, Control_c, 0, 64, 39
2, 280415, Control_c, 0, 64, 38
2, 280430, Control_c, 0, 64, 37
2, 280450, Control_c, 0, 64, 35
2, 280471, Control_c, 0, 64, 34
2, 280491, Control_c, 0, 64, 32
2, 280510, Control_c, 0, 64, 30
2, 280550, Control_c, 0, 64, 29
2, 280584, Control_c, 0, 64, 28
2, 280631, Note_on_c, 0, 57, 58
2, 280642, Note_on_c, 0, 50, 44
2, 280642, Note_on_c, 0, 62, 0
2, 280646, Note_on_c, 0, 66, 63
2, 280663, Control_c, 0, 64, 27
2, 280748, Note_on_c, 0, 59, 0
2, 280759, Control_c, 0, 64, 26
2, 280791, Note_on_c, 0, 47, 0
2, 280807, Note_on_c, 0, 67, 0
2, 280969, Control_c, 0, 64, 25
2, 281081, Note_on_c, 0, 64, 63
2, 281104, Note_on_c, 0, 55, 51
2, 281201, Note_on_c, 0, 57, 0
2, 281220, Note_on_c, 0, 66, 0
2, 281238, Control_c, 0, 64, 24
2, 281295, Control_c, 0, 64, 23
2, 281532, Note_on_c, 0, 62, 61
2, 281539, Note_on_c, 0, 54, 51
2, 281622, Note_on_c, 0, 64, 0
2, 281647, Note_on_c, 0, 55, 0
2, 281681, Control_c, 0, 64, 22
2, 282016, Note_on_c, 0, 55, 39
2, 282016, Note_on_c, 0, 60, 57
2, 282031, Note_on_c, 0, 52, 39
2, 282042, Note_on_c, 0, 62, 0
2, 282104, Control_c, 0, 64, 23
2, 282108, Note_on_c, 0, 54, 0
2, 282146, Note_on_c, 0, 50, 0
2, 282217, Control_c, 0, 64, 24
2, 282274, Control_c, 0, 64, 25
2, 282373, Control_c, 0, 64, 26
2, 282457, Note_on_c, 0, 69, 69
2, 282488, Note_on_c, 0, 54, 47
2, 282497, Note_on_c, 0, 57, 45
2, 282539, Note_on_c, 0, 55, 0
2, 282550, Note_on_c, 0, 52, 0
2, 282565, Note_on_c, 0, 71, 0
2, 282709, Note_on_c, 0, 60, 0
2, 282920, Note_on_c, 0, 55, 44
2, 282925, Note_on_c, 0, 59, 59
2, 282962, Note_on_c, 0, 54, 0
2, 282971, Note_on_c, 0, 57, 0
2, 282988, Control_c, 0, 64, 27
2, 283385, Note_on_c, 0, 52, 32
2, 283385, Note_on_c, 0, 67, 62
2, 283390, Note_on_c, 0, 64, 55
2, 283398, Note_on_c, 0, 55, 0
2, 283460, Note_on_c, 0, 69, 0
2, 283542, Control_c, 0, 64, 33
2, 283560, Control_c, 0, 64, 42
2, 283580, Control_c, 0, 64, 57
2, 283589, Note_on_c, 0, 64, 0
2, 283599, Control_c, 0, 64, 65
2, 283623, Control_c, 0, 64, 69
2, 283623, Note_on_c, 0, 59, 0
2, 283638, Control_c, 0, 64, 73
2, 283658, Control_c, 0, 64, 77
2, 283668, Note_on_c, 0, 52, 0
2, 283677, Control_c, 0, 64, 80
2, 283696, Control_c, 0, 64, 81
2, 283734, Control_c, 0, 64, 80
2, 283755, Control_c, 0, 64, 79
2, 283775, Control_c, 0, 64, 78
2, 283795, Control_c, 0, 64, 77
2, 283830, Control_c, 0, 64, 75
2, 283852, Control_c, 0, 64, 73
2, 283861, Note_on_c, 0, 57, 57
2, 283861, Note_on_c, 0, 64, 55
2, 283863, Note_on_c, 0, 48, 47
2, 283870, Control_c, 0, 64, 71
2, 283888, Control_c, 0, 64, 70
2, 283907, Control_c, 0, 64, 69
2, 283925, Control_c, 0, 64, 68
2, 283945, Control_c, 0, 64, 67
2, 283956, Note_on_c, 0, 67, 0
2, 283964, Control_c, 0, 64, 65
2, 283987, Control_c, 0, 64, 63
2, 284004, Control_c, 0, 64, 62
2, 284024, Control_c, 0, 64, 61
2, 284061, Control_c, 0, 64, 60
2, 284080, Control_c, 0, 64, 59
2, 284100, Control_c, 0, 64, 58
2, 284119, Control_c, 0, 64, 57
2, 284138, Control_c, 0, 64, 55
2, 284157, Control_c, 0, 64, 54
2, 284176, Control_c, 0, 64, 53
2, 284196, Control_c, 0, 64, 52
2, 284217, Control_c, 0, 64, 51
2, 284233, Control_c, 0, 64, 49
2, 284253, Control_c, 0, 64, 47
2, 284272, Control_c, 0, 64, 45
2, 284291, Control_c, 0, 64, 44
2, 284303, Note_on_c, 0, 45, 62
2, 284314, Note_on_c, 0, 66, 52
2, 284329, Control_c, 0, 64, 43
2, 284349, Note_on_c, 0, 64, 0
2, 284368, Control_c, 0, 64, 41
2, 284386, Control_c, 0, 64, 40
2, 284424, Control_c, 0, 64, 39
2, 284479, Note_on_c, 0, 48, 0
2, 284512, Note_on_c, 0, 64, 62
2, 284523, Note_on_c, 0, 66, 0
2, 284770, Note_on_c, 0, 50, 53
2, 284770, Note_on_c, 0, 66, 59
2, 284774, Control_c, 0, 64, 38
2, 284799, Note_on_c, 0, 62, 44
2, 284827, Note_on_c, 0, 64, 0
2, 284847, Control_c, 0, 64, 37
2, 284895, Note_on_c, 0, 45, 0
2, 284991, Note_on_c, 0, 57, 0
2, 285098, Control_c, 0, 64, 36
2, 285154, Control_c, 0, 64, 35
2, 285227, Note_on_c, 0, 48, 48
2, 285270, Control_c, 0, 64, 34
2, 285320, Note_on_c, 0, 50, 0
2, 285694, Note_on_c, 0, 62, 0
2, 285703, Note_on_c, 0, 67, 45
2, 285712, Note_on_c, 0, 47, 42
2, 285716, Note_on_c, 0, 55, 41
2, 285741, Note_on_c, 0, 66, 0
2, 285763, Note_on_c, 0, 48, 0
2, 285809, Control_c, 0, 64, 35
2, 285827, Control_c, 0, 64, 36
2, 285845, Control_c, 0, 64, 39
2, 285866, Control_c, 0, 64, 42
2, 285884, Control_c, 0, 64, 47
2, 285905, Control_c, 0, 64, 56
2, 285926, Control_c, 0, 64, 67
2, 285926, Note_on_c, 0, 47, 0
2, 285942, Control_c, 0, 64, 74
2, 285963, Control_c, 0, 64, 87
2, 285981, Control_c, 0, 64, 100
2, 285999, Control_c, 0, 64, 122
2, 286019, Control_c, 0, 64, 127
2, 286024, Note_on_c, 0, 55, 0
2, 286080, Control_c, 0, 64, 115
2, 286096, Control_c, 0, 64, 111
2, 286114, Control_c, 0, 64, 110
2, 286136, Control_c, 0, 64, 109
2, 286157, Control_c, 0, 64, 104
2, 286157, Note_on_c, 0, 67, 0
2, 286173, Control_c, 0, 64, 99
2, 286191, Control_c, 0, 64, 94
2, 286212, Control_c, 0, 64, 89
2, 286212, Note_on_c, 0, 62, 59
2, 286225, Note_on_c, 0, 50, 48
2, 286230, Control_c, 0, 64, 85
2, 286248, Control_c, 0, 64, 81
2, 286267, Control_c, 0, 64, 75
2, 286289, Control_c, 0, 64, 68
2, 286306, Control_c, 0, 64, 61
2, 286329, Control_c, 0, 64, 53
2, 286347, Control_c, 0, 64, 47
2, 286382, Control_c, 0, 64, 50
2, 286405, Control_c, 0, 64, 52
2, 286423, Control_c, 0, 64, 56
2, 286441, Control_c, 0, 64, 62
2, 286460, Control_c, 0, 64, 67
2, 286480, Control_c, 0, 64, 75
2, 286501, Control_c, 0, 64, 85
2, 286518, Control_c, 0, 64, 97
2, 286529, Note_on_c, 0, 62, 0
2, 286539, Control_c, 0, 64, 102
2, 286575, Control_c, 0, 64, 101
2, 286595, Control_c, 0, 64, 98
2, 286616, Control_c, 0, 64, 95
2, 286632, Control_c, 0, 64, 93
2, 286652, Control_c, 0, 64, 89
2, 286672, Control_c, 0, 64, 84
2, 286686, Note_on_c, 0, 62, 67
2, 286690, Control_c, 0, 64, 77
2, 286701, Note_on_c, 0, 55, 51
2, 286709, Control_c, 0, 64, 71
2, 286730, Control_c, 0, 64, 64
2, 286749, Control_c, 0, 64, 58
2, 286770, Control_c, 0, 64, 55
2, 286787, Control_c, 0, 64, 56
2, 286807, Control_c, 0, 64, 57
2, 286815, Note_on_c, 0, 50, 0
2, 286825, Control_c, 0, 64, 58
2, 286844, Control_c, 0, 64, 60
2, 286863, Control_c, 0, 64, 63
2, 286884, Control_c, 0, 64, 68
2, 286904, Control_c, 0, 64, 76
2, 286922, Control_c, 0, 64, 88
2, 286941, Control_c, 0, 64, 99
2, 286954, Note_on_c, 0, 62, 0
2, 286963, Control_c, 0, 64, 100
2, 286998, Control_c, 0, 64, 97
2, 287019, Control_c, 0, 64, 95
2, 287028, Note_on_c, 0, 55, 0
2, 287037, Control_c, 0, 64, 93
2, 287055, Control_c, 0, 64, 91
2, 287076, Control_c, 0, 64, 89
2, 287095, Control_c, 0, 64, 85
2, 287113, Control_c, 0, 64, 80
2, 287131, Control_c, 0, 64, 76
2, 287138, Note_on_c, 0, 71, 69
2, 287156, Control_c, 0, 64, 71
2, 287156, Note_on_c, 0, 62, 42
2, 287163, Note_on_c, 0, 54, 42
2, 287172, Control_c, 0, 64, 65
2, 287191, Control_c, 0, 64, 59
2, 287209, Control_c, 0, 64, 51
2, 287231, Control_c, 0, 64, 45
2, 287248, Control_c, 0, 64, 44
2, 287287, Control_c, 0, 64, 46
2, 287307, Control_c, 0, 64, 49
2, 287324, Control_c, 0, 64, 54
2, 287343, Control_c, 0, 64, 60
2, 287363, Control_c, 0, 64, 66
2, 287367, Note_on_c, 0, 54, 0
2, 287383, Control_c, 0, 64, 72
2, 287402, Control_c, 0, 64, 84
2, 287420, Control_c, 0, 64, 102
2, 287433, Note_on_c, 0, 71, 0
2, 287443, Control_c, 0, 64, 127
2, 287573, Control_c, 0, 64, 112
2, 287594, Control_c, 0, 64, 104
2, 287607, Note_on_c, 0, 71, 68
2, 287614, Control_c, 0, 64, 97
2, 287633, Control_c, 0, 64, 91
2, 287643, Note_on_c, 0, 55, 39
2, 287652, Control_c, 0, 64, 88
2, 287652, Note_on_c, 0, 52, 40
2, 287670, Control_c, 0, 64, 87
2, 287689, Control_c, 0, 64, 86
2, 287707, Control_c, 0, 64, 82
2, 287729, Control_c, 0, 64, 76
2, 287753, Control_c, 0, 64, 69
2, 287765, Control_c, 0, 64, 64
2, 287784, Control_c, 0, 64, 61
2, 287808, Control_c, 0, 64, 60
2, 287808, Note_on_c, 0, 62, 0
2, 287824, Control_c, 0, 64, 59
2, 287842, Control_c, 0, 64, 58
2, 287863, Control_c, 0, 64, 57
2, 287883, Control_c, 0, 64, 55
2, 287900, Control_c, 0, 64, 52
2, 287920, Control_c, 0, 64, 46
2, 287938, Control_c, 0, 64, 39
2, 287959, Control_c, 0, 64, 34
2, 287978, Control_c, 0, 64, 29
2, 287997, Control_c, 0, 64, 21
2, 288015, Control_c, 0, 64, 0
2, 288082, Note_on_c, 0, 79, 84
2, 288344, Control_c, 0, 64, 28
2, 288361, Control_c, 0, 64, 50
2, 288383, Control_c, 0, 64, 62
2, 288399, Control_c, 0, 64, 66
2, 288420, Control_c, 0, 64, 70
2, 288427, Note_on_c, 0, 79, 0
2, 288436, Control_c, 0, 64, 77
2, 288456, Control_c, 0, 64, 88
2, 288476, Control_c, 0, 64, 98
2, 288496, Control_c, 0, 64, 104
2, 288515, Control_c, 0, 64, 106
2, 288535, Control_c, 0, 64, 103
2, 288555, Note_on_c, 0, 79, 91
2, 288559, Control_c, 0, 64, 97
2, 288575, Control_c, 0, 64, 88
2, 288575, Note_on_c, 0, 59, 45
2, 288585, Note_on_c, 0, 64, 45
2, 288591, Control_c, 0, 64, 76
2, 288610, Control_c, 0, 64, 65
2, 288631, Control_c, 0, 64, 55
2, 288649, Control_c, 0, 64, 41
2, 288669, Control_c, 0, 64, 28
2, 288689, Control_c, 0, 64, 27
2, 288725, Control_c, 0, 64, 30
2, 288745, Control_c, 0, 64, 38
2, 288764, Control_c, 0, 64, 51
2, 288784, Control_c, 0, 64, 62
2, 288803, Control_c, 0, 64, 66
2, 288821, Control_c, 0, 64, 71
2, 288843, Control_c, 0, 64, 82
2, 288861, Control_c, 0, 64, 105
2, 288870, Note_on_c, 0, 79, 0
2, 288879, Control_c, 0, 64, 127
2, 288954, Note_on_c, 0, 64, 0
2, 288998, Note_on_c, 0, 79, 90
2, 289270, Note_on_c, 0, 71, 0
2, 289308, Note_on_c, 0, 52, 0
2, 289319, Note_on_c, 0, 79, 0
2, 289325, Note_on_c, 0, 59, 0
2, 289456, Note_on_c, 0, 55, 0
2, 289474, Note_on_c, 0, 73, 82
2, 289513, Note_on_c, 0, 67, 47
2, 289571, Control_c, 0, 64, 103
2, 289589, Control_c, 0, 64, 91
2, 289610, Control_c, 0, 64, 82
2, 289631, Control_c, 0, 64, 75
2, 289647, Control_c, 0, 64, 68
2, 289668, Control_c, 0, 64, 64
2, 289688, Control_c, 0, 64, 63
2, 289707, Control_c, 0, 64, 62
2, 289822, Control_c, 0, 64, 61
2, 289860, Control_c, 0, 64, 60
2, 289877, Control_c, 0, 64, 59
2, 289897, Control_c, 0, 64, 58
2, 289912, Note_on_c, 0, 52, 54
2, 289918, Control_c, 0, 64, 57
2, 289936, Control_c, 0, 64, 56
2, 289952, Note_on_c, 0, 50, 47
2, 289954, Control_c, 0, 64, 55
2, 289973, Control_c, 0, 64, 53
2, 289993, Control_c, 0, 64, 52
2, 290013, Control_c, 0, 64, 50
2, 290031, Control_c, 0, 64, 49
2, 290051, Control_c, 0, 64, 47
2, 290069, Control_c, 0, 64, 46
2, 290089, Control_c, 0, 64, 45
2, 290358, Control_c, 0, 64, 46
2, 290373, Note_on_c, 0, 49, 39
2, 290382, Note_on_c, 0, 50, 0
2, 290382, Note_on_c, 0, 57, 44
2, 290389, Note_on_c, 0, 76, 71
2, 290398, Control_c, 0, 64, 47
2, 290398, Note_on_c, 0, 52, 0
2, 290416, Control_c, 0, 64, 48
2, 290437, Control_c, 0, 64, 50
2, 290446, Note_on_c, 0, 67, 0
2, 290450, Note_on_c, 0, 73, 0
2, 290455, Control_c, 0, 64, 54
2, 290474, Control_c, 0, 64, 59
2, 290495, Control_c, 0, 64, 61
2, 290515, Control_c, 0, 64, 64
2, 290530, Control_c, 0, 64, 67
2, 290549, Control_c, 0, 64, 73
2, 290569, Control_c, 0, 64, 85
2, 290588, Control_c, 0, 64, 102
2, 290612, Control_c, 0, 64, 127
2, 290612, Note_on_c, 0, 57, 0
2, 290621, Note_on_c, 0, 76, 0
2, 290705, Control_c, 0, 64, 115
2, 290723, Control_c, 0, 64, 106
2, 290745, Control_c, 0, 64, 99
2, 290760, Control_c, 0, 64, 93
2, 290780, Control_c, 0, 64, 86
2, 290800, Control_c, 0, 64, 79
2, 290815, Note_on_c, 0, 61, 60
2, 290820, Control_c, 0, 64, 73
2, 290831, Note_on_c, 0, 45, 39
2, 290837, Note_on_c, 0, 55, 38
2, 290841, Control_c, 0, 64, 68
2, 290856, Control_c, 0, 64, 65
2, 290876, Control_c, 0, 64, 63
2, 290898, Control_c, 0, 64, 62
2, 290914, Control_c, 0, 64, 61
2, 290933, Control_c, 0, 64, 60
2, 290953, Control_c, 0, 64, 59
2, 290975, Control_c, 0, 64, 58
2, 290992, Control_c, 0, 64, 57
2, 290992, Note_on_c, 0, 49, 0
2, 291011, Control_c, 0, 64, 56
2, 291030, Control_c, 0, 64, 55
2, 291050, Control_c, 0, 64, 54
2, 291070, Control_c, 0, 64, 53
2, 291088, Control_c, 0, 64, 51
2, 291106, Control_c, 0, 64, 50
2, 291126, Control_c, 0, 64, 49
2, 291184, Control_c, 0, 64, 48
2, 291222, Control_c, 0, 64, 47
2, 291242, Control_c, 0, 64, 46
2, 291273, Note_on_c, 0, 66, 63
2, 291281, Control_c, 0, 64, 45
2, 291290, Note_on_c, 0, 50, 38
2, 291297, Note_on_c, 0, 54, 39
2, 291353, Note_on_c, 0, 61, 0
2, 291447, Note_on_c, 0, 45, 0
2, 291447, Note_on_c, 0, 55, 0
2, 291712, Note_on_c, 0, 69, 63
2, 291723, Note_on_c, 0, 48, 48
2, 291745, Control_c, 0, 64, 46
2, 291745, Note_on_c, 0, 50, 0
2, 291745, Note_on_c, 0, 64, 48
2, 291798, Control_c, 0, 64, 47
2, 291818, Control_c, 0, 64, 48
2, 291838, Control_c, 0, 64, 49
2, 291853, Note_on_c, 0, 66, 0
2, 291858, Control_c, 0, 64, 50
2, 291873, Control_c, 0, 64, 52
2, 291893, Control_c, 0, 64, 56
2, 291913, Control_c, 0, 64, 61
2, 291934, Control_c, 0, 64, 64
2, 291952, Control_c, 0, 64, 67
2, 291972, Control_c, 0, 64, 72
2, 291990, Control_c, 0, 64, 78
2, 292010, Control_c, 0, 64, 81
2, 292032, Note_on_c, 0, 64, 0
2, 292050, Control_c, 0, 64, 80
2, 292069, Control_c, 0, 64, 79
2, 292086, Control_c, 0, 64, 77
2, 292107, Control_c, 0, 64, 75
2, 292125, Control_c, 0, 64, 72
2, 292143, Control_c, 0, 64, 71
2, 292155, Note_on_c, 0, 74, 72
2, 292162, Control_c, 0, 64, 69
2, 292174, Note_on_c, 0, 62, 58
2, 292178, Note_on_c, 0, 47, 43
2, 292183, Control_c, 0, 64, 67
2, 292203, Control_c, 0, 64, 64
2, 292221, Control_c, 0, 64, 61
2, 292236, Note_on_c, 0, 48, 0
2, 292240, Control_c, 0, 64, 58
2, 292258, Control_c, 0, 64, 55
2, 292280, Control_c, 0, 64, 54
2, 292284, Note_on_c, 0, 69, 0
2, 292297, Control_c, 0, 64, 53
2, 292316, Control_c, 0, 64, 52
2, 292336, Control_c, 0, 64, 51
2, 292590, Note_on_c, 0, 72, 70
2, 292610, Note_on_c, 0, 45, 49
2, 292625, Control_c, 0, 64, 50
2, 292661, Control_c, 0, 64, 49
2, 292701, Control_c, 0, 64, 48
2, 292739, Note_on_c, 0, 47, 0
2, 292743, Note_on_c, 0, 74, 0
2, 293051, Note_on_c, 0, 71, 61
2, 293056, Note_on_c, 0, 43, 50
2, 293083, Control_c, 0, 64, 49
2, 293163, Note_on_c, 0, 72, 0
2, 293179, Control_c, 0, 64, 50
2, 293186, Note_on_c, 0, 45, 0
2, 293502, Note_on_c, 0, 47, 63
2, 293706, Note_on_c, 0, 54, 0
2, 293834, Control_c, 0, 64, 49
2, 293975, Note_on_c, 0, 52, 62
2, 294008, Note_on_c, 0, 44, 51
2, 294145, Note_on_c, 0, 43, 0
2, 294158, Note_on_c, 0, 47, 0
2, 294418, Note_on_c, 0, 50, 53
2, 294431, Note_on_c, 0, 59, 69
2, 294532, Note_on_c, 0, 52, 0
2, 294550, Note_on_c, 0, 62, 0
2, 294875, Note_on_c, 0, 44, 0
2, 294896, Note_on_c, 0, 64, 65
2, 294906, Note_on_c, 0, 49, 46
2, 294915, Note_on_c, 0, 45, 36
2, 294939, Note_on_c, 0, 71, 0
2, 294946, Control_c, 0, 64, 50
2, 294959, Note_on_c, 0, 59, 0
2, 294982, Note_on_c, 0, 50, 0
2, 295101, Control_c, 0, 64, 51
2, 295119, Control_c, 0, 64, 53
2, 295139, Control_c, 0, 64, 59
2, 295159, Control_c, 0, 64, 64
2, 295178, Control_c, 0, 64, 69
2, 295197, Control_c, 0, 64, 78
2, 295218, Control_c, 0, 64, 88
2, 295230, Note_on_c, 0, 64, 0
2, 295234, Control_c, 0, 64, 104
2, 295256, Control_c, 0, 64, 107
2, 295275, Control_c, 0, 64, 106
2, 295293, Control_c, 0, 64, 101
2, 295310, Control_c, 0, 64, 95
2, 295330, Control_c, 0, 64, 91
2, 295350, Control_c, 0, 64, 87
2, 295354, Note_on_c, 0, 50, 54
2, 295361, Note_on_c, 0, 62, 54
2, 295361, Note_on_c, 0, 64, 74
2, 295368, Control_c, 0, 64, 85
2, 295390, Control_c, 0, 64, 83
2, 295409, Control_c, 0, 64, 80
2, 295427, Control_c, 0, 64, 75
2, 295445, Control_c, 0, 64, 70
2, 295466, Control_c, 0, 64, 66
2, 295486, Control_c, 0, 64, 63
2, 295504, Control_c, 0, 64, 61
2, 295563, Note_on_c, 0, 49, 0
2, 295581, Control_c, 0, 64, 60
2, 295620, Control_c, 0, 64, 59
2, 295640, Control_c, 0, 64, 58
2, 295677, Control_c, 0, 64, 57
2, 295715, Control_c, 0, 64, 56
2, 295736, Control_c, 0, 64, 55
2, 295753, Control_c, 0, 64, 54
2, 295773, Control_c, 0, 64, 52
2, 295791, Control_c, 0, 64, 51
2, 295806, Note_on_c, 0, 69, 68
2, 295811, Control_c, 0, 64, 49
2, 295831, Note_on_c, 0, 61, 50
2, 295835, Control_c, 0, 64, 47
2, 295849, Note_on_c, 0, 52, 49
2, 295853, Control_c, 0, 64, 46
2, 295868, Control_c, 0, 64, 45
2, 295905, Note_on_c, 0, 62, 0
2, 295910, Control_c, 0, 64, 44
2, 295920, Note_on_c, 0, 64, 0
2, 295926, Control_c, 0, 64, 43
2, 295965, Control_c, 0, 64, 42
2, 296005, Note_on_c, 0, 50, 0
2, 296235, Control_c, 0, 64, 43
2, 296272, Control_c, 0, 64, 44
2, 296276, Note_on_c, 0, 67, 73
2, 296311, Control_c, 0, 64, 45
2, 296368, Control_c, 0, 64, 46
2, 296404, Note_on_c, 0, 69, 0
2, 296560, Control_c, 0, 64, 45
2, 296719, Note_on_c, 0, 46, 63
2, 296734, Note_on_c, 0, 66, 69
2, 296804, Note_on_c, 0, 67, 0
2, 296828, Control_c, 0, 64, 44
2, 296934, Note_on_c, 0, 45, 0
2, 297204, Note_on_c, 0, 49, 75
2, 297461, Note_on_c, 0, 52, 0
2, 297503, Note_on_c, 0, 61, 0
2, 297642, Note_on_c, 0, 54, 73
2, 297646, Note_on_c, 0, 73, 89
2, 297670, Control_c, 0, 64, 43
2, 297884, Note_on_c, 0, 49, 0
2, 298090, Note_on_c, 0, 61, 76
2, 298094, Note_on_c, 0, 52, 75
2, 298211, Note_on_c, 0, 66, 0
2, 298330, Note_on_c, 0, 54, 0
2, 298556, Note_on_c, 0, 66, 86
2, 298565, Note_on_c, 0, 47, 62
2, 298569, Note_on_c, 0, 50, 64
2, 298572, Control_c, 0, 64, 42
2, 298595, Control_c, 0, 64, 39
2, 298613, Control_c, 0, 64, 26
2, 298630, Control_c, 0, 64, 0
2, 298642, Note_on_c, 0, 52, 0
2, 298650, Note_on_c, 0, 46, 0
2, 298692, Note_on_c, 0, 73, 0
2, 298714, Note_on_c, 0, 61, 0
2, 298783, Control_c, 0, 64, 13
2, 298803, Control_c, 0, 64, 43
2, 298824, Control_c, 0, 64, 62
2, 298841, Control_c, 0, 64, 67
2, 298861, Control_c, 0, 64, 73
2, 298878, Control_c, 0, 64, 78
2, 298898, Control_c, 0, 64, 85
2, 298918, Control_c, 0, 64, 89
2, 298936, Note_on_c, 0, 66, 0
2, 298958, Control_c, 0, 64, 88
2, 298976, Control_c, 0, 64, 85
2, 298995, Control_c, 0, 64, 81
2, 299014, Control_c, 0, 64, 78
2, 299025, Note_on_c, 0, 66, 86
2, 299030, Note_on_c, 0, 64, 77
2, 299035, Control_c, 0, 64, 75
2, 299051, Control_c, 0, 64, 73
2, 299071, Control_c, 0, 64, 70
2, 299090, Control_c, 0, 64, 66
2, 299112, Control_c, 0, 64, 61
2, 299130, Control_c, 0, 64, 50
2, 299147, Control_c, 0, 64, 33
2, 299167, Control_c, 0, 64, 0
2, 299226, Control_c, 0, 64, 17
2, 299246, Control_c, 0, 64, 37
2, 299263, Control_c, 0, 64, 59
2, 299282, Control_c, 0, 64, 69
2, 299303, Control_c, 0, 64, 73
2, 299321, Control_c, 0, 64, 76
2, 299348, Note_on_c, 0, 64, 0
2, 299379, Control_c, 0, 64, 75
2, 299399, Control_c, 0, 64, 74
2, 299418, Control_c, 0, 64, 73
2, 299456, Control_c, 0, 64, 72
2, 299476, Note_on_c, 0, 71, 89
2, 299481, Control_c, 0, 64, 70
2, 299496, Control_c, 0, 64, 69
2, 299496, Note_on_c, 0, 62, 70
2, 299514, Control_c, 0, 64, 66
2, 299532, Control_c, 0, 64, 63
2, 299551, Control_c, 0, 64, 60
2, 299573, Control_c, 0, 64, 57
2, 299593, Control_c, 0, 64, 56
2, 299608, Control_c, 0, 64, 54
2, 299628, Control_c, 0, 64, 52
2, 299649, Control_c, 0, 64, 48
2, 299669, Control_c, 0, 64, 42
2, 299673, Note_on_c, 0, 66, 0
2, 299686, Control_c, 0, 64, 36
2, 299708, Control_c, 0, 64, 33
2, 299724, Control_c, 0, 64, 30
2, 299744, Control_c, 0, 64, 28
2, 299764, Control_c, 0, 64, 27
2, 299841, Control_c, 0, 64, 26
2, 299883, Note_on_c, 0, 69, 79
2, 299897, Note_on_c, 0, 54, 83
2, 299939, Control_c, 0, 64, 25
2, 299974, Control_c, 0, 64, 23
2, 299991, Control_c, 0, 64, 21
2, 300013, Control_c, 0, 64, 19
2, 300032, Control_c, 0, 64, 18
2, 300052, Control_c, 0, 64, 17
2, 300056, Note_on_c, 0, 71, 0
2, 300068, Control_c, 0, 64, 16
2, 300088, Control_c, 0, 64, 15
2, 300108, Control_c, 0, 64, 14
2, 300137, Note_on_c, 0, 50, 0
2, 300146, Control_c, 0, 64, 13
2, 300382, Note_on_c, 0, 67, 83
2, 300387, Note_on_c, 0, 59, 85
2, 300451, Note_on_c, 0, 69, 0
2, 300472, Note_on_c, 0, 54, 0
2, 300511, Control_c, 0, 64, 14
2, 300531, Control_c, 0, 64, 18
2, 300549, Control_c, 0, 64, 24
2, 300568, Control_c, 0, 64, 32
2, 300588, Control_c, 0, 64, 43
2, 300606, Control_c, 0, 64, 58
2, 300625, Control_c, 0, 64, 67
2, 300645, Control_c, 0, 64, 75
2, 300668, Control_c, 0, 64, 84
2, 300672, Note_on_c, 0, 47, 0
2, 300685, Control_c, 0, 64, 93
2, 300703, Control_c, 0, 64, 106
2, 300721, Control_c, 0, 64, 122
2, 300748, Note_on_c, 0, 59, 0
2, 300761, Control_c, 0, 64, 118
2, 300782, Control_c, 0, 64, 110
2, 300802, Control_c, 0, 64, 108
2, 300819, Control_c, 0, 64, 104
2, 300837, Control_c, 0, 64, 100
2, 300858, Control_c, 0, 64, 95
2, 300878, Control_c, 0, 64, 92
2, 300878, Note_on_c, 0, 57, 75
2, 300886, Note_on_c, 0, 47, 47
2, 300889, Note_on_c, 0, 62, 0
2, 300894, Control_c, 0, 64, 90
2, 300915, Control_c, 0, 64, 89
2, 300935, Control_c, 0, 64, 87
2, 300951, Control_c, 0, 64, 85
2, 300974, Control_c, 0, 64, 82
2, 300993, Control_c, 0, 64, 79
2, 301012, Control_c, 0, 64, 78
2, 301030, Control_c, 0, 64, 76
2, 301048, Control_c, 0, 64, 75
2, 301069, Control_c, 0, 64, 72
2, 301087, Control_c, 0, 64, 70
2, 301107, Control_c, 0, 64, 69
2, 301126, Control_c, 0, 64, 67
2, 301183, Control_c, 0, 64, 66
2, 301206, Control_c, 0, 64, 65
2, 301222, Control_c, 0, 64, 64
2, 301240, Control_c, 0, 64, 63
2, 301260, Control_c, 0, 64, 61
2, 301281, Control_c, 0, 64, 59
2, 301299, Control_c, 0, 64, 55
2, 301319, Control_c, 0, 64, 51
2, 301319, Note_on_c, 0, 52, 57
2, 301319, Note_on_c, 0, 55, 59
2, 301338, Control_c, 0, 64, 42
2, 301358, Control_c, 0, 64, 31
2, 301376, Control_c, 0, 64, 0
2, 301450, Note_on_c, 0, 57, 0
2, 301452, Note_on_c, 0, 47, 0
2, 301765, Note_on_c, 0, 59, 63
2, 301769, Note_on_c, 0, 50, 50
2, 301855, Note_on_c, 0, 52, 0
2, 302059, Note_on_c, 0, 55, 0
2, 302194, Note_on_c, 0, 49, 41
2, 302203, Note_on_c, 0, 64, 64
2, 302289, Note_on_c, 0, 67, 0
2, 302293, Note_on_c, 0, 59, 0
2, 302317, Note_on_c, 0, 50, 0
2, 302642, Note_on_c, 0, 52, 49
2, 302642, Note_on_c, 0, 62, 58
2, 302684, Note_on_c, 0, 64, 0
2, 302756, Note_on_c, 0, 49, 0
2, 303088, Note_on_c, 0, 61, 52
2, 303100, Note_on_c, 0, 57, 45
2, 303144, Note_on_c, 0, 62, 0
2, 303211, Note_on_c, 0, 52, 0
2, 303530, Note_on_c, 0, 64, 58
2, 303534, Note_on_c, 0, 55, 48
2, 303686, Note_on_c, 0, 57, 0
2, 303701, Note_on_c, 0, 61, 0
2, 303969, Note_on_c, 0, 69, 61
2, 303975, Note_on_c, 0, 54, 48
2, 304054, Note_on_c, 0, 55, 0
2, 304093, Note_on_c, 0, 64, 0
2, 304419, Note_on_c, 0, 67, 67
2, 304426, Note_on_c, 0, 57, 49
2, 304439, Note_on_c, 0, 61, 48
2, 304513, Note_on_c, 0, 69, 0
2, 304596, Note_on_c, 0, 54, 0
2, 304872, Note_on_c, 0, 62, 59
2, 304872, Note_on_c, 0, 66, 75
2, 304928, Note_on_c, 0, 67, 0
2, 304957, Note_on_c, 0, 61, 0
2, 305039, Note_on_c, 0, 57, 0
2, 305316, Note_on_c, 0, 69, 80
2, 305320, Note_on_c, 0, 61, 64
2, 305342, Note_on_c, 0, 64, 69
2, 305425, Note_on_c, 0, 62, 0
2, 305463, Note_on_c, 0, 66, 0
2, 305661, Note_on_c, 0, 64, 0
2, 305746, Note_on_c, 0, 74, 89
2, 305752, Note_on_c, 0, 59, 71
2, 305767, Note_on_c, 0, 62, 66
2, 305828, Note_on_c, 0, 69, 0
2, 305928, Note_on_c, 0, 61, 0
2, 306194, Note_on_c, 0, 73, 83
2, 306198, Note_on_c, 0, 57, 76
2, 306198, Note_on_c, 0, 66, 74
2, 306274, Note_on_c, 0, 62, 0
2, 306295, Note_on_c, 0, 59, 0
2, 306349, Note_on_c, 0, 74, 0
2, 306604, Note_on_c, 0, 73, 0
2, 306619, Note_on_c, 0, 55, 81
2, 306625, Note_on_c, 0, 71, 88
2, 306666, Note_on_c, 0, 66, 0
2, 306675, Note_on_c, 0, 57, 0
2, 306712, Control_c, 0, 64, 22
2, 306732, Control_c, 0, 64, 33
2, 306751, Control_c, 0, 64, 42
2, 306770, Control_c, 0, 64, 56
2, 306791, Control_c, 0, 64, 64
2, 306811, Control_c, 0, 64, 67
2, 306828, Control_c, 0, 64, 71
2, 306846, Control_c, 0, 64, 84
2, 306866, Control_c, 0, 64, 109
2, 306888, Control_c, 0, 64, 127
2, 306888, Note_on_c, 0, 71, 0
2, 307048, Note_on_c, 0, 74, 92
2, 307052, Note_on_c, 0, 54, 85
2, 307052, Note_on_c, 0, 69, 75
2, 307059, Control_c, 0, 64, 110
2, 307079, Control_c, 0, 64, 95
2, 307096, Control_c, 0, 64, 79
2, 307117, Control_c, 0, 64, 63
2, 307134, Control_c, 0, 64, 48
2, 307154, Control_c, 0, 64, 27
2, 307175, Control_c, 0, 64, 18
2, 307179, Note_on_c, 0, 55, 0
2, 307193, Control_c, 0, 64, 21
2, 307214, Control_c, 0, 64, 27
2, 307231, Control_c, 0, 64, 34
2, 307250, Control_c, 0, 64, 46
2, 307268, Control_c, 0, 64, 60
2, 307288, Control_c, 0, 64, 67
2, 307308, Control_c, 0, 64, 71
2, 307329, Control_c, 0, 64, 76
2, 307346, Control_c, 0, 64, 83
2, 307366, Control_c, 0, 64, 88
2, 307370, Note_on_c, 0, 69, 0
2, 307384, Control_c, 0, 64, 89
2, 307404, Control_c, 0, 64, 88
2, 307422, Control_c, 0, 64, 86
2, 307442, Control_c, 0, 64, 82
2, 307461, Control_c, 0, 64, 79
2, 307483, Control_c, 0, 64, 76
2, 307501, Control_c, 0, 64, 71
2, 307501, Note_on_c, 0, 79, 104
2, 307521, Control_c, 0, 64, 66
2, 307521, Note_on_c, 0, 52, 81
2, 307521, Note_on_c, 0, 67, 78
2, 307540, Control_c, 0, 64, 61
2, 307558, Control_c, 0, 64, 57
2, 307576, Control_c, 0, 64, 55
2, 307596, Control_c, 0, 64, 54
2, 307618, Control_c, 0, 64, 52
2, 307634, Control_c, 0, 64, 48
2, 307654, Control_c, 0, 64, 42
2, 307667, Note_on_c, 0, 54, 0
2, 307676, Control_c, 0, 64, 34
2, 307693, Control_c, 0, 64, 25
2, 307711, Control_c, 0, 64, 18
2, 307720, Note_on_c, 0, 74, 0
2, 307733, Control_c, 0, 64, 12
2, 307754, Control_c, 0, 64, 8
2, 307769, Control_c, 0, 64, 0
2, 307948, Note_on_c, 0, 50, 81
2, 307957, Note_on_c, 0, 71, 92
2, 308088, Note_on_c, 0, 67, 0
2, 308109, Note_on_c, 0, 52, 0
2, 308395, Note_on_c, 0, 76, 94
2, 308402, Note_on_c, 0, 49, 82
2, 308568, Note_on_c, 0, 50, 0
2, 308607, Note_on_c, 0, 71, 0
2, 308830, Note_on_c, 0, 74, 95
2, 308837, Note_on_c, 0, 47, 86
2, 308904, Note_on_c, 0, 76, 0
2, 308981, Note_on_c, 0, 49, 0
2, 309119, Note_on_c, 0, 79, 0
2, 309280, Note_on_c, 0, 73, 96
2, 309284, Note_on_c, 0, 45, 87
2, 309343, Note_on_c, 0, 74, 0
2, 309464, Note_on_c, 0, 47, 0
2, 309727, Note_on_c, 0, 76, 99
2, 309740, Note_on_c, 0, 43, 86
2, 309839, Note_on_c, 0, 73, 0
2, 309903, Note_on_c, 0, 45, 0
2, 310200, Note_on_c, 0, 81, 99
2, 310204, Note_on_c, 0, 42, 94
2, 310352, Note_on_c, 0, 43, 0
2, 310434, Note_on_c, 0, 76, 0
2, 310528, Control_c, 0, 64, 8
2, 310545, Control_c, 0, 64, 13
2, 310566, Control_c, 0, 64, 17
2, 310584, Control_c, 0, 64, 18
2, 310623, Control_c, 0, 64, 19
2, 310682, Control_c, 0, 64, 18
2, 310713, Note_on_c, 0, 40, 86
2, 310713, Note_on_c, 0, 79, 101
2, 310739, Control_c, 0, 64, 17
2, 310760, Note_on_c, 0, 81, 0
2, 310774, Control_c, 0, 64, 16
2, 310794, Control_c, 0, 64, 15
2, 310835, Note_on_c, 0, 42, 0
2, 310853, Control_c, 0, 64, 16
2, 310871, Control_c, 0, 64, 18
2, 310891, Control_c, 0, 64, 20
2, 310909, Control_c, 0, 64, 27
2, 310927, Control_c, 0, 64, 40
2, 310949, Control_c, 0, 64, 57
2, 310967, Control_c, 0, 64, 68
2, 310984, Control_c, 0, 64, 76
2, 311006, Control_c, 0, 64, 101
2, 311025, Control_c, 0, 64, 127
2, 311165, Note_on_c, 0, 40, 0
2, 311209, Note_on_c, 0, 79, 0
2, 311286, Note_on_c, 0, 74, 93
2, 311286, Note_on_c, 0, 78, 105
2, 311291, Note_on_c, 0, 38, 85
2, 311312, Control_c, 0, 64, 98
2, 311316, Note_on_c, 0, 36, 48
2, 311320, Note_on_c, 0, 36, 0
2, 311334, Control_c, 0, 64, 67
2, 311351, Control_c, 0, 64, 46
2, 311373, Control_c, 0, 64, 0
2, 311486, Control_c, 0, 64, 12
2, 311506, Control_c, 0, 64, 53
2, 311525, Control_c, 0, 64, 70
2, 311539, Note_on_c, 0, 38, 0
2, 311548, Control_c, 0, 64, 90
2, 311563, Control_c, 0, 64, 127
2, 311770, Note_on_c, 0, 78, 0
2, 311909, Note_on_c, 0, 79, 104
2, 311913, Note_on_c, 0, 76, 97
2, 311921, Note_on_c, 0, 62, 94
2, 311984, Control_c, 0, 64, 95
2, 311993, Note_on_c, 0, 74, 0
2, 312004, Control_c, 0, 64, 66
2, 312024, Control_c, 0, 64, 43
2, 312045, Control_c, 0, 64, 0
2, 312142, Control_c, 0, 64, 38
2, 312163, Control_c, 0, 64, 60
2, 312183, Control_c, 0, 64, 72
2, 312202, Control_c, 0, 64, 92
2, 312218, Control_c, 0, 64, 127
2, 312265, Note_on_c, 0, 79, 0
2, 312354, Note_on_c, 0, 62, 0
2, 312486, Note_on_c, 0, 81, 94
2, 312497, Note_on_c, 0, 62, 95
2, 312497, Note_on_c, 0, 78, 93
2, 312599, Note_on_c, 0, 76, 0
2, 312807, Note_on_c, 0, 81, 0
2, 312854, Note_on_c, 0, 62, 0
2, 312982, Note_on_c, 0, 62, 96
2, 313005, Note_on_c, 0, 50, 76
2, 313313, Note_on_c, 0, 62, 0
2, 313449, Note_on_c, 0, 55, 93
2, 313459, Note_on_c, 0, 52, 79
2, 313468, Control_c, 0, 64, 106
2, 313487, Control_c, 0, 64, 89
2, 313509, Control_c, 0, 64, 79
2, 313526, Control_c, 0, 64, 72
2, 313543, Control_c, 0, 64, 68
2, 313565, Control_c, 0, 64, 66
2, 313583, Control_c, 0, 64, 65
2, 313694, Note_on_c, 0, 50, 0
2, 313701, Control_c, 0, 64, 64
2, 313755, Control_c, 0, 64, 63
2, 313795, Control_c, 0, 64, 62
2, 313851, Control_c, 0, 64, 61
2, 313873, Control_c, 0, 64, 59
2, 313893, Note_on_c, 0, 71, 92
2, 313893, Note_on_c, 0, 74, 90
2, 313894, Control_c, 0, 64, 53
2, 313909, Control_c, 0, 64, 40
2, 313931, Control_c, 0, 64, 15
2, 313947, Control_c, 0, 64, 0
2, 314006, Control_c, 0, 64, 12
2, 314024, Control_c, 0, 64, 32
2, 314044, Control_c, 0, 64, 49
2, 314064, Control_c, 0, 64, 61
2, 314082, Control_c, 0, 64, 64
2, 314100, Note_on_c, 0, 78, 0
2, 314104, Control_c, 0, 64, 67
2, 314122, Control_c, 0, 64, 73
2, 314142, Control_c, 0, 64, 87
2, 314160, Control_c, 0, 64, 106
2, 314180, Control_c, 0, 64, 127
2, 314298, Note_on_c, 0, 52, 0
2, 314332, Note_on_c, 0, 76, 93
2, 314332, Note_on_c, 0, 79, 94
2, 314336, Control_c, 0, 64, 112
2, 314341, Note_on_c, 0, 59, 91
2, 314353, Control_c, 0, 64, 101
2, 314371, Control_c, 0, 64, 89
2, 314387, Note_on_c, 0, 71, 0
2, 314389, Control_c, 0, 64, 78
2, 314408, Control_c, 0, 64, 68
2, 314427, Control_c, 0, 64, 64
2, 314447, Control_c, 0, 64, 60
2, 314469, Control_c, 0, 64, 55
2, 314469, Note_on_c, 0, 74, 0
2, 314484, Control_c, 0, 64, 50
2, 314503, Control_c, 0, 64, 49
2, 314525, Control_c, 0, 64, 50
2, 314543, Control_c, 0, 64, 55
2, 314563, Control_c, 0, 64, 62
2, 314583, Control_c, 0, 64, 69
2, 314601, Control_c, 0, 64, 80
2, 314621, Note_on_c, 0, 55, 0
2, 314626, Control_c, 0, 64, 103
2, 314630, Note_on_c, 0, 76, 0
2, 314639, Control_c, 0, 64, 127
2, 314715, Control_c, 0, 64, 112
2, 314734, Control_c, 0, 64, 101
2, 314755, Control_c, 0, 64, 92
2, 314755, Note_on_c, 0, 52, 87
2, 314767, Note_on_c, 0, 74, 87
2, 314771, Note_on_c, 0, 78, 98
2, 314772, Control_c, 0, 64, 82
2, 314794, Control_c, 0, 64, 71
2, 314809, Note_on_c, 0, 79, 0
2, 314813, Control_c, 0, 64, 61
2, 314830, Control_c, 0, 64, 44
2, 314850, Control_c, 0, 64, 16
2, 314870, Control_c, 0, 64, 0
2, 314945, Control_c, 0, 64, 15
2, 314965, Control_c, 0, 64, 42
2, 314985, Control_c, 0, 64, 60
2, 315005, Control_c, 0, 64, 68
2, 315024, Control_c, 0, 64, 75
2, 315042, Control_c, 0, 64, 85
2, 315060, Control_c, 0, 64, 95
2, 315083, Control_c, 0, 64, 100
2, 315083, Note_on_c, 0, 78, 0
2, 315100, Control_c, 0, 64, 101
2, 315100, Note_on_c, 0, 59, 0
2, 315139, Control_c, 0, 64, 99
2, 315159, Control_c, 0, 64, 98
2, 315176, Control_c, 0, 64, 97
2, 315197, Control_c, 0, 64, 96
2, 315208, Note_on_c, 0, 57, 90
2, 315208, Note_on_c, 0, 76, 92
2, 315218, Control_c, 0, 64, 93
2, 315218, Note_on_c, 0, 73, 86
2, 315237, Control_c, 0, 64, 80
2, 315254, Control_c, 0, 64, 64
2, 315267, Note_on_c, 0, 74, 0
2, 315274, Control_c, 0, 64, 48
2, 315295, Control_c, 0, 64, 16
2, 315310, Control_c, 0, 64, 0
2, 315350, Control_c, 0, 64, 16
2, 315367, Control_c, 0, 64, 35
2, 315388, Control_c, 0, 64, 57
2, 315410, Control_c, 0, 64, 66
2, 315426, Control_c, 0, 64, 72
2, 315448, Control_c, 0, 64, 81
2, 315448, Note_on_c, 0, 52, 0
2, 315466, Control_c, 0, 64, 91
2, 315483, Control_c, 0, 64, 100
2, 315502, Control_c, 0, 64, 103
2, 315535, Note_on_c, 0, 57, 0
2, 315542, Control_c, 0, 64, 102
2, 315579, Control_c, 0, 64, 100
2, 315598, Control_c, 0, 64, 96
2, 315619, Control_c, 0, 64, 91
2, 315639, Control_c, 0, 64, 85
2, 315643, Note_on_c, 0, 55, 88
2, 315658, Control_c, 0, 64, 77
2, 315658, Note_on_c, 0, 52, 67
2, 315676, Control_c, 0, 64, 70
2, 315697, Control_c, 0, 64, 65
2, 315713, Control_c, 0, 64, 63
2, 315735, Control_c, 0, 64, 62
2, 315753, Control_c, 0, 64, 61
2, 315773, Control_c, 0, 64, 60
2, 315809, Control_c, 0, 64, 59
2, 315849, Control_c, 0, 64, 58
2, 315870, Control_c, 0, 64, 57
2, 315888, Control_c, 0, 64, 56
2, 315907, Control_c, 0, 64, 55
2, 315926, Control_c, 0, 64, 54
2, 315964, Control_c, 0, 64, 52
2, 315985, Control_c, 0, 64, 49
2, 316003, Control_c, 0, 64, 46
2, 316021, Control_c, 0, 64, 44
2, 316041, Control_c, 0, 64, 43
2, 316078, Control_c, 0, 64, 42
2, 316087, Note_on_c, 0, 54, 73
2, 316091, Note_on_c, 0, 57, 80
2, 316101, Control_c, 0, 64, 39
2, 316120, Control_c, 0, 64, 34
2, 316138, Control_c, 0, 64, 30
2, 316155, Control_c, 0, 64, 28
2, 316243, Note_on_c, 0, 52, 0
2, 316253, Control_c, 0, 64, 27
2, 316253, Note_on_c, 0, 55, 0
2, 316271, Control_c, 0, 64, 26
2, 316519, Note_on_c, 0, 52, 63
2, 316519, Note_on_c, 0, 64, 90
2, 316535, Note_on_c, 0, 55, 69
2, 316638, Note_on_c, 0, 57, 0
2, 316716, Note_on_c, 0, 54, 0
2, 316943, Control_c, 0, 64, 27
2, 316964, Note_on_c, 0, 69, 87
2, 316969, Note_on_c, 0, 50, 58
2, 316973, Note_on_c, 0, 54, 65
2, 317049, Note_on_c, 0, 52, 0
2, 317145, Note_on_c, 0, 64, 0
2, 317169, Note_on_c, 0, 55, 0
2, 317349, Control_c, 0, 64, 26
2, 317367, Control_c, 0, 64, 25
2, 317383, Control_c, 0, 64, 20
2, 317405, Note_on_c, 0, 67, 85
2, 317407, Control_c, 0, 64, 12
2, 317411, Note_on_c, 0, 55, 65
2, 317412, Note_on_c, 0, 52, 57
2, 317424, Control_c, 0, 64, 0
2, 317493, Note_on_c, 0, 54, 0
2, 317515, Note_on_c, 0, 69, 0
2, 317553, Note_on_c, 0, 50, 0
2, 317557, Control_c, 0, 64, 14
2, 317575, Control_c, 0, 64, 26
2, 317596, Control_c, 0, 64, 44
2, 317616, Control_c, 0, 64, 60
2, 317632, Note_on_c, 0, 76, 0
2, 317635, Control_c, 0, 64, 66
2, 317653, Control_c, 0, 64, 69
2, 317674, Control_c, 0, 64, 72
2, 317674, Note_on_c, 0, 73, 0
2, 317696, Control_c, 0, 64, 74
2, 317710, Control_c, 0, 64, 76
2, 317768, Control_c, 0, 64, 75
2, 317828, Control_c, 0, 64, 74
2, 317846, Control_c, 0, 64, 72
2, 317857, Note_on_c, 0, 74, 95
2, 317869, Control_c, 0, 64, 68
2, 317869, Note_on_c, 0, 57, 56
2, 317875, Note_on_c, 0, 54, 53
2, 317882, Note_on_c, 0, 66, 69
2, 317886, Control_c, 0, 64, 64
2, 317903, Control_c, 0, 64, 58
2, 317924, Control_c, 0, 64, 48
2, 317942, Control_c, 0, 64, 25
2, 317960, Control_c, 0, 64, 0
2, 317967, Note_on_c, 0, 55, 0
2, 317976, Note_on_c, 0, 52, 0
2, 318048, Note_on_c, 0, 67, 0
2, 318096, Control_c, 0, 64, 30
2, 318114, Control_c, 0, 64, 50
2, 318134, Control_c, 0, 64, 62
2, 318152, Control_c, 0, 64, 64
2, 318172, Control_c, 0, 64, 67
2, 318194, Control_c, 0, 64, 73
2, 318198, Note_on_c, 0, 74, 0
2, 318209, Control_c, 0, 64, 83
2, 318231, Control_c, 0, 64, 91
2, 318251, Control_c, 0, 64, 92
2, 318286, Control_c, 0, 64, 91
2, 318307, Control_c, 0, 64, 89
2, 318329, Control_c, 0, 64, 85
2, 318346, Control_c, 0, 64, 81
2, 318346, Note_on_c, 0, 72, 101
2, 318363, Control_c, 0, 64, 72
2, 318372, Note_on_c, 0, 64, 66
2, 318384, Control_c, 0, 64, 62
2, 318405, Control_c, 0, 64, 43
2, 318421, Control_c, 0, 64, 0
2, 318499, Control_c, 0, 64, 18
2, 318519, Control_c, 0, 64, 37
2, 318537, Control_c, 0, 64, 59
2, 318546, Note_on_c, 0, 66, 0
2, 318556, Control_c, 0, 64, 67
2, 318575, Control_c, 0, 64, 72
2, 318595, Control_c, 0, 64, 81
2, 318615, Control_c, 0, 64, 90
2, 318632, Control_c, 0, 64, 97
2, 318652, Control_c, 0, 64, 99
2, 318690, Note_on_c, 0, 64, 0
2, 318709, Control_c, 0, 64, 97
2, 318731, Control_c, 0, 64, 94
2, 318749, Control_c, 0, 64, 90
2, 318768, Control_c, 0, 64, 87
2, 318785, Control_c, 0, 64, 84
2, 318804, Control_c, 0, 64, 79
2, 318809, Note_on_c, 0, 71, 95
2, 318826, Control_c, 0, 64, 69
2, 318831, Note_on_c, 0, 62, 75
2, 318844, Control_c, 0, 64, 58
2, 318865, Control_c, 0, 64, 38
2, 318881, Control_c, 0, 64, 0
2, 318932, Note_on_c, 0, 72, 0
2, 318978, Control_c, 0, 64, 31
2, 318999, Control_c, 0, 64, 55
2, 319017, Control_c, 0, 64, 67
2, 319037, Control_c, 0, 64, 75
2, 319055, Control_c, 0, 64, 90
2, 319073, Control_c, 0, 64, 107
2, 319093, Control_c, 0, 64, 127
2, 319106, Note_on_c, 0, 57, 0
2, 319165, Note_on_c, 0, 54, 0
2, 319230, Control_c, 0, 64, 108
2, 319245, Note_on_c, 0, 47, 78
2, 319252, Control_c, 0, 64, 96
2, 319252, Note_on_c, 0, 50, 75
2, 319271, Control_c, 0, 64, 87
2, 319289, Control_c, 0, 64, 81
2, 319309, Control_c, 0, 64, 78
2, 319327, Control_c, 0, 64, 76
2, 319347, Control_c, 0, 64, 72
2, 319364, Control_c, 0, 64, 68
2, 319385, Control_c, 0, 64, 66
2, 319405, Control_c, 0, 64, 65
2, 319422, Control_c, 0, 64, 64
2, 319462, Control_c, 0, 64, 63
2, 319499, Control_c, 0, 64, 62
2, 319519, Control_c, 0, 64, 61
2, 319541, Control_c, 0, 64, 59
2, 319595, Control_c, 0, 64, 58
2, 319634, Control_c, 0, 64, 57
2, 319652, Control_c, 0, 64, 56
2, 319674, Control_c, 0, 64, 55
2, 319685, Note_on_c, 0, 52, 69
2, 319692, Note_on_c, 0, 55, 76
2, 319692, Note_on_c, 0, 61, 88
2, 319712, Control_c, 0, 64, 54
2, 319728, Control_c, 0, 64, 53
2, 319750, Control_c, 0, 64, 50
2, 319769, Control_c, 0, 64, 47
2, 319787, Control_c, 0, 64, 43
2, 319806, Control_c, 0, 64, 40
2, 319826, Control_c, 0, 64, 39
2, 319846, Control_c, 0, 64, 38
2, 319864, Control_c, 0, 64, 35
2, 319884, Control_c, 0, 64, 30
2, 319897, Note_on_c, 0, 62, 0
2, 319904, Control_c, 0, 64, 25
2, 319922, Control_c, 0, 64, 23
2, 319922, Note_on_c, 0, 50, 0
2, 319981, Control_c, 0, 64, 22
2, 319988, Note_on_c, 0, 47, 0
2, 320001, Control_c, 0, 64, 20
2, 320017, Control_c, 0, 64, 18
2, 320095, Control_c, 0, 64, 16
2, 320126, Note_on_c, 0, 62, 91
2, 320145, Note_on_c, 0, 50, 65
2, 320145, Note_on_c, 0, 54, 73
2, 320172, Control_c, 0, 64, 15
2, 320211, Control_c, 0, 64, 14
2, 320231, Control_c, 0, 64, 13
2, 320248, Control_c, 0, 64, 12
2, 320268, Control_c, 0, 64, 11
2, 320289, Note_on_c, 0, 55, 0
2, 320305, Control_c, 0, 64, 10
2, 320318, Note_on_c, 0, 61, 0
2, 320325, Control_c, 0, 64, 0
2, 320352, Note_on_c, 0, 52, 0
2, 320427, Note_on_c, 0, 71, 0
2, 320585, Note_on_c, 0, 52, 63
2, 320585, Note_on_c, 0, 64, 95
2, 320590, Note_on_c, 0, 49, 65
2, 320625, Note_on_c, 0, 50, 0
2, 320670, Note_on_c, 0, 62, 0
2, 320674, Note_on_c, 0, 54, 0
2, 320747, Control_c, 0, 64, 17
2, 320766, Control_c, 0, 64, 36
2, 320785, Control_c, 0, 64, 50
2, 320803, Control_c, 0, 64, 62
2, 320823, Control_c, 0, 64, 66
2, 320843, Control_c, 0, 64, 70
2, 320864, Control_c, 0, 64, 74
2, 320882, Control_c, 0, 64, 79
2, 320901, Control_c, 0, 64, 80
2, 320913, Note_on_c, 0, 64, 0
2, 320942, Control_c, 0, 64, 79
2, 320959, Control_c, 0, 64, 78
2, 320977, Control_c, 0, 64, 77
2, 320997, Control_c, 0, 64, 76
2, 321018, Control_c, 0, 64, 73
2, 321020, Note_on_c, 0, 64, 94
2, 321024, Note_on_c, 0, 47, 73
2, 321035, Control_c, 0, 64, 72
2, 321036, Note_on_c, 0, 62, 71
2, 321055, Control_c, 0, 64, 69
2, 321074, Control_c, 0, 64, 64
2, 321094, Control_c, 0, 64, 57
2, 321115, Control_c, 0, 64, 43
2, 321115, Note_on_c, 0, 49, 0
2, 321131, Control_c, 0, 64, 9
2, 321150, Control_c, 0, 64, 0
2, 321266, Control_c, 0, 64, 30
2, 321284, Control_c, 0, 64, 52
2, 321304, Control_c, 0, 64, 65
2, 321322, Control_c, 0, 64, 68
2, 321342, Control_c, 0, 64, 70
2, 321364, Control_c, 0, 64, 71
2, 321382, Control_c, 0, 64, 72
2, 321438, Control_c, 0, 64, 71
2, 321459, Control_c, 0, 64, 70
2, 321476, Control_c, 0, 64, 68
2, 321496, Control_c, 0, 64, 66
2, 321501, Note_on_c, 0, 69, 88
2, 321518, Control_c, 0, 64, 62
2, 321518, Note_on_c, 0, 61, 69
2, 321522, Note_on_c, 0, 45, 63
2, 321534, Control_c, 0, 64, 58
2, 321554, Control_c, 0, 64, 48
2, 321563, Note_on_c, 0, 64, 0
2, 321574, Control_c, 0, 64, 0
2, 321631, Note_on_c, 0, 47, 0
2, 321699, Note_on_c, 0, 62, 0
2, 321711, Control_c, 0, 64, 9
2, 321730, Control_c, 0, 64, 37
2, 321746, Control_c, 0, 64, 58
2, 321764, Control_c, 0, 64, 67
2, 321786, Control_c, 0, 64, 72
2, 321804, Control_c, 0, 64, 82
2, 321823, Control_c, 0, 64, 101
2, 321842, Control_c, 0, 64, 127
2, 321846, Note_on_c, 0, 69, 0
2, 321997, Note_on_c, 0, 67, 94
2, 322018, Note_on_c, 0, 64, 75
2, 322035, Control_c, 0, 64, 102
2, 322056, Control_c, 0, 64, 81
2, 322072, Control_c, 0, 64, 64
2, 322094, Control_c, 0, 64, 45
2, 322098, Note_on_c, 0, 61, 0
2, 322113, Control_c, 0, 64, 0
2, 322168, Control_c, 0, 64, 19
2, 322187, Control_c, 0, 64, 39
2, 322206, Control_c, 0, 64, 57
2, 322226, Control_c, 0, 64, 66
2, 322246, Control_c, 0, 64, 69
2, 322264, Control_c, 0, 64, 74
2, 322286, Control_c, 0, 64, 80
2, 322302, Control_c, 0, 64, 87
2, 322321, Control_c, 0, 64, 92
2, 322341, Control_c, 0, 64, 93
2, 322360, Control_c, 0, 64, 92
2, 322379, Control_c, 0, 64, 91
2, 322399, Control_c, 0, 64, 90
2, 322418, Control_c, 0, 64, 89
2, 322439, Control_c, 0, 64, 88
2, 322456, Control_c, 0, 64, 87
2, 322475, Control_c, 0, 64, 85
2, 322495, Control_c, 0, 64, 84
2, 322534, Control_c, 0, 64, 83
2, 322551, Control_c, 0, 64, 82
2, 322571, Control_c, 0, 64, 81
2, 322591, Control_c, 0, 64, 77
2, 322596, Note_on_c, 0, 66, 94
2, 322612, Control_c, 0, 64, 73
2, 322629, Control_c, 0, 64, 68
2, 322648, Control_c, 0, 64, 65
2, 322668, Control_c, 0, 64, 62
2, 322689, Control_c, 0, 64, 60
2, 322704, Control_c, 0, 64, 58
2, 322724, Control_c, 0, 64, 57
2, 322735, Note_on_c, 0, 67, 0
2, 322743, Control_c, 0, 64, 56
2, 322764, Control_c, 0, 64, 55
2, 322784, Control_c, 0, 64, 54
2, 322802, Control_c, 0, 64, 52
2, 322822, Control_c, 0, 64, 49
2, 322841, Control_c, 0, 64, 46
2, 322859, Control_c, 0, 64, 45
2, 323150, Note_on_c, 0, 57, 60
2, 323165, Note_on_c, 0, 62, 78
2, 323244, Control_c, 0, 64, 46
2, 323255, Note_on_c, 0, 64, 0
2, 323268, Note_on_c, 0, 52, 0
2, 323282, Control_c, 0, 64, 47
2, 323300, Control_c, 0, 64, 48
2, 323322, Control_c, 0, 64, 49
2, 323340, Control_c, 0, 64, 52
2, 323359, Control_c, 0, 64, 58
2, 323379, Control_c, 0, 64, 64
2, 323398, Control_c, 0, 64, 67
2, 323418, Control_c, 0, 64, 70
2, 323436, Control_c, 0, 64, 73
2, 323454, Control_c, 0, 64, 77
2, 323475, Control_c, 0, 64, 79
2, 323496, Control_c, 0, 64, 80
2, 323513, Note_on_c, 0, 57, 0
2, 323518, Control_c, 0, 64, 79
2, 323589, Control_c, 0, 64, 78
2, 323627, Control_c, 0, 64, 76
2, 323632, Note_on_c, 0, 64, 92
2, 323651, Control_c, 0, 64, 74
2, 323652, Note_on_c, 0, 57, 80
2, 323668, Control_c, 0, 64, 71
2, 323685, Control_c, 0, 64, 66
2, 323706, Control_c, 0, 64, 60
2, 323723, Control_c, 0, 64, 50
2, 323746, Control_c, 0, 64, 28
2, 323763, Control_c, 0, 64, 0
2, 323836, Note_on_c, 0, 66, 0
2, 323856, Control_c, 0, 64, 20
2, 323873, Control_c, 0, 64, 38
2, 323893, Control_c, 0, 64, 57
2, 323915, Control_c, 0, 64, 66
2, 323931, Control_c, 0, 64, 69
2, 323951, Control_c, 0, 64, 73
2, 323969, Control_c, 0, 64, 76
2, 323989, Control_c, 0, 64, 80
2, 324009, Control_c, 0, 64, 82
2, 324025, Note_on_c, 0, 57, 0
2, 324068, Control_c, 0, 64, 81
2, 324085, Control_c, 0, 64, 80
2, 324103, Control_c, 0, 64, 79
2, 324142, Control_c, 0, 64, 77
2, 324162, Control_c, 0, 64, 76
2, 324179, Note_on_c, 0, 61, 84
2, 324184, Control_c, 0, 64, 74
2, 324184, Note_on_c, 0, 57, 84
2, 324202, Control_c, 0, 64, 72
2, 324220, Control_c, 0, 64, 69
2, 324239, Control_c, 0, 64, 64
2, 324261, Control_c, 0, 64, 54
2, 324278, Control_c, 0, 64, 35
2, 324296, Control_c, 0, 64, 0
2, 324410, Control_c, 0, 64, 10
2, 324430, Control_c, 0, 64, 27
2, 324452, Control_c, 0, 64, 44
2, 324468, Control_c, 0, 64, 60
2, 324490, Control_c, 0, 64, 64
2, 324500, Note_on_c, 0, 62, 0
2, 324525, Control_c, 0, 64, 67
2, 324546, Control_c, 0, 64, 73
2, 324566, Control_c, 0, 64, 84
2, 324584, Control_c, 0, 64, 97
2, 324602, Control_c, 0, 64, 103
2, 324720, Control_c, 0, 64, 102
2, 324738, Control_c, 0, 64, 101
2, 324756, Control_c, 0, 64, 99
2, 324775, Control_c, 0, 64, 97
2, 324795, Control_c, 0, 64, 94
2, 324815, Control_c, 0, 64, 91
2, 324833, Control_c, 0, 64, 87
2, 324841, Note_on_c, 0, 51, 77
2, 324843, Note_on_c, 0, 66, 87
2, 324857, Control_c, 0, 64, 81
2, 324857, Note_on_c, 0, 60, 73
2, 324873, Control_c, 0, 64, 71
2, 324890, Control_c, 0, 64, 63
2, 324910, Control_c, 0, 64, 56
2, 324929, Control_c, 0, 64, 49
2, 324950, Control_c, 0, 64, 45
2, 324960, Note_on_c, 0, 64, 0
2, 324969, Control_c, 0, 64, 40
2, 324987, Control_c, 0, 64, 30
2, 325007, Control_c, 0, 64, 0
2, 325038, Note_on_c, 0, 61, 0
2, 325043, Note_on_c, 0, 57, 0
2, 325068, Note_on_c, 0, 45, 0
2, 325160, Control_c, 0, 64, 20
2, 325178, Control_c, 0, 64, 43
2, 325198, Control_c, 0, 64, 61
2, 325219, Control_c, 0, 64, 66
2, 325239, Control_c, 0, 64, 69
2, 325255, Control_c, 0, 64, 73
2, 325275, Control_c, 0, 64, 79
2, 325286, Note_on_c, 0, 60, 0
2, 325297, Control_c, 0, 64, 88
2, 325314, Control_c, 0, 64, 93
2, 325333, Control_c, 0, 64, 97
2, 325352, Control_c, 0, 64, 100
2, 325371, Control_c, 0, 64, 102
2, 325410, Control_c, 0, 64, 101
2, 325430, Control_c, 0, 64, 97
2, 325450, Control_c, 0, 64, 92
2, 325454, Note_on_c, 0, 68, 94
2, 325459, Note_on_c, 0, 52, 77
2, 325470, Control_c, 0, 64, 85
2, 325470, Note_on_c, 0, 59, 74
2, 325489, Control_c, 0, 64, 75
2, 325507, Control_c, 0, 64, 64
2, 325526, Control_c, 0, 64, 50
2, 325537, Note_on_c, 0, 66, 0
2, 325544, Control_c, 0, 64, 20
2, 325566, Control_c, 0, 64, 0
2, 325566, Note_on_c, 0, 51, 0
2, 325621, Control_c, 0, 64, 20
2, 325641, Control_c, 0, 64, 40
2, 325663, Control_c, 0, 64, 59
2, 325680, Control_c, 0, 64, 70
2, 325697, Control_c, 0, 64, 81
2, 325717, Control_c, 0, 64, 97
2, 325736, Control_c, 0, 64, 127
2, 325787, Note_on_c, 0, 59, 0
2, 325874, Control_c, 0, 64, 109
2, 325889, Control_c, 0, 64, 98
2, 325908, Control_c, 0, 64, 88
2, 325930, Control_c, 0, 64, 80
2, 325941, Note_on_c, 0, 69, 83
2, 325942, Note_on_c, 0, 53, 72
2, 325948, Control_c, 0, 64, 73
2, 325960, Note_on_c, 0, 57, 73
2, 325970, Control_c, 0, 64, 67
2, 325986, Control_c, 0, 64, 61
2, 326008, Control_c, 0, 64, 56
2, 326028, Control_c, 0, 64, 52
2, 326028, Note_on_c, 0, 68, 0
2, 326044, Control_c, 0, 64, 48
2, 326062, Control_c, 0, 64, 42
2, 326081, Control_c, 0, 64, 32
2, 326103, Control_c, 0, 64, 18
2, 326103, Note_on_c, 0, 52, 0
2, 326120, Control_c, 0, 64, 0
2, 326215, Control_c, 0, 64, 13
2, 326234, Control_c, 0, 64, 18
2, 326255, Control_c, 0, 64, 22
2, 326274, Control_c, 0, 64, 25
2, 326294, Control_c, 0, 64, 26
2, 326314, Control_c, 0, 64, 28
2, 326332, Control_c, 0, 64, 30
2, 326350, Control_c, 0, 64, 32
2, 326369, Control_c, 0, 64, 36
2, 326385, Note_on_c, 0, 60, 79
2, 326391, Control_c, 0, 64, 48
2, 326408, Control_c, 0, 64, 57
2, 326426, Control_c, 0, 64, 60
2, 326487, Control_c, 0, 64, 62
2, 326507, Control_c, 0, 64, 64
2, 326524, Control_c, 0, 64, 66
2, 326533, Note_on_c, 0, 57, 0
2, 326544, Control_c, 0, 64, 68
2, 326563, Control_c, 0, 64, 72
2, 326581, Control_c, 0, 64, 76
2, 326599, Control_c, 0, 64, 79
2, 326657, Control_c, 0, 64, 78
2, 326719, Control_c, 0, 64, 77
2, 326755, Control_c, 0, 64, 76
2, 326775, Control_c, 0, 64, 74
2, 326793, Control_c, 0, 64, 72
2, 326815, Control_c, 0, 64, 71
2, 326832, Control_c, 0, 64, 69
2, 326839, Note_on_c, 0, 62, 80
2, 326850, Control_c, 0, 64, 68
2, 326872, Control_c, 0, 64, 66
2, 326888, Control_c, 0, 64, 64
2, 326908, Control_c, 0, 64, 63
2, 326926, Control_c, 0, 64, 62
2, 326973, Note_on_c, 0, 60, 0
2, 326987, Control_c, 0, 64, 61
2, 326987, Control_c, 0, 67, 11
2, 327005, Control_c, 0, 67, 20
2, 327023, Control_c, 0, 64, 60
2, 327025, Control_c, 0, 67, 24
2, 327043, Control_c, 0, 67, 26
2, 327062, Control_c, 0, 67, 29
2, 327082, Control_c, 0, 64, 59
2, 327082, Control_c, 0, 67, 33
2, 327099, Control_c, 0, 67, 36
2, 327119, Control_c, 0, 67, 37
2, 327197, Control_c, 0, 64, 58
2, 327255, Control_c, 0, 64, 57
2, 327259, Note_on_c, 0, 47, 52
2, 327268, Note_on_c, 0, 64, 74
2, 327275, Note_on_c, 0, 59, 51
2, 327312, Control_c, 0, 64, 56
2, 327320, Note_on_c, 0, 69, 0
2, 327383, Note_on_c, 0, 53, 0
2, 327407, Control_c, 0, 64, 55
2, 327429, Note_on_c, 0, 62, 0
2, 327457, Note_on_c, 0, 65, 62
2, 327483, Control_c, 0, 64, 54
2, 327523, Control_c, 0, 64, 53
2, 327534, Note_on_c, 0, 64, 0
2, 327538, Note_on_c, 0, 59, 0
2, 327541, Control_c, 0, 64, 52
2, 327579, Control_c, 0, 64, 51
2, 327621, Control_c, 0, 64, 50
2, 327621, Control_c, 0, 67, 36
2, 327695, Control_c, 0, 64, 49
2, 327701, Note_on_c, 0, 64, 60
2, 327706, Note_on_c, 0, 68, 72
2, 327730, Note_on_c, 0, 59, 48
2, 327732, Control_c, 0, 64, 48
2, 327737, Note_on_c, 0, 52, 47
2, 327760, Note_on_c, 0, 65, 0
2, 327880, Note_on_c, 0, 47, 0
2, 327887, Control_c, 0, 67, 35
2, 327963, Note_on_c, 0, 59, 0
2, 327984, Control_c, 0, 67, 34
2, 328021, Control_c, 0, 64, 49
2, 328099, Control_c, 0, 67, 33
2, 328180, Note_on_c, 0, 50, 54
2, 328186, Note_on_c, 0, 59, 53
2, 328321, Note_on_c, 0, 52, 0
2, 328373, Note_on_c, 0, 64, 0
2, 328444, Control_c, 0, 64, 48
2, 328589, Note_on_c, 0, 59, 0
2, 328655, Note_on_c, 0, 52, 42
2, 328677, Note_on_c, 0, 49, 43
2, 328681, Note_on_c, 0, 50, 0
2, 328681, Note_on_c, 0, 69, 52
2, 328734, Note_on_c, 0, 68, 0
2, 328810, Control_c, 0, 67, 32
2, 329236, Note_on_c, 0, 45, 36
2, 329251, Control_c, 0, 64, 49
2, 329266, Note_on_c, 0, 81, 61
2, 329367, Control_c, 0, 64, 50
2, 329385, Control_c, 0, 64, 51
2, 329405, Control_c, 0, 64, 52
2, 329409, Note_on_c, 0, 49, 0
2, 329426, Control_c, 0, 64, 54
2, 329441, Control_c, 0, 64, 55
2, 329464, Control_c, 0, 64, 60
2, 329479, Control_c, 0, 64, 64
2, 329502, Control_c, 0, 64, 67
2, 329502, Control_c, 0, 67, 31
2, 329520, Control_c, 0, 64, 71
2, 329537, Control_c, 0, 64, 77
2, 329556, Control_c, 0, 64, 82
2, 329576, Control_c, 0, 64, 83
2, 329594, Note_on_c, 0, 81, 0
2, 329614, Control_c, 0, 64, 82
2, 329634, Control_c, 0, 64, 81
2, 329652, Control_c, 0, 64, 80
2, 329672, Control_c, 0, 64, 78
2, 329690, Control_c, 0, 64, 75
2, 329709, Control_c, 0, 64, 73
2, 329730, Control_c, 0, 64, 71
2, 329750, Control_c, 0, 64, 69
2, 329758, Note_on_c, 0, 81, 74
2, 329765, Note_on_c, 0, 50, 45
2, 329769, Control_c, 0, 64, 67
2, 329789, Control_c, 0, 64, 65
2, 329808, Control_c, 0, 64, 62
2, 329825, Control_c, 0, 64, 57
2, 329846, Control_c, 0, 64, 54
2, 329866, Control_c, 0, 64, 50
2, 329885, Control_c, 0, 64, 46
2, 329901, Control_c, 0, 64, 45
2, 329924, Control_c, 0, 64, 46
2, 329942, Control_c, 0, 64, 49
2, 329962, Control_c, 0, 64, 52
2, 329979, Control_c, 0, 64, 59
2, 329989, Note_on_c, 0, 52, 0
2, 330001, Control_c, 0, 64, 63
2, 330017, Control_c, 0, 64, 65
2, 330040, Control_c, 0, 64, 67
2, 330054, Control_c, 0, 64, 69
2, 330069, Note_on_c, 0, 81, 0
2, 330076, Control_c, 0, 64, 72
2, 330096, Control_c, 0, 67, 30
2, 330132, Control_c, 0, 64, 71
2, 330151, Control_c, 0, 64, 70
2, 330168, Note_on_c, 0, 45, 0
2, 330175, Control_c, 0, 64, 69
2, 330175, Control_c, 0, 67, 31
2, 330190, Control_c, 0, 64, 68
2, 330211, Control_c, 0, 64, 67
2, 330218, Note_on_c, 0, 81, 80
2, 330229, Control_c, 0, 64, 65
2, 330246, Note_on_c, 0, 49, 43
2, 330249, Control_c, 0, 64, 64
2, 330258, Note_on_c, 0, 78, 51
2, 330267, Control_c, 0, 64, 61
2, 330287, Control_c, 0, 64, 56
2, 330306, Control_c, 0, 64, 48
2, 330326, Control_c, 0, 64, 38
2, 330344, Control_c, 0, 64, 33
2, 330363, Control_c, 0, 64, 34
2, 330383, Control_c, 0, 64, 38
2, 330394, Note_on_c, 0, 50, 0
2, 330403, Control_c, 0, 64, 43
2, 330421, Note_on_c, 0, 69, 0
2, 330426, Control_c, 0, 64, 54
2, 330439, Control_c, 0, 64, 63
2, 330459, Control_c, 0, 64, 67
2, 330479, Control_c, 0, 64, 70
2, 330497, Control_c, 0, 64, 74
2, 330519, Control_c, 0, 64, 79
2, 330519, Control_c, 0, 67, 30
2, 330537, Control_c, 0, 64, 81
2, 330546, Note_on_c, 0, 78, 0
2, 330592, Control_c, 0, 64, 80
2, 330614, Control_c, 0, 64, 79
2, 330631, Control_c, 0, 64, 77
2, 330651, Control_c, 0, 64, 75
2, 330671, Control_c, 0, 64, 73
2, 330689, Note_on_c, 0, 47, 44
2, 330689, Note_on_c, 0, 78, 80
2, 330693, Control_c, 0, 64, 71
2, 330708, Control_c, 0, 64, 67
2, 330725, Note_on_c, 0, 74, 52
2, 330729, Control_c, 0, 64, 62
2, 330734, Note_on_c, 0, 49, 0
2, 330748, Control_c, 0, 64, 54
2, 330768, Control_c, 0, 64, 44
2, 330785, Control_c, 0, 64, 39
2, 330805, Control_c, 0, 64, 40
2, 330827, Control_c, 0, 64, 42
2, 330845, Control_c, 0, 64, 46
2, 330860, Note_on_c, 0, 81, 0
2, 330865, Control_c, 0, 64, 51
2, 330885, Control_c, 0, 64, 58
2, 330900, Control_c, 0, 64, 64
2, 330923, Control_c, 0, 64, 66
2, 330923, Note_on_c, 0, 47, 0
2, 330938, Control_c, 0, 64, 69
2, 330959, Control_c, 0, 64, 73
2, 330981, Control_c, 0, 64, 84
2, 330998, Control_c, 0, 64, 97
2, 331018, Control_c, 0, 64, 105
2, 331018, Note_on_c, 0, 78, 0
2, 331035, Control_c, 0, 64, 106
2, 331055, Control_c, 0, 64, 110
2, 331073, Control_c, 0, 64, 127
2, 331161, Note_on_c, 0, 78, 82
2, 331172, Control_c, 0, 67, 29
2, 331176, Note_on_c, 0, 62, 47
2, 331270, Note_on_c, 0, 74, 0
2, 331343, Control_c, 0, 64, 120
2, 331361, Control_c, 0, 64, 112
2, 331380, Control_c, 0, 64, 107
2, 331399, Control_c, 0, 64, 103
2, 331421, Control_c, 0, 64, 100
2, 331421, Control_c, 0, 67, 30
2, 331438, Control_c, 0, 64, 98
2, 331442, Note_on_c, 0, 62, 0
2, 331460, Control_c, 0, 64, 95
2, 331478, Control_c, 0, 64, 93
2, 331496, Control_c, 0, 64, 91
2, 331514, Control_c, 0, 64, 90
2, 331534, Control_c, 0, 64, 89
2, 331539, Note_on_c, 0, 78, 0
2, 331557, Control_c, 0, 64, 88
2, 331592, Control_c, 0, 64, 87
2, 331614, Control_c, 0, 64, 85
2, 331631, Control_c, 0, 64, 82
2, 331638, Note_on_c, 0, 78, 88
2, 331651, Control_c, 0, 64, 79
2, 331655, Note_on_c, 0, 62, 52
2, 331670, Control_c, 0, 64, 75
2, 331686, Note_on_c, 0, 71, 49
2, 331690, Control_c, 0, 64, 69
2, 331708, Control_c, 0, 64, 63
2, 331727, Control_c, 0, 64, 56
2, 331745, Control_c, 0, 64, 49
2, 331767, Control_c, 0, 64, 45
2, 331785, Control_c, 0, 64, 46
2, 331803, Control_c, 0, 64, 48
2, 331822, Control_c, 0, 64, 51
2, 331842, Control_c, 0, 64, 57
2, 331861, Control_c, 0, 64, 63
2, 331879, Control_c, 0, 64, 65
2, 331898, Control_c, 0, 64, 69
2, 331917, Control_c, 0, 64, 74
2, 331937, Control_c, 0, 64, 82
2, 331957, Control_c, 0, 64, 90
2, 331977, Control_c, 0, 64, 94
2, 331982, Note_on_c, 0, 62, 0
2, 332073, Control_c, 0, 64, 95
2, 332104, Note_on_c, 0, 62, 77
2, 332118, Note_on_c, 0, 59, 49
2, 332131, Control_c, 0, 64, 94
2, 332207, Control_c, 0, 64, 93
2, 332244, Control_c, 0, 64, 92
2, 332265, Control_c, 0, 64, 91
2, 332284, Control_c, 0, 64, 89
2, 332302, Control_c, 0, 64, 88
2, 332323, Control_c, 0, 64, 87
2, 332340, Control_c, 0, 64, 86
2, 332345, Control_c, 0, 67, 29
2, 332383, Note_on_c, 0, 62, 0
2, 332402, Control_c, 0, 64, 85
2, 332417, Note_on_c, 0, 59, 0
2, 332436, Note_on_c, 0, 71, 0
2, 332441, Control_c, 0, 64, 83
2, 332475, Control_c, 0, 64, 82
2, 332497, Control_c, 0, 64, 81
2, 332515, Control_c, 0, 64, 80
2, 332533, Control_c, 0, 64, 79
2, 332552, Note_on_c, 0, 59, 78
2, 332571, Control_c, 0, 64, 78
2, 332591, Control_c, 0, 64, 77
2, 332600, Note_on_c, 0, 56, 44
2, 332611, Control_c, 0, 64, 75
2, 332630, Control_c, 0, 64, 74
2, 332649, Control_c, 0, 64, 72
2, 332668, Control_c, 0, 64, 69
2, 332686, Control_c, 0, 64, 67
2, 332706, Control_c, 0, 64, 66
2, 332724, Control_c, 0, 64, 65
2, 332763, Control_c, 0, 64, 66
2, 332802, Control_c, 0, 64, 67
2, 332824, Control_c, 0, 67, 28
2, 332836, Note_on_c, 0, 59, 0
2, 332860, Control_c, 0, 64, 68
2, 332936, Control_c, 0, 64, 67
2, 332982, Note_on_c, 0, 71, 78
2, 332989, Note_on_c, 0, 59, 61
2, 333013, Control_c, 0, 67, 29
2, 333114, Note_on_c, 0, 78, 0
2, 333274, Note_on_c, 0, 59, 0
2, 333457, Note_on_c, 0, 76, 80
2, 333474, Note_on_c, 0, 52, 49
2, 333478, Note_on_c, 0, 59, 51
2, 333494, Control_c, 0, 64, 66
2, 333570, Control_c, 0, 64, 65
2, 333591, Control_c, 0, 67, 30
2, 333609, Control_c, 0, 64, 64
2, 333627, Control_c, 0, 64, 62
2, 333644, Control_c, 0, 64, 61
2, 333668, Control_c, 0, 64, 60
2, 333704, Note_on_c, 0, 71, 0
2, 333744, Control_c, 0, 64, 59
2, 333780, Control_c, 0, 64, 58
2, 333800, Control_c, 0, 64, 57
2, 333831, Note_on_c, 0, 56, 0
2, 333838, Control_c, 0, 64, 56
2, 333877, Control_c, 0, 64, 55
2, 333899, Control_c, 0, 64, 54
2, 333903, Note_on_c, 0, 74, 76
2, 333914, Control_c, 0, 64, 53
2, 333937, Control_c, 0, 64, 51
2, 333955, Control_c, 0, 64, 46
2, 333955, Control_c, 0, 67, 31
2, 333974, Control_c, 0, 64, 36
2, 333992, Control_c, 0, 64, 11
2, 333992, Control_c, 0, 67, 32
2, 334013, Control_c, 0, 64, 0
2, 334032, Control_c, 0, 67, 33
2, 334097, Note_on_c, 0, 76, 0
2, 334344, Note_on_c, 0, 55, 63
2, 334365, Note_on_c, 0, 73, 71
2, 334376, Control_c, 0, 67, 32
2, 334520, Note_on_c, 0, 74, 0
2, 334529, Control_c, 0, 67, 31
2, 334588, Control_c, 0, 67, 30
2, 334596, Note_on_c, 0, 52, 0
2, 334623, Note_on_c, 0, 59, 0
2, 334647, Control_c, 0, 67, 29
2, 334825, Note_on_c, 0, 52, 62
2, 334832, Note_on_c, 0, 71, 64
2, 335088, Control_c, 0, 67, 28
2, 335284, Note_on_c, 0, 57, 60
2, 335284, Note_on_c, 0, 69, 64
2, 335354, Note_on_c, 0, 55, 0
2, 335450, Note_on_c, 0, 71, 0
2, 335659, Note_on_c, 0, 52, 0
2, 335713, Note_on_c, 0, 55, 56
2, 335718, Note_on_c, 0, 49, 53
2, 335874, Note_on_c, 0, 57, 0
2, 335951, Control_c, 0, 67, 27
2, 336088, Note_on_c, 0, 73, 0
2, 336183, Note_on_c, 0, 72, 77
2, 336188, Note_on_c, 0, 54, 50
2, 336334, Note_on_c, 0, 69, 0
2, 336360, Note_on_c, 0, 55, 0
2, 336411, Control_c, 0, 67, 26
2, 336426, Note_on_c, 0, 49, 0
2, 336643, Note_on_c, 0, 52, 54
2, 336661, Note_on_c, 0, 67, 50
2, 336833, Note_on_c, 0, 54, 0
2, 336933, Control_c, 0, 67, 25
2, 337008, Control_c, 0, 67, 24
2, 337082, Control_c, 0, 67, 23
2, 337100, Note_on_c, 0, 50, 56
2, 337121, Note_on_c, 0, 66, 49
2, 337161, Control_c, 0, 67, 22
2, 337179, Note_on_c, 0, 67, 0
2, 337237, Control_c, 0, 67, 21
2, 337278, Note_on_c, 0, 52, 0
2, 337352, Control_c, 0, 67, 20
2, 337548, Note_on_c, 0, 57, 67
2, 337601, Note_on_c, 0, 64, 39
2, 337685, Note_on_c, 0, 66, 0
2, 337775, Note_on_c, 0, 50, 0
2, 337966, Control_c, 0, 67, 21
2, 338027, Note_on_c, 0, 62, 69
2, 338046, Note_on_c, 0, 66, 56
2, 338191, Note_on_c, 0, 64, 0
2, 338202, Note_on_c, 0, 72, 0
2, 338206, Note_on_c, 0, 57, 0
2, 338465, Note_on_c, 0, 69, 71
2, 338485, Note_on_c, 0, 60, 50
2, 338490, Control_c, 0, 67, 22
2, 338658, Note_on_c, 0, 62, 0
2, 338814, Note_on_c, 0, 66, 0
2, 338936, Note_on_c, 0, 74, 78
2, 338947, Note_on_c, 0, 59, 52
2, 339104, Note_on_c, 0, 69, 0
2, 339113, Note_on_c, 0, 60, 0
2, 339118, Control_c, 0, 64, 13
2, 339137, Control_c, 0, 64, 29
2, 339155, Control_c, 0, 64, 46
2, 339175, Control_c, 0, 64, 57
2, 339197, Control_c, 0, 64, 60
2, 339253, Control_c, 0, 67, 21
2, 339291, Control_c, 0, 64, 59
2, 339371, Control_c, 0, 64, 58
2, 339380, Note_on_c, 0, 72, 72
2, 339384, Note_on_c, 0, 50, 62
2, 339422, Note_on_c, 0, 57, 48
2, 339445, Control_c, 0, 64, 57
2, 339483, Control_c, 0, 64, 56
2, 339505, Control_c, 0, 64, 54
2, 339521, Control_c, 0, 64, 51
2, 339534, Note_on_c, 0, 74, 0
2, 339542, Control_c, 0, 64, 49
2, 339567, Note_on_c, 0, 59, 0
2, 339582, Control_c, 0, 64, 48
2, 339597, Control_c, 0, 64, 47
2, 339734, Control_c, 0, 64, 46
2, 339868, Note_on_c, 0, 55, 71
2, 339882, Note_on_c, 0, 71, 58
2, 339928, Control_c, 0, 64, 45
2, 339935, Note_on_c, 0, 72, 0
2, 340003, Control_c, 0, 64, 44
2, 340019, Control_c, 0, 67, 22
2, 340071, Note_on_c, 0, 57, 0
2, 340079, Control_c, 0, 64, 43
2, 340107, Note_on_c, 0, 50, 0
2, 340116, Control_c, 0, 64, 42
2, 340154, Control_c, 0, 64, 41
2, 340342, Note_on_c, 0, 62, 71
2, 340349, Note_on_c, 0, 54, 53
2, 340462, Control_c, 0, 67, 21
2, 340530, Note_on_c, 0, 55, 0
2, 340807, Note_on_c, 0, 67, 72
2, 340809, Note_on_c, 0, 52, 46
2, 340873, Control_c, 0, 64, 40
2, 340938, Note_on_c, 0, 62, 0
2, 341016, Note_on_c, 0, 54, 0
2, 341274, Note_on_c, 0, 50, 47
2, 341288, Note_on_c, 0, 66, 59
2, 341456, Note_on_c, 0, 52, 0
2, 341463, Note_on_c, 0, 67, 0
2, 341744, Note_on_c, 0, 64, 65
2, 341765, Note_on_c, 0, 49, 48
2, 341942, Note_on_c, 0, 50, 0
2, 342000, Note_on_c, 0, 66, 0
2, 342217, Note_on_c, 0, 52, 68
2, 342233, Note_on_c, 0, 62, 52
2, 342275, Control_c, 0, 64, 41
2, 342311, Control_c, 0, 67, 22
2, 342381, Note_on_c, 0, 64, 0
2, 342390, Control_c, 0, 64, 42
2, 342409, Control_c, 0, 64, 44
2, 342426, Control_c, 0, 64, 48
2, 342448, Control_c, 0, 64, 55
2, 342465, Control_c, 0, 64, 60
2, 342480, Note_on_c, 0, 71, 0
2, 342484, Control_c, 0, 64, 61
2, 342503, Control_c, 0, 67, 21
2, 342523, Control_c, 0, 64, 62
2, 342532, Note_on_c, 0, 49, 0
2, 342619, Control_c, 0, 64, 61
2, 342676, Control_c, 0, 64, 60
2, 342697, Control_c, 0, 64, 59
2, 342716, Control_c, 0, 64, 58
2, 342732, Control_c, 0, 64, 56
2, 342732, Note_on_c, 0, 69, 70
2, 342741, Note_on_c, 0, 57, 71
2, 342756, Control_c, 0, 64, 52
2, 342756, Control_c, 0, 67, 22
2, 342760, Note_on_c, 0, 61, 38
2, 342771, Control_c, 0, 64, 43
2, 342791, Control_c, 0, 64, 32
2, 342810, Control_c, 0, 64, 25
2, 342830, Control_c, 0, 64, 23
2, 342867, Note_on_c, 0, 52, 0
2, 342884, Note_on_c, 0, 62, 0
2, 342891, Control_c, 0, 64, 25
2, 342907, Control_c, 0, 64, 28
2, 342926, Control_c, 0, 64, 33
2, 342944, Control_c, 0, 64, 42
2, 342968, Control_c, 0, 64, 55
2, 342968, Control_c, 0, 67, 21
2, 342983, Control_c, 0, 64, 64
2, 343007, Control_c, 0, 64, 68
2, 343020, Control_c, 0, 64, 74
2, 343041, Control_c, 0, 64, 84
2, 343060, Control_c, 0, 64, 99
2, 343079, Control_c, 0, 64, 103
2, 343091, Note_on_c, 0, 57, 0
2, 343119, Control_c, 0, 64, 101
2, 343138, Control_c, 0, 64, 96
2, 343158, Control_c, 0, 64, 93
2, 343158, Control_c, 0, 67, 22
2, 343176, Control_c, 0, 64, 91
2, 343176, Control_c, 0, 67, 23
2, 343196, Control_c, 0, 64, 89
2, 343196, Control_c, 0, 67, 24
2, 343214, Control_c, 0, 64, 85
2, 343218, Control_c, 0, 67, 25
2, 343223, Note_on_c, 0, 55, 71
2, 343235, Control_c, 0, 64, 78
2, 343246, Note_on_c, 0, 45, 46
2, 343252, Control_c, 0, 64, 71
2, 343272, Control_c, 0, 64, 66
2, 343276, Control_c, 0, 67, 26
2, 343294, Control_c, 0, 64, 64
2, 343294, Control_c, 0, 67, 27
2, 343309, Control_c, 0, 67, 28
2, 343329, Control_c, 0, 67, 29
2, 343369, Control_c, 0, 67, 30
2, 343388, Control_c, 0, 64, 63
2, 343388, Control_c, 0, 67, 31
2, 343406, Control_c, 0, 67, 32
2, 343426, Control_c, 0, 64, 62
2, 343430, Control_c, 0, 67, 33
2, 343444, Control_c, 0, 64, 60
2, 343464, Control_c, 0, 67, 34
2, 343484, Control_c, 0, 64, 59
2, 343484, Control_c, 0, 67, 35
2, 343502, Control_c, 0, 67, 36
2, 343522, Control_c, 0, 64, 58
2, 343540, Control_c, 0, 64, 56
2, 343540, Control_c, 0, 67, 37
2, 343581, Control_c, 0, 64, 55
2, 343597, Control_c, 0, 67, 38
2, 343619, Control_c, 0, 64, 54
2, 343637, Control_c, 0, 64, 53
2, 343637, Control_c, 0, 67, 39
2, 343655, Control_c, 0, 64, 51
2, 343675, Control_c, 0, 64, 50
2, 343695, Control_c, 0, 64, 49
2, 343695, Control_c, 0, 67, 40
2, 343715, Control_c, 0, 64, 48
2, 343715, Control_c, 0, 67, 44
2, 343733, Control_c, 0, 64, 46
2, 343733, Control_c, 0, 67, 50
2, 343753, Control_c, 0, 64, 45
2, 343753, Control_c, 0, 67, 57
2, 343762, Note_on_c, 0, 54, 69
2, 343776, Control_c, 0, 64, 43
2, 343776, Control_c, 0, 67, 62
2, 343788, Note_on_c, 0, 50, 45
2, 343795, Control_c, 0, 64, 42
2, 343795, Control_c, 0, 67, 67
2, 343814, Control_c, 0, 64, 40
2, 343814, Control_c, 0, 67, 70
2, 343833, Control_c, 0, 64, 37
2, 343833, Control_c, 0, 67, 71
2, 343851, Control_c, 0, 64, 36
2, 343851, Control_c, 0, 67, 72
2, 343869, Control_c, 0, 64, 35
2, 343886, Control_c, 0, 64, 34
2, 343947, Control_c, 0, 64, 33
2, 343982, Control_c, 0, 67, 71
2, 344004, Control_c, 0, 64, 32
2, 344004, Note_on_c, 0, 45, 0
2, 344040, Control_c, 0, 67, 70
2, 344069, Note_on_c, 0, 55, 0
2, 344099, Control_c, 0, 67, 69
2, 344121, Control_c, 0, 67, 68
2, 344159, Control_c, 0, 67, 67
2, 344176, Control_c, 0, 67, 66
2, 344214, Control_c, 0, 67, 65
2, 344253, Control_c, 0, 67, 64
2, 344291, Control_c, 0, 67, 63
2, 344311, Control_c, 0, 64, 31
2, 344341, Note_on_c, 0, 57, 68
2, 344370, Control_c, 0, 67, 62
2, 344370, Note_on_c, 0, 48, 44
2, 344388, Control_c, 0, 64, 30
2, 344405, Control_c, 0, 64, 29
2, 344443, Control_c, 0, 64, 28
2, 344515, Note_on_c, 0, 50, 0
2, 344549, Note_on_c, 0, 61, 0
2, 344656, Control_c, 0, 67, 61
2, 344847, Note_on_c, 0, 62, 72
2, 344861, Note_on_c, 0, 47, 41
2, 344936, Note_on_c, 0, 48, 0
2, 345031, Note_on_c, 0, 57, 0
2, 345313, Note_on_c, 0, 60, 59
2, 345317, Note_on_c, 0, 45, 49
2, 345435, Note_on_c, 0, 62, 0
2, 345483, Note_on_c, 0, 47, 0
2, 345781, Note_on_c, 0, 43, 49
2, 345786, Note_on_c, 0, 59, 57
2, 345924, Note_on_c, 0, 45, 0
2, 345982, Note_on_c, 0, 60, 0
2, 346240, Note_on_c, 0, 47, 61
2, 346450, Note_on_c, 0, 54, 0
2, 346765, Note_on_c, 0, 67, 63
2, 346782, Note_on_c, 0, 52, 50
2, 346807, Control_c, 0, 67, 62
2, 346864, Note_on_c, 0, 69, 0
2, 346934, Note_on_c, 0, 59, 0
2, 346942, Note_on_c, 0, 47, 0
2, 346997, Control_c, 0, 67, 61
2, 347284, Note_on_c, 0, 50, 47
2, 347284, Note_on_c, 0, 59, 59
2, 347429, Note_on_c, 0, 52, 0
2, 347478, Control_c, 0, 64, 29
2, 347593, Control_c, 0, 64, 30
2, 347626, Note_on_c, 0, 43, 0
2, 347728, Control_c, 0, 67, 60
2, 347841, Note_on_c, 0, 64, 58
2, 347863, Note_on_c, 0, 45, 29
2, 347868, Note_on_c, 0, 49, 38
2, 347971, Control_c, 0, 67, 61
2, 347986, Note_on_c, 0, 67, 0
2, 348025, Note_on_c, 0, 50, 0
2, 348032, Note_on_c, 0, 59, 0
2, 348049, Control_c, 0, 64, 31
2, 348071, Control_c, 0, 64, 32
2, 348087, Control_c, 0, 64, 33
2, 348107, Control_c, 0, 64, 35
2, 348125, Control_c, 0, 64, 40
2, 348146, Control_c, 0, 64, 52
2, 348166, Control_c, 0, 64, 61
2, 348184, Control_c, 0, 64, 64
2, 348203, Control_c, 0, 64, 66
2, 348226, Control_c, 0, 64, 69
2, 348226, Control_c, 0, 67, 60
2, 348244, Control_c, 0, 64, 77
2, 348259, Control_c, 0, 64, 87
2, 348280, Control_c, 0, 64, 95
2, 348280, Note_on_c, 0, 64, 0
2, 348335, Control_c, 0, 64, 94
2, 348357, Control_c, 0, 64, 92
2, 348376, Control_c, 0, 64, 90
2, 348394, Control_c, 0, 64, 88
2, 348403, Note_on_c, 0, 64, 70
2, 348408, Note_on_c, 0, 50, 45
2, 348415, Control_c, 0, 64, 85
2, 348426, Note_on_c, 0, 62, 48
2, 348432, Control_c, 0, 64, 82
2, 348455, Control_c, 0, 64, 77
2, 348470, Control_c, 0, 64, 73
2, 348492, Control_c, 0, 64, 67
2, 348511, Control_c, 0, 64, 63
2, 348531, Control_c, 0, 64, 60
2, 348548, Control_c, 0, 64, 58
2, 348597, Note_on_c, 0, 49, 0
2, 348606, Control_c, 0, 64, 57
2, 348625, Control_c, 0, 64, 55
2, 348643, Control_c, 0, 64, 52
2, 348664, Control_c, 0, 64, 50
2, 348681, Control_c, 0, 64, 48
2, 348701, Control_c, 0, 64, 47
2, 348931, Note_on_c, 0, 52, 46
2, 348935, Note_on_c, 0, 69, 70
2, 348967, Note_on_c, 0, 61, 39
2, 349024, Note_on_c, 0, 64, 0
2, 349066, Control_c, 0, 64, 46
2, 349077, Note_on_c, 0, 50, 0
2, 349143, Control_c, 0, 64, 47
2, 349169, Note_on_c, 0, 62, 0
2, 349184, Control_c, 0, 64, 48
2, 349200, Control_c, 0, 64, 50
2, 349219, Control_c, 0, 64, 54
2, 349239, Control_c, 0, 64, 60
2, 349261, Control_c, 0, 64, 63
2, 349277, Control_c, 0, 64, 65
2, 349297, Control_c, 0, 64, 67
2, 349305, Note_on_c, 0, 69, 0
2, 349316, Control_c, 0, 64, 69
2, 349321, Control_c, 0, 67, 59
2, 349335, Control_c, 0, 64, 72
2, 349355, Control_c, 0, 64, 73
2, 349471, Control_c, 0, 64, 72
2, 349508, Control_c, 0, 64, 71
2, 349528, Control_c, 0, 64, 70
2, 349537, Note_on_c, 0, 67, 63
2, 349547, Control_c, 0, 64, 68
2, 349566, Note_on_c, 0, 64, 45
2, 349570, Control_c, 0, 64, 66
2, 349584, Control_c, 0, 64, 65
2, 349604, Control_c, 0, 64, 64
2, 349624, Control_c, 0, 64, 63
2, 349641, Control_c, 0, 64, 62
2, 349660, Control_c, 0, 64, 60
2, 349669, Note_on_c, 0, 61, 0
2, 349705, Control_c, 0, 64, 59
2, 349705, Control_c, 0, 67, 60
2, 349737, Control_c, 0, 64, 58
2, 349777, Control_c, 0, 64, 57
2, 349796, Control_c, 0, 64, 55
2, 349835, Control_c, 0, 64, 54
2, 349874, Control_c, 0, 64, 53
2, 349893, Control_c, 0, 64, 52
2, 349913, Control_c, 0, 64, 51
2, 349930, Control_c, 0, 64, 50
2, 349951, Control_c, 0, 64, 49
2, 349971, Control_c, 0, 67, 61
2, 350028, Control_c, 0, 64, 48
2, 350028, Control_c, 0, 67, 62
2, 350066, Control_c, 0, 67, 63
2, 350106, Control_c, 0, 67, 64
2, 350159, Control_c, 0, 67, 65
2, 350201, Control_c, 0, 64, 47
2, 350201, Control_c, 0, 67, 66
2, 350239, Control_c, 0, 64, 46
2, 350239, Control_c, 0, 67, 67
2, 350261, Note_on_c, 0, 66, 67
2, 350295, Control_c, 0, 67, 68
2, 350335, Control_c, 0, 67, 69
2, 350409, Control_c, 0, 67, 70
2, 350462, Note_on_c, 0, 67, 0
2, 350489, Control_c, 0, 67, 71
2, 350564, Control_c, 0, 67, 72
2, 350602, Control_c, 0, 64, 45
2, 350640, Control_c, 0, 67, 73
2, 350660, Control_c, 0, 64, 44
2, 350682, Control_c, 0, 64, 43
2, 350776, Control_c, 0, 67, 74
2, 350834, Control_c, 0, 67, 79
2, 350852, Control_c, 0, 67, 87
2, 350870, Control_c, 0, 67, 94
2, 350890, Control_c, 0, 67, 97
2, 350911, Control_c, 0, 67, 100
2, 350929, Control_c, 0, 67, 103
2, 350949, Control_c, 0, 67, 104
2, 350969, Control_c, 0, 67, 105
2, 351003, Note_on_c, 0, 50, 40
2, 351009, Note_on_c, 0, 62, 45
2, 351025, Control_c, 0, 67, 106
2, 351105, Note_on_c, 0, 64, 0
2, 351121, Control_c, 0, 67, 107
2, 351142, Control_c, 0, 67, 109
2, 351160, Control_c, 0, 67, 114
2, 351178, Control_c, 0, 67, 120
2, 351197, Control_c, 0, 67, 125
2, 351210, Note_on_c, 0, 52, 0
2, 351221, Control_c, 0, 67, 127
2, 351744, Note_on_c, 0, 64, 54
2, 351757, Note_on_c, 0, 57, 43
2, 351989, Note_on_c, 0, 66, 0
2, 352045, Note_on_c, 0, 50, 0
2, 352677, Note_on_c, 0, 61, 42
2, 352683, Note_on_c, 0, 55, 37
2, 352833, Note_on_c, 0, 57, 0
2, 352843, Note_on_c, 0, 62, 0
2, 352889, Control_c, 0, 64, 44
2, 352926, Control_c, 0, 64, 46
2, 352946, Control_c, 0, 64, 47
2, 352964, Control_c, 0, 64, 51
2, 352982, Control_c, 0, 64, 57
2, 353004, Control_c, 0, 64, 60
2, 353004, Control_c, 0, 67, 126
2, 353022, Control_c, 0, 64, 62
2, 353040, Control_c, 0, 64, 64
2, 353059, Control_c, 0, 64, 66
2, 353079, Control_c, 0, 64, 70
2, 353083, Control_c, 0, 67, 125
2, 353098, Control_c, 0, 64, 75
2, 353118, Control_c, 0, 64, 81
2, 353139, Control_c, 0, 64, 90
2, 353155, Control_c, 0, 64, 106
2, 353174, Control_c, 0, 64, 127
2, 353184, Note_on_c, 0, 64, 0
2, 353273, Note_on_c, 0, 45, 0
2, 353306, Note_on_c, 0, 55, 0
2, 353369, Note_on_c, 0, 61, 0
2, 353389, Control_c, 0, 67, 124
2, 354318, Note_on_c, 0, 62, 41
2, 354323, Control_c, 0, 64, 118
2, 354327, Note_on_c, 0, 50, 38
2, 354327, Note_on_c, 0, 54, 24
2, 354327, Note_on_c, 0, 57, 42
2, 354331, Note_on_c, 0, 38, 32
2, 354338, Control_c, 0, 64, 107
2, 354356, Control_c, 0, 64, 101
2, 354369, Control_c, 0, 64, 94
2, 354389, Control_c, 0, 64, 86
2, 354408, Control_c, 0, 64, 77
2, 354427, Control_c, 0, 64, 70
2, 354448, Control_c, 0, 64, 66
2, 354467, Control_c, 0, 64, 64
2, 354527, Control_c, 0, 64, 63
2, 354557, Control_c, 0, 64, 62
2, 354577, Control_c, 0, 64, 61
2, 354616, Control_c, 0, 64, 60
2, 354634, Control_c, 0, 64, 59
2, 354671, Control_c, 0, 64, 58
2, 354690, Control_c, 0, 64, 57
2, 354709, Control_c, 0, 64, 56
2, 354726, Control_c, 0, 64, 54
2, 354746, Control_c, 0, 64, 52
2, 354804, Control_c, 0, 64, 51
2, 354837, Control_c, 0, 64, 50
2, 354856, Control_c, 0, 64, 49
2, 354875, Control_c, 0, 64, 47
2, 354894, Control_c, 0, 64, 45
2, 354914, Control_c, 0, 64, 44
2, 354932, Control_c, 0, 64, 43
2, 354952, Control_c, 0, 64, 42
2, 355279, Control_c, 0, 64, 43
2, 355355, Control_c, 0, 64, 44
2, 355432, Control_c, 0, 64, 45
2, 355489, Control_c, 0, 64, 46
2, 355527, Control_c, 0, 64, 47
2, 355584, Control_c, 0, 64, 48
2, 355605, Control_c, 0, 64, 49
2, 355625, Control_c, 0, 64, 51
2, 355644, Control_c, 0, 64, 53
2, 355757, Control_c, 0, 64, 54
2, 355795, Control_c, 0, 64, 55
2, 355817, Control_c, 0, 64, 56
2, 355950, Control_c, 0, 64, 57
2, 355971, Control_c, 0, 64, 58
2, 355971, Control_c, 0, 67, 123
2, 355990, Control_c, 0, 64, 59
2, 356026, Control_c, 0, 64, 60
2, 356046, Control_c, 0, 64, 61
2, 356083, Control_c, 0, 64, 62
2, 356123, Control_c, 0, 64, 63
2, 356160, Control_c, 0, 64, 64
2, 356180, Control_c, 0, 64, 65
2, 356200, Control_c, 0, 64, 66
2, 356220, Control_c, 0, 64, 67
2, 356237, Control_c, 0, 64, 68
2, 356258, Control_c, 0, 64, 69
2, 356277, Control_c, 0, 64, 71
2, 356296, Control_c, 0, 64, 72
2, 356314, Control_c, 0, 64, 74
2, 356355, Control_c, 0, 64, 75
2, 356450, Control_c, 0, 64, 76
2, 356488, Control_c, 0, 64, 77
2, 356508, Control_c, 0, 64, 79
2, 356526, Control_c, 0, 64, 82
2, 356545, Control_c, 0, 64, 85
2, 356564, Control_c, 0, 64, 87
2, 356584, Control_c, 0, 64, 89
2, 356602, Control_c, 0, 64, 90
2, 356622, Control_c, 0, 64, 92
2, 356644, Control_c, 0, 64, 94
2, 356661, Control_c, 0, 64, 96
2, 356681, Control_c, 0, 64, 97
2, 356699, Control_c, 0, 64, 99
2, 356721, Control_c, 0, 64, 101
2, 356736, Control_c, 0, 64, 102
2, 356758, Control_c, 0, 67, 122
2, 356777, Control_c, 0, 64, 103
2, 356855, Control_c, 0, 64, 104
2, 356890, Control_c, 0, 64, 106
2, 356912, Control_c, 0, 64, 109
2, 356932, Control_c, 0, 64, 113
2, 356948, Control_c, 0, 64, 115
2, 356968, Control_c, 0, 64, 116
2, 357082, Control_c, 0, 64, 115
2, 357121, Control_c, 0, 64, 113
2, 357294, Control_c, 0, 64, 112
2, 357313, Control_c, 0, 64, 111
2, 357333, Control_c, 0, 64, 110
2, 357353, Control_c, 0, 64, 109
2, 357371, Control_c, 0, 64, 107
2, 357391, Control_c, 0, 64, 106
2, 357409, Control_c, 0, 64, 104
2, 357428, Control_c, 0, 64, 103
2, 357448, Control_c, 0, 64, 101
2, 357469, Control_c, 0, 64, 100
2, 357525, Control_c, 0, 64, 99
2, 357562, Control_c, 0, 64, 98
2, 357757, Control_c, 0, 64, 97
2, 357757, Note_on_c, 0, 62, 0
2, 357812, Control_c, 0, 67, 121
2, 357890, Control_c, 0, 64, 96
2, 357926, Control_c, 0, 64, 95
2, 357946, Control_c, 0, 64, 94
2, 357968, Control_c, 0, 64, 93
2, 357986, Control_c, 0, 64, 92
2, 358007, Control_c, 0, 64, 91
2, 358028, Control_c, 0, 64, 90
2, 358028, Note_on_c, 0, 50, 0
2, 358030, Note_on_c, 0, 54, 0
2, 358044, Control_c, 0, 64, 89
2, 358061, Control_c, 0, 64, 87
2, 358083, Control_c, 0, 64, 85
2, 358100, Control_c, 0, 64, 83
2, 358120, Control_c, 0, 64, 81
2, 358138, Control_c, 0, 64, 80
2, 358159, Control_c, 0, 64, 79
2, 358174, Note_on_c, 0, 57, 0
2, 358199, Control_c, 0, 64, 78
2, 358236, Control_c, 0, 64, 76
2, 358254, Control_c, 0, 64, 75
2, 358265, Note_on_c, 0, 38, 0
2, 358274, Control_c, 0, 64, 74
2, 358292, Control_c, 0, 64, 73
2, 358349, Control_c, 0, 64, 72
2, 358369, Control_c, 0, 64, 71
2, 358409, Control_c, 0, 64, 70
2, 358426, Control_c, 0, 64, 69
2, 358465, Control_c, 0, 64, 68
2, 358523, Control_c, 0, 64, 67
2, 358562, Control_c, 0, 64, 66
2, 358580, Control_c, 0, 64, 65
2, 358637, Control_c, 0, 64, 64
2, 358677, Control_c, 0, 64, 63
2, 358714, Control_c, 0, 64, 62
2, 358754, Control_c, 0, 64, 61
2, 358772, Control_c, 0, 64, 60
2, 358811, Control_c, 0, 64, 59
2, 358849, Control_c, 0, 64, 58
2, 358868, Control_c, 0, 64, 57
2, 358926, Control_c, 0, 64, 56
2, 358948, Control_c, 0, 64, 55
2, 359023, Control_c, 0, 64, 54
2, 359061, Control_c, 0, 64, 53
2, 359118, Control_c, 0, 64, 52
2, 359388, Control_c, 0, 64, 51
2, 359389, End_track
0, 0, End_of_file
