0, 0, Header, 1, 2, 384
1, 0, Start_track
1, 0, Tempo, 500000
1, 0, Time_signature, 4, 2, 24, 8
1, 1, End_track
2, 0, Start_track
2, 0, Title_t," ""7.6.13 Group 2"""
2, 0, Program_c, 0, 0
2, 0, Control_c, 0, 64, 0
2, 768, Note_on_c, 0, 50, 75
2, 772, Note_on_c, 0, 38, 69
2, 942, Note_on_c, 0, 62, 71
2, 996, Note_on_c, 0, 62, 0
2, 1013, Note_on_c, 0, 64, 74
2, 1084, Note_on_c, 0, 64, 0
2, 1088, Note_on_c, 0, 66, 75
2, 1154, Note_on_c, 0, 66, 0
2, 1175, Note_on_c, 0, 67, 77
2, 1233, Note_on_c, 0, 50, 0
2, 1246, Note_on_c, 0, 67, 0
2, 1253, Note_on_c, 0, 69, 75
2, 1257, Note_on_c, 0, 38, 0
2, 1289, Note_on_c, 0, 69, 0
2, 1415, Note_on_c, 0, 66, 74
2, 1455, Note_on_c, 0, 66, 0
2, 1560, Note_on_c, 0, 69, 73
2, 1604, Note_on_c, 0, 69, 0
2, 1708, Note_on_c, 0, 74, 80
2, 1763, Note_on_c, 0, 74, 0
2, 1861, Note_on_c, 0, 69, 75
2, 1920, Note_on_c, 0, 69, 0
2, 2009, Note_on_c, 0, 74, 84
2, 2071, Note_on_c, 0, 74, 0
2, 2166, Note_on_c, 0, 78, 87
2, 2228, Note_on_c, 0, 78, 0
2, 2319, Note_on_c, 0, 74, 81
2, 2371, Note_on_c, 0, 74, 0
2, 2469, Note_on_c, 0, 78, 89
2, 2528, Note_on_c, 0, 78, 0
2, 2639, Note_on_c, 0, 81, 85
2, 2801, Control_c, 0, 64, 40
2, 2816, Control_c, 0, 64, 62
2, 2832, Control_c, 0, 64, 69
2, 2847, Control_c, 0, 64, 79
2, 2863, Control_c, 0, 64, 94
2, 2866, Note_on_c, 0, 81, 0
2, 2878, Control_c, 0, 64, 127
2, 3195, Note_on_c, 0, 62, 58
2, 3196, Note_on_c, 0, 81, 84
2, 3204, Note_on_c, 0, 78, 70
2, 3211, Control_c, 0, 64, 98
2, 3226, Control_c, 0, 64, 73
2, 3241, Control_c, 0, 64, 59
2, 3256, Control_c, 0, 64, 0
2, 3302, Control_c, 0, 64, 46
2, 3317, Control_c, 0, 64, 62
2, 3332, Control_c, 0, 64, 72
2, 3348, Control_c, 0, 64, 95
2, 3362, Control_c, 0, 64, 127
2, 3385, Note_on_c, 0, 62, 0
2, 3400, Note_on_c, 0, 81, 0
2, 3454, Note_on_c, 0, 78, 0
2, 3728, Note_on_c, 0, 81, 83
2, 3730, Note_on_c, 0, 78, 72
2, 3733, Note_on_c, 0, 69, 61
2, 3751, Control_c, 0, 64, 85
2, 3766, Control_c, 0, 64, 67
2, 3782, Control_c, 0, 64, 50
2, 3796, Control_c, 0, 64, 0
2, 3970, Note_on_c, 0, 78, 0
2, 3988, Note_on_c, 0, 79, 69
2, 3993, Note_on_c, 0, 76, 58
2, 3994, Note_on_c, 0, 81, 0
2, 4122, Note_on_c, 0, 76, 0
2, 4128, Note_on_c, 0, 79, 0
2, 4213, Note_on_c, 0, 69, 0
2, 4238, Note_on_c, 0, 57, 53
2, 4246, Note_on_c, 0, 79, 82
2, 4250, Note_on_c, 0, 76, 70
2, 4502, Note_on_c, 0, 74, 58
2, 4506, Note_on_c, 0, 78, 76
2, 4512, Note_on_c, 0, 76, 0
2, 4512, Note_on_c, 0, 79, 0
2, 4643, Note_on_c, 0, 74, 0
2, 4643, Note_on_c, 0, 78, 0
2, 4736, Note_on_c, 0, 57, 0
2, 4748, Control_c, 0, 64, 54
2, 4758, Note_on_c, 0, 78, 74
2, 4763, Control_c, 0, 64, 67
2, 4764, Note_on_c, 0, 74, 66
2, 4767, Note_on_c, 0, 62, 64
2, 4778, Control_c, 0, 64, 80
2, 4793, Control_c, 0, 64, 127
2, 4843, Note_on_c, 0, 62, 0
2, 4901, Note_on_c, 0, 74, 0
2, 4904, Note_on_c, 0, 78, 0
2, 4936, Note_on_c, 0, 50, 61
2, 4968, Control_c, 0, 64, 95
2, 4984, Control_c, 0, 64, 72
2, 4998, Control_c, 0, 64, 56
2, 4998, Note_on_c, 0, 50, 0
2, 5013, Control_c, 0, 64, 0
2, 5017, Note_on_c, 0, 52, 53
2, 5057, Note_on_c, 0, 52, 0
2, 5071, Note_on_c, 0, 54, 71
2, 5098, Note_on_c, 0, 54, 0
2, 5162, Note_on_c, 0, 55, 67
2, 5202, Note_on_c, 0, 55, 0
2, 5241, Note_on_c, 0, 57, 69
2, 5272, Note_on_c, 0, 57, 0
2, 5399, Note_on_c, 0, 54, 73
2, 5449, Note_on_c, 0, 54, 0
2, 5545, Note_on_c, 0, 57, 78
2, 5575, Note_on_c, 0, 57, 0
2, 5691, Note_on_c, 0, 62, 72
2, 5750, Note_on_c, 0, 62, 0
2, 5854, Note_on_c, 0, 57, 73
2, 5899, Note_on_c, 0, 57, 0
2, 5994, Note_on_c, 0, 62, 76
2, 6055, Note_on_c, 0, 62, 0
2, 6148, Note_on_c, 0, 66, 82
2, 6208, Note_on_c, 0, 66, 0
2, 6302, Note_on_c, 0, 62, 85
2, 6360, Note_on_c, 0, 62, 0
2, 6458, Note_on_c, 0, 66, 85
2, 6533, Note_on_c, 0, 66, 0
2, 6637, Note_on_c, 0, 69, 80
2, 6715, Control_c, 0, 64, 20
2, 6730, Control_c, 0, 64, 52
2, 6746, Control_c, 0, 64, 60
2, 6761, Control_c, 0, 64, 68
2, 6776, Control_c, 0, 64, 82
2, 6792, Control_c, 0, 64, 127
2, 6840, Note_on_c, 0, 69, 0
2, 7201, Note_on_c, 0, 50, 59
2, 7201, Note_on_c, 0, 78, 81
2, 7207, Note_on_c, 0, 69, 64
2, 7217, Control_c, 0, 64, 103
2, 7233, Control_c, 0, 64, 77
2, 7247, Control_c, 0, 64, 61
2, 7263, Control_c, 0, 64, 0
2, 7347, Control_c, 0, 64, 51
2, 7362, Control_c, 0, 64, 65
2, 7376, Control_c, 0, 64, 76
2, 7392, Control_c, 0, 64, 104
2, 7406, Note_on_c, 0, 69, 0
2, 7407, Control_c, 0, 64, 127
2, 7417, Note_on_c, 0, 78, 0
2, 7467, Note_on_c, 0, 50, 0
2, 7753, Note_on_c, 0, 78, 83
2, 7766, Note_on_c, 0, 69, 67
2, 7775, Note_on_c, 0, 57, 59
2, 7803, Control_c, 0, 64, 87
2, 7818, Control_c, 0, 64, 71
2, 7834, Control_c, 0, 64, 61
2, 7849, Control_c, 0, 64, 26
2, 7865, Control_c, 0, 64, 0
2, 8000, Note_on_c, 0, 69, 0
2, 8008, Note_on_c, 0, 78, 0
2, 8014, Note_on_c, 0, 76, 70
2, 8024, Note_on_c, 0, 67, 53
2, 8139, Note_on_c, 0, 76, 0
2, 8181, Note_on_c, 0, 67, 0
2, 8234, Note_on_c, 0, 57, 0
2, 8274, Note_on_c, 0, 45, 54
2, 8279, Note_on_c, 0, 76, 76
2, 8283, Note_on_c, 0, 67, 65
2, 8515, Note_on_c, 0, 67, 0
2, 8536, Note_on_c, 0, 76, 0
2, 8545, Note_on_c, 0, 74, 63
2, 8551, Note_on_c, 0, 66, 53
2, 8651, Note_on_c, 0, 74, 0
2, 8681, Note_on_c, 0, 66, 0
2, 8825, Note_on_c, 0, 66, 61
2, 8827, Note_on_c, 0, 74, 67
2, 8835, Note_on_c, 0, 45, 0
2, 8835, Note_on_c, 0, 50, 48
2, 8838, Control_c, 0, 64, 40
2, 8853, Control_c, 0, 64, 60
2, 8868, Control_c, 0, 64, 69
2, 8882, Note_on_c, 0, 74, 0
2, 8883, Control_c, 0, 64, 87
2, 8898, Control_c, 0, 64, 127
2, 8930, Note_on_c, 0, 66, 0
2, 8983, Note_on_c, 0, 50, 0
2, 9016, Note_on_c, 0, 66, 64
2, 9019, Control_c, 0, 64, 89
2, 9035, Control_c, 0, 64, 70
2, 9050, Control_c, 0, 64, 51
2, 9066, Control_c, 0, 64, 0
2, 9073, Note_on_c, 0, 66, 0
2, 9088, Note_on_c, 0, 64, 64
2, 9127, Note_on_c, 0, 64, 0
2, 9157, Note_on_c, 0, 62, 64
2, 9163, Note_on_c, 0, 38, 52
2, 9208, Note_on_c, 0, 38, 0
2, 9209, Note_on_c, 0, 62, 0
2, 9235, Note_on_c, 0, 61, 62
2, 9284, Note_on_c, 0, 61, 0
2, 9314, Note_on_c, 0, 50, 51
2, 9314, Note_on_c, 0, 59, 61
2, 9364, Note_on_c, 0, 59, 0
2, 9483, Note_on_c, 0, 62, 65
2, 9484, Note_on_c, 0, 50, 0
2, 9522, Note_on_c, 0, 62, 0
2, 9663, Note_on_c, 0, 59, 52
2, 9667, Note_on_c, 0, 50, 48
2, 9707, Note_on_c, 0, 59, 0
2, 9714, Note_on_c, 0, 50, 0
2, 9803, Control_c, 0, 64, 43
2, 9818, Control_c, 0, 64, 58
2, 9823, Note_on_c, 0, 50, 55
2, 9825, Note_on_c, 0, 56, 59
2, 9833, Control_c, 0, 64, 67
2, 9848, Control_c, 0, 64, 84
2, 9864, Control_c, 0, 64, 127
2, 9879, Note_on_c, 0, 56, 0
2, 9995, Note_on_c, 0, 64, 65
2, 10031, Control_c, 0, 64, 87
2, 10047, Control_c, 0, 64, 71
2, 10050, Note_on_c, 0, 64, 0
2, 10063, Control_c, 0, 64, 61
2, 10067, Note_on_c, 0, 66, 69
2, 10078, Control_c, 0, 64, 28
2, 10092, Control_c, 0, 64, 0
2, 10142, Note_on_c, 0, 68, 74
2, 10151, Note_on_c, 0, 66, 0
2, 10199, Note_on_c, 0, 50, 0
2, 10209, Note_on_c, 0, 68, 0
2, 10219, Note_on_c, 0, 69, 80
2, 10291, Note_on_c, 0, 69, 0
2, 10301, Note_on_c, 0, 71, 88
2, 10352, Note_on_c, 0, 71, 0
2, 10481, Note_on_c, 0, 52, 66
2, 10481, Note_on_c, 0, 68, 76
2, 10532, Note_on_c, 0, 52, 0
2, 10543, Note_on_c, 0, 68, 0
2, 10559, Note_on_c, 0, 50, 63
2, 10607, Note_on_c, 0, 50, 0
2, 10618, Note_on_c, 0, 49, 67
2, 10638, Note_on_c, 0, 71, 76
2, 10669, Note_on_c, 0, 49, 0
2, 10673, Note_on_c, 0, 71, 0
2, 10692, Note_on_c, 0, 47, 65
2, 10753, Control_c, 0, 64, 17
2, 10766, Note_on_c, 0, 47, 0
2, 10768, Control_c, 0, 64, 58
2, 10779, Note_on_c, 0, 49, 73
2, 10784, Control_c, 0, 64, 66
2, 10797, Note_on_c, 0, 76, 75
2, 10799, Control_c, 0, 64, 73
2, 10814, Control_c, 0, 64, 88
2, 10829, Control_c, 0, 64, 127
2, 10843, Note_on_c, 0, 76, 0
2, 10949, Note_on_c, 0, 49, 0
2, 10952, Control_c, 0, 64, 113
2, 10967, Control_c, 0, 64, 79
2, 10982, Control_c, 0, 64, 64
2, 10987, Note_on_c, 0, 64, 67
2, 10997, Control_c, 0, 64, 10
2, 11012, Control_c, 0, 64, 0
2, 11064, Note_on_c, 0, 64, 0
2, 11072, Note_on_c, 0, 62, 61
2, 11130, Note_on_c, 0, 62, 0
2, 11141, Note_on_c, 0, 61, 67
2, 11146, Note_on_c, 0, 37, 62
2, 11195, Note_on_c, 0, 37, 0
2, 11210, Note_on_c, 0, 61, 0
2, 11221, Note_on_c, 0, 59, 66
2, 11259, Note_on_c, 0, 59, 0
2, 11297, Note_on_c, 0, 49, 52
2, 11301, Note_on_c, 0, 57, 63
2, 11352, Note_on_c, 0, 57, 0
2, 11473, Note_on_c, 0, 49, 0
2, 11474, Note_on_c, 0, 61, 66
2, 11527, Note_on_c, 0, 61, 0
2, 11640, Note_on_c, 0, 57, 61
2, 11649, Note_on_c, 0, 49, 46
2, 11680, Note_on_c, 0, 57, 0
2, 11689, Note_on_c, 0, 49, 0
2, 11781, Control_c, 0, 64, 37
2, 11796, Control_c, 0, 64, 56
2, 11805, Note_on_c, 0, 49, 41
2, 11807, Note_on_c, 0, 54, 61
2, 11811, Control_c, 0, 64, 63
2, 11827, Control_c, 0, 64, 73
2, 11842, Control_c, 0, 64, 102
2, 11852, Note_on_c, 0, 54, 0
2, 11857, Control_c, 0, 64, 127
2, 12018, Note_on_c, 0, 62, 64
2, 12032, Control_c, 0, 64, 97
2, 12047, Control_c, 0, 64, 74
2, 12054, Note_on_c, 0, 62, 0
2, 12062, Control_c, 0, 64, 62
2, 12077, Control_c, 0, 64, 0
2, 12083, Note_on_c, 0, 64, 65
2, 12147, Note_on_c, 0, 64, 0
2, 12163, Note_on_c, 0, 66, 67
2, 12224, Note_on_c, 0, 66, 0
2, 12230, Note_on_c, 0, 68, 74
2, 12236, Note_on_c, 0, 49, 0
2, 12307, Note_on_c, 0, 68, 0
2, 12316, Note_on_c, 0, 69, 79
2, 12366, Note_on_c, 0, 69, 0
2, 12487, Note_on_c, 0, 50, 59
2, 12491, Note_on_c, 0, 66, 79
2, 12533, Note_on_c, 0, 50, 0
2, 12548, Note_on_c, 0, 66, 0
2, 12562, Note_on_c, 0, 49, 60
2, 12615, Note_on_c, 0, 49, 0
2, 12635, Note_on_c, 0, 47, 62
2, 12661, Note_on_c, 0, 69, 79
2, 12690, Note_on_c, 0, 47, 0
2, 12703, Note_on_c, 0, 69, 0
2, 12725, Note_on_c, 0, 45, 57
2, 12800, Note_on_c, 0, 45, 0
2, 12811, Note_on_c, 0, 47, 66
2, 12817, Note_on_c, 0, 74, 78
2, 12846, Note_on_c, 0, 47, 0
2, 12858, Control_c, 0, 64, 55
2, 12874, Control_c, 0, 64, 66
2, 12888, Control_c, 0, 64, 72
2, 12903, Control_c, 0, 64, 82
2, 12919, Control_c, 0, 64, 92
2, 12934, Control_c, 0, 64, 103
2, 12950, Control_c, 0, 64, 111
2, 12996, Control_c, 0, 64, 108
2, 13002, Note_on_c, 0, 54, 78
2, 13010, Control_c, 0, 64, 98
2, 13025, Control_c, 0, 64, 86
2, 13041, Control_c, 0, 64, 74
2, 13051, Note_on_c, 0, 54, 0
2, 13056, Control_c, 0, 64, 64
2, 13069, Note_on_c, 0, 74, 0
2, 13072, Control_c, 0, 64, 43
2, 13077, Note_on_c, 0, 52, 74
2, 13086, Control_c, 0, 64, 0
2, 13157, Note_on_c, 0, 66, 75
2, 13158, Note_on_c, 0, 52, 0
2, 13162, Note_on_c, 0, 50, 69
2, 13211, Note_on_c, 0, 66, 0
2, 13218, Note_on_c, 0, 50, 0
2, 13228, Note_on_c, 0, 49, 74
2, 13298, Note_on_c, 0, 49, 0
2, 13314, Note_on_c, 0, 47, 79
2, 13321, Note_on_c, 0, 74, 78
2, 13326, Note_on_c, 0, 66, 71
2, 13362, Note_on_c, 0, 47, 0
2, 13509, Note_on_c, 0, 50, 70
2, 13516, Note_on_c, 0, 74, 0
2, 13524, Note_on_c, 0, 66, 0
2, 13540, Note_on_c, 0, 50, 0
2, 13672, Note_on_c, 0, 47, 60
2, 13677, Note_on_c, 0, 74, 67
2, 13681, Note_on_c, 0, 66, 53
2, 13701, Note_on_c, 0, 47, 0
2, 13721, Note_on_c, 0, 66, 0
2, 13726, Note_on_c, 0, 74, 0
2, 13839, Note_on_c, 0, 44, 71
2, 13843, Note_on_c, 0, 74, 71
2, 13855, Note_on_c, 0, 64, 60
2, 13872, Note_on_c, 0, 44, 0
2, 14006, Note_on_c, 0, 47, 56
2, 14043, Note_on_c, 0, 47, 0
2, 14171, Note_on_c, 0, 44, 50
2, 14215, Note_on_c, 0, 44, 0
2, 14367, Note_on_c, 0, 40, 42
2, 14370, Note_on_c, 0, 64, 0
2, 14390, Note_on_c, 0, 74, 0
2, 14396, Note_on_c, 0, 40, 0
2, 14528, Note_on_c, 0, 44, 49
2, 14540, Note_on_c, 0, 76, 57
2, 14575, Note_on_c, 0, 44, 0
2, 14605, Note_on_c, 0, 76, 0
2, 14629, Note_on_c, 0, 74, 53
2, 14681, Note_on_c, 0, 74, 0
2, 14684, Note_on_c, 0, 40, 33
2, 14699, Note_on_c, 0, 73, 62
2, 14733, Note_on_c, 0, 40, 0
2, 14759, Note_on_c, 0, 73, 0
2, 14782, Note_on_c, 0, 71, 60
2, 14847, Note_on_c, 0, 71, 0
2, 14869, Note_on_c, 0, 45, 49
2, 14871, Note_on_c, 0, 73, 68
2, 14906, Note_on_c, 0, 45, 0
2, 14920, Note_on_c, 0, 73, 0
2, 15039, Note_on_c, 0, 69, 55
2, 15043, Note_on_c, 0, 49, 51
2, 15081, Note_on_c, 0, 49, 0
2, 15090, Note_on_c, 0, 69, 0
2, 15115, Note_on_c, 0, 71, 65
2, 15194, Note_on_c, 0, 71, 0
2, 15198, Note_on_c, 0, 73, 69
2, 15202, Note_on_c, 0, 45, 51
2, 15248, Note_on_c, 0, 45, 0
2, 15265, Note_on_c, 0, 73, 0
2, 15273, Note_on_c, 0, 74, 70
2, 15356, Note_on_c, 0, 42, 60
2, 15356, Note_on_c, 0, 74, 0
2, 15360, Note_on_c, 0, 76, 75
2, 15401, Note_on_c, 0, 42, 0
2, 15435, Note_on_c, 0, 76, 0
2, 15521, Note_on_c, 0, 45, 60
2, 15536, Note_on_c, 0, 74, 71
2, 15570, Note_on_c, 0, 45, 0
2, 15610, Note_on_c, 0, 74, 0
2, 15615, Note_on_c, 0, 73, 76
2, 15684, Note_on_c, 0, 42, 53
2, 15689, Note_on_c, 0, 71, 76
2, 15697, Note_on_c, 0, 73, 0
2, 15737, Note_on_c, 0, 42, 0
2, 15759, Note_on_c, 0, 71, 0
2, 15771, Note_on_c, 0, 69, 74
2, 15851, Note_on_c, 0, 69, 0
2, 15854, Note_on_c, 0, 47, 61
2, 15855, Note_on_c, 0, 74, 78
2, 15900, Note_on_c, 0, 47, 0
2, 15937, Note_on_c, 0, 74, 0
2, 16019, Note_on_c, 0, 50, 70
2, 16024, Note_on_c, 0, 71, 78
2, 16055, Note_on_c, 0, 50, 0
2, 16089, Note_on_c, 0, 71, 0
2, 16095, Note_on_c, 0, 73, 77
2, 16163, Note_on_c, 0, 47, 61
2, 16168, Note_on_c, 0, 74, 79
2, 16187, Note_on_c, 0, 73, 0
2, 16200, Note_on_c, 0, 47, 0
2, 16248, Note_on_c, 0, 76, 78
2, 16252, Note_on_c, 0, 74, 0
2, 16321, Note_on_c, 0, 44, 70
2, 16330, Note_on_c, 0, 78, 84
2, 16334, Note_on_c, 0, 76, 0
2, 16365, Note_on_c, 0, 44, 0
2, 16404, Note_on_c, 0, 78, 0
2, 16509, Note_on_c, 0, 47, 58
2, 16513, Note_on_c, 0, 76, 70
2, 16540, Note_on_c, 0, 47, 0
2, 16581, Note_on_c, 0, 76, 0
2, 16584, Note_on_c, 0, 74, 74
2, 16659, Note_on_c, 0, 74, 0
2, 16661, Note_on_c, 0, 44, 63
2, 16661, Note_on_c, 0, 73, 78
2, 16689, Note_on_c, 0, 44, 0
2, 16713, Control_c, 0, 64, 43
2, 16719, Note_on_c, 0, 73, 0
2, 16728, Control_c, 0, 64, 60
2, 16739, Note_on_c, 0, 71, 72
2, 16743, Control_c, 0, 64, 67
2, 16759, Control_c, 0, 64, 78
2, 16773, Control_c, 0, 64, 103
2, 16789, Control_c, 0, 64, 127
2, 16822, Note_on_c, 0, 49, 66
2, 16823, Note_on_c, 0, 71, 0
2, 16829, Note_on_c, 0, 76, 77
2, 16862, Note_on_c, 0, 49, 0
2, 16910, Control_c, 0, 64, 94
2, 16925, Control_c, 0, 64, 70
2, 16940, Control_c, 0, 64, 50
2, 16956, Control_c, 0, 64, 0
2, 17001, Note_on_c, 0, 57, 58
2, 17058, Note_on_c, 0, 57, 0
2, 17077, Note_on_c, 0, 59, 58
2, 17127, Note_on_c, 0, 59, 0
2, 17151, Note_on_c, 0, 61, 66
2, 17198, Note_on_c, 0, 61, 0
2, 17235, Note_on_c, 0, 62, 74
2, 17305, Note_on_c, 0, 62, 0
2, 17328, Note_on_c, 0, 64, 81
2, 17360, Note_on_c, 0, 64, 0
2, 17497, Note_on_c, 0, 62, 71
2, 17547, Note_on_c, 0, 62, 0
2, 17569, Note_on_c, 0, 61, 74
2, 17610, Note_on_c, 0, 61, 0
2, 17651, Note_on_c, 0, 59, 75
2, 17714, Note_on_c, 0, 59, 0
2, 17728, Note_on_c, 0, 57, 72
2, 17797, Note_on_c, 0, 57, 0
2, 17809, Note_on_c, 0, 50, 74
2, 17822, Note_on_c, 0, 66, 80
2, 17845, Control_c, 0, 64, 31
2, 17847, Note_on_c, 0, 50, 0
2, 17860, Control_c, 0, 64, 55
2, 17875, Control_c, 0, 64, 64
2, 17890, Control_c, 0, 64, 68
2, 17905, Control_c, 0, 64, 73
2, 17921, Control_c, 0, 64, 76
2, 17936, Control_c, 0, 64, 77
2, 17967, Control_c, 0, 64, 76
2, 17970, Note_on_c, 0, 59, 76
2, 17981, Control_c, 0, 64, 74
2, 17997, Control_c, 0, 64, 70
2, 18012, Control_c, 0, 64, 64
2, 18035, Control_c, 0, 64, 50
2, 18043, Note_on_c, 0, 59, 0
2, 18050, Control_c, 0, 64, 0
2, 18064, Note_on_c, 0, 61, 75
2, 18128, Note_on_c, 0, 61, 0
2, 18141, Note_on_c, 0, 62, 78
2, 18200, Note_on_c, 0, 62, 0
2, 18208, Note_on_c, 0, 66, 0
2, 18215, Note_on_c, 0, 64, 82
2, 18274, Note_on_c, 0, 76, 0
2, 18301, Note_on_c, 0, 64, 0
2, 18302, Note_on_c, 0, 66, 87
2, 18310, Note_on_c, 0, 74, 82
2, 18343, Note_on_c, 0, 66, 0
2, 18476, Note_on_c, 0, 64, 81
2, 18540, Note_on_c, 0, 64, 0
2, 18551, Note_on_c, 0, 62, 73
2, 18608, Note_on_c, 0, 62, 0
2, 18621, Note_on_c, 0, 61, 79
2, 18670, Note_on_c, 0, 61, 0
2, 18698, Note_on_c, 0, 59, 73
2, 18756, Note_on_c, 0, 59, 0
2, 18801, Note_on_c, 0, 52, 71
2, 18803, Note_on_c, 0, 68, 70
2, 18807, Note_on_c, 0, 74, 0
2, 18819, Control_c, 0, 64, 47
2, 18835, Control_c, 0, 64, 64
2, 18849, Control_c, 0, 64, 77
2, 18864, Control_c, 0, 64, 127
2, 18902, Note_on_c, 0, 52, 0
2, 18925, Note_on_c, 0, 68, 0
2, 18978, Note_on_c, 0, 64, 71
2, 19032, Control_c, 0, 64, 84
2, 19043, Note_on_c, 0, 64, 0
2, 19048, Control_c, 0, 64, 68
2, 19055, Note_on_c, 0, 66, 77
2, 19063, Control_c, 0, 64, 53
2, 19079, Control_c, 0, 64, 0
2, 19125, Note_on_c, 0, 66, 0
2, 19131, Note_on_c, 0, 68, 77
2, 19146, Note_on_c, 0, 40, 61
2, 19190, Note_on_c, 0, 40, 0
2, 19196, Note_on_c, 0, 68, 0
2, 19214, Note_on_c, 0, 69, 74
2, 19289, Note_on_c, 0, 71, 80
2, 19291, Note_on_c, 0, 69, 0
2, 19297, Note_on_c, 0, 40, 70
2, 19298, Note_on_c, 0, 74, 74
2, 19358, Note_on_c, 0, 71, 0
2, 19469, Note_on_c, 0, 68, 83
2, 19493, Note_on_c, 0, 40, 0
2, 19533, Note_on_c, 0, 68, 0
2, 19585, Note_on_c, 0, 74, 0
2, 19641, Note_on_c, 0, 40, 70
2, 19644, Note_on_c, 0, 71, 85
2, 19706, Note_on_c, 0, 40, 0
2, 19716, Note_on_c, 0, 71, 0
2, 19798, Note_on_c, 0, 74, 78
2, 19808, Note_on_c, 0, 80, 84
2, 19816, Note_on_c, 0, 40, 73
2, 19895, Note_on_c, 0, 74, 0
2, 19981, Note_on_c, 0, 71, 87
2, 20040, Note_on_c, 0, 71, 0
2, 20105, Note_on_c, 0, 80, 0
2, 20138, Note_on_c, 0, 74, 85
2, 20199, Note_on_c, 0, 74, 0
2, 20299, Note_on_c, 0, 80, 79
2, 20299, Note_on_c, 0, 83, 85
2, 20339, Note_on_c, 0, 40, 0
2, 20414, Note_on_c, 0, 80, 0
2, 20478, Note_on_c, 0, 74, 85
2, 20531, Note_on_c, 0, 74, 0
2, 20556, Note_on_c, 0, 47, 70
2, 20624, Note_on_c, 0, 83, 0
2, 20627, Note_on_c, 0, 47, 0
2, 20635, Note_on_c, 0, 80, 77
2, 20639, Note_on_c, 0, 49, 73
2, 20682, Note_on_c, 0, 80, 0
2, 20703, Note_on_c, 0, 49, 0
2, 20709, Note_on_c, 0, 50, 82
2, 20787, Note_on_c, 0, 52, 86
2, 20789, Note_on_c, 0, 50, 0
2, 20800, Note_on_c, 0, 73, 91
2, 20872, Control_c, 0, 64, 59
2, 20887, Control_c, 0, 64, 75
2, 20901, Note_on_c, 0, 73, 0
2, 20902, Control_c, 0, 64, 118
2, 20917, Control_c, 0, 64, 127
2, 20947, Note_on_c, 0, 52, 0
2, 20964, Note_on_c, 0, 81, 83
2, 21039, Control_c, 0, 64, 108
2, 21042, Note_on_c, 0, 80, 81
2, 21054, Control_c, 0, 64, 78
2, 21063, Note_on_c, 0, 81, 0
2, 21070, Control_c, 0, 64, 64
2, 21092, Control_c, 0, 64, 0
2, 21134, Note_on_c, 0, 78, 75
2, 21142, Note_on_c, 0, 80, 0
2, 21145, Note_on_c, 0, 40, 63
2, 21189, Note_on_c, 0, 40, 0
2, 21201, Note_on_c, 0, 78, 0
2, 21202, Note_on_c, 0, 76, 75
2, 21227, Note_on_c, 0, 76, 0
2, 21294, Note_on_c, 0, 40, 67
2, 21304, Note_on_c, 0, 75, 85
2, 21312, Note_on_c, 0, 69, 71
2, 21389, Note_on_c, 0, 69, 0
2, 21409, Note_on_c, 0, 75, 0
2, 21425, Note_on_c, 0, 69, 5
2, 21475, Note_on_c, 0, 78, 84
2, 21479, Note_on_c, 0, 40, 0
2, 21541, Note_on_c, 0, 78, 0
2, 21557, Note_on_c, 0, 69, 0
2, 21644, Note_on_c, 0, 75, 83
2, 21645, Note_on_c, 0, 40, 51
2, 21698, Note_on_c, 0, 40, 0
2, 21717, Note_on_c, 0, 75, 0
2, 21807, Note_on_c, 0, 69, 71
2, 21808, Note_on_c, 0, 40, 58
2, 21813, Note_on_c, 0, 66, 61
2, 21873, Note_on_c, 0, 69, 0
2, 21981, Note_on_c, 0, 75, 69
2, 22055, Note_on_c, 0, 75, 0
2, 22144, Note_on_c, 0, 66, 0
2, 22150, Note_on_c, 0, 69, 66
2, 22192, Note_on_c, 0, 69, 0
2, 22319, Note_on_c, 0, 66, 61
2, 22324, Note_on_c, 0, 63, 50
2, 22367, Note_on_c, 0, 66, 0
2, 22434, Note_on_c, 0, 40, 0
2, 22483, Note_on_c, 0, 69, 69
2, 22557, Note_on_c, 0, 69, 0
2, 22662, Note_on_c, 0, 66, 59
2, 22684, Note_on_c, 0, 63, 0
2, 22703, Note_on_c, 0, 66, 0
2, 22838, Note_on_c, 0, 68, 60
2, 22862, Note_on_c, 0, 64, 44
2, 22984, Note_on_c, 0, 68, 0
2, 23018, Note_on_c, 0, 64, 0
2, 23018, Note_on_c, 0, 66, 63
2, 23057, Note_on_c, 0, 66, 0
2, 23165, Note_on_c, 0, 52, 63
2, 23171, Note_on_c, 0, 64, 58
2, 23177, Note_on_c, 0, 62, 52
2, 23193, Note_on_c, 0, 52, 0
2, 23213, Note_on_c, 0, 62, 0
2, 23214, Note_on_c, 0, 64, 0
2, 23342, Note_on_c, 0, 54, 73
2, 23345, Note_on_c, 0, 69, 82
2, 23359, Note_on_c, 0, 61, 65
2, 23410, Control_c, 0, 64, 40
2, 23425, Control_c, 0, 64, 64
2, 23441, Control_c, 0, 64, 77
2, 23455, Control_c, 0, 64, 127
2, 23471, Note_on_c, 0, 69, 0
2, 23473, Note_on_c, 0, 54, 0
2, 23484, Note_on_c, 0, 61, 0
2, 23518, Note_on_c, 0, 52, 73
2, 23532, Control_c, 0, 64, 96
2, 23546, Note_on_c, 0, 52, 0
2, 23547, Control_c, 0, 64, 70
2, 23563, Control_c, 0, 64, 48
2, 23577, Control_c, 0, 64, 0
2, 23688, Note_on_c, 0, 74, 82
2, 23696, Note_on_c, 0, 50, 61
2, 23706, Note_on_c, 0, 69, 63
2, 23733, Note_on_c, 0, 50, 0
2, 23739, Note_on_c, 0, 69, 0
2, 23752, Note_on_c, 0, 74, 0
2, 23895, Note_on_c, 0, 73, 88
2, 23898, Note_on_c, 0, 52, 60
2, 23898, Note_on_c, 0, 69, 74
2, 23926, Control_c, 0, 64, 52
2, 23941, Control_c, 0, 64, 69
2, 23958, Control_c, 0, 64, 95
2, 23973, Control_c, 0, 64, 127
2, 24040, Note_on_c, 0, 69, 0
2, 24052, Note_on_c, 0, 73, 0
2, 24433, Note_on_c, 0, 73, 78
2, 24437, Control_c, 0, 64, 105
2, 24452, Control_c, 0, 64, 72
2, 24452, Note_on_c, 0, 40, 67
2, 24459, Note_on_c, 0, 68, 62
2, 24467, Control_c, 0, 64, 46
2, 24469, Note_on_c, 0, 73, 0
2, 24479, Note_on_c, 0, 71, 73
2, 24483, Control_c, 0, 64, 0
2, 24517, Note_on_c, 0, 71, 0
2, 24538, Note_on_c, 0, 73, 75
2, 24540, Note_on_c, 0, 68, 0
2, 24565, Note_on_c, 0, 73, 0
2, 24571, Note_on_c, 0, 71, 73
2, 24613, Note_on_c, 0, 69, 81
2, 24614, Note_on_c, 0, 68, 39
2, 24620, Note_on_c, 0, 71, 0
2, 24624, Note_on_c, 0, 40, 0
2, 24669, Note_on_c, 0, 69, 0
2, 24779, Note_on_c, 0, 68, 0
2, 24796, Note_on_c, 0, 52, 0
2, 24815, Note_on_c, 0, 71, 87
2, 24867, Note_on_c, 0, 71, 0
2, 25029, Note_on_c, 0, 45, 75
2, 25047, Note_on_c, 0, 69, 78
2, 25066, Control_c, 0, 64, 62
2, 25082, Control_c, 0, 64, 84
2, 25097, Control_c, 0, 64, 127
2, 25100, Note_on_c, 0, 69, 0
2, 25182, Note_on_c, 0, 45, 0
2, 25234, Control_c, 0, 64, 83
2, 25250, Control_c, 0, 64, 63
2, 25254, Note_on_c, 0, 73, 69
2, 25264, Control_c, 0, 64, 0
2, 25290, Note_on_c, 0, 73, 0
2, 25330, Note_on_c, 0, 71, 71
2, 25363, Note_on_c, 0, 71, 0
2, 25400, Note_on_c, 0, 52, 54
2, 25402, Note_on_c, 0, 69, 57
2, 25427, Note_on_c, 0, 52, 0
2, 25452, Note_on_c, 0, 69, 0
2, 25473, Note_on_c, 0, 68, 58
2, 25512, Note_on_c, 0, 68, 0
2, 25539, Note_on_c, 0, 66, 66
2, 25549, Note_on_c, 0, 57, 52
2, 25569, Note_on_c, 0, 66, 0
2, 25586, Note_on_c, 0, 57, 0
2, 25594, Note_on_c, 0, 56, 64
2, 25632, Note_on_c, 0, 56, 0
2, 25650, Note_on_c, 0, 57, 60
2, 25742, Note_on_c, 0, 69, 65
2, 25784, Note_on_c, 0, 69, 0
2, 25826, Note_on_c, 0, 68, 56
2, 25862, Note_on_c, 0, 68, 0
2, 25898, Note_on_c, 0, 66, 63
2, 25942, Note_on_c, 0, 66, 0
2, 25971, Note_on_c, 0, 64, 62
2, 26036, Note_on_c, 0, 64, 0
2, 26053, Note_on_c, 0, 63, 70
2, 26081, Note_on_c, 0, 63, 0
2, 26200, Note_on_c, 0, 57, 0
2, 26217, Note_on_c, 0, 66, 71
2, 26221, Note_on_c, 0, 59, 57
2, 26253, Note_on_c, 0, 66, 0
2, 26261, Note_on_c, 0, 59, 0
2, 26300, Note_on_c, 0, 57, 67
2, 26359, Note_on_c, 0, 57, 0
2, 26380, Note_on_c, 0, 56, 64
2, 26396, Note_on_c, 0, 71, 75
2, 26436, Note_on_c, 0, 56, 0
2, 26451, Note_on_c, 0, 54, 67
2, 26451, Note_on_c, 0, 71, 0
2, 26523, Note_on_c, 0, 54, 0
2, 26558, Note_on_c, 0, 53, 68
2, 26567, Note_on_c, 0, 71, 83
2, 26582, Note_on_c, 0, 53, 0
2, 26742, Note_on_c, 0, 54, 68
2, 26750, Note_on_c, 0, 68, 66
2, 26787, Note_on_c, 0, 54, 0
2, 26799, Note_on_c, 0, 68, 0
2, 26817, Note_on_c, 0, 53, 60
2, 26880, Note_on_c, 0, 53, 0
2, 26900, Note_on_c, 0, 51, 58
2, 26913, Note_on_c, 0, 65, 64
2, 26952, Note_on_c, 0, 51, 0
2, 26957, Note_on_c, 0, 65, 0
2, 26967, Note_on_c, 0, 49, 66
2, 27021, Note_on_c, 0, 71, 0
2, 27030, Control_c, 0, 64, 54
2, 27038, Note_on_c, 0, 49, 0
2, 27045, Control_c, 0, 64, 67
2, 27060, Control_c, 0, 64, 88
2, 27069, Note_on_c, 0, 54, 87
2, 27076, Control_c, 0, 64, 127
2, 27088, Note_on_c, 0, 61, 77
2, 27125, Note_on_c, 0, 54, 0
2, 27141, Note_on_c, 0, 61, 0
2, 27252, Control_c, 0, 64, 95
2, 27263, Note_on_c, 0, 69, 79
2, 27266, Control_c, 0, 64, 70
2, 27282, Control_c, 0, 64, 48
2, 27297, Control_c, 0, 64, 0
2, 27332, Note_on_c, 0, 69, 0
2, 27344, Note_on_c, 0, 68, 72
2, 27416, Note_on_c, 0, 68, 0
2, 27419, Note_on_c, 0, 66, 74
2, 27429, Note_on_c, 0, 42, 68
2, 27459, Note_on_c, 0, 42, 0
2, 27467, Note_on_c, 0, 66, 0
2, 27496, Note_on_c, 0, 64, 75
2, 27558, Note_on_c, 0, 54, 63
2, 27564, Note_on_c, 0, 64, 0
2, 27573, Note_on_c, 0, 62, 70
2, 27604, Note_on_c, 0, 54, 0
2, 27612, Note_on_c, 0, 62, 0
2, 27620, Note_on_c, 0, 52, 56
2, 27664, Note_on_c, 0, 52, 0
2, 27674, Note_on_c, 0, 54, 75
2, 27745, Note_on_c, 0, 66, 76
2, 27804, Note_on_c, 0, 66, 0
2, 27818, Note_on_c, 0, 64, 76
2, 27876, Note_on_c, 0, 64, 0
2, 27901, Note_on_c, 0, 62, 75
2, 27970, Note_on_c, 0, 62, 0
2, 27973, Note_on_c, 0, 61, 77
2, 28040, Note_on_c, 0, 54, 0
2, 28040, Note_on_c, 0, 54, 4
2, 28047, Note_on_c, 0, 61, 0
2, 28058, Note_on_c, 0, 59, 81
2, 28087, Note_on_c, 0, 59, 0
2, 28212, Note_on_c, 0, 54, 0
2, 28231, Note_on_c, 0, 55, 60
2, 28234, Note_on_c, 0, 62, 76
2, 28266, Note_on_c, 0, 62, 0
2, 28288, Note_on_c, 0, 55, 0
2, 28314, Note_on_c, 0, 54, 65
2, 28356, Note_on_c, 0, 54, 0
2, 28389, Note_on_c, 0, 67, 81
2, 28391, Note_on_c, 0, 52, 66
2, 28438, Note_on_c, 0, 52, 0
2, 28441, Note_on_c, 0, 67, 0
2, 28475, Note_on_c, 0, 50, 66
2, 28526, Note_on_c, 0, 50, 0
2, 28546, Note_on_c, 0, 49, 76
2, 28554, Note_on_c, 0, 67, 89
2, 28579, Note_on_c, 0, 49, 0
2, 28731, Note_on_c, 0, 64, 76
2, 28740, Note_on_c, 0, 50, 55
2, 28795, Note_on_c, 0, 50, 0
2, 28803, Note_on_c, 0, 64, 0
2, 28823, Note_on_c, 0, 49, 60
2, 28865, Note_on_c, 0, 49, 0
2, 28881, Note_on_c, 0, 61, 77
2, 28892, Note_on_c, 0, 47, 61
2, 28936, Note_on_c, 0, 61, 0
2, 28940, Note_on_c, 0, 47, 0
2, 28970, Note_on_c, 0, 45, 71
2, 29049, Note_on_c, 0, 45, 0
2, 29055, Note_on_c, 0, 50, 79
2, 29062, Note_on_c, 0, 57, 79
2, 29089, Note_on_c, 0, 67, 0
2, 29092, Control_c, 0, 64, 37
2, 29107, Control_c, 0, 64, 57
2, 29107, Note_on_c, 0, 57, 0
2, 29123, Control_c, 0, 64, 64
2, 29137, Control_c, 0, 64, 84
2, 29153, Control_c, 0, 64, 127
2, 29208, Note_on_c, 0, 50, 0
2, 29237, Note_on_c, 0, 66, 83
2, 29275, Control_c, 0, 64, 81
2, 29289, Control_c, 0, 64, 64
2, 29300, Note_on_c, 0, 66, 0
2, 29304, Control_c, 0, 64, 0
2, 29319, Note_on_c, 0, 64, 82
2, 29380, Note_on_c, 0, 64, 0
2, 29401, Note_on_c, 0, 62, 83
2, 29403, Note_on_c, 0, 38, 66
2, 29445, Note_on_c, 0, 38, 0
2, 29475, Note_on_c, 0, 62, 0
2, 29477, Note_on_c, 0, 61, 81
2, 29549, Note_on_c, 0, 50, 60
2, 29551, Note_on_c, 0, 61, 0
2, 29560, Note_on_c, 0, 59, 77
2, 29594, Note_on_c, 0, 50, 0
2, 29595, Note_on_c, 0, 59, 0
2, 29599, Note_on_c, 0, 49, 72
2, 29642, Note_on_c, 0, 49, 0
2, 29664, Note_on_c, 0, 50, 72
2, 29735, Note_on_c, 0, 62, 81
2, 29795, Note_on_c, 0, 62, 0
2, 29808, Note_on_c, 0, 61, 75
2, 29876, Note_on_c, 0, 61, 0
2, 29888, Note_on_c, 0, 59, 71
2, 29938, Note_on_c, 0, 59, 0
2, 29963, Note_on_c, 0, 57, 74
2, 30043, Note_on_c, 0, 57, 0
2, 30050, Note_on_c, 0, 56, 77
2, 30101, Note_on_c, 0, 56, 0
2, 30193, Note_on_c, 0, 50, 0
2, 30215, Note_on_c, 0, 52, 61
2, 30232, Note_on_c, 0, 59, 69
2, 30251, Note_on_c, 0, 52, 0
2, 30276, Note_on_c, 0, 59, 0
2, 30292, Note_on_c, 0, 50, 67
2, 30358, Note_on_c, 0, 50, 0
2, 30371, Note_on_c, 0, 49, 66
2, 30387, Note_on_c, 0, 64, 83
2, 30417, Note_on_c, 0, 49, 0
2, 30435, Note_on_c, 0, 64, 0
2, 30451, Note_on_c, 0, 47, 64
2, 30524, Note_on_c, 0, 47, 0
2, 30539, Note_on_c, 0, 45, 75
2, 30555, Note_on_c, 0, 61, 85
2, 30580, Note_on_c, 0, 45, 0
2, 30633, Note_on_c, 0, 61, 0
2, 30721, Note_on_c, 0, 47, 61
2, 30723, Note_on_c, 0, 64, 86
2, 30774, Note_on_c, 0, 47, 0
2, 30779, Note_on_c, 0, 64, 0
2, 30793, Note_on_c, 0, 49, 70
2, 30847, Note_on_c, 0, 49, 0
2, 30877, Note_on_c, 0, 50, 69
2, 30884, Note_on_c, 0, 69, 81
2, 30947, Note_on_c, 0, 52, 63
2, 30950, Note_on_c, 0, 69, 0
2, 30987, Note_on_c, 0, 50, 0
2, 31016, Note_on_c, 0, 52, 0
2, 31026, Note_on_c, 0, 54, 78
2, 31046, Note_on_c, 0, 54, 0
2, 31058, Note_on_c, 0, 62, 84
2, 31067, Note_on_c, 0, 53, 43
2, 31107, Note_on_c, 0, 53, 0
2, 31230, Note_on_c, 0, 52, 73
2, 31267, Note_on_c, 0, 52, 0
2, 31287, Note_on_c, 0, 62, 0
2, 31391, Note_on_c, 0, 50, 76
2, 31398, Note_on_c, 0, 62, 73
2, 31401, Note_on_c, 0, 71, 84
2, 31426, Note_on_c, 0, 50, 0
2, 31443, Note_on_c, 0, 62, 0
2, 31572, Note_on_c, 0, 52, 77
2, 31577, Note_on_c, 0, 64, 82
2, 31578, Note_on_c, 0, 71, 0
2, 31580, Note_on_c, 0, 61, 81
2, 31758, Note_on_c, 0, 69, 81
2, 31760, Control_c, 0, 64, 38
2, 31761, Note_on_c, 0, 64, 0
2, 31766, Note_on_c, 0, 61, 0
2, 31775, Control_c, 0, 64, 65
2, 31791, Control_c, 0, 64, 74
2, 31806, Control_c, 0, 64, 93
2, 31820, Control_c, 0, 64, 127
2, 31835, Note_on_c, 0, 69, 0
2, 31865, Note_on_c, 0, 52, 0
2, 31920, Control_c, 0, 64, 100
2, 31935, Control_c, 0, 64, 75
2, 31935, Note_on_c, 0, 68, 82
2, 31941, Note_on_c, 0, 40, 64
2, 31941, Note_on_c, 0, 59, 64
2, 31950, Control_c, 0, 64, 58
2, 31965, Control_c, 0, 64, 0
2, 31984, Note_on_c, 0, 59, 0
2, 31990, Note_on_c, 0, 40, 0
2, 32000, Note_on_c, 0, 68, 0
2, 32099, Note_on_c, 0, 69, 83
2, 32101, Note_on_c, 0, 45, 77
2, 32106, Note_on_c, 0, 61, 75
2, 32137, Note_on_c, 0, 45, 0
2, 32281, Note_on_c, 0, 49, 82
2, 32336, Note_on_c, 0, 49, 0
2, 32455, Note_on_c, 0, 52, 74
2, 32489, Note_on_c, 0, 52, 0
2, 32685, Note_on_c, 0, 57, 81
2, 32764, Control_c, 0, 64, 58
2, 32779, Control_c, 0, 64, 69
2, 32795, Control_c, 0, 64, 80
2, 32810, Control_c, 0, 64, 127
2, 32888, Note_on_c, 0, 57, 0
2, 32942, Note_on_c, 0, 61, 0
2, 32964, Note_on_c, 0, 69, 0
2, 33233, Note_on_c, 0, 45, 78
2, 33236, Control_c, 0, 64, 82
2, 33236, Note_on_c, 0, 57, 85
2, 33251, Control_c, 0, 64, 65
2, 33266, Control_c, 0, 64, 25
2, 33282, Control_c, 0, 64, 0
2, 33410, Note_on_c, 0, 76, 84
2, 33486, Note_on_c, 0, 74, 79
2, 33514, Note_on_c, 0, 76, 0
2, 33562, Note_on_c, 0, 73, 85
2, 33583, Note_on_c, 0, 74, 0
2, 33604, Note_on_c, 0, 57, 0
2, 33642, Note_on_c, 0, 71, 84
2, 33678, Note_on_c, 0, 73, 0
2, 33718, Note_on_c, 0, 71, 0
2, 33727, Note_on_c, 0, 69, 81
2, 33753, Note_on_c, 0, 45, 0
2, 33786, Note_on_c, 0, 69, 0
2, 33898, Note_on_c, 0, 73, 83
2, 33980, Note_on_c, 0, 73, 0
2, 34073, Note_on_c, 0, 69, 72
2, 34124, Note_on_c, 0, 69, 0
2, 34240, Note_on_c, 0, 64, 71
2, 34302, Note_on_c, 0, 64, 0
2, 34399, Note_on_c, 0, 69, 73
2, 34466, Note_on_c, 0, 69, 0
2, 34571, Note_on_c, 0, 64, 68
2, 34617, Note_on_c, 0, 64, 0
2, 34744, Note_on_c, 0, 61, 66
2, 34821, Note_on_c, 0, 61, 0
2, 34904, Note_on_c, 0, 64, 69
2, 34953, Note_on_c, 0, 64, 0
2, 35090, Note_on_c, 0, 61, 68
2, 35140, Note_on_c, 0, 61, 0
2, 35264, Note_on_c, 0, 57, 51
2, 35325, Control_c, 0, 64, 42
2, 35340, Control_c, 0, 64, 57
2, 35357, Control_c, 0, 64, 63
2, 35371, Control_c, 0, 64, 64
2, 35417, Control_c, 0, 64, 63
2, 35433, Control_c, 0, 64, 60
2, 35435, Note_on_c, 0, 57, 0
2, 35448, Control_c, 0, 64, 56
2, 35460, Note_on_c, 0, 69, 57
2, 35463, Control_c, 0, 64, 49
2, 35479, Control_c, 0, 64, 42
2, 35494, Control_c, 0, 64, 36
2, 35497, Note_on_c, 0, 69, 0
2, 35510, Control_c, 0, 64, 28
2, 35525, Control_c, 0, 64, 0
2, 35529, Note_on_c, 0, 71, 62
2, 35599, Note_on_c, 0, 71, 0
2, 35608, Note_on_c, 0, 73, 72
2, 35667, Note_on_c, 0, 73, 0
2, 35693, Note_on_c, 0, 74, 73
2, 35768, Note_on_c, 0, 74, 0
2, 35781, Note_on_c, 0, 76, 72
2, 35787, Note_on_c, 0, 69, 69
2, 35792, Note_on_c, 0, 57, 44
2, 35801, Note_on_c, 0, 61, 42
2, 35837, Note_on_c, 0, 76, 0
2, 35956, Note_on_c, 0, 73, 77
2, 35989, Note_on_c, 0, 69, 0
2, 36013, Note_on_c, 0, 73, 0
2, 36020, Note_on_c, 0, 57, 0
2, 36042, Note_on_c, 0, 61, 0
2, 36121, Note_on_c, 0, 76, 76
2, 36173, Note_on_c, 0, 76, 0
2, 36293, Note_on_c, 0, 81, 77
2, 36304, Note_on_c, 0, 69, 65
2, 36314, Note_on_c, 0, 61, 47
2, 36318, Note_on_c, 0, 57, 27
2, 36323, Control_c, 0, 64, 40
2, 36338, Control_c, 0, 64, 50
2, 36354, Control_c, 0, 64, 57
2, 36360, Note_on_c, 0, 81, 0
2, 36369, Control_c, 0, 64, 64
2, 36383, Control_c, 0, 64, 70
2, 36390, Note_on_c, 0, 76, 63
2, 36395, Note_on_c, 0, 61, 0
2, 36399, Control_c, 0, 64, 75
2, 36400, Note_on_c, 0, 69, 0
2, 36414, Control_c, 0, 64, 78
2, 36430, Control_c, 0, 64, 81
2, 36445, Control_c, 0, 64, 83
2, 36463, Note_on_c, 0, 76, 0
2, 36466, Control_c, 0, 64, 83
2, 36478, Note_on_c, 0, 78, 70
2, 36556, Note_on_c, 0, 78, 0
2, 36570, Note_on_c, 0, 71, 73
2, 36573, Control_c, 0, 64, 82
2, 36573, Note_on_c, 0, 62, 58
2, 36573, Note_on_c, 0, 80, 73
2, 36589, Control_c, 0, 64, 78
2, 36604, Control_c, 0, 64, 71
2, 36619, Control_c, 0, 64, 63
2, 36635, Control_c, 0, 64, 42
2, 36650, Control_c, 0, 64, 34
2, 36654, Note_on_c, 0, 80, 0
2, 36664, Control_c, 0, 64, 44
2, 36664, Note_on_c, 0, 81, 75
2, 36671, Note_on_c, 0, 62, 0
2, 36680, Control_c, 0, 64, 54
2, 36695, Control_c, 0, 64, 59
2, 36711, Control_c, 0, 64, 63
2, 36726, Control_c, 0, 64, 67
2, 36727, Note_on_c, 0, 71, 0
2, 36740, Control_c, 0, 64, 72
2, 36744, Note_on_c, 0, 81, 0
2, 36752, Note_on_c, 0, 80, 81
2, 36756, Control_c, 0, 64, 75
2, 36786, Control_c, 0, 64, 74
2, 36802, Control_c, 0, 64, 67
2, 36816, Control_c, 0, 64, 55
2, 36816, Note_on_c, 0, 80, 0
2, 36832, Control_c, 0, 64, 0
2, 36837, Note_on_c, 0, 81, 84
2, 36843, Note_on_c, 0, 71, 83
2, 36850, Note_on_c, 0, 62, 61
2, 36861, Control_c, 0, 64, 19
2, 36877, Control_c, 0, 64, 53
2, 36889, Note_on_c, 0, 57, 0
2, 36890, Note_on_c, 0, 62, 0
2, 36892, Control_c, 0, 64, 65
2, 36907, Control_c, 0, 64, 74
2, 36916, Note_on_c, 0, 81, 0
2, 36923, Control_c, 0, 64, 90
2, 36931, Note_on_c, 0, 76, 71
2, 36937, Control_c, 0, 64, 104
2, 36941, Note_on_c, 0, 71, 0
2, 36953, Control_c, 0, 64, 113
2, 36968, Control_c, 0, 64, 114
2, 36983, Control_c, 0, 64, 115
2, 37005, Note_on_c, 0, 76, 0
2, 37005, Note_on_c, 0, 78, 73
2, 37059, Control_c, 0, 64, 114
2, 37076, Control_c, 0, 64, 110
2, 37090, Control_c, 0, 64, 93
2, 37095, Note_on_c, 0, 80, 77
2, 37105, Control_c, 0, 64, 77
2, 37109, Note_on_c, 0, 64, 71
2, 37109, Note_on_c, 0, 73, 87
2, 37121, Control_c, 0, 64, 64
2, 37128, Note_on_c, 0, 78, 0
2, 37136, Control_c, 0, 64, 41
2, 37152, Control_c, 0, 64, 0
2, 37167, Note_on_c, 0, 73, 0
2, 37175, Note_on_c, 0, 81, 79
2, 37177, Note_on_c, 0, 80, 0
2, 37186, Note_on_c, 0, 64, 0
2, 37267, Note_on_c, 0, 81, 0
2, 37275, Note_on_c, 0, 80, 78
2, 37326, Control_c, 0, 64, 58
2, 37341, Control_c, 0, 64, 69
2, 37357, Control_c, 0, 64, 79
2, 37358, Note_on_c, 0, 80, 0
2, 37368, Note_on_c, 0, 73, 84
2, 37372, Control_c, 0, 64, 100
2, 37375, Note_on_c, 0, 81, 81
2, 37376, Note_on_c, 0, 64, 75
2, 37386, Control_c, 0, 64, 127
2, 37400, Note_on_c, 0, 73, 0
2, 37436, Note_on_c, 0, 64, 0
2, 37442, Note_on_c, 0, 81, 0
2, 37539, Control_c, 0, 64, 100
2, 37555, Control_c, 0, 64, 84
2, 37563, Note_on_c, 0, 80, 84
2, 37570, Control_c, 0, 64, 72
2, 37578, Note_on_c, 0, 64, 62
2, 37584, Control_c, 0, 64, 61
2, 37600, Control_c, 0, 64, 0
2, 37636, Note_on_c, 0, 62, 81
2, 37637, Note_on_c, 0, 64, 0
2, 37654, Note_on_c, 0, 78, 80
2, 37657, Note_on_c, 0, 80, 0
2, 37701, Note_on_c, 0, 62, 0
2, 37711, Note_on_c, 0, 61, 78
2, 37731, Note_on_c, 0, 76, 79
2, 37744, Note_on_c, 0, 78, 0
2, 37778, Note_on_c, 0, 61, 0
2, 37785, Note_on_c, 0, 76, 0
2, 37794, Note_on_c, 0, 59, 74
2, 37802, Note_on_c, 0, 74, 78
2, 37873, Note_on_c, 0, 59, 0
2, 37880, Note_on_c, 0, 57, 84
2, 37885, Note_on_c, 0, 73, 86
2, 37885, Note_on_c, 0, 74, 0
2, 37931, Note_on_c, 0, 57, 0
2, 37958, Note_on_c, 0, 73, 0
2, 37962, Note_on_c, 0, 74, 78
2, 38047, Note_on_c, 0, 74, 0
2, 38058, Note_on_c, 0, 76, 78
2, 38069, Note_on_c, 0, 61, 84
2, 38112, Note_on_c, 0, 61, 0
2, 38141, Note_on_c, 0, 74, 71
2, 38142, Note_on_c, 0, 76, 0
2, 38215, Note_on_c, 0, 73, 81
2, 38225, Note_on_c, 0, 74, 0
2, 38236, Note_on_c, 0, 57, 83
2, 38277, Note_on_c, 0, 57, 0
2, 38294, Note_on_c, 0, 71, 72
2, 38306, Note_on_c, 0, 73, 0
2, 38346, Note_on_c, 0, 71, 0
2, 38371, Note_on_c, 0, 69, 71
2, 38399, Note_on_c, 0, 52, 77
2, 38430, Note_on_c, 0, 69, 0
2, 38433, Note_on_c, 0, 52, 0
2, 38442, Note_on_c, 0, 71, 77
2, 38484, Note_on_c, 0, 71, 0
2, 38509, Note_on_c, 0, 69, 63
2, 38549, Note_on_c, 0, 69, 0
2, 38555, Note_on_c, 0, 57, 82
2, 38558, Note_on_c, 0, 71, 72
2, 38593, Note_on_c, 0, 57, 0
2, 38601, Note_on_c, 0, 71, 0
2, 38624, Note_on_c, 0, 69, 65
2, 38663, Note_on_c, 0, 69, 0
2, 38671, Note_on_c, 0, 71, 74
2, 38725, Note_on_c, 0, 71, 0
2, 38730, Note_on_c, 0, 52, 75
2, 38740, Note_on_c, 0, 69, 67
2, 38766, Note_on_c, 0, 52, 0
2, 38785, Note_on_c, 0, 69, 0
2, 38796, Note_on_c, 0, 71, 65
2, 38845, Note_on_c, 0, 71, 0
2, 38863, Note_on_c, 0, 69, 66
2, 38900, Note_on_c, 0, 69, 0
2, 38902, Note_on_c, 0, 49, 78
2, 38914, Note_on_c, 0, 71, 72
2, 38934, Note_on_c, 0, 49, 0
2, 38959, Note_on_c, 0, 71, 0
2, 38982, Note_on_c, 0, 69, 62
2, 39016, Note_on_c, 0, 69, 0
2, 39031, Note_on_c, 0, 71, 74
2, 39059, Note_on_c, 0, 52, 67
2, 39087, Note_on_c, 0, 52, 0
2, 39090, Note_on_c, 0, 71, 0
2, 39101, Note_on_c, 0, 69, 57
2, 39134, Note_on_c, 0, 69, 0
2, 39134, Note_on_c, 0, 71, 53
2, 39193, Note_on_c, 0, 71, 0
2, 39209, Note_on_c, 0, 49, 66
2, 39215, Note_on_c, 0, 69, 61
2, 39246, Note_on_c, 0, 49, 0
2, 39249, Note_on_c, 0, 69, 0
2, 39255, Note_on_c, 0, 71, 64
2, 39310, Note_on_c, 0, 71, 0
2, 39328, Note_on_c, 0, 69, 50
2, 39387, Note_on_c, 0, 45, 70
2, 39472, Note_on_c, 0, 69, 0
2, 39488, Note_on_c, 0, 71, 72
2, 39565, Note_on_c, 0, 71, 0
2, 39582, Note_on_c, 0, 45, 0
2, 39606, Note_on_c, 0, 69, 64
2, 39646, Note_on_c, 0, 69, 0
2, 39677, Note_on_c, 0, 68, 65
2, 39702, Note_on_c, 0, 68, 0
2, 39759, Note_on_c, 0, 69, 73
2, 39793, Note_on_c, 0, 69, 0
2, 39836, Note_on_c, 0, 64, 59
2, 39896, Note_on_c, 0, 64, 0
2, 39903, Note_on_c, 0, 45, 56
2, 39903, Note_on_c, 0, 49, 52
2, 39913, Note_on_c, 0, 52, 52
2, 39913, Note_on_c, 0, 61, 67
2, 39967, Note_on_c, 0, 61, 0
2, 40004, Note_on_c, 0, 66, 69
2, 40056, Note_on_c, 0, 66, 0
2, 40083, Note_on_c, 0, 52, 0
2, 40083, Note_on_c, 0, 64, 71
2, 40126, Note_on_c, 0, 64, 0
2, 40129, Note_on_c, 0, 45, 0
2, 40151, Note_on_c, 0, 49, 0
2, 40168, Note_on_c, 0, 62, 59
2, 40206, Note_on_c, 0, 62, 0
2, 40262, Note_on_c, 0, 64, 60
2, 40312, Note_on_c, 0, 64, 0
2, 40353, Note_on_c, 0, 61, 49
2, 40396, Note_on_c, 0, 61, 0
2, 40422, Note_on_c, 0, 45, 51
2, 40428, Note_on_c, 0, 49, 45
2, 40430, Note_on_c, 0, 57, 56
2, 40441, Note_on_c, 0, 52, 33
2, 40477, Note_on_c, 0, 57, 0
2, 40514, Note_on_c, 0, 59, 50
2, 40545, Note_on_c, 0, 59, 0
2, 40566, Note_on_c, 0, 57, 61
2, 40610, Note_on_c, 0, 57, 0
2, 40615, Note_on_c, 0, 49, 0
2, 40636, Note_on_c, 0, 59, 61
2, 40666, Note_on_c, 0, 52, 0
2, 40673, Note_on_c, 0, 59, 0
2, 40690, Note_on_c, 0, 47, 62
2, 40694, Note_on_c, 0, 57, 59
2, 40728, Note_on_c, 0, 50, 38
2, 40734, Note_on_c, 0, 57, 0
2, 40753, Note_on_c, 0, 59, 64
2, 40790, Note_on_c, 0, 59, 0
2, 40817, Note_on_c, 0, 57, 62
2, 40850, Note_on_c, 0, 50, 0
2, 40851, Note_on_c, 0, 47, 0
2, 40860, Note_on_c, 0, 57, 0
2, 40877, Note_on_c, 0, 59, 72
2, 40899, Note_on_c, 0, 45, 0
2, 40924, Note_on_c, 0, 59, 0
2, 40952, Note_on_c, 0, 57, 58
2, 40982, Note_on_c, 0, 50, 61
2, 40983, Note_on_c, 0, 47, 66
2, 40991, Note_on_c, 0, 57, 0
2, 41005, Note_on_c, 0, 59, 63
2, 41046, Note_on_c, 0, 59, 0
2, 41084, Note_on_c, 0, 57, 56
2, 41126, Note_on_c, 0, 57, 0
2, 41144, Note_on_c, 0, 59, 58
2, 41179, Note_on_c, 0, 59, 0
2, 41193, Note_on_c, 0, 50, 0
2, 41202, Note_on_c, 0, 57, 58
2, 41245, Note_on_c, 0, 57, 0
2, 41266, Note_on_c, 0, 59, 63
2, 41272, Note_on_c, 0, 49, 63
2, 41278, Note_on_c, 0, 47, 0
2, 41282, Note_on_c, 0, 52, 47
2, 41306, Note_on_c, 0, 59, 0
2, 41331, Note_on_c, 0, 57, 62
2, 41376, Note_on_c, 0, 57, 0
2, 41378, Note_on_c, 0, 49, 0
2, 41396, Note_on_c, 0, 59, 61
2, 41407, Note_on_c, 0, 52, 0
2, 41441, Note_on_c, 0, 59, 0
2, 41475, Note_on_c, 0, 57, 60
2, 41529, Note_on_c, 0, 57, 0
2, 41551, Note_on_c, 0, 59, 51
2, 41553, Note_on_c, 0, 52, 50
2, 41570, Note_on_c, 0, 49, 61
2, 41575, Note_on_c, 0, 59, 0
2, 41760, Note_on_c, 0, 49, 0
2, 41760, Note_on_c, 0, 57, 56
2, 41762, Note_on_c, 0, 52, 0
2, 41813, Note_on_c, 0, 57, 0
2, 41863, Note_on_c, 0, 59, 50
2, 41923, Note_on_c, 0, 59, 0
2, 41940, Note_on_c, 0, 61, 59
2, 41969, Note_on_c, 0, 61, 0
2, 42021, Note_on_c, 0, 62, 59
2, 42074, Note_on_c, 0, 62, 0
2, 42103, Note_on_c, 0, 64, 61
2, 42142, Note_on_c, 0, 64, 0
2, 42279, Note_on_c, 0, 61, 67
2, 42317, Note_on_c, 0, 61, 0
2, 42441, Note_on_c, 0, 64, 57
2, 42443, Note_on_c, 0, 57, 44
2, 42485, Note_on_c, 0, 57, 0
2, 42491, Note_on_c, 0, 64, 0
2, 42616, Note_on_c, 0, 67, 54
2, 42632, Note_on_c, 0, 59, 43
2, 42661, Note_on_c, 0, 59, 0
2, 42683, Note_on_c, 0, 67, 0
2, 42809, Note_on_c, 0, 76, 76
2, 42819, Note_on_c, 0, 61, 45
2, 42857, Note_on_c, 0, 61, 0
2, 42884, Note_on_c, 0, 59, 55
2, 42887, Note_on_c, 0, 74, 79
2, 42892, Note_on_c, 0, 76, 0
2, 42933, Note_on_c, 0, 59, 0
2, 42959, Note_on_c, 0, 57, 59
2, 42968, Note_on_c, 0, 73, 87
2, 42981, Note_on_c, 0, 74, 0
2, 43035, Note_on_c, 0, 57, 0
2, 43037, Note_on_c, 0, 59, 64
2, 43042, Note_on_c, 0, 71, 87
2, 43061, Note_on_c, 0, 73, 0
2, 43083, Note_on_c, 0, 59, 0
2, 43113, Note_on_c, 0, 71, 0
2, 43124, Note_on_c, 0, 61, 70
2, 43131, Note_on_c, 0, 69, 82
2, 43153, Note_on_c, 0, 61, 0
2, 43185, Note_on_c, 0, 69, 0
2, 43285, Note_on_c, 0, 62, 62
2, 43296, Note_on_c, 0, 76, 82
2, 43356, Note_on_c, 0, 76, 0
2, 43358, Note_on_c, 0, 62, 0
2, 43385, Note_on_c, 0, 61, 61
2, 43427, Note_on_c, 0, 61, 0
2, 43452, Note_on_c, 0, 59, 66
2, 43461, Note_on_c, 0, 67, 79
2, 43495, Note_on_c, 0, 59, 0
2, 43518, Note_on_c, 0, 67, 0
2, 43547, Note_on_c, 0, 61, 59
2, 43626, Note_on_c, 0, 61, 0
2, 43637, Note_on_c, 0, 66, 71
2, 43645, Note_on_c, 0, 62, 59
2, 43694, Note_on_c, 0, 62, 0
2, 43711, Note_on_c, 0, 66, 0
2, 43830, Note_on_c, 0, 62, 60
2, 43888, Note_on_c, 0, 62, 0
2, 43921, Note_on_c, 0, 64, 66
2, 43994, Note_on_c, 0, 64, 0
2, 44002, Note_on_c, 0, 66, 65
2, 44046, Note_on_c, 0, 66, 0
2, 44080, Note_on_c, 0, 67, 77
2, 44166, Note_on_c, 0, 67, 0
2, 44174, Note_on_c, 0, 69, 75
2, 44226, Note_on_c, 0, 69, 0
2, 44345, Note_on_c, 0, 66, 83
2, 44387, Note_on_c, 0, 66, 0
2, 44513, Note_on_c, 0, 69, 73
2, 44526, Note_on_c, 0, 50, 62
2, 44567, Note_on_c, 0, 50, 0
2, 44576, Note_on_c, 0, 69, 0
2, 44691, Note_on_c, 0, 72, 76
2, 44694, Note_on_c, 0, 52, 60
2, 44736, Note_on_c, 0, 52, 0
2, 44757, Note_on_c, 0, 72, 0
2, 44866, Note_on_c, 0, 81, 84
2, 44870, Note_on_c, 0, 54, 69
2, 44941, Note_on_c, 0, 54, 0
2, 44951, Note_on_c, 0, 79, 84
2, 44960, Note_on_c, 0, 52, 69
2, 44975, Note_on_c, 0, 81, 0
2, 45018, Note_on_c, 0, 52, 0
2, 45033, Note_on_c, 0, 78, 85
2, 45034, Note_on_c, 0, 50, 67
2, 45050, Note_on_c, 0, 79, 0
2, 45105, Note_on_c, 0, 76, 80
2, 45116, Note_on_c, 0, 50, 0
2, 45119, Note_on_c, 0, 52, 69
2, 45135, Note_on_c, 0, 78, 0
2, 45166, Note_on_c, 0, 52, 0
2, 45183, Note_on_c, 0, 76, 0
2, 45186, Note_on_c, 0, 54, 81
2, 45198, Note_on_c, 0, 74, 87
2, 45232, Note_on_c, 0, 54, 0
2, 45253, Note_on_c, 0, 74, 0
2, 45372, Note_on_c, 0, 55, 68
2, 45375, Note_on_c, 0, 81, 81
2, 45425, Note_on_c, 0, 81, 0
2, 45442, Note_on_c, 0, 55, 0
2, 45450, Note_on_c, 0, 54, 67
2, 45497, Note_on_c, 0, 54, 0
2, 45529, Note_on_c, 0, 52, 66
2, 45539, Note_on_c, 0, 72, 81
2, 45582, Note_on_c, 0, 52, 0
2, 45595, Note_on_c, 0, 72, 0
2, 45628, Note_on_c, 0, 54, 58
2, 45701, Note_on_c, 0, 54, 0
2, 45712, Note_on_c, 0, 71, 84
2, 45713, Note_on_c, 0, 55, 73
2, 45740, Note_on_c, 0, 55, 0
2, 45895, Note_on_c, 0, 59, 69
2, 45958, Note_on_c, 0, 57, 68
2, 45958, Note_on_c, 0, 59, 0
2, 46021, Note_on_c, 0, 57, 0
2, 46033, Note_on_c, 0, 55, 67
2, 46034, Note_on_c, 0, 69, 66
2, 46077, Note_on_c, 0, 69, 0
2, 46101, Note_on_c, 0, 55, 0
2, 46113, Note_on_c, 0, 54, 65
2, 46190, Note_on_c, 0, 69, 68
2, 46205, Note_on_c, 0, 52, 54
2, 46206, Note_on_c, 0, 54, 0
2, 46222, Note_on_c, 0, 69, 0
2, 46236, Note_on_c, 0, 52, 0
2, 46252, Note_on_c, 0, 67, 60
2, 46284, Note_on_c, 0, 67, 0
2, 46296, Note_on_c, 0, 69, 69
2, 46296, Note_on_c, 0, 71, 0
2, 46333, Note_on_c, 0, 69, 0
2, 46367, Note_on_c, 0, 67, 61
2, 46392, Note_on_c, 0, 55, 48
2, 46452, Note_on_c, 0, 55, 0
2, 46463, Note_on_c, 0, 54, 64
2, 46516, Note_on_c, 0, 67, 0
2, 46519, Note_on_c, 0, 54, 0
2, 46539, Note_on_c, 0, 52, 58
2, 46554, Note_on_c, 0, 66, 61
2, 46587, Note_on_c, 0, 52, 0
2, 46622, Note_on_c, 0, 50, 51
2, 46684, Note_on_c, 0, 66, 0
2, 46705, Note_on_c, 0, 50, 0
2, 46714, Note_on_c, 0, 49, 59
2, 46739, Note_on_c, 0, 64, 60
2, 46740, Note_on_c, 0, 49, 0
2, 46907, Note_on_c, 0, 73, 60
2, 46911, Note_on_c, 0, 52, 54
2, 46944, Note_on_c, 0, 73, 0
2, 46958, Note_on_c, 0, 52, 0
2, 46991, Note_on_c, 0, 71, 57
2, 47054, Note_on_c, 0, 71, 0
2, 47061, Note_on_c, 0, 49, 46
2, 47070, Note_on_c, 0, 70, 63
2, 47100, Note_on_c, 0, 49, 0
2, 47112, Note_on_c, 0, 70, 0
2, 47161, Note_on_c, 0, 71, 63
2, 47236, Note_on_c, 0, 46, 58
2, 47243, Note_on_c, 0, 71, 0
2, 47259, Note_on_c, 0, 73, 66
2, 47266, Note_on_c, 0, 46, 0
2, 47424, Note_on_c, 0, 49, 43
2, 47451, Note_on_c, 0, 49, 0
2, 47575, Note_on_c, 0, 73, 0
2, 47592, Note_on_c, 0, 46, 55
2, 47604, Note_on_c, 0, 67, 69
2, 47617, Note_on_c, 0, 64, 0
2, 47628, Note_on_c, 0, 46, 0
2, 47760, Note_on_c, 0, 67, 0
2, 47774, Note_on_c, 0, 50, 67
2, 47784, Note_on_c, 0, 66, 77
2, 47812, Note_on_c, 0, 50, 0
2, 47942, Note_on_c, 0, 54, 75
2, 47945, Note_on_c, 0, 74, 76
2, 47983, Note_on_c, 0, 54, 0
2, 48037, Note_on_c, 0, 74, 0
2, 48042, Note_on_c, 0, 73, 76
2, 48115, Note_on_c, 0, 50, 65
2, 48125, Note_on_c, 0, 73, 0
2, 48135, Note_on_c, 0, 71, 63
2, 48154, Note_on_c, 0, 50, 0
2, 48213, Note_on_c, 0, 73, 84
2, 48259, Note_on_c, 0, 71, 0
2, 48295, Note_on_c, 0, 73, 0
2, 48296, Note_on_c, 0, 47, 71
2, 48298, Note_on_c, 0, 74, 84
2, 48335, Note_on_c, 0, 47, 0
2, 48464, Note_on_c, 0, 50, 79
2, 48506, Note_on_c, 0, 50, 0
2, 48570, Note_on_c, 0, 66, 0
2, 48633, Note_on_c, 0, 47, 76
2, 48634, Note_on_c, 0, 74, 0
2, 48645, Note_on_c, 0, 69, 81
2, 48678, Note_on_c, 0, 47, 0
2, 48782, Note_on_c, 0, 69, 0
2, 48816, Note_on_c, 0, 52, 78
2, 48828, Note_on_c, 0, 67, 83
2, 48845, Note_on_c, 0, 52, 0
2, 48996, Note_on_c, 0, 55, 74
2, 49007, Note_on_c, 0, 76, 81
2, 49030, Note_on_c, 0, 55, 0
2, 49088, Note_on_c, 0, 74, 77
2, 49101, Note_on_c, 0, 76, 0
2, 49164, Note_on_c, 0, 52, 71
2, 49170, Note_on_c, 0, 73, 84
2, 49177, Note_on_c, 0, 74, 0
2, 49191, Note_on_c, 0, 52, 0
2, 49251, Note_on_c, 0, 74, 87
2, 49252, Note_on_c, 0, 73, 0
2, 49344, Note_on_c, 0, 76, 86
2, 49346, Note_on_c, 0, 49, 77
2, 49351, Note_on_c, 0, 74, 0
2, 49375, Note_on_c, 0, 49, 0
2, 49529, Note_on_c, 0, 52, 64
2, 49559, Note_on_c, 0, 52, 0
2, 49692, Note_on_c, 0, 76, 0
2, 49696, Note_on_c, 0, 49, 70
2, 49697, Note_on_c, 0, 71, 77
2, 49723, Note_on_c, 0, 49, 0
2, 49738, Note_on_c, 0, 67, 0
2, 49845, Note_on_c, 0, 71, 0
2, 49873, Control_c, 0, 64, 27
2, 49878, Note_on_c, 0, 54, 88
2, 49886, Note_on_c, 0, 70, 87
2, 49888, Control_c, 0, 64, 74
2, 49902, Control_c, 0, 64, 127
2, 49953, Note_on_c, 0, 70, 0
2, 50019, Note_on_c, 0, 54, 0
2, 50039, Control_c, 0, 64, 103
2, 50050, Note_on_c, 0, 79, 87
2, 50054, Control_c, 0, 64, 65
2, 50070, Control_c, 0, 64, 0
2, 50133, Note_on_c, 0, 78, 79
2, 50142, Note_on_c, 0, 79, 0
2, 50199, Note_on_c, 0, 78, 0
2, 50215, Note_on_c, 0, 59, 72
2, 50224, Note_on_c, 0, 76, 81
2, 50311, Note_on_c, 0, 75, 84
2, 50313, Note_on_c, 0, 76, 0
2, 50374, Note_on_c, 0, 75, 0
2, 50388, Note_on_c, 0, 58, 79
2, 50400, Note_on_c, 0, 76, 81
2, 50426, Note_on_c, 0, 59, 0
2, 50442, Note_on_c, 0, 76, 0
2, 50555, Note_on_c, 0, 58, 0
2, 50567, Note_on_c, 0, 59, 77
2, 50573, Note_on_c, 0, 79, 82
2, 50598, Note_on_c, 0, 59, 0
2, 50615, Note_on_c, 0, 79, 0
2, 50743, Note_on_c, 0, 75, 79
2, 50751, Note_on_c, 0, 61, 73
2, 50781, Note_on_c, 0, 61, 0
2, 50793, Note_on_c, 0, 75, 0
2, 50913, Note_on_c, 0, 76, 83
2, 50918, Note_on_c, 0, 54, 79
2, 50918, Note_on_c, 0, 73, 75
2, 50968, Note_on_c, 0, 73, 0
2, 50974, Control_c, 0, 64, 64
2, 50983, Note_on_c, 0, 76, 0
2, 50991, Control_c, 0, 64, 92
2, 51006, Control_c, 0, 64, 127
2, 51035, Note_on_c, 0, 54, 0
2, 51096, Note_on_c, 0, 79, 87
2, 51105, Control_c, 0, 64, 101
2, 51120, Control_c, 0, 64, 67
2, 51135, Control_c, 0, 64, 0
2, 51176, Note_on_c, 0, 78, 83
2, 51187, Note_on_c, 0, 79, 0
2, 51243, Note_on_c, 0, 78, 0
2, 51257, Note_on_c, 0, 59, 62
2, 51265, Note_on_c, 0, 76, 79
2, 51347, Note_on_c, 0, 75, 82
2, 51350, Note_on_c, 0, 76, 0
2, 51417, Note_on_c, 0, 76, 81
2, 51419, Note_on_c, 0, 75, 0
2, 51423, Note_on_c, 0, 58, 75
2, 51435, Note_on_c, 0, 59, 0
2, 51471, Note_on_c, 0, 76, 0
2, 51595, Note_on_c, 0, 78, 70
2, 51655, Note_on_c, 0, 78, 0
2, 51677, Note_on_c, 0, 76, 70
2, 51705, Note_on_c, 0, 58, 0
2, 51745, Note_on_c, 0, 76, 0
2, 51753, Note_on_c, 0, 59, 58
2, 51757, Note_on_c, 0, 75, 69
2, 51797, Note_on_c, 0, 59, 0
2, 51821, Note_on_c, 0, 75, 0
2, 51845, Note_on_c, 0, 73, 71
2, 51906, Note_on_c, 0, 73, 0
2, 51938, Note_on_c, 0, 47, 54
2, 51942, Note_on_c, 0, 75, 70
2, 51948, Control_c, 0, 64, 49
2, 51964, Control_c, 0, 64, 71
2, 51979, Control_c, 0, 64, 104
2, 51995, Control_c, 0, 64, 127
2, 52012, Note_on_c, 0, 75, 0
2, 52032, Note_on_c, 0, 47, 0
2, 52116, Control_c, 0, 64, 105
2, 52123, Note_on_c, 0, 72, 66
2, 52131, Control_c, 0, 64, 76
2, 52145, Control_c, 0, 64, 60
2, 52161, Control_c, 0, 64, 0
2, 52172, Note_on_c, 0, 72, 0
2, 52202, Note_on_c, 0, 71, 66
2, 52244, Note_on_c, 0, 71, 0
2, 52268, Note_on_c, 0, 64, 58
2, 52286, Note_on_c, 0, 69, 53
2, 52347, Note_on_c, 0, 69, 0
2, 52364, Note_on_c, 0, 68, 59
2, 52413, Note_on_c, 0, 68, 0
2, 52439, Note_on_c, 0, 63, 52
2, 52453, Note_on_c, 0, 64, 0
2, 52459, Note_on_c, 0, 69, 62
2, 52498, Note_on_c, 0, 69, 0
2, 52615, Note_on_c, 0, 63, 0
2, 52627, Note_on_c, 0, 64, 70
2, 52635, Note_on_c, 0, 72, 67
2, 52676, Note_on_c, 0, 64, 0
2, 52694, Note_on_c, 0, 72, 0
2, 52804, Note_on_c, 0, 66, 64
2, 52809, Note_on_c, 0, 68, 68
2, 52847, Note_on_c, 0, 66, 0
2, 52854, Note_on_c, 0, 68, 0
2, 52976, Note_on_c, 0, 59, 56
2, 52982, Note_on_c, 0, 78, 67
2, 52990, Note_on_c, 0, 69, 58
2, 53020, Control_c, 0, 64, 10
2, 53036, Control_c, 0, 64, 57
2, 53044, Note_on_c, 0, 69, 0
2, 53051, Control_c, 0, 64, 65
2, 53065, Control_c, 0, 64, 71
2, 53079, Note_on_c, 0, 78, 0
2, 53081, Control_c, 0, 64, 78
2, 53096, Control_c, 0, 64, 85
2, 53112, Control_c, 0, 64, 89
2, 53117, Note_on_c, 0, 59, 0
2, 53156, Note_on_c, 0, 72, 62
2, 53157, Control_c, 0, 64, 88
2, 53172, Control_c, 0, 64, 83
2, 53187, Control_c, 0, 64, 75
2, 53202, Control_c, 0, 64, 67
2, 53217, Control_c, 0, 64, 56
2, 53220, Note_on_c, 0, 72, 0
2, 53233, Control_c, 0, 64, 0
2, 53236, Note_on_c, 0, 71, 67
2, 53289, Note_on_c, 0, 71, 0
2, 53313, Note_on_c, 0, 64, 54
2, 53322, Note_on_c, 0, 69, 57
2, 53394, Note_on_c, 0, 69, 0
2, 53402, Note_on_c, 0, 68, 69
2, 53482, Note_on_c, 0, 68, 0
2, 53494, Note_on_c, 0, 63, 62
2, 53508, Note_on_c, 0, 64, 0
2, 53510, Note_on_c, 0, 69, 69
2, 53563, Note_on_c, 0, 69, 0
2, 53682, Note_on_c, 0, 71, 67
2, 53733, Note_on_c, 0, 71, 0
2, 53765, Note_on_c, 0, 69, 57
2, 53797, Note_on_c, 0, 63, 0
2, 53800, Note_on_c, 0, 69, 0
2, 53845, Note_on_c, 0, 64, 57
2, 53846, Note_on_c, 0, 67, 59
2, 53882, Note_on_c, 0, 64, 0
2, 53908, Note_on_c, 0, 67, 0
2, 53922, Note_on_c, 0, 66, 66
2, 53985, Note_on_c, 0, 66, 0
2, 54021, Note_on_c, 0, 52, 42
2, 54032, Note_on_c, 0, 67, 61
2, 54072, Note_on_c, 0, 52, 0
2, 54072, Note_on_c, 0, 67, 0
2, 54101, Note_on_c, 0, 71, 64
2, 54114, Note_on_c, 0, 55, 44
2, 54171, Note_on_c, 0, 71, 0
2, 54174, Note_on_c, 0, 55, 0
2, 54183, Note_on_c, 0, 73, 70
2, 54196, Note_on_c, 0, 57, 55
2, 54239, Note_on_c, 0, 57, 0
2, 54273, Note_on_c, 0, 73, 0
2, 54278, Note_on_c, 0, 59, 64
2, 54280, Note_on_c, 0, 75, 64
2, 54318, Note_on_c, 0, 59, 0
2, 54331, Note_on_c, 0, 75, 0
2, 54352, Note_on_c, 0, 61, 64
2, 54363, Note_on_c, 0, 76, 68
2, 54407, Note_on_c, 0, 76, 0
2, 54412, Note_on_c, 0, 61, 0
2, 54438, Note_on_c, 0, 78, 69
2, 54439, Note_on_c, 0, 63, 62
2, 54498, Note_on_c, 0, 63, 0
2, 54513, Note_on_c, 0, 78, 0
2, 54525, Note_on_c, 0, 79, 74
2, 54534, Note_on_c, 0, 64, 70
2, 54563, Note_on_c, 0, 64, 0
2, 54602, Note_on_c, 0, 79, 0
2, 54614, Note_on_c, 0, 78, 75
2, 54694, Note_on_c, 0, 78, 0
2, 54695, Note_on_c, 0, 76, 69
2, 54704, Note_on_c, 0, 67, 68
2, 54739, Note_on_c, 0, 67, 0
2, 54751, Note_on_c, 0, 76, 0
2, 54781, Note_on_c, 0, 74, 71
2, 54863, Note_on_c, 0, 73, 71
2, 54863, Note_on_c, 0, 74, 0
2, 54872, Note_on_c, 0, 64, 65
2, 54916, Note_on_c, 0, 64, 0
2, 54957, Note_on_c, 0, 71, 75
2, 55000, Note_on_c, 0, 73, 0
2, 55034, Note_on_c, 0, 71, 0
2, 55048, Note_on_c, 0, 61, 69
2, 55048, Note_on_c, 0, 76, 77
2, 55092, Note_on_c, 0, 61, 0
2, 55134, Note_on_c, 0, 74, 75
2, 55137, Note_on_c, 0, 76, 0
2, 55214, Note_on_c, 0, 64, 73
2, 55227, Note_on_c, 0, 73, 78
2, 55239, Note_on_c, 0, 74, 0
2, 55260, Note_on_c, 0, 64, 0
2, 55302, Note_on_c, 0, 71, 74
2, 55312, Note_on_c, 0, 73, 0
2, 55355, Note_on_c, 0, 71, 0
2, 55378, Note_on_c, 0, 69, 77
2, 55398, Note_on_c, 0, 61, 67
2, 55434, Note_on_c, 0, 61, 0
2, 55464, Note_on_c, 0, 69, 0
2, 55465, Note_on_c, 0, 68, 76
2, 55553, Note_on_c, 0, 68, 0
2, 55554, Note_on_c, 0, 73, 85
2, 55556, Note_on_c, 0, 57, 66
2, 55602, Note_on_c, 0, 57, 0
2, 55641, Note_on_c, 0, 71, 75
2, 55682, Note_on_c, 0, 73, 0
2, 55730, Note_on_c, 0, 61, 72
2, 55731, Note_on_c, 0, 69, 74
2, 55735, Note_on_c, 0, 71, 0
2, 55775, Note_on_c, 0, 61, 0
2, 55785, Note_on_c, 0, 69, 0
2, 55813, Note_on_c, 0, 67, 77
2, 55888, Note_on_c, 0, 57, 67
2, 55896, Note_on_c, 0, 67, 0
2, 55899, Note_on_c, 0, 66, 78
2, 55924, Note_on_c, 0, 57, 0
2, 55979, Note_on_c, 0, 66, 0
2, 55984, Note_on_c, 0, 64, 74
2, 56060, Note_on_c, 0, 64, 0
2, 56074, Note_on_c, 0, 50, 53
2, 56078, Note_on_c, 0, 66, 78
2, 56125, Note_on_c, 0, 50, 0
2, 56129, Note_on_c, 0, 66, 0
2, 56150, Note_on_c, 0, 54, 66
2, 56156, Note_on_c, 0, 69, 77
2, 56214, Note_on_c, 0, 54, 0
2, 56230, Note_on_c, 0, 69, 0
2, 56236, Note_on_c, 0, 71, 80
2, 56247, Note_on_c, 0, 55, 71
2, 56307, Note_on_c, 0, 55, 0
2, 56311, Note_on_c, 0, 71, 0
2, 56318, Note_on_c, 0, 73, 82
2, 56336, Note_on_c, 0, 57, 74
2, 56376, Note_on_c, 0, 73, 0
2, 56408, Note_on_c, 0, 59, 73
2, 56410, Note_on_c, 0, 57, 0
2, 56412, Note_on_c, 0, 74, 75
2, 56479, Note_on_c, 0, 59, 0
2, 56489, Note_on_c, 0, 61, 82
2, 56490, Note_on_c, 0, 74, 0
2, 56492, Note_on_c, 0, 76, 80
2, 56562, Note_on_c, 0, 76, 0
2, 56565, Note_on_c, 0, 61, 0
2, 56577, Note_on_c, 0, 62, 80
2, 56577, Note_on_c, 0, 78, 86
2, 56661, Note_on_c, 0, 76, 81
2, 56676, Note_on_c, 0, 78, 0
2, 56716, Note_on_c, 0, 76, 0
2, 56744, Note_on_c, 0, 74, 78
2, 56813, Note_on_c, 0, 74, 0
2, 56832, Note_on_c, 0, 73, 80
2, 56914, Note_on_c, 0, 71, 77
2, 56926, Note_on_c, 0, 73, 0
2, 56967, Note_on_c, 0, 71, 0
2, 56996, Note_on_c, 0, 69, 68
2, 57073, Note_on_c, 0, 69, 0
2, 57074, Note_on_c, 0, 68, 75
2, 57131, Note_on_c, 0, 68, 0
2, 57159, Note_on_c, 0, 71, 76
2, 57233, Note_on_c, 0, 71, 0
2, 57242, Note_on_c, 0, 62, 0
2, 57248, Note_on_c, 0, 76, 75
2, 57264, Note_on_c, 0, 61, 66
2, 57295, Note_on_c, 0, 61, 0
2, 57322, Note_on_c, 0, 76, 0
2, 57333, Note_on_c, 0, 74, 69
2, 57414, Note_on_c, 0, 74, 0
2, 57415, Note_on_c, 0, 59, 78
2, 57415, Note_on_c, 0, 76, 82
2, 57450, Note_on_c, 0, 59, 0
2, 57481, Note_on_c, 0, 76, 0
2, 57504, Note_on_c, 0, 67, 76
2, 57555, Note_on_c, 0, 67, 0
2, 57592, Note_on_c, 0, 58, 68
2, 57597, Note_on_c, 0, 66, 81
2, 57653, Note_on_c, 0, 66, 0
2, 57656, Note_on_c, 0, 58, 0
2, 57678, Note_on_c, 0, 61, 75
2, 57678, Note_on_c, 0, 70, 71
2, 57736, Note_on_c, 0, 61, 0
2, 57753, Note_on_c, 0, 70, 0
2, 57757, Note_on_c, 0, 73, 80
2, 57768, Note_on_c, 0, 59, 64
2, 57819, Note_on_c, 0, 59, 0
2, 57834, Note_on_c, 0, 73, 0
2, 57834, Note_on_c, 0, 74, 78
2, 57840, Note_on_c, 0, 58, 67
2, 57885, Note_on_c, 0, 58, 0
2, 57907, Note_on_c, 0, 56, 71
2, 57922, Note_on_c, 0, 76, 81
2, 57923, Note_on_c, 0, 74, 0
2, 58011, Note_on_c, 0, 54, 68
2, 58037, Note_on_c, 0, 56, 0
2, 58074, Note_on_c, 0, 54, 0
2, 58097, Note_on_c, 0, 59, 75
2, 58127, Note_on_c, 0, 59, 0
2, 58131, Note_on_c, 0, 76, 0
2, 58171, Note_on_c, 0, 66, 75
2, 58249, Note_on_c, 0, 66, 0
2, 58258, Note_on_c, 0, 68, 75
2, 58275, Note_on_c, 0, 54, 74
2, 58302, Note_on_c, 0, 54, 0
2, 58338, Note_on_c, 0, 68, 0
2, 58356, Note_on_c, 0, 70, 68
2, 58415, Note_on_c, 0, 70, 0
2, 58443, Note_on_c, 0, 50, 74
2, 58449, Note_on_c, 0, 71, 71
2, 58472, Note_on_c, 0, 50, 0
2, 58495, Note_on_c, 0, 71, 0
2, 58519, Note_on_c, 0, 73, 73
2, 58603, Note_on_c, 0, 74, 80
2, 58605, Note_on_c, 0, 73, 0
2, 58607, Note_on_c, 0, 47, 67
2, 58633, Note_on_c, 0, 47, 0
2, 58690, Note_on_c, 0, 74, 0
2, 58698, Note_on_c, 0, 73, 81
2, 58777, Note_on_c, 0, 73, 0
2, 58779, Note_on_c, 0, 49, 71
2, 58782, Note_on_c, 0, 71, 75
2, 58833, Note_on_c, 0, 71, 0
2, 58852, Note_on_c, 0, 49, 0
2, 58855, Note_on_c, 0, 69, 72
2, 58873, Note_on_c, 0, 50, 75
2, 58907, Note_on_c, 0, 50, 0
2, 58932, Note_on_c, 0, 69, 0
2, 58941, Note_on_c, 0, 67, 80
2, 58944, Note_on_c, 0, 52, 67
2, 58983, Note_on_c, 0, 52, 0
2, 59018, Note_on_c, 0, 66, 82
2, 59023, Note_on_c, 0, 54, 72
2, 59023, Note_on_c, 0, 67, 0
2, 59088, Note_on_c, 0, 66, 0
2, 59098, Note_on_c, 0, 55, 73
2, 59102, Note_on_c, 0, 71, 88
2, 59106, Note_on_c, 0, 54, 0
2, 59175, Note_on_c, 0, 55, 0
2, 59176, Note_on_c, 0, 57, 76
2, 59195, Note_on_c, 0, 69, 82
2, 59213, Note_on_c, 0, 71, 0
2, 59238, Note_on_c, 0, 57, 0
2, 59254, Note_on_c, 0, 59, 69
2, 59286, Note_on_c, 0, 67, 82
2, 59301, Note_on_c, 0, 69, 0
2, 59329, Note_on_c, 0, 59, 0
2, 59338, Note_on_c, 0, 57, 71
2, 59354, Note_on_c, 0, 66, 87
2, 59363, Note_on_c, 0, 67, 0
2, 59397, Note_on_c, 0, 57, 0
2, 59409, Note_on_c, 0, 55, 70
2, 59431, Note_on_c, 0, 66, 0
2, 59437, Note_on_c, 0, 64, 88
2, 59494, Note_on_c, 0, 54, 66
2, 59517, Note_on_c, 0, 55, 0
2, 59534, Note_on_c, 0, 62, 85
2, 59534, Note_on_c, 0, 64, 0
2, 59580, Note_on_c, 0, 52, 67
2, 59584, Note_on_c, 0, 54, 0
2, 59616, Note_on_c, 0, 67, 91
2, 59622, Note_on_c, 0, 62, 0
2, 59659, Note_on_c, 0, 52, 0
2, 59676, Note_on_c, 0, 54, 78
2, 59701, Note_on_c, 0, 66, 83
2, 59727, Note_on_c, 0, 67, 0
2, 59737, Note_on_c, 0, 54, 0
2, 59757, Note_on_c, 0, 55, 79
2, 59778, Note_on_c, 0, 64, 77
2, 59793, Note_on_c, 0, 66, 0
2, 59825, Note_on_c, 0, 55, 0
2, 59833, Note_on_c, 0, 62, 84
2, 59840, Note_on_c, 0, 54, 73
2, 59861, Note_on_c, 0, 64, 0
2, 59890, Note_on_c, 0, 54, 0
2, 59914, Note_on_c, 0, 55, 77
2, 59919, Note_on_c, 0, 62, 0
2, 59922, Note_on_c, 0, 61, 83
2, 59977, Note_on_c, 0, 55, 0
2, 60004, Note_on_c, 0, 64, 83
2, 60008, Note_on_c, 0, 52, 71
2, 60008, Note_on_c, 0, 61, 0
2, 60081, Note_on_c, 0, 64, 0
2, 60090, Note_on_c, 0, 52, 0
2, 60093, Note_on_c, 0, 58, 92
2, 60096, Note_on_c, 0, 54, 92
2, 60099, Control_c, 0, 64, 65
2, 60115, Control_c, 0, 64, 105
2, 60130, Control_c, 0, 64, 127
2, 60132, Note_on_c, 0, 58, 0
2, 60184, Note_on_c, 0, 54, 0
2, 60271, Note_on_c, 0, 79, 90
2, 60351, Control_c, 0, 64, 101
2, 60366, Control_c, 0, 64, 84
2, 60366, Note_on_c, 0, 78, 86
2, 60374, Note_on_c, 0, 79, 0
2, 60381, Control_c, 0, 64, 72
2, 60396, Control_c, 0, 64, 64
2, 60411, Control_c, 0, 64, 42
2, 60426, Control_c, 0, 64, 0
2, 60431, Note_on_c, 0, 78, 0
2, 60443, Note_on_c, 0, 42, 79
2, 60443, Note_on_c, 0, 76, 87
2, 60495, Note_on_c, 0, 42, 0
2, 60513, Note_on_c, 0, 76, 0
2, 60524, Note_on_c, 0, 74, 84
2, 60610, Note_on_c, 0, 73, 89
2, 60612, Note_on_c, 0, 70, 90
2, 60614, Note_on_c, 0, 42, 77
2, 60622, Note_on_c, 0, 74, 0
2, 60688, Note_on_c, 0, 73, 0
2, 60795, Note_on_c, 0, 76, 82
2, 60814, Note_on_c, 0, 42, 0
2, 60861, Note_on_c, 0, 76, 0
2, 60895, Note_on_c, 0, 70, 0
2, 60962, Note_on_c, 0, 73, 92
2, 60966, Note_on_c, 0, 42, 72
2, 61023, Note_on_c, 0, 73, 0
2, 61034, Note_on_c, 0, 42, 0
2, 61142, Note_on_c, 0, 70, 82
2, 61145, Note_on_c, 0, 42, 71
2, 61154, Note_on_c, 0, 64, 74
2, 61237, Note_on_c, 0, 70, 0
2, 61329, Note_on_c, 0, 73, 79
2, 61397, Note_on_c, 0, 73, 0
2, 61465, Note_on_c, 0, 64, 0
2, 61499, Note_on_c, 0, 70, 79
2, 61570, Note_on_c, 0, 70, 0
2, 61667, Note_on_c, 0, 61, 75
2, 61678, Note_on_c, 0, 64, 74
2, 61741, Note_on_c, 0, 64, 0
2, 61866, Note_on_c, 0, 70, 72
2, 61908, Note_on_c, 0, 42, 0
2, 61948, Note_on_c, 0, 70, 0
2, 61952, Note_on_c, 0, 49, 62
2, 62016, Note_on_c, 0, 49, 0
2, 62030, Note_on_c, 0, 64, 75
2, 62031, Note_on_c, 0, 50, 77
2, 62078, Note_on_c, 0, 50, 0
2, 62092, Note_on_c, 0, 64, 0
2, 62116, Note_on_c, 0, 52, 64
2, 62151, Note_on_c, 0, 61, 0
2, 62188, Note_on_c, 0, 54, 82
2, 62199, Note_on_c, 0, 52, 0
2, 62201, Note_on_c, 0, 62, 72
2, 62350, Note_on_c, 0, 62, 0
2, 62355, Note_on_c, 0, 54, 0
2, 62390, Note_on_c, 0, 59, 68
2, 62443, Note_on_c, 0, 59, 0
2, 62468, Note_on_c, 0, 61, 73
2, 62505, Note_on_c, 0, 61, 0
2, 62529, Note_on_c, 0, 42, 73
2, 62555, Note_on_c, 0, 62, 70
2, 62581, Note_on_c, 0, 42, 0
2, 62621, Note_on_c, 0, 62, 0
2, 62635, Note_on_c, 0, 64, 74
2, 62707, Note_on_c, 0, 64, 0
2, 62711, Note_on_c, 0, 42, 76
2, 62712, Note_on_c, 0, 66, 78
2, 62728, Note_on_c, 0, 71, 82
2, 62801, Note_on_c, 0, 66, 0
2, 62897, Note_on_c, 0, 62, 76
2, 62926, Note_on_c, 0, 42, 0
2, 62953, Note_on_c, 0, 62, 0
2, 63022, Note_on_c, 0, 71, 0
2, 63053, Note_on_c, 0, 42, 72
2, 63059, Note_on_c, 0, 66, 89
2, 63120, Note_on_c, 0, 66, 0
2, 63123, Note_on_c, 0, 42, 0
2, 63221, Note_on_c, 0, 71, 85
2, 63226, Note_on_c, 0, 74, 81
2, 63238, Note_on_c, 0, 42, 73
2, 63296, Note_on_c, 0, 71, 0
2, 63421, Note_on_c, 0, 66, 83
2, 63478, Note_on_c, 0, 66, 0
2, 63508, Note_on_c, 0, 74, 0
2, 63582, Note_on_c, 0, 71, 89
2, 63643, Note_on_c, 0, 71, 0
2, 63748, Note_on_c, 0, 77, 81
2, 63753, Note_on_c, 0, 74, 76
2, 63759, Note_on_c, 0, 42, 0
2, 63820, Note_on_c, 0, 74, 0
2, 63933, Note_on_c, 0, 71, 80
2, 63997, Note_on_c, 0, 71, 0
2, 64056, Note_on_c, 0, 77, 0
2, 64103, Note_on_c, 0, 74, 86
2, 64158, Note_on_c, 0, 74, 0
2, 64273, Note_on_c, 0, 78, 91
2, 64279, Note_on_c, 0, 73, 84
2, 64431, Note_on_c, 0, 73, 0
2, 64462, Note_on_c, 0, 70, 76
2, 64504, Note_on_c, 0, 78, 0
2, 64520, Note_on_c, 0, 70, 0
2, 64552, Note_on_c, 0, 50, 54
2, 64610, Note_on_c, 0, 50, 0
2, 64618, Note_on_c, 0, 73, 79
2, 64621, Note_on_c, 0, 76, 73
2, 64624, Note_on_c, 0, 52, 66
2, 64658, Note_on_c, 0, 52, 0
2, 64661, Note_on_c, 0, 76, 0
2, 64664, Note_on_c, 0, 73, 0
2, 64707, Note_on_c, 0, 54, 72
2, 64754, Note_on_c, 0, 54, 0
2, 64781, Note_on_c, 0, 55, 79
2, 64785, Note_on_c, 0, 74, 89
2, 64793, Note_on_c, 0, 71, 79
2, 64821, Note_on_c, 0, 55, 0
2, 64913, Note_on_c, 0, 71, 0
2, 64913, Note_on_c, 0, 71, 8
2, 64955, Note_on_c, 0, 74, 0
2, 64970, Note_on_c, 0, 54, 73
2, 64970, Note_on_c, 0, 71, 0
2, 64998, Note_on_c, 0, 54, 0
2, 65134, Note_on_c, 0, 79, 60
2, 65136, Note_on_c, 0, 81, 60
2, 65144, Note_on_c, 0, 52, 64
2, 65173, Note_on_c, 0, 52, 0
2, 65175, Note_on_c, 0, 81, 0
2, 65181, Note_on_c, 0, 79, 0
2, 65339, Note_on_c, 0, 74, 84
2, 65346, Note_on_c, 0, 54, 75
2, 65353, Note_on_c, 0, 71, 68
2, 65413, Control_c, 0, 64, 48
2, 65428, Control_c, 0, 64, 68
2, 65444, Control_c, 0, 64, 88
2, 65459, Control_c, 0, 64, 127
2, 65482, Note_on_c, 0, 71, 0
2, 65489, Note_on_c, 0, 74, 0
2, 65900, Note_on_c, 0, 70, 70
2, 65904, Note_on_c, 0, 74, 73
2, 65908, Control_c, 0, 64, 77
2, 65912, Note_on_c, 0, 42, 68
2, 65924, Control_c, 0, 64, 55
2, 65933, Note_on_c, 0, 74, 0
2, 65939, Control_c, 0, 64, 0
2, 65940, Note_on_c, 0, 73, 75
2, 65969, Note_on_c, 0, 73, 0
2, 66002, Note_on_c, 0, 74, 71
2, 66024, Note_on_c, 0, 73, 84
2, 66034, Note_on_c, 0, 74, 0
2, 66037, Note_on_c, 0, 42, 0
2, 66086, Note_on_c, 0, 71, 81
2, 66095, Note_on_c, 0, 73, 0
2, 66148, Note_on_c, 0, 71, 0
2, 66291, Note_on_c, 0, 73, 85
2, 66318, Note_on_c, 0, 70, 0
2, 66341, Note_on_c, 0, 73, 0
2, 66427, Note_on_c, 0, 54, 0
2, 66518, Note_on_c, 0, 71, 83
2, 66519, Note_on_c, 0, 47, 72
2, 66554, Control_c, 0, 64, 26
2, 66570, Control_c, 0, 64, 63
2, 66575, Note_on_c, 0, 71, 0
2, 66585, Control_c, 0, 64, 80
2, 66601, Control_c, 0, 64, 127
2, 66679, Note_on_c, 0, 47, 0
2, 66737, Control_c, 0, 64, 103
2, 66753, Control_c, 0, 64, 73
2, 66753, Note_on_c, 0, 74, 76
2, 66768, Control_c, 0, 64, 59
2, 66783, Control_c, 0, 64, 0
2, 66813, Note_on_c, 0, 74, 0
2, 66835, Note_on_c, 0, 73, 75
2, 66898, Note_on_c, 0, 73, 0
2, 66918, Note_on_c, 0, 54, 65
2, 66921, Note_on_c, 0, 71, 67
2, 66944, Note_on_c, 0, 54, 0
2, 66959, Note_on_c, 0, 71, 0
2, 66997, Note_on_c, 0, 69, 64
2, 67056, Note_on_c, 0, 69, 0
2, 67071, Note_on_c, 0, 67, 64
2, 67083, Note_on_c, 0, 59, 47
2, 67098, Note_on_c, 0, 67, 0
2, 67108, Note_on_c, 0, 59, 0
2, 67131, Note_on_c, 0, 58, 63
2, 67172, Note_on_c, 0, 58, 0
2, 67197, Note_on_c, 0, 59, 65
2, 67255, Note_on_c, 0, 71, 68
2, 67321, Note_on_c, 0, 71, 0
2, 67331, Note_on_c, 0, 69, 64
2, 67392, Note_on_c, 0, 69, 0
2, 67414, Note_on_c, 0, 67, 64
2, 67459, Note_on_c, 0, 67, 0
2, 67490, Note_on_c, 0, 66, 66
2, 67540, Note_on_c, 0, 66, 0
2, 67572, Note_on_c, 0, 64, 82
2, 67606, Note_on_c, 0, 64, 0
2, 67703, Note_on_c, 0, 59, 0
2, 67752, Note_on_c, 0, 60, 61
2, 67753, Note_on_c, 0, 67, 61
2, 67782, Note_on_c, 0, 67, 0
2, 67786, Note_on_c, 0, 60, 0
2, 67831, Note_on_c, 0, 59, 63
2, 67864, Note_on_c, 0, 59, 0
2, 67907, Note_on_c, 0, 57, 51
2, 67925, Note_on_c, 0, 72, 71
2, 67951, Note_on_c, 0, 57, 0
2, 67969, Note_on_c, 0, 72, 0
2, 67989, Note_on_c, 0, 55, 58
2, 68075, Note_on_c, 0, 55, 0
2, 68085, Note_on_c, 0, 54, 74
2, 68090, Note_on_c, 0, 72, 84
2, 68119, Note_on_c, 0, 54, 0
2, 68285, Note_on_c, 0, 55, 58
2, 68299, Note_on_c, 0, 69, 71
2, 68330, Note_on_c, 0, 55, 0
2, 68352, Note_on_c, 0, 54, 62
2, 68356, Note_on_c, 0, 69, 0
2, 68412, Note_on_c, 0, 54, 0
2, 68433, Note_on_c, 0, 52, 60
2, 68465, Note_on_c, 0, 66, 67
2, 68494, Note_on_c, 0, 52, 0
2, 68515, Note_on_c, 0, 66, 0
2, 68519, Note_on_c, 0, 50, 52
2, 68608, Note_on_c, 0, 55, 64
2, 68618, Note_on_c, 0, 50, 0
2, 68626, Note_on_c, 0, 62, 64
2, 68663, Note_on_c, 0, 62, 0
2, 68688, Note_on_c, 0, 55, 0
2, 68697, Note_on_c, 0, 57, 63
2, 68758, Note_on_c, 0, 57, 0
2, 68767, Note_on_c, 0, 72, 0
2, 68773, Note_on_c, 0, 59, 67
2, 68793, Note_on_c, 0, 67, 85
2, 68847, Note_on_c, 0, 59, 0
2, 68859, Note_on_c, 0, 55, 69
2, 68926, Note_on_c, 0, 55, 0
2, 68936, Note_on_c, 0, 54, 68
2, 68965, Note_on_c, 0, 71, 82
2, 69005, Note_on_c, 0, 54, 0
2, 69018, Note_on_c, 0, 55, 66
2, 69028, Note_on_c, 0, 71, 0
2, 69049, Note_on_c, 0, 67, 0
2, 69049, Note_on_c, 0, 67, 9
2, 69085, Note_on_c, 0, 55, 0
2, 69121, Note_on_c, 0, 67, 0
2, 69125, Note_on_c, 0, 49, 72
2, 69138, Note_on_c, 0, 71, 88
2, 69165, Note_on_c, 0, 49, 0
2, 69226, Note_on_c, 0, 69, 74
2, 69290, Note_on_c, 0, 71, 0
2, 69302, Note_on_c, 0, 52, 71
2, 69312, Note_on_c, 0, 67, 77
2, 69324, Note_on_c, 0, 69, 0
2, 69336, Note_on_c, 0, 52, 0
2, 69384, Note_on_c, 0, 66, 76
2, 69384, Note_on_c, 0, 67, 0
2, 69447, Note_on_c, 0, 66, 0
2, 69467, Note_on_c, 0, 64, 73
2, 69471, Note_on_c, 0, 49, 50
2, 69504, Note_on_c, 0, 49, 0
2, 69544, Note_on_c, 0, 64, 0
2, 69561, Note_on_c, 0, 62, 74
2, 69607, Note_on_c, 0, 62, 0
2, 69642, Note_on_c, 0, 54, 66
2, 69645, Note_on_c, 0, 61, 78
2, 69684, Note_on_c, 0, 61, 0
2, 69701, Note_on_c, 0, 54, 0
2, 69737, Note_on_c, 0, 55, 65
2, 69774, Note_on_c, 0, 55, 0
2, 69810, Note_on_c, 0, 57, 57
2, 69815, Note_on_c, 0, 66, 75
2, 69873, Note_on_c, 0, 57, 0
2, 69886, Note_on_c, 0, 54, 62
2, 69929, Note_on_c, 0, 54, 0
2, 69979, Note_on_c, 0, 52, 46
2, 69987, Note_on_c, 0, 69, 65
2, 70018, Note_on_c, 0, 52, 0
2, 70028, Note_on_c, 0, 69, 0
2, 70057, Note_on_c, 0, 54, 48
2, 70124, Note_on_c, 0, 54, 0
2, 70145, Note_on_c, 0, 66, 0
2, 70153, Note_on_c, 0, 69, 71
2, 70162, Note_on_c, 0, 47, 55
2, 70198, Note_on_c, 0, 47, 0
2, 70253, Note_on_c, 0, 67, 67
2, 70345, Note_on_c, 0, 67, 0
2, 70349, Note_on_c, 0, 66, 68
2, 70351, Note_on_c, 0, 50, 61
2, 70381, Note_on_c, 0, 50, 0
2, 70422, Note_on_c, 0, 64, 67
2, 70440, Note_on_c, 0, 66, 0
2, 70474, Note_on_c, 0, 64, 0
2, 70504, Note_on_c, 0, 62, 65
2, 70509, Note_on_c, 0, 47, 50
2, 70546, Note_on_c, 0, 47, 0
2, 70559, Note_on_c, 0, 62, 0
2, 70591, Note_on_c, 0, 61, 65
2, 70635, Note_on_c, 0, 61, 0
2, 70677, Note_on_c, 0, 59, 64
2, 70678, Note_on_c, 0, 52, 43
2, 70704, Note_on_c, 0, 59, 0
2, 70715, Note_on_c, 0, 52, 0
2, 70758, Note_on_c, 0, 54, 63
2, 70793, Note_on_c, 0, 69, 0
2, 70798, Note_on_c, 0, 54, 0
2, 70831, Note_on_c, 0, 55, 57
2, 70834, Note_on_c, 0, 64, 67
2, 70901, Note_on_c, 0, 55, 0
2, 70924, Note_on_c, 0, 52, 52
2, 70965, Note_on_c, 0, 52, 0
2, 71015, Note_on_c, 0, 50, 61
2, 71018, Note_on_c, 0, 67, 65
2, 71025, Note_on_c, 0, 64, 0
2, 71066, Note_on_c, 0, 50, 0
2, 71071, Note_on_c, 0, 67, 0
2, 71094, Note_on_c, 0, 52, 49
2, 71162, Note_on_c, 0, 52, 0
2, 71195, Note_on_c, 0, 67, 67
2, 71208, Note_on_c, 0, 45, 59
2, 71245, Note_on_c, 0, 45, 0
2, 71286, Note_on_c, 0, 66, 62
2, 71354, Note_on_c, 0, 66, 0
2, 71371, Note_on_c, 0, 49, 59
2, 71380, Note_on_c, 0, 64, 58
2, 71404, Note_on_c, 0, 49, 0
2, 71433, Note_on_c, 0, 64, 0
2, 71440, Note_on_c, 0, 67, 0
2, 71455, Note_on_c, 0, 62, 63
2, 71528, Note_on_c, 0, 62, 0
2, 71530, Note_on_c, 0, 45, 54
2, 71549, Note_on_c, 0, 61, 63
2, 71564, Note_on_c, 0, 45, 0
2, 71622, Note_on_c, 0, 61, 0
2, 71638, Note_on_c, 0, 59, 60
2, 71681, Note_on_c, 0, 59, 0
2, 71712, Note_on_c, 0, 50, 52
2, 71718, Note_on_c, 0, 57, 60
2, 71752, Note_on_c, 0, 57, 0
2, 71759, Note_on_c, 0, 50, 0
2, 71787, Note_on_c, 0, 52, 55
2, 71837, Note_on_c, 0, 52, 0
2, 71879, Note_on_c, 0, 54, 64
2, 71882, Note_on_c, 0, 62, 57
2, 71932, Note_on_c, 0, 54, 0
2, 71974, Note_on_c, 0, 50, 50
2, 72017, Note_on_c, 0, 50, 0
2, 72052, Note_on_c, 0, 49, 47
2, 72062, Note_on_c, 0, 66, 70
2, 72091, Note_on_c, 0, 49, 0
2, 72127, Note_on_c, 0, 50, 58
2, 72132, Note_on_c, 0, 66, 0
2, 72221, Note_on_c, 0, 47, 63
2, 72221, Note_on_c, 0, 50, 0
2, 72286, Note_on_c, 0, 47, 0
2, 72309, Note_on_c, 0, 48, 73
2, 72365, Note_on_c, 0, 48, 0
2, 72394, Note_on_c, 0, 50, 71
2, 72400, Note_on_c, 0, 66, 66
2, 72436, Note_on_c, 0, 66, 0
2, 72457, Note_on_c, 0, 50, 0
2, 72476, Note_on_c, 0, 47, 61
2, 72520, Note_on_c, 0, 47, 0
2, 72567, Note_on_c, 0, 45, 56
2, 72583, Note_on_c, 0, 72, 71
2, 72616, Note_on_c, 0, 45, 0
2, 72628, Note_on_c, 0, 72, 0
2, 72650, Note_on_c, 0, 47, 54
2, 72707, Note_on_c, 0, 47, 0
2, 72744, Note_on_c, 0, 43, 60
2, 72745, Note_on_c, 0, 71, 81
2, 72818, Note_on_c, 0, 43, 0
2, 72828, Note_on_c, 0, 45, 61
2, 72900, Note_on_c, 0, 45, 0
2, 72906, Note_on_c, 0, 47, 71
2, 72916, Note_on_c, 0, 67, 75
2, 72928, Note_on_c, 0, 71, 0
2, 72946, Note_on_c, 0, 62, 0
2, 72965, Note_on_c, 0, 47, 0
2, 72999, Note_on_c, 0, 66, 75
2, 73001, Note_on_c, 0, 45, 71
2, 73014, Note_on_c, 0, 67, 0
2, 73057, Note_on_c, 0, 45, 0
2, 73077, Note_on_c, 0, 43, 66
2, 73082, Note_on_c, 0, 64, 73
2, 73097, Note_on_c, 0, 66, 0
2, 73132, Note_on_c, 0, 43, 0
2, 73154, Note_on_c, 0, 42, 62
2, 73158, Note_on_c, 0, 64, 0
2, 73162, Note_on_c, 0, 62, 69
2, 73214, Note_on_c, 0, 42, 0
2, 73238, Note_on_c, 0, 40, 66
2, 73246, Note_on_c, 0, 62, 0
2, 73253, Note_on_c, 0, 67, 80
2, 73294, Note_on_c, 0, 67, 0
2, 73319, Note_on_c, 0, 40, 0
2, 73341, Note_on_c, 0, 42, 57
2, 73389, Note_on_c, 0, 42, 0
2, 73411, Note_on_c, 0, 43, 58
2, 73433, Note_on_c, 0, 73, 75
2, 73440, Note_on_c, 0, 64, 55
2, 73464, Note_on_c, 0, 43, 0
2, 73473, Note_on_c, 0, 73, 0
2, 73476, Note_on_c, 0, 64, 0
2, 73479, Note_on_c, 0, 42, 63
2, 73546, Note_on_c, 0, 42, 0
2, 73572, Note_on_c, 0, 40, 56
2, 73612, Note_on_c, 0, 66, 64
2, 73614, Note_on_c, 0, 74, 70
2, 73672, Note_on_c, 0, 40, 0
2, 73677, Note_on_c, 0, 38, 64
2, 73782, Note_on_c, 0, 45, 65
2, 73795, Note_on_c, 0, 38, 0
2, 73916, Note_on_c, 0, 74, 0
2, 73956, Note_on_c, 0, 66, 0
2, 73979, Note_on_c, 0, 71, 73
2, 73981, Note_on_c, 0, 62, 54
2, 74009, Note_on_c, 0, 62, 0
2, 74035, Note_on_c, 0, 71, 0
2, 74152, Note_on_c, 0, 73, 86
2, 74165, Note_on_c, 0, 64, 66
2, 74197, Note_on_c, 0, 64, 0
2, 74218, Note_on_c, 0, 73, 0
2, 74332, Note_on_c, 0, 76, 81
2, 74340, Note_on_c, 0, 67, 70
2, 74406, Note_on_c, 0, 45, 0
2, 74409, Note_on_c, 0, 44, 63
2, 74505, Note_on_c, 0, 46, 68
2, 74522, Note_on_c, 0, 44, 0
2, 74553, Note_on_c, 0, 46, 0
2, 74571, Note_on_c, 0, 47, 76
2, 74666, Note_on_c, 0, 49, 74
2, 74667, Note_on_c, 0, 47, 0
2, 74745, Note_on_c, 0, 49, 0
2, 74753, Note_on_c, 0, 46, 77
2, 74854, Note_on_c, 0, 47, 78
2, 74907, Note_on_c, 0, 46, 0
2, 74925, Note_on_c, 0, 76, 0
2, 74980, Note_on_c, 0, 67, 0
2, 75034, Note_on_c, 0, 73, 85
2, 75047, Note_on_c, 0, 64, 60
2, 75087, Note_on_c, 0, 64, 0
2, 75090, Note_on_c, 0, 73, 0
2, 75207, Note_on_c, 0, 74, 92
2, 75219, Note_on_c, 0, 66, 80
2, 75253, Note_on_c, 0, 66, 0
2, 75280, Note_on_c, 0, 74, 0
2, 75387, Note_on_c, 0, 79, 94
2, 75399, Note_on_c, 0, 71, 81
2, 75468, Note_on_c, 0, 47, 0
2, 75472, Note_on_c, 0, 45, 68
2, 75558, Note_on_c, 0, 47, 78
2, 75569, Note_on_c, 0, 45, 0
2, 75623, Note_on_c, 0, 47, 0
2, 75644, Note_on_c, 0, 50, 76
2, 75737, Note_on_c, 0, 49, 76
2, 75751, Note_on_c, 0, 50, 0
2, 75829, Note_on_c, 0, 49, 0
2, 75835, Note_on_c, 0, 52, 76
2, 75927, Note_on_c, 0, 50, 82
2, 75928, Note_on_c, 0, 52, 0
2, 76032, Note_on_c, 0, 79, 0
2, 76106, Note_on_c, 0, 78, 82
2, 76107, Note_on_c, 0, 71, 0
2, 76116, Note_on_c, 0, 69, 66
2, 76152, Note_on_c, 0, 69, 0
2, 76164, Note_on_c, 0, 78, 0
2, 76275, Note_on_c, 0, 76, 80
2, 76288, Note_on_c, 0, 67, 58
2, 76315, Note_on_c, 0, 67, 0
2, 76339, Note_on_c, 0, 76, 0
2, 76456, Note_on_c, 0, 78, 90
2, 76465, Note_on_c, 0, 69, 63
2, 76508, Note_on_c, 0, 79, 27
2, 76533, Note_on_c, 0, 79, 0
2, 76548, Note_on_c, 0, 50, 0
2, 76558, Note_on_c, 0, 52, 63
2, 76618, Note_on_c, 0, 52, 0
2, 76646, Note_on_c, 0, 50, 68
2, 76702, Note_on_c, 0, 50, 0
2, 76731, Note_on_c, 0, 48, 64
2, 76798, Note_on_c, 0, 48, 0
2, 76814, Note_on_c, 0, 47, 64
2, 76880, Note_on_c, 0, 47, 0
2, 76900, Note_on_c, 0, 45, 57
2, 76975, Note_on_c, 0, 45, 0
2, 76978, Note_on_c, 0, 43, 69
2, 77001, Note_on_c, 0, 78, 0
2, 77003, Note_on_c, 0, 69, 0
2, 77069, Note_on_c, 0, 43, 0
2, 77075, Note_on_c, 0, 50, 67
2, 77120, Note_on_c, 0, 50, 0
2, 77160, Note_on_c, 0, 52, 68
2, 77171, Note_on_c, 0, 76, 77
2, 77187, Note_on_c, 0, 67, 49
2, 77214, Note_on_c, 0, 67, 0
2, 77225, Note_on_c, 0, 76, 0
2, 77233, Note_on_c, 0, 52, 0
2, 77248, Note_on_c, 0, 54, 70
2, 77335, Note_on_c, 0, 54, 0
2, 77338, Note_on_c, 0, 55, 70
2, 77343, Note_on_c, 0, 74, 78
2, 77354, Note_on_c, 0, 66, 67
2, 77391, Note_on_c, 0, 55, 0
2, 77398, Note_on_c, 0, 66, 0
2, 77404, Note_on_c, 0, 74, 0
2, 77432, Note_on_c, 0, 57, 66
2, 77515, Note_on_c, 0, 76, 80
2, 77522, Note_on_c, 0, 58, 68
2, 77525, Note_on_c, 0, 57, 0
2, 77527, Note_on_c, 0, 67, 57
2, 77565, Note_on_c, 0, 67, 0
2, 77569, Note_on_c, 0, 76, 0
2, 77701, Note_on_c, 0, 73, 80
2, 77703, Note_on_c, 0, 64, 60
2, 77741, Note_on_c, 0, 64, 0
2, 77745, Note_on_c, 0, 73, 0
2, 77878, Note_on_c, 0, 66, 74
2, 77878, Note_on_c, 0, 74, 72
2, 77933, Note_on_c, 0, 74, 0
2, 77934, Note_on_c, 0, 66, 0
2, 78091, Note_on_c, 0, 74, 66
2, 78097, Note_on_c, 0, 64, 60
2, 78126, Note_on_c, 0, 74, 0
2, 78136, Note_on_c, 0, 73, 71
2, 78145, Note_on_c, 0, 58, 0
2, 78166, Note_on_c, 0, 57, 59
2, 78175, Note_on_c, 0, 73, 0
2, 78189, Note_on_c, 0, 74, 71
2, 78223, Note_on_c, 0, 57, 0
2, 78251, Note_on_c, 0, 74, 0
2, 78261, Note_on_c, 0, 73, 70
2, 78271, Note_on_c, 0, 58, 52
2, 78313, Note_on_c, 0, 58, 0
2, 78342, Note_on_c, 0, 55, 61
2, 78356, Note_on_c, 0, 73, 0
2, 78397, Note_on_c, 0, 55, 0
2, 78427, Note_on_c, 0, 52, 56
2, 78506, Note_on_c, 0, 52, 0
2, 78520, Note_on_c, 0, 55, 58
2, 78529, Note_on_c, 0, 64, 0
2, 78560, Note_on_c, 0, 55, 0
2, 78597, Note_on_c, 0, 57, 55
2, 78610, Note_on_c, 0, 65, 59
2, 78647, Note_on_c, 0, 57, 0
2, 78659, Note_on_c, 0, 65, 0
2, 78684, Note_on_c, 0, 55, 50
2, 78713, Note_on_c, 0, 64, 52
2, 78744, Note_on_c, 0, 55, 0
2, 78762, Note_on_c, 0, 64, 0
2, 78787, Note_on_c, 0, 57, 46
2, 78798, Note_on_c, 0, 65, 55
2, 78832, Note_on_c, 0, 57, 0
2, 78838, Note_on_c, 0, 65, 0
2, 78862, Note_on_c, 0, 53, 35
2, 78874, Note_on_c, 0, 62, 55
2, 78921, Note_on_c, 0, 53, 0
2, 78936, Note_on_c, 0, 62, 0
2, 78953, Note_on_c, 0, 50, 50
2, 78955, Note_on_c, 0, 69, 56
2, 78999, Note_on_c, 0, 69, 0
2, 79021, Note_on_c, 0, 50, 0
2, 79034, Note_on_c, 0, 65, 54
2, 79043, Note_on_c, 0, 53, 52
2, 79096, Note_on_c, 0, 53, 0
2, 79120, Note_on_c, 0, 70, 66
2, 79137, Note_on_c, 0, 55, 51
2, 79183, Note_on_c, 0, 55, 0
2, 79214, Note_on_c, 0, 53, 53
2, 79265, Note_on_c, 0, 53, 0
2, 79269, Note_on_c, 0, 65, 0
2, 79293, Note_on_c, 0, 55, 54
2, 79301, Note_on_c, 0, 64, 60
2, 79334, Note_on_c, 0, 64, 0
2, 79338, Note_on_c, 0, 55, 0
2, 79366, Note_on_c, 0, 52, 57
2, 79442, Note_on_c, 0, 52, 0
2, 79478, Note_on_c, 0, 49, 56
2, 79484, Note_on_c, 0, 70, 0
2, 79489, Note_on_c, 0, 67, 72
2, 79545, Note_on_c, 0, 49, 0
2, 79570, Note_on_c, 0, 52, 56
2, 79614, Note_on_c, 0, 52, 0
2, 79652, Note_on_c, 0, 53, 61
2, 79657, Note_on_c, 0, 69, 72
2, 79713, Note_on_c, 0, 53, 0
2, 79713, Note_on_c, 0, 67, 0
2, 79736, Note_on_c, 0, 52, 65
2, 79798, Note_on_c, 0, 52, 0
2, 79826, Note_on_c, 0, 53, 66
2, 79847, Note_on_c, 0, 61, 66
2, 79891, Note_on_c, 0, 61, 0
2, 79894, Note_on_c, 0, 53, 0
2, 79905, Note_on_c, 0, 50, 74
2, 79979, Note_on_c, 0, 50, 0
2, 80005, Note_on_c, 0, 47, 61
2, 80010, Note_on_c, 0, 62, 73
2, 80016, Note_on_c, 0, 69, 0
2, 80076, Note_on_c, 0, 47, 0
2, 80083, Note_on_c, 0, 50, 68
2, 80151, Note_on_c, 0, 50, 0
2, 80174, Note_on_c, 0, 52, 72
2, 80175, Note_on_c, 0, 67, 81
2, 80249, Note_on_c, 0, 52, 0
2, 80265, Note_on_c, 0, 50, 73
2, 80340, Note_on_c, 0, 62, 0
2, 80356, Note_on_c, 0, 61, 61
2, 80375, Note_on_c, 0, 50, 0
2, 80392, Note_on_c, 0, 49, 67
2, 80399, Note_on_c, 0, 61, 0
2, 80466, Note_on_c, 0, 49, 0
2, 80489, Control_c, 0, 64, 44
2, 80506, Control_c, 0, 64, 53
2, 80518, Note_on_c, 0, 67, 0
2, 80521, Control_c, 0, 64, 58
2, 80535, Note_on_c, 0, 64, 72
2, 80537, Control_c, 0, 64, 63
2, 80537, Note_on_c, 0, 45, 72
2, 80551, Control_c, 0, 64, 66
2, 80566, Control_c, 0, 64, 66
2, 80612, Control_c, 0, 64, 65
2, 80627, Control_c, 0, 64, 62
2, 80628, Note_on_c, 0, 45, 0
2, 80634, Note_on_c, 0, 49, 58
2, 80642, Control_c, 0, 64, 54
2, 80658, Control_c, 0, 64, 41
2, 80671, Control_c, 0, 64, 31
2, 80686, Control_c, 0, 64, 0
2, 80708, Note_on_c, 0, 49, 0
2, 80718, Note_on_c, 0, 65, 75
2, 80728, Note_on_c, 0, 50, 60
2, 80769, Note_on_c, 0, 64, 0
2, 80782, Note_on_c, 0, 50, 0
2, 80791, Note_on_c, 0, 49, 65
2, 80857, Note_on_c, 0, 49, 0
2, 80870, Note_on_c, 0, 50, 69
2, 80897, Note_on_c, 0, 57, 67
2, 80944, Note_on_c, 0, 50, 0
2, 80964, Note_on_c, 0, 57, 0
2, 80965, Note_on_c, 0, 53, 72
2, 81030, Note_on_c, 0, 53, 0
2, 81062, Note_on_c, 0, 46, 70
2, 81062, Note_on_c, 0, 62, 79
2, 81064, Note_on_c, 0, 65, 0
2, 81105, Note_on_c, 0, 46, 0
2, 81158, Note_on_c, 0, 50, 68
2, 81196, Note_on_c, 0, 50, 0
2, 81240, Note_on_c, 0, 44, 60
2, 81240, Note_on_c, 0, 62, 0
2, 81249, Note_on_c, 0, 59, 69
2, 81285, Note_on_c, 0, 44, 0
2, 81326, Note_on_c, 0, 59, 0
2, 81329, Note_on_c, 0, 45, 59
2, 81345, Note_on_c, 0, 64, 74
2, 81374, Note_on_c, 0, 45, 0
2, 81387, Note_on_c, 0, 44, 67
2, 81420, Note_on_c, 0, 64, 0
2, 81427, Note_on_c, 0, 62, 78
2, 81433, Note_on_c, 0, 44, 0
2, 81458, Note_on_c, 0, 45, 74
2, 81494, Note_on_c, 0, 62, 0
2, 81507, Note_on_c, 0, 61, 77
2, 81509, Note_on_c, 0, 45, 0
2, 81516, Note_on_c, 0, 44, 70
2, 81554, Note_on_c, 0, 44, 0
2, 81571, Note_on_c, 0, 45, 75
2, 81575, Note_on_c, 0, 61, 0
2, 81586, Note_on_c, 0, 62, 86
2, 81629, Note_on_c, 0, 44, 70
2, 81631, Note_on_c, 0, 45, 0
2, 81669, Note_on_c, 0, 65, 83
2, 81676, Note_on_c, 0, 62, 0
2, 81679, Note_on_c, 0, 44, 0
2, 81696, Note_on_c, 0, 45, 73
2, 81746, Note_on_c, 0, 71, 90
2, 81748, Note_on_c, 0, 45, 0
2, 81748, Note_on_c, 0, 65, 0
2, 81754, Note_on_c, 0, 44, 67
2, 81804, Note_on_c, 0, 44, 0
2, 81824, Note_on_c, 0, 45, 75
2, 81847, Note_on_c, 0, 65, 85
2, 81864, Note_on_c, 0, 71, 0
2, 81878, Note_on_c, 0, 45, 0
2, 81881, Note_on_c, 0, 44, 72
2, 81922, Note_on_c, 0, 44, 0
2, 81929, Note_on_c, 0, 64, 87
2, 81944, Note_on_c, 0, 45, 76
2, 81944, Note_on_c, 0, 65, 0
2, 81997, Note_on_c, 0, 64, 0
2, 82003, Note_on_c, 0, 45, 0
2, 82005, Note_on_c, 0, 44, 72
2, 82009, Note_on_c, 0, 62, 86
2, 82049, Note_on_c, 0, 44, 0
2, 82063, Note_on_c, 0, 45, 75
2, 82095, Note_on_c, 0, 61, 88
2, 82122, Note_on_c, 0, 62, 0
2, 82136, Note_on_c, 0, 44, 79
2, 82136, Note_on_c, 0, 45, 0
2, 82177, Note_on_c, 0, 59, 77
2, 82184, Note_on_c, 0, 61, 0
2, 82201, Note_on_c, 0, 44, 0
2, 82224, Note_on_c, 0, 45, 48
2, 82250, Note_on_c, 0, 45, 0
2, 82268, Note_on_c, 0, 61, 90
2, 82269, Note_on_c, 0, 44, 48
2, 82291, Note_on_c, 0, 45, 87
2, 82301, Note_on_c, 0, 44, 0
2, 82313, Note_on_c, 0, 59, 0
2, 82339, Control_c, 0, 64, 30
2, 82340, Note_on_c, 0, 61, 0
2, 82352, Note_on_c, 0, 57, 76
2, 82354, Control_c, 0, 64, 38
2, 82369, Control_c, 0, 64, 45
2, 82384, Control_c, 0, 64, 49
2, 82400, Control_c, 0, 64, 50
2, 82431, Control_c, 0, 64, 50
2, 82446, Control_c, 0, 64, 45
2, 82454, Note_on_c, 0, 55, 82
2, 82461, Control_c, 0, 64, 36
2, 82472, Note_on_c, 0, 57, 0
2, 82477, Control_c, 0, 64, 0
2, 82500, Note_on_c, 0, 45, 0
2, 82543, Note_on_c, 0, 54, 86
2, 82562, Note_on_c, 0, 55, 0
2, 82633, Note_on_c, 0, 52, 85
2, 82656, Note_on_c, 0, 54, 0
2, 82702, Note_on_c, 0, 52, 0
2, 82712, Note_on_c, 0, 50, 83
2, 82795, Note_on_c, 0, 49, 89
2, 82812, Note_on_c, 0, 50, 0
2, 82871, Note_on_c, 0, 49, 0
2, 82880, Note_on_c, 0, 47, 78
2, 82951, Note_on_c, 0, 47, 0
2, 82963, Note_on_c, 0, 45, 84
2, 83054, Note_on_c, 0, 43, 80
2, 83057, Note_on_c, 0, 45, 0
2, 83122, Note_on_c, 0, 42, 79
2, 83127, Note_on_c, 0, 43, 0
2, 83204, Note_on_c, 0, 40, 74
2, 83210, Note_on_c, 0, 42, 0
2, 83318, Note_on_c, 0, 38, 78
2, 83321, Note_on_c, 0, 40, 0
2, 83517, Note_on_c, 0, 50, 65
2, 83555, Note_on_c, 0, 50, 0
2, 83595, Note_on_c, 0, 52, 66
2, 83672, Note_on_c, 0, 52, 0
2, 83675, Note_on_c, 0, 54, 76
2, 83733, Note_on_c, 0, 54, 0
2, 83755, Note_on_c, 0, 38, 0
2, 83755, Note_on_c, 0, 55, 77
2, 83837, Note_on_c, 0, 55, 0
2, 83840, Note_on_c, 0, 57, 76
2, 83894, Note_on_c, 0, 57, 0
2, 84011, Note_on_c, 0, 54, 77
2, 84073, Note_on_c, 0, 54, 0
2, 84192, Note_on_c, 0, 57, 70
2, 84244, Note_on_c, 0, 57, 0
2, 84357, Note_on_c, 0, 62, 78
2, 84419, Note_on_c, 0, 62, 0
2, 84513, Note_on_c, 0, 57, 78
2, 84569, Note_on_c, 0, 57, 0
2, 84669, Note_on_c, 0, 62, 80
2, 84733, Note_on_c, 0, 62, 0
2, 84843, Note_on_c, 0, 66, 87
2, 84911, Note_on_c, 0, 66, 0
2, 85014, Note_on_c, 0, 62, 82
2, 85075, Note_on_c, 0, 62, 0
2, 85173, Note_on_c, 0, 66, 83
2, 85238, Note_on_c, 0, 66, 0
2, 85356, Note_on_c, 0, 69, 84
2, 85488, Control_c, 0, 64, 48
2, 85503, Control_c, 0, 64, 61
2, 85519, Control_c, 0, 64, 68
2, 85533, Control_c, 0, 64, 80
2, 85548, Control_c, 0, 64, 127
2, 85575, Note_on_c, 0, 69, 0
2, 85921, Note_on_c, 0, 78, 86
2, 85925, Note_on_c, 0, 69, 73
2, 85929, Note_on_c, 0, 50, 62
2, 85935, Control_c, 0, 64, 88
2, 85951, Control_c, 0, 64, 70
2, 85966, Control_c, 0, 64, 58
2, 85981, Control_c, 0, 64, 0
2, 86057, Control_c, 0, 64, 52
2, 86072, Control_c, 0, 64, 64
2, 86087, Control_c, 0, 64, 71
2, 86102, Control_c, 0, 64, 85
2, 86118, Control_c, 0, 64, 99
2, 86133, Control_c, 0, 64, 115
2, 86136, Note_on_c, 0, 69, 0
2, 86141, Note_on_c, 0, 78, 0
2, 86148, Control_c, 0, 64, 127
2, 86164, Note_on_c, 0, 50, 0
2, 86415, Control_c, 0, 64, 111
2, 86431, Control_c, 0, 64, 97
2, 86446, Control_c, 0, 64, 85
2, 86460, Control_c, 0, 64, 73
2, 86461, Note_on_c, 0, 78, 83
2, 86469, Note_on_c, 0, 69, 79
2, 86472, Note_on_c, 0, 57, 63
2, 86476, Control_c, 0, 64, 64
2, 86491, Control_c, 0, 64, 49
2, 86505, Control_c, 0, 64, 0
2, 86732, Note_on_c, 0, 69, 0
2, 86746, Note_on_c, 0, 76, 72
2, 86747, Note_on_c, 0, 67, 58
2, 86756, Note_on_c, 0, 78, 0
2, 86883, Note_on_c, 0, 76, 0
2, 86913, Note_on_c, 0, 67, 0
2, 87010, Note_on_c, 0, 45, 55
2, 87010, Note_on_c, 0, 57, 0
2, 87016, Note_on_c, 0, 76, 79
2, 87034, Note_on_c, 0, 67, 64
2, 87269, Note_on_c, 0, 67, 0
2, 87300, Note_on_c, 0, 66, 57
2, 87300, Note_on_c, 0, 74, 71
2, 87302, Note_on_c, 0, 76, 0
2, 87455, Note_on_c, 0, 74, 0
2, 87475, Note_on_c, 0, 66, 0
2, 87572, Note_on_c, 0, 50, 47
2, 87585, Note_on_c, 0, 74, 69
2, 87600, Note_on_c, 0, 45, 0
2, 87601, Note_on_c, 0, 66, 62
2, 87609, Control_c, 0, 64, 44
2, 87623, Control_c, 0, 64, 63
2, 87639, Control_c, 0, 64, 72
2, 87654, Control_c, 0, 64, 90
2, 87660, Note_on_c, 0, 74, 0
2, 87669, Control_c, 0, 64, 127
2, 87730, Note_on_c, 0, 66, 0
2, 87769, Note_on_c, 0, 50, 0
2, 87775, Control_c, 0, 64, 105
2, 87791, Control_c, 0, 64, 74
2, 87794, Note_on_c, 0, 62, 59
2, 87806, Control_c, 0, 64, 62
2, 87821, Control_c, 0, 64, 0
2, 87823, Note_on_c, 0, 62, 0
2, 87871, Note_on_c, 0, 64, 61
2, 87936, Note_on_c, 0, 64, 0
2, 87956, Note_on_c, 0, 66, 62
2, 88002, Note_on_c, 0, 66, 0
2, 88032, Note_on_c, 0, 67, 74
2, 88094, Note_on_c, 0, 67, 0
2, 88114, Note_on_c, 0, 69, 77
2, 88158, Note_on_c, 0, 69, 0
2, 88284, Note_on_c, 0, 60, 65
2, 88288, Note_on_c, 0, 66, 78
2, 88330, Note_on_c, 0, 66, 0
2, 88340, Note_on_c, 0, 60, 0
2, 88361, Note_on_c, 0, 59, 71
2, 88423, Note_on_c, 0, 59, 0
2, 88432, Note_on_c, 0, 57, 73
2, 88453, Note_on_c, 0, 69, 80
2, 88496, Note_on_c, 0, 57, 0
2, 88512, Note_on_c, 0, 69, 0
2, 88521, Note_on_c, 0, 55, 67
2, 88599, Note_on_c, 0, 54, 77
2, 88601, Note_on_c, 0, 55, 0
2, 88615, Note_on_c, 0, 72, 83
2, 88646, Note_on_c, 0, 54, 0
2, 88685, Note_on_c, 0, 72, 0
2, 88783, Note_on_c, 0, 57, 73
2, 88786, Note_on_c, 0, 69, 79
2, 88826, Note_on_c, 0, 57, 0
2, 88845, Note_on_c, 0, 69, 0
2, 88947, Note_on_c, 0, 54, 80
2, 88952, Note_on_c, 0, 72, 83
2, 89002, Note_on_c, 0, 54, 0
2, 89018, Note_on_c, 0, 72, 0
2, 89117, Note_on_c, 0, 50, 73
2, 89117, Note_on_c, 0, 78, 87
2, 89179, Note_on_c, 0, 50, 0
2, 89194, Note_on_c, 0, 78, 0
2, 89277, Note_on_c, 0, 54, 83
2, 89279, Note_on_c, 0, 72, 91
2, 89329, Note_on_c, 0, 54, 0
2, 89339, Note_on_c, 0, 72, 0
2, 89438, Note_on_c, 0, 78, 95
2, 89447, Note_on_c, 0, 50, 76
2, 89494, Note_on_c, 0, 50, 0
2, 89520, Note_on_c, 0, 78, 0
2, 89607, Note_on_c, 0, 45, 80
2, 89609, Note_on_c, 0, 81, 85
2, 89662, Note_on_c, 0, 45, 0
2, 89785, Note_on_c, 0, 50, 84
2, 89826, Note_on_c, 0, 50, 0
2, 89847, Note_on_c, 0, 81, 0
2, 89955, Note_on_c, 0, 45, 78
2, 89992, Note_on_c, 0, 45, 0
2, 90130, Note_on_c, 0, 42, 73
2, 90130, Note_on_c, 0, 74, 79
2, 90133, Note_on_c, 0, 69, 67
2, 90173, Note_on_c, 0, 42, 0
2, 90180, Note_on_c, 0, 74, 0
2, 90187, Note_on_c, 0, 72, 70
2, 90238, Note_on_c, 0, 72, 0
2, 90264, Note_on_c, 0, 74, 67
2, 90270, Note_on_c, 0, 69, 0
2, 90270, Note_on_c, 0, 69, 12
2, 90298, Note_on_c, 0, 45, 60
2, 90310, Note_on_c, 0, 74, 0
2, 90321, Note_on_c, 0, 72, 66
2, 90333, Note_on_c, 0, 45, 0
2, 90472, Note_on_c, 0, 42, 68
2, 90498, Note_on_c, 0, 72, 0
2, 90513, Note_on_c, 0, 42, 0
2, 90534, Note_on_c, 0, 69, 0
2, 90659, Note_on_c, 0, 38, 56
2, 90660, Note_on_c, 0, 69, 64
2, 90660, Note_on_c, 0, 72, 75
2, 90952, Note_on_c, 0, 72, 0
2, 90955, Note_on_c, 0, 71, 78
2, 90956, Note_on_c, 0, 69, 0
2, 90966, Note_on_c, 0, 67, 49
2, 91111, Note_on_c, 0, 71, 0
2, 91152, Note_on_c, 0, 67, 0
2, 91224, Note_on_c, 0, 38, 0
2, 91243, Note_on_c, 0, 71, 70
2, 91256, Note_on_c, 0, 67, 60
2, 91257, Note_on_c, 0, 50, 46
2, 91514, Note_on_c, 0, 71, 0
2, 91534, Note_on_c, 0, 67, 0
2, 91549, Note_on_c, 0, 66, 54
2, 91554, Note_on_c, 0, 69, 63
2, 91822, Note_on_c, 0, 66, 0
2, 91835, Note_on_c, 0, 71, 68
2, 91838, Note_on_c, 0, 69, 0
2, 91840, Note_on_c, 0, 67, 54
2, 91852, Note_on_c, 0, 43, 43
2, 91856, Note_on_c, 0, 50, 0
2, 91875, Note_on_c, 0, 71, 0
2, 91878, Note_on_c, 0, 67, 0
2, 91896, Control_c, 0, 64, 31
2, 91912, Control_c, 0, 64, 64
2, 91927, Control_c, 0, 64, 75
2, 91941, Control_c, 0, 64, 97
2, 91958, Control_c, 0, 64, 127
2, 92046, Note_on_c, 0, 43, 0
2, 92064, Control_c, 0, 64, 90
2, 92077, Note_on_c, 0, 83, 82
2, 92080, Control_c, 0, 64, 69
2, 92095, Control_c, 0, 64, 46
2, 92109, Control_c, 0, 64, 0
2, 92153, Note_on_c, 0, 81, 80
2, 92162, Note_on_c, 0, 83, 0
2, 92233, Note_on_c, 0, 79, 85
2, 92237, Note_on_c, 0, 81, 0
2, 92246, Note_on_c, 0, 50, 73
2, 92275, Note_on_c, 0, 50, 0
2, 92318, Note_on_c, 0, 78, 86
2, 92325, Note_on_c, 0, 79, 0
2, 92395, Note_on_c, 0, 78, 0
2, 92405, Note_on_c, 0, 55, 78
2, 92406, Note_on_c, 0, 76, 84
2, 92460, Note_on_c, 0, 76, 0
2, 92562, Note_on_c, 0, 55, 0
2, 92594, Note_on_c, 0, 79, 86
2, 92655, Note_on_c, 0, 79, 0
2, 92759, Note_on_c, 0, 55, 67
2, 92773, Note_on_c, 0, 76, 75
2, 92796, Note_on_c, 0, 55, 0
2, 92819, Note_on_c, 0, 76, 0
2, 92908, Control_c, 0, 64, 23
2, 92920, Note_on_c, 0, 55, 55
2, 92924, Control_c, 0, 64, 62
2, 92936, Note_on_c, 0, 73, 72
2, 92938, Control_c, 0, 64, 71
2, 92954, Control_c, 0, 64, 88
2, 92957, Note_on_c, 0, 55, 0
2, 92964, Note_on_c, 0, 54, 66
2, 92969, Control_c, 0, 64, 127
2, 92972, Note_on_c, 0, 73, 0
2, 93009, Note_on_c, 0, 54, 0
2, 93024, Note_on_c, 0, 55, 70
2, 93046, Control_c, 0, 64, 94
2, 93060, Control_c, 0, 64, 72
2, 93076, Control_c, 0, 64, 52
2, 93091, Control_c, 0, 64, 0
2, 93123, Note_on_c, 0, 57, 67
2, 93149, Note_on_c, 0, 55, 0
2, 93171, Note_on_c, 0, 57, 0
2, 93202, Note_on_c, 0, 59, 68
2, 93269, Note_on_c, 0, 59, 0
2, 93277, Note_on_c, 0, 61, 71
2, 93343, Note_on_c, 0, 61, 0
2, 93363, Note_on_c, 0, 62, 76
2, 93432, Note_on_c, 0, 62, 0
2, 93456, Note_on_c, 0, 64, 77
2, 93492, Note_on_c, 0, 64, 0
2, 93630, Note_on_c, 0, 45, 67
2, 93636, Note_on_c, 0, 61, 75
2, 93683, Note_on_c, 0, 61, 0
2, 93687, Note_on_c, 0, 45, 0
2, 93717, Note_on_c, 0, 43, 67
2, 93766, Note_on_c, 0, 43, 0
2, 93783, Note_on_c, 0, 42, 67
2, 93807, Note_on_c, 0, 64, 65
2, 93854, Note_on_c, 0, 42, 0
2, 93860, Note_on_c, 0, 64, 0
2, 93883, Note_on_c, 0, 40, 67
2, 93958, Note_on_c, 0, 69, 60
2, 93969, Note_on_c, 0, 40, 0
2, 93977, Note_on_c, 0, 42, 77
2, 93984, Note_on_c, 0, 69, 0
2, 93996, Control_c, 0, 64, 37
2, 94011, Control_c, 0, 64, 57
2, 94025, Control_c, 0, 64, 65
2, 94041, Control_c, 0, 64, 71
2, 94063, Control_c, 0, 64, 80
2, 94079, Control_c, 0, 64, 93
2, 94094, Control_c, 0, 64, 127
2, 94159, Note_on_c, 0, 42, 0
2, 94171, Control_c, 0, 64, 108
2, 94180, Note_on_c, 0, 81, 73
2, 94185, Control_c, 0, 64, 82
2, 94201, Control_c, 0, 64, 67
2, 94216, Control_c, 0, 64, 45
2, 94230, Control_c, 0, 64, 0
2, 94260, Note_on_c, 0, 79, 81
2, 94270, Note_on_c, 0, 81, 0
2, 94341, Note_on_c, 0, 54, 72
2, 94341, Note_on_c, 0, 79, 0
2, 94348, Note_on_c, 0, 78, 75
2, 94378, Note_on_c, 0, 54, 0
2, 94436, Note_on_c, 0, 78, 0
2, 94440, Note_on_c, 0, 76, 71
2, 94493, Note_on_c, 0, 76, 0
2, 94522, Note_on_c, 0, 74, 80
2, 94524, Note_on_c, 0, 54, 69
2, 94582, Note_on_c, 0, 74, 0
2, 94679, Note_on_c, 0, 54, 0
2, 94705, Note_on_c, 0, 78, 79
2, 94770, Note_on_c, 0, 78, 0
2, 94883, Note_on_c, 0, 54, 60
2, 94895, Note_on_c, 0, 74, 68
2, 94923, Note_on_c, 0, 54, 0
2, 94936, Note_on_c, 0, 74, 0
2, 95045, Control_c, 0, 64, 24
2, 95055, Note_on_c, 0, 54, 53
2, 95060, Control_c, 0, 64, 51
2, 95061, Note_on_c, 0, 71, 66
2, 95075, Control_c, 0, 64, 60
2, 95090, Control_c, 0, 64, 68
2, 95097, Note_on_c, 0, 71, 0
2, 95105, Control_c, 0, 64, 78
2, 95121, Control_c, 0, 64, 94
2, 95136, Control_c, 0, 64, 127
2, 95244, Control_c, 0, 64, 105
2, 95258, Control_c, 0, 64, 89
2, 95262, Note_on_c, 0, 54, 0
2, 95262, Note_on_c, 0, 55, 58
2, 95274, Control_c, 0, 64, 76
2, 95289, Control_c, 0, 64, 66
2, 95303, Control_c, 0, 64, 55
2, 95306, Note_on_c, 0, 55, 0
2, 95319, Control_c, 0, 64, 0
2, 95341, Note_on_c, 0, 57, 58
2, 95395, Note_on_c, 0, 57, 0
2, 95427, Note_on_c, 0, 59, 65
2, 95497, Note_on_c, 0, 59, 0
2, 95501, Note_on_c, 0, 61, 75
2, 95596, Note_on_c, 0, 62, 79
2, 95605, Note_on_c, 0, 61, 0
2, 95656, Note_on_c, 0, 62, 0
2, 95761, Note_on_c, 0, 43, 70
2, 95773, Note_on_c, 0, 59, 80
2, 95826, Note_on_c, 0, 43, 0
2, 95829, Note_on_c, 0, 59, 0
2, 95843, Note_on_c, 0, 42, 69
2, 95886, Note_on_c, 0, 42, 0
2, 95918, Note_on_c, 0, 40, 67
2, 95926, Note_on_c, 0, 62, 79
2, 95977, Note_on_c, 0, 40, 0
2, 95980, Note_on_c, 0, 62, 0
2, 96007, Note_on_c, 0, 38, 55
2, 96088, Control_c, 0, 64, 44
2, 96094, Note_on_c, 0, 38, 0
2, 96100, Note_on_c, 0, 67, 83
2, 96102, Control_c, 0, 64, 64
2, 96104, Note_on_c, 0, 40, 57
2, 96118, Control_c, 0, 64, 71
2, 96133, Control_c, 0, 64, 84
2, 96133, Note_on_c, 0, 40, 0
2, 96147, Control_c, 0, 64, 95
2, 96163, Control_c, 0, 64, 117
2, 96178, Control_c, 0, 64, 127
2, 96181, Note_on_c, 0, 67, 0
2, 96291, Note_on_c, 0, 59, 79
2, 96366, Control_c, 0, 64, 111
2, 96376, Note_on_c, 0, 59, 0
2, 96379, Note_on_c, 0, 57, 76
2, 96381, Control_c, 0, 64, 83
2, 96396, Control_c, 0, 64, 68
2, 96412, Control_c, 0, 64, 50
2, 96427, Control_c, 0, 64, 0
2, 96443, Note_on_c, 0, 55, 79
2, 96443, Note_on_c, 0, 57, 0
2, 96450, Note_on_c, 0, 71, 77
2, 96455, Note_on_c, 0, 67, 71
2, 96506, Note_on_c, 0, 71, 0
2, 96511, Note_on_c, 0, 67, 0
2, 96526, Note_on_c, 0, 55, 0
2, 96541, Note_on_c, 0, 54, 65
2, 96621, Note_on_c, 0, 52, 70
2, 96622, Note_on_c, 0, 54, 0
2, 96624, Note_on_c, 0, 71, 85
2, 96632, Note_on_c, 0, 67, 72
2, 96646, Note_on_c, 0, 52, 0
2, 96816, Note_on_c, 0, 55, 66
2, 96850, Note_on_c, 0, 55, 0
2, 96851, Note_on_c, 0, 71, 0
2, 96868, Note_on_c, 0, 67, 0
2, 96987, Note_on_c, 0, 52, 58
2, 96996, Note_on_c, 0, 71, 67
2, 97000, Note_on_c, 0, 67, 66
2, 97018, Note_on_c, 0, 52, 0
2, 97049, Note_on_c, 0, 67, 0
2, 97055, Note_on_c, 0, 71, 0
2, 97162, Note_on_c, 0, 49, 70
2, 97171, Note_on_c, 0, 71, 73
2, 97188, Note_on_c, 0, 67, 52
2, 97193, Note_on_c, 0, 49, 0
2, 97296, Note_on_c, 0, 71, 0
2, 97341, Note_on_c, 0, 69, 61
2, 97344, Note_on_c, 0, 52, 55
2, 97375, Note_on_c, 0, 52, 0
2, 97523, Note_on_c, 0, 49, 43
2, 97559, Note_on_c, 0, 49, 0
2, 97690, Note_on_c, 0, 45, 54
2, 97702, Note_on_c, 0, 67, 0
2, 97713, Note_on_c, 0, 69, 0
2, 97724, Note_on_c, 0, 45, 0
2, 97872, Note_on_c, 0, 49, 40
2, 97883, Note_on_c, 0, 69, 46
2, 97915, Note_on_c, 0, 49, 0
2, 97950, Note_on_c, 0, 69, 0
2, 97972, Note_on_c, 0, 67, 51
2, 98032, Note_on_c, 0, 67, 0
2, 98042, Note_on_c, 0, 45, 39
2, 98054, Note_on_c, 0, 66, 56
2, 98081, Note_on_c, 0, 45, 0
2, 98110, Note_on_c, 0, 66, 0
2, 98135, Note_on_c, 0, 64, 61
2, 98199, Note_on_c, 0, 64, 0
2, 98208, Note_on_c, 0, 50, 56
2, 98228, Note_on_c, 0, 66, 66
2, 98247, Note_on_c, 0, 50, 0
2, 98266, Note_on_c, 0, 66, 0
2, 98378, Note_on_c, 0, 54, 67
2, 98386, Note_on_c, 0, 62, 50
2, 98417, Note_on_c, 0, 54, 0
2, 98454, Note_on_c, 0, 62, 0
2, 98463, Note_on_c, 0, 64, 62
2, 98529, Note_on_c, 0, 64, 0
2, 98551, Note_on_c, 0, 50, 55
2, 98552, Note_on_c, 0, 66, 64
2, 98594, Note_on_c, 0, 50, 0
2, 98595, Note_on_c, 0, 66, 0
2, 98643, Note_on_c, 0, 67, 65
2, 98715, Note_on_c, 0, 67, 0
2, 98722, Note_on_c, 0, 47, 62
2, 98734, Note_on_c, 0, 74, 73
2, 98735, Note_on_c, 0, 69, 70
2, 98763, Note_on_c, 0, 47, 0
2, 98842, Note_on_c, 0, 69, 0
2, 98842, Note_on_c, 0, 69, 4
2, 98887, Note_on_c, 0, 69, 0
2, 98888, Note_on_c, 0, 74, 0
2, 98901, Note_on_c, 0, 50, 71
2, 98913, Note_on_c, 0, 67, 71
2, 98944, Note_on_c, 0, 50, 0
2, 98988, Note_on_c, 0, 67, 0
2, 98995, Note_on_c, 0, 66, 72
2, 99069, Note_on_c, 0, 47, 60
2, 99076, Note_on_c, 0, 64, 71
2, 99089, Note_on_c, 0, 66, 0
2, 99116, Note_on_c, 0, 47, 0
2, 99155, Note_on_c, 0, 62, 74
2, 99165, Note_on_c, 0, 64, 0
2, 99182, Note_on_c, 0, 64, 43
2, 99231, Note_on_c, 0, 64, 0
2, 99234, Note_on_c, 0, 52, 73
2, 99241, Note_on_c, 0, 62, 0
2, 99244, Note_on_c, 0, 67, 69
2, 99244, Note_on_c, 0, 71, 77
2, 99268, Note_on_c, 0, 52, 0
2, 99396, Note_on_c, 0, 67, 0
2, 99404, Note_on_c, 0, 55, 71
2, 99406, Note_on_c, 0, 71, 0
2, 99433, Note_on_c, 0, 64, 78
2, 99463, Note_on_c, 0, 55, 0
2, 99497, Note_on_c, 0, 64, 0
2, 99505, Note_on_c, 0, 66, 80
2, 99568, Note_on_c, 0, 66, 0
2, 99571, Note_on_c, 0, 52, 69
2, 99589, Note_on_c, 0, 67, 86
2, 99605, Note_on_c, 0, 52, 0
2, 99657, Note_on_c, 0, 67, 0
2, 99659, Note_on_c, 0, 69, 82
2, 99746, Note_on_c, 0, 71, 87
2, 99748, Note_on_c, 0, 49, 75
2, 99748, Note_on_c, 0, 76, 84
2, 99754, Note_on_c, 0, 69, 0
2, 99792, Note_on_c, 0, 49, 0
2, 99913, Note_on_c, 0, 71, 0
2, 99913, Note_on_c, 0, 71, 3
2, 99921, Note_on_c, 0, 52, 68
2, 99930, Note_on_c, 0, 69, 80
2, 99933, Note_on_c, 0, 71, 0
2, 99936, Note_on_c, 0, 76, 0
2, 99953, Note_on_c, 0, 52, 0
2, 99987, Note_on_c, 0, 69, 0
2, 100009, Note_on_c, 0, 67, 77
2, 100092, Note_on_c, 0, 67, 0
2, 100094, Note_on_c, 0, 49, 66
2, 100102, Note_on_c, 0, 66, 68
2, 100128, Note_on_c, 0, 49, 0
2, 100138, Note_on_c, 0, 66, 0
2, 100168, Note_on_c, 0, 64, 77
2, 100211, Note_on_c, 0, 64, 0
2, 100260, Note_on_c, 0, 54, 78
2, 100273, Note_on_c, 0, 69, 78
2, 100294, Note_on_c, 0, 54, 0
2, 100457, Note_on_c, 0, 50, 57
2, 100531, Note_on_c, 0, 50, 0
2, 100531, Note_on_c, 0, 52, 63
2, 100597, Note_on_c, 0, 69, 0
2, 100608, Note_on_c, 0, 52, 0
2, 100608, Note_on_c, 0, 67, 75
2, 100613, Note_on_c, 0, 54, 73
2, 100687, Note_on_c, 0, 54, 0
2, 100708, Note_on_c, 0, 55, 74
2, 100774, Note_on_c, 0, 55, 0
2, 100778, Note_on_c, 0, 74, 79
2, 100780, Note_on_c, 0, 67, 0
2, 100785, Note_on_c, 0, 57, 82
2, 100785, Note_on_c, 0, 66, 74
2, 100815, Note_on_c, 0, 57, 0
2, 100973, Note_on_c, 0, 55, 80
2, 101047, Note_on_c, 0, 54, 81
2, 101057, Note_on_c, 0, 55, 0
2, 101126, Note_on_c, 0, 52, 71
2, 101128, Note_on_c, 0, 72, 80
2, 101130, Note_on_c, 0, 74, 0
2, 101131, Note_on_c, 0, 54, 0
2, 101196, Note_on_c, 0, 72, 0
2, 101220, Note_on_c, 0, 50, 73
2, 101223, Note_on_c, 0, 66, 0
2, 101229, Note_on_c, 0, 52, 0
2, 101297, Note_on_c, 0, 71, 81
2, 101298, Note_on_c, 0, 55, 83
2, 101306, Note_on_c, 0, 50, 0
2, 101335, Note_on_c, 0, 55, 0
2, 101468, Note_on_c, 0, 52, 68
2, 101542, Note_on_c, 0, 54, 81
2, 101573, Note_on_c, 0, 52, 0
2, 101626, Note_on_c, 0, 55, 81
2, 101643, Note_on_c, 0, 69, 85
2, 101649, Note_on_c, 0, 71, 0
2, 101655, Note_on_c, 0, 54, 0
2, 101712, Note_on_c, 0, 57, 87
2, 101719, Note_on_c, 0, 55, 0
2, 101805, Note_on_c, 0, 57, 0
2, 101809, Note_on_c, 0, 59, 84
2, 101826, Note_on_c, 0, 69, 0
2, 101831, Note_on_c, 0, 67, 87
2, 101846, Note_on_c, 0, 59, 0
2, 101846, Note_on_c, 0, 64, 68
2, 101988, Note_on_c, 0, 57, 80
2, 102025, Note_on_c, 0, 67, 0
2, 102025, Note_on_c, 0, 67, 14
2, 102054, Note_on_c, 0, 57, 0
2, 102056, Note_on_c, 0, 64, 0
2, 102061, Note_on_c, 0, 55, 75
2, 102145, Note_on_c, 0, 54, 76
2, 102145, Note_on_c, 0, 55, 0
2, 102152, Note_on_c, 0, 62, 65
2, 102201, Note_on_c, 0, 62, 0
2, 102227, Note_on_c, 0, 54, 0
2, 102228, Note_on_c, 0, 52, 71
2, 102324, Note_on_c, 0, 52, 0
2, 102325, Note_on_c, 0, 57, 81
2, 102329, Note_on_c, 0, 61, 75
2, 102335, Control_c, 0, 64, 41
2, 102349, Control_c, 0, 64, 65
2, 102365, Control_c, 0, 64, 83
2, 102365, Note_on_c, 0, 67, 0
2, 102378, Note_on_c, 0, 57, 0
2, 102380, Control_c, 0, 64, 127
2, 102411, Note_on_c, 0, 61, 0
2, 102458, Note_on_c, 0, 67, 21
2, 102499, Note_on_c, 0, 67, 0
2, 102521, Note_on_c, 0, 57, 72
2, 102539, Control_c, 0, 64, 90
2, 102554, Control_c, 0, 64, 67
2, 102570, Control_c, 0, 64, 33
2, 102585, Control_c, 0, 64, 0
2, 102587, Note_on_c, 0, 57, 0
2, 102607, Note_on_c, 0, 59, 76
2, 102672, Note_on_c, 0, 59, 0
2, 102686, Note_on_c, 0, 61, 70
2, 102687, Note_on_c, 0, 45, 67
2, 102734, Note_on_c, 0, 45, 0
2, 102763, Note_on_c, 0, 61, 0
2, 102781, Note_on_c, 0, 62, 73
2, 102834, Note_on_c, 0, 62, 0
2, 102856, Note_on_c, 0, 45, 73
2, 102856, Note_on_c, 0, 64, 76
2, 102858, Note_on_c, 0, 67, 69
2, 102982, Note_on_c, 0, 64, 0
2, 103037, Note_on_c, 0, 61, 80
2, 103057, Note_on_c, 0, 45, 0
2, 103104, Note_on_c, 0, 61, 0
2, 103137, Note_on_c, 0, 67, 0
2, 103193, Note_on_c, 0, 45, 73
2, 103204, Note_on_c, 0, 64, 89
2, 103270, Note_on_c, 0, 64, 0
2, 103272, Note_on_c, 0, 45, 0
2, 103373, Note_on_c, 0, 67, 81
2, 103379, Note_on_c, 0, 73, 77
2, 103381, Note_on_c, 0, 45, 72
2, 103466, Note_on_c, 0, 67, 0
2, 103554, Note_on_c, 0, 64, 86
2, 103606, Note_on_c, 0, 64, 0
2, 103705, Note_on_c, 0, 73, 0
2, 103716, Note_on_c, 0, 67, 90
2, 103772, Note_on_c, 0, 67, 0
2, 103883, Note_on_c, 0, 76, 82
2, 103885, Note_on_c, 0, 73, 85
2, 103960, Note_on_c, 0, 45, 0
2, 104010, Note_on_c, 0, 73, 0
2, 104074, Note_on_c, 0, 67, 87
2, 104139, Note_on_c, 0, 67, 0
2, 104153, Note_on_c, 0, 52, 70
2, 104227, Note_on_c, 0, 54, 82
2, 104230, Note_on_c, 0, 52, 0
2, 104263, Note_on_c, 0, 76, 0
2, 104265, Note_on_c, 0, 73, 75
2, 104306, Note_on_c, 0, 54, 0
2, 104306, Note_on_c, 0, 73, 0
2, 104309, Note_on_c, 0, 55, 89
2, 104390, Note_on_c, 0, 55, 0
2, 104405, Note_on_c, 0, 57, 86
2, 104417, Note_on_c, 0, 66, 86
2, 104476, Note_on_c, 0, 66, 0
2, 104487, Control_c, 0, 64, 63
2, 104502, Control_c, 0, 64, 78
2, 104516, Control_c, 0, 64, 127
2, 104585, Note_on_c, 0, 57, 0
2, 104590, Note_on_c, 0, 74, 89
2, 104623, Control_c, 0, 64, 87
2, 104639, Control_c, 0, 64, 69
2, 104654, Control_c, 0, 64, 55
2, 104668, Control_c, 0, 64, 0
2, 104679, Note_on_c, 0, 73, 86
2, 104680, Note_on_c, 0, 74, 0
2, 104759, Note_on_c, 0, 71, 75
2, 104759, Note_on_c, 0, 73, 0
2, 104765, Note_on_c, 0, 45, 60
2, 104812, Note_on_c, 0, 45, 0
2, 104823, Note_on_c, 0, 71, 0
2, 104835, Note_on_c, 0, 69, 77
2, 104866, Note_on_c, 0, 69, 0
2, 104932, Note_on_c, 0, 45, 68
2, 104933, Note_on_c, 0, 68, 79
2, 104950, Note_on_c, 0, 62, 78
2, 105024, Note_on_c, 0, 68, 0
2, 105105, Note_on_c, 0, 45, 0
2, 105122, Note_on_c, 0, 71, 80
2, 105187, Note_on_c, 0, 71, 0
2, 105260, Note_on_c, 0, 62, 0
2, 105294, Note_on_c, 0, 68, 80
2, 105301, Note_on_c, 0, 45, 57
2, 105340, Note_on_c, 0, 45, 0
2, 105361, Note_on_c, 0, 68, 0
2, 105455, Note_on_c, 0, 45, 55
2, 105463, Note_on_c, 0, 62, 72
2, 105464, Note_on_c, 0, 59, 59
2, 105536, Note_on_c, 0, 62, 0
2, 105644, Note_on_c, 0, 68, 69
2, 105708, Note_on_c, 0, 68, 0
2, 105774, Note_on_c, 0, 59, 0
2, 105815, Note_on_c, 0, 62, 75
2, 105866, Note_on_c, 0, 62, 0
2, 105977, Note_on_c, 0, 59, 54
2, 105985, Note_on_c, 0, 56, 57
2, 106049, Note_on_c, 0, 45, 0
2, 106057, Note_on_c, 0, 59, 0
2, 106153, Note_on_c, 0, 62, 67
2, 106232, Note_on_c, 0, 62, 0
2, 106325, Note_on_c, 0, 59, 65
2, 106364, Note_on_c, 0, 56, 0
2, 106368, Note_on_c, 0, 59, 0
2, 106505, Note_on_c, 0, 61, 63
2, 106513, Note_on_c, 0, 57, 48
2, 106685, Note_on_c, 0, 61, 0
2, 106693, Note_on_c, 0, 59, 61
2, 106708, Note_on_c, 0, 57, 0
2, 106737, Note_on_c, 0, 59, 0
2, 106755, Note_on_c, 0, 42, 52
2, 106799, Note_on_c, 0, 42, 0
2, 106831, Note_on_c, 0, 43, 49
2, 106860, Note_on_c, 0, 57, 56
2, 106868, Note_on_c, 0, 55, 47
2, 106877, Note_on_c, 0, 43, 0
2, 106913, Note_on_c, 0, 55, 0
2, 106929, Note_on_c, 0, 57, 0
2, 106930, Note_on_c, 0, 45, 56
2, 106966, Note_on_c, 0, 45, 0
2, 107015, Note_on_c, 0, 47, 65
2, 107033, Note_on_c, 0, 62, 62
2, 107041, Note_on_c, 0, 54, 65
2, 107046, Note_on_c, 0, 47, 0
2, 107203, Note_on_c, 0, 45, 72
2, 107206, Note_on_c, 0, 62, 0
2, 107231, Note_on_c, 0, 45, 0
2, 107258, Note_on_c, 0, 54, 0
2, 107380, Note_on_c, 0, 43, 69
2, 107393, Note_on_c, 0, 67, 65
2, 107416, Note_on_c, 0, 43, 0
2, 107423, Note_on_c, 0, 64, 38
2, 107464, Note_on_c, 0, 64, 0
2, 107538, Note_on_c, 0, 67, 0
2, 107553, Note_on_c, 0, 45, 71
2, 107571, Note_on_c, 0, 61, 65
2, 107590, Control_c, 0, 64, 21
2, 107606, Control_c, 0, 64, 50
2, 107621, Control_c, 0, 64, 57
2, 107635, Control_c, 0, 64, 63
2, 107651, Control_c, 0, 64, 71
2, 107666, Control_c, 0, 64, 93
2, 107672, Note_on_c, 0, 45, 0
2, 107682, Control_c, 0, 64, 127
2, 107747, Note_on_c, 0, 61, 0
2, 107752, Note_on_c, 0, 66, 77
2, 107787, Control_c, 0, 64, 105
2, 107803, Control_c, 0, 64, 80
2, 107818, Control_c, 0, 64, 66
2, 107825, Note_on_c, 0, 64, 78
2, 107828, Note_on_c, 0, 66, 0
2, 107833, Control_c, 0, 64, 48
2, 107848, Control_c, 0, 64, 0
2, 107917, Note_on_c, 0, 64, 0
2, 107924, Note_on_c, 0, 57, 69
2, 107927, Note_on_c, 0, 66, 79
2, 107934, Note_on_c, 0, 62, 61
2, 107972, Note_on_c, 0, 57, 0
2, 108090, Note_on_c, 0, 66, 0
2, 108106, Note_on_c, 0, 64, 74
2, 108111, Note_on_c, 0, 57, 62
2, 108189, Control_c, 0, 64, 37
2, 108205, Control_c, 0, 64, 62
2, 108208, Note_on_c, 0, 57, 0
2, 108220, Control_c, 0, 64, 75
2, 108235, Control_c, 0, 64, 127
2, 108301, Note_on_c, 0, 61, 67
2, 108305, Note_on_c, 0, 62, 0
2, 108308, Note_on_c, 0, 64, 0
2, 108327, Note_on_c, 0, 61, 0
2, 108381, Note_on_c, 0, 59, 66
2, 108404, Control_c, 0, 64, 94
2, 108419, Control_c, 0, 64, 81
2, 108433, Control_c, 0, 64, 71
2, 108443, Note_on_c, 0, 45, 65
2, 108449, Control_c, 0, 64, 62
2, 108456, Note_on_c, 0, 69, 66
2, 108464, Control_c, 0, 64, 29
2, 108464, Note_on_c, 0, 59, 0
2, 108480, Control_c, 0, 64, 0
2, 108484, Note_on_c, 0, 45, 0
2, 108631, Control_c, 0, 64, 24
2, 108632, Note_on_c, 0, 69, 0
2, 108654, Control_c, 0, 64, 63
2, 108663, Note_on_c, 0, 50, 86
2, 108669, Control_c, 0, 64, 79
2, 108685, Control_c, 0, 64, 127
2, 108685, Note_on_c, 0, 66, 78
2, 108744, Note_on_c, 0, 66, 0
2, 108790, Note_on_c, 0, 69, 84
2, 108826, Note_on_c, 0, 50, 0
2, 108855, Note_on_c, 0, 69, 0
2, 108870, Note_on_c, 0, 71, 87
2, 108899, Control_c, 0, 64, 88
2, 108915, Control_c, 0, 64, 66
2, 108930, Control_c, 0, 64, 0
2, 108955, Note_on_c, 0, 73, 86
2, 108960, Note_on_c, 0, 71, 0
2, 109013, Note_on_c, 0, 73, 0
2, 109019, Note_on_c, 0, 57, 77
2, 109029, Note_on_c, 0, 74, 85
2, 109045, Note_on_c, 0, 57, 0
2, 109099, Note_on_c, 0, 74, 0
2, 109107, Note_on_c, 0, 76, 86
2, 109170, Note_on_c, 0, 62, 69
2, 109188, Note_on_c, 0, 76, 0
2, 109198, Note_on_c, 0, 78, 90
2, 109226, Note_on_c, 0, 62, 0
2, 109241, Note_on_c, 0, 61, 63
2, 109267, Note_on_c, 0, 61, 0
2, 109280, Note_on_c, 0, 76, 82
2, 109288, Note_on_c, 0, 62, 19
2, 109290, Note_on_c, 0, 78, 0
2, 109332, Note_on_c, 0, 76, 0
2, 109346, Note_on_c, 0, 74, 81
2, 109440, Note_on_c, 0, 73, 84
2, 109441, Note_on_c, 0, 74, 0
2, 109525, Note_on_c, 0, 71, 78
2, 109537, Note_on_c, 0, 73, 0
2, 109579, Note_on_c, 0, 71, 0
2, 109597, Note_on_c, 0, 69, 76
2, 109677, Note_on_c, 0, 69, 0
2, 109680, Note_on_c, 0, 68, 79
2, 109722, Note_on_c, 0, 68, 0
2, 109837, Note_on_c, 0, 62, 0
2, 109846, Note_on_c, 0, 64, 69
2, 109847, Note_on_c, 0, 71, 83
2, 109882, Note_on_c, 0, 71, 0
2, 109888, Note_on_c, 0, 64, 0
2, 109922, Note_on_c, 0, 62, 73
2, 109974, Note_on_c, 0, 62, 0
2, 109998, Note_on_c, 0, 61, 73
2, 110019, Note_on_c, 0, 76, 80
2, 110047, Note_on_c, 0, 61, 0
2, 110068, Note_on_c, 0, 76, 0
2, 110078, Note_on_c, 0, 59, 69
2, 110167, Note_on_c, 0, 59, 0
2, 110180, Note_on_c, 0, 58, 87
2, 110189, Note_on_c, 0, 76, 83
2, 110222, Control_c, 0, 64, 47
2, 110227, Note_on_c, 0, 58, 0
2, 110237, Control_c, 0, 64, 63
2, 110252, Control_c, 0, 64, 67
2, 110267, Control_c, 0, 64, 71
2, 110283, Control_c, 0, 64, 72
2, 110329, Control_c, 0, 64, 71
2, 110344, Control_c, 0, 64, 69
2, 110359, Control_c, 0, 64, 66
2, 110374, Control_c, 0, 64, 63
2, 110378, Note_on_c, 0, 73, 71
2, 110386, Note_on_c, 0, 59, 62
2, 110389, Control_c, 0, 64, 53
2, 110405, Control_c, 0, 64, 0
2, 110439, Note_on_c, 0, 73, 0
2, 110444, Note_on_c, 0, 59, 0
2, 110459, Note_on_c, 0, 58, 62
2, 110509, Note_on_c, 0, 58, 0
2, 110513, Note_on_c, 0, 76, 0
2, 110531, Note_on_c, 0, 56, 69
2, 110536, Note_on_c, 0, 70, 76
2, 110573, Note_on_c, 0, 70, 0
2, 110598, Note_on_c, 0, 56, 0
2, 110611, Note_on_c, 0, 54, 67
2, 110695, Note_on_c, 0, 54, 0
2, 110699, Note_on_c, 0, 59, 66
2, 110708, Control_c, 0, 64, 43
2, 110708, Note_on_c, 0, 66, 74
2, 110723, Control_c, 0, 64, 59
2, 110738, Control_c, 0, 64, 63
2, 110754, Control_c, 0, 64, 66
2, 110769, Control_c, 0, 64, 71
2, 110771, Note_on_c, 0, 66, 0
2, 110784, Control_c, 0, 64, 79
2, 110800, Control_c, 0, 64, 85
2, 110815, Control_c, 0, 64, 85
2, 110846, Control_c, 0, 64, 85
2, 110861, Control_c, 0, 64, 80
2, 110876, Control_c, 0, 64, 71
2, 110876, Note_on_c, 0, 59, 0
2, 110891, Control_c, 0, 64, 62
2, 110900, Note_on_c, 0, 68, 68
2, 110906, Control_c, 0, 64, 22
2, 110922, Control_c, 0, 64, 0
2, 110975, Note_on_c, 0, 68, 0
2, 110986, Note_on_c, 0, 70, 74
2, 111037, Note_on_c, 0, 70, 0
2, 111059, Note_on_c, 0, 47, 59
2, 111062, Note_on_c, 0, 71, 81
2, 111094, Note_on_c, 0, 47, 0
2, 111110, Note_on_c, 0, 71, 0
2, 111139, Note_on_c, 0, 73, 77
2, 111222, Note_on_c, 0, 59, 32
2, 111224, Note_on_c, 0, 73, 0
2, 111227, Note_on_c, 0, 74, 80
2, 111252, Note_on_c, 0, 59, 0
2, 111256, Note_on_c, 0, 58, 66
2, 111297, Note_on_c, 0, 58, 0
2, 111304, Note_on_c, 0, 74, 0
2, 111315, Note_on_c, 0, 73, 77
2, 111318, Note_on_c, 0, 59, 65
2, 111383, Note_on_c, 0, 71, 76
2, 111388, Note_on_c, 0, 73, 0
2, 111437, Note_on_c, 0, 71, 0
2, 111457, Note_on_c, 0, 69, 67
2, 111528, Note_on_c, 0, 69, 0
2, 111555, Note_on_c, 0, 67, 62
2, 111610, Note_on_c, 0, 67, 0
2, 111630, Note_on_c, 0, 66, 66
2, 111678, Note_on_c, 0, 66, 0
2, 111727, Note_on_c, 0, 64, 69
2, 111757, Note_on_c, 0, 64, 0
2, 111853, Note_on_c, 0, 59, 0
2, 111891, Note_on_c, 0, 60, 61
2, 111903, Note_on_c, 0, 67, 63
2, 111931, Note_on_c, 0, 60, 0
2, 111937, Note_on_c, 0, 67, 0
2, 111974, Note_on_c, 0, 59, 58
2, 112012, Note_on_c, 0, 59, 0
2, 112042, Note_on_c, 0, 57, 60
2, 112062, Note_on_c, 0, 72, 71
2, 112089, Note_on_c, 0, 57, 0
2, 112108, Note_on_c, 0, 72, 0
2, 112132, Note_on_c, 0, 55, 52
2, 112214, Note_on_c, 0, 55, 0
2, 112224, Note_on_c, 0, 54, 67
2, 112227, Note_on_c, 0, 72, 79
2, 112258, Control_c, 0, 64, 35
2, 112258, Note_on_c, 0, 54, 0
2, 112274, Control_c, 0, 64, 54
2, 112289, Control_c, 0, 64, 63
2, 112304, Control_c, 0, 64, 68
2, 112320, Control_c, 0, 64, 75
2, 112334, Control_c, 0, 64, 85
2, 112349, Control_c, 0, 64, 94
2, 112365, Control_c, 0, 64, 97
2, 112411, Control_c, 0, 64, 92
2, 112420, Note_on_c, 0, 55, 63
2, 112420, Note_on_c, 0, 69, 70
2, 112426, Control_c, 0, 64, 83
2, 112442, Control_c, 0, 64, 72
2, 112457, Control_c, 0, 64, 62
2, 112462, Note_on_c, 0, 69, 0
2, 112473, Control_c, 0, 64, 0
2, 112487, Note_on_c, 0, 55, 0
2, 112512, Note_on_c, 0, 54, 61
2, 112553, Note_on_c, 0, 54, 0
2, 112570, Note_on_c, 0, 52, 70
2, 112585, Note_on_c, 0, 66, 62
2, 112634, Note_on_c, 0, 66, 0
2, 112635, Note_on_c, 0, 52, 0
2, 112643, Note_on_c, 0, 50, 76
2, 112727, Note_on_c, 0, 50, 0
2, 112744, Note_on_c, 0, 55, 85
2, 112746, Note_on_c, 0, 72, 0
2, 112776, Note_on_c, 0, 62, 75
2, 112783, Control_c, 0, 64, 47
2, 112799, Control_c, 0, 64, 70
2, 112814, Control_c, 0, 64, 104
2, 112829, Control_c, 0, 64, 127
2, 112838, Note_on_c, 0, 62, 0
2, 112918, Note_on_c, 0, 55, 0
2, 112939, Note_on_c, 0, 64, 87
2, 112952, Control_c, 0, 64, 107
2, 112967, Control_c, 0, 64, 74
2, 112981, Control_c, 0, 64, 56
2, 112997, Control_c, 0, 64, 0
2, 113028, Note_on_c, 0, 66, 84
2, 113049, Note_on_c, 0, 64, 0
2, 113091, Note_on_c, 0, 66, 0
2, 113104, Note_on_c, 0, 43, 75
2, 113107, Note_on_c, 0, 67, 83
2, 113168, Note_on_c, 0, 43, 0
2, 113185, Note_on_c, 0, 67, 0
2, 113187, Note_on_c, 0, 69, 82
2, 113278, Note_on_c, 0, 69, 0
2, 113279, Note_on_c, 0, 55, 76
2, 113283, Note_on_c, 0, 71, 87
2, 113371, Note_on_c, 0, 69, 82
2, 113374, Note_on_c, 0, 71, 0
2, 113428, Note_on_c, 0, 69, 0
2, 113447, Note_on_c, 0, 67, 84
2, 113527, Note_on_c, 0, 67, 0
2, 113538, Note_on_c, 0, 66, 84
2, 113627, Note_on_c, 0, 64, 79
2, 113629, Note_on_c, 0, 66, 0
2, 113683, Note_on_c, 0, 64, 0
2, 113697, Note_on_c, 0, 62, 75
2, 113780, Note_on_c, 0, 61, 79
2, 113783, Note_on_c, 0, 62, 0
2, 113845, Note_on_c, 0, 61, 0
2, 113938, Note_on_c, 0, 55, 0
2, 113954, Note_on_c, 0, 57, 62
2, 113961, Note_on_c, 0, 64, 75
2, 114001, Note_on_c, 0, 57, 0
2, 114001, Note_on_c, 0, 64, 0
2, 114046, Note_on_c, 0, 55, 69
2, 114102, Note_on_c, 0, 55, 0
2, 114117, Note_on_c, 0, 54, 75
2, 114137, Note_on_c, 0, 69, 77
2, 114141, Note_on_c, 0, 61, 77
2, 114175, Note_on_c, 0, 54, 0
2, 114180, Note_on_c, 0, 61, 0
2, 114193, Note_on_c, 0, 52, 71
2, 114194, Note_on_c, 0, 69, 0
2, 114273, Note_on_c, 0, 52, 0
2, 114288, Note_on_c, 0, 50, 73
2, 114296, Note_on_c, 0, 62, 80
2, 114303, Note_on_c, 0, 66, 85
2, 114341, Note_on_c, 0, 62, 0
2, 114350, Note_on_c, 0, 50, 0
2, 114380, Note_on_c, 0, 66, 0
2, 114457, Control_c, 0, 64, 34
2, 114464, Note_on_c, 0, 52, 66
2, 114465, Note_on_c, 0, 69, 82
2, 114473, Control_c, 0, 64, 59
2, 114488, Control_c, 0, 64, 66
2, 114503, Control_c, 0, 64, 69
2, 114519, Control_c, 0, 64, 73
2, 114520, Note_on_c, 0, 69, 0
2, 114533, Control_c, 0, 64, 76
2, 114546, Note_on_c, 0, 54, 80
2, 114548, Control_c, 0, 64, 78
2, 114554, Note_on_c, 0, 52, 0
2, 114564, Control_c, 0, 64, 79
2, 114610, Note_on_c, 0, 54, 0
2, 114626, Note_on_c, 0, 55, 76
2, 114633, Note_on_c, 0, 66, 76
2, 114635, Note_on_c, 0, 74, 69
2, 114640, Control_c, 0, 64, 76
2, 114647, Note_on_c, 0, 76, 66
2, 114655, Control_c, 0, 64, 70
2, 114665, Note_on_c, 0, 76, 0
2, 114670, Control_c, 0, 64, 60
2, 114685, Control_c, 0, 64, 0
2, 114707, Note_on_c, 0, 74, 0
2, 114717, Note_on_c, 0, 66, 0
2, 114775, Note_on_c, 0, 55, 0
2, 114801, Note_on_c, 0, 59, 79
2, 114826, Note_on_c, 0, 67, 94
2, 114888, Note_on_c, 0, 59, 0
2, 115001, Note_on_c, 0, 57, 80
2, 115005, Note_on_c, 0, 69, 79
2, 115009, Note_on_c, 0, 67, 0
2, 115041, Note_on_c, 0, 57, 0
2, 115060, Note_on_c, 0, 69, 0
2, 115172, Note_on_c, 0, 55, 80
2, 115175, Note_on_c, 0, 71, 73
2, 115182, Note_on_c, 0, 76, 88
2, 115202, Note_on_c, 0, 55, 0
2, 115206, Note_on_c, 0, 71, 0
2, 115345, Note_on_c, 0, 76, 0
2, 115354, Note_on_c, 0, 69, 82
2, 115356, Note_on_c, 0, 57, 81
2, 115357, Note_on_c, 0, 66, 79
2, 115424, Control_c, 0, 64, 12
2, 115440, Control_c, 0, 64, 49
2, 115455, Control_c, 0, 64, 57
2, 115458, Note_on_c, 0, 57, 0
2, 115471, Control_c, 0, 64, 60
2, 115485, Control_c, 0, 64, 64
2, 115500, Control_c, 0, 64, 66
2, 115516, Control_c, 0, 64, 71
2, 115531, Control_c, 0, 64, 77
2, 115531, Note_on_c, 0, 74, 89
2, 115534, Note_on_c, 0, 69, 0
2, 115540, Note_on_c, 0, 66, 0
2, 115547, Control_c, 0, 64, 82
2, 115568, Control_c, 0, 64, 82
2, 115722, Control_c, 0, 64, 82
2, 115737, Control_c, 0, 64, 81
2, 115740, Note_on_c, 0, 73, 93
2, 115746, Note_on_c, 0, 45, 74
2, 115747, Note_on_c, 0, 64, 77
2, 115749, Note_on_c, 0, 67, 73
2, 115753, Control_c, 0, 64, 78
2, 115768, Control_c, 0, 64, 74
2, 115777, Note_on_c, 0, 74, 0
2, 115783, Control_c, 0, 64, 68
2, 115799, Control_c, 0, 64, 59
2, 115814, Control_c, 0, 64, 44
2, 115829, Control_c, 0, 64, 12
2, 115844, Control_c, 0, 64, 0
2, 115863, Note_on_c, 0, 64, 0
2, 115961, Note_on_c, 0, 73, 0
2, 115970, Note_on_c, 0, 74, 88
2, 115977, Note_on_c, 0, 38, 60
2, 115983, Note_on_c, 0, 62, 77
2, 115993, Note_on_c, 0, 45, 0
2, 116217, Note_on_c, 0, 69, 83
2, 116240, Note_on_c, 0, 67, 0
2, 116332, Note_on_c, 0, 62, 0
2, 116399, Control_c, 0, 66, 127
2, 116516, Note_on_c, 0, 66, 82
2, 116653, Note_on_c, 0, 38, 0
2, 116860, Note_on_c, 0, 62, 62
2, 116914, Note_on_c, 0, 62, 0
2, 116920, Note_on_c, 0, 61, 80
2, 116990, Note_on_c, 0, 61, 0
2, 116993, Note_on_c, 0, 62, 90
2, 119527, Note_on_c, 0, 66, 0
2, 119655, Note_on_c, 0, 69, 0
2, 119667, Note_on_c, 0, 74, 0
2, 119805, Control_c, 0, 66, 0
2, 120384, Note_on_c, 0, 62, 0
2, 120680, Control_c, 0, 67, 23
2, 120695, Control_c, 0, 67, 49
2, 120711, Control_c, 0, 67, 86
2, 120726, Control_c, 0, 67, 124
2, 120740, Control_c, 0, 64, 21
2, 120740, Control_c, 0, 67, 127
2, 120756, Control_c, 0, 64, 25
2, 120771, Control_c, 0, 64, 27
2, 120787, Control_c, 0, 64, 32
2, 120802, Control_c, 0, 64, 38
2, 120816, Control_c, 0, 64, 41
2, 120832, Control_c, 0, 64, 41
2, 120847, Control_c, 0, 64, 42
2, 120861, Control_c, 0, 64, 44
2, 120877, Control_c, 0, 64, 48
2, 120892, Control_c, 0, 64, 50
2, 120908, Control_c, 0, 64, 50
2, 120923, Control_c, 0, 64, 51
2, 120946, Control_c, 0, 64, 52
2, 120961, Control_c, 0, 64, 55
2, 120976, Control_c, 0, 64, 58
2, 120992, Control_c, 0, 64, 59
2, 121021, Control_c, 0, 64, 59
2, 121037, Control_c, 0, 64, 60
2, 121052, Control_c, 0, 64, 60
2, 121067, Control_c, 0, 64, 61
2, 121082, Control_c, 0, 64, 62
2, 121097, Control_c, 0, 64, 63
2, 121113, Control_c, 0, 64, 64
2, 121128, Control_c, 0, 64, 65
2, 121142, Control_c, 0, 64, 65
2, 121158, Control_c, 0, 64, 66
2, 121173, Control_c, 0, 64, 67
2, 121189, Control_c, 0, 64, 69
2, 121204, Control_c, 0, 64, 71
2, 121218, Control_c, 0, 64, 76
2, 121234, Control_c, 0, 64, 80
2, 121249, Control_c, 0, 64, 82
2, 121263, Control_c, 0, 64, 83
2, 121279, Control_c, 0, 64, 84
2, 121294, Control_c, 0, 64, 84
2, 121310, Control_c, 0, 64, 85
2, 121325, Control_c, 0, 64, 85
2, 121340, Control_c, 0, 64, 86
2, 121343,End_track
0, 0, End_of_file
