0, 0, Header, 1, 2, 384
1, 0, Start_track
1, 0, Tempo, 500000
1, 0, Time_signature, 4, 2, 24, 8
1, 1, End_track
2,0,Start_track
2,0, Note_on_c, 0, 62, 48
2,13, Control_c, 0, 64, 88
2,28, Control_c, 0, 64, 89
2,44, Control_c, 0, 64, 91
2,58, Control_c, 0, 64, 92
2,73, Control_c, 0, 64, 94
2,89, Control_c, 0, 64, 96
2,105, Control_c, 0, 64, 99
2,120, Control_c, 0, 64, 104
2,136, Control_c, 0, 64, 112
2,151, Control_c, 0, 64, 127
2,165, Note_on_c, 0, 62, 0
2,407, Note_on_c, 0, 62, 49
2,544, Note_on_c, 0, 62, 0
2,800, Note_on_c, 0, 62, 55
2,1208, Note_on_c, 0, 62, 0
2,1220, Note_on_c, 0, 55, 52
2,1321, Control_c, 0, 64, 99
2,1336, Control_c, 0, 64, 83
2,1351, Control_c, 0, 64, 74
2,1367, Control_c, 0, 64, 67
2,1382, Control_c, 0, 64, 61
2,1397, Control_c, 0, 64, 46
2,1412, Control_c, 0, 64, 0
2,2029, Note_on_c, 0, 59, 57
2,2056, Note_on_c, 0, 55, 0
2,3276, Note_on_c, 0, 52, 41
2,3305, Note_on_c, 0, 59, 0
2,3673, Note_on_c, 0, 57, 53
2,3675, Note_on_c, 0, 52, 0
2,4055, Note_on_c, 0, 55, 45
2,4060, Note_on_c, 0, 57, 0
2,4445, Note_on_c, 0, 54, 44
2,4479, Note_on_c, 0, 55, 0
2,4757, Control_c, 0, 64, 24
2,4773, Control_c, 0, 64, 34
2,4788, Control_c, 0, 64, 40
2,4804, Control_c, 0, 64, 44
2,4819, Control_c, 0, 64, 50
2,4825, Note_on_c, 0, 69, 49
2,4834, Control_c, 0, 64, 53
2,4850, Control_c, 0, 64, 56
2,4864, Control_c, 0, 64, 58
2,4879, Control_c, 0, 64, 60
2,4895, Control_c, 0, 64, 62
2,4910, Control_c, 0, 64, 64
2,4925, Control_c, 0, 64, 66
2,4940, Control_c, 0, 64, 69
2,4955, Control_c, 0, 64, 73
2,4978, Control_c, 0, 64, 81
2,4993, Control_c, 0, 64, 91
2,5009, Control_c, 0, 64, 97
2,5015, Note_on_c, 0, 69, 0
2,5024, Control_c, 0, 64, 102
2,5039, Control_c, 0, 64, 104
2,5161, Control_c, 0, 64, 104
2,5177, Control_c, 0, 64, 98
2,5191, Control_c, 0, 64, 88
2,5197, Note_on_c, 0, 69, 64
2,5200, Note_on_c, 0, 50, 44
2,5207, Control_c, 0, 64, 76
2,5220, Note_on_c, 0, 54, 0
2,5222, Control_c, 0, 64, 66
2,5237, Control_c, 0, 64, 55
2,5237, Control_c, 0, 67, 112
2,5253, Control_c, 0, 64, 44
2,5253, Control_c, 0, 67, 71
2,5268, Control_c, 0, 64, 45
2,5268, Control_c, 0, 67, 11
2,5284, Control_c, 0, 64, 53
2,5284, Control_c, 0, 67, 0
2,5299, Control_c, 0, 64, 60
2,5313, Control_c, 0, 64, 64
2,5329, Control_c, 0, 64, 68
2,5344, Control_c, 0, 64, 71
2,5358, Control_c, 0, 64, 73
2,5374, Control_c, 0, 64, 76
2,5389, Control_c, 0, 64, 79
2,5405, Control_c, 0, 64, 84
2,5420, Control_c, 0, 64, 88
2,5434, Control_c, 0, 64, 90
2,5448, Note_on_c, 0, 69, 0
2,5450, Control_c, 0, 64, 91
2,5465, Control_c, 0, 64, 92
2,5480, Control_c, 0, 64, 93
2,5496, Control_c, 0, 64, 95
2,5510, Control_c, 0, 64, 97
2,5526, Control_c, 0, 64, 100
2,5541, Control_c, 0, 64, 101
2,5555, Control_c, 0, 64, 102
2,5571, Control_c, 0, 64, 102
2,5585, Note_on_c, 0, 69, 65
2,5586, Control_c, 0, 64, 103
2,5601, Control_c, 0, 64, 103
2,5617, Control_c, 0, 64, 104
2,5632, Control_c, 0, 64, 104
2,5648, Control_c, 0, 64, 105
2,5662, Control_c, 0, 64, 107
2,5677, Control_c, 0, 64, 110
2,5693, Control_c, 0, 64, 111
2,5708, Control_c, 0, 64, 111
2,5946, Note_on_c, 0, 69, 0
2,5959, Control_c, 0, 64, 111
2,5959, Note_on_c, 0, 62, 65
2,5975, Control_c, 0, 64, 106
2,5990, Control_c, 0, 64, 99
2,6005, Control_c, 0, 64, 94
2,6020, Control_c, 0, 64, 89
2,6035, Control_c, 0, 64, 85
2,6051, Control_c, 0, 64, 81
2,6066, Control_c, 0, 64, 76
2,6081, Control_c, 0, 64, 71
2,6097, Control_c, 0, 64, 67
2,6112, Control_c, 0, 64, 63
2,6128, Control_c, 0, 64, 58
2,6142, Control_c, 0, 64, 49
2,6157, Control_c, 0, 64, 43
2,6173, Control_c, 0, 64, 41
2,6188, Control_c, 0, 64, 39
2,6204, Control_c, 0, 64, 38
2,6219, Control_c, 0, 64, 36
2,6234, Control_c, 0, 64, 34
2,6250, Control_c, 0, 64, 32
2,6265, Control_c, 0, 64, 30
2,6279, Control_c, 0, 64, 28
2,6295, Control_c, 0, 64, 27
2,6310, Control_c, 0, 64, 26
2,6326, Control_c, 0, 64, 26
2,6334, Note_on_c, 0, 54, 46
2,6371, Control_c, 0, 64, 25
2,6415, Note_on_c, 0, 50, 0
2,6715, Note_on_c, 0, 54, 0
2,6717, Note_on_c, 0, 66, 67
2,6718, Note_on_c, 0, 59, 41
2,6724, Note_on_c, 0, 62, 0
2,7080, Note_on_c, 0, 57, 39
2,7091, Note_on_c, 0, 59, 0
2,7468, Note_on_c, 0, 56, 37
2,7503, Note_on_c, 0, 57, 0
2,7860, Note_on_c, 0, 66, 0
2,7870, Note_on_c, 0, 59, 44
2,8236, Note_on_c, 0, 64, 58
2,8276, Note_on_c, 0, 59, 0
2,8616, Note_on_c, 0, 64, 0
2,8622, Note_on_c, 0, 62, 50
2,8982, Note_on_c, 0, 62, 0
2,8998, Note_on_c, 0, 57, 38
2,8998, Note_on_c, 0, 61, 48
2,9057, Note_on_c, 0, 56, 0
2,9374, Note_on_c, 0, 64, 65
2,9435, Note_on_c, 0, 61, 0
2,9759, Note_on_c, 0, 64, 0
2,9769, Note_on_c, 0, 69, 62
2,9774, Note_on_c, 0, 61, 43
2,9787, Note_on_c, 0, 57, 0
2,10147, Note_on_c, 0, 67, 56
2,10177, Note_on_c, 0, 69, 0
2,10511, Note_on_c, 0, 67, 0
2,10536, Note_on_c, 0, 66, 51
2,10909, Note_on_c, 0, 57, 44
2,10917, Note_on_c, 0, 61, 0
2,11260, Control_c, 0, 64, 24
2,11298, Note_on_c, 0, 57, 0
2,11302, Note_on_c, 0, 69, 58
2,11303, Note_on_c, 0, 62, 52
2,11311, Note_on_c, 0, 66, 0
2,11381, Control_c, 0, 64, 24
2,11661, Note_on_c, 0, 61, 49
2,11693, Note_on_c, 0, 62, 0
2,12027, Note_on_c, 0, 61, 0
2,12037, Note_on_c, 0, 59, 46
2,12400, Note_on_c, 0, 69, 0
2,12419, Note_on_c, 0, 74, 53
2,12422, Control_c, 0, 64, 33
2,12437, Control_c, 0, 64, 43
2,12437, Note_on_c, 0, 62, 37
2,12453, Control_c, 0, 64, 51
2,12468, Control_c, 0, 64, 57
2,12484, Control_c, 0, 64, 61
2,12499, Control_c, 0, 64, 64
2,12514, Control_c, 0, 64, 68
2,12530, Control_c, 0, 64, 77
2,12544, Control_c, 0, 64, 101
2,12559, Control_c, 0, 64, 127
2,12636, Note_on_c, 0, 74, 0
2,12718, Note_on_c, 0, 62, 0
2,12803, Note_on_c, 0, 74, 70
2,12816, Note_on_c, 0, 67, 52
2,12838, Control_c, 0, 64, 88
2,12854, Control_c, 0, 64, 67
2,12869, Control_c, 0, 64, 54
2,12883, Control_c, 0, 64, 41
2,12899, Control_c, 0, 64, 46
2,12914, Control_c, 0, 64, 55
2,12930, Control_c, 0, 64, 62
2,12945, Control_c, 0, 64, 66
2,12959, Control_c, 0, 64, 70
2,12975, Control_c, 0, 64, 74
2,12990, Control_c, 0, 64, 76
2,13005, Control_c, 0, 64, 78
2,13021, Control_c, 0, 64, 80
2,13029, Note_on_c, 0, 74, 0
2,13035, Control_c, 0, 64, 85
2,13051, Control_c, 0, 64, 93
2,13066, Control_c, 0, 64, 100
2,13081, Control_c, 0, 64, 103
2,13097, Control_c, 0, 64, 104
2,13112, Control_c, 0, 64, 105
2,13170, Note_on_c, 0, 67, 0
2,13174, Note_on_c, 0, 74, 74
2,13187, Note_on_c, 0, 66, 58
2,13301, Note_on_c, 0, 59, 0
2,13456, Control_c, 0, 64, 104
2,13485, Control_c, 0, 64, 102
2,13501, Control_c, 0, 64, 99
2,13516, Control_c, 0, 64, 96
2,13531, Control_c, 0, 64, 93
2,13546, Control_c, 0, 64, 90
2,13557, Note_on_c, 0, 66, 0
2,13561, Control_c, 0, 64, 86
2,13566, Note_on_c, 0, 67, 73
2,13570, Note_on_c, 0, 64, 58
2,13577, Control_c, 0, 64, 82
2,13592, Control_c, 0, 64, 75
2,13606, Control_c, 0, 64, 69
2,13622, Control_c, 0, 64, 64
2,13637, Control_c, 0, 64, 53
2,13637, Note_on_c, 0, 74, 0
2,13653, Control_c, 0, 64, 8
2,13668, Control_c, 0, 64, 0
2,13759, Control_c, 0, 64, 25
2,13775, Control_c, 0, 64, 42
2,13790, Control_c, 0, 64, 45
2,13804, Control_c, 0, 64, 46
2,13866, Control_c, 0, 64, 48
2,13875, Note_on_c, 0, 64, 0
2,13880, Control_c, 0, 64, 51
2,13896, Control_c, 0, 64, 54
2,13911, Control_c, 0, 64, 57
2,13924, Note_on_c, 0, 59, 40
2,13925, Control_c, 0, 64, 60
2,13938, Note_on_c, 0, 66, 42
2,13941, Control_c, 0, 64, 61
2,13956, Control_c, 0, 64, 63
2,13972, Control_c, 0, 64, 63
2,13987, Control_c, 0, 64, 64
2,14001, Control_c, 0, 64, 64
2,14017, Control_c, 0, 64, 65
2,14033, Control_c, 0, 64, 67
2,14048, Control_c, 0, 64, 70
2,14064, Control_c, 0, 64, 73
2,14079, Control_c, 0, 64, 74
2,14085, Note_on_c, 0, 67, 0
2,14095, Control_c, 0, 64, 75
2,14303, Note_on_c, 0, 59, 0
2,14315, Note_on_c, 0, 71, 70
2,14319, Note_on_c, 0, 64, 53
2,14319, Note_on_c, 0, 66, 0
2,14328, Note_on_c, 0, 67, 52
2,14330, Control_c, 0, 64, 74
2,14345, Control_c, 0, 64, 72
2,14360, Control_c, 0, 64, 70
2,14375, Control_c, 0, 64, 67
2,14390, Control_c, 0, 64, 63
2,14405, Control_c, 0, 64, 59
2,14421, Control_c, 0, 64, 55
2,14436, Control_c, 0, 64, 53
2,14451, Control_c, 0, 64, 52
2,14466, Control_c, 0, 64, 52
2,14481, Control_c, 0, 64, 50
2,14497, Control_c, 0, 64, 48
2,14512, Control_c, 0, 64, 46
2,14526, Control_c, 0, 64, 43
2,14542, Control_c, 0, 64, 40
2,14557, Control_c, 0, 64, 39
2,14603, Control_c, 0, 64, 38
2,14670, Note_on_c, 0, 64, 0
2,14700, Note_on_c, 0, 62, 43
2,14800, Control_c, 0, 64, 39
2,15098, Control_c, 0, 64, 43
2,15104, Note_on_c, 0, 61, 44
2,15113, Control_c, 0, 64, 49
2,15128, Control_c, 0, 64, 54
2,15131, Note_on_c, 0, 62, 0
2,15146, Control_c, 0, 64, 57
2,15160, Control_c, 0, 64, 60
2,15176, Control_c, 0, 64, 63
2,15191, Control_c, 0, 64, 65
2,15207, Control_c, 0, 64, 67
2,15221, Control_c, 0, 64, 68
2,15236, Control_c, 0, 64, 71
2,15252, Control_c, 0, 64, 76
2,15267, Control_c, 0, 64, 83
2,15283, Control_c, 0, 64, 89
2,15297, Control_c, 0, 64, 90
2,15404, Control_c, 0, 64, 87
2,15418, Control_c, 0, 64, 79
2,15433, Control_c, 0, 64, 70
2,15449, Control_c, 0, 64, 62
2,15464, Control_c, 0, 64, 52
2,15467, Note_on_c, 0, 57, 49
2,15470, Note_on_c, 0, 64, 49
2,15479, Control_c, 0, 64, 51
2,15489, Note_on_c, 0, 67, 0
2,15494, Control_c, 0, 64, 55
2,15501, Note_on_c, 0, 61, 0
2,15509, Control_c, 0, 64, 59
2,15525, Control_c, 0, 64, 63
2,15526, Note_on_c, 0, 71, 0
2,15540, Control_c, 0, 64, 65
2,15555, Control_c, 0, 64, 68
2,15570, Control_c, 0, 64, 72
2,15585, Control_c, 0, 64, 75
2,15600, Control_c, 0, 64, 82
2,15615, Control_c, 0, 64, 95
2,15630, Control_c, 0, 64, 127
2,15709, Note_on_c, 0, 57, 0
2,15834, Note_on_c, 0, 64, 0
2,15837, Note_on_c, 0, 69, 60
2,15839, Note_on_c, 0, 57, 70
2,15841, Note_on_c, 0, 66, 53
2,16037, Note_on_c, 0, 57, 0
2,16182, Note_on_c, 0, 66, 0
2,16201, Note_on_c, 0, 57, 65
2,16205, Note_on_c, 0, 69, 0
2,16216, Note_on_c, 0, 67, 58
2,16217, Note_on_c, 0, 64, 56
2,16231, Control_c, 0, 64, 115
2,16247, Control_c, 0, 64, 104
2,16262, Control_c, 0, 64, 100
2,16324, Control_c, 0, 64, 102
2,16338, Control_c, 0, 64, 113
2,16353, Control_c, 0, 64, 127
2,16517, Note_on_c, 0, 57, 0
2,16589, Note_on_c, 0, 50, 64
2,16594, Note_on_c, 0, 66, 70
2,16598, Note_on_c, 0, 62, 57
2,16598, Note_on_c, 0, 64, 0
2,16608, Note_on_c, 0, 67, 0
2,16620, Control_c, 0, 64, 111
2,16635, Control_c, 0, 64, 90
2,16651, Control_c, 0, 64, 77
2,16666, Control_c, 0, 64, 66
2,16681, Control_c, 0, 64, 58
2,16696, Control_c, 0, 64, 27
2,16711, Control_c, 0, 64, 0
2,16757, Control_c, 0, 64, 20
2,16772, Control_c, 0, 64, 45
2,16787, Control_c, 0, 64, 53
2,16803, Control_c, 0, 64, 58
2,16818, Control_c, 0, 64, 60
2,16833, Control_c, 0, 64, 62
2,16848, Control_c, 0, 64, 63
2,16863, Control_c, 0, 64, 66
2,16878, Control_c, 0, 64, 70
2,16893, Control_c, 0, 64, 78
2,16908, Control_c, 0, 64, 85
2,16924, Control_c, 0, 64, 91
2,16939, Control_c, 0, 64, 95
2,16940, Note_on_c, 0, 62, 0
2,16954, Control_c, 0, 64, 99
2,16966, Note_on_c, 0, 57, 50
2,16970, Control_c, 0, 64, 101
2,16984, Control_c, 0, 64, 102
2,16999, Control_c, 0, 64, 102
2,17023, Note_on_c, 0, 50, 0
2,17311, Note_on_c, 0, 57, 0
2,17312, Control_c, 0, 64, 102
2,17316, Note_on_c, 0, 54, 62
2,17328, Control_c, 0, 64, 99
2,17329, Note_on_c, 0, 62, 51
2,17342, Control_c, 0, 64, 93
2,17357, Control_c, 0, 64, 85
2,17373, Control_c, 0, 64, 77
2,17388, Control_c, 0, 64, 70
2,17404, Control_c, 0, 64, 64
2,17418, Control_c, 0, 64, 59
2,17433, Control_c, 0, 64, 53
2,17449, Control_c, 0, 64, 48
2,17464, Control_c, 0, 64, 44
2,17479, Control_c, 0, 64, 43
2,17495, Control_c, 0, 64, 41
2,17509, Control_c, 0, 64, 39
2,17525, Control_c, 0, 64, 37
2,17540, Control_c, 0, 64, 35
2,17586, Control_c, 0, 64, 35
2,17601, Control_c, 0, 64, 34
2,17616, Control_c, 0, 64, 34
2,17647, Control_c, 0, 64, 33
2,17668, Note_on_c, 0, 62, 0
2,17686, Note_on_c, 0, 61, 52
2,17751, Control_c, 0, 64, 33
2,17843, Control_c, 0, 64, 32
2,17919, Control_c, 0, 64, 32
2,17949, Control_c, 0, 64, 31
2,18041, Note_on_c, 0, 61, 0
2,18048, Control_c, 0, 64, 41
2,18063, Control_c, 0, 64, 49
2,18071, Note_on_c, 0, 59, 44
2,18075, Note_on_c, 0, 68, 63
2,18078, Control_c, 0, 64, 54
2,18092, Note_on_c, 0, 66, 0
2,18094, Control_c, 0, 64, 58
2,18109, Control_c, 0, 64, 62
2,18109, Note_on_c, 0, 54, 0
2,18125, Control_c, 0, 64, 64
2,18140, Control_c, 0, 64, 68
2,18155, Control_c, 0, 64, 72
2,18171, Control_c, 0, 64, 83
2,18185, Control_c, 0, 64, 97
2,18200, Control_c, 0, 64, 107
2,18216, Control_c, 0, 64, 111
2,18231, Control_c, 0, 64, 115
2,18381, Note_on_c, 0, 59, 0
2,18383, Control_c, 0, 64, 111
2,18398, Control_c, 0, 64, 105
2,18414, Control_c, 0, 64, 99
2,18421, Note_on_c, 0, 47, 47
2,18429, Control_c, 0, 64, 91
2,18445, Control_c, 0, 64, 85
2,18459, Control_c, 0, 64, 78
2,18474, Control_c, 0, 64, 71
2,18490, Control_c, 0, 64, 66
2,18505, Control_c, 0, 64, 61
2,18519, Control_c, 0, 64, 53
2,18535, Control_c, 0, 64, 48
2,18550, Control_c, 0, 64, 48
2,18566, Control_c, 0, 64, 47
2,18581, Control_c, 0, 64, 47
2,18611, Control_c, 0, 64, 46
2,18641, Control_c, 0, 64, 46
2,18687, Control_c, 0, 64, 45
2,18798, Note_on_c, 0, 47, 0
2,18799, Note_on_c, 0, 52, 52
2,18831, Control_c, 0, 64, 45
2,18847, Control_c, 0, 64, 44
2,18984, Control_c, 0, 64, 44
2,19136, Control_c, 0, 64, 43
2,19136, Note_on_c, 0, 52, 0
2,19157, Note_on_c, 0, 59, 44
2,19159, Note_on_c, 0, 50, 41
2,19491, Note_on_c, 0, 68, 0
2,19528, Note_on_c, 0, 49, 39
2,19531, Note_on_c, 0, 69, 52
2,19532, Note_on_c, 0, 64, 46
2,19567, Note_on_c, 0, 50, 0
2,19583, Note_on_c, 0, 59, 0
2,19720, Control_c, 0, 64, 43
2,19899, Note_on_c, 0, 52, 47
2,19911, Note_on_c, 0, 47, 36
2,19919, Control_c, 0, 64, 45
2,19921, Note_on_c, 0, 62, 45
2,19925, Note_on_c, 0, 64, 0
2,19935, Control_c, 0, 64, 49
2,19949, Control_c, 0, 64, 54
2,19953, Note_on_c, 0, 49, 0
2,19965, Control_c, 0, 64, 57
2,19980, Control_c, 0, 64, 59
2,19995, Control_c, 0, 64, 62
2,20011, Control_c, 0, 64, 63
2,20026, Control_c, 0, 64, 64
2,20041, Control_c, 0, 64, 66
2,20057, Control_c, 0, 64, 67
2,20071, Control_c, 0, 64, 68
2,20087, Control_c, 0, 64, 68
2,20102, Control_c, 0, 64, 69
2,20255, Control_c, 0, 64, 67
2,20265, Note_on_c, 0, 47, 0
2,20270, Control_c, 0, 64, 66
2,20277, Note_on_c, 0, 45, 46
2,20285, Control_c, 0, 64, 64
2,20291, Note_on_c, 0, 61, 53
2,20292, Note_on_c, 0, 52, 0
2,20298, Note_on_c, 0, 57, 46
2,20300, Control_c, 0, 64, 60
2,20305, Note_on_c, 0, 62, 0
2,20315, Control_c, 0, 64, 52
2,20338, Control_c, 0, 64, 44
2,20353, Control_c, 0, 64, 41
2,20632, Note_on_c, 0, 57, 0
2,20658, Note_on_c, 0, 64, 64
2,20659, Note_on_c, 0, 69, 0
2,20673, Note_on_c, 0, 55, 45
2,20992, Control_c, 0, 64, 42
2,21008, Control_c, 0, 64, 49
2,21014, Note_on_c, 0, 55, 0
2,21014, Note_on_c, 0, 69, 68
2,21023, Control_c, 0, 64, 55
2,21023, Note_on_c, 0, 64, 0
2,21026, Note_on_c, 0, 54, 51
2,21037, Control_c, 0, 64, 60
2,21053, Control_c, 0, 64, 63
2,21068, Control_c, 0, 64, 66
2,21084, Control_c, 0, 64, 70
2,21106, Control_c, 0, 64, 76
2,21121, Control_c, 0, 64, 88
2,21136, Control_c, 0, 64, 112
2,21151, Control_c, 0, 64, 127
2,21173, Note_on_c, 0, 45, 0
2,21173, Note_on_c, 0, 54, 0
2,21395, Control_c, 0, 64, 102
2,21401, Note_on_c, 0, 52, 50
2,21409, Note_on_c, 0, 67, 70
2,21411, Control_c, 0, 64, 78
2,21415, Note_on_c, 0, 45, 46
2,21426, Control_c, 0, 64, 70
2,21441, Control_c, 0, 64, 66
2,21457, Control_c, 0, 64, 65
2,21471, Note_on_c, 0, 69, 0
2,21502, Control_c, 0, 64, 67
2,21517, Control_c, 0, 64, 72
2,21533, Control_c, 0, 64, 79
2,21548, Control_c, 0, 64, 88
2,21562, Control_c, 0, 64, 101
2,21578, Control_c, 0, 64, 127
2,21596, Note_on_c, 0, 67, 0
2,21714, Control_c, 0, 64, 117
2,21730, Control_c, 0, 64, 88
2,21745, Control_c, 0, 64, 75
2,21759, Control_c, 0, 64, 68
2,21759, Note_on_c, 0, 52, 0
2,21770, Note_on_c, 0, 50, 50
2,21771, Note_on_c, 0, 66, 72
2,21775, Control_c, 0, 64, 63
2,21790, Control_c, 0, 64, 57
2,21805, Note_on_c, 0, 45, 0
2,21806, Control_c, 0, 64, 49
2,21821, Control_c, 0, 64, 42
2,21835, Control_c, 0, 64, 32
2,21851, Control_c, 0, 64, 21
2,21874, Control_c, 0, 64, 0
2,22137, Note_on_c, 0, 57, 55
2,22139, Note_on_c, 0, 49, 38
2,22140, Note_on_c, 0, 61, 0
2,22502, Note_on_c, 0, 47, 45
2,22503, Note_on_c, 0, 62, 62
2,22508, Note_on_c, 0, 57, 0
2,22521, Note_on_c, 0, 50, 0
2,22537, Note_on_c, 0, 49, 0
2,22858, Note_on_c, 0, 50, 47
2,22858, Note_on_c, 0, 61, 56
2,22863, Note_on_c, 0, 47, 0
2,22869, Note_on_c, 0, 45, 32
2,22885, Note_on_c, 0, 62, 0
2,22900, Control_c, 0, 64, 20
2,22915, Control_c, 0, 64, 42
2,22931, Control_c, 0, 64, 49
2,22945, Control_c, 0, 64, 53
2,22960, Control_c, 0, 64, 55
2,22976, Control_c, 0, 64, 57
2,22991, Control_c, 0, 64, 59
2,23007, Control_c, 0, 64, 61
2,23021, Control_c, 0, 64, 62
2,23027, Note_on_c, 0, 45, 0
2,23036, Control_c, 0, 64, 62
2,23053, Control_c, 0, 64, 63
2,23055, Note_on_c, 0, 66, 0
2,23068, Control_c, 0, 64, 65
2,23084, Control_c, 0, 64, 66
2,23099, Control_c, 0, 64, 67
2,23189, Control_c, 0, 64, 66
2,23205, Control_c, 0, 64, 65
2,23220, Control_c, 0, 64, 63
2,23235, Control_c, 0, 64, 60
2,23235, Note_on_c, 0, 43, 41
2,23236, Note_on_c, 0, 64, 63
2,23238, Note_on_c, 0, 61, 0
2,23248, Note_on_c, 0, 55, 32
2,23249, Note_on_c, 0, 50, 0
2,23250, Control_c, 0, 64, 56
2,23262, Note_on_c, 0, 59, 36
2,23265, Control_c, 0, 64, 51
2,23280, Control_c, 0, 64, 46
2,23296, Control_c, 0, 64, 43
2,23311, Control_c, 0, 64, 40
2,23326, Control_c, 0, 64, 38
2,23341, Control_c, 0, 64, 37
2,23356, Control_c, 0, 64, 37
2,23371, Control_c, 0, 64, 36
2,23410, Control_c, 0, 64, 36
2,23440, Control_c, 0, 64, 35
2,23470, Control_c, 0, 64, 34
2,23486, Control_c, 0, 64, 33
2,23501, Control_c, 0, 64, 33
2,23615, Note_on_c, 0, 62, 64
2,23619, Note_on_c, 0, 54, 56
2,23636, Note_on_c, 0, 55, 0
2,23647, Note_on_c, 0, 64, 0
2,23835, Control_c, 0, 64, 31
2,23851, Control_c, 0, 64, 26
2,23867, Control_c, 0, 64, 0
2,23979, Note_on_c, 0, 52, 44
2,23982, Note_on_c, 0, 61, 72
2,23988, Note_on_c, 0, 57, 44
2,23988, Note_on_c, 0, 59, 0
2,23995, Note_on_c, 0, 54, 0
2,24001, Note_on_c, 0, 62, 0
2,24119, Note_on_c, 0, 43, 0
2,24126, Control_c, 0, 64, 16
2,24141, Control_c, 0, 64, 51
2,24156, Control_c, 0, 64, 58
2,24178, Control_c, 0, 64, 63
2,24193, Control_c, 0, 64, 67
2,24209, Control_c, 0, 64, 73
2,24224, Control_c, 0, 64, 81
2,24238, Control_c, 0, 64, 90
2,24254, Control_c, 0, 64, 95
2,24269, Control_c, 0, 64, 98
2,24285, Control_c, 0, 64, 98
2,24361, Control_c, 0, 64, 98
2,24368, Note_on_c, 0, 42, 54
2,24376, Control_c, 0, 64, 91
2,24391, Control_c, 0, 64, 79
2,24394, Note_on_c, 0, 52, 0
2,24407, Control_c, 0, 64, 67
2,24422, Control_c, 0, 64, 44
2,24436, Control_c, 0, 64, 0
2,24498, Control_c, 0, 64, 47
2,24512, Control_c, 0, 64, 59
2,24528, Control_c, 0, 64, 63
2,24543, Control_c, 0, 64, 65
2,24557, Control_c, 0, 64, 68
2,24573, Control_c, 0, 64, 71
2,24588, Control_c, 0, 64, 76
2,24604, Control_c, 0, 64, 79
2,24619, Control_c, 0, 64, 80
2,24756, Control_c, 0, 64, 80
2,24772, Control_c, 0, 64, 79
2,24787, Control_c, 0, 64, 75
2,24792, Note_on_c, 0, 50, 47
2,24793, Note_on_c, 0, 56, 57
2,24793, Note_on_c, 0, 57, 0
2,24797, Note_on_c, 0, 47, 38
2,24802, Control_c, 0, 64, 69
2,24804, Note_on_c, 0, 62, 65
2,24814, Note_on_c, 0, 61, 0
2,24817, Control_c, 0, 64, 61
2,24823, Note_on_c, 0, 42, 0
2,24832, Control_c, 0, 64, 0
2,24906, Note_on_c, 0, 50, 0
2,24908, Control_c, 0, 64, 45
2,24924, Control_c, 0, 64, 58
2,24946, Control_c, 0, 64, 64
2,24961, Control_c, 0, 64, 67
2,24977, Control_c, 0, 64, 71
2,24992, Control_c, 0, 64, 77
2,25008, Control_c, 0, 64, 83
2,25022, Control_c, 0, 64, 86
2,25037, Control_c, 0, 64, 88
2,25046, Note_on_c, 0, 56, 0
2,25145, Note_on_c, 0, 47, 0
2,25175, Control_c, 0, 64, 87
2,25190, Control_c, 0, 64, 83
2,25190, Note_on_c, 0, 45, 45
2,25190, Note_on_c, 0, 49, 43
2,25192, Note_on_c, 0, 54, 48
2,25205, Control_c, 0, 64, 73
2,25220, Control_c, 0, 64, 61
2,25235, Control_c, 0, 64, 13
2,25251, Control_c, 0, 64, 0
2,25296, Control_c, 0, 64, 34
2,25311, Control_c, 0, 64, 51
2,25327, Control_c, 0, 64, 57
2,25342, Control_c, 0, 64, 61
2,25351, Note_on_c, 0, 45, 0
2,25356, Control_c, 0, 64, 64
2,25372, Control_c, 0, 64, 67
2,25387, Control_c, 0, 64, 70
2,25400, Note_on_c, 0, 54, 0
2,25401, Control_c, 0, 64, 72
2,25487, Note_on_c, 0, 49, 0
2,25571, Control_c, 0, 64, 71
2,25581, Note_on_c, 0, 47, 28
2,25585, Control_c, 0, 64, 70
2,25590, Note_on_c, 0, 52, 43
2,25597, Note_on_c, 0, 44, 38
2,25600, Control_c, 0, 64, 67
2,25616, Control_c, 0, 64, 64
2,25631, Control_c, 0, 64, 59
2,25647, Control_c, 0, 64, 49
2,25661, Control_c, 0, 64, 42
2,25676, Control_c, 0, 64, 34
2,25692, Control_c, 0, 64, 21
2,25714, Control_c, 0, 64, 0
2,25996, Note_on_c, 0, 62, 0
2,25996, Note_on_c, 0, 71, 62
2,26142, Note_on_c, 0, 71, 0
2,26175, Note_on_c, 0, 69, 54
2,26352, Note_on_c, 0, 69, 0
2,26367, Note_on_c, 0, 71, 61
2,26506, Note_on_c, 0, 71, 0
2,26737, Note_on_c, 0, 62, 52
2,26922, Control_c, 0, 64, 32
2,26938, Control_c, 0, 64, 43
2,26953, Control_c, 0, 64, 48
2,26968, Control_c, 0, 64, 52
2,26983, Control_c, 0, 64, 53
2,26987, Note_on_c, 0, 44, 0
2,26998, Control_c, 0, 64, 54
2,27014, Control_c, 0, 64, 54
2,27104, Control_c, 0, 64, 54
2,27104, Note_on_c, 0, 47, 0
2,27119, Control_c, 0, 64, 53
2,27131, Note_on_c, 0, 62, 0
2,27136, Control_c, 0, 64, 51
2,27144, Note_on_c, 0, 45, 36
2,27144, Note_on_c, 0, 61, 49
2,27151, Control_c, 0, 64, 49
2,27167, Control_c, 0, 64, 46
2,27182, Control_c, 0, 64, 40
2,27196, Control_c, 0, 64, 30
2,27212, Control_c, 0, 64, 0
2,27341, Control_c, 0, 64, 13
2,27356, Control_c, 0, 64, 36
2,27372, Control_c, 0, 64, 43
2,27387, Control_c, 0, 64, 48
2,27401, Control_c, 0, 64, 52
2,27417, Control_c, 0, 64, 54
2,27432, Control_c, 0, 64, 56
2,27448, Control_c, 0, 64, 58
2,27463, Control_c, 0, 64, 60
2,27477, Control_c, 0, 64, 61
2,27493, Control_c, 0, 64, 62
2,27508, Control_c, 0, 64, 63
2,27524, Control_c, 0, 64, 63
2,27534, Note_on_c, 0, 64, 48
2,27538, Control_c, 0, 64, 64
2,27553, Control_c, 0, 64, 65
2,27569, Control_c, 0, 64, 68
2,27584, Control_c, 0, 64, 73
2,27598, Control_c, 0, 64, 79
2,27614, Control_c, 0, 64, 81
2,27629, Control_c, 0, 64, 83
2,27645, Control_c, 0, 64, 85
2,27654, Note_on_c, 0, 45, 0
2,27660, Control_c, 0, 64, 86
2,27667, Note_on_c, 0, 64, 0
2,27675, Control_c, 0, 64, 87
2,27901, Note_on_c, 0, 64, 65
2,27913, Note_on_c, 0, 43, 40
2,27918, Control_c, 0, 64, 85
2,27933, Control_c, 0, 64, 79
2,27948, Control_c, 0, 64, 71
2,27966, Control_c, 0, 64, 61
2,27980, Control_c, 0, 64, 44
2,27995, Control_c, 0, 64, 38
2,28018, Control_c, 0, 64, 44
2,28033, Control_c, 0, 64, 54
2,28049, Control_c, 0, 64, 60
2,28064, Control_c, 0, 64, 63
2,28078, Control_c, 0, 64, 66
2,28094, Control_c, 0, 64, 69
2,28109, Control_c, 0, 64, 76
2,28125, Control_c, 0, 64, 86
2,28140, Control_c, 0, 64, 103
2,28155, Control_c, 0, 64, 127
2,28168, Note_on_c, 0, 64, 0
2,28192, Note_on_c, 0, 43, 0
2,28287, Note_on_c, 0, 64, 73
2,28633, Note_on_c, 0, 42, 49
2,28666, Note_on_c, 0, 57, 66
2,28670, Control_c, 0, 64, 105
2,28675, Note_on_c, 0, 64, 0
2,28678, Note_on_c, 0, 61, 0
2,28686, Control_c, 0, 64, 85
2,28691, Note_on_c, 0, 52, 0
2,28701, Control_c, 0, 64, 69
2,28716, Control_c, 0, 64, 59
2,28731, Control_c, 0, 64, 0
2,28800, Control_c, 0, 64, 8
2,28816, Control_c, 0, 64, 42
2,28831, Control_c, 0, 64, 50
2,28847, Control_c, 0, 64, 56
2,28862, Control_c, 0, 64, 62
2,28876, Control_c, 0, 64, 65
2,28892, Control_c, 0, 64, 69
2,28907, Control_c, 0, 64, 74
2,28922, Control_c, 0, 64, 81
2,28938, Control_c, 0, 64, 87
2,28953, Control_c, 0, 64, 91
2,28968, Control_c, 0, 64, 92
2,28983, Control_c, 0, 64, 92
2,28998, Control_c, 0, 64, 93
2,29013, Control_c, 0, 64, 94
2,29018, Note_on_c, 0, 55, 48
2,29018, Note_on_c, 0, 64, 53
2,29028, Control_c, 0, 64, 95
2,29271, Note_on_c, 0, 57, 0
2,29362, Control_c, 0, 64, 94
2,29366, Note_on_c, 0, 55, 0
2,29378, Control_c, 0, 64, 89
2,29381, Note_on_c, 0, 54, 52
2,29389, Note_on_c, 0, 64, 0
2,29390, Note_on_c, 0, 60, 66
2,29393, Control_c, 0, 64, 81
2,29393, Note_on_c, 0, 69, 54
2,29408, Control_c, 0, 64, 72
2,29423, Control_c, 0, 64, 64
2,29438, Control_c, 0, 64, 47
2,29454, Control_c, 0, 64, 0
2,29530, Control_c, 0, 64, 42
2,29552, Control_c, 0, 64, 53
2,29568, Control_c, 0, 64, 58
2,29583, Control_c, 0, 64, 63
2,29598, Control_c, 0, 64, 67
2,29614, Control_c, 0, 64, 71
2,29629, Control_c, 0, 64, 77
2,29645, Control_c, 0, 64, 82
2,29660, Control_c, 0, 64, 89
2,29674, Control_c, 0, 64, 95
2,29689, Note_on_c, 0, 54, 0
2,29690, Control_c, 0, 64, 105
2,29705, Control_c, 0, 64, 127
2,29748, Note_on_c, 0, 69, 0
2,29753, Note_on_c, 0, 52, 42
2,29769, Note_on_c, 0, 67, 55
2,29818, Note_on_c, 0, 42, 0
2,29839, Note_on_c, 0, 67, 0
2,30100, Control_c, 0, 64, 111
2,30115, Control_c, 0, 64, 92
2,30117, Note_on_c, 0, 66, 54
2,30118, Note_on_c, 0, 51, 41
2,30120, Note_on_c, 0, 52, 0
2,30131, Control_c, 0, 64, 80
2,30137, Note_on_c, 0, 47, 33
2,30146, Control_c, 0, 64, 72
2,30160, Control_c, 0, 64, 65
2,30176, Control_c, 0, 64, 54
2,30191, Control_c, 0, 64, 21
2,30207, Control_c, 0, 64, 0
2,30298, Control_c, 0, 64, 37
2,30320, Control_c, 0, 64, 48
2,30336, Control_c, 0, 64, 53
2,30342, Note_on_c, 0, 60, 0
2,30350, Control_c, 0, 64, 56
2,30366, Control_c, 0, 64, 60
2,30381, Control_c, 0, 64, 63
2,30396, Control_c, 0, 64, 63
2,30428, Control_c, 0, 64, 63
2,30442, Control_c, 0, 64, 62
2,30458, Control_c, 0, 64, 60
2,30473, Control_c, 0, 64, 58
2,30489, Control_c, 0, 64, 55
2,30494, Note_on_c, 0, 54, 58
2,30503, Control_c, 0, 64, 51
2,30518, Control_c, 0, 64, 46
2,30534, Control_c, 0, 64, 38
2,30549, Control_c, 0, 64, 29
2,30565, Control_c, 0, 64, 19
2,30580, Control_c, 0, 64, 0
2,30858, Note_on_c, 0, 59, 54
2,30862, Note_on_c, 0, 54, 0
2,31221, Note_on_c, 0, 59, 0
2,31231, Note_on_c, 0, 57, 53
2,31588, Note_on_c, 0, 57, 0
2,31606, Note_on_c, 0, 55, 50
2,31612, Note_on_c, 0, 47, 0
2,31618, Note_on_c, 0, 52, 36
2,31630, Note_on_c, 0, 66, 0
2,31640, Note_on_c, 0, 51, 0
2,31970, Note_on_c, 0, 71, 66
2,31976, Note_on_c, 0, 50, 44
2,31983, Note_on_c, 0, 59, 49
2,32012, Control_c, 0, 64, 31
2,32027, Control_c, 0, 64, 45
2,32041, Note_on_c, 0, 55, 0
2,32042, Control_c, 0, 64, 53
2,32056, Note_on_c, 0, 52, 0
2,32058, Control_c, 0, 64, 58
2,32073, Control_c, 0, 64, 62
2,32089, Control_c, 0, 64, 66
2,32104, Control_c, 0, 64, 74
2,32120, Control_c, 0, 64, 91
2,32134, Control_c, 0, 64, 117
2,32149, Control_c, 0, 64, 127
2,32206, Note_on_c, 0, 71, 0
2,32237, Note_on_c, 0, 59, 0
2,32345, Note_on_c, 0, 71, 76
2,32352, Note_on_c, 0, 55, 51
2,32359, Note_on_c, 0, 64, 60
2,32377, Control_c, 0, 64, 95
2,32378, Note_on_c, 0, 50, 0
2,32392, Control_c, 0, 64, 75
2,32407, Control_c, 0, 64, 59
2,32422, Control_c, 0, 64, 37
2,32438, Control_c, 0, 64, 35
2,32453, Control_c, 0, 64, 40
2,32468, Control_c, 0, 64, 50
2,32484, Control_c, 0, 64, 58
2,32499, Control_c, 0, 64, 62
2,32514, Control_c, 0, 64, 65
2,32530, Control_c, 0, 64, 68
2,32544, Control_c, 0, 64, 72
2,32560, Control_c, 0, 64, 76
2,32575, Control_c, 0, 64, 80
2,32579, Note_on_c, 0, 71, 0
2,32589, Control_c, 0, 64, 84
2,32605, Control_c, 0, 64, 88
2,32627, Control_c, 0, 64, 92
2,32643, Control_c, 0, 64, 94
2,32658, Control_c, 0, 64, 95
2,32673, Control_c, 0, 64, 95
2,32689, Control_c, 0, 64, 96
2,32704, Control_c, 0, 64, 96
2,32723, Note_on_c, 0, 71, 79
2,32725, Note_on_c, 0, 64, 0
2,32731, Note_on_c, 0, 62, 63
2,33039, Control_c, 0, 64, 95
2,33053, Control_c, 0, 64, 92
2,33068, Control_c, 0, 64, 88
2,33077, Note_on_c, 0, 62, 0
2,33083, Note_on_c, 0, 71, 0
2,33084, Control_c, 0, 64, 84
2,33096, Note_on_c, 0, 64, 70
2,33098, Control_c, 0, 64, 82
2,33107, Note_on_c, 0, 61, 52
2,33113, Control_c, 0, 64, 80
2,33129, Control_c, 0, 64, 79
2,33144, Control_c, 0, 64, 78
2,33160, Control_c, 0, 64, 76
2,33175, Control_c, 0, 64, 73
2,33190, Control_c, 0, 64, 71
2,33205, Control_c, 0, 64, 70
2,33220, Control_c, 0, 64, 68
2,33235, Control_c, 0, 64, 66
2,33251, Control_c, 0, 64, 64
2,33266, Control_c, 0, 64, 63
2,33282, Control_c, 0, 64, 62
2,33297, Control_c, 0, 64, 61
2,33311, Control_c, 0, 64, 60
2,33327, Control_c, 0, 64, 59
2,33342, Control_c, 0, 64, 59
2,33357, Control_c, 0, 64, 57
2,33372, Control_c, 0, 64, 55
2,33394, Control_c, 0, 64, 51
2,33410, Control_c, 0, 64, 47
2,33425, Control_c, 0, 64, 44
2,33441, Control_c, 0, 64, 42
2,33456, Control_c, 0, 64, 41
2,33471, Control_c, 0, 64, 40
2,33487, Control_c, 0, 64, 40
2,33487, Note_on_c, 0, 59, 42
2,33502, Control_c, 0, 64, 39
2,33543, Note_on_c, 0, 61, 0
2,33547, Control_c, 0, 64, 39
2,33795, Note_on_c, 0, 59, 0
2,33823, Note_on_c, 0, 58, 57
2,33842, Note_on_c, 0, 67, 69
2,33846, Note_on_c, 0, 49, 40
2,33934, Note_on_c, 0, 64, 0
2,34193, Note_on_c, 0, 50, 39
2,34220, Note_on_c, 0, 58, 0
2,34222, Note_on_c, 0, 59, 47
2,34240, Control_c, 0, 64, 38
2,34253, Note_on_c, 0, 49, 0
2,34263, Note_on_c, 0, 55, 0
2,34270, Control_c, 0, 64, 38
2,34560, Control_c, 0, 64, 38
2,34575, Control_c, 0, 64, 46
2,34579, Note_on_c, 0, 52, 33
2,34587, Note_on_c, 0, 61, 48
2,34590, Control_c, 0, 64, 53
2,34606, Control_c, 0, 64, 58
2,34621, Control_c, 0, 64, 61
2,34637, Control_c, 0, 64, 63
2,34645, Note_on_c, 0, 50, 0
2,34651, Control_c, 0, 64, 65
2,34666, Control_c, 0, 64, 67
2,34682, Control_c, 0, 64, 69
2,34697, Control_c, 0, 64, 71
2,34712, Control_c, 0, 64, 73
2,34713, Note_on_c, 0, 59, 0
2,34715, Note_on_c, 0, 67, 0
2,34727, Control_c, 0, 64, 75
2,34742, Control_c, 0, 64, 77
2,34748, Note_on_c, 0, 61, 0
2,34758, Control_c, 0, 64, 80
2,34773, Control_c, 0, 64, 81
2,34788, Control_c, 0, 64, 82
2,34894, Control_c, 0, 64, 81
2,34909, Control_c, 0, 64, 80
2,34932, Control_c, 0, 64, 78
2,34947, Control_c, 0, 64, 74
2,34960, Note_on_c, 0, 52, 0
2,34963, Control_c, 0, 64, 70
2,34963, Note_on_c, 0, 55, 44
2,34967, Note_on_c, 0, 61, 67
2,34969, Note_on_c, 0, 64, 52
2,34978, Control_c, 0, 64, 67
2,34993, Control_c, 0, 64, 63
2,35008, Control_c, 0, 64, 58
2,35023, Control_c, 0, 64, 53
2,35039, Control_c, 0, 64, 50
2,35053, Control_c, 0, 64, 50
2,35099, Control_c, 0, 64, 49
2,35114, Control_c, 0, 64, 48
2,35129, Control_c, 0, 64, 47
2,35144, Control_c, 0, 64, 46
2,35160, Control_c, 0, 64, 46
2,35175, Control_c, 0, 64, 45
2,35205, Control_c, 0, 64, 45
2,35220, Control_c, 0, 64, 44
2,35308, Note_on_c, 0, 61, 0
2,35362, Note_on_c, 0, 46, 28
2,35365, Note_on_c, 0, 66, 60
2,35371, Note_on_c, 0, 64, 0
2,35372, Note_on_c, 0, 54, 42
2,35388, Control_c, 0, 64, 44
2,35389, Note_on_c, 0, 62, 42
2,35424, Note_on_c, 0, 55, 0
2,35434, Control_c, 0, 64, 43
2,35464, Control_c, 0, 64, 43
2,35480, Control_c, 0, 64, 42
2,35495, Control_c, 0, 64, 41
2,35510, Control_c, 0, 64, 40
2,35526, Control_c, 0, 64, 39
2,35541, Control_c, 0, 64, 39
2,35586, Control_c, 0, 64, 40
2,35599, Control_c, 0, 64, 45
2,35615, Control_c, 0, 64, 50
2,35630, Control_c, 0, 64, 54
2,35645, Control_c, 0, 64, 56
2,35660, Control_c, 0, 64, 59
2,35675, Control_c, 0, 64, 61
2,35698, Control_c, 0, 64, 63
2,35711, Note_on_c, 0, 62, 0
2,35713, Control_c, 0, 64, 64
2,35729, Control_c, 0, 64, 66
2,35729, Note_on_c, 0, 66, 0
2,35739, Note_on_c, 0, 61, 47
2,35744, Control_c, 0, 64, 68
2,35744, Note_on_c, 0, 64, 60
2,35758, Control_c, 0, 64, 69
2,35774, Control_c, 0, 64, 70
2,35789, Control_c, 0, 64, 72
2,35805, Control_c, 0, 64, 74
2,35820, Control_c, 0, 64, 76
2,35835, Control_c, 0, 64, 77
2,35835, Note_on_c, 0, 46, 0
2,35850, Control_c, 0, 64, 78
2,35865, Control_c, 0, 64, 79
2,35880, Control_c, 0, 64, 80
2,35926, Note_on_c, 0, 61, 0
2,36017, Control_c, 0, 64, 79
2,36032, Control_c, 0, 64, 78
2,36047, Control_c, 0, 64, 77
2,36062, Control_c, 0, 64, 74
2,36077, Control_c, 0, 64, 70
2,36084, Note_on_c, 0, 64, 0
2,36093, Control_c, 0, 64, 65
2,36104, Note_on_c, 0, 62, 50
2,36107, Control_c, 0, 64, 59
2,36110, Note_on_c, 0, 59, 40
2,36114, Note_on_c, 0, 47, 34
2,36116, Note_on_c, 0, 54, 0
2,36121, Control_c, 0, 64, 52
2,36137, Control_c, 0, 64, 50
2,36153, Control_c, 0, 64, 49
2,36184, Control_c, 0, 64, 49
2,36198, Control_c, 0, 64, 48
2,36214, Control_c, 0, 64, 45
2,36229, Control_c, 0, 64, 43
2,36245, Control_c, 0, 64, 40
2,36260, Control_c, 0, 64, 39
2,36274, Control_c, 0, 64, 38
2,36475, Note_on_c, 0, 62, 0
2,36482, Note_on_c, 0, 66, 66
2,36484, Note_on_c, 0, 57, 44
2,36519, Note_on_c, 0, 59, 0
2,36540, Control_c, 0, 64, 38
2,36847, Note_on_c, 0, 71, 73
2,36850, Note_on_c, 0, 57, 0
2,36852, Note_on_c, 0, 66, 0
2,36853, Note_on_c, 0, 56, 41
2,37211, Note_on_c, 0, 54, 57
2,37213, Note_on_c, 0, 69, 65
2,37232, Note_on_c, 0, 47, 0
2,37235, Note_on_c, 0, 56, 0
2,37246, Note_on_c, 0, 71, 0
2,37569, Note_on_c, 0, 69, 0
2,37572, Note_on_c, 0, 54, 0
2,37577, Note_on_c, 0, 68, 67
2,37587, Note_on_c, 0, 52, 41
2,37658, Control_c, 0, 64, 37
2,37689, Control_c, 0, 64, 37
2,37887, Control_c, 0, 64, 36
2,37902, Control_c, 0, 64, 36
2,37933, Control_c, 0, 64, 35
2,37948, Note_on_c, 0, 71, 80
2,37954, Note_on_c, 0, 50, 55
2,38017, Control_c, 0, 64, 35
2,38169, Control_c, 0, 64, 34
2,38311, Note_on_c, 0, 49, 46
2,38331, Note_on_c, 0, 76, 79
2,38332, Note_on_c, 0, 71, 0
2,38336, Control_c, 0, 64, 34
2,38347, Note_on_c, 0, 50, 0
2,38412, Control_c, 0, 64, 33
2,38426, Control_c, 0, 64, 33
2,38441, Control_c, 0, 64, 32
2,38457, Control_c, 0, 64, 32
2,38472, Control_c, 0, 64, 31
2,38502, Control_c, 0, 64, 31
2,38691, Note_on_c, 0, 76, 0
2,38697, Note_on_c, 0, 49, 0
2,38697, Note_on_c, 0, 74, 68
2,38703, Note_on_c, 0, 47, 46
2,39066, Note_on_c, 0, 74, 0
2,39072, Note_on_c, 0, 45, 46
2,39077, Note_on_c, 0, 73, 68
2,39080, Note_on_c, 0, 47, 0
2,39102, Note_on_c, 0, 68, 0
2,39113, Note_on_c, 0, 52, 0
2,39180, Control_c, 0, 64, 30
2,39300, Control_c, 0, 64, 30
2,39331, Control_c, 0, 64, 29
2,39345, Control_c, 0, 64, 27
2,39360, Control_c, 0, 64, 26
2,39376, Control_c, 0, 64, 22
2,39391, Control_c, 0, 64, 15
2,39407, Control_c, 0, 64, 0
2,39434, Note_on_c, 0, 52, 44
2,39442, Note_on_c, 0, 69, 64
2,39453, Control_c, 0, 64, 18
2,39468, Control_c, 0, 64, 39
2,39484, Control_c, 0, 64, 51
2,39498, Control_c, 0, 64, 56
2,39513, Control_c, 0, 64, 60
2,39537, Control_c, 0, 64, 63
2,39552, Control_c, 0, 64, 66
2,39568, Control_c, 0, 64, 70
2,39582, Control_c, 0, 64, 83
2,39597, Control_c, 0, 64, 127
2,39614, Note_on_c, 0, 69, 0
2,39786, Note_on_c, 0, 45, 0
2,39814, Note_on_c, 0, 69, 74
2,39816, Note_on_c, 0, 57, 55
2,39878, Note_on_c, 0, 57, 0
2,39926, Note_on_c, 0, 52, 0
2,39939, Note_on_c, 0, 69, 0
2,40159, Control_c, 0, 64, 112
2,40161, Note_on_c, 0, 45, 46
2,40175, Control_c, 0, 64, 79
2,40175, Note_on_c, 0, 55, 48
2,40177, Note_on_c, 0, 69, 72
2,40189, Control_c, 0, 64, 65
2,40205, Control_c, 0, 64, 50
2,40220, Control_c, 0, 64, 45
2,40235, Control_c, 0, 64, 53
2,40252, Control_c, 0, 64, 61
2,40267, Control_c, 0, 64, 66
2,40278, Note_on_c, 0, 45, 0
2,40282, Control_c, 0, 64, 74
2,40288, Note_on_c, 0, 69, 0
2,40288, Note_on_c, 0, 73, 0
2,40305, Control_c, 0, 64, 82
2,40320, Control_c, 0, 64, 92
2,40336, Control_c, 0, 64, 111
2,40350, Control_c, 0, 64, 127
2,40548, Control_c, 0, 64, 94
2,40555, Note_on_c, 0, 54, 49
2,40557, Note_on_c, 0, 55, 0
2,40558, Note_on_c, 0, 47, 43
2,40560, Note_on_c, 0, 62, 72
2,40562, Control_c, 0, 64, 75
2,40578, Control_c, 0, 64, 63
2,40593, Control_c, 0, 64, 16
2,40609, Control_c, 0, 64, 0
2,40685, Control_c, 0, 64, 30
2,40700, Control_c, 0, 64, 46
2,40715, Control_c, 0, 64, 52
2,40731, Control_c, 0, 64, 59
2,40746, Control_c, 0, 64, 64
2,40760, Control_c, 0, 64, 67
2,40776, Control_c, 0, 64, 69
2,40791, Control_c, 0, 64, 72
2,40807, Control_c, 0, 64, 76
2,40822, Control_c, 0, 64, 79
2,40837, Control_c, 0, 64, 81
2,40853, Control_c, 0, 64, 84
2,40868, Control_c, 0, 64, 87
2,40882, Control_c, 0, 64, 91
2,40898, Control_c, 0, 64, 97
2,40900, Note_on_c, 0, 54, 0
2,40913, Control_c, 0, 64, 104
2,40924, Note_on_c, 0, 74, 68
2,40929, Control_c, 0, 64, 111
2,40929, Note_on_c, 0, 52, 38
2,40944, Control_c, 0, 64, 117
2,40958, Control_c, 0, 64, 127
2,41054, Note_on_c, 0, 74, 0
2,41294, Note_on_c, 0, 74, 78
2,41295, Note_on_c, 0, 50, 56
2,41295, Note_on_c, 0, 66, 68
2,41300, Control_c, 0, 64, 100
2,41311, Note_on_c, 0, 52, 0
2,41315, Control_c, 0, 64, 78
2,41325, Note_on_c, 0, 62, 0
2,41331, Control_c, 0, 64, 65
2,41345, Control_c, 0, 64, 56
2,41360, Control_c, 0, 64, 53
2,41376, Control_c, 0, 64, 56
2,41388, Note_on_c, 0, 47, 0
2,41391, Control_c, 0, 64, 61
2,41405, Control_c, 0, 64, 65
2,41421, Control_c, 0, 64, 68
2,41436, Control_c, 0, 64, 72
2,41452, Control_c, 0, 64, 76
2,41467, Control_c, 0, 64, 80
2,41481, Control_c, 0, 64, 85
2,41497, Control_c, 0, 64, 101
2,41501, Note_on_c, 0, 74, 0
2,41512, Control_c, 0, 64, 127
2,41658, Note_on_c, 0, 74, 75
2,41665, Note_on_c, 0, 47, 52
2,41694, Note_on_c, 0, 50, 0
2,41744, Note_on_c, 0, 47, 0
2,41755, Note_on_c, 0, 74, 0
2,42021, Note_on_c, 0, 40, 43
2,42027, Note_on_c, 0, 52, 47
2,42028, Note_on_c, 0, 67, 71
2,42036, Control_c, 0, 64, 107
2,42052, Control_c, 0, 64, 79
2,42067, Control_c, 0, 64, 64
2,42082, Control_c, 0, 64, 27
2,42098, Control_c, 0, 64, 0
2,42128, Control_c, 0, 64, 33
2,42144, Control_c, 0, 64, 53
2,42159, Control_c, 0, 64, 61
2,42162, Note_on_c, 0, 52, 0
2,42174, Control_c, 0, 64, 66
2,42189, Control_c, 0, 64, 75
2,42197, Note_on_c, 0, 66, 0
2,42204, Control_c, 0, 64, 97
2,42220, Control_c, 0, 64, 127
2,42391, Note_on_c, 0, 59, 63
2,42394, Note_on_c, 0, 54, 51
2,42406, Note_on_c, 0, 40, 0
2,42500, Note_on_c, 0, 54, 0
2,42519, Note_on_c, 0, 59, 0
2,42740, Note_on_c, 0, 55, 51
2,42753, Note_on_c, 0, 71, 76
2,42765, Note_on_c, 0, 64, 59
2,42786, Note_on_c, 0, 67, 0
2,42790, Control_c, 0, 64, 107
2,42805, Control_c, 0, 64, 87
2,42821, Control_c, 0, 64, 74
2,42835, Control_c, 0, 64, 66
2,42851, Control_c, 0, 64, 57
2,42866, Control_c, 0, 64, 29
2,42880, Control_c, 0, 64, 0
2,43094, Note_on_c, 0, 64, 0
2,43100, Note_on_c, 0, 52, 41
2,43110, Note_on_c, 0, 62, 56
2,43119, Note_on_c, 0, 55, 0
2,43457, Note_on_c, 0, 62, 0
2,43475, Note_on_c, 0, 61, 51
2,43485, Note_on_c, 0, 52, 0
2,43485, Note_on_c, 0, 55, 41
2,43491, Note_on_c, 0, 45, 35
2,43643, Note_on_c, 0, 55, 0
2,43854, Note_on_c, 0, 64, 55
2,43862, Note_on_c, 0, 55, 35
2,43905, Note_on_c, 0, 71, 0
2,44223, Note_on_c, 0, 69, 59
2,44226, Note_on_c, 0, 54, 43
2,44231, Note_on_c, 0, 64, 0
2,44258, Note_on_c, 0, 55, 0
2,44264, Control_c, 0, 64, 31
2,44279, Control_c, 0, 64, 44
2,44295, Control_c, 0, 64, 51
2,44310, Control_c, 0, 64, 56
2,44325, Control_c, 0, 64, 60
2,44342, Control_c, 0, 64, 63
2,44357, Control_c, 0, 64, 66
2,44369, Note_on_c, 0, 45, 0
2,44372, Control_c, 0, 64, 71
2,44387, Control_c, 0, 64, 86
2,44402, Control_c, 0, 64, 127
2,44435, Note_on_c, 0, 54, 0
2,44584, Control_c, 0, 64, 81
2,44593, Note_on_c, 0, 52, 39
2,44594, Note_on_c, 0, 67, 55
2,44595, Note_on_c, 0, 45, 34
2,44599, Control_c, 0, 64, 60
2,44615, Control_c, 0, 64, 0
2,44623, Note_on_c, 0, 69, 0
2,44660, Control_c, 0, 64, 18
2,44675, Control_c, 0, 64, 53
2,44691, Control_c, 0, 64, 62
2,44706, Control_c, 0, 64, 66
2,44721, Control_c, 0, 64, 71
2,44724, Note_on_c, 0, 45, 0
2,44725, Note_on_c, 0, 52, 0
2,44736, Control_c, 0, 64, 83
2,44751, Control_c, 0, 64, 112
2,44766, Control_c, 0, 64, 127
2,44853, Note_on_c, 0, 67, 0
2,45016, Note_on_c, 0, 38, 41
2,45018, Control_c, 0, 64, 85
2,45022, Note_on_c, 0, 50, 32
2,45033, Control_c, 0, 64, 66
2,45039, Note_on_c, 0, 66, 46
2,45047, Control_c, 0, 64, 24
2,45063, Control_c, 0, 64, 0
2,45065, Note_on_c, 0, 61, 0
2,45108, Control_c, 0, 64, 41
2,45123, Control_c, 0, 64, 61
2,45139, Control_c, 0, 64, 66
2,45154, Control_c, 0, 64, 75
2,45161, Note_on_c, 0, 38, 0
2,45171, Control_c, 0, 64, 100
2,45186, Control_c, 0, 64, 127
2,45195, Note_on_c, 0, 50, 0
2,45433, Note_on_c, 0, 57, 46
2,45657, Control_c, 0, 64, 112
2,45679, Control_c, 0, 64, 104
2,45695, Control_c, 0, 64, 97
2,45709, Control_c, 0, 64, 90
2,45724, Control_c, 0, 64, 82
2,45740, Control_c, 0, 64, 75
2,45754, Control_c, 0, 64, 70
2,45769, Control_c, 0, 64, 66
2,45783, Note_on_c, 0, 57, 0
2,45785, Control_c, 0, 64, 63
2,45797, Note_on_c, 0, 62, 45
2,45800, Control_c, 0, 64, 59
2,45806, Note_on_c, 0, 66, 0
2,45816, Control_c, 0, 64, 55
2,45831, Control_c, 0, 64, 51
2,45845, Control_c, 0, 64, 47
2,45861, Control_c, 0, 64, 44
2,45876, Control_c, 0, 64, 42
2,45892, Control_c, 0, 64, 39
2,45907, Control_c, 0, 64, 38
2,45938, Control_c, 0, 64, 37
2,45952, Control_c, 0, 64, 37
2,46014, Control_c, 0, 64, 36
2,46149, Note_on_c, 0, 69, 57
2,46153, Note_on_c, 0, 60, 41
2,46173, Note_on_c, 0, 62, 0
2,46515, Note_on_c, 0, 74, 69
2,46518, Note_on_c, 0, 69, 0
2,46527, Note_on_c, 0, 59, 40
2,46577, Note_on_c, 0, 60, 0
2,46613, Control_c, 0, 64, 36
2,46628, Control_c, 0, 64, 35
2,46659, Control_c, 0, 64, 35
2,46882, Note_on_c, 0, 62, 51
2,46887, Note_on_c, 0, 72, 76
2,46899, Note_on_c, 0, 74, 0
2,46911, Note_on_c, 0, 59, 0
2,47243, Note_on_c, 0, 62, 0
2,47249, Note_on_c, 0, 72, 0
2,47256, Note_on_c, 0, 67, 52
2,47262, Note_on_c, 0, 71, 78
2,47289, Control_c, 0, 64, 34
2,47427, Control_c, 0, 64, 34
2,47503, Control_c, 0, 64, 32
2,47517, Control_c, 0, 64, 28
2,47533, Control_c, 0, 64, 25
2,47548, Control_c, 0, 64, 23
2,47563, Control_c, 0, 64, 22
2,47608, Control_c, 0, 64, 21
2,47622, Note_on_c, 0, 66, 52
2,47622, Note_on_c, 0, 71, 0
2,47624, Note_on_c, 0, 74, 74
2,47625, Control_c, 0, 64, 20
2,47634, Note_on_c, 0, 67, 0
2,47640, Control_c, 0, 64, 16
2,47656, Control_c, 0, 64, 0
2,48001, Note_on_c, 0, 74, 0
2,48004, Note_on_c, 0, 79, 86
2,48010, Note_on_c, 0, 64, 51
2,48010, Note_on_c, 0, 66, 0
2,48043, Control_c, 0, 64, 25
2,48059, Control_c, 0, 64, 52
2,48074, Control_c, 0, 64, 60
2,48088, Control_c, 0, 64, 63
2,48104, Control_c, 0, 64, 66
2,48119, Control_c, 0, 64, 73
2,48135, Control_c, 0, 64, 86
2,48150, Control_c, 0, 64, 127
2,48186, Note_on_c, 0, 64, 0
2,48368, Note_on_c, 0, 52, 53
2,48376, Note_on_c, 0, 62, 51
2,48393, Control_c, 0, 64, 105
2,48407, Control_c, 0, 64, 80
2,48423, Control_c, 0, 64, 66
2,48439, Control_c, 0, 64, 44
2,48455, Control_c, 0, 64, 0
2,48500, Control_c, 0, 64, 46
2,48515, Control_c, 0, 64, 55
2,48530, Control_c, 0, 64, 59
2,48546, Control_c, 0, 64, 62
2,48561, Control_c, 0, 64, 64
2,48576, Control_c, 0, 64, 65
2,48591, Control_c, 0, 64, 68
2,48606, Control_c, 0, 64, 71
2,48622, Control_c, 0, 64, 73
2,48637, Control_c, 0, 64, 74
2,48713, Control_c, 0, 64, 73
2,48727, Control_c, 0, 64, 70
2,48732, Note_on_c, 0, 62, 0
2,48746, Note_on_c, 0, 78, 79
2,48747, Note_on_c, 0, 57, 49
2,48750, Control_c, 0, 64, 66
2,48751, Note_on_c, 0, 61, 53
2,48765, Control_c, 0, 64, 61
2,48767, Note_on_c, 0, 79, 0
2,48780, Note_on_c, 0, 52, 0
2,48781, Control_c, 0, 64, 50
2,48796, Control_c, 0, 64, 36
2,48812, Control_c, 0, 64, 31
2,49089, Note_on_c, 0, 55, 50
2,49102, Note_on_c, 0, 57, 0
2,49104, Note_on_c, 0, 76, 78
2,49142, Note_on_c, 0, 78, 0
2,49145, Control_c, 0, 64, 37
2,49160, Control_c, 0, 64, 47
2,49176, Control_c, 0, 64, 54
2,49191, Control_c, 0, 64, 59
2,49205, Control_c, 0, 64, 62
2,49221, Control_c, 0, 64, 64
2,49236, Control_c, 0, 64, 67
2,49253, Control_c, 0, 64, 72
2,49268, Control_c, 0, 64, 81
2,49283, Control_c, 0, 64, 87
2,49299, Control_c, 0, 64, 91
2,49313, Control_c, 0, 64, 93
2,49328, Control_c, 0, 64, 94
2,49453, Control_c, 0, 64, 93
2,49468, Control_c, 0, 64, 89
2,49472, Note_on_c, 0, 81, 80
2,49482, Note_on_c, 0, 62, 55
2,49483, Control_c, 0, 64, 81
2,49487, Note_on_c, 0, 54, 57
2,49487, Note_on_c, 0, 76, 0
2,49491, Note_on_c, 0, 61, 0
2,49499, Control_c, 0, 64, 71
2,49520, Control_c, 0, 64, 62
2,49536, Control_c, 0, 64, 44
2,49538, Note_on_c, 0, 55, 0
2,49551, Control_c, 0, 64, 39
2,49567, Control_c, 0, 64, 45
2,49581, Control_c, 0, 64, 53
2,49596, Control_c, 0, 64, 59
2,49612, Control_c, 0, 64, 62
2,49627, Control_c, 0, 64, 64
2,49642, Control_c, 0, 64, 66
2,49658, Control_c, 0, 64, 70
2,49673, Control_c, 0, 64, 76
2,49681, Note_on_c, 0, 62, 0
2,49688, Control_c, 0, 64, 83
2,49703, Control_c, 0, 64, 88
2,49718, Control_c, 0, 64, 92
2,49734, Control_c, 0, 64, 93
2,49825, Control_c, 0, 64, 89
2,49840, Control_c, 0, 64, 77
2,49851, Note_on_c, 0, 79, 75
2,49854, Note_on_c, 0, 57, 43
2,49855, Control_c, 0, 64, 68
2,49856, Note_on_c, 0, 64, 49
2,49870, Control_c, 0, 64, 64
2,49888, Note_on_c, 0, 81, 0
2,49900, Control_c, 0, 64, 65
2,49915, Control_c, 0, 64, 67
2,49931, Control_c, 0, 64, 70
2,49942, Note_on_c, 0, 64, 0
2,49945, Control_c, 0, 64, 75
2,49960, Control_c, 0, 64, 79
2,49976, Control_c, 0, 64, 83
2,49991, Control_c, 0, 64, 87
2,50007, Control_c, 0, 64, 90
2,50021, Control_c, 0, 64, 92
2,50036, Control_c, 0, 64, 97
2,50052, Control_c, 0, 64, 99
2,50067, Control_c, 0, 64, 99
2,50174, Control_c, 0, 64, 99
2,50189, Control_c, 0, 64, 97
2,50205, Control_c, 0, 64, 93
2,50220, Control_c, 0, 64, 87
2,50221, Note_on_c, 0, 78, 79
2,50223, Note_on_c, 0, 66, 46
2,50227, Note_on_c, 0, 62, 47
2,50235, Control_c, 0, 64, 82
2,50242, Note_on_c, 0, 79, 0
2,50251, Control_c, 0, 64, 76
2,50266, Control_c, 0, 64, 70
2,50288, Control_c, 0, 64, 66
2,50298, Note_on_c, 0, 57, 0
2,50303, Control_c, 0, 64, 61
2,50312, Note_on_c, 0, 54, 0
2,50318, Control_c, 0, 64, 52
2,50334, Control_c, 0, 64, 35
2,50349, Control_c, 0, 64, 0
2,50582, Note_on_c, 0, 61, 54
2,50591, Note_on_c, 0, 76, 73
2,50627, Note_on_c, 0, 62, 0
2,50628, Note_on_c, 0, 78, 0
2,50958, Note_on_c, 0, 76, 0
2,50963, Note_on_c, 0, 59, 48
2,50967, Note_on_c, 0, 74, 66
2,50969, Note_on_c, 0, 61, 0
2,51019, Control_c, 0, 64, 41
2,51034, Control_c, 0, 64, 54
2,51057, Control_c, 0, 64, 61
2,51072, Control_c, 0, 64, 69
2,51077, Note_on_c, 0, 66, 0
2,51088, Control_c, 0, 64, 87
2,51103, Control_c, 0, 64, 127
2,51112, Note_on_c, 0, 59, 0
2,51345, Note_on_c, 0, 47, 48
2,51467, Control_c, 0, 64, 118
2,51482, Control_c, 0, 64, 112
2,51498, Control_c, 0, 64, 108
2,51513, Control_c, 0, 64, 105
2,51529, Control_c, 0, 64, 101
2,51543, Control_c, 0, 64, 96
2,51558, Control_c, 0, 64, 92
2,51574, Control_c, 0, 64, 88
2,51588, Control_c, 0, 64, 85
2,51603, Control_c, 0, 64, 81
2,51619, Control_c, 0, 64, 78
2,51634, Control_c, 0, 64, 74
2,51650, Control_c, 0, 64, 71
2,51664, Control_c, 0, 64, 68
2,51679, Control_c, 0, 64, 64
2,51681, Note_on_c, 0, 73, 73
2,51681, Note_on_c, 0, 74, 0
2,51688, Note_on_c, 0, 68, 53
2,51690, Note_on_c, 0, 52, 41
2,51695, Control_c, 0, 64, 61
2,51711, Control_c, 0, 64, 54
2,51721, Note_on_c, 0, 47, 0
2,51727, Control_c, 0, 64, 48
2,51742, Control_c, 0, 64, 43
2,51757, Control_c, 0, 64, 42
2,51787, Control_c, 0, 64, 41
2,51802, Control_c, 0, 64, 39
2,51825, Control_c, 0, 64, 36
2,51840, Control_c, 0, 64, 33
2,51856, Control_c, 0, 64, 30
2,51871, Control_c, 0, 64, 29
2,51887, Control_c, 0, 64, 28
2,51901, Control_c, 0, 64, 27
2,51916, Control_c, 0, 64, 26
2,51932, Control_c, 0, 64, 26
2,51947, Control_c, 0, 64, 25
2,52008, Control_c, 0, 64, 24
2,52042, Note_on_c, 0, 71, 70
2,52049, Note_on_c, 0, 73, 0
2,52053, Control_c, 0, 64, 24
2,52060, Note_on_c, 0, 50, 37
2,52083, Control_c, 0, 64, 23
2,52130, Note_on_c, 0, 52, 0
2,52174, Control_c, 0, 64, 22
2,52414, Note_on_c, 0, 49, 51
2,52416, Note_on_c, 0, 76, 69
2,52420, Note_on_c, 0, 71, 0
2,52432, Control_c, 0, 64, 24
2,52441, Note_on_c, 0, 50, 0
2,52448, Control_c, 0, 64, 35
2,52463, Control_c, 0, 64, 44
2,52468, Note_on_c, 0, 68, 0
2,52478, Control_c, 0, 64, 52
2,52494, Control_c, 0, 64, 56
2,52508, Control_c, 0, 64, 59
2,52523, Control_c, 0, 64, 62
2,52540, Control_c, 0, 64, 65
2,52555, Control_c, 0, 64, 69
2,52571, Control_c, 0, 64, 74
2,52593, Control_c, 0, 64, 78
2,52609, Control_c, 0, 64, 81
2,52623, Control_c, 0, 64, 82
2,52638, Control_c, 0, 64, 83
2,52745, Control_c, 0, 64, 80
2,52760, Control_c, 0, 64, 74
2,52776, Control_c, 0, 64, 66
2,52791, Control_c, 0, 64, 57
2,52798, Note_on_c, 0, 74, 64
2,52801, Note_on_c, 0, 52, 47
2,52803, Note_on_c, 0, 68, 54
2,52807, Control_c, 0, 64, 52
2,52809, Note_on_c, 0, 59, 37
2,52821, Control_c, 0, 64, 54
2,52836, Control_c, 0, 64, 58
2,52839, Note_on_c, 0, 76, 0
2,52852, Control_c, 0, 64, 61
2,52866, Control_c, 0, 64, 64
2,52881, Control_c, 0, 64, 68
2,52886, Note_on_c, 0, 59, 0
2,52897, Control_c, 0, 64, 75
2,52912, Control_c, 0, 64, 85
2,52928, Control_c, 0, 64, 92
2,52943, Control_c, 0, 64, 99
2,52957, Control_c, 0, 64, 105
2,52973, Control_c, 0, 64, 107
2,53001, Note_on_c, 0, 74, 0
2,53043, Note_on_c, 0, 68, 0
2,53125, Control_c, 0, 64, 104
2,53140, Control_c, 0, 64, 100
2,53155, Control_c, 0, 64, 94
2,53161, Note_on_c, 0, 61, 49
2,53165, Note_on_c, 0, 52, 0
2,53165, Note_on_c, 0, 73, 77
2,53170, Note_on_c, 0, 57, 45
2,53171, Control_c, 0, 64, 86
2,53174, Note_on_c, 0, 69, 55
2,53186, Control_c, 0, 64, 78
2,53201, Control_c, 0, 64, 71
2,53211, Note_on_c, 0, 49, 0
2,53216, Control_c, 0, 64, 65
2,53231, Control_c, 0, 64, 58
2,53247, Control_c, 0, 64, 44
2,53262, Control_c, 0, 64, 26
2,53276, Control_c, 0, 64, 16
2,53298, Note_on_c, 0, 69, 0
2,53298, Note_on_c, 0, 69, 3
2,53338, Control_c, 0, 64, 15
2,53361, Control_c, 0, 64, 12
2,53377, Control_c, 0, 64, 10
2,53422, Control_c, 0, 64, 0
2,53513, Note_on_c, 0, 56, 50
2,53530, Note_on_c, 0, 71, 64
2,53531, Note_on_c, 0, 64, 51
2,53534, Note_on_c, 0, 69, 0
2,53538, Note_on_c, 0, 73, 0
2,53540, Note_on_c, 0, 57, 0
2,53651, Control_c, 0, 64, 19
2,53665, Control_c, 0, 64, 28
2,53680, Control_c, 0, 64, 32
2,53696, Control_c, 0, 64, 34
2,53711, Control_c, 0, 64, 35
2,53726, Control_c, 0, 64, 35
2,53817, Control_c, 0, 64, 36
2,53832, Control_c, 0, 64, 37
2,53848, Control_c, 0, 64, 40
2,53862, Control_c, 0, 64, 44
2,53871, Note_on_c, 0, 54, 46
2,53873, Note_on_c, 0, 69, 59
2,53877, Control_c, 0, 64, 48
2,53885, Note_on_c, 0, 56, 0
2,53893, Control_c, 0, 64, 51
2,53908, Control_c, 0, 64, 54
2,53922, Control_c, 0, 64, 57
2,53932, Note_on_c, 0, 71, 0
2,53938, Control_c, 0, 64, 59
2,53953, Control_c, 0, 64, 61
2,53961, Note_on_c, 0, 64, 0
2,53969, Control_c, 0, 64, 63
2,53984, Control_c, 0, 64, 66
2,53999, Control_c, 0, 64, 69
2,54014, Control_c, 0, 64, 73
2,54029, Control_c, 0, 64, 76
2,54045, Control_c, 0, 64, 77
2,54060, Control_c, 0, 64, 78
2,54066, Note_on_c, 0, 61, 0
2,54075, Control_c, 0, 64, 78
2,54096, Note_on_c, 0, 54, 0
2,54231, Note_on_c, 0, 69, 0
2,54234, Note_on_c, 0, 57, 60
2,54240, Note_on_c, 0, 68, 56
2,54241, Note_on_c, 0, 73, 68
2,54250, Note_on_c, 0, 52, 48
2,54251, Control_c, 0, 64, 77
2,54266, Control_c, 0, 64, 74
2,54281, Control_c, 0, 64, 68
2,54297, Control_c, 0, 64, 63
2,54311, Control_c, 0, 64, 61
2,54315, Note_on_c, 0, 52, 0
2,54342, Control_c, 0, 64, 63
2,54356, Control_c, 0, 64, 65
2,54372, Control_c, 0, 64, 69
2,54387, Control_c, 0, 64, 73
2,54402, Control_c, 0, 64, 76
2,54418, Control_c, 0, 64, 79
2,54433, Control_c, 0, 64, 81
2,54449, Control_c, 0, 64, 86
2,54464, Control_c, 0, 64, 91
2,54479, Control_c, 0, 64, 92
2,54509, Note_on_c, 0, 68, 0
2,54585, Control_c, 0, 64, 90
2,54600, Control_c, 0, 64, 84
2,54601, Note_on_c, 0, 66, 56
2,54602, Note_on_c, 0, 71, 70
2,54610, Note_on_c, 0, 62, 60
2,54611, Note_on_c, 0, 50, 49
2,54616, Control_c, 0, 64, 77
2,54618, Note_on_c, 0, 57, 0
2,54630, Control_c, 0, 64, 70
2,54632, Note_on_c, 0, 73, 0
2,54646, Control_c, 0, 64, 64
2,54661, Control_c, 0, 64, 57
2,54676, Control_c, 0, 64, 44
2,54692, Control_c, 0, 64, 27
2,54706, Control_c, 0, 64, 17
2,54767, Control_c, 0, 64, 16
2,54782, Control_c, 0, 64, 12
2,54797, Control_c, 0, 64, 8
2,54813, Control_c, 0, 64, 0
2,54966, Note_on_c, 0, 69, 67
2,54979, Note_on_c, 0, 61, 54
2,54987, Control_c, 0, 64, 10
2,54998, Note_on_c, 0, 62, 0
2,54999, Note_on_c, 0, 71, 0
2,55003, Control_c, 0, 64, 30
2,55019, Control_c, 0, 64, 44
2,55034, Control_c, 0, 64, 54
2,55050, Control_c, 0, 64, 58
2,55065, Control_c, 0, 64, 61
2,55079, Control_c, 0, 64, 63
2,55095, Control_c, 0, 64, 64
2,55110, Control_c, 0, 64, 69
2,55126, Control_c, 0, 64, 78
2,55141, Control_c, 0, 64, 83
2,55154, Note_on_c, 0, 69, 0
2,55155, Control_c, 0, 64, 85
2,55171, Control_c, 0, 64, 85
2,55307, Control_c, 0, 64, 83
2,55311, Note_on_c, 0, 61, 0
2,55320, Note_on_c, 0, 68, 69
2,55322, Control_c, 0, 64, 78
2,55328, Note_on_c, 0, 64, 57
2,55338, Control_c, 0, 64, 68
2,55340, Note_on_c, 0, 59, 39
2,55348, Note_on_c, 0, 66, 0
2,55352, Control_c, 0, 64, 60
2,55363, Note_on_c, 0, 50, 0
2,55368, Control_c, 0, 64, 50
2,55383, Control_c, 0, 64, 48
2,55413, Control_c, 0, 64, 48
2,55428, Control_c, 0, 64, 53
2,55443, Control_c, 0, 64, 59
2,55457, Note_on_c, 0, 64, 0
2,55457, Note_on_c, 0, 64, 5
2,55459, Control_c, 0, 64, 63
2,55473, Control_c, 0, 64, 65
2,55489, Control_c, 0, 64, 67
2,55504, Control_c, 0, 64, 71
2,55519, Control_c, 0, 64, 78
2,55535, Control_c, 0, 64, 87
2,55540, Note_on_c, 0, 64, 0
2,55549, Control_c, 0, 64, 94
2,55565, Control_c, 0, 64, 95
2,55664, Control_c, 0, 64, 93
2,55679, Control_c, 0, 64, 83
2,55689, Note_on_c, 0, 49, 43
2,55694, Control_c, 0, 64, 71
2,55703, Note_on_c, 0, 64, 54
2,55709, Control_c, 0, 64, 61
2,55709, Note_on_c, 0, 59, 0
2,55725, Control_c, 0, 64, 48
2,55740, Control_c, 0, 64, 45
2,55755, Control_c, 0, 64, 47
2,55770, Control_c, 0, 64, 55
2,55785, Control_c, 0, 64, 60
2,55800, Control_c, 0, 64, 63
2,55817, Control_c, 0, 64, 65
2,55832, Control_c, 0, 64, 66
2,55847, Control_c, 0, 64, 68
2,55862, Control_c, 0, 64, 70
2,55877, Control_c, 0, 64, 71
2,55889, Note_on_c, 0, 68, 0
2,55893, Control_c, 0, 64, 73
2,55908, Control_c, 0, 64, 73
2,55922, Control_c, 0, 64, 74
2,55953, Control_c, 0, 64, 74
2,56029, Control_c, 0, 64, 74
2,56045, Control_c, 0, 64, 73
2,56050, Note_on_c, 0, 54, 49
2,56053, Note_on_c, 0, 64, 0
2,56060, Control_c, 0, 64, 71
2,56062, Note_on_c, 0, 57, 47
2,56069, Note_on_c, 0, 69, 55
2,56072, Note_on_c, 0, 62, 47
2,56075, Control_c, 0, 64, 67
2,56091, Control_c, 0, 64, 65
2,56105, Control_c, 0, 64, 62
2,56120, Control_c, 0, 64, 59
2,56136, Control_c, 0, 64, 58
2,56151, Control_c, 0, 64, 56
2,56167, Control_c, 0, 64, 54
2,56175, Note_on_c, 0, 49, 0
2,56182, Control_c, 0, 64, 52
2,56196, Control_c, 0, 64, 50
2,56212, Control_c, 0, 64, 47
2,56227, Control_c, 0, 64, 45
2,56241, Control_c, 0, 64, 43
2,56257, Control_c, 0, 64, 42
2,56272, Control_c, 0, 64, 42
2,56288, Control_c, 0, 64, 41
2,56318, Control_c, 0, 64, 41
2,56333, Control_c, 0, 64, 40
2,56363, Control_c, 0, 64, 39
2,56403, Note_on_c, 0, 57, 0
2,56409, Note_on_c, 0, 52, 42
2,56409, Note_on_c, 0, 54, 0
2,56411, Note_on_c, 0, 56, 47
2,56432, Note_on_c, 0, 61, 56
2,56457, Note_on_c, 0, 62, 0
2,56553, Control_c, 0, 64, 39
2,56784, Note_on_c, 0, 52, 0
2,56805, Note_on_c, 0, 61, 0
2,56812, Note_on_c, 0, 50, 30
2,56815, Note_on_c, 0, 54, 48
2,56818, Note_on_c, 0, 59, 54
2,56842, Note_on_c, 0, 56, 0
2,57174, Note_on_c, 0, 61, 53
2,57213, Note_on_c, 0, 59, 0
2,57537, Note_on_c, 0, 61, 0
2,57559, Note_on_c, 0, 54, 0
2,57568, Note_on_c, 0, 62, 47
2,57570, Note_on_c, 0, 52, 31
2,57577, Note_on_c, 0, 50, 0
2,57689, Note_on_c, 0, 69, 0
2,57958, Note_on_c, 0, 68, 57
2,58377, Note_on_c, 0, 45, 24
2,58384, Note_on_c, 0, 68, 0
2,58391, Note_on_c, 0, 69, 46
2,58760, Note_on_c, 0, 61, 49
2,58791, Note_on_c, 0, 62, 0
2,59103, Note_on_c, 0, 45, 0
2,59115, Note_on_c, 0, 52, 0
2,59117, Note_on_c, 0, 66, 53
2,59188, Note_on_c, 0, 61, 0
2,59463, Note_on_c, 0, 42, 52
2,59481, Note_on_c, 0, 64, 51
2,59836, Note_on_c, 0, 47, 51
2,59836, Note_on_c, 0, 69, 0
2,59839, Note_on_c, 0, 64, 0
2,59842, Note_on_c, 0, 42, 0
2,59842, Note_on_c, 0, 66, 0
2,59845, Note_on_c, 0, 63, 50
2,59974, Control_c, 0, 64, 39
2,59989, Control_c, 0, 64, 41
2,60004, Control_c, 0, 64, 43
2,60020, Control_c, 0, 64, 45
2,60035, Control_c, 0, 64, 47
2,60050, Control_c, 0, 64, 50
2,60065, Control_c, 0, 64, 53
2,60080, Control_c, 0, 64, 56
2,60096, Control_c, 0, 64, 59
2,60111, Control_c, 0, 64, 61
2,60126, Control_c, 0, 64, 62
2,60141, Control_c, 0, 64, 64
2,60156, Control_c, 0, 64, 65
2,60172, Control_c, 0, 64, 68
2,60186, Control_c, 0, 64, 71
2,60201, Control_c, 0, 64, 77
2,60215, Note_on_c, 0, 66, 57
2,60217, Control_c, 0, 64, 85
2,60222, Note_on_c, 0, 59, 56
2,60232, Control_c, 0, 64, 96
2,60247, Control_c, 0, 64, 117
2,60270, Control_c, 0, 64, 127
2,60381, Note_on_c, 0, 59, 0
2,60511, Note_on_c, 0, 47, 0
2,60586, Note_on_c, 0, 71, 68
2,60600, Note_on_c, 0, 59, 64
2,60700, Note_on_c, 0, 59, 0
2,60924, Note_on_c, 0, 66, 0
2,60934, Note_on_c, 0, 59, 77
2,60954, Note_on_c, 0, 69, 64
2,61163, Note_on_c, 0, 59, 0
2,61308, Note_on_c, 0, 52, 67
2,61323, Note_on_c, 0, 67, 68
2,61325, Control_c, 0, 64, 100
2,61338, Note_on_c, 0, 71, 0
2,61341, Control_c, 0, 64, 81
2,61356, Control_c, 0, 64, 67
2,61372, Control_c, 0, 64, 54
2,61386, Control_c, 0, 64, 0
2,61389, Note_on_c, 0, 63, 0
2,61392, Note_on_c, 0, 69, 0
2,61463, Control_c, 0, 64, 24
2,61478, Control_c, 0, 64, 44
2,61494, Control_c, 0, 64, 49
2,61509, Control_c, 0, 64, 53
2,61524, Control_c, 0, 64, 57
2,61540, Control_c, 0, 64, 62
2,61555, Control_c, 0, 64, 65
2,61570, Control_c, 0, 64, 69
2,61586, Control_c, 0, 64, 74
2,61601, Control_c, 0, 64, 78
2,61616, Control_c, 0, 64, 83
2,61631, Control_c, 0, 64, 89
2,61646, Control_c, 0, 64, 95
2,61662, Control_c, 0, 64, 106
2,61669, Note_on_c, 0, 50, 49
2,61677, Control_c, 0, 64, 127
2,61689, Note_on_c, 0, 59, 50
2,61752, Note_on_c, 0, 52, 0
2,61775, Note_on_c, 0, 50, 0
2,61984, Note_on_c, 0, 59, 0
2,62028, Note_on_c, 0, 55, 64
2,62045, Note_on_c, 0, 49, 38
2,62046, Note_on_c, 0, 64, 59
2,62080, Control_c, 0, 64, 92
2,62095, Control_c, 0, 64, 74
2,62110, Control_c, 0, 64, 59
2,62125, Control_c, 0, 64, 0
2,62217, Control_c, 0, 64, 31
2,62231, Control_c, 0, 64, 47
2,62246, Control_c, 0, 64, 55
2,62262, Control_c, 0, 64, 61
2,62277, Control_c, 0, 64, 64
2,62292, Control_c, 0, 64, 67
2,62307, Control_c, 0, 64, 72
2,62322, Control_c, 0, 64, 78
2,62338, Control_c, 0, 64, 83
2,62353, Control_c, 0, 64, 88
2,62369, Control_c, 0, 64, 92
2,62381, Note_on_c, 0, 64, 0
2,62384, Control_c, 0, 64, 96
2,62385, Note_on_c, 0, 47, 43
2,62399, Control_c, 0, 64, 99
2,62407, Note_on_c, 0, 62, 55
2,62415, Control_c, 0, 64, 101
2,62430, Control_c, 0, 64, 103
2,62445, Control_c, 0, 64, 103
2,62450, Note_on_c, 0, 49, 0
2,62460, Control_c, 0, 64, 104
2,62476, Note_on_c, 0, 47, 0
2,62680, Control_c, 0, 64, 102
2,62696, Control_c, 0, 64, 94
2,62711, Control_c, 0, 64, 82
2,62725, Control_c, 0, 64, 69
2,62740, Note_on_c, 0, 62, 0
2,62741, Control_c, 0, 64, 52
2,62745, Note_on_c, 0, 46, 43
2,62750, Note_on_c, 0, 61, 54
2,62756, Control_c, 0, 64, 0
2,62832, Control_c, 0, 64, 46
2,62847, Control_c, 0, 64, 58
2,62863, Control_c, 0, 64, 61
2,62872, Note_on_c, 0, 55, 0
2,62878, Control_c, 0, 64, 64
2,62890, Note_on_c, 0, 61, 0
2,62894, Control_c, 0, 64, 70
2,62909, Control_c, 0, 64, 80
2,62915, Note_on_c, 0, 67, 0
2,62924, Control_c, 0, 64, 94
2,62939, Control_c, 0, 64, 105
2,62954, Control_c, 0, 64, 122
2,62969, Control_c, 0, 64, 127
2,63111, Note_on_c, 0, 49, 53
2,63111, Note_on_c, 0, 78, 75
2,63344, Note_on_c, 0, 78, 0
2,63400, Note_on_c, 0, 46, 0
2,63471, Note_on_c, 0, 49, 0
2,63476, Note_on_c, 0, 78, 80
2,63483, Note_on_c, 0, 54, 69
2,63524, Control_c, 0, 64, 100
2,63540, Control_c, 0, 64, 94
2,63585, Control_c, 0, 64, 94
2,63600, Control_c, 0, 64, 97
2,63616, Control_c, 0, 64, 105
2,63631, Control_c, 0, 64, 127
2,63706, Note_on_c, 0, 78, 0
2,63829, Note_on_c, 0, 78, 85
2,63833, Note_on_c, 0, 46, 45
2,63834, Note_on_c, 0, 54, 0
2,63835, Note_on_c, 0, 52, 58
2,63859, Control_c, 0, 64, 108
2,63874, Control_c, 0, 64, 82
2,63889, Control_c, 0, 64, 68
2,63905, Control_c, 0, 64, 60
2,63920, Control_c, 0, 64, 58
2,63935, Control_c, 0, 64, 59
2,63950, Control_c, 0, 64, 62
2,63965, Control_c, 0, 64, 66
2,63980, Control_c, 0, 64, 73
2,63990, Note_on_c, 0, 46, 0
2,63996, Control_c, 0, 64, 80
2,64012, Control_c, 0, 64, 87
2,64027, Control_c, 0, 64, 93
2,64042, Control_c, 0, 64, 101
2,64058, Control_c, 0, 64, 118
2,64072, Control_c, 0, 64, 127
2,64137, Note_on_c, 0, 78, 0
2,64187, Control_c, 0, 64, 99
2,64200, Note_on_c, 0, 45, 44
2,64202, Control_c, 0, 64, 79
2,64209, Note_on_c, 0, 71, 78
2,64210, Note_on_c, 0, 51, 48
2,64217, Control_c, 0, 64, 64
2,64223, Note_on_c, 0, 52, 0
2,64232, Control_c, 0, 64, 36
2,64247, Control_c, 0, 64, 0
2,64308, Control_c, 0, 64, 49
2,64323, Control_c, 0, 64, 58
2,64339, Control_c, 0, 64, 62
2,64354, Control_c, 0, 64, 64
2,64368, Control_c, 0, 64, 70
2,64384, Control_c, 0, 64, 84
2,64399, Control_c, 0, 64, 127
2,64445, Note_on_c, 0, 71, 0
2,64530, Note_on_c, 0, 51, 0
2,64560, Note_on_c, 0, 53, 43
2,64563, Note_on_c, 0, 71, 68
2,64632, Note_on_c, 0, 71, 0
2,64718, Note_on_c, 0, 53, 0
2,64726, Note_on_c, 0, 54, 60
2,64905, Note_on_c, 0, 74, 68
2,64906, Note_on_c, 0, 71, 75
2,64908, Note_on_c, 0, 53, 51
2,64908, Note_on_c, 0, 54, 0
2,64939, Control_c, 0, 64, 99
2,64954, Control_c, 0, 64, 69
2,64969, Control_c, 0, 64, 53
2,64985, Control_c, 0, 64, 41
2,64999, Control_c, 0, 64, 47
2,65015, Control_c, 0, 64, 55
2,65022, Note_on_c, 0, 45, 0
2,65030, Control_c, 0, 64, 62
2,65045, Control_c, 0, 64, 67
2,65060, Control_c, 0, 64, 74
2,65075, Control_c, 0, 64, 84
2,65090, Control_c, 0, 64, 99
2,65106, Control_c, 0, 64, 127
2,65144, Note_on_c, 0, 71, 0
2,65254, Note_on_c, 0, 44, 54
2,65260, Note_on_c, 0, 71, 78
2,65306, Note_on_c, 0, 53, 0
2,65312, Note_on_c, 0, 44, 0
2,65323, Note_on_c, 0, 71, 0
2,65590, Note_on_c, 0, 49, 46
2,65612, Note_on_c, 0, 64, 70
2,65645, Control_c, 0, 64, 107
2,65661, Control_c, 0, 64, 76
2,65676, Control_c, 0, 64, 60
2,65692, Control_c, 0, 64, 0
2,65697, Note_on_c, 0, 74, 0
2,65783, Control_c, 0, 64, 38
2,65798, Control_c, 0, 64, 48
2,65814, Control_c, 0, 64, 54
2,65829, Control_c, 0, 64, 58
2,65844, Control_c, 0, 64, 62
2,65859, Control_c, 0, 64, 66
2,65874, Control_c, 0, 64, 70
2,65889, Control_c, 0, 64, 76
2,65904, Control_c, 0, 64, 84
2,65919, Control_c, 0, 64, 92
2,65935, Control_c, 0, 64, 100
2,65950, Control_c, 0, 64, 110
2,65965, Control_c, 0, 64, 127
2,65976, Note_on_c, 0, 59, 47
2,65977, Note_on_c, 0, 68, 60
2,66001, Note_on_c, 0, 64, 0
2,66314, Control_c, 0, 64, 99
2,66323, Note_on_c, 0, 58, 50
2,66328, Note_on_c, 0, 68, 0
2,66329, Control_c, 0, 64, 79
2,66332, Note_on_c, 0, 67, 66
2,66334, Note_on_c, 0, 73, 56
2,66345, Control_c, 0, 64, 67
2,66360, Control_c, 0, 64, 55
2,66363, Note_on_c, 0, 59, 0
2,66375, Control_c, 0, 64, 0
2,66475, Control_c, 0, 64, 35
2,66489, Control_c, 0, 64, 52
2,66505, Control_c, 0, 64, 58
2,66520, Control_c, 0, 64, 61
2,66535, Control_c, 0, 64, 64
2,66550, Control_c, 0, 64, 67
2,66565, Control_c, 0, 64, 71
2,66581, Control_c, 0, 64, 78
2,66596, Control_c, 0, 64, 84
2,66612, Control_c, 0, 64, 90
2,66627, Control_c, 0, 64, 96
2,66642, Control_c, 0, 64, 100
2,66657, Control_c, 0, 64, 103
2,66672, Control_c, 0, 64, 104
2,66681, Note_on_c, 0, 61, 48
2,66681, Note_on_c, 0, 73, 0
2,66694, Note_on_c, 0, 71, 60
2,66703, Control_c, 0, 64, 105
2,66715, Note_on_c, 0, 61, 0
2,66727, Note_on_c, 0, 58, 0
2,66761, Note_on_c, 0, 49, 0
2,66962, Note_on_c, 0, 71, 0
2,66993, Control_c, 0, 64, 100
2,67009, Control_c, 0, 64, 88
2,67023, Control_c, 0, 64, 74
2,67038, Control_c, 0, 64, 61
2,67045, Note_on_c, 0, 42, 43
2,67052, Note_on_c, 0, 70, 51
2,67054, Control_c, 0, 64, 38
2,67069, Control_c, 0, 64, 33
2,67085, Control_c, 0, 64, 43
2,67100, Control_c, 0, 64, 57
2,67115, Control_c, 0, 64, 65
2,67131, Control_c, 0, 64, 74
2,67145, Control_c, 0, 64, 96
2,67154, Note_on_c, 0, 42, 0
2,67160, Control_c, 0, 64, 127
2,67219, Note_on_c, 0, 67, 0
2,67356, Note_on_c, 0, 70, 0
2,67412, Note_on_c, 0, 54, 44
2,67420, Note_on_c, 0, 61, 59
2,67420, Note_on_c, 0, 64, 44
2,67500, Note_on_c, 0, 64, 0
2,67754, Note_on_c, 0, 61, 0
2,67765, Note_on_c, 0, 62, 47
2,67766, Note_on_c, 0, 66, 65
2,67767, Note_on_c, 0, 56, 45
2,67775, Note_on_c, 0, 71, 66
2,67776, Control_c, 0, 64, 111
2,67790, Control_c, 0, 64, 80
2,67806, Control_c, 0, 64, 63
2,67821, Control_c, 0, 64, 41
2,67836, Control_c, 0, 64, 0
2,67867, Control_c, 0, 64, 34
2,67882, Control_c, 0, 64, 45
2,67883, Note_on_c, 0, 54, 0
2,67898, Control_c, 0, 64, 50
2,67913, Control_c, 0, 64, 51
2,67950, Control_c, 0, 64, 51
2,67966, Control_c, 0, 64, 52
2,68057, Control_c, 0, 64, 50
2,68072, Control_c, 0, 64, 47
2,68088, Control_c, 0, 64, 45
2,68102, Note_on_c, 0, 62, 0
2,68106, Note_on_c, 0, 66, 0
2,68116, Note_on_c, 0, 58, 37
2,68118, Control_c, 0, 64, 47
2,68120, Note_on_c, 0, 73, 64
2,68121, Note_on_c, 0, 71, 0
2,68129, Note_on_c, 0, 64, 53
2,68134, Control_c, 0, 64, 52
2,68136, Note_on_c, 0, 61, 36
2,68141, Note_on_c, 0, 56, 0
2,68148, Control_c, 0, 64, 57
2,68163, Control_c, 0, 64, 61
2,68179, Control_c, 0, 64, 63
2,68194, Control_c, 0, 64, 66
2,68210, Control_c, 0, 64, 68
2,68225, Control_c, 0, 64, 72
2,68240, Control_c, 0, 64, 76
2,68256, Control_c, 0, 64, 79
2,68270, Control_c, 0, 64, 81
2,68286, Control_c, 0, 64, 81
2,68347, Note_on_c, 0, 64, 0
2,68353, Note_on_c, 0, 73, 0
2,68409, Control_c, 0, 64, 80
2,68423, Control_c, 0, 64, 78
2,68438, Control_c, 0, 64, 74
2,68454, Control_c, 0, 64, 69
2,68467, Note_on_c, 0, 61, 0
2,68469, Control_c, 0, 64, 65
2,68485, Control_c, 0, 64, 60
2,68495, Note_on_c, 0, 58, 0
2,68495, Note_on_c, 0, 74, 56
2,68500, Control_c, 0, 64, 51
2,68506, Note_on_c, 0, 59, 38
2,68508, Note_on_c, 0, 62, 45
2,68514, Control_c, 0, 64, 46
2,68530, Control_c, 0, 64, 44
2,68545, Control_c, 0, 64, 44
2,68575, Control_c, 0, 64, 43
2,68590, Control_c, 0, 64, 42
2,68606, Control_c, 0, 64, 40
2,68621, Control_c, 0, 64, 39
2,68635, Control_c, 0, 64, 38
2,68852, Note_on_c, 0, 66, 65
2,68856, Control_c, 0, 64, 38
2,68860, Note_on_c, 0, 62, 0
2,68867, Note_on_c, 0, 57, 37
2,69205, Note_on_c, 0, 56, 43
2,69206, Note_on_c, 0, 71, 71
2,69210, Note_on_c, 0, 66, 0
2,69221, Note_on_c, 0, 57, 0
2,69548, Control_c, 0, 64, 37
2,69576, Note_on_c, 0, 69, 54
2,69584, Note_on_c, 0, 54, 40
2,69589, Note_on_c, 0, 56, 0
2,69620, Note_on_c, 0, 71, 0
2,69919, Note_on_c, 0, 69, 0
2,69944, Note_on_c, 0, 68, 50
2,69949, Note_on_c, 0, 53, 34
2,69954, Note_on_c, 0, 54, 0
2,70033, Note_on_c, 0, 59, 0
2,70288, Note_on_c, 0, 56, 55
2,70645, Note_on_c, 0, 61, 53
2,70645, Note_on_c, 0, 74, 0
2,70661, Note_on_c, 0, 73, 62
2,70679, Note_on_c, 0, 56, 0
2,70980, Note_on_c, 0, 61, 0
2,71009, Note_on_c, 0, 59, 43
2,71190, Control_c, 0, 64, 36
2,71206, Control_c, 0, 64, 27
2,71221, Control_c, 0, 64, 0
2,71363, Note_on_c, 0, 59, 0
2,71363, Note_on_c, 0, 68, 0
2,71383, Note_on_c, 0, 57, 45
2,71401, Note_on_c, 0, 53, 0
2,71728, Note_on_c, 0, 61, 42
2,71740, Control_c, 0, 64, 30
2,71745, Note_on_c, 0, 54, 49
2,71755, Control_c, 0, 64, 50
2,71771, Control_c, 0, 64, 61
2,71794, Control_c, 0, 64, 65
2,71810, Control_c, 0, 64, 72
2,71824, Control_c, 0, 64, 83
2,71840, Control_c, 0, 64, 107
2,71853, Note_on_c, 0, 54, 0
2,71855, Control_c, 0, 64, 127
2,72087, Note_on_c, 0, 54, 68
2,72095, Note_on_c, 0, 66, 69
2,72218, Note_on_c, 0, 54, 0
2,72440, Note_on_c, 0, 54, 68
2,72444, Note_on_c, 0, 64, 65
2,72463, Note_on_c, 0, 61, 0
2,72473, Note_on_c, 0, 73, 0
2,72506, Note_on_c, 0, 57, 0
2,72816, Note_on_c, 0, 47, 62
2,72816, Note_on_c, 0, 64, 0
2,72823, Note_on_c, 0, 54, 0
2,72824, Note_on_c, 0, 62, 60
2,72851, Control_c, 0, 64, 92
2,72865, Control_c, 0, 64, 72
2,72868, Note_on_c, 0, 66, 0
2,72881, Control_c, 0, 64, 60
2,72896, Control_c, 0, 64, 24
2,72911, Control_c, 0, 64, 25
2,72927, Control_c, 0, 64, 45
2,72941, Control_c, 0, 64, 57
2,72956, Control_c, 0, 64, 62
2,72972, Control_c, 0, 64, 65
2,72987, Control_c, 0, 64, 68
2,73003, Control_c, 0, 64, 76
2,73018, Control_c, 0, 64, 86
2,73033, Control_c, 0, 64, 98
2,73049, Control_c, 0, 64, 120
2,73064, Control_c, 0, 64, 127
2,73186, Note_on_c, 0, 54, 55
2,73214, Note_on_c, 0, 71, 70
2,73367, Note_on_c, 0, 69, 69
2,73390, Note_on_c, 0, 71, 0
2,73527, Note_on_c, 0, 50, 72
2,73544, Note_on_c, 0, 68, 70
2,73551, Note_on_c, 0, 69, 0
2,73554, Note_on_c, 0, 54, 0
2,73555, Note_on_c, 0, 59, 49
2,73584, Note_on_c, 0, 47, 0
2,73588, Control_c, 0, 64, 120
2,73604, Control_c, 0, 64, 87
2,73619, Control_c, 0, 64, 72
2,73633, Control_c, 0, 64, 58
2,73649, Control_c, 0, 64, 0
2,73709, Control_c, 0, 64, 44
2,73725, Control_c, 0, 64, 52
2,73740, Control_c, 0, 64, 56
2,73754, Control_c, 0, 64, 57
2,73766, Note_on_c, 0, 62, 0
2,73770, Control_c, 0, 64, 59
2,73785, Control_c, 0, 64, 60
2,73801, Control_c, 0, 64, 60
2,73877, Control_c, 0, 64, 60
2,73893, Control_c, 0, 64, 59
2,73903, Note_on_c, 0, 59, 0
2,73906, Note_on_c, 0, 57, 51
2,73908, Control_c, 0, 64, 55
2,73910, Note_on_c, 0, 66, 66
2,73919, Note_on_c, 0, 61, 62
2,73924, Control_c, 0, 64, 48
2,73938, Control_c, 0, 64, 24
2,73947, Note_on_c, 0, 68, 0
2,73953, Control_c, 0, 64, 0
2,74060, Control_c, 0, 64, 19
2,74075, Control_c, 0, 64, 48
2,74098, Control_c, 0, 64, 55
2,74113, Control_c, 0, 64, 58
2,74129, Control_c, 0, 64, 63
2,74143, Control_c, 0, 64, 67
2,74152, Note_on_c, 0, 61, 0
2,74159, Control_c, 0, 64, 72
2,74174, Control_c, 0, 64, 75
2,74205, Control_c, 0, 64, 74
2,74219, Control_c, 0, 64, 69
2,74234, Control_c, 0, 64, 61
2,74250, Control_c, 0, 64, 30
2,74253, Note_on_c, 0, 56, 47
2,74253, Note_on_c, 0, 66, 0
2,74260, Note_on_c, 0, 65, 62
2,74265, Control_c, 0, 64, 0
2,74268, Note_on_c, 0, 59, 50
2,74302, Note_on_c, 0, 57, 0
2,74311, Control_c, 0, 64, 26
2,74327, Control_c, 0, 64, 53
2,74342, Control_c, 0, 64, 60
2,74356, Control_c, 0, 64, 65
2,74372, Control_c, 0, 64, 73
2,74387, Control_c, 0, 64, 90
2,74394, Note_on_c, 0, 56, 0
2,74402, Control_c, 0, 64, 127
2,74439, Note_on_c, 0, 50, 0
2,74601, Note_on_c, 0, 44, 55
2,74645, Control_c, 0, 64, 91
2,74660, Control_c, 0, 64, 78
2,74675, Control_c, 0, 64, 69
2,74691, Control_c, 0, 64, 62
2,74705, Control_c, 0, 64, 53
2,74721, Control_c, 0, 64, 46
2,74736, Control_c, 0, 64, 45
2,74908, Control_c, 0, 64, 45
2,74923, Control_c, 0, 64, 44
2,74957, Note_on_c, 0, 49, 52
2,75016, Note_on_c, 0, 44, 0
2,75076, Control_c, 0, 64, 44
2,75213, Control_c, 0, 64, 43
2,75297, Note_on_c, 0, 47, 40
2,75305, Note_on_c, 0, 49, 0
2,75664, Note_on_c, 0, 47, 0
2,75665, Note_on_c, 0, 45, 38
2,75738, Control_c, 0, 64, 44
2,75752, Control_c, 0, 64, 47
2,75768, Control_c, 0, 64, 51
2,75783, Control_c, 0, 64, 55
2,75798, Control_c, 0, 64, 57
2,75814, Control_c, 0, 64, 58
2,75828, Control_c, 0, 64, 59
2,75843, Control_c, 0, 64, 59
2,75920, Control_c, 0, 64, 58
2,75936, Control_c, 0, 64, 57
2,75950, Control_c, 0, 64, 56
2,75962, Note_on_c, 0, 59, 0
2,75966, Control_c, 0, 64, 55
2,75981, Control_c, 0, 64, 54
2,75996, Control_c, 0, 64, 53
2,76004, Note_on_c, 0, 57, 39
2,76012, Control_c, 0, 64, 53
2,76019, Note_on_c, 0, 54, 42
2,76027, Control_c, 0, 64, 52
2,76030, Note_on_c, 0, 61, 51
2,76035, Note_on_c, 0, 65, 0
2,76057, Control_c, 0, 64, 52
2,76087, Control_c, 0, 64, 51
2,76117, Control_c, 0, 64, 51
2,76119, Note_on_c, 0, 57, 0
2,76147, Note_on_c, 0, 61, 0
2,76162, Control_c, 0, 64, 50
2,76169, Note_on_c, 0, 59, 52
2,76176, Note_on_c, 0, 54, 0
2,76183, Note_on_c, 0, 56, 46
2,76195, Note_on_c, 0, 45, 0
2,76316, Control_c, 0, 64, 50
2,76320, Note_on_c, 0, 56, 0
2,76327, Note_on_c, 0, 59, 0
2,76355, Note_on_c, 0, 57, 42
2,76363, Note_on_c, 0, 61, 51
2,76370, Note_on_c, 0, 66, 62
2,76475, Control_c, 0, 64, 49
2,76627, Control_c, 0, 64, 49
2,76723, Note_on_c, 0, 61, 0
2,76729, Note_on_c, 0, 47, 34
2,76737, Note_on_c, 0, 62, 47
2,76763, Control_c, 0, 64, 48
2,76781, Note_on_c, 0, 57, 0
2,77067, Note_on_c, 0, 49, 31
2,77070, Note_on_c, 0, 62, 0
2,77078, Note_on_c, 0, 56, 39
2,77081, Note_on_c, 0, 47, 0
2,77082, Control_c, 0, 64, 48
2,77093, Note_on_c, 0, 61, 46
2,77350, Control_c, 0, 64, 47
2,77447, Note_on_c, 0, 56, 0
2,77448, Note_on_c, 0, 54, 35
2,77487, Control_c, 0, 64, 47
2,77800, Note_on_c, 0, 56, 37
2,77822, Note_on_c, 0, 65, 48
2,77831, Note_on_c, 0, 54, 0
2,77840, Note_on_c, 0, 66, 0
2,77881, Control_c, 0, 64, 46
2,77897, Control_c, 0, 64, 42
2,77912, Control_c, 0, 64, 34
2,77936, Control_c, 0, 64, 0
2,78072, Control_c, 0, 64, 47
2,78088, Control_c, 0, 64, 63
2,78103, Control_c, 0, 64, 68
2,78118, Control_c, 0, 64, 78
2,78134, Control_c, 0, 64, 93
2,78149, Control_c, 0, 64, 127
2,78184, Note_on_c, 0, 59, 40
2,78188, Note_on_c, 0, 56, 0
2,78253, Note_on_c, 0, 49, 0
2,78350, Note_on_c, 0, 65, 0
2,78357, Note_on_c, 0, 59, 0
2,78418, Note_on_c, 0, 61, 0
2,78613, Note_on_c, 0, 54, 36
2,78614, Note_on_c, 0, 42, 43
2,78619, Control_c, 0, 64, 93
2,78620, Note_on_c, 0, 66, 54
2,78634, Control_c, 0, 64, 69
2,78640, Note_on_c, 0, 57, 33
2,78650, Control_c, 0, 64, 46
2,78665, Control_c, 0, 64, 0
2,78717, Control_c, 0, 64, 55
2,78733, Control_c, 0, 64, 64
2,78749, Control_c, 0, 64, 72
2,78764, Control_c, 0, 64, 88
2,78780, Control_c, 0, 64, 127
2,78825, Note_on_c, 0, 42, 0
2,78852, Note_on_c, 0, 54, 0
2,78864, Note_on_c, 0, 57, 0
2,78946, Note_on_c, 0, 66, 0
2,79066, Note_on_c, 0, 57, 58
2,79194, Note_on_c, 0, 57, 0
2,79427, Note_on_c, 0, 57, 70
2,79552, Note_on_c, 0, 57, 0
2,79790, Note_on_c, 0, 57, 70
2,79796, Note_on_c, 0, 81, 77
2,79959, Note_on_c, 0, 81, 0
2,80139, Note_on_c, 0, 57, 0
2,80145, Note_on_c, 0, 81, 80
2,80154, Note_on_c, 0, 50, 70
2,80171, Control_c, 0, 64, 108
2,80185, Control_c, 0, 64, 81
2,80200, Control_c, 0, 64, 66
2,80216, Control_c, 0, 64, 42
2,80239, Control_c, 0, 64, 0
2,80284, Control_c, 0, 64, 52
2,80300, Control_c, 0, 64, 60
2,80314, Control_c, 0, 64, 64
2,80330, Control_c, 0, 64, 67
2,80345, Control_c, 0, 64, 76
2,80360, Control_c, 0, 64, 90
2,80376, Control_c, 0, 64, 112
2,80377, Note_on_c, 0, 81, 0
2,80392, Control_c, 0, 64, 127
2,80520, Note_on_c, 0, 81, 82
2,80528, Note_on_c, 0, 69, 74
2,80702, Note_on_c, 0, 69, 0
2,80829, Note_on_c, 0, 81, 0
2,80878, Control_c, 0, 64, 95
2,80881, Note_on_c, 0, 74, 78
2,80889, Note_on_c, 0, 54, 58
2,80894, Control_c, 0, 64, 72
2,80894, Note_on_c, 0, 50, 0
2,80894, Note_on_c, 0, 69, 64
2,80908, Control_c, 0, 64, 56
2,80923, Control_c, 0, 64, 0
2,80969, Control_c, 0, 64, 49
2,80984, Control_c, 0, 64, 59
2,81008, Control_c, 0, 64, 64
2,81023, Control_c, 0, 64, 73
2,81037, Control_c, 0, 64, 88
2,81053, Control_c, 0, 64, 114
2,81068, Control_c, 0, 64, 127
2,81109, Note_on_c, 0, 69, 0
2,81238, Note_on_c, 0, 69, 71
2,81239, Note_on_c, 0, 74, 0
2,81289, Note_on_c, 0, 69, 0
2,81604, Note_on_c, 0, 78, 73
2,81616, Note_on_c, 0, 62, 54
2,81647, Control_c, 0, 64, 111
2,81662, Control_c, 0, 64, 88
2,81674, Note_on_c, 0, 75, 3
2,81675, Note_on_c, 0, 75, 0
2,81677, Control_c, 0, 64, 76
2,81693, Control_c, 0, 64, 68
2,81707, Control_c, 0, 64, 61
2,81722, Control_c, 0, 64, 43
2,81738, Control_c, 0, 64, 0
2,81970, Note_on_c, 0, 54, 0
2,81972, Note_on_c, 0, 50, 58
2,81985, Note_on_c, 0, 47, 41
2,82330, Note_on_c, 0, 55, 60
2,82335, Note_on_c, 0, 52, 54
2,82355, Note_on_c, 0, 47, 0
2,82374, Note_on_c, 0, 50, 0
2,82431, Note_on_c, 0, 78, 0
2,82673, Note_on_c, 0, 52, 0
2,82691, Note_on_c, 0, 50, 42
2,82691, Note_on_c, 0, 71, 71
2,82698, Note_on_c, 0, 55, 0
2,82701, Note_on_c, 0, 54, 55
2,82715, Note_on_c, 0, 62, 0
2,83041, Note_on_c, 0, 54, 0
2,83053, Note_on_c, 0, 49, 41
2,83053, Note_on_c, 0, 50, 0
2,83059, Note_on_c, 0, 52, 43
2,83062, Note_on_c, 0, 76, 67
2,83083, Note_on_c, 0, 71, 0
2,83366, Note_on_c, 0, 49, 0
2,83389, Note_on_c, 0, 47, 43
2,83402, Note_on_c, 0, 76, 0
2,83404, Note_on_c, 0, 64, 67
2,83408, Note_on_c, 0, 74, 57
2,83417, Control_c, 0, 64, 34
2,83432, Control_c, 0, 64, 48
2,83448, Control_c, 0, 64, 56
2,83453, Note_on_c, 0, 52, 0
2,83463, Control_c, 0, 64, 59
2,83478, Control_c, 0, 64, 62
2,83493, Control_c, 0, 64, 66
2,83508, Control_c, 0, 64, 73
2,83508, Note_on_c, 0, 74, 0
2,83523, Control_c, 0, 64, 83
2,83539, Control_c, 0, 64, 92
2,83554, Control_c, 0, 64, 101
2,83570, Control_c, 0, 64, 117
2,83585, Control_c, 0, 64, 127
2,83747, Note_on_c, 0, 45, 44
2,83752, Control_c, 0, 64, 96
2,83753, Note_on_c, 0, 64, 0
2,83766, Note_on_c, 0, 69, 64
2,83766, Note_on_c, 0, 73, 60
2,83768, Control_c, 0, 64, 76
2,83783, Control_c, 0, 64, 64
2,83789, Note_on_c, 0, 47, 0
2,83797, Control_c, 0, 64, 46
2,83813, Control_c, 0, 64, 0
2,83918, Control_c, 0, 64, 21
2,83934, Control_c, 0, 64, 46
2,83949, Control_c, 0, 64, 52
2,83964, Control_c, 0, 64, 56
2,83980, Control_c, 0, 64, 59
2,83994, Control_c, 0, 64, 62
2,84010, Control_c, 0, 64, 65
2,84025, Control_c, 0, 64, 69
2,84040, Control_c, 0, 64, 74
2,84056, Control_c, 0, 64, 78
2,84078, Control_c, 0, 64, 81
2,84094, Control_c, 0, 64, 86
2,84102, Note_on_c, 0, 69, 0
2,84109, Control_c, 0, 64, 94
2,84116, Note_on_c, 0, 57, 64
2,84124, Control_c, 0, 64, 108
2,84129, Note_on_c, 0, 45, 0
2,84139, Control_c, 0, 64, 127
2,84141, Note_on_c, 0, 67, 49
2,84273, Note_on_c, 0, 57, 0
2,84458, Control_c, 0, 64, 120
2,84472, Note_on_c, 0, 62, 56
2,84472, Note_on_c, 0, 73, 0
2,84473, Control_c, 0, 64, 99
2,84474, Note_on_c, 0, 66, 66
2,84490, Control_c, 0, 64, 86
2,84504, Control_c, 0, 64, 74
2,84519, Control_c, 0, 64, 65
2,84535, Control_c, 0, 64, 57
2,84550, Control_c, 0, 64, 43
2,84564, Control_c, 0, 64, 29
2,84580, Control_c, 0, 64, 27
2,84626, Control_c, 0, 64, 26
2,84666, Note_on_c, 0, 67, 0
2,84826, Note_on_c, 0, 69, 63
2,84851, Note_on_c, 0, 60, 50
2,84892, Control_c, 0, 64, 26
2,84902, Note_on_c, 0, 62, 0
2,85043, Control_c, 0, 64, 25
2,85150, Control_c, 0, 64, 24
2,85157, Note_on_c, 0, 60, 0
2,85166, Control_c, 0, 64, 24
2,85180, Control_c, 0, 64, 23
2,85188, Note_on_c, 0, 74, 56
2,85195, Control_c, 0, 64, 22
2,85196, Note_on_c, 0, 59, 42
2,85196, Note_on_c, 0, 69, 0
2,85226, Control_c, 0, 64, 21
2,85241, Control_c, 0, 64, 21
2,85364, Control_c, 0, 64, 21
2,85380, Control_c, 0, 64, 34
2,85394, Control_c, 0, 64, 45
2,85410, Control_c, 0, 64, 52
2,85425, Control_c, 0, 64, 57
2,85440, Control_c, 0, 64, 60
2,85456, Control_c, 0, 64, 62
2,85471, Control_c, 0, 64, 63
2,85486, Control_c, 0, 64, 64
2,85493, Note_on_c, 0, 74, 0
2,85501, Control_c, 0, 64, 66
2,85516, Control_c, 0, 64, 68
2,85531, Control_c, 0, 64, 72
2,85538, Note_on_c, 0, 72, 56
2,85540, Note_on_c, 0, 62, 54
2,85546, Control_c, 0, 64, 81
2,85561, Control_c, 0, 64, 100
2,85577, Control_c, 0, 64, 127
2,85625, Note_on_c, 0, 72, 0
2,85676, Note_on_c, 0, 59, 0
2,85695, Note_on_c, 0, 66, 0
2,85899, Note_on_c, 0, 62, 0
2,85900, Note_on_c, 0, 67, 64
2,85902, Note_on_c, 0, 71, 61
2,85979, Control_c, 0, 64, 103
2,85994, Control_c, 0, 64, 88
2,86010, Control_c, 0, 64, 77
2,86025, Control_c, 0, 64, 69
2,86039, Control_c, 0, 64, 62
2,86055, Control_c, 0, 64, 48
2,86070, Control_c, 0, 64, 21
2,86086, Control_c, 0, 64, 0
2,86238, Control_c, 0, 64, 19
2,86238, Note_on_c, 0, 67, 0
2,86250, Note_on_c, 0, 57, 44
2,86252, Note_on_c, 0, 66, 51
2,86254, Control_c, 0, 64, 40
2,86257, Note_on_c, 0, 47, 30
2,86269, Control_c, 0, 64, 51
2,86284, Control_c, 0, 64, 56
2,86300, Control_c, 0, 64, 60
2,86315, Control_c, 0, 64, 63
2,86330, Control_c, 0, 64, 65
2,86345, Control_c, 0, 64, 68
2,86360, Control_c, 0, 64, 74
2,86382, Control_c, 0, 64, 79
2,86397, Control_c, 0, 64, 83
2,86413, Control_c, 0, 64, 85
2,86428, Control_c, 0, 64, 86
2,86433, Note_on_c, 0, 57, 0
2,86580, Control_c, 0, 64, 84
2,86595, Control_c, 0, 64, 82
2,86611, Control_c, 0, 64, 78
2,86622, Note_on_c, 0, 52, 39
2,86622, Note_on_c, 0, 55, 48
2,86624, Note_on_c, 0, 66, 0
2,86626, Control_c, 0, 64, 73
2,86628, Note_on_c, 0, 64, 63
2,86628, Note_on_c, 0, 71, 0
2,86630, Note_on_c, 0, 47, 0
2,86641, Control_c, 0, 64, 68
2,86656, Control_c, 0, 64, 63
2,86671, Control_c, 0, 64, 57
2,86687, Control_c, 0, 64, 52
2,86702, Control_c, 0, 64, 51
2,86868, Control_c, 0, 64, 51
2,86973, Note_on_c, 0, 71, 70
2,86977, Note_on_c, 0, 50, 46
2,86977, Note_on_c, 0, 52, 0
2,87285, Control_c, 0, 64, 51
2,87301, Control_c, 0, 64, 53
2,87315, Control_c, 0, 64, 56
2,87315, Note_on_c, 0, 50, 0
2,87322, Note_on_c, 0, 48, 49
2,87330, Control_c, 0, 64, 58
2,87334, Note_on_c, 0, 71, 0
2,87336, Note_on_c, 0, 76, 71
2,87346, Control_c, 0, 64, 61
2,87361, Control_c, 0, 64, 64
2,87377, Control_c, 0, 64, 68
2,87392, Control_c, 0, 64, 73
2,87407, Control_c, 0, 64, 81
2,87422, Control_c, 0, 64, 91
2,87437, Control_c, 0, 64, 105
2,87453, Control_c, 0, 64, 127
2,87474, Note_on_c, 0, 48, 0
2,87621, Note_on_c, 0, 55, 0
2,87679, Note_on_c, 0, 52, 59
2,87680, Note_on_c, 0, 47, 43
2,87693, Note_on_c, 0, 74, 73
2,87696, Control_c, 0, 64, 107
2,87710, Control_c, 0, 64, 86
2,87725, Control_c, 0, 64, 74
2,87741, Control_c, 0, 64, 66
2,87757, Control_c, 0, 64, 60
2,87768, Note_on_c, 0, 76, 0
2,87773, Control_c, 0, 64, 51
2,87788, Control_c, 0, 64, 46
2,87962, Control_c, 0, 64, 46
2,88016, Note_on_c, 0, 47, 0
2,88053, Note_on_c, 0, 57, 63
2,88061, Note_on_c, 0, 72, 67
2,88062, Note_on_c, 0, 45, 40
2,88068, Control_c, 0, 64, 45
2,88081, Note_on_c, 0, 74, 0
2,88096, Note_on_c, 0, 52, 0
2,88099, Control_c, 0, 64, 45
2,88114, Control_c, 0, 64, 44
2,88251, Control_c, 0, 64, 44
2,88270, Note_on_c, 0, 64, 0
2,88374, Control_c, 0, 64, 43
2,88404, Control_c, 0, 64, 43
2,88417, Note_on_c, 0, 64, 53
2,88434, Note_on_c, 0, 57, 0
2,88451, Note_on_c, 0, 55, 43
2,88602, Control_c, 0, 64, 42
2,88747, Control_c, 0, 64, 42
2,88754, Note_on_c, 0, 69, 65
2,88755, Note_on_c, 0, 55, 0
2,88761, Note_on_c, 0, 54, 52
2,88761, Note_on_c, 0, 64, 0
2,88868, Control_c, 0, 64, 41
2,89020, Control_c, 0, 64, 44
2,89035, Control_c, 0, 64, 48
2,89050, Control_c, 0, 64, 53
2,89065, Control_c, 0, 64, 56
2,89080, Control_c, 0, 64, 58
2,89088, Note_on_c, 0, 69, 0
2,89096, Control_c, 0, 64, 60
2,89101, Note_on_c, 0, 67, 62
2,89107, Note_on_c, 0, 54, 0
2,89110, Control_c, 0, 64, 61
2,89124, Note_on_c, 0, 52, 12
2,89125, Control_c, 0, 64, 62
2,89141, Control_c, 0, 64, 64
2,89156, Control_c, 0, 64, 66
2,89171, Control_c, 0, 64, 68
2,89184, Note_on_c, 0, 45, 0
2,89186, Control_c, 0, 64, 70
2,89201, Control_c, 0, 64, 72
2,89217, Control_c, 0, 64, 73
2,89400, Control_c, 0, 64, 73
2,89415, Control_c, 0, 64, 71
2,89416, Note_on_c, 0, 52, 0
2,89430, Control_c, 0, 64, 68
2,89453, Control_c, 0, 64, 65
2,89453, Note_on_c, 0, 47, 33
2,89457, Note_on_c, 0, 66, 56
2,89461, Note_on_c, 0, 67, 0
2,89463, Note_on_c, 0, 50, 41
2,89468, Control_c, 0, 64, 60
2,89483, Control_c, 0, 64, 52
2,89499, Control_c, 0, 64, 49
2,89514, Control_c, 0, 64, 48
2,89545, Control_c, 0, 64, 48
2,89575, Control_c, 0, 64, 47
2,89590, Control_c, 0, 64, 46
2,89605, Control_c, 0, 64, 46
2,89783, Note_on_c, 0, 54, 50
2,89801, Note_on_c, 0, 62, 55
2,89805, Note_on_c, 0, 72, 0
2,89833, Note_on_c, 0, 66, 0
2,90106, Note_on_c, 0, 50, 0
2,90119, Note_on_c, 0, 47, 0
2,90145, Note_on_c, 0, 71, 64
2,90146, Note_on_c, 0, 54, 0
2,90147, Note_on_c, 0, 67, 58
2,90156, Note_on_c, 0, 62, 0
2,90157, Note_on_c, 0, 59, 42
2,90472, Note_on_c, 0, 59, 0
2,90493, Note_on_c, 0, 57, 46
2,90498, Note_on_c, 0, 67, 0
2,90509, Note_on_c, 0, 66, 50
2,90510, Note_on_c, 0, 50, 35
2,90816, Note_on_c, 0, 57, 0
2,90846, Note_on_c, 0, 55, 32
2,90850, Note_on_c, 0, 64, 49
2,90872, Note_on_c, 0, 66, 0
2,91167, Note_on_c, 0, 54, 46
2,91177, Note_on_c, 0, 64, 0
2,91184, Note_on_c, 0, 55, 0
2,91189, Note_on_c, 0, 62, 50
2,91309, Note_on_c, 0, 50, 0
2,91475, Control_c, 0, 64, 45
2,91484, Note_on_c, 0, 54, 0
2,91515, Note_on_c, 0, 62, 0
2,91534, Note_on_c, 0, 52, 44
2,91542, Note_on_c, 0, 60, 39
2,91547, Note_on_c, 0, 55, 35
2,91581, Control_c, 0, 64, 46
2,91596, Control_c, 0, 64, 48
2,91611, Control_c, 0, 64, 49
2,91627, Control_c, 0, 64, 51
2,91642, Control_c, 0, 64, 53
2,91657, Control_c, 0, 64, 55
2,91667, Note_on_c, 0, 71, 0
2,91672, Control_c, 0, 64, 55
2,91687, Control_c, 0, 64, 56
2,91771, Control_c, 0, 64, 55
2,91786, Control_c, 0, 64, 55
2,91817, Control_c, 0, 64, 54
2,91832, Control_c, 0, 64, 54
2,91844, Note_on_c, 0, 52, 0
2,91864, Control_c, 0, 64, 53
2,91880, Note_on_c, 0, 69, 65
2,91890, Note_on_c, 0, 55, 0
2,91891, Note_on_c, 0, 54, 43
2,91891, Note_on_c, 0, 57, 39
2,91896, Control_c, 0, 64, 53
2,91911, Control_c, 0, 64, 52
2,91956, Control_c, 0, 64, 52
2,91972, Control_c, 0, 64, 51
2,92002, Control_c, 0, 64, 50
2,92018, Control_c, 0, 64, 49
2,92032, Control_c, 0, 64, 48
2,92048, Control_c, 0, 64, 46
2,92063, Control_c, 0, 64, 45
2,92078, Control_c, 0, 64, 43
2,92094, Control_c, 0, 64, 40
2,92109, Control_c, 0, 64, 38
2,92123, Control_c, 0, 64, 34
2,92139, Control_c, 0, 64, 29
2,92154, Control_c, 0, 64, 17
2,92170, Control_c, 0, 64, 0
2,92222, Note_on_c, 0, 57, 0
2,92225, Note_on_c, 0, 60, 0
2,92237, Note_on_c, 0, 55, 43
2,92240, Note_on_c, 0, 59, 57
2,92256, Note_on_c, 0, 54, 0
2,92413, Note_on_c, 0, 69, 0
2,92414, Control_c, 0, 64, 56
2,92428, Control_c, 0, 64, 62
2,92443, Control_c, 0, 64, 63
2,92459, Control_c, 0, 64, 64
2,92474, Control_c, 0, 64, 66
2,92490, Control_c, 0, 64, 68
2,92504, Control_c, 0, 64, 70
2,92543, Control_c, 0, 64, 69
2,92558, Control_c, 0, 64, 64
2,92574, Control_c, 0, 64, 57
2,92588, Control_c, 0, 64, 53
2,92588, Note_on_c, 0, 52, 39
2,92590, Note_on_c, 0, 67, 58
2,92603, Control_c, 0, 64, 56
2,92619, Control_c, 0, 64, 61
2,92633, Control_c, 0, 64, 66
2,92640, Note_on_c, 0, 52, 0
2,92649, Control_c, 0, 64, 80
2,92659, Note_on_c, 0, 55, 0
2,92664, Control_c, 0, 64, 109
2,92680, Control_c, 0, 64, 127
2,92889, Note_on_c, 0, 59, 0
2,92923, Control_c, 0, 64, 105
2,92928, Note_on_c, 0, 48, 43
2,92928, Note_on_c, 0, 64, 56
2,92935, Note_on_c, 0, 57, 51
2,92938, Control_c, 0, 64, 89
2,92952, Control_c, 0, 64, 78
2,92968, Control_c, 0, 64, 69
2,92983, Control_c, 0, 64, 61
2,92998, Control_c, 0, 64, 40
2,93013, Control_c, 0, 64, 0
2,93176, Note_on_c, 0, 67, 0
2,93274, Note_on_c, 0, 45, 35
2,93282, Note_on_c, 0, 48, 0
2,93299, Note_on_c, 0, 64, 0
2,93305, Note_on_c, 0, 66, 50
2,93392, Note_on_c, 0, 66, 0
2,93449, Note_on_c, 0, 64, 51
2,93622, Note_on_c, 0, 64, 0
2,93629, Note_on_c, 0, 45, 0
2,93641, Note_on_c, 0, 66, 53
2,93643, Note_on_c, 0, 62, 45
2,93647, Note_on_c, 0, 50, 35
2,93902, Control_c, 0, 64, 38
2,93917, Control_c, 0, 64, 50
2,93933, Control_c, 0, 64, 56
2,93948, Control_c, 0, 64, 61
2,93963, Control_c, 0, 64, 65
2,93978, Control_c, 0, 64, 69
2,93980, Note_on_c, 0, 48, 46
2,93993, Control_c, 0, 64, 75
2,94009, Control_c, 0, 64, 82
2,94024, Control_c, 0, 64, 89
2,94039, Control_c, 0, 64, 93
2,94061, Note_on_c, 0, 57, 0
2,94062, Control_c, 0, 64, 96
2,94077, Control_c, 0, 64, 100
2,94093, Control_c, 0, 64, 110
2,94107, Control_c, 0, 64, 127
2,94118, Note_on_c, 0, 48, 0
2,94158, Note_on_c, 0, 50, 0
2,94323, Note_on_c, 0, 66, 0
2,94336, Control_c, 0, 64, 120
2,94351, Control_c, 0, 64, 84
2,94367, Control_c, 0, 64, 67
2,94368, Note_on_c, 0, 67, 54
2,94372, Note_on_c, 0, 55, 49
2,94382, Control_c, 0, 64, 41
2,94389, Note_on_c, 0, 47, 24
2,94397, Control_c, 0, 64, 0
2,94458, Control_c, 0, 64, 36
2,94473, Control_c, 0, 64, 64
2,94489, Control_c, 0, 64, 79
2,94503, Control_c, 0, 64, 127
2,94511, Note_on_c, 0, 47, 0
2,94539, Note_on_c, 0, 55, 0
2,94559, Note_on_c, 0, 62, 0
2,94606, Note_on_c, 0, 67, 0
2,94774, Note_on_c, 0, 62, 66
2,94792, Control_c, 0, 64, 115
2,94794, Note_on_c, 0, 50, 41
2,94808, Control_c, 0, 64, 75
2,94830, Control_c, 0, 64, 57
2,94844, Control_c, 0, 64, 0
2,94875, Control_c, 0, 64, 16
2,94891, Control_c, 0, 64, 50
2,94906, Control_c, 0, 64, 59
2,94921, Control_c, 0, 64, 64
2,94937, Control_c, 0, 64, 69
2,94951, Control_c, 0, 64, 78
2,94967, Control_c, 0, 64, 89
2,94982, Control_c, 0, 64, 114
2,94995, Note_on_c, 0, 62, 0
2,94997, Control_c, 0, 64, 127
2,95113, Note_on_c, 0, 50, 0
2,95135, Note_on_c, 0, 62, 75
2,95141, Note_on_c, 0, 55, 64
2,95150, Control_c, 0, 64, 80
2,95166, Control_c, 0, 64, 67
2,95180, Control_c, 0, 64, 64
2,95195, Control_c, 0, 64, 65
2,95211, Control_c, 0, 64, 69
2,95226, Control_c, 0, 64, 77
2,95234, Note_on_c, 0, 55, 0
2,95241, Control_c, 0, 64, 90
2,95256, Control_c, 0, 64, 107
2,95271, Control_c, 0, 64, 127
2,95310, Note_on_c, 0, 62, 0
2,95479, Note_on_c, 0, 62, 74
2,95483, Control_c, 0, 64, 85
2,95483, Note_on_c, 0, 54, 52
2,95486, Note_on_c, 0, 71, 80
2,95499, Control_c, 0, 64, 62
2,95514, Control_c, 0, 64, 0
2,95560, Control_c, 0, 64, 37
2,95576, Control_c, 0, 64, 54
2,95594, Note_on_c, 0, 54, 0
2,95597, Control_c, 0, 64, 61
2,95613, Control_c, 0, 64, 67
2,95628, Control_c, 0, 64, 76
2,95643, Control_c, 0, 64, 89
2,95659, Control_c, 0, 64, 115
2,95661, Note_on_c, 0, 62, 0
2,95673, Control_c, 0, 64, 127
2,95715, Note_on_c, 0, 71, 0
2,95849, Note_on_c, 0, 71, 78
2,95850, Note_on_c, 0, 55, 66
2,95852, Note_on_c, 0, 52, 48
2,95857, Control_c, 0, 64, 111
2,95872, Control_c, 0, 64, 78
2,95887, Control_c, 0, 64, 63
2,95902, Control_c, 0, 64, 32
2,95917, Control_c, 0, 64, 0
2,95933, Control_c, 0, 64, 33
2,95949, Control_c, 0, 64, 53
2,95963, Control_c, 0, 64, 61
2,95979, Control_c, 0, 64, 65
2,95994, Control_c, 0, 64, 71
2,96010, Control_c, 0, 64, 82
2,96024, Control_c, 0, 64, 96
2,96039, Control_c, 0, 64, 122
2,96055, Control_c, 0, 64, 127
2,96087, Note_on_c, 0, 71, 0
2,96219, Note_on_c, 0, 71, 82
2,96228, Note_on_c, 0, 79, 79
2,96262, Note_on_c, 0, 55, 0
2,96284, Note_on_c, 0, 71, 0
2,96303, Note_on_c, 0, 79, 0
2,96583, Note_on_c, 0, 59, 66
2,96586, Note_on_c, 0, 79, 84
2,96588, Note_on_c, 0, 64, 67
2,96594, Control_c, 0, 64, 81
2,96609, Control_c, 0, 64, 63
2,96624, Control_c, 0, 64, 0
2,96685, Control_c, 0, 64, 49
2,96701, Control_c, 0, 64, 63
2,96716, Control_c, 0, 64, 69
2,96731, Control_c, 0, 64, 79
2,96746, Control_c, 0, 64, 97
2,96761, Control_c, 0, 64, 127
2,96781, Note_on_c, 0, 79, 0
2,96943, Note_on_c, 0, 79, 83
2,96960, Note_on_c, 0, 59, 0
2,97053, Note_on_c, 0, 64, 0
2,97093, Note_on_c, 0, 52, 0
2,97311, Note_on_c, 0, 73, 79
2,97318, Note_on_c, 0, 67, 60
2,97331, Note_on_c, 0, 79, 0
2,97651, Note_on_c, 0, 50, 49
2,97652, Control_c, 0, 64, 91
2,97656, Note_on_c, 0, 52, 47
2,97667, Control_c, 0, 64, 69
2,97682, Control_c, 0, 64, 55
2,97698, Control_c, 0, 64, 45
2,97712, Control_c, 0, 64, 51
2,97728, Control_c, 0, 64, 60
2,97743, Control_c, 0, 64, 64
2,97758, Control_c, 0, 64, 68
2,97774, Control_c, 0, 64, 74
2,97788, Control_c, 0, 64, 85
2,97803, Control_c, 0, 64, 98
2,97819, Control_c, 0, 64, 118
2,97834, Control_c, 0, 64, 127
2,98007, Note_on_c, 0, 49, 40
2,98022, Note_on_c, 0, 57, 52
2,98022, Note_on_c, 0, 76, 74
2,98024, Control_c, 0, 64, 88
2,98028, Note_on_c, 0, 67, 0
2,98039, Control_c, 0, 64, 69
2,98039, Note_on_c, 0, 73, 0
2,98052, Note_on_c, 0, 52, 0
2,98055, Control_c, 0, 64, 55
2,98070, Control_c, 0, 64, 34
2,98084, Control_c, 0, 64, 38
2,98100, Control_c, 0, 64, 48
2,98107, Note_on_c, 0, 50, 0
2,98115, Control_c, 0, 64, 57
2,98130, Control_c, 0, 64, 62
2,98145, Control_c, 0, 64, 65
2,98160, Control_c, 0, 64, 69
2,98176, Control_c, 0, 64, 76
2,98190, Note_on_c, 0, 57, 0
2,98191, Control_c, 0, 64, 85
2,98205, Control_c, 0, 64, 91
2,98221, Control_c, 0, 64, 95
2,98236, Control_c, 0, 64, 98
2,98252, Control_c, 0, 64, 100
2,98266, Control_c, 0, 64, 101
2,98272, Note_on_c, 0, 49, 0
2,98343, Control_c, 0, 64, 95
2,98357, Control_c, 0, 64, 80
2,98370, Note_on_c, 0, 55, 46
2,98370, Note_on_c, 0, 61, 53
2,98373, Control_c, 0, 64, 67
2,98373, Note_on_c, 0, 45, 39
2,98388, Control_c, 0, 64, 52
2,98403, Control_c, 0, 64, 12
2,98420, Control_c, 0, 64, 22
2,98434, Control_c, 0, 64, 43
2,98450, Control_c, 0, 64, 55
2,98465, Control_c, 0, 64, 61
2,98480, Control_c, 0, 64, 63
2,98496, Control_c, 0, 64, 66
2,98511, Control_c, 0, 64, 69
2,98525, Control_c, 0, 64, 74
2,98541, Control_c, 0, 64, 78
2,98556, Control_c, 0, 64, 81
2,98572, Control_c, 0, 64, 82
2,98670, Control_c, 0, 64, 79
2,98685, Control_c, 0, 64, 71
2,98701, Control_c, 0, 64, 62
2,98713, Note_on_c, 0, 55, 0
2,98715, Control_c, 0, 64, 28
2,98731, Control_c, 0, 64, 0
2,98732, Note_on_c, 0, 50, 36
2,98735, Note_on_c, 0, 66, 54
2,98736, Note_on_c, 0, 54, 35
2,98755, Note_on_c, 0, 61, 0
2,98761, Control_c, 0, 64, 36
2,98761, Note_on_c, 0, 45, 0
2,98777, Control_c, 0, 64, 52
2,98792, Control_c, 0, 64, 60
2,98808, Control_c, 0, 64, 63
2,98823, Control_c, 0, 64, 66
2,98837, Control_c, 0, 64, 72
2,98853, Control_c, 0, 64, 82
2,98868, Control_c, 0, 64, 96
2,98883, Control_c, 0, 64, 117
2,98898, Control_c, 0, 64, 127
2,99036, Note_on_c, 0, 76, 0
2,99050, Control_c, 0, 64, 108
2,99064, Note_on_c, 0, 69, 68
2,99065, Control_c, 0, 64, 86
2,99066, Note_on_c, 0, 48, 35
2,99068, Note_on_c, 0, 64, 56
2,99080, Control_c, 0, 64, 70
2,99080, Note_on_c, 0, 66, 0
2,99097, Control_c, 0, 64, 59
2,99111, Control_c, 0, 64, 54
2,99127, Control_c, 0, 64, 55
2,99127, Note_on_c, 0, 50, 0
2,99142, Control_c, 0, 64, 60
2,99157, Control_c, 0, 64, 64
2,99173, Control_c, 0, 64, 69
2,99187, Control_c, 0, 64, 74
2,99202, Control_c, 0, 64, 78
2,99218, Control_c, 0, 64, 80
2,99234, Control_c, 0, 64, 82
2,99250, Control_c, 0, 64, 85
2,99265, Control_c, 0, 64, 89
2,99279, Control_c, 0, 64, 92
2,99295, Control_c, 0, 64, 94
2,99304, Note_on_c, 0, 64, 0
2,99310, Control_c, 0, 64, 95
2,99386, Control_c, 0, 64, 92
2,99401, Control_c, 0, 64, 83
2,99416, Control_c, 0, 64, 68
2,99423, Note_on_c, 0, 74, 69
2,99437, Note_on_c, 0, 69, 0
2,99439, Control_c, 0, 64, 57
2,99443, Note_on_c, 0, 47, 36
2,99450, Note_on_c, 0, 62, 36
2,99455, Control_c, 0, 64, 50
2,99470, Control_c, 0, 64, 52
2,99485, Control_c, 0, 64, 57
2,99500, Control_c, 0, 64, 62
2,99515, Control_c, 0, 64, 66
2,99531, Control_c, 0, 64, 72
2,99535, Note_on_c, 0, 48, 0
2,99545, Control_c, 0, 64, 77
2,99560, Control_c, 0, 64, 79
2,99576, Control_c, 0, 64, 82
2,99579, Note_on_c, 0, 47, 0
2,99591, Control_c, 0, 64, 84
2,99607, Control_c, 0, 64, 86
2,99621, Control_c, 0, 64, 88
2,99636, Control_c, 0, 64, 90
2,99770, Note_on_c, 0, 74, 0
2,99774, Note_on_c, 0, 45, 46
2,99776, Note_on_c, 0, 72, 64
2,99843, Note_on_c, 0, 72, 0
2,99850, Control_c, 0, 64, 90
2,99851, Note_on_c, 0, 54, 0
2,99864, Control_c, 0, 64, 91
2,99874, Note_on_c, 0, 45, 0
2,99879, Control_c, 0, 64, 92
2,100093, Control_c, 0, 64, 89
2,100108, Control_c, 0, 64, 83
2,100122, Control_c, 0, 64, 76
2,100131, Note_on_c, 0, 43, 39
2,100138, Control_c, 0, 64, 69
2,100140, Note_on_c, 0, 71, 60
2,100153, Control_c, 0, 64, 61
2,100169, Control_c, 0, 64, 45
2,100184, Control_c, 0, 64, 0
2,100388, Control_c, 0, 64, 21
2,100403, Control_c, 0, 64, 38
2,100419, Control_c, 0, 64, 44
2,100434, Control_c, 0, 64, 48
2,100450, Control_c, 0, 64, 53
2,100464, Control_c, 0, 64, 57
2,100479, Control_c, 0, 64, 60
2,100495, Control_c, 0, 64, 62
2,100501, Note_on_c, 0, 47, 47
2,100510, Control_c, 0, 64, 63
2,100525, Control_c, 0, 64, 64
2,100541, Control_c, 0, 64, 65
2,100550, Note_on_c, 0, 43, 0
2,100556, Control_c, 0, 64, 67
2,100572, Control_c, 0, 64, 70
2,100586, Control_c, 0, 64, 78
2,100601, Control_c, 0, 64, 84
2,100617, Control_c, 0, 64, 87
2,100632, Control_c, 0, 64, 88
2,100814, Control_c, 0, 64, 87
2,100829, Control_c, 0, 64, 84
2,100837, Note_on_c, 0, 47, 0
2,100843, Note_on_c, 0, 44, 42
2,100844, Control_c, 0, 64, 81
2,100852, Note_on_c, 0, 52, 50
2,100861, Control_c, 0, 64, 77
2,100876, Control_c, 0, 64, 71
2,100891, Control_c, 0, 64, 62
2,100906, Control_c, 0, 64, 41
2,100921, Control_c, 0, 64, 0
2,101020, Control_c, 0, 64, 26
2,101035, Control_c, 0, 64, 31
2,101051, Control_c, 0, 64, 34
2,101066, Control_c, 0, 64, 40
2,101081, Control_c, 0, 64, 45
2,101097, Control_c, 0, 64, 47
2,101109, Note_on_c, 0, 62, 0
2,101111, Control_c, 0, 64, 48
2,101157, Control_c, 0, 64, 48
2,101173, Control_c, 0, 64, 49
2,101192, Note_on_c, 0, 52, 0
2,101215, Note_on_c, 0, 59, 56
2,101223, Note_on_c, 0, 50, 36
2,101370, Control_c, 0, 64, 48
2,101437, Note_on_c, 0, 44, 0
2,101476, Control_c, 0, 64, 49
2,101492, Control_c, 0, 64, 50
2,101506, Control_c, 0, 64, 51
2,101521, Control_c, 0, 64, 51
2,101537, Control_c, 0, 64, 52
2,101552, Control_c, 0, 64, 52
2,101558, Note_on_c, 0, 49, 34
2,101568, Control_c, 0, 64, 53
2,101574, Note_on_c, 0, 45, 32
2,101577, Note_on_c, 0, 59, 0
2,101582, Control_c, 0, 64, 53
2,101583, Note_on_c, 0, 64, 54
2,101599, Note_on_c, 0, 50, 0
2,101628, Control_c, 0, 64, 54
2,101642, Control_c, 0, 64, 54
2,101658, Control_c, 0, 64, 55
2,101673, Control_c, 0, 64, 56
2,101690, Control_c, 0, 64, 57
2,101705, Control_c, 0, 64, 58
2,101720, Control_c, 0, 64, 60
2,101742, Control_c, 0, 64, 62
2,101757, Control_c, 0, 64, 63
2,101773, Control_c, 0, 64, 65
2,101788, Control_c, 0, 64, 66
2,101797, Note_on_c, 0, 64, 0
2,101803, Control_c, 0, 64, 68
2,101819, Control_c, 0, 64, 70
2,101834, Control_c, 0, 64, 71
2,101850, Control_c, 0, 64, 72
2,101935, Note_on_c, 0, 64, 68
2,101938, Note_on_c, 0, 71, 0
2,101944, Note_on_c, 0, 50, 44
2,101945, Note_on_c, 0, 62, 54
2,101953, Note_on_c, 0, 49, 0
2,101955, Control_c, 0, 64, 71
2,101971, Control_c, 0, 64, 69
2,101986, Control_c, 0, 64, 67
2,102001, Control_c, 0, 64, 67
2,102047, Control_c, 0, 64, 66
2,102062, Control_c, 0, 64, 66
2,102122, Control_c, 0, 64, 65
2,102152, Control_c, 0, 64, 65
2,102184, Control_c, 0, 64, 64
2,102215, Control_c, 0, 64, 64
2,102229, Control_c, 0, 64, 63
2,102244, Control_c, 0, 64, 63
2,102260, Control_c, 0, 64, 61
2,102274, Control_c, 0, 64, 59
2,102290, Control_c, 0, 64, 55
2,102299, Note_on_c, 0, 64, 0
2,102300, Note_on_c, 0, 62, 0
2,102305, Control_c, 0, 64, 51
2,102308, Note_on_c, 0, 50, 0
2,102308, Note_on_c, 0, 52, 40
2,102309, Note_on_c, 0, 69, 58
2,102320, Control_c, 0, 64, 44
2,102320, Note_on_c, 0, 61, 46
2,102336, Control_c, 0, 64, 31
2,102351, Control_c, 0, 64, 0
2,102458, Control_c, 0, 64, 30
2,102473, Control_c, 0, 64, 48
2,102488, Control_c, 0, 64, 55
2,102511, Control_c, 0, 64, 58
2,102527, Control_c, 0, 64, 61
2,102542, Control_c, 0, 64, 63
2,102557, Control_c, 0, 64, 65
2,102573, Control_c, 0, 64, 72
2,102587, Control_c, 0, 64, 87
2,102602, Control_c, 0, 64, 115
2,102618, Control_c, 0, 64, 127
2,102650, Note_on_c, 0, 45, 0
2,102660, Note_on_c, 0, 67, 60
2,102668, Note_on_c, 0, 69, 0
2,102672, Note_on_c, 0, 52, 0
2,102674, Note_on_c, 0, 64, 49
2,102816, Note_on_c, 0, 67, 0
2,102981, Control_c, 0, 64, 111
2,102996, Control_c, 0, 64, 85
2,103001, Note_on_c, 0, 46, 44
2,103008, Note_on_c, 0, 66, 58
2,103011, Control_c, 0, 64, 66
2,103013, Note_on_c, 0, 64, 0
2,103026, Control_c, 0, 64, 43
2,103041, Control_c, 0, 64, 0
2,103117, Control_c, 0, 64, 43
2,103133, Control_c, 0, 64, 53
2,103148, Control_c, 0, 64, 58
2,103163, Control_c, 0, 64, 61
2,103179, Control_c, 0, 64, 65
2,103193, Control_c, 0, 64, 71
2,103209, Control_c, 0, 64, 82
2,103224, Control_c, 0, 64, 95
2,103239, Control_c, 0, 64, 114
2,103255, Control_c, 0, 64, 127
2,103350, Note_on_c, 0, 49, 48
2,103702, Note_on_c, 0, 73, 61
2,103706, Note_on_c, 0, 54, 47
2,103718, Control_c, 0, 64, 113
2,103734, Control_c, 0, 64, 88
2,103736, Note_on_c, 0, 61, 0
2,103749, Control_c, 0, 64, 72
2,103763, Control_c, 0, 64, 67
2,103779, Control_c, 0, 64, 66
2,103794, Control_c, 0, 64, 68
2,103810, Control_c, 0, 64, 72
2,103825, Control_c, 0, 64, 77
2,103839, Control_c, 0, 64, 82
2,103855, Control_c, 0, 64, 86
2,103870, Control_c, 0, 64, 87
2,103916, Control_c, 0, 64, 84
2,103932, Control_c, 0, 64, 76
2,103947, Control_c, 0, 64, 66
2,103961, Control_c, 0, 64, 51
2,103977, Control_c, 0, 64, 0
2,104023, Control_c, 0, 64, 46
2,104044, Control_c, 0, 64, 57
2,104049, Note_on_c, 0, 54, 0
2,104057, Note_on_c, 0, 52, 43
2,104060, Control_c, 0, 64, 61
2,104072, Note_on_c, 0, 61, 58
2,104075, Control_c, 0, 64, 63
2,104085, Note_on_c, 0, 49, 0
2,104085, Note_on_c, 0, 66, 0
2,104091, Control_c, 0, 64, 65
2,104106, Control_c, 0, 64, 67
2,104120, Control_c, 0, 64, 71
2,104136, Control_c, 0, 64, 77
2,104152, Control_c, 0, 64, 80
2,104197, Note_on_c, 0, 46, 0
2,104259, Control_c, 0, 64, 80
2,104304, Control_c, 0, 64, 79
2,104319, Control_c, 0, 64, 77
2,104335, Control_c, 0, 64, 75
2,104350, Control_c, 0, 64, 73
2,104365, Control_c, 0, 64, 71
2,104381, Control_c, 0, 64, 68
2,104396, Control_c, 0, 64, 65
2,104411, Control_c, 0, 64, 61
2,104424, Note_on_c, 0, 52, 0
2,104426, Control_c, 0, 64, 54
2,104430, Note_on_c, 0, 47, 36
2,104435, Note_on_c, 0, 50, 39
2,104441, Control_c, 0, 64, 41
2,104451, Note_on_c, 0, 66, 54
2,104457, Control_c, 0, 64, 24
2,104471, Control_c, 0, 64, 0
2,104498, Note_on_c, 0, 73, 0
2,104553, Note_on_c, 0, 61, 0
2,104683, Note_on_c, 0, 66, 0
2,104833, Note_on_c, 0, 66, 54
2,104850, Note_on_c, 0, 64, 47
2,105092, Note_on_c, 0, 47, 0
2,105127, Note_on_c, 0, 50, 0
2,105163, Note_on_c, 0, 64, 0
2,105179, Note_on_c, 0, 66, 0
2,105187, Note_on_c, 0, 71, 52
2,105204, Note_on_c, 0, 62, 34
2,105533, Note_on_c, 0, 54, 46
2,105552, Note_on_c, 0, 69, 38
2,105588, Note_on_c, 0, 71, 0
2,105897, Note_on_c, 0, 69, 0
2,105903, Note_on_c, 0, 67, 62
2,105928, Note_on_c, 0, 59, 45
2,105932, Control_c, 0, 64, 38
2,105942, Note_on_c, 0, 54, 0
2,105947, Control_c, 0, 64, 47
2,105961, Control_c, 0, 64, 55
2,105977, Control_c, 0, 64, 63
2,105992, Control_c, 0, 64, 71
2,106008, Control_c, 0, 64, 93
2,106023, Control_c, 0, 64, 127
2,106087, Note_on_c, 0, 59, 0
2,106262, Note_on_c, 0, 47, 44
2,106266, Control_c, 0, 64, 105
2,106266, Note_on_c, 0, 57, 48
2,106281, Control_c, 0, 64, 83
2,106296, Control_c, 0, 64, 71
2,106311, Control_c, 0, 64, 64
2,106327, Control_c, 0, 64, 54
2,106350, Control_c, 0, 64, 44
2,106364, Control_c, 0, 64, 43
2,106380, Control_c, 0, 64, 45
2,106395, Control_c, 0, 64, 54
2,106411, Control_c, 0, 64, 60
2,106425, Control_c, 0, 64, 63
2,106440, Control_c, 0, 64, 65
2,106451, Note_on_c, 0, 57, 0
2,106456, Control_c, 0, 64, 66
2,106471, Control_c, 0, 64, 67
2,106487, Control_c, 0, 64, 67
2,106577, Control_c, 0, 64, 67
2,106592, Control_c, 0, 64, 65
2,106609, Control_c, 0, 64, 63
2,106624, Control_c, 0, 64, 61
2,106636, Note_on_c, 0, 47, 0
2,106637, Note_on_c, 0, 62, 0
2,106639, Control_c, 0, 64, 59
2,106645, Note_on_c, 0, 55, 44
2,106650, Note_on_c, 0, 52, 38
2,106655, Control_c, 0, 64, 57
2,106670, Control_c, 0, 64, 57
2,106684, Control_c, 0, 64, 56
2,106700, Control_c, 0, 64, 56
2,106715, Control_c, 0, 64, 55
2,106730, Control_c, 0, 64, 54
2,106791, Control_c, 0, 64, 54
2,106836, Control_c, 0, 64, 53
2,107000, Note_on_c, 0, 59, 49
2,107015, Note_on_c, 0, 50, 38
2,107045, Note_on_c, 0, 52, 0
2,107178, Control_c, 0, 64, 53
2,107361, Note_on_c, 0, 59, 0
2,107365, Note_on_c, 0, 50, 0
2,107368, Note_on_c, 0, 49, 48
2,107378, Note_on_c, 0, 64, 62
2,107422, Note_on_c, 0, 55, 0
2,107468, Control_c, 0, 64, 52
2,107702, Note_on_c, 0, 64, 0
2,107704, Note_on_c, 0, 52, 46
2,107720, Note_on_c, 0, 62, 59
2,107741, Control_c, 0, 64, 52
2,107823, Note_on_c, 0, 49, 0
2,107851, Note_on_c, 0, 67, 0
2,107885, Control_c, 0, 64, 51
2,107915, Control_c, 0, 64, 51
2,108084, Note_on_c, 0, 52, 0
2,108090, Note_on_c, 0, 61, 64
2,108093, Note_on_c, 0, 57, 40
2,108099, Control_c, 0, 64, 50
2,108171, Note_on_c, 0, 62, 0
2,108189, Control_c, 0, 64, 50
2,108358, Control_c, 0, 64, 49
2,108388, Control_c, 0, 64, 49
2,108439, Note_on_c, 0, 64, 75
2,108442, Note_on_c, 0, 55, 52
2,108443, Note_on_c, 0, 57, 0
2,108494, Control_c, 0, 64, 48
2,108669, Control_c, 0, 64, 48
2,108721, Note_on_c, 0, 61, 0
2,108794, Note_on_c, 0, 69, 72
2,108795, Note_on_c, 0, 55, 0
2,108803, Note_on_c, 0, 64, 0
2,108808, Note_on_c, 0, 54, 54
2,108835, Control_c, 0, 64, 47
2,108851, Control_c, 0, 64, 47
2,108866, Control_c, 0, 64, 46
2,108897, Control_c, 0, 64, 46
2,108912, Control_c, 0, 64, 45
2,108927, Control_c, 0, 64, 44
2,108957, Control_c, 0, 64, 44
2,108973, Control_c, 0, 64, 43
2,108988, Control_c, 0, 64, 43
2,109003, Control_c, 0, 64, 41
2,109019, Control_c, 0, 64, 40
2,109033, Control_c, 0, 64, 36
2,109049, Control_c, 0, 64, 30
2,109065, Control_c, 0, 64, 15
2,109080, Control_c, 0, 64, 0
2,109162, Note_on_c, 0, 57, 49
2,109168, Note_on_c, 0, 67, 71
2,109187, Note_on_c, 0, 61, 44
2,109190, Note_on_c, 0, 69, 0
2,109212, Note_on_c, 0, 54, 0
2,109514, Note_on_c, 0, 57, 0
2,109523, Note_on_c, 0, 66, 77
2,109525, Note_on_c, 0, 61, 0
2,109531, Note_on_c, 0, 67, 0
2,109534, Note_on_c, 0, 62, 55
2,109572, Control_c, 0, 64, 26
2,109588, Control_c, 0, 64, 30
2,109602, Control_c, 0, 64, 38
2,109618, Control_c, 0, 64, 47
2,109633, Control_c, 0, 64, 51
2,109648, Control_c, 0, 64, 52
2,109740, Control_c, 0, 64, 51
2,109754, Control_c, 0, 64, 46
2,109769, Control_c, 0, 64, 37
2,109785, Control_c, 0, 64, 21
2,109799, Control_c, 0, 64, 0
2,109855, Note_on_c, 0, 61, 52
2,109857, Note_on_c, 0, 62, 0
2,109857, Note_on_c, 0, 69, 79
2,109870, Note_on_c, 0, 64, 62
2,109874, Note_on_c, 0, 66, 0
2,109877, Control_c, 0, 64, 45
2,109892, Control_c, 0, 64, 55
2,109907, Control_c, 0, 64, 62
2,109922, Control_c, 0, 64, 66
2,109938, Control_c, 0, 64, 74
2,109953, Control_c, 0, 64, 90
2,109968, Control_c, 0, 64, 127
2,109970, Note_on_c, 0, 64, 0
2,109985, Note_on_c, 0, 69, 0
2,110204, Note_on_c, 0, 61, 0
2,110219, Note_on_c, 0, 74, 84
2,110232, Note_on_c, 0, 62, 65
2,110233, Note_on_c, 0, 59, 58
2,110264, Control_c, 0, 64, 107
2,110279, Control_c, 0, 64, 92
2,110295, Control_c, 0, 64, 83
2,110310, Control_c, 0, 64, 74
2,110325, Control_c, 0, 64, 68
2,110341, Control_c, 0, 64, 62
2,110356, Control_c, 0, 64, 51
2,110370, Control_c, 0, 64, 36
2,110386, Control_c, 0, 64, 24
2,110401, Control_c, 0, 64, 22
2,110417, Control_c, 0, 64, 21
2,110432, Control_c, 0, 64, 19
2,110446, Control_c, 0, 64, 13
2,110462, Control_c, 0, 64, 0
2,110578, Note_on_c, 0, 62, 0
2,110580, Note_on_c, 0, 73, 82
2,110584, Note_on_c, 0, 59, 0
2,110592, Note_on_c, 0, 57, 61
2,110593, Note_on_c, 0, 66, 61
2,110631, Note_on_c, 0, 74, 0
2,110927, Note_on_c, 0, 73, 0
2,110931, Note_on_c, 0, 55, 66
2,110937, Note_on_c, 0, 71, 81
2,110963, Note_on_c, 0, 66, 0
2,110983, Note_on_c, 0, 57, 0
2,111017, Control_c, 0, 64, 21
2,111031, Control_c, 0, 64, 34
2,111046, Control_c, 0, 64, 42
2,111062, Control_c, 0, 64, 46
2,111077, Control_c, 0, 64, 49
2,111092, Control_c, 0, 64, 51
2,111108, Control_c, 0, 64, 52
2,111123, Control_c, 0, 64, 52
2,111184, Control_c, 0, 64, 52
2,111199, Control_c, 0, 64, 51
2,111215, Control_c, 0, 64, 49
2,111229, Control_c, 0, 64, 47
2,111244, Control_c, 0, 64, 44
2,111260, Control_c, 0, 64, 42
2,111277, Note_on_c, 0, 74, 85
2,111282, Note_on_c, 0, 54, 67
2,111285, Note_on_c, 0, 69, 68
2,111287, Note_on_c, 0, 55, 0
2,111289, Control_c, 0, 64, 43
2,111299, Note_on_c, 0, 71, 0
2,111305, Control_c, 0, 64, 48
2,111320, Control_c, 0, 64, 54
2,111336, Control_c, 0, 64, 59
2,111351, Control_c, 0, 64, 62
2,111365, Control_c, 0, 64, 70
2,111380, Note_on_c, 0, 69, 0
2,111381, Control_c, 0, 64, 82
2,111396, Control_c, 0, 64, 111
2,111405, Note_on_c, 0, 74, 0
2,111411, Control_c, 0, 64, 127
2,111589, Note_on_c, 0, 54, 0
2,111628, Note_on_c, 0, 79, 92
2,111630, Note_on_c, 0, 52, 61
2,111637, Note_on_c, 0, 67, 79
2,111685, Control_c, 0, 64, 97
2,111701, Control_c, 0, 64, 83
2,111723, Control_c, 0, 64, 74
2,111739, Control_c, 0, 64, 68
2,111754, Control_c, 0, 64, 64
2,111769, Control_c, 0, 64, 58
2,111785, Control_c, 0, 64, 47
2,111799, Control_c, 0, 64, 37
2,111815, Control_c, 0, 64, 29
2,111830, Control_c, 0, 64, 26
2,111845, Control_c, 0, 64, 26
2,111861, Control_c, 0, 64, 24
2,111875, Control_c, 0, 64, 22
2,111890, Control_c, 0, 64, 19
2,111906, Control_c, 0, 64, 15
2,111921, Control_c, 0, 64, 12
2,111937, Control_c, 0, 64, 8
2,111966, Control_c, 0, 64, 0
2,111994, Note_on_c, 0, 71, 91
2,112000, Note_on_c, 0, 50, 72
2,112005, Note_on_c, 0, 52, 0
2,112010, Note_on_c, 0, 67, 0
2,112346, Note_on_c, 0, 76, 84
2,112347, Note_on_c, 0, 71, 0
2,112349, Note_on_c, 0, 49, 70
2,112382, Note_on_c, 0, 50, 0
2,112707, Note_on_c, 0, 47, 58
2,112711, Note_on_c, 0, 49, 0
2,112713, Note_on_c, 0, 74, 78
2,112742, Note_on_c, 0, 76, 0
2,113056, Note_on_c, 0, 45, 70
2,113062, Note_on_c, 0, 74, 0
2,113064, Note_on_c, 0, 73, 81
2,113097, Note_on_c, 0, 47, 0
2,113403, Note_on_c, 0, 79, 0
2,113429, Note_on_c, 0, 43, 68
2,113435, Note_on_c, 0, 45, 0
2,113438, Note_on_c, 0, 76, 86
2,113624, Control_c, 0, 64, 8
2,113639, Control_c, 0, 64, 10
2,113670, Control_c, 0, 64, 12
2,113685, Control_c, 0, 64, 13
2,113715, Control_c, 0, 64, 15
2,113746, Control_c, 0, 64, 16
2,113776, Control_c, 0, 64, 17
2,113789, Note_on_c, 0, 42, 77
2,113799, Note_on_c, 0, 81, 88
2,113806, Control_c, 0, 64, 18
2,113816, Note_on_c, 0, 76, 0
2,113817, Note_on_c, 0, 73, 0
2,113821, Control_c, 0, 64, 19
2,113834, Note_on_c, 0, 43, 0
2,113836, Control_c, 0, 64, 20
2,113851, Control_c, 0, 64, 21
2,113867, Control_c, 0, 64, 23
2,113882, Control_c, 0, 64, 25
2,113897, Control_c, 0, 64, 26
2,113912, Control_c, 0, 64, 26
2,113927, Control_c, 0, 64, 27
2,113957, Control_c, 0, 64, 28
2,113975, Control_c, 0, 64, 29
2,113989, Control_c, 0, 64, 29
2,114028, Control_c, 0, 64, 30
2,114185, Note_on_c, 0, 40, 73
2,114193, Note_on_c, 0, 42, 0
2,114193, Note_on_c, 0, 79, 90
2,114196, Note_on_c, 0, 76, 73
2,114230, Note_on_c, 0, 81, 0
2,114528, Control_c, 0, 64, 27
2,114544, Control_c, 0, 64, 0
2,114622, Note_on_c, 0, 38, 75
2,114626, Note_on_c, 0, 74, 71
2,114627, Note_on_c, 0, 40, 0
2,114628, Note_on_c, 0, 78, 89
2,114651, Note_on_c, 0, 79, 0
2,114652, Note_on_c, 0, 76, 0
2,114741, Control_c, 0, 64, 58
2,114756, Control_c, 0, 64, 67
2,114771, Control_c, 0, 64, 90
2,114795, Control_c, 0, 64, 127
2,114836, Note_on_c, 0, 38, 0
2,115059, Note_on_c, 0, 62, 80
2,115065, Note_on_c, 0, 79, 85
2,115073, Note_on_c, 0, 76, 69
2,115083, Note_on_c, 0, 74, 0
2,115096, Note_on_c, 0, 78, 0
2,115211, Note_on_c, 0, 62, 0
2,115422, Note_on_c, 0, 81, 83
2,115428, Note_on_c, 0, 78, 79
2,115429, Note_on_c, 0, 62, 87
2,115436, Note_on_c, 0, 79, 0
2,115465, Note_on_c, 0, 76, 0
2,115546, Note_on_c, 0, 62, 0
2,115788, Note_on_c, 0, 62, 86
2,115792, Note_on_c, 0, 50, 60
2,115909, Note_on_c, 0, 62, 0
2,116142, Note_on_c, 0, 52, 66
2,116144, Note_on_c, 0, 55, 84
2,116189, Note_on_c, 0, 50, 0
2,116218, Control_c, 0, 64, 98
2,116233, Control_c, 0, 64, 82
2,116248, Control_c, 0, 64, 72
2,116264, Control_c, 0, 64, 64
2,116278, Control_c, 0, 64, 54
2,116294, Control_c, 0, 64, 26
2,116309, Control_c, 0, 64, 0
2,116512, Note_on_c, 0, 74, 75
2,116515, Note_on_c, 0, 81, 0
2,116518, Note_on_c, 0, 71, 73
2,116524, Note_on_c, 0, 78, 0
2,116856, Note_on_c, 0, 59, 70
2,116856, Note_on_c, 0, 74, 0
2,116856, Note_on_c, 0, 79, 79
2,116857, Note_on_c, 0, 76, 70
2,116879, Control_c, 0, 64, 33
2,116883, Note_on_c, 0, 71, 0
2,116895, Control_c, 0, 64, 49
2,116910, Control_c, 0, 64, 56
2,116924, Control_c, 0, 64, 62
2,116940, Control_c, 0, 64, 66
2,116944, Note_on_c, 0, 52, 0
2,116955, Control_c, 0, 64, 72
2,116970, Control_c, 0, 64, 78
2,116985, Control_c, 0, 64, 83
2,117000, Control_c, 0, 64, 86
2,117016, Control_c, 0, 64, 87
2,117100, Note_on_c, 0, 79, 0
2,117191, Control_c, 0, 64, 86
2,117198, Note_on_c, 0, 52, 54
2,117205, Control_c, 0, 64, 83
2,117208, Note_on_c, 0, 74, 69
2,117212, Note_on_c, 0, 78, 80
2,117221, Control_c, 0, 64, 78
2,117231, Note_on_c, 0, 76, 0
2,117236, Control_c, 0, 64, 72
2,117252, Control_c, 0, 64, 65
2,117268, Control_c, 0, 64, 58
2,117283, Control_c, 0, 64, 51
2,117299, Control_c, 0, 64, 51
2,117313, Control_c, 0, 64, 54
2,117328, Control_c, 0, 64, 58
2,117344, Control_c, 0, 64, 60
2,117359, Control_c, 0, 64, 62
2,117375, Control_c, 0, 64, 63
2,117389, Control_c, 0, 64, 63
2,117404, Control_c, 0, 64, 64
2,117496, Control_c, 0, 64, 63
2,117510, Control_c, 0, 64, 62
2,117525, Control_c, 0, 64, 59
2,117541, Control_c, 0, 64, 51
2,117556, Control_c, 0, 64, 26
2,117563, Note_on_c, 0, 55, 0
2,117565, Note_on_c, 0, 59, 0
2,117568, Note_on_c, 0, 78, 0
2,117570, Control_c, 0, 64, 0
2,117575, Note_on_c, 0, 57, 55
2,117575, Note_on_c, 0, 73, 70
2,117576, Note_on_c, 0, 76, 69
2,117577, Note_on_c, 0, 74, 0
2,117643, Note_on_c, 0, 52, 0
2,117647, Control_c, 0, 64, 28
2,117663, Control_c, 0, 64, 51
2,117678, Control_c, 0, 64, 59
2,117694, Control_c, 0, 64, 62
2,117708, Control_c, 0, 64, 64
2,117723, Control_c, 0, 64, 66
2,117739, Control_c, 0, 64, 69
2,117754, Control_c, 0, 64, 71
2,117883, Control_c, 0, 64, 70
2,117898, Control_c, 0, 64, 69
2,117907, Note_on_c, 0, 57, 0
2,117913, Control_c, 0, 64, 68
2,117923, Note_on_c, 0, 52, 54
2,117928, Control_c, 0, 64, 67
2,117928, Note_on_c, 0, 55, 50
2,117944, Control_c, 0, 64, 66
2,117969, Note_on_c, 0, 73, 0
2,118233, Control_c, 0, 64, 65
2,118248, Control_c, 0, 64, 65
2,118259, Note_on_c, 0, 55, 0
2,118264, Control_c, 0, 64, 64
2,118274, Note_on_c, 0, 57, 64
2,118277, Note_on_c, 0, 54, 58
2,118278, Control_c, 0, 64, 62
2,118294, Control_c, 0, 64, 61
2,118309, Control_c, 0, 64, 59
2,118317, Note_on_c, 0, 52, 0
2,118324, Control_c, 0, 64, 56
2,118340, Control_c, 0, 64, 54
2,118354, Control_c, 0, 64, 52
2,118369, Control_c, 0, 64, 50
2,118385, Control_c, 0, 64, 48
2,118399, Control_c, 0, 64, 45
2,118415, Control_c, 0, 64, 42
2,118430, Control_c, 0, 64, 38
2,118445, Control_c, 0, 64, 34
2,118461, Control_c, 0, 64, 33
2,118476, Control_c, 0, 64, 32
2,118491, Control_c, 0, 64, 31
2,118507, Control_c, 0, 64, 31
2,118548, Note_on_c, 0, 54, 0
2,118552, Control_c, 0, 64, 32
2,118555, Note_on_c, 0, 57, 0
2,118567, Control_c, 0, 64, 40
2,118583, Control_c, 0, 64, 45
2,118592, Note_on_c, 0, 52, 47
2,118594, Note_on_c, 0, 55, 53
2,118598, Control_c, 0, 64, 49
2,118606, Note_on_c, 0, 64, 74
2,118612, Control_c, 0, 64, 52
2,118635, Control_c, 0, 64, 56
2,118650, Control_c, 0, 64, 59
2,118666, Control_c, 0, 64, 60
2,118681, Control_c, 0, 64, 60
2,118788, Control_c, 0, 64, 59
2,118803, Control_c, 0, 64, 59
2,118818, Control_c, 0, 64, 58
2,118833, Control_c, 0, 64, 57
2,118848, Control_c, 0, 64, 57
2,118864, Control_c, 0, 64, 56
2,118895, Control_c, 0, 64, 56
2,118910, Control_c, 0, 64, 55
2,118925, Control_c, 0, 64, 54
2,118941, Control_c, 0, 64, 53
2,118949, Note_on_c, 0, 52, 0
2,118950, Note_on_c, 0, 55, 0
2,118956, Control_c, 0, 64, 52
2,118971, Control_c, 0, 64, 49
2,118971, Note_on_c, 0, 54, 50
2,118978, Note_on_c, 0, 69, 66
2,118979, Note_on_c, 0, 64, 0
2,118986, Control_c, 0, 64, 45
2,118990, Note_on_c, 0, 50, 36
2,119001, Control_c, 0, 64, 40
2,119017, Control_c, 0, 64, 33
2,119032, Control_c, 0, 64, 20
2,119046, Control_c, 0, 64, 0
2,119265, Note_on_c, 0, 50, 0
2,119292, Note_on_c, 0, 54, 0
2,119308, Note_on_c, 0, 55, 51
2,119316, Note_on_c, 0, 52, 42
2,119317, Note_on_c, 0, 76, 0
2,119323, Note_on_c, 0, 67, 64
2,119361, Note_on_c, 0, 69, 0
2,119366, Control_c, 0, 64, 21
2,119382, Control_c, 0, 64, 41
2,119404, Control_c, 0, 64, 46
2,119420, Control_c, 0, 64, 50
2,119435, Control_c, 0, 64, 53
2,119450, Control_c, 0, 64, 55
2,119465, Control_c, 0, 64, 59
2,119480, Control_c, 0, 64, 62
2,119496, Control_c, 0, 64, 62
2,119587, Control_c, 0, 64, 62
2,119602, Control_c, 0, 64, 61
2,119617, Control_c, 0, 64, 60
2,119632, Control_c, 0, 64, 58
2,119647, Control_c, 0, 64, 55
2,119654, Note_on_c, 0, 55, 0
2,119662, Control_c, 0, 64, 51
2,119665, Note_on_c, 0, 54, 52
2,119665, Note_on_c, 0, 57, 42
2,119674, Note_on_c, 0, 74, 67
2,119677, Control_c, 0, 64, 48
2,119680, Note_on_c, 0, 67, 0
2,119688, Note_on_c, 0, 52, 0
2,119692, Control_c, 0, 64, 43
2,119694, Note_on_c, 0, 66, 57
2,119709, Control_c, 0, 64, 36
2,119724, Control_c, 0, 64, 23
2,119740, Control_c, 0, 64, 0
2,119967, Control_c, 0, 64, 25
2,119983, Control_c, 0, 64, 35
2,119998, Control_c, 0, 64, 40
2,120014, Control_c, 0, 64, 47
2,120021, Note_on_c, 0, 66, 0
2,120029, Control_c, 0, 64, 57
2,120034, Note_on_c, 0, 74, 0
2,120037, Note_on_c, 0, 72, 67
2,120043, Control_c, 0, 64, 61
2,120059, Control_c, 0, 64, 62
2,120072, Note_on_c, 0, 64, 56
2,120074, Control_c, 0, 64, 63
2,120088, Control_c, 0, 64, 64
2,120104, Control_c, 0, 64, 65
2,120119, Control_c, 0, 64, 66
2,120130, Note_on_c, 0, 72, 0
2,120135, Control_c, 0, 64, 67
2,120150, Control_c, 0, 64, 68
2,120157, Note_on_c, 0, 57, 0
2,120172, Control_c, 0, 64, 69
2,120203, Control_c, 0, 64, 69
2,120221, Note_on_c, 0, 64, 0
2,120399, Note_on_c, 0, 71, 67
2,120404, Note_on_c, 0, 62, 55
2,120414, Note_on_c, 0, 54, 0
2,120660, Control_c, 0, 64, 69
2,120675, Control_c, 0, 64, 68
2,120689, Control_c, 0, 64, 66
2,120705, Control_c, 0, 64, 64
2,120720, Control_c, 0, 64, 61
2,120736, Control_c, 0, 64, 57
2,120736, Note_on_c, 0, 50, 52
2,120746, Note_on_c, 0, 47, 31
2,120751, Control_c, 0, 64, 52
2,120766, Control_c, 0, 64, 48
2,120781, Control_c, 0, 64, 42
2,120796, Control_c, 0, 64, 35
2,120811, Control_c, 0, 64, 19
2,120827, Control_c, 0, 64, 0
2,121084, Note_on_c, 0, 52, 44
2,121087, Note_on_c, 0, 61, 62
2,121087, Note_on_c, 0, 62, 0
2,121089, Note_on_c, 0, 55, 48
2,121101, Note_on_c, 0, 47, 0
2,121104, Note_on_c, 0, 50, 0
2,121398, Note_on_c, 0, 55, 0
2,121421, Note_on_c, 0, 61, 0
2,121423, Note_on_c, 0, 62, 55
2,121427, Note_on_c, 0, 52, 0
2,121430, Note_on_c, 0, 50, 44
2,121431, Note_on_c, 0, 54, 47
2,121472, Control_c, 0, 64, 33
2,121487, Control_c, 0, 64, 44
2,121503, Control_c, 0, 64, 51
2,121518, Control_c, 0, 64, 55
2,121532, Control_c, 0, 64, 57
2,121548, Control_c, 0, 64, 58
2,121561, Control_c, 0, 64, 60
2,121575, Control_c, 0, 64, 63
2,121591, Control_c, 0, 64, 66
2,121606, Control_c, 0, 64, 67
2,121606, Note_on_c, 0, 54, 0
2,121728, Note_on_c, 0, 50, 0
2,121751, Control_c, 0, 64, 66
2,121766, Control_c, 0, 64, 63
2,121775, Note_on_c, 0, 64, 55
2,121776, Note_on_c, 0, 49, 40
2,121781, Control_c, 0, 64, 58
2,121785, Note_on_c, 0, 52, 46
2,121796, Control_c, 0, 64, 56
2,121811, Control_c, 0, 64, 57
2,121819, Note_on_c, 0, 62, 0
2,121827, Control_c, 0, 64, 60
2,121842, Control_c, 0, 64, 62
2,121856, Control_c, 0, 64, 65
2,121872, Control_c, 0, 64, 66
2,121881, Note_on_c, 0, 49, 0
2,121887, Control_c, 0, 64, 68
2,121902, Note_on_c, 0, 64, 0
2,121903, Control_c, 0, 64, 68
2,121918, Control_c, 0, 64, 69
2,121932, Control_c, 0, 64, 69
2,121947, Note_on_c, 0, 71, 0
2,121948, Control_c, 0, 64, 70
2,121963, Control_c, 0, 64, 70
2,122084, Control_c, 0, 64, 70
2,122093, Note_on_c, 0, 52, 0
2,122099, Control_c, 0, 64, 68
2,122115, Control_c, 0, 64, 67
2,122130, Control_c, 0, 64, 64
2,122130, Note_on_c, 0, 64, 62
2,122135, Note_on_c, 0, 47, 34
2,122143, Note_on_c, 0, 62, 53
2,122146, Control_c, 0, 64, 62
2,122161, Control_c, 0, 64, 60
2,122176, Control_c, 0, 64, 57
2,122192, Control_c, 0, 64, 55
2,122435, Control_c, 0, 64, 54
2,122450, Control_c, 0, 64, 54
2,122473, Control_c, 0, 64, 53
2,122485, Note_on_c, 0, 64, 0
2,122488, Control_c, 0, 64, 52
2,122497, Note_on_c, 0, 62, 0
2,122499, Note_on_c, 0, 69, 63
2,122506, Control_c, 0, 64, 50
2,122513, Note_on_c, 0, 45, 36
2,122515, Note_on_c, 0, 61, 47
2,122521, Control_c, 0, 64, 48
2,122534, Note_on_c, 0, 47, 0
2,122537, Control_c, 0, 64, 43
2,122552, Control_c, 0, 64, 34
2,122567, Control_c, 0, 64, 16
2,122582, Control_c, 0, 64, 0
2,122825, Control_c, 0, 64, 20
2,122840, Control_c, 0, 64, 35
2,122854, Note_on_c, 0, 61, 0
2,122854, Note_on_c, 0, 67, 57
2,122856, Control_c, 0, 64, 47
2,122871, Control_c, 0, 64, 53
2,122871, Note_on_c, 0, 64, 47
2,122874, Note_on_c, 0, 69, 0
2,122886, Control_c, 0, 64, 56
2,122901, Control_c, 0, 64, 58
2,122917, Control_c, 0, 64, 61
2,122932, Control_c, 0, 64, 62
2,122948, Control_c, 0, 64, 63
2,122962, Control_c, 0, 64, 64
2,122978, Control_c, 0, 64, 68
2,122995, Control_c, 0, 64, 71
2,122999, Note_on_c, 0, 67, 0
2,123009, Control_c, 0, 64, 73
2,123025, Control_c, 0, 64, 73
2,123146, Control_c, 0, 64, 73
2,123177, Control_c, 0, 64, 72
2,123192, Control_c, 0, 64, 70
2,123197, Note_on_c, 0, 66, 64
2,123207, Control_c, 0, 64, 67
2,123222, Control_c, 0, 64, 64
2,123226, Note_on_c, 0, 45, 0
2,123245, Control_c, 0, 64, 58
2,123261, Control_c, 0, 64, 49
2,123275, Control_c, 0, 64, 40
2,123290, Control_c, 0, 64, 31
2,123306, Control_c, 0, 64, 27
2,123321, Control_c, 0, 64, 27
2,123351, Control_c, 0, 64, 26
2,123366, Control_c, 0, 64, 26
2,123382, Control_c, 0, 64, 25
2,123427, Control_c, 0, 64, 24
2,123518, Control_c, 0, 64, 27
2,123534, Control_c, 0, 64, 39
2,123541, Note_on_c, 0, 64, 0
2,123548, Control_c, 0, 64, 48
2,123560, Note_on_c, 0, 62, 48
2,123562, Note_on_c, 0, 57, 48
2,123563, Control_c, 0, 64, 53
2,123579, Control_c, 0, 64, 56
2,123594, Control_c, 0, 64, 58
2,123609, Control_c, 0, 64, 60
2,123625, Control_c, 0, 64, 63
2,123640, Control_c, 0, 64, 66
2,123655, Control_c, 0, 64, 71
2,123670, Control_c, 0, 64, 77
2,123684, Control_c, 0, 64, 81
2,123700, Control_c, 0, 64, 84
2,123715, Control_c, 0, 64, 88
2,123717, Note_on_c, 0, 57, 0
2,123730, Control_c, 0, 64, 95
2,123745, Control_c, 0, 64, 107
2,123760, Control_c, 0, 64, 127
2,123876, Note_on_c, 0, 66, 0
2,123901, Note_on_c, 0, 64, 62
2,123910, Note_on_c, 0, 57, 68
2,124072, Note_on_c, 0, 57, 0
2,124265, Note_on_c, 0, 57, 65
2,124267, Note_on_c, 0, 61, 64
2,124367, Note_on_c, 0, 62, 0
2,124410, Note_on_c, 0, 61, 0
2,124588, Note_on_c, 0, 57, 0
2,124604, Control_c, 0, 64, 99
2,124616, Note_on_c, 0, 51, 57
2,124621, Control_c, 0, 64, 82
2,124621, Note_on_c, 0, 60, 56
2,124623, Note_on_c, 0, 66, 67
2,124636, Control_c, 0, 64, 68
2,124645, Note_on_c, 0, 64, 0
2,124651, Control_c, 0, 64, 52
2,124667, Control_c, 0, 64, 0
2,124697, Control_c, 0, 64, 25
2,124712, Control_c, 0, 64, 48
2,124727, Control_c, 0, 64, 56
2,124742, Control_c, 0, 64, 60
2,124757, Control_c, 0, 64, 63
2,124780, Control_c, 0, 64, 64
2,124795, Control_c, 0, 64, 67
2,124810, Control_c, 0, 64, 71
2,124826, Control_c, 0, 64, 77
2,124834, Note_on_c, 0, 60, 0
2,124841, Control_c, 0, 64, 83
2,124857, Control_c, 0, 64, 86
2,124872, Control_c, 0, 64, 87
2,124966, Note_on_c, 0, 52, 68
2,124973, Note_on_c, 0, 68, 71
2,124978, Control_c, 0, 64, 83
2,124985, Note_on_c, 0, 59, 53
2,124993, Control_c, 0, 64, 75
2,125002, Note_on_c, 0, 51, 0
2,125008, Control_c, 0, 64, 67
2,125024, Control_c, 0, 64, 60
2,125038, Control_c, 0, 64, 56
2,125083, Control_c, 0, 64, 57
2,125099, Control_c, 0, 64, 59
2,125114, Control_c, 0, 64, 61
2,125129, Control_c, 0, 64, 62
2,125145, Control_c, 0, 64, 63
2,125175, Control_c, 0, 64, 63
2,125190, Control_c, 0, 64, 64
2,125194, Note_on_c, 0, 59, 0
2,125205, Control_c, 0, 64, 64
2,125233, Note_on_c, 0, 68, 0
2,125266, Control_c, 0, 64, 64
2,125281, Control_c, 0, 64, 63
2,125297, Control_c, 0, 64, 62
2,125312, Control_c, 0, 64, 59
2,125327, Control_c, 0, 64, 57
2,125331, Note_on_c, 0, 52, 0
2,125337, Note_on_c, 0, 69, 69
2,125340, Note_on_c, 0, 66, 0
2,125341, Note_on_c, 0, 53, 55
2,125343, Control_c, 0, 64, 53
2,125356, Note_on_c, 0, 57, 42
2,125358, Control_c, 0, 64, 48
2,125372, Control_c, 0, 64, 40
2,125388, Control_c, 0, 64, 25
2,125403, Control_c, 0, 64, 0
2,125691, Note_on_c, 0, 60, 50
2,125698, Note_on_c, 0, 57, 0
2,126004, Control_c, 0, 64, 15
2,126020, Control_c, 0, 64, 33
2,126035, Control_c, 0, 64, 41
2,126047, Note_on_c, 0, 60, 0
2,126050, Control_c, 0, 64, 48
2,126066, Control_c, 0, 64, 53
2,126068, Note_on_c, 0, 62, 54
2,126080, Control_c, 0, 64, 56
2,126096, Control_c, 0, 64, 58
2,126111, Control_c, 0, 64, 61
2,126126, Control_c, 0, 64, 62
2,126141, Control_c, 0, 64, 64
2,126156, Control_c, 0, 64, 65
2,126171, Control_c, 0, 64, 67
2,126187, Control_c, 0, 64, 69
2,126202, Control_c, 0, 64, 72
2,126217, Control_c, 0, 64, 74
2,126232, Control_c, 0, 64, 75
2,126247, Control_c, 0, 64, 75
2,126393, Control_c, 0, 64, 75
2,126408, Control_c, 0, 64, 73
2,126413, Note_on_c, 0, 53, 0
2,126419, Note_on_c, 0, 47, 48
2,126424, Control_c, 0, 64, 68
2,126425, Note_on_c, 0, 62, 0
2,126429, Note_on_c, 0, 59, 45
2,126438, Control_c, 0, 64, 63
2,126440, Note_on_c, 0, 64, 52
2,126453, Control_c, 0, 64, 55
2,126469, Control_c, 0, 64, 53
2,126484, Control_c, 0, 64, 55
2,126500, Control_c, 0, 64, 58
2,126514, Control_c, 0, 64, 61
2,126529, Control_c, 0, 64, 63
2,126545, Control_c, 0, 64, 65
2,126560, Control_c, 0, 64, 66
2,126575, Control_c, 0, 64, 68
2,126590, Control_c, 0, 64, 69
2,126593, Note_on_c, 0, 64, 0
2,126594, Note_on_c, 0, 69, 0
2,126605, Control_c, 0, 64, 70
2,126605, Note_on_c, 0, 65, 58
2,126608, Note_on_c, 0, 59, 0
2,126621, Control_c, 0, 64, 71
2,126636, Control_c, 0, 64, 72
2,126758, Control_c, 0, 64, 70
2,126772, Control_c, 0, 64, 67
2,126777, Note_on_c, 0, 52, 60
2,126777, Note_on_c, 0, 65, 0
2,126780, Note_on_c, 0, 68, 70
2,126786, Note_on_c, 0, 64, 55
2,126787, Note_on_c, 0, 47, 0
2,126788, Control_c, 0, 64, 60
2,126792, Note_on_c, 0, 59, 49
2,126803, Control_c, 0, 64, 45
2,126819, Control_c, 0, 64, 29
2,126834, Control_c, 0, 64, 28
2,126848, Control_c, 0, 64, 34
2,126864, Control_c, 0, 64, 44
2,126879, Control_c, 0, 64, 53
2,126895, Control_c, 0, 64, 57
2,126910, Control_c, 0, 64, 59
2,126924, Control_c, 0, 64, 60
2,126940, Control_c, 0, 64, 61
2,126955, Control_c, 0, 64, 62
2,126970, Control_c, 0, 64, 62
2,126975, Note_on_c, 0, 59, 0
2,126985, Control_c, 0, 64, 63
2,127000, Control_c, 0, 64, 63
2,127016, Control_c, 0, 64, 64
2,127129, Control_c, 0, 64, 63
2,127137, Note_on_c, 0, 50, 58
2,127145, Control_c, 0, 64, 62
2,127154, Note_on_c, 0, 59, 18
2,127159, Control_c, 0, 64, 57
2,127174, Control_c, 0, 64, 42
2,127175, Note_on_c, 0, 52, 0
2,127190, Control_c, 0, 64, 21
2,127205, Control_c, 0, 64, 21
2,127219, Control_c, 0, 64, 37
2,127235, Control_c, 0, 64, 47
2,127250, Control_c, 0, 64, 55
2,127264, Note_on_c, 0, 50, 0
2,127266, Control_c, 0, 64, 60
2,127281, Control_c, 0, 64, 62
2,127295, Control_c, 0, 64, 63
2,127311, Control_c, 0, 64, 65
2,127326, Control_c, 0, 64, 66
2,127342, Control_c, 0, 64, 67
2,127357, Control_c, 0, 64, 68
2,127371, Control_c, 0, 64, 70
2,127432, Control_c, 0, 64, 67
2,127447, Control_c, 0, 64, 63
2,127463, Control_c, 0, 64, 63
2,127475, Note_on_c, 0, 59, 0
2,127478, Control_c, 0, 64, 63
2,127492, Control_c, 0, 64, 65
2,127495, Note_on_c, 0, 52, 52
2,127498, Note_on_c, 0, 49, 51
2,127502, Note_on_c, 0, 69, 67
2,127508, Control_c, 0, 64, 69
2,127510, Note_on_c, 0, 68, 0
2,127522, Note_on_c, 0, 64, 0
2,127523, Control_c, 0, 64, 75
2,127538, Control_c, 0, 64, 84
2,127554, Control_c, 0, 64, 99
2,127560, Note_on_c, 0, 69, 0
2,127568, Control_c, 0, 64, 127
2,127575, Note_on_c, 0, 52, 0
2,127598, Note_on_c, 0, 49, 0
2,127863, Note_on_c, 0, 45, 71
2,127872, Note_on_c, 0, 81, 88
2,127880, Control_c, 0, 64, 97
2,127895, Control_c, 0, 64, 72
2,127912, Control_c, 0, 64, 57
2,127926, Control_c, 0, 64, 19
2,127942, Control_c, 0, 64, 28
2,127957, Control_c, 0, 64, 48
2,127972, Control_c, 0, 64, 58
2,127988, Control_c, 0, 64, 63
2,128002, Control_c, 0, 64, 66
2,128017, Control_c, 0, 64, 70
2,128033, Control_c, 0, 64, 75
2,128048, Control_c, 0, 64, 80
2,128055, Note_on_c, 0, 81, 0
2,128063, Control_c, 0, 64, 86
2,128078, Control_c, 0, 64, 88
2,128093, Control_c, 0, 64, 88
2,128214, Control_c, 0, 64, 87
2,128230, Control_c, 0, 64, 79
2,128243, Note_on_c, 0, 81, 85
2,128245, Control_c, 0, 64, 67
2,128246, Note_on_c, 0, 50, 76
2,128260, Control_c, 0, 64, 51
2,128264, Note_on_c, 0, 45, 0
2,128276, Control_c, 0, 64, 24
2,128291, Control_c, 0, 64, 37
2,128306, Control_c, 0, 64, 49
2,128321, Control_c, 0, 64, 58
2,128336, Control_c, 0, 64, 63
2,128352, Control_c, 0, 64, 67
2,128367, Control_c, 0, 64, 72
2,128383, Control_c, 0, 64, 78
2,128391, Note_on_c, 0, 81, 0
2,128398, Control_c, 0, 64, 86
2,128412, Control_c, 0, 64, 99
2,128428, Control_c, 0, 64, 127
2,128631, Note_on_c, 0, 49, 72
2,128642, Note_on_c, 0, 81, 83
2,128643, Note_on_c, 0, 78, 88
2,128663, Control_c, 0, 64, 104
2,128675, Note_on_c, 0, 50, 0
2,128678, Control_c, 0, 64, 75
2,128693, Control_c, 0, 64, 56
2,128709, Control_c, 0, 64, 27
2,128725, Control_c, 0, 64, 38
2,128740, Control_c, 0, 64, 51
2,128756, Control_c, 0, 64, 59
2,128770, Control_c, 0, 64, 63
2,128786, Control_c, 0, 64, 66
2,128801, Control_c, 0, 64, 72
2,128816, Control_c, 0, 64, 81
2,128828, Note_on_c, 0, 78, 0
2,128832, Control_c, 0, 64, 89
2,128846, Control_c, 0, 64, 93
2,128862, Control_c, 0, 64, 103
2,128877, Control_c, 0, 64, 127
2,128924, Note_on_c, 0, 49, 0
2,129077, Note_on_c, 0, 47, 70
2,129089, Control_c, 0, 64, 93
2,129089, Note_on_c, 0, 78, 86
2,129097, Note_on_c, 0, 74, 70
2,129104, Control_c, 0, 64, 71
2,129113, Note_on_c, 0, 81, 0
2,129119, Control_c, 0, 64, 38
2,129134, Control_c, 0, 64, 0
2,129211, Control_c, 0, 64, 51
2,129227, Control_c, 0, 64, 64
2,129242, Control_c, 0, 64, 74
2,129256, Control_c, 0, 64, 101
2,129272, Control_c, 0, 64, 127
2,129303, Note_on_c, 0, 47, 0
2,129383, Note_on_c, 0, 78, 0
2,129508, Note_on_c, 0, 62, 73
2,129514, Note_on_c, 0, 78, 79
2,129670, Note_on_c, 0, 62, 0
2,129690, Note_on_c, 0, 78, 0
2,129872, Note_on_c, 0, 62, 81
2,129875, Note_on_c, 0, 78, 87
2,129881, Note_on_c, 0, 71, 78
2,129881, Note_on_c, 0, 74, 0
2,130005, Note_on_c, 0, 62, 0
2,130247, Note_on_c, 0, 62, 83
2,130252, Note_on_c, 0, 59, 62
2,130306, Note_on_c, 0, 59, 0
2,130362, Note_on_c, 0, 62, 0
2,130611, Control_c, 0, 64, 98
2,130613, Note_on_c, 0, 56, 70
2,130613, Note_on_c, 0, 74, 76
2,130627, Control_c, 0, 64, 74
2,130627, Note_on_c, 0, 59, 53
2,130642, Control_c, 0, 64, 60
2,130653, Note_on_c, 0, 71, 0
2,130658, Control_c, 0, 64, 0
2,130680, Note_on_c, 0, 59, 0
2,130687, Control_c, 0, 64, 21
2,130703, Control_c, 0, 64, 53
2,130718, Control_c, 0, 64, 60
2,130733, Control_c, 0, 64, 64
2,130748, Control_c, 0, 64, 71
2,130763, Control_c, 0, 64, 87
2,130779, Control_c, 0, 64, 127
2,130996, Note_on_c, 0, 71, 77
2,130997, Note_on_c, 0, 78, 0
2,131002, Note_on_c, 0, 56, 0
2,131006, Note_on_c, 0, 59, 66
2,131015, Note_on_c, 0, 74, 0
2,131053, Note_on_c, 0, 59, 0
2,131342, Note_on_c, 0, 52, 47
2,131358, Note_on_c, 0, 59, 62
2,131361, Note_on_c, 0, 76, 73
2,131395, Control_c, 0, 64, 109
2,131410, Control_c, 0, 64, 82
2,131417, Note_on_c, 0, 71, 0
2,131425, Control_c, 0, 64, 68
2,131440, Control_c, 0, 64, 53
2,131456, Control_c, 0, 64, 33
2,131471, Control_c, 0, 64, 35
2,131486, Control_c, 0, 64, 44
2,131502, Control_c, 0, 64, 53
2,131516, Control_c, 0, 64, 59
2,131531, Control_c, 0, 64, 62
2,131547, Control_c, 0, 64, 64
2,131562, Control_c, 0, 64, 65
2,131578, Control_c, 0, 64, 66
2,131592, Control_c, 0, 64, 68
2,131607, Control_c, 0, 64, 71
2,131623, Control_c, 0, 64, 75
2,131638, Control_c, 0, 64, 78
2,131653, Control_c, 0, 64, 80
2,131668, Control_c, 0, 64, 81
2,131691, Note_on_c, 0, 76, 0
2,131701, Note_on_c, 0, 74, 71
2,131703, Note_on_c, 0, 68, 61
2,131707, Control_c, 0, 64, 81
2,131721, Control_c, 0, 64, 82
2,131752, Control_c, 0, 64, 82
2,132069, Note_on_c, 0, 68, 0
2,132069, Note_on_c, 0, 73, 76
2,132072, Control_c, 0, 64, 81
2,132077, Note_on_c, 0, 55, 49
2,132085, Note_on_c, 0, 74, 0
2,132087, Control_c, 0, 64, 76
2,132103, Control_c, 0, 64, 68
2,132106, Note_on_c, 0, 52, 0
2,132118, Control_c, 0, 64, 58
2,132133, Control_c, 0, 64, 26
2,132148, Control_c, 0, 64, 0
2,132163, Control_c, 0, 64, 20
2,132179, Control_c, 0, 64, 40
2,132194, Control_c, 0, 64, 51
2,132209, Control_c, 0, 64, 57
2,132224, Control_c, 0, 64, 59
2,132239, Control_c, 0, 64, 61
2,132255, Control_c, 0, 64, 62
2,132270, Control_c, 0, 64, 63
2,132284, Control_c, 0, 64, 64
2,132300, Control_c, 0, 64, 65
2,132315, Control_c, 0, 64, 66
2,132330, Control_c, 0, 64, 67
2,132346, Control_c, 0, 64, 67
2,132437, Note_on_c, 0, 59, 0
2,132439, Note_on_c, 0, 52, 41
2,132439, Note_on_c, 0, 71, 59
2,132460, Control_c, 0, 64, 68
2,132475, Control_c, 0, 64, 69
2,132489, Control_c, 0, 64, 70
2,132497, Note_on_c, 0, 55, 0
2,132505, Control_c, 0, 64, 72
2,132520, Control_c, 0, 64, 76
2,132536, Control_c, 0, 64, 81
2,132551, Control_c, 0, 64, 83
2,132565, Control_c, 0, 64, 85
2,132581, Control_c, 0, 64, 86
2,132596, Control_c, 0, 64, 87
2,132610, Control_c, 0, 64, 88
2,132782, Note_on_c, 0, 52, 0
2,132784, Note_on_c, 0, 71, 0
2,132801, Note_on_c, 0, 57, 62
2,132801, Note_on_c, 0, 69, 69
2,132839, Note_on_c, 0, 73, 0
2,133127, Note_on_c, 0, 57, 0
2,133131, Note_on_c, 0, 49, 49
2,133132, Note_on_c, 0, 55, 53
2,133145, Control_c, 0, 64, 86
2,133160, Control_c, 0, 64, 84
2,133176, Control_c, 0, 64, 79
2,133191, Control_c, 0, 64, 73
2,133205, Control_c, 0, 64, 66
2,133228, Control_c, 0, 64, 62
2,133243, Control_c, 0, 64, 61
2,133396, Control_c, 0, 64, 60
2,133410, Control_c, 0, 64, 59
2,133426, Control_c, 0, 64, 57
2,133441, Control_c, 0, 64, 55
2,133457, Control_c, 0, 64, 53
2,133471, Control_c, 0, 64, 52
2,133476, Note_on_c, 0, 54, 53
2,133486, Control_c, 0, 64, 51
2,133490, Note_on_c, 0, 72, 62
2,133492, Note_on_c, 0, 55, 0
2,133502, Control_c, 0, 64, 46
2,133517, Control_c, 0, 64, 39
2,133531, Control_c, 0, 64, 26
2,133547, Control_c, 0, 64, 0
2,133552, Note_on_c, 0, 49, 0
2,133853, Note_on_c, 0, 52, 41
2,133862, Note_on_c, 0, 67, 64
2,133873, Note_on_c, 0, 69, 0
2,134197, Note_on_c, 0, 52, 0
2,134224, Note_on_c, 0, 50, 42
2,134224, Note_on_c, 0, 66, 61
2,134264, Note_on_c, 0, 67, 0
2,134557, Note_on_c, 0, 57, 61
2,134560, Note_on_c, 0, 64, 71
2,134576, Note_on_c, 0, 66, 0
2,134600, Note_on_c, 0, 54, 0
2,134930, Note_on_c, 0, 66, 75
2,134939, Note_on_c, 0, 64, 0
2,134940, Note_on_c, 0, 57, 0
2,134950, Note_on_c, 0, 62, 51
2,134995, Note_on_c, 0, 72, 0
2,135262, Note_on_c, 0, 62, 0
2,135280, Note_on_c, 0, 69, 73
2,135296, Note_on_c, 0, 60, 48
2,135634, Note_on_c, 0, 60, 0
2,135651, Note_on_c, 0, 69, 0
2,135651, Note_on_c, 0, 74, 72
2,135653, Note_on_c, 0, 59, 44
2,135716, Note_on_c, 0, 50, 0
2,135978, Note_on_c, 0, 59, 0
2,135980, Note_on_c, 0, 74, 0
2,135987, Control_c, 0, 64, 33
2,135994, Note_on_c, 0, 50, 42
2,135994, Note_on_c, 0, 57, 47
2,135996, Note_on_c, 0, 72, 66
2,136002, Control_c, 0, 64, 44
2,136018, Control_c, 0, 64, 51
2,136033, Control_c, 0, 64, 55
2,136048, Control_c, 0, 64, 58
2,136063, Control_c, 0, 64, 61
2,136078, Control_c, 0, 64, 65
2,136095, Control_c, 0, 64, 72
2,136110, Control_c, 0, 64, 78
2,136125, Control_c, 0, 64, 84
2,136141, Control_c, 0, 64, 89
2,136156, Control_c, 0, 64, 94
2,136170, Control_c, 0, 64, 97
2,136171, Note_on_c, 0, 72, 0
2,136186, Control_c, 0, 64, 98
2,136201, Control_c, 0, 64, 99
2,136315, Control_c, 0, 64, 97
2,136330, Control_c, 0, 64, 93
2,136346, Control_c, 0, 64, 88
2,136358, Note_on_c, 0, 57, 0
2,136360, Note_on_c, 0, 71, 69
2,136361, Control_c, 0, 64, 83
2,136364, Note_on_c, 0, 55, 47
2,136375, Note_on_c, 0, 50, 0
2,136376, Control_c, 0, 64, 78
2,136391, Control_c, 0, 64, 74
2,136406, Control_c, 0, 64, 70
2,136422, Control_c, 0, 64, 66
2,136436, Control_c, 0, 64, 63
2,136451, Control_c, 0, 64, 58
2,136467, Control_c, 0, 64, 54
2,136482, Control_c, 0, 64, 50
2,136498, Control_c, 0, 64, 47
2,136512, Control_c, 0, 64, 45
2,136527, Control_c, 0, 64, 43
2,136543, Control_c, 0, 64, 41
2,136558, Control_c, 0, 64, 38
2,136573, Control_c, 0, 64, 35
2,136588, Control_c, 0, 64, 30
2,136603, Control_c, 0, 64, 27
2,136619, Control_c, 0, 64, 26
2,136633, Control_c, 0, 64, 25
2,136725, Control_c, 0, 64, 24
2,136726, Note_on_c, 0, 66, 0
2,136728, Note_on_c, 0, 54, 46
2,136729, Note_on_c, 0, 62, 58
2,137080, Note_on_c, 0, 52, 49
2,137089, Note_on_c, 0, 67, 65
2,137095, Note_on_c, 0, 62, 0
2,137111, Note_on_c, 0, 54, 0
2,137435, Note_on_c, 0, 52, 0
2,137437, Note_on_c, 0, 50, 42
2,137445, Note_on_c, 0, 66, 63
2,137449, Note_on_c, 0, 67, 0
2,137806, Note_on_c, 0, 64, 50
2,137837, Note_on_c, 0, 49, 37
2,137844, Note_on_c, 0, 66, 0
2,137864, Note_on_c, 0, 50, 0
2,137911, Note_on_c, 0, 55, 0
2,138155, Note_on_c, 0, 64, 0
2,138160, Note_on_c, 0, 52, 54
2,138165, Note_on_c, 0, 62, 55
2,138243, Note_on_c, 0, 71, 0
2,138547, Note_on_c, 0, 62, 0
2,138547, Note_on_c, 0, 69, 62
2,138549, Note_on_c, 0, 57, 54
2,138552, Note_on_c, 0, 52, 0
2,138554, Note_on_c, 0, 61, 56
2,138576, Note_on_c, 0, 49, 0
2,138667, Control_c, 0, 64, 27
2,138682, Control_c, 0, 64, 37
2,138698, Control_c, 0, 64, 46
2,138712, Control_c, 0, 64, 53
2,138728, Control_c, 0, 64, 58
2,138743, Control_c, 0, 64, 62
2,138757, Control_c, 0, 64, 64
2,138765, Note_on_c, 0, 57, 0
2,138773, Control_c, 0, 64, 66
2,138788, Control_c, 0, 64, 69
2,138803, Control_c, 0, 64, 72
2,138819, Control_c, 0, 64, 74
2,138834, Control_c, 0, 64, 77
2,138850, Control_c, 0, 64, 80
2,138864, Control_c, 0, 64, 81
2,138893, Note_on_c, 0, 45, 52
2,138901, Note_on_c, 0, 55, 51
2,138925, Control_c, 0, 64, 80
2,138941, Control_c, 0, 64, 76
2,138956, Control_c, 0, 64, 69
2,138971, Control_c, 0, 64, 62
2,138986, Control_c, 0, 64, 52
2,139001, Control_c, 0, 64, 48
2,139122, Control_c, 0, 64, 47
2,139153, Control_c, 0, 64, 47
2,139168, Control_c, 0, 64, 46
2,139198, Control_c, 0, 64, 46
2,139214, Control_c, 0, 64, 45
2,139229, Control_c, 0, 64, 43
2,139243, Control_c, 0, 64, 31
2,139251, Note_on_c, 0, 55, 0
2,139259, Control_c, 0, 64, 0
2,139260, Note_on_c, 0, 50, 51
2,139267, Note_on_c, 0, 54, 44
2,139280, Note_on_c, 0, 45, 0
2,139404, Control_c, 0, 64, 35
2,139420, Control_c, 0, 64, 57
2,139435, Control_c, 0, 64, 63
2,139448, Note_on_c, 0, 50, 0
2,139451, Control_c, 0, 64, 66
2,139466, Control_c, 0, 64, 70
2,139480, Control_c, 0, 64, 74
2,139496, Control_c, 0, 64, 76
2,139511, Control_c, 0, 64, 77
2,139526, Control_c, 0, 64, 78
2,139542, Control_c, 0, 64, 79
2,139604, Note_on_c, 0, 57, 66
2,139609, Note_on_c, 0, 48, 54
2,139612, Note_on_c, 0, 61, 0
2,139648, Control_c, 0, 64, 77
2,139663, Control_c, 0, 64, 75
2,139677, Control_c, 0, 64, 73
2,139693, Control_c, 0, 64, 70
2,139708, Control_c, 0, 64, 67
2,139723, Control_c, 0, 64, 65
2,139739, Control_c, 0, 64, 62
2,139754, Control_c, 0, 64, 57
2,139770, Control_c, 0, 64, 48
2,139785, Control_c, 0, 64, 41
2,139800, Control_c, 0, 64, 37
2,139861, Control_c, 0, 64, 36
2,139876, Control_c, 0, 64, 36
2,139922, Control_c, 0, 64, 35
2,139937, Control_c, 0, 64, 35
2,139952, Control_c, 0, 64, 34
2,139959, Note_on_c, 0, 47, 45
2,139963, Note_on_c, 0, 62, 72
2,139968, Control_c, 0, 64, 32
2,139974, Note_on_c, 0, 57, 0
2,139983, Control_c, 0, 64, 30
2,139996, Note_on_c, 0, 48, 0
2,139998, Control_c, 0, 64, 29
2,140074, Control_c, 0, 64, 28
2,140104, Control_c, 0, 64, 28
2,140157, Control_c, 0, 64, 27
2,140265, Control_c, 0, 64, 26
2,140280, Control_c, 0, 64, 24
2,140296, Control_c, 0, 64, 21
2,140310, Control_c, 0, 64, 16
2,140325, Control_c, 0, 64, 0
2,140325, Note_on_c, 0, 47, 0
2,140329, Note_on_c, 0, 60, 61
2,140333, Note_on_c, 0, 45, 41
2,140341, Note_on_c, 0, 62, 0
2,140683, Note_on_c, 0, 60, 0
2,140688, Note_on_c, 0, 43, 40
2,140701, Note_on_c, 0, 59, 55
2,140751, Note_on_c, 0, 45, 0
2,140777, Note_on_c, 0, 54, 0
2,141017, Control_c, 0, 64, 40
2,141032, Control_c, 0, 64, 46
2,141046, Control_c, 0, 64, 48
2,141052, Note_on_c, 0, 47, 44
2,141062, Control_c, 0, 64, 52
2,141077, Control_c, 0, 64, 58
2,141092, Control_c, 0, 64, 61
2,141107, Control_c, 0, 64, 63
2,141117, Note_on_c, 0, 69, 0
2,141122, Control_c, 0, 64, 64
2,141138, Control_c, 0, 64, 64
2,141153, Control_c, 0, 64, 65
2,141168, Control_c, 0, 64, 67
2,141183, Control_c, 0, 64, 69
2,141198, Control_c, 0, 64, 71
2,141213, Control_c, 0, 64, 74
2,141228, Control_c, 0, 64, 76
2,141243, Control_c, 0, 64, 77
2,141259, Control_c, 0, 64, 77
2,141412, Control_c, 0, 64, 77
2,141415, Note_on_c, 0, 47, 0
2,141419, Note_on_c, 0, 67, 77
2,141426, Control_c, 0, 64, 76
2,141427, Note_on_c, 0, 52, 50
2,141441, Control_c, 0, 64, 75
2,141451, Note_on_c, 0, 59, 0
2,141457, Control_c, 0, 64, 73
2,141472, Control_c, 0, 64, 70
2,141488, Control_c, 0, 64, 66
2,141502, Control_c, 0, 64, 61
2,141517, Control_c, 0, 64, 46
2,141533, Control_c, 0, 64, 0
2,141623, Control_c, 0, 64, 15
2,141638, Control_c, 0, 64, 41
2,141654, Control_c, 0, 64, 51
2,141677, Control_c, 0, 64, 56
2,141693, Control_c, 0, 64, 59
2,141707, Control_c, 0, 64, 62
2,141722, Control_c, 0, 64, 64
2,141738, Control_c, 0, 64, 65
2,141753, Control_c, 0, 64, 66
2,141769, Control_c, 0, 64, 68
2,141783, Control_c, 0, 64, 69
2,141798, Control_c, 0, 64, 69
2,141809, Note_on_c, 0, 50, 40
2,141812, Note_on_c, 0, 59, 50
2,141814, Control_c, 0, 64, 70
2,141830, Control_c, 0, 64, 71
2,141830, Note_on_c, 0, 52, 0
2,141836, Note_on_c, 0, 43, 0
2,141845, Control_c, 0, 64, 72
2,141860, Control_c, 0, 64, 72
2,141875, Control_c, 0, 64, 73
2,141955, Note_on_c, 0, 50, 0
2,142118, Control_c, 0, 64, 72
2,142133, Control_c, 0, 64, 71
2,142148, Control_c, 0, 64, 70
2,142159, Note_on_c, 0, 45, 32
2,142159, Note_on_c, 0, 59, 0
2,142163, Control_c, 0, 64, 67
2,142163, Note_on_c, 0, 49, 34
2,142164, Note_on_c, 0, 64, 55
2,142179, Control_c, 0, 64, 64
2,142194, Control_c, 0, 64, 55
2,142210, Control_c, 0, 64, 28
2,142224, Control_c, 0, 64, 0
2,142270, Control_c, 0, 64, 26
2,142285, Control_c, 0, 64, 46
2,142301, Control_c, 0, 64, 52
2,142316, Control_c, 0, 64, 57
2,142332, Control_c, 0, 64, 62
2,142346, Control_c, 0, 64, 64
2,142361, Control_c, 0, 64, 65
2,142371, Note_on_c, 0, 64, 0
2,142377, Control_c, 0, 64, 67
2,142392, Control_c, 0, 64, 67
2,142408, Control_c, 0, 64, 68
2,142444, Control_c, 0, 64, 68
2,142521, Note_on_c, 0, 67, 0
2,142530, Note_on_c, 0, 64, 66
2,142543, Note_on_c, 0, 50, 43
2,142547, Note_on_c, 0, 62, 54
2,142557, Note_on_c, 0, 49, 0
2,142566, Control_c, 0, 64, 68
2,142582, Control_c, 0, 64, 66
2,142597, Control_c, 0, 64, 64
2,142613, Control_c, 0, 64, 60
2,142627, Control_c, 0, 64, 55
2,142642, Control_c, 0, 64, 49
2,142659, Control_c, 0, 64, 45
2,142674, Control_c, 0, 64, 43
2,142690, Control_c, 0, 64, 41
2,142704, Control_c, 0, 64, 39
2,142719, Control_c, 0, 64, 33
2,142735, Control_c, 0, 64, 24
2,142750, Control_c, 0, 64, 16
2,142765, Control_c, 0, 64, 12
2,142780, Control_c, 0, 64, 10
2,142795, Control_c, 0, 64, 0
2,142905, Note_on_c, 0, 69, 62
2,142909, Note_on_c, 0, 64, 0
2,142917, Note_on_c, 0, 50, 0
2,142917, Note_on_c, 0, 52, 34
2,142945, Note_on_c, 0, 61, 37
2,142970, Note_on_c, 0, 62, 0
2,143243, Control_c, 0, 64, 29
2,143259, Control_c, 0, 64, 39
2,143273, Control_c, 0, 64, 45
2,143289, Control_c, 0, 64, 52
2,143295, Note_on_c, 0, 61, 0
2,143304, Control_c, 0, 64, 56
2,143307, Note_on_c, 0, 67, 59
2,143313, Note_on_c, 0, 64, 59
2,143319, Control_c, 0, 64, 62
2,143325, Note_on_c, 0, 69, 0
2,143335, Control_c, 0, 64, 66
2,143349, Control_c, 0, 64, 69
2,143364, Control_c, 0, 64, 74
2,143380, Control_c, 0, 64, 80
2,143395, Control_c, 0, 64, 91
2,143411, Control_c, 0, 64, 102
2,143426, Control_c, 0, 64, 115
2,143441, Control_c, 0, 64, 127
2,143464, Note_on_c, 0, 52, 0
2,143482, Note_on_c, 0, 67, 0
2,143499, Note_on_c, 0, 45, 0
2,143708, Note_on_c, 0, 66, 72
2,143732, Control_c, 0, 64, 115
2,143746, Control_c, 0, 64, 98
2,143761, Control_c, 0, 64, 88
2,143777, Control_c, 0, 64, 82
2,143792, Control_c, 0, 64, 77
2,143808, Control_c, 0, 64, 73
2,143823, Control_c, 0, 64, 69
2,143837, Control_c, 0, 64, 67
2,143853, Control_c, 0, 64, 65
2,143868, Control_c, 0, 64, 63
2,143883, Control_c, 0, 64, 62
2,143898, Control_c, 0, 64, 62
2,143997, Control_c, 0, 64, 61
2,144013, Control_c, 0, 64, 61
2,144028, Control_c, 0, 64, 60
2,144042, Control_c, 0, 64, 60
2,144058, Control_c, 0, 64, 59
2,144073, Control_c, 0, 64, 58
2,144089, Control_c, 0, 64, 56
2,144104, Control_c, 0, 64, 54
2,144118, Control_c, 0, 64, 52
2,144126, Note_on_c, 0, 50, 40
2,144131, Note_on_c, 0, 62, 54
2,144134, Control_c, 0, 64, 50
2,144142, Note_on_c, 0, 64, 0
2,144149, Control_c, 0, 64, 47
2,144163, Control_c, 0, 64, 42
2,144179, Control_c, 0, 64, 35
2,144194, Control_c, 0, 64, 29
2,144210, Control_c, 0, 64, 24
2,144225, Control_c, 0, 64, 21
2,144239, Control_c, 0, 64, 17
2,144255, Control_c, 0, 64, 0
2,144594, Note_on_c, 0, 64, 66
2,144604, Note_on_c, 0, 57, 39
2,144625, Note_on_c, 0, 66, 0
2,144627, Note_on_c, 0, 50, 0
2,145095, Note_on_c, 0, 62, 0
2,145112, Note_on_c, 0, 61, 47
2,145114, Note_on_c, 0, 55, 34
2,145135, Note_on_c, 0, 57, 0
2,145221, Control_c, 0, 64, 48
2,145236, Control_c, 0, 64, 63
2,145252, Control_c, 0, 64, 72
2,145266, Control_c, 0, 64, 89
2,145281, Control_c, 0, 64, 127
2,145312, Control_c, 0, 67, 24
2,145328, Control_c, 0, 67, 92
2,145343, Control_c, 0, 67, 127
2,145350, Note_on_c, 0, 64, 0
2,145368, Note_on_c, 0, 55, 0
2,145395, Note_on_c, 0, 61, 0
2,145814, Note_on_c, 0, 62, 63
2,145820, Note_on_c, 0, 50, 41
2,145823, Note_on_c, 0, 54, 51
2,145824, Note_on_c, 0, 57, 43
2,145826, Note_on_c, 0, 38, 42
2,145866, Control_c, 0, 64, 92
2,145881, Control_c, 0, 64, 76
2,145897, Control_c, 0, 64, 65
2,145912, Control_c, 0, 64, 50
2,145929, Control_c, 0, 64, 0
2,147055, Control_c, 0, 64, 8
2,147070, Control_c, 0, 64, 22
2,147084, Control_c, 0, 64, 29
2,147100, Control_c, 0, 64, 33
2,147115, Control_c, 0, 64, 35
2,147130, Control_c, 0, 64, 38
2,147145, Control_c, 0, 64, 40
2,147160, Control_c, 0, 64, 41
2,147176, Control_c, 0, 64, 42
2,147191, Control_c, 0, 64, 43
2,147221, Control_c, 0, 64, 44
2,147236, Control_c, 0, 64, 44
2,147252, Control_c, 0, 64, 45
2,147297, Control_c, 0, 64, 45
2,147312, Control_c, 0, 64, 46
2,147328, Control_c, 0, 64, 46
2,147343, Control_c, 0, 64, 47
2,147373, Control_c, 0, 64, 47
2,147388, Control_c, 0, 64, 48
2,147403, Control_c, 0, 64, 48
2,147434, Control_c, 0, 64, 49
2,147479, Control_c, 0, 64, 49
2,147495, Control_c, 0, 64, 50
2,147510, Control_c, 0, 64, 50
2,147525, Control_c, 0, 64, 51
2,147540, Control_c, 0, 64, 51
2,147587, Control_c, 0, 64, 52
2,147602, Control_c, 0, 64, 52
2,147618, Control_c, 0, 64, 53
2,147632, Control_c, 0, 64, 53
2,147678, Control_c, 0, 64, 54
2,147694, Control_c, 0, 64, 54
2,147709, Control_c, 0, 64, 55
2,147739, Control_c, 0, 64, 55
2,148232, Control_c, 0, 64, 55
2,148294, Control_c, 0, 64, 54
2,148339, Control_c, 0, 64, 54
2,148400, Control_c, 0, 64, 53
2,148462, Control_c, 0, 64, 53
2,148492, Control_c, 0, 64, 52
2,148507, Control_c, 0, 64, 52
2,148538, Control_c, 0, 64, 51
2,148567, Control_c, 0, 64, 51
2,148590, Control_c, 0, 64, 50
2,148605, Control_c, 0, 64, 49
2,148621, Control_c, 0, 64, 48
2,148635, Control_c, 0, 64, 47
2,148651, Control_c, 0, 64, 46
2,148666, Control_c, 0, 64, 46
2,148681, Control_c, 0, 64, 44
2,148697, Control_c, 0, 64, 44
2,148712, Control_c, 0, 64, 42
2,148727, Control_c, 0, 64, 40
2,148742, Control_c, 0, 64, 38
2,148757, Control_c, 0, 64, 35
2,148773, Control_c, 0, 64, 33
2,148788, Control_c, 0, 64, 30
2,148803, Control_c, 0, 64, 27
2,148818, Control_c, 0, 64, 23
2,148833, Control_c, 0, 64, 16
2,148849, Control_c, 0, 64, 8
2,148864, Control_c, 0, 64, 0
2,149504, Note_on_c, 0, 50, 0
2,149566, Note_on_c, 0, 54, 0
2,149592, Note_on_c, 0, 57, 0
2,149632, Note_on_c, 0, 62, 0
2,149633, Note_on_c, 0, 38, 0
2,149634, End_track
0, 0, End_of_file
