0, 0, Header, 1, 2, 384
1, 0, Start_track
1, 0, Tempo, 500000
1, 0, Time_signature, 4, 2, 24, 8
1, 1, End_track
2, 0, Start_track
2, 0, Title_t, "7.6.13 Group 2"
2, 0, Program_c, 0, 0
2, 0, Control_c, 0, 64, 0
2, 768, Note_on_c, 0, 50, 75
2, 772, Note_on_c, 0, 38, 69
2, 942, Note_on_c, 0, 62, 71
2, 996, Note_on_c, 0, 62, 0
2, 1013, Note_on_c, 0, 64, 74
2, 1084, Note_on_c, 0, 64, 0
2, 1088, Note_on_c, 0, 66, 75
2, 1154, Note_on_c, 0, 66, 0
2, 1175, Note_on_c, 0, 67, 77
2, 1233, Note_on_c, 0, 50, 0
2, 1246, Note_on_c, 0, 67, 0
2, 1253, Note_on_c, 0, 69, 75
2, 1257, Note_on_c, 0, 38, 0
2, 1289, Note_on_c, 0, 69, 0
2, 1415, Note_on_c, 0, 66, 74
2, 1455, Note_on_c, 0, 66, 0
2, 1560, Note_on_c, 0, 69, 73
2, 1604, Note_on_c, 0, 69, 0
2, 1708, Note_on_c, 0, 74, 80
2, 1763, Note_on_c, 0, 74, 0
2, 1861, Note_on_c, 0, 69, 75
2, 1920, Note_on_c, 0, 69, 0
2, 2009, Note_on_c, 0, 74, 84
2, 2071, Note_on_c, 0, 74, 0
2, 2166, Note_on_c, 0, 78, 87
2, 2228, Note_on_c, 0, 78, 0
2, 2319, Note_on_c, 0, 74, 81
2, 2371, Note_on_c, 0, 74, 0
2, 2469, Note_on_c, 0, 78, 89
2, 2528, Note_on_c, 0, 78, 0
2, 2639, Note_on_c, 0, 81, 85
2, 2801, Control_c, 0, 64, 40
2, 2816, Control_c, 0, 64, 62
2, 2832, Control_c, 0, 64, 69
2, 2847, Control_c, 0, 64, 79
2, 2863, Control_c, 0, 64, 94
2, 2866, Note_on_c, 0, 81, 0
2, 2878, Control_c, 0, 64, 127
2, 3195, Note_on_c, 0, 62, 58
2, 3196, Note_on_c, 0, 81, 84
2, 3204, Note_on_c, 0, 78, 70
2, 3211, Control_c, 0, 64, 98
2, 3226, Control_c, 0, 64, 73
2, 3241, Control_c, 0, 64, 59
2, 3256, Control_c, 0, 64, 0
2, 3302, Control_c, 0, 64, 46
2, 3317, Control_c, 0, 64, 62
2, 3332, Control_c, 0, 64, 72
2, 3348, Control_c, 0, 64, 95
2, 3362, Control_c, 0, 64, 127
2, 3385, Note_on_c, 0, 62, 0
2, 3400, Note_on_c, 0, 81, 0
2, 3454, Note_on_c, 0, 78, 0
2, 3728, Note_on_c, 0, 81, 83
2, 3730, Note_on_c, 0, 78, 72
2, 3733, Note_on_c, 0, 69, 61
2, 3751, Control_c, 0, 64, 85
2, 3766, Control_c, 0, 64, 67
2, 3782, Control_c, 0, 64, 50
2, 3796, Control_c, 0, 64, 0
2, 3970, Note_on_c, 0, 78, 0
2, 3988, Note_on_c, 0, 79, 69
2, 3993, Note_on_c, 0, 76, 58
2, 3994, Note_on_c, 0, 81, 0
2, 4122, Note_on_c, 0, 76, 0
2, 4128, Note_on_c, 0, 79, 0
2, 4213, Note_on_c, 0, 69, 0
2, 4238, Note_on_c, 0, 57, 53
2, 4246, Note_on_c, 0, 79, 82
2, 4250, Note_on_c, 0, 76, 70
2, 4502, Note_on_c, 0, 74, 58
2, 4506, Note_on_c, 0, 78, 76
2, 4512, Note_on_c, 0, 76, 0
2, 4512, Note_on_c, 0, 79, 0
2, 4643, Note_on_c, 0, 74, 0
2, 4643, Note_on_c, 0, 78, 0
2, 4736, Note_on_c, 0, 57, 0
2, 4748, Control_c, 0, 64, 54
2, 4758, Note_on_c, 0, 78, 74
2, 4763, Control_c, 0, 64, 67
2, 4764, Note_on_c, 0, 74, 66
2, 4767, Note_on_c, 0, 62, 64
2, 4778, Control_c, 0, 64, 80
2, 4793, Control_c, 0, 64, 127
2, 4843, Note_on_c, 0, 62, 0
2, 4901, Note_on_c, 0, 74, 0
2, 4904, Note_on_c, 0, 78, 0
2, 4936, Note_on_c, 0, 50, 61
2, 4968, Control_c, 0, 64, 95
2, 4984, Control_c, 0, 64, 72
2, 4998, Control_c, 0, 64, 56
2, 4998, Note_on_c, 0, 50, 0
2, 5013, Control_c, 0, 64, 0
2, 5017, Note_on_c, 0, 52, 53
2, 5057, Note_on_c, 0, 52, 0
2, 5071, Note_on_c, 0, 54, 71
2, 5098, Note_on_c, 0, 54, 0
2, 5162, Note_on_c, 0, 55, 67
2, 5202, Note_on_c, 0, 55, 0
2, 5241, Note_on_c, 0, 57, 69
2, 5272, Note_on_c, 0, 57, 0
2, 5399, Note_on_c, 0, 54, 73
2, 5449, Note_on_c, 0, 54, 0
2, 5545, Note_on_c, 0, 57, 78
2, 5575, Note_on_c, 0, 57, 0
2, 5691, Note_on_c, 0, 62, 72
2, 5750, Note_on_c, 0, 62, 0
2, 5854, Note_on_c, 0, 57, 73
2, 5899, Note_on_c, 0, 57, 0
2, 5994, Note_on_c, 0, 62, 76
2, 6055, Note_on_c, 0, 62, 0
2, 6148, Note_on_c, 0, 66, 82
2, 6208, Note_on_c, 0, 66, 0
2, 6302, Note_on_c, 0, 62, 85
2, 6360, Note_on_c, 0, 62, 0
2, 6458, Note_on_c, 0, 66, 85
2, 6533, Note_on_c, 0, 66, 0
2, 6637, Note_on_c, 0, 69, 80
2, 6715, Control_c, 0, 64, 20
2, 6730, Control_c, 0, 64, 52
2, 6746, Control_c, 0, 64, 60
2, 6761, Control_c, 0, 64, 68
2, 6776, Control_c, 0, 64, 82
2, 6792, Control_c, 0, 64, 127
2, 6840, Note_on_c, 0, 69, 0
2, 7201, Note_on_c, 0, 50, 59
2, 7201, Note_on_c, 0, 78, 81
2, 7207, Note_on_c, 0, 69, 64
2, 7217, Control_c, 0, 64, 103
2, 7233, Control_c, 0, 64, 77
2, 7247, Control_c, 0, 64, 61
2, 7263, Control_c, 0, 64, 0
2, 7347, Control_c, 0, 64, 51
2, 7362, Control_c, 0, 64, 65
2, 7376, Control_c, 0, 64, 76
2, 7392, Control_c, 0, 64, 104
2, 7406, Note_on_c, 0, 69, 0
2, 7407, Control_c, 0, 64, 127
2, 7417, Note_on_c, 0, 78, 0
2, 7467, Note_on_c, 0, 50, 0
2, 7753, Note_on_c, 0, 78, 83
2, 7766, Note_on_c, 0, 69, 67
2, 7775, Note_on_c, 0, 57, 59
2, 7803, Control_c, 0, 64, 87
2, 7818, Control_c, 0, 64, 71
2, 7834, Control_c, 0, 64, 61
2, 7849, Control_c, 0, 64, 26
2, 7865, Control_c, 0, 64, 0
2, 8000, Note_on_c, 0, 69, 0
2, 8008, Note_on_c, 0, 78, 0
2, 8014, Note_on_c, 0, 76, 70
2, 8024, Note_on_c, 0, 67, 53
2, 8139, Note_on_c, 0, 76, 0
2, 8181, Note_on_c, 0, 67, 0
2, 8234, Note_on_c, 0, 57, 0
2, 8274, Note_on_c, 0, 45, 54
2, 8279, Note_on_c, 0, 76, 76
2, 8283, Note_on_c, 0, 67, 65
2, 8515, Note_on_c, 0, 67, 0
2, 8536, Note_on_c, 0, 76, 0
2, 8545, Note_on_c, 0, 74, 63
2, 8551, Note_on_c, 0, 66, 53
2, 8651, Note_on_c, 0, 74, 0
2, 8681, Note_on_c, 0, 66, 0
2, 8825, Note_on_c, 0, 66, 61
2, 8827, Note_on_c, 0, 74, 67
2, 8835, Note_on_c, 0, 45, 0
2, 8835, Note_on_c, 0, 50, 48
2, 8838, Control_c, 0, 64, 40
2, 8853, Control_c, 0, 64, 60
2, 8868, Control_c, 0, 64, 69
2, 8882, Note_on_c, 0, 74, 0
2, 8883, Control_c, 0, 64, 87
2, 8898, Control_c, 0, 64, 127
2, 8930, Note_on_c, 0, 66, 0
2, 8983, Note_on_c, 0, 50, 0
2, 9016, Note_on_c, 0, 66, 64
2, 9019, Control_c, 0, 64, 89
2, 9035, Control_c, 0, 64, 70
2, 9050, Control_c, 0, 64, 51
2, 9066, Control_c, 0, 64, 0
2, 9073, Note_on_c, 0, 66, 0
2, 9088, Note_on_c, 0, 64, 64
2, 9127, Note_on_c, 0, 64, 0
2, 9157, Note_on_c, 0, 62, 64
2, 9163, Note_on_c, 0, 38, 52
2, 9208, Note_on_c, 0, 38, 0
2, 9209, Note_on_c, 0, 62, 0
2, 9235, Note_on_c, 0, 61, 62
2, 9284, Note_on_c, 0, 61, 0
2, 9314, Note_on_c, 0, 50, 51
2, 9314, Note_on_c, 0, 59, 61
2, 9364, Note_on_c, 0, 59, 0
2, 9483, Note_on_c, 0, 62, 65
2, 9484, Note_on_c, 0, 50, 0
2, 9522, Note_on_c, 0, 62, 0
2, 9663, Note_on_c, 0, 59, 52
2, 9667, Note_on_c, 0, 50, 48
2, 9707, Note_on_c, 0, 59, 0
2, 9714, Note_on_c, 0, 50, 0
2, 9803, Control_c, 0, 64, 43
2, 9818, Control_c, 0, 64, 58
2, 9823, Note_on_c, 0, 50, 55
2, 9825, Note_on_c, 0, 56, 59
2, 9833, Control_c, 0, 64, 67
2, 9848, Control_c, 0, 64, 84
2, 9864, Control_c, 0, 64, 127
2, 9879, Note_on_c, 0, 56, 0
2, 9995, Note_on_c, 0, 64, 65
2, 10031, Control_c, 0, 64, 87
2, 10047, Control_c, 0, 64, 71
2, 10050, Note_on_c, 0, 64, 0
2, 10063, Control_c, 0, 64, 61
2, 10067, Note_on_c, 0, 66, 69
2, 10078, Control_c, 0, 64, 28
2, 10092, Control_c, 0, 64, 0
2, 10142, Note_on_c, 0, 68, 74
2, 10151, Note_on_c, 0, 66, 0
2, 10199, Note_on_c, 0, 50, 0
2, 10209, Note_on_c, 0, 68, 0
2, 10219, Note_on_c, 0, 69, 80
2, 10291, Note_on_c, 0, 69, 0
2, 10301, Note_on_c, 0, 71, 88
2, 10352, Note_on_c, 0, 71, 0
2, 10481, Note_on_c, 0, 52, 66
2, 10481, Note_on_c, 0, 68, 76
2, 10532, Note_on_c, 0, 52, 0
2, 10543, Note_on_c, 0, 68, 0
2, 10559, Note_on_c, 0, 50, 63
2, 10607, Note_on_c, 0, 50, 0
2, 10618, Note_on_c, 0, 49, 67
2, 10638, Note_on_c, 0, 71, 76
2, 10669, Note_on_c, 0, 49, 0
2, 10673, Note_on_c, 0, 71, 0
2, 10692, Note_on_c, 0, 47, 65
2, 10753, Control_c, 0, 64, 17
2, 10766, Note_on_c, 0, 47, 0
2, 10768, Control_c, 0, 64, 58
2, 10779, Note_on_c, 0, 49, 73
2, 10784, Control_c, 0, 64, 66
2, 10797, Note_on_c, 0, 76, 75
2, 10799, Control_c, 0, 64, 73
2, 10814, Control_c, 0, 64, 88
2, 10829, Control_c, 0, 64, 127
2, 10843, Note_on_c, 0, 76, 0
2, 10949, Note_on_c, 0, 49, 0
2, 10952, Control_c, 0, 64, 113
2, 10967, Control_c, 0, 64, 79
2, 10982, Control_c, 0, 64, 64
2, 10987, Note_on_c, 0, 64, 67
2, 10997, Control_c, 0, 64, 10
2, 11012, Control_c, 0, 64, 0
2, 11064, Note_on_c, 0, 64, 0
2, 11072, Note_on_c, 0, 62, 61
2, 11130, Note_on_c, 0, 62, 0
2, 11141, Note_on_c, 0, 61, 67
2, 11146, Note_on_c, 0, 37, 62
2, 11195, Note_on_c, 0, 37, 0
2, 11210, Note_on_c, 0, 61, 0
2, 11221, Note_on_c, 0, 59, 66
2, 11259, Note_on_c, 0, 59, 0
2, 11297, Note_on_c, 0, 49, 52
2, 11301, Note_on_c, 0, 57, 63
2, 11352, Note_on_c, 0, 57, 0
2, 11473, Note_on_c, 0, 49, 0
2, 11474, Note_on_c, 0, 61, 66
2, 11527, Note_on_c, 0, 61, 0
2, 11640, Note_on_c, 0, 57, 61
2, 11649, Note_on_c, 0, 49, 46
2, 11680, Note_on_c, 0, 57, 0
2, 11689, Note_on_c, 0, 49, 0
2, 11781, Control_c, 0, 64, 37
2, 11796, Control_c, 0, 64, 56
2, 11805, Note_on_c, 0, 49, 41
2, 11807, Note_on_c, 0, 54, 61
2, 11811, Control_c, 0, 64, 63
2, 11827, Control_c, 0, 64, 73
2, 11842, Control_c, 0, 64, 102
2, 11852, Note_on_c, 0, 54, 0
2, 11857, Control_c, 0, 64, 127
2, 12018, Note_on_c, 0, 62, 64
2, 12032, Control_c, 0, 64, 97
2, 12047, Control_c, 0, 64, 74
2, 12054, Note_on_c, 0, 62, 0
2, 12062, Control_c, 0, 64, 62
2, 12077, Control_c, 0, 64, 0
2, 12083, Note_on_c, 0, 64, 65
2, 12147, Note_on_c, 0, 64, 0
2, 12163, Note_on_c, 0, 66, 67
2, 12224, Note_on_c, 0, 66, 0
2, 12230, Note_on_c, 0, 68, 74
2, 12236, Note_on_c, 0, 49, 0
2, 12307, Note_on_c, 0, 68, 0
2, 12316, Note_on_c, 0, 69, 79
2, 12366, Note_on_c, 0, 69, 0
2, 12487, Note_on_c, 0, 50, 59
2, 12491, Note_on_c, 0, 66, 79
2, 12533, Note_on_c, 0, 50, 0
2, 12548, Note_on_c, 0, 66, 0
2, 12562, Note_on_c, 0, 49, 60
2, 12615, Note_on_c, 0, 49, 0
2, 12635, Note_on_c, 0, 47, 62
2, 12661, Note_on_c, 0, 69, 79
2, 12690, Note_on_c, 0, 47, 0
2, 12703, Note_on_c, 0, 69, 0
2, 12725, Note_on_c, 0, 45, 57
2, 12800, Note_on_c, 0, 45, 0
2, 12811, Note_on_c, 0, 47, 66
2, 12817, Note_on_c, 0, 74, 78
2, 12846, Note_on_c, 0, 47, 0
2, 12858, Control_c, 0, 64, 55
2, 12874, Control_c, 0, 64, 66
2, 12888, Control_c, 0, 64, 72
2, 12903, Control_c, 0, 64, 82
2, 12919, Control_c, 0, 64, 92
2, 12934, Control_c, 0, 64, 103
2, 12950, Control_c, 0, 64, 111
2, 12996, Control_c, 0, 64, 108
2, 13002, Note_on_c, 0, 54, 78
2, 13010, Control_c, 0, 64, 98
2, 13025, Control_c, 0, 64, 86
2, 13041, Control_c, 0, 64, 74
2, 13051, Note_on_c, 0, 54, 0
2, 13056, Control_c, 0, 64, 64
2, 13069, Note_on_c, 0, 74, 0
2, 13072, Control_c, 0, 64, 43
2, 13077, Note_on_c, 0, 52, 74
2, 13086, Control_c, 0, 64, 0
2, 13157, Note_on_c, 0, 66, 75
2, 13158, Note_on_c, 0, 52, 0
2, 13162, Note_on_c, 0, 50, 69
2, 13211, Note_on_c, 0, 66, 0
2, 13218, Note_on_c, 0, 50, 0
2, 13228, Note_on_c, 0, 49, 74
2, 13298, Note_on_c, 0, 49, 0
2, 13314, Note_on_c, 0, 47, 79
2, 13321, Note_on_c, 0, 74, 78
2, 13326, Note_on_c, 0, 66, 71
2, 13362, Note_on_c, 0, 47, 0
2, 13509, Note_on_c, 0, 50, 70
2, 13516, Note_on_c, 0, 74, 0
2, 13524, Note_on_c, 0, 66, 0
2, 13540, Note_on_c, 0, 50, 0
2, 13672, Note_on_c, 0, 47, 60
2, 13677, Note_on_c, 0, 74, 67
2, 13681, Note_on_c, 0, 66, 53
2, 13701, Note_on_c, 0, 47, 0
2, 13721, Note_on_c, 0, 66, 0
2, 13726, Note_on_c, 0, 74, 0
2, 13839, Note_on_c, 0, 44, 71
2, 13843, Note_on_c, 0, 74, 71
2, 13855, Note_on_c, 0, 64, 60
2, 13872, Note_on_c, 0, 44, 0
2, 14006, Note_on_c, 0, 47, 56
2, 14043, Note_on_c, 0, 47, 0
2, 14171, Note_on_c, 0, 44, 50
2, 14215, Note_on_c, 0, 44, 0
2, 14367, Note_on_c, 0, 40, 42
2, 14370, Note_on_c, 0, 64, 0
2, 14390, Note_on_c, 0, 74, 0
2, 14396, Note_on_c, 0, 40, 0
2, 14528, Note_on_c, 0, 44, 49
2, 14540, Note_on_c, 0, 76, 57
2, 14575, Note_on_c, 0, 44, 0
2, 14605, Note_on_c, 0, 76, 0
2, 14629, Note_on_c, 0, 74, 53
2, 14681, Note_on_c, 0, 74, 0
2, 14684, Note_on_c, 0, 40, 33
2, 14699, Note_on_c, 0, 73, 62
2, 14733, Note_on_c, 0, 40, 0
2, 14759, Note_on_c, 0, 73, 0
2, 14782, Note_on_c, 0, 71, 60
2, 14847, Note_on_c, 0, 71, 0
2, 14869, Note_on_c, 0, 45, 49
2, 14871, Note_on_c, 0, 73, 68
2, 14906, Note_on_c, 0, 45, 0
2, 14920, Note_on_c, 0, 73, 0
2, 15039, Note_on_c, 0, 69, 55
2, 15043, Note_on_c, 0, 49, 51
2, 15081, Note_on_c, 0, 49, 0
2, 15090, Note_on_c, 0, 69, 0
2, 15115, Note_on_c, 0, 71, 65
2, 15194, Note_on_c, 0, 71, 0
2, 15198, Note_on_c, 0, 73, 69
2, 15202, Note_on_c, 0, 45, 51
2, 15248, Note_on_c, 0, 45, 0
2, 15265, Note_on_c, 0, 73, 0
2, 15273, Note_on_c, 0, 74, 70
2, 15356, Note_on_c, 0, 42, 60
2, 15356, Note_on_c, 0, 74, 0
2, 15360, Note_on_c, 0, 76, 75
2, 15401, Note_on_c, 0, 42, 0
2, 15435, Note_on_c, 0, 76, 0
2, 15521, Note_on_c, 0, 45, 60
2, 15536, Note_on_c, 0, 74, 71
2, 15570, Note_on_c, 0, 45, 0
2, 15610, Note_on_c, 0, 74, 0
2, 15615, Note_on_c, 0, 73, 76
2, 15684, Note_on_c, 0, 42, 53
2, 15689, Note_on_c, 0, 71, 76
2, 15697, Note_on_c, 0, 73, 0
2, 15737, Note_on_c, 0, 42, 0
2, 15759, Note_on_c, 0, 71, 0
2, 15771, Note_on_c, 0, 69, 74
2, 15851, Note_on_c, 0, 69, 0
2, 15854, Note_on_c, 0, 47, 61
2, 15855, Note_on_c, 0, 74, 78
2, 15900, Note_on_c, 0, 47, 0
2, 15937, Note_on_c, 0, 74, 0
2, 16019, Note_on_c, 0, 50, 70
2, 16024, Note_on_c, 0, 71, 78
2, 16055, Note_on_c, 0, 50, 0
2, 16089, Note_on_c, 0, 71, 0
2, 16095, Note_on_c, 0, 73, 77
2, 16163, Note_on_c, 0, 47, 61
2, 16168, Note_on_c, 0, 74, 79
2, 16187, Note_on_c, 0, 73, 0
2, 16200, Note_on_c, 0, 47, 0
2, 16248, Note_on_c, 0, 76, 78
2, 16252, Note_on_c, 0, 74, 0
2, 16321, Note_on_c, 0, 44, 70
2, 16330, Note_on_c, 0, 78, 84
2, 16334, Note_on_c, 0, 76, 0
2, 16365, Note_on_c, 0, 44, 0
2, 16404, Note_on_c, 0, 78, 0
2, 16509, Note_on_c, 0, 47, 58
2, 16513, Note_on_c, 0, 76, 70
2, 16540, Note_on_c, 0, 47, 0
2, 16581, Note_on_c, 0, 76, 0
2, 16584, Note_on_c, 0, 74, 74
2, 16659, Note_on_c, 0, 74, 0
2, 16661, Note_on_c, 0, 44, 63
2, 16661, Note_on_c, 0, 73, 78
2, 16689, Note_on_c, 0, 44, 0
2, 16713, Control_c, 0, 64, 43
2, 16719, Note_on_c, 0, 73, 0
2, 16728, Control_c, 0, 64, 60
2, 16739, Note_on_c, 0, 71, 72
2, 16743, Control_c, 0, 64, 67
2, 16759, Control_c, 0, 64, 78
2, 16773, Control_c, 0, 64, 103
2, 16789, Control_c, 0, 64, 127
2, 16822, Note_on_c, 0, 49, 66
2, 16823, Note_on_c, 0, 71, 0
2, 16829, Note_on_c, 0, 76, 77
2, 16862, Note_on_c, 0, 49, 0
2, 16910, Control_c, 0, 64, 94
2, 16925, Control_c, 0, 64, 70
2, 16940, Control_c, 0, 64, 50
2, 16956, Control_c, 0, 64, 0
2, 17001, Note_on_c, 0, 57, 58
2, 17058, Note_on_c, 0, 57, 0
2, 17077, Note_on_c, 0, 59, 58
2, 17127, Note_on_c, 0, 59, 0
2, 17151, Note_on_c, 0, 61, 66
2, 17198, Note_on_c, 0, 61, 0
2, 17235, Note_on_c, 0, 62, 74
2, 17305, Note_on_c, 0, 62, 0
2, 17328, Note_on_c, 0, 64, 81
2, 17360, Note_on_c, 0, 64, 0
2, 17497, Note_on_c, 0, 62, 71
2, 17547, Note_on_c, 0, 62, 0
2, 17569, Note_on_c, 0, 61, 74
2, 17610, Note_on_c, 0, 61, 0
2, 17651, Note_on_c, 0, 59, 75
2, 17714, Note_on_c, 0, 59, 0
2, 17728, Note_on_c, 0, 57, 72
2, 17797, Note_on_c, 0, 57, 0
2, 17809, Note_on_c, 0, 50, 74
2, 17822, Note_on_c, 0, 66, 80
2, 17845, Control_c, 0, 64, 31
2, 17847, Note_on_c, 0, 50, 0
2, 17860, Control_c, 0, 64, 55
2, 17875, Control_c, 0, 64, 64
2, 17890, Control_c, 0, 64, 68
2, 17905, Control_c, 0, 64, 73
2, 17921, Control_c, 0, 64, 76
2, 17936, Control_c, 0, 64, 77
2, 17967, Control_c, 0, 64, 76
2, 17970, Note_on_c, 0, 59, 76
2, 17981, Control_c, 0, 64, 74
2, 17997, Control_c, 0, 64, 70
2, 18012, Control_c, 0, 64, 64
2, 18035, Control_c, 0, 64, 50
2, 18043, Note_on_c, 0, 59, 0
2, 18050, Control_c, 0, 64, 0
2, 18064, Note_on_c, 0, 61, 75
2, 18128, Note_on_c, 0, 61, 0
2, 18141, Note_on_c, 0, 62, 78
2, 18200, Note_on_c, 0, 62, 0
2, 18208, Note_on_c, 0, 66, 0
2, 18215, Note_on_c, 0, 64, 82
2, 18274, Note_on_c, 0, 76, 0
2, 18301, Note_on_c, 0, 64, 0
2, 18302, Note_on_c, 0, 66, 87
2, 18310, Note_on_c, 0, 74, 82
2, 18343, Note_on_c, 0, 66, 0
2, 18476, Note_on_c, 0, 64, 81
2, 18540, Note_on_c, 0, 64, 0
2, 18551, Note_on_c, 0, 62, 73
2, 18608, Note_on_c, 0, 62, 0
2, 18621, Note_on_c, 0, 61, 79
2, 18670, Note_on_c, 0, 61, 0
2, 18698, Note_on_c, 0, 59, 73
2, 18756, Note_on_c, 0, 59, 0
2, 18801, Note_on_c, 0, 52, 71
2, 18803, Note_on_c, 0, 68, 70
2, 18807, Note_on_c, 0, 74, 0
2, 18819, Control_c, 0, 64, 47
2, 18835, Control_c, 0, 64, 64
2, 18849, Control_c, 0, 64, 77
2, 18864, Control_c, 0, 64, 127
2, 18902, Note_on_c, 0, 52, 0
2, 18925, Note_on_c, 0, 68, 0
2, 18978, Note_on_c, 0, 64, 71
2, 19032, Control_c, 0, 64, 84
2, 19043, Note_on_c, 0, 64, 0
2, 19048, Control_c, 0, 64, 68
2, 19055, Note_on_c, 0, 66, 77
2, 19063, Control_c, 0, 64, 53
2, 19079, Control_c, 0, 64, 0
2, 19125, Note_on_c, 0, 66, 0
2, 19131, Note_on_c, 0, 68, 77
2, 19146, Note_on_c, 0, 40, 61
2, 19190, Note_on_c, 0, 40, 0
2, 19196, Note_on_c, 0, 68, 0
2, 19214, Note_on_c, 0, 69, 74
2, 19289, Note_on_c, 0, 71, 80
2, 19291, Note_on_c, 0, 69, 0
2, 19297, Note_on_c, 0, 40, 70
2, 19298, Note_on_c, 0, 74, 74
2, 19358, Note_on_c, 0, 71, 0
2, 19469, Note_on_c, 0, 68, 83
2, 19493, Note_on_c, 0, 40, 0
2, 19533, Note_on_c, 0, 68, 0
2, 19585, Note_on_c, 0, 74, 0
2, 19641, Note_on_c, 0, 40, 70
2, 19644, Note_on_c, 0, 71, 85
2, 19706, Note_on_c, 0, 40, 0
2, 19716, Note_on_c, 0, 71, 0
2, 19798, Note_on_c, 0, 74, 78
2, 19808, Note_on_c, 0, 80, 84
2, 19816, Note_on_c, 0, 40, 73
2, 19895, Note_on_c, 0, 74, 0
2, 19981, Note_on_c, 0, 71, 87
2, 20040, Note_on_c, 0, 71, 0
2, 20105, Note_on_c, 0, 80, 0
2, 20138, Note_on_c, 0, 74, 85
2, 20199, Note_on_c, 0, 74, 0
2, 20299, Note_on_c, 0, 80, 79
2, 20299, Note_on_c, 0, 83, 85
2, 20339, Note_on_c, 0, 40, 0
2, 20414, Note_on_c, 0, 80, 0
2, 20478, Note_on_c, 0, 74, 85
2, 20531, Note_on_c, 0, 74, 0
2, 20556, Note_on_c, 0, 47, 70
2, 20624, Note_on_c, 0, 83, 0
2, 20627, Note_on_c, 0, 47, 0
2, 20635, Note_on_c, 0, 80, 77
2, 20639, Note_on_c, 0, 49, 73
2, 20682, Note_on_c, 0, 80, 0
2, 20703, Note_on_c, 0, 49, 0
2, 20709, Note_on_c, 0, 50, 82
2, 20787, Note_on_c, 0, 52, 86
2, 20789, Note_on_c, 0, 50, 0
2, 20800, Note_on_c, 0, 73, 91
2, 20872, Control_c, 0, 64, 59
2, 20887, Control_c, 0, 64, 75
2, 20901, Note_on_c, 0, 73, 0
2, 20902, Control_c, 0, 64, 118
2, 20917, Control_c, 0, 64, 127
2, 20947, Note_on_c, 0, 52, 0
2, 20964, Note_on_c, 0, 81, 83
2, 21039, Control_c, 0, 64, 108
2, 21042, Note_on_c, 0, 80, 81
2, 21054, Control_c, 0, 64, 78
2, 21063, Note_on_c, 0, 81, 0
2, 21070, Control_c, 0, 64, 64
2, 21092, Control_c, 0, 64, 0
2, 21134, Note_on_c, 0, 78, 75
2, 21142, Note_on_c, 0, 80, 0
2, 21145, Note_on_c, 0, 40, 63
2, 21189, Note_on_c, 0, 40, 0
2, 21201, Note_on_c, 0, 78, 0
2, 21202, Note_on_c, 0, 76, 75
2, 21227, Note_on_c, 0, 76, 0
2, 21294, Note_on_c, 0, 40, 67
2, 21304, Note_on_c, 0, 75, 85
2, 21312, Note_on_c, 0, 69, 71
2, 21389, Note_on_c, 0, 69, 0
2, 21409, Note_on_c, 0, 75, 0
2, 21425, Note_on_c, 0, 69, 5
2, 21475, Note_on_c, 0, 78, 84
2, 21479, Note_on_c, 0, 40, 0
2, 21541, Note_on_c, 0, 78, 0
2, 21557, Note_on_c, 0, 69, 0
2, 21644, Note_on_c, 0, 75, 83
2, 21645, Note_on_c, 0, 40, 51
2, 21698, Note_on_c, 0, 40, 0
2, 21717, Note_on_c, 0, 75, 0
2, 21807, Note_on_c, 0, 69, 71
2, 21808, Note_on_c, 0, 40, 58
2, 21813, Note_on_c, 0, 66, 61
2, 21873, Note_on_c, 0, 69, 0
2, 21981, Note_on_c, 0, 75, 69
2, 22055, Note_on_c, 0, 75, 0
2, 22144, Note_on_c, 0, 66, 0
2, 22150, Note_on_c, 0, 69, 66
2, 22192, Note_on_c, 0, 69, 0
2, 22319, Note_on_c, 0, 66, 61
2, 22324, Note_on_c, 0, 63, 50
2, 22367, Note_on_c, 0, 66, 0
2, 22434, Note_on_c, 0, 40, 0
2, 22483, Note_on_c, 0, 69, 69
2, 22557, Note_on_c, 0, 69, 0
2, 22662, Note_on_c, 0, 66, 59
2, 22684, Note_on_c, 0, 63, 0
2, 22703, Note_on_c, 0, 66, 0
2, 22838, Note_on_c, 0, 68, 60
2, 22862, Note_on_c, 0, 64, 44
2, 22984, Note_on_c, 0, 68, 0
2, 23018, Note_on_c, 0, 64, 0
2, 23018, Note_on_c, 0, 66, 63
2, 23057, Note_on_c, 0, 66, 0
2, 23165, Note_on_c, 0, 52, 63
2, 23171, Note_on_c, 0, 64, 58
2, 23177, Note_on_c, 0, 62, 52
2, 23193, Note_on_c, 0, 52, 0
2, 23213, Note_on_c, 0, 62, 0
2, 23214, Note_on_c, 0, 64, 0
2, 23342, Note_on_c, 0, 54, 73
2, 23345, Note_on_c, 0, 69, 82
2, 23359, Note_on_c, 0, 61, 65
2, 23410, Control_c, 0, 64, 40
2, 23425, Control_c, 0, 64, 64
2, 23441, Control_c, 0, 64, 77
2, 23455, Control_c, 0, 64, 127
2, 23471, Note_on_c, 0, 69, 0
2, 23473, Note_on_c, 0, 54, 0
2, 23484, Note_on_c, 0, 61, 0
2, 23518, Note_on_c, 0, 52, 73
2, 23532, Control_c, 0, 64, 96
2, 23546, Note_on_c, 0, 52, 0
2, 23547, Control_c, 0, 64, 70
2, 23563, Control_c, 0, 64, 48
2, 23577, Control_c, 0, 64, 0
2, 23688, Note_on_c, 0, 74, 82
2, 23696, Note_on_c, 0, 50, 61
2, 23706, Note_on_c, 0, 69, 63
2, 23733, Note_on_c, 0, 50, 0
2, 23739, Note_on_c, 0, 69, 0
2, 23752, Note_on_c, 0, 74, 0
2, 23895, Note_on_c, 0, 73, 88
2, 23898, Note_on_c, 0, 52, 60
2, 23898, Note_on_c, 0, 69, 74
2, 23926, Control_c, 0, 64, 52
2, 23941, Control_c, 0, 64, 69
2, 23958, Control_c, 0, 64, 95
2, 23973, Control_c, 0, 64, 127
2, 24040, Note_on_c, 0, 69, 0
2, 24052, Note_on_c, 0, 73, 0
2, 24433, Note_on_c, 0, 73, 78
2, 24437, Control_c, 0, 64, 105
2, 24452, Control_c, 0, 64, 72
2, 24452, Note_on_c, 0, 40, 67
2, 24459, Note_on_c, 0, 68, 62
2, 24467, Control_c, 0, 64, 46
2, 24469, Note_on_c, 0, 73, 0
2, 24479, Note_on_c, 0, 71, 73
2, 24483, Control_c, 0, 64, 0
2, 24517, Note_on_c, 0, 71, 0
2, 24538, Note_on_c, 0, 73, 75
2, 24540, Note_on_c, 0, 68, 0
2, 24565, Note_on_c, 0, 73, 0
2, 24571, Note_on_c, 0, 71, 73
2, 24613, Note_on_c, 0, 69, 81
2, 24614, Note_on_c, 0, 68, 39
2, 24620, Note_on_c, 0, 71, 0
2, 24624, Note_on_c, 0, 40, 0
2, 24669, Note_on_c, 0, 69, 0
2, 24779, Note_on_c, 0, 68, 0
2, 24796, Note_on_c, 0, 52, 0
2, 24815, Note_on_c, 0, 71, 87
2, 24867, Note_on_c, 0, 71, 0
2, 25029, Note_on_c, 0, 45, 75
2, 25047, Note_on_c, 0, 69, 78
2, 25066, Control_c, 0, 64, 62
2, 25082, Control_c, 0, 64, 84
2, 25097, Control_c, 0, 64, 127
2, 25100, Note_on_c, 0, 69, 0
2, 25182, Note_on_c, 0, 45, 0
2, 25234, Control_c, 0, 64, 83
2, 25250, Control_c, 0, 64, 63
2, 25254, Note_on_c, 0, 73, 69
2, 25264, Control_c, 0, 64, 0
2, 25290, Note_on_c, 0, 73, 0
2, 25330, Note_on_c, 0, 71, 71
2, 25363, Note_on_c, 0, 71, 0
2, 25400, Note_on_c, 0, 52, 54
2, 25402, Note_on_c, 0, 69, 57
2, 25427, Note_on_c, 0, 52, 0
2, 25452, Note_on_c, 0, 69, 0
2, 25473, Note_on_c, 0, 68, 58
2, 25512, Note_on_c, 0, 68, 0
2, 25539, Note_on_c, 0, 66, 66
2, 25549, Note_on_c, 0, 57, 52
2, 25569, Note_on_c, 0, 66, 0
2, 25586, Note_on_c, 0, 57, 0
2, 25594, Note_on_c, 0, 56, 64
2, 25632, Note_on_c, 0, 56, 0
2, 25650, Note_on_c, 0, 57, 60
2, 25742, Note_on_c, 0, 69, 65
2, 25784, Note_on_c, 0, 69, 0
2, 25826, Note_on_c, 0, 68, 56
2, 25862, Note_on_c, 0, 68, 0
2, 25898, Note_on_c, 0, 66, 63
2, 25942, Note_on_c, 0, 66, 0
2, 25971, Note_on_c, 0, 64, 62
2, 26036, Note_on_c, 0, 64, 0
2, 26053, Note_on_c, 0, 63, 70
2, 26081, Note_on_c, 0, 63, 0
2, 26200, Note_on_c, 0, 57, 0
2, 26217, Note_on_c, 0, 66, 71
2, 26221, Note_on_c, 0, 59, 57
2, 26253, Note_on_c, 0, 66, 0
2, 26261, Note_on_c, 0, 59, 0
2, 26300, Note_on_c, 0, 57, 67
2, 26359, Note_on_c, 0, 57, 0
2, 26380, Note_on_c, 0, 56, 64
2, 26396, Note_on_c, 0, 71, 75
2, 26436, Note_on_c, 0, 56, 0
2, 26451, Note_on_c, 0, 54, 67
2, 26451, Note_on_c, 0, 71, 0
2, 26523, Note_on_c, 0, 54, 0
2, 26558, Note_on_c, 0, 53, 68
2, 26567, Note_on_c, 0, 71, 83
2, 26582, Note_on_c, 0, 53, 0
2, 26742, Note_on_c, 0, 54, 68
2, 26750, Note_on_c, 0, 68, 66
2, 26787, Note_on_c, 0, 54, 0
2, 26799, Note_on_c, 0, 68, 0
2, 26817, Note_on_c, 0, 53, 60
2, 26880, Note_on_c, 0, 53, 0
2, 26900, Note_on_c, 0, 51, 58
2, 26913, Note_on_c, 0, 65, 64
2, 26952, Note_on_c, 0, 51, 0
2, 26957, Note_on_c, 0, 65, 0
2, 26967, Note_on_c, 0, 49, 66
2, 27021, Note_on_c, 0, 71, 0
2, 27030, Control_c, 0, 64, 54
2, 27038, Note_on_c, 0, 49, 0
2, 27045, Control_c, 0, 64, 67
2, 27060, Control_c, 0, 64, 88
2, 27069, Note_on_c, 0, 54, 87
2, 27076, Control_c, 0, 64, 127
2, 27088, Note_on_c, 0, 61, 77
2, 27125, Note_on_c, 0, 54, 0
2, 27141, Note_on_c, 0, 61, 0
2, 27252, Control_c, 0, 64, 95
2, 27263, Note_on_c, 0, 69, 79
2, 27266, Control_c, 0, 64, 70
2, 27282, Control_c, 0, 64, 48
2, 27297, Control_c, 0, 64, 0
2, 27332, Note_on_c, 0, 69, 0
2, 27344, Note_on_c, 0, 68, 72
2, 27416, Note_on_c, 0, 68, 0
2, 27419, Note_on_c, 0, 66, 74
2, 27429, Note_on_c, 0, 42, 68
2, 27459, Note_on_c, 0, 42, 0
2, 27467, Note_on_c, 0, 66, 0
2, 27496, Note_on_c, 0, 64, 75
2, 27558, Note_on_c, 0, 54, 63
2, 27564, Note_on_c, 0, 64, 0
2, 27573, Note_on_c, 0, 62, 70
2, 27604, Note_on_c, 0, 54, 0
2, 27612, Note_on_c, 0, 62, 0
2, 27620, Note_on_c, 0, 52, 56
2, 27664, Note_on_c, 0, 52, 0
2, 27674, Note_on_c, 0, 54, 75
2, 27745, Note_on_c, 0, 66, 76
2, 27804, Note_on_c, 0, 66, 0
2, 27818, Note_on_c, 0, 64, 76
2, 27876, Note_on_c, 0, 64, 0
2, 27901, Note_on_c, 0, 62, 75
2, 27970, Note_on_c, 0, 62, 0
2, 27973, Note_on_c, 0, 61, 77
2, 28040, Note_on_c, 0, 54, 0
2, 28040, Note_on_c, 0, 54, 4
2, 28047, Note_on_c, 0, 61, 0
2, 28058, Note_on_c, 0, 59, 81
2, 28087, Note_on_c, 0, 59, 0
2, 28212, Note_on_c, 0, 54, 0
2, 28231, Note_on_c, 0, 55, 60
2, 28234, Note_on_c, 0, 62, 76
2, 28266, Note_on_c, 0, 62, 0
2, 28288, Note_on_c, 0, 55, 0
2, 28314, Note_on_c, 0, 54, 65
2, 28356, Note_on_c, 0, 54, 0
2, 28389, Note_on_c, 0, 67, 81
2, 28391, Note_on_c, 0, 52, 66
2, 28438, Note_on_c, 0, 52, 0
2, 28441, Note_on_c, 0, 67, 0
2, 28475, Note_on_c, 0, 50, 66
2, 28526, Note_on_c, 0, 50, 0
2, 28546, Note_on_c, 0, 49, 76
2, 28554, Note_on_c, 0, 67, 89
2, 28579, Note_on_c, 0, 49, 0
2, 28731, Note_on_c, 0, 64, 76
2, 28740, Note_on_c, 0, 50, 55
2, 28795, Note_on_c, 0, 50, 0
2, 28803, Note_on_c, 0, 64, 0
2, 28823, Note_on_c, 0, 49, 60
2, 28865, Note_on_c, 0, 49, 0
2, 28881, Note_on_c, 0, 61, 77
2, 28892, Note_on_c, 0, 47, 61
2, 28936, Note_on_c, 0, 61, 0
2, 28940, Note_on_c, 0, 47, 0
2, 28970, Note_on_c, 0, 45, 71
2, 29049, Note_on_c, 0, 45, 0
2, 29055, Note_on_c, 0, 50, 79
2, 29062, Note_on_c, 0, 57, 79
2, 29089, Note_on_c, 0, 67, 0
2, 29092, Control_c, 0, 64, 37
2, 29107, Control_c, 0, 64, 57
2, 29107, Note_on_c, 0, 57, 0
2, 29123, Control_c, 0, 64, 64
2, 29137, Control_c, 0, 64, 84
2, 29153, Control_c, 0, 64, 127
2, 29208, Note_on_c, 0, 50, 0
2, 29237, Note_on_c, 0, 66, 83
2, 29275, Control_c, 0, 64, 81
2, 29289, Control_c, 0, 64, 64
2, 29300, Note_on_c, 0, 66, 0
2, 29304, Control_c, 0, 64, 0
2, 29319, Note_on_c, 0, 64, 82
2, 29380, Note_on_c, 0, 64, 0
2, 29401, Note_on_c, 0, 62, 83
2, 29403, Note_on_c, 0, 38, 66
2, 29445, Note_on_c, 0, 38, 0
2, 29475, Note_on_c, 0, 62, 0
2, 29477, Note_on_c, 0, 61, 81
2, 29549, Note_on_c, 0, 50, 60
2, 29551, Note_on_c, 0, 61, 0
2, 29560, Note_on_c, 0, 59, 77
2, 29594, Note_on_c, 0, 50, 0
2, 29595, Note_on_c, 0, 59, 0
2, 29599, Note_on_c, 0, 49, 72
2, 29642, Note_on_c, 0, 49, 0
2, 29664, Note_on_c, 0, 50, 72
2, 29735, Note_on_c, 0, 62, 81
2, 29795, Note_on_c, 0, 62, 0
2, 29808, Note_on_c, 0, 61, 75
2, 29876, Note_on_c, 0, 61, 0
2, 29888, Note_on_c, 0, 59, 71
2, 29938, Note_on_c, 0, 59, 0
2, 29963, Note_on_c, 0, 57, 74
2, 30043, Note_on_c, 0, 57, 0
2, 30050, Note_on_c, 0, 56, 77
2, 30101, Note_on_c, 0, 56, 0
2, 30193, Note_on_c, 0, 50, 0
2, 30215, Note_on_c, 0, 52, 61
2, 30232, Note_on_c, 0, 59, 69
2, 30251, Note_on_c, 0, 52, 0
2, 30276, Note_on_c, 0, 59, 0
2, 30292, Note_on_c, 0, 50, 67
2, 30358, Note_on_c, 0, 50, 0
2, 30371, Note_on_c, 0, 49, 66
2, 30387, Note_on_c, 0, 64, 83
2, 30417, Note_on_c, 0, 49, 0
2, 30435, Note_on_c, 0, 64, 0
2, 30451, Note_on_c, 0, 47, 64
2, 30524, Note_on_c, 0, 47, 0
2, 30539, Note_on_c, 0, 45, 75
2, 30555, Note_on_c, 0, 61, 85
2, 30580, Note_on_c, 0, 45, 0
2, 30633, Note_on_c, 0, 61, 0
2, 30721, Note_on_c, 0, 47, 61
2, 30723, Note_on_c, 0, 64, 86
2, 30774, Note_on_c, 0, 47, 0
2, 30779, Note_on_c, 0, 64, 0
2, 30793, Note_on_c, 0, 49, 70
2, 30847, Note_on_c, 0, 49, 0
2, 30877, Note_on_c, 0, 50, 69
2, 30884, Note_on_c, 0, 69, 81
2, 30947, Note_on_c, 0, 52, 63
2, 30950, Note_on_c, 0, 69, 0
2, 30987, Note_on_c, 0, 50, 0
2, 31016, Note_on_c, 0, 52, 0
2, 31026, Note_on_c, 0, 54, 78
2, 31046, Note_on_c, 0, 54, 0
2, 31058, Note_on_c, 0, 62, 84
2, 31067, Note_on_c, 0, 53, 43
2, 31107, Note_on_c, 0, 53, 0
2, 31230, Note_on_c, 0, 52, 73
2, 31267, Note_on_c, 0, 52, 0
2, 31287, Note_on_c, 0, 62, 0
2, 31391, Note_on_c, 0, 50, 76
2, 31398, Note_on_c, 0, 62, 73
2, 31401, Note_on_c, 0, 71, 84
2, 31426, Note_on_c, 0, 50, 0
2, 31443, Note_on_c, 0, 62, 0
2, 31572, Note_on_c, 0, 52, 77
2, 31577, Note_on_c, 0, 64, 82
2, 31578, Note_on_c, 0, 71, 0
2, 31580, Note_on_c, 0, 61, 81
2, 31758, Note_on_c, 0, 69, 81
2, 31760, Control_c, 0, 64, 38
2, 31761, Note_on_c, 0, 64, 0
2, 31766, Note_on_c, 0, 61, 0
2, 31775, Control_c, 0, 64, 65
2, 31791, Control_c, 0, 64, 74
2, 31806, Control_c, 0, 64, 93
2, 31820, Control_c, 0, 64, 127
2, 31835, Note_on_c, 0, 69, 0
2, 31865, Note_on_c, 0, 52, 0
2, 31920, Control_c, 0, 64, 100
2, 31935, Control_c, 0, 64, 75
2, 31935, Note_on_c, 0, 68, 82
2, 31941, Note_on_c, 0, 40, 64
2, 31941, Note_on_c, 0, 59, 64
2, 31950, Control_c, 0, 64, 58
2, 31965, Control_c, 0, 64, 0
2, 31984, Note_on_c, 0, 59, 0
2, 31990, Note_on_c, 0, 40, 0
2, 32000, Note_on_c, 0, 68, 0
2, 32099, Note_on_c, 0, 69, 83
2, 32101, Note_on_c, 0, 45, 77
2, 32106, Note_on_c, 0, 61, 75
2, 32137, Note_on_c, 0, 45, 0
2, 32281, Note_on_c, 0, 49, 82
2, 32336, Note_on_c, 0, 49, 0
2, 32455, Note_on_c, 0, 52, 74
2, 32489, Note_on_c, 0, 52, 0
2, 32685, Note_on_c, 0, 57, 81
2, 32764, Control_c, 0, 64, 58
2, 32779, Control_c, 0, 64, 69
2, 32795, Control_c, 0, 64, 80
2, 32810, Control_c, 0, 64, 127
2, 32888, Note_on_c, 0, 57, 0
2, 32942, Note_on_c, 0, 61, 0
2, 32964, Note_on_c, 0, 69, 0
2, 33233, Note_on_c, 0, 45, 78
2, 33236, Control_c, 0, 64, 82
2, 33236, Note_on_c, 0, 57, 85
2, 33251, Control_c, 0, 64, 65
2, 33266, Control_c, 0, 64, 25
2, 33282, Control_c, 0, 64, 0
2, 33410, Note_on_c, 0, 76, 84
2, 33486, Note_on_c, 0, 74, 79
2, 33514, Note_on_c, 0, 76, 0
2, 33562, Note_on_c, 0, 73, 85
2, 33583, Note_on_c, 0, 74, 0
2, 33604, Note_on_c, 0, 57, 0
2, 33642, Note_on_c, 0, 71, 84
2, 33678, Note_on_c, 0, 73, 0
2, 33718, Note_on_c, 0, 71, 0
2, 33727, Note_on_c, 0, 69, 81
2, 33753, Note_on_c, 0, 45, 0
2, 33786, Note_on_c, 0, 69, 0
2, 33898, Note_on_c, 0, 73, 83
2, 33980, Note_on_c, 0, 73, 0
2, 34073, Note_on_c, 0, 69, 72
2, 34124, Note_on_c, 0, 69, 0
2, 34240, Note_on_c, 0, 64, 71
2, 34302, Note_on_c, 0, 64, 0
2, 34399, Note_on_c, 0, 69, 73
2, 34466, Note_on_c, 0, 69, 0
2, 34571, Note_on_c, 0, 64, 68
2, 34617, Note_on_c, 0, 64, 0
2, 34744, Note_on_c, 0, 61, 66
2, 34821, Note_on_c, 0, 61, 0
2, 34904, Note_on_c, 0, 64, 69
2, 34953, Note_on_c, 0, 64, 0
2, 35090, Note_on_c, 0, 61, 68
2, 35140, Note_on_c, 0, 61, 0
2, 35264, Note_on_c, 0, 57, 51
2, 35325, Control_c, 0, 64, 42
2, 35340, Control_c, 0, 64, 57
2, 35357, Control_c, 0, 64, 63
2, 35371, Control_c, 0, 64, 64
2, 35417, Control_c, 0, 64, 63
2, 35433, Control_c, 0, 64, 60
2, 35435, Note_on_c, 0, 57, 0
2, 35448, Control_c, 0, 64, 56
2, 35460, Note_on_c, 0, 69, 57
2, 35463, Control_c, 0, 64, 49
2, 35479, Control_c, 0, 64, 42
2, 35494, Control_c, 0, 64, 36
2, 35497, Note_on_c, 0, 69, 0
2, 35510, Control_c, 0, 64, 28
2, 35525, Control_c, 0, 64, 0
2, 35529, Note_on_c, 0, 71, 62
2, 35599, Note_on_c, 0, 71, 0
2, 35608, Note_on_c, 0, 73, 72
2, 35667, Note_on_c, 0, 73, 0
2, 35693, Note_on_c, 0, 74, 73
2, 35768, Note_on_c, 0, 74, 0
2, 35781, Note_on_c, 0, 76, 72
2, 35787, Note_on_c, 0, 69, 69
2, 35792, Note_on_c, 0, 57, 44
2, 35801, Note_on_c, 0, 61, 42
2, 35837, Note_on_c, 0, 76, 0
2, 35956, Note_on_c, 0, 73, 77
2, 35989, Note_on_c, 0, 69, 0
2, 36013, Note_on_c, 0, 73, 0
2, 36020, Note_on_c, 0, 57, 0
2, 36042, Note_on_c, 0, 61, 0
2, 36121, Note_on_c, 0, 76, 76
2, 36173, Note_on_c, 0, 76, 0
2, 36293, Note_on_c, 0, 81, 77
2, 36304, Note_on_c, 0, 69, 65
2, 36314, Note_on_c, 0, 61, 47
2, 36318, Note_on_c, 0, 57, 27
2, 36323, Control_c, 0, 64, 40
2, 36338, Control_c, 0, 64, 50
2, 36354, Control_c, 0, 64, 57
2, 36360, Note_on_c, 0, 81, 0
2, 36369, Control_c, 0, 64, 64
2, 36383, Control_c, 0, 64, 70
2, 36390, Note_on_c, 0, 76, 63
2, 36395, Note_on_c, 0, 61, 0
2, 36399, Control_c, 0, 64, 75
2, 36400, Note_on_c, 0, 69, 0
2, 36414, Control_c, 0, 64, 78
2, 36430, Control_c, 0, 64, 81
2, 36445, Control_c, 0, 64, 83
2, 36463, Note_on_c, 0, 76, 0
2, 36466, Control_c, 0, 64, 83
2, 36478, Note_on_c, 0, 78, 70
2, 36556, Note_on_c, 0, 78, 0
2, 36570, Note_on_c, 0, 71, 73
2, 36573, Control_c, 0, 64, 82
2, 36573, Note_on_c, 0, 62, 58
2, 36573, Note_on_c, 0, 80, 73
2, 36589, Control_c, 0, 64, 78
2, 36604, Control_c, 0, 64, 71
2, 36619, Control_c, 0, 64, 63
2, 36635, Control_c, 0, 64, 42
2, 36650, Control_c, 0, 64, 34
2, 36654, Note_on_c, 0, 80, 0
2, 36664, Control_c, 0, 64, 44
2, 36664, Note_on_c, 0, 81, 75
2, 36671, Note_on_c, 0, 62, 0
2, 36680, Control_c, 0, 64, 54
2, 36695, Control_c, 0, 64, 59
2, 36711, Control_c, 0, 64, 63
2, 36726, Control_c, 0, 64, 67
2, 36727, Note_on_c, 0, 71, 0
2, 36740, Control_c, 0, 64, 72
2, 36744, Note_on_c, 0, 81, 0
2, 36752, Note_on_c, 0, 80, 81
2, 36756, Control_c, 0, 64, 75
2, 36786, Control_c, 0, 64, 74
2, 36802, Control_c, 0, 64, 67
2, 36816, Control_c, 0, 64, 55
2, 36816, Note_on_c, 0, 80, 0
2, 36832, Control_c, 0, 64, 0
2, 36837, Note_on_c, 0, 81, 84
2, 36843, Note_on_c, 0, 71, 83
2, 36850, Note_on_c, 0, 62, 61
2, 36861, Control_c, 0, 64, 19
2, 36877, Control_c, 0, 64, 53
2, 36889, Note_on_c, 0, 57, 0
2, 36890, Note_on_c, 0, 62, 0
2, 36892, Control_c, 0, 64, 65
2, 36907, Control_c, 0, 64, 74
2, 36916, Note_on_c, 0, 81, 0
2, 36923, Control_c, 0, 64, 90
2, 36931, Note_on_c, 0, 76, 71
2, 36937, Control_c, 0, 64, 104
2, 36941, Note_on_c, 0, 71, 0
2, 36953, Control_c, 0, 64, 113
2, 36968, Control_c, 0, 64, 114
2, 36983, Control_c, 0, 64, 115
2, 37005, Note_on_c, 0, 76, 0
2, 37005, Note_on_c, 0, 78, 73
2, 37059, Control_c, 0, 64, 114
2, 37076, Control_c, 0, 64, 110
2, 37090, Control_c, 0, 64, 93
2, 37095, Note_on_c, 0, 80, 77
2, 37105, Control_c, 0, 64, 77
2, 37109, Note_on_c, 0, 64, 71
2, 37109, Note_on_c, 0, 73, 87
2, 37121, Control_c, 0, 64, 64
2, 37128, Note_on_c, 0, 78, 0
2, 37136, Control_c, 0, 64, 41
2, 37152, Control_c, 0, 64, 0
2, 37167, Note_on_c, 0, 73, 0
2, 37175, Note_on_c, 0, 81, 79
2, 37177, Note_on_c, 0, 80, 0
2, 37186, Note_on_c, 0, 64, 0
2, 37267, Note_on_c, 0, 81, 0
2, 37275, Note_on_c, 0, 80, 78
2, 37326, Control_c, 0, 64, 58
2, 37341, Control_c, 0, 64, 69
2, 37357, Control_c, 0, 64, 79
2, 37358, Note_on_c, 0, 80, 0
2, 37368, Note_on_c, 0, 73, 84
2, 37372, Control_c, 0, 64, 100
2, 37375, Note_on_c, 0, 81, 81
2, 37376, Note_on_c, 0, 64, 75
2, 37386, Control_c, 0, 64, 127
2, 37400, Note_on_c, 0, 73, 0
2, 37436, Note_on_c, 0, 64, 0
2, 37442, Note_on_c, 0, 81, 0
2, 37539, Control_c, 0, 64, 100
2, 37555, Control_c, 0, 64, 84
2, 37563, Note_on_c, 0, 80, 84
2, 37570, Control_c, 0, 64, 72
2, 37578, Note_on_c, 0, 64, 62
2, 37584, Control_c, 0, 64, 61
2, 37600, Control_c, 0, 64, 0
2, 37636, Note_on_c, 0, 62, 81
2, 37637, Note_on_c, 0, 64, 0
2, 37654, Note_on_c, 0, 78, 80
2, 37657, Note_on_c, 0, 80, 0
2, 37701, Note_on_c, 0, 62, 0
2, 37711, Note_on_c, 0, 61, 78
2, 37731, Note_on_c, 0, 76, 79
2, 37744, Note_on_c, 0, 78, 0
2, 37778, Note_on_c, 0, 61, 0
2, 37785, Note_on_c, 0, 76, 0
2, 37794, Note_on_c, 0, 59, 74
2, 37802, Note_on_c, 0, 74, 78
2, 37873, Note_on_c, 0, 59, 0
2, 37880, Note_on_c, 0, 57, 84
2, 37885, Note_on_c, 0, 73, 86
2, 37885, Note_on_c, 0, 74, 0
2, 37931, Note_on_c, 0, 57, 0
2, 37958, Note_on_c, 0, 73, 0
2, 37962, Note_on_c, 0, 74, 78
2, 38047, Note_on_c, 0, 74, 0
2, 38058, Note_on_c, 0, 76, 78
2, 38069, Note_on_c, 0, 61, 84
2, 38112, Note_on_c, 0, 61, 0
2, 38141, Note_on_c, 0, 74, 71
2, 38142, Note_on_c, 0, 76, 0
2, 38215, Note_on_c, 0, 73, 81
2, 38225, Note_on_c, 0, 74, 0
2, 38236, Note_on_c, 0, 57, 83
2, 38277, Note_on_c, 0, 57, 0
2, 38294, Note_on_c, 0, 71, 72
2, 38306, Note_on_c, 0, 73, 0
2, 38346, Note_on_c, 0, 71, 0
2, 38371, Note_on_c, 0, 69, 71
2, 38399, Note_on_c, 0, 52, 77
2, 38430, Note_on_c, 0, 69, 0
2, 38433, Note_on_c, 0, 52, 0
2, 38442, Note_on_c, 0, 71, 77
2, 38484, Note_on_c, 0, 71, 0
2, 38509, Note_on_c, 0, 69, 63
2, 38549, Note_on_c, 0, 69, 0
2, 38555, Note_on_c, 0, 57, 82
2, 38558, Note_on_c, 0, 71, 72
2, 38593, Note_on_c, 0, 57, 0
2, 38601, Note_on_c, 0, 71, 0
2, 38624, Note_on_c, 0, 69, 65
2, 38663, Note_on_c, 0, 69, 0
2, 38671, Note_on_c, 0, 71, 74
2, 38725, Note_on_c, 0, 71, 0
2, 38730, Note_on_c, 0, 52, 75
2, 38740, Note_on_c, 0, 69, 67
2, 38766, Note_on_c, 0, 52, 0
2, 38785, Note_on_c, 0, 69, 0
2, 38796, Note_on_c, 0, 71, 65
2, 38845, Note_on_c, 0, 71, 0
2, 38863, Note_on_c, 0, 69, 66
2, 38900, Note_on_c, 0, 69, 0
2, 38902, Note_on_c, 0, 49, 78
2, 38914, Note_on_c, 0, 71, 72
2, 38934, Note_on_c, 0, 49, 0
2, 38959, Note_on_c, 0, 71, 0
2, 38982, Note_on_c, 0, 69, 62
2, 39016, Note_on_c, 0, 69, 0
2, 39031, Note_on_c, 0, 71, 74
2, 39059, Note_on_c, 0, 52, 67
2, 39087, Note_on_c, 0, 52, 0
2, 39090, Note_on_c, 0, 71, 0
2, 39101, Note_on_c, 0, 69, 57
2, 39134, Note_on_c, 0, 69, 0
2, 39134, Note_on_c, 0, 71, 53
2, 39193, Note_on_c, 0, 71, 0
2, 39209, Note_on_c, 0, 49, 66
2, 39215, Note_on_c, 0, 69, 61
2, 39246, Note_on_c, 0, 49, 0
2, 39249, Note_on_c, 0, 69, 0
2, 39255, Note_on_c, 0, 71, 64
2, 39310, Note_on_c, 0, 71, 0
2, 39328, Note_on_c, 0, 69, 50
2, 39387, Note_on_c, 0, 45, 70
2, 39472, Note_on_c, 0, 69, 0
2, 39488, Note_on_c, 0, 71, 72
2, 39565, Note_on_c, 0, 71, 0
2, 39582, Note_on_c, 0, 45, 0
2, 39606, Note_on_c, 0, 69, 64
2, 39646, Note_on_c, 0, 69, 0
2, 39677, Note_on_c, 0, 68, 65
2, 39702, Note_on_c, 0, 68, 0
2, 39759, Note_on_c, 0, 69, 73
2, 39793, Note_on_c, 0, 69, 0
2, 39836, Note_on_c, 0, 64, 59
2, 39896, Note_on_c, 0, 64, 0
2, 39903, Note_on_c, 0, 45, 56
2, 39903, Note_on_c, 0, 49, 52
2, 39913, Note_on_c, 0, 52, 52
2, 39913, Note_on_c, 0, 61, 67
2, 39967, Note_on_c, 0, 61, 0
2, 40004, Note_on_c, 0, 66, 69
2, 40056, Note_on_c, 0, 66, 0
2, 40083, Note_on_c, 0, 52, 0
2, 40083, Note_on_c, 0, 64, 71
2, 40126, Note_on_c, 0, 64, 0
2, 40129, Note_on_c, 0, 45, 0
2, 40151, Note_on_c, 0, 49, 0
2, 40168, Note_on_c, 0, 62, 59
2, 40206, Note_on_c, 0, 62, 0
2, 40262, Note_on_c, 0, 64, 60
2, 40312, Note_on_c, 0, 64, 0
2, 40353, Note_on_c, 0, 61, 49
2, 40396, Note_on_c, 0, 61, 0
2, 40422, Note_on_c, 0, 45, 51
2, 40428, Note_on_c, 0, 49, 45
2, 40430, Note_on_c, 0, 57, 56
2, 40441, Note_on_c, 0, 52, 33
2, 40477, Note_on_c, 0, 57, 0
2, 40514, Note_on_c, 0, 59, 50
2, 40545, Note_on_c, 0, 59, 0
2, 40566, Note_on_c, 0, 57, 61
2, 40610, Note_on_c, 0, 57, 0
2, 40615, Note_on_c, 0, 49, 0
2, 40636, Note_on_c, 0, 59, 61
2, 40666, Note_on_c, 0, 52, 0
2, 40673, Note_on_c, 0, 59, 0
2, 40690, Note_on_c, 0, 47, 62
2, 40694, Note_on_c, 0, 57, 59
2, 40728, Note_on_c, 0, 50, 38
2, 40734, Note_on_c, 0, 57, 0
2, 40753, Note_on_c, 0, 59, 64
2, 40790, Note_on_c, 0, 59, 0
2, 40817, Note_on_c, 0, 57, 62
2, 40850, Note_on_c, 0, 50, 0
2, 40851, Note_on_c, 0, 47, 0
2, 40860, Note_on_c, 0, 57, 0
2, 40877, Note_on_c, 0, 59, 72
2, 40899, Note_on_c, 0, 45, 0
2, 40924, Note_on_c, 0, 59, 0
2, 40952, Note_on_c, 0, 57, 58
2, 40982, Note_on_c, 0, 50, 61
2, 40983, Note_on_c, 0, 47, 66
2, 40991, Note_on_c, 0, 57, 0
2, 41005, Note_on_c, 0, 59, 63
2, 41046, Note_on_c, 0, 59, 0
2, 41084, Note_on_c, 0, 57, 56
2, 41126, Note_on_c, 0, 57, 0
2, 41144, Note_on_c, 0, 59, 58
2, 41179, Note_on_c, 0, 59, 0
2, 41193, Note_on_c, 0, 50, 0
2, 41202, Note_on_c, 0, 57, 58
2, 41245, Note_on_c, 0, 57, 0
2, 41266, Note_on_c, 0, 59, 63
2, 41272, Note_on_c, 0, 49, 63
2, 41278, Note_on_c, 0, 47, 0
2, 41282, Note_on_c, 0, 52, 47
2, 41306, Note_on_c, 0, 59, 0
2, 41331, Note_on_c, 0, 57, 62
2, 41376, Note_on_c, 0, 57, 0
2, 41378, Note_on_c, 0, 49, 0
2, 41396, Note_on_c, 0, 59, 61
2, 41407, Note_on_c, 0, 52, 0
2, 41441, Note_on_c, 0, 59, 0
2, 41475, Note_on_c, 0, 57, 60
2, 41529, Note_on_c, 0, 57, 0
2, 41551, Note_on_c, 0, 59, 51
2, 41553, Note_on_c, 0, 52, 50
2, 41570, Note_on_c, 0, 49, 61
2, 41575, Note_on_c, 0, 59, 0
2, 41760, Note_on_c, 0, 49, 0
2, 41760, Note_on_c, 0, 57, 56
2, 41762, Note_on_c, 0, 52, 0
2, 41813, Note_on_c, 0, 57, 0
2, 41863, Note_on_c, 0, 59, 50
2, 41923, Note_on_c, 0, 59, 0
2, 41940, Note_on_c, 0, 61, 59
2, 41969, Note_on_c, 0, 61, 0
2, 42021, Note_on_c, 0, 62, 59
2, 42074, Note_on_c, 0, 62, 0
2, 42103, Note_on_c, 0, 64, 61
2, 42142, Note_on_c, 0, 64, 0
2, 42279, Note_on_c, 0, 61, 67
2, 42317, Note_on_c, 0, 61, 0
2, 42441, Note_on_c, 0, 64, 57
2, 42443, Note_on_c, 0, 57, 44
2, 42485, Note_on_c, 0, 57, 0
2, 42491, Note_on_c, 0, 64, 0
2, 42616, Note_on_c, 0, 67, 54
2, 42632, Note_on_c, 0, 59, 43
2, 42661, Note_on_c, 0, 59, 0
2, 42683, Note_on_c, 0, 67, 0
2, 42809, Note_on_c, 0, 76, 76
2, 42819, Note_on_c, 0, 61, 45
2, 42857, Note_on_c, 0, 61, 0
2, 42884, Note_on_c, 0, 59, 55
2, 42887, Note_on_c, 0, 74, 79
2, 42892, Note_on_c, 0, 76, 0
2, 42933, Note_on_c, 0, 59, 0
2, 42959, Note_on_c, 0, 57, 59
2, 42968, Note_on_c, 0, 73, 87
2, 42981, Note_on_c, 0, 74, 0
2, 43035, Note_on_c, 0, 57, 0
2, 43037, Note_on_c, 0, 59, 64
2, 43042, Note_on_c, 0, 71, 87
2, 43061, Note_on_c, 0, 73, 0
2, 43083, Note_on_c, 0, 59, 0
2, 43113, Note_on_c, 0, 71, 0
2, 43124, Note_on_c, 0, 61, 70
2, 43131, Note_on_c, 0, 69, 82
2, 43153, Note_on_c, 0, 61, 0
2, 43185, Note_on_c, 0, 69, 0
2, 43285, Note_on_c, 0, 62, 62
2, 43296, Note_on_c, 0, 76, 82
2, 43356, Note_on_c, 0, 76, 0
2, 43358, Note_on_c, 0, 62, 0
2, 43385, Note_on_c, 0, 61, 61
2, 43427, Note_on_c, 0, 61, 0
2, 43452, Note_on_c, 0, 59, 66
2, 43461, Note_on_c, 0, 67, 79
2, 43495, Note_on_c, 0, 59, 0
2, 43518, Note_on_c, 0, 67, 0
2, 43547, Note_on_c, 0, 61, 59
2, 43626, Note_on_c, 0, 61, 0
2, 43637, Note_on_c, 0, 66, 71
2, 43645, Note_on_c, 0, 62, 59
2, 43694, Note_on_c, 0, 62, 0
2, 43711, Note_on_c, 0, 66, 0
2, 43830, Note_on_c, 0, 62, 60
2, 43888, Note_on_c, 0, 62, 0
2, 43921, Note_on_c, 0, 64, 66
2, 43994, Note_on_c, 0, 64, 0
2, 44002, Note_on_c, 0, 66, 65
2, 44046, Note_on_c, 0, 66, 0
2, 44080, Note_on_c, 0, 67, 77
2, 44166, Note_on_c, 0, 67, 0
2, 44174, Note_on_c, 0, 69, 75
2, 44226, Note_on_c, 0, 69, 0
2, 44345, Note_on_c, 0, 66, 83
2, 44387, Note_on_c, 0, 66, 0
2, 44513, Note_on_c, 0, 69, 73
2, 44526, Note_on_c, 0, 50, 62
2, 44567, Note_on_c, 0, 50, 0
2, 44576, Note_on_c, 0, 69, 0
2, 44691, Note_on_c, 0, 72, 76
2, 44694, Note_on_c, 0, 52, 60
2, 44736, Note_on_c, 0, 52, 0
2, 44757, Note_on_c, 0, 72, 0
2, 44866, Note_on_c, 0, 81, 84
2, 44870, Note_on_c, 0, 54, 69
2, 44941, Note_on_c, 0, 54, 0
2, 44951, Note_on_c, 0, 79, 84
2, 44960, Note_on_c, 0, 52, 69
2, 44975, Note_on_c, 0, 81, 0
2, 45018, Note_on_c, 0, 52, 0
2, 45033, Note_on_c, 0, 78, 85
2, 45034, Note_on_c, 0, 50, 67
2, 45050, Note_on_c, 0, 79, 0
2, 45105, Note_on_c, 0, 76, 80
2, 45116, Note_on_c, 0, 50, 0
2, 45119, Note_on_c, 0, 52, 69
2, 45135, Note_on_c, 0, 78, 0
2, 45166, Note_on_c, 0, 52, 0
2, 45183, Note_on_c, 0, 76, 0
2, 45186, Note_on_c, 0, 54, 81
2, 45198, Note_on_c, 0, 74, 87
2, 45232, Note_on_c, 0, 54, 0
2, 45253, Note_on_c, 0, 74, 0
2, 45372, Note_on_c, 0, 55, 68
2, 45375, Note_on_c, 0, 81, 81
2, 45425, Note_on_c, 0, 81, 0
2, 45442, Note_on_c, 0, 55, 0
2, 45450, Note_on_c, 0, 54, 67
2, 45497, Note_on_c, 0, 54, 0
2, 45529, Note_on_c, 0, 52, 66
2, 45539, Note_on_c, 0, 72, 81
2, 45582, Note_on_c, 0, 52, 0
2, 45595, Note_on_c, 0, 72, 0
2, 45628, Note_on_c, 0, 54, 58
2, 45701, Note_on_c, 0, 54, 0
2, 45712, Note_on_c, 0, 71, 84
2, 45713, Note_on_c, 0, 55, 73
2, 45740, Note_on_c, 0, 55, 0
2, 45895, Note_on_c, 0, 59, 69
2, 45958, Note_on_c, 0, 57, 68
2, 45958, Note_on_c, 0, 59, 0
2, 46021, Note_on_c, 0, 57, 0
2, 46033, Note_on_c, 0, 55, 67
2, 46034, Note_on_c, 0, 69, 66
2, 46077, Note_on_c, 0, 69, 0
2, 46101, Note_on_c, 0, 55, 0
2, 46113, Note_on_c, 0, 54, 65
2, 46190, Note_on_c, 0, 69, 68
2, 46205, Note_on_c, 0, 52, 54
2, 46206, Note_on_c, 0, 54, 0
2, 46222, Note_on_c, 0, 69, 0
2, 46236, Note_on_c, 0, 52, 0
2, 46252, Note_on_c, 0, 67, 60
2, 46284, Note_on_c, 0, 67, 0
2, 46296, Note_on_c, 0, 69, 69
2, 46296, Note_on_c, 0, 71, 0
2, 46333, Note_on_c, 0, 69, 0
2, 46367, Note_on_c, 0, 67, 61
2, 46392, Note_on_c, 0, 55, 48
2, 46452, Note_on_c, 0, 55, 0
2, 46463, Note_on_c, 0, 54, 64
2, 46516, Note_on_c, 0, 67, 0
2, 46519, Note_on_c, 0, 54, 0
2, 46539, Note_on_c, 0, 52, 58
2, 46554, Note_on_c, 0, 66, 61
2, 46587, Note_on_c, 0, 52, 0
2, 46622, Note_on_c, 0, 50, 51
2, 46684, Note_on_c, 0, 66, 0
2, 46705, Note_on_c, 0, 50, 0
2, 46714, Note_on_c, 0, 49, 59
2, 46739, Note_on_c, 0, 64, 60
2, 46740, Note_on_c, 0, 49, 0
2, 46907, Note_on_c, 0, 73, 60
2, 46911, Note_on_c, 0, 52, 54
2, 46944, Note_on_c, 0, 73, 0
2, 46958, Note_on_c, 0, 52, 0
2, 46991, Note_on_c, 0, 71, 57
2, 47054, Note_on_c, 0, 71, 0
2, 47061, Note_on_c, 0, 49, 46
2, 47070, Note_on_c, 0, 70, 63
2, 47100, Note_on_c, 0, 49, 0
2, 47112, Note_on_c, 0, 70, 0
2, 47161, Note_on_c, 0, 71, 63
2, 47236, Note_on_c, 0, 46, 58
2, 47243, Note_on_c, 0, 71, 0
2, 47259, Note_on_c, 0, 73, 66
2, 47266, Note_on_c, 0, 46, 0
2, 47424, Note_on_c, 0, 49, 43
2, 47451, Note_on_c, 0, 49, 0
2, 47575, Note_on_c, 0, 73, 0
2, 47592, Note_on_c, 0, 46, 55
2, 47604, Note_on_c, 0, 67, 69
2, 47617, Note_on_c, 0, 64, 0
2, 47628, Note_on_c, 0, 46, 0
2, 47760, Note_on_c, 0, 67, 0
2, 47774, Note_on_c, 0, 50, 67
2, 47784, Note_on_c, 0, 66, 77
2, 47812, Note_on_c, 0, 50, 0
2, 47942, Note_on_c, 0, 54, 75
2, 47945, Note_on_c, 0, 74, 76
2, 47983, Note_on_c, 0, 54, 0
2, 48037, Note_on_c, 0, 74, 0
2, 48042, Note_on_c, 0, 73, 76
2, 48115, Note_on_c, 0, 50, 65
2, 48125, Note_on_c, 0, 73, 0
2, 48135, Note_on_c, 0, 71, 63
2, 48154, Note_on_c, 0, 50, 0
2, 48213, Note_on_c, 0, 73, 84
2, 48259, Note_on_c, 0, 71, 0
2, 48295, Note_on_c, 0, 73, 0
2, 48296, Note_on_c, 0, 47, 71
2, 48298, Note_on_c, 0, 74, 84
2, 48335, Note_on_c, 0, 47, 0
2, 48464, Note_on_c, 0, 50, 79
2, 48506, Note_on_c, 0, 50, 0
2, 48570, Note_on_c, 0, 66, 0
2, 48633, Note_on_c, 0, 47, 76
2, 48634, Note_on_c, 0, 74, 0
2, 48645, Note_on_c, 0, 69, 81
2, 48678, Note_on_c, 0, 47, 0
2, 48782, Note_on_c, 0, 69, 0
2, 48816, Note_on_c, 0, 52, 78
2, 48828, Note_on_c, 0, 67, 83
2, 48845, Note_on_c, 0, 52, 0
2, 48996, Note_on_c, 0, 55, 74
2, 49007, Note_on_c, 0, 76, 81
2, 49030, Note_on_c, 0, 55, 0
2, 49088, Note_on_c, 0, 74, 77
2, 49101, Note_on_c, 0, 76, 0
2, 49164, Note_on_c, 0, 52, 71
2, 49170, Note_on_c, 0, 73, 84
2, 49177, Note_on_c, 0, 74, 0
2, 49191, Note_on_c, 0, 52, 0
2, 49251, Note_on_c, 0, 74, 87
2, 49252, Note_on_c, 0, 73, 0
2, 49344, Note_on_c, 0, 76, 86
2, 49346, Note_on_c, 0, 49, 77
2, 49351, Note_on_c, 0, 74, 0
2, 49375, Note_on_c, 0, 49, 0
2, 49529, Note_on_c, 0, 52, 64
2, 49559, Note_on_c, 0, 52, 0
2, 49692, Note_on_c, 0, 76, 0
2, 49696, Note_on_c, 0, 49, 70
2, 49697, Note_on_c, 0, 71, 77
2, 49723, Note_on_c, 0, 49, 0
2, 49738, Note_on_c, 0, 67, 0
2, 49845, Note_on_c, 0, 71, 0
2, 49873, Control_c, 0, 64, 27
2, 49878, Note_on_c, 0, 54, 88
2, 49886, Note_on_c, 0, 70, 87
2, 49888, Control_c, 0, 64, 74
2, 49902, Control_c, 0, 64, 127
2, 49953, Note_on_c, 0, 70, 0
2, 50019, Note_on_c, 0, 54, 0
2, 50039, Control_c, 0, 64, 103
2, 50050, Note_on_c, 0, 79, 87
2, 50054, Control_c, 0, 64, 65
2, 50070, Control_c, 0, 64, 0
2, 50133, Note_on_c, 0, 78, 79
2, 50142, Note_on_c, 0, 79, 0
2, 50199, Note_on_c, 0, 78, 0
2, 50215, Note_on_c, 0, 59, 72
2, 50224, Note_on_c, 0, 76, 81
2, 50311, Note_on_c, 0, 75, 84
2, 50313, Note_on_c, 0, 76, 0
2, 50374, Note_on_c, 0, 75, 0
2, 50388, Note_on_c, 0, 58, 79
2, 50400, Note_on_c, 0, 76, 81
2, 50426, Note_on_c, 0, 59, 0
2, 50442, Note_on_c, 0, 76, 0
2, 50555, Note_on_c, 0, 58, 0
2, 50567, Note_on_c, 0, 59, 77
2, 50573, Note_on_c, 0, 79, 82
2, 50598, Note_on_c, 0, 59, 0
2, 50615, Note_on_c, 0, 79, 0
2, 50743, Note_on_c, 0, 75, 79
2, 50751, Note_on_c, 0, 61, 73
2, 50781, Note_on_c, 0, 61, 0
2, 50793, Note_on_c, 0, 75, 0
2, 50913, Note_on_c, 0, 76, 83
2, 50918, Note_on_c, 0, 54, 79
2, 50918, Note_on_c, 0, 73, 75
2, 50968, Note_on_c, 0, 73, 0
2, 50974, Control_c, 0, 64, 64
2, 50983, Note_on_c, 0, 76, 0
2, 50991, Control_c, 0, 64, 92
2, 51006, Control_c, 0, 64, 127
2, 51035, Note_on_c, 0, 54, 0
2, 51096, Note_on_c, 0, 79, 87
2, 51105, Control_c, 0, 64, 101
2, 51120, Control_c, 0, 64, 67
2, 51135, Control_c, 0, 64, 0
2, 51176, Note_on_c, 0, 78, 83
2, 51187, Note_on_c, 0, 79, 0
2, 51243, Note_on_c, 0, 78, 0
2, 51257, Note_on_c, 0, 59, 62
2, 51265, Note_on_c, 0, 76, 79
2, 51347, Note_on_c, 0, 75, 82
2, 51350, Note_on_c, 0, 76, 0
2, 51417, Note_on_c, 0, 76, 81
2, 51419, Note_on_c, 0, 75, 0
2, 51423, Note_on_c, 0, 58, 75
2, 51435, Note_on_c, 0, 59, 0
2, 51471, Note_on_c, 0, 76, 0
2, 51595, Note_on_c, 0, 78, 70
2, 51655, Note_on_c, 0, 78, 0
2, 51677, Note_on_c, 0, 76, 70
2, 51705, Note_on_c, 0, 58, 0
2, 51745, Note_on_c, 0, 76, 0
2, 51753, Note_on_c, 0, 59, 58
2, 51757, Note_on_c, 0, 75, 69
2, 51797, Note_on_c, 0, 59, 0
2, 51821, Note_on_c, 0, 75, 0
2, 51845, Note_on_c, 0, 73, 71
2, 51906, Note_on_c, 0, 73, 0
2, 51938, Note_on_c, 0, 47, 54
2, 51942, Note_on_c, 0, 75, 70
2, 51948, Control_c, 0, 64, 49
2, 51964, Control_c, 0, 64, 71
2, 51979, Control_c, 0, 64, 104
2, 51995, Control_c, 0, 64, 127
2, 52012, Note_on_c, 0, 75, 0
2, 52032, Note_on_c, 0, 47, 0
2, 52116, Control_c, 0, 64, 105
2, 52123, Note_on_c, 0, 72, 66
2, 52131, Control_c, 0, 64, 76
2, 52145, Control_c, 0, 64, 60
2, 52161, Control_c, 0, 64, 0
2, 52172, Note_on_c, 0, 72, 0
2, 52202, Note_on_c, 0, 71, 66
2, 52244, Note_on_c, 0, 71, 0
2, 52268, Note_on_c, 0, 64, 58
2, 52286, Note_on_c, 0, 69, 53
2, 52347, Note_on_c, 0, 69, 0
2, 52364, Note_on_c, 0, 68, 59
2, 52413, Note_on_c, 0, 68, 0
2, 52439, Note_on_c, 0, 63, 52
2, 52453, Note_on_c, 0, 64, 0
2, 52459, Note_on_c, 0, 69, 62
2, 52498, Note_on_c, 0, 69, 0
2, 52615, Note_on_c, 0, 63, 0
2, 52627, Note_on_c, 0, 64, 70
2, 52635, Note_on_c, 0, 72, 67
2, 52676, Note_on_c, 0, 64, 0
2, 52694, Note_on_c, 0, 72, 0
2, 52804, Note_on_c, 0, 66, 64
2, 52809, Note_on_c, 0, 68, 68
2, 52847, Note_on_c, 0, 66, 0
2, 52854, Note_on_c, 0, 68, 0
2, 52976, Note_on_c, 0, 59, 56
2, 52982, Note_on_c, 0, 78, 67
2, 52990, Note_on_c, 0, 69, 58
2, 53020, Control_c, 0, 64, 10
2, 53036, Control_c, 0, 64, 57
2, 53044, Note_on_c, 0, 69, 0
2, 53051, Control_c, 0, 64, 65
2, 53065, Control_c, 0, 64, 71
2, 53079, Note_on_c, 0, 78, 0
2, 53081, Control_c, 0, 64, 78
2, 53096, Control_c, 0, 64, 85
2, 53112, Control_c, 0, 64, 89
2, 53117, Note_on_c, 0, 59, 0
2, 53156, Note_on_c, 0, 72, 62
2, 53157, Control_c, 0, 64, 88
2, 53172, Control_c, 0, 64, 83
2, 53187, Control_c, 0, 64, 75
2, 53202, Control_c, 0, 64, 67
2, 53217, Control_c, 0, 64, 56
2, 53220, Note_on_c, 0, 72, 0
2, 53233, Control_c, 0, 64, 0
2, 53236, Note_on_c, 0, 71, 67
2, 53289, Note_on_c, 0, 71, 0
2, 53313, Note_on_c, 0, 64, 54
2, 53322, Note_on_c, 0, 69, 57
2, 53394, Note_on_c, 0, 69, 0
2, 53402, Note_on_c, 0, 68, 69
2, 53482, Note_on_c, 0, 68, 0
2, 53494, Note_on_c, 0, 63, 62
2, 53508, Note_on_c, 0, 64, 0
2, 53510, Note_on_c, 0, 69, 69
2, 53563, Note_on_c, 0, 69, 0
2, 53682, Note_on_c, 0, 71, 67
2, 53733, Note_on_c, 0, 71, 0
2, 53765, Note_on_c, 0, 69, 57
2, 53797, Note_on_c, 0, 63, 0
2, 53800, Note_on_c, 0, 69, 0
2, 53845, Note_on_c, 0, 64, 57
2, 53846, Note_on_c, 0, 67, 59
2, 53882, Note_on_c, 0, 64, 0
2, 53908, Note_on_c, 0, 67, 0
2, 53922, Note_on_c, 0, 66, 66
2, 53985, Note_on_c, 0, 66, 0
2, 54021, Note_on_c, 0, 52, 42
2, 54032, Note_on_c, 0, 67, 61
2, 54072, Note_on_c, 0, 52, 0
2, 54072, Note_on_c, 0, 67, 0
2, 54101, Note_on_c, 0, 71, 64
2, 54114, Note_on_c, 0, 55, 44
2, 54171, Note_on_c, 0, 71, 0
2, 54174, Note_on_c, 0, 55, 0
2, 54183, Note_on_c, 0, 73, 70
2, 54196, Note_on_c, 0, 57, 55
2, 54239, Note_on_c, 0, 57, 0
2, 54273, Note_on_c, 0, 73, 0
2, 54278, Note_on_c, 0, 59, 64
2, 54280, Note_on_c, 0, 75, 64
2, 54318, Note_on_c, 0, 59, 0
2, 54331, Note_on_c, 0, 75, 0
2, 54352, Note_on_c, 0, 61, 64
2, 54363, Note_on_c, 0, 76, 68
2, 54407, Note_on_c, 0, 76, 0
2, 54412, Note_on_c, 0, 61, 0
2, 54438, Note_on_c, 0, 78, 69
2, 54439, Note_on_c, 0, 63, 62
2, 54498, Note_on_c, 0, 63, 0
2, 54513, Note_on_c, 0, 78, 0
2, 54525, Note_on_c, 0, 79, 74
2, 54534, Note_on_c, 0, 64, 70
2, 54563, Note_on_c, 0, 64, 0
2, 54602, Note_on_c, 0, 79, 0
2, 54614, Note_on_c, 0, 78, 75
2, 54694, Note_on_c, 0, 78, 0
2, 54695, Note_on_c, 0, 76, 69
2, 54704, Note_on_c, 0, 67, 68
2, 54739, Note_on_c, 0, 67, 0
2, 54751, Note_on_c, 0, 76, 0
2, 54781, Note_on_c, 0, 74, 71
2, 54863, Note_on_c, 0, 73, 71
2, 54863, Note_on_c, 0, 74, 0
2, 54872, Note_on_c, 0, 64, 65
2, 54916, Note_on_c, 0, 64, 0
2, 54957, Note_on_c, 0, 71, 75
2, 55000, Note_on_c, 0, 73, 0
2, 55034, Note_on_c, 0, 71, 0
2, 55048, Note_on_c, 0, 61, 69
2, 55048, Note_on_c, 0, 76, 77
2, 55092, Note_on_c, 0, 61, 0
2, 55134, Note_on_c, 0, 74, 75
2, 55137, Note_on_c, 0, 76, 0
2, 55214, Note_on_c, 0, 64, 73
2, 55227, Note_on_c, 0, 73, 78
2, 55239, Note_on_c, 0, 74, 0
2, 55260, Note_on_c, 0, 64, 0
2, 55302, Note_on_c, 0, 71, 74
2, 55312, Note_on_c, 0, 73, 0
2, 55355, Note_on_c, 0, 71, 0
2, 55378, Note_on_c, 0, 69, 77
2, 55398, Note_on_c, 0, 61, 67
2, 55434, Note_on_c, 0, 61, 0
2, 55464, Note_on_c, 0, 69, 0
2, 55465, Note_on_c, 0, 68, 76
2, 55553, Note_on_c, 0, 68, 0
2, 55554, Note_on_c, 0, 73, 85
2, 55556, Note_on_c, 0, 57, 66
2, 55602, Note_on_c, 0, 57, 0
2, 55641, Note_on_c, 0, 71, 75
2, 55682, Note_on_c, 0, 73, 0
2, 55730, Note_on_c, 0, 61, 72
2, 55731, Note_on_c, 0, 69, 74
2, 55735, Note_on_c, 0, 71, 0
2, 55775, Note_on_c, 0, 61, 0
2, 55785, Note_on_c, 0, 69, 0
2, 55813, Note_on_c, 0, 67, 77
2, 55888, Note_on_c, 0, 57, 67
2, 55896, Note_on_c, 0, 67, 0
2, 55899, Note_on_c, 0, 66, 78
2, 55924, Note_on_c, 0, 57, 0
2, 55979, Note_on_c, 0, 66, 0
2, 55984, Note_on_c, 0, 64, 74
2, 56060, Note_on_c, 0, 64, 0
2, 56074, Note_on_c, 0, 50, 53
2, 56078, Note_on_c, 0, 66, 78
2, 56125, Note_on_c, 0, 50, 0
2, 56129, Note_on_c, 0, 66, 0
2, 56150, Note_on_c, 0, 54, 66
2, 56156, Note_on_c, 0, 69, 77
2, 56214, Note_on_c, 0, 54, 0
2, 56230, Note_on_c, 0, 69, 0
2, 56236, Note_on_c, 0, 71, 80
2, 56247, Note_on_c, 0, 55, 71
2, 56307, Note_on_c, 0, 55, 0
2, 56311, Note_on_c, 0, 71, 0
2, 56318, Note_on_c, 0, 73, 82
2, 56336, Note_on_c, 0, 57, 74
2, 56376, Note_on_c, 0, 73, 0
2, 56408, Note_on_c, 0, 59, 73
2, 56410, Note_on_c, 0, 57, 0
2, 56412, Note_on_c, 0, 74, 75
2, 56479, Note_on_c, 0, 59, 0
2, 56489, Note_on_c, 0, 61, 82
2, 56490, Note_on_c, 0, 74, 0
2, 56492, Note_on_c, 0, 76, 80
2, 56562, Note_on_c, 0, 76, 0
2, 56565, Note_on_c, 0, 61, 0
2, 56577, Note_on_c, 0, 62, 80
2, 56577, Note_on_c, 0, 78, 86
2, 56661, Note_on_c, 0, 76, 81
2, 56676, Note_on_c, 0, 78, 0
2, 56716, Note_on_c, 0, 76, 0
2, 56744, Note_on_c, 0, 74, 78
2, 56813, Note_on_c, 0, 74, 0
2, 56832, Note_on_c, 0, 73, 80
2, 56914, Note_on_c, 0, 71, 77
2, 56926, Note_on_c, 0, 73, 0
2, 56967, Note_on_c, 0, 71, 0
2, 56996, Note_on_c, 0, 69, 68
2, 57073, Note_on_c, 0, 69, 0
2, 57074, Note_on_c, 0, 68, 75
2, 57131, Note_on_c, 0, 68, 0
2, 57159, Note_on_c, 0, 71, 76
2, 57233, Note_on_c, 0, 71, 0
2, 57242, Note_on_c, 0, 62, 0
2, 57248, Note_on_c, 0, 76, 75
2, 57264, Note_on_c, 0, 61, 66
2, 57295, Note_on_c, 0, 61, 0
2, 57322, Note_on_c, 0, 76, 0
2, 57333, Note_on_c, 0, 74, 69
2, 57414, Note_on_c, 0, 74, 0
2, 57415, Note_on_c, 0, 59, 78
2, 57415, Note_on_c, 0, 76, 82
2, 57450, Note_on_c, 0, 59, 0
2, 57481, Note_on_c, 0, 76, 0
2, 57504, Note_on_c, 0, 67, 76
2, 57555, Note_on_c, 0, 67, 0
2, 57592, Note_on_c, 0, 58, 68
2, 57597, Note_on_c, 0, 66, 81
2, 57653, Note_on_c, 0, 66, 0
2, 57656, Note_on_c, 0, 58, 0
2, 57678, Note_on_c, 0, 61, 75
2, 57678, Note_on_c, 0, 70, 71
2, 57736, Note_on_c, 0, 61, 0
2, 57753, Note_on_c, 0, 70, 0
2, 57757, Note_on_c, 0, 73, 80
2, 57768, Note_on_c, 0, 59, 64
2, 57819, Note_on_c, 0, 59, 0
2, 57834, Note_on_c, 0, 73, 0
2, 57834, Note_on_c, 0, 74, 78
2, 57840, Note_on_c, 0, 58, 67
2, 57885, Note_on_c, 0, 58, 0
2, 57907, Note_on_c, 0, 56, 71
2, 57922, Note_on_c, 0, 76, 81
2, 57923, Note_on_c, 0, 74, 0
2, 58011, Note_on_c, 0, 54, 68
2, 58037, Note_on_c, 0, 56, 0
2, 58074, Note_on_c, 0, 54, 0
2, 58097, Note_on_c, 0, 59, 75
2, 58127, Note_on_c, 0, 59, 0
2, 58131, Note_on_c, 0, 76, 0
2, 58171, Note_on_c, 0, 66, 75
2, 58249, Note_on_c, 0, 66, 0
2, 58258, Note_on_c, 0, 68, 75
2, 58275, Note_on_c, 0, 54, 74
2, 58302, Note_on_c, 0, 54, 0
2, 58338, Note_on_c, 0, 68, 0
2, 58356, Note_on_c, 0, 70, 68
2, 58415, Note_on_c, 0, 70, 0
2, 58443, Note_on_c, 0, 50, 74
2, 58449, Note_on_c, 0, 71, 71
2, 58472, Note_on_c, 0, 50, 0
2, 58495, Note_on_c, 0, 71, 0
2, 58519, Note_on_c, 0, 73, 73
2, 58603, Note_on_c, 0, 74, 80
2, 58605, Note_on_c, 0, 73, 0
2, 58607, Note_on_c, 0, 47, 67
2, 58633, Note_on_c, 0, 47, 0
2, 58690, Note_on_c, 0, 74, 0
2, 58698, Note_on_c, 0, 73, 81
2, 58777, Note_on_c, 0, 73, 0
2, 58779, Note_on_c, 0, 49, 71
2, 58782, Note_on_c, 0, 71, 75
2, 58833, Note_on_c, 0, 71, 0
2, 58852, Note_on_c, 0, 49, 0
2, 58855, Note_on_c, 0, 69, 72
2, 58873, Note_on_c, 0, 50, 75
2, 58907, Note_on_c, 0, 50, 0
2, 58932, Note_on_c, 0, 69, 0
2, 58941, Note_on_c, 0, 67, 80
2, 58944, Note_on_c, 0, 52, 67
2, 58983, Note_on_c, 0, 52, 0
2, 59018, Note_on_c, 0, 66, 82
2, 59023, Note_on_c, 0, 54, 72
2, 59023, Note_on_c, 0, 67, 0
2, 59088, Note_on_c, 0, 66, 0
2, 59098, Note_on_c, 0, 55, 73
2, 59102, Note_on_c, 0, 71, 88
2, 59106, Note_on_c, 0, 54, 0
2, 59175, Note_on_c, 0, 55, 0
2, 59176, Note_on_c, 0, 57, 76
2, 59195, Note_on_c, 0, 69, 82
2, 59213, Note_on_c, 0, 71, 0
2, 59238, Note_on_c, 0, 57, 0
2, 59254, Note_on_c, 0, 59, 69
2, 59286, Note_on_c, 0, 67, 82
2, 59301, Note_on_c, 0, 69, 0
2, 59329, Note_on_c, 0, 59, 0
2, 59338, Note_on_c, 0, 57, 71
2, 59354, Note_on_c, 0, 66, 87
2, 59363, Note_on_c, 0, 67, 0
2, 59397, Note_on_c, 0, 57, 0
2, 59409, Note_on_c, 0, 55, 70
2, 59431, Note_on_c, 0, 66, 0
2, 59437, Note_on_c, 0, 64, 88
2, 59494, Note_on_c, 0, 54, 66
2, 59517, Note_on_c, 0, 55, 0
2, 59534, Note_on_c, 0, 62, 85
2, 59534, Note_on_c, 0, 64, 0
2, 59580, Note_on_c, 0, 52, 67
2, 59584, Note_on_c, 0, 54, 0
2, 59616, Note_on_c, 0, 67, 91
2, 59622, Note_on_c, 0, 62, 0
2, 59659, Note_on_c, 0, 52, 0
2, 59676, Note_on_c, 0, 54, 78
2, 59701, Note_on_c, 0, 66, 83
2, 59727, Note_on_c, 0, 67, 0
2, 59737, Note_on_c, 0, 54, 0
2, 59757, Note_on_c, 0, 55, 79
2, 59778, Note_on_c, 0, 64, 77
2, 59793, Note_on_c, 0, 66, 0
2, 59825, Note_on_c, 0, 55, 0
2, 59833, Note_on_c, 0, 62, 84
2, 59840, Note_on_c, 0, 54, 73
2, 59861, Note_on_c, 0, 64, 0
2, 59890, Note_on_c, 0, 54, 0
2, 59914, Note_on_c, 0, 55, 77
2, 59919, Note_on_c, 0, 62, 0
2, 59922, Note_on_c, 0, 61, 83
2, 59977, Note_on_c, 0, 55, 0
2, 60004, Note_on_c, 0, 64, 83
2, 60008, Note_on_c, 0, 52, 71
2, 60008, Note_on_c, 0, 61, 0
2, 60081, Note_on_c, 0, 64, 0
2, 60090, Note_on_c, 0, 52, 0
2, 60093, Note_on_c, 0, 58, 92
2, 60096, Note_on_c, 0, 54, 92
2, 60099, Control_c, 0, 64, 65
2, 60115, Control_c, 0, 64, 105
2, 60130, Control_c, 0, 64, 127
2, 60132, Note_on_c, 0, 58, 0
2, 60184, Note_on_c, 0, 54, 0
2, 60271, Note_on_c, 0, 79, 90
2, 60351, Control_c, 0, 64, 101
2, 60366, Control_c, 0, 64, 84
2, 60366, Note_on_c, 0, 78, 86
2, 60374, Note_on_c, 0, 79, 0
2, 60381, Control_c, 0, 64, 72
2, 60396, Control_c, 0, 64, 64
2, 60411, Control_c, 0, 64, 42
2, 60426, Control_c, 0, 64, 0
2, 60431, Note_on_c, 0, 78, 0
2, 60443, Note_on_c, 0, 42, 79
2, 60443, Note_on_c, 0, 76, 87
2, 60495, Note_on_c, 0, 42, 0
2, 60513, Note_on_c, 0, 76, 0
2, 60524, Note_on_c, 0, 74, 84
2, 60610, Note_on_c, 0, 73, 89
2, 60612, Note_on_c, 0, 70, 90
2, 60614, Note_on_c, 0, 42, 77
2, 60622, Note_on_c, 0, 74, 0
2, 60688, Note_on_c, 0, 73, 0
2, 60795, Note_on_c, 0, 76, 82
2, 60814, Note_on_c, 0, 42, 0
2, 60861, Note_on_c, 0, 76, 0
2, 60895, Note_on_c, 0, 70, 0
2, 60962, Note_on_c, 0, 73, 92
2, 60966, Note_on_c, 0, 42, 72
2, 61023, Note_on_c, 0, 73, 0
2, 61034, Note_on_c, 0, 42, 0
2, 61142, Note_on_c, 0, 70, 82
2, 61145, Note_on_c, 0, 42, 71
2, 61154, Note_on_c, 0, 64, 74
2, 61237, Note_on_c, 0, 70, 0
2, 61329, Note_on_c, 0, 73, 79
2, 61397, Note_on_c, 0, 73, 0
2, 61465, Note_on_c, 0, 64, 0
2, 61499, Note_on_c, 0, 70, 79
2, 61570, Note_on_c, 0, 70, 0
2, 61667, Note_on_c, 0, 61, 75
2, 61678, Note_on_c, 0, 64, 74
2, 61741, Note_on_c, 0, 64, 0
2, 61866, Note_on_c, 0, 70, 72
2, 61908, Note_on_c, 0, 42, 0
2, 61948, Note_on_c, 0, 70, 0
2, 61952, Note_on_c, 0, 49, 62
2, 62016, Note_on_c, 0, 49, 0
2, 62030, Note_on_c, 0, 64, 75
2, 62031, Note_on_c, 0, 50, 77
2, 62078, Note_on_c, 0, 50, 0
2, 62092, Note_on_c, 0, 64, 0
2, 62116, Note_on_c, 0, 52, 64
2, 62151, Note_on_c, 0, 61, 0
2, 62188, Note_on_c, 0, 54, 82
2, 62199, Note_on_c, 0, 52, 0
2, 62201, Note_on_c, 0, 62, 72
2, 62350, Note_on_c, 0, 62, 0
2, 62355, Note_on_c, 0, 54, 0
2, 62390, Note_on_c, 0, 59, 68
2, 62443, Note_on_c, 0, 59, 0
2, 62468, Note_on_c, 0, 61, 73
2, 62505, Note_on_c, 0, 61, 0
2, 62529, Note_on_c, 0, 42, 73
2, 62555, Note_on_c, 0, 62, 70
2, 62581, Note_on_c, 0, 42, 0
2, 62621, Note_on_c, 0, 62, 0
2, 62635, Note_on_c, 0, 64, 74
2, 62707, Note_on_c, 0, 64, 0
2, 62711, Note_on_c, 0, 42, 76
2, 62712, Note_on_c, 0, 66, 78
2, 62728, Note_on_c, 0, 71, 82
2, 62801, Note_on_c, 0, 66, 0
2, 62897, Note_on_c, 0, 62, 76
2, 62926, Note_on_c, 0, 42, 0
2, 62953, Note_on_c, 0, 62, 0
2, 63022, Note_on_c, 0, 71, 0
2, 63053, Note_on_c, 0, 42, 72
2, 63059, Note_on_c, 0, 66, 89
2, 63120, Note_on_c, 0, 66, 0
2, 63123, Note_on_c, 0, 42, 0
2, 63221, Note_on_c, 0, 71, 85
2, 63226, Note_on_c, 0, 74, 81
2, 63238, Note_on_c, 0, 42, 73
2, 63296, Note_on_c, 0, 71, 0
2, 63421, Note_on_c, 0, 66, 83
2, 63478, Note_on_c, 0, 66, 0
2, 63508, Note_on_c, 0, 74, 0
2, 63582, Note_on_c, 0, 71, 89
2, 63643, Note_on_c, 0, 71, 0
2, 63748, Note_on_c, 0, 77, 81
2, 63753, Note_on_c, 0, 74, 76
2, 63759, Note_on_c, 0, 42, 0
2, 63820, Note_on_c, 0, 74, 0
2, 63933, Note_on_c, 0, 71, 80
2, 63997, Note_on_c, 0, 71, 0
2, 64056, Note_on_c, 0, 77, 0
2, 64103, Note_on_c, 0, 74, 86
2, 64158, Note_on_c, 0, 74, 0
2, 64273, Note_on_c, 0, 78, 91
2, 64279, Note_on_c, 0, 73, 84
2, 64431, Note_on_c, 0, 73, 0
2, 64462, Note_on_c, 0, 70, 76
2, 64504, Note_on_c, 0, 78, 0
2, 64520, Note_on_c, 0, 70, 0
2, 64552, Note_on_c, 0, 50, 54
2, 64610, Note_on_c, 0, 50, 0
2, 64618, Note_on_c, 0, 73, 79
2, 64621, Note_on_c, 0, 76, 73
2, 64624, Note_on_c, 0, 52, 66
2, 64658, Note_on_c, 0, 52, 0
2, 64661, Note_on_c, 0, 76, 0
2, 64664, Note_on_c, 0, 73, 0
2, 64707, Note_on_c, 0, 54, 72
2, 64754, Note_on_c, 0, 54, 0
2, 64781, Note_on_c, 0, 55, 79
2, 64785, Note_on_c, 0, 74, 89
2, 64793, Note_on_c, 0, 71, 79
2, 64821, Note_on_c, 0, 55, 0
2, 64913, Note_on_c, 0, 71, 0
2, 64913, Note_on_c, 0, 71, 8
2, 64955, Note_on_c, 0, 74, 0
2, 64970, Note_on_c, 0, 54, 73
2, 64970, Note_on_c, 0, 71, 0
2, 64998, Note_on_c, 0, 54, 0
2, 65134, Note_on_c, 0, 79, 60
2, 65136, Note_on_c, 0, 81, 60
2, 65144, Note_on_c, 0, 52, 64
2, 65173, Note_on_c, 0, 52, 0
2, 65175, Note_on_c, 0, 81, 0
2, 65181, Note_on_c, 0, 79, 0
2, 65339, Note_on_c, 0, 74, 84
2, 65346, Note_on_c, 0, 54, 75
2, 65353, Note_on_c, 0, 71, 68
2, 65413, Control_c, 0, 64, 48
2, 65428, Control_c, 0, 64, 68
2, 65444, Control_c, 0, 64, 88
2, 65459, Control_c, 0, 64, 127
2, 65482, Note_on_c, 0, 71, 0
2, 65489, Note_on_c, 0, 74, 0
2, 65900, Note_on_c, 0, 70, 70
2, 65904, Note_on_c, 0, 74, 73
2, 65908, Control_c, 0, 64, 77
2, 65912, Note_on_c, 0, 42, 68
2, 65924, Control_c, 0, 64, 55
2, 65933, Note_on_c, 0, 74, 0
2, 65939, Control_c, 0, 64, 0
2, 65940, Note_on_c, 0, 73, 75
2, 65969, Note_on_c, 0, 73, 0
2, 66002, Note_on_c, 0, 74, 71
2, 66024, Note_on_c, 0, 73, 84
2, 66034, Note_on_c, 0, 74, 0
2, 66037, Note_on_c, 0, 42, 0
2, 66086, Note_on_c, 0, 71, 81
2, 66095, Note_on_c, 0, 73, 0
2, 66148, Note_on_c, 0, 71, 0
2, 66291, Note_on_c, 0, 73, 85
2, 66318, Note_on_c, 0, 70, 0
2, 66341, Note_on_c, 0, 73, 0
2, 66427, Note_on_c, 0, 54, 0
2, 66518, Note_on_c, 0, 71, 83
2, 66519, Note_on_c, 0, 47, 72
2, 66554, Control_c, 0, 64, 26
2, 66570, Control_c, 0, 64, 63
2, 66575, Note_on_c, 0, 71, 0
2, 66585, Control_c, 0, 64, 80
2, 66601, Control_c, 0, 64, 127
2, 66679, Note_on_c, 0, 47, 0
2, 66737, Control_c, 0, 64, 103
2, 66753, Control_c, 0, 64, 73
2, 66753, Note_on_c, 0, 74, 76
2, 66768, Control_c, 0, 64, 59
2, 66783, Control_c, 0, 64, 0
2, 66813, Note_on_c, 0, 74, 0
2, 66835, Note_on_c, 0, 73, 75
2, 66898, Note_on_c, 0, 73, 0
2, 66918, Note_on_c, 0, 54, 65
2, 66921, Note_on_c, 0, 71, 67
2, 66944, Note_on_c, 0, 54, 0
2, 66959, Note_on_c, 0, 71, 0
2, 66997, Note_on_c, 0, 69, 64
2, 67056, Note_on_c, 0, 69, 0
2, 67071, Note_on_c, 0, 67, 64
2, 67083, Note_on_c, 0, 59, 47
2, 67098, Note_on_c, 0, 67, 0
2, 67108, Note_on_c, 0, 59, 0
2, 67131, Note_on_c, 0, 58, 63
2, 67172, Note_on_c, 0, 58, 0
2, 67197, Note_on_c, 0, 59, 65
2, 67255, Note_on_c, 0, 71, 68
2, 67321, Note_on_c, 0, 71, 0
2, 67331, Note_on_c, 0, 69, 64
2, 67392, Note_on_c, 0, 69, 0
2, 67414, Note_on_c, 0, 67, 64
2, 67459, Note_on_c, 0, 67, 0
2, 67490, Note_on_c, 0, 66, 66
2, 67540, Note_on_c, 0, 66, 0
2, 67572, Note_on_c, 0, 64, 82
2, 67606, Note_on_c, 0, 64, 0
2, 67703, Note_on_c, 0, 59, 0
2, 67752, Note_on_c, 0, 60, 61
2, 67753, Note_on_c, 0, 67, 61
2, 67782, Note_on_c, 0, 67, 0
2, 67786, Note_on_c, 0, 60, 0
2, 67831, Note_on_c, 0, 59, 63
2, 67864, Note_on_c, 0, 59, 0
2, 67907, Note_on_c, 0, 57, 51
2, 67925, Note_on_c, 0, 72, 71
2, 67951, Note_on_c, 0, 57, 0
2, 67969, Note_on_c, 0, 72, 0
2, 67989, Note_on_c, 0, 55, 58
2, 68075, Note_on_c, 0, 55, 0
2, 68085, Note_on_c, 0, 54, 74
2, 68090, Note_on_c, 0, 72, 84
2, 68119, Note_on_c, 0, 54, 0
2, 68285, Note_on_c, 0, 55, 58
2, 68299, Note_on_c, 0, 69, 71
2, 68330, Note_on_c, 0, 55, 0
2, 68352, Note_on_c, 0, 54, 62
2, 68356, Note_on_c, 0, 69, 0
2, 68412, Note_on_c, 0, 54, 0
2, 68433, Note_on_c, 0, 52, 60
2, 68465, Note_on_c, 0, 66, 67
2, 68494, Note_on_c, 0, 52, 0
2, 68515, Note_on_c, 0, 66, 0
2, 68519, Note_on_c, 0, 50, 52
2, 68608, Note_on_c, 0, 55, 64
2, 68618, Note_on_c, 0, 50, 0
2, 68626, Note_on_c, 0, 62, 64
2, 68663, Note_on_c, 0, 62, 0
2, 68688, Note_on_c, 0, 55, 0
2, 68697, Note_on_c, 0, 57, 63
2, 68758, Note_on_c, 0, 57, 0
2, 68767, Note_on_c, 0, 72, 0
2, 68773, Note_on_c, 0, 59, 67
2, 68793, Note_on_c, 0, 67, 85
2, 68847, Note_on_c, 0, 59, 0
2, 68859, Note_on_c, 0, 55, 69
2, 68926, Note_on_c, 0, 55, 0
2, 68936, Note_on_c, 0, 54, 68
2, 68965, Note_on_c, 0, 71, 82
2, 69005, Note_on_c, 0, 54, 0
2, 69018, Note_on_c, 0, 55, 66
2, 69028, Note_on_c, 0, 71, 0
2, 69049, Note_on_c, 0, 67, 0
2, 69049, Note_on_c, 0, 67, 9
2, 69085, Note_on_c, 0, 55, 0
2, 69121, Note_on_c, 0, 67, 0
2, 69125, Note_on_c, 0, 49, 72
2, 69138, Note_on_c, 0, 71, 88
2, 69165, Note_on_c, 0, 49, 0
2, 69226, Note_on_c, 0, 69, 74
2, 69290, Note_on_c, 0, 71, 0
2, 69302, Note_on_c, 0, 52, 71
2, 69312, Note_on_c, 0, 67, 77
2, 69324, Note_on_c, 0, 69, 0
2, 69336, Note_on_c, 0, 52, 0
2, 69384, Note_on_c, 0, 66, 76
2, 69384, Note_on_c, 0, 67, 0
2, 69447, Note_on_c, 0, 66, 0
2, 69467, Note_on_c, 0, 64, 73
2, 69471, Note_on_c, 0, 49, 50
2, 69504, Note_on_c, 0, 49, 0
2, 69544, Note_on_c, 0, 64, 0
2, 69561, Note_on_c, 0, 62, 74
2, 69607, Note_on_c, 0, 62, 0
2, 69642, Note_on_c, 0, 54, 66
2, 69645, Note_on_c, 0, 61, 78
2, 69684, Note_on_c, 0, 61, 0
2, 69701, Note_on_c, 0, 54, 0
2, 69737, Note_on_c, 0, 55, 65
2, 69774, Note_on_c, 0, 55, 0
2, 69810, Note_on_c, 0, 57, 57
2, 69815, Note_on_c, 0, 66, 75
2, 69873, Note_on_c, 0, 57, 0
2, 69886, Note_on_c, 0, 54, 62
2, 69929, Note_on_c, 0, 54, 0
2, 69979, Note_on_c, 0, 52, 46
2, 69987, Note_on_c, 0, 69, 65
2, 70018, Note_on_c, 0, 52, 0
2, 70028, Note_on_c, 0, 69, 0
2, 70057, Note_on_c, 0, 54, 48
2, 70124, Note_on_c, 0, 54, 0
2, 70145, Note_on_c, 0, 66, 0
2, 70153, Note_on_c, 0, 69, 71
2, 70162, Note_on_c, 0, 47, 55
2, 70198, Note_on_c, 0, 47, 0
2, 70253, Note_on_c, 0, 67, 67
2, 70345, Note_on_c, 0, 67, 0
2, 70349, Note_on_c, 0, 66, 68
2, 70351, Note_on_c, 0, 50, 61
2, 70381, Note_on_c, 0, 50, 0
2, 70422, Note_on_c, 0, 64, 67
2, 70440, Note_on_c, 0, 66, 0
2, 70474, Note_on_c, 0, 64, 0
2, 70504, Note_on_c, 0, 62, 65
2, 70509, Note_on_c, 0, 47, 50
2, 70546, Note_on_c, 0, 47, 0
2, 70559, Note_on_c, 0, 62, 0
2, 70591, Note_on_c, 0, 61, 65
2, 70635, Note_on_c, 0, 61, 0
2, 70677, Note_on_c, 0, 59, 64
2, 70678, Note_on_c, 0, 52, 43
2, 70704, Note_on_c, 0, 59, 0
2, 70715, Note_on_c, 0, 52, 0
2, 70758, Note_on_c, 0, 54, 63
2, 70793, Note_on_c, 0, 69, 0
2, 70798, Note_on_c, 0, 54, 0
2, 70831, Note_on_c, 0, 55, 57
2, 70834, Note_on_c, 0, 64, 67
2, 70901, Note_on_c, 0, 55, 0
2, 70924, Note_on_c, 0, 52, 52
2, 70965, Note_on_c, 0, 52, 0
2, 71015, Note_on_c, 0, 50, 61
2, 71018, Note_on_c, 0, 67, 65
2, 71025, Note_on_c, 0, 64, 0
2, 71066, Note_on_c, 0, 50, 0
2, 71071, Note_on_c, 0, 67, 0
2, 71094, Note_on_c, 0, 52, 49
2, 71162, Note_on_c, 0, 52, 0
2, 71195, Note_on_c, 0, 67, 67
2, 71208, Note_on_c, 0, 45, 59
2, 71245, Note_on_c, 0, 45, 0
2, 71286, Note_on_c, 0, 66, 62
2, 71354, Note_on_c, 0, 66, 0
2, 71371, Note_on_c, 0, 49, 59
2, 71380, Note_on_c, 0, 64, 58
2, 71404, Note_on_c, 0, 49, 0
2, 71433, Note_on_c, 0, 64, 0
2, 71440, Note_on_c, 0, 67, 0
2, 71455, Note_on_c, 0, 62, 63
2, 71528, Note_on_c, 0, 62, 0
2, 71530, Note_on_c, 0, 45, 54
2, 71549, Note_on_c, 0, 61, 63
2, 71564, Note_on_c, 0, 45, 0
2, 71622, Note_on_c, 0, 61, 0
2, 71638, Note_on_c, 0, 59, 60
2, 71681, Note_on_c, 0, 59, 0
2, 71712, Note_on_c, 0, 50, 52
2, 71718, Note_on_c, 0, 57, 60
2, 71752, Note_on_c, 0, 57, 0
2, 71759, Note_on_c, 0, 50, 0
2, 71787, Note_on_c, 0, 52, 55
2, 71837, Note_on_c, 0, 52, 0
2, 71879, Note_on_c, 0, 54, 64
2, 71882, Note_on_c, 0, 62, 57
2, 71932, Note_on_c, 0, 54, 0
2, 71974, Note_on_c, 0, 50, 50
2, 72017, Note_on_c, 0, 50, 0
2, 72052, Note_on_c, 0, 49, 47
2, 72062, Note_on_c, 0, 66, 70
2, 72091, Note_on_c, 0, 49, 0
2, 72127, Note_on_c, 0, 50, 58
2, 72132, Note_on_c, 0, 66, 0
2, 72221, Note_on_c, 0, 47, 63
2, 72221, Note_on_c, 0, 50, 0
2, 72286, Note_on_c, 0, 47, 0
2, 72309, Note_on_c, 0, 48, 73
2, 72365, Note_on_c, 0, 48, 0
2, 72394, Note_on_c, 0, 50, 71
2, 72400, Note_on_c, 0, 66, 66
2, 72436, Note_on_c, 0, 66, 0
2, 72457, Note_on_c, 0, 50, 0
2, 72476, Note_on_c, 0, 47, 61
2, 72520, Note_on_c, 0, 47, 0
2, 72567, Note_on_c, 0, 45, 56
2, 72583, Note_on_c, 0, 72, 71
2, 72616, Note_on_c, 0, 45, 0
2, 72628, Note_on_c, 0, 72, 0
2, 72650, Note_on_c, 0, 47, 54
2, 72707, Note_on_c, 0, 47, 0
2, 72744, Note_on_c, 0, 43, 60
2, 72745, Note_on_c, 0, 71, 81
2, 72818, Note_on_c, 0, 43, 0
2, 72828, Note_on_c, 0, 45, 61
2, 72900, Note_on_c, 0, 45, 0
2, 72906, Note_on_c, 0, 47, 71
2, 72916, Note_on_c, 0, 67, 75
2, 72928, Note_on_c, 0, 71, 0
2, 72946, Note_on_c, 0, 62, 0
2, 72965, Note_on_c, 0, 47, 0
2, 72999, Note_on_c, 0, 66, 75
2, 73001, Note_on_c, 0, 45, 71
2, 73014, Note_on_c, 0, 67, 0
2, 73057, Note_on_c, 0, 45, 0
2, 73077, Note_on_c, 0, 43, 66
2, 73082, Note_on_c, 0, 64, 73
2, 73097, Note_on_c, 0, 66, 0
2, 73132, Note_on_c, 0, 43, 0
2, 73154, Note_on_c, 0, 42, 62
2, 73158, Note_on_c, 0, 64, 0
2, 73162, Note_on_c, 0, 62, 69
2, 73214, Note_on_c, 0, 42, 0
2, 73238, Note_on_c, 0, 40, 66
2, 73246, Note_on_c, 0, 62, 0
2, 73253, Note_on_c, 0, 67, 80
2, 73294, Note_on_c, 0, 67, 0
2, 73319, Note_on_c, 0, 40, 0
2, 73341, Note_on_c, 0, 42, 57
2, 73389, Note_on_c, 0, 42, 0
2, 73411, Note_on_c, 0, 43, 58
2, 73433, Note_on_c, 0, 73, 75
2, 73440, Note_on_c, 0, 64, 55
2, 73464, Note_on_c, 0, 43, 0
2, 73473, Note_on_c, 0, 73, 0
2, 73476, Note_on_c, 0, 64, 0
2, 73479, Note_on_c, 0, 42, 63
2, 73546, Note_on_c, 0, 42, 0
2, 73572, Note_on_c, 0, 40, 56
2, 73612, Note_on_c, 0, 66, 64
2, 73614, Note_on_c, 0, 74, 70
2, 73672, Note_on_c, 0, 40, 0
2, 73677, Note_on_c, 0, 38, 64
2, 73782, Note_on_c, 0, 45, 65
2, 73795, Note_on_c, 0, 38, 0
2, 73916, Note_on_c, 0, 74, 0
2, 73956, Note_on_c, 0, 66, 0
2, 73979, Note_on_c, 0, 71, 73
2, 73981, Note_on_c, 0, 62, 54
2, 74009, Note_on_c, 0, 62, 0
2, 74035, Note_on_c, 0, 71, 0
2, 74152, Note_on_c, 0, 73, 86
2, 74165, Note_on_c, 0, 64, 66
2, 74197, Note_on_c, 0, 64, 0
2, 74218, Note_on_c, 0, 73, 0
2, 74332, Note_on_c, 0, 76, 81
2, 74340, Note_on_c, 0, 67, 70
2, 74406, Note_on_c, 0, 45, 0
2, 74409, Note_on_c, 0, 44, 63
2, 74505, Note_on_c, 0, 46, 68
2, 74522, Note_on_c, 0, 44, 0
2, 74553, Note_on_c, 0, 46, 0
2, 74571, Note_on_c, 0, 47, 76
2, 74666, Note_on_c, 0, 49, 74
2, 74667, Note_on_c, 0, 47, 0
2, 74745, Note_on_c, 0, 49, 0
2, 74753, Note_on_c, 0, 46, 77
2, 74854, Note_on_c, 0, 47, 78
2, 74907, Note_on_c, 0, 46, 0
2, 74925, Note_on_c, 0, 76, 0
2, 74980, Note_on_c, 0, 67, 0
2, 75034, Note_on_c, 0, 73, 85
2, 75047, Note_on_c, 0, 64, 60
2, 75087, Note_on_c, 0, 64, 0
2, 75090, Note_on_c, 0, 73, 0
2, 75207, Note_on_c, 0, 74, 92
2, 75219, Note_on_c, 0, 66, 80
2, 75253, Note_on_c, 0, 66, 0
2, 75280, Note_on_c, 0, 74, 0
2, 75387, Note_on_c, 0, 79, 94
2, 75399, Note_on_c, 0, 71, 81
2, 75468, Note_on_c, 0, 47, 0
2, 75472, Note_on_c, 0, 45, 68
2, 75558, Note_on_c, 0, 47, 78
2, 75569, Note_on_c, 0, 45, 0
2, 75623, Note_on_c, 0, 47, 0
2, 75644, Note_on_c, 0, 50, 76
2, 75737, Note_on_c, 0, 49, 76
2, 75751, Note_on_c, 0, 50, 0
2, 75829, Note_on_c, 0, 49, 0
2, 75835, Note_on_c, 0, 52, 76
2, 75927, Note_on_c, 0, 50, 82
2, 75928, Note_on_c, 0, 52, 0
2, 76032, Note_on_c, 0, 79, 0
2, 76106, Note_on_c, 0, 78, 82
2, 76107, Note_on_c, 0, 71, 0
2, 76116, Note_on_c, 0, 69, 66
2, 76152, Note_on_c, 0, 69, 0
2, 76164, Note_on_c, 0, 78, 0
2, 76275, Note_on_c, 0, 76, 80
2, 76288, Note_on_c, 0, 67, 58
2, 76315, Note_on_c, 0, 67, 0
2, 76339, Note_on_c, 0, 76, 0
2, 76456, Note_on_c, 0, 78, 90
2, 76465, Note_on_c, 0, 69, 63
2, 76508, Note_on_c, 0, 79, 27
2, 76533, Note_on_c, 0, 79, 0
2, 76548, Note_on_c, 0, 50, 0
2, 76558, Note_on_c, 0, 52, 63
2, 76618, Note_on_c, 0, 52, 0
2, 76646, Note_on_c, 0, 50, 68
2, 76702, Note_on_c, 0, 50, 0
2, 76731, Note_on_c, 0, 48, 64
2, 76798, Note_on_c, 0, 48, 0
2, 76814, Note_on_c, 0, 47, 64
2, 76880, Note_on_c, 0, 47, 0
2, 76900, Note_on_c, 0, 45, 57
2, 76975, Note_on_c, 0, 45, 0
2, 76978, Note_on_c, 0, 43, 69
2, 77001, Note_on_c, 0, 78, 0
2, 77003, Note_on_c, 0, 69, 0
2, 77069, Note_on_c, 0, 43, 0
2, 77075, Note_on_c, 0, 50, 67
2, 77120, Note_on_c, 0, 50, 0
2, 77160, Note_on_c, 0, 52, 68
2, 77171, Note_on_c, 0, 76, 77
2, 77187, Note_on_c, 0, 67, 49
2, 77214, Note_on_c, 0, 67, 0
2, 77225, Note_on_c, 0, 76, 0
2, 77233, Note_on_c, 0, 52, 0
2, 77248, Note_on_c, 0, 54, 70
2, 77335, Note_on_c, 0, 54, 0
2, 77338, Note_on_c, 0, 55, 70
2, 77343, Note_on_c, 0, 74, 78
2, 77354, Note_on_c, 0, 66, 67
2, 77391, Note_on_c, 0, 55, 0
2, 77398, Note_on_c, 0, 66, 0
2, 77404, Note_on_c, 0, 74, 0
2, 77432, Note_on_c, 0, 57, 66
2, 77515, Note_on_c, 0, 76, 80
2, 77522, Note_on_c, 0, 58, 68
2, 77525, Note_on_c, 0, 57, 0
2, 77527, Note_on_c, 0, 67, 57
2, 77565, Note_on_c, 0, 67, 0
2, 77569, Note_on_c, 0, 76, 0
2, 77701, Note_on_c, 0, 73, 80
2, 77703, Note_on_c, 0, 64, 60
2, 77741, Note_on_c, 0, 64, 0
2, 77745, Note_on_c, 0, 73, 0
2, 77878, Note_on_c, 0, 66, 74
2, 77878, Note_on_c, 0, 74, 72
2, 77933, Note_on_c, 0, 74, 0
2, 77934, Note_on_c, 0, 66, 0
2, 78091, Note_on_c, 0, 74, 66
2, 78097, Note_on_c, 0, 64, 60
2, 78126, Note_on_c, 0, 74, 0
2, 78136, Note_on_c, 0, 73, 71
2, 78145, Note_on_c, 0, 58, 0
2, 78166, Note_on_c, 0, 57, 59
2, 78175, Note_on_c, 0, 73, 0
2, 78189, Note_on_c, 0, 74, 71
2, 78223, Note_on_c, 0, 57, 0
2, 78251, Note_on_c, 0, 74, 0
2, 78261, Note_on_c, 0, 73, 70
2, 78271, Note_on_c, 0, 58, 52
2, 78313, Note_on_c, 0, 58, 0
2, 78342, Note_on_c, 0, 55, 61
2, 78356, Note_on_c, 0, 73, 0
2, 78397, Note_on_c, 0, 55, 0
2, 78427, Note_on_c, 0, 52, 56
2, 78506, Note_on_c, 0, 52, 0
2, 78520, Note_on_c, 0, 55, 58
2, 78529, Note_on_c, 0, 64, 0
2, 78560, Note_on_c, 0, 55, 0
2, 78597, Note_on_c, 0, 57, 55
2, 78610, Note_on_c, 0, 65, 59
2, 78647, Note_on_c, 0, 57, 0
2, 78659, Note_on_c, 0, 65, 0
2, 78684, Note_on_c, 0, 55, 50
2, 78713, Note_on_c, 0, 64, 52
2, 78744, Note_on_c, 0, 55, 0
2, 78762, Note_on_c, 0, 64, 0
2, 78787, Note_on_c, 0, 57, 46
2, 78798, Note_on_c, 0, 65, 55
2, 78832, Note_on_c, 0, 57, 0
2, 78838, Note_on_c, 0, 65, 0
2, 78862, Note_on_c, 0, 53, 35
2, 78874, Note_on_c, 0, 62, 55
2, 78921, Note_on_c, 0, 53, 0
2, 78936, Note_on_c, 0, 62, 0
2, 78953, Note_on_c, 0, 50, 50
2, 78955, Note_on_c, 0, 69, 56
2, 78999, Note_on_c, 0, 69, 0
2, 79021, Note_on_c, 0, 50, 0
2, 79034, Note_on_c, 0, 65, 54
2, 79043, Note_on_c, 0, 53, 52
2, 79096, Note_on_c, 0, 53, 0
2, 79120, Note_on_c, 0, 70, 66
2, 79137, Note_on_c, 0, 55, 51
2, 79183, Note_on_c, 0, 55, 0
2, 79214, Note_on_c, 0, 53, 53
2, 79265, Note_on_c, 0, 53, 0
2, 79269, Note_on_c, 0, 65, 0
2, 79293, Note_on_c, 0, 55, 54
2, 79301, Note_on_c, 0, 64, 60
2, 79334, Note_on_c, 0, 64, 0
2, 79338, Note_on_c, 0, 55, 0
2, 79366, Note_on_c, 0, 52, 57
2, 79442, Note_on_c, 0, 52, 0
2, 79478, Note_on_c, 0, 49, 56
2, 79484, Note_on_c, 0, 70, 0
2, 79489, Note_on_c, 0, 67, 72
2, 79545, Note_on_c, 0, 49, 0
2, 79570, Note_on_c, 0, 52, 56
2, 79614, Note_on_c, 0, 52, 0
2, 79652, Note_on_c, 0, 53, 61
2, 79657, Note_on_c, 0, 69, 72
2, 79713, Note_on_c, 0, 53, 0
2, 79713, Note_on_c, 0, 67, 0
2, 79736, Note_on_c, 0, 52, 65
2, 79798, Note_on_c, 0, 52, 0
2, 79826, Note_on_c, 0, 53, 66
2, 79847, Note_on_c, 0, 61, 66
2, 79891, Note_on_c, 0, 61, 0
2, 79894, Note_on_c, 0, 53, 0
2, 79905, Note_on_c, 0, 50, 74
2, 79979, Note_on_c, 0, 50, 0
2, 80005, Note_on_c, 0, 47, 61
2, 80010, Note_on_c, 0, 62, 73
2, 80016, Note_on_c, 0, 69, 0
2, 80076, Note_on_c, 0, 47, 0
2, 80083, Note_on_c, 0, 50, 68
2, 80151, Note_on_c, 0, 50, 0
2, 80174, Note_on_c, 0, 52, 72
2, 80175, Note_on_c, 0, 67, 81
2, 80249, Note_on_c, 0, 52, 0
2, 80265, Note_on_c, 0, 50, 73
2, 80340, Note_on_c, 0, 62, 0
2, 80356, Note_on_c, 0, 61, 61
2, 80375, Note_on_c, 0, 50, 0
2, 80392, Note_on_c, 0, 49, 67
2, 80399, Note_on_c, 0, 61, 0
2, 80466, Note_on_c, 0, 49, 0
2, 80489, Control_c, 0, 64, 44
2, 80506, Control_c, 0, 64, 53
2, 80518, Note_on_c, 0, 67, 0
2, 80521, Control_c, 0, 64, 58
2, 80535, Note_on_c, 0, 64, 72
2, 80537, Control_c, 0, 64, 63
2, 80537, Note_on_c, 0, 45, 72
2, 80551, Control_c, 0, 64, 66
2, 80566, Control_c, 0, 64, 66
2, 80612, Control_c, 0, 64, 65
2, 80627, Control_c, 0, 64, 62
2, 80628, Note_on_c, 0, 45, 0
2, 80634, Note_on_c, 0, 49, 58
2, 80642, Control_c, 0, 64, 54
2, 80658, Control_c, 0, 64, 41
2, 80671, Control_c, 0, 64, 31
2, 80686, Control_c, 0, 64, 0
2, 80708, Note_on_c, 0, 49, 0
2, 80718, Note_on_c, 0, 65, 75
2, 80728, Note_on_c, 0, 50, 60
2, 80769, Note_on_c, 0, 64, 0
2, 80782, Note_on_c, 0, 50, 0
2, 80791, Note_on_c, 0, 49, 65
2, 80857, Note_on_c, 0, 49, 0
2, 80870, Note_on_c, 0, 50, 69
2, 80897, Note_on_c, 0, 57, 67
2, 80944, Note_on_c, 0, 50, 0
2, 80964, Note_on_c, 0, 57, 0
2, 80965, Note_on_c, 0, 53, 72
2, 81030, Note_on_c, 0, 53, 0
2, 81062, Note_on_c, 0, 46, 70
2, 81062, Note_on_c, 0, 62, 79
2, 81064, Note_on_c, 0, 65, 0
2, 81105, Note_on_c, 0, 46, 0
2, 81158, Note_on_c, 0, 50, 68
2, 81196, Note_on_c, 0, 50, 0
2, 81240, Note_on_c, 0, 44, 60
2, 81240, Note_on_c, 0, 62, 0
2, 81249, Note_on_c, 0, 59, 69
2, 81285, Note_on_c, 0, 44, 0
2, 81326, Note_on_c, 0, 59, 0
2, 81329, Note_on_c, 0, 45, 59
2, 81345, Note_on_c, 0, 64, 74
2, 81374, Note_on_c, 0, 45, 0
2, 81387, Note_on_c, 0, 44, 67
2, 81420, Note_on_c, 0, 64, 0
2, 81427, Note_on_c, 0, 62, 78
2, 81433, Note_on_c, 0, 44, 0
2, 81458, Note_on_c, 0, 45, 74
2, 81494, Note_on_c, 0, 62, 0
2, 81507, Note_on_c, 0, 61, 77
2, 81509, Note_on_c, 0, 45, 0
2, 81516, Note_on_c, 0, 44, 70
2, 81554, Note_on_c, 0, 44, 0
2, 81571, Note_on_c, 0, 45, 75
2, 81575, Note_on_c, 0, 61, 0
2, 81586, Note_on_c, 0, 62, 86
2, 81629, Note_on_c, 0, 44, 70
2, 81631, Note_on_c, 0, 45, 0
2, 81669, Note_on_c, 0, 65, 83
2, 81676, Note_on_c, 0, 62, 0
2, 81679, Note_on_c, 0, 44, 0
2, 81696, Note_on_c, 0, 45, 73
2, 81746, Note_on_c, 0, 71, 90
2, 81748, Note_on_c, 0, 45, 0
2, 81748, Note_on_c, 0, 65, 0
2, 81754, Note_on_c, 0, 44, 67
2, 81804, Note_on_c, 0, 44, 0
2, 81824, Note_on_c, 0, 45, 75
2, 81847, Note_on_c, 0, 65, 85
2, 81864, Note_on_c, 0, 71, 0
2, 81878, Note_on_c, 0, 45, 0
2, 81881, Note_on_c, 0, 44, 72
2, 81922, Note_on_c, 0, 44, 0
2, 81929, Note_on_c, 0, 64, 87
2, 81944, Note_on_c, 0, 45, 76
2, 81944, Note_on_c, 0, 65, 0
2, 81997, Note_on_c, 0, 64, 0
2, 82003, Note_on_c, 0, 45, 0
2, 82005, Note_on_c, 0, 44, 72
2, 82009, Note_on_c, 0, 62, 86
2, 82049, Note_on_c, 0, 44, 0
2, 82063, Note_on_c, 0, 45, 75
2, 82095, Note_on_c, 0, 61, 88
2, 82122, Note_on_c, 0, 62, 0
2, 82136, Note_on_c, 0, 44, 79
2, 82136, Note_on_c, 0, 45, 0
2, 82177, Note_on_c, 0, 59, 77
2, 82184, Note_on_c, 0, 61, 0
2, 82201, Note_on_c, 0, 44, 0
2, 82224, Note_on_c, 0, 45, 48
2, 82250, Note_on_c, 0, 45, 0
2, 82268, Note_on_c, 0, 61, 90
2, 82269, Note_on_c, 0, 44, 48
2, 82291, Note_on_c, 0, 45, 87
2, 82301, Note_on_c, 0, 44, 0
2, 82313, Note_on_c, 0, 59, 0
2, 82339, Control_c, 0, 64, 30
2, 82340, Note_on_c, 0, 61, 0
2, 82352, Note_on_c, 0, 57, 76
2, 82354, Control_c, 0, 64, 38
2, 82369, Control_c, 0, 64, 45
2, 82384, Control_c, 0, 64, 49
2, 82400, Control_c, 0, 64, 50
2, 82431, Control_c, 0, 64, 50
2, 82446, Control_c, 0, 64, 45
2, 82454, Note_on_c, 0, 55, 82
2, 82461, Control_c, 0, 64, 36
2, 82472, Note_on_c, 0, 57, 0
2, 82477, Control_c, 0, 64, 0
2, 82500, Note_on_c, 0, 45, 0
2, 82543, Note_on_c, 0, 54, 86
2, 82562, Note_on_c, 0, 55, 0
2, 82633, Note_on_c, 0, 52, 85
2, 82656, Note_on_c, 0, 54, 0
2, 82702, Note_on_c, 0, 52, 0
2, 82712, Note_on_c, 0, 50, 83
2, 82795, Note_on_c, 0, 49, 89
2, 82812, Note_on_c, 0, 50, 0
2, 82871, Note_on_c, 0, 49, 0
2, 82880, Note_on_c, 0, 47, 78
2, 82951, Note_on_c, 0, 47, 0
2, 82963, Note_on_c, 0, 45, 84
2, 83054, Note_on_c, 0, 43, 80
2, 83057, Note_on_c, 0, 45, 0
2, 83122, Note_on_c, 0, 42, 79
2, 83127, Note_on_c, 0, 43, 0
2, 83204, Note_on_c, 0, 40, 74
2, 83210, Note_on_c, 0, 42, 0
2, 83318, Note_on_c, 0, 38, 78
2, 83321, Note_on_c, 0, 40, 0
2, 83517, Note_on_c, 0, 50, 65
2, 83555, Note_on_c, 0, 50, 0
2, 83595, Note_on_c, 0, 52, 66
2, 83672, Note_on_c, 0, 52, 0
2, 83675, Note_on_c, 0, 54, 76
2, 83733, Note_on_c, 0, 54, 0
2, 83755, Note_on_c, 0, 38, 0
2, 83755, Note_on_c, 0, 55, 77
2, 83837, Note_on_c, 0, 55, 0
2, 83840, Note_on_c, 0, 57, 76
2, 83894, Note_on_c, 0, 57, 0
2, 84011, Note_on_c, 0, 54, 77
2, 84073, Note_on_c, 0, 54, 0
2, 84192, Note_on_c, 0, 57, 70
2, 84244, Note_on_c, 0, 57, 0
2, 84357, Note_on_c, 0, 62, 78
2, 84419, Note_on_c, 0, 62, 0
2, 84513, Note_on_c, 0, 57, 78
2, 84569, Note_on_c, 0, 57, 0
2, 84669, Note_on_c, 0, 62, 80
2, 84733, Note_on_c, 0, 62, 0
2, 84843, Note_on_c, 0, 66, 87
2, 84911, Note_on_c, 0, 66, 0
2, 85014, Note_on_c, 0, 62, 82
2, 85075, Note_on_c, 0, 62, 0
2, 85173, Note_on_c, 0, 66, 83
2, 85238, Note_on_c, 0, 66, 0
2, 85356, Note_on_c, 0, 69, 84
2, 85488, Control_c, 0, 64, 48
2, 85503, Control_c, 0, 64, 61
2, 85519, Control_c, 0, 64, 68
2, 85533, Control_c, 0, 64, 80
2, 85548, Control_c, 0, 64, 127
2, 85575, Note_on_c, 0, 69, 0
2, 85921, Note_on_c, 0, 78, 86
2, 85925, Note_on_c, 0, 69, 73
2, 85929, Note_on_c, 0, 50, 62
2, 85935, Control_c, 0, 64, 88
2, 85951, Control_c, 0, 64, 70
2, 85966, Control_c, 0, 64, 58
2, 85981, Control_c, 0, 64, 0
2, 86057, Control_c, 0, 64, 52
2, 86072, Control_c, 0, 64, 64
2, 86087, Control_c, 0, 64, 71
2, 86102, Control_c, 0, 64, 85
2, 86118, Control_c, 0, 64, 99
2, 86133, Control_c, 0, 64, 115
2, 86136, Note_on_c, 0, 69, 0
2, 86141, Note_on_c, 0, 78, 0
2, 86148, Control_c, 0, 64, 127
2, 86164, Note_on_c, 0, 50, 0
2, 86415, Control_c, 0, 64, 111
2, 86431, Control_c, 0, 64, 97
2, 86446, Control_c, 0, 64, 85
2, 86460, Control_c, 0, 64, 73
2, 86461, Note_on_c, 0, 78, 83
2, 86469, Note_on_c, 0, 69, 79
2, 86472, Note_on_c, 0, 57, 63
2, 86476, Control_c, 0, 64, 64
2, 86491, Control_c, 0, 64, 49
2, 86505, Control_c, 0, 64, 0
2, 86732, Note_on_c, 0, 69, 0
2, 86746, Note_on_c, 0, 76, 72
2, 86747, Note_on_c, 0, 67, 58
2, 86756, Note_on_c, 0, 78, 0
2, 86883, Note_on_c, 0, 76, 0
2, 86913, Note_on_c, 0, 67, 0
2, 87010, Note_on_c, 0, 45, 55
2, 87010, Note_on_c, 0, 57, 0
2, 87016, Note_on_c, 0, 76, 79
2, 87034, Note_on_c, 0, 67, 64
2, 87269, Note_on_c, 0, 67, 0
2, 87300, Note_on_c, 0, 66, 57
2, 87300, Note_on_c, 0, 74, 71
2, 87302, Note_on_c, 0, 76, 0
2, 87455, Note_on_c, 0, 74, 0
2, 87475, Note_on_c, 0, 66, 0
2, 87572, Note_on_c, 0, 50, 47
2, 87585, Note_on_c, 0, 74, 69
2, 87600, Note_on_c, 0, 45, 0
2, 87601, Note_on_c, 0, 66, 62
2, 87609, Control_c, 0, 64, 44
2, 87623, Control_c, 0, 64, 63
2, 87639, Control_c, 0, 64, 72
2, 87654, Control_c, 0, 64, 90
2, 87660, Note_on_c, 0, 74, 0
2, 87669, Control_c, 0, 64, 127
2, 87730, Note_on_c, 0, 66, 0
2, 87769, Note_on_c, 0, 50, 0
2, 87775, Control_c, 0, 64, 105
2, 87791, Control_c, 0, 64, 74
2, 87794, Note_on_c, 0, 62, 59
2, 87806, Control_c, 0, 64, 62
2, 87821, Control_c, 0, 64, 0
2, 87823, Note_on_c, 0, 62, 0
2, 87871, Note_on_c, 0, 64, 61
2, 87936, Note_on_c, 0, 64, 0
2, 87956, Note_on_c, 0, 66, 62
2, 88002, Note_on_c, 0, 66, 0
2, 88032, Note_on_c, 0, 67, 74
2, 88094, Note_on_c, 0, 67, 0
2, 88114, Note_on_c, 0, 69, 77
2, 88158, Note_on_c, 0, 69, 0
2, 88284, Note_on_c, 0, 60, 65
2, 88288, Note_on_c, 0, 66, 78
2, 88330, Note_on_c, 0, 66, 0
2, 88340, Note_on_c, 0, 60, 0
2, 88361, Note_on_c, 0, 59, 71
2, 88423, Note_on_c, 0, 59, 0
2, 88432, Note_on_c, 0, 57, 73
2, 88453, Note_on_c, 0, 69, 80
2, 88496, Note_on_c, 0, 57, 0
2, 88512, Note_on_c, 0, 69, 0
2, 88521, Note_on_c, 0, 55, 67
2, 88599, Note_on_c, 0, 54, 77
2, 88601, Note_on_c, 0, 55, 0
2, 88615, Note_on_c, 0, 72, 83
2, 88646, Note_on_c, 0, 54, 0
2, 88685, Note_on_c, 0, 72, 0
2, 88783, Note_on_c, 0, 57, 73
2, 88786, Note_on_c, 0, 69, 79
2, 88826, Note_on_c, 0, 57, 0
2, 88845, Note_on_c, 0, 69, 0
2, 88947, Note_on_c, 0, 54, 80
2, 88952, Note_on_c, 0, 72, 83
2, 89002, Note_on_c, 0, 54, 0
2, 89018, Note_on_c, 0, 72, 0
2, 89117, Note_on_c, 0, 50, 73
2, 89117, Note_on_c, 0, 78, 87
2, 89179, Note_on_c, 0, 50, 0
2, 89194, Note_on_c, 0, 78, 0
2, 89277, Note_on_c, 0, 54, 83
2, 89279, Note_on_c, 0, 72, 91
2, 89329, Note_on_c, 0, 54, 0
2, 89339, Note_on_c, 0, 72, 0
2, 89438, Note_on_c, 0, 78, 95
2, 89447, Note_on_c, 0, 50, 76
2, 89494, Note_on_c, 0, 50, 0
2, 89520, Note_on_c, 0, 78, 0
2, 89607, Note_on_c, 0, 45, 80
2, 89609, Note_on_c, 0, 81, 85
2, 89662, Note_on_c, 0, 45, 0
2, 89785, Note_on_c, 0, 50, 84
2, 89826, Note_on_c, 0, 50, 0
2, 89847, Note_on_c, 0, 81, 0
2, 89955, Note_on_c, 0, 45, 78
2, 89992, Note_on_c, 0, 45, 0
2, 90130, Note_on_c, 0, 42, 73
2, 90130, Note_on_c, 0, 74, 79
2, 90133, Note_on_c, 0, 69, 67
2, 90173, Note_on_c, 0, 42, 0
2, 90180, Note_on_c, 0, 74, 0
2, 90187, Note_on_c, 0, 72, 70
2, 90238, Note_on_c, 0, 72, 0
2, 90264, Note_on_c, 0, 74, 67
2, 90270, Note_on_c, 0, 69, 0
2, 90270, Note_on_c, 0, 69, 12
2, 90298, Note_on_c, 0, 45, 60
2, 90310, Note_on_c, 0, 74, 0
2, 90321, Note_on_c, 0, 72, 66
2, 90333, Note_on_c, 0, 45, 0
2, 90472, Note_on_c, 0, 42, 68
2, 90498, Note_on_c, 0, 72, 0
2, 90513, Note_on_c, 0, 42, 0
2, 90534, Note_on_c, 0, 69, 0
2, 90659, Note_on_c, 0, 38, 56
2, 90660, Note_on_c, 0, 69, 64
2, 90660, Note_on_c, 0, 72, 75
2, 90952, Note_on_c, 0, 72, 0
2, 90955, Note_on_c, 0, 71, 78
2, 90956, Note_on_c, 0, 69, 0
2, 90966, Note_on_c, 0, 67, 49
2, 91111, Note_on_c, 0, 71, 0
2, 91152, Note_on_c, 0, 67, 0
2, 91224, Note_on_c, 0, 38, 0
2, 91243, Note_on_c, 0, 71, 70
2, 91256, Note_on_c, 0, 67, 60
2, 91257, Note_on_c, 0, 50, 46
2, 91514, Note_on_c, 0, 71, 0
2, 91534, Note_on_c, 0, 67, 0
2, 91549, Note_on_c, 0, 66, 54
2, 91554, Note_on_c, 0, 69, 63
2, 91822, Note_on_c, 0, 66, 0
2, 91835, Note_on_c, 0, 71, 68
2, 91838, Note_on_c, 0, 69, 0
2, 91840, Note_on_c, 0, 67, 54
2, 91852, Note_on_c, 0, 43, 43
2, 91856, Note_on_c, 0, 50, 0
2, 91875, Note_on_c, 0, 71, 0
2, 91878, Note_on_c, 0, 67, 0
2, 91896, Control_c, 0, 64, 31
2, 91912, Control_c, 0, 64, 64
2, 91927, Control_c, 0, 64, 75
2, 91941, Control_c, 0, 64, 97
2, 91958, Control_c, 0, 64, 127
2, 92046, Note_on_c, 0, 43, 0
2, 92064, Control_c, 0, 64, 90
2, 92077, Note_on_c, 0, 83, 82
2, 92080, Control_c, 0, 64, 69
2, 92095, Control_c, 0, 64, 46
2, 92109, Control_c, 0, 64, 0
2, 92153, Note_on_c, 0, 81, 80
2, 92162, Note_on_c, 0, 83, 0
2, 92233, Note_on_c, 0, 79, 85
2, 92237, Note_on_c, 0, 81, 0
2, 92246, Note_on_c, 0, 50, 73
2, 92275, Note_on_c, 0, 50, 0
2, 92318, Note_on_c, 0, 78, 86
2, 92325, Note_on_c, 0, 79, 0
2, 92395, Note_on_c, 0, 78, 0
2, 92405, Note_on_c, 0, 55, 78
2, 92406, Note_on_c, 0, 76, 84
2, 92460, Note_on_c, 0, 76, 0
2, 92562, Note_on_c, 0, 55, 0
2, 92594, Note_on_c, 0, 79, 86
2, 92655, Note_on_c, 0, 79, 0
2, 92759, Note_on_c, 0, 55, 67
2, 92773, Note_on_c, 0, 76, 75
2, 92796, Note_on_c, 0, 55, 0
2, 92819, Note_on_c, 0, 76, 0
2, 92908, Control_c, 0, 64, 23
2, 92920, Note_on_c, 0, 55, 55
2, 92924, Control_c, 0, 64, 62
2, 92936, Note_on_c, 0, 73, 72
2, 92938, Control_c, 0, 64, 71
2, 92954, Control_c, 0, 64, 88
2, 92957, Note_on_c, 0, 55, 0
2, 92964, Note_on_c, 0, 54, 66
2, 92969, Control_c, 0, 64, 127
2, 92972, Note_on_c, 0, 73, 0
2, 93009, Note_on_c, 0, 54, 0
2, 93024, Note_on_c, 0, 55, 70
2, 93046, Control_c, 0, 64, 94
2, 93060, Control_c, 0, 64, 72
2, 93076, Control_c, 0, 64, 52
2, 93091, Control_c, 0, 64, 0
2, 93123, Note_on_c, 0, 57, 67
2, 93149, Note_on_c, 0, 55, 0
2, 93171, Note_on_c, 0, 57, 0
2, 93202, Note_on_c, 0, 59, 68
2, 93269, Note_on_c, 0, 59, 0
2, 93277, Note_on_c, 0, 61, 71
2, 93343, Note_on_c, 0, 61, 0
2, 93363, Note_on_c, 0, 62, 76
2, 93432, Note_on_c, 0, 62, 0
2, 93456, Note_on_c, 0, 64, 77
2, 93492, Note_on_c, 0, 64, 0
2, 93630, Note_on_c, 0, 45, 67
2, 93636, Note_on_c, 0, 61, 75
2, 93683, Note_on_c, 0, 61, 0
2, 93687, Note_on_c, 0, 45, 0
2, 93717, Note_on_c, 0, 43, 67
2, 93766, Note_on_c, 0, 43, 0
2, 93783, Note_on_c, 0, 42, 67
2, 93807, Note_on_c, 0, 64, 65
2, 93854, Note_on_c, 0, 42, 0
2, 93860, Note_on_c, 0, 64, 0
2, 93883, Note_on_c, 0, 40, 67
2, 93958, Note_on_c, 0, 69, 60
2, 93969, Note_on_c, 0, 40, 0
2, 93977, Note_on_c, 0, 42, 77
2, 93984, Note_on_c, 0, 69, 0
2, 93996, Control_c, 0, 64, 37
2, 94011, Control_c, 0, 64, 57
2, 94025, Control_c, 0, 64, 65
2, 94041, Control_c, 0, 64, 71
2, 94063, Control_c, 0, 64, 80
2, 94079, Control_c, 0, 64, 93
2, 94094, Control_c, 0, 64, 127
2, 94159, Note_on_c, 0, 42, 0
2, 94171, Control_c, 0, 64, 108
2, 94180, Note_on_c, 0, 81, 73
2, 94185, Control_c, 0, 64, 82
2, 94201, Control_c, 0, 64, 67
2, 94216, Control_c, 0, 64, 45
2, 94230, Control_c, 0, 64, 0
2, 94260, Note_on_c, 0, 79, 81
2, 94270, Note_on_c, 0, 81, 0
2, 94341, Note_on_c, 0, 54, 72
2, 94341, Note_on_c, 0, 79, 0
2, 94348, Note_on_c, 0, 78, 75
2, 94378, Note_on_c, 0, 54, 0
2, 94436, Note_on_c, 0, 78, 0
2, 94440, Note_on_c, 0, 76, 71
2, 94493, Note_on_c, 0, 76, 0
2, 94522, Note_on_c, 0, 74, 80
2, 94524, Note_on_c, 0, 54, 69
2, 94582, Note_on_c, 0, 74, 0
2, 94679, Note_on_c, 0, 54, 0
2, 94705, Note_on_c, 0, 78, 79
2, 94770, Note_on_c, 0, 78, 0
2, 94883, Note_on_c, 0, 54, 60
2, 94895, Note_on_c, 0, 74, 68
2, 94923, Note_on_c, 0, 54, 0
2, 94936, Note_on_c, 0, 74, 0
2, 95045, Control_c, 0, 64, 24
2, 95055, Note_on_c, 0, 54, 53
2, 95060, Control_c, 0, 64, 51
2, 95061, Note_on_c, 0, 71, 66
2, 95075, Control_c, 0, 64, 60
2, 95090, Control_c, 0, 64, 68
2, 95097, Note_on_c, 0, 71, 0
2, 95105, Control_c, 0, 64, 78
2, 95121, Control_c, 0, 64, 94
2, 95136, Control_c, 0, 64, 127
2, 95244, Control_c, 0, 64, 105
2, 95258, Control_c, 0, 64, 89
2, 95262, Note_on_c, 0, 54, 0
2, 95262, Note_on_c, 0, 55, 58
2, 95274, Control_c, 0, 64, 76
2, 95289, Control_c, 0, 64, 66
2, 95303, Control_c, 0, 64, 55
2, 95306, Note_on_c, 0, 55, 0
2, 95319, Control_c, 0, 64, 0
2, 95341, Note_on_c, 0, 57, 58
2, 95395, Note_on_c, 0, 57, 0
2, 95427, Note_on_c, 0, 59, 65
2, 95497, Note_on_c, 0, 59, 0
2, 95501, Note_on_c, 0, 61, 75
2, 95596, Note_on_c, 0, 62, 79
2, 95605, Note_on_c, 0, 61, 0
2, 95656, Note_on_c, 0, 62, 0
2, 95761, Note_on_c, 0, 43, 70
2, 95773, Note_on_c, 0, 59, 80
2, 95826, Note_on_c, 0, 43, 0
2, 95829, Note_on_c, 0, 59, 0
2, 95843, Note_on_c, 0, 42, 69
2, 95886, Note_on_c, 0, 42, 0
2, 95918, Note_on_c, 0, 40, 67
2, 95926, Note_on_c, 0, 62, 79
2, 95977, Note_on_c, 0, 40, 0
2, 95980, Note_on_c, 0, 62, 0
2, 96007, Note_on_c, 0, 38, 55
2, 96088, Control_c, 0, 64, 44
2, 96094, Note_on_c, 0, 38, 0
2, 96100, Note_on_c, 0, 67, 83
2, 96102, Control_c, 0, 64, 64
2, 96104, Note_on_c, 0, 40, 57
2, 96118, Control_c, 0, 64, 71
2, 96133, Control_c, 0, 64, 84
2, 96133, Note_on_c, 0, 40, 0
2, 96147, Control_c, 0, 64, 95
2, 96163, Control_c, 0, 64, 117
2, 96178, Control_c, 0, 64, 127
2, 96181, Note_on_c, 0, 67, 0
2, 96291, Note_on_c, 0, 59, 79
2, 96366, Control_c, 0, 64, 111
2, 96376, Note_on_c, 0, 59, 0
2, 96379, Note_on_c, 0, 57, 76
2, 96381, Control_c, 0, 64, 83
2, 96396, Control_c, 0, 64, 68
2, 96412, Control_c, 0, 64, 50
2, 96427, Control_c, 0, 64, 0
2, 96443, Note_on_c, 0, 55, 79
2, 96443, Note_on_c, 0, 57, 0
2, 96450, Note_on_c, 0, 71, 77
2, 96455, Note_on_c, 0, 67, 71
2, 96506, Note_on_c, 0, 71, 0
2, 96511, Note_on_c, 0, 67, 0
2, 96526, Note_on_c, 0, 55, 0
2, 96541, Note_on_c, 0, 54, 65
2, 96621, Note_on_c, 0, 52, 70
2, 96622, Note_on_c, 0, 54, 0
2, 96624, Note_on_c, 0, 71, 85
2, 96632, Note_on_c, 0, 67, 72
2, 96646, Note_on_c, 0, 52, 0
2, 96816, Note_on_c, 0, 55, 66
2, 96850, Note_on_c, 0, 55, 0
2, 96851, Note_on_c, 0, 71, 0
2, 96868, Note_on_c, 0, 67, 0
2, 96987, Note_on_c, 0, 52, 58
2, 96996, Note_on_c, 0, 71, 67
2, 97000, Note_on_c, 0, 67, 66
2, 97018, Note_on_c, 0, 52, 0
2, 97049, Note_on_c, 0, 67, 0
2, 97055, Note_on_c, 0, 71, 0
2, 97162, Note_on_c, 0, 49, 70
2, 97171, Note_on_c, 0, 71, 73
2, 97188, Note_on_c, 0, 67, 52
2, 97193, Note_on_c, 0, 49, 0
2, 97296, Note_on_c, 0, 71, 0
2, 97341, Note_on_c, 0, 69, 61
2, 97344, Note_on_c, 0, 52, 55
2, 97375, Note_on_c, 0, 52, 0
2, 97523, Note_on_c, 0, 49, 43
2, 97559, Note_on_c, 0, 49, 0
2, 97690, Note_on_c, 0, 45, 54
2, 97702, Note_on_c, 0, 67, 0
2, 97713, Note_on_c, 0, 69, 0
2, 97724, Note_on_c, 0, 45, 0
2, 97872, Note_on_c, 0, 49, 40
2, 97883, Note_on_c, 0, 69, 46
2, 97915, Note_on_c, 0, 49, 0
2, 97950, Note_on_c, 0, 69, 0
2, 97972, Note_on_c, 0, 67, 51
2, 98032, Note_on_c, 0, 67, 0
2, 98042, Note_on_c, 0, 45, 39
2, 98054, Note_on_c, 0, 66, 56
2, 98081, Note_on_c, 0, 45, 0
2, 98110, Note_on_c, 0, 66, 0
2, 98135, Note_on_c, 0, 64, 61
2, 98199, Note_on_c, 0, 64, 0
2, 98208, Note_on_c, 0, 50, 56
2, 98228, Note_on_c, 0, 66, 66
2, 98247, Note_on_c, 0, 50, 0
2, 98266, Note_on_c, 0, 66, 0
2, 98378, Note_on_c, 0, 54, 67
2, 98386, Note_on_c, 0, 62, 50
2, 98417, Note_on_c, 0, 54, 0
2, 98454, Note_on_c, 0, 62, 0
2, 98463, Note_on_c, 0, 64, 62
2, 98529, Note_on_c, 0, 64, 0
2, 98551, Note_on_c, 0, 50, 55
2, 98552, Note_on_c, 0, 66, 64
2, 98594, Note_on_c, 0, 50, 0
2, 98595, Note_on_c, 0, 66, 0
2, 98643, Note_on_c, 0, 67, 65
2, 98715, Note_on_c, 0, 67, 0
2, 98722, Note_on_c, 0, 47, 62
2, 98734, Note_on_c, 0, 74, 73
2, 98735, Note_on_c, 0, 69, 70
2, 98763, Note_on_c, 0, 47, 0
2, 98842, Note_on_c, 0, 69, 0
2, 98842, Note_on_c, 0, 69, 4
2, 98887, Note_on_c, 0, 69, 0
2, 98888, Note_on_c, 0, 74, 0
2, 98901, Note_on_c, 0, 50, 71
2, 98913, Note_on_c, 0, 67, 71
2, 98944, Note_on_c, 0, 50, 0
2, 98988, Note_on_c, 0, 67, 0
2, 98995, Note_on_c, 0, 66, 72
2, 99069, Note_on_c, 0, 47, 60
2, 99076, Note_on_c, 0, 64, 71
2, 99089, Note_on_c, 0, 66, 0
2, 99116, Note_on_c, 0, 47, 0
2, 99155, Note_on_c, 0, 62, 74
2, 99165, Note_on_c, 0, 64, 0
2, 99182, Note_on_c, 0, 64, 43
2, 99231, Note_on_c, 0, 64, 0
2, 99234, Note_on_c, 0, 52, 73
2, 99241, Note_on_c, 0, 62, 0
2, 99244, Note_on_c, 0, 67, 69
2, 99244, Note_on_c, 0, 71, 77
2, 99268, Note_on_c, 0, 52, 0
2, 99396, Note_on_c, 0, 67, 0
2, 99404, Note_on_c, 0, 55, 71
2, 99406, Note_on_c, 0, 71, 0
2, 99433, Note_on_c, 0, 64, 78
2, 99463, Note_on_c, 0, 55, 0
2, 99497, Note_on_c, 0, 64, 0
2, 99505, Note_on_c, 0, 66, 80
2, 99568, Note_on_c, 0, 66, 0
2, 99571, Note_on_c, 0, 52, 69
2, 99589, Note_on_c, 0, 67, 86
2, 99605, Note_on_c, 0, 52, 0
2, 99657, Note_on_c, 0, 67, 0
2, 99659, Note_on_c, 0, 69, 82
2, 99746, Note_on_c, 0, 71, 87
2, 99748, Note_on_c, 0, 49, 75
2, 99748, Note_on_c, 0, 76, 84
2, 99754, Note_on_c, 0, 69, 0
2, 99792, Note_on_c, 0, 49, 0
2, 99913, Note_on_c, 0, 71, 0
2, 99913, Note_on_c, 0, 71, 3
2, 99921, Note_on_c, 0, 52, 68
2, 99930, Note_on_c, 0, 69, 80
2, 99933, Note_on_c, 0, 71, 0
2, 99936, Note_on_c, 0, 76, 0
2, 99953, Note_on_c, 0, 52, 0
2, 99987, Note_on_c, 0, 69, 0
2, 100009, Note_on_c, 0, 67, 77
2, 100092, Note_on_c, 0, 67, 0
2, 100094, Note_on_c, 0, 49, 66
2, 100102, Note_on_c, 0, 66, 68
2, 100128, Note_on_c, 0, 49, 0
2, 100138, Note_on_c, 0, 66, 0
2, 100168, Note_on_c, 0, 64, 77
2, 100211, Note_on_c, 0, 64, 0
2, 100260, Note_on_c, 0, 54, 78
2, 100273, Note_on_c, 0, 69, 78
2, 100294, Note_on_c, 0, 54, 0
2, 100457, Note_on_c, 0, 50, 57
2, 100531, Note_on_c, 0, 50, 0
2, 100531, Note_on_c, 0, 52, 63
2, 100597, Note_on_c, 0, 69, 0
2, 100608, Note_on_c, 0, 52, 0
2, 100608, Note_on_c, 0, 67, 75
2, 100613, Note_on_c, 0, 54, 73
2, 100687, Note_on_c, 0, 54, 0
2, 100708, Note_on_c, 0, 55, 74
2, 100774, Note_on_c, 0, 55, 0
2, 100778, Note_on_c, 0, 74, 79
2, 100780, Note_on_c, 0, 67, 0
2, 100785, Note_on_c, 0, 57, 82
2, 100785, Note_on_c, 0, 66, 74
2, 100815, Note_on_c, 0, 57, 0
2, 100973, Note_on_c, 0, 55, 80
2, 101047, Note_on_c, 0, 54, 81
2, 101057, Note_on_c, 0, 55, 0
2, 101126, Note_on_c, 0, 52, 71
2, 101128, Note_on_c, 0, 72, 80
2, 101130, Note_on_c, 0, 74, 0
2, 101131, Note_on_c, 0, 54, 0
2, 101196, Note_on_c, 0, 72, 0
2, 101220, Note_on_c, 0, 50, 73
2, 101223, Note_on_c, 0, 66, 0
2, 101229, Note_on_c, 0, 52, 0
2, 101297, Note_on_c, 0, 71, 81
2, 101298, Note_on_c, 0, 55, 83
2, 101306, Note_on_c, 0, 50, 0
2, 101335, Note_on_c, 0, 55, 0
2, 101468, Note_on_c, 0, 52, 68
2, 101542, Note_on_c, 0, 54, 81
2, 101573, Note_on_c, 0, 52, 0
2, 101626, Note_on_c, 0, 55, 81
2, 101643, Note_on_c, 0, 69, 85
2, 101649, Note_on_c, 0, 71, 0
2, 101655, Note_on_c, 0, 54, 0
2, 101712, Note_on_c, 0, 57, 87
2, 101719, Note_on_c, 0, 55, 0
2, 101805, Note_on_c, 0, 57, 0
2, 101809, Note_on_c, 0, 59, 84
2, 101826, Note_on_c, 0, 69, 0
2, 101831, Note_on_c, 0, 67, 87
2, 101846, Note_on_c, 0, 59, 0
2, 101846, Note_on_c, 0, 64, 68
2, 101988, Note_on_c, 0, 57, 80
2, 102025, Note_on_c, 0, 67, 0
2, 102025, Note_on_c, 0, 67, 14
2, 102054, Note_on_c, 0, 57, 0
2, 102056, Note_on_c, 0, 64, 0
2, 102061, Note_on_c, 0, 55, 75
2, 102145, Note_on_c, 0, 54, 76
2, 102145, Note_on_c, 0, 55, 0
2, 102152, Note_on_c, 0, 62, 65
2, 102201, Note_on_c, 0, 62, 0
2, 102227, Note_on_c, 0, 54, 0
2, 102228, Note_on_c, 0, 52, 71
2, 102324, Note_on_c, 0, 52, 0
2, 102325, Note_on_c, 0, 57, 81
2, 102329, Note_on_c, 0, 61, 75
2, 102335, Control_c, 0, 64, 41
2, 102349, Control_c, 0, 64, 65
2, 102365, Control_c, 0, 64, 83
2, 102365, Note_on_c, 0, 67, 0
2, 102378, Note_on_c, 0, 57, 0
2, 102380, Control_c, 0, 64, 127
2, 102411, Note_on_c, 0, 61, 0
2, 102458, Note_on_c, 0, 67, 21
2, 102499, Note_on_c, 0, 67, 0
2, 102521, Note_on_c, 0, 57, 72
2, 102539, Control_c, 0, 64, 90
2, 102554, Control_c, 0, 64, 67
2, 102570, Control_c, 0, 64, 33
2, 102585, Control_c, 0, 64, 0
2, 102587, Note_on_c, 0, 57, 0
2, 102607, Note_on_c, 0, 59, 76
2, 102672, Note_on_c, 0, 59, 0
2, 102686, Note_on_c, 0, 61, 70
2, 102687, Note_on_c, 0, 45, 67
2, 102734, Note_on_c, 0, 45, 0
2, 102763, Note_on_c, 0, 61, 0
2, 102781, Note_on_c, 0, 62, 73
2, 102834, Note_on_c, 0, 62, 0
2, 102856, Note_on_c, 0, 45, 73
2, 102856, Note_on_c, 0, 64, 76
2, 102858, Note_on_c, 0, 67, 69
2, 102982, Note_on_c, 0, 64, 0
2, 103037, Note_on_c, 0, 61, 80
2, 103057, Note_on_c, 0, 45, 0
2, 103104, Note_on_c, 0, 61, 0
2, 103137, Note_on_c, 0, 67, 0
2, 103193, Note_on_c, 0, 45, 73
2, 103204, Note_on_c, 0, 64, 89
2, 103270, Note_on_c, 0, 64, 0
2, 103272, Note_on_c, 0, 45, 0
2, 103373, Note_on_c, 0, 67, 81
2, 103379, Note_on_c, 0, 73, 77
2, 103381, Note_on_c, 0, 45, 72
2, 103466, Note_on_c, 0, 67, 0
2, 103554, Note_on_c, 0, 64, 86
2, 103606, Note_on_c, 0, 64, 0
2, 103705, Note_on_c, 0, 73, 0
2, 103716, Note_on_c, 0, 67, 90
2, 103772, Note_on_c, 0, 67, 0
2, 103883, Note_on_c, 0, 76, 82
2, 103885, Note_on_c, 0, 73, 85
2, 103960, Note_on_c, 0, 45, 0
2, 104010, Note_on_c, 0, 73, 0
2, 104074, Note_on_c, 0, 67, 87
2, 104139, Note_on_c, 0, 67, 0
2, 104153, Note_on_c, 0, 52, 70
2, 104227, Note_on_c, 0, 54, 82
2, 104230, Note_on_c, 0, 52, 0
2, 104263, Note_on_c, 0, 76, 0
2, 104265, Note_on_c, 0, 73, 75
2, 104306, Note_on_c, 0, 54, 0
2, 104306, Note_on_c, 0, 73, 0
2, 104309, Note_on_c, 0, 55, 89
2, 104390, Note_on_c, 0, 55, 0
2, 104405, Note_on_c, 0, 57, 86
2, 104417, Note_on_c, 0, 66, 86
2, 104476, Note_on_c, 0, 66, 0
2, 104487, Control_c, 0, 64, 63
2, 104502, Control_c, 0, 64, 78
2, 104516, Control_c, 0, 64, 127
2, 104585, Note_on_c, 0, 57, 0
2, 104590, Note_on_c, 0, 74, 89
2, 104623, Control_c, 0, 64, 87
2, 104639, Control_c, 0, 64, 69
2, 104654, Control_c, 0, 64, 55
2, 104668, Control_c, 0, 64, 0
2, 104679, Note_on_c, 0, 73, 86
2, 104680, Note_on_c, 0, 74, 0
2, 104759, Note_on_c, 0, 71, 75
2, 104759, Note_on_c, 0, 73, 0
2, 104765, Note_on_c, 0, 45, 60
2, 104812, Note_on_c, 0, 45, 0
2, 104823, Note_on_c, 0, 71, 0
2, 104835, Note_on_c, 0, 69, 77
2, 104866, Note_on_c, 0, 69, 0
2, 104932, Note_on_c, 0, 45, 68
2, 104933, Note_on_c, 0, 68, 79
2, 104950, Note_on_c, 0, 62, 78
2, 105024, Note_on_c, 0, 68, 0
2, 105105, Note_on_c, 0, 45, 0
2, 105122, Note_on_c, 0, 71, 80
2, 105187, Note_on_c, 0, 71, 0
2, 105260, Note_on_c, 0, 62, 0
2, 105294, Note_on_c, 0, 68, 80
2, 105301, Note_on_c, 0, 45, 57
2, 105340, Note_on_c, 0, 45, 0
2, 105361, Note_on_c, 0, 68, 0
2, 105455, Note_on_c, 0, 45, 55
2, 105463, Note_on_c, 0, 62, 72
2, 105464, Note_on_c, 0, 59, 59
2, 105536, Note_on_c, 0, 62, 0
2, 105644, Note_on_c, 0, 68, 69
2, 105708, Note_on_c, 0, 68, 0
2, 105774, Note_on_c, 0, 59, 0
2, 105815, Note_on_c, 0, 62, 75
2, 105866, Note_on_c, 0, 62, 0
2, 105977, Note_on_c, 0, 59, 54
2, 105985, Note_on_c, 0, 56, 57
2, 106049, Note_on_c, 0, 45, 0
2, 106057, Note_on_c, 0, 59, 0
2, 106153, Note_on_c, 0, 62, 67
2, 106232, Note_on_c, 0, 62, 0
2, 106325, Note_on_c, 0, 59, 65
2, 106364, Note_on_c, 0, 56, 0
2, 106368, Note_on_c, 0, 59, 0
2, 106505, Note_on_c, 0, 61, 63
2, 106513, Note_on_c, 0, 57, 48
2, 106685, Note_on_c, 0, 61, 0
2, 106693, Note_on_c, 0, 59, 61
2, 106708, Note_on_c, 0, 57, 0
2, 106737, Note_on_c, 0, 59, 0
2, 106755, Note_on_c, 0, 42, 52
2, 106799, Note_on_c, 0, 42, 0
2, 106831, Note_on_c, 0, 43, 49
2, 106860, Note_on_c, 0, 57, 56
2, 106868, Note_on_c, 0, 55, 47
2, 106877, Note_on_c, 0, 43, 0
2, 106913, Note_on_c, 0, 55, 0
2, 106929, Note_on_c, 0, 57, 0
2, 106930, Note_on_c, 0, 45, 56
2, 106966, Note_on_c, 0, 45, 0
2, 107015, Note_on_c, 0, 47, 65
2, 107033, Note_on_c, 0, 62, 62
2, 107041, Note_on_c, 0, 54, 65
2, 107046, Note_on_c, 0, 47, 0
2, 107203, Note_on_c, 0, 45, 72
2, 107206, Note_on_c, 0, 62, 0
2, 107231, Note_on_c, 0, 45, 0
2, 107258, Note_on_c, 0, 54, 0
2, 107380, Note_on_c, 0, 43, 69
2, 107393, Note_on_c, 0, 67, 65
2, 107416, Note_on_c, 0, 43, 0
2, 107423, Note_on_c, 0, 64, 38
2, 107464, Note_on_c, 0, 64, 0
2, 107538, Note_on_c, 0, 67, 0
2, 107553, Note_on_c, 0, 45, 71
2, 107571, Note_on_c, 0, 61, 65
2, 107590, Control_c, 0, 64, 21
2, 107606, Control_c, 0, 64, 50
2, 107621, Control_c, 0, 64, 57
2, 107635, Control_c, 0, 64, 63
2, 107651, Control_c, 0, 64, 71
2, 107666, Control_c, 0, 64, 93
2, 107672, Note_on_c, 0, 45, 0
2, 107682, Control_c, 0, 64, 127
2, 107747, Note_on_c, 0, 61, 0
2, 107752, Note_on_c, 0, 66, 77
2, 107787, Control_c, 0, 64, 105
2, 107803, Control_c, 0, 64, 80
2, 107818, Control_c, 0, 64, 66
2, 107825, Note_on_c, 0, 64, 78
2, 107828, Note_on_c, 0, 66, 0
2, 107833, Control_c, 0, 64, 48
2, 107848, Control_c, 0, 64, 0
2, 107917, Note_on_c, 0, 64, 0
2, 107924, Note_on_c, 0, 57, 69
2, 107927, Note_on_c, 0, 66, 79
2, 107934, Note_on_c, 0, 62, 61
2, 107972, Note_on_c, 0, 57, 0
2, 108090, Note_on_c, 0, 66, 0
2, 108106, Note_on_c, 0, 64, 74
2, 108111, Note_on_c, 0, 57, 62
2, 108189, Control_c, 0, 64, 37
2, 108205, Control_c, 0, 64, 62
2, 108208, Note_on_c, 0, 57, 0
2, 108220, Control_c, 0, 64, 75
2, 108235, Control_c, 0, 64, 127
2, 108301, Note_on_c, 0, 61, 67
2, 108305, Note_on_c, 0, 62, 0
2, 108308, Note_on_c, 0, 64, 0
2, 108327, Note_on_c, 0, 61, 0
2, 108381, Note_on_c, 0, 59, 66
2, 108404, Control_c, 0, 64, 94
2, 108419, Control_c, 0, 64, 81
2, 108433, Control_c, 0, 64, 71
2, 108443, Note_on_c, 0, 45, 65
2, 108449, Control_c, 0, 64, 62
2, 108456, Note_on_c, 0, 69, 66
2, 108464, Control_c, 0, 64, 29
2, 108464, Note_on_c, 0, 59, 0
2, 108480, Control_c, 0, 64, 0
2, 108484, Note_on_c, 0, 45, 0
2, 108631, Control_c, 0, 64, 24
2, 108632, Note_on_c, 0, 69, 0
2, 108654, Control_c, 0, 64, 63
2, 108663, Note_on_c, 0, 50, 86
2, 108669, Control_c, 0, 64, 79
2, 108685, Control_c, 0, 64, 127
2, 108685, Note_on_c, 0, 66, 78
2, 108744, Note_on_c, 0, 66, 0
2, 108790, Note_on_c, 0, 69, 84
2, 108826, Note_on_c, 0, 50, 0
2, 108855, Note_on_c, 0, 69, 0
2, 108870, Note_on_c, 0, 71, 87
2, 108899, Control_c, 0, 64, 88
2, 108915, Control_c, 0, 64, 66
2, 108930, Control_c, 0, 64, 0
2, 108955, Note_on_c, 0, 73, 86
2, 108960, Note_on_c, 0, 71, 0
2, 109013, Note_on_c, 0, 73, 0
2, 109019, Note_on_c, 0, 57, 77
2, 109029, Note_on_c, 0, 74, 85
2, 109045, Note_on_c, 0, 57, 0
2, 109099, Note_on_c, 0, 74, 0
2, 109107, Note_on_c, 0, 76, 86
2, 109170, Note_on_c, 0, 62, 69
2, 109188, Note_on_c, 0, 76, 0
2, 109198, Note_on_c, 0, 78, 90
2, 109226, Note_on_c, 0, 62, 0
2, 109241, Note_on_c, 0, 61, 63
2, 109267, Note_on_c, 0, 61, 0
2, 109280, Note_on_c, 0, 76, 82
2, 109288, Note_on_c, 0, 62, 19
2, 109290, Note_on_c, 0, 78, 0
2, 109332, Note_on_c, 0, 76, 0
2, 109346, Note_on_c, 0, 74, 81
2, 109440, Note_on_c, 0, 73, 84
2, 109441, Note_on_c, 0, 74, 0
2, 109525, Note_on_c, 0, 71, 78
2, 109537, Note_on_c, 0, 73, 0
2, 109579, Note_on_c, 0, 71, 0
2, 109597, Note_on_c, 0, 69, 76
2, 109677, Note_on_c, 0, 69, 0
2, 109680, Note_on_c, 0, 68, 79
2, 109722, Note_on_c, 0, 68, 0
2, 109837, Note_on_c, 0, 62, 0
2, 109846, Note_on_c, 0, 64, 69
2, 109847, Note_on_c, 0, 71, 83
2, 109882, Note_on_c, 0, 71, 0
2, 109888, Note_on_c, 0, 64, 0
2, 109922, Note_on_c, 0, 62, 73
2, 109974, Note_on_c, 0, 62, 0
2, 109998, Note_on_c, 0, 61, 73
2, 110019, Note_on_c, 0, 76, 80
2, 110047, Note_on_c, 0, 61, 0
2, 110068, Note_on_c, 0, 76, 0
2, 110078, Note_on_c, 0, 59, 69
2, 110167, Note_on_c, 0, 59, 0
2, 110180, Note_on_c, 0, 58, 87
2, 110189, Note_on_c, 0, 76, 83
2, 110222, Control_c, 0, 64, 47
2, 110227, Note_on_c, 0, 58, 0
2, 110237, Control_c, 0, 64, 63
2, 110252, Control_c, 0, 64, 67
2, 110267, Control_c, 0, 64, 71
2, 110283, Control_c, 0, 64, 72
2, 110329, Control_c, 0, 64, 71
2, 110344, Control_c, 0, 64, 69
2, 110359, Control_c, 0, 64, 66
2, 110374, Control_c, 0, 64, 63
2, 110378, Note_on_c, 0, 73, 71
2, 110386, Note_on_c, 0, 59, 62
2, 110389, Control_c, 0, 64, 53
2, 110405, Control_c, 0, 64, 0
2, 110439, Note_on_c, 0, 73, 0
2, 110444, Note_on_c, 0, 59, 0
2, 110459, Note_on_c, 0, 58, 62
2, 110509, Note_on_c, 0, 58, 0
2, 110513, Note_on_c, 0, 76, 0
2, 110531, Note_on_c, 0, 56, 69
2, 110536, Note_on_c, 0, 70, 76
2, 110573, Note_on_c, 0, 70, 0
2, 110598, Note_on_c, 0, 56, 0
2, 110611, Note_on_c, 0, 54, 67
2, 110695, Note_on_c, 0, 54, 0
2, 110699, Note_on_c, 0, 59, 66
2, 110708, Control_c, 0, 64, 43
2, 110708, Note_on_c, 0, 66, 74
2, 110723, Control_c, 0, 64, 59
2, 110738, Control_c, 0, 64, 63
2, 110754, Control_c, 0, 64, 66
2, 110769, Control_c, 0, 64, 71
2, 110771, Note_on_c, 0, 66, 0
2, 110784, Control_c, 0, 64, 79
2, 110800, Control_c, 0, 64, 85
2, 110815, Control_c, 0, 64, 85
2, 110846, Control_c, 0, 64, 85
2, 110861, Control_c, 0, 64, 80
2, 110876, Control_c, 0, 64, 71
2, 110876, Note_on_c, 0, 59, 0
2, 110891, Control_c, 0, 64, 62
2, 110900, Note_on_c, 0, 68, 68
2, 110906, Control_c, 0, 64, 22
2, 110922, Control_c, 0, 64, 0
2, 110975, Note_on_c, 0, 68, 0
2, 110986, Note_on_c, 0, 70, 74
2, 111037, Note_on_c, 0, 70, 0
2, 111059, Note_on_c, 0, 47, 59
2, 111062, Note_on_c, 0, 71, 81
2, 111094, Note_on_c, 0, 47, 0
2, 111110, Note_on_c, 0, 71, 0
2, 111139, Note_on_c, 0, 73, 77
2, 111222, Note_on_c, 0, 59, 32
2, 111224, Note_on_c, 0, 73, 0
2, 111227, Note_on_c, 0, 74, 80
2, 111252, Note_on_c, 0, 59, 0
2, 111256, Note_on_c, 0, 58, 66
2, 111297, Note_on_c, 0, 58, 0
2, 111304, Note_on_c, 0, 74, 0
2, 111315, Note_on_c, 0, 73, 77
2, 111318, Note_on_c, 0, 59, 65
2, 111383, Note_on_c, 0, 71, 76
2, 111388, Note_on_c, 0, 73, 0
2, 111437, Note_on_c, 0, 71, 0
2, 111457, Note_on_c, 0, 69, 67
2, 111528, Note_on_c, 0, 69, 0
2, 111555, Note_on_c, 0, 67, 62
2, 111610, Note_on_c, 0, 67, 0
2, 111630, Note_on_c, 0, 66, 66
2, 111678, Note_on_c, 0, 66, 0
2, 111727, Note_on_c, 0, 64, 69
2, 111757, Note_on_c, 0, 64, 0
2, 111853, Note_on_c, 0, 59, 0
2, 111891, Note_on_c, 0, 60, 61
2, 111903, Note_on_c, 0, 67, 63
2, 111931, Note_on_c, 0, 60, 0
2, 111937, Note_on_c, 0, 67, 0
2, 111974, Note_on_c, 0, 59, 58
2, 112012, Note_on_c, 0, 59, 0
2, 112042, Note_on_c, 0, 57, 60
2, 112062, Note_on_c, 0, 72, 71
2, 112089, Note_on_c, 0, 57, 0
2, 112108, Note_on_c, 0, 72, 0
2, 112132, Note_on_c, 0, 55, 52
2, 112214, Note_on_c, 0, 55, 0
2, 112224, Note_on_c, 0, 54, 67
2, 112227, Note_on_c, 0, 72, 79
2, 112258, Control_c, 0, 64, 35
2, 112258, Note_on_c, 0, 54, 0
2, 112274, Control_c, 0, 64, 54
2, 112289, Control_c, 0, 64, 63
2, 112304, Control_c, 0, 64, 68
2, 112320, Control_c, 0, 64, 75
2, 112334, Control_c, 0, 64, 85
2, 112349, Control_c, 0, 64, 94
2, 112365, Control_c, 0, 64, 97
2, 112411, Control_c, 0, 64, 92
2, 112420, Note_on_c, 0, 55, 63
2, 112420, Note_on_c, 0, 69, 70
2, 112426, Control_c, 0, 64, 83
2, 112442, Control_c, 0, 64, 72
2, 112457, Control_c, 0, 64, 62
2, 112462, Note_on_c, 0, 69, 0
2, 112473, Control_c, 0, 64, 0
2, 112487, Note_on_c, 0, 55, 0
2, 112512, Note_on_c, 0, 54, 61
2, 112553, Note_on_c, 0, 54, 0
2, 112570, Note_on_c, 0, 52, 70
2, 112585, Note_on_c, 0, 66, 62
2, 112634, Note_on_c, 0, 66, 0
2, 112635, Note_on_c, 0, 52, 0
2, 112643, Note_on_c, 0, 50, 76
2, 112727, Note_on_c, 0, 50, 0
2, 112744, Note_on_c, 0, 55, 85
2, 112746, Note_on_c, 0, 72, 0
2, 112776, Note_on_c, 0, 62, 75
2, 112783, Control_c, 0, 64, 47
2, 112799, Control_c, 0, 64, 70
2, 112814, Control_c, 0, 64, 104
2, 112829, Control_c, 0, 64, 127
2, 112838, Note_on_c, 0, 62, 0
2, 112918, Note_on_c, 0, 55, 0
2, 112939, Note_on_c, 0, 64, 87
2, 112952, Control_c, 0, 64, 107
2, 112967, Control_c, 0, 64, 74
2, 112981, Control_c, 0, 64, 56
2, 112997, Control_c, 0, 64, 0
2, 113028, Note_on_c, 0, 66, 84
2, 113049, Note_on_c, 0, 64, 0
2, 113091, Note_on_c, 0, 66, 0
2, 113104, Note_on_c, 0, 43, 75
2, 113107, Note_on_c, 0, 67, 83
2, 113168, Note_on_c, 0, 43, 0
2, 113185, Note_on_c, 0, 67, 0
2, 113187, Note_on_c, 0, 69, 82
2, 113278, Note_on_c, 0, 69, 0
2, 113279, Note_on_c, 0, 55, 76
2, 113283, Note_on_c, 0, 71, 87
2, 113371, Note_on_c, 0, 69, 82
2, 113374, Note_on_c, 0, 71, 0
2, 113428, Note_on_c, 0, 69, 0
2, 113447, Note_on_c, 0, 67, 84
2, 113527, Note_on_c, 0, 67, 0
2, 113538, Note_on_c, 0, 66, 84
2, 113627, Note_on_c, 0, 64, 79
2, 113629, Note_on_c, 0, 66, 0
2, 113683, Note_on_c, 0, 64, 0
2, 113697, Note_on_c, 0, 62, 75
2, 113780, Note_on_c, 0, 61, 79
2, 113783, Note_on_c, 0, 62, 0
2, 113845, Note_on_c, 0, 61, 0
2, 113938, Note_on_c, 0, 55, 0
2, 113954, Note_on_c, 0, 57, 62
2, 113961, Note_on_c, 0, 64, 75
2, 114001, Note_on_c, 0, 57, 0
2, 114001, Note_on_c, 0, 64, 0
2, 114046, Note_on_c, 0, 55, 69
2, 114102, Note_on_c, 0, 55, 0
2, 114117, Note_on_c, 0, 54, 75
2, 114137, Note_on_c, 0, 69, 77
2, 114141, Note_on_c, 0, 61, 77
2, 114175, Note_on_c, 0, 54, 0
2, 114180, Note_on_c, 0, 61, 0
2, 114193, Note_on_c, 0, 52, 71
2, 114194, Note_on_c, 0, 69, 0
2, 114273, Note_on_c, 0, 52, 0
2, 114288, Note_on_c, 0, 50, 73
2, 114296, Note_on_c, 0, 62, 80
2, 114303, Note_on_c, 0, 66, 85
2, 114341, Note_on_c, 0, 62, 0
2, 114350, Note_on_c, 0, 50, 0
2, 114380, Note_on_c, 0, 66, 0
2, 114457, Control_c, 0, 64, 34
2, 114464, Note_on_c, 0, 52, 66
2, 114465, Note_on_c, 0, 69, 82
2, 114473, Control_c, 0, 64, 59
2, 114488, Control_c, 0, 64, 66
2, 114503, Control_c, 0, 64, 69
2, 114519, Control_c, 0, 64, 73
2, 114520, Note_on_c, 0, 69, 0
2, 114533, Control_c, 0, 64, 76
2, 114546, Note_on_c, 0, 54, 80
2, 114548, Control_c, 0, 64, 78
2, 114554, Note_on_c, 0, 52, 0
2, 114564, Control_c, 0, 64, 79
2, 114610, Note_on_c, 0, 54, 0
2, 114626, Note_on_c, 0, 55, 76
2, 114633, Note_on_c, 0, 66, 76
2, 114635, Note_on_c, 0, 74, 69
2, 114640, Control_c, 0, 64, 76
2, 114647, Note_on_c, 0, 76, 66
2, 114655, Control_c, 0, 64, 70
2, 114665, Note_on_c, 0, 76, 0
2, 114670, Control_c, 0, 64, 60
2, 114685, Control_c, 0, 64, 0
2, 114707, Note_on_c, 0, 74, 0
2, 114717, Note_on_c, 0, 66, 0
2, 114775, Note_on_c, 0, 55, 0
2, 114801, Note_on_c, 0, 59, 79
2, 114826, Note_on_c, 0, 67, 94
2, 114888, Note_on_c, 0, 59, 0
2, 115001, Note_on_c, 0, 57, 80
2, 115005, Note_on_c, 0, 69, 79
2, 115009, Note_on_c, 0, 67, 0
2, 115041, Note_on_c, 0, 57, 0
2, 115060, Note_on_c, 0, 69, 0
2, 115172, Note_on_c, 0, 55, 80
2, 115175, Note_on_c, 0, 71, 73
2, 115182, Note_on_c, 0, 76, 88
2, 115202, Note_on_c, 0, 55, 0
2, 115206, Note_on_c, 0, 71, 0
2, 115345, Note_on_c, 0, 76, 0
2, 115354, Note_on_c, 0, 69, 82
2, 115356, Note_on_c, 0, 57, 81
2, 115357, Note_on_c, 0, 66, 79
2, 115424, Control_c, 0, 64, 12
2, 115440, Control_c, 0, 64, 49
2, 115455, Control_c, 0, 64, 57
2, 115458, Note_on_c, 0, 57, 0
2, 115471, Control_c, 0, 64, 60
2, 115485, Control_c, 0, 64, 64
2, 115500, Control_c, 0, 64, 66
2, 115516, Control_c, 0, 64, 71
2, 115531, Control_c, 0, 64, 77
2, 115531, Note_on_c, 0, 74, 89
2, 115534, Note_on_c, 0, 69, 0
2, 115540, Note_on_c, 0, 66, 0
2, 115547, Control_c, 0, 64, 82
2, 115568, Control_c, 0, 64, 82
2, 115722, Control_c, 0, 64, 82
2, 115737, Control_c, 0, 64, 81
2, 115740, Note_on_c, 0, 73, 93
2, 115746, Note_on_c, 0, 45, 74
2, 115747, Note_on_c, 0, 64, 77
2, 115749, Note_on_c, 0, 67, 73
2, 115753, Control_c, 0, 64, 78
2, 115768, Control_c, 0, 64, 74
2, 115777, Note_on_c, 0, 74, 0
2, 115783, Control_c, 0, 64, 68
2, 115799, Control_c, 0, 64, 59
2, 115814, Control_c, 0, 64, 44
2, 115829, Control_c, 0, 64, 12
2, 115844, Control_c, 0, 64, 0
2, 115863, Note_on_c, 0, 64, 0
2, 115961, Note_on_c, 0, 73, 0
2, 115970, Note_on_c, 0, 74, 88
2, 115977, Note_on_c, 0, 38, 60
2, 115983, Note_on_c, 0, 62, 77
2, 115993, Note_on_c, 0, 45, 0
2, 116217, Note_on_c, 0, 69, 83
2, 116240, Note_on_c, 0, 67, 0
2, 116332, Note_on_c, 0, 62, 0
2, 116399, Control_c, 0, 66, 127
2, 116516, Note_on_c, 0, 66, 82
2, 116653, Note_on_c, 0, 38, 0
2, 116860, Note_on_c, 0, 62, 62
2, 116914, Note_on_c, 0, 62, 0
2, 116920, Note_on_c, 0, 61, 80
2, 116990, Note_on_c, 0, 61, 0
2, 116993, Note_on_c, 0, 62, 90
2, 119527, Note_on_c, 0, 66, 0
2, 119655, Note_on_c, 0, 69, 0
2, 119667, Note_on_c, 0, 74, 0
2, 119805, Control_c, 0, 66, 0
2, 120384, Note_on_c, 0, 62, 0
2, 120680, Control_c, 0, 67, 23
2, 120695, Control_c, 0, 67, 49
2, 120711, Control_c, 0, 67, 86
2, 120726, Control_c, 0, 67, 124
2, 120740, Control_c, 0, 64, 21
2, 120740, Control_c, 0, 67, 127
2, 120756, Control_c, 0, 64, 25
2, 120771, Control_c, 0, 64, 27
2, 120787, Control_c, 0, 64, 32
2, 120802, Control_c, 0, 64, 38
2, 120816, Control_c, 0, 64, 41
2, 120832, Control_c, 0, 64, 41
2, 120847, Control_c, 0, 64, 42
2, 120861, Control_c, 0, 64, 44
2, 120877, Control_c, 0, 64, 48
2, 120892, Control_c, 0, 64, 50
2, 120908, Control_c, 0, 64, 50
2, 120923, Control_c, 0, 64, 51
2, 120946, Control_c, 0, 64, 52
2, 120961, Control_c, 0, 64, 55
2, 120976, Control_c, 0, 64, 58
2, 120992, Control_c, 0, 64, 59
2, 121021, Control_c, 0, 64, 59
2, 121037, Control_c, 0, 64, 60
2, 121052, Control_c, 0, 64, 60
2, 121067, Control_c, 0, 64, 61
2, 121082, Control_c, 0, 64, 62
2, 121097, Control_c, 0, 64, 63
2, 121113, Control_c, 0, 64, 64
2, 121128, Control_c, 0, 64, 65
2, 121142, Control_c, 0, 64, 65
2, 121158, Control_c, 0, 64, 66
2, 121173, Control_c, 0, 64, 67
2, 121189, Control_c, 0, 64, 69
2, 121204, Control_c, 0, 64, 71
2, 121218, Control_c, 0, 64, 76
2, 121234, Control_c, 0, 64, 80
2, 121249, Control_c, 0, 64, 82
2, 121263, Control_c, 0, 64, 83
2, 121279, Control_c, 0, 64, 84
2, 121294, Control_c, 0, 64, 84
2, 121310, Control_c, 0, 64, 85
2, 121325, Control_c, 0, 64, 85
2, 121340, Control_c, 0, 64, 86
2, 121343, Note_on_c, 0, 62, 48
2, 121356, Control_c, 0, 64, 88
2, 121371, Control_c, 0, 64, 89
2, 121387, Control_c, 0, 64, 91
2, 121401, Control_c, 0, 64, 92
2, 121416, Control_c, 0, 64, 94
2, 121432, Control_c, 0, 64, 96
2, 121448, Control_c, 0, 64, 99
2, 121463, Control_c, 0, 64, 104
2, 121479, Control_c, 0, 64, 112
2, 121494, Control_c, 0, 64, 127
2, 121508, Note_on_c, 0, 62, 0
2, 121750, Note_on_c, 0, 62, 49
2, 121887, Note_on_c, 0, 62, 0
2, 122143, Note_on_c, 0, 62, 55
2, 122551, Note_on_c, 0, 62, 0
2, 122563, Note_on_c, 0, 55, 52
2, 122664, Control_c, 0, 64, 99
2, 122679, Control_c, 0, 64, 83
2, 122694, Control_c, 0, 64, 74
2, 122710, Control_c, 0, 64, 67
2, 122725, Control_c, 0, 64, 61
2, 122740, Control_c, 0, 64, 46
2, 122755, Control_c, 0, 64, 0
2, 123372, Note_on_c, 0, 59, 57
2, 123399, Note_on_c, 0, 55, 0
2, 124619, Note_on_c, 0, 52, 41
2, 124648, Note_on_c, 0, 59, 0
2, 125016, Note_on_c, 0, 57, 53
2, 125018, Note_on_c, 0, 52, 0
2, 125398, Note_on_c, 0, 55, 45
2, 125403, Note_on_c, 0, 57, 0
2, 125788, Note_on_c, 0, 54, 44
2, 125822, Note_on_c, 0, 55, 0
2, 126100, Control_c, 0, 64, 24
2, 126116, Control_c, 0, 64, 34
2, 126131, Control_c, 0, 64, 40
2, 126147, Control_c, 0, 64, 44
2, 126162, Control_c, 0, 64, 50
2, 126168, Note_on_c, 0, 69, 49
2, 126177, Control_c, 0, 64, 53
2, 126193, Control_c, 0, 64, 56
2, 126207, Control_c, 0, 64, 58
2, 126222, Control_c, 0, 64, 60
2, 126238, Control_c, 0, 64, 62
2, 126253, Control_c, 0, 64, 64
2, 126268, Control_c, 0, 64, 66
2, 126283, Control_c, 0, 64, 69
2, 126298, Control_c, 0, 64, 73
2, 126321, Control_c, 0, 64, 81
2, 126336, Control_c, 0, 64, 91
2, 126352, Control_c, 0, 64, 97
2, 126358, Note_on_c, 0, 69, 0
2, 126367, Control_c, 0, 64, 102
2, 126382, Control_c, 0, 64, 104
2, 126504, Control_c, 0, 64, 104
2, 126520, Control_c, 0, 64, 98
2, 126534, Control_c, 0, 64, 88
2, 126540, Note_on_c, 0, 69, 64
2, 126543, Note_on_c, 0, 50, 44
2, 126550, Control_c, 0, 64, 76
2, 126563, Note_on_c, 0, 54, 0
2, 126565, Control_c, 0, 64, 66
2, 126580, Control_c, 0, 64, 55
2, 126580, Control_c, 0, 67, 112
2, 126596, Control_c, 0, 64, 44
2, 126596, Control_c, 0, 67, 71
2, 126611, Control_c, 0, 64, 45
2, 126611, Control_c, 0, 67, 11
2, 126627, Control_c, 0, 64, 53
2, 126627, Control_c, 0, 67, 0
2, 126642, Control_c, 0, 64, 60
2, 126656, Control_c, 0, 64, 64
2, 126672, Control_c, 0, 64, 68
2, 126687, Control_c, 0, 64, 71
2, 126701, Control_c, 0, 64, 73
2, 126717, Control_c, 0, 64, 76
2, 126732, Control_c, 0, 64, 79
2, 126748, Control_c, 0, 64, 84
2, 126763, Control_c, 0, 64, 88
2, 126777, Control_c, 0, 64, 90
2, 126791, Note_on_c, 0, 69, 0
2, 126793, Control_c, 0, 64, 91
2, 126808, Control_c, 0, 64, 92
2, 126823, Control_c, 0, 64, 93
2, 126839, Control_c, 0, 64, 95
2, 126853, Control_c, 0, 64, 97
2, 126869, Control_c, 0, 64, 100
2, 126884, Control_c, 0, 64, 101
2, 126898, Control_c, 0, 64, 102
2, 126914, Control_c, 0, 64, 102
2, 126928, Note_on_c, 0, 69, 65
2, 126929, Control_c, 0, 64, 103
2, 126944, Control_c, 0, 64, 103
2, 126960, Control_c, 0, 64, 104
2, 126975, Control_c, 0, 64, 104
2, 126991, Control_c, 0, 64, 105
2, 127005, Control_c, 0, 64, 107
2, 127020, Control_c, 0, 64, 110
2, 127036, Control_c, 0, 64, 111
2, 127051, Control_c, 0, 64, 111
2, 127289, Note_on_c, 0, 69, 0
2, 127302, Control_c, 0, 64, 111
2, 127302, Note_on_c, 0, 62, 65
2, 127318, Control_c, 0, 64, 106
2, 127333, Control_c, 0, 64, 99
2, 127348, Control_c, 0, 64, 94
2, 127363, Control_c, 0, 64, 89
2, 127378, Control_c, 0, 64, 85
2, 127394, Control_c, 0, 64, 81
2, 127409, Control_c, 0, 64, 76
2, 127424, Control_c, 0, 64, 71
2, 127440, Control_c, 0, 64, 67
2, 127455, Control_c, 0, 64, 63
2, 127471, Control_c, 0, 64, 58
2, 127485, Control_c, 0, 64, 49
2, 127500, Control_c, 0, 64, 43
2, 127516, Control_c, 0, 64, 41
2, 127531, Control_c, 0, 64, 39
2, 127547, Control_c, 0, 64, 38
2, 127562, Control_c, 0, 64, 36
2, 127577, Control_c, 0, 64, 34
2, 127593, Control_c, 0, 64, 32
2, 127608, Control_c, 0, 64, 30
2, 127622, Control_c, 0, 64, 28
2, 127638, Control_c, 0, 64, 27
2, 127653, Control_c, 0, 64, 26
2, 127669, Control_c, 0, 64, 26
2, 127677, Note_on_c, 0, 54, 46
2, 127714, Control_c, 0, 64, 25
2, 127758, Note_on_c, 0, 50, 0
2, 128058, Note_on_c, 0, 54, 0
2, 128060, Note_on_c, 0, 66, 67
2, 128061, Note_on_c, 0, 59, 41
2, 128067, Note_on_c, 0, 62, 0
2, 128423, Note_on_c, 0, 57, 39
2, 128434, Note_on_c, 0, 59, 0
2, 128811, Note_on_c, 0, 56, 37
2, 128846, Note_on_c, 0, 57, 0
2, 129203, Note_on_c, 0, 66, 0
2, 129213, Note_on_c, 0, 59, 44
2, 129579, Note_on_c, 0, 64, 58
2, 129619, Note_on_c, 0, 59, 0
2, 129959, Note_on_c, 0, 64, 0
2, 129965, Note_on_c, 0, 62, 50
2, 130325, Note_on_c, 0, 62, 0
2, 130341, Note_on_c, 0, 57, 38
2, 130341, Note_on_c, 0, 61, 48
2, 130400, Note_on_c, 0, 56, 0
2, 130717, Note_on_c, 0, 64, 65
2, 130778, Note_on_c, 0, 61, 0
2, 131102, Note_on_c, 0, 64, 0
2, 131112, Note_on_c, 0, 69, 62
2, 131117, Note_on_c, 0, 61, 43
2, 131130, Note_on_c, 0, 57, 0
2, 131490, Note_on_c, 0, 67, 56
2, 131520, Note_on_c, 0, 69, 0
2, 131854, Note_on_c, 0, 67, 0
2, 131879, Note_on_c, 0, 66, 51
2, 132252, Note_on_c, 0, 57, 44
2, 132260, Note_on_c, 0, 61, 0
2, 132603, Control_c, 0, 64, 24
2, 132641, Note_on_c, 0, 57, 0
2, 132645, Note_on_c, 0, 69, 58
2, 132646, Note_on_c, 0, 62, 52
2, 132654, Note_on_c, 0, 66, 0
2, 132724, Control_c, 0, 64, 24
2, 133004, Note_on_c, 0, 61, 49
2, 133036, Note_on_c, 0, 62, 0
2, 133370, Note_on_c, 0, 61, 0
2, 133380, Note_on_c, 0, 59, 46
2, 133743, Note_on_c, 0, 69, 0
2, 133762, Note_on_c, 0, 74, 53
2, 133765, Control_c, 0, 64, 33
2, 133780, Control_c, 0, 64, 43
2, 133780, Note_on_c, 0, 62, 37
2, 133796, Control_c, 0, 64, 51
2, 133811, Control_c, 0, 64, 57
2, 133827, Control_c, 0, 64, 61
2, 133842, Control_c, 0, 64, 64
2, 133857, Control_c, 0, 64, 68
2, 133873, Control_c, 0, 64, 77
2, 133887, Control_c, 0, 64, 101
2, 133902, Control_c, 0, 64, 127
2, 133979, Note_on_c, 0, 74, 0
2, 134061, Note_on_c, 0, 62, 0
2, 134146, Note_on_c, 0, 74, 70
2, 134159, Note_on_c, 0, 67, 52
2, 134181, Control_c, 0, 64, 88
2, 134197, Control_c, 0, 64, 67
2, 134212, Control_c, 0, 64, 54
2, 134226, Control_c, 0, 64, 41
2, 134242, Control_c, 0, 64, 46
2, 134257, Control_c, 0, 64, 55
2, 134273, Control_c, 0, 64, 62
2, 134288, Control_c, 0, 64, 66
2, 134302, Control_c, 0, 64, 70
2, 134318, Control_c, 0, 64, 74
2, 134333, Control_c, 0, 64, 76
2, 134348, Control_c, 0, 64, 78
2, 134364, Control_c, 0, 64, 80
2, 134372, Note_on_c, 0, 74, 0
2, 134378, Control_c, 0, 64, 85
2, 134394, Control_c, 0, 64, 93
2, 134409, Control_c, 0, 64, 100
2, 134424, Control_c, 0, 64, 103
2, 134440, Control_c, 0, 64, 104
2, 134455, Control_c, 0, 64, 105
2, 134513, Note_on_c, 0, 67, 0
2, 134517, Note_on_c, 0, 74, 74
2, 134530, Note_on_c, 0, 66, 58
2, 134644, Note_on_c, 0, 59, 0
2, 134799, Control_c, 0, 64, 104
2, 134828, Control_c, 0, 64, 102
2, 134844, Control_c, 0, 64, 99
2, 134859, Control_c, 0, 64, 96
2, 134874, Control_c, 0, 64, 93
2, 134889, Control_c, 0, 64, 90
2, 134900, Note_on_c, 0, 66, 0
2, 134904, Control_c, 0, 64, 86
2, 134909, Note_on_c, 0, 67, 73
2, 134913, Note_on_c, 0, 64, 58
2, 134920, Control_c, 0, 64, 82
2, 134935, Control_c, 0, 64, 75
2, 134949, Control_c, 0, 64, 69
2, 134965, Control_c, 0, 64, 64
2, 134980, Control_c, 0, 64, 53
2, 134980, Note_on_c, 0, 74, 0
2, 134996, Control_c, 0, 64, 8
2, 135011, Control_c, 0, 64, 0
2, 135102, Control_c, 0, 64, 25
2, 135118, Control_c, 0, 64, 42
2, 135133, Control_c, 0, 64, 45
2, 135147, Control_c, 0, 64, 46
2, 135209, Control_c, 0, 64, 48
2, 135218, Note_on_c, 0, 64, 0
2, 135223, Control_c, 0, 64, 51
2, 135239, Control_c, 0, 64, 54
2, 135254, Control_c, 0, 64, 57
2, 135267, Note_on_c, 0, 59, 40
2, 135268, Control_c, 0, 64, 60
2, 135281, Note_on_c, 0, 66, 42
2, 135284, Control_c, 0, 64, 61
2, 135299, Control_c, 0, 64, 63
2, 135315, Control_c, 0, 64, 63
2, 135330, Control_c, 0, 64, 64
2, 135344, Control_c, 0, 64, 64
2, 135360, Control_c, 0, 64, 65
2, 135376, Control_c, 0, 64, 67
2, 135391, Control_c, 0, 64, 70
2, 135407, Control_c, 0, 64, 73
2, 135422, Control_c, 0, 64, 74
2, 135428, Note_on_c, 0, 67, 0
2, 135438, Control_c, 0, 64, 75
2, 135646, Note_on_c, 0, 59, 0
2, 135658, Note_on_c, 0, 71, 70
2, 135662, Note_on_c, 0, 64, 53
2, 135662, Note_on_c, 0, 66, 0
2, 135671, Note_on_c, 0, 67, 52
2, 135673, Control_c, 0, 64, 74
2, 135688, Control_c, 0, 64, 72
2, 135703, Control_c, 0, 64, 70
2, 135718, Control_c, 0, 64, 67
2, 135733, Control_c, 0, 64, 63
2, 135748, Control_c, 0, 64, 59
2, 135764, Control_c, 0, 64, 55
2, 135779, Control_c, 0, 64, 53
2, 135794, Control_c, 0, 64, 52
2, 135809, Control_c, 0, 64, 52
2, 135824, Control_c, 0, 64, 50
2, 135840, Control_c, 0, 64, 48
2, 135855, Control_c, 0, 64, 46
2, 135869, Control_c, 0, 64, 43
2, 135885, Control_c, 0, 64, 40
2, 135900, Control_c, 0, 64, 39
2, 135946, Control_c, 0, 64, 38
2, 136013, Note_on_c, 0, 64, 0
2, 136043, Note_on_c, 0, 62, 43
2, 136143, Control_c, 0, 64, 39
2, 136441, Control_c, 0, 64, 43
2, 136447, Note_on_c, 0, 61, 44
2, 136456, Control_c, 0, 64, 49
2, 136471, Control_c, 0, 64, 54
2, 136474, Note_on_c, 0, 62, 0
2, 136489, Control_c, 0, 64, 57
2, 136503, Control_c, 0, 64, 60
2, 136519, Control_c, 0, 64, 63
2, 136534, Control_c, 0, 64, 65
2, 136550, Control_c, 0, 64, 67
2, 136564, Control_c, 0, 64, 68
2, 136579, Control_c, 0, 64, 71
2, 136595, Control_c, 0, 64, 76
2, 136610, Control_c, 0, 64, 83
2, 136626, Control_c, 0, 64, 89
2, 136640, Control_c, 0, 64, 90
2, 136747, Control_c, 0, 64, 87
2, 136761, Control_c, 0, 64, 79
2, 136776, Control_c, 0, 64, 70
2, 136792, Control_c, 0, 64, 62
2, 136807, Control_c, 0, 64, 52
2, 136810, Note_on_c, 0, 57, 49
2, 136813, Note_on_c, 0, 64, 49
2, 136822, Control_c, 0, 64, 51
2, 136832, Note_on_c, 0, 67, 0
2, 136837, Control_c, 0, 64, 55
2, 136844, Note_on_c, 0, 61, 0
2, 136852, Control_c, 0, 64, 59
2, 136868, Control_c, 0, 64, 63
2, 136869, Note_on_c, 0, 71, 0
2, 136883, Control_c, 0, 64, 65
2, 136898, Control_c, 0, 64, 68
2, 136913, Control_c, 0, 64, 72
2, 136928, Control_c, 0, 64, 75
2, 136943, Control_c, 0, 64, 82
2, 136958, Control_c, 0, 64, 95
2, 136973, Control_c, 0, 64, 127
2, 137052, Note_on_c, 0, 57, 0
2, 137177, Note_on_c, 0, 64, 0
2, 137180, Note_on_c, 0, 69, 60
2, 137182, Note_on_c, 0, 57, 70
2, 137184, Note_on_c, 0, 66, 53
2, 137380, Note_on_c, 0, 57, 0
2, 137525, Note_on_c, 0, 66, 0
2, 137544, Note_on_c, 0, 57, 65
2, 137548, Note_on_c, 0, 69, 0
2, 137559, Note_on_c, 0, 67, 58
2, 137560, Note_on_c, 0, 64, 56
2, 137574, Control_c, 0, 64, 115
2, 137590, Control_c, 0, 64, 104
2, 137605, Control_c, 0, 64, 100
2, 137667, Control_c, 0, 64, 102
2, 137681, Control_c, 0, 64, 113
2, 137696, Control_c, 0, 64, 127
2, 137860, Note_on_c, 0, 57, 0
2, 137932, Note_on_c, 0, 50, 64
2, 137937, Note_on_c, 0, 66, 70
2, 137941, Note_on_c, 0, 62, 57
2, 137941, Note_on_c, 0, 64, 0
2, 137951, Note_on_c, 0, 67, 0
2, 137963, Control_c, 0, 64, 111
2, 137978, Control_c, 0, 64, 90
2, 137994, Control_c, 0, 64, 77
2, 138009, Control_c, 0, 64, 66
2, 138024, Control_c, 0, 64, 58
2, 138039, Control_c, 0, 64, 27
2, 138054, Control_c, 0, 64, 0
2, 138100, Control_c, 0, 64, 20
2, 138115, Control_c, 0, 64, 45
2, 138130, Control_c, 0, 64, 53
2, 138146, Control_c, 0, 64, 58
2, 138161, Control_c, 0, 64, 60
2, 138176, Control_c, 0, 64, 62
2, 138191, Control_c, 0, 64, 63
2, 138206, Control_c, 0, 64, 66
2, 138221, Control_c, 0, 64, 70
2, 138236, Control_c, 0, 64, 78
2, 138251, Control_c, 0, 64, 85
2, 138267, Control_c, 0, 64, 91
2, 138282, Control_c, 0, 64, 95
2, 138283, Note_on_c, 0, 62, 0
2, 138297, Control_c, 0, 64, 99
2, 138309, Note_on_c, 0, 57, 50
2, 138313, Control_c, 0, 64, 101
2, 138327, Control_c, 0, 64, 102
2, 138342, Control_c, 0, 64, 102
2, 138366, Note_on_c, 0, 50, 0
2, 138654, Note_on_c, 0, 57, 0
2, 138655, Control_c, 0, 64, 102
2, 138659, Note_on_c, 0, 54, 62
2, 138671, Control_c, 0, 64, 99
2, 138672, Note_on_c, 0, 62, 51
2, 138685, Control_c, 0, 64, 93
2, 138700, Control_c, 0, 64, 85
2, 138716, Control_c, 0, 64, 77
2, 138731, Control_c, 0, 64, 70
2, 138747, Control_c, 0, 64, 64
2, 138761, Control_c, 0, 64, 59
2, 138776, Control_c, 0, 64, 53
2, 138792, Control_c, 0, 64, 48
2, 138807, Control_c, 0, 64, 44
2, 138822, Control_c, 0, 64, 43
2, 138838, Control_c, 0, 64, 41
2, 138852, Control_c, 0, 64, 39
2, 138868, Control_c, 0, 64, 37
2, 138883, Control_c, 0, 64, 35
2, 138929, Control_c, 0, 64, 35
2, 138944, Control_c, 0, 64, 34
2, 138959, Control_c, 0, 64, 34
2, 138990, Control_c, 0, 64, 33
2, 139011, Note_on_c, 0, 62, 0
2, 139029, Note_on_c, 0, 61, 52
2, 139094, Control_c, 0, 64, 33
2, 139186, Control_c, 0, 64, 32
2, 139262, Control_c, 0, 64, 32
2, 139292, Control_c, 0, 64, 31
2, 139384, Note_on_c, 0, 61, 0
2, 139391, Control_c, 0, 64, 41
2, 139406, Control_c, 0, 64, 49
2, 139414, Note_on_c, 0, 59, 44
2, 139418, Note_on_c, 0, 68, 63
2, 139421, Control_c, 0, 64, 54
2, 139435, Note_on_c, 0, 66, 0
2, 139437, Control_c, 0, 64, 58
2, 139452, Control_c, 0, 64, 62
2, 139452, Note_on_c, 0, 54, 0
2, 139468, Control_c, 0, 64, 64
2, 139483, Control_c, 0, 64, 68
2, 139498, Control_c, 0, 64, 72
2, 139514, Control_c, 0, 64, 83
2, 139528, Control_c, 0, 64, 97
2, 139543, Control_c, 0, 64, 107
2, 139559, Control_c, 0, 64, 111
2, 139574, Control_c, 0, 64, 115
2, 139724, Note_on_c, 0, 59, 0
2, 139726, Control_c, 0, 64, 111
2, 139741, Control_c, 0, 64, 105
2, 139757, Control_c, 0, 64, 99
2, 139764, Note_on_c, 0, 47, 47
2, 139772, Control_c, 0, 64, 91
2, 139788, Control_c, 0, 64, 85
2, 139802, Control_c, 0, 64, 78
2, 139817, Control_c, 0, 64, 71
2, 139833, Control_c, 0, 64, 66
2, 139848, Control_c, 0, 64, 61
2, 139862, Control_c, 0, 64, 53
2, 139878, Control_c, 0, 64, 48
2, 139893, Control_c, 0, 64, 48
2, 139909, Control_c, 0, 64, 47
2, 139924, Control_c, 0, 64, 47
2, 139954, Control_c, 0, 64, 46
2, 139984, Control_c, 0, 64, 46
2, 140030, Control_c, 0, 64, 45
2, 140141, Note_on_c, 0, 47, 0
2, 140142, Note_on_c, 0, 52, 52
2, 140174, Control_c, 0, 64, 45
2, 140190, Control_c, 0, 64, 44
2, 140327, Control_c, 0, 64, 44
2, 140479, Control_c, 0, 64, 43
2, 140479, Note_on_c, 0, 52, 0
2, 140500, Note_on_c, 0, 59, 44
2, 140502, Note_on_c, 0, 50, 41
2, 140834, Note_on_c, 0, 68, 0
2, 140871, Note_on_c, 0, 49, 39
2, 140874, Note_on_c, 0, 69, 52
2, 140875, Note_on_c, 0, 64, 46
2, 140910, Note_on_c, 0, 50, 0
2, 140926, Note_on_c, 0, 59, 0
2, 141063, Control_c, 0, 64, 43
2, 141242, Note_on_c, 0, 52, 47
2, 141254, Note_on_c, 0, 47, 36
2, 141262, Control_c, 0, 64, 45
2, 141264, Note_on_c, 0, 62, 45
2, 141268, Note_on_c, 0, 64, 0
2, 141278, Control_c, 0, 64, 49
2, 141292, Control_c, 0, 64, 54
2, 141296, Note_on_c, 0, 49, 0
2, 141308, Control_c, 0, 64, 57
2, 141323, Control_c, 0, 64, 59
2, 141338, Control_c, 0, 64, 62
2, 141354, Control_c, 0, 64, 63
2, 141369, Control_c, 0, 64, 64
2, 141384, Control_c, 0, 64, 66
2, 141400, Control_c, 0, 64, 67
2, 141414, Control_c, 0, 64, 68
2, 141430, Control_c, 0, 64, 68
2, 141445, Control_c, 0, 64, 69
2, 141598, Control_c, 0, 64, 67
2, 141608, Note_on_c, 0, 47, 0
2, 141613, Control_c, 0, 64, 66
2, 141620, Note_on_c, 0, 45, 46
2, 141628, Control_c, 0, 64, 64
2, 141634, Note_on_c, 0, 61, 53
2, 141635, Note_on_c, 0, 52, 0
2, 141641, Note_on_c, 0, 57, 46
2, 141643, Control_c, 0, 64, 60
2, 141648, Note_on_c, 0, 62, 0
2, 141658, Control_c, 0, 64, 52
2, 141681, Control_c, 0, 64, 44
2, 141696, Control_c, 0, 64, 41
2, 141975, Note_on_c, 0, 57, 0
2, 142001, Note_on_c, 0, 64, 64
2, 142002, Note_on_c, 0, 69, 0
2, 142016, Note_on_c, 0, 55, 45
2, 142335, Control_c, 0, 64, 42
2, 142351, Control_c, 0, 64, 49
2, 142357, Note_on_c, 0, 55, 0
2, 142357, Note_on_c, 0, 69, 68
2, 142366, Control_c, 0, 64, 55
2, 142366, Note_on_c, 0, 64, 0
2, 142369, Note_on_c, 0, 54, 51
2, 142380, Control_c, 0, 64, 60
2, 142396, Control_c, 0, 64, 63
2, 142411, Control_c, 0, 64, 66
2, 142427, Control_c, 0, 64, 70
2, 142449, Control_c, 0, 64, 76
2, 142464, Control_c, 0, 64, 88
2, 142479, Control_c, 0, 64, 112
2, 142494, Control_c, 0, 64, 127
2, 142516, Note_on_c, 0, 45, 0
2, 142516, Note_on_c, 0, 54, 0
2, 142738, Control_c, 0, 64, 102
2, 142744, Note_on_c, 0, 52, 50
2, 142752, Note_on_c, 0, 67, 70
2, 142754, Control_c, 0, 64, 78
2, 142758, Note_on_c, 0, 45, 46
2, 142769, Control_c, 0, 64, 70
2, 142784, Control_c, 0, 64, 66
2, 142800, Control_c, 0, 64, 65
2, 142814, Note_on_c, 0, 69, 0
2, 142845, Control_c, 0, 64, 67
2, 142860, Control_c, 0, 64, 72
2, 142876, Control_c, 0, 64, 79
2, 142891, Control_c, 0, 64, 88
2, 142905, Control_c, 0, 64, 101
2, 142921, Control_c, 0, 64, 127
2, 142939, Note_on_c, 0, 67, 0
2, 143057, Control_c, 0, 64, 117
2, 143073, Control_c, 0, 64, 88
2, 143088, Control_c, 0, 64, 75
2, 143102, Control_c, 0, 64, 68
2, 143102, Note_on_c, 0, 52, 0
2, 143113, Note_on_c, 0, 50, 50
2, 143114, Note_on_c, 0, 66, 72
2, 143118, Control_c, 0, 64, 63
2, 143133, Control_c, 0, 64, 57
2, 143148, Note_on_c, 0, 45, 0
2, 143149, Control_c, 0, 64, 49
2, 143164, Control_c, 0, 64, 42
2, 143178, Control_c, 0, 64, 32
2, 143194, Control_c, 0, 64, 21
2, 143217, Control_c, 0, 64, 0
2, 143480, Note_on_c, 0, 57, 55
2, 143482, Note_on_c, 0, 49, 38
2, 143483, Note_on_c, 0, 61, 0
2, 143845, Note_on_c, 0, 47, 45
2, 143846, Note_on_c, 0, 62, 62
2, 143851, Note_on_c, 0, 57, 0
2, 143864, Note_on_c, 0, 50, 0
2, 143880, Note_on_c, 0, 49, 0
2, 144201, Note_on_c, 0, 50, 47
2, 144201, Note_on_c, 0, 61, 56
2, 144206, Note_on_c, 0, 47, 0
2, 144212, Note_on_c, 0, 45, 32
2, 144228, Note_on_c, 0, 62, 0
2, 144243, Control_c, 0, 64, 20
2, 144258, Control_c, 0, 64, 42
2, 144274, Control_c, 0, 64, 49
2, 144288, Control_c, 0, 64, 53
2, 144303, Control_c, 0, 64, 55
2, 144319, Control_c, 0, 64, 57
2, 144334, Control_c, 0, 64, 59
2, 144350, Control_c, 0, 64, 61
2, 144364, Control_c, 0, 64, 62
2, 144370, Note_on_c, 0, 45, 0
2, 144379, Control_c, 0, 64, 62
2, 144396, Control_c, 0, 64, 63
2, 144398, Note_on_c, 0, 66, 0
2, 144411, Control_c, 0, 64, 65
2, 144427, Control_c, 0, 64, 66
2, 144442, Control_c, 0, 64, 67
2, 144532, Control_c, 0, 64, 66
2, 144548, Control_c, 0, 64, 65
2, 144563, Control_c, 0, 64, 63
2, 144578, Control_c, 0, 64, 60
2, 144578, Note_on_c, 0, 43, 41
2, 144579, Note_on_c, 0, 64, 63
2, 144581, Note_on_c, 0, 61, 0
2, 144591, Note_on_c, 0, 55, 32
2, 144592, Note_on_c, 0, 50, 0
2, 144593, Control_c, 0, 64, 56
2, 144605, Note_on_c, 0, 59, 36
2, 144608, Control_c, 0, 64, 51
2, 144623, Control_c, 0, 64, 46
2, 144639, Control_c, 0, 64, 43
2, 144654, Control_c, 0, 64, 40
2, 144669, Control_c, 0, 64, 38
2, 144684, Control_c, 0, 64, 37
2, 144699, Control_c, 0, 64, 37
2, 144714, Control_c, 0, 64, 36
2, 144753, Control_c, 0, 64, 36
2, 144783, Control_c, 0, 64, 35
2, 144813, Control_c, 0, 64, 34
2, 144829, Control_c, 0, 64, 33
2, 144844, Control_c, 0, 64, 33
2, 144958, Note_on_c, 0, 62, 64
2, 144962, Note_on_c, 0, 54, 56
2, 144979, Note_on_c, 0, 55, 0
2, 144990, Note_on_c, 0, 64, 0
2, 145178, Control_c, 0, 64, 31
2, 145194, Control_c, 0, 64, 26
2, 145210, Control_c, 0, 64, 0
2, 145322, Note_on_c, 0, 52, 44
2, 145325, Note_on_c, 0, 61, 72
2, 145331, Note_on_c, 0, 57, 44
2, 145331, Note_on_c, 0, 59, 0
2, 145338, Note_on_c, 0, 54, 0
2, 145344, Note_on_c, 0, 62, 0
2, 145462, Note_on_c, 0, 43, 0
2, 145469, Control_c, 0, 64, 16
2, 145484, Control_c, 0, 64, 51
2, 145499, Control_c, 0, 64, 58
2, 145521, Control_c, 0, 64, 63
2, 145536, Control_c, 0, 64, 67
2, 145552, Control_c, 0, 64, 73
2, 145567, Control_c, 0, 64, 81
2, 145581, Control_c, 0, 64, 90
2, 145597, Control_c, 0, 64, 95
2, 145612, Control_c, 0, 64, 98
2, 145628, Control_c, 0, 64, 98
2, 145704, Control_c, 0, 64, 98
2, 145711, Note_on_c, 0, 42, 54
2, 145719, Control_c, 0, 64, 91
2, 145734, Control_c, 0, 64, 79
2, 145737, Note_on_c, 0, 52, 0
2, 145750, Control_c, 0, 64, 67
2, 145765, Control_c, 0, 64, 44
2, 145779, Control_c, 0, 64, 0
2, 145841, Control_c, 0, 64, 47
2, 145855, Control_c, 0, 64, 59
2, 145871, Control_c, 0, 64, 63
2, 145886, Control_c, 0, 64, 65
2, 145900, Control_c, 0, 64, 68
2, 145916, Control_c, 0, 64, 71
2, 145931, Control_c, 0, 64, 76
2, 145947, Control_c, 0, 64, 79
2, 145962, Control_c, 0, 64, 80
2, 146099, Control_c, 0, 64, 80
2, 146115, Control_c, 0, 64, 79
2, 146130, Control_c, 0, 64, 75
2, 146135, Note_on_c, 0, 50, 47
2, 146136, Note_on_c, 0, 56, 57
2, 146136, Note_on_c, 0, 57, 0
2, 146140, Note_on_c, 0, 47, 38
2, 146145, Control_c, 0, 64, 69
2, 146147, Note_on_c, 0, 62, 65
2, 146157, Note_on_c, 0, 61, 0
2, 146160, Control_c, 0, 64, 61
2, 146166, Note_on_c, 0, 42, 0
2, 146175, Control_c, 0, 64, 0
2, 146249, Note_on_c, 0, 50, 0
2, 146251, Control_c, 0, 64, 45
2, 146267, Control_c, 0, 64, 58
2, 146289, Control_c, 0, 64, 64
2, 146304, Control_c, 0, 64, 67
2, 146320, Control_c, 0, 64, 71
2, 146335, Control_c, 0, 64, 77
2, 146351, Control_c, 0, 64, 83
2, 146365, Control_c, 0, 64, 86
2, 146380, Control_c, 0, 64, 88
2, 146389, Note_on_c, 0, 56, 0
2, 146488, Note_on_c, 0, 47, 0
2, 146518, Control_c, 0, 64, 87
2, 146533, Control_c, 0, 64, 83
2, 146533, Note_on_c, 0, 45, 45
2, 146533, Note_on_c, 0, 49, 43
2, 146535, Note_on_c, 0, 54, 48
2, 146548, Control_c, 0, 64, 73
2, 146563, Control_c, 0, 64, 61
2, 146578, Control_c, 0, 64, 13
2, 146594, Control_c, 0, 64, 0
2, 146639, Control_c, 0, 64, 34
2, 146654, Control_c, 0, 64, 51
2, 146670, Control_c, 0, 64, 57
2, 146685, Control_c, 0, 64, 61
2, 146694, Note_on_c, 0, 45, 0
2, 146699, Control_c, 0, 64, 64
2, 146715, Control_c, 0, 64, 67
2, 146730, Control_c, 0, 64, 70
2, 146743, Note_on_c, 0, 54, 0
2, 146744, Control_c, 0, 64, 72
2, 146830, Note_on_c, 0, 49, 0
2, 146914, Control_c, 0, 64, 71
2, 146924, Note_on_c, 0, 47, 28
2, 146928, Control_c, 0, 64, 70
2, 146933, Note_on_c, 0, 52, 43
2, 146940, Note_on_c, 0, 44, 38
2, 146943, Control_c, 0, 64, 67
2, 146959, Control_c, 0, 64, 64
2, 146974, Control_c, 0, 64, 59
2, 146990, Control_c, 0, 64, 49
2, 147004, Control_c, 0, 64, 42
2, 147019, Control_c, 0, 64, 34
2, 147035, Control_c, 0, 64, 21
2, 147057, Control_c, 0, 64, 0
2, 147339, Note_on_c, 0, 62, 0
2, 147339, Note_on_c, 0, 71, 62
2, 147485, Note_on_c, 0, 71, 0
2, 147518, Note_on_c, 0, 69, 54
2, 147695, Note_on_c, 0, 69, 0
2, 147710, Note_on_c, 0, 71, 61
2, 147849, Note_on_c, 0, 71, 0
2, 148080, Note_on_c, 0, 62, 52
2, 148265, Control_c, 0, 64, 32
2, 148281, Control_c, 0, 64, 43
2, 148296, Control_c, 0, 64, 48
2, 148311, Control_c, 0, 64, 52
2, 148326, Control_c, 0, 64, 53
2, 148330, Note_on_c, 0, 44, 0
2, 148341, Control_c, 0, 64, 54
2, 148357, Control_c, 0, 64, 54
2, 148447, Control_c, 0, 64, 54
2, 148447, Note_on_c, 0, 47, 0
2, 148462, Control_c, 0, 64, 53
2, 148474, Note_on_c, 0, 62, 0
2, 148479, Control_c, 0, 64, 51
2, 148487, Note_on_c, 0, 45, 36
2, 148487, Note_on_c, 0, 61, 49
2, 148494, Control_c, 0, 64, 49
2, 148510, Control_c, 0, 64, 46
2, 148525, Control_c, 0, 64, 40
2, 148539, Control_c, 0, 64, 30
2, 148555, Control_c, 0, 64, 0
2, 148684, Control_c, 0, 64, 13
2, 148699, Control_c, 0, 64, 36
2, 148715, Control_c, 0, 64, 43
2, 148730, Control_c, 0, 64, 48
2, 148744, Control_c, 0, 64, 52
2, 148760, Control_c, 0, 64, 54
2, 148775, Control_c, 0, 64, 56
2, 148791, Control_c, 0, 64, 58
2, 148806, Control_c, 0, 64, 60
2, 148820, Control_c, 0, 64, 61
2, 148836, Control_c, 0, 64, 62
2, 148851, Control_c, 0, 64, 63
2, 148867, Control_c, 0, 64, 63
2, 148877, Note_on_c, 0, 64, 48
2, 148881, Control_c, 0, 64, 64
2, 148896, Control_c, 0, 64, 65
2, 148912, Control_c, 0, 64, 68
2, 148927, Control_c, 0, 64, 73
2, 148941, Control_c, 0, 64, 79
2, 148957, Control_c, 0, 64, 81
2, 148972, Control_c, 0, 64, 83
2, 148988, Control_c, 0, 64, 85
2, 148997, Note_on_c, 0, 45, 0
2, 149003, Control_c, 0, 64, 86
2, 149010, Note_on_c, 0, 64, 0
2, 149018, Control_c, 0, 64, 87
2, 149244, Note_on_c, 0, 64, 65
2, 149256, Note_on_c, 0, 43, 40
2, 149261, Control_c, 0, 64, 85
2, 149276, Control_c, 0, 64, 79
2, 149291, Control_c, 0, 64, 71
2, 149309, Control_c, 0, 64, 61
2, 149323, Control_c, 0, 64, 44
2, 149338, Control_c, 0, 64, 38
2, 149361, Control_c, 0, 64, 44
2, 149376, Control_c, 0, 64, 54
2, 149392, Control_c, 0, 64, 60
2, 149407, Control_c, 0, 64, 63
2, 149421, Control_c, 0, 64, 66
2, 149437, Control_c, 0, 64, 69
2, 149452, Control_c, 0, 64, 76
2, 149468, Control_c, 0, 64, 86
2, 149483, Control_c, 0, 64, 103
2, 149498, Control_c, 0, 64, 127
2, 149511, Note_on_c, 0, 64, 0
2, 149535, Note_on_c, 0, 43, 0
2, 149630, Note_on_c, 0, 64, 73
2, 149976, Note_on_c, 0, 42, 49
2, 150009, Note_on_c, 0, 57, 66
2, 150013, Control_c, 0, 64, 105
2, 150018, Note_on_c, 0, 64, 0
2, 150021, Note_on_c, 0, 61, 0
2, 150029, Control_c, 0, 64, 85
2, 150034, Note_on_c, 0, 52, 0
2, 150044, Control_c, 0, 64, 69
2, 150059, Control_c, 0, 64, 59
2, 150074, Control_c, 0, 64, 0
2, 150143, Control_c, 0, 64, 8
2, 150159, Control_c, 0, 64, 42
2, 150174, Control_c, 0, 64, 50
2, 150190, Control_c, 0, 64, 56
2, 150205, Control_c, 0, 64, 62
2, 150219, Control_c, 0, 64, 65
2, 150235, Control_c, 0, 64, 69
2, 150250, Control_c, 0, 64, 74
2, 150265, Control_c, 0, 64, 81
2, 150281, Control_c, 0, 64, 87
2, 150296, Control_c, 0, 64, 91
2, 150311, Control_c, 0, 64, 92
2, 150326, Control_c, 0, 64, 92
2, 150341, Control_c, 0, 64, 93
2, 150356, Control_c, 0, 64, 94
2, 150361, Note_on_c, 0, 55, 48
2, 150361, Note_on_c, 0, 64, 53
2, 150371, Control_c, 0, 64, 95
2, 150614, Note_on_c, 0, 57, 0
2, 150705, Control_c, 0, 64, 94
2, 150709, Note_on_c, 0, 55, 0
2, 150721, Control_c, 0, 64, 89
2, 150724, Note_on_c, 0, 54, 52
2, 150732, Note_on_c, 0, 64, 0
2, 150733, Note_on_c, 0, 60, 66
2, 150736, Control_c, 0, 64, 81
2, 150736, Note_on_c, 0, 69, 54
2, 150751, Control_c, 0, 64, 72
2, 150766, Control_c, 0, 64, 64
2, 150781, Control_c, 0, 64, 47
2, 150797, Control_c, 0, 64, 0
2, 150873, Control_c, 0, 64, 42
2, 150895, Control_c, 0, 64, 53
2, 150911, Control_c, 0, 64, 58
2, 150926, Control_c, 0, 64, 63
2, 150941, Control_c, 0, 64, 67
2, 150957, Control_c, 0, 64, 71
2, 150972, Control_c, 0, 64, 77
2, 150988, Control_c, 0, 64, 82
2, 151003, Control_c, 0, 64, 89
2, 151017, Control_c, 0, 64, 95
2, 151032, Note_on_c, 0, 54, 0
2, 151033, Control_c, 0, 64, 105
2, 151048, Control_c, 0, 64, 127
2, 151091, Note_on_c, 0, 69, 0
2, 151096, Note_on_c, 0, 52, 42
2, 151112, Note_on_c, 0, 67, 55
2, 151161, Note_on_c, 0, 42, 0
2, 151182, Note_on_c, 0, 67, 0
2, 151443, Control_c, 0, 64, 111
2, 151458, Control_c, 0, 64, 92
2, 151460, Note_on_c, 0, 66, 54
2, 151461, Note_on_c, 0, 51, 41
2, 151463, Note_on_c, 0, 52, 0
2, 151474, Control_c, 0, 64, 80
2, 151480, Note_on_c, 0, 47, 33
2, 151489, Control_c, 0, 64, 72
2, 151503, Control_c, 0, 64, 65
2, 151519, Control_c, 0, 64, 54
2, 151534, Control_c, 0, 64, 21
2, 151550, Control_c, 0, 64, 0
2, 151641, Control_c, 0, 64, 37
2, 151663, Control_c, 0, 64, 48
2, 151679, Control_c, 0, 64, 53
2, 151685, Note_on_c, 0, 60, 0
2, 151693, Control_c, 0, 64, 56
2, 151709, Control_c, 0, 64, 60
2, 151724, Control_c, 0, 64, 63
2, 151739, Control_c, 0, 64, 63
2, 151771, Control_c, 0, 64, 63
2, 151785, Control_c, 0, 64, 62
2, 151801, Control_c, 0, 64, 60
2, 151816, Control_c, 0, 64, 58
2, 151832, Control_c, 0, 64, 55
2, 151837, Note_on_c, 0, 54, 58
2, 151846, Control_c, 0, 64, 51
2, 151861, Control_c, 0, 64, 46
2, 151877, Control_c, 0, 64, 38
2, 151892, Control_c, 0, 64, 29
2, 151908, Control_c, 0, 64, 19
2, 151923, Control_c, 0, 64, 0
2, 152201, Note_on_c, 0, 59, 54
2, 152205, Note_on_c, 0, 54, 0
2, 152564, Note_on_c, 0, 59, 0
2, 152574, Note_on_c, 0, 57, 53
2, 152931, Note_on_c, 0, 57, 0
2, 152949, Note_on_c, 0, 55, 50
2, 152955, Note_on_c, 0, 47, 0
2, 152961, Note_on_c, 0, 52, 36
2, 152973, Note_on_c, 0, 66, 0
2, 152983, Note_on_c, 0, 51, 0
2, 153313, Note_on_c, 0, 71, 66
2, 153319, Note_on_c, 0, 50, 44
2, 153326, Note_on_c, 0, 59, 49
2, 153355, Control_c, 0, 64, 31
2, 153370, Control_c, 0, 64, 45
2, 153384, Note_on_c, 0, 55, 0
2, 153385, Control_c, 0, 64, 53
2, 153399, Note_on_c, 0, 52, 0
2, 153401, Control_c, 0, 64, 58
2, 153416, Control_c, 0, 64, 62
2, 153432, Control_c, 0, 64, 66
2, 153447, Control_c, 0, 64, 74
2, 153463, Control_c, 0, 64, 91
2, 153477, Control_c, 0, 64, 117
2, 153492, Control_c, 0, 64, 127
2, 153549, Note_on_c, 0, 71, 0
2, 153580, Note_on_c, 0, 59, 0
2, 153688, Note_on_c, 0, 71, 76
2, 153695, Note_on_c, 0, 55, 51
2, 153702, Note_on_c, 0, 64, 60
2, 153720, Control_c, 0, 64, 95
2, 153721, Note_on_c, 0, 50, 0
2, 153735, Control_c, 0, 64, 75
2, 153750, Control_c, 0, 64, 59
2, 153765, Control_c, 0, 64, 37
2, 153781, Control_c, 0, 64, 35
2, 153796, Control_c, 0, 64, 40
2, 153811, Control_c, 0, 64, 50
2, 153827, Control_c, 0, 64, 58
2, 153842, Control_c, 0, 64, 62
2, 153857, Control_c, 0, 64, 65
2, 153873, Control_c, 0, 64, 68
2, 153887, Control_c, 0, 64, 72
2, 153903, Control_c, 0, 64, 76
2, 153918, Control_c, 0, 64, 80
2, 153922, Note_on_c, 0, 71, 0
2, 153932, Control_c, 0, 64, 84
2, 153948, Control_c, 0, 64, 88
2, 153970, Control_c, 0, 64, 92
2, 153986, Control_c, 0, 64, 94
2, 154001, Control_c, 0, 64, 95
2, 154016, Control_c, 0, 64, 95
2, 154032, Control_c, 0, 64, 96
2, 154047, Control_c, 0, 64, 96
2, 154066, Note_on_c, 0, 71, 79
2, 154068, Note_on_c, 0, 64, 0
2, 154074, Note_on_c, 0, 62, 63
2, 154382, Control_c, 0, 64, 95
2, 154396, Control_c, 0, 64, 92
2, 154411, Control_c, 0, 64, 88
2, 154420, Note_on_c, 0, 62, 0
2, 154426, Note_on_c, 0, 71, 0
2, 154427, Control_c, 0, 64, 84
2, 154439, Note_on_c, 0, 64, 70
2, 154441, Control_c, 0, 64, 82
2, 154450, Note_on_c, 0, 61, 52
2, 154456, Control_c, 0, 64, 80
2, 154472, Control_c, 0, 64, 79
2, 154487, Control_c, 0, 64, 78
2, 154503, Control_c, 0, 64, 76
2, 154518, Control_c, 0, 64, 73
2, 154533, Control_c, 0, 64, 71
2, 154548, Control_c, 0, 64, 70
2, 154563, Control_c, 0, 64, 68
2, 154578, Control_c, 0, 64, 66
2, 154594, Control_c, 0, 64, 64
2, 154609, Control_c, 0, 64, 63
2, 154625, Control_c, 0, 64, 62
2, 154640, Control_c, 0, 64, 61
2, 154654, Control_c, 0, 64, 60
2, 154670, Control_c, 0, 64, 59
2, 154685, Control_c, 0, 64, 59
2, 154700, Control_c, 0, 64, 57
2, 154715, Control_c, 0, 64, 55
2, 154737, Control_c, 0, 64, 51
2, 154753, Control_c, 0, 64, 47
2, 154768, Control_c, 0, 64, 44
2, 154784, Control_c, 0, 64, 42
2, 154799, Control_c, 0, 64, 41
2, 154814, Control_c, 0, 64, 40
2, 154830, Control_c, 0, 64, 40
2, 154830, Note_on_c, 0, 59, 42
2, 154845, Control_c, 0, 64, 39
2, 154886, Note_on_c, 0, 61, 0
2, 154890, Control_c, 0, 64, 39
2, 155138, Note_on_c, 0, 59, 0
2, 155166, Note_on_c, 0, 58, 57
2, 155185, Note_on_c, 0, 67, 69
2, 155189, Note_on_c, 0, 49, 40
2, 155277, Note_on_c, 0, 64, 0
2, 155536, Note_on_c, 0, 50, 39
2, 155563, Note_on_c, 0, 58, 0
2, 155565, Note_on_c, 0, 59, 47
2, 155583, Control_c, 0, 64, 38
2, 155596, Note_on_c, 0, 49, 0
2, 155606, Note_on_c, 0, 55, 0
2, 155613, Control_c, 0, 64, 38
2, 155903, Control_c, 0, 64, 38
2, 155918, Control_c, 0, 64, 46
2, 155922, Note_on_c, 0, 52, 33
2, 155930, Note_on_c, 0, 61, 48
2, 155933, Control_c, 0, 64, 53
2, 155949, Control_c, 0, 64, 58
2, 155964, Control_c, 0, 64, 61
2, 155980, Control_c, 0, 64, 63
2, 155988, Note_on_c, 0, 50, 0
2, 155994, Control_c, 0, 64, 65
2, 156009, Control_c, 0, 64, 67
2, 156025, Control_c, 0, 64, 69
2, 156040, Control_c, 0, 64, 71
2, 156055, Control_c, 0, 64, 73
2, 156056, Note_on_c, 0, 59, 0
2, 156058, Note_on_c, 0, 67, 0
2, 156070, Control_c, 0, 64, 75
2, 156085, Control_c, 0, 64, 77
2, 156091, Note_on_c, 0, 61, 0
2, 156101, Control_c, 0, 64, 80
2, 156116, Control_c, 0, 64, 81
2, 156131, Control_c, 0, 64, 82
2, 156237, Control_c, 0, 64, 81
2, 156252, Control_c, 0, 64, 80
2, 156275, Control_c, 0, 64, 78
2, 156290, Control_c, 0, 64, 74
2, 156303, Note_on_c, 0, 52, 0
2, 156306, Control_c, 0, 64, 70
2, 156306, Note_on_c, 0, 55, 44
2, 156310, Note_on_c, 0, 61, 67
2, 156312, Note_on_c, 0, 64, 52
2, 156321, Control_c, 0, 64, 67
2, 156336, Control_c, 0, 64, 63
2, 156351, Control_c, 0, 64, 58
2, 156366, Control_c, 0, 64, 53
2, 156382, Control_c, 0, 64, 50
2, 156396, Control_c, 0, 64, 50
2, 156442, Control_c, 0, 64, 49
2, 156457, Control_c, 0, 64, 48
2, 156472, Control_c, 0, 64, 47
2, 156487, Control_c, 0, 64, 46
2, 156503, Control_c, 0, 64, 46
2, 156518, Control_c, 0, 64, 45
2, 156548, Control_c, 0, 64, 45
2, 156563, Control_c, 0, 64, 44
2, 156651, Note_on_c, 0, 61, 0
2, 156705, Note_on_c, 0, 46, 28
2, 156708, Note_on_c, 0, 66, 60
2, 156714, Note_on_c, 0, 64, 0
2, 156715, Note_on_c, 0, 54, 42
2, 156731, Control_c, 0, 64, 44
2, 156732, Note_on_c, 0, 62, 42
2, 156767, Note_on_c, 0, 55, 0
2, 156777, Control_c, 0, 64, 43
2, 156807, Control_c, 0, 64, 43
2, 156823, Control_c, 0, 64, 42
2, 156838, Control_c, 0, 64, 41
2, 156853, Control_c, 0, 64, 40
2, 156869, Control_c, 0, 64, 39
2, 156884, Control_c, 0, 64, 39
2, 156929, Control_c, 0, 64, 40
2, 156942, Control_c, 0, 64, 45
2, 156958, Control_c, 0, 64, 50
2, 156973, Control_c, 0, 64, 54
2, 156988, Control_c, 0, 64, 56
2, 157003, Control_c, 0, 64, 59
2, 157018, Control_c, 0, 64, 61
2, 157041, Control_c, 0, 64, 63
2, 157054, Note_on_c, 0, 62, 0
2, 157056, Control_c, 0, 64, 64
2, 157072, Control_c, 0, 64, 66
2, 157072, Note_on_c, 0, 66, 0
2, 157082, Note_on_c, 0, 61, 47
2, 157087, Control_c, 0, 64, 68
2, 157087, Note_on_c, 0, 64, 60
2, 157101, Control_c, 0, 64, 69
2, 157117, Control_c, 0, 64, 70
2, 157132, Control_c, 0, 64, 72
2, 157148, Control_c, 0, 64, 74
2, 157163, Control_c, 0, 64, 76
2, 157178, Control_c, 0, 64, 77
2, 157178, Note_on_c, 0, 46, 0
2, 157193, Control_c, 0, 64, 78
2, 157208, Control_c, 0, 64, 79
2, 157223, Control_c, 0, 64, 80
2, 157269, Note_on_c, 0, 61, 0
2, 157360, Control_c, 0, 64, 79
2, 157375, Control_c, 0, 64, 78
2, 157390, Control_c, 0, 64, 77
2, 157405, Control_c, 0, 64, 74
2, 157420, Control_c, 0, 64, 70
2, 157427, Note_on_c, 0, 64, 0
2, 157436, Control_c, 0, 64, 65
2, 157447, Note_on_c, 0, 62, 50
2, 157450, Control_c, 0, 64, 59
2, 157453, Note_on_c, 0, 59, 40
2, 157457, Note_on_c, 0, 47, 34
2, 157459, Note_on_c, 0, 54, 0
2, 157464, Control_c, 0, 64, 52
2, 157480, Control_c, 0, 64, 50
2, 157496, Control_c, 0, 64, 49
2, 157527, Control_c, 0, 64, 49
2, 157541, Control_c, 0, 64, 48
2, 157557, Control_c, 0, 64, 45
2, 157572, Control_c, 0, 64, 43
2, 157588, Control_c, 0, 64, 40
2, 157603, Control_c, 0, 64, 39
2, 157617, Control_c, 0, 64, 38
2, 157818, Note_on_c, 0, 62, 0
2, 157825, Note_on_c, 0, 66, 66
2, 157827, Note_on_c, 0, 57, 44
2, 157862, Note_on_c, 0, 59, 0
2, 157883, Control_c, 0, 64, 38
2, 158190, Note_on_c, 0, 71, 73
2, 158193, Note_on_c, 0, 57, 0
2, 158195, Note_on_c, 0, 66, 0
2, 158196, Note_on_c, 0, 56, 41
2, 158554, Note_on_c, 0, 54, 57
2, 158556, Note_on_c, 0, 69, 65
2, 158575, Note_on_c, 0, 47, 0
2, 158578, Note_on_c, 0, 56, 0
2, 158589, Note_on_c, 0, 71, 0
2, 158912, Note_on_c, 0, 69, 0
2, 158915, Note_on_c, 0, 54, 0
2, 158920, Note_on_c, 0, 68, 67
2, 158930, Note_on_c, 0, 52, 41
2, 159001, Control_c, 0, 64, 37
2, 159032, Control_c, 0, 64, 37
2, 159230, Control_c, 0, 64, 36
2, 159245, Control_c, 0, 64, 36
2, 159276, Control_c, 0, 64, 35
2, 159291, Note_on_c, 0, 71, 80
2, 159297, Note_on_c, 0, 50, 55
2, 159360, Control_c, 0, 64, 35
2, 159512, Control_c, 0, 64, 34
2, 159654, Note_on_c, 0, 49, 46
2, 159674, Note_on_c, 0, 76, 79
2, 159675, Note_on_c, 0, 71, 0
2, 159679, Control_c, 0, 64, 34
2, 159690, Note_on_c, 0, 50, 0
2, 159755, Control_c, 0, 64, 33
2, 159769, Control_c, 0, 64, 33
2, 159784, Control_c, 0, 64, 32
2, 159800, Control_c, 0, 64, 32
2, 159815, Control_c, 0, 64, 31
2, 159845, Control_c, 0, 64, 31
2, 160034, Note_on_c, 0, 76, 0
2, 160040, Note_on_c, 0, 49, 0
2, 160040, Note_on_c, 0, 74, 68
2, 160046, Note_on_c, 0, 47, 46
2, 160409, Note_on_c, 0, 74, 0
2, 160415, Note_on_c, 0, 45, 46
2, 160420, Note_on_c, 0, 73, 68
2, 160423, Note_on_c, 0, 47, 0
2, 160445, Note_on_c, 0, 68, 0
2, 160456, Note_on_c, 0, 52, 0
2, 160523, Control_c, 0, 64, 30
2, 160643, Control_c, 0, 64, 30
2, 160674, Control_c, 0, 64, 29
2, 160688, Control_c, 0, 64, 27
2, 160703, Control_c, 0, 64, 26
2, 160719, Control_c, 0, 64, 22
2, 160734, Control_c, 0, 64, 15
2, 160750, Control_c, 0, 64, 0
2, 160777, Note_on_c, 0, 52, 44
2, 160785, Note_on_c, 0, 69, 64
2, 160796, Control_c, 0, 64, 18
2, 160811, Control_c, 0, 64, 39
2, 160827, Control_c, 0, 64, 51
2, 160841, Control_c, 0, 64, 56
2, 160856, Control_c, 0, 64, 60
2, 160880, Control_c, 0, 64, 63
2, 160895, Control_c, 0, 64, 66
2, 160911, Control_c, 0, 64, 70
2, 160925, Control_c, 0, 64, 83
2, 160940, Control_c, 0, 64, 127
2, 160957, Note_on_c, 0, 69, 0
2, 161129, Note_on_c, 0, 45, 0
2, 161157, Note_on_c, 0, 69, 74
2, 161159, Note_on_c, 0, 57, 55
2, 161221, Note_on_c, 0, 57, 0
2, 161269, Note_on_c, 0, 52, 0
2, 161282, Note_on_c, 0, 69, 0
2, 161502, Control_c, 0, 64, 112
2, 161504, Note_on_c, 0, 45, 46
2, 161518, Control_c, 0, 64, 79
2, 161518, Note_on_c, 0, 55, 48
2, 161520, Note_on_c, 0, 69, 72
2, 161532, Control_c, 0, 64, 65
2, 161548, Control_c, 0, 64, 50
2, 161563, Control_c, 0, 64, 45
2, 161578, Control_c, 0, 64, 53
2, 161595, Control_c, 0, 64, 61
2, 161610, Control_c, 0, 64, 66
2, 161621, Note_on_c, 0, 45, 0
2, 161625, Control_c, 0, 64, 74
2, 161631, Note_on_c, 0, 69, 0
2, 161631, Note_on_c, 0, 73, 0
2, 161648, Control_c, 0, 64, 82
2, 161663, Control_c, 0, 64, 92
2, 161679, Control_c, 0, 64, 111
2, 161693, Control_c, 0, 64, 127
2, 161891, Control_c, 0, 64, 94
2, 161898, Note_on_c, 0, 54, 49
2, 161900, Note_on_c, 0, 55, 0
2, 161901, Note_on_c, 0, 47, 43
2, 161903, Note_on_c, 0, 62, 72
2, 161905, Control_c, 0, 64, 75
2, 161921, Control_c, 0, 64, 63
2, 161936, Control_c, 0, 64, 16
2, 161952, Control_c, 0, 64, 0
2, 162028, Control_c, 0, 64, 30
2, 162043, Control_c, 0, 64, 46
2, 162058, Control_c, 0, 64, 52
2, 162074, Control_c, 0, 64, 59
2, 162089, Control_c, 0, 64, 64
2, 162103, Control_c, 0, 64, 67
2, 162119, Control_c, 0, 64, 69
2, 162134, Control_c, 0, 64, 72
2, 162150, Control_c, 0, 64, 76
2, 162165, Control_c, 0, 64, 79
2, 162180, Control_c, 0, 64, 81
2, 162196, Control_c, 0, 64, 84
2, 162211, Control_c, 0, 64, 87
2, 162225, Control_c, 0, 64, 91
2, 162241, Control_c, 0, 64, 97
2, 162243, Note_on_c, 0, 54, 0
2, 162256, Control_c, 0, 64, 104
2, 162267, Note_on_c, 0, 74, 68
2, 162272, Control_c, 0, 64, 111
2, 162272, Note_on_c, 0, 52, 38
2, 162287, Control_c, 0, 64, 117
2, 162301, Control_c, 0, 64, 127
2, 162397, Note_on_c, 0, 74, 0
2, 162637, Note_on_c, 0, 74, 78
2, 162638, Note_on_c, 0, 50, 56
2, 162638, Note_on_c, 0, 66, 68
2, 162643, Control_c, 0, 64, 100
2, 162654, Note_on_c, 0, 52, 0
2, 162658, Control_c, 0, 64, 78
2, 162668, Note_on_c, 0, 62, 0
2, 162674, Control_c, 0, 64, 65
2, 162688, Control_c, 0, 64, 56
2, 162703, Control_c, 0, 64, 53
2, 162719, Control_c, 0, 64, 56
2, 162731, Note_on_c, 0, 47, 0
2, 162734, Control_c, 0, 64, 61
2, 162748, Control_c, 0, 64, 65
2, 162764, Control_c, 0, 64, 68
2, 162779, Control_c, 0, 64, 72
2, 162795, Control_c, 0, 64, 76
2, 162810, Control_c, 0, 64, 80
2, 162824, Control_c, 0, 64, 85
2, 162840, Control_c, 0, 64, 101
2, 162844, Note_on_c, 0, 74, 0
2, 162855, Control_c, 0, 64, 127
2, 163001, Note_on_c, 0, 74, 75
2, 163008, Note_on_c, 0, 47, 52
2, 163037, Note_on_c, 0, 50, 0
2, 163087, Note_on_c, 0, 47, 0
2, 163098, Note_on_c, 0, 74, 0
2, 163364, Note_on_c, 0, 40, 43
2, 163370, Note_on_c, 0, 52, 47
2, 163371, Note_on_c, 0, 67, 71
2, 163379, Control_c, 0, 64, 107
2, 163395, Control_c, 0, 64, 79
2, 163410, Control_c, 0, 64, 64
2, 163425, Control_c, 0, 64, 27
2, 163441, Control_c, 0, 64, 0
2, 163471, Control_c, 0, 64, 33
2, 163487, Control_c, 0, 64, 53
2, 163502, Control_c, 0, 64, 61
2, 163505, Note_on_c, 0, 52, 0
2, 163517, Control_c, 0, 64, 66
2, 163532, Control_c, 0, 64, 75
2, 163540, Note_on_c, 0, 66, 0
2, 163547, Control_c, 0, 64, 97
2, 163563, Control_c, 0, 64, 127
2, 163734, Note_on_c, 0, 59, 63
2, 163737, Note_on_c, 0, 54, 51
2, 163749, Note_on_c, 0, 40, 0
2, 163843, Note_on_c, 0, 54, 0
2, 163862, Note_on_c, 0, 59, 0
2, 164083, Note_on_c, 0, 55, 51
2, 164096, Note_on_c, 0, 71, 76
2, 164108, Note_on_c, 0, 64, 59
2, 164129, Note_on_c, 0, 67, 0
2, 164133, Control_c, 0, 64, 107
2, 164148, Control_c, 0, 64, 87
2, 164164, Control_c, 0, 64, 74
2, 164178, Control_c, 0, 64, 66
2, 164194, Control_c, 0, 64, 57
2, 164209, Control_c, 0, 64, 29
2, 164223, Control_c, 0, 64, 0
2, 164437, Note_on_c, 0, 64, 0
2, 164443, Note_on_c, 0, 52, 41
2, 164453, Note_on_c, 0, 62, 56
2, 164462, Note_on_c, 0, 55, 0
2, 164800, Note_on_c, 0, 62, 0
2, 164818, Note_on_c, 0, 61, 51
2, 164828, Note_on_c, 0, 52, 0
2, 164828, Note_on_c, 0, 55, 41
2, 164834, Note_on_c, 0, 45, 35
2, 164986, Note_on_c, 0, 55, 0
2, 165197, Note_on_c, 0, 64, 55
2, 165205, Note_on_c, 0, 55, 35
2, 165248, Note_on_c, 0, 71, 0
2, 165566, Note_on_c, 0, 69, 59
2, 165569, Note_on_c, 0, 54, 43
2, 165574, Note_on_c, 0, 64, 0
2, 165601, Note_on_c, 0, 55, 0
2, 165607, Control_c, 0, 64, 31
2, 165622, Control_c, 0, 64, 44
2, 165638, Control_c, 0, 64, 51
2, 165653, Control_c, 0, 64, 56
2, 165668, Control_c, 0, 64, 60
2, 165685, Control_c, 0, 64, 63
2, 165700, Control_c, 0, 64, 66
2, 165712, Note_on_c, 0, 45, 0
2, 165715, Control_c, 0, 64, 71
2, 165730, Control_c, 0, 64, 86
2, 165745, Control_c, 0, 64, 127
2, 165778, Note_on_c, 0, 54, 0
2, 165927, Control_c, 0, 64, 81
2, 165936, Note_on_c, 0, 52, 39
2, 165937, Note_on_c, 0, 67, 55
2, 165938, Note_on_c, 0, 45, 34
2, 165942, Control_c, 0, 64, 60
2, 165958, Control_c, 0, 64, 0
2, 165966, Note_on_c, 0, 69, 0
2, 166003, Control_c, 0, 64, 18
2, 166018, Control_c, 0, 64, 53
2, 166034, Control_c, 0, 64, 62
2, 166049, Control_c, 0, 64, 66
2, 166064, Control_c, 0, 64, 71
2, 166067, Note_on_c, 0, 45, 0
2, 166068, Note_on_c, 0, 52, 0
2, 166079, Control_c, 0, 64, 83
2, 166094, Control_c, 0, 64, 112
2, 166109, Control_c, 0, 64, 127
2, 166196, Note_on_c, 0, 67, 0
2, 166359, Note_on_c, 0, 38, 41
2, 166361, Control_c, 0, 64, 85
2, 166365, Note_on_c, 0, 50, 32
2, 166376, Control_c, 0, 64, 66
2, 166382, Note_on_c, 0, 66, 46
2, 166390, Control_c, 0, 64, 24
2, 166406, Control_c, 0, 64, 0
2, 166408, Note_on_c, 0, 61, 0
2, 166451, Control_c, 0, 64, 41
2, 166466, Control_c, 0, 64, 61
2, 166482, Control_c, 0, 64, 66
2, 166497, Control_c, 0, 64, 75
2, 166504, Note_on_c, 0, 38, 0
2, 166514, Control_c, 0, 64, 100
2, 166529, Control_c, 0, 64, 127
2, 166538, Note_on_c, 0, 50, 0
2, 166776, Note_on_c, 0, 57, 46
2, 167000, Control_c, 0, 64, 112
2, 167022, Control_c, 0, 64, 104
2, 167038, Control_c, 0, 64, 97
2, 167052, Control_c, 0, 64, 90
2, 167067, Control_c, 0, 64, 82
2, 167083, Control_c, 0, 64, 75
2, 167097, Control_c, 0, 64, 70
2, 167112, Control_c, 0, 64, 66
2, 167126, Note_on_c, 0, 57, 0
2, 167128, Control_c, 0, 64, 63
2, 167140, Note_on_c, 0, 62, 45
2, 167143, Control_c, 0, 64, 59
2, 167149, Note_on_c, 0, 66, 0
2, 167159, Control_c, 0, 64, 55
2, 167174, Control_c, 0, 64, 51
2, 167188, Control_c, 0, 64, 47
2, 167204, Control_c, 0, 64, 44
2, 167219, Control_c, 0, 64, 42
2, 167235, Control_c, 0, 64, 39
2, 167250, Control_c, 0, 64, 38
2, 167281, Control_c, 0, 64, 37
2, 167295, Control_c, 0, 64, 37
2, 167357, Control_c, 0, 64, 36
2, 167492, Note_on_c, 0, 69, 57
2, 167496, Note_on_c, 0, 60, 41
2, 167516, Note_on_c, 0, 62, 0
2, 167858, Note_on_c, 0, 74, 69
2, 167861, Note_on_c, 0, 69, 0
2, 167870, Note_on_c, 0, 59, 40
2, 167920, Note_on_c, 0, 60, 0
2, 167956, Control_c, 0, 64, 36
2, 167971, Control_c, 0, 64, 35
2, 168002, Control_c, 0, 64, 35
2, 168225, Note_on_c, 0, 62, 51
2, 168230, Note_on_c, 0, 72, 76
2, 168242, Note_on_c, 0, 74, 0
2, 168254, Note_on_c, 0, 59, 0
2, 168586, Note_on_c, 0, 62, 0
2, 168592, Note_on_c, 0, 72, 0
2, 168599, Note_on_c, 0, 67, 52
2, 168605, Note_on_c, 0, 71, 78
2, 168632, Control_c, 0, 64, 34
2, 168770, Control_c, 0, 64, 34
2, 168846, Control_c, 0, 64, 32
2, 168860, Control_c, 0, 64, 28
2, 168876, Control_c, 0, 64, 25
2, 168891, Control_c, 0, 64, 23
2, 168906, Control_c, 0, 64, 22
2, 168951, Control_c, 0, 64, 21
2, 168965, Note_on_c, 0, 66, 52
2, 168965, Note_on_c, 0, 71, 0
2, 168967, Note_on_c, 0, 74, 74
2, 168968, Control_c, 0, 64, 20
2, 168977, Note_on_c, 0, 67, 0
2, 168983, Control_c, 0, 64, 16
2, 168999, Control_c, 0, 64, 0
2, 169344, Note_on_c, 0, 74, 0
2, 169347, Note_on_c, 0, 79, 86
2, 169353, Note_on_c, 0, 64, 51
2, 169353, Note_on_c, 0, 66, 0
2, 169386, Control_c, 0, 64, 25
2, 169402, Control_c, 0, 64, 52
2, 169417, Control_c, 0, 64, 60
2, 169431, Control_c, 0, 64, 63
2, 169447, Control_c, 0, 64, 66
2, 169462, Control_c, 0, 64, 73
2, 169478, Control_c, 0, 64, 86
2, 169493, Control_c, 0, 64, 127
2, 169529, Note_on_c, 0, 64, 0
2, 169711, Note_on_c, 0, 52, 53
2, 169719, Note_on_c, 0, 62, 51
2, 169736, Control_c, 0, 64, 105
2, 169750, Control_c, 0, 64, 80
2, 169766, Control_c, 0, 64, 66
2, 169782, Control_c, 0, 64, 44
2, 169798, Control_c, 0, 64, 0
2, 169843, Control_c, 0, 64, 46
2, 169858, Control_c, 0, 64, 55
2, 169873, Control_c, 0, 64, 59
2, 169889, Control_c, 0, 64, 62
2, 169904, Control_c, 0, 64, 64
2, 169919, Control_c, 0, 64, 65
2, 169934, Control_c, 0, 64, 68
2, 169949, Control_c, 0, 64, 71
2, 169965, Control_c, 0, 64, 73
2, 169980, Control_c, 0, 64, 74
2, 170056, Control_c, 0, 64, 73
2, 170070, Control_c, 0, 64, 70
2, 170075, Note_on_c, 0, 62, 0
2, 170089, Note_on_c, 0, 78, 79
2, 170090, Note_on_c, 0, 57, 49
2, 170093, Control_c, 0, 64, 66
2, 170094, Note_on_c, 0, 61, 53
2, 170108, Control_c, 0, 64, 61
2, 170110, Note_on_c, 0, 79, 0
2, 170123, Note_on_c, 0, 52, 0
2, 170124, Control_c, 0, 64, 50
2, 170139, Control_c, 0, 64, 36
2, 170155, Control_c, 0, 64, 31
2, 170432, Note_on_c, 0, 55, 50
2, 170445, Note_on_c, 0, 57, 0
2, 170447, Note_on_c, 0, 76, 78
2, 170485, Note_on_c, 0, 78, 0
2, 170488, Control_c, 0, 64, 37
2, 170503, Control_c, 0, 64, 47
2, 170519, Control_c, 0, 64, 54
2, 170534, Control_c, 0, 64, 59
2, 170548, Control_c, 0, 64, 62
2, 170564, Control_c, 0, 64, 64
2, 170579, Control_c, 0, 64, 67
2, 170596, Control_c, 0, 64, 72
2, 170611, Control_c, 0, 64, 81
2, 170626, Control_c, 0, 64, 87
2, 170642, Control_c, 0, 64, 91
2, 170656, Control_c, 0, 64, 93
2, 170671, Control_c, 0, 64, 94
2, 170796, Control_c, 0, 64, 93
2, 170811, Control_c, 0, 64, 89
2, 170815, Note_on_c, 0, 81, 80
2, 170825, Note_on_c, 0, 62, 55
2, 170826, Control_c, 0, 64, 81
2, 170830, Note_on_c, 0, 54, 57
2, 170830, Note_on_c, 0, 76, 0
2, 170834, Note_on_c, 0, 61, 0
2, 170842, Control_c, 0, 64, 71
2, 170863, Control_c, 0, 64, 62
2, 170879, Control_c, 0, 64, 44
2, 170881, Note_on_c, 0, 55, 0
2, 170894, Control_c, 0, 64, 39
2, 170910, Control_c, 0, 64, 45
2, 170924, Control_c, 0, 64, 53
2, 170939, Control_c, 0, 64, 59
2, 170955, Control_c, 0, 64, 62
2, 170970, Control_c, 0, 64, 64
2, 170985, Control_c, 0, 64, 66
2, 171001, Control_c, 0, 64, 70
2, 171016, Control_c, 0, 64, 76
2, 171024, Note_on_c, 0, 62, 0
2, 171031, Control_c, 0, 64, 83
2, 171046, Control_c, 0, 64, 88
2, 171061, Control_c, 0, 64, 92
2, 171077, Control_c, 0, 64, 93
2, 171168, Control_c, 0, 64, 89
2, 171183, Control_c, 0, 64, 77
2, 171194, Note_on_c, 0, 79, 75
2, 171197, Note_on_c, 0, 57, 43
2, 171198, Control_c, 0, 64, 68
2, 171199, Note_on_c, 0, 64, 49
2, 171213, Control_c, 0, 64, 64
2, 171231, Note_on_c, 0, 81, 0
2, 171243, Control_c, 0, 64, 65
2, 171258, Control_c, 0, 64, 67
2, 171274, Control_c, 0, 64, 70
2, 171285, Note_on_c, 0, 64, 0
2, 171288, Control_c, 0, 64, 75
2, 171303, Control_c, 0, 64, 79
2, 171319, Control_c, 0, 64, 83
2, 171334, Control_c, 0, 64, 87
2, 171350, Control_c, 0, 64, 90
2, 171364, Control_c, 0, 64, 92
2, 171379, Control_c, 0, 64, 97
2, 171395, Control_c, 0, 64, 99
2, 171410, Control_c, 0, 64, 99
2, 171517, Control_c, 0, 64, 99
2, 171532, Control_c, 0, 64, 97
2, 171548, Control_c, 0, 64, 93
2, 171563, Control_c, 0, 64, 87
2, 171564, Note_on_c, 0, 78, 79
2, 171566, Note_on_c, 0, 66, 46
2, 171570, Note_on_c, 0, 62, 47
2, 171578, Control_c, 0, 64, 82
2, 171585, Note_on_c, 0, 79, 0
2, 171594, Control_c, 0, 64, 76
2, 171609, Control_c, 0, 64, 70
2, 171631, Control_c, 0, 64, 66
2, 171641, Note_on_c, 0, 57, 0
2, 171646, Control_c, 0, 64, 61
2, 171655, Note_on_c, 0, 54, 0
2, 171661, Control_c, 0, 64, 52
2, 171677, Control_c, 0, 64, 35
2, 171692, Control_c, 0, 64, 0
2, 171925, Note_on_c, 0, 61, 54
2, 171934, Note_on_c, 0, 76, 73
2, 171970, Note_on_c, 0, 62, 0
2, 171971, Note_on_c, 0, 78, 0
2, 172301, Note_on_c, 0, 76, 0
2, 172306, Note_on_c, 0, 59, 48
2, 172310, Note_on_c, 0, 74, 66
2, 172312, Note_on_c, 0, 61, 0
2, 172362, Control_c, 0, 64, 41
2, 172377, Control_c, 0, 64, 54
2, 172400, Control_c, 0, 64, 61
2, 172415, Control_c, 0, 64, 69
2, 172420, Note_on_c, 0, 66, 0
2, 172431, Control_c, 0, 64, 87
2, 172446, Control_c, 0, 64, 127
2, 172455, Note_on_c, 0, 59, 0
2, 172688, Note_on_c, 0, 47, 48
2, 172810, Control_c, 0, 64, 118
2, 172825, Control_c, 0, 64, 112
2, 172841, Control_c, 0, 64, 108
2, 172856, Control_c, 0, 64, 105
2, 172872, Control_c, 0, 64, 101
2, 172886, Control_c, 0, 64, 96
2, 172901, Control_c, 0, 64, 92
2, 172917, Control_c, 0, 64, 88
2, 172931, Control_c, 0, 64, 85
2, 172946, Control_c, 0, 64, 81
2, 172962, Control_c, 0, 64, 78
2, 172977, Control_c, 0, 64, 74
2, 172993, Control_c, 0, 64, 71
2, 173007, Control_c, 0, 64, 68
2, 173022, Control_c, 0, 64, 64
2, 173024, Note_on_c, 0, 73, 73
2, 173024, Note_on_c, 0, 74, 0
2, 173031, Note_on_c, 0, 68, 53
2, 173033, Note_on_c, 0, 52, 41
2, 173038, Control_c, 0, 64, 61
2, 173054, Control_c, 0, 64, 54
2, 173064, Note_on_c, 0, 47, 0
2, 173070, Control_c, 0, 64, 48
2, 173085, Control_c, 0, 64, 43
2, 173100, Control_c, 0, 64, 42
2, 173130, Control_c, 0, 64, 41
2, 173145, Control_c, 0, 64, 39
2, 173168, Control_c, 0, 64, 36
2, 173183, Control_c, 0, 64, 33
2, 173199, Control_c, 0, 64, 30
2, 173214, Control_c, 0, 64, 29
2, 173230, Control_c, 0, 64, 28
2, 173244, Control_c, 0, 64, 27
2, 173259, Control_c, 0, 64, 26
2, 173275, Control_c, 0, 64, 26
2, 173290, Control_c, 0, 64, 25
2, 173351, Control_c, 0, 64, 24
2, 173385, Note_on_c, 0, 71, 70
2, 173392, Note_on_c, 0, 73, 0
2, 173396, Control_c, 0, 64, 24
2, 173403, Note_on_c, 0, 50, 37
2, 173426, Control_c, 0, 64, 23
2, 173473, Note_on_c, 0, 52, 0
2, 173517, Control_c, 0, 64, 22
2, 173757, Note_on_c, 0, 49, 51
2, 173759, Note_on_c, 0, 76, 69
2, 173763, Note_on_c, 0, 71, 0
2, 173775, Control_c, 0, 64, 24
2, 173784, Note_on_c, 0, 50, 0
2, 173791, Control_c, 0, 64, 35
2, 173806, Control_c, 0, 64, 44
2, 173811, Note_on_c, 0, 68, 0
2, 173821, Control_c, 0, 64, 52
2, 173837, Control_c, 0, 64, 56
2, 173851, Control_c, 0, 64, 59
2, 173866, Control_c, 0, 64, 62
2, 173883, Control_c, 0, 64, 65
2, 173898, Control_c, 0, 64, 69
2, 173914, Control_c, 0, 64, 74
2, 173936, Control_c, 0, 64, 78
2, 173952, Control_c, 0, 64, 81
2, 173966, Control_c, 0, 64, 82
2, 173981, Control_c, 0, 64, 83
2, 174088, Control_c, 0, 64, 80
2, 174103, Control_c, 0, 64, 74
2, 174119, Control_c, 0, 64, 66
2, 174134, Control_c, 0, 64, 57
2, 174141, Note_on_c, 0, 74, 64
2, 174144, Note_on_c, 0, 52, 47
2, 174146, Note_on_c, 0, 68, 54
2, 174150, Control_c, 0, 64, 52
2, 174152, Note_on_c, 0, 59, 37
2, 174164, Control_c, 0, 64, 54
2, 174179, Control_c, 0, 64, 58
2, 174182, Note_on_c, 0, 76, 0
2, 174195, Control_c, 0, 64, 61
2, 174209, Control_c, 0, 64, 64
2, 174224, Control_c, 0, 64, 68
2, 174229, Note_on_c, 0, 59, 0
2, 174240, Control_c, 0, 64, 75
2, 174255, Control_c, 0, 64, 85
2, 174271, Control_c, 0, 64, 92
2, 174286, Control_c, 0, 64, 99
2, 174300, Control_c, 0, 64, 105
2, 174316, Control_c, 0, 64, 107
2, 174344, Note_on_c, 0, 74, 0
2, 174386, Note_on_c, 0, 68, 0
2, 174468, Control_c, 0, 64, 104
2, 174483, Control_c, 0, 64, 100
2, 174498, Control_c, 0, 64, 94
2, 174504, Note_on_c, 0, 61, 49
2, 174508, Note_on_c, 0, 52, 0
2, 174508, Note_on_c, 0, 73, 77
2, 174513, Note_on_c, 0, 57, 45
2, 174514, Control_c, 0, 64, 86
2, 174517, Note_on_c, 0, 69, 55
2, 174529, Control_c, 0, 64, 78
2, 174544, Control_c, 0, 64, 71
2, 174554, Note_on_c, 0, 49, 0
2, 174559, Control_c, 0, 64, 65
2, 174574, Control_c, 0, 64, 58
2, 174590, Control_c, 0, 64, 44
2, 174605, Control_c, 0, 64, 26
2, 174619, Control_c, 0, 64, 16
2, 174641, Note_on_c, 0, 69, 0
2, 174641, Note_on_c, 0, 69, 3
2, 174681, Control_c, 0, 64, 15
2, 174704, Control_c, 0, 64, 12
2, 174720, Control_c, 0, 64, 10
2, 174765, Control_c, 0, 64, 0
2, 174856, Note_on_c, 0, 56, 50
2, 174873, Note_on_c, 0, 71, 64
2, 174874, Note_on_c, 0, 64, 51
2, 174877, Note_on_c, 0, 69, 0
2, 174881, Note_on_c, 0, 73, 0
2, 174883, Note_on_c, 0, 57, 0
2, 174994, Control_c, 0, 64, 19
2, 175008, Control_c, 0, 64, 28
2, 175023, Control_c, 0, 64, 32
2, 175039, Control_c, 0, 64, 34
2, 175054, Control_c, 0, 64, 35
2, 175069, Control_c, 0, 64, 35
2, 175160, Control_c, 0, 64, 36
2, 175175, Control_c, 0, 64, 37
2, 175191, Control_c, 0, 64, 40
2, 175205, Control_c, 0, 64, 44
2, 175214, Note_on_c, 0, 54, 46
2, 175216, Note_on_c, 0, 69, 59
2, 175220, Control_c, 0, 64, 48
2, 175228, Note_on_c, 0, 56, 0
2, 175236, Control_c, 0, 64, 51
2, 175251, Control_c, 0, 64, 54
2, 175265, Control_c, 0, 64, 57
2, 175275, Note_on_c, 0, 71, 0
2, 175281, Control_c, 0, 64, 59
2, 175296, Control_c, 0, 64, 61
2, 175304, Note_on_c, 0, 64, 0
2, 175312, Control_c, 0, 64, 63
2, 175327, Control_c, 0, 64, 66
2, 175342, Control_c, 0, 64, 69
2, 175357, Control_c, 0, 64, 73
2, 175372, Control_c, 0, 64, 76
2, 175388, Control_c, 0, 64, 77
2, 175403, Control_c, 0, 64, 78
2, 175409, Note_on_c, 0, 61, 0
2, 175418, Control_c, 0, 64, 78
2, 175439, Note_on_c, 0, 54, 0
2, 175574, Note_on_c, 0, 69, 0
2, 175577, Note_on_c, 0, 57, 60
2, 175583, Note_on_c, 0, 68, 56
2, 175584, Note_on_c, 0, 73, 68
2, 175593, Note_on_c, 0, 52, 48
2, 175594, Control_c, 0, 64, 77
2, 175609, Control_c, 0, 64, 74
2, 175624, Control_c, 0, 64, 68
2, 175640, Control_c, 0, 64, 63
2, 175654, Control_c, 0, 64, 61
2, 175658, Note_on_c, 0, 52, 0
2, 175685, Control_c, 0, 64, 63
2, 175699, Control_c, 0, 64, 65
2, 175715, Control_c, 0, 64, 69
2, 175730, Control_c, 0, 64, 73
2, 175745, Control_c, 0, 64, 76
2, 175761, Control_c, 0, 64, 79
2, 175776, Control_c, 0, 64, 81
2, 175792, Control_c, 0, 64, 86
2, 175807, Control_c, 0, 64, 91
2, 175822, Control_c, 0, 64, 92
2, 175852, Note_on_c, 0, 68, 0
2, 175928, Control_c, 0, 64, 90
2, 175943, Control_c, 0, 64, 84
2, 175944, Note_on_c, 0, 66, 56
2, 175945, Note_on_c, 0, 71, 70
2, 175953, Note_on_c, 0, 62, 60
2, 175954, Note_on_c, 0, 50, 49
2, 175959, Control_c, 0, 64, 77
2, 175961, Note_on_c, 0, 57, 0
2, 175973, Control_c, 0, 64, 70
2, 175975, Note_on_c, 0, 73, 0
2, 175989, Control_c, 0, 64, 64
2, 176004, Control_c, 0, 64, 57
2, 176019, Control_c, 0, 64, 44
2, 176035, Control_c, 0, 64, 27
2, 176049, Control_c, 0, 64, 17
2, 176110, Control_c, 0, 64, 16
2, 176125, Control_c, 0, 64, 12
2, 176140, Control_c, 0, 64, 8
2, 176156, Control_c, 0, 64, 0
2, 176309, Note_on_c, 0, 69, 67
2, 176322, Note_on_c, 0, 61, 54
2, 176330, Control_c, 0, 64, 10
2, 176341, Note_on_c, 0, 62, 0
2, 176342, Note_on_c, 0, 71, 0
2, 176346, Control_c, 0, 64, 30
2, 176362, Control_c, 0, 64, 44
2, 176377, Control_c, 0, 64, 54
2, 176393, Control_c, 0, 64, 58
2, 176408, Control_c, 0, 64, 61
2, 176422, Control_c, 0, 64, 63
2, 176438, Control_c, 0, 64, 64
2, 176453, Control_c, 0, 64, 69
2, 176469, Control_c, 0, 64, 78
2, 176484, Control_c, 0, 64, 83
2, 176497, Note_on_c, 0, 69, 0
2, 176498, Control_c, 0, 64, 85
2, 176514, Control_c, 0, 64, 85
2, 176650, Control_c, 0, 64, 83
2, 176654, Note_on_c, 0, 61, 0
2, 176663, Note_on_c, 0, 68, 69
2, 176665, Control_c, 0, 64, 78
2, 176671, Note_on_c, 0, 64, 57
2, 176681, Control_c, 0, 64, 68
2, 176683, Note_on_c, 0, 59, 39
2, 176691, Note_on_c, 0, 66, 0
2, 176695, Control_c, 0, 64, 60
2, 176706, Note_on_c, 0, 50, 0
2, 176711, Control_c, 0, 64, 50
2, 176726, Control_c, 0, 64, 48
2, 176756, Control_c, 0, 64, 48
2, 176771, Control_c, 0, 64, 53
2, 176786, Control_c, 0, 64, 59
2, 176800, Note_on_c, 0, 64, 0
2, 176800, Note_on_c, 0, 64, 5
2, 176802, Control_c, 0, 64, 63
2, 176816, Control_c, 0, 64, 65
2, 176832, Control_c, 0, 64, 67
2, 176847, Control_c, 0, 64, 71
2, 176862, Control_c, 0, 64, 78
2, 176878, Control_c, 0, 64, 87
2, 176883, Note_on_c, 0, 64, 0
2, 176892, Control_c, 0, 64, 94
2, 176908, Control_c, 0, 64, 95
2, 177007, Control_c, 0, 64, 93
2, 177022, Control_c, 0, 64, 83
2, 177032, Note_on_c, 0, 49, 43
2, 177037, Control_c, 0, 64, 71
2, 177046, Note_on_c, 0, 64, 54
2, 177052, Control_c, 0, 64, 61
2, 177052, Note_on_c, 0, 59, 0
2, 177068, Control_c, 0, 64, 48
2, 177083, Control_c, 0, 64, 45
2, 177098, Control_c, 0, 64, 47
2, 177113, Control_c, 0, 64, 55
2, 177128, Control_c, 0, 64, 60
2, 177143, Control_c, 0, 64, 63
2, 177160, Control_c, 0, 64, 65
2, 177175, Control_c, 0, 64, 66
2, 177190, Control_c, 0, 64, 68
2, 177205, Control_c, 0, 64, 70
2, 177220, Control_c, 0, 64, 71
2, 177232, Note_on_c, 0, 68, 0
2, 177236, Control_c, 0, 64, 73
2, 177251, Control_c, 0, 64, 73
2, 177265, Control_c, 0, 64, 74
2, 177296, Control_c, 0, 64, 74
2, 177372, Control_c, 0, 64, 74
2, 177388, Control_c, 0, 64, 73
2, 177393, Note_on_c, 0, 54, 49
2, 177396, Note_on_c, 0, 64, 0
2, 177403, Control_c, 0, 64, 71
2, 177405, Note_on_c, 0, 57, 47
2, 177412, Note_on_c, 0, 69, 55
2, 177415, Note_on_c, 0, 62, 47
2, 177418, Control_c, 0, 64, 67
2, 177434, Control_c, 0, 64, 65
2, 177448, Control_c, 0, 64, 62
2, 177463, Control_c, 0, 64, 59
2, 177479, Control_c, 0, 64, 58
2, 177494, Control_c, 0, 64, 56
2, 177510, Control_c, 0, 64, 54
2, 177518, Note_on_c, 0, 49, 0
2, 177525, Control_c, 0, 64, 52
2, 177539, Control_c, 0, 64, 50
2, 177555, Control_c, 0, 64, 47
2, 177570, Control_c, 0, 64, 45
2, 177584, Control_c, 0, 64, 43
2, 177600, Control_c, 0, 64, 42
2, 177615, Control_c, 0, 64, 42
2, 177631, Control_c, 0, 64, 41
2, 177661, Control_c, 0, 64, 41
2, 177676, Control_c, 0, 64, 40
2, 177706, Control_c, 0, 64, 39
2, 177746, Note_on_c, 0, 57, 0
2, 177752, Note_on_c, 0, 52, 42
2, 177752, Note_on_c, 0, 54, 0
2, 177754, Note_on_c, 0, 56, 47
2, 177775, Note_on_c, 0, 61, 56
2, 177800, Note_on_c, 0, 62, 0
2, 177896, Control_c, 0, 64, 39
2, 178127, Note_on_c, 0, 52, 0
2, 178148, Note_on_c, 0, 61, 0
2, 178155, Note_on_c, 0, 50, 30
2, 178158, Note_on_c, 0, 54, 48
2, 178161, Note_on_c, 0, 59, 54
2, 178185, Note_on_c, 0, 56, 0
2, 178517, Note_on_c, 0, 61, 53
2, 178556, Note_on_c, 0, 59, 0
2, 178880, Note_on_c, 0, 61, 0
2, 178902, Note_on_c, 0, 54, 0
2, 178911, Note_on_c, 0, 62, 47
2, 178913, Note_on_c, 0, 52, 31
2, 178920, Note_on_c, 0, 50, 0
2, 179032, Note_on_c, 0, 69, 0
2, 179301, Note_on_c, 0, 68, 57
2, 179720, Note_on_c, 0, 45, 24
2, 179727, Note_on_c, 0, 68, 0
2, 179734, Note_on_c, 0, 69, 46
2, 180103, Note_on_c, 0, 61, 49
2, 180134, Note_on_c, 0, 62, 0
2, 180446, Note_on_c, 0, 45, 0
2, 180458, Note_on_c, 0, 52, 0
2, 180460, Note_on_c, 0, 66, 53
2, 180531, Note_on_c, 0, 61, 0
2, 180806, Note_on_c, 0, 42, 52
2, 180824, Note_on_c, 0, 64, 51
2, 181179, Note_on_c, 0, 47, 51
2, 181179, Note_on_c, 0, 69, 0
2, 181182, Note_on_c, 0, 64, 0
2, 181185, Note_on_c, 0, 42, 0
2, 181185, Note_on_c, 0, 66, 0
2, 181188, Note_on_c, 0, 63, 50
2, 181317, Control_c, 0, 64, 39
2, 181332, Control_c, 0, 64, 41
2, 181347, Control_c, 0, 64, 43
2, 181363, Control_c, 0, 64, 45
2, 181378, Control_c, 0, 64, 47
2, 181393, Control_c, 0, 64, 50
2, 181408, Control_c, 0, 64, 53
2, 181423, Control_c, 0, 64, 56
2, 181439, Control_c, 0, 64, 59
2, 181454, Control_c, 0, 64, 61
2, 181469, Control_c, 0, 64, 62
2, 181484, Control_c, 0, 64, 64
2, 181499, Control_c, 0, 64, 65
2, 181515, Control_c, 0, 64, 68
2, 181529, Control_c, 0, 64, 71
2, 181544, Control_c, 0, 64, 77
2, 181558, Note_on_c, 0, 66, 57
2, 181560, Control_c, 0, 64, 85
2, 181565, Note_on_c, 0, 59, 56
2, 181575, Control_c, 0, 64, 96
2, 181590, Control_c, 0, 64, 117
2, 181613, Control_c, 0, 64, 127
2, 181724, Note_on_c, 0, 59, 0
2, 181854, Note_on_c, 0, 47, 0
2, 181929, Note_on_c, 0, 71, 68
2, 181943, Note_on_c, 0, 59, 64
2, 182043, Note_on_c, 0, 59, 0
2, 182267, Note_on_c, 0, 66, 0
2, 182277, Note_on_c, 0, 59, 77
2, 182297, Note_on_c, 0, 69, 64
2, 182506, Note_on_c, 0, 59, 0
2, 182651, Note_on_c, 0, 52, 67
2, 182666, Note_on_c, 0, 67, 68
2, 182668, Control_c, 0, 64, 100
2, 182681, Note_on_c, 0, 71, 0
2, 182684, Control_c, 0, 64, 81
2, 182699, Control_c, 0, 64, 67
2, 182715, Control_c, 0, 64, 54
2, 182729, Control_c, 0, 64, 0
2, 182732, Note_on_c, 0, 63, 0
2, 182735, Note_on_c, 0, 69, 0
2, 182806, Control_c, 0, 64, 24
2, 182821, Control_c, 0, 64, 44
2, 182837, Control_c, 0, 64, 49
2, 182852, Control_c, 0, 64, 53
2, 182867, Control_c, 0, 64, 57
2, 182883, Control_c, 0, 64, 62
2, 182898, Control_c, 0, 64, 65
2, 182913, Control_c, 0, 64, 69
2, 182929, Control_c, 0, 64, 74
2, 182944, Control_c, 0, 64, 78
2, 182959, Control_c, 0, 64, 83
2, 182974, Control_c, 0, 64, 89
2, 182989, Control_c, 0, 64, 95
2, 183005, Control_c, 0, 64, 106
2, 183012, Note_on_c, 0, 50, 49
2, 183020, Control_c, 0, 64, 127
2, 183032, Note_on_c, 0, 59, 50
2, 183095, Note_on_c, 0, 52, 0
2, 183118, Note_on_c, 0, 50, 0
2, 183327, Note_on_c, 0, 59, 0
2, 183371, Note_on_c, 0, 55, 64
2, 183388, Note_on_c, 0, 49, 38
2, 183389, Note_on_c, 0, 64, 59
2, 183423, Control_c, 0, 64, 92
2, 183438, Control_c, 0, 64, 74
2, 183453, Control_c, 0, 64, 59
2, 183468, Control_c, 0, 64, 0
2, 183560, Control_c, 0, 64, 31
2, 183574, Control_c, 0, 64, 47
2, 183589, Control_c, 0, 64, 55
2, 183605, Control_c, 0, 64, 61
2, 183620, Control_c, 0, 64, 64
2, 183635, Control_c, 0, 64, 67
2, 183650, Control_c, 0, 64, 72
2, 183665, Control_c, 0, 64, 78
2, 183681, Control_c, 0, 64, 83
2, 183696, Control_c, 0, 64, 88
2, 183712, Control_c, 0, 64, 92
2, 183724, Note_on_c, 0, 64, 0
2, 183727, Control_c, 0, 64, 96
2, 183728, Note_on_c, 0, 47, 43
2, 183742, Control_c, 0, 64, 99
2, 183750, Note_on_c, 0, 62, 55
2, 183758, Control_c, 0, 64, 101
2, 183773, Control_c, 0, 64, 103
2, 183788, Control_c, 0, 64, 103
2, 183793, Note_on_c, 0, 49, 0
2, 183803, Control_c, 0, 64, 104
2, 183819, Note_on_c, 0, 47, 0
2, 184023, Control_c, 0, 64, 102
2, 184039, Control_c, 0, 64, 94
2, 184054, Control_c, 0, 64, 82
2, 184068, Control_c, 0, 64, 69
2, 184083, Note_on_c, 0, 62, 0
2, 184084, Control_c, 0, 64, 52
2, 184088, Note_on_c, 0, 46, 43
2, 184093, Note_on_c, 0, 61, 54
2, 184099, Control_c, 0, 64, 0
2, 184175, Control_c, 0, 64, 46
2, 184190, Control_c, 0, 64, 58
2, 184206, Control_c, 0, 64, 61
2, 184215, Note_on_c, 0, 55, 0
2, 184221, Control_c, 0, 64, 64
2, 184233, Note_on_c, 0, 61, 0
2, 184237, Control_c, 0, 64, 70
2, 184252, Control_c, 0, 64, 80
2, 184258, Note_on_c, 0, 67, 0
2, 184267, Control_c, 0, 64, 94
2, 184282, Control_c, 0, 64, 105
2, 184297, Control_c, 0, 64, 122
2, 184312, Control_c, 0, 64, 127
2, 184454, Note_on_c, 0, 49, 53
2, 184454, Note_on_c, 0, 78, 75
2, 184687, Note_on_c, 0, 78, 0
2, 184743, Note_on_c, 0, 46, 0
2, 184814, Note_on_c, 0, 49, 0
2, 184819, Note_on_c, 0, 78, 80
2, 184826, Note_on_c, 0, 54, 69
2, 184867, Control_c, 0, 64, 100
2, 184883, Control_c, 0, 64, 94
2, 184928, Control_c, 0, 64, 94
2, 184943, Control_c, 0, 64, 97
2, 184959, Control_c, 0, 64, 105
2, 184974, Control_c, 0, 64, 127
2, 185049, Note_on_c, 0, 78, 0
2, 185172, Note_on_c, 0, 78, 85
2, 185176, Note_on_c, 0, 46, 45
2, 185177, Note_on_c, 0, 54, 0
2, 185178, Note_on_c, 0, 52, 58
2, 185202, Control_c, 0, 64, 108
2, 185217, Control_c, 0, 64, 82
2, 185232, Control_c, 0, 64, 68
2, 185248, Control_c, 0, 64, 60
2, 185263, Control_c, 0, 64, 58
2, 185278, Control_c, 0, 64, 59
2, 185293, Control_c, 0, 64, 62
2, 185308, Control_c, 0, 64, 66
2, 185323, Control_c, 0, 64, 73
2, 185333, Note_on_c, 0, 46, 0
2, 185339, Control_c, 0, 64, 80
2, 185355, Control_c, 0, 64, 87
2, 185370, Control_c, 0, 64, 93
2, 185385, Control_c, 0, 64, 101
2, 185401, Control_c, 0, 64, 118
2, 185415, Control_c, 0, 64, 127
2, 185480, Note_on_c, 0, 78, 0
2, 185530, Control_c, 0, 64, 99
2, 185543, Note_on_c, 0, 45, 44
2, 185545, Control_c, 0, 64, 79
2, 185552, Note_on_c, 0, 71, 78
2, 185553, Note_on_c, 0, 51, 48
2, 185560, Control_c, 0, 64, 64
2, 185566, Note_on_c, 0, 52, 0
2, 185575, Control_c, 0, 64, 36
2, 185590, Control_c, 0, 64, 0
2, 185651, Control_c, 0, 64, 49
2, 185666, Control_c, 0, 64, 58
2, 185682, Control_c, 0, 64, 62
2, 185697, Control_c, 0, 64, 64
2, 185711, Control_c, 0, 64, 70
2, 185727, Control_c, 0, 64, 84
2, 185742, Control_c, 0, 64, 127
2, 185788, Note_on_c, 0, 71, 0
2, 185873, Note_on_c, 0, 51, 0
2, 185903, Note_on_c, 0, 53, 43
2, 185906, Note_on_c, 0, 71, 68
2, 185975, Note_on_c, 0, 71, 0
2, 186061, Note_on_c, 0, 53, 0
2, 186069, Note_on_c, 0, 54, 60
2, 186248, Note_on_c, 0, 74, 68
2, 186249, Note_on_c, 0, 71, 75
2, 186251, Note_on_c, 0, 53, 51
2, 186251, Note_on_c, 0, 54, 0
2, 186282, Control_c, 0, 64, 99
2, 186297, Control_c, 0, 64, 69
2, 186312, Control_c, 0, 64, 53
2, 186328, Control_c, 0, 64, 41
2, 186342, Control_c, 0, 64, 47
2, 186358, Control_c, 0, 64, 55
2, 186365, Note_on_c, 0, 45, 0
2, 186373, Control_c, 0, 64, 62
2, 186388, Control_c, 0, 64, 67
2, 186403, Control_c, 0, 64, 74
2, 186418, Control_c, 0, 64, 84
2, 186433, Control_c, 0, 64, 99
2, 186449, Control_c, 0, 64, 127
2, 186487, Note_on_c, 0, 71, 0
2, 186597, Note_on_c, 0, 44, 54
2, 186603, Note_on_c, 0, 71, 78
2, 186649, Note_on_c, 0, 53, 0
2, 186655, Note_on_c, 0, 44, 0
2, 186666, Note_on_c, 0, 71, 0
2, 186933, Note_on_c, 0, 49, 46
2, 186955, Note_on_c, 0, 64, 70
2, 186988, Control_c, 0, 64, 107
2, 187004, Control_c, 0, 64, 76
2, 187019, Control_c, 0, 64, 60
2, 187035, Control_c, 0, 64, 0
2, 187040, Note_on_c, 0, 74, 0
2, 187126, Control_c, 0, 64, 38
2, 187141, Control_c, 0, 64, 48
2, 187157, Control_c, 0, 64, 54
2, 187172, Control_c, 0, 64, 58
2, 187187, Control_c, 0, 64, 62
2, 187202, Control_c, 0, 64, 66
2, 187217, Control_c, 0, 64, 70
2, 187232, Control_c, 0, 64, 76
2, 187247, Control_c, 0, 64, 84
2, 187262, Control_c, 0, 64, 92
2, 187278, Control_c, 0, 64, 100
2, 187293, Control_c, 0, 64, 110
2, 187308, Control_c, 0, 64, 127
2, 187319, Note_on_c, 0, 59, 47
2, 187320, Note_on_c, 0, 68, 60
2, 187344, Note_on_c, 0, 64, 0
2, 187657, Control_c, 0, 64, 99
2, 187666, Note_on_c, 0, 58, 50
2, 187671, Note_on_c, 0, 68, 0
2, 187672, Control_c, 0, 64, 79
2, 187675, Note_on_c, 0, 67, 66
2, 187677, Note_on_c, 0, 73, 56
2, 187688, Control_c, 0, 64, 67
2, 187703, Control_c, 0, 64, 55
2, 187706, Note_on_c, 0, 59, 0
2, 187718, Control_c, 0, 64, 0
2, 187818, Control_c, 0, 64, 35
2, 187832, Control_c, 0, 64, 52
2, 187848, Control_c, 0, 64, 58
2, 187863, Control_c, 0, 64, 61
2, 187878, Control_c, 0, 64, 64
2, 187893, Control_c, 0, 64, 67
2, 187908, Control_c, 0, 64, 71
2, 187924, Control_c, 0, 64, 78
2, 187939, Control_c, 0, 64, 84
2, 187955, Control_c, 0, 64, 90
2, 187970, Control_c, 0, 64, 96
2, 187985, Control_c, 0, 64, 100
2, 188000, Control_c, 0, 64, 103
2, 188015, Control_c, 0, 64, 104
2, 188024, Note_on_c, 0, 61, 48
2, 188024, Note_on_c, 0, 73, 0
2, 188037, Note_on_c, 0, 71, 60
2, 188046, Control_c, 0, 64, 105
2, 188058, Note_on_c, 0, 61, 0
2, 188070, Note_on_c, 0, 58, 0
2, 188104, Note_on_c, 0, 49, 0
2, 188305, Note_on_c, 0, 71, 0
2, 188336, Control_c, 0, 64, 100
2, 188352, Control_c, 0, 64, 88
2, 188366, Control_c, 0, 64, 74
2, 188381, Control_c, 0, 64, 61
2, 188388, Note_on_c, 0, 42, 43
2, 188395, Note_on_c, 0, 70, 51
2, 188397, Control_c, 0, 64, 38
2, 188412, Control_c, 0, 64, 33
2, 188428, Control_c, 0, 64, 43
2, 188443, Control_c, 0, 64, 57
2, 188458, Control_c, 0, 64, 65
2, 188474, Control_c, 0, 64, 74
2, 188488, Control_c, 0, 64, 96
2, 188497, Note_on_c, 0, 42, 0
2, 188503, Control_c, 0, 64, 127
2, 188562, Note_on_c, 0, 67, 0
2, 188699, Note_on_c, 0, 70, 0
2, 188755, Note_on_c, 0, 54, 44
2, 188763, Note_on_c, 0, 61, 59
2, 188763, Note_on_c, 0, 64, 44
2, 188843, Note_on_c, 0, 64, 0
2, 189097, Note_on_c, 0, 61, 0
2, 189108, Note_on_c, 0, 62, 47
2, 189109, Note_on_c, 0, 66, 65
2, 189110, Note_on_c, 0, 56, 45
2, 189118, Note_on_c, 0, 71, 66
2, 189119, Control_c, 0, 64, 111
2, 189133, Control_c, 0, 64, 80
2, 189149, Control_c, 0, 64, 63
2, 189164, Control_c, 0, 64, 41
2, 189179, Control_c, 0, 64, 0
2, 189210, Control_c, 0, 64, 34
2, 189225, Control_c, 0, 64, 45
2, 189226, Note_on_c, 0, 54, 0
2, 189241, Control_c, 0, 64, 50
2, 189256, Control_c, 0, 64, 51
2, 189293, Control_c, 0, 64, 51
2, 189309, Control_c, 0, 64, 52
2, 189400, Control_c, 0, 64, 50
2, 189415, Control_c, 0, 64, 47
2, 189431, Control_c, 0, 64, 45
2, 189445, Note_on_c, 0, 62, 0
2, 189449, Note_on_c, 0, 66, 0
2, 189459, Note_on_c, 0, 58, 37
2, 189461, Control_c, 0, 64, 47
2, 189463, Note_on_c, 0, 73, 64
2, 189464, Note_on_c, 0, 71, 0
2, 189472, Note_on_c, 0, 64, 53
2, 189477, Control_c, 0, 64, 52
2, 189479, Note_on_c, 0, 61, 36
2, 189484, Note_on_c, 0, 56, 0
2, 189491, Control_c, 0, 64, 57
2, 189506, Control_c, 0, 64, 61
2, 189522, Control_c, 0, 64, 63
2, 189537, Control_c, 0, 64, 66
2, 189553, Control_c, 0, 64, 68
2, 189568, Control_c, 0, 64, 72
2, 189583, Control_c, 0, 64, 76
2, 189599, Control_c, 0, 64, 79
2, 189613, Control_c, 0, 64, 81
2, 189629, Control_c, 0, 64, 81
2, 189690, Note_on_c, 0, 64, 0
2, 189696, Note_on_c, 0, 73, 0
2, 189752, Control_c, 0, 64, 80
2, 189766, Control_c, 0, 64, 78
2, 189781, Control_c, 0, 64, 74
2, 189797, Control_c, 0, 64, 69
2, 189810, Note_on_c, 0, 61, 0
2, 189812, Control_c, 0, 64, 65
2, 189828, Control_c, 0, 64, 60
2, 189838, Note_on_c, 0, 58, 0
2, 189838, Note_on_c, 0, 74, 56
2, 189843, Control_c, 0, 64, 51
2, 189849, Note_on_c, 0, 59, 38
2, 189851, Note_on_c, 0, 62, 45
2, 189857, Control_c, 0, 64, 46
2, 189873, Control_c, 0, 64, 44
2, 189888, Control_c, 0, 64, 44
2, 189918, Control_c, 0, 64, 43
2, 189933, Control_c, 0, 64, 42
2, 189949, Control_c, 0, 64, 40
2, 189964, Control_c, 0, 64, 39
2, 189978, Control_c, 0, 64, 38
2, 190195, Note_on_c, 0, 66, 65
2, 190199, Control_c, 0, 64, 38
2, 190203, Note_on_c, 0, 62, 0
2, 190210, Note_on_c, 0, 57, 37
2, 190548, Note_on_c, 0, 56, 43
2, 190549, Note_on_c, 0, 71, 71
2, 190553, Note_on_c, 0, 66, 0
2, 190564, Note_on_c, 0, 57, 0
2, 190891, Control_c, 0, 64, 37
2, 190919, Note_on_c, 0, 69, 54
2, 190927, Note_on_c, 0, 54, 40
2, 190932, Note_on_c, 0, 56, 0
2, 190963, Note_on_c, 0, 71, 0
2, 191262, Note_on_c, 0, 69, 0
2, 191287, Note_on_c, 0, 68, 50
2, 191292, Note_on_c, 0, 53, 34
2, 191297, Note_on_c, 0, 54, 0
2, 191376, Note_on_c, 0, 59, 0
2, 191631, Note_on_c, 0, 56, 55
2, 191988, Note_on_c, 0, 61, 53
2, 191988, Note_on_c, 0, 74, 0
2, 192004, Note_on_c, 0, 73, 62
2, 192022, Note_on_c, 0, 56, 0
2, 192323, Note_on_c, 0, 61, 0
2, 192352, Note_on_c, 0, 59, 43
2, 192533, Control_c, 0, 64, 36
2, 192549, Control_c, 0, 64, 27
2, 192564, Control_c, 0, 64, 0
2, 192706, Note_on_c, 0, 59, 0
2, 192706, Note_on_c, 0, 68, 0
2, 192726, Note_on_c, 0, 57, 45
2, 192744, Note_on_c, 0, 53, 0
2, 193071, Note_on_c, 0, 61, 42
2, 193083, Control_c, 0, 64, 30
2, 193088, Note_on_c, 0, 54, 49
2, 193098, Control_c, 0, 64, 50
2, 193114, Control_c, 0, 64, 61
2, 193137, Control_c, 0, 64, 65
2, 193153, Control_c, 0, 64, 72
2, 193167, Control_c, 0, 64, 83
2, 193183, Control_c, 0, 64, 107
2, 193196, Note_on_c, 0, 54, 0
2, 193198, Control_c, 0, 64, 127
2, 193430, Note_on_c, 0, 54, 68
2, 193438, Note_on_c, 0, 66, 69
2, 193561, Note_on_c, 0, 54, 0
2, 193783, Note_on_c, 0, 54, 68
2, 193787, Note_on_c, 0, 64, 65
2, 193806, Note_on_c, 0, 61, 0
2, 193816, Note_on_c, 0, 73, 0
2, 193849, Note_on_c, 0, 57, 0
2, 194159, Note_on_c, 0, 47, 62
2, 194159, Note_on_c, 0, 64, 0
2, 194166, Note_on_c, 0, 54, 0
2, 194167, Note_on_c, 0, 62, 60
2, 194194, Control_c, 0, 64, 92
2, 194208, Control_c, 0, 64, 72
2, 194211, Note_on_c, 0, 66, 0
2, 194224, Control_c, 0, 64, 60
2, 194239, Control_c, 0, 64, 24
2, 194254, Control_c, 0, 64, 25
2, 194270, Control_c, 0, 64, 45
2, 194284, Control_c, 0, 64, 57
2, 194299, Control_c, 0, 64, 62
2, 194315, Control_c, 0, 64, 65
2, 194330, Control_c, 0, 64, 68
2, 194346, Control_c, 0, 64, 76
2, 194361, Control_c, 0, 64, 86
2, 194376, Control_c, 0, 64, 98
2, 194392, Control_c, 0, 64, 120
2, 194407, Control_c, 0, 64, 127
2, 194529, Note_on_c, 0, 54, 55
2, 194557, Note_on_c, 0, 71, 70
2, 194710, Note_on_c, 0, 69, 69
2, 194733, Note_on_c, 0, 71, 0
2, 194870, Note_on_c, 0, 50, 72
2, 194887, Note_on_c, 0, 68, 70
2, 194894, Note_on_c, 0, 69, 0
2, 194897, Note_on_c, 0, 54, 0
2, 194898, Note_on_c, 0, 59, 49
2, 194927, Note_on_c, 0, 47, 0
2, 194931, Control_c, 0, 64, 120
2, 194947, Control_c, 0, 64, 87
2, 194962, Control_c, 0, 64, 72
2, 194976, Control_c, 0, 64, 58
2, 194992, Control_c, 0, 64, 0
2, 195052, Control_c, 0, 64, 44
2, 195068, Control_c, 0, 64, 52
2, 195083, Control_c, 0, 64, 56
2, 195097, Control_c, 0, 64, 57
2, 195109, Note_on_c, 0, 62, 0
2, 195113, Control_c, 0, 64, 59
2, 195128, Control_c, 0, 64, 60
2, 195144, Control_c, 0, 64, 60
2, 195220, Control_c, 0, 64, 60
2, 195236, Control_c, 0, 64, 59
2, 195246, Note_on_c, 0, 59, 0
2, 195249, Note_on_c, 0, 57, 51
2, 195251, Control_c, 0, 64, 55
2, 195253, Note_on_c, 0, 66, 66
2, 195262, Note_on_c, 0, 61, 62
2, 195267, Control_c, 0, 64, 48
2, 195281, Control_c, 0, 64, 24
2, 195290, Note_on_c, 0, 68, 0
2, 195296, Control_c, 0, 64, 0
2, 195403, Control_c, 0, 64, 19
2, 195418, Control_c, 0, 64, 48
2, 195441, Control_c, 0, 64, 55
2, 195456, Control_c, 0, 64, 58
2, 195472, Control_c, 0, 64, 63
2, 195486, Control_c, 0, 64, 67
2, 195495, Note_on_c, 0, 61, 0
2, 195502, Control_c, 0, 64, 72
2, 195517, Control_c, 0, 64, 75
2, 195548, Control_c, 0, 64, 74
2, 195562, Control_c, 0, 64, 69
2, 195577, Control_c, 0, 64, 61
2, 195593, Control_c, 0, 64, 30
2, 195596, Note_on_c, 0, 56, 47
2, 195596, Note_on_c, 0, 66, 0
2, 195603, Note_on_c, 0, 65, 62
2, 195608, Control_c, 0, 64, 0
2, 195611, Note_on_c, 0, 59, 50
2, 195645, Note_on_c, 0, 57, 0
2, 195654, Control_c, 0, 64, 26
2, 195670, Control_c, 0, 64, 53
2, 195685, Control_c, 0, 64, 60
2, 195699, Control_c, 0, 64, 65
2, 195715, Control_c, 0, 64, 73
2, 195730, Control_c, 0, 64, 90
2, 195737, Note_on_c, 0, 56, 0
2, 195745, Control_c, 0, 64, 127
2, 195782, Note_on_c, 0, 50, 0
2, 195944, Note_on_c, 0, 44, 55
2, 195988, Control_c, 0, 64, 91
2, 196003, Control_c, 0, 64, 78
2, 196018, Control_c, 0, 64, 69
2, 196034, Control_c, 0, 64, 62
2, 196048, Control_c, 0, 64, 53
2, 196064, Control_c, 0, 64, 46
2, 196079, Control_c, 0, 64, 45
2, 196251, Control_c, 0, 64, 45
2, 196266, Control_c, 0, 64, 44
2, 196300, Note_on_c, 0, 49, 52
2, 196359, Note_on_c, 0, 44, 0
2, 196419, Control_c, 0, 64, 44
2, 196556, Control_c, 0, 64, 43
2, 196640, Note_on_c, 0, 47, 40
2, 196648, Note_on_c, 0, 49, 0
2, 197007, Note_on_c, 0, 47, 0
2, 197008, Note_on_c, 0, 45, 38
2, 197081, Control_c, 0, 64, 44
2, 197095, Control_c, 0, 64, 47
2, 197111, Control_c, 0, 64, 51
2, 197126, Control_c, 0, 64, 55
2, 197141, Control_c, 0, 64, 57
2, 197157, Control_c, 0, 64, 58
2, 197171, Control_c, 0, 64, 59
2, 197186, Control_c, 0, 64, 59
2, 197263, Control_c, 0, 64, 58
2, 197279, Control_c, 0, 64, 57
2, 197293, Control_c, 0, 64, 56
2, 197305, Note_on_c, 0, 59, 0
2, 197309, Control_c, 0, 64, 55
2, 197324, Control_c, 0, 64, 54
2, 197339, Control_c, 0, 64, 53
2, 197347, Note_on_c, 0, 57, 39
2, 197355, Control_c, 0, 64, 53
2, 197362, Note_on_c, 0, 54, 42
2, 197370, Control_c, 0, 64, 52
2, 197373, Note_on_c, 0, 61, 51
2, 197378, Note_on_c, 0, 65, 0
2, 197400, Control_c, 0, 64, 52
2, 197430, Control_c, 0, 64, 51
2, 197460, Control_c, 0, 64, 51
2, 197462, Note_on_c, 0, 57, 0
2, 197490, Note_on_c, 0, 61, 0
2, 197505, Control_c, 0, 64, 50
2, 197512, Note_on_c, 0, 59, 52
2, 197519, Note_on_c, 0, 54, 0
2, 197526, Note_on_c, 0, 56, 46
2, 197538, Note_on_c, 0, 45, 0
2, 197659, Control_c, 0, 64, 50
2, 197663, Note_on_c, 0, 56, 0
2, 197670, Note_on_c, 0, 59, 0
2, 197698, Note_on_c, 0, 57, 42
2, 197706, Note_on_c, 0, 61, 51
2, 197713, Note_on_c, 0, 66, 62
2, 197818, Control_c, 0, 64, 49
2, 197970, Control_c, 0, 64, 49
2, 198066, Note_on_c, 0, 61, 0
2, 198072, Note_on_c, 0, 47, 34
2, 198080, Note_on_c, 0, 62, 47
2, 198106, Control_c, 0, 64, 48
2, 198124, Note_on_c, 0, 57, 0
2, 198410, Note_on_c, 0, 49, 31
2, 198413, Note_on_c, 0, 62, 0
2, 198421, Note_on_c, 0, 56, 39
2, 198424, Note_on_c, 0, 47, 0
2, 198425, Control_c, 0, 64, 48
2, 198436, Note_on_c, 0, 61, 46
2, 198693, Control_c, 0, 64, 47
2, 198790, Note_on_c, 0, 56, 0
2, 198791, Note_on_c, 0, 54, 35
2, 198830, Control_c, 0, 64, 47
2, 199143, Note_on_c, 0, 56, 37
2, 199165, Note_on_c, 0, 65, 48
2, 199174, Note_on_c, 0, 54, 0
2, 199183, Note_on_c, 0, 66, 0
2, 199224, Control_c, 0, 64, 46
2, 199240, Control_c, 0, 64, 42
2, 199255, Control_c, 0, 64, 34
2, 199279, Control_c, 0, 64, 0
2, 199415, Control_c, 0, 64, 47
2, 199431, Control_c, 0, 64, 63
2, 199446, Control_c, 0, 64, 68
2, 199461, Control_c, 0, 64, 78
2, 199477, Control_c, 0, 64, 93
2, 199492, Control_c, 0, 64, 127
2, 199527, Note_on_c, 0, 59, 40
2, 199531, Note_on_c, 0, 56, 0
2, 199596, Note_on_c, 0, 49, 0
2, 199693, Note_on_c, 0, 65, 0
2, 199700, Note_on_c, 0, 59, 0
2, 199761, Note_on_c, 0, 61, 0
2, 199956, Note_on_c, 0, 54, 36
2, 199957, Note_on_c, 0, 42, 43
2, 199962, Control_c, 0, 64, 93
2, 199963, Note_on_c, 0, 66, 54
2, 199977, Control_c, 0, 64, 69
2, 199983, Note_on_c, 0, 57, 33
2, 199993, Control_c, 0, 64, 46
2, 200008, Control_c, 0, 64, 0
2, 200060, Control_c, 0, 64, 55
2, 200076, Control_c, 0, 64, 64
2, 200092, Control_c, 0, 64, 72
2, 200107, Control_c, 0, 64, 88
2, 200123, Control_c, 0, 64, 127
2, 200168, Note_on_c, 0, 42, 0
2, 200195, Note_on_c, 0, 54, 0
2, 200207, Note_on_c, 0, 57, 0
2, 200289, Note_on_c, 0, 66, 0
2, 200409, Note_on_c, 0, 57, 58
2, 200537, Note_on_c, 0, 57, 0
2, 200770, Note_on_c, 0, 57, 70
2, 200895, Note_on_c, 0, 57, 0
2, 201133, Note_on_c, 0, 57, 70
2, 201139, Note_on_c, 0, 81, 77
2, 201302, Note_on_c, 0, 81, 0
2, 201482, Note_on_c, 0, 57, 0
2, 201488, Note_on_c, 0, 81, 80
2, 201497, Note_on_c, 0, 50, 70
2, 201514, Control_c, 0, 64, 108
2, 201528, Control_c, 0, 64, 81
2, 201543, Control_c, 0, 64, 66
2, 201559, Control_c, 0, 64, 42
2, 201582, Control_c, 0, 64, 0
2, 201627, Control_c, 0, 64, 52
2, 201643, Control_c, 0, 64, 60
2, 201657, Control_c, 0, 64, 64
2, 201673, Control_c, 0, 64, 67
2, 201688, Control_c, 0, 64, 76
2, 201703, Control_c, 0, 64, 90
2, 201719, Control_c, 0, 64, 112
2, 201720, Note_on_c, 0, 81, 0
2, 201735, Control_c, 0, 64, 127
2, 201863, Note_on_c, 0, 81, 82
2, 201871, Note_on_c, 0, 69, 74
2, 202045, Note_on_c, 0, 69, 0
2, 202172, Note_on_c, 0, 81, 0
2, 202221, Control_c, 0, 64, 95
2, 202224, Note_on_c, 0, 74, 78
2, 202232, Note_on_c, 0, 54, 58
2, 202237, Control_c, 0, 64, 72
2, 202237, Note_on_c, 0, 50, 0
2, 202237, Note_on_c, 0, 69, 64
2, 202251, Control_c, 0, 64, 56
2, 202266, Control_c, 0, 64, 0
2, 202312, Control_c, 0, 64, 49
2, 202327, Control_c, 0, 64, 59
2, 202351, Control_c, 0, 64, 64
2, 202366, Control_c, 0, 64, 73
2, 202380, Control_c, 0, 64, 88
2, 202396, Control_c, 0, 64, 114
2, 202411, Control_c, 0, 64, 127
2, 202452, Note_on_c, 0, 69, 0
2, 202581, Note_on_c, 0, 69, 71
2, 202582, Note_on_c, 0, 74, 0
2, 202632, Note_on_c, 0, 69, 0
2, 202947, Note_on_c, 0, 78, 73
2, 202959, Note_on_c, 0, 62, 54
2, 202990, Control_c, 0, 64, 111
2, 203005, Control_c, 0, 64, 88
2, 203017, Note_on_c, 0, 75, 3
2, 203018, Note_on_c, 0, 75, 0
2, 203020, Control_c, 0, 64, 76
2, 203036, Control_c, 0, 64, 68
2, 203050, Control_c, 0, 64, 61
2, 203065, Control_c, 0, 64, 43
2, 203081, Control_c, 0, 64, 0
2, 203313, Note_on_c, 0, 54, 0
2, 203315, Note_on_c, 0, 50, 58
2, 203328, Note_on_c, 0, 47, 41
2, 203673, Note_on_c, 0, 55, 60
2, 203678, Note_on_c, 0, 52, 54
2, 203698, Note_on_c, 0, 47, 0
2, 203717, Note_on_c, 0, 50, 0
2, 203774, Note_on_c, 0, 78, 0
2, 204016, Note_on_c, 0, 52, 0
2, 204034, Note_on_c, 0, 50, 42
2, 204034, Note_on_c, 0, 71, 71
2, 204041, Note_on_c, 0, 55, 0
2, 204044, Note_on_c, 0, 54, 55
2, 204058, Note_on_c, 0, 62, 0
2, 204384, Note_on_c, 0, 54, 0
2, 204396, Note_on_c, 0, 49, 41
2, 204396, Note_on_c, 0, 50, 0
2, 204402, Note_on_c, 0, 52, 43
2, 204405, Note_on_c, 0, 76, 67
2, 204426, Note_on_c, 0, 71, 0
2, 204709, Note_on_c, 0, 49, 0
2, 204732, Note_on_c, 0, 47, 43
2, 204745, Note_on_c, 0, 76, 0
2, 204747, Note_on_c, 0, 64, 67
2, 204751, Note_on_c, 0, 74, 57
2, 204760, Control_c, 0, 64, 34
2, 204775, Control_c, 0, 64, 48
2, 204791, Control_c, 0, 64, 56
2, 204796, Note_on_c, 0, 52, 0
2, 204806, Control_c, 0, 64, 59
2, 204821, Control_c, 0, 64, 62
2, 204836, Control_c, 0, 64, 66
2, 204851, Control_c, 0, 64, 73
2, 204851, Note_on_c, 0, 74, 0
2, 204866, Control_c, 0, 64, 83
2, 204882, Control_c, 0, 64, 92
2, 204897, Control_c, 0, 64, 101
2, 204913, Control_c, 0, 64, 117
2, 204928, Control_c, 0, 64, 127
2, 205090, Note_on_c, 0, 45, 44
2, 205095, Control_c, 0, 64, 96
2, 205096, Note_on_c, 0, 64, 0
2, 205109, Note_on_c, 0, 69, 64
2, 205109, Note_on_c, 0, 73, 60
2, 205111, Control_c, 0, 64, 76
2, 205126, Control_c, 0, 64, 64
2, 205132, Note_on_c, 0, 47, 0
2, 205140, Control_c, 0, 64, 46
2, 205156, Control_c, 0, 64, 0
2, 205261, Control_c, 0, 64, 21
2, 205277, Control_c, 0, 64, 46
2, 205292, Control_c, 0, 64, 52
2, 205307, Control_c, 0, 64, 56
2, 205323, Control_c, 0, 64, 59
2, 205337, Control_c, 0, 64, 62
2, 205353, Control_c, 0, 64, 65
2, 205368, Control_c, 0, 64, 69
2, 205383, Control_c, 0, 64, 74
2, 205399, Control_c, 0, 64, 78
2, 205421, Control_c, 0, 64, 81
2, 205437, Control_c, 0, 64, 86
2, 205445, Note_on_c, 0, 69, 0
2, 205452, Control_c, 0, 64, 94
2, 205459, Note_on_c, 0, 57, 64
2, 205467, Control_c, 0, 64, 108
2, 205472, Note_on_c, 0, 45, 0
2, 205482, Control_c, 0, 64, 127
2, 205484, Note_on_c, 0, 67, 49
2, 205616, Note_on_c, 0, 57, 0
2, 205801, Control_c, 0, 64, 120
2, 205815, Note_on_c, 0, 62, 56
2, 205815, Note_on_c, 0, 73, 0
2, 205816, Control_c, 0, 64, 99
2, 205817, Note_on_c, 0, 66, 66
2, 205833, Control_c, 0, 64, 86
2, 205847, Control_c, 0, 64, 74
2, 205862, Control_c, 0, 64, 65
2, 205878, Control_c, 0, 64, 57
2, 205893, Control_c, 0, 64, 43
2, 205907, Control_c, 0, 64, 29
2, 205923, Control_c, 0, 64, 27
2, 205969, Control_c, 0, 64, 26
2, 206009, Note_on_c, 0, 67, 0
2, 206169, Note_on_c, 0, 69, 63
2, 206194, Note_on_c, 0, 60, 50
2, 206235, Control_c, 0, 64, 26
2, 206245, Note_on_c, 0, 62, 0
2, 206386, Control_c, 0, 64, 25
2, 206493, Control_c, 0, 64, 24
2, 206500, Note_on_c, 0, 60, 0
2, 206509, Control_c, 0, 64, 24
2, 206523, Control_c, 0, 64, 23
2, 206531, Note_on_c, 0, 74, 56
2, 206538, Control_c, 0, 64, 22
2, 206539, Note_on_c, 0, 59, 42
2, 206539, Note_on_c, 0, 69, 0
2, 206569, Control_c, 0, 64, 21
2, 206584, Control_c, 0, 64, 21
2, 206707, Control_c, 0, 64, 21
2, 206723, Control_c, 0, 64, 34
2, 206737, Control_c, 0, 64, 45
2, 206753, Control_c, 0, 64, 52
2, 206768, Control_c, 0, 64, 57
2, 206783, Control_c, 0, 64, 60
2, 206799, Control_c, 0, 64, 62
2, 206814, Control_c, 0, 64, 63
2, 206829, Control_c, 0, 64, 64
2, 206836, Note_on_c, 0, 74, 0
2, 206844, Control_c, 0, 64, 66
2, 206859, Control_c, 0, 64, 68
2, 206874, Control_c, 0, 64, 72
2, 206881, Note_on_c, 0, 72, 56
2, 206883, Note_on_c, 0, 62, 54
2, 206889, Control_c, 0, 64, 81
2, 206904, Control_c, 0, 64, 100
2, 206920, Control_c, 0, 64, 127
2, 206968, Note_on_c, 0, 72, 0
2, 207019, Note_on_c, 0, 59, 0
2, 207038, Note_on_c, 0, 66, 0
2, 207242, Note_on_c, 0, 62, 0
2, 207243, Note_on_c, 0, 67, 64
2, 207245, Note_on_c, 0, 71, 61
2, 207322, Control_c, 0, 64, 103
2, 207337, Control_c, 0, 64, 88
2, 207353, Control_c, 0, 64, 77
2, 207368, Control_c, 0, 64, 69
2, 207382, Control_c, 0, 64, 62
2, 207398, Control_c, 0, 64, 48
2, 207413, Control_c, 0, 64, 21
2, 207429, Control_c, 0, 64, 0
2, 207581, Control_c, 0, 64, 19
2, 207581, Note_on_c, 0, 67, 0
2, 207593, Note_on_c, 0, 57, 44
2, 207595, Note_on_c, 0, 66, 51
2, 207597, Control_c, 0, 64, 40
2, 207600, Note_on_c, 0, 47, 30
2, 207612, Control_c, 0, 64, 51
2, 207627, Control_c, 0, 64, 56
2, 207643, Control_c, 0, 64, 60
2, 207658, Control_c, 0, 64, 63
2, 207673, Control_c, 0, 64, 65
2, 207688, Control_c, 0, 64, 68
2, 207703, Control_c, 0, 64, 74
2, 207725, Control_c, 0, 64, 79
2, 207740, Control_c, 0, 64, 83
2, 207756, Control_c, 0, 64, 85
2, 207771, Control_c, 0, 64, 86
2, 207776, Note_on_c, 0, 57, 0
2, 207923, Control_c, 0, 64, 84
2, 207938, Control_c, 0, 64, 82
2, 207954, Control_c, 0, 64, 78
2, 207965, Note_on_c, 0, 52, 39
2, 207965, Note_on_c, 0, 55, 48
2, 207967, Note_on_c, 0, 66, 0
2, 207969, Control_c, 0, 64, 73
2, 207971, Note_on_c, 0, 64, 63
2, 207971, Note_on_c, 0, 71, 0
2, 207973, Note_on_c, 0, 47, 0
2, 207984, Control_c, 0, 64, 68
2, 207999, Control_c, 0, 64, 63
2, 208014, Control_c, 0, 64, 57
2, 208030, Control_c, 0, 64, 52
2, 208045, Control_c, 0, 64, 51
2, 208211, Control_c, 0, 64, 51
2, 208316, Note_on_c, 0, 71, 70
2, 208320, Note_on_c, 0, 50, 46
2, 208320, Note_on_c, 0, 52, 0
2, 208628, Control_c, 0, 64, 51
2, 208644, Control_c, 0, 64, 53
2, 208658, Control_c, 0, 64, 56
2, 208658, Note_on_c, 0, 50, 0
2, 208665, Note_on_c, 0, 48, 49
2, 208673, Control_c, 0, 64, 58
2, 208677, Note_on_c, 0, 71, 0
2, 208679, Note_on_c, 0, 76, 71
2, 208689, Control_c, 0, 64, 61
2, 208704, Control_c, 0, 64, 64
2, 208720, Control_c, 0, 64, 68
2, 208735, Control_c, 0, 64, 73
2, 208750, Control_c, 0, 64, 81
2, 208765, Control_c, 0, 64, 91
2, 208780, Control_c, 0, 64, 105
2, 208796, Control_c, 0, 64, 127
2, 208817, Note_on_c, 0, 48, 0
2, 208964, Note_on_c, 0, 55, 0
2, 209022, Note_on_c, 0, 52, 59
2, 209023, Note_on_c, 0, 47, 43
2, 209036, Note_on_c, 0, 74, 73
2, 209039, Control_c, 0, 64, 107
2, 209053, Control_c, 0, 64, 86
2, 209068, Control_c, 0, 64, 74
2, 209084, Control_c, 0, 64, 66
2, 209100, Control_c, 0, 64, 60
2, 209111, Note_on_c, 0, 76, 0
2, 209116, Control_c, 0, 64, 51
2, 209131, Control_c, 0, 64, 46
2, 209305, Control_c, 0, 64, 46
2, 209359, Note_on_c, 0, 47, 0
2, 209396, Note_on_c, 0, 57, 63
2, 209404, Note_on_c, 0, 72, 67
2, 209405, Note_on_c, 0, 45, 40
2, 209411, Control_c, 0, 64, 45
2, 209424, Note_on_c, 0, 74, 0
2, 209439, Note_on_c, 0, 52, 0
2, 209442, Control_c, 0, 64, 45
2, 209457, Control_c, 0, 64, 44
2, 209594, Control_c, 0, 64, 44
2, 209613, Note_on_c, 0, 64, 0
2, 209717, Control_c, 0, 64, 43
2, 209747, Control_c, 0, 64, 43
2, 209760, Note_on_c, 0, 64, 53
2, 209777, Note_on_c, 0, 57, 0
2, 209794, Note_on_c, 0, 55, 43
2, 209945, Control_c, 0, 64, 42
2, 210090, Control_c, 0, 64, 42
2, 210097, Note_on_c, 0, 69, 65
2, 210098, Note_on_c, 0, 55, 0
2, 210104, Note_on_c, 0, 54, 52
2, 210104, Note_on_c, 0, 64, 0
2, 210211, Control_c, 0, 64, 41
2, 210363, Control_c, 0, 64, 44
2, 210378, Control_c, 0, 64, 48
2, 210393, Control_c, 0, 64, 53
2, 210408, Control_c, 0, 64, 56
2, 210423, Control_c, 0, 64, 58
2, 210431, Note_on_c, 0, 69, 0
2, 210439, Control_c, 0, 64, 60
2, 210444, Note_on_c, 0, 67, 62
2, 210450, Note_on_c, 0, 54, 0
2, 210453, Control_c, 0, 64, 61
2, 210467, Note_on_c, 0, 52, 12
2, 210468, Control_c, 0, 64, 62
2, 210484, Control_c, 0, 64, 64
2, 210499, Control_c, 0, 64, 66
2, 210514, Control_c, 0, 64, 68
2, 210527, Note_on_c, 0, 45, 0
2, 210529, Control_c, 0, 64, 70
2, 210544, Control_c, 0, 64, 72
2, 210560, Control_c, 0, 64, 73
2, 210743, Control_c, 0, 64, 73
2, 210758, Control_c, 0, 64, 71
2, 210759, Note_on_c, 0, 52, 0
2, 210773, Control_c, 0, 64, 68
2, 210796, Control_c, 0, 64, 65
2, 210796, Note_on_c, 0, 47, 33
2, 210800, Note_on_c, 0, 66, 56
2, 210804, Note_on_c, 0, 67, 0
2, 210806, Note_on_c, 0, 50, 41
2, 210811, Control_c, 0, 64, 60
2, 210826, Control_c, 0, 64, 52
2, 210842, Control_c, 0, 64, 49
2, 210857, Control_c, 0, 64, 48
2, 210888, Control_c, 0, 64, 48
2, 210918, Control_c, 0, 64, 47
2, 210933, Control_c, 0, 64, 46
2, 210948, Control_c, 0, 64, 46
2, 211126, Note_on_c, 0, 54, 50
2, 211144, Note_on_c, 0, 62, 55
2, 211148, Note_on_c, 0, 72, 0
2, 211176, Note_on_c, 0, 66, 0
2, 211449, Note_on_c, 0, 50, 0
2, 211462, Note_on_c, 0, 47, 0
2, 211488, Note_on_c, 0, 71, 64
2, 211489, Note_on_c, 0, 54, 0
2, 211490, Note_on_c, 0, 67, 58
2, 211499, Note_on_c, 0, 62, 0
2, 211500, Note_on_c, 0, 59, 42
2, 211815, Note_on_c, 0, 59, 0
2, 211836, Note_on_c, 0, 57, 46
2, 211841, Note_on_c, 0, 67, 0
2, 211852, Note_on_c, 0, 66, 50
2, 211853, Note_on_c, 0, 50, 35
2, 212159, Note_on_c, 0, 57, 0
2, 212189, Note_on_c, 0, 55, 32
2, 212193, Note_on_c, 0, 64, 49
2, 212215, Note_on_c, 0, 66, 0
2, 212510, Note_on_c, 0, 54, 46
2, 212520, Note_on_c, 0, 64, 0
2, 212527, Note_on_c, 0, 55, 0
2, 212532, Note_on_c, 0, 62, 50
2, 212652, Note_on_c, 0, 50, 0
2, 212818, Control_c, 0, 64, 45
2, 212827, Note_on_c, 0, 54, 0
2, 212858, Note_on_c, 0, 62, 0
2, 212877, Note_on_c, 0, 52, 44
2, 212885, Note_on_c, 0, 60, 39
2, 212890, Note_on_c, 0, 55, 35
2, 212924, Control_c, 0, 64, 46
2, 212939, Control_c, 0, 64, 48
2, 212954, Control_c, 0, 64, 49
2, 212970, Control_c, 0, 64, 51
2, 212985, Control_c, 0, 64, 53
2, 213000, Control_c, 0, 64, 55
2, 213010, Note_on_c, 0, 71, 0
2, 213015, Control_c, 0, 64, 55
2, 213030, Control_c, 0, 64, 56
2, 213114, Control_c, 0, 64, 55
2, 213129, Control_c, 0, 64, 55
2, 213160, Control_c, 0, 64, 54
2, 213175, Control_c, 0, 64, 54
2, 213187, Note_on_c, 0, 52, 0
2, 213207, Control_c, 0, 64, 53
2, 213223, Note_on_c, 0, 69, 65
2, 213233, Note_on_c, 0, 55, 0
2, 213234, Note_on_c, 0, 54, 43
2, 213234, Note_on_c, 0, 57, 39
2, 213239, Control_c, 0, 64, 53
2, 213254, Control_c, 0, 64, 52
2, 213299, Control_c, 0, 64, 52
2, 213315, Control_c, 0, 64, 51
2, 213345, Control_c, 0, 64, 50
2, 213361, Control_c, 0, 64, 49
2, 213375, Control_c, 0, 64, 48
2, 213391, Control_c, 0, 64, 46
2, 213406, Control_c, 0, 64, 45
2, 213421, Control_c, 0, 64, 43
2, 213437, Control_c, 0, 64, 40
2, 213452, Control_c, 0, 64, 38
2, 213466, Control_c, 0, 64, 34
2, 213482, Control_c, 0, 64, 29
2, 213497, Control_c, 0, 64, 17
2, 213513, Control_c, 0, 64, 0
2, 213565, Note_on_c, 0, 57, 0
2, 213568, Note_on_c, 0, 60, 0
2, 213580, Note_on_c, 0, 55, 43
2, 213583, Note_on_c, 0, 59, 57
2, 213599, Note_on_c, 0, 54, 0
2, 213756, Note_on_c, 0, 69, 0
2, 213757, Control_c, 0, 64, 56
2, 213771, Control_c, 0, 64, 62
2, 213786, Control_c, 0, 64, 63
2, 213802, Control_c, 0, 64, 64
2, 213817, Control_c, 0, 64, 66
2, 213833, Control_c, 0, 64, 68
2, 213847, Control_c, 0, 64, 70
2, 213886, Control_c, 0, 64, 69
2, 213901, Control_c, 0, 64, 64
2, 213917, Control_c, 0, 64, 57
2, 213931, Control_c, 0, 64, 53
2, 213931, Note_on_c, 0, 52, 39
2, 213933, Note_on_c, 0, 67, 58
2, 213946, Control_c, 0, 64, 56
2, 213962, Control_c, 0, 64, 61
2, 213976, Control_c, 0, 64, 66
2, 213983, Note_on_c, 0, 52, 0
2, 213992, Control_c, 0, 64, 80
2, 214002, Note_on_c, 0, 55, 0
2, 214007, Control_c, 0, 64, 109
2, 214023, Control_c, 0, 64, 127
2, 214232, Note_on_c, 0, 59, 0
2, 214266, Control_c, 0, 64, 105
2, 214271, Note_on_c, 0, 48, 43
2, 214271, Note_on_c, 0, 64, 56
2, 214278, Note_on_c, 0, 57, 51
2, 214281, Control_c, 0, 64, 89
2, 214295, Control_c, 0, 64, 78
2, 214311, Control_c, 0, 64, 69
2, 214326, Control_c, 0, 64, 61
2, 214341, Control_c, 0, 64, 40
2, 214356, Control_c, 0, 64, 0
2, 214519, Note_on_c, 0, 67, 0
2, 214617, Note_on_c, 0, 45, 35
2, 214625, Note_on_c, 0, 48, 0
2, 214642, Note_on_c, 0, 64, 0
2, 214648, Note_on_c, 0, 66, 50
2, 214735, Note_on_c, 0, 66, 0
2, 214792, Note_on_c, 0, 64, 51
2, 214965, Note_on_c, 0, 64, 0
2, 214972, Note_on_c, 0, 45, 0
2, 214984, Note_on_c, 0, 66, 53
2, 214986, Note_on_c, 0, 62, 45
2, 214990, Note_on_c, 0, 50, 35
2, 215245, Control_c, 0, 64, 38
2, 215260, Control_c, 0, 64, 50
2, 215276, Control_c, 0, 64, 56
2, 215291, Control_c, 0, 64, 61
2, 215306, Control_c, 0, 64, 65
2, 215321, Control_c, 0, 64, 69
2, 215323, Note_on_c, 0, 48, 46
2, 215336, Control_c, 0, 64, 75
2, 215352, Control_c, 0, 64, 82
2, 215367, Control_c, 0, 64, 89
2, 215382, Control_c, 0, 64, 93
2, 215404, Note_on_c, 0, 57, 0
2, 215405, Control_c, 0, 64, 96
2, 215420, Control_c, 0, 64, 100
2, 215436, Control_c, 0, 64, 110
2, 215450, Control_c, 0, 64, 127
2, 215461, Note_on_c, 0, 48, 0
2, 215501, Note_on_c, 0, 50, 0
2, 215666, Note_on_c, 0, 66, 0
2, 215679, Control_c, 0, 64, 120
2, 215694, Control_c, 0, 64, 84
2, 215710, Control_c, 0, 64, 67
2, 215711, Note_on_c, 0, 67, 54
2, 215715, Note_on_c, 0, 55, 49
2, 215725, Control_c, 0, 64, 41
2, 215732, Note_on_c, 0, 47, 24
2, 215740, Control_c, 0, 64, 0
2, 215801, Control_c, 0, 64, 36
2, 215816, Control_c, 0, 64, 64
2, 215832, Control_c, 0, 64, 79
2, 215846, Control_c, 0, 64, 127
2, 215854, Note_on_c, 0, 47, 0
2, 215882, Note_on_c, 0, 55, 0
2, 215902, Note_on_c, 0, 62, 0
2, 215949, Note_on_c, 0, 67, 0
2, 216117, Note_on_c, 0, 62, 66
2, 216135, Control_c, 0, 64, 115
2, 216137, Note_on_c, 0, 50, 41
2, 216151, Control_c, 0, 64, 75
2, 216173, Control_c, 0, 64, 57
2, 216187, Control_c, 0, 64, 0
2, 216218, Control_c, 0, 64, 16
2, 216234, Control_c, 0, 64, 50
2, 216249, Control_c, 0, 64, 59
2, 216264, Control_c, 0, 64, 64
2, 216280, Control_c, 0, 64, 69
2, 216294, Control_c, 0, 64, 78
2, 216310, Control_c, 0, 64, 89
2, 216325, Control_c, 0, 64, 114
2, 216338, Note_on_c, 0, 62, 0
2, 216340, Control_c, 0, 64, 127
2, 216456, Note_on_c, 0, 50, 0
2, 216478, Note_on_c, 0, 62, 75
2, 216484, Note_on_c, 0, 55, 64
2, 216493, Control_c, 0, 64, 80
2, 216509, Control_c, 0, 64, 67
2, 216523, Control_c, 0, 64, 64
2, 216538, Control_c, 0, 64, 65
2, 216554, Control_c, 0, 64, 69
2, 216569, Control_c, 0, 64, 77
2, 216577, Note_on_c, 0, 55, 0
2, 216584, Control_c, 0, 64, 90
2, 216599, Control_c, 0, 64, 107
2, 216614, Control_c, 0, 64, 127
2, 216653, Note_on_c, 0, 62, 0
2, 216822, Note_on_c, 0, 62, 74
2, 216826, Control_c, 0, 64, 85
2, 216826, Note_on_c, 0, 54, 52
2, 216829, Note_on_c, 0, 71, 80
2, 216842, Control_c, 0, 64, 62
2, 216857, Control_c, 0, 64, 0
2, 216903, Control_c, 0, 64, 37
2, 216919, Control_c, 0, 64, 54
2, 216937, Note_on_c, 0, 54, 0
2, 216940, Control_c, 0, 64, 61
2, 216956, Control_c, 0, 64, 67
2, 216971, Control_c, 0, 64, 76
2, 216986, Control_c, 0, 64, 89
2, 217002, Control_c, 0, 64, 115
2, 217004, Note_on_c, 0, 62, 0
2, 217016, Control_c, 0, 64, 127
2, 217058, Note_on_c, 0, 71, 0
2, 217192, Note_on_c, 0, 71, 78
2, 217193, Note_on_c, 0, 55, 66
2, 217195, Note_on_c, 0, 52, 48
2, 217200, Control_c, 0, 64, 111
2, 217215, Control_c, 0, 64, 78
2, 217230, Control_c, 0, 64, 63
2, 217245, Control_c, 0, 64, 32
2, 217260, Control_c, 0, 64, 0
2, 217276, Control_c, 0, 64, 33
2, 217292, Control_c, 0, 64, 53
2, 217306, Control_c, 0, 64, 61
2, 217322, Control_c, 0, 64, 65
2, 217337, Control_c, 0, 64, 71
2, 217353, Control_c, 0, 64, 82
2, 217367, Control_c, 0, 64, 96
2, 217382, Control_c, 0, 64, 122
2, 217398, Control_c, 0, 64, 127
2, 217430, Note_on_c, 0, 71, 0
2, 217562, Note_on_c, 0, 71, 82
2, 217571, Note_on_c, 0, 79, 79
2, 217605, Note_on_c, 0, 55, 0
2, 217627, Note_on_c, 0, 71, 0
2, 217646, Note_on_c, 0, 79, 0
2, 217926, Note_on_c, 0, 59, 66
2, 217929, Note_on_c, 0, 79, 84
2, 217931, Note_on_c, 0, 64, 67
2, 217937, Control_c, 0, 64, 81
2, 217952, Control_c, 0, 64, 63
2, 217967, Control_c, 0, 64, 0
2, 218028, Control_c, 0, 64, 49
2, 218044, Control_c, 0, 64, 63
2, 218059, Control_c, 0, 64, 69
2, 218074, Control_c, 0, 64, 79
2, 218089, Control_c, 0, 64, 97
2, 218104, Control_c, 0, 64, 127
2, 218124, Note_on_c, 0, 79, 0
2, 218286, Note_on_c, 0, 79, 83
2, 218303, Note_on_c, 0, 59, 0
2, 218396, Note_on_c, 0, 64, 0
2, 218436, Note_on_c, 0, 52, 0
2, 218654, Note_on_c, 0, 73, 79
2, 218661, Note_on_c, 0, 67, 60
2, 218674, Note_on_c, 0, 79, 0
2, 218994, Note_on_c, 0, 50, 49
2, 218995, Control_c, 0, 64, 91
2, 218999, Note_on_c, 0, 52, 47
2, 219010, Control_c, 0, 64, 69
2, 219025, Control_c, 0, 64, 55
2, 219041, Control_c, 0, 64, 45
2, 219055, Control_c, 0, 64, 51
2, 219071, Control_c, 0, 64, 60
2, 219086, Control_c, 0, 64, 64
2, 219101, Control_c, 0, 64, 68
2, 219117, Control_c, 0, 64, 74
2, 219131, Control_c, 0, 64, 85
2, 219146, Control_c, 0, 64, 98
2, 219162, Control_c, 0, 64, 118
2, 219177, Control_c, 0, 64, 127
2, 219350, Note_on_c, 0, 49, 40
2, 219365, Note_on_c, 0, 57, 52
2, 219365, Note_on_c, 0, 76, 74
2, 219367, Control_c, 0, 64, 88
2, 219371, Note_on_c, 0, 67, 0
2, 219382, Control_c, 0, 64, 69
2, 219382, Note_on_c, 0, 73, 0
2, 219395, Note_on_c, 0, 52, 0
2, 219398, Control_c, 0, 64, 55
2, 219413, Control_c, 0, 64, 34
2, 219427, Control_c, 0, 64, 38
2, 219443, Control_c, 0, 64, 48
2, 219450, Note_on_c, 0, 50, 0
2, 219458, Control_c, 0, 64, 57
2, 219473, Control_c, 0, 64, 62
2, 219488, Control_c, 0, 64, 65
2, 219503, Control_c, 0, 64, 69
2, 219519, Control_c, 0, 64, 76
2, 219533, Note_on_c, 0, 57, 0
2, 219534, Control_c, 0, 64, 85
2, 219548, Control_c, 0, 64, 91
2, 219564, Control_c, 0, 64, 95
2, 219579, Control_c, 0, 64, 98
2, 219595, Control_c, 0, 64, 100
2, 219609, Control_c, 0, 64, 101
2, 219615, Note_on_c, 0, 49, 0
2, 219686, Control_c, 0, 64, 95
2, 219700, Control_c, 0, 64, 80
2, 219713, Note_on_c, 0, 55, 46
2, 219713, Note_on_c, 0, 61, 53
2, 219716, Control_c, 0, 64, 67
2, 219716, Note_on_c, 0, 45, 39
2, 219731, Control_c, 0, 64, 52
2, 219746, Control_c, 0, 64, 12
2, 219763, Control_c, 0, 64, 22
2, 219777, Control_c, 0, 64, 43
2, 219793, Control_c, 0, 64, 55
2, 219808, Control_c, 0, 64, 61
2, 219823, Control_c, 0, 64, 63
2, 219839, Control_c, 0, 64, 66
2, 219854, Control_c, 0, 64, 69
2, 219868, Control_c, 0, 64, 74
2, 219884, Control_c, 0, 64, 78
2, 219899, Control_c, 0, 64, 81
2, 219915, Control_c, 0, 64, 82
2, 220013, Control_c, 0, 64, 79
2, 220028, Control_c, 0, 64, 71
2, 220044, Control_c, 0, 64, 62
2, 220056, Note_on_c, 0, 55, 0
2, 220058, Control_c, 0, 64, 28
2, 220074, Control_c, 0, 64, 0
2, 220075, Note_on_c, 0, 50, 36
2, 220078, Note_on_c, 0, 66, 54
2, 220079, Note_on_c, 0, 54, 35
2, 220098, Note_on_c, 0, 61, 0
2, 220104, Control_c, 0, 64, 36
2, 220104, Note_on_c, 0, 45, 0
2, 220120, Control_c, 0, 64, 52
2, 220135, Control_c, 0, 64, 60
2, 220151, Control_c, 0, 64, 63
2, 220166, Control_c, 0, 64, 66
2, 220180, Control_c, 0, 64, 72
2, 220196, Control_c, 0, 64, 82
2, 220211, Control_c, 0, 64, 96
2, 220226, Control_c, 0, 64, 117
2, 220241, Control_c, 0, 64, 127
2, 220379, Note_on_c, 0, 76, 0
2, 220393, Control_c, 0, 64, 108
2, 220407, Note_on_c, 0, 69, 68
2, 220408, Control_c, 0, 64, 86
2, 220409, Note_on_c, 0, 48, 35
2, 220411, Note_on_c, 0, 64, 56
2, 220423, Control_c, 0, 64, 70
2, 220423, Note_on_c, 0, 66, 0
2, 220440, Control_c, 0, 64, 59
2, 220454, Control_c, 0, 64, 54
2, 220470, Control_c, 0, 64, 55
2, 220470, Note_on_c, 0, 50, 0
2, 220485, Control_c, 0, 64, 60
2, 220500, Control_c, 0, 64, 64
2, 220516, Control_c, 0, 64, 69
2, 220530, Control_c, 0, 64, 74
2, 220545, Control_c, 0, 64, 78
2, 220561, Control_c, 0, 64, 80
2, 220577, Control_c, 0, 64, 82
2, 220593, Control_c, 0, 64, 85
2, 220608, Control_c, 0, 64, 89
2, 220622, Control_c, 0, 64, 92
2, 220638, Control_c, 0, 64, 94
2, 220647, Note_on_c, 0, 64, 0
2, 220653, Control_c, 0, 64, 95
2, 220729, Control_c, 0, 64, 92
2, 220744, Control_c, 0, 64, 83
2, 220759, Control_c, 0, 64, 68
2, 220766, Note_on_c, 0, 74, 69
2, 220780, Note_on_c, 0, 69, 0
2, 220782, Control_c, 0, 64, 57
2, 220786, Note_on_c, 0, 47, 36
2, 220793, Note_on_c, 0, 62, 36
2, 220798, Control_c, 0, 64, 50
2, 220813, Control_c, 0, 64, 52
2, 220828, Control_c, 0, 64, 57
2, 220843, Control_c, 0, 64, 62
2, 220858, Control_c, 0, 64, 66
2, 220874, Control_c, 0, 64, 72
2, 220878, Note_on_c, 0, 48, 0
2, 220888, Control_c, 0, 64, 77
2, 220903, Control_c, 0, 64, 79
2, 220919, Control_c, 0, 64, 82
2, 220922, Note_on_c, 0, 47, 0
2, 220934, Control_c, 0, 64, 84
2, 220950, Control_c, 0, 64, 86
2, 220964, Control_c, 0, 64, 88
2, 220979, Control_c, 0, 64, 90
2, 221113, Note_on_c, 0, 74, 0
2, 221117, Note_on_c, 0, 45, 46
2, 221119, Note_on_c, 0, 72, 64
2, 221186, Note_on_c, 0, 72, 0
2, 221193, Control_c, 0, 64, 90
2, 221194, Note_on_c, 0, 54, 0
2, 221207, Control_c, 0, 64, 91
2, 221217, Note_on_c, 0, 45, 0
2, 221222, Control_c, 0, 64, 92
2, 221436, Control_c, 0, 64, 89
2, 221451, Control_c, 0, 64, 83
2, 221465, Control_c, 0, 64, 76
2, 221474, Note_on_c, 0, 43, 39
2, 221481, Control_c, 0, 64, 69
2, 221483, Note_on_c, 0, 71, 60
2, 221496, Control_c, 0, 64, 61
2, 221512, Control_c, 0, 64, 45
2, 221527, Control_c, 0, 64, 0
2, 221731, Control_c, 0, 64, 21
2, 221746, Control_c, 0, 64, 38
2, 221762, Control_c, 0, 64, 44
2, 221777, Control_c, 0, 64, 48
2, 221793, Control_c, 0, 64, 53
2, 221807, Control_c, 0, 64, 57
2, 221822, Control_c, 0, 64, 60
2, 221838, Control_c, 0, 64, 62
2, 221844, Note_on_c, 0, 47, 47
2, 221853, Control_c, 0, 64, 63
2, 221868, Control_c, 0, 64, 64
2, 221884, Control_c, 0, 64, 65
2, 221893, Note_on_c, 0, 43, 0
2, 221899, Control_c, 0, 64, 67
2, 221915, Control_c, 0, 64, 70
2, 221929, Control_c, 0, 64, 78
2, 221944, Control_c, 0, 64, 84
2, 221960, Control_c, 0, 64, 87
2, 221975, Control_c, 0, 64, 88
2, 222157, Control_c, 0, 64, 87
2, 222172, Control_c, 0, 64, 84
2, 222180, Note_on_c, 0, 47, 0
2, 222186, Note_on_c, 0, 44, 42
2, 222187, Control_c, 0, 64, 81
2, 222195, Note_on_c, 0, 52, 50
2, 222204, Control_c, 0, 64, 77
2, 222219, Control_c, 0, 64, 71
2, 222234, Control_c, 0, 64, 62
2, 222249, Control_c, 0, 64, 41
2, 222264, Control_c, 0, 64, 0
2, 222363, Control_c, 0, 64, 26
2, 222378, Control_c, 0, 64, 31
2, 222394, Control_c, 0, 64, 34
2, 222409, Control_c, 0, 64, 40
2, 222424, Control_c, 0, 64, 45
2, 222440, Control_c, 0, 64, 47
2, 222452, Note_on_c, 0, 62, 0
2, 222454, Control_c, 0, 64, 48
2, 222500, Control_c, 0, 64, 48
2, 222516, Control_c, 0, 64, 49
2, 222535, Note_on_c, 0, 52, 0
2, 222558, Note_on_c, 0, 59, 56
2, 222566, Note_on_c, 0, 50, 36
2, 222713, Control_c, 0, 64, 48
2, 222780, Note_on_c, 0, 44, 0
2, 222819, Control_c, 0, 64, 49
2, 222835, Control_c, 0, 64, 50
2, 222849, Control_c, 0, 64, 51
2, 222864, Control_c, 0, 64, 51
2, 222880, Control_c, 0, 64, 52
2, 222895, Control_c, 0, 64, 52
2, 222901, Note_on_c, 0, 49, 34
2, 222911, Control_c, 0, 64, 53
2, 222917, Note_on_c, 0, 45, 32
2, 222920, Note_on_c, 0, 59, 0
2, 222925, Control_c, 0, 64, 53
2, 222926, Note_on_c, 0, 64, 54
2, 222942, Note_on_c, 0, 50, 0
2, 222971, Control_c, 0, 64, 54
2, 222985, Control_c, 0, 64, 54
2, 223001, Control_c, 0, 64, 55
2, 223016, Control_c, 0, 64, 56
2, 223033, Control_c, 0, 64, 57
2, 223048, Control_c, 0, 64, 58
2, 223063, Control_c, 0, 64, 60
2, 223085, Control_c, 0, 64, 62
2, 223100, Control_c, 0, 64, 63
2, 223116, Control_c, 0, 64, 65
2, 223131, Control_c, 0, 64, 66
2, 223140, Note_on_c, 0, 64, 0
2, 223146, Control_c, 0, 64, 68
2, 223162, Control_c, 0, 64, 70
2, 223177, Control_c, 0, 64, 71
2, 223193, Control_c, 0, 64, 72
2, 223278, Note_on_c, 0, 64, 68
2, 223281, Note_on_c, 0, 71, 0
2, 223287, Note_on_c, 0, 50, 44
2, 223288, Note_on_c, 0, 62, 54
2, 223296, Note_on_c, 0, 49, 0
2, 223298, Control_c, 0, 64, 71
2, 223314, Control_c, 0, 64, 69
2, 223329, Control_c, 0, 64, 67
2, 223344, Control_c, 0, 64, 67
2, 223390, Control_c, 0, 64, 66
2, 223405, Control_c, 0, 64, 66
2, 223465, Control_c, 0, 64, 65
2, 223495, Control_c, 0, 64, 65
2, 223527, Control_c, 0, 64, 64
2, 223558, Control_c, 0, 64, 64
2, 223572, Control_c, 0, 64, 63
2, 223587, Control_c, 0, 64, 63
2, 223603, Control_c, 0, 64, 61
2, 223617, Control_c, 0, 64, 59
2, 223633, Control_c, 0, 64, 55
2, 223642, Note_on_c, 0, 64, 0
2, 223643, Note_on_c, 0, 62, 0
2, 223648, Control_c, 0, 64, 51
2, 223651, Note_on_c, 0, 50, 0
2, 223651, Note_on_c, 0, 52, 40
2, 223652, Note_on_c, 0, 69, 58
2, 223663, Control_c, 0, 64, 44
2, 223663, Note_on_c, 0, 61, 46
2, 223679, Control_c, 0, 64, 31
2, 223694, Control_c, 0, 64, 0
2, 223801, Control_c, 0, 64, 30
2, 223816, Control_c, 0, 64, 48
2, 223831, Control_c, 0, 64, 55
2, 223854, Control_c, 0, 64, 58
2, 223870, Control_c, 0, 64, 61
2, 223885, Control_c, 0, 64, 63
2, 223900, Control_c, 0, 64, 65
2, 223916, Control_c, 0, 64, 72
2, 223930, Control_c, 0, 64, 87
2, 223945, Control_c, 0, 64, 115
2, 223961, Control_c, 0, 64, 127
2, 223993, Note_on_c, 0, 45, 0
2, 224003, Note_on_c, 0, 67, 60
2, 224011, Note_on_c, 0, 69, 0
2, 224015, Note_on_c, 0, 52, 0
2, 224017, Note_on_c, 0, 64, 49
2, 224159, Note_on_c, 0, 67, 0
2, 224324, Control_c, 0, 64, 111
2, 224339, Control_c, 0, 64, 85
2, 224344, Note_on_c, 0, 46, 44
2, 224351, Note_on_c, 0, 66, 58
2, 224354, Control_c, 0, 64, 66
2, 224356, Note_on_c, 0, 64, 0
2, 224369, Control_c, 0, 64, 43
2, 224384, Control_c, 0, 64, 0
2, 224460, Control_c, 0, 64, 43
2, 224476, Control_c, 0, 64, 53
2, 224491, Control_c, 0, 64, 58
2, 224506, Control_c, 0, 64, 61
2, 224522, Control_c, 0, 64, 65
2, 224536, Control_c, 0, 64, 71
2, 224552, Control_c, 0, 64, 82
2, 224567, Control_c, 0, 64, 95
2, 224582, Control_c, 0, 64, 114
2, 224598, Control_c, 0, 64, 127
2, 224693, Note_on_c, 0, 49, 48
2, 225045, Note_on_c, 0, 73, 61
2, 225049, Note_on_c, 0, 54, 47
2, 225061, Control_c, 0, 64, 113
2, 225077, Control_c, 0, 64, 88
2, 225079, Note_on_c, 0, 61, 0
2, 225092, Control_c, 0, 64, 72
2, 225106, Control_c, 0, 64, 67
2, 225122, Control_c, 0, 64, 66
2, 225137, Control_c, 0, 64, 68
2, 225153, Control_c, 0, 64, 72
2, 225168, Control_c, 0, 64, 77
2, 225182, Control_c, 0, 64, 82
2, 225198, Control_c, 0, 64, 86
2, 225213, Control_c, 0, 64, 87
2, 225259, Control_c, 0, 64, 84
2, 225275, Control_c, 0, 64, 76
2, 225290, Control_c, 0, 64, 66
2, 225304, Control_c, 0, 64, 51
2, 225320, Control_c, 0, 64, 0
2, 225366, Control_c, 0, 64, 46
2, 225387, Control_c, 0, 64, 57
2, 225392, Note_on_c, 0, 54, 0
2, 225400, Note_on_c, 0, 52, 43
2, 225403, Control_c, 0, 64, 61
2, 225415, Note_on_c, 0, 61, 58
2, 225418, Control_c, 0, 64, 63
2, 225428, Note_on_c, 0, 49, 0
2, 225428, Note_on_c, 0, 66, 0
2, 225434, Control_c, 0, 64, 65
2, 225449, Control_c, 0, 64, 67
2, 225463, Control_c, 0, 64, 71
2, 225479, Control_c, 0, 64, 77
2, 225495, Control_c, 0, 64, 80
2, 225540, Note_on_c, 0, 46, 0
2, 225602, Control_c, 0, 64, 80
2, 225647, Control_c, 0, 64, 79
2, 225662, Control_c, 0, 64, 77
2, 225678, Control_c, 0, 64, 75
2, 225693, Control_c, 0, 64, 73
2, 225708, Control_c, 0, 64, 71
2, 225724, Control_c, 0, 64, 68
2, 225739, Control_c, 0, 64, 65
2, 225754, Control_c, 0, 64, 61
2, 225767, Note_on_c, 0, 52, 0
2, 225769, Control_c, 0, 64, 54
2, 225773, Note_on_c, 0, 47, 36
2, 225778, Note_on_c, 0, 50, 39
2, 225784, Control_c, 0, 64, 41
2, 225794, Note_on_c, 0, 66, 54
2, 225800, Control_c, 0, 64, 24
2, 225814, Control_c, 0, 64, 0
2, 225841, Note_on_c, 0, 73, 0
2, 225896, Note_on_c, 0, 61, 0
2, 226026, Note_on_c, 0, 66, 0
2, 226176, Note_on_c, 0, 66, 54
2, 226193, Note_on_c, 0, 64, 47
2, 226435, Note_on_c, 0, 47, 0
2, 226470, Note_on_c, 0, 50, 0
2, 226506, Note_on_c, 0, 64, 0
2, 226522, Note_on_c, 0, 66, 0
2, 226530, Note_on_c, 0, 71, 52
2, 226547, Note_on_c, 0, 62, 34
2, 226876, Note_on_c, 0, 54, 46
2, 226895, Note_on_c, 0, 69, 38
2, 226931, Note_on_c, 0, 71, 0
2, 227240, Note_on_c, 0, 69, 0
2, 227246, Note_on_c, 0, 67, 62
2, 227271, Note_on_c, 0, 59, 45
2, 227275, Control_c, 0, 64, 38
2, 227285, Note_on_c, 0, 54, 0
2, 227290, Control_c, 0, 64, 47
2, 227304, Control_c, 0, 64, 55
2, 227320, Control_c, 0, 64, 63
2, 227335, Control_c, 0, 64, 71
2, 227351, Control_c, 0, 64, 93
2, 227366, Control_c, 0, 64, 127
2, 227430, Note_on_c, 0, 59, 0
2, 227605, Note_on_c, 0, 47, 44
2, 227609, Control_c, 0, 64, 105
2, 227609, Note_on_c, 0, 57, 48
2, 227624, Control_c, 0, 64, 83
2, 227639, Control_c, 0, 64, 71
2, 227654, Control_c, 0, 64, 64
2, 227670, Control_c, 0, 64, 54
2, 227693, Control_c, 0, 64, 44
2, 227707, Control_c, 0, 64, 43
2, 227723, Control_c, 0, 64, 45
2, 227738, Control_c, 0, 64, 54
2, 227754, Control_c, 0, 64, 60
2, 227768, Control_c, 0, 64, 63
2, 227783, Control_c, 0, 64, 65
2, 227794, Note_on_c, 0, 57, 0
2, 227799, Control_c, 0, 64, 66
2, 227814, Control_c, 0, 64, 67
2, 227830, Control_c, 0, 64, 67
2, 227920, Control_c, 0, 64, 67
2, 227935, Control_c, 0, 64, 65
2, 227952, Control_c, 0, 64, 63
2, 227967, Control_c, 0, 64, 61
2, 227979, Note_on_c, 0, 47, 0
2, 227980, Note_on_c, 0, 62, 0
2, 227982, Control_c, 0, 64, 59
2, 227988, Note_on_c, 0, 55, 44
2, 227993, Note_on_c, 0, 52, 38
2, 227998, Control_c, 0, 64, 57
2, 228013, Control_c, 0, 64, 57
2, 228027, Control_c, 0, 64, 56
2, 228043, Control_c, 0, 64, 56
2, 228058, Control_c, 0, 64, 55
2, 228073, Control_c, 0, 64, 54
2, 228134, Control_c, 0, 64, 54
2, 228179, Control_c, 0, 64, 53
2, 228343, Note_on_c, 0, 59, 49
2, 228358, Note_on_c, 0, 50, 38
2, 228388, Note_on_c, 0, 52, 0
2, 228521, Control_c, 0, 64, 53
2, 228704, Note_on_c, 0, 59, 0
2, 228708, Note_on_c, 0, 50, 0
2, 228711, Note_on_c, 0, 49, 48
2, 228721, Note_on_c, 0, 64, 62
2, 228765, Note_on_c, 0, 55, 0
2, 228811, Control_c, 0, 64, 52
2, 229045, Note_on_c, 0, 64, 0
2, 229047, Note_on_c, 0, 52, 46
2, 229063, Note_on_c, 0, 62, 59
2, 229084, Control_c, 0, 64, 52
2, 229166, Note_on_c, 0, 49, 0
2, 229194, Note_on_c, 0, 67, 0
2, 229228, Control_c, 0, 64, 51
2, 229258, Control_c, 0, 64, 51
2, 229427, Note_on_c, 0, 52, 0
2, 229433, Note_on_c, 0, 61, 64
2, 229436, Note_on_c, 0, 57, 40
2, 229442, Control_c, 0, 64, 50
2, 229514, Note_on_c, 0, 62, 0
2, 229532, Control_c, 0, 64, 50
2, 229701, Control_c, 0, 64, 49
2, 229731, Control_c, 0, 64, 49
2, 229782, Note_on_c, 0, 64, 75
2, 229785, Note_on_c, 0, 55, 52
2, 229786, Note_on_c, 0, 57, 0
2, 229837, Control_c, 0, 64, 48
2, 230012, Control_c, 0, 64, 48
2, 230064, Note_on_c, 0, 61, 0
2, 230137, Note_on_c, 0, 69, 72
2, 230138, Note_on_c, 0, 55, 0
2, 230146, Note_on_c, 0, 64, 0
2, 230151, Note_on_c, 0, 54, 54
2, 230178, Control_c, 0, 64, 47
2, 230194, Control_c, 0, 64, 47
2, 230209, Control_c, 0, 64, 46
2, 230240, Control_c, 0, 64, 46
2, 230255, Control_c, 0, 64, 45
2, 230270, Control_c, 0, 64, 44
2, 230300, Control_c, 0, 64, 44
2, 230316, Control_c, 0, 64, 43
2, 230331, Control_c, 0, 64, 43
2, 230346, Control_c, 0, 64, 41
2, 230362, Control_c, 0, 64, 40
2, 230376, Control_c, 0, 64, 36
2, 230392, Control_c, 0, 64, 30
2, 230408, Control_c, 0, 64, 15
2, 230423, Control_c, 0, 64, 0
2, 230505, Note_on_c, 0, 57, 49
2, 230511, Note_on_c, 0, 67, 71
2, 230530, Note_on_c, 0, 61, 44
2, 230533, Note_on_c, 0, 69, 0
2, 230555, Note_on_c, 0, 54, 0
2, 230857, Note_on_c, 0, 57, 0
2, 230866, Note_on_c, 0, 66, 77
2, 230868, Note_on_c, 0, 61, 0
2, 230874, Note_on_c, 0, 67, 0
2, 230877, Note_on_c, 0, 62, 55
2, 230915, Control_c, 0, 64, 26
2, 230931, Control_c, 0, 64, 30
2, 230945, Control_c, 0, 64, 38
2, 230961, Control_c, 0, 64, 47
2, 230976, Control_c, 0, 64, 51
2, 230991, Control_c, 0, 64, 52
2, 231083, Control_c, 0, 64, 51
2, 231097, Control_c, 0, 64, 46
2, 231112, Control_c, 0, 64, 37
2, 231128, Control_c, 0, 64, 21
2, 231142, Control_c, 0, 64, 0
2, 231198, Note_on_c, 0, 61, 52
2, 231200, Note_on_c, 0, 62, 0
2, 231200, Note_on_c, 0, 69, 79
2, 231213, Note_on_c, 0, 64, 62
2, 231217, Note_on_c, 0, 66, 0
2, 231220, Control_c, 0, 64, 45
2, 231235, Control_c, 0, 64, 55
2, 231250, Control_c, 0, 64, 62
2, 231265, Control_c, 0, 64, 66
2, 231281, Control_c, 0, 64, 74
2, 231296, Control_c, 0, 64, 90
2, 231311, Control_c, 0, 64, 127
2, 231313, Note_on_c, 0, 64, 0
2, 231328, Note_on_c, 0, 69, 0
2, 231547, Note_on_c, 0, 61, 0
2, 231562, Note_on_c, 0, 74, 84
2, 231575, Note_on_c, 0, 62, 65
2, 231576, Note_on_c, 0, 59, 58
2, 231607, Control_c, 0, 64, 107
2, 231622, Control_c, 0, 64, 92
2, 231638, Control_c, 0, 64, 83
2, 231653, Control_c, 0, 64, 74
2, 231668, Control_c, 0, 64, 68
2, 231684, Control_c, 0, 64, 62
2, 231699, Control_c, 0, 64, 51
2, 231713, Control_c, 0, 64, 36
2, 231729, Control_c, 0, 64, 24
2, 231744, Control_c, 0, 64, 22
2, 231760, Control_c, 0, 64, 21
2, 231775, Control_c, 0, 64, 19
2, 231789, Control_c, 0, 64, 13
2, 231805, Control_c, 0, 64, 0
2, 231921, Note_on_c, 0, 62, 0
2, 231923, Note_on_c, 0, 73, 82
2, 231927, Note_on_c, 0, 59, 0
2, 231935, Note_on_c, 0, 57, 61
2, 231936, Note_on_c, 0, 66, 61
2, 231974, Note_on_c, 0, 74, 0
2, 232270, Note_on_c, 0, 73, 0
2, 232274, Note_on_c, 0, 55, 66
2, 232280, Note_on_c, 0, 71, 81
2, 232306, Note_on_c, 0, 66, 0
2, 232326, Note_on_c, 0, 57, 0
2, 232360, Control_c, 0, 64, 21
2, 232374, Control_c, 0, 64, 34
2, 232389, Control_c, 0, 64, 42
2, 232405, Control_c, 0, 64, 46
2, 232420, Control_c, 0, 64, 49
2, 232435, Control_c, 0, 64, 51
2, 232451, Control_c, 0, 64, 52
2, 232466, Control_c, 0, 64, 52
2, 232527, Control_c, 0, 64, 52
2, 232542, Control_c, 0, 64, 51
2, 232558, Control_c, 0, 64, 49
2, 232572, Control_c, 0, 64, 47
2, 232587, Control_c, 0, 64, 44
2, 232603, Control_c, 0, 64, 42
2, 232620, Note_on_c, 0, 74, 85
2, 232625, Note_on_c, 0, 54, 67
2, 232628, Note_on_c, 0, 69, 68
2, 232630, Note_on_c, 0, 55, 0
2, 232632, Control_c, 0, 64, 43
2, 232642, Note_on_c, 0, 71, 0
2, 232648, Control_c, 0, 64, 48
2, 232663, Control_c, 0, 64, 54
2, 232679, Control_c, 0, 64, 59
2, 232694, Control_c, 0, 64, 62
2, 232708, Control_c, 0, 64, 70
2, 232723, Note_on_c, 0, 69, 0
2, 232724, Control_c, 0, 64, 82
2, 232739, Control_c, 0, 64, 111
2, 232748, Note_on_c, 0, 74, 0
2, 232754, Control_c, 0, 64, 127
2, 232932, Note_on_c, 0, 54, 0
2, 232971, Note_on_c, 0, 79, 92
2, 232973, Note_on_c, 0, 52, 61
2, 232980, Note_on_c, 0, 67, 79
2, 233028, Control_c, 0, 64, 97
2, 233044, Control_c, 0, 64, 83
2, 233066, Control_c, 0, 64, 74
2, 233082, Control_c, 0, 64, 68
2, 233097, Control_c, 0, 64, 64
2, 233112, Control_c, 0, 64, 58
2, 233128, Control_c, 0, 64, 47
2, 233142, Control_c, 0, 64, 37
2, 233158, Control_c, 0, 64, 29
2, 233173, Control_c, 0, 64, 26
2, 233188, Control_c, 0, 64, 26
2, 233204, Control_c, 0, 64, 24
2, 233218, Control_c, 0, 64, 22
2, 233233, Control_c, 0, 64, 19
2, 233249, Control_c, 0, 64, 15
2, 233264, Control_c, 0, 64, 12
2, 233280, Control_c, 0, 64, 8
2, 233309, Control_c, 0, 64, 0
2, 233337, Note_on_c, 0, 71, 91
2, 233343, Note_on_c, 0, 50, 72
2, 233348, Note_on_c, 0, 52, 0
2, 233353, Note_on_c, 0, 67, 0
2, 233689, Note_on_c, 0, 76, 84
2, 233690, Note_on_c, 0, 71, 0
2, 233692, Note_on_c, 0, 49, 70
2, 233725, Note_on_c, 0, 50, 0
2, 234050, Note_on_c, 0, 47, 58
2, 234054, Note_on_c, 0, 49, 0
2, 234056, Note_on_c, 0, 74, 78
2, 234085, Note_on_c, 0, 76, 0
2, 234399, Note_on_c, 0, 45, 70
2, 234405, Note_on_c, 0, 74, 0
2, 234407, Note_on_c, 0, 73, 81
2, 234440, Note_on_c, 0, 47, 0
2, 234746, Note_on_c, 0, 79, 0
2, 234772, Note_on_c, 0, 43, 68
2, 234778, Note_on_c, 0, 45, 0
2, 234781, Note_on_c, 0, 76, 86
2, 234967, Control_c, 0, 64, 8
2, 234982, Control_c, 0, 64, 10
2, 235013, Control_c, 0, 64, 12
2, 235028, Control_c, 0, 64, 13
2, 235058, Control_c, 0, 64, 15
2, 235089, Control_c, 0, 64, 16
2, 235119, Control_c, 0, 64, 17
2, 235132, Note_on_c, 0, 42, 77
2, 235142, Note_on_c, 0, 81, 88
2, 235149, Control_c, 0, 64, 18
2, 235159, Note_on_c, 0, 76, 0
2, 235160, Note_on_c, 0, 73, 0
2, 235164, Control_c, 0, 64, 19
2, 235177, Note_on_c, 0, 43, 0
2, 235179, Control_c, 0, 64, 20
2, 235194, Control_c, 0, 64, 21
2, 235210, Control_c, 0, 64, 23
2, 235225, Control_c, 0, 64, 25
2, 235240, Control_c, 0, 64, 26
2, 235255, Control_c, 0, 64, 26
2, 235270, Control_c, 0, 64, 27
2, 235300, Control_c, 0, 64, 28
2, 235318, Control_c, 0, 64, 29
2, 235332, Control_c, 0, 64, 29
2, 235371, Control_c, 0, 64, 30
2, 235528, Note_on_c, 0, 40, 73
2, 235536, Note_on_c, 0, 42, 0
2, 235536, Note_on_c, 0, 79, 90
2, 235539, Note_on_c, 0, 76, 73
2, 235573, Note_on_c, 0, 81, 0
2, 235871, Control_c, 0, 64, 27
2, 235887, Control_c, 0, 64, 0
2, 235965, Note_on_c, 0, 38, 75
2, 235969, Note_on_c, 0, 74, 71
2, 235970, Note_on_c, 0, 40, 0
2, 235971, Note_on_c, 0, 78, 89
2, 235994, Note_on_c, 0, 79, 0
2, 235995, Note_on_c, 0, 76, 0
2, 236084, Control_c, 0, 64, 58
2, 236099, Control_c, 0, 64, 67
2, 236114, Control_c, 0, 64, 90
2, 236138, Control_c, 0, 64, 127
2, 236179, Note_on_c, 0, 38, 0
2, 236402, Note_on_c, 0, 62, 80
2, 236408, Note_on_c, 0, 79, 85
2, 236416, Note_on_c, 0, 76, 69
2, 236426, Note_on_c, 0, 74, 0
2, 236439, Note_on_c, 0, 78, 0
2, 236554, Note_on_c, 0, 62, 0
2, 236765, Note_on_c, 0, 81, 83
2, 236771, Note_on_c, 0, 78, 79
2, 236772, Note_on_c, 0, 62, 87
2, 236779, Note_on_c, 0, 79, 0
2, 236808, Note_on_c, 0, 76, 0
2, 236889, Note_on_c, 0, 62, 0
2, 237131, Note_on_c, 0, 62, 86
2, 237135, Note_on_c, 0, 50, 60
2, 237252, Note_on_c, 0, 62, 0
2, 237485, Note_on_c, 0, 52, 66
2, 237487, Note_on_c, 0, 55, 84
2, 237532, Note_on_c, 0, 50, 0
2, 237561, Control_c, 0, 64, 98
2, 237576, Control_c, 0, 64, 82
2, 237591, Control_c, 0, 64, 72
2, 237607, Control_c, 0, 64, 64
2, 237621, Control_c, 0, 64, 54
2, 237637, Control_c, 0, 64, 26
2, 237652, Control_c, 0, 64, 0
2, 237855, Note_on_c, 0, 74, 75
2, 237858, Note_on_c, 0, 81, 0
2, 237861, Note_on_c, 0, 71, 73
2, 237867, Note_on_c, 0, 78, 0
2, 238199, Note_on_c, 0, 59, 70
2, 238199, Note_on_c, 0, 74, 0
2, 238199, Note_on_c, 0, 79, 79
2, 238200, Note_on_c, 0, 76, 70
2, 238222, Control_c, 0, 64, 33
2, 238226, Note_on_c, 0, 71, 0
2, 238238, Control_c, 0, 64, 49
2, 238253, Control_c, 0, 64, 56
2, 238267, Control_c, 0, 64, 62
2, 238283, Control_c, 0, 64, 66
2, 238287, Note_on_c, 0, 52, 0
2, 238298, Control_c, 0, 64, 72
2, 238313, Control_c, 0, 64, 78
2, 238328, Control_c, 0, 64, 83
2, 238343, Control_c, 0, 64, 86
2, 238359, Control_c, 0, 64, 87
2, 238443, Note_on_c, 0, 79, 0
2, 238534, Control_c, 0, 64, 86
2, 238541, Note_on_c, 0, 52, 54
2, 238548, Control_c, 0, 64, 83
2, 238551, Note_on_c, 0, 74, 69
2, 238555, Note_on_c, 0, 78, 80
2, 238564, Control_c, 0, 64, 78
2, 238574, Note_on_c, 0, 76, 0
2, 238579, Control_c, 0, 64, 72
2, 238595, Control_c, 0, 64, 65
2, 238611, Control_c, 0, 64, 58
2, 238626, Control_c, 0, 64, 51
2, 238642, Control_c, 0, 64, 51
2, 238656, Control_c, 0, 64, 54
2, 238671, Control_c, 0, 64, 58
2, 238687, Control_c, 0, 64, 60
2, 238702, Control_c, 0, 64, 62
2, 238718, Control_c, 0, 64, 63
2, 238732, Control_c, 0, 64, 63
2, 238747, Control_c, 0, 64, 64
2, 238839, Control_c, 0, 64, 63
2, 238853, Control_c, 0, 64, 62
2, 238868, Control_c, 0, 64, 59
2, 238884, Control_c, 0, 64, 51
2, 238899, Control_c, 0, 64, 26
2, 238906, Note_on_c, 0, 55, 0
2, 238908, Note_on_c, 0, 59, 0
2, 238911, Note_on_c, 0, 78, 0
2, 238913, Control_c, 0, 64, 0
2, 238918, Note_on_c, 0, 57, 55
2, 238918, Note_on_c, 0, 73, 70
2, 238919, Note_on_c, 0, 76, 69
2, 238920, Note_on_c, 0, 74, 0
2, 238986, Note_on_c, 0, 52, 0
2, 238990, Control_c, 0, 64, 28
2, 239006, Control_c, 0, 64, 51
2, 239021, Control_c, 0, 64, 59
2, 239037, Control_c, 0, 64, 62
2, 239051, Control_c, 0, 64, 64
2, 239066, Control_c, 0, 64, 66
2, 239082, Control_c, 0, 64, 69
2, 239097, Control_c, 0, 64, 71
2, 239226, Control_c, 0, 64, 70
2, 239241, Control_c, 0, 64, 69
2, 239250, Note_on_c, 0, 57, 0
2, 239256, Control_c, 0, 64, 68
2, 239266, Note_on_c, 0, 52, 54
2, 239271, Control_c, 0, 64, 67
2, 239271, Note_on_c, 0, 55, 50
2, 239287, Control_c, 0, 64, 66
2, 239312, Note_on_c, 0, 73, 0
2, 239576, Control_c, 0, 64, 65
2, 239591, Control_c, 0, 64, 65
2, 239602, Note_on_c, 0, 55, 0
2, 239607, Control_c, 0, 64, 64
2, 239617, Note_on_c, 0, 57, 64
2, 239620, Note_on_c, 0, 54, 58
2, 239621, Control_c, 0, 64, 62
2, 239637, Control_c, 0, 64, 61
2, 239652, Control_c, 0, 64, 59
2, 239660, Note_on_c, 0, 52, 0
2, 239667, Control_c, 0, 64, 56
2, 239683, Control_c, 0, 64, 54
2, 239697, Control_c, 0, 64, 52
2, 239712, Control_c, 0, 64, 50
2, 239728, Control_c, 0, 64, 48
2, 239742, Control_c, 0, 64, 45
2, 239758, Control_c, 0, 64, 42
2, 239773, Control_c, 0, 64, 38
2, 239788, Control_c, 0, 64, 34
2, 239804, Control_c, 0, 64, 33
2, 239819, Control_c, 0, 64, 32
2, 239834, Control_c, 0, 64, 31
2, 239850, Control_c, 0, 64, 31
2, 239891, Note_on_c, 0, 54, 0
2, 239895, Control_c, 0, 64, 32
2, 239898, Note_on_c, 0, 57, 0
2, 239910, Control_c, 0, 64, 40
2, 239926, Control_c, 0, 64, 45
2, 239935, Note_on_c, 0, 52, 47
2, 239937, Note_on_c, 0, 55, 53
2, 239941, Control_c, 0, 64, 49
2, 239949, Note_on_c, 0, 64, 74
2, 239955, Control_c, 0, 64, 52
2, 239978, Control_c, 0, 64, 56
2, 239993, Control_c, 0, 64, 59
2, 240009, Control_c, 0, 64, 60
2, 240024, Control_c, 0, 64, 60
2, 240131, Control_c, 0, 64, 59
2, 240146, Control_c, 0, 64, 59
2, 240161, Control_c, 0, 64, 58
2, 240176, Control_c, 0, 64, 57
2, 240191, Control_c, 0, 64, 57
2, 240207, Control_c, 0, 64, 56
2, 240238, Control_c, 0, 64, 56
2, 240253, Control_c, 0, 64, 55
2, 240268, Control_c, 0, 64, 54
2, 240284, Control_c, 0, 64, 53
2, 240292, Note_on_c, 0, 52, 0
2, 240293, Note_on_c, 0, 55, 0
2, 240299, Control_c, 0, 64, 52
2, 240314, Control_c, 0, 64, 49
2, 240314, Note_on_c, 0, 54, 50
2, 240321, Note_on_c, 0, 69, 66
2, 240322, Note_on_c, 0, 64, 0
2, 240329, Control_c, 0, 64, 45
2, 240333, Note_on_c, 0, 50, 36
2, 240344, Control_c, 0, 64, 40
2, 240360, Control_c, 0, 64, 33
2, 240375, Control_c, 0, 64, 20
2, 240389, Control_c, 0, 64, 0
2, 240608, Note_on_c, 0, 50, 0
2, 240635, Note_on_c, 0, 54, 0
2, 240651, Note_on_c, 0, 55, 51
2, 240659, Note_on_c, 0, 52, 42
2, 240660, Note_on_c, 0, 76, 0
2, 240666, Note_on_c, 0, 67, 64
2, 240704, Note_on_c, 0, 69, 0
2, 240709, Control_c, 0, 64, 21
2, 240725, Control_c, 0, 64, 41
2, 240747, Control_c, 0, 64, 46
2, 240763, Control_c, 0, 64, 50
2, 240778, Control_c, 0, 64, 53
2, 240793, Control_c, 0, 64, 55
2, 240808, Control_c, 0, 64, 59
2, 240823, Control_c, 0, 64, 62
2, 240839, Control_c, 0, 64, 62
2, 240930, Control_c, 0, 64, 62
2, 240945, Control_c, 0, 64, 61
2, 240960, Control_c, 0, 64, 60
2, 240975, Control_c, 0, 64, 58
2, 240990, Control_c, 0, 64, 55
2, 240997, Note_on_c, 0, 55, 0
2, 241005, Control_c, 0, 64, 51
2, 241008, Note_on_c, 0, 54, 52
2, 241008, Note_on_c, 0, 57, 42
2, 241017, Note_on_c, 0, 74, 67
2, 241020, Control_c, 0, 64, 48
2, 241023, Note_on_c, 0, 67, 0
2, 241031, Note_on_c, 0, 52, 0
2, 241035, Control_c, 0, 64, 43
2, 241037, Note_on_c, 0, 66, 57
2, 241052, Control_c, 0, 64, 36
2, 241067, Control_c, 0, 64, 23
2, 241083, Control_c, 0, 64, 0
2, 241310, Control_c, 0, 64, 25
2, 241326, Control_c, 0, 64, 35
2, 241341, Control_c, 0, 64, 40
2, 241357, Control_c, 0, 64, 47
2, 241364, Note_on_c, 0, 66, 0
2, 241372, Control_c, 0, 64, 57
2, 241377, Note_on_c, 0, 74, 0
2, 241380, Note_on_c, 0, 72, 67
2, 241386, Control_c, 0, 64, 61
2, 241402, Control_c, 0, 64, 62
2, 241415, Note_on_c, 0, 64, 56
2, 241417, Control_c, 0, 64, 63
2, 241431, Control_c, 0, 64, 64
2, 241447, Control_c, 0, 64, 65
2, 241462, Control_c, 0, 64, 66
2, 241473, Note_on_c, 0, 72, 0
2, 241478, Control_c, 0, 64, 67
2, 241493, Control_c, 0, 64, 68
2, 241500, Note_on_c, 0, 57, 0
2, 241515, Control_c, 0, 64, 69
2, 241546, Control_c, 0, 64, 69
2, 241564, Note_on_c, 0, 64, 0
2, 241742, Note_on_c, 0, 71, 67
2, 241747, Note_on_c, 0, 62, 55
2, 241757, Note_on_c, 0, 54, 0
2, 242003, Control_c, 0, 64, 69
2, 242018, Control_c, 0, 64, 68
2, 242032, Control_c, 0, 64, 66
2, 242048, Control_c, 0, 64, 64
2, 242063, Control_c, 0, 64, 61
2, 242079, Control_c, 0, 64, 57
2, 242079, Note_on_c, 0, 50, 52
2, 242089, Note_on_c, 0, 47, 31
2, 242094, Control_c, 0, 64, 52
2, 242109, Control_c, 0, 64, 48
2, 242124, Control_c, 0, 64, 42
2, 242139, Control_c, 0, 64, 35
2, 242154, Control_c, 0, 64, 19
2, 242170, Control_c, 0, 64, 0
2, 242427, Note_on_c, 0, 52, 44
2, 242430, Note_on_c, 0, 61, 62
2, 242430, Note_on_c, 0, 62, 0
2, 242432, Note_on_c, 0, 55, 48
2, 242444, Note_on_c, 0, 47, 0
2, 242447, Note_on_c, 0, 50, 0
2, 242741, Note_on_c, 0, 55, 0
2, 242764, Note_on_c, 0, 61, 0
2, 242766, Note_on_c, 0, 62, 55
2, 242770, Note_on_c, 0, 52, 0
2, 242773, Note_on_c, 0, 50, 44
2, 242774, Note_on_c, 0, 54, 47
2, 242815, Control_c, 0, 64, 33
2, 242830, Control_c, 0, 64, 44
2, 242846, Control_c, 0, 64, 51
2, 242861, Control_c, 0, 64, 55
2, 242875, Control_c, 0, 64, 57
2, 242891, Control_c, 0, 64, 58
2, 242904, Control_c, 0, 64, 60
2, 242918, Control_c, 0, 64, 63
2, 242934, Control_c, 0, 64, 66
2, 242949, Control_c, 0, 64, 67
2, 242949, Note_on_c, 0, 54, 0
2, 243071, Note_on_c, 0, 50, 0
2, 243094, Control_c, 0, 64, 66
2, 243109, Control_c, 0, 64, 63
2, 243118, Note_on_c, 0, 64, 55
2, 243119, Note_on_c, 0, 49, 40
2, 243124, Control_c, 0, 64, 58
2, 243128, Note_on_c, 0, 52, 46
2, 243139, Control_c, 0, 64, 56
2, 243154, Control_c, 0, 64, 57
2, 243162, Note_on_c, 0, 62, 0
2, 243170, Control_c, 0, 64, 60
2, 243185, Control_c, 0, 64, 62
2, 243199, Control_c, 0, 64, 65
2, 243215, Control_c, 0, 64, 66
2, 243224, Note_on_c, 0, 49, 0
2, 243230, Control_c, 0, 64, 68
2, 243245, Note_on_c, 0, 64, 0
2, 243246, Control_c, 0, 64, 68
2, 243261, Control_c, 0, 64, 69
2, 243275, Control_c, 0, 64, 69
2, 243290, Note_on_c, 0, 71, 0
2, 243291, Control_c, 0, 64, 70
2, 243306, Control_c, 0, 64, 70
2, 243427, Control_c, 0, 64, 70
2, 243436, Note_on_c, 0, 52, 0
2, 243442, Control_c, 0, 64, 68
2, 243458, Control_c, 0, 64, 67
2, 243473, Control_c, 0, 64, 64
2, 243473, Note_on_c, 0, 64, 62
2, 243478, Note_on_c, 0, 47, 34
2, 243486, Note_on_c, 0, 62, 53
2, 243489, Control_c, 0, 64, 62
2, 243504, Control_c, 0, 64, 60
2, 243519, Control_c, 0, 64, 57
2, 243535, Control_c, 0, 64, 55
2, 243778, Control_c, 0, 64, 54
2, 243793, Control_c, 0, 64, 54
2, 243816, Control_c, 0, 64, 53
2, 243828, Note_on_c, 0, 64, 0
2, 243831, Control_c, 0, 64, 52
2, 243840, Note_on_c, 0, 62, 0
2, 243842, Note_on_c, 0, 69, 63
2, 243849, Control_c, 0, 64, 50
2, 243856, Note_on_c, 0, 45, 36
2, 243858, Note_on_c, 0, 61, 47
2, 243864, Control_c, 0, 64, 48
2, 243877, Note_on_c, 0, 47, 0
2, 243880, Control_c, 0, 64, 43
2, 243895, Control_c, 0, 64, 34
2, 243910, Control_c, 0, 64, 16
2, 243925, Control_c, 0, 64, 0
2, 244168, Control_c, 0, 64, 20
2, 244183, Control_c, 0, 64, 35
2, 244197, Note_on_c, 0, 61, 0
2, 244197, Note_on_c, 0, 67, 57
2, 244199, Control_c, 0, 64, 47
2, 244214, Control_c, 0, 64, 53
2, 244214, Note_on_c, 0, 64, 47
2, 244217, Note_on_c, 0, 69, 0
2, 244229, Control_c, 0, 64, 56
2, 244244, Control_c, 0, 64, 58
2, 244260, Control_c, 0, 64, 61
2, 244275, Control_c, 0, 64, 62
2, 244291, Control_c, 0, 64, 63
2, 244305, Control_c, 0, 64, 64
2, 244321, Control_c, 0, 64, 68
2, 244338, Control_c, 0, 64, 71
2, 244342, Note_on_c, 0, 67, 0
2, 244352, Control_c, 0, 64, 73
2, 244368, Control_c, 0, 64, 73
2, 244489, Control_c, 0, 64, 73
2, 244520, Control_c, 0, 64, 72
2, 244535, Control_c, 0, 64, 70
2, 244540, Note_on_c, 0, 66, 64
2, 244550, Control_c, 0, 64, 67
2, 244565, Control_c, 0, 64, 64
2, 244569, Note_on_c, 0, 45, 0
2, 244588, Control_c, 0, 64, 58
2, 244604, Control_c, 0, 64, 49
2, 244618, Control_c, 0, 64, 40
2, 244633, Control_c, 0, 64, 31
2, 244649, Control_c, 0, 64, 27
2, 244664, Control_c, 0, 64, 27
2, 244694, Control_c, 0, 64, 26
2, 244709, Control_c, 0, 64, 26
2, 244725, Control_c, 0, 64, 25
2, 244770, Control_c, 0, 64, 24
2, 244861, Control_c, 0, 64, 27
2, 244877, Control_c, 0, 64, 39
2, 244884, Note_on_c, 0, 64, 0
2, 244891, Control_c, 0, 64, 48
2, 244903, Note_on_c, 0, 62, 48
2, 244905, Note_on_c, 0, 57, 48
2, 244906, Control_c, 0, 64, 53
2, 244922, Control_c, 0, 64, 56
2, 244937, Control_c, 0, 64, 58
2, 244952, Control_c, 0, 64, 60
2, 244968, Control_c, 0, 64, 63
2, 244983, Control_c, 0, 64, 66
2, 244998, Control_c, 0, 64, 71
2, 245013, Control_c, 0, 64, 77
2, 245027, Control_c, 0, 64, 81
2, 245043, Control_c, 0, 64, 84
2, 245058, Control_c, 0, 64, 88
2, 245060, Note_on_c, 0, 57, 0
2, 245073, Control_c, 0, 64, 95
2, 245088, Control_c, 0, 64, 107
2, 245103, Control_c, 0, 64, 127
2, 245219, Note_on_c, 0, 66, 0
2, 245244, Note_on_c, 0, 64, 62
2, 245253, Note_on_c, 0, 57, 68
2, 245415, Note_on_c, 0, 57, 0
2, 245608, Note_on_c, 0, 57, 65
2, 245610, Note_on_c, 0, 61, 64
2, 245710, Note_on_c, 0, 62, 0
2, 245753, Note_on_c, 0, 61, 0
2, 245931, Note_on_c, 0, 57, 0
2, 245947, Control_c, 0, 64, 99
2, 245959, Note_on_c, 0, 51, 57
2, 245964, Control_c, 0, 64, 82
2, 245964, Note_on_c, 0, 60, 56
2, 245966, Note_on_c, 0, 66, 67
2, 245979, Control_c, 0, 64, 68
2, 245988, Note_on_c, 0, 64, 0
2, 245994, Control_c, 0, 64, 52
2, 246010, Control_c, 0, 64, 0
2, 246040, Control_c, 0, 64, 25
2, 246055, Control_c, 0, 64, 48
2, 246070, Control_c, 0, 64, 56
2, 246085, Control_c, 0, 64, 60
2, 246100, Control_c, 0, 64, 63
2, 246123, Control_c, 0, 64, 64
2, 246138, Control_c, 0, 64, 67
2, 246153, Control_c, 0, 64, 71
2, 246169, Control_c, 0, 64, 77
2, 246177, Note_on_c, 0, 60, 0
2, 246184, Control_c, 0, 64, 83
2, 246200, Control_c, 0, 64, 86
2, 246215, Control_c, 0, 64, 87
2, 246309, Note_on_c, 0, 52, 68
2, 246316, Note_on_c, 0, 68, 71
2, 246321, Control_c, 0, 64, 83
2, 246328, Note_on_c, 0, 59, 53
2, 246336, Control_c, 0, 64, 75
2, 246345, Note_on_c, 0, 51, 0
2, 246351, Control_c, 0, 64, 67
2, 246367, Control_c, 0, 64, 60
2, 246381, Control_c, 0, 64, 56
2, 246426, Control_c, 0, 64, 57
2, 246442, Control_c, 0, 64, 59
2, 246457, Control_c, 0, 64, 61
2, 246472, Control_c, 0, 64, 62
2, 246488, Control_c, 0, 64, 63
2, 246518, Control_c, 0, 64, 63
2, 246533, Control_c, 0, 64, 64
2, 246537, Note_on_c, 0, 59, 0
2, 246548, Control_c, 0, 64, 64
2, 246576, Note_on_c, 0, 68, 0
2, 246609, Control_c, 0, 64, 64
2, 246624, Control_c, 0, 64, 63
2, 246640, Control_c, 0, 64, 62
2, 246655, Control_c, 0, 64, 59
2, 246670, Control_c, 0, 64, 57
2, 246674, Note_on_c, 0, 52, 0
2, 246680, Note_on_c, 0, 69, 69
2, 246683, Note_on_c, 0, 66, 0
2, 246684, Note_on_c, 0, 53, 55
2, 246686, Control_c, 0, 64, 53
2, 246699, Note_on_c, 0, 57, 42
2, 246701, Control_c, 0, 64, 48
2, 246715, Control_c, 0, 64, 40
2, 246731, Control_c, 0, 64, 25
2, 246746, Control_c, 0, 64, 0
2, 247034, Note_on_c, 0, 60, 50
2, 247041, Note_on_c, 0, 57, 0
2, 247347, Control_c, 0, 64, 15
2, 247363, Control_c, 0, 64, 33
2, 247378, Control_c, 0, 64, 41
2, 247390, Note_on_c, 0, 60, 0
2, 247393, Control_c, 0, 64, 48
2, 247409, Control_c, 0, 64, 53
2, 247411, Note_on_c, 0, 62, 54
2, 247423, Control_c, 0, 64, 56
2, 247439, Control_c, 0, 64, 58
2, 247454, Control_c, 0, 64, 61
2, 247469, Control_c, 0, 64, 62
2, 247484, Control_c, 0, 64, 64
2, 247499, Control_c, 0, 64, 65
2, 247514, Control_c, 0, 64, 67
2, 247530, Control_c, 0, 64, 69
2, 247545, Control_c, 0, 64, 72
2, 247560, Control_c, 0, 64, 74
2, 247575, Control_c, 0, 64, 75
2, 247590, Control_c, 0, 64, 75
2, 247736, Control_c, 0, 64, 75
2, 247751, Control_c, 0, 64, 73
2, 247756, Note_on_c, 0, 53, 0
2, 247762, Note_on_c, 0, 47, 48
2, 247767, Control_c, 0, 64, 68
2, 247768, Note_on_c, 0, 62, 0
2, 247772, Note_on_c, 0, 59, 45
2, 247781, Control_c, 0, 64, 63
2, 247783, Note_on_c, 0, 64, 52
2, 247796, Control_c, 0, 64, 55
2, 247812, Control_c, 0, 64, 53
2, 247827, Control_c, 0, 64, 55
2, 247843, Control_c, 0, 64, 58
2, 247857, Control_c, 0, 64, 61
2, 247872, Control_c, 0, 64, 63
2, 247888, Control_c, 0, 64, 65
2, 247903, Control_c, 0, 64, 66
2, 247918, Control_c, 0, 64, 68
2, 247933, Control_c, 0, 64, 69
2, 247936, Note_on_c, 0, 64, 0
2, 247937, Note_on_c, 0, 69, 0
2, 247948, Control_c, 0, 64, 70
2, 247948, Note_on_c, 0, 65, 58
2, 247951, Note_on_c, 0, 59, 0
2, 247964, Control_c, 0, 64, 71
2, 247979, Control_c, 0, 64, 72
2, 248101, Control_c, 0, 64, 70
2, 248115, Control_c, 0, 64, 67
2, 248120, Note_on_c, 0, 52, 60
2, 248120, Note_on_c, 0, 65, 0
2, 248123, Note_on_c, 0, 68, 70
2, 248129, Note_on_c, 0, 64, 55
2, 248130, Note_on_c, 0, 47, 0
2, 248131, Control_c, 0, 64, 60
2, 248135, Note_on_c, 0, 59, 49
2, 248146, Control_c, 0, 64, 45
2, 248162, Control_c, 0, 64, 29
2, 248177, Control_c, 0, 64, 28
2, 248191, Control_c, 0, 64, 34
2, 248207, Control_c, 0, 64, 44
2, 248222, Control_c, 0, 64, 53
2, 248238, Control_c, 0, 64, 57
2, 248253, Control_c, 0, 64, 59
2, 248267, Control_c, 0, 64, 60
2, 248283, Control_c, 0, 64, 61
2, 248298, Control_c, 0, 64, 62
2, 248313, Control_c, 0, 64, 62
2, 248318, Note_on_c, 0, 59, 0
2, 248328, Control_c, 0, 64, 63
2, 248343, Control_c, 0, 64, 63
2, 248359, Control_c, 0, 64, 64
2, 248472, Control_c, 0, 64, 63
2, 248480, Note_on_c, 0, 50, 58
2, 248488, Control_c, 0, 64, 62
2, 248497, Note_on_c, 0, 59, 18
2, 248502, Control_c, 0, 64, 57
2, 248517, Control_c, 0, 64, 42
2, 248518, Note_on_c, 0, 52, 0
2, 248533, Control_c, 0, 64, 21
2, 248548, Control_c, 0, 64, 21
2, 248562, Control_c, 0, 64, 37
2, 248578, Control_c, 0, 64, 47
2, 248593, Control_c, 0, 64, 55
2, 248607, Note_on_c, 0, 50, 0
2, 248609, Control_c, 0, 64, 60
2, 248624, Control_c, 0, 64, 62
2, 248638, Control_c, 0, 64, 63
2, 248654, Control_c, 0, 64, 65
2, 248669, Control_c, 0, 64, 66
2, 248685, Control_c, 0, 64, 67
2, 248700, Control_c, 0, 64, 68
2, 248714, Control_c, 0, 64, 70
2, 248775, Control_c, 0, 64, 67
2, 248790, Control_c, 0, 64, 63
2, 248806, Control_c, 0, 64, 63
2, 248818, Note_on_c, 0, 59, 0
2, 248821, Control_c, 0, 64, 63
2, 248835, Control_c, 0, 64, 65
2, 248838, Note_on_c, 0, 52, 52
2, 248841, Note_on_c, 0, 49, 51
2, 248845, Note_on_c, 0, 69, 67
2, 248851, Control_c, 0, 64, 69
2, 248853, Note_on_c, 0, 68, 0
2, 248865, Note_on_c, 0, 64, 0
2, 248866, Control_c, 0, 64, 75
2, 248881, Control_c, 0, 64, 84
2, 248897, Control_c, 0, 64, 99
2, 248903, Note_on_c, 0, 69, 0
2, 248911, Control_c, 0, 64, 127
2, 248918, Note_on_c, 0, 52, 0
2, 248941, Note_on_c, 0, 49, 0
2, 249206, Note_on_c, 0, 45, 71
2, 249215, Note_on_c, 0, 81, 88
2, 249223, Control_c, 0, 64, 97
2, 249238, Control_c, 0, 64, 72
2, 249255, Control_c, 0, 64, 57
2, 249269, Control_c, 0, 64, 19
2, 249285, Control_c, 0, 64, 28
2, 249300, Control_c, 0, 64, 48
2, 249315, Control_c, 0, 64, 58
2, 249331, Control_c, 0, 64, 63
2, 249345, Control_c, 0, 64, 66
2, 249360, Control_c, 0, 64, 70
2, 249376, Control_c, 0, 64, 75
2, 249391, Control_c, 0, 64, 80
2, 249398, Note_on_c, 0, 81, 0
2, 249406, Control_c, 0, 64, 86
2, 249421, Control_c, 0, 64, 88
2, 249436, Control_c, 0, 64, 88
2, 249557, Control_c, 0, 64, 87
2, 249573, Control_c, 0, 64, 79
2, 249586, Note_on_c, 0, 81, 85
2, 249588, Control_c, 0, 64, 67
2, 249589, Note_on_c, 0, 50, 76
2, 249603, Control_c, 0, 64, 51
2, 249607, Note_on_c, 0, 45, 0
2, 249619, Control_c, 0, 64, 24
2, 249634, Control_c, 0, 64, 37
2, 249649, Control_c, 0, 64, 49
2, 249664, Control_c, 0, 64, 58
2, 249679, Control_c, 0, 64, 63
2, 249695, Control_c, 0, 64, 67
2, 249710, Control_c, 0, 64, 72
2, 249726, Control_c, 0, 64, 78
2, 249734, Note_on_c, 0, 81, 0
2, 249741, Control_c, 0, 64, 86
2, 249755, Control_c, 0, 64, 99
2, 249771, Control_c, 0, 64, 127
2, 249974, Note_on_c, 0, 49, 72
2, 249985, Note_on_c, 0, 81, 83
2, 249986, Note_on_c, 0, 78, 88
2, 250006, Control_c, 0, 64, 104
2, 250018, Note_on_c, 0, 50, 0
2, 250021, Control_c, 0, 64, 75
2, 250036, Control_c, 0, 64, 56
2, 250052, Control_c, 0, 64, 27
2, 250068, Control_c, 0, 64, 38
2, 250083, Control_c, 0, 64, 51
2, 250099, Control_c, 0, 64, 59
2, 250113, Control_c, 0, 64, 63
2, 250129, Control_c, 0, 64, 66
2, 250144, Control_c, 0, 64, 72
2, 250159, Control_c, 0, 64, 81
2, 250171, Note_on_c, 0, 78, 0
2, 250175, Control_c, 0, 64, 89
2, 250189, Control_c, 0, 64, 93
2, 250205, Control_c, 0, 64, 103
2, 250220, Control_c, 0, 64, 127
2, 250267, Note_on_c, 0, 49, 0
2, 250420, Note_on_c, 0, 47, 70
2, 250432, Control_c, 0, 64, 93
2, 250432, Note_on_c, 0, 78, 86
2, 250440, Note_on_c, 0, 74, 70
2, 250447, Control_c, 0, 64, 71
2, 250456, Note_on_c, 0, 81, 0
2, 250462, Control_c, 0, 64, 38
2, 250477, Control_c, 0, 64, 0
2, 250554, Control_c, 0, 64, 51
2, 250570, Control_c, 0, 64, 64
2, 250585, Control_c, 0, 64, 74
2, 250599, Control_c, 0, 64, 101
2, 250615, Control_c, 0, 64, 127
2, 250646, Note_on_c, 0, 47, 0
2, 250726, Note_on_c, 0, 78, 0
2, 250851, Note_on_c, 0, 62, 73
2, 250857, Note_on_c, 0, 78, 79
2, 251013, Note_on_c, 0, 62, 0
2, 251033, Note_on_c, 0, 78, 0
2, 251215, Note_on_c, 0, 62, 81
2, 251218, Note_on_c, 0, 78, 87
2, 251224, Note_on_c, 0, 71, 78
2, 251224, Note_on_c, 0, 74, 0
2, 251348, Note_on_c, 0, 62, 0
2, 251590, Note_on_c, 0, 62, 83
2, 251595, Note_on_c, 0, 59, 62
2, 251649, Note_on_c, 0, 59, 0
2, 251705, Note_on_c, 0, 62, 0
2, 251954, Control_c, 0, 64, 98
2, 251956, Note_on_c, 0, 56, 70
2, 251956, Note_on_c, 0, 74, 76
2, 251970, Control_c, 0, 64, 74
2, 251970, Note_on_c, 0, 59, 53
2, 251985, Control_c, 0, 64, 60
2, 251996, Note_on_c, 0, 71, 0
2, 252001, Control_c, 0, 64, 0
2, 252023, Note_on_c, 0, 59, 0
2, 252030, Control_c, 0, 64, 21
2, 252046, Control_c, 0, 64, 53
2, 252061, Control_c, 0, 64, 60
2, 252076, Control_c, 0, 64, 64
2, 252091, Control_c, 0, 64, 71
2, 252106, Control_c, 0, 64, 87
2, 252122, Control_c, 0, 64, 127
2, 252339, Note_on_c, 0, 71, 77
2, 252340, Note_on_c, 0, 78, 0
2, 252345, Note_on_c, 0, 56, 0
2, 252349, Note_on_c, 0, 59, 66
2, 252358, Note_on_c, 0, 74, 0
2, 252396, Note_on_c, 0, 59, 0
2, 252685, Note_on_c, 0, 52, 47
2, 252701, Note_on_c, 0, 59, 62
2, 252704, Note_on_c, 0, 76, 73
2, 252738, Control_c, 0, 64, 109
2, 252753, Control_c, 0, 64, 82
2, 252760, Note_on_c, 0, 71, 0
2, 252768, Control_c, 0, 64, 68
2, 252783, Control_c, 0, 64, 53
2, 252799, Control_c, 0, 64, 33
2, 252814, Control_c, 0, 64, 35
2, 252829, Control_c, 0, 64, 44
2, 252845, Control_c, 0, 64, 53
2, 252859, Control_c, 0, 64, 59
2, 252874, Control_c, 0, 64, 62
2, 252890, Control_c, 0, 64, 64
2, 252905, Control_c, 0, 64, 65
2, 252921, Control_c, 0, 64, 66
2, 252935, Control_c, 0, 64, 68
2, 252950, Control_c, 0, 64, 71
2, 252966, Control_c, 0, 64, 75
2, 252981, Control_c, 0, 64, 78
2, 252996, Control_c, 0, 64, 80
2, 253011, Control_c, 0, 64, 81
2, 253034, Note_on_c, 0, 76, 0
2, 253044, Note_on_c, 0, 74, 71
2, 253046, Note_on_c, 0, 68, 61
2, 253050, Control_c, 0, 64, 81
2, 253064, Control_c, 0, 64, 82
2, 253095, Control_c, 0, 64, 82
2, 253412, Note_on_c, 0, 68, 0
2, 253412, Note_on_c, 0, 73, 76
2, 253415, Control_c, 0, 64, 81
2, 253420, Note_on_c, 0, 55, 49
2, 253428, Note_on_c, 0, 74, 0
2, 253430, Control_c, 0, 64, 76
2, 253446, Control_c, 0, 64, 68
2, 253449, Note_on_c, 0, 52, 0
2, 253461, Control_c, 0, 64, 58
2, 253476, Control_c, 0, 64, 26
2, 253491, Control_c, 0, 64, 0
2, 253506, Control_c, 0, 64, 20
2, 253522, Control_c, 0, 64, 40
2, 253537, Control_c, 0, 64, 51
2, 253552, Control_c, 0, 64, 57
2, 253567, Control_c, 0, 64, 59
2, 253582, Control_c, 0, 64, 61
2, 253598, Control_c, 0, 64, 62
2, 253613, Control_c, 0, 64, 63
2, 253627, Control_c, 0, 64, 64
2, 253643, Control_c, 0, 64, 65
2, 253658, Control_c, 0, 64, 66
2, 253673, Control_c, 0, 64, 67
2, 253689, Control_c, 0, 64, 67
2, 253780, Note_on_c, 0, 59, 0
2, 253782, Note_on_c, 0, 52, 41
2, 253782, Note_on_c, 0, 71, 59
2, 253803, Control_c, 0, 64, 68
2, 253818, Control_c, 0, 64, 69
2, 253832, Control_c, 0, 64, 70
2, 253840, Note_on_c, 0, 55, 0
2, 253848, Control_c, 0, 64, 72
2, 253863, Control_c, 0, 64, 76
2, 253879, Control_c, 0, 64, 81
2, 253894, Control_c, 0, 64, 83
2, 253908, Control_c, 0, 64, 85
2, 253924, Control_c, 0, 64, 86
2, 253939, Control_c, 0, 64, 87
2, 253953, Control_c, 0, 64, 88
2, 254125, Note_on_c, 0, 52, 0
2, 254127, Note_on_c, 0, 71, 0
2, 254144, Note_on_c, 0, 57, 62
2, 254144, Note_on_c, 0, 69, 69
2, 254182, Note_on_c, 0, 73, 0
2, 254470, Note_on_c, 0, 57, 0
2, 254474, Note_on_c, 0, 49, 49
2, 254475, Note_on_c, 0, 55, 53
2, 254488, Control_c, 0, 64, 86
2, 254503, Control_c, 0, 64, 84
2, 254519, Control_c, 0, 64, 79
2, 254534, Control_c, 0, 64, 73
2, 254548, Control_c, 0, 64, 66
2, 254571, Control_c, 0, 64, 62
2, 254586, Control_c, 0, 64, 61
2, 254739, Control_c, 0, 64, 60
2, 254753, Control_c, 0, 64, 59
2, 254769, Control_c, 0, 64, 57
2, 254784, Control_c, 0, 64, 55
2, 254800, Control_c, 0, 64, 53
2, 254814, Control_c, 0, 64, 52
2, 254819, Note_on_c, 0, 54, 53
2, 254829, Control_c, 0, 64, 51
2, 254833, Note_on_c, 0, 72, 62
2, 254835, Note_on_c, 0, 55, 0
2, 254845, Control_c, 0, 64, 46
2, 254860, Control_c, 0, 64, 39
2, 254874, Control_c, 0, 64, 26
2, 254890, Control_c, 0, 64, 0
2, 254895, Note_on_c, 0, 49, 0
2, 255196, Note_on_c, 0, 52, 41
2, 255205, Note_on_c, 0, 67, 64
2, 255216, Note_on_c, 0, 69, 0
2, 255540, Note_on_c, 0, 52, 0
2, 255567, Note_on_c, 0, 50, 42
2, 255567, Note_on_c, 0, 66, 61
2, 255607, Note_on_c, 0, 67, 0
2, 255900, Note_on_c, 0, 57, 61
2, 255903, Note_on_c, 0, 64, 71
2, 255919, Note_on_c, 0, 66, 0
2, 255943, Note_on_c, 0, 54, 0
2, 256273, Note_on_c, 0, 66, 75
2, 256282, Note_on_c, 0, 64, 0
2, 256283, Note_on_c, 0, 57, 0
2, 256293, Note_on_c, 0, 62, 51
2, 256338, Note_on_c, 0, 72, 0
2, 256605, Note_on_c, 0, 62, 0
2, 256623, Note_on_c, 0, 69, 73
2, 256639, Note_on_c, 0, 60, 48
2, 256977, Note_on_c, 0, 60, 0
2, 256994, Note_on_c, 0, 69, 0
2, 256994, Note_on_c, 0, 74, 72
2, 256996, Note_on_c, 0, 59, 44
2, 257059, Note_on_c, 0, 50, 0
2, 257321, Note_on_c, 0, 59, 0
2, 257323, Note_on_c, 0, 74, 0
2, 257330, Control_c, 0, 64, 33
2, 257337, Note_on_c, 0, 50, 42
2, 257337, Note_on_c, 0, 57, 47
2, 257339, Note_on_c, 0, 72, 66
2, 257345, Control_c, 0, 64, 44
2, 257361, Control_c, 0, 64, 51
2, 257376, Control_c, 0, 64, 55
2, 257391, Control_c, 0, 64, 58
2, 257406, Control_c, 0, 64, 61
2, 257421, Control_c, 0, 64, 65
2, 257438, Control_c, 0, 64, 72
2, 257453, Control_c, 0, 64, 78
2, 257468, Control_c, 0, 64, 84
2, 257484, Control_c, 0, 64, 89
2, 257499, Control_c, 0, 64, 94
2, 257513, Control_c, 0, 64, 97
2, 257514, Note_on_c, 0, 72, 0
2, 257529, Control_c, 0, 64, 98
2, 257544, Control_c, 0, 64, 99
2, 257658, Control_c, 0, 64, 97
2, 257673, Control_c, 0, 64, 93
2, 257689, Control_c, 0, 64, 88
2, 257701, Note_on_c, 0, 57, 0
2, 257703, Note_on_c, 0, 71, 69
2, 257704, Control_c, 0, 64, 83
2, 257707, Note_on_c, 0, 55, 47
2, 257718, Note_on_c, 0, 50, 0
2, 257719, Control_c, 0, 64, 78
2, 257734, Control_c, 0, 64, 74
2, 257749, Control_c, 0, 64, 70
2, 257765, Control_c, 0, 64, 66
2, 257779, Control_c, 0, 64, 63
2, 257794, Control_c, 0, 64, 58
2, 257810, Control_c, 0, 64, 54
2, 257825, Control_c, 0, 64, 50
2, 257841, Control_c, 0, 64, 47
2, 257855, Control_c, 0, 64, 45
2, 257870, Control_c, 0, 64, 43
2, 257886, Control_c, 0, 64, 41
2, 257901, Control_c, 0, 64, 38
2, 257916, Control_c, 0, 64, 35
2, 257931, Control_c, 0, 64, 30
2, 257946, Control_c, 0, 64, 27
2, 257962, Control_c, 0, 64, 26
2, 257976, Control_c, 0, 64, 25
2, 258068, Control_c, 0, 64, 24
2, 258069, Note_on_c, 0, 66, 0
2, 258071, Note_on_c, 0, 54, 46
2, 258072, Note_on_c, 0, 62, 58
2, 258423, Note_on_c, 0, 52, 49
2, 258432, Note_on_c, 0, 67, 65
2, 258438, Note_on_c, 0, 62, 0
2, 258454, Note_on_c, 0, 54, 0
2, 258778, Note_on_c, 0, 52, 0
2, 258780, Note_on_c, 0, 50, 42
2, 258788, Note_on_c, 0, 66, 63
2, 258792, Note_on_c, 0, 67, 0
2, 259149, Note_on_c, 0, 64, 50
2, 259180, Note_on_c, 0, 49, 37
2, 259187, Note_on_c, 0, 66, 0
2, 259207, Note_on_c, 0, 50, 0
2, 259254, Note_on_c, 0, 55, 0
2, 259498, Note_on_c, 0, 64, 0
2, 259503, Note_on_c, 0, 52, 54
2, 259508, Note_on_c, 0, 62, 55
2, 259586, Note_on_c, 0, 71, 0
2, 259890, Note_on_c, 0, 62, 0
2, 259890, Note_on_c, 0, 69, 62
2, 259892, Note_on_c, 0, 57, 54
2, 259895, Note_on_c, 0, 52, 0
2, 259897, Note_on_c, 0, 61, 56
2, 259919, Note_on_c, 0, 49, 0
2, 260010, Control_c, 0, 64, 27
2, 260025, Control_c, 0, 64, 37
2, 260041, Control_c, 0, 64, 46
2, 260055, Control_c, 0, 64, 53
2, 260071, Control_c, 0, 64, 58
2, 260086, Control_c, 0, 64, 62
2, 260100, Control_c, 0, 64, 64
2, 260108, Note_on_c, 0, 57, 0
2, 260116, Control_c, 0, 64, 66
2, 260131, Control_c, 0, 64, 69
2, 260146, Control_c, 0, 64, 72
2, 260162, Control_c, 0, 64, 74
2, 260177, Control_c, 0, 64, 77
2, 260193, Control_c, 0, 64, 80
2, 260207, Control_c, 0, 64, 81
2, 260236, Note_on_c, 0, 45, 52
2, 260244, Note_on_c, 0, 55, 51
2, 260268, Control_c, 0, 64, 80
2, 260284, Control_c, 0, 64, 76
2, 260299, Control_c, 0, 64, 69
2, 260314, Control_c, 0, 64, 62
2, 260329, Control_c, 0, 64, 52
2, 260344, Control_c, 0, 64, 48
2, 260465, Control_c, 0, 64, 47
2, 260496, Control_c, 0, 64, 47
2, 260511, Control_c, 0, 64, 46
2, 260541, Control_c, 0, 64, 46
2, 260557, Control_c, 0, 64, 45
2, 260572, Control_c, 0, 64, 43
2, 260586, Control_c, 0, 64, 31
2, 260594, Note_on_c, 0, 55, 0
2, 260602, Control_c, 0, 64, 0
2, 260603, Note_on_c, 0, 50, 51
2, 260610, Note_on_c, 0, 54, 44
2, 260623, Note_on_c, 0, 45, 0
2, 260747, Control_c, 0, 64, 35
2, 260763, Control_c, 0, 64, 57
2, 260778, Control_c, 0, 64, 63
2, 260791, Note_on_c, 0, 50, 0
2, 260794, Control_c, 0, 64, 66
2, 260809, Control_c, 0, 64, 70
2, 260823, Control_c, 0, 64, 74
2, 260839, Control_c, 0, 64, 76
2, 260854, Control_c, 0, 64, 77
2, 260869, Control_c, 0, 64, 78
2, 260885, Control_c, 0, 64, 79
2, 260947, Note_on_c, 0, 57, 66
2, 260952, Note_on_c, 0, 48, 54
2, 260955, Note_on_c, 0, 61, 0
2, 260991, Control_c, 0, 64, 77
2, 261006, Control_c, 0, 64, 75
2, 261020, Control_c, 0, 64, 73
2, 261036, Control_c, 0, 64, 70
2, 261051, Control_c, 0, 64, 67
2, 261066, Control_c, 0, 64, 65
2, 261082, Control_c, 0, 64, 62
2, 261097, Control_c, 0, 64, 57
2, 261113, Control_c, 0, 64, 48
2, 261128, Control_c, 0, 64, 41
2, 261143, Control_c, 0, 64, 37
2, 261204, Control_c, 0, 64, 36
2, 261219, Control_c, 0, 64, 36
2, 261265, Control_c, 0, 64, 35
2, 261280, Control_c, 0, 64, 35
2, 261295, Control_c, 0, 64, 34
2, 261302, Note_on_c, 0, 47, 45
2, 261306, Note_on_c, 0, 62, 72
2, 261311, Control_c, 0, 64, 32
2, 261317, Note_on_c, 0, 57, 0
2, 261326, Control_c, 0, 64, 30
2, 261339, Note_on_c, 0, 48, 0
2, 261341, Control_c, 0, 64, 29
2, 261417, Control_c, 0, 64, 28
2, 261447, Control_c, 0, 64, 28
2, 261500, Control_c, 0, 64, 27
2, 261608, Control_c, 0, 64, 26
2, 261623, Control_c, 0, 64, 24
2, 261639, Control_c, 0, 64, 21
2, 261653, Control_c, 0, 64, 16
2, 261668, Control_c, 0, 64, 0
2, 261668, Note_on_c, 0, 47, 0
2, 261672, Note_on_c, 0, 60, 61
2, 261676, Note_on_c, 0, 45, 41
2, 261684, Note_on_c, 0, 62, 0
2, 262026, Note_on_c, 0, 60, 0
2, 262031, Note_on_c, 0, 43, 40
2, 262044, Note_on_c, 0, 59, 55
2, 262094, Note_on_c, 0, 45, 0
2, 262120, Note_on_c, 0, 54, 0
2, 262360, Control_c, 0, 64, 40
2, 262375, Control_c, 0, 64, 46
2, 262389, Control_c, 0, 64, 48
2, 262395, Note_on_c, 0, 47, 44
2, 262405, Control_c, 0, 64, 52
2, 262420, Control_c, 0, 64, 58
2, 262435, Control_c, 0, 64, 61
2, 262450, Control_c, 0, 64, 63
2, 262460, Note_on_c, 0, 69, 0
2, 262465, Control_c, 0, 64, 64
2, 262481, Control_c, 0, 64, 64
2, 262496, Control_c, 0, 64, 65
2, 262511, Control_c, 0, 64, 67
2, 262526, Control_c, 0, 64, 69
2, 262541, Control_c, 0, 64, 71
2, 262556, Control_c, 0, 64, 74
2, 262571, Control_c, 0, 64, 76
2, 262586, Control_c, 0, 64, 77
2, 262602, Control_c, 0, 64, 77
2, 262755, Control_c, 0, 64, 77
2, 262758, Note_on_c, 0, 47, 0
2, 262762, Note_on_c, 0, 67, 77
2, 262769, Control_c, 0, 64, 76
2, 262770, Note_on_c, 0, 52, 50
2, 262784, Control_c, 0, 64, 75
2, 262794, Note_on_c, 0, 59, 0
2, 262800, Control_c, 0, 64, 73
2, 262815, Control_c, 0, 64, 70
2, 262831, Control_c, 0, 64, 66
2, 262845, Control_c, 0, 64, 61
2, 262860, Control_c, 0, 64, 46
2, 262876, Control_c, 0, 64, 0
2, 262966, Control_c, 0, 64, 15
2, 262981, Control_c, 0, 64, 41
2, 262997, Control_c, 0, 64, 51
2, 263020, Control_c, 0, 64, 56
2, 263036, Control_c, 0, 64, 59
2, 263050, Control_c, 0, 64, 62
2, 263065, Control_c, 0, 64, 64
2, 263081, Control_c, 0, 64, 65
2, 263096, Control_c, 0, 64, 66
2, 263112, Control_c, 0, 64, 68
2, 263126, Control_c, 0, 64, 69
2, 263141, Control_c, 0, 64, 69
2, 263152, Note_on_c, 0, 50, 40
2, 263155, Note_on_c, 0, 59, 50
2, 263157, Control_c, 0, 64, 70
2, 263173, Control_c, 0, 64, 71
2, 263173, Note_on_c, 0, 52, 0
2, 263179, Note_on_c, 0, 43, 0
2, 263188, Control_c, 0, 64, 72
2, 263203, Control_c, 0, 64, 72
2, 263218, Control_c, 0, 64, 73
2, 263298, Note_on_c, 0, 50, 0
2, 263461, Control_c, 0, 64, 72
2, 263476, Control_c, 0, 64, 71
2, 263491, Control_c, 0, 64, 70
2, 263502, Note_on_c, 0, 45, 32
2, 263502, Note_on_c, 0, 59, 0
2, 263506, Control_c, 0, 64, 67
2, 263506, Note_on_c, 0, 49, 34
2, 263507, Note_on_c, 0, 64, 55
2, 263522, Control_c, 0, 64, 64
2, 263537, Control_c, 0, 64, 55
2, 263553, Control_c, 0, 64, 28
2, 263567, Control_c, 0, 64, 0
2, 263613, Control_c, 0, 64, 26
2, 263628, Control_c, 0, 64, 46
2, 263644, Control_c, 0, 64, 52
2, 263659, Control_c, 0, 64, 57
2, 263675, Control_c, 0, 64, 62
2, 263689, Control_c, 0, 64, 64
2, 263704, Control_c, 0, 64, 65
2, 263714, Note_on_c, 0, 64, 0
2, 263720, Control_c, 0, 64, 67
2, 263735, Control_c, 0, 64, 67
2, 263751, Control_c, 0, 64, 68
2, 263787, Control_c, 0, 64, 68
2, 263864, Note_on_c, 0, 67, 0
2, 263873, Note_on_c, 0, 64, 66
2, 263886, Note_on_c, 0, 50, 43
2, 263890, Note_on_c, 0, 62, 54
2, 263900, Note_on_c, 0, 49, 0
2, 263909, Control_c, 0, 64, 68
2, 263925, Control_c, 0, 64, 66
2, 263940, Control_c, 0, 64, 64
2, 263956, Control_c, 0, 64, 60
2, 263970, Control_c, 0, 64, 55
2, 263985, Control_c, 0, 64, 49
2, 264002, Control_c, 0, 64, 45
2, 264017, Control_c, 0, 64, 43
2, 264033, Control_c, 0, 64, 41
2, 264047, Control_c, 0, 64, 39
2, 264062, Control_c, 0, 64, 33
2, 264078, Control_c, 0, 64, 24
2, 264093, Control_c, 0, 64, 16
2, 264108, Control_c, 0, 64, 12
2, 264123, Control_c, 0, 64, 10
2, 264138, Control_c, 0, 64, 0
2, 264248, Note_on_c, 0, 69, 62
2, 264252, Note_on_c, 0, 64, 0
2, 264260, Note_on_c, 0, 50, 0
2, 264260, Note_on_c, 0, 52, 34
2, 264288, Note_on_c, 0, 61, 37
2, 264313, Note_on_c, 0, 62, 0
2, 264586, Control_c, 0, 64, 29
2, 264602, Control_c, 0, 64, 39
2, 264616, Control_c, 0, 64, 45
2, 264632, Control_c, 0, 64, 52
2, 264638, Note_on_c, 0, 61, 0
2, 264647, Control_c, 0, 64, 56
2, 264650, Note_on_c, 0, 67, 59
2, 264656, Note_on_c, 0, 64, 59
2, 264662, Control_c, 0, 64, 62
2, 264668, Note_on_c, 0, 69, 0
2, 264678, Control_c, 0, 64, 66
2, 264692, Control_c, 0, 64, 69
2, 264707, Control_c, 0, 64, 74
2, 264723, Control_c, 0, 64, 80
2, 264738, Control_c, 0, 64, 91
2, 264754, Control_c, 0, 64, 102
2, 264769, Control_c, 0, 64, 115
2, 264784, Control_c, 0, 64, 127
2, 264807, Note_on_c, 0, 52, 0
2, 264825, Note_on_c, 0, 67, 0
2, 264842, Note_on_c, 0, 45, 0
2, 265051, Note_on_c, 0, 66, 72
2, 265075, Control_c, 0, 64, 115
2, 265089, Control_c, 0, 64, 98
2, 265104, Control_c, 0, 64, 88
2, 265120, Control_c, 0, 64, 82
2, 265135, Control_c, 0, 64, 77
2, 265151, Control_c, 0, 64, 73
2, 265166, Control_c, 0, 64, 69
2, 265180, Control_c, 0, 64, 67
2, 265196, Control_c, 0, 64, 65
2, 265211, Control_c, 0, 64, 63
2, 265226, Control_c, 0, 64, 62
2, 265241, Control_c, 0, 64, 62
2, 265340, Control_c, 0, 64, 61
2, 265356, Control_c, 0, 64, 61
2, 265371, Control_c, 0, 64, 60
2, 265385, Control_c, 0, 64, 60
2, 265401, Control_c, 0, 64, 59
2, 265416, Control_c, 0, 64, 58
2, 265432, Control_c, 0, 64, 56
2, 265447, Control_c, 0, 64, 54
2, 265461, Control_c, 0, 64, 52
2, 265469, Note_on_c, 0, 50, 40
2, 265474, Note_on_c, 0, 62, 54
2, 265477, Control_c, 0, 64, 50
2, 265485, Note_on_c, 0, 64, 0
2, 265492, Control_c, 0, 64, 47
2, 265506, Control_c, 0, 64, 42
2, 265522, Control_c, 0, 64, 35
2, 265537, Control_c, 0, 64, 29
2, 265553, Control_c, 0, 64, 24
2, 265568, Control_c, 0, 64, 21
2, 265582, Control_c, 0, 64, 17
2, 265598, Control_c, 0, 64, 0
2, 265937, Note_on_c, 0, 64, 66
2, 265947, Note_on_c, 0, 57, 39
2, 265968, Note_on_c, 0, 66, 0
2, 265970, Note_on_c, 0, 50, 0
2, 266438, Note_on_c, 0, 62, 0
2, 266455, Note_on_c, 0, 61, 47
2, 266457, Note_on_c, 0, 55, 34
2, 266478, Note_on_c, 0, 57, 0
2, 266564, Control_c, 0, 64, 48
2, 266579, Control_c, 0, 64, 63
2, 266595, Control_c, 0, 64, 72
2, 266609, Control_c, 0, 64, 89
2, 266624, Control_c, 0, 64, 127
2, 266655, Control_c, 0, 67, 24
2, 266671, Control_c, 0, 67, 92
2, 266686, Control_c, 0, 67, 127
2, 266693, Note_on_c, 0, 64, 0
2, 266711, Note_on_c, 0, 55, 0
2, 266738, Note_on_c, 0, 61, 0
2, 267157, Note_on_c, 0, 62, 63
2, 267163, Note_on_c, 0, 50, 41
2, 267166, Note_on_c, 0, 54, 51
2, 267167, Note_on_c, 0, 57, 43
2, 267169, Note_on_c, 0, 38, 42
2, 267209, Control_c, 0, 64, 92
2, 267224, Control_c, 0, 64, 76
2, 267240, Control_c, 0, 64, 65
2, 267255, Control_c, 0, 64, 50
2, 267272, Control_c, 0, 64, 0
2, 268398, Control_c, 0, 64, 8
2, 268413, Control_c, 0, 64, 22
2, 268427, Control_c, 0, 64, 29
2, 268443, Control_c, 0, 64, 33
2, 268458, Control_c, 0, 64, 35
2, 268473, Control_c, 0, 64, 38
2, 268488, Control_c, 0, 64, 40
2, 268503, Control_c, 0, 64, 41
2, 268519, Control_c, 0, 64, 42
2, 268534, Control_c, 0, 64, 43
2, 268564, Control_c, 0, 64, 44
2, 268579, Control_c, 0, 64, 44
2, 268595, Control_c, 0, 64, 45
2, 268640, Control_c, 0, 64, 45
2, 268655, Control_c, 0, 64, 46
2, 268671, Control_c, 0, 64, 46
2, 268686, Control_c, 0, 64, 47
2, 268716, Control_c, 0, 64, 47
2, 268731, Control_c, 0, 64, 48
2, 268746, Control_c, 0, 64, 48
2, 268777, Control_c, 0, 64, 49
2, 268822, Control_c, 0, 64, 49
2, 268838, Control_c, 0, 64, 50
2, 268853, Control_c, 0, 64, 50
2, 268868, Control_c, 0, 64, 51
2, 268883, Control_c, 0, 64, 51
2, 268930, Control_c, 0, 64, 52
2, 268945, Control_c, 0, 64, 52
2, 268961, Control_c, 0, 64, 53
2, 268975, Control_c, 0, 64, 53
2, 269021, Control_c, 0, 64, 54
2, 269037, Control_c, 0, 64, 54
2, 269052, Control_c, 0, 64, 55
2, 269082, Control_c, 0, 64, 55
2, 269575, Control_c, 0, 64, 55
2, 269637, Control_c, 0, 64, 54
2, 269682, Control_c, 0, 64, 54
2, 269743, Control_c, 0, 64, 53
2, 269805, Control_c, 0, 64, 53
2, 269835, Control_c, 0, 64, 52
2, 269850, Control_c, 0, 64, 52
2, 269881, Control_c, 0, 64, 51
2, 269910, Control_c, 0, 64, 51
2, 269933, Control_c, 0, 64, 50
2, 269948, Control_c, 0, 64, 49
2, 269964, Control_c, 0, 64, 48
2, 269978, Control_c, 0, 64, 47
2, 269994, Control_c, 0, 64, 46
2, 270009, Control_c, 0, 64, 46
2, 270024, Control_c, 0, 64, 44
2, 270040, Control_c, 0, 64, 44
2, 270055, Control_c, 0, 64, 42
2, 270070, Control_c, 0, 64, 40
2, 270085, Control_c, 0, 64, 38
2, 270100, Control_c, 0, 64, 35
2, 270116, Control_c, 0, 64, 33
2, 270131, Control_c, 0, 64, 30
2, 270146, Control_c, 0, 64, 27
2, 270161, Control_c, 0, 64, 23
2, 270176, Control_c, 0, 64, 16
2, 270192, Control_c, 0, 64, 8
2, 270207, Control_c, 0, 64, 0
2, 270847, Note_on_c, 0, 50, 0
2, 270909, Note_on_c, 0, 54, 0
2, 270935, Note_on_c, 0, 57, 0
2, 270975, Note_on_c, 0, 62, 0
2, 270976, Note_on_c, 0, 38, 0
2, 270977, End_track
0, 0, End_of_file
