0, 0, Header, 1, 2, 384
1, 0, Start_track
1, 0, Tempo, 500000
1, 0, Time_signature, 4, 2, 24, 8
1, 1, End_track
2, 0, Start_track
2, 0, Program_c, 0, 0
2, 0, Control_c, 0, 64, 88
2, 420, Control_c, 0, 64, 88
2, 435, Control_c, 0, 64, 87
2, 451, Control_c, 0, 64, 87
2, 466, Control_c, 0, 64, 86
2, 480, Control_c, 0, 64, 85
2, 496, Control_c, 0, 64, 85
2, 625, Control_c, 0, 64, 85
2, 742, Control_c, 0, 64, 85
2, 744, Note_on_c, 0, 50, 84
2, 748, Note_on_c, 0, 38, 74
2, 757, Control_c, 0, 64, 84
2, 772, Control_c, 0, 64, 83
2, 788, Control_c, 0, 64, 78
2, 802, Control_c, 0, 64, 73
2, 818, Control_c, 0, 64, 69
2, 833, Control_c, 0, 64, 64
2, 848, Control_c, 0, 64, 59
2, 864, Control_c, 0, 64, 53
2, 878, Control_c, 0, 64, 50
2, 909, Control_c, 0, 64, 51
2, 950, Note_on_c, 0, 62, 79
2, 1002, Control_c, 0, 64, 50
2, 1014, Note_on_c, 0, 62, 0
2, 1021, Note_on_c, 0, 64, 75
2, 1063, Control_c, 0, 64, 50
2, 1101, Note_on_c, 0, 66, 74
2, 1107, Note_on_c, 0, 64, 0
2, 1154, Control_c, 0, 64, 49
2, 1168, Control_c, 0, 64, 49
2, 1175, Note_on_c, 0, 67, 75
2, 1189, Note_on_c, 0, 50, 0
2, 1199, Control_c, 0, 64, 48
2, 1204, Note_on_c, 0, 66, 0
2, 1225, Note_on_c, 0, 38, 0
2, 1230, Control_c, 0, 64, 48
2, 1257, Note_on_c, 0, 69, 75
2, 1269, Note_on_c, 0, 67, 0
2, 1318, Note_on_c, 0, 69, 0
2, 1436, Note_on_c, 0, 66, 76
2, 1449, Control_c, 0, 64, 48
2, 1467, Note_on_c, 0, 66, 0
2, 1495, Control_c, 0, 64, 49
2, 1511, Control_c, 0, 64, 49
2, 1541, Control_c, 0, 64, 50
2, 1577, Note_on_c, 0, 69, 78
2, 1587, Control_c, 0, 64, 50
2, 1623, Note_on_c, 0, 69, 0
2, 1721, Note_on_c, 0, 74, 86
2, 1770, Note_on_c, 0, 74, 0
2, 1874, Note_on_c, 0, 69, 81
2, 1917, Note_on_c, 0, 69, 0
2, 2022, Note_on_c, 0, 74, 93
2, 2081, Note_on_c, 0, 74, 0
2, 2175, Note_on_c, 0, 78, 96
2, 2235, Note_on_c, 0, 78, 0
2, 2326, Note_on_c, 0, 74, 90
2, 2367, Note_on_c, 0, 74, 0
2, 2459, Note_on_c, 0, 78, 85
2, 2515, Note_on_c, 0, 78, 0
2, 2567, Control_c, 0, 64, 51
2, 2644, Note_on_c, 0, 81, 92
2, 2734, Control_c, 0, 64, 50
2, 2750, Control_c, 0, 64, 49
2, 2765, Control_c, 0, 64, 49
2, 2781, Control_c, 0, 64, 48
2, 2795, Control_c, 0, 64, 47
2, 2810, Control_c, 0, 64, 46
2, 2849, Control_c, 0, 64, 49
2, 2864, Control_c, 0, 64, 55
2, 2879, Control_c, 0, 64, 62
2, 2894, Control_c, 0, 64, 68
2, 2910, Control_c, 0, 64, 76
2, 2919, Note_on_c, 0, 81, 0
2, 2925, Control_c, 0, 64, 96
2, 2940, Control_c, 0, 64, 127
2, 3107, Control_c, 0, 64, 116
2, 3122, Control_c, 0, 64, 101
2, 3137, Control_c, 0, 64, 93
2, 3152, Control_c, 0, 64, 88
2, 3167, Control_c, 0, 64, 83
2, 3183, Control_c, 0, 64, 79
2, 3198, Control_c, 0, 64, 75
2, 3212, Control_c, 0, 64, 70
2, 3215, Note_on_c, 0, 81, 87
2, 3228, Control_c, 0, 64, 64
2, 3230, Note_on_c, 0, 62, 55
2, 3231, Note_on_c, 0, 78, 78
2, 3243, Control_c, 0, 64, 54
2, 3259, Control_c, 0, 64, 31
2, 3274, Control_c, 0, 64, 0
2, 3365, Control_c, 0, 64, 15
2, 3381, Control_c, 0, 64, 47
2, 3396, Control_c, 0, 64, 60
2, 3411, Control_c, 0, 64, 65
2, 3424, Note_on_c, 0, 81, 0
2, 3427, Control_c, 0, 64, 70
2, 3442, Control_c, 0, 64, 79
2, 3458, Control_c, 0, 64, 121
2, 3469, Note_on_c, 0, 62, 0
2, 3473, Control_c, 0, 64, 127
2, 3489, Note_on_c, 0, 78, 0
2, 3663, Control_c, 0, 64, 118
2, 3678, Control_c, 0, 64, 101
2, 3692, Control_c, 0, 64, 90
2, 3708, Control_c, 0, 64, 81
2, 3723, Control_c, 0, 64, 72
2, 3738, Note_on_c, 0, 81, 85
2, 3739, Control_c, 0, 64, 64
2, 3742, Note_on_c, 0, 78, 78
2, 3750, Note_on_c, 0, 69, 66
2, 3754, Control_c, 0, 64, 53
2, 3769, Control_c, 0, 64, 39
2, 3784, Control_c, 0, 64, 26
2, 3799, Control_c, 0, 64, 22
2, 3860, Control_c, 0, 64, 18
2, 3875, Control_c, 0, 64, 14
2, 3890, Control_c, 0, 64, 0
2, 3968, Note_on_c, 0, 78, 0
2, 4013, Note_on_c, 0, 76, 67
2, 4013, Note_on_c, 0, 79, 87
2, 4070, Note_on_c, 0, 81, 0
2, 4149, Control_c, 0, 64, 15
2, 4164, Control_c, 0, 64, 41
2, 4179, Control_c, 0, 64, 53
2, 4181, Note_on_c, 0, 79, 0
2, 4190, Note_on_c, 0, 76, 0
2, 4194, Control_c, 0, 64, 60
2, 4209, Control_c, 0, 64, 63
2, 4225, Control_c, 0, 64, 64
2, 4237, Note_on_c, 0, 69, 0
2, 4255, Control_c, 0, 64, 63
2, 4270, Note_on_c, 0, 79, 88
2, 4271, Control_c, 0, 64, 61
2, 4276, Note_on_c, 0, 57, 64
2, 4278, Note_on_c, 0, 76, 81
2, 4286, Control_c, 0, 64, 54
2, 4302, Control_c, 0, 64, 41
2, 4317, Control_c, 0, 64, 30
2, 4331, Control_c, 0, 64, 31
2, 4347, Control_c, 0, 64, 44
2, 4369, Control_c, 0, 64, 56
2, 4385, Control_c, 0, 64, 64
2, 4400, Control_c, 0, 64, 69
2, 4414, Control_c, 0, 64, 79
2, 4430, Control_c, 0, 64, 95
2, 4445, Control_c, 0, 64, 127
2, 4537, Note_on_c, 0, 74, 76
2, 4539, Note_on_c, 0, 78, 89
2, 4542, Note_on_c, 0, 76, 0
2, 4558, Note_on_c, 0, 79, 0
2, 4635, Note_on_c, 0, 74, 0
2, 4636, Note_on_c, 0, 78, 0
2, 4795, Control_c, 0, 64, 111
2, 4803, Note_on_c, 0, 78, 88
2, 4807, Note_on_c, 0, 74, 80
2, 4808, Note_on_c, 0, 57, 0
2, 4810, Control_c, 0, 64, 100
2, 4813, Note_on_c, 0, 62, 74
2, 4826, Control_c, 0, 64, 93
2, 4841, Control_c, 0, 64, 86
2, 4857, Control_c, 0, 64, 80
2, 4872, Control_c, 0, 64, 75
2, 4886, Control_c, 0, 64, 71
2, 4902, Control_c, 0, 64, 65
2, 4907, Note_on_c, 0, 62, 0
2, 4917, Control_c, 0, 64, 58
2, 4932, Control_c, 0, 64, 49
2, 4948, Control_c, 0, 64, 38
2, 4962, Control_c, 0, 64, 19
2, 4978, Control_c, 0, 64, 0
2, 4997, Note_on_c, 0, 78, 0
2, 5002, Note_on_c, 0, 74, 0
2, 5067, Note_on_c, 0, 50, 62
2, 5133, Note_on_c, 0, 52, 58
2, 5156, Note_on_c, 0, 50, 0
2, 5207, Note_on_c, 0, 52, 0
2, 5210, Note_on_c, 0, 54, 62
2, 5247, Note_on_c, 0, 54, 0
2, 5258, Note_on_c, 0, 55, 70
2, 5316, Note_on_c, 0, 55, 0
2, 5348, Note_on_c, 0, 57, 70
2, 5376, Note_on_c, 0, 57, 0
2, 5497, Note_on_c, 0, 54, 73
2, 5533, Note_on_c, 0, 54, 0
2, 5644, Note_on_c, 0, 57, 79
2, 5670, Note_on_c, 0, 57, 0
2, 5790, Note_on_c, 0, 62, 83
2, 5834, Note_on_c, 0, 62, 0
2, 5956, Note_on_c, 0, 57, 82
2, 6007, Note_on_c, 0, 57, 0
2, 6096, Note_on_c, 0, 62, 86
2, 6144, Note_on_c, 0, 62, 0
2, 6245, Note_on_c, 0, 66, 85
2, 6278, Note_on_c, 0, 67, 53
2, 6301, Note_on_c, 0, 67, 0
2, 6304, Note_on_c, 0, 66, 0
2, 6395, Note_on_c, 0, 62, 85
2, 6437, Note_on_c, 0, 62, 0
2, 6542, Note_on_c, 0, 66, 94
2, 6607, Note_on_c, 0, 66, 0
2, 6745, Note_on_c, 0, 69, 98
2, 6839, Control_c, 0, 64, 30
2, 6854, Control_c, 0, 64, 47
2, 6870, Control_c, 0, 64, 58
2, 6884, Control_c, 0, 64, 64
2, 6899, Control_c, 0, 64, 70
2, 6915, Control_c, 0, 64, 79
2, 6916, Note_on_c, 0, 69, 0
2, 6929, Control_c, 0, 64, 105
2, 6945, Control_c, 0, 64, 127
2, 7236, Control_c, 0, 64, 112
2, 7251, Control_c, 0, 64, 99
2, 7267, Control_c, 0, 64, 88
2, 7281, Control_c, 0, 64, 76
2, 7288, Note_on_c, 0, 78, 91
2, 7296, Control_c, 0, 64, 67
2, 7298, Note_on_c, 0, 50, 56
2, 7301, Note_on_c, 0, 69, 69
2, 7312, Control_c, 0, 64, 54
2, 7326, Control_c, 0, 64, 0
2, 7402, Control_c, 0, 64, 18
2, 7418, Control_c, 0, 64, 49
2, 7441, Control_c, 0, 64, 59
2, 7456, Control_c, 0, 64, 64
2, 7472, Control_c, 0, 64, 67
2, 7487, Control_c, 0, 64, 74
2, 7501, Note_on_c, 0, 69, 0
2, 7501, Note_on_c, 0, 78, 0
2, 7503, Control_c, 0, 64, 88
2, 7518, Control_c, 0, 64, 127
2, 7518, Note_on_c, 0, 50, 0
2, 7806, Control_c, 0, 64, 121
2, 7822, Control_c, 0, 64, 91
2, 7826, Note_on_c, 0, 78, 93
2, 7829, Note_on_c, 0, 57, 66
2, 7837, Control_c, 0, 64, 75
2, 7840, Note_on_c, 0, 69, 70
2, 7851, Control_c, 0, 64, 64
2, 7867, Control_c, 0, 64, 44
2, 7882, Control_c, 0, 64, 0
2, 8071, Note_on_c, 0, 76, 82
2, 8078, Note_on_c, 0, 67, 74
2, 8083, Note_on_c, 0, 69, 0
2, 8141, Control_c, 0, 64, 25
2, 8141, Note_on_c, 0, 78, 0
2, 8156, Control_c, 0, 64, 49
2, 8170, Control_c, 0, 64, 59
2, 8186, Control_c, 0, 64, 64
2, 8188, Note_on_c, 0, 76, 0
2, 8208, Control_c, 0, 64, 67
2, 8224, Control_c, 0, 64, 70
2, 8236, Note_on_c, 0, 67, 0
2, 8239, Control_c, 0, 64, 74
2, 8254, Control_c, 0, 64, 75
2, 8285, Control_c, 0, 64, 74
2, 8301, Control_c, 0, 64, 71
2, 8313, Note_on_c, 0, 57, 0
2, 8316, Control_c, 0, 64, 66
2, 8331, Control_c, 0, 64, 58
2, 8336, Note_on_c, 0, 45, 59
2, 8341, Note_on_c, 0, 76, 83
2, 8347, Control_c, 0, 64, 30
2, 8347, Note_on_c, 0, 67, 78
2, 8361, Control_c, 0, 64, 0
2, 8469, Control_c, 0, 64, 34
2, 8483, Control_c, 0, 64, 46
2, 8499, Control_c, 0, 64, 52
2, 8514, Control_c, 0, 64, 58
2, 8529, Control_c, 0, 64, 62
2, 8545, Control_c, 0, 64, 64
2, 8559, Control_c, 0, 64, 67
2, 8573, Note_on_c, 0, 76, 0
2, 8574, Control_c, 0, 64, 71
2, 8590, Control_c, 0, 64, 76
2, 8600, Note_on_c, 0, 74, 74
2, 8605, Control_c, 0, 64, 80
2, 8609, Note_on_c, 0, 66, 76
2, 8620, Control_c, 0, 64, 79
2, 8635, Control_c, 0, 64, 73
2, 8645, Note_on_c, 0, 67, 0
2, 8650, Control_c, 0, 64, 64
2, 8667, Control_c, 0, 64, 51
2, 8682, Control_c, 0, 64, 31
2, 8696, Control_c, 0, 64, 8
2, 8712, Control_c, 0, 64, 0
2, 8727, Control_c, 0, 64, 14
2, 8732, Note_on_c, 0, 74, 0
2, 8743, Control_c, 0, 64, 35
2, 8758, Control_c, 0, 64, 49
2, 8772, Control_c, 0, 64, 55
2, 8773, Note_on_c, 0, 66, 0
2, 8788, Control_c, 0, 64, 59
2, 8803, Control_c, 0, 64, 62
2, 8818, Control_c, 0, 64, 65
2, 8833, Control_c, 0, 64, 69
2, 8848, Control_c, 0, 64, 76
2, 8862, Note_on_c, 0, 74, 77
2, 8864, Control_c, 0, 64, 92
2, 8873, Note_on_c, 0, 66, 78
2, 8875, Note_on_c, 0, 50, 66
2, 8879, Control_c, 0, 64, 127
2, 8884, Note_on_c, 0, 45, 0
2, 8915, Note_on_c, 0, 74, 0
2, 8921, Note_on_c, 0, 66, 0
2, 8964, Note_on_c, 0, 50, 0
2, 8993, Control_c, 0, 64, 94
2, 9008, Control_c, 0, 64, 73
2, 9023, Control_c, 0, 64, 63
2, 9038, Control_c, 0, 64, 53
2, 9053, Control_c, 0, 64, 47
2, 9069, Control_c, 0, 64, 47
2, 9130, Control_c, 0, 64, 46
2, 9138, Note_on_c, 0, 67, 8
2, 9146, Control_c, 0, 64, 44
2, 9161, Control_c, 0, 64, 40
2, 9162, Note_on_c, 0, 64, 60
2, 9176, Control_c, 0, 64, 39
2, 9186, Note_on_c, 0, 67, 0
2, 9192, Control_c, 0, 64, 38
2, 9196, Note_on_c, 0, 64, 0
2, 9221, Note_on_c, 0, 62, 69
2, 9231, Note_on_c, 0, 38, 54
2, 9279, Note_on_c, 0, 38, 0
2, 9292, Note_on_c, 0, 62, 0
2, 9295, Note_on_c, 0, 61, 68
2, 9350, Note_on_c, 0, 61, 0
2, 9372, Note_on_c, 0, 59, 67
2, 9384, Note_on_c, 0, 50, 54
2, 9399, Note_on_c, 0, 59, 0
2, 9420, Note_on_c, 0, 50, 0
2, 9525, Note_on_c, 0, 62, 68
2, 9554, Note_on_c, 0, 62, 0
2, 9663, Note_on_c, 0, 50, 50
2, 9673, Note_on_c, 0, 59, 67
2, 9695, Note_on_c, 0, 50, 0
2, 9702, Note_on_c, 0, 59, 0
2, 9834, Note_on_c, 0, 56, 62
2, 9835, Control_c, 0, 64, 40
2, 9842, Note_on_c, 0, 50, 47
2, 9850, Control_c, 0, 64, 48
2, 9866, Control_c, 0, 64, 56
2, 9869, Note_on_c, 0, 56, 0
2, 9881, Control_c, 0, 64, 61
2, 9896, Control_c, 0, 64, 64
2, 9912, Control_c, 0, 64, 67
2, 9927, Control_c, 0, 64, 68
2, 9958, Control_c, 0, 64, 66
2, 9972, Control_c, 0, 64, 64
2, 9988, Control_c, 0, 64, 61
2, 10003, Control_c, 0, 64, 57
2, 10019, Control_c, 0, 64, 55
2, 10020, Note_on_c, 0, 64, 60
2, 10034, Control_c, 0, 64, 53
2, 10049, Control_c, 0, 64, 53
2, 10065, Control_c, 0, 64, 52
2, 10080, Control_c, 0, 64, 52
2, 10082, Note_on_c, 0, 64, 0
2, 10094, Control_c, 0, 64, 51
2, 10094, Note_on_c, 0, 66, 60
2, 10110, Control_c, 0, 64, 50
2, 10125, Control_c, 0, 64, 50
2, 10141, Control_c, 0, 64, 49
2, 10159, Note_on_c, 0, 68, 66
2, 10166, Note_on_c, 0, 66, 0
2, 10170, Control_c, 0, 64, 49
2, 10173, Note_on_c, 0, 50, 0
2, 10201, Control_c, 0, 64, 48
2, 10216, Control_c, 0, 64, 47
2, 10226, Note_on_c, 0, 68, 0
2, 10231, Control_c, 0, 64, 46
2, 10236, Note_on_c, 0, 69, 63
2, 10246, Control_c, 0, 64, 44
2, 10262, Control_c, 0, 64, 43
2, 10277, Control_c, 0, 64, 42
2, 10305, Note_on_c, 0, 69, 0
2, 10307, Control_c, 0, 64, 41
2, 10308, Note_on_c, 0, 71, 71
2, 10322, Control_c, 0, 64, 40
2, 10332, Note_on_c, 0, 71, 0
2, 10338, Control_c, 0, 64, 40
2, 10353, Control_c, 0, 64, 39
2, 10368, Control_c, 0, 64, 38
2, 10383, Control_c, 0, 64, 36
2, 10398, Control_c, 0, 64, 35
2, 10413, Control_c, 0, 64, 33
2, 10428, Control_c, 0, 64, 28
2, 10443, Control_c, 0, 64, 23
2, 10459, Control_c, 0, 64, 12
2, 10474, Control_c, 0, 64, 0
2, 10479, Note_on_c, 0, 52, 63
2, 10484, Note_on_c, 0, 68, 64
2, 10526, Note_on_c, 0, 68, 0
2, 10545, Note_on_c, 0, 52, 0
2, 10570, Note_on_c, 0, 50, 57
2, 10623, Note_on_c, 0, 50, 0
2, 10635, Note_on_c, 0, 49, 55
2, 10646, Note_on_c, 0, 71, 64
2, 10680, Note_on_c, 0, 49, 0
2, 10682, Note_on_c, 0, 71, 0
2, 10707, Note_on_c, 0, 47, 58
2, 10787, Note_on_c, 0, 49, 70
2, 10789, Note_on_c, 0, 76, 64
2, 10794, Note_on_c, 0, 47, 0
2, 10809, Note_on_c, 0, 76, 0
2, 10956, Note_on_c, 0, 49, 0
2, 10957, Note_on_c, 0, 64, 88
2, 11031, Note_on_c, 0, 62, 78
2, 11088, Note_on_c, 0, 64, 0
2, 11106, Note_on_c, 0, 61, 83
2, 11125, Note_on_c, 0, 37, 68
2, 11143, Note_on_c, 0, 62, 0
2, 11167, Note_on_c, 0, 37, 0
2, 11175, Note_on_c, 0, 59, 89
2, 11205, Note_on_c, 0, 61, 0
2, 11255, Note_on_c, 0, 59, 0
2, 11262, Note_on_c, 0, 57, 87
2, 11278, Note_on_c, 0, 49, 71
2, 11321, Note_on_c, 0, 57, 0
2, 11442, Note_on_c, 0, 49, 0
2, 11442, Note_on_c, 0, 61, 73
2, 11483, Note_on_c, 0, 61, 0
2, 11605, Note_on_c, 0, 49, 54
2, 11609, Note_on_c, 0, 57, 73
2, 11642, Note_on_c, 0, 49, 0
2, 11645, Note_on_c, 0, 57, 0
2, 11780, Note_on_c, 0, 49, 42
2, 11783, Note_on_c, 0, 54, 64
2, 11813, Note_on_c, 0, 54, 0
2, 11859, Control_c, 0, 64, 28
2, 11874, Control_c, 0, 64, 41
2, 11889, Control_c, 0, 64, 47
2, 11905, Control_c, 0, 64, 52
2, 11919, Control_c, 0, 64, 55
2, 11934, Control_c, 0, 64, 56
2, 11950, Control_c, 0, 64, 57
2, 11965, Control_c, 0, 64, 56
2, 11970, Note_on_c, 0, 62, 61
2, 11981, Control_c, 0, 64, 52
2, 11995, Control_c, 0, 64, 43
2, 12010, Control_c, 0, 64, 30
2, 12012, Note_on_c, 0, 62, 0
2, 12026, Control_c, 0, 64, 17
2, 12038, Note_on_c, 0, 64, 66
2, 12048, Control_c, 0, 64, 0
2, 12111, Note_on_c, 0, 66, 75
2, 12116, Note_on_c, 0, 64, 0
2, 12179, Note_on_c, 0, 49, 0
2, 12189, Note_on_c, 0, 68, 74
2, 12198, Note_on_c, 0, 66, 0
2, 12264, Note_on_c, 0, 69, 81
2, 12282, Note_on_c, 0, 68, 0
2, 12307, Note_on_c, 0, 69, 0
2, 12438, Note_on_c, 0, 50, 61
2, 12440, Note_on_c, 0, 66, 66
2, 12477, Note_on_c, 0, 66, 0
2, 12489, Note_on_c, 0, 50, 0
2, 12515, Note_on_c, 0, 49, 58
2, 12562, Note_on_c, 0, 49, 0
2, 12581, Note_on_c, 0, 47, 59
2, 12600, Note_on_c, 0, 69, 72
2, 12628, Note_on_c, 0, 47, 0
2, 12642, Note_on_c, 0, 69, 0
2, 12652, Note_on_c, 0, 45, 59
2, 12741, Note_on_c, 0, 45, 0
2, 12744, Note_on_c, 0, 47, 60
2, 12752, Note_on_c, 0, 74, 75
2, 12766, Note_on_c, 0, 47, 0
2, 12936, Note_on_c, 0, 54, 85
2, 12955, Note_on_c, 0, 74, 0
2, 12999, Note_on_c, 0, 54, 0
2, 13012, Note_on_c, 0, 52, 78
2, 13091, Note_on_c, 0, 50, 78
2, 13103, Note_on_c, 0, 52, 0
2, 13112, Note_on_c, 0, 66, 71
2, 13147, Note_on_c, 0, 49, 76
2, 13162, Note_on_c, 0, 66, 0
2, 13168, Note_on_c, 0, 50, 0
2, 13232, Note_on_c, 0, 47, 81
2, 13245, Note_on_c, 0, 49, 0
2, 13256, Note_on_c, 0, 74, 84
2, 13270, Note_on_c, 0, 66, 74
2, 13282, Note_on_c, 0, 47, 0
2, 13293, Note_on_c, 0, 76, 27
2, 13294, Note_on_c, 0, 76, 0
2, 13425, Note_on_c, 0, 50, 77
2, 13461, Note_on_c, 0, 50, 0
2, 13473, Note_on_c, 0, 74, 0
2, 13492, Note_on_c, 0, 66, 0
2, 13590, Note_on_c, 0, 47, 76
2, 13610, Note_on_c, 0, 74, 81
2, 13611, Note_on_c, 0, 66, 73
2, 13625, Note_on_c, 0, 47, 0
2, 13646, Note_on_c, 0, 66, 0
2, 13670, Note_on_c, 0, 74, 0
2, 13763, Note_on_c, 0, 44, 71
2, 13770, Note_on_c, 0, 74, 94
2, 13781, Note_on_c, 0, 64, 79
2, 13807, Note_on_c, 0, 44, 0
2, 13936, Note_on_c, 0, 47, 65
2, 13970, Note_on_c, 0, 47, 0
2, 14103, Note_on_c, 0, 44, 61
2, 14117, Note_on_c, 0, 64, 0
2, 14141, Note_on_c, 0, 44, 0
2, 14156, Note_on_c, 0, 74, 0
2, 14273, Note_on_c, 0, 40, 45
2, 14309, Note_on_c, 0, 40, 0
2, 14440, Note_on_c, 0, 44, 52
2, 14461, Note_on_c, 0, 76, 65
2, 14484, Note_on_c, 0, 44, 0
2, 14538, Note_on_c, 0, 76, 0
2, 14550, Note_on_c, 0, 74, 55
2, 14608, Note_on_c, 0, 40, 41
2, 14618, Note_on_c, 0, 74, 0
2, 14629, Note_on_c, 0, 73, 58
2, 14654, Note_on_c, 0, 40, 0
2, 14667, Note_on_c, 0, 73, 0
2, 14687, Note_on_c, 0, 71, 63
2, 14736, Note_on_c, 0, 71, 0
2, 14765, Note_on_c, 0, 73, 73
2, 14770, Note_on_c, 0, 45, 55
2, 14792, Note_on_c, 0, 73, 0
2, 14807, Note_on_c, 0, 45, 0
2, 14945, Note_on_c, 0, 49, 55
2, 14947, Note_on_c, 0, 69, 65
2, 14974, Note_on_c, 0, 49, 0
2, 15000, Note_on_c, 0, 69, 0
2, 15025, Note_on_c, 0, 71, 65
2, 15083, Note_on_c, 0, 71, 0
2, 15093, Note_on_c, 0, 73, 66
2, 15100, Note_on_c, 0, 45, 49
2, 15150, Note_on_c, 0, 45, 0
2, 15172, Note_on_c, 0, 73, 0
2, 15178, Note_on_c, 0, 74, 73
2, 15251, Note_on_c, 0, 42, 54
2, 15259, Note_on_c, 0, 76, 87
2, 15266, Note_on_c, 0, 74, 0
2, 15291, Note_on_c, 0, 42, 0
2, 15301, Note_on_c, 0, 76, 0
2, 15430, Note_on_c, 0, 74, 92
2, 15434, Note_on_c, 0, 45, 64
2, 15477, Note_on_c, 0, 45, 0
2, 15516, Note_on_c, 0, 73, 86
2, 15523, Note_on_c, 0, 74, 0
2, 15570, Note_on_c, 0, 42, 69
2, 15580, Note_on_c, 0, 71, 84
2, 15614, Note_on_c, 0, 73, 0
2, 15629, Note_on_c, 0, 42, 0
2, 15651, Note_on_c, 0, 69, 88
2, 15651, Note_on_c, 0, 71, 0
2, 15719, Note_on_c, 0, 69, 0
2, 15730, Note_on_c, 0, 74, 94
2, 15733, Note_on_c, 0, 47, 68
2, 15769, Note_on_c, 0, 47, 0
2, 15787, Note_on_c, 0, 74, 0
2, 15911, Note_on_c, 0, 71, 85
2, 15925, Note_on_c, 0, 50, 75
2, 15963, Note_on_c, 0, 50, 0
2, 15985, Note_on_c, 0, 73, 85
2, 16002, Note_on_c, 0, 71, 0
2, 16052, Note_on_c, 0, 74, 88
2, 16063, Note_on_c, 0, 47, 71
2, 16077, Note_on_c, 0, 73, 0
2, 16099, Note_on_c, 0, 47, 0
2, 16137, Note_on_c, 0, 76, 88
2, 16153, Note_on_c, 0, 74, 0
2, 16210, Note_on_c, 0, 44, 68
2, 16227, Note_on_c, 0, 77, 91
2, 16242, Note_on_c, 0, 76, 0
2, 16250, Note_on_c, 0, 44, 0
2, 16265, Note_on_c, 0, 77, 0
2, 16378, Note_on_c, 0, 47, 61
2, 16388, Note_on_c, 0, 76, 81
2, 16420, Note_on_c, 0, 47, 0
2, 16473, Note_on_c, 0, 76, 0
2, 16477, Note_on_c, 0, 74, 81
2, 16528, Note_on_c, 0, 44, 68
2, 16545, Note_on_c, 0, 73, 78
2, 16546, Note_on_c, 0, 74, 0
2, 16568, Note_on_c, 0, 44, 0
2, 16602, Note_on_c, 0, 73, 0
2, 16617, Note_on_c, 0, 71, 80
2, 16674, Note_on_c, 0, 71, 0
2, 16701, Note_on_c, 0, 76, 87
2, 16709, Note_on_c, 0, 49, 73
2, 16740, Note_on_c, 0, 49, 0
2, 16867, Note_on_c, 0, 57, 74
2, 16933, Note_on_c, 0, 59, 62
2, 17001, Note_on_c, 0, 57, 0
2, 17014, Note_on_c, 0, 61, 79
2, 17025, Note_on_c, 0, 59, 0
2, 17088, Note_on_c, 0, 61, 0
2, 17096, Note_on_c, 0, 62, 83
2, 17174, Note_on_c, 0, 64, 91
2, 17177, Note_on_c, 0, 62, 0
2, 17207, Note_on_c, 0, 64, 0
2, 17339, Note_on_c, 0, 62, 79
2, 17405, Note_on_c, 0, 62, 0
2, 17418, Note_on_c, 0, 61, 74
2, 17476, Note_on_c, 0, 61, 0
2, 17498, Note_on_c, 0, 59, 83
2, 17558, Note_on_c, 0, 59, 0
2, 17574, Note_on_c, 0, 57, 82
2, 17628, Note_on_c, 0, 66, 92
2, 17638, Note_on_c, 0, 50, 75
2, 17638, Note_on_c, 0, 57, 0
2, 17675, Note_on_c, 0, 50, 0
2, 17800, Note_on_c, 0, 57, 83
2, 17868, Note_on_c, 0, 57, 0
2, 17884, Note_on_c, 0, 61, 82
2, 17966, Note_on_c, 0, 61, 0
2, 17970, Note_on_c, 0, 62, 86
2, 17999, Note_on_c, 0, 66, 0
2, 18034, Note_on_c, 0, 62, 0
2, 18038, Note_on_c, 0, 76, 0
2, 18045, Note_on_c, 0, 64, 85
2, 18115, Note_on_c, 0, 66, 87
2, 18126, Note_on_c, 0, 74, 88
2, 18127, Note_on_c, 0, 64, 0
2, 18167, Note_on_c, 0, 66, 0
2, 18298, Note_on_c, 0, 64, 81
2, 18369, Note_on_c, 0, 62, 76
2, 18375, Note_on_c, 0, 64, 0
2, 18389, Control_c, 0, 64, 10
2, 18403, Control_c, 0, 64, 28
2, 18418, Control_c, 0, 64, 40
2, 18433, Note_on_c, 0, 61, 73
2, 18433, Note_on_c, 0, 62, 0
2, 18434, Control_c, 0, 64, 45
2, 18449, Control_c, 0, 64, 50
2, 18463, Control_c, 0, 64, 54
2, 18465, Note_on_c, 0, 61, 0
2, 18479, Control_c, 0, 64, 57
2, 18494, Control_c, 0, 64, 58
2, 18525, Control_c, 0, 64, 57
2, 18539, Note_on_c, 0, 57, 41
2, 18540, Control_c, 0, 64, 54
2, 18556, Control_c, 0, 64, 53
2, 18571, Control_c, 0, 64, 52
2, 18572, Note_on_c, 0, 57, 0
2, 18601, Control_c, 0, 64, 52
2, 18603, Note_on_c, 0, 52, 79
2, 18611, Note_on_c, 0, 68, 80
2, 18616, Control_c, 0, 64, 51
2, 18632, Control_c, 0, 64, 49
2, 18647, Control_c, 0, 64, 46
2, 18662, Control_c, 0, 64, 43
2, 18672, Note_on_c, 0, 52, 0
2, 18677, Control_c, 0, 64, 42
2, 18690, Note_on_c, 0, 68, 0
2, 18692, Control_c, 0, 64, 39
2, 18708, Control_c, 0, 64, 37
2, 18722, Control_c, 0, 64, 35
2, 18737, Control_c, 0, 64, 34
2, 18768, Note_on_c, 0, 64, 65
2, 18841, Note_on_c, 0, 64, 0
2, 18843, Control_c, 0, 64, 34
2, 18848, Note_on_c, 0, 66, 75
2, 18852, Note_on_c, 0, 74, 0
2, 18920, Note_on_c, 0, 66, 0
2, 18921, Note_on_c, 0, 68, 76
2, 18928, Note_on_c, 0, 40, 66
2, 18988, Note_on_c, 0, 40, 0
2, 19005, Note_on_c, 0, 68, 0
2, 19007, Note_on_c, 0, 69, 77
2, 19077, Note_on_c, 0, 74, 83
2, 19081, Note_on_c, 0, 71, 76
2, 19087, Note_on_c, 0, 40, 81
2, 19089, Note_on_c, 0, 69, 0
2, 19137, Note_on_c, 0, 71, 0
2, 19232, Note_on_c, 0, 40, 0
2, 19244, Note_on_c, 0, 74, 0
2, 19256, Note_on_c, 0, 68, 88
2, 19316, Note_on_c, 0, 68, 0
2, 19399, Note_on_c, 0, 71, 91
2, 19403, Note_on_c, 0, 40, 71
2, 19457, Note_on_c, 0, 71, 0
2, 19458, Note_on_c, 0, 40, 0
2, 19488, Control_c, 0, 64, 33
2, 19503, Control_c, 0, 64, 32
2, 19534, Control_c, 0, 64, 31
2, 19556, Note_on_c, 0, 74, 75
2, 19560, Note_on_c, 0, 80, 100
2, 19564, Note_on_c, 0, 40, 82
2, 19610, Control_c, 0, 64, 31
2, 19629, Note_on_c, 0, 74, 0
2, 19729, Note_on_c, 0, 71, 92
2, 19791, Note_on_c, 0, 71, 0
2, 19834, Note_on_c, 0, 80, 0
2, 19886, Note_on_c, 0, 74, 96
2, 19948, Note_on_c, 0, 74, 0
2, 20044, Note_on_c, 0, 83, 101
2, 20059, Note_on_c, 0, 80, 86
2, 20093, Note_on_c, 0, 40, 0
2, 20151, Note_on_c, 0, 80, 0
2, 20225, Note_on_c, 0, 74, 91
2, 20274, Note_on_c, 0, 74, 0
2, 20314, Note_on_c, 0, 47, 72
2, 20359, Note_on_c, 0, 80, 89
2, 20368, Note_on_c, 0, 83, 0
2, 20385, Note_on_c, 0, 49, 78
2, 20399, Note_on_c, 0, 47, 0
2, 20414, Note_on_c, 0, 80, 0
2, 20454, Note_on_c, 0, 50, 84
2, 20475, Note_on_c, 0, 49, 0
2, 20551, Note_on_c, 0, 52, 87
2, 20554, Note_on_c, 0, 73, 100
2, 20561, Note_on_c, 0, 50, 0
2, 20713, Note_on_c, 0, 81, 85
2, 20724, Note_on_c, 0, 73, 0
2, 20742, Note_on_c, 0, 52, 0
2, 20797, Note_on_c, 0, 80, 81
2, 20833, Note_on_c, 0, 81, 0
2, 20876, Note_on_c, 0, 40, 60
2, 20883, Note_on_c, 0, 78, 75
2, 20916, Note_on_c, 0, 80, 0
2, 20928, Note_on_c, 0, 40, 0
2, 20935, Note_on_c, 0, 76, 81
2, 20936, Control_c, 0, 64, 31
2, 20963, Note_on_c, 0, 78, 0
2, 20979, Note_on_c, 0, 76, 0
2, 21038, Note_on_c, 0, 40, 66
2, 21047, Note_on_c, 0, 69, 80
2, 21047, Note_on_c, 0, 75, 92
2, 21087, Control_c, 0, 64, 32
2, 21129, Note_on_c, 0, 75, 0
2, 21148, Control_c, 0, 64, 32
2, 21177, Control_c, 0, 64, 33
2, 21193, Control_c, 0, 64, 33
2, 21212, Note_on_c, 0, 78, 83
2, 21220, Note_on_c, 0, 40, 0
2, 21261, Control_c, 0, 64, 34
2, 21280, Note_on_c, 0, 78, 0
2, 21309, Note_on_c, 0, 69, 0
2, 21386, Note_on_c, 0, 75, 83
2, 21387, Note_on_c, 0, 40, 54
2, 21433, Note_on_c, 0, 40, 0
2, 21442, Note_on_c, 0, 75, 0
2, 21536, Note_on_c, 0, 69, 76
2, 21538, Note_on_c, 0, 40, 59
2, 21538, Note_on_c, 0, 66, 70
2, 21589, Note_on_c, 0, 69, 0
2, 21688, Note_on_c, 0, 75, 80
2, 21755, Note_on_c, 0, 75, 0
2, 21763, Note_on_c, 0, 66, 0
2, 21857, Note_on_c, 0, 69, 73
2, 21903, Note_on_c, 0, 69, 0
2, 22016, Note_on_c, 0, 63, 62
2, 22026, Note_on_c, 0, 66, 67
2, 22063, Note_on_c, 0, 66, 0
2, 22072, Note_on_c, 0, 40, 0
2, 22181, Note_on_c, 0, 69, 72
2, 22244, Note_on_c, 0, 69, 0
2, 22319, Control_c, 0, 64, 34
2, 22342, Note_on_c, 0, 66, 69
2, 22365, Note_on_c, 0, 63, 0
2, 22387, Note_on_c, 0, 66, 0
2, 22508, Note_on_c, 0, 68, 75
2, 22515, Note_on_c, 0, 64, 61
2, 22547, Control_c, 0, 64, 35
2, 22592, Control_c, 0, 64, 35
2, 22607, Control_c, 0, 64, 36
2, 22622, Control_c, 0, 64, 37
2, 22638, Control_c, 0, 64, 38
2, 22653, Control_c, 0, 64, 38
2, 22668, Control_c, 0, 64, 39
2, 22671, Note_on_c, 0, 66, 74
2, 22683, Note_on_c, 0, 68, 0
2, 22717, Note_on_c, 0, 64, 0
2, 22732, Note_on_c, 0, 66, 0
2, 22830, Note_on_c, 0, 64, 75
2, 22836, Note_on_c, 0, 52, 69
2, 22836, Note_on_c, 0, 62, 70
2, 22867, Note_on_c, 0, 52, 0
2, 22870, Note_on_c, 0, 62, 0
2, 22872, Note_on_c, 0, 64, 0
2, 22964, Control_c, 0, 64, 38
2, 22979, Control_c, 0, 64, 35
2, 22995, Control_c, 0, 64, 34
2, 22997, Note_on_c, 0, 54, 72
2, 23004, Note_on_c, 0, 69, 91
2, 23010, Control_c, 0, 64, 35
2, 23016, Note_on_c, 0, 61, 77
2, 23026, Control_c, 0, 64, 44
2, 23041, Control_c, 0, 64, 57
2, 23056, Control_c, 0, 64, 65
2, 23061, Note_on_c, 0, 54, 0
2, 23072, Control_c, 0, 64, 74
2, 23087, Control_c, 0, 64, 96
2, 23093, Note_on_c, 0, 61, 0
2, 23101, Control_c, 0, 64, 127
2, 23109, Note_on_c, 0, 69, 0
2, 23162, Note_on_c, 0, 52, 78
2, 23163, Control_c, 0, 64, 99
2, 23178, Control_c, 0, 64, 76
2, 23193, Note_on_c, 0, 52, 0
2, 23194, Control_c, 0, 64, 64
2, 23209, Control_c, 0, 64, 44
2, 23223, Control_c, 0, 64, 0
2, 23313, Note_on_c, 0, 74, 88
2, 23320, Note_on_c, 0, 50, 63
2, 23331, Note_on_c, 0, 69, 63
2, 23354, Note_on_c, 0, 50, 0
2, 23370, Note_on_c, 0, 69, 0
2, 23373, Note_on_c, 0, 74, 0
2, 23524, Note_on_c, 0, 73, 98
2, 23527, Note_on_c, 0, 52, 67
2, 23527, Note_on_c, 0, 69, 83
2, 23541, Control_c, 0, 64, 32
2, 23565, Control_c, 0, 64, 55
2, 23580, Control_c, 0, 64, 65
2, 23595, Control_c, 0, 64, 76
2, 23609, Note_on_c, 0, 69, 0
2, 23610, Control_c, 0, 64, 127
2, 23628, Note_on_c, 0, 73, 0
2, 23839, Control_c, 0, 64, 100
2, 23853, Control_c, 0, 64, 78
2, 23869, Control_c, 0, 64, 65
2, 23884, Control_c, 0, 64, 51
2, 23899, Control_c, 0, 64, 32
2, 23915, Control_c, 0, 64, 29
2, 23946, Control_c, 0, 64, 30
2, 23961, Control_c, 0, 64, 31
2, 23976, Control_c, 0, 64, 32
2, 24065, Note_on_c, 0, 73, 83
2, 24073, Note_on_c, 0, 40, 69
2, 24076, Note_on_c, 0, 68, 75
2, 24098, Note_on_c, 0, 71, 67
2, 24101, Note_on_c, 0, 73, 0
2, 24143, Note_on_c, 0, 71, 0
2, 24146, Note_on_c, 0, 73, 73
2, 24176, Note_on_c, 0, 71, 65
2, 24180, Note_on_c, 0, 73, 0
2, 24236, Note_on_c, 0, 69, 77
2, 24239, Note_on_c, 0, 71, 0
2, 24258, Note_on_c, 0, 40, 0
2, 24279, Note_on_c, 0, 69, 0
2, 24402, Note_on_c, 0, 71, 84
2, 24439, Note_on_c, 0, 68, 0
2, 24459, Note_on_c, 0, 71, 0
2, 24559, Note_on_c, 0, 52, 0
2, 24576, Control_c, 0, 64, 31
2, 24597, Note_on_c, 0, 45, 80
2, 24607, Control_c, 0, 64, 36
2, 24615, Note_on_c, 0, 69, 59
2, 24622, Control_c, 0, 64, 53
2, 24637, Control_c, 0, 64, 64
2, 24649, Note_on_c, 0, 69, 0
2, 24652, Control_c, 0, 64, 75
2, 24668, Control_c, 0, 64, 127
2, 24727, Note_on_c, 0, 45, 0
2, 24745, Control_c, 0, 64, 83
2, 24760, Control_c, 0, 64, 67
2, 24775, Control_c, 0, 64, 47
2, 24783, Note_on_c, 0, 73, 66
2, 24790, Control_c, 0, 64, 21
2, 24805, Control_c, 0, 64, 16
2, 24827, Note_on_c, 0, 73, 0
2, 24851, Control_c, 0, 64, 17
2, 24859, Note_on_c, 0, 71, 71
2, 24866, Control_c, 0, 64, 18
2, 24896, Note_on_c, 0, 71, 0
2, 24932, Note_on_c, 0, 52, 74
2, 24941, Note_on_c, 0, 69, 59
2, 24942, Control_c, 0, 64, 19
2, 24958, Control_c, 0, 64, 20
2, 24964, Note_on_c, 0, 52, 0
2, 24988, Note_on_c, 0, 69, 0
2, 25016, Note_on_c, 0, 68, 53
2, 25052, Note_on_c, 0, 68, 0
2, 25082, Note_on_c, 0, 66, 65
2, 25105, Note_on_c, 0, 57, 70
2, 25121, Note_on_c, 0, 66, 0
2, 25147, Note_on_c, 0, 57, 0
2, 25153, Note_on_c, 0, 56, 80
2, 25202, Note_on_c, 0, 56, 0
2, 25206, Note_on_c, 0, 57, 77
2, 25239, Control_c, 0, 64, 21
2, 25278, Note_on_c, 0, 69, 67
2, 25343, Note_on_c, 0, 69, 0
2, 25349, Note_on_c, 0, 68, 67
2, 25429, Note_on_c, 0, 66, 69
2, 25432, Note_on_c, 0, 68, 0
2, 25468, Note_on_c, 0, 66, 0
2, 25498, Note_on_c, 0, 64, 68
2, 25575, Note_on_c, 0, 63, 82
2, 25579, Note_on_c, 0, 64, 0
2, 25615, Note_on_c, 0, 63, 0
2, 25700, Note_on_c, 0, 57, 0
2, 25739, Note_on_c, 0, 59, 68
2, 25742, Note_on_c, 0, 66, 82
2, 25777, Note_on_c, 0, 59, 0
2, 25801, Note_on_c, 0, 66, 0
2, 25810, Note_on_c, 0, 57, 77
2, 25896, Note_on_c, 0, 57, 0
2, 25897, Note_on_c, 0, 56, 75
2, 25908, Note_on_c, 0, 71, 94
2, 25963, Note_on_c, 0, 71, 0
2, 25966, Note_on_c, 0, 56, 0
2, 25975, Note_on_c, 0, 54, 72
2, 26053, Note_on_c, 0, 54, 0
2, 26076, Note_on_c, 0, 71, 97
2, 26080, Note_on_c, 0, 53, 76
2, 26106, Note_on_c, 0, 53, 0
2, 26244, Note_on_c, 0, 68, 75
2, 26250, Note_on_c, 0, 54, 70
2, 26288, Note_on_c, 0, 54, 0
2, 26296, Note_on_c, 0, 68, 0
2, 26323, Note_on_c, 0, 53, 69
2, 26329, Control_c, 0, 64, 22
2, 26390, Control_c, 0, 64, 23
2, 26399, Note_on_c, 0, 53, 0
2, 26400, Note_on_c, 0, 51, 69
2, 26413, Note_on_c, 0, 65, 66
2, 26420, Control_c, 0, 64, 24
2, 26470, Note_on_c, 0, 49, 72
2, 26473, Note_on_c, 0, 51, 0
2, 26480, Note_on_c, 0, 65, 0
2, 26495, Control_c, 0, 64, 24
2, 26544, Note_on_c, 0, 49, 0
2, 26563, Note_on_c, 0, 54, 86
2, 26569, Note_on_c, 0, 61, 79
2, 26613, Note_on_c, 0, 71, 0
2, 26626, Note_on_c, 0, 61, 0
2, 26735, Note_on_c, 0, 54, 0
2, 26760, Note_on_c, 0, 69, 72
2, 26816, Note_on_c, 0, 69, 0
2, 26835, Note_on_c, 0, 68, 72
2, 26900, Note_on_c, 0, 66, 67
2, 26901, Note_on_c, 0, 68, 0
2, 26911, Note_on_c, 0, 42, 64
2, 26935, Note_on_c, 0, 66, 0
2, 26939, Note_on_c, 0, 42, 0
2, 26970, Note_on_c, 0, 64, 67
2, 27020, Control_c, 0, 64, 25
2, 27024, Note_on_c, 0, 64, 0
2, 27049, Note_on_c, 0, 62, 62
2, 27075, Note_on_c, 0, 54, 63
2, 27080, Note_on_c, 0, 62, 0
2, 27081, Control_c, 0, 64, 26
2, 27095, Control_c, 0, 64, 26
2, 27098, Note_on_c, 0, 52, 73
2, 27108, Note_on_c, 0, 54, 0
2, 27111, Control_c, 0, 64, 28
2, 27126, Control_c, 0, 64, 28
2, 27143, Control_c, 0, 64, 29
2, 27156, Note_on_c, 0, 54, 82
2, 27158, Control_c, 0, 64, 30
2, 27161, Note_on_c, 0, 52, 0
2, 27172, Control_c, 0, 64, 30
2, 27188, Control_c, 0, 64, 31
2, 27224, Note_on_c, 0, 66, 76
2, 27248, Control_c, 0, 64, 31
2, 27279, Note_on_c, 0, 66, 0
2, 27302, Note_on_c, 0, 64, 76
2, 27354, Note_on_c, 0, 64, 0
2, 27372, Note_on_c, 0, 62, 70
2, 27458, Note_on_c, 0, 61, 77
2, 27460, Note_on_c, 0, 62, 0
2, 27536, Note_on_c, 0, 61, 0
2, 27539, Note_on_c, 0, 59, 83
2, 27580, Note_on_c, 0, 59, 0
2, 27686, Note_on_c, 0, 54, 0
2, 27702, Note_on_c, 0, 55, 74
2, 27711, Note_on_c, 0, 62, 80
2, 27752, Note_on_c, 0, 62, 0
2, 27780, Note_on_c, 0, 55, 0
2, 27797, Note_on_c, 0, 54, 75
2, 27858, Note_on_c, 0, 54, 0
2, 27873, Note_on_c, 0, 52, 77
2, 27874, Note_on_c, 0, 67, 87
2, 27922, Note_on_c, 0, 67, 0
2, 27947, Note_on_c, 0, 52, 0
2, 27956, Note_on_c, 0, 50, 68
2, 28021, Note_on_c, 0, 67, 95
2, 28040, Note_on_c, 0, 50, 0
2, 28051, Note_on_c, 0, 49, 50
2, 28082, Note_on_c, 0, 49, 0
2, 28212, Note_on_c, 0, 64, 75
2, 28225, Note_on_c, 0, 50, 79
2, 28273, Note_on_c, 0, 64, 0
2, 28286, Note_on_c, 0, 50, 0
2, 28307, Note_on_c, 0, 49, 70
2, 28373, Note_on_c, 0, 47, 73
2, 28373, Note_on_c, 0, 49, 0
2, 28387, Note_on_c, 0, 61, 68
2, 28422, Note_on_c, 0, 61, 0
2, 28447, Note_on_c, 0, 47, 0
2, 28451, Note_on_c, 0, 45, 66
2, 28527, Note_on_c, 0, 67, 0
2, 28544, Note_on_c, 0, 50, 87
2, 28548, Note_on_c, 0, 45, 0
2, 28556, Note_on_c, 0, 57, 75
2, 28608, Note_on_c, 0, 57, 0
2, 28692, Note_on_c, 0, 50, 0
2, 28713, Note_on_c, 0, 66, 70
2, 28773, Note_on_c, 0, 66, 0
2, 28797, Note_on_c, 0, 64, 71
2, 28842, Note_on_c, 0, 64, 0
2, 28877, Note_on_c, 0, 62, 65
2, 28879, Note_on_c, 0, 38, 66
2, 28907, Note_on_c, 0, 38, 0
2, 28929, Note_on_c, 0, 62, 0
2, 28963, Note_on_c, 0, 61, 67
2, 29000, Note_on_c, 0, 61, 0
2, 29048, Note_on_c, 0, 59, 68
2, 29061, Note_on_c, 0, 50, 62
2, 29076, Note_on_c, 0, 59, 0
2, 29105, Note_on_c, 0, 49, 73
2, 29106, Note_on_c, 0, 50, 0
2, 29141, Note_on_c, 0, 49, 0
2, 29153, Note_on_c, 0, 50, 69
2, 29233, Note_on_c, 0, 62, 73
2, 29310, Note_on_c, 0, 61, 72
2, 29310, Note_on_c, 0, 62, 0
2, 29393, Note_on_c, 0, 59, 75
2, 29399, Note_on_c, 0, 61, 0
2, 29433, Note_on_c, 0, 59, 0
2, 29461, Note_on_c, 0, 57, 78
2, 29543, Note_on_c, 0, 56, 86
2, 29548, Note_on_c, 0, 57, 0
2, 29598, Note_on_c, 0, 56, 0
2, 29693, Note_on_c, 0, 50, 0
2, 29716, Note_on_c, 0, 52, 68
2, 29722, Note_on_c, 0, 59, 83
2, 29757, Note_on_c, 0, 52, 0
2, 29778, Note_on_c, 0, 59, 0
2, 29796, Note_on_c, 0, 50, 77
2, 29871, Note_on_c, 0, 49, 73
2, 29875, Note_on_c, 0, 50, 0
2, 29887, Note_on_c, 0, 64, 87
2, 29934, Note_on_c, 0, 64, 0
2, 29941, Note_on_c, 0, 49, 0
2, 29950, Note_on_c, 0, 47, 68
2, 30025, Note_on_c, 0, 45, 73
2, 30030, Note_on_c, 0, 47, 0
2, 30048, Note_on_c, 0, 61, 94
2, 30080, Note_on_c, 0, 45, 0
2, 30097, Note_on_c, 0, 61, 0
2, 30204, Note_on_c, 0, 47, 72
2, 30216, Note_on_c, 0, 64, 87
2, 30272, Note_on_c, 0, 64, 0
2, 30280, Note_on_c, 0, 47, 0
2, 30285, Note_on_c, 0, 49, 78
2, 30342, Note_on_c, 0, 49, 0
2, 30357, Note_on_c, 0, 50, 80
2, 30378, Control_c, 0, 64, 32
2, 30381, Note_on_c, 0, 69, 95
2, 30394, Control_c, 0, 64, 32
2, 30409, Control_c, 0, 64, 34
2, 30411, Note_on_c, 0, 50, 0
2, 30425, Control_c, 0, 64, 35
2, 30440, Control_c, 0, 64, 36
2, 30453, Note_on_c, 0, 69, 0
2, 30455, Control_c, 0, 64, 37
2, 30456, Note_on_c, 0, 52, 74
2, 30478, Control_c, 0, 64, 38
2, 30493, Control_c, 0, 64, 40
2, 30509, Control_c, 0, 64, 40
2, 30524, Control_c, 0, 64, 41
2, 30555, Note_on_c, 0, 62, 94
2, 30556, Note_on_c, 0, 54, 92
2, 30563, Note_on_c, 0, 52, 0
2, 30595, Note_on_c, 0, 54, 0
2, 30726, Note_on_c, 0, 62, 0
2, 30732, Note_on_c, 0, 52, 84
2, 30764, Note_on_c, 0, 52, 0
2, 30895, Note_on_c, 0, 50, 79
2, 30902, Note_on_c, 0, 71, 92
2, 30907, Note_on_c, 0, 62, 78
2, 30922, Note_on_c, 0, 50, 0
2, 30934, Control_c, 0, 64, 40
2, 30949, Note_on_c, 0, 62, 0
2, 30964, Control_c, 0, 64, 40
2, 30995, Control_c, 0, 64, 39
2, 31035, Note_on_c, 0, 71, 0
2, 31040, Control_c, 0, 64, 39
2, 31069, Note_on_c, 0, 52, 78
2, 31078, Note_on_c, 0, 64, 85
2, 31080, Note_on_c, 0, 61, 91
2, 31176, Control_c, 0, 64, 38
2, 31192, Control_c, 0, 64, 38
2, 31254, Note_on_c, 0, 52, 0
2, 31254, Note_on_c, 0, 64, 0
2, 31254, Note_on_c, 0, 69, 94
2, 31263, Note_on_c, 0, 61, 0
2, 31277, Control_c, 0, 64, 37
2, 31313, Note_on_c, 0, 69, 0
2, 31337, Control_c, 0, 64, 37
2, 31423, Note_on_c, 0, 40, 65
2, 31429, Note_on_c, 0, 68, 88
2, 31435, Note_on_c, 0, 59, 69
2, 31470, Note_on_c, 0, 40, 0
2, 31471, Note_on_c, 0, 59, 0
2, 31493, Note_on_c, 0, 68, 0
2, 31598, Note_on_c, 0, 45, 74
2, 31600, Note_on_c, 0, 69, 96
2, 31610, Note_on_c, 0, 61, 80
2, 31641, Note_on_c, 0, 45, 0
2, 31769, Note_on_c, 0, 49, 86
2, 31819, Note_on_c, 0, 49, 0
2, 31962, Note_on_c, 0, 52, 88
2, 31999, Note_on_c, 0, 52, 0
2, 32135, Control_c, 0, 64, 37
2, 32209, Note_on_c, 0, 57, 91
2, 32287, Control_c, 0, 64, 38
2, 32317, Control_c, 0, 64, 40
2, 32332, Control_c, 0, 64, 43
2, 32348, Control_c, 0, 64, 46
2, 32363, Control_c, 0, 64, 50
2, 32377, Control_c, 0, 64, 57
2, 32393, Control_c, 0, 64, 62
2, 32408, Control_c, 0, 64, 67
2, 32415, Note_on_c, 0, 57, 0
2, 32423, Control_c, 0, 64, 72
2, 32439, Control_c, 0, 64, 81
2, 32454, Control_c, 0, 64, 95
2, 32470, Control_c, 0, 64, 127
2, 32543, Note_on_c, 0, 61, 0
2, 32569, Note_on_c, 0, 69, 0
2, 32667, Control_c, 0, 64, 110
2, 32682, Control_c, 0, 64, 98
2, 32696, Control_c, 0, 64, 90
2, 32712, Control_c, 0, 64, 83
2, 32727, Control_c, 0, 64, 76
2, 32740, Note_on_c, 0, 57, 92
2, 32741, Note_on_c, 0, 45, 82
2, 32742, Control_c, 0, 64, 70
2, 32758, Control_c, 0, 64, 65
2, 32780, Control_c, 0, 64, 59
2, 32796, Control_c, 0, 64, 52
2, 32811, Control_c, 0, 64, 50
2, 32827, Control_c, 0, 64, 49
2, 32903, Control_c, 0, 64, 49
2, 32934, Control_c, 0, 64, 48
2, 32950, Control_c, 0, 64, 48
2, 32953, Note_on_c, 0, 76, 99
2, 33035, Note_on_c, 0, 74, 79
2, 33087, Note_on_c, 0, 76, 0
2, 33114, Note_on_c, 0, 73, 83
2, 33148, Note_on_c, 0, 74, 0
2, 33157, Note_on_c, 0, 57, 0
2, 33193, Note_on_c, 0, 71, 87
2, 33215, Note_on_c, 0, 73, 0
2, 33221, Control_c, 0, 64, 48
2, 33261, Note_on_c, 0, 45, 0
2, 33270, Note_on_c, 0, 71, 0
2, 33272, Note_on_c, 0, 69, 83
2, 33298, Control_c, 0, 64, 49
2, 33315, Note_on_c, 0, 69, 0
2, 33439, Note_on_c, 0, 73, 80
2, 33488, Note_on_c, 0, 73, 0
2, 33600, Note_on_c, 0, 69, 76
2, 33628, Note_on_c, 0, 69, 0
2, 33762, Note_on_c, 0, 64, 67
2, 33793, Note_on_c, 0, 64, 0
2, 33916, Note_on_c, 0, 69, 71
2, 33963, Note_on_c, 0, 69, 0
2, 34092, Note_on_c, 0, 64, 67
2, 34122, Note_on_c, 0, 64, 0
2, 34250, Note_on_c, 0, 61, 64
2, 34281, Note_on_c, 0, 61, 0
2, 34428, Note_on_c, 0, 64, 63
2, 34458, Note_on_c, 0, 64, 0
2, 34598, Note_on_c, 0, 61, 60
2, 34630, Note_on_c, 0, 61, 0
2, 34771, Note_on_c, 0, 57, 63
2, 34949, Note_on_c, 0, 69, 67
2, 34993, Note_on_c, 0, 57, 0
2, 34996, Note_on_c, 0, 69, 0
2, 35019, Note_on_c, 0, 71, 69
2, 35084, Note_on_c, 0, 71, 0
2, 35097, Note_on_c, 0, 73, 69
2, 35195, Note_on_c, 0, 73, 0
2, 35199, Note_on_c, 0, 74, 54
2, 35256, Note_on_c, 0, 76, 76
2, 35263, Note_on_c, 0, 74, 0
2, 35279, Note_on_c, 0, 57, 60
2, 35282, Note_on_c, 0, 69, 77
2, 35291, Note_on_c, 0, 61, 58
2, 35297, Note_on_c, 0, 76, 0
2, 35459, Note_on_c, 0, 73, 68
2, 35489, Note_on_c, 0, 73, 0
2, 35491, Note_on_c, 0, 69, 0
2, 35506, Note_on_c, 0, 57, 0
2, 35527, Note_on_c, 0, 61, 0
2, 35614, Note_on_c, 0, 76, 75
2, 35648, Note_on_c, 0, 76, 0
2, 35790, Note_on_c, 0, 57, 55
2, 35791, Note_on_c, 0, 61, 52
2, 35791, Note_on_c, 0, 69, 58
2, 35798, Note_on_c, 0, 81, 56
2, 35859, Note_on_c, 0, 81, 0
2, 35883, Control_c, 0, 64, 50
2, 35890, Note_on_c, 0, 61, 0
2, 35892, Note_on_c, 0, 76, 52
2, 35898, Control_c, 0, 64, 52
2, 35914, Control_c, 0, 64, 55
2, 35916, Note_on_c, 0, 69, 0
2, 35929, Control_c, 0, 64, 58
2, 35944, Control_c, 0, 64, 62
2, 35954, Note_on_c, 0, 76, 0
2, 35959, Control_c, 0, 64, 65
2, 35961, Note_on_c, 0, 78, 70
2, 35974, Control_c, 0, 64, 66
2, 35990, Control_c, 0, 64, 68
2, 36004, Control_c, 0, 64, 69
2, 36035, Control_c, 0, 64, 68
2, 36039, Note_on_c, 0, 78, 0
2, 36050, Control_c, 0, 64, 66
2, 36050, Note_on_c, 0, 71, 76
2, 36054, Note_on_c, 0, 62, 61
2, 36054, Note_on_c, 0, 80, 80
2, 36066, Control_c, 0, 64, 62
2, 36080, Control_c, 0, 64, 57
2, 36095, Control_c, 0, 64, 54
2, 36111, Control_c, 0, 64, 54
2, 36141, Control_c, 0, 64, 56
2, 36148, Note_on_c, 0, 81, 82
2, 36158, Control_c, 0, 64, 59
2, 36159, Note_on_c, 0, 62, 0
2, 36164, Note_on_c, 0, 80, 0
2, 36173, Control_c, 0, 64, 64
2, 36188, Control_c, 0, 64, 69
2, 36203, Control_c, 0, 64, 77
2, 36210, Note_on_c, 0, 71, 0
2, 36218, Control_c, 0, 64, 89
2, 36234, Control_c, 0, 64, 127
2, 36242, Note_on_c, 0, 80, 89
2, 36251, Note_on_c, 0, 81, 0
2, 36294, Control_c, 0, 64, 105
2, 36310, Control_c, 0, 64, 76
2, 36313, Note_on_c, 0, 71, 88
2, 36323, Note_on_c, 0, 62, 63
2, 36325, Control_c, 0, 64, 59
2, 36325, Note_on_c, 0, 81, 83
2, 36340, Control_c, 0, 64, 47
2, 36343, Note_on_c, 0, 80, 0
2, 36355, Control_c, 0, 64, 48
2, 36370, Control_c, 0, 64, 54
2, 36382, Note_on_c, 0, 57, 0
2, 36386, Control_c, 0, 64, 61
2, 36388, Note_on_c, 0, 62, 0
2, 36401, Control_c, 0, 64, 67
2, 36416, Control_c, 0, 64, 76
2, 36416, Note_on_c, 0, 81, 0
2, 36417, Note_on_c, 0, 76, 79
2, 36432, Control_c, 0, 64, 90
2, 36437, Note_on_c, 0, 71, 0
2, 36446, Control_c, 0, 64, 127
2, 36496, Note_on_c, 0, 78, 84
2, 36502, Note_on_c, 0, 76, 0
2, 36522, Control_c, 0, 64, 100
2, 36537, Control_c, 0, 64, 77
2, 36553, Control_c, 0, 64, 63
2, 36568, Control_c, 0, 64, 45
2, 36577, Note_on_c, 0, 73, 83
2, 36583, Control_c, 0, 64, 21
2, 36584, Note_on_c, 0, 80, 84
2, 36591, Note_on_c, 0, 64, 64
2, 36592, Note_on_c, 0, 78, 0
2, 36621, Control_c, 0, 64, 42
2, 36637, Control_c, 0, 64, 59
2, 36650, Note_on_c, 0, 73, 0
2, 36651, Control_c, 0, 64, 66
2, 36667, Control_c, 0, 64, 72
2, 36670, Note_on_c, 0, 64, 0
2, 36682, Control_c, 0, 64, 78
2, 36691, Note_on_c, 0, 81, 78
2, 36696, Note_on_c, 0, 80, 0
2, 36697, Control_c, 0, 64, 81
2, 36713, Control_c, 0, 64, 74
2, 36727, Control_c, 0, 64, 69
2, 36742, Control_c, 0, 64, 67
2, 36758, Control_c, 0, 64, 69
2, 36773, Control_c, 0, 64, 72
2, 36780, Note_on_c, 0, 80, 87
2, 36787, Note_on_c, 0, 81, 0
2, 36789, Control_c, 0, 64, 77
2, 36803, Control_c, 0, 64, 87
2, 36818, Control_c, 0, 64, 98
2, 36834, Control_c, 0, 64, 103
2, 36839, Note_on_c, 0, 73, 81
2, 36841, Note_on_c, 0, 64, 63
2, 36851, Note_on_c, 0, 80, 0
2, 36868, Note_on_c, 0, 73, 0
2, 36869, Note_on_c, 0, 81, 88
2, 36894, Control_c, 0, 64, 100
2, 36899, Note_on_c, 0, 64, 0
2, 36910, Control_c, 0, 64, 91
2, 36920, Note_on_c, 0, 81, 0
2, 36924, Control_c, 0, 64, 80
2, 36939, Control_c, 0, 64, 70
2, 36955, Control_c, 0, 64, 65
2, 36971, Control_c, 0, 64, 64
2, 36987, Control_c, 0, 64, 63
2, 37017, Control_c, 0, 64, 63
2, 37032, Control_c, 0, 64, 62
2, 37047, Control_c, 0, 64, 60
2, 37062, Control_c, 0, 64, 57
2, 37077, Control_c, 0, 64, 54
2, 37081, Note_on_c, 0, 80, 76
2, 37092, Control_c, 0, 64, 49
2, 37092, Note_on_c, 0, 64, 71
2, 37108, Control_c, 0, 64, 46
2, 37123, Control_c, 0, 64, 44
2, 37138, Control_c, 0, 64, 41
2, 37153, Control_c, 0, 64, 38
2, 37168, Control_c, 0, 64, 36
2, 37168, Note_on_c, 0, 80, 0
2, 37171, Note_on_c, 0, 64, 0
2, 37171, Note_on_c, 0, 78, 74
2, 37182, Note_on_c, 0, 62, 68
2, 37183, Control_c, 0, 64, 34
2, 37199, Control_c, 0, 64, 33
2, 37214, Control_c, 0, 64, 33
2, 37247, Note_on_c, 0, 76, 71
2, 37249, Note_on_c, 0, 78, 0
2, 37250, Note_on_c, 0, 62, 0
2, 37251, Note_on_c, 0, 61, 69
2, 37288, Note_on_c, 0, 76, 0
2, 37315, Note_on_c, 0, 74, 74
2, 37324, Note_on_c, 0, 61, 0
2, 37339, Note_on_c, 0, 59, 68
2, 37389, Note_on_c, 0, 74, 0
2, 37412, Note_on_c, 0, 73, 73
2, 37413, Note_on_c, 0, 57, 67
2, 37419, Note_on_c, 0, 59, 0
2, 37435, Control_c, 0, 64, 32
2, 37446, Note_on_c, 0, 57, 0
2, 37477, Note_on_c, 0, 73, 0
2, 37494, Note_on_c, 0, 74, 77
2, 37569, Note_on_c, 0, 61, 84
2, 37580, Note_on_c, 0, 74, 0
2, 37591, Note_on_c, 0, 76, 78
2, 37601, Note_on_c, 0, 61, 0
2, 37682, Note_on_c, 0, 74, 68
2, 37682, Note_on_c, 0, 76, 0
2, 37737, Note_on_c, 0, 57, 85
2, 37749, Note_on_c, 0, 74, 0
2, 37756, Note_on_c, 0, 73, 69
2, 37764, Note_on_c, 0, 57, 0
2, 37828, Note_on_c, 0, 73, 0
2, 37835, Note_on_c, 0, 71, 68
2, 37868, Note_on_c, 0, 71, 0
2, 37902, Note_on_c, 0, 52, 74
2, 37909, Note_on_c, 0, 69, 67
2, 37931, Note_on_c, 0, 52, 0
2, 37946, Note_on_c, 0, 69, 0
2, 37970, Note_on_c, 0, 71, 76
2, 38007, Note_on_c, 0, 71, 0
2, 38030, Note_on_c, 0, 69, 73
2, 38068, Note_on_c, 0, 57, 76
2, 38069, Note_on_c, 0, 69, 0
2, 38071, Note_on_c, 0, 71, 73
2, 38095, Note_on_c, 0, 57, 0
2, 38104, Note_on_c, 0, 71, 0
2, 38124, Note_on_c, 0, 69, 68
2, 38178, Note_on_c, 0, 71, 73
2, 38180, Note_on_c, 0, 69, 0
2, 38215, Note_on_c, 0, 71, 0
2, 38236, Note_on_c, 0, 69, 71
2, 38247, Note_on_c, 0, 52, 75
2, 38276, Note_on_c, 0, 52, 0
2, 38280, Note_on_c, 0, 71, 67
2, 38283, Note_on_c, 0, 69, 0
2, 38316, Note_on_c, 0, 71, 0
2, 38337, Note_on_c, 0, 69, 70
2, 38386, Note_on_c, 0, 71, 69
2, 38390, Note_on_c, 0, 69, 0
2, 38399, Note_on_c, 0, 49, 83
2, 38430, Note_on_c, 0, 71, 0
2, 38440, Note_on_c, 0, 49, 0
2, 38451, Note_on_c, 0, 69, 70
2, 38498, Note_on_c, 0, 71, 68
2, 38502, Note_on_c, 0, 69, 0
2, 38544, Note_on_c, 0, 71, 0
2, 38557, Note_on_c, 0, 52, 79
2, 38562, Note_on_c, 0, 69, 67
2, 38586, Note_on_c, 0, 52, 0
2, 38608, Note_on_c, 0, 71, 65
2, 38609, Note_on_c, 0, 69, 0
2, 38662, Note_on_c, 0, 71, 0
2, 38682, Note_on_c, 0, 69, 70
2, 38716, Note_on_c, 0, 49, 72
2, 38719, Note_on_c, 0, 69, 0
2, 38721, Note_on_c, 0, 71, 60
2, 38749, Note_on_c, 0, 49, 0
2, 38774, Note_on_c, 0, 71, 0
2, 38803, Note_on_c, 0, 69, 68
2, 38881, Note_on_c, 0, 45, 72
2, 38954, Note_on_c, 0, 69, 0
2, 38967, Note_on_c, 0, 71, 68
2, 39021, Note_on_c, 0, 71, 0
2, 39067, Note_on_c, 0, 69, 65
2, 39076, Control_c, 0, 64, 33
2, 39085, Note_on_c, 0, 45, 0
2, 39107, Note_on_c, 0, 69, 0
2, 39158, Note_on_c, 0, 68, 53
2, 39198, Note_on_c, 0, 68, 0
2, 39228, Note_on_c, 0, 69, 71
2, 39266, Note_on_c, 0, 69, 0
2, 39308, Note_on_c, 0, 64, 52
2, 39319, Control_c, 0, 64, 33
2, 39358, Note_on_c, 0, 64, 0
2, 39363, Note_on_c, 0, 45, 50
2, 39367, Note_on_c, 0, 49, 47
2, 39373, Note_on_c, 0, 52, 41
2, 39388, Note_on_c, 0, 61, 59
2, 39436, Note_on_c, 0, 61, 0
2, 39475, Note_on_c, 0, 66, 64
2, 39503, Control_c, 0, 64, 34
2, 39539, Note_on_c, 0, 52, 0
2, 39539, Note_on_c, 0, 66, 0
2, 39560, Note_on_c, 0, 64, 51
2, 39577, Note_on_c, 0, 45, 0
2, 39598, Note_on_c, 0, 49, 0
2, 39598, Note_on_c, 0, 64, 0
2, 39642, Note_on_c, 0, 62, 51
2, 39667, Note_on_c, 0, 62, 0
2, 39724, Note_on_c, 0, 64, 51
2, 39772, Note_on_c, 0, 64, 0
2, 39811, Note_on_c, 0, 61, 25
2, 39850, Note_on_c, 0, 61, 0
2, 39882, Note_on_c, 0, 45, 45
2, 39885, Note_on_c, 0, 52, 46
2, 39888, Note_on_c, 0, 59, 68
2, 39889, Note_on_c, 0, 49, 55
2, 39925, Note_on_c, 0, 59, 0
2, 39943, Note_on_c, 0, 57, 60
2, 40007, Note_on_c, 0, 49, 0
2, 40009, Note_on_c, 0, 52, 0
2, 40009, Note_on_c, 0, 57, 0
2, 40016, Note_on_c, 0, 59, 55
2, 40049, Note_on_c, 0, 59, 0
2, 40060, Note_on_c, 0, 57, 57
2, 40113, Note_on_c, 0, 57, 0
2, 40131, Note_on_c, 0, 59, 57
2, 40164, Note_on_c, 0, 47, 58
2, 40164, Note_on_c, 0, 59, 0
2, 40168, Note_on_c, 0, 50, 57
2, 40171, Note_on_c, 0, 57, 63
2, 40207, Note_on_c, 0, 50, 0
2, 40217, Note_on_c, 0, 47, 0
2, 40222, Note_on_c, 0, 57, 0
2, 40238, Note_on_c, 0, 59, 63
2, 40273, Note_on_c, 0, 59, 0
2, 40280, Note_on_c, 0, 57, 67
2, 40332, Note_on_c, 0, 57, 0
2, 40346, Note_on_c, 0, 59, 66
2, 40363, Control_c, 0, 64, 34
2, 40382, Note_on_c, 0, 59, 0
2, 40389, Note_on_c, 0, 57, 71
2, 40413, Note_on_c, 0, 50, 63
2, 40414, Note_on_c, 0, 47, 64
2, 40445, Note_on_c, 0, 57, 0
2, 40464, Note_on_c, 0, 59, 65
2, 40507, Note_on_c, 0, 59, 0
2, 40515, Note_on_c, 0, 57, 63
2, 40568, Note_on_c, 0, 57, 0
2, 40573, Note_on_c, 0, 59, 61
2, 40591, Note_on_c, 0, 45, 0
2, 40616, Note_on_c, 0, 59, 0
2, 40629, Note_on_c, 0, 57, 53
2, 40668, Note_on_c, 0, 47, 0
2, 40674, Note_on_c, 0, 57, 0
2, 40675, Note_on_c, 0, 59, 64
2, 40678, Note_on_c, 0, 50, 0
2, 40686, Note_on_c, 0, 49, 64
2, 40688, Note_on_c, 0, 52, 63
2, 40722, Note_on_c, 0, 52, 0
2, 40733, Note_on_c, 0, 49, 0
2, 40741, Note_on_c, 0, 59, 0
2, 40758, Note_on_c, 0, 57, 65
2, 40941, Note_on_c, 0, 57, 0
2, 40963, Note_on_c, 0, 52, 55
2, 40966, Note_on_c, 0, 49, 61
2, 41134, Note_on_c, 0, 52, 0
2, 41172, Note_on_c, 0, 49, 0
2, 41211, Note_on_c, 0, 57, 65
2, 41252, Note_on_c, 0, 57, 0
2, 41286, Note_on_c, 0, 59, 63
2, 41353, Note_on_c, 0, 59, 0
2, 41362, Note_on_c, 0, 61, 61
2, 41397, Control_c, 0, 64, 35
2, 41412, Control_c, 0, 64, 36
2, 41422, Note_on_c, 0, 61, 0
2, 41428, Control_c, 0, 64, 37
2, 41442, Control_c, 0, 64, 38
2, 41443, Note_on_c, 0, 62, 62
2, 41457, Control_c, 0, 64, 39
2, 41518, Control_c, 0, 64, 39
2, 41522, Note_on_c, 0, 62, 0
2, 41531, Note_on_c, 0, 64, 63
2, 41564, Note_on_c, 0, 64, 0
2, 41702, Note_on_c, 0, 61, 67
2, 41732, Note_on_c, 0, 61, 0
2, 41862, Note_on_c, 0, 57, 64
2, 41868, Control_c, 0, 64, 39
2, 41872, Note_on_c, 0, 64, 62
2, 41883, Control_c, 0, 64, 36
2, 41898, Control_c, 0, 64, 34
2, 41902, Note_on_c, 0, 57, 0
2, 41904, Note_on_c, 0, 64, 0
2, 41914, Control_c, 0, 64, 32
2, 41929, Control_c, 0, 64, 29
2, 41944, Control_c, 0, 64, 28
2, 41959, Control_c, 0, 64, 26
2, 41974, Control_c, 0, 64, 22
2, 41998, Control_c, 0, 64, 15
2, 42013, Control_c, 0, 64, 0
2, 42050, Note_on_c, 0, 59, 63
2, 42057, Note_on_c, 0, 67, 56
2, 42079, Note_on_c, 0, 67, 0
2, 42082, Note_on_c, 0, 59, 0
2, 42222, Note_on_c, 0, 76, 94
2, 42237, Note_on_c, 0, 61, 67
2, 42286, Note_on_c, 0, 61, 0
2, 42306, Note_on_c, 0, 74, 84
2, 42314, Note_on_c, 0, 59, 65
2, 42347, Note_on_c, 0, 76, 0
2, 42357, Note_on_c, 0, 59, 0
2, 42369, Note_on_c, 0, 57, 66
2, 42382, Note_on_c, 0, 73, 88
2, 42415, Note_on_c, 0, 74, 0
2, 42452, Note_on_c, 0, 57, 0
2, 42453, Note_on_c, 0, 71, 89
2, 42460, Note_on_c, 0, 59, 68
2, 42485, Note_on_c, 0, 73, 0
2, 42521, Note_on_c, 0, 59, 0
2, 42531, Note_on_c, 0, 69, 91
2, 42533, Note_on_c, 0, 71, 0
2, 42536, Note_on_c, 0, 61, 73
2, 42562, Note_on_c, 0, 61, 0
2, 42581, Note_on_c, 0, 69, 0
2, 42703, Note_on_c, 0, 76, 87
2, 42709, Note_on_c, 0, 62, 67
2, 42754, Note_on_c, 0, 76, 0
2, 42789, Note_on_c, 0, 62, 0
2, 42816, Note_on_c, 0, 61, 35
2, 42861, Note_on_c, 0, 61, 0
2, 42874, Note_on_c, 0, 59, 59
2, 42883, Note_on_c, 0, 67, 77
2, 42919, Note_on_c, 0, 67, 0
2, 42931, Note_on_c, 0, 59, 0
2, 42950, Note_on_c, 0, 61, 66
2, 43015, Note_on_c, 0, 61, 0
2, 43036, Note_on_c, 0, 62, 73
2, 43047, Note_on_c, 0, 66, 82
2, 43062, Note_on_c, 0, 62, 0
2, 43078, Note_on_c, 0, 66, 0
2, 43250, Note_on_c, 0, 62, 58
2, 43290, Note_on_c, 0, 62, 0
2, 43320, Note_on_c, 0, 64, 63
2, 43375, Note_on_c, 0, 64, 0
2, 43399, Note_on_c, 0, 66, 59
2, 43439, Note_on_c, 0, 66, 0
2, 43470, Note_on_c, 0, 67, 65
2, 43559, Note_on_c, 0, 67, 0
2, 43567, Note_on_c, 0, 69, 73
2, 43598, Note_on_c, 0, 69, 0
2, 43758, Note_on_c, 0, 66, 59
2, 43782, Note_on_c, 0, 66, 0
2, 43912, Note_on_c, 0, 50, 58
2, 43913, Note_on_c, 0, 69, 74
2, 43950, Note_on_c, 0, 69, 0
2, 43953, Note_on_c, 0, 50, 0
2, 44092, Note_on_c, 0, 52, 63
2, 44095, Note_on_c, 0, 72, 69
2, 44124, Note_on_c, 0, 52, 0
2, 44124, Note_on_c, 0, 72, 0
2, 44274, Note_on_c, 0, 81, 91
2, 44276, Note_on_c, 0, 54, 76
2, 44349, Note_on_c, 0, 54, 0
2, 44360, Note_on_c, 0, 52, 73
2, 44370, Note_on_c, 0, 79, 86
2, 44413, Note_on_c, 0, 81, 0
2, 44419, Note_on_c, 0, 52, 0
2, 44421, Note_on_c, 0, 50, 65
2, 44450, Note_on_c, 0, 78, 90
2, 44482, Note_on_c, 0, 79, 0
2, 44511, Note_on_c, 0, 52, 76
2, 44516, Note_on_c, 0, 50, 0
2, 44522, Note_on_c, 0, 76, 90
2, 44570, Note_on_c, 0, 78, 0
2, 44592, Note_on_c, 0, 54, 84
2, 44601, Note_on_c, 0, 74, 92
2, 44604, Note_on_c, 0, 52, 0
2, 44607, Note_on_c, 0, 76, 0
2, 44646, Note_on_c, 0, 54, 0
2, 44653, Note_on_c, 0, 74, 0
2, 44771, Note_on_c, 0, 81, 81
2, 44793, Note_on_c, 0, 55, 68
2, 44824, Note_on_c, 0, 81, 0
2, 44863, Note_on_c, 0, 54, 70
2, 44869, Note_on_c, 0, 55, 0
2, 44953, Note_on_c, 0, 72, 60
2, 44964, Note_on_c, 0, 52, 71
2, 44971, Note_on_c, 0, 54, 0
2, 44983, Note_on_c, 0, 72, 0
2, 45041, Note_on_c, 0, 52, 0
2, 45064, Note_on_c, 0, 55, 65
2, 45088, Note_on_c, 0, 71, 86
2, 45110, Note_on_c, 0, 55, 0
2, 45142, Control_c, 0, 64, 8
2, 45158, Control_c, 0, 64, 10
2, 45174, Control_c, 0, 64, 15
2, 45190, Control_c, 0, 64, 17
2, 45205, Control_c, 0, 64, 19
2, 45220, Control_c, 0, 64, 21
2, 45250, Control_c, 0, 64, 22
2, 45272, Note_on_c, 0, 59, 76
2, 45296, Control_c, 0, 64, 23
2, 45331, Note_on_c, 0, 59, 0
2, 45338, Note_on_c, 0, 57, 64
2, 45392, Note_on_c, 0, 71, 0
2, 45396, Note_on_c, 0, 55, 67
2, 45406, Note_on_c, 0, 57, 0
2, 45417, Note_on_c, 0, 69, 72
2, 45490, Note_on_c, 0, 54, 55
2, 45493, Note_on_c, 0, 55, 0
2, 45536, Note_on_c, 0, 69, 0
2, 45564, Note_on_c, 0, 52, 61
2, 45569, Note_on_c, 0, 67, 60
2, 45570, Note_on_c, 0, 54, 0
2, 45592, Note_on_c, 0, 52, 0
2, 45607, Note_on_c, 0, 67, 0
2, 45635, Note_on_c, 0, 69, 70
2, 45674, Note_on_c, 0, 69, 0
2, 45689, Note_on_c, 0, 67, 66
2, 45754, Note_on_c, 0, 55, 56
2, 45800, Note_on_c, 0, 54, 64
2, 45804, Note_on_c, 0, 55, 0
2, 45854, Note_on_c, 0, 67, 0
2, 45884, Note_on_c, 0, 52, 63
2, 45885, Note_on_c, 0, 54, 0
2, 45891, Note_on_c, 0, 66, 63
2, 45961, Note_on_c, 0, 52, 0
2, 45967, Note_on_c, 0, 50, 55
2, 46023, Note_on_c, 0, 66, 0
2, 46048, Note_on_c, 0, 49, 56
2, 46053, Note_on_c, 0, 50, 0
2, 46071, Note_on_c, 0, 64, 62
2, 46084, Note_on_c, 0, 49, 0
2, 46223, Note_on_c, 0, 52, 61
2, 46239, Note_on_c, 0, 73, 59
2, 46263, Note_on_c, 0, 52, 0
2, 46308, Note_on_c, 0, 73, 0
2, 46331, Note_on_c, 0, 71, 51
2, 46383, Note_on_c, 0, 71, 0
2, 46393, Note_on_c, 0, 49, 59
2, 46402, Note_on_c, 0, 70, 60
2, 46432, Note_on_c, 0, 49, 0
2, 46450, Note_on_c, 0, 70, 0
2, 46490, Note_on_c, 0, 71, 64
2, 46548, Note_on_c, 0, 46, 52
2, 46576, Note_on_c, 0, 71, 0
2, 46577, Note_on_c, 0, 73, 78
2, 46586, Note_on_c, 0, 46, 0
2, 46723, Note_on_c, 0, 49, 63
2, 46759, Note_on_c, 0, 49, 0
2, 46892, Note_on_c, 0, 64, 0
2, 46897, Note_on_c, 0, 73, 0
2, 46907, Note_on_c, 0, 46, 65
2, 46918, Note_on_c, 0, 67, 72
2, 46942, Note_on_c, 0, 46, 0
2, 47030, Control_c, 0, 64, 24
2, 47045, Control_c, 0, 64, 25
2, 47053, Note_on_c, 0, 67, 0
2, 47059, Control_c, 0, 64, 26
2, 47076, Control_c, 0, 64, 28
2, 47089, Note_on_c, 0, 50, 72
2, 47091, Control_c, 0, 64, 29
2, 47094, Note_on_c, 0, 66, 78
2, 47107, Control_c, 0, 64, 30
2, 47122, Control_c, 0, 64, 31
2, 47123, Note_on_c, 0, 50, 0
2, 47136, Control_c, 0, 64, 31
2, 47182, Control_c, 0, 64, 32
2, 47254, Note_on_c, 0, 74, 79
2, 47269, Note_on_c, 0, 54, 62
2, 47300, Note_on_c, 0, 54, 0
2, 47346, Note_on_c, 0, 73, 77
2, 47347, Note_on_c, 0, 74, 0
2, 47423, Note_on_c, 0, 50, 63
2, 47427, Note_on_c, 0, 71, 74
2, 47436, Note_on_c, 0, 73, 0
2, 47468, Note_on_c, 0, 50, 0
2, 47514, Note_on_c, 0, 73, 75
2, 47555, Note_on_c, 0, 71, 0
2, 47581, Note_on_c, 0, 47, 54
2, 47591, Note_on_c, 0, 74, 90
2, 47619, Note_on_c, 0, 47, 0
2, 47622, Note_on_c, 0, 73, 0
2, 47762, Note_on_c, 0, 50, 67
2, 47802, Note_on_c, 0, 50, 0
2, 47851, Note_on_c, 0, 66, 0
2, 47921, Note_on_c, 0, 47, 68
2, 47937, Note_on_c, 0, 69, 92
2, 47939, Note_on_c, 0, 74, 0
2, 47962, Note_on_c, 0, 47, 0
2, 48088, Note_on_c, 0, 69, 0
2, 48097, Note_on_c, 0, 52, 77
2, 48111, Note_on_c, 0, 67, 94
2, 48129, Note_on_c, 0, 52, 0
2, 48156, Control_c, 0, 64, 32
2, 48171, Control_c, 0, 64, 33
2, 48187, Control_c, 0, 64, 33
2, 48216, Control_c, 0, 64, 34
2, 48273, Note_on_c, 0, 76, 91
2, 48279, Note_on_c, 0, 55, 78
2, 48314, Note_on_c, 0, 55, 0
2, 48368, Note_on_c, 0, 74, 82
2, 48398, Note_on_c, 0, 76, 0
2, 48435, Note_on_c, 0, 52, 70
2, 48450, Note_on_c, 0, 73, 88
2, 48466, Note_on_c, 0, 74, 0
2, 48470, Note_on_c, 0, 52, 0
2, 48506, Control_c, 0, 64, 33
2, 48532, Note_on_c, 0, 74, 83
2, 48538, Note_on_c, 0, 73, 0
2, 48604, Note_on_c, 0, 49, 73
2, 48617, Note_on_c, 0, 76, 106
2, 48641, Note_on_c, 0, 74, 0
2, 48646, Note_on_c, 0, 49, 0
2, 48658, Control_c, 0, 64, 33
2, 48703, Control_c, 0, 64, 30
2, 48719, Control_c, 0, 64, 24
2, 48734, Control_c, 0, 64, 10
2, 48749, Control_c, 0, 64, 0
2, 48759, Note_on_c, 0, 52, 78
2, 48794, Note_on_c, 0, 52, 0
2, 48930, Note_on_c, 0, 76, 0
2, 48936, Note_on_c, 0, 49, 76
2, 48943, Note_on_c, 0, 71, 86
2, 48958, Note_on_c, 0, 67, 0
2, 48971, Note_on_c, 0, 49, 0
2, 49077, Note_on_c, 0, 71, 0
2, 49110, Note_on_c, 0, 54, 90
2, 49113, Note_on_c, 0, 70, 99
2, 49121, Control_c, 0, 64, 25
2, 49136, Control_c, 0, 64, 59
2, 49136, Note_on_c, 0, 80, 55
2, 49152, Control_c, 0, 64, 70
2, 49156, Note_on_c, 0, 80, 0
2, 49166, Control_c, 0, 64, 93
2, 49173, Note_on_c, 0, 70, 0
2, 49181, Control_c, 0, 64, 127
2, 49273, Note_on_c, 0, 54, 0
2, 49297, Note_on_c, 0, 79, 99
2, 49334, Control_c, 0, 64, 88
2, 49350, Control_c, 0, 64, 70
2, 49365, Control_c, 0, 64, 56
2, 49379, Control_c, 0, 64, 16
2, 49383, Note_on_c, 0, 78, 90
2, 49395, Control_c, 0, 64, 0
2, 49406, Note_on_c, 0, 79, 0
2, 49447, Note_on_c, 0, 59, 74
2, 49456, Note_on_c, 0, 78, 0
2, 49458, Note_on_c, 0, 76, 86
2, 49494, Note_on_c, 0, 59, 0
2, 49531, Note_on_c, 0, 75, 95
2, 49548, Note_on_c, 0, 76, 0
2, 49603, Note_on_c, 0, 58, 76
2, 49615, Note_on_c, 0, 75, 0
2, 49617, Note_on_c, 0, 76, 100
2, 49687, Note_on_c, 0, 76, 0
2, 49775, Note_on_c, 0, 58, 0
2, 49786, Note_on_c, 0, 59, 78
2, 49795, Note_on_c, 0, 79, 94
2, 49833, Note_on_c, 0, 59, 0
2, 49847, Note_on_c, 0, 79, 0
2, 49969, Note_on_c, 0, 75, 96
2, 49971, Note_on_c, 0, 61, 73
2, 49999, Note_on_c, 0, 61, 0
2, 50019, Note_on_c, 0, 75, 0
2, 50143, Note_on_c, 0, 76, 94
2, 50148, Note_on_c, 0, 54, 75
2, 50154, Note_on_c, 0, 73, 84
2, 50208, Control_c, 0, 64, 33
2, 50220, Note_on_c, 0, 76, 0
2, 50223, Control_c, 0, 64, 51
2, 50239, Control_c, 0, 64, 59
2, 50254, Control_c, 0, 64, 64
2, 50270, Control_c, 0, 64, 68
2, 50274, Note_on_c, 0, 54, 0
2, 50284, Control_c, 0, 64, 74
2, 50299, Control_c, 0, 64, 81
2, 50312, Note_on_c, 0, 79, 88
2, 50315, Control_c, 0, 64, 86
2, 50336, Note_on_c, 0, 73, 0
2, 50346, Control_c, 0, 64, 81
2, 50360, Control_c, 0, 64, 72
2, 50375, Control_c, 0, 64, 62
2, 50391, Control_c, 0, 64, 51
2, 50395, Note_on_c, 0, 78, 80
2, 50406, Control_c, 0, 64, 43
2, 50416, Note_on_c, 0, 79, 0
2, 50421, Control_c, 0, 64, 42
2, 50470, Note_on_c, 0, 59, 75
2, 50481, Note_on_c, 0, 76, 81
2, 50504, Note_on_c, 0, 78, 0
2, 50563, Note_on_c, 0, 75, 83
2, 50577, Note_on_c, 0, 76, 0
2, 50639, Note_on_c, 0, 76, 91
2, 50640, Note_on_c, 0, 58, 79
2, 50654, Note_on_c, 0, 59, 0
2, 50672, Control_c, 0, 64, 41
2, 50687, Control_c, 0, 64, 40
2, 50690, Note_on_c, 0, 75, 0
2, 50698, Note_on_c, 0, 76, 0
2, 50701, Control_c, 0, 64, 39
2, 50717, Control_c, 0, 64, 38
2, 50732, Control_c, 0, 64, 37
2, 50763, Control_c, 0, 64, 37
2, 50808, Control_c, 0, 64, 36
2, 50823, Control_c, 0, 64, 35
2, 50838, Note_on_c, 0, 78, 72
2, 50839, Control_c, 0, 64, 34
2, 50853, Control_c, 0, 64, 33
2, 50869, Control_c, 0, 64, 32
2, 50884, Control_c, 0, 64, 32
2, 50917, Control_c, 0, 64, 31
2, 50920, Note_on_c, 0, 76, 71
2, 50929, Note_on_c, 0, 78, 0
2, 50973, Note_on_c, 0, 58, 0
2, 50973, Note_on_c, 0, 59, 63
2, 50988, Note_on_c, 0, 76, 0
2, 50991, Note_on_c, 0, 75, 72
2, 51002, Note_on_c, 0, 59, 0
2, 51019, Note_on_c, 0, 75, 0
2, 51068, Note_on_c, 0, 73, 66
2, 51069, Control_c, 0, 64, 31
2, 51114, Control_c, 0, 64, 30
2, 51128, Control_c, 0, 64, 28
2, 51140, Note_on_c, 0, 73, 0
2, 51143, Control_c, 0, 64, 28
2, 51159, Note_on_c, 0, 75, 71
2, 51165, Note_on_c, 0, 47, 57
2, 51174, Control_c, 0, 64, 32
2, 51190, Control_c, 0, 64, 48
2, 51197, Note_on_c, 0, 75, 0
2, 51212, Control_c, 0, 64, 60
2, 51228, Control_c, 0, 64, 66
2, 51243, Control_c, 0, 64, 72
2, 51246, Note_on_c, 0, 47, 0
2, 51258, Control_c, 0, 64, 80
2, 51274, Control_c, 0, 64, 83
2, 51288, Control_c, 0, 64, 77
2, 51303, Control_c, 0, 64, 66
2, 51319, Control_c, 0, 64, 51
2, 51334, Control_c, 0, 64, 0
2, 51363, Note_on_c, 0, 72, 53
2, 51414, Note_on_c, 0, 72, 0
2, 51431, Note_on_c, 0, 71, 62
2, 51466, Note_on_c, 0, 71, 0
2, 51479, Note_on_c, 0, 64, 52
2, 51496, Note_on_c, 0, 69, 65
2, 51538, Note_on_c, 0, 64, 0
2, 51555, Note_on_c, 0, 69, 0
2, 51574, Note_on_c, 0, 68, 63
2, 51618, Note_on_c, 0, 68, 0
2, 51639, Note_on_c, 0, 63, 47
2, 51660, Note_on_c, 0, 69, 71
2, 51688, Note_on_c, 0, 69, 0
2, 51754, Note_on_c, 0, 63, 0
2, 51807, Note_on_c, 0, 64, 57
2, 51824, Note_on_c, 0, 72, 72
2, 51850, Note_on_c, 0, 64, 0
2, 51853, Note_on_c, 0, 72, 0
2, 51998, Note_on_c, 0, 66, 51
2, 52007, Note_on_c, 0, 68, 66
2, 52023, Note_on_c, 0, 66, 0
2, 52037, Note_on_c, 0, 68, 0
2, 52164, Note_on_c, 0, 59, 49
2, 52174, Note_on_c, 0, 78, 67
2, 52179, Note_on_c, 0, 69, 57
2, 52193, Control_c, 0, 64, 45
2, 52208, Control_c, 0, 64, 60
2, 52219, Note_on_c, 0, 69, 0
2, 52223, Control_c, 0, 64, 67
2, 52239, Control_c, 0, 64, 80
2, 52254, Control_c, 0, 64, 127
2, 52278, Note_on_c, 0, 59, 0
2, 52295, Note_on_c, 0, 78, 0
2, 52315, Control_c, 0, 64, 97
2, 52330, Control_c, 0, 64, 74
2, 52346, Control_c, 0, 64, 60
2, 52354, Note_on_c, 0, 72, 53
2, 52360, Control_c, 0, 64, 28
2, 52375, Control_c, 0, 64, 0
2, 52406, Note_on_c, 0, 72, 0
2, 52430, Note_on_c, 0, 71, 57
2, 52468, Note_on_c, 0, 71, 0
2, 52504, Note_on_c, 0, 64, 46
2, 52511, Note_on_c, 0, 69, 60
2, 52560, Note_on_c, 0, 69, 0
2, 52588, Note_on_c, 0, 68, 60
2, 52635, Note_on_c, 0, 68, 0
2, 52656, Note_on_c, 0, 64, 0
2, 52666, Note_on_c, 0, 63, 49
2, 52677, Note_on_c, 0, 69, 69
2, 52704, Note_on_c, 0, 69, 0
2, 52864, Note_on_c, 0, 71, 60
2, 52903, Note_on_c, 0, 71, 0
2, 52948, Note_on_c, 0, 69, 57
2, 52984, Note_on_c, 0, 69, 0
2, 53018, Note_on_c, 0, 64, 58
2, 53021, Note_on_c, 0, 63, 0
2, 53031, Note_on_c, 0, 67, 56
2, 53049, Note_on_c, 0, 64, 0
2, 53081, Note_on_c, 0, 67, 0
2, 53116, Note_on_c, 0, 66, 58
2, 53167, Note_on_c, 0, 66, 0
2, 53197, Note_on_c, 0, 52, 47
2, 53210, Note_on_c, 0, 67, 60
2, 53260, Note_on_c, 0, 67, 0
2, 53290, Note_on_c, 0, 71, 72
2, 53293, Note_on_c, 0, 55, 54
2, 53298, Note_on_c, 0, 52, 0
2, 53353, Note_on_c, 0, 71, 0
2, 53356, Note_on_c, 0, 55, 0
2, 53357, Control_c, 0, 64, 12
2, 53365, Note_on_c, 0, 73, 77
2, 53368, Note_on_c, 0, 57, 62
2, 53372, Control_c, 0, 64, 15
2, 53388, Control_c, 0, 64, 17
2, 53420, Note_on_c, 0, 57, 0
2, 53448, Control_c, 0, 64, 18
2, 53452, Note_on_c, 0, 75, 84
2, 53454, Note_on_c, 0, 73, 0
2, 53458, Note_on_c, 0, 59, 67
2, 53523, Note_on_c, 0, 75, 0
2, 53531, Note_on_c, 0, 59, 0
2, 53538, Note_on_c, 0, 61, 66
2, 53549, Note_on_c, 0, 76, 81
2, 53614, Note_on_c, 0, 76, 0
2, 53616, Note_on_c, 0, 63, 60
2, 53617, Note_on_c, 0, 61, 0
2, 53619, Note_on_c, 0, 78, 85
2, 53690, Note_on_c, 0, 63, 0
2, 53699, Note_on_c, 0, 79, 82
2, 53706, Note_on_c, 0, 64, 74
2, 53716, Note_on_c, 0, 78, 0
2, 53736, Note_on_c, 0, 64, 0
2, 53790, Note_on_c, 0, 78, 82
2, 53795, Note_on_c, 0, 79, 0
2, 53867, Note_on_c, 0, 67, 72
2, 53871, Note_on_c, 0, 76, 83
2, 53886, Note_on_c, 0, 78, 0
2, 53895, Control_c, 0, 64, 17
2, 53898, Note_on_c, 0, 67, 0
2, 53927, Note_on_c, 0, 76, 0
2, 53951, Note_on_c, 0, 74, 77
2, 54027, Note_on_c, 0, 74, 0
2, 54032, Note_on_c, 0, 64, 69
2, 54037, Note_on_c, 0, 73, 80
2, 54060, Note_on_c, 0, 64, 0
2, 54118, Note_on_c, 0, 71, 82
2, 54126, Note_on_c, 0, 73, 0
2, 54184, Note_on_c, 0, 61, 71
2, 54186, Note_on_c, 0, 71, 0
2, 54198, Note_on_c, 0, 76, 90
2, 54219, Note_on_c, 0, 61, 0
2, 54289, Note_on_c, 0, 74, 79
2, 54326, Note_on_c, 0, 76, 0
2, 54360, Note_on_c, 0, 64, 70
2, 54372, Note_on_c, 0, 73, 75
2, 54382, Note_on_c, 0, 74, 0
2, 54396, Note_on_c, 0, 64, 0
2, 54451, Note_on_c, 0, 71, 75
2, 54454, Note_on_c, 0, 73, 0
2, 54492, Note_on_c, 0, 71, 0
2, 54531, Note_on_c, 0, 69, 74
2, 54543, Note_on_c, 0, 61, 64
2, 54573, Note_on_c, 0, 61, 0
2, 54597, Note_on_c, 0, 69, 0
2, 54614, Note_on_c, 0, 68, 70
2, 54681, Note_on_c, 0, 68, 0
2, 54688, Note_on_c, 0, 73, 86
2, 54689, Note_on_c, 0, 57, 63
2, 54722, Note_on_c, 0, 57, 0
2, 54784, Note_on_c, 0, 71, 70
2, 54786, Note_on_c, 0, 73, 0
2, 54855, Note_on_c, 0, 61, 63
2, 54858, Note_on_c, 0, 69, 77
2, 54858, Note_on_c, 0, 71, 0
2, 54890, Note_on_c, 0, 61, 0
2, 54902, Note_on_c, 0, 69, 0
2, 54942, Note_on_c, 0, 67, 70
2, 55002, Note_on_c, 0, 67, 0
2, 55007, Note_on_c, 0, 57, 64
2, 55017, Note_on_c, 0, 66, 69
2, 55036, Note_on_c, 0, 57, 0
2, 55088, Note_on_c, 0, 66, 0
2, 55099, Note_on_c, 0, 64, 72
2, 55162, Note_on_c, 0, 64, 0
2, 55191, Note_on_c, 0, 50, 53
2, 55195, Note_on_c, 0, 66, 75
2, 55230, Note_on_c, 0, 66, 0
2, 55264, Note_on_c, 0, 69, 77
2, 55276, Note_on_c, 0, 50, 0
2, 55282, Note_on_c, 0, 54, 68
2, 55326, Note_on_c, 0, 69, 0
2, 55344, Note_on_c, 0, 71, 84
2, 55354, Note_on_c, 0, 54, 0
2, 55368, Note_on_c, 0, 55, 68
2, 55414, Note_on_c, 0, 71, 0
2, 55419, Note_on_c, 0, 55, 0
2, 55429, Note_on_c, 0, 73, 87
2, 55442, Note_on_c, 0, 57, 76
2, 55488, Note_on_c, 0, 73, 0
2, 55509, Note_on_c, 0, 74, 82
2, 55510, Note_on_c, 0, 57, 0
2, 55514, Note_on_c, 0, 59, 72
2, 55581, Note_on_c, 0, 74, 0
2, 55582, Note_on_c, 0, 59, 0
2, 55586, Note_on_c, 0, 76, 86
2, 55592, Note_on_c, 0, 61, 76
2, 55659, Note_on_c, 0, 78, 99
2, 55670, Note_on_c, 0, 76, 0
2, 55672, Note_on_c, 0, 61, 0
2, 55678, Note_on_c, 0, 62, 79
2, 55751, Note_on_c, 0, 76, 83
2, 55757, Note_on_c, 0, 78, 0
2, 55802, Note_on_c, 0, 76, 0
2, 55831, Note_on_c, 0, 74, 80
2, 55891, Note_on_c, 0, 74, 0
2, 55917, Note_on_c, 0, 73, 80
2, 55996, Note_on_c, 0, 71, 76
2, 56000, Note_on_c, 0, 73, 0
2, 56037, Note_on_c, 0, 71, 0
2, 56067, Note_on_c, 0, 69, 73
2, 56142, Note_on_c, 0, 69, 0
2, 56154, Note_on_c, 0, 68, 73
2, 56216, Note_on_c, 0, 68, 0
2, 56236, Note_on_c, 0, 71, 69
2, 56304, Note_on_c, 0, 71, 0
2, 56317, Note_on_c, 0, 76, 81
2, 56320, Note_on_c, 0, 62, 0
2, 56327, Note_on_c, 0, 61, 62
2, 56357, Note_on_c, 0, 61, 0
2, 56402, Note_on_c, 0, 76, 0
2, 56405, Note_on_c, 0, 74, 69
2, 56444, Note_on_c, 0, 72, 27
2, 56458, Note_on_c, 0, 72, 0
2, 56477, Note_on_c, 0, 59, 71
2, 56481, Note_on_c, 0, 76, 81
2, 56483, Note_on_c, 0, 74, 0
2, 56503, Note_on_c, 0, 59, 0
2, 56542, Note_on_c, 0, 76, 0
2, 56570, Note_on_c, 0, 67, 71
2, 56609, Note_on_c, 0, 67, 0
2, 56638, Note_on_c, 0, 58, 67
2, 56664, Note_on_c, 0, 66, 75
2, 56688, Note_on_c, 0, 58, 0
2, 56710, Note_on_c, 0, 66, 0
2, 56726, Note_on_c, 0, 61, 72
2, 56744, Note_on_c, 0, 70, 70
2, 56781, Note_on_c, 0, 61, 0
2, 56804, Note_on_c, 0, 70, 0
2, 56815, Note_on_c, 0, 73, 76
2, 56821, Note_on_c, 0, 59, 67
2, 56890, Note_on_c, 0, 59, 0
2, 56894, Note_on_c, 0, 58, 67
2, 56894, Note_on_c, 0, 74, 80
2, 56906, Note_on_c, 0, 73, 0
2, 56922, Control_c, 0, 64, 18
2, 56968, Note_on_c, 0, 56, 75
2, 56971, Note_on_c, 0, 58, 0
2, 56983, Note_on_c, 0, 74, 0
2, 56986, Note_on_c, 0, 76, 85
2, 57047, Note_on_c, 0, 54, 76
2, 57052, Note_on_c, 0, 56, 0
2, 57106, Note_on_c, 0, 54, 0
2, 57134, Note_on_c, 0, 59, 79
2, 57163, Note_on_c, 0, 59, 0
2, 57172, Note_on_c, 0, 76, 0
2, 57216, Note_on_c, 0, 66, 74
2, 57295, Note_on_c, 0, 66, 0
2, 57295, Note_on_c, 0, 68, 73
2, 57302, Note_on_c, 0, 54, 69
2, 57337, Note_on_c, 0, 54, 0
2, 57373, Note_on_c, 0, 70, 70
2, 57378, Note_on_c, 0, 68, 0
2, 57423, Note_on_c, 0, 70, 0
2, 57452, Note_on_c, 0, 71, 76
2, 57454, Note_on_c, 0, 50, 63
2, 57490, Note_on_c, 0, 50, 0
2, 57497, Note_on_c, 0, 71, 0
2, 57533, Note_on_c, 0, 73, 74
2, 57604, Note_on_c, 0, 73, 0
2, 57619, Note_on_c, 0, 74, 79
2, 57626, Note_on_c, 0, 47, 59
2, 57671, Note_on_c, 0, 47, 0
2, 57706, Note_on_c, 0, 73, 78
2, 57706, Note_on_c, 0, 74, 0
2, 57781, Note_on_c, 0, 71, 78
2, 57783, Note_on_c, 0, 73, 0
2, 57786, Note_on_c, 0, 49, 64
2, 57829, Note_on_c, 0, 71, 0
2, 57845, Note_on_c, 0, 49, 0
2, 57856, Note_on_c, 0, 69, 73
2, 57876, Note_on_c, 0, 50, 72
2, 57919, Note_on_c, 0, 50, 0
2, 57936, Note_on_c, 0, 67, 77
2, 57940, Note_on_c, 0, 69, 0
2, 57961, Note_on_c, 0, 52, 69
2, 58010, Note_on_c, 0, 52, 0
2, 58013, Note_on_c, 0, 66, 82
2, 58038, Note_on_c, 0, 67, 0
2, 58041, Note_on_c, 0, 54, 64
2, 58094, Note_on_c, 0, 66, 0
2, 58102, Note_on_c, 0, 71, 89
2, 58113, Note_on_c, 0, 55, 78
2, 58132, Note_on_c, 0, 54, 0
2, 58200, Note_on_c, 0, 69, 83
2, 58203, Note_on_c, 0, 55, 0
2, 58206, Note_on_c, 0, 57, 75
2, 58239, Note_on_c, 0, 71, 0
2, 58266, Note_on_c, 0, 57, 0
2, 58289, Note_on_c, 0, 59, 64
2, 58294, Note_on_c, 0, 67, 76
2, 58319, Note_on_c, 0, 69, 0
2, 58347, Note_on_c, 0, 59, 0
2, 58356, Note_on_c, 0, 57, 72
2, 58357, Note_on_c, 0, 66, 80
2, 58362, Note_on_c, 0, 67, 0
2, 58381, Control_c, 0, 64, 17
2, 58414, Note_on_c, 0, 66, 0
2, 58436, Note_on_c, 0, 64, 77
2, 58440, Note_on_c, 0, 57, 0
2, 58444, Note_on_c, 0, 55, 59
2, 58487, Note_on_c, 0, 54, 62
2, 58496, Note_on_c, 0, 55, 0
2, 58510, Note_on_c, 0, 64, 0
2, 58512, Note_on_c, 0, 62, 80
2, 58564, Note_on_c, 0, 54, 0
2, 58572, Note_on_c, 0, 52, 60
2, 58595, Note_on_c, 0, 67, 86
2, 58601, Note_on_c, 0, 62, 0
2, 58618, Note_on_c, 0, 52, 0
2, 58657, Note_on_c, 0, 54, 70
2, 58673, Note_on_c, 0, 66, 80
2, 58697, Note_on_c, 0, 67, 0
2, 58717, Note_on_c, 0, 54, 0
2, 58745, Note_on_c, 0, 55, 73
2, 58765, Note_on_c, 0, 64, 61
2, 58793, Note_on_c, 0, 66, 0
2, 58814, Note_on_c, 0, 55, 0
2, 58817, Note_on_c, 0, 62, 74
2, 58827, Note_on_c, 0, 64, 0
2, 58829, Note_on_c, 0, 54, 66
2, 58867, Note_on_c, 0, 54, 0
2, 58891, Note_on_c, 0, 62, 0
2, 58897, Note_on_c, 0, 61, 74
2, 58912, Note_on_c, 0, 55, 75
2, 58971, Note_on_c, 0, 55, 0
2, 58971, Note_on_c, 0, 64, 77
2, 58977, Note_on_c, 0, 61, 0
2, 58982, Note_on_c, 0, 52, 67
2, 59028, Control_c, 0, 64, 15
2, 59043, Control_c, 0, 64, 12
2, 59044, Note_on_c, 0, 52, 0
2, 59060, Note_on_c, 0, 64, 0
2, 59078, Note_on_c, 0, 58, 96
2, 59085, Note_on_c, 0, 54, 93
2, 59088, Control_c, 0, 64, 21
2, 59104, Control_c, 0, 64, 41
2, 59120, Control_c, 0, 64, 54
2, 59125, Note_on_c, 0, 58, 0
2, 59135, Control_c, 0, 64, 62
2, 59151, Control_c, 0, 64, 67
2, 59166, Control_c, 0, 64, 75
2, 59180, Control_c, 0, 64, 92
2, 59196, Control_c, 0, 64, 127
2, 59292, Note_on_c, 0, 79, 102
2, 59384, Note_on_c, 0, 78, 86
2, 59397, Note_on_c, 0, 54, 0
2, 59420, Note_on_c, 0, 79, 0
2, 59439, Control_c, 0, 64, 107
2, 59454, Control_c, 0, 64, 84
2, 59455, Note_on_c, 0, 76, 80
2, 59468, Note_on_c, 0, 78, 0
2, 59470, Control_c, 0, 64, 71
2, 59485, Control_c, 0, 64, 63
2, 59496, Note_on_c, 0, 42, 67
2, 59499, Control_c, 0, 64, 47
2, 59515, Control_c, 0, 64, 25
2, 59522, Note_on_c, 0, 76, 0
2, 59530, Control_c, 0, 64, 17
2, 59533, Note_on_c, 0, 42, 0
2, 59533, Note_on_c, 0, 74, 89
2, 59545, Control_c, 0, 64, 16
2, 59560, Control_c, 0, 64, 15
2, 59575, Control_c, 0, 64, 12
2, 59591, Control_c, 0, 64, 0
2, 59616, Note_on_c, 0, 42, 76
2, 59622, Note_on_c, 0, 70, 88
2, 59622, Note_on_c, 0, 73, 88
2, 59636, Note_on_c, 0, 74, 0
2, 59755, Note_on_c, 0, 73, 0
2, 59802, Note_on_c, 0, 76, 89
2, 59835, Note_on_c, 0, 42, 0
2, 59864, Note_on_c, 0, 76, 0
2, 59921, Note_on_c, 0, 70, 0
2, 59968, Note_on_c, 0, 73, 83
2, 59982, Note_on_c, 0, 42, 61
2, 60013, Note_on_c, 0, 73, 0
2, 60016, Note_on_c, 0, 42, 0
2, 60125, Note_on_c, 0, 42, 65
2, 60136, Note_on_c, 0, 64, 83
2, 60138, Note_on_c, 0, 70, 79
2, 60194, Note_on_c, 0, 70, 0
2, 60316, Note_on_c, 0, 73, 75
2, 60368, Note_on_c, 0, 73, 0
2, 60450, Note_on_c, 0, 64, 0
2, 60490, Note_on_c, 0, 70, 72
2, 60532, Note_on_c, 0, 70, 0
2, 60656, Note_on_c, 0, 64, 63
2, 60657, Note_on_c, 0, 61, 71
2, 60732, Note_on_c, 0, 64, 0
2, 60830, Note_on_c, 0, 70, 65
2, 60840, Note_on_c, 0, 42, 0
2, 60899, Control_c, 0, 64, 8
2, 60909, Note_on_c, 0, 70, 0
2, 60914, Control_c, 0, 64, 10
2, 60915, Note_on_c, 0, 49, 79
2, 60921, Note_on_c, 0, 61, 0
2, 60944, Control_c, 0, 64, 12
2, 60945, Note_on_c, 0, 61, 29
2, 60960, Control_c, 0, 64, 14
2, 60975, Control_c, 0, 64, 15
2, 60990, Control_c, 0, 64, 16
2, 60996, Note_on_c, 0, 50, 82
2, 61005, Control_c, 0, 64, 17
2, 61005, Note_on_c, 0, 49, 0
2, 61006, Note_on_c, 0, 64, 66
2, 61020, Control_c, 0, 64, 18
2, 61035, Control_c, 0, 64, 19
2, 61047, Note_on_c, 0, 64, 0
2, 61058, Note_on_c, 0, 50, 0
2, 61074, Note_on_c, 0, 52, 78
2, 61081, Control_c, 0, 64, 20
2, 61149, Note_on_c, 0, 54, 83
2, 61160, Note_on_c, 0, 52, 0
2, 61166, Note_on_c, 0, 62, 76
2, 61173, Note_on_c, 0, 61, 0
2, 61342, Note_on_c, 0, 62, 0
2, 61345, Note_on_c, 0, 54, 0
2, 61364, Note_on_c, 0, 59, 58
2, 61409, Note_on_c, 0, 59, 0
2, 61446, Note_on_c, 0, 61, 59
2, 61483, Control_c, 0, 64, 19
2, 61484, Note_on_c, 0, 61, 0
2, 61510, Note_on_c, 0, 42, 60
2, 61541, Note_on_c, 0, 62, 61
2, 61542, Note_on_c, 0, 42, 0
2, 61560, Control_c, 0, 64, 18
2, 61575, Control_c, 0, 64, 17
2, 61581, Note_on_c, 0, 62, 0
2, 61605, Note_on_c, 0, 64, 64
2, 61606, Control_c, 0, 64, 16
2, 61651, Note_on_c, 0, 64, 0
2, 61679, Note_on_c, 0, 42, 62
2, 61691, Note_on_c, 0, 71, 87
2, 61704, Note_on_c, 0, 66, 58
2, 61750, Note_on_c, 0, 66, 0
2, 61876, Note_on_c, 0, 62, 77
2, 61883, Note_on_c, 0, 42, 0
2, 61924, Note_on_c, 0, 62, 0
2, 62000, Note_on_c, 0, 71, 0
2, 62041, Note_on_c, 0, 42, 83
2, 62045, Note_on_c, 0, 66, 78
2, 62086, Note_on_c, 0, 42, 0
2, 62099, Note_on_c, 0, 66, 0
2, 62200, Note_on_c, 0, 42, 85
2, 62214, Note_on_c, 0, 74, 95
2, 62219, Note_on_c, 0, 71, 71
2, 62347, Note_on_c, 0, 71, 0
2, 62392, Note_on_c, 0, 66, 79
2, 62440, Note_on_c, 0, 66, 0
2, 62468, Note_on_c, 0, 74, 0
2, 62549, Note_on_c, 0, 71, 79
2, 62600, Note_on_c, 0, 71, 0
2, 62711, Note_on_c, 0, 77, 89
2, 62718, Note_on_c, 0, 74, 80
2, 62770, Note_on_c, 0, 74, 0
2, 62893, Note_on_c, 0, 71, 74
2, 62935, Note_on_c, 0, 71, 0
2, 63003, Note_on_c, 0, 77, 0
2, 63041, Note_on_c, 0, 74, 88
2, 63091, Note_on_c, 0, 74, 0
2, 63214, Note_on_c, 0, 78, 98
2, 63231, Note_on_c, 0, 73, 78
2, 63279, Note_on_c, 0, 42, 0
2, 63302, Note_on_c, 0, 73, 0
2, 63409, Note_on_c, 0, 70, 69
2, 63452, Note_on_c, 0, 70, 0
2, 63458, Note_on_c, 0, 78, 0
2, 63480, Note_on_c, 0, 50, 76
2, 63559, Note_on_c, 0, 52, 74
2, 63568, Note_on_c, 0, 73, 84
2, 63570, Note_on_c, 0, 76, 85
2, 63573, Note_on_c, 0, 50, 0
2, 63615, Note_on_c, 0, 73, 0
2, 63630, Note_on_c, 0, 54, 81
2, 63632, Note_on_c, 0, 52, 0
2, 63636, Note_on_c, 0, 76, 0
2, 63698, Note_on_c, 0, 54, 0
2, 63727, Note_on_c, 0, 55, 83
2, 63744, Note_on_c, 0, 74, 93
2, 63755, Note_on_c, 0, 71, 80
2, 63774, Note_on_c, 0, 55, 0
2, 63909, Note_on_c, 0, 54, 74
2, 63939, Note_on_c, 0, 54, 0
2, 63949, Note_on_c, 0, 71, 0
2, 63958, Note_on_c, 0, 74, 0
2, 64079, Note_on_c, 0, 79, 94
2, 64080, Note_on_c, 0, 52, 73
2, 64109, Note_on_c, 0, 52, 0
2, 64141, Note_on_c, 0, 79, 0
2, 64305, Note_on_c, 0, 74, 97
2, 64309, Note_on_c, 0, 54, 73
2, 64317, Note_on_c, 0, 71, 81
2, 64328, Control_c, 0, 64, 22
2, 64342, Control_c, 0, 64, 44
2, 64358, Control_c, 0, 64, 56
2, 64373, Control_c, 0, 64, 63
2, 64389, Control_c, 0, 64, 68
2, 64393, Note_on_c, 0, 71, 0
2, 64404, Control_c, 0, 64, 77
2, 64404, Note_on_c, 0, 74, 0
2, 64418, Control_c, 0, 64, 108
2, 64434, Control_c, 0, 64, 127
2, 64737, Control_c, 0, 64, 102
2, 64752, Control_c, 0, 64, 93
2, 64767, Control_c, 0, 64, 87
2, 64782, Control_c, 0, 64, 83
2, 64798, Control_c, 0, 64, 77
2, 64813, Control_c, 0, 64, 73
2, 64830, Control_c, 0, 64, 70
2, 64845, Control_c, 0, 64, 67
2, 64859, Control_c, 0, 64, 64
2, 64867, Note_on_c, 0, 74, 87
2, 64871, Note_on_c, 0, 42, 67
2, 64873, Note_on_c, 0, 54, 0
2, 64873, Note_on_c, 0, 54, 13
2, 64874, Note_on_c, 0, 70, 78
2, 64875, Control_c, 0, 64, 61
2, 64890, Control_c, 0, 64, 56
2, 64905, Control_c, 0, 64, 52
2, 64920, Note_on_c, 0, 74, 0
2, 64921, Control_c, 0, 64, 50
2, 64926, Note_on_c, 0, 73, 64
2, 64935, Control_c, 0, 64, 49
2, 64951, Control_c, 0, 64, 48
2, 64953, Note_on_c, 0, 74, 65
2, 64958, Note_on_c, 0, 73, 0
2, 64966, Control_c, 0, 64, 46
2, 64981, Control_c, 0, 64, 43
2, 64997, Control_c, 0, 64, 38
2, 65008, Note_on_c, 0, 73, 87
2, 65011, Control_c, 0, 64, 33
2, 65017, Note_on_c, 0, 74, 0
2, 65035, Control_c, 0, 64, 30
2, 65050, Control_c, 0, 64, 28
2, 65064, Control_c, 0, 64, 28
2, 65064, Note_on_c, 0, 71, 80
2, 65070, Note_on_c, 0, 73, 0
2, 65080, Control_c, 0, 64, 27
2, 65095, Control_c, 0, 64, 26
2, 65111, Control_c, 0, 64, 25
2, 65124, Note_on_c, 0, 71, 0
2, 65126, Control_c, 0, 64, 24
2, 65140, Control_c, 0, 64, 21
2, 65156, Control_c, 0, 64, 20
2, 65166, Note_on_c, 0, 42, 0
2, 65171, Control_c, 0, 64, 19
2, 65185, Control_c, 0, 64, 18
2, 65256, Note_on_c, 0, 73, 77
2, 65300, Note_on_c, 0, 70, 0
2, 65309, Note_on_c, 0, 73, 0
2, 65323, Control_c, 0, 64, 17
2, 65329, Note_on_c, 0, 54, 0
2, 65384, Control_c, 0, 64, 16
2, 65399, Control_c, 0, 64, 10
2, 65414, Control_c, 0, 64, 0
2, 65455, Note_on_c, 0, 47, 78
2, 65455, Note_on_c, 0, 71, 75
2, 65489, Note_on_c, 0, 71, 0
2, 65490, Control_c, 0, 64, 50
2, 65505, Control_c, 0, 64, 64
2, 65521, Control_c, 0, 64, 78
2, 65536, Control_c, 0, 64, 127
2, 65608, Note_on_c, 0, 47, 0
2, 65651, Note_on_c, 0, 74, 69
2, 65658, Control_c, 0, 64, 93
2, 65668, Note_on_c, 0, 76, 55
2, 65674, Control_c, 0, 64, 73
2, 65689, Control_c, 0, 64, 59
2, 65693, Note_on_c, 0, 76, 0
2, 65703, Control_c, 0, 64, 29
2, 65719, Control_c, 0, 64, 0
2, 65721, Note_on_c, 0, 74, 0
2, 65730, Note_on_c, 0, 73, 74
2, 65813, Note_on_c, 0, 73, 0
2, 65814, Note_on_c, 0, 71, 67
2, 65830, Note_on_c, 0, 54, 83
2, 65849, Note_on_c, 0, 71, 0
2, 65856, Note_on_c, 0, 54, 0
2, 65881, Note_on_c, 0, 69, 71
2, 65962, Note_on_c, 0, 69, 0
2, 65988, Note_on_c, 0, 67, 70
2, 66019, Note_on_c, 0, 67, 0
2, 66027, Note_on_c, 0, 59, 77
2, 66057, Note_on_c, 0, 59, 0
2, 66059, Note_on_c, 0, 58, 82
2, 66116, Note_on_c, 0, 58, 0
2, 66126, Note_on_c, 0, 59, 89
2, 66197, Note_on_c, 0, 71, 84
2, 66289, Note_on_c, 0, 69, 78
2, 66326, Note_on_c, 0, 71, 0
2, 66370, Note_on_c, 0, 67, 79
2, 66405, Note_on_c, 0, 69, 0
2, 66453, Note_on_c, 0, 66, 84
2, 66463, Note_on_c, 0, 67, 0
2, 66525, Note_on_c, 0, 66, 0
2, 66537, Note_on_c, 0, 64, 87
2, 66581, Note_on_c, 0, 64, 0
2, 66588, Note_on_c, 0, 73, 27
2, 66618, Note_on_c, 0, 73, 0
2, 66712, Note_on_c, 0, 59, 0
2, 66718, Note_on_c, 0, 60, 74
2, 66725, Note_on_c, 0, 67, 81
2, 66755, Note_on_c, 0, 60, 0
2, 66758, Note_on_c, 0, 67, 0
2, 66790, Note_on_c, 0, 59, 75
2, 66858, Note_on_c, 0, 57, 77
2, 66861, Note_on_c, 0, 59, 0
2, 66892, Note_on_c, 0, 72, 95
2, 66934, Note_on_c, 0, 55, 76
2, 66940, Note_on_c, 0, 57, 0
2, 66943, Note_on_c, 0, 72, 0
2, 67027, Note_on_c, 0, 55, 0
2, 67033, Note_on_c, 0, 54, 75
2, 67053, Note_on_c, 0, 72, 98
2, 67073, Note_on_c, 0, 54, 0
2, 67218, Note_on_c, 0, 55, 72
2, 67244, Note_on_c, 0, 69, 75
2, 67293, Note_on_c, 0, 55, 0
2, 67295, Note_on_c, 0, 69, 0
2, 67300, Note_on_c, 0, 54, 72
2, 67395, Note_on_c, 0, 52, 69
2, 67403, Note_on_c, 0, 66, 73
2, 67411, Note_on_c, 0, 54, 0
2, 67447, Note_on_c, 0, 66, 0
2, 67460, Note_on_c, 0, 50, 66
2, 67461, Note_on_c, 0, 52, 0
2, 67559, Note_on_c, 0, 50, 0
2, 67572, Note_on_c, 0, 62, 80
2, 67573, Note_on_c, 0, 55, 73
2, 67605, Note_on_c, 0, 62, 0
2, 67652, Note_on_c, 0, 57, 79
2, 67654, Note_on_c, 0, 55, 0
2, 67715, Note_on_c, 0, 57, 0
2, 67715, Note_on_c, 0, 72, 0
2, 67732, Note_on_c, 0, 59, 73
2, 67736, Note_on_c, 0, 67, 94
2, 67811, Note_on_c, 0, 59, 0
2, 67813, Note_on_c, 0, 55, 67
2, 67885, Note_on_c, 0, 55, 0
2, 67897, Note_on_c, 0, 54, 69
2, 67903, Note_on_c, 0, 71, 87
2, 67964, Note_on_c, 0, 54, 0
2, 67973, Note_on_c, 0, 71, 0
2, 67976, Note_on_c, 0, 55, 70
2, 68035, Note_on_c, 0, 55, 0
2, 68067, Note_on_c, 0, 49, 70
2, 68077, Note_on_c, 0, 67, 0
2, 68084, Note_on_c, 0, 71, 95
2, 68094, Note_on_c, 0, 49, 0
2, 68185, Note_on_c, 0, 69, 72
2, 68258, Note_on_c, 0, 52, 66
2, 68272, Note_on_c, 0, 67, 73
2, 68286, Note_on_c, 0, 52, 0
2, 68307, Note_on_c, 0, 69, 0
2, 68352, Note_on_c, 0, 66, 67
2, 68363, Note_on_c, 0, 67, 0
2, 68398, Note_on_c, 0, 71, 0
2, 68407, Note_on_c, 0, 66, 0
2, 68417, Note_on_c, 0, 49, 57
2, 68433, Note_on_c, 0, 64, 67
2, 68452, Note_on_c, 0, 49, 0
2, 68488, Note_on_c, 0, 64, 0
2, 68505, Note_on_c, 0, 62, 67
2, 68549, Note_on_c, 0, 62, 0
2, 68580, Note_on_c, 0, 61, 78
2, 68589, Note_on_c, 0, 54, 61
2, 68611, Note_on_c, 0, 61, 0
2, 68639, Control_c, 0, 64, 8
2, 68644, Note_on_c, 0, 54, 0
2, 68667, Note_on_c, 0, 55, 63
2, 68669, Control_c, 0, 64, 10
2, 68684, Control_c, 0, 64, 12
2, 68711, Note_on_c, 0, 55, 0
2, 68747, Note_on_c, 0, 57, 59
2, 68751, Note_on_c, 0, 66, 76
2, 68814, Note_on_c, 0, 57, 0
2, 68840, Note_on_c, 0, 54, 54
2, 68892, Note_on_c, 0, 54, 0
2, 68915, Note_on_c, 0, 52, 57
2, 68937, Note_on_c, 0, 69, 72
2, 68966, Note_on_c, 0, 52, 0
2, 68982, Note_on_c, 0, 69, 0
2, 68990, Note_on_c, 0, 54, 61
2, 69049, Note_on_c, 0, 54, 0
2, 69097, Note_on_c, 0, 47, 59
2, 69102, Note_on_c, 0, 66, 0
2, 69105, Note_on_c, 0, 69, 81
2, 69136, Note_on_c, 0, 47, 0
2, 69199, Note_on_c, 0, 67, 66
2, 69271, Note_on_c, 0, 50, 62
2, 69286, Note_on_c, 0, 66, 63
2, 69287, Note_on_c, 0, 67, 0
2, 69303, Note_on_c, 0, 50, 0
2, 69357, Note_on_c, 0, 64, 61
2, 69366, Note_on_c, 0, 66, 0
2, 69400, Note_on_c, 0, 64, 0
2, 69433, Note_on_c, 0, 62, 67
2, 69444, Note_on_c, 0, 47, 49
2, 69478, Note_on_c, 0, 47, 0
2, 69484, Note_on_c, 0, 62, 0
2, 69513, Note_on_c, 0, 61, 59
2, 69552, Note_on_c, 0, 61, 0
2, 69581, Note_on_c, 0, 59, 78
2, 69604, Control_c, 0, 64, 14
2, 69608, Note_on_c, 0, 52, 57
2, 69627, Note_on_c, 0, 59, 0
2, 69661, Note_on_c, 0, 52, 0
2, 69691, Note_on_c, 0, 54, 65
2, 69731, Note_on_c, 0, 54, 0
2, 69763, Note_on_c, 0, 69, 0
2, 69764, Note_on_c, 0, 55, 55
2, 69772, Note_on_c, 0, 64, 77
2, 69810, Control_c, 0, 64, 15
2, 69818, Note_on_c, 0, 55, 0
2, 69840, Note_on_c, 0, 52, 56
2, 69897, Note_on_c, 0, 52, 0
2, 69927, Note_on_c, 0, 50, 49
2, 69937, Note_on_c, 0, 67, 70
2, 69981, Note_on_c, 0, 50, 0
2, 69987, Note_on_c, 0, 67, 0
2, 70011, Note_on_c, 0, 52, 56
2, 70083, Note_on_c, 0, 52, 0
2, 70112, Note_on_c, 0, 64, 0
2, 70115, Note_on_c, 0, 67, 75
2, 70117, Note_on_c, 0, 45, 54
2, 70154, Note_on_c, 0, 45, 0
2, 70212, Note_on_c, 0, 66, 64
2, 70280, Note_on_c, 0, 49, 54
2, 70293, Note_on_c, 0, 64, 60
2, 70293, Note_on_c, 0, 66, 0
2, 70315, Note_on_c, 0, 49, 0
2, 70337, Note_on_c, 0, 64, 0
2, 70343, Note_on_c, 0, 67, 0
2, 70367, Note_on_c, 0, 67, 23
2, 70368, Note_on_c, 0, 62, 59
2, 70432, Note_on_c, 0, 62, 0
2, 70450, Note_on_c, 0, 45, 58
2, 70462, Note_on_c, 0, 61, 56
2, 70484, Note_on_c, 0, 45, 0
2, 70528, Note_on_c, 0, 59, 67
2, 70561, Note_on_c, 0, 61, 0
2, 70578, Note_on_c, 0, 59, 0
2, 70610, Note_on_c, 0, 50, 61
2, 70615, Note_on_c, 0, 57, 65
2, 70647, Note_on_c, 0, 57, 0
2, 70671, Note_on_c, 0, 50, 0
2, 70689, Note_on_c, 0, 52, 49
2, 70757, Note_on_c, 0, 52, 0
2, 70760, Control_c, 0, 64, 16
2, 70763, Note_on_c, 0, 54, 59
2, 70769, Note_on_c, 0, 62, 64
2, 70784, Note_on_c, 0, 67, 0
2, 70820, Control_c, 0, 64, 18
2, 70829, Note_on_c, 0, 54, 0
2, 70836, Control_c, 0, 64, 20
2, 70851, Control_c, 0, 64, 22
2, 70854, Note_on_c, 0, 50, 56
2, 70867, Control_c, 0, 64, 23
2, 70882, Control_c, 0, 64, 24
2, 70897, Control_c, 0, 64, 25
2, 70913, Control_c, 0, 64, 26
2, 70913, Note_on_c, 0, 66, 65
2, 70915, Note_on_c, 0, 50, 0
2, 70927, Control_c, 0, 64, 26
2, 70930, Note_on_c, 0, 49, 49
2, 70970, Note_on_c, 0, 49, 0
2, 70979, Note_on_c, 0, 66, 0
2, 71008, Note_on_c, 0, 50, 66
2, 71057, Note_on_c, 0, 50, 0
2, 71099, Note_on_c, 0, 47, 60
2, 71151, Note_on_c, 0, 47, 0
2, 71167, Note_on_c, 0, 48, 66
2, 71218, Note_on_c, 0, 48, 0
2, 71257, Note_on_c, 0, 50, 64
2, 71267, Note_on_c, 0, 66, 69
2, 71300, Note_on_c, 0, 66, 0
2, 71318, Note_on_c, 0, 50, 0
2, 71340, Note_on_c, 0, 47, 53
2, 71403, Note_on_c, 0, 47, 0
2, 71432, Note_on_c, 0, 45, 58
2, 71438, Note_on_c, 0, 72, 76
2, 71486, Note_on_c, 0, 45, 0
2, 71486, Note_on_c, 0, 72, 0
2, 71516, Note_on_c, 0, 47, 63
2, 71575, Note_on_c, 0, 47, 0
2, 71599, Note_on_c, 0, 71, 85
2, 71602, Note_on_c, 0, 43, 62
2, 71637, Note_on_c, 0, 62, 0
2, 71673, Note_on_c, 0, 43, 0
2, 71694, Note_on_c, 0, 45, 63
2, 71763, Note_on_c, 0, 45, 0
2, 71767, Note_on_c, 0, 47, 70
2, 71768, Note_on_c, 0, 67, 74
2, 71828, Note_on_c, 0, 47, 0
2, 71844, Note_on_c, 0, 66, 75
2, 71851, Note_on_c, 0, 45, 66
2, 71866, Note_on_c, 0, 67, 0
2, 71925, Note_on_c, 0, 45, 0
2, 71926, Note_on_c, 0, 64, 73
2, 71929, Note_on_c, 0, 43, 66
2, 71963, Note_on_c, 0, 66, 0
2, 72004, Note_on_c, 0, 43, 0
2, 72006, Note_on_c, 0, 64, 0
2, 72011, Note_on_c, 0, 42, 65
2, 72011, Note_on_c, 0, 62, 72
2, 72062, Note_on_c, 0, 71, 0
2, 72079, Note_on_c, 0, 67, 75
2, 72089, Note_on_c, 0, 62, 0
2, 72090, Note_on_c, 0, 42, 0
2, 72106, Note_on_c, 0, 40, 61
2, 72117, Note_on_c, 0, 67, 0
2, 72205, Note_on_c, 0, 40, 0
2, 72205, Note_on_c, 0, 42, 69
2, 72253, Note_on_c, 0, 42, 0
2, 72260, Note_on_c, 0, 73, 82
2, 72270, Note_on_c, 0, 64, 62
2, 72275, Note_on_c, 0, 43, 70
2, 72303, Note_on_c, 0, 64, 0
2, 72334, Note_on_c, 0, 73, 0
2, 72346, Note_on_c, 0, 43, 0
2, 72364, Note_on_c, 0, 42, 69
2, 72423, Note_on_c, 0, 42, 0
2, 72435, Note_on_c, 0, 40, 61
2, 72439, Note_on_c, 0, 74, 88
2, 72440, Note_on_c, 0, 66, 71
2, 72532, Note_on_c, 0, 40, 0
2, 72540, Note_on_c, 0, 38, 68
2, 72639, Note_on_c, 0, 45, 80
2, 72655, Note_on_c, 0, 38, 0
2, 72688, Note_on_c, 0, 74, 0
2, 72766, Note_on_c, 0, 66, 0
2, 72821, Note_on_c, 0, 71, 76
2, 72835, Note_on_c, 0, 62, 58
2, 72865, Note_on_c, 0, 62, 0
2, 72872, Note_on_c, 0, 71, 0
2, 73017, Note_on_c, 0, 73, 94
2, 73027, Note_on_c, 0, 64, 74
2, 73061, Note_on_c, 0, 64, 0
2, 73076, Note_on_c, 0, 73, 0
2, 73202, Note_on_c, 0, 76, 101
2, 73215, Note_on_c, 0, 67, 76
2, 73291, Note_on_c, 0, 45, 0
2, 73304, Note_on_c, 0, 44, 67
2, 73310, Control_c, 0, 64, 27
2, 73355, Control_c, 0, 64, 28
2, 73370, Control_c, 0, 64, 28
2, 73382, Note_on_c, 0, 46, 76
2, 73386, Control_c, 0, 64, 29
2, 73389, Note_on_c, 0, 44, 0
2, 73401, Control_c, 0, 64, 29
2, 73415, Control_c, 0, 64, 30
2, 73448, Note_on_c, 0, 46, 0
2, 73462, Control_c, 0, 64, 30
2, 73467, Note_on_c, 0, 47, 77
2, 73538, Note_on_c, 0, 67, 0
2, 73554, Note_on_c, 0, 49, 77
2, 73555, Note_on_c, 0, 47, 0
2, 73590, Note_on_c, 0, 76, 0
2, 73625, Note_on_c, 0, 49, 0
2, 73642, Note_on_c, 0, 46, 75
2, 73721, Note_on_c, 0, 47, 86
2, 73775, Note_on_c, 0, 46, 0
2, 73896, Note_on_c, 0, 73, 94
2, 73905, Note_on_c, 0, 64, 82
2, 73932, Note_on_c, 0, 64, 0
2, 73953, Note_on_c, 0, 73, 0
2, 74062, Note_on_c, 0, 74, 99
2, 74077, Note_on_c, 0, 66, 84
2, 74111, Note_on_c, 0, 66, 0
2, 74125, Note_on_c, 0, 74, 0
2, 74284, Note_on_c, 0, 79, 99
2, 74298, Note_on_c, 0, 71, 83
2, 74391, Note_on_c, 0, 47, 0
2, 74400, Note_on_c, 0, 45, 69
2, 74500, Note_on_c, 0, 47, 71
2, 74512, Note_on_c, 0, 45, 0
2, 74526, Control_c, 0, 64, 30
2, 74555, Note_on_c, 0, 47, 0
2, 74565, Note_on_c, 0, 50, 72
2, 74653, Note_on_c, 0, 49, 77
2, 74667, Note_on_c, 0, 50, 0
2, 74690, Note_on_c, 0, 71, 0
2, 74730, Note_on_c, 0, 49, 0
2, 74754, Note_on_c, 0, 79, 0
2, 74755, Note_on_c, 0, 52, 84
2, 74822, Note_on_c, 0, 52, 0
2, 74839, Note_on_c, 0, 50, 83
2, 75002, Note_on_c, 0, 78, 93
2, 75021, Note_on_c, 0, 69, 79
2, 75054, Note_on_c, 0, 69, 0
2, 75066, Note_on_c, 0, 78, 0
2, 75197, Note_on_c, 0, 76, 97
2, 75202, Note_on_c, 0, 67, 78
2, 75231, Note_on_c, 0, 67, 0
2, 75273, Note_on_c, 0, 76, 0
2, 75369, Note_on_c, 0, 78, 100
2, 75382, Note_on_c, 0, 69, 81
2, 75467, Note_on_c, 0, 50, 0
2, 75467, Note_on_c, 0, 52, 70
2, 75526, Note_on_c, 0, 52, 0
2, 75549, Note_on_c, 0, 50, 73
2, 75608, Note_on_c, 0, 50, 0
2, 75638, Note_on_c, 0, 48, 68
2, 75717, Note_on_c, 0, 48, 0
2, 75720, Note_on_c, 0, 47, 67
2, 75800, Note_on_c, 0, 47, 0
2, 75811, Note_on_c, 0, 69, 0
2, 75815, Note_on_c, 0, 45, 58
2, 75846, Note_on_c, 0, 78, 0
2, 75881, Note_on_c, 0, 43, 62
2, 75881, Note_on_c, 0, 45, 0
2, 75977, Note_on_c, 0, 50, 68
2, 75987, Note_on_c, 0, 43, 0
2, 76016, Note_on_c, 0, 50, 0
2, 76055, Note_on_c, 0, 52, 72
2, 76075, Note_on_c, 0, 76, 81
2, 76085, Note_on_c, 0, 67, 71
2, 76112, Note_on_c, 0, 52, 0
2, 76120, Note_on_c, 0, 67, 0
2, 76137, Note_on_c, 0, 54, 77
2, 76140, Note_on_c, 0, 76, 0
2, 76226, Note_on_c, 0, 55, 80
2, 76236, Note_on_c, 0, 54, 0
2, 76237, Note_on_c, 0, 74, 90
2, 76249, Note_on_c, 0, 66, 77
2, 76293, Note_on_c, 0, 55, 0
2, 76309, Note_on_c, 0, 74, 0
2, 76317, Note_on_c, 0, 57, 78
2, 76318, Note_on_c, 0, 66, 0
2, 76414, Note_on_c, 0, 58, 82
2, 76414, Note_on_c, 0, 76, 98
2, 76428, Note_on_c, 0, 57, 0
2, 76428, Note_on_c, 0, 67, 78
2, 76458, Note_on_c, 0, 67, 0
2, 76475, Note_on_c, 0, 76, 0
2, 76504, Control_c, 0, 64, 29
2, 76598, Note_on_c, 0, 73, 89
2, 76611, Note_on_c, 0, 64, 74
2, 76638, Note_on_c, 0, 64, 0
2, 76652, Note_on_c, 0, 73, 0
2, 76678, Control_c, 0, 64, 29
2, 76775, Note_on_c, 0, 74, 86
2, 76783, Note_on_c, 0, 66, 77
2, 76799, Control_c, 0, 64, 28
2, 76815, Note_on_c, 0, 66, 0
2, 76818, Note_on_c, 0, 74, 0
2, 76830, Control_c, 0, 64, 28
2, 76906, Control_c, 0, 64, 27
2, 76936, Note_on_c, 0, 74, 67
2, 76952, Note_on_c, 0, 64, 67
2, 76968, Note_on_c, 0, 74, 0
2, 76973, Note_on_c, 0, 73, 73
2, 76984, Note_on_c, 0, 58, 0
2, 77011, Control_c, 0, 64, 26
2, 77011, Note_on_c, 0, 57, 56
2, 77025, Note_on_c, 0, 73, 0
2, 77035, Note_on_c, 0, 74, 69
2, 77065, Note_on_c, 0, 57, 0
2, 77081, Note_on_c, 0, 73, 61
2, 77097, Note_on_c, 0, 58, 57
2, 77101, Note_on_c, 0, 74, 0
2, 77118, Note_on_c, 0, 74, 51
2, 77142, Note_on_c, 0, 58, 0
2, 77149, Note_on_c, 0, 73, 0
2, 77164, Note_on_c, 0, 73, 46
2, 77173, Note_on_c, 0, 55, 57
2, 77185, Note_on_c, 0, 74, 0
2, 77223, Note_on_c, 0, 73, 0
2, 77235, Note_on_c, 0, 55, 0
2, 77267, Note_on_c, 0, 52, 57
2, 77334, Note_on_c, 0, 64, 0
2, 77359, Note_on_c, 0, 52, 0
2, 77370, Note_on_c, 0, 55, 54
2, 77424, Note_on_c, 0, 55, 0
2, 77428, Note_on_c, 0, 65, 64
2, 77455, Note_on_c, 0, 57, 60
2, 77477, Note_on_c, 0, 65, 0
2, 77504, Note_on_c, 0, 57, 0
2, 77521, Note_on_c, 0, 64, 60
2, 77540, Note_on_c, 0, 55, 60
2, 77580, Note_on_c, 0, 55, 0
2, 77594, Note_on_c, 0, 64, 0
2, 77603, Note_on_c, 0, 65, 59
2, 77614, Note_on_c, 0, 57, 59
2, 77641, Note_on_c, 0, 65, 0
2, 77654, Note_on_c, 0, 57, 0
2, 77681, Note_on_c, 0, 62, 57
2, 77683, Note_on_c, 0, 53, 61
2, 77735, Note_on_c, 0, 62, 0
2, 77737, Note_on_c, 0, 53, 0
2, 77767, Note_on_c, 0, 50, 55
2, 77774, Note_on_c, 0, 69, 66
2, 77833, Note_on_c, 0, 50, 0
2, 77833, Note_on_c, 0, 69, 0
2, 77866, Note_on_c, 0, 53, 50
2, 77867, Note_on_c, 0, 65, 57
2, 77928, Note_on_c, 0, 53, 0
2, 77950, Note_on_c, 0, 70, 72
2, 77959, Note_on_c, 0, 55, 56
2, 78023, Note_on_c, 0, 55, 0
2, 78047, Note_on_c, 0, 53, 63
2, 78103, Note_on_c, 0, 53, 0
2, 78136, Note_on_c, 0, 55, 65
2, 78138, Note_on_c, 0, 64, 60
2, 78152, Control_c, 0, 64, 27
2, 78159, Note_on_c, 0, 65, 0
2, 78178, Note_on_c, 0, 64, 0
2, 78190, Note_on_c, 0, 55, 0
2, 78206, Note_on_c, 0, 52, 57
2, 78280, Note_on_c, 0, 52, 0
2, 78304, Note_on_c, 0, 49, 58
2, 78314, Note_on_c, 0, 67, 68
2, 78316, Note_on_c, 0, 70, 0
2, 78373, Note_on_c, 0, 49, 0
2, 78399, Note_on_c, 0, 52, 45
2, 78437, Note_on_c, 0, 52, 0
2, 78472, Note_on_c, 0, 53, 61
2, 78474, Note_on_c, 0, 69, 86
2, 78520, Note_on_c, 0, 53, 0
2, 78550, Note_on_c, 0, 52, 62
2, 78590, Note_on_c, 0, 67, 0
2, 78624, Note_on_c, 0, 52, 0
2, 78640, Note_on_c, 0, 53, 68
2, 78652, Note_on_c, 0, 61, 64
2, 78689, Note_on_c, 0, 61, 0
2, 78693, Note_on_c, 0, 53, 0
2, 78727, Note_on_c, 0, 50, 64
2, 78799, Note_on_c, 0, 50, 0
2, 78830, Note_on_c, 0, 47, 58
2, 78836, Note_on_c, 0, 62, 78
2, 78842, Note_on_c, 0, 69, 0
2, 78913, Note_on_c, 0, 50, 56
2, 78914, Note_on_c, 0, 47, 0
2, 78969, Note_on_c, 0, 50, 0
2, 79002, Note_on_c, 0, 52, 64
2, 79007, Note_on_c, 0, 67, 94
2, 79067, Note_on_c, 0, 52, 0
2, 79086, Note_on_c, 0, 50, 66
2, 79144, Note_on_c, 0, 50, 0
2, 79166, Note_on_c, 0, 52, 71
2, 79186, Note_on_c, 0, 61, 73
2, 79217, Note_on_c, 0, 62, 0
2, 79231, Note_on_c, 0, 52, 0
2, 79247, Note_on_c, 0, 61, 0
2, 79248, Note_on_c, 0, 49, 67
2, 79317, Note_on_c, 0, 49, 0
2, 79343, Note_on_c, 0, 45, 62
2, 79357, Note_on_c, 0, 67, 0
2, 79359, Note_on_c, 0, 64, 85
2, 79434, Note_on_c, 0, 49, 65
2, 79439, Note_on_c, 0, 45, 0
2, 79503, Note_on_c, 0, 49, 0
2, 79521, Note_on_c, 0, 65, 92
2, 79523, Note_on_c, 0, 50, 71
2, 79571, Note_on_c, 0, 50, 0
2, 79628, Note_on_c, 0, 49, 64
2, 79658, Note_on_c, 0, 64, 0
2, 79691, Note_on_c, 0, 49, 0
2, 79696, Note_on_c, 0, 50, 71
2, 79720, Note_on_c, 0, 57, 70
2, 79755, Note_on_c, 0, 50, 0
2, 79763, Note_on_c, 0, 57, 0
2, 79798, Note_on_c, 0, 53, 69
2, 79842, Note_on_c, 0, 53, 0
2, 79879, Note_on_c, 0, 47, 61
2, 79910, Note_on_c, 0, 62, 70
2, 79918, Note_on_c, 0, 47, 0
2, 79965, Note_on_c, 0, 50, 67
2, 80004, Note_on_c, 0, 65, 0
2, 80017, Note_on_c, 0, 50, 0
2, 80062, Note_on_c, 0, 44, 58
2, 80063, Note_on_c, 0, 59, 73
2, 80071, Note_on_c, 0, 62, 0
2, 80116, Note_on_c, 0, 59, 0
2, 80127, Note_on_c, 0, 44, 0
2, 80132, Note_on_c, 0, 64, 62
2, 80158, Note_on_c, 0, 45, 61
2, 80199, Note_on_c, 0, 45, 0
2, 80208, Note_on_c, 0, 62, 65
2, 80215, Note_on_c, 0, 64, 0
2, 80225, Note_on_c, 0, 44, 59
2, 80260, Note_on_c, 0, 44, 0
2, 80275, Note_on_c, 0, 62, 0
2, 80280, Note_on_c, 0, 45, 71
2, 80296, Note_on_c, 0, 61, 68
2, 80328, Note_on_c, 0, 45, 0
2, 80338, Note_on_c, 0, 44, 73
2, 80366, Note_on_c, 0, 61, 0
2, 80381, Note_on_c, 0, 44, 0
2, 80400, Note_on_c, 0, 62, 75
2, 80420, Note_on_c, 0, 45, 76
2, 80470, Note_on_c, 0, 45, 0
2, 80479, Note_on_c, 0, 62, 0
2, 80484, Note_on_c, 0, 44, 72
2, 80494, Note_on_c, 0, 65, 80
2, 80523, Note_on_c, 0, 44, 0
2, 80544, Note_on_c, 0, 45, 75
2, 80573, Note_on_c, 0, 71, 92
2, 80578, Note_on_c, 0, 65, 0
2, 80596, Note_on_c, 0, 45, 0
2, 80613, Note_on_c, 0, 44, 75
2, 80655, Note_on_c, 0, 44, 0
2, 80667, Note_on_c, 0, 65, 80
2, 80677, Note_on_c, 0, 45, 73
2, 80707, Note_on_c, 0, 71, 0
2, 80726, Note_on_c, 0, 45, 0
2, 80744, Note_on_c, 0, 44, 70
2, 80755, Note_on_c, 0, 64, 83
2, 80763, Note_on_c, 0, 65, 0
2, 80788, Note_on_c, 0, 44, 0
2, 80810, Note_on_c, 0, 45, 76
2, 80813, Note_on_c, 0, 64, 0
2, 80839, Note_on_c, 0, 62, 80
2, 80867, Note_on_c, 0, 45, 0
2, 80873, Note_on_c, 0, 44, 73
2, 80918, Note_on_c, 0, 44, 0
2, 80925, Note_on_c, 0, 61, 80
2, 80939, Note_on_c, 0, 62, 0
2, 80940, Note_on_c, 0, 45, 70
2, 80997, Note_on_c, 0, 45, 0
2, 81005, Note_on_c, 0, 59, 85
2, 81006, Note_on_c, 0, 44, 67
2, 81011, Note_on_c, 0, 61, 0
2, 81072, Note_on_c, 0, 44, 0
2, 81090, Note_on_c, 0, 61, 88
2, 81099, Note_on_c, 0, 45, 78
2, 81116, Note_on_c, 0, 59, 0
2, 81172, Note_on_c, 0, 61, 0
2, 81195, Note_on_c, 0, 57, 84
2, 81287, Note_on_c, 0, 55, 87
2, 81299, Note_on_c, 0, 57, 0
2, 81353, Note_on_c, 0, 45, 0
2, 81368, Note_on_c, 0, 54, 85
2, 81396, Note_on_c, 0, 55, 0
2, 81457, Note_on_c, 0, 52, 85
2, 81481, Note_on_c, 0, 54, 0
2, 81526, Note_on_c, 0, 52, 0
2, 81530, Note_on_c, 0, 50, 86
2, 81614, Note_on_c, 0, 49, 91
2, 81633, Note_on_c, 0, 50, 0
2, 81641, Note_on_c, 0, 51, 58
2, 81668, Note_on_c, 0, 51, 0
2, 81714, Note_on_c, 0, 47, 84
2, 81723, Control_c, 0, 64, 26
2, 81729, Note_on_c, 0, 49, 0
2, 81738, Control_c, 0, 64, 23
2, 81788, Note_on_c, 0, 47, 0
2, 81790, Note_on_c, 0, 45, 85
2, 81800, Control_c, 0, 64, 22
2, 81879, Note_on_c, 0, 43, 81
2, 81890, Note_on_c, 0, 45, 0
2, 81961, Note_on_c, 0, 42, 85
2, 81975, Note_on_c, 0, 43, 0
2, 82064, Note_on_c, 0, 40, 78
2, 82089, Note_on_c, 0, 42, 0
2, 82169, Note_on_c, 0, 38, 84
2, 82188, Control_c, 0, 64, 21
2, 82199, Note_on_c, 0, 40, 0
2, 82203, Control_c, 0, 64, 20
2, 82218, Control_c, 0, 64, 18
2, 82234, Control_c, 0, 64, 15
2, 82249, Control_c, 0, 64, 10
2, 82264, Control_c, 0, 64, 0
2, 82405, Note_on_c, 0, 50, 76
2, 82464, Note_on_c, 0, 50, 0
2, 82474, Note_on_c, 0, 52, 75
2, 82556, Note_on_c, 0, 38, 0
2, 82558, Note_on_c, 0, 54, 79
2, 82568, Note_on_c, 0, 52, 0
2, 82639, Note_on_c, 0, 55, 74
2, 82655, Note_on_c, 0, 54, 0
2, 82738, Note_on_c, 0, 57, 76
2, 82751, Note_on_c, 0, 55, 0
2, 82788, Note_on_c, 0, 57, 0
2, 82924, Note_on_c, 0, 54, 74
2, 82958, Note_on_c, 0, 54, 0
2, 83095, Note_on_c, 0, 57, 74
2, 83124, Note_on_c, 0, 57, 0
2, 83252, Note_on_c, 0, 62, 86
2, 83298, Note_on_c, 0, 62, 0
2, 83367, Control_c, 0, 64, 8
2, 83397, Control_c, 0, 64, 10
2, 83412, Control_c, 0, 64, 12
2, 83421, Note_on_c, 0, 57, 85
2, 83465, Control_c, 0, 64, 14
2, 83479, Note_on_c, 0, 57, 0
2, 83481, Control_c, 0, 64, 15
2, 83496, Control_c, 0, 64, 16
2, 83541, Control_c, 0, 64, 17
2, 83588, Note_on_c, 0, 62, 92
2, 83637, Note_on_c, 0, 62, 0
2, 83759, Note_on_c, 0, 66, 93
2, 83817, Note_on_c, 0, 66, 0
2, 83919, Note_on_c, 0, 62, 89
2, 83966, Note_on_c, 0, 62, 0
2, 84074, Control_c, 0, 64, 18
2, 84086, Note_on_c, 0, 66, 81
2, 84148, Note_on_c, 0, 66, 0
2, 84150, Control_c, 0, 64, 19
2, 84297, Note_on_c, 0, 69, 94
2, 84434, Control_c, 0, 64, 23
2, 84448, Control_c, 0, 64, 37
2, 84464, Control_c, 0, 64, 51
2, 84479, Control_c, 0, 64, 61
2, 84495, Control_c, 0, 64, 69
2, 84498, Note_on_c, 0, 69, 0
2, 84511, Control_c, 0, 64, 80
2, 84526, Control_c, 0, 64, 110
2, 84541, Control_c, 0, 64, 127
2, 84784, Control_c, 0, 64, 109
2, 84798, Control_c, 0, 64, 93
2, 84813, Control_c, 0, 64, 86
2, 84829, Control_c, 0, 64, 82
2, 84844, Control_c, 0, 64, 81
2, 84859, Control_c, 0, 64, 78
2, 84874, Control_c, 0, 64, 71
2, 84878,End_track
0, 0, End_of_file
