0, 0, Header, 1, 2, 384
1, 0, Start_track
1, 0, Tempo, 500000
1, 0, Time_signature, 4, 2, 24, 8
1, 1, End_track
2,0,Start_track
2,0, Note_on_c, 0, 78, 95
2,11, Control_c, 0, 64, 61
2,11, Note_on_c, 0, 69, 79
2,19, Note_on_c, 0, 50, 58
2,27, Control_c, 0, 64, 0
2,156, Control_c, 0, 64, 52
2,171, Control_c, 0, 64, 62
2,187, Control_c, 0, 64, 66
2,201, Control_c, 0, 64, 69
2,216, Control_c, 0, 64, 73
2,232, Control_c, 0, 64, 80
2,247, Control_c, 0, 64, 90
2,252, Note_on_c, 0, 69, 0
2,256, Note_on_c, 0, 78, 0
2,263, Control_c, 0, 64, 100
2,278, Control_c, 0, 64, 107
2,293, Control_c, 0, 64, 108
2,308, Control_c, 0, 64, 109
2,323, Control_c, 0, 64, 109
2,351, Note_on_c, 0, 50, 0
2,400, Control_c, 0, 64, 109
2,414, Control_c, 0, 64, 108
2,431, Control_c, 0, 64, 106
2,446, Control_c, 0, 64, 104
2,460, Control_c, 0, 64, 102
2,476, Control_c, 0, 64, 99
2,491, Control_c, 0, 64, 98
2,507, Control_c, 0, 64, 96
2,522, Control_c, 0, 64, 94
2,537, Control_c, 0, 64, 91
2,553, Control_c, 0, 64, 88
2,556, Note_on_c, 0, 78, 95
2,562, Note_on_c, 0, 69, 80
2,565, Note_on_c, 0, 57, 68
2,567, Control_c, 0, 64, 83
2,583, Control_c, 0, 64, 78
2,597, Control_c, 0, 64, 71
2,612, Control_c, 0, 64, 64
2,628, Control_c, 0, 64, 53
2,642, Control_c, 0, 64, 29
2,657, Control_c, 0, 64, 0
2,781, Note_on_c, 0, 78, 0
2,825, Note_on_c, 0, 76, 83
2,834, Note_on_c, 0, 67, 58
2,848, Note_on_c, 0, 69, 0
2,886, Control_c, 0, 64, 24
2,909, Control_c, 0, 64, 47
2,923, Control_c, 0, 64, 57
2,938, Control_c, 0, 64, 61
2,946, Note_on_c, 0, 76, 0
2,954, Control_c, 0, 64, 65
2,969, Control_c, 0, 64, 70
2,984, Control_c, 0, 64, 79
2,988, Note_on_c, 0, 67, 0
2,999, Control_c, 0, 64, 92
2,1014, Control_c, 0, 64, 107
2,1030, Control_c, 0, 64, 121
2,1060, Control_c, 0, 64, 114
2,1075, Note_on_c, 0, 57, 0
2,1076, Control_c, 0, 64, 107
2,1091, Control_c, 0, 64, 101
2,1101, Note_on_c, 0, 76, 90
2,1103, Note_on_c, 0, 45, 61
2,1106, Control_c, 0, 64, 95
2,1106, Note_on_c, 0, 67, 79
2,1121, Control_c, 0, 64, 87
2,1136, Control_c, 0, 64, 74
2,1152, Control_c, 0, 64, 63
2,1167, Control_c, 0, 64, 42
2,1181, Control_c, 0, 64, 0
2,1243, Control_c, 0, 64, 20
2,1259, Control_c, 0, 64, 25
2,1274, Control_c, 0, 64, 26
2,1320, Control_c, 0, 64, 25
2,1329, Note_on_c, 0, 76, 0
2,1374, Note_on_c, 0, 74, 75
2,1386, Note_on_c, 0, 66, 68
2,1423, Note_on_c, 0, 67, 0
2,1473, Control_c, 0, 64, 24
2,1487, Control_c, 0, 64, 22
2,1518, Control_c, 0, 64, 21
2,1533, Control_c, 0, 64, 16
2,1549, Control_c, 0, 64, 0
2,1561, Note_on_c, 0, 74, 0
2,1577, Note_on_c, 0, 66, 0
2,1652, Control_c, 0, 64, 39
2,1662, Note_on_c, 0, 74, 80
2,1663, Note_on_c, 0, 45, 0
2,1666, Note_on_c, 0, 50, 60
2,1671, Note_on_c, 0, 66, 74
2,1676, Control_c, 0, 64, 55
2,1690, Control_c, 0, 64, 64
2,1705, Control_c, 0, 64, 73
2,1705, Note_on_c, 0, 74, 0
2,1721, Control_c, 0, 64, 88
2,1721, Note_on_c, 0, 66, 0
2,1736, Control_c, 0, 64, 127
2,1806, Note_on_c, 0, 50, 0
2,1873, Control_c, 0, 64, 97
2,1888, Control_c, 0, 64, 76
2,1902, Control_c, 0, 64, 59
2,1918, Control_c, 0, 64, 12
2,1933, Control_c, 0, 64, 0
2,1938, Note_on_c, 0, 62, 55
2,1975, Note_on_c, 0, 62, 0
2,2001, Note_on_c, 0, 64, 65
2,2061, Note_on_c, 0, 64, 0
2,2083, Note_on_c, 0, 66, 63
2,2143, Note_on_c, 0, 66, 0
2,2154, Note_on_c, 0, 67, 65
2,2227, Note_on_c, 0, 69, 77
2,2228, Note_on_c, 0, 67, 0
2,2256, Note_on_c, 0, 69, 0
2,2409, Note_on_c, 0, 66, 77
2,2433, Note_on_c, 0, 60, 67
2,2450, Note_on_c, 0, 66, 0
2,2494, Note_on_c, 0, 59, 74
2,2501, Note_on_c, 0, 60, 0
2,2568, Note_on_c, 0, 57, 80
2,2579, Note_on_c, 0, 69, 87
2,2582, Note_on_c, 0, 59, 0
2,2628, Note_on_c, 0, 69, 0
2,2664, Note_on_c, 0, 57, 0
2,2670, Note_on_c, 0, 55, 72
2,2739, Note_on_c, 0, 72, 96
2,2744, Note_on_c, 0, 54, 78
2,2759, Note_on_c, 0, 55, 0
2,2791, Note_on_c, 0, 54, 0
2,2792, Note_on_c, 0, 72, 0
2,2917, Note_on_c, 0, 57, 81
2,2917, Note_on_c, 0, 69, 96
2,2959, Note_on_c, 0, 57, 0
2,2970, Note_on_c, 0, 69, 0
2,3079, Note_on_c, 0, 72, 103
2,3082, Note_on_c, 0, 54, 81
2,3117, Note_on_c, 0, 54, 0
2,3128, Note_on_c, 0, 72, 0
2,3255, Note_on_c, 0, 50, 75
2,3255, Note_on_c, 0, 78, 100
2,3298, Note_on_c, 0, 50, 0
2,3321, Note_on_c, 0, 78, 0
2,3423, Note_on_c, 0, 54, 79
2,3427, Note_on_c, 0, 72, 97
2,3461, Note_on_c, 0, 54, 0
2,3472, Note_on_c, 0, 72, 0
2,3591, Note_on_c, 0, 50, 70
2,3593, Note_on_c, 0, 78, 93
2,3626, Note_on_c, 0, 50, 0
2,3657, Note_on_c, 0, 78, 0
2,3764, Note_on_c, 0, 81, 96
2,3770, Note_on_c, 0, 45, 73
2,3826, Note_on_c, 0, 45, 0
2,3977, Note_on_c, 0, 50, 81
2,3998, Note_on_c, 0, 81, 0
2,4009, Note_on_c, 0, 50, 0
2,4139, Note_on_c, 0, 45, 77
2,4172, Note_on_c, 0, 45, 0
2,4319, Note_on_c, 0, 74, 85
2,4324, Note_on_c, 0, 69, 77
2,4368, Note_on_c, 0, 72, 78
2,4369, Note_on_c, 0, 74, 0
2,4428, Note_on_c, 0, 72, 0
2,4434, Note_on_c, 0, 74, 73
2,4463, Note_on_c, 0, 45, 63
2,4477, Note_on_c, 0, 72, 72
2,4504, Note_on_c, 0, 74, 0
2,4522, Note_on_c, 0, 45, 0
2,4652, Note_on_c, 0, 42, 72
2,4689, Note_on_c, 0, 72, 0
2,4690, Note_on_c, 0, 42, 0
2,4715, Note_on_c, 0, 69, 0
2,4861, Note_on_c, 0, 38, 56
2,4877, Note_on_c, 0, 72, 67
2,4889, Note_on_c, 0, 69, 46
2,5124, Note_on_c, 0, 67, 74
2,5127, Note_on_c, 0, 71, 83
2,5157, Note_on_c, 0, 72, 0
2,5163, Note_on_c, 0, 69, 0
2,5202, Control_c, 0, 64, 16
2,5217, Control_c, 0, 64, 30
2,5233, Control_c, 0, 64, 38
2,5247, Control_c, 0, 64, 44
2,5262, Control_c, 0, 64, 49
2,5278, Control_c, 0, 64, 52
2,5293, Control_c, 0, 64, 54
2,5305, Note_on_c, 0, 71, 0
2,5308, Control_c, 0, 64, 55
2,5323, Control_c, 0, 64, 55
2,5352, Note_on_c, 0, 67, 0
2,5370, Control_c, 0, 64, 55
2,5385, Control_c, 0, 64, 54
2,5401, Control_c, 0, 64, 53
2,5403, Note_on_c, 0, 38, 0
2,5416, Control_c, 0, 64, 52
2,5416, Note_on_c, 0, 71, 75
2,5424, Note_on_c, 0, 50, 60
2,5425, Note_on_c, 0, 67, 67
2,5431, Control_c, 0, 64, 51
2,5446, Control_c, 0, 64, 49
2,5461, Control_c, 0, 64, 48
2,5476, Control_c, 0, 64, 48
2,5491, Control_c, 0, 64, 47
2,5515, Control_c, 0, 64, 46
2,5530, Control_c, 0, 64, 46
2,5560, Control_c, 0, 64, 45
2,5591, Control_c, 0, 64, 45
2,5651, Control_c, 0, 64, 44
2,5651, Note_on_c, 0, 67, 0
2,5691, Note_on_c, 0, 71, 0
2,5694, Note_on_c, 0, 66, 68
2,5699, Note_on_c, 0, 69, 70
2,5787, Control_c, 0, 64, 44
2,5818, Control_c, 0, 64, 43
2,5834, Control_c, 0, 64, 42
2,5844, Note_on_c, 0, 50, 0
2,5849, Control_c, 0, 64, 41
2,5864, Control_c, 0, 64, 39
2,5879, Control_c, 0, 64, 35
2,5894, Control_c, 0, 64, 30
2,5910, Control_c, 0, 64, 20
2,5925, Control_c, 0, 64, 0
2,5944, Note_on_c, 0, 66, 0
2,5956, Note_on_c, 0, 43, 68
2,5964, Note_on_c, 0, 69, 0
2,5970, Control_c, 0, 64, 32
2,5973, Note_on_c, 0, 71, 73
2,5979, Note_on_c, 0, 67, 74
2,5985, Control_c, 0, 64, 51
2,6001, Control_c, 0, 64, 62
2,6010, Note_on_c, 0, 67, 0
2,6013, Note_on_c, 0, 71, 0
2,6016, Control_c, 0, 64, 69
2,6032, Control_c, 0, 64, 80
2,6046, Control_c, 0, 64, 112
2,6061, Control_c, 0, 64, 127
2,6169, Control_c, 0, 64, 123
2,6173, Note_on_c, 0, 83, 103
2,6183, Control_c, 0, 64, 95
2,6199, Control_c, 0, 64, 76
2,6214, Control_c, 0, 64, 65
2,6230, Control_c, 0, 64, 52
2,6245, Control_c, 0, 64, 36
2,6260, Control_c, 0, 64, 29
2,6268, Note_on_c, 0, 81, 84
2,6283, Control_c, 0, 64, 27
2,6298, Control_c, 0, 64, 26
2,6314, Control_c, 0, 64, 25
2,6324, Note_on_c, 0, 83, 0
2,6328, Control_c, 0, 64, 20
2,6329, Note_on_c, 0, 50, 75
2,6335, Note_on_c, 0, 43, 0
2,6343, Control_c, 0, 64, 12
2,6354, Note_on_c, 0, 79, 89
2,6359, Control_c, 0, 64, 0
2,6366, Note_on_c, 0, 50, 0
2,6395, Note_on_c, 0, 81, 0
2,6426, Note_on_c, 0, 78, 95
2,6449, Note_on_c, 0, 79, 0
2,6510, Note_on_c, 0, 76, 93
2,6514, Note_on_c, 0, 55, 86
2,6515, Note_on_c, 0, 78, 0
2,6565, Note_on_c, 0, 76, 0
2,6671, Note_on_c, 0, 55, 0
2,6676, Note_on_c, 0, 79, 87
2,6731, Note_on_c, 0, 79, 0
2,6845, Note_on_c, 0, 55, 74
2,6853, Note_on_c, 0, 76, 80
2,6878, Note_on_c, 0, 55, 0
2,6892, Note_on_c, 0, 76, 0
2,7014, Note_on_c, 0, 55, 72
2,7022, Note_on_c, 0, 73, 80
2,7052, Note_on_c, 0, 73, 0
2,7074, Note_on_c, 0, 55, 0
2,7075, Note_on_c, 0, 54, 67
2,7115, Note_on_c, 0, 54, 0
2,7118, Note_on_c, 0, 55, 64
2,7218, Control_c, 0, 64, 8
2,7248, Control_c, 0, 64, 10
2,7258, Note_on_c, 0, 57, 70
2,7263, Control_c, 0, 64, 12
2,7305, Note_on_c, 0, 55, 0
2,7306, Note_on_c, 0, 57, 0
2,7334, Note_on_c, 0, 59, 71
2,7339, Control_c, 0, 64, 14
2,7400, Control_c, 0, 64, 15
2,7411, Note_on_c, 0, 59, 0
2,7415, Note_on_c, 0, 61, 65
2,7470, Note_on_c, 0, 61, 0
2,7476, Control_c, 0, 64, 16
2,7498, Note_on_c, 0, 62, 61
2,7574, Note_on_c, 0, 64, 73
2,7577, Note_on_c, 0, 62, 0
2,7602, Note_on_c, 0, 64, 0
2,7748, Note_on_c, 0, 45, 57
2,7753, Note_on_c, 0, 61, 62
2,7787, Note_on_c, 0, 61, 0
2,7813, Note_on_c, 0, 45, 0
2,7827, Note_on_c, 0, 43, 66
2,7895, Note_on_c, 0, 43, 0
2,7906, Note_on_c, 0, 42, 70
2,7931, Note_on_c, 0, 64, 60
2,7972, Note_on_c, 0, 64, 0
2,7981, Note_on_c, 0, 42, 0
2,7994, Note_on_c, 0, 40, 68
2,8082, Note_on_c, 0, 42, 81
2,8088, Note_on_c, 0, 40, 0
2,8094, Note_on_c, 0, 69, 76
2,8129, Note_on_c, 0, 69, 0
2,8278, Note_on_c, 0, 81, 91
2,8287, Control_c, 0, 64, 17
2,8347, Control_c, 0, 64, 18
2,8352, Note_on_c, 0, 79, 81
2,8363, Control_c, 0, 64, 19
2,8403, Note_on_c, 0, 42, 0
2,8414, Note_on_c, 0, 81, 0
2,8439, Control_c, 0, 64, 20
2,8440, Note_on_c, 0, 78, 87
2,8448, Note_on_c, 0, 54, 73
2,8479, Note_on_c, 0, 79, 0
2,8501, Note_on_c, 0, 54, 0
2,8524, Note_on_c, 0, 76, 85
2,8555, Note_on_c, 0, 78, 0
2,8599, Control_c, 0, 64, 19
2,8606, Note_on_c, 0, 76, 0
2,8613, Note_on_c, 0, 74, 88
2,8622, Note_on_c, 0, 54, 71
2,8658, Note_on_c, 0, 74, 0
2,8705, Control_c, 0, 64, 18
2,8790, Note_on_c, 0, 54, 0
2,8797, Note_on_c, 0, 78, 86
2,8838, Note_on_c, 0, 78, 0
2,8949, Note_on_c, 0, 74, 73
2,8955, Note_on_c, 0, 54, 61
2,8975, Note_on_c, 0, 74, 0
2,8987, Note_on_c, 0, 54, 0
2,9111, Note_on_c, 0, 73, 74
2,9131, Note_on_c, 0, 54, 59
2,9145, Note_on_c, 0, 73, 0
2,9163, Note_on_c, 0, 71, 74
2,9197, Note_on_c, 0, 71, 0
2,9206, Note_on_c, 0, 73, 78
2,9247, Note_on_c, 0, 71, 75
2,9253, Note_on_c, 0, 73, 0
2,9283, Note_on_c, 0, 71, 0
2,9338, Note_on_c, 0, 55, 61
2,9346, Note_on_c, 0, 54, 0
2,9439, Note_on_c, 0, 55, 0
2,9439, Note_on_c, 0, 57, 63
2,9474, Note_on_c, 0, 57, 0
2,9517, Note_on_c, 0, 59, 19
2,9551, Note_on_c, 0, 60, 7
2,9566, Note_on_c, 0, 59, 0
2,9577, Note_on_c, 0, 61, 65
2,9583, Note_on_c, 0, 60, 0
2,9638, Note_on_c, 0, 61, 0
2,9655, Note_on_c, 0, 62, 60
2,9701, Note_on_c, 0, 62, 0
2,9834, Note_on_c, 0, 43, 55
2,9846, Note_on_c, 0, 59, 66
2,9874, Note_on_c, 0, 43, 0
2,9875, Note_on_c, 0, 59, 0
2,9907, Note_on_c, 0, 42, 61
2,9978, Note_on_c, 0, 42, 0
2,9986, Note_on_c, 0, 40, 65
2,10009, Note_on_c, 0, 62, 61
2,10043, Note_on_c, 0, 62, 0
2,10054, Note_on_c, 0, 40, 0
2,10079, Note_on_c, 0, 38, 56
2,10160, Note_on_c, 0, 38, 0
2,10164, Note_on_c, 0, 40, 61
2,10169, Note_on_c, 0, 67, 75
2,10191, Note_on_c, 0, 40, 0
2,10226, Control_c, 0, 64, 19
2,10272, Control_c, 0, 64, 20
2,10303, Control_c, 0, 64, 24
2,10319, Control_c, 0, 64, 26
2,10334, Control_c, 0, 64, 28
2,10338, Note_on_c, 0, 67, 0
2,10348, Control_c, 0, 64, 29
2,10364, Control_c, 0, 64, 29
2,10371, Note_on_c, 0, 59, 88
2,10394, Control_c, 0, 64, 30
2,10446, Note_on_c, 0, 57, 78
2,10452, Note_on_c, 0, 59, 0
2,10510, Note_on_c, 0, 55, 75
2,10522, Note_on_c, 0, 71, 83
2,10524, Note_on_c, 0, 57, 0
2,10525, Note_on_c, 0, 67, 79
2,10571, Note_on_c, 0, 71, 0
2,10579, Note_on_c, 0, 67, 0
2,10601, Note_on_c, 0, 54, 65
2,10616, Note_on_c, 0, 55, 0
2,10682, Note_on_c, 0, 52, 72
2,10690, Note_on_c, 0, 54, 0
2,10693, Note_on_c, 0, 71, 88
2,10695, Note_on_c, 0, 67, 83
2,10714, Note_on_c, 0, 52, 0
2,10729, Control_c, 0, 64, 29
2,10743, Control_c, 0, 64, 29
2,10774, Control_c, 0, 64, 28
2,10804, Control_c, 0, 64, 28
2,10880, Note_on_c, 0, 55, 73
2,10912, Note_on_c, 0, 55, 0
2,10926, Note_on_c, 0, 71, 0
2,10945, Note_on_c, 0, 67, 0
2,11051, Note_on_c, 0, 52, 67
2,11059, Note_on_c, 0, 71, 78
2,11064, Note_on_c, 0, 67, 74
2,11084, Note_on_c, 0, 52, 0
2,11103, Note_on_c, 0, 71, 0
2,11107, Note_on_c, 0, 67, 0
2,11245, Note_on_c, 0, 49, 52
2,11253, Note_on_c, 0, 70, 59
2,11271, Note_on_c, 0, 71, 69
2,11286, Note_on_c, 0, 69, 40
2,11288, Note_on_c, 0, 67, 39
2,11318, Note_on_c, 0, 69, 0
2,11319, Note_on_c, 0, 70, 0
2,11367, Note_on_c, 0, 49, 0
2,11421, Note_on_c, 0, 71, 0
2,11423, Note_on_c, 0, 69, 64
2,11425, Note_on_c, 0, 52, 61
2,11466, Note_on_c, 0, 52, 0
2,11588, Control_c, 0, 64, 27
2,11609, Note_on_c, 0, 49, 59
2,11649, Note_on_c, 0, 49, 0
2,11649, Note_on_c, 0, 69, 0
2,11677, Note_on_c, 0, 67, 0
2,11785, Note_on_c, 0, 45, 56
2,11818, Note_on_c, 0, 45, 0
2,11953, Note_on_c, 0, 69, 61
2,11961, Note_on_c, 0, 49, 48
2,12009, Note_on_c, 0, 49, 0
2,12018, Note_on_c, 0, 69, 0
2,12028, Note_on_c, 0, 67, 55
2,12095, Note_on_c, 0, 67, 0
2,12110, Note_on_c, 0, 45, 49
2,12114, Note_on_c, 0, 66, 57
2,12159, Note_on_c, 0, 45, 0
2,12159, Note_on_c, 0, 66, 0
2,12183, Note_on_c, 0, 64, 58
2,12238, Note_on_c, 0, 64, 0
2,12270, Note_on_c, 0, 50, 63
2,12281, Note_on_c, 0, 66, 69
2,12298, Note_on_c, 0, 50, 0
2,12311, Note_on_c, 0, 66, 0
2,12473, Note_on_c, 0, 54, 56
2,12481, Note_on_c, 0, 62, 55
2,12503, Note_on_c, 0, 54, 0
2,12517, Note_on_c, 0, 62, 0
2,12557, Note_on_c, 0, 64, 63
2,12593, Control_c, 0, 64, 28
2,12613, Note_on_c, 0, 64, 0
2,12620, Note_on_c, 0, 50, 47
2,12633, Note_on_c, 0, 66, 65
2,12660, Note_on_c, 0, 50, 0
2,12666, Note_on_c, 0, 66, 0
2,12708, Note_on_c, 0, 67, 71
2,12758, Note_on_c, 0, 67, 0
2,12787, Note_on_c, 0, 47, 46
2,12791, Note_on_c, 0, 69, 80
2,12794, Note_on_c, 0, 74, 78
2,12816, Note_on_c, 0, 47, 0
2,12935, Note_on_c, 0, 69, 0
2,12981, Note_on_c, 0, 50, 60
2,12991, Note_on_c, 0, 67, 68
2,12995, Note_on_c, 0, 74, 0
2,13015, Note_on_c, 0, 50, 0
2,13055, Note_on_c, 0, 67, 0
2,13067, Note_on_c, 0, 66, 73
2,13133, Note_on_c, 0, 47, 51
2,13141, Note_on_c, 0, 64, 77
2,13161, Note_on_c, 0, 66, 0
2,13181, Note_on_c, 0, 47, 0
2,13205, Note_on_c, 0, 64, 0
2,13220, Note_on_c, 0, 62, 80
2,13287, Note_on_c, 0, 62, 0
2,13300, Note_on_c, 0, 52, 76
2,13305, Note_on_c, 0, 67, 85
2,13306, Note_on_c, 0, 71, 89
2,13345, Note_on_c, 0, 52, 0
2,13467, Note_on_c, 0, 67, 0
2,13489, Note_on_c, 0, 55, 72
2,13489, Note_on_c, 0, 64, 84
2,13527, Note_on_c, 0, 55, 0
2,13536, Note_on_c, 0, 71, 0
2,13559, Note_on_c, 0, 64, 0
2,13566, Note_on_c, 0, 66, 83
2,13614, Note_on_c, 0, 66, 0
2,13645, Note_on_c, 0, 52, 73
2,13651, Note_on_c, 0, 67, 92
2,13680, Note_on_c, 0, 52, 0
2,13712, Note_on_c, 0, 67, 0
2,13731, Note_on_c, 0, 69, 87
2,13801, Note_on_c, 0, 49, 73
2,13810, Note_on_c, 0, 71, 87
2,13814, Note_on_c, 0, 76, 91
2,13827, Note_on_c, 0, 69, 0
2,13855, Note_on_c, 0, 49, 0
2,14002, Note_on_c, 0, 52, 74
2,14004, Note_on_c, 0, 69, 82
2,14014, Note_on_c, 0, 71, 0
2,14034, Note_on_c, 0, 52, 0
2,14056, Note_on_c, 0, 69, 0
2,14078, Note_on_c, 0, 67, 78
2,14130, Note_on_c, 0, 67, 0
2,14164, Note_on_c, 0, 66, 77
2,14176, Note_on_c, 0, 49, 69
2,14213, Note_on_c, 0, 49, 0
2,14230, Note_on_c, 0, 66, 0
2,14236, Note_on_c, 0, 64, 74
2,14270, Note_on_c, 0, 64, 0
2,14331, Note_on_c, 0, 69, 82
2,14337, Note_on_c, 0, 54, 78
2,14372, Note_on_c, 0, 54, 0
2,14548, Note_on_c, 0, 50, 67
2,14565, Note_on_c, 0, 76, 0
2,14619, Note_on_c, 0, 52, 66
2,14641, Note_on_c, 0, 50, 0
2,14648, Note_on_c, 0, 69, 0
2,14683, Note_on_c, 0, 67, 69
2,14696, Note_on_c, 0, 54, 75
2,14727, Note_on_c, 0, 52, 0
2,14761, Control_c, 0, 64, 28
2,14775, Note_on_c, 0, 55, 78
2,14791, Note_on_c, 0, 54, 0
2,14846, Note_on_c, 0, 55, 0
2,14853, Note_on_c, 0, 57, 84
2,14855, Note_on_c, 0, 67, 0
2,14861, Note_on_c, 0, 74, 91
2,14871, Note_on_c, 0, 66, 77
2,14890, Note_on_c, 0, 57, 0
2,14959, Control_c, 0, 64, 28
2,15040, Note_on_c, 0, 55, 77
2,15109, Note_on_c, 0, 54, 79
2,15112, Note_on_c, 0, 55, 0
2,15150, Note_on_c, 0, 74, 0
2,15179, Note_on_c, 0, 72, 81
2,15203, Note_on_c, 0, 52, 74
2,15209, Note_on_c, 0, 66, 0
2,15216, Note_on_c, 0, 54, 0
2,15245, Note_on_c, 0, 72, 0
2,15268, Note_on_c, 0, 50, 74
2,15269, Note_on_c, 0, 66, 41
2,15286, Note_on_c, 0, 52, 0
2,15361, Note_on_c, 0, 71, 91
2,15363, Note_on_c, 0, 66, 0
2,15364, Note_on_c, 0, 55, 92
2,15376, Note_on_c, 0, 66, 49
2,15387, Note_on_c, 0, 50, 0
2,15409, Note_on_c, 0, 55, 0
2,15460, Control_c, 0, 64, 27
2,15515, Control_c, 0, 64, 26
2,15552, Note_on_c, 0, 52, 78
2,15575, Note_on_c, 0, 66, 0
2,15647, Note_on_c, 0, 55, 71
2,15654, Note_on_c, 0, 54, 40
2,15673, Note_on_c, 0, 52, 0
2,15680, Note_on_c, 0, 71, 0
2,15694, Note_on_c, 0, 69, 82
2,15712, Note_on_c, 0, 55, 0
2,15738, Note_on_c, 0, 54, 0
2,15758, Note_on_c, 0, 57, 72
2,15847, Note_on_c, 0, 67, 84
2,15857, Note_on_c, 0, 59, 85
2,15867, Note_on_c, 0, 57, 0
2,15870, Note_on_c, 0, 69, 0
2,15880, Note_on_c, 0, 64, 66
2,15904, Note_on_c, 0, 59, 0
2,16038, Note_on_c, 0, 57, 84
2,16047, Control_c, 0, 64, 26
2,16063, Control_c, 0, 64, 24
2,16078, Control_c, 0, 64, 21
2,16093, Control_c, 0, 64, 19
2,16101, Note_on_c, 0, 55, 80
2,16103, Note_on_c, 0, 57, 0
2,16108, Control_c, 0, 64, 16
2,16123, Control_c, 0, 64, 14
2,16124, Note_on_c, 0, 64, 0
2,16154, Control_c, 0, 64, 12
2,16184, Control_c, 0, 64, 10
2,16191, Note_on_c, 0, 54, 76
2,16192, Note_on_c, 0, 55, 0
2,16199, Control_c, 0, 64, 0
2,16203, Note_on_c, 0, 62, 67
2,16240, Note_on_c, 0, 62, 0
2,16277, Note_on_c, 0, 52, 72
2,16286, Note_on_c, 0, 54, 0
2,16370, Note_on_c, 0, 57, 80
2,16376, Note_on_c, 0, 52, 0
2,16383, Note_on_c, 0, 61, 77
2,16447, Note_on_c, 0, 61, 0
2,16449, Control_c, 0, 64, 36
2,16465, Control_c, 0, 64, 59
2,16477, Note_on_c, 0, 57, 0
2,16480, Control_c, 0, 64, 67
2,16495, Control_c, 0, 64, 74
2,16510, Control_c, 0, 64, 79
2,16525, Control_c, 0, 64, 77
2,16540, Control_c, 0, 64, 69
2,16556, Control_c, 0, 64, 60
2,16571, Control_c, 0, 64, 33
2,16586, Control_c, 0, 64, 0
2,16592, Note_on_c, 0, 57, 63
2,16631, Note_on_c, 0, 57, 0
2,16632, Note_on_c, 0, 67, 0
2,16669, Note_on_c, 0, 59, 60
2,16716, Note_on_c, 0, 59, 0
2,16731, Note_on_c, 0, 61, 57
2,16734, Note_on_c, 0, 45, 56
2,16776, Note_on_c, 0, 45, 0
2,16795, Note_on_c, 0, 61, 0
2,16830, Note_on_c, 0, 62, 62
2,16867, Note_on_c, 0, 62, 0
2,16910, Note_on_c, 0, 67, 67
2,16912, Note_on_c, 0, 64, 59
2,16919, Note_on_c, 0, 45, 79
2,16952, Control_c, 0, 64, 33
2,16967, Control_c, 0, 64, 54
2,16983, Control_c, 0, 64, 61
2,16998, Control_c, 0, 64, 63
2,17013, Control_c, 0, 64, 64
2,17032, Note_on_c, 0, 45, 0
2,17036, Control_c, 0, 64, 63
2,17051, Control_c, 0, 64, 60
2,17067, Control_c, 0, 64, 54
2,17081, Control_c, 0, 64, 49
2,17081, Note_on_c, 0, 64, 0
2,17096, Control_c, 0, 64, 46
2,17096, Note_on_c, 0, 61, 72
2,17112, Control_c, 0, 64, 44
2,17127, Control_c, 0, 64, 42
2,17143, Control_c, 0, 64, 40
2,17144, Note_on_c, 0, 61, 0
2,17157, Control_c, 0, 64, 36
2,17172, Control_c, 0, 64, 33
2,17188, Control_c, 0, 64, 31
2,17190, Note_on_c, 0, 67, 0
2,17203, Control_c, 0, 64, 30
2,17254, Note_on_c, 0, 45, 85
2,17260, Note_on_c, 0, 64, 75
2,17265, Control_c, 0, 64, 30
2,17279, Control_c, 0, 64, 29
2,17285, Note_on_c, 0, 64, 0
2,17288, Note_on_c, 0, 45, 0
2,17294, Control_c, 0, 64, 29
2,17310, Control_c, 0, 64, 28
2,17325, Control_c, 0, 64, 26
2,17340, Control_c, 0, 64, 24
2,17355, Control_c, 0, 64, 23
2,17370, Control_c, 0, 64, 22
2,17425, Note_on_c, 0, 45, 85
2,17428, Note_on_c, 0, 73, 86
2,17435, Note_on_c, 0, 67, 67
2,17466, Note_on_c, 0, 67, 0
2,17476, Control_c, 0, 64, 21
2,17484, Note_on_c, 0, 45, 0
2,17487, Note_on_c, 0, 44, 82
2,17491, Control_c, 0, 64, 18
2,17507, Control_c, 0, 64, 15
2,17537, Control_c, 0, 64, 14
2,17543, Note_on_c, 0, 45, 83
2,17555, Note_on_c, 0, 44, 0
2,17598, Control_c, 0, 64, 12
2,17612, Control_c, 0, 64, 10
2,17625, Note_on_c, 0, 64, 83
2,17628, Control_c, 0, 64, 0
2,17674, Note_on_c, 0, 64, 0
2,17739, Note_on_c, 0, 73, 0
2,17778, Note_on_c, 0, 67, 92
2,17836, Note_on_c, 0, 67, 0
2,17961, Note_on_c, 0, 76, 96
2,17968, Note_on_c, 0, 73, 84
2,18001, Control_c, 0, 64, 10
2,18016, Control_c, 0, 64, 12
2,18032, Note_on_c, 0, 45, 0
2,18057, Note_on_c, 0, 73, 0
2,18133, Note_on_c, 0, 67, 92
2,18181, Note_on_c, 0, 67, 0
2,18185, Control_c, 0, 64, 10
2,18199, Control_c, 0, 64, 8
2,18221, Note_on_c, 0, 52, 81
2,18297, Note_on_c, 0, 54, 86
2,18304, Note_on_c, 0, 73, 90
2,18313, Note_on_c, 0, 52, 0
2,18314, Note_on_c, 0, 76, 0
2,18334, Control_c, 0, 64, 0
2,18371, Note_on_c, 0, 73, 0
2,18380, Note_on_c, 0, 55, 86
2,18413, Note_on_c, 0, 54, 0
2,18471, Note_on_c, 0, 57, 92
2,18477, Note_on_c, 0, 55, 0
2,18478, Note_on_c, 0, 66, 99
2,18557, Note_on_c, 0, 66, 0
2,18653, Note_on_c, 0, 74, 94
2,18663, Note_on_c, 0, 57, 0
2,18741, Note_on_c, 0, 73, 89
2,18747, Note_on_c, 0, 74, 0
2,18815, Note_on_c, 0, 45, 55
2,18818, Note_on_c, 0, 71, 81
2,18824, Note_on_c, 0, 73, 0
2,18861, Note_on_c, 0, 45, 0
2,18876, Note_on_c, 0, 71, 0
2,18885, Note_on_c, 0, 69, 72
2,18910, Note_on_c, 0, 69, 0
2,18997, Note_on_c, 0, 45, 55
2,19000, Note_on_c, 0, 62, 78
2,19003, Note_on_c, 0, 68, 74
2,19010, Control_c, 0, 64, 8
2,19025, Control_c, 0, 64, 10
2,19063, Note_on_c, 0, 68, 0
2,19071, Control_c, 0, 64, 12
2,19131, Control_c, 0, 64, 14
2,19162, Control_c, 0, 64, 15
2,19165, Note_on_c, 0, 45, 0
2,19176, Note_on_c, 0, 71, 71
2,19217, Note_on_c, 0, 71, 0
2,19328, Note_on_c, 0, 62, 0
2,19332, Note_on_c, 0, 45, 55
2,19351, Note_on_c, 0, 68, 71
2,19365, Note_on_c, 0, 45, 0
2,19391, Note_on_c, 0, 68, 0
2,19518, Note_on_c, 0, 45, 51
2,19531, Note_on_c, 0, 62, 65
2,19535, Note_on_c, 0, 59, 67
2,19565, Note_on_c, 0, 62, 0
2,19569, Note_on_c, 0, 45, 0
2,19595, Note_on_c, 0, 44, 48
2,19636, Note_on_c, 0, 44, 0
2,19658, Note_on_c, 0, 45, 55
2,19705, Note_on_c, 0, 68, 65
2,19761, Note_on_c, 0, 68, 0
2,19807, Note_on_c, 0, 59, 0
2,19892, Note_on_c, 0, 62, 41
2,19920, Note_on_c, 0, 62, 0
2,20054, Note_on_c, 0, 59, 52
2,20055, Note_on_c, 0, 56, 52
2,20102, Note_on_c, 0, 59, 0
2,20178, Note_on_c, 0, 45, 0
2,20258, Note_on_c, 0, 62, 39
2,20305, Note_on_c, 0, 62, 0
2,20413, Note_on_c, 0, 59, 51
2,20428, Note_on_c, 0, 56, 0
2,20442, Note_on_c, 0, 59, 0
2,20601, Note_on_c, 0, 61, 61
2,20638, Note_on_c, 0, 57, 32
2,20698, Control_c, 0, 64, 16
2,20772, Note_on_c, 0, 61, 0
2,20781, Note_on_c, 0, 59, 65
2,20785, Note_on_c, 0, 57, 0
2,20830, Note_on_c, 0, 59, 0
2,20866, Note_on_c, 0, 42, 51
2,20934, Note_on_c, 0, 42, 0
2,20944, Note_on_c, 0, 43, 62
2,20958, Note_on_c, 0, 55, 51
2,20961, Note_on_c, 0, 57, 52
2,20998, Note_on_c, 0, 57, 0
2,21007, Note_on_c, 0, 55, 0
2,21019, Note_on_c, 0, 43, 0
2,21030, Note_on_c, 0, 45, 64
2,21096, Note_on_c, 0, 45, 0
2,21113, Note_on_c, 0, 47, 74
2,21124, Note_on_c, 0, 62, 69
2,21140, Note_on_c, 0, 54, 62
2,21144, Note_on_c, 0, 47, 0
2,21273, Note_on_c, 0, 62, 0
2,21286, Note_on_c, 0, 45, 67
2,21294, Note_on_c, 0, 54, 0
2,21322, Note_on_c, 0, 45, 0
2,21454, Note_on_c, 0, 67, 73
2,21461, Note_on_c, 0, 43, 55
2,21475, Note_on_c, 0, 64, 48
2,21496, Control_c, 0, 64, 17
2,21501, Note_on_c, 0, 43, 0
2,21518, Note_on_c, 0, 64, 0
2,21637, Note_on_c, 0, 45, 57
2,21647, Note_on_c, 0, 61, 64
2,21655, Note_on_c, 0, 67, 0
2,21672, Control_c, 0, 64, 18
2,21702, Control_c, 0, 64, 19
2,21826, Note_on_c, 0, 61, 0
2,21831, Note_on_c, 0, 66, 75
2,21911, Note_on_c, 0, 64, 67
2,21912, Note_on_c, 0, 66, 0
2,21915, Note_on_c, 0, 45, 0
2,21977, Note_on_c, 0, 62, 54
2,21978, Note_on_c, 0, 57, 62
2,21994, Note_on_c, 0, 66, 74
2,21999, Note_on_c, 0, 64, 0
2,22021, Note_on_c, 0, 57, 0
2,22171, Note_on_c, 0, 62, 0
2,22171, Note_on_c, 0, 62, 8
2,22180, Note_on_c, 0, 57, 63
2,22180, Note_on_c, 0, 64, 77
2,22180, Note_on_c, 0, 66, 0
2,22325, Control_c, 0, 64, 20
2,22346, Note_on_c, 0, 61, 67
2,22348, Note_on_c, 0, 62, 0
2,22356, Control_c, 0, 64, 21
2,22368, Note_on_c, 0, 64, 0
2,22371, Control_c, 0, 64, 23
2,22393, Control_c, 0, 64, 24
2,22395, Note_on_c, 0, 61, 0
2,22402, Note_on_c, 0, 57, 0
2,22408, Control_c, 0, 64, 24
2,22423, Control_c, 0, 64, 25
2,22444, Note_on_c, 0, 59, 73
2,22510, Note_on_c, 0, 59, 0
2,22517, Note_on_c, 0, 69, 76
2,22530, Note_on_c, 0, 45, 48
2,22563, Note_on_c, 0, 45, 0
2,22660, Note_on_c, 0, 69, 0
2,22688, Note_on_c, 0, 62, 65
2,22706, Note_on_c, 0, 50, 91
2,22711, Note_on_c, 0, 66, 78
2,22719, Note_on_c, 0, 62, 0
2,22766, Note_on_c, 0, 66, 0
2,22806, Note_on_c, 0, 69, 87
2,22875, Note_on_c, 0, 50, 0
2,22878, Note_on_c, 0, 71, 91
2,22889, Note_on_c, 0, 69, 0
2,22958, Note_on_c, 0, 73, 91
2,22974, Note_on_c, 0, 71, 0
2,23024, Note_on_c, 0, 73, 0
2,23033, Note_on_c, 0, 57, 91
2,23037, Note_on_c, 0, 74, 89
2,23067, Note_on_c, 0, 57, 0
2,23107, Control_c, 0, 64, 24
2,23111, Note_on_c, 0, 74, 0
2,23121, Note_on_c, 0, 76, 92
2,23123, Control_c, 0, 64, 23
2,23154, Control_c, 0, 64, 22
2,23177, Control_c, 0, 64, 21
2,23192, Control_c, 0, 64, 20
2,23207, Control_c, 0, 64, 19
2,23220, Note_on_c, 0, 62, 82
2,23222, Control_c, 0, 64, 18
2,23231, Note_on_c, 0, 76, 0
2,23233, Note_on_c, 0, 78, 93
2,23237, Control_c, 0, 64, 17
2,23252, Control_c, 0, 64, 16
2,23267, Control_c, 0, 64, 14
2,23270, Note_on_c, 0, 61, 84
2,23278, Note_on_c, 0, 62, 0
2,23283, Control_c, 0, 64, 10
2,23298, Control_c, 0, 64, 8
2,23314, Note_on_c, 0, 76, 93
2,23329, Note_on_c, 0, 78, 0
2,23339, Note_on_c, 0, 62, 92
2,23346, Note_on_c, 0, 61, 0
2,23360, Control_c, 0, 64, 0
2,23381, Note_on_c, 0, 76, 0
2,23390, Note_on_c, 0, 74, 89
2,23472, Note_on_c, 0, 73, 88
2,23484, Note_on_c, 0, 74, 0
2,23555, Note_on_c, 0, 71, 84
2,23568, Note_on_c, 0, 73, 0
2,23609, Note_on_c, 0, 71, 0
2,23634, Note_on_c, 0, 69, 80
2,23721, Note_on_c, 0, 68, 89
2,23731, Note_on_c, 0, 69, 0
2,23771, Note_on_c, 0, 68, 0
2,23881, Note_on_c, 0, 62, 0
2,23891, Note_on_c, 0, 64, 71
2,23901, Note_on_c, 0, 71, 83
2,23936, Note_on_c, 0, 64, 0
2,23948, Note_on_c, 0, 71, 0
2,23968, Note_on_c, 0, 62, 75
2,24048, Note_on_c, 0, 61, 73
2,24049, Note_on_c, 0, 62, 0
2,24076, Note_on_c, 0, 76, 89
2,24120, Note_on_c, 0, 61, 0
2,24123, Note_on_c, 0, 76, 0
2,24139, Note_on_c, 0, 59, 71
2,24234, Note_on_c, 0, 59, 0
2,24236, Note_on_c, 0, 58, 79
2,24245, Note_on_c, 0, 76, 95
2,24267, Note_on_c, 0, 58, 0
2,24420, Note_on_c, 0, 59, 70
2,24434, Note_on_c, 0, 73, 67
2,24461, Note_on_c, 0, 73, 0
2,24477, Control_c, 0, 64, 8
2,24492, Note_on_c, 0, 59, 0
2,24511, Note_on_c, 0, 58, 64
2,24538, Control_c, 0, 64, 10
2,24563, Note_on_c, 0, 58, 0
2,24582, Note_on_c, 0, 56, 69
2,24599, Control_c, 0, 64, 12
2,24607, Note_on_c, 0, 76, 0
2,24612, Note_on_c, 0, 70, 72
2,24649, Note_on_c, 0, 70, 0
2,24655, Note_on_c, 0, 56, 0
2,24657, Note_on_c, 0, 54, 70
2,24753, Note_on_c, 0, 54, 0
2,24770, Note_on_c, 0, 59, 80
2,24783, Note_on_c, 0, 66, 85
2,24841, Note_on_c, 0, 66, 0
2,24925, Note_on_c, 0, 59, 0
2,24962, Note_on_c, 0, 68, 73
2,25038, Note_on_c, 0, 68, 0
2,25046, Note_on_c, 0, 70, 68
2,25095, Note_on_c, 0, 70, 0
2,25104, Note_on_c, 0, 47, 60
2,25127, Note_on_c, 0, 71, 75
2,25133, Note_on_c, 0, 47, 0
2,25164, Note_on_c, 0, 71, 0
2,25210, Note_on_c, 0, 73, 67
2,25263, Note_on_c, 0, 73, 0
2,25279, Note_on_c, 0, 59, 70
2,25293, Note_on_c, 0, 74, 76
2,25305, Control_c, 0, 64, 14
2,25328, Note_on_c, 0, 59, 0
2,25332, Note_on_c, 0, 58, 78
2,25369, Note_on_c, 0, 74, 0
2,25379, Note_on_c, 0, 73, 73
2,25383, Note_on_c, 0, 58, 0
2,25405, Note_on_c, 0, 59, 73
2,25467, Note_on_c, 0, 73, 0
2,25468, Note_on_c, 0, 71, 70
2,25503, Note_on_c, 0, 71, 0
2,25538, Note_on_c, 0, 69, 72
2,25602, Note_on_c, 0, 69, 0
2,25625, Note_on_c, 0, 67, 71
2,25685, Note_on_c, 0, 67, 0
2,25700, Note_on_c, 0, 66, 72
2,25759, Note_on_c, 0, 66, 0
2,25775, Note_on_c, 0, 64, 74
2,25804, Note_on_c, 0, 64, 0
2,25921, Note_on_c, 0, 59, 0
2,25946, Note_on_c, 0, 60, 58
2,25952, Note_on_c, 0, 67, 71
2,25980, Note_on_c, 0, 67, 0
2,25987, Note_on_c, 0, 60, 0
2,26025, Note_on_c, 0, 59, 68
2,26088, Note_on_c, 0, 59, 0
2,26105, Note_on_c, 0, 57, 63
2,26126, Note_on_c, 0, 72, 72
2,26162, Note_on_c, 0, 72, 0
2,26178, Note_on_c, 0, 57, 0
2,26194, Note_on_c, 0, 55, 64
2,26286, Note_on_c, 0, 55, 0
2,26287, Note_on_c, 0, 72, 85
2,26288, Note_on_c, 0, 54, 71
2,26324, Note_on_c, 0, 54, 0
2,26465, Note_on_c, 0, 55, 65
2,26467, Note_on_c, 0, 69, 70
2,26515, Note_on_c, 0, 69, 0
2,26535, Note_on_c, 0, 55, 0
2,26548, Note_on_c, 0, 54, 61
2,26607, Note_on_c, 0, 54, 0
2,26622, Note_on_c, 0, 52, 72
2,26641, Note_on_c, 0, 66, 60
2,26668, Note_on_c, 0, 66, 0
2,26694, Note_on_c, 0, 52, 0
2,26696, Note_on_c, 0, 72, 0
2,26716, Note_on_c, 0, 50, 71
2,26789, Note_on_c, 0, 50, 0
2,26805, Note_on_c, 0, 55, 83
2,26837, Note_on_c, 0, 62, 70
2,26902, Note_on_c, 0, 62, 0
2,26965, Note_on_c, 0, 64, 76
2,26978, Note_on_c, 0, 55, 0
2,27062, Note_on_c, 0, 66, 84
2,27077, Note_on_c, 0, 64, 0
2,27131, Note_on_c, 0, 66, 0
2,27149, Note_on_c, 0, 67, 82
2,27162, Note_on_c, 0, 43, 69
2,27193, Note_on_c, 0, 43, 0
2,27224, Note_on_c, 0, 67, 0
2,27231, Note_on_c, 0, 69, 87
2,27309, Note_on_c, 0, 55, 82
2,27318, Note_on_c, 0, 71, 95
2,27328, Note_on_c, 0, 69, 0
2,27367, Note_on_c, 0, 72, 26
2,27404, Note_on_c, 0, 72, 0
2,27407, Note_on_c, 0, 69, 89
2,27410, Note_on_c, 0, 71, 0
2,27465, Note_on_c, 0, 69, 0
2,27485, Note_on_c, 0, 67, 80
2,27569, Note_on_c, 0, 67, 0
2,27575, Note_on_c, 0, 66, 76
2,27657, Note_on_c, 0, 64, 81
2,27660, Note_on_c, 0, 66, 0
2,27712, Note_on_c, 0, 64, 0
2,27739, Note_on_c, 0, 62, 80
2,27826, Note_on_c, 0, 62, 0
2,27831, Note_on_c, 0, 61, 81
2,27875, Note_on_c, 0, 61, 0
2,27997, Note_on_c, 0, 55, 0
2,28005, Note_on_c, 0, 57, 72
2,28013, Note_on_c, 0, 64, 86
2,28048, Note_on_c, 0, 57, 0
2,28061, Note_on_c, 0, 64, 0
2,28092, Note_on_c, 0, 55, 72
2,28158, Note_on_c, 0, 54, 74
2,28161, Note_on_c, 0, 55, 0
2,28170, Note_on_c, 0, 69, 90
2,28180, Note_on_c, 0, 61, 83
2,28219, Note_on_c, 0, 61, 0
2,28219, Note_on_c, 0, 69, 0
2,28239, Note_on_c, 0, 54, 0
2,28263, Note_on_c, 0, 52, 62
2,28335, Note_on_c, 0, 50, 67
2,28337, Note_on_c, 0, 52, 0
2,28341, Note_on_c, 0, 62, 82
2,28341, Note_on_c, 0, 66, 86
2,28370, Note_on_c, 0, 62, 0
2,28401, Note_on_c, 0, 66, 0
2,28403, Note_on_c, 0, 50, 0
2,28517, Note_on_c, 0, 52, 80
2,28524, Note_on_c, 0, 69, 92
2,28586, Note_on_c, 0, 69, 0
2,28605, Note_on_c, 0, 52, 0
2,28608, Note_on_c, 0, 54, 80
2,28669, Note_on_c, 0, 54, 0
2,28678, Note_on_c, 0, 55, 81
2,28681, Note_on_c, 0, 74, 94
2,28693, Note_on_c, 0, 66, 84
2,28742, Note_on_c, 0, 74, 0
2,28748, Note_on_c, 0, 66, 0
2,28767, Note_on_c, 0, 57, 81
2,28771, Note_on_c, 0, 55, 0
2,28848, Note_on_c, 0, 57, 0
2,28849, Note_on_c, 0, 59, 90
2,28863, Note_on_c, 0, 67, 95
2,28886, Note_on_c, 0, 59, 0
2,28984, Note_on_c, 0, 67, 0
2,29055, Note_on_c, 0, 69, 83
2,29057, Note_on_c, 0, 57, 76
2,29081, Note_on_c, 0, 57, 0
2,29114, Note_on_c, 0, 69, 0
2,29228, Note_on_c, 0, 55, 79
2,29232, Note_on_c, 0, 76, 106
2,29238, Control_c, 0, 64, 12
2,29238, Note_on_c, 0, 71, 62
2,29261, Note_on_c, 0, 55, 0
2,29268, Control_c, 0, 64, 10
2,29277, Note_on_c, 0, 71, 0
2,29283, Control_c, 0, 64, 8
2,29298, Control_c, 0, 64, 0
2,29416, Note_on_c, 0, 76, 0
2,29442, Note_on_c, 0, 57, 85
2,29445, Note_on_c, 0, 66, 85
2,29447, Note_on_c, 0, 69, 89
2,29503, Control_c, 0, 64, 42
2,29509, Note_on_c, 0, 57, 0
2,29519, Control_c, 0, 64, 59
2,29534, Control_c, 0, 64, 67
2,29549, Control_c, 0, 64, 79
2,29565, Control_c, 0, 64, 115
2,29580, Control_c, 0, 64, 127
2,29636, Note_on_c, 0, 74, 100
2,29639, Note_on_c, 0, 69, 0
2,29641, Note_on_c, 0, 66, 0
2,29772, Note_on_c, 0, 74, 0
2,29848, Note_on_c, 0, 45, 80
2,29851, Note_on_c, 0, 73, 102
2,29857, Note_on_c, 0, 64, 87
2,29859, Note_on_c, 0, 67, 84
2,29885, Control_c, 0, 64, 102
2,29900, Control_c, 0, 64, 79
2,29917, Control_c, 0, 64, 65
2,29932, Control_c, 0, 64, 40
2,29947, Control_c, 0, 64, 0
2,29994, Note_on_c, 0, 64, 0
2,30059, Note_on_c, 0, 73, 0
2,30091, Note_on_c, 0, 38, 81
2,30101, Note_on_c, 0, 74, 101
2,30108, Note_on_c, 0, 62, 91
2,30120, Note_on_c, 0, 45, 0
2,30378, Note_on_c, 0, 69, 88
2,30401, Note_on_c, 0, 67, 0
2,30664, Note_on_c, 0, 62, 0
2,30682, Note_on_c, 0, 66, 95
2,30729, Control_c, 0, 66, 127
2,30846, Note_on_c, 0, 38, 0
2,31087, Note_on_c, 0, 62, 85
2,31152, Note_on_c, 0, 61, 87
2,31162, Note_on_c, 0, 62, 0
2,31227, Note_on_c, 0, 62, 95
2,31235, Note_on_c, 0, 61, 0
2,32939, Note_on_c, 0, 62, 0
2,32947, Note_on_c, 0, 74, 0
2,32952, Note_on_c, 0, 69, 0
2,32955, Note_on_c, 0, 66, 0
2,33003, Control_c, 0, 66, 0
2,33004, End_track
0, 0, End_of_file
