0, 0, Header, 1, 2, 384
1, 0, Start_track
1, 0, Tempo, 500000
1, 0, Time_signature, 4, 2, 24, 8
1, 1, End_track
2, 0, Start_track
2, 0, Program_c, 0, 0
2, 0, Control_c, 0, 64, 43
2, 0, Control_c, 0, 66, 0
2, 0, Control_c, 0, 67, 127
2, 88, Control_c, 0, 64, 42
2, 104, Control_c, 0, 64, 41
2, 141, Control_c, 0, 64, 41
2, 156, Control_c, 0, 64, 40
2, 186, Control_c, 0, 64, 40
2, 202, Control_c, 0, 64, 39
2, 217, Control_c, 0, 64, 38
2, 232, Control_c, 0, 64, 36
2, 248, Control_c, 0, 64, 36
2, 475, Control_c, 0, 64, 36
2, 589, Control_c, 0, 64, 37
2, 620, Control_c, 0, 64, 37
2, 635, Control_c, 0, 64, 38
2, 726, Control_c, 0, 64, 38
2, 775, Note_on_c, 0, 62, 47
2, 818, Control_c, 0, 64, 39
2, 909, Control_c, 0, 64, 39
2, 944, Note_on_c, 0, 62, 0
2, 1092, Control_c, 0, 64, 40
2, 1117, Note_on_c, 0, 62, 58
2, 1266, Note_on_c, 0, 62, 0
2, 1482, Note_on_c, 0, 62, 47
2, 1638, Note_on_c, 0, 62, 0
2, 1828, Note_on_c, 0, 55, 49
2, 2548, Note_on_c, 0, 59, 57
2, 2631, Note_on_c, 0, 55, 0
2, 3686, Note_on_c, 0, 52, 38
2, 3701, Note_on_c, 0, 59, 0
2, 3937, Control_c, 0, 64, 40
2, 4006, Note_on_c, 0, 52, 0
2, 4016, Note_on_c, 0, 57, 50
2, 4350, Note_on_c, 0, 57, 0
2, 4351, Note_on_c, 0, 55, 51
2, 4670, Note_on_c, 0, 55, 0
2, 4686, Note_on_c, 0, 54, 40
2, 4996, Note_on_c, 0, 69, 59
2, 5025, Control_c, 0, 67, 94
2, 5041, Control_c, 0, 67, 77
2, 5056, Control_c, 0, 67, 52
2, 5071, Control_c, 0, 67, 24
2, 5087, Control_c, 0, 67, 0
2, 5178, Note_on_c, 0, 69, 0
2, 5309, Note_on_c, 0, 54, 0
2, 5317, Note_on_c, 0, 50, 42
2, 5321, Note_on_c, 0, 69, 65
2, 5487, Note_on_c, 0, 69, 0
2, 5639, Note_on_c, 0, 69, 64
2, 5800, Note_on_c, 0, 69, 0
2, 5996, Note_on_c, 0, 62, 60
2, 6306, Note_on_c, 0, 54, 49
2, 6365, Note_on_c, 0, 50, 0
2, 6630, Note_on_c, 0, 54, 0
2, 6635, Note_on_c, 0, 59, 44
2, 6645, Note_on_c, 0, 62, 0
2, 6647, Note_on_c, 0, 66, 63
2, 6967, Note_on_c, 0, 57, 49
2, 6972, Note_on_c, 0, 59, 0
2, 7296, Note_on_c, 0, 57, 0
2, 7301, Note_on_c, 0, 56, 46
2, 7628, Note_on_c, 0, 59, 52
2, 7646, Note_on_c, 0, 66, 0
2, 7961, Note_on_c, 0, 59, 0
2, 7964, Note_on_c, 0, 64, 57
2, 8294, Note_on_c, 0, 64, 0
2, 8300, Note_on_c, 0, 62, 52
2, 8587, Note_on_c, 0, 62, 0
2, 8607, Note_on_c, 0, 61, 45
2, 8621, Note_on_c, 0, 57, 28
2, 8658, Note_on_c, 0, 56, 0
2, 8928, Note_on_c, 0, 64, 61
2, 8964, Note_on_c, 0, 61, 0
2, 9266, Note_on_c, 0, 61, 44
2, 9288, Note_on_c, 0, 57, 0
2, 9291, Note_on_c, 0, 69, 56
2, 9294, Note_on_c, 0, 64, 0
2, 9606, Note_on_c, 0, 69, 0
2, 9607, Note_on_c, 0, 67, 57
2, 9844, Note_on_c, 0, 61, 0
2, 9927, Note_on_c, 0, 67, 0
2, 9941, Note_on_c, 0, 66, 51
2, 10261, Note_on_c, 0, 57, 63
2, 10576, Note_on_c, 0, 57, 0
2, 10594, Note_on_c, 0, 62, 53
2, 10598, Note_on_c, 0, 69, 62
2, 10618, Note_on_c, 0, 66, 0
2, 10889, Note_on_c, 0, 62, 0
2, 10907, Note_on_c, 0, 61, 47
2, 11237, Note_on_c, 0, 59, 51
2, 11261, Note_on_c, 0, 61, 0
2, 11571, Note_on_c, 0, 74, 57
2, 11576, Note_on_c, 0, 69, 0
2, 11600, Note_on_c, 0, 62, 24
2, 11729, Note_on_c, 0, 74, 0
2, 11888, Note_on_c, 0, 62, 0
2, 11905, Note_on_c, 0, 74, 78
2, 11919, Note_on_c, 0, 67, 53
2, 12055, Note_on_c, 0, 74, 0
2, 12142, Note_on_c, 0, 67, 0
2, 12221, Note_on_c, 0, 74, 70
2, 12224, Note_on_c, 0, 66, 52
2, 12329, Note_on_c, 0, 74, 0
2, 12535, Note_on_c, 0, 66, 0
2, 12542, Note_on_c, 0, 67, 64
2, 12554, Note_on_c, 0, 64, 49
2, 12635, Note_on_c, 0, 59, 0
2, 12808, Note_on_c, 0, 64, 0
2, 12875, Note_on_c, 0, 59, 48
2, 12876, Note_on_c, 0, 66, 53
2, 13096, Note_on_c, 0, 67, 0
2, 13184, Note_on_c, 0, 59, 0
2, 13194, Note_on_c, 0, 66, 0
2, 13195, Note_on_c, 0, 71, 69
2, 13205, Note_on_c, 0, 64, 45
2, 13207, Note_on_c, 0, 67, 59
2, 13491, Note_on_c, 0, 64, 0
2, 13524, Note_on_c, 0, 62, 47
2, 13845, Note_on_c, 0, 62, 0
2, 13848, Note_on_c, 0, 61, 47
2, 14163, Note_on_c, 0, 57, 53
2, 14175, Note_on_c, 0, 64, 48
2, 14176, Note_on_c, 0, 67, 0
2, 14178, Note_on_c, 0, 71, 0
2, 14331, Note_on_c, 0, 57, 0
2, 14484, Note_on_c, 0, 69, 68
2, 14490, Note_on_c, 0, 57, 63
2, 14495, Note_on_c, 0, 66, 52
2, 14497, Note_on_c, 0, 64, 0
2, 14638, Note_on_c, 0, 57, 0
2, 14765, Note_on_c, 0, 66, 0
2, 14799, Note_on_c, 0, 69, 0
2, 14811, Note_on_c, 0, 67, 62
2, 14813, Note_on_c, 0, 64, 59
2, 14815, Note_on_c, 0, 57, 63
2, 14848, Note_on_c, 0, 61, 0
2, 14953, Note_on_c, 0, 57, 0
2, 15126, Note_on_c, 0, 64, 0
2, 15131, Note_on_c, 0, 50, 53
2, 15145, Note_on_c, 0, 62, 50
2, 15145, Note_on_c, 0, 66, 63
2, 15190, Note_on_c, 0, 67, 0
2, 15456, Note_on_c, 0, 57, 50
2, 15512, Note_on_c, 0, 62, 0
2, 15779, Note_on_c, 0, 54, 62
2, 15779, Note_on_c, 0, 57, 0
2, 15788, Note_on_c, 0, 50, 0
2, 15790, Note_on_c, 0, 62, 44
2, 16083, Note_on_c, 0, 62, 0
2, 16114, Note_on_c, 0, 61, 40
2, 16399, Note_on_c, 0, 61, 0
2, 16429, Note_on_c, 0, 54, 0
2, 16434, Note_on_c, 0, 68, 67
2, 16435, Note_on_c, 0, 59, 51
2, 16456, Note_on_c, 0, 66, 0
2, 16693, Note_on_c, 0, 59, 0
2, 16731, Note_on_c, 0, 47, 39
2, 17076, Note_on_c, 0, 52, 50
2, 17080, Note_on_c, 0, 47, 0
2, 17357, Note_on_c, 0, 52, 0
2, 17387, Note_on_c, 0, 50, 31
2, 17393, Note_on_c, 0, 59, 46
2, 17468, Note_on_c, 0, 68, 0
2, 17712, Note_on_c, 0, 49, 30
2, 17714, Note_on_c, 0, 69, 57
2, 17726, Note_on_c, 0, 64, 44
2, 17730, Note_on_c, 0, 50, 0
2, 17733, Note_on_c, 0, 59, 0
2, 18021, Note_on_c, 0, 49, 0
2, 18041, Note_on_c, 0, 47, 36
2, 18041, Note_on_c, 0, 52, 44
2, 18047, Note_on_c, 0, 64, 0
2, 18052, Note_on_c, 0, 62, 44
2, 18340, Note_on_c, 0, 47, 0
2, 18370, Note_on_c, 0, 45, 43
2, 18372, Note_on_c, 0, 52, 0
2, 18382, Note_on_c, 0, 62, 0
2, 18392, Note_on_c, 0, 61, 48
2, 18405, Note_on_c, 0, 57, 35
2, 18677, Note_on_c, 0, 57, 0
2, 18699, Note_on_c, 0, 64, 54
2, 18700, Note_on_c, 0, 69, 0
2, 18701, Note_on_c, 0, 55, 46
2, 19021, Note_on_c, 0, 69, 69
2, 19023, Note_on_c, 0, 54, 54
2, 19034, Note_on_c, 0, 64, 0
2, 19046, Note_on_c, 0, 55, 0
2, 19053, Note_on_c, 0, 45, 0
2, 19238, Control_c, 0, 64, 41
2, 19284, Control_c, 0, 64, 42
2, 19311, Note_on_c, 0, 54, 0
2, 19318, Note_on_c, 0, 69, 0
2, 19342, Note_on_c, 0, 45, 44
2, 19349, Note_on_c, 0, 67, 70
2, 19353, Note_on_c, 0, 52, 44
2, 19390, Control_c, 0, 64, 44
2, 19405, Control_c, 0, 64, 50
2, 19419, Control_c, 0, 64, 56
2, 19435, Control_c, 0, 64, 61
2, 19451, Control_c, 0, 64, 65
2, 19467, Control_c, 0, 64, 69
2, 19477, Note_on_c, 0, 67, 0
2, 19482, Control_c, 0, 64, 77
2, 19496, Control_c, 0, 64, 89
2, 19512, Control_c, 0, 64, 110
2, 19527, Control_c, 0, 64, 127
2, 19617, Control_c, 0, 64, 121
2, 19623, Note_on_c, 0, 52, 0
2, 19633, Control_c, 0, 64, 104
2, 19649, Control_c, 0, 64, 90
2, 19655, Note_on_c, 0, 50, 52
2, 19657, Note_on_c, 0, 66, 79
2, 19664, Control_c, 0, 64, 79
2, 19680, Control_c, 0, 64, 71
2, 19695, Control_c, 0, 64, 64
2, 19697, Note_on_c, 0, 45, 0
2, 19711, Control_c, 0, 64, 55
2, 19725, Control_c, 0, 64, 45
2, 19740, Control_c, 0, 64, 45
2, 19961, Note_on_c, 0, 61, 0
2, 19972, Note_on_c, 0, 49, 56
2, 19981, Note_on_c, 0, 57, 64
2, 20309, Note_on_c, 0, 62, 69
2, 20315, Note_on_c, 0, 47, 51
2, 20318, Note_on_c, 0, 50, 0
2, 20327, Note_on_c, 0, 49, 0
2, 20416, Control_c, 0, 64, 46
2, 20432, Control_c, 0, 64, 47
2, 20447, Control_c, 0, 64, 49
2, 20463, Control_c, 0, 64, 51
2, 20479, Control_c, 0, 64, 53
2, 20493, Control_c, 0, 64, 54
2, 20547, Control_c, 0, 64, 54
2, 20562, Note_on_c, 0, 62, 0
2, 20593, Control_c, 0, 64, 53
2, 20600, Note_on_c, 0, 45, 50
2, 20611, Note_on_c, 0, 50, 60
2, 20618, Note_on_c, 0, 61, 69
2, 20627, Note_on_c, 0, 47, 0
2, 20638, Control_c, 0, 64, 54
2, 20641, Note_on_c, 0, 57, 0
2, 20653, Control_c, 0, 64, 57
2, 20669, Control_c, 0, 64, 60
2, 20684, Control_c, 0, 64, 63
2, 20688, Note_on_c, 0, 66, 0
2, 20698, Control_c, 0, 64, 65
2, 20714, Control_c, 0, 64, 67
2, 20729, Control_c, 0, 64, 70
2, 20744, Control_c, 0, 64, 72
2, 20754, Note_on_c, 0, 45, 0
2, 20760, Control_c, 0, 64, 74
2, 20774, Control_c, 0, 64, 75
2, 20790, Control_c, 0, 64, 75
2, 20820, Control_c, 0, 64, 75
2, 20835, Control_c, 0, 64, 74
2, 20865, Control_c, 0, 64, 74
2, 20881, Control_c, 0, 64, 72
2, 20896, Control_c, 0, 64, 70
2, 20911, Control_c, 0, 64, 67
2, 20926, Control_c, 0, 64, 65
2, 20928, Note_on_c, 0, 43, 50
2, 20935, Note_on_c, 0, 64, 78
2, 20941, Control_c, 0, 64, 63
2, 20941, Note_on_c, 0, 50, 0
2, 20944, Note_on_c, 0, 61, 0
2, 20954, Note_on_c, 0, 59, 55
2, 20957, Control_c, 0, 64, 62
2, 20957, Note_on_c, 0, 55, 50
2, 20972, Control_c, 0, 64, 62
2, 20985, Control_c, 0, 64, 60
2, 21001, Control_c, 0, 64, 59
2, 21016, Control_c, 0, 64, 58
2, 21031, Control_c, 0, 64, 57
2, 21046, Control_c, 0, 64, 56
2, 21061, Control_c, 0, 64, 55
2, 21077, Control_c, 0, 64, 55
2, 21107, Control_c, 0, 64, 54
2, 21137, Control_c, 0, 64, 54
2, 21198, Control_c, 0, 64, 53
2, 21244, Note_on_c, 0, 54, 54
2, 21244, Note_on_c, 0, 55, 0
2, 21259, Note_on_c, 0, 62, 69
2, 21261, Note_on_c, 0, 64, 0
2, 21464, Control_c, 0, 64, 53
2, 21495, Control_c, 0, 64, 52
2, 21511, Control_c, 0, 64, 52
2, 21526, Control_c, 0, 64, 51
2, 21540, Control_c, 0, 64, 50
2, 21556, Control_c, 0, 64, 47
2, 21571, Control_c, 0, 64, 42
2, 21571, Note_on_c, 0, 62, 0
2, 21581, Note_on_c, 0, 52, 56
2, 21584, Note_on_c, 0, 57, 60
2, 21584, Note_on_c, 0, 61, 71
2, 21587, Control_c, 0, 64, 36
2, 21590, Note_on_c, 0, 54, 0
2, 21602, Control_c, 0, 64, 30
2, 21615, Note_on_c, 0, 59, 0
2, 21617, Control_c, 0, 64, 27
2, 21617, Note_on_c, 0, 43, 0
2, 21632, Control_c, 0, 64, 26
2, 21662, Control_c, 0, 64, 28
2, 21678, Control_c, 0, 64, 36
2, 21693, Control_c, 0, 64, 44
2, 21709, Control_c, 0, 64, 50
2, 21724, Control_c, 0, 64, 54
2, 21739, Control_c, 0, 64, 58
2, 21754, Control_c, 0, 64, 60
2, 21769, Control_c, 0, 64, 61
2, 21784, Control_c, 0, 64, 62
2, 21800, Control_c, 0, 64, 62
2, 21815, Control_c, 0, 64, 63
2, 21830, Control_c, 0, 64, 62
2, 21845, Control_c, 0, 64, 60
2, 21860, Control_c, 0, 64, 53
2, 21875, Control_c, 0, 64, 41
2, 21890, Control_c, 0, 64, 26
2, 21905, Control_c, 0, 64, 8
2, 21912, Note_on_c, 0, 42, 66
2, 21921, Control_c, 0, 64, 0
2, 21925, Note_on_c, 0, 52, 0
2, 21936, Control_c, 0, 64, 10
2, 21951, Control_c, 0, 64, 33
2, 21966, Control_c, 0, 64, 48
2, 21981, Control_c, 0, 64, 57
2, 21996, Control_c, 0, 64, 62
2, 22011, Control_c, 0, 64, 65
2, 22027, Control_c, 0, 64, 68
2, 22042, Control_c, 0, 64, 75
2, 22065, Control_c, 0, 64, 89
2, 22081, Control_c, 0, 64, 127
2, 22090, Note_on_c, 0, 57, 0
2, 22237, Note_on_c, 0, 61, 0
2, 22263, Control_c, 0, 64, 102
2, 22279, Control_c, 0, 64, 84
2, 22294, Control_c, 0, 64, 73
2, 22304, Note_on_c, 0, 62, 66
2, 22307, Note_on_c, 0, 42, 0
2, 22307, Note_on_c, 0, 50, 48
2, 22307, Note_on_c, 0, 56, 66
2, 22308, Note_on_c, 0, 47, 43
2, 22309, Control_c, 0, 64, 66
2, 22324, Control_c, 0, 64, 57
2, 22339, Control_c, 0, 64, 45
2, 22355, Control_c, 0, 64, 31
2, 22370, Control_c, 0, 64, 23
2, 22384, Control_c, 0, 64, 22
2, 22400, Control_c, 0, 64, 23
2, 22408, Note_on_c, 0, 50, 0
2, 22415, Control_c, 0, 64, 42
2, 22431, Control_c, 0, 64, 56
2, 22446, Control_c, 0, 64, 62
2, 22460, Control_c, 0, 64, 65
2, 22476, Control_c, 0, 64, 67
2, 22491, Control_c, 0, 64, 71
2, 22507, Control_c, 0, 64, 79
2, 22519, Note_on_c, 0, 56, 0
2, 22522, Control_c, 0, 64, 92
2, 22537, Control_c, 0, 64, 118
2, 22553, Control_c, 0, 64, 127
2, 22585, Note_on_c, 0, 47, 0
2, 22672, Note_on_c, 0, 45, 56
2, 22674, Control_c, 0, 64, 96
2, 22680, Note_on_c, 0, 54, 63
2, 22684, Note_on_c, 0, 49, 46
2, 22689, Control_c, 0, 64, 76
2, 22704, Control_c, 0, 64, 62
2, 22719, Control_c, 0, 64, 34
2, 22734, Control_c, 0, 64, 0
2, 22765, Control_c, 0, 64, 25
2, 22780, Control_c, 0, 64, 46
2, 22795, Control_c, 0, 64, 60
2, 22795, Note_on_c, 0, 45, 0
2, 22810, Control_c, 0, 64, 64
2, 22834, Control_c, 0, 64, 66
2, 22834, Note_on_c, 0, 49, 0
2, 22848, Control_c, 0, 64, 68
2, 22863, Control_c, 0, 64, 71
2, 22879, Control_c, 0, 64, 78
2, 22880, Note_on_c, 0, 54, 0
2, 22894, Control_c, 0, 64, 92
2, 22910, Control_c, 0, 64, 115
2, 22925, Control_c, 0, 64, 127
2, 23017, Control_c, 0, 64, 102
2, 23025, Note_on_c, 0, 52, 63
2, 23032, Control_c, 0, 64, 86
2, 23033, Note_on_c, 0, 47, 46
2, 23037, Note_on_c, 0, 44, 52
2, 23047, Control_c, 0, 64, 74
2, 23062, Control_c, 0, 64, 65
2, 23078, Control_c, 0, 64, 52
2, 23092, Control_c, 0, 64, 37
2, 23108, Control_c, 0, 64, 31
2, 23292, Control_c, 0, 64, 31
2, 23356, Note_on_c, 0, 62, 0
2, 23359, Note_on_c, 0, 71, 60
2, 23414, Control_c, 0, 64, 32
2, 23444, Control_c, 0, 64, 32
2, 23460, Control_c, 0, 64, 33
2, 23475, Control_c, 0, 64, 33
2, 23480, Note_on_c, 0, 71, 0
2, 23490, Control_c, 0, 64, 34
2, 23501, Note_on_c, 0, 69, 60
2, 23521, Control_c, 0, 64, 34
2, 23551, Control_c, 0, 64, 35
2, 23620, Control_c, 0, 64, 35
2, 23652, Note_on_c, 0, 69, 0
2, 23665, Control_c, 0, 64, 36
2, 23685, Note_on_c, 0, 71, 57
2, 23800, Note_on_c, 0, 71, 0
2, 23924, Control_c, 0, 64, 36
2, 23995, Note_on_c, 0, 62, 48
2, 24128, Note_on_c, 0, 52, 0
2, 24143, Note_on_c, 0, 62, 0
2, 24207, Note_on_c, 0, 44, 0
2, 24300, Note_on_c, 0, 61, 45
2, 24305, Note_on_c, 0, 52, 30
2, 24310, Note_on_c, 0, 47, 0
2, 24464, Control_c, 0, 64, 37
2, 24601, Control_c, 0, 64, 38
2, 24615, Note_on_c, 0, 64, 58
2, 24616, Control_c, 0, 64, 40
2, 24632, Control_c, 0, 64, 43
2, 24646, Control_c, 0, 64, 50
2, 24662, Control_c, 0, 64, 56
2, 24677, Control_c, 0, 64, 60
2, 24692, Control_c, 0, 64, 63
2, 24708, Control_c, 0, 64, 65
2, 24722, Control_c, 0, 64, 68
2, 24737, Control_c, 0, 64, 70
2, 24750, Note_on_c, 0, 64, 0
2, 24753, Control_c, 0, 64, 73
2, 24768, Control_c, 0, 64, 76
2, 24784, Control_c, 0, 64, 77
2, 24799, Control_c, 0, 64, 76
2, 24814, Control_c, 0, 64, 72
2, 24829, Control_c, 0, 64, 69
2, 24844, Control_c, 0, 64, 66
2, 24860, Control_c, 0, 64, 63
2, 24875, Control_c, 0, 64, 61
2, 24890, Control_c, 0, 64, 59
2, 24906, Control_c, 0, 64, 55
2, 24921, Control_c, 0, 64, 51
2, 24929, Note_on_c, 0, 43, 46
2, 24935, Control_c, 0, 64, 45
2, 24949, Note_on_c, 0, 64, 66
2, 24951, Control_c, 0, 64, 40
2, 24966, Control_c, 0, 64, 35
2, 24981, Control_c, 0, 64, 31
2, 24996, Control_c, 0, 64, 24
2, 25011, Control_c, 0, 64, 15
2, 25027, Control_c, 0, 64, 0
2, 25056, Control_c, 0, 64, 16
2, 25072, Control_c, 0, 64, 40
2, 25087, Control_c, 0, 64, 55
2, 25095, Note_on_c, 0, 64, 0
2, 25103, Control_c, 0, 64, 62
2, 25118, Control_c, 0, 64, 65
2, 25141, Control_c, 0, 64, 68
2, 25156, Control_c, 0, 64, 73
2, 25171, Control_c, 0, 64, 82
2, 25186, Control_c, 0, 64, 96
2, 25201, Control_c, 0, 64, 108
2, 25207, Note_on_c, 0, 43, 0
2, 25216, Control_c, 0, 64, 111
2, 25232, Control_c, 0, 64, 102
2, 25247, Control_c, 0, 64, 93
2, 25262, Control_c, 0, 64, 86
2, 25265, Note_on_c, 0, 64, 73
2, 25277, Control_c, 0, 64, 82
2, 25292, Control_c, 0, 64, 79
2, 25307, Control_c, 0, 64, 77
2, 25322, Control_c, 0, 64, 74
2, 25337, Control_c, 0, 64, 72
2, 25353, Control_c, 0, 64, 72
2, 25414, Control_c, 0, 64, 71
2, 25453, Note_on_c, 0, 64, 0
2, 25461, Control_c, 0, 64, 71
2, 25476, Control_c, 0, 64, 70
2, 25490, Control_c, 0, 64, 70
2, 25536, Control_c, 0, 64, 69
2, 25552, Control_c, 0, 64, 68
2, 25557, Note_on_c, 0, 52, 0
2, 25566, Control_c, 0, 64, 66
2, 25582, Control_c, 0, 64, 64
2, 25582, Note_on_c, 0, 42, 49
2, 25588, Note_on_c, 0, 57, 61
2, 25594, Note_on_c, 0, 61, 0
2, 25597, Control_c, 0, 64, 63
2, 25611, Control_c, 0, 64, 61
2, 25627, Control_c, 0, 64, 59
2, 25642, Control_c, 0, 64, 56
2, 25657, Control_c, 0, 64, 53
2, 25673, Control_c, 0, 64, 49
2, 25687, Control_c, 0, 64, 46
2, 25703, Control_c, 0, 64, 45
2, 25718, Control_c, 0, 64, 44
2, 25733, Control_c, 0, 64, 42
2, 25749, Control_c, 0, 64, 41
2, 25763, Control_c, 0, 64, 40
2, 25794, Control_c, 0, 64, 40
2, 25873, Note_on_c, 0, 55, 38
2, 25877, Note_on_c, 0, 64, 57
2, 25885, Control_c, 0, 64, 40
2, 25908, Control_c, 0, 64, 44
2, 25923, Control_c, 0, 64, 49
2, 25938, Control_c, 0, 64, 53
2, 25953, Control_c, 0, 64, 57
2, 25954, Note_on_c, 0, 55, 0
2, 25954, Note_on_c, 0, 55, 15
2, 25968, Control_c, 0, 64, 60
2, 25984, Control_c, 0, 64, 61
2, 25999, Control_c, 0, 64, 63
2, 26014, Control_c, 0, 64, 64
2, 26029, Control_c, 0, 64, 66
2, 26044, Control_c, 0, 64, 67
2, 26060, Control_c, 0, 64, 68
2, 26120, Control_c, 0, 64, 67
2, 26121, Note_on_c, 0, 57, 0
2, 26135, Control_c, 0, 64, 67
2, 26151, Control_c, 0, 64, 66
2, 26165, Control_c, 0, 64, 65
2, 26181, Control_c, 0, 64, 65
2, 26196, Control_c, 0, 64, 64
2, 26196, Note_on_c, 0, 64, 0
2, 26199, Note_on_c, 0, 60, 71
2, 26205, Note_on_c, 0, 69, 56
2, 26211, Note_on_c, 0, 55, 0
2, 26212, Control_c, 0, 64, 63
2, 26218, Note_on_c, 0, 54, 45
2, 26228, Control_c, 0, 64, 61
2, 26243, Control_c, 0, 64, 59
2, 26257, Control_c, 0, 64, 57
2, 26273, Control_c, 0, 64, 56
2, 26288, Control_c, 0, 64, 54
2, 26304, Control_c, 0, 64, 53
2, 26319, Control_c, 0, 64, 51
2, 26333, Control_c, 0, 64, 50
2, 26349, Control_c, 0, 64, 49
2, 26364, Control_c, 0, 64, 48
2, 26380, Control_c, 0, 64, 48
2, 26395, Control_c, 0, 64, 46
2, 26410, Control_c, 0, 64, 45
2, 26426, Control_c, 0, 64, 43
2, 26440, Control_c, 0, 64, 42
2, 26455, Control_c, 0, 64, 41
2, 26471, Control_c, 0, 64, 40
2, 26502, Control_c, 0, 64, 41
2, 26505, Note_on_c, 0, 54, 0
2, 26517, Control_c, 0, 64, 47
2, 26518, Note_on_c, 0, 69, 0
2, 26519, Note_on_c, 0, 52, 47
2, 26529, Note_on_c, 0, 67, 59
2, 26531, Control_c, 0, 64, 54
2, 26547, Control_c, 0, 64, 59
2, 26562, Control_c, 0, 64, 62
2, 26575, Note_on_c, 0, 42, 0
2, 26577, Control_c, 0, 64, 64
2, 26584, Note_on_c, 0, 67, 0
2, 26592, Control_c, 0, 64, 66
2, 26607, Control_c, 0, 64, 67
2, 26623, Control_c, 0, 64, 69
2, 26638, Control_c, 0, 64, 71
2, 26653, Control_c, 0, 64, 72
2, 26676, Control_c, 0, 64, 73
2, 26691, Control_c, 0, 64, 75
2, 26707, Control_c, 0, 64, 75
2, 26737, Control_c, 0, 64, 75
2, 26752, Control_c, 0, 64, 74
2, 26767, Control_c, 0, 64, 74
2, 26783, Control_c, 0, 64, 72
2, 26797, Control_c, 0, 64, 70
2, 26807, Note_on_c, 0, 52, 0
2, 26812, Control_c, 0, 64, 67
2, 26826, Note_on_c, 0, 47, 43
2, 26828, Control_c, 0, 64, 64
2, 26832, Note_on_c, 0, 51, 43
2, 26841, Note_on_c, 0, 66, 51
2, 26843, Control_c, 0, 64, 62
2, 26858, Control_c, 0, 64, 61
2, 26873, Control_c, 0, 64, 60
2, 26888, Control_c, 0, 64, 59
2, 26904, Control_c, 0, 64, 57
2, 26911, Note_on_c, 0, 60, 0
2, 26919, Control_c, 0, 64, 54
2, 26934, Control_c, 0, 64, 51
2, 26949, Control_c, 0, 64, 50
2, 26964, Control_c, 0, 64, 49
2, 27042, Control_c, 0, 64, 49
2, 27159, Note_on_c, 0, 54, 59
2, 27376, Control_c, 0, 64, 49
2, 27481, Note_on_c, 0, 59, 64
2, 27514, Note_on_c, 0, 54, 0
2, 27804, Note_on_c, 0, 57, 69
2, 27811, Note_on_c, 0, 59, 0
2, 28127, Note_on_c, 0, 57, 0
2, 28134, Note_on_c, 0, 55, 63
2, 28137, Note_on_c, 0, 52, 53
2, 28156, Note_on_c, 0, 51, 0
2, 28157, Note_on_c, 0, 47, 0
2, 28157, Note_on_c, 0, 66, 0
2, 28450, Note_on_c, 0, 55, 0
2, 28450, Note_on_c, 0, 71, 83
2, 28456, Note_on_c, 0, 50, 50
2, 28464, Note_on_c, 0, 59, 60
2, 28472, Note_on_c, 0, 52, 0
2, 28620, Note_on_c, 0, 71, 0
2, 28780, Note_on_c, 0, 71, 82
2, 28783, Note_on_c, 0, 55, 60
2, 28784, Note_on_c, 0, 64, 61
2, 28802, Note_on_c, 0, 50, 0
2, 28823, Note_on_c, 0, 59, 0
2, 28927, Note_on_c, 0, 71, 0
2, 29083, Note_on_c, 0, 71, 83
2, 29091, Note_on_c, 0, 64, 0
2, 29098, Note_on_c, 0, 62, 64
2, 29193, Note_on_c, 0, 71, 0
2, 29301, Note_on_c, 0, 62, 0
2, 29404, Control_c, 0, 64, 49
2, 29405, Note_on_c, 0, 64, 78
2, 29419, Control_c, 0, 64, 47
2, 29419, Note_on_c, 0, 61, 63
2, 29434, Control_c, 0, 64, 46
2, 29448, Control_c, 0, 64, 43
2, 29463, Control_c, 0, 64, 40
2, 29480, Control_c, 0, 64, 39
2, 29495, Control_c, 0, 64, 39
2, 29541, Control_c, 0, 64, 38
2, 29703, Note_on_c, 0, 61, 0
2, 29710, Note_on_c, 0, 59, 61
2, 30003, Note_on_c, 0, 59, 0
2, 30055, Note_on_c, 0, 67, 76
2, 30057, Note_on_c, 0, 49, 42
2, 30058, Note_on_c, 0, 58, 51
2, 30078, Note_on_c, 0, 55, 0
2, 30149, Note_on_c, 0, 64, 0
2, 30364, Note_on_c, 0, 49, 0
2, 30370, Note_on_c, 0, 58, 0
2, 30374, Note_on_c, 0, 50, 42
2, 30385, Note_on_c, 0, 59, 51
2, 30670, Note_on_c, 0, 50, 0
2, 30691, Note_on_c, 0, 52, 45
2, 30696, Control_c, 0, 64, 39
2, 30712, Control_c, 0, 64, 42
2, 30716, Note_on_c, 0, 61, 42
2, 30727, Control_c, 0, 64, 47
2, 30741, Control_c, 0, 64, 52
2, 30757, Control_c, 0, 64, 57
2, 30772, Control_c, 0, 64, 59
2, 30788, Control_c, 0, 64, 61
2, 30803, Control_c, 0, 64, 62
2, 30817, Control_c, 0, 64, 63
2, 30829, Note_on_c, 0, 67, 0
2, 30838, Note_on_c, 0, 59, 0
2, 30838, Note_on_c, 0, 61, 0
2, 30879, Control_c, 0, 64, 62
2, 30893, Control_c, 0, 64, 62
2, 30909, Control_c, 0, 64, 61
2, 30924, Control_c, 0, 64, 61
2, 30938, Control_c, 0, 64, 60
2, 30954, Control_c, 0, 64, 59
2, 30970, Control_c, 0, 64, 57
2, 30985, Control_c, 0, 64, 55
2, 31001, Control_c, 0, 64, 54
2, 31002, Note_on_c, 0, 52, 0
2, 31012, Note_on_c, 0, 61, 64
2, 31015, Control_c, 0, 64, 53
2, 31020, Note_on_c, 0, 55, 40
2, 31024, Note_on_c, 0, 64, 50
2, 31031, Control_c, 0, 64, 52
2, 31046, Control_c, 0, 64, 52
2, 31061, Control_c, 0, 64, 50
2, 31077, Control_c, 0, 64, 49
2, 31091, Control_c, 0, 64, 49
2, 31106, Control_c, 0, 64, 48
2, 31296, Note_on_c, 0, 61, 0
2, 31327, Note_on_c, 0, 55, 0
2, 31328, Control_c, 0, 64, 48
2, 31329, Note_on_c, 0, 64, 0
2, 31344, Note_on_c, 0, 66, 60
2, 31353, Note_on_c, 0, 46, 34
2, 31355, Note_on_c, 0, 62, 46
2, 31358, Note_on_c, 0, 54, 37
2, 31526, Control_c, 0, 64, 49
2, 31541, Control_c, 0, 64, 50
2, 31556, Control_c, 0, 64, 52
2, 31571, Control_c, 0, 64, 54
2, 31586, Control_c, 0, 64, 55
2, 31602, Control_c, 0, 64, 55
2, 31641, Note_on_c, 0, 62, 0
2, 31647, Note_on_c, 0, 66, 0
2, 31665, Note_on_c, 0, 61, 41
2, 31668, Note_on_c, 0, 64, 57
2, 31678, Control_c, 0, 64, 56
2, 31693, Control_c, 0, 64, 57
2, 31709, Control_c, 0, 64, 59
2, 31724, Control_c, 0, 64, 60
2, 31738, Control_c, 0, 64, 60
2, 31754, Control_c, 0, 64, 61
2, 31769, Control_c, 0, 64, 62
2, 31783, Control_c, 0, 64, 63
2, 31799, Control_c, 0, 64, 64
2, 31813, Note_on_c, 0, 61, 0
2, 31814, Control_c, 0, 64, 64
2, 31831, Note_on_c, 0, 46, 0
2, 31875, Control_c, 0, 64, 64
2, 31905, Control_c, 0, 64, 63
2, 31920, Control_c, 0, 64, 61
2, 31937, Control_c, 0, 64, 57
2, 31953, Control_c, 0, 64, 51
2, 31966, Note_on_c, 0, 54, 0
2, 31967, Control_c, 0, 64, 44
2, 31968, Note_on_c, 0, 64, 0
2, 31978, Note_on_c, 0, 62, 61
2, 31982, Control_c, 0, 64, 40
2, 31984, Note_on_c, 0, 47, 45
2, 31994, Note_on_c, 0, 59, 53
2, 31998, Control_c, 0, 64, 38
2, 32158, Control_c, 0, 64, 38
2, 32188, Control_c, 0, 64, 39
2, 32233, Control_c, 0, 64, 39
2, 32281, Note_on_c, 0, 59, 0
2, 32309, Control_c, 0, 64, 40
2, 32312, Note_on_c, 0, 66, 74
2, 32330, Note_on_c, 0, 57, 57
2, 32348, Note_on_c, 0, 62, 0
2, 32635, Note_on_c, 0, 56, 60
2, 32638, Note_on_c, 0, 57, 0
2, 32638, Note_on_c, 0, 71, 84
2, 32666, Note_on_c, 0, 66, 0
2, 32961, Note_on_c, 0, 54, 58
2, 32971, Note_on_c, 0, 56, 0
2, 32976, Note_on_c, 0, 69, 77
2, 32998, Note_on_c, 0, 71, 0
2, 33152, Note_on_c, 0, 47, 0
2, 33265, Note_on_c, 0, 69, 0
2, 33285, Note_on_c, 0, 68, 80
2, 33293, Note_on_c, 0, 54, 0
2, 33301, Note_on_c, 0, 52, 58
2, 33601, Control_c, 0, 64, 39
2, 33617, Note_on_c, 0, 71, 87
2, 33622, Note_on_c, 0, 50, 62
2, 33737, Control_c, 0, 64, 39
2, 33920, Control_c, 0, 64, 38
2, 33944, Note_on_c, 0, 49, 53
2, 33945, Note_on_c, 0, 76, 86
2, 33951, Note_on_c, 0, 50, 0
2, 33983, Note_on_c, 0, 71, 0
2, 34026, Control_c, 0, 64, 38
2, 34087, Control_c, 0, 64, 37
2, 34238, Note_on_c, 0, 49, 0
2, 34258, Note_on_c, 0, 74, 75
2, 34273, Note_on_c, 0, 47, 49
2, 34304, Note_on_c, 0, 76, 0
2, 34334, Note_on_c, 0, 68, 0
2, 34579, Note_on_c, 0, 52, 0
2, 34585, Note_on_c, 0, 45, 49
2, 34586, Note_on_c, 0, 47, 0
2, 34591, Note_on_c, 0, 73, 69
2, 34598, Note_on_c, 0, 74, 0
2, 34897, Note_on_c, 0, 52, 48
2, 34901, Note_on_c, 0, 69, 64
2, 35030, Note_on_c, 0, 69, 0
2, 35197, Control_c, 0, 64, 38
2, 35225, Note_on_c, 0, 57, 54
2, 35229, Control_c, 0, 64, 42
2, 35231, Note_on_c, 0, 69, 72
2, 35243, Control_c, 0, 64, 51
2, 35258, Control_c, 0, 64, 57
2, 35274, Control_c, 0, 64, 61
2, 35289, Control_c, 0, 64, 63
2, 35304, Control_c, 0, 64, 64
2, 35318, Note_on_c, 0, 45, 0
2, 35319, Control_c, 0, 64, 65
2, 35334, Control_c, 0, 64, 66
2, 35341, Note_on_c, 0, 69, 0
2, 35348, Note_on_c, 0, 57, 0
2, 35350, Control_c, 0, 64, 66
2, 35365, Control_c, 0, 64, 67
2, 35380, Control_c, 0, 64, 68
2, 35395, Control_c, 0, 64, 69
2, 35425, Control_c, 0, 64, 69
2, 35441, Control_c, 0, 64, 67
2, 35456, Control_c, 0, 64, 64
2, 35471, Control_c, 0, 64, 59
2, 35486, Control_c, 0, 64, 54
2, 35501, Control_c, 0, 64, 48
2, 35517, Control_c, 0, 64, 43
2, 35531, Control_c, 0, 64, 42
2, 35536, Note_on_c, 0, 45, 48
2, 35537, Note_on_c, 0, 69, 79
2, 35550, Note_on_c, 0, 55, 55
2, 35562, Control_c, 0, 64, 47
2, 35578, Control_c, 0, 64, 55
2, 35591, Note_on_c, 0, 52, 0
2, 35594, Control_c, 0, 64, 61
2, 35608, Control_c, 0, 64, 64
2, 35623, Control_c, 0, 64, 67
2, 35635, Note_on_c, 0, 69, 0
2, 35636, Note_on_c, 0, 45, 0
2, 35639, Control_c, 0, 64, 70
2, 35640, Note_on_c, 0, 73, 0
2, 35654, Control_c, 0, 64, 73
2, 35670, Control_c, 0, 64, 79
2, 35684, Control_c, 0, 64, 86
2, 35699, Control_c, 0, 64, 94
2, 35715, Control_c, 0, 64, 97
2, 35744, Control_c, 0, 64, 96
2, 35760, Control_c, 0, 64, 94
2, 35775, Control_c, 0, 64, 92
2, 35791, Control_c, 0, 64, 89
2, 35806, Control_c, 0, 64, 85
2, 35821, Control_c, 0, 64, 79
2, 35837, Control_c, 0, 64, 73
2, 35846, Note_on_c, 0, 55, 0
2, 35848, Note_on_c, 0, 47, 45
2, 35851, Control_c, 0, 64, 66
2, 35864, Note_on_c, 0, 54, 49
2, 35866, Control_c, 0, 64, 61
2, 35868, Note_on_c, 0, 62, 78
2, 35889, Control_c, 0, 64, 53
2, 35904, Control_c, 0, 64, 48
2, 35920, Control_c, 0, 64, 46
2, 35934, Control_c, 0, 64, 45
2, 35950, Control_c, 0, 64, 45
2, 35965, Control_c, 0, 64, 44
2, 35980, Control_c, 0, 64, 43
2, 35996, Control_c, 0, 64, 40
2, 36011, Control_c, 0, 64, 38
2, 36026, Control_c, 0, 64, 36
2, 36164, Control_c, 0, 64, 40
2, 36176, Note_on_c, 0, 54, 0
2, 36179, Control_c, 0, 64, 45
2, 36189, Note_on_c, 0, 74, 74
2, 36193, Note_on_c, 0, 52, 45
2, 36194, Control_c, 0, 64, 51
2, 36209, Control_c, 0, 64, 56
2, 36224, Control_c, 0, 64, 58
2, 36240, Control_c, 0, 64, 59
2, 36271, Control_c, 0, 64, 60
2, 36274, Note_on_c, 0, 74, 0
2, 36285, Control_c, 0, 64, 61
2, 36300, Control_c, 0, 64, 62
2, 36316, Control_c, 0, 64, 62
2, 36331, Control_c, 0, 64, 63
2, 36361, Control_c, 0, 64, 63
2, 36391, Control_c, 0, 64, 64
2, 36406, Control_c, 0, 64, 63
2, 36437, Control_c, 0, 64, 63
2, 36466, Control_c, 0, 64, 61
2, 36470, Note_on_c, 0, 52, 0
2, 36482, Control_c, 0, 64, 59
2, 36482, Note_on_c, 0, 50, 50
2, 36483, Note_on_c, 0, 74, 82
2, 36494, Note_on_c, 0, 66, 66
2, 36497, Control_c, 0, 64, 54
2, 36497, Note_on_c, 0, 62, 0
2, 36513, Control_c, 0, 64, 47
2, 36527, Control_c, 0, 64, 39
2, 36542, Control_c, 0, 64, 34
2, 36558, Control_c, 0, 64, 33
2, 36567, Note_on_c, 0, 47, 0
2, 36589, Control_c, 0, 64, 38
2, 36604, Control_c, 0, 64, 46
2, 36619, Control_c, 0, 64, 53
2, 36635, Control_c, 0, 64, 57
2, 36656, Control_c, 0, 64, 60
2, 36661, Note_on_c, 0, 74, 0
2, 36672, Control_c, 0, 64, 61
2, 36687, Control_c, 0, 64, 62
2, 36701, Control_c, 0, 64, 63
2, 36717, Control_c, 0, 64, 63
2, 36748, Control_c, 0, 64, 62
2, 36763, Control_c, 0, 64, 58
2, 36778, Control_c, 0, 64, 43
2, 36794, Control_c, 0, 64, 0
2, 36804, Note_on_c, 0, 74, 86
2, 36819, Note_on_c, 0, 47, 58
2, 36839, Control_c, 0, 64, 37
2, 36855, Control_c, 0, 64, 54
2, 36871, Control_c, 0, 64, 61
2, 36871, Note_on_c, 0, 50, 0
2, 36878, Note_on_c, 0, 47, 0
2, 36885, Control_c, 0, 64, 64
2, 36890, Note_on_c, 0, 74, 0
2, 36900, Control_c, 0, 64, 66
2, 36916, Control_c, 0, 64, 68
2, 36931, Control_c, 0, 64, 71
2, 36946, Control_c, 0, 64, 75
2, 36962, Control_c, 0, 64, 79
2, 36977, Control_c, 0, 64, 83
2, 36993, Control_c, 0, 64, 87
2, 37007, Control_c, 0, 64, 88
2, 37053, Control_c, 0, 64, 88
2, 37069, Control_c, 0, 64, 86
2, 37083, Control_c, 0, 64, 82
2, 37098, Control_c, 0, 64, 74
2, 37106, Note_on_c, 0, 40, 47
2, 37110, Note_on_c, 0, 67, 82
2, 37114, Control_c, 0, 64, 65
2, 37118, Note_on_c, 0, 52, 44
2, 37128, Control_c, 0, 64, 55
2, 37143, Control_c, 0, 64, 44
2, 37159, Control_c, 0, 64, 40
2, 37190, Control_c, 0, 64, 42
2, 37204, Control_c, 0, 64, 48
2, 37219, Control_c, 0, 64, 54
2, 37231, Note_on_c, 0, 52, 0
2, 37235, Control_c, 0, 64, 59
2, 37250, Control_c, 0, 64, 62
2, 37263, Note_on_c, 0, 66, 0
2, 37265, Control_c, 0, 64, 64
2, 37280, Control_c, 0, 64, 67
2, 37295, Control_c, 0, 64, 69
2, 37311, Control_c, 0, 64, 72
2, 37326, Control_c, 0, 64, 75
2, 37340, Control_c, 0, 64, 78
2, 37356, Control_c, 0, 64, 79
2, 37386, Control_c, 0, 64, 78
2, 37402, Control_c, 0, 64, 76
2, 37424, Control_c, 0, 64, 72
2, 37436, Note_on_c, 0, 59, 61
2, 37440, Control_c, 0, 64, 66
2, 37448, Note_on_c, 0, 54, 51
2, 37455, Control_c, 0, 64, 60
2, 37471, Control_c, 0, 64, 54
2, 37500, Control_c, 0, 64, 57
2, 37516, Control_c, 0, 64, 62
2, 37531, Control_c, 0, 64, 66
2, 37545, Control_c, 0, 64, 69
2, 37561, Control_c, 0, 64, 73
2, 37573, Note_on_c, 0, 40, 0
2, 37576, Control_c, 0, 64, 78
2, 37590, Note_on_c, 0, 59, 0
2, 37592, Control_c, 0, 64, 84
2, 37607, Control_c, 0, 64, 92
2, 37622, Control_c, 0, 64, 101
2, 37629, Note_on_c, 0, 54, 0
2, 37637, Control_c, 0, 64, 111
2, 37652, Control_c, 0, 64, 123
2, 37669, Control_c, 0, 64, 127
2, 37699, Control_c, 0, 64, 115
2, 37715, Control_c, 0, 64, 111
2, 37729, Control_c, 0, 64, 105
2, 37744, Control_c, 0, 64, 99
2, 37760, Control_c, 0, 64, 90
2, 37764, Note_on_c, 0, 71, 74
2, 37766, Note_on_c, 0, 55, 50
2, 37766, Note_on_c, 0, 67, 0
2, 37775, Control_c, 0, 64, 79
2, 37775, Note_on_c, 0, 64, 56
2, 37791, Control_c, 0, 64, 67
2, 37805, Control_c, 0, 64, 60
2, 37820, Control_c, 0, 64, 53
2, 37836, Control_c, 0, 64, 51
2, 37913, Control_c, 0, 64, 51
2, 38047, Note_on_c, 0, 64, 0
2, 38061, Note_on_c, 0, 52, 43
2, 38073, Note_on_c, 0, 62, 48
2, 38075, Note_on_c, 0, 55, 0
2, 38380, Note_on_c, 0, 62, 0
2, 38392, Note_on_c, 0, 52, 0
2, 38399, Note_on_c, 0, 45, 36
2, 38403, Note_on_c, 0, 61, 47
2, 38405, Note_on_c, 0, 55, 39
2, 38496, Note_on_c, 0, 55, 0
2, 38604, Control_c, 0, 64, 51
2, 38689, Note_on_c, 0, 71, 0
2, 38711, Note_on_c, 0, 55, 45
2, 38719, Note_on_c, 0, 64, 56
2, 38756, Control_c, 0, 64, 52
2, 39050, Note_on_c, 0, 54, 39
2, 39057, Note_on_c, 0, 69, 59
2, 39060, Note_on_c, 0, 55, 0
2, 39061, Note_on_c, 0, 64, 0
2, 39189, Control_c, 0, 64, 51
2, 39204, Control_c, 0, 64, 51
2, 39219, Control_c, 0, 64, 50
2, 39234, Control_c, 0, 64, 50
2, 39249, Control_c, 0, 64, 49
2, 39264, Control_c, 0, 64, 49
2, 39312, Control_c, 0, 64, 49
2, 39327, Control_c, 0, 64, 53
2, 39335, Note_on_c, 0, 54, 0
2, 39341, Control_c, 0, 64, 57
2, 39350, Note_on_c, 0, 69, 0
2, 39357, Control_c, 0, 64, 60
2, 39362, Note_on_c, 0, 52, 38
2, 39372, Control_c, 0, 64, 61
2, 39377, Note_on_c, 0, 67, 52
2, 39388, Control_c, 0, 64, 62
2, 39402, Note_on_c, 0, 61, 0
2, 39403, Control_c, 0, 64, 62
2, 39403, Note_on_c, 0, 45, 0
2, 39418, Control_c, 0, 64, 63
2, 39434, Control_c, 0, 64, 65
2, 39449, Control_c, 0, 64, 67
2, 39463, Control_c, 0, 64, 71
2, 39479, Control_c, 0, 64, 76
2, 39494, Control_c, 0, 64, 82
2, 39510, Control_c, 0, 64, 89
2, 39522, Note_on_c, 0, 52, 0
2, 39525, Control_c, 0, 64, 96
2, 39539, Control_c, 0, 64, 103
2, 39555, Control_c, 0, 64, 108
2, 39570, Control_c, 0, 64, 109
2, 39585, Control_c, 0, 64, 106
2, 39601, Control_c, 0, 64, 101
2, 39615, Control_c, 0, 64, 92
2, 39631, Control_c, 0, 64, 81
2, 39646, Control_c, 0, 64, 70
2, 39648, Note_on_c, 0, 67, 0
2, 39661, Control_c, 0, 64, 62
2, 39677, Control_c, 0, 64, 52
2, 39677, Note_on_c, 0, 38, 37
2, 39682, Note_on_c, 0, 66, 51
2, 39683, Note_on_c, 0, 50, 40
2, 39692, Control_c, 0, 64, 50
2, 39708, Control_c, 0, 64, 52
2, 39730, Control_c, 0, 64, 58
2, 39731, Note_on_c, 0, 38, 0
2, 39744, Control_c, 0, 64, 63
2, 39760, Control_c, 0, 64, 67
2, 39774, Note_on_c, 0, 50, 0
2, 39775, Control_c, 0, 64, 69
2, 39791, Control_c, 0, 64, 72
2, 39805, Control_c, 0, 64, 74
2, 39820, Control_c, 0, 64, 77
2, 39836, Control_c, 0, 64, 79
2, 39851, Control_c, 0, 64, 82
2, 39866, Control_c, 0, 64, 85
2, 39881, Control_c, 0, 64, 88
2, 39896, Control_c, 0, 64, 93
2, 39912, Control_c, 0, 64, 99
2, 39927, Control_c, 0, 64, 103
2, 39942, Control_c, 0, 64, 104
2, 40017, Note_on_c, 0, 57, 52
2, 40094, Control_c, 0, 64, 103
2, 40110, Control_c, 0, 64, 102
2, 40152, Note_on_c, 0, 66, 0
2, 40232, Control_c, 0, 64, 101
2, 40247, Control_c, 0, 64, 101
2, 40261, Control_c, 0, 64, 100
2, 40277, Control_c, 0, 64, 98
2, 40292, Control_c, 0, 64, 96
2, 40302, Note_on_c, 0, 57, 0
2, 40306, Control_c, 0, 64, 93
2, 40322, Control_c, 0, 64, 88
2, 40337, Control_c, 0, 64, 80
2, 40346, Note_on_c, 0, 62, 47
2, 40353, Control_c, 0, 64, 72
2, 40368, Control_c, 0, 64, 65
2, 40382, Control_c, 0, 64, 60
2, 40398, Control_c, 0, 64, 56
2, 40413, Control_c, 0, 64, 55
2, 40497, Control_c, 0, 64, 55
2, 40513, Control_c, 0, 64, 54
2, 40662, Note_on_c, 0, 62, 0
2, 40666, Note_on_c, 0, 60, 50
2, 40673, Note_on_c, 0, 69, 63
2, 40725, Control_c, 0, 64, 55
2, 40908, Control_c, 0, 64, 55
2, 40982, Note_on_c, 0, 69, 0
2, 40988, Note_on_c, 0, 59, 55
2, 40988, Note_on_c, 0, 74, 77
2, 40990, Note_on_c, 0, 60, 0
2, 41000, Control_c, 0, 64, 56
2, 41265, Control_c, 0, 64, 56
2, 41297, Note_on_c, 0, 74, 0
2, 41314, Note_on_c, 0, 72, 78
2, 41316, Note_on_c, 0, 62, 58
2, 41357, Control_c, 0, 64, 57
2, 41386, Control_c, 0, 64, 57
2, 41527, Note_on_c, 0, 59, 0
2, 41602, Note_on_c, 0, 62, 0
2, 41633, Note_on_c, 0, 71, 81
2, 41646, Note_on_c, 0, 67, 65
2, 41654, Note_on_c, 0, 72, 0
2, 41934, Control_c, 0, 64, 57
2, 41945, Note_on_c, 0, 74, 83
2, 41952, Note_on_c, 0, 67, 0
2, 41957, Note_on_c, 0, 66, 64
2, 41970, Note_on_c, 0, 71, 0
2, 42201, Control_c, 0, 64, 56
2, 42246, Control_c, 0, 64, 56
2, 42261, Control_c, 0, 64, 55
2, 42289, Note_on_c, 0, 79, 90
2, 42296, Note_on_c, 0, 74, 0
2, 42305, Note_on_c, 0, 64, 63
2, 42322, Control_c, 0, 64, 57
2, 42332, Note_on_c, 0, 66, 0
2, 42336, Control_c, 0, 64, 59
2, 42352, Control_c, 0, 64, 61
2, 42367, Control_c, 0, 64, 64
2, 42382, Control_c, 0, 64, 67
2, 42398, Control_c, 0, 64, 70
2, 42405, Note_on_c, 0, 64, 0
2, 42413, Control_c, 0, 64, 73
2, 42429, Control_c, 0, 64, 77
2, 42443, Control_c, 0, 64, 81
2, 42458, Control_c, 0, 64, 87
2, 42474, Control_c, 0, 64, 98
2, 42489, Control_c, 0, 64, 112
2, 42504, Control_c, 0, 64, 127
2, 42581, Control_c, 0, 64, 123
2, 42597, Control_c, 0, 64, 111
2, 42611, Control_c, 0, 64, 102
2, 42626, Control_c, 0, 64, 95
2, 42630, Note_on_c, 0, 62, 57
2, 42631, Note_on_c, 0, 52, 59
2, 42642, Control_c, 0, 64, 90
2, 42657, Control_c, 0, 64, 86
2, 42673, Control_c, 0, 64, 81
2, 42688, Control_c, 0, 64, 77
2, 42703, Control_c, 0, 64, 72
2, 42718, Control_c, 0, 64, 67
2, 42733, Control_c, 0, 64, 63
2, 42749, Control_c, 0, 64, 60
2, 42763, Control_c, 0, 64, 59
2, 42847, Control_c, 0, 64, 58
2, 42862, Control_c, 0, 64, 58
2, 42893, Control_c, 0, 64, 57
2, 42949, Note_on_c, 0, 78, 88
2, 42954, Note_on_c, 0, 62, 0
2, 42955, Note_on_c, 0, 57, 64
2, 42962, Note_on_c, 0, 79, 0
2, 42966, Note_on_c, 0, 61, 64
2, 42969, Control_c, 0, 64, 57
2, 42989, Note_on_c, 0, 52, 0
2, 43090, Control_c, 0, 64, 56
2, 43271, Note_on_c, 0, 55, 61
2, 43275, Note_on_c, 0, 76, 86
2, 43276, Note_on_c, 0, 57, 0
2, 43287, Control_c, 0, 64, 56
2, 43293, Note_on_c, 0, 78, 0
2, 43363, Control_c, 0, 64, 56
2, 43409, Control_c, 0, 64, 57
2, 43424, Control_c, 0, 64, 57
2, 43440, Control_c, 0, 64, 58
2, 43545, Control_c, 0, 64, 57
2, 43568, Control_c, 0, 64, 56
2, 43583, Control_c, 0, 64, 53
2, 43586, Note_on_c, 0, 61, 0
2, 43595, Note_on_c, 0, 54, 63
2, 43598, Note_on_c, 0, 81, 85
2, 43599, Control_c, 0, 64, 49
2, 43603, Note_on_c, 0, 62, 58
2, 43609, Note_on_c, 0, 76, 0
2, 43611, Note_on_c, 0, 55, 0
2, 43614, Control_c, 0, 64, 47
2, 43630, Control_c, 0, 64, 46
2, 43721, Control_c, 0, 64, 47
2, 43735, Control_c, 0, 64, 48
2, 43743, Note_on_c, 0, 62, 0
2, 43751, Control_c, 0, 64, 50
2, 43766, Control_c, 0, 64, 51
2, 43781, Control_c, 0, 64, 54
2, 43797, Control_c, 0, 64, 57
2, 43811, Control_c, 0, 64, 60
2, 43826, Control_c, 0, 64, 62
2, 43842, Control_c, 0, 64, 63
2, 43857, Control_c, 0, 64, 65
2, 43873, Control_c, 0, 64, 67
2, 43887, Control_c, 0, 64, 70
2, 43902, Control_c, 0, 64, 74
2, 43911, Note_on_c, 0, 57, 65
2, 43911, Note_on_c, 0, 79, 87
2, 43912, Note_on_c, 0, 64, 60
2, 43914, Note_on_c, 0, 54, 0
2, 43916, Note_on_c, 0, 81, 0
2, 43918, Control_c, 0, 64, 77
2, 43933, Control_c, 0, 64, 80
2, 43948, Control_c, 0, 64, 82
2, 43963, Control_c, 0, 64, 85
2, 43976, Note_on_c, 0, 79, 0
2, 43978, Control_c, 0, 64, 86
2, 43994, Control_c, 0, 64, 87
2, 44039, Control_c, 0, 64, 87
2, 44049, Note_on_c, 0, 64, 0
2, 44054, Control_c, 0, 64, 88
2, 44070, Control_c, 0, 64, 89
2, 44085, Control_c, 0, 64, 89
2, 44100, Control_c, 0, 64, 89
2, 44131, Control_c, 0, 64, 88
2, 44145, Control_c, 0, 64, 88
2, 44161, Control_c, 0, 64, 86
2, 44176, Control_c, 0, 64, 85
2, 44192, Control_c, 0, 64, 83
2, 44207, Control_c, 0, 64, 82
2, 44222, Control_c, 0, 64, 80
2, 44238, Control_c, 0, 64, 77
2, 44253, Control_c, 0, 64, 72
2, 44253, Note_on_c, 0, 78, 88
2, 44254, Note_on_c, 0, 57, 0
2, 44259, Note_on_c, 0, 62, 57
2, 44269, Control_c, 0, 64, 67
2, 44274, Note_on_c, 0, 66, 57
2, 44284, Control_c, 0, 64, 64
2, 44299, Control_c, 0, 64, 62
2, 44315, Control_c, 0, 64, 61
2, 44336, Control_c, 0, 64, 60
2, 44352, Control_c, 0, 64, 59
2, 44367, Control_c, 0, 64, 58
2, 44381, Control_c, 0, 64, 57
2, 44397, Control_c, 0, 64, 57
2, 44412, Control_c, 0, 64, 56
2, 44428, Control_c, 0, 64, 56
2, 44443, Control_c, 0, 64, 54
2, 44458, Control_c, 0, 64, 54
2, 44543, Note_on_c, 0, 78, 0
2, 44579, Note_on_c, 0, 76, 74
2, 44591, Note_on_c, 0, 61, 51
2, 44594, Note_on_c, 0, 62, 0
2, 44610, Control_c, 0, 64, 53
2, 44874, Note_on_c, 0, 61, 0
2, 44886, Note_on_c, 0, 76, 0
2, 44891, Note_on_c, 0, 74, 70
2, 44899, Note_on_c, 0, 59, 46
2, 45005, Control_c, 0, 64, 54
2, 45020, Control_c, 0, 64, 55
2, 45036, Control_c, 0, 64, 56
2, 45051, Control_c, 0, 64, 57
2, 45066, Control_c, 0, 64, 58
2, 45082, Control_c, 0, 64, 59
2, 45196, Control_c, 0, 64, 60
2, 45211, Control_c, 0, 64, 62
2, 45215, Note_on_c, 0, 47, 37
2, 45225, Control_c, 0, 64, 64
2, 45241, Control_c, 0, 64, 65
2, 45256, Control_c, 0, 64, 67
2, 45272, Control_c, 0, 64, 70
2, 45279, Note_on_c, 0, 74, 0
2, 45287, Control_c, 0, 64, 74
2, 45302, Control_c, 0, 64, 77
2, 45318, Control_c, 0, 64, 81
2, 45332, Control_c, 0, 64, 82
2, 45348, Control_c, 0, 64, 83
2, 45375, Note_on_c, 0, 59, 0
2, 45389, Note_on_c, 0, 66, 0
2, 45423, Control_c, 0, 64, 83
2, 45454, Control_c, 0, 64, 82
2, 45470, Control_c, 0, 64, 82
2, 45485, Control_c, 0, 64, 81
2, 45499, Control_c, 0, 64, 79
2, 45515, Control_c, 0, 64, 77
2, 45530, Control_c, 0, 64, 75
2, 45533, Note_on_c, 0, 59, 34
2, 45537, Note_on_c, 0, 52, 51
2, 45543, Note_on_c, 0, 73, 67
2, 45545, Control_c, 0, 64, 73
2, 45561, Control_c, 0, 64, 69
2, 45568, Note_on_c, 0, 68, 46
2, 45575, Control_c, 0, 64, 66
2, 45591, Control_c, 0, 64, 63
2, 45597, Note_on_c, 0, 47, 0
2, 45606, Control_c, 0, 64, 61
2, 45621, Control_c, 0, 64, 59
2, 45636, Control_c, 0, 64, 59
2, 45666, Control_c, 0, 64, 58
2, 45697, Control_c, 0, 64, 58
2, 45712, Control_c, 0, 64, 57
2, 45742, Control_c, 0, 64, 57
2, 45817, Note_on_c, 0, 73, 0
2, 45848, Note_on_c, 0, 52, 0
2, 45849, Note_on_c, 0, 50, 46
2, 45849, Note_on_c, 0, 71, 72
2, 46161, Note_on_c, 0, 76, 75
2, 46168, Note_on_c, 0, 71, 0
2, 46170, Note_on_c, 0, 49, 40
2, 46207, Control_c, 0, 64, 57
2, 46212, Note_on_c, 0, 59, 0
2, 46213, Note_on_c, 0, 50, 0
2, 46219, Note_on_c, 0, 68, 0
2, 46222, Control_c, 0, 64, 60
2, 46238, Control_c, 0, 64, 62
2, 46253, Control_c, 0, 64, 63
2, 46269, Control_c, 0, 64, 64
2, 46283, Control_c, 0, 64, 65
2, 46298, Control_c, 0, 64, 66
2, 46314, Control_c, 0, 64, 67
2, 46329, Control_c, 0, 64, 68
2, 46344, Control_c, 0, 64, 69
2, 46359, Control_c, 0, 64, 69
2, 46374, Control_c, 0, 64, 69
2, 46390, Control_c, 0, 64, 67
2, 46404, Control_c, 0, 64, 65
2, 46419, Control_c, 0, 64, 62
2, 46435, Control_c, 0, 64, 57
2, 46450, Control_c, 0, 64, 56
2, 46480, Control_c, 0, 64, 57
2, 46485, Note_on_c, 0, 76, 0
2, 46494, Note_on_c, 0, 74, 70
2, 46495, Control_c, 0, 64, 61
2, 46498, Note_on_c, 0, 59, 39
2, 46511, Control_c, 0, 64, 64
2, 46512, Note_on_c, 0, 52, 48
2, 46512, Note_on_c, 0, 68, 60
2, 46526, Control_c, 0, 64, 66
2, 46540, Note_on_c, 0, 49, 0
2, 46541, Control_c, 0, 64, 67
2, 46556, Control_c, 0, 64, 69
2, 46567, Note_on_c, 0, 52, 0
2, 46571, Control_c, 0, 64, 71
2, 46586, Control_c, 0, 64, 74
2, 46601, Control_c, 0, 64, 77
2, 46601, Note_on_c, 0, 74, 0
2, 46612, Note_on_c, 0, 59, 0
2, 46616, Control_c, 0, 64, 78
2, 46640, Control_c, 0, 64, 79
2, 46655, Control_c, 0, 64, 81
2, 46671, Control_c, 0, 64, 81
2, 46694, Note_on_c, 0, 68, 0
2, 46702, Control_c, 0, 64, 81
2, 46717, Control_c, 0, 64, 80
2, 46763, Control_c, 0, 64, 79
2, 46778, Control_c, 0, 64, 77
2, 46793, Control_c, 0, 64, 73
2, 46808, Control_c, 0, 64, 69
2, 46823, Control_c, 0, 64, 66
2, 46828, Note_on_c, 0, 57, 41
2, 46839, Control_c, 0, 64, 64
2, 46840, Note_on_c, 0, 73, 61
2, 46843, Note_on_c, 0, 61, 37
2, 46846, Note_on_c, 0, 69, 43
2, 46854, Control_c, 0, 64, 63
2, 46869, Control_c, 0, 64, 61
2, 46884, Control_c, 0, 64, 60
2, 46899, Control_c, 0, 64, 58
2, 46914, Control_c, 0, 64, 57
2, 46929, Control_c, 0, 64, 57
2, 46960, Control_c, 0, 64, 56
2, 46975, Control_c, 0, 64, 55
2, 46990, Control_c, 0, 64, 54
2, 47005, Control_c, 0, 64, 54
2, 47066, Control_c, 0, 64, 53
2, 47096, Control_c, 0, 64, 53
2, 47105, Note_on_c, 0, 73, 0
2, 47127, Control_c, 0, 64, 52
2, 47130, Note_on_c, 0, 57, 0
2, 47142, Note_on_c, 0, 56, 45
2, 47142, Note_on_c, 0, 71, 62
2, 47149, Note_on_c, 0, 64, 52
2, 47151, Note_on_c, 0, 69, 0
2, 47158, Control_c, 0, 64, 52
2, 47248, Control_c, 0, 64, 51
2, 47408, Control_c, 0, 64, 51
2, 47460, Note_on_c, 0, 71, 0
2, 47469, Note_on_c, 0, 64, 0
2, 47471, Note_on_c, 0, 69, 62
2, 47477, Note_on_c, 0, 54, 46
2, 47477, Note_on_c, 0, 56, 0
2, 47500, Control_c, 0, 64, 53
2, 47516, Control_c, 0, 64, 57
2, 47531, Control_c, 0, 64, 60
2, 47546, Control_c, 0, 64, 63
2, 47561, Control_c, 0, 64, 65
2, 47576, Control_c, 0, 64, 66
2, 47579, Note_on_c, 0, 61, 0
2, 47592, Control_c, 0, 64, 68
2, 47607, Control_c, 0, 64, 70
2, 47622, Control_c, 0, 64, 73
2, 47637, Control_c, 0, 64, 75
2, 47652, Control_c, 0, 64, 78
2, 47668, Control_c, 0, 64, 79
2, 47697, Control_c, 0, 64, 79
2, 47713, Control_c, 0, 64, 78
2, 47728, Control_c, 0, 64, 78
2, 47743, Control_c, 0, 64, 77
2, 47758, Control_c, 0, 64, 76
2, 47773, Control_c, 0, 64, 72
2, 47775, Note_on_c, 0, 69, 0
2, 47783, Note_on_c, 0, 57, 50
2, 47784, Note_on_c, 0, 73, 71
2, 47789, Control_c, 0, 64, 68
2, 47796, Note_on_c, 0, 52, 42
2, 47803, Note_on_c, 0, 68, 48
2, 47804, Control_c, 0, 64, 63
2, 47819, Control_c, 0, 64, 61
2, 47834, Control_c, 0, 64, 62
2, 47845, Note_on_c, 0, 54, 0
2, 47849, Control_c, 0, 64, 63
2, 47864, Control_c, 0, 64, 65
2, 47873, Note_on_c, 0, 52, 0
2, 47880, Control_c, 0, 64, 68
2, 47894, Control_c, 0, 64, 71
2, 47910, Control_c, 0, 64, 73
2, 47925, Control_c, 0, 64, 74
2, 47940, Control_c, 0, 64, 74
2, 47956, Control_c, 0, 64, 73
2, 47971, Control_c, 0, 64, 73
2, 47984, Note_on_c, 0, 68, 0
2, 47986, Control_c, 0, 64, 72
2, 48002, Control_c, 0, 64, 71
2, 48017, Control_c, 0, 64, 67
2, 48033, Control_c, 0, 64, 64
2, 48047, Control_c, 0, 64, 60
2, 48054, Note_on_c, 0, 57, 0
2, 48062, Control_c, 0, 64, 56
2, 48078, Control_c, 0, 64, 52
2, 48080, Note_on_c, 0, 73, 0
2, 48092, Control_c, 0, 64, 49
2, 48093, Note_on_c, 0, 50, 40
2, 48105, Note_on_c, 0, 71, 59
2, 48108, Control_c, 0, 64, 49
2, 48112, Note_on_c, 0, 62, 36
2, 48113, Note_on_c, 0, 66, 54
2, 48192, Control_c, 0, 64, 50
2, 48206, Control_c, 0, 64, 54
2, 48221, Control_c, 0, 64, 58
2, 48237, Control_c, 0, 64, 60
2, 48252, Control_c, 0, 64, 62
2, 48268, Control_c, 0, 64, 64
2, 48283, Control_c, 0, 64, 64
2, 48297, Control_c, 0, 64, 65
2, 48313, Control_c, 0, 64, 65
2, 48360, Control_c, 0, 64, 65
2, 48374, Control_c, 0, 64, 63
2, 48378, Note_on_c, 0, 71, 0
2, 48390, Control_c, 0, 64, 62
2, 48405, Control_c, 0, 64, 61
2, 48420, Control_c, 0, 64, 60
2, 48426, Note_on_c, 0, 62, 0
2, 48435, Note_on_c, 0, 61, 41
2, 48436, Control_c, 0, 64, 59
2, 48436, Note_on_c, 0, 69, 60
2, 48451, Control_c, 0, 64, 57
2, 48466, Control_c, 0, 64, 55
2, 48481, Control_c, 0, 64, 53
2, 48496, Control_c, 0, 64, 51
2, 48512, Control_c, 0, 64, 51
2, 48572, Control_c, 0, 64, 53
2, 48588, Control_c, 0, 64, 57
2, 48602, Control_c, 0, 64, 61
2, 48607, Note_on_c, 0, 69, 0
2, 48617, Control_c, 0, 64, 64
2, 48633, Control_c, 0, 64, 67
2, 48648, Control_c, 0, 64, 70
2, 48663, Control_c, 0, 64, 73
2, 48678, Control_c, 0, 64, 76
2, 48693, Control_c, 0, 64, 78
2, 48709, Control_c, 0, 64, 78
2, 48724, Control_c, 0, 64, 79
2, 48735, Note_on_c, 0, 50, 0
2, 48739, Note_on_c, 0, 66, 0
2, 48748, Note_on_c, 0, 64, 56
2, 48750, Note_on_c, 0, 68, 68
2, 48756, Note_on_c, 0, 59, 39
2, 48769, Control_c, 0, 64, 78
2, 48769, Note_on_c, 0, 61, 0
2, 48784, Control_c, 0, 64, 77
2, 48800, Control_c, 0, 64, 75
2, 48815, Control_c, 0, 64, 71
2, 48831, Control_c, 0, 64, 66
2, 48845, Control_c, 0, 64, 61
2, 48860, Control_c, 0, 64, 57
2, 48876, Control_c, 0, 64, 55
2, 48943, Note_on_c, 0, 64, 0
2, 49042, Note_on_c, 0, 59, 0
2, 49055, Note_on_c, 0, 49, 30
2, 49081, Control_c, 0, 64, 57
2, 49083, Note_on_c, 0, 64, 54
2, 49087, Note_on_c, 0, 68, 0
2, 49096, Control_c, 0, 64, 60
2, 49112, Control_c, 0, 64, 63
2, 49127, Control_c, 0, 64, 65
2, 49142, Control_c, 0, 64, 67
2, 49158, Control_c, 0, 64, 69
2, 49172, Control_c, 0, 64, 73
2, 49188, Control_c, 0, 64, 76
2, 49203, Control_c, 0, 64, 78
2, 49218, Control_c, 0, 64, 79
2, 49249, Control_c, 0, 64, 79
2, 49280, Control_c, 0, 64, 79
2, 49294, Control_c, 0, 64, 78
2, 49310, Control_c, 0, 64, 78
2, 49340, Control_c, 0, 64, 77
2, 49356, Control_c, 0, 64, 76
2, 49370, Control_c, 0, 64, 73
2, 49385, Control_c, 0, 64, 70
2, 49398, Note_on_c, 0, 64, 0
2, 49401, Control_c, 0, 64, 68
2, 49404, Note_on_c, 0, 57, 39
2, 49411, Note_on_c, 0, 69, 66
2, 49416, Control_c, 0, 64, 66
2, 49417, Note_on_c, 0, 54, 32
2, 49426, Note_on_c, 0, 62, 52
2, 49432, Control_c, 0, 64, 64
2, 49439, Note_on_c, 0, 49, 0
2, 49446, Control_c, 0, 64, 63
2, 49461, Control_c, 0, 64, 61
2, 49477, Control_c, 0, 64, 59
2, 49491, Control_c, 0, 64, 58
2, 49522, Control_c, 0, 64, 58
2, 49553, Control_c, 0, 64, 57
2, 49567, Control_c, 0, 64, 56
2, 49656, Note_on_c, 0, 57, 0
2, 49689, Note_on_c, 0, 54, 0
2, 49728, Note_on_c, 0, 52, 44
2, 49731, Note_on_c, 0, 56, 37
2, 49749, Note_on_c, 0, 61, 44
2, 49752, Note_on_c, 0, 62, 0
2, 49970, Note_on_c, 0, 56, 0
2, 50032, Note_on_c, 0, 52, 0
2, 50041, Note_on_c, 0, 50, 35
2, 50045, Note_on_c, 0, 61, 0
2, 50049, Note_on_c, 0, 54, 38
2, 50056, Note_on_c, 0, 59, 45
2, 50397, Note_on_c, 0, 61, 42
2, 50399, Note_on_c, 0, 59, 0
2, 50713, Note_on_c, 0, 52, 39
2, 50715, Note_on_c, 0, 61, 0
2, 50719, Note_on_c, 0, 50, 0
2, 50726, Note_on_c, 0, 62, 39
2, 50744, Note_on_c, 0, 54, 0
2, 50998, Control_c, 0, 67, 13
2, 51013, Control_c, 0, 67, 30
2, 51029, Control_c, 0, 67, 49
2, 51035, Note_on_c, 0, 69, 0
2, 51044, Control_c, 0, 67, 71
2, 51058, Control_c, 0, 67, 100
2, 51065, Note_on_c, 0, 68, 50
2, 51074, Control_c, 0, 67, 127
2, 51179, Control_c, 0, 64, 56
2, 51449, Note_on_c, 0, 68, 0
2, 51450, Note_on_c, 0, 45, 37
2, 51459, Note_on_c, 0, 69, 57
2, 51764, Note_on_c, 0, 62, 0
2, 51781, Note_on_c, 0, 61, 41
2, 51887, Control_c, 0, 67, 108
2, 51902, Control_c, 0, 67, 81
2, 51918, Control_c, 0, 67, 57
2, 51933, Control_c, 0, 67, 39
2, 51949, Control_c, 0, 67, 22
2, 51964, Control_c, 0, 67, 0
2, 52075, Note_on_c, 0, 45, 0
2, 52082, Note_on_c, 0, 52, 0
2, 52101, Note_on_c, 0, 61, 0
2, 52104, Note_on_c, 0, 66, 42
2, 52335, Control_c, 0, 64, 56
2, 52441, Note_on_c, 0, 42, 43
2, 52446, Note_on_c, 0, 64, 42
2, 52494, Note_on_c, 0, 66, 0
2, 52625, Note_on_c, 0, 69, 0
2, 52712, Note_on_c, 0, 64, 0
2, 52729, Note_on_c, 0, 63, 47
2, 52734, Note_on_c, 0, 42, 0
2, 52741, Note_on_c, 0, 47, 45
2, 53052, Note_on_c, 0, 66, 48
2, 53056, Note_on_c, 0, 59, 55
2, 53178, Note_on_c, 0, 59, 0
2, 53378, Note_on_c, 0, 59, 68
2, 53389, Note_on_c, 0, 71, 57
2, 53436, Note_on_c, 0, 66, 0
2, 53514, Note_on_c, 0, 59, 0
2, 53687, Note_on_c, 0, 71, 0
2, 53691, Note_on_c, 0, 69, 66
2, 53696, Note_on_c, 0, 59, 71
2, 53777, Note_on_c, 0, 47, 0
2, 53875, Note_on_c, 0, 59, 0
2, 53997, Note_on_c, 0, 52, 60
2, 54001, Note_on_c, 0, 63, 0
2, 54012, Note_on_c, 0, 67, 58
2, 54013, Note_on_c, 0, 69, 0
2, 54283, Control_c, 0, 64, 56
2, 54292, Note_on_c, 0, 50, 50
2, 54293, Note_on_c, 0, 59, 50
2, 54336, Control_c, 0, 64, 56
2, 54352, Control_c, 0, 64, 59
2, 54366, Control_c, 0, 64, 61
2, 54381, Control_c, 0, 64, 64
2, 54397, Control_c, 0, 64, 66
2, 54397, Note_on_c, 0, 52, 0
2, 54412, Control_c, 0, 64, 68
2, 54428, Control_c, 0, 64, 70
2, 54442, Control_c, 0, 64, 71
2, 54457, Control_c, 0, 64, 73
2, 54473, Control_c, 0, 64, 74
2, 54488, Control_c, 0, 64, 75
2, 54502, Control_c, 0, 64, 76
2, 54549, Control_c, 0, 64, 75
2, 54578, Control_c, 0, 64, 74
2, 54594, Control_c, 0, 64, 73
2, 54609, Control_c, 0, 64, 69
2, 54618, Note_on_c, 0, 50, 0
2, 54618, Note_on_c, 0, 55, 65
2, 54618, Note_on_c, 0, 59, 0
2, 54624, Control_c, 0, 64, 65
2, 54630, Note_on_c, 0, 49, 44
2, 54637, Note_on_c, 0, 64, 56
2, 54640, Control_c, 0, 64, 62
2, 54654, Control_c, 0, 64, 59
2, 54670, Control_c, 0, 64, 57
2, 54685, Control_c, 0, 64, 55
2, 54700, Control_c, 0, 64, 53
2, 54716, Control_c, 0, 64, 52
2, 54762, Control_c, 0, 64, 53
2, 54775, Control_c, 0, 64, 55
2, 54791, Control_c, 0, 64, 58
2, 54806, Control_c, 0, 64, 60
2, 54821, Control_c, 0, 64, 62
2, 54837, Control_c, 0, 64, 62
2, 54851, Control_c, 0, 64, 63
2, 54866, Control_c, 0, 64, 64
2, 54883, Control_c, 0, 64, 65
2, 54898, Control_c, 0, 64, 64
2, 54914, Control_c, 0, 64, 62
2, 54918, Note_on_c, 0, 47, 51
2, 54928, Control_c, 0, 64, 56
2, 54928, Note_on_c, 0, 64, 0
2, 54943, Control_c, 0, 64, 49
2, 54958, Note_on_c, 0, 62, 47
2, 54959, Control_c, 0, 64, 48
2, 54969, Note_on_c, 0, 49, 0
2, 54974, Control_c, 0, 64, 51
2, 54990, Control_c, 0, 64, 58
2, 55004, Control_c, 0, 64, 63
2, 55019, Control_c, 0, 64, 65
2, 55028, Note_on_c, 0, 47, 0
2, 55035, Control_c, 0, 64, 68
2, 55050, Control_c, 0, 64, 69
2, 55065, Control_c, 0, 64, 70
2, 55088, Control_c, 0, 64, 71
2, 55103, Control_c, 0, 64, 72
2, 55119, Control_c, 0, 64, 74
2, 55133, Control_c, 0, 64, 76
2, 55149, Control_c, 0, 64, 77
2, 55164, Control_c, 0, 64, 77
2, 55179, Control_c, 0, 64, 76
2, 55195, Control_c, 0, 64, 74
2, 55209, Control_c, 0, 64, 68
2, 55224, Control_c, 0, 64, 60
2, 55240, Control_c, 0, 64, 46
2, 55255, Control_c, 0, 64, 36
2, 55256, Note_on_c, 0, 46, 46
2, 55268, Note_on_c, 0, 61, 60
2, 55285, Control_c, 0, 64, 42
2, 55291, Note_on_c, 0, 55, 0
2, 55300, Control_c, 0, 64, 53
2, 55316, Control_c, 0, 64, 61
2, 55327, Note_on_c, 0, 62, 0
2, 55331, Control_c, 0, 64, 64
2, 55345, Control_c, 0, 64, 67
2, 55358, Note_on_c, 0, 61, 0
2, 55361, Control_c, 0, 64, 71
2, 55376, Control_c, 0, 64, 75
2, 55389, Note_on_c, 0, 67, 0
2, 55392, Control_c, 0, 64, 79
2, 55407, Control_c, 0, 64, 84
2, 55421, Control_c, 0, 64, 91
2, 55437, Control_c, 0, 64, 98
2, 55452, Control_c, 0, 64, 102
2, 55483, Control_c, 0, 64, 100
2, 55498, Control_c, 0, 64, 98
2, 55514, Control_c, 0, 64, 96
2, 55529, Control_c, 0, 64, 91
2, 55543, Control_c, 0, 64, 84
2, 55559, Control_c, 0, 64, 75
2, 55574, Control_c, 0, 64, 69
2, 55585, Note_on_c, 0, 49, 46
2, 55588, Note_on_c, 0, 78, 83
2, 55590, Control_c, 0, 64, 69
2, 55635, Control_c, 0, 64, 68
2, 55650, Control_c, 0, 64, 67
2, 55664, Control_c, 0, 64, 64
2, 55680, Control_c, 0, 64, 62
2, 55697, Control_c, 0, 64, 60
2, 55713, Control_c, 0, 64, 57
2, 55727, Control_c, 0, 64, 56
2, 55742, Control_c, 0, 64, 55
2, 55752, Note_on_c, 0, 78, 0
2, 55758, Control_c, 0, 64, 54
2, 55772, Control_c, 0, 64, 53
2, 55788, Control_c, 0, 64, 53
2, 55903, Note_on_c, 0, 78, 87
2, 55909, Note_on_c, 0, 54, 57
2, 55918, Note_on_c, 0, 49, 0
2, 55945, Note_on_c, 0, 46, 0
2, 56008, Control_c, 0, 64, 54
2, 56023, Control_c, 0, 64, 55
2, 56039, Control_c, 0, 64, 55
2, 56073, Note_on_c, 0, 78, 0
2, 56099, Control_c, 0, 64, 55
2, 56115, Control_c, 0, 64, 54
2, 56129, Control_c, 0, 64, 53
2, 56144, Control_c, 0, 64, 52
2, 56160, Control_c, 0, 64, 51
2, 56216, Note_on_c, 0, 46, 50
2, 56217, Note_on_c, 0, 78, 87
2, 56220, Control_c, 0, 64, 53
2, 56220, Note_on_c, 0, 52, 55
2, 56236, Control_c, 0, 64, 58
2, 56249, Note_on_c, 0, 54, 0
2, 56251, Control_c, 0, 64, 61
2, 56265, Control_c, 0, 64, 64
2, 56281, Control_c, 0, 64, 66
2, 56296, Control_c, 0, 64, 69
2, 56312, Control_c, 0, 64, 72
2, 56327, Control_c, 0, 64, 75
2, 56329, Note_on_c, 0, 78, 0
2, 56334, Note_on_c, 0, 46, 0
2, 56342, Control_c, 0, 64, 79
2, 56358, Control_c, 0, 64, 82
2, 56372, Control_c, 0, 64, 85
2, 56387, Control_c, 0, 64, 87
2, 56418, Control_c, 0, 64, 86
2, 56434, Control_c, 0, 64, 85
2, 56449, Control_c, 0, 64, 84
2, 56463, Control_c, 0, 64, 82
2, 56479, Control_c, 0, 64, 79
2, 56494, Control_c, 0, 64, 73
2, 56494, Note_on_c, 0, 52, 0
2, 56511, Control_c, 0, 64, 67
2, 56514, Note_on_c, 0, 71, 75
2, 56523, Note_on_c, 0, 45, 47
2, 56526, Control_c, 0, 64, 62
2, 56529, Note_on_c, 0, 51, 57
2, 56540, Control_c, 0, 64, 57
2, 56556, Control_c, 0, 64, 53
2, 56571, Control_c, 0, 64, 50
2, 56586, Control_c, 0, 64, 48
2, 56602, Control_c, 0, 64, 47
2, 56623, Control_c, 0, 64, 46
2, 56706, Note_on_c, 0, 71, 0
2, 56759, Control_c, 0, 64, 46
2, 56789, Control_c, 0, 64, 47
2, 56830, Note_on_c, 0, 51, 0
2, 56835, Control_c, 0, 64, 47
2, 56835, Note_on_c, 0, 71, 79
2, 56842, Note_on_c, 0, 53, 58
2, 56865, Control_c, 0, 64, 48
2, 56895, Control_c, 0, 64, 48
2, 56926, Control_c, 0, 64, 49
2, 56964, Note_on_c, 0, 53, 0
2, 56966, Note_on_c, 0, 54, 71
2, 56971, Control_c, 0, 64, 49
2, 56971, Note_on_c, 0, 71, 0
2, 57016, Control_c, 0, 64, 50
2, 57127, Note_on_c, 0, 71, 78
2, 57130, Note_on_c, 0, 53, 55
2, 57130, Note_on_c, 0, 74, 77
2, 57132, Note_on_c, 0, 54, 0
2, 57232, Note_on_c, 0, 45, 0
2, 57298, Note_on_c, 0, 71, 0
2, 57420, Control_c, 0, 64, 54
2, 57436, Control_c, 0, 64, 59
2, 57450, Note_on_c, 0, 44, 50
2, 57451, Control_c, 0, 64, 62
2, 57459, Note_on_c, 0, 71, 79
2, 57465, Control_c, 0, 64, 64
2, 57481, Control_c, 0, 64, 68
2, 57495, Note_on_c, 0, 53, 0
2, 57496, Control_c, 0, 64, 72
2, 57498, Note_on_c, 0, 44, 0
2, 57511, Control_c, 0, 64, 76
2, 57520, Note_on_c, 0, 71, 0
2, 57527, Control_c, 0, 64, 80
2, 57541, Control_c, 0, 64, 84
2, 57557, Control_c, 0, 64, 90
2, 57572, Control_c, 0, 64, 99
2, 57587, Control_c, 0, 64, 108
2, 57603, Control_c, 0, 64, 119
2, 57618, Control_c, 0, 64, 127
2, 57663, Control_c, 0, 64, 116
2, 57679, Control_c, 0, 64, 110
2, 57694, Control_c, 0, 64, 103
2, 57709, Control_c, 0, 64, 94
2, 57725, Control_c, 0, 64, 84
2, 57739, Control_c, 0, 64, 74
2, 57754, Control_c, 0, 64, 67
2, 57760, Note_on_c, 0, 64, 77
2, 57770, Control_c, 0, 64, 61
2, 57774, Note_on_c, 0, 49, 42
2, 57784, Control_c, 0, 64, 58
2, 57800, Control_c, 0, 64, 57
2, 57860, Control_c, 0, 64, 56
2, 57874, Control_c, 0, 64, 56
2, 57890, Control_c, 0, 64, 55
2, 57905, Control_c, 0, 64, 55
2, 57921, Control_c, 0, 64, 54
2, 57966, Control_c, 0, 64, 54
2, 57981, Control_c, 0, 64, 53
2, 58077, Note_on_c, 0, 59, 50
2, 58080, Note_on_c, 0, 68, 70
2, 58081, Note_on_c, 0, 74, 0
2, 58088, Control_c, 0, 64, 55
2, 58103, Control_c, 0, 64, 57
2, 58118, Control_c, 0, 64, 60
2, 58133, Control_c, 0, 64, 63
2, 58158, Control_c, 0, 64, 66
2, 58173, Control_c, 0, 64, 68
2, 58187, Control_c, 0, 64, 71
2, 58203, Control_c, 0, 64, 73
2, 58218, Control_c, 0, 64, 75
2, 58232, Control_c, 0, 64, 77
2, 58248, Control_c, 0, 64, 81
2, 58263, Control_c, 0, 64, 84
2, 58279, Control_c, 0, 64, 85
2, 58289, Note_on_c, 0, 64, 0
2, 58339, Control_c, 0, 64, 85
2, 58354, Control_c, 0, 64, 84
2, 58370, Control_c, 0, 64, 83
2, 58385, Control_c, 0, 64, 80
2, 58394, Note_on_c, 0, 59, 0
2, 58401, Control_c, 0, 64, 75
2, 58403, Note_on_c, 0, 67, 71
2, 58410, Note_on_c, 0, 58, 46
2, 58412, Note_on_c, 0, 73, 55
2, 58416, Control_c, 0, 64, 70
2, 58427, Note_on_c, 0, 68, 0
2, 58430, Control_c, 0, 64, 64
2, 58446, Control_c, 0, 64, 61
2, 58461, Control_c, 0, 64, 58
2, 58477, Control_c, 0, 64, 57
2, 58492, Control_c, 0, 64, 56
2, 58506, Control_c, 0, 64, 55
2, 58522, Control_c, 0, 64, 54
2, 58537, Control_c, 0, 64, 53
2, 58552, Control_c, 0, 64, 51
2, 58568, Control_c, 0, 64, 50
2, 58582, Control_c, 0, 64, 48
2, 58598, Control_c, 0, 64, 46
2, 58614, Control_c, 0, 64, 43
2, 58629, Control_c, 0, 64, 41
2, 58644, Control_c, 0, 64, 39
2, 58659, Control_c, 0, 64, 39
2, 58705, Control_c, 0, 64, 41
2, 58706, Note_on_c, 0, 73, 0
2, 58720, Control_c, 0, 64, 51
2, 58721, Note_on_c, 0, 61, 45
2, 58734, Note_on_c, 0, 71, 59
2, 58735, Control_c, 0, 64, 58
2, 58737, Note_on_c, 0, 58, 0
2, 58750, Control_c, 0, 64, 62
2, 58765, Control_c, 0, 64, 65
2, 58780, Control_c, 0, 64, 68
2, 58791, Note_on_c, 0, 61, 0
2, 58796, Control_c, 0, 64, 73
2, 58797, Note_on_c, 0, 49, 0
2, 58811, Control_c, 0, 64, 80
2, 58826, Control_c, 0, 64, 88
2, 58841, Control_c, 0, 64, 98
2, 58856, Control_c, 0, 64, 112
2, 58871, Control_c, 0, 64, 127
2, 58904, Note_on_c, 0, 71, 0
2, 58987, Control_c, 0, 64, 104
2, 59003, Control_c, 0, 64, 84
2, 59018, Control_c, 0, 64, 71
2, 59032, Control_c, 0, 64, 62
2, 59036, Note_on_c, 0, 42, 46
2, 59045, Note_on_c, 0, 70, 55
2, 59048, Control_c, 0, 64, 51
2, 59063, Control_c, 0, 64, 49
2, 59078, Control_c, 0, 64, 52
2, 59093, Control_c, 0, 64, 57
2, 59108, Control_c, 0, 64, 63
2, 59119, Note_on_c, 0, 42, 0
2, 59124, Control_c, 0, 64, 67
2, 59139, Control_c, 0, 64, 70
2, 59140, Note_on_c, 0, 67, 0
2, 59153, Control_c, 0, 64, 73
2, 59169, Control_c, 0, 64, 76
2, 59184, Control_c, 0, 64, 79
2, 59200, Control_c, 0, 64, 85
2, 59215, Control_c, 0, 64, 93
2, 59229, Control_c, 0, 64, 105
2, 59245, Control_c, 0, 64, 127
2, 59351, Note_on_c, 0, 70, 0
2, 59367, Control_c, 0, 64, 104
2, 59368, Note_on_c, 0, 54, 47
2, 59368, Note_on_c, 0, 61, 59
2, 59382, Control_c, 0, 64, 86
2, 59382, Note_on_c, 0, 64, 43
2, 59398, Control_c, 0, 64, 76
2, 59412, Control_c, 0, 64, 69
2, 59427, Control_c, 0, 64, 65
2, 59443, Control_c, 0, 64, 64
2, 59511, Note_on_c, 0, 64, 0
2, 59674, Note_on_c, 0, 61, 0
2, 59697, Note_on_c, 0, 56, 43
2, 59699, Note_on_c, 0, 62, 46
2, 59703, Note_on_c, 0, 71, 52
2, 59704, Note_on_c, 0, 66, 52
2, 59708, Control_c, 0, 64, 64
2, 59739, Control_c, 0, 64, 63
2, 59746, Note_on_c, 0, 54, 0
2, 59754, Control_c, 0, 64, 62
2, 59769, Control_c, 0, 64, 61
2, 59785, Control_c, 0, 64, 61
2, 59847, Control_c, 0, 64, 60
2, 59877, Control_c, 0, 64, 60
2, 59907, Control_c, 0, 64, 59
2, 59937, Control_c, 0, 64, 59
2, 59951, Note_on_c, 0, 56, 0
2, 59968, Control_c, 0, 64, 58
2, 59969, Note_on_c, 0, 62, 0
2, 59983, Control_c, 0, 64, 58
2, 60002, Note_on_c, 0, 66, 0
2, 60002, Note_on_c, 0, 71, 0
2, 60012, Note_on_c, 0, 58, 30
2, 60013, Control_c, 0, 64, 57
2, 60013, Note_on_c, 0, 73, 60
2, 60016, Note_on_c, 0, 61, 39
2, 60019, Note_on_c, 0, 64, 55
2, 60073, Control_c, 0, 64, 58
2, 60089, Control_c, 0, 64, 58
2, 60104, Control_c, 0, 64, 59
2, 60134, Control_c, 0, 64, 60
2, 60149, Control_c, 0, 64, 63
2, 60165, Control_c, 0, 64, 65
2, 60180, Control_c, 0, 64, 67
2, 60196, Control_c, 0, 64, 70
2, 60210, Control_c, 0, 64, 73
2, 60212, Note_on_c, 0, 64, 0
2, 60225, Control_c, 0, 64, 76
2, 60236, Note_on_c, 0, 73, 0
2, 60241, Control_c, 0, 64, 79
2, 60256, Control_c, 0, 64, 81
2, 60271, Control_c, 0, 64, 82
2, 60287, Note_on_c, 0, 61, 0
2, 60302, Control_c, 0, 64, 81
2, 60318, Control_c, 0, 64, 80
2, 60327, Note_on_c, 0, 58, 0
2, 60331, Note_on_c, 0, 59, 44
2, 60332, Control_c, 0, 64, 78
2, 60342, Note_on_c, 0, 62, 51
2, 60342, Note_on_c, 0, 74, 62
2, 60347, Control_c, 0, 64, 75
2, 60363, Control_c, 0, 64, 70
2, 60378, Control_c, 0, 64, 65
2, 60393, Control_c, 0, 64, 61
2, 60408, Control_c, 0, 64, 59
2, 60423, Control_c, 0, 64, 58
2, 60671, Note_on_c, 0, 66, 62
2, 60673, Note_on_c, 0, 62, 0
2, 60676, Note_on_c, 0, 57, 43
2, 60781, Control_c, 0, 64, 58
2, 60932, Note_on_c, 0, 57, 0
2, 60933, Control_c, 0, 64, 57
2, 60960, Note_on_c, 0, 56, 41
2, 60985, Note_on_c, 0, 66, 0
2, 60987, Note_on_c, 0, 71, 56
2, 61284, Note_on_c, 0, 71, 0
2, 61290, Control_c, 0, 64, 57
2, 61298, Note_on_c, 0, 69, 58
2, 61299, Note_on_c, 0, 56, 0
2, 61300, Note_on_c, 0, 54, 40
2, 61412, Control_c, 0, 64, 56
2, 61577, Note_on_c, 0, 69, 0
2, 61597, Note_on_c, 0, 68, 51
2, 61602, Note_on_c, 0, 53, 38
2, 61631, Note_on_c, 0, 59, 0
2, 61662, Note_on_c, 0, 54, 0
2, 61827, Note_on_c, 0, 74, 0
2, 61883, Control_c, 0, 64, 57
2, 61930, Note_on_c, 0, 56, 58
2, 62236, Note_on_c, 0, 61, 62
2, 62247, Note_on_c, 0, 56, 0
2, 62255, Note_on_c, 0, 73, 73
2, 62528, Note_on_c, 0, 68, 0
2, 62552, Note_on_c, 0, 61, 0
2, 62556, Note_on_c, 0, 59, 62
2, 62844, Note_on_c, 0, 59, 0
2, 62876, Note_on_c, 0, 57, 57
2, 62887, Control_c, 0, 64, 56
2, 62921, Note_on_c, 0, 53, 0
2, 63189, Note_on_c, 0, 54, 67
2, 63199, Note_on_c, 0, 61, 53
2, 63238, Control_c, 0, 64, 57
2, 63252, Control_c, 0, 64, 59
2, 63267, Control_c, 0, 64, 62
2, 63283, Control_c, 0, 64, 66
2, 63298, Control_c, 0, 64, 71
2, 63313, Control_c, 0, 64, 80
2, 63329, Control_c, 0, 64, 89
2, 63341, Note_on_c, 0, 54, 0
2, 63343, Control_c, 0, 64, 98
2, 63359, Control_c, 0, 64, 108
2, 63374, Control_c, 0, 64, 118
2, 63389, Control_c, 0, 64, 127
2, 63437, Control_c, 0, 64, 117
2, 63452, Control_c, 0, 64, 109
2, 63467, Control_c, 0, 64, 98
2, 63483, Control_c, 0, 64, 84
2, 63494, Note_on_c, 0, 54, 76
2, 63497, Control_c, 0, 64, 69
2, 63504, Note_on_c, 0, 66, 62
2, 63505, Note_on_c, 0, 73, 0
2, 63513, Control_c, 0, 64, 60
2, 63536, Control_c, 0, 64, 47
2, 63552, Control_c, 0, 64, 40
2, 63581, Control_c, 0, 64, 41
2, 63597, Control_c, 0, 64, 47
2, 63612, Control_c, 0, 64, 55
2, 63627, Control_c, 0, 64, 61
2, 63642, Control_c, 0, 64, 63
2, 63657, Control_c, 0, 64, 65
2, 63673, Control_c, 0, 64, 67
2, 63682, Note_on_c, 0, 54, 0
2, 63688, Control_c, 0, 64, 68
2, 63702, Control_c, 0, 64, 69
2, 63712, Note_on_c, 0, 61, 0
2, 63733, Control_c, 0, 64, 68
2, 63749, Control_c, 0, 64, 65
2, 63763, Control_c, 0, 64, 60
2, 63778, Control_c, 0, 64, 52
2, 63794, Control_c, 0, 64, 46
2, 63809, Control_c, 0, 64, 46
2, 63810, Note_on_c, 0, 54, 78
2, 63818, Note_on_c, 0, 64, 67
2, 63824, Control_c, 0, 64, 48
2, 63834, Note_on_c, 0, 66, 0
2, 63839, Control_c, 0, 64, 55
2, 63854, Control_c, 0, 64, 61
2, 63870, Control_c, 0, 64, 65
2, 63886, Control_c, 0, 64, 69
2, 63901, Control_c, 0, 64, 73
2, 63917, Control_c, 0, 64, 78
2, 63919, Note_on_c, 0, 57, 0
2, 63932, Control_c, 0, 64, 83
2, 63943, Note_on_c, 0, 54, 0
2, 63946, Control_c, 0, 64, 88
2, 63962, Control_c, 0, 64, 95
2, 63977, Control_c, 0, 64, 104
2, 63992, Control_c, 0, 64, 108
2, 64007, Control_c, 0, 64, 104
2, 64022, Control_c, 0, 64, 96
2, 64038, Control_c, 0, 64, 86
2, 64053, Control_c, 0, 64, 77
2, 64067, Control_c, 0, 64, 68
2, 64083, Control_c, 0, 64, 63
2, 64098, Control_c, 0, 64, 60
2, 64114, Control_c, 0, 64, 59
2, 64115, Note_on_c, 0, 64, 0
2, 64117, Note_on_c, 0, 47, 75
2, 64129, Control_c, 0, 64, 58
2, 64138, Note_on_c, 0, 62, 65
2, 64144, Control_c, 0, 64, 56
2, 64160, Control_c, 0, 64, 54
2, 64175, Control_c, 0, 64, 51
2, 64190, Control_c, 0, 64, 47
2, 64205, Control_c, 0, 64, 42
2, 64220, Control_c, 0, 64, 39
2, 64236, Control_c, 0, 64, 38
2, 64265, Control_c, 0, 64, 38
2, 64441, Note_on_c, 0, 54, 61
2, 64457, Note_on_c, 0, 71, 63
2, 64501, Control_c, 0, 64, 38
2, 64517, Control_c, 0, 64, 40
2, 64532, Control_c, 0, 64, 44
2, 64547, Control_c, 0, 64, 50
2, 64562, Control_c, 0, 64, 55
2, 64577, Control_c, 0, 64, 59
2, 64580, Note_on_c, 0, 69, 76
2, 64593, Control_c, 0, 64, 61
2, 64605, Note_on_c, 0, 71, 0
2, 64607, Control_c, 0, 64, 63
2, 64622, Control_c, 0, 64, 63
2, 64625, Note_on_c, 0, 62, 0
2, 64638, Control_c, 0, 64, 64
2, 64653, Control_c, 0, 64, 64
2, 64669, Control_c, 0, 64, 65
2, 64703, Control_c, 0, 64, 64
2, 64719, Control_c, 0, 64, 63
2, 64735, Control_c, 0, 64, 61
2, 64742, Note_on_c, 0, 59, 57
2, 64750, Control_c, 0, 64, 58
2, 64755, Note_on_c, 0, 50, 55
2, 64755, Note_on_c, 0, 68, 72
2, 64757, Note_on_c, 0, 69, 0
2, 64765, Control_c, 0, 64, 53
2, 64769, Note_on_c, 0, 54, 0
2, 64770, Note_on_c, 0, 47, 0
2, 64781, Control_c, 0, 64, 48
2, 64795, Control_c, 0, 64, 44
2, 64797, Note_on_c, 0, 49, 5
2, 64810, Control_c, 0, 64, 41
2, 64826, Control_c, 0, 64, 39
2, 64840, Control_c, 0, 64, 39
2, 64849, Note_on_c, 0, 49, 0
2, 64856, Control_c, 0, 64, 38
2, 64885, Note_on_c, 0, 59, 0
2, 64886, Control_c, 0, 64, 38
2, 65053, Note_on_c, 0, 57, 56
2, 65063, Note_on_c, 0, 66, 64
2, 65063, Note_on_c, 0, 68, 0
2, 65331, Note_on_c, 0, 66, 0
2, 65356, Note_on_c, 0, 56, 51
2, 65362, Note_on_c, 0, 50, 0
2, 65367, Note_on_c, 0, 65, 58
2, 65371, Note_on_c, 0, 59, 52
2, 65396, Control_c, 0, 64, 39
2, 65408, Note_on_c, 0, 57, 0
2, 65410, Control_c, 0, 64, 40
2, 65426, Control_c, 0, 64, 40
2, 65456, Control_c, 0, 64, 43
2, 65471, Control_c, 0, 64, 46
2, 65486, Control_c, 0, 64, 49
2, 65502, Control_c, 0, 64, 52
2, 65503, Note_on_c, 0, 56, 0
2, 65517, Control_c, 0, 64, 54
2, 65531, Control_c, 0, 64, 59
2, 65546, Control_c, 0, 64, 63
2, 65561, Control_c, 0, 64, 66
2, 65577, Control_c, 0, 64, 70
2, 65592, Control_c, 0, 64, 76
2, 65607, Control_c, 0, 64, 85
2, 65623, Control_c, 0, 64, 96
2, 65638, Control_c, 0, 64, 108
2, 65653, Control_c, 0, 64, 114
2, 65668, Control_c, 0, 64, 108
2, 65683, Control_c, 0, 64, 98
2, 65692, Note_on_c, 0, 44, 60
2, 65699, Control_c, 0, 64, 85
2, 65714, Control_c, 0, 64, 74
2, 65729, Control_c, 0, 64, 66
2, 65745, Control_c, 0, 64, 61
2, 65759, Control_c, 0, 64, 57
2, 65775, Control_c, 0, 64, 55
2, 65790, Control_c, 0, 64, 55
2, 65858, Control_c, 0, 64, 54
2, 65873, Control_c, 0, 64, 54
2, 65904, Control_c, 0, 64, 53
2, 65980, Control_c, 0, 64, 53
2, 65989, Note_on_c, 0, 49, 53
2, 66020, Note_on_c, 0, 44, 0
2, 66025, Control_c, 0, 64, 52
2, 66040, Control_c, 0, 64, 52
2, 66071, Control_c, 0, 64, 51
2, 66278, Note_on_c, 0, 49, 0
2, 66302, Note_on_c, 0, 47, 46
2, 66482, Note_on_c, 0, 65, 0
2, 66578, Note_on_c, 0, 59, 0
2, 66620, Note_on_c, 0, 45, 48
2, 66624, Note_on_c, 0, 47, 0
2, 66718, Control_c, 0, 67, 11
2, 66732, Control_c, 0, 67, 50
2, 66748, Control_c, 0, 67, 105
2, 66763, Control_c, 0, 67, 127
2, 66926, Note_on_c, 0, 54, 46
2, 66937, Note_on_c, 0, 61, 50
2, 66939, Note_on_c, 0, 57, 43
2, 67060, Note_on_c, 0, 57, 0
2, 67067, Note_on_c, 0, 61, 0
2, 67070, Note_on_c, 0, 54, 0
2, 67075, Note_on_c, 0, 45, 0
2, 67075, Note_on_c, 0, 56, 43
2, 67086, Note_on_c, 0, 59, 50
2, 67209, Note_on_c, 0, 56, 0
2, 67227, Note_on_c, 0, 59, 0
2, 67250, Note_on_c, 0, 57, 42
2, 67258, Note_on_c, 0, 66, 64
2, 67272, Note_on_c, 0, 61, 46
2, 67561, Note_on_c, 0, 47, 38
2, 67570, Note_on_c, 0, 61, 0
2, 67588, Note_on_c, 0, 62, 41
2, 67604, Note_on_c, 0, 57, 0
2, 67874, Note_on_c, 0, 47, 0
2, 67881, Note_on_c, 0, 49, 30
2, 67882, Note_on_c, 0, 62, 0
2, 67895, Note_on_c, 0, 56, 40
2, 67907, Note_on_c, 0, 61, 44
2, 68221, Note_on_c, 0, 54, 31
2, 68248, Note_on_c, 0, 56, 0
2, 68542, Note_on_c, 0, 56, 41
2, 68545, Note_on_c, 0, 66, 0
2, 68551, Note_on_c, 0, 65, 51
2, 68557, Note_on_c, 0, 54, 0
2, 68724, Control_c, 0, 64, 53
2, 68740, Control_c, 0, 64, 57
2, 68754, Control_c, 0, 64, 61
2, 68769, Control_c, 0, 64, 64
2, 68785, Control_c, 0, 64, 65
2, 68801, Control_c, 0, 64, 67
2, 68817, Control_c, 0, 64, 70
2, 68830, Note_on_c, 0, 56, 0
2, 68832, Control_c, 0, 64, 73
2, 68847, Control_c, 0, 64, 77
2, 68855, Note_on_c, 0, 59, 39
2, 68860, Note_on_c, 0, 61, 0
2, 68862, Control_c, 0, 64, 82
2, 68869, Note_on_c, 0, 49, 0
2, 68871, Note_on_c, 0, 65, 0
2, 68877, Control_c, 0, 64, 88
2, 68892, Control_c, 0, 64, 94
2, 68915, Control_c, 0, 64, 101
2, 68930, Control_c, 0, 64, 113
2, 68946, Control_c, 0, 64, 127
2, 68990, Note_on_c, 0, 59, 0
2, 69173, Control_c, 0, 64, 111
2, 69188, Control_c, 0, 64, 93
2, 69203, Control_c, 0, 64, 80
2, 69209, Note_on_c, 0, 42, 39
2, 69219, Control_c, 0, 64, 70
2, 69227, Note_on_c, 0, 66, 48
2, 69231, Note_on_c, 0, 57, 43
2, 69234, Control_c, 0, 64, 59
2, 69238, Note_on_c, 0, 54, 24
2, 69249, Control_c, 0, 64, 39
2, 69264, Control_c, 0, 64, 30
2, 69279, Control_c, 0, 64, 34
2, 69295, Control_c, 0, 64, 48
2, 69310, Control_c, 0, 64, 59
2, 69325, Control_c, 0, 64, 66
2, 69340, Control_c, 0, 64, 72
2, 69340, Control_c, 0, 67, 97
2, 69355, Control_c, 0, 64, 78
2, 69355, Control_c, 0, 67, 61
2, 69365, Note_on_c, 0, 42, 0
2, 69370, Control_c, 0, 64, 83
2, 69370, Control_c, 0, 67, 18
2, 69386, Control_c, 0, 64, 88
2, 69386, Control_c, 0, 67, 0
2, 69395, Note_on_c, 0, 57, 0
2, 69401, Control_c, 0, 64, 91
2, 69417, Control_c, 0, 64, 93
2, 69424, Note_on_c, 0, 54, 0
2, 69432, Control_c, 0, 64, 95
2, 69447, Control_c, 0, 64, 95
2, 69477, Control_c, 0, 64, 94
2, 69492, Control_c, 0, 64, 93
2, 69508, Control_c, 0, 64, 92
2, 69522, Control_c, 0, 64, 91
2, 69538, Control_c, 0, 64, 88
2, 69553, Control_c, 0, 64, 83
2, 69564, Note_on_c, 0, 57, 56
2, 69566, Control_c, 0, 64, 78
2, 69582, Control_c, 0, 64, 75
2, 69596, Control_c, 0, 64, 74
2, 69611, Control_c, 0, 64, 73
2, 69628, Control_c, 0, 64, 72
2, 69643, Control_c, 0, 64, 71
2, 69658, Control_c, 0, 64, 70
2, 69681, Control_c, 0, 64, 69
2, 69711, Control_c, 0, 64, 68
2, 69735, Note_on_c, 0, 57, 0
2, 69742, Control_c, 0, 64, 68
2, 69757, Control_c, 0, 64, 67
2, 69772, Control_c, 0, 64, 66
2, 69803, Control_c, 0, 64, 66
2, 69817, Control_c, 0, 64, 65
2, 69833, Control_c, 0, 64, 63
2, 69848, Control_c, 0, 64, 62
2, 69851, Note_on_c, 0, 66, 0
2, 69864, Control_c, 0, 64, 61
2, 69872, Note_on_c, 0, 57, 73
2, 69894, Control_c, 0, 64, 60
2, 69909, Control_c, 0, 64, 59
2, 69924, Control_c, 0, 64, 58
2, 69939, Control_c, 0, 64, 57
2, 69954, Control_c, 0, 64, 56
2, 69969, Control_c, 0, 64, 56
2, 70030, Control_c, 0, 64, 55
2, 70038, Note_on_c, 0, 57, 0
2, 70165, Note_on_c, 0, 81, 71
2, 70167, Note_on_c, 0, 57, 68
2, 70274, Control_c, 0, 64, 56
2, 70289, Control_c, 0, 64, 56
2, 70347, Note_on_c, 0, 57, 0
2, 70374, Note_on_c, 0, 81, 0
2, 70491, Note_on_c, 0, 50, 65
2, 70496, Note_on_c, 0, 81, 76
2, 70672, Note_on_c, 0, 81, 0
2, 70804, Note_on_c, 0, 81, 82
2, 70815, Note_on_c, 0, 69, 64
2, 70854, Note_on_c, 0, 69, 0
2, 71060, Note_on_c, 0, 81, 0
2, 71098, Note_on_c, 0, 74, 77
2, 71106, Note_on_c, 0, 54, 57
2, 71110, Note_on_c, 0, 50, 0
2, 71113, Note_on_c, 0, 69, 69
2, 71118, Control_c, 0, 64, 55
2, 71133, Control_c, 0, 64, 55
2, 71149, Control_c, 0, 64, 54
2, 71163, Control_c, 0, 64, 54
2, 71178, Control_c, 0, 64, 53
2, 71178, Note_on_c, 0, 69, 0
2, 71194, Control_c, 0, 64, 53
2, 71216, Control_c, 0, 64, 52
2, 71232, Control_c, 0, 64, 52
2, 71279, Control_c, 0, 64, 51
2, 71294, Control_c, 0, 64, 51
2, 71310, Control_c, 0, 64, 50
2, 71370, Control_c, 0, 64, 51
2, 71386, Control_c, 0, 64, 55
2, 71400, Control_c, 0, 64, 59
2, 71405, Note_on_c, 0, 74, 0
2, 71415, Control_c, 0, 64, 63
2, 71419, Note_on_c, 0, 69, 74
2, 71431, Control_c, 0, 64, 66
2, 71445, Control_c, 0, 64, 70
2, 71456, Note_on_c, 0, 69, 0
2, 71460, Control_c, 0, 64, 75
2, 71476, Control_c, 0, 64, 82
2, 71491, Control_c, 0, 64, 94
2, 71507, Control_c, 0, 64, 127
2, 71753, Note_on_c, 0, 78, 78
2, 71758, Note_on_c, 0, 62, 59
2, 71765, Control_c, 0, 64, 111
2, 71780, Control_c, 0, 64, 88
2, 71795, Control_c, 0, 64, 75
2, 71810, Control_c, 0, 64, 64
2, 71826, Control_c, 0, 64, 57
2, 71841, Control_c, 0, 64, 53
2, 71855, Control_c, 0, 64, 52
2, 71871, Control_c, 0, 64, 51
2, 71902, Control_c, 0, 64, 51
2, 71917, Control_c, 0, 64, 50
2, 71931, Control_c, 0, 64, 49
2, 71947, Control_c, 0, 64, 48
2, 71962, Control_c, 0, 64, 47
2, 71985, Control_c, 0, 64, 46
2, 72026, Note_on_c, 0, 54, 0
2, 72070, Note_on_c, 0, 50, 58
2, 72072, Note_on_c, 0, 47, 52
2, 72368, Note_on_c, 0, 55, 70
2, 72374, Note_on_c, 0, 52, 62
2, 72391, Note_on_c, 0, 47, 0
2, 72400, Note_on_c, 0, 50, 0
2, 72449, Note_on_c, 0, 62, 0
2, 72491, Note_on_c, 0, 78, 0
2, 72622, Note_on_c, 0, 55, 0
2, 72655, Note_on_c, 0, 52, 0
2, 72675, Note_on_c, 0, 54, 55
2, 72676, Note_on_c, 0, 71, 73
2, 72677, Note_on_c, 0, 50, 54
2, 72944, Note_on_c, 0, 50, 0
2, 72967, Note_on_c, 0, 54, 0
2, 72968, Note_on_c, 0, 49, 50
2, 72989, Note_on_c, 0, 52, 50
2, 72989, Note_on_c, 0, 76, 78
2, 73003, Note_on_c, 0, 71, 0
2, 73222, Note_on_c, 0, 49, 0
2, 73267, Note_on_c, 0, 76, 0
2, 73278, Note_on_c, 0, 47, 48
2, 73290, Note_on_c, 0, 74, 61
2, 73294, Note_on_c, 0, 52, 0
2, 73297, Note_on_c, 0, 64, 69
2, 73361, Control_c, 0, 64, 50
2, 73376, Control_c, 0, 64, 55
2, 73389, Note_on_c, 0, 74, 0
2, 73392, Control_c, 0, 64, 59
2, 73407, Control_c, 0, 64, 63
2, 73422, Control_c, 0, 64, 66
2, 73437, Control_c, 0, 64, 69
2, 73452, Control_c, 0, 64, 73
2, 73467, Control_c, 0, 64, 76
2, 73482, Control_c, 0, 64, 80
2, 73497, Control_c, 0, 64, 82
2, 73520, Control_c, 0, 64, 85
2, 73535, Control_c, 0, 64, 85
2, 73555, Note_on_c, 0, 64, 0
2, 73566, Control_c, 0, 64, 84
2, 73582, Control_c, 0, 64, 83
2, 73597, Control_c, 0, 64, 82
2, 73602, Note_on_c, 0, 47, 0
2, 73612, Control_c, 0, 64, 80
2, 73614, Note_on_c, 0, 45, 51
2, 73616, Note_on_c, 0, 73, 75
2, 73627, Control_c, 0, 64, 77
2, 73636, Note_on_c, 0, 69, 56
2, 73642, Control_c, 0, 64, 72
2, 73657, Control_c, 0, 64, 66
2, 73672, Control_c, 0, 64, 62
2, 73687, Control_c, 0, 64, 58
2, 73703, Control_c, 0, 64, 58
2, 73779, Control_c, 0, 64, 57
2, 73826, Control_c, 0, 64, 57
2, 73908, Note_on_c, 0, 69, 0
2, 73918, Note_on_c, 0, 52, 45
2, 73943, Note_on_c, 0, 67, 51
2, 74162, Note_on_c, 0, 52, 0
2, 74174, Control_c, 0, 64, 58
2, 74190, Control_c, 0, 64, 61
2, 74196, Note_on_c, 0, 45, 0
2, 74205, Control_c, 0, 64, 63
2, 74215, Note_on_c, 0, 57, 49
2, 74215, Note_on_c, 0, 67, 0
2, 74220, Control_c, 0, 64, 64
2, 74224, Note_on_c, 0, 66, 60
2, 74236, Control_c, 0, 64, 65
2, 74251, Control_c, 0, 64, 67
2, 74267, Control_c, 0, 64, 70
2, 74287, Note_on_c, 0, 57, 0
2, 74289, Control_c, 0, 64, 73
2, 74305, Control_c, 0, 64, 76
2, 74319, Control_c, 0, 64, 78
2, 74334, Control_c, 0, 64, 80
2, 74350, Control_c, 0, 64, 82
2, 74353, Note_on_c, 0, 73, 0
2, 74365, Control_c, 0, 64, 82
2, 74380, Control_c, 0, 64, 82
2, 74441, Control_c, 0, 64, 81
2, 74456, Control_c, 0, 64, 81
2, 74471, Control_c, 0, 64, 80
2, 74486, Control_c, 0, 64, 79
2, 74502, Control_c, 0, 64, 78
2, 74517, Control_c, 0, 64, 76
2, 74532, Control_c, 0, 64, 73
2, 74532, Note_on_c, 0, 69, 76
2, 74548, Control_c, 0, 64, 72
2, 74548, Note_on_c, 0, 66, 0
2, 74578, Control_c, 0, 64, 72
2, 74624, Control_c, 0, 64, 72
2, 74716, Control_c, 0, 64, 72
2, 74746, Control_c, 0, 64, 71
2, 74761, Control_c, 0, 64, 70
2, 74776, Control_c, 0, 64, 69
2, 74792, Control_c, 0, 64, 69
2, 74807, Control_c, 0, 64, 68
2, 74810, Note_on_c, 0, 59, 72
2, 74822, Control_c, 0, 64, 67
2, 74823, Note_on_c, 0, 74, 74
2, 74837, Control_c, 0, 64, 65
2, 74852, Control_c, 0, 64, 63
2, 74868, Control_c, 0, 64, 61
2, 74874, Note_on_c, 0, 69, 0
2, 74883, Control_c, 0, 64, 60
2, 74897, Control_c, 0, 64, 59
2, 74913, Control_c, 0, 64, 58
2, 74928, Control_c, 0, 64, 57
2, 74973, Control_c, 0, 64, 58
2, 74989, Control_c, 0, 64, 59
2, 75018, Control_c, 0, 64, 59
2, 75034, Control_c, 0, 64, 60
2, 75057, Control_c, 0, 64, 60
2, 75073, Control_c, 0, 64, 61
2, 75088, Control_c, 0, 64, 62
2, 75099, Note_on_c, 0, 59, 0
2, 75103, Control_c, 0, 64, 62
2, 75118, Control_c, 0, 64, 64
2, 75123, Note_on_c, 0, 72, 64
2, 75133, Control_c, 0, 64, 65
2, 75147, Note_on_c, 0, 62, 50
2, 75149, Control_c, 0, 64, 66
2, 75156, Note_on_c, 0, 74, 0
2, 75163, Control_c, 0, 64, 67
2, 75178, Control_c, 0, 64, 69
2, 75191, Note_on_c, 0, 72, 0
2, 75194, Control_c, 0, 64, 72
2, 75209, Control_c, 0, 64, 75
2, 75225, Control_c, 0, 64, 78
2, 75239, Control_c, 0, 64, 81
2, 75254, Control_c, 0, 64, 83
2, 75270, Control_c, 0, 64, 84
2, 75284, Control_c, 0, 64, 85
2, 75392, Control_c, 0, 64, 84
2, 75438, Control_c, 0, 64, 84
2, 75441, Note_on_c, 0, 62, 0
2, 75453, Note_on_c, 0, 71, 71
2, 75467, Note_on_c, 0, 67, 57
2, 75483, Control_c, 0, 64, 83
2, 75498, Control_c, 0, 64, 83
2, 75514, Control_c, 0, 64, 82
2, 75651, Control_c, 0, 64, 82
2, 75666, Control_c, 0, 64, 81
2, 75681, Control_c, 0, 64, 81
2, 75696, Control_c, 0, 64, 80
2, 75712, Control_c, 0, 64, 78
2, 75727, Control_c, 0, 64, 72
2, 75727, Note_on_c, 0, 67, 0
2, 75742, Control_c, 0, 64, 66
2, 75753, Note_on_c, 0, 66, 65
2, 75757, Control_c, 0, 64, 61
2, 75764, Note_on_c, 0, 47, 49
2, 75772, Control_c, 0, 64, 60
2, 75777, Note_on_c, 0, 57, 35
2, 75787, Control_c, 0, 64, 61
2, 75802, Control_c, 0, 64, 63
2, 75826, Control_c, 0, 64, 66
2, 75841, Control_c, 0, 64, 69
2, 75851, Note_on_c, 0, 71, 0
2, 75856, Control_c, 0, 64, 72
2, 75871, Control_c, 0, 64, 75
2, 75886, Control_c, 0, 64, 78
2, 75902, Control_c, 0, 64, 82
2, 75905, Note_on_c, 0, 57, 0
2, 75917, Control_c, 0, 64, 86
2, 75931, Control_c, 0, 64, 91
2, 75947, Control_c, 0, 64, 94
2, 75962, Control_c, 0, 64, 95
2, 76033, Note_on_c, 0, 66, 0
2, 76038, Control_c, 0, 64, 94
2, 76053, Control_c, 0, 64, 93
2, 76083, Control_c, 0, 64, 92
2, 76098, Control_c, 0, 64, 91
2, 76102, Note_on_c, 0, 64, 71
2, 76108, Note_on_c, 0, 55, 53
2, 76109, Note_on_c, 0, 47, 0
2, 76114, Control_c, 0, 64, 86
2, 76115, Note_on_c, 0, 52, 53
2, 76128, Control_c, 0, 64, 79
2, 76144, Control_c, 0, 64, 74
2, 76159, Control_c, 0, 64, 70
2, 76175, Control_c, 0, 64, 68
2, 76191, Control_c, 0, 64, 65
2, 76206, Control_c, 0, 64, 63
2, 76222, Control_c, 0, 64, 61
2, 76236, Control_c, 0, 64, 60
2, 76251, Control_c, 0, 64, 59
2, 76326, Control_c, 0, 64, 58
2, 76342, Control_c, 0, 64, 58
2, 76386, Note_on_c, 0, 52, 0
2, 76410, Note_on_c, 0, 71, 68
2, 76412, Note_on_c, 0, 50, 53
2, 76422, Note_on_c, 0, 72, 60
2, 76452, Note_on_c, 0, 72, 0
2, 76607, Control_c, 0, 64, 57
2, 76652, Control_c, 0, 64, 57
2, 76668, Control_c, 0, 64, 56
2, 76683, Control_c, 0, 64, 56
2, 76698, Control_c, 0, 64, 55
2, 76713, Control_c, 0, 64, 55
2, 76731, Note_on_c, 0, 48, 57
2, 76733, Note_on_c, 0, 76, 82
2, 76746, Note_on_c, 0, 50, 0
2, 76760, Note_on_c, 0, 77, 44
2, 76761, Note_on_c, 0, 77, 0
2, 76765, Note_on_c, 0, 71, 0
2, 76819, Control_c, 0, 64, 55
2, 76835, Control_c, 0, 64, 58
2, 76850, Control_c, 0, 64, 61
2, 76850, Note_on_c, 0, 48, 0
2, 76865, Control_c, 0, 64, 64
2, 76880, Control_c, 0, 64, 66
2, 76895, Control_c, 0, 64, 68
2, 76911, Control_c, 0, 64, 70
2, 76926, Control_c, 0, 64, 72
2, 76942, Control_c, 0, 64, 74
2, 76957, Control_c, 0, 64, 74
2, 76971, Control_c, 0, 64, 75
2, 77003, Control_c, 0, 64, 73
2, 77015, Note_on_c, 0, 76, 0
2, 77018, Control_c, 0, 64, 70
2, 77033, Control_c, 0, 64, 66
2, 77038, Note_on_c, 0, 55, 0
2, 77039, Note_on_c, 0, 47, 50
2, 77041, Note_on_c, 0, 74, 81
2, 77047, Note_on_c, 0, 52, 56
2, 77048, Control_c, 0, 64, 61
2, 77064, Control_c, 0, 64, 57
2, 77094, Control_c, 0, 64, 58
2, 77110, Control_c, 0, 64, 59
2, 77125, Control_c, 0, 64, 60
2, 77260, Note_on_c, 0, 64, 0
2, 77331, Note_on_c, 0, 47, 0
2, 77345, Note_on_c, 0, 45, 49
2, 77345, Note_on_c, 0, 74, 0
2, 77348, Note_on_c, 0, 72, 82
2, 77366, Note_on_c, 0, 52, 0
2, 77366, Note_on_c, 0, 57, 53
2, 77481, Control_c, 0, 64, 60
2, 77632, Note_on_c, 0, 57, 0
2, 77668, Note_on_c, 0, 55, 47
2, 77672, Note_on_c, 0, 64, 60
2, 77944, Note_on_c, 0, 55, 0
2, 77958, Note_on_c, 0, 54, 49
2, 77969, Note_on_c, 0, 64, 0
2, 77969, Note_on_c, 0, 69, 60
2, 78259, Note_on_c, 0, 69, 0
2, 78269, Note_on_c, 0, 54, 0
2, 78275, Note_on_c, 0, 67, 59
2, 78296, Note_on_c, 0, 52, 42
2, 78335, Note_on_c, 0, 45, 0
2, 78527, Note_on_c, 0, 52, 0
2, 78578, Note_on_c, 0, 50, 44
2, 78587, Note_on_c, 0, 66, 55
2, 78592, Note_on_c, 0, 47, 30
2, 78593, Note_on_c, 0, 67, 0
2, 78669, Note_on_c, 0, 72, 0
2, 78872, Note_on_c, 0, 66, 0
2, 78898, Note_on_c, 0, 54, 43
2, 78900, Note_on_c, 0, 62, 53
2, 79192, Note_on_c, 0, 50, 0
2, 79201, Note_on_c, 0, 47, 0
2, 79201, Note_on_c, 0, 54, 0
2, 79206, Note_on_c, 0, 71, 66
2, 79210, Note_on_c, 0, 62, 0
2, 79213, Note_on_c, 0, 59, 44
2, 79216, Note_on_c, 0, 67, 56
2, 79424, Note_on_c, 0, 67, 0
2, 79459, Control_c, 0, 64, 60
2, 79470, Note_on_c, 0, 59, 0
2, 79504, Note_on_c, 0, 57, 46
2, 79506, Note_on_c, 0, 66, 53
2, 79512, Note_on_c, 0, 50, 35
2, 79791, Note_on_c, 0, 57, 0
2, 79834, Note_on_c, 0, 64, 45
2, 79837, Note_on_c, 0, 66, 0
2, 79842, Note_on_c, 0, 55, 31
2, 80107, Note_on_c, 0, 64, 0
2, 80122, Note_on_c, 0, 55, 0
2, 80130, Note_on_c, 0, 54, 34
2, 80143, Note_on_c, 0, 62, 41
2, 80227, Note_on_c, 0, 50, 0
2, 80384, Note_on_c, 0, 54, 0
2, 80419, Note_on_c, 0, 71, 0
2, 80432, Note_on_c, 0, 52, 41
2, 80441, Note_on_c, 0, 62, 0
2, 80445, Note_on_c, 0, 55, 34
2, 80454, Note_on_c, 0, 60, 47
2, 80682, Note_on_c, 0, 52, 0
2, 80731, Note_on_c, 0, 69, 65
2, 80734, Note_on_c, 0, 57, 37
2, 80735, Note_on_c, 0, 54, 41
2, 80740, Note_on_c, 0, 55, 0
2, 80766, Control_c, 0, 64, 61
2, 80797, Control_c, 0, 64, 61
2, 80828, Control_c, 0, 64, 62
2, 80904, Control_c, 0, 64, 61
2, 80964, Control_c, 0, 64, 61
2, 80968, Note_on_c, 0, 57, 0
2, 81042, Note_on_c, 0, 55, 42
2, 81047, Note_on_c, 0, 60, 0
2, 81055, Control_c, 0, 64, 60
2, 81056, Note_on_c, 0, 54, 0
2, 81072, Note_on_c, 0, 59, 49
2, 81101, Control_c, 0, 64, 61
2, 81117, Control_c, 0, 64, 61
2, 81132, Control_c, 0, 64, 62
2, 81147, Control_c, 0, 64, 63
2, 81162, Control_c, 0, 64, 65
2, 81177, Control_c, 0, 64, 67
2, 81200, Control_c, 0, 64, 68
2, 81204, Note_on_c, 0, 69, 0
2, 81215, Control_c, 0, 64, 70
2, 81231, Control_c, 0, 64, 71
2, 81246, Control_c, 0, 64, 72
2, 81277, Control_c, 0, 64, 72
2, 81292, Control_c, 0, 64, 72
2, 81307, Control_c, 0, 64, 71
2, 81322, Control_c, 0, 64, 70
2, 81337, Control_c, 0, 64, 69
2, 81352, Control_c, 0, 64, 67
2, 81367, Control_c, 0, 64, 63
2, 81383, Control_c, 0, 64, 60
2, 81391, Note_on_c, 0, 52, 34
2, 81398, Control_c, 0, 64, 59
2, 81400, Note_on_c, 0, 67, 55
2, 81405, Note_on_c, 0, 59, 0
2, 81413, Note_on_c, 0, 64, 41
2, 81428, Control_c, 0, 64, 61
2, 81443, Control_c, 0, 64, 64
2, 81458, Control_c, 0, 64, 66
2, 81471, Note_on_c, 0, 52, 0
2, 81474, Control_c, 0, 64, 69
2, 81476, Note_on_c, 0, 55, 0
2, 81489, Control_c, 0, 64, 70
2, 81504, Control_c, 0, 64, 72
2, 81519, Control_c, 0, 64, 74
2, 81534, Control_c, 0, 64, 76
2, 81549, Control_c, 0, 64, 78
2, 81564, Control_c, 0, 64, 79
2, 81595, Control_c, 0, 64, 79
2, 81641, Control_c, 0, 64, 79
2, 81656, Control_c, 0, 64, 78
2, 81672, Control_c, 0, 64, 75
2, 81687, Control_c, 0, 64, 71
2, 81701, Control_c, 0, 64, 66
2, 81717, Control_c, 0, 64, 63
2, 81717, Note_on_c, 0, 57, 42
2, 81718, Note_on_c, 0, 48, 40
2, 81732, Control_c, 0, 64, 60
2, 81748, Control_c, 0, 64, 59
2, 81763, Control_c, 0, 64, 60
2, 81778, Control_c, 0, 64, 61
2, 81794, Control_c, 0, 64, 62
2, 81809, Control_c, 0, 64, 64
2, 81824, Control_c, 0, 64, 66
2, 81839, Control_c, 0, 64, 68
2, 81854, Control_c, 0, 64, 70
2, 81867, Note_on_c, 0, 67, 0
2, 81870, Control_c, 0, 64, 72
2, 81884, Control_c, 0, 64, 74
2, 81899, Control_c, 0, 64, 76
2, 81916, Control_c, 0, 64, 77
2, 81974, Note_on_c, 0, 48, 0
2, 81999, Control_c, 0, 64, 77
2, 82014, Control_c, 0, 64, 76
2, 82015, Note_on_c, 0, 45, 42
2, 82023, Note_on_c, 0, 64, 0
2, 82030, Control_c, 0, 64, 73
2, 82041, Note_on_c, 0, 66, 52
2, 82045, Control_c, 0, 64, 71
2, 82075, Control_c, 0, 64, 72
2, 82090, Control_c, 0, 64, 73
2, 82093, Note_on_c, 0, 67, 50
2, 82106, Control_c, 0, 64, 74
2, 82118, Note_on_c, 0, 67, 0
2, 82121, Control_c, 0, 64, 75
2, 82136, Control_c, 0, 64, 76
2, 82166, Control_c, 0, 64, 75
2, 82181, Control_c, 0, 64, 75
2, 82186, Note_on_c, 0, 66, 0
2, 82196, Note_on_c, 0, 45, 0
2, 82197, Control_c, 0, 64, 74
2, 82207, Note_on_c, 0, 64, 59
2, 82224, Note_on_c, 0, 57, 0
2, 82228, Control_c, 0, 64, 73
2, 82243, Control_c, 0, 64, 72
2, 82258, Control_c, 0, 64, 71
2, 82273, Control_c, 0, 64, 71
2, 82288, Control_c, 0, 64, 70
2, 82304, Control_c, 0, 64, 69
2, 82319, Control_c, 0, 64, 68
2, 82334, Control_c, 0, 64, 66
2, 82339, Note_on_c, 0, 64, 0
2, 82347, Note_on_c, 0, 66, 67
2, 82348, Note_on_c, 0, 50, 53
2, 82349, Control_c, 0, 64, 63
2, 82364, Control_c, 0, 64, 59
2, 82379, Control_c, 0, 64, 58
2, 82390, Note_on_c, 0, 62, 48
2, 82394, Control_c, 0, 64, 59
2, 82409, Control_c, 0, 64, 60
2, 82425, Control_c, 0, 64, 63
2, 82440, Control_c, 0, 64, 66
2, 82455, Control_c, 0, 64, 69
2, 82470, Control_c, 0, 64, 74
2, 82485, Control_c, 0, 64, 77
2, 82500, Control_c, 0, 64, 77
2, 82649, Note_on_c, 0, 50, 0
2, 82652, Control_c, 0, 64, 78
2, 82657, Note_on_c, 0, 48, 52
2, 82668, Control_c, 0, 64, 79
2, 82683, Control_c, 0, 64, 78
2, 82698, Control_c, 0, 64, 78
2, 82753, Control_c, 0, 64, 78
2, 82798, Control_c, 0, 64, 79
2, 82858, Control_c, 0, 64, 78
2, 82874, Control_c, 0, 64, 77
2, 82889, Control_c, 0, 64, 75
2, 82905, Control_c, 0, 64, 69
2, 82919, Control_c, 0, 64, 63
2, 82934, Control_c, 0, 64, 56
2, 82950, Control_c, 0, 64, 51
2, 82965, Control_c, 0, 64, 50
2, 82980, Control_c, 0, 64, 51
2, 82980, Note_on_c, 0, 66, 0
2, 82995, Control_c, 0, 64, 55
2, 82995, Note_on_c, 0, 67, 73
2, 82998, Note_on_c, 0, 47, 41
2, 82998, Note_on_c, 0, 55, 54
2, 82999, Note_on_c, 0, 48, 0
2, 83010, Control_c, 0, 64, 60
2, 83026, Control_c, 0, 64, 63
2, 83028, Note_on_c, 0, 47, 0
2, 83038, Note_on_c, 0, 55, 0
2, 83041, Control_c, 0, 64, 67
2, 83056, Control_c, 0, 64, 70
2, 83072, Control_c, 0, 64, 75
2, 83087, Control_c, 0, 64, 81
2, 83103, Control_c, 0, 64, 86
2, 83117, Control_c, 0, 64, 90
2, 83123, Note_on_c, 0, 62, 0
2, 83132, Control_c, 0, 64, 93
2, 83144, Note_on_c, 0, 67, 0
2, 83148, Control_c, 0, 64, 94
2, 83162, Control_c, 0, 64, 95
2, 83223, Control_c, 0, 64, 94
2, 83237, Control_c, 0, 64, 93
2, 83252, Control_c, 0, 64, 90
2, 83268, Control_c, 0, 64, 85
2, 83283, Control_c, 0, 64, 77
2, 83298, Control_c, 0, 64, 70
2, 83303, Note_on_c, 0, 50, 65
2, 83309, Note_on_c, 0, 62, 86
2, 83313, Control_c, 0, 64, 65
2, 83328, Control_c, 0, 64, 60
2, 83344, Control_c, 0, 64, 56
2, 83359, Control_c, 0, 64, 53
2, 83374, Control_c, 0, 64, 49
2, 83390, Control_c, 0, 64, 46
2, 83405, Control_c, 0, 64, 45
2, 83469, Note_on_c, 0, 62, 0
2, 83596, Control_c, 0, 64, 44
2, 83633, Note_on_c, 0, 55, 70
2, 83635, Note_on_c, 0, 62, 80
2, 83675, Note_on_c, 0, 50, 0
2, 83828, Note_on_c, 0, 62, 0
2, 83928, Control_c, 0, 64, 45
2, 83931, Note_on_c, 0, 71, 83
2, 83932, Note_on_c, 0, 54, 66
2, 83939, Note_on_c, 0, 62, 73
2, 83943, Control_c, 0, 64, 46
2, 83958, Control_c, 0, 64, 47
2, 83973, Control_c, 0, 64, 49
2, 83977, Note_on_c, 0, 55, 0
2, 83988, Control_c, 0, 64, 53
2, 84003, Control_c, 0, 64, 58
2, 84018, Control_c, 0, 64, 60
2, 84034, Control_c, 0, 64, 63
2, 84049, Control_c, 0, 64, 64
2, 84064, Control_c, 0, 64, 66
2, 84066, Note_on_c, 0, 71, 0
2, 84079, Control_c, 0, 64, 69
2, 84094, Control_c, 0, 64, 70
2, 84110, Control_c, 0, 64, 71
2, 84120, Note_on_c, 0, 62, 0
2, 84125, Control_c, 0, 64, 69
2, 84128, Note_on_c, 0, 54, 0
2, 84140, Control_c, 0, 64, 67
2, 84155, Control_c, 0, 64, 64
2, 84170, Control_c, 0, 64, 62
2, 84185, Control_c, 0, 64, 60
2, 84201, Control_c, 0, 64, 58
2, 84216, Control_c, 0, 64, 56
2, 84228, Note_on_c, 0, 52, 66
2, 84231, Control_c, 0, 64, 53
2, 84231, Note_on_c, 0, 55, 73
2, 84233, Note_on_c, 0, 71, 91
2, 84246, Control_c, 0, 64, 51
2, 84270, Control_c, 0, 64, 49
2, 84285, Control_c, 0, 64, 48
2, 84315, Control_c, 0, 64, 49
2, 84330, Control_c, 0, 64, 55
2, 84345, Control_c, 0, 64, 60
2, 84361, Control_c, 0, 64, 62
2, 84377, Control_c, 0, 64, 64
2, 84392, Control_c, 0, 64, 65
2, 84392, Note_on_c, 0, 71, 0
2, 84407, Control_c, 0, 64, 66
2, 84422, Control_c, 0, 64, 67
2, 84438, Control_c, 0, 64, 68
2, 84452, Control_c, 0, 64, 68
2, 84467, Control_c, 0, 64, 69
2, 84498, Control_c, 0, 64, 68
2, 84514, Control_c, 0, 64, 67
2, 84528, Control_c, 0, 64, 65
2, 84534, Note_on_c, 0, 71, 87
2, 84538, Note_on_c, 0, 79, 88
2, 84543, Control_c, 0, 64, 65
2, 84545, Note_on_c, 0, 55, 0
2, 84559, Control_c, 0, 64, 64
2, 84574, Control_c, 0, 64, 65
2, 84590, Control_c, 0, 64, 67
2, 84604, Control_c, 0, 64, 69
2, 84607, Note_on_c, 0, 71, 0
2, 84619, Control_c, 0, 64, 72
2, 84635, Control_c, 0, 64, 75
2, 84641, Note_on_c, 0, 79, 0
2, 84650, Control_c, 0, 64, 77
2, 84665, Control_c, 0, 64, 79
2, 84681, Control_c, 0, 64, 80
2, 84711, Control_c, 0, 64, 80
2, 84741, Control_c, 0, 64, 79
2, 84757, Control_c, 0, 64, 78
2, 84772, Control_c, 0, 64, 75
2, 84787, Control_c, 0, 64, 72
2, 84802, Control_c, 0, 64, 68
2, 84817, Control_c, 0, 64, 67
2, 84833, Control_c, 0, 64, 64
2, 84848, Control_c, 0, 64, 62
2, 84861, Note_on_c, 0, 64, 78
2, 84862, Control_c, 0, 64, 58
2, 84864, Note_on_c, 0, 79, 88
2, 84870, Note_on_c, 0, 59, 71
2, 84878, Control_c, 0, 64, 53
2, 84893, Control_c, 0, 64, 48
2, 84908, Control_c, 0, 64, 45
2, 84924, Control_c, 0, 64, 43
2, 84938, Control_c, 0, 64, 41
2, 84954, Control_c, 0, 64, 40
2, 84969, Control_c, 0, 64, 39
2, 84984, Control_c, 0, 64, 38
2, 84999, Control_c, 0, 64, 37
2, 85044, Note_on_c, 0, 79, 0
2, 85067, Control_c, 0, 64, 40
2, 85083, Control_c, 0, 64, 47
2, 85098, Control_c, 0, 64, 54
2, 85114, Control_c, 0, 64, 57
2, 85129, Control_c, 0, 64, 61
2, 85143, Control_c, 0, 64, 64
2, 85159, Control_c, 0, 64, 67
2, 85169, Note_on_c, 0, 79, 91
2, 85174, Control_c, 0, 64, 71
2, 85191, Control_c, 0, 64, 76
2, 85200, Note_on_c, 0, 64, 0
2, 85206, Control_c, 0, 64, 82
2, 85221, Control_c, 0, 64, 89
2, 85236, Control_c, 0, 64, 97
2, 85251, Control_c, 0, 64, 103
2, 85266, Control_c, 0, 64, 106
2, 85284, Note_on_c, 0, 79, 0
2, 85290, Note_on_c, 0, 59, 0
2, 85296, Control_c, 0, 64, 106
2, 85312, Control_c, 0, 64, 107
2, 85327, Control_c, 0, 64, 107
2, 85418, Control_c, 0, 64, 105
2, 85434, Control_c, 0, 64, 104
2, 85448, Control_c, 0, 64, 103
2, 85463, Control_c, 0, 64, 101
2, 85479, Control_c, 0, 64, 99
2, 85480, Note_on_c, 0, 73, 88
2, 85482, Note_on_c, 0, 52, 0
2, 85485, Note_on_c, 0, 67, 65
2, 85494, Control_c, 0, 64, 94
2, 85510, Control_c, 0, 64, 87
2, 85525, Control_c, 0, 64, 79
2, 85540, Control_c, 0, 64, 73
2, 85556, Control_c, 0, 64, 68
2, 85570, Control_c, 0, 64, 65
2, 85585, Control_c, 0, 64, 63
2, 85601, Control_c, 0, 64, 62
2, 85616, Control_c, 0, 64, 61
2, 85632, Control_c, 0, 64, 60
2, 85647, Control_c, 0, 64, 59
2, 85662, Control_c, 0, 64, 58
2, 85677, Control_c, 0, 64, 57
2, 85692, Control_c, 0, 64, 56
2, 85707, Control_c, 0, 64, 55
2, 85723, Control_c, 0, 64, 55
2, 85768, Control_c, 0, 64, 54
2, 85783, Control_c, 0, 64, 53
2, 85792, Note_on_c, 0, 50, 58
2, 85805, Note_on_c, 0, 52, 62
2, 85806, Control_c, 0, 64, 53
2, 86130, Note_on_c, 0, 49, 47
2, 86131, Note_on_c, 0, 57, 54
2, 86133, Note_on_c, 0, 76, 82
2, 86139, Note_on_c, 0, 52, 0
2, 86139, Note_on_c, 0, 67, 0
2, 86141, Control_c, 0, 64, 55
2, 86157, Control_c, 0, 64, 58
2, 86157, Note_on_c, 0, 50, 0
2, 86157, Note_on_c, 0, 73, 0
2, 86172, Control_c, 0, 64, 61
2, 86187, Control_c, 0, 64, 64
2, 86203, Control_c, 0, 64, 67
2, 86217, Control_c, 0, 64, 70
2, 86233, Control_c, 0, 64, 73
2, 86248, Control_c, 0, 64, 77
2, 86252, Note_on_c, 0, 57, 0
2, 86262, Control_c, 0, 64, 79
2, 86264, Note_on_c, 0, 49, 0
2, 86278, Control_c, 0, 64, 82
2, 86293, Control_c, 0, 64, 86
2, 86308, Control_c, 0, 64, 91
2, 86324, Control_c, 0, 64, 96
2, 86338, Control_c, 0, 64, 96
2, 86354, Control_c, 0, 64, 96
2, 86384, Control_c, 0, 64, 95
2, 86400, Control_c, 0, 64, 94
2, 86414, Control_c, 0, 64, 91
2, 86430, Control_c, 0, 64, 85
2, 86431, Note_on_c, 0, 45, 49
2, 86442, Note_on_c, 0, 61, 65
2, 86445, Control_c, 0, 64, 77
2, 86448, Note_on_c, 0, 55, 48
2, 86460, Control_c, 0, 64, 70
2, 86475, Control_c, 0, 64, 66
2, 86490, Control_c, 0, 64, 63
2, 86505, Control_c, 0, 64, 62
2, 86521, Control_c, 0, 64, 61
2, 86536, Control_c, 0, 64, 60
2, 86574, Control_c, 0, 64, 59
2, 86726, Control_c, 0, 64, 59
2, 86738, Note_on_c, 0, 55, 0
2, 86757, Control_c, 0, 64, 58
2, 86759, Note_on_c, 0, 45, 0
2, 86766, Note_on_c, 0, 50, 44
2, 86770, Note_on_c, 0, 66, 65
2, 86775, Note_on_c, 0, 54, 40
2, 86777, Note_on_c, 0, 61, 0
2, 86828, Note_on_c, 0, 76, 0
2, 86863, Control_c, 0, 64, 59
2, 86894, Control_c, 0, 64, 59
2, 87032, Control_c, 0, 64, 59
2, 87057, Note_on_c, 0, 66, 0
2, 87074, Note_on_c, 0, 69, 70
2, 87077, Control_c, 0, 64, 58
2, 87078, Note_on_c, 0, 64, 54
2, 87079, Note_on_c, 0, 48, 46
2, 87080, Note_on_c, 0, 50, 0
2, 87106, Control_c, 0, 64, 58
2, 87168, Control_c, 0, 64, 59
2, 87182, Control_c, 0, 64, 60
2, 87198, Control_c, 0, 64, 62
2, 87213, Control_c, 0, 64, 64
2, 87228, Control_c, 0, 64, 65
2, 87244, Control_c, 0, 64, 66
2, 87245, Note_on_c, 0, 64, 0
2, 87258, Control_c, 0, 64, 68
2, 87274, Control_c, 0, 64, 69
2, 87289, Control_c, 0, 64, 71
2, 87303, Control_c, 0, 64, 73
2, 87319, Control_c, 0, 64, 73
2, 87342, Control_c, 0, 64, 73
2, 87358, Control_c, 0, 64, 70
2, 87373, Control_c, 0, 64, 66
2, 87387, Control_c, 0, 64, 59
2, 87394, Note_on_c, 0, 47, 43
2, 87400, Note_on_c, 0, 74, 74
2, 87403, Control_c, 0, 64, 52
2, 87414, Note_on_c, 0, 62, 50
2, 87417, Note_on_c, 0, 69, 0
2, 87418, Control_c, 0, 64, 49
2, 87449, Control_c, 0, 64, 52
2, 87463, Control_c, 0, 64, 59
2, 87479, Control_c, 0, 64, 64
2, 87494, Control_c, 0, 64, 66
2, 87510, Control_c, 0, 64, 69
2, 87524, Control_c, 0, 64, 72
2, 87539, Control_c, 0, 64, 76
2, 87555, Control_c, 0, 64, 80
2, 87570, Control_c, 0, 64, 84
2, 87576, Note_on_c, 0, 47, 0
2, 87585, Control_c, 0, 64, 88
2, 87600, Control_c, 0, 64, 91
2, 87600, Note_on_c, 0, 48, 0
2, 87615, Control_c, 0, 64, 92
2, 87631, Control_c, 0, 64, 91
2, 87647, Control_c, 0, 64, 87
2, 87662, Control_c, 0, 64, 80
2, 87678, Control_c, 0, 64, 68
2, 87693, Control_c, 0, 64, 61
2, 87707, Control_c, 0, 64, 57
2, 87714, Note_on_c, 0, 74, 0
2, 87719, Note_on_c, 0, 72, 65
2, 87721, Note_on_c, 0, 45, 46
2, 87738, Control_c, 0, 64, 59
2, 87753, Control_c, 0, 64, 62
2, 87768, Control_c, 0, 64, 65
2, 87783, Control_c, 0, 64, 68
2, 87792, Note_on_c, 0, 72, 0
2, 87798, Control_c, 0, 64, 71
2, 87813, Control_c, 0, 64, 74
2, 87827, Control_c, 0, 64, 78
2, 87839, Note_on_c, 0, 45, 0
2, 87843, Control_c, 0, 64, 82
2, 87858, Control_c, 0, 64, 87
2, 87874, Control_c, 0, 64, 93
2, 87876, Note_on_c, 0, 54, 0
2, 87889, Control_c, 0, 64, 99
2, 87903, Control_c, 0, 64, 104
2, 87919, Control_c, 0, 64, 105
2, 87964, Control_c, 0, 64, 102
2, 87979, Control_c, 0, 64, 98
2, 87995, Control_c, 0, 64, 95
2, 88010, Control_c, 0, 64, 91
2, 88025, Control_c, 0, 64, 85
2, 88028, Note_on_c, 0, 43, 46
2, 88030, Note_on_c, 0, 71, 69
2, 88041, Control_c, 0, 64, 78
2, 88056, Control_c, 0, 64, 70
2, 88071, Control_c, 0, 64, 64
2, 88086, Control_c, 0, 64, 62
2, 88108, Control_c, 0, 64, 60
2, 88124, Control_c, 0, 64, 59
2, 88139, Control_c, 0, 64, 59
2, 88154, Control_c, 0, 64, 56
2, 88169, Control_c, 0, 64, 54
2, 88184, Control_c, 0, 64, 51
2, 88200, Control_c, 0, 64, 49
2, 88215, Control_c, 0, 64, 49
2, 88245, Control_c, 0, 64, 48
2, 88260, Control_c, 0, 64, 48
2, 88362, Note_on_c, 0, 47, 46
2, 88367, Control_c, 0, 64, 50
2, 88382, Control_c, 0, 64, 54
2, 88398, Control_c, 0, 64, 60
2, 88413, Control_c, 0, 64, 64
2, 88428, Control_c, 0, 64, 66
2, 88443, Control_c, 0, 64, 70
2, 88449, Note_on_c, 0, 43, 0
2, 88459, Control_c, 0, 64, 72
2, 88475, Control_c, 0, 64, 74
2, 88490, Control_c, 0, 64, 75
2, 88529, Note_on_c, 0, 62, 0
2, 88566, Control_c, 0, 64, 75
2, 88581, Control_c, 0, 64, 74
2, 88596, Control_c, 0, 64, 73
2, 88611, Control_c, 0, 64, 69
2, 88626, Control_c, 0, 64, 65
2, 88637, Note_on_c, 0, 47, 0
2, 88642, Control_c, 0, 64, 61
2, 88657, Control_c, 0, 64, 58
2, 88672, Control_c, 0, 64, 55
2, 88672, Note_on_c, 0, 44, 40
2, 88674, Note_on_c, 0, 52, 43
2, 88687, Control_c, 0, 64, 53
2, 88702, Control_c, 0, 64, 52
2, 88718, Control_c, 0, 64, 51
2, 88733, Control_c, 0, 64, 50
2, 88747, Control_c, 0, 64, 50
2, 88778, Control_c, 0, 64, 49
2, 88793, Control_c, 0, 64, 49
2, 88927, Note_on_c, 0, 52, 0
2, 88968, Control_c, 0, 64, 48
2, 88973, Note_on_c, 0, 50, 44
2, 88983, Control_c, 0, 64, 48
2, 88985, Note_on_c, 0, 59, 50
2, 89028, Control_c, 0, 64, 51
2, 89044, Control_c, 0, 64, 57
2, 89059, Control_c, 0, 64, 61
2, 89074, Control_c, 0, 64, 64
2, 89089, Control_c, 0, 64, 66
2, 89104, Control_c, 0, 64, 69
2, 89120, Control_c, 0, 64, 73
2, 89135, Control_c, 0, 64, 78
2, 89151, Control_c, 0, 64, 82
2, 89154, Note_on_c, 0, 44, 0
2, 89166, Control_c, 0, 64, 86
2, 89181, Control_c, 0, 64, 87
2, 89196, Control_c, 0, 64, 86
2, 89211, Control_c, 0, 64, 83
2, 89226, Control_c, 0, 64, 77
2, 89242, Control_c, 0, 64, 70
2, 89257, Control_c, 0, 64, 65
2, 89273, Control_c, 0, 64, 61
2, 89273, Note_on_c, 0, 49, 31
2, 89278, Note_on_c, 0, 45, 30
2, 89288, Control_c, 0, 64, 58
2, 89288, Note_on_c, 0, 50, 0
2, 89297, Note_on_c, 0, 64, 46
2, 89303, Control_c, 0, 64, 56
2, 89350, Control_c, 0, 64, 59
2, 89365, Control_c, 0, 64, 62
2, 89379, Control_c, 0, 64, 64
2, 89395, Control_c, 0, 64, 67
2, 89398, Note_on_c, 0, 71, 0
2, 89410, Control_c, 0, 64, 69
2, 89423, Note_on_c, 0, 59, 0
2, 89425, Control_c, 0, 64, 71
2, 89441, Control_c, 0, 64, 72
2, 89449, Note_on_c, 0, 64, 0
2, 89456, Control_c, 0, 64, 73
2, 89487, Control_c, 0, 64, 72
2, 89502, Control_c, 0, 64, 71
2, 89517, Control_c, 0, 64, 71
2, 89532, Control_c, 0, 64, 69
2, 89547, Control_c, 0, 64, 67
2, 89562, Control_c, 0, 64, 64
2, 89577, Control_c, 0, 64, 61
2, 89591, Note_on_c, 0, 49, 0
2, 89593, Control_c, 0, 64, 58
2, 89600, Note_on_c, 0, 64, 67
2, 89607, Note_on_c, 0, 50, 41
2, 89608, Control_c, 0, 64, 57
2, 89618, Note_on_c, 0, 62, 54
2, 89623, Control_c, 0, 64, 57
2, 89661, Control_c, 0, 64, 56
2, 89676, Control_c, 0, 64, 55
2, 89691, Control_c, 0, 64, 53
2, 89706, Control_c, 0, 64, 52
2, 89890, Note_on_c, 0, 62, 0
2, 89934, Note_on_c, 0, 69, 68
2, 89936, Note_on_c, 0, 61, 51
2, 89941, Note_on_c, 0, 64, 0
2, 89942, Note_on_c, 0, 50, 0
2, 89951, Note_on_c, 0, 52, 40
2, 89981, Control_c, 0, 64, 51
2, 89997, Control_c, 0, 64, 51
2, 90104, Control_c, 0, 64, 50
2, 90134, Control_c, 0, 64, 50
2, 90177, Note_on_c, 0, 69, 0
2, 90195, Control_c, 0, 64, 51
2, 90210, Control_c, 0, 64, 56
2, 90225, Note_on_c, 0, 45, 0
2, 90226, Control_c, 0, 64, 60
2, 90241, Control_c, 0, 64, 63
2, 90246, Note_on_c, 0, 64, 51
2, 90248, Note_on_c, 0, 67, 57
2, 90256, Control_c, 0, 64, 65
2, 90272, Control_c, 0, 64, 67
2, 90286, Control_c, 0, 64, 69
2, 90301, Control_c, 0, 64, 73
2, 90317, Control_c, 0, 64, 77
2, 90332, Control_c, 0, 64, 83
2, 90348, Control_c, 0, 64, 93
2, 90361, Note_on_c, 0, 67, 0
2, 90362, Control_c, 0, 64, 102
2, 90377, Control_c, 0, 64, 106
2, 90431, Control_c, 0, 64, 106
2, 90446, Control_c, 0, 64, 105
2, 90461, Control_c, 0, 64, 104
2, 90476, Control_c, 0, 64, 101
2, 90491, Control_c, 0, 64, 98
2, 90507, Control_c, 0, 64, 93
2, 90522, Control_c, 0, 64, 86
2, 90537, Control_c, 0, 64, 78
2, 90553, Control_c, 0, 64, 69
2, 90553, Note_on_c, 0, 52, 0
2, 90557, Note_on_c, 0, 46, 44
2, 90567, Control_c, 0, 64, 65
2, 90571, Note_on_c, 0, 64, 0
2, 90571, Note_on_c, 0, 66, 58
2, 90583, Control_c, 0, 64, 61
2, 90598, Control_c, 0, 64, 59
2, 90613, Control_c, 0, 64, 58
2, 90628, Control_c, 0, 64, 57
2, 90658, Control_c, 0, 64, 56
2, 90674, Control_c, 0, 64, 56
2, 90704, Control_c, 0, 64, 55
2, 90734, Control_c, 0, 64, 55
2, 90871, Control_c, 0, 64, 55
2, 90883, Note_on_c, 0, 49, 42
2, 90886, Control_c, 0, 64, 58
2, 90901, Control_c, 0, 64, 61
2, 90917, Control_c, 0, 64, 64
2, 90932, Control_c, 0, 64, 66
2, 90948, Control_c, 0, 64, 69
2, 90963, Control_c, 0, 64, 71
2, 90978, Control_c, 0, 64, 73
2, 90993, Control_c, 0, 64, 75
2, 91008, Control_c, 0, 64, 76
2, 91024, Control_c, 0, 64, 77
2, 91030, Note_on_c, 0, 66, 0
2, 91039, Control_c, 0, 64, 77
2, 91100, Control_c, 0, 64, 77
2, 91115, Control_c, 0, 64, 76
2, 91130, Control_c, 0, 64, 75
2, 91146, Control_c, 0, 64, 73
2, 91161, Control_c, 0, 64, 71
2, 91184, Control_c, 0, 64, 68
2, 91199, Control_c, 0, 64, 66
2, 91203, Note_on_c, 0, 54, 41
2, 91210, Note_on_c, 0, 73, 63
2, 91213, Control_c, 0, 64, 63
2, 91215, Note_on_c, 0, 49, 0
2, 91226, Note_on_c, 0, 61, 0
2, 91229, Control_c, 0, 64, 62
2, 91244, Control_c, 0, 64, 61
2, 91259, Control_c, 0, 64, 59
2, 91274, Control_c, 0, 64, 55
2, 91289, Control_c, 0, 64, 51
2, 91305, Control_c, 0, 64, 48
2, 91427, Control_c, 0, 64, 49
2, 91442, Control_c, 0, 64, 50
2, 91457, Control_c, 0, 64, 51
2, 91472, Control_c, 0, 64, 54
2, 91487, Control_c, 0, 64, 57
2, 91503, Control_c, 0, 64, 60
2, 91518, Control_c, 0, 64, 63
2, 91524, Note_on_c, 0, 52, 41
2, 91532, Note_on_c, 0, 61, 46
2, 91533, Control_c, 0, 64, 64
2, 91544, Note_on_c, 0, 54, 0
2, 91548, Control_c, 0, 64, 65
2, 91563, Control_c, 0, 64, 67
2, 91578, Control_c, 0, 64, 70
2, 91594, Control_c, 0, 64, 72
2, 91609, Control_c, 0, 64, 74
2, 91624, Control_c, 0, 64, 76
2, 91646, Note_on_c, 0, 46, 0
2, 91715, Control_c, 0, 64, 75
2, 91730, Control_c, 0, 64, 74
2, 91747, Control_c, 0, 64, 74
2, 91761, Control_c, 0, 64, 73
2, 91776, Control_c, 0, 64, 71
2, 91792, Control_c, 0, 64, 69
2, 91807, Control_c, 0, 64, 66
2, 91809, Note_on_c, 0, 52, 0
2, 91823, Control_c, 0, 64, 62
2, 91835, Note_on_c, 0, 47, 35
2, 91837, Control_c, 0, 64, 59
2, 91841, Note_on_c, 0, 73, 0
2, 91844, Note_on_c, 0, 50, 45
2, 91852, Control_c, 0, 64, 58
2, 91852, Note_on_c, 0, 66, 44
2, 91868, Control_c, 0, 64, 58
2, 91913, Control_c, 0, 64, 57
2, 91928, Control_c, 0, 64, 57
2, 91952, Control_c, 0, 64, 56
2, 91984, Note_on_c, 0, 66, 0
2, 91993, Note_on_c, 0, 61, 0
2, 92183, Note_on_c, 0, 66, 62
2, 92185, Note_on_c, 0, 64, 45
2, 92316, Control_c, 0, 64, 57
2, 92467, Note_on_c, 0, 64, 0
2, 92489, Note_on_c, 0, 66, 0
2, 92495, Note_on_c, 0, 71, 60
2, 92507, Note_on_c, 0, 62, 43
2, 92550, Note_on_c, 0, 50, 0
2, 92705, Note_on_c, 0, 47, 0
2, 92758, Note_on_c, 0, 71, 0
2, 92787, Note_on_c, 0, 69, 50
2, 92791, Note_on_c, 0, 54, 46
2, 93075, Note_on_c, 0, 69, 0
2, 93094, Note_on_c, 0, 67, 53
2, 93105, Note_on_c, 0, 47, 37
2, 93110, Note_on_c, 0, 59, 42
2, 93115, Note_on_c, 0, 54, 0
2, 93160, Control_c, 0, 64, 57
2, 93176, Control_c, 0, 64, 59
2, 93191, Control_c, 0, 64, 61
2, 93206, Control_c, 0, 64, 62
2, 93221, Control_c, 0, 64, 64
2, 93237, Control_c, 0, 64, 65
2, 93252, Control_c, 0, 64, 66
2, 93297, Control_c, 0, 64, 66
2, 93313, Control_c, 0, 64, 67
2, 93344, Control_c, 0, 64, 67
2, 93358, Control_c, 0, 64, 68
2, 93373, Control_c, 0, 64, 68
2, 93390, Control_c, 0, 64, 69
2, 93405, Control_c, 0, 64, 69
2, 93417, Note_on_c, 0, 57, 49
2, 93420, Control_c, 0, 64, 70
2, 93427, Note_on_c, 0, 59, 0
2, 93488, Control_c, 0, 64, 69
2, 93504, Control_c, 0, 64, 69
2, 93506, Note_on_c, 0, 47, 0
2, 93533, Control_c, 0, 64, 68
2, 93564, Control_c, 0, 64, 67
2, 93610, Control_c, 0, 64, 67
2, 93626, Control_c, 0, 64, 66
2, 93641, Control_c, 0, 64, 66
2, 93642, Note_on_c, 0, 57, 0
2, 93642, Note_on_c, 0, 62, 0
2, 93656, Control_c, 0, 64, 65
2, 93716, Control_c, 0, 64, 64
2, 93720, Note_on_c, 0, 52, 42
2, 93734, Note_on_c, 0, 55, 49
2, 93762, Control_c, 0, 64, 64
2, 93792, Control_c, 0, 64, 63
2, 93807, Control_c, 0, 64, 62
2, 93823, Control_c, 0, 64, 61
2, 93838, Control_c, 0, 64, 61
2, 94046, Note_on_c, 0, 52, 0
2, 94049, Note_on_c, 0, 59, 57
2, 94053, Note_on_c, 0, 50, 41
2, 94359, Note_on_c, 0, 49, 47
2, 94365, Note_on_c, 0, 59, 0
2, 94369, Note_on_c, 0, 50, 0
2, 94376, Note_on_c, 0, 64, 62
2, 94396, Note_on_c, 0, 55, 0
2, 94686, Note_on_c, 0, 52, 53
2, 94686, Note_on_c, 0, 64, 0
2, 94688, Note_on_c, 0, 62, 65
2, 94780, Note_on_c, 0, 67, 0
2, 94988, Note_on_c, 0, 52, 0
2, 94992, Note_on_c, 0, 61, 70
2, 95015, Note_on_c, 0, 57, 55
2, 95037, Note_on_c, 0, 49, 0
2, 95039, Note_on_c, 0, 62, 0
2, 95316, Note_on_c, 0, 64, 69
2, 95320, Note_on_c, 0, 55, 64
2, 95331, Note_on_c, 0, 57, 0
2, 95394, Note_on_c, 0, 61, 0
2, 95628, Note_on_c, 0, 69, 82
2, 95632, Note_on_c, 0, 54, 58
2, 95632, Note_on_c, 0, 55, 0
2, 95643, Note_on_c, 0, 64, 0
2, 95723, Control_c, 0, 64, 60
2, 95939, Note_on_c, 0, 57, 60
2, 95939, Note_on_c, 0, 69, 0
2, 95940, Note_on_c, 0, 67, 80
2, 95946, Note_on_c, 0, 54, 0
2, 95960, Note_on_c, 0, 61, 56
2, 96135, Note_on_c, 0, 61, 0
2, 96172, Control_c, 0, 64, 60
2, 96202, Control_c, 0, 64, 59
2, 96217, Control_c, 0, 64, 58
2, 96233, Control_c, 0, 64, 58
2, 96241, Note_on_c, 0, 57, 0
2, 96242, Note_on_c, 0, 66, 87
2, 96245, Note_on_c, 0, 62, 60
2, 96267, Note_on_c, 0, 67, 0
2, 96574, Control_c, 0, 64, 58
2, 96578, Note_on_c, 0, 62, 0
2, 96579, Note_on_c, 0, 66, 0
2, 96581, Note_on_c, 0, 64, 69
2, 96581, Note_on_c, 0, 69, 88
2, 96584, Note_on_c, 0, 61, 60
2, 96589, Control_c, 0, 64, 60
2, 96604, Control_c, 0, 64, 62
2, 96619, Control_c, 0, 64, 64
2, 96635, Control_c, 0, 64, 67
2, 96641, Note_on_c, 0, 64, 0
2, 96650, Control_c, 0, 64, 70
2, 96664, Note_on_c, 0, 69, 0
2, 96667, Control_c, 0, 64, 74
2, 96681, Control_c, 0, 64, 78
2, 96696, Control_c, 0, 64, 81
2, 96712, Control_c, 0, 64, 84
2, 96727, Control_c, 0, 64, 85
2, 96743, Control_c, 0, 64, 86
2, 96757, Control_c, 0, 64, 87
2, 96772, Control_c, 0, 64, 88
2, 96788, Control_c, 0, 64, 89
2, 96818, Control_c, 0, 64, 88
2, 96833, Control_c, 0, 64, 87
2, 96848, Control_c, 0, 64, 83
2, 96864, Control_c, 0, 64, 78
2, 96875, Note_on_c, 0, 61, 0
2, 96879, Control_c, 0, 64, 71
2, 96887, Note_on_c, 0, 74, 90
2, 96893, Control_c, 0, 64, 66
2, 96903, Note_on_c, 0, 59, 57
2, 96909, Control_c, 0, 64, 63
2, 96909, Note_on_c, 0, 62, 53
2, 96924, Control_c, 0, 64, 61
2, 96939, Control_c, 0, 64, 61
2, 96955, Control_c, 0, 64, 60
2, 96970, Control_c, 0, 64, 60
2, 97016, Control_c, 0, 64, 59
2, 97032, Control_c, 0, 64, 59
2, 97126, Note_on_c, 0, 62, 0
2, 97159, Note_on_c, 0, 74, 0
2, 97212, Note_on_c, 0, 73, 90
2, 97214, Note_on_c, 0, 59, 0
2, 97215, Note_on_c, 0, 57, 67
2, 97223, Note_on_c, 0, 66, 71
2, 97476, Note_on_c, 0, 73, 0
2, 97506, Note_on_c, 0, 66, 0
2, 97528, Note_on_c, 0, 55, 77
2, 97532, Note_on_c, 0, 71, 89
2, 97537, Note_on_c, 0, 57, 0
2, 97838, Note_on_c, 0, 54, 72
2, 97845, Control_c, 0, 64, 60
2, 97850, Note_on_c, 0, 74, 96
2, 97855, Note_on_c, 0, 55, 0
2, 97857, Note_on_c, 0, 69, 68
2, 97857, Note_on_c, 0, 71, 0
2, 97859, Control_c, 0, 64, 62
2, 97875, Control_c, 0, 64, 64
2, 97885, Note_on_c, 0, 69, 0
2, 97890, Control_c, 0, 64, 67
2, 97906, Control_c, 0, 64, 71
2, 97921, Control_c, 0, 64, 75
2, 97928, Note_on_c, 0, 74, 0
2, 97936, Control_c, 0, 64, 80
2, 97952, Control_c, 0, 64, 85
2, 97967, Control_c, 0, 64, 89
2, 97983, Control_c, 0, 64, 95
2, 97997, Control_c, 0, 64, 105
2, 98012, Control_c, 0, 64, 127
2, 98126, Control_c, 0, 64, 110
2, 98141, Control_c, 0, 64, 100
2, 98156, Control_c, 0, 64, 92
2, 98156, Note_on_c, 0, 79, 97
2, 98157, Note_on_c, 0, 54, 0
2, 98163, Note_on_c, 0, 52, 68
2, 98165, Note_on_c, 0, 67, 79
2, 98171, Control_c, 0, 64, 87
2, 98187, Control_c, 0, 64, 81
2, 98202, Control_c, 0, 64, 75
2, 98217, Control_c, 0, 64, 68
2, 98233, Control_c, 0, 64, 63
2, 98248, Control_c, 0, 64, 59
2, 98264, Control_c, 0, 64, 58
2, 98324, Control_c, 0, 64, 57
2, 98355, Control_c, 0, 64, 56
2, 98451, Note_on_c, 0, 67, 0
2, 98470, Note_on_c, 0, 50, 79
2, 98475, Note_on_c, 0, 71, 94
2, 98477, Note_on_c, 0, 52, 0
2, 98801, Note_on_c, 0, 49, 67
2, 98808, Note_on_c, 0, 76, 95
2, 98816, Note_on_c, 0, 50, 0
2, 98840, Note_on_c, 0, 71, 0
2, 99110, Note_on_c, 0, 49, 0
2, 99118, Note_on_c, 0, 74, 91
2, 99119, Note_on_c, 0, 47, 70
2, 99153, Note_on_c, 0, 76, 0
2, 99332, Control_c, 0, 64, 55
2, 99346, Control_c, 0, 64, 52
2, 99362, Control_c, 0, 64, 46
2, 99377, Control_c, 0, 64, 27
2, 99393, Control_c, 0, 64, 0
2, 99417, Note_on_c, 0, 47, 0
2, 99420, Note_on_c, 0, 45, 77
2, 99430, Note_on_c, 0, 73, 94
2, 99433, Note_on_c, 0, 74, 0
2, 99470, Note_on_c, 0, 79, 0
2, 99758, Note_on_c, 0, 43, 81
2, 99760, Note_on_c, 0, 45, 0
2, 99762, Note_on_c, 0, 76, 99
2, 100083, Note_on_c, 0, 42, 88
2, 100084, Note_on_c, 0, 81, 101
2, 100100, Note_on_c, 0, 76, 0
2, 100108, Note_on_c, 0, 73, 0
2, 100120, Note_on_c, 0, 43, 0
2, 100425, Note_on_c, 0, 79, 90
2, 100427, Note_on_c, 0, 40, 82
2, 100427, Note_on_c, 0, 76, 88
2, 100466, Note_on_c, 0, 42, 0
2, 100471, Note_on_c, 0, 81, 0
2, 100815, Note_on_c, 0, 74, 86
2, 100815, Note_on_c, 0, 78, 92
2, 100816, Note_on_c, 0, 38, 87
2, 100843, Note_on_c, 0, 76, 0
2, 100851, Note_on_c, 0, 40, 0
2, 100863, Note_on_c, 0, 79, 0
2, 100884, Control_c, 0, 64, 34
2, 100898, Control_c, 0, 64, 60
2, 100914, Control_c, 0, 64, 70
2, 100929, Control_c, 0, 64, 89
2, 100936, Note_on_c, 0, 38, 0
2, 100944, Control_c, 0, 64, 127
2, 101141, Control_c, 0, 64, 103
2, 101164, Control_c, 0, 64, 91
2, 101179, Control_c, 0, 64, 83
2, 101195, Control_c, 0, 64, 77
2, 101210, Control_c, 0, 64, 73
2, 101225, Control_c, 0, 64, 69
2, 101231, Note_on_c, 0, 74, 0
2, 101236, Note_on_c, 0, 78, 0
2, 101240, Control_c, 0, 64, 65
2, 101255, Control_c, 0, 64, 62
2, 101260, Note_on_c, 0, 62, 93
2, 101265, Note_on_c, 0, 76, 75
2, 101266, Note_on_c, 0, 79, 83
2, 101271, Control_c, 0, 64, 59
2, 101286, Control_c, 0, 64, 57
2, 101301, Control_c, 0, 64, 56
2, 101493, Note_on_c, 0, 62, 0
2, 101514, Control_c, 0, 64, 56
2, 101529, Control_c, 0, 64, 55
2, 101544, Control_c, 0, 64, 55
2, 101560, Control_c, 0, 64, 54
2, 101575, Control_c, 0, 64, 53
2, 101591, Control_c, 0, 64, 53
2, 101599, Note_on_c, 0, 79, 0
2, 101606, Control_c, 0, 64, 52
2, 101613, Note_on_c, 0, 62, 93
2, 101618, Note_on_c, 0, 81, 84
2, 101621, Control_c, 0, 64, 52
2, 101634, Note_on_c, 0, 78, 86
2, 101637, Control_c, 0, 64, 51
2, 101664, Note_on_c, 0, 76, 0
2, 101666, Control_c, 0, 64, 51
2, 101713, Control_c, 0, 64, 50
2, 101798, Note_on_c, 0, 62, 0
2, 101948, Control_c, 0, 64, 51
2, 101948, Note_on_c, 0, 50, 72
2, 101955, Note_on_c, 0, 62, 88
2, 101963, Control_c, 0, 64, 52
2, 101978, Control_c, 0, 64, 52
2, 101994, Control_c, 0, 64, 53
2, 102093, Note_on_c, 0, 62, 0
2, 102272, Note_on_c, 0, 52, 69
2, 102274, Note_on_c, 0, 55, 86
2, 102306, Note_on_c, 0, 50, 0
2, 102435, Control_c, 0, 64, 52
2, 102546, Note_on_c, 0, 78, 0
2, 102566, Note_on_c, 0, 74, 85
2, 102569, Note_on_c, 0, 71, 81
2, 102569, Note_on_c, 0, 81, 0
2, 102602, Control_c, 0, 64, 52
2, 102746, Control_c, 0, 64, 51
2, 102793, Control_c, 0, 64, 51
2, 102838, Control_c, 0, 64, 50
2, 102852, Control_c, 0, 64, 48
2, 102867, Control_c, 0, 64, 44
2, 102883, Control_c, 0, 64, 42
2, 102889, Note_on_c, 0, 59, 81
2, 102895, Note_on_c, 0, 79, 85
2, 102898, Control_c, 0, 64, 41
2, 102906, Note_on_c, 0, 76, 75
2, 102927, Note_on_c, 0, 74, 0
2, 102928, Control_c, 0, 64, 41
2, 102943, Control_c, 0, 64, 46
2, 102959, Control_c, 0, 64, 55
2, 102974, Control_c, 0, 64, 60
2, 102988, Control_c, 0, 64, 63
2, 103004, Control_c, 0, 64, 65
2, 103019, Control_c, 0, 64, 67
2, 103035, Control_c, 0, 64, 71
2, 103037, Note_on_c, 0, 52, 0
2, 103050, Control_c, 0, 64, 76
2, 103064, Control_c, 0, 64, 82
2, 103080, Control_c, 0, 64, 86
2, 103095, Control_c, 0, 64, 86
2, 103111, Control_c, 0, 64, 85
2, 103115, Note_on_c, 0, 79, 0
2, 103126, Control_c, 0, 64, 83
2, 103140, Control_c, 0, 64, 81
2, 103156, Control_c, 0, 64, 78
2, 103161, Note_on_c, 0, 59, 0
2, 103171, Control_c, 0, 64, 76
2, 103171, Note_on_c, 0, 55, 0
2, 103186, Control_c, 0, 64, 73
2, 103201, Note_on_c, 0, 52, 64
2, 103203, Control_c, 0, 64, 71
2, 103217, Note_on_c, 0, 74, 75
2, 103218, Control_c, 0, 64, 71
2, 103220, Note_on_c, 0, 78, 82
2, 103244, Note_on_c, 0, 71, 0
2, 103244, Note_on_c, 0, 76, 0
2, 103248, Control_c, 0, 64, 71
2, 103263, Control_c, 0, 64, 71
2, 103484, Control_c, 0, 64, 70
2, 103498, Control_c, 0, 64, 69
2, 103514, Control_c, 0, 64, 66
2, 103515, Note_on_c, 0, 78, 0
2, 103529, Control_c, 0, 64, 62
2, 103540, Note_on_c, 0, 57, 64
2, 103541, Note_on_c, 0, 76, 79
2, 103542, Note_on_c, 0, 73, 71
2, 103544, Control_c, 0, 64, 55
2, 103556, Note_on_c, 0, 74, 0
2, 103560, Control_c, 0, 64, 53
2, 103575, Control_c, 0, 64, 55
2, 103591, Control_c, 0, 64, 59
2, 103605, Control_c, 0, 64, 62
2, 103605, Note_on_c, 0, 52, 0
2, 103620, Control_c, 0, 64, 64
2, 103632, Note_on_c, 0, 57, 0
2, 103636, Control_c, 0, 64, 67
2, 103651, Control_c, 0, 64, 70
2, 103666, Control_c, 0, 64, 73
2, 103682, Control_c, 0, 64, 76
2, 103696, Control_c, 0, 64, 81
2, 103712, Control_c, 0, 64, 88
2, 103727, Control_c, 0, 64, 97
2, 103742, Control_c, 0, 64, 103
2, 103758, Control_c, 0, 64, 104
2, 103772, Control_c, 0, 64, 103
2, 103787, Control_c, 0, 64, 101
2, 103803, Control_c, 0, 64, 100
2, 103818, Control_c, 0, 64, 98
2, 103833, Control_c, 0, 64, 93
2, 103847, Note_on_c, 0, 52, 69
2, 103848, Control_c, 0, 64, 85
2, 103863, Control_c, 0, 64, 75
2, 103878, Note_on_c, 0, 55, 49
2, 103879, Control_c, 0, 64, 67
2, 103894, Control_c, 0, 64, 60
2, 103908, Control_c, 0, 64, 50
2, 103924, Control_c, 0, 64, 47
2, 103955, Control_c, 0, 64, 48
2, 104146, Note_on_c, 0, 54, 55
2, 104153, Note_on_c, 0, 55, 0
2, 104155, Note_on_c, 0, 57, 75
2, 104160, Note_on_c, 0, 52, 0
2, 104185, Note_on_c, 0, 76, 0
2, 104205, Note_on_c, 0, 73, 0
2, 104463, Note_on_c, 0, 57, 0
2, 104470, Note_on_c, 0, 55, 65
2, 104475, Note_on_c, 0, 52, 54
2, 104482, Note_on_c, 0, 64, 70
2, 104529, Note_on_c, 0, 54, 0
2, 104764, Note_on_c, 0, 55, 0
2, 104777, Note_on_c, 0, 50, 49
2, 104779, Note_on_c, 0, 52, 0
2, 104779, Note_on_c, 0, 54, 59
2, 104786, Note_on_c, 0, 69, 71
2, 104820, Note_on_c, 0, 64, 0
2, 105099, Note_on_c, 0, 52, 52
2, 105108, Note_on_c, 0, 55, 52
2, 105110, Note_on_c, 0, 67, 72
2, 105111, Note_on_c, 0, 54, 0
2, 105136, Note_on_c, 0, 69, 0
2, 105174, Note_on_c, 0, 50, 0
2, 105411, Note_on_c, 0, 55, 0
2, 105412, Note_on_c, 0, 52, 0
2, 105430, Note_on_c, 0, 74, 73
2, 105431, Note_on_c, 0, 67, 0
2, 105441, Note_on_c, 0, 54, 45
2, 105444, Note_on_c, 0, 57, 44
2, 105446, Control_c, 0, 64, 46
2, 105456, Note_on_c, 0, 66, 45
2, 105460, Control_c, 0, 64, 45
2, 105476, Control_c, 0, 64, 43
2, 105491, Control_c, 0, 64, 40
2, 105505, Control_c, 0, 64, 36
2, 105521, Control_c, 0, 64, 33
2, 105536, Control_c, 0, 64, 32
2, 105567, Control_c, 0, 64, 34
2, 105581, Control_c, 0, 64, 37
2, 105597, Control_c, 0, 64, 40
2, 105612, Control_c, 0, 64, 41
2, 105627, Control_c, 0, 64, 43
2, 105642, Control_c, 0, 64, 46
2, 105659, Control_c, 0, 64, 49
2, 105675, Control_c, 0, 64, 51
2, 105675, Note_on_c, 0, 66, 0
2, 105689, Control_c, 0, 64, 53
2, 105704, Control_c, 0, 64, 55
2, 105720, Control_c, 0, 64, 58
2, 105735, Control_c, 0, 64, 61
2, 105742, Note_on_c, 0, 72, 71
2, 105750, Control_c, 0, 64, 62
2, 105773, Control_c, 0, 64, 63
2, 105779, Note_on_c, 0, 64, 45
2, 105779, Note_on_c, 0, 74, 0
2, 105788, Control_c, 0, 64, 65
2, 105804, Control_c, 0, 64, 66
2, 105819, Control_c, 0, 64, 69
2, 105820, Note_on_c, 0, 72, 0
2, 105834, Control_c, 0, 64, 73
2, 105849, Control_c, 0, 64, 77
2, 105864, Control_c, 0, 64, 81
2, 105880, Control_c, 0, 64, 83
2, 105882, Note_on_c, 0, 64, 0
2, 105894, Control_c, 0, 64, 84
2, 105940, Control_c, 0, 64, 83
2, 105955, Control_c, 0, 64, 83
2, 105970, Control_c, 0, 64, 82
2, 105985, Control_c, 0, 64, 82
2, 106001, Control_c, 0, 64, 80
2, 106016, Control_c, 0, 64, 79
2, 106031, Control_c, 0, 64, 77
2, 106046, Control_c, 0, 64, 75
2, 106061, Control_c, 0, 64, 72
2, 106077, Control_c, 0, 64, 68
2, 106077, Note_on_c, 0, 71, 72
2, 106092, Control_c, 0, 64, 66
2, 106094, Note_on_c, 0, 62, 54
2, 106106, Control_c, 0, 64, 65
2, 106110, Note_on_c, 0, 54, 0
2, 106122, Control_c, 0, 64, 64
2, 106137, Control_c, 0, 64, 64
2, 106153, Control_c, 0, 64, 63
2, 106167, Control_c, 0, 64, 62
2, 106180, Note_on_c, 0, 57, 0
2, 106182, Control_c, 0, 64, 61
2, 106198, Control_c, 0, 64, 59
2, 106213, Control_c, 0, 64, 59
2, 106244, Control_c, 0, 64, 58
2, 106259, Control_c, 0, 64, 58
2, 106274, Control_c, 0, 64, 57
2, 106289, Control_c, 0, 64, 56
2, 106304, Control_c, 0, 64, 55
2, 106320, Control_c, 0, 64, 55
2, 106335, Control_c, 0, 64, 54
2, 106350, Control_c, 0, 64, 54
2, 106365, Control_c, 0, 64, 53
2, 106380, Control_c, 0, 64, 52
2, 106397, Note_on_c, 0, 50, 56
2, 106399, Note_on_c, 0, 47, 52
2, 106411, Control_c, 0, 64, 51
2, 106456, Control_c, 0, 64, 51
2, 106488, Control_c, 0, 64, 50
2, 106707, Note_on_c, 0, 62, 0
2, 106711, Note_on_c, 0, 55, 61
2, 106718, Note_on_c, 0, 52, 53
2, 106720, Note_on_c, 0, 61, 56
2, 106724, Note_on_c, 0, 47, 0
2, 106727, Note_on_c, 0, 50, 0
2, 106999, Note_on_c, 0, 52, 0
2, 107006, Note_on_c, 0, 55, 0
2, 107014, Note_on_c, 0, 61, 0
2, 107032, Note_on_c, 0, 54, 52
2, 107042, Note_on_c, 0, 50, 38
2, 107046, Note_on_c, 0, 62, 54
2, 107282, Note_on_c, 0, 50, 0
2, 107319, Note_on_c, 0, 54, 0
2, 107333, Note_on_c, 0, 49, 30
2, 107353, Note_on_c, 0, 52, 34
2, 107359, Note_on_c, 0, 64, 50
2, 107384, Control_c, 0, 64, 53
2, 107400, Control_c, 0, 64, 56
2, 107415, Control_c, 0, 64, 58
2, 107421, Note_on_c, 0, 71, 0
2, 107431, Control_c, 0, 64, 61
2, 107434, Note_on_c, 0, 62, 0
2, 107445, Control_c, 0, 64, 63
2, 107460, Control_c, 0, 64, 63
2, 107476, Control_c, 0, 64, 64
2, 107491, Control_c, 0, 64, 63
2, 107492, Note_on_c, 0, 64, 0
2, 107506, Control_c, 0, 64, 63
2, 107522, Control_c, 0, 64, 62
2, 107537, Control_c, 0, 64, 61
2, 107553, Control_c, 0, 64, 60
2, 107582, Control_c, 0, 64, 60
2, 107598, Control_c, 0, 64, 59
2, 107613, Control_c, 0, 64, 59
2, 107623, Note_on_c, 0, 49, 0
2, 107628, Control_c, 0, 64, 58
2, 107662, Note_on_c, 0, 47, 41
2, 107674, Control_c, 0, 64, 58
2, 107676, Note_on_c, 0, 64, 67
2, 107689, Control_c, 0, 64, 57
2, 107690, Note_on_c, 0, 62, 53
2, 107704, Control_c, 0, 64, 56
2, 107734, Control_c, 0, 64, 56
2, 107795, Control_c, 0, 64, 55
2, 107825, Control_c, 0, 64, 55
2, 107977, Control_c, 0, 64, 54
2, 107986, Note_on_c, 0, 62, 0
2, 107988, Note_on_c, 0, 45, 43
2, 107995, Note_on_c, 0, 64, 0
2, 107996, Note_on_c, 0, 69, 62
2, 108011, Note_on_c, 0, 61, 40
2, 108039, Control_c, 0, 64, 54
2, 108050, Note_on_c, 0, 47, 0
2, 108053, Control_c, 0, 64, 53
2, 108123, Control_c, 0, 64, 53
2, 108246, Note_on_c, 0, 69, 0
2, 108301, Note_on_c, 0, 61, 0
2, 108314, Note_on_c, 0, 64, 48
2, 108318, Note_on_c, 0, 67, 51
2, 108335, Control_c, 0, 64, 55
2, 108351, Control_c, 0, 64, 58
2, 108366, Control_c, 0, 64, 62
2, 108381, Control_c, 0, 64, 64
2, 108397, Control_c, 0, 64, 65
2, 108404, Note_on_c, 0, 52, 0
2, 108411, Control_c, 0, 64, 66
2, 108426, Control_c, 0, 64, 68
2, 108436, Note_on_c, 0, 67, 0
2, 108442, Control_c, 0, 64, 69
2, 108457, Control_c, 0, 64, 70
2, 108473, Control_c, 0, 64, 72
2, 108487, Control_c, 0, 64, 76
2, 108502, Control_c, 0, 64, 80
2, 108518, Control_c, 0, 64, 82
2, 108549, Control_c, 0, 64, 82
2, 108564, Control_c, 0, 64, 81
2, 108579, Control_c, 0, 64, 79
2, 108595, Control_c, 0, 64, 76
2, 108609, Control_c, 0, 64, 72
2, 108624, Control_c, 0, 64, 67
2, 108640, Control_c, 0, 64, 63
2, 108643, Note_on_c, 0, 66, 47
2, 108655, Control_c, 0, 64, 61
2, 108657, Note_on_c, 0, 45, 0
2, 108671, Control_c, 0, 64, 59
2, 108685, Control_c, 0, 64, 57
2, 108700, Control_c, 0, 64, 57
2, 108716, Control_c, 0, 64, 56
2, 108731, Control_c, 0, 64, 55
2, 108746, Control_c, 0, 64, 54
2, 108761, Control_c, 0, 64, 54
2, 108792, Control_c, 0, 64, 53
2, 108845, Control_c, 0, 64, 53
2, 108930, Note_on_c, 0, 64, 0
2, 108946, Note_on_c, 0, 57, 49
2, 108955, Note_on_c, 0, 62, 43
2, 109102, Note_on_c, 0, 57, 0
2, 109256, Note_on_c, 0, 57, 71
2, 109258, Note_on_c, 0, 64, 65
2, 109297, Note_on_c, 0, 66, 0
2, 109399, Note_on_c, 0, 57, 0
2, 109551, Note_on_c, 0, 57, 70
2, 109564, Note_on_c, 0, 62, 0
2, 109565, Note_on_c, 0, 61, 59
2, 109642, Control_c, 0, 64, 54
2, 109657, Control_c, 0, 64, 56
2, 109672, Control_c, 0, 64, 57
2, 109683, Note_on_c, 0, 57, 0
2, 109687, Control_c, 0, 64, 59
2, 109702, Control_c, 0, 64, 61
2, 109718, Control_c, 0, 64, 63
2, 109733, Control_c, 0, 64, 64
2, 109747, Control_c, 0, 64, 65
2, 109764, Control_c, 0, 64, 66
2, 109800, Note_on_c, 0, 61, 0
2, 109825, Control_c, 0, 64, 65
2, 109841, Control_c, 0, 64, 65
2, 109855, Control_c, 0, 64, 64
2, 109871, Control_c, 0, 64, 63
2, 109873, Note_on_c, 0, 51, 55
2, 109880, Note_on_c, 0, 66, 71
2, 109885, Control_c, 0, 64, 63
2, 109896, Note_on_c, 0, 60, 54
2, 109897, Note_on_c, 0, 64, 0
2, 109900, Control_c, 0, 64, 61
2, 109916, Control_c, 0, 64, 60
2, 109931, Control_c, 0, 64, 58
2, 109946, Control_c, 0, 64, 56
2, 109962, Control_c, 0, 64, 55
2, 109977, Control_c, 0, 64, 54
2, 109993, Control_c, 0, 64, 54
2, 110047, Note_on_c, 0, 60, 0
2, 110129, Control_c, 0, 64, 55
2, 110144, Control_c, 0, 64, 56
2, 110160, Control_c, 0, 64, 58
2, 110174, Control_c, 0, 64, 60
2, 110189, Control_c, 0, 64, 62
2, 110191, Note_on_c, 0, 52, 56
2, 110191, Note_on_c, 0, 68, 84
2, 110205, Control_c, 0, 64, 63
2, 110208, Note_on_c, 0, 51, 0
2, 110212, Note_on_c, 0, 59, 56
2, 110219, Control_c, 0, 64, 63
2, 110234, Note_on_c, 0, 66, 0
2, 110235, Control_c, 0, 64, 64
2, 110250, Control_c, 0, 64, 64
2, 110311, Control_c, 0, 64, 64
2, 110341, Control_c, 0, 64, 63
2, 110357, Control_c, 0, 64, 63
2, 110379, Control_c, 0, 64, 62
2, 110410, Control_c, 0, 64, 62
2, 110418, Note_on_c, 0, 59, 0
2, 110478, Note_on_c, 0, 68, 0
2, 110501, Control_c, 0, 64, 61
2, 110516, Control_c, 0, 64, 61
2, 110531, Control_c, 0, 64, 60
2, 110531, Note_on_c, 0, 69, 84
2, 110533, Note_on_c, 0, 52, 0
2, 110537, Note_on_c, 0, 53, 49
2, 110546, Control_c, 0, 64, 59
2, 110555, Note_on_c, 0, 57, 62
2, 110562, Control_c, 0, 64, 58
2, 110577, Control_c, 0, 64, 56
2, 110594, Control_c, 0, 64, 55
2, 110608, Control_c, 0, 64, 53
2, 110623, Control_c, 0, 64, 52
2, 110639, Control_c, 0, 64, 51
2, 110684, Control_c, 0, 64, 51
2, 110848, Note_on_c, 0, 57, 0
2, 110857, Note_on_c, 0, 60, 56
2, 111159, Note_on_c, 0, 60, 0
2, 111187, Note_on_c, 0, 62, 60
2, 111484, Note_on_c, 0, 47, 63
2, 111488, Note_on_c, 0, 59, 63
2, 111496, Note_on_c, 0, 53, 0
2, 111502, Note_on_c, 0, 62, 0
2, 111508, Note_on_c, 0, 64, 62
2, 111552, Note_on_c, 0, 69, 0
2, 111575, Note_on_c, 0, 59, 0
2, 111648, Note_on_c, 0, 64, 0
2, 111650, Note_on_c, 0, 65, 76
2, 111801, Note_on_c, 0, 68, 82
2, 111807, Note_on_c, 0, 52, 58
2, 111817, Note_on_c, 0, 64, 58
2, 111826, Note_on_c, 0, 59, 46
2, 111828, Note_on_c, 0, 47, 0
2, 111830, Note_on_c, 0, 65, 0
2, 112082, Note_on_c, 0, 59, 0
2, 112099, Control_c, 0, 64, 51
2, 112100, Note_on_c, 0, 59, 33
2, 112111, Note_on_c, 0, 50, 59
2, 112114, Control_c, 0, 64, 53
2, 112129, Control_c, 0, 64, 54
2, 112141, Note_on_c, 0, 52, 0
2, 112145, Control_c, 0, 64, 56
2, 112160, Control_c, 0, 64, 59
2, 112175, Control_c, 0, 64, 60
2, 112190, Control_c, 0, 64, 62
2, 112205, Control_c, 0, 64, 62
2, 112313, Control_c, 0, 64, 62
2, 112328, Control_c, 0, 64, 61
2, 112342, Control_c, 0, 64, 60
2, 112358, Control_c, 0, 64, 58
2, 112373, Control_c, 0, 64, 54
2, 112382, Note_on_c, 0, 50, 0
2, 112390, Control_c, 0, 64, 47
2, 112405, Control_c, 0, 64, 42
2, 112432, Note_on_c, 0, 49, 52
2, 112435, Control_c, 0, 64, 46
2, 112440, Note_on_c, 0, 52, 60
2, 112444, Note_on_c, 0, 69, 81
2, 112450, Control_c, 0, 64, 55
2, 112459, Note_on_c, 0, 59, 0
2, 112466, Control_c, 0, 64, 61
2, 112481, Control_c, 0, 64, 64
2, 112482, Note_on_c, 0, 64, 0
2, 112492, Note_on_c, 0, 68, 0
2, 112496, Control_c, 0, 64, 67
2, 112502, Note_on_c, 0, 69, 0
2, 112511, Control_c, 0, 64, 72
2, 112522, Note_on_c, 0, 52, 0
2, 112526, Control_c, 0, 64, 81
2, 112532, Note_on_c, 0, 49, 0
2, 112541, Control_c, 0, 64, 94
2, 112557, Control_c, 0, 64, 115
2, 112571, Control_c, 0, 64, 127
2, 112617, Control_c, 0, 64, 123
2, 112633, Control_c, 0, 64, 112
2, 112648, Control_c, 0, 64, 107
2, 112664, Control_c, 0, 64, 101
2, 112685, Control_c, 0, 64, 93
2, 112700, Control_c, 0, 64, 83
2, 112716, Control_c, 0, 64, 73
2, 112731, Control_c, 0, 64, 66
2, 112747, Control_c, 0, 64, 58
2, 112758, Note_on_c, 0, 45, 67
2, 112758, Note_on_c, 0, 81, 90
2, 112761, Control_c, 0, 64, 48
2, 112776, Control_c, 0, 64, 43
2, 112792, Control_c, 0, 64, 42
2, 112887, Note_on_c, 0, 81, 0
2, 113059, Note_on_c, 0, 81, 91
2, 113061, Note_on_c, 0, 50, 63
2, 113091, Note_on_c, 0, 45, 0
2, 113165, Note_on_c, 0, 81, 0
2, 113366, Note_on_c, 0, 81, 85
2, 113372, Note_on_c, 0, 49, 56
2, 113381, Note_on_c, 0, 78, 83
2, 113386, Control_c, 0, 64, 43
2, 113439, Note_on_c, 0, 50, 0
2, 113488, Note_on_c, 0, 78, 0
2, 113684, Note_on_c, 0, 47, 69
2, 113690, Note_on_c, 0, 78, 91
2, 113695, Note_on_c, 0, 74, 74
2, 113696, Control_c, 0, 64, 43
2, 113699, Note_on_c, 0, 49, 0
2, 113712, Control_c, 0, 64, 46
2, 113719, Note_on_c, 0, 81, 0
2, 113727, Control_c, 0, 64, 50
2, 113742, Control_c, 0, 64, 56
2, 113758, Control_c, 0, 64, 63
2, 113773, Control_c, 0, 64, 67
2, 113789, Control_c, 0, 64, 70
2, 113804, Control_c, 0, 64, 73
2, 113818, Control_c, 0, 64, 75
2, 113821, Note_on_c, 0, 47, 0
2, 113832, Note_on_c, 0, 78, 0
2, 113834, Control_c, 0, 64, 76
2, 113865, Control_c, 0, 64, 75
2, 113880, Control_c, 0, 64, 74
2, 113895, Control_c, 0, 64, 74
2, 113926, Control_c, 0, 64, 73
2, 113941, Control_c, 0, 64, 73
2, 113956, Control_c, 0, 64, 71
2, 113971, Control_c, 0, 64, 67
2, 113987, Control_c, 0, 64, 63
2, 113994, Note_on_c, 0, 62, 73
2, 113999, Note_on_c, 0, 78, 92
2, 114002, Control_c, 0, 64, 58
2, 114017, Control_c, 0, 64, 54
2, 114032, Control_c, 0, 64, 51
2, 114047, Control_c, 0, 64, 50
2, 114062, Control_c, 0, 64, 49
2, 114078, Control_c, 0, 64, 49
2, 114123, Control_c, 0, 64, 48
2, 114127, Note_on_c, 0, 78, 0
2, 114138, Control_c, 0, 64, 48
2, 114154, Control_c, 0, 64, 47
2, 114165, Note_on_c, 0, 62, 0
2, 114184, Control_c, 0, 64, 47
2, 114313, Note_on_c, 0, 78, 93
2, 114317, Note_on_c, 0, 74, 0
2, 114319, Note_on_c, 0, 62, 73
2, 114322, Note_on_c, 0, 71, 79
2, 114418, Note_on_c, 0, 62, 0
2, 114419, Control_c, 0, 64, 48
2, 114435, Control_c, 0, 64, 49
2, 114449, Control_c, 0, 64, 50
2, 114465, Control_c, 0, 64, 50
2, 114468, Note_on_c, 0, 59, 24
2, 114480, Control_c, 0, 64, 51
2, 114510, Note_on_c, 0, 59, 0
2, 114617, Control_c, 0, 64, 51
2, 114617, Note_on_c, 0, 59, 54
2, 114619, Note_on_c, 0, 62, 71
2, 114647, Control_c, 0, 64, 52
2, 114662, Control_c, 0, 64, 53
2, 114678, Control_c, 0, 64, 56
2, 114693, Control_c, 0, 64, 60
2, 114696, Note_on_c, 0, 59, 0
2, 114709, Control_c, 0, 64, 62
2, 114724, Control_c, 0, 64, 63
2, 114736, Note_on_c, 0, 62, 0
2, 114739, Control_c, 0, 64, 64
2, 114755, Control_c, 0, 64, 65
2, 114770, Control_c, 0, 64, 67
2, 114786, Control_c, 0, 64, 68
2, 114815, Control_c, 0, 64, 67
2, 114831, Control_c, 0, 64, 66
2, 114846, Control_c, 0, 64, 65
2, 114861, Control_c, 0, 64, 64
2, 114876, Control_c, 0, 64, 62
2, 114891, Control_c, 0, 64, 60
2, 114907, Control_c, 0, 64, 58
2, 114913, Note_on_c, 0, 59, 66
2, 114920, Note_on_c, 0, 56, 63
2, 114920, Note_on_c, 0, 71, 0
2, 114922, Control_c, 0, 64, 56
2, 114926, Note_on_c, 0, 74, 74
2, 114937, Control_c, 0, 64, 55
2, 114952, Control_c, 0, 64, 54
2, 114967, Control_c, 0, 64, 54
2, 114990, Control_c, 0, 64, 53
2, 115005, Control_c, 0, 64, 53
2, 115020, Control_c, 0, 64, 52
2, 115032, Note_on_c, 0, 59, 0
2, 115036, Control_c, 0, 64, 52
2, 115051, Control_c, 0, 64, 51
2, 115067, Control_c, 0, 64, 51
2, 115082, Control_c, 0, 64, 50
2, 115112, Control_c, 0, 64, 50
2, 115217, Control_c, 0, 64, 50
2, 115239, Note_on_c, 0, 59, 67
2, 115243, Note_on_c, 0, 71, 77
2, 115264, Control_c, 0, 64, 51
2, 115282, Note_on_c, 0, 78, 0
2, 115319, Note_on_c, 0, 59, 0
2, 115553, Note_on_c, 0, 52, 51
2, 115559, Note_on_c, 0, 56, 0
2, 115562, Note_on_c, 0, 76, 81
2, 115566, Note_on_c, 0, 59, 60
2, 115572, Note_on_c, 0, 74, 0
2, 115681, Note_on_c, 0, 71, 0
2, 115858, Note_on_c, 0, 76, 0
2, 115865, Note_on_c, 0, 74, 66
2, 115871, Note_on_c, 0, 68, 72
2, 116165, Note_on_c, 0, 52, 0
2, 116186, Note_on_c, 0, 74, 0
2, 116189, Note_on_c, 0, 73, 72
2, 116195, Note_on_c, 0, 55, 49
2, 116218, Note_on_c, 0, 68, 0
2, 116496, Note_on_c, 0, 59, 0
2, 116500, Note_on_c, 0, 71, 69
2, 116507, Note_on_c, 0, 52, 51
2, 116831, Note_on_c, 0, 52, 0
2, 116833, Note_on_c, 0, 71, 0
2, 116838, Note_on_c, 0, 69, 70
2, 116846, Note_on_c, 0, 57, 58
2, 116876, Control_c, 0, 64, 53
2, 116891, Control_c, 0, 64, 56
2, 116901, Note_on_c, 0, 55, 0
2, 116906, Control_c, 0, 64, 60
2, 116921, Control_c, 0, 64, 62
2, 116936, Control_c, 0, 64, 63
2, 116952, Control_c, 0, 64, 65
2, 116967, Control_c, 0, 64, 66
2, 116981, Control_c, 0, 64, 68
2, 116997, Control_c, 0, 64, 69
2, 117012, Control_c, 0, 64, 70
2, 117042, Control_c, 0, 64, 69
2, 117073, Control_c, 0, 64, 68
2, 117088, Control_c, 0, 64, 68
2, 117104, Control_c, 0, 64, 67
2, 117109, Note_on_c, 0, 57, 0
2, 117118, Control_c, 0, 64, 67
2, 117134, Control_c, 0, 64, 66
2, 117145, Note_on_c, 0, 55, 50
2, 117150, Control_c, 0, 64, 65
2, 117151, Note_on_c, 0, 49, 43
2, 117165, Control_c, 0, 64, 64
2, 117180, Control_c, 0, 64, 63
2, 117189, Note_on_c, 0, 73, 0
2, 117210, Control_c, 0, 64, 63
2, 117226, Control_c, 0, 64, 62
2, 117241, Control_c, 0, 64, 61
2, 117256, Control_c, 0, 64, 60
2, 117271, Control_c, 0, 64, 60
2, 117310, Control_c, 0, 64, 59
2, 117340, Control_c, 0, 64, 59
2, 117370, Control_c, 0, 64, 58
2, 117416, Control_c, 0, 64, 58
2, 117446, Control_c, 0, 64, 57
2, 117474, Note_on_c, 0, 49, 0
2, 117477, Note_on_c, 0, 72, 73
2, 117483, Note_on_c, 0, 54, 56
2, 117488, Note_on_c, 0, 55, 0
2, 117537, Control_c, 0, 64, 57
2, 117567, Control_c, 0, 64, 56
2, 117765, Control_c, 0, 64, 56
2, 117795, Note_on_c, 0, 69, 0
2, 117800, Note_on_c, 0, 52, 54
2, 117803, Note_on_c, 0, 67, 62
2, 118086, Note_on_c, 0, 52, 0
2, 118102, Note_on_c, 0, 67, 0
2, 118119, Note_on_c, 0, 66, 54
2, 118126, Note_on_c, 0, 50, 44
2, 118424, Note_on_c, 0, 57, 49
2, 118429, Note_on_c, 0, 66, 0
2, 118435, Note_on_c, 0, 64, 63
2, 118453, Note_on_c, 0, 54, 0
2, 118720, Note_on_c, 0, 57, 0
2, 118730, Note_on_c, 0, 64, 0
2, 118740, Note_on_c, 0, 66, 61
2, 118745, Note_on_c, 0, 62, 42
2, 118969, Note_on_c, 0, 72, 0
2, 119046, Note_on_c, 0, 62, 0
2, 119060, Note_on_c, 0, 60, 50
2, 119069, Note_on_c, 0, 69, 66
2, 119362, Note_on_c, 0, 60, 0
2, 119378, Note_on_c, 0, 74, 73
2, 119384, Note_on_c, 0, 69, 0
2, 119387, Note_on_c, 0, 59, 42
2, 119390, Note_on_c, 0, 50, 0
2, 119659, Control_c, 0, 64, 55
2, 119676, Note_on_c, 0, 59, 0
2, 119709, Note_on_c, 0, 57, 45
2, 119711, Note_on_c, 0, 74, 0
2, 119712, Note_on_c, 0, 50, 35
2, 119716, Note_on_c, 0, 72, 66
2, 119735, Control_c, 0, 64, 56
2, 119751, Control_c, 0, 64, 58
2, 119766, Control_c, 0, 64, 61
2, 119780, Control_c, 0, 64, 63
2, 119796, Control_c, 0, 64, 64
2, 119811, Control_c, 0, 64, 65
2, 119827, Control_c, 0, 64, 66
2, 119842, Control_c, 0, 64, 67
2, 119857, Control_c, 0, 64, 69
2, 119865, Note_on_c, 0, 72, 0
2, 119872, Control_c, 0, 64, 69
2, 119887, Control_c, 0, 64, 70
2, 119949, Control_c, 0, 64, 69
2, 119963, Control_c, 0, 64, 69
2, 119978, Control_c, 0, 64, 67
2, 119994, Control_c, 0, 64, 64
2, 120008, Control_c, 0, 64, 62
2, 120008, Note_on_c, 0, 57, 0
2, 120024, Control_c, 0, 64, 61
2, 120029, Note_on_c, 0, 71, 70
2, 120036, Note_on_c, 0, 50, 0
2, 120037, Note_on_c, 0, 55, 44
2, 120039, Control_c, 0, 64, 60
2, 120054, Control_c, 0, 64, 59
2, 120084, Control_c, 0, 64, 59
2, 120099, Control_c, 0, 64, 57
2, 120115, Control_c, 0, 64, 56
2, 120129, Control_c, 0, 64, 55
2, 120145, Control_c, 0, 64, 55
2, 120175, Control_c, 0, 64, 54
2, 120206, Control_c, 0, 64, 54
2, 120221, Control_c, 0, 64, 53
2, 120237, Control_c, 0, 64, 53
2, 120267, Control_c, 0, 64, 52
2, 120313, Control_c, 0, 64, 52
2, 120331, Note_on_c, 0, 66, 0
2, 120345, Note_on_c, 0, 62, 57
2, 120350, Note_on_c, 0, 54, 32
2, 120657, Note_on_c, 0, 54, 0
2, 120672, Note_on_c, 0, 52, 40
2, 120675, Note_on_c, 0, 67, 58
2, 120692, Note_on_c, 0, 62, 0
2, 120731, Control_c, 0, 64, 51
2, 120776, Control_c, 0, 64, 51
2, 120807, Control_c, 0, 64, 50
2, 120851, Control_c, 0, 64, 50
2, 120952, Note_on_c, 0, 52, 0
2, 120966, Note_on_c, 0, 50, 45
2, 120976, Note_on_c, 0, 67, 0
2, 120984, Note_on_c, 0, 66, 56
2, 121245, Note_on_c, 0, 50, 0
2, 121279, Note_on_c, 0, 49, 38
2, 121294, Note_on_c, 0, 64, 53
2, 121313, Note_on_c, 0, 66, 0
2, 121344, Note_on_c, 0, 55, 0
2, 121474, Note_on_c, 0, 71, 0
2, 121593, Note_on_c, 0, 52, 49
2, 121602, Note_on_c, 0, 64, 0
2, 121624, Note_on_c, 0, 62, 54
2, 121923, Note_on_c, 0, 52, 0
2, 121929, Note_on_c, 0, 57, 49
2, 121940, Note_on_c, 0, 62, 0
2, 121940, Note_on_c, 0, 69, 73
2, 121949, Note_on_c, 0, 61, 56
2, 121962, Control_c, 0, 64, 51
2, 121976, Control_c, 0, 64, 54
2, 121992, Control_c, 0, 64, 56
2, 122007, Control_c, 0, 64, 59
2, 122012, Note_on_c, 0, 49, 0
2, 122022, Control_c, 0, 64, 62
2, 122037, Control_c, 0, 64, 63
2, 122052, Control_c, 0, 64, 64
2, 122069, Control_c, 0, 64, 66
2, 122084, Control_c, 0, 64, 67
2, 122088, Note_on_c, 0, 57, 0
2, 122099, Control_c, 0, 64, 68
2, 122115, Control_c, 0, 64, 71
2, 122129, Control_c, 0, 64, 73
2, 122145, Control_c, 0, 64, 75
2, 122160, Control_c, 0, 64, 76
2, 122191, Control_c, 0, 64, 75
2, 122205, Control_c, 0, 64, 74
2, 122220, Control_c, 0, 64, 73
2, 122236, Control_c, 0, 64, 72
2, 122250, Note_on_c, 0, 45, 45
2, 122251, Control_c, 0, 64, 69
2, 122255, Note_on_c, 0, 55, 45
2, 122267, Control_c, 0, 64, 65
2, 122282, Control_c, 0, 64, 62
2, 122297, Control_c, 0, 64, 60
2, 122313, Control_c, 0, 64, 58
2, 122328, Control_c, 0, 64, 56
2, 122342, Control_c, 0, 64, 54
2, 122358, Control_c, 0, 64, 51
2, 122372, Control_c, 0, 64, 49
2, 122388, Control_c, 0, 64, 48
2, 122553, Note_on_c, 0, 55, 0
2, 122563, Note_on_c, 0, 61, 0
2, 122576, Note_on_c, 0, 50, 46
2, 122585, Note_on_c, 0, 45, 0
2, 122585, Note_on_c, 0, 54, 35
2, 122912, Note_on_c, 0, 48, 42
2, 122912, Note_on_c, 0, 57, 56
2, 122933, Note_on_c, 0, 50, 0
2, 123065, Control_c, 0, 64, 48
2, 123201, Control_c, 0, 64, 49
2, 123214, Control_c, 0, 64, 53
2, 123216, Note_on_c, 0, 57, 0
2, 123218, Note_on_c, 0, 47, 41
2, 123221, Note_on_c, 0, 62, 54
2, 123228, Control_c, 0, 64, 57
2, 123244, Control_c, 0, 64, 61
2, 123259, Control_c, 0, 64, 63
2, 123272, Note_on_c, 0, 48, 0
2, 123275, Control_c, 0, 64, 65
2, 123290, Control_c, 0, 64, 67
2, 123304, Control_c, 0, 64, 70
2, 123320, Control_c, 0, 64, 72
2, 123333, Note_on_c, 0, 47, 0
2, 123335, Control_c, 0, 64, 76
2, 123351, Control_c, 0, 64, 80
2, 123366, Control_c, 0, 64, 86
2, 123380, Control_c, 0, 64, 92
2, 123396, Control_c, 0, 64, 96
2, 123411, Control_c, 0, 64, 97
2, 123449, Control_c, 0, 64, 96
2, 123464, Control_c, 0, 64, 93
2, 123480, Control_c, 0, 64, 87
2, 123495, Control_c, 0, 64, 79
2, 123509, Control_c, 0, 64, 68
2, 123525, Control_c, 0, 64, 61
2, 123525, Note_on_c, 0, 62, 0
2, 123530, Note_on_c, 0, 45, 43
2, 123531, Note_on_c, 0, 60, 62
2, 123540, Control_c, 0, 64, 52
2, 123556, Control_c, 0, 64, 49
2, 123571, Control_c, 0, 64, 49
2, 123586, Control_c, 0, 64, 53
2, 123601, Control_c, 0, 64, 60
2, 123616, Control_c, 0, 64, 64
2, 123631, Control_c, 0, 64, 66
2, 123646, Control_c, 0, 64, 69
2, 123661, Control_c, 0, 64, 73
2, 123677, Control_c, 0, 64, 79
2, 123677, Note_on_c, 0, 45, 0
2, 123693, Control_c, 0, 64, 90
2, 123708, Control_c, 0, 64, 108
2, 123724, Control_c, 0, 64, 127
2, 123768, Note_on_c, 0, 54, 0
2, 123854, Note_on_c, 0, 43, 48
2, 123854, Note_on_c, 0, 60, 0
2, 123856, Note_on_c, 0, 59, 68
2, 123876, Control_c, 0, 64, 101
2, 123891, Control_c, 0, 64, 90
2, 123906, Control_c, 0, 64, 84
2, 123922, Control_c, 0, 64, 80
2, 123937, Control_c, 0, 64, 75
2, 123952, Control_c, 0, 64, 70
2, 123967, Control_c, 0, 64, 65
2, 123982, Control_c, 0, 64, 59
2, 123998, Control_c, 0, 64, 54
2, 124013, Control_c, 0, 64, 54
2, 124149, Control_c, 0, 64, 54
2, 124153, Note_on_c, 0, 69, 0
2, 124165, Control_c, 0, 64, 56
2, 124178, Control_c, 0, 64, 58
2, 124179, Note_on_c, 0, 47, 53
2, 124201, Control_c, 0, 64, 60
2, 124216, Control_c, 0, 64, 61
2, 124231, Control_c, 0, 64, 63
2, 124246, Control_c, 0, 64, 63
2, 124261, Control_c, 0, 64, 64
2, 124276, Control_c, 0, 64, 65
2, 124292, Control_c, 0, 64, 65
2, 124368, Control_c, 0, 64, 65
2, 124383, Control_c, 0, 64, 64
2, 124399, Control_c, 0, 64, 63
2, 124414, Control_c, 0, 64, 61
2, 124428, Control_c, 0, 64, 60
2, 124444, Control_c, 0, 64, 59
2, 124459, Control_c, 0, 64, 57
2, 124473, Control_c, 0, 64, 56
2, 124489, Control_c, 0, 64, 54
2, 124505, Control_c, 0, 64, 51
2, 124509, Note_on_c, 0, 47, 0
2, 124516, Note_on_c, 0, 52, 43
2, 124521, Control_c, 0, 64, 49
2, 124522, Note_on_c, 0, 67, 79
2, 124536, Control_c, 0, 64, 47
2, 124551, Control_c, 0, 64, 46
2, 124568, Note_on_c, 0, 59, 0
2, 124596, Control_c, 0, 64, 46
2, 124612, Control_c, 0, 64, 52
2, 124627, Control_c, 0, 64, 57
2, 124643, Control_c, 0, 64, 61
2, 124657, Control_c, 0, 64, 63
2, 124672, Control_c, 0, 64, 65
2, 124688, Control_c, 0, 64, 67
2, 124703, Control_c, 0, 64, 68
2, 124718, Control_c, 0, 64, 70
2, 124779, Control_c, 0, 64, 69
2, 124793, Control_c, 0, 64, 69
2, 124809, Control_c, 0, 64, 67
2, 124812, Note_on_c, 0, 52, 0
2, 124824, Control_c, 0, 64, 63
2, 124829, Note_on_c, 0, 50, 41
2, 124840, Control_c, 0, 64, 57
2, 124844, Note_on_c, 0, 59, 57
2, 124855, Control_c, 0, 64, 51
2, 124870, Control_c, 0, 64, 50
2, 124915, Control_c, 0, 64, 53
2, 124931, Control_c, 0, 64, 58
2, 124940, Note_on_c, 0, 43, 0
2, 124946, Control_c, 0, 64, 60
2, 124969, Control_c, 0, 64, 62
2, 124984, Control_c, 0, 64, 63
2, 124999, Control_c, 0, 64, 64
2, 125014, Control_c, 0, 64, 66
2, 125029, Control_c, 0, 64, 68
2, 125045, Control_c, 0, 64, 69
2, 125060, Control_c, 0, 64, 70
2, 125074, Control_c, 0, 64, 71
2, 125090, Control_c, 0, 64, 72
2, 125105, Control_c, 0, 64, 73
2, 125136, Control_c, 0, 64, 73
2, 125141, Note_on_c, 0, 45, 40
2, 125143, Note_on_c, 0, 49, 39
2, 125151, Control_c, 0, 64, 72
2, 125155, Note_on_c, 0, 64, 54
2, 125167, Control_c, 0, 64, 72
2, 125169, Note_on_c, 0, 50, 0
2, 125182, Control_c, 0, 64, 71
2, 125196, Control_c, 0, 64, 71
2, 125201, Note_on_c, 0, 59, 0
2, 125212, Control_c, 0, 64, 69
2, 125227, Control_c, 0, 64, 66
2, 125243, Control_c, 0, 64, 66
2, 125287, Note_on_c, 0, 64, 0
2, 125320, Control_c, 0, 64, 65
2, 125335, Control_c, 0, 64, 65
2, 125365, Control_c, 0, 64, 64
2, 125380, Control_c, 0, 64, 63
2, 125395, Control_c, 0, 64, 63
2, 125411, Control_c, 0, 64, 62
2, 125425, Control_c, 0, 64, 62
2, 125432, Note_on_c, 0, 67, 0
2, 125441, Control_c, 0, 64, 61
2, 125463, Note_on_c, 0, 64, 76
2, 125471, Control_c, 0, 64, 61
2, 125472, Note_on_c, 0, 49, 0
2, 125474, Note_on_c, 0, 62, 60
2, 125479, Note_on_c, 0, 50, 47
2, 125501, Control_c, 0, 64, 60
2, 125516, Control_c, 0, 64, 60
2, 125592, Control_c, 0, 64, 59
2, 125782, Control_c, 0, 64, 59
2, 125793, Note_on_c, 0, 64, 0
2, 125793, Note_on_c, 0, 69, 80
2, 125799, Note_on_c, 0, 62, 0
2, 125808, Note_on_c, 0, 50, 0
2, 125813, Control_c, 0, 64, 58
2, 125814, Note_on_c, 0, 52, 45
2, 125815, Note_on_c, 0, 61, 51
2, 125843, Control_c, 0, 64, 58
2, 125858, Control_c, 0, 64, 57
2, 125873, Control_c, 0, 64, 57
2, 125888, Control_c, 0, 64, 56
2, 125919, Control_c, 0, 64, 56
2, 125949, Control_c, 0, 64, 55
2, 125965, Control_c, 0, 64, 54
2, 125980, Control_c, 0, 64, 54
2, 125995, Control_c, 0, 64, 53
2, 126010, Control_c, 0, 64, 53
2, 126025, Control_c, 0, 64, 52
2, 126041, Control_c, 0, 64, 51
2, 126093, Note_on_c, 0, 69, 0
2, 126128, Note_on_c, 0, 67, 70
2, 126130, Note_on_c, 0, 64, 60
2, 126132, Control_c, 0, 64, 53
2, 126132, Note_on_c, 0, 61, 0
2, 126148, Control_c, 0, 64, 57
2, 126164, Control_c, 0, 64, 60
2, 126178, Control_c, 0, 64, 62
2, 126193, Control_c, 0, 64, 64
2, 126208, Control_c, 0, 64, 65
2, 126223, Control_c, 0, 64, 66
2, 126239, Control_c, 0, 64, 67
2, 126254, Control_c, 0, 64, 69
2, 126268, Control_c, 0, 64, 71
2, 126284, Control_c, 0, 64, 72
2, 126285, Note_on_c, 0, 67, 0
2, 126299, Control_c, 0, 64, 73
2, 126360, Control_c, 0, 64, 72
2, 126375, Control_c, 0, 64, 71
2, 126389, Control_c, 0, 64, 70
2, 126405, Control_c, 0, 64, 69
2, 126420, Control_c, 0, 64, 68
2, 126435, Control_c, 0, 64, 67
2, 126451, Control_c, 0, 64, 66
2, 126466, Control_c, 0, 64, 65
2, 126476, Note_on_c, 0, 66, 77
2, 126482, Control_c, 0, 64, 63
2, 126504, Control_c, 0, 64, 62
2, 126520, Control_c, 0, 64, 61
2, 126534, Control_c, 0, 64, 60
2, 126549, Control_c, 0, 64, 59
2, 126565, Control_c, 0, 64, 59
2, 126580, Control_c, 0, 64, 58
2, 126595, Control_c, 0, 64, 57
2, 126604, Note_on_c, 0, 52, 0
2, 126610, Control_c, 0, 64, 57
2, 126625, Control_c, 0, 64, 56
2, 126641, Control_c, 0, 64, 56
2, 126656, Control_c, 0, 64, 55
2, 126686, Control_c, 0, 64, 55
2, 126820, Note_on_c, 0, 62, 54
2, 126833, Note_on_c, 0, 50, 39
2, 126835, Note_on_c, 0, 64, 0
2, 126884, Note_on_c, 0, 45, 0
2, 127187, Note_on_c, 0, 50, 0
2, 127196, Note_on_c, 0, 57, 46
2, 127201, Note_on_c, 0, 64, 72
2, 127233, Note_on_c, 0, 66, 0
2, 127424, Control_c, 0, 64, 54
2, 127561, Control_c, 0, 64, 54
2, 127591, Control_c, 0, 64, 53
2, 127601, Note_on_c, 0, 57, 0
2, 127622, Note_on_c, 0, 55, 42
2, 127634, Control_c, 0, 64, 53
2, 127637, Note_on_c, 0, 61, 50
2, 127641, Note_on_c, 0, 62, 0
2, 127650, Control_c, 0, 64, 52
2, 127663, Control_c, 0, 64, 51
2, 127678, Control_c, 0, 64, 49
2, 127694, Control_c, 0, 64, 47
2, 127709, Control_c, 0, 64, 44
2, 127723, Control_c, 0, 64, 41
2, 127740, Control_c, 0, 64, 38
2, 127755, Control_c, 0, 64, 35
2, 127769, Control_c, 0, 64, 35
2, 127786, Control_c, 0, 64, 35
2, 127786, Control_c, 0, 67, 17
2, 127800, Control_c, 0, 64, 43
2, 127800, Control_c, 0, 67, 92
2, 127816, Control_c, 0, 64, 51
2, 127816, Control_c, 0, 67, 127
2, 127831, Control_c, 0, 64, 59
2, 127846, Control_c, 0, 64, 64
2, 127858, Note_on_c, 0, 64, 0
2, 127862, Control_c, 0, 64, 69
2, 127877, Control_c, 0, 64, 77
2, 127893, Control_c, 0, 64, 98
2, 127896, Note_on_c, 0, 55, 0
2, 127905, Note_on_c, 0, 61, 0
2, 127908, Control_c, 0, 64, 127
2, 128276, Note_on_c, 0, 62, 71
2, 128289, Note_on_c, 0, 38, 43
2, 128292, Note_on_c, 0, 57, 55
2, 128293, Note_on_c, 0, 54, 57
2, 128295, Control_c, 0, 64, 99
2, 128299, Note_on_c, 0, 50, 45
2, 128310, Control_c, 0, 64, 83
2, 128325, Control_c, 0, 64, 71
2, 128341, Control_c, 0, 64, 61
2, 128356, Control_c, 0, 64, 41
2, 128370, Control_c, 0, 64, 16
2, 128386, Control_c, 0, 64, 15
2, 128566, Control_c, 0, 64, 17
2, 128581, Control_c, 0, 64, 22
2, 128597, Control_c, 0, 64, 29
2, 128612, Control_c, 0, 64, 39
2, 128628, Control_c, 0, 64, 48
2, 128642, Control_c, 0, 64, 52
2, 128657, Control_c, 0, 64, 55
2, 128673, Control_c, 0, 64, 57
2, 128688, Control_c, 0, 64, 59
2, 128704, Control_c, 0, 64, 61
2, 128719, Control_c, 0, 64, 63
2, 128733, Control_c, 0, 64, 64
2, 128749, Control_c, 0, 64, 65
2, 128780, Control_c, 0, 64, 66
2, 128802, Control_c, 0, 64, 67
2, 128817, Control_c, 0, 64, 68
2, 128833, Control_c, 0, 64, 70
2, 128848, Control_c, 0, 64, 73
2, 128863, Control_c, 0, 64, 75
2, 128878, Control_c, 0, 64, 77
2, 128893, Control_c, 0, 64, 78
2, 128909, Control_c, 0, 64, 78
2, 128939, Control_c, 0, 64, 79
2, 128954, Control_c, 0, 64, 79
2, 128969, Control_c, 0, 64, 80
2, 128985, Control_c, 0, 64, 80
2, 130718, Control_c, 0, 64, 81
2, 131392, Control_c, 0, 64, 80
2, 131407, Control_c, 0, 64, 80
2, 131453, Control_c, 0, 64, 79
2, 131468, Control_c, 0, 64, 79
2, 131483, Control_c, 0, 64, 78
2, 131529, Control_c, 0, 64, 78
2, 131544, Control_c, 0, 64, 77
2, 131560, Control_c, 0, 64, 75
2, 131575, Control_c, 0, 64, 73
2, 131590, Control_c, 0, 64, 71
2, 131590, Control_c, 0, 67, 127
2, 131605, Control_c, 0, 64, 70
2, 131605, Control_c, 0, 67, 116
2, 131620, Control_c, 0, 64, 68
2, 131620, Control_c, 0, 67, 108
2, 131636, Control_c, 0, 64, 67
2, 131636, Control_c, 0, 67, 100
2, 131651, Control_c, 0, 64, 64
2, 131651, Control_c, 0, 67, 92
2, 131666, Control_c, 0, 64, 62
2, 131666, Control_c, 0, 67, 83
2, 131681, Control_c, 0, 64, 58
2, 131681, Control_c, 0, 67, 77
2, 131696, Control_c, 0, 64, 56
2, 131696, Control_c, 0, 67, 70
2, 131711, Control_c, 0, 64, 56
2, 131711, Control_c, 0, 67, 63
2, 131726, Control_c, 0, 64, 55
2, 131726, Control_c, 0, 67, 53
2, 131741, Control_c, 0, 64, 54
2, 131741, Control_c, 0, 67, 44
2, 131757, Control_c, 0, 64, 52
2, 131757, Control_c, 0, 67, 35
2, 131772, Control_c, 0, 64, 50
2, 131772, Control_c, 0, 67, 26
2, 131787, Control_c, 0, 64, 47
2, 131787, Control_c, 0, 67, 17
2, 131802, Control_c, 0, 64, 45
2, 131802, Control_c, 0, 67, 0
2, 131817, Control_c, 0, 64, 42
2, 131833, Control_c, 0, 64, 40
2, 131848, Control_c, 0, 64, 36
2, 131872, Control_c, 0, 64, 31
2, 131887, Control_c, 0, 64, 28
2, 131902, Control_c, 0, 64, 24
2, 131918, Control_c, 0, 64, 21
2, 131922, Note_on_c, 0, 57, 0
2, 131924, Note_on_c, 0, 50, 0
2, 131924, Note_on_c, 0, 54, 0
2, 131932, Control_c, 0, 64, 17
2, 131944, Note_on_c, 0, 62, 0
2, 131948, Control_c, 0, 64, 12
2, 131963, Control_c, 0, 64, 0
2, 131966, Note_on_c, 0, 38, 0
2, 131967, End_track
0, 0, End_of_file
