0, 0, Header, 1, 2, 384
1, 0, Start_track
1, 0, Tempo, 500000
1, 0, Time_signature, 4, 2, 24, 8
1, 1, End_track
2,0,Start_track
2,0, Note_on_c, 0, 52, 38
2,15, Note_on_c, 0, 59, 0
2,251, Control_c, 0, 64, 40
2,320, Note_on_c, 0, 52, 0
2,330, Note_on_c, 0, 57, 50
2,664, Note_on_c, 0, 57, 0
2,665, Note_on_c, 0, 55, 51
2,984, Note_on_c, 0, 55, 0
2,1000, Note_on_c, 0, 54, 40
2,1310, Note_on_c, 0, 69, 59
2,1339, Control_c, 0, 67, 94
2,1355, Control_c, 0, 67, 77
2,1370, Control_c, 0, 67, 52
2,1385, Control_c, 0, 67, 24
2,1401, Control_c, 0, 67, 0
2,1492, Note_on_c, 0, 69, 0
2,1623, Note_on_c, 0, 54, 0
2,1631, Note_on_c, 0, 50, 42
2,1635, Note_on_c, 0, 69, 65
2,1801, Note_on_c, 0, 69, 0
2,1953, Note_on_c, 0, 69, 64
2,2114, Note_on_c, 0, 69, 0
2,2310, Note_on_c, 0, 62, 60
2,2620, Note_on_c, 0, 54, 49
2,2679, Note_on_c, 0, 50, 0
2,2944, Note_on_c, 0, 54, 0
2,2949, Note_on_c, 0, 59, 44
2,2959, Note_on_c, 0, 62, 0
2,2961, Note_on_c, 0, 66, 63
2,3281, Note_on_c, 0, 57, 49
2,3286, Note_on_c, 0, 59, 0
2,3610, Note_on_c, 0, 57, 0
2,3615, Note_on_c, 0, 56, 46
2,3942, Note_on_c, 0, 59, 52
2,3960, Note_on_c, 0, 66, 0
2,4275, Note_on_c, 0, 59, 0
2,4278, Note_on_c, 0, 64, 57
2,4608, Note_on_c, 0, 64, 0
2,4614, Note_on_c, 0, 62, 52
2,4901, Note_on_c, 0, 62, 0
2,4921, Note_on_c, 0, 61, 45
2,4935, Note_on_c, 0, 57, 28
2,4972, Note_on_c, 0, 56, 0
2,5242, Note_on_c, 0, 64, 61
2,5278, Note_on_c, 0, 61, 0
2,5580, Note_on_c, 0, 61, 44
2,5602, Note_on_c, 0, 57, 0
2,5605, Note_on_c, 0, 69, 56
2,5608, Note_on_c, 0, 64, 0
2,5920, Note_on_c, 0, 69, 0
2,5921, Note_on_c, 0, 67, 57
2,6158, Note_on_c, 0, 61, 0
2,6241, Note_on_c, 0, 67, 0
2,6255, Note_on_c, 0, 66, 51
2,6575, Note_on_c, 0, 57, 63
2,6890, Note_on_c, 0, 57, 0
2,6908, Note_on_c, 0, 62, 53
2,6912, Note_on_c, 0, 69, 62
2,6932, Note_on_c, 0, 66, 0
2,7203, Note_on_c, 0, 62, 0
2,7221, Note_on_c, 0, 61, 47
2,7551, Note_on_c, 0, 59, 51
2,7575, Note_on_c, 0, 61, 0
2,7885, Note_on_c, 0, 74, 57
2,7890, Note_on_c, 0, 69, 0
2,7914, Note_on_c, 0, 62, 24
2,8043, Note_on_c, 0, 74, 0
2,8202, Note_on_c, 0, 62, 0
2,8219, Note_on_c, 0, 74, 78
2,8233, Note_on_c, 0, 67, 53
2,8369, Note_on_c, 0, 74, 0
2,8456, Note_on_c, 0, 67, 0
2,8535, Note_on_c, 0, 74, 70
2,8538, Note_on_c, 0, 66, 52
2,8643, Note_on_c, 0, 74, 0
2,8849, Note_on_c, 0, 66, 0
2,8856, Note_on_c, 0, 67, 64
2,8868, Note_on_c, 0, 64, 49
2,8949, Note_on_c, 0, 59, 0
2,9122, Note_on_c, 0, 64, 0
2,9189, Note_on_c, 0, 59, 48
2,9190, Note_on_c, 0, 66, 53
2,9410, Note_on_c, 0, 67, 0
2,9498, Note_on_c, 0, 59, 0
2,9508, Note_on_c, 0, 66, 0
2,9509, Note_on_c, 0, 71, 69
2,9519, Note_on_c, 0, 64, 45
2,9521, Note_on_c, 0, 67, 59
2,9805, Note_on_c, 0, 64, 0
2,9838, Note_on_c, 0, 62, 47
2,10159, Note_on_c, 0, 62, 0
2,10162, Note_on_c, 0, 61, 47
2,10477, Note_on_c, 0, 57, 53
2,10489, Note_on_c, 0, 64, 48
2,10490, Note_on_c, 0, 67, 0
2,10492, Note_on_c, 0, 71, 0
2,10645, Note_on_c, 0, 57, 0
2,10798, Note_on_c, 0, 69, 68
2,10804, Note_on_c, 0, 57, 63
2,10809, Note_on_c, 0, 66, 52
2,10811, Note_on_c, 0, 64, 0
2,10952, Note_on_c, 0, 57, 0
2,11079, Note_on_c, 0, 66, 0
2,11113, Note_on_c, 0, 69, 0
2,11125, Note_on_c, 0, 67, 62
2,11127, Note_on_c, 0, 64, 59
2,11129, Note_on_c, 0, 57, 63
2,11162, Note_on_c, 0, 61, 0
2,11267, Note_on_c, 0, 57, 0
2,11440, Note_on_c, 0, 64, 0
2,11445, Note_on_c, 0, 50, 53
2,11459, Note_on_c, 0, 62, 50
2,11459, Note_on_c, 0, 66, 63
2,11504, Note_on_c, 0, 67, 0
2,11770, Note_on_c, 0, 57, 50
2,11826, Note_on_c, 0, 62, 0
2,12093, Note_on_c, 0, 54, 62
2,12093, Note_on_c, 0, 57, 0
2,12102, Note_on_c, 0, 50, 0
2,12104, Note_on_c, 0, 62, 44
2,12397, Note_on_c, 0, 62, 0
2,12428, Note_on_c, 0, 61, 40
2,12713, Note_on_c, 0, 61, 0
2,12743, Note_on_c, 0, 54, 0
2,12748, Note_on_c, 0, 68, 67
2,12749, Note_on_c, 0, 59, 51
2,12770, Note_on_c, 0, 66, 0
2,13007, Note_on_c, 0, 59, 0
2,13045, Note_on_c, 0, 47, 39
2,13390, Note_on_c, 0, 52, 50
2,13394, Note_on_c, 0, 47, 0
2,13671, Note_on_c, 0, 52, 0
2,13701, Note_on_c, 0, 50, 31
2,13707, Note_on_c, 0, 59, 46
2,13782, Note_on_c, 0, 68, 0
2,14026, Note_on_c, 0, 49, 30
2,14028, Note_on_c, 0, 69, 57
2,14040, Note_on_c, 0, 64, 44
2,14044, Note_on_c, 0, 50, 0
2,14047, Note_on_c, 0, 59, 0
2,14335, Note_on_c, 0, 49, 0
2,14355, Note_on_c, 0, 47, 36
2,14355, Note_on_c, 0, 52, 44
2,14361, Note_on_c, 0, 64, 0
2,14366, Note_on_c, 0, 62, 44
2,14654, Note_on_c, 0, 47, 0
2,14684, Note_on_c, 0, 45, 43
2,14686, Note_on_c, 0, 52, 0
2,14696, Note_on_c, 0, 62, 0
2,14706, Note_on_c, 0, 61, 48
2,14719, Note_on_c, 0, 57, 35
2,14991, Note_on_c, 0, 57, 0
2,15013, Note_on_c, 0, 64, 54
2,15014, Note_on_c, 0, 69, 0
2,15015, Note_on_c, 0, 55, 46
2,15335, Note_on_c, 0, 69, 69
2,15337, Note_on_c, 0, 54, 54
2,15348, Note_on_c, 0, 64, 0
2,15360, Note_on_c, 0, 55, 0
2,15367, Note_on_c, 0, 45, 0
2,15552, Control_c, 0, 64, 41
2,15598, Control_c, 0, 64, 42
2,15625, Note_on_c, 0, 54, 0
2,15632, Note_on_c, 0, 69, 0
2,15656, Note_on_c, 0, 45, 44
2,15663, Note_on_c, 0, 67, 70
2,15667, Note_on_c, 0, 52, 44
2,15704, Control_c, 0, 64, 44
2,15719, Control_c, 0, 64, 50
2,15733, Control_c, 0, 64, 56
2,15749, Control_c, 0, 64, 61
2,15765, Control_c, 0, 64, 65
2,15781, Control_c, 0, 64, 69
2,15791, Note_on_c, 0, 67, 0
2,15796, Control_c, 0, 64, 77
2,15810, Control_c, 0, 64, 89
2,15826, Control_c, 0, 64, 110
2,15841, Control_c, 0, 64, 127
2,15931, Control_c, 0, 64, 121
2,15937, Note_on_c, 0, 52, 0
2,15947, Control_c, 0, 64, 104
2,15963, Control_c, 0, 64, 90
2,15969, Note_on_c, 0, 50, 52
2,15971, Note_on_c, 0, 66, 79
2,15978, Control_c, 0, 64, 79
2,15994, Control_c, 0, 64, 71
2,16009, Control_c, 0, 64, 64
2,16011, Note_on_c, 0, 45, 0
2,16025, Control_c, 0, 64, 55
2,16039, Control_c, 0, 64, 45
2,16054, Control_c, 0, 64, 45
2,16275, Note_on_c, 0, 61, 0
2,16286, Note_on_c, 0, 49, 56
2,16295, Note_on_c, 0, 57, 64
2,16623, Note_on_c, 0, 62, 69
2,16629, Note_on_c, 0, 47, 51
2,16632, Note_on_c, 0, 50, 0
2,16641, Note_on_c, 0, 49, 0
2,16730, Control_c, 0, 64, 46
2,16746, Control_c, 0, 64, 47
2,16761, Control_c, 0, 64, 49
2,16777, Control_c, 0, 64, 51
2,16793, Control_c, 0, 64, 53
2,16807, Control_c, 0, 64, 54
2,16861, Control_c, 0, 64, 54
2,16876, Note_on_c, 0, 62, 0
2,16907, Control_c, 0, 64, 53
2,16914, Note_on_c, 0, 45, 50
2,16925, Note_on_c, 0, 50, 60
2,16932, Note_on_c, 0, 61, 69
2,16941, Note_on_c, 0, 47, 0
2,16952, Control_c, 0, 64, 54
2,16955, Note_on_c, 0, 57, 0
2,16967, Control_c, 0, 64, 57
2,16983, Control_c, 0, 64, 60
2,16998, Control_c, 0, 64, 63
2,17002, Note_on_c, 0, 66, 0
2,17012, Control_c, 0, 64, 65
2,17028, Control_c, 0, 64, 67
2,17043, Control_c, 0, 64, 70
2,17058, Control_c, 0, 64, 72
2,17068, Note_on_c, 0, 45, 0
2,17074, Control_c, 0, 64, 74
2,17088, Control_c, 0, 64, 75
2,17104, Control_c, 0, 64, 75
2,17134, Control_c, 0, 64, 75
2,17149, Control_c, 0, 64, 74
2,17179, Control_c, 0, 64, 74
2,17195, Control_c, 0, 64, 72
2,17210, Control_c, 0, 64, 70
2,17225, Control_c, 0, 64, 67
2,17240, Control_c, 0, 64, 65
2,17242, Note_on_c, 0, 43, 50
2,17249, Note_on_c, 0, 64, 78
2,17255, Control_c, 0, 64, 63
2,17255, Note_on_c, 0, 50, 0
2,17258, Note_on_c, 0, 61, 0
2,17268, Note_on_c, 0, 59, 55
2,17271, Control_c, 0, 64, 62
2,17271, Note_on_c, 0, 55, 50
2,17286, Control_c, 0, 64, 62
2,17299, Control_c, 0, 64, 60
2,17315, Control_c, 0, 64, 59
2,17330, Control_c, 0, 64, 58
2,17345, Control_c, 0, 64, 57
2,17360, Control_c, 0, 64, 56
2,17375, Control_c, 0, 64, 55
2,17391, Control_c, 0, 64, 55
2,17421, Control_c, 0, 64, 54
2,17451, Control_c, 0, 64, 54
2,17512, Control_c, 0, 64, 53
2,17558, Note_on_c, 0, 54, 54
2,17558, Note_on_c, 0, 55, 0
2,17573, Note_on_c, 0, 62, 69
2,17575, Note_on_c, 0, 64, 0
2,17778, Control_c, 0, 64, 53
2,17809, Control_c, 0, 64, 52
2,17825, Control_c, 0, 64, 52
2,17840, Control_c, 0, 64, 51
2,17854, Control_c, 0, 64, 50
2,17870, Control_c, 0, 64, 47
2,17885, Control_c, 0, 64, 42
2,17885, Note_on_c, 0, 62, 0
2,17895, Note_on_c, 0, 52, 56
2,17898, Note_on_c, 0, 57, 60
2,17898, Note_on_c, 0, 61, 71
2,17901, Control_c, 0, 64, 36
2,17904, Note_on_c, 0, 54, 0
2,17916, Control_c, 0, 64, 30
2,17929, Note_on_c, 0, 59, 0
2,17931, Control_c, 0, 64, 27
2,17931, Note_on_c, 0, 43, 0
2,17946, Control_c, 0, 64, 26
2,17976, Control_c, 0, 64, 28
2,17992, Control_c, 0, 64, 36
2,18007, Control_c, 0, 64, 44
2,18023, Control_c, 0, 64, 50
2,18038, Control_c, 0, 64, 54
2,18053, Control_c, 0, 64, 58
2,18068, Control_c, 0, 64, 60
2,18083, Control_c, 0, 64, 61
2,18098, Control_c, 0, 64, 62
2,18114, Control_c, 0, 64, 62
2,18129, Control_c, 0, 64, 63
2,18144, Control_c, 0, 64, 62
2,18159, Control_c, 0, 64, 60
2,18174, Control_c, 0, 64, 53
2,18189, Control_c, 0, 64, 41
2,18204, Control_c, 0, 64, 26
2,18219, Control_c, 0, 64, 8
2,18226, Note_on_c, 0, 42, 66
2,18235, Control_c, 0, 64, 0
2,18239, Note_on_c, 0, 52, 0
2,18250, Control_c, 0, 64, 10
2,18265, Control_c, 0, 64, 33
2,18280, Control_c, 0, 64, 48
2,18295, Control_c, 0, 64, 57
2,18310, Control_c, 0, 64, 62
2,18325, Control_c, 0, 64, 65
2,18341, Control_c, 0, 64, 68
2,18356, Control_c, 0, 64, 75
2,18379, Control_c, 0, 64, 89
2,18395, Control_c, 0, 64, 127
2,18404, Note_on_c, 0, 57, 0
2,18551, Note_on_c, 0, 61, 0
2,18577, Control_c, 0, 64, 102
2,18593, Control_c, 0, 64, 84
2,18608, Control_c, 0, 64, 73
2,18618, Note_on_c, 0, 62, 66
2,18621, Note_on_c, 0, 42, 0
2,18621, Note_on_c, 0, 50, 48
2,18621, Note_on_c, 0, 56, 66
2,18622, Note_on_c, 0, 47, 43
2,18623, Control_c, 0, 64, 66
2,18638, Control_c, 0, 64, 57
2,18653, Control_c, 0, 64, 45
2,18669, Control_c, 0, 64, 31
2,18684, Control_c, 0, 64, 23
2,18698, Control_c, 0, 64, 22
2,18714, Control_c, 0, 64, 23
2,18722, Note_on_c, 0, 50, 0
2,18729, Control_c, 0, 64, 42
2,18745, Control_c, 0, 64, 56
2,18760, Control_c, 0, 64, 62
2,18774, Control_c, 0, 64, 65
2,18790, Control_c, 0, 64, 67
2,18805, Control_c, 0, 64, 71
2,18821, Control_c, 0, 64, 79
2,18833, Note_on_c, 0, 56, 0
2,18836, Control_c, 0, 64, 92
2,18851, Control_c, 0, 64, 118
2,18867, Control_c, 0, 64, 127
2,18899, Note_on_c, 0, 47, 0
2,18986, Note_on_c, 0, 45, 56
2,18988, Control_c, 0, 64, 96
2,18994, Note_on_c, 0, 54, 63
2,18998, Note_on_c, 0, 49, 46
2,19003, Control_c, 0, 64, 76
2,19018, Control_c, 0, 64, 62
2,19033, Control_c, 0, 64, 34
2,19048, Control_c, 0, 64, 0
2,19079, Control_c, 0, 64, 25
2,19094, Control_c, 0, 64, 46
2,19109, Control_c, 0, 64, 60
2,19109, Note_on_c, 0, 45, 0
2,19124, Control_c, 0, 64, 64
2,19148, Control_c, 0, 64, 66
2,19148, Note_on_c, 0, 49, 0
2,19162, Control_c, 0, 64, 68
2,19177, Control_c, 0, 64, 71
2,19193, Control_c, 0, 64, 78
2,19194, Note_on_c, 0, 54, 0
2,19208, Control_c, 0, 64, 92
2,19224, Control_c, 0, 64, 115
2,19239, Control_c, 0, 64, 127
2,19331, Control_c, 0, 64, 102
2,19339, Note_on_c, 0, 52, 63
2,19346, Control_c, 0, 64, 86
2,19347, Note_on_c, 0, 47, 46
2,19351, Note_on_c, 0, 44, 52
2,19361, Control_c, 0, 64, 74
2,19376, Control_c, 0, 64, 65
2,19392, Control_c, 0, 64, 52
2,19406, Control_c, 0, 64, 37
2,19422, Control_c, 0, 64, 31
2,19606, Control_c, 0, 64, 31
2,19670, Note_on_c, 0, 62, 0
2,19673, Note_on_c, 0, 71, 60
2,19728, Control_c, 0, 64, 32
2,19758, Control_c, 0, 64, 32
2,19774, Control_c, 0, 64, 33
2,19789, Control_c, 0, 64, 33
2,19794, Note_on_c, 0, 71, 0
2,19804, Control_c, 0, 64, 34
2,19815, Note_on_c, 0, 69, 60
2,19835, Control_c, 0, 64, 34
2,19865, Control_c, 0, 64, 35
2,19934, Control_c, 0, 64, 35
2,19966, Note_on_c, 0, 69, 0
2,19979, Control_c, 0, 64, 36
2,19999, Note_on_c, 0, 71, 57
2,20114, Note_on_c, 0, 71, 0
2,20238, Control_c, 0, 64, 36
2,20309, Note_on_c, 0, 62, 48
2,20442, Note_on_c, 0, 52, 0
2,20457, Note_on_c, 0, 62, 0
2,20521, Note_on_c, 0, 44, 0
2,20614, Note_on_c, 0, 61, 45
2,20619, Note_on_c, 0, 52, 30
2,20624, Note_on_c, 0, 47, 0
2,20778, Control_c, 0, 64, 37
2,20915, Control_c, 0, 64, 38
2,20929, Note_on_c, 0, 64, 58
2,20930, Control_c, 0, 64, 40
2,20946, Control_c, 0, 64, 43
2,20960, Control_c, 0, 64, 50
2,20976, Control_c, 0, 64, 56
2,20991, Control_c, 0, 64, 60
2,21006, Control_c, 0, 64, 63
2,21022, Control_c, 0, 64, 65
2,21036, Control_c, 0, 64, 68
2,21051, Control_c, 0, 64, 70
2,21064, Note_on_c, 0, 64, 0
2,21067, Control_c, 0, 64, 73
2,21082, Control_c, 0, 64, 76
2,21098, Control_c, 0, 64, 77
2,21113, Control_c, 0, 64, 76
2,21128, Control_c, 0, 64, 72
2,21143, Control_c, 0, 64, 69
2,21158, Control_c, 0, 64, 66
2,21174, Control_c, 0, 64, 63
2,21189, Control_c, 0, 64, 61
2,21204, Control_c, 0, 64, 59
2,21220, Control_c, 0, 64, 55
2,21235, Control_c, 0, 64, 51
2,21243, Note_on_c, 0, 43, 46
2,21249, Control_c, 0, 64, 45
2,21263, Note_on_c, 0, 64, 66
2,21265, Control_c, 0, 64, 40
2,21280, Control_c, 0, 64, 35
2,21295, Control_c, 0, 64, 31
2,21310, Control_c, 0, 64, 24
2,21325, Control_c, 0, 64, 15
2,21341, Control_c, 0, 64, 0
2,21370, Control_c, 0, 64, 16
2,21386, Control_c, 0, 64, 40
2,21401, Control_c, 0, 64, 55
2,21409, Note_on_c, 0, 64, 0
2,21417, Control_c, 0, 64, 62
2,21432, Control_c, 0, 64, 65
2,21455, Control_c, 0, 64, 68
2,21470, Control_c, 0, 64, 73
2,21485, Control_c, 0, 64, 82
2,21500, Control_c, 0, 64, 96
2,21515, Control_c, 0, 64, 108
2,21521, Note_on_c, 0, 43, 0
2,21530, Control_c, 0, 64, 111
2,21546, Control_c, 0, 64, 102
2,21561, Control_c, 0, 64, 93
2,21576, Control_c, 0, 64, 86
2,21579, Note_on_c, 0, 64, 73
2,21591, Control_c, 0, 64, 82
2,21606, Control_c, 0, 64, 79
2,21621, Control_c, 0, 64, 77
2,21636, Control_c, 0, 64, 74
2,21651, Control_c, 0, 64, 72
2,21667, Control_c, 0, 64, 72
2,21728, Control_c, 0, 64, 71
2,21767, Note_on_c, 0, 64, 0
2,21775, Control_c, 0, 64, 71
2,21790, Control_c, 0, 64, 70
2,21804, Control_c, 0, 64, 70
2,21850, Control_c, 0, 64, 69
2,21866, Control_c, 0, 64, 68
2,21871, Note_on_c, 0, 52, 0
2,21880, Control_c, 0, 64, 66
2,21896, Control_c, 0, 64, 64
2,21896, Note_on_c, 0, 42, 49
2,21902, Note_on_c, 0, 57, 61
2,21908, Note_on_c, 0, 61, 0
2,21911, Control_c, 0, 64, 63
2,21925, Control_c, 0, 64, 61
2,21941, Control_c, 0, 64, 59
2,21956, Control_c, 0, 64, 56
2,21971, Control_c, 0, 64, 53
2,21987, Control_c, 0, 64, 49
2,22001, Control_c, 0, 64, 46
2,22017, Control_c, 0, 64, 45
2,22032, Control_c, 0, 64, 44
2,22047, Control_c, 0, 64, 42
2,22063, Control_c, 0, 64, 41
2,22077, Control_c, 0, 64, 40
2,22108, Control_c, 0, 64, 40
2,22187, Note_on_c, 0, 55, 38
2,22191, Note_on_c, 0, 64, 57
2,22199, Control_c, 0, 64, 40
2,22222, Control_c, 0, 64, 44
2,22237, Control_c, 0, 64, 49
2,22252, Control_c, 0, 64, 53
2,22267, Control_c, 0, 64, 57
2,22268, Note_on_c, 0, 55, 0
2,22268, Note_on_c, 0, 55, 15
2,22282, Control_c, 0, 64, 60
2,22298, Control_c, 0, 64, 61
2,22313, Control_c, 0, 64, 63
2,22328, Control_c, 0, 64, 64
2,22343, Control_c, 0, 64, 66
2,22358, Control_c, 0, 64, 67
2,22374, Control_c, 0, 64, 68
2,22434, Control_c, 0, 64, 67
2,22435, Note_on_c, 0, 57, 0
2,22449, Control_c, 0, 64, 67
2,22465, Control_c, 0, 64, 66
2,22479, Control_c, 0, 64, 65
2,22495, Control_c, 0, 64, 65
2,22510, Control_c, 0, 64, 64
2,22510, Note_on_c, 0, 64, 0
2,22513, Note_on_c, 0, 60, 71
2,22519, Note_on_c, 0, 69, 56
2,22525, Note_on_c, 0, 55, 0
2,22526, Control_c, 0, 64, 63
2,22532, Note_on_c, 0, 54, 45
2,22542, Control_c, 0, 64, 61
2,22557, Control_c, 0, 64, 59
2,22571, Control_c, 0, 64, 57
2,22587, Control_c, 0, 64, 56
2,22602, Control_c, 0, 64, 54
2,22618, Control_c, 0, 64, 53
2,22633, Control_c, 0, 64, 51
2,22647, Control_c, 0, 64, 50
2,22663, Control_c, 0, 64, 49
2,22678, Control_c, 0, 64, 48
2,22694, Control_c, 0, 64, 48
2,22709, Control_c, 0, 64, 46
2,22724, Control_c, 0, 64, 45
2,22740, Control_c, 0, 64, 43
2,22754, Control_c, 0, 64, 42
2,22769, Control_c, 0, 64, 41
2,22785, Control_c, 0, 64, 40
2,22816, Control_c, 0, 64, 41
2,22819, Note_on_c, 0, 54, 0
2,22831, Control_c, 0, 64, 47
2,22832, Note_on_c, 0, 69, 0
2,22833, Note_on_c, 0, 52, 47
2,22843, Note_on_c, 0, 67, 59
2,22845, Control_c, 0, 64, 54
2,22861, Control_c, 0, 64, 59
2,22876, Control_c, 0, 64, 62
2,22889, Note_on_c, 0, 42, 0
2,22891, Control_c, 0, 64, 64
2,22898, Note_on_c, 0, 67, 0
2,22906, Control_c, 0, 64, 66
2,22921, Control_c, 0, 64, 67
2,22937, Control_c, 0, 64, 69
2,22952, Control_c, 0, 64, 71
2,22967, Control_c, 0, 64, 72
2,22990, Control_c, 0, 64, 73
2,23005, Control_c, 0, 64, 75
2,23021, Control_c, 0, 64, 75
2,23051, Control_c, 0, 64, 75
2,23066, Control_c, 0, 64, 74
2,23081, Control_c, 0, 64, 74
2,23097, Control_c, 0, 64, 72
2,23111, Control_c, 0, 64, 70
2,23121, Note_on_c, 0, 52, 0
2,23126, Control_c, 0, 64, 67
2,23140, Note_on_c, 0, 47, 43
2,23142, Control_c, 0, 64, 64
2,23146, Note_on_c, 0, 51, 43
2,23155, Note_on_c, 0, 66, 51
2,23157, Control_c, 0, 64, 62
2,23172, Control_c, 0, 64, 61
2,23187, Control_c, 0, 64, 60
2,23202, Control_c, 0, 64, 59
2,23218, Control_c, 0, 64, 57
2,23225, Note_on_c, 0, 60, 0
2,23233, Control_c, 0, 64, 54
2,23248, Control_c, 0, 64, 51
2,23263, Control_c, 0, 64, 50
2,23278, Control_c, 0, 64, 49
2,23356, Control_c, 0, 64, 49
2,23473, Note_on_c, 0, 54, 59
2,23690, Control_c, 0, 64, 49
2,23795, Note_on_c, 0, 59, 64
2,23828, Note_on_c, 0, 54, 0
2,24118, Note_on_c, 0, 57, 69
2,24125, Note_on_c, 0, 59, 0
2,24441, Note_on_c, 0, 57, 0
2,24448, Note_on_c, 0, 55, 63
2,24451, Note_on_c, 0, 52, 53
2,24470, Note_on_c, 0, 51, 0
2,24471, Note_on_c, 0, 47, 0
2,24471, Note_on_c, 0, 66, 0
2,24764, Note_on_c, 0, 55, 0
2,24764, Note_on_c, 0, 71, 83
2,24770, Note_on_c, 0, 50, 50
2,24778, Note_on_c, 0, 59, 60
2,24786, Note_on_c, 0, 52, 0
2,24934, Note_on_c, 0, 71, 0
2,25094, Note_on_c, 0, 71, 82
2,25097, Note_on_c, 0, 55, 60
2,25098, Note_on_c, 0, 64, 61
2,25116, Note_on_c, 0, 50, 0
2,25137, Note_on_c, 0, 59, 0
2,25241, Note_on_c, 0, 71, 0
2,25397, Note_on_c, 0, 71, 83
2,25405, Note_on_c, 0, 64, 0
2,25412, Note_on_c, 0, 62, 64
2,25507, Note_on_c, 0, 71, 0
2,25615, Note_on_c, 0, 62, 0
2,25718, Control_c, 0, 64, 49
2,25719, Note_on_c, 0, 64, 78
2,25733, Control_c, 0, 64, 47
2,25733, Note_on_c, 0, 61, 63
2,25748, Control_c, 0, 64, 46
2,25762, Control_c, 0, 64, 43
2,25777, Control_c, 0, 64, 40
2,25794, Control_c, 0, 64, 39
2,25809, Control_c, 0, 64, 39
2,25855, Control_c, 0, 64, 38
2,26017, Note_on_c, 0, 61, 0
2,26024, Note_on_c, 0, 59, 61
2,26317, Note_on_c, 0, 59, 0
2,26369, Note_on_c, 0, 67, 76
2,26371, Note_on_c, 0, 49, 42
2,26372, Note_on_c, 0, 58, 51
2,26392, Note_on_c, 0, 55, 0
2,26463, Note_on_c, 0, 64, 0
2,26678, Note_on_c, 0, 49, 0
2,26684, Note_on_c, 0, 58, 0
2,26688, Note_on_c, 0, 50, 42
2,26699, Note_on_c, 0, 59, 51
2,26984, Note_on_c, 0, 50, 0
2,27005, Note_on_c, 0, 52, 45
2,27010, Control_c, 0, 64, 39
2,27026, Control_c, 0, 64, 42
2,27030, Note_on_c, 0, 61, 42
2,27041, Control_c, 0, 64, 47
2,27055, Control_c, 0, 64, 52
2,27071, Control_c, 0, 64, 57
2,27086, Control_c, 0, 64, 59
2,27102, Control_c, 0, 64, 61
2,27117, Control_c, 0, 64, 62
2,27131, Control_c, 0, 64, 63
2,27143, Note_on_c, 0, 67, 0
2,27152, Note_on_c, 0, 59, 0
2,27152, Note_on_c, 0, 61, 0
2,27193, Control_c, 0, 64, 62
2,27207, Control_c, 0, 64, 62
2,27223, Control_c, 0, 64, 61
2,27238, Control_c, 0, 64, 61
2,27252, Control_c, 0, 64, 60
2,27268, Control_c, 0, 64, 59
2,27284, Control_c, 0, 64, 57
2,27299, Control_c, 0, 64, 55
2,27315, Control_c, 0, 64, 54
2,27316, Note_on_c, 0, 52, 0
2,27326, Note_on_c, 0, 61, 64
2,27329, Control_c, 0, 64, 53
2,27334, Note_on_c, 0, 55, 40
2,27338, Note_on_c, 0, 64, 50
2,27345, Control_c, 0, 64, 52
2,27360, Control_c, 0, 64, 52
2,27375, Control_c, 0, 64, 50
2,27391, Control_c, 0, 64, 49
2,27405, Control_c, 0, 64, 49
2,27420, Control_c, 0, 64, 48
2,27610, Note_on_c, 0, 61, 0
2,27641, Note_on_c, 0, 55, 0
2,27642, Control_c, 0, 64, 48
2,27643, Note_on_c, 0, 64, 0
2,27658, Note_on_c, 0, 66, 60
2,27667, Note_on_c, 0, 46, 34
2,27669, Note_on_c, 0, 62, 46
2,27672, Note_on_c, 0, 54, 37
2,27840, Control_c, 0, 64, 49
2,27855, Control_c, 0, 64, 50
2,27870, Control_c, 0, 64, 52
2,27885, Control_c, 0, 64, 54
2,27900, Control_c, 0, 64, 55
2,27916, Control_c, 0, 64, 55
2,27955, Note_on_c, 0, 62, 0
2,27961, Note_on_c, 0, 66, 0
2,27979, Note_on_c, 0, 61, 41
2,27982, Note_on_c, 0, 64, 57
2,27992, Control_c, 0, 64, 56
2,28007, Control_c, 0, 64, 57
2,28023, Control_c, 0, 64, 59
2,28038, Control_c, 0, 64, 60
2,28052, Control_c, 0, 64, 60
2,28068, Control_c, 0, 64, 61
2,28083, Control_c, 0, 64, 62
2,28097, Control_c, 0, 64, 63
2,28113, Control_c, 0, 64, 64
2,28127, Note_on_c, 0, 61, 0
2,28128, Control_c, 0, 64, 64
2,28145, Note_on_c, 0, 46, 0
2,28189, Control_c, 0, 64, 64
2,28219, Control_c, 0, 64, 63
2,28234, Control_c, 0, 64, 61
2,28251, Control_c, 0, 64, 57
2,28267, Control_c, 0, 64, 51
2,28280, Note_on_c, 0, 54, 0
2,28281, Control_c, 0, 64, 44
2,28282, Note_on_c, 0, 64, 0
2,28292, Note_on_c, 0, 62, 61
2,28296, Control_c, 0, 64, 40
2,28298, Note_on_c, 0, 47, 45
2,28308, Note_on_c, 0, 59, 53
2,28312, Control_c, 0, 64, 38
2,28472, Control_c, 0, 64, 38
2,28502, Control_c, 0, 64, 39
2,28547, Control_c, 0, 64, 39
2,28595, Note_on_c, 0, 59, 0
2,28623, Control_c, 0, 64, 40
2,28626, Note_on_c, 0, 66, 74
2,28644, Note_on_c, 0, 57, 57
2,28662, Note_on_c, 0, 62, 0
2,28949, Note_on_c, 0, 56, 60
2,28952, Note_on_c, 0, 57, 0
2,28952, Note_on_c, 0, 71, 84
2,28980, Note_on_c, 0, 66, 0
2,29275, Note_on_c, 0, 54, 58
2,29285, Note_on_c, 0, 56, 0
2,29290, Note_on_c, 0, 69, 77
2,29312, Note_on_c, 0, 71, 0
2,29466, Note_on_c, 0, 47, 0
2,29579, Note_on_c, 0, 69, 0
2,29599, Note_on_c, 0, 68, 80
2,29607, Note_on_c, 0, 54, 0
2,29615, Note_on_c, 0, 52, 58
2,29915, Control_c, 0, 64, 39
2,29931, Note_on_c, 0, 71, 87
2,29936, Note_on_c, 0, 50, 62
2,30051, Control_c, 0, 64, 39
2,30234, Control_c, 0, 64, 38
2,30258, Note_on_c, 0, 49, 53
2,30259, Note_on_c, 0, 76, 86
2,30265, Note_on_c, 0, 50, 0
2,30297, Note_on_c, 0, 71, 0
2,30340, Control_c, 0, 64, 38
2,30401, Control_c, 0, 64, 37
2,30552, Note_on_c, 0, 49, 0
2,30572, Note_on_c, 0, 74, 75
2,30587, Note_on_c, 0, 47, 49
2,30618, Note_on_c, 0, 76, 0
2,30648, Note_on_c, 0, 68, 0
2,30893, Note_on_c, 0, 52, 0
2,30899, Note_on_c, 0, 45, 49
2,30900, Note_on_c, 0, 47, 0
2,30905, Note_on_c, 0, 73, 69
2,30912, Note_on_c, 0, 74, 0
2,31211, Note_on_c, 0, 52, 48
2,31215, Note_on_c, 0, 69, 64
2,31344, Note_on_c, 0, 69, 0
2,31511, Control_c, 0, 64, 38
2,31539, Note_on_c, 0, 57, 54
2,31543, Control_c, 0, 64, 42
2,31545, Note_on_c, 0, 69, 72
2,31557, Control_c, 0, 64, 51
2,31572, Control_c, 0, 64, 57
2,31588, Control_c, 0, 64, 61
2,31603, Control_c, 0, 64, 63
2,31618, Control_c, 0, 64, 64
2,31632, Note_on_c, 0, 45, 0
2,31633, Control_c, 0, 64, 65
2,31648, Control_c, 0, 64, 66
2,31655, Note_on_c, 0, 69, 0
2,31662, Note_on_c, 0, 57, 0
2,31664, Control_c, 0, 64, 66
2,31679, Control_c, 0, 64, 67
2,31694, Control_c, 0, 64, 68
2,31709, Control_c, 0, 64, 69
2,31739, Control_c, 0, 64, 69
2,31755, Control_c, 0, 64, 67
2,31770, Control_c, 0, 64, 64
2,31785, Control_c, 0, 64, 59
2,31800, Control_c, 0, 64, 54
2,31815, Control_c, 0, 64, 48
2,31831, Control_c, 0, 64, 43
2,31845, Control_c, 0, 64, 42
2,31850, Note_on_c, 0, 45, 48
2,31851, Note_on_c, 0, 69, 79
2,31864, Note_on_c, 0, 55, 55
2,31876, Control_c, 0, 64, 47
2,31892, Control_c, 0, 64, 55
2,31905, Note_on_c, 0, 52, 0
2,31908, Control_c, 0, 64, 61
2,31922, Control_c, 0, 64, 64
2,31937, Control_c, 0, 64, 67
2,31949, Note_on_c, 0, 69, 0
2,31950, Note_on_c, 0, 45, 0
2,31953, Control_c, 0, 64, 70
2,31954, Note_on_c, 0, 73, 0
2,31968, Control_c, 0, 64, 73
2,31984, Control_c, 0, 64, 79
2,31998, Control_c, 0, 64, 86
2,32013, Control_c, 0, 64, 94
2,32029, Control_c, 0, 64, 97
2,32058, Control_c, 0, 64, 96
2,32074, Control_c, 0, 64, 94
2,32089, Control_c, 0, 64, 92
2,32105, Control_c, 0, 64, 89
2,32120, Control_c, 0, 64, 85
2,32135, Control_c, 0, 64, 79
2,32151, Control_c, 0, 64, 73
2,32160, Note_on_c, 0, 55, 0
2,32162, Note_on_c, 0, 47, 45
2,32165, Control_c, 0, 64, 66
2,32178, Note_on_c, 0, 54, 49
2,32180, Control_c, 0, 64, 61
2,32182, Note_on_c, 0, 62, 78
2,32203, Control_c, 0, 64, 53
2,32218, Control_c, 0, 64, 48
2,32234, Control_c, 0, 64, 46
2,32248, Control_c, 0, 64, 45
2,32264, Control_c, 0, 64, 45
2,32279, Control_c, 0, 64, 44
2,32294, Control_c, 0, 64, 43
2,32310, Control_c, 0, 64, 40
2,32325, Control_c, 0, 64, 38
2,32340, Control_c, 0, 64, 36
2,32478, Control_c, 0, 64, 40
2,32490, Note_on_c, 0, 54, 0
2,32493, Control_c, 0, 64, 45
2,32503, Note_on_c, 0, 74, 74
2,32507, Note_on_c, 0, 52, 45
2,32508, Control_c, 0, 64, 51
2,32523, Control_c, 0, 64, 56
2,32538, Control_c, 0, 64, 58
2,32554, Control_c, 0, 64, 59
2,32585, Control_c, 0, 64, 60
2,32588, Note_on_c, 0, 74, 0
2,32599, Control_c, 0, 64, 61
2,32614, Control_c, 0, 64, 62
2,32630, Control_c, 0, 64, 62
2,32645, Control_c, 0, 64, 63
2,32675, Control_c, 0, 64, 63
2,32705, Control_c, 0, 64, 64
2,32720, Control_c, 0, 64, 63
2,32751, Control_c, 0, 64, 63
2,32780, Control_c, 0, 64, 61
2,32784, Note_on_c, 0, 52, 0
2,32796, Control_c, 0, 64, 59
2,32796, Note_on_c, 0, 50, 50
2,32797, Note_on_c, 0, 74, 82
2,32808, Note_on_c, 0, 66, 66
2,32811, Control_c, 0, 64, 54
2,32811, Note_on_c, 0, 62, 0
2,32827, Control_c, 0, 64, 47
2,32841, Control_c, 0, 64, 39
2,32856, Control_c, 0, 64, 34
2,32872, Control_c, 0, 64, 33
2,32881, Note_on_c, 0, 47, 0
2,32903, Control_c, 0, 64, 38
2,32918, Control_c, 0, 64, 46
2,32933, Control_c, 0, 64, 53
2,32949, Control_c, 0, 64, 57
2,32970, Control_c, 0, 64, 60
2,32975, Note_on_c, 0, 74, 0
2,32986, Control_c, 0, 64, 61
2,33001, Control_c, 0, 64, 62
2,33015, Control_c, 0, 64, 63
2,33031, Control_c, 0, 64, 63
2,33062, Control_c, 0, 64, 62
2,33077, Control_c, 0, 64, 58
2,33092, Control_c, 0, 64, 43
2,33108, Control_c, 0, 64, 0
2,33118, Note_on_c, 0, 74, 86
2,33133, Note_on_c, 0, 47, 58
2,33153, Control_c, 0, 64, 37
2,33169, Control_c, 0, 64, 54
2,33185, Control_c, 0, 64, 61
2,33185, Note_on_c, 0, 50, 0
2,33192, Note_on_c, 0, 47, 0
2,33199, Control_c, 0, 64, 64
2,33204, Note_on_c, 0, 74, 0
2,33214, Control_c, 0, 64, 66
2,33230, Control_c, 0, 64, 68
2,33245, Control_c, 0, 64, 71
2,33260, Control_c, 0, 64, 75
2,33276, Control_c, 0, 64, 79
2,33291, Control_c, 0, 64, 83
2,33307, Control_c, 0, 64, 87
2,33321, Control_c, 0, 64, 88
2,33367, Control_c, 0, 64, 88
2,33383, Control_c, 0, 64, 86
2,33397, Control_c, 0, 64, 82
2,33412, Control_c, 0, 64, 74
2,33420, Note_on_c, 0, 40, 47
2,33424, Note_on_c, 0, 67, 82
2,33428, Control_c, 0, 64, 65
2,33432, Note_on_c, 0, 52, 44
2,33442, Control_c, 0, 64, 55
2,33457, Control_c, 0, 64, 44
2,33473, Control_c, 0, 64, 40
2,33504, Control_c, 0, 64, 42
2,33518, Control_c, 0, 64, 48
2,33533, Control_c, 0, 64, 54
2,33545, Note_on_c, 0, 52, 0
2,33549, Control_c, 0, 64, 59
2,33564, Control_c, 0, 64, 62
2,33577, Note_on_c, 0, 66, 0
2,33579, Control_c, 0, 64, 64
2,33594, Control_c, 0, 64, 67
2,33609, Control_c, 0, 64, 69
2,33625, Control_c, 0, 64, 72
2,33640, Control_c, 0, 64, 75
2,33654, Control_c, 0, 64, 78
2,33670, Control_c, 0, 64, 79
2,33700, Control_c, 0, 64, 78
2,33716, Control_c, 0, 64, 76
2,33738, Control_c, 0, 64, 72
2,33750, Note_on_c, 0, 59, 61
2,33754, Control_c, 0, 64, 66
2,33762, Note_on_c, 0, 54, 51
2,33769, Control_c, 0, 64, 60
2,33785, Control_c, 0, 64, 54
2,33814, Control_c, 0, 64, 57
2,33830, Control_c, 0, 64, 62
2,33845, Control_c, 0, 64, 66
2,33859, Control_c, 0, 64, 69
2,33875, Control_c, 0, 64, 73
2,33887, Note_on_c, 0, 40, 0
2,33890, Control_c, 0, 64, 78
2,33904, Note_on_c, 0, 59, 0
2,33906, Control_c, 0, 64, 84
2,33921, Control_c, 0, 64, 92
2,33936, Control_c, 0, 64, 101
2,33943, Note_on_c, 0, 54, 0
2,33951, Control_c, 0, 64, 111
2,33966, Control_c, 0, 64, 123
2,33983, Control_c, 0, 64, 127
2,34013, Control_c, 0, 64, 115
2,34029, Control_c, 0, 64, 111
2,34043, Control_c, 0, 64, 105
2,34058, Control_c, 0, 64, 99
2,34074, Control_c, 0, 64, 90
2,34078, Note_on_c, 0, 71, 74
2,34080, Note_on_c, 0, 55, 50
2,34080, Note_on_c, 0, 67, 0
2,34089, Control_c, 0, 64, 79
2,34089, Note_on_c, 0, 64, 56
2,34105, Control_c, 0, 64, 67
2,34119, Control_c, 0, 64, 60
2,34134, Control_c, 0, 64, 53
2,34150, Control_c, 0, 64, 51
2,34227, Control_c, 0, 64, 51
2,34361, Note_on_c, 0, 64, 0
2,34375, Note_on_c, 0, 52, 43
2,34387, Note_on_c, 0, 62, 48
2,34389, Note_on_c, 0, 55, 0
2,34694, Note_on_c, 0, 62, 0
2,34706, Note_on_c, 0, 52, 0
2,34713, Note_on_c, 0, 45, 36
2,34717, Note_on_c, 0, 61, 47
2,34719, Note_on_c, 0, 55, 39
2,34810, Note_on_c, 0, 55, 0
2,34918, Control_c, 0, 64, 51
2,35003, Note_on_c, 0, 71, 0
2,35025, Note_on_c, 0, 55, 45
2,35033, Note_on_c, 0, 64, 56
2,35070, Control_c, 0, 64, 52
2,35364, Note_on_c, 0, 54, 39
2,35371, Note_on_c, 0, 69, 59
2,35374, Note_on_c, 0, 55, 0
2,35375, Note_on_c, 0, 64, 0
2,35503, Control_c, 0, 64, 51
2,35518, Control_c, 0, 64, 51
2,35533, Control_c, 0, 64, 50
2,35548, Control_c, 0, 64, 50
2,35563, Control_c, 0, 64, 49
2,35578, Control_c, 0, 64, 49
2,35626, Control_c, 0, 64, 49
2,35641, Control_c, 0, 64, 53
2,35649, Note_on_c, 0, 54, 0
2,35655, Control_c, 0, 64, 57
2,35664, Note_on_c, 0, 69, 0
2,35671, Control_c, 0, 64, 60
2,35676, Note_on_c, 0, 52, 38
2,35686, Control_c, 0, 64, 61
2,35691, Note_on_c, 0, 67, 52
2,35702, Control_c, 0, 64, 62
2,35716, Note_on_c, 0, 61, 0
2,35717, Control_c, 0, 64, 62
2,35717, Note_on_c, 0, 45, 0
2,35732, Control_c, 0, 64, 63
2,35748, Control_c, 0, 64, 65
2,35763, Control_c, 0, 64, 67
2,35777, Control_c, 0, 64, 71
2,35793, Control_c, 0, 64, 76
2,35808, Control_c, 0, 64, 82
2,35824, Control_c, 0, 64, 89
2,35836, Note_on_c, 0, 52, 0
2,35839, Control_c, 0, 64, 96
2,35853, Control_c, 0, 64, 103
2,35869, Control_c, 0, 64, 108
2,35884, Control_c, 0, 64, 109
2,35899, Control_c, 0, 64, 106
2,35915, Control_c, 0, 64, 101
2,35929, Control_c, 0, 64, 92
2,35945, Control_c, 0, 64, 81
2,35960, Control_c, 0, 64, 70
2,35962, Note_on_c, 0, 67, 0
2,35975, Control_c, 0, 64, 62
2,35991, Control_c, 0, 64, 52
2,35991, Note_on_c, 0, 38, 37
2,35996, Note_on_c, 0, 66, 51
2,35997, Note_on_c, 0, 50, 40
2,36006, Control_c, 0, 64, 50
2,36022, Control_c, 0, 64, 52
2,36044, Control_c, 0, 64, 58
2,36045, Note_on_c, 0, 38, 0
2,36058, Control_c, 0, 64, 63
2,36074, Control_c, 0, 64, 67
2,36088, Note_on_c, 0, 50, 0
2,36089, Control_c, 0, 64, 69
2,36105, Control_c, 0, 64, 72
2,36119, Control_c, 0, 64, 74
2,36134, Control_c, 0, 64, 77
2,36150, Control_c, 0, 64, 79
2,36165, Control_c, 0, 64, 82
2,36180, Control_c, 0, 64, 85
2,36195, Control_c, 0, 64, 88
2,36210, Control_c, 0, 64, 93
2,36226, Control_c, 0, 64, 99
2,36241, Control_c, 0, 64, 103
2,36256, Control_c, 0, 64, 104
2,36331, Note_on_c, 0, 57, 52
2,36408, Control_c, 0, 64, 103
2,36424, Control_c, 0, 64, 102
2,36466, Note_on_c, 0, 66, 0
2,36546, Control_c, 0, 64, 101
2,36561, Control_c, 0, 64, 101
2,36575, Control_c, 0, 64, 100
2,36591, Control_c, 0, 64, 98
2,36606, Control_c, 0, 64, 96
2,36616, Note_on_c, 0, 57, 0
2,36620, Control_c, 0, 64, 93
2,36636, Control_c, 0, 64, 88
2,36651, Control_c, 0, 64, 80
2,36660, Note_on_c, 0, 62, 47
2,36667, Control_c, 0, 64, 72
2,36682, Control_c, 0, 64, 65
2,36696, Control_c, 0, 64, 60
2,36712, Control_c, 0, 64, 56
2,36727, Control_c, 0, 64, 55
2,36811, Control_c, 0, 64, 55
2,36827, Control_c, 0, 64, 54
2,36976, Note_on_c, 0, 62, 0
2,36980, Note_on_c, 0, 60, 50
2,36987, Note_on_c, 0, 69, 63
2,37039, Control_c, 0, 64, 55
2,37222, Control_c, 0, 64, 55
2,37296, Note_on_c, 0, 69, 0
2,37302, Note_on_c, 0, 59, 55
2,37302, Note_on_c, 0, 74, 77
2,37304, Note_on_c, 0, 60, 0
2,37314, Control_c, 0, 64, 56
2,37579, Control_c, 0, 64, 56
2,37611, Note_on_c, 0, 74, 0
2,37628, Note_on_c, 0, 72, 78
2,37630, Note_on_c, 0, 62, 58
2,37671, Control_c, 0, 64, 57
2,37700, Control_c, 0, 64, 57
2,37841, Note_on_c, 0, 59, 0
2,37916, Note_on_c, 0, 62, 0
2,37947, Note_on_c, 0, 71, 81
2,37960, Note_on_c, 0, 67, 65
2,37968, Note_on_c, 0, 72, 0
2,38248, Control_c, 0, 64, 57
2,38259, Note_on_c, 0, 74, 83
2,38266, Note_on_c, 0, 67, 0
2,38271, Note_on_c, 0, 66, 64
2,38284, Note_on_c, 0, 71, 0
2,38515, Control_c, 0, 64, 56
2,38560, Control_c, 0, 64, 56
2,38575, Control_c, 0, 64, 55
2,38603, Note_on_c, 0, 79, 90
2,38610, Note_on_c, 0, 74, 0
2,38619, Note_on_c, 0, 64, 63
2,38636, Control_c, 0, 64, 57
2,38646, Note_on_c, 0, 66, 0
2,38650, Control_c, 0, 64, 59
2,38666, Control_c, 0, 64, 61
2,38681, Control_c, 0, 64, 64
2,38696, Control_c, 0, 64, 67
2,38712, Control_c, 0, 64, 70
2,38719, Note_on_c, 0, 64, 0
2,38727, Control_c, 0, 64, 73
2,38743, Control_c, 0, 64, 77
2,38757, Control_c, 0, 64, 81
2,38772, Control_c, 0, 64, 87
2,38788, Control_c, 0, 64, 98
2,38803, Control_c, 0, 64, 112
2,38818, Control_c, 0, 64, 127
2,38895, Control_c, 0, 64, 123
2,38911, Control_c, 0, 64, 111
2,38925, Control_c, 0, 64, 102
2,38940, Control_c, 0, 64, 95
2,38944, Note_on_c, 0, 62, 57
2,38945, Note_on_c, 0, 52, 59
2,38956, Control_c, 0, 64, 90
2,38971, Control_c, 0, 64, 86
2,38987, Control_c, 0, 64, 81
2,39002, Control_c, 0, 64, 77
2,39017, Control_c, 0, 64, 72
2,39032, Control_c, 0, 64, 67
2,39047, Control_c, 0, 64, 63
2,39063, Control_c, 0, 64, 60
2,39077, Control_c, 0, 64, 59
2,39161, Control_c, 0, 64, 58
2,39176, Control_c, 0, 64, 58
2,39207, Control_c, 0, 64, 57
2,39263, Note_on_c, 0, 78, 88
2,39268, Note_on_c, 0, 62, 0
2,39269, Note_on_c, 0, 57, 64
2,39276, Note_on_c, 0, 79, 0
2,39280, Note_on_c, 0, 61, 64
2,39283, Control_c, 0, 64, 57
2,39303, Note_on_c, 0, 52, 0
2,39404, Control_c, 0, 64, 56
2,39585, Note_on_c, 0, 55, 61
2,39589, Note_on_c, 0, 76, 86
2,39590, Note_on_c, 0, 57, 0
2,39601, Control_c, 0, 64, 56
2,39607, Note_on_c, 0, 78, 0
2,39677, Control_c, 0, 64, 56
2,39723, Control_c, 0, 64, 57
2,39738, Control_c, 0, 64, 57
2,39754, Control_c, 0, 64, 58
2,39859, Control_c, 0, 64, 57
2,39882, Control_c, 0, 64, 56
2,39897, Control_c, 0, 64, 53
2,39900, Note_on_c, 0, 61, 0
2,39909, Note_on_c, 0, 54, 63
2,39912, Note_on_c, 0, 81, 85
2,39913, Control_c, 0, 64, 49
2,39917, Note_on_c, 0, 62, 58
2,39923, Note_on_c, 0, 76, 0
2,39925, Note_on_c, 0, 55, 0
2,39928, Control_c, 0, 64, 47
2,39944, Control_c, 0, 64, 46
2,40035, Control_c, 0, 64, 47
2,40049, Control_c, 0, 64, 48
2,40057, Note_on_c, 0, 62, 0
2,40065, Control_c, 0, 64, 50
2,40080, Control_c, 0, 64, 51
2,40095, Control_c, 0, 64, 54
2,40111, Control_c, 0, 64, 57
2,40125, Control_c, 0, 64, 60
2,40140, Control_c, 0, 64, 62
2,40156, Control_c, 0, 64, 63
2,40171, Control_c, 0, 64, 65
2,40187, Control_c, 0, 64, 67
2,40201, Control_c, 0, 64, 70
2,40216, Control_c, 0, 64, 74
2,40225, Note_on_c, 0, 57, 65
2,40225, Note_on_c, 0, 79, 87
2,40226, Note_on_c, 0, 64, 60
2,40228, Note_on_c, 0, 54, 0
2,40230, Note_on_c, 0, 81, 0
2,40232, Control_c, 0, 64, 77
2,40247, Control_c, 0, 64, 80
2,40262, Control_c, 0, 64, 82
2,40277, Control_c, 0, 64, 85
2,40290, Note_on_c, 0, 79, 0
2,40292, Control_c, 0, 64, 86
2,40308, Control_c, 0, 64, 87
2,40353, Control_c, 0, 64, 87
2,40363, Note_on_c, 0, 64, 0
2,40368, Control_c, 0, 64, 88
2,40384, Control_c, 0, 64, 89
2,40399, Control_c, 0, 64, 89
2,40414, Control_c, 0, 64, 89
2,40445, Control_c, 0, 64, 88
2,40459, Control_c, 0, 64, 88
2,40475, Control_c, 0, 64, 86
2,40490, Control_c, 0, 64, 85
2,40506, Control_c, 0, 64, 83
2,40521, Control_c, 0, 64, 82
2,40536, Control_c, 0, 64, 80
2,40552, Control_c, 0, 64, 77
2,40567, Control_c, 0, 64, 72
2,40567, Note_on_c, 0, 78, 88
2,40568, Note_on_c, 0, 57, 0
2,40573, Note_on_c, 0, 62, 57
2,40583, Control_c, 0, 64, 67
2,40588, Note_on_c, 0, 66, 57
2,40598, Control_c, 0, 64, 64
2,40613, Control_c, 0, 64, 62
2,40629, Control_c, 0, 64, 61
2,40650, Control_c, 0, 64, 60
2,40666, Control_c, 0, 64, 59
2,40681, Control_c, 0, 64, 58
2,40695, Control_c, 0, 64, 57
2,40711, Control_c, 0, 64, 57
2,40726, Control_c, 0, 64, 56
2,40742, Control_c, 0, 64, 56
2,40757, Control_c, 0, 64, 54
2,40772, Control_c, 0, 64, 54
2,40857, Note_on_c, 0, 78, 0
2,40893, Note_on_c, 0, 76, 74
2,40905, Note_on_c, 0, 61, 51
2,40908, Note_on_c, 0, 62, 0
2,40924, Control_c, 0, 64, 53
2,41188, Note_on_c, 0, 61, 0
2,41200, Note_on_c, 0, 76, 0
2,41205, Note_on_c, 0, 74, 70
2,41213, Note_on_c, 0, 59, 46
2,41319, Control_c, 0, 64, 54
2,41334, Control_c, 0, 64, 55
2,41350, Control_c, 0, 64, 56
2,41365, Control_c, 0, 64, 57
2,41380, Control_c, 0, 64, 58
2,41396, Control_c, 0, 64, 59
2,41510, Control_c, 0, 64, 60
2,41525, Control_c, 0, 64, 62
2,41529, Note_on_c, 0, 47, 37
2,41539, Control_c, 0, 64, 64
2,41555, Control_c, 0, 64, 65
2,41570, Control_c, 0, 64, 67
2,41586, Control_c, 0, 64, 70
2,41593, Note_on_c, 0, 74, 0
2,41601, Control_c, 0, 64, 74
2,41616, Control_c, 0, 64, 77
2,41632, Control_c, 0, 64, 81
2,41646, Control_c, 0, 64, 82
2,41662, Control_c, 0, 64, 83
2,41689, Note_on_c, 0, 59, 0
2,41703, Note_on_c, 0, 66, 0
2,41737, Control_c, 0, 64, 83
2,41768, Control_c, 0, 64, 82
2,41784, Control_c, 0, 64, 82
2,41799, Control_c, 0, 64, 81
2,41813, Control_c, 0, 64, 79
2,41829, Control_c, 0, 64, 77
2,41844, Control_c, 0, 64, 75
2,41847, Note_on_c, 0, 59, 34
2,41851, Note_on_c, 0, 52, 51
2,41857, Note_on_c, 0, 73, 67
2,41859, Control_c, 0, 64, 73
2,41875, Control_c, 0, 64, 69
2,41882, Note_on_c, 0, 68, 46
2,41889, Control_c, 0, 64, 66
2,41905, Control_c, 0, 64, 63
2,41911, Note_on_c, 0, 47, 0
2,41920, Control_c, 0, 64, 61
2,41935, Control_c, 0, 64, 59
2,41950, Control_c, 0, 64, 59
2,41980, Control_c, 0, 64, 58
2,42011, Control_c, 0, 64, 58
2,42026, Control_c, 0, 64, 57
2,42056, Control_c, 0, 64, 57
2,42131, Note_on_c, 0, 73, 0
2,42162, Note_on_c, 0, 52, 0
2,42163, Note_on_c, 0, 50, 46
2,42163, Note_on_c, 0, 71, 72
2,42475, Note_on_c, 0, 76, 75
2,42482, Note_on_c, 0, 71, 0
2,42484, Note_on_c, 0, 49, 40
2,42521, Control_c, 0, 64, 57
2,42526, Note_on_c, 0, 59, 0
2,42527, Note_on_c, 0, 50, 0
2,42533, Note_on_c, 0, 68, 0
2,42536, Control_c, 0, 64, 60
2,42552, Control_c, 0, 64, 62
2,42567, Control_c, 0, 64, 63
2,42583, Control_c, 0, 64, 64
2,42597, Control_c, 0, 64, 65
2,42612, Control_c, 0, 64, 66
2,42628, Control_c, 0, 64, 67
2,42643, Control_c, 0, 64, 68
2,42658, Control_c, 0, 64, 69
2,42673, Control_c, 0, 64, 69
2,42688, Control_c, 0, 64, 69
2,42704, Control_c, 0, 64, 67
2,42718, Control_c, 0, 64, 65
2,42733, Control_c, 0, 64, 62
2,42749, Control_c, 0, 64, 57
2,42764, Control_c, 0, 64, 56
2,42794, Control_c, 0, 64, 57
2,42799, Note_on_c, 0, 76, 0
2,42808, Note_on_c, 0, 74, 70
2,42809, Control_c, 0, 64, 61
2,42812, Note_on_c, 0, 59, 39
2,42825, Control_c, 0, 64, 64
2,42826, Note_on_c, 0, 52, 48
2,42826, Note_on_c, 0, 68, 60
2,42840, Control_c, 0, 64, 66
2,42854, Note_on_c, 0, 49, 0
2,42855, Control_c, 0, 64, 67
2,42870, Control_c, 0, 64, 69
2,42881, Note_on_c, 0, 52, 0
2,42885, Control_c, 0, 64, 71
2,42900, Control_c, 0, 64, 74
2,42915, Control_c, 0, 64, 77
2,42915, Note_on_c, 0, 74, 0
2,42926, Note_on_c, 0, 59, 0
2,42930, Control_c, 0, 64, 78
2,42954, Control_c, 0, 64, 79
2,42969, Control_c, 0, 64, 81
2,42985, Control_c, 0, 64, 81
2,43008, Note_on_c, 0, 68, 0
2,43016, Control_c, 0, 64, 81
2,43031, Control_c, 0, 64, 80
2,43077, Control_c, 0, 64, 79
2,43092, Control_c, 0, 64, 77
2,43107, Control_c, 0, 64, 73
2,43122, Control_c, 0, 64, 69
2,43137, Control_c, 0, 64, 66
2,43142, Note_on_c, 0, 57, 41
2,43153, Control_c, 0, 64, 64
2,43154, Note_on_c, 0, 73, 61
2,43157, Note_on_c, 0, 61, 37
2,43160, Note_on_c, 0, 69, 43
2,43168, Control_c, 0, 64, 63
2,43183, Control_c, 0, 64, 61
2,43198, Control_c, 0, 64, 60
2,43213, Control_c, 0, 64, 58
2,43228, Control_c, 0, 64, 57
2,43243, Control_c, 0, 64, 57
2,43274, Control_c, 0, 64, 56
2,43289, Control_c, 0, 64, 55
2,43304, Control_c, 0, 64, 54
2,43319, Control_c, 0, 64, 54
2,43380, Control_c, 0, 64, 53
2,43410, Control_c, 0, 64, 53
2,43419, Note_on_c, 0, 73, 0
2,43441, Control_c, 0, 64, 52
2,43444, Note_on_c, 0, 57, 0
2,43456, Note_on_c, 0, 56, 45
2,43456, Note_on_c, 0, 71, 62
2,43463, Note_on_c, 0, 64, 52
2,43465, Note_on_c, 0, 69, 0
2,43472, Control_c, 0, 64, 52
2,43562, Control_c, 0, 64, 51
2,43722, Control_c, 0, 64, 51
2,43774, Note_on_c, 0, 71, 0
2,43783, Note_on_c, 0, 64, 0
2,43785, Note_on_c, 0, 69, 62
2,43791, Note_on_c, 0, 54, 46
2,43791, Note_on_c, 0, 56, 0
2,43814, Control_c, 0, 64, 53
2,43830, Control_c, 0, 64, 57
2,43845, Control_c, 0, 64, 60
2,43860, Control_c, 0, 64, 63
2,43875, Control_c, 0, 64, 65
2,43890, Control_c, 0, 64, 66
2,43893, Note_on_c, 0, 61, 0
2,43906, Control_c, 0, 64, 68
2,43921, Control_c, 0, 64, 70
2,43936, Control_c, 0, 64, 73
2,43951, Control_c, 0, 64, 75
2,43966, Control_c, 0, 64, 78
2,43982, Control_c, 0, 64, 79
2,44011, Control_c, 0, 64, 79
2,44027, Control_c, 0, 64, 78
2,44042, Control_c, 0, 64, 78
2,44057, Control_c, 0, 64, 77
2,44072, Control_c, 0, 64, 76
2,44087, Control_c, 0, 64, 72
2,44089, Note_on_c, 0, 69, 0
2,44097, Note_on_c, 0, 57, 50
2,44098, Note_on_c, 0, 73, 71
2,44103, Control_c, 0, 64, 68
2,44110, Note_on_c, 0, 52, 42
2,44117, Note_on_c, 0, 68, 48
2,44118, Control_c, 0, 64, 63
2,44133, Control_c, 0, 64, 61
2,44148, Control_c, 0, 64, 62
2,44159, Note_on_c, 0, 54, 0
2,44163, Control_c, 0, 64, 63
2,44178, Control_c, 0, 64, 65
2,44187, Note_on_c, 0, 52, 0
2,44194, Control_c, 0, 64, 68
2,44208, Control_c, 0, 64, 71
2,44224, Control_c, 0, 64, 73
2,44239, Control_c, 0, 64, 74
2,44254, Control_c, 0, 64, 74
2,44270, Control_c, 0, 64, 73
2,44285, Control_c, 0, 64, 73
2,44298, Note_on_c, 0, 68, 0
2,44300, Control_c, 0, 64, 72
2,44316, Control_c, 0, 64, 71
2,44331, Control_c, 0, 64, 67
2,44347, Control_c, 0, 64, 64
2,44361, Control_c, 0, 64, 60
2,44368, Note_on_c, 0, 57, 0
2,44376, Control_c, 0, 64, 56
2,44392, Control_c, 0, 64, 52
2,44394, Note_on_c, 0, 73, 0
2,44406, Control_c, 0, 64, 49
2,44407, Note_on_c, 0, 50, 40
2,44419, Note_on_c, 0, 71, 59
2,44422, Control_c, 0, 64, 49
2,44426, Note_on_c, 0, 62, 36
2,44427, Note_on_c, 0, 66, 54
2,44506, Control_c, 0, 64, 50
2,44520, Control_c, 0, 64, 54
2,44535, Control_c, 0, 64, 58
2,44551, Control_c, 0, 64, 60
2,44566, Control_c, 0, 64, 62
2,44582, Control_c, 0, 64, 64
2,44597, Control_c, 0, 64, 64
2,44611, Control_c, 0, 64, 65
2,44627, Control_c, 0, 64, 65
2,44674, Control_c, 0, 64, 65
2,44688, Control_c, 0, 64, 63
2,44692, Note_on_c, 0, 71, 0
2,44704, Control_c, 0, 64, 62
2,44719, Control_c, 0, 64, 61
2,44734, Control_c, 0, 64, 60
2,44740, Note_on_c, 0, 62, 0
2,44749, Note_on_c, 0, 61, 41
2,44750, Control_c, 0, 64, 59
2,44750, Note_on_c, 0, 69, 60
2,44765, Control_c, 0, 64, 57
2,44780, Control_c, 0, 64, 55
2,44795, Control_c, 0, 64, 53
2,44810, Control_c, 0, 64, 51
2,44826, Control_c, 0, 64, 51
2,44886, Control_c, 0, 64, 53
2,44902, Control_c, 0, 64, 57
2,44916, Control_c, 0, 64, 61
2,44921, Note_on_c, 0, 69, 0
2,44931, Control_c, 0, 64, 64
2,44947, Control_c, 0, 64, 67
2,44962, Control_c, 0, 64, 70
2,44977, Control_c, 0, 64, 73
2,44992, Control_c, 0, 64, 76
2,45007, Control_c, 0, 64, 78
2,45023, Control_c, 0, 64, 78
2,45038, Control_c, 0, 64, 79
2,45049, Note_on_c, 0, 50, 0
2,45053, Note_on_c, 0, 66, 0
2,45062, Note_on_c, 0, 64, 56
2,45064, Note_on_c, 0, 68, 68
2,45070, Note_on_c, 0, 59, 39
2,45083, Control_c, 0, 64, 78
2,45083, Note_on_c, 0, 61, 0
2,45098, Control_c, 0, 64, 77
2,45114, Control_c, 0, 64, 75
2,45129, Control_c, 0, 64, 71
2,45145, Control_c, 0, 64, 66
2,45159, Control_c, 0, 64, 61
2,45174, Control_c, 0, 64, 57
2,45190, Control_c, 0, 64, 55
2,45257, Note_on_c, 0, 64, 0
2,45356, Note_on_c, 0, 59, 0
2,45369, Note_on_c, 0, 49, 30
2,45395, Control_c, 0, 64, 57
2,45397, Note_on_c, 0, 64, 54
2,45401, Note_on_c, 0, 68, 0
2,45410, Control_c, 0, 64, 60
2,45426, Control_c, 0, 64, 63
2,45441, Control_c, 0, 64, 65
2,45456, Control_c, 0, 64, 67
2,45472, Control_c, 0, 64, 69
2,45486, Control_c, 0, 64, 73
2,45502, Control_c, 0, 64, 76
2,45517, Control_c, 0, 64, 78
2,45532, Control_c, 0, 64, 79
2,45563, Control_c, 0, 64, 79
2,45594, Control_c, 0, 64, 79
2,45608, Control_c, 0, 64, 78
2,45624, Control_c, 0, 64, 78
2,45654, Control_c, 0, 64, 77
2,45670, Control_c, 0, 64, 76
2,45684, Control_c, 0, 64, 73
2,45699, Control_c, 0, 64, 70
2,45712, Note_on_c, 0, 64, 0
2,45715, Control_c, 0, 64, 68
2,45718, Note_on_c, 0, 57, 39
2,45725, Note_on_c, 0, 69, 66
2,45730, Control_c, 0, 64, 66
2,45731, Note_on_c, 0, 54, 32
2,45740, Note_on_c, 0, 62, 52
2,45746, Control_c, 0, 64, 64
2,45753, Note_on_c, 0, 49, 0
2,45760, Control_c, 0, 64, 63
2,45775, Control_c, 0, 64, 61
2,45791, Control_c, 0, 64, 59
2,45805, Control_c, 0, 64, 58
2,45836, Control_c, 0, 64, 58
2,45867, Control_c, 0, 64, 57
2,45881, Control_c, 0, 64, 56
2,45970, Note_on_c, 0, 57, 0
2,46003, Note_on_c, 0, 54, 0
2,46042, Note_on_c, 0, 52, 44
2,46045, Note_on_c, 0, 56, 37
2,46063, Note_on_c, 0, 61, 44
2,46066, Note_on_c, 0, 62, 0
2,46284, Note_on_c, 0, 56, 0
2,46346, Note_on_c, 0, 52, 0
2,46355, Note_on_c, 0, 50, 35
2,46359, Note_on_c, 0, 61, 0
2,46363, Note_on_c, 0, 54, 38
2,46370, Note_on_c, 0, 59, 45
2,46711, Note_on_c, 0, 61, 42
2,46713, Note_on_c, 0, 59, 0
2,47027, Note_on_c, 0, 52, 39
2,47029, Note_on_c, 0, 61, 0
2,47033, Note_on_c, 0, 50, 0
2,47040, Note_on_c, 0, 62, 39
2,47058, Note_on_c, 0, 54, 0
2,47312, Control_c, 0, 67, 13
2,47327, Control_c, 0, 67, 30
2,47343, Control_c, 0, 67, 49
2,47349, Note_on_c, 0, 69, 0
2,47358, Control_c, 0, 67, 71
2,47372, Control_c, 0, 67, 100
2,47379, Note_on_c, 0, 68, 50
2,47388, Control_c, 0, 67, 127
2,47493, Control_c, 0, 64, 56
2,47763, Note_on_c, 0, 68, 0
2,47764, Note_on_c, 0, 45, 37
2,47773, Note_on_c, 0, 69, 57
2,48078, Note_on_c, 0, 62, 0
2,48095, Note_on_c, 0, 61, 41
2,48201, Control_c, 0, 67, 108
2,48216, Control_c, 0, 67, 81
2,48232, Control_c, 0, 67, 57
2,48247, Control_c, 0, 67, 39
2,48263, Control_c, 0, 67, 22
2,48278, Control_c, 0, 67, 0
2,48389, Note_on_c, 0, 45, 0
2,48396, Note_on_c, 0, 52, 0
2,48415, Note_on_c, 0, 61, 0
2,48418, Note_on_c, 0, 66, 42
2,48649, Control_c, 0, 64, 56
2,48755, Note_on_c, 0, 42, 43
2,48760, Note_on_c, 0, 64, 42
2,48808, Note_on_c, 0, 66, 0
2,48939, Note_on_c, 0, 69, 0
2,49026, Note_on_c, 0, 64, 0
2,49043, Note_on_c, 0, 63, 47
2,49048, Note_on_c, 0, 42, 0
2,49055, Note_on_c, 0, 47, 45
2,49366, Note_on_c, 0, 66, 48
2,49370, Note_on_c, 0, 59, 55
2,49492, Note_on_c, 0, 59, 0
2,49692, Note_on_c, 0, 59, 68
2,49703, Note_on_c, 0, 71, 57
2,49750, Note_on_c, 0, 66, 0
2,49828, Note_on_c, 0, 59, 0
2,50001, Note_on_c, 0, 71, 0
2,50005, Note_on_c, 0, 69, 66
2,50010, Note_on_c, 0, 59, 71
2,50091, Note_on_c, 0, 47, 0
2,50189, Note_on_c, 0, 59, 0
2,50311, Note_on_c, 0, 52, 60
2,50315, Note_on_c, 0, 63, 0
2,50326, Note_on_c, 0, 67, 58
2,50327, Note_on_c, 0, 69, 0
2,50597, Control_c, 0, 64, 56
2,50606, Note_on_c, 0, 50, 50
2,50607, Note_on_c, 0, 59, 50
2,50650, Control_c, 0, 64, 56
2,50666, Control_c, 0, 64, 59
2,50680, Control_c, 0, 64, 61
2,50695, Control_c, 0, 64, 64
2,50711, Control_c, 0, 64, 66
2,50711, Note_on_c, 0, 52, 0
2,50726, Control_c, 0, 64, 68
2,50742, Control_c, 0, 64, 70
2,50756, Control_c, 0, 64, 71
2,50771, Control_c, 0, 64, 73
2,50787, Control_c, 0, 64, 74
2,50802, Control_c, 0, 64, 75
2,50816, Control_c, 0, 64, 76
2,50863, Control_c, 0, 64, 75
2,50892, Control_c, 0, 64, 74
2,50908, Control_c, 0, 64, 73
2,50923, Control_c, 0, 64, 69
2,50932, Note_on_c, 0, 50, 0
2,50932, Note_on_c, 0, 55, 65
2,50932, Note_on_c, 0, 59, 0
2,50938, Control_c, 0, 64, 65
2,50944, Note_on_c, 0, 49, 44
2,50951, Note_on_c, 0, 64, 56
2,50954, Control_c, 0, 64, 62
2,50968, Control_c, 0, 64, 59
2,50984, Control_c, 0, 64, 57
2,50999, Control_c, 0, 64, 55
2,51014, Control_c, 0, 64, 53
2,51030, Control_c, 0, 64, 52
2,51076, Control_c, 0, 64, 53
2,51089, Control_c, 0, 64, 55
2,51105, Control_c, 0, 64, 58
2,51120, Control_c, 0, 64, 60
2,51135, Control_c, 0, 64, 62
2,51151, Control_c, 0, 64, 62
2,51165, Control_c, 0, 64, 63
2,51180, Control_c, 0, 64, 64
2,51197, Control_c, 0, 64, 65
2,51212, Control_c, 0, 64, 64
2,51228, Control_c, 0, 64, 62
2,51232, Note_on_c, 0, 47, 51
2,51242, Control_c, 0, 64, 56
2,51242, Note_on_c, 0, 64, 0
2,51257, Control_c, 0, 64, 49
2,51272, Note_on_c, 0, 62, 47
2,51273, Control_c, 0, 64, 48
2,51283, Note_on_c, 0, 49, 0
2,51288, Control_c, 0, 64, 51
2,51304, Control_c, 0, 64, 58
2,51318, Control_c, 0, 64, 63
2,51333, Control_c, 0, 64, 65
2,51342, Note_on_c, 0, 47, 0
2,51349, Control_c, 0, 64, 68
2,51364, Control_c, 0, 64, 69
2,51379, Control_c, 0, 64, 70
2,51402, Control_c, 0, 64, 71
2,51417, Control_c, 0, 64, 72
2,51433, Control_c, 0, 64, 74
2,51447, Control_c, 0, 64, 76
2,51463, Control_c, 0, 64, 77
2,51478, Control_c, 0, 64, 77
2,51493, Control_c, 0, 64, 76
2,51509, Control_c, 0, 64, 74
2,51523, Control_c, 0, 64, 68
2,51538, Control_c, 0, 64, 60
2,51554, Control_c, 0, 64, 46
2,51569, Control_c, 0, 64, 36
2,51570, Note_on_c, 0, 46, 46
2,51582, Note_on_c, 0, 61, 60
2,51599, Control_c, 0, 64, 42
2,51605, Note_on_c, 0, 55, 0
2,51614, Control_c, 0, 64, 53
2,51630, Control_c, 0, 64, 61
2,51641, Note_on_c, 0, 62, 0
2,51645, Control_c, 0, 64, 64
2,51659, Control_c, 0, 64, 67
2,51672, Note_on_c, 0, 61, 0
2,51675, Control_c, 0, 64, 71
2,51690, Control_c, 0, 64, 75
2,51703, Note_on_c, 0, 67, 0
2,51706, Control_c, 0, 64, 79
2,51721, Control_c, 0, 64, 84
2,51735, Control_c, 0, 64, 91
2,51751, Control_c, 0, 64, 98
2,51766, Control_c, 0, 64, 102
2,51797, Control_c, 0, 64, 100
2,51812, Control_c, 0, 64, 98
2,51828, Control_c, 0, 64, 96
2,51843, Control_c, 0, 64, 91
2,51857, Control_c, 0, 64, 84
2,51873, Control_c, 0, 64, 75
2,51888, Control_c, 0, 64, 69
2,51899, Note_on_c, 0, 49, 46
2,51902, Note_on_c, 0, 78, 83
2,51904, Control_c, 0, 64, 69
2,51949, Control_c, 0, 64, 68
2,51964, Control_c, 0, 64, 67
2,51978, Control_c, 0, 64, 64
2,51994, Control_c, 0, 64, 62
2,52011, Control_c, 0, 64, 60
2,52027, Control_c, 0, 64, 57
2,52041, Control_c, 0, 64, 56
2,52056, Control_c, 0, 64, 55
2,52066, Note_on_c, 0, 78, 0
2,52072, Control_c, 0, 64, 54
2,52086, Control_c, 0, 64, 53
2,52102, Control_c, 0, 64, 53
2,52217, Note_on_c, 0, 78, 87
2,52223, Note_on_c, 0, 54, 57
2,52232, Note_on_c, 0, 49, 0
2,52259, Note_on_c, 0, 46, 0
2,52322, Control_c, 0, 64, 54
2,52337, Control_c, 0, 64, 55
2,52353, Control_c, 0, 64, 55
2,52387, Note_on_c, 0, 78, 0
2,52413, Control_c, 0, 64, 55
2,52429, Control_c, 0, 64, 54
2,52443, Control_c, 0, 64, 53
2,52458, Control_c, 0, 64, 52
2,52474, Control_c, 0, 64, 51
2,52530, Note_on_c, 0, 46, 50
2,52531, Note_on_c, 0, 78, 87
2,52534, Control_c, 0, 64, 53
2,52534, Note_on_c, 0, 52, 55
2,52550, Control_c, 0, 64, 58
2,52563, Note_on_c, 0, 54, 0
2,52565, Control_c, 0, 64, 61
2,52579, Control_c, 0, 64, 64
2,52595, Control_c, 0, 64, 66
2,52610, Control_c, 0, 64, 69
2,52626, Control_c, 0, 64, 72
2,52641, Control_c, 0, 64, 75
2,52643, Note_on_c, 0, 78, 0
2,52648, Note_on_c, 0, 46, 0
2,52656, Control_c, 0, 64, 79
2,52672, Control_c, 0, 64, 82
2,52686, Control_c, 0, 64, 85
2,52701, Control_c, 0, 64, 87
2,52732, Control_c, 0, 64, 86
2,52748, Control_c, 0, 64, 85
2,52763, Control_c, 0, 64, 84
2,52777, Control_c, 0, 64, 82
2,52793, Control_c, 0, 64, 79
2,52808, Control_c, 0, 64, 73
2,52808, Note_on_c, 0, 52, 0
2,52825, Control_c, 0, 64, 67
2,52828, Note_on_c, 0, 71, 75
2,52837, Note_on_c, 0, 45, 47
2,52840, Control_c, 0, 64, 62
2,52843, Note_on_c, 0, 51, 57
2,52854, Control_c, 0, 64, 57
2,52870, Control_c, 0, 64, 53
2,52885, Control_c, 0, 64, 50
2,52900, Control_c, 0, 64, 48
2,52916, Control_c, 0, 64, 47
2,52937, Control_c, 0, 64, 46
2,53020, Note_on_c, 0, 71, 0
2,53073, Control_c, 0, 64, 46
2,53103, Control_c, 0, 64, 47
2,53144, Note_on_c, 0, 51, 0
2,53149, Control_c, 0, 64, 47
2,53149, Note_on_c, 0, 71, 79
2,53156, Note_on_c, 0, 53, 58
2,53179, Control_c, 0, 64, 48
2,53209, Control_c, 0, 64, 48
2,53240, Control_c, 0, 64, 49
2,53278, Note_on_c, 0, 53, 0
2,53280, Note_on_c, 0, 54, 71
2,53285, Control_c, 0, 64, 49
2,53285, Note_on_c, 0, 71, 0
2,53330, Control_c, 0, 64, 50
2,53441, Note_on_c, 0, 71, 78
2,53444, Note_on_c, 0, 53, 55
2,53444, Note_on_c, 0, 74, 77
2,53446, Note_on_c, 0, 54, 0
2,53546, Note_on_c, 0, 45, 0
2,53612, Note_on_c, 0, 71, 0
2,53734, Control_c, 0, 64, 54
2,53750, Control_c, 0, 64, 59
2,53764, Note_on_c, 0, 44, 50
2,53765, Control_c, 0, 64, 62
2,53773, Note_on_c, 0, 71, 79
2,53779, Control_c, 0, 64, 64
2,53795, Control_c, 0, 64, 68
2,53809, Note_on_c, 0, 53, 0
2,53810, Control_c, 0, 64, 72
2,53812, Note_on_c, 0, 44, 0
2,53825, Control_c, 0, 64, 76
2,53834, Note_on_c, 0, 71, 0
2,53841, Control_c, 0, 64, 80
2,53855, Control_c, 0, 64, 84
2,53871, Control_c, 0, 64, 90
2,53886, Control_c, 0, 64, 99
2,53901, Control_c, 0, 64, 108
2,53917, Control_c, 0, 64, 119
2,53932, Control_c, 0, 64, 127
2,53977, Control_c, 0, 64, 116
2,53993, Control_c, 0, 64, 110
2,54008, Control_c, 0, 64, 103
2,54023, Control_c, 0, 64, 94
2,54039, Control_c, 0, 64, 84
2,54053, Control_c, 0, 64, 74
2,54068, Control_c, 0, 64, 67
2,54074, Note_on_c, 0, 64, 77
2,54084, Control_c, 0, 64, 61
2,54088, Note_on_c, 0, 49, 42
2,54098, Control_c, 0, 64, 58
2,54114, Control_c, 0, 64, 57
2,54174, Control_c, 0, 64, 56
2,54188, Control_c, 0, 64, 56
2,54204, Control_c, 0, 64, 55
2,54219, Control_c, 0, 64, 55
2,54235, Control_c, 0, 64, 54
2,54280, Control_c, 0, 64, 54
2,54295, Control_c, 0, 64, 53
2,54391, Note_on_c, 0, 59, 50
2,54394, Note_on_c, 0, 68, 70
2,54395, Note_on_c, 0, 74, 0
2,54402, Control_c, 0, 64, 55
2,54417, Control_c, 0, 64, 57
2,54432, Control_c, 0, 64, 60
2,54447, Control_c, 0, 64, 63
2,54472, Control_c, 0, 64, 66
2,54487, Control_c, 0, 64, 68
2,54501, Control_c, 0, 64, 71
2,54517, Control_c, 0, 64, 73
2,54532, Control_c, 0, 64, 75
2,54546, Control_c, 0, 64, 77
2,54562, Control_c, 0, 64, 81
2,54577, Control_c, 0, 64, 84
2,54593, Control_c, 0, 64, 85
2,54603, Note_on_c, 0, 64, 0
2,54653, Control_c, 0, 64, 85
2,54668, Control_c, 0, 64, 84
2,54684, Control_c, 0, 64, 83
2,54699, Control_c, 0, 64, 80
2,54708, Note_on_c, 0, 59, 0
2,54715, Control_c, 0, 64, 75
2,54717, Note_on_c, 0, 67, 71
2,54724, Note_on_c, 0, 58, 46
2,54726, Note_on_c, 0, 73, 55
2,54730, Control_c, 0, 64, 70
2,54741, Note_on_c, 0, 68, 0
2,54744, Control_c, 0, 64, 64
2,54760, Control_c, 0, 64, 61
2,54775, Control_c, 0, 64, 58
2,54791, Control_c, 0, 64, 57
2,54806, Control_c, 0, 64, 56
2,54820, Control_c, 0, 64, 55
2,54836, Control_c, 0, 64, 54
2,54851, Control_c, 0, 64, 53
2,54866, Control_c, 0, 64, 51
2,54882, Control_c, 0, 64, 50
2,54896, Control_c, 0, 64, 48
2,54912, Control_c, 0, 64, 46
2,54928, Control_c, 0, 64, 43
2,54943, Control_c, 0, 64, 41
2,54958, Control_c, 0, 64, 39
2,54973, Control_c, 0, 64, 39
2,55019, Control_c, 0, 64, 41
2,55020, Note_on_c, 0, 73, 0
2,55034, Control_c, 0, 64, 51
2,55035, Note_on_c, 0, 61, 45
2,55048, Note_on_c, 0, 71, 59
2,55049, Control_c, 0, 64, 58
2,55051, Note_on_c, 0, 58, 0
2,55064, Control_c, 0, 64, 62
2,55079, Control_c, 0, 64, 65
2,55094, Control_c, 0, 64, 68
2,55105, Note_on_c, 0, 61, 0
2,55110, Control_c, 0, 64, 73
2,55111, Note_on_c, 0, 49, 0
2,55125, Control_c, 0, 64, 80
2,55140, Control_c, 0, 64, 88
2,55155, Control_c, 0, 64, 98
2,55170, Control_c, 0, 64, 112
2,55185, Control_c, 0, 64, 127
2,55218, Note_on_c, 0, 71, 0
2,55301, Control_c, 0, 64, 104
2,55317, Control_c, 0, 64, 84
2,55332, Control_c, 0, 64, 71
2,55346, Control_c, 0, 64, 62
2,55350, Note_on_c, 0, 42, 46
2,55359, Note_on_c, 0, 70, 55
2,55362, Control_c, 0, 64, 51
2,55377, Control_c, 0, 64, 49
2,55392, Control_c, 0, 64, 52
2,55407, Control_c, 0, 64, 57
2,55422, Control_c, 0, 64, 63
2,55433, Note_on_c, 0, 42, 0
2,55438, Control_c, 0, 64, 67
2,55453, Control_c, 0, 64, 70
2,55454, Note_on_c, 0, 67, 0
2,55467, Control_c, 0, 64, 73
2,55483, Control_c, 0, 64, 76
2,55498, Control_c, 0, 64, 79
2,55514, Control_c, 0, 64, 85
2,55529, Control_c, 0, 64, 93
2,55543, Control_c, 0, 64, 105
2,55559, Control_c, 0, 64, 127
2,55665, Note_on_c, 0, 70, 0
2,55681, Control_c, 0, 64, 104
2,55682, Note_on_c, 0, 54, 47
2,55682, Note_on_c, 0, 61, 59
2,55696, Control_c, 0, 64, 86
2,55696, Note_on_c, 0, 64, 43
2,55712, Control_c, 0, 64, 76
2,55726, Control_c, 0, 64, 69
2,55741, Control_c, 0, 64, 65
2,55757, Control_c, 0, 64, 64
2,55825, Note_on_c, 0, 64, 0
2,55988, Note_on_c, 0, 61, 0
2,56011, Note_on_c, 0, 56, 43
2,56013, Note_on_c, 0, 62, 46
2,56017, Note_on_c, 0, 71, 52
2,56018, Note_on_c, 0, 66, 52
2,56022, Control_c, 0, 64, 64
2,56053, Control_c, 0, 64, 63
2,56060, Note_on_c, 0, 54, 0
2,56068, Control_c, 0, 64, 62
2,56083, Control_c, 0, 64, 61
2,56099, Control_c, 0, 64, 61
2,56161, Control_c, 0, 64, 60
2,56191, Control_c, 0, 64, 60
2,56221, Control_c, 0, 64, 59
2,56251, Control_c, 0, 64, 59
2,56265, Note_on_c, 0, 56, 0
2,56282, Control_c, 0, 64, 58
2,56283, Note_on_c, 0, 62, 0
2,56297, Control_c, 0, 64, 58
2,56316, Note_on_c, 0, 66, 0
2,56316, Note_on_c, 0, 71, 0
2,56326, Note_on_c, 0, 58, 30
2,56327, Control_c, 0, 64, 57
2,56327, Note_on_c, 0, 73, 60
2,56330, Note_on_c, 0, 61, 39
2,56333, Note_on_c, 0, 64, 55
2,56387, Control_c, 0, 64, 58
2,56403, Control_c, 0, 64, 58
2,56418, Control_c, 0, 64, 59
2,56448, Control_c, 0, 64, 60
2,56463, Control_c, 0, 64, 63
2,56479, Control_c, 0, 64, 65
2,56494, Control_c, 0, 64, 67
2,56510, Control_c, 0, 64, 70
2,56524, Control_c, 0, 64, 73
2,56526, Note_on_c, 0, 64, 0
2,56539, Control_c, 0, 64, 76
2,56550, Note_on_c, 0, 73, 0
2,56555, Control_c, 0, 64, 79
2,56570, Control_c, 0, 64, 81
2,56585, Control_c, 0, 64, 82
2,56601, Note_on_c, 0, 61, 0
2,56616, Control_c, 0, 64, 81
2,56632, Control_c, 0, 64, 80
2,56641, Note_on_c, 0, 58, 0
2,56645, Note_on_c, 0, 59, 44
2,56646, Control_c, 0, 64, 78
2,56656, Note_on_c, 0, 62, 51
2,56656, Note_on_c, 0, 74, 62
2,56661, Control_c, 0, 64, 75
2,56677, Control_c, 0, 64, 70
2,56692, Control_c, 0, 64, 65
2,56707, Control_c, 0, 64, 61
2,56722, Control_c, 0, 64, 59
2,56737, Control_c, 0, 64, 58
2,56985, Note_on_c, 0, 66, 62
2,56987, Note_on_c, 0, 62, 0
2,56990, Note_on_c, 0, 57, 43
2,57095, Control_c, 0, 64, 58
2,57246, Note_on_c, 0, 57, 0
2,57247, Control_c, 0, 64, 57
2,57274, Note_on_c, 0, 56, 41
2,57299, Note_on_c, 0, 66, 0
2,57301, Note_on_c, 0, 71, 56
2,57598, Note_on_c, 0, 71, 0
2,57604, Control_c, 0, 64, 57
2,57612, Note_on_c, 0, 69, 58
2,57613, Note_on_c, 0, 56, 0
2,57614, Note_on_c, 0, 54, 40
2,57726, Control_c, 0, 64, 56
2,57891, Note_on_c, 0, 69, 0
2,57911, Note_on_c, 0, 68, 51
2,57916, Note_on_c, 0, 53, 38
2,57945, Note_on_c, 0, 59, 0
2,57976, Note_on_c, 0, 54, 0
2,58141, Note_on_c, 0, 74, 0
2,58197, Control_c, 0, 64, 57
2,58244, Note_on_c, 0, 56, 58
2,58550, Note_on_c, 0, 61, 62
2,58561, Note_on_c, 0, 56, 0
2,58569, Note_on_c, 0, 73, 73
2,58842, Note_on_c, 0, 68, 0
2,58866, Note_on_c, 0, 61, 0
2,58870, Note_on_c, 0, 59, 62
2,59158, Note_on_c, 0, 59, 0
2,59190, Note_on_c, 0, 57, 57
2,59201, Control_c, 0, 64, 56
2,59235, Note_on_c, 0, 53, 0
2,59503, Note_on_c, 0, 54, 67
2,59513, Note_on_c, 0, 61, 53
2,59552, Control_c, 0, 64, 57
2,59566, Control_c, 0, 64, 59
2,59581, Control_c, 0, 64, 62
2,59597, Control_c, 0, 64, 66
2,59612, Control_c, 0, 64, 71
2,59627, Control_c, 0, 64, 80
2,59643, Control_c, 0, 64, 89
2,59655, Note_on_c, 0, 54, 0
2,59657, Control_c, 0, 64, 98
2,59673, Control_c, 0, 64, 108
2,59688, Control_c, 0, 64, 118
2,59703, Control_c, 0, 64, 127
2,59751, Control_c, 0, 64, 117
2,59766, Control_c, 0, 64, 109
2,59781, Control_c, 0, 64, 98
2,59797, Control_c, 0, 64, 84
2,59808, Note_on_c, 0, 54, 76
2,59811, Control_c, 0, 64, 69
2,59818, Note_on_c, 0, 66, 62
2,59819, Note_on_c, 0, 73, 0
2,59827, Control_c, 0, 64, 60
2,59850, Control_c, 0, 64, 47
2,59866, Control_c, 0, 64, 40
2,59895, Control_c, 0, 64, 41
2,59911, Control_c, 0, 64, 47
2,59926, Control_c, 0, 64, 55
2,59941, Control_c, 0, 64, 61
2,59956, Control_c, 0, 64, 63
2,59971, Control_c, 0, 64, 65
2,59987, Control_c, 0, 64, 67
2,59996, Note_on_c, 0, 54, 0
2,60002, Control_c, 0, 64, 68
2,60016, Control_c, 0, 64, 69
2,60026, Note_on_c, 0, 61, 0
2,60047, Control_c, 0, 64, 68
2,60063, Control_c, 0, 64, 65
2,60077, Control_c, 0, 64, 60
2,60092, Control_c, 0, 64, 52
2,60108, Control_c, 0, 64, 46
2,60123, Control_c, 0, 64, 46
2,60124, Note_on_c, 0, 54, 78
2,60132, Note_on_c, 0, 64, 67
2,60138, Control_c, 0, 64, 48
2,60148, Note_on_c, 0, 66, 0
2,60153, Control_c, 0, 64, 55
2,60168, Control_c, 0, 64, 61
2,60184, Control_c, 0, 64, 65
2,60200, Control_c, 0, 64, 69
2,60215, Control_c, 0, 64, 73
2,60231, Control_c, 0, 64, 78
2,60233, Note_on_c, 0, 57, 0
2,60246, Control_c, 0, 64, 83
2,60257, Note_on_c, 0, 54, 0
2,60260, Control_c, 0, 64, 88
2,60276, Control_c, 0, 64, 95
2,60291, Control_c, 0, 64, 104
2,60306, Control_c, 0, 64, 108
2,60321, Control_c, 0, 64, 104
2,60336, Control_c, 0, 64, 96
2,60352, Control_c, 0, 64, 86
2,60367, Control_c, 0, 64, 77
2,60381, Control_c, 0, 64, 68
2,60397, Control_c, 0, 64, 63
2,60412, Control_c, 0, 64, 60
2,60428, Control_c, 0, 64, 59
2,60429, Note_on_c, 0, 64, 0
2,60431, Note_on_c, 0, 47, 75
2,60443, Control_c, 0, 64, 58
2,60452, Note_on_c, 0, 62, 65
2,60458, Control_c, 0, 64, 56
2,60474, Control_c, 0, 64, 54
2,60489, Control_c, 0, 64, 51
2,60504, Control_c, 0, 64, 47
2,60519, Control_c, 0, 64, 42
2,60534, Control_c, 0, 64, 39
2,60550, Control_c, 0, 64, 38
2,60579, Control_c, 0, 64, 38
2,60755, Note_on_c, 0, 54, 61
2,60771, Note_on_c, 0, 71, 63
2,60815, Control_c, 0, 64, 38
2,60831, Control_c, 0, 64, 40
2,60846, Control_c, 0, 64, 44
2,60861, Control_c, 0, 64, 50
2,60876, Control_c, 0, 64, 55
2,60891, Control_c, 0, 64, 59
2,60894, Note_on_c, 0, 69, 76
2,60907, Control_c, 0, 64, 61
2,60919, Note_on_c, 0, 71, 0
2,60921, Control_c, 0, 64, 63
2,60936, Control_c, 0, 64, 63
2,60939, Note_on_c, 0, 62, 0
2,60952, Control_c, 0, 64, 64
2,60967, Control_c, 0, 64, 64
2,60983, Control_c, 0, 64, 65
2,61017, Control_c, 0, 64, 64
2,61033, Control_c, 0, 64, 63
2,61049, Control_c, 0, 64, 61
2,61056, Note_on_c, 0, 59, 57
2,61064, Control_c, 0, 64, 58
2,61069, Note_on_c, 0, 50, 55
2,61069, Note_on_c, 0, 68, 72
2,61071, Note_on_c, 0, 69, 0
2,61079, Control_c, 0, 64, 53
2,61083, Note_on_c, 0, 54, 0
2,61084, Note_on_c, 0, 47, 0
2,61095, Control_c, 0, 64, 48
2,61109, Control_c, 0, 64, 44
2,61111, Note_on_c, 0, 49, 5
2,61124, Control_c, 0, 64, 41
2,61140, Control_c, 0, 64, 39
2,61154, Control_c, 0, 64, 39
2,61163, Note_on_c, 0, 49, 0
2,61170, Control_c, 0, 64, 38
2,61199, Note_on_c, 0, 59, 0
2,61200, Control_c, 0, 64, 38
2,61367, Note_on_c, 0, 57, 56
2,61377, Note_on_c, 0, 66, 64
2,61377, Note_on_c, 0, 68, 0
2,61645, Note_on_c, 0, 66, 0
2,61670, Note_on_c, 0, 56, 51
2,61676, Note_on_c, 0, 50, 0
2,61681, Note_on_c, 0, 65, 58
2,61685, Note_on_c, 0, 59, 52
2,61710, Control_c, 0, 64, 39
2,61722, Note_on_c, 0, 57, 0
2,61724, Control_c, 0, 64, 40
2,61740, Control_c, 0, 64, 40
2,61770, Control_c, 0, 64, 43
2,61785, Control_c, 0, 64, 46
2,61800, Control_c, 0, 64, 49
2,61816, Control_c, 0, 64, 52
2,61817, Note_on_c, 0, 56, 0
2,61831, Control_c, 0, 64, 54
2,61845, Control_c, 0, 64, 59
2,61860, Control_c, 0, 64, 63
2,61875, Control_c, 0, 64, 66
2,61891, Control_c, 0, 64, 70
2,61906, Control_c, 0, 64, 76
2,61921, Control_c, 0, 64, 85
2,61937, Control_c, 0, 64, 96
2,61952, Control_c, 0, 64, 108
2,61967, Control_c, 0, 64, 114
2,61982, Control_c, 0, 64, 108
2,61997, Control_c, 0, 64, 98
2,62006, Note_on_c, 0, 44, 60
2,62013, Control_c, 0, 64, 85
2,62028, Control_c, 0, 64, 74
2,62043, Control_c, 0, 64, 66
2,62059, Control_c, 0, 64, 61
2,62073, Control_c, 0, 64, 57
2,62089, Control_c, 0, 64, 55
2,62104, Control_c, 0, 64, 55
2,62172, Control_c, 0, 64, 54
2,62187, Control_c, 0, 64, 54
2,62218, Control_c, 0, 64, 53
2,62294, Control_c, 0, 64, 53
2,62303, Note_on_c, 0, 49, 53
2,62334, Note_on_c, 0, 44, 0
2,62339, Control_c, 0, 64, 52
2,62354, Control_c, 0, 64, 52
2,62385, Control_c, 0, 64, 51
2,62592, Note_on_c, 0, 49, 0
2,62616, Note_on_c, 0, 47, 46
2,62796, Note_on_c, 0, 65, 0
2,62892, Note_on_c, 0, 59, 0
2,62934, Note_on_c, 0, 45, 48
2,62938, Note_on_c, 0, 47, 0
2,63032, Control_c, 0, 67, 11
2,63046, Control_c, 0, 67, 50
2,63062, Control_c, 0, 67, 105
2,63077, Control_c, 0, 67, 127
2,63240, Note_on_c, 0, 54, 46
2,63251, Note_on_c, 0, 61, 50
2,63253, Note_on_c, 0, 57, 43
2,63374, Note_on_c, 0, 57, 0
2,63381, Note_on_c, 0, 61, 0
2,63384, Note_on_c, 0, 54, 0
2,63389, Note_on_c, 0, 45, 0
2,63389, Note_on_c, 0, 56, 43
2,63400, Note_on_c, 0, 59, 50
2,63523, Note_on_c, 0, 56, 0
2,63541, Note_on_c, 0, 59, 0
2,63564, Note_on_c, 0, 57, 42
2,63572, Note_on_c, 0, 66, 64
2,63586, Note_on_c, 0, 61, 46
2,63875, Note_on_c, 0, 47, 38
2,63884, Note_on_c, 0, 61, 0
2,63902, Note_on_c, 0, 62, 41
2,63918, Note_on_c, 0, 57, 0
2,64188, Note_on_c, 0, 47, 0
2,64195, Note_on_c, 0, 49, 30
2,64196, Note_on_c, 0, 62, 0
2,64209, Note_on_c, 0, 56, 40
2,64221, Note_on_c, 0, 61, 44
2,64535, Note_on_c, 0, 54, 31
2,64562, Note_on_c, 0, 56, 0
2,64856, Note_on_c, 0, 56, 41
2,64859, Note_on_c, 0, 66, 0
2,64865, Note_on_c, 0, 65, 51
2,64871, Note_on_c, 0, 54, 0
2,65038, Control_c, 0, 64, 53
2,65054, Control_c, 0, 64, 57
2,65068, Control_c, 0, 64, 61
2,65083, Control_c, 0, 64, 64
2,65099, Control_c, 0, 64, 65
2,65115, Control_c, 0, 64, 67
2,65131, Control_c, 0, 64, 70
2,65144, Note_on_c, 0, 56, 0
2,65146, Control_c, 0, 64, 73
2,65161, Control_c, 0, 64, 77
2,65169, Note_on_c, 0, 59, 39
2,65174, Note_on_c, 0, 61, 0
2,65176, Control_c, 0, 64, 82
2,65183, Note_on_c, 0, 49, 0
2,65185, Note_on_c, 0, 65, 0
2,65191, Control_c, 0, 64, 88
2,65206, Control_c, 0, 64, 94
2,65229, Control_c, 0, 64, 101
2,65244, Control_c, 0, 64, 113
2,65260, Control_c, 0, 64, 127
2,65304, Note_on_c, 0, 59, 0
2,65487, Control_c, 0, 64, 111
2,65502, Control_c, 0, 64, 93
2,65517, Control_c, 0, 64, 80
2,65523, Note_on_c, 0, 42, 39
2,65533, Control_c, 0, 64, 70
2,65541, Note_on_c, 0, 66, 48
2,65545, Note_on_c, 0, 57, 43
2,65548, Control_c, 0, 64, 59
2,65552, Note_on_c, 0, 54, 24
2,65563, Control_c, 0, 64, 39
2,65578, Control_c, 0, 64, 30
2,65593, Control_c, 0, 64, 34
2,65609, Control_c, 0, 64, 48
2,65624, Control_c, 0, 64, 59
2,65639, Control_c, 0, 64, 66
2,65654, Control_c, 0, 64, 72
2,65654, Control_c, 0, 67, 97
2,65669, Control_c, 0, 64, 78
2,65669, Control_c, 0, 67, 61
2,65679, Note_on_c, 0, 42, 0
2,65684, Control_c, 0, 64, 83
2,65684, Control_c, 0, 67, 18
2,65700, Control_c, 0, 64, 88
2,65700, Control_c, 0, 67, 0
2,65709, Note_on_c, 0, 57, 0
2,65715, Control_c, 0, 64, 91
2,65731, Control_c, 0, 64, 93
2,65738, Note_on_c, 0, 54, 0
2,65746, Control_c, 0, 64, 95
2,65761, Control_c, 0, 64, 95
2,65791, Control_c, 0, 64, 94
2,65806, Control_c, 0, 64, 93
2,65822, Control_c, 0, 64, 92
2,65836, Control_c, 0, 64, 91
2,65852, Control_c, 0, 64, 88
2,65867, Control_c, 0, 64, 83
2,65878, Note_on_c, 0, 57, 56
2,65880, Control_c, 0, 64, 78
2,65896, Control_c, 0, 64, 75
2,65910, Control_c, 0, 64, 74
2,65925, Control_c, 0, 64, 73
2,65942, Control_c, 0, 64, 72
2,65957, Control_c, 0, 64, 71
2,65972, Control_c, 0, 64, 70
2,65995, Control_c, 0, 64, 69
2,66025, Control_c, 0, 64, 68
2,66049, Note_on_c, 0, 57, 0
2,66056, Control_c, 0, 64, 68
2,66071, Control_c, 0, 64, 67
2,66086, Control_c, 0, 64, 66
2,66117, Control_c, 0, 64, 66
2,66131, Control_c, 0, 64, 65
2,66147, Control_c, 0, 64, 63
2,66162, Control_c, 0, 64, 62
2,66165, Note_on_c, 0, 66, 0
2,66178, Control_c, 0, 64, 61
2,66186, Note_on_c, 0, 57, 73
2,66208, Control_c, 0, 64, 60
2,66223, Control_c, 0, 64, 59
2,66238, Control_c, 0, 64, 58
2,66253, Control_c, 0, 64, 57
2,66268, Control_c, 0, 64, 56
2,66283, Control_c, 0, 64, 56
2,66344, Control_c, 0, 64, 55
2,66352, Note_on_c, 0, 57, 0
2,66479, Note_on_c, 0, 81, 71
2,66481, Note_on_c, 0, 57, 68
2,66588, Control_c, 0, 64, 56
2,66603, Control_c, 0, 64, 56
2,66661, Note_on_c, 0, 57, 0
2,66688, Note_on_c, 0, 81, 0
2,66805, Note_on_c, 0, 50, 65
2,66810, Note_on_c, 0, 81, 76
2,66986, Note_on_c, 0, 81, 0
2,67118, Note_on_c, 0, 81, 82
2,67129, Note_on_c, 0, 69, 64
2,67168, Note_on_c, 0, 69, 0
2,67374, Note_on_c, 0, 81, 0
2,67412, Note_on_c, 0, 74, 77
2,67420, Note_on_c, 0, 54, 57
2,67424, Note_on_c, 0, 50, 0
2,67427, Note_on_c, 0, 69, 69
2,67432, Control_c, 0, 64, 55
2,67447, Control_c, 0, 64, 55
2,67463, Control_c, 0, 64, 54
2,67477, Control_c, 0, 64, 54
2,67492, Control_c, 0, 64, 53
2,67492, Note_on_c, 0, 69, 0
2,67508, Control_c, 0, 64, 53
2,67530, Control_c, 0, 64, 52
2,67546, Control_c, 0, 64, 52
2,67593, Control_c, 0, 64, 51
2,67608, Control_c, 0, 64, 51
2,67624, Control_c, 0, 64, 50
2,67684, Control_c, 0, 64, 51
2,67700, Control_c, 0, 64, 55
2,67714, Control_c, 0, 64, 59
2,67719, Note_on_c, 0, 74, 0
2,67729, Control_c, 0, 64, 63
2,67733, Note_on_c, 0, 69, 74
2,67745, Control_c, 0, 64, 66
2,67759, Control_c, 0, 64, 70
2,67770, Note_on_c, 0, 69, 0
2,67774, Control_c, 0, 64, 75
2,67790, Control_c, 0, 64, 82
2,67805, Control_c, 0, 64, 94
2,67821, Control_c, 0, 64, 127
2,68067, Note_on_c, 0, 78, 78
2,68072, Note_on_c, 0, 62, 59
2,68079, Control_c, 0, 64, 111
2,68094, Control_c, 0, 64, 88
2,68109, Control_c, 0, 64, 75
2,68124, Control_c, 0, 64, 64
2,68140, Control_c, 0, 64, 57
2,68155, Control_c, 0, 64, 53
2,68169, Control_c, 0, 64, 52
2,68185, Control_c, 0, 64, 51
2,68216, Control_c, 0, 64, 51
2,68231, Control_c, 0, 64, 50
2,68245, Control_c, 0, 64, 49
2,68261, Control_c, 0, 64, 48
2,68276, Control_c, 0, 64, 47
2,68299, Control_c, 0, 64, 46
2,68340, Note_on_c, 0, 54, 0
2,68384, Note_on_c, 0, 50, 58
2,68386, Note_on_c, 0, 47, 52
2,68682, Note_on_c, 0, 55, 70
2,68688, Note_on_c, 0, 52, 62
2,68705, Note_on_c, 0, 47, 0
2,68714, Note_on_c, 0, 50, 0
2,68763, Note_on_c, 0, 62, 0
2,68805, Note_on_c, 0, 78, 0
2,68936, Note_on_c, 0, 55, 0
2,68969, Note_on_c, 0, 52, 0
2,68989, Note_on_c, 0, 54, 55
2,68990, Note_on_c, 0, 71, 73
2,68991, Note_on_c, 0, 50, 54
2,69258, Note_on_c, 0, 50, 0
2,69281, Note_on_c, 0, 54, 0
2,69282, Note_on_c, 0, 49, 50
2,69303, Note_on_c, 0, 52, 50
2,69303, Note_on_c, 0, 76, 78
2,69317, Note_on_c, 0, 71, 0
2,69536, Note_on_c, 0, 49, 0
2,69581, Note_on_c, 0, 76, 0
2,69592, Note_on_c, 0, 47, 48
2,69604, Note_on_c, 0, 74, 61
2,69608, Note_on_c, 0, 52, 0
2,69611, Note_on_c, 0, 64, 69
2,69675, Control_c, 0, 64, 50
2,69690, Control_c, 0, 64, 55
2,69703, Note_on_c, 0, 74, 0
2,69706, Control_c, 0, 64, 59
2,69721, Control_c, 0, 64, 63
2,69736, Control_c, 0, 64, 66
2,69751, Control_c, 0, 64, 69
2,69766, Control_c, 0, 64, 73
2,69781, Control_c, 0, 64, 76
2,69796, Control_c, 0, 64, 80
2,69811, Control_c, 0, 64, 82
2,69834, Control_c, 0, 64, 85
2,69849, Control_c, 0, 64, 85
2,69869, Note_on_c, 0, 64, 0
2,69880, Control_c, 0, 64, 84
2,69896, Control_c, 0, 64, 83
2,69911, Control_c, 0, 64, 82
2,69916, Note_on_c, 0, 47, 0
2,69926, Control_c, 0, 64, 80
2,69928, Note_on_c, 0, 45, 51
2,69930, Note_on_c, 0, 73, 75
2,69941, Control_c, 0, 64, 77
2,69950, Note_on_c, 0, 69, 56
2,69956, Control_c, 0, 64, 72
2,69971, Control_c, 0, 64, 66
2,69986, Control_c, 0, 64, 62
2,70001, Control_c, 0, 64, 58
2,70017, Control_c, 0, 64, 58
2,70093, Control_c, 0, 64, 57
2,70140, Control_c, 0, 64, 57
2,70222, Note_on_c, 0, 69, 0
2,70232, Note_on_c, 0, 52, 45
2,70257, Note_on_c, 0, 67, 51
2,70476, Note_on_c, 0, 52, 0
2,70488, Control_c, 0, 64, 58
2,70504, Control_c, 0, 64, 61
2,70510, Note_on_c, 0, 45, 0
2,70519, Control_c, 0, 64, 63
2,70529, Note_on_c, 0, 57, 49
2,70529, Note_on_c, 0, 67, 0
2,70534, Control_c, 0, 64, 64
2,70538, Note_on_c, 0, 66, 60
2,70550, Control_c, 0, 64, 65
2,70565, Control_c, 0, 64, 67
2,70581, Control_c, 0, 64, 70
2,70601, Note_on_c, 0, 57, 0
2,70603, Control_c, 0, 64, 73
2,70619, Control_c, 0, 64, 76
2,70633, Control_c, 0, 64, 78
2,70648, Control_c, 0, 64, 80
2,70664, Control_c, 0, 64, 82
2,70667, Note_on_c, 0, 73, 0
2,70679, Control_c, 0, 64, 82
2,70694, Control_c, 0, 64, 82
2,70755, Control_c, 0, 64, 81
2,70770, Control_c, 0, 64, 81
2,70785, Control_c, 0, 64, 80
2,70800, Control_c, 0, 64, 79
2,70816, Control_c, 0, 64, 78
2,70831, Control_c, 0, 64, 76
2,70846, Control_c, 0, 64, 73
2,70846, Note_on_c, 0, 69, 76
2,70862, Control_c, 0, 64, 72
2,70862, Note_on_c, 0, 66, 0
2,70892, Control_c, 0, 64, 72
2,70938, Control_c, 0, 64, 72
2,71030, Control_c, 0, 64, 72
2,71060, Control_c, 0, 64, 71
2,71075, Control_c, 0, 64, 70
2,71090, Control_c, 0, 64, 69
2,71106, Control_c, 0, 64, 69
2,71121, Control_c, 0, 64, 68
2,71124, Note_on_c, 0, 59, 72
2,71136, Control_c, 0, 64, 67
2,71137, Note_on_c, 0, 74, 74
2,71151, Control_c, 0, 64, 65
2,71166, Control_c, 0, 64, 63
2,71182, Control_c, 0, 64, 61
2,71188, Note_on_c, 0, 69, 0
2,71197, Control_c, 0, 64, 60
2,71211, Control_c, 0, 64, 59
2,71227, Control_c, 0, 64, 58
2,71242, Control_c, 0, 64, 57
2,71287, Control_c, 0, 64, 58
2,71303, Control_c, 0, 64, 59
2,71332, Control_c, 0, 64, 59
2,71348, Control_c, 0, 64, 60
2,71371, Control_c, 0, 64, 60
2,71387, Control_c, 0, 64, 61
2,71402, Control_c, 0, 64, 62
2,71413, Note_on_c, 0, 59, 0
2,71417, Control_c, 0, 64, 62
2,71432, Control_c, 0, 64, 64
2,71437, Note_on_c, 0, 72, 64
2,71447, Control_c, 0, 64, 65
2,71461, Note_on_c, 0, 62, 50
2,71463, Control_c, 0, 64, 66
2,71470, Note_on_c, 0, 74, 0
2,71477, Control_c, 0, 64, 67
2,71492, Control_c, 0, 64, 69
2,71505, Note_on_c, 0, 72, 0
2,71508, Control_c, 0, 64, 72
2,71523, Control_c, 0, 64, 75
2,71539, Control_c, 0, 64, 78
2,71553, Control_c, 0, 64, 81
2,71568, Control_c, 0, 64, 83
2,71584, Control_c, 0, 64, 84
2,71598, Control_c, 0, 64, 85
2,71706, Control_c, 0, 64, 84
2,71752, Control_c, 0, 64, 84
2,71755, Note_on_c, 0, 62, 0
2,71767, Note_on_c, 0, 71, 71
2,71781, Note_on_c, 0, 67, 57
2,71797, Control_c, 0, 64, 83
2,71812, Control_c, 0, 64, 83
2,71828, Control_c, 0, 64, 82
2,71965, Control_c, 0, 64, 82
2,71980, Control_c, 0, 64, 81
2,71995, Control_c, 0, 64, 81
2,72010, Control_c, 0, 64, 80
2,72026, Control_c, 0, 64, 78
2,72041, Control_c, 0, 64, 72
2,72041, Note_on_c, 0, 67, 0
2,72056, Control_c, 0, 64, 66
2,72067, Note_on_c, 0, 66, 65
2,72071, Control_c, 0, 64, 61
2,72078, Note_on_c, 0, 47, 49
2,72086, Control_c, 0, 64, 60
2,72091, Note_on_c, 0, 57, 35
2,72101, Control_c, 0, 64, 61
2,72116, Control_c, 0, 64, 63
2,72140, Control_c, 0, 64, 66
2,72155, Control_c, 0, 64, 69
2,72165, Note_on_c, 0, 71, 0
2,72170, Control_c, 0, 64, 72
2,72185, Control_c, 0, 64, 75
2,72200, Control_c, 0, 64, 78
2,72216, Control_c, 0, 64, 82
2,72219, Note_on_c, 0, 57, 0
2,72231, Control_c, 0, 64, 86
2,72245, Control_c, 0, 64, 91
2,72261, Control_c, 0, 64, 94
2,72276, Control_c, 0, 64, 95
2,72347, Note_on_c, 0, 66, 0
2,72352, Control_c, 0, 64, 94
2,72367, Control_c, 0, 64, 93
2,72397, Control_c, 0, 64, 92
2,72412, Control_c, 0, 64, 91
2,72416, Note_on_c, 0, 64, 71
2,72422, Note_on_c, 0, 55, 53
2,72423, Note_on_c, 0, 47, 0
2,72428, Control_c, 0, 64, 86
2,72429, Note_on_c, 0, 52, 53
2,72442, Control_c, 0, 64, 79
2,72458, Control_c, 0, 64, 74
2,72473, Control_c, 0, 64, 70
2,72489, Control_c, 0, 64, 68
2,72505, Control_c, 0, 64, 65
2,72520, Control_c, 0, 64, 63
2,72536, Control_c, 0, 64, 61
2,72550, Control_c, 0, 64, 60
2,72565, Control_c, 0, 64, 59
2,72640, Control_c, 0, 64, 58
2,72656, Control_c, 0, 64, 58
2,72700, Note_on_c, 0, 52, 0
2,72724, Note_on_c, 0, 71, 68
2,72726, Note_on_c, 0, 50, 53
2,72736, Note_on_c, 0, 72, 60
2,72766, Note_on_c, 0, 72, 0
2,72921, Control_c, 0, 64, 57
2,72966, Control_c, 0, 64, 57
2,72982, Control_c, 0, 64, 56
2,72997, Control_c, 0, 64, 56
2,73012, Control_c, 0, 64, 55
2,73027, Control_c, 0, 64, 55
2,73045, Note_on_c, 0, 48, 57
2,73047, Note_on_c, 0, 76, 82
2,73060, Note_on_c, 0, 50, 0
2,73074, Note_on_c, 0, 77, 44
2,73075, Note_on_c, 0, 77, 0
2,73079, Note_on_c, 0, 71, 0
2,73133, Control_c, 0, 64, 55
2,73149, Control_c, 0, 64, 58
2,73164, Control_c, 0, 64, 61
2,73164, Note_on_c, 0, 48, 0
2,73179, Control_c, 0, 64, 64
2,73194, Control_c, 0, 64, 66
2,73209, Control_c, 0, 64, 68
2,73225, Control_c, 0, 64, 70
2,73240, Control_c, 0, 64, 72
2,73256, Control_c, 0, 64, 74
2,73271, Control_c, 0, 64, 74
2,73285, Control_c, 0, 64, 75
2,73317, Control_c, 0, 64, 73
2,73329, Note_on_c, 0, 76, 0
2,73332, Control_c, 0, 64, 70
2,73347, Control_c, 0, 64, 66
2,73352, Note_on_c, 0, 55, 0
2,73353, Note_on_c, 0, 47, 50
2,73355, Note_on_c, 0, 74, 81
2,73361, Note_on_c, 0, 52, 56
2,73362, Control_c, 0, 64, 61
2,73378, Control_c, 0, 64, 57
2,73408, Control_c, 0, 64, 58
2,73424, Control_c, 0, 64, 59
2,73439, Control_c, 0, 64, 60
2,73574, Note_on_c, 0, 64, 0
2,73645, Note_on_c, 0, 47, 0
2,73659, Note_on_c, 0, 45, 49
2,73659, Note_on_c, 0, 74, 0
2,73662, Note_on_c, 0, 72, 82
2,73680, Note_on_c, 0, 52, 0
2,73680, Note_on_c, 0, 57, 53
2,73795, Control_c, 0, 64, 60
2,73946, Note_on_c, 0, 57, 0
2,73982, Note_on_c, 0, 55, 47
2,73986, Note_on_c, 0, 64, 60
2,74258, Note_on_c, 0, 55, 0
2,74272, Note_on_c, 0, 54, 49
2,74283, Note_on_c, 0, 64, 0
2,74283, Note_on_c, 0, 69, 60
2,74573, Note_on_c, 0, 69, 0
2,74583, Note_on_c, 0, 54, 0
2,74589, Note_on_c, 0, 67, 59
2,74610, Note_on_c, 0, 52, 42
2,74649, Note_on_c, 0, 45, 0
2,74841, Note_on_c, 0, 52, 0
2,74892, Note_on_c, 0, 50, 44
2,74901, Note_on_c, 0, 66, 55
2,74906, Note_on_c, 0, 47, 30
2,74907, Note_on_c, 0, 67, 0
2,74983, Note_on_c, 0, 72, 0
2,75186, Note_on_c, 0, 66, 0
2,75212, Note_on_c, 0, 54, 43
2,75214, Note_on_c, 0, 62, 53
2,75506, Note_on_c, 0, 50, 0
2,75515, Note_on_c, 0, 47, 0
2,75515, Note_on_c, 0, 54, 0
2,75520, Note_on_c, 0, 71, 66
2,75524, Note_on_c, 0, 62, 0
2,75527, Note_on_c, 0, 59, 44
2,75530, Note_on_c, 0, 67, 56
2,75738, Note_on_c, 0, 67, 0
2,75773, Control_c, 0, 64, 60
2,75784, Note_on_c, 0, 59, 0
2,75818, Note_on_c, 0, 57, 46
2,75820, Note_on_c, 0, 66, 53
2,75826, Note_on_c, 0, 50, 35
2,76105, Note_on_c, 0, 57, 0
2,76148, Note_on_c, 0, 64, 45
2,76151, Note_on_c, 0, 66, 0
2,76156, Note_on_c, 0, 55, 31
2,76421, Note_on_c, 0, 64, 0
2,76436, Note_on_c, 0, 55, 0
2,76444, Note_on_c, 0, 54, 34
2,76457, Note_on_c, 0, 62, 41
2,76541, Note_on_c, 0, 50, 0
2,76698, Note_on_c, 0, 54, 0
2,76733, Note_on_c, 0, 71, 0
2,76746, Note_on_c, 0, 52, 41
2,76755, Note_on_c, 0, 62, 0
2,76759, Note_on_c, 0, 55, 34
2,76768, Note_on_c, 0, 60, 47
2,76996, Note_on_c, 0, 52, 0
2,77045, Note_on_c, 0, 69, 65
2,77048, Note_on_c, 0, 57, 37
2,77049, Note_on_c, 0, 54, 41
2,77054, Note_on_c, 0, 55, 0
2,77080, Control_c, 0, 64, 61
2,77111, Control_c, 0, 64, 61
2,77142, Control_c, 0, 64, 62
2,77218, Control_c, 0, 64, 61
2,77278, Control_c, 0, 64, 61
2,77282, Note_on_c, 0, 57, 0
2,77356, Note_on_c, 0, 55, 42
2,77361, Note_on_c, 0, 60, 0
2,77369, Control_c, 0, 64, 60
2,77370, Note_on_c, 0, 54, 0
2,77386, Note_on_c, 0, 59, 49
2,77415, Control_c, 0, 64, 61
2,77431, Control_c, 0, 64, 61
2,77446, Control_c, 0, 64, 62
2,77461, Control_c, 0, 64, 63
2,77476, Control_c, 0, 64, 65
2,77491, Control_c, 0, 64, 67
2,77514, Control_c, 0, 64, 68
2,77518, Note_on_c, 0, 69, 0
2,77529, Control_c, 0, 64, 70
2,77545, Control_c, 0, 64, 71
2,77560, Control_c, 0, 64, 72
2,77591, Control_c, 0, 64, 72
2,77606, Control_c, 0, 64, 72
2,77621, Control_c, 0, 64, 71
2,77636, Control_c, 0, 64, 70
2,77651, Control_c, 0, 64, 69
2,77666, Control_c, 0, 64, 67
2,77681, Control_c, 0, 64, 63
2,77697, Control_c, 0, 64, 60
2,77705, Note_on_c, 0, 52, 34
2,77712, Control_c, 0, 64, 59
2,77714, Note_on_c, 0, 67, 55
2,77719, Note_on_c, 0, 59, 0
2,77727, Note_on_c, 0, 64, 41
2,77742, Control_c, 0, 64, 61
2,77757, Control_c, 0, 64, 64
2,77772, Control_c, 0, 64, 66
2,77785, Note_on_c, 0, 52, 0
2,77788, Control_c, 0, 64, 69
2,77790, Note_on_c, 0, 55, 0
2,77803, Control_c, 0, 64, 70
2,77818, Control_c, 0, 64, 72
2,77833, Control_c, 0, 64, 74
2,77848, Control_c, 0, 64, 76
2,77863, Control_c, 0, 64, 78
2,77878, Control_c, 0, 64, 79
2,77909, Control_c, 0, 64, 79
2,77955, Control_c, 0, 64, 79
2,77970, Control_c, 0, 64, 78
2,77986, Control_c, 0, 64, 75
2,78001, Control_c, 0, 64, 71
2,78015, Control_c, 0, 64, 66
2,78031, Control_c, 0, 64, 63
2,78031, Note_on_c, 0, 57, 42
2,78032, Note_on_c, 0, 48, 40
2,78046, Control_c, 0, 64, 60
2,78062, Control_c, 0, 64, 59
2,78077, Control_c, 0, 64, 60
2,78092, Control_c, 0, 64, 61
2,78108, Control_c, 0, 64, 62
2,78123, Control_c, 0, 64, 64
2,78138, Control_c, 0, 64, 66
2,78153, Control_c, 0, 64, 68
2,78168, Control_c, 0, 64, 70
2,78181, Note_on_c, 0, 67, 0
2,78184, Control_c, 0, 64, 72
2,78198, Control_c, 0, 64, 74
2,78213, Control_c, 0, 64, 76
2,78230, Control_c, 0, 64, 77
2,78288, Note_on_c, 0, 48, 0
2,78313, Control_c, 0, 64, 77
2,78328, Control_c, 0, 64, 76
2,78329, Note_on_c, 0, 45, 42
2,78337, Note_on_c, 0, 64, 0
2,78344, Control_c, 0, 64, 73
2,78355, Note_on_c, 0, 66, 52
2,78359, Control_c, 0, 64, 71
2,78389, Control_c, 0, 64, 72
2,78404, Control_c, 0, 64, 73
2,78407, Note_on_c, 0, 67, 50
2,78420, Control_c, 0, 64, 74
2,78432, Note_on_c, 0, 67, 0
2,78435, Control_c, 0, 64, 75
2,78450, Control_c, 0, 64, 76
2,78480, Control_c, 0, 64, 75
2,78495, Control_c, 0, 64, 75
2,78500, Note_on_c, 0, 66, 0
2,78510, Note_on_c, 0, 45, 0
2,78511, Control_c, 0, 64, 74
2,78521, Note_on_c, 0, 64, 59
2,78538, Note_on_c, 0, 57, 0
2,78542, Control_c, 0, 64, 73
2,78557, Control_c, 0, 64, 72
2,78572, Control_c, 0, 64, 71
2,78587, Control_c, 0, 64, 71
2,78602, Control_c, 0, 64, 70
2,78618, Control_c, 0, 64, 69
2,78633, Control_c, 0, 64, 68
2,78648, Control_c, 0, 64, 66
2,78653, Note_on_c, 0, 64, 0
2,78661, Note_on_c, 0, 66, 67
2,78662, Note_on_c, 0, 50, 53
2,78663, Control_c, 0, 64, 63
2,78678, Control_c, 0, 64, 59
2,78693, Control_c, 0, 64, 58
2,78704, Note_on_c, 0, 62, 48
2,78708, Control_c, 0, 64, 59
2,78723, Control_c, 0, 64, 60
2,78739, Control_c, 0, 64, 63
2,78754, Control_c, 0, 64, 66
2,78769, Control_c, 0, 64, 69
2,78784, Control_c, 0, 64, 74
2,78799, Control_c, 0, 64, 77
2,78814, Control_c, 0, 64, 77
2,78963, Note_on_c, 0, 50, 0
2,78966, Control_c, 0, 64, 78
2,78971, Note_on_c, 0, 48, 52
2,78982, Control_c, 0, 64, 79
2,78997, Control_c, 0, 64, 78
2,79012, Control_c, 0, 64, 78
2,79067, Control_c, 0, 64, 78
2,79112, Control_c, 0, 64, 79
2,79172, Control_c, 0, 64, 78
2,79188, Control_c, 0, 64, 77
2,79203, Control_c, 0, 64, 75
2,79219, Control_c, 0, 64, 69
2,79233, Control_c, 0, 64, 63
2,79248, Control_c, 0, 64, 56
2,79264, Control_c, 0, 64, 51
2,79279, Control_c, 0, 64, 50
2,79294, Control_c, 0, 64, 51
2,79294, Note_on_c, 0, 66, 0
2,79309, Control_c, 0, 64, 55
2,79309, Note_on_c, 0, 67, 73
2,79312, Note_on_c, 0, 47, 41
2,79312, Note_on_c, 0, 55, 54
2,79313, Note_on_c, 0, 48, 0
2,79324, Control_c, 0, 64, 60
2,79340, Control_c, 0, 64, 63
2,79342, Note_on_c, 0, 47, 0
2,79352, Note_on_c, 0, 55, 0
2,79355, Control_c, 0, 64, 67
2,79370, Control_c, 0, 64, 70
2,79386, Control_c, 0, 64, 75
2,79401, Control_c, 0, 64, 81
2,79417, Control_c, 0, 64, 86
2,79431, Control_c, 0, 64, 90
2,79437, Note_on_c, 0, 62, 0
2,79446, Control_c, 0, 64, 93
2,79458, Note_on_c, 0, 67, 0
2,79462, Control_c, 0, 64, 94
2,79476, Control_c, 0, 64, 95
2,79537, Control_c, 0, 64, 94
2,79551, Control_c, 0, 64, 93
2,79566, Control_c, 0, 64, 90
2,79582, Control_c, 0, 64, 85
2,79597, Control_c, 0, 64, 77
2,79612, Control_c, 0, 64, 70
2,79617, Note_on_c, 0, 50, 65
2,79623, Note_on_c, 0, 62, 86
2,79627, Control_c, 0, 64, 65
2,79642, Control_c, 0, 64, 60
2,79658, Control_c, 0, 64, 56
2,79673, Control_c, 0, 64, 53
2,79688, Control_c, 0, 64, 49
2,79704, Control_c, 0, 64, 46
2,79719, Control_c, 0, 64, 45
2,79783, Note_on_c, 0, 62, 0
2,79910, Control_c, 0, 64, 44
2,79947, Note_on_c, 0, 55, 70
2,79949, Note_on_c, 0, 62, 80
2,79989, Note_on_c, 0, 50, 0
2,80142, Note_on_c, 0, 62, 0
2,80242, Control_c, 0, 64, 45
2,80245, Note_on_c, 0, 71, 83
2,80246, Note_on_c, 0, 54, 66
2,80253, Note_on_c, 0, 62, 73
2,80257, Control_c, 0, 64, 46
2,80272, Control_c, 0, 64, 47
2,80287, Control_c, 0, 64, 49
2,80291, Note_on_c, 0, 55, 0
2,80302, Control_c, 0, 64, 53
2,80317, Control_c, 0, 64, 58
2,80332, Control_c, 0, 64, 60
2,80348, Control_c, 0, 64, 63
2,80363, Control_c, 0, 64, 64
2,80378, Control_c, 0, 64, 66
2,80380, Note_on_c, 0, 71, 0
2,80393, Control_c, 0, 64, 69
2,80408, Control_c, 0, 64, 70
2,80424, Control_c, 0, 64, 71
2,80434, Note_on_c, 0, 62, 0
2,80439, Control_c, 0, 64, 69
2,80442, Note_on_c, 0, 54, 0
2,80454, Control_c, 0, 64, 67
2,80469, Control_c, 0, 64, 64
2,80484, Control_c, 0, 64, 62
2,80499, Control_c, 0, 64, 60
2,80515, Control_c, 0, 64, 58
2,80530, Control_c, 0, 64, 56
2,80542, Note_on_c, 0, 52, 66
2,80545, Control_c, 0, 64, 53
2,80545, Note_on_c, 0, 55, 73
2,80547, Note_on_c, 0, 71, 91
2,80560, Control_c, 0, 64, 51
2,80584, Control_c, 0, 64, 49
2,80599, Control_c, 0, 64, 48
2,80629, Control_c, 0, 64, 49
2,80644, Control_c, 0, 64, 55
2,80659, Control_c, 0, 64, 60
2,80675, Control_c, 0, 64, 62
2,80691, Control_c, 0, 64, 64
2,80706, Control_c, 0, 64, 65
2,80706, Note_on_c, 0, 71, 0
2,80721, Control_c, 0, 64, 66
2,80736, Control_c, 0, 64, 67
2,80752, Control_c, 0, 64, 68
2,80766, Control_c, 0, 64, 68
2,80781, Control_c, 0, 64, 69
2,80812, Control_c, 0, 64, 68
2,80828, Control_c, 0, 64, 67
2,80842, Control_c, 0, 64, 65
2,80848, Note_on_c, 0, 71, 87
2,80852, Note_on_c, 0, 79, 88
2,80857, Control_c, 0, 64, 65
2,80859, Note_on_c, 0, 55, 0
2,80873, Control_c, 0, 64, 64
2,80888, Control_c, 0, 64, 65
2,80904, Control_c, 0, 64, 67
2,80918, Control_c, 0, 64, 69
2,80921, Note_on_c, 0, 71, 0
2,80933, Control_c, 0, 64, 72
2,80949, Control_c, 0, 64, 75
2,80955, Note_on_c, 0, 79, 0
2,80964, Control_c, 0, 64, 77
2,80979, Control_c, 0, 64, 79
2,80995, Control_c, 0, 64, 80
2,81025, Control_c, 0, 64, 80
2,81055, Control_c, 0, 64, 79
2,81071, Control_c, 0, 64, 78
2,81086, Control_c, 0, 64, 75
2,81101, Control_c, 0, 64, 72
2,81116, Control_c, 0, 64, 68
2,81131, Control_c, 0, 64, 67
2,81147, Control_c, 0, 64, 64
2,81162, Control_c, 0, 64, 62
2,81175, Note_on_c, 0, 64, 78
2,81176, Control_c, 0, 64, 58
2,81178, Note_on_c, 0, 79, 88
2,81184, Note_on_c, 0, 59, 71
2,81192, Control_c, 0, 64, 53
2,81207, Control_c, 0, 64, 48
2,81222, Control_c, 0, 64, 45
2,81238, Control_c, 0, 64, 43
2,81252, Control_c, 0, 64, 41
2,81268, Control_c, 0, 64, 40
2,81283, Control_c, 0, 64, 39
2,81298, Control_c, 0, 64, 38
2,81313, Control_c, 0, 64, 37
2,81358, Note_on_c, 0, 79, 0
2,81381, Control_c, 0, 64, 40
2,81397, Control_c, 0, 64, 47
2,81412, Control_c, 0, 64, 54
2,81428, Control_c, 0, 64, 57
2,81443, Control_c, 0, 64, 61
2,81457, Control_c, 0, 64, 64
2,81473, Control_c, 0, 64, 67
2,81483, Note_on_c, 0, 79, 91
2,81488, Control_c, 0, 64, 71
2,81505, Control_c, 0, 64, 76
2,81514, Note_on_c, 0, 64, 0
2,81520, Control_c, 0, 64, 82
2,81535, Control_c, 0, 64, 89
2,81550, Control_c, 0, 64, 97
2,81565, Control_c, 0, 64, 103
2,81580, Control_c, 0, 64, 106
2,81598, Note_on_c, 0, 79, 0
2,81604, Note_on_c, 0, 59, 0
2,81610, Control_c, 0, 64, 106
2,81626, Control_c, 0, 64, 107
2,81641, Control_c, 0, 64, 107
2,81732, Control_c, 0, 64, 105
2,81748, Control_c, 0, 64, 104
2,81762, Control_c, 0, 64, 103
2,81777, Control_c, 0, 64, 101
2,81793, Control_c, 0, 64, 99
2,81794, Note_on_c, 0, 73, 88
2,81796, Note_on_c, 0, 52, 0
2,81799, Note_on_c, 0, 67, 65
2,81808, Control_c, 0, 64, 94
2,81824, Control_c, 0, 64, 87
2,81839, Control_c, 0, 64, 79
2,81854, Control_c, 0, 64, 73
2,81870, Control_c, 0, 64, 68
2,81884, Control_c, 0, 64, 65
2,81899, Control_c, 0, 64, 63
2,81915, Control_c, 0, 64, 62
2,81930, Control_c, 0, 64, 61
2,81946, Control_c, 0, 64, 60
2,81961, Control_c, 0, 64, 59
2,81976, Control_c, 0, 64, 58
2,81991, Control_c, 0, 64, 57
2,82006, Control_c, 0, 64, 56
2,82021, Control_c, 0, 64, 55
2,82037, Control_c, 0, 64, 55
2,82082, Control_c, 0, 64, 54
2,82097, Control_c, 0, 64, 53
2,82106, Note_on_c, 0, 50, 58
2,82119, Note_on_c, 0, 52, 62
2,82120, Control_c, 0, 64, 53
2,82444, Note_on_c, 0, 49, 47
2,82445, Note_on_c, 0, 57, 54
2,82447, Note_on_c, 0, 76, 82
2,82453, Note_on_c, 0, 52, 0
2,82453, Note_on_c, 0, 67, 0
2,82455, Control_c, 0, 64, 55
2,82471, Control_c, 0, 64, 58
2,82471, Note_on_c, 0, 50, 0
2,82471, Note_on_c, 0, 73, 0
2,82486, Control_c, 0, 64, 61
2,82501, Control_c, 0, 64, 64
2,82517, Control_c, 0, 64, 67
2,82531, Control_c, 0, 64, 70
2,82547, Control_c, 0, 64, 73
2,82562, Control_c, 0, 64, 77
2,82566, Note_on_c, 0, 57, 0
2,82576, Control_c, 0, 64, 79
2,82578, Note_on_c, 0, 49, 0
2,82592, Control_c, 0, 64, 82
2,82607, Control_c, 0, 64, 86
2,82622, Control_c, 0, 64, 91
2,82638, Control_c, 0, 64, 96
2,82652, Control_c, 0, 64, 96
2,82668, Control_c, 0, 64, 96
2,82698, Control_c, 0, 64, 95
2,82714, Control_c, 0, 64, 94
2,82728, Control_c, 0, 64, 91
2,82744, Control_c, 0, 64, 85
2,82745, Note_on_c, 0, 45, 49
2,82756, Note_on_c, 0, 61, 65
2,82759, Control_c, 0, 64, 77
2,82762, Note_on_c, 0, 55, 48
2,82774, Control_c, 0, 64, 70
2,82789, Control_c, 0, 64, 66
2,82804, Control_c, 0, 64, 63
2,82819, Control_c, 0, 64, 62
2,82835, Control_c, 0, 64, 61
2,82850, Control_c, 0, 64, 60
2,82888, Control_c, 0, 64, 59
2,83040, Control_c, 0, 64, 59
2,83052, Note_on_c, 0, 55, 0
2,83071, Control_c, 0, 64, 58
2,83073, Note_on_c, 0, 45, 0
2,83080, Note_on_c, 0, 50, 44
2,83084, Note_on_c, 0, 66, 65
2,83089, Note_on_c, 0, 54, 40
2,83091, Note_on_c, 0, 61, 0
2,83142, Note_on_c, 0, 76, 0
2,83177, Control_c, 0, 64, 59
2,83208, Control_c, 0, 64, 59
2,83346, Control_c, 0, 64, 59
2,83371, Note_on_c, 0, 66, 0
2,83388, Note_on_c, 0, 69, 70
2,83391, Control_c, 0, 64, 58
2,83392, Note_on_c, 0, 64, 54
2,83393, Note_on_c, 0, 48, 46
2,83394, Note_on_c, 0, 50, 0
2,83420, Control_c, 0, 64, 58
2,83482, Control_c, 0, 64, 59
2,83496, Control_c, 0, 64, 60
2,83512, Control_c, 0, 64, 62
2,83527, Control_c, 0, 64, 64
2,83542, Control_c, 0, 64, 65
2,83558, Control_c, 0, 64, 66
2,83559, Note_on_c, 0, 64, 0
2,83572, Control_c, 0, 64, 68
2,83588, Control_c, 0, 64, 69
2,83603, Control_c, 0, 64, 71
2,83617, Control_c, 0, 64, 73
2,83633, Control_c, 0, 64, 73
2,83656, Control_c, 0, 64, 73
2,83672, Control_c, 0, 64, 70
2,83687, Control_c, 0, 64, 66
2,83701, Control_c, 0, 64, 59
2,83708, Note_on_c, 0, 47, 43
2,83714, Note_on_c, 0, 74, 74
2,83717, Control_c, 0, 64, 52
2,83728, Note_on_c, 0, 62, 50
2,83731, Note_on_c, 0, 69, 0
2,83732, Control_c, 0, 64, 49
2,83763, Control_c, 0, 64, 52
2,83777, Control_c, 0, 64, 59
2,83793, Control_c, 0, 64, 64
2,83808, Control_c, 0, 64, 66
2,83824, Control_c, 0, 64, 69
2,83838, Control_c, 0, 64, 72
2,83853, Control_c, 0, 64, 76
2,83869, Control_c, 0, 64, 80
2,83884, Control_c, 0, 64, 84
2,83890, Note_on_c, 0, 47, 0
2,83899, Control_c, 0, 64, 88
2,83914, Control_c, 0, 64, 91
2,83914, Note_on_c, 0, 48, 0
2,83929, Control_c, 0, 64, 92
2,83945, Control_c, 0, 64, 91
2,83961, Control_c, 0, 64, 87
2,83976, Control_c, 0, 64, 80
2,83992, Control_c, 0, 64, 68
2,84007, Control_c, 0, 64, 61
2,84021, Control_c, 0, 64, 57
2,84028, Note_on_c, 0, 74, 0
2,84033, Note_on_c, 0, 72, 65
2,84035, Note_on_c, 0, 45, 46
2,84052, Control_c, 0, 64, 59
2,84067, Control_c, 0, 64, 62
2,84082, Control_c, 0, 64, 65
2,84097, Control_c, 0, 64, 68
2,84106, Note_on_c, 0, 72, 0
2,84112, Control_c, 0, 64, 71
2,84127, Control_c, 0, 64, 74
2,84141, Control_c, 0, 64, 78
2,84153, Note_on_c, 0, 45, 0
2,84157, Control_c, 0, 64, 82
2,84172, Control_c, 0, 64, 87
2,84188, Control_c, 0, 64, 93
2,84190, Note_on_c, 0, 54, 0
2,84203, Control_c, 0, 64, 99
2,84217, Control_c, 0, 64, 104
2,84233, Control_c, 0, 64, 105
2,84278, Control_c, 0, 64, 102
2,84293, Control_c, 0, 64, 98
2,84309, Control_c, 0, 64, 95
2,84324, Control_c, 0, 64, 91
2,84339, Control_c, 0, 64, 85
2,84342, Note_on_c, 0, 43, 46
2,84344, Note_on_c, 0, 71, 69
2,84355, Control_c, 0, 64, 78
2,84370, Control_c, 0, 64, 70
2,84385, Control_c, 0, 64, 64
2,84400, Control_c, 0, 64, 62
2,84422, Control_c, 0, 64, 60
2,84438, Control_c, 0, 64, 59
2,84453, Control_c, 0, 64, 59
2,84468, Control_c, 0, 64, 56
2,84483, Control_c, 0, 64, 54
2,84498, Control_c, 0, 64, 51
2,84514, Control_c, 0, 64, 49
2,84529, Control_c, 0, 64, 49
2,84559, Control_c, 0, 64, 48
2,84574, Control_c, 0, 64, 48
2,84676, Note_on_c, 0, 47, 46
2,84681, Control_c, 0, 64, 50
2,84696, Control_c, 0, 64, 54
2,84712, Control_c, 0, 64, 60
2,84727, Control_c, 0, 64, 64
2,84742, Control_c, 0, 64, 66
2,84757, Control_c, 0, 64, 70
2,84763, Note_on_c, 0, 43, 0
2,84773, Control_c, 0, 64, 72
2,84789, Control_c, 0, 64, 74
2,84804, Control_c, 0, 64, 75
2,84843, Note_on_c, 0, 62, 0
2,84880, Control_c, 0, 64, 75
2,84895, Control_c, 0, 64, 74
2,84910, Control_c, 0, 64, 73
2,84925, Control_c, 0, 64, 69
2,84940, Control_c, 0, 64, 65
2,84951, Note_on_c, 0, 47, 0
2,84956, Control_c, 0, 64, 61
2,84971, Control_c, 0, 64, 58
2,84986, Control_c, 0, 64, 55
2,84986, Note_on_c, 0, 44, 40
2,84988, Note_on_c, 0, 52, 43
2,85001, Control_c, 0, 64, 53
2,85016, Control_c, 0, 64, 52
2,85032, Control_c, 0, 64, 51
2,85047, Control_c, 0, 64, 50
2,85061, Control_c, 0, 64, 50
2,85092, Control_c, 0, 64, 49
2,85107, Control_c, 0, 64, 49
2,85241, Note_on_c, 0, 52, 0
2,85282, Control_c, 0, 64, 48
2,85287, Note_on_c, 0, 50, 44
2,85297, Control_c, 0, 64, 48
2,85299, Note_on_c, 0, 59, 50
2,85342, Control_c, 0, 64, 51
2,85358, Control_c, 0, 64, 57
2,85373, Control_c, 0, 64, 61
2,85388, Control_c, 0, 64, 64
2,85403, Control_c, 0, 64, 66
2,85418, Control_c, 0, 64, 69
2,85434, Control_c, 0, 64, 73
2,85449, Control_c, 0, 64, 78
2,85465, Control_c, 0, 64, 82
2,85468, Note_on_c, 0, 44, 0
2,85480, Control_c, 0, 64, 86
2,85495, Control_c, 0, 64, 87
2,85510, Control_c, 0, 64, 86
2,85525, Control_c, 0, 64, 83
2,85540, Control_c, 0, 64, 77
2,85556, Control_c, 0, 64, 70
2,85571, Control_c, 0, 64, 65
2,85587, Control_c, 0, 64, 61
2,85587, Note_on_c, 0, 49, 31
2,85592, Note_on_c, 0, 45, 30
2,85602, Control_c, 0, 64, 58
2,85602, Note_on_c, 0, 50, 0
2,85611, Note_on_c, 0, 64, 46
2,85617, Control_c, 0, 64, 56
2,85664, Control_c, 0, 64, 59
2,85679, Control_c, 0, 64, 62
2,85693, Control_c, 0, 64, 64
2,85709, Control_c, 0, 64, 67
2,85712, Note_on_c, 0, 71, 0
2,85724, Control_c, 0, 64, 69
2,85737, Note_on_c, 0, 59, 0
2,85739, Control_c, 0, 64, 71
2,85755, Control_c, 0, 64, 72
2,85763, Note_on_c, 0, 64, 0
2,85770, Control_c, 0, 64, 73
2,85801, Control_c, 0, 64, 72
2,85816, Control_c, 0, 64, 71
2,85831, Control_c, 0, 64, 71
2,85846, Control_c, 0, 64, 69
2,85861, Control_c, 0, 64, 67
2,85876, Control_c, 0, 64, 64
2,85891, Control_c, 0, 64, 61
2,85905, Note_on_c, 0, 49, 0
2,85907, Control_c, 0, 64, 58
2,85914, Note_on_c, 0, 64, 67
2,85921, Note_on_c, 0, 50, 41
2,85922, Control_c, 0, 64, 57
2,85932, Note_on_c, 0, 62, 54
2,85937, Control_c, 0, 64, 57
2,85975, Control_c, 0, 64, 56
2,85990, Control_c, 0, 64, 55
2,86005, Control_c, 0, 64, 53
2,86020, Control_c, 0, 64, 52
2,86204, Note_on_c, 0, 62, 0
2,86248, Note_on_c, 0, 69, 68
2,86250, Note_on_c, 0, 61, 51
2,86255, Note_on_c, 0, 64, 0
2,86256, Note_on_c, 0, 50, 0
2,86265, Note_on_c, 0, 52, 40
2,86295, Control_c, 0, 64, 51
2,86311, Control_c, 0, 64, 51
2,86418, Control_c, 0, 64, 50
2,86448, Control_c, 0, 64, 50
2,86491, Note_on_c, 0, 69, 0
2,86509, Control_c, 0, 64, 51
2,86524, Control_c, 0, 64, 56
2,86539, Note_on_c, 0, 45, 0
2,86540, Control_c, 0, 64, 60
2,86555, Control_c, 0, 64, 63
2,86560, Note_on_c, 0, 64, 51
2,86562, Note_on_c, 0, 67, 57
2,86570, Control_c, 0, 64, 65
2,86586, Control_c, 0, 64, 67
2,86600, Control_c, 0, 64, 69
2,86615, Control_c, 0, 64, 73
2,86631, Control_c, 0, 64, 77
2,86646, Control_c, 0, 64, 83
2,86662, Control_c, 0, 64, 93
2,86675, Note_on_c, 0, 67, 0
2,86676, Control_c, 0, 64, 102
2,86691, Control_c, 0, 64, 106
2,86745, Control_c, 0, 64, 106
2,86760, Control_c, 0, 64, 105
2,86775, Control_c, 0, 64, 104
2,86790, Control_c, 0, 64, 101
2,86805, Control_c, 0, 64, 98
2,86821, Control_c, 0, 64, 93
2,86836, Control_c, 0, 64, 86
2,86851, Control_c, 0, 64, 78
2,86867, Control_c, 0, 64, 69
2,86867, Note_on_c, 0, 52, 0
2,86871, Note_on_c, 0, 46, 44
2,86881, Control_c, 0, 64, 65
2,86885, Note_on_c, 0, 64, 0
2,86885, Note_on_c, 0, 66, 58
2,86897, Control_c, 0, 64, 61
2,86912, Control_c, 0, 64, 59
2,86927, Control_c, 0, 64, 58
2,86942, Control_c, 0, 64, 57
2,86972, Control_c, 0, 64, 56
2,86988, Control_c, 0, 64, 56
2,87018, Control_c, 0, 64, 55
2,87048, Control_c, 0, 64, 55
2,87185, Control_c, 0, 64, 55
2,87197, Note_on_c, 0, 49, 42
2,87200, Control_c, 0, 64, 58
2,87215, Control_c, 0, 64, 61
2,87231, Control_c, 0, 64, 64
2,87246, Control_c, 0, 64, 66
2,87262, Control_c, 0, 64, 69
2,87277, Control_c, 0, 64, 71
2,87292, Control_c, 0, 64, 73
2,87307, Control_c, 0, 64, 75
2,87322, Control_c, 0, 64, 76
2,87338, Control_c, 0, 64, 77
2,87344, Note_on_c, 0, 66, 0
2,87353, Control_c, 0, 64, 77
2,87414, Control_c, 0, 64, 77
2,87429, Control_c, 0, 64, 76
2,87444, Control_c, 0, 64, 75
2,87460, Control_c, 0, 64, 73
2,87475, Control_c, 0, 64, 71
2,87498, Control_c, 0, 64, 68
2,87513, Control_c, 0, 64, 66
2,87517, Note_on_c, 0, 54, 41
2,87524, Note_on_c, 0, 73, 63
2,87527, Control_c, 0, 64, 63
2,87529, Note_on_c, 0, 49, 0
2,87540, Note_on_c, 0, 61, 0
2,87543, Control_c, 0, 64, 62
2,87558, Control_c, 0, 64, 61
2,87573, Control_c, 0, 64, 59
2,87588, Control_c, 0, 64, 55
2,87603, Control_c, 0, 64, 51
2,87619, Control_c, 0, 64, 48
2,87741, Control_c, 0, 64, 49
2,87756, Control_c, 0, 64, 50
2,87771, Control_c, 0, 64, 51
2,87786, Control_c, 0, 64, 54
2,87801, Control_c, 0, 64, 57
2,87817, Control_c, 0, 64, 60
2,87832, Control_c, 0, 64, 63
2,87838, Note_on_c, 0, 52, 41
2,87846, Note_on_c, 0, 61, 46
2,87847, Control_c, 0, 64, 64
2,87858, Note_on_c, 0, 54, 0
2,87862, Control_c, 0, 64, 65
2,87877, Control_c, 0, 64, 67
2,87892, Control_c, 0, 64, 70
2,87908, Control_c, 0, 64, 72
2,87923, Control_c, 0, 64, 74
2,87938, Control_c, 0, 64, 76
2,87960, Note_on_c, 0, 46, 0
2,88029, Control_c, 0, 64, 75
2,88044, Control_c, 0, 64, 74
2,88061, Control_c, 0, 64, 74
2,88075, Control_c, 0, 64, 73
2,88090, Control_c, 0, 64, 71
2,88106, Control_c, 0, 64, 69
2,88121, Control_c, 0, 64, 66
2,88123, Note_on_c, 0, 52, 0
2,88137, Control_c, 0, 64, 62
2,88149, Note_on_c, 0, 47, 35
2,88151, Control_c, 0, 64, 59
2,88155, Note_on_c, 0, 73, 0
2,88158, Note_on_c, 0, 50, 45
2,88166, Control_c, 0, 64, 58
2,88166, Note_on_c, 0, 66, 44
2,88182, Control_c, 0, 64, 58
2,88227, Control_c, 0, 64, 57
2,88242, Control_c, 0, 64, 57
2,88266, Control_c, 0, 64, 56
2,88298, Note_on_c, 0, 66, 0
2,88307, Note_on_c, 0, 61, 0
2,88497, Note_on_c, 0, 66, 62
2,88499, Note_on_c, 0, 64, 45
2,88630, Control_c, 0, 64, 57
2,88781, Note_on_c, 0, 64, 0
2,88803, Note_on_c, 0, 66, 0
2,88809, Note_on_c, 0, 71, 60
2,88821, Note_on_c, 0, 62, 43
2,88864, Note_on_c, 0, 50, 0
2,89019, Note_on_c, 0, 47, 0
2,89072, Note_on_c, 0, 71, 0
2,89101, Note_on_c, 0, 69, 50
2,89105, Note_on_c, 0, 54, 46
2,89389, Note_on_c, 0, 69, 0
2,89408, Note_on_c, 0, 67, 53
2,89419, Note_on_c, 0, 47, 37
2,89424, Note_on_c, 0, 59, 42
2,89429, Note_on_c, 0, 54, 0
2,89474, Control_c, 0, 64, 57
2,89490, Control_c, 0, 64, 59
2,89505, Control_c, 0, 64, 61
2,89520, Control_c, 0, 64, 62
2,89535, Control_c, 0, 64, 64
2,89551, Control_c, 0, 64, 65
2,89566, Control_c, 0, 64, 66
2,89611, Control_c, 0, 64, 66
2,89627, Control_c, 0, 64, 67
2,89658, Control_c, 0, 64, 67
2,89672, Control_c, 0, 64, 68
2,89687, Control_c, 0, 64, 68
2,89704, Control_c, 0, 64, 69
2,89719, Control_c, 0, 64, 69
2,89731, Note_on_c, 0, 57, 49
2,89734, Control_c, 0, 64, 70
2,89741, Note_on_c, 0, 59, 0
2,89802, Control_c, 0, 64, 69
2,89818, Control_c, 0, 64, 69
2,89820, Note_on_c, 0, 47, 0
2,89847, Control_c, 0, 64, 68
2,89878, Control_c, 0, 64, 67
2,89924, Control_c, 0, 64, 67
2,89940, Control_c, 0, 64, 66
2,89955, Control_c, 0, 64, 66
2,89956, Note_on_c, 0, 57, 0
2,89956, Note_on_c, 0, 62, 0
2,89970, Control_c, 0, 64, 65
2,90030, Control_c, 0, 64, 64
2,90034, Note_on_c, 0, 52, 42
2,90048, Note_on_c, 0, 55, 49
2,90076, Control_c, 0, 64, 64
2,90106, Control_c, 0, 64, 63
2,90121, Control_c, 0, 64, 62
2,90137, Control_c, 0, 64, 61
2,90152, Control_c, 0, 64, 61
2,90360, Note_on_c, 0, 52, 0
2,90363, Note_on_c, 0, 59, 57
2,90367, Note_on_c, 0, 50, 41
2,90673, Note_on_c, 0, 49, 47
2,90679, Note_on_c, 0, 59, 0
2,90683, Note_on_c, 0, 50, 0
2,90690, Note_on_c, 0, 64, 62
2,90710, Note_on_c, 0, 55, 0
2,91000, Note_on_c, 0, 52, 53
2,91000, Note_on_c, 0, 64, 0
2,91002, Note_on_c, 0, 62, 65
2,91094, Note_on_c, 0, 67, 0
2,91302, Note_on_c, 0, 52, 0
2,91306, Note_on_c, 0, 61, 70
2,91329, Note_on_c, 0, 57, 55
2,91351, Note_on_c, 0, 49, 0
2,91353, Note_on_c, 0, 62, 0
2,91630, Note_on_c, 0, 64, 69
2,91634, Note_on_c, 0, 55, 64
2,91645, Note_on_c, 0, 57, 0
2,91708, Note_on_c, 0, 61, 0
2,91942, Note_on_c, 0, 69, 82
2,91946, Note_on_c, 0, 54, 58
2,91946, Note_on_c, 0, 55, 0
2,91957, Note_on_c, 0, 64, 0
2,92037, Control_c, 0, 64, 60
2,92253, Note_on_c, 0, 57, 60
2,92253, Note_on_c, 0, 69, 0
2,92254, Note_on_c, 0, 67, 80
2,92260, Note_on_c, 0, 54, 0
2,92274, Note_on_c, 0, 61, 56
2,92449, Note_on_c, 0, 61, 0
2,92486, Control_c, 0, 64, 60
2,92516, Control_c, 0, 64, 59
2,92531, Control_c, 0, 64, 58
2,92547, Control_c, 0, 64, 58
2,92555, Note_on_c, 0, 57, 0
2,92556, Note_on_c, 0, 66, 87
2,92559, Note_on_c, 0, 62, 60
2,92581, Note_on_c, 0, 67, 0
2,92888, Control_c, 0, 64, 58
2,92892, Note_on_c, 0, 62, 0
2,92893, Note_on_c, 0, 66, 0
2,92895, Note_on_c, 0, 64, 69
2,92895, Note_on_c, 0, 69, 88
2,92898, Note_on_c, 0, 61, 60
2,92903, Control_c, 0, 64, 60
2,92918, Control_c, 0, 64, 62
2,92933, Control_c, 0, 64, 64
2,92949, Control_c, 0, 64, 67
2,92955, Note_on_c, 0, 64, 0
2,92964, Control_c, 0, 64, 70
2,92978, Note_on_c, 0, 69, 0
2,92981, Control_c, 0, 64, 74
2,92995, Control_c, 0, 64, 78
2,93010, Control_c, 0, 64, 81
2,93026, Control_c, 0, 64, 84
2,93041, Control_c, 0, 64, 85
2,93057, Control_c, 0, 64, 86
2,93071, Control_c, 0, 64, 87
2,93086, Control_c, 0, 64, 88
2,93102, Control_c, 0, 64, 89
2,93132, Control_c, 0, 64, 88
2,93147, Control_c, 0, 64, 87
2,93162, Control_c, 0, 64, 83
2,93178, Control_c, 0, 64, 78
2,93189, Note_on_c, 0, 61, 0
2,93193, Control_c, 0, 64, 71
2,93201, Note_on_c, 0, 74, 90
2,93207, Control_c, 0, 64, 66
2,93217, Note_on_c, 0, 59, 57
2,93223, Control_c, 0, 64, 63
2,93223, Note_on_c, 0, 62, 53
2,93238, Control_c, 0, 64, 61
2,93253, Control_c, 0, 64, 61
2,93269, Control_c, 0, 64, 60
2,93284, Control_c, 0, 64, 60
2,93330, Control_c, 0, 64, 59
2,93346, Control_c, 0, 64, 59
2,93440, Note_on_c, 0, 62, 0
2,93473, Note_on_c, 0, 74, 0
2,93526, Note_on_c, 0, 73, 90
2,93528, Note_on_c, 0, 59, 0
2,93529, Note_on_c, 0, 57, 67
2,93537, Note_on_c, 0, 66, 71
2,93790, Note_on_c, 0, 73, 0
2,93820, Note_on_c, 0, 66, 0
2,93842, Note_on_c, 0, 55, 77
2,93846, Note_on_c, 0, 71, 89
2,93851, Note_on_c, 0, 57, 0
2,94152, Note_on_c, 0, 54, 72
2,94159, Control_c, 0, 64, 60
2,94164, Note_on_c, 0, 74, 96
2,94169, Note_on_c, 0, 55, 0
2,94171, Note_on_c, 0, 69, 68
2,94171, Note_on_c, 0, 71, 0
2,94173, Control_c, 0, 64, 62
2,94189, Control_c, 0, 64, 64
2,94199, Note_on_c, 0, 69, 0
2,94204, Control_c, 0, 64, 67
2,94220, Control_c, 0, 64, 71
2,94235, Control_c, 0, 64, 75
2,94242, Note_on_c, 0, 74, 0
2,94250, Control_c, 0, 64, 80
2,94266, Control_c, 0, 64, 85
2,94281, Control_c, 0, 64, 89
2,94297, Control_c, 0, 64, 95
2,94311, Control_c, 0, 64, 105
2,94326, Control_c, 0, 64, 127
2,94440, Control_c, 0, 64, 110
2,94455, Control_c, 0, 64, 100
2,94470, Control_c, 0, 64, 92
2,94470, Note_on_c, 0, 79, 97
2,94471, Note_on_c, 0, 54, 0
2,94477, Note_on_c, 0, 52, 68
2,94479, Note_on_c, 0, 67, 79
2,94485, Control_c, 0, 64, 87
2,94501, Control_c, 0, 64, 81
2,94516, Control_c, 0, 64, 75
2,94531, Control_c, 0, 64, 68
2,94547, Control_c, 0, 64, 63
2,94562, Control_c, 0, 64, 59
2,94578, Control_c, 0, 64, 58
2,94638, Control_c, 0, 64, 57
2,94669, Control_c, 0, 64, 56
2,94765, Note_on_c, 0, 67, 0
2,94784, Note_on_c, 0, 50, 79
2,94789, Note_on_c, 0, 71, 94
2,94791, Note_on_c, 0, 52, 0
2,95115, Note_on_c, 0, 49, 67
2,95122, Note_on_c, 0, 76, 95
2,95130, Note_on_c, 0, 50, 0
2,95154, Note_on_c, 0, 71, 0
2,95424, Note_on_c, 0, 49, 0
2,95432, Note_on_c, 0, 74, 91
2,95433, Note_on_c, 0, 47, 70
2,95467, Note_on_c, 0, 76, 0
2,95646, Control_c, 0, 64, 55
2,95660, Control_c, 0, 64, 52
2,95676, Control_c, 0, 64, 46
2,95691, Control_c, 0, 64, 27
2,95707, Control_c, 0, 64, 0
2,95731, Note_on_c, 0, 47, 0
2,95734, Note_on_c, 0, 45, 77
2,95744, Note_on_c, 0, 73, 94
2,95747, Note_on_c, 0, 74, 0
2,95784, Note_on_c, 0, 79, 0
2,96072, Note_on_c, 0, 43, 81
2,96074, Note_on_c, 0, 45, 0
2,96076, Note_on_c, 0, 76, 99
2,96397, Note_on_c, 0, 42, 88
2,96398, Note_on_c, 0, 81, 101
2,96414, Note_on_c, 0, 76, 0
2,96422, Note_on_c, 0, 73, 0
2,96434, Note_on_c, 0, 43, 0
2,96739, Note_on_c, 0, 79, 90
2,96741, Note_on_c, 0, 40, 82
2,96741, Note_on_c, 0, 76, 88
2,96780, Note_on_c, 0, 42, 0
2,96785, Note_on_c, 0, 81, 0
2,97129, Note_on_c, 0, 74, 86
2,97129, Note_on_c, 0, 78, 92
2,97130, Note_on_c, 0, 38, 87
2,97157, Note_on_c, 0, 76, 0
2,97165, Note_on_c, 0, 40, 0
2,97177, Note_on_c, 0, 79, 0
2,97198, Control_c, 0, 64, 34
2,97212, Control_c, 0, 64, 60
2,97228, Control_c, 0, 64, 70
2,97243, Control_c, 0, 64, 89
2,97250, Note_on_c, 0, 38, 0
2,97258, Control_c, 0, 64, 127
2,97455, Control_c, 0, 64, 103
2,97478, Control_c, 0, 64, 91
2,97493, Control_c, 0, 64, 83
2,97509, Control_c, 0, 64, 77
2,97524, Control_c, 0, 64, 73
2,97539, Control_c, 0, 64, 69
2,97545, Note_on_c, 0, 74, 0
2,97550, Note_on_c, 0, 78, 0
2,97554, Control_c, 0, 64, 65
2,97569, Control_c, 0, 64, 62
2,97574, Note_on_c, 0, 62, 93
2,97579, Note_on_c, 0, 76, 75
2,97580, Note_on_c, 0, 79, 83
2,97585, Control_c, 0, 64, 59
2,97600, Control_c, 0, 64, 57
2,97615, Control_c, 0, 64, 56
2,97807, Note_on_c, 0, 62, 0
2,97828, Control_c, 0, 64, 56
2,97843, Control_c, 0, 64, 55
2,97858, Control_c, 0, 64, 55
2,97874, Control_c, 0, 64, 54
2,97889, Control_c, 0, 64, 53
2,97905, Control_c, 0, 64, 53
2,97913, Note_on_c, 0, 79, 0
2,97920, Control_c, 0, 64, 52
2,97927, Note_on_c, 0, 62, 93
2,97932, Note_on_c, 0, 81, 84
2,97935, Control_c, 0, 64, 52
2,97948, Note_on_c, 0, 78, 86
2,97951, Control_c, 0, 64, 51
2,97978, Note_on_c, 0, 76, 0
2,97980, Control_c, 0, 64, 51
2,98027, Control_c, 0, 64, 50
2,98112, Note_on_c, 0, 62, 0
2,98262, Control_c, 0, 64, 51
2,98262, Note_on_c, 0, 50, 72
2,98269, Note_on_c, 0, 62, 88
2,98277, Control_c, 0, 64, 52
2,98292, Control_c, 0, 64, 52
2,98308, Control_c, 0, 64, 53
2,98407, Note_on_c, 0, 62, 0
2,98586, Note_on_c, 0, 52, 69
2,98588, Note_on_c, 0, 55, 86
2,98620, Note_on_c, 0, 50, 0
2,98749, Control_c, 0, 64, 52
2,98860, Note_on_c, 0, 78, 0
2,98880, Note_on_c, 0, 74, 85
2,98883, Note_on_c, 0, 71, 81
2,98883, Note_on_c, 0, 81, 0
2,98916, Control_c, 0, 64, 52
2,99060, Control_c, 0, 64, 51
2,99107, Control_c, 0, 64, 51
2,99152, Control_c, 0, 64, 50
2,99166, Control_c, 0, 64, 48
2,99181, Control_c, 0, 64, 44
2,99197, Control_c, 0, 64, 42
2,99203, Note_on_c, 0, 59, 81
2,99209, Note_on_c, 0, 79, 85
2,99212, Control_c, 0, 64, 41
2,99220, Note_on_c, 0, 76, 75
2,99241, Note_on_c, 0, 74, 0
2,99242, Control_c, 0, 64, 41
2,99257, Control_c, 0, 64, 46
2,99273, Control_c, 0, 64, 55
2,99288, Control_c, 0, 64, 60
2,99302, Control_c, 0, 64, 63
2,99318, Control_c, 0, 64, 65
2,99333, Control_c, 0, 64, 67
2,99349, Control_c, 0, 64, 71
2,99351, Note_on_c, 0, 52, 0
2,99364, Control_c, 0, 64, 76
2,99378, Control_c, 0, 64, 82
2,99394, Control_c, 0, 64, 86
2,99409, Control_c, 0, 64, 86
2,99425, Control_c, 0, 64, 85
2,99429, Note_on_c, 0, 79, 0
2,99440, Control_c, 0, 64, 83
2,99454, Control_c, 0, 64, 81
2,99470, Control_c, 0, 64, 78
2,99475, Note_on_c, 0, 59, 0
2,99485, Control_c, 0, 64, 76
2,99485, Note_on_c, 0, 55, 0
2,99500, Control_c, 0, 64, 73
2,99515, Note_on_c, 0, 52, 64
2,99517, Control_c, 0, 64, 71
2,99531, Note_on_c, 0, 74, 75
2,99532, Control_c, 0, 64, 71
2,99534, Note_on_c, 0, 78, 82
2,99558, Note_on_c, 0, 71, 0
2,99558, Note_on_c, 0, 76, 0
2,99562, Control_c, 0, 64, 71
2,99577, Control_c, 0, 64, 71
2,99798, Control_c, 0, 64, 70
2,99812, Control_c, 0, 64, 69
2,99828, Control_c, 0, 64, 66
2,99829, Note_on_c, 0, 78, 0
2,99843, Control_c, 0, 64, 62
2,99854, Note_on_c, 0, 57, 64
2,99855, Note_on_c, 0, 76, 79
2,99856, Note_on_c, 0, 73, 71
2,99858, Control_c, 0, 64, 55
2,99870, Note_on_c, 0, 74, 0
2,99874, Control_c, 0, 64, 53
2,99889, Control_c, 0, 64, 55
2,99905, Control_c, 0, 64, 59
2,99919, Control_c, 0, 64, 62
2,99919, Note_on_c, 0, 52, 0
2,99934, Control_c, 0, 64, 64
2,99946, Note_on_c, 0, 57, 0
2,99950, Control_c, 0, 64, 67
2,99965, Control_c, 0, 64, 70
2,99980, Control_c, 0, 64, 73
2,99996, Control_c, 0, 64, 76
2,100010, Control_c, 0, 64, 81
2,100026, Control_c, 0, 64, 88
2,100041, Control_c, 0, 64, 97
2,100056, Control_c, 0, 64, 103
2,100072, Control_c, 0, 64, 104
2,100086, Control_c, 0, 64, 103
2,100101, Control_c, 0, 64, 101
2,100117, Control_c, 0, 64, 100
2,100132, Control_c, 0, 64, 98
2,100147, Control_c, 0, 64, 93
2,100161, Note_on_c, 0, 52, 69
2,100162, Control_c, 0, 64, 85
2,100177, Control_c, 0, 64, 75
2,100192, Note_on_c, 0, 55, 49
2,100193, Control_c, 0, 64, 67
2,100208, Control_c, 0, 64, 60
2,100222, Control_c, 0, 64, 50
2,100238, Control_c, 0, 64, 47
2,100269, Control_c, 0, 64, 48
2,100460, Note_on_c, 0, 54, 55
2,100467, Note_on_c, 0, 55, 0
2,100469, Note_on_c, 0, 57, 75
2,100474, Note_on_c, 0, 52, 0
2,100499, Note_on_c, 0, 76, 0
2,100519, Note_on_c, 0, 73, 0
2,100777, Note_on_c, 0, 57, 0
2,100784, Note_on_c, 0, 55, 65
2,100789, Note_on_c, 0, 52, 54
2,100796, Note_on_c, 0, 64, 70
2,100843, Note_on_c, 0, 54, 0
2,101078, Note_on_c, 0, 55, 0
2,101091, Note_on_c, 0, 50, 49
2,101093, Note_on_c, 0, 52, 0
2,101093, Note_on_c, 0, 54, 59
2,101100, Note_on_c, 0, 69, 71
2,101134, Note_on_c, 0, 64, 0
2,101413, Note_on_c, 0, 52, 52
2,101422, Note_on_c, 0, 55, 52
2,101424, Note_on_c, 0, 67, 72
2,101425, Note_on_c, 0, 54, 0
2,101450, Note_on_c, 0, 69, 0
2,101488, Note_on_c, 0, 50, 0
2,101725, Note_on_c, 0, 55, 0
2,101726, Note_on_c, 0, 52, 0
2,101744, Note_on_c, 0, 74, 73
2,101745, Note_on_c, 0, 67, 0
2,101755, Note_on_c, 0, 54, 45
2,101758, Note_on_c, 0, 57, 44
2,101760, Control_c, 0, 64, 46
2,101770, Note_on_c, 0, 66, 45
2,101774, Control_c, 0, 64, 45
2,101790, Control_c, 0, 64, 43
2,101805, Control_c, 0, 64, 40
2,101819, Control_c, 0, 64, 36
2,101835, Control_c, 0, 64, 33
2,101850, Control_c, 0, 64, 32
2,101881, Control_c, 0, 64, 34
2,101895, Control_c, 0, 64, 37
2,101911, Control_c, 0, 64, 40
2,101926, Control_c, 0, 64, 41
2,101941, Control_c, 0, 64, 43
2,101956, Control_c, 0, 64, 46
2,101973, Control_c, 0, 64, 49
2,101989, Control_c, 0, 64, 51
2,101989, Note_on_c, 0, 66, 0
2,102003, Control_c, 0, 64, 53
2,102018, Control_c, 0, 64, 55
2,102034, Control_c, 0, 64, 58
2,102049, Control_c, 0, 64, 61
2,102056, Note_on_c, 0, 72, 71
2,102064, Control_c, 0, 64, 62
2,102087, Control_c, 0, 64, 63
2,102093, Note_on_c, 0, 64, 45
2,102093, Note_on_c, 0, 74, 0
2,102102, Control_c, 0, 64, 65
2,102118, Control_c, 0, 64, 66
2,102133, Control_c, 0, 64, 69
2,102134, Note_on_c, 0, 72, 0
2,102148, Control_c, 0, 64, 73
2,102163, Control_c, 0, 64, 77
2,102178, Control_c, 0, 64, 81
2,102194, Control_c, 0, 64, 83
2,102196, Note_on_c, 0, 64, 0
2,102208, Control_c, 0, 64, 84
2,102254, Control_c, 0, 64, 83
2,102269, Control_c, 0, 64, 83
2,102284, Control_c, 0, 64, 82
2,102299, Control_c, 0, 64, 82
2,102315, Control_c, 0, 64, 80
2,102330, Control_c, 0, 64, 79
2,102345, Control_c, 0, 64, 77
2,102360, Control_c, 0, 64, 75
2,102375, Control_c, 0, 64, 72
2,102391, Control_c, 0, 64, 68
2,102391, Note_on_c, 0, 71, 72
2,102406, Control_c, 0, 64, 66
2,102408, Note_on_c, 0, 62, 54
2,102420, Control_c, 0, 64, 65
2,102424, Note_on_c, 0, 54, 0
2,102436, Control_c, 0, 64, 64
2,102451, Control_c, 0, 64, 64
2,102467, Control_c, 0, 64, 63
2,102481, Control_c, 0, 64, 62
2,102494, Note_on_c, 0, 57, 0
2,102496, Control_c, 0, 64, 61
2,102512, Control_c, 0, 64, 59
2,102527, Control_c, 0, 64, 59
2,102558, Control_c, 0, 64, 58
2,102573, Control_c, 0, 64, 58
2,102588, Control_c, 0, 64, 57
2,102603, Control_c, 0, 64, 56
2,102618, Control_c, 0, 64, 55
2,102634, Control_c, 0, 64, 55
2,102649, Control_c, 0, 64, 54
2,102664, Control_c, 0, 64, 54
2,102679, Control_c, 0, 64, 53
2,102694, Control_c, 0, 64, 52
2,102711, Note_on_c, 0, 50, 56
2,102713, Note_on_c, 0, 47, 52
2,102725, Control_c, 0, 64, 51
2,102770, Control_c, 0, 64, 51
2,102802, Control_c, 0, 64, 50
2,103021, Note_on_c, 0, 62, 0
2,103025, Note_on_c, 0, 55, 61
2,103032, Note_on_c, 0, 52, 53
2,103034, Note_on_c, 0, 61, 56
2,103038, Note_on_c, 0, 47, 0
2,103041, Note_on_c, 0, 50, 0
2,103313, Note_on_c, 0, 52, 0
2,103320, Note_on_c, 0, 55, 0
2,103328, Note_on_c, 0, 61, 0
2,103346, Note_on_c, 0, 54, 52
2,103356, Note_on_c, 0, 50, 38
2,103360, Note_on_c, 0, 62, 54
2,103596, Note_on_c, 0, 50, 0
2,103633, Note_on_c, 0, 54, 0
2,103647, Note_on_c, 0, 49, 30
2,103667, Note_on_c, 0, 52, 34
2,103673, Note_on_c, 0, 64, 50
2,103698, Control_c, 0, 64, 53
2,103714, Control_c, 0, 64, 56
2,103729, Control_c, 0, 64, 58
2,103735, Note_on_c, 0, 71, 0
2,103745, Control_c, 0, 64, 61
2,103748, Note_on_c, 0, 62, 0
2,103759, Control_c, 0, 64, 63
2,103774, Control_c, 0, 64, 63
2,103790, Control_c, 0, 64, 64
2,103805, Control_c, 0, 64, 63
2,103806, Note_on_c, 0, 64, 0
2,103820, Control_c, 0, 64, 63
2,103836, Control_c, 0, 64, 62
2,103851, Control_c, 0, 64, 61
2,103867, Control_c, 0, 64, 60
2,103896, Control_c, 0, 64, 60
2,103912, Control_c, 0, 64, 59
2,103927, Control_c, 0, 64, 59
2,103937, Note_on_c, 0, 49, 0
2,103942, Control_c, 0, 64, 58
2,103976, Note_on_c, 0, 47, 41
2,103988, Control_c, 0, 64, 58
2,103990, Note_on_c, 0, 64, 67
2,104003, Control_c, 0, 64, 57
2,104004, Note_on_c, 0, 62, 53
2,104018, Control_c, 0, 64, 56
2,104048, Control_c, 0, 64, 56
2,104109, Control_c, 0, 64, 55
2,104139, Control_c, 0, 64, 55
2,104291, Control_c, 0, 64, 54
2,104300, Note_on_c, 0, 62, 0
2,104302, Note_on_c, 0, 45, 43
2,104309, Note_on_c, 0, 64, 0
2,104310, Note_on_c, 0, 69, 62
2,104325, Note_on_c, 0, 61, 40
2,104353, Control_c, 0, 64, 54
2,104364, Note_on_c, 0, 47, 0
2,104367, Control_c, 0, 64, 53
2,104437, Control_c, 0, 64, 53
2,104560, Note_on_c, 0, 69, 0
2,104615, Note_on_c, 0, 61, 0
2,104628, Note_on_c, 0, 64, 48
2,104632, Note_on_c, 0, 67, 51
2,104649, Control_c, 0, 64, 55
2,104665, Control_c, 0, 64, 58
2,104680, Control_c, 0, 64, 62
2,104695, Control_c, 0, 64, 64
2,104711, Control_c, 0, 64, 65
2,104718, Note_on_c, 0, 52, 0
2,104725, Control_c, 0, 64, 66
2,104740, Control_c, 0, 64, 68
2,104750, Note_on_c, 0, 67, 0
2,104756, Control_c, 0, 64, 69
2,104771, Control_c, 0, 64, 70
2,104787, Control_c, 0, 64, 72
2,104801, Control_c, 0, 64, 76
2,104816, Control_c, 0, 64, 80
2,104832, Control_c, 0, 64, 82
2,104863, Control_c, 0, 64, 82
2,104878, Control_c, 0, 64, 81
2,104893, Control_c, 0, 64, 79
2,104909, Control_c, 0, 64, 76
2,104923, Control_c, 0, 64, 72
2,104938, Control_c, 0, 64, 67
2,104954, Control_c, 0, 64, 63
2,104957, Note_on_c, 0, 66, 47
2,104969, Control_c, 0, 64, 61
2,104971, Note_on_c, 0, 45, 0
2,104985, Control_c, 0, 64, 59
2,104999, Control_c, 0, 64, 57
2,105014, Control_c, 0, 64, 57
2,105030, Control_c, 0, 64, 56
2,105045, Control_c, 0, 64, 55
2,105060, Control_c, 0, 64, 54
2,105075, Control_c, 0, 64, 54
2,105106, Control_c, 0, 64, 53
2,105159, Control_c, 0, 64, 53
2,105244, Note_on_c, 0, 64, 0
2,105260, Note_on_c, 0, 57, 49
2,105269, Note_on_c, 0, 62, 43
2,105416, Note_on_c, 0, 57, 0
2,105570, Note_on_c, 0, 57, 71
2,105572, Note_on_c, 0, 64, 65
2,105611, Note_on_c, 0, 66, 0
2,105713, Note_on_c, 0, 57, 0
2,105865, Note_on_c, 0, 57, 70
2,105878, Note_on_c, 0, 62, 0
2,105879, Note_on_c, 0, 61, 59
2,105956, Control_c, 0, 64, 54
2,105971, Control_c, 0, 64, 56
2,105986, Control_c, 0, 64, 57
2,105997, Note_on_c, 0, 57, 0
2,106001, Control_c, 0, 64, 59
2,106016, Control_c, 0, 64, 61
2,106032, Control_c, 0, 64, 63
2,106047, Control_c, 0, 64, 64
2,106061, Control_c, 0, 64, 65
2,106078, Control_c, 0, 64, 66
2,106114, Note_on_c, 0, 61, 0
2,106139, Control_c, 0, 64, 65
2,106155, Control_c, 0, 64, 65
2,106169, Control_c, 0, 64, 64
2,106185, Control_c, 0, 64, 63
2,106187, Note_on_c, 0, 51, 55
2,106194, Note_on_c, 0, 66, 71
2,106199, Control_c, 0, 64, 63
2,106210, Note_on_c, 0, 60, 54
2,106211, Note_on_c, 0, 64, 0
2,106214, Control_c, 0, 64, 61
2,106230, Control_c, 0, 64, 60
2,106245, Control_c, 0, 64, 58
2,106260, Control_c, 0, 64, 56
2,106276, Control_c, 0, 64, 55
2,106291, Control_c, 0, 64, 54
2,106307, Control_c, 0, 64, 54
2,106361, Note_on_c, 0, 60, 0
2,106443, Control_c, 0, 64, 55
2,106458, Control_c, 0, 64, 56
2,106474, Control_c, 0, 64, 58
2,106488, Control_c, 0, 64, 60
2,106503, Control_c, 0, 64, 62
2,106505, Note_on_c, 0, 52, 56
2,106505, Note_on_c, 0, 68, 84
2,106519, Control_c, 0, 64, 63
2,106522, Note_on_c, 0, 51, 0
2,106526, Note_on_c, 0, 59, 56
2,106533, Control_c, 0, 64, 63
2,106548, Note_on_c, 0, 66, 0
2,106549, Control_c, 0, 64, 64
2,106564, Control_c, 0, 64, 64
2,106625, Control_c, 0, 64, 64
2,106655, Control_c, 0, 64, 63
2,106671, Control_c, 0, 64, 63
2,106693, Control_c, 0, 64, 62
2,106724, Control_c, 0, 64, 62
2,106732, Note_on_c, 0, 59, 0
2,106792, Note_on_c, 0, 68, 0
2,106815, Control_c, 0, 64, 61
2,106830, Control_c, 0, 64, 61
2,106845, Control_c, 0, 64, 60
2,106845, Note_on_c, 0, 69, 84
2,106847, Note_on_c, 0, 52, 0
2,106851, Note_on_c, 0, 53, 49
2,106860, Control_c, 0, 64, 59
2,106869, Note_on_c, 0, 57, 62
2,106876, Control_c, 0, 64, 58
2,106891, Control_c, 0, 64, 56
2,106908, Control_c, 0, 64, 55
2,106922, Control_c, 0, 64, 53
2,106937, Control_c, 0, 64, 52
2,106953, Control_c, 0, 64, 51
2,106998, Control_c, 0, 64, 51
2,107162, Note_on_c, 0, 57, 0
2,107171, Note_on_c, 0, 60, 56
2,107473, Note_on_c, 0, 60, 0
2,107501, Note_on_c, 0, 62, 60
2,107798, Note_on_c, 0, 47, 63
2,107802, Note_on_c, 0, 59, 63
2,107810, Note_on_c, 0, 53, 0
2,107816, Note_on_c, 0, 62, 0
2,107822, Note_on_c, 0, 64, 62
2,107866, Note_on_c, 0, 69, 0
2,107889, Note_on_c, 0, 59, 0
2,107962, Note_on_c, 0, 64, 0
2,107964, Note_on_c, 0, 65, 76
2,108115, Note_on_c, 0, 68, 82
2,108121, Note_on_c, 0, 52, 58
2,108131, Note_on_c, 0, 64, 58
2,108140, Note_on_c, 0, 59, 46
2,108142, Note_on_c, 0, 47, 0
2,108144, Note_on_c, 0, 65, 0
2,108396, Note_on_c, 0, 59, 0
2,108413, Control_c, 0, 64, 51
2,108414, Note_on_c, 0, 59, 33
2,108425, Note_on_c, 0, 50, 59
2,108428, Control_c, 0, 64, 53
2,108443, Control_c, 0, 64, 54
2,108455, Note_on_c, 0, 52, 0
2,108459, Control_c, 0, 64, 56
2,108474, Control_c, 0, 64, 59
2,108489, Control_c, 0, 64, 60
2,108504, Control_c, 0, 64, 62
2,108519, Control_c, 0, 64, 62
2,108627, Control_c, 0, 64, 62
2,108642, Control_c, 0, 64, 61
2,108656, Control_c, 0, 64, 60
2,108672, Control_c, 0, 64, 58
2,108687, Control_c, 0, 64, 54
2,108696, Note_on_c, 0, 50, 0
2,108704, Control_c, 0, 64, 47
2,108719, Control_c, 0, 64, 42
2,108746, Note_on_c, 0, 49, 52
2,108749, Control_c, 0, 64, 46
2,108754, Note_on_c, 0, 52, 60
2,108758, Note_on_c, 0, 69, 81
2,108764, Control_c, 0, 64, 55
2,108773, Note_on_c, 0, 59, 0
2,108780, Control_c, 0, 64, 61
2,108795, Control_c, 0, 64, 64
2,108796, Note_on_c, 0, 64, 0
2,108806, Note_on_c, 0, 68, 0
2,108810, Control_c, 0, 64, 67
2,108816, Note_on_c, 0, 69, 0
2,108825, Control_c, 0, 64, 72
2,108836, Note_on_c, 0, 52, 0
2,108840, Control_c, 0, 64, 81
2,108846, Note_on_c, 0, 49, 0
2,108855, Control_c, 0, 64, 94
2,108871, Control_c, 0, 64, 115
2,108885, Control_c, 0, 64, 127
2,108931, Control_c, 0, 64, 123
2,108947, Control_c, 0, 64, 112
2,108962, Control_c, 0, 64, 107
2,108978, Control_c, 0, 64, 101
2,108999, Control_c, 0, 64, 93
2,109014, Control_c, 0, 64, 83
2,109030, Control_c, 0, 64, 73
2,109045, Control_c, 0, 64, 66
2,109061, Control_c, 0, 64, 58
2,109072, Note_on_c, 0, 45, 67
2,109072, Note_on_c, 0, 81, 90
2,109075, Control_c, 0, 64, 48
2,109090, Control_c, 0, 64, 43
2,109106, Control_c, 0, 64, 42
2,109201, Note_on_c, 0, 81, 0
2,109373, Note_on_c, 0, 81, 91
2,109375, Note_on_c, 0, 50, 63
2,109405, Note_on_c, 0, 45, 0
2,109479, Note_on_c, 0, 81, 0
2,109680, Note_on_c, 0, 81, 85
2,109686, Note_on_c, 0, 49, 56
2,109695, Note_on_c, 0, 78, 83
2,109700, Control_c, 0, 64, 43
2,109753, Note_on_c, 0, 50, 0
2,109802, Note_on_c, 0, 78, 0
2,109998, Note_on_c, 0, 47, 69
2,110004, Note_on_c, 0, 78, 91
2,110009, Note_on_c, 0, 74, 74
2,110010, Control_c, 0, 64, 43
2,110013, Note_on_c, 0, 49, 0
2,110026, Control_c, 0, 64, 46
2,110033, Note_on_c, 0, 81, 0
2,110041, Control_c, 0, 64, 50
2,110056, Control_c, 0, 64, 56
2,110072, Control_c, 0, 64, 63
2,110087, Control_c, 0, 64, 67
2,110103, Control_c, 0, 64, 70
2,110118, Control_c, 0, 64, 73
2,110132, Control_c, 0, 64, 75
2,110135, Note_on_c, 0, 47, 0
2,110146, Note_on_c, 0, 78, 0
2,110148, Control_c, 0, 64, 76
2,110179, Control_c, 0, 64, 75
2,110194, Control_c, 0, 64, 74
2,110209, Control_c, 0, 64, 74
2,110240, Control_c, 0, 64, 73
2,110255, Control_c, 0, 64, 73
2,110270, Control_c, 0, 64, 71
2,110285, Control_c, 0, 64, 67
2,110301, Control_c, 0, 64, 63
2,110308, Note_on_c, 0, 62, 73
2,110313, Note_on_c, 0, 78, 92
2,110316, Control_c, 0, 64, 58
2,110331, Control_c, 0, 64, 54
2,110346, Control_c, 0, 64, 51
2,110361, Control_c, 0, 64, 50
2,110376, Control_c, 0, 64, 49
2,110392, Control_c, 0, 64, 49
2,110437, Control_c, 0, 64, 48
2,110441, Note_on_c, 0, 78, 0
2,110452, Control_c, 0, 64, 48
2,110468, Control_c, 0, 64, 47
2,110479, Note_on_c, 0, 62, 0
2,110498, Control_c, 0, 64, 47
2,110627, Note_on_c, 0, 78, 93
2,110631, Note_on_c, 0, 74, 0
2,110633, Note_on_c, 0, 62, 73
2,110636, Note_on_c, 0, 71, 79
2,110732, Note_on_c, 0, 62, 0
2,110733, Control_c, 0, 64, 48
2,110749, Control_c, 0, 64, 49
2,110763, Control_c, 0, 64, 50
2,110779, Control_c, 0, 64, 50
2,110782, Note_on_c, 0, 59, 24
2,110794, Control_c, 0, 64, 51
2,110824, Note_on_c, 0, 59, 0
2,110931, Control_c, 0, 64, 51
2,110931, Note_on_c, 0, 59, 54
2,110933, Note_on_c, 0, 62, 71
2,110961, Control_c, 0, 64, 52
2,110976, Control_c, 0, 64, 53
2,110992, Control_c, 0, 64, 56
2,111007, Control_c, 0, 64, 60
2,111010, Note_on_c, 0, 59, 0
2,111023, Control_c, 0, 64, 62
2,111038, Control_c, 0, 64, 63
2,111050, Note_on_c, 0, 62, 0
2,111053, Control_c, 0, 64, 64
2,111069, Control_c, 0, 64, 65
2,111084, Control_c, 0, 64, 67
2,111100, Control_c, 0, 64, 68
2,111129, Control_c, 0, 64, 67
2,111145, Control_c, 0, 64, 66
2,111160, Control_c, 0, 64, 65
2,111175, Control_c, 0, 64, 64
2,111190, Control_c, 0, 64, 62
2,111205, Control_c, 0, 64, 60
2,111221, Control_c, 0, 64, 58
2,111227, Note_on_c, 0, 59, 66
2,111234, Note_on_c, 0, 56, 63
2,111234, Note_on_c, 0, 71, 0
2,111236, Control_c, 0, 64, 56
2,111240, Note_on_c, 0, 74, 74
2,111251, Control_c, 0, 64, 55
2,111266, Control_c, 0, 64, 54
2,111281, Control_c, 0, 64, 54
2,111304, Control_c, 0, 64, 53
2,111319, Control_c, 0, 64, 53
2,111334, Control_c, 0, 64, 52
2,111346, Note_on_c, 0, 59, 0
2,111350, Control_c, 0, 64, 52
2,111365, Control_c, 0, 64, 51
2,111381, Control_c, 0, 64, 51
2,111396, Control_c, 0, 64, 50
2,111426, Control_c, 0, 64, 50
2,111531, Control_c, 0, 64, 50
2,111553, Note_on_c, 0, 59, 67
2,111557, Note_on_c, 0, 71, 77
2,111578, Control_c, 0, 64, 51
2,111596, Note_on_c, 0, 78, 0
2,111633, Note_on_c, 0, 59, 0
2,111867, Note_on_c, 0, 52, 51
2,111873, Note_on_c, 0, 56, 0
2,111876, Note_on_c, 0, 76, 81
2,111880, Note_on_c, 0, 59, 60
2,111886, Note_on_c, 0, 74, 0
2,111995, Note_on_c, 0, 71, 0
2,112172, Note_on_c, 0, 76, 0
2,112179, Note_on_c, 0, 74, 66
2,112185, Note_on_c, 0, 68, 72
2,112479, Note_on_c, 0, 52, 0
2,112500, Note_on_c, 0, 74, 0
2,112503, Note_on_c, 0, 73, 72
2,112509, Note_on_c, 0, 55, 49
2,112532, Note_on_c, 0, 68, 0
2,112810, Note_on_c, 0, 59, 0
2,112814, Note_on_c, 0, 71, 69
2,112821, Note_on_c, 0, 52, 51
2,113145, Note_on_c, 0, 52, 0
2,113147, Note_on_c, 0, 71, 0
2,113152, Note_on_c, 0, 69, 70
2,113160, Note_on_c, 0, 57, 58
2,113190, Control_c, 0, 64, 53
2,113205, Control_c, 0, 64, 56
2,113215, Note_on_c, 0, 55, 0
2,113220, Control_c, 0, 64, 60
2,113235, Control_c, 0, 64, 62
2,113250, Control_c, 0, 64, 63
2,113266, Control_c, 0, 64, 65
2,113281, Control_c, 0, 64, 66
2,113295, Control_c, 0, 64, 68
2,113311, Control_c, 0, 64, 69
2,113326, Control_c, 0, 64, 70
2,113356, Control_c, 0, 64, 69
2,113387, Control_c, 0, 64, 68
2,113402, Control_c, 0, 64, 68
2,113418, Control_c, 0, 64, 67
2,113423, Note_on_c, 0, 57, 0
2,113432, Control_c, 0, 64, 67
2,113448, Control_c, 0, 64, 66
2,113459, Note_on_c, 0, 55, 50
2,113464, Control_c, 0, 64, 65
2,113465, Note_on_c, 0, 49, 43
2,113479, Control_c, 0, 64, 64
2,113494, Control_c, 0, 64, 63
2,113503, Note_on_c, 0, 73, 0
2,113524, Control_c, 0, 64, 63
2,113540, Control_c, 0, 64, 62
2,113555, Control_c, 0, 64, 61
2,113570, Control_c, 0, 64, 60
2,113585, Control_c, 0, 64, 60
2,113624, Control_c, 0, 64, 59
2,113654, Control_c, 0, 64, 59
2,113684, Control_c, 0, 64, 58
2,113730, Control_c, 0, 64, 58
2,113760, Control_c, 0, 64, 57
2,113788, Note_on_c, 0, 49, 0
2,113791, Note_on_c, 0, 72, 73
2,113797, Note_on_c, 0, 54, 56
2,113802, Note_on_c, 0, 55, 0
2,113851, Control_c, 0, 64, 57
2,113881, Control_c, 0, 64, 56
2,114079, Control_c, 0, 64, 56
2,114109, Note_on_c, 0, 69, 0
2,114114, Note_on_c, 0, 52, 54
2,114117, Note_on_c, 0, 67, 62
2,114400, Note_on_c, 0, 52, 0
2,114416, Note_on_c, 0, 67, 0
2,114433, Note_on_c, 0, 66, 54
2,114440, Note_on_c, 0, 50, 44
2,114738, Note_on_c, 0, 57, 49
2,114743, Note_on_c, 0, 66, 0
2,114749, Note_on_c, 0, 64, 63
2,114767, Note_on_c, 0, 54, 0
2,115034, Note_on_c, 0, 57, 0
2,115044, Note_on_c, 0, 64, 0
2,115054, Note_on_c, 0, 66, 61
2,115059, Note_on_c, 0, 62, 42
2,115283, Note_on_c, 0, 72, 0
2,115360, Note_on_c, 0, 62, 0
2,115374, Note_on_c, 0, 60, 50
2,115383, Note_on_c, 0, 69, 66
2,115676, Note_on_c, 0, 60, 0
2,115692, Note_on_c, 0, 74, 73
2,115698, Note_on_c, 0, 69, 0
2,115701, Note_on_c, 0, 59, 42
2,115704, Note_on_c, 0, 50, 0
2,115973, Control_c, 0, 64, 55
2,115990, Note_on_c, 0, 59, 0
2,116023, Note_on_c, 0, 57, 45
2,116025, Note_on_c, 0, 74, 0
2,116026, Note_on_c, 0, 50, 35
2,116030, Note_on_c, 0, 72, 66
2,116049, Control_c, 0, 64, 56
2,116065, Control_c, 0, 64, 58
2,116080, Control_c, 0, 64, 61
2,116094, Control_c, 0, 64, 63
2,116110, Control_c, 0, 64, 64
2,116125, Control_c, 0, 64, 65
2,116141, Control_c, 0, 64, 66
2,116156, Control_c, 0, 64, 67
2,116171, Control_c, 0, 64, 69
2,116179, Note_on_c, 0, 72, 0
2,116186, Control_c, 0, 64, 69
2,116201, Control_c, 0, 64, 70
2,116263, Control_c, 0, 64, 69
2,116277, Control_c, 0, 64, 69
2,116292, Control_c, 0, 64, 67
2,116308, Control_c, 0, 64, 64
2,116322, Control_c, 0, 64, 62
2,116322, Note_on_c, 0, 57, 0
2,116338, Control_c, 0, 64, 61
2,116343, Note_on_c, 0, 71, 70
2,116350, Note_on_c, 0, 50, 0
2,116351, Note_on_c, 0, 55, 44
2,116353, Control_c, 0, 64, 60
2,116368, Control_c, 0, 64, 59
2,116398, Control_c, 0, 64, 59
2,116413, Control_c, 0, 64, 57
2,116429, Control_c, 0, 64, 56
2,116443, Control_c, 0, 64, 55
2,116459, Control_c, 0, 64, 55
2,116489, Control_c, 0, 64, 54
2,116520, Control_c, 0, 64, 54
2,116535, Control_c, 0, 64, 53
2,116551, Control_c, 0, 64, 53
2,116581, Control_c, 0, 64, 52
2,116627, Control_c, 0, 64, 52
2,116645, Note_on_c, 0, 66, 0
2,116659, Note_on_c, 0, 62, 57
2,116664, Note_on_c, 0, 54, 32
2,116971, Note_on_c, 0, 54, 0
2,116986, Note_on_c, 0, 52, 40
2,116989, Note_on_c, 0, 67, 58
2,117006, Note_on_c, 0, 62, 0
2,117045, Control_c, 0, 64, 51
2,117090, Control_c, 0, 64, 51
2,117121, Control_c, 0, 64, 50
2,117165, Control_c, 0, 64, 50
2,117266, Note_on_c, 0, 52, 0
2,117280, Note_on_c, 0, 50, 45
2,117290, Note_on_c, 0, 67, 0
2,117298, Note_on_c, 0, 66, 56
2,117559, Note_on_c, 0, 50, 0
2,117593, Note_on_c, 0, 49, 38
2,117608, Note_on_c, 0, 64, 53
2,117627, Note_on_c, 0, 66, 0
2,117658, Note_on_c, 0, 55, 0
2,117788, Note_on_c, 0, 71, 0
2,117907, Note_on_c, 0, 52, 49
2,117916, Note_on_c, 0, 64, 0
2,117938, Note_on_c, 0, 62, 54
2,118237, Note_on_c, 0, 52, 0
2,118243, Note_on_c, 0, 57, 49
2,118254, Note_on_c, 0, 62, 0
2,118254, Note_on_c, 0, 69, 73
2,118263, Note_on_c, 0, 61, 56
2,118276, Control_c, 0, 64, 51
2,118290, Control_c, 0, 64, 54
2,118306, Control_c, 0, 64, 56
2,118321, Control_c, 0, 64, 59
2,118326, Note_on_c, 0, 49, 0
2,118336, Control_c, 0, 64, 62
2,118351, Control_c, 0, 64, 63
2,118366, Control_c, 0, 64, 64
2,118383, Control_c, 0, 64, 66
2,118398, Control_c, 0, 64, 67
2,118402, Note_on_c, 0, 57, 0
2,118413, Control_c, 0, 64, 68
2,118429, Control_c, 0, 64, 71
2,118443, Control_c, 0, 64, 73
2,118459, Control_c, 0, 64, 75
2,118474, Control_c, 0, 64, 76
2,118505, Control_c, 0, 64, 75
2,118519, Control_c, 0, 64, 74
2,118534, Control_c, 0, 64, 73
2,118550, Control_c, 0, 64, 72
2,118564, Note_on_c, 0, 45, 45
2,118565, Control_c, 0, 64, 69
2,118569, Note_on_c, 0, 55, 45
2,118581, Control_c, 0, 64, 65
2,118596, Control_c, 0, 64, 62
2,118611, Control_c, 0, 64, 60
2,118627, Control_c, 0, 64, 58
2,118642, Control_c, 0, 64, 56
2,118656, Control_c, 0, 64, 54
2,118672, Control_c, 0, 64, 51
2,118686, Control_c, 0, 64, 49
2,118702, Control_c, 0, 64, 48
2,118867, Note_on_c, 0, 55, 0
2,118877, Note_on_c, 0, 61, 0
2,118890, Note_on_c, 0, 50, 46
2,118899, Note_on_c, 0, 45, 0
2,118899, Note_on_c, 0, 54, 35
2,119226, Note_on_c, 0, 48, 42
2,119226, Note_on_c, 0, 57, 56
2,119247, Note_on_c, 0, 50, 0
2,119379, Control_c, 0, 64, 48
2,119515, Control_c, 0, 64, 49
2,119528, Control_c, 0, 64, 53
2,119530, Note_on_c, 0, 57, 0
2,119532, Note_on_c, 0, 47, 41
2,119535, Note_on_c, 0, 62, 54
2,119542, Control_c, 0, 64, 57
2,119558, Control_c, 0, 64, 61
2,119573, Control_c, 0, 64, 63
2,119586, Note_on_c, 0, 48, 0
2,119589, Control_c, 0, 64, 65
2,119604, Control_c, 0, 64, 67
2,119618, Control_c, 0, 64, 70
2,119634, Control_c, 0, 64, 72
2,119647, Note_on_c, 0, 47, 0
2,119649, Control_c, 0, 64, 76
2,119665, Control_c, 0, 64, 80
2,119680, Control_c, 0, 64, 86
2,119694, Control_c, 0, 64, 92
2,119710, Control_c, 0, 64, 96
2,119725, Control_c, 0, 64, 97
2,119763, Control_c, 0, 64, 96
2,119778, Control_c, 0, 64, 93
2,119794, Control_c, 0, 64, 87
2,119809, Control_c, 0, 64, 79
2,119823, Control_c, 0, 64, 68
2,119839, Control_c, 0, 64, 61
2,119839, Note_on_c, 0, 62, 0
2,119844, Note_on_c, 0, 45, 43
2,119845, Note_on_c, 0, 60, 62
2,119854, Control_c, 0, 64, 52
2,119870, Control_c, 0, 64, 49
2,119885, Control_c, 0, 64, 49
2,119900, Control_c, 0, 64, 53
2,119915, Control_c, 0, 64, 60
2,119930, Control_c, 0, 64, 64
2,119945, Control_c, 0, 64, 66
2,119960, Control_c, 0, 64, 69
2,119975, Control_c, 0, 64, 73
2,119991, Control_c, 0, 64, 79
2,119991, Note_on_c, 0, 45, 0
2,120007, Control_c, 0, 64, 90
2,120022, Control_c, 0, 64, 108
2,120038, Control_c, 0, 64, 127
2,120082, Note_on_c, 0, 54, 0
2,120168, Note_on_c, 0, 43, 48
2,120168, Note_on_c, 0, 60, 0
2,120170, Note_on_c, 0, 59, 68
2,120190, Control_c, 0, 64, 101
2,120205, Control_c, 0, 64, 90
2,120220, Control_c, 0, 64, 84
2,120236, Control_c, 0, 64, 80
2,120251, Control_c, 0, 64, 75
2,120266, Control_c, 0, 64, 70
2,120281, Control_c, 0, 64, 65
2,120296, Control_c, 0, 64, 59
2,120312, Control_c, 0, 64, 54
2,120327, Control_c, 0, 64, 54
2,120463, Control_c, 0, 64, 54
2,120467, Note_on_c, 0, 69, 0
2,120479, Control_c, 0, 64, 56
2,120492, Control_c, 0, 64, 58
2,120493, Note_on_c, 0, 47, 53
2,120515, Control_c, 0, 64, 60
2,120530, Control_c, 0, 64, 61
2,120545, Control_c, 0, 64, 63
2,120560, Control_c, 0, 64, 63
2,120575, Control_c, 0, 64, 64
2,120590, Control_c, 0, 64, 65
2,120606, Control_c, 0, 64, 65
2,120682, Control_c, 0, 64, 65
2,120697, Control_c, 0, 64, 64
2,120713, Control_c, 0, 64, 63
2,120728, Control_c, 0, 64, 61
2,120742, Control_c, 0, 64, 60
2,120758, Control_c, 0, 64, 59
2,120773, Control_c, 0, 64, 57
2,120787, Control_c, 0, 64, 56
2,120803, Control_c, 0, 64, 54
2,120819, Control_c, 0, 64, 51
2,120823, Note_on_c, 0, 47, 0
2,120830, Note_on_c, 0, 52, 43
2,120835, Control_c, 0, 64, 49
2,120836, Note_on_c, 0, 67, 79
2,120850, Control_c, 0, 64, 47
2,120865, Control_c, 0, 64, 46
2,120882, Note_on_c, 0, 59, 0
2,120910, Control_c, 0, 64, 46
2,120926, Control_c, 0, 64, 52
2,120941, Control_c, 0, 64, 57
2,120957, Control_c, 0, 64, 61
2,120971, Control_c, 0, 64, 63
2,120986, Control_c, 0, 64, 65
2,121002, Control_c, 0, 64, 67
2,121017, Control_c, 0, 64, 68
2,121032, Control_c, 0, 64, 70
2,121093, Control_c, 0, 64, 69
2,121107, Control_c, 0, 64, 69
2,121123, Control_c, 0, 64, 67
2,121126, Note_on_c, 0, 52, 0
2,121138, Control_c, 0, 64, 63
2,121143, Note_on_c, 0, 50, 41
2,121154, Control_c, 0, 64, 57
2,121158, Note_on_c, 0, 59, 57
2,121169, Control_c, 0, 64, 51
2,121184, Control_c, 0, 64, 50
2,121229, Control_c, 0, 64, 53
2,121245, Control_c, 0, 64, 58
2,121254, Note_on_c, 0, 43, 0
2,121260, Control_c, 0, 64, 60
2,121283, Control_c, 0, 64, 62
2,121298, Control_c, 0, 64, 63
2,121313, Control_c, 0, 64, 64
2,121328, Control_c, 0, 64, 66
2,121343, Control_c, 0, 64, 68
2,121359, Control_c, 0, 64, 69
2,121374, Control_c, 0, 64, 70
2,121388, Control_c, 0, 64, 71
2,121404, Control_c, 0, 64, 72
2,121419, Control_c, 0, 64, 73
2,121450, Control_c, 0, 64, 73
2,121455, Note_on_c, 0, 45, 40
2,121457, Note_on_c, 0, 49, 39
2,121465, Control_c, 0, 64, 72
2,121469, Note_on_c, 0, 64, 54
2,121481, Control_c, 0, 64, 72
2,121483, Note_on_c, 0, 50, 0
2,121496, Control_c, 0, 64, 71
2,121510, Control_c, 0, 64, 71
2,121515, Note_on_c, 0, 59, 0
2,121526, Control_c, 0, 64, 69
2,121541, Control_c, 0, 64, 66
2,121557, Control_c, 0, 64, 66
2,121601, Note_on_c, 0, 64, 0
2,121634, Control_c, 0, 64, 65
2,121649, Control_c, 0, 64, 65
2,121679, Control_c, 0, 64, 64
2,121694, Control_c, 0, 64, 63
2,121709, Control_c, 0, 64, 63
2,121725, Control_c, 0, 64, 62
2,121739, Control_c, 0, 64, 62
2,121746, Note_on_c, 0, 67, 0
2,121755, Control_c, 0, 64, 61
2,121777, Note_on_c, 0, 64, 76
2,121785, Control_c, 0, 64, 61
2,121786, Note_on_c, 0, 49, 0
2,121788, Note_on_c, 0, 62, 60
2,121793, Note_on_c, 0, 50, 47
2,121815, Control_c, 0, 64, 60
2,121830, Control_c, 0, 64, 60
2,121906, Control_c, 0, 64, 59
2,122096, Control_c, 0, 64, 59
2,122107, Note_on_c, 0, 64, 0
2,122107, Note_on_c, 0, 69, 80
2,122113, Note_on_c, 0, 62, 0
2,122122, Note_on_c, 0, 50, 0
2,122127, Control_c, 0, 64, 58
2,122128, Note_on_c, 0, 52, 45
2,122129, Note_on_c, 0, 61, 51
2,122157, Control_c, 0, 64, 58
2,122172, Control_c, 0, 64, 57
2,122187, Control_c, 0, 64, 57
2,122202, Control_c, 0, 64, 56
2,122233, Control_c, 0, 64, 56
2,122263, Control_c, 0, 64, 55
2,122279, Control_c, 0, 64, 54
2,122294, Control_c, 0, 64, 54
2,122309, Control_c, 0, 64, 53
2,122324, Control_c, 0, 64, 53
2,122339, Control_c, 0, 64, 52
2,122355, Control_c, 0, 64, 51
2,122407, Note_on_c, 0, 69, 0
2,122442, Note_on_c, 0, 67, 70
2,122444, Note_on_c, 0, 64, 60
2,122446, Control_c, 0, 64, 53
2,122446, Note_on_c, 0, 61, 0
2,122462, Control_c, 0, 64, 57
2,122478, Control_c, 0, 64, 60
2,122492, Control_c, 0, 64, 62
2,122507, Control_c, 0, 64, 64
2,122522, Control_c, 0, 64, 65
2,122537, Control_c, 0, 64, 66
2,122553, Control_c, 0, 64, 67
2,122568, Control_c, 0, 64, 69
2,122582, Control_c, 0, 64, 71
2,122598, Control_c, 0, 64, 72
2,122599, Note_on_c, 0, 67, 0
2,122613, Control_c, 0, 64, 73
2,122674, Control_c, 0, 64, 72
2,122689, Control_c, 0, 64, 71
2,122703, Control_c, 0, 64, 70
2,122719, Control_c, 0, 64, 69
2,122734, Control_c, 0, 64, 68
2,122749, Control_c, 0, 64, 67
2,122765, Control_c, 0, 64, 66
2,122780, Control_c, 0, 64, 65
2,122790, Note_on_c, 0, 66, 77
2,122796, Control_c, 0, 64, 63
2,122818, Control_c, 0, 64, 62
2,122834, Control_c, 0, 64, 61
2,122848, Control_c, 0, 64, 60
2,122863, Control_c, 0, 64, 59
2,122879, Control_c, 0, 64, 59
2,122894, Control_c, 0, 64, 58
2,122909, Control_c, 0, 64, 57
2,122918, Note_on_c, 0, 52, 0
2,122924, Control_c, 0, 64, 57
2,122939, Control_c, 0, 64, 56
2,122955, Control_c, 0, 64, 56
2,122970, Control_c, 0, 64, 55
2,123000, Control_c, 0, 64, 55
2,123134, Note_on_c, 0, 62, 54
2,123147, Note_on_c, 0, 50, 39
2,123149, Note_on_c, 0, 64, 0
2,123198, Note_on_c, 0, 45, 0
2,123501, Note_on_c, 0, 50, 0
2,123510, Note_on_c, 0, 57, 46
2,123515, Note_on_c, 0, 64, 72
2,123547, Note_on_c, 0, 66, 0
2,123738, Control_c, 0, 64, 54
2,123875, Control_c, 0, 64, 54
2,123905, Control_c, 0, 64, 53
2,123915, Note_on_c, 0, 57, 0
2,123936, Note_on_c, 0, 55, 42
2,123948, Control_c, 0, 64, 53
2,123951, Note_on_c, 0, 61, 50
2,123955, Note_on_c, 0, 62, 0
2,123964, Control_c, 0, 64, 52
2,123977, Control_c, 0, 64, 51
2,123992, Control_c, 0, 64, 49
2,124008, Control_c, 0, 64, 47
2,124023, Control_c, 0, 64, 44
2,124037, Control_c, 0, 64, 41
2,124054, Control_c, 0, 64, 38
2,124069, Control_c, 0, 64, 35
2,124083, Control_c, 0, 64, 35
2,124100, Control_c, 0, 64, 35
2,124100, Control_c, 0, 67, 17
2,124114, Control_c, 0, 64, 43
2,124114, Control_c, 0, 67, 92
2,124130, Control_c, 0, 64, 51
2,124130, Control_c, 0, 67, 127
2,124145, Control_c, 0, 64, 59
2,124160, Control_c, 0, 64, 64
2,124172, Note_on_c, 0, 64, 0
2,124176, Control_c, 0, 64, 69
2,124191, Control_c, 0, 64, 77
2,124207, Control_c, 0, 64, 98
2,124210, Note_on_c, 0, 55, 0
2,124219, Note_on_c, 0, 61, 0
2,124222, Control_c, 0, 64, 127
2,124590, Note_on_c, 0, 62, 71
2,124603, Note_on_c, 0, 38, 43
2,124606, Note_on_c, 0, 57, 55
2,124607, Note_on_c, 0, 54, 57
2,124609, Control_c, 0, 64, 99
2,124613, Note_on_c, 0, 50, 45
2,124624, Control_c, 0, 64, 83
2,124639, Control_c, 0, 64, 71
2,124655, Control_c, 0, 64, 61
2,124670, Control_c, 0, 64, 41
2,124684, Control_c, 0, 64, 16
2,124700, Control_c, 0, 64, 15
2,124880, Control_c, 0, 64, 17
2,124895, Control_c, 0, 64, 22
2,124911, Control_c, 0, 64, 29
2,124926, Control_c, 0, 64, 39
2,124942, Control_c, 0, 64, 48
2,124956, Control_c, 0, 64, 52
2,124971, Control_c, 0, 64, 55
2,124987, Control_c, 0, 64, 57
2,125002, Control_c, 0, 64, 59
2,125018, Control_c, 0, 64, 61
2,125033, Control_c, 0, 64, 63
2,125047, Control_c, 0, 64, 64
2,125063, Control_c, 0, 64, 65
2,125094, Control_c, 0, 64, 66
2,125116, Control_c, 0, 64, 67
2,125131, Control_c, 0, 64, 68
2,125147, Control_c, 0, 64, 70
2,125162, Control_c, 0, 64, 73
2,125177, Control_c, 0, 64, 75
2,125192, Control_c, 0, 64, 77
2,125207, Control_c, 0, 64, 78
2,125223, Control_c, 0, 64, 78
2,125253, Control_c, 0, 64, 79
2,125268, Control_c, 0, 64, 79
2,125283, Control_c, 0, 64, 80
2,125299, Control_c, 0, 64, 80
2,127032, Control_c, 0, 64, 81
2,127706, Control_c, 0, 64, 80
2,127721, Control_c, 0, 64, 80
2,127767, Control_c, 0, 64, 79
2,127782, Control_c, 0, 64, 79
2,127797, Control_c, 0, 64, 78
2,127843, Control_c, 0, 64, 78
2,127858, Control_c, 0, 64, 77
2,127874, Control_c, 0, 64, 75
2,127889, Control_c, 0, 64, 73
2,127904, Control_c, 0, 64, 71
2,127904, Control_c, 0, 67, 127
2,127919, Control_c, 0, 64, 70
2,127919, Control_c, 0, 67, 116
2,127934, Control_c, 0, 64, 68
2,127934, Control_c, 0, 67, 108
2,127950, Control_c, 0, 64, 67
2,127950, Control_c, 0, 67, 100
2,127965, Control_c, 0, 64, 64
2,127965, Control_c, 0, 67, 92
2,127980, Control_c, 0, 64, 62
2,127980, Control_c, 0, 67, 83
2,127995, Control_c, 0, 64, 58
2,127995, Control_c, 0, 67, 77
2,128010, Control_c, 0, 64, 56
2,128010, Control_c, 0, 67, 70
2,128025, Control_c, 0, 64, 56
2,128025, Control_c, 0, 67, 63
2,128040, Control_c, 0, 64, 55
2,128040, Control_c, 0, 67, 53
2,128055, Control_c, 0, 64, 54
2,128055, Control_c, 0, 67, 44
2,128071, Control_c, 0, 64, 52
2,128071, Control_c, 0, 67, 35
2,128086, Control_c, 0, 64, 50
2,128086, Control_c, 0, 67, 26
2,128101, Control_c, 0, 64, 47
2,128101, Control_c, 0, 67, 17
2,128116, Control_c, 0, 64, 45
2,128116, Control_c, 0, 67, 0
2,128131, Control_c, 0, 64, 42
2,128147, Control_c, 0, 64, 40
2,128162, Control_c, 0, 64, 36
2,128186, Control_c, 0, 64, 31
2,128201, Control_c, 0, 64, 28
2,128216, Control_c, 0, 64, 24
2,128232, Control_c, 0, 64, 21
2,128236, Note_on_c, 0, 57, 0
2,128238, Note_on_c, 0, 50, 0
2,128238, Note_on_c, 0, 54, 0
2,128246, Control_c, 0, 64, 17
2,128258, Note_on_c, 0, 62, 0
2,128262, Control_c, 0, 64, 12
2,128277, Control_c, 0, 64, 0
2,128280, Note_on_c, 0, 38, 0
2,128281, End_track
0, 0, End_of_file
