0, 0, Header, 1, 2, 480
1, 0, Start_track
1, 0, Tempo, 500000
1, 0, Time_signature, 4, 2, 24, 8
1, 1, End_track
2,0,Start_track
2,0, Note_on_c, 0, 62, 45
2,253, Note_on_c, 0, 64, 56
2,266, Note_on_c, 0, 62, 0
2,428, Note_on_c, 0, 65, 56
2,437, Note_on_c, 0, 64, 0
2,577, Note_on_c, 0, 67, 61
2,586, Note_on_c, 0, 65, 0
2,735, Note_on_c, 0, 65, 65
2,775, Note_on_c, 0, 67, 0
2,869, Note_on_c, 0, 64, 64
2,873, Note_on_c, 0, 65, 0
2,1029, Note_on_c, 0, 65, 64
2,1069, Note_on_c, 0, 64, 0
2,1177, Note_on_c, 0, 67, 68
2,1193, Note_on_c, 0, 65, 0
2,1332, Note_on_c, 0, 69, 72
2,1363, Note_on_c, 0, 67, 0
2,1474, Note_on_c, 0, 70, 67
2,1503, Note_on_c, 0, 69, 0
2,1621, Note_on_c, 0, 69, 72
2,1662, Note_on_c, 0, 70, 0
2,1765, Note_on_c, 0, 67, 66
2,1782, Note_on_c, 0, 69, 0
2,1927, Note_on_c, 0, 69, 75
2,1991, Note_on_c, 0, 67, 0
2,2486, Note_on_c, 0, 74, 74
2,2663, Note_on_c, 0, 69, 0
2,3023, Note_on_c, 0, 73, 65
2,3168, Note_on_c, 0, 74, 0
2,3591, Note_on_c, 0, 72, 65
2,3688, Note_on_c, 0, 73, 0
2,4121, Note_on_c, 0, 71, 60
2,4244, Note_on_c, 0, 72, 0
2,4674, Note_on_c, 0, 70, 57
2,4777, Note_on_c, 0, 71, 0
2,5226, Note_on_c, 0, 69, 56
2,5246, Note_on_c, 0, 70, 0
2,5327, Control_c, 0, 64, 12
2,5348, Control_c, 0, 64, 23
2,5366, Control_c, 0, 64, 34
2,5384, Control_c, 0, 64, 45
2,5402, Control_c, 0, 64, 54
2,5421, Control_c, 0, 64, 60
2,5440, Control_c, 0, 64, 65
2,5458, Control_c, 0, 64, 69
2,5477, Control_c, 0, 64, 73
2,5496, Control_c, 0, 64, 77
2,5515, Control_c, 0, 64, 79
2,5647, Control_c, 0, 64, 77
2,5686, Control_c, 0, 64, 75
2,5723, Control_c, 0, 64, 71
2,5743, Control_c, 0, 64, 68
2,5759, Control_c, 0, 64, 65
2,5762, Note_on_c, 0, 67, 55
2,5780, Control_c, 0, 64, 61
2,5793, Note_on_c, 0, 69, 0
2,5798, Control_c, 0, 64, 57
2,5817, Control_c, 0, 64, 53
2,5838, Control_c, 0, 64, 49
2,5856, Control_c, 0, 64, 45
2,5874, Control_c, 0, 64, 42
2,5913, Control_c, 0, 64, 37
2,5952, Control_c, 0, 64, 30
2,5969, Control_c, 0, 64, 25
2,5990, Control_c, 0, 64, 16
2,6007, Control_c, 0, 64, 0
2,6799, Note_on_c, 0, 65, 47
2,6857, Note_on_c, 0, 67, 0
2,7358, Note_on_c, 0, 64, 41
2,7464, Note_on_c, 0, 65, 0
2,7924, Note_on_c, 0, 69, 41
2,7949, Note_on_c, 0, 64, 0
2,8054, Control_c, 0, 64, 19
2,8074, Control_c, 0, 64, 30
2,8092, Control_c, 0, 64, 42
2,8112, Control_c, 0, 64, 53
2,8131, Control_c, 0, 64, 59
2,8150, Control_c, 0, 64, 62
2,8169, Control_c, 0, 64, 65
2,8188, Control_c, 0, 64, 67
2,8273, Note_on_c, 0, 69, 0
2,8358, Control_c, 0, 64, 66
2,8377, Control_c, 0, 64, 65
2,8396, Control_c, 0, 64, 64
2,8414, Control_c, 0, 64, 62
2,8432, Control_c, 0, 64, 61
2,8442, Note_on_c, 0, 69, 56
2,8444, Note_on_c, 0, 65, 37
2,8470, Control_c, 0, 64, 58
2,8508, Control_c, 0, 64, 55
2,8527, Control_c, 0, 64, 53
2,8564, Control_c, 0, 64, 50
2,8588, Control_c, 0, 64, 48
2,8608, Control_c, 0, 64, 46
2,8618, Control_c, 0, 64, 43
2,8618, Note_on_c, 0, 71, 63
2,8637, Control_c, 0, 64, 41
2,8643, Note_on_c, 0, 69, 0
2,8675, Control_c, 0, 64, 37
2,8733, Control_c, 0, 64, 32
2,8761, Note_on_c, 0, 72, 68
2,8789, Control_c, 0, 64, 27
2,8806, Note_on_c, 0, 71, 0
2,8838, Note_on_c, 0, 65, 0
2,8844, Control_c, 0, 64, 23
2,8884, Control_c, 0, 64, 19
2,8900, Note_on_c, 0, 72, 0
2,8905, Note_on_c, 0, 74, 66
2,8914, Note_on_c, 0, 62, 46
2,8920, Control_c, 0, 64, 14
2,8959, Control_c, 0, 64, 8
2,9012, Control_c, 0, 64, 0
2,9088, Note_on_c, 0, 72, 69
2,9145, Note_on_c, 0, 74, 0
2,9237, Note_on_c, 0, 71, 64
2,9255, Note_on_c, 0, 72, 0
2,9357, Note_on_c, 0, 62, 0
2,9380, Note_on_c, 0, 71, 0
2,9382, Note_on_c, 0, 69, 53
2,9391, Note_on_c, 0, 72, 67
2,9537, Note_on_c, 0, 74, 70
2,9560, Note_on_c, 0, 72, 0
2,9654, Control_c, 0, 64, 26
2,9673, Control_c, 0, 64, 41
2,9687, Note_on_c, 0, 76, 72
2,9693, Control_c, 0, 64, 53
2,9698, Note_on_c, 0, 69, 0
2,9710, Control_c, 0, 64, 59
2,9726, Note_on_c, 0, 74, 0
2,9730, Control_c, 0, 64, 61
2,9748, Control_c, 0, 64, 62
2,9804, Control_c, 0, 64, 61
2,9823, Control_c, 0, 64, 59
2,9833, Note_on_c, 0, 77, 73
2,9844, Control_c, 0, 64, 57
2,9858, Note_on_c, 0, 76, 0
2,9881, Control_c, 0, 64, 53
2,9900, Control_c, 0, 64, 51
2,9920, Control_c, 0, 64, 48
2,9951, Control_c, 0, 64, 44
2,9972, Control_c, 0, 64, 39
2,9983, Note_on_c, 0, 76, 76
2,9990, Control_c, 0, 64, 35
2,10026, Control_c, 0, 64, 30
2,10037, Note_on_c, 0, 77, 0
2,10065, Control_c, 0, 64, 26
2,10121, Control_c, 0, 64, 21
2,10128, Note_on_c, 0, 74, 74
2,10151, Note_on_c, 0, 76, 0
2,10180, Control_c, 0, 64, 16
2,10235, Control_c, 0, 64, 12
2,10272, Note_on_c, 0, 76, 82
2,10305, Note_on_c, 0, 74, 0
2,10311, Control_c, 0, 64, 8
2,10443, Control_c, 0, 64, 0
2,10515, Note_on_c, 0, 59, 70
2,10782, Note_on_c, 0, 81, 80
2,10794, Note_on_c, 0, 60, 61
2,10834, Note_on_c, 0, 59, 0
2,10927, Note_on_c, 0, 76, 0
2,11041, Note_on_c, 0, 62, 64
2,11064, Note_on_c, 0, 60, 0
2,11284, Note_on_c, 0, 80, 76
2,11286, Note_on_c, 0, 62, 0
2,11296, Note_on_c, 0, 64, 57
2,11380, Note_on_c, 0, 81, 0
2,11526, Note_on_c, 0, 66, 63
2,11530, Note_on_c, 0, 64, 0
2,11750, Note_on_c, 0, 79, 72
2,11768, Note_on_c, 0, 66, 0
2,11777, Note_on_c, 0, 67, 55
2,11869, Note_on_c, 0, 80, 0
2,12024, Note_on_c, 0, 67, 0
2,12041, Note_on_c, 0, 64, 54
2,12260, Note_on_c, 0, 78, 69
2,12266, Note_on_c, 0, 64, 0
2,12288, Note_on_c, 0, 69, 51
2,12331, Note_on_c, 0, 79, 0
2,12517, Note_on_c, 0, 68, 50
2,12525, Note_on_c, 0, 69, 0
2,12740, Note_on_c, 0, 68, 0
2,12741, Note_on_c, 0, 77, 65
2,12747, Note_on_c, 0, 69, 46
2,12851, Note_on_c, 0, 78, 0
2,13021, Note_on_c, 0, 69, 0
2,13021, Note_on_c, 0, 71, 45
2,13246, Note_on_c, 0, 76, 59
2,13265, Note_on_c, 0, 71, 0
2,13271, Note_on_c, 0, 72, 40
2,13289, Note_on_c, 0, 77, 0
2,13399, Control_c, 0, 64, 18
2,13417, Control_c, 0, 64, 31
2,13437, Control_c, 0, 64, 42
2,13457, Control_c, 0, 64, 52
2,13475, Control_c, 0, 64, 59
2,13483, Note_on_c, 0, 72, 0
2,13495, Control_c, 0, 64, 62
2,13498, Note_on_c, 0, 66, 51
2,13515, Control_c, 0, 64, 64
2,13533, Control_c, 0, 64, 65
2,13550, Control_c, 0, 64, 66
2,13644, Control_c, 0, 64, 65
2,13664, Control_c, 0, 64, 64
2,13681, Control_c, 0, 64, 63
2,13690, Note_on_c, 0, 76, 0
2,13697, Control_c, 0, 64, 61
2,13699, Note_on_c, 0, 66, 0
2,13719, Control_c, 0, 64, 59
2,13728, Note_on_c, 0, 74, 69
2,13737, Note_on_c, 0, 71, 50
2,13738, Control_c, 0, 64, 57
2,13757, Control_c, 0, 64, 55
2,13808, Control_c, 0, 64, 53
2,13847, Control_c, 0, 64, 50
2,13863, Control_c, 0, 64, 47
2,13883, Control_c, 0, 64, 45
2,13903, Control_c, 0, 64, 43
2,13940, Control_c, 0, 64, 39
2,13979, Control_c, 0, 64, 33
2,13995, Note_on_c, 0, 69, 62
2,13997, Note_on_c, 0, 71, 0
2,14017, Control_c, 0, 64, 28
2,14054, Control_c, 0, 64, 24
2,14092, Control_c, 0, 64, 17
2,14129, Control_c, 0, 64, 10
2,14167, Control_c, 0, 64, 0
2,14246, Note_on_c, 0, 68, 56
2,14252, Note_on_c, 0, 69, 0
2,14457, Note_on_c, 0, 68, 0
2,14486, Note_on_c, 0, 64, 54
2,14730, Note_on_c, 0, 74, 0
2,14747, Note_on_c, 0, 72, 65
2,14750, Note_on_c, 0, 64, 0
2,14754, Note_on_c, 0, 69, 51
2,15265, Note_on_c, 0, 71, 47
2,15347, Note_on_c, 0, 72, 0
2,15784, Note_on_c, 0, 69, 0
2,15787, Note_on_c, 0, 76, 47
2,15801, Note_on_c, 0, 67, 28
2,15881, Note_on_c, 0, 71, 0
2,16011, Control_c, 0, 64, 13
2,16028, Control_c, 0, 64, 26
2,16048, Control_c, 0, 64, 38
2,16067, Control_c, 0, 64, 50
2,16086, Control_c, 0, 64, 58
2,16105, Control_c, 0, 64, 62
2,16126, Control_c, 0, 64, 66
2,16143, Control_c, 0, 64, 69
2,16180, Control_c, 0, 64, 72
2,16192, Note_on_c, 0, 76, 0
2,16274, Control_c, 0, 64, 70
2,16278, Note_on_c, 0, 69, 60
2,16332, Control_c, 0, 64, 66
2,16353, Control_c, 0, 64, 64
2,16370, Control_c, 0, 64, 62
2,16389, Control_c, 0, 64, 61
2,16426, Control_c, 0, 64, 60
2,16444, Note_on_c, 0, 65, 51
2,16447, Note_on_c, 0, 67, 0
2,16465, Control_c, 0, 64, 58
2,16484, Control_c, 0, 64, 56
2,16522, Control_c, 0, 64, 53
2,16577, Control_c, 0, 64, 51
2,16596, Note_on_c, 0, 65, 0
2,16597, Control_c, 0, 64, 48
2,16611, Note_on_c, 0, 64, 53
2,16616, Control_c, 0, 64, 46
2,16635, Control_c, 0, 64, 44
2,16667, Control_c, 0, 64, 42
2,16706, Control_c, 0, 64, 36
2,16745, Control_c, 0, 64, 30
2,16764, Note_on_c, 0, 64, 0
2,16778, Note_on_c, 0, 71, 65
2,16780, Control_c, 0, 64, 25
2,16803, Note_on_c, 0, 62, 48
2,16878, Control_c, 0, 64, 20
2,16938, Note_on_c, 0, 62, 0
2,16952, Note_on_c, 0, 64, 52
2,16963, Note_on_c, 0, 69, 0
2,16988, Control_c, 0, 64, 16
2,17103, Control_c, 0, 64, 12
2,17105, Note_on_c, 0, 64, 0
2,17118, Note_on_c, 0, 65, 50
2,17139, Control_c, 0, 64, 8
2,17197, Control_c, 0, 64, 0
2,17240, Note_on_c, 0, 65, 0
2,17258, Note_on_c, 0, 72, 64
2,17266, Note_on_c, 0, 64, 49
2,17349, Note_on_c, 0, 71, 0
2,17412, Note_on_c, 0, 64, 0
2,17438, Note_on_c, 0, 62, 49
2,17567, Note_on_c, 0, 62, 0
2,17599, Note_on_c, 0, 60, 43
2,17732, Note_on_c, 0, 68, 54
2,17742, Note_on_c, 0, 60, 0
2,17774, Note_on_c, 0, 59, 43
2,17798, Note_on_c, 0, 72, 0
2,17927, Note_on_c, 0, 59, 0
2,17931, Note_on_c, 0, 60, 45
2,18030, Note_on_c, 0, 60, 0
2,18073, Note_on_c, 0, 62, 39
2,18204, Note_on_c, 0, 68, 0
2,18217, Note_on_c, 0, 60, 39
2,18224, Note_on_c, 0, 69, 49
2,18243, Note_on_c, 0, 62, 0
2,18390, Note_on_c, 0, 67, 53
2,18418, Note_on_c, 0, 69, 0
2,18439, Control_c, 0, 64, 16
2,18458, Control_c, 0, 64, 22
2,18478, Control_c, 0, 64, 27
2,18516, Control_c, 0, 64, 32
2,18533, Note_on_c, 0, 67, 0
2,18535, Note_on_c, 0, 65, 56
2,18606, Control_c, 0, 64, 28
2,18625, Control_c, 0, 64, 23
2,18645, Control_c, 0, 64, 17
2,18662, Control_c, 0, 64, 10
2,18664, Note_on_c, 0, 65, 0
2,18683, Control_c, 0, 64, 0
2,18692, Note_on_c, 0, 60, 0
2,18699, Note_on_c, 0, 64, 56
2,18701, Note_on_c, 0, 61, 53
2,18835, Control_c, 0, 64, 11
2,18841, Note_on_c, 0, 64, 0
2,18849, Note_on_c, 0, 65, 53
2,18853, Control_c, 0, 64, 17
2,18873, Control_c, 0, 64, 23
2,18892, Control_c, 0, 64, 29
2,18909, Control_c, 0, 64, 35
2,18929, Control_c, 0, 64, 42
2,18947, Control_c, 0, 64, 48
2,18968, Control_c, 0, 64, 53
2,18986, Control_c, 0, 64, 55
2,18995, Note_on_c, 0, 65, 0
2,19005, Control_c, 0, 64, 57
2,19010, Note_on_c, 0, 67, 55
2,19081, Control_c, 0, 64, 55
2,19083, Note_on_c, 0, 61, 0
2,19098, Control_c, 0, 64, 50
2,19119, Control_c, 0, 64, 42
2,19137, Control_c, 0, 64, 33
2,19156, Control_c, 0, 64, 29
2,19160, Note_on_c, 0, 62, 50
2,19167, Note_on_c, 0, 65, 55
2,19169, Note_on_c, 0, 67, 0
2,19213, Control_c, 0, 64, 34
2,19233, Control_c, 0, 64, 41
2,19251, Control_c, 0, 64, 49
2,19269, Control_c, 0, 64, 55
2,19291, Control_c, 0, 64, 59
2,19306, Control_c, 0, 64, 61
2,19324, Control_c, 0, 64, 63
2,19330, Note_on_c, 0, 64, 59
2,19340, Note_on_c, 0, 62, 0
2,19340, Note_on_c, 0, 65, 0
2,19344, Control_c, 0, 64, 64
2,19364, Control_c, 0, 64, 66
2,19382, Control_c, 0, 64, 67
2,19400, Control_c, 0, 64, 68
2,19464, Note_on_c, 0, 64, 0
2,19479, Note_on_c, 0, 62, 58
2,19568, Control_c, 0, 64, 66
2,19586, Control_c, 0, 64, 64
2,19607, Control_c, 0, 64, 58
2,19624, Control_c, 0, 64, 50
2,19626, Note_on_c, 0, 62, 0
2,19638, Note_on_c, 0, 61, 61
2,19642, Control_c, 0, 64, 41
2,19644, Note_on_c, 0, 55, 58
2,19662, Control_c, 0, 64, 35
2,19776, Control_c, 0, 64, 45
2,19795, Control_c, 0, 64, 52
2,19807, Note_on_c, 0, 62, 59
2,19813, Control_c, 0, 64, 56
2,19829, Note_on_c, 0, 61, 0
2,19833, Control_c, 0, 64, 59
2,19852, Control_c, 0, 64, 61
2,19868, Control_c, 0, 64, 62
2,19889, Control_c, 0, 64, 63
2,19907, Control_c, 0, 64, 64
2,19918, Note_on_c, 0, 55, 0
2,19926, Control_c, 0, 64, 65
2,19957, Note_on_c, 0, 64, 65
2,19962, Note_on_c, 0, 62, 0
2,20058, Control_c, 0, 64, 64
2,20079, Control_c, 0, 64, 63
2,20097, Control_c, 0, 64, 62
2,20116, Control_c, 0, 64, 61
2,20131, Note_on_c, 0, 62, 60
2,20134, Control_c, 0, 64, 60
2,20148, Note_on_c, 0, 50, 48
2,20151, Note_on_c, 0, 53, 48
2,20154, Control_c, 0, 64, 57
2,20158, Note_on_c, 0, 52, 56
2,20172, Control_c, 0, 64, 55
2,20191, Control_c, 0, 64, 53
2,20212, Control_c, 0, 64, 51
2,20224, Note_on_c, 0, 64, 0
2,20228, Control_c, 0, 64, 48
2,20250, Control_c, 0, 64, 46
2,20255, Note_on_c, 0, 52, 0
2,20266, Control_c, 0, 64, 44
2,20303, Control_c, 0, 64, 42
2,20313, Note_on_c, 0, 52, 62
2,20338, Note_on_c, 0, 53, 0
2,20344, Note_on_c, 0, 50, 0
2,20361, Control_c, 0, 64, 40
2,20430, Control_c, 0, 64, 36
2,20443, Note_on_c, 0, 53, 68
2,20465, Note_on_c, 0, 52, 0
2,20488, Control_c, 0, 64, 32
2,20579, Control_c, 0, 64, 27
2,20605, Note_on_c, 0, 61, 64
2,20613, Note_on_c, 0, 55, 67
2,20618, Note_on_c, 0, 58, 49
2,20629, Note_on_c, 0, 53, 0
2,20670, Note_on_c, 0, 62, 0
2,20766, Note_on_c, 0, 53, 73
2,20808, Note_on_c, 0, 55, 0
2,20822, Control_c, 0, 64, 31
2,20861, Control_c, 0, 64, 37
2,20880, Control_c, 0, 64, 41
2,20899, Control_c, 0, 64, 43
2,20926, Note_on_c, 0, 52, 71
2,20937, Control_c, 0, 64, 45
2,20948, Note_on_c, 0, 53, 0
2,21024, Note_on_c, 0, 58, 0
2,21051, Control_c, 0, 64, 43
2,21070, Control_c, 0, 64, 38
2,21075, Note_on_c, 0, 61, 0
2,21084, Note_on_c, 0, 62, 70
2,21089, Control_c, 0, 64, 32
2,21091, Note_on_c, 0, 53, 73
2,21105, Note_on_c, 0, 57, 57
2,21106, Control_c, 0, 64, 26
2,21126, Control_c, 0, 64, 20
2,21145, Control_c, 0, 64, 15
2,21151, Note_on_c, 0, 52, 0
2,21246, Note_on_c, 0, 57, 0
2,21257, Control_c, 0, 64, 21
2,21260, Note_on_c, 0, 55, 75
2,21283, Control_c, 0, 64, 30
2,21302, Control_c, 0, 64, 39
2,21306, Note_on_c, 0, 53, 0
2,21320, Control_c, 0, 64, 49
2,21338, Control_c, 0, 64, 56
2,21358, Control_c, 0, 64, 59
2,21377, Control_c, 0, 64, 61
2,21399, Note_on_c, 0, 62, 0
2,21417, Note_on_c, 0, 57, 75
2,21475, Note_on_c, 0, 55, 0
2,21486, Control_c, 0, 64, 58
2,21505, Control_c, 0, 64, 56
2,21525, Control_c, 0, 64, 53
2,21543, Control_c, 0, 64, 51
2,21560, Control_c, 0, 64, 49
2,21567, Note_on_c, 0, 58, 68
2,21568, Note_on_c, 0, 67, 73
2,21580, Control_c, 0, 64, 47
2,21582, Note_on_c, 0, 62, 59
2,21600, Control_c, 0, 64, 44
2,21608, Note_on_c, 0, 57, 0
2,21620, Control_c, 0, 64, 41
2,21657, Control_c, 0, 64, 35
2,21695, Control_c, 0, 64, 30
2,21729, Note_on_c, 0, 57, 78
2,21732, Control_c, 0, 64, 26
2,21769, Note_on_c, 0, 58, 0
2,21788, Control_c, 0, 64, 22
2,21883, Control_c, 0, 64, 18
2,21897, Note_on_c, 0, 55, 74
2,21926, Note_on_c, 0, 57, 0
2,21941, Control_c, 0, 64, 14
2,21998, Control_c, 0, 64, 9
2,22045, Note_on_c, 0, 62, 0
2,22052, Control_c, 0, 64, 0
2,22056, Note_on_c, 0, 61, 58
2,22079, Note_on_c, 0, 57, 74
2,22182, Note_on_c, 0, 55, 0
2,22325, Note_on_c, 0, 61, 0
2,22333, Note_on_c, 0, 64, 72
2,22437, Note_on_c, 0, 67, 0
2,22610, Note_on_c, 0, 62, 80
2,22622, Note_on_c, 0, 65, 70
2,22671, Note_on_c, 0, 64, 0
2,22809, Note_on_c, 0, 57, 0
2,22867, Note_on_c, 0, 67, 73
2,22902, Control_c, 0, 64, 22
2,22902, Note_on_c, 0, 65, 0
2,22919, Control_c, 0, 64, 33
2,22938, Control_c, 0, 64, 41
2,22956, Control_c, 0, 64, 46
2,23031, Control_c, 0, 64, 44
2,23050, Control_c, 0, 64, 42
2,23070, Control_c, 0, 64, 40
2,23089, Note_on_c, 0, 67, 0
2,23108, Control_c, 0, 64, 34
2,23110, Note_on_c, 0, 61, 71
2,23114, Note_on_c, 0, 69, 74
2,23145, Control_c, 0, 64, 29
2,23147, Note_on_c, 0, 64, 46
2,23202, Control_c, 0, 64, 24
2,23234, Note_on_c, 0, 62, 0
2,23237, Control_c, 0, 64, 19
2,23297, Control_c, 0, 64, 14
2,23354, Control_c, 0, 64, 10
2,23364, Note_on_c, 0, 71, 75
2,23403, Note_on_c, 0, 69, 0
2,23443, Control_c, 0, 64, 0
2,23633, Note_on_c, 0, 60, 74
2,23641, Note_on_c, 0, 72, 68
2,23680, Note_on_c, 0, 71, 0
2,23731, Note_on_c, 0, 61, 0
2,23881, Note_on_c, 0, 69, 65
2,23946, Note_on_c, 0, 64, 0
2,23972, Control_c, 0, 64, 15
2,23991, Control_c, 0, 64, 26
2,24009, Control_c, 0, 64, 37
2,24030, Control_c, 0, 64, 48
2,24047, Control_c, 0, 64, 55
2,24068, Control_c, 0, 64, 57
2,24079, Note_on_c, 0, 69, 0
2,24127, Note_on_c, 0, 59, 71
2,24148, Note_on_c, 0, 74, 73
2,24168, Note_on_c, 0, 62, 45
2,24178, Note_on_c, 0, 60, 0
2,24184, Note_on_c, 0, 72, 0
2,24197, Control_c, 0, 64, 55
2,24236, Control_c, 0, 64, 51
2,24257, Control_c, 0, 64, 49
2,24274, Control_c, 0, 64, 47
2,24294, Control_c, 0, 64, 45
2,24313, Control_c, 0, 64, 42
2,24332, Control_c, 0, 64, 40
2,24385, Control_c, 0, 64, 36
2,24417, Note_on_c, 0, 73, 74
2,24460, Control_c, 0, 64, 31
2,24468, Note_on_c, 0, 74, 0
2,24517, Control_c, 0, 64, 26
2,24630, Control_c, 0, 64, 22
2,24647, Note_on_c, 0, 58, 73
2,24675, Note_on_c, 0, 74, 73
2,24685, Note_on_c, 0, 59, 0
2,24724, Control_c, 0, 64, 18
2,24747, Note_on_c, 0, 73, 0
2,24821, Control_c, 0, 64, 14
2,24924, Note_on_c, 0, 76, 76
2,24979, Note_on_c, 0, 74, 0
2,25142, Note_on_c, 0, 57, 73
2,25162, Note_on_c, 0, 77, 70
2,25219, Note_on_c, 0, 76, 0
2,25254, Control_c, 0, 64, 10
2,25263, Note_on_c, 0, 58, 0
2,25423, Note_on_c, 0, 71, 73
2,25484, Note_on_c, 0, 62, 0
2,25679, Note_on_c, 0, 55, 68
2,25697, Note_on_c, 0, 76, 68
2,25758, Control_c, 0, 64, 0
2,25760, Note_on_c, 0, 71, 0
2,25762, Note_on_c, 0, 57, 0
2,25845, Note_on_c, 0, 77, 0
2,25960, Note_on_c, 0, 74, 65
2,26050, Note_on_c, 0, 76, 0
2,26206, Note_on_c, 0, 73, 65
2,26283, Note_on_c, 0, 74, 0
2,26377, Control_c, 0, 64, 19
2,26394, Control_c, 0, 64, 30
2,26414, Control_c, 0, 64, 40
2,26432, Control_c, 0, 64, 50
2,26453, Control_c, 0, 64, 57
2,26469, Note_on_c, 0, 69, 60
2,26472, Control_c, 0, 64, 60
2,26490, Control_c, 0, 64, 63
2,26508, Control_c, 0, 64, 66
2,26511, Note_on_c, 0, 73, 0
2,26529, Control_c, 0, 64, 68
2,26547, Control_c, 0, 64, 70
2,26607, Note_on_c, 0, 69, 0
2,26679, Control_c, 0, 64, 68
2,26698, Control_c, 0, 64, 66
2,26706, Note_on_c, 0, 53, 50
2,26707, Note_on_c, 0, 74, 63
2,26715, Control_c, 0, 64, 64
2,26723, Note_on_c, 0, 70, 51
2,26736, Control_c, 0, 64, 61
2,26754, Control_c, 0, 64, 60
2,26773, Control_c, 0, 64, 57
2,26792, Control_c, 0, 64, 55
2,26811, Control_c, 0, 64, 52
2,26829, Control_c, 0, 64, 49
2,26848, Control_c, 0, 64, 47
2,26854, Note_on_c, 0, 55, 0
2,26887, Control_c, 0, 64, 44
2,26906, Control_c, 0, 64, 42
2,26925, Control_c, 0, 64, 40
2,26962, Control_c, 0, 64, 35
2,26963, Note_on_c, 0, 69, 53
2,26996, Note_on_c, 0, 70, 0
2,27019, Control_c, 0, 64, 30
2,27093, Control_c, 0, 64, 26
2,27196, Note_on_c, 0, 69, 0
2,27225, Note_on_c, 0, 67, 51
2,27238, Note_on_c, 0, 52, 49
2,27261, Note_on_c, 0, 53, 0
2,27279, Control_c, 0, 64, 22
2,27479, Note_on_c, 0, 70, 51
2,27540, Note_on_c, 0, 67, 0
2,27638, Control_c, 0, 64, 18
2,27709, Note_on_c, 0, 72, 54
2,27710, Note_on_c, 0, 57, 48
2,27722, Note_on_c, 0, 69, 46
2,27732, Note_on_c, 0, 52, 0
2,27745, Note_on_c, 0, 70, 0
2,27754, Note_on_c, 0, 74, 0
2,27805, Control_c, 0, 64, 26
2,27823, Control_c, 0, 64, 36
2,27843, Control_c, 0, 64, 45
2,27862, Control_c, 0, 64, 52
2,27882, Control_c, 0, 64, 57
2,27900, Control_c, 0, 64, 60
2,27920, Control_c, 0, 64, 62
2,27933, Note_on_c, 0, 69, 0
2,27939, Control_c, 0, 64, 63
2,27957, Control_c, 0, 64, 64
2,27957, Note_on_c, 0, 67, 46
2,27983, Note_on_c, 0, 57, 0
2,28091, Control_c, 0, 64, 63
2,28107, Control_c, 0, 64, 61
2,28127, Control_c, 0, 64, 58
2,28146, Control_c, 0, 64, 54
2,28166, Control_c, 0, 64, 47
2,28200, Control_c, 0, 64, 39
2,28212, Note_on_c, 0, 67, 0
2,28218, Control_c, 0, 64, 35
2,28221, Note_on_c, 0, 50, 43
2,28230, Note_on_c, 0, 66, 45
2,28293, Control_c, 0, 64, 45
2,28314, Control_c, 0, 64, 51
2,28331, Control_c, 0, 64, 55
2,28351, Control_c, 0, 64, 58
2,28371, Control_c, 0, 64, 60
2,28391, Note_on_c, 0, 50, 0
2,28457, Note_on_c, 0, 62, 61
2,28501, Control_c, 0, 64, 57
2,28539, Control_c, 0, 64, 55
2,28577, Control_c, 0, 64, 53
2,28616, Control_c, 0, 64, 51
2,28655, Control_c, 0, 64, 48
2,28691, Control_c, 0, 64, 45
2,28706, Note_on_c, 0, 70, 64
2,28729, Note_on_c, 0, 63, 58
2,28730, Control_c, 0, 64, 42
2,28751, Note_on_c, 0, 67, 47
2,28751, Note_on_c, 0, 72, 0
2,28769, Note_on_c, 0, 66, 0
2,28771, Note_on_c, 0, 62, 0
2,28785, Control_c, 0, 64, 38
2,28841, Control_c, 0, 64, 33
2,28898, Control_c, 0, 64, 29
2,28956, Control_c, 0, 64, 25
2,28960, Note_on_c, 0, 62, 59
2,29000, Note_on_c, 0, 63, 0
2,29011, Control_c, 0, 64, 21
2,29105, Control_c, 0, 64, 17
2,29208, Note_on_c, 0, 69, 57
2,29216, Note_on_c, 0, 62, 0
2,29222, Note_on_c, 0, 60, 47
2,29290, Note_on_c, 0, 70, 0
2,29440, Note_on_c, 0, 60, 0
2,29448, Note_on_c, 0, 63, 49
2,29650, Note_on_c, 0, 67, 0
2,29680, Note_on_c, 0, 63, 0
2,29696, Note_on_c, 0, 62, 33
2,29724, Note_on_c, 0, 65, 29
2,29803, Control_c, 0, 64, 26
2,29821, Control_c, 0, 64, 34
2,29841, Control_c, 0, 64, 44
2,29858, Control_c, 0, 64, 53
2,29877, Control_c, 0, 64, 59
2,29896, Control_c, 0, 64, 62
2,29916, Control_c, 0, 64, 65
2,29932, Control_c, 0, 64, 66
2,29937, Note_on_c, 0, 60, 47
2,29947, Note_on_c, 0, 62, 0
2,29951, Control_c, 0, 64, 67
2,30031, Note_on_c, 0, 65, 0
2,30047, Note_on_c, 0, 69, 0
2,30138, Control_c, 0, 64, 66
2,30158, Control_c, 0, 64, 65
2,30176, Control_c, 0, 64, 64
2,30191, Note_on_c, 0, 60, 0
2,30194, Control_c, 0, 64, 63
2,30203, Note_on_c, 0, 62, 48
2,30208, Note_on_c, 0, 59, 46
2,30213, Control_c, 0, 64, 61
2,30232, Control_c, 0, 64, 60
2,30251, Control_c, 0, 64, 58
2,30270, Control_c, 0, 64, 56
2,30309, Control_c, 0, 64, 53
2,30345, Control_c, 0, 64, 50
2,30364, Control_c, 0, 64, 48
2,30403, Control_c, 0, 64, 45
2,30430, Note_on_c, 0, 59, 0
2,30439, Control_c, 0, 64, 43
2,30444, Note_on_c, 0, 79, 73
2,30448, Note_on_c, 0, 55, 46
2,30478, Control_c, 0, 64, 40
2,30591, Control_c, 0, 64, 36
2,30664, Note_on_c, 0, 62, 0
2,30705, Note_on_c, 0, 81, 72
2,30717, Note_on_c, 0, 60, 47
2,30717, Note_on_c, 0, 64, 55
2,30724, Control_c, 0, 64, 31
2,30796, Note_on_c, 0, 79, 0
2,30798, Note_on_c, 0, 55, 0
2,30950, Control_c, 0, 64, 27
2,30956, Note_on_c, 0, 79, 73
2,31006, Note_on_c, 0, 81, 0
2,31136, Control_c, 0, 64, 23
2,31203, Note_on_c, 0, 62, 51
2,31209, Note_on_c, 0, 77, 69
2,31250, Note_on_c, 0, 64, 0
2,31253, Note_on_c, 0, 79, 0
2,31436, Note_on_c, 0, 81, 69
2,31456, Control_c, 0, 64, 19
2,31511, Note_on_c, 0, 77, 0
2,31684, Note_on_c, 0, 79, 67
2,31691, Note_on_c, 0, 58, 41
2,31705, Note_on_c, 0, 60, 0
2,31722, Control_c, 0, 64, 15
2,31730, Note_on_c, 0, 81, 0
2,31929, Note_on_c, 0, 77, 59
2,31966, Note_on_c, 0, 79, 0
2,32096, Control_c, 0, 64, 11
2,32197, Note_on_c, 0, 76, 57
2,32205, Note_on_c, 0, 60, 40
2,32274, Note_on_c, 0, 77, 0
2,32299, Note_on_c, 0, 62, 0
2,32303, Control_c, 0, 64, 19
2,32304, Note_on_c, 0, 58, 0
2,32324, Control_c, 0, 64, 27
2,32339, Control_c, 0, 64, 36
2,32359, Control_c, 0, 64, 46
2,32378, Control_c, 0, 64, 55
2,32397, Control_c, 0, 64, 61
2,32416, Control_c, 0, 64, 64
2,32436, Control_c, 0, 64, 66
2,32445, Note_on_c, 0, 72, 67
2,32455, Control_c, 0, 64, 69
2,32458, Note_on_c, 0, 76, 0
2,32474, Control_c, 0, 64, 72
2,32493, Control_c, 0, 64, 74
2,32511, Control_c, 0, 64, 76
2,32644, Control_c, 0, 64, 73
2,32663, Control_c, 0, 64, 70
2,32681, Control_c, 0, 64, 66
2,32689, Note_on_c, 0, 57, 52
2,32692, Note_on_c, 0, 74, 69
2,32693, Note_on_c, 0, 77, 62
2,32699, Control_c, 0, 64, 61
2,32720, Control_c, 0, 64, 57
2,32734, Note_on_c, 0, 72, 0
2,32736, Control_c, 0, 64, 53
2,32757, Control_c, 0, 64, 51
2,32795, Control_c, 0, 64, 48
2,32831, Control_c, 0, 64, 44
2,32849, Control_c, 0, 64, 42
2,32869, Control_c, 0, 64, 40
2,32927, Control_c, 0, 64, 35
2,32952, Note_on_c, 0, 72, 70
2,32960, Note_on_c, 0, 74, 0
2,33074, Control_c, 0, 64, 30
2,33202, Note_on_c, 0, 70, 63
2,33205, Control_c, 0, 64, 26
2,33211, Note_on_c, 0, 55, 43
2,33221, Note_on_c, 0, 72, 0
2,33292, Note_on_c, 0, 57, 0
2,33357, Control_c, 0, 64, 22
2,33388, Note_on_c, 0, 60, 0
2,33422, Note_on_c, 0, 74, 63
2,33456, Note_on_c, 0, 77, 0
2,33489, Note_on_c, 0, 70, 0
2,33675, Note_on_c, 0, 74, 0
2,33681, Note_on_c, 0, 60, 44
2,33687, Note_on_c, 0, 72, 55
2,33695, Control_c, 0, 64, 18
2,33696, Note_on_c, 0, 76, 52
2,33791, Control_c, 0, 64, 14
2,33801, Note_on_c, 0, 55, 0
2,33903, Control_c, 0, 64, 20
2,33923, Control_c, 0, 64, 32
2,33924, Note_on_c, 0, 70, 62
2,33958, Control_c, 0, 64, 44
2,33976, Control_c, 0, 64, 54
2,33997, Control_c, 0, 64, 59
2,34005, Note_on_c, 0, 72, 0
2,34014, Control_c, 0, 64, 61
2,34032, Control_c, 0, 64, 62
2,34072, Control_c, 0, 64, 63
2,34108, Control_c, 0, 64, 61
2,34128, Control_c, 0, 64, 56
2,34148, Control_c, 0, 64, 49
2,34166, Control_c, 0, 64, 39
2,34167, Note_on_c, 0, 69, 70
2,34173, Note_on_c, 0, 53, 52
2,34213, Note_on_c, 0, 70, 0
2,34242, Control_c, 0, 64, 43
2,34258, Control_c, 0, 64, 48
2,34261, Note_on_c, 0, 76, 0
2,34278, Control_c, 0, 64, 53
2,34289, Note_on_c, 0, 60, 0
2,34296, Control_c, 0, 64, 57
2,34317, Control_c, 0, 64, 59
2,34330, Note_on_c, 0, 55, 60
2,34335, Note_on_c, 0, 53, 0
2,34369, Control_c, 0, 64, 55
2,34389, Control_c, 0, 64, 49
2,34404, Note_on_c, 0, 77, 69
2,34406, Control_c, 0, 64, 45
2,34448, Control_c, 0, 64, 50
2,34465, Control_c, 0, 64, 54
2,34476, Note_on_c, 0, 55, 0
2,34482, Control_c, 0, 64, 57
2,34488, Note_on_c, 0, 57, 64
2,34519, Note_on_c, 0, 69, 0
2,34560, Control_c, 0, 64, 52
2,34578, Control_c, 0, 64, 47
2,34597, Control_c, 0, 64, 42
2,34616, Control_c, 0, 64, 40
2,34628, Note_on_c, 0, 67, 78
2,34637, Note_on_c, 0, 58, 61
2,34641, Note_on_c, 0, 57, 0
2,34673, Control_c, 0, 64, 42
2,34719, Note_on_c, 0, 77, 0
2,34747, Note_on_c, 0, 58, 0
2,34777, Note_on_c, 0, 57, 68
2,34805, Control_c, 0, 64, 37
2,34884, Note_on_c, 0, 76, 76
2,34937, Note_on_c, 0, 57, 0
2,34938, Note_on_c, 0, 55, 62
2,35007, Control_c, 0, 64, 40
2,35021, Note_on_c, 0, 67, 0
2,35088, Note_on_c, 0, 76, 0
2,35100, Control_c, 0, 64, 34
2,35101, Note_on_c, 0, 57, 73
2,35108, Note_on_c, 0, 55, 0
2,35121, Control_c, 0, 64, 29
2,35127, Note_on_c, 0, 65, 79
2,35140, Control_c, 0, 64, 22
2,35160, Control_c, 0, 64, 16
2,35179, Control_c, 0, 64, 12
2,35274, Control_c, 0, 64, 16
2,35292, Control_c, 0, 64, 22
2,35309, Control_c, 0, 64, 27
2,35329, Control_c, 0, 64, 31
2,35368, Control_c, 0, 64, 38
2,35378, Note_on_c, 0, 74, 80
2,35386, Control_c, 0, 64, 41
2,35399, Note_on_c, 0, 57, 0
2,35405, Control_c, 0, 64, 44
2,35425, Control_c, 0, 64, 46
2,35429, Note_on_c, 0, 65, 0
2,35519, Control_c, 0, 64, 42
2,35557, Control_c, 0, 64, 35
2,35595, Control_c, 0, 64, 28
2,35596, Note_on_c, 0, 74, 0
2,35611, Note_on_c, 0, 45, 76
2,35615, Control_c, 0, 64, 21
2,35619, Note_on_c, 0, 64, 79
2,35635, Control_c, 0, 64, 8
2,35652, Control_c, 0, 64, 0
2,35842, Control_c, 0, 64, 10
2,35870, Note_on_c, 0, 73, 81
2,35876, Control_c, 0, 64, 24
2,35894, Control_c, 0, 64, 36
2,35905, Note_on_c, 0, 45, 0
2,35914, Control_c, 0, 64, 49
2,35933, Control_c, 0, 64, 57
2,35951, Control_c, 0, 64, 60
2,35957, Note_on_c, 0, 64, 0
2,36084, Control_c, 0, 64, 58
2,36104, Note_on_c, 0, 50, 69
2,36119, Control_c, 0, 64, 55
2,36122, Note_on_c, 0, 74, 77
2,36130, Note_on_c, 0, 65, 62
2,36139, Control_c, 0, 64, 53
2,36159, Control_c, 0, 64, 50
2,36178, Control_c, 0, 64, 44
2,36197, Control_c, 0, 64, 34
2,36209, Note_on_c, 0, 73, 0
2,36214, Control_c, 0, 64, 23
2,36235, Control_c, 0, 64, 16
2,36254, Control_c, 0, 64, 11
2,36298, Note_on_c, 0, 52, 70
2,36348, Control_c, 0, 64, 16
2,36363, Note_on_c, 0, 50, 0
2,36367, Control_c, 0, 64, 26
2,36386, Control_c, 0, 64, 35
2,36405, Control_c, 0, 64, 44
2,36414, Note_on_c, 0, 74, 0
2,36424, Control_c, 0, 64, 50
2,36442, Note_on_c, 0, 65, 0
2,36443, Control_c, 0, 64, 54
2,36460, Control_c, 0, 64, 56
2,36463, Note_on_c, 0, 53, 76
2,36501, Control_c, 0, 64, 59
2,36514, Note_on_c, 0, 52, 0
2,36539, Control_c, 0, 64, 60
2,36610, Note_on_c, 0, 55, 71
2,36629, Note_on_c, 0, 70, 77
2,36631, Note_on_c, 0, 61, 73
2,36634, Control_c, 0, 64, 58
2,36651, Note_on_c, 0, 53, 0
2,36652, Control_c, 0, 64, 56
2,36670, Control_c, 0, 64, 51
2,36689, Control_c, 0, 64, 42
2,36709, Control_c, 0, 64, 28
2,36729, Control_c, 0, 64, 19
2,36745, Control_c, 0, 64, 14
2,36781, Note_on_c, 0, 53, 74
2,36829, Note_on_c, 0, 55, 0
2,36856, Control_c, 0, 64, 25
2,36876, Control_c, 0, 64, 38
2,36894, Control_c, 0, 64, 49
2,36912, Control_c, 0, 64, 56
2,36931, Control_c, 0, 64, 58
2,36953, Note_on_c, 0, 52, 72
2,36965, Note_on_c, 0, 53, 0
2,36969, Control_c, 0, 64, 60
2,37003, Note_on_c, 0, 61, 0
2,37013, Note_on_c, 0, 70, 0
2,37044, Control_c, 0, 64, 58
2,37064, Control_c, 0, 64, 56
2,37082, Control_c, 0, 64, 54
2,37103, Control_c, 0, 64, 52
2,37120, Control_c, 0, 64, 49
2,37130, Note_on_c, 0, 53, 64
2,37130, Note_on_c, 0, 69, 74
2,37136, Control_c, 0, 64, 47
2,37136, Note_on_c, 0, 62, 67
2,37157, Control_c, 0, 64, 44
2,37177, Control_c, 0, 64, 42
2,37196, Control_c, 0, 64, 40
2,37218, Note_on_c, 0, 52, 0
2,37252, Control_c, 0, 64, 34
2,37289, Control_c, 0, 64, 29
2,37313, Note_on_c, 0, 55, 69
2,37316, Note_on_c, 0, 67, 72
2,37329, Control_c, 0, 64, 24
2,37359, Note_on_c, 0, 53, 0
2,37374, Note_on_c, 0, 69, 0
2,37384, Control_c, 0, 64, 19
2,37452, Note_on_c, 0, 57, 71
2,37454, Note_on_c, 0, 65, 68
2,37471, Note_on_c, 0, 55, 0
2,37510, Note_on_c, 0, 67, 0
2,37554, Control_c, 0, 64, 15
2,37612, Note_on_c, 0, 58, 68
2,37613, Note_on_c, 0, 64, 71
2,37640, Note_on_c, 0, 65, 0
2,37652, Note_on_c, 0, 57, 0
2,37775, Note_on_c, 0, 65, 75
2,37798, Note_on_c, 0, 57, 65
2,37798, Note_on_c, 0, 58, 0
2,37828, Note_on_c, 0, 64, 0
2,37855, Control_c, 0, 64, 11
2,37924, Note_on_c, 0, 57, 0
2,37929, Note_on_c, 0, 55, 60
2,37945, Note_on_c, 0, 65, 0
2,37946, Note_on_c, 0, 67, 66
2,37948, Control_c, 0, 64, 0
2,38097, Note_on_c, 0, 57, 66
2,38111, Note_on_c, 0, 65, 63
2,38148, Note_on_c, 0, 55, 0
2,38176, Note_on_c, 0, 67, 0
2,38244, Note_on_c, 0, 62, 0
2,38274, Control_c, 0, 64, 15
2,38287, Note_on_c, 0, 64, 61
2,38291, Control_c, 0, 64, 28
2,38311, Control_c, 0, 64, 38
2,38328, Note_on_c, 0, 65, 0
2,38329, Control_c, 0, 64, 48
2,38348, Control_c, 0, 64, 55
2,38367, Control_c, 0, 64, 58
2,38386, Control_c, 0, 64, 60
2,38405, Control_c, 0, 64, 61
2,38421, Note_on_c, 0, 64, 0
2,38423, Control_c, 0, 64, 62
2,38439, Note_on_c, 0, 62, 56
2,38498, Control_c, 0, 64, 59
2,38518, Control_c, 0, 64, 54
2,38537, Control_c, 0, 64, 47
2,38557, Control_c, 0, 64, 36
2,38561, Note_on_c, 0, 57, 0
2,38573, Control_c, 0, 64, 25
2,38573, Note_on_c, 0, 58, 52
2,38581, Note_on_c, 0, 55, 47
2,38589, Note_on_c, 0, 62, 0
2,38590, Note_on_c, 0, 61, 65
2,38593, Control_c, 0, 64, 18
2,38613, Control_c, 0, 64, 14
2,38707, Control_c, 0, 64, 25
2,38725, Control_c, 0, 64, 37
2,38760, Control_c, 0, 64, 48
2,38780, Control_c, 0, 64, 55
2,38789, Note_on_c, 0, 62, 64
2,38798, Control_c, 0, 64, 59
2,38817, Control_c, 0, 64, 61
2,38820, Note_on_c, 0, 61, 0
2,38835, Control_c, 0, 64, 63
2,38854, Control_c, 0, 64, 64
2,38926, Note_on_c, 0, 58, 0
2,38936, Note_on_c, 0, 64, 71
2,38947, Note_on_c, 0, 62, 0
2,38965, Control_c, 0, 64, 62
2,38978, Note_on_c, 0, 55, 0
2,38985, Control_c, 0, 64, 61
2,39003, Control_c, 0, 64, 60
2,39041, Control_c, 0, 64, 58
2,39078, Control_c, 0, 64, 56
2,39082, Note_on_c, 0, 64, 0
2,39086, Note_on_c, 0, 62, 74
2,39104, Note_on_c, 0, 53, 58
2,39108, Note_on_c, 0, 57, 57
2,39115, Control_c, 0, 64, 53
2,39154, Control_c, 0, 64, 50
2,39172, Control_c, 0, 64, 48
2,39191, Control_c, 0, 64, 46
2,39231, Control_c, 0, 64, 43
2,39248, Control_c, 0, 64, 41
2,39260, Note_on_c, 0, 52, 65
2,39265, Note_on_c, 0, 64, 71
2,39286, Control_c, 0, 64, 37
2,39306, Note_on_c, 0, 53, 0
2,39310, Note_on_c, 0, 62, 0
2,39404, Note_on_c, 0, 50, 67
2,39405, Note_on_c, 0, 65, 75
2,39420, Control_c, 0, 64, 33
2,39423, Note_on_c, 0, 52, 0
2,39476, Note_on_c, 0, 64, 0
2,39514, Control_c, 0, 64, 29
2,39548, Note_on_c, 0, 67, 75
2,39566, Note_on_c, 0, 49, 71
2,39570, Note_on_c, 0, 50, 0
2,39590, Note_on_c, 0, 65, 0
2,39724, Note_on_c, 0, 50, 74
2,39726, Note_on_c, 0, 65, 82
2,39738, Note_on_c, 0, 49, 0
2,39793, Note_on_c, 0, 67, 0
2,39869, Control_c, 0, 64, 25
2,39873, Note_on_c, 0, 64, 79
2,39874, Note_on_c, 0, 52, 67
2,39893, Note_on_c, 0, 50, 0
2,39907, Note_on_c, 0, 65, 0
2,40023, Note_on_c, 0, 57, 0
2,40031, Note_on_c, 0, 50, 74
2,40034, Note_on_c, 0, 65, 76
2,40050, Note_on_c, 0, 64, 0
2,40060, Note_on_c, 0, 52, 0
2,40115, Control_c, 0, 64, 21
2,40218, Note_on_c, 0, 67, 81
2,40219, Note_on_c, 0, 55, 58
2,40263, Note_on_c, 0, 65, 0
2,40266, Control_c, 0, 64, 17
2,40343, Note_on_c, 0, 69, 79
2,40357, Note_on_c, 0, 53, 68
2,40377, Note_on_c, 0, 55, 0
2,40399, Note_on_c, 0, 67, 0
2,40493, Note_on_c, 0, 70, 79
2,40494, Note_on_c, 0, 53, 0
2,40498, Note_on_c, 0, 52, 67
2,40526, Note_on_c, 0, 69, 0
2,40638, Note_on_c, 0, 69, 81
2,40639, Note_on_c, 0, 53, 70
2,40710, Note_on_c, 0, 52, 0
2,40737, Note_on_c, 0, 70, 0
2,40806, Note_on_c, 0, 53, 0
2,40806, Note_on_c, 0, 55, 64
2,40807, Note_on_c, 0, 67, 78
2,40840, Note_on_c, 0, 69, 0
2,40947, Note_on_c, 0, 55, 0
2,40949, Note_on_c, 0, 53, 73
2,40960, Note_on_c, 0, 69, 82
2,40977, Note_on_c, 0, 67, 0
2,41054, Note_on_c, 0, 50, 0
2,41218, Note_on_c, 0, 48, 77
2,41457, Note_on_c, 0, 74, 82
2,41469, Note_on_c, 0, 46, 75
2,41509, Note_on_c, 0, 48, 0
2,41517, Note_on_c, 0, 53, 0
2,41640, Note_on_c, 0, 69, 0
2,41722, Note_on_c, 0, 55, 76
2,41869, Control_c, 0, 64, 13
2,41960, Note_on_c, 0, 45, 70
2,41970, Note_on_c, 0, 73, 81
2,41982, Control_c, 0, 64, 8
2,42024, Note_on_c, 0, 46, 0
2,42034, Note_on_c, 0, 55, 0
2,42037, Control_c, 0, 64, 0
2,42067, Note_on_c, 0, 74, 0
2,42226, Note_on_c, 0, 55, 61
2,42465, Note_on_c, 0, 72, 75
2,42475, Note_on_c, 0, 54, 65
2,42526, Note_on_c, 0, 73, 0
2,42535, Note_on_c, 0, 55, 0
2,42678, Control_c, 0, 64, 25
2,42696, Control_c, 0, 64, 43
2,42714, Control_c, 0, 64, 59
2,42722, Note_on_c, 0, 50, 74
2,42735, Control_c, 0, 64, 67
2,42751, Control_c, 0, 64, 73
2,42757, Note_on_c, 0, 54, 0
2,42772, Control_c, 0, 64, 77
2,42786, Note_on_c, 0, 45, 0
2,42789, Control_c, 0, 64, 81
2,42808, Control_c, 0, 64, 83
2,42852, Note_on_c, 0, 50, 0
2,42921, Control_c, 0, 64, 81
2,42943, Control_c, 0, 64, 78
2,42962, Control_c, 0, 64, 75
2,42965, Note_on_c, 0, 43, 73
2,42966, Note_on_c, 0, 71, 85
2,42981, Control_c, 0, 64, 71
2,42996, Control_c, 0, 64, 66
2,43011, Note_on_c, 0, 72, 0
2,43015, Control_c, 0, 64, 62
2,43037, Control_c, 0, 64, 59
2,43055, Control_c, 0, 64, 56
2,43074, Control_c, 0, 64, 53
2,43093, Control_c, 0, 64, 51
2,43112, Control_c, 0, 64, 49
2,43131, Control_c, 0, 64, 47
2,43167, Control_c, 0, 64, 43
2,43186, Control_c, 0, 64, 41
2,43213, Note_on_c, 0, 53, 73
2,43223, Control_c, 0, 64, 37
2,43281, Control_c, 0, 64, 32
2,43320, Control_c, 0, 64, 28
2,43377, Control_c, 0, 64, 24
2,43462, Note_on_c, 0, 70, 81
2,43464, Note_on_c, 0, 52, 74
2,43479, Note_on_c, 0, 53, 0
2,43490, Control_c, 0, 64, 20
2,43509, Control_c, 0, 64, 14
2,43529, Control_c, 0, 64, 0
2,43538, Note_on_c, 0, 71, 0
2,43727, Note_on_c, 0, 48, 80
2,43751, Control_c, 0, 64, 22
2,43770, Control_c, 0, 64, 35
2,43790, Control_c, 0, 64, 51
2,43798, Note_on_c, 0, 52, 0
2,43807, Control_c, 0, 64, 61
2,43807, Note_on_c, 0, 43, 0
2,43828, Control_c, 0, 64, 65
2,43847, Control_c, 0, 64, 67
2,43883, Control_c, 0, 64, 69
2,43893, Note_on_c, 0, 48, 0
2,43959, Note_on_c, 0, 69, 86
2,43963, Note_on_c, 0, 41, 79
2,43978, Control_c, 0, 64, 67
2,43997, Control_c, 0, 64, 66
2,44016, Control_c, 0, 64, 65
2,44021, Note_on_c, 0, 70, 0
2,44035, Control_c, 0, 64, 64
2,44055, Control_c, 0, 64, 63
2,44056, Control_c, 0, 64, 62
2,44093, Control_c, 0, 64, 60
2,44112, Control_c, 0, 64, 57
2,44131, Control_c, 0, 64, 53
2,44150, Control_c, 0, 64, 47
2,44167, Control_c, 0, 64, 43
2,44187, Control_c, 0, 64, 41
2,44211, Note_on_c, 0, 51, 82
2,44446, Note_on_c, 0, 81, 86
2,44456, Note_on_c, 0, 50, 77
2,44505, Control_c, 0, 64, 34
2,44511, Note_on_c, 0, 51, 0
2,44524, Control_c, 0, 64, 23
2,44543, Control_c, 0, 64, 0
2,44708, Note_on_c, 0, 46, 81
2,44731, Control_c, 0, 64, 22
2,44751, Control_c, 0, 64, 40
2,44769, Control_c, 0, 64, 56
2,44779, Note_on_c, 0, 41, 0
2,44790, Control_c, 0, 64, 66
2,44808, Control_c, 0, 64, 71
2,44813, Note_on_c, 0, 50, 0
2,44829, Control_c, 0, 64, 75
2,44847, Control_c, 0, 64, 78
2,44867, Control_c, 0, 64, 80
2,44881, Note_on_c, 0, 46, 0
2,44962, Note_on_c, 0, 40, 81
2,44962, Note_on_c, 0, 69, 0
2,44970, Note_on_c, 0, 80, 82
2,45037, Control_c, 0, 64, 76
2,45048, Note_on_c, 0, 81, 0
2,45054, Control_c, 0, 64, 73
2,45074, Control_c, 0, 64, 70
2,45094, Control_c, 0, 64, 66
2,45112, Control_c, 0, 64, 61
2,45130, Control_c, 0, 64, 56
2,45149, Control_c, 0, 64, 53
2,45169, Control_c, 0, 64, 51
2,45187, Control_c, 0, 64, 47
2,45207, Control_c, 0, 64, 41
2,45216, Note_on_c, 0, 50, 80
2,45226, Control_c, 0, 64, 36
2,45284, Control_c, 0, 64, 32
2,45321, Control_c, 0, 64, 28
2,45359, Control_c, 0, 64, 17
2,45375, Control_c, 0, 64, 0
2,45473, Note_on_c, 0, 49, 76
2,45474, Note_on_c, 0, 79, 80
2,45521, Note_on_c, 0, 80, 0
2,45559, Note_on_c, 0, 50, 0
2,45694, Control_c, 0, 64, 14
2,45713, Control_c, 0, 64, 34
2,45732, Control_c, 0, 64, 53
2,45733, Note_on_c, 0, 45, 80
2,45752, Control_c, 0, 64, 65
2,45770, Control_c, 0, 64, 73
2,45770, Note_on_c, 0, 49, 0
2,45789, Control_c, 0, 64, 79
2,45789, Note_on_c, 0, 40, 0
2,45807, Control_c, 0, 64, 86
2,45827, Control_c, 0, 64, 90
2,45864, Control_c, 0, 64, 95
2,45873, Note_on_c, 0, 45, 0
2,46003, Note_on_c, 0, 50, 73
2,46003, Note_on_c, 0, 78, 81
2,46004, Note_on_c, 0, 38, 73
2,46035, Control_c, 0, 64, 88
2,46054, Control_c, 0, 64, 81
2,46073, Control_c, 0, 64, 72
2,46090, Control_c, 0, 64, 61
2,46093, Note_on_c, 0, 79, 0
2,46110, Control_c, 0, 64, 52
2,46129, Control_c, 0, 64, 46
2,46148, Control_c, 0, 64, 38
2,46167, Control_c, 0, 64, 26
2,46187, Control_c, 0, 64, 10
2,46206, Control_c, 0, 64, 0
2,46341, Note_on_c, 0, 69, 82
2,46356, Control_c, 0, 64, 22
2,46373, Control_c, 0, 64, 39
2,46394, Control_c, 0, 64, 57
2,46428, Control_c, 0, 64, 65
2,46447, Control_c, 0, 64, 69
2,46467, Control_c, 0, 64, 72
2,46470, Note_on_c, 0, 78, 0
2,46506, Note_on_c, 0, 50, 0
2,46561, Control_c, 0, 64, 69
2,46577, Control_c, 0, 64, 66
2,46596, Control_c, 0, 64, 62
2,46601, Note_on_c, 0, 77, 75
2,46602, Note_on_c, 0, 70, 81
2,46605, Note_on_c, 0, 50, 60
2,46615, Control_c, 0, 64, 57
2,46636, Control_c, 0, 64, 51
2,46650, Note_on_c, 0, 69, 0
2,46653, Control_c, 0, 64, 46
2,46674, Control_c, 0, 64, 39
2,46692, Control_c, 0, 64, 30
2,46714, Control_c, 0, 64, 22
2,46731, Control_c, 0, 64, 11
2,46749, Control_c, 0, 64, 0
2,46855, Note_on_c, 0, 69, 81
2,46861, Control_c, 0, 64, 17
2,46881, Control_c, 0, 64, 34
2,46897, Note_on_c, 0, 70, 0
2,46898, Control_c, 0, 64, 50
2,46920, Control_c, 0, 64, 61
2,46939, Control_c, 0, 64, 66
2,46948, Note_on_c, 0, 77, 0
2,46957, Control_c, 0, 64, 70
2,46976, Control_c, 0, 64, 73
2,46994, Control_c, 0, 64, 75
2,47020, Note_on_c, 0, 38, 0
2,47050, Control_c, 0, 64, 72
2,47059, Note_on_c, 0, 69, 0
2,47069, Control_c, 0, 64, 66
2,47083, Note_on_c, 0, 67, 75
2,47087, Control_c, 0, 64, 55
2,47095, Note_on_c, 0, 76, 71
2,47107, Control_c, 0, 64, 46
2,47184, Control_c, 0, 64, 52
2,47203, Control_c, 0, 64, 57
2,47221, Control_c, 0, 64, 61
2,47240, Control_c, 0, 64, 65
2,47259, Control_c, 0, 64, 67
2,47331, Note_on_c, 0, 70, 69
2,47354, Control_c, 0, 64, 66
2,47407, Control_c, 0, 64, 64
2,47408, Note_on_c, 0, 67, 0
2,47426, Control_c, 0, 64, 62
2,47445, Control_c, 0, 64, 60
2,47462, Control_c, 0, 64, 58
2,47482, Control_c, 0, 64, 56
2,47500, Control_c, 0, 64, 54
2,47521, Control_c, 0, 64, 51
2,47537, Control_c, 0, 64, 49
2,47557, Control_c, 0, 64, 46
2,47577, Control_c, 0, 64, 44
2,47593, Note_on_c, 0, 69, 65
2,47597, Control_c, 0, 64, 42
2,47603, Note_on_c, 0, 49, 52
2,47622, Note_on_c, 0, 70, 0
2,47632, Control_c, 0, 64, 37
2,47652, Note_on_c, 0, 50, 0
2,47691, Control_c, 0, 64, 32
2,47831, Note_on_c, 0, 67, 63
2,47862, Note_on_c, 0, 69, 0
2,48065, Note_on_c, 0, 65, 62
2,48067, Note_on_c, 0, 49, 0
2,48069, Note_on_c, 0, 67, 0
2,48086, Note_on_c, 0, 50, 54
2,48218, Control_c, 0, 64, 36
2,48237, Control_c, 0, 64, 43
2,48255, Control_c, 0, 64, 49
2,48275, Control_c, 0, 64, 55
2,48293, Control_c, 0, 64, 58
2,48308, Note_on_c, 0, 57, 68
2,48348, Control_c, 0, 64, 60
2,48366, Control_c, 0, 64, 61
2,48436, Note_on_c, 0, 76, 0
2,48478, Note_on_c, 0, 50, 0
2,48498, Control_c, 0, 64, 60
2,48555, Control_c, 0, 64, 58
2,48572, Note_on_c, 0, 74, 74
2,48591, Note_on_c, 0, 58, 61
2,48632, Control_c, 0, 64, 56
2,48666, Note_on_c, 0, 57, 0
2,48687, Control_c, 0, 64, 54
2,48726, Control_c, 0, 64, 51
2,48741, Control_c, 0, 64, 49
2,48762, Control_c, 0, 64, 47
2,48801, Control_c, 0, 64, 45
2,48818, Note_on_c, 0, 57, 61
2,48839, Control_c, 0, 64, 43
2,48858, Note_on_c, 0, 58, 0
2,48878, Control_c, 0, 64, 41
2,48952, Control_c, 0, 64, 37
2,49060, Note_on_c, 0, 57, 0
2,49070, Note_on_c, 0, 55, 47
2,49085, Control_c, 0, 64, 32
2,49089, Note_on_c, 0, 64, 46
2,49093, Note_on_c, 0, 65, 0
2,49322, Note_on_c, 0, 58, 50
2,49352, Note_on_c, 0, 55, 0
2,49571, Note_on_c, 0, 57, 47
2,49585, Note_on_c, 0, 73, 49
2,49610, Control_c, 0, 64, 28
2,49621, Note_on_c, 0, 58, 0
2,49651, Note_on_c, 0, 74, 0
2,49721, Control_c, 0, 64, 22
2,49740, Control_c, 0, 64, 13
2,49763, Control_c, 0, 64, 0
2,49775, Note_on_c, 0, 64, 0
2,49808, Note_on_c, 0, 57, 0
2,49810, Note_on_c, 0, 55, 46
2,49969, Control_c, 0, 64, 21
2,49988, Control_c, 0, 64, 34
2,50007, Control_c, 0, 64, 49
2,50027, Control_c, 0, 64, 59
2,50046, Control_c, 0, 64, 64
2,50065, Control_c, 0, 64, 67
2,50082, Note_on_c, 0, 73, 0
2,50083, Control_c, 0, 64, 70
2,50091, Note_on_c, 0, 53, 45
2,50113, Note_on_c, 0, 55, 0
2,50214, Control_c, 0, 64, 68
2,50232, Control_c, 0, 64, 66
2,50268, Control_c, 0, 64, 65
2,50287, Control_c, 0, 64, 63
2,50306, Control_c, 0, 64, 61
2,50325, Control_c, 0, 64, 58
2,50343, Control_c, 0, 64, 55
2,50363, Control_c, 0, 64, 52
2,50364, Note_on_c, 0, 81, 49
2,50382, Control_c, 0, 64, 50
2,50418, Control_c, 0, 64, 48
2,50456, Control_c, 0, 64, 46
2,50476, Control_c, 0, 64, 44
2,50513, Control_c, 0, 64, 41
2,50572, Control_c, 0, 64, 36
2,50597, Note_on_c, 0, 62, 57
2,50607, Control_c, 0, 64, 32
2,50611, Note_on_c, 0, 82, 60
2,50638, Note_on_c, 0, 81, 0
2,50647, Control_c, 0, 64, 25
2,50663, Control_c, 0, 64, 20
2,50683, Control_c, 0, 64, 15
2,50722, Control_c, 0, 64, 0
2,50830, Note_on_c, 0, 81, 61
2,50900, Note_on_c, 0, 82, 0
2,51089, Note_on_c, 0, 81, 0
2,51091, Note_on_c, 0, 53, 0
2,51093, Note_on_c, 0, 79, 51
2,51098, Note_on_c, 0, 52, 39
2,51336, Note_on_c, 0, 82, 53
2,51366, Note_on_c, 0, 79, 0
2,51579, Note_on_c, 0, 81, 55
2,51597, Note_on_c, 0, 61, 47
2,51643, Control_c, 0, 64, 21
2,51655, Note_on_c, 0, 82, 0
2,51660, Control_c, 0, 64, 36
2,51670, Note_on_c, 0, 62, 0
2,51680, Control_c, 0, 64, 51
2,51700, Control_c, 0, 64, 62
2,51720, Control_c, 0, 64, 68
2,51739, Control_c, 0, 64, 73
2,51758, Control_c, 0, 64, 77
2,51774, Control_c, 0, 64, 82
2,51786, Note_on_c, 0, 52, 0
2,51792, Control_c, 0, 64, 86
2,51805, Note_on_c, 0, 61, 0
2,51830, Note_on_c, 0, 79, 55
2,51851, Control_c, 0, 64, 90
2,51862, Note_on_c, 0, 81, 0
2,51984, Control_c, 0, 64, 82
2,52003, Control_c, 0, 64, 69
2,52020, Control_c, 0, 64, 56
2,52041, Control_c, 0, 64, 53
2,52049, Note_on_c, 0, 79, 0
2,52058, Control_c, 0, 64, 55
2,52064, Note_on_c, 0, 50, 52
2,52067, Note_on_c, 0, 77, 58
2,52077, Control_c, 0, 64, 59
2,52077, Note_on_c, 0, 62, 56
2,52095, Control_c, 0, 64, 63
2,52102, Note_on_c, 0, 50, 0
2,52116, Control_c, 0, 64, 67
2,52133, Control_c, 0, 64, 70
2,52153, Control_c, 0, 64, 72
2,52208, Control_c, 0, 64, 74
2,52257, Note_on_c, 0, 76, 63
2,52258, Note_on_c, 0, 77, 0
2,52266, Note_on_c, 0, 62, 0
2,52272, Note_on_c, 0, 64, 70
2,52339, Control_c, 0, 64, 72
2,52375, Control_c, 0, 64, 68
2,52394, Control_c, 0, 64, 65
2,52409, Note_on_c, 0, 76, 0
2,52414, Control_c, 0, 64, 63
2,52417, Note_on_c, 0, 65, 64
2,52422, Note_on_c, 0, 74, 63
2,52433, Control_c, 0, 64, 59
2,52441, Note_on_c, 0, 64, 0
2,52453, Control_c, 0, 64, 56
2,52471, Control_c, 0, 64, 52
2,52491, Control_c, 0, 64, 49
2,52508, Control_c, 0, 64, 46
2,52527, Control_c, 0, 64, 43
2,52546, Control_c, 0, 64, 39
2,52551, Note_on_c, 0, 67, 63
2,52553, Note_on_c, 0, 65, 0
2,52553, Note_on_c, 0, 73, 69
2,52565, Note_on_c, 0, 74, 0
2,52583, Control_c, 0, 64, 33
2,52677, Control_c, 0, 64, 29
2,52686, Note_on_c, 0, 65, 69
2,52690, Note_on_c, 0, 67, 0
2,52700, Note_on_c, 0, 74, 72
2,52733, Control_c, 0, 64, 25
2,52740, Note_on_c, 0, 73, 0
2,52774, Control_c, 0, 64, 21
2,52810, Control_c, 0, 64, 16
2,52821, Note_on_c, 0, 65, 0
2,52829, Note_on_c, 0, 64, 66
2,52842, Note_on_c, 0, 76, 65
2,52865, Note_on_c, 0, 74, 0
2,52905, Control_c, 0, 64, 12
2,52977, Note_on_c, 0, 65, 63
2,52994, Note_on_c, 0, 69, 60
2,53015, Note_on_c, 0, 76, 0
2,53045, Note_on_c, 0, 64, 0
2,53154, Note_on_c, 0, 67, 73
2,53165, Note_on_c, 0, 71, 65
2,53183, Note_on_c, 0, 65, 0
2,53197, Note_on_c, 0, 69, 0
2,53295, Note_on_c, 0, 69, 72
2,53308, Note_on_c, 0, 73, 68
2,53344, Note_on_c, 0, 67, 0
2,53344, Note_on_c, 0, 71, 0
2,53423, Note_on_c, 0, 70, 74
2,53446, Note_on_c, 0, 74, 70
2,53454, Note_on_c, 0, 73, 0
2,53463, Note_on_c, 0, 69, 0
2,53577, Note_on_c, 0, 69, 78
2,53588, Note_on_c, 0, 73, 75
2,53612, Note_on_c, 0, 70, 0
2,53627, Note_on_c, 0, 74, 0
2,53720, Note_on_c, 0, 67, 78
2,53731, Note_on_c, 0, 69, 0
2,53742, Note_on_c, 0, 71, 73
2,53759, Note_on_c, 0, 73, 0
2,53864, Control_c, 0, 64, 0
2,53880, Note_on_c, 0, 69, 77
2,53897, Note_on_c, 0, 73, 73
2,53919, Note_on_c, 0, 71, 0
2,53928, Note_on_c, 0, 67, 0
2,54058, Note_on_c, 0, 73, 0
2,54059, Note_on_c, 0, 74, 79
2,54107, Control_c, 0, 64, 20
2,54126, Control_c, 0, 64, 30
2,54144, Control_c, 0, 64, 41
2,54164, Control_c, 0, 64, 52
2,54181, Control_c, 0, 64, 59
2,54201, Control_c, 0, 64, 63
2,54218, Control_c, 0, 64, 66
2,54218, Note_on_c, 0, 76, 79
2,54232, Note_on_c, 0, 74, 0
2,54238, Control_c, 0, 64, 67
2,54313, Control_c, 0, 64, 59
2,54333, Control_c, 0, 64, 43
2,54350, Control_c, 0, 64, 21
2,54358, Note_on_c, 0, 74, 86
2,54367, Note_on_c, 0, 77, 79
2,54369, Control_c, 0, 64, 9
2,54393, Note_on_c, 0, 76, 0
2,54407, Note_on_c, 0, 69, 0
2,54427, Control_c, 0, 64, 19
2,54446, Control_c, 0, 64, 37
2,54467, Control_c, 0, 64, 53
2,54485, Control_c, 0, 64, 63
2,54501, Control_c, 0, 64, 67
2,54507, Note_on_c, 0, 74, 0
2,54519, Control_c, 0, 64, 70
2,54521, Note_on_c, 0, 76, 82
2,54540, Control_c, 0, 64, 73
2,54572, Note_on_c, 0, 77, 0
2,54654, Note_on_c, 0, 74, 83
2,54661, Note_on_c, 0, 76, 0
2,54710, Control_c, 0, 64, 70
2,54746, Note_on_c, 0, 74, 0
2,54747, Control_c, 0, 64, 66
2,54767, Control_c, 0, 64, 65
2,54785, Control_c, 0, 64, 63
2,54799, Note_on_c, 0, 76, 85
2,54804, Control_c, 0, 64, 61
2,54805, Note_on_c, 0, 73, 81
2,54826, Control_c, 0, 64, 58
2,54844, Control_c, 0, 64, 55
2,54882, Control_c, 0, 64, 52
2,54899, Control_c, 0, 64, 49
2,54919, Control_c, 0, 64, 46
2,54938, Control_c, 0, 64, 43
2,54974, Control_c, 0, 64, 37
2,55013, Control_c, 0, 64, 32
2,55086, Note_on_c, 0, 47, 81
2,55333, Note_on_c, 0, 81, 81
2,55339, Note_on_c, 0, 48, 74
2,55340, Note_on_c, 0, 72, 79
2,55382, Note_on_c, 0, 76, 0
2,55384, Note_on_c, 0, 73, 0
2,55395, Note_on_c, 0, 78, 35
2,55404, Control_c, 0, 64, 28
2,55422, Note_on_c, 0, 47, 0
2,55437, Note_on_c, 0, 78, 0
2,55444, Control_c, 0, 64, 21
2,55461, Control_c, 0, 64, 10
2,55481, Control_c, 0, 64, 0
2,55583, Note_on_c, 0, 50, 74
2,55632, Control_c, 0, 64, 18
2,55650, Note_on_c, 0, 48, 0
2,55651, Control_c, 0, 64, 31
2,55671, Control_c, 0, 64, 42
2,55689, Control_c, 0, 64, 52
2,55707, Control_c, 0, 64, 57
2,55713, Note_on_c, 0, 72, 0
2,55727, Control_c, 0, 64, 59
2,55822, Note_on_c, 0, 52, 75
2,55831, Note_on_c, 0, 71, 79
2,55834, Note_on_c, 0, 80, 80
2,55850, Note_on_c, 0, 50, 0
2,55877, Control_c, 0, 64, 56
2,55897, Control_c, 0, 64, 51
2,55898, Note_on_c, 0, 81, 0
2,55917, Control_c, 0, 64, 43
2,55932, Control_c, 0, 64, 33
2,55952, Control_c, 0, 64, 25
2,56081, Control_c, 0, 64, 31
2,56082, Note_on_c, 0, 54, 67
2,56102, Control_c, 0, 64, 43
2,56119, Control_c, 0, 64, 56
2,56138, Control_c, 0, 64, 63
2,56152, Note_on_c, 0, 52, 0
2,56155, Control_c, 0, 64, 67
2,56177, Control_c, 0, 64, 70
2,56193, Control_c, 0, 64, 73
2,56197, Note_on_c, 0, 80, 0
2,56212, Control_c, 0, 64, 76
2,56251, Control_c, 0, 64, 78
2,56291, Note_on_c, 0, 71, 0
2,56308, Control_c, 0, 64, 76
2,56319, Note_on_c, 0, 70, 81
2,56321, Note_on_c, 0, 79, 77
2,56328, Control_c, 0, 64, 72
2,56332, Note_on_c, 0, 55, 67
2,56346, Control_c, 0, 64, 65
2,56365, Control_c, 0, 64, 55
2,56380, Note_on_c, 0, 54, 0
2,56383, Control_c, 0, 64, 45
2,56404, Control_c, 0, 64, 38
2,56420, Control_c, 0, 64, 34
2,56536, Control_c, 0, 64, 40
2,56554, Control_c, 0, 64, 49
2,56573, Control_c, 0, 64, 57
2,56577, Note_on_c, 0, 52, 67
2,56591, Control_c, 0, 64, 63
2,56611, Control_c, 0, 64, 68
2,56617, Note_on_c, 0, 55, 0
2,56630, Control_c, 0, 64, 72
2,56648, Control_c, 0, 64, 76
2,56665, Control_c, 0, 64, 79
2,56685, Control_c, 0, 64, 81
2,56726, Note_on_c, 0, 70, 0
2,56817, Control_c, 0, 64, 79
2,56834, Note_on_c, 0, 78, 76
2,56835, Note_on_c, 0, 69, 75
2,56843, Note_on_c, 0, 57, 61
2,56852, Note_on_c, 0, 52, 0
2,56856, Control_c, 0, 64, 76
2,56874, Control_c, 0, 64, 74
2,56892, Control_c, 0, 64, 71
2,56911, Control_c, 0, 64, 68
2,56931, Control_c, 0, 64, 64
2,56941, Note_on_c, 0, 79, 0
2,56948, Control_c, 0, 64, 61
2,56984, Control_c, 0, 64, 58
2,57005, Control_c, 0, 64, 56
2,57042, Control_c, 0, 64, 53
2,57061, Control_c, 0, 64, 51
2,57079, Control_c, 0, 64, 49
2,57097, Control_c, 0, 64, 47
2,57117, Control_c, 0, 64, 45
2,57122, Note_on_c, 0, 56, 66
2,57136, Control_c, 0, 64, 43
2,57153, Control_c, 0, 64, 40
2,57181, Note_on_c, 0, 57, 0
2,57191, Control_c, 0, 64, 34
2,57230, Control_c, 0, 64, 27
2,57249, Control_c, 0, 64, 22
2,57269, Control_c, 0, 64, 16
2,57288, Control_c, 0, 64, 11
2,57325, Control_c, 0, 64, 0
2,57345, Note_on_c, 0, 57, 66
2,57351, Note_on_c, 0, 77, 71
2,57397, Note_on_c, 0, 56, 0
2,57454, Note_on_c, 0, 78, 0
2,57608, Note_on_c, 0, 59, 58
2,57641, Note_on_c, 0, 57, 0
2,57846, Note_on_c, 0, 76, 68
2,57852, Note_on_c, 0, 60, 44
2,57889, Note_on_c, 0, 59, 0
2,57976, Note_on_c, 0, 77, 0
2,58039, Control_c, 0, 64, 17
2,58056, Control_c, 0, 64, 33
2,58077, Control_c, 0, 64, 48
2,58095, Control_c, 0, 64, 59
2,58111, Control_c, 0, 64, 64
2,58115, Note_on_c, 0, 54, 52
2,58131, Control_c, 0, 64, 67
2,58135, Note_on_c, 0, 60, 0
2,58151, Control_c, 0, 64, 71
2,58171, Control_c, 0, 64, 74
2,58187, Control_c, 0, 64, 78
2,58208, Control_c, 0, 64, 80
2,58243, Note_on_c, 0, 76, 0
2,58322, Control_c, 0, 64, 76
2,58340, Control_c, 0, 64, 74
2,58358, Control_c, 0, 64, 71
2,58368, Note_on_c, 0, 54, 0
2,58373, Note_on_c, 0, 59, 58
2,58373, Note_on_c, 0, 74, 73
2,58377, Control_c, 0, 64, 67
2,58398, Control_c, 0, 64, 64
2,58414, Control_c, 0, 64, 60
2,58432, Control_c, 0, 64, 57
2,58452, Control_c, 0, 64, 53
2,58471, Control_c, 0, 64, 51
2,58490, Control_c, 0, 64, 49
2,58530, Control_c, 0, 64, 45
2,58548, Control_c, 0, 64, 42
2,58568, Note_on_c, 0, 69, 0
2,58584, Control_c, 0, 64, 37
2,58632, Note_on_c, 0, 57, 58
2,58638, Note_on_c, 0, 65, 60
2,58641, Control_c, 0, 64, 32
2,58670, Note_on_c, 0, 59, 0
2,58698, Control_c, 0, 64, 28
2,58755, Control_c, 0, 64, 24
2,58793, Control_c, 0, 64, 20
2,58831, Control_c, 0, 64, 16
2,58869, Control_c, 0, 64, 8
2,58885, Note_on_c, 0, 64, 64
2,58899, Note_on_c, 0, 56, 59
2,58902, Control_c, 0, 64, 0
2,58934, Note_on_c, 0, 57, 0
2,58944, Note_on_c, 0, 65, 0
2,59142, Note_on_c, 0, 52, 59
2,59155, Note_on_c, 0, 56, 0
2,59191, Note_on_c, 0, 74, 0
2,59386, Note_on_c, 0, 72, 72
2,59387, Note_on_c, 0, 57, 53
2,59409, Note_on_c, 0, 52, 0
2,59477, Note_on_c, 0, 64, 0
2,59527, Control_c, 0, 64, 20
2,59544, Control_c, 0, 64, 30
2,59563, Control_c, 0, 64, 41
2,59583, Control_c, 0, 64, 52
2,59602, Control_c, 0, 64, 59
2,59621, Control_c, 0, 64, 63
2,59625, Note_on_c, 0, 64, 61
2,59641, Control_c, 0, 64, 65
2,59659, Control_c, 0, 64, 67
2,59679, Control_c, 0, 64, 69
2,59695, Control_c, 0, 64, 71
2,59715, Control_c, 0, 64, 73
2,59738, Note_on_c, 0, 64, 0
2,59884, Note_on_c, 0, 71, 70
2,59908, Note_on_c, 0, 62, 46
2,59917, Note_on_c, 0, 72, 0
2,59919, Note_on_c, 0, 57, 0
2,59957, Control_c, 0, 64, 70
2,59995, Control_c, 0, 64, 67
2,60015, Control_c, 0, 64, 64
2,60032, Control_c, 0, 64, 62
2,60051, Control_c, 0, 64, 59
2,60069, Control_c, 0, 64, 56
2,60090, Control_c, 0, 64, 53
2,60109, Control_c, 0, 64, 50
2,60128, Control_c, 0, 64, 47
2,60139, Note_on_c, 0, 50, 56
2,60146, Control_c, 0, 64, 43
2,60167, Control_c, 0, 64, 39
2,60184, Control_c, 0, 64, 35
2,60222, Control_c, 0, 64, 30
2,60278, Control_c, 0, 64, 25
2,60317, Control_c, 0, 64, 20
2,60371, Control_c, 0, 64, 16
2,60372, Note_on_c, 0, 55, 50
2,60376, Note_on_c, 0, 70, 65
2,60392, Note_on_c, 0, 71, 0
2,60403, Note_on_c, 0, 62, 0
2,60467, Note_on_c, 0, 50, 0
2,60590, Note_on_c, 0, 62, 46
2,60608, Note_on_c, 0, 55, 0
2,60618, Note_on_c, 0, 53, 47
2,60846, Note_on_c, 0, 62, 0
2,60851, Note_on_c, 0, 53, 0
2,60867, Note_on_c, 0, 52, 46
2,60885, Note_on_c, 0, 60, 45
2,61094, Note_on_c, 0, 52, 0
2,61105, Control_c, 0, 64, 25
2,61115, Note_on_c, 0, 48, 44
2,61126, Control_c, 0, 64, 33
2,61144, Control_c, 0, 64, 41
2,61162, Control_c, 0, 64, 50
2,61182, Control_c, 0, 64, 55
2,61201, Control_c, 0, 64, 57
2,61238, Control_c, 0, 64, 60
2,61257, Control_c, 0, 64, 61
2,61306, Note_on_c, 0, 48, 0
2,61306, Note_on_c, 0, 60, 0
2,61311, Control_c, 0, 64, 60
2,61331, Control_c, 0, 64, 55
2,61334, Note_on_c, 0, 69, 58
2,61340, Note_on_c, 0, 53, 44
2,61350, Control_c, 0, 64, 48
2,61370, Control_c, 0, 64, 40
2,61384, Note_on_c, 0, 70, 0
2,61388, Control_c, 0, 64, 34
2,61485, Control_c, 0, 64, 41
2,61502, Control_c, 0, 64, 48
2,61522, Control_c, 0, 64, 55
2,61538, Control_c, 0, 64, 59
2,61558, Control_c, 0, 64, 63
2,61577, Control_c, 0, 64, 65
2,61590, Note_on_c, 0, 60, 41
2,61595, Control_c, 0, 64, 67
2,61634, Control_c, 0, 64, 70
2,61658, Note_on_c, 0, 60, 0
2,61830, Note_on_c, 0, 53, 0
2,61837, Note_on_c, 0, 68, 57
2,61859, Note_on_c, 0, 59, 35
2,61877, Control_c, 0, 64, 68
2,61895, Control_c, 0, 64, 66
2,61914, Control_c, 0, 64, 64
2,61926, Note_on_c, 0, 69, 0
2,61933, Control_c, 0, 64, 61
2,61951, Control_c, 0, 64, 59
2,61970, Control_c, 0, 64, 57
2,62008, Control_c, 0, 64, 52
2,62026, Control_c, 0, 64, 50
2,62045, Control_c, 0, 64, 46
2,62063, Control_c, 0, 64, 43
2,62073, Note_on_c, 0, 47, 53
2,62084, Control_c, 0, 64, 39
2,62122, Control_c, 0, 64, 34
2,62160, Control_c, 0, 64, 30
2,62195, Control_c, 0, 64, 25
2,62305, Note_on_c, 0, 68, 0
2,62319, Note_on_c, 0, 67, 56
2,62333, Note_on_c, 0, 52, 41
2,62390, Note_on_c, 0, 47, 0
2,62506, Note_on_c, 0, 59, 0
2,62567, Note_on_c, 0, 58, 45
2,62574, Note_on_c, 0, 52, 0
2,62583, Note_on_c, 0, 50, 40
2,62782, Note_on_c, 0, 58, 0
2,62827, Note_on_c, 0, 49, 40
2,62833, Note_on_c, 0, 57, 43
2,62856, Note_on_c, 0, 50, 0
2,62948, Control_c, 0, 64, 32
2,62968, Control_c, 0, 64, 38
2,62987, Control_c, 0, 64, 46
2,63006, Control_c, 0, 64, 52
2,63025, Control_c, 0, 64, 57
2,63045, Control_c, 0, 64, 60
2,63056, Note_on_c, 0, 49, 0
2,63061, Control_c, 0, 64, 63
2,63077, Note_on_c, 0, 45, 41
2,63081, Control_c, 0, 64, 65
2,63101, Control_c, 0, 64, 66
2,63119, Note_on_c, 0, 57, 0
2,63120, Control_c, 0, 64, 67
2,63231, Control_c, 0, 64, 66
2,63250, Control_c, 0, 64, 65
2,63262, Note_on_c, 0, 67, 0
2,63270, Control_c, 0, 64, 62
2,63290, Control_c, 0, 64, 59
2,63307, Control_c, 0, 64, 55
2,63313, Note_on_c, 0, 50, 38
2,63314, Note_on_c, 0, 65, 40
2,63327, Control_c, 0, 64, 51
2,63347, Control_c, 0, 64, 47
2,63355, Note_on_c, 0, 45, 0
2,63364, Note_on_c, 0, 65, 0
2,63366, Control_c, 0, 64, 43
2,63382, Control_c, 0, 64, 40
2,63385, Note_on_c, 0, 67, 56
2,63441, Control_c, 0, 64, 35
2,63458, Note_on_c, 0, 67, 0
2,63482, Note_on_c, 0, 65, 51
2,63573, Control_c, 0, 64, 39
2,63591, Control_c, 0, 64, 45
2,63609, Control_c, 0, 64, 52
2,63628, Control_c, 0, 64, 57
2,63649, Control_c, 0, 64, 60
2,63666, Control_c, 0, 64, 61
2,63700, Control_c, 0, 64, 62
2,63853, Control_c, 0, 64, 60
2,63867, Note_on_c, 0, 65, 0
2,63875, Note_on_c, 0, 69, 55
2,63890, Control_c, 0, 64, 56
2,63895, Note_on_c, 0, 64, 42
2,63908, Control_c, 0, 64, 51
2,63928, Control_c, 0, 64, 46
2,63947, Control_c, 0, 64, 40
2,63987, Control_c, 0, 64, 35
2,64078, Note_on_c, 0, 67, 57
2,64097, Control_c, 0, 64, 41
2,64115, Control_c, 0, 64, 46
2,64136, Control_c, 0, 64, 52
2,64153, Control_c, 0, 64, 55
2,64154, Note_on_c, 0, 69, 0
2,64174, Control_c, 0, 64, 57
2,64203, Note_on_c, 0, 64, 0
2,64234, Note_on_c, 0, 65, 61
2,64274, Note_on_c, 0, 67, 0
2,64342, Control_c, 0, 64, 54
2,64362, Control_c, 0, 64, 50
2,64380, Control_c, 0, 64, 46
2,64382, Note_on_c, 0, 64, 55
2,64399, Note_on_c, 0, 49, 50
2,64400, Control_c, 0, 64, 43
2,64409, Note_on_c, 0, 65, 0
2,64416, Control_c, 0, 64, 40
2,64455, Control_c, 0, 64, 35
2,64493, Note_on_c, 0, 50, 0
2,64560, Note_on_c, 0, 65, 65
2,64619, Note_on_c, 0, 64, 0
2,64709, Note_on_c, 0, 67, 60
2,64742, Note_on_c, 0, 65, 0
2,64862, Note_on_c, 0, 50, 53
2,64864, Control_c, 0, 64, 31
2,64878, Note_on_c, 0, 49, 0
2,64881, Note_on_c, 0, 65, 70
2,65006, Note_on_c, 0, 67, 0
2,65043, Note_on_c, 0, 48, 57
2,65051, Note_on_c, 0, 64, 66
2,65075, Note_on_c, 0, 50, 0
2,65096, Note_on_c, 0, 65, 0
2,65179, Note_on_c, 0, 46, 64
2,65199, Note_on_c, 0, 62, 67
2,65202, Note_on_c, 0, 48, 0
2,65209, Note_on_c, 0, 64, 0
2,65339, Note_on_c, 0, 61, 69
2,65342, Note_on_c, 0, 46, 0
2,65343, Note_on_c, 0, 45, 61
2,65358, Note_on_c, 0, 62, 0
2,65492, Note_on_c, 0, 46, 67
2,65493, Note_on_c, 0, 62, 76
2,65519, Note_on_c, 0, 61, 0
2,65521, Note_on_c, 0, 45, 0
2,65663, Note_on_c, 0, 64, 68
2,65672, Note_on_c, 0, 48, 64
2,65681, Note_on_c, 0, 62, 0
2,65688, Note_on_c, 0, 46, 0
2,65712, Control_c, 0, 64, 26
2,65750, Control_c, 0, 64, 19
2,65788, Control_c, 0, 64, 12
2,65803, Note_on_c, 0, 62, 71
2,65832, Note_on_c, 0, 46, 69
2,65844, Note_on_c, 0, 48, 0
2,65868, Note_on_c, 0, 64, 0
2,65938, Control_c, 0, 64, 21
2,65958, Control_c, 0, 64, 27
2,65976, Control_c, 0, 64, 34
2,65986, Note_on_c, 0, 46, 0
2,65993, Note_on_c, 0, 45, 68
2,65997, Control_c, 0, 64, 40
2,66013, Control_c, 0, 64, 46
2,66033, Control_c, 0, 64, 52
2,66051, Control_c, 0, 64, 56
2,66071, Control_c, 0, 64, 59
2,66089, Control_c, 0, 64, 60
2,66108, Control_c, 0, 64, 61
2,66126, Control_c, 0, 64, 62
2,66127, Note_on_c, 0, 43, 69
2,66135, Note_on_c, 0, 45, 0
2,66143, Control_c, 0, 64, 63
2,66239, Note_on_c, 0, 62, 0
2,66258, Control_c, 0, 64, 61
2,66277, Control_c, 0, 64, 59
2,66277, Note_on_c, 0, 42, 65
2,66278, Note_on_c, 0, 57, 78
2,66281, Note_on_c, 0, 43, 0
2,66296, Control_c, 0, 64, 53
2,66318, Control_c, 0, 64, 44
2,66332, Control_c, 0, 64, 33
2,66353, Control_c, 0, 64, 25
2,66371, Control_c, 0, 64, 21
2,66418, Note_on_c, 0, 43, 68
2,66439, Note_on_c, 0, 42, 0
2,66485, Control_c, 0, 64, 28
2,66504, Control_c, 0, 64, 36
2,66524, Control_c, 0, 64, 44
2,66542, Control_c, 0, 64, 51
2,66562, Control_c, 0, 64, 56
2,66596, Control_c, 0, 64, 58
2,66608, Note_on_c, 0, 45, 67
2,66615, Control_c, 0, 64, 60
2,66618, Note_on_c, 0, 43, 0
2,66633, Control_c, 0, 64, 61
2,66747, Control_c, 0, 64, 60
2,66783, Control_c, 0, 64, 57
2,66794, Note_on_c, 0, 43, 68
2,66802, Note_on_c, 0, 58, 77
2,66804, Control_c, 0, 64, 53
2,66812, Note_on_c, 0, 45, 0
2,66821, Control_c, 0, 64, 46
2,66840, Control_c, 0, 64, 36
2,66859, Control_c, 0, 64, 23
2,66881, Note_on_c, 0, 57, 0
2,66898, Control_c, 0, 64, 0
2,66995, Note_on_c, 0, 62, 70
2,67031, Control_c, 0, 64, 11
2,67049, Control_c, 0, 64, 25
2,67068, Control_c, 0, 64, 37
2,67085, Control_c, 0, 64, 50
2,67105, Control_c, 0, 64, 59
2,67124, Control_c, 0, 64, 63
2,67142, Note_on_c, 0, 64, 71
2,67143, Control_c, 0, 64, 65
2,67163, Control_c, 0, 64, 66
2,67181, Control_c, 0, 64, 67
2,67235, Note_on_c, 0, 62, 0
2,67257, Control_c, 0, 64, 66
2,67265, Note_on_c, 0, 58, 0
2,67277, Control_c, 0, 64, 63
2,67280, Note_on_c, 0, 43, 0
2,67290, Note_on_c, 0, 38, 73
2,67293, Control_c, 0, 64, 58
2,67293, Note_on_c, 0, 59, 82
2,67300, Note_on_c, 0, 65, 72
2,67312, Control_c, 0, 64, 51
2,67312, Note_on_c, 0, 64, 0
2,67331, Control_c, 0, 64, 40
2,67352, Control_c, 0, 64, 30
2,67369, Control_c, 0, 64, 23
2,67391, Control_c, 0, 64, 19
2,67472, Note_on_c, 0, 64, 71
2,67483, Control_c, 0, 64, 27
2,67502, Control_c, 0, 64, 38
2,67521, Control_c, 0, 64, 50
2,67537, Note_on_c, 0, 65, 0
2,67555, Control_c, 0, 64, 59
2,67573, Control_c, 0, 64, 63
2,67593, Control_c, 0, 64, 65
2,67611, Control_c, 0, 64, 68
2,67632, Control_c, 0, 64, 70
2,67646, Note_on_c, 0, 62, 81
2,67651, Control_c, 0, 64, 72
2,67670, Control_c, 0, 64, 75
2,67678, Note_on_c, 0, 38, 0
2,67686, Note_on_c, 0, 59, 0
2,67688, Control_c, 0, 64, 77
2,67705, Note_on_c, 0, 64, 0
2,67765, Note_on_c, 0, 62, 0
2,67800, Control_c, 0, 64, 73
2,67800, Note_on_c, 0, 60, 85
2,67802, Note_on_c, 0, 39, 72
2,67819, Control_c, 0, 64, 68
2,67838, Control_c, 0, 64, 61
2,67858, Control_c, 0, 64, 53
2,67877, Control_c, 0, 64, 47
2,67896, Control_c, 0, 64, 42
2,67915, Control_c, 0, 64, 38
2,67952, Control_c, 0, 64, 32
2,67997, Note_on_c, 0, 70, 75
2,68046, Control_c, 0, 64, 36
2,68063, Control_c, 0, 64, 43
2,68084, Control_c, 0, 64, 51
2,68102, Control_c, 0, 64, 58
2,68122, Control_c, 0, 64, 63
2,68141, Control_c, 0, 64, 66
2,68157, Note_on_c, 0, 69, 78
2,68160, Control_c, 0, 64, 69
2,68177, Control_c, 0, 64, 71
2,68192, Note_on_c, 0, 60, 0
2,68197, Control_c, 0, 64, 74
2,68208, Note_on_c, 0, 70, 0
2,68224, Note_on_c, 0, 39, 0
2,68235, Control_c, 0, 64, 76
2,68304, Note_on_c, 0, 61, 81
2,68313, Note_on_c, 0, 40, 76
2,68316, Note_on_c, 0, 67, 70
2,68327, Note_on_c, 0, 69, 0
2,68328, Control_c, 0, 64, 73
2,68350, Control_c, 0, 64, 69
2,68368, Control_c, 0, 64, 64
2,68388, Control_c, 0, 64, 55
2,68404, Control_c, 0, 64, 46
2,68423, Control_c, 0, 64, 38
2,68443, Control_c, 0, 64, 32
2,68478, Note_on_c, 0, 69, 73
2,68560, Note_on_c, 0, 67, 0
2,68571, Control_c, 0, 64, 39
2,68591, Control_c, 0, 64, 50
2,68610, Control_c, 0, 64, 58
2,68630, Control_c, 0, 64, 64
2,68647, Control_c, 0, 64, 67
2,68667, Control_c, 0, 64, 70
2,68673, Note_on_c, 0, 70, 77
2,68685, Control_c, 0, 64, 73
2,68703, Control_c, 0, 64, 75
2,68733, Note_on_c, 0, 69, 0
2,68739, Control_c, 0, 64, 78
2,68750, Note_on_c, 0, 61, 0
2,68810, Note_on_c, 0, 70, 0
2,68823, Note_on_c, 0, 41, 74
2,68829, Note_on_c, 0, 62, 80
2,68855, Note_on_c, 0, 40, 0
2,68874, Control_c, 0, 64, 75
2,68894, Control_c, 0, 64, 73
2,68912, Control_c, 0, 64, 68
2,68930, Control_c, 0, 64, 61
2,68950, Control_c, 0, 64, 53
2,68969, Control_c, 0, 64, 46
2,68987, Control_c, 0, 64, 42
2,68993, Note_on_c, 0, 69, 79
2,69004, Control_c, 0, 64, 40
2,69166, Note_on_c, 0, 70, 80
2,69255, Note_on_c, 0, 69, 0
2,69338, Note_on_c, 0, 42, 69
2,69341, Note_on_c, 0, 72, 79
2,69405, Note_on_c, 0, 70, 0
2,69422, Note_on_c, 0, 41, 0
2,69563, Note_on_c, 0, 70, 75
2,69599, Note_on_c, 0, 72, 0
2,69717, Note_on_c, 0, 69, 69
2,69741, Note_on_c, 0, 70, 0
2,69871, Control_c, 0, 64, 35
2,69885, Note_on_c, 0, 43, 60
2,69889, Control_c, 0, 64, 30
2,69898, Note_on_c, 0, 70, 66
2,69910, Control_c, 0, 64, 18
2,69929, Control_c, 0, 64, 0
2,69944, Note_on_c, 0, 42, 0
2,69958, Note_on_c, 0, 69, 0
2,70062, Note_on_c, 0, 45, 67
2,70083, Note_on_c, 0, 43, 0
2,70097, Control_c, 0, 64, 15
2,70116, Control_c, 0, 64, 24
2,70135, Control_c, 0, 64, 32
2,70156, Control_c, 0, 64, 38
2,70172, Control_c, 0, 64, 46
2,70190, Control_c, 0, 64, 52
2,70214, Note_on_c, 0, 46, 73
2,70259, Note_on_c, 0, 45, 0
2,70362, Control_c, 0, 64, 49
2,70365, Note_on_c, 0, 70, 0
2,70371, Note_on_c, 0, 48, 74
2,70376, Note_on_c, 0, 66, 72
2,70382, Control_c, 0, 64, 45
2,70401, Control_c, 0, 64, 39
2,70422, Note_on_c, 0, 46, 0
2,70432, Control_c, 0, 64, 31
2,70452, Control_c, 0, 64, 24
2,70472, Control_c, 0, 64, 19
2,70497, Note_on_c, 0, 62, 0
2,70538, Note_on_c, 0, 46, 78
2,70567, Control_c, 0, 64, 24
2,70581, Note_on_c, 0, 48, 0
2,70584, Control_c, 0, 64, 33
2,70604, Control_c, 0, 64, 42
2,70622, Control_c, 0, 64, 48
2,70642, Control_c, 0, 64, 50
2,70686, Note_on_c, 0, 45, 74
2,70713, Note_on_c, 0, 46, 0
2,70756, Control_c, 0, 64, 47
2,70774, Control_c, 0, 64, 44
2,70795, Control_c, 0, 64, 41
2,70831, Control_c, 0, 64, 36
2,70853, Note_on_c, 0, 46, 72
2,70856, Note_on_c, 0, 67, 68
2,70887, Control_c, 0, 64, 31
2,70901, Note_on_c, 0, 66, 0
2,70923, Control_c, 0, 64, 27
2,70955, Note_on_c, 0, 45, 0
2,70963, Control_c, 0, 64, 23
2,71032, Note_on_c, 0, 48, 70
2,71044, Note_on_c, 0, 69, 76
2,71091, Note_on_c, 0, 46, 0
2,71098, Note_on_c, 0, 67, 0
2,71195, Note_on_c, 0, 50, 77
2,71204, Note_on_c, 0, 70, 73
2,71213, Note_on_c, 0, 48, 0
2,71242, Note_on_c, 0, 69, 0
2,71338, Note_on_c, 0, 51, 75
2,71358, Note_on_c, 0, 72, 73
2,71388, Note_on_c, 0, 70, 0
2,71398, Note_on_c, 0, 50, 0
2,71519, Note_on_c, 0, 50, 79
2,71527, Note_on_c, 0, 70, 77
2,71568, Note_on_c, 0, 51, 0
2,71582, Note_on_c, 0, 72, 0
2,71662, Note_on_c, 0, 48, 74
2,71668, Note_on_c, 0, 69, 72
2,71683, Note_on_c, 0, 50, 0
2,71695, Control_c, 0, 64, 18
2,71702, Note_on_c, 0, 70, 0
2,71733, Control_c, 0, 64, 14
2,71772, Control_c, 0, 64, 0
2,71809, Note_on_c, 0, 50, 80
2,71836, Note_on_c, 0, 70, 79
2,71865, Note_on_c, 0, 69, 0
2,71900, Note_on_c, 0, 48, 0
2,71983, Note_on_c, 0, 72, 77
2,71990, Note_on_c, 0, 70, 0
2,72091, Control_c, 0, 64, 22
2,72111, Control_c, 0, 64, 35
2,72129, Control_c, 0, 64, 47
2,72143, Note_on_c, 0, 74, 79
2,72149, Control_c, 0, 64, 55
2,72187, Control_c, 0, 64, 57
2,72187, Note_on_c, 0, 72, 0
2,72299, Control_c, 0, 64, 54
2,72299, Note_on_c, 0, 55, 79
2,72313, Note_on_c, 0, 75, 78
2,72318, Control_c, 0, 64, 52
2,72361, Note_on_c, 0, 74, 0
2,72371, Control_c, 0, 64, 48
2,72410, Control_c, 0, 64, 45
2,72448, Control_c, 0, 64, 42
2,72486, Control_c, 0, 64, 38
2,72490, Note_on_c, 0, 50, 0
2,72497, Note_on_c, 0, 74, 80
2,72542, Control_c, 0, 64, 32
2,72564, Note_on_c, 0, 75, 0
2,72580, Control_c, 0, 64, 27
2,72617, Control_c, 0, 64, 22
2,72655, Control_c, 0, 64, 16
2,72671, Note_on_c, 0, 73, 73
2,72693, Control_c, 0, 64, 10
2,72723, Note_on_c, 0, 74, 0
2,72731, Control_c, 0, 64, 0
2,72872, Note_on_c, 0, 74, 74
2,72929, Note_on_c, 0, 73, 0
2,73118, Note_on_c, 0, 72, 62
2,73304, Note_on_c, 0, 70, 63
2,73313, Note_on_c, 0, 72, 0
2,73443, Note_on_c, 0, 70, 0
2,73445, Note_on_c, 0, 54, 51
2,73465, Note_on_c, 0, 69, 57
2,73572, Note_on_c, 0, 55, 0
2,73610, Note_on_c, 0, 70, 57
2,73619, Note_on_c, 0, 69, 0
2,73732, Note_on_c, 0, 70, 0
2,73779, Note_on_c, 0, 72, 56
2,73930, Note_on_c, 0, 54, 0
2,73934, Note_on_c, 0, 72, 0
2,73937, Note_on_c, 0, 70, 52
2,73948, Note_on_c, 0, 55, 47
2,74086, Note_on_c, 0, 74, 0
2,74088, Note_on_c, 0, 70, 0
2,74111, Note_on_c, 0, 53, 52
2,74116, Note_on_c, 0, 55, 0
2,74239, Note_on_c, 0, 53, 0
2,74275, Note_on_c, 0, 52, 51
2,74427, Note_on_c, 0, 74, 56
2,74428, Note_on_c, 0, 52, 0
2,74437, Note_on_c, 0, 50, 50
2,74502, Note_on_c, 0, 74, 0
2,74591, Note_on_c, 0, 52, 53
2,74603, Note_on_c, 0, 50, 0
2,74718, Note_on_c, 0, 52, 0
2,74733, Note_on_c, 0, 53, 50
2,74856, Note_on_c, 0, 53, 0
2,74873, Note_on_c, 0, 79, 54
2,74874, Note_on_c, 0, 67, 46
2,74891, Note_on_c, 0, 52, 43
2,74944, Note_on_c, 0, 52, 0
2,74976, Note_on_c, 0, 67, 0
2,75033, Note_on_c, 0, 77, 60
2,75062, Note_on_c, 0, 79, 0
2,75204, Note_on_c, 0, 76, 58
2,75225, Note_on_c, 0, 77, 0
2,75330, Note_on_c, 0, 76, 0
2,75367, Note_on_c, 0, 55, 46
2,75373, Note_on_c, 0, 74, 54
2,75374, Note_on_c, 0, 71, 47
2,75418, Note_on_c, 0, 55, 0
2,75480, Note_on_c, 0, 71, 0
2,75520, Note_on_c, 0, 76, 54
2,75571, Note_on_c, 0, 74, 0
2,75657, Note_on_c, 0, 76, 0
2,75675, Note_on_c, 0, 77, 53
2,75827, Note_on_c, 0, 77, 0
2,75840, Note_on_c, 0, 76, 55
2,75843, Note_on_c, 0, 60, 39
2,75859, Note_on_c, 0, 72, 46
2,75907, Note_on_c, 0, 72, 0
2,75928, Note_on_c, 0, 76, 0
2,76002, Note_on_c, 0, 60, 0
2,76004, Note_on_c, 0, 58, 47
2,76134, Note_on_c, 0, 58, 0
2,76164, Note_on_c, 0, 57, 46
2,76310, Note_on_c, 0, 57, 0
2,76340, Note_on_c, 0, 79, 58
2,76349, Note_on_c, 0, 55, 43
2,76393, Note_on_c, 0, 79, 0
2,76496, Note_on_c, 0, 55, 0
2,76499, Note_on_c, 0, 57, 48
2,76618, Note_on_c, 0, 57, 0
2,76648, Note_on_c, 0, 58, 45
2,76782, Note_on_c, 0, 58, 0
2,76809, Note_on_c, 0, 57, 36
2,76825, Note_on_c, 0, 72, 54
2,76922, Note_on_c, 0, 57, 0
2,76955, Note_on_c, 0, 72, 0
2,76969, Note_on_c, 0, 70, 57
2,77117, Note_on_c, 0, 70, 0
2,77120, Note_on_c, 0, 69, 51
2,77258, Note_on_c, 0, 69, 0
2,77286, Note_on_c, 0, 67, 53
2,77291, Note_on_c, 0, 60, 53
2,77336, Note_on_c, 0, 60, 0
2,77439, Note_on_c, 0, 67, 0
2,77447, Note_on_c, 0, 69, 56
2,77597, Note_on_c, 0, 69, 0
2,77599, Note_on_c, 0, 70, 52
2,77751, Note_on_c, 0, 69, 58
2,77753, Note_on_c, 0, 53, 39
2,77760, Note_on_c, 0, 70, 0
2,77810, Note_on_c, 0, 69, 0
2,77911, Note_on_c, 0, 51, 53
2,77932, Note_on_c, 0, 53, 0
2,78046, Note_on_c, 0, 51, 0
2,78070, Note_on_c, 0, 50, 50
2,78207, Note_on_c, 0, 50, 0
2,78210, Note_on_c, 0, 72, 68
2,78229, Note_on_c, 0, 48, 52
2,78304, Note_on_c, 0, 72, 0
2,78379, Note_on_c, 0, 50, 55
2,78382, Note_on_c, 0, 48, 0
2,78506, Note_on_c, 0, 50, 0
2,78523, Note_on_c, 0, 51, 52
2,78666, Note_on_c, 0, 51, 0
2,78675, Note_on_c, 0, 50, 49
2,78683, Note_on_c, 0, 77, 58
2,78690, Note_on_c, 0, 65, 50
2,78753, Note_on_c, 0, 50, 0
2,78804, Note_on_c, 0, 65, 0
2,78847, Note_on_c, 0, 75, 65
2,78866, Note_on_c, 0, 77, 0
2,79010, Note_on_c, 0, 74, 57
2,79037, Note_on_c, 0, 75, 0
2,79143, Note_on_c, 0, 74, 0
2,79169, Note_on_c, 0, 53, 53
2,79190, Note_on_c, 0, 72, 51
2,79191, Note_on_c, 0, 69, 47
2,79214, Note_on_c, 0, 53, 0
2,79333, Note_on_c, 0, 74, 59
2,79343, Note_on_c, 0, 69, 0
2,79366, Note_on_c, 0, 72, 0
2,79475, Note_on_c, 0, 74, 0
2,79497, Note_on_c, 0, 75, 59
2,79645, Note_on_c, 0, 58, 50
2,79647, Note_on_c, 0, 74, 63
2,79665, Note_on_c, 0, 70, 54
2,79751, Note_on_c, 0, 75, 0
2,79807, Note_on_c, 0, 58, 0
2,79818, Note_on_c, 0, 57, 57
2,79983, Note_on_c, 0, 55, 59
2,80025, Note_on_c, 0, 57, 0
2,80151, Note_on_c, 0, 55, 0
2,80152, Note_on_c, 0, 54, 56
2,80156, Note_on_c, 0, 69, 74
2,80223, Note_on_c, 0, 70, 0
2,80331, Note_on_c, 0, 55, 60
2,80340, Note_on_c, 0, 54, 0
2,80487, Note_on_c, 0, 55, 0
2,80490, Note_on_c, 0, 57, 67
2,80556, Note_on_c, 0, 74, 0
2,80653, Note_on_c, 0, 55, 64
2,80658, Note_on_c, 0, 73, 72
2,80696, Note_on_c, 0, 57, 0
2,80819, Note_on_c, 0, 53, 65
2,80840, Note_on_c, 0, 74, 79
2,80850, Note_on_c, 0, 55, 0
2,80918, Note_on_c, 0, 73, 0
2,80989, Note_on_c, 0, 52, 67
2,81001, Note_on_c, 0, 76, 80
2,81006, Note_on_c, 0, 53, 0
2,81046, Note_on_c, 0, 74, 0
2,81141, Note_on_c, 0, 50, 70
2,81148, Note_on_c, 0, 77, 79
2,81163, Note_on_c, 0, 52, 0
2,81203, Note_on_c, 0, 76, 0
2,81299, Note_on_c, 0, 52, 70
2,81310, Note_on_c, 0, 76, 80
2,81351, Note_on_c, 0, 50, 0
2,81388, Note_on_c, 0, 77, 0
2,81451, Note_on_c, 0, 53, 65
2,81451, Note_on_c, 0, 74, 78
2,81468, Note_on_c, 0, 52, 0
2,81489, Note_on_c, 0, 76, 0
2,81577, Note_on_c, 0, 53, 0
2,81589, Note_on_c, 0, 52, 70
2,81594, Note_on_c, 0, 76, 82
2,81653, Note_on_c, 0, 74, 0
2,81745, Note_on_c, 0, 50, 65
2,81746, Note_on_c, 0, 77, 82
2,81763, Control_c, 0, 64, 12
2,81773, Note_on_c, 0, 52, 0
2,81783, Control_c, 0, 64, 21
2,81787, Note_on_c, 0, 76, 0
2,81802, Control_c, 0, 64, 29
2,81823, Control_c, 0, 64, 36
2,81840, Control_c, 0, 64, 44
2,81857, Control_c, 0, 64, 50
2,81876, Control_c, 0, 64, 53
2,81880, Note_on_c, 0, 79, 76
2,81895, Control_c, 0, 64, 55
2,81896, Note_on_c, 0, 49, 73
2,81897, Note_on_c, 0, 77, 0
2,81938, Note_on_c, 0, 50, 0
2,81948, Control_c, 0, 64, 57
2,81984, Note_on_c, 0, 79, 0
2,82050, Note_on_c, 0, 81, 80
2,82053, Note_on_c, 0, 47, 69
2,82060, Note_on_c, 0, 49, 0
2,82209, Note_on_c, 0, 49, 70
2,82213, Note_on_c, 0, 79, 80
2,82252, Control_c, 0, 64, 54
2,82258, Note_on_c, 0, 47, 0
2,82290, Control_c, 0, 64, 52
2,82294, Note_on_c, 0, 81, 0
2,82329, Control_c, 0, 64, 50
2,82363, Control_c, 0, 64, 47
2,82367, Note_on_c, 0, 50, 73
2,82367, Note_on_c, 0, 77, 82
2,82384, Control_c, 0, 64, 45
2,82403, Control_c, 0, 64, 43
2,82403, Note_on_c, 0, 49, 0
2,82415, Note_on_c, 0, 79, 0
2,82419, Control_c, 0, 64, 41
2,82477, Control_c, 0, 64, 37
2,82531, Note_on_c, 0, 49, 80
2,82535, Control_c, 0, 64, 32
2,82540, Note_on_c, 0, 79, 86
2,82572, Control_c, 0, 64, 26
2,82588, Note_on_c, 0, 77, 0
2,82596, Note_on_c, 0, 50, 0
2,82612, Control_c, 0, 64, 22
2,82658, Note_on_c, 0, 69, 0
2,82665, Control_c, 0, 64, 18
2,82723, Control_c, 0, 64, 11
2,82742, Control_c, 0, 64, 0
2,82822, Note_on_c, 0, 69, 83
2,82840, Note_on_c, 0, 45, 68
2,82876, Note_on_c, 0, 49, 0
2,82927, Control_c, 0, 64, 26
2,82938, Note_on_c, 0, 79, 0
2,82944, Control_c, 0, 64, 39
2,82964, Control_c, 0, 64, 50
2,82985, Control_c, 0, 64, 54
2,83059, Control_c, 0, 64, 49
2,83078, Control_c, 0, 64, 45
2,83097, Control_c, 0, 64, 41
2,83102, Note_on_c, 0, 70, 81
2,83109, Note_on_c, 0, 77, 72
2,83112, Note_on_c, 0, 50, 71
2,83117, Control_c, 0, 64, 37
2,83172, Control_c, 0, 64, 32
2,83183, Note_on_c, 0, 69, 0
2,83201, Note_on_c, 0, 45, 0
2,83211, Control_c, 0, 64, 27
2,83248, Control_c, 0, 64, 22
2,83362, Control_c, 0, 64, 33
2,83372, Note_on_c, 0, 69, 79
2,83381, Control_c, 0, 64, 41
2,83400, Control_c, 0, 64, 50
2,83421, Control_c, 0, 64, 55
2,83437, Control_c, 0, 64, 59
2,83437, Note_on_c, 0, 70, 0
2,83455, Control_c, 0, 64, 61
2,83470, Note_on_c, 0, 77, 0
2,83474, Control_c, 0, 64, 63
2,83494, Control_c, 0, 64, 64
2,83569, Control_c, 0, 64, 63
2,83576, Note_on_c, 0, 69, 0
2,83587, Control_c, 0, 64, 62
2,83607, Control_c, 0, 64, 60
2,83608, Note_on_c, 0, 67, 75
2,83610, Note_on_c, 0, 76, 73
2,83646, Control_c, 0, 64, 57
2,83664, Control_c, 0, 64, 55
2,83684, Control_c, 0, 64, 52
2,83703, Control_c, 0, 64, 49
2,83721, Control_c, 0, 64, 46
2,83760, Control_c, 0, 64, 44
2,83882, Note_on_c, 0, 70, 72
2,83942, Note_on_c, 0, 67, 0
2,83944, Control_c, 0, 64, 42
2,84038, Control_c, 0, 64, 37
2,84113, Control_c, 0, 64, 33
2,84130, Note_on_c, 0, 49, 50
2,84133, Note_on_c, 0, 69, 71
2,84176, Note_on_c, 0, 70, 0
2,84188, Control_c, 0, 64, 28
2,84203, Note_on_c, 0, 50, 0
2,84366, Note_on_c, 0, 67, 62
2,84379, Control_c, 0, 64, 33
2,84398, Control_c, 0, 64, 41
2,84404, Note_on_c, 0, 69, 0
2,84416, Control_c, 0, 64, 50
2,84436, Control_c, 0, 64, 56
2,84455, Control_c, 0, 64, 60
2,84474, Control_c, 0, 64, 62
2,84492, Control_c, 0, 64, 63
2,84511, Control_c, 0, 64, 64
2,84586, Control_c, 0, 64, 62
2,84599, Note_on_c, 0, 67, 0
2,84602, Control_c, 0, 64, 58
2,84607, Note_on_c, 0, 49, 0
2,84622, Control_c, 0, 64, 53
2,84625, Note_on_c, 0, 65, 56
2,84629, Note_on_c, 0, 50, 45
2,84643, Control_c, 0, 64, 46
2,84663, Control_c, 0, 64, 42
2,84720, Control_c, 0, 64, 47
2,84737, Control_c, 0, 64, 52
2,84756, Control_c, 0, 64, 55
2,84775, Control_c, 0, 64, 58
2,84795, Control_c, 0, 64, 60
2,84828, Control_c, 0, 64, 61
2,84882, Note_on_c, 0, 76, 0
2,84887, Note_on_c, 0, 74, 68
2,84959, Control_c, 0, 64, 59
2,84980, Control_c, 0, 64, 57
2,85018, Control_c, 0, 64, 54
2,85055, Control_c, 0, 64, 52
2,85079, Note_on_c, 0, 65, 0
2,85093, Control_c, 0, 64, 48
2,85111, Control_c, 0, 64, 46
2,85130, Control_c, 0, 64, 44
2,85138, Note_on_c, 0, 55, 48
2,85139, Note_on_c, 0, 58, 51
2,85141, Note_on_c, 0, 75, 69
2,85168, Control_c, 0, 64, 42
2,85186, Control_c, 0, 64, 40
2,85209, Note_on_c, 0, 74, 0
2,85222, Note_on_c, 0, 50, 0
2,85244, Control_c, 0, 64, 35
2,85300, Control_c, 0, 64, 31
2,85383, Note_on_c, 0, 74, 63
2,85435, Note_on_c, 0, 75, 0
2,85491, Control_c, 0, 64, 27
2,85627, Note_on_c, 0, 57, 48
2,85628, Note_on_c, 0, 73, 59
2,85659, Note_on_c, 0, 74, 0
2,85752, Note_on_c, 0, 58, 0
2,85806, Control_c, 0, 64, 23
2,85903, Note_on_c, 0, 76, 59
2,85973, Note_on_c, 0, 73, 0
2,86133, Note_on_c, 0, 74, 61
2,86144, Note_on_c, 0, 55, 0
2,86152, Note_on_c, 0, 54, 44
2,86193, Note_on_c, 0, 76, 0
2,86372, Control_c, 0, 64, 29
2,86384, Note_on_c, 0, 72, 67
2,86390, Control_c, 0, 64, 36
2,86411, Control_c, 0, 64, 45
2,86430, Control_c, 0, 64, 54
2,86450, Control_c, 0, 64, 59
2,86461, Note_on_c, 0, 74, 0
2,86467, Control_c, 0, 64, 61
2,86488, Control_c, 0, 64, 64
2,86505, Control_c, 0, 64, 65
2,86526, Control_c, 0, 64, 67
2,86562, Control_c, 0, 64, 70
2,86620, Control_c, 0, 64, 68
2,86635, Note_on_c, 0, 57, 0
2,86638, Note_on_c, 0, 55, 60
2,86640, Control_c, 0, 64, 63
2,86641, Note_on_c, 0, 71, 69
2,86657, Control_c, 0, 64, 57
2,86659, Note_on_c, 0, 72, 0
2,86675, Control_c, 0, 64, 49
2,86687, Note_on_c, 0, 54, 0
2,86694, Control_c, 0, 64, 44
2,86714, Control_c, 0, 64, 42
2,86785, Control_c, 0, 64, 45
2,86803, Control_c, 0, 64, 50
2,86824, Control_c, 0, 64, 55
2,86841, Control_c, 0, 64, 59
2,86862, Control_c, 0, 64, 63
2,86880, Control_c, 0, 64, 66
2,86896, Note_on_c, 0, 53, 68
2,86899, Control_c, 0, 64, 68
2,86915, Note_on_c, 0, 55, 0
2,86916, Control_c, 0, 64, 70
2,86936, Control_c, 0, 64, 72
2,86957, Control_c, 0, 64, 74
2,87069, Note_on_c, 0, 71, 0
2,87130, Note_on_c, 0, 70, 76
2,87138, Note_on_c, 0, 52, 66
2,87142, Control_c, 0, 64, 71
2,87151, Note_on_c, 0, 67, 60
2,87169, Control_c, 0, 64, 68
2,87189, Control_c, 0, 64, 62
2,87189, Note_on_c, 0, 53, 0
2,87206, Control_c, 0, 64, 55
2,87224, Control_c, 0, 64, 48
2,87243, Control_c, 0, 64, 44
2,87263, Control_c, 0, 64, 41
2,87357, Control_c, 0, 64, 46
2,87376, Control_c, 0, 64, 53
2,87381, Control_c, 0, 64, 59
2,87381, Note_on_c, 0, 50, 72
2,87401, Control_c, 0, 64, 64
2,87421, Control_c, 0, 64, 67
2,87423, Note_on_c, 0, 52, 0
2,87440, Control_c, 0, 64, 69
2,87477, Control_c, 0, 64, 72
2,87514, Control_c, 0, 64, 74
2,87553, Note_on_c, 0, 70, 0
2,87591, Control_c, 0, 64, 69
2,87609, Control_c, 0, 64, 63
2,87620, Note_on_c, 0, 69, 79
2,87624, Note_on_c, 0, 49, 63
2,87627, Control_c, 0, 64, 55
2,87646, Control_c, 0, 64, 46
2,87666, Control_c, 0, 64, 39
2,87690, Note_on_c, 0, 50, 0
2,87698, Control_c, 0, 64, 34
2,87811, Control_c, 0, 64, 42
2,87833, Control_c, 0, 64, 50
2,87854, Control_c, 0, 64, 57
2,87872, Control_c, 0, 64, 62
2,87891, Control_c, 0, 64, 65
2,87898, Note_on_c, 0, 52, 64
2,87910, Control_c, 0, 64, 67
2,87930, Control_c, 0, 64, 70
2,87946, Control_c, 0, 64, 73
2,87968, Control_c, 0, 64, 75
2,87978, Note_on_c, 0, 67, 0
2,88007, Control_c, 0, 64, 78
2,88028, Note_on_c, 0, 49, 0
2,88083, Control_c, 0, 64, 73
2,88101, Control_c, 0, 64, 67
2,88121, Control_c, 0, 64, 59
2,88139, Control_c, 0, 64, 52
2,88141, Note_on_c, 0, 65, 76
2,88142, Note_on_c, 0, 50, 62
2,88158, Control_c, 0, 64, 50
2,88188, Note_on_c, 0, 52, 0
2,88214, Control_c, 0, 64, 54
2,88233, Control_c, 0, 64, 57
2,88252, Control_c, 0, 64, 61
2,88270, Control_c, 0, 64, 64
2,88289, Control_c, 0, 64, 67
2,88328, Control_c, 0, 64, 69
2,88390, Note_on_c, 0, 48, 68
2,88393, Note_on_c, 0, 64, 76
2,88406, Note_on_c, 0, 50, 0
2,88456, Note_on_c, 0, 65, 0
2,88537, Control_c, 0, 64, 67
2,88556, Control_c, 0, 64, 66
2,88574, Control_c, 0, 64, 63
2,88593, Control_c, 0, 64, 57
2,88612, Control_c, 0, 64, 49
2,88629, Control_c, 0, 64, 40
2,88629, Note_on_c, 0, 47, 66
2,88636, Note_on_c, 0, 62, 79
2,88664, Control_c, 0, 64, 31
2,88677, Note_on_c, 0, 64, 0
2,88681, Note_on_c, 0, 48, 0
2,88683, Control_c, 0, 64, 27
2,88798, Control_c, 0, 64, 32
2,88816, Control_c, 0, 64, 38
2,88834, Control_c, 0, 64, 46
2,88853, Control_c, 0, 64, 55
2,88873, Control_c, 0, 64, 60
2,88892, Control_c, 0, 64, 63
2,88907, Note_on_c, 0, 65, 77
2,88908, Control_c, 0, 64, 65
2,88928, Control_c, 0, 64, 67
2,88966, Control_c, 0, 64, 70
2,89002, Control_c, 0, 64, 74
2,89027, Note_on_c, 0, 62, 0
2,89041, Control_c, 0, 64, 76
2,89104, Note_on_c, 0, 47, 0
2,89119, Control_c, 0, 64, 73
2,89133, Note_on_c, 0, 46, 63
2,89134, Control_c, 0, 64, 66
2,89140, Note_on_c, 0, 64, 75
2,89153, Control_c, 0, 64, 56
2,89154, Note_on_c, 0, 67, 72
2,89174, Control_c, 0, 64, 46
2,89185, Note_on_c, 0, 65, 0
2,89193, Control_c, 0, 64, 40
2,89219, Note_on_c, 0, 69, 0
2,89248, Control_c, 0, 64, 45
2,89269, Control_c, 0, 64, 53
2,89286, Control_c, 0, 64, 59
2,89307, Control_c, 0, 64, 64
2,89325, Control_c, 0, 64, 67
2,89363, Control_c, 0, 64, 65
2,89382, Control_c, 0, 64, 62
2,89398, Note_on_c, 0, 62, 81
2,89401, Control_c, 0, 64, 61
2,89436, Note_on_c, 0, 64, 0
2,89437, Control_c, 0, 64, 62
2,89457, Control_c, 0, 64, 64
2,89476, Control_c, 0, 64, 65
2,89494, Control_c, 0, 64, 67
2,89514, Control_c, 0, 64, 68
2,89587, Note_on_c, 0, 46, 0
2,89642, Control_c, 0, 64, 66
2,89661, Control_c, 0, 64, 63
2,89663, Note_on_c, 0, 45, 63
2,89680, Control_c, 0, 64, 58
2,89693, Note_on_c, 0, 61, 74
2,89698, Control_c, 0, 64, 51
2,89718, Control_c, 0, 64, 44
2,89736, Control_c, 0, 64, 40
2,89761, Note_on_c, 0, 62, 0
2,89777, Control_c, 0, 64, 35
2,89887, Control_c, 0, 64, 31
2,90000, Control_c, 0, 64, 38
2,90004, Note_on_c, 0, 57, 71
2,90005, Note_on_c, 0, 45, 0
2,90020, Control_c, 0, 64, 48
2,90041, Control_c, 0, 64, 58
2,90059, Control_c, 0, 64, 62
2,90078, Control_c, 0, 64, 65
2,90096, Control_c, 0, 64, 67
2,90114, Control_c, 0, 64, 70
2,90134, Control_c, 0, 64, 72
2,90153, Control_c, 0, 64, 74
2,90246, Control_c, 0, 64, 71
2,90255, Note_on_c, 0, 57, 0
2,90257, Note_on_c, 0, 62, 76
2,90258, Note_on_c, 0, 58, 61
2,90265, Control_c, 0, 64, 67
2,90285, Control_c, 0, 64, 64
2,90285, Note_on_c, 0, 65, 62
2,90302, Note_on_c, 0, 67, 0
2,90304, Control_c, 0, 64, 60
2,90323, Control_c, 0, 64, 56
2,90341, Control_c, 0, 64, 54
2,90360, Control_c, 0, 64, 52
2,90379, Control_c, 0, 64, 50
2,90398, Control_c, 0, 64, 47
2,90418, Control_c, 0, 64, 45
2,90437, Control_c, 0, 64, 42
2,90475, Control_c, 0, 64, 37
2,90505, Note_on_c, 0, 57, 63
2,90511, Note_on_c, 0, 61, 0
2,90513, Note_on_c, 0, 58, 0
2,90530, Control_c, 0, 64, 31
2,90584, Control_c, 0, 64, 27
2,90620, Control_c, 0, 64, 22
2,90660, Control_c, 0, 64, 17
2,90698, Control_c, 0, 64, 11
2,90753, Control_c, 0, 64, 0
2,90756, Note_on_c, 0, 55, 49
2,90772, Note_on_c, 0, 64, 60
2,90808, Note_on_c, 0, 57, 0
2,90908, Note_on_c, 0, 65, 0
2,91023, Note_on_c, 0, 58, 52
2,91041, Note_on_c, 0, 55, 0
2,91286, Note_on_c, 0, 61, 62
2,91307, Note_on_c, 0, 58, 0
2,91313, Note_on_c, 0, 57, 38
2,91395, Control_c, 0, 64, 9
2,91413, Control_c, 0, 64, 16
2,91428, Note_on_c, 0, 62, 0
2,91432, Control_c, 0, 64, 23
2,91452, Control_c, 0, 64, 30
2,91472, Control_c, 0, 64, 39
2,91490, Control_c, 0, 64, 50
2,91510, Control_c, 0, 64, 57
2,91543, Control_c, 0, 64, 61
2,91561, Control_c, 0, 64, 62
2,91581, Control_c, 0, 64, 63
2,91596, Note_on_c, 0, 55, 47
2,91619, Control_c, 0, 64, 64
2,91628, Note_on_c, 0, 57, 0
2,91658, Note_on_c, 0, 64, 0
2,91807, Control_c, 0, 64, 63
2,91826, Control_c, 0, 64, 62
2,91846, Control_c, 0, 64, 60
2,91882, Control_c, 0, 64, 58
2,91916, Note_on_c, 0, 62, 54
2,91917, Note_on_c, 0, 53, 36
2,91921, Control_c, 0, 64, 55
2,91933, Note_on_c, 0, 55, 0
2,91958, Control_c, 0, 64, 52
2,91997, Control_c, 0, 64, 48
2,91997, Note_on_c, 0, 61, 0
2,92035, Control_c, 0, 64, 45
2,92073, Control_c, 0, 64, 43
2,92128, Control_c, 0, 64, 40
2,92214, Note_on_c, 0, 60, 59
2,92223, Control_c, 0, 64, 36
2,92238, Note_on_c, 0, 57, 48
2,92370, Note_on_c, 0, 53, 0
2,92437, Note_on_c, 0, 57, 0
2,92442, Note_on_c, 0, 58, 60
2,92459, Note_on_c, 0, 55, 53
2,92501, Note_on_c, 0, 60, 0
2,92681, Note_on_c, 0, 55, 0
2,92692, Note_on_c, 0, 57, 63
2,92701, Note_on_c, 0, 53, 52
2,92738, Note_on_c, 0, 58, 0
2,92786, Control_c, 0, 64, 32
2,92921, Note_on_c, 0, 55, 63
2,92924, Note_on_c, 0, 53, 0
2,92927, Note_on_c, 0, 52, 57
2,92929, Note_on_c, 0, 57, 0
2,92994, Control_c, 0, 64, 28
2,93158, Note_on_c, 0, 58, 62
2,93165, Note_on_c, 0, 50, 59
2,93168, Note_on_c, 0, 52, 0
2,93184, Control_c, 0, 64, 24
2,93185, Note_on_c, 0, 55, 0
2,93406, Note_on_c, 0, 49, 54
2,93407, Note_on_c, 0, 50, 0
2,93408, Note_on_c, 0, 57, 62
2,93538, Note_on_c, 0, 58, 0
2,93547, Note_on_c, 0, 62, 0
2,93656, Note_on_c, 0, 52, 52
2,93668, Note_on_c, 0, 49, 0
2,93668, Note_on_c, 0, 55, 55
2,93681, Note_on_c, 0, 57, 0
2,93891, Note_on_c, 0, 52, 0
2,93901, Note_on_c, 0, 53, 58
2,93922, Note_on_c, 0, 50, 49
2,93964, Note_on_c, 0, 55, 0
2,94137, Note_on_c, 0, 50, 0
2,94140, Note_on_c, 0, 48, 57
2,94143, Note_on_c, 0, 57, 61
2,94183, Note_on_c, 0, 53, 0
2,94367, Note_on_c, 0, 48, 0
2,94381, Note_on_c, 0, 55, 58
2,94382, Note_on_c, 0, 46, 48
2,94462, Note_on_c, 0, 57, 0
2,94490, Control_c, 0, 64, 20
2,94528, Control_c, 0, 64, 12
2,94547, Control_c, 0, 64, 0
2,94631, Note_on_c, 0, 46, 0
2,94639, Note_on_c, 0, 45, 52
2,94641, Note_on_c, 0, 53, 57
2,94742, Note_on_c, 0, 55, 0
2,94884, Note_on_c, 0, 45, 0
2,94884, Note_on_c, 0, 52, 52
2,94895, Note_on_c, 0, 43, 44
2,94926, Note_on_c, 0, 53, 0
2,95134, Note_on_c, 0, 46, 47
2,95136, Note_on_c, 0, 52, 0
2,95141, Note_on_c, 0, 50, 54
2,95203, Note_on_c, 0, 43, 0
2,95397, Note_on_c, 0, 50, 0
2,95403, Note_on_c, 0, 49, 53
2,95412, Note_on_c, 0, 45, 50
2,95415, Note_on_c, 0, 46, 0
2,95673, Note_on_c, 0, 43, 49
2,95682, Note_on_c, 0, 52, 52
2,95711, Note_on_c, 0, 49, 0
2,95741, Note_on_c, 0, 45, 0
2,95923, Note_on_c, 0, 52, 0
2,95927, Note_on_c, 0, 43, 0
2,95944, Note_on_c, 0, 41, 47
2,95944, Note_on_c, 0, 50, 51
2,96135, Note_on_c, 0, 52, 53
2,96142, Note_on_c, 0, 50, 0
2,96209, Control_c, 0, 64, 11
2,96217, Note_on_c, 0, 41, 0
2,96288, Note_on_c, 0, 52, 0
2,96290, Note_on_c, 0, 53, 57
2,96433, Control_c, 0, 64, 0
2,96433, Note_on_c, 0, 53, 0
2,96447, Note_on_c, 0, 55, 58
2,96468, Note_on_c, 0, 46, 65
2,96595, Note_on_c, 0, 46, 0
2,96607, Note_on_c, 0, 53, 60
2,96642, Note_on_c, 0, 55, 0
2,96773, Note_on_c, 0, 52, 59
2,96780, Note_on_c, 0, 53, 0
2,96913, Note_on_c, 0, 45, 60
2,96922, Note_on_c, 0, 52, 0
2,96935, Note_on_c, 0, 53, 63
2,97096, Note_on_c, 0, 43, 64
2,97113, Note_on_c, 0, 55, 63
2,97118, Note_on_c, 0, 45, 0
2,97125, Note_on_c, 0, 53, 0
2,97251, Note_on_c, 0, 43, 0
2,97254, Note_on_c, 0, 41, 68
2,97263, Note_on_c, 0, 57, 71
2,97302, Note_on_c, 0, 55, 0
2,97413, Note_on_c, 0, 58, 70
2,97422, Note_on_c, 0, 40, 64
2,97424, Note_on_c, 0, 41, 0
2,97448, Note_on_c, 0, 57, 0
2,97526, Control_c, 0, 64, 14
2,97542, Control_c, 0, 64, 21
2,97560, Control_c, 0, 64, 29
2,97566, Note_on_c, 0, 41, 65
2,97575, Note_on_c, 0, 57, 75
2,97578, Control_c, 0, 64, 37
2,97600, Control_c, 0, 64, 47
2,97603, Note_on_c, 0, 40, 0
2,97617, Control_c, 0, 64, 55
2,97636, Control_c, 0, 64, 59
2,97655, Control_c, 0, 64, 61
2,97663, Note_on_c, 0, 58, 0
2,97676, Control_c, 0, 64, 62
2,97694, Control_c, 0, 64, 63
2,97712, Control_c, 0, 64, 66
2,97718, Note_on_c, 0, 55, 72
2,97732, Control_c, 0, 64, 67
2,97742, Note_on_c, 0, 43, 64
2,97753, Note_on_c, 0, 41, 0
2,97757, Note_on_c, 0, 57, 0
2,97779, Note_on_c, 0, 55, 0
2,97862, Control_c, 0, 64, 65
2,97879, Note_on_c, 0, 62, 81
2,97881, Control_c, 0, 64, 64
2,97882, Note_on_c, 0, 43, 0
2,97892, Note_on_c, 0, 41, 69
2,97900, Control_c, 0, 64, 62
2,97904, Note_on_c, 0, 57, 63
2,97920, Control_c, 0, 64, 61
2,97959, Control_c, 0, 64, 60
2,98014, Control_c, 0, 64, 58
2,98061, Note_on_c, 0, 64, 78
2,98072, Control_c, 0, 64, 55
2,98077, Note_on_c, 0, 40, 69
2,98102, Note_on_c, 0, 41, 0
2,98106, Control_c, 0, 64, 51
2,98128, Control_c, 0, 64, 47
2,98131, Note_on_c, 0, 62, 0
2,98147, Control_c, 0, 64, 43
2,98188, Control_c, 0, 64, 37
2,98218, Note_on_c, 0, 65, 81
2,98219, Note_on_c, 0, 38, 74
2,98227, Note_on_c, 0, 40, 0
2,98274, Note_on_c, 0, 64, 0
2,98368, Note_on_c, 0, 37, 73
2,98384, Note_on_c, 0, 38, 0
2,98384, Note_on_c, 0, 67, 82
2,98433, Note_on_c, 0, 65, 0
2,98513, Note_on_c, 0, 57, 0
2,98531, Note_on_c, 0, 65, 81
2,98532, Note_on_c, 0, 38, 77
2,98572, Note_on_c, 0, 37, 0
2,98615, Note_on_c, 0, 67, 0
2,98673, Note_on_c, 0, 64, 78
2,98675, Note_on_c, 0, 40, 73
2,98687, Note_on_c, 0, 38, 0
2,98728, Note_on_c, 0, 65, 0
2,98769, Control_c, 0, 64, 31
2,98789, Control_c, 0, 64, 18
2,98807, Control_c, 0, 64, 0
2,98829, Note_on_c, 0, 65, 83
2,98835, Note_on_c, 0, 38, 74
2,98848, Note_on_c, 0, 64, 0
2,98850, Note_on_c, 0, 40, 0
2,98940, Control_c, 0, 64, 11
2,98958, Control_c, 0, 64, 36
2,98965, Note_on_c, 0, 38, 0
2,98977, Control_c, 0, 64, 54
2,98995, Control_c, 0, 64, 64
2,99015, Control_c, 0, 64, 68
2,99027, Note_on_c, 0, 67, 80
2,99033, Control_c, 0, 64, 70
2,99050, Note_on_c, 0, 55, 76
2,99167, Control_c, 0, 64, 68
2,99176, Note_on_c, 0, 69, 80
2,99186, Control_c, 0, 64, 66
2,99187, Note_on_c, 0, 55, 0
2,99188, Note_on_c, 0, 53, 71
2,99218, Control_c, 0, 64, 64
2,99226, Note_on_c, 0, 67, 0
2,99237, Control_c, 0, 64, 62
2,99256, Control_c, 0, 64, 60
2,99295, Control_c, 0, 64, 56
2,99312, Control_c, 0, 64, 52
2,99331, Control_c, 0, 64, 48
2,99334, Note_on_c, 0, 70, 79
2,99336, Note_on_c, 0, 52, 71
2,99344, Note_on_c, 0, 53, 0
2,99350, Control_c, 0, 64, 45
2,99369, Note_on_c, 0, 69, 0
2,99370, Control_c, 0, 64, 43
2,99480, Note_on_c, 0, 69, 83
2,99483, Note_on_c, 0, 53, 76
2,99491, Note_on_c, 0, 52, 0
2,99556, Control_c, 0, 64, 41
2,99595, Note_on_c, 0, 70, 0
2,99596, Control_c, 0, 64, 36
2,99603, Note_on_c, 0, 55, 72
2,99615, Control_c, 0, 64, 26
2,99623, Note_on_c, 0, 53, 0
2,99623, Note_on_c, 0, 67, 81
2,99634, Control_c, 0, 64, 0
2,99657, Note_on_c, 0, 69, 0
2,99757, Note_on_c, 0, 69, 84
2,99765, Note_on_c, 0, 53, 76
2,99804, Control_c, 0, 64, 26
2,99816, Note_on_c, 0, 55, 0
2,99822, Control_c, 0, 64, 44
2,99842, Control_c, 0, 64, 61
2,99855, Note_on_c, 0, 67, 0
2,99860, Control_c, 0, 64, 73
2,99882, Control_c, 0, 64, 83
2,99897, Note_on_c, 0, 53, 0
2,99899, Control_c, 0, 64, 95
2,99918, Control_c, 0, 64, 102
2,99955, Control_c, 0, 64, 106
2,100011, Control_c, 0, 64, 92
2,100028, Note_on_c, 0, 40, 87
2,100029, Control_c, 0, 64, 73
2,100050, Control_c, 0, 64, 53
2,100068, Control_c, 0, 64, 44
2,100108, Control_c, 0, 64, 53
2,100126, Control_c, 0, 64, 62
2,100145, Control_c, 0, 64, 69
2,100177, Control_c, 0, 64, 75
2,100191, Note_on_c, 0, 65, 0
2,100196, Control_c, 0, 64, 79
2,100216, Control_c, 0, 64, 81
2,100250, Note_on_c, 0, 69, 0
2,100293, Note_on_c, 0, 41, 77
2,100293, Note_on_c, 0, 74, 89
2,100311, Note_on_c, 0, 65, 74
2,100349, Control_c, 0, 64, 79
2,100357, Note_on_c, 0, 40, 0
2,100387, Control_c, 0, 64, 76
2,100406, Control_c, 0, 64, 74
2,100424, Control_c, 0, 64, 72
2,100443, Control_c, 0, 64, 69
2,100462, Control_c, 0, 64, 64
2,100482, Control_c, 0, 64, 55
2,100499, Control_c, 0, 64, 42
2,100517, Control_c, 0, 64, 25
2,100536, Control_c, 0, 64, 8
2,100544, Note_on_c, 0, 43, 82
2,100555, Control_c, 0, 64, 0
2,100632, Control_c, 0, 64, 21
2,100648, Note_on_c, 0, 41, 0
2,100649, Control_c, 0, 64, 39
2,100669, Control_c, 0, 64, 56
2,100687, Note_on_c, 0, 65, 0
2,100688, Control_c, 0, 64, 65
2,100708, Control_c, 0, 64, 68
2,100745, Control_c, 0, 64, 71
2,100799, Note_on_c, 0, 45, 73
2,100799, Note_on_c, 0, 73, 85
2,100813, Note_on_c, 0, 64, 66
2,100820, Control_c, 0, 64, 69
2,100839, Control_c, 0, 64, 67
2,100856, Note_on_c, 0, 43, 0
2,100858, Control_c, 0, 64, 65
2,100872, Note_on_c, 0, 74, 0
2,100877, Control_c, 0, 64, 61
2,100895, Control_c, 0, 64, 55
2,100915, Control_c, 0, 64, 43
2,100934, Control_c, 0, 64, 28
2,100952, Control_c, 0, 64, 15
2,100989, Control_c, 0, 64, 0
2,101040, Note_on_c, 0, 47, 74
2,101066, Control_c, 0, 64, 19
2,101086, Control_c, 0, 64, 37
2,101105, Control_c, 0, 64, 54
2,101106, Note_on_c, 0, 45, 0
2,101137, Control_c, 0, 64, 65
2,101156, Control_c, 0, 64, 71
2,101175, Control_c, 0, 64, 75
2,101194, Control_c, 0, 64, 79
2,101214, Control_c, 0, 64, 82
2,101231, Control_c, 0, 64, 84
2,101242, Note_on_c, 0, 73, 0
2,101299, Note_on_c, 0, 72, 86
2,101307, Control_c, 0, 64, 81
2,101310, Note_on_c, 0, 69, 72
2,101314, Note_on_c, 0, 48, 73
2,101327, Control_c, 0, 64, 74
2,101335, Note_on_c, 0, 64, 0
2,101346, Control_c, 0, 64, 62
2,101367, Control_c, 0, 64, 46
2,101376, Note_on_c, 0, 47, 0
2,101381, Control_c, 0, 64, 34
2,101403, Control_c, 0, 64, 26
2,101442, Control_c, 0, 64, 22
2,101496, Control_c, 0, 64, 30
2,101515, Control_c, 0, 64, 44
2,101535, Control_c, 0, 64, 57
2,101548, Note_on_c, 0, 45, 66
2,101553, Control_c, 0, 64, 65
2,101573, Control_c, 0, 64, 70
2,101583, Note_on_c, 0, 48, 0
2,101590, Control_c, 0, 64, 73
2,101610, Control_c, 0, 64, 77
2,101628, Control_c, 0, 64, 80
2,101648, Control_c, 0, 64, 83
2,101668, Control_c, 0, 64, 85
2,101762, Control_c, 0, 64, 80
2,101781, Control_c, 0, 64, 68
2,101799, Control_c, 0, 64, 52
2,101810, Note_on_c, 0, 71, 81
2,101819, Control_c, 0, 64, 39
2,101819, Note_on_c, 0, 50, 68
2,101837, Control_c, 0, 64, 35
2,101842, Note_on_c, 0, 45, 0
2,101860, Note_on_c, 0, 72, 0
2,101912, Control_c, 0, 64, 47
2,101930, Control_c, 0, 64, 57
2,101948, Control_c, 0, 64, 64
2,101970, Control_c, 0, 64, 68
2,101986, Control_c, 0, 64, 71
2,102007, Control_c, 0, 64, 74
2,102026, Control_c, 0, 64, 77
2,102046, Control_c, 0, 64, 79
2,102064, Control_c, 0, 64, 81
2,102073, Note_on_c, 0, 49, 68
2,102149, Note_on_c, 0, 50, 0
2,102211, Control_c, 0, 64, 75
2,102229, Control_c, 0, 64, 64
2,102248, Control_c, 0, 64, 48
2,102268, Control_c, 0, 64, 39
2,102305, Control_c, 0, 64, 45
2,102308, Note_on_c, 0, 70, 81
2,102317, Note_on_c, 0, 50, 66
2,102325, Control_c, 0, 64, 57
2,102343, Control_c, 0, 64, 66
2,102362, Control_c, 0, 64, 72
2,102364, Note_on_c, 0, 71, 0
2,102370, Note_on_c, 0, 49, 0
2,102381, Control_c, 0, 64, 77
2,102400, Control_c, 0, 64, 80
2,102436, Control_c, 0, 64, 76
2,102456, Control_c, 0, 64, 65
2,102475, Control_c, 0, 64, 50
2,102495, Control_c, 0, 64, 42
2,102551, Control_c, 0, 64, 47
2,102555, Note_on_c, 0, 67, 72
2,102568, Control_c, 0, 64, 55
2,102572, Note_on_c, 0, 52, 65
2,102587, Control_c, 0, 64, 61
2,102608, Control_c, 0, 64, 67
2,102608, Note_on_c, 0, 50, 0
2,102627, Control_c, 0, 64, 72
2,102646, Control_c, 0, 64, 78
2,102653, Note_on_c, 0, 69, 0
2,102663, Control_c, 0, 64, 84
2,102683, Control_c, 0, 64, 88
2,102725, Note_on_c, 0, 70, 0
2,102740, Control_c, 0, 64, 83
2,102759, Control_c, 0, 64, 71
2,102778, Control_c, 0, 64, 55
2,102795, Control_c, 0, 64, 48
2,102806, Note_on_c, 0, 69, 81
2,102811, Note_on_c, 0, 53, 65
2,102816, Note_on_c, 0, 52, 0
2,102832, Control_c, 0, 64, 50
2,102851, Control_c, 0, 64, 56
2,102868, Control_c, 0, 64, 62
2,102873, Note_on_c, 0, 67, 0
2,102888, Control_c, 0, 64, 66
2,102905, Control_c, 0, 64, 71
2,102925, Control_c, 0, 64, 75
2,102944, Control_c, 0, 64, 79
2,103003, Control_c, 0, 64, 76
2,103020, Control_c, 0, 64, 69
2,103054, Control_c, 0, 64, 61
2,103073, Control_c, 0, 64, 57
2,103078, Note_on_c, 0, 47, 62
2,103078, Note_on_c, 0, 65, 76
2,103099, Note_on_c, 0, 53, 0
2,103112, Control_c, 0, 64, 60
2,103130, Control_c, 0, 64, 64
2,103148, Control_c, 0, 64, 67
2,103167, Control_c, 0, 64, 71
2,103186, Control_c, 0, 64, 76
2,103205, Control_c, 0, 64, 79
2,103262, Control_c, 0, 64, 75
2,103282, Control_c, 0, 64, 66
2,103299, Control_c, 0, 64, 55
2,103319, Control_c, 0, 64, 50
2,103339, Note_on_c, 0, 67, 79
2,103351, Note_on_c, 0, 52, 60
2,103356, Control_c, 0, 64, 54
2,103374, Control_c, 0, 64, 59
2,103394, Control_c, 0, 64, 64
2,103402, Note_on_c, 0, 69, 0
2,103412, Control_c, 0, 64, 68
2,103423, Note_on_c, 0, 65, 0
2,103432, Control_c, 0, 64, 72
2,103451, Control_c, 0, 64, 75
2,103457, Note_on_c, 0, 47, 0
2,103509, Control_c, 0, 64, 71
2,103527, Control_c, 0, 64, 61
2,103545, Control_c, 0, 64, 50
2,103564, Control_c, 0, 64, 43
2,103596, Note_on_c, 0, 65, 79
2,103606, Note_on_c, 0, 50, 63
2,103620, Control_c, 0, 64, 53
2,103639, Control_c, 0, 64, 61
2,103646, Note_on_c, 0, 52, 0
2,103658, Control_c, 0, 64, 66
2,103678, Control_c, 0, 64, 71
2,103697, Control_c, 0, 64, 74
2,103716, Control_c, 0, 64, 76
2,103771, Control_c, 0, 64, 68
2,103791, Control_c, 0, 64, 58
2,103810, Control_c, 0, 64, 46
2,103828, Control_c, 0, 64, 40
2,103844, Note_on_c, 0, 64, 81
2,103849, Note_on_c, 0, 49, 66
2,103867, Note_on_c, 0, 50, 0
2,103888, Control_c, 0, 64, 45
2,103905, Control_c, 0, 64, 53
2,103912, Note_on_c, 0, 67, 0
2,103924, Control_c, 0, 64, 59
2,103944, Control_c, 0, 64, 64
2,103963, Control_c, 0, 64, 68
2,103973, Note_on_c, 0, 65, 0
2,103981, Control_c, 0, 64, 70
2,104035, Control_c, 0, 64, 72
2,104073, Control_c, 0, 64, 70
2,104093, Control_c, 0, 64, 64
2,104109, Control_c, 0, 64, 53
2,104128, Control_c, 0, 64, 40
2,104147, Control_c, 0, 64, 31
2,104147, Note_on_c, 0, 67, 80
2,104153, Note_on_c, 0, 45, 64
2,104160, Note_on_c, 0, 49, 0
2,104224, Control_c, 0, 64, 44
2,104244, Control_c, 0, 64, 55
2,104260, Control_c, 0, 64, 62
2,104281, Control_c, 0, 64, 66
2,104298, Control_c, 0, 64, 68
2,104355, Control_c, 0, 64, 67
2,104374, Control_c, 0, 64, 63
2,104394, Control_c, 0, 64, 55
2,104409, Note_on_c, 0, 62, 85
2,104412, Control_c, 0, 64, 44
2,104423, Note_on_c, 0, 50, 65
2,104428, Note_on_c, 0, 65, 70
2,104431, Control_c, 0, 64, 35
2,104447, Note_on_c, 0, 45, 0
2,104463, Note_on_c, 0, 67, 0
2,104476, Note_on_c, 0, 64, 0
2,104505, Control_c, 0, 64, 46
2,104526, Control_c, 0, 64, 56
2,104546, Control_c, 0, 64, 63
2,104564, Control_c, 0, 64, 67
2,104581, Control_c, 0, 64, 70
2,104601, Control_c, 0, 64, 72
2,104653, Note_on_c, 0, 65, 0
2,104678, Control_c, 0, 64, 67
2,104696, Control_c, 0, 64, 58
2,104712, Note_on_c, 0, 55, 67
2,104715, Note_on_c, 0, 64, 81
2,104716, Control_c, 0, 64, 46
2,104725, Note_on_c, 0, 50, 0
2,104733, Control_c, 0, 64, 36
2,104753, Control_c, 0, 64, 29
2,104808, Control_c, 0, 64, 33
2,104828, Control_c, 0, 64, 44
2,104847, Control_c, 0, 64, 56
2,104866, Control_c, 0, 64, 63
2,104885, Control_c, 0, 64, 67
2,104903, Control_c, 0, 64, 68
2,104942, Control_c, 0, 64, 66
2,104962, Control_c, 0, 64, 59
2,104995, Control_c, 0, 64, 47
2,105003, Note_on_c, 0, 64, 0
2,105012, Note_on_c, 0, 57, 63
2,105013, Control_c, 0, 64, 34
2,105025, Note_on_c, 0, 65, 76
2,105032, Control_c, 0, 64, 26
2,105037, Note_on_c, 0, 55, 0
2,105107, Control_c, 0, 64, 31
2,105126, Control_c, 0, 64, 39
2,105145, Control_c, 0, 64, 48
2,105147, Note_on_c, 0, 65, 0
2,105148, Note_on_c, 0, 64, 72
2,105165, Control_c, 0, 64, 57
2,105183, Control_c, 0, 64, 62
2,105204, Control_c, 0, 64, 64
2,105208, Note_on_c, 0, 64, 0
2,105220, Control_c, 0, 64, 67
2,105235, Note_on_c, 0, 65, 68
2,105239, Control_c, 0, 64, 70
2,105259, Control_c, 0, 64, 73
2,105278, Control_c, 0, 64, 78
2,105291, Note_on_c, 0, 64, 78
2,105294, Control_c, 0, 64, 83
2,105309, Note_on_c, 0, 65, 0
2,105314, Control_c, 0, 64, 86
2,105356, Note_on_c, 0, 57, 0
2,105361, Note_on_c, 0, 64, 0
2,105377, Note_on_c, 0, 65, 68
2,105424, Note_on_c, 0, 64, 71
2,105448, Note_on_c, 0, 65, 0
2,105489, Note_on_c, 0, 64, 0
2,105507, Note_on_c, 0, 65, 67
2,105537, Note_on_c, 0, 64, 66
2,105561, Note_on_c, 0, 65, 0
2,105610, Note_on_c, 0, 62, 0
2,105616, Control_c, 0, 64, 84
2,105639, Control_c, 0, 64, 82
2,105656, Control_c, 0, 64, 80
2,105676, Control_c, 0, 64, 78
2,105694, Control_c, 0, 64, 75
2,105712, Control_c, 0, 64, 71
2,105732, Control_c, 0, 64, 64
2,105749, Control_c, 0, 64, 57
2,105768, Control_c, 0, 64, 52
2,105786, Control_c, 0, 64, 48
2,105807, Control_c, 0, 64, 46
2,105824, Control_c, 0, 64, 42
2,105845, Control_c, 0, 64, 38
2,105883, Control_c, 0, 64, 32
2,105912, Note_on_c, 0, 45, 63
2,105916, Note_on_c, 0, 61, 73
2,105955, Control_c, 0, 64, 27
2,106199, Control_c, 0, 64, 23
2,106533, Note_on_c, 0, 62, 70
2,106570, Note_on_c, 0, 64, 0
2,106714, Note_on_c, 0, 61, 0
2,106727, Control_c, 0, 64, 33
2,106747, Control_c, 0, 64, 40
2,106767, Control_c, 0, 64, 51
2,106784, Control_c, 0, 64, 61
2,106804, Control_c, 0, 64, 66
2,106823, Control_c, 0, 64, 70
2,106843, Control_c, 0, 64, 75
2,106861, Control_c, 0, 64, 81
2,106894, Control_c, 0, 64, 87
2,106914, Control_c, 0, 64, 93
2,106922, Note_on_c, 0, 62, 0
2,106933, Control_c, 0, 64, 98
2,106971, Control_c, 0, 64, 103
2,107188, Note_on_c, 0, 45, 0
2,107384, Note_on_c, 0, 38, 47
2,107385, Note_on_c, 0, 62, 69
2,107518, Control_c, 0, 64, 93
2,107537, Control_c, 0, 64, 85
2,107556, Control_c, 0, 64, 74
2,107575, Control_c, 0, 64, 63
2,107595, Control_c, 0, 64, 56
2,107611, Control_c, 0, 64, 53
2,107632, Control_c, 0, 64, 51
2,107675, Control_c, 0, 64, 49
2,107731, Control_c, 0, 64, 47
2,107786, Control_c, 0, 64, 44
2,107825, Control_c, 0, 64, 42
2,107879, Control_c, 0, 64, 40
2,108521, Control_c, 0, 64, 42
2,108559, Control_c, 0, 64, 44
2,108578, Control_c, 0, 64, 46
2,108634, Control_c, 0, 64, 49
2,108672, Control_c, 0, 64, 51
2,109294, Control_c, 0, 64, 49
2,109385, Control_c, 0, 64, 47
2,109575, Control_c, 0, 64, 45
2,109687, Control_c, 0, 64, 43
2,109766, Control_c, 0, 64, 41
2,109861, Note_on_c, 0, 62, 0
2,109971, Note_on_c, 0, 38, 0
2,110082, Control_c, 0, 64, 37
2,110083, End_track
0, 0, End_of_file
