0, 0, Header, 1, 2, 480
1, 0, Start_track
1, 0, Tempo, 500000
1, 0, Time_signature, 4, 2, 24, 8
1, 1, End_track
2, 0, Start_track
2, 0, Program_c, 0, 0
2, 932, Note_on_c, 0, 74, 76
2, 938, Note_on_c, 0, 50, 53
2, 988, Note_on_c, 0, 50, 0
2, 999, Note_on_c, 0, 49, 59
2, 1052, Note_on_c, 0, 49, 0
2, 1080, Note_on_c, 0, 50, 61
2, 1205, Note_on_c, 0, 72, 69
2, 1238, Note_on_c, 0, 74, 0
2, 1315, Note_on_c, 0, 70, 72
2, 1345, Note_on_c, 0, 72, 0
2, 1348, Note_on_c, 0, 50, 0
2, 1445, Note_on_c, 0, 69, 72
2, 1446, Note_on_c, 0, 38, 57
2, 1459, Note_on_c, 0, 70, 0
2, 1536, Note_on_c, 0, 69, 0
2, 1537, Note_on_c, 0, 67, 71
2, 1635, Note_on_c, 0, 65, 71
2, 1641, Note_on_c, 0, 67, 0
2, 1736, Note_on_c, 0, 64, 68
2, 1757, Note_on_c, 0, 65, 0
2, 1839, Note_on_c, 0, 64, 0
2, 1844, Note_on_c, 0, 62, 68
2, 1866, Note_on_c, 0, 38, 0
2, 1943, Note_on_c, 0, 62, 0
2, 1943, Note_on_c, 0, 65, 71
2, 2049, Note_on_c, 0, 65, 0
2, 2057, Note_on_c, 0, 64, 67
2, 2138, Note_on_c, 0, 64, 0
2, 2163, Note_on_c, 0, 62, 65
2, 2239, Note_on_c, 0, 62, 0
2, 2265, Note_on_c, 0, 70, 71
2, 2365, Note_on_c, 0, 70, 0
2, 2373, Note_on_c, 0, 67, 61
2, 2477, Note_on_c, 0, 38, 74
2, 2482, Note_on_c, 0, 67, 0
2, 2493, Note_on_c, 0, 62, 66
2, 2530, Note_on_c, 0, 38, 0
2, 2585, Note_on_c, 0, 62, 0
2, 2599, Note_on_c, 0, 67, 67
2, 2692, Note_on_c, 0, 43, 80
2, 2698, Note_on_c, 0, 67, 0
2, 2711, Note_on_c, 0, 70, 70
2, 2728, Note_on_c, 0, 43, 0
2, 2802, Note_on_c, 0, 70, 0
2, 2823, Note_on_c, 0, 67, 59
2, 2910, Note_on_c, 0, 46, 73
2, 2915, Note_on_c, 0, 67, 0
2, 2927, Note_on_c, 0, 62, 68
2, 2943, Note_on_c, 0, 46, 0
2, 3020, Note_on_c, 0, 62, 0
2, 3035, Note_on_c, 0, 67, 67
2, 3127, Note_on_c, 0, 50, 79
2, 3137, Note_on_c, 0, 67, 0
2, 3150, Note_on_c, 0, 70, 67
2, 3186, Note_on_c, 0, 49, 69
2, 3189, Note_on_c, 0, 50, 0
2, 3240, Note_on_c, 0, 67, 63
2, 3251, Note_on_c, 0, 70, 0
2, 3265, Note_on_c, 0, 49, 0
2, 3265, Note_on_c, 0, 50, 67
2, 3364, Note_on_c, 0, 67, 0
2, 3371, Note_on_c, 0, 62, 66
2, 3472, Note_on_c, 0, 67, 67
2, 3476, Note_on_c, 0, 62, 0
2, 3564, Note_on_c, 0, 50, 0
2, 3573, Note_on_c, 0, 67, 0
2, 3575, Note_on_c, 0, 69, 71
2, 3677, Note_on_c, 0, 67, 64
2, 3679, Note_on_c, 0, 69, 0
2, 3767, Note_on_c, 0, 38, 73
2, 3781, Note_on_c, 0, 67, 0
2, 3788, Note_on_c, 0, 62, 69
2, 3817, Note_on_c, 0, 38, 0
2, 3880, Note_on_c, 0, 67, 62
2, 3881, Note_on_c, 0, 62, 0
2, 3982, Note_on_c, 0, 41, 77
2, 3982, Note_on_c, 0, 67, 0
2, 3984, Note_on_c, 0, 69, 68
2, 4016, Note_on_c, 0, 41, 0
2, 4084, Note_on_c, 0, 69, 0
2, 4093, Note_on_c, 0, 65, 62
2, 4185, Note_on_c, 0, 45, 80
2, 4188, Note_on_c, 0, 65, 0
2, 4195, Note_on_c, 0, 62, 68
2, 4215, Note_on_c, 0, 45, 0
2, 4285, Note_on_c, 0, 62, 0
2, 4300, Note_on_c, 0, 65, 60
2, 4408, Note_on_c, 0, 65, 0
2, 4422, Note_on_c, 0, 69, 67
2, 4436, Note_on_c, 0, 50, 74
2, 4481, Note_on_c, 0, 49, 70
2, 4482, Note_on_c, 0, 50, 0
2, 4508, Note_on_c, 0, 65, 59
2, 4519, Note_on_c, 0, 69, 0
2, 4552, Note_on_c, 0, 49, 0
2, 4562, Note_on_c, 0, 50, 76
2, 4614, Note_on_c, 0, 65, 0
2, 4635, Note_on_c, 0, 62, 60
2, 4728, Note_on_c, 0, 65, 66
2, 4754, Note_on_c, 0, 62, 0
2, 4828, Note_on_c, 0, 65, 0
2, 4833, Note_on_c, 0, 50, 0
2, 4838, Note_on_c, 0, 67, 68
2, 4949, Note_on_c, 0, 64, 64
2, 4957, Note_on_c, 0, 67, 0
2, 5032, Note_on_c, 0, 64, 0
2, 5038, Note_on_c, 0, 62, 67
2, 5052, Note_on_c, 0, 58, 60
2, 5085, Note_on_c, 0, 58, 0
2, 5132, Note_on_c, 0, 62, 0
2, 5149, Note_on_c, 0, 64, 63
2, 5237, Note_on_c, 0, 64, 0
2, 5243, Note_on_c, 0, 52, 60
2, 5254, Note_on_c, 0, 67, 67
2, 5293, Note_on_c, 0, 52, 0
2, 5361, Note_on_c, 0, 67, 0
2, 5369, Note_on_c, 0, 64, 66
2, 5465, Note_on_c, 0, 64, 0
2, 5468, Note_on_c, 0, 55, 64
2, 5478, Note_on_c, 0, 61, 62
2, 5509, Note_on_c, 0, 55, 0
2, 5560, Note_on_c, 0, 61, 0
2, 5573, Note_on_c, 0, 64, 66
2, 5657, Note_on_c, 0, 64, 0
2, 5671, Note_on_c, 0, 49, 63
2, 5681, Note_on_c, 0, 67, 63
2, 5705, Note_on_c, 0, 49, 0
2, 5772, Note_on_c, 0, 67, 0
2, 5786, Note_on_c, 0, 64, 67
2, 5881, Note_on_c, 0, 64, 0
2, 5888, Note_on_c, 0, 57, 57
2, 5897, Note_on_c, 0, 61, 62
2, 5922, Note_on_c, 0, 57, 0
2, 5989, Note_on_c, 0, 61, 0
2, 6006, Note_on_c, 0, 64, 68
2, 6050, Note_on_c, 0, 64, 0
2, 6099, Note_on_c, 0, 50, 61
2, 6112, Note_on_c, 0, 65, 72
2, 6222, Note_on_c, 0, 62, 69
2, 6348, Note_on_c, 0, 60, 74
2, 6398, Note_on_c, 0, 62, 0
2, 6450, Note_on_c, 0, 58, 74
2, 6452, Note_on_c, 0, 60, 0
2, 6551, Note_on_c, 0, 57, 76
2, 6562, Note_on_c, 0, 58, 0
2, 6647, Note_on_c, 0, 55, 66
2, 6715, Note_on_c, 0, 50, 0
2, 6723, Note_on_c, 0, 57, 0
2, 6761, Note_on_c, 0, 53, 68
2, 6765, Note_on_c, 0, 55, 0
2, 6864, Note_on_c, 0, 53, 0
2, 6866, Note_on_c, 0, 52, 67
2, 6928, Note_on_c, 0, 65, 0
2, 6978, Note_on_c, 0, 50, 71
2, 6982, Note_on_c, 0, 52, 0
2, 7077, Note_on_c, 0, 50, 0
2, 7077, Note_on_c, 0, 53, 69
2, 7180, Note_on_c, 0, 53, 0
2, 7184, Note_on_c, 0, 52, 66
2, 7300, Note_on_c, 0, 50, 73
2, 7307, Note_on_c, 0, 52, 0
2, 7371, Note_on_c, 0, 50, 0
2, 7396, Note_on_c, 0, 58, 78
2, 7498, Note_on_c, 0, 58, 0
2, 7501, Note_on_c, 0, 55, 67
2, 7601, Note_on_c, 0, 55, 0
2, 7601, Note_on_c, 0, 62, 79
2, 7612, Note_on_c, 0, 50, 65
2, 7646, Note_on_c, 0, 62, 0
2, 7718, Note_on_c, 0, 50, 0
2, 7719, Note_on_c, 0, 55, 59
2, 7805, Note_on_c, 0, 55, 0
2, 7812, Note_on_c, 0, 58, 65
2, 7831, Note_on_c, 0, 67, 77
2, 7865, Note_on_c, 0, 67, 0
2, 7919, Note_on_c, 0, 58, 0
2, 7924, Note_on_c, 0, 55, 63
2, 8028, Note_on_c, 0, 55, 0
2, 8046, Note_on_c, 0, 50, 61
2, 8047, Note_on_c, 0, 70, 82
2, 8077, Note_on_c, 0, 70, 0
2, 8160, Note_on_c, 0, 50, 0
2, 8175, Note_on_c, 0, 55, 58
2, 8271, Note_on_c, 0, 55, 0
2, 8278, Note_on_c, 0, 58, 66
2, 8284, Note_on_c, 0, 74, 86
2, 8336, Note_on_c, 0, 73, 72
2, 8340, Note_on_c, 0, 74, 0
2, 8376, Note_on_c, 0, 58, 0
2, 8377, Note_on_c, 0, 55, 59
2, 8401, Note_on_c, 0, 74, 75
2, 8405, Note_on_c, 0, 73, 0
2, 8466, Note_on_c, 0, 55, 0
2, 8487, Note_on_c, 0, 50, 58
2, 8589, Note_on_c, 0, 50, 0
2, 8596, Note_on_c, 0, 55, 59
2, 8691, Note_on_c, 0, 55, 0
2, 8695, Note_on_c, 0, 74, 0
2, 8697, Note_on_c, 0, 57, 70
2, 8794, Note_on_c, 0, 57, 0
2, 8800, Note_on_c, 0, 55, 63
2, 8889, Note_on_c, 0, 55, 0
2, 8893, Note_on_c, 0, 62, 80
2, 8906, Note_on_c, 0, 50, 65
2, 8953, Note_on_c, 0, 62, 0
2, 9017, Note_on_c, 0, 50, 0
2, 9023, Note_on_c, 0, 55, 62
2, 9123, Note_on_c, 0, 55, 0
2, 9132, Note_on_c, 0, 65, 74
2, 9138, Note_on_c, 0, 57, 65
2, 9166, Note_on_c, 0, 65, 0
2, 9239, Note_on_c, 0, 57, 0
2, 9246, Note_on_c, 0, 53, 62
2, 9345, Note_on_c, 0, 53, 0
2, 9347, Note_on_c, 0, 69, 82
2, 9361, Note_on_c, 0, 50, 61
2, 9371, Note_on_c, 0, 69, 0
2, 9457, Note_on_c, 0, 50, 0
2, 9472, Note_on_c, 0, 53, 62
2, 9558, Note_on_c, 0, 53, 0
2, 9570, Note_on_c, 0, 57, 60
2, 9575, Note_on_c, 0, 74, 84
2, 9627, Note_on_c, 0, 73, 70
2, 9664, Note_on_c, 0, 74, 0
2, 9672, Note_on_c, 0, 57, 0
2, 9676, Note_on_c, 0, 53, 58
2, 9715, Note_on_c, 0, 73, 0
2, 9773, Note_on_c, 0, 53, 0
2, 9794, Note_on_c, 0, 50, 60
2, 9896, Note_on_c, 0, 50, 0
2, 9908, Note_on_c, 0, 53, 64
2, 9980, Note_on_c, 0, 53, 0
2, 9997, Note_on_c, 0, 55, 69
2, 10101, Note_on_c, 0, 55, 0
2, 10117, Note_on_c, 0, 52, 69
2, 10205, Note_on_c, 0, 52, 0
2, 10228, Note_on_c, 0, 50, 61
2, 10236, Note_on_c, 0, 67, 80
2, 10275, Note_on_c, 0, 67, 0
2, 10330, Note_on_c, 0, 50, 0
2, 10341, Note_on_c, 0, 52, 64
2, 10440, Note_on_c, 0, 52, 0
2, 10451, Note_on_c, 0, 55, 59
2, 10454, Note_on_c, 0, 73, 80
2, 10488, Note_on_c, 0, 73, 0
2, 10553, Note_on_c, 0, 55, 0
2, 10570, Note_on_c, 0, 52, 57
2, 10662, Note_on_c, 0, 52, 0
2, 10676, Note_on_c, 0, 49, 61
2, 10696, Note_on_c, 0, 76, 76
2, 10732, Note_on_c, 0, 76, 0
2, 10785, Note_on_c, 0, 49, 0
2, 10798, Note_on_c, 0, 52, 58
2, 10891, Note_on_c, 0, 52, 0
2, 10913, Note_on_c, 0, 55, 51
2, 10915, Note_on_c, 0, 73, 71
2, 10957, Note_on_c, 0, 73, 0
2, 11007, Note_on_c, 0, 55, 0
2, 11044, Note_on_c, 0, 52, 48
2, 11135, Note_on_c, 0, 52, 0
2, 11157, Note_on_c, 0, 49, 57
2, 11158, Note_on_c, 0, 69, 71
2, 11195, Note_on_c, 0, 69, 0
2, 11257, Note_on_c, 0, 49, 0
2, 11268, Note_on_c, 0, 52, 56
2, 11386, Note_on_c, 0, 52, 0
2, 11387, Note_on_c, 0, 74, 74
2, 11400, Note_on_c, 0, 53, 60
2, 11515, Note_on_c, 0, 53, 0
2, 11519, Note_on_c, 0, 50, 62
2, 11632, Note_on_c, 0, 72, 77
2, 11633, Note_on_c, 0, 50, 0
2, 11637, Note_on_c, 0, 52, 65
2, 11677, Note_on_c, 0, 74, 0
2, 11728, Note_on_c, 0, 70, 75
2, 11741, Note_on_c, 0, 53, 70
2, 11745, Note_on_c, 0, 52, 0
2, 11771, Note_on_c, 0, 72, 0
2, 11836, Note_on_c, 0, 53, 0
2, 11842, Note_on_c, 0, 55, 70
2, 11842, Note_on_c, 0, 69, 75
2, 11871, Note_on_c, 0, 70, 0
2, 11938, Note_on_c, 0, 69, 0
2, 11940, Note_on_c, 0, 67, 75
2, 11956, Note_on_c, 0, 57, 73
2, 11962, Note_on_c, 0, 55, 0
2, 12032, Note_on_c, 0, 67, 0
2, 12050, Note_on_c, 0, 65, 76
2, 12067, Note_on_c, 0, 59, 69
2, 12068, Note_on_c, 0, 57, 0
2, 12156, Note_on_c, 0, 65, 0
2, 12163, Note_on_c, 0, 64, 67
2, 12167, Note_on_c, 0, 59, 0
2, 12177, Note_on_c, 0, 61, 66
2, 12243, Note_on_c, 0, 64, 0
2, 12251, Note_on_c, 0, 61, 0
2, 12265, Note_on_c, 0, 65, 73
2, 12266, Note_on_c, 0, 62, 67
2, 12310, Note_on_c, 0, 65, 0
2, 12370, Note_on_c, 0, 62, 0
2, 12379, Note_on_c, 0, 60, 67
2, 12476, Note_on_c, 0, 60, 0
2, 12487, Note_on_c, 0, 59, 68
2, 12492, Note_on_c, 0, 69, 74
2, 12595, Note_on_c, 0, 59, 0
2, 12606, Note_on_c, 0, 57, 65
2, 12712, Note_on_c, 0, 57, 0
2, 12718, Note_on_c, 0, 59, 71
2, 12803, Note_on_c, 0, 69, 0
2, 12805, Note_on_c, 0, 59, 0
2, 12819, Note_on_c, 0, 60, 64
2, 12821, Note_on_c, 0, 67, 71
2, 12924, Note_on_c, 0, 67, 0
2, 12930, Note_on_c, 0, 69, 80
2, 12938, Note_on_c, 0, 60, 0
2, 12958, Note_on_c, 0, 59, 71
2, 13028, Note_on_c, 0, 59, 0
2, 13039, Note_on_c, 0, 71, 77
2, 13050, Note_on_c, 0, 57, 73
2, 13053, Note_on_c, 0, 69, 0
2, 13120, Note_on_c, 0, 71, 0
2, 13139, Note_on_c, 0, 57, 0
2, 13148, Note_on_c, 0, 72, 79
2, 13153, Note_on_c, 0, 55, 68
2, 13237, Note_on_c, 0, 53, 67
2, 13237, Note_on_c, 0, 72, 0
2, 13239, Note_on_c, 0, 74, 79
2, 13240, Note_on_c, 0, 55, 0
2, 13328, Note_on_c, 0, 53, 0
2, 13332, Note_on_c, 0, 52, 62
2, 13342, Note_on_c, 0, 76, 76
2, 13345, Note_on_c, 0, 74, 0
2, 13415, Note_on_c, 0, 52, 0
2, 13433, Note_on_c, 0, 76, 0
2, 13434, Note_on_c, 0, 50, 59
2, 13435, Note_on_c, 0, 77, 76
2, 13520, Note_on_c, 0, 50, 0
2, 13523, Note_on_c, 0, 52, 71
2, 13528, Note_on_c, 0, 77, 0
2, 13529, Note_on_c, 0, 79, 68
2, 13560, Note_on_c, 0, 52, 0
2, 13642, Note_on_c, 0, 79, 0
2, 13647, Note_on_c, 0, 77, 71
2, 13739, Note_on_c, 0, 77, 0
2, 13747, Note_on_c, 0, 76, 65
2, 13750, Note_on_c, 0, 55, 63
2, 13785, Note_on_c, 0, 55, 0
2, 13818, Note_on_c, 0, 76, 0
2, 13837, Note_on_c, 0, 74, 67
2, 13967, Note_on_c, 0, 74, 0
2, 13975, Note_on_c, 0, 76, 66
2, 13985, Note_on_c, 0, 48, 63
2, 14017, Control_c, 0, 67, 10
2, 14035, Control_c, 0, 67, 17
2, 14055, Control_c, 0, 67, 29
2, 14064, Note_on_c, 0, 76, 0
2, 14075, Control_c, 0, 67, 43
2, 14093, Control_c, 0, 67, 58
2, 14106, Note_on_c, 0, 72, 68
2, 14113, Control_c, 0, 67, 76
2, 14132, Control_c, 0, 67, 93
2, 14152, Control_c, 0, 67, 103
2, 14188, Control_c, 0, 67, 107
2, 14203, Note_on_c, 0, 72, 0
2, 14212, Note_on_c, 0, 48, 0
2, 14212, Note_on_c, 0, 70, 68
2, 14224, Note_on_c, 0, 50, 56
2, 14243, Control_c, 0, 67, 112
2, 14313, Note_on_c, 0, 50, 0
2, 14314, Note_on_c, 0, 52, 57
2, 14326, Note_on_c, 0, 69, 63
2, 14332, Note_on_c, 0, 70, 0
2, 14403, Note_on_c, 0, 52, 0
2, 14408, Note_on_c, 0, 53, 64
2, 14420, Note_on_c, 0, 67, 63
2, 14426, Note_on_c, 0, 69, 0
2, 14453, Control_c, 0, 67, 107
2, 14479, Note_on_c, 0, 53, 0
2, 14500, Note_on_c, 0, 67, 0
2, 14508, Note_on_c, 0, 65, 67
2, 14511, Note_on_c, 0, 55, 61
2, 14571, Note_on_c, 0, 65, 0
2, 14597, Note_on_c, 0, 55, 0
2, 14600, Note_on_c, 0, 64, 69
2, 14609, Note_on_c, 0, 57, 57
2, 14678, Note_on_c, 0, 57, 0
2, 14678, Note_on_c, 0, 64, 0
2, 14698, Note_on_c, 0, 62, 60
2, 14699, Note_on_c, 0, 58, 62
2, 14764, Note_on_c, 0, 62, 0
2, 14767, Note_on_c, 0, 58, 0
2, 14797, Note_on_c, 0, 60, 60
2, 14804, Note_on_c, 0, 64, 67
2, 14843, Note_on_c, 0, 64, 0
2, 14912, Note_on_c, 0, 60, 0
2, 14933, Note_on_c, 0, 58, 57
2, 15008, Note_on_c, 0, 58, 0
2, 15036, Note_on_c, 0, 57, 56
2, 15044, Note_on_c, 0, 67, 64
2, 15136, Note_on_c, 0, 57, 0
2, 15168, Note_on_c, 0, 55, 54
2, 15203, Control_c, 0, 64, 16
2, 15261, Control_c, 0, 64, 0
2, 15266, Note_on_c, 0, 55, 0
2, 15284, Note_on_c, 0, 57, 57
2, 15341, Note_on_c, 0, 67, 0
2, 15360, Note_on_c, 0, 57, 0
2, 15378, Note_on_c, 0, 65, 66
2, 15382, Note_on_c, 0, 58, 59
2, 15460, Note_on_c, 0, 58, 0
2, 15482, Note_on_c, 0, 65, 0
2, 15489, Note_on_c, 0, 67, 66
2, 15502, Note_on_c, 0, 57, 62
2, 15559, Note_on_c, 0, 57, 0
2, 15588, Note_on_c, 0, 69, 67
2, 15589, Note_on_c, 0, 67, 0
2, 15591, Note_on_c, 0, 55, 59
2, 15644, Note_on_c, 0, 55, 0
2, 15683, Note_on_c, 0, 69, 0
2, 15685, Note_on_c, 0, 70, 70
2, 15689, Note_on_c, 0, 53, 63
2, 15759, Note_on_c, 0, 70, 0
2, 15763, Note_on_c, 0, 53, 0
2, 15790, Note_on_c, 0, 51, 63
2, 15798, Note_on_c, 0, 72, 62
2, 15872, Note_on_c, 0, 51, 0
2, 15892, Note_on_c, 0, 72, 0
2, 15895, Note_on_c, 0, 50, 57
2, 15908, Note_on_c, 0, 74, 62
2, 15969, Note_on_c, 0, 50, 0
2, 15973, Control_c, 0, 67, 102
2, 15989, Note_on_c, 0, 74, 0
2, 15994, Control_c, 0, 67, 95
2, 15998, Note_on_c, 0, 48, 53
2, 15999, Note_on_c, 0, 75, 65
2, 16012, Control_c, 0, 67, 87
2, 16032, Control_c, 0, 67, 79
2, 16052, Control_c, 0, 67, 71
2, 16071, Control_c, 0, 67, 62
2, 16076, Note_on_c, 0, 48, 0
2, 16087, Control_c, 0, 67, 55
2, 16087, Note_on_c, 0, 75, 0
2, 16100, Note_on_c, 0, 50, 63
2, 16105, Control_c, 0, 67, 50
2, 16106, Note_on_c, 0, 77, 61
2, 16127, Control_c, 0, 67, 46
2, 16132, Note_on_c, 0, 50, 0
2, 16164, Control_c, 0, 67, 38
2, 16202, Control_c, 0, 67, 30
2, 16207, Note_on_c, 0, 77, 0
2, 16222, Note_on_c, 0, 75, 64
2, 16239, Control_c, 0, 67, 23
2, 16297, Control_c, 0, 67, 19
2, 16312, Note_on_c, 0, 53, 60
2, 16313, Note_on_c, 0, 75, 0
2, 16327, Note_on_c, 0, 74, 58
2, 16344, Note_on_c, 0, 53, 0
2, 16400, Note_on_c, 0, 74, 0
2, 16407, Control_c, 0, 67, 15
2, 16438, Note_on_c, 0, 72, 59
2, 16467, Control_c, 0, 67, 0
2, 16526, Note_on_c, 0, 46, 75
2, 16528, Note_on_c, 0, 72, 0
2, 16540, Control_c, 0, 64, 24
2, 16546, Note_on_c, 0, 74, 63
2, 16560, Control_c, 0, 64, 38
2, 16564, Note_on_c, 0, 46, 0
2, 16579, Control_c, 0, 64, 51
2, 16598, Control_c, 0, 64, 57
2, 16617, Control_c, 0, 64, 61
2, 16632, Note_on_c, 0, 74, 0
2, 16635, Control_c, 0, 64, 63
2, 16652, Control_c, 0, 64, 64
2, 16655, Note_on_c, 0, 77, 61
2, 16711, Control_c, 0, 64, 62
2, 16732, Control_c, 0, 64, 60
2, 16749, Control_c, 0, 64, 56
2, 16755, Note_on_c, 0, 58, 75
2, 16765, Note_on_c, 0, 77, 0
2, 16768, Control_c, 0, 64, 52
2, 16775, Note_on_c, 0, 74, 59
2, 16802, Control_c, 0, 64, 45
2, 16821, Control_c, 0, 64, 33
2, 16841, Control_c, 0, 64, 15
2, 16855, Note_on_c, 0, 74, 0
2, 16858, Control_c, 0, 64, 0
2, 16880, Note_on_c, 0, 60, 73
2, 16882, Note_on_c, 0, 58, 0
2, 16890, Note_on_c, 0, 72, 63
2, 16982, Note_on_c, 0, 62, 76
2, 16986, Note_on_c, 0, 72, 0
2, 16988, Note_on_c, 0, 60, 0
2, 17002, Note_on_c, 0, 70, 64
2, 17017, Note_on_c, 0, 62, 0
2, 17084, Note_on_c, 0, 70, 0
2, 17111, Note_on_c, 0, 74, 61
2, 17208, Note_on_c, 0, 65, 69
2, 17213, Note_on_c, 0, 74, 0
2, 17228, Note_on_c, 0, 70, 60
2, 17242, Note_on_c, 0, 65, 0
2, 17304, Note_on_c, 0, 70, 0
2, 17329, Note_on_c, 0, 69, 56
2, 17377, Note_on_c, 0, 69, 0
2, 17424, Note_on_c, 0, 58, 55
2, 17427, Note_on_c, 0, 67, 58
2, 17455, Note_on_c, 0, 58, 0
2, 17503, Note_on_c, 0, 67, 0
2, 17541, Note_on_c, 0, 70, 58
2, 17631, Note_on_c, 0, 70, 0
2, 17650, Note_on_c, 0, 62, 58
2, 17652, Note_on_c, 0, 67, 58
2, 17693, Note_on_c, 0, 62, 0
2, 17713, Note_on_c, 0, 67, 0
2, 17767, Note_on_c, 0, 65, 61
2, 17850, Note_on_c, 0, 65, 0
2, 17876, Note_on_c, 0, 55, 57
2, 17876, Note_on_c, 0, 64, 64
2, 17889, Control_c, 0, 64, 21
2, 17908, Control_c, 0, 64, 31
2, 17944, Note_on_c, 0, 64, 0
2, 17972, Note_on_c, 0, 55, 0
2, 17984, Note_on_c, 0, 58, 64
2, 18001, Control_c, 0, 64, 22
2, 18023, Control_c, 0, 64, 12
2, 18040, Control_c, 0, 64, 0
2, 18063, Note_on_c, 0, 58, 0
2, 18092, Note_on_c, 0, 76, 79
2, 18111, Note_on_c, 0, 55, 64
2, 18191, Note_on_c, 0, 76, 0
2, 18195, Note_on_c, 0, 77, 78
2, 18199, Note_on_c, 0, 53, 66
2, 18202, Note_on_c, 0, 55, 0
2, 18284, Note_on_c, 0, 53, 0
2, 18293, Note_on_c, 0, 79, 86
2, 18301, Note_on_c, 0, 52, 67
2, 18303, Note_on_c, 0, 77, 0
2, 18335, Note_on_c, 0, 79, 0
2, 18405, Note_on_c, 0, 52, 0
2, 18425, Note_on_c, 0, 55, 63
2, 18517, Note_on_c, 0, 55, 0
2, 18529, Note_on_c, 0, 82, 84
2, 18543, Note_on_c, 0, 52, 66
2, 18587, Note_on_c, 0, 82, 0
2, 18637, Note_on_c, 0, 52, 0
2, 18647, Note_on_c, 0, 50, 65
2, 18780, Note_on_c, 0, 76, 78
2, 18781, Note_on_c, 0, 49, 68
2, 18784, Note_on_c, 0, 50, 0
2, 18811, Note_on_c, 0, 76, 0
2, 18871, Note_on_c, 0, 49, 0
2, 18895, Note_on_c, 0, 52, 64
2, 18996, Note_on_c, 0, 52, 0
2, 19005, Note_on_c, 0, 79, 65
2, 19009, Note_on_c, 0, 49, 65
2, 19035, Note_on_c, 0, 79, 0
2, 19078, Note_on_c, 0, 49, 0
2, 19095, Note_on_c, 0, 47, 66
2, 19189, Note_on_c, 0, 47, 0
2, 19212, Note_on_c, 0, 45, 73
2, 19238, Note_on_c, 0, 73, 65
2, 19284, Control_c, 0, 64, 32
2, 19304, Control_c, 0, 64, 52
2, 19308, Note_on_c, 0, 45, 0
2, 19322, Control_c, 0, 64, 67
2, 19330, Note_on_c, 0, 73, 0
2, 19341, Control_c, 0, 64, 74
2, 19349, Note_on_c, 0, 79, 62
2, 19352, Control_c, 0, 64, 78
2, 19372, Control_c, 0, 64, 80
2, 19410, Control_c, 0, 64, 78
2, 19427, Control_c, 0, 64, 69
2, 19434, Note_on_c, 0, 79, 0
2, 19442, Note_on_c, 0, 57, 79
2, 19447, Control_c, 0, 64, 51
2, 19449, Note_on_c, 0, 73, 70
2, 19465, Control_c, 0, 64, 16
2, 19483, Control_c, 0, 64, 0
2, 19524, Note_on_c, 0, 73, 0
2, 19557, Note_on_c, 0, 57, 0
2, 19558, Note_on_c, 0, 71, 65
2, 19559, Note_on_c, 0, 59, 73
2, 19648, Note_on_c, 0, 59, 0
2, 19668, Note_on_c, 0, 61, 76
2, 19674, Note_on_c, 0, 71, 0
2, 19681, Note_on_c, 0, 69, 67
2, 19707, Note_on_c, 0, 61, 0
2, 19767, Note_on_c, 0, 69, 0
2, 19808, Note_on_c, 0, 76, 55
2, 19897, Note_on_c, 0, 76, 0
2, 19906, Note_on_c, 0, 64, 67
2, 19916, Note_on_c, 0, 69, 59
2, 19946, Note_on_c, 0, 64, 0
2, 19977, Note_on_c, 0, 69, 0
2, 20023, Note_on_c, 0, 67, 57
2, 20107, Note_on_c, 0, 67, 0
2, 20128, Note_on_c, 0, 57, 61
2, 20136, Note_on_c, 0, 65, 59
2, 20162, Note_on_c, 0, 57, 0
2, 20210, Note_on_c, 0, 65, 0
2, 20258, Note_on_c, 0, 73, 51
2, 20342, Note_on_c, 0, 73, 0
2, 20345, Note_on_c, 0, 55, 54
2, 20345, Note_on_c, 0, 65, 65
2, 20383, Note_on_c, 0, 55, 0
2, 20418, Note_on_c, 0, 65, 0
2, 20458, Note_on_c, 0, 64, 61
2, 20510, Note_on_c, 0, 64, 0
2, 20543, Control_c, 0, 64, 12
2, 20543, Note_on_c, 0, 53, 65
2, 20547, Note_on_c, 0, 62, 67
2, 20562, Control_c, 0, 64, 35
2, 20581, Control_c, 0, 64, 41
2, 20581, Note_on_c, 0, 62, 0
2, 20636, Note_on_c, 0, 53, 0
2, 20652, Control_c, 0, 64, 37
2, 20665, Note_on_c, 0, 62, 71
2, 20673, Control_c, 0, 64, 29
2, 20691, Control_c, 0, 64, 21
2, 20711, Control_c, 0, 64, 14
2, 20727, Control_c, 0, 64, 8
2, 20736, Note_on_c, 0, 62, 0
2, 20744, Control_c, 0, 64, 0
2, 20762, Note_on_c, 0, 74, 80
2, 20773, Note_on_c, 0, 53, 69
2, 20860, Note_on_c, 0, 53, 0
2, 20861, Note_on_c, 0, 52, 67
2, 20865, Note_on_c, 0, 74, 0
2, 20865, Note_on_c, 0, 76, 80
2, 20959, Note_on_c, 0, 77, 84
2, 20974, Note_on_c, 0, 52, 0
2, 20976, Note_on_c, 0, 50, 65
2, 20984, Note_on_c, 0, 76, 0
2, 21008, Note_on_c, 0, 77, 0
2, 21075, Note_on_c, 0, 50, 0
2, 21086, Note_on_c, 0, 57, 67
2, 21180, Note_on_c, 0, 57, 0
2, 21193, Note_on_c, 0, 81, 80
2, 21209, Note_on_c, 0, 50, 66
2, 21222, Note_on_c, 0, 81, 0
2, 21292, Note_on_c, 0, 50, 0
2, 21299, Note_on_c, 0, 48, 62
2, 21418, Note_on_c, 0, 46, 66
2, 21418, Note_on_c, 0, 48, 0
2, 21423, Note_on_c, 0, 74, 69
2, 21456, Note_on_c, 0, 74, 0
2, 21504, Note_on_c, 0, 46, 0
2, 21532, Note_on_c, 0, 53, 64
2, 21655, Note_on_c, 0, 53, 0
2, 21661, Note_on_c, 0, 46, 66
2, 21672, Note_on_c, 0, 72, 60
2, 21703, Note_on_c, 0, 72, 0
2, 21737, Note_on_c, 0, 46, 0
2, 21754, Note_on_c, 0, 45, 62
2, 21865, Note_on_c, 0, 45, 0
2, 21875, Note_on_c, 0, 43, 69
2, 21888, Note_on_c, 0, 70, 67
2, 21916, Control_c, 0, 64, 13
2, 21935, Control_c, 0, 64, 32
2, 21955, Control_c, 0, 64, 46
2, 21973, Control_c, 0, 64, 59
2, 21986, Note_on_c, 0, 70, 0
2, 21990, Note_on_c, 0, 43, 0
2, 21993, Control_c, 0, 64, 64
2, 22000, Note_on_c, 0, 79, 64
2, 22032, Control_c, 0, 64, 61
2, 22049, Control_c, 0, 64, 50
2, 22067, Control_c, 0, 64, 26
2, 22079, Note_on_c, 0, 79, 0
2, 22087, Control_c, 0, 64, 0
2, 22107, Note_on_c, 0, 55, 67
2, 22113, Note_on_c, 0, 70, 69
2, 22197, Note_on_c, 0, 70, 0
2, 22209, Note_on_c, 0, 55, 0
2, 22209, Note_on_c, 0, 57, 68
2, 22219, Note_on_c, 0, 69, 63
2, 22299, Note_on_c, 0, 57, 0
2, 22317, Note_on_c, 0, 69, 0
2, 22319, Note_on_c, 0, 58, 70
2, 22334, Note_on_c, 0, 67, 61
2, 22351, Note_on_c, 0, 58, 0
2, 22397, Note_on_c, 0, 67, 0
2, 22437, Note_on_c, 0, 70, 61
2, 22542, Note_on_c, 0, 70, 0
2, 22569, Note_on_c, 0, 62, 54
2, 22572, Note_on_c, 0, 67, 56
2, 22607, Note_on_c, 0, 62, 0
2, 22632, Note_on_c, 0, 67, 0
2, 22679, Note_on_c, 0, 65, 56
2, 22755, Note_on_c, 0, 65, 0
2, 22763, Control_c, 0, 67, 8
2, 22781, Control_c, 0, 67, 13
2, 22784, Note_on_c, 0, 55, 56
2, 22791, Note_on_c, 0, 63, 58
2, 22800, Control_c, 0, 67, 21
2, 22818, Control_c, 0, 67, 28
2, 22818, Note_on_c, 0, 55, 0
2, 22840, Control_c, 0, 67, 33
2, 22852, Note_on_c, 0, 63, 0
2, 22858, Control_c, 0, 67, 39
2, 22876, Control_c, 0, 67, 46
2, 22892, Control_c, 0, 67, 53
2, 22897, Note_on_c, 0, 70, 53
2, 22914, Control_c, 0, 67, 61
2, 22933, Control_c, 0, 67, 70
2, 22952, Control_c, 0, 67, 81
2, 22971, Control_c, 0, 67, 93
2, 22992, Control_c, 0, 67, 105
2, 23008, Note_on_c, 0, 70, 0
2, 23009, Control_c, 0, 67, 120
2, 23015, Note_on_c, 0, 63, 57
2, 23019, Note_on_c, 0, 58, 57
2, 23028, Control_c, 0, 67, 127
2, 23051, Note_on_c, 0, 58, 0
2, 23082, Note_on_c, 0, 63, 0
2, 23138, Note_on_c, 0, 62, 51
2, 23212, Note_on_c, 0, 62, 0
2, 23247, Note_on_c, 0, 57, 53
2, 23250, Note_on_c, 0, 61, 53
2, 23283, Note_on_c, 0, 57, 0
2, 23306, Note_on_c, 0, 61, 0
2, 23367, Note_on_c, 0, 69, 43
2, 23457, Note_on_c, 0, 69, 0
2, 23479, Note_on_c, 0, 61, 53
2, 23487, Note_on_c, 0, 64, 55
2, 23544, Note_on_c, 0, 64, 0
2, 23554, Note_on_c, 0, 61, 0
2, 23608, Note_on_c, 0, 59, 59
2, 23681, Note_on_c, 0, 59, 0
2, 23717, Note_on_c, 0, 57, 51
2, 23723, Note_on_c, 0, 61, 50
2, 23751, Note_on_c, 0, 57, 0
2, 23772, Note_on_c, 0, 61, 0
2, 23847, Note_on_c, 0, 69, 34
2, 23917, Note_on_c, 0, 69, 0
2, 23950, Note_on_c, 0, 61, 54
2, 23952, Note_on_c, 0, 64, 49
2, 23986, Note_on_c, 0, 64, 0
2, 24005, Note_on_c, 0, 61, 0
2, 24068, Note_on_c, 0, 69, 43
2, 24118, Note_on_c, 0, 69, 0
2, 24168, Note_on_c, 0, 57, 53
2, 24172, Note_on_c, 0, 61, 53
2, 24207, Note_on_c, 0, 57, 0
2, 24227, Note_on_c, 0, 61, 0
2, 24305, Note_on_c, 0, 69, 29
2, 24367, Note_on_c, 0, 69, 0
2, 24413, Note_on_c, 0, 64, 51
2, 24416, Note_on_c, 0, 61, 54
2, 24446, Note_on_c, 0, 64, 0
2, 24478, Note_on_c, 0, 61, 0
2, 24538, Note_on_c, 0, 69, 47
2, 24607, Note_on_c, 0, 69, 0
2, 24652, Note_on_c, 0, 55, 49
2, 24654, Note_on_c, 0, 61, 55
2, 24693, Note_on_c, 0, 55, 0
2, 24723, Note_on_c, 0, 61, 0
2, 24763, Note_on_c, 0, 69, 53
2, 24867, Note_on_c, 0, 69, 0
2, 24872, Note_on_c, 0, 61, 61
2, 24876, Note_on_c, 0, 64, 58
2, 24916, Note_on_c, 0, 64, 0
2, 24942, Note_on_c, 0, 61, 0
2, 24993, Note_on_c, 0, 59, 57
2, 25066, Note_on_c, 0, 59, 0
2, 25096, Note_on_c, 0, 55, 55
2, 25096, Note_on_c, 0, 61, 60
2, 25143, Note_on_c, 0, 55, 0
2, 25152, Note_on_c, 0, 61, 0
2, 25224, Note_on_c, 0, 69, 37
2, 25284, Note_on_c, 0, 69, 0
2, 25340, Note_on_c, 0, 61, 52
2, 25341, Note_on_c, 0, 64, 51
2, 25376, Note_on_c, 0, 64, 0
2, 25387, Note_on_c, 0, 61, 0
2, 25477, Note_on_c, 0, 69, 38
2, 25526, Note_on_c, 0, 69, 0
2, 25577, Note_on_c, 0, 55, 50
2, 25583, Note_on_c, 0, 61, 54
2, 25616, Note_on_c, 0, 55, 0
2, 25637, Note_on_c, 0, 61, 0
2, 25691, Note_on_c, 0, 69, 39
2, 25758, Note_on_c, 0, 69, 0
2, 25809, Note_on_c, 0, 64, 55
2, 25812, Note_on_c, 0, 61, 60
2, 25847, Note_on_c, 0, 64, 0
2, 25859, Note_on_c, 0, 61, 0
2, 25923, Note_on_c, 0, 69, 46
2, 26001, Note_on_c, 0, 69, 0
2, 26020, Note_on_c, 0, 53, 55
2, 26034, Note_on_c, 0, 62, 64
2, 26067, Note_on_c, 0, 53, 0
2, 26085, Note_on_c, 0, 62, 0
2, 26159, Note_on_c, 0, 69, 54
2, 26219, Note_on_c, 0, 69, 0
2, 26252, Note_on_c, 0, 65, 56
2, 26277, Note_on_c, 0, 62, 59
2, 26302, Note_on_c, 0, 65, 0
2, 26341, Note_on_c, 0, 62, 0
2, 26380, Note_on_c, 0, 61, 59
2, 26464, Note_on_c, 0, 61, 0
2, 26496, Note_on_c, 0, 53, 56
2, 26497, Note_on_c, 0, 62, 66
2, 26543, Note_on_c, 0, 53, 0
2, 26558, Note_on_c, 0, 62, 0
2, 26632, Note_on_c, 0, 69, 54
2, 26688, Note_on_c, 0, 69, 0
2, 26736, Note_on_c, 0, 65, 58
2, 26742, Note_on_c, 0, 62, 55
2, 26776, Note_on_c, 0, 65, 0
2, 26794, Note_on_c, 0, 62, 0
2, 26854, Note_on_c, 0, 69, 53
2, 26922, Note_on_c, 0, 69, 0
2, 26969, Note_on_c, 0, 53, 60
2, 26970, Note_on_c, 0, 62, 58
2, 27021, Note_on_c, 0, 53, 0
2, 27023, Note_on_c, 0, 62, 0
2, 27090, Note_on_c, 0, 69, 53
2, 27156, Note_on_c, 0, 69, 0
2, 27195, Note_on_c, 0, 65, 54
2, 27203, Note_on_c, 0, 62, 57
2, 27235, Note_on_c, 0, 65, 0
2, 27250, Note_on_c, 0, 62, 0
2, 27309, Note_on_c, 0, 69, 55
2, 27384, Note_on_c, 0, 69, 0
2, 27423, Note_on_c, 0, 61, 67
2, 27431, Note_on_c, 0, 64, 60
2, 27454, Note_on_c, 0, 61, 0
2, 27523, Note_on_c, 0, 64, 0
2, 27546, Note_on_c, 0, 69, 56
2, 27640, Note_on_c, 0, 69, 0
2, 27648, Note_on_c, 0, 67, 66
2, 27674, Note_on_c, 0, 64, 53
2, 27681, Note_on_c, 0, 67, 0
2, 27723, Note_on_c, 0, 64, 0
2, 27771, Note_on_c, 0, 62, 57
2, 27834, Note_on_c, 0, 62, 0
2, 27853, Note_on_c, 0, 61, 60
2, 27877, Note_on_c, 0, 64, 57
2, 27904, Note_on_c, 0, 61, 0
2, 27946, Note_on_c, 0, 64, 0
2, 27989, Note_on_c, 0, 69, 56
2, 28049, Note_on_c, 0, 69, 0
2, 28083, Note_on_c, 0, 67, 63
2, 28103, Note_on_c, 0, 64, 57
2, 28130, Note_on_c, 0, 67, 0
2, 28151, Note_on_c, 0, 64, 0
2, 28210, Note_on_c, 0, 69, 55
2, 28272, Note_on_c, 0, 69, 0
2, 28336, Note_on_c, 0, 61, 51
2, 28341, Note_on_c, 0, 64, 54
2, 28377, Note_on_c, 0, 61, 0
2, 28397, Note_on_c, 0, 64, 0
2, 28449, Note_on_c, 0, 69, 51
2, 28509, Note_on_c, 0, 69, 0
2, 28558, Note_on_c, 0, 64, 51
2, 28565, Note_on_c, 0, 67, 50
2, 28603, Note_on_c, 0, 67, 0
2, 28615, Control_c, 0, 67, 122
2, 28633, Control_c, 0, 67, 116
2, 28651, Note_on_c, 0, 64, 0
2, 28671, Control_c, 0, 67, 110
2, 28675, Note_on_c, 0, 69, 47
2, 28705, Note_on_c, 0, 69, 0
2, 28707, Control_c, 0, 67, 102
2, 28747, Control_c, 0, 67, 96
2, 28782, Note_on_c, 0, 65, 55
2, 28787, Control_c, 0, 67, 92
2, 28795, Note_on_c, 0, 62, 49
2, 28822, Control_c, 0, 67, 86
2, 28831, Note_on_c, 0, 65, 0
2, 28835, Note_on_c, 0, 62, 0
2, 28841, Control_c, 0, 67, 79
2, 28843, Note_on_c, 0, 69, 58
2, 28860, Control_c, 0, 67, 71
2, 28879, Control_c, 0, 67, 63
2, 28897, Control_c, 0, 67, 55
2, 28909, Note_on_c, 0, 69, 0
2, 28916, Control_c, 0, 67, 49
2, 28922, Note_on_c, 0, 71, 63
2, 28936, Control_c, 0, 67, 44
2, 28968, Note_on_c, 0, 71, 0
2, 28975, Control_c, 0, 67, 39
2, 28976, Note_on_c, 0, 73, 60
2, 29057, Note_on_c, 0, 65, 46
2, 29066, Note_on_c, 0, 73, 0
2, 29073, Note_on_c, 0, 74, 61
2, 29102, Note_on_c, 0, 65, 0
2, 29104, Control_c, 0, 67, 32
2, 29124, Control_c, 0, 67, 28
2, 29142, Control_c, 0, 67, 21
2, 29162, Control_c, 0, 67, 13
2, 29184, Note_on_c, 0, 74, 0
2, 29200, Control_c, 0, 67, 0
2, 29200, Note_on_c, 0, 69, 52
2, 29258, Note_on_c, 0, 69, 0
2, 29285, Note_on_c, 0, 62, 58
2, 29312, Note_on_c, 0, 65, 59
2, 29324, Note_on_c, 0, 62, 0
2, 29381, Note_on_c, 0, 65, 0
2, 29414, Note_on_c, 0, 69, 56
2, 29503, Note_on_c, 0, 69, 0
2, 29517, Note_on_c, 0, 65, 66
2, 29518, Note_on_c, 0, 74, 66
2, 29563, Note_on_c, 0, 65, 0
2, 29612, Note_on_c, 0, 74, 0
2, 29648, Note_on_c, 0, 69, 56
2, 29691, Note_on_c, 0, 69, 0
2, 29745, Note_on_c, 0, 65, 64
2, 29752, Note_on_c, 0, 62, 56
2, 29784, Note_on_c, 0, 62, 0
2, 29808, Note_on_c, 0, 65, 0
2, 29858, Note_on_c, 0, 69, 53
2, 29925, Note_on_c, 0, 69, 0
2, 29965, Note_on_c, 0, 74, 60
2, 29984, Note_on_c, 0, 65, 53
2, 30016, Note_on_c, 0, 65, 0
2, 30040, Note_on_c, 0, 74, 0
2, 30075, Note_on_c, 0, 69, 58
2, 30145, Note_on_c, 0, 69, 0
2, 30175, Note_on_c, 0, 66, 66
2, 30185, Note_on_c, 0, 60, 63
2, 30211, Note_on_c, 0, 60, 0
2, 30239, Note_on_c, 0, 66, 0
2, 30308, Note_on_c, 0, 74, 64
2, 30404, Note_on_c, 0, 74, 0
2, 30415, Note_on_c, 0, 66, 64
2, 30428, Note_on_c, 0, 69, 70
2, 30476, Note_on_c, 0, 69, 0
2, 30491, Note_on_c, 0, 66, 0
2, 30528, Note_on_c, 0, 64, 67
2, 30603, Note_on_c, 0, 64, 0
2, 30639, Note_on_c, 0, 66, 73
2, 30642, Note_on_c, 0, 60, 70
2, 30684, Note_on_c, 0, 60, 0
2, 30696, Note_on_c, 0, 66, 0
2, 30760, Note_on_c, 0, 74, 63
2, 30853, Note_on_c, 0, 74, 0
2, 30877, Note_on_c, 0, 66, 67
2, 30886, Note_on_c, 0, 69, 63
2, 30927, Note_on_c, 0, 69, 0
2, 30947, Note_on_c, 0, 66, 0
2, 31003, Note_on_c, 0, 74, 65
2, 31057, Note_on_c, 0, 74, 0
2, 31096, Note_on_c, 0, 66, 74
2, 31103, Note_on_c, 0, 60, 65
2, 31151, Note_on_c, 0, 60, 0
2, 31168, Note_on_c, 0, 66, 0
2, 31236, Note_on_c, 0, 74, 62
2, 31300, Note_on_c, 0, 74, 0
2, 31340, Note_on_c, 0, 66, 70
2, 31352, Note_on_c, 0, 69, 68
2, 31400, Note_on_c, 0, 69, 0
2, 31406, Note_on_c, 0, 66, 0
2, 31440, Note_on_c, 0, 74, 66
2, 31501, Note_on_c, 0, 74, 0
2, 31551, Note_on_c, 0, 67, 78
2, 31552, Note_on_c, 0, 59, 73
2, 31584, Note_on_c, 0, 59, 0
2, 31601, Note_on_c, 0, 67, 0
2, 31606, Note_on_c, 0, 69, 69
2, 31681, Note_on_c, 0, 71, 70
2, 31695, Note_on_c, 0, 69, 0
2, 31742, Note_on_c, 0, 72, 73
2, 31753, Note_on_c, 0, 71, 0
2, 31774, Note_on_c, 0, 67, 73
2, 31802, Note_on_c, 0, 74, 77
2, 31817, Note_on_c, 0, 67, 0
2, 31826, Note_on_c, 0, 72, 0
2, 31900, Note_on_c, 0, 71, 73
2, 31926, Note_on_c, 0, 74, 0
2, 31989, Note_on_c, 0, 59, 78
2, 31996, Note_on_c, 0, 71, 0
2, 32002, Note_on_c, 0, 67, 79
2, 32033, Note_on_c, 0, 59, 0
2, 32093, Note_on_c, 0, 67, 0
2, 32126, Note_on_c, 0, 71, 74
2, 32240, Note_on_c, 0, 67, 78
2, 32245, Note_on_c, 0, 71, 0
2, 32245, Note_on_c, 0, 74, 79
2, 32284, Note_on_c, 0, 67, 0
2, 32352, Note_on_c, 0, 74, 0
2, 32355, Note_on_c, 0, 71, 68
2, 32447, Note_on_c, 0, 71, 0
2, 32460, Note_on_c, 0, 59, 81
2, 32469, Note_on_c, 0, 67, 78
2, 32502, Note_on_c, 0, 59, 0
2, 32554, Note_on_c, 0, 67, 0
2, 32584, Note_on_c, 0, 71, 70
2, 32689, Note_on_c, 0, 71, 0
2, 32697, Note_on_c, 0, 74, 76
2, 32698, Note_on_c, 0, 67, 79
2, 32757, Note_on_c, 0, 67, 0
2, 32811, Note_on_c, 0, 74, 0
2, 32815, Note_on_c, 0, 71, 71
2, 32906, Note_on_c, 0, 71, 0
2, 32912, Note_on_c, 0, 64, 78
2, 32917, Note_on_c, 0, 68, 82
2, 32965, Note_on_c, 0, 64, 0
2, 33025, Note_on_c, 0, 68, 0
2, 33031, Note_on_c, 0, 74, 76
2, 33159, Note_on_c, 0, 74, 0
2, 33167, Note_on_c, 0, 68, 78
2, 33168, Note_on_c, 0, 71, 76
2, 33218, Note_on_c, 0, 71, 0
2, 33260, Note_on_c, 0, 68, 0
2, 33273, Note_on_c, 0, 66, 80
2, 33367, Note_on_c, 0, 66, 0
2, 33371, Note_on_c, 0, 64, 72
2, 33387, Note_on_c, 0, 68, 78
2, 33405, Note_on_c, 0, 64, 0
2, 33479, Note_on_c, 0, 68, 0
2, 33496, Note_on_c, 0, 74, 74
2, 33609, Note_on_c, 0, 71, 73
2, 33611, Note_on_c, 0, 68, 82
2, 33613, Note_on_c, 0, 74, 0
2, 33655, Note_on_c, 0, 71, 0
2, 33709, Note_on_c, 0, 68, 0
2, 33721, Note_on_c, 0, 74, 77
2, 33829, Note_on_c, 0, 64, 75
2, 33834, Note_on_c, 0, 74, 0
2, 33836, Note_on_c, 0, 68, 85
2, 33863, Note_on_c, 0, 64, 0
2, 33931, Note_on_c, 0, 68, 0
2, 33937, Note_on_c, 0, 74, 81
2, 34039, Control_c, 0, 64, 26
2, 34046, Note_on_c, 0, 71, 70
2, 34052, Note_on_c, 0, 68, 86
2, 34057, Control_c, 0, 64, 32
2, 34060, Note_on_c, 0, 74, 0
2, 34092, Control_c, 0, 64, 40
2, 34101, Note_on_c, 0, 71, 0
2, 34111, Control_c, 0, 64, 48
2, 34130, Control_c, 0, 64, 56
2, 34149, Control_c, 0, 64, 61
2, 34165, Control_c, 0, 64, 64
2, 34168, Note_on_c, 0, 74, 86
2, 34186, Control_c, 0, 64, 65
2, 34192, Note_on_c, 0, 68, 0
2, 34210, Note_on_c, 0, 74, 0
2, 34224, Control_c, 0, 64, 66
2, 34263, Control_c, 0, 64, 64
2, 34282, Control_c, 0, 64, 61
2, 34292, Note_on_c, 0, 57, 75
2, 34301, Control_c, 0, 64, 58
2, 34303, Note_on_c, 0, 72, 88
2, 34318, Control_c, 0, 64, 55
2, 34338, Control_c, 0, 64, 52
2, 34357, Control_c, 0, 64, 47
2, 34376, Control_c, 0, 64, 40
2, 34393, Control_c, 0, 64, 33
2, 34412, Control_c, 0, 64, 26
2, 34432, Control_c, 0, 64, 19
2, 34443, Note_on_c, 0, 69, 79
2, 34450, Control_c, 0, 64, 13
2, 34469, Control_c, 0, 64, 8
2, 34489, Control_c, 0, 64, 0
2, 34551, Note_on_c, 0, 67, 79
2, 34630, Note_on_c, 0, 69, 0
2, 34665, Note_on_c, 0, 65, 76
2, 34673, Note_on_c, 0, 67, 0
2, 34783, Note_on_c, 0, 65, 0
2, 34785, Note_on_c, 0, 64, 75
2, 34909, Note_on_c, 0, 62, 73
2, 34972, Note_on_c, 0, 64, 0
2, 35002, Note_on_c, 0, 57, 0
2, 35021, Note_on_c, 0, 60, 73
2, 35022, Note_on_c, 0, 62, 0
2, 35150, Note_on_c, 0, 59, 74
2, 35151, Note_on_c, 0, 60, 0
2, 35248, Note_on_c, 0, 72, 0
2, 35264, Note_on_c, 0, 57, 74
2, 35270, Note_on_c, 0, 59, 0
2, 35356, Note_on_c, 0, 57, 0
2, 35371, Note_on_c, 0, 60, 73
2, 35488, Note_on_c, 0, 60, 0
2, 35498, Note_on_c, 0, 59, 68
2, 35591, Note_on_c, 0, 57, 72
2, 35592, Note_on_c, 0, 59, 0
2, 35655, Note_on_c, 0, 57, 0
2, 35697, Note_on_c, 0, 65, 76
2, 35807, Note_on_c, 0, 65, 0
2, 35808, Note_on_c, 0, 62, 73
2, 35908, Note_on_c, 0, 62, 0
2, 35921, Note_on_c, 0, 57, 68
2, 35926, Note_on_c, 0, 69, 80
2, 35970, Note_on_c, 0, 69, 0
2, 36044, Note_on_c, 0, 57, 0
2, 36056, Note_on_c, 0, 62, 68
2, 36151, Note_on_c, 0, 62, 0
2, 36164, Note_on_c, 0, 65, 71
2, 36167, Note_on_c, 0, 74, 87
2, 36208, Note_on_c, 0, 74, 0
2, 36275, Note_on_c, 0, 65, 0
2, 36290, Note_on_c, 0, 62, 68
2, 36381, Note_on_c, 0, 62, 0
2, 36397, Note_on_c, 0, 77, 84
2, 36402, Note_on_c, 0, 57, 65
2, 36422, Note_on_c, 0, 77, 0
2, 36498, Note_on_c, 0, 57, 0
2, 36517, Note_on_c, 0, 62, 67
2, 36623, Note_on_c, 0, 62, 0
2, 36636, Note_on_c, 0, 65, 66
2, 36643, Note_on_c, 0, 81, 81
2, 36674, Note_on_c, 0, 80, 82
2, 36677, Note_on_c, 0, 81, 0
2, 36737, Note_on_c, 0, 65, 0
2, 36745, Note_on_c, 0, 81, 82
2, 36751, Note_on_c, 0, 80, 0
2, 36757, Note_on_c, 0, 62, 63
2, 36837, Note_on_c, 0, 62, 0
2, 36855, Note_on_c, 0, 57, 65
2, 36984, Note_on_c, 0, 57, 0
2, 36992, Note_on_c, 0, 62, 67
2, 37074, Note_on_c, 0, 62, 0
2, 37078, Note_on_c, 0, 64, 74
2, 37078, Note_on_c, 0, 81, 0
2, 37181, Note_on_c, 0, 64, 0
2, 37194, Note_on_c, 0, 62, 72
2, 37279, Note_on_c, 0, 62, 0
2, 37298, Note_on_c, 0, 57, 70
2, 37308, Note_on_c, 0, 69, 78
2, 37350, Note_on_c, 0, 69, 0
2, 37410, Note_on_c, 0, 57, 0
2, 37423, Note_on_c, 0, 62, 68
2, 37522, Note_on_c, 0, 62, 0
2, 37528, Note_on_c, 0, 64, 71
2, 37533, Note_on_c, 0, 72, 79
2, 37564, Note_on_c, 0, 72, 0
2, 37634, Note_on_c, 0, 64, 0
2, 37642, Note_on_c, 0, 60, 67
2, 37743, Note_on_c, 0, 60, 0
2, 37756, Note_on_c, 0, 76, 84
2, 37758, Note_on_c, 0, 57, 67
2, 37784, Note_on_c, 0, 76, 0
2, 37860, Note_on_c, 0, 57, 0
2, 37866, Note_on_c, 0, 60, 67
2, 37990, Note_on_c, 0, 60, 0
2, 37996, Note_on_c, 0, 64, 66
2, 38004, Note_on_c, 0, 81, 86
2, 38056, Note_on_c, 0, 81, 0
2, 38061, Note_on_c, 0, 80, 75
2, 38098, Note_on_c, 0, 64, 0
2, 38102, Note_on_c, 0, 60, 64
2, 38124, Note_on_c, 0, 81, 79
2, 38149, Note_on_c, 0, 80, 0
2, 38198, Note_on_c, 0, 60, 0
2, 38209, Note_on_c, 0, 57, 65
2, 38329, Note_on_c, 0, 57, 0
2, 38329, Note_on_c, 0, 60, 68
2, 38413, Note_on_c, 0, 60, 0
2, 38422, Note_on_c, 0, 62, 75
2, 38463, Note_on_c, 0, 81, 0
2, 38523, Note_on_c, 0, 62, 0
2, 38530, Note_on_c, 0, 59, 74
2, 38624, Note_on_c, 0, 59, 0
2, 38635, Note_on_c, 0, 57, 68
2, 38643, Note_on_c, 0, 74, 87
2, 38691, Note_on_c, 0, 74, 0
2, 38748, Note_on_c, 0, 57, 0
2, 38758, Note_on_c, 0, 59, 73
2, 38877, Note_on_c, 0, 59, 0
2, 38883, Note_on_c, 0, 62, 68
2, 38886, Note_on_c, 0, 80, 89
2, 38931, Note_on_c, 0, 80, 0
2, 39005, Note_on_c, 0, 62, 0
2, 39006, Note_on_c, 0, 59, 72
2, 39104, Note_on_c, 0, 59, 0
2, 39113, Note_on_c, 0, 56, 68
2, 39114, Note_on_c, 0, 83, 88
2, 39159, Note_on_c, 0, 83, 0
2, 39227, Note_on_c, 0, 56, 0
2, 39227, Note_on_c, 0, 59, 70
2, 39333, Note_on_c, 0, 59, 0
2, 39336, Note_on_c, 0, 62, 66
2, 39346, Note_on_c, 0, 80, 81
2, 39381, Note_on_c, 0, 80, 0
2, 39453, Note_on_c, 0, 62, 0
2, 39463, Note_on_c, 0, 59, 66
2, 39552, Note_on_c, 0, 59, 0
2, 39562, Note_on_c, 0, 56, 65
2, 39575, Note_on_c, 0, 76, 69
2, 39607, Note_on_c, 0, 76, 0
2, 39673, Note_on_c, 0, 56, 0
2, 39679, Note_on_c, 0, 59, 68
2, 39789, Note_on_c, 0, 81, 80
2, 39799, Note_on_c, 0, 60, 73
2, 39800, Note_on_c, 0, 59, 0
2, 39899, Note_on_c, 0, 60, 0
2, 40068, Note_on_c, 0, 45, 75
2, 40079, Note_on_c, 0, 79, 71
2, 40112, Note_on_c, 0, 81, 0
2, 40122, Note_on_c, 0, 45, 0
2, 40188, Note_on_c, 0, 77, 71
2, 40227, Note_on_c, 0, 79, 0
2, 40308, Note_on_c, 0, 76, 68
2, 40309, Note_on_c, 0, 48, 64
2, 40310, Note_on_c, 0, 77, 0
2, 40348, Note_on_c, 0, 48, 0
2, 40406, Note_on_c, 0, 76, 0
2, 40413, Note_on_c, 0, 74, 69
2, 40522, Note_on_c, 0, 52, 66
2, 40531, Note_on_c, 0, 72, 69
2, 40532, Note_on_c, 0, 74, 0
2, 40563, Note_on_c, 0, 52, 0
2, 40638, Note_on_c, 0, 72, 0
2, 40645, Note_on_c, 0, 71, 63
2, 40734, Note_on_c, 0, 71, 0
2, 40742, Note_on_c, 0, 57, 71
2, 40753, Note_on_c, 0, 69, 65
2, 40781, Note_on_c, 0, 57, 0
2, 40850, Note_on_c, 0, 69, 0
2, 40872, Note_on_c, 0, 72, 66
2, 40969, Note_on_c, 0, 72, 0
2, 40973, Note_on_c, 0, 60, 68
2, 40987, Note_on_c, 0, 71, 63
2, 41010, Note_on_c, 0, 60, 0
2, 41066, Note_on_c, 0, 71, 0
2, 41109, Note_on_c, 0, 69, 61
2, 41161, Note_on_c, 0, 69, 0
2, 41196, Note_on_c, 0, 62, 77
2, 41209, Note_on_c, 0, 77, 71
2, 41224, Note_on_c, 0, 62, 0
2, 41311, Note_on_c, 0, 77, 0
2, 41316, Note_on_c, 0, 74, 62
2, 41404, Note_on_c, 0, 74, 0
2, 41427, Note_on_c, 0, 65, 68
2, 41442, Note_on_c, 0, 69, 62
2, 41477, Note_on_c, 0, 65, 0
2, 41499, Note_on_c, 0, 69, 0
2, 41550, Note_on_c, 0, 74, 62
2, 41610, Note_on_c, 0, 74, 0
2, 41659, Note_on_c, 0, 77, 57
2, 41665, Note_on_c, 0, 57, 54
2, 41701, Note_on_c, 0, 57, 0
2, 41763, Note_on_c, 0, 77, 0
2, 41779, Note_on_c, 0, 74, 57
2, 41844, Note_on_c, 0, 74, 0
2, 41890, Note_on_c, 0, 62, 68
2, 41897, Note_on_c, 0, 69, 59
2, 41942, Note_on_c, 0, 62, 0
2, 41982, Note_on_c, 0, 69, 0
2, 42011, Note_on_c, 0, 74, 56
2, 42099, Note_on_c, 0, 74, 0
2, 42122, Note_on_c, 0, 50, 66
2, 42130, Note_on_c, 0, 77, 56
2, 42157, Note_on_c, 0, 50, 0
2, 42215, Note_on_c, 0, 77, 0
2, 42245, Note_on_c, 0, 74, 57
2, 42321, Note_on_c, 0, 74, 0
2, 42360, Note_on_c, 0, 59, 64
2, 42371, Note_on_c, 0, 69, 53
2, 42397, Note_on_c, 0, 59, 0
2, 42433, Note_on_c, 0, 69, 0
2, 42475, Note_on_c, 0, 74, 60
2, 42571, Note_on_c, 0, 74, 0
2, 42589, Note_on_c, 0, 60, 64
2, 42594, Note_on_c, 0, 76, 58
2, 42617, Note_on_c, 0, 60, 0
2, 42677, Note_on_c, 0, 76, 0
2, 42692, Note_on_c, 0, 74, 58
2, 42791, Note_on_c, 0, 74, 0
2, 42835, Note_on_c, 0, 64, 64
2, 42835, Note_on_c, 0, 69, 60
2, 42873, Note_on_c, 0, 64, 0
2, 42891, Note_on_c, 0, 69, 0
2, 42943, Note_on_c, 0, 74, 60
2, 43044, Note_on_c, 0, 74, 0
2, 43060, Note_on_c, 0, 57, 65
2, 43064, Note_on_c, 0, 76, 57
2, 43088, Note_on_c, 0, 57, 0
2, 43148, Note_on_c, 0, 76, 0
2, 43167, Note_on_c, 0, 72, 54
2, 43238, Note_on_c, 0, 72, 0
2, 43286, Note_on_c, 0, 60, 64
2, 43293, Note_on_c, 0, 69, 58
2, 43337, Note_on_c, 0, 60, 0
2, 43390, Note_on_c, 0, 69, 0
2, 43404, Note_on_c, 0, 72, 52
2, 43495, Note_on_c, 0, 72, 0
2, 43512, Note_on_c, 0, 76, 58
2, 43605, Note_on_c, 0, 76, 0
2, 43632, Note_on_c, 0, 72, 54
2, 43704, Note_on_c, 0, 72, 0
2, 43755, Note_on_c, 0, 57, 67
2, 43756, Note_on_c, 0, 69, 63
2, 43794, Note_on_c, 0, 57, 0
2, 43865, Note_on_c, 0, 69, 0
2, 43866, Note_on_c, 0, 72, 59
2, 43963, Note_on_c, 0, 59, 77
2, 43966, Note_on_c, 0, 72, 0
2, 43977, Note_on_c, 0, 74, 66
2, 43993, Note_on_c, 0, 59, 0
2, 44088, Note_on_c, 0, 74, 0
2, 44104, Note_on_c, 0, 71, 63
2, 44189, Note_on_c, 0, 62, 69
2, 44199, Note_on_c, 0, 71, 0
2, 44208, Note_on_c, 0, 69, 65
2, 44232, Note_on_c, 0, 62, 0
2, 44304, Note_on_c, 0, 69, 0
2, 44313, Note_on_c, 0, 71, 65
2, 44402, Note_on_c, 0, 71, 0
2, 44405, Note_on_c, 0, 56, 77
2, 44417, Note_on_c, 0, 74, 70
2, 44456, Note_on_c, 0, 56, 0
2, 44524, Note_on_c, 0, 71, 68
2, 44526, Note_on_c, 0, 74, 0
2, 44639, Note_on_c, 0, 59, 81
2, 44654, Note_on_c, 0, 68, 73
2, 44657, Note_on_c, 0, 71, 0
2, 44697, Note_on_c, 0, 59, 0
2, 44770, Note_on_c, 0, 71, 73
2, 44772, Note_on_c, 0, 68, 0
2, 44870, Note_on_c, 0, 64, 78
2, 44876, Note_on_c, 0, 71, 0
2, 44888, Note_on_c, 0, 74, 77
2, 44917, Note_on_c, 0, 64, 0
2, 45004, Note_on_c, 0, 71, 73
2, 45017, Note_on_c, 0, 74, 0
2, 45104, Note_on_c, 0, 52, 72
2, 45104, Note_on_c, 0, 71, 0
2, 45108, Note_on_c, 0, 68, 77
2, 45150, Note_on_c, 0, 52, 0
2, 45217, Note_on_c, 0, 71, 77
2, 45230, Note_on_c, 0, 68, 0
2, 45294, Note_on_c, 0, 71, 0
2, 45334, Note_on_c, 0, 72, 81
2, 45349, Note_on_c, 0, 57, 67
2, 45456, Note_on_c, 0, 69, 75
2, 45562, Note_on_c, 0, 67, 76
2, 45652, Note_on_c, 0, 69, 0
2, 45685, Note_on_c, 0, 65, 73
2, 45691, Note_on_c, 0, 67, 0
2, 45799, Note_on_c, 0, 65, 0
2, 45808, Note_on_c, 0, 64, 79
2, 45905, Note_on_c, 0, 57, 0
2, 45909, Note_on_c, 0, 62, 73
2, 45972, Note_on_c, 0, 64, 0
2, 46024, Note_on_c, 0, 60, 71
2, 46024, Note_on_c, 0, 62, 0
2, 46112, Note_on_c, 0, 59, 69
2, 46114, Note_on_c, 0, 60, 0
2, 46220, Note_on_c, 0, 59, 0
2, 46223, Note_on_c, 0, 57, 66
2, 46300, Note_on_c, 0, 57, 0
2, 46323, Note_on_c, 0, 60, 66
2, 46414, Note_on_c, 0, 60, 0
2, 46418, Note_on_c, 0, 52, 63
2, 46521, Note_on_c, 0, 52, 0
2, 46535, Note_on_c, 0, 55, 61
2, 46645, Note_on_c, 0, 55, 0
2, 46647, Note_on_c, 0, 54, 65
2, 46654, Control_c, 0, 64, 18
2, 46674, Control_c, 0, 64, 31
2, 46687, Note_on_c, 0, 54, 0
2, 46691, Control_c, 0, 64, 40
2, 46699, Note_on_c, 0, 72, 0
2, 46710, Control_c, 0, 64, 45
2, 46730, Control_c, 0, 64, 49
2, 46768, Note_on_c, 0, 75, 68
2, 46787, Control_c, 0, 64, 45
2, 46807, Control_c, 0, 64, 42
2, 46825, Control_c, 0, 64, 38
2, 46845, Control_c, 0, 64, 31
2, 46863, Control_c, 0, 64, 22
2, 46864, Note_on_c, 0, 69, 71
2, 46867, Note_on_c, 0, 75, 0
2, 46872, Note_on_c, 0, 74, 70
2, 46881, Control_c, 0, 64, 12
2, 46898, Note_on_c, 0, 69, 0
2, 46901, Control_c, 0, 64, 0
2, 46962, Note_on_c, 0, 74, 0
2, 46981, Note_on_c, 0, 72, 63
2, 47019, Note_on_c, 0, 72, 0
2, 47094, Note_on_c, 0, 72, 70
2, 47104, Note_on_c, 0, 78, 66
2, 47132, Note_on_c, 0, 72, 0
2, 47215, Note_on_c, 0, 78, 0
2, 47223, Note_on_c, 0, 75, 62
2, 47339, Note_on_c, 0, 74, 62
2, 47342, Note_on_c, 0, 75, 0
2, 47346, Note_on_c, 0, 69, 55
2, 47385, Note_on_c, 0, 69, 0
2, 47415, Note_on_c, 0, 74, 0
2, 47445, Note_on_c, 0, 72, 60
2, 47496, Note_on_c, 0, 72, 0
2, 47562, Note_on_c, 0, 81, 66
2, 47566, Note_on_c, 0, 66, 55
2, 47603, Note_on_c, 0, 66, 0
2, 47667, Note_on_c, 0, 75, 64
2, 47671, Note_on_c, 0, 81, 0
2, 47781, Note_on_c, 0, 75, 0
2, 47788, Note_on_c, 0, 62, 47
2, 47790, Note_on_c, 0, 74, 58
2, 47855, Note_on_c, 0, 62, 0
2, 47860, Note_on_c, 0, 74, 0
2, 47903, Note_on_c, 0, 72, 51
2, 47941, Note_on_c, 0, 72, 0
2, 48009, Note_on_c, 0, 70, 64
2, 48010, Note_on_c, 0, 67, 57
2, 48047, Note_on_c, 0, 70, 0
2, 48058, Note_on_c, 0, 67, 0
2, 48120, Note_on_c, 0, 79, 60
2, 48227, Note_on_c, 0, 55, 59
2, 48234, Note_on_c, 0, 77, 63
2, 48269, Note_on_c, 0, 79, 0
2, 48280, Note_on_c, 0, 55, 0
2, 48332, Note_on_c, 0, 75, 69
2, 48340, Note_on_c, 0, 77, 0
2, 48447, Note_on_c, 0, 74, 68
2, 48453, Note_on_c, 0, 58, 53
2, 48455, Note_on_c, 0, 75, 0
2, 48515, Note_on_c, 0, 58, 0
2, 48552, Note_on_c, 0, 74, 0
2, 48584, Note_on_c, 0, 72, 63
2, 48672, Note_on_c, 0, 72, 0
2, 48677, Note_on_c, 0, 62, 54
2, 48686, Note_on_c, 0, 70, 65
2, 48721, Note_on_c, 0, 62, 0
2, 48801, Note_on_c, 0, 70, 0
2, 48810, Note_on_c, 0, 69, 60
2, 48906, Note_on_c, 0, 69, 0
2, 48911, Note_on_c, 0, 67, 56
2, 48919, Note_on_c, 0, 72, 66
2, 48952, Note_on_c, 0, 67, 0
2, 49021, Note_on_c, 0, 70, 63
2, 49030, Note_on_c, 0, 72, 0
2, 49108, Note_on_c, 0, 70, 0
2, 49131, Note_on_c, 0, 69, 56
2, 49149, Note_on_c, 0, 65, 53
2, 49180, Note_on_c, 0, 65, 0
2, 49223, Note_on_c, 0, 69, 0
2, 49232, Note_on_c, 0, 67, 63
2, 49346, Note_on_c, 0, 64, 65
2, 49346, Note_on_c, 0, 72, 69
2, 49347, Note_on_c, 0, 67, 0
2, 49393, Note_on_c, 0, 72, 0
2, 49452, Note_on_c, 0, 64, 0
2, 49467, Note_on_c, 0, 61, 62
2, 49561, Note_on_c, 0, 61, 0
2, 49585, Note_on_c, 0, 60, 58
2, 49587, Note_on_c, 0, 76, 80
2, 49643, Note_on_c, 0, 76, 0
2, 49700, Note_on_c, 0, 58, 58
2, 49702, Note_on_c, 0, 60, 0
2, 49789, Note_on_c, 0, 58, 0
2, 49810, Note_on_c, 0, 71, 79
2, 49816, Note_on_c, 0, 65, 60
2, 49853, Note_on_c, 0, 71, 0
2, 49931, Note_on_c, 0, 65, 0
2, 49936, Note_on_c, 0, 61, 60
2, 50044, Note_on_c, 0, 77, 79
2, 50046, Note_on_c, 0, 61, 0
2, 50060, Note_on_c, 0, 60, 64
2, 50084, Note_on_c, 0, 77, 0
2, 50169, Note_on_c, 0, 60, 0
2, 50170, Note_on_c, 0, 58, 61
2, 50244, Note_on_c, 0, 58, 0
2, 50269, Note_on_c, 0, 67, 61
2, 50270, Note_on_c, 0, 70, 69
2, 50301, Note_on_c, 0, 70, 0
2, 50377, Note_on_c, 0, 67, 0
2, 50398, Note_on_c, 0, 61, 63
2, 50503, Note_on_c, 0, 79, 80
2, 50506, Note_on_c, 0, 61, 0
2, 50514, Note_on_c, 0, 60, 61
2, 50614, Note_on_c, 0, 58, 68
2, 50622, Note_on_c, 0, 60, 0
2, 50748, Note_on_c, 0, 57, 63
2, 50753, Note_on_c, 0, 58, 0
2, 50850, Note_on_c, 0, 57, 0
2, 50855, Note_on_c, 0, 65, 64
2, 50857, Note_on_c, 0, 74, 72
2, 50894, Note_on_c, 0, 79, 0
2, 50947, Note_on_c, 0, 74, 0
2, 50953, Note_on_c, 0, 72, 79
2, 50962, Note_on_c, 0, 65, 0
2, 50967, Note_on_c, 0, 64, 69
2, 51052, Note_on_c, 0, 72, 0
2, 51054, Note_on_c, 0, 64, 0
2, 51059, Note_on_c, 0, 70, 77
2, 51061, Note_on_c, 0, 62, 69
2, 51138, Note_on_c, 0, 62, 0
2, 51157, Note_on_c, 0, 70, 0
2, 51164, Note_on_c, 0, 69, 80
2, 51167, Note_on_c, 0, 60, 76
2, 51252, Note_on_c, 0, 69, 0
2, 51267, Note_on_c, 0, 79, 78
2, 51276, Note_on_c, 0, 58, 68
2, 51277, Note_on_c, 0, 60, 0
2, 51374, Note_on_c, 0, 58, 0
2, 51385, Note_on_c, 0, 57, 65
2, 51396, Note_on_c, 0, 77, 75
2, 51434, Note_on_c, 0, 79, 0
2, 51500, Note_on_c, 0, 76, 76
2, 51502, Note_on_c, 0, 55, 63
2, 51502, Note_on_c, 0, 57, 0
2, 51508, Note_on_c, 0, 77, 0
2, 51596, Note_on_c, 0, 58, 66
2, 51604, Note_on_c, 0, 55, 0
2, 51605, Note_on_c, 0, 76, 0
2, 51608, Note_on_c, 0, 74, 79
2, 51674, Note_on_c, 0, 58, 0
2, 51708, Note_on_c, 0, 57, 66
2, 51711, Note_on_c, 0, 82, 74
2, 51717, Note_on_c, 0, 74, 0
2, 51805, Note_on_c, 0, 57, 0
2, 51815, Note_on_c, 0, 55, 62
2, 51820, Note_on_c, 0, 76, 66
2, 51830, Note_on_c, 0, 82, 0
2, 51902, Note_on_c, 0, 55, 0
2, 51910, Note_on_c, 0, 76, 0
2, 51917, Note_on_c, 0, 53, 59
2, 51932, Note_on_c, 0, 74, 68
2, 51982, Control_c, 0, 64, 12
2, 52000, Control_c, 0, 64, 34
2, 52012, Note_on_c, 0, 53, 0
2, 52017, Note_on_c, 0, 52, 64
2, 52019, Control_c, 0, 64, 47
2, 52033, Note_on_c, 0, 74, 0
2, 52034, Note_on_c, 0, 73, 70
2, 52037, Control_c, 0, 64, 52
2, 52054, Note_on_c, 0, 52, 0
2, 52096, Control_c, 0, 64, 46
2, 52116, Control_c, 0, 64, 39
2, 52134, Control_c, 0, 64, 31
2, 52145, Note_on_c, 0, 67, 58
2, 52147, Note_on_c, 0, 70, 63
2, 52147, Note_on_c, 0, 73, 0
2, 52173, Control_c, 0, 64, 25
2, 52191, Control_c, 0, 64, 19
2, 52211, Control_c, 0, 64, 0
2, 52214, Note_on_c, 0, 67, 0
2, 52244, Note_on_c, 0, 65, 63
2, 52248, Note_on_c, 0, 69, 68
2, 52255, Note_on_c, 0, 70, 0
2, 52354, Note_on_c, 0, 65, 0
2, 52356, Note_on_c, 0, 69, 0
2, 52372, Note_on_c, 0, 67, 63
2, 52374, Note_on_c, 0, 64, 57
2, 52464, Note_on_c, 0, 67, 0
2, 52471, Note_on_c, 0, 64, 0
2, 52476, Note_on_c, 0, 74, 68
2, 52481, Note_on_c, 0, 62, 62
2, 52571, Note_on_c, 0, 62, 0
2, 52596, Note_on_c, 0, 70, 62
2, 52613, Note_on_c, 0, 67, 44
2, 52629, Note_on_c, 0, 74, 0
2, 52661, Note_on_c, 0, 67, 0
2, 52702, Note_on_c, 0, 65, 55
2, 52708, Note_on_c, 0, 69, 61
2, 52710, Note_on_c, 0, 70, 0
2, 52793, Note_on_c, 0, 65, 0
2, 52803, Note_on_c, 0, 69, 0
2, 52813, Note_on_c, 0, 67, 57
2, 52817, Note_on_c, 0, 64, 55
2, 52896, Note_on_c, 0, 67, 0
2, 52913, Note_on_c, 0, 64, 0
2, 52918, Note_on_c, 0, 61, 59
2, 52939, Note_on_c, 0, 76, 65
2, 53017, Note_on_c, 0, 61, 0
2, 53046, Note_on_c, 0, 67, 56
2, 53055, Note_on_c, 0, 70, 63
2, 53059, Note_on_c, 0, 76, 0
2, 53107, Note_on_c, 0, 67, 0
2, 53118, Control_c, 0, 64, 14
2, 53136, Control_c, 0, 64, 31
2, 53137, Note_on_c, 0, 65, 55
2, 53155, Control_c, 0, 64, 46
2, 53164, Note_on_c, 0, 70, 0
2, 53171, Note_on_c, 0, 69, 59
2, 53175, Control_c, 0, 64, 57
2, 53193, Control_c, 0, 64, 62
2, 53212, Control_c, 0, 64, 65
2, 53227, Note_on_c, 0, 65, 0
2, 53228, Control_c, 0, 64, 67
2, 53236, Note_on_c, 0, 64, 60
2, 53254, Note_on_c, 0, 69, 0
2, 53283, Note_on_c, 0, 67, 60
2, 53284, Control_c, 0, 64, 60
2, 53287, Note_on_c, 0, 64, 0
2, 53303, Control_c, 0, 64, 42
2, 53322, Control_c, 0, 64, 0
2, 53331, Note_on_c, 0, 67, 0
2, 53364, Note_on_c, 0, 50, 66
2, 53371, Control_c, 0, 64, 20
2, 53384, Note_on_c, 0, 65, 68
2, 53390, Control_c, 0, 64, 36
2, 53407, Note_on_c, 0, 50, 0
2, 53413, Control_c, 0, 64, 49
2, 53431, Control_c, 0, 64, 57
2, 53446, Control_c, 0, 64, 60
2, 53467, Control_c, 0, 64, 61
2, 53506, Note_on_c, 0, 63, 56
2, 53543, Control_c, 0, 64, 60
2, 53582, Control_c, 0, 64, 55
2, 53600, Control_c, 0, 64, 50
2, 53608, Note_on_c, 0, 63, 0
2, 53617, Control_c, 0, 64, 47
2, 53628, Note_on_c, 0, 62, 64
2, 53634, Note_on_c, 0, 66, 72
2, 53673, Control_c, 0, 64, 43
2, 53693, Control_c, 0, 64, 39
2, 53702, Note_on_c, 0, 65, 0
2, 53713, Control_c, 0, 64, 33
2, 53731, Control_c, 0, 64, 27
2, 53733, Note_on_c, 0, 62, 0
2, 53746, Note_on_c, 0, 60, 61
2, 53769, Control_c, 0, 64, 23
2, 53807, Control_c, 0, 64, 18
2, 53826, Control_c, 0, 64, 14
2, 53844, Control_c, 0, 64, 9
2, 53844, Note_on_c, 0, 60, 0
2, 53852, Note_on_c, 0, 58, 65
2, 53859, Note_on_c, 0, 67, 73
2, 53864, Control_c, 0, 64, 0
2, 53871, Note_on_c, 0, 66, 0
2, 53954, Note_on_c, 0, 58, 0
2, 53982, Note_on_c, 0, 60, 67
2, 54091, Note_on_c, 0, 60, 0
2, 54099, Note_on_c, 0, 69, 75
2, 54101, Note_on_c, 0, 58, 65
2, 54134, Note_on_c, 0, 67, 0
2, 54196, Note_on_c, 0, 57, 67
2, 54198, Note_on_c, 0, 58, 0
2, 54343, Note_on_c, 0, 55, 69
2, 54345, Note_on_c, 0, 70, 79
2, 54347, Note_on_c, 0, 57, 0
2, 54411, Note_on_c, 0, 69, 0
2, 54463, Note_on_c, 0, 55, 0
2, 54476, Note_on_c, 0, 57, 71
2, 54587, Note_on_c, 0, 71, 79
2, 54591, Note_on_c, 0, 55, 73
2, 54598, Note_on_c, 0, 57, 0
2, 54602, Note_on_c, 0, 70, 0
2, 54691, Note_on_c, 0, 53, 70
2, 54692, Note_on_c, 0, 55, 0
2, 54807, Note_on_c, 0, 53, 0
2, 54820, Note_on_c, 0, 52, 71
2, 54828, Note_on_c, 0, 72, 78
2, 54842, Note_on_c, 0, 71, 0
2, 54933, Note_on_c, 0, 58, 70
2, 54966, Note_on_c, 0, 52, 0
2, 55049, Note_on_c, 0, 73, 81
2, 55055, Note_on_c, 0, 58, 0
2, 55062, Note_on_c, 0, 57, 76
2, 55099, Note_on_c, 0, 72, 0
2, 55178, Note_on_c, 0, 57, 0
2, 55205, Note_on_c, 0, 55, 57
2, 55229, Note_on_c, 0, 53, 43
2, 55299, Note_on_c, 0, 53, 0
2, 55308, Note_on_c, 0, 74, 83
2, 55312, Note_on_c, 0, 55, 0
2, 55317, Note_on_c, 0, 53, 51
2, 55334, Note_on_c, 0, 73, 0
2, 55409, Note_on_c, 0, 53, 0
2, 55423, Note_on_c, 0, 55, 73
2, 55524, Note_on_c, 0, 55, 0
2, 55529, Note_on_c, 0, 76, 80
2, 55531, Note_on_c, 0, 53, 75
2, 55535, Note_on_c, 0, 74, 0
2, 55631, Note_on_c, 0, 52, 71
2, 55631, Note_on_c, 0, 53, 0
2, 55760, Note_on_c, 0, 50, 73
2, 55761, Note_on_c, 0, 52, 0
2, 55769, Note_on_c, 0, 76, 0
2, 55771, Note_on_c, 0, 77, 82
2, 55870, Note_on_c, 0, 50, 0
2, 55871, Note_on_c, 0, 51, 72
2, 55968, Note_on_c, 0, 51, 0
2, 55989, Note_on_c, 0, 50, 79
2, 55996, Note_on_c, 0, 78, 82
2, 56031, Note_on_c, 0, 77, 0
2, 56107, Note_on_c, 0, 48, 75
2, 56119, Note_on_c, 0, 50, 0
2, 56219, Note_on_c, 0, 46, 85
2, 56230, Note_on_c, 0, 79, 84
2, 56231, Note_on_c, 0, 48, 0
2, 56235, Note_on_c, 0, 78, 0
2, 56273, Note_on_c, 0, 46, 0
2, 56347, Note_on_c, 0, 79, 0
2, 56361, Note_on_c, 0, 74, 80
2, 56470, Note_on_c, 0, 43, 81
2, 56471, Note_on_c, 0, 74, 0
2, 56473, Note_on_c, 0, 82, 80
2, 56513, Note_on_c, 0, 43, 0
2, 56561, Note_on_c, 0, 82, 0
2, 56593, Note_on_c, 0, 81, 74
2, 56688, Note_on_c, 0, 46, 76
2, 56699, Note_on_c, 0, 79, 75
2, 56725, Note_on_c, 0, 81, 0
2, 56730, Note_on_c, 0, 46, 0
2, 56817, Note_on_c, 0, 77, 75
2, 56826, Note_on_c, 0, 79, 0
2, 56917, Note_on_c, 0, 50, 77
2, 56918, Note_on_c, 0, 77, 0
2, 56922, Note_on_c, 0, 76, 76
2, 56945, Note_on_c, 0, 50, 0
2, 56993, Note_on_c, 0, 76, 0
2, 57025, Note_on_c, 0, 74, 73
2, 57135, Note_on_c, 0, 55, 79
2, 57158, Note_on_c, 0, 74, 0
2, 57159, Note_on_c, 0, 73, 74
2, 57190, Note_on_c, 0, 53, 74
2, 57192, Note_on_c, 0, 55, 0
2, 57260, Note_on_c, 0, 55, 69
2, 57264, Note_on_c, 0, 53, 0
2, 57266, Note_on_c, 0, 73, 0
2, 57270, Note_on_c, 0, 74, 73
2, 57396, Note_on_c, 0, 76, 73
2, 57398, Note_on_c, 0, 74, 0
2, 57497, Note_on_c, 0, 73, 76
2, 57528, Note_on_c, 0, 76, 0
2, 57595, Note_on_c, 0, 55, 0
2, 57607, Note_on_c, 0, 69, 81
2, 57649, Note_on_c, 0, 73, 0
2, 57690, Note_on_c, 0, 69, 0
2, 57737, Note_on_c, 0, 55, 73
2, 57821, Note_on_c, 0, 55, 0
2, 57839, Note_on_c, 0, 45, 71
2, 57842, Note_on_c, 0, 64, 80
2, 57902, Note_on_c, 0, 64, 0
2, 57936, Note_on_c, 0, 45, 0
2, 57945, Note_on_c, 0, 43, 71
2, 58077, Note_on_c, 0, 69, 82
2, 58081, Note_on_c, 0, 43, 0
2, 58084, Note_on_c, 0, 45, 72
2, 58121, Note_on_c, 0, 69, 0
2, 58160, Note_on_c, 0, 45, 0
2, 58183, Note_on_c, 0, 55, 70
2, 58278, Note_on_c, 0, 55, 0
2, 58306, Note_on_c, 0, 45, 73
2, 58315, Note_on_c, 0, 73, 78
2, 58343, Note_on_c, 0, 73, 0
2, 58405, Note_on_c, 0, 45, 0
2, 58415, Note_on_c, 0, 55, 69
2, 58510, Note_on_c, 0, 55, 0
2, 58525, Note_on_c, 0, 76, 81
2, 58545, Note_on_c, 0, 45, 72
2, 58572, Note_on_c, 0, 74, 83
2, 58597, Note_on_c, 0, 76, 0
2, 58647, Note_on_c, 0, 45, 0
2, 58649, Note_on_c, 0, 55, 70
2, 58655, Note_on_c, 0, 76, 65
2, 58685, Note_on_c, 0, 74, 0
2, 58723, Note_on_c, 0, 55, 0
2, 58768, Note_on_c, 0, 45, 71
2, 58841, Note_on_c, 0, 45, 0
2, 58861, Note_on_c, 0, 55, 69
2, 58914, Note_on_c, 0, 55, 0
2, 58968, Note_on_c, 0, 45, 68
2, 58971, Note_on_c, 0, 76, 0
2, 59064, Note_on_c, 0, 45, 0
2, 59090, Note_on_c, 0, 53, 65
2, 59093, Note_on_c, 0, 69, 67
2, 59174, Note_on_c, 0, 53, 0
2, 59186, Note_on_c, 0, 69, 0
2, 59196, Note_on_c, 0, 45, 67
2, 59208, Note_on_c, 0, 65, 69
2, 59292, Note_on_c, 0, 45, 0
2, 59303, Note_on_c, 0, 43, 64
2, 59308, Note_on_c, 0, 65, 0
2, 59328, Note_on_c, 0, 69, 69
2, 59407, Note_on_c, 0, 69, 0
2, 59408, Note_on_c, 0, 43, 0
2, 59421, Note_on_c, 0, 45, 64
2, 59429, Note_on_c, 0, 74, 70
2, 59490, Note_on_c, 0, 45, 0
2, 59521, Note_on_c, 0, 74, 0
2, 59538, Note_on_c, 0, 53, 56
2, 59540, Note_on_c, 0, 69, 66
2, 59601, Note_on_c, 0, 53, 0
2, 59616, Note_on_c, 0, 69, 0
2, 59645, Note_on_c, 0, 45, 61
2, 59645, Note_on_c, 0, 65, 65
2, 59724, Note_on_c, 0, 65, 0
2, 59728, Note_on_c, 0, 45, 0
2, 59762, Note_on_c, 0, 53, 53
2, 59763, Note_on_c, 0, 69, 61
2, 59796, Note_on_c, 0, 69, 0
2, 59827, Note_on_c, 0, 53, 0
2, 59846, Note_on_c, 0, 74, 68
2, 59879, Note_on_c, 0, 45, 62
2, 59890, Note_on_c, 0, 74, 0
2, 59900, Note_on_c, 0, 72, 66
2, 59942, Note_on_c, 0, 45, 0
2, 59968, Note_on_c, 0, 74, 66
2, 59975, Note_on_c, 0, 53, 59
2, 59994, Note_on_c, 0, 72, 0
2, 60085, Note_on_c, 0, 53, 0
2, 60117, Note_on_c, 0, 45, 55
2, 60188, Note_on_c, 0, 45, 0
2, 60235, Note_on_c, 0, 53, 55
2, 60282, Note_on_c, 0, 53, 0
2, 60320, Note_on_c, 0, 45, 58
2, 60335, Note_on_c, 0, 74, 0
2, 60417, Note_on_c, 0, 45, 0
2, 60433, Note_on_c, 0, 67, 54
2, 60448, Note_on_c, 0, 52, 55
2, 60530, Note_on_c, 0, 67, 0
2, 60546, Note_on_c, 0, 52, 0
2, 60548, Note_on_c, 0, 64, 60
2, 60573, Note_on_c, 0, 45, 56
2, 60641, Note_on_c, 0, 45, 0
2, 60652, Note_on_c, 0, 64, 0
2, 60672, Note_on_c, 0, 67, 57
2, 60675, Note_on_c, 0, 43, 54
2, 60747, Note_on_c, 0, 67, 0
2, 60755, Note_on_c, 0, 43, 0
2, 60783, Note_on_c, 0, 72, 58
2, 60789, Note_on_c, 0, 45, 52
2, 60852, Note_on_c, 0, 45, 0
2, 60869, Note_on_c, 0, 72, 0
2, 60899, Note_on_c, 0, 67, 55
2, 60903, Note_on_c, 0, 52, 44
2, 60973, Note_on_c, 0, 52, 0
2, 60986, Note_on_c, 0, 67, 0
2, 61010, Note_on_c, 0, 45, 51
2, 61025, Note_on_c, 0, 64, 53
2, 61029, Control_c, 0, 64, 14
2, 61047, Control_c, 0, 64, 20
2, 61066, Control_c, 0, 64, 24
2, 61096, Note_on_c, 0, 64, 0
2, 61108, Note_on_c, 0, 45, 0
2, 61114, Note_on_c, 0, 52, 48
2, 61125, Note_on_c, 0, 67, 51
2, 61142, Control_c, 0, 64, 12
2, 61160, Control_c, 0, 64, 0
2, 61160, Note_on_c, 0, 67, 0
2, 61193, Note_on_c, 0, 52, 0
2, 61235, Note_on_c, 0, 72, 62
2, 61241, Note_on_c, 0, 45, 50
2, 61271, Note_on_c, 0, 72, 0
2, 61275, Note_on_c, 0, 70, 65
2, 61317, Note_on_c, 0, 45, 0
2, 61332, Note_on_c, 0, 70, 0
2, 61347, Note_on_c, 0, 52, 50
2, 61359, Note_on_c, 0, 72, 61
2, 61425, Note_on_c, 0, 52, 0
2, 61461, Note_on_c, 0, 45, 55
2, 61550, Note_on_c, 0, 45, 0
2, 61582, Note_on_c, 0, 52, 50
2, 61668, Note_on_c, 0, 52, 0
2, 61708, Control_c, 0, 64, 8
2, 61713, Note_on_c, 0, 45, 46
2, 61727, Control_c, 0, 64, 13
2, 61747, Control_c, 0, 64, 18
2, 61786, Control_c, 0, 64, 22
2, 61794, Note_on_c, 0, 45, 0
2, 61794, Note_on_c, 0, 72, 0
2, 61807, Note_on_c, 0, 65, 55
2, 61819, Note_on_c, 0, 50, 45
2, 61893, Note_on_c, 0, 50, 0
2, 61937, Note_on_c, 0, 53, 57
2, 61937, Note_on_c, 0, 65, 0
2, 61943, Note_on_c, 0, 62, 63
2, 62038, Note_on_c, 0, 53, 0
2, 62043, Note_on_c, 0, 50, 60
2, 62046, Control_c, 0, 64, 18
2, 62047, Note_on_c, 0, 65, 65
2, 62049, Note_on_c, 0, 62, 0
2, 62102, Control_c, 0, 64, 13
2, 62136, Note_on_c, 0, 50, 0
2, 62148, Note_on_c, 0, 65, 0
2, 62157, Note_on_c, 0, 45, 57
2, 62158, Control_c, 0, 64, 0
2, 62158, Note_on_c, 0, 70, 67
2, 62264, Note_on_c, 0, 45, 0
2, 62264, Note_on_c, 0, 65, 66
2, 62265, Note_on_c, 0, 70, 0
2, 62284, Note_on_c, 0, 50, 62
2, 62361, Note_on_c, 0, 65, 0
2, 62373, Note_on_c, 0, 50, 0
2, 62378, Note_on_c, 0, 62, 67
2, 62379, Note_on_c, 0, 53, 63
2, 62456, Note_on_c, 0, 53, 0
2, 62474, Note_on_c, 0, 57, 63
2, 62477, Note_on_c, 0, 62, 0
2, 62490, Note_on_c, 0, 65, 67
2, 62517, Note_on_c, 0, 57, 0
2, 62547, Note_on_c, 0, 65, 0
2, 62574, Note_on_c, 0, 43, 70
2, 62585, Note_on_c, 0, 70, 68
2, 62662, Note_on_c, 0, 43, 0
2, 62691, Note_on_c, 0, 70, 0
2, 62692, Note_on_c, 0, 52, 62
2, 62698, Note_on_c, 0, 67, 64
2, 62769, Note_on_c, 0, 52, 0
2, 62780, Note_on_c, 0, 67, 0
2, 62797, Note_on_c, 0, 64, 63
2, 62801, Note_on_c, 0, 55, 67
2, 62853, Note_on_c, 0, 64, 0
2, 62909, Note_on_c, 0, 55, 0
2, 62916, Note_on_c, 0, 67, 59
2, 62923, Note_on_c, 0, 58, 66
2, 62999, Note_on_c, 0, 58, 0
2, 63003, Note_on_c, 0, 67, 0
2, 63027, Note_on_c, 0, 61, 68
2, 63035, Note_on_c, 0, 55, 61
2, 63073, Note_on_c, 0, 55, 0
2, 63104, Note_on_c, 0, 61, 0
2, 63148, Note_on_c, 0, 69, 64
2, 63247, Note_on_c, 0, 49, 71
2, 63255, Note_on_c, 0, 69, 0
2, 63273, Note_on_c, 0, 70, 62
2, 63281, Note_on_c, 0, 49, 0
2, 63362, Note_on_c, 0, 70, 0
2, 63387, Note_on_c, 0, 69, 61
2, 63468, Note_on_c, 0, 69, 0
2, 63490, Note_on_c, 0, 52, 59
2, 63505, Note_on_c, 0, 61, 58
2, 63522, Note_on_c, 0, 52, 0
2, 63570, Note_on_c, 0, 61, 0
2, 63626, Note_on_c, 0, 69, 53
2, 63724, Note_on_c, 0, 69, 0
2, 63731, Note_on_c, 0, 43, 63
2, 63743, Note_on_c, 0, 70, 57
2, 63862, Note_on_c, 0, 70, 0
2, 63876, Note_on_c, 0, 69, 55
2, 63981, Note_on_c, 0, 69, 0
2, 63983, Note_on_c, 0, 61, 61
2, 64056, Control_c, 0, 64, 16
2, 64074, Control_c, 0, 64, 21
2, 64083, Note_on_c, 0, 61, 0
2, 64089, Note_on_c, 0, 43, 0
2, 64097, Note_on_c, 0, 46, 62
2, 64188, Control_c, 0, 64, 13
2, 64207, Control_c, 0, 64, 8
2, 64221, Note_on_c, 0, 46, 0
2, 64221, Note_on_c, 0, 64, 66
2, 64226, Control_c, 0, 64, 0
2, 64229, Note_on_c, 0, 45, 63
2, 64328, Note_on_c, 0, 45, 0
2, 64334, Note_on_c, 0, 43, 66
2, 64446, Note_on_c, 0, 43, 0
2, 64448, Note_on_c, 0, 41, 70
2, 64523, Note_on_c, 0, 41, 0
2, 64561, Note_on_c, 0, 53, 65
2, 64578, Note_on_c, 0, 69, 68
2, 64620, Note_on_c, 0, 64, 0
2, 64669, Note_on_c, 0, 53, 0
2, 64677, Note_on_c, 0, 52, 64
2, 64684, Note_on_c, 0, 69, 0
2, 64687, Note_on_c, 0, 70, 71
2, 64758, Note_on_c, 0, 52, 0
2, 64770, Note_on_c, 0, 53, 64
2, 64813, Note_on_c, 0, 69, 71
2, 64844, Note_on_c, 0, 70, 0
2, 64872, Note_on_c, 0, 53, 0
2, 64915, Note_on_c, 0, 41, 73
2, 64917, Note_on_c, 0, 69, 0
2, 64920, Note_on_c, 0, 62, 76
2, 64983, Note_on_c, 0, 41, 0
2, 65032, Note_on_c, 0, 69, 72
2, 65033, Note_on_c, 0, 53, 63
2, 65039, Note_on_c, 0, 62, 0
2, 65128, Note_on_c, 0, 69, 0
2, 65130, Note_on_c, 0, 53, 0
2, 65135, Note_on_c, 0, 70, 71
2, 65142, Note_on_c, 0, 52, 66
2, 65223, Note_on_c, 0, 52, 0
2, 65230, Note_on_c, 0, 69, 70
2, 65231, Note_on_c, 0, 70, 0
2, 65244, Note_on_c, 0, 53, 71
2, 65329, Note_on_c, 0, 53, 0
2, 65359, Note_on_c, 0, 62, 76
2, 65361, Note_on_c, 0, 69, 0
2, 65362, Note_on_c, 0, 41, 77
2, 65396, Note_on_c, 0, 62, 0
2, 65438, Note_on_c, 0, 41, 0
2, 65473, Note_on_c, 0, 53, 69
2, 65578, Note_on_c, 0, 65, 81
2, 65580, Note_on_c, 0, 53, 0
2, 65586, Note_on_c, 0, 52, 69
2, 65668, Note_on_c, 0, 52, 0
2, 65689, Note_on_c, 0, 50, 78
2, 65819, Note_on_c, 0, 49, 83
2, 65839, Note_on_c, 0, 50, 0
2, 65869, Note_on_c, 0, 65, 0
2, 65890, Note_on_c, 0, 49, 0
2, 65947, Note_on_c, 0, 67, 80
2, 66057, Note_on_c, 0, 69, 80
2, 66059, Note_on_c, 0, 67, 0
2, 66060, Note_on_c, 0, 40, 75
2, 66094, Note_on_c, 0, 40, 0
2, 66094, Note_on_c, 0, 41, 37
2, 66095, Note_on_c, 0, 41, 0
2, 66168, Note_on_c, 0, 67, 79
2, 66189, Note_on_c, 0, 69, 0
2, 66279, Note_on_c, 0, 43, 83
2, 66287, Note_on_c, 0, 64, 78
2, 66295, Note_on_c, 0, 67, 0
2, 66356, Note_on_c, 0, 43, 0
2, 66394, Note_on_c, 0, 67, 75
2, 66404, Note_on_c, 0, 64, 0
2, 66511, Note_on_c, 0, 69, 78
2, 66514, Note_on_c, 0, 67, 0
2, 66520, Note_on_c, 0, 37, 85
2, 66620, Note_on_c, 0, 67, 76
2, 66665, Note_on_c, 0, 69, 0
2, 66733, Note_on_c, 0, 37, 0
2, 66746, Control_c, 0, 64, 15
2, 66751, Note_on_c, 0, 67, 0
2, 66754, Note_on_c, 0, 57, 81
2, 66765, Control_c, 0, 64, 23
2, 66786, Control_c, 0, 64, 27
2, 66822, Control_c, 0, 64, 31
2, 66825, Note_on_c, 0, 57, 0
2, 66854, Note_on_c, 0, 49, 77
2, 66879, Control_c, 0, 64, 27
2, 66917, Control_c, 0, 64, 19
2, 66936, Control_c, 0, 64, 12
2, 66955, Control_c, 0, 64, 0
2, 66959, Note_on_c, 0, 49, 0
2, 66971, Note_on_c, 0, 47, 74
2, 66997, Note_on_c, 0, 67, 88
2, 67096, Note_on_c, 0, 45, 76
2, 67103, Control_c, 0, 64, 15
2, 67103, Note_on_c, 0, 47, 0
2, 67123, Control_c, 0, 64, 24
2, 67143, Control_c, 0, 64, 31
2, 67161, Control_c, 0, 64, 37
2, 67178, Note_on_c, 0, 67, 0
2, 67180, Control_c, 0, 64, 41
2, 67200, Control_c, 0, 64, 44
2, 67211, Note_on_c, 0, 50, 81
2, 67227, Note_on_c, 0, 45, 0
2, 67275, Control_c, 0, 64, 41
2, 67313, Control_c, 0, 64, 32
2, 67319, Note_on_c, 0, 58, 82
2, 67333, Control_c, 0, 64, 23
2, 67350, Control_c, 0, 64, 11
2, 67369, Control_c, 0, 64, 0
2, 67375, Note_on_c, 0, 50, 0
2, 67426, Note_on_c, 0, 57, 80
2, 67431, Note_on_c, 0, 58, 0
2, 67435, Note_on_c, 0, 38, 78
2, 67486, Note_on_c, 0, 38, 0
2, 67541, Note_on_c, 0, 55, 76
2, 67542, Note_on_c, 0, 57, 0
2, 67645, Note_on_c, 0, 55, 0
2, 67666, Note_on_c, 0, 41, 80
2, 67666, Note_on_c, 0, 57, 81
2, 67717, Note_on_c, 0, 41, 0
2, 67775, Note_on_c, 0, 57, 0
2, 67787, Note_on_c, 0, 64, 71
2, 67888, Note_on_c, 0, 62, 79
2, 67905, Note_on_c, 0, 45, 77
2, 67922, Note_on_c, 0, 64, 0
2, 67937, Note_on_c, 0, 45, 0
2, 68010, Note_on_c, 0, 61, 73
2, 68014, Note_on_c, 0, 62, 0
2, 68122, Note_on_c, 0, 62, 81
2, 68124, Note_on_c, 0, 61, 0
2, 68134, Note_on_c, 0, 50, 69
2, 68150, Note_on_c, 0, 48, 57
2, 68176, Note_on_c, 0, 49, 71
2, 68176, Note_on_c, 0, 50, 0
2, 68183, Note_on_c, 0, 48, 0
2, 68238, Note_on_c, 0, 67, 73
2, 68255, Note_on_c, 0, 62, 0
2, 68258, Note_on_c, 0, 50, 76
2, 68266, Note_on_c, 0, 49, 0
2, 68343, Note_on_c, 0, 67, 0
2, 68345, Note_on_c, 0, 65, 68
2, 68448, Note_on_c, 0, 65, 0
2, 68452, Note_on_c, 0, 64, 71
2, 68541, Note_on_c, 0, 64, 0
2, 68557, Note_on_c, 0, 65, 69
2, 68677, Note_on_c, 0, 58, 72
2, 68687, Note_on_c, 0, 50, 0
2, 68688, Note_on_c, 0, 65, 0
2, 68692, Note_on_c, 0, 55, 62
2, 68758, Note_on_c, 0, 58, 0
2, 68789, Note_on_c, 0, 55, 0
2, 68790, Note_on_c, 0, 60, 66
2, 68796, Note_on_c, 0, 57, 63
2, 68854, Note_on_c, 0, 57, 0
2, 68888, Note_on_c, 0, 58, 69
2, 68894, Note_on_c, 0, 62, 67
2, 68896, Note_on_c, 0, 60, 0
2, 68936, Note_on_c, 0, 58, 0
2, 68988, Note_on_c, 0, 48, 70
2, 68995, Note_on_c, 0, 63, 70
2, 69003, Note_on_c, 0, 62, 0
2, 69079, Note_on_c, 0, 63, 0
2, 69081, Note_on_c, 0, 48, 0
2, 69105, Note_on_c, 0, 54, 68
2, 69113, Note_on_c, 0, 57, 62
2, 69193, Note_on_c, 0, 54, 0
2, 69193, Note_on_c, 0, 57, 0
2, 69212, Note_on_c, 0, 58, 63
2, 69219, Note_on_c, 0, 55, 59
2, 69290, Note_on_c, 0, 55, 0
2, 69305, Note_on_c, 0, 58, 0
2, 69325, Note_on_c, 0, 57, 64
2, 69328, Note_on_c, 0, 60, 62
2, 69375, Note_on_c, 0, 57, 0
2, 69421, Note_on_c, 0, 60, 0
2, 69422, Note_on_c, 0, 46, 69
2, 69436, Note_on_c, 0, 62, 63
2, 69523, Note_on_c, 0, 46, 0
2, 69529, Note_on_c, 0, 62, 0
2, 69543, Note_on_c, 0, 55, 55
2, 69544, Note_on_c, 0, 58, 62
2, 69625, Note_on_c, 0, 55, 0
2, 69645, Note_on_c, 0, 58, 0
2, 69647, Note_on_c, 0, 57, 63
2, 69675, Note_on_c, 0, 60, 58
2, 69754, Note_on_c, 0, 57, 0
2, 69761, Note_on_c, 0, 58, 63
2, 69762, Note_on_c, 0, 60, 0
2, 69785, Note_on_c, 0, 62, 63
2, 69812, Note_on_c, 0, 58, 0
2, 69871, Note_on_c, 0, 62, 0
2, 69881, Note_on_c, 0, 63, 67
2, 69882, Note_on_c, 0, 48, 60
2, 69956, Note_on_c, 0, 48, 0
2, 69976, Note_on_c, 0, 63, 0
2, 69983, Note_on_c, 0, 54, 61
2, 69985, Note_on_c, 0, 57, 63
2, 70069, Note_on_c, 0, 54, 0
2, 70072, Note_on_c, 0, 57, 0
2, 70081, Note_on_c, 0, 55, 61
2, 70098, Note_on_c, 0, 58, 56
2, 70162, Note_on_c, 0, 55, 0
2, 70195, Note_on_c, 0, 58, 0
2, 70204, Note_on_c, 0, 57, 61
2, 70215, Note_on_c, 0, 60, 58
2, 70270, Note_on_c, 0, 57, 0
2, 70287, Note_on_c, 0, 60, 0
2, 70298, Note_on_c, 0, 46, 61
2, 70316, Note_on_c, 0, 62, 56
2, 70399, Note_on_c, 0, 62, 0
2, 70406, Note_on_c, 0, 46, 0
2, 70409, Note_on_c, 0, 58, 60
2, 70414, Note_on_c, 0, 55, 62
2, 70458, Control_c, 0, 64, 18
2, 70476, Control_c, 0, 64, 27
2, 70487, Note_on_c, 0, 55, 0
2, 70495, Control_c, 0, 64, 35
2, 70515, Control_c, 0, 64, 40
2, 70519, Note_on_c, 0, 58, 0
2, 70528, Note_on_c, 0, 57, 56
2, 70531, Note_on_c, 0, 60, 63
2, 70533, Control_c, 0, 64, 43
2, 70618, Note_on_c, 0, 57, 0
2, 70623, Note_on_c, 0, 58, 49
2, 70628, Note_on_c, 0, 60, 0
2, 70640, Note_on_c, 0, 62, 67
2, 70659, Note_on_c, 0, 58, 0
2, 70718, Control_c, 0, 64, 38
2, 70734, Note_on_c, 0, 62, 0
2, 70743, Note_on_c, 0, 60, 68
2, 70745, Note_on_c, 0, 45, 66
2, 70757, Control_c, 0, 64, 32
2, 70793, Control_c, 0, 64, 25
2, 70831, Control_c, 0, 64, 21
2, 70848, Note_on_c, 0, 45, 0
2, 70851, Note_on_c, 0, 50, 59
2, 70854, Note_on_c, 0, 54, 63
2, 70862, Note_on_c, 0, 60, 0
2, 70889, Control_c, 0, 64, 16
2, 70927, Control_c, 0, 64, 10
2, 70955, Note_on_c, 0, 54, 0
2, 70960, Note_on_c, 0, 52, 62
2, 70965, Note_on_c, 0, 55, 62
2, 70968, Note_on_c, 0, 50, 0
2, 71021, Control_c, 0, 64, 0
2, 71046, Note_on_c, 0, 52, 0
2, 71079, Note_on_c, 0, 57, 70
2, 71081, Note_on_c, 0, 54, 65
2, 71101, Note_on_c, 0, 55, 0
2, 71127, Note_on_c, 0, 54, 0
2, 71190, Note_on_c, 0, 43, 62
2, 71208, Note_on_c, 0, 58, 67
2, 71240, Note_on_c, 0, 57, 0
2, 71325, Note_on_c, 0, 43, 0
2, 71338, Note_on_c, 0, 50, 64
2, 71428, Note_on_c, 0, 50, 0
2, 71448, Note_on_c, 0, 52, 65
2, 71570, Note_on_c, 0, 54, 64
2, 71630, Note_on_c, 0, 52, 0
2, 71684, Note_on_c, 0, 55, 71
2, 71700, Note_on_c, 0, 58, 0
2, 71720, Note_on_c, 0, 54, 0
2, 71760, Note_on_c, 0, 57, 71
2, 71879, Note_on_c, 0, 58, 62
2, 71903, Note_on_c, 0, 57, 0
2, 71996, Note_on_c, 0, 60, 78
2, 72028, Note_on_c, 0, 58, 0
2, 72035, Control_c, 0, 64, 25
2, 72055, Control_c, 0, 64, 36
2, 72063, Note_on_c, 0, 55, 0
2, 72113, Note_on_c, 0, 62, 77
2, 72114, Control_c, 0, 64, 20
2, 72132, Control_c, 0, 64, 11
2, 72137, Note_on_c, 0, 60, 0
2, 72188, Control_c, 0, 64, 25
2, 72208, Control_c, 0, 64, 36
2, 72211, Note_on_c, 0, 62, 0
2, 72214, Note_on_c, 0, 58, 66
2, 72225, Control_c, 0, 64, 45
2, 72244, Control_c, 0, 64, 53
2, 72262, Control_c, 0, 64, 56
2, 72283, Note_on_c, 0, 58, 0
2, 72301, Control_c, 0, 64, 51
2, 72319, Control_c, 0, 64, 41
2, 72323, Note_on_c, 0, 67, 78
2, 72339, Control_c, 0, 64, 30
2, 72432, Note_on_c, 0, 62, 76
2, 72434, Note_on_c, 0, 67, 0
2, 72453, Control_c, 0, 64, 34
2, 72562, Control_c, 0, 64, 30
2, 72569, Note_on_c, 0, 70, 77
2, 72571, Note_on_c, 0, 62, 0
2, 72602, Control_c, 0, 64, 25
2, 72637, Control_c, 0, 64, 18
2, 72657, Control_c, 0, 64, 14
2, 72676, Control_c, 0, 64, 10
2, 72688, Note_on_c, 0, 67, 72
2, 72693, Control_c, 0, 64, 0
2, 72721, Note_on_c, 0, 70, 0
2, 72799, Note_on_c, 0, 67, 0
2, 72810, Note_on_c, 0, 65, 67
2, 72905, Note_on_c, 0, 65, 0
2, 72909, Note_on_c, 0, 63, 70
2, 73030, Note_on_c, 0, 62, 62
2, 73037, Note_on_c, 0, 63, 0
2, 73128, Note_on_c, 0, 60, 62
2, 73161, Note_on_c, 0, 62, 0
2, 73228, Note_on_c, 0, 60, 0
2, 73230, Note_on_c, 0, 58, 60
2, 73330, Note_on_c, 0, 58, 0
2, 73350, Note_on_c, 0, 57, 58
2, 73455, Note_on_c, 0, 57, 0
2, 73469, Note_on_c, 0, 55, 61
2, 73547, Note_on_c, 0, 55, 0
2, 73591, Note_on_c, 0, 58, 57
2, 73668, Note_on_c, 0, 58, 0
2, 73695, Note_on_c, 0, 52, 54
2, 73765, Note_on_c, 0, 52, 0
2, 73798, Note_on_c, 0, 55, 60
2, 73892, Note_on_c, 0, 55, 0
2, 73910, Note_on_c, 0, 49, 57
2, 74019, Note_on_c, 0, 70, 66
2, 74137, Note_on_c, 0, 69, 69
2, 74165, Note_on_c, 0, 70, 0
2, 74239, Note_on_c, 0, 69, 0
2, 74241, Note_on_c, 0, 67, 69
2, 74347, Note_on_c, 0, 76, 73
2, 74404, Note_on_c, 0, 67, 0
2, 74473, Note_on_c, 0, 74, 74
2, 74509, Note_on_c, 0, 49, 0
2, 74525, Note_on_c, 0, 76, 0
2, 74580, Note_on_c, 0, 73, 71
2, 74595, Note_on_c, 0, 45, 66
2, 74621, Note_on_c, 0, 74, 0
2, 74658, Note_on_c, 0, 45, 0
2, 74702, Note_on_c, 0, 71, 65
2, 74728, Note_on_c, 0, 73, 0
2, 74813, Note_on_c, 0, 71, 0
2, 74814, Note_on_c, 0, 47, 66
2, 74814, Note_on_c, 0, 69, 69
2, 74859, Note_on_c, 0, 47, 0
2, 74922, Note_on_c, 0, 67, 69
2, 74929, Note_on_c, 0, 69, 0
2, 75034, Note_on_c, 0, 49, 64
2, 75039, Note_on_c, 0, 65, 65
2, 75051, Note_on_c, 0, 67, 0
2, 75084, Note_on_c, 0, 49, 0
2, 75138, Note_on_c, 0, 64, 67
2, 75144, Note_on_c, 0, 65, 0
2, 75209, Note_on_c, 0, 64, 0
2, 75248, Note_on_c, 0, 65, 80
2, 75258, Note_on_c, 0, 50, 65
2, 75291, Note_on_c, 0, 50, 0
2, 75394, Note_on_c, 0, 62, 61
2, 75404, Note_on_c, 0, 65, 0
2, 75480, Note_on_c, 0, 62, 0
2, 75491, Note_on_c, 0, 67, 77
2, 75494, Note_on_c, 0, 52, 61
2, 75529, Note_on_c, 0, 52, 0
2, 75618, Note_on_c, 0, 62, 64
2, 75626, Note_on_c, 0, 67, 0
2, 75706, Note_on_c, 0, 62, 0
2, 75710, Note_on_c, 0, 53, 51
2, 75715, Note_on_c, 0, 69, 79
2, 75743, Note_on_c, 0, 53, 0
2, 75831, Note_on_c, 0, 62, 57
2, 75835, Note_on_c, 0, 69, 0
2, 75906, Note_on_c, 0, 62, 0
2, 75951, Note_on_c, 0, 55, 58
2, 75951, Note_on_c, 0, 70, 72
2, 76048, Note_on_c, 0, 55, 0
2, 76078, Note_on_c, 0, 62, 60
2, 76085, Control_c, 0, 64, 9
2, 76104, Control_c, 0, 64, 20
2, 76123, Control_c, 0, 64, 29
2, 76130, Note_on_c, 0, 70, 0
2, 76143, Control_c, 0, 64, 38
2, 76161, Note_on_c, 0, 62, 0
2, 76162, Control_c, 0, 64, 46
2, 76181, Control_c, 0, 64, 50
2, 76200, Note_on_c, 0, 57, 64
2, 76327, Control_c, 0, 64, 48
2, 76345, Control_c, 0, 64, 46
2, 76357, Note_on_c, 0, 57, 0
2, 76364, Control_c, 0, 64, 43
2, 76398, Note_on_c, 0, 62, 56
2, 76404, Control_c, 0, 64, 36
2, 76423, Control_c, 0, 64, 32
2, 76449, Control_c, 0, 64, 25
2, 76465, Control_c, 0, 64, 21
2, 76485, Control_c, 0, 64, 16
2, 76494, Note_on_c, 0, 62, 0
2, 76505, Control_c, 0, 64, 8
2, 76506, Note_on_c, 0, 64, 64
2, 76521, Note_on_c, 0, 45, 60
2, 76523, Control_c, 0, 64, 0
2, 76587, Note_on_c, 0, 45, 0
2, 76617, Note_on_c, 0, 64, 0
2, 76630, Note_on_c, 0, 61, 63
2, 76721, Note_on_c, 0, 61, 0
2, 76757, Note_on_c, 0, 62, 61
2, 76762, Note_on_c, 0, 50, 60
2, 76822, Note_on_c, 0, 50, 0
2, 76853, Note_on_c, 0, 62, 0
2, 76877, Note_on_c, 0, 60, 58
2, 76967, Note_on_c, 0, 60, 0
2, 76974, Note_on_c, 0, 57, 57
2, 76981, Note_on_c, 0, 54, 60
2, 77025, Note_on_c, 0, 57, 0
2, 77045, Note_on_c, 0, 54, 0
2, 77096, Note_on_c, 0, 60, 56
2, 77183, Note_on_c, 0, 60, 0
2, 77194, Note_on_c, 0, 50, 57
2, 77198, Note_on_c, 0, 62, 62
2, 77242, Note_on_c, 0, 50, 0
2, 77294, Note_on_c, 0, 62, 0
2, 77317, Note_on_c, 0, 60, 58
2, 77423, Note_on_c, 0, 60, 0
2, 77433, Note_on_c, 0, 57, 55
2, 77439, Note_on_c, 0, 54, 57
2, 77476, Note_on_c, 0, 57, 0
2, 77499, Note_on_c, 0, 54, 0
2, 77544, Note_on_c, 0, 60, 54
2, 77633, Note_on_c, 0, 60, 0
2, 77649, Note_on_c, 0, 62, 63
2, 77653, Note_on_c, 0, 50, 54
2, 77698, Note_on_c, 0, 50, 0
2, 77735, Note_on_c, 0, 62, 0
2, 77758, Note_on_c, 0, 60, 58
2, 77859, Note_on_c, 0, 60, 0
2, 77878, Note_on_c, 0, 57, 57
2, 77879, Note_on_c, 0, 54, 58
2, 77929, Note_on_c, 0, 57, 0
2, 77938, Note_on_c, 0, 54, 0
2, 77984, Note_on_c, 0, 60, 51
2, 78085, Note_on_c, 0, 60, 0
2, 78096, Note_on_c, 0, 58, 61
2, 78100, Note_on_c, 0, 50, 56
2, 78144, Note_on_c, 0, 50, 0
2, 78178, Note_on_c, 0, 58, 0
2, 78207, Note_on_c, 0, 62, 52
2, 78319, Note_on_c, 0, 62, 0
2, 78349, Note_on_c, 0, 55, 50
2, 78351, Note_on_c, 0, 58, 55
2, 78394, Note_on_c, 0, 55, 0
2, 78436, Note_on_c, 0, 58, 0
2, 78459, Note_on_c, 0, 54, 51
2, 78537, Note_on_c, 0, 54, 0
2, 78558, Note_on_c, 0, 50, 56
2, 78575, Note_on_c, 0, 58, 52
2, 78606, Note_on_c, 0, 50, 0
2, 78633, Note_on_c, 0, 58, 0
2, 78677, Note_on_c, 0, 62, 51
2, 78779, Note_on_c, 0, 62, 0
2, 78793, Note_on_c, 0, 58, 54
2, 78807, Note_on_c, 0, 55, 46
2, 78852, Note_on_c, 0, 55, 0
2, 78881, Note_on_c, 0, 58, 0
2, 78908, Note_on_c, 0, 54, 47
2, 78997, Note_on_c, 0, 54, 0
2, 79028, Note_on_c, 0, 50, 53
2, 79031, Note_on_c, 0, 58, 47
2, 79072, Note_on_c, 0, 50, 0
2, 79089, Note_on_c, 0, 58, 0
2, 79126, Note_on_c, 0, 62, 51
2, 79244, Note_on_c, 0, 62, 0
2, 79254, Note_on_c, 0, 58, 49
2, 79283, Note_on_c, 0, 55, 41
2, 79340, Note_on_c, 0, 58, 0
2, 79345, Note_on_c, 0, 55, 0
2, 79370, Control_c, 0, 64, 12
2, 79383, Note_on_c, 0, 52, 46
2, 79387, Control_c, 0, 64, 20
2, 79406, Control_c, 0, 64, 25
2, 79445, Control_c, 0, 64, 29
2, 79481, Control_c, 0, 64, 25
2, 79481, Note_on_c, 0, 52, 0
2, 79497, Note_on_c, 0, 53, 58
2, 79498, Note_on_c, 0, 50, 54
2, 79501, Control_c, 0, 64, 19
2, 79521, Control_c, 0, 64, 14
2, 79541, Control_c, 0, 64, 8
2, 79559, Control_c, 0, 64, 0
2, 79561, Note_on_c, 0, 50, 0
2, 79583, Note_on_c, 0, 53, 0
2, 79613, Note_on_c, 0, 62, 53
2, 79634, Control_c, 0, 67, 8
2, 79653, Control_c, 0, 67, 12
2, 79671, Control_c, 0, 67, 18
2, 79690, Control_c, 0, 67, 27
2, 79709, Control_c, 0, 67, 38
2, 79729, Control_c, 0, 67, 50
2, 79730, Note_on_c, 0, 62, 0
2, 79732, Note_on_c, 0, 57, 57
2, 79734, Note_on_c, 0, 53, 58
2, 79748, Control_c, 0, 67, 57
2, 79783, Note_on_c, 0, 57, 0
2, 79801, Note_on_c, 0, 53, 0
2, 79851, Note_on_c, 0, 62, 53
2, 79922, Note_on_c, 0, 62, 0
2, 79958, Note_on_c, 0, 53, 59
2, 79963, Note_on_c, 0, 50, 55
2, 80018, Note_on_c, 0, 50, 0
2, 80018, Note_on_c, 0, 53, 0
2, 80080, Note_on_c, 0, 62, 55
2, 80182, Note_on_c, 0, 62, 0
2, 80217, Note_on_c, 0, 57, 49
2, 80222, Note_on_c, 0, 53, 50
2, 80254, Note_on_c, 0, 57, 0
2, 80269, Note_on_c, 0, 53, 0
2, 80334, Note_on_c, 0, 62, 55
2, 80406, Note_on_c, 0, 62, 0
2, 80443, Note_on_c, 0, 53, 52
2, 80444, Note_on_c, 0, 50, 49
2, 80495, Note_on_c, 0, 50, 0
2, 80498, Note_on_c, 0, 53, 0
2, 80562, Note_on_c, 0, 62, 54
2, 80625, Note_on_c, 0, 62, 0
2, 80667, Note_on_c, 0, 57, 51
2, 80687, Note_on_c, 0, 53, 48
2, 80709, Note_on_c, 0, 57, 0
2, 80740, Note_on_c, 0, 53, 0
2, 80775, Note_on_c, 0, 62, 58
2, 80820, Control_c, 0, 67, 61
2, 80839, Control_c, 0, 67, 65
2, 80857, Control_c, 0, 67, 70
2, 80869, Note_on_c, 0, 62, 0
2, 80876, Control_c, 0, 67, 75
2, 80886, Note_on_c, 0, 50, 51
2, 80896, Control_c, 0, 67, 79
2, 80906, Note_on_c, 0, 55, 54
2, 80922, Note_on_c, 0, 50, 0
2, 80932, Control_c, 0, 67, 84
2, 80976, Note_on_c, 0, 55, 0
2, 81006, Note_on_c, 0, 61, 54
2, 81124, Note_on_c, 0, 58, 66
2, 81132, Note_on_c, 0, 61, 0
2, 81152, Note_on_c, 0, 55, 55
2, 81166, Note_on_c, 0, 58, 0
2, 81219, Note_on_c, 0, 55, 0
2, 81260, Note_on_c, 0, 52, 48
2, 81332, Note_on_c, 0, 52, 0
2, 81360, Note_on_c, 0, 50, 60
2, 81362, Note_on_c, 0, 55, 51
2, 81399, Note_on_c, 0, 50, 0
2, 81450, Note_on_c, 0, 55, 0
2, 81486, Note_on_c, 0, 61, 51
2, 81578, Note_on_c, 0, 61, 0
2, 81596, Note_on_c, 0, 58, 61
2, 81609, Note_on_c, 0, 55, 51
2, 81635, Note_on_c, 0, 58, 0
2, 81669, Note_on_c, 0, 55, 0
2, 81730, Note_on_c, 0, 52, 41
2, 81818, Note_on_c, 0, 52, 0
2, 81849, Note_on_c, 0, 55, 48
2, 81864, Note_on_c, 0, 50, 37
2, 81909, Note_on_c, 0, 50, 0
2, 81936, Note_on_c, 0, 55, 0
2, 81991, Note_on_c, 0, 61, 51
2, 82126, Note_on_c, 0, 61, 0
2, 82140, Note_on_c, 0, 55, 49
2, 82146, Note_on_c, 0, 58, 51
2, 82182, Note_on_c, 0, 58, 0
2, 82237, Note_on_c, 0, 55, 0
2, 82316, Note_on_c, 0, 52, 43
2, 82412, Note_on_c, 0, 52, 0
2, 82584, Note_on_c, 0, 57, 45
2, 82609, Note_on_c, 0, 50, 33
2, 82618, Note_on_c, 0, 62, 47
2, 82625, Note_on_c, 0, 54, 31
2, 83323, Control_c, 0, 64, 12
2, 83342, Control_c, 0, 64, 20
2, 83362, Control_c, 0, 64, 28
2, 83380, Control_c, 0, 64, 37
2, 83400, Control_c, 0, 64, 45
2, 83419, Control_c, 0, 64, 52
2, 83437, Control_c, 0, 64, 56
2, 83455, Control_c, 0, 64, 60
2, 83474, Control_c, 0, 64, 64
2, 83494, Control_c, 0, 64, 67
2, 83511, Control_c, 0, 64, 70
2, 83531, Control_c, 0, 64, 73
2, 83549, Control_c, 0, 64, 76
2, 83570, Control_c, 0, 64, 78
2, 83777, Control_c, 0, 64, 76
2, 83833, Control_c, 0, 64, 74
2, 83871, Control_c, 0, 64, 72
2, 83927, Control_c, 0, 64, 69
2, 83929, Control_c, 0, 67, 80
2, 83947, Control_c, 0, 64, 67
2, 83965, Control_c, 0, 64, 66
2, 83998, Control_c, 0, 64, 65
2, 84018, Control_c, 0, 64, 64
2, 84038, Control_c, 0, 64, 63
2, 84039, Control_c, 0, 67, 75
2, 84056, Control_c, 0, 64, 61
2, 84075, Control_c, 0, 64, 59
2, 84095, Control_c, 0, 64, 56
2, 84114, Control_c, 0, 67, 70
2, 84133, Control_c, 0, 64, 53
2, 84150, Control_c, 0, 64, 51
2, 84151, Control_c, 0, 67, 65
2, 84172, Control_c, 0, 64, 48
2, 84189, Control_c, 0, 64, 46
2, 84189, Control_c, 0, 67, 60
2, 84207, Control_c, 0, 64, 43
2, 84226, Control_c, 0, 67, 55
2, 84244, Control_c, 0, 64, 36
2, 84264, Control_c, 0, 67, 49
2, 84282, Control_c, 0, 64, 30
2, 84302, Control_c, 0, 67, 43
2, 84321, Control_c, 0, 64, 24
2, 84340, Control_c, 0, 67, 38
2, 84359, Control_c, 0, 64, 19
2, 84380, Control_c, 0, 67, 32
2, 84415, Control_c, 0, 64, 14
2, 84417, Control_c, 0, 67, 24
2, 84436, Control_c, 0, 67, 19
2, 84454, Control_c, 0, 64, 8
2, 84455, Control_c, 0, 67, 12
2, 84490, Control_c, 0, 64, 0
2, 84491, Control_c, 0, 67, 0
2, 84497, Note_on_c, 0, 50, 0
2, 84551, Note_on_c, 0, 57, 0
2, 84591, Note_on_c, 0, 54, 0
2, 84610, Note_on_c, 0, 62, 0
2, 85562, Note_on_c, 0, 62, 45
2, 85815, Note_on_c, 0, 64, 56
2, 85828, Note_on_c, 0, 62, 0
2, 85990, Note_on_c, 0, 65, 56
2, 85999, Note_on_c, 0, 64, 0
2, 86139, Note_on_c, 0, 67, 61
2, 86148, Note_on_c, 0, 65, 0
2, 86297, Note_on_c, 0, 65, 65
2, 86337, Note_on_c, 0, 67, 0
2, 86431, Note_on_c, 0, 64, 64
2, 86435, Note_on_c, 0, 65, 0
2, 86591, Note_on_c, 0, 65, 64
2, 86631, Note_on_c, 0, 64, 0
2, 86739, Note_on_c, 0, 67, 68
2, 86755, Note_on_c, 0, 65, 0
2, 86894, Note_on_c, 0, 69, 72
2, 86925, Note_on_c, 0, 67, 0
2, 87036, Note_on_c, 0, 70, 67
2, 87065, Note_on_c, 0, 69, 0
2, 87183, Note_on_c, 0, 69, 72
2, 87224, Note_on_c, 0, 70, 0
2, 87327, Note_on_c, 0, 67, 66
2, 87344, Note_on_c, 0, 69, 0
2, 87489, Note_on_c, 0, 69, 75
2, 87553, Note_on_c, 0, 67, 0
2, 88048, Note_on_c, 0, 74, 74
2, 88225, Note_on_c, 0, 69, 0
2, 88585, Note_on_c, 0, 73, 65
2, 88730, Note_on_c, 0, 74, 0
2, 89153, Note_on_c, 0, 72, 65
2, 89250, Note_on_c, 0, 73, 0
2, 89683, Note_on_c, 0, 71, 60
2, 89806, Note_on_c, 0, 72, 0
2, 90236, Note_on_c, 0, 70, 57
2, 90339, Note_on_c, 0, 71, 0
2, 90788, Note_on_c, 0, 69, 56
2, 90808, Note_on_c, 0, 70, 0
2, 90889, Control_c, 0, 64, 12
2, 90910, Control_c, 0, 64, 23
2, 90928, Control_c, 0, 64, 34
2, 90946, Control_c, 0, 64, 45
2, 90964, Control_c, 0, 64, 54
2, 90983, Control_c, 0, 64, 60
2, 91002, Control_c, 0, 64, 65
2, 91020, Control_c, 0, 64, 69
2, 91039, Control_c, 0, 64, 73
2, 91058, Control_c, 0, 64, 77
2, 91077, Control_c, 0, 64, 79
2, 91209, Control_c, 0, 64, 77
2, 91248, Control_c, 0, 64, 75
2, 91285, Control_c, 0, 64, 71
2, 91305, Control_c, 0, 64, 68
2, 91321, Control_c, 0, 64, 65
2, 91324, Note_on_c, 0, 67, 55
2, 91342, Control_c, 0, 64, 61
2, 91355, Note_on_c, 0, 69, 0
2, 91360, Control_c, 0, 64, 57
2, 91379, Control_c, 0, 64, 53
2, 91400, Control_c, 0, 64, 49
2, 91418, Control_c, 0, 64, 45
2, 91436, Control_c, 0, 64, 42
2, 91475, Control_c, 0, 64, 37
2, 91514, Control_c, 0, 64, 30
2, 91531, Control_c, 0, 64, 25
2, 91552, Control_c, 0, 64, 16
2, 91569, Control_c, 0, 64, 0
2, 92361, Note_on_c, 0, 65, 47
2, 92419, Note_on_c, 0, 67, 0
2, 92920, Note_on_c, 0, 64, 41
2, 93026, Note_on_c, 0, 65, 0
2, 93486, Note_on_c, 0, 69, 41
2, 93511, Note_on_c, 0, 64, 0
2, 93616, Control_c, 0, 64, 19
2, 93636, Control_c, 0, 64, 30
2, 93654, Control_c, 0, 64, 42
2, 93674, Control_c, 0, 64, 53
2, 93693, Control_c, 0, 64, 59
2, 93712, Control_c, 0, 64, 62
2, 93731, Control_c, 0, 64, 65
2, 93750, Control_c, 0, 64, 67
2, 93835, Note_on_c, 0, 69, 0
2, 93920, Control_c, 0, 64, 66
2, 93939, Control_c, 0, 64, 65
2, 93958, Control_c, 0, 64, 64
2, 93976, Control_c, 0, 64, 62
2, 93994, Control_c, 0, 64, 61
2, 94004, Note_on_c, 0, 69, 56
2, 94006, Note_on_c, 0, 65, 37
2, 94032, Control_c, 0, 64, 58
2, 94070, Control_c, 0, 64, 55
2, 94089, Control_c, 0, 64, 53
2, 94126, Control_c, 0, 64, 50
2, 94150, Control_c, 0, 64, 48
2, 94170, Control_c, 0, 64, 46
2, 94180, Control_c, 0, 64, 43
2, 94180, Note_on_c, 0, 71, 63
2, 94199, Control_c, 0, 64, 41
2, 94205, Note_on_c, 0, 69, 0
2, 94237, Control_c, 0, 64, 37
2, 94295, Control_c, 0, 64, 32
2, 94323, Note_on_c, 0, 72, 68
2, 94351, Control_c, 0, 64, 27
2, 94368, Note_on_c, 0, 71, 0
2, 94400, Note_on_c, 0, 65, 0
2, 94406, Control_c, 0, 64, 23
2, 94446, Control_c, 0, 64, 19
2, 94462, Note_on_c, 0, 72, 0
2, 94467, Note_on_c, 0, 74, 66
2, 94476, Note_on_c, 0, 62, 46
2, 94482, Control_c, 0, 64, 14
2, 94521, Control_c, 0, 64, 8
2, 94574, Control_c, 0, 64, 0
2, 94650, Note_on_c, 0, 72, 69
2, 94707, Note_on_c, 0, 74, 0
2, 94799, Note_on_c, 0, 71, 64
2, 94817, Note_on_c, 0, 72, 0
2, 94919, Note_on_c, 0, 62, 0
2, 94942, Note_on_c, 0, 71, 0
2, 94944, Note_on_c, 0, 69, 53
2, 94953, Note_on_c, 0, 72, 67
2, 95099, Note_on_c, 0, 74, 70
2, 95122, Note_on_c, 0, 72, 0
2, 95216, Control_c, 0, 64, 26
2, 95235, Control_c, 0, 64, 41
2, 95249, Note_on_c, 0, 76, 72
2, 95255, Control_c, 0, 64, 53
2, 95260, Note_on_c, 0, 69, 0
2, 95272, Control_c, 0, 64, 59
2, 95288, Note_on_c, 0, 74, 0
2, 95292, Control_c, 0, 64, 61
2, 95310, Control_c, 0, 64, 62
2, 95366, Control_c, 0, 64, 61
2, 95385, Control_c, 0, 64, 59
2, 95395, Note_on_c, 0, 77, 73
2, 95406, Control_c, 0, 64, 57
2, 95420, Note_on_c, 0, 76, 0
2, 95443, Control_c, 0, 64, 53
2, 95462, Control_c, 0, 64, 51
2, 95482, Control_c, 0, 64, 48
2, 95513, Control_c, 0, 64, 44
2, 95534, Control_c, 0, 64, 39
2, 95545, Note_on_c, 0, 76, 76
2, 95552, Control_c, 0, 64, 35
2, 95588, Control_c, 0, 64, 30
2, 95599, Note_on_c, 0, 77, 0
2, 95627, Control_c, 0, 64, 26
2, 95683, Control_c, 0, 64, 21
2, 95690, Note_on_c, 0, 74, 74
2, 95713, Note_on_c, 0, 76, 0
2, 95742, Control_c, 0, 64, 16
2, 95797, Control_c, 0, 64, 12
2, 95834, Note_on_c, 0, 76, 82
2, 95867, Note_on_c, 0, 74, 0
2, 95873, Control_c, 0, 64, 8
2, 96005, Control_c, 0, 64, 0
2, 96077, Note_on_c, 0, 59, 70
2, 96344, Note_on_c, 0, 81, 80
2, 96356, Note_on_c, 0, 60, 61
2, 96396, Note_on_c, 0, 59, 0
2, 96489, Note_on_c, 0, 76, 0
2, 96603, Note_on_c, 0, 62, 64
2, 96626, Note_on_c, 0, 60, 0
2, 96846, Note_on_c, 0, 80, 76
2, 96848, Note_on_c, 0, 62, 0
2, 96858, Note_on_c, 0, 64, 57
2, 96942, Note_on_c, 0, 81, 0
2, 97088, Note_on_c, 0, 66, 63
2, 97092, Note_on_c, 0, 64, 0
2, 97312, Note_on_c, 0, 79, 72
2, 97330, Note_on_c, 0, 66, 0
2, 97339, Note_on_c, 0, 67, 55
2, 97431, Note_on_c, 0, 80, 0
2, 97586, Note_on_c, 0, 67, 0
2, 97603, Note_on_c, 0, 64, 54
2, 97822, Note_on_c, 0, 78, 69
2, 97828, Note_on_c, 0, 64, 0
2, 97850, Note_on_c, 0, 69, 51
2, 97893, Note_on_c, 0, 79, 0
2, 98079, Note_on_c, 0, 68, 50
2, 98087, Note_on_c, 0, 69, 0
2, 98302, Note_on_c, 0, 68, 0
2, 98303, Note_on_c, 0, 77, 65
2, 98309, Note_on_c, 0, 69, 46
2, 98413, Note_on_c, 0, 78, 0
2, 98583, Note_on_c, 0, 69, 0
2, 98583, Note_on_c, 0, 71, 45
2, 98808, Note_on_c, 0, 76, 59
2, 98827, Note_on_c, 0, 71, 0
2, 98833, Note_on_c, 0, 72, 40
2, 98851, Note_on_c, 0, 77, 0
2, 98961, Control_c, 0, 64, 18
2, 98979, Control_c, 0, 64, 31
2, 98999, Control_c, 0, 64, 42
2, 99019, Control_c, 0, 64, 52
2, 99037, Control_c, 0, 64, 59
2, 99045, Note_on_c, 0, 72, 0
2, 99057, Control_c, 0, 64, 62
2, 99060, Note_on_c, 0, 66, 51
2, 99077, Control_c, 0, 64, 64
2, 99095, Control_c, 0, 64, 65
2, 99112, Control_c, 0, 64, 66
2, 99206, Control_c, 0, 64, 65
2, 99226, Control_c, 0, 64, 64
2, 99243, Control_c, 0, 64, 63
2, 99252, Note_on_c, 0, 76, 0
2, 99259, Control_c, 0, 64, 61
2, 99261, Note_on_c, 0, 66, 0
2, 99281, Control_c, 0, 64, 59
2, 99290, Note_on_c, 0, 74, 69
2, 99299, Note_on_c, 0, 71, 50
2, 99300, Control_c, 0, 64, 57
2, 99319, Control_c, 0, 64, 55
2, 99370, Control_c, 0, 64, 53
2, 99409, Control_c, 0, 64, 50
2, 99425, Control_c, 0, 64, 47
2, 99445, Control_c, 0, 64, 45
2, 99465, Control_c, 0, 64, 43
2, 99502, Control_c, 0, 64, 39
2, 99541, Control_c, 0, 64, 33
2, 99557, Note_on_c, 0, 69, 62
2, 99559, Note_on_c, 0, 71, 0
2, 99579, Control_c, 0, 64, 28
2, 99616, Control_c, 0, 64, 24
2, 99654, Control_c, 0, 64, 17
2, 99691, Control_c, 0, 64, 10
2, 99729, Control_c, 0, 64, 0
2, 99808, Note_on_c, 0, 68, 56
2, 99814, Note_on_c, 0, 69, 0
2, 100019, Note_on_c, 0, 68, 0
2, 100048, Note_on_c, 0, 64, 54
2, 100292, Note_on_c, 0, 74, 0
2, 100309, Note_on_c, 0, 72, 65
2, 100312, Note_on_c, 0, 64, 0
2, 100316, Note_on_c, 0, 69, 51
2, 100827, Note_on_c, 0, 71, 47
2, 100909, Note_on_c, 0, 72, 0
2, 101346, Note_on_c, 0, 69, 0
2, 101349, Note_on_c, 0, 76, 47
2, 101363, Note_on_c, 0, 67, 28
2, 101443, Note_on_c, 0, 71, 0
2, 101573, Control_c, 0, 64, 13
2, 101590, Control_c, 0, 64, 26
2, 101610, Control_c, 0, 64, 38
2, 101629, Control_c, 0, 64, 50
2, 101648, Control_c, 0, 64, 58
2, 101667, Control_c, 0, 64, 62
2, 101688, Control_c, 0, 64, 66
2, 101705, Control_c, 0, 64, 69
2, 101742, Control_c, 0, 64, 72
2, 101754, Note_on_c, 0, 76, 0
2, 101836, Control_c, 0, 64, 70
2, 101840, Note_on_c, 0, 69, 60
2, 101894, Control_c, 0, 64, 66
2, 101915, Control_c, 0, 64, 64
2, 101932, Control_c, 0, 64, 62
2, 101951, Control_c, 0, 64, 61
2, 101988, Control_c, 0, 64, 60
2, 102006, Note_on_c, 0, 65, 51
2, 102009, Note_on_c, 0, 67, 0
2, 102027, Control_c, 0, 64, 58
2, 102046, Control_c, 0, 64, 56
2, 102084, Control_c, 0, 64, 53
2, 102139, Control_c, 0, 64, 51
2, 102158, Note_on_c, 0, 65, 0
2, 102159, Control_c, 0, 64, 48
2, 102173, Note_on_c, 0, 64, 53
2, 102178, Control_c, 0, 64, 46
2, 102197, Control_c, 0, 64, 44
2, 102229, Control_c, 0, 64, 42
2, 102268, Control_c, 0, 64, 36
2, 102307, Control_c, 0, 64, 30
2, 102326, Note_on_c, 0, 64, 0
2, 102340, Note_on_c, 0, 71, 65
2, 102342, Control_c, 0, 64, 25
2, 102365, Note_on_c, 0, 62, 48
2, 102440, Control_c, 0, 64, 20
2, 102500, Note_on_c, 0, 62, 0
2, 102514, Note_on_c, 0, 64, 52
2, 102525, Note_on_c, 0, 69, 0
2, 102550, Control_c, 0, 64, 16
2, 102665, Control_c, 0, 64, 12
2, 102667, Note_on_c, 0, 64, 0
2, 102680, Note_on_c, 0, 65, 50
2, 102701, Control_c, 0, 64, 8
2, 102759, Control_c, 0, 64, 0
2, 102802, Note_on_c, 0, 65, 0
2, 102820, Note_on_c, 0, 72, 64
2, 102828, Note_on_c, 0, 64, 49
2, 102911, Note_on_c, 0, 71, 0
2, 102974, Note_on_c, 0, 64, 0
2, 103000, Note_on_c, 0, 62, 49
2, 103129, Note_on_c, 0, 62, 0
2, 103161, Note_on_c, 0, 60, 43
2, 103294, Note_on_c, 0, 68, 54
2, 103304, Note_on_c, 0, 60, 0
2, 103336, Note_on_c, 0, 59, 43
2, 103360, Note_on_c, 0, 72, 0
2, 103489, Note_on_c, 0, 59, 0
2, 103493, Note_on_c, 0, 60, 45
2, 103592, Note_on_c, 0, 60, 0
2, 103635, Note_on_c, 0, 62, 39
2, 103766, Note_on_c, 0, 68, 0
2, 103779, Note_on_c, 0, 60, 39
2, 103786, Note_on_c, 0, 69, 49
2, 103805, Note_on_c, 0, 62, 0
2, 103952, Note_on_c, 0, 67, 53
2, 103980, Note_on_c, 0, 69, 0
2, 104001, Control_c, 0, 64, 16
2, 104020, Control_c, 0, 64, 22
2, 104040, Control_c, 0, 64, 27
2, 104078, Control_c, 0, 64, 32
2, 104095, Note_on_c, 0, 67, 0
2, 104097, Note_on_c, 0, 65, 56
2, 104168, Control_c, 0, 64, 28
2, 104187, Control_c, 0, 64, 23
2, 104207, Control_c, 0, 64, 17
2, 104224, Control_c, 0, 64, 10
2, 104226, Note_on_c, 0, 65, 0
2, 104245, Control_c, 0, 64, 0
2, 104254, Note_on_c, 0, 60, 0
2, 104261, Note_on_c, 0, 64, 56
2, 104263, Note_on_c, 0, 61, 53
2, 104397, Control_c, 0, 64, 11
2, 104403, Note_on_c, 0, 64, 0
2, 104411, Note_on_c, 0, 65, 53
2, 104415, Control_c, 0, 64, 17
2, 104435, Control_c, 0, 64, 23
2, 104454, Control_c, 0, 64, 29
2, 104471, Control_c, 0, 64, 35
2, 104491, Control_c, 0, 64, 42
2, 104509, Control_c, 0, 64, 48
2, 104530, Control_c, 0, 64, 53
2, 104548, Control_c, 0, 64, 55
2, 104557, Note_on_c, 0, 65, 0
2, 104567, Control_c, 0, 64, 57
2, 104572, Note_on_c, 0, 67, 55
2, 104643, Control_c, 0, 64, 55
2, 104645, Note_on_c, 0, 61, 0
2, 104660, Control_c, 0, 64, 50
2, 104681, Control_c, 0, 64, 42
2, 104699, Control_c, 0, 64, 33
2, 104718, Control_c, 0, 64, 29
2, 104722, Note_on_c, 0, 62, 50
2, 104729, Note_on_c, 0, 65, 55
2, 104731, Note_on_c, 0, 67, 0
2, 104775, Control_c, 0, 64, 34
2, 104795, Control_c, 0, 64, 41
2, 104813, Control_c, 0, 64, 49
2, 104831, Control_c, 0, 64, 55
2, 104853, Control_c, 0, 64, 59
2, 104868, Control_c, 0, 64, 61
2, 104886, Control_c, 0, 64, 63
2, 104892, Note_on_c, 0, 64, 59
2, 104902, Note_on_c, 0, 62, 0
2, 104902, Note_on_c, 0, 65, 0
2, 104906, Control_c, 0, 64, 64
2, 104926, Control_c, 0, 64, 66
2, 104944, Control_c, 0, 64, 67
2, 104962, Control_c, 0, 64, 68
2, 105026, Note_on_c, 0, 64, 0
2, 105041, Note_on_c, 0, 62, 58
2, 105130, Control_c, 0, 64, 66
2, 105148, Control_c, 0, 64, 64
2, 105169, Control_c, 0, 64, 58
2, 105186, Control_c, 0, 64, 50
2, 105188, Note_on_c, 0, 62, 0
2, 105200, Note_on_c, 0, 61, 61
2, 105204, Control_c, 0, 64, 41
2, 105206, Note_on_c, 0, 55, 58
2, 105224, Control_c, 0, 64, 35
2, 105338, Control_c, 0, 64, 45
2, 105357, Control_c, 0, 64, 52
2, 105369, Note_on_c, 0, 62, 59
2, 105375, Control_c, 0, 64, 56
2, 105391, Note_on_c, 0, 61, 0
2, 105395, Control_c, 0, 64, 59
2, 105414, Control_c, 0, 64, 61
2, 105430, Control_c, 0, 64, 62
2, 105451, Control_c, 0, 64, 63
2, 105469, Control_c, 0, 64, 64
2, 105480, Note_on_c, 0, 55, 0
2, 105488, Control_c, 0, 64, 65
2, 105519, Note_on_c, 0, 64, 65
2, 105524, Note_on_c, 0, 62, 0
2, 105620, Control_c, 0, 64, 64
2, 105641, Control_c, 0, 64, 63
2, 105659, Control_c, 0, 64, 62
2, 105678, Control_c, 0, 64, 61
2, 105693, Note_on_c, 0, 62, 60
2, 105696, Control_c, 0, 64, 60
2, 105710, Note_on_c, 0, 50, 48
2, 105713, Note_on_c, 0, 53, 48
2, 105716, Control_c, 0, 64, 57
2, 105720, Note_on_c, 0, 52, 56
2, 105734, Control_c, 0, 64, 55
2, 105753, Control_c, 0, 64, 53
2, 105774, Control_c, 0, 64, 51
2, 105786, Note_on_c, 0, 64, 0
2, 105790, Control_c, 0, 64, 48
2, 105812, Control_c, 0, 64, 46
2, 105817, Note_on_c, 0, 52, 0
2, 105828, Control_c, 0, 64, 44
2, 105865, Control_c, 0, 64, 42
2, 105875, Note_on_c, 0, 52, 62
2, 105900, Note_on_c, 0, 53, 0
2, 105906, Note_on_c, 0, 50, 0
2, 105923, Control_c, 0, 64, 40
2, 105992, Control_c, 0, 64, 36
2, 106005, Note_on_c, 0, 53, 68
2, 106027, Note_on_c, 0, 52, 0
2, 106050, Control_c, 0, 64, 32
2, 106141, Control_c, 0, 64, 27
2, 106167, Note_on_c, 0, 61, 64
2, 106175, Note_on_c, 0, 55, 67
2, 106180, Note_on_c, 0, 58, 49
2, 106191, Note_on_c, 0, 53, 0
2, 106232, Note_on_c, 0, 62, 0
2, 106328, Note_on_c, 0, 53, 73
2, 106370, Note_on_c, 0, 55, 0
2, 106384, Control_c, 0, 64, 31
2, 106423, Control_c, 0, 64, 37
2, 106442, Control_c, 0, 64, 41
2, 106461, Control_c, 0, 64, 43
2, 106488, Note_on_c, 0, 52, 71
2, 106499, Control_c, 0, 64, 45
2, 106510, Note_on_c, 0, 53, 0
2, 106586, Note_on_c, 0, 58, 0
2, 106613, Control_c, 0, 64, 43
2, 106632, Control_c, 0, 64, 38
2, 106637, Note_on_c, 0, 61, 0
2, 106646, Note_on_c, 0, 62, 70
2, 106651, Control_c, 0, 64, 32
2, 106653, Note_on_c, 0, 53, 73
2, 106667, Note_on_c, 0, 57, 57
2, 106668, Control_c, 0, 64, 26
2, 106688, Control_c, 0, 64, 20
2, 106707, Control_c, 0, 64, 15
2, 106713, Note_on_c, 0, 52, 0
2, 106808, Note_on_c, 0, 57, 0
2, 106819, Control_c, 0, 64, 21
2, 106822, Note_on_c, 0, 55, 75
2, 106845, Control_c, 0, 64, 30
2, 106864, Control_c, 0, 64, 39
2, 106868, Note_on_c, 0, 53, 0
2, 106882, Control_c, 0, 64, 49
2, 106900, Control_c, 0, 64, 56
2, 106920, Control_c, 0, 64, 59
2, 106939, Control_c, 0, 64, 61
2, 106961, Note_on_c, 0, 62, 0
2, 106979, Note_on_c, 0, 57, 75
2, 107037, Note_on_c, 0, 55, 0
2, 107048, Control_c, 0, 64, 58
2, 107067, Control_c, 0, 64, 56
2, 107087, Control_c, 0, 64, 53
2, 107105, Control_c, 0, 64, 51
2, 107122, Control_c, 0, 64, 49
2, 107129, Note_on_c, 0, 58, 68
2, 107130, Note_on_c, 0, 67, 73
2, 107142, Control_c, 0, 64, 47
2, 107144, Note_on_c, 0, 62, 59
2, 107162, Control_c, 0, 64, 44
2, 107170, Note_on_c, 0, 57, 0
2, 107182, Control_c, 0, 64, 41
2, 107219, Control_c, 0, 64, 35
2, 107257, Control_c, 0, 64, 30
2, 107291, Note_on_c, 0, 57, 78
2, 107294, Control_c, 0, 64, 26
2, 107331, Note_on_c, 0, 58, 0
2, 107350, Control_c, 0, 64, 22
2, 107445, Control_c, 0, 64, 18
2, 107459, Note_on_c, 0, 55, 74
2, 107488, Note_on_c, 0, 57, 0
2, 107503, Control_c, 0, 64, 14
2, 107560, Control_c, 0, 64, 9
2, 107607, Note_on_c, 0, 62, 0
2, 107614, Control_c, 0, 64, 0
2, 107618, Note_on_c, 0, 61, 58
2, 107641, Note_on_c, 0, 57, 74
2, 107744, Note_on_c, 0, 55, 0
2, 107887, Note_on_c, 0, 61, 0
2, 107895, Note_on_c, 0, 64, 72
2, 107999, Note_on_c, 0, 67, 0
2, 108172, Note_on_c, 0, 62, 80
2, 108184, Note_on_c, 0, 65, 70
2, 108233, Note_on_c, 0, 64, 0
2, 108371, Note_on_c, 0, 57, 0
2, 108429, Note_on_c, 0, 67, 73
2, 108464, Control_c, 0, 64, 22
2, 108464, Note_on_c, 0, 65, 0
2, 108481, Control_c, 0, 64, 33
2, 108500, Control_c, 0, 64, 41
2, 108518, Control_c, 0, 64, 46
2, 108593, Control_c, 0, 64, 44
2, 108612, Control_c, 0, 64, 42
2, 108632, Control_c, 0, 64, 40
2, 108651, Note_on_c, 0, 67, 0
2, 108670, Control_c, 0, 64, 34
2, 108672, Note_on_c, 0, 61, 71
2, 108676, Note_on_c, 0, 69, 74
2, 108707, Control_c, 0, 64, 29
2, 108709, Note_on_c, 0, 64, 46
2, 108764, Control_c, 0, 64, 24
2, 108796, Note_on_c, 0, 62, 0
2, 108799, Control_c, 0, 64, 19
2, 108859, Control_c, 0, 64, 14
2, 108916, Control_c, 0, 64, 10
2, 108926, Note_on_c, 0, 71, 75
2, 108965, Note_on_c, 0, 69, 0
2, 109005, Control_c, 0, 64, 0
2, 109195, Note_on_c, 0, 60, 74
2, 109203, Note_on_c, 0, 72, 68
2, 109242, Note_on_c, 0, 71, 0
2, 109293, Note_on_c, 0, 61, 0
2, 109443, Note_on_c, 0, 69, 65
2, 109508, Note_on_c, 0, 64, 0
2, 109534, Control_c, 0, 64, 15
2, 109553, Control_c, 0, 64, 26
2, 109571, Control_c, 0, 64, 37
2, 109592, Control_c, 0, 64, 48
2, 109609, Control_c, 0, 64, 55
2, 109630, Control_c, 0, 64, 57
2, 109641, Note_on_c, 0, 69, 0
2, 109689, Note_on_c, 0, 59, 71
2, 109710, Note_on_c, 0, 74, 73
2, 109730, Note_on_c, 0, 62, 45
2, 109740, Note_on_c, 0, 60, 0
2, 109746, Note_on_c, 0, 72, 0
2, 109759, Control_c, 0, 64, 55
2, 109798, Control_c, 0, 64, 51
2, 109819, Control_c, 0, 64, 49
2, 109836, Control_c, 0, 64, 47
2, 109856, Control_c, 0, 64, 45
2, 109875, Control_c, 0, 64, 42
2, 109894, Control_c, 0, 64, 40
2, 109947, Control_c, 0, 64, 36
2, 109979, Note_on_c, 0, 73, 74
2, 110022, Control_c, 0, 64, 31
2, 110030, Note_on_c, 0, 74, 0
2, 110079, Control_c, 0, 64, 26
2, 110192, Control_c, 0, 64, 22
2, 110209, Note_on_c, 0, 58, 73
2, 110237, Note_on_c, 0, 74, 73
2, 110247, Note_on_c, 0, 59, 0
2, 110286, Control_c, 0, 64, 18
2, 110309, Note_on_c, 0, 73, 0
2, 110383, Control_c, 0, 64, 14
2, 110486, Note_on_c, 0, 76, 76
2, 110541, Note_on_c, 0, 74, 0
2, 110704, Note_on_c, 0, 57, 73
2, 110724, Note_on_c, 0, 77, 70
2, 110781, Note_on_c, 0, 76, 0
2, 110816, Control_c, 0, 64, 10
2, 110825, Note_on_c, 0, 58, 0
2, 110985, Note_on_c, 0, 71, 73
2, 111046, Note_on_c, 0, 62, 0
2, 111241, Note_on_c, 0, 55, 68
2, 111259, Note_on_c, 0, 76, 68
2, 111320, Control_c, 0, 64, 0
2, 111322, Note_on_c, 0, 71, 0
2, 111324, Note_on_c, 0, 57, 0
2, 111407, Note_on_c, 0, 77, 0
2, 111522, Note_on_c, 0, 74, 65
2, 111612, Note_on_c, 0, 76, 0
2, 111768, Note_on_c, 0, 73, 65
2, 111845, Note_on_c, 0, 74, 0
2, 111939, Control_c, 0, 64, 19
2, 111956, Control_c, 0, 64, 30
2, 111976, Control_c, 0, 64, 40
2, 111994, Control_c, 0, 64, 50
2, 112015, Control_c, 0, 64, 57
2, 112031, Note_on_c, 0, 69, 60
2, 112034, Control_c, 0, 64, 60
2, 112052, Control_c, 0, 64, 63
2, 112070, Control_c, 0, 64, 66
2, 112073, Note_on_c, 0, 73, 0
2, 112091, Control_c, 0, 64, 68
2, 112109, Control_c, 0, 64, 70
2, 112169, Note_on_c, 0, 69, 0
2, 112241, Control_c, 0, 64, 68
2, 112260, Control_c, 0, 64, 66
2, 112268, Note_on_c, 0, 53, 50
2, 112269, Note_on_c, 0, 74, 63
2, 112277, Control_c, 0, 64, 64
2, 112285, Note_on_c, 0, 70, 51
2, 112298, Control_c, 0, 64, 61
2, 112316, Control_c, 0, 64, 60
2, 112335, Control_c, 0, 64, 57
2, 112354, Control_c, 0, 64, 55
2, 112373, Control_c, 0, 64, 52
2, 112391, Control_c, 0, 64, 49
2, 112410, Control_c, 0, 64, 47
2, 112416, Note_on_c, 0, 55, 0
2, 112449, Control_c, 0, 64, 44
2, 112468, Control_c, 0, 64, 42
2, 112487, Control_c, 0, 64, 40
2, 112524, Control_c, 0, 64, 35
2, 112525, Note_on_c, 0, 69, 53
2, 112558, Note_on_c, 0, 70, 0
2, 112581, Control_c, 0, 64, 30
2, 112655, Control_c, 0, 64, 26
2, 112758, Note_on_c, 0, 69, 0
2, 112787, Note_on_c, 0, 67, 51
2, 112800, Note_on_c, 0, 52, 49
2, 112823, Note_on_c, 0, 53, 0
2, 112841, Control_c, 0, 64, 22
2, 113041, Note_on_c, 0, 70, 51
2, 113102, Note_on_c, 0, 67, 0
2, 113200, Control_c, 0, 64, 18
2, 113271, Note_on_c, 0, 72, 54
2, 113272, Note_on_c, 0, 57, 48
2, 113284, Note_on_c, 0, 69, 46
2, 113294, Note_on_c, 0, 52, 0
2, 113307, Note_on_c, 0, 70, 0
2, 113316, Note_on_c, 0, 74, 0
2, 113367, Control_c, 0, 64, 26
2, 113385, Control_c, 0, 64, 36
2, 113405, Control_c, 0, 64, 45
2, 113424, Control_c, 0, 64, 52
2, 113444, Control_c, 0, 64, 57
2, 113462, Control_c, 0, 64, 60
2, 113482, Control_c, 0, 64, 62
2, 113495, Note_on_c, 0, 69, 0
2, 113501, Control_c, 0, 64, 63
2, 113519, Control_c, 0, 64, 64
2, 113519, Note_on_c, 0, 67, 46
2, 113545, Note_on_c, 0, 57, 0
2, 113653, Control_c, 0, 64, 63
2, 113669, Control_c, 0, 64, 61
2, 113689, Control_c, 0, 64, 58
2, 113708, Control_c, 0, 64, 54
2, 113728, Control_c, 0, 64, 47
2, 113762, Control_c, 0, 64, 39
2, 113774, Note_on_c, 0, 67, 0
2, 113780, Control_c, 0, 64, 35
2, 113783, Note_on_c, 0, 50, 43
2, 113792, Note_on_c, 0, 66, 45
2, 113855, Control_c, 0, 64, 45
2, 113876, Control_c, 0, 64, 51
2, 113893, Control_c, 0, 64, 55
2, 113913, Control_c, 0, 64, 58
2, 113933, Control_c, 0, 64, 60
2, 113953, Note_on_c, 0, 50, 0
2, 114019, Note_on_c, 0, 62, 61
2, 114063, Control_c, 0, 64, 57
2, 114101, Control_c, 0, 64, 55
2, 114139, Control_c, 0, 64, 53
2, 114178, Control_c, 0, 64, 51
2, 114217, Control_c, 0, 64, 48
2, 114253, Control_c, 0, 64, 45
2, 114268, Note_on_c, 0, 70, 64
2, 114291, Note_on_c, 0, 63, 58
2, 114292, Control_c, 0, 64, 42
2, 114313, Note_on_c, 0, 67, 47
2, 114313, Note_on_c, 0, 72, 0
2, 114331, Note_on_c, 0, 66, 0
2, 114333, Note_on_c, 0, 62, 0
2, 114347, Control_c, 0, 64, 38
2, 114403, Control_c, 0, 64, 33
2, 114460, Control_c, 0, 64, 29
2, 114518, Control_c, 0, 64, 25
2, 114522, Note_on_c, 0, 62, 59
2, 114562, Note_on_c, 0, 63, 0
2, 114573, Control_c, 0, 64, 21
2, 114667, Control_c, 0, 64, 17
2, 114770, Note_on_c, 0, 69, 57
2, 114778, Note_on_c, 0, 62, 0
2, 114784, Note_on_c, 0, 60, 47
2, 114852, Note_on_c, 0, 70, 0
2, 115002, Note_on_c, 0, 60, 0
2, 115010, Note_on_c, 0, 63, 49
2, 115212, Note_on_c, 0, 67, 0
2, 115242, Note_on_c, 0, 63, 0
2, 115258, Note_on_c, 0, 62, 33
2, 115286, Note_on_c, 0, 65, 29
2, 115365, Control_c, 0, 64, 26
2, 115383, Control_c, 0, 64, 34
2, 115403, Control_c, 0, 64, 44
2, 115420, Control_c, 0, 64, 53
2, 115439, Control_c, 0, 64, 59
2, 115458, Control_c, 0, 64, 62
2, 115478, Control_c, 0, 64, 65
2, 115494, Control_c, 0, 64, 66
2, 115499, Note_on_c, 0, 60, 47
2, 115509, Note_on_c, 0, 62, 0
2, 115513, Control_c, 0, 64, 67
2, 115593, Note_on_c, 0, 65, 0
2, 115609, Note_on_c, 0, 69, 0
2, 115700, Control_c, 0, 64, 66
2, 115720, Control_c, 0, 64, 65
2, 115738, Control_c, 0, 64, 64
2, 115753, Note_on_c, 0, 60, 0
2, 115756, Control_c, 0, 64, 63
2, 115765, Note_on_c, 0, 62, 48
2, 115770, Note_on_c, 0, 59, 46
2, 115775, Control_c, 0, 64, 61
2, 115794, Control_c, 0, 64, 60
2, 115813, Control_c, 0, 64, 58
2, 115832, Control_c, 0, 64, 56
2, 115871, Control_c, 0, 64, 53
2, 115907, Control_c, 0, 64, 50
2, 115926, Control_c, 0, 64, 48
2, 115965, Control_c, 0, 64, 45
2, 115992, Note_on_c, 0, 59, 0
2, 116001, Control_c, 0, 64, 43
2, 116006, Note_on_c, 0, 79, 73
2, 116010, Note_on_c, 0, 55, 46
2, 116040, Control_c, 0, 64, 40
2, 116153, Control_c, 0, 64, 36
2, 116226, Note_on_c, 0, 62, 0
2, 116267, Note_on_c, 0, 81, 72
2, 116279, Note_on_c, 0, 60, 47
2, 116279, Note_on_c, 0, 64, 55
2, 116286, Control_c, 0, 64, 31
2, 116358, Note_on_c, 0, 79, 0
2, 116360, Note_on_c, 0, 55, 0
2, 116512, Control_c, 0, 64, 27
2, 116518, Note_on_c, 0, 79, 73
2, 116568, Note_on_c, 0, 81, 0
2, 116698, Control_c, 0, 64, 23
2, 116765, Note_on_c, 0, 62, 51
2, 116771, Note_on_c, 0, 77, 69
2, 116812, Note_on_c, 0, 64, 0
2, 116815, Note_on_c, 0, 79, 0
2, 116998, Note_on_c, 0, 81, 69
2, 117018, Control_c, 0, 64, 19
2, 117073, Note_on_c, 0, 77, 0
2, 117246, Note_on_c, 0, 79, 67
2, 117253, Note_on_c, 0, 58, 41
2, 117267, Note_on_c, 0, 60, 0
2, 117284, Control_c, 0, 64, 15
2, 117292, Note_on_c, 0, 81, 0
2, 117491, Note_on_c, 0, 77, 59
2, 117528, Note_on_c, 0, 79, 0
2, 117658, Control_c, 0, 64, 11
2, 117759, Note_on_c, 0, 76, 57
2, 117767, Note_on_c, 0, 60, 40
2, 117836, Note_on_c, 0, 77, 0
2, 117861, Note_on_c, 0, 62, 0
2, 117865, Control_c, 0, 64, 19
2, 117866, Note_on_c, 0, 58, 0
2, 117886, Control_c, 0, 64, 27
2, 117901, Control_c, 0, 64, 36
2, 117921, Control_c, 0, 64, 46
2, 117940, Control_c, 0, 64, 55
2, 117959, Control_c, 0, 64, 61
2, 117978, Control_c, 0, 64, 64
2, 117998, Control_c, 0, 64, 66
2, 118007, Note_on_c, 0, 72, 67
2, 118017, Control_c, 0, 64, 69
2, 118020, Note_on_c, 0, 76, 0
2, 118036, Control_c, 0, 64, 72
2, 118055, Control_c, 0, 64, 74
2, 118073, Control_c, 0, 64, 76
2, 118206, Control_c, 0, 64, 73
2, 118225, Control_c, 0, 64, 70
2, 118243, Control_c, 0, 64, 66
2, 118251, Note_on_c, 0, 57, 52
2, 118254, Note_on_c, 0, 74, 69
2, 118255, Note_on_c, 0, 77, 62
2, 118261, Control_c, 0, 64, 61
2, 118282, Control_c, 0, 64, 57
2, 118296, Note_on_c, 0, 72, 0
2, 118298, Control_c, 0, 64, 53
2, 118319, Control_c, 0, 64, 51
2, 118357, Control_c, 0, 64, 48
2, 118393, Control_c, 0, 64, 44
2, 118411, Control_c, 0, 64, 42
2, 118431, Control_c, 0, 64, 40
2, 118489, Control_c, 0, 64, 35
2, 118514, Note_on_c, 0, 72, 70
2, 118522, Note_on_c, 0, 74, 0
2, 118636, Control_c, 0, 64, 30
2, 118764, Note_on_c, 0, 70, 63
2, 118767, Control_c, 0, 64, 26
2, 118773, Note_on_c, 0, 55, 43
2, 118783, Note_on_c, 0, 72, 0
2, 118854, Note_on_c, 0, 57, 0
2, 118919, Control_c, 0, 64, 22
2, 118950, Note_on_c, 0, 60, 0
2, 118984, Note_on_c, 0, 74, 63
2, 119018, Note_on_c, 0, 77, 0
2, 119051, Note_on_c, 0, 70, 0
2, 119237, Note_on_c, 0, 74, 0
2, 119243, Note_on_c, 0, 60, 44
2, 119249, Note_on_c, 0, 72, 55
2, 119257, Control_c, 0, 64, 18
2, 119258, Note_on_c, 0, 76, 52
2, 119353, Control_c, 0, 64, 14
2, 119363, Note_on_c, 0, 55, 0
2, 119465, Control_c, 0, 64, 20
2, 119485, Control_c, 0, 64, 32
2, 119486, Note_on_c, 0, 70, 62
2, 119520, Control_c, 0, 64, 44
2, 119538, Control_c, 0, 64, 54
2, 119559, Control_c, 0, 64, 59
2, 119567, Note_on_c, 0, 72, 0
2, 119576, Control_c, 0, 64, 61
2, 119594, Control_c, 0, 64, 62
2, 119634, Control_c, 0, 64, 63
2, 119670, Control_c, 0, 64, 61
2, 119690, Control_c, 0, 64, 56
2, 119710, Control_c, 0, 64, 49
2, 119728, Control_c, 0, 64, 39
2, 119729, Note_on_c, 0, 69, 70
2, 119735, Note_on_c, 0, 53, 52
2, 119775, Note_on_c, 0, 70, 0
2, 119804, Control_c, 0, 64, 43
2, 119820, Control_c, 0, 64, 48
2, 119823, Note_on_c, 0, 76, 0
2, 119840, Control_c, 0, 64, 53
2, 119851, Note_on_c, 0, 60, 0
2, 119858, Control_c, 0, 64, 57
2, 119879, Control_c, 0, 64, 59
2, 119892, Note_on_c, 0, 55, 60
2, 119897, Note_on_c, 0, 53, 0
2, 119931, Control_c, 0, 64, 55
2, 119951, Control_c, 0, 64, 49
2, 119966, Note_on_c, 0, 77, 69
2, 119968, Control_c, 0, 64, 45
2, 120010, Control_c, 0, 64, 50
2, 120027, Control_c, 0, 64, 54
2, 120038, Note_on_c, 0, 55, 0
2, 120044, Control_c, 0, 64, 57
2, 120050, Note_on_c, 0, 57, 64
2, 120081, Note_on_c, 0, 69, 0
2, 120122, Control_c, 0, 64, 52
2, 120140, Control_c, 0, 64, 47
2, 120159, Control_c, 0, 64, 42
2, 120178, Control_c, 0, 64, 40
2, 120190, Note_on_c, 0, 67, 78
2, 120199, Note_on_c, 0, 58, 61
2, 120203, Note_on_c, 0, 57, 0
2, 120235, Control_c, 0, 64, 42
2, 120281, Note_on_c, 0, 77, 0
2, 120309, Note_on_c, 0, 58, 0
2, 120339, Note_on_c, 0, 57, 68
2, 120367, Control_c, 0, 64, 37
2, 120446, Note_on_c, 0, 76, 76
2, 120499, Note_on_c, 0, 57, 0
2, 120500, Note_on_c, 0, 55, 62
2, 120569, Control_c, 0, 64, 40
2, 120583, Note_on_c, 0, 67, 0
2, 120650, Note_on_c, 0, 76, 0
2, 120662, Control_c, 0, 64, 34
2, 120663, Note_on_c, 0, 57, 73
2, 120670, Note_on_c, 0, 55, 0
2, 120683, Control_c, 0, 64, 29
2, 120689, Note_on_c, 0, 65, 79
2, 120702, Control_c, 0, 64, 22
2, 120722, Control_c, 0, 64, 16
2, 120741, Control_c, 0, 64, 12
2, 120836, Control_c, 0, 64, 16
2, 120854, Control_c, 0, 64, 22
2, 120871, Control_c, 0, 64, 27
2, 120891, Control_c, 0, 64, 31
2, 120930, Control_c, 0, 64, 38
2, 120940, Note_on_c, 0, 74, 80
2, 120948, Control_c, 0, 64, 41
2, 120961, Note_on_c, 0, 57, 0
2, 120967, Control_c, 0, 64, 44
2, 120987, Control_c, 0, 64, 46
2, 120991, Note_on_c, 0, 65, 0
2, 121081, Control_c, 0, 64, 42
2, 121119, Control_c, 0, 64, 35
2, 121157, Control_c, 0, 64, 28
2, 121158, Note_on_c, 0, 74, 0
2, 121173, Note_on_c, 0, 45, 76
2, 121177, Control_c, 0, 64, 21
2, 121181, Note_on_c, 0, 64, 79
2, 121197, Control_c, 0, 64, 8
2, 121214, Control_c, 0, 64, 0
2, 121404, Control_c, 0, 64, 10
2, 121432, Note_on_c, 0, 73, 81
2, 121438, Control_c, 0, 64, 24
2, 121456, Control_c, 0, 64, 36
2, 121467, Note_on_c, 0, 45, 0
2, 121476, Control_c, 0, 64, 49
2, 121495, Control_c, 0, 64, 57
2, 121513, Control_c, 0, 64, 60
2, 121519, Note_on_c, 0, 64, 0
2, 121646, Control_c, 0, 64, 58
2, 121666, Note_on_c, 0, 50, 69
2, 121681, Control_c, 0, 64, 55
2, 121684, Note_on_c, 0, 74, 77
2, 121692, Note_on_c, 0, 65, 62
2, 121701, Control_c, 0, 64, 53
2, 121721, Control_c, 0, 64, 50
2, 121740, Control_c, 0, 64, 44
2, 121759, Control_c, 0, 64, 34
2, 121771, Note_on_c, 0, 73, 0
2, 121776, Control_c, 0, 64, 23
2, 121797, Control_c, 0, 64, 16
2, 121816, Control_c, 0, 64, 11
2, 121860, Note_on_c, 0, 52, 70
2, 121910, Control_c, 0, 64, 16
2, 121925, Note_on_c, 0, 50, 0
2, 121929, Control_c, 0, 64, 26
2, 121948, Control_c, 0, 64, 35
2, 121967, Control_c, 0, 64, 44
2, 121976, Note_on_c, 0, 74, 0
2, 121986, Control_c, 0, 64, 50
2, 122004, Note_on_c, 0, 65, 0
2, 122005, Control_c, 0, 64, 54
2, 122022, Control_c, 0, 64, 56
2, 122025, Note_on_c, 0, 53, 76
2, 122063, Control_c, 0, 64, 59
2, 122076, Note_on_c, 0, 52, 0
2, 122101, Control_c, 0, 64, 60
2, 122172, Note_on_c, 0, 55, 71
2, 122191, Note_on_c, 0, 70, 77
2, 122193, Note_on_c, 0, 61, 73
2, 122196, Control_c, 0, 64, 58
2, 122213, Note_on_c, 0, 53, 0
2, 122214, Control_c, 0, 64, 56
2, 122232, Control_c, 0, 64, 51
2, 122251, Control_c, 0, 64, 42
2, 122271, Control_c, 0, 64, 28
2, 122291, Control_c, 0, 64, 19
2, 122307, Control_c, 0, 64, 14
2, 122343, Note_on_c, 0, 53, 74
2, 122391, Note_on_c, 0, 55, 0
2, 122418, Control_c, 0, 64, 25
2, 122438, Control_c, 0, 64, 38
2, 122456, Control_c, 0, 64, 49
2, 122474, Control_c, 0, 64, 56
2, 122493, Control_c, 0, 64, 58
2, 122515, Note_on_c, 0, 52, 72
2, 122527, Note_on_c, 0, 53, 0
2, 122531, Control_c, 0, 64, 60
2, 122565, Note_on_c, 0, 61, 0
2, 122575, Note_on_c, 0, 70, 0
2, 122606, Control_c, 0, 64, 58
2, 122626, Control_c, 0, 64, 56
2, 122644, Control_c, 0, 64, 54
2, 122665, Control_c, 0, 64, 52
2, 122682, Control_c, 0, 64, 49
2, 122692, Note_on_c, 0, 53, 64
2, 122692, Note_on_c, 0, 69, 74
2, 122698, Control_c, 0, 64, 47
2, 122698, Note_on_c, 0, 62, 67
2, 122719, Control_c, 0, 64, 44
2, 122739, Control_c, 0, 64, 42
2, 122758, Control_c, 0, 64, 40
2, 122780, Note_on_c, 0, 52, 0
2, 122814, Control_c, 0, 64, 34
2, 122851, Control_c, 0, 64, 29
2, 122875, Note_on_c, 0, 55, 69
2, 122878, Note_on_c, 0, 67, 72
2, 122891, Control_c, 0, 64, 24
2, 122921, Note_on_c, 0, 53, 0
2, 122936, Note_on_c, 0, 69, 0
2, 122946, Control_c, 0, 64, 19
2, 123014, Note_on_c, 0, 57, 71
2, 123016, Note_on_c, 0, 65, 68
2, 123033, Note_on_c, 0, 55, 0
2, 123072, Note_on_c, 0, 67, 0
2, 123116, Control_c, 0, 64, 15
2, 123174, Note_on_c, 0, 58, 68
2, 123175, Note_on_c, 0, 64, 71
2, 123202, Note_on_c, 0, 65, 0
2, 123214, Note_on_c, 0, 57, 0
2, 123337, Note_on_c, 0, 65, 75
2, 123360, Note_on_c, 0, 57, 65
2, 123360, Note_on_c, 0, 58, 0
2, 123390, Note_on_c, 0, 64, 0
2, 123417, Control_c, 0, 64, 11
2, 123486, Note_on_c, 0, 57, 0
2, 123491, Note_on_c, 0, 55, 60
2, 123507, Note_on_c, 0, 65, 0
2, 123508, Note_on_c, 0, 67, 66
2, 123510, Control_c, 0, 64, 0
2, 123659, Note_on_c, 0, 57, 66
2, 123673, Note_on_c, 0, 65, 63
2, 123710, Note_on_c, 0, 55, 0
2, 123738, Note_on_c, 0, 67, 0
2, 123806, Note_on_c, 0, 62, 0
2, 123836, Control_c, 0, 64, 15
2, 123849, Note_on_c, 0, 64, 61
2, 123853, Control_c, 0, 64, 28
2, 123873, Control_c, 0, 64, 38
2, 123890, Note_on_c, 0, 65, 0
2, 123891, Control_c, 0, 64, 48
2, 123910, Control_c, 0, 64, 55
2, 123929, Control_c, 0, 64, 58
2, 123948, Control_c, 0, 64, 60
2, 123967, Control_c, 0, 64, 61
2, 123983, Note_on_c, 0, 64, 0
2, 123985, Control_c, 0, 64, 62
2, 124001, Note_on_c, 0, 62, 56
2, 124060, Control_c, 0, 64, 59
2, 124080, Control_c, 0, 64, 54
2, 124099, Control_c, 0, 64, 47
2, 124119, Control_c, 0, 64, 36
2, 124123, Note_on_c, 0, 57, 0
2, 124135, Control_c, 0, 64, 25
2, 124135, Note_on_c, 0, 58, 52
2, 124143, Note_on_c, 0, 55, 47
2, 124151, Note_on_c, 0, 62, 0
2, 124152, Note_on_c, 0, 61, 65
2, 124155, Control_c, 0, 64, 18
2, 124175, Control_c, 0, 64, 14
2, 124269, Control_c, 0, 64, 25
2, 124287, Control_c, 0, 64, 37
2, 124322, Control_c, 0, 64, 48
2, 124342, Control_c, 0, 64, 55
2, 124351, Note_on_c, 0, 62, 64
2, 124360, Control_c, 0, 64, 59
2, 124379, Control_c, 0, 64, 61
2, 124382, Note_on_c, 0, 61, 0
2, 124397, Control_c, 0, 64, 63
2, 124416, Control_c, 0, 64, 64
2, 124488, Note_on_c, 0, 58, 0
2, 124498, Note_on_c, 0, 64, 71
2, 124509, Note_on_c, 0, 62, 0
2, 124527, Control_c, 0, 64, 62
2, 124540, Note_on_c, 0, 55, 0
2, 124547, Control_c, 0, 64, 61
2, 124565, Control_c, 0, 64, 60
2, 124603, Control_c, 0, 64, 58
2, 124640, Control_c, 0, 64, 56
2, 124644, Note_on_c, 0, 64, 0
2, 124648, Note_on_c, 0, 62, 74
2, 124666, Note_on_c, 0, 53, 58
2, 124670, Note_on_c, 0, 57, 57
2, 124677, Control_c, 0, 64, 53
2, 124716, Control_c, 0, 64, 50
2, 124734, Control_c, 0, 64, 48
2, 124753, Control_c, 0, 64, 46
2, 124793, Control_c, 0, 64, 43
2, 124810, Control_c, 0, 64, 41
2, 124822, Note_on_c, 0, 52, 65
2, 124827, Note_on_c, 0, 64, 71
2, 124848, Control_c, 0, 64, 37
2, 124868, Note_on_c, 0, 53, 0
2, 124872, Note_on_c, 0, 62, 0
2, 124966, Note_on_c, 0, 50, 67
2, 124967, Note_on_c, 0, 65, 75
2, 124982, Control_c, 0, 64, 33
2, 124985, Note_on_c, 0, 52, 0
2, 125038, Note_on_c, 0, 64, 0
2, 125076, Control_c, 0, 64, 29
2, 125110, Note_on_c, 0, 67, 75
2, 125128, Note_on_c, 0, 49, 71
2, 125132, Note_on_c, 0, 50, 0
2, 125152, Note_on_c, 0, 65, 0
2, 125286, Note_on_c, 0, 50, 74
2, 125288, Note_on_c, 0, 65, 82
2, 125300, Note_on_c, 0, 49, 0
2, 125355, Note_on_c, 0, 67, 0
2, 125431, Control_c, 0, 64, 25
2, 125435, Note_on_c, 0, 64, 79
2, 125436, Note_on_c, 0, 52, 67
2, 125455, Note_on_c, 0, 50, 0
2, 125469, Note_on_c, 0, 65, 0
2, 125585, Note_on_c, 0, 57, 0
2, 125593, Note_on_c, 0, 50, 74
2, 125596, Note_on_c, 0, 65, 76
2, 125612, Note_on_c, 0, 64, 0
2, 125622, Note_on_c, 0, 52, 0
2, 125677, Control_c, 0, 64, 21
2, 125780, Note_on_c, 0, 67, 81
2, 125781, Note_on_c, 0, 55, 58
2, 125825, Note_on_c, 0, 65, 0
2, 125828, Control_c, 0, 64, 17
2, 125905, Note_on_c, 0, 69, 79
2, 125919, Note_on_c, 0, 53, 68
2, 125939, Note_on_c, 0, 55, 0
2, 125961, Note_on_c, 0, 67, 0
2, 126055, Note_on_c, 0, 70, 79
2, 126056, Note_on_c, 0, 53, 0
2, 126060, Note_on_c, 0, 52, 67
2, 126088, Note_on_c, 0, 69, 0
2, 126200, Note_on_c, 0, 69, 81
2, 126201, Note_on_c, 0, 53, 70
2, 126272, Note_on_c, 0, 52, 0
2, 126299, Note_on_c, 0, 70, 0
2, 126368, Note_on_c, 0, 53, 0
2, 126368, Note_on_c, 0, 55, 64
2, 126369, Note_on_c, 0, 67, 78
2, 126402, Note_on_c, 0, 69, 0
2, 126509, Note_on_c, 0, 55, 0
2, 126511, Note_on_c, 0, 53, 73
2, 126522, Note_on_c, 0, 69, 82
2, 126539, Note_on_c, 0, 67, 0
2, 126616, Note_on_c, 0, 50, 0
2, 126780, Note_on_c, 0, 48, 77
2, 127019, Note_on_c, 0, 74, 82
2, 127031, Note_on_c, 0, 46, 75
2, 127071, Note_on_c, 0, 48, 0
2, 127079, Note_on_c, 0, 53, 0
2, 127202, Note_on_c, 0, 69, 0
2, 127284, Note_on_c, 0, 55, 76
2, 127431, Control_c, 0, 64, 13
2, 127522, Note_on_c, 0, 45, 70
2, 127532, Note_on_c, 0, 73, 81
2, 127544, Control_c, 0, 64, 8
2, 127586, Note_on_c, 0, 46, 0
2, 127596, Note_on_c, 0, 55, 0
2, 127599, Control_c, 0, 64, 0
2, 127629, Note_on_c, 0, 74, 0
2, 127788, Note_on_c, 0, 55, 61
2, 128027, Note_on_c, 0, 72, 75
2, 128037, Note_on_c, 0, 54, 65
2, 128088, Note_on_c, 0, 73, 0
2, 128097, Note_on_c, 0, 55, 0
2, 128240, Control_c, 0, 64, 25
2, 128258, Control_c, 0, 64, 43
2, 128276, Control_c, 0, 64, 59
2, 128284, Note_on_c, 0, 50, 74
2, 128297, Control_c, 0, 64, 67
2, 128313, Control_c, 0, 64, 73
2, 128319, Note_on_c, 0, 54, 0
2, 128334, Control_c, 0, 64, 77
2, 128348, Note_on_c, 0, 45, 0
2, 128351, Control_c, 0, 64, 81
2, 128370, Control_c, 0, 64, 83
2, 128414, Note_on_c, 0, 50, 0
2, 128483, Control_c, 0, 64, 81
2, 128505, Control_c, 0, 64, 78
2, 128524, Control_c, 0, 64, 75
2, 128527, Note_on_c, 0, 43, 73
2, 128528, Note_on_c, 0, 71, 85
2, 128543, Control_c, 0, 64, 71
2, 128558, Control_c, 0, 64, 66
2, 128573, Note_on_c, 0, 72, 0
2, 128577, Control_c, 0, 64, 62
2, 128599, Control_c, 0, 64, 59
2, 128617, Control_c, 0, 64, 56
2, 128636, Control_c, 0, 64, 53
2, 128655, Control_c, 0, 64, 51
2, 128674, Control_c, 0, 64, 49
2, 128693, Control_c, 0, 64, 47
2, 128729, Control_c, 0, 64, 43
2, 128748, Control_c, 0, 64, 41
2, 128775, Note_on_c, 0, 53, 73
2, 128785, Control_c, 0, 64, 37
2, 128843, Control_c, 0, 64, 32
2, 128882, Control_c, 0, 64, 28
2, 128939, Control_c, 0, 64, 24
2, 129024, Note_on_c, 0, 70, 81
2, 129026, Note_on_c, 0, 52, 74
2, 129041, Note_on_c, 0, 53, 0
2, 129052, Control_c, 0, 64, 20
2, 129071, Control_c, 0, 64, 14
2, 129091, Control_c, 0, 64, 0
2, 129100, Note_on_c, 0, 71, 0
2, 129289, Note_on_c, 0, 48, 80
2, 129313, Control_c, 0, 64, 22
2, 129332, Control_c, 0, 64, 35
2, 129352, Control_c, 0, 64, 51
2, 129360, Note_on_c, 0, 52, 0
2, 129369, Control_c, 0, 64, 61
2, 129369, Note_on_c, 0, 43, 0
2, 129390, Control_c, 0, 64, 65
2, 129409, Control_c, 0, 64, 67
2, 129445, Control_c, 0, 64, 69
2, 129455, Note_on_c, 0, 48, 0
2, 129521, Note_on_c, 0, 69, 86
2, 129525, Note_on_c, 0, 41, 79
2, 129540, Control_c, 0, 64, 67
2, 129559, Control_c, 0, 64, 66
2, 129578, Control_c, 0, 64, 65
2, 129583, Note_on_c, 0, 70, 0
2, 129597, Control_c, 0, 64, 64
2, 129617, Control_c, 0, 64, 63
2, 129618, Control_c, 0, 64, 62
2, 129655, Control_c, 0, 64, 60
2, 129674, Control_c, 0, 64, 57
2, 129693, Control_c, 0, 64, 53
2, 129712, Control_c, 0, 64, 47
2, 129729, Control_c, 0, 64, 43
2, 129749, Control_c, 0, 64, 41
2, 129773, Note_on_c, 0, 51, 82
2, 130008, Note_on_c, 0, 81, 86
2, 130018, Note_on_c, 0, 50, 77
2, 130067, Control_c, 0, 64, 34
2, 130073, Note_on_c, 0, 51, 0
2, 130086, Control_c, 0, 64, 23
2, 130105, Control_c, 0, 64, 0
2, 130270, Note_on_c, 0, 46, 81
2, 130293, Control_c, 0, 64, 22
2, 130313, Control_c, 0, 64, 40
2, 130331, Control_c, 0, 64, 56
2, 130341, Note_on_c, 0, 41, 0
2, 130352, Control_c, 0, 64, 66
2, 130370, Control_c, 0, 64, 71
2, 130375, Note_on_c, 0, 50, 0
2, 130391, Control_c, 0, 64, 75
2, 130409, Control_c, 0, 64, 78
2, 130429, Control_c, 0, 64, 80
2, 130443, Note_on_c, 0, 46, 0
2, 130524, Note_on_c, 0, 40, 81
2, 130524, Note_on_c, 0, 69, 0
2, 130532, Note_on_c, 0, 80, 82
2, 130599, Control_c, 0, 64, 76
2, 130610, Note_on_c, 0, 81, 0
2, 130616, Control_c, 0, 64, 73
2, 130636, Control_c, 0, 64, 70
2, 130656, Control_c, 0, 64, 66
2, 130674, Control_c, 0, 64, 61
2, 130692, Control_c, 0, 64, 56
2, 130711, Control_c, 0, 64, 53
2, 130731, Control_c, 0, 64, 51
2, 130749, Control_c, 0, 64, 47
2, 130769, Control_c, 0, 64, 41
2, 130778, Note_on_c, 0, 50, 80
2, 130788, Control_c, 0, 64, 36
2, 130846, Control_c, 0, 64, 32
2, 130883, Control_c, 0, 64, 28
2, 130921, Control_c, 0, 64, 17
2, 130937, Control_c, 0, 64, 0
2, 131035, Note_on_c, 0, 49, 76
2, 131036, Note_on_c, 0, 79, 80
2, 131083, Note_on_c, 0, 80, 0
2, 131121, Note_on_c, 0, 50, 0
2, 131256, Control_c, 0, 64, 14
2, 131275, Control_c, 0, 64, 34
2, 131294, Control_c, 0, 64, 53
2, 131295, Note_on_c, 0, 45, 80
2, 131314, Control_c, 0, 64, 65
2, 131332, Control_c, 0, 64, 73
2, 131332, Note_on_c, 0, 49, 0
2, 131351, Control_c, 0, 64, 79
2, 131351, Note_on_c, 0, 40, 0
2, 131369, Control_c, 0, 64, 86
2, 131389, Control_c, 0, 64, 90
2, 131426, Control_c, 0, 64, 95
2, 131435, Note_on_c, 0, 45, 0
2, 131565, Note_on_c, 0, 50, 73
2, 131565, Note_on_c, 0, 78, 81
2, 131566, Note_on_c, 0, 38, 73
2, 131597, Control_c, 0, 64, 88
2, 131616, Control_c, 0, 64, 81
2, 131635, Control_c, 0, 64, 72
2, 131652, Control_c, 0, 64, 61
2, 131655, Note_on_c, 0, 79, 0
2, 131672, Control_c, 0, 64, 52
2, 131691, Control_c, 0, 64, 46
2, 131710, Control_c, 0, 64, 38
2, 131729, Control_c, 0, 64, 26
2, 131749, Control_c, 0, 64, 10
2, 131768, Control_c, 0, 64, 0
2, 131903, Note_on_c, 0, 69, 82
2, 131918, Control_c, 0, 64, 22
2, 131935, Control_c, 0, 64, 39
2, 131956, Control_c, 0, 64, 57
2, 131990, Control_c, 0, 64, 65
2, 132009, Control_c, 0, 64, 69
2, 132029, Control_c, 0, 64, 72
2, 132032, Note_on_c, 0, 78, 0
2, 132068, Note_on_c, 0, 50, 0
2, 132123, Control_c, 0, 64, 69
2, 132139, Control_c, 0, 64, 66
2, 132158, Control_c, 0, 64, 62
2, 132163, Note_on_c, 0, 77, 75
2, 132164, Note_on_c, 0, 70, 81
2, 132167, Note_on_c, 0, 50, 60
2, 132177, Control_c, 0, 64, 57
2, 132198, Control_c, 0, 64, 51
2, 132212, Note_on_c, 0, 69, 0
2, 132215, Control_c, 0, 64, 46
2, 132236, Control_c, 0, 64, 39
2, 132254, Control_c, 0, 64, 30
2, 132276, Control_c, 0, 64, 22
2, 132293, Control_c, 0, 64, 11
2, 132311, Control_c, 0, 64, 0
2, 132417, Note_on_c, 0, 69, 81
2, 132423, Control_c, 0, 64, 17
2, 132443, Control_c, 0, 64, 34
2, 132459, Note_on_c, 0, 70, 0
2, 132460, Control_c, 0, 64, 50
2, 132482, Control_c, 0, 64, 61
2, 132501, Control_c, 0, 64, 66
2, 132510, Note_on_c, 0, 77, 0
2, 132519, Control_c, 0, 64, 70
2, 132538, Control_c, 0, 64, 73
2, 132556, Control_c, 0, 64, 75
2, 132582, Note_on_c, 0, 38, 0
2, 132612, Control_c, 0, 64, 72
2, 132621, Note_on_c, 0, 69, 0
2, 132631, Control_c, 0, 64, 66
2, 132645, Note_on_c, 0, 67, 75
2, 132649, Control_c, 0, 64, 55
2, 132657, Note_on_c, 0, 76, 71
2, 132669, Control_c, 0, 64, 46
2, 132746, Control_c, 0, 64, 52
2, 132765, Control_c, 0, 64, 57
2, 132783, Control_c, 0, 64, 61
2, 132802, Control_c, 0, 64, 65
2, 132821, Control_c, 0, 64, 67
2, 132893, Note_on_c, 0, 70, 69
2, 132916, Control_c, 0, 64, 66
2, 132969, Control_c, 0, 64, 64
2, 132970, Note_on_c, 0, 67, 0
2, 132988, Control_c, 0, 64, 62
2, 133007, Control_c, 0, 64, 60
2, 133024, Control_c, 0, 64, 58
2, 133044, Control_c, 0, 64, 56
2, 133062, Control_c, 0, 64, 54
2, 133083, Control_c, 0, 64, 51
2, 133099, Control_c, 0, 64, 49
2, 133119, Control_c, 0, 64, 46
2, 133139, Control_c, 0, 64, 44
2, 133155, Note_on_c, 0, 69, 65
2, 133159, Control_c, 0, 64, 42
2, 133165, Note_on_c, 0, 49, 52
2, 133184, Note_on_c, 0, 70, 0
2, 133194, Control_c, 0, 64, 37
2, 133214, Note_on_c, 0, 50, 0
2, 133253, Control_c, 0, 64, 32
2, 133393, Note_on_c, 0, 67, 63
2, 133424, Note_on_c, 0, 69, 0
2, 133627, Note_on_c, 0, 65, 62
2, 133629, Note_on_c, 0, 49, 0
2, 133631, Note_on_c, 0, 67, 0
2, 133648, Note_on_c, 0, 50, 54
2, 133780, Control_c, 0, 64, 36
2, 133799, Control_c, 0, 64, 43
2, 133817, Control_c, 0, 64, 49
2, 133837, Control_c, 0, 64, 55
2, 133855, Control_c, 0, 64, 58
2, 133870, Note_on_c, 0, 57, 68
2, 133910, Control_c, 0, 64, 60
2, 133928, Control_c, 0, 64, 61
2, 133998, Note_on_c, 0, 76, 0
2, 134040, Note_on_c, 0, 50, 0
2, 134060, Control_c, 0, 64, 60
2, 134117, Control_c, 0, 64, 58
2, 134134, Note_on_c, 0, 74, 74
2, 134153, Note_on_c, 0, 58, 61
2, 134194, Control_c, 0, 64, 56
2, 134228, Note_on_c, 0, 57, 0
2, 134249, Control_c, 0, 64, 54
2, 134288, Control_c, 0, 64, 51
2, 134303, Control_c, 0, 64, 49
2, 134324, Control_c, 0, 64, 47
2, 134363, Control_c, 0, 64, 45
2, 134380, Note_on_c, 0, 57, 61
2, 134401, Control_c, 0, 64, 43
2, 134420, Note_on_c, 0, 58, 0
2, 134440, Control_c, 0, 64, 41
2, 134514, Control_c, 0, 64, 37
2, 134622, Note_on_c, 0, 57, 0
2, 134632, Note_on_c, 0, 55, 47
2, 134647, Control_c, 0, 64, 32
2, 134651, Note_on_c, 0, 64, 46
2, 134655, Note_on_c, 0, 65, 0
2, 134884, Note_on_c, 0, 58, 50
2, 134914, Note_on_c, 0, 55, 0
2, 135133, Note_on_c, 0, 57, 47
2, 135147, Note_on_c, 0, 73, 49
2, 135172, Control_c, 0, 64, 28
2, 135183, Note_on_c, 0, 58, 0
2, 135213, Note_on_c, 0, 74, 0
2, 135283, Control_c, 0, 64, 22
2, 135302, Control_c, 0, 64, 13
2, 135325, Control_c, 0, 64, 0
2, 135337, Note_on_c, 0, 64, 0
2, 135370, Note_on_c, 0, 57, 0
2, 135372, Note_on_c, 0, 55, 46
2, 135531, Control_c, 0, 64, 21
2, 135550, Control_c, 0, 64, 34
2, 135569, Control_c, 0, 64, 49
2, 135589, Control_c, 0, 64, 59
2, 135608, Control_c, 0, 64, 64
2, 135627, Control_c, 0, 64, 67
2, 135644, Note_on_c, 0, 73, 0
2, 135645, Control_c, 0, 64, 70
2, 135653, Note_on_c, 0, 53, 45
2, 135675, Note_on_c, 0, 55, 0
2, 135776, Control_c, 0, 64, 68
2, 135794, Control_c, 0, 64, 66
2, 135830, Control_c, 0, 64, 65
2, 135849, Control_c, 0, 64, 63
2, 135868, Control_c, 0, 64, 61
2, 135887, Control_c, 0, 64, 58
2, 135905, Control_c, 0, 64, 55
2, 135925, Control_c, 0, 64, 52
2, 135926, Note_on_c, 0, 81, 49
2, 135944, Control_c, 0, 64, 50
2, 135980, Control_c, 0, 64, 48
2, 136018, Control_c, 0, 64, 46
2, 136038, Control_c, 0, 64, 44
2, 136075, Control_c, 0, 64, 41
2, 136134, Control_c, 0, 64, 36
2, 136159, Note_on_c, 0, 62, 57
2, 136169, Control_c, 0, 64, 32
2, 136173, Note_on_c, 0, 82, 60
2, 136200, Note_on_c, 0, 81, 0
2, 136209, Control_c, 0, 64, 25
2, 136225, Control_c, 0, 64, 20
2, 136245, Control_c, 0, 64, 15
2, 136284, Control_c, 0, 64, 0
2, 136392, Note_on_c, 0, 81, 61
2, 136462, Note_on_c, 0, 82, 0
2, 136651, Note_on_c, 0, 81, 0
2, 136653, Note_on_c, 0, 53, 0
2, 136655, Note_on_c, 0, 79, 51
2, 136660, Note_on_c, 0, 52, 39
2, 136898, Note_on_c, 0, 82, 53
2, 136928, Note_on_c, 0, 79, 0
2, 137141, Note_on_c, 0, 81, 55
2, 137159, Note_on_c, 0, 61, 47
2, 137205, Control_c, 0, 64, 21
2, 137217, Note_on_c, 0, 82, 0
2, 137222, Control_c, 0, 64, 36
2, 137232, Note_on_c, 0, 62, 0
2, 137242, Control_c, 0, 64, 51
2, 137262, Control_c, 0, 64, 62
2, 137282, Control_c, 0, 64, 68
2, 137301, Control_c, 0, 64, 73
2, 137320, Control_c, 0, 64, 77
2, 137336, Control_c, 0, 64, 82
2, 137348, Note_on_c, 0, 52, 0
2, 137354, Control_c, 0, 64, 86
2, 137367, Note_on_c, 0, 61, 0
2, 137392, Note_on_c, 0, 79, 55
2, 137413, Control_c, 0, 64, 90
2, 137424, Note_on_c, 0, 81, 0
2, 137546, Control_c, 0, 64, 82
2, 137565, Control_c, 0, 64, 69
2, 137582, Control_c, 0, 64, 56
2, 137603, Control_c, 0, 64, 53
2, 137611, Note_on_c, 0, 79, 0
2, 137620, Control_c, 0, 64, 55
2, 137626, Note_on_c, 0, 50, 52
2, 137629, Note_on_c, 0, 77, 58
2, 137639, Control_c, 0, 64, 59
2, 137639, Note_on_c, 0, 62, 56
2, 137657, Control_c, 0, 64, 63
2, 137664, Note_on_c, 0, 50, 0
2, 137678, Control_c, 0, 64, 67
2, 137695, Control_c, 0, 64, 70
2, 137715, Control_c, 0, 64, 72
2, 137770, Control_c, 0, 64, 74
2, 137819, Note_on_c, 0, 76, 63
2, 137820, Note_on_c, 0, 77, 0
2, 137828, Note_on_c, 0, 62, 0
2, 137834, Note_on_c, 0, 64, 70
2, 137901, Control_c, 0, 64, 72
2, 137937, Control_c, 0, 64, 68
2, 137956, Control_c, 0, 64, 65
2, 137971, Note_on_c, 0, 76, 0
2, 137976, Control_c, 0, 64, 63
2, 137979, Note_on_c, 0, 65, 64
2, 137984, Note_on_c, 0, 74, 63
2, 137995, Control_c, 0, 64, 59
2, 138003, Note_on_c, 0, 64, 0
2, 138015, Control_c, 0, 64, 56
2, 138033, Control_c, 0, 64, 52
2, 138053, Control_c, 0, 64, 49
2, 138070, Control_c, 0, 64, 46
2, 138089, Control_c, 0, 64, 43
2, 138108, Control_c, 0, 64, 39
2, 138113, Note_on_c, 0, 67, 63
2, 138115, Note_on_c, 0, 65, 0
2, 138115, Note_on_c, 0, 73, 69
2, 138127, Note_on_c, 0, 74, 0
2, 138145, Control_c, 0, 64, 33
2, 138239, Control_c, 0, 64, 29
2, 138248, Note_on_c, 0, 65, 69
2, 138252, Note_on_c, 0, 67, 0
2, 138262, Note_on_c, 0, 74, 72
2, 138295, Control_c, 0, 64, 25
2, 138302, Note_on_c, 0, 73, 0
2, 138336, Control_c, 0, 64, 21
2, 138372, Control_c, 0, 64, 16
2, 138383, Note_on_c, 0, 65, 0
2, 138391, Note_on_c, 0, 64, 66
2, 138404, Note_on_c, 0, 76, 65
2, 138427, Note_on_c, 0, 74, 0
2, 138467, Control_c, 0, 64, 12
2, 138539, Note_on_c, 0, 65, 63
2, 138556, Note_on_c, 0, 69, 60
2, 138577, Note_on_c, 0, 76, 0
2, 138607, Note_on_c, 0, 64, 0
2, 138716, Note_on_c, 0, 67, 73
2, 138727, Note_on_c, 0, 71, 65
2, 138745, Note_on_c, 0, 65, 0
2, 138759, Note_on_c, 0, 69, 0
2, 138857, Note_on_c, 0, 69, 72
2, 138870, Note_on_c, 0, 73, 68
2, 138906, Note_on_c, 0, 67, 0
2, 138906, Note_on_c, 0, 71, 0
2, 138985, Note_on_c, 0, 70, 74
2, 139008, Note_on_c, 0, 74, 70
2, 139016, Note_on_c, 0, 73, 0
2, 139025, Note_on_c, 0, 69, 0
2, 139139, Note_on_c, 0, 69, 78
2, 139150, Note_on_c, 0, 73, 75
2, 139174, Note_on_c, 0, 70, 0
2, 139189, Note_on_c, 0, 74, 0
2, 139282, Note_on_c, 0, 67, 78
2, 139293, Note_on_c, 0, 69, 0
2, 139304, Note_on_c, 0, 71, 73
2, 139321, Note_on_c, 0, 73, 0
2, 139426, Control_c, 0, 64, 0
2, 139442, Note_on_c, 0, 69, 77
2, 139459, Note_on_c, 0, 73, 73
2, 139481, Note_on_c, 0, 71, 0
2, 139490, Note_on_c, 0, 67, 0
2, 139620, Note_on_c, 0, 73, 0
2, 139621, Note_on_c, 0, 74, 79
2, 139669, Control_c, 0, 64, 20
2, 139688, Control_c, 0, 64, 30
2, 139706, Control_c, 0, 64, 41
2, 139726, Control_c, 0, 64, 52
2, 139743, Control_c, 0, 64, 59
2, 139763, Control_c, 0, 64, 63
2, 139780, Control_c, 0, 64, 66
2, 139780, Note_on_c, 0, 76, 79
2, 139794, Note_on_c, 0, 74, 0
2, 139800, Control_c, 0, 64, 67
2, 139875, Control_c, 0, 64, 59
2, 139895, Control_c, 0, 64, 43
2, 139912, Control_c, 0, 64, 21
2, 139920, Note_on_c, 0, 74, 86
2, 139929, Note_on_c, 0, 77, 79
2, 139931, Control_c, 0, 64, 9
2, 139955, Note_on_c, 0, 76, 0
2, 139969, Note_on_c, 0, 69, 0
2, 139989, Control_c, 0, 64, 19
2, 140008, Control_c, 0, 64, 37
2, 140029, Control_c, 0, 64, 53
2, 140047, Control_c, 0, 64, 63
2, 140063, Control_c, 0, 64, 67
2, 140069, Note_on_c, 0, 74, 0
2, 140081, Control_c, 0, 64, 70
2, 140083, Note_on_c, 0, 76, 82
2, 140102, Control_c, 0, 64, 73
2, 140134, Note_on_c, 0, 77, 0
2, 140216, Note_on_c, 0, 74, 83
2, 140223, Note_on_c, 0, 76, 0
2, 140272, Control_c, 0, 64, 70
2, 140308, Note_on_c, 0, 74, 0
2, 140309, Control_c, 0, 64, 66
2, 140329, Control_c, 0, 64, 65
2, 140347, Control_c, 0, 64, 63
2, 140361, Note_on_c, 0, 76, 85
2, 140366, Control_c, 0, 64, 61
2, 140367, Note_on_c, 0, 73, 81
2, 140388, Control_c, 0, 64, 58
2, 140406, Control_c, 0, 64, 55
2, 140444, Control_c, 0, 64, 52
2, 140461, Control_c, 0, 64, 49
2, 140481, Control_c, 0, 64, 46
2, 140500, Control_c, 0, 64, 43
2, 140536, Control_c, 0, 64, 37
2, 140575, Control_c, 0, 64, 32
2, 140648, Note_on_c, 0, 47, 81
2, 140895, Note_on_c, 0, 81, 81
2, 140901, Note_on_c, 0, 48, 74
2, 140902, Note_on_c, 0, 72, 79
2, 140944, Note_on_c, 0, 76, 0
2, 140946, Note_on_c, 0, 73, 0
2, 140957, Note_on_c, 0, 78, 35
2, 140966, Control_c, 0, 64, 28
2, 140984, Note_on_c, 0, 47, 0
2, 140999, Note_on_c, 0, 78, 0
2, 141006, Control_c, 0, 64, 21
2, 141023, Control_c, 0, 64, 10
2, 141043, Control_c, 0, 64, 0
2, 141145, Note_on_c, 0, 50, 74
2, 141194, Control_c, 0, 64, 18
2, 141212, Note_on_c, 0, 48, 0
2, 141213, Control_c, 0, 64, 31
2, 141233, Control_c, 0, 64, 42
2, 141251, Control_c, 0, 64, 52
2, 141269, Control_c, 0, 64, 57
2, 141275, Note_on_c, 0, 72, 0
2, 141289, Control_c, 0, 64, 59
2, 141384, Note_on_c, 0, 52, 75
2, 141393, Note_on_c, 0, 71, 79
2, 141396, Note_on_c, 0, 80, 80
2, 141412, Note_on_c, 0, 50, 0
2, 141439, Control_c, 0, 64, 56
2, 141459, Control_c, 0, 64, 51
2, 141460, Note_on_c, 0, 81, 0
2, 141479, Control_c, 0, 64, 43
2, 141494, Control_c, 0, 64, 33
2, 141514, Control_c, 0, 64, 25
2, 141643, Control_c, 0, 64, 31
2, 141644, Note_on_c, 0, 54, 67
2, 141664, Control_c, 0, 64, 43
2, 141681, Control_c, 0, 64, 56
2, 141700, Control_c, 0, 64, 63
2, 141714, Note_on_c, 0, 52, 0
2, 141717, Control_c, 0, 64, 67
2, 141739, Control_c, 0, 64, 70
2, 141755, Control_c, 0, 64, 73
2, 141759, Note_on_c, 0, 80, 0
2, 141774, Control_c, 0, 64, 76
2, 141813, Control_c, 0, 64, 78
2, 141853, Note_on_c, 0, 71, 0
2, 141870, Control_c, 0, 64, 76
2, 141881, Note_on_c, 0, 70, 81
2, 141883, Note_on_c, 0, 79, 77
2, 141890, Control_c, 0, 64, 72
2, 141894, Note_on_c, 0, 55, 67
2, 141908, Control_c, 0, 64, 65
2, 141927, Control_c, 0, 64, 55
2, 141942, Note_on_c, 0, 54, 0
2, 141945, Control_c, 0, 64, 45
2, 141966, Control_c, 0, 64, 38
2, 141982, Control_c, 0, 64, 34
2, 142098, Control_c, 0, 64, 40
2, 142116, Control_c, 0, 64, 49
2, 142135, Control_c, 0, 64, 57
2, 142139, Note_on_c, 0, 52, 67
2, 142153, Control_c, 0, 64, 63
2, 142173, Control_c, 0, 64, 68
2, 142179, Note_on_c, 0, 55, 0
2, 142192, Control_c, 0, 64, 72
2, 142210, Control_c, 0, 64, 76
2, 142227, Control_c, 0, 64, 79
2, 142247, Control_c, 0, 64, 81
2, 142288, Note_on_c, 0, 70, 0
2, 142379, Control_c, 0, 64, 79
2, 142396, Note_on_c, 0, 78, 76
2, 142397, Note_on_c, 0, 69, 75
2, 142405, Note_on_c, 0, 57, 61
2, 142414, Note_on_c, 0, 52, 0
2, 142418, Control_c, 0, 64, 76
2, 142436, Control_c, 0, 64, 74
2, 142454, Control_c, 0, 64, 71
2, 142473, Control_c, 0, 64, 68
2, 142493, Control_c, 0, 64, 64
2, 142503, Note_on_c, 0, 79, 0
2, 142510, Control_c, 0, 64, 61
2, 142546, Control_c, 0, 64, 58
2, 142567, Control_c, 0, 64, 56
2, 142604, Control_c, 0, 64, 53
2, 142623, Control_c, 0, 64, 51
2, 142641, Control_c, 0, 64, 49
2, 142659, Control_c, 0, 64, 47
2, 142679, Control_c, 0, 64, 45
2, 142684, Note_on_c, 0, 56, 66
2, 142698, Control_c, 0, 64, 43
2, 142715, Control_c, 0, 64, 40
2, 142743, Note_on_c, 0, 57, 0
2, 142753, Control_c, 0, 64, 34
2, 142792, Control_c, 0, 64, 27
2, 142811, Control_c, 0, 64, 22
2, 142831, Control_c, 0, 64, 16
2, 142850, Control_c, 0, 64, 11
2, 142887, Control_c, 0, 64, 0
2, 142907, Note_on_c, 0, 57, 66
2, 142913, Note_on_c, 0, 77, 71
2, 142959, Note_on_c, 0, 56, 0
2, 143016, Note_on_c, 0, 78, 0
2, 143170, Note_on_c, 0, 59, 58
2, 143203, Note_on_c, 0, 57, 0
2, 143408, Note_on_c, 0, 76, 68
2, 143414, Note_on_c, 0, 60, 44
2, 143451, Note_on_c, 0, 59, 0
2, 143538, Note_on_c, 0, 77, 0
2, 143601, Control_c, 0, 64, 17
2, 143618, Control_c, 0, 64, 33
2, 143639, Control_c, 0, 64, 48
2, 143657, Control_c, 0, 64, 59
2, 143673, Control_c, 0, 64, 64
2, 143677, Note_on_c, 0, 54, 52
2, 143693, Control_c, 0, 64, 67
2, 143697, Note_on_c, 0, 60, 0
2, 143713, Control_c, 0, 64, 71
2, 143733, Control_c, 0, 64, 74
2, 143749, Control_c, 0, 64, 78
2, 143770, Control_c, 0, 64, 80
2, 143805, Note_on_c, 0, 76, 0
2, 143884, Control_c, 0, 64, 76
2, 143902, Control_c, 0, 64, 74
2, 143920, Control_c, 0, 64, 71
2, 143930, Note_on_c, 0, 54, 0
2, 143935, Note_on_c, 0, 59, 58
2, 143935, Note_on_c, 0, 74, 73
2, 143939, Control_c, 0, 64, 67
2, 143960, Control_c, 0, 64, 64
2, 143976, Control_c, 0, 64, 60
2, 143994, Control_c, 0, 64, 57
2, 144014, Control_c, 0, 64, 53
2, 144033, Control_c, 0, 64, 51
2, 144052, Control_c, 0, 64, 49
2, 144092, Control_c, 0, 64, 45
2, 144110, Control_c, 0, 64, 42
2, 144130, Note_on_c, 0, 69, 0
2, 144146, Control_c, 0, 64, 37
2, 144194, Note_on_c, 0, 57, 58
2, 144200, Note_on_c, 0, 65, 60
2, 144203, Control_c, 0, 64, 32
2, 144232, Note_on_c, 0, 59, 0
2, 144260, Control_c, 0, 64, 28
2, 144317, Control_c, 0, 64, 24
2, 144355, Control_c, 0, 64, 20
2, 144393, Control_c, 0, 64, 16
2, 144431, Control_c, 0, 64, 8
2, 144447, Note_on_c, 0, 64, 64
2, 144461, Note_on_c, 0, 56, 59
2, 144464, Control_c, 0, 64, 0
2, 144496, Note_on_c, 0, 57, 0
2, 144506, Note_on_c, 0, 65, 0
2, 144704, Note_on_c, 0, 52, 59
2, 144717, Note_on_c, 0, 56, 0
2, 144753, Note_on_c, 0, 74, 0
2, 144948, Note_on_c, 0, 72, 72
2, 144949, Note_on_c, 0, 57, 53
2, 144971, Note_on_c, 0, 52, 0
2, 145039, Note_on_c, 0, 64, 0
2, 145089, Control_c, 0, 64, 20
2, 145106, Control_c, 0, 64, 30
2, 145125, Control_c, 0, 64, 41
2, 145145, Control_c, 0, 64, 52
2, 145164, Control_c, 0, 64, 59
2, 145183, Control_c, 0, 64, 63
2, 145187, Note_on_c, 0, 64, 61
2, 145203, Control_c, 0, 64, 65
2, 145221, Control_c, 0, 64, 67
2, 145241, Control_c, 0, 64, 69
2, 145257, Control_c, 0, 64, 71
2, 145277, Control_c, 0, 64, 73
2, 145300, Note_on_c, 0, 64, 0
2, 145446, Note_on_c, 0, 71, 70
2, 145470, Note_on_c, 0, 62, 46
2, 145479, Note_on_c, 0, 72, 0
2, 145481, Note_on_c, 0, 57, 0
2, 145519, Control_c, 0, 64, 70
2, 145557, Control_c, 0, 64, 67
2, 145577, Control_c, 0, 64, 64
2, 145594, Control_c, 0, 64, 62
2, 145613, Control_c, 0, 64, 59
2, 145631, Control_c, 0, 64, 56
2, 145652, Control_c, 0, 64, 53
2, 145671, Control_c, 0, 64, 50
2, 145690, Control_c, 0, 64, 47
2, 145701, Note_on_c, 0, 50, 56
2, 145708, Control_c, 0, 64, 43
2, 145729, Control_c, 0, 64, 39
2, 145746, Control_c, 0, 64, 35
2, 145784, Control_c, 0, 64, 30
2, 145840, Control_c, 0, 64, 25
2, 145879, Control_c, 0, 64, 20
2, 145933, Control_c, 0, 64, 16
2, 145934, Note_on_c, 0, 55, 50
2, 145938, Note_on_c, 0, 70, 65
2, 145954, Note_on_c, 0, 71, 0
2, 145965, Note_on_c, 0, 62, 0
2, 146029, Note_on_c, 0, 50, 0
2, 146152, Note_on_c, 0, 62, 46
2, 146170, Note_on_c, 0, 55, 0
2, 146180, Note_on_c, 0, 53, 47
2, 146408, Note_on_c, 0, 62, 0
2, 146413, Note_on_c, 0, 53, 0
2, 146429, Note_on_c, 0, 52, 46
2, 146447, Note_on_c, 0, 60, 45
2, 146656, Note_on_c, 0, 52, 0
2, 146667, Control_c, 0, 64, 25
2, 146677, Note_on_c, 0, 48, 44
2, 146688, Control_c, 0, 64, 33
2, 146706, Control_c, 0, 64, 41
2, 146724, Control_c, 0, 64, 50
2, 146744, Control_c, 0, 64, 55
2, 146763, Control_c, 0, 64, 57
2, 146800, Control_c, 0, 64, 60
2, 146819, Control_c, 0, 64, 61
2, 146868, Note_on_c, 0, 48, 0
2, 146868, Note_on_c, 0, 60, 0
2, 146873, Control_c, 0, 64, 60
2, 146893, Control_c, 0, 64, 55
2, 146896, Note_on_c, 0, 69, 58
2, 146902, Note_on_c, 0, 53, 44
2, 146912, Control_c, 0, 64, 48
2, 146932, Control_c, 0, 64, 40
2, 146946, Note_on_c, 0, 70, 0
2, 146950, Control_c, 0, 64, 34
2, 147047, Control_c, 0, 64, 41
2, 147064, Control_c, 0, 64, 48
2, 147084, Control_c, 0, 64, 55
2, 147100, Control_c, 0, 64, 59
2, 147120, Control_c, 0, 64, 63
2, 147139, Control_c, 0, 64, 65
2, 147152, Note_on_c, 0, 60, 41
2, 147157, Control_c, 0, 64, 67
2, 147196, Control_c, 0, 64, 70
2, 147220, Note_on_c, 0, 60, 0
2, 147392, Note_on_c, 0, 53, 0
2, 147399, Note_on_c, 0, 68, 57
2, 147421, Note_on_c, 0, 59, 35
2, 147439, Control_c, 0, 64, 68
2, 147457, Control_c, 0, 64, 66
2, 147476, Control_c, 0, 64, 64
2, 147488, Note_on_c, 0, 69, 0
2, 147495, Control_c, 0, 64, 61
2, 147513, Control_c, 0, 64, 59
2, 147532, Control_c, 0, 64, 57
2, 147570, Control_c, 0, 64, 52
2, 147588, Control_c, 0, 64, 50
2, 147607, Control_c, 0, 64, 46
2, 147625, Control_c, 0, 64, 43
2, 147635, Note_on_c, 0, 47, 53
2, 147646, Control_c, 0, 64, 39
2, 147684, Control_c, 0, 64, 34
2, 147722, Control_c, 0, 64, 30
2, 147757, Control_c, 0, 64, 25
2, 147867, Note_on_c, 0, 68, 0
2, 147881, Note_on_c, 0, 67, 56
2, 147895, Note_on_c, 0, 52, 41
2, 147952, Note_on_c, 0, 47, 0
2, 148068, Note_on_c, 0, 59, 0
2, 148129, Note_on_c, 0, 58, 45
2, 148136, Note_on_c, 0, 52, 0
2, 148145, Note_on_c, 0, 50, 40
2, 148344, Note_on_c, 0, 58, 0
2, 148389, Note_on_c, 0, 49, 40
2, 148395, Note_on_c, 0, 57, 43
2, 148418, Note_on_c, 0, 50, 0
2, 148510, Control_c, 0, 64, 32
2, 148530, Control_c, 0, 64, 38
2, 148549, Control_c, 0, 64, 46
2, 148568, Control_c, 0, 64, 52
2, 148587, Control_c, 0, 64, 57
2, 148607, Control_c, 0, 64, 60
2, 148618, Note_on_c, 0, 49, 0
2, 148623, Control_c, 0, 64, 63
2, 148639, Note_on_c, 0, 45, 41
2, 148643, Control_c, 0, 64, 65
2, 148663, Control_c, 0, 64, 66
2, 148681, Note_on_c, 0, 57, 0
2, 148682, Control_c, 0, 64, 67
2, 148793, Control_c, 0, 64, 66
2, 148812, Control_c, 0, 64, 65
2, 148824, Note_on_c, 0, 67, 0
2, 148832, Control_c, 0, 64, 62
2, 148852, Control_c, 0, 64, 59
2, 148869, Control_c, 0, 64, 55
2, 148875, Note_on_c, 0, 50, 38
2, 148876, Note_on_c, 0, 65, 40
2, 148889, Control_c, 0, 64, 51
2, 148909, Control_c, 0, 64, 47
2, 148917, Note_on_c, 0, 45, 0
2, 148926, Note_on_c, 0, 65, 0
2, 148928, Control_c, 0, 64, 43
2, 148944, Control_c, 0, 64, 40
2, 148947, Note_on_c, 0, 67, 56
2, 149003, Control_c, 0, 64, 35
2, 149020, Note_on_c, 0, 67, 0
2, 149044, Note_on_c, 0, 65, 51
2, 149135, Control_c, 0, 64, 39
2, 149153, Control_c, 0, 64, 45
2, 149171, Control_c, 0, 64, 52
2, 149190, Control_c, 0, 64, 57
2, 149211, Control_c, 0, 64, 60
2, 149228, Control_c, 0, 64, 61
2, 149262, Control_c, 0, 64, 62
2, 149415, Control_c, 0, 64, 60
2, 149429, Note_on_c, 0, 65, 0
2, 149437, Note_on_c, 0, 69, 55
2, 149452, Control_c, 0, 64, 56
2, 149457, Note_on_c, 0, 64, 42
2, 149470, Control_c, 0, 64, 51
2, 149490, Control_c, 0, 64, 46
2, 149509, Control_c, 0, 64, 40
2, 149549, Control_c, 0, 64, 35
2, 149640, Note_on_c, 0, 67, 57
2, 149659, Control_c, 0, 64, 41
2, 149677, Control_c, 0, 64, 46
2, 149698, Control_c, 0, 64, 52
2, 149715, Control_c, 0, 64, 55
2, 149716, Note_on_c, 0, 69, 0
2, 149736, Control_c, 0, 64, 57
2, 149765, Note_on_c, 0, 64, 0
2, 149796, Note_on_c, 0, 65, 61
2, 149836, Note_on_c, 0, 67, 0
2, 149904, Control_c, 0, 64, 54
2, 149924, Control_c, 0, 64, 50
2, 149942, Control_c, 0, 64, 46
2, 149944, Note_on_c, 0, 64, 55
2, 149961, Note_on_c, 0, 49, 50
2, 149962, Control_c, 0, 64, 43
2, 149971, Note_on_c, 0, 65, 0
2, 149978, Control_c, 0, 64, 40
2, 150017, Control_c, 0, 64, 35
2, 150055, Note_on_c, 0, 50, 0
2, 150122, Note_on_c, 0, 65, 65
2, 150181, Note_on_c, 0, 64, 0
2, 150271, Note_on_c, 0, 67, 60
2, 150304, Note_on_c, 0, 65, 0
2, 150424, Note_on_c, 0, 50, 53
2, 150426, Control_c, 0, 64, 31
2, 150440, Note_on_c, 0, 49, 0
2, 150443, Note_on_c, 0, 65, 70
2, 150568, Note_on_c, 0, 67, 0
2, 150605, Note_on_c, 0, 48, 57
2, 150613, Note_on_c, 0, 64, 66
2, 150637, Note_on_c, 0, 50, 0
2, 150658, Note_on_c, 0, 65, 0
2, 150741, Note_on_c, 0, 46, 64
2, 150761, Note_on_c, 0, 62, 67
2, 150764, Note_on_c, 0, 48, 0
2, 150771, Note_on_c, 0, 64, 0
2, 150901, Note_on_c, 0, 61, 69
2, 150904, Note_on_c, 0, 46, 0
2, 150905, Note_on_c, 0, 45, 61
2, 150920, Note_on_c, 0, 62, 0
2, 151054, Note_on_c, 0, 46, 67
2, 151055, Note_on_c, 0, 62, 76
2, 151081, Note_on_c, 0, 61, 0
2, 151083, Note_on_c, 0, 45, 0
2, 151225, Note_on_c, 0, 64, 68
2, 151234, Note_on_c, 0, 48, 64
2, 151243, Note_on_c, 0, 62, 0
2, 151250, Note_on_c, 0, 46, 0
2, 151274, Control_c, 0, 64, 26
2, 151312, Control_c, 0, 64, 19
2, 151350, Control_c, 0, 64, 12
2, 151365, Note_on_c, 0, 62, 71
2, 151394, Note_on_c, 0, 46, 69
2, 151406, Note_on_c, 0, 48, 0
2, 151430, Note_on_c, 0, 64, 0
2, 151500, Control_c, 0, 64, 21
2, 151520, Control_c, 0, 64, 27
2, 151538, Control_c, 0, 64, 34
2, 151548, Note_on_c, 0, 46, 0
2, 151555, Note_on_c, 0, 45, 68
2, 151559, Control_c, 0, 64, 40
2, 151575, Control_c, 0, 64, 46
2, 151595, Control_c, 0, 64, 52
2, 151613, Control_c, 0, 64, 56
2, 151633, Control_c, 0, 64, 59
2, 151651, Control_c, 0, 64, 60
2, 151670, Control_c, 0, 64, 61
2, 151688, Control_c, 0, 64, 62
2, 151689, Note_on_c, 0, 43, 69
2, 151697, Note_on_c, 0, 45, 0
2, 151705, Control_c, 0, 64, 63
2, 151801, Note_on_c, 0, 62, 0
2, 151820, Control_c, 0, 64, 61
2, 151839, Control_c, 0, 64, 59
2, 151839, Note_on_c, 0, 42, 65
2, 151840, Note_on_c, 0, 57, 78
2, 151843, Note_on_c, 0, 43, 0
2, 151858, Control_c, 0, 64, 53
2, 151880, Control_c, 0, 64, 44
2, 151894, Control_c, 0, 64, 33
2, 151915, Control_c, 0, 64, 25
2, 151933, Control_c, 0, 64, 21
2, 151980, Note_on_c, 0, 43, 68
2, 152001, Note_on_c, 0, 42, 0
2, 152047, Control_c, 0, 64, 28
2, 152066, Control_c, 0, 64, 36
2, 152086, Control_c, 0, 64, 44
2, 152104, Control_c, 0, 64, 51
2, 152124, Control_c, 0, 64, 56
2, 152158, Control_c, 0, 64, 58
2, 152170, Note_on_c, 0, 45, 67
2, 152177, Control_c, 0, 64, 60
2, 152180, Note_on_c, 0, 43, 0
2, 152195, Control_c, 0, 64, 61
2, 152309, Control_c, 0, 64, 60
2, 152345, Control_c, 0, 64, 57
2, 152356, Note_on_c, 0, 43, 68
2, 152364, Note_on_c, 0, 58, 77
2, 152366, Control_c, 0, 64, 53
2, 152374, Note_on_c, 0, 45, 0
2, 152383, Control_c, 0, 64, 46
2, 152402, Control_c, 0, 64, 36
2, 152421, Control_c, 0, 64, 23
2, 152443, Note_on_c, 0, 57, 0
2, 152460, Control_c, 0, 64, 0
2, 152557, Note_on_c, 0, 62, 70
2, 152593, Control_c, 0, 64, 11
2, 152611, Control_c, 0, 64, 25
2, 152630, Control_c, 0, 64, 37
2, 152647, Control_c, 0, 64, 50
2, 152667, Control_c, 0, 64, 59
2, 152686, Control_c, 0, 64, 63
2, 152704, Note_on_c, 0, 64, 71
2, 152705, Control_c, 0, 64, 65
2, 152725, Control_c, 0, 64, 66
2, 152743, Control_c, 0, 64, 67
2, 152797, Note_on_c, 0, 62, 0
2, 152819, Control_c, 0, 64, 66
2, 152827, Note_on_c, 0, 58, 0
2, 152839, Control_c, 0, 64, 63
2, 152842, Note_on_c, 0, 43, 0
2, 152852, Note_on_c, 0, 38, 73
2, 152855, Control_c, 0, 64, 58
2, 152855, Note_on_c, 0, 59, 82
2, 152862, Note_on_c, 0, 65, 72
2, 152874, Control_c, 0, 64, 51
2, 152874, Note_on_c, 0, 64, 0
2, 152893, Control_c, 0, 64, 40
2, 152914, Control_c, 0, 64, 30
2, 152931, Control_c, 0, 64, 23
2, 152953, Control_c, 0, 64, 19
2, 153034, Note_on_c, 0, 64, 71
2, 153045, Control_c, 0, 64, 27
2, 153064, Control_c, 0, 64, 38
2, 153083, Control_c, 0, 64, 50
2, 153099, Note_on_c, 0, 65, 0
2, 153117, Control_c, 0, 64, 59
2, 153135, Control_c, 0, 64, 63
2, 153155, Control_c, 0, 64, 65
2, 153173, Control_c, 0, 64, 68
2, 153194, Control_c, 0, 64, 70
2, 153208, Note_on_c, 0, 62, 81
2, 153213, Control_c, 0, 64, 72
2, 153232, Control_c, 0, 64, 75
2, 153240, Note_on_c, 0, 38, 0
2, 153248, Note_on_c, 0, 59, 0
2, 153250, Control_c, 0, 64, 77
2, 153267, Note_on_c, 0, 64, 0
2, 153327, Note_on_c, 0, 62, 0
2, 153362, Control_c, 0, 64, 73
2, 153362, Note_on_c, 0, 60, 85
2, 153364, Note_on_c, 0, 39, 72
2, 153381, Control_c, 0, 64, 68
2, 153400, Control_c, 0, 64, 61
2, 153420, Control_c, 0, 64, 53
2, 153439, Control_c, 0, 64, 47
2, 153458, Control_c, 0, 64, 42
2, 153477, Control_c, 0, 64, 38
2, 153514, Control_c, 0, 64, 32
2, 153559, Note_on_c, 0, 70, 75
2, 153608, Control_c, 0, 64, 36
2, 153625, Control_c, 0, 64, 43
2, 153646, Control_c, 0, 64, 51
2, 153664, Control_c, 0, 64, 58
2, 153684, Control_c, 0, 64, 63
2, 153703, Control_c, 0, 64, 66
2, 153719, Note_on_c, 0, 69, 78
2, 153722, Control_c, 0, 64, 69
2, 153739, Control_c, 0, 64, 71
2, 153754, Note_on_c, 0, 60, 0
2, 153759, Control_c, 0, 64, 74
2, 153770, Note_on_c, 0, 70, 0
2, 153786, Note_on_c, 0, 39, 0
2, 153797, Control_c, 0, 64, 76
2, 153866, Note_on_c, 0, 61, 81
2, 153875, Note_on_c, 0, 40, 76
2, 153878, Note_on_c, 0, 67, 70
2, 153889, Note_on_c, 0, 69, 0
2, 153890, Control_c, 0, 64, 73
2, 153912, Control_c, 0, 64, 69
2, 153930, Control_c, 0, 64, 64
2, 153950, Control_c, 0, 64, 55
2, 153966, Control_c, 0, 64, 46
2, 153985, Control_c, 0, 64, 38
2, 154005, Control_c, 0, 64, 32
2, 154040, Note_on_c, 0, 69, 73
2, 154122, Note_on_c, 0, 67, 0
2, 154133, Control_c, 0, 64, 39
2, 154153, Control_c, 0, 64, 50
2, 154172, Control_c, 0, 64, 58
2, 154192, Control_c, 0, 64, 64
2, 154209, Control_c, 0, 64, 67
2, 154229, Control_c, 0, 64, 70
2, 154235, Note_on_c, 0, 70, 77
2, 154247, Control_c, 0, 64, 73
2, 154265, Control_c, 0, 64, 75
2, 154295, Note_on_c, 0, 69, 0
2, 154301, Control_c, 0, 64, 78
2, 154312, Note_on_c, 0, 61, 0
2, 154372, Note_on_c, 0, 70, 0
2, 154385, Note_on_c, 0, 41, 74
2, 154391, Note_on_c, 0, 62, 80
2, 154417, Note_on_c, 0, 40, 0
2, 154436, Control_c, 0, 64, 75
2, 154456, Control_c, 0, 64, 73
2, 154474, Control_c, 0, 64, 68
2, 154492, Control_c, 0, 64, 61
2, 154512, Control_c, 0, 64, 53
2, 154531, Control_c, 0, 64, 46
2, 154549, Control_c, 0, 64, 42
2, 154555, Note_on_c, 0, 69, 79
2, 154566, Control_c, 0, 64, 40
2, 154728, Note_on_c, 0, 70, 80
2, 154817, Note_on_c, 0, 69, 0
2, 154900, Note_on_c, 0, 42, 69
2, 154903, Note_on_c, 0, 72, 79
2, 154967, Note_on_c, 0, 70, 0
2, 154984, Note_on_c, 0, 41, 0
2, 155125, Note_on_c, 0, 70, 75
2, 155161, Note_on_c, 0, 72, 0
2, 155279, Note_on_c, 0, 69, 69
2, 155303, Note_on_c, 0, 70, 0
2, 155433, Control_c, 0, 64, 35
2, 155447, Note_on_c, 0, 43, 60
2, 155451, Control_c, 0, 64, 30
2, 155460, Note_on_c, 0, 70, 66
2, 155472, Control_c, 0, 64, 18
2, 155491, Control_c, 0, 64, 0
2, 155506, Note_on_c, 0, 42, 0
2, 155520, Note_on_c, 0, 69, 0
2, 155624, Note_on_c, 0, 45, 67
2, 155645, Note_on_c, 0, 43, 0
2, 155659, Control_c, 0, 64, 15
2, 155678, Control_c, 0, 64, 24
2, 155697, Control_c, 0, 64, 32
2, 155718, Control_c, 0, 64, 38
2, 155734, Control_c, 0, 64, 46
2, 155752, Control_c, 0, 64, 52
2, 155776, Note_on_c, 0, 46, 73
2, 155821, Note_on_c, 0, 45, 0
2, 155924, Control_c, 0, 64, 49
2, 155927, Note_on_c, 0, 70, 0
2, 155933, Note_on_c, 0, 48, 74
2, 155938, Note_on_c, 0, 66, 72
2, 155944, Control_c, 0, 64, 45
2, 155963, Control_c, 0, 64, 39
2, 155984, Note_on_c, 0, 46, 0
2, 155994, Control_c, 0, 64, 31
2, 156014, Control_c, 0, 64, 24
2, 156034, Control_c, 0, 64, 19
2, 156059, Note_on_c, 0, 62, 0
2, 156100, Note_on_c, 0, 46, 78
2, 156129, Control_c, 0, 64, 24
2, 156143, Note_on_c, 0, 48, 0
2, 156146, Control_c, 0, 64, 33
2, 156166, Control_c, 0, 64, 42
2, 156184, Control_c, 0, 64, 48
2, 156204, Control_c, 0, 64, 50
2, 156248, Note_on_c, 0, 45, 74
2, 156275, Note_on_c, 0, 46, 0
2, 156318, Control_c, 0, 64, 47
2, 156336, Control_c, 0, 64, 44
2, 156357, Control_c, 0, 64, 41
2, 156393, Control_c, 0, 64, 36
2, 156415, Note_on_c, 0, 46, 72
2, 156418, Note_on_c, 0, 67, 68
2, 156449, Control_c, 0, 64, 31
2, 156463, Note_on_c, 0, 66, 0
2, 156485, Control_c, 0, 64, 27
2, 156517, Note_on_c, 0, 45, 0
2, 156525, Control_c, 0, 64, 23
2, 156594, Note_on_c, 0, 48, 70
2, 156606, Note_on_c, 0, 69, 76
2, 156653, Note_on_c, 0, 46, 0
2, 156660, Note_on_c, 0, 67, 0
2, 156757, Note_on_c, 0, 50, 77
2, 156766, Note_on_c, 0, 70, 73
2, 156775, Note_on_c, 0, 48, 0
2, 156804, Note_on_c, 0, 69, 0
2, 156900, Note_on_c, 0, 51, 75
2, 156920, Note_on_c, 0, 72, 73
2, 156950, Note_on_c, 0, 70, 0
2, 156960, Note_on_c, 0, 50, 0
2, 157081, Note_on_c, 0, 50, 79
2, 157089, Note_on_c, 0, 70, 77
2, 157130, Note_on_c, 0, 51, 0
2, 157144, Note_on_c, 0, 72, 0
2, 157224, Note_on_c, 0, 48, 74
2, 157230, Note_on_c, 0, 69, 72
2, 157245, Note_on_c, 0, 50, 0
2, 157257, Control_c, 0, 64, 18
2, 157264, Note_on_c, 0, 70, 0
2, 157295, Control_c, 0, 64, 14
2, 157334, Control_c, 0, 64, 0
2, 157371, Note_on_c, 0, 50, 80
2, 157398, Note_on_c, 0, 70, 79
2, 157427, Note_on_c, 0, 69, 0
2, 157462, Note_on_c, 0, 48, 0
2, 157545, Note_on_c, 0, 72, 77
2, 157552, Note_on_c, 0, 70, 0
2, 157653, Control_c, 0, 64, 22
2, 157673, Control_c, 0, 64, 35
2, 157691, Control_c, 0, 64, 47
2, 157705, Note_on_c, 0, 74, 79
2, 157711, Control_c, 0, 64, 55
2, 157749, Control_c, 0, 64, 57
2, 157749, Note_on_c, 0, 72, 0
2, 157861, Control_c, 0, 64, 54
2, 157861, Note_on_c, 0, 55, 79
2, 157875, Note_on_c, 0, 75, 78
2, 157880, Control_c, 0, 64, 52
2, 157923, Note_on_c, 0, 74, 0
2, 157933, Control_c, 0, 64, 48
2, 157972, Control_c, 0, 64, 45
2, 158010, Control_c, 0, 64, 42
2, 158048, Control_c, 0, 64, 38
2, 158052, Note_on_c, 0, 50, 0
2, 158059, Note_on_c, 0, 74, 80
2, 158104, Control_c, 0, 64, 32
2, 158126, Note_on_c, 0, 75, 0
2, 158142, Control_c, 0, 64, 27
2, 158179, Control_c, 0, 64, 22
2, 158217, Control_c, 0, 64, 16
2, 158233, Note_on_c, 0, 73, 73
2, 158255, Control_c, 0, 64, 10
2, 158285, Note_on_c, 0, 74, 0
2, 158293, Control_c, 0, 64, 0
2, 158434, Note_on_c, 0, 74, 74
2, 158491, Note_on_c, 0, 73, 0
2, 158680, Note_on_c, 0, 72, 62
2, 158866, Note_on_c, 0, 70, 63
2, 158875, Note_on_c, 0, 72, 0
2, 159005, Note_on_c, 0, 70, 0
2, 159007, Note_on_c, 0, 54, 51
2, 159027, Note_on_c, 0, 69, 57
2, 159134, Note_on_c, 0, 55, 0
2, 159172, Note_on_c, 0, 70, 57
2, 159181, Note_on_c, 0, 69, 0
2, 159294, Note_on_c, 0, 70, 0
2, 159341, Note_on_c, 0, 72, 56
2, 159492, Note_on_c, 0, 54, 0
2, 159496, Note_on_c, 0, 72, 0
2, 159499, Note_on_c, 0, 70, 52
2, 159510, Note_on_c, 0, 55, 47
2, 159648, Note_on_c, 0, 74, 0
2, 159650, Note_on_c, 0, 70, 0
2, 159673, Note_on_c, 0, 53, 52
2, 159678, Note_on_c, 0, 55, 0
2, 159801, Note_on_c, 0, 53, 0
2, 159837, Note_on_c, 0, 52, 51
2, 159989, Note_on_c, 0, 74, 56
2, 159990, Note_on_c, 0, 52, 0
2, 159999, Note_on_c, 0, 50, 50
2, 160064, Note_on_c, 0, 74, 0
2, 160153, Note_on_c, 0, 52, 53
2, 160165, Note_on_c, 0, 50, 0
2, 160280, Note_on_c, 0, 52, 0
2, 160295, Note_on_c, 0, 53, 50
2, 160418, Note_on_c, 0, 53, 0
2, 160435, Note_on_c, 0, 79, 54
2, 160436, Note_on_c, 0, 67, 46
2, 160453, Note_on_c, 0, 52, 43
2, 160506, Note_on_c, 0, 52, 0
2, 160538, Note_on_c, 0, 67, 0
2, 160595, Note_on_c, 0, 77, 60
2, 160624, Note_on_c, 0, 79, 0
2, 160766, Note_on_c, 0, 76, 58
2, 160787, Note_on_c, 0, 77, 0
2, 160892, Note_on_c, 0, 76, 0
2, 160929, Note_on_c, 0, 55, 46
2, 160935, Note_on_c, 0, 74, 54
2, 160936, Note_on_c, 0, 71, 47
2, 160980, Note_on_c, 0, 55, 0
2, 161042, Note_on_c, 0, 71, 0
2, 161082, Note_on_c, 0, 76, 54
2, 161133, Note_on_c, 0, 74, 0
2, 161219, Note_on_c, 0, 76, 0
2, 161237, Note_on_c, 0, 77, 53
2, 161389, Note_on_c, 0, 77, 0
2, 161402, Note_on_c, 0, 76, 55
2, 161405, Note_on_c, 0, 60, 39
2, 161421, Note_on_c, 0, 72, 46
2, 161469, Note_on_c, 0, 72, 0
2, 161490, Note_on_c, 0, 76, 0
2, 161564, Note_on_c, 0, 60, 0
2, 161566, Note_on_c, 0, 58, 47
2, 161696, Note_on_c, 0, 58, 0
2, 161726, Note_on_c, 0, 57, 46
2, 161872, Note_on_c, 0, 57, 0
2, 161902, Note_on_c, 0, 79, 58
2, 161911, Note_on_c, 0, 55, 43
2, 161955, Note_on_c, 0, 79, 0
2, 162058, Note_on_c, 0, 55, 0
2, 162061, Note_on_c, 0, 57, 48
2, 162180, Note_on_c, 0, 57, 0
2, 162210, Note_on_c, 0, 58, 45
2, 162344, Note_on_c, 0, 58, 0
2, 162371, Note_on_c, 0, 57, 36
2, 162387, Note_on_c, 0, 72, 54
2, 162484, Note_on_c, 0, 57, 0
2, 162517, Note_on_c, 0, 72, 0
2, 162531, Note_on_c, 0, 70, 57
2, 162679, Note_on_c, 0, 70, 0
2, 162682, Note_on_c, 0, 69, 51
2, 162820, Note_on_c, 0, 69, 0
2, 162848, Note_on_c, 0, 67, 53
2, 162853, Note_on_c, 0, 60, 53
2, 162898, Note_on_c, 0, 60, 0
2, 163001, Note_on_c, 0, 67, 0
2, 163009, Note_on_c, 0, 69, 56
2, 163159, Note_on_c, 0, 69, 0
2, 163161, Note_on_c, 0, 70, 52
2, 163313, Note_on_c, 0, 69, 58
2, 163315, Note_on_c, 0, 53, 39
2, 163322, Note_on_c, 0, 70, 0
2, 163372, Note_on_c, 0, 69, 0
2, 163473, Note_on_c, 0, 51, 53
2, 163494, Note_on_c, 0, 53, 0
2, 163608, Note_on_c, 0, 51, 0
2, 163632, Note_on_c, 0, 50, 50
2, 163769, Note_on_c, 0, 50, 0
2, 163772, Note_on_c, 0, 72, 68
2, 163791, Note_on_c, 0, 48, 52
2, 163866, Note_on_c, 0, 72, 0
2, 163941, Note_on_c, 0, 50, 55
2, 163944, Note_on_c, 0, 48, 0
2, 164068, Note_on_c, 0, 50, 0
2, 164085, Note_on_c, 0, 51, 52
2, 164228, Note_on_c, 0, 51, 0
2, 164237, Note_on_c, 0, 50, 49
2, 164245, Note_on_c, 0, 77, 58
2, 164252, Note_on_c, 0, 65, 50
2, 164315, Note_on_c, 0, 50, 0
2, 164366, Note_on_c, 0, 65, 0
2, 164409, Note_on_c, 0, 75, 65
2, 164428, Note_on_c, 0, 77, 0
2, 164572, Note_on_c, 0, 74, 57
2, 164599, Note_on_c, 0, 75, 0
2, 164705, Note_on_c, 0, 74, 0
2, 164731, Note_on_c, 0, 53, 53
2, 164752, Note_on_c, 0, 72, 51
2, 164753, Note_on_c, 0, 69, 47
2, 164776, Note_on_c, 0, 53, 0
2, 164895, Note_on_c, 0, 74, 59
2, 164905, Note_on_c, 0, 69, 0
2, 164928, Note_on_c, 0, 72, 0
2, 165037, Note_on_c, 0, 74, 0
2, 165059, Note_on_c, 0, 75, 59
2, 165207, Note_on_c, 0, 58, 50
2, 165209, Note_on_c, 0, 74, 63
2, 165227, Note_on_c, 0, 70, 54
2, 165313, Note_on_c, 0, 75, 0
2, 165369, Note_on_c, 0, 58, 0
2, 165380, Note_on_c, 0, 57, 57
2, 165545, Note_on_c, 0, 55, 59
2, 165587, Note_on_c, 0, 57, 0
2, 165713, Note_on_c, 0, 55, 0
2, 165714, Note_on_c, 0, 54, 56
2, 165718, Note_on_c, 0, 69, 74
2, 165785, Note_on_c, 0, 70, 0
2, 165893, Note_on_c, 0, 55, 60
2, 165902, Note_on_c, 0, 54, 0
2, 166049, Note_on_c, 0, 55, 0
2, 166052, Note_on_c, 0, 57, 67
2, 166118, Note_on_c, 0, 74, 0
2, 166215, Note_on_c, 0, 55, 64
2, 166220, Note_on_c, 0, 73, 72
2, 166258, Note_on_c, 0, 57, 0
2, 166381, Note_on_c, 0, 53, 65
2, 166402, Note_on_c, 0, 74, 79
2, 166412, Note_on_c, 0, 55, 0
2, 166480, Note_on_c, 0, 73, 0
2, 166551, Note_on_c, 0, 52, 67
2, 166563, Note_on_c, 0, 76, 80
2, 166568, Note_on_c, 0, 53, 0
2, 166608, Note_on_c, 0, 74, 0
2, 166703, Note_on_c, 0, 50, 70
2, 166710, Note_on_c, 0, 77, 79
2, 166725, Note_on_c, 0, 52, 0
2, 166765, Note_on_c, 0, 76, 0
2, 166861, Note_on_c, 0, 52, 70
2, 166872, Note_on_c, 0, 76, 80
2, 166913, Note_on_c, 0, 50, 0
2, 166950, Note_on_c, 0, 77, 0
2, 167013, Note_on_c, 0, 53, 65
2, 167013, Note_on_c, 0, 74, 78
2, 167030, Note_on_c, 0, 52, 0
2, 167051, Note_on_c, 0, 76, 0
2, 167139, Note_on_c, 0, 53, 0
2, 167151, Note_on_c, 0, 52, 70
2, 167156, Note_on_c, 0, 76, 82
2, 167215, Note_on_c, 0, 74, 0
2, 167307, Note_on_c, 0, 50, 65
2, 167308, Note_on_c, 0, 77, 82
2, 167325, Control_c, 0, 64, 12
2, 167335, Note_on_c, 0, 52, 0
2, 167345, Control_c, 0, 64, 21
2, 167349, Note_on_c, 0, 76, 0
2, 167364, Control_c, 0, 64, 29
2, 167385, Control_c, 0, 64, 36
2, 167402, Control_c, 0, 64, 44
2, 167419, Control_c, 0, 64, 50
2, 167438, Control_c, 0, 64, 53
2, 167442, Note_on_c, 0, 79, 76
2, 167457, Control_c, 0, 64, 55
2, 167458, Note_on_c, 0, 49, 73
2, 167459, Note_on_c, 0, 77, 0
2, 167500, Note_on_c, 0, 50, 0
2, 167510, Control_c, 0, 64, 57
2, 167546, Note_on_c, 0, 79, 0
2, 167612, Note_on_c, 0, 81, 80
2, 167615, Note_on_c, 0, 47, 69
2, 167622, Note_on_c, 0, 49, 0
2, 167771, Note_on_c, 0, 49, 70
2, 167775, Note_on_c, 0, 79, 80
2, 167814, Control_c, 0, 64, 54
2, 167820, Note_on_c, 0, 47, 0
2, 167852, Control_c, 0, 64, 52
2, 167856, Note_on_c, 0, 81, 0
2, 167891, Control_c, 0, 64, 50
2, 167925, Control_c, 0, 64, 47
2, 167929, Note_on_c, 0, 50, 73
2, 167929, Note_on_c, 0, 77, 82
2, 167946, Control_c, 0, 64, 45
2, 167965, Control_c, 0, 64, 43
2, 167965, Note_on_c, 0, 49, 0
2, 167977, Note_on_c, 0, 79, 0
2, 167981, Control_c, 0, 64, 41
2, 168039, Control_c, 0, 64, 37
2, 168093, Note_on_c, 0, 49, 80
2, 168097, Control_c, 0, 64, 32
2, 168102, Note_on_c, 0, 79, 86
2, 168134, Control_c, 0, 64, 26
2, 168150, Note_on_c, 0, 77, 0
2, 168158, Note_on_c, 0, 50, 0
2, 168174, Control_c, 0, 64, 22
2, 168220, Note_on_c, 0, 69, 0
2, 168227, Control_c, 0, 64, 18
2, 168285, Control_c, 0, 64, 11
2, 168304, Control_c, 0, 64, 0
2, 168384, Note_on_c, 0, 69, 83
2, 168402, Note_on_c, 0, 45, 68
2, 168438, Note_on_c, 0, 49, 0
2, 168489, Control_c, 0, 64, 26
2, 168500, Note_on_c, 0, 79, 0
2, 168506, Control_c, 0, 64, 39
2, 168526, Control_c, 0, 64, 50
2, 168547, Control_c, 0, 64, 54
2, 168621, Control_c, 0, 64, 49
2, 168640, Control_c, 0, 64, 45
2, 168659, Control_c, 0, 64, 41
2, 168664, Note_on_c, 0, 70, 81
2, 168671, Note_on_c, 0, 77, 72
2, 168674, Note_on_c, 0, 50, 71
2, 168679, Control_c, 0, 64, 37
2, 168734, Control_c, 0, 64, 32
2, 168745, Note_on_c, 0, 69, 0
2, 168763, Note_on_c, 0, 45, 0
2, 168773, Control_c, 0, 64, 27
2, 168810, Control_c, 0, 64, 22
2, 168924, Control_c, 0, 64, 33
2, 168934, Note_on_c, 0, 69, 79
2, 168943, Control_c, 0, 64, 41
2, 168962, Control_c, 0, 64, 50
2, 168983, Control_c, 0, 64, 55
2, 168999, Control_c, 0, 64, 59
2, 168999, Note_on_c, 0, 70, 0
2, 169017, Control_c, 0, 64, 61
2, 169032, Note_on_c, 0, 77, 0
2, 169036, Control_c, 0, 64, 63
2, 169056, Control_c, 0, 64, 64
2, 169131, Control_c, 0, 64, 63
2, 169138, Note_on_c, 0, 69, 0
2, 169149, Control_c, 0, 64, 62
2, 169169, Control_c, 0, 64, 60
2, 169170, Note_on_c, 0, 67, 75
2, 169172, Note_on_c, 0, 76, 73
2, 169208, Control_c, 0, 64, 57
2, 169226, Control_c, 0, 64, 55
2, 169246, Control_c, 0, 64, 52
2, 169265, Control_c, 0, 64, 49
2, 169283, Control_c, 0, 64, 46
2, 169322, Control_c, 0, 64, 44
2, 169444, Note_on_c, 0, 70, 72
2, 169504, Note_on_c, 0, 67, 0
2, 169506, Control_c, 0, 64, 42
2, 169600, Control_c, 0, 64, 37
2, 169675, Control_c, 0, 64, 33
2, 169692, Note_on_c, 0, 49, 50
2, 169695, Note_on_c, 0, 69, 71
2, 169738, Note_on_c, 0, 70, 0
2, 169750, Control_c, 0, 64, 28
2, 169765, Note_on_c, 0, 50, 0
2, 169928, Note_on_c, 0, 67, 62
2, 169941, Control_c, 0, 64, 33
2, 169960, Control_c, 0, 64, 41
2, 169966, Note_on_c, 0, 69, 0
2, 169978, Control_c, 0, 64, 50
2, 169998, Control_c, 0, 64, 56
2, 170017, Control_c, 0, 64, 60
2, 170036, Control_c, 0, 64, 62
2, 170054, Control_c, 0, 64, 63
2, 170073, Control_c, 0, 64, 64
2, 170148, Control_c, 0, 64, 62
2, 170161, Note_on_c, 0, 67, 0
2, 170164, Control_c, 0, 64, 58
2, 170169, Note_on_c, 0, 49, 0
2, 170184, Control_c, 0, 64, 53
2, 170187, Note_on_c, 0, 65, 56
2, 170191, Note_on_c, 0, 50, 45
2, 170205, Control_c, 0, 64, 46
2, 170225, Control_c, 0, 64, 42
2, 170282, Control_c, 0, 64, 47
2, 170299, Control_c, 0, 64, 52
2, 170318, Control_c, 0, 64, 55
2, 170337, Control_c, 0, 64, 58
2, 170357, Control_c, 0, 64, 60
2, 170390, Control_c, 0, 64, 61
2, 170444, Note_on_c, 0, 76, 0
2, 170449, Note_on_c, 0, 74, 68
2, 170521, Control_c, 0, 64, 59
2, 170542, Control_c, 0, 64, 57
2, 170580, Control_c, 0, 64, 54
2, 170617, Control_c, 0, 64, 52
2, 170641, Note_on_c, 0, 65, 0
2, 170655, Control_c, 0, 64, 48
2, 170673, Control_c, 0, 64, 46
2, 170692, Control_c, 0, 64, 44
2, 170700, Note_on_c, 0, 55, 48
2, 170701, Note_on_c, 0, 58, 51
2, 170703, Note_on_c, 0, 75, 69
2, 170730, Control_c, 0, 64, 42
2, 170748, Control_c, 0, 64, 40
2, 170771, Note_on_c, 0, 74, 0
2, 170784, Note_on_c, 0, 50, 0
2, 170806, Control_c, 0, 64, 35
2, 170862, Control_c, 0, 64, 31
2, 170945, Note_on_c, 0, 74, 63
2, 170997, Note_on_c, 0, 75, 0
2, 171053, Control_c, 0, 64, 27
2, 171189, Note_on_c, 0, 57, 48
2, 171190, Note_on_c, 0, 73, 59
2, 171221, Note_on_c, 0, 74, 0
2, 171314, Note_on_c, 0, 58, 0
2, 171368, Control_c, 0, 64, 23
2, 171465, Note_on_c, 0, 76, 59
2, 171535, Note_on_c, 0, 73, 0
2, 171695, Note_on_c, 0, 74, 61
2, 171706, Note_on_c, 0, 55, 0
2, 171714, Note_on_c, 0, 54, 44
2, 171755, Note_on_c, 0, 76, 0
2, 171934, Control_c, 0, 64, 29
2, 171946, Note_on_c, 0, 72, 67
2, 171952, Control_c, 0, 64, 36
2, 171973, Control_c, 0, 64, 45
2, 171992, Control_c, 0, 64, 54
2, 172012, Control_c, 0, 64, 59
2, 172023, Note_on_c, 0, 74, 0
2, 172029, Control_c, 0, 64, 61
2, 172050, Control_c, 0, 64, 64
2, 172067, Control_c, 0, 64, 65
2, 172088, Control_c, 0, 64, 67
2, 172124, Control_c, 0, 64, 70
2, 172182, Control_c, 0, 64, 68
2, 172197, Note_on_c, 0, 57, 0
2, 172200, Note_on_c, 0, 55, 60
2, 172202, Control_c, 0, 64, 63
2, 172203, Note_on_c, 0, 71, 69
2, 172219, Control_c, 0, 64, 57
2, 172221, Note_on_c, 0, 72, 0
2, 172237, Control_c, 0, 64, 49
2, 172249, Note_on_c, 0, 54, 0
2, 172256, Control_c, 0, 64, 44
2, 172276, Control_c, 0, 64, 42
2, 172347, Control_c, 0, 64, 45
2, 172365, Control_c, 0, 64, 50
2, 172386, Control_c, 0, 64, 55
2, 172403, Control_c, 0, 64, 59
2, 172424, Control_c, 0, 64, 63
2, 172442, Control_c, 0, 64, 66
2, 172458, Note_on_c, 0, 53, 68
2, 172461, Control_c, 0, 64, 68
2, 172477, Note_on_c, 0, 55, 0
2, 172478, Control_c, 0, 64, 70
2, 172498, Control_c, 0, 64, 72
2, 172519, Control_c, 0, 64, 74
2, 172631, Note_on_c, 0, 71, 0
2, 172692, Note_on_c, 0, 70, 76
2, 172700, Note_on_c, 0, 52, 66
2, 172704, Control_c, 0, 64, 71
2, 172713, Note_on_c, 0, 67, 60
2, 172731, Control_c, 0, 64, 68
2, 172751, Control_c, 0, 64, 62
2, 172751, Note_on_c, 0, 53, 0
2, 172768, Control_c, 0, 64, 55
2, 172786, Control_c, 0, 64, 48
2, 172805, Control_c, 0, 64, 44
2, 172825, Control_c, 0, 64, 41
2, 172919, Control_c, 0, 64, 46
2, 172938, Control_c, 0, 64, 53
2, 172943, Control_c, 0, 64, 59
2, 172943, Note_on_c, 0, 50, 72
2, 172963, Control_c, 0, 64, 64
2, 172983, Control_c, 0, 64, 67
2, 172985, Note_on_c, 0, 52, 0
2, 173002, Control_c, 0, 64, 69
2, 173039, Control_c, 0, 64, 72
2, 173076, Control_c, 0, 64, 74
2, 173115, Note_on_c, 0, 70, 0
2, 173153, Control_c, 0, 64, 69
2, 173171, Control_c, 0, 64, 63
2, 173182, Note_on_c, 0, 69, 79
2, 173186, Note_on_c, 0, 49, 63
2, 173189, Control_c, 0, 64, 55
2, 173208, Control_c, 0, 64, 46
2, 173228, Control_c, 0, 64, 39
2, 173252, Note_on_c, 0, 50, 0
2, 173260, Control_c, 0, 64, 34
2, 173373, Control_c, 0, 64, 42
2, 173395, Control_c, 0, 64, 50
2, 173416, Control_c, 0, 64, 57
2, 173434, Control_c, 0, 64, 62
2, 173453, Control_c, 0, 64, 65
2, 173460, Note_on_c, 0, 52, 64
2, 173472, Control_c, 0, 64, 67
2, 173492, Control_c, 0, 64, 70
2, 173508, Control_c, 0, 64, 73
2, 173530, Control_c, 0, 64, 75
2, 173540, Note_on_c, 0, 67, 0
2, 173569, Control_c, 0, 64, 78
2, 173590, Note_on_c, 0, 49, 0
2, 173645, Control_c, 0, 64, 73
2, 173663, Control_c, 0, 64, 67
2, 173683, Control_c, 0, 64, 59
2, 173701, Control_c, 0, 64, 52
2, 173703, Note_on_c, 0, 65, 76
2, 173704, Note_on_c, 0, 50, 62
2, 173720, Control_c, 0, 64, 50
2, 173750, Note_on_c, 0, 52, 0
2, 173776, Control_c, 0, 64, 54
2, 173795, Control_c, 0, 64, 57
2, 173814, Control_c, 0, 64, 61
2, 173832, Control_c, 0, 64, 64
2, 173851, Control_c, 0, 64, 67
2, 173890, Control_c, 0, 64, 69
2, 173952, Note_on_c, 0, 48, 68
2, 173955, Note_on_c, 0, 64, 76
2, 173968, Note_on_c, 0, 50, 0
2, 174018, Note_on_c, 0, 65, 0
2, 174099, Control_c, 0, 64, 67
2, 174118, Control_c, 0, 64, 66
2, 174136, Control_c, 0, 64, 63
2, 174155, Control_c, 0, 64, 57
2, 174174, Control_c, 0, 64, 49
2, 174191, Control_c, 0, 64, 40
2, 174191, Note_on_c, 0, 47, 66
2, 174198, Note_on_c, 0, 62, 79
2, 174226, Control_c, 0, 64, 31
2, 174239, Note_on_c, 0, 64, 0
2, 174243, Note_on_c, 0, 48, 0
2, 174245, Control_c, 0, 64, 27
2, 174360, Control_c, 0, 64, 32
2, 174378, Control_c, 0, 64, 38
2, 174396, Control_c, 0, 64, 46
2, 174415, Control_c, 0, 64, 55
2, 174435, Control_c, 0, 64, 60
2, 174454, Control_c, 0, 64, 63
2, 174469, Note_on_c, 0, 65, 77
2, 174470, Control_c, 0, 64, 65
2, 174490, Control_c, 0, 64, 67
2, 174528, Control_c, 0, 64, 70
2, 174564, Control_c, 0, 64, 74
2, 174589, Note_on_c, 0, 62, 0
2, 174603, Control_c, 0, 64, 76
2, 174666, Note_on_c, 0, 47, 0
2, 174681, Control_c, 0, 64, 73
2, 174695, Note_on_c, 0, 46, 63
2, 174696, Control_c, 0, 64, 66
2, 174702, Note_on_c, 0, 64, 75
2, 174715, Control_c, 0, 64, 56
2, 174716, Note_on_c, 0, 67, 72
2, 174736, Control_c, 0, 64, 46
2, 174747, Note_on_c, 0, 65, 0
2, 174755, Control_c, 0, 64, 40
2, 174781, Note_on_c, 0, 69, 0
2, 174810, Control_c, 0, 64, 45
2, 174831, Control_c, 0, 64, 53
2, 174848, Control_c, 0, 64, 59
2, 174869, Control_c, 0, 64, 64
2, 174887, Control_c, 0, 64, 67
2, 174925, Control_c, 0, 64, 65
2, 174944, Control_c, 0, 64, 62
2, 174960, Note_on_c, 0, 62, 81
2, 174963, Control_c, 0, 64, 61
2, 174998, Note_on_c, 0, 64, 0
2, 174999, Control_c, 0, 64, 62
2, 175019, Control_c, 0, 64, 64
2, 175038, Control_c, 0, 64, 65
2, 175056, Control_c, 0, 64, 67
2, 175076, Control_c, 0, 64, 68
2, 175149, Note_on_c, 0, 46, 0
2, 175204, Control_c, 0, 64, 66
2, 175223, Control_c, 0, 64, 63
2, 175225, Note_on_c, 0, 45, 63
2, 175242, Control_c, 0, 64, 58
2, 175255, Note_on_c, 0, 61, 74
2, 175260, Control_c, 0, 64, 51
2, 175280, Control_c, 0, 64, 44
2, 175298, Control_c, 0, 64, 40
2, 175323, Note_on_c, 0, 62, 0
2, 175339, Control_c, 0, 64, 35
2, 175449, Control_c, 0, 64, 31
2, 175562, Control_c, 0, 64, 38
2, 175566, Note_on_c, 0, 57, 71
2, 175567, Note_on_c, 0, 45, 0
2, 175582, Control_c, 0, 64, 48
2, 175603, Control_c, 0, 64, 58
2, 175621, Control_c, 0, 64, 62
2, 175640, Control_c, 0, 64, 65
2, 175658, Control_c, 0, 64, 67
2, 175676, Control_c, 0, 64, 70
2, 175696, Control_c, 0, 64, 72
2, 175715, Control_c, 0, 64, 74
2, 175808, Control_c, 0, 64, 71
2, 175817, Note_on_c, 0, 57, 0
2, 175819, Note_on_c, 0, 62, 76
2, 175820, Note_on_c, 0, 58, 61
2, 175827, Control_c, 0, 64, 67
2, 175847, Control_c, 0, 64, 64
2, 175847, Note_on_c, 0, 65, 62
2, 175864, Note_on_c, 0, 67, 0
2, 175866, Control_c, 0, 64, 60
2, 175885, Control_c, 0, 64, 56
2, 175903, Control_c, 0, 64, 54
2, 175922, Control_c, 0, 64, 52
2, 175941, Control_c, 0, 64, 50
2, 175960, Control_c, 0, 64, 47
2, 175980, Control_c, 0, 64, 45
2, 175999, Control_c, 0, 64, 42
2, 176037, Control_c, 0, 64, 37
2, 176067, Note_on_c, 0, 57, 63
2, 176073, Note_on_c, 0, 61, 0
2, 176075, Note_on_c, 0, 58, 0
2, 176092, Control_c, 0, 64, 31
2, 176146, Control_c, 0, 64, 27
2, 176182, Control_c, 0, 64, 22
2, 176222, Control_c, 0, 64, 17
2, 176260, Control_c, 0, 64, 11
2, 176315, Control_c, 0, 64, 0
2, 176318, Note_on_c, 0, 55, 49
2, 176334, Note_on_c, 0, 64, 60
2, 176370, Note_on_c, 0, 57, 0
2, 176470, Note_on_c, 0, 65, 0
2, 176585, Note_on_c, 0, 58, 52
2, 176603, Note_on_c, 0, 55, 0
2, 176848, Note_on_c, 0, 61, 62
2, 176869, Note_on_c, 0, 58, 0
2, 176875, Note_on_c, 0, 57, 38
2, 176957, Control_c, 0, 64, 9
2, 176975, Control_c, 0, 64, 16
2, 176990, Note_on_c, 0, 62, 0
2, 176994, Control_c, 0, 64, 23
2, 177014, Control_c, 0, 64, 30
2, 177034, Control_c, 0, 64, 39
2, 177052, Control_c, 0, 64, 50
2, 177072, Control_c, 0, 64, 57
2, 177105, Control_c, 0, 64, 61
2, 177123, Control_c, 0, 64, 62
2, 177143, Control_c, 0, 64, 63
2, 177158, Note_on_c, 0, 55, 47
2, 177181, Control_c, 0, 64, 64
2, 177190, Note_on_c, 0, 57, 0
2, 177220, Note_on_c, 0, 64, 0
2, 177369, Control_c, 0, 64, 63
2, 177388, Control_c, 0, 64, 62
2, 177408, Control_c, 0, 64, 60
2, 177444, Control_c, 0, 64, 58
2, 177478, Note_on_c, 0, 62, 54
2, 177479, Note_on_c, 0, 53, 36
2, 177483, Control_c, 0, 64, 55
2, 177495, Note_on_c, 0, 55, 0
2, 177520, Control_c, 0, 64, 52
2, 177559, Control_c, 0, 64, 48
2, 177559, Note_on_c, 0, 61, 0
2, 177597, Control_c, 0, 64, 45
2, 177635, Control_c, 0, 64, 43
2, 177690, Control_c, 0, 64, 40
2, 177776, Note_on_c, 0, 60, 59
2, 177785, Control_c, 0, 64, 36
2, 177800, Note_on_c, 0, 57, 48
2, 177932, Note_on_c, 0, 53, 0
2, 177999, Note_on_c, 0, 57, 0
2, 178004, Note_on_c, 0, 58, 60
2, 178021, Note_on_c, 0, 55, 53
2, 178063, Note_on_c, 0, 60, 0
2, 178243, Note_on_c, 0, 55, 0
2, 178254, Note_on_c, 0, 57, 63
2, 178263, Note_on_c, 0, 53, 52
2, 178300, Note_on_c, 0, 58, 0
2, 178348, Control_c, 0, 64, 32
2, 178483, Note_on_c, 0, 55, 63
2, 178486, Note_on_c, 0, 53, 0
2, 178489, Note_on_c, 0, 52, 57
2, 178491, Note_on_c, 0, 57, 0
2, 178556, Control_c, 0, 64, 28
2, 178720, Note_on_c, 0, 58, 62
2, 178727, Note_on_c, 0, 50, 59
2, 178730, Note_on_c, 0, 52, 0
2, 178746, Control_c, 0, 64, 24
2, 178747, Note_on_c, 0, 55, 0
2, 178968, Note_on_c, 0, 49, 54
2, 178969, Note_on_c, 0, 50, 0
2, 178970, Note_on_c, 0, 57, 62
2, 179100, Note_on_c, 0, 58, 0
2, 179109, Note_on_c, 0, 62, 0
2, 179218, Note_on_c, 0, 52, 52
2, 179230, Note_on_c, 0, 49, 0
2, 179230, Note_on_c, 0, 55, 55
2, 179243, Note_on_c, 0, 57, 0
2, 179453, Note_on_c, 0, 52, 0
2, 179463, Note_on_c, 0, 53, 58
2, 179484, Note_on_c, 0, 50, 49
2, 179526, Note_on_c, 0, 55, 0
2, 179699, Note_on_c, 0, 50, 0
2, 179702, Note_on_c, 0, 48, 57
2, 179705, Note_on_c, 0, 57, 61
2, 179745, Note_on_c, 0, 53, 0
2, 179929, Note_on_c, 0, 48, 0
2, 179943, Note_on_c, 0, 55, 58
2, 179944, Note_on_c, 0, 46, 48
2, 180024, Note_on_c, 0, 57, 0
2, 180052, Control_c, 0, 64, 20
2, 180090, Control_c, 0, 64, 12
2, 180109, Control_c, 0, 64, 0
2, 180193, Note_on_c, 0, 46, 0
2, 180201, Note_on_c, 0, 45, 52
2, 180203, Note_on_c, 0, 53, 57
2, 180304, Note_on_c, 0, 55, 0
2, 180446, Note_on_c, 0, 45, 0
2, 180446, Note_on_c, 0, 52, 52
2, 180457, Note_on_c, 0, 43, 44
2, 180488, Note_on_c, 0, 53, 0
2, 180696, Note_on_c, 0, 46, 47
2, 180698, Note_on_c, 0, 52, 0
2, 180703, Note_on_c, 0, 50, 54
2, 180765, Note_on_c, 0, 43, 0
2, 180959, Note_on_c, 0, 50, 0
2, 180965, Note_on_c, 0, 49, 53
2, 180974, Note_on_c, 0, 45, 50
2, 180977, Note_on_c, 0, 46, 0
2, 181235, Note_on_c, 0, 43, 49
2, 181244, Note_on_c, 0, 52, 52
2, 181273, Note_on_c, 0, 49, 0
2, 181303, Note_on_c, 0, 45, 0
2, 181485, Note_on_c, 0, 52, 0
2, 181489, Note_on_c, 0, 43, 0
2, 181506, Note_on_c, 0, 41, 47
2, 181506, Note_on_c, 0, 50, 51
2, 181697, Note_on_c, 0, 52, 53
2, 181704, Note_on_c, 0, 50, 0
2, 181771, Control_c, 0, 64, 11
2, 181779, Note_on_c, 0, 41, 0
2, 181850, Note_on_c, 0, 52, 0
2, 181852, Note_on_c, 0, 53, 57
2, 181995, Control_c, 0, 64, 0
2, 181995, Note_on_c, 0, 53, 0
2, 182009, Note_on_c, 0, 55, 58
2, 182030, Note_on_c, 0, 46, 65
2, 182157, Note_on_c, 0, 46, 0
2, 182169, Note_on_c, 0, 53, 60
2, 182204, Note_on_c, 0, 55, 0
2, 182335, Note_on_c, 0, 52, 59
2, 182342, Note_on_c, 0, 53, 0
2, 182475, Note_on_c, 0, 45, 60
2, 182484, Note_on_c, 0, 52, 0
2, 182497, Note_on_c, 0, 53, 63
2, 182658, Note_on_c, 0, 43, 64
2, 182675, Note_on_c, 0, 55, 63
2, 182680, Note_on_c, 0, 45, 0
2, 182687, Note_on_c, 0, 53, 0
2, 182813, Note_on_c, 0, 43, 0
2, 182816, Note_on_c, 0, 41, 68
2, 182825, Note_on_c, 0, 57, 71
2, 182864, Note_on_c, 0, 55, 0
2, 182975, Note_on_c, 0, 58, 70
2, 182984, Note_on_c, 0, 40, 64
2, 182986, Note_on_c, 0, 41, 0
2, 183010, Note_on_c, 0, 57, 0
2, 183088, Control_c, 0, 64, 14
2, 183104, Control_c, 0, 64, 21
2, 183122, Control_c, 0, 64, 29
2, 183128, Note_on_c, 0, 41, 65
2, 183137, Note_on_c, 0, 57, 75
2, 183140, Control_c, 0, 64, 37
2, 183162, Control_c, 0, 64, 47
2, 183165, Note_on_c, 0, 40, 0
2, 183179, Control_c, 0, 64, 55
2, 183198, Control_c, 0, 64, 59
2, 183217, Control_c, 0, 64, 61
2, 183225, Note_on_c, 0, 58, 0
2, 183238, Control_c, 0, 64, 62
2, 183256, Control_c, 0, 64, 63
2, 183274, Control_c, 0, 64, 66
2, 183280, Note_on_c, 0, 55, 72
2, 183294, Control_c, 0, 64, 67
2, 183304, Note_on_c, 0, 43, 64
2, 183315, Note_on_c, 0, 41, 0
2, 183319, Note_on_c, 0, 57, 0
2, 183341, Note_on_c, 0, 55, 0
2, 183424, Control_c, 0, 64, 65
2, 183441, Note_on_c, 0, 62, 81
2, 183443, Control_c, 0, 64, 64
2, 183444, Note_on_c, 0, 43, 0
2, 183454, Note_on_c, 0, 41, 69
2, 183462, Control_c, 0, 64, 62
2, 183466, Note_on_c, 0, 57, 63
2, 183482, Control_c, 0, 64, 61
2, 183521, Control_c, 0, 64, 60
2, 183576, Control_c, 0, 64, 58
2, 183623, Note_on_c, 0, 64, 78
2, 183634, Control_c, 0, 64, 55
2, 183639, Note_on_c, 0, 40, 69
2, 183664, Note_on_c, 0, 41, 0
2, 183668, Control_c, 0, 64, 51
2, 183690, Control_c, 0, 64, 47
2, 183693, Note_on_c, 0, 62, 0
2, 183709, Control_c, 0, 64, 43
2, 183750, Control_c, 0, 64, 37
2, 183780, Note_on_c, 0, 65, 81
2, 183781, Note_on_c, 0, 38, 74
2, 183789, Note_on_c, 0, 40, 0
2, 183836, Note_on_c, 0, 64, 0
2, 183930, Note_on_c, 0, 37, 73
2, 183946, Note_on_c, 0, 38, 0
2, 183946, Note_on_c, 0, 67, 82
2, 183995, Note_on_c, 0, 65, 0
2, 184075, Note_on_c, 0, 57, 0
2, 184093, Note_on_c, 0, 65, 81
2, 184094, Note_on_c, 0, 38, 77
2, 184134, Note_on_c, 0, 37, 0
2, 184177, Note_on_c, 0, 67, 0
2, 184235, Note_on_c, 0, 64, 78
2, 184237, Note_on_c, 0, 40, 73
2, 184249, Note_on_c, 0, 38, 0
2, 184290, Note_on_c, 0, 65, 0
2, 184331, Control_c, 0, 64, 31
2, 184351, Control_c, 0, 64, 18
2, 184369, Control_c, 0, 64, 0
2, 184391, Note_on_c, 0, 65, 83
2, 184397, Note_on_c, 0, 38, 74
2, 184410, Note_on_c, 0, 64, 0
2, 184412, Note_on_c, 0, 40, 0
2, 184502, Control_c, 0, 64, 11
2, 184520, Control_c, 0, 64, 36
2, 184527, Note_on_c, 0, 38, 0
2, 184539, Control_c, 0, 64, 54
2, 184557, Control_c, 0, 64, 64
2, 184577, Control_c, 0, 64, 68
2, 184589, Note_on_c, 0, 67, 80
2, 184595, Control_c, 0, 64, 70
2, 184612, Note_on_c, 0, 55, 76
2, 184729, Control_c, 0, 64, 68
2, 184738, Note_on_c, 0, 69, 80
2, 184748, Control_c, 0, 64, 66
2, 184749, Note_on_c, 0, 55, 0
2, 184750, Note_on_c, 0, 53, 71
2, 184780, Control_c, 0, 64, 64
2, 184788, Note_on_c, 0, 67, 0
2, 184799, Control_c, 0, 64, 62
2, 184818, Control_c, 0, 64, 60
2, 184857, Control_c, 0, 64, 56
2, 184874, Control_c, 0, 64, 52
2, 184893, Control_c, 0, 64, 48
2, 184896, Note_on_c, 0, 70, 79
2, 184898, Note_on_c, 0, 52, 71
2, 184906, Note_on_c, 0, 53, 0
2, 184912, Control_c, 0, 64, 45
2, 184931, Note_on_c, 0, 69, 0
2, 184932, Control_c, 0, 64, 43
2, 185042, Note_on_c, 0, 69, 83
2, 185045, Note_on_c, 0, 53, 76
2, 185053, Note_on_c, 0, 52, 0
2, 185118, Control_c, 0, 64, 41
2, 185157, Note_on_c, 0, 70, 0
2, 185158, Control_c, 0, 64, 36
2, 185165, Note_on_c, 0, 55, 72
2, 185177, Control_c, 0, 64, 26
2, 185185, Note_on_c, 0, 53, 0
2, 185185, Note_on_c, 0, 67, 81
2, 185196, Control_c, 0, 64, 0
2, 185219, Note_on_c, 0, 69, 0
2, 185319, Note_on_c, 0, 69, 84
2, 185327, Note_on_c, 0, 53, 76
2, 185366, Control_c, 0, 64, 26
2, 185378, Note_on_c, 0, 55, 0
2, 185384, Control_c, 0, 64, 44
2, 185404, Control_c, 0, 64, 61
2, 185417, Note_on_c, 0, 67, 0
2, 185422, Control_c, 0, 64, 73
2, 185444, Control_c, 0, 64, 83
2, 185459, Note_on_c, 0, 53, 0
2, 185461, Control_c, 0, 64, 95
2, 185480, Control_c, 0, 64, 102
2, 185517, Control_c, 0, 64, 106
2, 185573, Control_c, 0, 64, 92
2, 185590, Note_on_c, 0, 40, 87
2, 185591, Control_c, 0, 64, 73
2, 185612, Control_c, 0, 64, 53
2, 185630, Control_c, 0, 64, 44
2, 185670, Control_c, 0, 64, 53
2, 185688, Control_c, 0, 64, 62
2, 185707, Control_c, 0, 64, 69
2, 185739, Control_c, 0, 64, 75
2, 185753, Note_on_c, 0, 65, 0
2, 185758, Control_c, 0, 64, 79
2, 185778, Control_c, 0, 64, 81
2, 185812, Note_on_c, 0, 69, 0
2, 185855, Note_on_c, 0, 41, 77
2, 185855, Note_on_c, 0, 74, 89
2, 185873, Note_on_c, 0, 65, 74
2, 185911, Control_c, 0, 64, 79
2, 185919, Note_on_c, 0, 40, 0
2, 185949, Control_c, 0, 64, 76
2, 185968, Control_c, 0, 64, 74
2, 185986, Control_c, 0, 64, 72
2, 186005, Control_c, 0, 64, 69
2, 186024, Control_c, 0, 64, 64
2, 186044, Control_c, 0, 64, 55
2, 186061, Control_c, 0, 64, 42
2, 186079, Control_c, 0, 64, 25
2, 186098, Control_c, 0, 64, 8
2, 186106, Note_on_c, 0, 43, 82
2, 186117, Control_c, 0, 64, 0
2, 186194, Control_c, 0, 64, 21
2, 186210, Note_on_c, 0, 41, 0
2, 186211, Control_c, 0, 64, 39
2, 186231, Control_c, 0, 64, 56
2, 186249, Note_on_c, 0, 65, 0
2, 186250, Control_c, 0, 64, 65
2, 186270, Control_c, 0, 64, 68
2, 186307, Control_c, 0, 64, 71
2, 186361, Note_on_c, 0, 45, 73
2, 186361, Note_on_c, 0, 73, 85
2, 186375, Note_on_c, 0, 64, 66
2, 186382, Control_c, 0, 64, 69
2, 186401, Control_c, 0, 64, 67
2, 186418, Note_on_c, 0, 43, 0
2, 186420, Control_c, 0, 64, 65
2, 186434, Note_on_c, 0, 74, 0
2, 186439, Control_c, 0, 64, 61
2, 186457, Control_c, 0, 64, 55
2, 186477, Control_c, 0, 64, 43
2, 186496, Control_c, 0, 64, 28
2, 186514, Control_c, 0, 64, 15
2, 186551, Control_c, 0, 64, 0
2, 186602, Note_on_c, 0, 47, 74
2, 186628, Control_c, 0, 64, 19
2, 186648, Control_c, 0, 64, 37
2, 186667, Control_c, 0, 64, 54
2, 186668, Note_on_c, 0, 45, 0
2, 186699, Control_c, 0, 64, 65
2, 186718, Control_c, 0, 64, 71
2, 186737, Control_c, 0, 64, 75
2, 186756, Control_c, 0, 64, 79
2, 186776, Control_c, 0, 64, 82
2, 186793, Control_c, 0, 64, 84
2, 186804, Note_on_c, 0, 73, 0
2, 186861, Note_on_c, 0, 72, 86
2, 186869, Control_c, 0, 64, 81
2, 186872, Note_on_c, 0, 69, 72
2, 186876, Note_on_c, 0, 48, 73
2, 186889, Control_c, 0, 64, 74
2, 186897, Note_on_c, 0, 64, 0
2, 186908, Control_c, 0, 64, 62
2, 186929, Control_c, 0, 64, 46
2, 186938, Note_on_c, 0, 47, 0
2, 186943, Control_c, 0, 64, 34
2, 186965, Control_c, 0, 64, 26
2, 187004, Control_c, 0, 64, 22
2, 187058, Control_c, 0, 64, 30
2, 187077, Control_c, 0, 64, 44
2, 187097, Control_c, 0, 64, 57
2, 187110, Note_on_c, 0, 45, 66
2, 187115, Control_c, 0, 64, 65
2, 187135, Control_c, 0, 64, 70
2, 187145, Note_on_c, 0, 48, 0
2, 187152, Control_c, 0, 64, 73
2, 187172, Control_c, 0, 64, 77
2, 187190, Control_c, 0, 64, 80
2, 187210, Control_c, 0, 64, 83
2, 187230, Control_c, 0, 64, 85
2, 187324, Control_c, 0, 64, 80
2, 187343, Control_c, 0, 64, 68
2, 187361, Control_c, 0, 64, 52
2, 187372, Note_on_c, 0, 71, 81
2, 187381, Control_c, 0, 64, 39
2, 187381, Note_on_c, 0, 50, 68
2, 187399, Control_c, 0, 64, 35
2, 187404, Note_on_c, 0, 45, 0
2, 187422, Note_on_c, 0, 72, 0
2, 187474, Control_c, 0, 64, 47
2, 187492, Control_c, 0, 64, 57
2, 187510, Control_c, 0, 64, 64
2, 187532, Control_c, 0, 64, 68
2, 187548, Control_c, 0, 64, 71
2, 187569, Control_c, 0, 64, 74
2, 187588, Control_c, 0, 64, 77
2, 187608, Control_c, 0, 64, 79
2, 187626, Control_c, 0, 64, 81
2, 187635, Note_on_c, 0, 49, 68
2, 187711, Note_on_c, 0, 50, 0
2, 187773, Control_c, 0, 64, 75
2, 187791, Control_c, 0, 64, 64
2, 187810, Control_c, 0, 64, 48
2, 187830, Control_c, 0, 64, 39
2, 187867, Control_c, 0, 64, 45
2, 187870, Note_on_c, 0, 70, 81
2, 187879, Note_on_c, 0, 50, 66
2, 187887, Control_c, 0, 64, 57
2, 187905, Control_c, 0, 64, 66
2, 187924, Control_c, 0, 64, 72
2, 187926, Note_on_c, 0, 71, 0
2, 187932, Note_on_c, 0, 49, 0
2, 187943, Control_c, 0, 64, 77
2, 187962, Control_c, 0, 64, 80
2, 187998, Control_c, 0, 64, 76
2, 188018, Control_c, 0, 64, 65
2, 188037, Control_c, 0, 64, 50
2, 188057, Control_c, 0, 64, 42
2, 188113, Control_c, 0, 64, 47
2, 188117, Note_on_c, 0, 67, 72
2, 188130, Control_c, 0, 64, 55
2, 188134, Note_on_c, 0, 52, 65
2, 188149, Control_c, 0, 64, 61
2, 188170, Control_c, 0, 64, 67
2, 188170, Note_on_c, 0, 50, 0
2, 188189, Control_c, 0, 64, 72
2, 188208, Control_c, 0, 64, 78
2, 188215, Note_on_c, 0, 69, 0
2, 188225, Control_c, 0, 64, 84
2, 188245, Control_c, 0, 64, 88
2, 188287, Note_on_c, 0, 70, 0
2, 188302, Control_c, 0, 64, 83
2, 188321, Control_c, 0, 64, 71
2, 188340, Control_c, 0, 64, 55
2, 188357, Control_c, 0, 64, 48
2, 188368, Note_on_c, 0, 69, 81
2, 188373, Note_on_c, 0, 53, 65
2, 188378, Note_on_c, 0, 52, 0
2, 188394, Control_c, 0, 64, 50
2, 188413, Control_c, 0, 64, 56
2, 188430, Control_c, 0, 64, 62
2, 188435, Note_on_c, 0, 67, 0
2, 188450, Control_c, 0, 64, 66
2, 188467, Control_c, 0, 64, 71
2, 188487, Control_c, 0, 64, 75
2, 188506, Control_c, 0, 64, 79
2, 188565, Control_c, 0, 64, 76
2, 188582, Control_c, 0, 64, 69
2, 188616, Control_c, 0, 64, 61
2, 188635, Control_c, 0, 64, 57
2, 188640, Note_on_c, 0, 47, 62
2, 188640, Note_on_c, 0, 65, 76
2, 188661, Note_on_c, 0, 53, 0
2, 188674, Control_c, 0, 64, 60
2, 188692, Control_c, 0, 64, 64
2, 188710, Control_c, 0, 64, 67
2, 188729, Control_c, 0, 64, 71
2, 188748, Control_c, 0, 64, 76
2, 188767, Control_c, 0, 64, 79
2, 188824, Control_c, 0, 64, 75
2, 188844, Control_c, 0, 64, 66
2, 188861, Control_c, 0, 64, 55
2, 188881, Control_c, 0, 64, 50
2, 188901, Note_on_c, 0, 67, 79
2, 188913, Note_on_c, 0, 52, 60
2, 188918, Control_c, 0, 64, 54
2, 188936, Control_c, 0, 64, 59
2, 188956, Control_c, 0, 64, 64
2, 188964, Note_on_c, 0, 69, 0
2, 188974, Control_c, 0, 64, 68
2, 188985, Note_on_c, 0, 65, 0
2, 188994, Control_c, 0, 64, 72
2, 189013, Control_c, 0, 64, 75
2, 189019, Note_on_c, 0, 47, 0
2, 189071, Control_c, 0, 64, 71
2, 189089, Control_c, 0, 64, 61
2, 189107, Control_c, 0, 64, 50
2, 189126, Control_c, 0, 64, 43
2, 189158, Note_on_c, 0, 65, 79
2, 189168, Note_on_c, 0, 50, 63
2, 189182, Control_c, 0, 64, 53
2, 189201, Control_c, 0, 64, 61
2, 189208, Note_on_c, 0, 52, 0
2, 189220, Control_c, 0, 64, 66
2, 189240, Control_c, 0, 64, 71
2, 189259, Control_c, 0, 64, 74
2, 189278, Control_c, 0, 64, 76
2, 189333, Control_c, 0, 64, 68
2, 189353, Control_c, 0, 64, 58
2, 189372, Control_c, 0, 64, 46
2, 189390, Control_c, 0, 64, 40
2, 189406, Note_on_c, 0, 64, 81
2, 189411, Note_on_c, 0, 49, 66
2, 189429, Note_on_c, 0, 50, 0
2, 189450, Control_c, 0, 64, 45
2, 189467, Control_c, 0, 64, 53
2, 189474, Note_on_c, 0, 67, 0
2, 189486, Control_c, 0, 64, 59
2, 189506, Control_c, 0, 64, 64
2, 189525, Control_c, 0, 64, 68
2, 189535, Note_on_c, 0, 65, 0
2, 189543, Control_c, 0, 64, 70
2, 189597, Control_c, 0, 64, 72
2, 189635, Control_c, 0, 64, 70
2, 189655, Control_c, 0, 64, 64
2, 189671, Control_c, 0, 64, 53
2, 189690, Control_c, 0, 64, 40
2, 189709, Control_c, 0, 64, 31
2, 189709, Note_on_c, 0, 67, 80
2, 189715, Note_on_c, 0, 45, 64
2, 189722, Note_on_c, 0, 49, 0
2, 189786, Control_c, 0, 64, 44
2, 189806, Control_c, 0, 64, 55
2, 189822, Control_c, 0, 64, 62
2, 189843, Control_c, 0, 64, 66
2, 189860, Control_c, 0, 64, 68
2, 189917, Control_c, 0, 64, 67
2, 189936, Control_c, 0, 64, 63
2, 189956, Control_c, 0, 64, 55
2, 189971, Note_on_c, 0, 62, 85
2, 189974, Control_c, 0, 64, 44
2, 189985, Note_on_c, 0, 50, 65
2, 189990, Note_on_c, 0, 65, 70
2, 189993, Control_c, 0, 64, 35
2, 190009, Note_on_c, 0, 45, 0
2, 190025, Note_on_c, 0, 67, 0
2, 190038, Note_on_c, 0, 64, 0
2, 190067, Control_c, 0, 64, 46
2, 190088, Control_c, 0, 64, 56
2, 190108, Control_c, 0, 64, 63
2, 190126, Control_c, 0, 64, 67
2, 190143, Control_c, 0, 64, 70
2, 190163, Control_c, 0, 64, 72
2, 190215, Note_on_c, 0, 65, 0
2, 190240, Control_c, 0, 64, 67
2, 190258, Control_c, 0, 64, 58
2, 190274, Note_on_c, 0, 55, 67
2, 190277, Note_on_c, 0, 64, 81
2, 190278, Control_c, 0, 64, 46
2, 190287, Note_on_c, 0, 50, 0
2, 190295, Control_c, 0, 64, 36
2, 190315, Control_c, 0, 64, 29
2, 190370, Control_c, 0, 64, 33
2, 190390, Control_c, 0, 64, 44
2, 190409, Control_c, 0, 64, 56
2, 190428, Control_c, 0, 64, 63
2, 190447, Control_c, 0, 64, 67
2, 190465, Control_c, 0, 64, 68
2, 190504, Control_c, 0, 64, 66
2, 190524, Control_c, 0, 64, 59
2, 190557, Control_c, 0, 64, 47
2, 190565, Note_on_c, 0, 64, 0
2, 190574, Note_on_c, 0, 57, 63
2, 190575, Control_c, 0, 64, 34
2, 190587, Note_on_c, 0, 65, 76
2, 190594, Control_c, 0, 64, 26
2, 190599, Note_on_c, 0, 55, 0
2, 190669, Control_c, 0, 64, 31
2, 190688, Control_c, 0, 64, 39
2, 190707, Control_c, 0, 64, 48
2, 190709, Note_on_c, 0, 65, 0
2, 190710, Note_on_c, 0, 64, 72
2, 190727, Control_c, 0, 64, 57
2, 190745, Control_c, 0, 64, 62
2, 190766, Control_c, 0, 64, 64
2, 190770, Note_on_c, 0, 64, 0
2, 190782, Control_c, 0, 64, 67
2, 190797, Note_on_c, 0, 65, 68
2, 190801, Control_c, 0, 64, 70
2, 190821, Control_c, 0, 64, 73
2, 190840, Control_c, 0, 64, 78
2, 190853, Note_on_c, 0, 64, 78
2, 190856, Control_c, 0, 64, 83
2, 190871, Note_on_c, 0, 65, 0
2, 190876, Control_c, 0, 64, 86
2, 190918, Note_on_c, 0, 57, 0
2, 190923, Note_on_c, 0, 64, 0
2, 190939, Note_on_c, 0, 65, 68
2, 190986, Note_on_c, 0, 64, 71
2, 191010, Note_on_c, 0, 65, 0
2, 191051, Note_on_c, 0, 64, 0
2, 191069, Note_on_c, 0, 65, 67
2, 191099, Note_on_c, 0, 64, 66
2, 191123, Note_on_c, 0, 65, 0
2, 191172, Note_on_c, 0, 62, 0
2, 191178, Control_c, 0, 64, 84
2, 191201, Control_c, 0, 64, 82
2, 191218, Control_c, 0, 64, 80
2, 191238, Control_c, 0, 64, 78
2, 191256, Control_c, 0, 64, 75
2, 191274, Control_c, 0, 64, 71
2, 191294, Control_c, 0, 64, 64
2, 191311, Control_c, 0, 64, 57
2, 191330, Control_c, 0, 64, 52
2, 191348, Control_c, 0, 64, 48
2, 191369, Control_c, 0, 64, 46
2, 191386, Control_c, 0, 64, 42
2, 191407, Control_c, 0, 64, 38
2, 191445, Control_c, 0, 64, 32
2, 191474, Note_on_c, 0, 45, 63
2, 191478, Note_on_c, 0, 61, 73
2, 191517, Control_c, 0, 64, 27
2, 191761, Control_c, 0, 64, 23
2, 192095, Note_on_c, 0, 62, 70
2, 192132, Note_on_c, 0, 64, 0
2, 192276, Note_on_c, 0, 61, 0
2, 192289, Control_c, 0, 64, 33
2, 192309, Control_c, 0, 64, 40
2, 192329, Control_c, 0, 64, 51
2, 192346, Control_c, 0, 64, 61
2, 192366, Control_c, 0, 64, 66
2, 192385, Control_c, 0, 64, 70
2, 192405, Control_c, 0, 64, 75
2, 192423, Control_c, 0, 64, 81
2, 192456, Control_c, 0, 64, 87
2, 192476, Control_c, 0, 64, 93
2, 192484, Note_on_c, 0, 62, 0
2, 192495, Control_c, 0, 64, 98
2, 192533, Control_c, 0, 64, 103
2, 192750, Note_on_c, 0, 45, 0
2, 192946, Note_on_c, 0, 38, 47
2, 192947, Note_on_c, 0, 62, 69
2, 193080, Control_c, 0, 64, 93
2, 193099, Control_c, 0, 64, 85
2, 193118, Control_c, 0, 64, 74
2, 193137, Control_c, 0, 64, 63
2, 193157, Control_c, 0, 64, 56
2, 193173, Control_c, 0, 64, 53
2, 193194, Control_c, 0, 64, 51
2, 193237, Control_c, 0, 64, 49
2, 193293, Control_c, 0, 64, 47
2, 193348, Control_c, 0, 64, 44
2, 193387, Control_c, 0, 64, 42
2, 193441, Control_c, 0, 64, 40
2, 194083, Control_c, 0, 64, 42
2, 194121, Control_c, 0, 64, 44
2, 194140, Control_c, 0, 64, 46
2, 194196, Control_c, 0, 64, 49
2, 194234, Control_c, 0, 64, 51
2, 194856, Control_c, 0, 64, 49
2, 194947, Control_c, 0, 64, 47
2, 195137, Control_c, 0, 64, 45
2, 195249, Control_c, 0, 64, 43
2, 195328, Control_c, 0, 64, 41
2, 195423, Note_on_c, 0, 62, 0
2, 195533, Note_on_c, 0, 38, 0
2, 195644, Control_c, 0, 64, 37
2, 195645, End_track
0, 0, End_of_file
