0, 0, Header, 1, 2, 480
1, 0, Start_track
1, 0, Tempo, 500000
1, 0, Time_signature, 4, 2, 24, 8
1, 1, End_track
2, 0, Start_track
2, 0, Program_c, 0, 0
2, 932, Note_on_c, 0, 74, 76
2, 938, Note_on_c, 0, 50, 53
2, 988, Note_on_c, 0, 50, 0
2, 999, Note_on_c, 0, 49, 59
2, 1052, Note_on_c, 0, 49, 0
2, 1080, Note_on_c, 0, 50, 61
2, 1205, Note_on_c, 0, 72, 69
2, 1238, Note_on_c, 0, 74, 0
2, 1315, Note_on_c, 0, 70, 72
2, 1345, Note_on_c, 0, 72, 0
2, 1348, Note_on_c, 0, 50, 0
2, 1445, Note_on_c, 0, 69, 72
2, 1446, Note_on_c, 0, 38, 57
2, 1459, Note_on_c, 0, 70, 0
2, 1536, Note_on_c, 0, 69, 0
2, 1537, Note_on_c, 0, 67, 71
2, 1635, Note_on_c, 0, 65, 71
2, 1641, Note_on_c, 0, 67, 0
2, 1736, Note_on_c, 0, 64, 68
2, 1757, Note_on_c, 0, 65, 0
2, 1839, Note_on_c, 0, 64, 0
2, 1844, Note_on_c, 0, 62, 68
2, 1866, Note_on_c, 0, 38, 0
2, 1943, Note_on_c, 0, 62, 0
2, 1943, Note_on_c, 0, 65, 71
2, 2049, Note_on_c, 0, 65, 0
2, 2057, Note_on_c, 0, 64, 67
2, 2138, Note_on_c, 0, 64, 0
2, 2163, Note_on_c, 0, 62, 65
2, 2239, Note_on_c, 0, 62, 0
2, 2265, Note_on_c, 0, 70, 71
2, 2365, Note_on_c, 0, 70, 0
2, 2373, Note_on_c, 0, 67, 61
2, 2477, Note_on_c, 0, 38, 74
2, 2482, Note_on_c, 0, 67, 0
2, 2493, Note_on_c, 0, 62, 66
2, 2530, Note_on_c, 0, 38, 0
2, 2585, Note_on_c, 0, 62, 0
2, 2599, Note_on_c, 0, 67, 67
2, 2692, Note_on_c, 0, 43, 80
2, 2698, Note_on_c, 0, 67, 0
2, 2711, Note_on_c, 0, 70, 70
2, 2728, Note_on_c, 0, 43, 0
2, 2802, Note_on_c, 0, 70, 0
2, 2823, Note_on_c, 0, 67, 59
2, 2910, Note_on_c, 0, 46, 73
2, 2915, Note_on_c, 0, 67, 0
2, 2927, Note_on_c, 0, 62, 68
2, 2943, Note_on_c, 0, 46, 0
2, 3020, Note_on_c, 0, 62, 0
2, 3035, Note_on_c, 0, 67, 67
2, 3127, Note_on_c, 0, 50, 79
2, 3137, Note_on_c, 0, 67, 0
2, 3150, Note_on_c, 0, 70, 67
2, 3186, Note_on_c, 0, 49, 69
2, 3189, Note_on_c, 0, 50, 0
2, 3240, Note_on_c, 0, 67, 63
2, 3251, Note_on_c, 0, 70, 0
2, 3265, Note_on_c, 0, 49, 0
2, 3265, Note_on_c, 0, 50, 67
2, 3364, Note_on_c, 0, 67, 0
2, 3371, Note_on_c, 0, 62, 66
2, 3472, Note_on_c, 0, 67, 67
2, 3476, Note_on_c, 0, 62, 0
2, 3564, Note_on_c, 0, 50, 0
2, 3573, Note_on_c, 0, 67, 0
2, 3575, Note_on_c, 0, 69, 71
2, 3677, Note_on_c, 0, 67, 64
2, 3679, Note_on_c, 0, 69, 0
2, 3767, Note_on_c, 0, 38, 73
2, 3781, Note_on_c, 0, 67, 0
2, 3788, Note_on_c, 0, 62, 69
2, 3817, Note_on_c, 0, 38, 0
2, 3880, Note_on_c, 0, 67, 62
2, 3881, Note_on_c, 0, 62, 0
2, 3982, Note_on_c, 0, 41, 77
2, 3982, Note_on_c, 0, 67, 0
2, 3984, Note_on_c, 0, 69, 68
2, 4016, Note_on_c, 0, 41, 0
2, 4084, Note_on_c, 0, 69, 0
2, 4093, Note_on_c, 0, 65, 62
2, 4185, Note_on_c, 0, 45, 80
2, 4188, Note_on_c, 0, 65, 0
2, 4195, Note_on_c, 0, 62, 68
2, 4215, Note_on_c, 0, 45, 0
2, 4285, Note_on_c, 0, 62, 0
2, 4300, Note_on_c, 0, 65, 60
2, 4408, Note_on_c, 0, 65, 0
2, 4422, Note_on_c, 0, 69, 67
2, 4436, Note_on_c, 0, 50, 74
2, 4481, Note_on_c, 0, 49, 70
2, 4482, Note_on_c, 0, 50, 0
2, 4508, Note_on_c, 0, 65, 59
2, 4519, Note_on_c, 0, 69, 0
2, 4552, Note_on_c, 0, 49, 0
2, 4562, Note_on_c, 0, 50, 76
2, 4614, Note_on_c, 0, 65, 0
2, 4635, Note_on_c, 0, 62, 60
2, 4728, Note_on_c, 0, 65, 66
2, 4754, Note_on_c, 0, 62, 0
2, 4828, Note_on_c, 0, 65, 0
2, 4833, Note_on_c, 0, 50, 0
2, 4838, Note_on_c, 0, 67, 68
2, 4949, Note_on_c, 0, 64, 64
2, 4957, Note_on_c, 0, 67, 0
2, 5032, Note_on_c, 0, 64, 0
2, 5038, Note_on_c, 0, 62, 67
2, 5052, Note_on_c, 0, 58, 60
2, 5085, Note_on_c, 0, 58, 0
2, 5132, Note_on_c, 0, 62, 0
2, 5149, Note_on_c, 0, 64, 63
2, 5237, Note_on_c, 0, 64, 0
2, 5243, Note_on_c, 0, 52, 60
2, 5254, Note_on_c, 0, 67, 67
2, 5293, Note_on_c, 0, 52, 0
2, 5361, Note_on_c, 0, 67, 0
2, 5369, Note_on_c, 0, 64, 66
2, 5465, Note_on_c, 0, 64, 0
2, 5468, Note_on_c, 0, 55, 64
2, 5478, Note_on_c, 0, 61, 62
2, 5509, Note_on_c, 0, 55, 0
2, 5560, Note_on_c, 0, 61, 0
2, 5573, Note_on_c, 0, 64, 66
2, 5657, Note_on_c, 0, 64, 0
2, 5671, Note_on_c, 0, 49, 63
2, 5681, Note_on_c, 0, 67, 63
2, 5705, Note_on_c, 0, 49, 0
2, 5772, Note_on_c, 0, 67, 0
2, 5786, Note_on_c, 0, 64, 67
2, 5881, Note_on_c, 0, 64, 0
2, 5888, Note_on_c, 0, 57, 57
2, 5897, Note_on_c, 0, 61, 62
2, 5922, Note_on_c, 0, 57, 0
2, 5989, Note_on_c, 0, 61, 0
2, 6006, Note_on_c, 0, 64, 68
2, 6050, Note_on_c, 0, 64, 0
2, 6099, Note_on_c, 0, 50, 61
2, 6112, Note_on_c, 0, 65, 72
2, 6222, Note_on_c, 0, 62, 69
2, 6348, Note_on_c, 0, 60, 74
2, 6398, Note_on_c, 0, 62, 0
2, 6450, Note_on_c, 0, 58, 74
2, 6452, Note_on_c, 0, 60, 0
2, 6551, Note_on_c, 0, 57, 76
2, 6562, Note_on_c, 0, 58, 0
2, 6647, Note_on_c, 0, 55, 66
2, 6715, Note_on_c, 0, 50, 0
2, 6723, Note_on_c, 0, 57, 0
2, 6761, Note_on_c, 0, 53, 68
2, 6765, Note_on_c, 0, 55, 0
2, 6864, Note_on_c, 0, 53, 0
2, 6866, Note_on_c, 0, 52, 67
2, 6928, Note_on_c, 0, 65, 0
2, 6978, Note_on_c, 0, 50, 71
2, 6982, Note_on_c, 0, 52, 0
2, 7077, Note_on_c, 0, 50, 0
2, 7077, Note_on_c, 0, 53, 69
2, 7180, Note_on_c, 0, 53, 0
2, 7184, Note_on_c, 0, 52, 66
2, 7300, Note_on_c, 0, 50, 73
2, 7307, Note_on_c, 0, 52, 0
2, 7371, Note_on_c, 0, 50, 0
2, 7396, Note_on_c, 0, 58, 78
2, 7498, Note_on_c, 0, 58, 0
2, 7501, Note_on_c, 0, 55, 67
2, 7601, Note_on_c, 0, 55, 0
2, 7601, Note_on_c, 0, 62, 79
2, 7612, Note_on_c, 0, 50, 65
2, 7646, Note_on_c, 0, 62, 0
2, 7718, Note_on_c, 0, 50, 0
2, 7719, Note_on_c, 0, 55, 59
2, 7805, Note_on_c, 0, 55, 0
2, 7812, Note_on_c, 0, 58, 65
2, 7831, Note_on_c, 0, 67, 77
2, 7865, Note_on_c, 0, 67, 0
2, 7919, Note_on_c, 0, 58, 0
2, 7924, Note_on_c, 0, 55, 63
2, 8028, Note_on_c, 0, 55, 0
2, 8046, Note_on_c, 0, 50, 61
2, 8047, Note_on_c, 0, 70, 82
2, 8077, Note_on_c, 0, 70, 0
2, 8160, Note_on_c, 0, 50, 0
2, 8175, Note_on_c, 0, 55, 58
2, 8271, Note_on_c, 0, 55, 0
2, 8278, Note_on_c, 0, 58, 66
2, 8284, Note_on_c, 0, 74, 86
2, 8336, Note_on_c, 0, 73, 72
2, 8340, Note_on_c, 0, 74, 0
2, 8376, Note_on_c, 0, 58, 0
2, 8377, Note_on_c, 0, 55, 59
2, 8401, Note_on_c, 0, 74, 75
2, 8405, Note_on_c, 0, 73, 0
2, 8466, Note_on_c, 0, 55, 0
2, 8487, Note_on_c, 0, 50, 58
2, 8589, Note_on_c, 0, 50, 0
2, 8596, Note_on_c, 0, 55, 59
2, 8691, Note_on_c, 0, 55, 0
2, 8695, Note_on_c, 0, 74, 0
2, 8697, Note_on_c, 0, 57, 70
2, 8794, Note_on_c, 0, 57, 0
2, 8800, Note_on_c, 0, 55, 63
2, 8889, Note_on_c, 0, 55, 0
2, 8893, Note_on_c, 0, 62, 80
2, 8906, Note_on_c, 0, 50, 65
2, 8953, Note_on_c, 0, 62, 0
2, 9017, Note_on_c, 0, 50, 0
2, 9023, Note_on_c, 0, 55, 62
2, 9123, Note_on_c, 0, 55, 0
2, 9132, Note_on_c, 0, 65, 74
2, 9138, Note_on_c, 0, 57, 65
2, 9166, Note_on_c, 0, 65, 0
2, 9239, Note_on_c, 0, 57, 0
2, 9246, Note_on_c, 0, 53, 62
2, 9345, Note_on_c, 0, 53, 0
2, 9347, Note_on_c, 0, 69, 82
2, 9361, Note_on_c, 0, 50, 61
2, 9371, Note_on_c, 0, 69, 0
2, 9457, Note_on_c, 0, 50, 0
2, 9472, Note_on_c, 0, 53, 62
2, 9558, Note_on_c, 0, 53, 0
2, 9570, Note_on_c, 0, 57, 60
2, 9575, Note_on_c, 0, 74, 84
2, 9627, Note_on_c, 0, 73, 70
2, 9664, Note_on_c, 0, 74, 0
2, 9672, Note_on_c, 0, 57, 0
2, 9676, Note_on_c, 0, 53, 58
2, 9715, Note_on_c, 0, 73, 0
2, 9773, Note_on_c, 0, 53, 0
2, 9794, Note_on_c, 0, 50, 60
2, 9896, Note_on_c, 0, 50, 0
2, 9908, Note_on_c, 0, 53, 64
2, 9980, Note_on_c, 0, 53, 0
2, 9997, Note_on_c, 0, 55, 69
2, 10101, Note_on_c, 0, 55, 0
2, 10117, Note_on_c, 0, 52, 69
2, 10205, Note_on_c, 0, 52, 0
2, 10228, Note_on_c, 0, 50, 61
2, 10236, Note_on_c, 0, 67, 80
2, 10275, Note_on_c, 0, 67, 0
2, 10330, Note_on_c, 0, 50, 0
2, 10341, Note_on_c, 0, 52, 64
2, 10440, Note_on_c, 0, 52, 0
2, 10451, Note_on_c, 0, 55, 59
2, 10454, Note_on_c, 0, 73, 80
2, 10488, Note_on_c, 0, 73, 0
2, 10553, Note_on_c, 0, 55, 0
2, 10570, Note_on_c, 0, 52, 57
2, 10662, Note_on_c, 0, 52, 0
2, 10676, Note_on_c, 0, 49, 61
2, 10696, Note_on_c, 0, 76, 76
2, 10732, Note_on_c, 0, 76, 0
2, 10785, Note_on_c, 0, 49, 0
2, 10798, Note_on_c, 0, 52, 58
2, 10891, Note_on_c, 0, 52, 0
2, 10913, Note_on_c, 0, 55, 51
2, 10915, Note_on_c, 0, 73, 71
2, 10957, Note_on_c, 0, 73, 0
2, 11007, Note_on_c, 0, 55, 0
2, 11044, Note_on_c, 0, 52, 48
2, 11135, Note_on_c, 0, 52, 0
2, 11157, Note_on_c, 0, 49, 57
2, 11158, Note_on_c, 0, 69, 71
2, 11195, Note_on_c, 0, 69, 0
2, 11257, Note_on_c, 0, 49, 0
2, 11268, Note_on_c, 0, 52, 56
2, 11386, Note_on_c, 0, 52, 0
2, 11387, Note_on_c, 0, 74, 74
2, 11400, Note_on_c, 0, 53, 60
2, 11515, Note_on_c, 0, 53, 0
2, 11519, Note_on_c, 0, 50, 62
2, 11632, Note_on_c, 0, 72, 77
2, 11633, Note_on_c, 0, 50, 0
2, 11637, Note_on_c, 0, 52, 65
2, 11677, Note_on_c, 0, 74, 0
2, 11728, Note_on_c, 0, 70, 75
2, 11741, Note_on_c, 0, 53, 70
2, 11745, Note_on_c, 0, 52, 0
2, 11771, Note_on_c, 0, 72, 0
2, 11836, Note_on_c, 0, 53, 0
2, 11842, Note_on_c, 0, 55, 70
2, 11842, Note_on_c, 0, 69, 75
2, 11871, Note_on_c, 0, 70, 0
2, 11938, Note_on_c, 0, 69, 0
2, 11940, Note_on_c, 0, 67, 75
2, 11956, Note_on_c, 0, 57, 73
2, 11962, Note_on_c, 0, 55, 0
2, 12032, Note_on_c, 0, 67, 0
2, 12050, Note_on_c, 0, 65, 76
2, 12067, Note_on_c, 0, 59, 69
2, 12068, Note_on_c, 0, 57, 0
2, 12156, Note_on_c, 0, 65, 0
2, 12163, Note_on_c, 0, 64, 67
2, 12167, Note_on_c, 0, 59, 0
2, 12177, Note_on_c, 0, 61, 66
2, 12243, Note_on_c, 0, 64, 0
2, 12251, Note_on_c, 0, 61, 0
2, 12265, Note_on_c, 0, 65, 73
2, 12266, Note_on_c, 0, 62, 67
2, 12310, Note_on_c, 0, 65, 0
2, 12370, Note_on_c, 0, 62, 0
2, 12379, Note_on_c, 0, 60, 67
2, 12476, Note_on_c, 0, 60, 0
2, 12487, Note_on_c, 0, 59, 68
2, 12492, Note_on_c, 0, 69, 74
2, 12595, Note_on_c, 0, 59, 0
2, 12606, Note_on_c, 0, 57, 65
2, 12712, Note_on_c, 0, 57, 0
2, 12718, Note_on_c, 0, 59, 71
2, 12803, Note_on_c, 0, 69, 0
2, 12805, Note_on_c, 0, 59, 0
2, 12819, Note_on_c, 0, 60, 64
2, 12821, Note_on_c, 0, 67, 71
2, 12924, Note_on_c, 0, 67, 0
2, 12930, Note_on_c, 0, 69, 80
2, 12938, Note_on_c, 0, 60, 0
2, 12958, Note_on_c, 0, 59, 71
2, 13028, Note_on_c, 0, 59, 0
2, 13039, Note_on_c, 0, 71, 77
2, 13050, Note_on_c, 0, 57, 73
2, 13053, Note_on_c, 0, 69, 0
2, 13120, Note_on_c, 0, 71, 0
2, 13139, Note_on_c, 0, 57, 0
2, 13148, Note_on_c, 0, 72, 79
2, 13153, Note_on_c, 0, 55, 68
2, 13237, Note_on_c, 0, 53, 67
2, 13237, Note_on_c, 0, 72, 0
2, 13239, Note_on_c, 0, 74, 79
2, 13240, Note_on_c, 0, 55, 0
2, 13328, Note_on_c, 0, 53, 0
2, 13332, Note_on_c, 0, 52, 62
2, 13342, Note_on_c, 0, 76, 76
2, 13345, Note_on_c, 0, 74, 0
2, 13415, Note_on_c, 0, 52, 0
2, 13433, Note_on_c, 0, 76, 0
2, 13434, Note_on_c, 0, 50, 59
2, 13435, Note_on_c, 0, 77, 76
2, 13520, Note_on_c, 0, 50, 0
2, 13523, Note_on_c, 0, 52, 71
2, 13528, Note_on_c, 0, 77, 0
2, 13529, Note_on_c, 0, 79, 68
2, 13560, Note_on_c, 0, 52, 0
2, 13642, Note_on_c, 0, 79, 0
2, 13647, Note_on_c, 0, 77, 71
2, 13739, Note_on_c, 0, 77, 0
2, 13747, Note_on_c, 0, 76, 65
2, 13750, Note_on_c, 0, 55, 63
2, 13785, Note_on_c, 0, 55, 0
2, 13818, Note_on_c, 0, 76, 0
2, 13837, Note_on_c, 0, 74, 67
2, 13967, Note_on_c, 0, 74, 0
2, 13975, Note_on_c, 0, 76, 66
2, 13985, Note_on_c, 0, 48, 63
2, 14017, Control_c, 0, 67, 10
2, 14035, Control_c, 0, 67, 17
2, 14055, Control_c, 0, 67, 29
2, 14064, Note_on_c, 0, 76, 0
2, 14075, Control_c, 0, 67, 43
2, 14093, Control_c, 0, 67, 58
2, 14106, Note_on_c, 0, 72, 68
2, 14113, Control_c, 0, 67, 76
2, 14132, Control_c, 0, 67, 93
2, 14152, Control_c, 0, 67, 103
2, 14188, Control_c, 0, 67, 107
2, 14203, Note_on_c, 0, 72, 0
2, 14212, Note_on_c, 0, 48, 0
2, 14212, Note_on_c, 0, 70, 68
2, 14224, Note_on_c, 0, 50, 56
2, 14243, Control_c, 0, 67, 112
2, 14313, Note_on_c, 0, 50, 0
2, 14314, Note_on_c, 0, 52, 57
2, 14326, Note_on_c, 0, 69, 63
2, 14332, Note_on_c, 0, 70, 0
2, 14403, Note_on_c, 0, 52, 0
2, 14408, Note_on_c, 0, 53, 64
2, 14420, Note_on_c, 0, 67, 63
2, 14426, Note_on_c, 0, 69, 0
2, 14453, Control_c, 0, 67, 107
2, 14479, Note_on_c, 0, 53, 0
2, 14500, Note_on_c, 0, 67, 0
2, 14508, Note_on_c, 0, 65, 67
2, 14511, Note_on_c, 0, 55, 61
2, 14571, Note_on_c, 0, 65, 0
2, 14597, Note_on_c, 0, 55, 0
2, 14600, Note_on_c, 0, 64, 69
2, 14609, Note_on_c, 0, 57, 57
2, 14678, Note_on_c, 0, 57, 0
2, 14678, Note_on_c, 0, 64, 0
2, 14698, Note_on_c, 0, 62, 60
2, 14699, Note_on_c, 0, 58, 62
2, 14764, Note_on_c, 0, 62, 0
2, 14767, Note_on_c, 0, 58, 0
2, 14797, Note_on_c, 0, 60, 60
2, 14804, Note_on_c, 0, 64, 67
2, 14843, Note_on_c, 0, 64, 0
2, 14912, Note_on_c, 0, 60, 0
2, 14933, Note_on_c, 0, 58, 57
2, 15008, Note_on_c, 0, 58, 0
2, 15036, Note_on_c, 0, 57, 56
2, 15044, Note_on_c, 0, 67, 64
2, 15136, Note_on_c, 0, 57, 0
2, 15168, Note_on_c, 0, 55, 54
2, 15203, Control_c, 0, 64, 16
2, 15261, Control_c, 0, 64, 0
2, 15266, Note_on_c, 0, 55, 0
2, 15284, Note_on_c, 0, 57, 57
2, 15341, Note_on_c, 0, 67, 0
2, 15360, Note_on_c, 0, 57, 0
2, 15378, Note_on_c, 0, 65, 66
2, 15382, Note_on_c, 0, 58, 59
2, 15460, Note_on_c, 0, 58, 0
2, 15482, Note_on_c, 0, 65, 0
2, 15489, Note_on_c, 0, 67, 66
2, 15502, Note_on_c, 0, 57, 62
2, 15559, Note_on_c, 0, 57, 0
2, 15588, Note_on_c, 0, 69, 67
2, 15589, Note_on_c, 0, 67, 0
2, 15591, Note_on_c, 0, 55, 59
2, 15644, Note_on_c, 0, 55, 0
2, 15683, Note_on_c, 0, 69, 0
2, 15685, Note_on_c, 0, 70, 70
2, 15689, Note_on_c, 0, 53, 63
2, 15759, Note_on_c, 0, 70, 0
2, 15763, Note_on_c, 0, 53, 0
2, 15790, Note_on_c, 0, 51, 63
2, 15798, Note_on_c, 0, 72, 62
2, 15872, Note_on_c, 0, 51, 0
2, 15892, Note_on_c, 0, 72, 0
2, 15895, Note_on_c, 0, 50, 57
2, 15908, Note_on_c, 0, 74, 62
2, 15969, Note_on_c, 0, 50, 0
2, 15973, Control_c, 0, 67, 102
2, 15989, Note_on_c, 0, 74, 0
2, 15994, Control_c, 0, 67, 95
2, 15998, Note_on_c, 0, 48, 53
2, 15999, Note_on_c, 0, 75, 65
2, 16012, Control_c, 0, 67, 87
2, 16032, Control_c, 0, 67, 79
2, 16052, Control_c, 0, 67, 71
2, 16071, Control_c, 0, 67, 62
2, 16076, Note_on_c, 0, 48, 0
2, 16087, Control_c, 0, 67, 55
2, 16087, Note_on_c, 0, 75, 0
2, 16100, Note_on_c, 0, 50, 63
2, 16105, Control_c, 0, 67, 50
2, 16106, Note_on_c, 0, 77, 61
2, 16127, Control_c, 0, 67, 46
2, 16132, Note_on_c, 0, 50, 0
2, 16164, Control_c, 0, 67, 38
2, 16202, Control_c, 0, 67, 30
2, 16207, Note_on_c, 0, 77, 0
2, 16222, Note_on_c, 0, 75, 64
2, 16239, Control_c, 0, 67, 23
2, 16297, Control_c, 0, 67, 19
2, 16312, Note_on_c, 0, 53, 60
2, 16313, Note_on_c, 0, 75, 0
2, 16327, Note_on_c, 0, 74, 58
2, 16344, Note_on_c, 0, 53, 0
2, 16400, Note_on_c, 0, 74, 0
2, 16407, Control_c, 0, 67, 15
2, 16438, Note_on_c, 0, 72, 59
2, 16467, Control_c, 0, 67, 0
2, 16526, Note_on_c, 0, 46, 75
2, 16528, Note_on_c, 0, 72, 0
2, 16540, Control_c, 0, 64, 24
2, 16546, Note_on_c, 0, 74, 63
2, 16560, Control_c, 0, 64, 38
2, 16564, Note_on_c, 0, 46, 0
2, 16579, Control_c, 0, 64, 51
2, 16598, Control_c, 0, 64, 57
2, 16617, Control_c, 0, 64, 61
2, 16632, Note_on_c, 0, 74, 0
2, 16635, Control_c, 0, 64, 63
2, 16652, Control_c, 0, 64, 64
2, 16655, Note_on_c, 0, 77, 61
2, 16711, Control_c, 0, 64, 62
2, 16732, Control_c, 0, 64, 60
2, 16749, Control_c, 0, 64, 56
2, 16755, Note_on_c, 0, 58, 75
2, 16765, Note_on_c, 0, 77, 0
2, 16768, Control_c, 0, 64, 52
2, 16775, Note_on_c, 0, 74, 59
2, 16802, Control_c, 0, 64, 45
2, 16821, Control_c, 0, 64, 33
2, 16841, Control_c, 0, 64, 15
2, 16855, Note_on_c, 0, 74, 0
2, 16858, Control_c, 0, 64, 0
2, 16880, Note_on_c, 0, 60, 73
2, 16882, Note_on_c, 0, 58, 0
2, 16890, Note_on_c, 0, 72, 63
2, 16982, Note_on_c, 0, 62, 76
2, 16986, Note_on_c, 0, 72, 0
2, 16988, Note_on_c, 0, 60, 0
2, 17002, Note_on_c, 0, 70, 64
2, 17017, Note_on_c, 0, 62, 0
2, 17084, Note_on_c, 0, 70, 0
2, 17111, Note_on_c, 0, 74, 61
2, 17208, Note_on_c, 0, 65, 69
2, 17213, Note_on_c, 0, 74, 0
2, 17228, Note_on_c, 0, 70, 60
2, 17242, Note_on_c, 0, 65, 0
2, 17304, Note_on_c, 0, 70, 0
2, 17329, Note_on_c, 0, 69, 56
2, 17377, Note_on_c, 0, 69, 0
2, 17424, Note_on_c, 0, 58, 55
2, 17427, Note_on_c, 0, 67, 58
2, 17455, Note_on_c, 0, 58, 0
2, 17503, Note_on_c, 0, 67, 0
2, 17541, Note_on_c, 0, 70, 58
2, 17631, Note_on_c, 0, 70, 0
2, 17650, Note_on_c, 0, 62, 58
2, 17652, Note_on_c, 0, 67, 58
2, 17693, Note_on_c, 0, 62, 0
2, 17713, Note_on_c, 0, 67, 0
2, 17767, Note_on_c, 0, 65, 61
2, 17850, Note_on_c, 0, 65, 0
2, 17876, Note_on_c, 0, 55, 57
2, 17876, Note_on_c, 0, 64, 64
2, 17889, Control_c, 0, 64, 21
2, 17908, Control_c, 0, 64, 31
2, 17944, Note_on_c, 0, 64, 0
2, 17972, Note_on_c, 0, 55, 0
2, 17984, Note_on_c, 0, 58, 64
2, 18001, Control_c, 0, 64, 22
2, 18023, Control_c, 0, 64, 12
2, 18040, Control_c, 0, 64, 0
2, 18063, Note_on_c, 0, 58, 0
2, 18092, Note_on_c, 0, 76, 79
2, 18111, Note_on_c, 0, 55, 64
2, 18191, Note_on_c, 0, 76, 0
2, 18195, Note_on_c, 0, 77, 78
2, 18199, Note_on_c, 0, 53, 66
2, 18202, Note_on_c, 0, 55, 0
2, 18284, Note_on_c, 0, 53, 0
2, 18293, Note_on_c, 0, 79, 86
2, 18301, Note_on_c, 0, 52, 67
2, 18303, Note_on_c, 0, 77, 0
2, 18335, Note_on_c, 0, 79, 0
2, 18405, Note_on_c, 0, 52, 0
2, 18425, Note_on_c, 0, 55, 63
2, 18517, Note_on_c, 0, 55, 0
2, 18529, Note_on_c, 0, 82, 84
2, 18543, Note_on_c, 0, 52, 66
2, 18587, Note_on_c, 0, 82, 0
2, 18637, Note_on_c, 0, 52, 0
2, 18647, Note_on_c, 0, 50, 65
2, 18780, Note_on_c, 0, 76, 78
2, 18781, Note_on_c, 0, 49, 68
2, 18784, Note_on_c, 0, 50, 0
2, 18811, Note_on_c, 0, 76, 0
2, 18871, Note_on_c, 0, 49, 0
2, 18895, Note_on_c, 0, 52, 64
2, 18996, Note_on_c, 0, 52, 0
2, 19005, Note_on_c, 0, 79, 65
2, 19009, Note_on_c, 0, 49, 65
2, 19035, Note_on_c, 0, 79, 0
2, 19078, Note_on_c, 0, 49, 0
2, 19095, Note_on_c, 0, 47, 66
2, 19189, Note_on_c, 0, 47, 0
2, 19212, Note_on_c, 0, 45, 73
2, 19238, Note_on_c, 0, 73, 65
2, 19284, Control_c, 0, 64, 32
2, 19304, Control_c, 0, 64, 52
2, 19308, Note_on_c, 0, 45, 0
2, 19322, Control_c, 0, 64, 67
2, 19330, Note_on_c, 0, 73, 0
2, 19341, Control_c, 0, 64, 74
2, 19349, Note_on_c, 0, 79, 62
2, 19352, Control_c, 0, 64, 78
2, 19372, Control_c, 0, 64, 80
2, 19410, Control_c, 0, 64, 78
2, 19427, Control_c, 0, 64, 69
2, 19434, Note_on_c, 0, 79, 0
2, 19442, Note_on_c, 0, 57, 79
2, 19447, Control_c, 0, 64, 51
2, 19449, Note_on_c, 0, 73, 70
2, 19465, Control_c, 0, 64, 16
2, 19483, Control_c, 0, 64, 0
2, 19524, Note_on_c, 0, 73, 0
2, 19557, Note_on_c, 0, 57, 0
2, 19558, Note_on_c, 0, 71, 65
2, 19559, Note_on_c, 0, 59, 73
2, 19648, Note_on_c, 0, 59, 0
2, 19668, Note_on_c, 0, 61, 76
2, 19674, Note_on_c, 0, 71, 0
2, 19681, Note_on_c, 0, 69, 67
2, 19707, Note_on_c, 0, 61, 0
2, 19767, Note_on_c, 0, 69, 0
2, 19808, Note_on_c, 0, 76, 55
2, 19897, Note_on_c, 0, 76, 0
2, 19906, Note_on_c, 0, 64, 67
2, 19916, Note_on_c, 0, 69, 59
2, 19946, Note_on_c, 0, 64, 0
2, 19977, Note_on_c, 0, 69, 0
2, 20023, Note_on_c, 0, 67, 57
2, 20107, Note_on_c, 0, 67, 0
2, 20128, Note_on_c, 0, 57, 61
2, 20136, Note_on_c, 0, 65, 59
2, 20162, Note_on_c, 0, 57, 0
2, 20210, Note_on_c, 0, 65, 0
2, 20258, Note_on_c, 0, 73, 51
2, 20342, Note_on_c, 0, 73, 0
2, 20345, Note_on_c, 0, 55, 54
2, 20345, Note_on_c, 0, 65, 65
2, 20383, Note_on_c, 0, 55, 0
2, 20418, Note_on_c, 0, 65, 0
2, 20458, Note_on_c, 0, 64, 61
2, 20510, Note_on_c, 0, 64, 0
2, 20543, Control_c, 0, 64, 12
2, 20543, Note_on_c, 0, 53, 65
2, 20547, Note_on_c, 0, 62, 67
2, 20562, Control_c, 0, 64, 35
2, 20581, Control_c, 0, 64, 41
2, 20581, Note_on_c, 0, 62, 0
2, 20636, Note_on_c, 0, 53, 0
2, 20652, Control_c, 0, 64, 37
2, 20665, Note_on_c, 0, 62, 71
2, 20673, Control_c, 0, 64, 29
2, 20691, Control_c, 0, 64, 21
2, 20711, Control_c, 0, 64, 14
2, 20727, Control_c, 0, 64, 8
2, 20736, Note_on_c, 0, 62, 0
2, 20744, Control_c, 0, 64, 0
2, 20762, Note_on_c, 0, 74, 80
2, 20773, Note_on_c, 0, 53, 69
2, 20860, Note_on_c, 0, 53, 0
2, 20861, Note_on_c, 0, 52, 67
2, 20865, Note_on_c, 0, 74, 0
2, 20865, Note_on_c, 0, 76, 80
2, 20959, Note_on_c, 0, 77, 84
2, 20974, Note_on_c, 0, 52, 0
2, 20976, Note_on_c, 0, 50, 65
2, 20984, Note_on_c, 0, 76, 0
2, 21008, Note_on_c, 0, 77, 0
2, 21075, Note_on_c, 0, 50, 0
2, 21086, Note_on_c, 0, 57, 67
2, 21180, Note_on_c, 0, 57, 0
2, 21193, Note_on_c, 0, 81, 80
2, 21209, Note_on_c, 0, 50, 66
2, 21222, Note_on_c, 0, 81, 0
2, 21292, Note_on_c, 0, 50, 0
2, 21299, Note_on_c, 0, 48, 62
2, 21418, Note_on_c, 0, 46, 66
2, 21418, Note_on_c, 0, 48, 0
2, 21423, Note_on_c, 0, 74, 69
2, 21456, Note_on_c, 0, 74, 0
2, 21504, Note_on_c, 0, 46, 0
2, 21532, Note_on_c, 0, 53, 64
2, 21655, Note_on_c, 0, 53, 0
2, 21661, Note_on_c, 0, 46, 66
2, 21672, Note_on_c, 0, 72, 60
2, 21703, Note_on_c, 0, 72, 0
2, 21737, Note_on_c, 0, 46, 0
2, 21754, Note_on_c, 0, 45, 62
2, 21865, Note_on_c, 0, 45, 0
2, 21875, Note_on_c, 0, 43, 69
2, 21888, Note_on_c, 0, 70, 67
2, 21916, Control_c, 0, 64, 13
2, 21935, Control_c, 0, 64, 32
2, 21955, Control_c, 0, 64, 46
2, 21973, Control_c, 0, 64, 59
2, 21986, Note_on_c, 0, 70, 0
2, 21990, Note_on_c, 0, 43, 0
2, 21993, Control_c, 0, 64, 64
2, 22000, Note_on_c, 0, 79, 64
2, 22032, Control_c, 0, 64, 61
2, 22049, Control_c, 0, 64, 50
2, 22067, Control_c, 0, 64, 26
2, 22079, Note_on_c, 0, 79, 0
2, 22087, Control_c, 0, 64, 0
2, 22107, Note_on_c, 0, 55, 67
2, 22113, Note_on_c, 0, 70, 69
2, 22197, Note_on_c, 0, 70, 0
2, 22209, Note_on_c, 0, 55, 0
2, 22209, Note_on_c, 0, 57, 68
2, 22219, Note_on_c, 0, 69, 63
2, 22299, Note_on_c, 0, 57, 0
2, 22317, Note_on_c, 0, 69, 0
2, 22319, Note_on_c, 0, 58, 70
2, 22334, Note_on_c, 0, 67, 61
2, 22351, Note_on_c, 0, 58, 0
2, 22397, Note_on_c, 0, 67, 0
2, 22437, Note_on_c, 0, 70, 61
2, 22542, Note_on_c, 0, 70, 0
2, 22569, Note_on_c, 0, 62, 54
2, 22572, Note_on_c, 0, 67, 56
2, 22607, Note_on_c, 0, 62, 0
2, 22632, Note_on_c, 0, 67, 0
2, 22679, Note_on_c, 0, 65, 56
2, 22755, Note_on_c, 0, 65, 0
2, 22763, Control_c, 0, 67, 8
2, 22781, Control_c, 0, 67, 13
2, 22784, Note_on_c, 0, 55, 56
2, 22791, Note_on_c, 0, 63, 58
2, 22800, Control_c, 0, 67, 21
2, 22818, Control_c, 0, 67, 28
2, 22818, Note_on_c, 0, 55, 0
2, 22840, Control_c, 0, 67, 33
2, 22852, Note_on_c, 0, 63, 0
2, 22858, Control_c, 0, 67, 39
2, 22876, Control_c, 0, 67, 46
2, 22892, Control_c, 0, 67, 53
2, 22897, Note_on_c, 0, 70, 53
2, 22914, Control_c, 0, 67, 61
2, 22933, Control_c, 0, 67, 70
2, 22952, Control_c, 0, 67, 81
2, 22971, Control_c, 0, 67, 93
2, 22992, Control_c, 0, 67, 105
2, 23008, Note_on_c, 0, 70, 0
2, 23009, Control_c, 0, 67, 120
2, 23015, Note_on_c, 0, 63, 57
2, 23019, Note_on_c, 0, 58, 57
2, 23028, Control_c, 0, 67, 127
2, 23051, Note_on_c, 0, 58, 0
2, 23082, Note_on_c, 0, 63, 0
2, 23138, Note_on_c, 0, 62, 51
2, 23212, Note_on_c, 0, 62, 0
2, 23247, Note_on_c, 0, 57, 53
2, 23250, Note_on_c, 0, 61, 53
2, 23283, Note_on_c, 0, 57, 0
2, 23306, Note_on_c, 0, 61, 0
2, 23367, Note_on_c, 0, 69, 43
2, 23457, Note_on_c, 0, 69, 0
2, 23479, Note_on_c, 0, 61, 53
2, 23487, Note_on_c, 0, 64, 55
2, 23544, Note_on_c, 0, 64, 0
2, 23554, Note_on_c, 0, 61, 0
2, 23608, Note_on_c, 0, 59, 59
2, 23681, Note_on_c, 0, 59, 0
2, 23717, Note_on_c, 0, 57, 51
2, 23723, Note_on_c, 0, 61, 50
2, 23751, Note_on_c, 0, 57, 0
2, 23772, Note_on_c, 0, 61, 0
2, 23847, Note_on_c, 0, 69, 34
2, 23917, Note_on_c, 0, 69, 0
2, 23950, Note_on_c, 0, 61, 54
2, 23952, Note_on_c, 0, 64, 49
2, 23986, Note_on_c, 0, 64, 0
2, 24005, Note_on_c, 0, 61, 0
2, 24068, Note_on_c, 0, 69, 43
2, 24118, Note_on_c, 0, 69, 0
2, 24168, Note_on_c, 0, 57, 53
2, 24172, Note_on_c, 0, 61, 53
2, 24207, Note_on_c, 0, 57, 0
2, 24227, Note_on_c, 0, 61, 0
2, 24305, Note_on_c, 0, 69, 29
2, 24367, Note_on_c, 0, 69, 0
2, 24413, Note_on_c, 0, 64, 51
2, 24416, Note_on_c, 0, 61, 54
2, 24446, Note_on_c, 0, 64, 0
2, 24478, Note_on_c, 0, 61, 0
2, 24538, Note_on_c, 0, 69, 47
2, 24607, Note_on_c, 0, 69, 0
2, 24652, Note_on_c, 0, 55, 49
2, 24654, Note_on_c, 0, 61, 55
2, 24693, Note_on_c, 0, 55, 0
2, 24723, Note_on_c, 0, 61, 0
2, 24763, Note_on_c, 0, 69, 53
2, 24867, Note_on_c, 0, 69, 0
2, 24872, Note_on_c, 0, 61, 61
2, 24876, Note_on_c, 0, 64, 58
2, 24916, Note_on_c, 0, 64, 0
2, 24942, Note_on_c, 0, 61, 0
2, 24993, Note_on_c, 0, 59, 57
2, 25066, Note_on_c, 0, 59, 0
2, 25096, Note_on_c, 0, 55, 55
2, 25096, Note_on_c, 0, 61, 60
2, 25143, Note_on_c, 0, 55, 0
2, 25152, Note_on_c, 0, 61, 0
2, 25224, Note_on_c, 0, 69, 37
2, 25284, Note_on_c, 0, 69, 0
2, 25340, Note_on_c, 0, 61, 52
2, 25341, Note_on_c, 0, 64, 51
2, 25376, Note_on_c, 0, 64, 0
2, 25387, Note_on_c, 0, 61, 0
2, 25477, Note_on_c, 0, 69, 38
2, 25526, Note_on_c, 0, 69, 0
2, 25577, Note_on_c, 0, 55, 50
2, 25583, Note_on_c, 0, 61, 54
2, 25616, Note_on_c, 0, 55, 0
2, 25637, Note_on_c, 0, 61, 0
2, 25691, Note_on_c, 0, 69, 39
2, 25758, Note_on_c, 0, 69, 0
2, 25809, Note_on_c, 0, 64, 55
2, 25812, Note_on_c, 0, 61, 60
2, 25847, Note_on_c, 0, 64, 0
2, 25859, Note_on_c, 0, 61, 0
2, 25923, Note_on_c, 0, 69, 46
2, 26001, Note_on_c, 0, 69, 0
2, 26020, Note_on_c, 0, 53, 55
2, 26034, Note_on_c, 0, 62, 64
2, 26067, Note_on_c, 0, 53, 0
2, 26085, Note_on_c, 0, 62, 0
2, 26159, Note_on_c, 0, 69, 54
2, 26219, Note_on_c, 0, 69, 0
2, 26252, Note_on_c, 0, 65, 56
2, 26277, Note_on_c, 0, 62, 59
2, 26302, Note_on_c, 0, 65, 0
2, 26341, Note_on_c, 0, 62, 0
2, 26380, Note_on_c, 0, 61, 59
2, 26464, Note_on_c, 0, 61, 0
2, 26496, Note_on_c, 0, 53, 56
2, 26497, Note_on_c, 0, 62, 66
2, 26543, Note_on_c, 0, 53, 0
2, 26558, Note_on_c, 0, 62, 0
2, 26632, Note_on_c, 0, 69, 54
2, 26688, Note_on_c, 0, 69, 0
2, 26736, Note_on_c, 0, 65, 58
2, 26742, Note_on_c, 0, 62, 55
2, 26776, Note_on_c, 0, 65, 0
2, 26794, Note_on_c, 0, 62, 0
2, 26854, Note_on_c, 0, 69, 53
2, 26922, Note_on_c, 0, 69, 0
2, 26969, Note_on_c, 0, 53, 60
2, 26970, Note_on_c, 0, 62, 58
2, 27021, Note_on_c, 0, 53, 0
2, 27023, Note_on_c, 0, 62, 0
2, 27090, Note_on_c, 0, 69, 53
2, 27156, Note_on_c, 0, 69, 0
2, 27195, Note_on_c, 0, 65, 54
2, 27203, Note_on_c, 0, 62, 57
2, 27235, Note_on_c, 0, 65, 0
2, 27250, Note_on_c, 0, 62, 0
2, 27309, Note_on_c, 0, 69, 55
2, 27384, Note_on_c, 0, 69, 0
2, 27423, Note_on_c, 0, 61, 67
2, 27431, Note_on_c, 0, 64, 60
2, 27454, Note_on_c, 0, 61, 0
2, 27523, Note_on_c, 0, 64, 0
2, 27546, Note_on_c, 0, 69, 56
2, 27640, Note_on_c, 0, 69, 0
2, 27648, Note_on_c, 0, 67, 66
2, 27674, Note_on_c, 0, 64, 53
2, 27681, Note_on_c, 0, 67, 0
2, 27723, Note_on_c, 0, 64, 0
2, 27771, Note_on_c, 0, 62, 57
2, 27834, Note_on_c, 0, 62, 0
2, 27853, Note_on_c, 0, 61, 60
2, 27877, Note_on_c, 0, 64, 57
2, 27904, Note_on_c, 0, 61, 0
2, 27946, Note_on_c, 0, 64, 0
2, 27989, Note_on_c, 0, 69, 56
2, 28049, Note_on_c, 0, 69, 0
2, 28083, Note_on_c, 0, 67, 63
2, 28103, Note_on_c, 0, 64, 57
2, 28130, Note_on_c, 0, 67, 0
2, 28151, Note_on_c, 0, 64, 0
2, 28210, Note_on_c, 0, 69, 55
2, 28272, Note_on_c, 0, 69, 0
2, 28336, Note_on_c, 0, 61, 51
2, 28341, Note_on_c, 0, 64, 54
2, 28377, Note_on_c, 0, 61, 0
2, 28397, Note_on_c, 0, 64, 0
2, 28449, Note_on_c, 0, 69, 51
2, 28509, Note_on_c, 0, 69, 0
2, 28558, Note_on_c, 0, 64, 51
2, 28565, Note_on_c, 0, 67, 50
2, 28603, Note_on_c, 0, 67, 0
2, 28615, Control_c, 0, 67, 122
2, 28633, Control_c, 0, 67, 116
2, 28651, Note_on_c, 0, 64, 0
2, 28671, Control_c, 0, 67, 110
2, 28675, Note_on_c, 0, 69, 47
2, 28705, Note_on_c, 0, 69, 0
2, 28707, Control_c, 0, 67, 102
2, 28747, Control_c, 0, 67, 96
2, 28782, Note_on_c, 0, 65, 55
2, 28787, Control_c, 0, 67, 92
2, 28795, Note_on_c, 0, 62, 49
2, 28822, Control_c, 0, 67, 86
2, 28831, Note_on_c, 0, 65, 0
2, 28835, Note_on_c, 0, 62, 0
2, 28841, Control_c, 0, 67, 79
2, 28843, Note_on_c, 0, 69, 58
2, 28860, Control_c, 0, 67, 71
2, 28879, Control_c, 0, 67, 63
2, 28897, Control_c, 0, 67, 55
2, 28909, Note_on_c, 0, 69, 0
2, 28916, Control_c, 0, 67, 49
2, 28922, Note_on_c, 0, 71, 63
2, 28936, Control_c, 0, 67, 44
2, 28968, Note_on_c, 0, 71, 0
2, 28975, Control_c, 0, 67, 39
2, 28976, Note_on_c, 0, 73, 60
2, 29057, Note_on_c, 0, 65, 46
2, 29066, Note_on_c, 0, 73, 0
2, 29073, Note_on_c, 0, 74, 61
2, 29102, Note_on_c, 0, 65, 0
2, 29104, Control_c, 0, 67, 32
2, 29124, Control_c, 0, 67, 28
2, 29142, Control_c, 0, 67, 21
2, 29162, Control_c, 0, 67, 13
2, 29184, Note_on_c, 0, 74, 0
2, 29200, Control_c, 0, 67, 0
2, 29200, Note_on_c, 0, 69, 52
2, 29258, Note_on_c, 0, 69, 0
2, 29285, Note_on_c, 0, 62, 58
2, 29312, Note_on_c, 0, 65, 59
2, 29324, Note_on_c, 0, 62, 0
2, 29381, Note_on_c, 0, 65, 0
2, 29414, Note_on_c, 0, 69, 56
2, 29503, Note_on_c, 0, 69, 0
2, 29517, Note_on_c, 0, 65, 66
2, 29518, Note_on_c, 0, 74, 66
2, 29563, Note_on_c, 0, 65, 0
2, 29612, Note_on_c, 0, 74, 0
2, 29648, Note_on_c, 0, 69, 56
2, 29691, Note_on_c, 0, 69, 0
2, 29745, Note_on_c, 0, 65, 64
2, 29752, Note_on_c, 0, 62, 56
2, 29784, Note_on_c, 0, 62, 0
2, 29808, Note_on_c, 0, 65, 0
2, 29858, Note_on_c, 0, 69, 53
2, 29925, Note_on_c, 0, 69, 0
2, 29965, Note_on_c, 0, 74, 60
2, 29984, Note_on_c, 0, 65, 53
2, 30016, Note_on_c, 0, 65, 0
2, 30040, Note_on_c, 0, 74, 0
2, 30075, Note_on_c, 0, 69, 58
2, 30145, Note_on_c, 0, 69, 0
2, 30175, Note_on_c, 0, 66, 66
2, 30185, Note_on_c, 0, 60, 63
2, 30211, Note_on_c, 0, 60, 0
2, 30239, Note_on_c, 0, 66, 0
2, 30308, Note_on_c, 0, 74, 64
2, 30404, Note_on_c, 0, 74, 0
2, 30415, Note_on_c, 0, 66, 64
2, 30428, Note_on_c, 0, 69, 70
2, 30476, Note_on_c, 0, 69, 0
2, 30491, Note_on_c, 0, 66, 0
2, 30528, Note_on_c, 0, 64, 67
2, 30603, Note_on_c, 0, 64, 0
2, 30639, Note_on_c, 0, 66, 73
2, 30642, Note_on_c, 0, 60, 70
2, 30684, Note_on_c, 0, 60, 0
2, 30696, Note_on_c, 0, 66, 0
2, 30760, Note_on_c, 0, 74, 63
2, 30853, Note_on_c, 0, 74, 0
2, 30877, Note_on_c, 0, 66, 67
2, 30886, Note_on_c, 0, 69, 63
2, 30927, Note_on_c, 0, 69, 0
2, 30947, Note_on_c, 0, 66, 0
2, 31003, Note_on_c, 0, 74, 65
2, 31057, Note_on_c, 0, 74, 0
2, 31096, Note_on_c, 0, 66, 74
2, 31103, Note_on_c, 0, 60, 65
2, 31151, Note_on_c, 0, 60, 0
2, 31168, Note_on_c, 0, 66, 0
2, 31236, Note_on_c, 0, 74, 62
2, 31300, Note_on_c, 0, 74, 0
2, 31340, Note_on_c, 0, 66, 70
2, 31352, Note_on_c, 0, 69, 68
2, 31400, Note_on_c, 0, 69, 0
2, 31406, Note_on_c, 0, 66, 0
2, 31440, Note_on_c, 0, 74, 66
2, 31501, Note_on_c, 0, 74, 0
2, 31551, Note_on_c, 0, 67, 78
2, 31552, Note_on_c, 0, 59, 73
2, 31584, Note_on_c, 0, 59, 0
2, 31601, Note_on_c, 0, 67, 0
2, 31606, Note_on_c, 0, 69, 69
2, 31681, Note_on_c, 0, 71, 70
2, 31695, Note_on_c, 0, 69, 0
2, 31742, Note_on_c, 0, 72, 73
2, 31753, Note_on_c, 0, 71, 0
2, 31774, Note_on_c, 0, 67, 73
2, 31802, Note_on_c, 0, 74, 77
2, 31817, Note_on_c, 0, 67, 0
2, 31826, Note_on_c, 0, 72, 0
2, 31900, Note_on_c, 0, 71, 73
2, 31926, Note_on_c, 0, 74, 0
2, 31989, Note_on_c, 0, 59, 78
2, 31996, Note_on_c, 0, 71, 0
2, 32002, Note_on_c, 0, 67, 79
2, 32033, Note_on_c, 0, 59, 0
2, 32093, Note_on_c, 0, 67, 0
2, 32126, Note_on_c, 0, 71, 74
2, 32240, Note_on_c, 0, 67, 78
2, 32245, Note_on_c, 0, 71, 0
2, 32245, Note_on_c, 0, 74, 79
2, 32284, Note_on_c, 0, 67, 0
2, 32352, Note_on_c, 0, 74, 0
2, 32355, Note_on_c, 0, 71, 68
2, 32447, Note_on_c, 0, 71, 0
2, 32460, Note_on_c, 0, 59, 81
2, 32469, Note_on_c, 0, 67, 78
2, 32502, Note_on_c, 0, 59, 0
2, 32554, Note_on_c, 0, 67, 0
2, 32584, Note_on_c, 0, 71, 70
2, 32689, Note_on_c, 0, 71, 0
2, 32697, Note_on_c, 0, 74, 76
2, 32698, Note_on_c, 0, 67, 79
2, 32757, Note_on_c, 0, 67, 0
2, 32811, Note_on_c, 0, 74, 0
2, 32815, Note_on_c, 0, 71, 71
2, 32906, Note_on_c, 0, 71, 0
2, 32912, Note_on_c, 0, 64, 78
2, 32917, Note_on_c, 0, 68, 82
2, 32965, Note_on_c, 0, 64, 0
2, 33025, Note_on_c, 0, 68, 0
2, 33031, Note_on_c, 0, 74, 76
2, 33159, Note_on_c, 0, 74, 0
2, 33167, Note_on_c, 0, 68, 78
2, 33168, Note_on_c, 0, 71, 76
2, 33218, Note_on_c, 0, 71, 0
2, 33260, Note_on_c, 0, 68, 0
2, 33273, Note_on_c, 0, 66, 80
2, 33367, Note_on_c, 0, 66, 0
2, 33371, Note_on_c, 0, 64, 72
2, 33387, Note_on_c, 0, 68, 78
2, 33405, Note_on_c, 0, 64, 0
2, 33479, Note_on_c, 0, 68, 0
2, 33496, Note_on_c, 0, 74, 74
2, 33609, Note_on_c, 0, 71, 73
2, 33611, Note_on_c, 0, 68, 82
2, 33613, Note_on_c, 0, 74, 0
2, 33655, Note_on_c, 0, 71, 0
2, 33709, Note_on_c, 0, 68, 0
2, 33721, Note_on_c, 0, 74, 77
2, 33829, Note_on_c, 0, 64, 75
2, 33834, Note_on_c, 0, 74, 0
2, 33836, Note_on_c, 0, 68, 85
2, 33863, Note_on_c, 0, 64, 0
2, 33931, Note_on_c, 0, 68, 0
2, 33937, Note_on_c, 0, 74, 81
2, 34039, Control_c, 0, 64, 26
2, 34046, Note_on_c, 0, 71, 70
2, 34052, Note_on_c, 0, 68, 86
2, 34057, Control_c, 0, 64, 32
2, 34060, Note_on_c, 0, 74, 0
2, 34092, Control_c, 0, 64, 40
2, 34101, Note_on_c, 0, 71, 0
2, 34111, Control_c, 0, 64, 48
2, 34130, Control_c, 0, 64, 56
2, 34149, Control_c, 0, 64, 61
2, 34165, Control_c, 0, 64, 64
2, 34168, Note_on_c, 0, 74, 86
2, 34186, Control_c, 0, 64, 65
2, 34192, Note_on_c, 0, 68, 0
2, 34210, Note_on_c, 0, 74, 0
2, 34224, Control_c, 0, 64, 66
2, 34263, Control_c, 0, 64, 64
2, 34282, Control_c, 0, 64, 61
2, 34292, Note_on_c, 0, 57, 75
2, 34301, Control_c, 0, 64, 58
2, 34303, Note_on_c, 0, 72, 88
2, 34318, Control_c, 0, 64, 55
2, 34338, Control_c, 0, 64, 52
2, 34357, Control_c, 0, 64, 47
2, 34376, Control_c, 0, 64, 40
2, 34393, Control_c, 0, 64, 33
2, 34412, Control_c, 0, 64, 26
2, 34432, Control_c, 0, 64, 19
2, 34443, Note_on_c, 0, 69, 79
2, 34450, Control_c, 0, 64, 13
2, 34469, Control_c, 0, 64, 8
2, 34489, Control_c, 0, 64, 0
2, 34551, Note_on_c, 0, 67, 79
2, 34630, Note_on_c, 0, 69, 0
2, 34665, Note_on_c, 0, 65, 76
2, 34673, Note_on_c, 0, 67, 0
2, 34783, Note_on_c, 0, 65, 0
2, 34785, Note_on_c, 0, 64, 75
2, 34909, Note_on_c, 0, 62, 73
2, 34972, Note_on_c, 0, 64, 0
2, 35002, Note_on_c, 0, 57, 0
2, 35021, Note_on_c, 0, 60, 73
2, 35022, Note_on_c, 0, 62, 0
2, 35150, Note_on_c, 0, 59, 74
2, 35151, Note_on_c, 0, 60, 0
2, 35248, Note_on_c, 0, 72, 0
2, 35264, Note_on_c, 0, 57, 74
2, 35270, Note_on_c, 0, 59, 0
2, 35356, Note_on_c, 0, 57, 0
2, 35371, Note_on_c, 0, 60, 73
2, 35488, Note_on_c, 0, 60, 0
2, 35498, Note_on_c, 0, 59, 68
2, 35591, Note_on_c, 0, 57, 72
2, 35592, Note_on_c, 0, 59, 0
2, 35655, Note_on_c, 0, 57, 0
2, 35697, Note_on_c, 0, 65, 76
2, 35807, Note_on_c, 0, 65, 0
2, 35808, Note_on_c, 0, 62, 73
2, 35908, Note_on_c, 0, 62, 0
2, 35921, Note_on_c, 0, 57, 68
2, 35926, Note_on_c, 0, 69, 80
2, 35970, Note_on_c, 0, 69, 0
2, 36044, Note_on_c, 0, 57, 0
2, 36056, Note_on_c, 0, 62, 68
2, 36151, Note_on_c, 0, 62, 0
2, 36164, Note_on_c, 0, 65, 71
2, 36167, Note_on_c, 0, 74, 87
2, 36208, Note_on_c, 0, 74, 0
2, 36275, Note_on_c, 0, 65, 0
2, 36290, Note_on_c, 0, 62, 68
2, 36381, Note_on_c, 0, 62, 0
2, 36397, Note_on_c, 0, 77, 84
2, 36402, Note_on_c, 0, 57, 65
2, 36422, Note_on_c, 0, 77, 0
2, 36498, Note_on_c, 0, 57, 0
2, 36517, Note_on_c, 0, 62, 67
2, 36623, Note_on_c, 0, 62, 0
2, 36636, Note_on_c, 0, 65, 66
2, 36643, Note_on_c, 0, 81, 81
2, 36674, Note_on_c, 0, 80, 82
2, 36677, Note_on_c, 0, 81, 0
2, 36737, Note_on_c, 0, 65, 0
2, 36745, Note_on_c, 0, 81, 82
2, 36751, Note_on_c, 0, 80, 0
2, 36757, Note_on_c, 0, 62, 63
2, 36837, Note_on_c, 0, 62, 0
2, 36855, Note_on_c, 0, 57, 65
2, 36984, Note_on_c, 0, 57, 0
2, 36992, Note_on_c, 0, 62, 67
2, 37074, Note_on_c, 0, 62, 0
2, 37078, Note_on_c, 0, 64, 74
2, 37078, Note_on_c, 0, 81, 0
2, 37181, Note_on_c, 0, 64, 0
2, 37194, Note_on_c, 0, 62, 72
2, 37279, Note_on_c, 0, 62, 0
2, 37298, Note_on_c, 0, 57, 70
2, 37308, Note_on_c, 0, 69, 78
2, 37350, Note_on_c, 0, 69, 0
2, 37410, Note_on_c, 0, 57, 0
2, 37423, Note_on_c, 0, 62, 68
2, 37522, Note_on_c, 0, 62, 0
2, 37528, Note_on_c, 0, 64, 71
2, 37533, Note_on_c, 0, 72, 79
2, 37564, Note_on_c, 0, 72, 0
2, 37634, Note_on_c, 0, 64, 0
2, 37642, Note_on_c, 0, 60, 67
2, 37743, Note_on_c, 0, 60, 0
2, 37756, Note_on_c, 0, 76, 84
2, 37758, Note_on_c, 0, 57, 67
2, 37784, Note_on_c, 0, 76, 0
2, 37860, Note_on_c, 0, 57, 0
2, 37866, Note_on_c, 0, 60, 67
2, 37990, Note_on_c, 0, 60, 0
2, 37996, Note_on_c, 0, 64, 66
2, 38004, Note_on_c, 0, 81, 86
2, 38056, Note_on_c, 0, 81, 0
2, 38061, Note_on_c, 0, 80, 75
2, 38098, Note_on_c, 0, 64, 0
2, 38102, Note_on_c, 0, 60, 64
2, 38124, Note_on_c, 0, 81, 79
2, 38149, Note_on_c, 0, 80, 0
2, 38198, Note_on_c, 0, 60, 0
2, 38209, Note_on_c, 0, 57, 65
2, 38329, Note_on_c, 0, 57, 0
2, 38329, Note_on_c, 0, 60, 68
2, 38413, Note_on_c, 0, 60, 0
2, 38422, Note_on_c, 0, 62, 75
2, 38463, Note_on_c, 0, 81, 0
2, 38523, Note_on_c, 0, 62, 0
2, 38530, Note_on_c, 0, 59, 74
2, 38624, Note_on_c, 0, 59, 0
2, 38635, Note_on_c, 0, 57, 68
2, 38643, Note_on_c, 0, 74, 87
2, 38691, Note_on_c, 0, 74, 0
2, 38748, Note_on_c, 0, 57, 0
2, 38758, Note_on_c, 0, 59, 73
2, 38877, Note_on_c, 0, 59, 0
2, 38883, Note_on_c, 0, 62, 68
2, 38886, Note_on_c, 0, 80, 89
2, 38931, Note_on_c, 0, 80, 0
2, 39005, Note_on_c, 0, 62, 0
2, 39006, Note_on_c, 0, 59, 72
2, 39104, Note_on_c, 0, 59, 0
2, 39113, Note_on_c, 0, 56, 68
2, 39114, Note_on_c, 0, 83, 88
2, 39159, Note_on_c, 0, 83, 0
2, 39227, Note_on_c, 0, 56, 0
2, 39227, Note_on_c, 0, 59, 70
2, 39333, Note_on_c, 0, 59, 0
2, 39336, Note_on_c, 0, 62, 66
2, 39346, Note_on_c, 0, 80, 81
2, 39381, Note_on_c, 0, 80, 0
2, 39453, Note_on_c, 0, 62, 0
2, 39463, Note_on_c, 0, 59, 66
2, 39552, Note_on_c, 0, 59, 0
2, 39562, Note_on_c, 0, 56, 65
2, 39575, Note_on_c, 0, 76, 69
2, 39607, Note_on_c, 0, 76, 0
2, 39673, Note_on_c, 0, 56, 0
2, 39679, Note_on_c, 0, 59, 68
2, 39789, Note_on_c, 0, 81, 80
2, 39799, Note_on_c, 0, 60, 73
2, 39800, Note_on_c, 0, 59, 0
2, 39899, Note_on_c, 0, 60, 0
2, 40068, Note_on_c, 0, 45, 75
2, 40079, Note_on_c, 0, 79, 71
2, 40112, Note_on_c, 0, 81, 0
2, 40122, Note_on_c, 0, 45, 0
2, 40188, Note_on_c, 0, 77, 71
2, 40227, Note_on_c, 0, 79, 0
2, 40308, Note_on_c, 0, 76, 68
2, 40309, Note_on_c, 0, 48, 64
2, 40310, Note_on_c, 0, 77, 0
2, 40348, Note_on_c, 0, 48, 0
2, 40406, Note_on_c, 0, 76, 0
2, 40413, Note_on_c, 0, 74, 69
2, 40522, Note_on_c, 0, 52, 66
2, 40531, Note_on_c, 0, 72, 69
2, 40532, Note_on_c, 0, 74, 0
2, 40563, Note_on_c, 0, 52, 0
2, 40638, Note_on_c, 0, 72, 0
2, 40645, Note_on_c, 0, 71, 63
2, 40734, Note_on_c, 0, 71, 0
2, 40742, Note_on_c, 0, 57, 71
2, 40753, Note_on_c, 0, 69, 65
2, 40781, Note_on_c, 0, 57, 0
2, 40850, Note_on_c, 0, 69, 0
2, 40872, Note_on_c, 0, 72, 66
2, 40969, Note_on_c, 0, 72, 0
2, 40973, Note_on_c, 0, 60, 68
2, 40987, Note_on_c, 0, 71, 63
2, 41010, Note_on_c, 0, 60, 0
2, 41066, Note_on_c, 0, 71, 0
2, 41109, Note_on_c, 0, 69, 61
2, 41161, Note_on_c, 0, 69, 0
2, 41196, Note_on_c, 0, 62, 77
2, 41209, Note_on_c, 0, 77, 71
2, 41224, Note_on_c, 0, 62, 0
2, 41311, Note_on_c, 0, 77, 0
2, 41316, Note_on_c, 0, 74, 62
2, 41404, Note_on_c, 0, 74, 0
2, 41427, Note_on_c, 0, 65, 68
2, 41442, Note_on_c, 0, 69, 62
2, 41477, Note_on_c, 0, 65, 0
2, 41499, Note_on_c, 0, 69, 0
2, 41550, Note_on_c, 0, 74, 62
2, 41610, Note_on_c, 0, 74, 0
2, 41659, Note_on_c, 0, 77, 57
2, 41665, Note_on_c, 0, 57, 54
2, 41701, Note_on_c, 0, 57, 0
2, 41763, Note_on_c, 0, 77, 0
2, 41779, Note_on_c, 0, 74, 57
2, 41844, Note_on_c, 0, 74, 0
2, 41890, Note_on_c, 0, 62, 68
2, 41897, Note_on_c, 0, 69, 59
2, 41942, Note_on_c, 0, 62, 0
2, 41982, Note_on_c, 0, 69, 0
2, 42011, Note_on_c, 0, 74, 56
2, 42099, Note_on_c, 0, 74, 0
2, 42122, Note_on_c, 0, 50, 66
2, 42130, Note_on_c, 0, 77, 56
2, 42157, Note_on_c, 0, 50, 0
2, 42215, Note_on_c, 0, 77, 0
2, 42245, Note_on_c, 0, 74, 57
2, 42321, Note_on_c, 0, 74, 0
2, 42360, Note_on_c, 0, 59, 64
2, 42371, Note_on_c, 0, 69, 53
2, 42397, Note_on_c, 0, 59, 0
2, 42433, Note_on_c, 0, 69, 0
2, 42475, Note_on_c, 0, 74, 60
2, 42571, Note_on_c, 0, 74, 0
2, 42589, Note_on_c, 0, 60, 64
2, 42594, Note_on_c, 0, 76, 58
2, 42617, Note_on_c, 0, 60, 0
2, 42677, Note_on_c, 0, 76, 0
2, 42692, Note_on_c, 0, 74, 58
2, 42791, Note_on_c, 0, 74, 0
2, 42835, Note_on_c, 0, 64, 64
2, 42835, Note_on_c, 0, 69, 60
2, 42873, Note_on_c, 0, 64, 0
2, 42891, Note_on_c, 0, 69, 0
2, 42943, Note_on_c, 0, 74, 60
2, 43044, Note_on_c, 0, 74, 0
2, 43060, Note_on_c, 0, 57, 65
2, 43064, Note_on_c, 0, 76, 57
2, 43088, Note_on_c, 0, 57, 0
2, 43148, Note_on_c, 0, 76, 0
2, 43167, Note_on_c, 0, 72, 54
2, 43238, Note_on_c, 0, 72, 0
2, 43286, Note_on_c, 0, 60, 64
2, 43293, Note_on_c, 0, 69, 58
2, 43337, Note_on_c, 0, 60, 0
2, 43390, Note_on_c, 0, 69, 0
2, 43404, Note_on_c, 0, 72, 52
2, 43495, Note_on_c, 0, 72, 0
2, 43512, Note_on_c, 0, 76, 58
2, 43605, Note_on_c, 0, 76, 0
2, 43632, Note_on_c, 0, 72, 54
2, 43704, Note_on_c, 0, 72, 0
2, 43755, Note_on_c, 0, 57, 67
2, 43756, Note_on_c, 0, 69, 63
2, 43794, Note_on_c, 0, 57, 0
2, 43865, Note_on_c, 0, 69, 0
2, 43866, Note_on_c, 0, 72, 59
2, 43963, Note_on_c, 0, 59, 77
2, 43966, Note_on_c, 0, 72, 0
2, 43977, Note_on_c, 0, 74, 66
2, 43993, Note_on_c, 0, 59, 0
2, 44088, Note_on_c, 0, 74, 0
2, 44104, Note_on_c, 0, 71, 63
2, 44189, Note_on_c, 0, 62, 69
2, 44199, Note_on_c, 0, 71, 0
2, 44208, Note_on_c, 0, 69, 65
2, 44232, Note_on_c, 0, 62, 0
2, 44304, Note_on_c, 0, 69, 0
2, 44313, Note_on_c, 0, 71, 65
2, 44402, Note_on_c, 0, 71, 0
2, 44405, Note_on_c, 0, 56, 77
2, 44417, Note_on_c, 0, 74, 70
2, 44456, Note_on_c, 0, 56, 0
2, 44524, Note_on_c, 0, 71, 68
2, 44526, Note_on_c, 0, 74, 0
2, 44639, Note_on_c, 0, 59, 81
2, 44654, Note_on_c, 0, 68, 73
2, 44657, Note_on_c, 0, 71, 0
2, 44697, Note_on_c, 0, 59, 0
2, 44770, Note_on_c, 0, 71, 73
2, 44772, Note_on_c, 0, 68, 0
2, 44870, Note_on_c, 0, 64, 78
2, 44876, Note_on_c, 0, 71, 0
2, 44888, Note_on_c, 0, 74, 77
2, 44917, Note_on_c, 0, 64, 0
2, 45004, Note_on_c, 0, 71, 73
2, 45017, Note_on_c, 0, 74, 0
2, 45104, Note_on_c, 0, 52, 72
2, 45104, Note_on_c, 0, 71, 0
2, 45108, Note_on_c, 0, 68, 77
2, 45150, Note_on_c, 0, 52, 0
2, 45217, Note_on_c, 0, 71, 77
2, 45230, Note_on_c, 0, 68, 0
2, 45294, Note_on_c, 0, 71, 0
2, 45334, Note_on_c, 0, 72, 81
2, 45349, Note_on_c, 0, 57, 67
2, 45456, Note_on_c, 0, 69, 75
2, 45562, Note_on_c, 0, 67, 76
2, 45652, Note_on_c, 0, 69, 0
2, 45685, Note_on_c, 0, 65, 73
2, 45691, Note_on_c, 0, 67, 0
2, 45799, Note_on_c, 0, 65, 0
2, 45808, Note_on_c, 0, 64, 79
2, 45905, Note_on_c, 0, 57, 0
2, 45909, Note_on_c, 0, 62, 73
2, 45972, Note_on_c, 0, 64, 0
2, 46024, Note_on_c, 0, 60, 71
2, 46024, Note_on_c, 0, 62, 0
2, 46112, Note_on_c, 0, 59, 69
2, 46114, Note_on_c, 0, 60, 0
2, 46220, Note_on_c, 0, 59, 0
2, 46223, Note_on_c, 0, 57, 66
2, 46300, Note_on_c, 0, 57, 0
2, 46323, Note_on_c, 0, 60, 66
2, 46414, Note_on_c, 0, 60, 0
2, 46418, Note_on_c, 0, 52, 63
2, 46521, Note_on_c, 0, 52, 0
2, 46535, Note_on_c, 0, 55, 61
2, 46645, Note_on_c, 0, 55, 0
2, 46647, Note_on_c, 0, 54, 65
2, 46654, Control_c, 0, 64, 18
2, 46674, Control_c, 0, 64, 31
2, 46687, Note_on_c, 0, 54, 0
2, 46691, Control_c, 0, 64, 40
2, 46699, Note_on_c, 0, 72, 0
2, 46710, Control_c, 0, 64, 45
2, 46730, Control_c, 0, 64, 49
2, 46768, Note_on_c, 0, 75, 68
2, 46787, Control_c, 0, 64, 45
2, 46807, Control_c, 0, 64, 42
2, 46825, Control_c, 0, 64, 38
2, 46845, Control_c, 0, 64, 31
2, 46863, Control_c, 0, 64, 22
2, 46864, Note_on_c, 0, 69, 71
2, 46867, Note_on_c, 0, 75, 0
2, 46872, Note_on_c, 0, 74, 70
2, 46881, Control_c, 0, 64, 12
2, 46898, Note_on_c, 0, 69, 0
2, 46901, Control_c, 0, 64, 0
2, 46962, Note_on_c, 0, 74, 0
2, 46981, Note_on_c, 0, 72, 63
2, 47019, Note_on_c, 0, 72, 0
2, 47094, Note_on_c, 0, 72, 70
2, 47104, Note_on_c, 0, 78, 66
2, 47132, Note_on_c, 0, 72, 0
2, 47215, Note_on_c, 0, 78, 0
2, 47223, Note_on_c, 0, 75, 62
2, 47339, Note_on_c, 0, 74, 62
2, 47342, Note_on_c, 0, 75, 0
2, 47346, Note_on_c, 0, 69, 55
2, 47385, Note_on_c, 0, 69, 0
2, 47415, Note_on_c, 0, 74, 0
2, 47445, Note_on_c, 0, 72, 60
2, 47496, Note_on_c, 0, 72, 0
2, 47562, Note_on_c, 0, 81, 66
2, 47566, Note_on_c, 0, 66, 55
2, 47603, Note_on_c, 0, 66, 0
2, 47667, Note_on_c, 0, 75, 64
2, 47671, Note_on_c, 0, 81, 0
2, 47781, Note_on_c, 0, 75, 0
2, 47788, Note_on_c, 0, 62, 47
2, 47790, Note_on_c, 0, 74, 58
2, 47855, Note_on_c, 0, 62, 0
2, 47860, Note_on_c, 0, 74, 0
2, 47903, Note_on_c, 0, 72, 51
2, 47941, Note_on_c, 0, 72, 0
2, 48009, Note_on_c, 0, 70, 64
2, 48010, Note_on_c, 0, 67, 57
2, 48047, Note_on_c, 0, 70, 0
2, 48058, Note_on_c, 0, 67, 0
2, 48120, Note_on_c, 0, 79, 60
2, 48227, Note_on_c, 0, 55, 59
2, 48234, Note_on_c, 0, 77, 63
2, 48269, Note_on_c, 0, 79, 0
2, 48280, Note_on_c, 0, 55, 0
2, 48332, Note_on_c, 0, 75, 69
2, 48340, Note_on_c, 0, 77, 0
2, 48447, Note_on_c, 0, 74, 68
2, 48453, Note_on_c, 0, 58, 53
2, 48455, Note_on_c, 0, 75, 0
2, 48515, Note_on_c, 0, 58, 0
2, 48552, Note_on_c, 0, 74, 0
2, 48584, Note_on_c, 0, 72, 63
2, 48672, Note_on_c, 0, 72, 0
2, 48677, Note_on_c, 0, 62, 54
2, 48686, Note_on_c, 0, 70, 65
2, 48721, Note_on_c, 0, 62, 0
2, 48801, Note_on_c, 0, 70, 0
2, 48810, Note_on_c, 0, 69, 60
2, 48906, Note_on_c, 0, 69, 0
2, 48911, Note_on_c, 0, 67, 56
2, 48919, Note_on_c, 0, 72, 66
2, 48952, Note_on_c, 0, 67, 0
2, 49021, Note_on_c, 0, 70, 63
2, 49030, Note_on_c, 0, 72, 0
2, 49108, Note_on_c, 0, 70, 0
2, 49131, Note_on_c, 0, 69, 56
2, 49149, Note_on_c, 0, 65, 53
2, 49180, Note_on_c, 0, 65, 0
2, 49223, Note_on_c, 0, 69, 0
2, 49232, Note_on_c, 0, 67, 63
2, 49346, Note_on_c, 0, 64, 65
2, 49346, Note_on_c, 0, 72, 69
2, 49347, Note_on_c, 0, 67, 0
2, 49393, Note_on_c, 0, 72, 0
2, 49452, Note_on_c, 0, 64, 0
2, 49467, Note_on_c, 0, 61, 62
2, 49561, Note_on_c, 0, 61, 0
2, 49585, Note_on_c, 0, 60, 58
2, 49587, Note_on_c, 0, 76, 80
2, 49643, Note_on_c, 0, 76, 0
2, 49700, Note_on_c, 0, 58, 58
2, 49702, Note_on_c, 0, 60, 0
2, 49789, Note_on_c, 0, 58, 0
2, 49810, Note_on_c, 0, 71, 79
2, 49816, Note_on_c, 0, 65, 60
2, 49853, Note_on_c, 0, 71, 0
2, 49931, Note_on_c, 0, 65, 0
2, 49936, Note_on_c, 0, 61, 60
2, 50044, Note_on_c, 0, 77, 79
2, 50046, Note_on_c, 0, 61, 0
2, 50060, Note_on_c, 0, 60, 64
2, 50084, Note_on_c, 0, 77, 0
2, 50169, Note_on_c, 0, 60, 0
2, 50170, Note_on_c, 0, 58, 61
2, 50244, Note_on_c, 0, 58, 0
2, 50269, Note_on_c, 0, 67, 61
2, 50270, Note_on_c, 0, 70, 69
2, 50301, Note_on_c, 0, 70, 0
2, 50377, Note_on_c, 0, 67, 0
2, 50398, Note_on_c, 0, 61, 63
2, 50503, Note_on_c, 0, 79, 80
2, 50506, Note_on_c, 0, 61, 0
2, 50514, Note_on_c, 0, 60, 61
2, 50614, Note_on_c, 0, 58, 68
2, 50622, Note_on_c, 0, 60, 0
2, 50748, Note_on_c, 0, 57, 63
2, 50753, Note_on_c, 0, 58, 0
2, 50850, Note_on_c, 0, 57, 0
2, 50855, Note_on_c, 0, 65, 64
2, 50857, Note_on_c, 0, 74, 72
2, 50894, Note_on_c, 0, 79, 0
2, 50947, Note_on_c, 0, 74, 0
2, 50953, Note_on_c, 0, 72, 79
2, 50962, Note_on_c, 0, 65, 0
2, 50967, Note_on_c, 0, 64, 69
2, 51052, Note_on_c, 0, 72, 0
2, 51054, Note_on_c, 0, 64, 0
2, 51059, Note_on_c, 0, 70, 77
2, 51061, Note_on_c, 0, 62, 69
2, 51138, Note_on_c, 0, 62, 0
2, 51157, Note_on_c, 0, 70, 0
2, 51164, Note_on_c, 0, 69, 80
2, 51167, Note_on_c, 0, 60, 76
2, 51252, Note_on_c, 0, 69, 0
2, 51267, Note_on_c, 0, 79, 78
2, 51276, Note_on_c, 0, 58, 68
2, 51277, Note_on_c, 0, 60, 0
2, 51374, Note_on_c, 0, 58, 0
2, 51385, Note_on_c, 0, 57, 65
2, 51396, Note_on_c, 0, 77, 75
2, 51434, Note_on_c, 0, 79, 0
2, 51500, Note_on_c, 0, 76, 76
2, 51502, Note_on_c, 0, 55, 63
2, 51502, Note_on_c, 0, 57, 0
2, 51508, Note_on_c, 0, 77, 0
2, 51596, Note_on_c, 0, 58, 66
2, 51604, Note_on_c, 0, 55, 0
2, 51605, Note_on_c, 0, 76, 0
2, 51608, Note_on_c, 0, 74, 79
2, 51674, Note_on_c, 0, 58, 0
2, 51708, Note_on_c, 0, 57, 66
2, 51711, Note_on_c, 0, 82, 74
2, 51717, Note_on_c, 0, 74, 0
2, 51805, Note_on_c, 0, 57, 0
2, 51815, Note_on_c, 0, 55, 62
2, 51820, Note_on_c, 0, 76, 66
2, 51830, Note_on_c, 0, 82, 0
2, 51902, Note_on_c, 0, 55, 0
2, 51910, Note_on_c, 0, 76, 0
2, 51917, Note_on_c, 0, 53, 59
2, 51932, Note_on_c, 0, 74, 68
2, 51982, Control_c, 0, 64, 12
2, 52000, Control_c, 0, 64, 34
2, 52012, Note_on_c, 0, 53, 0
2, 52017, Note_on_c, 0, 52, 64
2, 52019, Control_c, 0, 64, 47
2, 52033, Note_on_c, 0, 74, 0
2, 52034, Note_on_c, 0, 73, 70
2, 52037, Control_c, 0, 64, 52
2, 52054, Note_on_c, 0, 52, 0
2, 52096, Control_c, 0, 64, 46
2, 52116, Control_c, 0, 64, 39
2, 52134, Control_c, 0, 64, 31
2, 52145, Note_on_c, 0, 67, 58
2, 52147, Note_on_c, 0, 70, 63
2, 52147, Note_on_c, 0, 73, 0
2, 52173, Control_c, 0, 64, 25
2, 52191, Control_c, 0, 64, 19
2, 52211, Control_c, 0, 64, 0
2, 52214, Note_on_c, 0, 67, 0
2, 52244, Note_on_c, 0, 65, 63
2, 52248, Note_on_c, 0, 69, 68
2, 52255, Note_on_c, 0, 70, 0
2, 52354, Note_on_c, 0, 65, 0
2, 52356, Note_on_c, 0, 69, 0
2, 52372, Note_on_c, 0, 67, 63
2, 52374, Note_on_c, 0, 64, 57
2, 52464, Note_on_c, 0, 67, 0
2, 52471, Note_on_c, 0, 64, 0
2, 52476, Note_on_c, 0, 74, 68
2, 52481, Note_on_c, 0, 62, 62
2, 52571, Note_on_c, 0, 62, 0
2, 52596, Note_on_c, 0, 70, 62
2, 52613, Note_on_c, 0, 67, 44
2, 52629, Note_on_c, 0, 74, 0
2, 52661, Note_on_c, 0, 67, 0
2, 52702, Note_on_c, 0, 65, 55
2, 52708, Note_on_c, 0, 69, 61
2, 52710, Note_on_c, 0, 70, 0
2, 52793, Note_on_c, 0, 65, 0
2, 52803, Note_on_c, 0, 69, 0
2, 52813, Note_on_c, 0, 67, 57
2, 52817, Note_on_c, 0, 64, 55
2, 52896, Note_on_c, 0, 67, 0
2, 52913, Note_on_c, 0, 64, 0
2, 52918, Note_on_c, 0, 61, 59
2, 52939, Note_on_c, 0, 76, 65
2, 53017, Note_on_c, 0, 61, 0
2, 53046, Note_on_c, 0, 67, 56
2, 53055, Note_on_c, 0, 70, 63
2, 53059, Note_on_c, 0, 76, 0
2, 53107, Note_on_c, 0, 67, 0
2, 53118, Control_c, 0, 64, 14
2, 53136, Control_c, 0, 64, 31
2, 53137, Note_on_c, 0, 65, 55
2, 53155, Control_c, 0, 64, 46
2, 53164, Note_on_c, 0, 70, 0
2, 53171, Note_on_c, 0, 69, 59
2, 53175, Control_c, 0, 64, 57
2, 53193, Control_c, 0, 64, 62
2, 53212, Control_c, 0, 64, 65
2, 53227, Note_on_c, 0, 65, 0
2, 53228, Control_c, 0, 64, 67
2, 53236, Note_on_c, 0, 64, 60
2, 53254, Note_on_c, 0, 69, 0
2, 53283, Note_on_c, 0, 67, 60
2, 53284, Control_c, 0, 64, 60
2, 53287, Note_on_c, 0, 64, 0
2, 53303, Control_c, 0, 64, 42
2, 53322, Control_c, 0, 64, 0
2, 53331, Note_on_c, 0, 67, 0
2, 53364, Note_on_c, 0, 50, 66
2, 53371, Control_c, 0, 64, 20
2, 53384, Note_on_c, 0, 65, 68
2, 53390, Control_c, 0, 64, 36
2, 53407, Note_on_c, 0, 50, 0
2, 53413, Control_c, 0, 64, 49
2, 53431, Control_c, 0, 64, 57
2, 53446, Control_c, 0, 64, 60
2, 53467, Control_c, 0, 64, 61
2, 53506, Note_on_c, 0, 63, 56
2, 53543, Control_c, 0, 64, 60
2, 53582, Control_c, 0, 64, 55
2, 53600, Control_c, 0, 64, 50
2, 53608, Note_on_c, 0, 63, 0
2, 53617, Control_c, 0, 64, 47
2, 53628, Note_on_c, 0, 62, 64
2, 53634, Note_on_c, 0, 66, 72
2, 53673, Control_c, 0, 64, 43
2, 53693, Control_c, 0, 64, 39
2, 53702, Note_on_c, 0, 65, 0
2, 53713, Control_c, 0, 64, 33
2, 53731, Control_c, 0, 64, 27
2, 53733, Note_on_c, 0, 62, 0
2, 53746, Note_on_c, 0, 60, 61
2, 53769, Control_c, 0, 64, 23
2, 53807, Control_c, 0, 64, 18
2, 53826, Control_c, 0, 64, 14
2, 53844, Control_c, 0, 64, 9
2, 53844, Note_on_c, 0, 60, 0
2, 53852, Note_on_c, 0, 58, 65
2, 53859, Note_on_c, 0, 67, 73
2, 53864, Control_c, 0, 64, 0
2, 53871, Note_on_c, 0, 66, 0
2, 53954, Note_on_c, 0, 58, 0
2, 53982, Note_on_c, 0, 60, 67
2, 54091, Note_on_c, 0, 60, 0
2, 54099, Note_on_c, 0, 69, 75
2, 54101, Note_on_c, 0, 58, 65
2, 54134, Note_on_c, 0, 67, 0
2, 54196, Note_on_c, 0, 57, 67
2, 54198, Note_on_c, 0, 58, 0
2, 54343, Note_on_c, 0, 55, 69
2, 54345, Note_on_c, 0, 70, 79
2, 54347, Note_on_c, 0, 57, 0
2, 54411, Note_on_c, 0, 69, 0
2, 54463, Note_on_c, 0, 55, 0
2, 54476, Note_on_c, 0, 57, 71
2, 54587, Note_on_c, 0, 71, 79
2, 54591, Note_on_c, 0, 55, 73
2, 54598, Note_on_c, 0, 57, 0
2, 54602, Note_on_c, 0, 70, 0
2, 54691, Note_on_c, 0, 53, 70
2, 54692, Note_on_c, 0, 55, 0
2, 54807, Note_on_c, 0, 53, 0
2, 54820, Note_on_c, 0, 52, 71
2, 54828, Note_on_c, 0, 72, 78
2, 54842, Note_on_c, 0, 71, 0
2, 54933, Note_on_c, 0, 58, 70
2, 54966, Note_on_c, 0, 52, 0
2, 55049, Note_on_c, 0, 73, 81
2, 55055, Note_on_c, 0, 58, 0
2, 55062, Note_on_c, 0, 57, 76
2, 55099, Note_on_c, 0, 72, 0
2, 55178, Note_on_c, 0, 57, 0
2, 55205, Note_on_c, 0, 55, 57
2, 55229, Note_on_c, 0, 53, 43
2, 55299, Note_on_c, 0, 53, 0
2, 55308, Note_on_c, 0, 74, 83
2, 55312, Note_on_c, 0, 55, 0
2, 55317, Note_on_c, 0, 53, 51
2, 55334, Note_on_c, 0, 73, 0
2, 55409, Note_on_c, 0, 53, 0
2, 55423, Note_on_c, 0, 55, 73
2, 55524, Note_on_c, 0, 55, 0
2, 55529, Note_on_c, 0, 76, 80
2, 55531, Note_on_c, 0, 53, 75
2, 55535, Note_on_c, 0, 74, 0
2, 55631, Note_on_c, 0, 52, 71
2, 55631, Note_on_c, 0, 53, 0
2, 55760, Note_on_c, 0, 50, 73
2, 55761, Note_on_c, 0, 52, 0
2, 55769, Note_on_c, 0, 76, 0
2, 55771, Note_on_c, 0, 77, 82
2, 55870, Note_on_c, 0, 50, 0
2, 55871, Note_on_c, 0, 51, 72
2, 55968, Note_on_c, 0, 51, 0
2, 55989, Note_on_c, 0, 50, 79
2, 55996, Note_on_c, 0, 78, 82
2, 56031, Note_on_c, 0, 77, 0
2, 56107, Note_on_c, 0, 48, 75
2, 56119, Note_on_c, 0, 50, 0
2, 56219, Note_on_c, 0, 46, 85
2, 56230, Note_on_c, 0, 79, 84
2, 56231, Note_on_c, 0, 48, 0
2, 56235, Note_on_c, 0, 78, 0
2, 56273, Note_on_c, 0, 46, 0
2, 56347, Note_on_c, 0, 79, 0
2, 56361, Note_on_c, 0, 74, 80
2, 56470, Note_on_c, 0, 43, 81
2, 56471, Note_on_c, 0, 74, 0
2, 56473, Note_on_c, 0, 82, 80
2, 56513, Note_on_c, 0, 43, 0
2, 56561, Note_on_c, 0, 82, 0
2, 56593, Note_on_c, 0, 81, 74
2, 56688, Note_on_c, 0, 46, 76
2, 56699, Note_on_c, 0, 79, 75
2, 56725, Note_on_c, 0, 81, 0
2, 56730, Note_on_c, 0, 46, 0
2, 56817, Note_on_c, 0, 77, 75
2, 56826, Note_on_c, 0, 79, 0
2, 56917, Note_on_c, 0, 50, 77
2, 56918, Note_on_c, 0, 77, 0
2, 56922, Note_on_c, 0, 76, 76
2, 56945, Note_on_c, 0, 50, 0
2, 56993, Note_on_c, 0, 76, 0
2, 57025, Note_on_c, 0, 74, 73
2, 57135, Note_on_c, 0, 55, 79
2, 57158, Note_on_c, 0, 74, 0
2, 57159, Note_on_c, 0, 73, 74
2, 57190, Note_on_c, 0, 53, 74
2, 57192, Note_on_c, 0, 55, 0
2, 57260, Note_on_c, 0, 55, 69
2, 57264, Note_on_c, 0, 53, 0
2, 57266, Note_on_c, 0, 73, 0
2, 57270, Note_on_c, 0, 74, 73
2, 57396, Note_on_c, 0, 76, 73
2, 57398, Note_on_c, 0, 74, 0
2, 57497, Note_on_c, 0, 73, 76
2, 57528, Note_on_c, 0, 76, 0
2, 57595, Note_on_c, 0, 55, 0
2, 57607, Note_on_c, 0, 69, 81
2, 57649, Note_on_c, 0, 73, 0
2, 57690, Note_on_c, 0, 69, 0
2, 57737, Note_on_c, 0, 55, 73
2, 57821, Note_on_c, 0, 55, 0
2, 57839, Note_on_c, 0, 45, 71
2, 57842, Note_on_c, 0, 64, 80
2, 57902, Note_on_c, 0, 64, 0
2, 57936, Note_on_c, 0, 45, 0
2, 57945, Note_on_c, 0, 43, 71
2, 58077, Note_on_c, 0, 69, 82
2, 58081, Note_on_c, 0, 43, 0
2, 58084, Note_on_c, 0, 45, 72
2, 58121, Note_on_c, 0, 69, 0
2, 58160, Note_on_c, 0, 45, 0
2, 58183, Note_on_c, 0, 55, 70
2, 58278, Note_on_c, 0, 55, 0
2, 58306, Note_on_c, 0, 45, 73
2, 58315, Note_on_c, 0, 73, 78
2, 58343, Note_on_c, 0, 73, 0
2, 58405, Note_on_c, 0, 45, 0
2, 58415, Note_on_c, 0, 55, 69
2, 58510, Note_on_c, 0, 55, 0
2, 58525, Note_on_c, 0, 76, 81
2, 58545, Note_on_c, 0, 45, 72
2, 58572, Note_on_c, 0, 74, 83
2, 58597, Note_on_c, 0, 76, 0
2, 58647, Note_on_c, 0, 45, 0
2, 58649, Note_on_c, 0, 55, 70
2, 58655, Note_on_c, 0, 76, 65
2, 58685, Note_on_c, 0, 74, 0
2, 58723, Note_on_c, 0, 55, 0
2, 58768, Note_on_c, 0, 45, 71
2, 58841, Note_on_c, 0, 45, 0
2, 58861, Note_on_c, 0, 55, 69
2, 58914, Note_on_c, 0, 55, 0
2, 58968, Note_on_c, 0, 45, 68
2, 58971, Note_on_c, 0, 76, 0
2, 59064, Note_on_c, 0, 45, 0
2, 59090, Note_on_c, 0, 53, 65
2, 59093, Note_on_c, 0, 69, 67
2, 59174, Note_on_c, 0, 53, 0
2, 59186, Note_on_c, 0, 69, 0
2, 59196, Note_on_c, 0, 45, 67
2, 59208, Note_on_c, 0, 65, 69
2, 59292, Note_on_c, 0, 45, 0
2, 59303, Note_on_c, 0, 43, 64
2, 59308, Note_on_c, 0, 65, 0
2, 59328, Note_on_c, 0, 69, 69
2, 59407, Note_on_c, 0, 69, 0
2, 59408, Note_on_c, 0, 43, 0
2, 59421, Note_on_c, 0, 45, 64
2, 59429, Note_on_c, 0, 74, 70
2, 59490, Note_on_c, 0, 45, 0
2, 59521, Note_on_c, 0, 74, 0
2, 59538, Note_on_c, 0, 53, 56
2, 59540, Note_on_c, 0, 69, 66
2, 59601, Note_on_c, 0, 53, 0
2, 59616, Note_on_c, 0, 69, 0
2, 59645, Note_on_c, 0, 45, 61
2, 59645, Note_on_c, 0, 65, 65
2, 59724, Note_on_c, 0, 65, 0
2, 59728, Note_on_c, 0, 45, 0
2, 59762, Note_on_c, 0, 53, 53
2, 59763, Note_on_c, 0, 69, 61
2, 59796, Note_on_c, 0, 69, 0
2, 59827, Note_on_c, 0, 53, 0
2, 59846, Note_on_c, 0, 74, 68
2, 59879, Note_on_c, 0, 45, 62
2, 59890, Note_on_c, 0, 74, 0
2, 59900, Note_on_c, 0, 72, 66
2, 59942, Note_on_c, 0, 45, 0
2, 59968, Note_on_c, 0, 74, 66
2, 59975, Note_on_c, 0, 53, 59
2, 59994, Note_on_c, 0, 72, 0
2, 60085, Note_on_c, 0, 53, 0
2, 60117, Note_on_c, 0, 45, 55
2, 60188, Note_on_c, 0, 45, 0
2, 60235, Note_on_c, 0, 53, 55
2, 60282, Note_on_c, 0, 53, 0
2, 60320, Note_on_c, 0, 45, 58
2, 60335, Note_on_c, 0, 74, 0
2, 60417, Note_on_c, 0, 45, 0
2, 60433, Note_on_c, 0, 67, 54
2, 60448, Note_on_c, 0, 52, 55
2, 60530, Note_on_c, 0, 67, 0
2, 60546, Note_on_c, 0, 52, 0
2, 60548, Note_on_c, 0, 64, 60
2, 60573, Note_on_c, 0, 45, 56
2, 60641, Note_on_c, 0, 45, 0
2, 60652, Note_on_c, 0, 64, 0
2, 60672, Note_on_c, 0, 67, 57
2, 60675, Note_on_c, 0, 43, 54
2, 60747, Note_on_c, 0, 67, 0
2, 60755, Note_on_c, 0, 43, 0
2, 60783, Note_on_c, 0, 72, 58
2, 60789, Note_on_c, 0, 45, 52
2, 60852, Note_on_c, 0, 45, 0
2, 60869, Note_on_c, 0, 72, 0
2, 60899, Note_on_c, 0, 67, 55
2, 60903, Note_on_c, 0, 52, 44
2, 60973, Note_on_c, 0, 52, 0
2, 60986, Note_on_c, 0, 67, 0
2, 61010, Note_on_c, 0, 45, 51
2, 61025, Note_on_c, 0, 64, 53
2, 61029, Control_c, 0, 64, 14
2, 61047, Control_c, 0, 64, 20
2, 61066, Control_c, 0, 64, 24
2, 61096, Note_on_c, 0, 64, 0
2, 61108, Note_on_c, 0, 45, 0
2, 61114, Note_on_c, 0, 52, 48
2, 61125, Note_on_c, 0, 67, 51
2, 61142, Control_c, 0, 64, 12
2, 61160, Control_c, 0, 64, 0
2, 61160, Note_on_c, 0, 67, 0
2, 61193, Note_on_c, 0, 52, 0
2, 61235, Note_on_c, 0, 72, 62
2, 61241, Note_on_c, 0, 45, 50
2, 61271, Note_on_c, 0, 72, 0
2, 61275, Note_on_c, 0, 70, 65
2, 61317, Note_on_c, 0, 45, 0
2, 61332, Note_on_c, 0, 70, 0
2, 61347, Note_on_c, 0, 52, 50
2, 61359, Note_on_c, 0, 72, 61
2, 61425, Note_on_c, 0, 52, 0
2, 61461, Note_on_c, 0, 45, 55
2, 61550, Note_on_c, 0, 45, 0
2, 61582, Note_on_c, 0, 52, 50
2, 61668, Note_on_c, 0, 52, 0
2, 61708, Control_c, 0, 64, 8
2, 61713, Note_on_c, 0, 45, 46
2, 61727, Control_c, 0, 64, 13
2, 61747, Control_c, 0, 64, 18
2, 61786, Control_c, 0, 64, 22
2, 61794, Note_on_c, 0, 45, 0
2, 61794, Note_on_c, 0, 72, 0
2, 61807, Note_on_c, 0, 65, 55
2, 61819, Note_on_c, 0, 50, 45
2, 61893, Note_on_c, 0, 50, 0
2, 61937, Note_on_c, 0, 53, 57
2, 61937, Note_on_c, 0, 65, 0
2, 61943, Note_on_c, 0, 62, 63
2, 62038, Note_on_c, 0, 53, 0
2, 62043, Note_on_c, 0, 50, 60
2, 62046, Control_c, 0, 64, 18
2, 62047, Note_on_c, 0, 65, 65
2, 62049, Note_on_c, 0, 62, 0
2, 62102, Control_c, 0, 64, 13
2, 62136, Note_on_c, 0, 50, 0
2, 62148, Note_on_c, 0, 65, 0
2, 62157, Note_on_c, 0, 45, 57
2, 62158, Control_c, 0, 64, 0
2, 62158, Note_on_c, 0, 70, 67
2, 62264, Note_on_c, 0, 45, 0
2, 62264, Note_on_c, 0, 65, 66
2, 62265, Note_on_c, 0, 70, 0
2, 62284, Note_on_c, 0, 50, 62
2, 62361, Note_on_c, 0, 65, 0
2, 62373, Note_on_c, 0, 50, 0
2, 62378, Note_on_c, 0, 62, 67
2, 62379, Note_on_c, 0, 53, 63
2, 62456, Note_on_c, 0, 53, 0
2, 62474, Note_on_c, 0, 57, 63
2, 62477, Note_on_c, 0, 62, 0
2, 62490, Note_on_c, 0, 65, 67
2, 62517, Note_on_c, 0, 57, 0
2, 62547, Note_on_c, 0, 65, 0
2, 62574, Note_on_c, 0, 43, 70
2, 62585, Note_on_c, 0, 70, 68
2, 62662, Note_on_c, 0, 43, 0
2, 62691, Note_on_c, 0, 70, 0
2, 62692, Note_on_c, 0, 52, 62
2, 62698, Note_on_c, 0, 67, 64
2, 62769, Note_on_c, 0, 52, 0
2, 62780, Note_on_c, 0, 67, 0
2, 62797, Note_on_c, 0, 64, 63
2, 62801, Note_on_c, 0, 55, 67
2, 62853, Note_on_c, 0, 64, 0
2, 62909, Note_on_c, 0, 55, 0
2, 62916, Note_on_c, 0, 67, 59
2, 62923, Note_on_c, 0, 58, 66
2, 62999, Note_on_c, 0, 58, 0
2, 63003, Note_on_c, 0, 67, 0
2, 63027, Note_on_c, 0, 61, 68
2, 63035, Note_on_c, 0, 55, 61
2, 63073, Note_on_c, 0, 55, 0
2, 63104, Note_on_c, 0, 61, 0
2, 63148, Note_on_c, 0, 69, 64
2, 63247, Note_on_c, 0, 49, 71
2, 63255, Note_on_c, 0, 69, 0
2, 63273, Note_on_c, 0, 70, 62
2, 63281, Note_on_c, 0, 49, 0
2, 63362, Note_on_c, 0, 70, 0
2, 63387, Note_on_c, 0, 69, 61
2, 63468, Note_on_c, 0, 69, 0
2, 63490, Note_on_c, 0, 52, 59
2, 63505, Note_on_c, 0, 61, 58
2, 63522, Note_on_c, 0, 52, 0
2, 63570, Note_on_c, 0, 61, 0
2, 63626, Note_on_c, 0, 69, 53
2, 63724, Note_on_c, 0, 69, 0
2, 63731, Note_on_c, 0, 43, 63
2, 63743, Note_on_c, 0, 70, 57
2, 63862, Note_on_c, 0, 70, 0
2, 63876, Note_on_c, 0, 69, 55
2, 63981, Note_on_c, 0, 69, 0
2, 63983, Note_on_c, 0, 61, 61
2, 64056, Control_c, 0, 64, 16
2, 64074, Control_c, 0, 64, 21
2, 64083, Note_on_c, 0, 61, 0
2, 64089, Note_on_c, 0, 43, 0
2, 64097, Note_on_c, 0, 46, 62
2, 64188, Control_c, 0, 64, 13
2, 64207, Control_c, 0, 64, 8
2, 64221, Note_on_c, 0, 46, 0
2, 64221, Note_on_c, 0, 64, 66
2, 64226, Control_c, 0, 64, 0
2, 64229, Note_on_c, 0, 45, 63
2, 64328, Note_on_c, 0, 45, 0
2, 64334, Note_on_c, 0, 43, 66
2, 64446, Note_on_c, 0, 43, 0
2, 64448, Note_on_c, 0, 41, 70
2, 64523, Note_on_c, 0, 41, 0
2, 64561, Note_on_c, 0, 53, 65
2, 64578, Note_on_c, 0, 69, 68
2, 64620, Note_on_c, 0, 64, 0
2, 64669, Note_on_c, 0, 53, 0
2, 64677, Note_on_c, 0, 52, 64
2, 64684, Note_on_c, 0, 69, 0
2, 64687, Note_on_c, 0, 70, 71
2, 64758, Note_on_c, 0, 52, 0
2, 64770, Note_on_c, 0, 53, 64
2, 64813, Note_on_c, 0, 69, 71
2, 64844, Note_on_c, 0, 70, 0
2, 64872, Note_on_c, 0, 53, 0
2, 64915, Note_on_c, 0, 41, 73
2, 64917, Note_on_c, 0, 69, 0
2, 64920, Note_on_c, 0, 62, 76
2, 64983, Note_on_c, 0, 41, 0
2, 65032, Note_on_c, 0, 69, 72
2, 65033, Note_on_c, 0, 53, 63
2, 65039, Note_on_c, 0, 62, 0
2, 65128, Note_on_c, 0, 69, 0
2, 65130, Note_on_c, 0, 53, 0
2, 65135, Note_on_c, 0, 70, 71
2, 65142, Note_on_c, 0, 52, 66
2, 65223, Note_on_c, 0, 52, 0
2, 65230, Note_on_c, 0, 69, 70
2, 65231, Note_on_c, 0, 70, 0
2, 65244, Note_on_c, 0, 53, 71
2, 65329, Note_on_c, 0, 53, 0
2, 65359, Note_on_c, 0, 62, 76
2, 65361, Note_on_c, 0, 69, 0
2, 65362, Note_on_c, 0, 41, 77
2, 65396, Note_on_c, 0, 62, 0
2, 65438, Note_on_c, 0, 41, 0
2, 65473, Note_on_c, 0, 53, 69
2, 65578, Note_on_c, 0, 65, 81
2, 65580, Note_on_c, 0, 53, 0
2, 65586, Note_on_c, 0, 52, 69
2, 65668, Note_on_c, 0, 52, 0
2, 65689, Note_on_c, 0, 50, 78
2, 65819, Note_on_c, 0, 49, 83
2, 65839, Note_on_c, 0, 50, 0
2, 65869, Note_on_c, 0, 65, 0
2, 65890, Note_on_c, 0, 49, 0
2, 65947, Note_on_c, 0, 67, 80
2, 66057, Note_on_c, 0, 69, 80
2, 66059, Note_on_c, 0, 67, 0
2, 66060, Note_on_c, 0, 40, 75
2, 66094, Note_on_c, 0, 40, 0
2, 66094, Note_on_c, 0, 41, 37
2, 66095, Note_on_c, 0, 41, 0
2, 66168, Note_on_c, 0, 67, 79
2, 66189, Note_on_c, 0, 69, 0
2, 66279, Note_on_c, 0, 43, 83
2, 66287, Note_on_c, 0, 64, 78
2, 66295, Note_on_c, 0, 67, 0
2, 66356, Note_on_c, 0, 43, 0
2, 66394, Note_on_c, 0, 67, 75
2, 66404, Note_on_c, 0, 64, 0
2, 66511, Note_on_c, 0, 69, 78
2, 66514, Note_on_c, 0, 67, 0
2, 66520, Note_on_c, 0, 37, 85
2, 66620, Note_on_c, 0, 67, 76
2, 66665, Note_on_c, 0, 69, 0
2, 66733, Note_on_c, 0, 37, 0
2, 66746, Control_c, 0, 64, 15
2, 66751, Note_on_c, 0, 67, 0
2, 66754, Note_on_c, 0, 57, 81
2, 66765, Control_c, 0, 64, 23
2, 66786, Control_c, 0, 64, 27
2, 66822, Control_c, 0, 64, 31
2, 66825, Note_on_c, 0, 57, 0
2, 66854, Note_on_c, 0, 49, 77
2, 66879, Control_c, 0, 64, 27
2, 66917, Control_c, 0, 64, 19
2, 66936, Control_c, 0, 64, 12
2, 66955, Control_c, 0, 64, 0
2, 66959, Note_on_c, 0, 49, 0
2, 66971, Note_on_c, 0, 47, 74
2, 66997, Note_on_c, 0, 67, 88
2, 67096, Note_on_c, 0, 45, 76
2, 67103, Control_c, 0, 64, 15
2, 67103, Note_on_c, 0, 47, 0
2, 67123, Control_c, 0, 64, 24
2, 67143, Control_c, 0, 64, 31
2, 67161, Control_c, 0, 64, 37
2, 67178, Note_on_c, 0, 67, 0
2, 67180, Control_c, 0, 64, 41
2, 67200, Control_c, 0, 64, 44
2, 67211, Note_on_c, 0, 50, 81
2, 67227, Note_on_c, 0, 45, 0
2, 67275, Control_c, 0, 64, 41
2, 67313, Control_c, 0, 64, 32
2, 67319, Note_on_c, 0, 58, 82
2, 67333, Control_c, 0, 64, 23
2, 67350, Control_c, 0, 64, 11
2, 67369, Control_c, 0, 64, 0
2, 67375, Note_on_c, 0, 50, 0
2, 67426, Note_on_c, 0, 57, 80
2, 67431, Note_on_c, 0, 58, 0
2, 67435, Note_on_c, 0, 38, 78
2, 67486, Note_on_c, 0, 38, 0
2, 67541, Note_on_c, 0, 55, 76
2, 67542, Note_on_c, 0, 57, 0
2, 67645, Note_on_c, 0, 55, 0
2, 67666, Note_on_c, 0, 41, 80
2, 67666, Note_on_c, 0, 57, 81
2, 67717, Note_on_c, 0, 41, 0
2, 67775, Note_on_c, 0, 57, 0
2, 67787, Note_on_c, 0, 64, 71
2, 67888, Note_on_c, 0, 62, 79
2, 67905, Note_on_c, 0, 45, 77
2, 67922, Note_on_c, 0, 64, 0
2, 67937, Note_on_c, 0, 45, 0
2, 68010, Note_on_c, 0, 61, 73
2, 68014, Note_on_c, 0, 62, 0
2, 68122, Note_on_c, 0, 62, 81
2, 68124, Note_on_c, 0, 61, 0
2, 68134, Note_on_c, 0, 50, 69
2, 68150, Note_on_c, 0, 48, 57
2, 68176, Note_on_c, 0, 49, 71
2, 68176, Note_on_c, 0, 50, 0
2, 68183, Note_on_c, 0, 48, 0
2, 68238, Note_on_c, 0, 67, 73
2, 68255, Note_on_c, 0, 62, 0
2, 68258, Note_on_c, 0, 50, 76
2, 68266, Note_on_c, 0, 49, 0
2, 68343, Note_on_c, 0, 67, 0
2, 68345, Note_on_c, 0, 65, 68
2, 68448, Note_on_c, 0, 65, 0
2, 68452, Note_on_c, 0, 64, 71
2, 68541, Note_on_c, 0, 64, 0
2, 68557, Note_on_c, 0, 65, 69
2, 68677, Note_on_c, 0, 58, 72
2, 68687, Note_on_c, 0, 50, 0
2, 68688, Note_on_c, 0, 65, 0
2, 68692, Note_on_c, 0, 55, 62
2, 68758, Note_on_c, 0, 58, 0
2, 68789, Note_on_c, 0, 55, 0
2, 68790, Note_on_c, 0, 60, 66
2, 68796, Note_on_c, 0, 57, 63
2, 68854, Note_on_c, 0, 57, 0
2, 68888, Note_on_c, 0, 58, 69
2, 68894, Note_on_c, 0, 62, 67
2, 68896, Note_on_c, 0, 60, 0
2, 68936, Note_on_c, 0, 58, 0
2, 68988, Note_on_c, 0, 48, 70
2, 68995, Note_on_c, 0, 63, 70
2, 69003, Note_on_c, 0, 62, 0
2, 69079, Note_on_c, 0, 63, 0
2, 69081, Note_on_c, 0, 48, 0
2, 69105, Note_on_c, 0, 54, 68
2, 69113, Note_on_c, 0, 57, 62
2, 69193, Note_on_c, 0, 54, 0
2, 69193, Note_on_c, 0, 57, 0
2, 69212, Note_on_c, 0, 58, 63
2, 69219, Note_on_c, 0, 55, 59
2, 69290, Note_on_c, 0, 55, 0
2, 69305, Note_on_c, 0, 58, 0
2, 69325, Note_on_c, 0, 57, 64
2, 69328, Note_on_c, 0, 60, 62
2, 69375, Note_on_c, 0, 57, 0
2, 69421, Note_on_c, 0, 60, 0
2, 69422, Note_on_c, 0, 46, 69
2, 69436, Note_on_c, 0, 62, 63
2, 69523, Note_on_c, 0, 46, 0
2, 69529, Note_on_c, 0, 62, 0
2, 69543, Note_on_c, 0, 55, 55
2, 69544, Note_on_c, 0, 58, 62
2, 69625, Note_on_c, 0, 55, 0
2, 69645, Note_on_c, 0, 58, 0
2, 69647, Note_on_c, 0, 57, 63
2, 69675, Note_on_c, 0, 60, 58
2, 69754, Note_on_c, 0, 57, 0
2, 69761, Note_on_c, 0, 58, 63
2, 69762, Note_on_c, 0, 60, 0
2, 69785, Note_on_c, 0, 62, 63
2, 69812, Note_on_c, 0, 58, 0
2, 69871, Note_on_c, 0, 62, 0
2, 69881, Note_on_c, 0, 63, 67
2, 69882, Note_on_c, 0, 48, 60
2, 69956, Note_on_c, 0, 48, 0
2, 69976, Note_on_c, 0, 63, 0
2, 69983, Note_on_c, 0, 54, 61
2, 69985, Note_on_c, 0, 57, 63
2, 70069, Note_on_c, 0, 54, 0
2, 70072, Note_on_c, 0, 57, 0
2, 70081, Note_on_c, 0, 55, 61
2, 70098, Note_on_c, 0, 58, 56
2, 70162, Note_on_c, 0, 55, 0
2, 70195, Note_on_c, 0, 58, 0
2, 70204, Note_on_c, 0, 57, 61
2, 70215, Note_on_c, 0, 60, 58
2, 70270, Note_on_c, 0, 57, 0
2, 70287, Note_on_c, 0, 60, 0
2, 70298, Note_on_c, 0, 46, 61
2, 70316, Note_on_c, 0, 62, 56
2, 70399, Note_on_c, 0, 62, 0
2, 70406, Note_on_c, 0, 46, 0
2, 70409, Note_on_c, 0, 58, 60
2, 70414, Note_on_c, 0, 55, 62
2, 70458, Control_c, 0, 64, 18
2, 70476, Control_c, 0, 64, 27
2, 70487, Note_on_c, 0, 55, 0
2, 70495, Control_c, 0, 64, 35
2, 70515, Control_c, 0, 64, 40
2, 70519, Note_on_c, 0, 58, 0
2, 70528, Note_on_c, 0, 57, 56
2, 70531, Note_on_c, 0, 60, 63
2, 70533, Control_c, 0, 64, 43
2, 70618, Note_on_c, 0, 57, 0
2, 70623, Note_on_c, 0, 58, 49
2, 70628, Note_on_c, 0, 60, 0
2, 70640, Note_on_c, 0, 62, 67
2, 70659, Note_on_c, 0, 58, 0
2, 70718, Control_c, 0, 64, 38
2, 70734, Note_on_c, 0, 62, 0
2, 70743, Note_on_c, 0, 60, 68
2, 70745, Note_on_c, 0, 45, 66
2, 70757, Control_c, 0, 64, 32
2, 70793, Control_c, 0, 64, 25
2, 70831, Control_c, 0, 64, 21
2, 70848, Note_on_c, 0, 45, 0
2, 70851, Note_on_c, 0, 50, 59
2, 70854, Note_on_c, 0, 54, 63
2, 70862, Note_on_c, 0, 60, 0
2, 70889, Control_c, 0, 64, 16
2, 70927, Control_c, 0, 64, 10
2, 70955, Note_on_c, 0, 54, 0
2, 70960, Note_on_c, 0, 52, 62
2, 70965, Note_on_c, 0, 55, 62
2, 70968, Note_on_c, 0, 50, 0
2, 71021, Control_c, 0, 64, 0
2, 71046, Note_on_c, 0, 52, 0
2, 71079, Note_on_c, 0, 57, 70
2, 71081, Note_on_c, 0, 54, 65
2, 71101, Note_on_c, 0, 55, 0
2, 71127, Note_on_c, 0, 54, 0
2, 71190, Note_on_c, 0, 43, 62
2, 71208, Note_on_c, 0, 58, 67
2, 71240, Note_on_c, 0, 57, 0
2, 71325, Note_on_c, 0, 43, 0
2, 71338, Note_on_c, 0, 50, 64
2, 71428, Note_on_c, 0, 50, 0
2, 71448, Note_on_c, 0, 52, 65
2, 71570, Note_on_c, 0, 54, 64
2, 71630, Note_on_c, 0, 52, 0
2, 71684, Note_on_c, 0, 55, 71
2, 71700, Note_on_c, 0, 58, 0
2, 71720, Note_on_c, 0, 54, 0
2, 71760, Note_on_c, 0, 57, 71
2, 71879, Note_on_c, 0, 58, 62
2, 71903, Note_on_c, 0, 57, 0
2, 71996, Note_on_c, 0, 60, 78
2, 72028, Note_on_c, 0, 58, 0
2, 72035, Control_c, 0, 64, 25
2, 72055, Control_c, 0, 64, 36
2, 72063, Note_on_c, 0, 55, 0
2, 72113, Note_on_c, 0, 62, 77
2, 72114, Control_c, 0, 64, 20
2, 72132, Control_c, 0, 64, 11
2, 72137, Note_on_c, 0, 60, 0
2, 72188, Control_c, 0, 64, 25
2, 72208, Control_c, 0, 64, 36
2, 72211, Note_on_c, 0, 62, 0
2, 72214, Note_on_c, 0, 58, 66
2, 72225, Control_c, 0, 64, 45
2, 72244, Control_c, 0, 64, 53
2, 72262, Control_c, 0, 64, 56
2, 72283, Note_on_c, 0, 58, 0
2, 72301, Control_c, 0, 64, 51
2, 72319, Control_c, 0, 64, 41
2, 72323, Note_on_c, 0, 67, 78
2, 72339, Control_c, 0, 64, 30
2, 72432, Note_on_c, 0, 62, 76
2, 72434, Note_on_c, 0, 67, 0
2, 72453, Control_c, 0, 64, 34
2, 72562, Control_c, 0, 64, 30
2, 72569, Note_on_c, 0, 70, 77
2, 72571, Note_on_c, 0, 62, 0
2, 72602, Control_c, 0, 64, 25
2, 72637, Control_c, 0, 64, 18
2, 72657, Control_c, 0, 64, 14
2, 72676, Control_c, 0, 64, 10
2, 72688, Note_on_c, 0, 67, 72
2, 72693, Control_c, 0, 64, 0
2, 72721, Note_on_c, 0, 70, 0
2, 72799, Note_on_c, 0, 67, 0
2, 72810, Note_on_c, 0, 65, 67
2, 72905, Note_on_c, 0, 65, 0
2, 72909, Note_on_c, 0, 63, 70
2, 73030, Note_on_c, 0, 62, 62
2, 73037, Note_on_c, 0, 63, 0
2, 73128, Note_on_c, 0, 60, 62
2, 73161, Note_on_c, 0, 62, 0
2, 73228, Note_on_c, 0, 60, 0
2, 73230, Note_on_c, 0, 58, 60
2, 73330, Note_on_c, 0, 58, 0
2, 73350, Note_on_c, 0, 57, 58
2, 73455, Note_on_c, 0, 57, 0
2, 73469, Note_on_c, 0, 55, 61
2, 73547, Note_on_c, 0, 55, 0
2, 73591, Note_on_c, 0, 58, 57
2, 73668, Note_on_c, 0, 58, 0
2, 73695, Note_on_c, 0, 52, 54
2, 73765, Note_on_c, 0, 52, 0
2, 73798, Note_on_c, 0, 55, 60
2, 73892, Note_on_c, 0, 55, 0
2, 73910, Note_on_c, 0, 49, 57
2, 74019, Note_on_c, 0, 70, 66
2, 74137, Note_on_c, 0, 69, 69
2, 74165, Note_on_c, 0, 70, 0
2, 74239, Note_on_c, 0, 69, 0
2, 74241, Note_on_c, 0, 67, 69
2, 74347, Note_on_c, 0, 76, 73
2, 74404, Note_on_c, 0, 67, 0
2, 74473, Note_on_c, 0, 74, 74
2, 74509, Note_on_c, 0, 49, 0
2, 74525, Note_on_c, 0, 76, 0
2, 74580, Note_on_c, 0, 73, 71
2, 74595, Note_on_c, 0, 45, 66
2, 74621, Note_on_c, 0, 74, 0
2, 74658, Note_on_c, 0, 45, 0
2, 74702, Note_on_c, 0, 71, 65
2, 74728, Note_on_c, 0, 73, 0
2, 74813, Note_on_c, 0, 71, 0
2, 74814, Note_on_c, 0, 47, 66
2, 74814, Note_on_c, 0, 69, 69
2, 74859, Note_on_c, 0, 47, 0
2, 74922, Note_on_c, 0, 67, 69
2, 74929, Note_on_c, 0, 69, 0
2, 75034, Note_on_c, 0, 49, 64
2, 75039, Note_on_c, 0, 65, 65
2, 75051, Note_on_c, 0, 67, 0
2, 75084, Note_on_c, 0, 49, 0
2, 75138, Note_on_c, 0, 64, 67
2, 75144, Note_on_c, 0, 65, 0
2, 75209, Note_on_c, 0, 64, 0
2, 75248, Note_on_c, 0, 65, 80
2, 75258, Note_on_c, 0, 50, 65
2, 75291, Note_on_c, 0, 50, 0
2, 75394, Note_on_c, 0, 62, 61
2, 75404, Note_on_c, 0, 65, 0
2, 75480, Note_on_c, 0, 62, 0
2, 75491, Note_on_c, 0, 67, 77
2, 75494, Note_on_c, 0, 52, 61
2, 75529, Note_on_c, 0, 52, 0
2, 75618, Note_on_c, 0, 62, 64
2, 75626, Note_on_c, 0, 67, 0
2, 75706, Note_on_c, 0, 62, 0
2, 75710, Note_on_c, 0, 53, 51
2, 75715, Note_on_c, 0, 69, 79
2, 75743, Note_on_c, 0, 53, 0
2, 75831, Note_on_c, 0, 62, 57
2, 75835, Note_on_c, 0, 69, 0
2, 75906, Note_on_c, 0, 62, 0
2, 75951, Note_on_c, 0, 55, 58
2, 75951, Note_on_c, 0, 70, 72
2, 76048, Note_on_c, 0, 55, 0
2, 76078, Note_on_c, 0, 62, 60
2, 76085, Control_c, 0, 64, 9
2, 76104, Control_c, 0, 64, 20
2, 76123, Control_c, 0, 64, 29
2, 76130, Note_on_c, 0, 70, 0
2, 76143, Control_c, 0, 64, 38
2, 76161, Note_on_c, 0, 62, 0
2, 76162, Control_c, 0, 64, 46
2, 76181, Control_c, 0, 64, 50
2, 76200, Note_on_c, 0, 57, 64
2, 76327, Control_c, 0, 64, 48
2, 76345, Control_c, 0, 64, 46
2, 76357, Note_on_c, 0, 57, 0
2, 76364, Control_c, 0, 64, 43
2, 76398, Note_on_c, 0, 62, 56
2, 76404, Control_c, 0, 64, 36
2, 76423, Control_c, 0, 64, 32
2, 76449, Control_c, 0, 64, 25
2, 76465, Control_c, 0, 64, 21
2, 76485, Control_c, 0, 64, 16
2, 76494, Note_on_c, 0, 62, 0
2, 76505, Control_c, 0, 64, 8
2, 76506, Note_on_c, 0, 64, 64
2, 76521, Note_on_c, 0, 45, 60
2, 76523, Control_c, 0, 64, 0
2, 76587, Note_on_c, 0, 45, 0
2, 76617, Note_on_c, 0, 64, 0
2, 76630, Note_on_c, 0, 61, 63
2, 76721, Note_on_c, 0, 61, 0
2, 76757, Note_on_c, 0, 62, 61
2, 76762, Note_on_c, 0, 50, 60
2, 76822, Note_on_c, 0, 50, 0
2, 76853, Note_on_c, 0, 62, 0
2, 76877, Note_on_c, 0, 60, 58
2, 76967, Note_on_c, 0, 60, 0
2, 76974, Note_on_c, 0, 57, 57
2, 76981, Note_on_c, 0, 54, 60
2, 77025, Note_on_c, 0, 57, 0
2, 77045, Note_on_c, 0, 54, 0
2, 77096, Note_on_c, 0, 60, 56
2, 77183, Note_on_c, 0, 60, 0
2, 77194, Note_on_c, 0, 50, 57
2, 77198, Note_on_c, 0, 62, 62
2, 77242, Note_on_c, 0, 50, 0
2, 77294, Note_on_c, 0, 62, 0
2, 77317, Note_on_c, 0, 60, 58
2, 77423, Note_on_c, 0, 60, 0
2, 77433, Note_on_c, 0, 57, 55
2, 77439, Note_on_c, 0, 54, 57
2, 77476, Note_on_c, 0, 57, 0
2, 77499, Note_on_c, 0, 54, 0
2, 77544, Note_on_c, 0, 60, 54
2, 77633, Note_on_c, 0, 60, 0
2, 77649, Note_on_c, 0, 62, 63
2, 77653, Note_on_c, 0, 50, 54
2, 77698, Note_on_c, 0, 50, 0
2, 77735, Note_on_c, 0, 62, 0
2, 77758, Note_on_c, 0, 60, 58
2, 77859, Note_on_c, 0, 60, 0
2, 77878, Note_on_c, 0, 57, 57
2, 77879, Note_on_c, 0, 54, 58
2, 77929, Note_on_c, 0, 57, 0
2, 77938, Note_on_c, 0, 54, 0
2, 77984, Note_on_c, 0, 60, 51
2, 78085, Note_on_c, 0, 60, 0
2, 78096, Note_on_c, 0, 58, 61
2, 78100, Note_on_c, 0, 50, 56
2, 78144, Note_on_c, 0, 50, 0
2, 78178, Note_on_c, 0, 58, 0
2, 78207, Note_on_c, 0, 62, 52
2, 78319, Note_on_c, 0, 62, 0
2, 78349, Note_on_c, 0, 55, 50
2, 78351, Note_on_c, 0, 58, 55
2, 78394, Note_on_c, 0, 55, 0
2, 78436, Note_on_c, 0, 58, 0
2, 78459, Note_on_c, 0, 54, 51
2, 78537, Note_on_c, 0, 54, 0
2, 78558, Note_on_c, 0, 50, 56
2, 78575, Note_on_c, 0, 58, 52
2, 78606, Note_on_c, 0, 50, 0
2, 78633, Note_on_c, 0, 58, 0
2, 78677, Note_on_c, 0, 62, 51
2, 78779, Note_on_c, 0, 62, 0
2, 78793, Note_on_c, 0, 58, 54
2, 78807, Note_on_c, 0, 55, 46
2, 78852, Note_on_c, 0, 55, 0
2, 78881, Note_on_c, 0, 58, 0
2, 78908, Note_on_c, 0, 54, 47
2, 78997, Note_on_c, 0, 54, 0
2, 79028, Note_on_c, 0, 50, 53
2, 79031, Note_on_c, 0, 58, 47
2, 79072, Note_on_c, 0, 50, 0
2, 79089, Note_on_c, 0, 58, 0
2, 79126, Note_on_c, 0, 62, 51
2, 79244, Note_on_c, 0, 62, 0
2, 79254, Note_on_c, 0, 58, 49
2, 79283, Note_on_c, 0, 55, 41
2, 79340, Note_on_c, 0, 58, 0
2, 79345, Note_on_c, 0, 55, 0
2, 79370, Control_c, 0, 64, 12
2, 79383, Note_on_c, 0, 52, 46
2, 79387, Control_c, 0, 64, 20
2, 79406, Control_c, 0, 64, 25
2, 79445, Control_c, 0, 64, 29
2, 79481, Control_c, 0, 64, 25
2, 79481, Note_on_c, 0, 52, 0
2, 79497, Note_on_c, 0, 53, 58
2, 79498, Note_on_c, 0, 50, 54
2, 79501, Control_c, 0, 64, 19
2, 79521, Control_c, 0, 64, 14
2, 79541, Control_c, 0, 64, 8
2, 79559, Control_c, 0, 64, 0
2, 79561, Note_on_c, 0, 50, 0
2, 79583, Note_on_c, 0, 53, 0
2, 79613, Note_on_c, 0, 62, 53
2, 79634, Control_c, 0, 67, 8
2, 79653, Control_c, 0, 67, 12
2, 79671, Control_c, 0, 67, 18
2, 79690, Control_c, 0, 67, 27
2, 79709, Control_c, 0, 67, 38
2, 79729, Control_c, 0, 67, 50
2, 79730, Note_on_c, 0, 62, 0
2, 79732, Note_on_c, 0, 57, 57
2, 79734, Note_on_c, 0, 53, 58
2, 79748, Control_c, 0, 67, 57
2, 79783, Note_on_c, 0, 57, 0
2, 79801, Note_on_c, 0, 53, 0
2, 79851, Note_on_c, 0, 62, 53
2, 79922, Note_on_c, 0, 62, 0
2, 79958, Note_on_c, 0, 53, 59
2, 79963, Note_on_c, 0, 50, 55
2, 80018, Note_on_c, 0, 50, 0
2, 80018, Note_on_c, 0, 53, 0
2, 80080, Note_on_c, 0, 62, 55
2, 80182, Note_on_c, 0, 62, 0
2, 80217, Note_on_c, 0, 57, 49
2, 80222, Note_on_c, 0, 53, 50
2, 80254, Note_on_c, 0, 57, 0
2, 80269, Note_on_c, 0, 53, 0
2, 80334, Note_on_c, 0, 62, 55
2, 80406, Note_on_c, 0, 62, 0
2, 80443, Note_on_c, 0, 53, 52
2, 80444, Note_on_c, 0, 50, 49
2, 80495, Note_on_c, 0, 50, 0
2, 80498, Note_on_c, 0, 53, 0
2, 80562, Note_on_c, 0, 62, 54
2, 80625, Note_on_c, 0, 62, 0
2, 80667, Note_on_c, 0, 57, 51
2, 80687, Note_on_c, 0, 53, 48
2, 80709, Note_on_c, 0, 57, 0
2, 80740, Note_on_c, 0, 53, 0
2, 80775, Note_on_c, 0, 62, 58
2, 80820, Control_c, 0, 67, 61
2, 80839, Control_c, 0, 67, 65
2, 80857, Control_c, 0, 67, 70
2, 80869, Note_on_c, 0, 62, 0
2, 80876, Control_c, 0, 67, 75
2, 80886, Note_on_c, 0, 50, 51
2, 80896, Control_c, 0, 67, 79
2, 80906, Note_on_c, 0, 55, 54
2, 80922, Note_on_c, 0, 50, 0
2, 80932, Control_c, 0, 67, 84
2, 80976, Note_on_c, 0, 55, 0
2, 81006, Note_on_c, 0, 61, 54
2, 81124, Note_on_c, 0, 58, 66
2, 81132, Note_on_c, 0, 61, 0
2, 81152, Note_on_c, 0, 55, 55
2, 81166, Note_on_c, 0, 58, 0
2, 81219, Note_on_c, 0, 55, 0
2, 81260, Note_on_c, 0, 52, 48
2, 81332, Note_on_c, 0, 52, 0
2, 81360, Note_on_c, 0, 50, 60
2, 81362, Note_on_c, 0, 55, 51
2, 81399, Note_on_c, 0, 50, 0
2, 81450, Note_on_c, 0, 55, 0
2, 81486, Note_on_c, 0, 61, 51
2, 81578, Note_on_c, 0, 61, 0
2, 81596, Note_on_c, 0, 58, 61
2, 81609, Note_on_c, 0, 55, 51
2, 81635, Note_on_c, 0, 58, 0
2, 81669, Note_on_c, 0, 55, 0
2, 81730, Note_on_c, 0, 52, 41
2, 81818, Note_on_c, 0, 52, 0
2, 81849, Note_on_c, 0, 55, 48
2, 81864, Note_on_c, 0, 50, 37
2, 81909, Note_on_c, 0, 50, 0
2, 81936, Note_on_c, 0, 55, 0
2, 81991, Note_on_c, 0, 61, 51
2, 82126, Note_on_c, 0, 61, 0
2, 82140, Note_on_c, 0, 55, 49
2, 82146, Note_on_c, 0, 58, 51
2, 82182, Note_on_c, 0, 58, 0
2, 82237, Note_on_c, 0, 55, 0
2, 82316, Note_on_c, 0, 52, 43
2, 82412, Note_on_c, 0, 52, 0
2, 82584, Note_on_c, 0, 57, 45
2, 82609, Note_on_c, 0, 50, 33
2, 82618, Note_on_c, 0, 62, 47
2, 82625, Note_on_c, 0, 54, 31
2, 83323, Control_c, 0, 64, 12
2, 83342, Control_c, 0, 64, 20
2, 83362, Control_c, 0, 64, 28
2, 83380, Control_c, 0, 64, 37
2, 83400, Control_c, 0, 64, 45
2, 83419, Control_c, 0, 64, 52
2, 83437, Control_c, 0, 64, 56
2, 83455, Control_c, 0, 64, 60
2, 83474, Control_c, 0, 64, 64
2, 83494, Control_c, 0, 64, 67
2, 83511, Control_c, 0, 64, 70
2, 83531, Control_c, 0, 64, 73
2, 83549, Control_c, 0, 64, 76
2, 83570, Control_c, 0, 64, 78
2, 83777, Control_c, 0, 64, 76
2, 83833, Control_c, 0, 64, 74
2, 83871, Control_c, 0, 64, 72
2, 83927, Control_c, 0, 64, 69
2, 83929, Control_c, 0, 67, 80
2, 83947, Control_c, 0, 64, 67
2, 83965, Control_c, 0, 64, 66
2, 83998, Control_c, 0, 64, 65
2, 84018, Control_c, 0, 64, 64
2, 84038, Control_c, 0, 64, 63
2, 84039, Control_c, 0, 67, 75
2, 84056, Control_c, 0, 64, 61
2, 84075, Control_c, 0, 64, 59
2, 84095, Control_c, 0, 64, 56
2, 84114, Control_c, 0, 67, 70
2, 84133, Control_c, 0, 64, 53
2, 84150, Control_c, 0, 64, 51
2, 84151, Control_c, 0, 67, 65
2, 84172, Control_c, 0, 64, 48
2, 84189, Control_c, 0, 64, 46
2, 84189, Control_c, 0, 67, 60
2, 84207, Control_c, 0, 64, 43
2, 84226, Control_c, 0, 67, 55
2, 84244, Control_c, 0, 64, 36
2, 84264, Control_c, 0, 67, 49
2, 84282, Control_c, 0, 64, 30
2, 84302, Control_c, 0, 67, 43
2, 84321, Control_c, 0, 64, 24
2, 84340, Control_c, 0, 67, 38
2, 84359, Control_c, 0, 64, 19
2, 84380, Control_c, 0, 67, 32
2, 84415, Control_c, 0, 64, 14
2, 84417, Control_c, 0, 67, 24
2, 84436, Control_c, 0, 67, 19
2, 84454, Control_c, 0, 64, 8
2, 84455, Control_c, 0, 67, 12
2, 84490, Control_c, 0, 64, 0
2, 84491, Control_c, 0, 67, 0
2, 84497, Note_on_c, 0, 50, 0
2, 84551, Note_on_c, 0, 57, 0
2, 84591, Note_on_c, 0, 54, 0
2, 84610, Note_on_c, 0, 62, 0
2, 85562,End_track
0, 0, End_of_file
