0, 0, Header, 1, 2, 384
1, 0, Start_track
1, 0, Tempo, 500000
1, 0, Time_signature, 4, 2, 24, 8
1, 1, End_track
2, 0, Start_track
2, 0, Program_c, 0, 0
2, 0, Control_c, 0, 64, 55
2, 0, Control_c, 0, 67, 127
2, 69, Control_c, 0, 64, 56
2, 114, Control_c, 0, 64, 56
2, 160, Control_c, 0, 64, 57
2, 221, Control_c, 0, 64, 57
2, 312, Control_c, 0, 64, 58
2, 677, Control_c, 0, 64, 57
2, 747, Control_c, 0, 64, 56
2, 762, Control_c, 0, 64, 52
2, 777, Control_c, 0, 64, 38
2, 793, Control_c, 0, 64, 0
2, 793, Note_on_c, 0, 50, 73
2, 820, Note_on_c, 0, 50, 0
2, 1105, Note_on_c, 0, 50, 63
2, 1134, Note_on_c, 0, 50, 0
2, 1325, Note_on_c, 0, 69, 60
2, 1407, Note_on_c, 0, 50, 58
2, 1410, Note_on_c, 0, 69, 0
2, 1418, Note_on_c, 0, 65, 61
2, 1440, Note_on_c, 0, 50, 0
2, 1487, Note_on_c, 0, 65, 0
2, 1525, Note_on_c, 0, 62, 50
2, 1600, Note_on_c, 0, 62, 0
2, 1627, Note_on_c, 0, 69, 59
2, 1713, Note_on_c, 0, 69, 0
2, 1724, Note_on_c, 0, 50, 52
2, 1728, Note_on_c, 0, 65, 60
2, 1755, Note_on_c, 0, 50, 0
2, 1789, Note_on_c, 0, 65, 0
2, 1831, Note_on_c, 0, 62, 54
2, 1913, Note_on_c, 0, 62, 0
2, 1935, Note_on_c, 0, 74, 56
2, 2016, Note_on_c, 0, 74, 0
2, 2037, Note_on_c, 0, 50, 53
2, 2038, Note_on_c, 0, 70, 57
2, 2068, Note_on_c, 0, 50, 0
2, 2102, Note_on_c, 0, 70, 0
2, 2138, Note_on_c, 0, 67, 62
2, 2210, Note_on_c, 0, 67, 0
2, 2232, Note_on_c, 0, 70, 61
2, 2335, Note_on_c, 0, 67, 66
2, 2342, Note_on_c, 0, 70, 0
2, 2344, Note_on_c, 0, 50, 59
2, 2373, Note_on_c, 0, 50, 0
2, 2413, Note_on_c, 0, 67, 0
2, 2458, Note_on_c, 0, 64, 59
2, 2516, Note_on_c, 0, 64, 0
2, 2562, Note_on_c, 0, 67, 44
2, 2588, Note_on_c, 0, 69, 29
2, 2626, Note_on_c, 0, 69, 0
2, 2643, Note_on_c, 0, 67, 0
2, 2650, Note_on_c, 0, 50, 69
2, 2652, Note_on_c, 0, 64, 61
2, 2680, Note_on_c, 0, 50, 0
2, 2736, Note_on_c, 0, 64, 0
2, 2749, Note_on_c, 0, 61, 61
2, 2837, Note_on_c, 0, 61, 0
2, 2844, Note_on_c, 0, 67, 66
2, 2932, Note_on_c, 0, 67, 0
2, 2952, Note_on_c, 0, 64, 65
2, 2960, Note_on_c, 0, 50, 62
2, 2991, Note_on_c, 0, 50, 0
2, 3034, Note_on_c, 0, 64, 0
2, 3051, Note_on_c, 0, 61, 68
2, 3125, Note_on_c, 0, 61, 0
2, 3161, Note_on_c, 0, 69, 60
2, 3245, Note_on_c, 0, 69, 0
2, 3263, Note_on_c, 0, 65, 55
2, 3278, Note_on_c, 0, 50, 58
2, 3303, Note_on_c, 0, 50, 0
2, 3330, Note_on_c, 0, 65, 0
2, 3376, Note_on_c, 0, 62, 50
2, 3441, Note_on_c, 0, 62, 0
2, 3474, Note_on_c, 0, 69, 58
2, 3550, Note_on_c, 0, 69, 0
2, 3572, Note_on_c, 0, 65, 62
2, 3574, Note_on_c, 0, 50, 60
2, 3604, Note_on_c, 0, 50, 0
2, 3635, Note_on_c, 0, 65, 0
2, 3673, Note_on_c, 0, 62, 59
2, 3704, Note_on_c, 0, 62, 0
2, 3787, Note_on_c, 0, 81, 63
2, 3874, Note_on_c, 0, 81, 0
2, 3875, Note_on_c, 0, 62, 60
2, 3879, Note_on_c, 0, 77, 74
2, 3907, Note_on_c, 0, 62, 0
2, 3970, Note_on_c, 0, 77, 0
2, 3990, Note_on_c, 0, 74, 69
2, 4072, Note_on_c, 0, 74, 0
2, 4090, Note_on_c, 0, 77, 68
2, 4178, Note_on_c, 0, 77, 0
2, 4180, Note_on_c, 0, 62, 61
2, 4187, Note_on_c, 0, 74, 69
2, 4211, Note_on_c, 0, 62, 0
2, 4250, Note_on_c, 0, 74, 0
2, 4292, Note_on_c, 0, 69, 61
2, 4356, Note_on_c, 0, 69, 0
2, 4382, Note_on_c, 0, 74, 66
2, 4476, Note_on_c, 0, 74, 0
2, 4488, Note_on_c, 0, 55, 51
2, 4488, Note_on_c, 0, 70, 61
2, 4538, Note_on_c, 0, 55, 0
2, 4558, Note_on_c, 0, 70, 0
2, 4594, Note_on_c, 0, 67, 56
2, 4648, Note_on_c, 0, 67, 0
2, 4681, Note_on_c, 0, 74, 58
2, 4759, Note_on_c, 0, 74, 0
2, 4790, Note_on_c, 0, 70, 60
2, 4796, Note_on_c, 0, 55, 50
2, 4840, Note_on_c, 0, 55, 0
2, 4861, Note_on_c, 0, 70, 0
2, 4904, Note_on_c, 0, 67, 52
2, 4978, Note_on_c, 0, 67, 0
2, 5002, Note_on_c, 0, 79, 51
2, 5065, Note_on_c, 0, 79, 0
2, 5103, Note_on_c, 0, 60, 46
2, 5103, Note_on_c, 0, 76, 52
2, 5131, Note_on_c, 0, 60, 0
2, 5191, Note_on_c, 0, 76, 0
2, 5215, Note_on_c, 0, 72, 51
2, 5282, Note_on_c, 0, 72, 0
2, 5312, Note_on_c, 0, 76, 56
2, 5376, Note_on_c, 0, 76, 0
2, 5398, Note_on_c, 0, 60, 43
2, 5410, Note_on_c, 0, 72, 60
2, 5425, Note_on_c, 0, 60, 0
2, 5470, Note_on_c, 0, 72, 0
2, 5519, Note_on_c, 0, 67, 56
2, 5572, Note_on_c, 0, 67, 0
2, 5610, Note_on_c, 0, 72, 56
2, 5695, Note_on_c, 0, 72, 0
2, 5710, Note_on_c, 0, 53, 48
2, 5711, Note_on_c, 0, 69, 58
2, 5760, Note_on_c, 0, 53, 0
2, 5763, Note_on_c, 0, 69, 0
2, 5820, Note_on_c, 0, 65, 46
2, 5872, Note_on_c, 0, 65, 0
2, 5910, Note_on_c, 0, 72, 59
2, 5968, Note_on_c, 0, 72, 0
2, 6014, Note_on_c, 0, 69, 51
2, 6021, Note_on_c, 0, 53, 43
2, 6069, Note_on_c, 0, 53, 0
2, 6081, Note_on_c, 0, 69, 0
2, 6123, Note_on_c, 0, 65, 50
2, 6182, Note_on_c, 0, 65, 0
2, 6215, Note_on_c, 0, 77, 62
2, 6307, Note_on_c, 0, 77, 0
2, 6316, Note_on_c, 0, 58, 53
2, 6326, Note_on_c, 0, 74, 53
2, 6344, Note_on_c, 0, 58, 0
2, 6410, Note_on_c, 0, 74, 0
2, 6432, Note_on_c, 0, 70, 57
2, 6512, Note_on_c, 0, 70, 0
2, 6531, Note_on_c, 0, 74, 61
2, 6600, Note_on_c, 0, 74, 0
2, 6610, Note_on_c, 0, 55, 56
2, 6625, Note_on_c, 0, 70, 67
2, 6649, Note_on_c, 0, 55, 0
2, 6693, Note_on_c, 0, 70, 0
2, 6719, Note_on_c, 0, 67, 70
2, 6803, Note_on_c, 0, 67, 0
2, 6808, Note_on_c, 0, 79, 75
2, 6913, Note_on_c, 0, 76, 74
2, 6917, Note_on_c, 0, 60, 55
2, 6917, Note_on_c, 0, 79, 0
2, 6949, Note_on_c, 0, 60, 0
2, 7020, Note_on_c, 0, 76, 0
2, 7021, Note_on_c, 0, 72, 74
2, 7108, Note_on_c, 0, 72, 0
2, 7114, Note_on_c, 0, 76, 76
2, 7197, Note_on_c, 0, 76, 0
2, 7215, Note_on_c, 0, 72, 71
2, 7221, Note_on_c, 0, 57, 52
2, 7252, Note_on_c, 0, 57, 0
2, 7278, Note_on_c, 0, 72, 0
2, 7322, Note_on_c, 0, 69, 64
2, 7387, Note_on_c, 0, 69, 0
2, 7416, Note_on_c, 0, 81, 59
2, 7494, Note_on_c, 0, 81, 0
2, 7514, Note_on_c, 0, 77, 64
2, 7518, Note_on_c, 0, 62, 51
2, 7552, Note_on_c, 0, 62, 0
2, 7599, Note_on_c, 0, 77, 0
2, 7620, Note_on_c, 0, 74, 59
2, 7705, Note_on_c, 0, 74, 0
2, 7719, Note_on_c, 0, 77, 62
2, 7800, Note_on_c, 0, 77, 0
2, 7833, Note_on_c, 0, 74, 59
2, 7843, Note_on_c, 0, 50, 37
2, 7883, Note_on_c, 0, 50, 0
2, 7903, Note_on_c, 0, 74, 0
2, 7951, Note_on_c, 0, 70, 55
2, 8019, Note_on_c, 0, 70, 0
2, 8047, Note_on_c, 0, 82, 50
2, 8135, Note_on_c, 0, 79, 63
2, 8135, Note_on_c, 0, 82, 0
2, 8139, Note_on_c, 0, 52, 46
2, 8178, Note_on_c, 0, 52, 0
2, 8216, Note_on_c, 0, 79, 0
2, 8258, Note_on_c, 0, 76, 35
2, 8318, Note_on_c, 0, 76, 0
2, 8340, Note_on_c, 0, 79, 57
2, 8386, Note_on_c, 0, 79, 0
2, 8431, Note_on_c, 0, 76, 61
2, 8438, Note_on_c, 0, 48, 42
2, 8472, Note_on_c, 0, 48, 0
2, 8495, Note_on_c, 0, 76, 0
2, 8543, Note_on_c, 0, 72, 62
2, 8639, Note_on_c, 0, 84, 73
2, 8652, Note_on_c, 0, 72, 0
2, 8733, Note_on_c, 0, 84, 0
2, 8742, Note_on_c, 0, 81, 71
2, 8745, Note_on_c, 0, 53, 61
2, 8776, Note_on_c, 0, 53, 0
2, 8836, Note_on_c, 0, 81, 0
2, 8848, Note_on_c, 0, 77, 72
2, 8940, Note_on_c, 0, 77, 0
2, 8950, Note_on_c, 0, 81, 70
2, 9035, Note_on_c, 0, 81, 0
2, 9041, Note_on_c, 0, 52, 61
2, 9047, Note_on_c, 0, 77, 76
2, 9072, Note_on_c, 0, 52, 0
2, 9116, Note_on_c, 0, 77, 0
2, 9154, Note_on_c, 0, 72, 70
2, 9210, Note_on_c, 0, 72, 0
2, 9251, Note_on_c, 0, 81, 62
2, 9347, Note_on_c, 0, 81, 0
2, 9355, Note_on_c, 0, 77, 66
2, 9358, Note_on_c, 0, 50, 54
2, 9383, Note_on_c, 0, 50, 0
2, 9445, Note_on_c, 0, 77, 0
2, 9458, Note_on_c, 0, 74, 63
2, 9542, Note_on_c, 0, 74, 0
2, 9559, Note_on_c, 0, 77, 68
2, 9643, Note_on_c, 0, 77, 0
2, 9658, Note_on_c, 0, 48, 51
2, 9665, Note_on_c, 0, 74, 60
2, 9686, Note_on_c, 0, 48, 0
2, 9711, Note_on_c, 0, 74, 0
2, 9758, Note_on_c, 0, 69, 59
2, 9802, Note_on_c, 0, 69, 0
2, 9854, Note_on_c, 0, 77, 64
2, 9924, Note_on_c, 0, 77, 0
2, 9949, Note_on_c, 0, 74, 61
2, 9954, Note_on_c, 0, 46, 49
2, 9981, Note_on_c, 0, 46, 0
2, 10015, Note_on_c, 0, 74, 0
2, 10040, Note_on_c, 0, 70, 60
2, 10124, Note_on_c, 0, 70, 0
2, 10151, Note_on_c, 0, 74, 54
2, 10240, Note_on_c, 0, 74, 0
2, 10250, Note_on_c, 0, 70, 59
2, 10265, Note_on_c, 0, 45, 48
2, 10295, Note_on_c, 0, 45, 0
2, 10297, Note_on_c, 0, 70, 0
2, 10353, Note_on_c, 0, 65, 54
2, 10398, Note_on_c, 0, 65, 0
2, 10449, Note_on_c, 0, 74, 53
2, 10523, Note_on_c, 0, 74, 0
2, 10541, Note_on_c, 0, 70, 66
2, 10550, Note_on_c, 0, 43, 51
2, 10580, Note_on_c, 0, 43, 0
2, 10636, Note_on_c, 0, 70, 0
2, 10648, Note_on_c, 0, 67, 66
2, 10728, Note_on_c, 0, 67, 0
2, 10751, Note_on_c, 0, 70, 63
2, 10846, Note_on_c, 0, 70, 0
2, 10852, Note_on_c, 0, 41, 60
2, 10855, Note_on_c, 0, 67, 66
2, 10887, Note_on_c, 0, 41, 0
2, 10919, Note_on_c, 0, 67, 0
2, 10957, Note_on_c, 0, 62, 60
2, 11021, Note_on_c, 0, 62, 0
2, 11047, Note_on_c, 0, 70, 70
2, 11141, Note_on_c, 0, 70, 0
2, 11162, Note_on_c, 0, 67, 63
2, 11172, Note_on_c, 0, 40, 50
2, 11205, Note_on_c, 0, 40, 0
2, 11239, Note_on_c, 0, 67, 0
2, 11263, Note_on_c, 0, 60, 66
2, 11334, Note_on_c, 0, 60, 0
2, 11353, Note_on_c, 0, 70, 71
2, 11444, Note_on_c, 0, 70, 0
2, 11452, Note_on_c, 0, 67, 78
2, 11469, Note_on_c, 0, 36, 56
2, 11520, Note_on_c, 0, 36, 0
2, 11531, Note_on_c, 0, 67, 0
2, 11563, Note_on_c, 0, 64, 72
2, 11645, Note_on_c, 0, 64, 0
2, 11658, Note_on_c, 0, 70, 73
2, 11762, Note_on_c, 0, 69, 81
2, 11770, Note_on_c, 0, 41, 56
2, 11783, Note_on_c, 0, 70, 0
2, 11805, Note_on_c, 0, 41, 0
2, 11830, Note_on_c, 0, 69, 0
2, 11873, Note_on_c, 0, 65, 57
2, 11909, Note_on_c, 0, 65, 0
2, 11964, Note_on_c, 0, 69, 59
2, 12059, Note_on_c, 0, 69, 0
2, 12070, Note_on_c, 0, 45, 44
2, 12076, Note_on_c, 0, 65, 48
2, 12122, Note_on_c, 0, 45, 0
2, 12123, Note_on_c, 0, 65, 0
2, 12170, Note_on_c, 0, 60, 49
2, 12211, Note_on_c, 0, 60, 0
2, 12267, Note_on_c, 0, 65, 60
2, 12351, Note_on_c, 0, 65, 0
2, 12360, Note_on_c, 0, 46, 45
2, 12380, Note_on_c, 0, 62, 60
2, 12407, Note_on_c, 0, 46, 0
2, 12452, Note_on_c, 0, 62, 0
2, 12497, Note_on_c, 0, 58, 42
2, 12528, Note_on_c, 0, 58, 0
2, 12578, Note_on_c, 0, 65, 52
2, 12657, Note_on_c, 0, 65, 0
2, 12670, Note_on_c, 0, 48, 40
2, 12671, Note_on_c, 0, 60, 55
2, 12706, Note_on_c, 0, 48, 0
2, 12745, Note_on_c, 0, 60, 0
2, 12768, Note_on_c, 0, 58, 53
2, 12835, Note_on_c, 0, 58, 0
2, 12880, Note_on_c, 0, 64, 45
2, 12968, Note_on_c, 0, 64, 0
2, 12973, Note_on_c, 0, 60, 56
2, 12975, Note_on_c, 0, 41, 37
2, 13047, Note_on_c, 0, 60, 0
2, 13077, Note_on_c, 0, 57, 53
2, 13171, Note_on_c, 0, 57, 0
2, 13181, Note_on_c, 0, 65, 58
2, 13260, Note_on_c, 0, 65, 0
2, 13272, Note_on_c, 0, 60, 66
2, 13337, Note_on_c, 0, 60, 0
2, 13380, Note_on_c, 0, 57, 63
2, 13421, Note_on_c, 0, 57, 0
2, 13459, Note_on_c, 0, 41, 0
2, 13466, Note_on_c, 0, 60, 68
2, 13563, Note_on_c, 0, 57, 69
2, 13564, Note_on_c, 0, 60, 0
2, 13631, Note_on_c, 0, 57, 0
2, 13668, Note_on_c, 0, 53, 63
2, 13722, Note_on_c, 0, 53, 0
2, 13769, Note_on_c, 0, 60, 70
2, 13856, Note_on_c, 0, 60, 0
2, 13859, Note_on_c, 0, 51, 90
2, 13859, Note_on_c, 0, 57, 74
2, 13921, Note_on_c, 0, 51, 0
2, 13937, Note_on_c, 0, 57, 0
2, 13964, Note_on_c, 0, 53, 64
2, 14022, Note_on_c, 0, 53, 0
2, 14069, Note_on_c, 0, 60, 59
2, 14179, Note_on_c, 0, 50, 67
2, 14182, Note_on_c, 0, 60, 0
2, 14197, Note_on_c, 0, 57, 59
2, 14217, Note_on_c, 0, 50, 0
2, 14274, Note_on_c, 0, 57, 0
2, 14293, Note_on_c, 0, 54, 56
2, 14339, Note_on_c, 0, 54, 0
2, 14409, Note_on_c, 0, 60, 57
2, 14472, Note_on_c, 0, 48, 70
2, 14502, Note_on_c, 0, 60, 0
2, 14506, Note_on_c, 0, 57, 67
2, 14510, Note_on_c, 0, 48, 0
2, 14577, Note_on_c, 0, 57, 0
2, 14603, Note_on_c, 0, 54, 65
2, 14685, Note_on_c, 0, 54, 0
2, 14700, Note_on_c, 0, 63, 76
2, 14789, Note_on_c, 0, 57, 54
2, 14807, Note_on_c, 0, 63, 0
2, 14818, Note_on_c, 0, 46, 40
2, 14855, Note_on_c, 0, 46, 0
2, 14878, Note_on_c, 0, 57, 0
2, 14890, Note_on_c, 0, 54, 51
2, 14955, Note_on_c, 0, 54, 0
2, 14982, Note_on_c, 0, 62, 56
2, 15060, Note_on_c, 0, 62, 0
2, 15072, Note_on_c, 0, 57, 57
2, 15109, Note_on_c, 0, 45, 43
2, 15149, Note_on_c, 0, 57, 0
2, 15162, Note_on_c, 0, 45, 0
2, 15171, Note_on_c, 0, 54, 55
2, 15288, Note_on_c, 0, 60, 51
2, 15295, Note_on_c, 0, 54, 0
2, 15381, Note_on_c, 0, 58, 56
2, 15387, Note_on_c, 0, 60, 0
2, 15401, Note_on_c, 0, 43, 43
2, 15466, Note_on_c, 0, 43, 0
2, 15466, Note_on_c, 0, 58, 0
2, 15475, Note_on_c, 0, 55, 53
2, 15588, Note_on_c, 0, 62, 47
2, 15591, Note_on_c, 0, 55, 0
2, 15680, Note_on_c, 0, 46, 52
2, 15682, Note_on_c, 0, 58, 59
2, 15688, Note_on_c, 0, 62, 0
2, 15724, Note_on_c, 0, 46, 0
2, 15752, Note_on_c, 0, 58, 0
2, 15776, Note_on_c, 0, 55, 47
2, 15845, Note_on_c, 0, 55, 0
2, 15889, Note_on_c, 0, 62, 51
2, 15970, Note_on_c, 0, 58, 63
2, 15971, Note_on_c, 0, 62, 0
2, 15978, Note_on_c, 0, 48, 53
2, 16012, Note_on_c, 0, 48, 0
2, 16039, Note_on_c, 0, 58, 0
2, 16063, Note_on_c, 0, 55, 61
2, 16138, Note_on_c, 0, 55, 0
2, 16165, Note_on_c, 0, 64, 68
2, 16268, Note_on_c, 0, 58, 72
2, 16269, Note_on_c, 0, 64, 0
2, 16295, Note_on_c, 0, 50, 60
2, 16342, Note_on_c, 0, 50, 0
2, 16343, Note_on_c, 0, 58, 0
2, 16369, Note_on_c, 0, 55, 66
2, 16455, Note_on_c, 0, 55, 0
2, 16479, Note_on_c, 0, 66, 75
2, 16576, Note_on_c, 0, 66, 0
2, 16581, Note_on_c, 0, 58, 63
2, 16592, Note_on_c, 0, 51, 59
2, 16629, Note_on_c, 0, 51, 0
2, 16641, Note_on_c, 0, 58, 0
2, 16680, Note_on_c, 0, 55, 57
2, 16753, Note_on_c, 0, 55, 0
2, 16783, Note_on_c, 0, 67, 65
2, 16870, Note_on_c, 0, 67, 0
2, 16891, Note_on_c, 0, 46, 42
2, 16898, Note_on_c, 0, 62, 53
2, 16939, Note_on_c, 0, 46, 0
2, 16956, Note_on_c, 0, 62, 0
2, 16984, Note_on_c, 0, 58, 56
2, 17056, Note_on_c, 0, 58, 0
2, 17091, Note_on_c, 0, 67, 59
2, 17168, Note_on_c, 0, 67, 0
2, 17185, Note_on_c, 0, 63, 57
2, 17216, Note_on_c, 0, 48, 37
2, 17249, Note_on_c, 0, 48, 0
2, 17269, Note_on_c, 0, 63, 0
2, 17305, Note_on_c, 0, 57, 36
2, 17356, Note_on_c, 0, 57, 0
2, 17387, Note_on_c, 0, 67, 49
2, 17441, Note_on_c, 0, 67, 0
2, 17478, Note_on_c, 0, 62, 52
2, 17549, Note_on_c, 0, 62, 0
2, 17583, Note_on_c, 0, 57, 44
2, 17662, Note_on_c, 0, 57, 0
2, 17679, Note_on_c, 0, 66, 50
2, 17791, Note_on_c, 0, 66, 0
2, 17794, Note_on_c, 0, 62, 54
2, 17797, Note_on_c, 0, 43, 24
2, 17882, Note_on_c, 0, 62, 0
2, 17895, Note_on_c, 0, 58, 54
2, 18002, Note_on_c, 0, 67, 56
2, 18016, Note_on_c, 0, 58, 0
2, 18100, Note_on_c, 0, 62, 60
2, 18100, Note_on_c, 0, 67, 0
2, 18185, Note_on_c, 0, 62, 0
2, 18189, Note_on_c, 0, 43, 0
2, 18214, Note_on_c, 0, 58, 66
2, 18246, Note_on_c, 0, 58, 0
2, 18311, Note_on_c, 0, 62, 69
2, 18411, Note_on_c, 0, 58, 72
2, 18418, Note_on_c, 0, 62, 0
2, 18481, Note_on_c, 0, 58, 0
2, 18525, Note_on_c, 0, 55, 63
2, 18593, Note_on_c, 0, 55, 0
2, 18616, Note_on_c, 0, 62, 70
2, 18703, Note_on_c, 0, 62, 0
2, 18713, Note_on_c, 0, 58, 71
2, 18717, Note_on_c, 0, 53, 79
2, 18756, Note_on_c, 0, 53, 0
2, 18787, Note_on_c, 0, 58, 0
2, 18805, Note_on_c, 0, 55, 67
2, 18888, Note_on_c, 0, 55, 0
2, 18916, Note_on_c, 0, 62, 62
2, 19016, Note_on_c, 0, 59, 64
2, 19024, Note_on_c, 0, 62, 0
2, 19027, Note_on_c, 0, 52, 69
2, 19066, Note_on_c, 0, 52, 0
2, 19108, Note_on_c, 0, 59, 0
2, 19126, Note_on_c, 0, 56, 66
2, 19217, Note_on_c, 0, 56, 0
2, 19248, Note_on_c, 0, 62, 55
2, 19343, Note_on_c, 0, 50, 56
2, 19347, Note_on_c, 0, 59, 63
2, 19349, Note_on_c, 0, 62, 0
2, 19376, Note_on_c, 0, 50, 0
2, 19431, Note_on_c, 0, 59, 0
2, 19452, Note_on_c, 0, 56, 56
2, 19539, Note_on_c, 0, 56, 0
2, 19552, Note_on_c, 0, 65, 62
2, 19638, Note_on_c, 0, 65, 0
2, 19651, Note_on_c, 0, 59, 59
2, 19655, Note_on_c, 0, 48, 58
2, 19692, Note_on_c, 0, 48, 0
2, 19732, Note_on_c, 0, 59, 0
2, 19756, Note_on_c, 0, 56, 56
2, 19861, Note_on_c, 0, 56, 0
2, 19866, Note_on_c, 0, 64, 56
2, 19959, Note_on_c, 0, 64, 0
2, 19967, Note_on_c, 0, 47, 53
2, 19967, Note_on_c, 0, 60, 43
2, 20010, Note_on_c, 0, 47, 0
2, 20072, Note_on_c, 0, 60, 0
2, 20109, Note_on_c, 0, 57, 36
2, 20138, Note_on_c, 0, 57, 0
2, 20147, Note_on_c, 0, 64, 56
2, 20246, Note_on_c, 0, 64, 0
2, 20256, Note_on_c, 0, 62, 53
2, 20281, Note_on_c, 0, 45, 50
2, 20314, Note_on_c, 0, 62, 0
2, 20338, Note_on_c, 0, 60, 52
2, 20369, Note_on_c, 0, 45, 0
2, 20399, Note_on_c, 0, 60, 0
2, 20405, Note_on_c, 0, 57, 43
2, 20485, Note_on_c, 0, 57, 0
2, 20497, Note_on_c, 0, 64, 76
2, 20589, Note_on_c, 0, 64, 0
2, 20595, Note_on_c, 0, 60, 71
2, 20599, Note_on_c, 0, 48, 35
2, 20653, Note_on_c, 0, 48, 0
2, 20653, Note_on_c, 0, 60, 0
2, 20684, Note_on_c, 0, 57, 63
2, 20748, Note_on_c, 0, 57, 0
2, 20797, Note_on_c, 0, 64, 62
2, 20887, Note_on_c, 0, 64, 0
2, 20903, Note_on_c, 0, 50, 57
2, 20911, Note_on_c, 0, 60, 47
2, 20938, Note_on_c, 0, 60, 0
2, 20962, Note_on_c, 0, 50, 0
2, 20966, Note_on_c, 0, 57, 48
2, 21056, Note_on_c, 0, 57, 0
2, 21066, Note_on_c, 0, 66, 68
2, 21155, Note_on_c, 0, 66, 0
2, 21156, Note_on_c, 0, 60, 68
2, 21177, Note_on_c, 0, 52, 38
2, 21232, Note_on_c, 0, 60, 0
2, 21257, Note_on_c, 0, 52, 0
2, 21266, Note_on_c, 0, 57, 59
2, 21327, Note_on_c, 0, 57, 0
2, 21361, Note_on_c, 0, 68, 74
2, 21446, Note_on_c, 0, 60, 73
2, 21454, Note_on_c, 0, 68, 0
2, 21471, Note_on_c, 0, 53, 58
2, 21514, Note_on_c, 0, 53, 0
2, 21515, Note_on_c, 0, 60, 0
2, 21552, Note_on_c, 0, 57, 71
2, 21640, Note_on_c, 0, 57, 0
2, 21668, Note_on_c, 0, 69, 77
2, 21769, Note_on_c, 0, 69, 0
2, 21776, Note_on_c, 0, 48, 64
2, 21788, Note_on_c, 0, 64, 59
2, 21829, Note_on_c, 0, 48, 0
2, 21851, Note_on_c, 0, 64, 0
2, 21888, Note_on_c, 0, 60, 62
2, 21931, Note_on_c, 0, 60, 0
2, 21979, Note_on_c, 0, 69, 67
2, 22063, Note_on_c, 0, 69, 0
2, 22078, Note_on_c, 0, 65, 66
2, 22079, Note_on_c, 0, 50, 51
2, 22121, Note_on_c, 0, 50, 0
2, 22136, Note_on_c, 0, 65, 0
2, 22182, Note_on_c, 0, 59, 60
2, 22232, Note_on_c, 0, 59, 0
2, 22280, Note_on_c, 0, 69, 63
2, 22367, Note_on_c, 0, 69, 0
2, 22381, Note_on_c, 0, 52, 48
2, 22382, Note_on_c, 0, 64, 63
2, 22417, Note_on_c, 0, 52, 0
2, 22439, Note_on_c, 0, 64, 0
2, 22480, Note_on_c, 0, 59, 62
2, 22543, Note_on_c, 0, 59, 0
2, 22579, Note_on_c, 0, 68, 67
2, 22676, Note_on_c, 0, 64, 69
2, 22682, Note_on_c, 0, 68, 0
2, 22683, Note_on_c, 0, 45, 48
2, 22735, Note_on_c, 0, 45, 0
2, 22750, Note_on_c, 0, 64, 0
2, 22780, Note_on_c, 0, 60, 71
2, 22850, Note_on_c, 0, 60, 0
2, 22884, Note_on_c, 0, 69, 76
2, 22970, Note_on_c, 0, 69, 0
2, 22974, Note_on_c, 0, 64, 74
2, 22979, Note_on_c, 0, 57, 61
2, 23022, Note_on_c, 0, 57, 0
2, 23042, Note_on_c, 0, 64, 0
2, 23078, Note_on_c, 0, 60, 76
2, 23161, Note_on_c, 0, 60, 0
2, 23184, Note_on_c, 0, 72, 79
2, 23281, Note_on_c, 0, 57, 58
2, 23283, Note_on_c, 0, 65, 71
2, 23285, Note_on_c, 0, 72, 0
2, 23316, Note_on_c, 0, 57, 0
2, 23350, Note_on_c, 0, 65, 0
2, 23382, Note_on_c, 0, 62, 69
2, 23454, Note_on_c, 0, 62, 0
2, 23485, Note_on_c, 0, 70, 73
2, 23581, Note_on_c, 0, 67, 72
2, 23588, Note_on_c, 0, 70, 0
2, 23600, Note_on_c, 0, 55, 54
2, 23629, Note_on_c, 0, 55, 0
2, 23646, Note_on_c, 0, 67, 0
2, 23686, Note_on_c, 0, 64, 68
2, 23764, Note_on_c, 0, 64, 0
2, 23786, Note_on_c, 0, 70, 67
2, 23894, Note_on_c, 0, 53, 61
2, 23899, Note_on_c, 0, 69, 53
2, 23916, Note_on_c, 0, 70, 0
2, 23935, Note_on_c, 0, 53, 0
2, 23935, Note_on_c, 0, 67, 33
2, 23939, Note_on_c, 0, 67, 0
2, 23953, Note_on_c, 0, 69, 0
2, 24000, Note_on_c, 0, 65, 63
2, 24050, Note_on_c, 0, 65, 0
2, 24089, Note_on_c, 0, 69, 64
2, 24183, Note_on_c, 0, 60, 69
2, 24187, Note_on_c, 0, 41, 61
2, 24187, Note_on_c, 0, 69, 0
2, 24233, Note_on_c, 0, 41, 0
2, 24244, Note_on_c, 0, 60, 0
2, 24285, Note_on_c, 0, 57, 66
2, 24340, Note_on_c, 0, 57, 0
2, 24383, Note_on_c, 0, 69, 61
2, 24471, Note_on_c, 0, 41, 57
2, 24475, Note_on_c, 0, 69, 0
2, 24481, Note_on_c, 0, 62, 63
2, 24515, Note_on_c, 0, 41, 0
2, 24537, Note_on_c, 0, 62, 0
2, 24578, Note_on_c, 0, 59, 63
2, 24646, Note_on_c, 0, 59, 0
2, 24687, Note_on_c, 0, 67, 64
2, 24764, Note_on_c, 0, 67, 0
2, 24782, Note_on_c, 0, 64, 60
2, 24794, Note_on_c, 0, 40, 46
2, 24827, Note_on_c, 0, 40, 0
2, 24863, Note_on_c, 0, 64, 0
2, 24885, Note_on_c, 0, 61, 61
2, 24954, Note_on_c, 0, 61, 0
2, 24976, Note_on_c, 0, 67, 63
2, 25044, Note_on_c, 0, 67, 0
2, 25074, Note_on_c, 0, 65, 72
2, 25083, Note_on_c, 0, 38, 52
2, 25123, Note_on_c, 0, 38, 0
2, 25148, Note_on_c, 0, 65, 0
2, 25173, Note_on_c, 0, 62, 69
2, 25254, Note_on_c, 0, 62, 0
2, 25260, Note_on_c, 0, 74, 77
2, 25349, Note_on_c, 0, 69, 81
2, 25367, Note_on_c, 0, 74, 0
2, 25369, Note_on_c, 0, 50, 56
2, 25407, Note_on_c, 0, 50, 0
2, 25429, Note_on_c, 0, 69, 0
2, 25455, Note_on_c, 0, 65, 75
2, 25538, Note_on_c, 0, 65, 0
2, 25554, Note_on_c, 0, 77, 84
2, 25655, Note_on_c, 0, 70, 74
2, 25658, Note_on_c, 0, 50, 63
2, 25664, Note_on_c, 0, 77, 0
2, 25697, Note_on_c, 0, 50, 0
2, 25728, Note_on_c, 0, 70, 0
2, 25751, Note_on_c, 0, 67, 69
2, 25831, Note_on_c, 0, 67, 0
2, 25855, Note_on_c, 0, 75, 74
2, 25953, Note_on_c, 0, 48, 58
2, 25953, Note_on_c, 0, 75, 0
2, 25954, Note_on_c, 0, 72, 71
2, 25992, Note_on_c, 0, 48, 0
2, 26013, Note_on_c, 0, 72, 0
2, 26056, Note_on_c, 0, 69, 66
2, 26132, Note_on_c, 0, 69, 0
2, 26141, Note_on_c, 0, 75, 72
2, 26251, Note_on_c, 0, 75, 0
2, 26255, Note_on_c, 0, 74, 60
2, 26267, Note_on_c, 0, 46, 53
2, 26308, Note_on_c, 0, 46, 0
2, 26328, Note_on_c, 0, 74, 0
2, 26333, Note_on_c, 0, 70, 69
2, 26411, Note_on_c, 0, 70, 0
2, 26444, Note_on_c, 0, 74, 65
2, 26532, Note_on_c, 0, 74, 0
2, 26551, Note_on_c, 0, 65, 70
2, 26557, Note_on_c, 0, 58, 62
2, 26588, Note_on_c, 0, 58, 0
2, 26620, Note_on_c, 0, 65, 0
2, 26654, Note_on_c, 0, 62, 62
2, 26731, Note_on_c, 0, 62, 0
2, 26756, Note_on_c, 0, 74, 65
2, 26841, Note_on_c, 0, 74, 0
2, 26851, Note_on_c, 0, 67, 64
2, 26859, Note_on_c, 0, 58, 65
2, 26891, Note_on_c, 0, 58, 0
2, 26916, Note_on_c, 0, 67, 0
2, 26957, Note_on_c, 0, 64, 64
2, 27039, Note_on_c, 0, 64, 0
2, 27071, Note_on_c, 0, 72, 64
2, 27142, Note_on_c, 0, 72, 0
2, 27165, Note_on_c, 0, 69, 58
2, 27174, Note_on_c, 0, 57, 59
2, 27206, Note_on_c, 0, 57, 0
2, 27249, Note_on_c, 0, 69, 0
2, 27266, Note_on_c, 0, 66, 58
2, 27339, Note_on_c, 0, 66, 0
2, 27368, Note_on_c, 0, 72, 58
2, 27456, Control_c, 0, 64, 13
2, 27457, Note_on_c, 0, 72, 0
2, 27467, Note_on_c, 0, 55, 49
2, 27473, Control_c, 0, 64, 31
2, 27488, Control_c, 0, 64, 39
2, 27503, Control_c, 0, 64, 45
2, 27519, Control_c, 0, 64, 51
2, 27534, Control_c, 0, 64, 56
2, 27549, Control_c, 0, 64, 60
2, 27564, Control_c, 0, 64, 63
2, 27571, Note_on_c, 0, 67, 65
2, 27579, Control_c, 0, 64, 65
2, 27594, Control_c, 0, 64, 68
2, 27609, Control_c, 0, 64, 71
2, 27624, Control_c, 0, 64, 77
2, 27640, Control_c, 0, 64, 84
2, 27655, Control_c, 0, 64, 92
2, 27671, Control_c, 0, 64, 96
2, 27672, Note_on_c, 0, 74, 67
2, 27673, Note_on_c, 0, 67, 0
2, 27685, Control_c, 0, 64, 97
2, 27700, Control_c, 0, 64, 93
2, 27716, Control_c, 0, 64, 79
2, 27739, Control_c, 0, 64, 61
2, 27755, Control_c, 0, 64, 0
2, 27778, Note_on_c, 0, 70, 71
2, 27782, Note_on_c, 0, 74, 0
2, 27855, Note_on_c, 0, 70, 0
2, 27860, Note_on_c, 0, 55, 0
2, 27881, Note_on_c, 0, 67, 66
2, 27962, Note_on_c, 0, 67, 0
2, 27978, Note_on_c, 0, 79, 75
2, 28058, Control_c, 0, 64, 25
2, 28070, Note_on_c, 0, 79, 0
2, 28072, Note_on_c, 0, 75, 78
2, 28074, Control_c, 0, 64, 44
2, 28088, Control_c, 0, 64, 0
2, 28160, Note_on_c, 0, 75, 0
2, 28178, Note_on_c, 0, 67, 73
2, 28252, Note_on_c, 0, 67, 0
2, 28268, Note_on_c, 0, 79, 81
2, 28367, Note_on_c, 0, 79, 0
2, 28369, Note_on_c, 0, 74, 74
2, 28370, Note_on_c, 0, 58, 78
2, 28411, Note_on_c, 0, 58, 0
2, 28438, Note_on_c, 0, 74, 0
2, 28472, Note_on_c, 0, 67, 75
2, 28561, Note_on_c, 0, 67, 0
2, 28572, Note_on_c, 0, 79, 78
2, 28674, Note_on_c, 0, 73, 81
2, 28679, Note_on_c, 0, 79, 0
2, 28690, Note_on_c, 0, 57, 65
2, 28727, Note_on_c, 0, 57, 0
2, 28755, Note_on_c, 0, 73, 0
2, 28777, Note_on_c, 0, 69, 78
2, 28859, Note_on_c, 0, 69, 0
2, 28877, Note_on_c, 0, 79, 80
2, 28975, Note_on_c, 0, 79, 0
2, 28980, Note_on_c, 0, 76, 75
2, 28987, Note_on_c, 0, 55, 64
2, 29026, Note_on_c, 0, 55, 0
2, 29058, Note_on_c, 0, 76, 0
2, 29069, Note_on_c, 0, 73, 85
2, 29156, Note_on_c, 0, 73, 0
2, 29169, Note_on_c, 0, 82, 89
2, 29247, Note_on_c, 0, 82, 0
2, 29276, Note_on_c, 0, 76, 73
2, 29302, Note_on_c, 0, 53, 63
2, 29349, Note_on_c, 0, 76, 0
2, 29350, Note_on_c, 0, 53, 0
2, 29378, Note_on_c, 0, 73, 71
2, 29470, Note_on_c, 0, 73, 0
2, 29477, Note_on_c, 0, 81, 76
2, 29566, Note_on_c, 0, 81, 0
2, 29587, Note_on_c, 0, 76, 63
2, 29604, Note_on_c, 0, 52, 56
2, 29639, Note_on_c, 0, 52, 0
2, 29682, Note_on_c, 0, 76, 0
2, 29694, Note_on_c, 0, 73, 63
2, 29792, Note_on_c, 0, 79, 70
2, 29793, Note_on_c, 0, 73, 0
2, 29900, Note_on_c, 0, 77, 74
2, 29902, Note_on_c, 0, 50, 48
2, 29914, Note_on_c, 0, 79, 0
2, 29960, Note_on_c, 0, 50, 0
2, 29994, Note_on_c, 0, 74, 72
2, 30039, Note_on_c, 0, 77, 0
2, 30075, Note_on_c, 0, 74, 0
2, 30103, Note_on_c, 0, 69, 71
2, 30179, Note_on_c, 0, 69, 0
2, 30200, Note_on_c, 0, 65, 75
2, 30213, Note_on_c, 0, 53, 50
2, 30251, Note_on_c, 0, 53, 0
2, 30284, Note_on_c, 0, 65, 0
2, 30287, Control_c, 0, 64, 9
2, 30302, Control_c, 0, 64, 11
2, 30306, Note_on_c, 0, 62, 67
2, 30332, Control_c, 0, 64, 12
2, 30381, Note_on_c, 0, 62, 0
2, 30403, Note_on_c, 0, 69, 71
2, 30500, Note_on_c, 0, 55, 62
2, 30500, Note_on_c, 0, 65, 74
2, 30504, Note_on_c, 0, 69, 0
2, 30530, Control_c, 0, 64, 13
2, 30540, Note_on_c, 0, 55, 0
2, 30566, Note_on_c, 0, 65, 0
2, 30575, Control_c, 0, 64, 15
2, 30603, Note_on_c, 0, 62, 69
2, 30605, Control_c, 0, 64, 16
2, 30636, Control_c, 0, 64, 17
2, 30673, Note_on_c, 0, 62, 0
2, 30681, Control_c, 0, 64, 17
2, 30708, Note_on_c, 0, 71, 82
2, 30797, Note_on_c, 0, 65, 78
2, 30797, Note_on_c, 0, 71, 0
2, 30821, Note_on_c, 0, 57, 55
2, 30843, Control_c, 0, 64, 18
2, 30858, Note_on_c, 0, 57, 0
2, 30864, Note_on_c, 0, 65, 0
2, 30888, Control_c, 0, 64, 19
2, 30903, Control_c, 0, 64, 20
2, 30910, Note_on_c, 0, 62, 70
2, 30918, Control_c, 0, 64, 21
2, 30933, Control_c, 0, 64, 22
2, 30949, Control_c, 0, 64, 23
2, 30964, Control_c, 0, 64, 23
2, 30977, Note_on_c, 0, 62, 0
2, 30993, Control_c, 0, 64, 24
2, 31006, Note_on_c, 0, 73, 81
2, 31100, Control_c, 0, 64, 24
2, 31100, Note_on_c, 0, 58, 63
2, 31100, Note_on_c, 0, 65, 70
2, 31106, Note_on_c, 0, 73, 0
2, 31142, Note_on_c, 0, 58, 0
2, 31146, Control_c, 0, 64, 25
2, 31155, Note_on_c, 0, 65, 0
2, 31161, Control_c, 0, 64, 25
2, 31190, Note_on_c, 0, 62, 74
2, 31259, Note_on_c, 0, 62, 0
2, 31288, Note_on_c, 0, 74, 75
2, 31379, Note_on_c, 0, 74, 0
2, 31388, Note_on_c, 0, 65, 76
2, 31396, Note_on_c, 0, 53, 61
2, 31448, Note_on_c, 0, 53, 0
2, 31457, Note_on_c, 0, 65, 0
2, 31491, Note_on_c, 0, 62, 66
2, 31579, Note_on_c, 0, 62, 0
2, 31610, Note_on_c, 0, 69, 79
2, 31709, Note_on_c, 0, 69, 0
2, 31717, Note_on_c, 0, 65, 70
2, 31723, Note_on_c, 0, 55, 51
2, 31748, Control_c, 0, 64, 26
2, 31763, Note_on_c, 0, 55, 0
2, 31781, Note_on_c, 0, 65, 0
2, 31817, Note_on_c, 0, 62, 64
2, 31890, Note_on_c, 0, 62, 0
2, 31898, Control_c, 0, 64, 26
2, 31914, Control_c, 0, 64, 27
2, 31918, Note_on_c, 0, 70, 72
2, 31929, Control_c, 0, 64, 28
2, 31944, Control_c, 0, 64, 28
2, 31959, Control_c, 0, 64, 29
2, 32005, Control_c, 0, 64, 29
2, 32012, Note_on_c, 0, 70, 0
2, 32032, Note_on_c, 0, 64, 45
2, 32033, Note_on_c, 0, 57, 61
2, 32036, Control_c, 0, 64, 30
2, 32073, Note_on_c, 0, 57, 0
2, 32101, Note_on_c, 0, 64, 0
2, 32114, Note_on_c, 0, 61, 64
2, 32204, Note_on_c, 0, 61, 0
2, 32210, Note_on_c, 0, 69, 69
2, 32300, Note_on_c, 0, 69, 0
2, 32315, Note_on_c, 0, 64, 62
2, 32327, Note_on_c, 0, 46, 56
2, 32348, Control_c, 0, 64, 29
2, 32375, Note_on_c, 0, 46, 0
2, 32399, Note_on_c, 0, 64, 0
2, 32414, Note_on_c, 0, 61, 63
2, 32470, Control_c, 0, 64, 29
2, 32519, Note_on_c, 0, 67, 65
2, 32522, Note_on_c, 0, 61, 0
2, 32576, Control_c, 0, 64, 28
2, 32592, Control_c, 0, 64, 28
2, 32616, Note_on_c, 0, 67, 0
2, 32619, Note_on_c, 0, 41, 62
2, 32619, Note_on_c, 0, 62, 67
2, 32637, Control_c, 0, 64, 27
2, 32663, Note_on_c, 0, 41, 0
2, 32690, Note_on_c, 0, 62, 0
2, 32734, Note_on_c, 0, 57, 59
2, 32758, Control_c, 0, 64, 27
2, 32794, Note_on_c, 0, 57, 0
2, 32827, Note_on_c, 0, 65, 66
2, 32910, Control_c, 0, 64, 26
2, 32925, Control_c, 0, 64, 26
2, 32928, Note_on_c, 0, 62, 68
2, 32928, Note_on_c, 0, 65, 0
2, 32931, Note_on_c, 0, 43, 54
2, 32967, Note_on_c, 0, 43, 0
2, 33033, Note_on_c, 0, 58, 69
2, 33034, Note_on_c, 0, 62, 0
2, 33127, Note_on_c, 0, 58, 0
2, 33140, Note_on_c, 0, 64, 67
2, 33176, Control_c, 0, 64, 25
2, 33227, Note_on_c, 0, 45, 62
2, 33239, Note_on_c, 0, 60, 76
2, 33241, Note_on_c, 0, 64, 0
2, 33285, Note_on_c, 0, 45, 0
2, 33311, Note_on_c, 0, 60, 0
2, 33341, Note_on_c, 0, 53, 68
2, 33430, Note_on_c, 0, 53, 0
2, 33436, Control_c, 0, 64, 25
2, 33441, Note_on_c, 0, 63, 71
2, 33532, Note_on_c, 0, 46, 60
2, 33539, Note_on_c, 0, 58, 68
2, 33546, Note_on_c, 0, 63, 0
2, 33578, Note_on_c, 0, 46, 0
2, 33607, Note_on_c, 0, 58, 0
2, 33635, Note_on_c, 0, 53, 69
2, 33711, Note_on_c, 0, 53, 0
2, 33738, Note_on_c, 0, 62, 63
2, 33821, Note_on_c, 0, 62, 0
2, 33827, Note_on_c, 0, 41, 58
2, 33833, Note_on_c, 0, 57, 61
2, 33864, Note_on_c, 0, 41, 0
2, 33890, Note_on_c, 0, 57, 0
2, 33934, Note_on_c, 0, 53, 60
2, 33993, Note_on_c, 0, 53, 0
2, 34033, Note_on_c, 0, 62, 57
2, 34100, Note_on_c, 0, 62, 0
2, 34125, Note_on_c, 0, 43, 52
2, 34130, Note_on_c, 0, 58, 61
2, 34164, Note_on_c, 0, 43, 0
2, 34197, Note_on_c, 0, 58, 0
2, 34234, Note_on_c, 0, 52, 53
2, 34296, Note_on_c, 0, 52, 0
2, 34326, Note_on_c, 0, 62, 55
2, 34401, Note_on_c, 0, 62, 0
2, 34415, Note_on_c, 0, 45, 63
2, 34421, Note_on_c, 0, 57, 61
2, 34447, Note_on_c, 0, 45, 0
2, 34478, Note_on_c, 0, 57, 0
2, 34515, Note_on_c, 0, 52, 53
2, 34580, Note_on_c, 0, 52, 0
2, 34597, Note_on_c, 0, 61, 58
2, 34705, Note_on_c, 0, 61, 0
2, 34721, Note_on_c, 0, 57, 68
2, 34724, Note_on_c, 0, 38, 87
2, 34809, Note_on_c, 0, 57, 0
2, 34821, Note_on_c, 0, 54, 76
2, 34910, Note_on_c, 0, 54, 0
2, 34915, Note_on_c, 0, 57, 73
2, 35018, Note_on_c, 0, 60, 78
2, 35020, Note_on_c, 0, 57, 0
2, 35115, Note_on_c, 0, 60, 0
2, 35121, Control_c, 0, 64, 25
2, 35128, Note_on_c, 0, 57, 77
2, 35180, Control_c, 0, 64, 26
2, 35217, Note_on_c, 0, 57, 0
2, 35219, Note_on_c, 0, 60, 85
2, 35321, Note_on_c, 0, 63, 86
2, 35332, Control_c, 0, 64, 26
2, 35335, Note_on_c, 0, 60, 0
2, 35412, Note_on_c, 0, 63, 0
2, 35418, Note_on_c, 0, 60, 84
2, 35515, Note_on_c, 0, 63, 87
2, 35528, Note_on_c, 0, 60, 0
2, 35583, Note_on_c, 0, 63, 0
2, 35616, Note_on_c, 0, 66, 92
2, 35706, Control_c, 0, 64, 27
2, 35718, Note_on_c, 0, 42, 85
2, 35729, Note_on_c, 0, 38, 0
2, 35798, Control_c, 0, 64, 27
2, 35815, Note_on_c, 0, 45, 84
2, 35833, Note_on_c, 0, 42, 0
2, 35858, Control_c, 0, 64, 28
2, 35868, Note_on_c, 0, 66, 0
2, 35898, Note_on_c, 0, 58, 87
2, 35906, Note_on_c, 0, 50, 86
2, 35907, Note_on_c, 0, 45, 0
2, 35977, Note_on_c, 0, 58, 0
2, 35994, Note_on_c, 0, 55, 80
2, 36095, Note_on_c, 0, 58, 81
2, 36106, Note_on_c, 0, 55, 0
2, 36147, Control_c, 0, 64, 28
2, 36209, Note_on_c, 0, 62, 78
2, 36210, Note_on_c, 0, 58, 0
2, 36246, Control_c, 0, 64, 29
2, 36261, Control_c, 0, 64, 29
2, 36292, Control_c, 0, 64, 30
2, 36305, Note_on_c, 0, 58, 84
2, 36307, Control_c, 0, 64, 30
2, 36307, Note_on_c, 0, 62, 0
2, 36338, Control_c, 0, 64, 31
2, 36354, Control_c, 0, 64, 32
2, 36369, Control_c, 0, 64, 33
2, 36384, Control_c, 0, 64, 33
2, 36402, Note_on_c, 0, 62, 84
2, 36413, Note_on_c, 0, 58, 0
2, 36414, Control_c, 0, 64, 34
2, 36429, Control_c, 0, 64, 34
2, 36444, Control_c, 0, 64, 35
2, 36459, Control_c, 0, 64, 36
2, 36475, Control_c, 0, 64, 37
2, 36491, Control_c, 0, 64, 38
2, 36501, Note_on_c, 0, 62, 0
2, 36501, Note_on_c, 0, 67, 82
2, 36506, Control_c, 0, 64, 39
2, 36551, Control_c, 0, 64, 39
2, 36567, Note_on_c, 0, 67, 0
2, 36598, Note_on_c, 0, 62, 83
2, 36643, Control_c, 0, 64, 39
2, 36694, Note_on_c, 0, 62, 0
2, 36695, Note_on_c, 0, 67, 83
2, 36719, Control_c, 0, 64, 38
2, 36734, Control_c, 0, 64, 38
2, 36748, Control_c, 0, 64, 38
2, 36764, Control_c, 0, 64, 47
2, 36779, Control_c, 0, 64, 58
2, 36783, Note_on_c, 0, 70, 86
2, 36795, Control_c, 0, 64, 63
2, 36797, Note_on_c, 0, 67, 0
2, 36810, Control_c, 0, 64, 67
2, 36824, Control_c, 0, 64, 74
2, 36840, Control_c, 0, 64, 86
2, 36855, Control_c, 0, 64, 127
2, 36884, Note_on_c, 0, 55, 85
2, 36894, Note_on_c, 0, 50, 0
2, 36996, Note_on_c, 0, 55, 0
2, 36998, Note_on_c, 0, 57, 87
2, 37019, Note_on_c, 0, 58, 35
2, 37055, Note_on_c, 0, 58, 0
2, 37091, Note_on_c, 0, 61, 101
2, 37115, Note_on_c, 0, 57, 0
2, 37121, Control_c, 0, 64, 81
2, 37136, Control_c, 0, 64, 34
2, 37151, Control_c, 0, 64, 0
2, 37151, Note_on_c, 0, 61, 0
2, 37191, Note_on_c, 0, 67, 76
2, 37195, Note_on_c, 0, 70, 0
2, 37278, Note_on_c, 0, 67, 0
2, 37281, Note_on_c, 0, 76, 75
2, 37386, Note_on_c, 0, 70, 80
2, 37387, Note_on_c, 0, 76, 0
2, 37394, Note_on_c, 0, 50, 67
2, 37441, Note_on_c, 0, 50, 0
2, 37467, Note_on_c, 0, 70, 0
2, 37482, Note_on_c, 0, 67, 76
2, 37561, Note_on_c, 0, 67, 0
2, 37577, Note_on_c, 0, 79, 89
2, 37680, Note_on_c, 0, 70, 79
2, 37685, Note_on_c, 0, 79, 0
2, 37687, Note_on_c, 0, 61, 70
2, 37728, Note_on_c, 0, 61, 0
2, 37761, Note_on_c, 0, 70, 0
2, 37783, Note_on_c, 0, 67, 69
2, 37859, Note_on_c, 0, 67, 0
2, 37885, Note_on_c, 0, 76, 83
2, 37986, Note_on_c, 0, 70, 72
2, 37986, Note_on_c, 0, 76, 0
2, 38005, Note_on_c, 0, 50, 51
2, 38046, Note_on_c, 0, 50, 0
2, 38060, Note_on_c, 0, 70, 0
2, 38080, Note_on_c, 0, 67, 66
2, 38162, Note_on_c, 0, 67, 0
2, 38187, Note_on_c, 0, 73, 78
2, 38286, Note_on_c, 0, 70, 73
2, 38299, Note_on_c, 0, 61, 63
2, 38299, Note_on_c, 0, 73, 0
2, 38342, Note_on_c, 0, 61, 0
2, 38358, Note_on_c, 0, 70, 0
2, 38384, Note_on_c, 0, 67, 70
2, 38455, Note_on_c, 0, 67, 0
2, 38497, Note_on_c, 0, 76, 78
2, 38593, Note_on_c, 0, 76, 0
2, 38597, Note_on_c, 0, 70, 69
2, 38620, Note_on_c, 0, 50, 52
2, 38675, Note_on_c, 0, 50, 0
2, 38675, Note_on_c, 0, 70, 0
2, 38697, Note_on_c, 0, 67, 69
2, 38775, Note_on_c, 0, 67, 0
2, 38797, Note_on_c, 0, 79, 74
2, 38890, Note_on_c, 0, 79, 0
2, 38911, Note_on_c, 0, 70, 63
2, 38920, Note_on_c, 0, 61, 52
2, 38956, Note_on_c, 0, 61, 0
2, 38983, Note_on_c, 0, 70, 0
2, 39005, Note_on_c, 0, 67, 65
2, 39073, Note_on_c, 0, 67, 0
2, 39105, Note_on_c, 0, 76, 69
2, 39214, Note_on_c, 0, 76, 0
2, 39216, Note_on_c, 0, 70, 65
2, 39230, Note_on_c, 0, 50, 46
2, 39278, Note_on_c, 0, 50, 0
2, 39296, Note_on_c, 0, 70, 0
2, 39321, Note_on_c, 0, 67, 61
2, 39401, Note_on_c, 0, 67, 0
2, 39425, Note_on_c, 0, 73, 59
2, 39535, Note_on_c, 0, 69, 51
2, 39554, Note_on_c, 0, 60, 57
2, 39564, Note_on_c, 0, 73, 0
2, 39592, Note_on_c, 0, 60, 0
2, 39619, Note_on_c, 0, 69, 0
2, 39630, Note_on_c, 0, 66, 52
2, 39726, Note_on_c, 0, 66, 0
2, 39745, Note_on_c, 0, 74, 53
2, 39843, Note_on_c, 0, 74, 0
2, 39848, Note_on_c, 0, 50, 50
2, 39849, Note_on_c, 0, 69, 61
2, 39886, Note_on_c, 0, 50, 0
2, 39931, Note_on_c, 0, 69, 0
2, 39959, Note_on_c, 0, 66, 51
2, 40045, Note_on_c, 0, 66, 0
2, 40054, Note_on_c, 0, 75, 66
2, 40161, Note_on_c, 0, 75, 0
2, 40165, Note_on_c, 0, 69, 58
2, 40179, Note_on_c, 0, 60, 59
2, 40214, Note_on_c, 0, 60, 0
2, 40252, Note_on_c, 0, 69, 0
2, 40271, Note_on_c, 0, 66, 54
2, 40371, Note_on_c, 0, 74, 65
2, 40372, Note_on_c, 0, 66, 0
2, 40462, Note_on_c, 0, 74, 0
2, 40479, Note_on_c, 0, 69, 60
2, 40483, Note_on_c, 0, 50, 47
2, 40516, Note_on_c, 0, 50, 0
2, 40562, Note_on_c, 0, 69, 0
2, 40583, Note_on_c, 0, 66, 54
2, 40683, Note_on_c, 0, 66, 0
2, 40699, Note_on_c, 0, 72, 59
2, 40800, Note_on_c, 0, 60, 60
2, 40805, Note_on_c, 0, 72, 0
2, 40806, Note_on_c, 0, 69, 57
2, 40837, Note_on_c, 0, 60, 0
2, 40890, Note_on_c, 0, 69, 0
2, 40901, Note_on_c, 0, 66, 52
2, 40997, Note_on_c, 0, 66, 0
2, 41008, Note_on_c, 0, 74, 52
2, 41099, Note_on_c, 0, 74, 0
2, 41103, Note_on_c, 0, 50, 36
2, 41113, Note_on_c, 0, 69, 55
2, 41139, Note_on_c, 0, 50, 0
2, 41181, Note_on_c, 0, 69, 0
2, 41213, Note_on_c, 0, 66, 45
2, 41283, Note_on_c, 0, 66, 0
2, 41285, Note_on_c, 0, 75, 64
2, 41393, Note_on_c, 0, 75, 0
2, 41402, Note_on_c, 0, 69, 56
2, 41406, Note_on_c, 0, 60, 55
2, 41441, Note_on_c, 0, 60, 0
2, 41477, Note_on_c, 0, 69, 0
2, 41506, Note_on_c, 0, 66, 47
2, 41588, Note_on_c, 0, 66, 0
2, 41598, Note_on_c, 0, 74, 55
2, 41699, Note_on_c, 0, 74, 0
2, 41707, Note_on_c, 0, 69, 55
2, 41718, Note_on_c, 0, 50, 46
2, 41770, Note_on_c, 0, 69, 0
2, 41782, Note_on_c, 0, 50, 0
2, 41802, Note_on_c, 0, 66, 55
2, 41849, Note_on_c, 0, 66, 0
2, 41917, Note_on_c, 0, 72, 52
2, 42013, Note_on_c, 0, 72, 0
2, 42020, Note_on_c, 0, 67, 61
2, 42030, Note_on_c, 0, 58, 30
2, 42062, Note_on_c, 0, 58, 0
2, 42085, Note_on_c, 0, 67, 0
2, 42133, Note_on_c, 0, 62, 49
2, 42205, Note_on_c, 0, 62, 0
2, 42212, Note_on_c, 0, 67, 63
2, 42332, Note_on_c, 0, 70, 66
2, 42333, Note_on_c, 0, 67, 0
2, 42341, Note_on_c, 0, 50, 27
2, 42381, Note_on_c, 0, 50, 0
2, 42401, Note_on_c, 0, 70, 0
2, 42431, Note_on_c, 0, 67, 71
2, 42520, Note_on_c, 0, 67, 0
2, 42522, Note_on_c, 0, 70, 76
2, 42621, Note_on_c, 0, 58, 46
2, 42623, Note_on_c, 0, 70, 0
2, 42631, Note_on_c, 0, 74, 79
2, 42649, Note_on_c, 0, 58, 0
2, 42666, Control_c, 0, 64, 9
2, 42681, Control_c, 0, 64, 13
2, 42696, Control_c, 0, 64, 16
2, 42711, Control_c, 0, 64, 18
2, 42716, Note_on_c, 0, 70, 86
2, 42716, Note_on_c, 0, 74, 0
2, 42726, Control_c, 0, 64, 20
2, 42741, Control_c, 0, 64, 21
2, 42757, Control_c, 0, 64, 21
2, 42772, Control_c, 0, 64, 22
2, 42802, Control_c, 0, 64, 23
2, 42809, Note_on_c, 0, 74, 84
2, 42817, Note_on_c, 0, 70, 0
2, 42832, Control_c, 0, 64, 23
2, 42862, Control_c, 0, 64, 24
2, 42904, Note_on_c, 0, 79, 87
2, 42907, Note_on_c, 0, 74, 0
2, 42909, Control_c, 0, 64, 24
2, 42912, Note_on_c, 0, 50, 48
2, 42954, Control_c, 0, 64, 25
2, 42973, Note_on_c, 0, 50, 0
2, 42979, Note_on_c, 0, 79, 0
2, 42999, Control_c, 0, 64, 25
2, 42999, Note_on_c, 0, 74, 89
2, 43014, Control_c, 0, 64, 26
2, 43030, Control_c, 0, 64, 26
2, 43046, Control_c, 0, 64, 27
2, 43060, Control_c, 0, 64, 27
2, 43099, Control_c, 0, 64, 28
2, 43103, Note_on_c, 0, 79, 86
2, 43116, Note_on_c, 0, 74, 0
2, 43130, Control_c, 0, 64, 28
2, 43160, Control_c, 0, 64, 29
2, 43175, Control_c, 0, 64, 29
2, 43186, Note_on_c, 0, 79, 0
2, 43191, Control_c, 0, 64, 30
2, 43205, Note_on_c, 0, 55, 55
2, 43206, Control_c, 0, 64, 30
2, 43206, Note_on_c, 0, 82, 83
2, 43254, Note_on_c, 0, 55, 0
2, 43306, Note_on_c, 0, 81, 80
2, 43347, Note_on_c, 0, 82, 0
2, 43378, Note_on_c, 0, 81, 0
2, 43402, Note_on_c, 0, 79, 71
2, 43476, Note_on_c, 0, 79, 0
2, 43479, Control_c, 0, 64, 31
2, 43488, Note_on_c, 0, 50, 51
2, 43495, Note_on_c, 0, 77, 79
2, 43531, Note_on_c, 0, 50, 0
2, 43584, Note_on_c, 0, 77, 0
2, 43595, Note_on_c, 0, 76, 76
2, 43671, Note_on_c, 0, 76, 0
2, 43703, Note_on_c, 0, 74, 67
2, 43762, Note_on_c, 0, 74, 0
2, 43781, Note_on_c, 0, 55, 56
2, 43796, Note_on_c, 0, 73, 73
2, 43818, Note_on_c, 0, 55, 0
2, 43868, Note_on_c, 0, 73, 0
2, 43904, Note_on_c, 0, 69, 68
2, 43959, Note_on_c, 0, 69, 0
2, 43993, Note_on_c, 0, 73, 69
2, 44078, Note_on_c, 0, 73, 0
2, 44081, Note_on_c, 0, 50, 47
2, 44098, Note_on_c, 0, 76, 66
2, 44133, Note_on_c, 0, 50, 0
2, 44166, Note_on_c, 0, 76, 0
2, 44188, Note_on_c, 0, 73, 66
2, 44277, Note_on_c, 0, 73, 0
2, 44283, Note_on_c, 0, 76, 67
2, 44373, Note_on_c, 0, 76, 0
2, 44388, Note_on_c, 0, 79, 59
2, 44400, Note_on_c, 0, 52, 27
2, 44439, Note_on_c, 0, 52, 0
2, 44463, Note_on_c, 0, 79, 0
2, 44473, Note_on_c, 0, 76, 65
2, 44536, Note_on_c, 0, 76, 0
2, 44576, Note_on_c, 0, 74, 60
2, 44649, Note_on_c, 0, 74, 0
2, 44660, Note_on_c, 0, 73, 68
2, 44676, Note_on_c, 0, 50, 54
2, 44723, Note_on_c, 0, 50, 0
2, 44761, Note_on_c, 0, 73, 0
2, 44776, Note_on_c, 0, 71, 48
2, 44815, Note_on_c, 0, 72, 12
2, 44829, Note_on_c, 0, 71, 0
2, 44857, Note_on_c, 0, 72, 0
2, 44864, Note_on_c, 0, 69, 63
2, 44915, Note_on_c, 0, 69, 0
2, 44958, Note_on_c, 0, 67, 70
2, 44964, Note_on_c, 0, 52, 55
2, 45001, Note_on_c, 0, 52, 0
2, 45030, Note_on_c, 0, 67, 0
2, 45046, Control_c, 0, 64, 31
2, 45069, Note_on_c, 0, 64, 61
2, 45124, Note_on_c, 0, 64, 0
2, 45157, Note_on_c, 0, 67, 67
2, 45247, Note_on_c, 0, 67, 0
2, 45258, Note_on_c, 0, 50, 46
2, 45261, Note_on_c, 0, 70, 66
2, 45294, Note_on_c, 0, 50, 0
2, 45322, Note_on_c, 0, 70, 0
2, 45358, Note_on_c, 0, 67, 66
2, 45416, Note_on_c, 0, 67, 0
2, 45453, Note_on_c, 0, 70, 68
2, 45539, Note_on_c, 0, 70, 0
2, 45559, Note_on_c, 0, 73, 68
2, 45561, Note_on_c, 0, 52, 50
2, 45597, Note_on_c, 0, 52, 0
2, 45626, Note_on_c, 0, 73, 0
2, 45659, Note_on_c, 0, 67, 66
2, 45742, Note_on_c, 0, 67, 0
2, 45759, Note_on_c, 0, 76, 63
2, 45848, Note_on_c, 0, 50, 49
2, 45848, Note_on_c, 0, 73, 68
2, 45848, Note_on_c, 0, 76, 0
2, 45859, Control_c, 0, 64, 32
2, 45890, Note_on_c, 0, 50, 0
2, 45935, Note_on_c, 0, 73, 0
2, 45943, Note_on_c, 0, 70, 71
2, 46044, Note_on_c, 0, 70, 0
2, 46047, Note_on_c, 0, 76, 68
2, 46139, Note_on_c, 0, 76, 0
2, 46142, Note_on_c, 0, 73, 69
2, 46155, Note_on_c, 0, 52, 58
2, 46200, Note_on_c, 0, 52, 0
2, 46227, Note_on_c, 0, 73, 0
2, 46257, Note_on_c, 0, 69, 69
2, 46347, Note_on_c, 0, 69, 0
2, 46368, Note_on_c, 0, 76, 59
2, 46443, Note_on_c, 0, 76, 0
2, 46459, Note_on_c, 0, 73, 66
2, 46475, Note_on_c, 0, 50, 46
2, 46525, Note_on_c, 0, 50, 0
2, 46530, Note_on_c, 0, 73, 0
2, 46568, Note_on_c, 0, 67, 61
2, 46659, Note_on_c, 0, 67, 0
2, 46673, Note_on_c, 0, 76, 54
2, 46767, Note_on_c, 0, 72, 65
2, 46771, Note_on_c, 0, 76, 0
2, 46773, Note_on_c, 0, 54, 49
2, 46816, Note_on_c, 0, 54, 0
2, 46860, Note_on_c, 0, 72, 0
2, 46870, Note_on_c, 0, 69, 63
2, 46959, Note_on_c, 0, 69, 0
2, 46974, Note_on_c, 0, 74, 50
2, 47057, Note_on_c, 0, 74, 0
2, 47062, Note_on_c, 0, 50, 46
2, 47068, Note_on_c, 0, 70, 60
2, 47111, Note_on_c, 0, 50, 0
2, 47127, Note_on_c, 0, 70, 0
2, 47172, Note_on_c, 0, 67, 59
2, 47229, Control_c, 0, 64, 32
2, 47247, Note_on_c, 0, 67, 0
2, 47259, Control_c, 0, 64, 33
2, 47268, Note_on_c, 0, 75, 66
2, 47335, Control_c, 0, 64, 33
2, 47341, Note_on_c, 0, 75, 0
2, 47354, Note_on_c, 0, 69, 62
2, 47385, Note_on_c, 0, 54, 54
2, 47423, Note_on_c, 0, 54, 0
2, 47439, Note_on_c, 0, 69, 0
2, 47472, Note_on_c, 0, 66, 58
2, 47549, Note_on_c, 0, 66, 0
2, 47555, Note_on_c, 0, 74, 55
2, 47649, Note_on_c, 0, 74, 0
2, 47669, Note_on_c, 0, 69, 59
2, 47674, Note_on_c, 0, 50, 46
2, 47753, Note_on_c, 0, 69, 0
2, 47779, Note_on_c, 0, 66, 57
2, 47869, Note_on_c, 0, 66, 0
2, 47876, Note_on_c, 0, 72, 57
2, 47991, Note_on_c, 0, 72, 0
2, 47995, Note_on_c, 0, 67, 54
2, 48000, Note_on_c, 0, 55, 54
2, 48089, Note_on_c, 0, 67, 0
2, 48103, Note_on_c, 0, 62, 56
2, 48203, Note_on_c, 0, 62, 0
2, 48209, Note_on_c, 0, 70, 57
2, 48304, Note_on_c, 0, 70, 0
2, 48307, Note_on_c, 0, 67, 59
2, 48316, Note_on_c, 0, 57, 61
2, 48377, Note_on_c, 0, 55, 0
2, 48399, Note_on_c, 0, 67, 0
2, 48419, Note_on_c, 0, 65, 58
2, 48510, Note_on_c, 0, 65, 0
2, 48518, Note_on_c, 0, 70, 58
2, 48606, Note_on_c, 0, 55, 64
2, 48613, Note_on_c, 0, 70, 0
2, 48617, Note_on_c, 0, 67, 58
2, 48656, Note_on_c, 0, 57, 0
2, 48711, Note_on_c, 0, 67, 0
2, 48741, Note_on_c, 0, 63, 51
2, 48762, Control_c, 0, 64, 34
2, 48794, Control_c, 0, 64, 34
2, 48809, Control_c, 0, 64, 35
2, 48814, Note_on_c, 0, 70, 58
2, 48821, Note_on_c, 0, 63, 0
2, 48823, Control_c, 0, 64, 35
2, 48854, Control_c, 0, 64, 36
2, 48870, Control_c, 0, 64, 36
2, 48912, Note_on_c, 0, 70, 0
2, 48915, Control_c, 0, 64, 37
2, 48921, Note_on_c, 0, 53, 66
2, 48921, Note_on_c, 0, 67, 53
2, 48945, Control_c, 0, 64, 37
2, 48961, Control_c, 0, 64, 38
2, 48962, Note_on_c, 0, 55, 0
2, 48992, Control_c, 0, 64, 38
2, 49007, Control_c, 0, 64, 39
2, 49022, Control_c, 0, 64, 40
2, 49029, Note_on_c, 0, 67, 0
2, 49046, Note_on_c, 0, 62, 49
2, 49052, Control_c, 0, 64, 40
2, 49068, Control_c, 0, 64, 41
2, 49098, Control_c, 0, 64, 41
2, 49102, Note_on_c, 0, 62, 0
2, 49128, Note_on_c, 0, 70, 58
2, 49222, Note_on_c, 0, 70, 0
2, 49240, Note_on_c, 0, 67, 57
2, 49247, Note_on_c, 0, 52, 53
2, 49273, Control_c, 0, 64, 42
2, 49288, Control_c, 0, 64, 45
2, 49290, Note_on_c, 0, 53, 0
2, 49303, Control_c, 0, 64, 49
2, 49318, Control_c, 0, 64, 52
2, 49323, Note_on_c, 0, 67, 0
2, 49333, Control_c, 0, 64, 56
2, 49340, Note_on_c, 0, 61, 49
2, 49349, Control_c, 0, 64, 59
2, 49364, Control_c, 0, 64, 61
2, 49379, Control_c, 0, 64, 62
2, 49394, Control_c, 0, 64, 63
2, 49409, Control_c, 0, 64, 64
2, 49424, Control_c, 0, 64, 64
2, 49459, Note_on_c, 0, 70, 43
2, 49471, Note_on_c, 0, 61, 0
2, 49485, Control_c, 0, 64, 64
2, 49500, Control_c, 0, 64, 63
2, 49515, Control_c, 0, 64, 62
2, 49530, Control_c, 0, 64, 56
2, 49535, Note_on_c, 0, 70, 0
2, 49545, Control_c, 0, 64, 47
2, 49548, Note_on_c, 0, 55, 59
2, 49553, Note_on_c, 0, 64, 54
2, 49563, Control_c, 0, 64, 39
2, 49595, Control_c, 0, 64, 45
2, 49610, Control_c, 0, 64, 55
2, 49620, Note_on_c, 0, 64, 0
2, 49621, Note_on_c, 0, 52, 0
2, 49625, Control_c, 0, 64, 61
2, 49640, Control_c, 0, 64, 65
2, 49651, Note_on_c, 0, 61, 60
2, 49655, Control_c, 0, 64, 67
2, 49671, Control_c, 0, 64, 71
2, 49685, Control_c, 0, 64, 77
2, 49701, Control_c, 0, 64, 84
2, 49715, Note_on_c, 0, 61, 0
2, 49716, Control_c, 0, 64, 91
2, 49731, Control_c, 0, 64, 93
2, 49746, Control_c, 0, 64, 92
2, 49750, Note_on_c, 0, 70, 54
2, 49761, Control_c, 0, 64, 91
2, 49776, Control_c, 0, 64, 90
2, 49792, Control_c, 0, 64, 88
2, 49807, Control_c, 0, 64, 86
2, 49823, Control_c, 0, 64, 82
2, 49838, Control_c, 0, 64, 76
2, 49839, Note_on_c, 0, 70, 0
2, 49852, Control_c, 0, 64, 69
2, 49855, Note_on_c, 0, 64, 60
2, 49864, Note_on_c, 0, 53, 57
2, 49868, Control_c, 0, 64, 63
2, 49883, Control_c, 0, 64, 56
2, 49892, Note_on_c, 0, 55, 0
2, 49898, Control_c, 0, 64, 51
2, 49914, Control_c, 0, 64, 51
2, 49929, Control_c, 0, 64, 55
2, 49945, Control_c, 0, 64, 60
2, 49958, Note_on_c, 0, 64, 0
2, 49959, Control_c, 0, 64, 65
2, 49968, Note_on_c, 0, 61, 59
2, 49974, Control_c, 0, 64, 69
2, 49990, Control_c, 0, 64, 73
2, 50012, Control_c, 0, 64, 78
2, 50028, Control_c, 0, 64, 81
2, 50042, Control_c, 0, 64, 83
2, 50057, Control_c, 0, 64, 84
2, 50064, Note_on_c, 0, 61, 0
2, 50067, Note_on_c, 0, 69, 63
2, 50073, Control_c, 0, 64, 83
2, 50088, Control_c, 0, 64, 83
2, 50104, Control_c, 0, 64, 82
2, 50119, Control_c, 0, 64, 80
2, 50134, Control_c, 0, 64, 78
2, 50150, Control_c, 0, 64, 73
2, 50152, Note_on_c, 0, 53, 0
2, 50160, Note_on_c, 0, 52, 65
2, 50164, Control_c, 0, 64, 66
2, 50172, Note_on_c, 0, 69, 0
2, 50180, Control_c, 0, 64, 58
2, 50190, Note_on_c, 0, 64, 60
2, 50195, Control_c, 0, 64, 53
2, 50210, Control_c, 0, 64, 56
2, 50226, Control_c, 0, 64, 60
2, 50240, Control_c, 0, 64, 64
2, 50255, Control_c, 0, 64, 69
2, 50266, Note_on_c, 0, 64, 0
2, 50271, Control_c, 0, 64, 75
2, 50283, Note_on_c, 0, 61, 59
2, 50285, Control_c, 0, 64, 83
2, 50287, Note_on_c, 0, 50, 0
2, 50301, Control_c, 0, 64, 92
2, 50316, Control_c, 0, 64, 98
2, 50331, Control_c, 0, 64, 103
2, 50347, Control_c, 0, 64, 107
2, 50361, Control_c, 0, 64, 107
2, 50373, Note_on_c, 0, 52, 0
2, 50376, Control_c, 0, 64, 107
2, 50385, Note_on_c, 0, 61, 0
2, 50391, Note_on_c, 0, 67, 58
2, 50392, Control_c, 0, 64, 106
2, 50407, Control_c, 0, 64, 104
2, 50424, Control_c, 0, 64, 102
2, 50439, Control_c, 0, 64, 99
2, 50454, Control_c, 0, 64, 96
2, 50469, Control_c, 0, 64, 92
2, 50484, Control_c, 0, 64, 88
2, 50500, Control_c, 0, 64, 84
2, 50513, Note_on_c, 0, 67, 0
2, 50515, Control_c, 0, 64, 80
2, 50523, Note_on_c, 0, 50, 60
2, 50528, Note_on_c, 0, 62, 60
2, 50530, Control_c, 0, 64, 75
2, 50534, Note_on_c, 0, 44, 60
2, 50546, Control_c, 0, 64, 70
2, 50561, Control_c, 0, 64, 66
2, 50576, Control_c, 0, 64, 62
2, 50591, Control_c, 0, 64, 58
2, 50606, Control_c, 0, 64, 51
2, 50622, Control_c, 0, 64, 40
2, 50631, Note_on_c, 0, 62, 0
2, 50637, Control_c, 0, 64, 30
2, 50652, Control_c, 0, 64, 23
2, 50664, Note_on_c, 0, 59, 53
2, 50668, Control_c, 0, 64, 21
2, 50697, Control_c, 0, 64, 19
2, 50713, Control_c, 0, 64, 0
2, 50751, Note_on_c, 0, 59, 0
2, 50767, Note_on_c, 0, 65, 47
2, 50852, Note_on_c, 0, 52, 70
2, 50858, Note_on_c, 0, 65, 0
2, 50868, Note_on_c, 0, 62, 60
2, 50927, Note_on_c, 0, 50, 0
2, 50947, Note_on_c, 0, 62, 0
2, 50968, Note_on_c, 0, 61, 55
2, 51068, Note_on_c, 0, 61, 0
2, 51087, Note_on_c, 0, 65, 45
2, 51180, Note_on_c, 0, 65, 0
2, 51186, Note_on_c, 0, 53, 68
2, 51200, Note_on_c, 0, 62, 52
2, 51204, Note_on_c, 0, 52, 0
2, 51296, Note_on_c, 0, 62, 0
2, 51331, Note_on_c, 0, 59, 48
2, 51440, Note_on_c, 0, 59, 0
2, 51452, Note_on_c, 0, 65, 35
2, 51518, Note_on_c, 0, 65, 0
2, 51528, Note_on_c, 0, 45, 51
2, 51544, Note_on_c, 0, 62, 52
2, 51578, Note_on_c, 0, 44, 0
2, 51629, Note_on_c, 0, 62, 0
2, 51660, Note_on_c, 0, 57, 44
2, 51769, Note_on_c, 0, 57, 0
2, 51778, Note_on_c, 0, 65, 32
2, 51892, Note_on_c, 0, 52, 49
2, 51897, Note_on_c, 0, 61, 52
2, 51900, Note_on_c, 0, 46, 48
2, 51911, Note_on_c, 0, 65, 0
2, 51920, Note_on_c, 0, 53, 0
2, 51958, Note_on_c, 0, 45, 0
2, 52007, Note_on_c, 0, 61, 0
2, 52030, Note_on_c, 0, 55, 39
2, 52096, Note_on_c, 0, 55, 0
2, 52130, Note_on_c, 0, 64, 51
2, 52225, Note_on_c, 0, 64, 0
2, 52226, Note_on_c, 0, 55, 63
2, 52238, Note_on_c, 0, 61, 54
2, 52311, Note_on_c, 0, 52, 0
2, 52335, Note_on_c, 0, 61, 0
2, 52348, Note_on_c, 0, 58, 51
2, 52430, Note_on_c, 0, 58, 0
2, 52442, Note_on_c, 0, 64, 49
2, 52526, Note_on_c, 0, 64, 0
2, 52534, Note_on_c, 0, 53, 66
2, 52534, Note_on_c, 0, 61, 59
2, 52589, Note_on_c, 0, 55, 0
2, 52614, Note_on_c, 0, 61, 0
2, 52642, Note_on_c, 0, 57, 56
2, 52729, Note_on_c, 0, 57, 0
2, 52741, Note_on_c, 0, 64, 56
2, 52836, Note_on_c, 0, 64, 0
2, 52838, Note_on_c, 0, 52, 70
2, 52842, Note_on_c, 0, 61, 62
2, 52852, Note_on_c, 0, 53, 0
2, 52928, Note_on_c, 0, 61, 0
2, 52953, Note_on_c, 0, 55, 52
2, 53038, Note_on_c, 0, 55, 0
2, 53060, Note_on_c, 0, 64, 46
2, 53084, Note_on_c, 0, 46, 0
2, 53131, Note_on_c, 0, 64, 0
2, 53152, Note_on_c, 0, 47, 55
2, 53155, Note_on_c, 0, 53, 70
2, 53164, Note_on_c, 0, 59, 57
2, 53186, Note_on_c, 0, 52, 0
2, 53267, Note_on_c, 0, 59, 0
2, 53279, Note_on_c, 0, 56, 62
2, 53390, Note_on_c, 0, 56, 0
2, 53390, Note_on_c, 0, 62, 53
2, 53486, Note_on_c, 0, 62, 0
2, 53488, Note_on_c, 0, 52, 61
2, 53493, Note_on_c, 0, 61, 57
2, 53513, Note_on_c, 0, 53, 0
2, 53594, Note_on_c, 0, 56, 53
2, 53595, Note_on_c, 0, 61, 0
2, 53681, Note_on_c, 0, 56, 0
2, 53702, Note_on_c, 0, 64, 43
2, 53797, Note_on_c, 0, 53, 48
2, 53799, Note_on_c, 0, 62, 61
2, 53800, Note_on_c, 0, 52, 0
2, 53825, Note_on_c, 0, 64, 0
2, 53900, Note_on_c, 0, 62, 0
2, 53914, Note_on_c, 0, 56, 51
2, 54011, Note_on_c, 0, 65, 45
2, 54013, Note_on_c, 0, 56, 0
2, 54080, Note_on_c, 0, 47, 0
2, 54103, Note_on_c, 0, 46, 44
2, 54109, Note_on_c, 0, 65, 0
2, 54116, Note_on_c, 0, 55, 55
2, 54137, Note_on_c, 0, 53, 0
2, 54210, Note_on_c, 0, 52, 60
2, 54256, Note_on_c, 0, 46, 0
2, 54269, Note_on_c, 0, 55, 0
2, 54279, Note_on_c, 0, 52, 0
2, 54300, Note_on_c, 0, 50, 67
2, 54335, Note_on_c, 0, 50, 0
2, 54404, Note_on_c, 0, 49, 58
2, 54407, Note_on_c, 0, 45, 58
2, 54507, Note_on_c, 0, 52, 57
2, 54523, Note_on_c, 0, 49, 0
2, 54582, Note_on_c, 0, 52, 0
2, 54588, Note_on_c, 0, 55, 63
2, 54680, Note_on_c, 0, 55, 0
2, 54709, Note_on_c, 0, 61, 61
2, 54717, Note_on_c, 0, 52, 66
2, 54775, Note_on_c, 0, 61, 0
2, 54804, Note_on_c, 0, 55, 72
2, 54829, Note_on_c, 0, 52, 0
2, 54889, Note_on_c, 0, 55, 0
2, 54911, Note_on_c, 0, 61, 68
2, 55001, Note_on_c, 0, 61, 0
2, 55003, Note_on_c, 0, 55, 70
2, 55011, Note_on_c, 0, 64, 77
2, 55085, Note_on_c, 0, 64, 0
2, 55097, Note_on_c, 0, 61, 77
2, 55128, Note_on_c, 0, 55, 0
2, 55180, Note_on_c, 0, 61, 0
2, 55189, Note_on_c, 0, 64, 77
2, 55234, Note_on_c, 0, 64, 0
2, 55293, Note_on_c, 0, 67, 74
2, 55297, Note_on_c, 0, 58, 65
2, 55397, Note_on_c, 0, 49, 59
2, 55406, Note_on_c, 0, 45, 0
2, 55416, Note_on_c, 0, 58, 0
2, 55494, Note_on_c, 0, 52, 70
2, 55496, Note_on_c, 0, 49, 0
2, 55562, Note_on_c, 0, 67, 0
2, 55573, Note_on_c, 0, 52, 0
2, 55601, Note_on_c, 0, 57, 68
2, 55602, Note_on_c, 0, 65, 78
2, 55675, Note_on_c, 0, 65, 0
2, 55698, Note_on_c, 0, 62, 75
2, 55763, Note_on_c, 0, 62, 0
2, 55788, Note_on_c, 0, 65, 84
2, 55844, Note_on_c, 0, 65, 0
2, 55880, Note_on_c, 0, 62, 75
2, 55886, Note_on_c, 0, 69, 86
2, 55953, Note_on_c, 0, 69, 0
2, 55977, Note_on_c, 0, 65, 88
2, 55997, Note_on_c, 0, 62, 0
2, 56039, Note_on_c, 0, 65, 0
2, 56074, Note_on_c, 0, 69, 89
2, 56167, Note_on_c, 0, 69, 0
2, 56176, Note_on_c, 0, 65, 84
2, 56180, Note_on_c, 0, 74, 86
2, 56243, Note_on_c, 0, 74, 0
2, 56262, Control_c, 0, 64, 12
2, 56278, Control_c, 0, 64, 13
2, 56279, Note_on_c, 0, 69, 85
2, 56292, Control_c, 0, 64, 15
2, 56323, Control_c, 0, 64, 16
2, 56337, Note_on_c, 0, 69, 0
2, 56338, Control_c, 0, 64, 17
2, 56343, Note_on_c, 0, 65, 0
2, 56354, Control_c, 0, 64, 18
2, 56368, Control_c, 0, 64, 20
2, 56375, Note_on_c, 0, 74, 87
2, 56383, Control_c, 0, 64, 21
2, 56414, Control_c, 0, 64, 21
2, 56434, Note_on_c, 0, 74, 0
2, 56459, Control_c, 0, 64, 22
2, 56475, Control_c, 0, 64, 23
2, 56479, Note_on_c, 0, 77, 97
2, 56485, Note_on_c, 0, 69, 84
2, 56489, Control_c, 0, 64, 24
2, 56504, Control_c, 0, 64, 26
2, 56520, Control_c, 0, 64, 27
2, 56535, Control_c, 0, 64, 28
2, 56551, Control_c, 0, 64, 31
2, 56565, Control_c, 0, 64, 34
2, 56580, Control_c, 0, 64, 38
2, 56589, Note_on_c, 0, 62, 85
2, 56596, Control_c, 0, 64, 40
2, 56610, Note_on_c, 0, 57, 0
2, 56611, Control_c, 0, 64, 41
2, 56627, Control_c, 0, 64, 42
2, 56641, Control_c, 0, 64, 43
2, 56662, Note_on_c, 0, 69, 0
2, 56672, Control_c, 0, 64, 43
2, 56687, Control_c, 0, 64, 44
2, 56690, Note_on_c, 0, 65, 89
2, 56702, Note_on_c, 0, 62, 0
2, 56763, Control_c, 0, 64, 44
2, 56805, Note_on_c, 0, 65, 0
2, 56816, Note_on_c, 0, 68, 94
2, 56922, Note_on_c, 0, 77, 0
2, 56940, Note_on_c, 0, 71, 85
2, 56984, Control_c, 0, 64, 46
2, 56999, Control_c, 0, 64, 47
2, 57014, Control_c, 0, 64, 48
2, 57022, Note_on_c, 0, 71, 0
2, 57038, Note_on_c, 0, 74, 86
2, 57090, Control_c, 0, 64, 48
2, 57105, Control_c, 0, 64, 47
2, 57128, Note_on_c, 0, 77, 92
2, 57139, Note_on_c, 0, 74, 0
2, 57159, Note_on_c, 0, 68, 0
2, 57167, Control_c, 0, 64, 47
2, 57209, Note_on_c, 0, 77, 0
2, 57220, Note_on_c, 0, 74, 92
2, 57228, Control_c, 0, 64, 46
2, 57320, Note_on_c, 0, 77, 96
2, 57333, Control_c, 0, 64, 46
2, 57335, Note_on_c, 0, 74, 0
2, 57364, Control_c, 0, 64, 45
2, 57411, Note_on_c, 0, 80, 93
2, 57424, Control_c, 0, 64, 45
2, 57430, Note_on_c, 0, 77, 0
2, 57502, Note_on_c, 0, 80, 0
2, 57507, Note_on_c, 0, 77, 107
2, 57516, Control_c, 0, 64, 45
2, 57530, Control_c, 0, 64, 46
2, 57545, Control_c, 0, 64, 47
2, 57576, Control_c, 0, 64, 47
2, 57604, Note_on_c, 0, 80, 92
2, 57619, Note_on_c, 0, 77, 0
2, 57669, Note_on_c, 0, 80, 0
2, 57705, Control_c, 0, 64, 46
2, 57721, Control_c, 0, 64, 45
2, 57735, Control_c, 0, 64, 44
2, 57738, Note_on_c, 0, 83, 98
2, 57751, Control_c, 0, 64, 44
2, 57781, Control_c, 0, 64, 43
2, 57798, Control_c, 0, 64, 43
2, 57856, Note_on_c, 0, 80, 79
2, 57864, Note_on_c, 0, 83, 0
2, 57923, Note_on_c, 0, 80, 0
2, 57940, Note_on_c, 0, 77, 89
2, 58041, Note_on_c, 0, 77, 0
2, 58045, Note_on_c, 0, 82, 92
2, 58159, Note_on_c, 0, 79, 76
2, 58168, Note_on_c, 0, 82, 0
2, 58224, Note_on_c, 0, 79, 0
2, 58248, Note_on_c, 0, 76, 82
2, 58312, Note_on_c, 0, 76, 0
2, 58356, Note_on_c, 0, 81, 88
2, 58420, Control_c, 0, 64, 42
2, 58470, Note_on_c, 0, 78, 81
2, 58471, Note_on_c, 0, 81, 0
2, 58560, Note_on_c, 0, 75, 82
2, 58564, Note_on_c, 0, 78, 0
2, 58595, Control_c, 0, 64, 42
2, 58611, Control_c, 0, 64, 41
2, 58640, Note_on_c, 0, 75, 0
2, 58643, Control_c, 0, 64, 41
2, 58658, Control_c, 0, 64, 40
2, 58662, Note_on_c, 0, 80, 85
2, 58674, Control_c, 0, 64, 40
2, 58688, Control_c, 0, 64, 39
2, 58703, Control_c, 0, 64, 38
2, 58719, Control_c, 0, 64, 38
2, 58733, Control_c, 0, 64, 37
2, 58749, Control_c, 0, 64, 37
2, 58772, Note_on_c, 0, 77, 74
2, 58779, Control_c, 0, 64, 36
2, 58781, Note_on_c, 0, 80, 0
2, 58845, Note_on_c, 0, 77, 0
2, 58872, Note_on_c, 0, 74, 71
2, 58952, Note_on_c, 0, 74, 0
2, 58970, Note_on_c, 0, 79, 78
2, 59069, Note_on_c, 0, 76, 75
2, 59071, Note_on_c, 0, 79, 0
2, 59158, Note_on_c, 0, 73, 84
2, 59159, Note_on_c, 0, 76, 0
2, 59260, Note_on_c, 0, 73, 0
2, 59270, Note_on_c, 0, 78, 89
2, 59372, Note_on_c, 0, 75, 83
2, 59397, Note_on_c, 0, 78, 0
2, 59410, Control_c, 0, 64, 37
2, 59470, Note_on_c, 0, 72, 84
2, 59473, Note_on_c, 0, 75, 0
2, 59533, Note_on_c, 0, 72, 0
2, 59566, Note_on_c, 0, 77, 92
2, 59671, Note_on_c, 0, 74, 82
2, 59680, Note_on_c, 0, 77, 0
2, 59741, Note_on_c, 0, 74, 0
2, 59766, Note_on_c, 0, 71, 86
2, 59823, Note_on_c, 0, 71, 0
2, 59867, Note_on_c, 0, 76, 94
2, 59958, Control_c, 0, 64, 36
2, 59964, Note_on_c, 0, 73, 85
2, 59972, Note_on_c, 0, 76, 0
2, 60067, Note_on_c, 0, 70, 91
2, 60086, Note_on_c, 0, 73, 0
2, 60154, Note_on_c, 0, 70, 0
2, 60166, Note_on_c, 0, 75, 98
2, 60206, Control_c, 0, 64, 37
2, 60273, Note_on_c, 0, 72, 94
2, 60290, Note_on_c, 0, 75, 0
2, 60298, Control_c, 0, 64, 36
2, 60362, Note_on_c, 0, 72, 0
2, 60376, Note_on_c, 0, 69, 93
2, 60455, Note_on_c, 0, 69, 0
2, 60512, Note_on_c, 0, 74, 97
2, 60558, Control_c, 0, 64, 35
2, 60572, Control_c, 0, 64, 35
2, 60618, Control_c, 0, 64, 34
2, 60724, Control_c, 0, 64, 33
2, 60739, Control_c, 0, 64, 31
2, 60762, Control_c, 0, 64, 29
2, 60777, Control_c, 0, 64, 25
2, 60793, Control_c, 0, 64, 19
2, 60808, Control_c, 0, 64, 0
2, 61184, Note_on_c, 0, 71, 83
2, 61196, Note_on_c, 0, 62, 65
2, 61196, Note_on_c, 0, 68, 71
2, 61197, Note_on_c, 0, 65, 65
2, 61200, Note_on_c, 0, 50, 60
2, 61203, Note_on_c, 0, 47, 49
2, 61206, Note_on_c, 0, 53, 59
2, 61208, Note_on_c, 0, 56, 60
2, 61264, Control_c, 0, 64, 44
2, 61279, Control_c, 0, 64, 60
2, 61294, Control_c, 0, 64, 65
2, 61310, Control_c, 0, 64, 69
2, 61325, Control_c, 0, 64, 75
2, 61340, Control_c, 0, 64, 84
2, 61356, Control_c, 0, 64, 101
2, 61370, Control_c, 0, 64, 127
2, 61380, Note_on_c, 0, 56, 0
2, 61404, Note_on_c, 0, 47, 0
2, 61413, Note_on_c, 0, 62, 0
2, 61444, Note_on_c, 0, 53, 0
2, 61493, Note_on_c, 0, 50, 0
2, 61518, Note_on_c, 0, 71, 0
2, 61554, Note_on_c, 0, 68, 0
2, 61647, Note_on_c, 0, 65, 0
2, 61899, Note_on_c, 0, 65, 64
2, 61899, Note_on_c, 0, 69, 78
2, 61905, Note_on_c, 0, 45, 58
2, 61909, Note_on_c, 0, 50, 57
2, 61913, Note_on_c, 0, 62, 59
2, 61914, Note_on_c, 0, 57, 53
2, 61916, Note_on_c, 0, 53, 52
2, 61926, Control_c, 0, 64, 85
2, 61941, Control_c, 0, 64, 62
2, 61957, Control_c, 0, 64, 0
2, 62078, Control_c, 0, 64, 42
2, 62093, Control_c, 0, 64, 53
2, 62109, Control_c, 0, 64, 57
2, 62123, Control_c, 0, 64, 60
2, 62138, Control_c, 0, 64, 63
2, 62154, Control_c, 0, 64, 65
2, 62163, Note_on_c, 0, 53, 0
2, 62169, Control_c, 0, 64, 69
2, 62184, Control_c, 0, 64, 75
2, 62199, Control_c, 0, 64, 85
2, 62214, Control_c, 0, 64, 100
2, 62230, Control_c, 0, 64, 127
2, 62277, Note_on_c, 0, 65, 0
2, 62302, Note_on_c, 0, 50, 0
2, 62364, Note_on_c, 0, 62, 0
2, 62700, Note_on_c, 0, 73, 86
2, 62710, Control_c, 0, 64, 94
2, 62710, Note_on_c, 0, 67, 61
2, 62713, Note_on_c, 0, 64, 61
2, 62715, Note_on_c, 0, 52, 56
2, 62719, Note_on_c, 0, 74, 0
2, 62725, Control_c, 0, 64, 66
2, 62740, Control_c, 0, 64, 0
2, 62891, Control_c, 0, 64, 35
2, 62907, Control_c, 0, 64, 55
2, 62922, Control_c, 0, 64, 62
2, 62937, Control_c, 0, 64, 65
2, 62953, Control_c, 0, 64, 69
2, 62967, Control_c, 0, 64, 76
2, 62982, Control_c, 0, 64, 85
2, 62990, Note_on_c, 0, 57, 0
2, 62998, Control_c, 0, 64, 105
2, 63013, Control_c, 0, 64, 127
2, 63043, Note_on_c, 0, 45, 0
2, 63061, Note_on_c, 0, 52, 0
2, 63153, Note_on_c, 0, 64, 0
2, 63210, Note_on_c, 0, 67, 0
2, 63279, Note_on_c, 0, 69, 0
2, 63352, Note_on_c, 0, 73, 0
2, 63806, Note_on_c, 0, 74, 81
2, 63813, Note_on_c, 0, 66, 62
2, 63813, Note_on_c, 0, 69, 63
2, 63816, Note_on_c, 0, 62, 64
2, 63818, Note_on_c, 0, 38, 58
2, 63818, Note_on_c, 0, 50, 56
2, 63850, Control_c, 0, 64, 83
2, 63865, Control_c, 0, 64, 63
2, 63880, Control_c, 0, 64, 39
2, 63895, Control_c, 0, 64, 0
2, 64062, Control_c, 0, 64, 17
2, 64078, Control_c, 0, 64, 40
2, 64092, Control_c, 0, 64, 49
2, 64108, Control_c, 0, 64, 54
2, 64123, Control_c, 0, 64, 59
2, 64137, Control_c, 0, 64, 62
2, 64153, Control_c, 0, 64, 64
2, 64168, Control_c, 0, 64, 68
2, 64183, Control_c, 0, 64, 74
2, 64199, Control_c, 0, 64, 86
2, 64214, Control_c, 0, 64, 104
2, 64230, Control_c, 0, 64, 127
2, 64446, Note_on_c, 0, 74, 0
2, 64482, Note_on_c, 0, 38, 0
2, 64492, Note_on_c, 0, 50, 0
2, 64697, Note_on_c, 0, 69, 0
2, 64752, Note_on_c, 0, 62, 0
2, 64852, Note_on_c, 0, 66, 0
2, 65780, Control_c, 0, 64, 116
2, 65796, Control_c, 0, 64, 113
2, 65811, Control_c, 0, 64, 111
2, 65825, Control_c, 0, 64, 109
2, 65841, Control_c, 0, 64, 106
2, 65856, Control_c, 0, 64, 101
2, 65872, Control_c, 0, 64, 98
2, 65887, Control_c, 0, 64, 97
2, 65901, Control_c, 0, 64, 97
2, 65932, Control_c, 0, 64, 95
2, 65948, Control_c, 0, 64, 92
2, 65963, Control_c, 0, 64, 89
2, 65978, Control_c, 0, 64, 88
2, 66009, Control_c, 0, 64, 87
2, 66024, Control_c, 0, 64, 87
2, 66040, Control_c, 0, 64, 84
2, 66054, Control_c, 0, 64, 80
2, 66070, Control_c, 0, 64, 77
2, 66085, Control_c, 0, 64, 76
2, 66100, Control_c, 0, 64, 76
2, 66116, Control_c, 0, 64, 75
2, 66138, Control_c, 0, 64, 75
2, 66154, Control_c, 0, 64, 74
2, 66169, Control_c, 0, 64, 73
2, 66183, Control_c, 0, 64, 72
2, 66199, Control_c, 0, 64, 71
2, 66214, Control_c, 0, 64, 70
2, 66230, Control_c, 0, 64, 68
2, 66245, Control_c, 0, 64, 67
2, 66259, Control_c, 0, 64, 66
2, 66275, Control_c, 0, 64, 65
2, 66290, Control_c, 0, 64, 65
2, 66305, Control_c, 0, 64, 64
2, 66366, Control_c, 0, 64, 64
2, 66397, Control_c, 0, 64, 63
2, 66412, Control_c, 0, 64, 63
2, 66534, Control_c, 0, 64, 62
2, 66853, Control_c, 0, 64, 63
2, 67438, Control_c, 0, 64, 63
2, 67887, Control_c, 0, 64, 63
2, 68403, Control_c, 0, 64, 62
2, 68959, Control_c, 0, 64, 62
2, 69188, Control_c, 0, 64, 61
2, 69515, Control_c, 0, 64, 62
2, 70080, Note_on_c, 0, 62, 39
2, 70252, Control_c, 0, 64, 61
2, 70500, Note_on_c, 0, 64, 46
2, 70579, Note_on_c, 0, 62, 0
2, 70776, Control_c, 0, 64, 61
2, 70821, Control_c, 0, 64, 60
2, 70868, Control_c, 0, 64, 60
2, 70882, Control_c, 0, 64, 59
2, 70899, Control_c, 0, 64, 58
2, 70901, Note_on_c, 0, 65, 52
2, 70914, Control_c, 0, 64, 58
2, 70959, Control_c, 0, 64, 57
2, 70974, Control_c, 0, 64, 56
2, 70989, Control_c, 0, 64, 55
2, 71004, Control_c, 0, 64, 54
2, 71031, Note_on_c, 0, 64, 0
2, 71035, Control_c, 0, 64, 54
2, 71050, Control_c, 0, 64, 53
2, 71065, Control_c, 0, 64, 50
2, 71081, Control_c, 0, 64, 48
2, 71096, Control_c, 0, 64, 47
2, 71171, Control_c, 0, 64, 46
2, 71217, Control_c, 0, 64, 46
2, 71247, Control_c, 0, 64, 45
2, 71262, Control_c, 0, 64, 44
2, 71278, Control_c, 0, 64, 44
2, 71292, Note_on_c, 0, 67, 52
2, 71308, Control_c, 0, 64, 43
2, 71323, Control_c, 0, 64, 43
2, 71338, Control_c, 0, 64, 42
2, 71338, Note_on_c, 0, 65, 0
2, 71354, Control_c, 0, 64, 41
2, 71369, Control_c, 0, 64, 41
2, 71543, Control_c, 0, 64, 41
2, 71559, Control_c, 0, 64, 42
2, 71574, Control_c, 0, 64, 43
2, 71589, Control_c, 0, 64, 43
2, 71619, Control_c, 0, 64, 44
2, 71635, Control_c, 0, 64, 44
2, 71664, Control_c, 0, 64, 45
2, 71680, Control_c, 0, 64, 45
2, 71683, Note_on_c, 0, 64, 50
2, 71701, Note_on_c, 0, 67, 0
2, 71788, Control_c, 0, 64, 46
2, 71863, Control_c, 0, 64, 46
2, 71894, Control_c, 0, 64, 47
2, 71924, Note_on_c, 0, 64, 0
2, 72041, Note_on_c, 0, 65, 48
2, 72203, Note_on_c, 0, 65, 0
2, 72222, Note_on_c, 0, 62, 48
2, 72399, Note_on_c, 0, 62, 0
2, 72404, Note_on_c, 0, 61, 54
2, 72448, Control_c, 0, 64, 47
2, 72558, Note_on_c, 0, 62, 55
2, 72564, Note_on_c, 0, 61, 0
2, 72647, Control_c, 0, 64, 48
2, 72652, Note_on_c, 0, 62, 0
2, 72762, Note_on_c, 0, 70, 54
2, 73126, Control_c, 0, 64, 48
2, 73183, Note_on_c, 0, 70, 0
2, 73232, Control_c, 0, 64, 48
2, 73476, Control_c, 0, 64, 48
2, 73509, Note_on_c, 0, 69, 42
2, 73576, Note_on_c, 0, 69, 0
2, 73585, Note_on_c, 0, 67, 59
2, 73648, Note_on_c, 0, 67, 0
2, 73664, Note_on_c, 0, 69, 61
2, 73734, Note_on_c, 0, 69, 0
2, 73758, Note_on_c, 0, 67, 60
2, 73805, Note_on_c, 0, 67, 0
2, 73842, Note_on_c, 0, 69, 58
2, 73902, Note_on_c, 0, 69, 0
2, 73924, Note_on_c, 0, 67, 58
2, 73992, Note_on_c, 0, 67, 0
2, 74016, Note_on_c, 0, 65, 55
2, 74086, Note_on_c, 0, 65, 0
2, 74089, Note_on_c, 0, 67, 52
2, 74191, Note_on_c, 0, 67, 0
2, 74206, Note_on_c, 0, 69, 54
2, 74591, Note_on_c, 0, 57, 48
2, 74952, Note_on_c, 0, 59, 58
2, 75036, Note_on_c, 0, 57, 0
2, 75043, Control_c, 0, 64, 48
2, 75120, Note_on_c, 0, 67, 50
2, 75240, Note_on_c, 0, 69, 0
2, 75293, Note_on_c, 0, 60, 56
2, 75294, Note_on_c, 0, 67, 0
2, 75303, Note_on_c, 0, 65, 47
2, 75354, Control_c, 0, 64, 47
2, 75398, Note_on_c, 0, 59, 0
2, 75438, Note_on_c, 0, 65, 0
2, 75474, Note_on_c, 0, 64, 42
2, 75642, Note_on_c, 0, 64, 0
2, 75653, Note_on_c, 0, 67, 56
2, 75660, Note_on_c, 0, 62, 56
2, 75741, Note_on_c, 0, 60, 0
2, 75810, Note_on_c, 0, 67, 0
2, 75811, Note_on_c, 0, 65, 56
2, 75997, Note_on_c, 0, 65, 0
2, 76014, Note_on_c, 0, 59, 57
2, 76015, Note_on_c, 0, 64, 49
2, 76054, Note_on_c, 0, 62, 0
2, 76196, Note_on_c, 0, 62, 50
2, 76223, Note_on_c, 0, 64, 0
2, 76367, Note_on_c, 0, 62, 0
2, 76383, Note_on_c, 0, 59, 0
2, 76383, Note_on_c, 0, 60, 55
2, 76385, Note_on_c, 0, 64, 49
2, 76542, Note_on_c, 0, 57, 60
2, 76572, Note_on_c, 0, 60, 0
2, 76623, Control_c, 0, 64, 48
2, 76718, Note_on_c, 0, 56, 64
2, 76720, Note_on_c, 0, 64, 0
2, 76722, Note_on_c, 0, 72, 63
2, 76731, Note_on_c, 0, 57, 0
2, 76841, Note_on_c, 0, 56, 0
2, 76875, Note_on_c, 0, 57, 71
2, 76904, Control_c, 0, 64, 48
2, 76944, Note_on_c, 0, 57, 0
2, 76997, Control_c, 0, 64, 49
2, 77042, Control_c, 0, 64, 49
2, 77082, Note_on_c, 0, 65, 68
2, 77239, Note_on_c, 0, 71, 56
2, 77275, Note_on_c, 0, 72, 0
2, 77299, Control_c, 0, 64, 50
2, 77357, Note_on_c, 0, 65, 0
2, 77406, Control_c, 0, 64, 51
2, 77421, Control_c, 0, 64, 52
2, 77424, Note_on_c, 0, 69, 57
2, 77424, Note_on_c, 0, 71, 0
2, 77437, Control_c, 0, 64, 54
2, 77452, Control_c, 0, 64, 55
2, 77468, Control_c, 0, 64, 56
2, 77483, Control_c, 0, 64, 58
2, 77498, Control_c, 0, 64, 61
2, 77514, Control_c, 0, 64, 63
2, 77529, Control_c, 0, 64, 65
2, 77543, Control_c, 0, 64, 67
2, 77559, Control_c, 0, 64, 69
2, 77574, Control_c, 0, 64, 71
2, 77590, Control_c, 0, 64, 73
2, 77596, Note_on_c, 0, 71, 57
2, 77605, Control_c, 0, 64, 74
2, 77639, Note_on_c, 0, 69, 0
2, 77657, Control_c, 0, 64, 74
2, 77694, Note_on_c, 0, 71, 0
2, 77703, Control_c, 0, 64, 73
2, 77719, Control_c, 0, 64, 72
2, 77733, Control_c, 0, 64, 71
2, 77749, Control_c, 0, 64, 68
2, 77764, Control_c, 0, 64, 65
2, 77768, Note_on_c, 0, 71, 54
2, 77777, Note_on_c, 0, 64, 39
2, 77779, Control_c, 0, 64, 61
2, 77795, Control_c, 0, 64, 58
2, 77810, Control_c, 0, 64, 56
2, 77824, Control_c, 0, 64, 55
2, 77840, Control_c, 0, 64, 54
2, 77849, Note_on_c, 0, 64, 0
2, 77854, Control_c, 0, 64, 52
2, 77855, Note_on_c, 0, 62, 57
2, 77870, Control_c, 0, 64, 52
2, 77885, Control_c, 0, 64, 51
2, 77896, Note_on_c, 0, 62, 0
2, 77915, Control_c, 0, 64, 52
2, 77923, Note_on_c, 0, 71, 0
2, 77928, Note_on_c, 0, 64, 52
2, 77936, Note_on_c, 0, 69, 59
2, 78008, Note_on_c, 0, 62, 53
2, 78008, Note_on_c, 0, 64, 0
2, 78037, Control_c, 0, 64, 52
2, 78060, Note_on_c, 0, 69, 0
2, 78079, Note_on_c, 0, 62, 0
2, 78085, Note_on_c, 0, 68, 59
2, 78094, Note_on_c, 0, 64, 51
2, 78128, Control_c, 0, 64, 53
2, 78148, Note_on_c, 0, 64, 0
2, 78159, Control_c, 0, 64, 53
2, 78171, Note_on_c, 0, 62, 47
2, 78174, Control_c, 0, 64, 54
2, 78189, Control_c, 0, 64, 55
2, 78204, Control_c, 0, 64, 56
2, 78219, Control_c, 0, 64, 58
2, 78230, Note_on_c, 0, 62, 0
2, 78235, Control_c, 0, 64, 60
2, 78248, Note_on_c, 0, 60, 55
2, 78250, Control_c, 0, 64, 62
2, 78251, Note_on_c, 0, 69, 68
2, 78265, Control_c, 0, 64, 63
2, 78281, Control_c, 0, 64, 64
2, 78287, Note_on_c, 0, 68, 0
2, 78296, Control_c, 0, 64, 65
2, 78312, Control_c, 0, 64, 66
2, 78327, Control_c, 0, 64, 67
2, 78327, Note_on_c, 0, 60, 0
2, 78341, Control_c, 0, 64, 66
2, 78341, Note_on_c, 0, 62, 57
2, 78372, Control_c, 0, 64, 66
2, 78372, Note_on_c, 0, 69, 0
2, 78388, Control_c, 0, 64, 65
2, 78403, Control_c, 0, 64, 64
2, 78423, Note_on_c, 0, 62, 0
2, 78424, Control_c, 0, 64, 62
2, 78434, Note_on_c, 0, 69, 68
2, 78438, Note_on_c, 0, 64, 56
2, 78440, Control_c, 0, 64, 60
2, 78455, Control_c, 0, 64, 58
2, 78471, Control_c, 0, 64, 55
2, 78486, Control_c, 0, 64, 53
2, 78500, Control_c, 0, 64, 51
2, 78516, Control_c, 0, 64, 50
2, 78562, Control_c, 0, 64, 49
2, 78611, Note_on_c, 0, 67, 70
2, 78623, Control_c, 0, 64, 50
2, 78669, Note_on_c, 0, 69, 0
2, 78762, Control_c, 0, 64, 50
2, 78777, Control_c, 0, 64, 51
2, 78791, Note_on_c, 0, 66, 73
2, 78799, Note_on_c, 0, 67, 0
2, 78808, Control_c, 0, 64, 51
2, 78838, Control_c, 0, 64, 52
2, 78869, Control_c, 0, 64, 53
2, 78884, Control_c, 0, 64, 53
2, 78899, Control_c, 0, 64, 54
2, 78914, Control_c, 0, 64, 54
2, 78929, Control_c, 0, 64, 55
2, 78945, Control_c, 0, 64, 55
2, 78948, Note_on_c, 0, 67, 73
2, 78959, Control_c, 0, 64, 56
2, 78974, Control_c, 0, 64, 57
2, 78990, Control_c, 0, 64, 57
2, 79004, Note_on_c, 0, 66, 0
2, 79097, Control_c, 0, 64, 57
2, 79113, Control_c, 0, 64, 56
2, 79127, Note_on_c, 0, 67, 0
2, 79136, Note_on_c, 0, 76, 66
2, 79143, Control_c, 0, 64, 55
2, 79158, Control_c, 0, 64, 55
2, 79211, Control_c, 0, 64, 54
2, 79227, Control_c, 0, 64, 54
2, 79242, Control_c, 0, 64, 53
2, 79303, Control_c, 0, 64, 53
2, 79321, Note_on_c, 0, 62, 47
2, 79333, Control_c, 0, 64, 52
2, 79346, Note_on_c, 0, 64, 0
2, 79363, Control_c, 0, 64, 52
2, 79394, Control_c, 0, 64, 51
2, 79408, Control_c, 0, 64, 50
2, 79430, Note_on_c, 0, 76, 0
2, 79470, Control_c, 0, 64, 49
2, 79477, Note_on_c, 0, 61, 48
2, 79478, Note_on_c, 0, 62, 0
2, 79499, Control_c, 0, 64, 49
2, 79515, Control_c, 0, 64, 48
2, 79530, Control_c, 0, 64, 48
2, 79546, Control_c, 0, 64, 47
2, 79606, Control_c, 0, 64, 47
2, 79631, Note_on_c, 0, 61, 0
2, 79643, Note_on_c, 0, 59, 52
2, 79652, Control_c, 0, 64, 46
2, 79668, Control_c, 0, 64, 46
2, 79822, Note_on_c, 0, 67, 62
2, 79835, Note_on_c, 0, 62, 48
2, 79859, Note_on_c, 0, 59, 0
2, 79995, Note_on_c, 0, 61, 51
2, 79997, Note_on_c, 0, 62, 0
2, 80173, Note_on_c, 0, 59, 50
2, 80177, Control_c, 0, 64, 46
2, 80186, Note_on_c, 0, 61, 0
2, 80223, Control_c, 0, 64, 47
2, 80298, Control_c, 0, 64, 47
2, 80324, Note_on_c, 0, 59, 0
2, 80335, Note_on_c, 0, 57, 46
2, 80390, Control_c, 0, 64, 48
2, 80558, Note_on_c, 0, 65, 44
2, 80563, Note_on_c, 0, 62, 36
2, 80575, Note_on_c, 0, 57, 0
2, 80596, Note_on_c, 0, 67, 0
2, 80633, Control_c, 0, 64, 48
2, 80777, Control_c, 0, 64, 49
2, 80913, Note_on_c, 0, 74, 49
2, 80915, Note_on_c, 0, 50, 50
2, 80946, Control_c, 0, 64, 49
2, 81127, Control_c, 0, 64, 50
2, 81256, Note_on_c, 0, 52, 61
2, 81381, Note_on_c, 0, 50, 0
2, 81402, Note_on_c, 0, 62, 0
2, 81447, Note_on_c, 0, 72, 49
2, 81488, Note_on_c, 0, 74, 0
2, 81498, Note_on_c, 0, 65, 0
2, 81615, Note_on_c, 0, 53, 65
2, 81635, Note_on_c, 0, 70, 52
2, 81641, Note_on_c, 0, 72, 0
2, 81730, Note_on_c, 0, 52, 0
2, 81773, Note_on_c, 0, 70, 0
2, 81790, Note_on_c, 0, 69, 50
2, 81878, Control_c, 0, 64, 49
2, 81893, Control_c, 0, 64, 48
2, 81909, Control_c, 0, 64, 47
2, 81924, Control_c, 0, 64, 45
2, 81939, Control_c, 0, 64, 43
2, 81955, Control_c, 0, 64, 40
2, 81959, Note_on_c, 0, 69, 0
2, 81965, Note_on_c, 0, 55, 56
2, 81970, Control_c, 0, 64, 34
2, 81975, Note_on_c, 0, 72, 56
2, 81986, Control_c, 0, 64, 28
2, 82001, Control_c, 0, 64, 25
2, 82015, Control_c, 0, 64, 21
2, 82031, Control_c, 0, 64, 16
2, 82040, Note_on_c, 0, 53, 0
2, 82046, Control_c, 0, 64, 0
2, 82132, Note_on_c, 0, 72, 0
2, 82142, Note_on_c, 0, 70, 46
2, 82323, Note_on_c, 0, 52, 58
2, 82332, Note_on_c, 0, 69, 49
2, 82338, Note_on_c, 0, 70, 0
2, 82407, Note_on_c, 0, 55, 0
2, 82484, Note_on_c, 0, 69, 0
2, 82499, Note_on_c, 0, 67, 39
2, 82677, Note_on_c, 0, 69, 56
2, 82691, Note_on_c, 0, 53, 46
2, 82718, Note_on_c, 0, 52, 0
2, 82728, Note_on_c, 0, 67, 0
2, 82861, Note_on_c, 0, 50, 59
2, 82890, Note_on_c, 0, 53, 0
2, 83029, Note_on_c, 0, 49, 58
2, 83035, Note_on_c, 0, 65, 63
2, 83051, Note_on_c, 0, 50, 0
2, 83200, Note_on_c, 0, 50, 72
2, 83213, Note_on_c, 0, 49, 0
2, 83231, Note_on_c, 0, 69, 0
2, 83247, Note_on_c, 0, 50, 0
2, 83337, Control_c, 0, 64, 9
2, 83353, Control_c, 0, 64, 11
2, 83368, Control_c, 0, 64, 12
2, 83380, Note_on_c, 0, 67, 60
2, 83383, Control_c, 0, 64, 13
2, 83397, Note_on_c, 0, 58, 67
2, 83459, Control_c, 0, 64, 15
2, 83489, Control_c, 0, 64, 16
2, 83504, Control_c, 0, 64, 17
2, 83520, Control_c, 0, 64, 18
2, 83534, Control_c, 0, 64, 20
2, 83550, Control_c, 0, 64, 22
2, 83561, Note_on_c, 0, 64, 54
2, 83565, Control_c, 0, 64, 23
2, 83580, Control_c, 0, 64, 24
2, 83595, Note_on_c, 0, 65, 0
2, 83596, Control_c, 0, 64, 26
2, 83610, Control_c, 0, 64, 26
2, 83625, Control_c, 0, 64, 27
2, 83641, Control_c, 0, 64, 28
2, 83656, Control_c, 0, 64, 29
2, 83672, Control_c, 0, 64, 30
2, 83686, Control_c, 0, 64, 30
2, 83696, Note_on_c, 0, 58, 0
2, 83701, Control_c, 0, 64, 31
2, 83717, Control_c, 0, 64, 32
2, 83732, Note_on_c, 0, 64, 0
2, 83752, Note_on_c, 0, 62, 45
2, 83831, Control_c, 0, 64, 32
2, 83877, Control_c, 0, 64, 33
2, 83898, Note_on_c, 0, 62, 0
2, 83903, Note_on_c, 0, 64, 50
2, 83997, Note_on_c, 0, 64, 0
2, 84030, Control_c, 0, 64, 33
2, 84084, Note_on_c, 0, 57, 50
2, 84090, Note_on_c, 0, 64, 48
2, 84164, Note_on_c, 0, 57, 0
2, 84177, Note_on_c, 0, 55, 54
2, 84181, Control_c, 0, 64, 34
2, 84224, Note_on_c, 0, 55, 0
2, 84228, Note_on_c, 0, 64, 0
2, 84249, Note_on_c, 0, 62, 53
2, 84255, Note_on_c, 0, 57, 56
2, 84257, Control_c, 0, 64, 34
2, 84309, Note_on_c, 0, 57, 0
2, 84331, Note_on_c, 0, 55, 51
2, 84377, Note_on_c, 0, 55, 0
2, 84383, Note_on_c, 0, 62, 0
2, 84407, Note_on_c, 0, 57, 53
2, 84422, Note_on_c, 0, 61, 39
2, 84424, Control_c, 0, 64, 35
2, 84450, Note_on_c, 0, 57, 0
2, 84478, Note_on_c, 0, 55, 45
2, 84485, Control_c, 0, 64, 35
2, 84522, Note_on_c, 0, 61, 0
2, 84535, Note_on_c, 0, 55, 0
2, 84567, Note_on_c, 0, 53, 51
2, 84595, Note_on_c, 0, 62, 51
2, 84610, Note_on_c, 0, 53, 0
2, 84643, Note_on_c, 0, 55, 50
2, 84735, Note_on_c, 0, 62, 0
2, 84757, Note_on_c, 0, 57, 44
2, 84767, Note_on_c, 0, 61, 43
2, 84795, Note_on_c, 0, 55, 0
2, 84918, Control_c, 0, 64, 36
2, 84933, Control_c, 0, 64, 37
2, 84949, Control_c, 0, 64, 39
2, 84964, Control_c, 0, 64, 40
2, 84979, Control_c, 0, 64, 42
2, 84995, Control_c, 0, 64, 44
2, 85010, Control_c, 0, 64, 47
2, 85024, Control_c, 0, 64, 48
2, 85040, Control_c, 0, 64, 50
2, 85055, Control_c, 0, 64, 51
2, 85071, Control_c, 0, 64, 52
2, 85086, Control_c, 0, 64, 53
2, 85100, Control_c, 0, 64, 55
2, 85103, Note_on_c, 0, 64, 57
2, 85116, Control_c, 0, 64, 56
2, 85131, Control_c, 0, 64, 57
2, 85146, Control_c, 0, 64, 58
2, 85161, Control_c, 0, 64, 59
2, 85176, Control_c, 0, 64, 60
2, 85192, Control_c, 0, 64, 61
2, 85207, Control_c, 0, 64, 61
2, 85222, Control_c, 0, 64, 62
2, 85237, Control_c, 0, 64, 62
2, 85252, Control_c, 0, 64, 63
2, 85268, Control_c, 0, 64, 64
2, 85283, Control_c, 0, 64, 64
2, 85336, Control_c, 0, 64, 65
2, 85341, Note_on_c, 0, 61, 0
2, 85451, Note_on_c, 0, 65, 68
2, 85472, Note_on_c, 0, 62, 44
2, 85509, Note_on_c, 0, 64, 0
2, 85520, Note_on_c, 0, 67, 0
2, 85604, Note_on_c, 0, 55, 53
2, 85674, Note_on_c, 0, 57, 0
2, 85701, Control_c, 0, 64, 64
2, 85732, Control_c, 0, 64, 64
2, 85762, Control_c, 0, 64, 63
2, 85777, Control_c, 0, 64, 63
2, 85786, Note_on_c, 0, 67, 74
2, 85789, Note_on_c, 0, 62, 0
2, 85793, Control_c, 0, 64, 62
2, 85793, Note_on_c, 0, 53, 46
2, 85802, Note_on_c, 0, 64, 50
2, 85808, Control_c, 0, 64, 62
2, 85815, Note_on_c, 0, 65, 0
2, 85823, Control_c, 0, 64, 61
2, 85823, Note_on_c, 0, 55, 0
2, 85839, Control_c, 0, 64, 60
2, 85854, Control_c, 0, 64, 59
2, 85869, Control_c, 0, 64, 57
2, 85884, Control_c, 0, 64, 56
2, 85899, Control_c, 0, 64, 56
2, 85930, Control_c, 0, 64, 55
2, 85944, Control_c, 0, 64, 55
2, 85945, Note_on_c, 0, 52, 50
2, 85949, Note_on_c, 0, 53, 0
2, 85960, Control_c, 0, 64, 54
2, 85975, Control_c, 0, 64, 54
2, 85991, Control_c, 0, 64, 53
2, 86036, Control_c, 0, 64, 53
2, 86051, Control_c, 0, 64, 52
2, 86066, Control_c, 0, 64, 52
2, 86081, Control_c, 0, 64, 51
2, 86120, Control_c, 0, 64, 51
2, 86132, Note_on_c, 0, 55, 47
2, 86135, Control_c, 0, 64, 50
2, 86138, Note_on_c, 0, 69, 76
2, 86148, Note_on_c, 0, 61, 50
2, 86151, Control_c, 0, 64, 49
2, 86157, Note_on_c, 0, 52, 0
2, 86165, Control_c, 0, 64, 49
2, 86180, Control_c, 0, 64, 48
2, 86196, Control_c, 0, 64, 47
2, 86210, Control_c, 0, 64, 46
2, 86214, Note_on_c, 0, 64, 0
2, 86217, Note_on_c, 0, 67, 0
2, 86225, Control_c, 0, 64, 45
2, 86241, Control_c, 0, 64, 44
2, 86303, Note_on_c, 0, 55, 0
2, 86306, Note_on_c, 0, 53, 51
2, 86318, Control_c, 0, 64, 45
2, 86349, Control_c, 0, 64, 45
2, 86363, Control_c, 0, 64, 46
2, 86394, Control_c, 0, 64, 46
2, 86407, Note_on_c, 0, 61, 0
2, 86455, Control_c, 0, 64, 47
2, 86463, Note_on_c, 0, 65, 77
2, 86476, Note_on_c, 0, 62, 54
2, 86493, Note_on_c, 0, 52, 50
2, 86495, Note_on_c, 0, 69, 0
2, 86501, Note_on_c, 0, 53, 0
2, 86546, Control_c, 0, 64, 47
2, 86607, Control_c, 0, 64, 48
2, 86631, Note_on_c, 0, 52, 0
2, 86637, Control_c, 0, 64, 48
2, 86643, Note_on_c, 0, 50, 51
2, 86683, Control_c, 0, 64, 49
2, 86831, Note_on_c, 0, 55, 51
2, 86832, Note_on_c, 0, 70, 74
2, 86833, Note_on_c, 0, 65, 0
2, 86835, Control_c, 0, 64, 48
2, 86837, Note_on_c, 0, 50, 0
2, 86842, Note_on_c, 0, 63, 53
2, 86888, Note_on_c, 0, 62, 0
2, 86903, Control_c, 0, 64, 49
2, 86919, Control_c, 0, 64, 51
2, 86933, Control_c, 0, 64, 54
2, 86949, Control_c, 0, 64, 58
2, 86964, Control_c, 0, 64, 61
2, 86979, Control_c, 0, 64, 63
2, 86995, Control_c, 0, 64, 64
2, 87005, Note_on_c, 0, 67, 80
2, 87009, Control_c, 0, 64, 65
2, 87024, Control_c, 0, 64, 65
2, 87040, Control_c, 0, 64, 66
2, 87046, Note_on_c, 0, 63, 0
2, 87071, Control_c, 0, 64, 65
2, 87077, Note_on_c, 0, 55, 0
2, 87081, Note_on_c, 0, 70, 0
2, 87086, Control_c, 0, 64, 65
2, 87101, Control_c, 0, 64, 64
2, 87117, Control_c, 0, 64, 63
2, 87131, Control_c, 0, 64, 61
2, 87146, Control_c, 0, 64, 60
2, 87162, Control_c, 0, 64, 57
2, 87173, Note_on_c, 0, 66, 75
2, 87177, Control_c, 0, 64, 52
2, 87185, Note_on_c, 0, 67, 0
2, 87186, Note_on_c, 0, 58, 47
2, 87193, Control_c, 0, 64, 46
2, 87196, Note_on_c, 0, 62, 53
2, 87207, Control_c, 0, 64, 38
2, 87222, Control_c, 0, 64, 27
2, 87238, Control_c, 0, 64, 15
2, 87252, Control_c, 0, 64, 0
2, 87268, Control_c, 0, 64, 16
2, 87284, Control_c, 0, 64, 38
2, 87299, Control_c, 0, 64, 56
2, 87315, Control_c, 0, 64, 63
2, 87330, Control_c, 0, 64, 67
2, 87336, Note_on_c, 0, 67, 83
2, 87345, Control_c, 0, 64, 71
2, 87355, Note_on_c, 0, 66, 0
2, 87360, Control_c, 0, 64, 77
2, 87375, Control_c, 0, 64, 83
2, 87391, Control_c, 0, 64, 89
2, 87401, Note_on_c, 0, 62, 0
2, 87401, Note_on_c, 0, 67, 0
2, 87406, Control_c, 0, 64, 93
2, 87451, Control_c, 0, 64, 92
2, 87466, Control_c, 0, 64, 92
2, 87481, Control_c, 0, 64, 91
2, 87496, Control_c, 0, 64, 89
2, 87512, Control_c, 0, 64, 87
2, 87527, Control_c, 0, 64, 85
2, 87542, Control_c, 0, 64, 82
2, 87557, Control_c, 0, 64, 78
2, 87572, Control_c, 0, 64, 75
2, 87588, Control_c, 0, 64, 72
2, 87599, Note_on_c, 0, 68, 66
2, 87603, Control_c, 0, 64, 69
2, 87609, Note_on_c, 0, 75, 78
2, 87618, Control_c, 0, 64, 67
2, 87641, Control_c, 0, 64, 65
2, 87656, Control_c, 0, 64, 63
2, 87664, Note_on_c, 0, 68, 0
2, 87672, Control_c, 0, 64, 60
2, 87687, Control_c, 0, 64, 57
2, 87701, Control_c, 0, 64, 53
2, 87717, Control_c, 0, 64, 50
2, 87732, Control_c, 0, 64, 44
2, 87748, Control_c, 0, 64, 32
2, 87763, Control_c, 0, 64, 0
2, 87838, Control_c, 0, 64, 40
2, 87853, Control_c, 0, 64, 54
2, 87858, Note_on_c, 0, 57, 50
2, 87869, Control_c, 0, 64, 58
2, 87884, Control_c, 0, 64, 59
2, 87899, Control_c, 0, 64, 60
2, 87902, Note_on_c, 0, 58, 0
2, 87915, Control_c, 0, 64, 61
2, 87930, Control_c, 0, 64, 62
2, 87945, Control_c, 0, 64, 64
2, 87960, Control_c, 0, 64, 65
2, 87975, Control_c, 0, 64, 66
2, 87991, Control_c, 0, 64, 67
2, 88006, Control_c, 0, 64, 69
2, 88009, Note_on_c, 0, 55, 35
2, 88020, Control_c, 0, 64, 71
2, 88024, Note_on_c, 0, 57, 0
2, 88036, Control_c, 0, 64, 74
2, 88051, Control_c, 0, 64, 77
2, 88066, Control_c, 0, 64, 79
2, 88082, Control_c, 0, 64, 80
2, 88092, Note_on_c, 0, 75, 0
2, 88157, Note_on_c, 0, 57, 52
2, 88171, Note_on_c, 0, 55, 0
2, 88204, Control_c, 0, 64, 80
2, 88213, Note_on_c, 0, 57, 0
2, 88219, Control_c, 0, 64, 79
2, 88250, Control_c, 0, 64, 79
2, 88265, Control_c, 0, 64, 78
2, 88280, Control_c, 0, 64, 77
2, 88295, Control_c, 0, 64, 76
2, 88311, Control_c, 0, 64, 74
2, 88325, Control_c, 0, 64, 71
2, 88340, Control_c, 0, 64, 68
2, 88342, Note_on_c, 0, 74, 68
2, 88352, Note_on_c, 0, 57, 48
2, 88356, Control_c, 0, 64, 65
2, 88359, Note_on_c, 0, 64, 50
2, 88371, Control_c, 0, 64, 61
2, 88386, Control_c, 0, 64, 56
2, 88409, Control_c, 0, 64, 50
2, 88424, Control_c, 0, 64, 47
2, 88434, Note_on_c, 0, 74, 0
2, 88438, Note_on_c, 0, 73, 67
2, 88440, Control_c, 0, 64, 44
2, 88454, Control_c, 0, 64, 43
2, 88483, Note_on_c, 0, 57, 0
2, 88503, Note_on_c, 0, 55, 46
2, 88508, Note_on_c, 0, 73, 0
2, 88516, Note_on_c, 0, 74, 65
2, 88531, Control_c, 0, 64, 43
2, 88545, Control_c, 0, 64, 44
2, 88561, Control_c, 0, 64, 45
2, 88576, Control_c, 0, 64, 46
2, 88591, Note_on_c, 0, 74, 0
2, 88606, Note_on_c, 0, 73, 59
2, 88632, Note_on_c, 0, 55, 0
2, 88636, Control_c, 0, 64, 47
2, 88651, Control_c, 0, 64, 48
2, 88659, Note_on_c, 0, 53, 45
2, 88663, Note_on_c, 0, 73, 0
2, 88666, Control_c, 0, 64, 50
2, 88682, Control_c, 0, 64, 51
2, 88688, Note_on_c, 0, 74, 66
2, 88697, Control_c, 0, 64, 52
2, 88713, Control_c, 0, 64, 53
2, 88728, Control_c, 0, 64, 53
2, 88742, Control_c, 0, 64, 55
2, 88758, Control_c, 0, 64, 56
2, 88764, Note_on_c, 0, 74, 0
2, 88773, Control_c, 0, 64, 57
2, 88774, Note_on_c, 0, 73, 67
2, 88789, Control_c, 0, 64, 57
2, 88791, Note_on_c, 0, 53, 0
2, 88819, Note_on_c, 0, 55, 50
2, 88843, Note_on_c, 0, 73, 0
2, 88850, Note_on_c, 0, 71, 68
2, 88875, Note_on_c, 0, 55, 0
2, 88937, Note_on_c, 0, 73, 64
2, 88941, Note_on_c, 0, 71, 0
2, 88986, Control_c, 0, 64, 57
2, 89017, Control_c, 0, 64, 56
2, 89020, Note_on_c, 0, 55, 37
2, 89028, Note_on_c, 0, 73, 0
2, 89029, Note_on_c, 0, 64, 0
2, 89037, Note_on_c, 0, 74, 62
2, 89047, Control_c, 0, 64, 56
2, 89062, Control_c, 0, 64, 55
2, 89078, Control_c, 0, 64, 54
2, 89092, Control_c, 0, 64, 54
2, 89108, Control_c, 0, 64, 53
2, 89154, Control_c, 0, 64, 53
2, 89176, Control_c, 0, 64, 52
2, 89190, Note_on_c, 0, 55, 0
2, 89213, Note_on_c, 0, 53, 39
2, 89219, Note_on_c, 0, 69, 54
2, 89297, Control_c, 0, 64, 52
2, 89313, Control_c, 0, 64, 53
2, 89328, Control_c, 0, 64, 53
2, 89343, Control_c, 0, 64, 54
2, 89359, Control_c, 0, 64, 54
2, 89367, Note_on_c, 0, 69, 0
2, 89373, Control_c, 0, 64, 55
2, 89378, Note_on_c, 0, 52, 39
2, 89389, Control_c, 0, 64, 56
2, 89391, Note_on_c, 0, 53, 0
2, 89392, Note_on_c, 0, 67, 48
2, 89404, Control_c, 0, 64, 58
2, 89419, Control_c, 0, 64, 60
2, 89435, Control_c, 0, 64, 61
2, 89449, Control_c, 0, 64, 63
2, 89464, Control_c, 0, 64, 64
2, 89480, Control_c, 0, 64, 65
2, 89495, Control_c, 0, 64, 67
2, 89511, Control_c, 0, 64, 68
2, 89526, Control_c, 0, 64, 69
2, 89529, Note_on_c, 0, 74, 0
2, 89538, Note_on_c, 0, 52, 0
2, 89538, Note_on_c, 0, 53, 41
2, 89541, Control_c, 0, 64, 71
2, 89548, Note_on_c, 0, 67, 0
2, 89556, Control_c, 0, 64, 72
2, 89557, Note_on_c, 0, 69, 51
2, 89617, Control_c, 0, 64, 71
2, 89648, Control_c, 0, 64, 71
2, 89662, Control_c, 0, 64, 70
2, 89678, Control_c, 0, 64, 69
2, 89693, Control_c, 0, 64, 68
2, 89708, Control_c, 0, 64, 67
2, 89723, Control_c, 0, 64, 65
2, 89738, Note_on_c, 0, 69, 0
2, 89739, Control_c, 0, 64, 64
2, 89744, Note_on_c, 0, 57, 39
2, 89746, Note_on_c, 0, 74, 56
2, 89750, Note_on_c, 0, 65, 46
2, 89753, Note_on_c, 0, 53, 0
2, 89755, Control_c, 0, 64, 62
2, 89770, Control_c, 0, 64, 60
2, 89785, Control_c, 0, 64, 57
2, 89801, Control_c, 0, 64, 53
2, 89815, Control_c, 0, 64, 48
2, 89831, Control_c, 0, 64, 40
2, 89846, Control_c, 0, 64, 26
2, 89861, Control_c, 0, 64, 17
2, 89877, Control_c, 0, 64, 16
2, 89906, Control_c, 0, 64, 17
2, 89922, Control_c, 0, 64, 20
2, 89926, Note_on_c, 0, 55, 44
2, 89926, Note_on_c, 0, 57, 0
2, 89944, Control_c, 0, 64, 26
2, 89960, Control_c, 0, 64, 35
2, 89975, Control_c, 0, 64, 45
2, 89991, Control_c, 0, 64, 52
2, 90006, Control_c, 0, 64, 55
2, 90020, Control_c, 0, 64, 57
2, 90036, Control_c, 0, 64, 59
2, 90051, Control_c, 0, 64, 61
2, 90057, Note_on_c, 0, 55, 0
2, 90066, Control_c, 0, 64, 63
2, 90068, Note_on_c, 0, 74, 0
2, 90082, Control_c, 0, 64, 65
2, 90085, Note_on_c, 0, 53, 43
2, 90096, Control_c, 0, 64, 66
2, 90112, Control_c, 0, 64, 68
2, 90128, Control_c, 0, 64, 70
2, 90143, Control_c, 0, 64, 71
2, 90145, Note_on_c, 0, 65, 0
2, 90158, Control_c, 0, 64, 72
2, 90224, Note_on_c, 0, 53, 0
2, 90249, Note_on_c, 0, 55, 46
2, 90264, Control_c, 0, 64, 71
2, 90310, Control_c, 0, 64, 71
2, 90314, Note_on_c, 0, 55, 0
2, 90325, Control_c, 0, 64, 70
2, 90340, Control_c, 0, 64, 70
2, 90355, Control_c, 0, 64, 69
2, 90370, Control_c, 0, 64, 68
2, 90385, Control_c, 0, 64, 67
2, 90401, Control_c, 0, 64, 66
2, 90416, Control_c, 0, 64, 64
2, 90421, Note_on_c, 0, 72, 55
2, 90431, Control_c, 0, 64, 62
2, 90438, Note_on_c, 0, 55, 45
2, 90441, Note_on_c, 0, 62, 35
2, 90446, Control_c, 0, 64, 60
2, 90461, Control_c, 0, 64, 58
2, 90477, Control_c, 0, 64, 56
2, 90492, Control_c, 0, 64, 54
2, 90501, Note_on_c, 0, 72, 0
2, 90506, Control_c, 0, 64, 51
2, 90510, Note_on_c, 0, 71, 57
2, 90522, Control_c, 0, 64, 50
2, 90537, Control_c, 0, 64, 49
2, 90554, Control_c, 0, 64, 48
2, 90569, Control_c, 0, 64, 48
2, 90569, Note_on_c, 0, 55, 0
2, 90583, Control_c, 0, 64, 47
2, 90583, Note_on_c, 0, 71, 0
2, 90596, Note_on_c, 0, 72, 61
2, 90599, Control_c, 0, 64, 47
2, 90599, Note_on_c, 0, 53, 46
2, 90666, Note_on_c, 0, 72, 0
2, 90686, Note_on_c, 0, 71, 56
2, 90714, Control_c, 0, 64, 47
2, 90718, Note_on_c, 0, 53, 0
2, 90756, Note_on_c, 0, 71, 0
2, 90759, Control_c, 0, 64, 48
2, 90772, Note_on_c, 0, 52, 43
2, 90774, Control_c, 0, 64, 49
2, 90786, Note_on_c, 0, 72, 60
2, 90789, Control_c, 0, 64, 51
2, 90804, Control_c, 0, 64, 53
2, 90819, Control_c, 0, 64, 54
2, 90835, Control_c, 0, 64, 55
2, 90846, Note_on_c, 0, 72, 0
2, 90850, Control_c, 0, 64, 56
2, 90864, Control_c, 0, 64, 57
2, 90870, Note_on_c, 0, 71, 54
2, 90912, Note_on_c, 0, 52, 0
2, 90929, Note_on_c, 0, 53, 41
2, 90930, Note_on_c, 0, 71, 0
2, 90948, Note_on_c, 0, 69, 57
2, 90978, Note_on_c, 0, 53, 0
2, 91015, Note_on_c, 0, 69, 0
2, 91026, Note_on_c, 0, 71, 55
2, 91048, Control_c, 0, 64, 56
2, 91078, Control_c, 0, 64, 56
2, 91093, Control_c, 0, 64, 55
2, 91101, Note_on_c, 0, 71, 0
2, 91122, Note_on_c, 0, 53, 38
2, 91123, Control_c, 0, 64, 55
2, 91128, Note_on_c, 0, 72, 57
2, 91138, Control_c, 0, 64, 54
2, 91154, Control_c, 0, 64, 53
2, 91169, Control_c, 0, 64, 52
2, 91184, Control_c, 0, 64, 52
2, 91214, Control_c, 0, 64, 51
2, 91245, Control_c, 0, 64, 50
2, 91255, Note_on_c, 0, 62, 0
2, 91290, Control_c, 0, 64, 51
2, 91290, Note_on_c, 0, 67, 42
2, 91293, Note_on_c, 0, 52, 44
2, 91301, Note_on_c, 0, 53, 0
2, 91305, Control_c, 0, 64, 51
2, 91320, Control_c, 0, 64, 52
2, 91335, Control_c, 0, 64, 52
2, 91351, Control_c, 0, 64, 54
2, 91366, Control_c, 0, 64, 56
2, 91382, Control_c, 0, 64, 57
2, 91398, Control_c, 0, 64, 59
2, 91413, Control_c, 0, 64, 60
2, 91428, Control_c, 0, 64, 61
2, 91443, Control_c, 0, 64, 62
2, 91450, Note_on_c, 0, 52, 0
2, 91450, Note_on_c, 0, 67, 0
2, 91458, Control_c, 0, 64, 63
2, 91480, Note_on_c, 0, 50, 39
2, 91482, Control_c, 0, 64, 64
2, 91485, Note_on_c, 0, 65, 40
2, 91497, Control_c, 0, 64, 65
2, 91512, Control_c, 0, 64, 65
2, 91527, Control_c, 0, 64, 66
2, 91542, Control_c, 0, 64, 67
2, 91558, Control_c, 0, 64, 67
2, 91588, Control_c, 0, 64, 68
2, 91603, Control_c, 0, 64, 68
2, 91618, Control_c, 0, 64, 69
2, 91626, Note_on_c, 0, 65, 0
2, 91633, Control_c, 0, 64, 69
2, 91645, Note_on_c, 0, 52, 39
2, 91648, Control_c, 0, 64, 70
2, 91649, Note_on_c, 0, 67, 50
2, 91649, Note_on_c, 0, 72, 0
2, 91650, Note_on_c, 0, 50, 0
2, 91711, Control_c, 0, 64, 69
2, 91742, Control_c, 0, 64, 69
2, 91757, Control_c, 0, 64, 68
2, 91772, Control_c, 0, 64, 67
2, 91788, Control_c, 0, 64, 66
2, 91802, Control_c, 0, 64, 65
2, 91817, Control_c, 0, 64, 64
2, 91833, Control_c, 0, 64, 63
2, 91837, Note_on_c, 0, 67, 0
2, 91848, Control_c, 0, 64, 61
2, 91848, Note_on_c, 0, 72, 55
2, 91854, Note_on_c, 0, 55, 38
2, 91857, Note_on_c, 0, 52, 0
2, 91857, Note_on_c, 0, 63, 37
2, 91864, Control_c, 0, 64, 59
2, 91879, Control_c, 0, 64, 56
2, 91894, Control_c, 0, 64, 52
2, 91910, Control_c, 0, 64, 49
2, 91924, Control_c, 0, 64, 46
2, 91939, Control_c, 0, 64, 44
2, 91955, Control_c, 0, 64, 44
2, 91985, Control_c, 0, 64, 44
2, 92000, Control_c, 0, 64, 45
2, 92015, Control_c, 0, 64, 47
2, 92019, Note_on_c, 0, 55, 0
2, 92030, Note_on_c, 0, 53, 39
2, 92031, Control_c, 0, 64, 50
2, 92045, Control_c, 0, 64, 56
2, 92061, Control_c, 0, 64, 59
2, 92076, Control_c, 0, 64, 61
2, 92091, Control_c, 0, 64, 63
2, 92107, Control_c, 0, 64, 64
2, 92121, Control_c, 0, 64, 65
2, 92133, Note_on_c, 0, 72, 0
2, 92136, Control_c, 0, 64, 67
2, 92152, Control_c, 0, 64, 69
2, 92166, Control_c, 0, 64, 70
2, 92182, Control_c, 0, 64, 72
2, 92190, Note_on_c, 0, 51, 51
2, 92197, Note_on_c, 0, 53, 0
2, 92199, Control_c, 0, 64, 74
2, 92213, Control_c, 0, 64, 77
2, 92214, Note_on_c, 0, 63, 0
2, 92229, Control_c, 0, 64, 79
2, 92252, Control_c, 0, 64, 80
2, 92268, Control_c, 0, 64, 81
2, 92282, Control_c, 0, 64, 81
2, 92356, Note_on_c, 0, 51, 0
2, 92358, Control_c, 0, 64, 81
2, 92368, Note_on_c, 0, 53, 48
2, 92389, Control_c, 0, 64, 80
2, 92403, Control_c, 0, 64, 80
2, 92412, Note_on_c, 0, 53, 0
2, 92418, Control_c, 0, 64, 79
2, 92434, Control_c, 0, 64, 78
2, 92449, Control_c, 0, 64, 76
2, 92465, Control_c, 0, 64, 73
2, 92479, Control_c, 0, 64, 71
2, 92494, Control_c, 0, 64, 69
2, 92510, Control_c, 0, 64, 67
2, 92525, Control_c, 0, 64, 65
2, 92541, Control_c, 0, 64, 63
2, 92554, Note_on_c, 0, 70, 49
2, 92555, Control_c, 0, 64, 61
2, 92562, Note_on_c, 0, 60, 28
2, 92563, Note_on_c, 0, 53, 43
2, 92570, Control_c, 0, 64, 59
2, 92586, Control_c, 0, 64, 58
2, 92601, Control_c, 0, 64, 57
2, 92615, Control_c, 0, 64, 56
2, 92623, Note_on_c, 0, 69, 65
2, 92629, Note_on_c, 0, 70, 0
2, 92631, Control_c, 0, 64, 55
2, 92662, Note_on_c, 0, 53, 0
2, 92692, Control_c, 0, 64, 55
2, 92707, Note_on_c, 0, 69, 0
2, 92710, Note_on_c, 0, 70, 65
2, 92719, Note_on_c, 0, 51, 43
2, 92784, Control_c, 0, 64, 55
2, 92790, Note_on_c, 0, 70, 0
2, 92794, Note_on_c, 0, 69, 61
2, 92844, Control_c, 0, 64, 56
2, 92846, Note_on_c, 0, 51, 0
2, 92867, Note_on_c, 0, 69, 0
2, 92875, Control_c, 0, 64, 56
2, 92875, Note_on_c, 0, 70, 70
2, 92876, Note_on_c, 0, 50, 44
2, 92920, Control_c, 0, 64, 57
2, 92950, Note_on_c, 0, 70, 0
2, 92951, Control_c, 0, 64, 57
2, 92955, Note_on_c, 0, 69, 61
2, 92981, Control_c, 0, 64, 58
2, 93032, Note_on_c, 0, 50, 0
2, 93038, Note_on_c, 0, 51, 49
2, 93043, Note_on_c, 0, 69, 0
2, 93059, Note_on_c, 0, 67, 62
2, 93088, Note_on_c, 0, 51, 0
2, 93126, Control_c, 0, 64, 57
2, 93127, Note_on_c, 0, 69, 60
2, 93133, Note_on_c, 0, 67, 0
2, 93172, Control_c, 0, 64, 57
2, 93188, Control_c, 0, 64, 56
2, 93198, Note_on_c, 0, 60, 0
2, 93218, Note_on_c, 0, 69, 0
2, 93225, Note_on_c, 0, 70, 70
2, 93244, Note_on_c, 0, 51, 50
2, 93353, Control_c, 0, 64, 57
2, 93386, Note_on_c, 0, 50, 66
2, 93391, Note_on_c, 0, 51, 0
2, 93444, Control_c, 0, 64, 56
2, 93560, Note_on_c, 0, 49, 64
2, 93567, Note_on_c, 0, 69, 84
2, 93598, Note_on_c, 0, 50, 0
2, 93655, Control_c, 0, 64, 56
2, 93686, Control_c, 0, 64, 55
2, 93702, Control_c, 0, 64, 55
2, 93717, Control_c, 0, 64, 54
2, 93721, Note_on_c, 0, 50, 77
2, 93743, Note_on_c, 0, 49, 0
2, 93762, Control_c, 0, 64, 54
2, 93783, Note_on_c, 0, 50, 0
2, 93786, Control_c, 0, 64, 53
2, 93801, Control_c, 0, 64, 53
2, 93908, Control_c, 0, 64, 52
2, 93915, Note_on_c, 0, 67, 70
2, 93923, Control_c, 0, 64, 52
2, 93932, Note_on_c, 0, 58, 77
2, 93938, Control_c, 0, 64, 51
2, 93954, Control_c, 0, 64, 50
2, 93955, Note_on_c, 0, 69, 0
2, 93969, Control_c, 0, 64, 50
2, 94121, Control_c, 0, 64, 50
2, 94166, Control_c, 0, 64, 51
2, 94172, Note_on_c, 0, 58, 0
2, 94253, Note_on_c, 0, 67, 0
2, 94264, Note_on_c, 0, 65, 60
2, 94395, Control_c, 0, 64, 51
2, 94486, Control_c, 0, 64, 52
2, 94501, Control_c, 0, 64, 52
2, 94569, Control_c, 0, 64, 53
2, 94625, Note_on_c, 0, 64, 63
2, 94628, Note_on_c, 0, 65, 0
2, 94630, Control_c, 0, 64, 53
2, 94630, Note_on_c, 0, 57, 61
2, 94710, Note_on_c, 0, 57, 0
2, 94719, Note_on_c, 0, 55, 59
2, 94771, Note_on_c, 0, 55, 0
2, 94808, Note_on_c, 0, 57, 59
2, 94859, Note_on_c, 0, 57, 0
2, 94888, Note_on_c, 0, 55, 55
2, 94930, Note_on_c, 0, 55, 0
2, 94937, Note_on_c, 0, 67, 57
2, 94939, Note_on_c, 0, 64, 0
2, 94973, Note_on_c, 0, 57, 55
2, 95014, Note_on_c, 0, 57, 0
2, 95047, Note_on_c, 0, 55, 47
2, 95071, Control_c, 0, 64, 54
2, 95094, Note_on_c, 0, 55, 0
2, 95126, Note_on_c, 0, 53, 49
2, 95171, Note_on_c, 0, 53, 0
2, 95196, Note_on_c, 0, 55, 50
2, 95308, Note_on_c, 0, 61, 43
2, 95324, Note_on_c, 0, 67, 0
2, 95327, Note_on_c, 0, 57, 39
2, 95330, Note_on_c, 0, 55, 0
2, 95444, Control_c, 0, 64, 55
2, 95459, Control_c, 0, 64, 56
2, 95475, Control_c, 0, 64, 57
2, 95490, Control_c, 0, 64, 57
2, 95505, Control_c, 0, 64, 58
2, 95520, Control_c, 0, 64, 59
2, 95535, Control_c, 0, 64, 59
2, 95551, Control_c, 0, 64, 60
2, 95566, Control_c, 0, 64, 61
2, 95580, Control_c, 0, 64, 61
2, 95596, Control_c, 0, 64, 62
2, 95627, Control_c, 0, 64, 62
2, 95642, Control_c, 0, 64, 63
2, 95656, Control_c, 0, 64, 63
2, 95671, Note_on_c, 0, 69, 64
2, 95672, Control_c, 0, 64, 64
2, 95686, Note_on_c, 0, 70, 0
2, 95687, Control_c, 0, 64, 65
2, 95702, Control_c, 0, 64, 65
2, 95717, Control_c, 0, 64, 67
2, 95732, Control_c, 0, 64, 68
2, 95748, Control_c, 0, 64, 70
2, 95763, Control_c, 0, 64, 72
2, 95777, Control_c, 0, 64, 75
2, 95793, Control_c, 0, 64, 77
2, 95808, Control_c, 0, 64, 79
2, 95824, Control_c, 0, 64, 82
2, 95839, Control_c, 0, 64, 83
2, 95853, Control_c, 0, 64, 84
2, 95884, Control_c, 0, 64, 83
2, 95930, Control_c, 0, 64, 83
2, 95946, Control_c, 0, 64, 82
2, 95960, Control_c, 0, 64, 81
2, 95975, Control_c, 0, 64, 81
2, 95982, Note_on_c, 0, 61, 0
2, 95991, Control_c, 0, 64, 80
2, 96006, Control_c, 0, 64, 80
2, 96015, Note_on_c, 0, 71, 70
2, 96022, Control_c, 0, 64, 79
2, 96026, Note_on_c, 0, 62, 50
2, 96037, Control_c, 0, 64, 79
2, 96051, Control_c, 0, 64, 78
2, 96089, Control_c, 0, 64, 78
2, 96194, Note_on_c, 0, 55, 52
2, 96196, Control_c, 0, 64, 77
2, 96214, Note_on_c, 0, 62, 0
2, 96227, Control_c, 0, 64, 77
2, 96242, Control_c, 0, 64, 76
2, 96257, Control_c, 0, 64, 75
2, 96272, Control_c, 0, 64, 74
2, 96287, Control_c, 0, 64, 73
2, 96303, Control_c, 0, 64, 73
2, 96319, Note_on_c, 0, 57, 0
2, 96364, Control_c, 0, 64, 72
2, 96367, Note_on_c, 0, 73, 86
2, 96379, Note_on_c, 0, 64, 57
2, 96389, Note_on_c, 0, 53, 45
2, 96395, Control_c, 0, 64, 73
2, 96402, Note_on_c, 0, 55, 0
2, 96416, Note_on_c, 0, 71, 0
2, 96423, Note_on_c, 0, 69, 0
2, 96455, Control_c, 0, 64, 73
2, 96500, Control_c, 0, 64, 74
2, 96514, Note_on_c, 0, 53, 0
2, 96529, Note_on_c, 0, 52, 54
2, 96637, Control_c, 0, 64, 73
2, 96668, Control_c, 0, 64, 73
2, 96683, Control_c, 0, 64, 72
2, 96690, Note_on_c, 0, 57, 51
2, 96691, Note_on_c, 0, 55, 52
2, 96695, Note_on_c, 0, 52, 0
2, 96697, Control_c, 0, 64, 71
2, 96713, Control_c, 0, 64, 69
2, 96728, Control_c, 0, 64, 67
2, 96744, Control_c, 0, 64, 65
2, 96753, Note_on_c, 0, 74, 85
2, 96758, Control_c, 0, 64, 63
2, 96773, Control_c, 0, 64, 60
2, 96789, Control_c, 0, 64, 55
2, 96804, Control_c, 0, 64, 47
2, 96813, Note_on_c, 0, 73, 0
2, 96819, Control_c, 0, 64, 26
2, 96832, Note_on_c, 0, 64, 0
2, 96835, Control_c, 0, 64, 0
2, 96943, Note_on_c, 0, 53, 51
2, 96949, Note_on_c, 0, 55, 0
2, 97112, Note_on_c, 0, 71, 84
2, 97119, Note_on_c, 0, 53, 0
2, 97131, Note_on_c, 0, 52, 51
2, 97174, Note_on_c, 0, 74, 0
2, 97285, Note_on_c, 0, 52, 0
2, 97303, Note_on_c, 0, 50, 48
2, 97469, Note_on_c, 0, 52, 37
2, 97473, Note_on_c, 0, 50, 0
2, 97489, Note_on_c, 0, 73, 71
2, 97517, Note_on_c, 0, 57, 0
2, 97543, Note_on_c, 0, 71, 0
2, 97664, Note_on_c, 0, 69, 74
2, 97732, Note_on_c, 0, 73, 0
2, 97816, Note_on_c, 0, 52, 0
2, 97832, Note_on_c, 0, 64, 71
2, 97839, Note_on_c, 0, 68, 67
2, 97846, Note_on_c, 0, 49, 42
2, 97877, Note_on_c, 0, 69, 0
2, 97931, Control_c, 0, 64, 23
2, 97947, Control_c, 0, 64, 46
2, 97962, Control_c, 0, 64, 57
2, 97977, Control_c, 0, 64, 62
2, 97992, Control_c, 0, 64, 65
2, 98000, Note_on_c, 0, 69, 82
2, 98007, Control_c, 0, 64, 68
2, 98023, Control_c, 0, 64, 72
2, 98037, Control_c, 0, 64, 76
2, 98048, Note_on_c, 0, 68, 0
2, 98052, Control_c, 0, 64, 80
2, 98054, Note_on_c, 0, 64, 0
2, 98068, Control_c, 0, 64, 80
2, 98069, Note_on_c, 0, 69, 0
2, 98071, Note_on_c, 0, 49, 0
2, 98083, Control_c, 0, 64, 79
2, 98098, Control_c, 0, 64, 78
2, 98113, Control_c, 0, 64, 77
2, 98128, Control_c, 0, 64, 74
2, 98144, Control_c, 0, 64, 71
2, 98159, Control_c, 0, 64, 67
2, 98174, Control_c, 0, 64, 64
2, 98188, Note_on_c, 0, 50, 54
2, 98190, Control_c, 0, 64, 61
2, 98194, Note_on_c, 0, 62, 61
2, 98197, Note_on_c, 0, 77, 78
2, 98204, Control_c, 0, 64, 57
2, 98219, Control_c, 0, 64, 50
2, 98235, Control_c, 0, 64, 36
2, 98250, Control_c, 0, 64, 0
2, 98342, Control_c, 0, 64, 48
2, 98357, Control_c, 0, 64, 60
2, 98371, Control_c, 0, 64, 64
2, 98394, Control_c, 0, 64, 65
2, 98409, Control_c, 0, 64, 67
2, 98425, Control_c, 0, 64, 69
2, 98440, Control_c, 0, 64, 71
2, 98443, Note_on_c, 0, 62, 0
2, 98455, Control_c, 0, 64, 72
2, 98471, Control_c, 0, 64, 73
2, 98516, Control_c, 0, 64, 73
2, 98531, Control_c, 0, 64, 74
2, 98547, Control_c, 0, 64, 74
2, 98549, Note_on_c, 0, 77, 0
2, 98553, Note_on_c, 0, 52, 60
2, 98556, Note_on_c, 0, 61, 73
2, 98562, Control_c, 0, 64, 75
2, 98576, Control_c, 0, 64, 76
2, 98592, Control_c, 0, 64, 76
2, 98607, Control_c, 0, 64, 77
2, 98622, Note_on_c, 0, 50, 0
2, 98623, Control_c, 0, 64, 78
2, 98638, Control_c, 0, 64, 79
2, 98652, Control_c, 0, 64, 80
2, 98668, Control_c, 0, 64, 81
2, 98714, Control_c, 0, 64, 80
2, 98760, Control_c, 0, 64, 80
2, 98775, Control_c, 0, 64, 79
2, 98791, Control_c, 0, 64, 79
2, 98797, Note_on_c, 0, 61, 0
2, 98806, Control_c, 0, 64, 78
2, 98820, Control_c, 0, 64, 77
2, 98836, Control_c, 0, 64, 76
2, 98851, Control_c, 0, 64, 73
2, 98867, Control_c, 0, 64, 70
2, 98874, Note_on_c, 0, 52, 0
2, 98878, Note_on_c, 0, 76, 78
2, 98881, Control_c, 0, 64, 66
2, 98889, Note_on_c, 0, 59, 56
2, 98890, Note_on_c, 0, 53, 59
2, 98896, Control_c, 0, 64, 61
2, 98912, Control_c, 0, 64, 51
2, 98927, Control_c, 0, 64, 41
2, 98943, Control_c, 0, 64, 35
2, 98957, Control_c, 0, 64, 35
2, 98967, Note_on_c, 0, 74, 75
2, 98972, Control_c, 0, 64, 44
2, 98978, Note_on_c, 0, 76, 0
2, 98988, Control_c, 0, 64, 56
2, 99002, Control_c, 0, 64, 62
2, 99017, Control_c, 0, 64, 65
2, 99033, Control_c, 0, 64, 66
2, 99048, Control_c, 0, 64, 67
2, 99048, Note_on_c, 0, 74, 0
2, 99059, Note_on_c, 0, 76, 79
2, 99091, Note_on_c, 0, 59, 0
2, 99136, Note_on_c, 0, 76, 0
2, 99140, Note_on_c, 0, 74, 79
2, 99162, Control_c, 0, 64, 66
2, 99177, Control_c, 0, 64, 66
2, 99193, Control_c, 0, 64, 65
2, 99208, Control_c, 0, 64, 62
2, 99215, Note_on_c, 0, 74, 0
2, 99223, Control_c, 0, 64, 55
2, 99226, Note_on_c, 0, 50, 51
2, 99231, Note_on_c, 0, 62, 58
2, 99233, Note_on_c, 0, 76, 73
2, 99238, Control_c, 0, 64, 42
2, 99253, Control_c, 0, 64, 32
2, 99256, Note_on_c, 0, 53, 0
2, 99269, Control_c, 0, 64, 31
2, 99284, Control_c, 0, 64, 33
2, 99299, Control_c, 0, 64, 45
2, 99314, Control_c, 0, 64, 56
2, 99314, Note_on_c, 0, 74, 81
2, 99322, Note_on_c, 0, 50, 0
2, 99329, Control_c, 0, 64, 62
2, 99345, Control_c, 0, 64, 64
2, 99345, Note_on_c, 0, 76, 0
2, 99360, Control_c, 0, 64, 66
2, 99374, Control_c, 0, 64, 68
2, 99390, Control_c, 0, 64, 69
2, 99391, Note_on_c, 0, 74, 0
2, 99398, Note_on_c, 0, 73, 80
2, 99405, Control_c, 0, 64, 70
2, 99466, Control_c, 0, 64, 69
2, 99485, Note_on_c, 0, 73, 0
2, 99491, Note_on_c, 0, 74, 81
2, 99495, Control_c, 0, 64, 69
2, 99511, Control_c, 0, 64, 68
2, 99526, Control_c, 0, 64, 67
2, 99542, Control_c, 0, 64, 65
2, 99557, Control_c, 0, 64, 62
2, 99573, Control_c, 0, 64, 52
2, 99574, Note_on_c, 0, 76, 84
2, 99579, Note_on_c, 0, 57, 48
2, 99583, Note_on_c, 0, 61, 48
2, 99588, Control_c, 0, 64, 38
2, 99588, Note_on_c, 0, 74, 0
2, 99595, Note_on_c, 0, 62, 0
2, 99603, Control_c, 0, 64, 26
2, 99618, Control_c, 0, 64, 13
2, 99634, Control_c, 0, 64, 11
2, 99648, Control_c, 0, 64, 22
2, 99664, Control_c, 0, 64, 44
2, 99679, Control_c, 0, 64, 60
2, 99694, Control_c, 0, 64, 64
2, 99710, Control_c, 0, 64, 66
2, 99724, Control_c, 0, 64, 67
2, 99739, Control_c, 0, 64, 69
2, 99755, Control_c, 0, 64, 70
2, 99755, Note_on_c, 0, 64, 64
2, 99767, Note_on_c, 0, 61, 0
2, 99770, Control_c, 0, 64, 71
2, 99786, Control_c, 0, 64, 70
2, 99808, Note_on_c, 0, 76, 0
2, 99846, Control_c, 0, 64, 70
2, 99877, Control_c, 0, 64, 69
2, 99892, Control_c, 0, 64, 68
2, 99908, Control_c, 0, 64, 66
2, 99923, Control_c, 0, 64, 63
2, 99933, Note_on_c, 0, 65, 57
2, 99945, Control_c, 0, 64, 56
2, 99949, Note_on_c, 0, 81, 89
2, 99960, Control_c, 0, 64, 52
2, 99975, Control_c, 0, 64, 53
2, 99976, Note_on_c, 0, 64, 0
2, 99991, Control_c, 0, 64, 56
2, 100005, Control_c, 0, 64, 61
2, 100020, Control_c, 0, 64, 64
2, 100036, Control_c, 0, 64, 67
2, 100051, Control_c, 0, 64, 70
2, 100067, Control_c, 0, 64, 74
2, 100082, Control_c, 0, 64, 77
2, 100097, Control_c, 0, 64, 78
2, 100102, Note_on_c, 0, 64, 72
2, 100107, Note_on_c, 0, 65, 0
2, 100113, Control_c, 0, 64, 79
2, 100127, Control_c, 0, 64, 80
2, 100147, Note_on_c, 0, 64, 0
2, 100155, Note_on_c, 0, 57, 0
2, 100158, Control_c, 0, 64, 80
2, 100173, Control_c, 0, 64, 79
2, 100189, Control_c, 0, 64, 78
2, 100204, Control_c, 0, 64, 78
2, 100218, Control_c, 0, 64, 76
2, 100234, Control_c, 0, 64, 75
2, 100249, Control_c, 0, 64, 74
2, 100264, Control_c, 0, 64, 71
2, 100279, Control_c, 0, 64, 68
2, 100290, Note_on_c, 0, 57, 62
2, 100294, Control_c, 0, 64, 65
2, 100310, Control_c, 0, 64, 63
2, 100317, Note_on_c, 0, 54, 56
2, 100325, Control_c, 0, 64, 59
2, 100339, Control_c, 0, 64, 52
2, 100355, Control_c, 0, 64, 39
2, 100370, Control_c, 0, 64, 29
2, 100387, Control_c, 0, 64, 27
2, 100402, Control_c, 0, 64, 34
2, 100417, Control_c, 0, 64, 50
2, 100433, Control_c, 0, 64, 60
2, 100447, Control_c, 0, 64, 65
2, 100463, Control_c, 0, 64, 67
2, 100478, Control_c, 0, 64, 70
2, 100479, Note_on_c, 0, 79, 84
2, 100492, Control_c, 0, 64, 72
2, 100498, Note_on_c, 0, 81, 0
2, 100508, Control_c, 0, 64, 73
2, 100554, Control_c, 0, 64, 73
2, 100599, Control_c, 0, 64, 72
2, 100614, Control_c, 0, 64, 72
2, 100630, Control_c, 0, 64, 71
2, 100641, Note_on_c, 0, 52, 55
2, 100644, Control_c, 0, 64, 70
2, 100666, Note_on_c, 0, 78, 87
2, 100675, Control_c, 0, 64, 71
2, 100687, Note_on_c, 0, 54, 0
2, 100713, Control_c, 0, 64, 71
2, 100759, Control_c, 0, 64, 72
2, 100773, Control_c, 0, 64, 72
2, 100779, Note_on_c, 0, 57, 0
2, 100789, Control_c, 0, 64, 73
2, 100790, Note_on_c, 0, 79, 0
2, 100804, Control_c, 0, 64, 73
2, 100819, Control_c, 0, 64, 74
2, 100835, Control_c, 0, 64, 76
2, 100837, Note_on_c, 0, 76, 92
2, 100849, Control_c, 0, 64, 77
2, 100868, Note_on_c, 0, 78, 0
2, 100895, Control_c, 0, 64, 77
2, 100911, Control_c, 0, 64, 76
2, 100925, Control_c, 0, 64, 76
2, 100940, Control_c, 0, 64, 75
2, 100956, Control_c, 0, 64, 74
2, 100971, Control_c, 0, 64, 73
2, 100987, Control_c, 0, 64, 72
2, 100996, Note_on_c, 0, 60, 51
2, 101001, Note_on_c, 0, 50, 49
2, 101002, Control_c, 0, 64, 71
2, 101017, Control_c, 0, 64, 69
2, 101025, Note_on_c, 0, 79, 79
2, 101032, Control_c, 0, 64, 67
2, 101033, Note_on_c, 0, 76, 0
2, 101045, Note_on_c, 0, 52, 0
2, 101047, Control_c, 0, 64, 65
2, 101063, Control_c, 0, 64, 61
2, 101078, Control_c, 0, 64, 53
2, 101093, Control_c, 0, 64, 43
2, 101108, Control_c, 0, 64, 36
2, 101123, Control_c, 0, 64, 37
2, 101138, Control_c, 0, 64, 45
2, 101154, Control_c, 0, 64, 55
2, 101169, Control_c, 0, 64, 62
2, 101184, Control_c, 0, 64, 65
2, 101188, Note_on_c, 0, 78, 86
2, 101199, Control_c, 0, 64, 67
2, 101215, Control_c, 0, 64, 69
2, 101231, Control_c, 0, 64, 70
2, 101246, Control_c, 0, 64, 72
2, 101262, Control_c, 0, 64, 74
2, 101277, Control_c, 0, 64, 74
2, 101291, Control_c, 0, 64, 75
2, 101337, Note_on_c, 0, 54, 48
2, 101345, Note_on_c, 0, 50, 0
2, 101352, Control_c, 0, 64, 75
2, 101360, Note_on_c, 0, 76, 86
2, 101403, Note_on_c, 0, 78, 0
2, 101415, Note_on_c, 0, 79, 0
2, 101428, Control_c, 0, 64, 75
2, 101436, Note_on_c, 0, 54, 0
2, 101467, Control_c, 0, 64, 74
2, 101496, Control_c, 0, 64, 74
2, 101527, Control_c, 0, 64, 73
2, 101548, Note_on_c, 0, 74, 91
2, 101557, Control_c, 0, 64, 73
2, 101564, Note_on_c, 0, 76, 0
2, 101633, Control_c, 0, 64, 72
2, 101665, Control_c, 0, 64, 72
2, 101679, Control_c, 0, 64, 71
2, 101694, Control_c, 0, 64, 70
2, 101710, Control_c, 0, 64, 69
2, 101725, Control_c, 0, 64, 68
2, 101732, Note_on_c, 0, 55, 41
2, 101739, Control_c, 0, 64, 67
2, 101743, Note_on_c, 0, 58, 43
2, 101755, Control_c, 0, 64, 67
2, 101767, Note_on_c, 0, 60, 0
2, 101770, Control_c, 0, 64, 66
2, 101786, Control_c, 0, 64, 64
2, 101801, Control_c, 0, 64, 61
2, 101801, Note_on_c, 0, 75, 87
2, 101816, Control_c, 0, 64, 54
2, 101831, Control_c, 0, 64, 44
2, 101846, Control_c, 0, 64, 36
2, 101851, Note_on_c, 0, 74, 0
2, 101862, Control_c, 0, 64, 35
2, 101876, Control_c, 0, 64, 45
2, 101891, Control_c, 0, 64, 56
2, 101907, Control_c, 0, 64, 62
2, 101922, Control_c, 0, 64, 64
2, 101937, Control_c, 0, 64, 66
2, 101953, Control_c, 0, 64, 67
2, 101984, Control_c, 0, 64, 68
2, 101999, Control_c, 0, 64, 68
2, 102014, Control_c, 0, 64, 69
2, 102030, Control_c, 0, 64, 68
2, 102045, Control_c, 0, 64, 67
2, 102059, Control_c, 0, 64, 66
2, 102075, Control_c, 0, 64, 64
2, 102078, Note_on_c, 0, 84, 88
2, 102090, Control_c, 0, 64, 64
2, 102095, Note_on_c, 0, 62, 47
2, 102106, Control_c, 0, 64, 66
2, 102115, Note_on_c, 0, 75, 0
2, 102121, Control_c, 0, 64, 67
2, 102136, Control_c, 0, 64, 68
2, 102143, Note_on_c, 0, 58, 0
2, 102152, Control_c, 0, 64, 68
2, 102212, Control_c, 0, 64, 68
2, 102235, Control_c, 0, 64, 67
2, 102250, Control_c, 0, 64, 66
2, 102265, Control_c, 0, 64, 65
2, 102280, Control_c, 0, 64, 64
2, 102286, Note_on_c, 0, 63, 46
2, 102295, Control_c, 0, 64, 62
2, 102302, Note_on_c, 0, 82, 74
2, 102311, Control_c, 0, 64, 61
2, 102326, Control_c, 0, 64, 59
2, 102332, Note_on_c, 0, 62, 0
2, 102342, Control_c, 0, 64, 57
2, 102356, Control_c, 0, 64, 54
2, 102357, Note_on_c, 0, 84, 0
2, 102371, Control_c, 0, 64, 51
2, 102387, Control_c, 0, 64, 49
2, 102402, Control_c, 0, 64, 48
2, 102433, Control_c, 0, 64, 50
2, 102448, Control_c, 0, 64, 52
2, 102459, Note_on_c, 0, 63, 0
2, 102463, Control_c, 0, 64, 55
2, 102464, Note_on_c, 0, 62, 55
2, 102478, Control_c, 0, 64, 58
2, 102493, Control_c, 0, 64, 60
2, 102509, Control_c, 0, 64, 61
2, 102523, Control_c, 0, 64, 62
2, 102538, Control_c, 0, 64, 63
2, 102554, Control_c, 0, 64, 63
2, 102595, Note_on_c, 0, 62, 0
2, 102614, Control_c, 0, 64, 63
2, 102634, Note_on_c, 0, 55, 0
2, 102645, Control_c, 0, 64, 62
2, 102651, Note_on_c, 0, 56, 53
2, 102656, Note_on_c, 0, 59, 48
2, 102660, Control_c, 0, 64, 62
2, 102675, Control_c, 0, 64, 61
2, 102690, Control_c, 0, 64, 60
2, 102706, Control_c, 0, 64, 59
2, 102720, Control_c, 0, 64, 58
2, 102735, Control_c, 0, 64, 56
2, 102751, Control_c, 0, 64, 56
2, 102766, Control_c, 0, 64, 55
2, 102782, Control_c, 0, 64, 55
2, 102812, Control_c, 0, 64, 55
2, 102825, Note_on_c, 0, 81, 68
2, 102828, Control_c, 0, 64, 56
2, 102858, Control_c, 0, 64, 55
2, 102859, Note_on_c, 0, 82, 0
2, 102919, Control_c, 0, 64, 55
2, 102934, Control_c, 0, 64, 54
2, 102950, Control_c, 0, 64, 54
2, 103011, Note_on_c, 0, 54, 44
2, 103019, Note_on_c, 0, 56, 0
2, 103020, Note_on_c, 0, 80, 69
2, 103044, Note_on_c, 0, 81, 0
2, 103048, Control_c, 0, 64, 55
2, 103064, Control_c, 0, 64, 57
2, 103079, Control_c, 0, 64, 59
2, 103094, Control_c, 0, 64, 61
2, 103109, Control_c, 0, 64, 62
2, 103124, Control_c, 0, 64, 63
2, 103139, Control_c, 0, 64, 64
2, 103155, Control_c, 0, 64, 65
2, 103169, Control_c, 0, 64, 65
2, 103185, Control_c, 0, 64, 66
2, 103197, Note_on_c, 0, 78, 69
2, 103207, Note_on_c, 0, 80, 0
2, 103246, Control_c, 0, 64, 65
2, 103277, Control_c, 0, 64, 65
2, 103292, Control_c, 0, 64, 64
2, 103307, Control_c, 0, 64, 64
2, 103337, Control_c, 0, 64, 63
2, 103353, Control_c, 0, 64, 63
2, 103353, Note_on_c, 0, 52, 37
2, 103367, Control_c, 0, 64, 62
2, 103370, Note_on_c, 0, 64, 34
2, 103378, Note_on_c, 0, 81, 59
2, 103383, Control_c, 0, 64, 61
2, 103383, Note_on_c, 0, 78, 0
2, 103387, Note_on_c, 0, 54, 0
2, 103413, Control_c, 0, 64, 61
2, 103429, Control_c, 0, 64, 60
2, 103443, Control_c, 0, 64, 58
2, 103458, Control_c, 0, 64, 57
2, 103466, Note_on_c, 0, 59, 0
2, 103505, Control_c, 0, 64, 57
2, 103519, Control_c, 0, 64, 56
2, 103534, Control_c, 0, 64, 55
2, 103555, Note_on_c, 0, 80, 64
2, 103561, Note_on_c, 0, 81, 0
2, 103610, Control_c, 0, 64, 54
2, 103728, Note_on_c, 0, 56, 37
2, 103737, Note_on_c, 0, 78, 57
2, 103770, Note_on_c, 0, 80, 0
2, 103831, Note_on_c, 0, 52, 0
2, 103907, Note_on_c, 0, 78, 0
2, 103910, Note_on_c, 0, 76, 52
2, 104057, Note_on_c, 0, 56, 0
2, 104093, Note_on_c, 0, 57, 34
2, 104105, Note_on_c, 0, 74, 56
2, 104134, Control_c, 0, 64, 55
2, 104145, Note_on_c, 0, 76, 0
2, 104149, Control_c, 0, 64, 56
2, 104164, Control_c, 0, 64, 59
2, 104179, Control_c, 0, 64, 62
2, 104195, Control_c, 0, 64, 64
2, 104209, Control_c, 0, 64, 65
2, 104225, Control_c, 0, 64, 67
2, 104240, Control_c, 0, 64, 68
2, 104249, Note_on_c, 0, 64, 0
2, 104255, Control_c, 0, 64, 70
2, 104262, Note_on_c, 0, 57, 0
2, 104271, Control_c, 0, 64, 71
2, 104283, Note_on_c, 0, 74, 0
2, 104285, Control_c, 0, 64, 72
2, 104297, Note_on_c, 0, 72, 43
2, 104377, Control_c, 0, 64, 72
2, 104393, Control_c, 0, 64, 71
2, 104407, Control_c, 0, 64, 71
2, 104423, Control_c, 0, 64, 70
2, 104438, Control_c, 0, 64, 70
2, 104441, Note_on_c, 0, 72, 0
2, 104453, Control_c, 0, 64, 69
2, 104469, Control_c, 0, 64, 68
2, 104478, Note_on_c, 0, 71, 45
2, 104484, Control_c, 0, 64, 67
2, 104499, Control_c, 0, 64, 66
2, 104503, Note_on_c, 0, 45, 45
2, 104537, Control_c, 0, 64, 66
2, 104553, Control_c, 0, 64, 65
2, 104568, Control_c, 0, 64, 64
2, 104584, Control_c, 0, 64, 64
2, 104598, Control_c, 0, 64, 65
2, 104613, Control_c, 0, 64, 66
2, 104629, Control_c, 0, 64, 66
2, 104643, Control_c, 0, 64, 67
2, 104658, Control_c, 0, 64, 68
2, 104662, Note_on_c, 0, 71, 0
2, 104665, Note_on_c, 0, 72, 54
2, 104689, Control_c, 0, 64, 68
2, 104720, Control_c, 0, 64, 68
2, 104762, Note_on_c, 0, 72, 0
2, 104765, Control_c, 0, 64, 67
2, 104796, Control_c, 0, 64, 67
2, 104811, Control_c, 0, 64, 66
2, 104827, Control_c, 0, 64, 66
2, 104827, Note_on_c, 0, 47, 63
2, 104836, Note_on_c, 0, 72, 43
2, 104841, Control_c, 0, 64, 65
2, 104856, Control_c, 0, 64, 64
2, 104872, Control_c, 0, 64, 63
2, 104887, Control_c, 0, 64, 62
2, 104903, Control_c, 0, 64, 61
2, 104917, Control_c, 0, 64, 62
2, 104920, Note_on_c, 0, 45, 0
2, 104932, Control_c, 0, 64, 63
2, 104948, Control_c, 0, 64, 64
2, 104963, Control_c, 0, 64, 65
2, 104977, Control_c, 0, 64, 65
2, 104993, Control_c, 0, 64, 66
2, 104995, Note_on_c, 0, 71, 50
2, 105000, Note_on_c, 0, 72, 0
2, 105099, Control_c, 0, 64, 65
2, 105128, Note_on_c, 0, 71, 0
2, 105145, Control_c, 0, 64, 65
2, 105160, Control_c, 0, 64, 64
2, 105163, Note_on_c, 0, 48, 67
2, 105172, Note_on_c, 0, 69, 51
2, 105175, Control_c, 0, 64, 64
2, 105191, Control_c, 0, 64, 63
2, 105206, Control_c, 0, 64, 61
2, 105222, Control_c, 0, 64, 59
2, 105237, Control_c, 0, 64, 57
2, 105248, Note_on_c, 0, 47, 0
2, 105251, Control_c, 0, 64, 58
2, 105267, Control_c, 0, 64, 59
2, 105282, Control_c, 0, 64, 61
2, 105306, Control_c, 0, 64, 64
2, 105321, Control_c, 0, 64, 65
2, 105336, Control_c, 0, 64, 66
2, 105352, Control_c, 0, 64, 67
2, 105361, Note_on_c, 0, 69, 0
2, 105361, Note_on_c, 0, 71, 51
2, 105366, Control_c, 0, 64, 68
2, 105428, Control_c, 0, 64, 68
2, 105456, Note_on_c, 0, 71, 0
2, 105473, Control_c, 0, 64, 67
2, 105488, Control_c, 0, 64, 67
2, 105504, Control_c, 0, 64, 65
2, 105519, Control_c, 0, 64, 61
2, 105524, Note_on_c, 0, 50, 70
2, 105531, Note_on_c, 0, 71, 48
2, 105534, Control_c, 0, 64, 56
2, 105550, Control_c, 0, 64, 54
2, 105564, Control_c, 0, 64, 56
2, 105579, Control_c, 0, 64, 59
2, 105591, Note_on_c, 0, 48, 0
2, 105595, Control_c, 0, 64, 62
2, 105609, Control_c, 0, 64, 65
2, 105625, Control_c, 0, 64, 67
2, 105640, Control_c, 0, 64, 68
2, 105655, Control_c, 0, 64, 69
2, 105671, Control_c, 0, 64, 68
2, 105691, Note_on_c, 0, 69, 53
2, 105747, Control_c, 0, 64, 68
2, 105754, Note_on_c, 0, 71, 0
2, 105777, Control_c, 0, 64, 67
2, 105793, Control_c, 0, 64, 67
2, 105808, Control_c, 0, 64, 66
2, 105823, Control_c, 0, 64, 65
2, 105832, Note_on_c, 0, 69, 0
2, 105838, Control_c, 0, 64, 63
2, 105853, Control_c, 0, 64, 59
2, 105862, Note_on_c, 0, 47, 67
2, 105867, Note_on_c, 0, 68, 55
2, 105869, Control_c, 0, 64, 54
2, 105884, Control_c, 0, 64, 51
2, 105914, Control_c, 0, 64, 53
2, 105929, Control_c, 0, 64, 57
2, 105930, Note_on_c, 0, 50, 0
2, 105945, Control_c, 0, 64, 61
2, 105960, Control_c, 0, 64, 64
2, 105974, Control_c, 0, 64, 67
2, 105990, Control_c, 0, 64, 70
2, 106005, Control_c, 0, 64, 73
2, 106019, Control_c, 0, 64, 74
2, 106026, Note_on_c, 0, 69, 63
2, 106035, Control_c, 0, 64, 75
2, 106050, Control_c, 0, 64, 76
2, 106077, Note_on_c, 0, 68, 0
2, 106089, Control_c, 0, 64, 76
2, 106098, Note_on_c, 0, 69, 0
2, 106119, Control_c, 0, 64, 75
2, 106135, Control_c, 0, 64, 75
2, 106151, Control_c, 0, 64, 74
2, 106166, Control_c, 0, 64, 73
2, 106182, Control_c, 0, 64, 70
2, 106197, Control_c, 0, 64, 68
2, 106211, Control_c, 0, 64, 66
2, 106214, Note_on_c, 0, 67, 67
2, 106215, Note_on_c, 0, 47, 0
2, 106227, Control_c, 0, 64, 63
2, 106230, Note_on_c, 0, 49, 54
2, 106242, Control_c, 0, 64, 61
2, 106255, Control_c, 0, 64, 58
2, 106271, Control_c, 0, 64, 56
2, 106286, Control_c, 0, 64, 54
2, 106302, Control_c, 0, 64, 52
2, 106317, Control_c, 0, 64, 51
2, 106331, Control_c, 0, 64, 50
2, 106362, Control_c, 0, 64, 49
2, 106382, Note_on_c, 0, 44, 37
2, 106393, Control_c, 0, 64, 49
2, 106419, Note_on_c, 0, 44, 0
2, 106423, Control_c, 0, 64, 48
2, 106426, Note_on_c, 0, 45, 42
2, 106436, Note_on_c, 0, 49, 0
2, 106554, Note_on_c, 0, 57, 75
2, 106560, Control_c, 0, 64, 49
2, 106575, Control_c, 0, 64, 49
2, 106582, Note_on_c, 0, 44, 46
2, 106584, Note_on_c, 0, 45, 0
2, 106591, Control_c, 0, 64, 51
2, 106605, Control_c, 0, 64, 53
2, 106620, Control_c, 0, 64, 56
2, 106636, Control_c, 0, 64, 59
2, 106651, Control_c, 0, 64, 62
2, 106666, Control_c, 0, 64, 63
2, 106681, Control_c, 0, 64, 65
2, 106696, Control_c, 0, 64, 67
2, 106712, Control_c, 0, 64, 69
2, 106727, Control_c, 0, 64, 71
2, 106728, Note_on_c, 0, 45, 50
2, 106742, Control_c, 0, 64, 72
2, 106751, Note_on_c, 0, 44, 0
2, 106757, Control_c, 0, 64, 73
2, 106803, Control_c, 0, 64, 73
2, 106833, Control_c, 0, 64, 72
2, 106850, Note_on_c, 0, 45, 0
2, 106856, Control_c, 0, 64, 72
2, 106871, Control_c, 0, 64, 71
2, 106886, Control_c, 0, 64, 70
2, 106902, Control_c, 0, 64, 69
2, 106915, Note_on_c, 0, 59, 78
2, 106917, Control_c, 0, 64, 67
2, 106924, Note_on_c, 0, 53, 54
2, 106931, Note_on_c, 0, 57, 0
2, 106932, Control_c, 0, 64, 64
2, 106949, Control_c, 0, 64, 59
2, 106964, Control_c, 0, 64, 54
2, 106978, Control_c, 0, 64, 52
2, 106994, Control_c, 0, 64, 52
2, 107009, Control_c, 0, 64, 55
2, 107025, Control_c, 0, 64, 59
2, 107040, Control_c, 0, 64, 64
2, 107054, Control_c, 0, 64, 67
2, 107070, Control_c, 0, 64, 70
2, 107077, Note_on_c, 0, 65, 63
2, 107085, Control_c, 0, 64, 73
2, 107089, Note_on_c, 0, 67, 0
2, 107099, Control_c, 0, 64, 75
2, 107115, Control_c, 0, 64, 75
2, 107161, Control_c, 0, 64, 75
2, 107206, Control_c, 0, 64, 74
2, 107222, Control_c, 0, 64, 74
2, 107224, Note_on_c, 0, 53, 0
2, 107237, Control_c, 0, 64, 73
2, 107245, Note_on_c, 0, 61, 73
2, 107249, Note_on_c, 0, 65, 0
2, 107251, Control_c, 0, 64, 70
2, 107252, Note_on_c, 0, 64, 62
2, 107267, Control_c, 0, 64, 65
2, 107282, Control_c, 0, 64, 60
2, 107297, Control_c, 0, 64, 56
2, 107313, Control_c, 0, 64, 57
2, 107327, Control_c, 0, 64, 60
2, 107343, Control_c, 0, 64, 63
2, 107358, Control_c, 0, 64, 66
2, 107373, Control_c, 0, 64, 70
2, 107389, Control_c, 0, 64, 75
2, 107404, Control_c, 0, 64, 78
2, 107404, Note_on_c, 0, 64, 0
2, 107416, Note_on_c, 0, 65, 57
2, 107419, Control_c, 0, 64, 78
2, 107465, Control_c, 0, 64, 78
2, 107494, Control_c, 0, 64, 77
2, 107510, Control_c, 0, 64, 77
2, 107516, Note_on_c, 0, 65, 0
2, 107525, Control_c, 0, 64, 76
2, 107530, Note_on_c, 0, 61, 0
2, 107540, Control_c, 0, 64, 75
2, 107556, Control_c, 0, 64, 74
2, 107571, Control_c, 0, 64, 71
2, 107586, Control_c, 0, 64, 65
2, 107597, Note_on_c, 0, 62, 69
2, 107599, Note_on_c, 0, 52, 43
2, 107601, Control_c, 0, 64, 56
2, 107615, Note_on_c, 0, 65, 52
2, 107625, Control_c, 0, 64, 53
2, 107654, Control_c, 0, 64, 55
2, 107667, Note_on_c, 0, 52, 0
2, 107670, Control_c, 0, 64, 58
2, 107685, Control_c, 0, 64, 62
2, 107694, Note_on_c, 0, 50, 45
2, 107700, Control_c, 0, 64, 65
2, 107715, Control_c, 0, 64, 69
2, 107730, Control_c, 0, 64, 72
2, 107746, Control_c, 0, 64, 74
2, 107752, Note_on_c, 0, 50, 0
2, 107762, Control_c, 0, 64, 75
2, 107769, Note_on_c, 0, 64, 58
2, 107774, Note_on_c, 0, 62, 0
2, 107784, Note_on_c, 0, 52, 55
2, 107826, Note_on_c, 0, 52, 0
2, 107838, Control_c, 0, 64, 74
2, 107844, Note_on_c, 0, 59, 0
2, 107853, Control_c, 0, 64, 74
2, 107869, Control_c, 0, 64, 73
2, 107872, Note_on_c, 0, 50, 38
2, 107898, Control_c, 0, 64, 72
2, 107912, Note_on_c, 0, 50, 0
2, 107914, Control_c, 0, 64, 68
2, 107929, Control_c, 0, 64, 63
2, 107935, Note_on_c, 0, 52, 48
2, 107944, Control_c, 0, 64, 58
2, 107946, Note_on_c, 0, 59, 69
2, 107958, Note_on_c, 0, 62, 42
2, 107959, Control_c, 0, 64, 56
2, 107970, Note_on_c, 0, 64, 0
2, 107974, Control_c, 0, 64, 58
2, 107977, Note_on_c, 0, 65, 0
2, 107990, Control_c, 0, 64, 61
2, 107990, Note_on_c, 0, 52, 0
2, 108005, Control_c, 0, 64, 64
2, 108019, Control_c, 0, 64, 67
2, 108031, Note_on_c, 0, 49, 49
2, 108035, Control_c, 0, 64, 71
2, 108050, Control_c, 0, 64, 75
2, 108066, Control_c, 0, 64, 78
2, 108081, Control_c, 0, 64, 79
2, 108095, Control_c, 0, 64, 79
2, 108108, Note_on_c, 0, 69, 59
2, 108126, Control_c, 0, 64, 80
2, 108130, Note_on_c, 0, 49, 0
2, 108150, Note_on_c, 0, 50, 57
2, 108168, Note_on_c, 0, 62, 0
2, 108171, Control_c, 0, 64, 79
2, 108187, Control_c, 0, 64, 79
2, 108202, Control_c, 0, 64, 78
2, 108202, Note_on_c, 0, 69, 0
2, 108217, Control_c, 0, 64, 77
2, 108233, Control_c, 0, 64, 76
2, 108248, Control_c, 0, 64, 74
2, 108264, Control_c, 0, 64, 72
2, 108271, Note_on_c, 0, 52, 54
2, 108279, Control_c, 0, 64, 69
2, 108283, Note_on_c, 0, 50, 0
2, 108291, Note_on_c, 0, 59, 0
2, 108293, Control_c, 0, 64, 64
2, 108309, Control_c, 0, 64, 56
2, 108310, Note_on_c, 0, 60, 59
2, 108323, Note_on_c, 0, 69, 62
2, 108324, Control_c, 0, 64, 48
2, 108339, Control_c, 0, 64, 43
2, 108354, Control_c, 0, 64, 41
2, 108376, Control_c, 0, 64, 44
2, 108392, Control_c, 0, 64, 52
2, 108407, Control_c, 0, 64, 60
2, 108423, Control_c, 0, 64, 65
2, 108438, Control_c, 0, 64, 69
2, 108452, Control_c, 0, 64, 73
2, 108468, Control_c, 0, 64, 78
2, 108475, Note_on_c, 0, 57, 66
2, 108483, Control_c, 0, 64, 80
2, 108498, Control_c, 0, 64, 81
2, 108514, Control_c, 0, 64, 80
2, 108529, Control_c, 0, 64, 80
2, 108538, Note_on_c, 0, 60, 0
2, 108545, Control_c, 0, 64, 79
2, 108559, Control_c, 0, 64, 79
2, 108574, Control_c, 0, 64, 78
2, 108584, Note_on_c, 0, 52, 0
2, 108591, Control_c, 0, 64, 77
2, 108605, Control_c, 0, 64, 76
2, 108620, Control_c, 0, 64, 74
2, 108636, Control_c, 0, 64, 71
2, 108639, Note_on_c, 0, 57, 0
2, 108651, Control_c, 0, 64, 66
2, 108651, Note_on_c, 0, 53, 50
2, 108651, Note_on_c, 0, 56, 58
2, 108667, Control_c, 0, 64, 59
2, 108682, Control_c, 0, 64, 51
2, 108697, Control_c, 0, 64, 48
2, 108713, Control_c, 0, 64, 49
2, 108728, Control_c, 0, 64, 52
2, 108743, Control_c, 0, 64, 59
2, 108758, Control_c, 0, 64, 64
2, 108773, Control_c, 0, 64, 68
2, 108788, Control_c, 0, 64, 73
2, 108803, Control_c, 0, 64, 78
2, 108815, Note_on_c, 0, 56, 0
2, 108818, Control_c, 0, 64, 80
2, 108819, Note_on_c, 0, 57, 65
2, 108820, Note_on_c, 0, 53, 0
2, 108879, Control_c, 0, 64, 80
2, 108894, Control_c, 0, 64, 79
2, 108909, Control_c, 0, 64, 79
2, 108909, Note_on_c, 0, 57, 0
2, 108924, Control_c, 0, 64, 77
2, 108939, Control_c, 0, 64, 75
2, 108955, Control_c, 0, 64, 73
2, 108970, Control_c, 0, 64, 70
2, 108985, Control_c, 0, 64, 67
2, 109000, Control_c, 0, 64, 64
2, 109012, Note_on_c, 0, 52, 46
2, 109015, Control_c, 0, 64, 61
2, 109015, Note_on_c, 0, 65, 62
2, 109031, Control_c, 0, 64, 57
2, 109046, Control_c, 0, 64, 52
2, 109062, Control_c, 0, 64, 50
2, 109077, Control_c, 0, 64, 49
2, 109107, Control_c, 0, 64, 49
2, 109160, Control_c, 0, 64, 49
2, 109175, Control_c, 0, 64, 52
2, 109175, Note_on_c, 0, 50, 49
2, 109175, Note_on_c, 0, 52, 0
2, 109191, Control_c, 0, 64, 54
2, 109205, Control_c, 0, 64, 57
2, 109220, Control_c, 0, 64, 57
2, 109312, Control_c, 0, 64, 58
2, 109327, Control_c, 0, 64, 60
2, 109343, Control_c, 0, 64, 61
2, 109343, Note_on_c, 0, 50, 0
2, 109346, Note_on_c, 0, 48, 40
2, 109358, Control_c, 0, 64, 63
2, 109373, Control_c, 0, 64, 64
2, 109389, Control_c, 0, 64, 65
2, 109395, Note_on_c, 0, 65, 0
2, 109405, Control_c, 0, 64, 67
2, 109420, Control_c, 0, 64, 68
2, 109435, Control_c, 0, 64, 69
2, 109450, Control_c, 0, 64, 71
2, 109466, Control_c, 0, 64, 72
2, 109481, Control_c, 0, 64, 72
2, 109496, Control_c, 0, 64, 73
2, 109505, Note_on_c, 0, 50, 42
2, 109535, Note_on_c, 0, 48, 0
2, 109565, Note_on_c, 0, 50, 0
2, 109571, Control_c, 0, 64, 72
2, 109617, Control_c, 0, 64, 72
2, 109633, Control_c, 0, 64, 71
2, 109648, Control_c, 0, 64, 70
2, 109664, Control_c, 0, 64, 69
2, 109679, Control_c, 0, 64, 68
2, 109694, Control_c, 0, 64, 65
2, 109704, Note_on_c, 0, 64, 51
2, 109709, Control_c, 0, 64, 63
2, 109724, Control_c, 0, 64, 60
2, 109727, Note_on_c, 0, 50, 31
2, 109739, Control_c, 0, 64, 57
2, 109754, Control_c, 0, 64, 54
2, 109766, Note_on_c, 0, 64, 0
2, 109769, Control_c, 0, 64, 50
2, 109785, Control_c, 0, 64, 44
2, 109795, Note_on_c, 0, 62, 53
2, 109800, Control_c, 0, 64, 35
2, 109815, Control_c, 0, 64, 15
2, 109830, Control_c, 0, 64, 0
2, 109853, Note_on_c, 0, 50, 0
2, 109860, Note_on_c, 0, 62, 0
2, 109863, Note_on_c, 0, 48, 44
2, 109889, Note_on_c, 0, 64, 55
2, 109938, Note_on_c, 0, 64, 0
2, 109983, Note_on_c, 0, 62, 48
2, 110003, Note_on_c, 0, 48, 0
2, 110029, Note_on_c, 0, 62, 0
2, 110039, Note_on_c, 0, 47, 42
2, 110057, Note_on_c, 0, 64, 51
2, 110111, Control_c, 0, 64, 17
2, 110111, Note_on_c, 0, 64, 0
2, 110125, Control_c, 0, 64, 41
2, 110135, Note_on_c, 0, 62, 53
2, 110140, Control_c, 0, 64, 52
2, 110156, Control_c, 0, 64, 56
2, 110171, Control_c, 0, 64, 58
2, 110187, Control_c, 0, 64, 60
2, 110201, Control_c, 0, 64, 61
2, 110204, Note_on_c, 0, 47, 0
2, 110206, Note_on_c, 0, 62, 0
2, 110217, Control_c, 0, 64, 62
2, 110229, Note_on_c, 0, 48, 44
2, 110233, Control_c, 0, 64, 63
2, 110233, Note_on_c, 0, 60, 50
2, 110248, Control_c, 0, 64, 64
2, 110263, Control_c, 0, 64, 65
2, 110271, Note_on_c, 0, 48, 0
2, 110278, Note_on_c, 0, 60, 0
2, 110312, Note_on_c, 0, 62, 46
2, 110369, Control_c, 0, 64, 64
2, 110400, Control_c, 0, 64, 64
2, 110415, Control_c, 0, 64, 63
2, 110431, Control_c, 0, 64, 61
2, 110434, Note_on_c, 0, 62, 0
2, 110446, Control_c, 0, 64, 58
2, 110451, Note_on_c, 0, 64, 47
2, 110452, Note_on_c, 0, 48, 40
2, 110462, Control_c, 0, 64, 51
2, 110476, Control_c, 0, 64, 41
2, 110491, Control_c, 0, 64, 28
2, 110507, Control_c, 0, 64, 0
2, 110882, Note_on_c, 0, 48, 0
2, 110884, Note_on_c, 0, 65, 38
2, 110887, Note_on_c, 0, 64, 0
2, 110893, Control_c, 0, 64, 22
2, 110894, Note_on_c, 0, 50, 36
2, 110909, Control_c, 0, 64, 39
2, 110924, Control_c, 0, 64, 49
2, 110939, Control_c, 0, 64, 53
2, 110955, Control_c, 0, 64, 57
2, 110969, Control_c, 0, 64, 60
2, 110985, Control_c, 0, 64, 62
2, 111000, Control_c, 0, 64, 64
2, 111014, Control_c, 0, 64, 66
2, 111030, Control_c, 0, 64, 68
2, 111046, Control_c, 0, 64, 70
2, 111062, Control_c, 0, 64, 72
2, 111077, Control_c, 0, 64, 74
2, 111083, Note_on_c, 0, 50, 0
2, 111092, Control_c, 0, 64, 76
2, 111108, Control_c, 0, 64, 77
2, 111122, Control_c, 0, 64, 78
2, 111137, Control_c, 0, 64, 78
2, 111148, Note_on_c, 0, 65, 0
2, 111199, Note_on_c, 0, 69, 0
2, 111213, Control_c, 0, 64, 78
2, 111229, Control_c, 0, 64, 77
2, 111244, Control_c, 0, 64, 77
2, 111259, Control_c, 0, 64, 76
2, 111275, Control_c, 0, 64, 75
2, 111290, Control_c, 0, 64, 75
2, 111296, Note_on_c, 0, 60, 49
2, 111308, Note_on_c, 0, 52, 39
2, 111394, Note_on_c, 0, 60, 0
2, 111416, Note_on_c, 0, 59, 50
2, 111477, Note_on_c, 0, 52, 0
2, 111485, Note_on_c, 0, 75, 63
2, 111499, Note_on_c, 0, 59, 0
2, 111525, Control_c, 0, 64, 74
2, 111534, Note_on_c, 0, 60, 49
2, 111556, Control_c, 0, 64, 74
2, 111571, Control_c, 0, 64, 73
2, 111571, Note_on_c, 0, 60, 0
2, 111586, Control_c, 0, 64, 72
2, 111601, Control_c, 0, 64, 71
2, 111613, Note_on_c, 0, 59, 42
2, 111616, Control_c, 0, 64, 70
2, 111632, Control_c, 0, 64, 68
2, 111647, Control_c, 0, 64, 66
2, 111658, Note_on_c, 0, 59, 0
2, 111662, Control_c, 0, 64, 63
2, 111677, Control_c, 0, 64, 60
2, 111683, Note_on_c, 0, 60, 47
2, 111688, Note_on_c, 0, 50, 44
2, 111690, Note_on_c, 0, 76, 64
2, 111692, Control_c, 0, 64, 57
2, 111708, Control_c, 0, 64, 55
2, 111723, Control_c, 0, 64, 53
2, 111737, Control_c, 0, 64, 51
2, 111768, Control_c, 0, 64, 52
2, 111768, Note_on_c, 0, 60, 0
2, 111778, Note_on_c, 0, 59, 53
2, 111783, Control_c, 0, 64, 54
2, 111787, Note_on_c, 0, 75, 0
2, 111798, Control_c, 0, 64, 56
2, 111813, Control_c, 0, 64, 59
2, 111829, Control_c, 0, 64, 61
2, 111830, Note_on_c, 0, 76, 0
2, 111839, Note_on_c, 0, 59, 0
2, 111844, Control_c, 0, 64, 62
2, 111858, Note_on_c, 0, 69, 61
2, 111860, Control_c, 0, 64, 64
2, 111873, Note_on_c, 0, 60, 49
2, 111876, Control_c, 0, 64, 65
2, 111888, Note_on_c, 0, 50, 0
2, 111890, Control_c, 0, 64, 65
2, 111906, Control_c, 0, 64, 66
2, 111925, Note_on_c, 0, 60, 0
2, 111959, Note_on_c, 0, 59, 48
2, 111997, Control_c, 0, 64, 65
2, 112010, Note_on_c, 0, 59, 0
2, 112012, Control_c, 0, 64, 65
2, 112028, Control_c, 0, 64, 64
2, 112042, Control_c, 0, 64, 63
2, 112045, Note_on_c, 0, 60, 57
2, 112049, Note_on_c, 0, 72, 67
2, 112052, Note_on_c, 0, 69, 0
2, 112057, Control_c, 0, 64, 60
2, 112060, Note_on_c, 0, 52, 43
2, 112073, Control_c, 0, 64, 57
2, 112088, Control_c, 0, 64, 55
2, 112104, Control_c, 0, 64, 54
2, 112115, Note_on_c, 0, 60, 0
2, 112119, Control_c, 0, 64, 53
2, 112127, Note_on_c, 0, 59, 57
2, 112149, Control_c, 0, 64, 52
2, 112164, Control_c, 0, 64, 52
2, 112179, Control_c, 0, 64, 51
2, 112204, Note_on_c, 0, 59, 0
2, 112237, Note_on_c, 0, 60, 53
2, 112241, Note_on_c, 0, 71, 66
2, 112281, Note_on_c, 0, 72, 0
2, 112302, Note_on_c, 0, 60, 0
2, 112320, Note_on_c, 0, 59, 57
2, 112360, Note_on_c, 0, 59, 0
2, 112400, Note_on_c, 0, 60, 53
2, 112431, Note_on_c, 0, 69, 58
2, 112445, Control_c, 0, 64, 52
2, 112454, Note_on_c, 0, 60, 0
2, 112473, Note_on_c, 0, 71, 0
2, 112476, Control_c, 0, 64, 52
2, 112482, Note_on_c, 0, 59, 50
2, 112521, Control_c, 0, 64, 53
2, 112536, Control_c, 0, 64, 53
2, 112573, Note_on_c, 0, 59, 0
2, 112589, Note_on_c, 0, 57, 54
2, 112592, Note_on_c, 0, 69, 0
2, 112608, Note_on_c, 0, 68, 59
2, 112642, Note_on_c, 0, 68, 0
2, 112679, Note_on_c, 0, 57, 0
2, 112709, Note_on_c, 0, 59, 55
2, 112765, Control_c, 0, 64, 52
2, 112780, Control_c, 0, 64, 47
2, 112782, Note_on_c, 0, 52, 0
2, 112792, Note_on_c, 0, 59, 0
2, 112796, Control_c, 0, 64, 28
2, 112806, Note_on_c, 0, 57, 54
2, 112810, Control_c, 0, 64, 0
2, 112815, Note_on_c, 0, 69, 63
2, 112843, Note_on_c, 0, 69, 0
2, 112849, Note_on_c, 0, 68, 69
2, 112898, Note_on_c, 0, 68, 0
2, 112908, Note_on_c, 0, 69, 71
2, 113189, Note_on_c, 0, 45, 53
2, 113560, Note_on_c, 0, 47, 61
2, 113627, Note_on_c, 0, 57, 0
2, 113660, Note_on_c, 0, 45, 0
2, 113734, Note_on_c, 0, 67, 48
2, 113769, Note_on_c, 0, 69, 0
2, 113919, Note_on_c, 0, 67, 0
2, 113926, Note_on_c, 0, 49, 62
2, 113931, Note_on_c, 0, 65, 42
2, 114020, Note_on_c, 0, 47, 0
2, 114089, Note_on_c, 0, 65, 0
2, 114114, Note_on_c, 0, 64, 40
2, 114225, Control_c, 0, 64, 9
2, 114271, Note_on_c, 0, 64, 0
2, 114277, Note_on_c, 0, 67, 53
2, 114289, Note_on_c, 0, 50, 66
2, 114344, Note_on_c, 0, 49, 0
2, 114363, Control_c, 0, 64, 11
2, 114439, Control_c, 0, 64, 12
2, 114440, Note_on_c, 0, 67, 0
2, 114451, Note_on_c, 0, 65, 44
2, 114454, Control_c, 0, 64, 13
2, 114470, Control_c, 0, 64, 15
2, 114499, Control_c, 0, 64, 16
2, 114522, Control_c, 0, 64, 17
2, 114552, Control_c, 0, 64, 17
2, 114567, Control_c, 0, 64, 18
2, 114583, Control_c, 0, 64, 19
2, 114598, Control_c, 0, 64, 20
2, 114613, Control_c, 0, 64, 21
2, 114627, Note_on_c, 0, 65, 0
2, 114644, Control_c, 0, 64, 21
2, 114644, Note_on_c, 0, 47, 68
2, 114659, Control_c, 0, 64, 22
2, 114659, Note_on_c, 0, 64, 51
2, 114675, Control_c, 0, 64, 23
2, 114689, Control_c, 0, 64, 25
2, 114703, Control_c, 0, 64, 27
2, 114707, Note_on_c, 0, 50, 0
2, 114718, Control_c, 0, 64, 29
2, 114733, Control_c, 0, 64, 30
2, 114748, Control_c, 0, 64, 32
2, 114763, Control_c, 0, 64, 33
2, 114778, Control_c, 0, 64, 35
2, 114794, Control_c, 0, 64, 36
2, 114802, Note_on_c, 0, 64, 0
2, 114809, Control_c, 0, 64, 38
2, 114817, Note_on_c, 0, 62, 45
2, 114825, Control_c, 0, 64, 38
2, 114840, Control_c, 0, 64, 39
2, 114870, Control_c, 0, 64, 40
2, 114931, Control_c, 0, 64, 40
2, 114947, Control_c, 0, 64, 41
2, 114976, Control_c, 0, 64, 41
2, 114990, Note_on_c, 0, 62, 0
2, 115002, Note_on_c, 0, 49, 51
2, 115007, Control_c, 0, 64, 42
2, 115007, Note_on_c, 0, 64, 55
2, 115009, Note_on_c, 0, 47, 0
2, 115023, Control_c, 0, 64, 42
2, 115037, Control_c, 0, 64, 43
2, 115068, Control_c, 0, 64, 43
2, 115082, Control_c, 0, 64, 44
2, 115097, Control_c, 0, 64, 44
2, 115113, Control_c, 0, 64, 45
2, 115129, Control_c, 0, 64, 45
2, 115145, Control_c, 0, 64, 46
2, 115160, Control_c, 0, 64, 47
2, 115161, Note_on_c, 0, 45, 52
2, 115175, Control_c, 0, 64, 47
2, 115188, Note_on_c, 0, 49, 0
2, 115190, Control_c, 0, 64, 48
2, 115220, Control_c, 0, 64, 48
2, 115251, Control_c, 0, 64, 49
2, 115281, Control_c, 0, 64, 49
2, 115305, Control_c, 0, 64, 50
2, 115320, Control_c, 0, 64, 51
2, 115334, Control_c, 0, 64, 52
2, 115350, Control_c, 0, 64, 53
2, 115357, Note_on_c, 0, 76, 75
2, 115365, Control_c, 0, 64, 54
2, 115365, Note_on_c, 0, 44, 47
2, 115377, Note_on_c, 0, 45, 0
2, 115380, Control_c, 0, 64, 55
2, 115395, Control_c, 0, 64, 57
2, 115410, Control_c, 0, 64, 58
2, 115426, Control_c, 0, 64, 59
2, 115441, Control_c, 0, 64, 61
2, 115456, Control_c, 0, 64, 62
2, 115471, Control_c, 0, 64, 63
2, 115486, Control_c, 0, 64, 64
2, 115502, Control_c, 0, 64, 65
2, 115516, Control_c, 0, 64, 65
2, 115516, Note_on_c, 0, 45, 55
2, 115547, Control_c, 0, 64, 66
2, 115548, Note_on_c, 0, 44, 0
2, 115577, Control_c, 0, 64, 65
2, 115617, Note_on_c, 0, 45, 0
2, 115638, Control_c, 0, 64, 65
2, 115668, Control_c, 0, 64, 64
2, 115698, Control_c, 0, 64, 64
2, 115710, Note_on_c, 0, 74, 72
2, 115714, Control_c, 0, 64, 63
2, 115714, Note_on_c, 0, 53, 53
2, 115729, Control_c, 0, 64, 63
2, 115745, Control_c, 0, 64, 62
2, 115757, Note_on_c, 0, 76, 0
2, 115760, Control_c, 0, 64, 61
2, 115775, Control_c, 0, 64, 60
2, 115791, Control_c, 0, 64, 58
2, 115805, Control_c, 0, 64, 57
2, 115820, Control_c, 0, 64, 55
2, 115836, Control_c, 0, 64, 53
2, 115839, Note_on_c, 0, 64, 0
2, 115851, Control_c, 0, 64, 51
2, 115867, Control_c, 0, 64, 50
2, 115881, Control_c, 0, 64, 49
2, 115912, Control_c, 0, 64, 49
2, 115926, Control_c, 0, 64, 47
2, 115942, Control_c, 0, 64, 46
2, 115959, Control_c, 0, 64, 45
2, 116004, Control_c, 0, 64, 44
2, 116019, Control_c, 0, 64, 43
2, 116034, Control_c, 0, 64, 42
2, 116069, Note_on_c, 0, 73, 77
2, 116071, Note_on_c, 0, 53, 0
2, 116087, Control_c, 0, 64, 42
2, 116103, Control_c, 0, 64, 40
2, 116115, Note_on_c, 0, 74, 0
2, 116118, Control_c, 0, 64, 39
2, 116132, Control_c, 0, 64, 39
2, 116148, Control_c, 0, 64, 38
2, 116163, Control_c, 0, 64, 38
2, 116209, Control_c, 0, 64, 37
2, 116422, Control_c, 0, 64, 38
2, 116428, Note_on_c, 0, 71, 65
2, 116430, Note_on_c, 0, 52, 50
2, 116451, Control_c, 0, 64, 38
2, 116469, Note_on_c, 0, 73, 0
2, 116482, Control_c, 0, 64, 39
2, 116485, Note_on_c, 0, 52, 0
2, 116497, Control_c, 0, 64, 39
2, 116511, Note_on_c, 0, 50, 55
2, 116527, Control_c, 0, 64, 40
2, 116573, Control_c, 0, 64, 40
2, 116583, Note_on_c, 0, 50, 0
2, 116589, Control_c, 0, 64, 41
2, 116603, Note_on_c, 0, 52, 50
2, 116618, Control_c, 0, 64, 41
2, 116665, Control_c, 0, 64, 42
2, 116665, Note_on_c, 0, 52, 0
2, 116688, Note_on_c, 0, 50, 53
2, 116738, Note_on_c, 0, 50, 0
2, 116740, Control_c, 0, 64, 42
2, 116746, Note_on_c, 0, 74, 63
2, 116772, Note_on_c, 0, 71, 0
2, 116784, Note_on_c, 0, 52, 54
2, 116802, Control_c, 0, 64, 43
2, 116839, Note_on_c, 0, 52, 0
2, 116866, Note_on_c, 0, 50, 57
2, 116885, Control_c, 0, 64, 43
2, 116916, Control_c, 0, 64, 44
2, 116931, Control_c, 0, 64, 44
2, 116932, Note_on_c, 0, 50, 0
2, 116948, Note_on_c, 0, 49, 58
2, 117035, Note_on_c, 0, 49, 0
2, 117069, Control_c, 0, 64, 45
2, 117086, Note_on_c, 0, 74, 0
2, 117123, Note_on_c, 0, 73, 68
2, 117129, Note_on_c, 0, 57, 59
2, 117281, Control_c, 0, 64, 45
2, 117282, Note_on_c, 0, 76, 66
2, 117309, Note_on_c, 0, 73, 0
2, 117447, Control_c, 0, 64, 46
2, 117459, Note_on_c, 0, 53, 43
2, 117460, Note_on_c, 0, 57, 0
2, 117466, Note_on_c, 0, 77, 67
2, 117492, Note_on_c, 0, 76, 0
2, 117493, Control_c, 0, 64, 46
2, 117569, Control_c, 0, 64, 47
2, 117635, Note_on_c, 0, 76, 70
2, 117665, Note_on_c, 0, 77, 0
2, 117669, Control_c, 0, 64, 47
2, 117702, Note_on_c, 0, 76, 0
2, 117802, Note_on_c, 0, 53, 0
2, 117805, Control_c, 0, 64, 48
2, 117815, Note_on_c, 0, 52, 40
2, 117835, Note_on_c, 0, 67, 63
2, 117851, Control_c, 0, 64, 48
2, 117927, Control_c, 0, 64, 49
2, 117989, Control_c, 0, 64, 49
2, 118135, Note_on_c, 0, 67, 0
2, 118143, Note_on_c, 0, 52, 0
2, 118158, Note_on_c, 0, 50, 46
2, 118246, Control_c, 0, 64, 50
2, 118521, Note_on_c, 0, 70, 56
2, 118526, Note_on_c, 0, 49, 36
2, 118563, Note_on_c, 0, 50, 0
2, 118604, Control_c, 0, 64, 50
2, 118877, Note_on_c, 0, 52, 46
2, 118899, Note_on_c, 0, 49, 0
2, 118923, Control_c, 0, 64, 51
2, 119059, Control_c, 0, 64, 51
2, 119211, Note_on_c, 0, 52, 0
2, 119225, Note_on_c, 0, 50, 40
2, 119296, Control_c, 0, 64, 52
2, 119393, Note_on_c, 0, 69, 59
2, 119408, Note_on_c, 0, 53, 43
2, 119454, Note_on_c, 0, 50, 0
2, 119484, Note_on_c, 0, 70, 0
2, 119509, Control_c, 0, 64, 52
2, 119524, Control_c, 0, 64, 54
2, 119538, Control_c, 0, 64, 56
2, 119554, Control_c, 0, 64, 59
2, 119564, Note_on_c, 0, 67, 62
2, 119566, Note_on_c, 0, 69, 0
2, 119567, Note_on_c, 0, 53, 0
2, 119569, Control_c, 0, 64, 61
2, 119572, Note_on_c, 0, 55, 48
2, 119585, Control_c, 0, 64, 62
2, 119600, Control_c, 0, 64, 63
2, 119615, Control_c, 0, 64, 64
2, 119631, Control_c, 0, 64, 65
2, 119646, Control_c, 0, 64, 66
2, 119660, Control_c, 0, 64, 68
2, 119676, Control_c, 0, 64, 69
2, 119691, Control_c, 0, 64, 70
2, 119707, Control_c, 0, 64, 71
2, 119722, Control_c, 0, 64, 71
2, 119732, Note_on_c, 0, 53, 41
2, 119733, Note_on_c, 0, 69, 65
2, 119736, Control_c, 0, 64, 72
2, 119739, Note_on_c, 0, 67, 0
2, 119744, Note_on_c, 0, 55, 0
2, 119767, Control_c, 0, 64, 71
2, 119812, Control_c, 0, 64, 71
2, 119828, Control_c, 0, 64, 70
2, 119829, Note_on_c, 0, 69, 0
2, 119843, Control_c, 0, 64, 70
2, 119858, Control_c, 0, 64, 69
2, 119873, Control_c, 0, 64, 68
2, 119888, Control_c, 0, 64, 67
2, 119902, Note_on_c, 0, 69, 56
2, 119903, Note_on_c, 0, 53, 0
2, 119912, Control_c, 0, 64, 65
2, 119918, Note_on_c, 0, 45, 50
2, 119927, Control_c, 0, 64, 63
2, 119943, Control_c, 0, 64, 61
2, 119957, Control_c, 0, 64, 58
2, 119972, Control_c, 0, 64, 56
2, 119988, Control_c, 0, 64, 53
2, 120003, Control_c, 0, 64, 50
2, 120018, Control_c, 0, 64, 48
2, 120033, Control_c, 0, 64, 46
2, 120049, Control_c, 0, 64, 45
2, 120065, Control_c, 0, 64, 45
2, 120079, Note_on_c, 0, 67, 59
2, 120080, Note_on_c, 0, 69, 0
2, 120110, Control_c, 0, 64, 44
2, 120159, Note_on_c, 0, 45, 0
2, 120216, Control_c, 0, 64, 45
2, 120227, Note_on_c, 0, 67, 0
2, 120232, Control_c, 0, 64, 46
2, 120247, Control_c, 0, 64, 48
2, 120254, Note_on_c, 0, 65, 49
2, 120262, Control_c, 0, 64, 50
2, 120277, Control_c, 0, 64, 51
2, 120292, Control_c, 0, 64, 53
2, 120307, Control_c, 0, 64, 54
2, 120322, Control_c, 0, 64, 56
2, 120337, Control_c, 0, 64, 59
2, 120353, Control_c, 0, 64, 61
2, 120368, Control_c, 0, 64, 62
2, 120383, Control_c, 0, 64, 64
2, 120398, Control_c, 0, 64, 65
2, 120413, Control_c, 0, 64, 67
2, 120429, Control_c, 0, 64, 68
2, 120440, Note_on_c, 0, 67, 60
2, 120444, Control_c, 0, 64, 69
2, 120458, Control_c, 0, 64, 70
2, 120474, Control_c, 0, 64, 71
2, 120474, Note_on_c, 0, 65, 0
2, 120517, Note_on_c, 0, 67, 0
2, 120535, Control_c, 0, 64, 71
2, 120551, Control_c, 0, 64, 70
2, 120580, Control_c, 0, 64, 69
2, 120582, Note_on_c, 0, 50, 55
2, 120588, Note_on_c, 0, 67, 60
2, 120596, Control_c, 0, 64, 68
2, 120611, Control_c, 0, 64, 66
2, 120627, Control_c, 0, 64, 65
2, 120642, Control_c, 0, 64, 63
2, 120649, Note_on_c, 0, 50, 0
2, 120664, Control_c, 0, 64, 60
2, 120678, Note_on_c, 0, 49, 46
2, 120679, Control_c, 0, 64, 58
2, 120694, Control_c, 0, 64, 55
2, 120710, Control_c, 0, 64, 53
2, 120725, Control_c, 0, 64, 51
2, 120731, Note_on_c, 0, 49, 0
2, 120740, Control_c, 0, 64, 50
2, 120756, Control_c, 0, 64, 48
2, 120756, Note_on_c, 0, 65, 56
2, 120757, Note_on_c, 0, 50, 50
2, 120770, Control_c, 0, 64, 47
2, 120786, Control_c, 0, 64, 47
2, 120801, Control_c, 0, 64, 46
2, 120801, Note_on_c, 0, 67, 0
2, 120810, Note_on_c, 0, 50, 0
2, 120816, Control_c, 0, 64, 45
2, 120832, Control_c, 0, 64, 45
2, 120841, Note_on_c, 0, 49, 46
2, 120846, Control_c, 0, 64, 44
2, 120891, Note_on_c, 0, 49, 0
2, 120903, Note_on_c, 0, 65, 0
2, 120930, Note_on_c, 0, 64, 48
2, 120932, Note_on_c, 0, 50, 45
2, 120964, Note_on_c, 0, 50, 0
2, 120998, Control_c, 0, 64, 46
2, 121000, Note_on_c, 0, 49, 45
2, 121013, Control_c, 0, 64, 48
2, 121027, Control_c, 0, 64, 51
2, 121043, Control_c, 0, 64, 54
2, 121047, Note_on_c, 0, 49, 0
2, 121058, Control_c, 0, 64, 56
2, 121074, Control_c, 0, 64, 60
2, 121078, Note_on_c, 0, 47, 43
2, 121089, Control_c, 0, 64, 62
2, 121098, Note_on_c, 0, 64, 0
2, 121103, Control_c, 0, 64, 64
2, 121112, Note_on_c, 0, 65, 47
2, 121119, Control_c, 0, 64, 65
2, 121134, Control_c, 0, 64, 66
2, 121137, Note_on_c, 0, 47, 0
2, 121149, Control_c, 0, 64, 67
2, 121164, Control_c, 0, 64, 68
2, 121172, Note_on_c, 0, 49, 41
2, 121179, Control_c, 0, 64, 68
2, 121229, Note_on_c, 0, 65, 0
2, 121240, Control_c, 0, 64, 68
2, 121255, Control_c, 0, 64, 67
2, 121271, Control_c, 0, 64, 67
2, 121286, Control_c, 0, 64, 66
2, 121292, Note_on_c, 0, 49, 0
2, 121300, Control_c, 0, 64, 65
2, 121316, Control_c, 0, 64, 63
2, 121331, Control_c, 0, 64, 61
2, 121331, Note_on_c, 0, 50, 33
2, 121332, Note_on_c, 0, 65, 36
2, 121346, Control_c, 0, 64, 59
2, 121362, Control_c, 0, 64, 54
2, 121377, Control_c, 0, 64, 49
2, 121393, Control_c, 0, 64, 43
2, 121407, Control_c, 0, 64, 36
2, 121430, Control_c, 0, 64, 34
2, 121460, Control_c, 0, 64, 41
2, 121476, Control_c, 0, 64, 51
2, 121490, Control_c, 0, 64, 57
2, 121505, Control_c, 0, 64, 61
2, 121521, Control_c, 0, 64, 63
2, 121536, Control_c, 0, 64, 64
2, 121552, Control_c, 0, 64, 66
2, 121566, Control_c, 0, 64, 67
2, 121581, Control_c, 0, 64, 69
2, 121597, Control_c, 0, 64, 70
2, 121612, Control_c, 0, 64, 71
2, 121627, Control_c, 0, 64, 72
2, 121643, Control_c, 0, 64, 73
2, 121658, Control_c, 0, 64, 75
2, 121674, Control_c, 0, 64, 76
2, 121689, Control_c, 0, 64, 77
2, 121704, Control_c, 0, 64, 78
2, 121715, Note_on_c, 0, 62, 54
2, 121765, Control_c, 0, 64, 79
2, 121780, Control_c, 0, 64, 80
2, 121796, Control_c, 0, 64, 83
2, 121811, Control_c, 0, 64, 85
2, 121826, Control_c, 0, 64, 87
2, 121842, Control_c, 0, 64, 89
2, 121857, Control_c, 0, 64, 89
2, 121902, Control_c, 0, 64, 89
2, 121918, Control_c, 0, 64, 88
2, 121933, Control_c, 0, 64, 87
2, 121947, Control_c, 0, 64, 87
2, 121963, Control_c, 0, 64, 86
2, 121978, Control_c, 0, 64, 85
2, 121993, Control_c, 0, 64, 84
2, 122008, Control_c, 0, 64, 83
2, 122023, Control_c, 0, 64, 82
2, 122039, Control_c, 0, 64, 80
2, 122052, Note_on_c, 0, 60, 63
2, 122054, Control_c, 0, 64, 78
2, 122069, Control_c, 0, 64, 77
2, 122084, Control_c, 0, 64, 76
2, 122099, Control_c, 0, 64, 75
2, 122114, Control_c, 0, 64, 74
2, 122129, Control_c, 0, 64, 72
2, 122144, Control_c, 0, 64, 70
2, 122160, Control_c, 0, 64, 69
2, 122171, Note_on_c, 0, 65, 0
2, 122198, Control_c, 0, 64, 69
2, 122213, Control_c, 0, 64, 68
2, 122227, Note_on_c, 0, 64, 40
2, 122229, Control_c, 0, 64, 68
2, 122244, Control_c, 0, 64, 67
2, 122350, Control_c, 0, 64, 67
2, 122380, Control_c, 0, 64, 66
2, 122386, Note_on_c, 0, 58, 68
2, 122396, Note_on_c, 0, 64, 0
2, 122407, Note_on_c, 0, 66, 41
2, 122425, Control_c, 0, 64, 66
2, 122441, Control_c, 0, 64, 65
2, 122445, Note_on_c, 0, 60, 0
2, 122447, Note_on_c, 0, 62, 0
2, 122456, Control_c, 0, 64, 65
2, 122487, Control_c, 0, 64, 64
2, 122502, Control_c, 0, 64, 64
2, 122572, Note_on_c, 0, 67, 48
2, 122578, Control_c, 0, 64, 63
2, 122578, Note_on_c, 0, 66, 0
2, 122671, Control_c, 0, 64, 63
2, 122716, Control_c, 0, 64, 62
2, 122731, Control_c, 0, 64, 62
2, 122746, Control_c, 0, 64, 61
2, 122746, Note_on_c, 0, 57, 58
2, 122756, Note_on_c, 0, 67, 0
2, 122761, Control_c, 0, 64, 61
2, 122770, Note_on_c, 0, 66, 51
2, 122776, Control_c, 0, 64, 60
2, 122792, Control_c, 0, 64, 59
2, 122807, Control_c, 0, 64, 57
2, 122811, Note_on_c, 0, 58, 0
2, 122822, Control_c, 0, 64, 55
2, 122837, Control_c, 0, 64, 55
2, 122867, Control_c, 0, 64, 56
2, 122883, Control_c, 0, 64, 57
2, 122898, Control_c, 0, 64, 59
2, 122913, Control_c, 0, 64, 60
2, 122928, Control_c, 0, 64, 62
2, 122932, Note_on_c, 0, 67, 46
2, 122943, Control_c, 0, 64, 63
2, 122959, Control_c, 0, 64, 63
2, 122997, Control_c, 0, 64, 64
2, 122998, Note_on_c, 0, 66, 0
2, 123088, Control_c, 0, 64, 63
2, 123119, Control_c, 0, 64, 63
2, 123129, Note_on_c, 0, 69, 57
2, 123133, Control_c, 0, 64, 62
2, 123134, Note_on_c, 0, 60, 52
2, 123147, Note_on_c, 0, 67, 0
2, 123148, Control_c, 0, 64, 61
2, 123164, Control_c, 0, 64, 59
2, 123166, Note_on_c, 0, 57, 0
2, 123178, Control_c, 0, 64, 57
2, 123194, Control_c, 0, 64, 56
2, 123209, Control_c, 0, 64, 55
2, 123240, Control_c, 0, 64, 55
2, 123254, Control_c, 0, 64, 57
2, 123270, Control_c, 0, 64, 61
2, 123285, Control_c, 0, 64, 64
2, 123292, Note_on_c, 0, 67, 52
2, 123300, Control_c, 0, 64, 66
2, 123316, Control_c, 0, 64, 68
2, 123332, Control_c, 0, 64, 71
2, 123346, Control_c, 0, 64, 73
2, 123350, Note_on_c, 0, 69, 0
2, 123362, Control_c, 0, 64, 74
2, 123422, Control_c, 0, 64, 74
2, 123426, Note_on_c, 0, 67, 0
2, 123438, Control_c, 0, 64, 73
2, 123453, Control_c, 0, 64, 73
2, 123468, Control_c, 0, 64, 72
2, 123484, Control_c, 0, 64, 70
2, 123498, Control_c, 0, 64, 69
2, 123501, Note_on_c, 0, 58, 47
2, 123514, Control_c, 0, 64, 68
2, 123516, Note_on_c, 0, 67, 24
2, 123529, Control_c, 0, 64, 66
2, 123531, Note_on_c, 0, 60, 0
2, 123544, Control_c, 0, 64, 64
2, 123560, Control_c, 0, 64, 61
2, 123575, Control_c, 0, 64, 58
2, 123591, Control_c, 0, 64, 56
2, 123620, Control_c, 0, 64, 58
2, 123625, Note_on_c, 0, 50, 0
2, 123636, Control_c, 0, 64, 61
2, 123651, Control_c, 0, 64, 64
2, 123666, Control_c, 0, 64, 67
2, 123681, Control_c, 0, 64, 70
2, 123683, Note_on_c, 0, 69, 38
2, 123696, Control_c, 0, 64, 72
2, 123712, Control_c, 0, 64, 73
2, 123738, Note_on_c, 0, 67, 0
2, 123780, Control_c, 0, 64, 73
2, 123796, Control_c, 0, 64, 72
2, 123810, Control_c, 0, 64, 72
2, 123838, Note_on_c, 0, 55, 65
2, 123841, Control_c, 0, 64, 71
2, 123856, Control_c, 0, 64, 70
2, 123857, Note_on_c, 0, 69, 0
2, 123858, Note_on_c, 0, 70, 50
2, 123872, Control_c, 0, 64, 69
2, 123887, Control_c, 0, 64, 67
2, 123901, Control_c, 0, 64, 65
2, 123917, Control_c, 0, 64, 64
2, 123947, Control_c, 0, 64, 65
2, 123963, Control_c, 0, 64, 66
2, 123977, Control_c, 0, 64, 69
2, 123993, Control_c, 0, 64, 71
2, 124006, Note_on_c, 0, 69, 57
2, 124008, Control_c, 0, 64, 74
2, 124022, Control_c, 0, 64, 76
2, 124027, Note_on_c, 0, 70, 0
2, 124038, Control_c, 0, 64, 76
2, 124123, Note_on_c, 0, 69, 0
2, 124129, Control_c, 0, 64, 75
2, 124145, Control_c, 0, 64, 75
2, 124161, Control_c, 0, 64, 74
2, 124176, Control_c, 0, 64, 73
2, 124186, Note_on_c, 0, 54, 68
2, 124191, Control_c, 0, 64, 71
2, 124191, Note_on_c, 0, 62, 64
2, 124206, Control_c, 0, 64, 68
2, 124206, Note_on_c, 0, 69, 59
2, 124221, Control_c, 0, 64, 63
2, 124230, Note_on_c, 0, 55, 0
2, 124236, Note_on_c, 0, 58, 0
2, 124237, Control_c, 0, 64, 55
2, 124251, Control_c, 0, 64, 48
2, 124266, Control_c, 0, 64, 46
2, 124282, Control_c, 0, 64, 48
2, 124297, Control_c, 0, 64, 55
2, 124313, Control_c, 0, 64, 62
2, 124327, Control_c, 0, 64, 66
2, 124342, Control_c, 0, 64, 70
2, 124358, Control_c, 0, 64, 74
2, 124364, Note_on_c, 0, 71, 70
2, 124373, Control_c, 0, 64, 77
2, 124388, Control_c, 0, 64, 79
2, 124404, Control_c, 0, 64, 80
2, 124411, Note_on_c, 0, 69, 0
2, 124419, Control_c, 0, 64, 80
2, 124464, Control_c, 0, 64, 80
2, 124480, Control_c, 0, 64, 79
2, 124502, Control_c, 0, 64, 79
2, 124518, Control_c, 0, 64, 78
2, 124532, Control_c, 0, 64, 76
2, 124547, Control_c, 0, 64, 73
2, 124550, Note_on_c, 0, 52, 75
2, 124554, Note_on_c, 0, 72, 71
2, 124563, Control_c, 0, 64, 69
2, 124564, Note_on_c, 0, 71, 0
2, 124567, Note_on_c, 0, 54, 0
2, 124578, Control_c, 0, 64, 64
2, 124594, Control_c, 0, 64, 59
2, 124608, Control_c, 0, 64, 53
2, 124623, Control_c, 0, 64, 52
2, 124639, Control_c, 0, 64, 53
2, 124654, Control_c, 0, 64, 58
2, 124670, Control_c, 0, 64, 63
2, 124685, Control_c, 0, 64, 66
2, 124700, Control_c, 0, 64, 70
2, 124713, Note_on_c, 0, 71, 77
2, 124716, Control_c, 0, 64, 76
2, 124731, Control_c, 0, 64, 79
2, 124735, Note_on_c, 0, 72, 0
2, 124746, Control_c, 0, 64, 80
2, 124762, Control_c, 0, 64, 81
2, 124776, Control_c, 0, 64, 81
2, 124792, Control_c, 0, 64, 82
2, 124838, Note_on_c, 0, 71, 0
2, 124867, Control_c, 0, 64, 81
2, 124883, Control_c, 0, 64, 81
2, 124897, Note_on_c, 0, 71, 72
2, 124898, Control_c, 0, 64, 80
2, 124904, Note_on_c, 0, 50, 62
2, 124914, Control_c, 0, 64, 78
2, 124929, Control_c, 0, 64, 75
2, 124943, Control_c, 0, 64, 69
2, 124956, Note_on_c, 0, 52, 0
2, 124960, Control_c, 0, 64, 61
2, 124975, Control_c, 0, 64, 48
2, 124991, Control_c, 0, 64, 42
2, 125006, Control_c, 0, 64, 43
2, 125021, Control_c, 0, 64, 49
2, 125036, Control_c, 0, 64, 58
2, 125051, Control_c, 0, 64, 63
2, 125066, Control_c, 0, 64, 66
2, 125075, Note_on_c, 0, 73, 84
2, 125082, Control_c, 0, 64, 71
2, 125096, Control_c, 0, 64, 76
2, 125112, Control_c, 0, 64, 80
2, 125127, Control_c, 0, 64, 84
2, 125127, Note_on_c, 0, 71, 0
2, 125142, Control_c, 0, 64, 87
2, 125158, Control_c, 0, 64, 91
2, 125172, Control_c, 0, 64, 94
2, 125187, Control_c, 0, 64, 97
2, 125248, Control_c, 0, 64, 96
2, 125272, Control_c, 0, 64, 95
2, 125284, Note_on_c, 0, 74, 88
2, 125286, Note_on_c, 0, 53, 59
2, 125287, Control_c, 0, 64, 93
2, 125301, Control_c, 0, 64, 89
2, 125308, Note_on_c, 0, 73, 0
2, 125317, Control_c, 0, 64, 81
2, 125332, Control_c, 0, 64, 69
2, 125347, Control_c, 0, 64, 61
2, 125363, Control_c, 0, 64, 59
2, 125377, Control_c, 0, 64, 63
2, 125393, Control_c, 0, 64, 66
2, 125401, Note_on_c, 0, 50, 0
2, 125408, Control_c, 0, 64, 70
2, 125422, Control_c, 0, 64, 75
2, 125438, Control_c, 0, 64, 82
2, 125452, Control_c, 0, 64, 86
2, 125467, Control_c, 0, 64, 88
2, 125499, Note_on_c, 0, 73, 90
2, 125536, Note_on_c, 0, 74, 0
2, 125544, Control_c, 0, 64, 88
2, 125560, Control_c, 0, 64, 90
2, 125574, Control_c, 0, 64, 93
2, 125590, Control_c, 0, 64, 97
2, 125605, Control_c, 0, 64, 101
2, 125620, Control_c, 0, 64, 105
2, 125635, Control_c, 0, 64, 108
2, 125650, Control_c, 0, 64, 109
2, 125665, Control_c, 0, 64, 108
2, 125681, Control_c, 0, 64, 105
2, 125696, Control_c, 0, 64, 103
2, 125711, Control_c, 0, 64, 102
2, 125732, Note_on_c, 0, 73, 0
2, 125741, Control_c, 0, 64, 100
2, 125757, Control_c, 0, 64, 93
2, 125772, Control_c, 0, 64, 86
2, 125774, Note_on_c, 0, 52, 46
2, 125785, Note_on_c, 0, 55, 46
2, 125788, Control_c, 0, 64, 80
2, 125803, Control_c, 0, 64, 76
2, 125803, Note_on_c, 0, 62, 0
2, 125818, Control_c, 0, 64, 73
2, 125834, Control_c, 0, 64, 71
2, 125834, Note_on_c, 0, 73, 71
2, 125849, Control_c, 0, 64, 67
2, 125864, Control_c, 0, 64, 63
2, 125879, Control_c, 0, 64, 55
2, 125887, Note_on_c, 0, 53, 0
2, 125894, Control_c, 0, 64, 42
2, 125910, Control_c, 0, 64, 0
2, 126054, Control_c, 0, 64, 25
2, 126068, Control_c, 0, 64, 49
2, 126084, Control_c, 0, 64, 57
2, 126099, Control_c, 0, 64, 60
2, 126115, Control_c, 0, 64, 62
2, 126130, Control_c, 0, 64, 63
2, 126144, Control_c, 0, 64, 63
2, 126160, Control_c, 0, 64, 64
2, 126175, Control_c, 0, 64, 65
2, 126191, Control_c, 0, 64, 66
2, 126206, Control_c, 0, 64, 67
2, 126219, Control_c, 0, 64, 69
2, 126235, Control_c, 0, 64, 71
2, 126250, Control_c, 0, 64, 72
2, 126265, Control_c, 0, 64, 72
2, 126280, Note_on_c, 0, 81, 77
2, 126296, Control_c, 0, 64, 73
2, 126312, Control_c, 0, 64, 74
2, 126335, Note_on_c, 0, 73, 0
2, 126471, Note_on_c, 0, 55, 0
2, 126478, Control_c, 0, 64, 74
2, 126554, Control_c, 0, 64, 73
2, 126584, Control_c, 0, 64, 73
2, 126632, Control_c, 0, 64, 72
2, 126647, Control_c, 0, 64, 72
2, 126651, Note_on_c, 0, 79, 79
2, 126661, Control_c, 0, 64, 71
2, 126677, Control_c, 0, 64, 71
2, 126692, Control_c, 0, 64, 70
2, 126704, Note_on_c, 0, 81, 0
2, 126706, Control_c, 0, 64, 70
2, 126722, Control_c, 0, 64, 69
2, 126737, Control_c, 0, 64, 69
2, 126753, Control_c, 0, 64, 68
2, 126768, Control_c, 0, 64, 68
2, 126782, Control_c, 0, 64, 67
2, 126788, Note_on_c, 0, 52, 0
2, 126806, Control_c, 0, 64, 66
2, 126821, Control_c, 0, 64, 66
2, 126837, Control_c, 0, 64, 65
2, 126839, Note_on_c, 0, 50, 58
2, 126866, Control_c, 0, 64, 65
2, 126897, Control_c, 0, 64, 64
2, 126927, Control_c, 0, 64, 64
2, 126958, Control_c, 0, 64, 63
2, 126973, Control_c, 0, 64, 63
2, 127003, Control_c, 0, 64, 62
2, 127018, Control_c, 0, 64, 62
2, 127025, Note_on_c, 0, 77, 71
2, 127027, Note_on_c, 0, 49, 40
2, 127041, Note_on_c, 0, 50, 0
2, 127049, Control_c, 0, 64, 61
2, 127063, Control_c, 0, 64, 61
2, 127094, Control_c, 0, 64, 60
2, 127094, Note_on_c, 0, 79, 0
2, 127110, Control_c, 0, 64, 59
2, 127125, Control_c, 0, 64, 59
2, 127143, Control_c, 0, 64, 58
2, 127158, Control_c, 0, 64, 58
2, 127172, Control_c, 0, 64, 57
2, 127188, Control_c, 0, 64, 57
2, 127200, Note_on_c, 0, 47, 44
2, 127220, Note_on_c, 0, 49, 0
2, 127264, Control_c, 0, 64, 56
2, 127279, Control_c, 0, 64, 56
2, 127310, Control_c, 0, 64, 55
2, 127324, Control_c, 0, 64, 54
2, 127355, Control_c, 0, 64, 54
2, 127370, Note_on_c, 0, 76, 62
2, 127394, Note_on_c, 0, 50, 34
2, 127400, Control_c, 0, 64, 53
2, 127416, Control_c, 0, 64, 53
2, 127427, Note_on_c, 0, 47, 0
2, 127431, Note_on_c, 0, 77, 0
2, 127432, Control_c, 0, 64, 52
2, 127447, Control_c, 0, 64, 52
2, 127463, Control_c, 0, 64, 51
2, 127492, Control_c, 0, 64, 51
2, 127508, Control_c, 0, 64, 50
2, 127523, Control_c, 0, 64, 49
2, 127558, Note_on_c, 0, 50, 0
2, 127561, Note_on_c, 0, 49, 43
2, 127592, Control_c, 0, 64, 48
2, 127637, Control_c, 0, 64, 48
2, 127683, Control_c, 0, 64, 47
2, 127736, Note_on_c, 0, 79, 59
2, 127741, Note_on_c, 0, 49, 0
2, 127745, Note_on_c, 0, 47, 39
2, 127775, Note_on_c, 0, 76, 0
2, 127901, Note_on_c, 0, 47, 0
2, 127917, Note_on_c, 0, 45, 41
2, 128077, Control_c, 0, 64, 48
2, 128115, Note_on_c, 0, 45, 0
2, 128115, Note_on_c, 0, 79, 0
2, 128122, Control_c, 0, 64, 48
2, 128124, Note_on_c, 0, 50, 29
2, 128127, Note_on_c, 0, 77, 54
2, 128153, Control_c, 0, 64, 49
2, 128167, Control_c, 0, 64, 49
2, 128183, Control_c, 0, 64, 50
2, 128198, Control_c, 0, 64, 51
2, 128213, Control_c, 0, 64, 52
2, 128229, Control_c, 0, 64, 55
2, 128245, Control_c, 0, 64, 60
2, 128259, Control_c, 0, 64, 63
2, 128275, Control_c, 0, 64, 64
2, 128290, Control_c, 0, 64, 66
2, 128296, Note_on_c, 0, 50, 0
2, 128306, Control_c, 0, 64, 69
2, 128321, Control_c, 0, 64, 71
2, 128336, Control_c, 0, 64, 74
2, 128347, Note_on_c, 0, 81, 43
2, 128359, Control_c, 0, 64, 76
2, 128374, Control_c, 0, 64, 77
2, 128387, Note_on_c, 0, 77, 0
2, 128390, Control_c, 0, 64, 77
2, 128419, Control_c, 0, 64, 77
2, 128435, Control_c, 0, 64, 76
2, 128450, Control_c, 0, 64, 76
2, 128466, Control_c, 0, 64, 75
2, 128480, Control_c, 0, 64, 73
2, 128495, Control_c, 0, 64, 72
2, 128511, Control_c, 0, 64, 70
2, 128518, Note_on_c, 0, 81, 0
2, 128527, Control_c, 0, 64, 68
2, 128533, Note_on_c, 0, 82, 58
2, 128539, Note_on_c, 0, 62, 59
2, 128543, Control_c, 0, 64, 67
2, 128557, Control_c, 0, 64, 65
2, 128572, Control_c, 0, 64, 62
2, 128588, Control_c, 0, 64, 60
2, 128602, Control_c, 0, 64, 61
2, 128617, Control_c, 0, 64, 63
2, 128633, Control_c, 0, 64, 66
2, 128648, Control_c, 0, 64, 69
2, 128664, Control_c, 0, 64, 73
2, 128678, Control_c, 0, 64, 77
2, 128692, Note_on_c, 0, 81, 47
2, 128693, Control_c, 0, 64, 81
2, 128709, Control_c, 0, 64, 84
2, 128722, Note_on_c, 0, 82, 0
2, 128724, Control_c, 0, 64, 87
2, 128735, Note_on_c, 0, 81, 0
2, 128738, Control_c, 0, 64, 89
2, 128754, Control_c, 0, 64, 90
2, 128769, Control_c, 0, 64, 90
2, 128785, Control_c, 0, 64, 89
2, 128799, Control_c, 0, 64, 88
2, 128814, Control_c, 0, 64, 87
2, 128830, Control_c, 0, 64, 85
2, 128845, Control_c, 0, 64, 82
2, 128860, Control_c, 0, 64, 79
2, 128876, Control_c, 0, 64, 76
2, 128891, Control_c, 0, 64, 72
2, 128896, Note_on_c, 0, 64, 58
2, 128907, Control_c, 0, 64, 66
2, 128912, Note_on_c, 0, 73, 53
2, 128922, Control_c, 0, 64, 61
2, 128936, Control_c, 0, 64, 56
2, 128952, Control_c, 0, 64, 50
2, 128967, Control_c, 0, 64, 43
2, 128983, Control_c, 0, 64, 28
2, 128986, Note_on_c, 0, 62, 0
2, 128998, Control_c, 0, 64, 0
2, 129183, Note_on_c, 0, 73, 0
2, 129263, Note_on_c, 0, 65, 65
2, 129292, Control_c, 0, 64, 23
2, 129307, Control_c, 0, 64, 26
2, 129323, Control_c, 0, 64, 27
2, 129338, Control_c, 0, 64, 27
2, 129354, Control_c, 0, 64, 29
2, 129366, Note_on_c, 0, 64, 0
2, 129368, Control_c, 0, 64, 31
2, 129383, Control_c, 0, 64, 33
2, 129399, Control_c, 0, 64, 34
2, 129430, Control_c, 0, 64, 34
2, 129444, Control_c, 0, 64, 36
2, 129459, Control_c, 0, 64, 37
2, 129475, Control_c, 0, 64, 38
2, 129505, Control_c, 0, 64, 38
2, 129535, Control_c, 0, 64, 39
2, 129551, Control_c, 0, 64, 40
2, 129622, Note_on_c, 0, 76, 60
2, 129632, Note_on_c, 0, 67, 64
2, 129702, Control_c, 0, 64, 40
2, 129711, Note_on_c, 0, 65, 0
2, 129840, Control_c, 0, 64, 41
2, 129854, Control_c, 0, 64, 43
2, 129893, Control_c, 0, 64, 43
2, 129908, Control_c, 0, 64, 44
2, 129924, Control_c, 0, 64, 44
2, 129939, Control_c, 0, 64, 45
2, 129954, Control_c, 0, 64, 46
2, 129969, Control_c, 0, 64, 47
2, 129984, Control_c, 0, 64, 48
2, 129995, Note_on_c, 0, 64, 61
2, 130000, Control_c, 0, 64, 49
2, 130014, Control_c, 0, 64, 51
2, 130030, Control_c, 0, 64, 52
2, 130041, Note_on_c, 0, 67, 0
2, 130045, Control_c, 0, 64, 53
2, 130060, Control_c, 0, 64, 54
2, 130076, Control_c, 0, 64, 55
2, 130090, Control_c, 0, 64, 57
2, 130105, Control_c, 0, 64, 59
2, 130121, Control_c, 0, 64, 60
2, 130136, Control_c, 0, 64, 61
2, 130152, Control_c, 0, 64, 63
2, 130167, Control_c, 0, 64, 64
2, 130182, Control_c, 0, 64, 65
2, 130198, Control_c, 0, 64, 66
2, 130212, Control_c, 0, 64, 67
2, 130243, Control_c, 0, 64, 67
2, 130258, Control_c, 0, 64, 68
2, 130274, Control_c, 0, 64, 69
2, 130274, Note_on_c, 0, 64, 0
2, 130288, Control_c, 0, 64, 70
2, 130303, Control_c, 0, 64, 71
2, 130319, Control_c, 0, 64, 71
2, 130330, Note_on_c, 0, 65, 64
2, 130334, Control_c, 0, 64, 72
2, 130350, Control_c, 0, 64, 73
2, 130363, Note_on_c, 0, 76, 0
2, 130364, Control_c, 0, 64, 74
2, 130379, Control_c, 0, 64, 75
2, 130395, Control_c, 0, 64, 76
2, 130410, Control_c, 0, 64, 77
2, 130424, Control_c, 0, 64, 78
2, 130440, Control_c, 0, 64, 79
2, 130455, Control_c, 0, 64, 79
2, 130487, Note_on_c, 0, 65, 0
2, 130495, Note_on_c, 0, 62, 65
2, 130516, Control_c, 0, 64, 79
2, 130531, Control_c, 0, 64, 78
2, 130546, Control_c, 0, 64, 77
2, 130562, Control_c, 0, 64, 77
2, 130576, Control_c, 0, 64, 76
2, 130592, Control_c, 0, 64, 75
2, 130607, Control_c, 0, 64, 74
2, 130622, Control_c, 0, 64, 71
2, 130638, Control_c, 0, 64, 68
2, 130660, Control_c, 0, 64, 66
2, 130664, Note_on_c, 0, 57, 49
2, 130676, Control_c, 0, 64, 63
2, 130683, Note_on_c, 0, 61, 66
2, 130687, Note_on_c, 0, 69, 64
2, 130691, Control_c, 0, 64, 60
2, 130692, Note_on_c, 0, 62, 0
2, 130707, Control_c, 0, 64, 53
2, 130722, Control_c, 0, 64, 43
2, 130737, Control_c, 0, 64, 37
2, 130753, Control_c, 0, 64, 32
2, 130768, Control_c, 0, 64, 32
2, 130798, Control_c, 0, 64, 39
2, 130813, Control_c, 0, 64, 51
2, 130828, Control_c, 0, 64, 60
2, 130843, Note_on_c, 0, 62, 75
2, 130844, Control_c, 0, 64, 64
2, 130848, Note_on_c, 0, 69, 0
2, 130856, Note_on_c, 0, 61, 0
2, 130858, Control_c, 0, 64, 66
2, 130874, Control_c, 0, 64, 69
2, 130889, Control_c, 0, 64, 71
2, 130904, Control_c, 0, 64, 72
2, 130920, Control_c, 0, 64, 73
2, 130930, Note_on_c, 0, 62, 0
2, 130950, Control_c, 0, 64, 73
2, 130965, Control_c, 0, 64, 72
2, 130980, Control_c, 0, 64, 72
2, 130996, Control_c, 0, 64, 71
2, 131011, Control_c, 0, 64, 69
2, 131025, Control_c, 0, 64, 67
2, 131041, Control_c, 0, 64, 65
2, 131048, Note_on_c, 0, 55, 44
2, 131056, Control_c, 0, 64, 63
2, 131068, Note_on_c, 0, 74, 67
2, 131072, Control_c, 0, 64, 61
2, 131072, Note_on_c, 0, 70, 59
2, 131077, Note_on_c, 0, 57, 0
2, 131087, Control_c, 0, 64, 58
2, 131102, Control_c, 0, 64, 51
2, 131118, Control_c, 0, 64, 41
2, 131132, Control_c, 0, 64, 26
2, 131147, Control_c, 0, 64, 0
2, 131299, Control_c, 0, 64, 22
2, 131315, Control_c, 0, 64, 39
2, 131329, Control_c, 0, 64, 48
2, 131344, Control_c, 0, 64, 53
2, 131360, Control_c, 0, 64, 56
2, 131375, Control_c, 0, 64, 58
2, 131390, Control_c, 0, 64, 59
2, 131405, Control_c, 0, 64, 60
2, 131405, Note_on_c, 0, 55, 0
2, 131424, Note_on_c, 0, 53, 47
2, 131428, Control_c, 0, 64, 60
2, 131430, Note_on_c, 0, 70, 0
2, 131489, Control_c, 0, 64, 61
2, 131504, Control_c, 0, 64, 61
2, 131520, Control_c, 0, 64, 62
2, 131536, Control_c, 0, 64, 62
2, 131552, Control_c, 0, 64, 63
2, 131581, Control_c, 0, 64, 63
2, 131596, Control_c, 0, 64, 64
2, 131626, Control_c, 0, 64, 64
2, 131687, Control_c, 0, 64, 64
2, 131771, Note_on_c, 0, 52, 37
2, 131778, Control_c, 0, 64, 63
2, 131794, Control_c, 0, 64, 63
2, 131804, Note_on_c, 0, 69, 59
2, 131804, Note_on_c, 0, 72, 61
2, 131809, Control_c, 0, 64, 62
2, 131823, Control_c, 0, 64, 61
2, 131823, Note_on_c, 0, 53, 0
2, 131836, Note_on_c, 0, 74, 0
2, 131839, Control_c, 0, 64, 58
2, 131850, Note_on_c, 0, 69, 0
2, 131854, Control_c, 0, 64, 52
2, 131870, Control_c, 0, 64, 43
2, 131885, Control_c, 0, 64, 29
2, 131885, Note_on_c, 0, 67, 63
2, 131899, Control_c, 0, 64, 0
2, 131946, Note_on_c, 0, 67, 0
2, 131975, Note_on_c, 0, 69, 58
2, 132013, Note_on_c, 0, 69, 0
2, 132049, Note_on_c, 0, 67, 62
2, 132089, Note_on_c, 0, 67, 0
2, 132125, Note_on_c, 0, 55, 37
2, 132135, Note_on_c, 0, 69, 56
2, 132182, Note_on_c, 0, 69, 0
2, 132196, Note_on_c, 0, 52, 0
2, 132203, Note_on_c, 0, 67, 65
2, 132277, Note_on_c, 0, 67, 0
2, 132301, Note_on_c, 0, 65, 53
2, 132346, Note_on_c, 0, 65, 0
2, 132380, Note_on_c, 0, 67, 58
2, 132428, Note_on_c, 0, 67, 0
2, 132439, Note_on_c, 0, 54, 37
2, 132439, Note_on_c, 0, 55, 0
2, 132477, Note_on_c, 0, 69, 53
2, 132517, Control_c, 0, 64, 11
2, 132532, Control_c, 0, 64, 43
2, 132546, Control_c, 0, 64, 52
2, 132562, Control_c, 0, 64, 56
2, 132577, Control_c, 0, 64, 60
2, 132593, Control_c, 0, 64, 62
2, 132608, Control_c, 0, 64, 64
2, 132622, Control_c, 0, 64, 66
2, 132638, Control_c, 0, 64, 69
2, 132639, Note_on_c, 0, 72, 0
2, 132642, Note_on_c, 0, 57, 43
2, 132653, Control_c, 0, 64, 71
2, 132667, Control_c, 0, 64, 74
2, 132674, Note_on_c, 0, 54, 0
2, 132683, Control_c, 0, 64, 77
2, 132698, Control_c, 0, 64, 79
2, 132714, Control_c, 0, 64, 81
2, 132744, Control_c, 0, 64, 80
2, 132760, Control_c, 0, 64, 80
2, 132774, Control_c, 0, 64, 79
2, 132790, Control_c, 0, 64, 78
2, 132805, Control_c, 0, 64, 77
2, 132812, Note_on_c, 0, 58, 48
2, 132820, Control_c, 0, 64, 75
2, 132821, Note_on_c, 0, 75, 76
2, 132836, Control_c, 0, 64, 73
2, 132851, Control_c, 0, 64, 71
2, 132861, Note_on_c, 0, 57, 0
2, 132865, Control_c, 0, 64, 69
2, 132881, Control_c, 0, 64, 68
2, 132896, Control_c, 0, 64, 67
2, 132927, Control_c, 0, 64, 67
2, 132948, Control_c, 0, 64, 66
2, 132964, Control_c, 0, 64, 65
2, 132979, Control_c, 0, 64, 65
2, 132998, Note_on_c, 0, 58, 0
2, 133001, Note_on_c, 0, 57, 46
2, 133025, Control_c, 0, 64, 64
2, 133041, Control_c, 0, 64, 64
2, 133056, Control_c, 0, 64, 63
2, 133117, Control_c, 0, 64, 62
2, 133132, Control_c, 0, 64, 62
2, 133147, Control_c, 0, 64, 61
2, 133178, Control_c, 0, 64, 60
2, 133191, Note_on_c, 0, 54, 48
2, 133193, Note_on_c, 0, 50, 37
2, 133194, Control_c, 0, 64, 59
2, 133196, Note_on_c, 0, 57, 0
2, 133209, Control_c, 0, 64, 58
2, 133224, Control_c, 0, 64, 56
2, 133240, Control_c, 0, 64, 55
2, 133254, Control_c, 0, 64, 54
2, 133270, Control_c, 0, 64, 54
2, 133285, Control_c, 0, 64, 52
2, 133300, Control_c, 0, 64, 51
2, 133315, Control_c, 0, 64, 50
2, 133330, Control_c, 0, 64, 50
2, 133334, Note_on_c, 0, 74, 63
2, 133368, Note_on_c, 0, 54, 0
2, 133417, Note_on_c, 0, 75, 0
2, 133421, Control_c, 0, 64, 51
2, 133437, Control_c, 0, 64, 52
2, 133452, Control_c, 0, 64, 53
2, 133466, Control_c, 0, 64, 54
2, 133482, Control_c, 0, 64, 55
2, 133497, Control_c, 0, 64, 56
2, 133512, Control_c, 0, 64, 58
2, 133527, Control_c, 0, 64, 60
2, 133528, Note_on_c, 0, 72, 64
2, 133542, Control_c, 0, 64, 61
2, 133544, Note_on_c, 0, 74, 0
2, 133558, Control_c, 0, 64, 62
2, 133573, Control_c, 0, 64, 64
2, 133587, Control_c, 0, 64, 65
2, 133603, Control_c, 0, 64, 66
2, 133618, Control_c, 0, 64, 68
2, 133634, Control_c, 0, 64, 70
2, 133649, Control_c, 0, 64, 72
2, 133664, Control_c, 0, 64, 74
2, 133680, Control_c, 0, 64, 74
2, 133700, Note_on_c, 0, 74, 59
2, 133702, Note_on_c, 0, 72, 0
2, 133747, Control_c, 0, 64, 74
2, 133778, Control_c, 0, 64, 73
2, 133793, Control_c, 0, 64, 73
2, 133808, Control_c, 0, 64, 72
2, 133815, Note_on_c, 0, 74, 0
2, 133823, Control_c, 0, 64, 71
2, 133839, Control_c, 0, 64, 70
2, 133854, Control_c, 0, 64, 69
2, 133870, Control_c, 0, 64, 67
2, 133885, Control_c, 0, 64, 66
2, 133893, Note_on_c, 0, 54, 39
2, 133893, Note_on_c, 0, 74, 60
2, 133894, Note_on_c, 0, 57, 33
2, 133899, Control_c, 0, 64, 64
2, 133902, Note_on_c, 0, 69, 0
2, 133915, Control_c, 0, 64, 62
2, 133930, Control_c, 0, 64, 60
2, 133945, Control_c, 0, 64, 58
2, 133951, Note_on_c, 0, 50, 0
2, 133961, Control_c, 0, 64, 56
2, 133976, Control_c, 0, 64, 57
2, 133992, Control_c, 0, 64, 58
2, 134007, Control_c, 0, 64, 60
2, 134022, Control_c, 0, 64, 61
2, 134038, Control_c, 0, 64, 62
2, 134053, Control_c, 0, 64, 63
2, 134067, Control_c, 0, 64, 64
2, 134071, Note_on_c, 0, 74, 0
2, 134077, Note_on_c, 0, 72, 62
2, 134083, Control_c, 0, 64, 64
2, 134098, Control_c, 0, 64, 65
2, 134129, Control_c, 0, 64, 65
2, 134144, Control_c, 0, 64, 66
2, 134159, Control_c, 0, 64, 68
2, 134174, Control_c, 0, 64, 69
2, 134175, Note_on_c, 0, 54, 0
2, 134190, Control_c, 0, 64, 69
2, 134192, Note_on_c, 0, 57, 0
2, 134205, Control_c, 0, 64, 70
2, 134227, Note_on_c, 0, 72, 0
2, 134242, Note_on_c, 0, 70, 55
2, 134250, Control_c, 0, 64, 70
2, 134281, Control_c, 0, 64, 71
2, 134296, Control_c, 0, 64, 71
2, 134311, Control_c, 0, 64, 72
2, 134415, Note_on_c, 0, 72, 63
2, 134417, Control_c, 0, 64, 71
2, 134422, Note_on_c, 0, 70, 0
2, 134432, Control_c, 0, 64, 71
2, 134501, Control_c, 0, 64, 70
2, 134516, Control_c, 0, 64, 70
2, 134519, Note_on_c, 0, 72, 0
2, 134531, Control_c, 0, 64, 69
2, 134546, Control_c, 0, 64, 69
2, 134576, Control_c, 0, 64, 68
2, 134583, Note_on_c, 0, 43, 41
2, 134587, Note_on_c, 0, 72, 57
2, 134592, Control_c, 0, 64, 67
2, 134607, Control_c, 0, 64, 66
2, 134622, Control_c, 0, 64, 66
2, 134638, Control_c, 0, 64, 65
2, 134652, Control_c, 0, 64, 64
2, 134667, Control_c, 0, 64, 63
2, 134683, Control_c, 0, 64, 62
2, 134697, Control_c, 0, 64, 60
2, 134713, Control_c, 0, 64, 58
2, 134728, Control_c, 0, 64, 57
2, 134737, Note_on_c, 0, 43, 0
2, 134743, Control_c, 0, 64, 56
2, 134757, Note_on_c, 0, 70, 60
2, 134759, Control_c, 0, 64, 54
2, 134761, Note_on_c, 0, 72, 0
2, 134774, Control_c, 0, 64, 51
2, 134774, Note_on_c, 0, 55, 44
2, 134790, Control_c, 0, 64, 49
2, 134805, Control_c, 0, 64, 49
2, 134865, Control_c, 0, 64, 48
2, 134912, Control_c, 0, 64, 49
2, 134912, Note_on_c, 0, 70, 0
2, 134933, Note_on_c, 0, 54, 51
2, 134934, Note_on_c, 0, 69, 58
2, 134943, Note_on_c, 0, 55, 0
2, 134988, Control_c, 0, 64, 49
2, 135003, Control_c, 0, 64, 50
2, 135064, Control_c, 0, 64, 50
2, 135070, Note_on_c, 0, 54, 0
2, 135079, Control_c, 0, 64, 51
2, 135089, Note_on_c, 0, 55, 44
2, 135097, Note_on_c, 0, 69, 0
2, 135098, Note_on_c, 0, 70, 61
2, 135155, Control_c, 0, 64, 52
2, 135170, Control_c, 0, 64, 53
2, 135246, Control_c, 0, 64, 53
2, 135247, Note_on_c, 0, 55, 0
2, 135284, Control_c, 0, 64, 54
2, 135286, Note_on_c, 0, 48, 35
2, 135286, Note_on_c, 0, 52, 30
2, 135306, Note_on_c, 0, 74, 48
2, 135331, Note_on_c, 0, 70, 0
2, 135375, Control_c, 0, 64, 54
2, 135406, Control_c, 0, 64, 55
2, 135451, Note_on_c, 0, 72, 59
2, 135460, Note_on_c, 0, 52, 0
2, 135463, Note_on_c, 0, 74, 0
2, 135466, Control_c, 0, 64, 55
2, 135496, Control_c, 0, 64, 56
2, 135527, Control_c, 0, 64, 56
2, 135541, Control_c, 0, 64, 58
2, 135557, Control_c, 0, 64, 59
2, 135572, Control_c, 0, 64, 60
2, 135587, Control_c, 0, 64, 61
2, 135603, Control_c, 0, 64, 62
2, 135619, Control_c, 0, 64, 63
2, 135624, Note_on_c, 0, 70, 60
2, 135634, Control_c, 0, 64, 65
2, 135638, Note_on_c, 0, 72, 0
2, 135649, Control_c, 0, 64, 66
2, 135664, Control_c, 0, 64, 68
2, 135680, Control_c, 0, 64, 70
2, 135695, Control_c, 0, 64, 72
2, 135710, Control_c, 0, 64, 74
2, 135725, Control_c, 0, 64, 75
2, 135740, Control_c, 0, 64, 77
2, 135756, Control_c, 0, 64, 78
2, 135771, Control_c, 0, 64, 79
2, 135798, Note_on_c, 0, 72, 54
2, 135802, Control_c, 0, 64, 79
2, 135832, Control_c, 0, 64, 78
2, 135841, Note_on_c, 0, 70, 0
2, 135847, Control_c, 0, 64, 78
2, 135862, Control_c, 0, 64, 77
2, 135878, Control_c, 0, 64, 77
2, 135893, Control_c, 0, 64, 76
2, 135901, Note_on_c, 0, 72, 0
2, 135908, Control_c, 0, 64, 76
2, 135923, Control_c, 0, 64, 74
2, 135938, Control_c, 0, 64, 73
2, 135954, Control_c, 0, 64, 71
2, 135968, Control_c, 0, 64, 69
2, 135975, Note_on_c, 0, 72, 52
2, 135983, Control_c, 0, 64, 67
2, 135991, Note_on_c, 0, 52, 37
2, 135997, Note_on_c, 0, 55, 27
2, 135999, Control_c, 0, 64, 66
2, 136021, Control_c, 0, 64, 64
2, 136037, Control_c, 0, 64, 61
2, 136040, Note_on_c, 0, 48, 0
2, 136052, Control_c, 0, 64, 57
2, 136067, Control_c, 0, 64, 54
2, 136083, Control_c, 0, 64, 53
2, 136112, Note_on_c, 0, 72, 0
2, 136114, Control_c, 0, 64, 54
2, 136128, Control_c, 0, 64, 55
2, 136140, Note_on_c, 0, 70, 59
2, 136143, Control_c, 0, 64, 58
2, 136159, Control_c, 0, 64, 61
2, 136174, Control_c, 0, 64, 63
2, 136177, Note_on_c, 0, 55, 0
2, 136188, Control_c, 0, 64, 64
2, 136208, Control_c, 0, 64, 65
2, 136224, Control_c, 0, 64, 66
2, 136254, Control_c, 0, 64, 67
2, 136269, Control_c, 0, 64, 68
2, 136284, Control_c, 0, 64, 71
2, 136300, Control_c, 0, 64, 74
2, 136315, Control_c, 0, 64, 76
2, 136322, Note_on_c, 0, 70, 0
2, 136329, Note_on_c, 0, 52, 0
2, 136330, Control_c, 0, 64, 76
2, 136341, Note_on_c, 0, 69, 58
2, 136345, Control_c, 0, 64, 78
2, 136360, Control_c, 0, 64, 80
2, 136376, Control_c, 0, 64, 83
2, 136390, Control_c, 0, 64, 85
2, 136405, Control_c, 0, 64, 86
2, 136421, Control_c, 0, 64, 87
2, 136437, Control_c, 0, 64, 87
2, 136468, Control_c, 0, 64, 87
2, 136498, Control_c, 0, 64, 86
2, 136511, Note_on_c, 0, 70, 61
2, 136513, Control_c, 0, 64, 85
2, 136522, Note_on_c, 0, 69, 0
2, 136528, Control_c, 0, 64, 85
2, 136544, Control_c, 0, 64, 84
2, 136558, Control_c, 0, 64, 83
2, 136573, Control_c, 0, 64, 83
2, 136589, Control_c, 0, 64, 82
2, 136604, Control_c, 0, 64, 81
2, 136610, Note_on_c, 0, 70, 0
2, 136620, Control_c, 0, 64, 80
2, 136634, Control_c, 0, 64, 78
2, 136649, Control_c, 0, 64, 76
2, 136665, Control_c, 0, 64, 74
2, 136678, Note_on_c, 0, 41, 38
2, 136680, Control_c, 0, 64, 71
2, 136686, Note_on_c, 0, 70, 59
2, 136696, Control_c, 0, 64, 69
2, 136711, Control_c, 0, 64, 67
2, 136726, Control_c, 0, 64, 64
2, 136742, Control_c, 0, 64, 62
2, 136757, Control_c, 0, 64, 60
2, 136771, Control_c, 0, 64, 59
2, 136794, Control_c, 0, 64, 58
2, 136854, Control_c, 0, 64, 57
2, 136860, Note_on_c, 0, 69, 62
2, 136867, Note_on_c, 0, 41, 0
2, 136868, Note_on_c, 0, 53, 44
2, 136931, Note_on_c, 0, 70, 0
2, 137011, Note_on_c, 0, 69, 0
2, 137025, Note_on_c, 0, 52, 44
2, 137026, Note_on_c, 0, 53, 0
2, 137036, Control_c, 0, 64, 57
2, 137036, Note_on_c, 0, 67, 58
2, 137148, Note_on_c, 0, 52, 0
2, 137173, Control_c, 0, 64, 57
2, 137184, Note_on_c, 0, 53, 48
2, 137185, Note_on_c, 0, 67, 0
2, 137199, Note_on_c, 0, 69, 61
2, 137203, Control_c, 0, 64, 58
2, 137234, Control_c, 0, 64, 58
2, 137367, Note_on_c, 0, 53, 0
2, 137381, Note_on_c, 0, 50, 41
2, 137384, Note_on_c, 0, 69, 0
2, 137384, Note_on_c, 0, 72, 57
2, 137391, Note_on_c, 0, 46, 40
2, 137402, Control_c, 0, 64, 58
2, 137546, Note_on_c, 0, 70, 62
2, 137561, Control_c, 0, 64, 58
2, 137573, Note_on_c, 0, 50, 0
2, 137587, Note_on_c, 0, 72, 0
2, 137728, Note_on_c, 0, 70, 0
2, 137741, Note_on_c, 0, 69, 56
2, 137744, Control_c, 0, 64, 59
2, 137774, Control_c, 0, 64, 59
2, 137790, Control_c, 0, 64, 61
2, 137805, Control_c, 0, 64, 62
2, 137820, Control_c, 0, 64, 63
2, 137835, Control_c, 0, 64, 63
2, 137850, Control_c, 0, 64, 64
2, 137865, Control_c, 0, 64, 65
2, 137880, Control_c, 0, 64, 66
2, 137896, Control_c, 0, 64, 68
2, 137911, Control_c, 0, 64, 69
2, 137912, Note_on_c, 0, 70, 57
2, 137917, Note_on_c, 0, 69, 0
2, 137926, Control_c, 0, 64, 71
2, 137941, Control_c, 0, 64, 72
2, 137956, Control_c, 0, 64, 73
2, 137971, Control_c, 0, 64, 74
2, 137987, Control_c, 0, 64, 74
2, 138014, Note_on_c, 0, 70, 0
2, 138018, Control_c, 0, 64, 74
2, 138032, Control_c, 0, 64, 73
2, 138047, Control_c, 0, 64, 72
2, 138063, Control_c, 0, 64, 71
2, 138074, Note_on_c, 0, 70, 45
2, 138079, Control_c, 0, 64, 69
2, 138085, Note_on_c, 0, 46, 0
2, 138094, Control_c, 0, 64, 67
2, 138098, Note_on_c, 0, 53, 35
2, 138101, Note_on_c, 0, 50, 40
2, 138109, Control_c, 0, 64, 64
2, 138124, Control_c, 0, 64, 62
2, 138140, Control_c, 0, 64, 60
2, 138155, Control_c, 0, 64, 57
2, 138170, Control_c, 0, 64, 54
2, 138185, Control_c, 0, 64, 52
2, 138200, Control_c, 0, 64, 53
2, 138216, Control_c, 0, 64, 54
2, 138224, Note_on_c, 0, 53, 0
2, 138231, Control_c, 0, 64, 56
2, 138246, Control_c, 0, 64, 59
2, 138261, Control_c, 0, 64, 62
2, 138264, Note_on_c, 0, 69, 49
2, 138276, Control_c, 0, 64, 64
2, 138291, Control_c, 0, 64, 65
2, 138307, Control_c, 0, 64, 67
2, 138329, Control_c, 0, 64, 69
2, 138331, Note_on_c, 0, 70, 0
2, 138345, Control_c, 0, 64, 71
2, 138360, Control_c, 0, 64, 73
2, 138376, Control_c, 0, 64, 75
2, 138390, Control_c, 0, 64, 78
2, 138405, Control_c, 0, 64, 80
2, 138421, Control_c, 0, 64, 81
2, 138421, Note_on_c, 0, 69, 0
2, 138422, Note_on_c, 0, 50, 0
2, 138436, Control_c, 0, 64, 83
2, 138451, Control_c, 0, 64, 85
2, 138456, Note_on_c, 0, 67, 44
2, 138466, Control_c, 0, 64, 87
2, 138481, Control_c, 0, 64, 88
2, 138497, Control_c, 0, 64, 89
2, 138587, Control_c, 0, 64, 89
2, 138616, Note_on_c, 0, 69, 50
2, 138618, Control_c, 0, 64, 88
2, 138622, Note_on_c, 0, 67, 0
2, 138632, Control_c, 0, 64, 88
2, 138647, Control_c, 0, 64, 87
2, 138663, Control_c, 0, 64, 86
2, 138678, Control_c, 0, 64, 85
2, 138693, Control_c, 0, 64, 84
2, 138704, Note_on_c, 0, 69, 0
2, 138708, Control_c, 0, 64, 83
2, 138723, Control_c, 0, 64, 81
2, 138739, Control_c, 0, 64, 79
2, 138754, Control_c, 0, 64, 76
2, 138769, Control_c, 0, 64, 73
2, 138783, Note_on_c, 0, 69, 48
2, 138785, Control_c, 0, 64, 70
2, 138787, Note_on_c, 0, 52, 40
2, 138799, Control_c, 0, 64, 68
2, 138814, Control_c, 0, 64, 66
2, 138830, Control_c, 0, 64, 64
2, 138845, Control_c, 0, 64, 62
2, 138861, Control_c, 0, 64, 60
2, 138875, Control_c, 0, 64, 59
2, 138891, Control_c, 0, 64, 58
2, 138907, Control_c, 0, 64, 56
2, 138922, Control_c, 0, 64, 54
2, 138937, Control_c, 0, 64, 53
2, 138952, Note_on_c, 0, 67, 54
2, 138967, Control_c, 0, 64, 53
2, 138967, Note_on_c, 0, 69, 0
2, 138983, Control_c, 0, 64, 52
2, 138998, Control_c, 0, 64, 51
2, 139013, Control_c, 0, 64, 50
2, 139117, Note_on_c, 0, 67, 0
2, 139141, Note_on_c, 0, 65, 52
2, 139146, Note_on_c, 0, 53, 47
2, 139186, Control_c, 0, 64, 51
2, 139201, Control_c, 0, 64, 51
2, 139246, Control_c, 0, 64, 53
2, 139261, Control_c, 0, 64, 54
2, 139277, Control_c, 0, 64, 57
2, 139292, Control_c, 0, 64, 60
2, 139298, Note_on_c, 0, 65, 0
2, 139304, Note_on_c, 0, 67, 56
2, 139308, Control_c, 0, 64, 62
2, 139323, Control_c, 0, 64, 62
2, 139361, Note_on_c, 0, 67, 0
2, 139399, Control_c, 0, 64, 62
2, 139414, Control_c, 0, 64, 61
2, 139429, Control_c, 0, 64, 60
2, 139444, Control_c, 0, 64, 59
2, 139459, Control_c, 0, 64, 57
2, 139474, Control_c, 0, 64, 54
2, 139489, Control_c, 0, 64, 50
2, 139500, Note_on_c, 0, 76, 63
2, 139505, Control_c, 0, 64, 45
2, 139507, Note_on_c, 0, 55, 52
2, 139520, Control_c, 0, 64, 40
2, 139534, Note_on_c, 0, 53, 0
2, 139535, Control_c, 0, 64, 36
2, 139550, Control_c, 0, 64, 28
2, 139565, Control_c, 0, 64, 0
2, 139860, Control_c, 0, 64, 42
2, 139861, Note_on_c, 0, 57, 64
2, 139873, Note_on_c, 0, 76, 0
2, 139876, Control_c, 0, 64, 55
2, 139891, Control_c, 0, 64, 59
2, 139906, Control_c, 0, 64, 61
2, 139921, Control_c, 0, 64, 62
2, 139936, Control_c, 0, 64, 63
2, 139952, Control_c, 0, 64, 64
2, 139967, Control_c, 0, 64, 65
2, 139981, Note_on_c, 0, 55, 0
2, 139982, Control_c, 0, 64, 67
2, 139997, Control_c, 0, 64, 68
2, 140012, Control_c, 0, 64, 70
2, 140027, Control_c, 0, 64, 72
2, 140044, Control_c, 0, 64, 73
2, 140059, Control_c, 0, 64, 75
2, 140074, Control_c, 0, 64, 75
2, 140104, Control_c, 0, 64, 75
2, 140165, Control_c, 0, 64, 74
2, 140180, Control_c, 0, 64, 74
2, 140195, Control_c, 0, 64, 72
2, 140210, Control_c, 0, 64, 71
2, 140225, Control_c, 0, 64, 70
2, 140239, Control_c, 0, 64, 70
2, 140244, Note_on_c, 0, 74, 68
2, 140246, Note_on_c, 0, 58, 55
2, 140252, Note_on_c, 0, 57, 0
2, 140254, Control_c, 0, 64, 69
2, 140269, Control_c, 0, 64, 68
2, 140285, Control_c, 0, 64, 65
2, 140299, Control_c, 0, 64, 61
2, 140314, Control_c, 0, 64, 54
2, 140324, Note_on_c, 0, 73, 73
2, 140324, Note_on_c, 0, 74, 0
2, 140330, Control_c, 0, 64, 43
2, 140345, Control_c, 0, 64, 23
2, 140361, Control_c, 0, 64, 0
2, 140410, Note_on_c, 0, 73, 0
2, 140411, Note_on_c, 0, 74, 78
2, 140492, Note_on_c, 0, 74, 0
2, 140498, Note_on_c, 0, 73, 72
2, 140564, Note_on_c, 0, 73, 0
2, 140566, Note_on_c, 0, 55, 47
2, 140584, Note_on_c, 0, 58, 0
2, 140587, Note_on_c, 0, 74, 78
2, 140669, Note_on_c, 0, 74, 0
2, 140682, Note_on_c, 0, 73, 77
2, 140703, Control_c, 0, 64, 24
2, 140719, Control_c, 0, 64, 43
2, 140734, Control_c, 0, 64, 54
2, 140749, Control_c, 0, 64, 60
2, 140755, Note_on_c, 0, 73, 0
2, 140758, Note_on_c, 0, 55, 0
2, 140764, Control_c, 0, 64, 63
2, 140766, Note_on_c, 0, 71, 73
2, 140779, Control_c, 0, 64, 65
2, 140794, Control_c, 0, 64, 68
2, 140810, Control_c, 0, 64, 70
2, 140825, Control_c, 0, 64, 73
2, 140840, Control_c, 0, 64, 75
2, 140850, Note_on_c, 0, 73, 72
2, 140851, Note_on_c, 0, 71, 0
2, 140855, Control_c, 0, 64, 76
2, 140869, Note_on_c, 0, 52, 0
2, 140886, Control_c, 0, 64, 75
2, 140891, Note_on_c, 0, 73, 0
2, 140901, Control_c, 0, 64, 74
2, 140915, Control_c, 0, 64, 73
2, 140931, Control_c, 0, 64, 71
2, 140946, Control_c, 0, 64, 68
2, 140961, Control_c, 0, 64, 63
2, 140976, Control_c, 0, 64, 56
2, 140987, Note_on_c, 0, 74, 66
2, 140991, Control_c, 0, 64, 40
2, 141000, Note_on_c, 0, 53, 46
2, 141007, Control_c, 0, 64, 0
2, 141013, Note_on_c, 0, 57, 37
2, 141083, Control_c, 0, 64, 43
2, 141098, Control_c, 0, 64, 60
2, 141112, Control_c, 0, 64, 65
2, 141128, Control_c, 0, 64, 70
2, 141143, Control_c, 0, 64, 75
2, 141152, Note_on_c, 0, 57, 0
2, 141155, Note_on_c, 0, 53, 0
2, 141159, Control_c, 0, 64, 82
2, 141174, Control_c, 0, 64, 92
2, 141189, Control_c, 0, 64, 107
2, 141205, Control_c, 0, 64, 127
2, 141456, Control_c, 0, 64, 113
2, 141470, Control_c, 0, 64, 104
2, 141485, Note_on_c, 0, 53, 65
2, 141486, Control_c, 0, 64, 94
2, 141486, Note_on_c, 0, 50, 64
2, 141501, Control_c, 0, 64, 83
2, 141517, Control_c, 0, 64, 72
2, 141532, Control_c, 0, 64, 65
2, 141547, Control_c, 0, 64, 58
2, 141563, Control_c, 0, 64, 49
2, 141577, Control_c, 0, 64, 34
2, 141592, Control_c, 0, 64, 0
2, 141639, Control_c, 0, 64, 17
2, 141654, Control_c, 0, 64, 44
2, 141669, Control_c, 0, 64, 57
2, 141684, Control_c, 0, 64, 62
2, 141699, Control_c, 0, 64, 65
2, 141714, Control_c, 0, 64, 67
2, 141730, Control_c, 0, 64, 70
2, 141745, Control_c, 0, 64, 72
2, 141747, Note_on_c, 0, 53, 0
2, 141760, Control_c, 0, 64, 74
2, 141775, Control_c, 0, 64, 74
2, 141820, Control_c, 0, 64, 74
2, 141851, Control_c, 0, 64, 73
2, 141866, Control_c, 0, 64, 72
2, 141881, Control_c, 0, 64, 70
2, 141885, Note_on_c, 0, 55, 59
2, 141887, Note_on_c, 0, 52, 59
2, 141896, Control_c, 0, 64, 67
2, 141911, Control_c, 0, 64, 64
2, 141927, Control_c, 0, 64, 61
2, 141941, Control_c, 0, 64, 55
2, 141957, Control_c, 0, 64, 48
2, 141957, Note_on_c, 0, 50, 0
2, 141972, Control_c, 0, 64, 43
2, 141987, Control_c, 0, 64, 45
2, 142003, Control_c, 0, 64, 52
2, 142018, Control_c, 0, 64, 59
2, 142033, Control_c, 0, 64, 63
2, 142049, Control_c, 0, 64, 66
2, 142054, Note_on_c, 0, 72, 76
2, 142063, Control_c, 0, 64, 68
2, 142079, Control_c, 0, 64, 70
2, 142082, Note_on_c, 0, 74, 0
2, 142094, Control_c, 0, 64, 70
2, 142154, Control_c, 0, 64, 70
2, 142193, Control_c, 0, 64, 69
2, 142209, Control_c, 0, 64, 69
2, 142224, Control_c, 0, 64, 68
2, 142239, Control_c, 0, 64, 66
2, 142244, Note_on_c, 0, 57, 48
2, 142246, Note_on_c, 0, 70, 76
2, 142254, Control_c, 0, 64, 64
2, 142261, Note_on_c, 0, 54, 49
2, 142269, Control_c, 0, 64, 60
2, 142285, Control_c, 0, 64, 56
2, 142300, Control_c, 0, 64, 55
2, 142301, Note_on_c, 0, 55, 0
2, 142304, Note_on_c, 0, 52, 0
2, 142311, Note_on_c, 0, 72, 0
2, 142314, Control_c, 0, 64, 56
2, 142330, Control_c, 0, 64, 58
2, 142345, Control_c, 0, 64, 61
2, 142361, Control_c, 0, 64, 63
2, 142376, Control_c, 0, 64, 65
2, 142390, Control_c, 0, 64, 65
2, 142413, Note_on_c, 0, 69, 73
2, 142421, Control_c, 0, 64, 66
2, 142444, Note_on_c, 0, 70, 0
2, 142466, Control_c, 0, 64, 65
2, 142512, Control_c, 0, 64, 65
2, 142558, Control_c, 0, 64, 64
2, 142572, Control_c, 0, 64, 62
2, 142587, Control_c, 0, 64, 59
2, 142592, Note_on_c, 0, 69, 0
2, 142599, Note_on_c, 0, 72, 74
2, 142603, Control_c, 0, 64, 55
2, 142604, Note_on_c, 0, 55, 41
2, 142618, Control_c, 0, 64, 53
2, 142623, Note_on_c, 0, 54, 0
2, 142633, Control_c, 0, 64, 54
2, 142650, Control_c, 0, 64, 56
2, 142665, Control_c, 0, 64, 61
2, 142681, Control_c, 0, 64, 63
2, 142690, Note_on_c, 0, 57, 0
2, 142696, Control_c, 0, 64, 64
2, 142712, Control_c, 0, 64, 65
2, 142726, Control_c, 0, 64, 65
2, 142757, Control_c, 0, 64, 66
2, 142772, Control_c, 0, 64, 66
2, 142782, Note_on_c, 0, 70, 68
2, 142803, Control_c, 0, 64, 66
2, 142818, Control_c, 0, 64, 65
2, 142946, Control_c, 0, 64, 66
2, 142956, Note_on_c, 0, 69, 71
2, 142957, Note_on_c, 0, 52, 55
2, 142994, Control_c, 0, 64, 66
2, 143009, Control_c, 0, 64, 67
2, 143013, Note_on_c, 0, 70, 0
2, 143023, Control_c, 0, 64, 67
2, 143023, Note_on_c, 0, 55, 0
2, 143033, Note_on_c, 0, 72, 0
2, 143039, Control_c, 0, 64, 68
2, 143054, Control_c, 0, 64, 68
2, 143070, Control_c, 0, 64, 69
2, 143099, Control_c, 0, 64, 70
2, 143120, Note_on_c, 0, 67, 71
2, 143130, Control_c, 0, 64, 70
2, 143139, Note_on_c, 0, 69, 0
2, 143145, Control_c, 0, 64, 70
2, 143191, Control_c, 0, 64, 69
2, 143206, Control_c, 0, 64, 69
2, 143221, Control_c, 0, 64, 68
2, 143237, Control_c, 0, 64, 68
2, 143252, Control_c, 0, 64, 67
2, 143267, Control_c, 0, 64, 66
2, 143283, Control_c, 0, 64, 64
2, 143297, Control_c, 0, 64, 62
2, 143313, Control_c, 0, 64, 60
2, 143328, Control_c, 0, 64, 56
2, 143332, Note_on_c, 0, 52, 0
2, 143332, Note_on_c, 0, 69, 70
2, 143339, Note_on_c, 0, 54, 52
2, 143343, Control_c, 0, 64, 50
2, 143343, Note_on_c, 0, 67, 0
2, 143359, Control_c, 0, 64, 35
2, 143373, Control_c, 0, 64, 0
2, 143434, Control_c, 0, 64, 43
2, 143449, Control_c, 0, 64, 59
2, 143464, Control_c, 0, 64, 64
2, 143480, Control_c, 0, 64, 66
2, 143494, Control_c, 0, 64, 69
2, 143510, Control_c, 0, 64, 73
2, 143516, Note_on_c, 0, 50, 50
2, 143524, Note_on_c, 0, 54, 0
2, 143525, Control_c, 0, 64, 78
2, 143540, Control_c, 0, 64, 82
2, 143556, Control_c, 0, 64, 85
2, 143585, Control_c, 0, 64, 84
2, 143601, Control_c, 0, 64, 83
2, 143616, Control_c, 0, 64, 83
2, 143632, Control_c, 0, 64, 82
2, 143647, Control_c, 0, 64, 80
2, 143661, Control_c, 0, 64, 78
2, 143677, Control_c, 0, 64, 75
2, 143686, Note_on_c, 0, 50, 0
2, 143692, Control_c, 0, 64, 72
2, 143704, Note_on_c, 0, 66, 76
2, 143714, Note_on_c, 0, 49, 47
2, 143714, Note_on_c, 0, 57, 49
2, 143715, Control_c, 0, 64, 67
2, 143730, Control_c, 0, 64, 63
2, 143745, Control_c, 0, 64, 54
2, 143761, Control_c, 0, 64, 38
2, 143761, Note_on_c, 0, 69, 0
2, 143776, Control_c, 0, 64, 23
2, 143791, Control_c, 0, 64, 21
2, 143807, Control_c, 0, 64, 30
2, 143822, Control_c, 0, 64, 48
2, 143833, Note_on_c, 0, 49, 0
2, 143838, Control_c, 0, 64, 60
2, 143853, Control_c, 0, 64, 65
2, 143867, Control_c, 0, 64, 69
2, 143884, Control_c, 0, 64, 74
2, 143898, Note_on_c, 0, 50, 48
2, 143899, Control_c, 0, 64, 80
2, 143899, Note_on_c, 0, 57, 0
2, 143915, Control_c, 0, 64, 89
2, 143930, Control_c, 0, 64, 99
2, 143944, Control_c, 0, 64, 110
2, 143960, Control_c, 0, 64, 117
2, 143975, Control_c, 0, 64, 116
2, 143991, Control_c, 0, 64, 115
2, 144006, Control_c, 0, 64, 113
2, 144020, Control_c, 0, 64, 111
2, 144036, Control_c, 0, 64, 107
2, 144051, Control_c, 0, 64, 102
2, 144065, Control_c, 0, 64, 95
2, 144066, Note_on_c, 0, 50, 0
2, 144081, Control_c, 0, 64, 87
2, 144096, Control_c, 0, 64, 80
2, 144105, Note_on_c, 0, 67, 75
2, 144107, Note_on_c, 0, 55, 47
2, 144112, Control_c, 0, 64, 73
2, 144113, Note_on_c, 0, 66, 0
2, 144127, Control_c, 0, 64, 66
2, 144128, Note_on_c, 0, 58, 38
2, 144141, Control_c, 0, 64, 57
2, 144157, Control_c, 0, 64, 39
2, 144172, Control_c, 0, 64, 0
2, 144203, Control_c, 0, 64, 22
2, 144218, Control_c, 0, 64, 47
2, 144234, Control_c, 0, 64, 61
2, 144249, Control_c, 0, 64, 67
2, 144263, Control_c, 0, 64, 73
2, 144279, Control_c, 0, 64, 83
2, 144294, Control_c, 0, 64, 97
2, 144310, Control_c, 0, 64, 127
2, 144355, Note_on_c, 0, 58, 0
2, 144361, Note_on_c, 0, 67, 0
2, 144411, Note_on_c, 0, 55, 0
2, 144446, Control_c, 0, 64, 107
2, 144468, Control_c, 0, 64, 97
2, 144484, Control_c, 0, 64, 89
2, 144492, Note_on_c, 0, 69, 73
2, 144499, Control_c, 0, 64, 83
2, 144499, Note_on_c, 0, 54, 46
2, 144501, Note_on_c, 0, 57, 42
2, 144515, Control_c, 0, 64, 75
2, 144530, Control_c, 0, 64, 65
2, 144544, Control_c, 0, 64, 49
2, 144560, Control_c, 0, 64, 22
2, 144575, Control_c, 0, 64, 16
2, 144591, Control_c, 0, 64, 31
2, 144606, Control_c, 0, 64, 50
2, 144621, Control_c, 0, 64, 61
2, 144637, Control_c, 0, 64, 66
2, 144652, Control_c, 0, 64, 71
2, 144667, Control_c, 0, 64, 79
2, 144683, Control_c, 0, 64, 87
2, 144698, Control_c, 0, 64, 96
2, 144702, Note_on_c, 0, 54, 0
2, 144713, Control_c, 0, 64, 105
2, 144722, Note_on_c, 0, 69, 0
2, 144728, Control_c, 0, 64, 115
2, 144743, Control_c, 0, 64, 127
2, 144744, Note_on_c, 0, 57, 0
2, 144774, Control_c, 0, 64, 123
2, 144788, Control_c, 0, 64, 119
2, 144804, Control_c, 0, 64, 115
2, 144819, Control_c, 0, 64, 110
2, 144835, Control_c, 0, 64, 102
2, 144850, Control_c, 0, 64, 95
2, 144864, Control_c, 0, 64, 90
2, 144880, Control_c, 0, 64, 86
2, 144888, Note_on_c, 0, 70, 61
2, 144895, Control_c, 0, 64, 83
2, 144903, Note_on_c, 0, 52, 40
2, 144903, Note_on_c, 0, 55, 35
2, 144910, Control_c, 0, 64, 76
2, 144925, Control_c, 0, 64, 66
2, 144940, Control_c, 0, 64, 51
2, 144956, Control_c, 0, 64, 17
2, 144971, Control_c, 0, 64, 0
2, 144985, Control_c, 0, 64, 27
2, 145001, Control_c, 0, 64, 50
2, 145016, Control_c, 0, 64, 62
2, 145032, Control_c, 0, 64, 67
2, 145047, Control_c, 0, 64, 75
2, 145062, Control_c, 0, 64, 84
2, 145078, Control_c, 0, 64, 97
2, 145093, Control_c, 0, 64, 117
2, 145096, Note_on_c, 0, 52, 0
2, 145107, Control_c, 0, 64, 127
2, 145135, Note_on_c, 0, 55, 0
2, 145144, Note_on_c, 0, 70, 0
2, 145266, Control_c, 0, 64, 114
2, 145282, Control_c, 0, 64, 111
2, 145297, Control_c, 0, 64, 109
2, 145313, Control_c, 0, 64, 106
2, 145319, Note_on_c, 0, 67, 57
2, 145328, Control_c, 0, 64, 99
2, 145334, Note_on_c, 0, 55, 31
2, 145343, Control_c, 0, 64, 86
2, 145352, Note_on_c, 0, 58, 35
2, 145359, Control_c, 0, 64, 74
2, 145374, Control_c, 0, 64, 65
2, 145388, Control_c, 0, 64, 57
2, 145404, Control_c, 0, 64, 52
2, 145419, Control_c, 0, 64, 51
2, 145435, Control_c, 0, 64, 53
2, 145450, Control_c, 0, 64, 58
2, 145465, Control_c, 0, 64, 63
2, 145481, Control_c, 0, 64, 67
2, 145496, Control_c, 0, 64, 71
2, 145512, Control_c, 0, 64, 75
2, 145527, Control_c, 0, 64, 80
2, 145532, Note_on_c, 0, 58, 0
2, 145536, Note_on_c, 0, 67, 0
2, 145541, Control_c, 0, 64, 82
2, 145557, Control_c, 0, 64, 85
2, 145572, Control_c, 0, 64, 90
2, 145587, Control_c, 0, 64, 94
2, 145603, Control_c, 0, 64, 98
2, 145617, Control_c, 0, 64, 99
2, 145620, Note_on_c, 0, 55, 0
2, 145633, Control_c, 0, 64, 99
2, 145663, Control_c, 0, 64, 99
2, 145679, Control_c, 0, 64, 100
2, 145694, Control_c, 0, 64, 101
2, 145708, Control_c, 0, 64, 102
2, 145724, Control_c, 0, 64, 101
2, 145739, Control_c, 0, 64, 100
2, 145754, Control_c, 0, 64, 99
2, 145769, Control_c, 0, 64, 97
2, 145784, Control_c, 0, 64, 95
2, 145800, Control_c, 0, 64, 92
2, 145814, Note_on_c, 0, 57, 31
2, 145815, Control_c, 0, 64, 89
2, 145820, Note_on_c, 0, 54, 38
2, 145823, Note_on_c, 0, 69, 49
2, 145830, Control_c, 0, 64, 85
2, 145845, Control_c, 0, 64, 79
2, 145860, Control_c, 0, 64, 71
2, 145876, Control_c, 0, 64, 64
2, 145891, Control_c, 0, 64, 57
2, 145905, Control_c, 0, 64, 56
2, 145921, Control_c, 0, 64, 58
2, 145936, Control_c, 0, 64, 62
2, 145952, Control_c, 0, 64, 65
2, 145967, Control_c, 0, 64, 70
2, 145982, Control_c, 0, 64, 75
2, 145988, Note_on_c, 0, 69, 0
2, 145998, Control_c, 0, 64, 81
2, 146020, Control_c, 0, 64, 85
2, 146035, Control_c, 0, 64, 86
2, 146050, Control_c, 0, 64, 86
2, 146065, Control_c, 0, 64, 87
2, 146074, Note_on_c, 0, 57, 0
2, 146080, Control_c, 0, 64, 90
2, 146081, Note_on_c, 0, 72, 58
2, 146095, Control_c, 0, 64, 94
2, 146111, Control_c, 0, 64, 100
2, 146126, Control_c, 0, 64, 102
2, 146157, Control_c, 0, 64, 103
2, 146172, Control_c, 0, 64, 104
2, 146187, Control_c, 0, 64, 106
2, 146188, Note_on_c, 0, 54, 0
2, 146203, Control_c, 0, 64, 107
2, 146220, Note_on_c, 0, 72, 0
2, 146248, Control_c, 0, 64, 106
2, 146263, Control_c, 0, 64, 106
2, 146279, Control_c, 0, 64, 104
2, 146294, Control_c, 0, 64, 102
2, 146310, Control_c, 0, 64, 99
2, 146325, Control_c, 0, 64, 96
2, 146340, Control_c, 0, 64, 92
2, 146347, Note_on_c, 0, 75, 54
2, 146356, Control_c, 0, 64, 87
2, 146362, Note_on_c, 0, 58, 35
2, 146365, Note_on_c, 0, 55, 34
2, 146371, Control_c, 0, 64, 84
2, 146385, Control_c, 0, 64, 81
2, 146401, Control_c, 0, 64, 78
2, 146416, Control_c, 0, 64, 73
2, 146432, Control_c, 0, 64, 67
2, 146447, Control_c, 0, 64, 60
2, 146461, Control_c, 0, 64, 50
2, 146477, Control_c, 0, 64, 39
2, 146492, Control_c, 0, 64, 35
2, 146507, Control_c, 0, 64, 37
2, 146522, Control_c, 0, 64, 46
2, 146537, Control_c, 0, 64, 57
2, 146553, Control_c, 0, 64, 63
2, 146568, Control_c, 0, 64, 67
2, 146583, Control_c, 0, 64, 71
2, 146598, Control_c, 0, 64, 76
2, 146613, Control_c, 0, 64, 80
2, 146628, Control_c, 0, 64, 82
2, 146667, Note_on_c, 0, 58, 0
2, 146674, Control_c, 0, 64, 82
2, 146704, Control_c, 0, 64, 81
2, 146719, Control_c, 0, 64, 81
2, 146734, Control_c, 0, 64, 79
2, 146750, Control_c, 0, 64, 78
2, 146764, Note_on_c, 0, 54, 33
2, 146765, Control_c, 0, 64, 76
2, 146776, Note_on_c, 0, 57, 39
2, 146777, Note_on_c, 0, 55, 0
2, 146788, Control_c, 0, 64, 74
2, 146803, Control_c, 0, 64, 72
2, 146818, Control_c, 0, 64, 68
2, 146834, Control_c, 0, 64, 63
2, 146849, Control_c, 0, 64, 56
2, 146864, Control_c, 0, 64, 53
2, 146879, Control_c, 0, 64, 56
2, 146894, Control_c, 0, 64, 60
2, 146910, Control_c, 0, 64, 64
2, 146925, Control_c, 0, 64, 67
2, 146925, Note_on_c, 0, 74, 60
2, 146939, Control_c, 0, 64, 71
2, 146955, Control_c, 0, 64, 75
2, 146959, Note_on_c, 0, 75, 0
2, 146970, Control_c, 0, 64, 78
2, 146985, Control_c, 0, 64, 78
2, 147015, Control_c, 0, 64, 78
2, 147046, Control_c, 0, 64, 77
2, 147061, Control_c, 0, 64, 77
2, 147077, Control_c, 0, 64, 76
2, 147092, Control_c, 0, 64, 76
2, 147107, Control_c, 0, 64, 75
2, 147118, Note_on_c, 0, 72, 65
2, 147123, Control_c, 0, 64, 73
2, 147137, Note_on_c, 0, 55, 39
2, 147138, Control_c, 0, 64, 70
2, 147141, Note_on_c, 0, 52, 34
2, 147153, Control_c, 0, 64, 65
2, 147159, Note_on_c, 0, 74, 0
2, 147167, Note_on_c, 0, 57, 0
2, 147168, Control_c, 0, 64, 59
2, 147183, Control_c, 0, 64, 50
2, 147199, Control_c, 0, 64, 43
2, 147200, Note_on_c, 0, 54, 0
2, 147214, Control_c, 0, 64, 42
2, 147228, Control_c, 0, 64, 43
2, 147244, Control_c, 0, 64, 52
2, 147259, Control_c, 0, 64, 60
2, 147275, Control_c, 0, 64, 65
2, 147288, Note_on_c, 0, 72, 0
2, 147290, Control_c, 0, 64, 68
2, 147294, Note_on_c, 0, 70, 62
2, 147304, Control_c, 0, 64, 72
2, 147320, Control_c, 0, 64, 76
2, 147335, Control_c, 0, 64, 77
2, 147351, Control_c, 0, 64, 78
2, 147396, Control_c, 0, 64, 77
2, 147411, Control_c, 0, 64, 77
2, 147426, Control_c, 0, 64, 76
2, 147441, Control_c, 0, 64, 76
2, 147456, Control_c, 0, 64, 75
2, 147462, Note_on_c, 0, 52, 0
2, 147472, Control_c, 0, 64, 73
2, 147487, Control_c, 0, 64, 68
2, 147490, Note_on_c, 0, 54, 34
2, 147492, Note_on_c, 0, 74, 61
2, 147502, Control_c, 0, 64, 61
2, 147503, Note_on_c, 0, 50, 34
2, 147517, Control_c, 0, 64, 48
2, 147518, Note_on_c, 0, 55, 0
2, 147523, Note_on_c, 0, 70, 0
2, 147532, Control_c, 0, 64, 37
2, 147570, Control_c, 0, 64, 43
2, 147585, Control_c, 0, 64, 54
2, 147601, Control_c, 0, 64, 61
2, 147616, Control_c, 0, 64, 66
2, 147632, Control_c, 0, 64, 70
2, 147646, Control_c, 0, 64, 75
2, 147661, Control_c, 0, 64, 79
2, 147675, Note_on_c, 0, 72, 70
2, 147677, Control_c, 0, 64, 80
2, 147706, Note_on_c, 0, 74, 0
2, 147707, Control_c, 0, 64, 80
2, 147711, Note_on_c, 0, 54, 0
2, 147820, Note_on_c, 0, 50, 0
2, 147828, Control_c, 0, 64, 80
2, 147844, Note_on_c, 0, 54, 41
2, 147849, Note_on_c, 0, 70, 72
2, 147866, Note_on_c, 0, 57, 47
2, 147875, Control_c, 0, 64, 81
2, 147890, Control_c, 0, 64, 81
2, 147906, Note_on_c, 0, 72, 0
2, 147927, Note_on_c, 0, 54, 0
2, 147936, Control_c, 0, 64, 82
2, 147944, Note_on_c, 0, 57, 0
2, 147967, Control_c, 0, 64, 82
2, 147997, Control_c, 0, 64, 83
2, 148012, Control_c, 0, 64, 83
2, 148021, Note_on_c, 0, 70, 0
2, 148024, Note_on_c, 0, 69, 75
2, 148088, Control_c, 0, 64, 83
2, 148103, Control_c, 0, 64, 82
2, 148134, Control_c, 0, 64, 82
2, 148148, Control_c, 0, 64, 81
2, 148164, Control_c, 0, 64, 80
2, 148179, Control_c, 0, 64, 79
2, 148195, Control_c, 0, 64, 77
2, 148209, Control_c, 0, 64, 75
2, 148224, Control_c, 0, 64, 73
2, 148239, Note_on_c, 0, 55, 45
2, 148240, Control_c, 0, 64, 69
2, 148245, Note_on_c, 0, 43, 41
2, 148255, Control_c, 0, 64, 66
2, 148271, Control_c, 0, 64, 62
2, 148273, Note_on_c, 0, 70, 72
2, 148285, Control_c, 0, 64, 55
2, 148308, Control_c, 0, 64, 42
2, 148308, Note_on_c, 0, 69, 0
2, 148324, Control_c, 0, 64, 32
2, 148355, Control_c, 0, 64, 41
2, 148369, Control_c, 0, 64, 54
2, 148384, Control_c, 0, 64, 61
2, 148400, Control_c, 0, 64, 65
2, 148414, Control_c, 0, 64, 68
2, 148430, Control_c, 0, 64, 72
2, 148432, Note_on_c, 0, 43, 0
2, 148445, Control_c, 0, 64, 77
2, 148460, Control_c, 0, 64, 81
2, 148476, Control_c, 0, 64, 85
2, 148476, Note_on_c, 0, 55, 0
2, 148490, Control_c, 0, 64, 88
2, 148505, Control_c, 0, 64, 89
2, 148507, Note_on_c, 0, 74, 84
2, 148518, Note_on_c, 0, 70, 0
2, 148551, Control_c, 0, 64, 89
2, 148566, Control_c, 0, 64, 90
2, 148612, Control_c, 0, 64, 89
2, 148626, Control_c, 0, 64, 88
2, 148642, Control_c, 0, 64, 87
2, 148657, Control_c, 0, 64, 85
2, 148673, Control_c, 0, 64, 83
2, 148684, Note_on_c, 0, 74, 0
2, 148688, Control_c, 0, 64, 80
2, 148694, Note_on_c, 0, 57, 48
2, 148695, Note_on_c, 0, 60, 51
2, 148703, Control_c, 0, 64, 75
2, 148703, Note_on_c, 0, 77, 79
2, 148719, Control_c, 0, 64, 68
2, 148734, Control_c, 0, 64, 61
2, 148749, Control_c, 0, 64, 52
2, 148765, Control_c, 0, 64, 47
2, 148795, Control_c, 0, 64, 51
2, 148810, Control_c, 0, 64, 58
2, 148825, Control_c, 0, 64, 63
2, 148841, Control_c, 0, 64, 67
2, 148856, Control_c, 0, 64, 71
2, 148872, Control_c, 0, 64, 76
2, 148887, Control_c, 0, 64, 80
2, 148902, Control_c, 0, 64, 81
2, 148918, Control_c, 0, 64, 82
2, 148930, Note_on_c, 0, 60, 0
2, 148947, Control_c, 0, 64, 81
2, 148978, Control_c, 0, 64, 81
2, 148993, Control_c, 0, 64, 80
2, 149008, Control_c, 0, 64, 79
2, 149023, Control_c, 0, 64, 78
2, 149039, Control_c, 0, 64, 77
2, 149053, Control_c, 0, 64, 76
2, 149058, Note_on_c, 0, 59, 59
2, 149076, Note_on_c, 0, 56, 56
2, 149077, Control_c, 0, 64, 74
2, 149092, Control_c, 0, 64, 72
2, 149106, Control_c, 0, 64, 69
2, 149122, Control_c, 0, 64, 67
2, 149137, Control_c, 0, 64, 63
2, 149153, Control_c, 0, 64, 56
2, 149168, Control_c, 0, 64, 47
2, 149182, Control_c, 0, 64, 48
2, 149198, Control_c, 0, 64, 52
2, 149202, Note_on_c, 0, 57, 0
2, 149213, Control_c, 0, 64, 58
2, 149228, Control_c, 0, 64, 64
2, 149244, Control_c, 0, 64, 67
2, 149251, Note_on_c, 0, 76, 79
2, 149257, Control_c, 0, 64, 71
2, 149273, Control_c, 0, 64, 74
2, 149282, Note_on_c, 0, 77, 0
2, 149288, Control_c, 0, 64, 74
2, 149364, Control_c, 0, 64, 74
2, 149379, Control_c, 0, 64, 73
2, 149395, Control_c, 0, 64, 73
2, 149410, Control_c, 0, 64, 72
2, 149424, Control_c, 0, 64, 72
2, 149440, Control_c, 0, 64, 70
2, 149441, Note_on_c, 0, 54, 48
2, 149444, Note_on_c, 0, 57, 48
2, 149455, Control_c, 0, 64, 68
2, 149455, Note_on_c, 0, 59, 0
2, 149455, Note_on_c, 0, 74, 80
2, 149471, Control_c, 0, 64, 65
2, 149486, Control_c, 0, 64, 60
2, 149501, Control_c, 0, 64, 52
2, 149517, Control_c, 0, 64, 45
2, 149524, Note_on_c, 0, 56, 0
2, 149532, Control_c, 0, 64, 44
2, 149547, Control_c, 0, 64, 49
2, 149557, Note_on_c, 0, 76, 0
2, 149563, Control_c, 0, 64, 58
2, 149578, Control_c, 0, 64, 63
2, 149593, Control_c, 0, 64, 67
2, 149608, Control_c, 0, 64, 70
2, 149623, Control_c, 0, 64, 75
2, 149627, Note_on_c, 0, 73, 87
2, 149639, Control_c, 0, 64, 78
2, 149653, Note_on_c, 0, 74, 0
2, 149654, Control_c, 0, 64, 78
2, 149669, Control_c, 0, 64, 78
2, 149685, Control_c, 0, 64, 77
2, 149699, Control_c, 0, 64, 77
2, 149745, Control_c, 0, 64, 76
2, 149761, Control_c, 0, 64, 76
2, 149775, Control_c, 0, 64, 75
2, 149788, Note_on_c, 0, 57, 0
2, 149791, Control_c, 0, 64, 73
2, 149795, Note_on_c, 0, 52, 46
2, 149796, Note_on_c, 0, 56, 53
2, 149806, Control_c, 0, 64, 70
2, 149813, Note_on_c, 0, 76, 85
2, 149820, Control_c, 0, 64, 64
2, 149836, Control_c, 0, 64, 55
2, 149837, Note_on_c, 0, 54, 0
2, 149849, Note_on_c, 0, 73, 0
2, 149859, Control_c, 0, 64, 43
2, 149875, Control_c, 0, 64, 39
2, 149890, Control_c, 0, 64, 41
2, 149904, Control_c, 0, 64, 49
2, 149920, Control_c, 0, 64, 59
2, 149935, Control_c, 0, 64, 64
2, 149951, Control_c, 0, 64, 67
2, 149966, Control_c, 0, 64, 69
2, 149980, Control_c, 0, 64, 70
2, 149996, Control_c, 0, 64, 71
2, 149996, Note_on_c, 0, 74, 87
2, 150018, Note_on_c, 0, 56, 0
2, 150041, Control_c, 0, 64, 71
2, 150049, Note_on_c, 0, 76, 0
2, 150072, Control_c, 0, 64, 70
2, 150101, Control_c, 0, 64, 70
2, 150117, Control_c, 0, 64, 69
2, 150132, Control_c, 0, 64, 68
2, 150147, Control_c, 0, 64, 64
2, 150148, Note_on_c, 0, 52, 0
2, 150159, Note_on_c, 0, 56, 45
2, 150162, Note_on_c, 0, 73, 87
2, 150163, Control_c, 0, 64, 58
2, 150165, Note_on_c, 0, 59, 54
2, 150177, Control_c, 0, 64, 52
2, 150187, Note_on_c, 0, 74, 0
2, 150193, Control_c, 0, 64, 54
2, 150208, Control_c, 0, 64, 59
2, 150223, Control_c, 0, 64, 63
2, 150238, Control_c, 0, 64, 66
2, 150244, Note_on_c, 0, 56, 0
2, 150253, Control_c, 0, 64, 70
2, 150268, Control_c, 0, 64, 74
2, 150284, Control_c, 0, 64, 78
2, 150299, Control_c, 0, 64, 81
2, 150299, Note_on_c, 0, 59, 0
2, 150315, Control_c, 0, 64, 81
2, 150337, Note_on_c, 0, 71, 87
2, 150345, Control_c, 0, 64, 82
2, 150361, Control_c, 0, 64, 82
2, 150371, Note_on_c, 0, 73, 0
2, 150376, Control_c, 0, 64, 83
2, 150437, Control_c, 0, 64, 83
2, 150467, Control_c, 0, 64, 82
2, 150483, Control_c, 0, 64, 81
2, 150498, Control_c, 0, 64, 79
2, 150514, Control_c, 0, 64, 77
2, 150529, Control_c, 0, 64, 74
2, 150530, Note_on_c, 0, 45, 52
2, 150534, Note_on_c, 0, 57, 52
2, 150543, Control_c, 0, 64, 72
2, 150556, Note_on_c, 0, 73, 83
2, 150559, Control_c, 0, 64, 68
2, 150570, Note_on_c, 0, 71, 0
2, 150574, Control_c, 0, 64, 61
2, 150589, Control_c, 0, 64, 39
2, 150605, Control_c, 0, 64, 0
2, 150642, Control_c, 0, 64, 30
2, 150657, Control_c, 0, 64, 52
2, 150673, Control_c, 0, 64, 63
2, 150688, Control_c, 0, 64, 68
2, 150703, Control_c, 0, 64, 73
2, 150716, Note_on_c, 0, 45, 0
2, 150718, Control_c, 0, 64, 78
2, 150733, Control_c, 0, 64, 82
2, 150748, Control_c, 0, 64, 85
2, 150757, Note_on_c, 0, 73, 0
2, 150775, Note_on_c, 0, 57, 0
2, 150794, Note_on_c, 0, 76, 92
2, 150795, Control_c, 0, 64, 85
2, 150810, Control_c, 0, 64, 86
2, 150824, Control_c, 0, 64, 88
2, 150840, Control_c, 0, 64, 90
2, 150855, Control_c, 0, 64, 92
2, 150869, Control_c, 0, 64, 93
2, 150885, Control_c, 0, 64, 95
2, 150900, Control_c, 0, 64, 97
2, 150916, Control_c, 0, 64, 98
2, 150945, Control_c, 0, 64, 97
2, 150961, Control_c, 0, 64, 97
2, 150965, Note_on_c, 0, 76, 0
2, 150976, Control_c, 0, 64, 96
2, 150992, Control_c, 0, 64, 95
2, 151007, Control_c, 0, 64, 94
2, 151021, Control_c, 0, 64, 91
2, 151037, Control_c, 0, 64, 88
2, 151052, Control_c, 0, 64, 86
2, 151052, Note_on_c, 0, 65, 52
2, 151057, Note_on_c, 0, 62, 50
2, 151066, Control_c, 0, 64, 84
2, 151082, Control_c, 0, 64, 83
2, 151097, Control_c, 0, 64, 82
2, 151108, Note_on_c, 0, 82, 87
2, 151113, Control_c, 0, 64, 79
2, 151128, Control_c, 0, 64, 76
2, 151143, Control_c, 0, 64, 71
2, 151159, Control_c, 0, 64, 66
2, 151174, Control_c, 0, 64, 60
2, 151189, Control_c, 0, 64, 49
2, 151205, Control_c, 0, 64, 35
2, 151220, Control_c, 0, 64, 21
2, 151250, Control_c, 0, 64, 32
2, 151265, Control_c, 0, 64, 49
2, 151281, Control_c, 0, 64, 60
2, 151296, Control_c, 0, 64, 64
2, 151312, Control_c, 0, 64, 67
2, 151327, Control_c, 0, 64, 70
2, 151342, Control_c, 0, 64, 74
2, 151357, Control_c, 0, 64, 78
2, 151363, Note_on_c, 0, 65, 0
2, 151372, Control_c, 0, 64, 81
2, 151395, Control_c, 0, 64, 82
2, 151425, Control_c, 0, 64, 81
2, 151456, Control_c, 0, 64, 81
2, 151471, Control_c, 0, 64, 80
2, 151486, Control_c, 0, 64, 79
2, 151501, Control_c, 0, 64, 79
2, 151516, Control_c, 0, 64, 78
2, 151529, Note_on_c, 0, 61, 52
2, 151531, Control_c, 0, 64, 76
2, 151538, Note_on_c, 0, 62, 0
2, 151538, Note_on_c, 0, 64, 52
2, 151546, Control_c, 0, 64, 74
2, 151562, Control_c, 0, 64, 69
2, 151577, Control_c, 0, 64, 63
2, 151593, Control_c, 0, 64, 56
2, 151608, Control_c, 0, 64, 53
2, 151623, Control_c, 0, 64, 56
2, 151639, Control_c, 0, 64, 61
2, 151654, Control_c, 0, 64, 64
2, 151668, Control_c, 0, 64, 67
2, 151684, Control_c, 0, 64, 71
2, 151699, Control_c, 0, 64, 75
2, 151709, Note_on_c, 0, 81, 75
2, 151714, Control_c, 0, 64, 77
2, 151744, Control_c, 0, 64, 76
2, 151760, Control_c, 0, 64, 76
2, 151765, Note_on_c, 0, 82, 0
2, 151775, Control_c, 0, 64, 75
2, 151805, Control_c, 0, 64, 75
2, 151822, Control_c, 0, 64, 74
2, 151838, Control_c, 0, 64, 74
2, 151852, Control_c, 0, 64, 73
2, 151868, Control_c, 0, 64, 72
2, 151883, Control_c, 0, 64, 71
2, 151898, Control_c, 0, 64, 68
2, 151909, Note_on_c, 0, 59, 43
2, 151910, Note_on_c, 0, 62, 48
2, 151910, Note_on_c, 0, 79, 73
2, 151913, Control_c, 0, 64, 64
2, 151928, Control_c, 0, 64, 56
2, 151929, Note_on_c, 0, 64, 0
2, 151944, Control_c, 0, 64, 51
2, 151950, Note_on_c, 0, 81, 0
2, 151974, Control_c, 0, 64, 55
2, 151979, Note_on_c, 0, 61, 0
2, 151991, Control_c, 0, 64, 60
2, 152006, Control_c, 0, 64, 63
2, 152020, Control_c, 0, 64, 67
2, 152036, Control_c, 0, 64, 70
2, 152051, Control_c, 0, 64, 72
2, 152067, Control_c, 0, 64, 74
2, 152090, Note_on_c, 0, 77, 76
2, 152096, Control_c, 0, 64, 73
2, 152096, Note_on_c, 0, 79, 0
2, 152112, Control_c, 0, 64, 73
2, 152127, Control_c, 0, 64, 72
2, 152150, Control_c, 0, 64, 72
2, 152180, Control_c, 0, 64, 71
2, 152196, Control_c, 0, 64, 71
2, 152211, Control_c, 0, 64, 70
2, 152226, Control_c, 0, 64, 69
2, 152241, Control_c, 0, 64, 68
2, 152243, Note_on_c, 0, 62, 0
2, 152251, Note_on_c, 0, 59, 0
2, 152256, Control_c, 0, 64, 67
2, 152272, Control_c, 0, 64, 65
2, 152272, Note_on_c, 0, 61, 35
2, 152282, Note_on_c, 0, 81, 67
2, 152285, Note_on_c, 0, 77, 0
2, 152287, Control_c, 0, 64, 61
2, 152294, Note_on_c, 0, 57, 40
2, 152302, Control_c, 0, 64, 55
2, 152317, Control_c, 0, 64, 51
2, 152333, Control_c, 0, 64, 51
2, 152349, Control_c, 0, 64, 54
2, 152363, Control_c, 0, 64, 59
2, 152378, Control_c, 0, 64, 63
2, 152394, Control_c, 0, 64, 66
2, 152409, Control_c, 0, 64, 70
2, 152425, Control_c, 0, 64, 73
2, 152439, Control_c, 0, 64, 74
2, 152467, Note_on_c, 0, 79, 70
2, 152478, Note_on_c, 0, 61, 0
2, 152484, Control_c, 0, 64, 74
2, 152512, Note_on_c, 0, 81, 0
2, 152530, Control_c, 0, 64, 73
2, 152561, Control_c, 0, 64, 73
2, 152576, Control_c, 0, 64, 72
2, 152592, Control_c, 0, 64, 70
2, 152607, Control_c, 0, 64, 68
2, 152622, Control_c, 0, 64, 64
2, 152625, Note_on_c, 0, 61, 35
2, 152631, Note_on_c, 0, 57, 0
2, 152632, Note_on_c, 0, 64, 42
2, 152637, Control_c, 0, 64, 58
2, 152637, Note_on_c, 0, 77, 65
2, 152652, Control_c, 0, 64, 53
2, 152668, Control_c, 0, 64, 52
2, 152668, Note_on_c, 0, 79, 0
2, 152683, Control_c, 0, 64, 54
2, 152697, Control_c, 0, 64, 59
2, 152713, Control_c, 0, 64, 63
2, 152728, Control_c, 0, 64, 66
2, 152744, Control_c, 0, 64, 69
2, 152759, Control_c, 0, 64, 73
2, 152771, Note_on_c, 0, 77, 0
2, 152773, Control_c, 0, 64, 75
2, 152801, Note_on_c, 0, 76, 58
2, 152830, Note_on_c, 0, 61, 0
2, 152851, Control_c, 0, 64, 75
2, 152881, Control_c, 0, 64, 74
2, 152896, Control_c, 0, 64, 73
2, 152919, Control_c, 0, 64, 72
2, 152934, Control_c, 0, 64, 70
2, 152949, Control_c, 0, 64, 68
2, 152964, Control_c, 0, 64, 65
2, 152979, Control_c, 0, 64, 58
2, 152986, Note_on_c, 0, 76, 0
2, 152994, Note_on_c, 0, 64, 0
2, 152995, Control_c, 0, 64, 52
2, 152996, Note_on_c, 0, 62, 43
2, 152997, Note_on_c, 0, 79, 57
2, 153010, Control_c, 0, 64, 53
2, 153026, Control_c, 0, 64, 57
2, 153041, Control_c, 0, 64, 61
2, 153056, Control_c, 0, 64, 65
2, 153071, Control_c, 0, 64, 68
2, 153086, Control_c, 0, 64, 73
2, 153100, Control_c, 0, 64, 76
2, 153109, Note_on_c, 0, 62, 0
2, 153116, Control_c, 0, 64, 78
2, 153172, Note_on_c, 0, 77, 54
2, 153178, Note_on_c, 0, 79, 0
2, 153237, Control_c, 0, 64, 78
2, 153268, Control_c, 0, 64, 77
2, 153282, Control_c, 0, 64, 76
2, 153297, Control_c, 0, 64, 75
2, 153307, Note_on_c, 0, 77, 0
2, 153313, Control_c, 0, 64, 73
2, 153328, Control_c, 0, 64, 72
2, 153337, Note_on_c, 0, 50, 57
2, 153344, Control_c, 0, 64, 71
2, 153351, Note_on_c, 0, 76, 47
2, 153359, Control_c, 0, 64, 69
2, 153374, Control_c, 0, 64, 66
2, 153390, Control_c, 0, 64, 62
2, 153404, Control_c, 0, 64, 58
2, 153419, Control_c, 0, 64, 54
2, 153435, Control_c, 0, 64, 54
2, 153450, Control_c, 0, 64, 56
2, 153466, Control_c, 0, 64, 59
2, 153480, Control_c, 0, 64, 63
2, 153495, Control_c, 0, 64, 66
2, 153511, Control_c, 0, 64, 70
2, 153526, Control_c, 0, 64, 73
2, 153527, Note_on_c, 0, 76, 0
2, 153530, Note_on_c, 0, 77, 54
2, 153540, Control_c, 0, 64, 76
2, 153556, Control_c, 0, 64, 77
2, 153587, Control_c, 0, 64, 76
2, 153633, Control_c, 0, 64, 76
2, 153634, Note_on_c, 0, 77, 0
2, 153648, Control_c, 0, 64, 75
2, 153664, Control_c, 0, 64, 74
2, 153679, Control_c, 0, 64, 73
2, 153701, Control_c, 0, 64, 72
2, 153713, Note_on_c, 0, 52, 69
2, 153717, Control_c, 0, 64, 70
2, 153717, Note_on_c, 0, 77, 56
2, 153732, Control_c, 0, 64, 68
2, 153748, Control_c, 0, 64, 64
2, 153762, Control_c, 0, 64, 59
2, 153772, Note_on_c, 0, 50, 0
2, 153777, Control_c, 0, 64, 55
2, 153793, Control_c, 0, 64, 55
2, 153808, Control_c, 0, 64, 56
2, 153824, Control_c, 0, 64, 59
2, 153838, Control_c, 0, 64, 63
2, 153853, Control_c, 0, 64, 65
2, 153869, Control_c, 0, 64, 67
2, 153884, Control_c, 0, 64, 69
2, 153889, Note_on_c, 0, 76, 48
2, 153889, Note_on_c, 0, 77, 0
2, 153899, Control_c, 0, 64, 71
2, 153914, Control_c, 0, 64, 71
2, 153929, Control_c, 0, 64, 71
2, 153960, Control_c, 0, 64, 70
2, 154005, Control_c, 0, 64, 70
2, 154020, Control_c, 0, 64, 69
2, 154035, Note_on_c, 0, 76, 0
2, 154036, Control_c, 0, 64, 69
2, 154050, Control_c, 0, 64, 68
2, 154066, Control_c, 0, 64, 67
2, 154070, Note_on_c, 0, 53, 71
2, 154077, Note_on_c, 0, 74, 47
2, 154081, Control_c, 0, 64, 66
2, 154096, Control_c, 0, 64, 65
2, 154141, Control_c, 0, 64, 66
2, 154145, Note_on_c, 0, 52, 0
2, 154203, Control_c, 0, 64, 66
2, 154252, Note_on_c, 0, 76, 46
2, 154261, Note_on_c, 0, 74, 0
2, 154340, Note_on_c, 0, 76, 0
2, 154355, Control_c, 0, 64, 66
2, 154385, Control_c, 0, 64, 65
2, 154400, Control_c, 0, 64, 64
2, 154411, Note_on_c, 0, 55, 66
2, 154415, Control_c, 0, 64, 60
2, 154431, Control_c, 0, 64, 56
2, 154446, Control_c, 0, 64, 53
2, 154447, Note_on_c, 0, 76, 50
2, 154468, Note_on_c, 0, 53, 0
2, 154470, Control_c, 0, 64, 53
2, 154484, Control_c, 0, 64, 56
2, 154499, Control_c, 0, 64, 60
2, 154515, Control_c, 0, 64, 64
2, 154530, Control_c, 0, 64, 66
2, 154546, Control_c, 0, 64, 68
2, 154560, Control_c, 0, 64, 70
2, 154604, Note_on_c, 0, 74, 58
2, 154606, Control_c, 0, 64, 69
2, 154631, Note_on_c, 0, 76, 0
2, 154668, Control_c, 0, 64, 69
2, 154697, Control_c, 0, 64, 68
2, 154713, Control_c, 0, 64, 68
2, 154728, Control_c, 0, 64, 67
2, 154744, Control_c, 0, 64, 66
2, 154758, Control_c, 0, 64, 64
2, 154773, Control_c, 0, 64, 61
2, 154784, Note_on_c, 0, 74, 0
2, 154785, Note_on_c, 0, 52, 65
2, 154789, Control_c, 0, 64, 55
2, 154801, Note_on_c, 0, 73, 54
2, 154804, Control_c, 0, 64, 49
2, 154818, Control_c, 0, 64, 45
2, 154834, Control_c, 0, 64, 44
2, 154845, Note_on_c, 0, 55, 0
2, 154849, Control_c, 0, 64, 47
2, 154865, Control_c, 0, 64, 54
2, 154880, Control_c, 0, 64, 61
2, 154894, Control_c, 0, 64, 65
2, 154910, Control_c, 0, 64, 68
2, 154925, Control_c, 0, 64, 71
2, 154940, Control_c, 0, 64, 73
2, 154956, Control_c, 0, 64, 74
2, 154958, Note_on_c, 0, 74, 58
2, 154989, Note_on_c, 0, 73, 0
2, 155014, Note_on_c, 0, 74, 0
2, 155061, Control_c, 0, 64, 74
2, 155077, Control_c, 0, 64, 73
2, 155092, Control_c, 0, 64, 73
2, 155108, Control_c, 0, 64, 72
2, 155123, Control_c, 0, 64, 71
2, 155138, Control_c, 0, 64, 69
2, 155141, Note_on_c, 0, 52, 0
2, 155142, Note_on_c, 0, 72, 68
2, 155149, Note_on_c, 0, 54, 55
2, 155153, Control_c, 0, 64, 67
2, 155168, Control_c, 0, 64, 66
2, 155184, Control_c, 0, 64, 65
2, 155199, Control_c, 0, 64, 64
2, 155214, Control_c, 0, 64, 61
2, 155236, Control_c, 0, 64, 59
2, 155251, Control_c, 0, 64, 56
2, 155267, Control_c, 0, 64, 55
2, 155283, Control_c, 0, 64, 55
2, 155298, Control_c, 0, 64, 53
2, 155307, Note_on_c, 0, 50, 50
2, 155314, Control_c, 0, 64, 51
2, 155328, Control_c, 0, 64, 49
2, 155329, Note_on_c, 0, 54, 0
2, 155344, Control_c, 0, 64, 48
2, 155374, Control_c, 0, 64, 48
2, 155390, Control_c, 0, 64, 47
2, 155404, Control_c, 0, 64, 46
2, 155419, Control_c, 0, 64, 45
2, 155481, Control_c, 0, 64, 45
2, 155499, Note_on_c, 0, 49, 44
2, 155505, Note_on_c, 0, 62, 73
2, 155511, Control_c, 0, 64, 45
2, 155517, Note_on_c, 0, 50, 0
2, 155526, Control_c, 0, 64, 46
2, 155541, Control_c, 0, 64, 49
2, 155557, Control_c, 0, 64, 52
2, 155572, Control_c, 0, 64, 55
2, 155588, Control_c, 0, 64, 58
2, 155603, Control_c, 0, 64, 60
2, 155620, Control_c, 0, 64, 62
2, 155635, Control_c, 0, 64, 63
2, 155650, Control_c, 0, 64, 65
2, 155665, Control_c, 0, 64, 67
2, 155672, Note_on_c, 0, 50, 54
2, 155680, Control_c, 0, 64, 69
2, 155685, Note_on_c, 0, 49, 0
2, 155695, Control_c, 0, 64, 71
2, 155711, Control_c, 0, 64, 71
2, 155726, Control_c, 0, 64, 72
2, 155741, Control_c, 0, 64, 71
2, 155746, Note_on_c, 0, 50, 0
2, 155801, Control_c, 0, 64, 71
2, 155832, Control_c, 0, 64, 70
2, 155847, Control_c, 0, 64, 70
2, 155862, Control_c, 0, 64, 69
2, 155867, Note_on_c, 0, 64, 77
2, 155877, Control_c, 0, 64, 67
2, 155888, Note_on_c, 0, 58, 54
2, 155892, Control_c, 0, 64, 64
2, 155894, Note_on_c, 0, 62, 0
2, 155908, Control_c, 0, 64, 59
2, 155923, Control_c, 0, 64, 52
2, 155939, Control_c, 0, 64, 49
2, 155954, Control_c, 0, 64, 50
2, 155969, Control_c, 0, 64, 55
2, 155985, Control_c, 0, 64, 61
2, 156006, Control_c, 0, 64, 64
2, 156022, Control_c, 0, 64, 67
2, 156037, Control_c, 0, 64, 69
2, 156039, Note_on_c, 0, 70, 64
2, 156052, Control_c, 0, 64, 70
2, 156153, Note_on_c, 0, 58, 0
2, 156160, Note_on_c, 0, 72, 0
2, 156175, Control_c, 0, 64, 70
2, 156191, Control_c, 0, 64, 69
2, 156206, Control_c, 0, 64, 67
2, 156210, Note_on_c, 0, 70, 0
2, 156211, Note_on_c, 0, 66, 73
2, 156222, Control_c, 0, 64, 63
2, 156224, Note_on_c, 0, 69, 58
2, 156237, Control_c, 0, 64, 59
2, 156251, Control_c, 0, 64, 58
2, 156267, Control_c, 0, 64, 60
2, 156282, Control_c, 0, 64, 63
2, 156298, Control_c, 0, 64, 66
2, 156312, Control_c, 0, 64, 70
2, 156327, Control_c, 0, 64, 75
2, 156343, Control_c, 0, 64, 77
2, 156358, Control_c, 0, 64, 78
2, 156375, Note_on_c, 0, 70, 67
2, 156391, Note_on_c, 0, 69, 0
2, 156403, Control_c, 0, 64, 78
2, 156449, Control_c, 0, 64, 77
2, 156465, Control_c, 0, 64, 76
2, 156466, Note_on_c, 0, 70, 0
2, 156473, Note_on_c, 0, 66, 0
2, 156479, Control_c, 0, 64, 76
2, 156494, Control_c, 0, 64, 75
2, 156510, Control_c, 0, 64, 73
2, 156525, Control_c, 0, 64, 70
2, 156541, Control_c, 0, 64, 65
2, 156544, Note_on_c, 0, 57, 46
2, 156550, Note_on_c, 0, 70, 68
2, 156552, Note_on_c, 0, 67, 68
2, 156556, Control_c, 0, 64, 58
2, 156571, Control_c, 0, 64, 51
2, 156590, Note_on_c, 0, 57, 0
2, 156601, Control_c, 0, 64, 54
2, 156617, Control_c, 0, 64, 60
2, 156621, Note_on_c, 0, 55, 52
2, 156631, Control_c, 0, 64, 64
2, 156646, Control_c, 0, 64, 67
2, 156662, Control_c, 0, 64, 70
2, 156677, Control_c, 0, 64, 72
2, 156680, Note_on_c, 0, 55, 0
2, 156692, Control_c, 0, 64, 72
2, 156702, Note_on_c, 0, 57, 53
2, 156704, Note_on_c, 0, 67, 0
2, 156705, Note_on_c, 0, 69, 64
2, 156773, Note_on_c, 0, 64, 0
2, 156777, Note_on_c, 0, 57, 0
2, 156791, Control_c, 0, 64, 72
2, 156815, Note_on_c, 0, 55, 38
2, 156843, Note_on_c, 0, 55, 0
2, 156878, Note_on_c, 0, 64, 73
2, 156885, Note_on_c, 0, 67, 62
2, 156888, Note_on_c, 0, 57, 45
2, 156898, Control_c, 0, 64, 72
2, 156911, Note_on_c, 0, 70, 0
2, 156929, Control_c, 0, 64, 73
2, 156929, Note_on_c, 0, 55, 51
2, 156929, Note_on_c, 0, 57, 0
2, 156944, Control_c, 0, 64, 74
2, 156956, Note_on_c, 0, 69, 0
2, 156959, Control_c, 0, 64, 76
2, 156974, Control_c, 0, 64, 77
2, 156990, Control_c, 0, 64, 78
2, 157005, Control_c, 0, 64, 79
2, 157011, Note_on_c, 0, 55, 0
2, 157020, Control_c, 0, 64, 80
2, 157024, Note_on_c, 0, 53, 37
2, 157035, Control_c, 0, 64, 82
2, 157043, Note_on_c, 0, 74, 71
2, 157050, Control_c, 0, 64, 84
2, 157064, Note_on_c, 0, 53, 0
2, 157080, Control_c, 0, 64, 83
2, 157090, Note_on_c, 0, 67, 0
2, 157095, Control_c, 0, 64, 82
2, 157106, Note_on_c, 0, 55, 47
2, 157111, Control_c, 0, 64, 82
2, 157126, Control_c, 0, 64, 81
2, 157142, Control_c, 0, 64, 80
2, 157156, Control_c, 0, 64, 79
2, 157171, Control_c, 0, 64, 77
2, 157173, Note_on_c, 0, 74, 0
2, 157187, Control_c, 0, 64, 74
2, 157200, Note_on_c, 0, 55, 0
2, 157202, Control_c, 0, 64, 71
2, 157205, Note_on_c, 0, 57, 49
2, 157218, Control_c, 0, 64, 67
2, 157232, Control_c, 0, 64, 63
2, 157238, Note_on_c, 0, 74, 54
2, 157242, Note_on_c, 0, 65, 65
2, 157247, Control_c, 0, 64, 54
2, 157247, Note_on_c, 0, 64, 0
2, 157263, Control_c, 0, 64, 42
2, 157277, Control_c, 0, 64, 19
2, 157292, Control_c, 0, 64, 0
2, 157323, Control_c, 0, 64, 32
2, 157339, Control_c, 0, 64, 50
2, 157354, Control_c, 0, 64, 59
2, 157369, Control_c, 0, 64, 63
2, 157385, Control_c, 0, 64, 64
2, 157400, Control_c, 0, 64, 66
2, 157415, Control_c, 0, 64, 69
2, 157428, Note_on_c, 0, 62, 65
2, 157430, Control_c, 0, 64, 72
2, 157445, Control_c, 0, 64, 76
2, 157461, Control_c, 0, 64, 78
2, 157490, Control_c, 0, 64, 78
2, 157504, Note_on_c, 0, 65, 0
2, 157544, Control_c, 0, 64, 77
2, 157559, Control_c, 0, 64, 76
2, 157574, Control_c, 0, 64, 74
2, 157577, Note_on_c, 0, 57, 0
2, 157590, Control_c, 0, 64, 70
2, 157602, Note_on_c, 0, 61, 56
2, 157604, Control_c, 0, 64, 66
2, 157607, Note_on_c, 0, 58, 51
2, 157610, Note_on_c, 0, 62, 0
2, 157620, Control_c, 0, 64, 60
2, 157635, Control_c, 0, 64, 51
2, 157650, Control_c, 0, 64, 42
2, 157666, Control_c, 0, 64, 38
2, 157681, Control_c, 0, 64, 38
2, 157695, Control_c, 0, 64, 46
2, 157710, Control_c, 0, 64, 57
2, 157725, Control_c, 0, 64, 63
2, 157742, Control_c, 0, 64, 66
2, 157757, Control_c, 0, 64, 70
2, 157772, Control_c, 0, 64, 72
2, 157785, Note_on_c, 0, 62, 68
2, 157787, Control_c, 0, 64, 74
2, 157799, Note_on_c, 0, 61, 0
2, 157802, Control_c, 0, 64, 76
2, 157818, Control_c, 0, 64, 78
2, 157822, Note_on_c, 0, 58, 0
2, 157833, Control_c, 0, 64, 78
2, 157848, Control_c, 0, 64, 78
2, 157871, Note_on_c, 0, 62, 0
2, 157908, Control_c, 0, 64, 77
2, 157923, Control_c, 0, 64, 76
2, 157939, Control_c, 0, 64, 74
2, 157954, Control_c, 0, 64, 73
2, 157969, Control_c, 0, 64, 71
2, 157985, Control_c, 0, 64, 69
2, 157999, Control_c, 0, 64, 66
2, 158010, Note_on_c, 0, 70, 60
2, 158014, Control_c, 0, 64, 63
2, 158022, Note_on_c, 0, 57, 34
2, 158030, Control_c, 0, 64, 59
2, 158045, Control_c, 0, 64, 53
2, 158061, Control_c, 0, 64, 45
2, 158075, Control_c, 0, 64, 27
2, 158090, Control_c, 0, 64, 0
2, 158182, Note_on_c, 0, 55, 48
2, 158213, Note_on_c, 0, 57, 0
2, 158228, Control_c, 0, 64, 35
2, 158243, Control_c, 0, 64, 51
2, 158259, Control_c, 0, 64, 55
2, 158273, Control_c, 0, 64, 56
2, 158288, Control_c, 0, 64, 57
2, 158311, Control_c, 0, 64, 59
2, 158326, Control_c, 0, 64, 60
2, 158342, Control_c, 0, 64, 62
2, 158355, Note_on_c, 0, 55, 0
2, 158357, Control_c, 0, 64, 63
2, 158372, Control_c, 0, 64, 64
2, 158372, Note_on_c, 0, 53, 40
2, 158380, Note_on_c, 0, 70, 0
2, 158388, Control_c, 0, 64, 65
2, 158402, Control_c, 0, 64, 67
2, 158418, Control_c, 0, 64, 69
2, 158433, Control_c, 0, 64, 71
2, 158448, Control_c, 0, 64, 73
2, 158463, Control_c, 0, 64, 73
2, 158539, Note_on_c, 0, 53, 0
2, 158559, Note_on_c, 0, 55, 40
2, 158570, Control_c, 0, 64, 73
2, 158586, Control_c, 0, 64, 72
2, 158600, Note_on_c, 0, 55, 0
2, 158617, Control_c, 0, 64, 72
2, 158631, Control_c, 0, 64, 71
2, 158646, Control_c, 0, 64, 70
2, 158662, Control_c, 0, 64, 69
2, 158707, Control_c, 0, 64, 69
2, 158722, Control_c, 0, 64, 68
2, 158738, Control_c, 0, 64, 66
2, 158740, Note_on_c, 0, 69, 53
2, 158753, Control_c, 0, 64, 64
2, 158764, Note_on_c, 0, 55, 28
2, 158767, Control_c, 0, 64, 63
2, 158783, Control_c, 0, 64, 61
2, 158798, Control_c, 0, 64, 59
2, 158812, Note_on_c, 0, 69, 0
2, 158813, Control_c, 0, 64, 55
2, 158829, Control_c, 0, 64, 52
2, 158832, Note_on_c, 0, 67, 57
2, 158843, Control_c, 0, 64, 47
2, 158859, Control_c, 0, 64, 43
2, 158874, Control_c, 0, 64, 38
2, 158889, Control_c, 0, 64, 34
2, 158905, Control_c, 0, 64, 31
2, 158906, Note_on_c, 0, 53, 45
2, 158910, Note_on_c, 0, 55, 0
2, 158910, Note_on_c, 0, 67, 0
2, 158919, Control_c, 0, 64, 29
2, 158933, Note_on_c, 0, 69, 55
2, 158934, Control_c, 0, 64, 25
2, 158950, Control_c, 0, 64, 19
2, 158965, Control_c, 0, 64, 12
2, 158980, Note_on_c, 0, 69, 0
2, 158981, Control_c, 0, 64, 0
2, 159015, Note_on_c, 0, 67, 51
2, 159044, Note_on_c, 0, 53, 0
2, 159078, Note_on_c, 0, 52, 40
2, 159081, Note_on_c, 0, 67, 0
2, 159115, Note_on_c, 0, 69, 52
2, 159155, Control_c, 0, 64, 23
2, 159165, Note_on_c, 0, 69, 0
2, 159170, Control_c, 0, 64, 36
2, 159186, Control_c, 0, 64, 47
2, 159199, Note_on_c, 0, 67, 57
2, 159200, Control_c, 0, 64, 53
2, 159215, Control_c, 0, 64, 57
2, 159231, Control_c, 0, 64, 60
2, 159231, Note_on_c, 0, 52, 0
2, 159246, Control_c, 0, 64, 62
2, 159249, Note_on_c, 0, 67, 0
2, 159261, Control_c, 0, 64, 63
2, 159276, Control_c, 0, 64, 64
2, 159282, Note_on_c, 0, 65, 54
2, 159286, Note_on_c, 0, 53, 40
2, 159291, Control_c, 0, 64, 65
2, 159306, Control_c, 0, 64, 67
2, 159321, Control_c, 0, 64, 68
2, 159327, Note_on_c, 0, 65, 0
2, 159335, Note_on_c, 0, 53, 0
2, 159337, Control_c, 0, 64, 70
2, 159352, Control_c, 0, 64, 70
2, 159374, Note_on_c, 0, 67, 52
2, 159429, Control_c, 0, 64, 70
2, 159460, Control_c, 0, 64, 69
2, 159474, Control_c, 0, 64, 68
2, 159489, Control_c, 0, 64, 66
2, 159493, Note_on_c, 0, 67, 0
2, 159505, Control_c, 0, 64, 64
2, 159511, Note_on_c, 0, 53, 39
2, 159515, Note_on_c, 0, 69, 47
2, 159520, Control_c, 0, 64, 61
2, 159535, Control_c, 0, 64, 57
2, 159550, Control_c, 0, 64, 52
2, 159565, Control_c, 0, 64, 46
2, 159581, Control_c, 0, 64, 40
2, 159595, Control_c, 0, 64, 32
2, 159610, Control_c, 0, 64, 21
2, 159626, Control_c, 0, 64, 0
2, 159972, Note_on_c, 0, 70, 50
2, 159984, Note_on_c, 0, 55, 39
2, 159987, Note_on_c, 0, 53, 0
2, 159990, Note_on_c, 0, 69, 0
2, 160044, Control_c, 0, 64, 22
2, 160060, Control_c, 0, 64, 48
2, 160075, Control_c, 0, 64, 57
2, 160089, Control_c, 0, 64, 62
2, 160105, Control_c, 0, 64, 64
2, 160120, Control_c, 0, 64, 66
2, 160135, Control_c, 0, 64, 69
2, 160150, Control_c, 0, 64, 74
2, 160165, Control_c, 0, 64, 79
2, 160169, Note_on_c, 0, 55, 0
2, 160181, Control_c, 0, 64, 86
2, 160197, Control_c, 0, 64, 96
2, 160212, Control_c, 0, 64, 111
2, 160228, Control_c, 0, 64, 127
2, 160364, Control_c, 0, 64, 116
2, 160379, Control_c, 0, 64, 107
2, 160394, Control_c, 0, 64, 100
2, 160402, Note_on_c, 0, 70, 0
2, 160409, Control_c, 0, 64, 94
2, 160417, Note_on_c, 0, 74, 0
2, 160425, Control_c, 0, 64, 85
2, 160440, Control_c, 0, 64, 75
2, 160452, Note_on_c, 0, 57, 40
2, 160454, Control_c, 0, 64, 66
2, 160469, Note_on_c, 0, 65, 29
2, 160470, Control_c, 0, 64, 59
2, 160483, Control_c, 0, 64, 57
2, 160498, Control_c, 0, 64, 59
2, 160513, Control_c, 0, 64, 62
2, 160528, Control_c, 0, 64, 66
2, 160544, Control_c, 0, 64, 70
2, 160559, Control_c, 0, 64, 75
2, 160565, Note_on_c, 0, 65, 0
2, 160574, Control_c, 0, 64, 81
2, 160579, Note_on_c, 0, 64, 49
2, 160597, Control_c, 0, 64, 85
2, 160612, Control_c, 0, 64, 88
2, 160628, Control_c, 0, 64, 90
2, 160643, Control_c, 0, 64, 93
2, 160644, Note_on_c, 0, 64, 0
2, 160657, Control_c, 0, 64, 97
2, 160673, Control_c, 0, 64, 99
2, 160681, Note_on_c, 0, 80, 59
2, 160691, Note_on_c, 0, 57, 0
2, 160702, Note_on_c, 0, 65, 41
2, 160733, Control_c, 0, 64, 99
2, 160747, Note_on_c, 0, 65, 0
2, 160749, Control_c, 0, 64, 98
2, 160764, Control_c, 0, 64, 97
2, 160775, Note_on_c, 0, 64, 45
2, 160779, Control_c, 0, 64, 95
2, 160794, Control_c, 0, 64, 94
2, 160809, Control_c, 0, 64, 91
2, 160815, Note_on_c, 0, 64, 0
2, 160825, Control_c, 0, 64, 88
2, 160840, Control_c, 0, 64, 83
2, 160855, Control_c, 0, 64, 74
2, 160861, Note_on_c, 0, 65, 48
2, 160869, Note_on_c, 0, 81, 58
2, 160871, Control_c, 0, 64, 65
2, 160886, Control_c, 0, 64, 58
2, 160889, Note_on_c, 0, 55, 31
2, 160901, Control_c, 0, 64, 55
2, 160917, Control_c, 0, 64, 57
2, 160931, Control_c, 0, 64, 61
2, 160942, Note_on_c, 0, 65, 0
2, 160947, Control_c, 0, 64, 65
2, 160952, Note_on_c, 0, 80, 0
2, 160962, Control_c, 0, 64, 68
2, 160973, Note_on_c, 0, 64, 42
2, 160977, Control_c, 0, 64, 73
2, 160992, Control_c, 0, 64, 79
2, 161008, Control_c, 0, 64, 83
2, 161024, Control_c, 0, 64, 85
2, 161025, Note_on_c, 0, 81, 0
2, 161027, Note_on_c, 0, 64, 0
2, 161039, Control_c, 0, 64, 86
2, 161054, Control_c, 0, 64, 88
2, 161057, Note_on_c, 0, 74, 56
2, 161070, Control_c, 0, 64, 89
2, 161071, Note_on_c, 0, 55, 0
2, 161076, Note_on_c, 0, 65, 47
2, 161084, Control_c, 0, 64, 89
2, 161126, Note_on_c, 0, 65, 0
2, 161133, Note_on_c, 0, 64, 53
2, 161160, Control_c, 0, 64, 89
2, 161175, Control_c, 0, 64, 88
2, 161191, Control_c, 0, 64, 87
2, 161206, Control_c, 0, 64, 85
2, 161215, Note_on_c, 0, 64, 0
2, 161220, Control_c, 0, 64, 84
2, 161236, Control_c, 0, 64, 82
2, 161241, Note_on_c, 0, 65, 53
2, 161251, Control_c, 0, 64, 80
2, 161257, Note_on_c, 0, 77, 68
2, 161261, Note_on_c, 0, 74, 0
2, 161267, Control_c, 0, 64, 76
2, 161273, Note_on_c, 0, 57, 47
2, 161282, Control_c, 0, 64, 69
2, 161296, Control_c, 0, 64, 64
2, 161312, Control_c, 0, 64, 61
2, 161327, Control_c, 0, 64, 60
2, 161342, Control_c, 0, 64, 58
2, 161347, Note_on_c, 0, 65, 0
2, 161364, Note_on_c, 0, 64, 49
2, 161365, Control_c, 0, 64, 56
2, 161380, Control_c, 0, 64, 54
2, 161396, Control_c, 0, 64, 51
2, 161411, Control_c, 0, 64, 50
2, 161448, Note_on_c, 0, 64, 0
2, 161460, Note_on_c, 0, 76, 65
2, 161472, Control_c, 0, 64, 49
2, 161481, Note_on_c, 0, 65, 53
2, 161487, Control_c, 0, 64, 49
2, 161510, Note_on_c, 0, 77, 0
2, 161554, Note_on_c, 0, 65, 0
2, 161578, Note_on_c, 0, 64, 56
2, 161608, Control_c, 0, 64, 48
2, 161622, Control_c, 0, 64, 47
2, 161636, Note_on_c, 0, 64, 0
2, 161638, Control_c, 0, 64, 47
2, 161653, Control_c, 0, 64, 45
2, 161669, Control_c, 0, 64, 40
2, 161672, Note_on_c, 0, 74, 52
2, 161680, Note_on_c, 0, 65, 48
2, 161680, Note_on_c, 0, 76, 0
2, 161684, Control_c, 0, 64, 34
2, 161699, Control_c, 0, 64, 29
2, 161715, Control_c, 0, 64, 23
2, 161730, Control_c, 0, 64, 16
2, 161746, Control_c, 0, 64, 0
2, 161746, Note_on_c, 0, 65, 0
2, 161763, Note_on_c, 0, 64, 54
2, 161877, Note_on_c, 0, 64, 0
2, 161900, Note_on_c, 0, 73, 54
2, 161901, Note_on_c, 0, 62, 42
2, 161916, Note_on_c, 0, 74, 0
2, 161928, Control_c, 0, 64, 22
2, 161944, Control_c, 0, 64, 47
2, 161959, Control_c, 0, 64, 57
2, 161974, Control_c, 0, 64, 61
2, 161990, Control_c, 0, 64, 63
2, 162004, Control_c, 0, 64, 66
2, 162019, Control_c, 0, 64, 69
2, 162021, Note_on_c, 0, 62, 0
2, 162035, Control_c, 0, 64, 74
2, 162048, Note_on_c, 0, 64, 49
2, 162050, Control_c, 0, 64, 83
2, 162065, Control_c, 0, 64, 95
2, 162065, Note_on_c, 0, 57, 0
2, 162080, Control_c, 0, 64, 113
2, 162082, Note_on_c, 0, 64, 0
2, 162095, Control_c, 0, 64, 127
2, 162210, Control_c, 0, 64, 109
2, 162225, Control_c, 0, 64, 99
2, 162240, Control_c, 0, 64, 90
2, 162255, Control_c, 0, 64, 83
2, 162270, Control_c, 0, 64, 77
2, 162276, Note_on_c, 0, 74, 56
2, 162285, Control_c, 0, 64, 71
2, 162295, Note_on_c, 0, 50, 45
2, 162300, Control_c, 0, 64, 67
2, 162316, Control_c, 0, 64, 63
2, 162331, Control_c, 0, 64, 59
2, 162346, Control_c, 0, 64, 49
2, 162347, Note_on_c, 0, 73, 0
2, 162361, Control_c, 0, 64, 20
2, 162376, Control_c, 0, 64, 0
2, 162437, Control_c, 0, 64, 26
2, 162452, Control_c, 0, 64, 49
2, 162467, Control_c, 0, 64, 59
2, 162482, Control_c, 0, 64, 63
2, 162497, Control_c, 0, 64, 65
2, 162513, Control_c, 0, 64, 68
2, 162528, Control_c, 0, 64, 74
2, 162544, Control_c, 0, 64, 82
2, 162558, Control_c, 0, 64, 93
2, 162564, Note_on_c, 0, 50, 0
2, 162573, Control_c, 0, 64, 106
2, 162589, Control_c, 0, 64, 127
2, 162848, Control_c, 0, 64, 118
2, 162864, Control_c, 0, 64, 110
2, 162879, Control_c, 0, 64, 105
2, 162886, Note_on_c, 0, 72, 57
2, 162888, Note_on_c, 0, 50, 40
2, 162894, Control_c, 0, 64, 98
2, 162895, Note_on_c, 0, 69, 47
2, 162910, Note_on_c, 0, 54, 45
2, 162916, Control_c, 0, 64, 88
2, 162931, Control_c, 0, 64, 79
2, 162947, Control_c, 0, 64, 73
2, 162962, Control_c, 0, 64, 70
2, 162977, Control_c, 0, 64, 67
2, 162993, Control_c, 0, 64, 63
2, 163008, Control_c, 0, 64, 53
2, 163024, Control_c, 0, 64, 37
2, 163038, Control_c, 0, 64, 27
2, 163053, Control_c, 0, 64, 32
2, 163069, Control_c, 0, 64, 46
2, 163084, Control_c, 0, 64, 57
2, 163099, Control_c, 0, 64, 63
2, 163114, Control_c, 0, 64, 65
2, 163129, Control_c, 0, 64, 68
2, 163145, Control_c, 0, 64, 71
2, 163160, Control_c, 0, 64, 75
2, 163175, Control_c, 0, 64, 78
2, 163190, Control_c, 0, 64, 82
2, 163205, Control_c, 0, 64, 87
2, 163220, Control_c, 0, 64, 90
2, 163235, Control_c, 0, 64, 91
2, 163296, Control_c, 0, 64, 90
2, 163311, Control_c, 0, 64, 89
2, 163326, Control_c, 0, 64, 87
2, 163338, Note_on_c, 0, 70, 71
2, 163341, Control_c, 0, 64, 85
2, 163354, Note_on_c, 0, 55, 45
2, 163356, Note_on_c, 0, 67, 46
2, 163357, Control_c, 0, 64, 83
2, 163358, Note_on_c, 0, 52, 49
2, 163372, Control_c, 0, 64, 79
2, 163387, Control_c, 0, 64, 73
2, 163402, Control_c, 0, 64, 66
2, 163402, Note_on_c, 0, 69, 0
2, 163417, Control_c, 0, 64, 58
2, 163433, Control_c, 0, 64, 48
2, 163440, Note_on_c, 0, 54, 0
2, 163448, Control_c, 0, 64, 40
2, 163464, Control_c, 0, 64, 39
2, 163479, Control_c, 0, 64, 46
2, 163494, Control_c, 0, 64, 56
2, 163510, Control_c, 0, 64, 63
2, 163525, Control_c, 0, 64, 68
2, 163539, Control_c, 0, 64, 73
2, 163546, Note_on_c, 0, 72, 0
2, 163555, Control_c, 0, 64, 81
2, 163570, Control_c, 0, 64, 94
2, 163586, Control_c, 0, 64, 112
2, 163601, Control_c, 0, 64, 127
2, 163622, Note_on_c, 0, 67, 0
2, 163729, Note_on_c, 0, 70, 0
2, 163780, Note_on_c, 0, 52, 0
2, 163818, Note_on_c, 0, 70, 26
2, 163836, Control_c, 0, 64, 105
2, 163851, Control_c, 0, 64, 92
2, 163852, Note_on_c, 0, 69, 64
2, 163854, Note_on_c, 0, 54, 47
2, 163865, Note_on_c, 0, 66, 45
2, 163867, Control_c, 0, 64, 81
2, 163867, Note_on_c, 0, 57, 39
2, 163868, Note_on_c, 0, 55, 0
2, 163882, Control_c, 0, 64, 75
2, 163897, Control_c, 0, 64, 71
2, 163913, Control_c, 0, 64, 68
2, 163928, Control_c, 0, 64, 64
2, 163944, Control_c, 0, 64, 58
2, 163958, Control_c, 0, 64, 37
2, 163973, Control_c, 0, 64, 0
2, 164065, Control_c, 0, 64, 44
2, 164079, Control_c, 0, 64, 58
2, 164094, Control_c, 0, 64, 63
2, 164110, Control_c, 0, 64, 65
2, 164125, Control_c, 0, 64, 68
2, 164135, Note_on_c, 0, 57, 0
2, 164140, Control_c, 0, 64, 72
2, 164149, Note_on_c, 0, 66, 0
2, 164155, Control_c, 0, 64, 79
2, 164170, Control_c, 0, 64, 86
2, 164186, Control_c, 0, 64, 92
2, 164201, Control_c, 0, 64, 93
2, 164246, Control_c, 0, 64, 92
2, 164261, Control_c, 0, 64, 92
2, 164278, Control_c, 0, 64, 90
2, 164293, Control_c, 0, 64, 88
2, 164308, Control_c, 0, 64, 87
2, 164323, Control_c, 0, 64, 86
2, 164338, Control_c, 0, 64, 85
2, 164347, Note_on_c, 0, 54, 0
2, 164354, Control_c, 0, 64, 82
2, 164357, Note_on_c, 0, 67, 49
2, 164362, Note_on_c, 0, 64, 39
2, 164365, Note_on_c, 0, 55, 32
2, 164368, Note_on_c, 0, 58, 38
2, 164369, Control_c, 0, 64, 79
2, 164384, Control_c, 0, 64, 75
2, 164399, Control_c, 0, 64, 68
2, 164408, Note_on_c, 0, 70, 0
2, 164411, Note_on_c, 0, 69, 0
2, 164414, Control_c, 0, 64, 59
2, 164438, Control_c, 0, 64, 27
2, 164453, Control_c, 0, 64, 0
2, 164559, Control_c, 0, 64, 32
2, 164574, Control_c, 0, 64, 52
2, 164590, Control_c, 0, 64, 60
2, 164604, Control_c, 0, 64, 64
2, 164619, Control_c, 0, 64, 67
2, 164635, Control_c, 0, 64, 71
2, 164650, Control_c, 0, 64, 77
2, 164666, Control_c, 0, 64, 82
2, 164680, Control_c, 0, 64, 87
2, 164695, Control_c, 0, 64, 90
2, 164698, Note_on_c, 0, 55, 0
2, 164704, Note_on_c, 0, 67, 0
2, 164711, Control_c, 0, 64, 92
2, 164726, Control_c, 0, 64, 94
2, 164729, Note_on_c, 0, 58, 0
2, 164741, Control_c, 0, 64, 96
2, 164757, Control_c, 0, 64, 97
2, 164772, Control_c, 0, 64, 99
2, 164788, Control_c, 0, 64, 103
2, 164802, Control_c, 0, 64, 107
2, 164817, Control_c, 0, 64, 111
2, 164833, Control_c, 0, 64, 113
2, 164954, Control_c, 0, 64, 111
2, 164969, Control_c, 0, 64, 110
2, 164985, Control_c, 0, 64, 108
2, 164999, Control_c, 0, 64, 107
2, 165014, Control_c, 0, 64, 103
2, 165019, Note_on_c, 0, 70, 49
2, 165026, Note_on_c, 0, 67, 41
2, 165028, Note_on_c, 0, 55, 33
2, 165030, Control_c, 0, 64, 98
2, 165035, Note_on_c, 0, 52, 35
2, 165045, Control_c, 0, 64, 94
2, 165060, Control_c, 0, 64, 90
2, 165073, Control_c, 0, 64, 85
2, 165088, Control_c, 0, 64, 77
2, 165104, Control_c, 0, 64, 69
2, 165120, Control_c, 0, 64, 63
2, 165135, Control_c, 0, 64, 56
2, 165149, Control_c, 0, 64, 43
2, 165165, Control_c, 0, 64, 0
2, 165167, Note_on_c, 0, 64, 0
2, 165295, Control_c, 0, 64, 23
2, 165309, Control_c, 0, 64, 49
2, 165325, Control_c, 0, 64, 58
2, 165340, Control_c, 0, 64, 61
2, 165355, Control_c, 0, 64, 62
2, 165370, Control_c, 0, 64, 64
2, 165385, Control_c, 0, 64, 65
2, 165401, Control_c, 0, 64, 67
2, 165416, Control_c, 0, 64, 69
2, 165419, Note_on_c, 0, 67, 0
2, 165423, Note_on_c, 0, 55, 0
2, 165431, Control_c, 0, 64, 71
2, 165446, Control_c, 0, 64, 74
2, 165461, Control_c, 0, 64, 77
2, 165477, Control_c, 0, 64, 81
2, 165492, Control_c, 0, 64, 86
2, 165507, Control_c, 0, 64, 93
2, 165522, Control_c, 0, 64, 100
2, 165522, Note_on_c, 0, 52, 0
2, 165537, Control_c, 0, 64, 107
2, 165553, Control_c, 0, 64, 109
2, 165562, Note_on_c, 0, 70, 0
2, 165568, Control_c, 0, 64, 110
2, 165583, Control_c, 0, 64, 112
2, 165598, Control_c, 0, 64, 118
2, 165601, Note_on_c, 0, 50, 0
2, 165613, Control_c, 0, 64, 127
2, 165623, Note_on_c, 0, 74, 0
2, 166498, Note_on_c, 0, 74, 59
2, 166503, Control_c, 0, 64, 121
2, 166512, Note_on_c, 0, 66, 37
2, 166519, Control_c, 0, 64, 111
2, 166519, Note_on_c, 0, 50, 33
2, 166521, Note_on_c, 0, 69, 48
2, 166525, Note_on_c, 0, 54, 37
2, 166525, Note_on_c, 0, 57, 33
2, 166533, Control_c, 0, 64, 103
2, 166548, Control_c, 0, 64, 96
2, 166564, Control_c, 0, 64, 87
2, 166579, Control_c, 0, 64, 80
2, 166595, Control_c, 0, 64, 75
2, 166609, Control_c, 0, 64, 71
2, 166624, Control_c, 0, 64, 68
2, 166640, Control_c, 0, 64, 65
2, 166655, Control_c, 0, 64, 64
2, 166671, Control_c, 0, 64, 63
2, 166685, Control_c, 0, 64, 62
2, 166700, Control_c, 0, 64, 62
2, 166716, Control_c, 0, 64, 61
2, 166731, Control_c, 0, 64, 60
2, 166785, Control_c, 0, 64, 60
2, 166815, Control_c, 0, 64, 59
2, 166831, Control_c, 0, 64, 59
2, 166963, Control_c, 0, 64, 58
2, 166978, Control_c, 0, 64, 58
2, 167039, Control_c, 0, 64, 57
2, 167069, Control_c, 0, 64, 56
2, 167130, Control_c, 0, 64, 56
2, 167170, Control_c, 0, 64, 56
2, 167255, Control_c, 0, 64, 57
2, 167286, Control_c, 0, 64, 57
2, 167301, Control_c, 0, 64, 58
2, 167316, Control_c, 0, 64, 59
2, 167332, Control_c, 0, 64, 60
2, 167377, Control_c, 0, 64, 60
2, 167408, Control_c, 0, 64, 61
2, 167484, Control_c, 0, 64, 61
2, 167628, Control_c, 0, 64, 62
2, 167644, Control_c, 0, 64, 62
2, 167672, Control_c, 0, 64, 63
2, 167703, Control_c, 0, 64, 63
2, 167734, Control_c, 0, 64, 64
2, 167748, Control_c, 0, 64, 64
2, 167763, Control_c, 0, 64, 65
2, 167794, Control_c, 0, 64, 65
2, 167839, Control_c, 0, 64, 66
2, 167870, Control_c, 0, 64, 66
2, 167885, Control_c, 0, 64, 67
2, 167916, Control_c, 0, 64, 67
2, 167932, Control_c, 0, 64, 68
2, 167947, Control_c, 0, 64, 68
2, 167961, Control_c, 0, 64, 69
2, 167977, Control_c, 0, 64, 70
2, 167992, Control_c, 0, 64, 72
2, 168007, Control_c, 0, 64, 73
2, 168022, Control_c, 0, 64, 74
2, 168037, Control_c, 0, 64, 75
2, 168053, Control_c, 0, 64, 76
2, 168068, Control_c, 0, 64, 78
2, 168082, Control_c, 0, 64, 79
2, 168098, Control_c, 0, 64, 80
2, 168113, Control_c, 0, 64, 82
2, 168126, Control_c, 0, 64, 84
2, 168142, Control_c, 0, 64, 86
2, 168156, Control_c, 0, 64, 89
2, 168171, Control_c, 0, 64, 92
2, 168187, Control_c, 0, 64, 97
2, 168201, Control_c, 0, 64, 102
2, 168217, Control_c, 0, 64, 110
2, 168232, Control_c, 0, 64, 127
2, 168888, Note_on_c, 0, 74, 0
2, 169000, Note_on_c, 0, 69, 0
2, 169327, Note_on_c, 0, 66, 0
2, 169373, Note_on_c, 0, 50, 0
2, 169414, Note_on_c, 0, 54, 0
2, 169544, Note_on_c, 0, 57, 0
2, 169749, Control_c, 0, 64, 113
2, 169763, Control_c, 0, 64, 107
2, 169778, Control_c, 0, 64, 105
2, 169802, Control_c, 0, 64, 105
2, 169832, Control_c, 0, 64, 104
2, 169847, Control_c, 0, 64, 102
2, 169862, Control_c, 0, 64, 98
2, 169878, Control_c, 0, 64, 98
2, 169879, End_track
0, 0, End_of_file
